0, 0, Header, 1, 23, 240
1, 0, Start_track
1, 0, Sequencer_specific, 10, 0, 0, 91, 35, 1, 0, 5, 6, 42, 0
1, 0, Title_t, "Ludwig van Beethoven - Symphony No. 5 in C minor, Op.67"
1, 0, Instrument_name_t, "Conductor Track"
1, 0, SMPTE_offset, 96, 0, 3, 0, 0
1, 0, MIDI_port, 0
1, 0, Key_signature, 0, "major"
1, 0, Tempo, 357142
1, 0, Time_signature, 4, 2, 24, 8
1, 227520, Time_signature, 3, 2, 24, 8
1, 227520, Tempo, 208333
1, 266400, Time_signature, 4, 2, 24, 8
1, 266400, Tempo, 357142
1, 403680, Time_signature, 4, 3, 12, 8
1, 403680, Tempo, 714285
1, 405120, Tempo, 714285
1, 405300, Tempo, 666666
1, 405480, Tempo, 625000
1, 405660, Tempo, 588235
1, 405840, Tempo, 560747
1, 406020, Tempo, 530973
1, 406200, Tempo, 504201
1, 406380, Tempo, 480000
1, 406560, Tempo, 458015
1, 406740, Tempo, 437956
1, 406920, Tempo, 422535
1, 407100, Tempo, 405405
1, 407280, Tempo, 389610
1, 407460, Tempo, 375000
1, 407640, Tempo, 361445
1, 407820, Tempo, 348837
1, 408000, Tempo, 338983
1, 408180, Tempo, 327868
1, 408360, Tempo, 317460
1, 408540, Tempo, 307692
1, 408720, Tempo, 298507
1, 408900, Tempo, 289855
1, 409080, Tempo, 283018
1, 409260, Tempo, 275229
1, 409440, Tempo, 267857
1, 444960, Tempo, 267857
1, 445270, Tempo, 272727
1, 445580, Tempo, 277777
1, 445890, Tempo, 281690
1, 446200, Tempo, 287081
1, 446510, Tempo, 292682
1, 446820, Tempo, 298507
1, 447130, Tempo, 304568
1, 447440, Tempo, 310880
1, 447750, Tempo, 315789
1, 448060, Tempo, 322580
1, 448370, Tempo, 329670
1, 448680, Tempo, 337078
1, 448800, Time_signature, 10, 2, 24, 8
1, 448800, Tempo, 357142
1, 451200, Time_signature, 4, 2, 24, 8
1, 451200, Tempo, 1000000
1, 451440, Tempo, 500000
1, 451440, End_track
2, 0, Start_track
2, 0, Title_t, "4th Movement - Allegro"
2, 0, MIDI_port, 0
2, 0, End_track
3, 0, Start_track
3, 0, Title_t, "Sequenced by D. L. Viens 8 Jul 2000"
3, 0, MIDI_port, 0
3, 0, End_track
4, 0, Start_track
4, 0, Title_t, "dlviens@empire.net"
4, 0, MIDI_port, 0
4, 0, End_track
5, 0, Start_track
5, 0, MIDI_port, 0
5, 0, End_track
6, 0, Start_track
6, 0, Title_t, "Piccolo"
6, 0, MIDI_port, 0
6, 0, Program_c, 7, 72
6, 0, Control_c, 7, 7, 72
6, 0, Control_c, 7, 10, 55
6, 0, Control_c, 7, 11, 127
6, 0, Note_on_c, 7, 84, 84
6, 239, Note_on_c, 7, 84, 0
6, 480, Note_on_c, 7, 88, 84
6, 719, Note_on_c, 7, 88, 0
6, 960, Note_on_c, 7, 91, 84
6, 1199, Note_on_c, 7, 91, 0
6, 1680, Note_on_c, 7, 89, 84
6, 1799, Note_on_c, 7, 89, 0
6, 1920, Note_on_c, 7, 88, 84
6, 2039, Note_on_c, 7, 88, 0
6, 2160, Note_on_c, 7, 86, 84
6, 2279, Note_on_c, 7, 86, 0
6, 2400, Note_on_c, 7, 84, 84
6, 2519, Note_on_c, 7, 84, 0
6, 2640, Note_on_c, 7, 86, 84
6, 2759, Note_on_c, 7, 86, 0
6, 2880, Note_on_c, 7, 84, 84
6, 3584, Note_on_c, 7, 84, 0
6, 3600, Note_on_c, 7, 84, 84
6, 3771, Note_on_c, 7, 84, 0
6, 3780, Note_on_c, 7, 84, 84
6, 3831, Note_on_c, 7, 84, 0
6, 3840, Note_on_c, 7, 86, 84
6, 4544, Note_on_c, 7, 86, 0
6, 4560, Note_on_c, 7, 86, 84
6, 4731, Note_on_c, 7, 86, 0
6, 4740, Note_on_c, 7, 86, 84
6, 4791, Note_on_c, 7, 86, 0
6, 4800, Note_on_c, 7, 88, 84
6, 5384, Note_on_c, 7, 88, 0
6, 5400, Note_on_c, 7, 84, 84
6, 5489, Note_on_c, 7, 84, 0
6, 5520, Note_on_c, 7, 86, 84
6, 5609, Note_on_c, 7, 86, 0
6, 5640, Note_on_c, 7, 88, 84
6, 5729, Note_on_c, 7, 88, 0
6, 5760, Note_on_c, 7, 89, 84
6, 5849, Note_on_c, 7, 89, 0
6, 5880, Note_on_c, 7, 88, 84
6, 5969, Note_on_c, 7, 88, 0
6, 6000, Note_on_c, 7, 89, 84
6, 6089, Note_on_c, 7, 89, 0
6, 6120, Note_on_c, 7, 91, 84
6, 6209, Note_on_c, 7, 91, 0
6, 6240, Note_on_c, 7, 93, 84
6, 6329, Note_on_c, 7, 93, 0
6, 6360, Note_on_c, 7, 91, 84
6, 6449, Note_on_c, 7, 91, 0
6, 6480, Note_on_c, 7, 93, 84
6, 6569, Note_on_c, 7, 93, 0
6, 6600, Note_on_c, 7, 95, 84
6, 6689, Note_on_c, 7, 95, 0
6, 6720, Note_on_c, 7, 96, 84
6, 7304, Note_on_c, 7, 96, 0
6, 7320, Note_on_c, 7, 84, 84
6, 7409, Note_on_c, 7, 84, 0
6, 7440, Note_on_c, 7, 86, 84
6, 7529, Note_on_c, 7, 86, 0
6, 7560, Note_on_c, 7, 88, 84
6, 7649, Note_on_c, 7, 88, 0
6, 7680, Note_on_c, 7, 89, 84
6, 7769, Note_on_c, 7, 89, 0
6, 7800, Note_on_c, 7, 88, 84
6, 7889, Note_on_c, 7, 88, 0
6, 7920, Note_on_c, 7, 89, 84
6, 8009, Note_on_c, 7, 89, 0
6, 8040, Note_on_c, 7, 91, 84
6, 8129, Note_on_c, 7, 91, 0
6, 8160, Note_on_c, 7, 93, 84
6, 8249, Note_on_c, 7, 93, 0
6, 8280, Note_on_c, 7, 91, 84
6, 8369, Note_on_c, 7, 91, 0
6, 8400, Note_on_c, 7, 93, 84
6, 8489, Note_on_c, 7, 93, 0
6, 8520, Note_on_c, 7, 95, 84
6, 8609, Note_on_c, 7, 95, 0
6, 8640, Note_on_c, 7, 96, 84
6, 9224, Note_on_c, 7, 96, 0
6, 9240, Note_on_c, 7, 84, 84
6, 9329, Note_on_c, 7, 84, 0
6, 9360, Note_on_c, 7, 86, 84
6, 9449, Note_on_c, 7, 86, 0
6, 9480, Note_on_c, 7, 88, 84
6, 9547, Note_on_c, 7, 88, 0
6, 9560, Note_on_c, 7, 91, 84
6, 9599, Note_on_c, 7, 91, 0
6, 9600, Note_on_c, 7, 89, 84
6, 9689, Note_on_c, 7, 89, 0
6, 9720, Note_on_c, 7, 88, 84
6, 9809, Note_on_c, 7, 88, 0
6, 9840, Note_on_c, 7, 89, 84
6, 9929, Note_on_c, 7, 89, 0
6, 9960, Note_on_c, 7, 91, 84
6, 10027, Note_on_c, 7, 91, 0
6, 10040, Note_on_c, 7, 95, 84
6, 10079, Note_on_c, 7, 95, 0
6, 10080, Note_on_c, 7, 93, 84
6, 10169, Note_on_c, 7, 93, 0
6, 10200, Note_on_c, 7, 91, 84
6, 10289, Note_on_c, 7, 91, 0
6, 10320, Note_on_c, 7, 93, 84
6, 10409, Note_on_c, 7, 93, 0
6, 10440, Note_on_c, 7, 95, 84
6, 10507, Note_on_c, 7, 95, 0
6, 10520, Note_on_c, 7, 98, 84
6, 10559, Note_on_c, 7, 98, 0
6, 10560, Note_on_c, 7, 96, 84
6, 10649, Note_on_c, 7, 96, 0
6, 10680, Note_on_c, 7, 95, 84
6, 10769, Note_on_c, 7, 95, 0
6, 10800, Note_on_c, 7, 96, 84
6, 10889, Note_on_c, 7, 96, 0
6, 10920, Note_on_c, 7, 98, 84
6, 11009, Note_on_c, 7, 98, 0
6, 11040, Note_on_c, 7, 100, 84
6, 11264, Note_on_c, 7, 100, 0
6, 11280, Note_on_c, 7, 91, 84
6, 11399, Note_on_c, 7, 91, 0
6, 11460, Note_on_c, 7, 100, 84
6, 11511, Note_on_c, 7, 100, 0
6, 11520, Note_on_c, 7, 100, 84
6, 11639, Note_on_c, 7, 100, 0
6, 11640, Note_on_c, 7, 98, 84
6, 11744, Note_on_c, 7, 98, 0
6, 11760, Note_on_c, 7, 89, 84
6, 11879, Note_on_c, 7, 89, 0
6, 11940, Note_on_c, 7, 98, 84
6, 11991, Note_on_c, 7, 98, 0
6, 12000, Note_on_c, 7, 98, 84
6, 12119, Note_on_c, 7, 98, 0
6, 12120, Note_on_c, 7, 96, 84
6, 12224, Note_on_c, 7, 96, 0
6, 12240, Note_on_c, 7, 88, 84
6, 12359, Note_on_c, 7, 88, 0
6, 12420, Note_on_c, 7, 96, 84
6, 12471, Note_on_c, 7, 96, 0
6, 12480, Note_on_c, 7, 96, 84
6, 12599, Note_on_c, 7, 96, 0
6, 12600, Note_on_c, 7, 95, 84
6, 12704, Note_on_c, 7, 95, 0
6, 12720, Note_on_c, 7, 95, 84
6, 13184, Note_on_c, 7, 95, 0
6, 13200, Note_on_c, 7, 96, 84
6, 13319, Note_on_c, 7, 96, 0
6, 13380, Note_on_c, 7, 100, 84
6, 13431, Note_on_c, 7, 100, 0
6, 13440, Note_on_c, 7, 100, 84
6, 13559, Note_on_c, 7, 100, 0
6, 13560, Note_on_c, 7, 98, 84
6, 13664, Note_on_c, 7, 98, 0
6, 13680, Note_on_c, 7, 89, 84
6, 13799, Note_on_c, 7, 89, 0
6, 13860, Note_on_c, 7, 98, 84
6, 13911, Note_on_c, 7, 98, 0
6, 13920, Note_on_c, 7, 98, 84
6, 14039, Note_on_c, 7, 98, 0
6, 14040, Note_on_c, 7, 96, 84
6, 14144, Note_on_c, 7, 96, 0
6, 14160, Note_on_c, 7, 88, 84
6, 14279, Note_on_c, 7, 88, 0
6, 14340, Note_on_c, 7, 96, 84
6, 14391, Note_on_c, 7, 96, 0
6, 14400, Note_on_c, 7, 96, 84
6, 14519, Note_on_c, 7, 96, 0
6, 14520, Note_on_c, 7, 95, 84
6, 14624, Note_on_c, 7, 95, 0
6, 14640, Note_on_c, 7, 95, 84
6, 15104, Note_on_c, 7, 95, 0
6, 15120, Note_on_c, 7, 96, 84
6, 15209, Note_on_c, 7, 96, 0
6, 15300, Note_on_c, 7, 100, 84
6, 15344, Note_on_c, 7, 100, 0
6, 15360, Note_on_c, 7, 100, 84
6, 15449, Note_on_c, 7, 100, 0
6, 15540, Note_on_c, 7, 98, 84
6, 15584, Note_on_c, 7, 98, 0
6, 15600, Note_on_c, 7, 89, 84
6, 15689, Note_on_c, 7, 89, 0
6, 15780, Note_on_c, 7, 98, 84
6, 15824, Note_on_c, 7, 98, 0
6, 15840, Note_on_c, 7, 98, 84
6, 15929, Note_on_c, 7, 98, 0
6, 16020, Note_on_c, 7, 96, 84
6, 16064, Note_on_c, 7, 96, 0
6, 16080, Note_on_c, 7, 88, 84
6, 16169, Note_on_c, 7, 88, 0
6, 16260, Note_on_c, 7, 96, 84
6, 16304, Note_on_c, 7, 96, 0
6, 16320, Note_on_c, 7, 95, 84
6, 16409, Note_on_c, 7, 95, 0
6, 16500, Note_on_c, 7, 86, 84
6, 16551, Note_on_c, 7, 86, 0
6, 16560, Note_on_c, 7, 91, 84
6, 17024, Note_on_c, 7, 91, 0
6, 17040, Note_on_c, 7, 93, 84
6, 17099, Note_on_c, 7, 93, 0
6, 17100, Note_on_c, 7, 91, 84
6, 17159, Note_on_c, 7, 91, 0
6, 17160, Note_on_c, 7, 89, 84
6, 17219, Note_on_c, 7, 89, 0
6, 17220, Note_on_c, 7, 88, 84
6, 17271, Note_on_c, 7, 88, 0
6, 17280, Note_on_c, 7, 86, 84
6, 17399, Note_on_c, 7, 86, 0
6, 17460, Note_on_c, 7, 86, 84
6, 17511, Note_on_c, 7, 86, 0
6, 17520, Note_on_c, 7, 91, 84
6, 17984, Note_on_c, 7, 91, 0
6, 18000, Note_on_c, 7, 93, 84
6, 18059, Note_on_c, 7, 93, 0
6, 18060, Note_on_c, 7, 91, 84
6, 18119, Note_on_c, 7, 91, 0
6, 18120, Note_on_c, 7, 89, 84
6, 18179, Note_on_c, 7, 89, 0
6, 18180, Note_on_c, 7, 88, 84
6, 18231, Note_on_c, 7, 88, 0
6, 18240, Note_on_c, 7, 86, 84
6, 18359, Note_on_c, 7, 86, 0
6, 18420, Note_on_c, 7, 91, 84
6, 18471, Note_on_c, 7, 91, 0
6, 18480, Note_on_c, 7, 93, 84
6, 18539, Note_on_c, 7, 93, 0
6, 18540, Note_on_c, 7, 91, 84
6, 18599, Note_on_c, 7, 91, 0
6, 18600, Note_on_c, 7, 89, 84
6, 18659, Note_on_c, 7, 89, 0
6, 18660, Note_on_c, 7, 88, 84
6, 18711, Note_on_c, 7, 88, 0
6, 18720, Note_on_c, 7, 86, 84
6, 18839, Note_on_c, 7, 86, 0
6, 18900, Note_on_c, 7, 91, 84
6, 18951, Note_on_c, 7, 91, 0
6, 18960, Note_on_c, 7, 93, 84
6, 19019, Note_on_c, 7, 93, 0
6, 19020, Note_on_c, 7, 91, 84
6, 19079, Note_on_c, 7, 91, 0
6, 19080, Note_on_c, 7, 89, 84
6, 19139, Note_on_c, 7, 89, 0
6, 19140, Note_on_c, 7, 88, 84
6, 19191, Note_on_c, 7, 88, 0
6, 19200, Note_on_c, 7, 86, 84
6, 19319, Note_on_c, 7, 86, 0
6, 19380, Note_on_c, 7, 91, 84
6, 19431, Note_on_c, 7, 91, 0
6, 19440, Note_on_c, 7, 93, 84
6, 19499, Note_on_c, 7, 93, 0
6, 19500, Note_on_c, 7, 91, 84
6, 19559, Note_on_c, 7, 91, 0
6, 19560, Note_on_c, 7, 89, 84
6, 19619, Note_on_c, 7, 89, 0
6, 19620, Note_on_c, 7, 88, 84
6, 19671, Note_on_c, 7, 88, 0
6, 19680, Note_on_c, 7, 86, 84
6, 19799, Note_on_c, 7, 86, 0
6, 19860, Note_on_c, 7, 91, 84
6, 19911, Note_on_c, 7, 91, 0
6, 19920, Note_on_c, 7, 93, 84
6, 19979, Note_on_c, 7, 93, 0
6, 19980, Note_on_c, 7, 91, 84
6, 20039, Note_on_c, 7, 91, 0
6, 20040, Note_on_c, 7, 89, 84
6, 20099, Note_on_c, 7, 89, 0
6, 20100, Note_on_c, 7, 88, 84
6, 20151, Note_on_c, 7, 88, 0
6, 20160, Note_on_c, 7, 86, 84
6, 20279, Note_on_c, 7, 86, 0
6, 23160, Note_on_c, 7, 96, 92
6, 23279, Note_on_c, 7, 96, 0
6, 23280, Note_on_c, 7, 95, 84
6, 23384, Note_on_c, 7, 95, 0
6, 23400, Note_on_c, 7, 93, 84
6, 23489, Note_on_c, 7, 93, 0
6, 23520, Note_on_c, 7, 91, 84
6, 23609, Note_on_c, 7, 91, 0
6, 23640, Note_on_c, 7, 89, 84
6, 23729, Note_on_c, 7, 89, 0
6, 23760, Note_on_c, 7, 88, 84
6, 23849, Note_on_c, 7, 88, 0
6, 23880, Note_on_c, 7, 86, 84
6, 23969, Note_on_c, 7, 86, 0
6, 24000, Note_on_c, 7, 84, 84
6, 24239, Note_on_c, 7, 84, 0
6, 45840, Note_on_c, 7, 81, 76
6, 45907, Note_on_c, 7, 81, 0
6, 45920, Note_on_c, 7, 83, 76
6, 45987, Note_on_c, 7, 83, 0
6, 46000, Note_on_c, 7, 84, 76
6, 46067, Note_on_c, 7, 84, 0
6, 46080, Note_on_c, 7, 86, 76
6, 46304, Note_on_c, 7, 86, 0
6, 46320, Note_on_c, 7, 83, 76
6, 46387, Note_on_c, 7, 83, 0
6, 46400, Note_on_c, 7, 84, 76
6, 46467, Note_on_c, 7, 84, 0
6, 46480, Note_on_c, 7, 86, 76
6, 46547, Note_on_c, 7, 86, 0
6, 46560, Note_on_c, 7, 88, 76
6, 46784, Note_on_c, 7, 88, 0
6, 46800, Note_on_c, 7, 88, 76
6, 46867, Note_on_c, 7, 88, 0
6, 46880, Note_on_c, 7, 90, 76
6, 46947, Note_on_c, 7, 90, 0
6, 46960, Note_on_c, 7, 91, 76
6, 47027, Note_on_c, 7, 91, 0
6, 47040, Note_on_c, 7, 86, 76
6, 47759, Note_on_c, 7, 86, 0
6, 69720, Note_on_c, 7, 86, 76
6, 69779, Note_on_c, 7, 86, 0
6, 69780, Note_on_c, 7, 88, 76
6, 69839, Note_on_c, 7, 88, 0
6, 69840, Note_on_c, 7, 90, 76
6, 69899, Note_on_c, 7, 90, 0
6, 69900, Note_on_c, 7, 91, 76
6, 69959, Note_on_c, 7, 91, 0
6, 69960, Note_on_c, 7, 93, 76
6, 70019, Note_on_c, 7, 93, 0
6, 70020, Note_on_c, 7, 90, 76
6, 70079, Note_on_c, 7, 90, 0
6, 70080, Note_on_c, 7, 91, 76
6, 70319, Note_on_c, 7, 91, 0
6, 71640, Note_on_c, 7, 86, 76
6, 71699, Note_on_c, 7, 86, 0
6, 71700, Note_on_c, 7, 88, 76
6, 71759, Note_on_c, 7, 88, 0
6, 71760, Note_on_c, 7, 90, 76
6, 71819, Note_on_c, 7, 90, 0
6, 71820, Note_on_c, 7, 91, 76
6, 71879, Note_on_c, 7, 91, 0
6, 71880, Note_on_c, 7, 93, 76
6, 71939, Note_on_c, 7, 93, 0
6, 71940, Note_on_c, 7, 95, 76
6, 71999, Note_on_c, 7, 95, 0
6, 72000, Note_on_c, 7, 96, 84
6, 72239, Note_on_c, 7, 96, 0
6, 75120, Note_on_c, 7, 84, 80
6, 75344, Note_on_c, 7, 84, 0
6, 75360, Note_on_c, 7, 84, 80
6, 75584, Note_on_c, 7, 84, 0
6, 75600, Note_on_c, 7, 84, 80
6, 75824, Note_on_c, 7, 84, 0
6, 75840, Note_on_c, 7, 89, 84
6, 77744, Note_on_c, 7, 89, 0
6, 77760, Note_on_c, 7, 83, 84
6, 77999, Note_on_c, 7, 83, 0
6, 81360, Note_on_c, 7, 95, 84
6, 81464, Note_on_c, 7, 95, 0
6, 81480, Note_on_c, 7, 91, 84
6, 81584, Note_on_c, 7, 91, 0
6, 81600, Note_on_c, 7, 96, 84
6, 81839, Note_on_c, 7, 96, 0
6, 82080, Note_on_c, 7, 88, 84
6, 82319, Note_on_c, 7, 88, 0
6, 82560, Note_on_c, 7, 91, 84
6, 82799, Note_on_c, 7, 91, 0
6, 83280, Note_on_c, 7, 89, 84
6, 83399, Note_on_c, 7, 89, 0
6, 83520, Note_on_c, 7, 88, 84
6, 83639, Note_on_c, 7, 88, 0
6, 83760, Note_on_c, 7, 86, 84
6, 83879, Note_on_c, 7, 86, 0
6, 84000, Note_on_c, 7, 84, 84
6, 84119, Note_on_c, 7, 84, 0
6, 84240, Note_on_c, 7, 86, 84
6, 84359, Note_on_c, 7, 86, 0
6, 84480, Note_on_c, 7, 84, 84
6, 85184, Note_on_c, 7, 84, 0
6, 85200, Note_on_c, 7, 84, 84
6, 85371, Note_on_c, 7, 84, 0
6, 85380, Note_on_c, 7, 84, 84
6, 85431, Note_on_c, 7, 84, 0
6, 85440, Note_on_c, 7, 86, 84
6, 86144, Note_on_c, 7, 86, 0
6, 86160, Note_on_c, 7, 86, 84
6, 86331, Note_on_c, 7, 86, 0
6, 86340, Note_on_c, 7, 86, 84
6, 86391, Note_on_c, 7, 86, 0
6, 86400, Note_on_c, 7, 88, 84
6, 86984, Note_on_c, 7, 88, 0
6, 87000, Note_on_c, 7, 84, 84
6, 87089, Note_on_c, 7, 84, 0
6, 87120, Note_on_c, 7, 86, 84
6, 87209, Note_on_c, 7, 86, 0
6, 87240, Note_on_c, 7, 88, 84
6, 87329, Note_on_c, 7, 88, 0
6, 87360, Note_on_c, 7, 89, 84
6, 87449, Note_on_c, 7, 89, 0
6, 87480, Note_on_c, 7, 88, 84
6, 87569, Note_on_c, 7, 88, 0
6, 87600, Note_on_c, 7, 89, 84
6, 87689, Note_on_c, 7, 89, 0
6, 87720, Note_on_c, 7, 91, 84
6, 87809, Note_on_c, 7, 91, 0
6, 87840, Note_on_c, 7, 93, 84
6, 87929, Note_on_c, 7, 93, 0
6, 87960, Note_on_c, 7, 91, 84
6, 88049, Note_on_c, 7, 91, 0
6, 88080, Note_on_c, 7, 93, 84
6, 88169, Note_on_c, 7, 93, 0
6, 88200, Note_on_c, 7, 95, 84
6, 88289, Note_on_c, 7, 95, 0
6, 88320, Note_on_c, 7, 96, 84
6, 88904, Note_on_c, 7, 96, 0
6, 88920, Note_on_c, 7, 84, 84
6, 89009, Note_on_c, 7, 84, 0
6, 89040, Note_on_c, 7, 86, 84
6, 89129, Note_on_c, 7, 86, 0
6, 89160, Note_on_c, 7, 88, 84
6, 89249, Note_on_c, 7, 88, 0
6, 89280, Note_on_c, 7, 89, 84
6, 89369, Note_on_c, 7, 89, 0
6, 89400, Note_on_c, 7, 88, 84
6, 89489, Note_on_c, 7, 88, 0
6, 89520, Note_on_c, 7, 89, 84
6, 89609, Note_on_c, 7, 89, 0
6, 89640, Note_on_c, 7, 91, 84
6, 89729, Note_on_c, 7, 91, 0
6, 89760, Note_on_c, 7, 93, 84
6, 89849, Note_on_c, 7, 93, 0
6, 89880, Note_on_c, 7, 91, 84
6, 89969, Note_on_c, 7, 91, 0
6, 90000, Note_on_c, 7, 93, 84
6, 90089, Note_on_c, 7, 93, 0
6, 90120, Note_on_c, 7, 95, 84
6, 90209, Note_on_c, 7, 95, 0
6, 90240, Note_on_c, 7, 96, 84
6, 90824, Note_on_c, 7, 96, 0
6, 90840, Note_on_c, 7, 84, 84
6, 90929, Note_on_c, 7, 84, 0
6, 90960, Note_on_c, 7, 86, 84
6, 91049, Note_on_c, 7, 86, 0
6, 91080, Note_on_c, 7, 88, 84
6, 91147, Note_on_c, 7, 88, 0
6, 91160, Note_on_c, 7, 91, 84
6, 91199, Note_on_c, 7, 91, 0
6, 91200, Note_on_c, 7, 89, 84
6, 91289, Note_on_c, 7, 89, 0
6, 91320, Note_on_c, 7, 88, 84
6, 91409, Note_on_c, 7, 88, 0
6, 91440, Note_on_c, 7, 89, 84
6, 91529, Note_on_c, 7, 89, 0
6, 91560, Note_on_c, 7, 91, 84
6, 91627, Note_on_c, 7, 91, 0
6, 91640, Note_on_c, 7, 95, 84
6, 91679, Note_on_c, 7, 95, 0
6, 91680, Note_on_c, 7, 93, 84
6, 91769, Note_on_c, 7, 93, 0
6, 91800, Note_on_c, 7, 91, 84
6, 91889, Note_on_c, 7, 91, 0
6, 91920, Note_on_c, 7, 93, 84
6, 92009, Note_on_c, 7, 93, 0
6, 92040, Note_on_c, 7, 95, 84
6, 92107, Note_on_c, 7, 95, 0
6, 92120, Note_on_c, 7, 98, 84
6, 92159, Note_on_c, 7, 98, 0
6, 92160, Note_on_c, 7, 96, 84
6, 92249, Note_on_c, 7, 96, 0
6, 92280, Note_on_c, 7, 95, 84
6, 92369, Note_on_c, 7, 95, 0
6, 92400, Note_on_c, 7, 96, 84
6, 92489, Note_on_c, 7, 96, 0
6, 92520, Note_on_c, 7, 98, 84
6, 92609, Note_on_c, 7, 98, 0
6, 92640, Note_on_c, 7, 100, 84
6, 92864, Note_on_c, 7, 100, 0
6, 92880, Note_on_c, 7, 91, 84
6, 92999, Note_on_c, 7, 91, 0
6, 93060, Note_on_c, 7, 100, 84
6, 93111, Note_on_c, 7, 100, 0
6, 93120, Note_on_c, 7, 100, 84
6, 93239, Note_on_c, 7, 100, 0
6, 93240, Note_on_c, 7, 98, 84
6, 93344, Note_on_c, 7, 98, 0
6, 93360, Note_on_c, 7, 89, 84
6, 93479, Note_on_c, 7, 89, 0
6, 93540, Note_on_c, 7, 98, 84
6, 93591, Note_on_c, 7, 98, 0
6, 93600, Note_on_c, 7, 98, 84
6, 93719, Note_on_c, 7, 98, 0
6, 93720, Note_on_c, 7, 96, 84
6, 93824, Note_on_c, 7, 96, 0
6, 93840, Note_on_c, 7, 88, 84
6, 93959, Note_on_c, 7, 88, 0
6, 94020, Note_on_c, 7, 96, 84
6, 94071, Note_on_c, 7, 96, 0
6, 94080, Note_on_c, 7, 96, 84
6, 94199, Note_on_c, 7, 96, 0
6, 94200, Note_on_c, 7, 95, 84
6, 94304, Note_on_c, 7, 95, 0
6, 94320, Note_on_c, 7, 95, 84
6, 94784, Note_on_c, 7, 95, 0
6, 94800, Note_on_c, 7, 96, 84
6, 94919, Note_on_c, 7, 96, 0
6, 94980, Note_on_c, 7, 100, 84
6, 95031, Note_on_c, 7, 100, 0
6, 95040, Note_on_c, 7, 100, 84
6, 95159, Note_on_c, 7, 100, 0
6, 95160, Note_on_c, 7, 98, 84
6, 95264, Note_on_c, 7, 98, 0
6, 95280, Note_on_c, 7, 89, 84
6, 95399, Note_on_c, 7, 89, 0
6, 95460, Note_on_c, 7, 98, 84
6, 95511, Note_on_c, 7, 98, 0
6, 95520, Note_on_c, 7, 98, 84
6, 95639, Note_on_c, 7, 98, 0
6, 95640, Note_on_c, 7, 96, 84
6, 95744, Note_on_c, 7, 96, 0
6, 95760, Note_on_c, 7, 88, 84
6, 95879, Note_on_c, 7, 88, 0
6, 95940, Note_on_c, 7, 96, 84
6, 95991, Note_on_c, 7, 96, 0
6, 96000, Note_on_c, 7, 96, 84
6, 96119, Note_on_c, 7, 96, 0
6, 96120, Note_on_c, 7, 95, 84
6, 96224, Note_on_c, 7, 95, 0
6, 96240, Note_on_c, 7, 95, 84
6, 96704, Note_on_c, 7, 95, 0
6, 96720, Note_on_c, 7, 96, 84
6, 96809, Note_on_c, 7, 96, 0
6, 96900, Note_on_c, 7, 100, 84
6, 96944, Note_on_c, 7, 100, 0
6, 96960, Note_on_c, 7, 100, 84
6, 97049, Note_on_c, 7, 100, 0
6, 97140, Note_on_c, 7, 98, 84
6, 97184, Note_on_c, 7, 98, 0
6, 97200, Note_on_c, 7, 89, 84
6, 97289, Note_on_c, 7, 89, 0
6, 97380, Note_on_c, 7, 98, 84
6, 97424, Note_on_c, 7, 98, 0
6, 97440, Note_on_c, 7, 98, 84
6, 97529, Note_on_c, 7, 98, 0
6, 97620, Note_on_c, 7, 96, 84
6, 97664, Note_on_c, 7, 96, 0
6, 97680, Note_on_c, 7, 88, 84
6, 97769, Note_on_c, 7, 88, 0
6, 97860, Note_on_c, 7, 96, 84
6, 97904, Note_on_c, 7, 96, 0
6, 97920, Note_on_c, 7, 95, 84
6, 98009, Note_on_c, 7, 95, 0
6, 98100, Note_on_c, 7, 86, 84
6, 98151, Note_on_c, 7, 86, 0
6, 98160, Note_on_c, 7, 91, 84
6, 98624, Note_on_c, 7, 91, 0
6, 98640, Note_on_c, 7, 93, 84
6, 98699, Note_on_c, 7, 93, 0
6, 98700, Note_on_c, 7, 91, 84
6, 98759, Note_on_c, 7, 91, 0
6, 98760, Note_on_c, 7, 89, 84
6, 98819, Note_on_c, 7, 89, 0
6, 98820, Note_on_c, 7, 88, 84
6, 98871, Note_on_c, 7, 88, 0
6, 98880, Note_on_c, 7, 86, 84
6, 98999, Note_on_c, 7, 86, 0
6, 99060, Note_on_c, 7, 86, 84
6, 99111, Note_on_c, 7, 86, 0
6, 99120, Note_on_c, 7, 91, 84
6, 99584, Note_on_c, 7, 91, 0
6, 99600, Note_on_c, 7, 93, 84
6, 99659, Note_on_c, 7, 93, 0
6, 99660, Note_on_c, 7, 91, 84
6, 99719, Note_on_c, 7, 91, 0
6, 99720, Note_on_c, 7, 89, 84
6, 99779, Note_on_c, 7, 89, 0
6, 99780, Note_on_c, 7, 88, 84
6, 99831, Note_on_c, 7, 88, 0
6, 99840, Note_on_c, 7, 86, 84
6, 99959, Note_on_c, 7, 86, 0
6, 100020, Note_on_c, 7, 91, 84
6, 100071, Note_on_c, 7, 91, 0
6, 100080, Note_on_c, 7, 93, 84
6, 100139, Note_on_c, 7, 93, 0
6, 100140, Note_on_c, 7, 91, 84
6, 100199, Note_on_c, 7, 91, 0
6, 100200, Note_on_c, 7, 89, 84
6, 100259, Note_on_c, 7, 89, 0
6, 100260, Note_on_c, 7, 88, 84
6, 100311, Note_on_c, 7, 88, 0
6, 100320, Note_on_c, 7, 86, 84
6, 100439, Note_on_c, 7, 86, 0
6, 100500, Note_on_c, 7, 91, 84
6, 100551, Note_on_c, 7, 91, 0
6, 100560, Note_on_c, 7, 93, 84
6, 100619, Note_on_c, 7, 93, 0
6, 100620, Note_on_c, 7, 91, 84
6, 100679, Note_on_c, 7, 91, 0
6, 100680, Note_on_c, 7, 89, 84
6, 100739, Note_on_c, 7, 89, 0
6, 100740, Note_on_c, 7, 88, 84
6, 100791, Note_on_c, 7, 88, 0
6, 100800, Note_on_c, 7, 86, 84
6, 100919, Note_on_c, 7, 86, 0
6, 100980, Note_on_c, 7, 91, 84
6, 101031, Note_on_c, 7, 91, 0
6, 101040, Note_on_c, 7, 93, 84
6, 101099, Note_on_c, 7, 93, 0
6, 101100, Note_on_c, 7, 91, 84
6, 101159, Note_on_c, 7, 91, 0
6, 101160, Note_on_c, 7, 89, 84
6, 101219, Note_on_c, 7, 89, 0
6, 101220, Note_on_c, 7, 88, 84
6, 101271, Note_on_c, 7, 88, 0
6, 101280, Note_on_c, 7, 86, 84
6, 101399, Note_on_c, 7, 86, 0
6, 101460, Note_on_c, 7, 91, 84
6, 101511, Note_on_c, 7, 91, 0
6, 101520, Note_on_c, 7, 93, 84
6, 101579, Note_on_c, 7, 93, 0
6, 101580, Note_on_c, 7, 91, 84
6, 101639, Note_on_c, 7, 91, 0
6, 101640, Note_on_c, 7, 89, 84
6, 101699, Note_on_c, 7, 89, 0
6, 101700, Note_on_c, 7, 88, 84
6, 101751, Note_on_c, 7, 88, 0
6, 101760, Note_on_c, 7, 86, 84
6, 101879, Note_on_c, 7, 86, 0
6, 104760, Note_on_c, 7, 96, 92
6, 104879, Note_on_c, 7, 96, 0
6, 104880, Note_on_c, 7, 95, 84
6, 104984, Note_on_c, 7, 95, 0
6, 105000, Note_on_c, 7, 93, 84
6, 105089, Note_on_c, 7, 93, 0
6, 105120, Note_on_c, 7, 91, 84
6, 105209, Note_on_c, 7, 91, 0
6, 105240, Note_on_c, 7, 89, 84
6, 105329, Note_on_c, 7, 89, 0
6, 105360, Note_on_c, 7, 88, 84
6, 105449, Note_on_c, 7, 88, 0
6, 105480, Note_on_c, 7, 86, 84
6, 105569, Note_on_c, 7, 86, 0
6, 105600, Note_on_c, 7, 84, 84
6, 105839, Note_on_c, 7, 84, 0
6, 127440, Note_on_c, 7, 81, 76
6, 127507, Note_on_c, 7, 81, 0
6, 127520, Note_on_c, 7, 83, 76
6, 127587, Note_on_c, 7, 83, 0
6, 127600, Note_on_c, 7, 84, 76
6, 127667, Note_on_c, 7, 84, 0
6, 127680, Note_on_c, 7, 86, 76
6, 127904, Note_on_c, 7, 86, 0
6, 127920, Note_on_c, 7, 83, 76
6, 127987, Note_on_c, 7, 83, 0
6, 128000, Note_on_c, 7, 84, 76
6, 128067, Note_on_c, 7, 84, 0
6, 128080, Note_on_c, 7, 86, 76
6, 128147, Note_on_c, 7, 86, 0
6, 128160, Note_on_c, 7, 88, 76
6, 128384, Note_on_c, 7, 88, 0
6, 128400, Note_on_c, 7, 88, 76
6, 128467, Note_on_c, 7, 88, 0
6, 128480, Note_on_c, 7, 90, 76
6, 128547, Note_on_c, 7, 90, 0
6, 128560, Note_on_c, 7, 91, 76
6, 128627, Note_on_c, 7, 91, 0
6, 128640, Note_on_c, 7, 86, 76
6, 129359, Note_on_c, 7, 86, 0
6, 151320, Note_on_c, 7, 86, 76
6, 151379, Note_on_c, 7, 86, 0
6, 151380, Note_on_c, 7, 88, 76
6, 151439, Note_on_c, 7, 88, 0
6, 151440, Note_on_c, 7, 90, 76
6, 151499, Note_on_c, 7, 90, 0
6, 151500, Note_on_c, 7, 91, 76
6, 151559, Note_on_c, 7, 91, 0
6, 151560, Note_on_c, 7, 93, 76
6, 151619, Note_on_c, 7, 93, 0
6, 151620, Note_on_c, 7, 90, 76
6, 151679, Note_on_c, 7, 90, 0
6, 151680, Note_on_c, 7, 91, 76
6, 151919, Note_on_c, 7, 91, 0
6, 153240, Note_on_c, 7, 86, 76
6, 153299, Note_on_c, 7, 86, 0
6, 153300, Note_on_c, 7, 88, 76
6, 153359, Note_on_c, 7, 88, 0
6, 153360, Note_on_c, 7, 90, 76
6, 153419, Note_on_c, 7, 90, 0
6, 153420, Note_on_c, 7, 91, 76
6, 153479, Note_on_c, 7, 91, 0
6, 153480, Note_on_c, 7, 93, 76
6, 153539, Note_on_c, 7, 93, 0
6, 153540, Note_on_c, 7, 95, 76
6, 153599, Note_on_c, 7, 95, 0
6, 153600, Note_on_c, 7, 96, 84
6, 153839, Note_on_c, 7, 96, 0
6, 156720, Note_on_c, 7, 84, 80
6, 156944, Note_on_c, 7, 84, 0
6, 156960, Note_on_c, 7, 84, 80
6, 157184, Note_on_c, 7, 84, 0
6, 157200, Note_on_c, 7, 84, 80
6, 157424, Note_on_c, 7, 84, 0
6, 157440, Note_on_c, 7, 89, 84
6, 159344, Note_on_c, 7, 89, 0
6, 159360, Note_on_c, 7, 83, 84
6, 159599, Note_on_c, 7, 83, 0
6, 162240, Note_on_c, 7, 83, 84
6, 162344, Note_on_c, 7, 83, 0
6, 162360, Note_on_c, 7, 79, 84
6, 162464, Note_on_c, 7, 79, 0
6, 162480, Note_on_c, 7, 86, 84
6, 162584, Note_on_c, 7, 86, 0
6, 162600, Note_on_c, 7, 83, 84
6, 162704, Note_on_c, 7, 83, 0
6, 162720, Note_on_c, 7, 89, 84
6, 162824, Note_on_c, 7, 89, 0
6, 162840, Note_on_c, 7, 86, 84
6, 162944, Note_on_c, 7, 86, 0
6, 162960, Note_on_c, 7, 89, 84
6, 163064, Note_on_c, 7, 89, 0
6, 163080, Note_on_c, 7, 89, 84
6, 163184, Note_on_c, 7, 89, 0
6, 163200, Note_on_c, 7, 88, 84
6, 166544, Note_on_c, 7, 88, 0
6, 166560, Note_on_c, 7, 86, 84
6, 166664, Note_on_c, 7, 86, 0
6, 166680, Note_on_c, 7, 83, 84
6, 166784, Note_on_c, 7, 83, 0
6, 166800, Note_on_c, 7, 92, 84
6, 166904, Note_on_c, 7, 92, 0
6, 166920, Note_on_c, 7, 88, 84
6, 167024, Note_on_c, 7, 88, 0
6, 167040, Note_on_c, 7, 93, 84
6, 167219, Note_on_c, 7, 93, 0
6, 167280, Note_on_c, 7, 85, 84
6, 167359, Note_on_c, 7, 85, 0
6, 167360, Note_on_c, 7, 86, 84
6, 167439, Note_on_c, 7, 86, 0
6, 167440, Note_on_c, 7, 88, 84
6, 167507, Note_on_c, 7, 88, 0
6, 167520, Note_on_c, 7, 90, 84
6, 167699, Note_on_c, 7, 90, 0
6, 167760, Note_on_c, 7, 90, 84
6, 167839, Note_on_c, 7, 90, 0
6, 167840, Note_on_c, 7, 92, 84
6, 167919, Note_on_c, 7, 92, 0
6, 167920, Note_on_c, 7, 93, 84
6, 167987, Note_on_c, 7, 93, 0
6, 168000, Note_on_c, 7, 88, 84
6, 168719, Note_on_c, 7, 88, 0
6, 209520, Note_on_c, 7, 86, 84
6, 209599, Note_on_c, 7, 86, 0
6, 209600, Note_on_c, 7, 88, 84
6, 209679, Note_on_c, 7, 88, 0
6, 209680, Note_on_c, 7, 90, 84
6, 209747, Note_on_c, 7, 90, 0
6, 209760, Note_on_c, 7, 91, 84
6, 209999, Note_on_c, 7, 91, 0
6, 211440, Note_on_c, 7, 88, 84
6, 211519, Note_on_c, 7, 88, 0
6, 211520, Note_on_c, 7, 88, 84
6, 211599, Note_on_c, 7, 88, 0
6, 211600, Note_on_c, 7, 89, 84
6, 211667, Note_on_c, 7, 89, 0
6, 211680, Note_on_c, 7, 91, 84
6, 211919, Note_on_c, 7, 91, 0
6, 217200, Note_on_c, 7, 90, 84
6, 217267, Note_on_c, 7, 90, 0
6, 217280, Note_on_c, 7, 91, 84
6, 217347, Note_on_c, 7, 91, 0
6, 217360, Note_on_c, 7, 93, 84
6, 217439, Note_on_c, 7, 93, 0
6, 217680, Note_on_c, 7, 90, 84
6, 217747, Note_on_c, 7, 90, 0
6, 217760, Note_on_c, 7, 91, 84
6, 217827, Note_on_c, 7, 91, 0
6, 217840, Note_on_c, 7, 93, 84
6, 217919, Note_on_c, 7, 93, 0
6, 218160, Note_on_c, 7, 90, 84
6, 218227, Note_on_c, 7, 90, 0
6, 218240, Note_on_c, 7, 91, 84
6, 218307, Note_on_c, 7, 91, 0
6, 218320, Note_on_c, 7, 93, 84
6, 218399, Note_on_c, 7, 93, 0
6, 218640, Note_on_c, 7, 90, 84
6, 218707, Note_on_c, 7, 90, 0
6, 218720, Note_on_c, 7, 91, 84
6, 218787, Note_on_c, 7, 91, 0
6, 218800, Note_on_c, 7, 93, 84
6, 218867, Note_on_c, 7, 93, 0
6, 218880, Note_on_c, 7, 95, 84
6, 219824, Note_on_c, 7, 95, 0
6, 219840, Note_on_c, 7, 95, 84
6, 220784, Note_on_c, 7, 95, 0
6, 220800, Note_on_c, 7, 95, 84
6, 221024, Note_on_c, 7, 95, 0
6, 221040, Note_on_c, 7, 95, 84
6, 221144, Note_on_c, 7, 95, 0
6, 221160, Note_on_c, 7, 95, 84
6, 221264, Note_on_c, 7, 95, 0
6, 221280, Note_on_c, 7, 95, 84
6, 221504, Note_on_c, 7, 95, 0
6, 221520, Note_on_c, 7, 95, 84
6, 221624, Note_on_c, 7, 95, 0
6, 221640, Note_on_c, 7, 95, 84
6, 221744, Note_on_c, 7, 95, 0
6, 221760, Note_on_c, 7, 95, 84
6, 221984, Note_on_c, 7, 95, 0
6, 222000, Note_on_c, 7, 95, 84
6, 222104, Note_on_c, 7, 95, 0
6, 222120, Note_on_c, 7, 95, 84
6, 222224, Note_on_c, 7, 95, 0
6, 222240, Note_on_c, 7, 95, 84
6, 222464, Note_on_c, 7, 95, 0
6, 222480, Note_on_c, 7, 95, 84
6, 222584, Note_on_c, 7, 95, 0
6, 222600, Note_on_c, 7, 95, 84
6, 222704, Note_on_c, 7, 95, 0
6, 222720, Note_on_c, 7, 95, 84
6, 222944, Note_on_c, 7, 95, 0
6, 222960, Note_on_c, 7, 95, 84
6, 223064, Note_on_c, 7, 95, 0
6, 223080, Note_on_c, 7, 95, 84
6, 223184, Note_on_c, 7, 95, 0
6, 223200, Note_on_c, 7, 95, 84
6, 223424, Note_on_c, 7, 95, 0
6, 223440, Note_on_c, 7, 95, 84
6, 223544, Note_on_c, 7, 95, 0
6, 223560, Note_on_c, 7, 95, 84
6, 223664, Note_on_c, 7, 95, 0
6, 223680, Note_on_c, 7, 95, 84
6, 223904, Note_on_c, 7, 95, 0
6, 223920, Note_on_c, 7, 95, 84
6, 224024, Note_on_c, 7, 95, 0
6, 224040, Note_on_c, 7, 95, 84
6, 224144, Note_on_c, 7, 95, 0
6, 224160, Note_on_c, 7, 95, 84
6, 224384, Note_on_c, 7, 95, 0
6, 224400, Note_on_c, 7, 95, 84
6, 224504, Note_on_c, 7, 95, 0
6, 224520, Note_on_c, 7, 95, 84
6, 224624, Note_on_c, 7, 95, 0
6, 224640, Note_on_c, 7, 95, 84
6, 227504, Note_on_c, 7, 95, 0
6, 227520, Note_on_c, 7, 91, 84
6, 227759, Note_on_c, 7, 91, 0
6, 266400, Note_on_c, 7, 84, 84
6, 266579, Note_on_c, 7, 84, 0
6, 266880, Note_on_c, 7, 88, 84
6, 267059, Note_on_c, 7, 88, 0
6, 267360, Note_on_c, 7, 91, 84
6, 267599, Note_on_c, 7, 91, 0
6, 268080, Note_on_c, 7, 89, 84
6, 268199, Note_on_c, 7, 89, 0
6, 268320, Note_on_c, 7, 88, 84
6, 268439, Note_on_c, 7, 88, 0
6, 268560, Note_on_c, 7, 86, 84
6, 268679, Note_on_c, 7, 86, 0
6, 268800, Note_on_c, 7, 84, 84
6, 268919, Note_on_c, 7, 84, 0
6, 269040, Note_on_c, 7, 86, 84
6, 269159, Note_on_c, 7, 86, 0
6, 269280, Note_on_c, 7, 84, 84
6, 269984, Note_on_c, 7, 84, 0
6, 270000, Note_on_c, 7, 84, 84
6, 270171, Note_on_c, 7, 84, 0
6, 270180, Note_on_c, 7, 84, 84
6, 270231, Note_on_c, 7, 84, 0
6, 270240, Note_on_c, 7, 86, 84
6, 270944, Note_on_c, 7, 86, 0
6, 270960, Note_on_c, 7, 86, 84
6, 271131, Note_on_c, 7, 86, 0
6, 271140, Note_on_c, 7, 86, 84
6, 271191, Note_on_c, 7, 86, 0
6, 271200, Note_on_c, 7, 88, 84
6, 271784, Note_on_c, 7, 88, 0
6, 271800, Note_on_c, 7, 84, 84
6, 271889, Note_on_c, 7, 84, 0
6, 271920, Note_on_c, 7, 86, 84
6, 272009, Note_on_c, 7, 86, 0
6, 272040, Note_on_c, 7, 88, 84
6, 272129, Note_on_c, 7, 88, 0
6, 272160, Note_on_c, 7, 89, 84
6, 272249, Note_on_c, 7, 89, 0
6, 272280, Note_on_c, 7, 88, 84
6, 272369, Note_on_c, 7, 88, 0
6, 272400, Note_on_c, 7, 89, 84
6, 272489, Note_on_c, 7, 89, 0
6, 272520, Note_on_c, 7, 91, 84
6, 272609, Note_on_c, 7, 91, 0
6, 272640, Note_on_c, 7, 93, 84
6, 272729, Note_on_c, 7, 93, 0
6, 272760, Note_on_c, 7, 91, 84
6, 272849, Note_on_c, 7, 91, 0
6, 272880, Note_on_c, 7, 93, 84
6, 272969, Note_on_c, 7, 93, 0
6, 273000, Note_on_c, 7, 95, 84
6, 273089, Note_on_c, 7, 95, 0
6, 273120, Note_on_c, 7, 96, 84
6, 273704, Note_on_c, 7, 96, 0
6, 273720, Note_on_c, 7, 84, 84
6, 273809, Note_on_c, 7, 84, 0
6, 273840, Note_on_c, 7, 86, 84
6, 273929, Note_on_c, 7, 86, 0
6, 273960, Note_on_c, 7, 88, 84
6, 274049, Note_on_c, 7, 88, 0
6, 274080, Note_on_c, 7, 89, 84
6, 274169, Note_on_c, 7, 89, 0
6, 274200, Note_on_c, 7, 88, 84
6, 274289, Note_on_c, 7, 88, 0
6, 274320, Note_on_c, 7, 89, 84
6, 274409, Note_on_c, 7, 89, 0
6, 274440, Note_on_c, 7, 91, 84
6, 274529, Note_on_c, 7, 91, 0
6, 274560, Note_on_c, 7, 93, 84
6, 274649, Note_on_c, 7, 93, 0
6, 274680, Note_on_c, 7, 91, 84
6, 274769, Note_on_c, 7, 91, 0
6, 274800, Note_on_c, 7, 93, 84
6, 274889, Note_on_c, 7, 93, 0
6, 274920, Note_on_c, 7, 95, 84
6, 275009, Note_on_c, 7, 95, 0
6, 275040, Note_on_c, 7, 96, 84
6, 275624, Note_on_c, 7, 96, 0
6, 275640, Note_on_c, 7, 84, 84
6, 275729, Note_on_c, 7, 84, 0
6, 275760, Note_on_c, 7, 86, 84
6, 275849, Note_on_c, 7, 86, 0
6, 275880, Note_on_c, 7, 88, 84
6, 275947, Note_on_c, 7, 88, 0
6, 275960, Note_on_c, 7, 91, 84
6, 275999, Note_on_c, 7, 91, 0
6, 276000, Note_on_c, 7, 89, 84
6, 276089, Note_on_c, 7, 89, 0
6, 276120, Note_on_c, 7, 88, 84
6, 276209, Note_on_c, 7, 88, 0
6, 276240, Note_on_c, 7, 89, 84
6, 276329, Note_on_c, 7, 89, 0
6, 276360, Note_on_c, 7, 91, 84
6, 276427, Note_on_c, 7, 91, 0
6, 276440, Note_on_c, 7, 95, 84
6, 276479, Note_on_c, 7, 95, 0
6, 276480, Note_on_c, 7, 93, 84
6, 276569, Note_on_c, 7, 93, 0
6, 276600, Note_on_c, 7, 91, 84
6, 276689, Note_on_c, 7, 91, 0
6, 276720, Note_on_c, 7, 93, 84
6, 276809, Note_on_c, 7, 93, 0
6, 276840, Note_on_c, 7, 95, 84
6, 276907, Note_on_c, 7, 95, 0
6, 276920, Note_on_c, 7, 98, 84
6, 276959, Note_on_c, 7, 98, 0
6, 276960, Note_on_c, 7, 96, 84
6, 277049, Note_on_c, 7, 96, 0
6, 277080, Note_on_c, 7, 95, 84
6, 277169, Note_on_c, 7, 95, 0
6, 277200, Note_on_c, 7, 96, 84
6, 277289, Note_on_c, 7, 96, 0
6, 277320, Note_on_c, 7, 98, 84
6, 277409, Note_on_c, 7, 98, 0
6, 277440, Note_on_c, 7, 100, 84
6, 277664, Note_on_c, 7, 100, 0
6, 277680, Note_on_c, 7, 91, 84
6, 277799, Note_on_c, 7, 91, 0
6, 277860, Note_on_c, 7, 100, 84
6, 277911, Note_on_c, 7, 100, 0
6, 277920, Note_on_c, 7, 100, 84
6, 278039, Note_on_c, 7, 100, 0
6, 278040, Note_on_c, 7, 98, 84
6, 278144, Note_on_c, 7, 98, 0
6, 278160, Note_on_c, 7, 89, 84
6, 278279, Note_on_c, 7, 89, 0
6, 278340, Note_on_c, 7, 98, 84
6, 278391, Note_on_c, 7, 98, 0
6, 278400, Note_on_c, 7, 98, 84
6, 278519, Note_on_c, 7, 98, 0
6, 278520, Note_on_c, 7, 96, 84
6, 278624, Note_on_c, 7, 96, 0
6, 278640, Note_on_c, 7, 88, 84
6, 278759, Note_on_c, 7, 88, 0
6, 278820, Note_on_c, 7, 96, 84
6, 278871, Note_on_c, 7, 96, 0
6, 278880, Note_on_c, 7, 96, 84
6, 278999, Note_on_c, 7, 96, 0
6, 279000, Note_on_c, 7, 95, 84
6, 279104, Note_on_c, 7, 95, 0
6, 279120, Note_on_c, 7, 95, 84
6, 279584, Note_on_c, 7, 95, 0
6, 279600, Note_on_c, 7, 96, 84
6, 279719, Note_on_c, 7, 96, 0
6, 279780, Note_on_c, 7, 100, 84
6, 279831, Note_on_c, 7, 100, 0
6, 279840, Note_on_c, 7, 100, 84
6, 279959, Note_on_c, 7, 100, 0
6, 279960, Note_on_c, 7, 98, 84
6, 280064, Note_on_c, 7, 98, 0
6, 280080, Note_on_c, 7, 89, 84
6, 280199, Note_on_c, 7, 89, 0
6, 280260, Note_on_c, 7, 98, 84
6, 280311, Note_on_c, 7, 98, 0
6, 280320, Note_on_c, 7, 98, 84
6, 280439, Note_on_c, 7, 98, 0
6, 280440, Note_on_c, 7, 96, 84
6, 280544, Note_on_c, 7, 96, 0
6, 280560, Note_on_c, 7, 88, 84
6, 280679, Note_on_c, 7, 88, 0
6, 280740, Note_on_c, 7, 96, 84
6, 280791, Note_on_c, 7, 96, 0
6, 280800, Note_on_c, 7, 96, 84
6, 280919, Note_on_c, 7, 96, 0
6, 280920, Note_on_c, 7, 95, 84
6, 281024, Note_on_c, 7, 95, 0
6, 281040, Note_on_c, 7, 95, 84
6, 281504, Note_on_c, 7, 95, 0
6, 281520, Note_on_c, 7, 96, 84
6, 281609, Note_on_c, 7, 96, 0
6, 281700, Note_on_c, 7, 100, 84
6, 281744, Note_on_c, 7, 100, 0
6, 281760, Note_on_c, 7, 100, 84
6, 281849, Note_on_c, 7, 100, 0
6, 281940, Note_on_c, 7, 98, 84
6, 281984, Note_on_c, 7, 98, 0
6, 282000, Note_on_c, 7, 89, 84
6, 282089, Note_on_c, 7, 89, 0
6, 282180, Note_on_c, 7, 98, 84
6, 282224, Note_on_c, 7, 98, 0
6, 282240, Note_on_c, 7, 98, 84
6, 282329, Note_on_c, 7, 98, 0
6, 282420, Note_on_c, 7, 96, 84
6, 282464, Note_on_c, 7, 96, 0
6, 282480, Note_on_c, 7, 88, 84
6, 282569, Note_on_c, 7, 88, 0
6, 282660, Note_on_c, 7, 96, 84
6, 282704, Note_on_c, 7, 96, 0
6, 282720, Note_on_c, 7, 95, 84
6, 282809, Note_on_c, 7, 95, 0
6, 282900, Note_on_c, 7, 86, 84
6, 282951, Note_on_c, 7, 86, 0
6, 282960, Note_on_c, 7, 91, 84
6, 283424, Note_on_c, 7, 91, 0
6, 283440, Note_on_c, 7, 93, 84
6, 283499, Note_on_c, 7, 93, 0
6, 283500, Note_on_c, 7, 91, 84
6, 283559, Note_on_c, 7, 91, 0
6, 283560, Note_on_c, 7, 89, 84
6, 283619, Note_on_c, 7, 89, 0
6, 283620, Note_on_c, 7, 88, 84
6, 283671, Note_on_c, 7, 88, 0
6, 283680, Note_on_c, 7, 86, 84
6, 283799, Note_on_c, 7, 86, 0
6, 283860, Note_on_c, 7, 86, 84
6, 283911, Note_on_c, 7, 86, 0
6, 283920, Note_on_c, 7, 91, 84
6, 284384, Note_on_c, 7, 91, 0
6, 284400, Note_on_c, 7, 93, 84
6, 284459, Note_on_c, 7, 93, 0
6, 284460, Note_on_c, 7, 91, 84
6, 284519, Note_on_c, 7, 91, 0
6, 284520, Note_on_c, 7, 89, 84
6, 284579, Note_on_c, 7, 89, 0
6, 284580, Note_on_c, 7, 88, 84
6, 284631, Note_on_c, 7, 88, 0
6, 284640, Note_on_c, 7, 86, 84
6, 284759, Note_on_c, 7, 86, 0
6, 284820, Note_on_c, 7, 91, 84
6, 284871, Note_on_c, 7, 91, 0
6, 284880, Note_on_c, 7, 93, 84
6, 284939, Note_on_c, 7, 93, 0
6, 284940, Note_on_c, 7, 91, 84
6, 284999, Note_on_c, 7, 91, 0
6, 285000, Note_on_c, 7, 89, 84
6, 285059, Note_on_c, 7, 89, 0
6, 285060, Note_on_c, 7, 88, 84
6, 285111, Note_on_c, 7, 88, 0
6, 285120, Note_on_c, 7, 86, 84
6, 285239, Note_on_c, 7, 86, 0
6, 285300, Note_on_c, 7, 91, 84
6, 285351, Note_on_c, 7, 91, 0
6, 285360, Note_on_c, 7, 93, 84
6, 285419, Note_on_c, 7, 93, 0
6, 285420, Note_on_c, 7, 91, 84
6, 285479, Note_on_c, 7, 91, 0
6, 285480, Note_on_c, 7, 89, 84
6, 285539, Note_on_c, 7, 89, 0
6, 285540, Note_on_c, 7, 88, 84
6, 285591, Note_on_c, 7, 88, 0
6, 285600, Note_on_c, 7, 86, 84
6, 285719, Note_on_c, 7, 86, 0
6, 285780, Note_on_c, 7, 91, 84
6, 285831, Note_on_c, 7, 91, 0
6, 285840, Note_on_c, 7, 93, 84
6, 285899, Note_on_c, 7, 93, 0
6, 285900, Note_on_c, 7, 91, 84
6, 285959, Note_on_c, 7, 91, 0
6, 285960, Note_on_c, 7, 89, 84
6, 286019, Note_on_c, 7, 89, 0
6, 286020, Note_on_c, 7, 88, 84
6, 286071, Note_on_c, 7, 88, 0
6, 286080, Note_on_c, 7, 86, 84
6, 286199, Note_on_c, 7, 86, 0
6, 286260, Note_on_c, 7, 91, 84
6, 286311, Note_on_c, 7, 91, 0
6, 286320, Note_on_c, 7, 93, 84
6, 286379, Note_on_c, 7, 93, 0
6, 286380, Note_on_c, 7, 91, 84
6, 286439, Note_on_c, 7, 91, 0
6, 286440, Note_on_c, 7, 89, 84
6, 286499, Note_on_c, 7, 89, 0
6, 286500, Note_on_c, 7, 88, 84
6, 286551, Note_on_c, 7, 88, 0
6, 286560, Note_on_c, 7, 86, 84
6, 286679, Note_on_c, 7, 86, 0
6, 289560, Note_on_c, 7, 96, 92
6, 289679, Note_on_c, 7, 96, 0
6, 289680, Note_on_c, 7, 95, 84
6, 289784, Note_on_c, 7, 95, 0
6, 289800, Note_on_c, 7, 93, 84
6, 289889, Note_on_c, 7, 93, 0
6, 289920, Note_on_c, 7, 91, 84
6, 290009, Note_on_c, 7, 91, 0
6, 290040, Note_on_c, 7, 89, 84
6, 290129, Note_on_c, 7, 89, 0
6, 290160, Note_on_c, 7, 88, 84
6, 290249, Note_on_c, 7, 88, 0
6, 290280, Note_on_c, 7, 86, 84
6, 290369, Note_on_c, 7, 86, 0
6, 290400, Note_on_c, 7, 84, 84
6, 290639, Note_on_c, 7, 84, 0
6, 302040, Note_on_c, 7, 90, 84
6, 302144, Note_on_c, 7, 90, 0
6, 302160, Note_on_c, 7, 91, 84
6, 302264, Note_on_c, 7, 91, 0
6, 302280, Note_on_c, 7, 91, 84
6, 302384, Note_on_c, 7, 91, 0
6, 302400, Note_on_c, 7, 91, 84
6, 302984, Note_on_c, 7, 91, 0
6, 303000, Note_on_c, 7, 90, 84
6, 303104, Note_on_c, 7, 90, 0
6, 303120, Note_on_c, 7, 91, 84
6, 303224, Note_on_c, 7, 91, 0
6, 303240, Note_on_c, 7, 91, 84
6, 303344, Note_on_c, 7, 91, 0
6, 303360, Note_on_c, 7, 91, 84
6, 303944, Note_on_c, 7, 91, 0
6, 303960, Note_on_c, 7, 90, 84
6, 304064, Note_on_c, 7, 90, 0
6, 304080, Note_on_c, 7, 91, 84
6, 304184, Note_on_c, 7, 91, 0
6, 304200, Note_on_c, 7, 91, 84
6, 304304, Note_on_c, 7, 91, 0
6, 304320, Note_on_c, 7, 91, 84
6, 304904, Note_on_c, 7, 91, 0
6, 304920, Note_on_c, 7, 90, 84
6, 305024, Note_on_c, 7, 90, 0
6, 305040, Note_on_c, 7, 91, 84
6, 305144, Note_on_c, 7, 91, 0
6, 305160, Note_on_c, 7, 91, 84
6, 305264, Note_on_c, 7, 91, 0
6, 305280, Note_on_c, 7, 91, 84
6, 305879, Note_on_c, 7, 91, 0
6, 305880, Note_on_c, 7, 90, 84
6, 305984, Note_on_c, 7, 90, 0
6, 306000, Note_on_c, 7, 91, 84
6, 306089, Note_on_c, 7, 91, 0
6, 306120, Note_on_c, 7, 91, 84
6, 306209, Note_on_c, 7, 91, 0
6, 306240, Note_on_c, 7, 91, 84
6, 306359, Note_on_c, 7, 91, 0
6, 306360, Note_on_c, 7, 90, 84
6, 306464, Note_on_c, 7, 90, 0
6, 306480, Note_on_c, 7, 91, 84
6, 306569, Note_on_c, 7, 91, 0
6, 306600, Note_on_c, 7, 91, 84
6, 306689, Note_on_c, 7, 91, 0
6, 306720, Note_on_c, 7, 91, 84
6, 306839, Note_on_c, 7, 91, 0
6, 306840, Note_on_c, 7, 90, 84
6, 306944, Note_on_c, 7, 90, 0
6, 306960, Note_on_c, 7, 91, 84
6, 307049, Note_on_c, 7, 91, 0
6, 307080, Note_on_c, 7, 91, 84
6, 307169, Note_on_c, 7, 91, 0
6, 307200, Note_on_c, 7, 91, 84
6, 307319, Note_on_c, 7, 91, 0
6, 307320, Note_on_c, 7, 90, 84
6, 307424, Note_on_c, 7, 90, 0
6, 307440, Note_on_c, 7, 91, 84
6, 307529, Note_on_c, 7, 91, 0
6, 307560, Note_on_c, 7, 91, 84
6, 307649, Note_on_c, 7, 91, 0
6, 307680, Note_on_c, 7, 91, 84
6, 307919, Note_on_c, 7, 91, 0
6, 315120, Note_on_c, 7, 86, 76
6, 315187, Note_on_c, 7, 86, 0
6, 315200, Note_on_c, 7, 88, 76
6, 315267, Note_on_c, 7, 88, 0
6, 315280, Note_on_c, 7, 89, 76
6, 315347, Note_on_c, 7, 89, 0
6, 315360, Note_on_c, 7, 91, 76
6, 315584, Note_on_c, 7, 91, 0
6, 315600, Note_on_c, 7, 88, 76
6, 315667, Note_on_c, 7, 88, 0
6, 315680, Note_on_c, 7, 89, 76
6, 315747, Note_on_c, 7, 89, 0
6, 315760, Note_on_c, 7, 91, 76
6, 315827, Note_on_c, 7, 91, 0
6, 315840, Note_on_c, 7, 93, 76
6, 316064, Note_on_c, 7, 93, 0
6, 316080, Note_on_c, 7, 93, 76
6, 316147, Note_on_c, 7, 93, 0
6, 316160, Note_on_c, 7, 95, 76
6, 316227, Note_on_c, 7, 95, 0
6, 316240, Note_on_c, 7, 96, 76
6, 316307, Note_on_c, 7, 96, 0
6, 316320, Note_on_c, 7, 91, 76
6, 317039, Note_on_c, 7, 91, 0
6, 325560, Note_on_c, 7, 89, 84
6, 325664, Note_on_c, 7, 89, 0
6, 325680, Note_on_c, 7, 89, 84
6, 325784, Note_on_c, 7, 89, 0
6, 325800, Note_on_c, 7, 89, 84
6, 325904, Note_on_c, 7, 89, 0
6, 325920, Note_on_c, 7, 89, 84
6, 326144, Note_on_c, 7, 89, 0
6, 326160, Note_on_c, 7, 90, 84
6, 326384, Note_on_c, 7, 90, 0
6, 326400, Note_on_c, 7, 91, 84
6, 326624, Note_on_c, 7, 91, 0
6, 326640, Note_on_c, 7, 92, 84
6, 326864, Note_on_c, 7, 92, 0
6, 326880, Note_on_c, 7, 93, 84
6, 327104, Note_on_c, 7, 93, 0
6, 327120, Note_on_c, 7, 95, 84
6, 327344, Note_on_c, 7, 95, 0
6, 327360, Note_on_c, 7, 96, 84
6, 327411, Note_on_c, 7, 96, 0
6, 327420, Note_on_c, 7, 95, 84
6, 327471, Note_on_c, 7, 95, 0
6, 327480, Note_on_c, 7, 93, 84
6, 327531, Note_on_c, 7, 93, 0
6, 327540, Note_on_c, 7, 91, 84
6, 327591, Note_on_c, 7, 91, 0
6, 327600, Note_on_c, 7, 89, 84
6, 327651, Note_on_c, 7, 89, 0
6, 327660, Note_on_c, 7, 88, 84
6, 327711, Note_on_c, 7, 88, 0
6, 327720, Note_on_c, 7, 86, 84
6, 327771, Note_on_c, 7, 86, 0
6, 327780, Note_on_c, 7, 84, 84
6, 327831, Note_on_c, 7, 84, 0
6, 327840, Note_on_c, 7, 89, 84
6, 328019, Note_on_c, 7, 89, 0
6, 328800, Note_on_c, 7, 86, 84
6, 328979, Note_on_c, 7, 86, 0
6, 379680, Control_c, 7, 11, 80
6, 380400, Control_c, 7, 11, 80
6, 380400, Note_on_c, 7, 91, 76
6, 380467, Control_c, 7, 11, 83
6, 380533, Control_c, 7, 11, 85
6, 380600, Control_c, 7, 11, 88
6, 380639, Note_on_c, 7, 91, 0
6, 380640, Note_on_c, 7, 95, 76
6, 380667, Control_c, 7, 11, 90
6, 380733, Control_c, 7, 11, 93
6, 380800, Control_c, 7, 11, 96
6, 380867, Control_c, 7, 11, 98
6, 380879, Note_on_c, 7, 95, 0
6, 380880, Note_on_c, 7, 91, 76
6, 380933, Control_c, 7, 11, 101
6, 381000, Control_c, 7, 11, 104
6, 381067, Control_c, 7, 11, 106
6, 381119, Note_on_c, 7, 91, 0
6, 381120, Note_on_c, 7, 98, 76
6, 381133, Control_c, 7, 11, 109
6, 381200, Control_c, 7, 11, 111
6, 381267, Control_c, 7, 11, 114
6, 381333, Control_c, 7, 11, 117
6, 381359, Note_on_c, 7, 98, 0
6, 381360, Note_on_c, 7, 96, 76
6, 381400, Control_c, 7, 11, 119
6, 381467, Control_c, 7, 11, 122
6, 381533, Control_c, 7, 11, 127
6, 381539, Note_on_c, 7, 96, 0
6, 381540, Note_on_c, 7, 95, 76
6, 381591, Note_on_c, 7, 95, 0
6, 381600, Note_on_c, 7, 96, 76
6, 381839, Note_on_c, 7, 96, 0
6, 381840, Note_on_c, 7, 95, 76
6, 382079, Note_on_c, 7, 95, 0
6, 382080, Note_on_c, 7, 93, 76
6, 382319, Note_on_c, 7, 93, 0
6, 382320, Note_on_c, 7, 91, 76
6, 382559, Note_on_c, 7, 91, 0
6, 382560, Note_on_c, 7, 89, 76
6, 382799, Note_on_c, 7, 89, 0
6, 382800, Note_on_c, 7, 88, 76
6, 383039, Note_on_c, 7, 88, 0
6, 383040, Note_on_c, 7, 86, 76
6, 383279, Note_on_c, 7, 86, 0
6, 383280, Note_on_c, 7, 85, 76
6, 383504, Note_on_c, 7, 85, 0
6, 383520, Note_on_c, 7, 86, 76
6, 383571, Note_on_c, 7, 86, 0
6, 383580, Note_on_c, 7, 84, 76
6, 383631, Note_on_c, 7, 84, 0
6, 383640, Note_on_c, 7, 86, 76
6, 383691, Note_on_c, 7, 86, 0
6, 383700, Note_on_c, 7, 88, 76
6, 383751, Note_on_c, 7, 88, 0
6, 383760, Note_on_c, 7, 89, 76
6, 383811, Note_on_c, 7, 89, 0
6, 383820, Note_on_c, 7, 91, 76
6, 383871, Note_on_c, 7, 91, 0
6, 383880, Note_on_c, 7, 93, 76
6, 383931, Note_on_c, 7, 93, 0
6, 383940, Note_on_c, 7, 95, 76
6, 383991, Note_on_c, 7, 95, 0
6, 384000, Note_on_c, 7, 96, 76
6, 384179, Note_on_c, 7, 96, 0
6, 384540, Note_on_c, 7, 84, 76
6, 384591, Note_on_c, 7, 84, 0
6, 384600, Note_on_c, 7, 86, 76
6, 384651, Note_on_c, 7, 86, 0
6, 384660, Note_on_c, 7, 88, 76
6, 384711, Note_on_c, 7, 88, 0
6, 384720, Note_on_c, 7, 89, 76
6, 384771, Note_on_c, 7, 89, 0
6, 384780, Note_on_c, 7, 91, 76
6, 384831, Note_on_c, 7, 91, 0
6, 384840, Note_on_c, 7, 93, 76
6, 384891, Note_on_c, 7, 93, 0
6, 384900, Note_on_c, 7, 95, 76
6, 384951, Note_on_c, 7, 95, 0
6, 384960, Note_on_c, 7, 96, 76
6, 385139, Note_on_c, 7, 96, 0
6, 385500, Note_on_c, 7, 84, 76
6, 385551, Note_on_c, 7, 84, 0
6, 385560, Note_on_c, 7, 86, 76
6, 385611, Note_on_c, 7, 86, 0
6, 385620, Note_on_c, 7, 88, 76
6, 385671, Note_on_c, 7, 88, 0
6, 385680, Note_on_c, 7, 89, 76
6, 385731, Note_on_c, 7, 89, 0
6, 385740, Note_on_c, 7, 91, 76
6, 385791, Note_on_c, 7, 91, 0
6, 385800, Note_on_c, 7, 93, 76
6, 385851, Note_on_c, 7, 93, 0
6, 385860, Note_on_c, 7, 95, 76
6, 385911, Note_on_c, 7, 95, 0
6, 385920, Note_on_c, 7, 96, 76
6, 386099, Note_on_c, 7, 96, 0
6, 386460, Note_on_c, 7, 84, 76
6, 386511, Note_on_c, 7, 84, 0
6, 386520, Note_on_c, 7, 86, 76
6, 386571, Note_on_c, 7, 86, 0
6, 386580, Note_on_c, 7, 87, 76
6, 386631, Note_on_c, 7, 87, 0
6, 386640, Note_on_c, 7, 89, 76
6, 386691, Note_on_c, 7, 89, 0
6, 386700, Note_on_c, 7, 91, 76
6, 386751, Note_on_c, 7, 91, 0
6, 386760, Note_on_c, 7, 93, 76
6, 386811, Note_on_c, 7, 93, 0
6, 386820, Note_on_c, 7, 95, 76
6, 386871, Note_on_c, 7, 95, 0
6, 386880, Note_on_c, 7, 96, 76
6, 386984, Note_on_c, 7, 96, 0
6, 387000, Note_on_c, 7, 96, 76
6, 387104, Note_on_c, 7, 96, 0
6, 387120, Note_on_c, 7, 96, 76
6, 387224, Note_on_c, 7, 96, 0
6, 387240, Note_on_c, 7, 96, 76
6, 387344, Note_on_c, 7, 96, 0
6, 387360, Note_on_c, 7, 91, 76
6, 387599, Note_on_c, 7, 91, 0
6, 390960, Note_on_c, 7, 76, 48
6, 391199, Note_on_c, 7, 76, 0
6, 391200, Note_on_c, 7, 84, 48
6, 391439, Note_on_c, 7, 84, 0
6, 391440, Note_on_c, 7, 79, 48
6, 391679, Note_on_c, 7, 79, 0
6, 391680, Note_on_c, 7, 88, 48
6, 391919, Note_on_c, 7, 88, 0
6, 391920, Note_on_c, 7, 86, 48
6, 392099, Note_on_c, 7, 86, 0
6, 392100, Note_on_c, 7, 84, 48
6, 392151, Note_on_c, 7, 84, 0
6, 392160, Note_on_c, 7, 91, 52
6, 392219, Note_on_c, 7, 91, 0
6, 392220, Note_on_c, 7, 93, 52
6, 392279, Note_on_c, 7, 93, 0
6, 392280, Note_on_c, 7, 91, 52
6, 392339, Note_on_c, 7, 91, 0
6, 392340, Note_on_c, 7, 93, 52
6, 392399, Note_on_c, 7, 93, 0
6, 392400, Note_on_c, 7, 91, 53
6, 392459, Note_on_c, 7, 91, 0
6, 392460, Note_on_c, 7, 93, 53
6, 392519, Note_on_c, 7, 93, 0
6, 392520, Note_on_c, 7, 91, 53
6, 392579, Note_on_c, 7, 91, 0
6, 392580, Note_on_c, 7, 93, 53
6, 392639, Note_on_c, 7, 93, 0
6, 392640, Note_on_c, 7, 91, 54
6, 392699, Note_on_c, 7, 91, 0
6, 392700, Note_on_c, 7, 93, 54
6, 392759, Note_on_c, 7, 93, 0
6, 392760, Note_on_c, 7, 91, 54
6, 392819, Note_on_c, 7, 91, 0
6, 392820, Note_on_c, 7, 93, 54
6, 392879, Note_on_c, 7, 93, 0
6, 392880, Note_on_c, 7, 91, 55
6, 392939, Note_on_c, 7, 91, 0
6, 392940, Note_on_c, 7, 93, 55
6, 392999, Note_on_c, 7, 93, 0
6, 393000, Note_on_c, 7, 91, 55
6, 393059, Note_on_c, 7, 91, 0
6, 393060, Note_on_c, 7, 93, 55
6, 393119, Note_on_c, 7, 93, 0
6, 393120, Note_on_c, 7, 91, 56
6, 393179, Note_on_c, 7, 91, 0
6, 393180, Note_on_c, 7, 93, 56
6, 393239, Note_on_c, 7, 93, 0
6, 393240, Note_on_c, 7, 91, 56
6, 393299, Note_on_c, 7, 91, 0
6, 393300, Note_on_c, 7, 93, 56
6, 393359, Note_on_c, 7, 93, 0
6, 393360, Note_on_c, 7, 91, 57
6, 393419, Note_on_c, 7, 91, 0
6, 393420, Note_on_c, 7, 93, 57
6, 393479, Note_on_c, 7, 93, 0
6, 393480, Note_on_c, 7, 91, 57
6, 393539, Note_on_c, 7, 91, 0
6, 393540, Note_on_c, 7, 93, 57
6, 393599, Note_on_c, 7, 93, 0
6, 393600, Note_on_c, 7, 91, 58
6, 393659, Note_on_c, 7, 91, 0
6, 393660, Note_on_c, 7, 93, 58
6, 393719, Note_on_c, 7, 93, 0
6, 393720, Note_on_c, 7, 91, 58
6, 393779, Note_on_c, 7, 91, 0
6, 393780, Note_on_c, 7, 93, 58
6, 393839, Note_on_c, 7, 93, 0
6, 393840, Note_on_c, 7, 91, 59
6, 393899, Note_on_c, 7, 91, 0
6, 393900, Note_on_c, 7, 93, 59
6, 393959, Note_on_c, 7, 93, 0
6, 393960, Note_on_c, 7, 91, 59
6, 394019, Note_on_c, 7, 91, 0
6, 394020, Note_on_c, 7, 93, 59
6, 394079, Note_on_c, 7, 93, 0
6, 394080, Note_on_c, 7, 91, 60
6, 394139, Note_on_c, 7, 91, 0
6, 394140, Note_on_c, 7, 93, 60
6, 394199, Note_on_c, 7, 93, 0
6, 394200, Note_on_c, 7, 91, 60
6, 394259, Note_on_c, 7, 91, 0
6, 394260, Note_on_c, 7, 93, 60
6, 394319, Note_on_c, 7, 93, 0
6, 394320, Note_on_c, 7, 91, 61
6, 394379, Note_on_c, 7, 91, 0
6, 394380, Note_on_c, 7, 93, 61
6, 394439, Note_on_c, 7, 93, 0
6, 394440, Note_on_c, 7, 91, 61
6, 394499, Note_on_c, 7, 91, 0
6, 394500, Note_on_c, 7, 93, 61
6, 394559, Note_on_c, 7, 93, 0
6, 394560, Note_on_c, 7, 91, 62
6, 394619, Note_on_c, 7, 91, 0
6, 394620, Note_on_c, 7, 93, 62
6, 394679, Note_on_c, 7, 93, 0
6, 394680, Note_on_c, 7, 91, 62
6, 394739, Note_on_c, 7, 91, 0
6, 394740, Note_on_c, 7, 93, 62
6, 394799, Note_on_c, 7, 93, 0
6, 394800, Note_on_c, 7, 91, 63
6, 394859, Note_on_c, 7, 91, 0
6, 394860, Note_on_c, 7, 93, 63
6, 394919, Note_on_c, 7, 93, 0
6, 394920, Note_on_c, 7, 91, 63
6, 394979, Note_on_c, 7, 91, 0
6, 394980, Note_on_c, 7, 93, 63
6, 395039, Note_on_c, 7, 93, 0
6, 395040, Note_on_c, 7, 91, 64
6, 395099, Note_on_c, 7, 91, 0
6, 395100, Note_on_c, 7, 93, 64
6, 395159, Note_on_c, 7, 93, 0
6, 395160, Note_on_c, 7, 91, 64
6, 395219, Note_on_c, 7, 91, 0
6, 395220, Note_on_c, 7, 93, 64
6, 395279, Note_on_c, 7, 93, 0
6, 395280, Note_on_c, 7, 91, 65
6, 395339, Note_on_c, 7, 91, 0
6, 395340, Note_on_c, 7, 93, 65
6, 395399, Note_on_c, 7, 93, 0
6, 395400, Note_on_c, 7, 91, 65
6, 395459, Note_on_c, 7, 91, 0
6, 395460, Note_on_c, 7, 93, 65
6, 395519, Note_on_c, 7, 93, 0
6, 395520, Note_on_c, 7, 91, 66
6, 395579, Note_on_c, 7, 91, 0
6, 395580, Note_on_c, 7, 93, 66
6, 395639, Note_on_c, 7, 93, 0
6, 395640, Note_on_c, 7, 91, 66
6, 395699, Note_on_c, 7, 91, 0
6, 395700, Note_on_c, 7, 93, 66
6, 395759, Note_on_c, 7, 93, 0
6, 395760, Note_on_c, 7, 91, 67
6, 395819, Note_on_c, 7, 91, 0
6, 395820, Note_on_c, 7, 93, 67
6, 395879, Note_on_c, 7, 93, 0
6, 395880, Note_on_c, 7, 91, 67
6, 395939, Note_on_c, 7, 91, 0
6, 395940, Note_on_c, 7, 93, 67
6, 395999, Note_on_c, 7, 93, 0
6, 396000, Note_on_c, 7, 91, 68
6, 396059, Note_on_c, 7, 91, 0
6, 396060, Note_on_c, 7, 93, 68
6, 396119, Note_on_c, 7, 93, 0
6, 396120, Note_on_c, 7, 91, 68
6, 396179, Note_on_c, 7, 91, 0
6, 396180, Note_on_c, 7, 93, 68
6, 396239, Note_on_c, 7, 93, 0
6, 396240, Note_on_c, 7, 91, 69
6, 396299, Note_on_c, 7, 91, 0
6, 396300, Note_on_c, 7, 93, 69
6, 396359, Note_on_c, 7, 93, 0
6, 396360, Note_on_c, 7, 91, 69
6, 396419, Note_on_c, 7, 91, 0
6, 396420, Note_on_c, 7, 93, 69
6, 396479, Note_on_c, 7, 93, 0
6, 396480, Note_on_c, 7, 91, 70
6, 396539, Note_on_c, 7, 91, 0
6, 396540, Note_on_c, 7, 93, 70
6, 396599, Note_on_c, 7, 93, 0
6, 396600, Note_on_c, 7, 91, 70
6, 396659, Note_on_c, 7, 91, 0
6, 396660, Note_on_c, 7, 93, 70
6, 396719, Note_on_c, 7, 93, 0
6, 396720, Note_on_c, 7, 91, 71
6, 396779, Note_on_c, 7, 91, 0
6, 396780, Note_on_c, 7, 93, 71
6, 396839, Note_on_c, 7, 93, 0
6, 396840, Note_on_c, 7, 91, 71
6, 396899, Note_on_c, 7, 91, 0
6, 396900, Note_on_c, 7, 93, 71
6, 396959, Note_on_c, 7, 93, 0
6, 396960, Note_on_c, 7, 91, 72
6, 397019, Note_on_c, 7, 91, 0
6, 397020, Note_on_c, 7, 93, 72
6, 397079, Note_on_c, 7, 93, 0
6, 397080, Note_on_c, 7, 91, 72
6, 397139, Note_on_c, 7, 91, 0
6, 397140, Note_on_c, 7, 93, 72
6, 397199, Note_on_c, 7, 93, 0
6, 397200, Note_on_c, 7, 91, 73
6, 397259, Note_on_c, 7, 91, 0
6, 397260, Note_on_c, 7, 93, 73
6, 397319, Note_on_c, 7, 93, 0
6, 397320, Note_on_c, 7, 91, 73
6, 397379, Note_on_c, 7, 91, 0
6, 397380, Note_on_c, 7, 93, 73
6, 397439, Note_on_c, 7, 93, 0
6, 397440, Note_on_c, 7, 91, 74
6, 397499, Note_on_c, 7, 91, 0
6, 397500, Note_on_c, 7, 93, 74
6, 397559, Note_on_c, 7, 93, 0
6, 397560, Note_on_c, 7, 91, 74
6, 397619, Note_on_c, 7, 91, 0
6, 397620, Note_on_c, 7, 93, 74
6, 397679, Note_on_c, 7, 93, 0
6, 397680, Note_on_c, 7, 89, 75
6, 397739, Note_on_c, 7, 89, 0
6, 397740, Note_on_c, 7, 91, 75
6, 397799, Note_on_c, 7, 91, 0
6, 397800, Note_on_c, 7, 93, 75
6, 397859, Note_on_c, 7, 93, 0
6, 397860, Note_on_c, 7, 95, 75
6, 397911, Note_on_c, 7, 95, 0
6, 397920, Note_on_c, 7, 96, 76
6, 398159, Note_on_c, 7, 96, 0
6, 398160, Note_on_c, 7, 95, 76
6, 398399, Note_on_c, 7, 95, 0
6, 398400, Note_on_c, 7, 93, 76
6, 398639, Note_on_c, 7, 93, 0
6, 398640, Note_on_c, 7, 91, 76
6, 398879, Note_on_c, 7, 91, 0
6, 398880, Note_on_c, 7, 89, 76
6, 399119, Note_on_c, 7, 89, 0
6, 399120, Note_on_c, 7, 88, 76
6, 399359, Note_on_c, 7, 88, 0
6, 399360, Note_on_c, 7, 86, 76
6, 399599, Note_on_c, 7, 86, 0
6, 399600, Note_on_c, 7, 85, 76
6, 399824, Note_on_c, 7, 85, 0
6, 399840, Note_on_c, 7, 86, 76
6, 399891, Note_on_c, 7, 86, 0
6, 399900, Note_on_c, 7, 84, 76
6, 399951, Note_on_c, 7, 84, 0
6, 399960, Note_on_c, 7, 86, 76
6, 400011, Note_on_c, 7, 86, 0
6, 400020, Note_on_c, 7, 88, 76
6, 400071, Note_on_c, 7, 88, 0
6, 400080, Note_on_c, 7, 89, 76
6, 400131, Note_on_c, 7, 89, 0
6, 400140, Note_on_c, 7, 91, 76
6, 400191, Note_on_c, 7, 91, 0
6, 400200, Note_on_c, 7, 93, 76
6, 400251, Note_on_c, 7, 93, 0
6, 400260, Note_on_c, 7, 95, 76
6, 400311, Note_on_c, 7, 95, 0
6, 400320, Note_on_c, 7, 96, 76
6, 400499, Note_on_c, 7, 96, 0
6, 400860, Note_on_c, 7, 84, 76
6, 400911, Note_on_c, 7, 84, 0
6, 400920, Note_on_c, 7, 86, 76
6, 400971, Note_on_c, 7, 86, 0
6, 400980, Note_on_c, 7, 88, 76
6, 401031, Note_on_c, 7, 88, 0
6, 401040, Note_on_c, 7, 89, 76
6, 401091, Note_on_c, 7, 89, 0
6, 401100, Note_on_c, 7, 91, 76
6, 401151, Note_on_c, 7, 91, 0
6, 401160, Note_on_c, 7, 93, 76
6, 401211, Note_on_c, 7, 93, 0
6, 401220, Note_on_c, 7, 95, 76
6, 401271, Note_on_c, 7, 95, 0
6, 401280, Note_on_c, 7, 96, 76
6, 401459, Note_on_c, 7, 96, 0
6, 401820, Note_on_c, 7, 84, 76
6, 401871, Note_on_c, 7, 84, 0
6, 401880, Note_on_c, 7, 86, 76
6, 401931, Note_on_c, 7, 86, 0
6, 401940, Note_on_c, 7, 88, 76
6, 401991, Note_on_c, 7, 88, 0
6, 402000, Note_on_c, 7, 89, 76
6, 402051, Note_on_c, 7, 89, 0
6, 402060, Note_on_c, 7, 91, 76
6, 402111, Note_on_c, 7, 91, 0
6, 402120, Note_on_c, 7, 93, 76
6, 402171, Note_on_c, 7, 93, 0
6, 402180, Note_on_c, 7, 95, 76
6, 402231, Note_on_c, 7, 95, 0
6, 402240, Note_on_c, 7, 96, 76
6, 402419, Note_on_c, 7, 96, 0
6, 402780, Note_on_c, 7, 84, 76
6, 402831, Note_on_c, 7, 84, 0
6, 402840, Note_on_c, 7, 86, 76
6, 402891, Note_on_c, 7, 86, 0
6, 402900, Note_on_c, 7, 87, 76
6, 402951, Note_on_c, 7, 87, 0
6, 402960, Note_on_c, 7, 89, 76
6, 403011, Note_on_c, 7, 89, 0
6, 403020, Note_on_c, 7, 91, 76
6, 403071, Note_on_c, 7, 91, 0
6, 403080, Note_on_c, 7, 93, 76
6, 403131, Note_on_c, 7, 93, 0
6, 403140, Note_on_c, 7, 95, 76
6, 403191, Note_on_c, 7, 95, 0
6, 403200, Note_on_c, 7, 96, 76
6, 403304, Note_on_c, 7, 96, 0
6, 403320, Note_on_c, 7, 96, 76
6, 403424, Note_on_c, 7, 96, 0
6, 403440, Note_on_c, 7, 96, 76
6, 403544, Note_on_c, 7, 96, 0
6, 403560, Note_on_c, 7, 96, 76
6, 403664, Note_on_c, 7, 96, 0
6, 403680, Note_on_c, 7, 96, 52
6, 403731, Note_on_c, 7, 96, 0
6, 403740, Note_on_c, 7, 91, 52
6, 403791, Note_on_c, 7, 91, 0
6, 403800, Note_on_c, 7, 88, 52
6, 403851, Note_on_c, 7, 88, 0
6, 403860, Note_on_c, 7, 91, 52
6, 403919, Note_on_c, 7, 91, 0
6, 403980, Note_on_c, 7, 91, 52
6, 404031, Note_on_c, 7, 91, 0
6, 404040, Note_on_c, 7, 88, 52
6, 404091, Note_on_c, 7, 88, 0
6, 404100, Note_on_c, 7, 91, 52
6, 404159, Note_on_c, 7, 91, 0
6, 404220, Note_on_c, 7, 91, 52
6, 404271, Note_on_c, 7, 91, 0
6, 404280, Note_on_c, 7, 88, 52
6, 404331, Note_on_c, 7, 88, 0
6, 404340, Note_on_c, 7, 91, 52
6, 404399, Note_on_c, 7, 91, 0
6, 404460, Note_on_c, 7, 89, 53
6, 404511, Note_on_c, 7, 89, 0
6, 404520, Note_on_c, 7, 88, 53
6, 404571, Note_on_c, 7, 88, 0
6, 404580, Note_on_c, 7, 89, 53
6, 404639, Note_on_c, 7, 89, 0
6, 404700, Note_on_c, 7, 89, 54
6, 404751, Note_on_c, 7, 89, 0
6, 404760, Note_on_c, 7, 86, 54
6, 404811, Note_on_c, 7, 86, 0
6, 404820, Note_on_c, 7, 89, 55
6, 404879, Note_on_c, 7, 89, 0
6, 404940, Note_on_c, 7, 88, 55
6, 404991, Note_on_c, 7, 88, 0
6, 405000, Note_on_c, 7, 86, 55
6, 405051, Note_on_c, 7, 86, 0
6, 405060, Note_on_c, 7, 88, 56
6, 405119, Note_on_c, 7, 88, 0
6, 405240, Note_on_c, 7, 86, 56
6, 405359, Note_on_c, 7, 86, 0
6, 405480, Note_on_c, 7, 91, 58
6, 405599, Note_on_c, 7, 91, 0
6, 405720, Note_on_c, 7, 91, 59
6, 405839, Note_on_c, 7, 91, 0
6, 405960, Note_on_c, 7, 91, 60
6, 406079, Note_on_c, 7, 91, 0
6, 406200, Note_on_c, 7, 91, 61
6, 406319, Note_on_c, 7, 91, 0
6, 406440, Note_on_c, 7, 89, 62
6, 406559, Note_on_c, 7, 89, 0
6, 406680, Note_on_c, 7, 89, 63
6, 406799, Note_on_c, 7, 89, 0
6, 406920, Note_on_c, 7, 88, 64
6, 407039, Note_on_c, 7, 88, 0
6, 407160, Note_on_c, 7, 86, 65
6, 407279, Note_on_c, 7, 86, 0
6, 407400, Note_on_c, 7, 91, 66
6, 407519, Note_on_c, 7, 91, 0
6, 407640, Note_on_c, 7, 91, 67
6, 407759, Note_on_c, 7, 91, 0
6, 407880, Note_on_c, 7, 91, 68
6, 407999, Note_on_c, 7, 91, 0
6, 408120, Note_on_c, 7, 91, 70
6, 408239, Note_on_c, 7, 91, 0
6, 408360, Note_on_c, 7, 89, 71
6, 408479, Note_on_c, 7, 89, 0
6, 408600, Note_on_c, 7, 89, 72
6, 408719, Note_on_c, 7, 89, 0
6, 408840, Note_on_c, 7, 88, 73
6, 408959, Note_on_c, 7, 88, 0
6, 409080, Note_on_c, 7, 86, 74
6, 409199, Note_on_c, 7, 86, 0
6, 409320, Note_on_c, 7, 91, 75
6, 409409, Note_on_c, 7, 91, 0
6, 409440, Note_on_c, 7, 84, 76
6, 409559, Note_on_c, 7, 84, 0
6, 420720, Note_on_c, 7, 91, 76
6, 421659, Note_on_c, 7, 91, 0
6, 421680, Note_on_c, 7, 89, 76
6, 422139, Note_on_c, 7, 89, 0
6, 422160, Note_on_c, 7, 88, 76
6, 422379, Note_on_c, 7, 88, 0
6, 422400, Note_on_c, 7, 86, 76
6, 422619, Note_on_c, 7, 86, 0
6, 422640, Note_on_c, 7, 91, 76
6, 422859, Note_on_c, 7, 91, 0
6, 422880, Note_on_c, 7, 84, 84
6, 423099, Note_on_c, 7, 84, 0
6, 423120, Note_on_c, 7, 88, 84
6, 423339, Note_on_c, 7, 88, 0
6, 423360, Note_on_c, 7, 91, 84
6, 423699, Note_on_c, 7, 91, 0
6, 423720, Note_on_c, 7, 89, 84
6, 423819, Note_on_c, 7, 89, 0
6, 423840, Note_on_c, 7, 88, 84
6, 423939, Note_on_c, 7, 88, 0
6, 423960, Note_on_c, 7, 86, 84
6, 424059, Note_on_c, 7, 86, 0
6, 424080, Note_on_c, 7, 84, 84
6, 424179, Note_on_c, 7, 84, 0
6, 424200, Note_on_c, 7, 86, 84
6, 424299, Note_on_c, 7, 86, 0
6, 424320, Note_on_c, 7, 88, 84
6, 424659, Note_on_c, 7, 88, 0
6, 424680, Note_on_c, 7, 88, 84
6, 424779, Note_on_c, 7, 88, 0
6, 424800, Note_on_c, 7, 88, 84
6, 424899, Note_on_c, 7, 88, 0
6, 424920, Note_on_c, 7, 86, 84
6, 425019, Note_on_c, 7, 86, 0
6, 425040, Note_on_c, 7, 88, 84
6, 425139, Note_on_c, 7, 88, 0
6, 425160, Note_on_c, 7, 89, 84
6, 425259, Note_on_c, 7, 89, 0
6, 425280, Note_on_c, 7, 91, 84
6, 425619, Note_on_c, 7, 91, 0
6, 425640, Note_on_c, 7, 91, 84
6, 425739, Note_on_c, 7, 91, 0
6, 425760, Note_on_c, 7, 91, 84
6, 425859, Note_on_c, 7, 91, 0
6, 425880, Note_on_c, 7, 89, 84
6, 425979, Note_on_c, 7, 89, 0
6, 426000, Note_on_c, 7, 91, 84
6, 426099, Note_on_c, 7, 91, 0
6, 426120, Note_on_c, 7, 95, 84
6, 426219, Note_on_c, 7, 95, 0
6, 426240, Note_on_c, 7, 96, 84
6, 426579, Note_on_c, 7, 96, 0
6, 426600, Note_on_c, 7, 95, 84
6, 426699, Note_on_c, 7, 95, 0
6, 426720, Note_on_c, 7, 96, 84
6, 426819, Note_on_c, 7, 96, 0
6, 426840, Note_on_c, 7, 95, 84
6, 426939, Note_on_c, 7, 95, 0
6, 426960, Note_on_c, 7, 96, 84
6, 427059, Note_on_c, 7, 96, 0
6, 427080, Note_on_c, 7, 98, 84
6, 427179, Note_on_c, 7, 98, 0
6, 427200, Note_on_c, 7, 100, 84
6, 427299, Note_on_c, 7, 100, 0
6, 427320, Note_on_c, 7, 98, 84
6, 427419, Note_on_c, 7, 98, 0
6, 427440, Note_on_c, 7, 100, 84
6, 427539, Note_on_c, 7, 100, 0
6, 427560, Note_on_c, 7, 101, 84
6, 427659, Note_on_c, 7, 101, 0
6, 427680, Note_on_c, 7, 103, 84
6, 428619, Note_on_c, 7, 103, 0
6, 428640, Note_on_c, 7, 100, 84
6, 429579, Note_on_c, 7, 100, 0
6, 429600, Note_on_c, 7, 96, 84
6, 429719, Note_on_c, 7, 96, 0
6, 430080, Note_on_c, 7, 86, 84
6, 430199, Note_on_c, 7, 86, 0
6, 430560, Note_on_c, 7, 88, 84
6, 430679, Note_on_c, 7, 88, 0
6, 431040, Note_on_c, 7, 91, 84
6, 431159, Note_on_c, 7, 91, 0
6, 431520, Note_on_c, 7, 88, 84
6, 431639, Note_on_c, 7, 88, 0
6, 432000, Note_on_c, 7, 86, 84
6, 432119, Note_on_c, 7, 86, 0
6, 432480, Note_on_c, 7, 88, 84
6, 432599, Note_on_c, 7, 88, 0
6, 432960, Note_on_c, 7, 91, 84
6, 433079, Note_on_c, 7, 91, 0
6, 433440, Note_on_c, 7, 88, 84
6, 433559, Note_on_c, 7, 88, 0
6, 433920, Note_on_c, 7, 91, 84
6, 434039, Note_on_c, 7, 91, 0
6, 434400, Note_on_c, 7, 88, 84
6, 434519, Note_on_c, 7, 88, 0
6, 434880, Note_on_c, 7, 91, 84
6, 434999, Note_on_c, 7, 91, 0
6, 435360, Note_on_c, 7, 96, 84
6, 436299, Note_on_c, 7, 96, 0
6, 436320, Note_on_c, 7, 96, 84
6, 437019, Note_on_c, 7, 96, 0
6, 437040, Note_on_c, 7, 91, 84
6, 437139, Note_on_c, 7, 91, 0
6, 437160, Note_on_c, 7, 88, 84
6, 437259, Note_on_c, 7, 88, 0
6, 437280, Note_on_c, 7, 84, 84
6, 437399, Note_on_c, 7, 84, 0
6, 437640, Note_on_c, 7, 84, 84
6, 437739, Note_on_c, 7, 84, 0
6, 437760, Note_on_c, 7, 84, 84
6, 437859, Note_on_c, 7, 84, 0
6, 437880, Note_on_c, 7, 84, 84
6, 437979, Note_on_c, 7, 84, 0
6, 438000, Note_on_c, 7, 84, 84
6, 438099, Note_on_c, 7, 84, 0
6, 438120, Note_on_c, 7, 84, 84
6, 438219, Note_on_c, 7, 84, 0
6, 438240, Note_on_c, 7, 84, 84
6, 438359, Note_on_c, 7, 84, 0
6, 438600, Note_on_c, 7, 88, 84
6, 438699, Note_on_c, 7, 88, 0
6, 438720, Note_on_c, 7, 88, 84
6, 438819, Note_on_c, 7, 88, 0
6, 438840, Note_on_c, 7, 88, 84
6, 438939, Note_on_c, 7, 88, 0
6, 438960, Note_on_c, 7, 88, 84
6, 439059, Note_on_c, 7, 88, 0
6, 439080, Note_on_c, 7, 88, 84
6, 439179, Note_on_c, 7, 88, 0
6, 439200, Note_on_c, 7, 88, 84
6, 439319, Note_on_c, 7, 88, 0
6, 439440, Note_on_c, 7, 84, 84
6, 439539, Note_on_c, 7, 84, 0
6, 439560, Note_on_c, 7, 84, 84
6, 439659, Note_on_c, 7, 84, 0
6, 439680, Note_on_c, 7, 84, 84
6, 439799, Note_on_c, 7, 84, 0
6, 439920, Note_on_c, 7, 88, 84
6, 440019, Note_on_c, 7, 88, 0
6, 440040, Note_on_c, 7, 88, 84
6, 440139, Note_on_c, 7, 88, 0
6, 440160, Note_on_c, 7, 88, 84
6, 440279, Note_on_c, 7, 88, 0
6, 440400, Note_on_c, 7, 91, 84
6, 440499, Note_on_c, 7, 91, 0
6, 440520, Note_on_c, 7, 91, 84
6, 440619, Note_on_c, 7, 91, 0
6, 440640, Note_on_c, 7, 91, 84
6, 440759, Note_on_c, 7, 91, 0
6, 440880, Note_on_c, 7, 96, 84
6, 440979, Note_on_c, 7, 96, 0
6, 441000, Note_on_c, 7, 96, 84
6, 441099, Note_on_c, 7, 96, 0
6, 441120, Note_on_c, 7, 96, 84
6, 442059, Note_on_c, 7, 96, 0
6, 442080, Note_on_c, 7, 100, 84
6, 443019, Note_on_c, 7, 100, 0
6, 443040, Note_on_c, 7, 100, 84
6, 443159, Note_on_c, 7, 100, 0
6, 444000, Note_on_c, 7, 96, 84
6, 444119, Note_on_c, 7, 96, 0
6, 444960, Note_on_c, 7, 84, 84
6, 445079, Note_on_c, 7, 84, 0
6, 445920, Note_on_c, 7, 96, 84
6, 446039, Note_on_c, 7, 96, 0
6, 446400, Note_on_c, 7, 96, 84
6, 446519, Note_on_c, 7, 96, 0
6, 446880, Note_on_c, 7, 96, 84
6, 446999, Note_on_c, 7, 96, 0
6, 447840, Note_on_c, 7, 96, 84
6, 447959, Note_on_c, 7, 96, 0
6, 448800, Note_on_c, 7, 96, 84
6, 451199, Note_on_c, 7, 96, 0
6, 451199, End_track
7, 0, Start_track
7, 0, Title_t, "Flute"
7, 0, MIDI_port, 0
7, 0, Program_c, 0, 73
7, 0, Control_c, 0, 7, 72
7, 0, Control_c, 0, 10, 60
7, 0, Control_c, 0, 11, 127
7, 0, Note_on_c, 0, 84, 84
7, 239, Note_on_c, 0, 84, 0
7, 480, Note_on_c, 0, 88, 84
7, 480, Note_on_c, 0, 84, 84
7, 719, Note_on_c, 0, 88, 0
7, 719, Note_on_c, 0, 84, 0
7, 960, Note_on_c, 0, 91, 84
7, 960, Note_on_c, 0, 88, 84
7, 1664, Note_on_c, 0, 91, 0
7, 1664, Note_on_c, 0, 88, 0
7, 1680, Note_on_c, 0, 89, 84
7, 1680, Note_on_c, 0, 86, 84
7, 1799, Note_on_c, 0, 89, 0
7, 1799, Note_on_c, 0, 86, 0
7, 1920, Note_on_c, 0, 88, 84
7, 1920, Note_on_c, 0, 84, 84
7, 2039, Note_on_c, 0, 88, 0
7, 2039, Note_on_c, 0, 84, 0
7, 2160, Note_on_c, 0, 83, 84
7, 2160, Note_on_c, 0, 86, 84
7, 2279, Note_on_c, 0, 83, 0
7, 2279, Note_on_c, 0, 86, 0
7, 2400, Note_on_c, 0, 84, 84
7, 2519, Note_on_c, 0, 84, 0
7, 2640, Note_on_c, 0, 83, 84
7, 2640, Note_on_c, 0, 86, 84
7, 2759, Note_on_c, 0, 83, 0
7, 2759, Note_on_c, 0, 86, 0
7, 2880, Note_on_c, 0, 84, 84
7, 2880, Note_on_c, 0, 76, 84
7, 3584, Note_on_c, 0, 84, 0
7, 3584, Note_on_c, 0, 76, 0
7, 3600, Note_on_c, 0, 76, 84
7, 3600, Note_on_c, 0, 84, 84
7, 3771, Note_on_c, 0, 76, 0
7, 3771, Note_on_c, 0, 84, 0
7, 3780, Note_on_c, 0, 76, 84
7, 3780, Note_on_c, 0, 84, 84
7, 3831, Note_on_c, 0, 76, 0
7, 3831, Note_on_c, 0, 84, 0
7, 3840, Note_on_c, 0, 83, 84
7, 3840, Note_on_c, 0, 86, 84
7, 4544, Note_on_c, 0, 83, 0
7, 4544, Note_on_c, 0, 86, 0
7, 4560, Note_on_c, 0, 83, 84
7, 4560, Note_on_c, 0, 86, 84
7, 4731, Note_on_c, 0, 83, 0
7, 4731, Note_on_c, 0, 86, 0
7, 4740, Note_on_c, 0, 83, 84
7, 4740, Note_on_c, 0, 86, 84
7, 4791, Note_on_c, 0, 83, 0
7, 4791, Note_on_c, 0, 86, 0
7, 4800, Note_on_c, 0, 88, 84
7, 4800, Note_on_c, 0, 84, 84
7, 5384, Note_on_c, 0, 88, 0
7, 5384, Note_on_c, 0, 84, 0
7, 5400, Note_on_c, 0, 72, 84
7, 5504, Note_on_c, 0, 72, 0
7, 5520, Note_on_c, 0, 74, 84
7, 5624, Note_on_c, 0, 74, 0
7, 5640, Note_on_c, 0, 76, 84
7, 5744, Note_on_c, 0, 76, 0
7, 5760, Note_on_c, 0, 77, 84
7, 5849, Note_on_c, 0, 77, 0
7, 5880, Note_on_c, 0, 76, 84
7, 5969, Note_on_c, 0, 76, 0
7, 6000, Note_on_c, 0, 77, 84
7, 6089, Note_on_c, 0, 77, 0
7, 6120, Note_on_c, 0, 79, 84
7, 6209, Note_on_c, 0, 79, 0
7, 6240, Note_on_c, 0, 81, 84
7, 6329, Note_on_c, 0, 81, 0
7, 6360, Note_on_c, 0, 79, 84
7, 6449, Note_on_c, 0, 79, 0
7, 6480, Note_on_c, 0, 81, 84
7, 6569, Note_on_c, 0, 81, 0
7, 6600, Note_on_c, 0, 83, 84
7, 6689, Note_on_c, 0, 83, 0
7, 6720, Note_on_c, 0, 84, 84
7, 7304, Note_on_c, 0, 84, 0
7, 7320, Note_on_c, 0, 72, 84
7, 7409, Note_on_c, 0, 72, 0
7, 7440, Note_on_c, 0, 74, 84
7, 7529, Note_on_c, 0, 74, 0
7, 7560, Note_on_c, 0, 76, 84
7, 7649, Note_on_c, 0, 76, 0
7, 7680, Note_on_c, 0, 77, 84
7, 7769, Note_on_c, 0, 77, 0
7, 7800, Note_on_c, 0, 76, 84
7, 7889, Note_on_c, 0, 76, 0
7, 7920, Note_on_c, 0, 77, 84
7, 8009, Note_on_c, 0, 77, 0
7, 8040, Note_on_c, 0, 79, 84
7, 8129, Note_on_c, 0, 79, 0
7, 8160, Note_on_c, 0, 81, 84
7, 8249, Note_on_c, 0, 81, 0
7, 8280, Note_on_c, 0, 79, 84
7, 8369, Note_on_c, 0, 79, 0
7, 8400, Note_on_c, 0, 81, 84
7, 8489, Note_on_c, 0, 81, 0
7, 8520, Note_on_c, 0, 83, 84
7, 8609, Note_on_c, 0, 83, 0
7, 8640, Note_on_c, 0, 84, 84
7, 9224, Note_on_c, 0, 84, 0
7, 9240, Note_on_c, 0, 72, 84
7, 9329, Note_on_c, 0, 72, 0
7, 9360, Note_on_c, 0, 74, 84
7, 9449, Note_on_c, 0, 74, 0
7, 9480, Note_on_c, 0, 76, 84
7, 9547, Note_on_c, 0, 76, 0
7, 9560, Note_on_c, 0, 79, 84
7, 9599, Note_on_c, 0, 79, 0
7, 9600, Note_on_c, 0, 77, 84
7, 9689, Note_on_c, 0, 77, 0
7, 9720, Note_on_c, 0, 76, 84
7, 9809, Note_on_c, 0, 76, 0
7, 9840, Note_on_c, 0, 77, 84
7, 9929, Note_on_c, 0, 77, 0
7, 9960, Note_on_c, 0, 79, 84
7, 10027, Note_on_c, 0, 79, 0
7, 10040, Note_on_c, 0, 83, 84
7, 10079, Note_on_c, 0, 83, 0
7, 10080, Note_on_c, 0, 81, 84
7, 10169, Note_on_c, 0, 81, 0
7, 10200, Note_on_c, 0, 79, 84
7, 10289, Note_on_c, 0, 79, 0
7, 10320, Note_on_c, 0, 81, 84
7, 10409, Note_on_c, 0, 81, 0
7, 10440, Note_on_c, 0, 83, 84
7, 10507, Note_on_c, 0, 83, 0
7, 10520, Note_on_c, 0, 86, 84
7, 10559, Note_on_c, 0, 86, 0
7, 10560, Note_on_c, 0, 84, 84
7, 10649, Note_on_c, 0, 84, 0
7, 10680, Note_on_c, 0, 83, 84
7, 10769, Note_on_c, 0, 83, 0
7, 10800, Note_on_c, 0, 84, 84
7, 10889, Note_on_c, 0, 84, 0
7, 10920, Note_on_c, 0, 86, 84
7, 11009, Note_on_c, 0, 86, 0
7, 11040, Note_on_c, 0, 88, 84
7, 11264, Note_on_c, 0, 88, 0
7, 11280, Note_on_c, 0, 79, 84
7, 11399, Note_on_c, 0, 79, 0
7, 11460, Note_on_c, 0, 88, 84
7, 11511, Note_on_c, 0, 88, 0
7, 11520, Note_on_c, 0, 88, 84
7, 11639, Note_on_c, 0, 88, 0
7, 11640, Note_on_c, 0, 86, 84
7, 11744, Note_on_c, 0, 86, 0
7, 11760, Note_on_c, 0, 77, 84
7, 11879, Note_on_c, 0, 77, 0
7, 11940, Note_on_c, 0, 86, 84
7, 11991, Note_on_c, 0, 86, 0
7, 12000, Note_on_c, 0, 86, 84
7, 12119, Note_on_c, 0, 86, 0
7, 12120, Note_on_c, 0, 84, 84
7, 12224, Note_on_c, 0, 84, 0
7, 12240, Note_on_c, 0, 76, 84
7, 12359, Note_on_c, 0, 76, 0
7, 12420, Note_on_c, 0, 84, 84
7, 12471, Note_on_c, 0, 84, 0
7, 12480, Note_on_c, 0, 84, 84
7, 12599, Note_on_c, 0, 84, 0
7, 12600, Note_on_c, 0, 83, 84
7, 12704, Note_on_c, 0, 83, 0
7, 12720, Note_on_c, 0, 83, 84
7, 13184, Note_on_c, 0, 83, 0
7, 13200, Note_on_c, 0, 84, 84
7, 13319, Note_on_c, 0, 84, 0
7, 13380, Note_on_c, 0, 88, 84
7, 13431, Note_on_c, 0, 88, 0
7, 13440, Note_on_c, 0, 88, 84
7, 13559, Note_on_c, 0, 88, 0
7, 13560, Note_on_c, 0, 86, 84
7, 13664, Note_on_c, 0, 86, 0
7, 13680, Note_on_c, 0, 77, 84
7, 13799, Note_on_c, 0, 77, 0
7, 13860, Note_on_c, 0, 86, 84
7, 13911, Note_on_c, 0, 86, 0
7, 13920, Note_on_c, 0, 86, 84
7, 14039, Note_on_c, 0, 86, 0
7, 14040, Note_on_c, 0, 84, 84
7, 14144, Note_on_c, 0, 84, 0
7, 14160, Note_on_c, 0, 76, 84
7, 14279, Note_on_c, 0, 76, 0
7, 14340, Note_on_c, 0, 84, 84
7, 14391, Note_on_c, 0, 84, 0
7, 14400, Note_on_c, 0, 84, 84
7, 14519, Note_on_c, 0, 84, 0
7, 14520, Note_on_c, 0, 83, 84
7, 14624, Note_on_c, 0, 83, 0
7, 14640, Note_on_c, 0, 83, 84
7, 15104, Note_on_c, 0, 83, 0
7, 15120, Note_on_c, 0, 84, 84
7, 15209, Note_on_c, 0, 84, 0
7, 15300, Note_on_c, 0, 88, 84
7, 15344, Note_on_c, 0, 88, 0
7, 15360, Note_on_c, 0, 88, 84
7, 15449, Note_on_c, 0, 88, 0
7, 15540, Note_on_c, 0, 86, 84
7, 15584, Note_on_c, 0, 86, 0
7, 15600, Note_on_c, 0, 77, 84
7, 15689, Note_on_c, 0, 77, 0
7, 15780, Note_on_c, 0, 86, 84
7, 15824, Note_on_c, 0, 86, 0
7, 15840, Note_on_c, 0, 86, 84
7, 15929, Note_on_c, 0, 86, 0
7, 16020, Note_on_c, 0, 84, 84
7, 16064, Note_on_c, 0, 84, 0
7, 16080, Note_on_c, 0, 76, 84
7, 16169, Note_on_c, 0, 76, 0
7, 16260, Note_on_c, 0, 84, 84
7, 16304, Note_on_c, 0, 84, 0
7, 16320, Note_on_c, 0, 83, 84
7, 16409, Note_on_c, 0, 83, 0
7, 16500, Note_on_c, 0, 74, 84
7, 16551, Note_on_c, 0, 74, 0
7, 16560, Note_on_c, 0, 79, 84
7, 17024, Note_on_c, 0, 79, 0
7, 17040, Note_on_c, 0, 81, 84
7, 17099, Note_on_c, 0, 81, 0
7, 17100, Note_on_c, 0, 79, 84
7, 17159, Note_on_c, 0, 79, 0
7, 17160, Note_on_c, 0, 77, 84
7, 17219, Note_on_c, 0, 77, 0
7, 17220, Note_on_c, 0, 76, 84
7, 17271, Note_on_c, 0, 76, 0
7, 17280, Note_on_c, 0, 74, 84
7, 17399, Note_on_c, 0, 74, 0
7, 17460, Note_on_c, 0, 74, 84
7, 17511, Note_on_c, 0, 74, 0
7, 17520, Note_on_c, 0, 79, 84
7, 17984, Note_on_c, 0, 79, 0
7, 18000, Note_on_c, 0, 81, 84
7, 18059, Note_on_c, 0, 81, 0
7, 18060, Note_on_c, 0, 79, 84
7, 18119, Note_on_c, 0, 79, 0
7, 18120, Note_on_c, 0, 77, 84
7, 18179, Note_on_c, 0, 77, 0
7, 18180, Note_on_c, 0, 76, 84
7, 18231, Note_on_c, 0, 76, 0
7, 18240, Note_on_c, 0, 74, 84
7, 18359, Note_on_c, 0, 74, 0
7, 18420, Note_on_c, 0, 79, 84
7, 18471, Note_on_c, 0, 79, 0
7, 18480, Note_on_c, 0, 81, 84
7, 18539, Note_on_c, 0, 81, 0
7, 18540, Note_on_c, 0, 79, 84
7, 18599, Note_on_c, 0, 79, 0
7, 18600, Note_on_c, 0, 77, 84
7, 18659, Note_on_c, 0, 77, 0
7, 18660, Note_on_c, 0, 76, 84
7, 18711, Note_on_c, 0, 76, 0
7, 18720, Note_on_c, 0, 74, 84
7, 18839, Note_on_c, 0, 74, 0
7, 18900, Note_on_c, 0, 79, 84
7, 18951, Note_on_c, 0, 79, 0
7, 18960, Note_on_c, 0, 81, 84
7, 19019, Note_on_c, 0, 81, 0
7, 19020, Note_on_c, 0, 79, 84
7, 19079, Note_on_c, 0, 79, 0
7, 19080, Note_on_c, 0, 77, 84
7, 19139, Note_on_c, 0, 77, 0
7, 19140, Note_on_c, 0, 76, 84
7, 19191, Note_on_c, 0, 76, 0
7, 19200, Note_on_c, 0, 74, 84
7, 19319, Note_on_c, 0, 74, 0
7, 19380, Note_on_c, 0, 79, 84
7, 19431, Note_on_c, 0, 79, 0
7, 19440, Note_on_c, 0, 81, 84
7, 19499, Note_on_c, 0, 81, 0
7, 19500, Note_on_c, 0, 79, 84
7, 19559, Note_on_c, 0, 79, 0
7, 19560, Note_on_c, 0, 77, 84
7, 19619, Note_on_c, 0, 77, 0
7, 19620, Note_on_c, 0, 76, 84
7, 19671, Note_on_c, 0, 76, 0
7, 19680, Note_on_c, 0, 74, 84
7, 19799, Note_on_c, 0, 74, 0
7, 19860, Note_on_c, 0, 79, 84
7, 19911, Note_on_c, 0, 79, 0
7, 19920, Note_on_c, 0, 81, 84
7, 19979, Note_on_c, 0, 81, 0
7, 19980, Note_on_c, 0, 79, 84
7, 20039, Note_on_c, 0, 79, 0
7, 20040, Note_on_c, 0, 77, 84
7, 20099, Note_on_c, 0, 77, 0
7, 20100, Note_on_c, 0, 76, 84
7, 20151, Note_on_c, 0, 76, 0
7, 20160, Note_on_c, 0, 74, 84
7, 20279, Note_on_c, 0, 74, 0
7, 22680, Note_on_c, 0, 84, 92
7, 22799, Note_on_c, 0, 84, 0
7, 22800, Note_on_c, 0, 83, 84
7, 22904, Note_on_c, 0, 83, 0
7, 22920, Note_on_c, 0, 81, 84
7, 23009, Note_on_c, 0, 81, 0
7, 23040, Note_on_c, 0, 79, 84
7, 23129, Note_on_c, 0, 79, 0
7, 23160, Note_on_c, 0, 84, 92
7, 23279, Note_on_c, 0, 84, 0
7, 23280, Note_on_c, 0, 83, 84
7, 23384, Note_on_c, 0, 83, 0
7, 23400, Note_on_c, 0, 81, 84
7, 23489, Note_on_c, 0, 81, 0
7, 23520, Note_on_c, 0, 79, 84
7, 23609, Note_on_c, 0, 79, 0
7, 23640, Note_on_c, 0, 77, 84
7, 23729, Note_on_c, 0, 77, 0
7, 23760, Note_on_c, 0, 76, 84
7, 23849, Note_on_c, 0, 76, 0
7, 23880, Note_on_c, 0, 74, 84
7, 23969, Note_on_c, 0, 74, 0
7, 24000, Note_on_c, 0, 72, 84
7, 24239, Note_on_c, 0, 72, 0
7, 25920, Note_on_c, 0, 83, 84
7, 25920, Note_on_c, 0, 86, 84
7, 27824, Note_on_c, 0, 83, 0
7, 27824, Note_on_c, 0, 86, 0
7, 27840, Note_on_c, 0, 86, 84
7, 27840, Note_on_c, 0, 83, 84
7, 28079, Note_on_c, 0, 86, 0
7, 28079, Note_on_c, 0, 83, 0
7, 29760, Note_on_c, 0, 88, 84
7, 29760, Note_on_c, 0, 84, 84
7, 31664, Note_on_c, 0, 88, 0
7, 31664, Note_on_c, 0, 84, 0
7, 31680, Note_on_c, 0, 84, 84
7, 31680, Note_on_c, 0, 88, 84
7, 31919, Note_on_c, 0, 84, 0
7, 31919, Note_on_c, 0, 88, 0
7, 32640, Note_on_c, 0, 88, 84
7, 32640, Note_on_c, 0, 84, 84
7, 32879, Note_on_c, 0, 88, 0
7, 32879, Note_on_c, 0, 84, 0
7, 33600, Note_on_c, 0, 90, 84
7, 33600, Note_on_c, 0, 84, 84
7, 33839, Note_on_c, 0, 90, 0
7, 33839, Note_on_c, 0, 84, 0
7, 34560, Note_on_c, 0, 84, 84
7, 34560, Note_on_c, 0, 90, 84
7, 34799, Note_on_c, 0, 84, 0
7, 34799, Note_on_c, 0, 90, 0
7, 35520, Note_on_c, 0, 86, 84
7, 35520, Note_on_c, 0, 91, 84
7, 35759, Note_on_c, 0, 86, 0
7, 35759, Note_on_c, 0, 91, 0
7, 36000, Note_on_c, 0, 86, 84
7, 36000, Note_on_c, 0, 91, 84
7, 36239, Note_on_c, 0, 86, 0
7, 36239, Note_on_c, 0, 91, 0
7, 36480, Note_on_c, 0, 90, 84
7, 36480, Note_on_c, 0, 86, 84
7, 36719, Note_on_c, 0, 90, 0
7, 36719, Note_on_c, 0, 86, 0
7, 36960, Note_on_c, 0, 86, 84
7, 36960, Note_on_c, 0, 90, 84
7, 37199, Note_on_c, 0, 86, 0
7, 37199, Note_on_c, 0, 90, 0
7, 37440, Note_on_c, 0, 86, 84
7, 37440, Note_on_c, 0, 91, 84
7, 37679, Note_on_c, 0, 86, 0
7, 37679, Note_on_c, 0, 91, 0
7, 37920, Note_on_c, 0, 86, 84
7, 37920, Note_on_c, 0, 91, 84
7, 38159, Note_on_c, 0, 86, 0
7, 38159, Note_on_c, 0, 91, 0
7, 38400, Note_on_c, 0, 86, 84
7, 39944, Note_on_c, 0, 86, 0
7, 39960, Note_on_c, 0, 86, 84
7, 39960, Note_on_c, 0, 78, 84
7, 40079, Note_on_c, 0, 86, 0
7, 40079, Note_on_c, 0, 78, 0
7, 40080, Note_on_c, 0, 79, 84
7, 40080, Note_on_c, 0, 85, 84
7, 40184, Note_on_c, 0, 79, 0
7, 40184, Note_on_c, 0, 85, 0
7, 40200, Note_on_c, 0, 85, 84
7, 40200, Note_on_c, 0, 79, 84
7, 40289, Note_on_c, 0, 85, 0
7, 40289, Note_on_c, 0, 79, 0
7, 40320, Note_on_c, 0, 86, 84
7, 40320, Note_on_c, 0, 78, 84
7, 40424, Note_on_c, 0, 86, 0
7, 40439, Note_on_c, 0, 78, 0
7, 40440, Note_on_c, 0, 86, 84
7, 40559, Note_on_c, 0, 86, 0
7, 40560, Note_on_c, 0, 85, 84
7, 40664, Note_on_c, 0, 85, 0
7, 40680, Note_on_c, 0, 91, 84
7, 40769, Note_on_c, 0, 91, 0
7, 40800, Note_on_c, 0, 90, 84
7, 40919, Note_on_c, 0, 90, 0
7, 42240, Note_on_c, 0, 86, 84
7, 42240, Note_on_c, 0, 83, 84
7, 42419, Note_on_c, 0, 86, 0
7, 42419, Note_on_c, 0, 83, 0
7, 42720, Note_on_c, 0, 84, 84
7, 42720, Note_on_c, 0, 88, 84
7, 42899, Note_on_c, 0, 84, 0
7, 42899, Note_on_c, 0, 88, 0
7, 43200, Note_on_c, 0, 83, 84
7, 43200, Note_on_c, 0, 86, 84
7, 43919, Note_on_c, 0, 83, 0
7, 43919, Note_on_c, 0, 86, 0
7, 45840, Note_on_c, 0, 81, 76
7, 45840, Note_on_c, 0, 78, 76
7, 45907, Note_on_c, 0, 81, 0
7, 45907, Note_on_c, 0, 78, 0
7, 45920, Note_on_c, 0, 79, 76
7, 45920, Note_on_c, 0, 83, 76
7, 45987, Note_on_c, 0, 79, 0
7, 45987, Note_on_c, 0, 83, 0
7, 46000, Note_on_c, 0, 81, 76
7, 46000, Note_on_c, 0, 84, 76
7, 46067, Note_on_c, 0, 81, 0
7, 46067, Note_on_c, 0, 84, 0
7, 46080, Note_on_c, 0, 86, 76
7, 46080, Note_on_c, 0, 83, 76
7, 46304, Note_on_c, 0, 86, 0
7, 46304, Note_on_c, 0, 83, 0
7, 46320, Note_on_c, 0, 83, 76
7, 46320, Note_on_c, 0, 79, 76
7, 46387, Note_on_c, 0, 83, 0
7, 46387, Note_on_c, 0, 79, 0
7, 46400, Note_on_c, 0, 84, 76
7, 46400, Note_on_c, 0, 81, 76
7, 46467, Note_on_c, 0, 84, 0
7, 46467, Note_on_c, 0, 81, 0
7, 46480, Note_on_c, 0, 86, 76
7, 46480, Note_on_c, 0, 83, 76
7, 46547, Note_on_c, 0, 86, 0
7, 46547, Note_on_c, 0, 83, 0
7, 46560, Note_on_c, 0, 84, 76
7, 46560, Note_on_c, 0, 88, 76
7, 46784, Note_on_c, 0, 84, 0
7, 46784, Note_on_c, 0, 88, 0
7, 46800, Note_on_c, 0, 88, 76
7, 46800, Note_on_c, 0, 84, 76
7, 46867, Note_on_c, 0, 88, 0
7, 46867, Note_on_c, 0, 84, 0
7, 46880, Note_on_c, 0, 90, 76
7, 46880, Note_on_c, 0, 86, 76
7, 46947, Note_on_c, 0, 90, 0
7, 46947, Note_on_c, 0, 86, 0
7, 46960, Note_on_c, 0, 91, 76
7, 46960, Note_on_c, 0, 88, 76
7, 47027, Note_on_c, 0, 91, 0
7, 47027, Note_on_c, 0, 88, 0
7, 47040, Note_on_c, 0, 86, 76
7, 47040, Note_on_c, 0, 83, 76
7, 47759, Note_on_c, 0, 86, 0
7, 47759, Note_on_c, 0, 83, 0
7, 54720, Note_on_c, 0, 88, 84
7, 54720, Note_on_c, 0, 84, 84
7, 55199, Note_on_c, 0, 88, 0
7, 55199, Note_on_c, 0, 84, 0
7, 55200, Note_on_c, 0, 88, 84
7, 55200, Note_on_c, 0, 84, 84
7, 55304, Note_on_c, 0, 88, 0
7, 55304, Note_on_c, 0, 84, 0
7, 55320, Note_on_c, 0, 88, 84
7, 55320, Note_on_c, 0, 84, 84
7, 55424, Note_on_c, 0, 88, 0
7, 55424, Note_on_c, 0, 84, 0
7, 55440, Note_on_c, 0, 84, 84
7, 55440, Note_on_c, 0, 88, 84
7, 55544, Note_on_c, 0, 84, 0
7, 55544, Note_on_c, 0, 88, 0
7, 55560, Note_on_c, 0, 84, 84
7, 55560, Note_on_c, 0, 88, 84
7, 55664, Note_on_c, 0, 84, 0
7, 55664, Note_on_c, 0, 88, 0
7, 55680, Note_on_c, 0, 84, 84
7, 55680, Note_on_c, 0, 88, 84
7, 55784, Note_on_c, 0, 84, 0
7, 55784, Note_on_c, 0, 88, 0
7, 55800, Note_on_c, 0, 84, 84
7, 55800, Note_on_c, 0, 88, 84
7, 55904, Note_on_c, 0, 84, 0
7, 55904, Note_on_c, 0, 88, 0
7, 55920, Note_on_c, 0, 84, 84
7, 55920, Note_on_c, 0, 88, 84
7, 56024, Note_on_c, 0, 84, 0
7, 56024, Note_on_c, 0, 88, 0
7, 56040, Note_on_c, 0, 88, 84
7, 56040, Note_on_c, 0, 84, 84
7, 56144, Note_on_c, 0, 88, 0
7, 56144, Note_on_c, 0, 84, 0
7, 56160, Note_on_c, 0, 84, 84
7, 56160, Note_on_c, 0, 88, 84
7, 56264, Note_on_c, 0, 84, 0
7, 56264, Note_on_c, 0, 88, 0
7, 56280, Note_on_c, 0, 84, 84
7, 56280, Note_on_c, 0, 88, 84
7, 56384, Note_on_c, 0, 84, 0
7, 56384, Note_on_c, 0, 88, 0
7, 56400, Note_on_c, 0, 88, 84
7, 56400, Note_on_c, 0, 84, 84
7, 56504, Note_on_c, 0, 88, 0
7, 56504, Note_on_c, 0, 84, 0
7, 56520, Note_on_c, 0, 88, 84
7, 56520, Note_on_c, 0, 84, 84
7, 56624, Note_on_c, 0, 88, 0
7, 56624, Note_on_c, 0, 84, 0
7, 56640, Note_on_c, 0, 84, 84
7, 56640, Note_on_c, 0, 88, 84
7, 56864, Note_on_c, 0, 84, 0
7, 56864, Note_on_c, 0, 88, 0
7, 56880, Note_on_c, 0, 73, 84
7, 56880, Note_on_c, 0, 85, 84
7, 57104, Note_on_c, 0, 73, 0
7, 57104, Note_on_c, 0, 85, 0
7, 57120, Note_on_c, 0, 86, 84
7, 57120, Note_on_c, 0, 74, 84
7, 57344, Note_on_c, 0, 86, 0
7, 57344, Note_on_c, 0, 74, 0
7, 57360, Note_on_c, 0, 75, 84
7, 57360, Note_on_c, 0, 87, 84
7, 57584, Note_on_c, 0, 75, 0
7, 57584, Note_on_c, 0, 87, 0
7, 57600, Note_on_c, 0, 76, 84
7, 57600, Note_on_c, 0, 88, 84
7, 57824, Note_on_c, 0, 76, 0
7, 57824, Note_on_c, 0, 88, 0
7, 57840, Note_on_c, 0, 90, 84
7, 57840, Note_on_c, 0, 78, 84
7, 58064, Note_on_c, 0, 90, 0
7, 58064, Note_on_c, 0, 78, 0
7, 58080, Note_on_c, 0, 91, 84
7, 58080, Note_on_c, 0, 79, 84
7, 58131, Note_on_c, 0, 91, 0
7, 58131, Note_on_c, 0, 79, 0
7, 58140, Note_on_c, 0, 78, 84
7, 58140, Note_on_c, 0, 90, 84
7, 58191, Note_on_c, 0, 78, 0
7, 58191, Note_on_c, 0, 90, 0
7, 58200, Note_on_c, 0, 76, 84
7, 58200, Note_on_c, 0, 88, 84
7, 58251, Note_on_c, 0, 76, 0
7, 58251, Note_on_c, 0, 88, 0
7, 58260, Note_on_c, 0, 86, 84
7, 58260, Note_on_c, 0, 74, 84
7, 58311, Note_on_c, 0, 86, 0
7, 58311, Note_on_c, 0, 74, 0
7, 58320, Note_on_c, 0, 72, 84
7, 58320, Note_on_c, 0, 84, 84
7, 58371, Note_on_c, 0, 72, 0
7, 58371, Note_on_c, 0, 84, 0
7, 58380, Note_on_c, 0, 83, 84
7, 58380, Note_on_c, 0, 71, 84
7, 58431, Note_on_c, 0, 83, 0
7, 58431, Note_on_c, 0, 71, 0
7, 58440, Note_on_c, 0, 81, 84
7, 58440, Note_on_c, 0, 69, 84
7, 58491, Note_on_c, 0, 81, 0
7, 58491, Note_on_c, 0, 69, 0
7, 58500, Note_on_c, 0, 67, 84
7, 58500, Note_on_c, 0, 79, 84
7, 58551, Note_on_c, 0, 67, 0
7, 58551, Note_on_c, 0, 79, 0
7, 58560, Note_on_c, 0, 84, 84
7, 58560, Note_on_c, 0, 81, 84
7, 58739, Note_on_c, 0, 84, 0
7, 58739, Note_on_c, 0, 81, 0
7, 59520, Note_on_c, 0, 81, 84
7, 59520, Note_on_c, 0, 78, 84
7, 59699, Note_on_c, 0, 81, 0
7, 59699, Note_on_c, 0, 78, 0
7, 68160, Note_on_c, 0, 79, 76
7, 68864, Note_on_c, 0, 79, 0
7, 68880, Note_on_c, 0, 78, 76
7, 69104, Note_on_c, 0, 78, 0
7, 69120, Note_on_c, 0, 76, 76
7, 69344, Note_on_c, 0, 76, 0
7, 69360, Note_on_c, 0, 74, 76
7, 69584, Note_on_c, 0, 74, 0
7, 69600, Note_on_c, 0, 74, 76
7, 69824, Note_on_c, 0, 74, 0
7, 69840, Note_on_c, 0, 74, 76
7, 70064, Note_on_c, 0, 74, 0
7, 70080, Note_on_c, 0, 79, 84
7, 70200, Control_c, 0, 11, 112
7, 70784, Note_on_c, 0, 79, 0
7, 70800, Note_on_c, 0, 78, 84
7, 71024, Note_on_c, 0, 78, 0
7, 71040, Note_on_c, 0, 76, 84
7, 71264, Note_on_c, 0, 76, 0
7, 71280, Note_on_c, 0, 74, 84
7, 71504, Note_on_c, 0, 74, 0
7, 71520, Note_on_c, 0, 74, 84
7, 71744, Note_on_c, 0, 74, 0
7, 71760, Note_on_c, 0, 74, 84
7, 71984, Note_on_c, 0, 74, 0
7, 71998, Control_c, 0, 11, 127
7, 72000, Note_on_c, 0, 81, 84
7, 72000, Note_on_c, 0, 84, 84
7, 72120, Control_c, 0, 11, 112
7, 72704, Note_on_c, 0, 81, 0
7, 72704, Note_on_c, 0, 84, 0
7, 72720, Note_on_c, 0, 83, 84
7, 72720, Note_on_c, 0, 79, 84
7, 72944, Note_on_c, 0, 83, 0
7, 72944, Note_on_c, 0, 79, 0
7, 72958, Control_c, 0, 11, 127
7, 72960, Note_on_c, 0, 81, 76
7, 72960, Note_on_c, 0, 76, 76
7, 73184, Note_on_c, 0, 81, 0
7, 73184, Note_on_c, 0, 76, 0
7, 73200, Note_on_c, 0, 77, 80
7, 73200, Note_on_c, 0, 80, 80
7, 73424, Note_on_c, 0, 77, 0
7, 73424, Note_on_c, 0, 80, 0
7, 73440, Note_on_c, 0, 77, 80
7, 73440, Note_on_c, 0, 80, 80
7, 73664, Note_on_c, 0, 77, 0
7, 73664, Note_on_c, 0, 80, 0
7, 73680, Note_on_c, 0, 80, 80
7, 73680, Note_on_c, 0, 77, 80
7, 73904, Note_on_c, 0, 80, 0
7, 73904, Note_on_c, 0, 77, 0
7, 73920, Note_on_c, 0, 77, 80
7, 73920, Note_on_c, 0, 80, 80
7, 74144, Note_on_c, 0, 77, 0
7, 74144, Note_on_c, 0, 80, 0
7, 74160, Note_on_c, 0, 77, 80
7, 74160, Note_on_c, 0, 80, 80
7, 74384, Note_on_c, 0, 77, 0
7, 74384, Note_on_c, 0, 80, 0
7, 74400, Note_on_c, 0, 80, 80
7, 74400, Note_on_c, 0, 77, 80
7, 74624, Note_on_c, 0, 80, 0
7, 74624, Note_on_c, 0, 77, 0
7, 74640, Note_on_c, 0, 80, 80
7, 74640, Note_on_c, 0, 77, 80
7, 74864, Note_on_c, 0, 80, 0
7, 74864, Note_on_c, 0, 77, 0
7, 74880, Note_on_c, 0, 80, 80
7, 74880, Note_on_c, 0, 77, 80
7, 75104, Note_on_c, 0, 80, 0
7, 75104, Note_on_c, 0, 77, 0
7, 75120, Note_on_c, 0, 84, 80
7, 75120, Note_on_c, 0, 80, 80
7, 75344, Note_on_c, 0, 84, 0
7, 75344, Note_on_c, 0, 80, 0
7, 75360, Note_on_c, 0, 80, 80
7, 75360, Note_on_c, 0, 84, 80
7, 75584, Note_on_c, 0, 80, 0
7, 75584, Note_on_c, 0, 84, 0
7, 75600, Note_on_c, 0, 80, 80
7, 75600, Note_on_c, 0, 84, 80
7, 75824, Note_on_c, 0, 80, 0
7, 75824, Note_on_c, 0, 84, 0
7, 75840, Note_on_c, 0, 89, 84
7, 75840, Note_on_c, 0, 80, 84
7, 77744, Note_on_c, 0, 89, 0
7, 77744, Note_on_c, 0, 80, 0
7, 77760, Note_on_c, 0, 89, 84
7, 77760, Note_on_c, 0, 86, 84
7, 78464, Note_on_c, 0, 89, 0
7, 78464, Note_on_c, 0, 86, 0
7, 78480, Note_on_c, 0, 89, 84
7, 78480, Note_on_c, 0, 86, 84
7, 78584, Note_on_c, 0, 89, 0
7, 78584, Note_on_c, 0, 86, 0
7, 78600, Note_on_c, 0, 89, 84
7, 78600, Note_on_c, 0, 86, 84
7, 78704, Note_on_c, 0, 89, 0
7, 78704, Note_on_c, 0, 86, 0
7, 78720, Note_on_c, 0, 89, 84
7, 78720, Note_on_c, 0, 86, 84
7, 79424, Note_on_c, 0, 89, 0
7, 79424, Note_on_c, 0, 86, 0
7, 79440, Note_on_c, 0, 86, 84
7, 79440, Note_on_c, 0, 89, 84
7, 79544, Note_on_c, 0, 86, 0
7, 79544, Note_on_c, 0, 89, 0
7, 79560, Note_on_c, 0, 86, 84
7, 79560, Note_on_c, 0, 89, 84
7, 79664, Note_on_c, 0, 86, 0
7, 79664, Note_on_c, 0, 89, 0
7, 79680, Note_on_c, 0, 89, 84
7, 79680, Note_on_c, 0, 86, 84
7, 79904, Note_on_c, 0, 89, 0
7, 79904, Note_on_c, 0, 86, 0
7, 79920, Note_on_c, 0, 89, 84
7, 79920, Note_on_c, 0, 86, 84
7, 80024, Note_on_c, 0, 89, 0
7, 80024, Note_on_c, 0, 86, 0
7, 80040, Note_on_c, 0, 86, 84
7, 80040, Note_on_c, 0, 89, 84
7, 80144, Note_on_c, 0, 86, 0
7, 80144, Note_on_c, 0, 89, 0
7, 80160, Note_on_c, 0, 86, 84
7, 80160, Note_on_c, 0, 89, 84
7, 80384, Note_on_c, 0, 86, 0
7, 80384, Note_on_c, 0, 89, 0
7, 80400, Note_on_c, 0, 86, 84
7, 80400, Note_on_c, 0, 89, 84
7, 80504, Note_on_c, 0, 86, 0
7, 80504, Note_on_c, 0, 89, 0
7, 80520, Note_on_c, 0, 89, 84
7, 80520, Note_on_c, 0, 86, 84
7, 80624, Note_on_c, 0, 89, 0
7, 80624, Note_on_c, 0, 86, 0
7, 80640, Note_on_c, 0, 83, 84
7, 80744, Note_on_c, 0, 83, 0
7, 80760, Note_on_c, 0, 79, 84
7, 80864, Note_on_c, 0, 79, 0
7, 80880, Note_on_c, 0, 86, 84
7, 80984, Note_on_c, 0, 86, 0
7, 81000, Note_on_c, 0, 83, 84
7, 81104, Note_on_c, 0, 83, 0
7, 81120, Note_on_c, 0, 74, 84
7, 81120, Note_on_c, 0, 89, 84
7, 81224, Note_on_c, 0, 74, 0
7, 81224, Note_on_c, 0, 89, 0
7, 81240, Note_on_c, 0, 86, 84
7, 81240, Note_on_c, 0, 71, 84
7, 81344, Note_on_c, 0, 86, 0
7, 81344, Note_on_c, 0, 71, 0
7, 81360, Note_on_c, 0, 83, 84
7, 81464, Note_on_c, 0, 83, 0
7, 81480, Note_on_c, 0, 79, 84
7, 81584, Note_on_c, 0, 79, 0
7, 81600, Note_on_c, 0, 84, 84
7, 81839, Note_on_c, 0, 84, 0
7, 82080, Note_on_c, 0, 88, 84
7, 82080, Note_on_c, 0, 84, 84
7, 82319, Note_on_c, 0, 88, 0
7, 82319, Note_on_c, 0, 84, 0
7, 82560, Note_on_c, 0, 88, 84
7, 82560, Note_on_c, 0, 91, 84
7, 83264, Note_on_c, 0, 88, 0
7, 83264, Note_on_c, 0, 91, 0
7, 83280, Note_on_c, 0, 86, 84
7, 83280, Note_on_c, 0, 89, 84
7, 83399, Note_on_c, 0, 86, 0
7, 83399, Note_on_c, 0, 89, 0
7, 83520, Note_on_c, 0, 88, 84
7, 83520, Note_on_c, 0, 84, 84
7, 83639, Note_on_c, 0, 88, 0
7, 83639, Note_on_c, 0, 84, 0
7, 83760, Note_on_c, 0, 86, 84
7, 83760, Note_on_c, 0, 83, 84
7, 83879, Note_on_c, 0, 86, 0
7, 83879, Note_on_c, 0, 83, 0
7, 84000, Note_on_c, 0, 84, 84
7, 84119, Note_on_c, 0, 84, 0
7, 84240, Note_on_c, 0, 83, 84
7, 84240, Note_on_c, 0, 86, 84
7, 84359, Note_on_c, 0, 83, 0
7, 84359, Note_on_c, 0, 86, 0
7, 84480, Note_on_c, 0, 76, 84
7, 84480, Note_on_c, 0, 84, 84
7, 85184, Note_on_c, 0, 76, 0
7, 85184, Note_on_c, 0, 84, 0
7, 85200, Note_on_c, 0, 76, 84
7, 85200, Note_on_c, 0, 84, 84
7, 85371, Note_on_c, 0, 76, 0
7, 85371, Note_on_c, 0, 84, 0
7, 85380, Note_on_c, 0, 84, 84
7, 85380, Note_on_c, 0, 76, 84
7, 85431, Note_on_c, 0, 84, 0
7, 85431, Note_on_c, 0, 76, 0
7, 85440, Note_on_c, 0, 83, 84
7, 85440, Note_on_c, 0, 86, 84
7, 86144, Note_on_c, 0, 83, 0
7, 86144, Note_on_c, 0, 86, 0
7, 86160, Note_on_c, 0, 83, 84
7, 86160, Note_on_c, 0, 86, 84
7, 86331, Note_on_c, 0, 83, 0
7, 86331, Note_on_c, 0, 86, 0
7, 86340, Note_on_c, 0, 83, 84
7, 86340, Note_on_c, 0, 86, 84
7, 86391, Note_on_c, 0, 83, 0
7, 86391, Note_on_c, 0, 86, 0
7, 86400, Note_on_c, 0, 88, 84
7, 86400, Note_on_c, 0, 84, 84
7, 86984, Note_on_c, 0, 88, 0
7, 86984, Note_on_c, 0, 84, 0
7, 87000, Note_on_c, 0, 72, 84
7, 87104, Note_on_c, 0, 72, 0
7, 87120, Note_on_c, 0, 74, 84
7, 87224, Note_on_c, 0, 74, 0
7, 87240, Note_on_c, 0, 76, 84
7, 87344, Note_on_c, 0, 76, 0
7, 87360, Note_on_c, 0, 77, 84
7, 87449, Note_on_c, 0, 77, 0
7, 87480, Note_on_c, 0, 76, 84
7, 87569, Note_on_c, 0, 76, 0
7, 87600, Note_on_c, 0, 77, 84
7, 87689, Note_on_c, 0, 77, 0
7, 87720, Note_on_c, 0, 79, 84
7, 87809, Note_on_c, 0, 79, 0
7, 87840, Note_on_c, 0, 81, 84
7, 87929, Note_on_c, 0, 81, 0
7, 87960, Note_on_c, 0, 79, 84
7, 88049, Note_on_c, 0, 79, 0
7, 88080, Note_on_c, 0, 81, 84
7, 88169, Note_on_c, 0, 81, 0
7, 88200, Note_on_c, 0, 83, 84
7, 88289, Note_on_c, 0, 83, 0
7, 88320, Note_on_c, 0, 84, 84
7, 88904, Note_on_c, 0, 84, 0
7, 88920, Note_on_c, 0, 72, 84
7, 89009, Note_on_c, 0, 72, 0
7, 89040, Note_on_c, 0, 74, 84
7, 89129, Note_on_c, 0, 74, 0
7, 89160, Note_on_c, 0, 76, 84
7, 89249, Note_on_c, 0, 76, 0
7, 89280, Note_on_c, 0, 77, 84
7, 89369, Note_on_c, 0, 77, 0
7, 89400, Note_on_c, 0, 76, 84
7, 89489, Note_on_c, 0, 76, 0
7, 89520, Note_on_c, 0, 77, 84
7, 89609, Note_on_c, 0, 77, 0
7, 89640, Note_on_c, 0, 79, 84
7, 89729, Note_on_c, 0, 79, 0
7, 89760, Note_on_c, 0, 81, 84
7, 89849, Note_on_c, 0, 81, 0
7, 89880, Note_on_c, 0, 79, 84
7, 89969, Note_on_c, 0, 79, 0
7, 90000, Note_on_c, 0, 81, 84
7, 90089, Note_on_c, 0, 81, 0
7, 90120, Note_on_c, 0, 83, 84
7, 90209, Note_on_c, 0, 83, 0
7, 90240, Note_on_c, 0, 84, 84
7, 90824, Note_on_c, 0, 84, 0
7, 90840, Note_on_c, 0, 72, 84
7, 90929, Note_on_c, 0, 72, 0
7, 90960, Note_on_c, 0, 74, 84
7, 91049, Note_on_c, 0, 74, 0
7, 91080, Note_on_c, 0, 76, 84
7, 91147, Note_on_c, 0, 76, 0
7, 91160, Note_on_c, 0, 79, 84
7, 91199, Note_on_c, 0, 79, 0
7, 91200, Note_on_c, 0, 77, 84
7, 91289, Note_on_c, 0, 77, 0
7, 91320, Note_on_c, 0, 76, 84
7, 91409, Note_on_c, 0, 76, 0
7, 91440, Note_on_c, 0, 77, 84
7, 91529, Note_on_c, 0, 77, 0
7, 91560, Note_on_c, 0, 79, 84
7, 91627, Note_on_c, 0, 79, 0
7, 91640, Note_on_c, 0, 83, 84
7, 91679, Note_on_c, 0, 83, 0
7, 91680, Note_on_c, 0, 81, 84
7, 91769, Note_on_c, 0, 81, 0
7, 91800, Note_on_c, 0, 79, 84
7, 91889, Note_on_c, 0, 79, 0
7, 91920, Note_on_c, 0, 81, 84
7, 92009, Note_on_c, 0, 81, 0
7, 92040, Note_on_c, 0, 83, 84
7, 92107, Note_on_c, 0, 83, 0
7, 92120, Note_on_c, 0, 86, 84
7, 92159, Note_on_c, 0, 86, 0
7, 92160, Note_on_c, 0, 84, 84
7, 92249, Note_on_c, 0, 84, 0
7, 92280, Note_on_c, 0, 83, 84
7, 92369, Note_on_c, 0, 83, 0
7, 92400, Note_on_c, 0, 84, 84
7, 92489, Note_on_c, 0, 84, 0
7, 92520, Note_on_c, 0, 86, 84
7, 92609, Note_on_c, 0, 86, 0
7, 92640, Note_on_c, 0, 88, 84
7, 92864, Note_on_c, 0, 88, 0
7, 92880, Note_on_c, 0, 79, 84
7, 92999, Note_on_c, 0, 79, 0
7, 93060, Note_on_c, 0, 88, 84
7, 93111, Note_on_c, 0, 88, 0
7, 93120, Note_on_c, 0, 88, 84
7, 93239, Note_on_c, 0, 88, 0
7, 93240, Note_on_c, 0, 86, 84
7, 93344, Note_on_c, 0, 86, 0
7, 93360, Note_on_c, 0, 77, 84
7, 93479, Note_on_c, 0, 77, 0
7, 93540, Note_on_c, 0, 86, 84
7, 93591, Note_on_c, 0, 86, 0
7, 93600, Note_on_c, 0, 86, 84
7, 93719, Note_on_c, 0, 86, 0
7, 93720, Note_on_c, 0, 84, 84
7, 93824, Note_on_c, 0, 84, 0
7, 93840, Note_on_c, 0, 76, 84
7, 93959, Note_on_c, 0, 76, 0
7, 94020, Note_on_c, 0, 84, 84
7, 94071, Note_on_c, 0, 84, 0
7, 94080, Note_on_c, 0, 84, 84
7, 94199, Note_on_c, 0, 84, 0
7, 94200, Note_on_c, 0, 83, 84
7, 94304, Note_on_c, 0, 83, 0
7, 94320, Note_on_c, 0, 83, 84
7, 94784, Note_on_c, 0, 83, 0
7, 94800, Note_on_c, 0, 84, 84
7, 94919, Note_on_c, 0, 84, 0
7, 94980, Note_on_c, 0, 88, 84
7, 95031, Note_on_c, 0, 88, 0
7, 95040, Note_on_c, 0, 88, 84
7, 95159, Note_on_c, 0, 88, 0
7, 95160, Note_on_c, 0, 86, 84
7, 95264, Note_on_c, 0, 86, 0
7, 95280, Note_on_c, 0, 77, 84
7, 95399, Note_on_c, 0, 77, 0
7, 95460, Note_on_c, 0, 86, 84
7, 95511, Note_on_c, 0, 86, 0
7, 95520, Note_on_c, 0, 86, 84
7, 95639, Note_on_c, 0, 86, 0
7, 95640, Note_on_c, 0, 84, 84
7, 95744, Note_on_c, 0, 84, 0
7, 95760, Note_on_c, 0, 76, 84
7, 95879, Note_on_c, 0, 76, 0
7, 95940, Note_on_c, 0, 84, 84
7, 95991, Note_on_c, 0, 84, 0
7, 96000, Note_on_c, 0, 84, 84
7, 96119, Note_on_c, 0, 84, 0
7, 96120, Note_on_c, 0, 83, 84
7, 96224, Note_on_c, 0, 83, 0
7, 96240, Note_on_c, 0, 83, 84
7, 96704, Note_on_c, 0, 83, 0
7, 96720, Note_on_c, 0, 84, 84
7, 96809, Note_on_c, 0, 84, 0
7, 96900, Note_on_c, 0, 88, 84
7, 96944, Note_on_c, 0, 88, 0
7, 96960, Note_on_c, 0, 88, 84
7, 97049, Note_on_c, 0, 88, 0
7, 97140, Note_on_c, 0, 86, 84
7, 97184, Note_on_c, 0, 86, 0
7, 97200, Note_on_c, 0, 77, 84
7, 97289, Note_on_c, 0, 77, 0
7, 97380, Note_on_c, 0, 86, 84
7, 97424, Note_on_c, 0, 86, 0
7, 97440, Note_on_c, 0, 86, 84
7, 97529, Note_on_c, 0, 86, 0
7, 97620, Note_on_c, 0, 84, 84
7, 97664, Note_on_c, 0, 84, 0
7, 97680, Note_on_c, 0, 76, 84
7, 97769, Note_on_c, 0, 76, 0
7, 97860, Note_on_c, 0, 84, 84
7, 97904, Note_on_c, 0, 84, 0
7, 97920, Note_on_c, 0, 83, 84
7, 98009, Note_on_c, 0, 83, 0
7, 98100, Note_on_c, 0, 74, 84
7, 98151, Note_on_c, 0, 74, 0
7, 98160, Note_on_c, 0, 79, 84
7, 98624, Note_on_c, 0, 79, 0
7, 98640, Note_on_c, 0, 81, 84
7, 98699, Note_on_c, 0, 81, 0
7, 98700, Note_on_c, 0, 79, 84
7, 98759, Note_on_c, 0, 79, 0
7, 98760, Note_on_c, 0, 77, 84
7, 98819, Note_on_c, 0, 77, 0
7, 98820, Note_on_c, 0, 76, 84
7, 98871, Note_on_c, 0, 76, 0
7, 98880, Note_on_c, 0, 74, 84
7, 98999, Note_on_c, 0, 74, 0
7, 99060, Note_on_c, 0, 74, 84
7, 99111, Note_on_c, 0, 74, 0
7, 99120, Note_on_c, 0, 79, 84
7, 99584, Note_on_c, 0, 79, 0
7, 99600, Note_on_c, 0, 81, 84
7, 99659, Note_on_c, 0, 81, 0
7, 99660, Note_on_c, 0, 79, 84
7, 99719, Note_on_c, 0, 79, 0
7, 99720, Note_on_c, 0, 77, 84
7, 99779, Note_on_c, 0, 77, 0
7, 99780, Note_on_c, 0, 76, 84
7, 99831, Note_on_c, 0, 76, 0
7, 99840, Note_on_c, 0, 74, 84
7, 99959, Note_on_c, 0, 74, 0
7, 100020, Note_on_c, 0, 79, 84
7, 100071, Note_on_c, 0, 79, 0
7, 100080, Note_on_c, 0, 81, 84
7, 100139, Note_on_c, 0, 81, 0
7, 100140, Note_on_c, 0, 79, 84
7, 100199, Note_on_c, 0, 79, 0
7, 100200, Note_on_c, 0, 77, 84
7, 100259, Note_on_c, 0, 77, 0
7, 100260, Note_on_c, 0, 76, 84
7, 100311, Note_on_c, 0, 76, 0
7, 100320, Note_on_c, 0, 74, 84
7, 100439, Note_on_c, 0, 74, 0
7, 100500, Note_on_c, 0, 79, 84
7, 100551, Note_on_c, 0, 79, 0
7, 100560, Note_on_c, 0, 81, 84
7, 100619, Note_on_c, 0, 81, 0
7, 100620, Note_on_c, 0, 79, 84
7, 100679, Note_on_c, 0, 79, 0
7, 100680, Note_on_c, 0, 77, 84
7, 100739, Note_on_c, 0, 77, 0
7, 100740, Note_on_c, 0, 76, 84
7, 100791, Note_on_c, 0, 76, 0
7, 100800, Note_on_c, 0, 74, 84
7, 100919, Note_on_c, 0, 74, 0
7, 100980, Note_on_c, 0, 79, 84
7, 101031, Note_on_c, 0, 79, 0
7, 101040, Note_on_c, 0, 81, 84
7, 101099, Note_on_c, 0, 81, 0
7, 101100, Note_on_c, 0, 79, 84
7, 101159, Note_on_c, 0, 79, 0
7, 101160, Note_on_c, 0, 77, 84
7, 101219, Note_on_c, 0, 77, 0
7, 101220, Note_on_c, 0, 76, 84
7, 101271, Note_on_c, 0, 76, 0
7, 101280, Note_on_c, 0, 74, 84
7, 101399, Note_on_c, 0, 74, 0
7, 101460, Note_on_c, 0, 79, 84
7, 101511, Note_on_c, 0, 79, 0
7, 101520, Note_on_c, 0, 81, 84
7, 101579, Note_on_c, 0, 81, 0
7, 101580, Note_on_c, 0, 79, 84
7, 101639, Note_on_c, 0, 79, 0
7, 101640, Note_on_c, 0, 77, 84
7, 101699, Note_on_c, 0, 77, 0
7, 101700, Note_on_c, 0, 76, 84
7, 101751, Note_on_c, 0, 76, 0
7, 101760, Note_on_c, 0, 74, 84
7, 101879, Note_on_c, 0, 74, 0
7, 104280, Note_on_c, 0, 84, 92
7, 104399, Note_on_c, 0, 84, 0
7, 104400, Note_on_c, 0, 83, 84
7, 104504, Note_on_c, 0, 83, 0
7, 104520, Note_on_c, 0, 81, 84
7, 104609, Note_on_c, 0, 81, 0
7, 104640, Note_on_c, 0, 79, 84
7, 104729, Note_on_c, 0, 79, 0
7, 104760, Note_on_c, 0, 84, 92
7, 104879, Note_on_c, 0, 84, 0
7, 104880, Note_on_c, 0, 83, 84
7, 104984, Note_on_c, 0, 83, 0
7, 105000, Note_on_c, 0, 81, 84
7, 105089, Note_on_c, 0, 81, 0
7, 105120, Note_on_c, 0, 79, 84
7, 105209, Note_on_c, 0, 79, 0
7, 105240, Note_on_c, 0, 77, 84
7, 105329, Note_on_c, 0, 77, 0
7, 105360, Note_on_c, 0, 76, 84
7, 105449, Note_on_c, 0, 76, 0
7, 105480, Note_on_c, 0, 74, 84
7, 105569, Note_on_c, 0, 74, 0
7, 105600, Note_on_c, 0, 72, 84
7, 105839, Note_on_c, 0, 72, 0
7, 107520, Note_on_c, 0, 86, 84
7, 107520, Note_on_c, 0, 83, 84
7, 109424, Note_on_c, 0, 86, 0
7, 109424, Note_on_c, 0, 83, 0
7, 109440, Note_on_c, 0, 83, 84
7, 109440, Note_on_c, 0, 86, 84
7, 109679, Note_on_c, 0, 83, 0
7, 109679, Note_on_c, 0, 86, 0
7, 111360, Note_on_c, 0, 88, 84
7, 111360, Note_on_c, 0, 84, 84
7, 113264, Note_on_c, 0, 88, 0
7, 113264, Note_on_c, 0, 84, 0
7, 113280, Note_on_c, 0, 88, 84
7, 113280, Note_on_c, 0, 84, 84
7, 113519, Note_on_c, 0, 88, 0
7, 113519, Note_on_c, 0, 84, 0
7, 114240, Note_on_c, 0, 88, 84
7, 114240, Note_on_c, 0, 84, 84
7, 114479, Note_on_c, 0, 88, 0
7, 114479, Note_on_c, 0, 84, 0
7, 115200, Note_on_c, 0, 90, 84
7, 115200, Note_on_c, 0, 84, 84
7, 115439, Note_on_c, 0, 90, 0
7, 115439, Note_on_c, 0, 84, 0
7, 116160, Note_on_c, 0, 90, 84
7, 116160, Note_on_c, 0, 84, 84
7, 116399, Note_on_c, 0, 90, 0
7, 116399, Note_on_c, 0, 84, 0
7, 117120, Note_on_c, 0, 91, 84
7, 117120, Note_on_c, 0, 86, 84
7, 117359, Note_on_c, 0, 91, 0
7, 117359, Note_on_c, 0, 86, 0
7, 117600, Note_on_c, 0, 91, 84
7, 117600, Note_on_c, 0, 86, 84
7, 117839, Note_on_c, 0, 91, 0
7, 117839, Note_on_c, 0, 86, 0
7, 118080, Note_on_c, 0, 86, 84
7, 118080, Note_on_c, 0, 90, 84
7, 118319, Note_on_c, 0, 86, 0
7, 118319, Note_on_c, 0, 90, 0
7, 118560, Note_on_c, 0, 90, 84
7, 118560, Note_on_c, 0, 86, 84
7, 118799, Note_on_c, 0, 90, 0
7, 118799, Note_on_c, 0, 86, 0
7, 119040, Note_on_c, 0, 86, 84
7, 119040, Note_on_c, 0, 91, 84
7, 119279, Note_on_c, 0, 86, 0
7, 119279, Note_on_c, 0, 91, 0
7, 119520, Note_on_c, 0, 86, 84
7, 119520, Note_on_c, 0, 91, 84
7, 119759, Note_on_c, 0, 86, 0
7, 119759, Note_on_c, 0, 91, 0
7, 120000, Note_on_c, 0, 86, 84
7, 121544, Note_on_c, 0, 86, 0
7, 121560, Note_on_c, 0, 86, 84
7, 121560, Note_on_c, 0, 78, 84
7, 121679, Note_on_c, 0, 86, 0
7, 121679, Note_on_c, 0, 78, 0
7, 121680, Note_on_c, 0, 79, 84
7, 121680, Note_on_c, 0, 85, 84
7, 121784, Note_on_c, 0, 79, 0
7, 121784, Note_on_c, 0, 85, 0
7, 121800, Note_on_c, 0, 79, 84
7, 121800, Note_on_c, 0, 85, 84
7, 121889, Note_on_c, 0, 79, 0
7, 121889, Note_on_c, 0, 85, 0
7, 121920, Note_on_c, 0, 86, 84
7, 121920, Note_on_c, 0, 78, 84
7, 122024, Note_on_c, 0, 86, 0
7, 122039, Note_on_c, 0, 78, 0
7, 122040, Note_on_c, 0, 86, 84
7, 122159, Note_on_c, 0, 86, 0
7, 122160, Note_on_c, 0, 85, 84
7, 122264, Note_on_c, 0, 85, 0
7, 122280, Note_on_c, 0, 91, 84
7, 122369, Note_on_c, 0, 91, 0
7, 122400, Note_on_c, 0, 90, 84
7, 122519, Note_on_c, 0, 90, 0
7, 123840, Note_on_c, 0, 86, 84
7, 123840, Note_on_c, 0, 83, 84
7, 124019, Note_on_c, 0, 86, 0
7, 124019, Note_on_c, 0, 83, 0
7, 124320, Note_on_c, 0, 88, 84
7, 124320, Note_on_c, 0, 84, 84
7, 124499, Note_on_c, 0, 88, 0
7, 124499, Note_on_c, 0, 84, 0
7, 124800, Note_on_c, 0, 83, 84
7, 124800, Note_on_c, 0, 86, 84
7, 125519, Note_on_c, 0, 83, 0
7, 125519, Note_on_c, 0, 86, 0
7, 127440, Note_on_c, 0, 81, 76
7, 127440, Note_on_c, 0, 78, 76
7, 127507, Note_on_c, 0, 81, 0
7, 127507, Note_on_c, 0, 78, 0
7, 127520, Note_on_c, 0, 79, 76
7, 127520, Note_on_c, 0, 83, 76
7, 127587, Note_on_c, 0, 79, 0
7, 127587, Note_on_c, 0, 83, 0
7, 127600, Note_on_c, 0, 84, 76
7, 127600, Note_on_c, 0, 81, 76
7, 127667, Note_on_c, 0, 84, 0
7, 127667, Note_on_c, 0, 81, 0
7, 127680, Note_on_c, 0, 86, 76
7, 127680, Note_on_c, 0, 83, 76
7, 127904, Note_on_c, 0, 86, 0
7, 127904, Note_on_c, 0, 83, 0
7, 127920, Note_on_c, 0, 79, 76
7, 127920, Note_on_c, 0, 83, 76
7, 127987, Note_on_c, 0, 79, 0
7, 127987, Note_on_c, 0, 83, 0
7, 128000, Note_on_c, 0, 84, 76
7, 128000, Note_on_c, 0, 81, 76
7, 128067, Note_on_c, 0, 84, 0
7, 128067, Note_on_c, 0, 81, 0
7, 128080, Note_on_c, 0, 83, 76
7, 128080, Note_on_c, 0, 86, 76
7, 128147, Note_on_c, 0, 83, 0
7, 128147, Note_on_c, 0, 86, 0
7, 128160, Note_on_c, 0, 84, 76
7, 128160, Note_on_c, 0, 88, 76
7, 128384, Note_on_c, 0, 84, 0
7, 128384, Note_on_c, 0, 88, 0
7, 128400, Note_on_c, 0, 88, 76
7, 128400, Note_on_c, 0, 84, 76
7, 128467, Note_on_c, 0, 88, 0
7, 128467, Note_on_c, 0, 84, 0
7, 128480, Note_on_c, 0, 90, 76
7, 128480, Note_on_c, 0, 86, 76
7, 128547, Note_on_c, 0, 90, 0
7, 128547, Note_on_c, 0, 86, 0
7, 128560, Note_on_c, 0, 91, 76
7, 128560, Note_on_c, 0, 88, 76
7, 128627, Note_on_c, 0, 91, 0
7, 128627, Note_on_c, 0, 88, 0
7, 128640, Note_on_c, 0, 83, 76
7, 128640, Note_on_c, 0, 86, 76
7, 129359, Note_on_c, 0, 83, 0
7, 129359, Note_on_c, 0, 86, 0
7, 136320, Note_on_c, 0, 88, 84
7, 136320, Note_on_c, 0, 84, 84
7, 136799, Note_on_c, 0, 88, 0
7, 136799, Note_on_c, 0, 84, 0
7, 136800, Note_on_c, 0, 88, 84
7, 136800, Note_on_c, 0, 84, 84
7, 136904, Note_on_c, 0, 88, 0
7, 136904, Note_on_c, 0, 84, 0
7, 136920, Note_on_c, 0, 84, 84
7, 136920, Note_on_c, 0, 88, 84
7, 137024, Note_on_c, 0, 84, 0
7, 137024, Note_on_c, 0, 88, 0
7, 137040, Note_on_c, 0, 84, 84
7, 137040, Note_on_c, 0, 88, 84
7, 137144, Note_on_c, 0, 84, 0
7, 137144, Note_on_c, 0, 88, 0
7, 137160, Note_on_c, 0, 84, 84
7, 137160, Note_on_c, 0, 88, 84
7, 137264, Note_on_c, 0, 84, 0
7, 137264, Note_on_c, 0, 88, 0
7, 137280, Note_on_c, 0, 88, 84
7, 137280, Note_on_c, 0, 84, 84
7, 137384, Note_on_c, 0, 88, 0
7, 137384, Note_on_c, 0, 84, 0
7, 137400, Note_on_c, 0, 88, 84
7, 137400, Note_on_c, 0, 84, 84
7, 137504, Note_on_c, 0, 88, 0
7, 137504, Note_on_c, 0, 84, 0
7, 137520, Note_on_c, 0, 88, 84
7, 137520, Note_on_c, 0, 84, 84
7, 137624, Note_on_c, 0, 88, 0
7, 137624, Note_on_c, 0, 84, 0
7, 137640, Note_on_c, 0, 84, 84
7, 137640, Note_on_c, 0, 88, 84
7, 137744, Note_on_c, 0, 84, 0
7, 137744, Note_on_c, 0, 88, 0
7, 137760, Note_on_c, 0, 88, 84
7, 137760, Note_on_c, 0, 84, 84
7, 137864, Note_on_c, 0, 88, 0
7, 137864, Note_on_c, 0, 84, 0
7, 137880, Note_on_c, 0, 84, 84
7, 137880, Note_on_c, 0, 88, 84
7, 137984, Note_on_c, 0, 84, 0
7, 137984, Note_on_c, 0, 88, 0
7, 138000, Note_on_c, 0, 84, 84
7, 138000, Note_on_c, 0, 88, 84
7, 138104, Note_on_c, 0, 84, 0
7, 138104, Note_on_c, 0, 88, 0
7, 138120, Note_on_c, 0, 88, 84
7, 138120, Note_on_c, 0, 84, 84
7, 138224, Note_on_c, 0, 88, 0
7, 138224, Note_on_c, 0, 84, 0
7, 138240, Note_on_c, 0, 88, 84
7, 138240, Note_on_c, 0, 84, 84
7, 138464, Note_on_c, 0, 88, 0
7, 138464, Note_on_c, 0, 84, 0
7, 138480, Note_on_c, 0, 73, 84
7, 138480, Note_on_c, 0, 85, 84
7, 138704, Note_on_c, 0, 73, 0
7, 138704, Note_on_c, 0, 85, 0
7, 138720, Note_on_c, 0, 86, 84
7, 138720, Note_on_c, 0, 74, 84
7, 138944, Note_on_c, 0, 86, 0
7, 138944, Note_on_c, 0, 74, 0
7, 138960, Note_on_c, 0, 87, 84
7, 138960, Note_on_c, 0, 75, 84
7, 139184, Note_on_c, 0, 87, 0
7, 139184, Note_on_c, 0, 75, 0
7, 139200, Note_on_c, 0, 76, 84
7, 139200, Note_on_c, 0, 88, 84
7, 139424, Note_on_c, 0, 76, 0
7, 139424, Note_on_c, 0, 88, 0
7, 139440, Note_on_c, 0, 78, 84
7, 139440, Note_on_c, 0, 90, 84
7, 139664, Note_on_c, 0, 78, 0
7, 139664, Note_on_c, 0, 90, 0
7, 139680, Note_on_c, 0, 91, 84
7, 139680, Note_on_c, 0, 79, 84
7, 139731, Note_on_c, 0, 91, 0
7, 139731, Note_on_c, 0, 79, 0
7, 139740, Note_on_c, 0, 90, 84
7, 139740, Note_on_c, 0, 78, 84
7, 139791, Note_on_c, 0, 90, 0
7, 139791, Note_on_c, 0, 78, 0
7, 139800, Note_on_c, 0, 88, 84
7, 139800, Note_on_c, 0, 76, 84
7, 139851, Note_on_c, 0, 88, 0
7, 139851, Note_on_c, 0, 76, 0
7, 139860, Note_on_c, 0, 74, 84
7, 139860, Note_on_c, 0, 86, 84
7, 139911, Note_on_c, 0, 74, 0
7, 139911, Note_on_c, 0, 86, 0
7, 139920, Note_on_c, 0, 84, 84
7, 139920, Note_on_c, 0, 72, 84
7, 139971, Note_on_c, 0, 84, 0
7, 139971, Note_on_c, 0, 72, 0
7, 139980, Note_on_c, 0, 83, 84
7, 139980, Note_on_c, 0, 71, 84
7, 140031, Note_on_c, 0, 83, 0
7, 140031, Note_on_c, 0, 71, 0
7, 140040, Note_on_c, 0, 69, 84
7, 140040, Note_on_c, 0, 81, 84
7, 140091, Note_on_c, 0, 69, 0
7, 140091, Note_on_c, 0, 81, 0
7, 140100, Note_on_c, 0, 79, 84
7, 140100, Note_on_c, 0, 67, 84
7, 140151, Note_on_c, 0, 79, 0
7, 140151, Note_on_c, 0, 67, 0
7, 140160, Note_on_c, 0, 84, 84
7, 140160, Note_on_c, 0, 81, 84
7, 140339, Note_on_c, 0, 84, 0
7, 140339, Note_on_c, 0, 81, 0
7, 141120, Note_on_c, 0, 78, 84
7, 141120, Note_on_c, 0, 81, 84
7, 141299, Note_on_c, 0, 78, 0
7, 141299, Note_on_c, 0, 81, 0
7, 149760, Note_on_c, 0, 79, 76
7, 150464, Note_on_c, 0, 79, 0
7, 150480, Note_on_c, 0, 78, 76
7, 150704, Note_on_c, 0, 78, 0
7, 150720, Note_on_c, 0, 76, 76
7, 150944, Note_on_c, 0, 76, 0
7, 150960, Note_on_c, 0, 74, 76
7, 151184, Note_on_c, 0, 74, 0
7, 151200, Note_on_c, 0, 74, 76
7, 151424, Note_on_c, 0, 74, 0
7, 151440, Note_on_c, 0, 74, 76
7, 151664, Note_on_c, 0, 74, 0
7, 151680, Note_on_c, 0, 79, 84
7, 151800, Control_c, 0, 11, 112
7, 152384, Note_on_c, 0, 79, 0
7, 152400, Note_on_c, 0, 78, 84
7, 152624, Note_on_c, 0, 78, 0
7, 152640, Note_on_c, 0, 76, 84
7, 152864, Note_on_c, 0, 76, 0
7, 152880, Note_on_c, 0, 74, 84
7, 153104, Note_on_c, 0, 74, 0
7, 153120, Note_on_c, 0, 74, 84
7, 153344, Note_on_c, 0, 74, 0
7, 153360, Note_on_c, 0, 74, 84
7, 153584, Note_on_c, 0, 74, 0
7, 153598, Control_c, 0, 11, 127
7, 153600, Note_on_c, 0, 81, 84
7, 153600, Note_on_c, 0, 84, 84
7, 153720, Control_c, 0, 11, 112
7, 154304, Note_on_c, 0, 81, 0
7, 154304, Note_on_c, 0, 84, 0
7, 154320, Note_on_c, 0, 83, 84
7, 154320, Note_on_c, 0, 79, 84
7, 154544, Note_on_c, 0, 83, 0
7, 154544, Note_on_c, 0, 79, 0
7, 154558, Control_c, 0, 11, 127
7, 154560, Note_on_c, 0, 81, 76
7, 154560, Note_on_c, 0, 76, 76
7, 154784, Note_on_c, 0, 81, 0
7, 154784, Note_on_c, 0, 76, 0
7, 154800, Note_on_c, 0, 77, 80
7, 154800, Note_on_c, 0, 80, 80
7, 155024, Note_on_c, 0, 77, 0
7, 155024, Note_on_c, 0, 80, 0
7, 155040, Note_on_c, 0, 80, 80
7, 155040, Note_on_c, 0, 77, 80
7, 155264, Note_on_c, 0, 80, 0
7, 155264, Note_on_c, 0, 77, 0
7, 155280, Note_on_c, 0, 80, 80
7, 155280, Note_on_c, 0, 77, 80
7, 155504, Note_on_c, 0, 80, 0
7, 155504, Note_on_c, 0, 77, 0
7, 155520, Note_on_c, 0, 80, 80
7, 155520, Note_on_c, 0, 77, 80
7, 155744, Note_on_c, 0, 80, 0
7, 155744, Note_on_c, 0, 77, 0
7, 155760, Note_on_c, 0, 77, 80
7, 155760, Note_on_c, 0, 80, 80
7, 155984, Note_on_c, 0, 77, 0
7, 155984, Note_on_c, 0, 80, 0
7, 156000, Note_on_c, 0, 77, 80
7, 156000, Note_on_c, 0, 80, 80
7, 156224, Note_on_c, 0, 77, 0
7, 156224, Note_on_c, 0, 80, 0
7, 156240, Note_on_c, 0, 77, 80
7, 156240, Note_on_c, 0, 80, 80
7, 156464, Note_on_c, 0, 77, 0
7, 156464, Note_on_c, 0, 80, 0
7, 156480, Note_on_c, 0, 80, 80
7, 156480, Note_on_c, 0, 77, 80
7, 156704, Note_on_c, 0, 80, 0
7, 156704, Note_on_c, 0, 77, 0
7, 156720, Note_on_c, 0, 80, 80
7, 156720, Note_on_c, 0, 84, 80
7, 156944, Note_on_c, 0, 80, 0
7, 156944, Note_on_c, 0, 84, 0
7, 156960, Note_on_c, 0, 84, 80
7, 156960, Note_on_c, 0, 80, 80
7, 157184, Note_on_c, 0, 84, 0
7, 157184, Note_on_c, 0, 80, 0
7, 157200, Note_on_c, 0, 80, 80
7, 157200, Note_on_c, 0, 84, 80
7, 157424, Note_on_c, 0, 80, 0
7, 157424, Note_on_c, 0, 84, 0
7, 157440, Note_on_c, 0, 89, 84
7, 157440, Note_on_c, 0, 80, 84
7, 159344, Note_on_c, 0, 89, 0
7, 159344, Note_on_c, 0, 80, 0
7, 159360, Note_on_c, 0, 89, 84
7, 159360, Note_on_c, 0, 86, 84
7, 160064, Note_on_c, 0, 89, 0
7, 160064, Note_on_c, 0, 86, 0
7, 160080, Note_on_c, 0, 89, 84
7, 160080, Note_on_c, 0, 86, 84
7, 160184, Note_on_c, 0, 89, 0
7, 160184, Note_on_c, 0, 86, 0
7, 160200, Note_on_c, 0, 89, 84
7, 160200, Note_on_c, 0, 86, 84
7, 160304, Note_on_c, 0, 89, 0
7, 160304, Note_on_c, 0, 86, 0
7, 160320, Note_on_c, 0, 86, 84
7, 160320, Note_on_c, 0, 89, 84
7, 161024, Note_on_c, 0, 86, 0
7, 161024, Note_on_c, 0, 89, 0
7, 161040, Note_on_c, 0, 89, 84
7, 161040, Note_on_c, 0, 86, 84
7, 161144, Note_on_c, 0, 89, 0
7, 161144, Note_on_c, 0, 86, 0
7, 161160, Note_on_c, 0, 86, 84
7, 161160, Note_on_c, 0, 89, 84
7, 161264, Note_on_c, 0, 86, 0
7, 161264, Note_on_c, 0, 89, 0
7, 161280, Note_on_c, 0, 86, 84
7, 161280, Note_on_c, 0, 89, 84
7, 161504, Note_on_c, 0, 86, 0
7, 161504, Note_on_c, 0, 89, 0
7, 161520, Note_on_c, 0, 86, 84
7, 161520, Note_on_c, 0, 89, 84
7, 161624, Note_on_c, 0, 86, 0
7, 161624, Note_on_c, 0, 89, 0
7, 161640, Note_on_c, 0, 89, 84
7, 161640, Note_on_c, 0, 86, 84
7, 161744, Note_on_c, 0, 89, 0
7, 161744, Note_on_c, 0, 86, 0
7, 161760, Note_on_c, 0, 86, 84
7, 161760, Note_on_c, 0, 89, 84
7, 161984, Note_on_c, 0, 86, 0
7, 161984, Note_on_c, 0, 89, 0
7, 162000, Note_on_c, 0, 89, 84
7, 162000, Note_on_c, 0, 86, 84
7, 162104, Note_on_c, 0, 89, 0
7, 162104, Note_on_c, 0, 86, 0
7, 162120, Note_on_c, 0, 89, 84
7, 162120, Note_on_c, 0, 86, 84
7, 162224, Note_on_c, 0, 89, 0
7, 162224, Note_on_c, 0, 86, 0
7, 162240, Note_on_c, 0, 83, 84
7, 162344, Note_on_c, 0, 83, 0
7, 162360, Note_on_c, 0, 79, 84
7, 162464, Note_on_c, 0, 79, 0
7, 162480, Note_on_c, 0, 86, 84
7, 162584, Note_on_c, 0, 86, 0
7, 162600, Note_on_c, 0, 83, 84
7, 162704, Note_on_c, 0, 83, 0
7, 162720, Note_on_c, 0, 89, 84
7, 162720, Note_on_c, 0, 77, 84
7, 162824, Note_on_c, 0, 89, 0
7, 162824, Note_on_c, 0, 77, 0
7, 162840, Note_on_c, 0, 74, 84
7, 162840, Note_on_c, 0, 86, 84
7, 162944, Note_on_c, 0, 74, 0
7, 162944, Note_on_c, 0, 86, 0
7, 162960, Note_on_c, 0, 86, 84
7, 162960, Note_on_c, 0, 83, 84
7, 163064, Note_on_c, 0, 86, 0
7, 163064, Note_on_c, 0, 83, 0
7, 163080, Note_on_c, 0, 83, 84
7, 163080, Note_on_c, 0, 86, 84
7, 163184, Note_on_c, 0, 83, 0
7, 163184, Note_on_c, 0, 86, 0
7, 163200, Note_on_c, 0, 86, 84
7, 163200, Note_on_c, 0, 88, 84
7, 166064, Note_on_c, 0, 86, 0
7, 166064, Note_on_c, 0, 88, 0
7, 166080, Note_on_c, 0, 80, 84
7, 166184, Note_on_c, 0, 80, 0
7, 166200, Note_on_c, 0, 76, 84
7, 166304, Note_on_c, 0, 76, 0
7, 166320, Note_on_c, 0, 83, 84
7, 166424, Note_on_c, 0, 83, 0
7, 166440, Note_on_c, 0, 80, 84
7, 166544, Note_on_c, 0, 80, 0
7, 166560, Note_on_c, 0, 74, 84
7, 166560, Note_on_c, 0, 86, 84
7, 166664, Note_on_c, 0, 74, 0
7, 166664, Note_on_c, 0, 86, 0
7, 166680, Note_on_c, 0, 83, 84
7, 166680, Note_on_c, 0, 71, 84
7, 166784, Note_on_c, 0, 83, 0
7, 166784, Note_on_c, 0, 71, 0
7, 166800, Note_on_c, 0, 83, 84
7, 166800, Note_on_c, 0, 86, 84
7, 166904, Note_on_c, 0, 83, 0
7, 166904, Note_on_c, 0, 86, 0
7, 166920, Note_on_c, 0, 83, 84
7, 166920, Note_on_c, 0, 86, 84
7, 167024, Note_on_c, 0, 83, 0
7, 167024, Note_on_c, 0, 86, 0
7, 167040, Note_on_c, 0, 81, 84
7, 167040, Note_on_c, 0, 85, 84
7, 167279, Note_on_c, 0, 81, 0
7, 167279, Note_on_c, 0, 85, 0
7, 167520, Note_on_c, 0, 90, 84
7, 167520, Note_on_c, 0, 86, 84
7, 167759, Note_on_c, 0, 90, 0
7, 167759, Note_on_c, 0, 86, 0
7, 168000, Note_on_c, 0, 88, 84
7, 168000, Note_on_c, 0, 85, 84
7, 168719, Note_on_c, 0, 88, 0
7, 168719, Note_on_c, 0, 85, 0
7, 174000, Note_on_c, 0, 79, 52
7, 174079, Note_on_c, 0, 79, 0
7, 174080, Note_on_c, 0, 81, 52
7, 174159, Note_on_c, 0, 81, 0
7, 174160, Note_on_c, 0, 83, 52
7, 174227, Note_on_c, 0, 83, 0
7, 174240, Note_on_c, 0, 84, 52
7, 174419, Note_on_c, 0, 84, 0
7, 175920, Note_on_c, 0, 79, 48
7, 175999, Note_on_c, 0, 79, 0
7, 176000, Note_on_c, 0, 81, 48
7, 176079, Note_on_c, 0, 81, 0
7, 176080, Note_on_c, 0, 83, 48
7, 176147, Note_on_c, 0, 83, 0
7, 176160, Note_on_c, 0, 84, 48
7, 176399, Note_on_c, 0, 84, 0
7, 176400, Note_on_c, 0, 82, 48
7, 176639, Note_on_c, 0, 82, 0
7, 176640, Note_on_c, 0, 81, 48
7, 176879, Note_on_c, 0, 81, 0
7, 176880, Note_on_c, 0, 79, 48
7, 177119, Note_on_c, 0, 79, 0
7, 177120, Note_on_c, 0, 77, 48
7, 177359, Note_on_c, 0, 77, 0
7, 177360, Note_on_c, 0, 78, 48
7, 177599, Note_on_c, 0, 78, 0
7, 177600, Note_on_c, 0, 79, 48
7, 177839, Note_on_c, 0, 79, 0
7, 177840, Note_on_c, 0, 81, 48
7, 178079, Note_on_c, 0, 81, 0
7, 178080, Note_on_c, 0, 82, 48
7, 178304, Note_on_c, 0, 82, 0
7, 178318, Control_c, 0, 11, 80
7, 178320, Note_on_c, 0, 80, 76
7, 178320, Note_on_c, 0, 83, 76
7, 178559, Note_on_c, 0, 80, 0
7, 178559, Note_on_c, 0, 83, 0
7, 178560, Note_on_c, 0, 79, 76
7, 178560, Note_on_c, 0, 84, 76
7, 178799, Note_on_c, 0, 79, 0
7, 178799, Note_on_c, 0, 84, 0
7, 178800, Note_on_c, 0, 86, 76
7, 178800, Note_on_c, 0, 83, 76
7, 179039, Note_on_c, 0, 86, 0
7, 179039, Note_on_c, 0, 83, 0
7, 179040, Note_on_c, 0, 84, 76
7, 179040, Note_on_c, 0, 87, 76
7, 179279, Note_on_c, 0, 84, 0
7, 179279, Note_on_c, 0, 87, 0
7, 179280, Note_on_c, 0, 84, 76
7, 179280, Note_on_c, 0, 88, 76
7, 179519, Note_on_c, 0, 88, 0
7, 179520, Note_on_c, 0, 89, 76
7, 179744, Note_on_c, 0, 84, 0
7, 179744, Note_on_c, 0, 89, 0
7, 179760, Note_on_c, 0, 81, 76
7, 179839, Note_on_c, 0, 81, 0
7, 179840, Note_on_c, 0, 83, 76
7, 179919, Note_on_c, 0, 83, 0
7, 179920, Note_on_c, 0, 85, 76
7, 179987, Note_on_c, 0, 85, 0
7, 180000, Note_on_c, 0, 86, 76
7, 180239, Note_on_c, 0, 86, 0
7, 180240, Note_on_c, 0, 84, 76
7, 180479, Note_on_c, 0, 84, 0
7, 180480, Note_on_c, 0, 82, 76
7, 180719, Note_on_c, 0, 82, 0
7, 180720, Note_on_c, 0, 81, 76
7, 180959, Note_on_c, 0, 81, 0
7, 180960, Note_on_c, 0, 79, 76
7, 181199, Note_on_c, 0, 79, 0
7, 181200, Note_on_c, 0, 80, 76
7, 181439, Note_on_c, 0, 80, 0
7, 181440, Note_on_c, 0, 81, 76
7, 181679, Note_on_c, 0, 81, 0
7, 181680, Note_on_c, 0, 83, 76
7, 181919, Note_on_c, 0, 83, 0
7, 181920, Note_on_c, 0, 84, 76
7, 182144, Note_on_c, 0, 84, 0
7, 182160, Control_c, 0, 11, 80
7, 182160, Note_on_c, 0, 85, 76
7, 182160, Note_on_c, 0, 82, 76
7, 182213, Control_c, 0, 11, 83
7, 182267, Control_c, 0, 11, 85
7, 182320, Control_c, 0, 11, 88
7, 182373, Control_c, 0, 11, 90
7, 182399, Note_on_c, 0, 85, 0
7, 182400, Note_on_c, 0, 86, 76
7, 182427, Control_c, 0, 11, 93
7, 182480, Control_c, 0, 11, 96
7, 182533, Control_c, 0, 11, 98
7, 182587, Control_c, 0, 11, 101
7, 182624, Note_on_c, 0, 82, 0
7, 182639, Note_on_c, 0, 86, 0
7, 182640, Note_on_c, 0, 87, 76
7, 182640, Note_on_c, 0, 84, 76
7, 182640, Control_c, 0, 11, 104
7, 182693, Control_c, 0, 11, 106
7, 182747, Control_c, 0, 11, 109
7, 182800, Control_c, 0, 11, 111
7, 182853, Control_c, 0, 11, 114
7, 182879, Note_on_c, 0, 87, 0
7, 182879, Note_on_c, 0, 84, 0
7, 182880, Note_on_c, 0, 89, 76
7, 182880, Note_on_c, 0, 86, 76
7, 182907, Control_c, 0, 11, 117
7, 182960, Control_c, 0, 11, 119
7, 183013, Control_c, 0, 11, 122
7, 183067, Control_c, 0, 11, 127
7, 183104, Note_on_c, 0, 89, 0
7, 183104, Note_on_c, 0, 86, 0
7, 183120, Note_on_c, 0, 77, 76
7, 183120, Note_on_c, 0, 89, 76
7, 185984, Note_on_c, 0, 77, 0
7, 185984, Note_on_c, 0, 89, 0
7, 186000, Note_on_c, 0, 89, 76
7, 186000, Note_on_c, 0, 77, 76
7, 188879, Note_on_c, 0, 89, 0
7, 188879, Note_on_c, 0, 77, 0
7, 190080, Note_on_c, 0, 80, 76
7, 190080, Note_on_c, 0, 75, 76
7, 191759, Note_on_c, 0, 80, 0
7, 191759, Note_on_c, 0, 75, 0
7, 192960, Note_on_c, 0, 80, 76
7, 192960, Note_on_c, 0, 77, 76
7, 194624, Note_on_c, 0, 80, 0
7, 194624, Note_on_c, 0, 77, 0
7, 194640, Note_on_c, 0, 84, 76
7, 194719, Note_on_c, 0, 84, 0
7, 194720, Note_on_c, 0, 82, 76
7, 194799, Note_on_c, 0, 82, 0
7, 194800, Note_on_c, 0, 80, 76
7, 194879, Note_on_c, 0, 80, 0
7, 194880, Note_on_c, 0, 79, 76
7, 195119, Note_on_c, 0, 79, 0
7, 195120, Note_on_c, 0, 82, 76
7, 195199, Note_on_c, 0, 82, 0
7, 195200, Note_on_c, 0, 80, 76
7, 195279, Note_on_c, 0, 80, 0
7, 195280, Note_on_c, 0, 79, 76
7, 195359, Note_on_c, 0, 79, 0
7, 195360, Note_on_c, 0, 77, 76
7, 195599, Note_on_c, 0, 77, 0
7, 195600, Note_on_c, 0, 80, 76
7, 195679, Note_on_c, 0, 80, 0
7, 195680, Note_on_c, 0, 79, 76
7, 195759, Note_on_c, 0, 79, 0
7, 195760, Note_on_c, 0, 77, 76
7, 195827, Note_on_c, 0, 77, 0
7, 195840, Note_on_c, 0, 76, 76
7, 196019, Note_on_c, 0, 76, 0
7, 196080, Note_on_c, 0, 88, 76
7, 196159, Note_on_c, 0, 88, 0
7, 196160, Note_on_c, 0, 89, 76
7, 196239, Note_on_c, 0, 89, 0
7, 196240, Note_on_c, 0, 91, 76
7, 196307, Note_on_c, 0, 91, 0
7, 196320, Note_on_c, 0, 84, 76
7, 196499, Note_on_c, 0, 84, 0
7, 198480, Note_on_c, 0, 76, 80
7, 198547, Note_on_c, 0, 76, 0
7, 198560, Note_on_c, 0, 77, 80
7, 198627, Note_on_c, 0, 77, 0
7, 198640, Note_on_c, 0, 79, 80
7, 198707, Note_on_c, 0, 79, 0
7, 198720, Note_on_c, 0, 80, 80
7, 198959, Note_on_c, 0, 80, 0
7, 199440, Note_on_c, 0, 77, 80
7, 199507, Note_on_c, 0, 77, 0
7, 199520, Note_on_c, 0, 79, 80
7, 199587, Note_on_c, 0, 79, 0
7, 199600, Note_on_c, 0, 80, 80
7, 199667, Note_on_c, 0, 80, 0
7, 199680, Note_on_c, 0, 82, 80
7, 199919, Note_on_c, 0, 82, 0
7, 200400, Note_on_c, 0, 79, 80
7, 200467, Note_on_c, 0, 79, 0
7, 200480, Note_on_c, 0, 80, 80
7, 200547, Note_on_c, 0, 80, 0
7, 200560, Note_on_c, 0, 82, 80
7, 200627, Note_on_c, 0, 82, 0
7, 200640, Note_on_c, 0, 84, 80
7, 200879, Note_on_c, 0, 84, 0
7, 201360, Note_on_c, 0, 80, 80
7, 201427, Note_on_c, 0, 80, 0
7, 201440, Note_on_c, 0, 82, 80
7, 201507, Note_on_c, 0, 82, 0
7, 201520, Note_on_c, 0, 84, 80
7, 201587, Note_on_c, 0, 84, 0
7, 201600, Note_on_c, 0, 86, 80
7, 201839, Note_on_c, 0, 86, 0
7, 202320, Note_on_c, 0, 83, 80
7, 202387, Note_on_c, 0, 83, 0
7, 202400, Note_on_c, 0, 84, 80
7, 202467, Note_on_c, 0, 84, 0
7, 202480, Note_on_c, 0, 86, 80
7, 202547, Note_on_c, 0, 86, 0
7, 202560, Note_on_c, 0, 87, 80
7, 202799, Note_on_c, 0, 87, 0
7, 203280, Note_on_c, 0, 84, 80
7, 203347, Note_on_c, 0, 84, 0
7, 203360, Note_on_c, 0, 86, 80
7, 203427, Note_on_c, 0, 86, 0
7, 203440, Note_on_c, 0, 87, 80
7, 203507, Note_on_c, 0, 87, 0
7, 203520, Note_on_c, 0, 89, 80
7, 203759, Note_on_c, 0, 89, 0
7, 204240, Note_on_c, 0, 86, 80
7, 204307, Note_on_c, 0, 86, 0
7, 204320, Note_on_c, 0, 87, 80
7, 204387, Note_on_c, 0, 87, 0
7, 204400, Note_on_c, 0, 89, 80
7, 204467, Note_on_c, 0, 89, 0
7, 204480, Note_on_c, 0, 91, 80
7, 204719, Note_on_c, 0, 91, 0
7, 205200, Note_on_c, 0, 87, 80
7, 205267, Note_on_c, 0, 87, 0
7, 205280, Note_on_c, 0, 89, 80
7, 205347, Note_on_c, 0, 89, 0
7, 205360, Note_on_c, 0, 91, 80
7, 205439, Note_on_c, 0, 91, 0
7, 205680, Note_on_c, 0, 86, 80
7, 205747, Note_on_c, 0, 86, 0
7, 205760, Note_on_c, 0, 88, 80
7, 205827, Note_on_c, 0, 88, 0
7, 205840, Note_on_c, 0, 90, 80
7, 205919, Note_on_c, 0, 90, 0
7, 206160, Note_on_c, 0, 86, 80
7, 206227, Note_on_c, 0, 86, 0
7, 206240, Note_on_c, 0, 88, 80
7, 206307, Note_on_c, 0, 88, 0
7, 206320, Note_on_c, 0, 90, 80
7, 206399, Note_on_c, 0, 90, 0
7, 206640, Note_on_c, 0, 86, 80
7, 206707, Note_on_c, 0, 86, 0
7, 206720, Note_on_c, 0, 88, 80
7, 206787, Note_on_c, 0, 88, 0
7, 206800, Note_on_c, 0, 90, 80
7, 206879, Note_on_c, 0, 90, 0
7, 207120, Note_on_c, 0, 86, 80
7, 207187, Note_on_c, 0, 86, 0
7, 207200, Note_on_c, 0, 88, 80
7, 207267, Note_on_c, 0, 88, 0
7, 207280, Note_on_c, 0, 90, 80
7, 207347, Note_on_c, 0, 90, 0
7, 207360, Note_on_c, 0, 91, 84
7, 207360, Note_on_c, 0, 79, 84
7, 208064, Note_on_c, 0, 91, 0
7, 208064, Note_on_c, 0, 79, 0
7, 208080, Note_on_c, 0, 72, 84
7, 208080, Note_on_c, 0, 84, 84
7, 208304, Note_on_c, 0, 72, 0
7, 208304, Note_on_c, 0, 84, 0
7, 208320, Note_on_c, 0, 71, 84
7, 208320, Note_on_c, 0, 83, 84
7, 208784, Note_on_c, 0, 71, 0
7, 208784, Note_on_c, 0, 83, 0
7, 208800, Note_on_c, 0, 84, 84
7, 208800, Note_on_c, 0, 72, 84
7, 209264, Note_on_c, 0, 84, 0
7, 209264, Note_on_c, 0, 72, 0
7, 209280, Note_on_c, 0, 74, 84
7, 209280, Note_on_c, 0, 86, 84
7, 209984, Note_on_c, 0, 74, 0
7, 209984, Note_on_c, 0, 86, 0
7, 210000, Note_on_c, 0, 83, 84
7, 210000, Note_on_c, 0, 86, 84
7, 210224, Note_on_c, 0, 83, 0
7, 210224, Note_on_c, 0, 86, 0
7, 210240, Note_on_c, 0, 81, 84
7, 210240, Note_on_c, 0, 84, 84
7, 210704, Note_on_c, 0, 81, 0
7, 210704, Note_on_c, 0, 84, 0
7, 210720, Note_on_c, 0, 83, 84
7, 210720, Note_on_c, 0, 86, 84
7, 211184, Note_on_c, 0, 83, 0
7, 211184, Note_on_c, 0, 86, 0
7, 211200, Note_on_c, 0, 84, 84
7, 211200, Note_on_c, 0, 88, 84
7, 211904, Note_on_c, 0, 84, 0
7, 211904, Note_on_c, 0, 88, 0
7, 211920, Note_on_c, 0, 84, 84
7, 211920, Note_on_c, 0, 88, 84
7, 212144, Note_on_c, 0, 84, 0
7, 212144, Note_on_c, 0, 88, 0
7, 212160, Note_on_c, 0, 86, 84
7, 212160, Note_on_c, 0, 83, 84
7, 212624, Note_on_c, 0, 86, 0
7, 212624, Note_on_c, 0, 83, 0
7, 212640, Note_on_c, 0, 84, 84
7, 212640, Note_on_c, 0, 88, 84
7, 213104, Note_on_c, 0, 84, 0
7, 213104, Note_on_c, 0, 88, 0
7, 213120, Note_on_c, 0, 86, 84
7, 213120, Note_on_c, 0, 89, 84
7, 213824, Note_on_c, 0, 86, 0
7, 213824, Note_on_c, 0, 89, 0
7, 213840, Note_on_c, 0, 89, 84
7, 213840, Note_on_c, 0, 86, 84
7, 214064, Note_on_c, 0, 89, 0
7, 214064, Note_on_c, 0, 86, 0
7, 214080, Note_on_c, 0, 84, 84
7, 214080, Note_on_c, 0, 88, 84
7, 214544, Note_on_c, 0, 84, 0
7, 214544, Note_on_c, 0, 88, 0
7, 214560, Note_on_c, 0, 86, 84
7, 214560, Note_on_c, 0, 89, 84
7, 215024, Note_on_c, 0, 86, 0
7, 215024, Note_on_c, 0, 89, 0
7, 215040, Note_on_c, 0, 88, 92
7, 215040, Note_on_c, 0, 91, 92
7, 215160, Control_c, 0, 11, 112
7, 215984, Note_on_c, 0, 88, 0
7, 215984, Note_on_c, 0, 91, 0
7, 215998, Control_c, 0, 11, 127
7, 216000, Note_on_c, 0, 89, 92
7, 216000, Note_on_c, 0, 92, 92
7, 216120, Control_c, 0, 11, 112
7, 216944, Note_on_c, 0, 89, 0
7, 216944, Note_on_c, 0, 92, 0
7, 216958, Control_c, 0, 11, 127
7, 216960, Note_on_c, 0, 93, 84
7, 216960, Note_on_c, 0, 90, 84
7, 218864, Note_on_c, 0, 93, 0
7, 218864, Note_on_c, 0, 90, 0
7, 218880, Note_on_c, 0, 91, 84
7, 218880, Note_on_c, 0, 86, 84
7, 219824, Note_on_c, 0, 91, 0
7, 219824, Note_on_c, 0, 86, 0
7, 219840, Note_on_c, 0, 91, 84
7, 219840, Note_on_c, 0, 86, 84
7, 220784, Note_on_c, 0, 91, 0
7, 220784, Note_on_c, 0, 86, 0
7, 220800, Note_on_c, 0, 86, 84
7, 220800, Note_on_c, 0, 91, 84
7, 221024, Note_on_c, 0, 86, 0
7, 221024, Note_on_c, 0, 91, 0
7, 221040, Note_on_c, 0, 86, 84
7, 221040, Note_on_c, 0, 91, 84
7, 221144, Note_on_c, 0, 86, 0
7, 221144, Note_on_c, 0, 91, 0
7, 221160, Note_on_c, 0, 86, 84
7, 221160, Note_on_c, 0, 91, 84
7, 221264, Note_on_c, 0, 86, 0
7, 221264, Note_on_c, 0, 91, 0
7, 221280, Note_on_c, 0, 91, 84
7, 221280, Note_on_c, 0, 86, 84
7, 221504, Note_on_c, 0, 91, 0
7, 221504, Note_on_c, 0, 86, 0
7, 221520, Note_on_c, 0, 91, 84
7, 221520, Note_on_c, 0, 86, 84
7, 221624, Note_on_c, 0, 91, 0
7, 221624, Note_on_c, 0, 86, 0
7, 221640, Note_on_c, 0, 91, 84
7, 221640, Note_on_c, 0, 86, 84
7, 221744, Note_on_c, 0, 91, 0
7, 221744, Note_on_c, 0, 86, 0
7, 221760, Note_on_c, 0, 91, 84
7, 221760, Note_on_c, 0, 86, 84
7, 221984, Note_on_c, 0, 91, 0
7, 221984, Note_on_c, 0, 86, 0
7, 222000, Note_on_c, 0, 91, 84
7, 222000, Note_on_c, 0, 86, 84
7, 222104, Note_on_c, 0, 91, 0
7, 222104, Note_on_c, 0, 86, 0
7, 222120, Note_on_c, 0, 86, 84
7, 222120, Note_on_c, 0, 91, 84
7, 222224, Note_on_c, 0, 86, 0
7, 222224, Note_on_c, 0, 91, 0
7, 222240, Note_on_c, 0, 86, 84
7, 222240, Note_on_c, 0, 91, 84
7, 222464, Note_on_c, 0, 86, 0
7, 222464, Note_on_c, 0, 91, 0
7, 222480, Note_on_c, 0, 86, 84
7, 222480, Note_on_c, 0, 91, 84
7, 222584, Note_on_c, 0, 86, 0
7, 222584, Note_on_c, 0, 91, 0
7, 222600, Note_on_c, 0, 91, 84
7, 222600, Note_on_c, 0, 86, 84
7, 222704, Note_on_c, 0, 91, 0
7, 222704, Note_on_c, 0, 86, 0
7, 222720, Note_on_c, 0, 91, 84
7, 222720, Note_on_c, 0, 86, 84
7, 222944, Note_on_c, 0, 91, 0
7, 222944, Note_on_c, 0, 86, 0
7, 222960, Note_on_c, 0, 86, 84
7, 222960, Note_on_c, 0, 91, 84
7, 223064, Note_on_c, 0, 86, 0
7, 223064, Note_on_c, 0, 91, 0
7, 223080, Note_on_c, 0, 91, 84
7, 223080, Note_on_c, 0, 86, 84
7, 223184, Note_on_c, 0, 91, 0
7, 223184, Note_on_c, 0, 86, 0
7, 223200, Note_on_c, 0, 86, 84
7, 223200, Note_on_c, 0, 91, 84
7, 223424, Note_on_c, 0, 86, 0
7, 223424, Note_on_c, 0, 91, 0
7, 223440, Note_on_c, 0, 91, 84
7, 223440, Note_on_c, 0, 86, 84
7, 223544, Note_on_c, 0, 91, 0
7, 223544, Note_on_c, 0, 86, 0
7, 223560, Note_on_c, 0, 86, 84
7, 223560, Note_on_c, 0, 91, 84
7, 223664, Note_on_c, 0, 86, 0
7, 223664, Note_on_c, 0, 91, 0
7, 223680, Note_on_c, 0, 86, 84
7, 223680, Note_on_c, 0, 91, 84
7, 223904, Note_on_c, 0, 86, 0
7, 223904, Note_on_c, 0, 91, 0
7, 223920, Note_on_c, 0, 86, 84
7, 223920, Note_on_c, 0, 91, 84
7, 224024, Note_on_c, 0, 86, 0
7, 224024, Note_on_c, 0, 91, 0
7, 224040, Note_on_c, 0, 91, 84
7, 224040, Note_on_c, 0, 86, 84
7, 224144, Note_on_c, 0, 91, 0
7, 224144, Note_on_c, 0, 86, 0
7, 224160, Note_on_c, 0, 86, 84
7, 224160, Note_on_c, 0, 91, 84
7, 224384, Note_on_c, 0, 86, 0
7, 224384, Note_on_c, 0, 91, 0
7, 224400, Note_on_c, 0, 86, 84
7, 224400, Note_on_c, 0, 91, 84
7, 224504, Note_on_c, 0, 86, 0
7, 224504, Note_on_c, 0, 91, 0
7, 224520, Note_on_c, 0, 86, 84
7, 224520, Note_on_c, 0, 91, 84
7, 224624, Note_on_c, 0, 86, 0
7, 224624, Note_on_c, 0, 91, 0
7, 224640, Note_on_c, 0, 86, 84
7, 224640, Note_on_c, 0, 91, 84
7, 227504, Note_on_c, 0, 86, 0
7, 227504, Note_on_c, 0, 91, 0
7, 227520, Note_on_c, 0, 91, 84
7, 227520, Note_on_c, 0, 86, 84
7, 227759, Note_on_c, 0, 91, 0
7, 227759, Note_on_c, 0, 86, 0
7, 255600, Note_on_c, 0, 89, 48
7, 257039, Note_on_c, 0, 89, 0
7, 257040, Note_on_c, 0, 86, 48
7, 258479, Note_on_c, 0, 86, 0
7, 258480, Note_on_c, 0, 83, 48
7, 259919, Note_on_c, 0, 83, 0
7, 259920, Note_on_c, 0, 86, 48
7, 261359, Note_on_c, 0, 86, 0
7, 261360, Note_on_c, 0, 89, 48
7, 262799, Note_on_c, 0, 89, 0
7, 262800, Note_on_c, 0, 86, 48
7, 263499, Note_on_c, 0, 86, 0
7, 263518, Control_c, 0, 11, 64
7, 263520, Note_on_c, 0, 83, 84
7, 264239, Note_on_c, 0, 83, 0
7, 264240, Note_on_c, 0, 86, 84
7, 264959, Note_on_c, 0, 86, 0
7, 264960, Note_on_c, 0, 89, 84
7, 264960, Control_c, 0, 11, 64
7, 265020, Control_c, 0, 11, 67
7, 265080, Control_c, 0, 11, 69
7, 265140, Control_c, 0, 11, 72
7, 265200, Control_c, 0, 11, 75
7, 265260, Control_c, 0, 11, 77
7, 265320, Control_c, 0, 11, 80
7, 265380, Control_c, 0, 11, 82
7, 265440, Control_c, 0, 11, 85
7, 265500, Control_c, 0, 11, 88
7, 265560, Control_c, 0, 11, 90
7, 265620, Control_c, 0, 11, 93
7, 265679, Note_on_c, 0, 89, 0
7, 265680, Control_c, 0, 11, 96
7, 265680, Note_on_c, 0, 83, 84
7, 265740, Control_c, 0, 11, 98
7, 265800, Control_c, 0, 11, 101
7, 265860, Control_c, 0, 11, 103
7, 265920, Control_c, 0, 11, 106
7, 265980, Control_c, 0, 11, 109
7, 266040, Control_c, 0, 11, 111
7, 266100, Control_c, 0, 11, 114
7, 266160, Control_c, 0, 11, 117
7, 266220, Control_c, 0, 11, 119
7, 266280, Control_c, 0, 11, 122
7, 266340, Control_c, 0, 11, 127
7, 266379, Note_on_c, 0, 83, 0
7, 266400, Note_on_c, 0, 84, 84
7, 266579, Note_on_c, 0, 84, 0
7, 266880, Note_on_c, 0, 84, 84
7, 266880, Note_on_c, 0, 88, 84
7, 267059, Note_on_c, 0, 84, 0
7, 267059, Note_on_c, 0, 88, 0
7, 267360, Note_on_c, 0, 91, 84
7, 267360, Note_on_c, 0, 88, 84
7, 268064, Note_on_c, 0, 91, 0
7, 268064, Note_on_c, 0, 88, 0
7, 268080, Note_on_c, 0, 89, 84
7, 268080, Note_on_c, 0, 86, 84
7, 268199, Note_on_c, 0, 89, 0
7, 268199, Note_on_c, 0, 86, 0
7, 268320, Note_on_c, 0, 84, 84
7, 268320, Note_on_c, 0, 88, 84
7, 268439, Note_on_c, 0, 84, 0
7, 268439, Note_on_c, 0, 88, 0
7, 268560, Note_on_c, 0, 83, 84
7, 268560, Note_on_c, 0, 86, 84
7, 268679, Note_on_c, 0, 83, 0
7, 268679, Note_on_c, 0, 86, 0
7, 268800, Note_on_c, 0, 84, 84
7, 268919, Note_on_c, 0, 84, 0
7, 269040, Note_on_c, 0, 83, 84
7, 269040, Note_on_c, 0, 86, 84
7, 269159, Note_on_c, 0, 83, 0
7, 269159, Note_on_c, 0, 86, 0
7, 269280, Note_on_c, 0, 84, 84
7, 269280, Note_on_c, 0, 76, 84
7, 269984, Note_on_c, 0, 84, 0
7, 269984, Note_on_c, 0, 76, 0
7, 270000, Note_on_c, 0, 76, 84
7, 270000, Note_on_c, 0, 84, 84
7, 270171, Note_on_c, 0, 76, 0
7, 270171, Note_on_c, 0, 84, 0
7, 270180, Note_on_c, 0, 76, 84
7, 270180, Note_on_c, 0, 84, 84
7, 270231, Note_on_c, 0, 76, 0
7, 270231, Note_on_c, 0, 84, 0
7, 270240, Note_on_c, 0, 86, 84
7, 270240, Note_on_c, 0, 83, 84
7, 270944, Note_on_c, 0, 86, 0
7, 270944, Note_on_c, 0, 83, 0
7, 270960, Note_on_c, 0, 86, 84
7, 270960, Note_on_c, 0, 83, 84
7, 271131, Note_on_c, 0, 86, 0
7, 271131, Note_on_c, 0, 83, 0
7, 271140, Note_on_c, 0, 86, 84
7, 271140, Note_on_c, 0, 83, 84
7, 271191, Note_on_c, 0, 86, 0
7, 271191, Note_on_c, 0, 83, 0
7, 271200, Note_on_c, 0, 84, 84
7, 271200, Note_on_c, 0, 88, 84
7, 271784, Note_on_c, 0, 84, 0
7, 271784, Note_on_c, 0, 88, 0
7, 271800, Note_on_c, 0, 72, 84
7, 271904, Note_on_c, 0, 72, 0
7, 271920, Note_on_c, 0, 74, 84
7, 272024, Note_on_c, 0, 74, 0
7, 272040, Note_on_c, 0, 76, 84
7, 272144, Note_on_c, 0, 76, 0
7, 272160, Note_on_c, 0, 77, 84
7, 272249, Note_on_c, 0, 77, 0
7, 272280, Note_on_c, 0, 76, 84
7, 272369, Note_on_c, 0, 76, 0
7, 272400, Note_on_c, 0, 77, 84
7, 272489, Note_on_c, 0, 77, 0
7, 272520, Note_on_c, 0, 79, 84
7, 272609, Note_on_c, 0, 79, 0
7, 272640, Note_on_c, 0, 81, 84
7, 272729, Note_on_c, 0, 81, 0
7, 272760, Note_on_c, 0, 79, 84
7, 272849, Note_on_c, 0, 79, 0
7, 272880, Note_on_c, 0, 81, 84
7, 272969, Note_on_c, 0, 81, 0
7, 273000, Note_on_c, 0, 83, 84
7, 273089, Note_on_c, 0, 83, 0
7, 273120, Note_on_c, 0, 84, 84
7, 273704, Note_on_c, 0, 84, 0
7, 273720, Note_on_c, 0, 72, 84
7, 273809, Note_on_c, 0, 72, 0
7, 273840, Note_on_c, 0, 74, 84
7, 273929, Note_on_c, 0, 74, 0
7, 273960, Note_on_c, 0, 76, 84
7, 274049, Note_on_c, 0, 76, 0
7, 274080, Note_on_c, 0, 77, 84
7, 274169, Note_on_c, 0, 77, 0
7, 274200, Note_on_c, 0, 76, 84
7, 274289, Note_on_c, 0, 76, 0
7, 274320, Note_on_c, 0, 77, 84
7, 274409, Note_on_c, 0, 77, 0
7, 274440, Note_on_c, 0, 79, 84
7, 274529, Note_on_c, 0, 79, 0
7, 274560, Note_on_c, 0, 81, 84
7, 274649, Note_on_c, 0, 81, 0
7, 274680, Note_on_c, 0, 79, 84
7, 274769, Note_on_c, 0, 79, 0
7, 274800, Note_on_c, 0, 81, 84
7, 274889, Note_on_c, 0, 81, 0
7, 274920, Note_on_c, 0, 83, 84
7, 275009, Note_on_c, 0, 83, 0
7, 275040, Note_on_c, 0, 84, 84
7, 275624, Note_on_c, 0, 84, 0
7, 275640, Note_on_c, 0, 72, 84
7, 275729, Note_on_c, 0, 72, 0
7, 275760, Note_on_c, 0, 74, 84
7, 275849, Note_on_c, 0, 74, 0
7, 275880, Note_on_c, 0, 76, 84
7, 275947, Note_on_c, 0, 76, 0
7, 275960, Note_on_c, 0, 79, 84
7, 275999, Note_on_c, 0, 79, 0
7, 276000, Note_on_c, 0, 77, 84
7, 276089, Note_on_c, 0, 77, 0
7, 276120, Note_on_c, 0, 76, 84
7, 276209, Note_on_c, 0, 76, 0
7, 276240, Note_on_c, 0, 77, 84
7, 276329, Note_on_c, 0, 77, 0
7, 276360, Note_on_c, 0, 79, 84
7, 276427, Note_on_c, 0, 79, 0
7, 276440, Note_on_c, 0, 83, 84
7, 276479, Note_on_c, 0, 83, 0
7, 276480, Note_on_c, 0, 81, 84
7, 276569, Note_on_c, 0, 81, 0
7, 276600, Note_on_c, 0, 79, 84
7, 276689, Note_on_c, 0, 79, 0
7, 276720, Note_on_c, 0, 81, 84
7, 276809, Note_on_c, 0, 81, 0
7, 276840, Note_on_c, 0, 83, 84
7, 276907, Note_on_c, 0, 83, 0
7, 276920, Note_on_c, 0, 86, 84
7, 276959, Note_on_c, 0, 86, 0
7, 276960, Note_on_c, 0, 84, 84
7, 277049, Note_on_c, 0, 84, 0
7, 277080, Note_on_c, 0, 83, 84
7, 277169, Note_on_c, 0, 83, 0
7, 277200, Note_on_c, 0, 84, 84
7, 277289, Note_on_c, 0, 84, 0
7, 277320, Note_on_c, 0, 86, 84
7, 277409, Note_on_c, 0, 86, 0
7, 277440, Note_on_c, 0, 88, 84
7, 277664, Note_on_c, 0, 88, 0
7, 277680, Note_on_c, 0, 79, 84
7, 277799, Note_on_c, 0, 79, 0
7, 277860, Note_on_c, 0, 88, 84
7, 277911, Note_on_c, 0, 88, 0
7, 277920, Note_on_c, 0, 88, 84
7, 278039, Note_on_c, 0, 88, 0
7, 278040, Note_on_c, 0, 86, 84
7, 278144, Note_on_c, 0, 86, 0
7, 278160, Note_on_c, 0, 77, 84
7, 278279, Note_on_c, 0, 77, 0
7, 278340, Note_on_c, 0, 86, 84
7, 278391, Note_on_c, 0, 86, 0
7, 278400, Note_on_c, 0, 86, 84
7, 278519, Note_on_c, 0, 86, 0
7, 278520, Note_on_c, 0, 84, 84
7, 278624, Note_on_c, 0, 84, 0
7, 278640, Note_on_c, 0, 76, 84
7, 278759, Note_on_c, 0, 76, 0
7, 278820, Note_on_c, 0, 84, 84
7, 278871, Note_on_c, 0, 84, 0
7, 278880, Note_on_c, 0, 84, 84
7, 278999, Note_on_c, 0, 84, 0
7, 279000, Note_on_c, 0, 83, 84
7, 279104, Note_on_c, 0, 83, 0
7, 279120, Note_on_c, 0, 83, 84
7, 279584, Note_on_c, 0, 83, 0
7, 279600, Note_on_c, 0, 84, 84
7, 279719, Note_on_c, 0, 84, 0
7, 279780, Note_on_c, 0, 88, 84
7, 279831, Note_on_c, 0, 88, 0
7, 279840, Note_on_c, 0, 88, 84
7, 279959, Note_on_c, 0, 88, 0
7, 279960, Note_on_c, 0, 86, 84
7, 280064, Note_on_c, 0, 86, 0
7, 280080, Note_on_c, 0, 77, 84
7, 280199, Note_on_c, 0, 77, 0
7, 280260, Note_on_c, 0, 86, 84
7, 280311, Note_on_c, 0, 86, 0
7, 280320, Note_on_c, 0, 86, 84
7, 280439, Note_on_c, 0, 86, 0
7, 280440, Note_on_c, 0, 84, 84
7, 280544, Note_on_c, 0, 84, 0
7, 280560, Note_on_c, 0, 76, 84
7, 280679, Note_on_c, 0, 76, 0
7, 280740, Note_on_c, 0, 84, 84
7, 280791, Note_on_c, 0, 84, 0
7, 280800, Note_on_c, 0, 84, 84
7, 280919, Note_on_c, 0, 84, 0
7, 280920, Note_on_c, 0, 83, 84
7, 281024, Note_on_c, 0, 83, 0
7, 281040, Note_on_c, 0, 83, 84
7, 281504, Note_on_c, 0, 83, 0
7, 281520, Note_on_c, 0, 84, 84
7, 281609, Note_on_c, 0, 84, 0
7, 281700, Note_on_c, 0, 88, 84
7, 281744, Note_on_c, 0, 88, 0
7, 281760, Note_on_c, 0, 88, 84
7, 281849, Note_on_c, 0, 88, 0
7, 281940, Note_on_c, 0, 86, 84
7, 281984, Note_on_c, 0, 86, 0
7, 282000, Note_on_c, 0, 77, 84
7, 282089, Note_on_c, 0, 77, 0
7, 282180, Note_on_c, 0, 86, 84
7, 282224, Note_on_c, 0, 86, 0
7, 282240, Note_on_c, 0, 86, 84
7, 282329, Note_on_c, 0, 86, 0
7, 282420, Note_on_c, 0, 84, 84
7, 282464, Note_on_c, 0, 84, 0
7, 282480, Note_on_c, 0, 76, 84
7, 282569, Note_on_c, 0, 76, 0
7, 282660, Note_on_c, 0, 84, 84
7, 282704, Note_on_c, 0, 84, 0
7, 282720, Note_on_c, 0, 83, 84
7, 282809, Note_on_c, 0, 83, 0
7, 282900, Note_on_c, 0, 74, 84
7, 282951, Note_on_c, 0, 74, 0
7, 282960, Note_on_c, 0, 79, 84
7, 283424, Note_on_c, 0, 79, 0
7, 283440, Note_on_c, 0, 81, 84
7, 283499, Note_on_c, 0, 81, 0
7, 283500, Note_on_c, 0, 79, 84
7, 283559, Note_on_c, 0, 79, 0
7, 283560, Note_on_c, 0, 77, 84
7, 283619, Note_on_c, 0, 77, 0
7, 283620, Note_on_c, 0, 76, 84
7, 283671, Note_on_c, 0, 76, 0
7, 283680, Note_on_c, 0, 74, 84
7, 283799, Note_on_c, 0, 74, 0
7, 283860, Note_on_c, 0, 74, 84
7, 283911, Note_on_c, 0, 74, 0
7, 283920, Note_on_c, 0, 79, 84
7, 284384, Note_on_c, 0, 79, 0
7, 284400, Note_on_c, 0, 81, 84
7, 284459, Note_on_c, 0, 81, 0
7, 284460, Note_on_c, 0, 79, 84
7, 284519, Note_on_c, 0, 79, 0
7, 284520, Note_on_c, 0, 77, 84
7, 284579, Note_on_c, 0, 77, 0
7, 284580, Note_on_c, 0, 76, 84
7, 284631, Note_on_c, 0, 76, 0
7, 284640, Note_on_c, 0, 74, 84
7, 284759, Note_on_c, 0, 74, 0
7, 284820, Note_on_c, 0, 79, 84
7, 284871, Note_on_c, 0, 79, 0
7, 284880, Note_on_c, 0, 81, 84
7, 284939, Note_on_c, 0, 81, 0
7, 284940, Note_on_c, 0, 79, 84
7, 284999, Note_on_c, 0, 79, 0
7, 285000, Note_on_c, 0, 77, 84
7, 285059, Note_on_c, 0, 77, 0
7, 285060, Note_on_c, 0, 76, 84
7, 285111, Note_on_c, 0, 76, 0
7, 285120, Note_on_c, 0, 74, 84
7, 285239, Note_on_c, 0, 74, 0
7, 285300, Note_on_c, 0, 79, 84
7, 285351, Note_on_c, 0, 79, 0
7, 285360, Note_on_c, 0, 81, 84
7, 285419, Note_on_c, 0, 81, 0
7, 285420, Note_on_c, 0, 79, 84
7, 285479, Note_on_c, 0, 79, 0
7, 285480, Note_on_c, 0, 77, 84
7, 285539, Note_on_c, 0, 77, 0
7, 285540, Note_on_c, 0, 76, 84
7, 285591, Note_on_c, 0, 76, 0
7, 285600, Note_on_c, 0, 74, 84
7, 285719, Note_on_c, 0, 74, 0
7, 285780, Note_on_c, 0, 79, 84
7, 285831, Note_on_c, 0, 79, 0
7, 285840, Note_on_c, 0, 81, 84
7, 285899, Note_on_c, 0, 81, 0
7, 285900, Note_on_c, 0, 79, 84
7, 285959, Note_on_c, 0, 79, 0
7, 285960, Note_on_c, 0, 77, 84
7, 286019, Note_on_c, 0, 77, 0
7, 286020, Note_on_c, 0, 76, 84
7, 286071, Note_on_c, 0, 76, 0
7, 286080, Note_on_c, 0, 74, 84
7, 286199, Note_on_c, 0, 74, 0
7, 286260, Note_on_c, 0, 79, 84
7, 286311, Note_on_c, 0, 79, 0
7, 286320, Note_on_c, 0, 81, 84
7, 286379, Note_on_c, 0, 81, 0
7, 286380, Note_on_c, 0, 79, 84
7, 286439, Note_on_c, 0, 79, 0
7, 286440, Note_on_c, 0, 77, 84
7, 286499, Note_on_c, 0, 77, 0
7, 286500, Note_on_c, 0, 76, 84
7, 286551, Note_on_c, 0, 76, 0
7, 286560, Note_on_c, 0, 74, 84
7, 286679, Note_on_c, 0, 74, 0
7, 289080, Note_on_c, 0, 84, 92
7, 289199, Note_on_c, 0, 84, 0
7, 289200, Note_on_c, 0, 83, 84
7, 289304, Note_on_c, 0, 83, 0
7, 289320, Note_on_c, 0, 81, 84
7, 289409, Note_on_c, 0, 81, 0
7, 289440, Note_on_c, 0, 79, 84
7, 289529, Note_on_c, 0, 79, 0
7, 289560, Note_on_c, 0, 84, 92
7, 289679, Note_on_c, 0, 84, 0
7, 289680, Note_on_c, 0, 83, 84
7, 289784, Note_on_c, 0, 83, 0
7, 289800, Note_on_c, 0, 81, 84
7, 289889, Note_on_c, 0, 81, 0
7, 289920, Note_on_c, 0, 79, 84
7, 290009, Note_on_c, 0, 79, 0
7, 290040, Note_on_c, 0, 77, 84
7, 290129, Note_on_c, 0, 77, 0
7, 290160, Note_on_c, 0, 76, 84
7, 290249, Note_on_c, 0, 76, 0
7, 290280, Note_on_c, 0, 74, 84
7, 290369, Note_on_c, 0, 74, 0
7, 290400, Note_on_c, 0, 72, 84
7, 290639, Note_on_c, 0, 72, 0
7, 292320, Note_on_c, 0, 83, 84
7, 292320, Note_on_c, 0, 86, 84
7, 294224, Note_on_c, 0, 83, 0
7, 294224, Note_on_c, 0, 86, 0
7, 294240, Note_on_c, 0, 86, 84
7, 294240, Note_on_c, 0, 83, 84
7, 294479, Note_on_c, 0, 86, 0
7, 294479, Note_on_c, 0, 83, 0
7, 296160, Note_on_c, 0, 84, 84
7, 296160, Note_on_c, 0, 88, 84
7, 298064, Note_on_c, 0, 84, 0
7, 298064, Note_on_c, 0, 88, 0
7, 298080, Note_on_c, 0, 84, 84
7, 298080, Note_on_c, 0, 88, 84
7, 298319, Note_on_c, 0, 84, 0
7, 298319, Note_on_c, 0, 88, 0
7, 299040, Note_on_c, 0, 88, 84
7, 299040, Note_on_c, 0, 84, 84
7, 299279, Note_on_c, 0, 88, 0
7, 299279, Note_on_c, 0, 84, 0
7, 300000, Note_on_c, 0, 84, 84
7, 300000, Note_on_c, 0, 89, 84
7, 300239, Note_on_c, 0, 84, 0
7, 300239, Note_on_c, 0, 89, 0
7, 300960, Note_on_c, 0, 89, 84
7, 300960, Note_on_c, 0, 84, 84
7, 301199, Note_on_c, 0, 89, 0
7, 301199, Note_on_c, 0, 84, 0
7, 301920, Note_on_c, 0, 83, 84
7, 303344, Note_on_c, 0, 83, 0
7, 303360, Note_on_c, 0, 83, 84
7, 303599, Note_on_c, 0, 83, 0
7, 303600, Note_on_c, 0, 84, 84
7, 303779, Note_on_c, 0, 84, 0
7, 303780, Note_on_c, 0, 86, 84
7, 303831, Note_on_c, 0, 86, 0
7, 303840, Note_on_c, 0, 84, 84
7, 305264, Note_on_c, 0, 84, 0
7, 305280, Note_on_c, 0, 84, 84
7, 305519, Note_on_c, 0, 84, 0
7, 305520, Note_on_c, 0, 86, 84
7, 305699, Note_on_c, 0, 86, 0
7, 305700, Note_on_c, 0, 88, 84
7, 305751, Note_on_c, 0, 88, 0
7, 305760, Note_on_c, 0, 86, 84
7, 306224, Note_on_c, 0, 86, 0
7, 306240, Note_on_c, 0, 83, 84
7, 306599, Note_on_c, 0, 83, 0
7, 306600, Note_on_c, 0, 84, 84
7, 306659, Note_on_c, 0, 84, 0
7, 306660, Note_on_c, 0, 86, 84
7, 306711, Note_on_c, 0, 86, 0
7, 306720, Note_on_c, 0, 84, 84
7, 307184, Note_on_c, 0, 84, 0
7, 307200, Note_on_c, 0, 84, 84
7, 307559, Note_on_c, 0, 84, 0
7, 307560, Note_on_c, 0, 86, 84
7, 307619, Note_on_c, 0, 86, 0
7, 307620, Note_on_c, 0, 88, 84
7, 307671, Note_on_c, 0, 88, 0
7, 307680, Note_on_c, 0, 86, 84
7, 307784, Note_on_c, 0, 86, 0
7, 307800, Note_on_c, 0, 91, 84
7, 308264, Note_on_c, 0, 91, 0
7, 308280, Note_on_c, 0, 91, 84
7, 308400, Note_on_c, 0, 89, 84
7, 308504, Note_on_c, 0, 89, 0
7, 308520, Note_on_c, 0, 88, 84
7, 308609, Note_on_c, 0, 88, 0
7, 308640, Note_on_c, 0, 86, 84
7, 308729, Note_on_c, 0, 86, 0
7, 308744, Note_on_c, 0, 91, 0
7, 308760, Note_on_c, 0, 88, 84
7, 308760, Note_on_c, 0, 91, 84
7, 308879, Note_on_c, 0, 88, 0
7, 308880, Note_on_c, 0, 86, 84
7, 308984, Note_on_c, 0, 91, 0
7, 308984, Note_on_c, 0, 86, 0
7, 309000, Note_on_c, 0, 84, 84
7, 309000, Note_on_c, 0, 91, 84
7, 309089, Note_on_c, 0, 84, 0
7, 309104, Note_on_c, 0, 91, 0
7, 309120, Note_on_c, 0, 83, 84
7, 309120, Note_on_c, 0, 91, 84
7, 309209, Note_on_c, 0, 83, 0
7, 309209, Note_on_c, 0, 91, 0
7, 309240, Note_on_c, 0, 91, 84
7, 309240, Note_on_c, 0, 83, 84
7, 309359, Note_on_c, 0, 91, 0
7, 309359, Note_on_c, 0, 83, 0
7, 309360, Note_on_c, 0, 84, 84
7, 309360, Note_on_c, 0, 90, 84
7, 309464, Note_on_c, 0, 84, 0
7, 309464, Note_on_c, 0, 90, 0
7, 309480, Note_on_c, 0, 90, 84
7, 309480, Note_on_c, 0, 84, 84
7, 309569, Note_on_c, 0, 90, 0
7, 309569, Note_on_c, 0, 84, 0
7, 309600, Note_on_c, 0, 91, 84
7, 309600, Note_on_c, 0, 83, 84
7, 309689, Note_on_c, 0, 91, 0
7, 309689, Note_on_c, 0, 83, 0
7, 309720, Note_on_c, 0, 79, 84
7, 309839, Note_on_c, 0, 79, 0
7, 309840, Note_on_c, 0, 78, 84
7, 309944, Note_on_c, 0, 78, 0
7, 309960, Note_on_c, 0, 84, 84
7, 310049, Note_on_c, 0, 84, 0
7, 310080, Note_on_c, 0, 83, 84
7, 310199, Note_on_c, 0, 83, 0
7, 315120, Note_on_c, 0, 74, 76
7, 315120, Note_on_c, 0, 71, 76
7, 315187, Note_on_c, 0, 74, 0
7, 315187, Note_on_c, 0, 71, 0
7, 315200, Note_on_c, 0, 72, 76
7, 315200, Note_on_c, 0, 76, 76
7, 315267, Note_on_c, 0, 72, 0
7, 315267, Note_on_c, 0, 76, 0
7, 315280, Note_on_c, 0, 74, 76
7, 315280, Note_on_c, 0, 77, 76
7, 315347, Note_on_c, 0, 74, 0
7, 315347, Note_on_c, 0, 77, 0
7, 315360, Note_on_c, 0, 79, 76
7, 315360, Note_on_c, 0, 76, 76
7, 315584, Note_on_c, 0, 79, 0
7, 315584, Note_on_c, 0, 76, 0
7, 315600, Note_on_c, 0, 72, 76
7, 315600, Note_on_c, 0, 76, 76
7, 315667, Note_on_c, 0, 72, 0
7, 315667, Note_on_c, 0, 76, 0
7, 315680, Note_on_c, 0, 74, 76
7, 315680, Note_on_c, 0, 77, 76
7, 315747, Note_on_c, 0, 74, 0
7, 315747, Note_on_c, 0, 77, 0
7, 315760, Note_on_c, 0, 76, 76
7, 315760, Note_on_c, 0, 79, 76
7, 315827, Note_on_c, 0, 76, 0
7, 315827, Note_on_c, 0, 79, 0
7, 315840, Note_on_c, 0, 81, 76
7, 315840, Note_on_c, 0, 77, 76
7, 316064, Note_on_c, 0, 81, 0
7, 316064, Note_on_c, 0, 77, 0
7, 316080, Note_on_c, 0, 81, 76
7, 316080, Note_on_c, 0, 77, 76
7, 316147, Note_on_c, 0, 81, 0
7, 316147, Note_on_c, 0, 77, 0
7, 316160, Note_on_c, 0, 79, 76
7, 316160, Note_on_c, 0, 83, 76
7, 316227, Note_on_c, 0, 79, 0
7, 316227, Note_on_c, 0, 83, 0
7, 316240, Note_on_c, 0, 84, 76
7, 316240, Note_on_c, 0, 81, 76
7, 316307, Note_on_c, 0, 84, 0
7, 316307, Note_on_c, 0, 81, 0
7, 316320, Note_on_c, 0, 76, 76
7, 316320, Note_on_c, 0, 79, 76
7, 317039, Note_on_c, 0, 76, 0
7, 317039, Note_on_c, 0, 79, 0
7, 321120, Control_c, 0, 11, 48
7, 321840, Note_on_c, 0, 84, 84
7, 321919, Note_on_c, 0, 84, 0
7, 321920, Note_on_c, 0, 82, 84
7, 321999, Note_on_c, 0, 82, 0
7, 322000, Note_on_c, 0, 81, 84
7, 322067, Note_on_c, 0, 81, 0
7, 322080, Note_on_c, 0, 79, 84
7, 322080, Control_c, 0, 11, 48
7, 322160, Control_c, 0, 11, 51
7, 322240, Control_c, 0, 11, 55
7, 322320, Control_c, 0, 11, 58
7, 322400, Control_c, 0, 11, 61
7, 322480, Control_c, 0, 11, 64
7, 322560, Control_c, 0, 11, 68
7, 322640, Control_c, 0, 11, 71
7, 322720, Control_c, 0, 11, 74
7, 322800, Control_c, 0, 11, 78
7, 322880, Control_c, 0, 11, 81
7, 322960, Control_c, 0, 11, 84
7, 323024, Note_on_c, 0, 79, 0
7, 323040, Note_on_c, 0, 80, 84
7, 323040, Control_c, 0, 11, 88
7, 323120, Control_c, 0, 11, 91
7, 323200, Control_c, 0, 11, 94
7, 323280, Control_c, 0, 11, 97
7, 323360, Control_c, 0, 11, 101
7, 323440, Control_c, 0, 11, 104
7, 323520, Control_c, 0, 11, 107
7, 323600, Control_c, 0, 11, 111
7, 323680, Control_c, 0, 11, 114
7, 323760, Control_c, 0, 11, 117
7, 323840, Control_c, 0, 11, 120
7, 323920, Control_c, 0, 11, 127
7, 323984, Note_on_c, 0, 80, 0
7, 324000, Note_on_c, 0, 77, 84
7, 324000, Note_on_c, 0, 81, 84
7, 324479, Note_on_c, 0, 77, 0
7, 324479, Note_on_c, 0, 81, 0
7, 324480, Note_on_c, 0, 77, 84
7, 324480, Note_on_c, 0, 81, 84
7, 324584, Note_on_c, 0, 77, 0
7, 324584, Note_on_c, 0, 81, 0
7, 324600, Note_on_c, 0, 81, 84
7, 324600, Note_on_c, 0, 77, 84
7, 324704, Note_on_c, 0, 81, 0
7, 324704, Note_on_c, 0, 77, 0
7, 324720, Note_on_c, 0, 77, 84
7, 324720, Note_on_c, 0, 81, 84
7, 324824, Note_on_c, 0, 77, 0
7, 324824, Note_on_c, 0, 81, 0
7, 324840, Note_on_c, 0, 81, 84
7, 324840, Note_on_c, 0, 77, 84
7, 324944, Note_on_c, 0, 81, 0
7, 324944, Note_on_c, 0, 77, 0
7, 324960, Note_on_c, 0, 81, 84
7, 324960, Note_on_c, 0, 77, 84
7, 325064, Note_on_c, 0, 81, 0
7, 325064, Note_on_c, 0, 77, 0
7, 325080, Note_on_c, 0, 81, 84
7, 325080, Note_on_c, 0, 77, 84
7, 325184, Note_on_c, 0, 81, 0
7, 325184, Note_on_c, 0, 77, 0
7, 325200, Note_on_c, 0, 77, 84
7, 325200, Note_on_c, 0, 81, 84
7, 325304, Note_on_c, 0, 77, 0
7, 325304, Note_on_c, 0, 81, 0
7, 325320, Note_on_c, 0, 81, 84
7, 325320, Note_on_c, 0, 77, 84
7, 325424, Note_on_c, 0, 81, 0
7, 325424, Note_on_c, 0, 77, 0
7, 325440, Note_on_c, 0, 81, 84
7, 325440, Note_on_c, 0, 77, 84
7, 325544, Note_on_c, 0, 81, 0
7, 325544, Note_on_c, 0, 77, 0
7, 325560, Note_on_c, 0, 81, 84
7, 325560, Note_on_c, 0, 89, 84
7, 325664, Note_on_c, 0, 81, 0
7, 325664, Note_on_c, 0, 89, 0
7, 325680, Note_on_c, 0, 81, 84
7, 325680, Note_on_c, 0, 89, 84
7, 325784, Note_on_c, 0, 81, 0
7, 325784, Note_on_c, 0, 89, 0
7, 325800, Note_on_c, 0, 89, 84
7, 325800, Note_on_c, 0, 81, 84
7, 325904, Note_on_c, 0, 89, 0
7, 325904, Note_on_c, 0, 81, 0
7, 325920, Note_on_c, 0, 89, 84
7, 325920, Note_on_c, 0, 81, 84
7, 326144, Note_on_c, 0, 89, 0
7, 326144, Note_on_c, 0, 81, 0
7, 326160, Note_on_c, 0, 78, 84
7, 326384, Note_on_c, 0, 78, 0
7, 326400, Note_on_c, 0, 79, 84
7, 326624, Note_on_c, 0, 79, 0
7, 326640, Note_on_c, 0, 80, 84
7, 326864, Note_on_c, 0, 80, 0
7, 326880, Note_on_c, 0, 81, 84
7, 327104, Note_on_c, 0, 81, 0
7, 327120, Note_on_c, 0, 83, 84
7, 327344, Note_on_c, 0, 83, 0
7, 327360, Note_on_c, 0, 84, 84
7, 327411, Note_on_c, 0, 84, 0
7, 327420, Note_on_c, 0, 83, 84
7, 327471, Note_on_c, 0, 83, 0
7, 327480, Note_on_c, 0, 81, 84
7, 327531, Note_on_c, 0, 81, 0
7, 327540, Note_on_c, 0, 79, 84
7, 327591, Note_on_c, 0, 79, 0
7, 327600, Note_on_c, 0, 77, 84
7, 327651, Note_on_c, 0, 77, 0
7, 327660, Note_on_c, 0, 76, 84
7, 327711, Note_on_c, 0, 76, 0
7, 327720, Note_on_c, 0, 74, 84
7, 327771, Note_on_c, 0, 74, 0
7, 327780, Note_on_c, 0, 72, 84
7, 327831, Note_on_c, 0, 72, 0
7, 327840, Note_on_c, 0, 77, 84
7, 327840, Note_on_c, 0, 86, 84
7, 328019, Note_on_c, 0, 77, 0
7, 328019, Note_on_c, 0, 86, 0
7, 328800, Note_on_c, 0, 86, 84
7, 328800, Note_on_c, 0, 83, 84
7, 328979, Note_on_c, 0, 86, 0
7, 328979, Note_on_c, 0, 83, 0
7, 334800, Note_on_c, 0, 82, 48
7, 335024, Note_on_c, 0, 82, 0
7, 335040, Note_on_c, 0, 82, 48
7, 335264, Note_on_c, 0, 82, 0
7, 335280, Note_on_c, 0, 82, 48
7, 335504, Note_on_c, 0, 82, 0
7, 335520, Note_on_c, 0, 81, 48
7, 335984, Note_on_c, 0, 81, 0
7, 336000, Note_on_c, 0, 81, 48
7, 336419, Note_on_c, 0, 81, 0
7, 336420, Note_on_c, 0, 77, 48
7, 336479, Note_on_c, 0, 77, 0
7, 336480, Note_on_c, 0, 76, 48
7, 336959, Note_on_c, 0, 76, 0
7, 336960, Note_on_c, 0, 77, 48
7, 337379, Note_on_c, 0, 77, 0
7, 337380, Note_on_c, 0, 74, 48
7, 337431, Note_on_c, 0, 74, 0
7, 337440, Note_on_c, 0, 84, 76
7, 338144, Note_on_c, 0, 84, 0
7, 338160, Note_on_c, 0, 83, 76
7, 338384, Note_on_c, 0, 83, 0
7, 338400, Note_on_c, 0, 81, 76
7, 338624, Note_on_c, 0, 81, 0
7, 338640, Note_on_c, 0, 79, 76
7, 338864, Note_on_c, 0, 79, 0
7, 338880, Note_on_c, 0, 79, 76
7, 339104, Note_on_c, 0, 79, 0
7, 339120, Note_on_c, 0, 79, 76
7, 339344, Note_on_c, 0, 79, 0
7, 339360, Note_on_c, 0, 84, 84
7, 339480, Control_c, 0, 11, 112
7, 340064, Note_on_c, 0, 84, 0
7, 340080, Note_on_c, 0, 83, 84
7, 340304, Note_on_c, 0, 83, 0
7, 340320, Note_on_c, 0, 81, 84
7, 340544, Note_on_c, 0, 81, 0
7, 340560, Note_on_c, 0, 79, 84
7, 340784, Note_on_c, 0, 79, 0
7, 340800, Note_on_c, 0, 79, 84
7, 341024, Note_on_c, 0, 79, 0
7, 341040, Note_on_c, 0, 79, 84
7, 341264, Note_on_c, 0, 79, 0
7, 341278, Control_c, 0, 11, 127
7, 341280, Note_on_c, 0, 86, 84
7, 341280, Note_on_c, 0, 89, 84
7, 341400, Control_c, 0, 11, 112
7, 341984, Note_on_c, 0, 86, 0
7, 341984, Note_on_c, 0, 89, 0
7, 342000, Note_on_c, 0, 84, 84
7, 342000, Note_on_c, 0, 88, 84
7, 342224, Note_on_c, 0, 84, 0
7, 342224, Note_on_c, 0, 88, 0
7, 342238, Control_c, 0, 11, 127
7, 342240, Note_on_c, 0, 81, 76
7, 342240, Note_on_c, 0, 86, 76
7, 342464, Note_on_c, 0, 81, 0
7, 342464, Note_on_c, 0, 86, 0
7, 342480, Note_on_c, 0, 85, 80
7, 342480, Note_on_c, 0, 82, 80
7, 342704, Note_on_c, 0, 85, 0
7, 342704, Note_on_c, 0, 82, 0
7, 342720, Note_on_c, 0, 85, 80
7, 342720, Note_on_c, 0, 82, 80
7, 342944, Note_on_c, 0, 85, 0
7, 342944, Note_on_c, 0, 82, 0
7, 342960, Note_on_c, 0, 85, 80
7, 342960, Note_on_c, 0, 82, 80
7, 343184, Note_on_c, 0, 85, 0
7, 343184, Note_on_c, 0, 82, 0
7, 343200, Note_on_c, 0, 82, 80
7, 343200, Note_on_c, 0, 85, 80
7, 343424, Note_on_c, 0, 82, 0
7, 343424, Note_on_c, 0, 85, 0
7, 343440, Note_on_c, 0, 85, 80
7, 343440, Note_on_c, 0, 88, 80
7, 343664, Note_on_c, 0, 85, 0
7, 343664, Note_on_c, 0, 88, 0
7, 343680, Note_on_c, 0, 85, 80
7, 343680, Note_on_c, 0, 88, 80
7, 343904, Note_on_c, 0, 85, 0
7, 343904, Note_on_c, 0, 88, 0
7, 343920, Note_on_c, 0, 88, 80
7, 343920, Note_on_c, 0, 85, 80
7, 344144, Note_on_c, 0, 88, 0
7, 344144, Note_on_c, 0, 85, 0
7, 344160, Note_on_c, 0, 85, 80
7, 344160, Note_on_c, 0, 88, 80
7, 344384, Note_on_c, 0, 85, 0
7, 344384, Note_on_c, 0, 88, 0
7, 344400, Note_on_c, 0, 88, 80
7, 344400, Note_on_c, 0, 91, 80
7, 344624, Note_on_c, 0, 88, 0
7, 344624, Note_on_c, 0, 91, 0
7, 344640, Note_on_c, 0, 91, 80
7, 344640, Note_on_c, 0, 88, 80
7, 344864, Note_on_c, 0, 91, 0
7, 344864, Note_on_c, 0, 88, 0
7, 344880, Note_on_c, 0, 91, 80
7, 344880, Note_on_c, 0, 88, 80
7, 345104, Note_on_c, 0, 91, 0
7, 345104, Note_on_c, 0, 88, 0
7, 345120, Note_on_c, 0, 88, 84
7, 345120, Note_on_c, 0, 91, 84
7, 346064, Note_on_c, 0, 88, 0
7, 346064, Note_on_c, 0, 91, 0
7, 346080, Note_on_c, 0, 89, 84
7, 346080, Note_on_c, 0, 86, 84
7, 347024, Note_on_c, 0, 89, 0
7, 347024, Note_on_c, 0, 86, 0
7, 347040, Note_on_c, 0, 89, 84
7, 347040, Note_on_c, 0, 86, 84
7, 347984, Note_on_c, 0, 89, 0
7, 347984, Note_on_c, 0, 86, 0
7, 348000, Note_on_c, 0, 84, 84
7, 348000, Note_on_c, 0, 87, 84
7, 349904, Note_on_c, 0, 84, 0
7, 349904, Note_on_c, 0, 87, 0
7, 349920, Note_on_c, 0, 88, 92
7, 349920, Note_on_c, 0, 84, 92
7, 350040, Control_c, 0, 11, 112
7, 350639, Note_on_c, 0, 88, 0
7, 350639, Note_on_c, 0, 84, 0
7, 354720, Control_c, 0, 11, 127
7, 354960, Note_on_c, 0, 83, 76
7, 355039, Note_on_c, 0, 83, 0
7, 355040, Note_on_c, 0, 84, 76
7, 355119, Note_on_c, 0, 84, 0
7, 355120, Note_on_c, 0, 86, 76
7, 355199, Note_on_c, 0, 86, 0
7, 355440, Note_on_c, 0, 84, 76
7, 355519, Note_on_c, 0, 84, 0
7, 355520, Note_on_c, 0, 86, 76
7, 355599, Note_on_c, 0, 86, 0
7, 355600, Note_on_c, 0, 88, 76
7, 355679, Note_on_c, 0, 88, 0
7, 355920, Note_on_c, 0, 86, 76
7, 355999, Note_on_c, 0, 86, 0
7, 356000, Note_on_c, 0, 88, 76
7, 356079, Note_on_c, 0, 88, 0
7, 356080, Note_on_c, 0, 89, 76
7, 356159, Note_on_c, 0, 89, 0
7, 356880, Note_on_c, 0, 84, 76
7, 356959, Note_on_c, 0, 84, 0
7, 356960, Note_on_c, 0, 86, 76
7, 357039, Note_on_c, 0, 86, 0
7, 357040, Note_on_c, 0, 88, 76
7, 357119, Note_on_c, 0, 88, 0
7, 357360, Note_on_c, 0, 86, 76
7, 357439, Note_on_c, 0, 86, 0
7, 357440, Note_on_c, 0, 88, 76
7, 357519, Note_on_c, 0, 88, 0
7, 357520, Note_on_c, 0, 89, 76
7, 357599, Note_on_c, 0, 89, 0
7, 357840, Note_on_c, 0, 88, 76
7, 357919, Note_on_c, 0, 88, 0
7, 357920, Note_on_c, 0, 89, 76
7, 357999, Note_on_c, 0, 89, 0
7, 358000, Note_on_c, 0, 91, 76
7, 358079, Note_on_c, 0, 91, 0
7, 358320, Note_on_c, 0, 88, 80
7, 358320, Note_on_c, 0, 84, 80
7, 358544, Note_on_c, 0, 88, 0
7, 358544, Note_on_c, 0, 84, 0
7, 358560, Note_on_c, 0, 83, 80
7, 358560, Note_on_c, 0, 86, 80
7, 359024, Note_on_c, 0, 83, 0
7, 359024, Note_on_c, 0, 86, 0
7, 359040, Note_on_c, 0, 84, 80
7, 359040, Note_on_c, 0, 88, 80
7, 359504, Note_on_c, 0, 84, 0
7, 359504, Note_on_c, 0, 88, 0
7, 359520, Note_on_c, 0, 89, 80
7, 359520, Note_on_c, 0, 83, 80
7, 360224, Note_on_c, 0, 89, 0
7, 360224, Note_on_c, 0, 83, 0
7, 360240, Note_on_c, 0, 83, 80
7, 360240, Note_on_c, 0, 89, 80
7, 360464, Note_on_c, 0, 83, 0
7, 360464, Note_on_c, 0, 89, 0
7, 360480, Note_on_c, 0, 88, 80
7, 360480, Note_on_c, 0, 82, 80
7, 360944, Note_on_c, 0, 88, 0
7, 360944, Note_on_c, 0, 82, 0
7, 360960, Note_on_c, 0, 89, 80
7, 360960, Note_on_c, 0, 82, 80
7, 361424, Note_on_c, 0, 89, 0
7, 361424, Note_on_c, 0, 82, 0
7, 361440, Note_on_c, 0, 85, 84
7, 361440, Note_on_c, 0, 91, 84
7, 362384, Note_on_c, 0, 85, 0
7, 362400, Note_on_c, 0, 84, 84
7, 363344, Note_on_c, 0, 91, 0
7, 363344, Note_on_c, 0, 84, 0
7, 363360, Note_on_c, 0, 89, 84
7, 363360, Note_on_c, 0, 93, 84
7, 363839, Note_on_c, 0, 89, 0
7, 363839, Note_on_c, 0, 93, 0
7, 363840, Note_on_c, 0, 93, 84
7, 363840, Note_on_c, 0, 89, 84
7, 363944, Note_on_c, 0, 93, 0
7, 363944, Note_on_c, 0, 89, 0
7, 363960, Note_on_c, 0, 93, 84
7, 363960, Note_on_c, 0, 89, 84
7, 364064, Note_on_c, 0, 93, 0
7, 364064, Note_on_c, 0, 89, 0
7, 364080, Note_on_c, 0, 93, 84
7, 364080, Note_on_c, 0, 89, 84
7, 364184, Note_on_c, 0, 93, 0
7, 364184, Note_on_c, 0, 89, 0
7, 364200, Note_on_c, 0, 89, 84
7, 364200, Note_on_c, 0, 93, 84
7, 364304, Note_on_c, 0, 89, 0
7, 364304, Note_on_c, 0, 93, 0
7, 364320, Note_on_c, 0, 89, 84
7, 364320, Note_on_c, 0, 93, 84
7, 364799, Note_on_c, 0, 89, 0
7, 364799, Note_on_c, 0, 93, 0
7, 364800, Note_on_c, 0, 89, 84
7, 364800, Note_on_c, 0, 93, 84
7, 364904, Note_on_c, 0, 89, 0
7, 364904, Note_on_c, 0, 93, 0
7, 364920, Note_on_c, 0, 89, 84
7, 364920, Note_on_c, 0, 93, 84
7, 365024, Note_on_c, 0, 89, 0
7, 365024, Note_on_c, 0, 93, 0
7, 365040, Note_on_c, 0, 89, 84
7, 365040, Note_on_c, 0, 93, 84
7, 365144, Note_on_c, 0, 89, 0
7, 365144, Note_on_c, 0, 93, 0
7, 365160, Note_on_c, 0, 93, 84
7, 365160, Note_on_c, 0, 89, 84
7, 365264, Note_on_c, 0, 93, 0
7, 365264, Note_on_c, 0, 89, 0
7, 365280, Note_on_c, 0, 89, 84
7, 365280, Note_on_c, 0, 93, 84
7, 365504, Note_on_c, 0, 89, 0
7, 365504, Note_on_c, 0, 93, 0
7, 365520, Note_on_c, 0, 89, 84
7, 365520, Note_on_c, 0, 93, 84
7, 365624, Note_on_c, 0, 89, 0
7, 365624, Note_on_c, 0, 93, 0
7, 365640, Note_on_c, 0, 93, 84
7, 365640, Note_on_c, 0, 89, 84
7, 365744, Note_on_c, 0, 93, 0
7, 365744, Note_on_c, 0, 89, 0
7, 365760, Note_on_c, 0, 93, 84
7, 365760, Note_on_c, 0, 89, 84
7, 365864, Note_on_c, 0, 93, 0
7, 365864, Note_on_c, 0, 89, 0
7, 365880, Note_on_c, 0, 89, 84
7, 365880, Note_on_c, 0, 93, 84
7, 365984, Note_on_c, 0, 89, 0
7, 365984, Note_on_c, 0, 93, 0
7, 366000, Note_on_c, 0, 89, 84
7, 366000, Note_on_c, 0, 93, 84
7, 366104, Note_on_c, 0, 89, 0
7, 366104, Note_on_c, 0, 93, 0
7, 366120, Note_on_c, 0, 93, 84
7, 366120, Note_on_c, 0, 89, 84
7, 366224, Note_on_c, 0, 93, 0
7, 366224, Note_on_c, 0, 89, 0
7, 366240, Note_on_c, 0, 93, 84
7, 366240, Note_on_c, 0, 89, 84
7, 366344, Note_on_c, 0, 93, 0
7, 366344, Note_on_c, 0, 89, 0
7, 366360, Note_on_c, 0, 93, 84
7, 366360, Note_on_c, 0, 89, 84
7, 366464, Note_on_c, 0, 93, 0
7, 366464, Note_on_c, 0, 89, 0
7, 366480, Note_on_c, 0, 89, 84
7, 366480, Note_on_c, 0, 93, 84
7, 366584, Note_on_c, 0, 89, 0
7, 366584, Note_on_c, 0, 93, 0
7, 366600, Note_on_c, 0, 93, 84
7, 366600, Note_on_c, 0, 89, 84
7, 366704, Note_on_c, 0, 93, 0
7, 366704, Note_on_c, 0, 89, 0
7, 366720, Note_on_c, 0, 93, 84
7, 366720, Note_on_c, 0, 89, 84
7, 366824, Note_on_c, 0, 93, 0
7, 366824, Note_on_c, 0, 89, 0
7, 366840, Note_on_c, 0, 93, 84
7, 366840, Note_on_c, 0, 89, 84
7, 366944, Note_on_c, 0, 93, 0
7, 366944, Note_on_c, 0, 89, 0
7, 366960, Note_on_c, 0, 93, 84
7, 366960, Note_on_c, 0, 89, 84
7, 367064, Note_on_c, 0, 93, 0
7, 367064, Note_on_c, 0, 89, 0
7, 367080, Note_on_c, 0, 89, 84
7, 367080, Note_on_c, 0, 93, 84
7, 367184, Note_on_c, 0, 89, 0
7, 367184, Note_on_c, 0, 93, 0
7, 367200, Note_on_c, 0, 86, 84
7, 367200, Note_on_c, 0, 91, 84
7, 367379, Note_on_c, 0, 86, 0
7, 367379, Note_on_c, 0, 91, 0
7, 368160, Note_on_c, 0, 86, 84
7, 368160, Note_on_c, 0, 91, 84
7, 368339, Note_on_c, 0, 86, 0
7, 368339, Note_on_c, 0, 91, 0
7, 369120, Note_on_c, 0, 84, 84
7, 369120, Note_on_c, 0, 88, 84
7, 369299, Note_on_c, 0, 84, 0
7, 369299, Note_on_c, 0, 88, 0
7, 370080, Note_on_c, 0, 86, 84
7, 370080, Note_on_c, 0, 91, 84
7, 370259, Note_on_c, 0, 86, 0
7, 370259, Note_on_c, 0, 91, 0
7, 371040, Note_on_c, 0, 84, 84
7, 371040, Note_on_c, 0, 88, 84
7, 371219, Note_on_c, 0, 84, 0
7, 371219, Note_on_c, 0, 88, 0
7, 372000, Note_on_c, 0, 91, 84
7, 372000, Note_on_c, 0, 86, 84
7, 372179, Note_on_c, 0, 91, 0
7, 372179, Note_on_c, 0, 86, 0
7, 376560, Note_on_c, 0, 79, 48
7, 376799, Note_on_c, 0, 79, 0
7, 376800, Note_on_c, 0, 83, 49
7, 377039, Note_on_c, 0, 83, 0
7, 377040, Note_on_c, 0, 79, 50
7, 377279, Note_on_c, 0, 79, 0
7, 377280, Note_on_c, 0, 86, 52
7, 377519, Note_on_c, 0, 86, 0
7, 377520, Note_on_c, 0, 84, 53
7, 377699, Note_on_c, 0, 84, 0
7, 377700, Note_on_c, 0, 83, 54
7, 377751, Note_on_c, 0, 83, 0
7, 377760, Note_on_c, 0, 84, 54
7, 377999, Note_on_c, 0, 84, 0
7, 378000, Note_on_c, 0, 79, 56
7, 378239, Note_on_c, 0, 79, 0
7, 378240, Note_on_c, 0, 88, 57
7, 378479, Note_on_c, 0, 88, 0
7, 378480, Note_on_c, 0, 86, 58
7, 378659, Note_on_c, 0, 86, 0
7, 378660, Note_on_c, 0, 84, 59
7, 378711, Note_on_c, 0, 84, 0
7, 378720, Note_on_c, 0, 83, 60
7, 378959, Note_on_c, 0, 83, 0
7, 378960, Note_on_c, 0, 79, 61
7, 379199, Note_on_c, 0, 79, 0
7, 379200, Note_on_c, 0, 86, 62
7, 379439, Note_on_c, 0, 86, 0
7, 379440, Note_on_c, 0, 84, 64
7, 379619, Note_on_c, 0, 84, 0
7, 379620, Note_on_c, 0, 83, 65
7, 379671, Note_on_c, 0, 83, 0
7, 379680, Note_on_c, 0, 84, 65
7, 379919, Note_on_c, 0, 84, 0
7, 379920, Note_on_c, 0, 79, 66
7, 380159, Note_on_c, 0, 79, 0
7, 380160, Note_on_c, 0, 88, 68
7, 380399, Note_on_c, 0, 88, 0
7, 380400, Note_on_c, 0, 86, 69
7, 380579, Note_on_c, 0, 86, 0
7, 380580, Note_on_c, 0, 84, 70
7, 380631, Note_on_c, 0, 84, 0
7, 380640, Note_on_c, 0, 83, 70
7, 380879, Note_on_c, 0, 83, 0
7, 380880, Note_on_c, 0, 79, 72
7, 381119, Note_on_c, 0, 79, 0
7, 381120, Note_on_c, 0, 86, 73
7, 381359, Note_on_c, 0, 86, 0
7, 381360, Note_on_c, 0, 84, 74
7, 381539, Note_on_c, 0, 84, 0
7, 381540, Note_on_c, 0, 83, 75
7, 381591, Note_on_c, 0, 83, 0
7, 381600, Note_on_c, 0, 84, 76
7, 381839, Note_on_c, 0, 84, 0
7, 381840, Note_on_c, 0, 83, 76
7, 382079, Note_on_c, 0, 83, 0
7, 382080, Note_on_c, 0, 81, 76
7, 382319, Note_on_c, 0, 81, 0
7, 382320, Note_on_c, 0, 79, 76
7, 382320, Note_on_c, 0, 91, 76
7, 382559, Note_on_c, 0, 79, 0
7, 382559, Note_on_c, 0, 91, 0
7, 382560, Note_on_c, 0, 77, 76
7, 382560, Note_on_c, 0, 89, 76
7, 382799, Note_on_c, 0, 77, 0
7, 382799, Note_on_c, 0, 89, 0
7, 382800, Note_on_c, 0, 88, 76
7, 382800, Note_on_c, 0, 76, 76
7, 383039, Note_on_c, 0, 88, 0
7, 383039, Note_on_c, 0, 76, 0
7, 383040, Note_on_c, 0, 86, 76
7, 383040, Note_on_c, 0, 74, 76
7, 383279, Note_on_c, 0, 86, 0
7, 383279, Note_on_c, 0, 74, 0
7, 383280, Note_on_c, 0, 85, 76
7, 383280, Note_on_c, 0, 73, 76
7, 383504, Note_on_c, 0, 85, 0
7, 383504, Note_on_c, 0, 73, 0
7, 383520, Note_on_c, 0, 74, 76
7, 383520, Note_on_c, 0, 86, 76
7, 383744, Note_on_c, 0, 74, 0
7, 383760, Note_on_c, 0, 84, 76
7, 384224, Note_on_c, 0, 86, 0
7, 384224, Note_on_c, 0, 84, 0
7, 384240, Note_on_c, 0, 88, 76
7, 384240, Note_on_c, 0, 84, 76
7, 384419, Note_on_c, 0, 88, 0
7, 384419, Note_on_c, 0, 84, 0
7, 384480, Note_on_c, 0, 89, 76
7, 384480, Note_on_c, 0, 84, 76
7, 385184, Note_on_c, 0, 89, 0
7, 385184, Note_on_c, 0, 84, 0
7, 385200, Note_on_c, 0, 84, 76
7, 385200, Note_on_c, 0, 87, 76
7, 385379, Note_on_c, 0, 84, 0
7, 385379, Note_on_c, 0, 87, 0
7, 385440, Note_on_c, 0, 84, 76
7, 385440, Note_on_c, 0, 86, 76
7, 386144, Note_on_c, 0, 84, 0
7, 386144, Note_on_c, 0, 86, 0
7, 386160, Note_on_c, 0, 88, 76
7, 386160, Note_on_c, 0, 84, 76
7, 386339, Note_on_c, 0, 88, 0
7, 386339, Note_on_c, 0, 84, 0
7, 386400, Note_on_c, 0, 84, 76
7, 386400, Note_on_c, 0, 89, 76
7, 387104, Note_on_c, 0, 84, 0
7, 387104, Note_on_c, 0, 89, 0
7, 387120, Note_on_c, 0, 87, 76
7, 387120, Note_on_c, 0, 90, 76
7, 387299, Note_on_c, 0, 87, 0
7, 387299, Note_on_c, 0, 90, 0
7, 387360, Note_on_c, 0, 91, 76
7, 387360, Note_on_c, 0, 86, 76
7, 387599, Note_on_c, 0, 91, 0
7, 387599, Note_on_c, 0, 86, 0
7, 387840, Note_on_c, 0, 84, 52
7, 387840, Note_on_c, 0, 88, 52
7, 388079, Note_on_c, 0, 84, 0
7, 388079, Note_on_c, 0, 88, 0
7, 388320, Note_on_c, 0, 86, 52
7, 388320, Note_on_c, 0, 89, 52
7, 388559, Note_on_c, 0, 86, 0
7, 388559, Note_on_c, 0, 89, 0
7, 388800, Note_on_c, 0, 83, 52
7, 388800, Note_on_c, 0, 86, 52
7, 389039, Note_on_c, 0, 83, 0
7, 389039, Note_on_c, 0, 86, 0
7, 393280, Note_on_c, 0, 71, 52
7, 393319, Note_on_c, 0, 71, 0
7, 393320, Note_on_c, 0, 72, 53
7, 393359, Note_on_c, 0, 72, 0
7, 393360, Note_on_c, 0, 74, 53
7, 393599, Note_on_c, 0, 74, 0
7, 393760, Note_on_c, 0, 71, 55
7, 393799, Note_on_c, 0, 71, 0
7, 393800, Note_on_c, 0, 72, 55
7, 393839, Note_on_c, 0, 72, 0
7, 393840, Note_on_c, 0, 74, 55
7, 394079, Note_on_c, 0, 74, 0
7, 394240, Note_on_c, 0, 72, 57
7, 394279, Note_on_c, 0, 72, 0
7, 394280, Note_on_c, 0, 74, 57
7, 394319, Note_on_c, 0, 74, 0
7, 394320, Note_on_c, 0, 76, 58
7, 394559, Note_on_c, 0, 76, 0
7, 394720, Note_on_c, 0, 72, 60
7, 394759, Note_on_c, 0, 72, 0
7, 394760, Note_on_c, 0, 74, 60
7, 394799, Note_on_c, 0, 74, 0
7, 394800, Note_on_c, 0, 76, 60
7, 395039, Note_on_c, 0, 76, 0
7, 395200, Note_on_c, 0, 83, 62
7, 395200, Note_on_c, 0, 74, 62
7, 395239, Note_on_c, 0, 83, 0
7, 395239, Note_on_c, 0, 74, 0
7, 395240, Note_on_c, 0, 76, 62
7, 395240, Note_on_c, 0, 84, 62
7, 395279, Note_on_c, 0, 76, 0
7, 395279, Note_on_c, 0, 84, 0
7, 395280, Note_on_c, 0, 77, 62
7, 395280, Note_on_c, 0, 86, 62
7, 395519, Note_on_c, 0, 77, 0
7, 395519, Note_on_c, 0, 86, 0
7, 395680, Note_on_c, 0, 83, 64
7, 395680, Note_on_c, 0, 74, 64
7, 395719, Note_on_c, 0, 83, 0
7, 395719, Note_on_c, 0, 74, 0
7, 395720, Note_on_c, 0, 76, 65
7, 395720, Note_on_c, 0, 84, 65
7, 395759, Note_on_c, 0, 76, 0
7, 395759, Note_on_c, 0, 84, 0
7, 395760, Note_on_c, 0, 86, 65
7, 395760, Note_on_c, 0, 77, 65
7, 395999, Note_on_c, 0, 86, 0
7, 395999, Note_on_c, 0, 77, 0
7, 396160, Note_on_c, 0, 76, 67
7, 396160, Note_on_c, 0, 84, 67
7, 396199, Note_on_c, 0, 76, 0
7, 396199, Note_on_c, 0, 84, 0
7, 396200, Note_on_c, 0, 86, 67
7, 396200, Note_on_c, 0, 77, 67
7, 396239, Note_on_c, 0, 86, 0
7, 396239, Note_on_c, 0, 77, 0
7, 396240, Note_on_c, 0, 88, 67
7, 396240, Note_on_c, 0, 79, 67
7, 396479, Note_on_c, 0, 88, 0
7, 396479, Note_on_c, 0, 79, 0
7, 396640, Note_on_c, 0, 84, 69
7, 396640, Note_on_c, 0, 76, 69
7, 396679, Note_on_c, 0, 84, 0
7, 396679, Note_on_c, 0, 76, 0
7, 396680, Note_on_c, 0, 77, 69
7, 396680, Note_on_c, 0, 86, 69
7, 396719, Note_on_c, 0, 77, 0
7, 396719, Note_on_c, 0, 86, 0
7, 396720, Note_on_c, 0, 79, 70
7, 396720, Note_on_c, 0, 88, 70
7, 396959, Note_on_c, 0, 79, 0
7, 396959, Note_on_c, 0, 88, 0
7, 397120, Note_on_c, 0, 74, 72
7, 397120, Note_on_c, 0, 83, 72
7, 397159, Note_on_c, 0, 74, 0
7, 397159, Note_on_c, 0, 83, 0
7, 397160, Note_on_c, 0, 84, 72
7, 397160, Note_on_c, 0, 76, 72
7, 397199, Note_on_c, 0, 84, 0
7, 397199, Note_on_c, 0, 76, 0
7, 397200, Note_on_c, 0, 86, 72
7, 397200, Note_on_c, 0, 77, 72
7, 397439, Note_on_c, 0, 86, 0
7, 397439, Note_on_c, 0, 77, 0
7, 397600, Note_on_c, 0, 74, 74
7, 397600, Note_on_c, 0, 83, 74
7, 397639, Note_on_c, 0, 74, 0
7, 397639, Note_on_c, 0, 83, 0
7, 397640, Note_on_c, 0, 84, 74
7, 397640, Note_on_c, 0, 76, 74
7, 397679, Note_on_c, 0, 84, 0
7, 397679, Note_on_c, 0, 76, 0
7, 397680, Note_on_c, 0, 86, 74
7, 397680, Note_on_c, 0, 77, 74
7, 397904, Note_on_c, 0, 86, 0
7, 397904, Note_on_c, 0, 77, 0
7, 397920, Note_on_c, 0, 84, 76
7, 398159, Note_on_c, 0, 84, 0
7, 398160, Note_on_c, 0, 83, 76
7, 398399, Note_on_c, 0, 83, 0
7, 398400, Note_on_c, 0, 81, 76
7, 398639, Note_on_c, 0, 81, 0
7, 398640, Note_on_c, 0, 91, 76
7, 398640, Note_on_c, 0, 79, 76
7, 398879, Note_on_c, 0, 91, 0
7, 398879, Note_on_c, 0, 79, 0
7, 398880, Note_on_c, 0, 89, 76
7, 398880, Note_on_c, 0, 77, 76
7, 399119, Note_on_c, 0, 89, 0
7, 399119, Note_on_c, 0, 77, 0
7, 399120, Note_on_c, 0, 88, 76
7, 399120, Note_on_c, 0, 76, 76
7, 399359, Note_on_c, 0, 88, 0
7, 399359, Note_on_c, 0, 76, 0
7, 399360, Note_on_c, 0, 74, 76
7, 399360, Note_on_c, 0, 86, 76
7, 399599, Note_on_c, 0, 74, 0
7, 399599, Note_on_c, 0, 86, 0
7, 399600, Note_on_c, 0, 73, 76
7, 399600, Note_on_c, 0, 85, 76
7, 399824, Note_on_c, 0, 73, 0
7, 399824, Note_on_c, 0, 85, 0
7, 399840, Note_on_c, 0, 74, 76
7, 399840, Note_on_c, 0, 86, 76
7, 400064, Note_on_c, 0, 74, 0
7, 400080, Note_on_c, 0, 84, 76
7, 400544, Note_on_c, 0, 86, 0
7, 400544, Note_on_c, 0, 84, 0
7, 400560, Note_on_c, 0, 84, 76
7, 400560, Note_on_c, 0, 88, 76
7, 400784, Note_on_c, 0, 84, 0
7, 400784, Note_on_c, 0, 88, 0
7, 400800, Note_on_c, 0, 86, 76
7, 400800, Note_on_c, 0, 89, 76
7, 401504, Note_on_c, 0, 86, 0
7, 401504, Note_on_c, 0, 89, 0
7, 401520, Note_on_c, 0, 87, 76
7, 401520, Note_on_c, 0, 84, 76
7, 401699, Note_on_c, 0, 87, 0
7, 401699, Note_on_c, 0, 84, 0
7, 401760, Note_on_c, 0, 84, 76
7, 401760, Note_on_c, 0, 86, 76
7, 402464, Note_on_c, 0, 84, 0
7, 402464, Note_on_c, 0, 86, 0
7, 402480, Note_on_c, 0, 84, 76
7, 402480, Note_on_c, 0, 87, 76
7, 402659, Note_on_c, 0, 84, 0
7, 402659, Note_on_c, 0, 87, 0
7, 402720, Note_on_c, 0, 84, 76
7, 402720, Note_on_c, 0, 89, 76
7, 403424, Note_on_c, 0, 84, 0
7, 403424, Note_on_c, 0, 89, 0
7, 403440, Note_on_c, 0, 90, 76
7, 403440, Note_on_c, 0, 87, 76
7, 403619, Note_on_c, 0, 90, 0
7, 403619, Note_on_c, 0, 87, 0
7, 403680, Note_on_c, 0, 88, 52
7, 403680, Note_on_c, 0, 91, 52
7, 403731, Note_on_c, 0, 88, 0
7, 403731, Note_on_c, 0, 91, 0
7, 403740, Note_on_c, 0, 84, 52
7, 403791, Note_on_c, 0, 84, 0
7, 403800, Note_on_c, 0, 84, 52
7, 403851, Note_on_c, 0, 84, 0
7, 403860, Note_on_c, 0, 84, 52
7, 403919, Note_on_c, 0, 84, 0
7, 403980, Note_on_c, 0, 84, 52
7, 404031, Note_on_c, 0, 84, 0
7, 404040, Note_on_c, 0, 84, 52
7, 404091, Note_on_c, 0, 84, 0
7, 404100, Note_on_c, 0, 84, 52
7, 404159, Note_on_c, 0, 84, 0
7, 404220, Note_on_c, 0, 84, 52
7, 404271, Note_on_c, 0, 84, 0
7, 404280, Note_on_c, 0, 84, 52
7, 404331, Note_on_c, 0, 84, 0
7, 404340, Note_on_c, 0, 84, 52
7, 404399, Note_on_c, 0, 84, 0
7, 404460, Note_on_c, 0, 84, 53
7, 404511, Note_on_c, 0, 84, 0
7, 404520, Note_on_c, 0, 84, 53
7, 404571, Note_on_c, 0, 84, 0
7, 404580, Note_on_c, 0, 84, 53
7, 404639, Note_on_c, 0, 84, 0
7, 404700, Note_on_c, 0, 77, 54
7, 404700, Note_on_c, 0, 83, 54
7, 404751, Note_on_c, 0, 77, 0
7, 404751, Note_on_c, 0, 83, 0
7, 404760, Note_on_c, 0, 77, 54
7, 404760, Note_on_c, 0, 83, 54
7, 404811, Note_on_c, 0, 77, 0
7, 404811, Note_on_c, 0, 83, 0
7, 404820, Note_on_c, 0, 83, 55
7, 404820, Note_on_c, 0, 77, 55
7, 404879, Note_on_c, 0, 83, 0
7, 404879, Note_on_c, 0, 77, 0
7, 404940, Note_on_c, 0, 76, 55
7, 404940, Note_on_c, 0, 84, 55
7, 404991, Note_on_c, 0, 76, 0
7, 404991, Note_on_c, 0, 84, 0
7, 405000, Note_on_c, 0, 76, 55
7, 405000, Note_on_c, 0, 84, 55
7, 405051, Note_on_c, 0, 76, 0
7, 405051, Note_on_c, 0, 84, 0
7, 405060, Note_on_c, 0, 76, 56
7, 405060, Note_on_c, 0, 84, 56
7, 405119, Note_on_c, 0, 76, 0
7, 405119, Note_on_c, 0, 84, 0
7, 405240, Note_on_c, 0, 83, 56
7, 405240, Note_on_c, 0, 86, 56
7, 405359, Note_on_c, 0, 83, 0
7, 405359, Note_on_c, 0, 86, 0
7, 405480, Note_on_c, 0, 84, 58
7, 405480, Note_on_c, 0, 88, 58
7, 405599, Note_on_c, 0, 84, 0
7, 405599, Note_on_c, 0, 88, 0
7, 405720, Note_on_c, 0, 84, 59
7, 405720, Note_on_c, 0, 88, 59
7, 405839, Note_on_c, 0, 84, 0
7, 405839, Note_on_c, 0, 88, 0
7, 405960, Note_on_c, 0, 84, 60
7, 405960, Note_on_c, 0, 88, 60
7, 406079, Note_on_c, 0, 84, 0
7, 406079, Note_on_c, 0, 88, 0
7, 406200, Note_on_c, 0, 84, 61
7, 406319, Note_on_c, 0, 84, 0
7, 406440, Note_on_c, 0, 84, 62
7, 406559, Note_on_c, 0, 84, 0
7, 406680, Note_on_c, 0, 83, 63
7, 406680, Note_on_c, 0, 86, 63
7, 406799, Note_on_c, 0, 83, 0
7, 406799, Note_on_c, 0, 86, 0
7, 406920, Note_on_c, 0, 88, 64
7, 406920, Note_on_c, 0, 84, 64
7, 407039, Note_on_c, 0, 88, 0
7, 407039, Note_on_c, 0, 84, 0
7, 407160, Note_on_c, 0, 83, 65
7, 407160, Note_on_c, 0, 86, 65
7, 407279, Note_on_c, 0, 83, 0
7, 407279, Note_on_c, 0, 86, 0
7, 407400, Note_on_c, 0, 84, 66
7, 407400, Note_on_c, 0, 88, 66
7, 407519, Note_on_c, 0, 84, 0
7, 407519, Note_on_c, 0, 88, 0
7, 407640, Note_on_c, 0, 88, 67
7, 407640, Note_on_c, 0, 84, 67
7, 407759, Note_on_c, 0, 88, 0
7, 407759, Note_on_c, 0, 84, 0
7, 407880, Note_on_c, 0, 84, 68
7, 407880, Note_on_c, 0, 88, 68
7, 407999, Note_on_c, 0, 84, 0
7, 407999, Note_on_c, 0, 88, 0
7, 408120, Note_on_c, 0, 84, 70
7, 408239, Note_on_c, 0, 84, 0
7, 408360, Note_on_c, 0, 84, 71
7, 408479, Note_on_c, 0, 84, 0
7, 408600, Note_on_c, 0, 86, 72
7, 408600, Note_on_c, 0, 83, 72
7, 408719, Note_on_c, 0, 86, 0
7, 408719, Note_on_c, 0, 83, 0
7, 408840, Note_on_c, 0, 88, 73
7, 408840, Note_on_c, 0, 84, 73
7, 408959, Note_on_c, 0, 88, 0
7, 408959, Note_on_c, 0, 84, 0
7, 409080, Note_on_c, 0, 84, 74
7, 409080, Note_on_c, 0, 86, 74
7, 409199, Note_on_c, 0, 84, 0
7, 409199, Note_on_c, 0, 86, 0
7, 409320, Note_on_c, 0, 86, 75
7, 409320, Note_on_c, 0, 83, 75
7, 409409, Note_on_c, 0, 86, 0
7, 409409, Note_on_c, 0, 83, 0
7, 409440, Note_on_c, 0, 84, 76
7, 409559, Note_on_c, 0, 84, 0
7, 413280, Note_on_c, 0, 84, 76
7, 413340, Control_c, 0, 11, 80
7, 413619, Note_on_c, 0, 84, 0
7, 413640, Note_on_c, 0, 83, 76
7, 413739, Note_on_c, 0, 83, 0
7, 413760, Note_on_c, 0, 81, 76
7, 413879, Note_on_c, 0, 81, 0
7, 413880, Note_on_c, 0, 79, 76
7, 413979, Note_on_c, 0, 79, 0
7, 414000, Note_on_c, 0, 79, 76
7, 414089, Note_on_c, 0, 79, 0
7, 414120, Note_on_c, 0, 79, 76
7, 414209, Note_on_c, 0, 79, 0
7, 414238, Control_c, 0, 11, 127
7, 414240, Note_on_c, 0, 84, 76
7, 414300, Control_c, 0, 11, 80
7, 414579, Note_on_c, 0, 84, 0
7, 414600, Note_on_c, 0, 83, 76
7, 414699, Note_on_c, 0, 83, 0
7, 414720, Note_on_c, 0, 81, 76
7, 414839, Note_on_c, 0, 81, 0
7, 414840, Note_on_c, 0, 79, 76
7, 414939, Note_on_c, 0, 79, 0
7, 414960, Note_on_c, 0, 79, 76
7, 415049, Note_on_c, 0, 79, 0
7, 415080, Note_on_c, 0, 79, 76
7, 415169, Note_on_c, 0, 79, 0
7, 415198, Control_c, 0, 11, 127
7, 415200, Note_on_c, 0, 84, 76
7, 415200, Note_on_c, 0, 88, 76
7, 415260, Control_c, 0, 11, 80
7, 415539, Note_on_c, 0, 84, 0
7, 415539, Note_on_c, 0, 88, 0
7, 415560, Note_on_c, 0, 86, 76
7, 415560, Note_on_c, 0, 83, 76
7, 415659, Note_on_c, 0, 86, 0
7, 415659, Note_on_c, 0, 83, 0
7, 415680, Note_on_c, 0, 81, 76
7, 415680, Note_on_c, 0, 84, 76
7, 415799, Note_on_c, 0, 81, 0
7, 415799, Note_on_c, 0, 84, 0
7, 415800, Note_on_c, 0, 83, 76
7, 415800, Note_on_c, 0, 79, 76
7, 415899, Note_on_c, 0, 83, 0
7, 415899, Note_on_c, 0, 79, 0
7, 415920, Note_on_c, 0, 79, 76
7, 415920, Note_on_c, 0, 83, 76
7, 416009, Note_on_c, 0, 79, 0
7, 416009, Note_on_c, 0, 83, 0
7, 416040, Note_on_c, 0, 79, 76
7, 416040, Note_on_c, 0, 83, 76
7, 416129, Note_on_c, 0, 79, 0
7, 416129, Note_on_c, 0, 83, 0
7, 416158, Control_c, 0, 11, 127
7, 416160, Note_on_c, 0, 84, 76
7, 416160, Note_on_c, 0, 88, 76
7, 416220, Control_c, 0, 11, 80
7, 416499, Note_on_c, 0, 84, 0
7, 416499, Note_on_c, 0, 88, 0
7, 416520, Note_on_c, 0, 83, 76
7, 416520, Note_on_c, 0, 86, 76
7, 416619, Note_on_c, 0, 83, 0
7, 416619, Note_on_c, 0, 86, 0
7, 416640, Note_on_c, 0, 81, 76
7, 416640, Note_on_c, 0, 84, 76
7, 416759, Note_on_c, 0, 81, 0
7, 416759, Note_on_c, 0, 84, 0
7, 416760, Note_on_c, 0, 79, 76
7, 416760, Note_on_c, 0, 83, 76
7, 416859, Note_on_c, 0, 79, 0
7, 416859, Note_on_c, 0, 83, 0
7, 416880, Note_on_c, 0, 83, 76
7, 416880, Note_on_c, 0, 79, 76
7, 416969, Note_on_c, 0, 83, 0
7, 416969, Note_on_c, 0, 79, 0
7, 417000, Note_on_c, 0, 79, 76
7, 417000, Note_on_c, 0, 83, 76
7, 417089, Note_on_c, 0, 79, 0
7, 417089, Note_on_c, 0, 83, 0
7, 417120, Note_on_c, 0, 84, 76
7, 417120, Note_on_c, 0, 88, 76
7, 417120, Control_c, 0, 11, 80
7, 417239, Note_on_c, 0, 84, 0
7, 417239, Note_on_c, 0, 88, 0
7, 417280, Control_c, 0, 11, 82
7, 417360, Note_on_c, 0, 91, 76
7, 417360, Note_on_c, 0, 84, 76
7, 417440, Control_c, 0, 11, 84
7, 417479, Note_on_c, 0, 91, 0
7, 417479, Note_on_c, 0, 84, 0
7, 417600, Control_c, 0, 11, 86
7, 417600, Note_on_c, 0, 84, 76
7, 417600, Note_on_c, 0, 91, 76
7, 417719, Note_on_c, 0, 84, 0
7, 417719, Note_on_c, 0, 91, 0
7, 417760, Control_c, 0, 11, 88
7, 417840, Note_on_c, 0, 84, 76
7, 417840, Note_on_c, 0, 89, 76
7, 417920, Control_c, 0, 11, 90
7, 417959, Note_on_c, 0, 84, 0
7, 417959, Note_on_c, 0, 89, 0
7, 418080, Control_c, 0, 11, 92
7, 418080, Note_on_c, 0, 89, 76
7, 418080, Note_on_c, 0, 83, 76
7, 418199, Note_on_c, 0, 89, 0
7, 418199, Note_on_c, 0, 83, 0
7, 418240, Control_c, 0, 11, 94
7, 418320, Note_on_c, 0, 88, 76
7, 418320, Note_on_c, 0, 84, 76
7, 418400, Control_c, 0, 11, 96
7, 418439, Note_on_c, 0, 88, 0
7, 418439, Note_on_c, 0, 84, 0
7, 418560, Control_c, 0, 11, 98
7, 418560, Note_on_c, 0, 86, 76
7, 418560, Note_on_c, 0, 83, 76
7, 418679, Note_on_c, 0, 86, 0
7, 418679, Note_on_c, 0, 83, 0
7, 418720, Control_c, 0, 11, 100
7, 418800, Note_on_c, 0, 91, 76
7, 418800, Note_on_c, 0, 84, 76
7, 418880, Control_c, 0, 11, 102
7, 418919, Note_on_c, 0, 91, 0
7, 418919, Note_on_c, 0, 84, 0
7, 419040, Note_on_c, 0, 84, 76
7, 419040, Note_on_c, 0, 91, 76
7, 419040, Control_c, 0, 11, 104
7, 419159, Note_on_c, 0, 84, 0
7, 419159, Note_on_c, 0, 91, 0
7, 419200, Control_c, 0, 11, 105
7, 419280, Note_on_c, 0, 84, 76
7, 419280, Note_on_c, 0, 91, 76
7, 419360, Control_c, 0, 11, 107
7, 419399, Note_on_c, 0, 84, 0
7, 419399, Note_on_c, 0, 91, 0
7, 419520, Note_on_c, 0, 84, 76
7, 419520, Control_c, 0, 11, 109
7, 419520, Note_on_c, 0, 91, 76
7, 419639, Note_on_c, 0, 84, 0
7, 419639, Note_on_c, 0, 91, 0
7, 419680, Control_c, 0, 11, 111
7, 419760, Note_on_c, 0, 89, 76
7, 419760, Note_on_c, 0, 84, 76
7, 419840, Control_c, 0, 11, 113
7, 419879, Note_on_c, 0, 89, 0
7, 419879, Note_on_c, 0, 84, 0
7, 420000, Note_on_c, 0, 89, 76
7, 420000, Note_on_c, 0, 83, 76
7, 420000, Control_c, 0, 11, 115
7, 420119, Note_on_c, 0, 89, 0
7, 420119, Note_on_c, 0, 83, 0
7, 420160, Control_c, 0, 11, 117
7, 420240, Note_on_c, 0, 88, 76
7, 420240, Note_on_c, 0, 84, 76
7, 420320, Control_c, 0, 11, 119
7, 420359, Note_on_c, 0, 88, 0
7, 420359, Note_on_c, 0, 84, 0
7, 420480, Note_on_c, 0, 86, 76
7, 420480, Control_c, 0, 11, 121
7, 420480, Note_on_c, 0, 83, 76
7, 420599, Note_on_c, 0, 86, 0
7, 420599, Note_on_c, 0, 83, 0
7, 420640, Control_c, 0, 11, 123
7, 420720, Note_on_c, 0, 91, 76
7, 420720, Note_on_c, 0, 84, 76
7, 420800, Control_c, 0, 11, 127
7, 420819, Note_on_c, 0, 91, 0
7, 420819, Note_on_c, 0, 84, 0
7, 420840, Note_on_c, 0, 91, 76
7, 420840, Note_on_c, 0, 84, 76
7, 420939, Note_on_c, 0, 91, 0
7, 420939, Note_on_c, 0, 84, 0
7, 420960, Note_on_c, 0, 84, 76
7, 420960, Note_on_c, 0, 91, 76
7, 421059, Note_on_c, 0, 84, 0
7, 421059, Note_on_c, 0, 91, 0
7, 421080, Note_on_c, 0, 91, 76
7, 421080, Note_on_c, 0, 84, 76
7, 421179, Note_on_c, 0, 91, 0
7, 421179, Note_on_c, 0, 84, 0
7, 421200, Note_on_c, 0, 84, 76
7, 421200, Note_on_c, 0, 91, 76
7, 421299, Note_on_c, 0, 84, 0
7, 421299, Note_on_c, 0, 91, 0
7, 421320, Note_on_c, 0, 84, 76
7, 421320, Note_on_c, 0, 91, 76
7, 421419, Note_on_c, 0, 84, 0
7, 421419, Note_on_c, 0, 91, 0
7, 421440, Note_on_c, 0, 91, 76
7, 421440, Note_on_c, 0, 84, 76
7, 421539, Note_on_c, 0, 91, 0
7, 421539, Note_on_c, 0, 84, 0
7, 421560, Note_on_c, 0, 84, 76
7, 421560, Note_on_c, 0, 91, 76
7, 421659, Note_on_c, 0, 84, 0
7, 421659, Note_on_c, 0, 91, 0
7, 421680, Note_on_c, 0, 89, 76
7, 421680, Note_on_c, 0, 84, 76
7, 421779, Note_on_c, 0, 89, 0
7, 421779, Note_on_c, 0, 84, 0
7, 421800, Note_on_c, 0, 84, 76
7, 421800, Note_on_c, 0, 89, 76
7, 421899, Note_on_c, 0, 84, 0
7, 421899, Note_on_c, 0, 89, 0
7, 421920, Note_on_c, 0, 84, 76
7, 421920, Note_on_c, 0, 89, 76
7, 422019, Note_on_c, 0, 84, 0
7, 422019, Note_on_c, 0, 89, 0
7, 422040, Note_on_c, 0, 84, 76
7, 422040, Note_on_c, 0, 89, 76
7, 422139, Note_on_c, 0, 84, 0
7, 422139, Note_on_c, 0, 89, 0
7, 422160, Note_on_c, 0, 84, 76
7, 422160, Note_on_c, 0, 88, 76
7, 422259, Note_on_c, 0, 84, 0
7, 422259, Note_on_c, 0, 88, 0
7, 422280, Note_on_c, 0, 84, 76
7, 422280, Note_on_c, 0, 88, 76
7, 422379, Note_on_c, 0, 84, 0
7, 422379, Note_on_c, 0, 88, 0
7, 422400, Note_on_c, 0, 86, 76
7, 422400, Note_on_c, 0, 84, 76
7, 422499, Note_on_c, 0, 86, 0
7, 422499, Note_on_c, 0, 84, 0
7, 422520, Note_on_c, 0, 84, 76
7, 422520, Note_on_c, 0, 86, 76
7, 422619, Note_on_c, 0, 84, 0
7, 422619, Note_on_c, 0, 86, 0
7, 422640, Note_on_c, 0, 83, 76
7, 422640, Note_on_c, 0, 91, 76
7, 422739, Note_on_c, 0, 83, 0
7, 422739, Note_on_c, 0, 91, 0
7, 422760, Note_on_c, 0, 83, 76
7, 422760, Note_on_c, 0, 91, 76
7, 422859, Note_on_c, 0, 83, 0
7, 422859, Note_on_c, 0, 91, 0
7, 422880, Note_on_c, 0, 72, 84
7, 423099, Note_on_c, 0, 72, 0
7, 423120, Note_on_c, 0, 76, 84
7, 423339, Note_on_c, 0, 76, 0
7, 423360, Note_on_c, 0, 79, 84
7, 423699, Note_on_c, 0, 79, 0
7, 423720, Note_on_c, 0, 77, 84
7, 423819, Note_on_c, 0, 77, 0
7, 423840, Note_on_c, 0, 76, 84
7, 423939, Note_on_c, 0, 76, 0
7, 423960, Note_on_c, 0, 74, 84
7, 424059, Note_on_c, 0, 74, 0
7, 424080, Note_on_c, 0, 72, 84
7, 424179, Note_on_c, 0, 72, 0
7, 424200, Note_on_c, 0, 74, 84
7, 424299, Note_on_c, 0, 74, 0
7, 424320, Note_on_c, 0, 76, 84
7, 424659, Note_on_c, 0, 76, 0
7, 424680, Note_on_c, 0, 76, 84
7, 424779, Note_on_c, 0, 76, 0
7, 424800, Note_on_c, 0, 76, 84
7, 424899, Note_on_c, 0, 76, 0
7, 424920, Note_on_c, 0, 74, 84
7, 425019, Note_on_c, 0, 74, 0
7, 425040, Note_on_c, 0, 76, 84
7, 425139, Note_on_c, 0, 76, 0
7, 425160, Note_on_c, 0, 77, 84
7, 425259, Note_on_c, 0, 77, 0
7, 425280, Note_on_c, 0, 79, 84
7, 425619, Note_on_c, 0, 79, 0
7, 425640, Note_on_c, 0, 79, 84
7, 425739, Note_on_c, 0, 79, 0
7, 425760, Note_on_c, 0, 79, 84
7, 425859, Note_on_c, 0, 79, 0
7, 425880, Note_on_c, 0, 77, 84
7, 425979, Note_on_c, 0, 77, 0
7, 426000, Note_on_c, 0, 79, 84
7, 426099, Note_on_c, 0, 79, 0
7, 426120, Note_on_c, 0, 83, 84
7, 426219, Note_on_c, 0, 83, 0
7, 426240, Note_on_c, 0, 84, 84
7, 426579, Note_on_c, 0, 84, 0
7, 426600, Note_on_c, 0, 83, 84
7, 426699, Note_on_c, 0, 83, 0
7, 426720, Note_on_c, 0, 84, 84
7, 426819, Note_on_c, 0, 84, 0
7, 426840, Note_on_c, 0, 83, 84
7, 426840, Note_on_c, 0, 71, 84
7, 426939, Note_on_c, 0, 83, 0
7, 426939, Note_on_c, 0, 71, 0
7, 426960, Note_on_c, 0, 84, 84
7, 426960, Note_on_c, 0, 72, 84
7, 427059, Note_on_c, 0, 84, 0
7, 427059, Note_on_c, 0, 72, 0
7, 427080, Note_on_c, 0, 86, 84
7, 427080, Note_on_c, 0, 74, 84
7, 427179, Note_on_c, 0, 86, 0
7, 427179, Note_on_c, 0, 74, 0
7, 427200, Note_on_c, 0, 88, 84
7, 427200, Note_on_c, 0, 76, 84
7, 427299, Note_on_c, 0, 88, 0
7, 427299, Note_on_c, 0, 76, 0
7, 427320, Note_on_c, 0, 86, 84
7, 427320, Note_on_c, 0, 74, 84
7, 427419, Note_on_c, 0, 86, 0
7, 427419, Note_on_c, 0, 74, 0
7, 427440, Note_on_c, 0, 88, 84
7, 427440, Note_on_c, 0, 76, 84
7, 427539, Note_on_c, 0, 88, 0
7, 427539, Note_on_c, 0, 76, 0
7, 427560, Note_on_c, 0, 89, 84
7, 427560, Note_on_c, 0, 77, 84
7, 427659, Note_on_c, 0, 89, 0
7, 427659, Note_on_c, 0, 77, 0
7, 427680, Note_on_c, 0, 91, 84
7, 427680, Note_on_c, 0, 79, 84
7, 428619, Note_on_c, 0, 91, 0
7, 428619, Note_on_c, 0, 79, 0
7, 428640, Note_on_c, 0, 88, 84
7, 428640, Note_on_c, 0, 76, 84
7, 429579, Note_on_c, 0, 88, 0
7, 429579, Note_on_c, 0, 76, 0
7, 429600, Note_on_c, 0, 84, 84
7, 429600, Note_on_c, 0, 72, 84
7, 429719, Note_on_c, 0, 84, 0
7, 429719, Note_on_c, 0, 72, 0
7, 430080, Note_on_c, 0, 86, 84
7, 430080, Note_on_c, 0, 83, 84
7, 430199, Note_on_c, 0, 86, 0
7, 430199, Note_on_c, 0, 83, 0
7, 430560, Note_on_c, 0, 88, 84
7, 430560, Note_on_c, 0, 84, 84
7, 430679, Note_on_c, 0, 88, 0
7, 430679, Note_on_c, 0, 84, 0
7, 431040, Note_on_c, 0, 91, 84
7, 431040, Note_on_c, 0, 83, 84
7, 431159, Note_on_c, 0, 91, 0
7, 431159, Note_on_c, 0, 83, 0
7, 431520, Note_on_c, 0, 88, 84
7, 431520, Note_on_c, 0, 84, 84
7, 431639, Note_on_c, 0, 88, 0
7, 431639, Note_on_c, 0, 84, 0
7, 432000, Note_on_c, 0, 86, 84
7, 432000, Note_on_c, 0, 83, 84
7, 432119, Note_on_c, 0, 86, 0
7, 432119, Note_on_c, 0, 83, 0
7, 432480, Note_on_c, 0, 88, 84
7, 432480, Note_on_c, 0, 84, 84
7, 432599, Note_on_c, 0, 88, 0
7, 432599, Note_on_c, 0, 84, 0
7, 432960, Note_on_c, 0, 91, 84
7, 432960, Note_on_c, 0, 83, 84
7, 433079, Note_on_c, 0, 91, 0
7, 433079, Note_on_c, 0, 83, 0
7, 433440, Note_on_c, 0, 88, 84
7, 433440, Note_on_c, 0, 84, 84
7, 433559, Note_on_c, 0, 88, 0
7, 433559, Note_on_c, 0, 84, 0
7, 433920, Note_on_c, 0, 91, 84
7, 433920, Note_on_c, 0, 83, 84
7, 434039, Note_on_c, 0, 91, 0
7, 434039, Note_on_c, 0, 83, 0
7, 434400, Note_on_c, 0, 88, 84
7, 434400, Note_on_c, 0, 84, 84
7, 434519, Note_on_c, 0, 88, 0
7, 434519, Note_on_c, 0, 84, 0
7, 434880, Note_on_c, 0, 91, 84
7, 434880, Note_on_c, 0, 83, 84
7, 434999, Note_on_c, 0, 91, 0
7, 434999, Note_on_c, 0, 83, 0
7, 435360, Note_on_c, 0, 84, 84
7, 435360, Note_on_c, 0, 76, 84
7, 436299, Note_on_c, 0, 84, 0
7, 436299, Note_on_c, 0, 76, 0
7, 436320, Note_on_c, 0, 84, 84
7, 437019, Note_on_c, 0, 84, 0
7, 437040, Note_on_c, 0, 79, 84
7, 437139, Note_on_c, 0, 79, 0
7, 437160, Note_on_c, 0, 76, 84
7, 437259, Note_on_c, 0, 76, 0
7, 437280, Note_on_c, 0, 72, 84
7, 437399, Note_on_c, 0, 72, 0
7, 437640, Note_on_c, 0, 84, 84
7, 437640, Note_on_c, 0, 76, 84
7, 437739, Note_on_c, 0, 84, 0
7, 437739, Note_on_c, 0, 76, 0
7, 437760, Note_on_c, 0, 84, 84
7, 437760, Note_on_c, 0, 76, 84
7, 437859, Note_on_c, 0, 84, 0
7, 437859, Note_on_c, 0, 76, 0
7, 437880, Note_on_c, 0, 84, 84
7, 437880, Note_on_c, 0, 76, 84
7, 437979, Note_on_c, 0, 84, 0
7, 437979, Note_on_c, 0, 76, 0
7, 438000, Note_on_c, 0, 84, 84
7, 438000, Note_on_c, 0, 76, 84
7, 438099, Note_on_c, 0, 84, 0
7, 438099, Note_on_c, 0, 76, 0
7, 438120, Note_on_c, 0, 84, 84
7, 438120, Note_on_c, 0, 76, 84
7, 438219, Note_on_c, 0, 84, 0
7, 438219, Note_on_c, 0, 76, 0
7, 438240, Note_on_c, 0, 84, 84
7, 438240, Note_on_c, 0, 76, 84
7, 438359, Note_on_c, 0, 84, 0
7, 438359, Note_on_c, 0, 76, 0
7, 438600, Note_on_c, 0, 88, 84
7, 438600, Note_on_c, 0, 84, 84
7, 438699, Note_on_c, 0, 88, 0
7, 438699, Note_on_c, 0, 84, 0
7, 438720, Note_on_c, 0, 88, 84
7, 438720, Note_on_c, 0, 84, 84
7, 438819, Note_on_c, 0, 88, 0
7, 438819, Note_on_c, 0, 84, 0
7, 438840, Note_on_c, 0, 88, 84
7, 438840, Note_on_c, 0, 84, 84
7, 438939, Note_on_c, 0, 88, 0
7, 438939, Note_on_c, 0, 84, 0
7, 438960, Note_on_c, 0, 88, 84
7, 438960, Note_on_c, 0, 84, 84
7, 439059, Note_on_c, 0, 88, 0
7, 439059, Note_on_c, 0, 84, 0
7, 439080, Note_on_c, 0, 88, 84
7, 439080, Note_on_c, 0, 84, 84
7, 439179, Note_on_c, 0, 88, 0
7, 439179, Note_on_c, 0, 84, 0
7, 439200, Note_on_c, 0, 88, 84
7, 439200, Note_on_c, 0, 84, 84
7, 439319, Note_on_c, 0, 88, 0
7, 439319, Note_on_c, 0, 84, 0
7, 439440, Note_on_c, 0, 84, 84
7, 439440, Note_on_c, 0, 76, 84
7, 439539, Note_on_c, 0, 84, 0
7, 439539, Note_on_c, 0, 76, 0
7, 439560, Note_on_c, 0, 84, 84
7, 439560, Note_on_c, 0, 76, 84
7, 439659, Note_on_c, 0, 84, 0
7, 439659, Note_on_c, 0, 76, 0
7, 439680, Note_on_c, 0, 84, 84
7, 439799, Note_on_c, 0, 84, 0
7, 439920, Note_on_c, 0, 88, 84
7, 439920, Note_on_c, 0, 84, 84
7, 440019, Note_on_c, 0, 88, 0
7, 440019, Note_on_c, 0, 84, 0
7, 440040, Note_on_c, 0, 88, 84
7, 440040, Note_on_c, 0, 84, 84
7, 440139, Note_on_c, 0, 88, 0
7, 440139, Note_on_c, 0, 84, 0
7, 440160, Note_on_c, 0, 88, 84
7, 440160, Note_on_c, 0, 84, 84
7, 440279, Note_on_c, 0, 88, 0
7, 440279, Note_on_c, 0, 84, 0
7, 440400, Note_on_c, 0, 91, 84
7, 440400, Note_on_c, 0, 88, 84
7, 440499, Note_on_c, 0, 91, 0
7, 440499, Note_on_c, 0, 88, 0
7, 440520, Note_on_c, 0, 91, 84
7, 440520, Note_on_c, 0, 88, 84
7, 440619, Note_on_c, 0, 91, 0
7, 440619, Note_on_c, 0, 88, 0
7, 440640, Note_on_c, 0, 91, 84
7, 440640, Note_on_c, 0, 88, 84
7, 440759, Note_on_c, 0, 91, 0
7, 440759, Note_on_c, 0, 88, 0
7, 440880, Note_on_c, 0, 84, 84
7, 440880, Note_on_c, 0, 76, 84
7, 440979, Note_on_c, 0, 84, 0
7, 440979, Note_on_c, 0, 76, 0
7, 441000, Note_on_c, 0, 84, 84
7, 441000, Note_on_c, 0, 76, 84
7, 441099, Note_on_c, 0, 84, 0
7, 441099, Note_on_c, 0, 76, 0
7, 441120, Note_on_c, 0, 84, 84
7, 441120, Note_on_c, 0, 76, 84
7, 442059, Note_on_c, 0, 84, 0
7, 442059, Note_on_c, 0, 76, 0
7, 442080, Note_on_c, 0, 88, 84
7, 442080, Note_on_c, 0, 84, 84
7, 443019, Note_on_c, 0, 88, 0
7, 443019, Note_on_c, 0, 84, 0
7, 443040, Note_on_c, 0, 88, 84
7, 443040, Note_on_c, 0, 84, 84
7, 443159, Note_on_c, 0, 88, 0
7, 443159, Note_on_c, 0, 84, 0
7, 444000, Note_on_c, 0, 84, 84
7, 444000, Note_on_c, 0, 76, 84
7, 444119, Note_on_c, 0, 84, 0
7, 444119, Note_on_c, 0, 76, 0
7, 444960, Note_on_c, 0, 84, 84
7, 444960, Note_on_c, 0, 76, 84
7, 445079, Note_on_c, 0, 84, 0
7, 445079, Note_on_c, 0, 76, 0
7, 445920, Note_on_c, 0, 84, 84
7, 445920, Note_on_c, 0, 76, 84
7, 446039, Note_on_c, 0, 84, 0
7, 446039, Note_on_c, 0, 76, 0
7, 446400, Note_on_c, 0, 84, 84
7, 446400, Note_on_c, 0, 76, 84
7, 446519, Note_on_c, 0, 84, 0
7, 446519, Note_on_c, 0, 76, 0
7, 446880, Note_on_c, 0, 84, 84
7, 446880, Note_on_c, 0, 76, 84
7, 446999, Note_on_c, 0, 84, 0
7, 446999, Note_on_c, 0, 76, 0
7, 447840, Note_on_c, 0, 84, 84
7, 447840, Note_on_c, 0, 76, 84
7, 447959, Note_on_c, 0, 84, 0
7, 447959, Note_on_c, 0, 76, 0
7, 448800, Note_on_c, 0, 84, 84
7, 448800, Note_on_c, 0, 72, 84
7, 451199, Note_on_c, 0, 84, 0
7, 451199, Note_on_c, 0, 72, 0
7, 451199, End_track
8, 0, Start_track
8, 0, Title_t, "Oboe"
8, 0, MIDI_port, 0
8, 0, Program_c, 1, 68
8, 0, Control_c, 1, 7, 80
8, 0, Control_c, 1, 10, 70
8, 0, Control_c, 1, 11, 127
8, 0, Note_on_c, 1, 72, 84
8, 0, Note_on_c, 1, 64, 84
8, 464, Note_on_c, 1, 72, 0
8, 464, Note_on_c, 1, 64, 0
8, 480, Note_on_c, 1, 76, 84
8, 480, Note_on_c, 1, 72, 84
8, 944, Note_on_c, 1, 76, 0
8, 944, Note_on_c, 1, 72, 0
8, 960, Note_on_c, 1, 79, 84
8, 960, Note_on_c, 1, 76, 84
8, 1664, Note_on_c, 1, 79, 0
8, 1664, Note_on_c, 1, 76, 0
8, 1680, Note_on_c, 1, 74, 84
8, 1680, Note_on_c, 1, 77, 84
8, 1799, Note_on_c, 1, 74, 0
8, 1799, Note_on_c, 1, 77, 0
8, 1920, Note_on_c, 1, 72, 84
8, 1920, Note_on_c, 1, 76, 84
8, 2039, Note_on_c, 1, 72, 0
8, 2039, Note_on_c, 1, 76, 0
8, 2160, Note_on_c, 1, 67, 84
8, 2160, Note_on_c, 1, 74, 84
8, 2279, Note_on_c, 1, 67, 0
8, 2279, Note_on_c, 1, 74, 0
8, 2400, Note_on_c, 1, 72, 84
8, 2400, Note_on_c, 1, 64, 84
8, 2519, Note_on_c, 1, 72, 0
8, 2519, Note_on_c, 1, 64, 0
8, 2640, Note_on_c, 1, 74, 84
8, 2640, Note_on_c, 1, 67, 84
8, 2759, Note_on_c, 1, 74, 0
8, 2759, Note_on_c, 1, 67, 0
8, 2880, Note_on_c, 1, 64, 84
8, 2880, Note_on_c, 1, 72, 84
8, 3584, Note_on_c, 1, 64, 0
8, 3584, Note_on_c, 1, 72, 0
8, 3600, Note_on_c, 1, 72, 84
8, 3600, Note_on_c, 1, 64, 84
8, 3771, Note_on_c, 1, 72, 0
8, 3771, Note_on_c, 1, 64, 0
8, 3780, Note_on_c, 1, 64, 84
8, 3780, Note_on_c, 1, 72, 84
8, 3831, Note_on_c, 1, 64, 0
8, 3831, Note_on_c, 1, 72, 0
8, 3840, Note_on_c, 1, 67, 84
8, 3840, Note_on_c, 1, 74, 84
8, 4544, Note_on_c, 1, 67, 0
8, 4544, Note_on_c, 1, 74, 0
8, 4560, Note_on_c, 1, 74, 84
8, 4560, Note_on_c, 1, 67, 84
8, 4731, Note_on_c, 1, 74, 0
8, 4731, Note_on_c, 1, 67, 0
8, 4740, Note_on_c, 1, 74, 84
8, 4740, Note_on_c, 1, 67, 84
8, 4791, Note_on_c, 1, 74, 0
8, 4791, Note_on_c, 1, 67, 0
8, 4800, Note_on_c, 1, 76, 84
8, 4800, Note_on_c, 1, 72, 84
8, 5384, Note_on_c, 1, 76, 0
8, 5384, Note_on_c, 1, 72, 0
8, 5400, Note_on_c, 1, 72, 84
8, 5489, Note_on_c, 1, 72, 0
8, 5520, Note_on_c, 1, 74, 84
8, 5609, Note_on_c, 1, 74, 0
8, 5640, Note_on_c, 1, 76, 84
8, 5729, Note_on_c, 1, 76, 0
8, 5760, Note_on_c, 1, 77, 84
8, 5849, Note_on_c, 1, 77, 0
8, 5880, Note_on_c, 1, 76, 84
8, 5969, Note_on_c, 1, 76, 0
8, 6000, Note_on_c, 1, 77, 84
8, 6089, Note_on_c, 1, 77, 0
8, 6120, Note_on_c, 1, 79, 84
8, 6209, Note_on_c, 1, 79, 0
8, 6240, Note_on_c, 1, 81, 84
8, 6329, Note_on_c, 1, 81, 0
8, 6360, Note_on_c, 1, 79, 84
8, 6449, Note_on_c, 1, 79, 0
8, 6480, Note_on_c, 1, 81, 84
8, 6569, Note_on_c, 1, 81, 0
8, 6600, Note_on_c, 1, 83, 84
8, 6689, Note_on_c, 1, 83, 0
8, 6720, Note_on_c, 1, 84, 84
8, 7304, Note_on_c, 1, 84, 0
8, 7320, Note_on_c, 1, 72, 84
8, 7409, Note_on_c, 1, 72, 0
8, 7440, Note_on_c, 1, 74, 84
8, 7529, Note_on_c, 1, 74, 0
8, 7560, Note_on_c, 1, 76, 84
8, 7649, Note_on_c, 1, 76, 0
8, 7680, Note_on_c, 1, 77, 84
8, 7769, Note_on_c, 1, 77, 0
8, 7800, Note_on_c, 1, 76, 84
8, 7889, Note_on_c, 1, 76, 0
8, 7920, Note_on_c, 1, 77, 84
8, 8009, Note_on_c, 1, 77, 0
8, 8040, Note_on_c, 1, 79, 84
8, 8129, Note_on_c, 1, 79, 0
8, 8160, Note_on_c, 1, 81, 84
8, 8249, Note_on_c, 1, 81, 0
8, 8280, Note_on_c, 1, 79, 84
8, 8369, Note_on_c, 1, 79, 0
8, 8400, Note_on_c, 1, 81, 84
8, 8489, Note_on_c, 1, 81, 0
8, 8520, Note_on_c, 1, 83, 84
8, 8609, Note_on_c, 1, 83, 0
8, 8640, Note_on_c, 1, 84, 84
8, 9224, Note_on_c, 1, 84, 0
8, 9240, Note_on_c, 1, 72, 84
8, 9329, Note_on_c, 1, 72, 0
8, 9360, Note_on_c, 1, 74, 84
8, 9449, Note_on_c, 1, 74, 0
8, 9480, Note_on_c, 1, 76, 84
8, 9547, Note_on_c, 1, 76, 0
8, 9560, Note_on_c, 1, 79, 84
8, 9599, Note_on_c, 1, 79, 0
8, 9600, Note_on_c, 1, 77, 84
8, 9689, Note_on_c, 1, 77, 0
8, 9720, Note_on_c, 1, 76, 84
8, 9809, Note_on_c, 1, 76, 0
8, 9840, Note_on_c, 1, 77, 84
8, 9929, Note_on_c, 1, 77, 0
8, 9960, Note_on_c, 1, 79, 84
8, 10027, Note_on_c, 1, 79, 0
8, 10040, Note_on_c, 1, 83, 84
8, 10079, Note_on_c, 1, 83, 0
8, 10080, Note_on_c, 1, 81, 84
8, 10169, Note_on_c, 1, 81, 0
8, 10200, Note_on_c, 1, 79, 84
8, 10289, Note_on_c, 1, 79, 0
8, 10320, Note_on_c, 1, 81, 84
8, 10409, Note_on_c, 1, 81, 0
8, 10440, Note_on_c, 1, 83, 84
8, 10529, Note_on_c, 1, 83, 0
8, 10560, Note_on_c, 1, 79, 84
8, 10560, Note_on_c, 1, 72, 84
8, 10649, Note_on_c, 1, 79, 0
8, 10649, Note_on_c, 1, 72, 0
8, 10680, Note_on_c, 1, 71, 84
8, 10769, Note_on_c, 1, 71, 0
8, 10800, Note_on_c, 1, 72, 84
8, 10889, Note_on_c, 1, 72, 0
8, 10920, Note_on_c, 1, 74, 84
8, 11009, Note_on_c, 1, 74, 0
8, 11040, Note_on_c, 1, 76, 84
8, 11264, Note_on_c, 1, 76, 0
8, 11280, Note_on_c, 1, 76, 84
8, 11280, Note_on_c, 1, 79, 84
8, 11399, Note_on_c, 1, 76, 0
8, 11399, Note_on_c, 1, 79, 0
8, 11460, Note_on_c, 1, 76, 84
8, 11460, Note_on_c, 1, 79, 84
8, 11511, Note_on_c, 1, 76, 0
8, 11511, Note_on_c, 1, 79, 0
8, 11520, Note_on_c, 1, 79, 84
8, 11520, Note_on_c, 1, 76, 84
8, 11639, Note_on_c, 1, 79, 0
8, 11639, Note_on_c, 1, 76, 0
8, 11640, Note_on_c, 1, 74, 84
8, 11640, Note_on_c, 1, 77, 84
8, 11744, Note_on_c, 1, 74, 0
8, 11744, Note_on_c, 1, 77, 0
8, 11760, Note_on_c, 1, 74, 84
8, 11760, Note_on_c, 1, 77, 84
8, 11879, Note_on_c, 1, 74, 0
8, 11879, Note_on_c, 1, 77, 0
8, 11940, Note_on_c, 1, 77, 84
8, 11940, Note_on_c, 1, 74, 84
8, 11991, Note_on_c, 1, 77, 0
8, 11991, Note_on_c, 1, 74, 0
8, 12000, Note_on_c, 1, 77, 84
8, 12000, Note_on_c, 1, 74, 84
8, 12119, Note_on_c, 1, 77, 0
8, 12119, Note_on_c, 1, 74, 0
8, 12120, Note_on_c, 1, 76, 84
8, 12120, Note_on_c, 1, 72, 84
8, 12224, Note_on_c, 1, 76, 0
8, 12224, Note_on_c, 1, 72, 0
8, 12240, Note_on_c, 1, 76, 84
8, 12240, Note_on_c, 1, 72, 84
8, 12359, Note_on_c, 1, 76, 0
8, 12359, Note_on_c, 1, 72, 0
8, 12420, Note_on_c, 1, 72, 84
8, 12420, Note_on_c, 1, 76, 84
8, 12471, Note_on_c, 1, 72, 0
8, 12471, Note_on_c, 1, 76, 0
8, 12480, Note_on_c, 1, 76, 84
8, 12480, Note_on_c, 1, 72, 84
8, 12599, Note_on_c, 1, 76, 0
8, 12599, Note_on_c, 1, 72, 0
8, 12600, Note_on_c, 1, 71, 84
8, 12600, Note_on_c, 1, 74, 84
8, 12704, Note_on_c, 1, 71, 0
8, 12704, Note_on_c, 1, 74, 0
8, 12720, Note_on_c, 1, 74, 84
8, 12720, Note_on_c, 1, 71, 84
8, 13184, Note_on_c, 1, 74, 0
8, 13184, Note_on_c, 1, 71, 0
8, 13200, Note_on_c, 1, 76, 84
8, 13200, Note_on_c, 1, 72, 84
8, 13319, Note_on_c, 1, 76, 0
8, 13319, Note_on_c, 1, 72, 0
8, 13380, Note_on_c, 1, 79, 84
8, 13380, Note_on_c, 1, 76, 84
8, 13431, Note_on_c, 1, 79, 0
8, 13431, Note_on_c, 1, 76, 0
8, 13440, Note_on_c, 1, 76, 84
8, 13440, Note_on_c, 1, 79, 84
8, 13559, Note_on_c, 1, 76, 0
8, 13559, Note_on_c, 1, 79, 0
8, 13560, Note_on_c, 1, 77, 84
8, 13560, Note_on_c, 1, 74, 84
8, 13664, Note_on_c, 1, 77, 0
8, 13664, Note_on_c, 1, 74, 0
8, 13680, Note_on_c, 1, 74, 84
8, 13680, Note_on_c, 1, 77, 84
8, 13799, Note_on_c, 1, 74, 0
8, 13799, Note_on_c, 1, 77, 0
8, 13860, Note_on_c, 1, 77, 84
8, 13860, Note_on_c, 1, 74, 84
8, 13911, Note_on_c, 1, 77, 0
8, 13911, Note_on_c, 1, 74, 0
8, 13920, Note_on_c, 1, 74, 84
8, 13920, Note_on_c, 1, 77, 84
8, 14039, Note_on_c, 1, 74, 0
8, 14039, Note_on_c, 1, 77, 0
8, 14040, Note_on_c, 1, 72, 84
8, 14040, Note_on_c, 1, 76, 84
8, 14144, Note_on_c, 1, 72, 0
8, 14144, Note_on_c, 1, 76, 0
8, 14160, Note_on_c, 1, 76, 84
8, 14160, Note_on_c, 1, 72, 84
8, 14279, Note_on_c, 1, 76, 0
8, 14279, Note_on_c, 1, 72, 0
8, 14340, Note_on_c, 1, 72, 84
8, 14340, Note_on_c, 1, 76, 84
8, 14391, Note_on_c, 1, 72, 0
8, 14391, Note_on_c, 1, 76, 0
8, 14400, Note_on_c, 1, 76, 84
8, 14400, Note_on_c, 1, 72, 84
8, 14519, Note_on_c, 1, 76, 0
8, 14519, Note_on_c, 1, 72, 0
8, 14520, Note_on_c, 1, 71, 84
8, 14520, Note_on_c, 1, 74, 84
8, 14624, Note_on_c, 1, 71, 0
8, 14624, Note_on_c, 1, 74, 0
8, 14640, Note_on_c, 1, 74, 84
8, 14640, Note_on_c, 1, 71, 84
8, 15104, Note_on_c, 1, 74, 0
8, 15104, Note_on_c, 1, 71, 0
8, 15120, Note_on_c, 1, 76, 84
8, 15120, Note_on_c, 1, 72, 84
8, 15209, Note_on_c, 1, 76, 0
8, 15209, Note_on_c, 1, 72, 0
8, 15300, Note_on_c, 1, 79, 84
8, 15300, Note_on_c, 1, 76, 84
8, 15344, Note_on_c, 1, 79, 0
8, 15344, Note_on_c, 1, 76, 0
8, 15360, Note_on_c, 1, 79, 84
8, 15360, Note_on_c, 1, 76, 84
8, 15449, Note_on_c, 1, 79, 0
8, 15449, Note_on_c, 1, 76, 0
8, 15540, Note_on_c, 1, 74, 84
8, 15540, Note_on_c, 1, 77, 84
8, 15584, Note_on_c, 1, 74, 0
8, 15584, Note_on_c, 1, 77, 0
8, 15600, Note_on_c, 1, 77, 84
8, 15600, Note_on_c, 1, 74, 84
8, 15689, Note_on_c, 1, 77, 0
8, 15689, Note_on_c, 1, 74, 0
8, 15780, Note_on_c, 1, 77, 84
8, 15780, Note_on_c, 1, 74, 84
8, 15824, Note_on_c, 1, 77, 0
8, 15824, Note_on_c, 1, 74, 0
8, 15840, Note_on_c, 1, 77, 84
8, 15840, Note_on_c, 1, 74, 84
8, 15929, Note_on_c, 1, 77, 0
8, 15929, Note_on_c, 1, 74, 0
8, 16020, Note_on_c, 1, 76, 84
8, 16020, Note_on_c, 1, 72, 84
8, 16064, Note_on_c, 1, 76, 0
8, 16064, Note_on_c, 1, 72, 0
8, 16080, Note_on_c, 1, 76, 84
8, 16080, Note_on_c, 1, 72, 84
8, 16169, Note_on_c, 1, 76, 0
8, 16169, Note_on_c, 1, 72, 0
8, 16260, Note_on_c, 1, 76, 84
8, 16260, Note_on_c, 1, 72, 84
8, 16304, Note_on_c, 1, 76, 0
8, 16304, Note_on_c, 1, 72, 0
8, 16320, Note_on_c, 1, 71, 84
8, 16320, Note_on_c, 1, 74, 84
8, 16544, Note_on_c, 1, 71, 0
8, 16544, Note_on_c, 1, 74, 0
8, 16560, Note_on_c, 1, 79, 84
8, 17024, Note_on_c, 1, 79, 0
8, 17040, Note_on_c, 1, 81, 84
8, 17099, Note_on_c, 1, 81, 0
8, 17100, Note_on_c, 1, 79, 84
8, 17159, Note_on_c, 1, 79, 0
8, 17160, Note_on_c, 1, 77, 84
8, 17219, Note_on_c, 1, 77, 0
8, 17220, Note_on_c, 1, 76, 84
8, 17271, Note_on_c, 1, 76, 0
8, 17280, Note_on_c, 1, 74, 84
8, 17399, Note_on_c, 1, 74, 0
8, 17460, Note_on_c, 1, 74, 84
8, 17511, Note_on_c, 1, 74, 0
8, 17520, Note_on_c, 1, 79, 84
8, 17984, Note_on_c, 1, 79, 0
8, 18000, Note_on_c, 1, 81, 84
8, 18059, Note_on_c, 1, 81, 0
8, 18060, Note_on_c, 1, 79, 84
8, 18119, Note_on_c, 1, 79, 0
8, 18120, Note_on_c, 1, 77, 84
8, 18179, Note_on_c, 1, 77, 0
8, 18180, Note_on_c, 1, 76, 84
8, 18231, Note_on_c, 1, 76, 0
8, 18240, Note_on_c, 1, 74, 84
8, 18359, Note_on_c, 1, 74, 0
8, 18420, Note_on_c, 1, 79, 84
8, 18471, Note_on_c, 1, 79, 0
8, 18480, Note_on_c, 1, 81, 84
8, 18539, Note_on_c, 1, 81, 0
8, 18540, Note_on_c, 1, 79, 84
8, 18599, Note_on_c, 1, 79, 0
8, 18600, Note_on_c, 1, 77, 84
8, 18659, Note_on_c, 1, 77, 0
8, 18660, Note_on_c, 1, 76, 84
8, 18711, Note_on_c, 1, 76, 0
8, 18720, Note_on_c, 1, 74, 84
8, 18839, Note_on_c, 1, 74, 0
8, 18900, Note_on_c, 1, 79, 84
8, 18951, Note_on_c, 1, 79, 0
8, 18960, Note_on_c, 1, 81, 84
8, 19019, Note_on_c, 1, 81, 0
8, 19020, Note_on_c, 1, 79, 84
8, 19079, Note_on_c, 1, 79, 0
8, 19080, Note_on_c, 1, 77, 84
8, 19139, Note_on_c, 1, 77, 0
8, 19140, Note_on_c, 1, 76, 84
8, 19191, Note_on_c, 1, 76, 0
8, 19200, Note_on_c, 1, 74, 84
8, 19319, Note_on_c, 1, 74, 0
8, 19380, Note_on_c, 1, 79, 84
8, 19431, Note_on_c, 1, 79, 0
8, 19440, Note_on_c, 1, 81, 84
8, 19499, Note_on_c, 1, 81, 0
8, 19500, Note_on_c, 1, 79, 84
8, 19559, Note_on_c, 1, 79, 0
8, 19560, Note_on_c, 1, 77, 84
8, 19619, Note_on_c, 1, 77, 0
8, 19620, Note_on_c, 1, 76, 84
8, 19671, Note_on_c, 1, 76, 0
8, 19680, Note_on_c, 1, 74, 84
8, 19799, Note_on_c, 1, 74, 0
8, 19860, Note_on_c, 1, 79, 84
8, 19911, Note_on_c, 1, 79, 0
8, 19920, Note_on_c, 1, 81, 84
8, 19979, Note_on_c, 1, 81, 0
8, 19980, Note_on_c, 1, 79, 84
8, 20039, Note_on_c, 1, 79, 0
8, 20040, Note_on_c, 1, 77, 84
8, 20099, Note_on_c, 1, 77, 0
8, 20100, Note_on_c, 1, 76, 84
8, 20151, Note_on_c, 1, 76, 0
8, 20160, Note_on_c, 1, 74, 84
8, 20279, Note_on_c, 1, 74, 0
8, 22200, Note_on_c, 1, 72, 92
8, 22319, Note_on_c, 1, 72, 0
8, 22320, Note_on_c, 1, 71, 84
8, 22424, Note_on_c, 1, 71, 0
8, 22440, Note_on_c, 1, 69, 84
8, 22529, Note_on_c, 1, 69, 0
8, 22560, Note_on_c, 1, 67, 84
8, 22649, Note_on_c, 1, 67, 0
8, 22680, Note_on_c, 1, 72, 92
8, 22799, Note_on_c, 1, 72, 0
8, 22800, Note_on_c, 1, 71, 84
8, 22904, Note_on_c, 1, 71, 0
8, 22920, Note_on_c, 1, 69, 84
8, 23009, Note_on_c, 1, 69, 0
8, 23040, Note_on_c, 1, 67, 84
8, 23129, Note_on_c, 1, 67, 0
8, 23160, Note_on_c, 1, 72, 92
8, 23279, Note_on_c, 1, 72, 0
8, 23280, Note_on_c, 1, 71, 84
8, 23384, Note_on_c, 1, 71, 0
8, 23400, Note_on_c, 1, 69, 84
8, 23489, Note_on_c, 1, 69, 0
8, 23520, Note_on_c, 1, 67, 84
8, 23609, Note_on_c, 1, 67, 0
8, 23640, Note_on_c, 1, 77, 84
8, 23729, Note_on_c, 1, 77, 0
8, 23760, Note_on_c, 1, 76, 84
8, 23849, Note_on_c, 1, 76, 0
8, 23880, Note_on_c, 1, 74, 84
8, 23969, Note_on_c, 1, 74, 0
8, 24000, Note_on_c, 1, 72, 84
8, 24000, Note_on_c, 1, 64, 84
8, 24704, Note_on_c, 1, 72, 0
8, 24704, Note_on_c, 1, 64, 0
8, 24720, Note_on_c, 1, 67, 84
8, 24720, Note_on_c, 1, 64, 84
8, 24959, Note_on_c, 1, 67, 0
8, 24959, Note_on_c, 1, 64, 0
8, 24960, Note_on_c, 1, 76, 84
8, 24960, Note_on_c, 1, 67, 84
8, 25679, Note_on_c, 1, 76, 0
8, 25679, Note_on_c, 1, 67, 0
8, 25680, Note_on_c, 1, 74, 84
8, 25680, Note_on_c, 1, 65, 84
8, 25859, Note_on_c, 1, 74, 0
8, 25859, Note_on_c, 1, 65, 0
8, 25860, Note_on_c, 1, 64, 84
8, 25860, Note_on_c, 1, 72, 84
8, 25911, Note_on_c, 1, 64, 0
8, 25911, Note_on_c, 1, 72, 0
8, 25920, Note_on_c, 1, 62, 84
8, 25920, Note_on_c, 1, 71, 84
8, 26159, Note_on_c, 1, 62, 0
8, 26159, Note_on_c, 1, 71, 0
8, 27840, Note_on_c, 1, 74, 84
8, 27840, Note_on_c, 1, 71, 84
8, 28544, Note_on_c, 1, 74, 0
8, 28544, Note_on_c, 1, 71, 0
8, 28560, Note_on_c, 1, 67, 84
8, 28799, Note_on_c, 1, 67, 0
8, 28800, Note_on_c, 1, 77, 84
8, 28800, Note_on_c, 1, 74, 84
8, 29519, Note_on_c, 1, 77, 0
8, 29519, Note_on_c, 1, 74, 0
8, 29520, Note_on_c, 1, 72, 84
8, 29520, Note_on_c, 1, 76, 84
8, 29699, Note_on_c, 1, 72, 0
8, 29699, Note_on_c, 1, 76, 0
8, 29700, Note_on_c, 1, 71, 84
8, 29700, Note_on_c, 1, 74, 84
8, 29751, Note_on_c, 1, 71, 0
8, 29751, Note_on_c, 1, 74, 0
8, 29760, Note_on_c, 1, 74, 84
8, 29760, Note_on_c, 1, 71, 84
8, 29999, Note_on_c, 1, 74, 0
8, 29999, Note_on_c, 1, 71, 0
8, 30000, Note_on_c, 1, 72, 84
8, 30000, Note_on_c, 1, 76, 84
8, 31664, Note_on_c, 1, 72, 0
8, 31664, Note_on_c, 1, 76, 0
8, 31680, Note_on_c, 1, 84, 84
8, 31680, Note_on_c, 1, 76, 84
8, 31919, Note_on_c, 1, 84, 0
8, 31919, Note_on_c, 1, 76, 0
8, 32640, Note_on_c, 1, 76, 84
8, 32640, Note_on_c, 1, 84, 84
8, 32879, Note_on_c, 1, 76, 0
8, 32879, Note_on_c, 1, 84, 0
8, 33600, Note_on_c, 1, 81, 84
8, 33600, Note_on_c, 1, 78, 84
8, 33839, Note_on_c, 1, 81, 0
8, 33839, Note_on_c, 1, 78, 0
8, 34560, Note_on_c, 1, 78, 84
8, 34560, Note_on_c, 1, 81, 84
8, 34799, Note_on_c, 1, 78, 0
8, 34799, Note_on_c, 1, 81, 0
8, 35520, Note_on_c, 1, 79, 84
8, 35520, Note_on_c, 1, 83, 84
8, 35759, Note_on_c, 1, 79, 0
8, 35759, Note_on_c, 1, 83, 0
8, 36000, Note_on_c, 1, 83, 84
8, 36000, Note_on_c, 1, 79, 84
8, 36239, Note_on_c, 1, 83, 0
8, 36239, Note_on_c, 1, 79, 0
8, 36480, Note_on_c, 1, 81, 84
8, 36480, Note_on_c, 1, 78, 84
8, 36719, Note_on_c, 1, 81, 0
8, 36719, Note_on_c, 1, 78, 0
8, 36960, Note_on_c, 1, 78, 84
8, 36960, Note_on_c, 1, 81, 84
8, 37199, Note_on_c, 1, 78, 0
8, 37199, Note_on_c, 1, 81, 0
8, 37440, Note_on_c, 1, 79, 84
8, 37440, Note_on_c, 1, 83, 84
8, 37679, Note_on_c, 1, 79, 0
8, 37679, Note_on_c, 1, 83, 0
8, 37920, Note_on_c, 1, 83, 84
8, 37920, Note_on_c, 1, 79, 84
8, 38159, Note_on_c, 1, 83, 0
8, 38159, Note_on_c, 1, 79, 0
8, 38400, Note_on_c, 1, 81, 84
8, 38400, Note_on_c, 1, 78, 84
8, 38624, Note_on_c, 1, 81, 0
8, 38624, Note_on_c, 1, 78, 0
8, 38640, Note_on_c, 1, 86, 84
8, 38640, Note_on_c, 1, 74, 84
8, 39944, Note_on_c, 1, 86, 0
8, 39944, Note_on_c, 1, 74, 0
8, 39960, Note_on_c, 1, 74, 84
8, 39960, Note_on_c, 1, 78, 84
8, 40079, Note_on_c, 1, 74, 0
8, 40079, Note_on_c, 1, 78, 0
8, 40080, Note_on_c, 1, 73, 84
8, 40080, Note_on_c, 1, 79, 84
8, 40184, Note_on_c, 1, 73, 0
8, 40184, Note_on_c, 1, 79, 0
8, 40200, Note_on_c, 1, 79, 84
8, 40200, Note_on_c, 1, 73, 84
8, 40289, Note_on_c, 1, 79, 0
8, 40289, Note_on_c, 1, 73, 0
8, 40320, Note_on_c, 1, 78, 84
8, 40320, Note_on_c, 1, 74, 84
8, 40424, Note_on_c, 1, 78, 0
8, 40424, Note_on_c, 1, 74, 0
8, 40440, Note_on_c, 1, 74, 84
8, 40559, Note_on_c, 1, 74, 0
8, 40560, Note_on_c, 1, 73, 84
8, 40664, Note_on_c, 1, 73, 0
8, 40680, Note_on_c, 1, 79, 84
8, 40769, Note_on_c, 1, 79, 0
8, 40800, Note_on_c, 1, 78, 84
8, 40919, Note_on_c, 1, 78, 0
8, 42240, Note_on_c, 1, 83, 84
8, 42240, Note_on_c, 1, 74, 84
8, 42479, Note_on_c, 1, 83, 0
8, 42479, Note_on_c, 1, 74, 0
8, 42720, Note_on_c, 1, 84, 84
8, 42720, Note_on_c, 1, 76, 84
8, 42959, Note_on_c, 1, 84, 0
8, 42959, Note_on_c, 1, 76, 0
8, 43200, Note_on_c, 1, 83, 84
8, 43200, Note_on_c, 1, 74, 84
8, 43919, Note_on_c, 1, 83, 0
8, 43919, Note_on_c, 1, 74, 0
8, 45840, Note_on_c, 1, 66, 76
8, 45840, Note_on_c, 1, 69, 76
8, 45907, Note_on_c, 1, 66, 0
8, 45907, Note_on_c, 1, 69, 0
8, 45920, Note_on_c, 1, 67, 76
8, 45920, Note_on_c, 1, 71, 76
8, 45987, Note_on_c, 1, 67, 0
8, 45987, Note_on_c, 1, 71, 0
8, 46000, Note_on_c, 1, 72, 76
8, 46000, Note_on_c, 1, 69, 76
8, 46067, Note_on_c, 1, 72, 0
8, 46067, Note_on_c, 1, 69, 0
8, 46080, Note_on_c, 1, 74, 76
8, 46080, Note_on_c, 1, 71, 76
8, 46304, Note_on_c, 1, 74, 0
8, 46304, Note_on_c, 1, 71, 0
8, 46320, Note_on_c, 1, 67, 76
8, 46320, Note_on_c, 1, 71, 76
8, 46387, Note_on_c, 1, 67, 0
8, 46387, Note_on_c, 1, 71, 0
8, 46400, Note_on_c, 1, 69, 76
8, 46400, Note_on_c, 1, 72, 76
8, 46467, Note_on_c, 1, 69, 0
8, 46467, Note_on_c, 1, 72, 0
8, 46480, Note_on_c, 1, 71, 76
8, 46480, Note_on_c, 1, 74, 76
8, 46547, Note_on_c, 1, 71, 0
8, 46547, Note_on_c, 1, 74, 0
8, 46560, Note_on_c, 1, 72, 76
8, 46560, Note_on_c, 1, 76, 76
8, 46784, Note_on_c, 1, 72, 0
8, 46784, Note_on_c, 1, 76, 0
8, 46800, Note_on_c, 1, 76, 76
8, 46800, Note_on_c, 1, 72, 76
8, 46867, Note_on_c, 1, 76, 0
8, 46867, Note_on_c, 1, 72, 0
8, 46880, Note_on_c, 1, 74, 76
8, 46880, Note_on_c, 1, 78, 76
8, 46947, Note_on_c, 1, 74, 0
8, 46947, Note_on_c, 1, 78, 0
8, 46960, Note_on_c, 1, 76, 76
8, 46960, Note_on_c, 1, 79, 76
8, 47027, Note_on_c, 1, 76, 0
8, 47027, Note_on_c, 1, 79, 0
8, 47040, Note_on_c, 1, 71, 76
8, 47040, Note_on_c, 1, 74, 76
8, 47759, Note_on_c, 1, 71, 0
8, 47759, Note_on_c, 1, 74, 0
8, 51840, Control_c, 1, 11, 48
8, 52560, Note_on_c, 1, 72, 84
8, 52799, Note_on_c, 1, 72, 0
8, 52800, Note_on_c, 1, 74, 84
8, 52800, Control_c, 1, 11, 48
8, 52800, Note_on_c, 1, 71, 84
8, 52853, Control_c, 1, 11, 50
8, 52907, Control_c, 1, 11, 52
8, 52960, Control_c, 1, 11, 55
8, 53013, Control_c, 1, 11, 57
8, 53067, Control_c, 1, 11, 59
8, 53120, Control_c, 1, 11, 61
8, 53173, Control_c, 1, 11, 63
8, 53227, Control_c, 1, 11, 66
8, 53280, Control_c, 1, 11, 68
8, 53333, Control_c, 1, 11, 70
8, 53387, Control_c, 1, 11, 72
8, 53440, Control_c, 1, 11, 74
8, 53493, Control_c, 1, 11, 77
8, 53547, Control_c, 1, 11, 79
8, 53600, Control_c, 1, 11, 81
8, 53653, Control_c, 1, 11, 83
8, 53707, Control_c, 1, 11, 85
8, 53744, Note_on_c, 1, 74, 0
8, 53744, Note_on_c, 1, 71, 0
8, 53760, Control_c, 1, 11, 88
8, 53760, Note_on_c, 1, 75, 84
8, 53760, Note_on_c, 1, 71, 84
8, 53813, Control_c, 1, 11, 90
8, 53867, Control_c, 1, 11, 92
8, 53920, Control_c, 1, 11, 94
8, 53973, Control_c, 1, 11, 96
8, 54027, Control_c, 1, 11, 98
8, 54080, Control_c, 1, 11, 101
8, 54133, Control_c, 1, 11, 103
8, 54187, Control_c, 1, 11, 105
8, 54240, Control_c, 1, 11, 107
8, 54293, Control_c, 1, 11, 109
8, 54347, Control_c, 1, 11, 112
8, 54400, Control_c, 1, 11, 114
8, 54453, Control_c, 1, 11, 116
8, 54507, Control_c, 1, 11, 118
8, 54560, Control_c, 1, 11, 120
8, 54613, Control_c, 1, 11, 123
8, 54667, Control_c, 1, 11, 127
8, 54704, Note_on_c, 1, 75, 0
8, 54704, Note_on_c, 1, 71, 0
8, 54720, Note_on_c, 1, 84, 84
8, 54720, Note_on_c, 1, 76, 84
8, 55199, Note_on_c, 1, 84, 0
8, 55199, Note_on_c, 1, 76, 0
8, 55200, Note_on_c, 1, 84, 84
8, 55200, Note_on_c, 1, 76, 84
8, 55304, Note_on_c, 1, 84, 0
8, 55304, Note_on_c, 1, 76, 0
8, 55320, Note_on_c, 1, 76, 84
8, 55320, Note_on_c, 1, 84, 84
8, 55424, Note_on_c, 1, 76, 0
8, 55424, Note_on_c, 1, 84, 0
8, 55440, Note_on_c, 1, 76, 84
8, 55440, Note_on_c, 1, 84, 84
8, 55544, Note_on_c, 1, 76, 0
8, 55544, Note_on_c, 1, 84, 0
8, 55560, Note_on_c, 1, 84, 84
8, 55560, Note_on_c, 1, 76, 84
8, 55664, Note_on_c, 1, 84, 0
8, 55664, Note_on_c, 1, 76, 0
8, 55680, Note_on_c, 1, 76, 84
8, 55680, Note_on_c, 1, 84, 84
8, 55784, Note_on_c, 1, 76, 0
8, 55784, Note_on_c, 1, 84, 0
8, 55800, Note_on_c, 1, 84, 84
8, 55800, Note_on_c, 1, 76, 84
8, 55904, Note_on_c, 1, 84, 0
8, 55904, Note_on_c, 1, 76, 0
8, 55920, Note_on_c, 1, 76, 84
8, 55920, Note_on_c, 1, 84, 84
8, 56024, Note_on_c, 1, 76, 0
8, 56024, Note_on_c, 1, 84, 0
8, 56040, Note_on_c, 1, 84, 84
8, 56040, Note_on_c, 1, 76, 84
8, 56144, Note_on_c, 1, 84, 0
8, 56144, Note_on_c, 1, 76, 0
8, 56160, Note_on_c, 1, 76, 84
8, 56160, Note_on_c, 1, 84, 84
8, 56264, Note_on_c, 1, 76, 0
8, 56264, Note_on_c, 1, 84, 0
8, 56280, Note_on_c, 1, 76, 84
8, 56280, Note_on_c, 1, 84, 84
8, 56384, Note_on_c, 1, 76, 0
8, 56384, Note_on_c, 1, 84, 0
8, 56400, Note_on_c, 1, 84, 84
8, 56400, Note_on_c, 1, 76, 84
8, 56504, Note_on_c, 1, 84, 0
8, 56504, Note_on_c, 1, 76, 0
8, 56520, Note_on_c, 1, 84, 84
8, 56520, Note_on_c, 1, 76, 84
8, 56624, Note_on_c, 1, 84, 0
8, 56624, Note_on_c, 1, 76, 0
8, 56640, Note_on_c, 1, 76, 84
8, 56640, Note_on_c, 1, 84, 84
8, 56864, Note_on_c, 1, 76, 0
8, 56864, Note_on_c, 1, 84, 0
8, 56880, Note_on_c, 1, 73, 84
8, 57104, Note_on_c, 1, 73, 0
8, 57120, Note_on_c, 1, 74, 84
8, 57344, Note_on_c, 1, 74, 0
8, 57360, Note_on_c, 1, 75, 84
8, 57584, Note_on_c, 1, 75, 0
8, 57600, Note_on_c, 1, 76, 84
8, 57824, Note_on_c, 1, 76, 0
8, 57840, Note_on_c, 1, 78, 84
8, 58064, Note_on_c, 1, 78, 0
8, 58080, Note_on_c, 1, 79, 84
8, 58184, Note_on_c, 1, 79, 0
8, 58200, Note_on_c, 1, 71, 84
8, 58200, Note_on_c, 1, 74, 84
8, 58304, Note_on_c, 1, 71, 0
8, 58304, Note_on_c, 1, 74, 0
8, 58320, Note_on_c, 1, 69, 84
8, 58320, Note_on_c, 1, 72, 84
8, 58424, Note_on_c, 1, 69, 0
8, 58424, Note_on_c, 1, 72, 0
8, 58440, Note_on_c, 1, 67, 84
8, 58440, Note_on_c, 1, 71, 84
8, 58544, Note_on_c, 1, 67, 0
8, 58544, Note_on_c, 1, 71, 0
8, 58560, Note_on_c, 1, 84, 84
8, 58560, Note_on_c, 1, 81, 84
8, 58739, Note_on_c, 1, 84, 0
8, 58739, Note_on_c, 1, 81, 0
8, 59520, Note_on_c, 1, 81, 84
8, 59520, Note_on_c, 1, 78, 84
8, 59699, Note_on_c, 1, 81, 0
8, 59699, Note_on_c, 1, 78, 0
8, 65520, Note_on_c, 1, 77, 48
8, 65744, Note_on_c, 1, 77, 0
8, 65760, Note_on_c, 1, 77, 48
8, 65984, Note_on_c, 1, 77, 0
8, 66000, Note_on_c, 1, 77, 48
8, 66224, Note_on_c, 1, 77, 0
8, 66240, Note_on_c, 1, 76, 48
8, 66704, Note_on_c, 1, 76, 0
8, 66720, Note_on_c, 1, 76, 48
8, 67139, Note_on_c, 1, 76, 0
8, 67140, Note_on_c, 1, 72, 48
8, 67199, Note_on_c, 1, 72, 0
8, 67200, Note_on_c, 1, 71, 48
8, 67679, Note_on_c, 1, 71, 0
8, 67680, Note_on_c, 1, 72, 48
8, 68099, Note_on_c, 1, 72, 0
8, 68100, Note_on_c, 1, 69, 48
8, 68151, Note_on_c, 1, 69, 0
8, 68160, Note_on_c, 1, 79, 76
8, 68864, Note_on_c, 1, 79, 0
8, 68880, Note_on_c, 1, 78, 76
8, 69104, Note_on_c, 1, 78, 0
8, 69120, Note_on_c, 1, 76, 76
8, 69344, Note_on_c, 1, 76, 0
8, 69360, Note_on_c, 1, 74, 76
8, 69584, Note_on_c, 1, 74, 0
8, 69600, Note_on_c, 1, 74, 76
8, 69824, Note_on_c, 1, 74, 0
8, 69840, Note_on_c, 1, 74, 76
8, 70064, Note_on_c, 1, 74, 0
8, 70080, Note_on_c, 1, 79, 84
8, 70200, Control_c, 1, 11, 112
8, 70784, Note_on_c, 1, 79, 0
8, 70800, Note_on_c, 1, 78, 84
8, 71024, Note_on_c, 1, 78, 0
8, 71040, Note_on_c, 1, 76, 84
8, 71264, Note_on_c, 1, 76, 0
8, 71280, Note_on_c, 1, 74, 84
8, 71504, Note_on_c, 1, 74, 0
8, 71520, Note_on_c, 1, 74, 84
8, 71744, Note_on_c, 1, 74, 0
8, 71760, Note_on_c, 1, 74, 84
8, 71984, Note_on_c, 1, 74, 0
8, 71998, Control_c, 1, 11, 127
8, 72000, Note_on_c, 1, 81, 84
8, 72000, Note_on_c, 1, 84, 84
8, 72120, Control_c, 1, 11, 112
8, 72704, Note_on_c, 1, 81, 0
8, 72704, Note_on_c, 1, 84, 0
8, 72720, Note_on_c, 1, 79, 84
8, 72720, Note_on_c, 1, 83, 84
8, 72944, Note_on_c, 1, 79, 0
8, 72944, Note_on_c, 1, 83, 0
8, 72958, Control_c, 1, 11, 127
8, 72960, Note_on_c, 1, 76, 76
8, 72960, Note_on_c, 1, 81, 76
8, 73184, Note_on_c, 1, 76, 0
8, 73184, Note_on_c, 1, 81, 0
8, 73200, Note_on_c, 1, 80, 80
8, 73200, Note_on_c, 1, 77, 80
8, 73424, Note_on_c, 1, 80, 0
8, 73424, Note_on_c, 1, 77, 0
8, 73440, Note_on_c, 1, 77, 80
8, 73440, Note_on_c, 1, 80, 80
8, 73664, Note_on_c, 1, 77, 0
8, 73664, Note_on_c, 1, 80, 0
8, 73680, Note_on_c, 1, 80, 80
8, 73680, Note_on_c, 1, 77, 80
8, 73904, Note_on_c, 1, 80, 0
8, 73904, Note_on_c, 1, 77, 0
8, 73920, Note_on_c, 1, 80, 80
8, 73920, Note_on_c, 1, 77, 80
8, 74144, Note_on_c, 1, 80, 0
8, 74144, Note_on_c, 1, 77, 0
8, 74160, Note_on_c, 1, 77, 80
8, 74160, Note_on_c, 1, 80, 80
8, 74384, Note_on_c, 1, 77, 0
8, 74384, Note_on_c, 1, 80, 0
8, 74400, Note_on_c, 1, 77, 80
8, 74400, Note_on_c, 1, 80, 80
8, 74624, Note_on_c, 1, 77, 0
8, 74624, Note_on_c, 1, 80, 0
8, 74640, Note_on_c, 1, 80, 80
8, 74640, Note_on_c, 1, 77, 80
8, 74864, Note_on_c, 1, 80, 0
8, 74864, Note_on_c, 1, 77, 0
8, 74880, Note_on_c, 1, 80, 80
8, 74880, Note_on_c, 1, 77, 80
8, 75104, Note_on_c, 1, 80, 0
8, 75104, Note_on_c, 1, 77, 0
8, 75120, Note_on_c, 1, 77, 80
8, 75120, Note_on_c, 1, 80, 80
8, 75344, Note_on_c, 1, 77, 0
8, 75344, Note_on_c, 1, 80, 0
8, 75360, Note_on_c, 1, 80, 80
8, 75360, Note_on_c, 1, 77, 80
8, 75584, Note_on_c, 1, 80, 0
8, 75584, Note_on_c, 1, 77, 0
8, 75600, Note_on_c, 1, 80, 80
8, 75600, Note_on_c, 1, 77, 80
8, 75824, Note_on_c, 1, 80, 0
8, 75824, Note_on_c, 1, 77, 0
8, 75840, Note_on_c, 1, 77, 84
8, 77744, Note_on_c, 1, 77, 0
8, 77760, Note_on_c, 1, 77, 84
8, 77760, Note_on_c, 1, 74, 84
8, 78464, Note_on_c, 1, 77, 0
8, 78464, Note_on_c, 1, 74, 0
8, 78480, Note_on_c, 1, 74, 84
8, 78480, Note_on_c, 1, 77, 84
8, 78584, Note_on_c, 1, 74, 0
8, 78584, Note_on_c, 1, 77, 0
8, 78600, Note_on_c, 1, 77, 84
8, 78600, Note_on_c, 1, 74, 84
8, 78704, Note_on_c, 1, 77, 0
8, 78704, Note_on_c, 1, 74, 0
8, 78720, Note_on_c, 1, 74, 84
8, 78720, Note_on_c, 1, 77, 84
8, 79424, Note_on_c, 1, 74, 0
8, 79424, Note_on_c, 1, 77, 0
8, 79440, Note_on_c, 1, 77, 84
8, 79440, Note_on_c, 1, 74, 84
8, 79544, Note_on_c, 1, 77, 0
8, 79544, Note_on_c, 1, 74, 0
8, 79560, Note_on_c, 1, 77, 84
8, 79560, Note_on_c, 1, 74, 84
8, 79664, Note_on_c, 1, 77, 0
8, 79664, Note_on_c, 1, 74, 0
8, 79680, Note_on_c, 1, 74, 84
8, 79680, Note_on_c, 1, 77, 84
8, 79904, Note_on_c, 1, 74, 0
8, 79904, Note_on_c, 1, 77, 0
8, 79920, Note_on_c, 1, 74, 84
8, 79920, Note_on_c, 1, 77, 84
8, 80024, Note_on_c, 1, 74, 0
8, 80024, Note_on_c, 1, 77, 0
8, 80040, Note_on_c, 1, 77, 84
8, 80040, Note_on_c, 1, 74, 84
8, 80144, Note_on_c, 1, 77, 0
8, 80144, Note_on_c, 1, 74, 0
8, 80160, Note_on_c, 1, 74, 84
8, 80160, Note_on_c, 1, 77, 84
8, 80384, Note_on_c, 1, 74, 0
8, 80384, Note_on_c, 1, 77, 0
8, 80400, Note_on_c, 1, 74, 84
8, 80400, Note_on_c, 1, 77, 84
8, 80504, Note_on_c, 1, 74, 0
8, 80504, Note_on_c, 1, 77, 0
8, 80520, Note_on_c, 1, 74, 84
8, 80520, Note_on_c, 1, 77, 84
8, 80624, Note_on_c, 1, 74, 0
8, 80624, Note_on_c, 1, 77, 0
8, 80640, Note_on_c, 1, 71, 84
8, 80744, Note_on_c, 1, 71, 0
8, 80760, Note_on_c, 1, 67, 84
8, 80864, Note_on_c, 1, 67, 0
8, 80880, Note_on_c, 1, 74, 84
8, 80984, Note_on_c, 1, 74, 0
8, 81000, Note_on_c, 1, 71, 84
8, 81104, Note_on_c, 1, 71, 0
8, 81120, Note_on_c, 1, 77, 84
8, 81224, Note_on_c, 1, 77, 0
8, 81240, Note_on_c, 1, 74, 84
8, 81344, Note_on_c, 1, 74, 0
8, 81360, Note_on_c, 1, 83, 84
8, 81464, Note_on_c, 1, 83, 0
8, 81480, Note_on_c, 1, 79, 84
8, 81584, Note_on_c, 1, 79, 0
8, 81600, Note_on_c, 1, 84, 84
8, 81839, Note_on_c, 1, 84, 0
8, 82080, Note_on_c, 1, 76, 84
8, 82080, Note_on_c, 1, 72, 84
8, 82544, Note_on_c, 1, 76, 0
8, 82544, Note_on_c, 1, 72, 0
8, 82560, Note_on_c, 1, 79, 84
8, 82560, Note_on_c, 1, 76, 84
8, 83264, Note_on_c, 1, 79, 0
8, 83264, Note_on_c, 1, 76, 0
8, 83280, Note_on_c, 1, 77, 84
8, 83280, Note_on_c, 1, 74, 84
8, 83399, Note_on_c, 1, 77, 0
8, 83399, Note_on_c, 1, 74, 0
8, 83520, Note_on_c, 1, 72, 84
8, 83520, Note_on_c, 1, 76, 84
8, 83639, Note_on_c, 1, 72, 0
8, 83639, Note_on_c, 1, 76, 0
8, 83760, Note_on_c, 1, 74, 84
8, 83760, Note_on_c, 1, 67, 84
8, 83879, Note_on_c, 1, 74, 0
8, 83879, Note_on_c, 1, 67, 0
8, 84000, Note_on_c, 1, 64, 84
8, 84000, Note_on_c, 1, 72, 84
8, 84119, Note_on_c, 1, 64, 0
8, 84119, Note_on_c, 1, 72, 0
8, 84240, Note_on_c, 1, 74, 84
8, 84240, Note_on_c, 1, 67, 84
8, 84359, Note_on_c, 1, 74, 0
8, 84359, Note_on_c, 1, 67, 0
8, 84480, Note_on_c, 1, 64, 84
8, 84480, Note_on_c, 1, 72, 84
8, 85184, Note_on_c, 1, 64, 0
8, 85184, Note_on_c, 1, 72, 0
8, 85200, Note_on_c, 1, 72, 84
8, 85200, Note_on_c, 1, 64, 84
8, 85371, Note_on_c, 1, 72, 0
8, 85371, Note_on_c, 1, 64, 0
8, 85380, Note_on_c, 1, 64, 84
8, 85380, Note_on_c, 1, 72, 84
8, 85431, Note_on_c, 1, 64, 0
8, 85431, Note_on_c, 1, 72, 0
8, 85440, Note_on_c, 1, 74, 84
8, 85440, Note_on_c, 1, 67, 84
8, 86144, Note_on_c, 1, 74, 0
8, 86144, Note_on_c, 1, 67, 0
8, 86160, Note_on_c, 1, 67, 84
8, 86160, Note_on_c, 1, 74, 84
8, 86331, Note_on_c, 1, 67, 0
8, 86331, Note_on_c, 1, 74, 0
8, 86340, Note_on_c, 1, 67, 84
8, 86340, Note_on_c, 1, 74, 84
8, 86391, Note_on_c, 1, 67, 0
8, 86391, Note_on_c, 1, 74, 0
8, 86400, Note_on_c, 1, 72, 84
8, 86400, Note_on_c, 1, 76, 84
8, 86984, Note_on_c, 1, 72, 0
8, 86984, Note_on_c, 1, 76, 0
8, 87000, Note_on_c, 1, 72, 84
8, 87089, Note_on_c, 1, 72, 0
8, 87120, Note_on_c, 1, 74, 84
8, 87209, Note_on_c, 1, 74, 0
8, 87240, Note_on_c, 1, 76, 84
8, 87329, Note_on_c, 1, 76, 0
8, 87360, Note_on_c, 1, 77, 84
8, 87449, Note_on_c, 1, 77, 0
8, 87480, Note_on_c, 1, 76, 84
8, 87569, Note_on_c, 1, 76, 0
8, 87600, Note_on_c, 1, 77, 84
8, 87689, Note_on_c, 1, 77, 0
8, 87720, Note_on_c, 1, 79, 84
8, 87809, Note_on_c, 1, 79, 0
8, 87840, Note_on_c, 1, 81, 84
8, 87929, Note_on_c, 1, 81, 0
8, 87960, Note_on_c, 1, 79, 84
8, 88049, Note_on_c, 1, 79, 0
8, 88080, Note_on_c, 1, 81, 84
8, 88169, Note_on_c, 1, 81, 0
8, 88200, Note_on_c, 1, 83, 84
8, 88289, Note_on_c, 1, 83, 0
8, 88320, Note_on_c, 1, 84, 84
8, 88904, Note_on_c, 1, 84, 0
8, 88920, Note_on_c, 1, 72, 84
8, 89009, Note_on_c, 1, 72, 0
8, 89040, Note_on_c, 1, 74, 84
8, 89129, Note_on_c, 1, 74, 0
8, 89160, Note_on_c, 1, 76, 84
8, 89249, Note_on_c, 1, 76, 0
8, 89280, Note_on_c, 1, 77, 84
8, 89369, Note_on_c, 1, 77, 0
8, 89400, Note_on_c, 1, 76, 84
8, 89489, Note_on_c, 1, 76, 0
8, 89520, Note_on_c, 1, 77, 84
8, 89609, Note_on_c, 1, 77, 0
8, 89640, Note_on_c, 1, 79, 84
8, 89729, Note_on_c, 1, 79, 0
8, 89760, Note_on_c, 1, 81, 84
8, 89849, Note_on_c, 1, 81, 0
8, 89880, Note_on_c, 1, 79, 84
8, 89969, Note_on_c, 1, 79, 0
8, 90000, Note_on_c, 1, 81, 84
8, 90089, Note_on_c, 1, 81, 0
8, 90120, Note_on_c, 1, 83, 84
8, 90209, Note_on_c, 1, 83, 0
8, 90240, Note_on_c, 1, 84, 84
8, 90824, Note_on_c, 1, 84, 0
8, 90840, Note_on_c, 1, 72, 84
8, 90929, Note_on_c, 1, 72, 0
8, 90960, Note_on_c, 1, 74, 84
8, 91049, Note_on_c, 1, 74, 0
8, 91080, Note_on_c, 1, 76, 84
8, 91147, Note_on_c, 1, 76, 0
8, 91160, Note_on_c, 1, 79, 84
8, 91199, Note_on_c, 1, 79, 0
8, 91200, Note_on_c, 1, 77, 84
8, 91289, Note_on_c, 1, 77, 0
8, 91320, Note_on_c, 1, 76, 84
8, 91409, Note_on_c, 1, 76, 0
8, 91440, Note_on_c, 1, 77, 84
8, 91529, Note_on_c, 1, 77, 0
8, 91560, Note_on_c, 1, 79, 84
8, 91627, Note_on_c, 1, 79, 0
8, 91640, Note_on_c, 1, 83, 84
8, 91679, Note_on_c, 1, 83, 0
8, 91680, Note_on_c, 1, 81, 84
8, 91769, Note_on_c, 1, 81, 0
8, 91800, Note_on_c, 1, 79, 84
8, 91889, Note_on_c, 1, 79, 0
8, 91920, Note_on_c, 1, 81, 84
8, 92009, Note_on_c, 1, 81, 0
8, 92040, Note_on_c, 1, 83, 84
8, 92129, Note_on_c, 1, 83, 0
8, 92160, Note_on_c, 1, 72, 84
8, 92160, Note_on_c, 1, 79, 84
8, 92249, Note_on_c, 1, 72, 0
8, 92249, Note_on_c, 1, 79, 0
8, 92280, Note_on_c, 1, 71, 84
8, 92369, Note_on_c, 1, 71, 0
8, 92400, Note_on_c, 1, 72, 84
8, 92489, Note_on_c, 1, 72, 0
8, 92520, Note_on_c, 1, 74, 84
8, 92609, Note_on_c, 1, 74, 0
8, 92640, Note_on_c, 1, 76, 84
8, 92864, Note_on_c, 1, 76, 0
8, 92880, Note_on_c, 1, 76, 84
8, 92880, Note_on_c, 1, 79, 84
8, 92999, Note_on_c, 1, 76, 0
8, 92999, Note_on_c, 1, 79, 0
8, 93060, Note_on_c, 1, 79, 84
8, 93060, Note_on_c, 1, 76, 84
8, 93111, Note_on_c, 1, 79, 0
8, 93111, Note_on_c, 1, 76, 0
8, 93120, Note_on_c, 1, 76, 84
8, 93120, Note_on_c, 1, 79, 84
8, 93239, Note_on_c, 1, 76, 0
8, 93239, Note_on_c, 1, 79, 0
8, 93240, Note_on_c, 1, 74, 84
8, 93240, Note_on_c, 1, 77, 84
8, 93344, Note_on_c, 1, 74, 0
8, 93344, Note_on_c, 1, 77, 0
8, 93360, Note_on_c, 1, 77, 84
8, 93360, Note_on_c, 1, 74, 84
8, 93479, Note_on_c, 1, 77, 0
8, 93479, Note_on_c, 1, 74, 0
8, 93540, Note_on_c, 1, 77, 84
8, 93540, Note_on_c, 1, 74, 84
8, 93591, Note_on_c, 1, 77, 0
8, 93591, Note_on_c, 1, 74, 0
8, 93600, Note_on_c, 1, 77, 84
8, 93600, Note_on_c, 1, 74, 84
8, 93719, Note_on_c, 1, 77, 0
8, 93719, Note_on_c, 1, 74, 0
8, 93720, Note_on_c, 1, 72, 84
8, 93720, Note_on_c, 1, 76, 84
8, 93824, Note_on_c, 1, 72, 0
8, 93824, Note_on_c, 1, 76, 0
8, 93840, Note_on_c, 1, 72, 84
8, 93840, Note_on_c, 1, 76, 84
8, 93959, Note_on_c, 1, 72, 0
8, 93959, Note_on_c, 1, 76, 0
8, 94020, Note_on_c, 1, 76, 84
8, 94020, Note_on_c, 1, 72, 84
8, 94071, Note_on_c, 1, 76, 0
8, 94071, Note_on_c, 1, 72, 0
8, 94080, Note_on_c, 1, 76, 84
8, 94080, Note_on_c, 1, 72, 84
8, 94199, Note_on_c, 1, 76, 0
8, 94199, Note_on_c, 1, 72, 0
8, 94200, Note_on_c, 1, 74, 84
8, 94200, Note_on_c, 1, 71, 84
8, 94304, Note_on_c, 1, 74, 0
8, 94304, Note_on_c, 1, 71, 0
8, 94320, Note_on_c, 1, 74, 84
8, 94320, Note_on_c, 1, 71, 84
8, 94784, Note_on_c, 1, 74, 0
8, 94784, Note_on_c, 1, 71, 0
8, 94800, Note_on_c, 1, 72, 84
8, 94800, Note_on_c, 1, 76, 84
8, 94919, Note_on_c, 1, 72, 0
8, 94919, Note_on_c, 1, 76, 0
8, 94980, Note_on_c, 1, 79, 84
8, 94980, Note_on_c, 1, 76, 84
8, 95031, Note_on_c, 1, 79, 0
8, 95031, Note_on_c, 1, 76, 0
8, 95040, Note_on_c, 1, 79, 84
8, 95040, Note_on_c, 1, 76, 84
8, 95159, Note_on_c, 1, 79, 0
8, 95159, Note_on_c, 1, 76, 0
8, 95160, Note_on_c, 1, 74, 84
8, 95160, Note_on_c, 1, 77, 84
8, 95264, Note_on_c, 1, 74, 0
8, 95264, Note_on_c, 1, 77, 0
8, 95280, Note_on_c, 1, 74, 84
8, 95280, Note_on_c, 1, 77, 84
8, 95399, Note_on_c, 1, 74, 0
8, 95399, Note_on_c, 1, 77, 0
8, 95460, Note_on_c, 1, 77, 84
8, 95460, Note_on_c, 1, 74, 84
8, 95511, Note_on_c, 1, 77, 0
8, 95511, Note_on_c, 1, 74, 0
8, 95520, Note_on_c, 1, 77, 84
8, 95520, Note_on_c, 1, 74, 84
8, 95639, Note_on_c, 1, 77, 0
8, 95639, Note_on_c, 1, 74, 0
8, 95640, Note_on_c, 1, 72, 84
8, 95640, Note_on_c, 1, 76, 84
8, 95744, Note_on_c, 1, 72, 0
8, 95744, Note_on_c, 1, 76, 0
8, 95760, Note_on_c, 1, 76, 84
8, 95760, Note_on_c, 1, 72, 84
8, 95879, Note_on_c, 1, 76, 0
8, 95879, Note_on_c, 1, 72, 0
8, 95940, Note_on_c, 1, 72, 84
8, 95940, Note_on_c, 1, 76, 84
8, 95991, Note_on_c, 1, 72, 0
8, 95991, Note_on_c, 1, 76, 0
8, 96000, Note_on_c, 1, 72, 84
8, 96000, Note_on_c, 1, 76, 84
8, 96119, Note_on_c, 1, 72, 0
8, 96119, Note_on_c, 1, 76, 0
8, 96120, Note_on_c, 1, 74, 84
8, 96120, Note_on_c, 1, 71, 84
8, 96224, Note_on_c, 1, 74, 0
8, 96224, Note_on_c, 1, 71, 0
8, 96240, Note_on_c, 1, 71, 84
8, 96240, Note_on_c, 1, 74, 84
8, 96704, Note_on_c, 1, 71, 0
8, 96704, Note_on_c, 1, 74, 0
8, 96720, Note_on_c, 1, 72, 84
8, 96720, Note_on_c, 1, 76, 84
8, 96809, Note_on_c, 1, 72, 0
8, 96809, Note_on_c, 1, 76, 0
8, 96900, Note_on_c, 1, 79, 84
8, 96900, Note_on_c, 1, 76, 84
8, 96944, Note_on_c, 1, 79, 0
8, 96944, Note_on_c, 1, 76, 0
8, 96960, Note_on_c, 1, 79, 84
8, 96960, Note_on_c, 1, 76, 84
8, 97049, Note_on_c, 1, 79, 0
8, 97049, Note_on_c, 1, 76, 0
8, 97140, Note_on_c, 1, 77, 84
8, 97140, Note_on_c, 1, 74, 84
8, 97184, Note_on_c, 1, 77, 0
8, 97184, Note_on_c, 1, 74, 0
8, 97200, Note_on_c, 1, 74, 84
8, 97200, Note_on_c, 1, 77, 84
8, 97289, Note_on_c, 1, 74, 0
8, 97289, Note_on_c, 1, 77, 0
8, 97380, Note_on_c, 1, 74, 84
8, 97380, Note_on_c, 1, 77, 84
8, 97424, Note_on_c, 1, 74, 0
8, 97424, Note_on_c, 1, 77, 0
8, 97440, Note_on_c, 1, 77, 84
8, 97440, Note_on_c, 1, 74, 84
8, 97529, Note_on_c, 1, 77, 0
8, 97529, Note_on_c, 1, 74, 0
8, 97620, Note_on_c, 1, 76, 84
8, 97620, Note_on_c, 1, 72, 84
8, 97664, Note_on_c, 1, 76, 0
8, 97664, Note_on_c, 1, 72, 0
8, 97680, Note_on_c, 1, 72, 84
8, 97680, Note_on_c, 1, 76, 84
8, 97769, Note_on_c, 1, 72, 0
8, 97769, Note_on_c, 1, 76, 0
8, 97860, Note_on_c, 1, 72, 84
8, 97860, Note_on_c, 1, 76, 84
8, 97904, Note_on_c, 1, 72, 0
8, 97904, Note_on_c, 1, 76, 0
8, 97920, Note_on_c, 1, 71, 84
8, 97920, Note_on_c, 1, 74, 84
8, 98144, Note_on_c, 1, 71, 0
8, 98144, Note_on_c, 1, 74, 0
8, 98160, Note_on_c, 1, 79, 84
8, 98624, Note_on_c, 1, 79, 0
8, 98640, Note_on_c, 1, 81, 84
8, 98699, Note_on_c, 1, 81, 0
8, 98700, Note_on_c, 1, 79, 84
8, 98759, Note_on_c, 1, 79, 0
8, 98760, Note_on_c, 1, 77, 84
8, 98819, Note_on_c, 1, 77, 0
8, 98820, Note_on_c, 1, 76, 84
8, 98871, Note_on_c, 1, 76, 0
8, 98880, Note_on_c, 1, 74, 84
8, 98999, Note_on_c, 1, 74, 0
8, 99060, Note_on_c, 1, 74, 84
8, 99111, Note_on_c, 1, 74, 0
8, 99120, Note_on_c, 1, 79, 84
8, 99584, Note_on_c, 1, 79, 0
8, 99600, Note_on_c, 1, 81, 84
8, 99659, Note_on_c, 1, 81, 0
8, 99660, Note_on_c, 1, 79, 84
8, 99719, Note_on_c, 1, 79, 0
8, 99720, Note_on_c, 1, 77, 84
8, 99779, Note_on_c, 1, 77, 0
8, 99780, Note_on_c, 1, 76, 84
8, 99831, Note_on_c, 1, 76, 0
8, 99840, Note_on_c, 1, 74, 84
8, 99959, Note_on_c, 1, 74, 0
8, 100020, Note_on_c, 1, 79, 84
8, 100071, Note_on_c, 1, 79, 0
8, 100080, Note_on_c, 1, 81, 84
8, 100139, Note_on_c, 1, 81, 0
8, 100140, Note_on_c, 1, 79, 84
8, 100199, Note_on_c, 1, 79, 0
8, 100200, Note_on_c, 1, 77, 84
8, 100259, Note_on_c, 1, 77, 0
8, 100260, Note_on_c, 1, 76, 84
8, 100311, Note_on_c, 1, 76, 0
8, 100320, Note_on_c, 1, 74, 84
8, 100439, Note_on_c, 1, 74, 0
8, 100500, Note_on_c, 1, 79, 84
8, 100551, Note_on_c, 1, 79, 0
8, 100560, Note_on_c, 1, 81, 84
8, 100619, Note_on_c, 1, 81, 0
8, 100620, Note_on_c, 1, 79, 84
8, 100679, Note_on_c, 1, 79, 0
8, 100680, Note_on_c, 1, 77, 84
8, 100739, Note_on_c, 1, 77, 0
8, 100740, Note_on_c, 1, 76, 84
8, 100791, Note_on_c, 1, 76, 0
8, 100800, Note_on_c, 1, 74, 84
8, 100919, Note_on_c, 1, 74, 0
8, 100980, Note_on_c, 1, 79, 84
8, 101031, Note_on_c, 1, 79, 0
8, 101040, Note_on_c, 1, 81, 84
8, 101099, Note_on_c, 1, 81, 0
8, 101100, Note_on_c, 1, 79, 84
8, 101159, Note_on_c, 1, 79, 0
8, 101160, Note_on_c, 1, 77, 84
8, 101219, Note_on_c, 1, 77, 0
8, 101220, Note_on_c, 1, 76, 84
8, 101271, Note_on_c, 1, 76, 0
8, 101280, Note_on_c, 1, 74, 84
8, 101399, Note_on_c, 1, 74, 0
8, 101460, Note_on_c, 1, 79, 84
8, 101511, Note_on_c, 1, 79, 0
8, 101520, Note_on_c, 1, 81, 84
8, 101579, Note_on_c, 1, 81, 0
8, 101580, Note_on_c, 1, 79, 84
8, 101639, Note_on_c, 1, 79, 0
8, 101640, Note_on_c, 1, 77, 84
8, 101699, Note_on_c, 1, 77, 0
8, 101700, Note_on_c, 1, 76, 84
8, 101751, Note_on_c, 1, 76, 0
8, 101760, Note_on_c, 1, 74, 84
8, 101879, Note_on_c, 1, 74, 0
8, 103800, Note_on_c, 1, 72, 92
8, 103919, Note_on_c, 1, 72, 0
8, 103920, Note_on_c, 1, 71, 84
8, 104024, Note_on_c, 1, 71, 0
8, 104040, Note_on_c, 1, 69, 84
8, 104129, Note_on_c, 1, 69, 0
8, 104160, Note_on_c, 1, 67, 84
8, 104249, Note_on_c, 1, 67, 0
8, 104280, Note_on_c, 1, 72, 92
8, 104399, Note_on_c, 1, 72, 0
8, 104400, Note_on_c, 1, 71, 84
8, 104504, Note_on_c, 1, 71, 0
8, 104520, Note_on_c, 1, 69, 84
8, 104609, Note_on_c, 1, 69, 0
8, 104640, Note_on_c, 1, 67, 84
8, 104729, Note_on_c, 1, 67, 0
8, 104760, Note_on_c, 1, 72, 92
8, 104879, Note_on_c, 1, 72, 0
8, 104880, Note_on_c, 1, 71, 84
8, 104984, Note_on_c, 1, 71, 0
8, 105000, Note_on_c, 1, 69, 84
8, 105089, Note_on_c, 1, 69, 0
8, 105120, Note_on_c, 1, 67, 84
8, 105209, Note_on_c, 1, 67, 0
8, 105240, Note_on_c, 1, 77, 84
8, 105329, Note_on_c, 1, 77, 0
8, 105360, Note_on_c, 1, 76, 84
8, 105449, Note_on_c, 1, 76, 0
8, 105480, Note_on_c, 1, 74, 84
8, 105569, Note_on_c, 1, 74, 0
8, 105600, Note_on_c, 1, 64, 84
8, 105600, Note_on_c, 1, 72, 84
8, 106304, Note_on_c, 1, 64, 0
8, 106304, Note_on_c, 1, 72, 0
8, 106320, Note_on_c, 1, 67, 84
8, 106320, Note_on_c, 1, 64, 84
8, 106559, Note_on_c, 1, 67, 0
8, 106559, Note_on_c, 1, 64, 0
8, 106560, Note_on_c, 1, 67, 84
8, 106560, Note_on_c, 1, 76, 84
8, 107279, Note_on_c, 1, 67, 0
8, 107279, Note_on_c, 1, 76, 0
8, 107280, Note_on_c, 1, 74, 84
8, 107280, Note_on_c, 1, 65, 84
8, 107459, Note_on_c, 1, 74, 0
8, 107459, Note_on_c, 1, 65, 0
8, 107460, Note_on_c, 1, 64, 84
8, 107460, Note_on_c, 1, 72, 84
8, 107511, Note_on_c, 1, 64, 0
8, 107511, Note_on_c, 1, 72, 0
8, 107520, Note_on_c, 1, 71, 84
8, 107520, Note_on_c, 1, 62, 84
8, 107759, Note_on_c, 1, 71, 0
8, 107759, Note_on_c, 1, 62, 0
8, 109440, Note_on_c, 1, 74, 84
8, 109440, Note_on_c, 1, 71, 84
8, 110144, Note_on_c, 1, 74, 0
8, 110144, Note_on_c, 1, 71, 0
8, 110160, Note_on_c, 1, 67, 84
8, 110399, Note_on_c, 1, 67, 0
8, 110400, Note_on_c, 1, 77, 84
8, 110400, Note_on_c, 1, 74, 84
8, 111119, Note_on_c, 1, 77, 0
8, 111119, Note_on_c, 1, 74, 0
8, 111120, Note_on_c, 1, 76, 84
8, 111120, Note_on_c, 1, 72, 84
8, 111299, Note_on_c, 1, 76, 0
8, 111299, Note_on_c, 1, 72, 0
8, 111300, Note_on_c, 1, 71, 84
8, 111300, Note_on_c, 1, 74, 84
8, 111351, Note_on_c, 1, 71, 0
8, 111351, Note_on_c, 1, 74, 0
8, 111360, Note_on_c, 1, 74, 84
8, 111360, Note_on_c, 1, 71, 84
8, 111599, Note_on_c, 1, 74, 0
8, 111599, Note_on_c, 1, 71, 0
8, 111600, Note_on_c, 1, 72, 84
8, 111600, Note_on_c, 1, 76, 84
8, 113264, Note_on_c, 1, 72, 0
8, 113264, Note_on_c, 1, 76, 0
8, 113280, Note_on_c, 1, 84, 84
8, 113280, Note_on_c, 1, 76, 84
8, 113519, Note_on_c, 1, 84, 0
8, 113519, Note_on_c, 1, 76, 0
8, 114240, Note_on_c, 1, 84, 84
8, 114240, Note_on_c, 1, 76, 84
8, 114479, Note_on_c, 1, 84, 0
8, 114479, Note_on_c, 1, 76, 0
8, 115200, Note_on_c, 1, 81, 84
8, 115200, Note_on_c, 1, 78, 84
8, 115439, Note_on_c, 1, 81, 0
8, 115439, Note_on_c, 1, 78, 0
8, 116160, Note_on_c, 1, 78, 84
8, 116160, Note_on_c, 1, 81, 84
8, 116399, Note_on_c, 1, 78, 0
8, 116399, Note_on_c, 1, 81, 0
8, 117120, Note_on_c, 1, 79, 84
8, 117120, Note_on_c, 1, 83, 84
8, 117359, Note_on_c, 1, 79, 0
8, 117359, Note_on_c, 1, 83, 0
8, 117600, Note_on_c, 1, 79, 84
8, 117600, Note_on_c, 1, 83, 84
8, 117839, Note_on_c, 1, 79, 0
8, 117839, Note_on_c, 1, 83, 0
8, 118080, Note_on_c, 1, 81, 84
8, 118080, Note_on_c, 1, 78, 84
8, 118319, Note_on_c, 1, 81, 0
8, 118319, Note_on_c, 1, 78, 0
8, 118560, Note_on_c, 1, 78, 84
8, 118560, Note_on_c, 1, 81, 84
8, 118799, Note_on_c, 1, 78, 0
8, 118799, Note_on_c, 1, 81, 0
8, 119040, Note_on_c, 1, 79, 84
8, 119040, Note_on_c, 1, 83, 84
8, 119279, Note_on_c, 1, 79, 0
8, 119279, Note_on_c, 1, 83, 0
8, 119520, Note_on_c, 1, 83, 84
8, 119520, Note_on_c, 1, 79, 84
8, 119759, Note_on_c, 1, 83, 0
8, 119759, Note_on_c, 1, 79, 0
8, 120000, Note_on_c, 1, 78, 84
8, 120000, Note_on_c, 1, 81, 84
8, 120224, Note_on_c, 1, 78, 0
8, 120224, Note_on_c, 1, 81, 0
8, 120240, Note_on_c, 1, 86, 84
8, 120240, Note_on_c, 1, 74, 84
8, 121544, Note_on_c, 1, 86, 0
8, 121544, Note_on_c, 1, 74, 0
8, 121560, Note_on_c, 1, 78, 84
8, 121560, Note_on_c, 1, 74, 84
8, 121679, Note_on_c, 1, 78, 0
8, 121679, Note_on_c, 1, 74, 0
8, 121680, Note_on_c, 1, 73, 84
8, 121680, Note_on_c, 1, 79, 84
8, 121784, Note_on_c, 1, 73, 0
8, 121784, Note_on_c, 1, 79, 0
8, 121800, Note_on_c, 1, 79, 84
8, 121800, Note_on_c, 1, 73, 84
8, 121889, Note_on_c, 1, 79, 0
8, 121889, Note_on_c, 1, 73, 0
8, 121920, Note_on_c, 1, 74, 84
8, 121920, Note_on_c, 1, 78, 84
8, 122024, Note_on_c, 1, 74, 0
8, 122024, Note_on_c, 1, 78, 0
8, 122040, Note_on_c, 1, 74, 84
8, 122159, Note_on_c, 1, 74, 0
8, 122160, Note_on_c, 1, 73, 84
8, 122264, Note_on_c, 1, 73, 0
8, 122280, Note_on_c, 1, 79, 84
8, 122369, Note_on_c, 1, 79, 0
8, 122400, Note_on_c, 1, 78, 84
8, 122519, Note_on_c, 1, 78, 0
8, 123840, Note_on_c, 1, 74, 84
8, 123840, Note_on_c, 1, 83, 84
8, 124079, Note_on_c, 1, 74, 0
8, 124079, Note_on_c, 1, 83, 0
8, 124320, Note_on_c, 1, 84, 84
8, 124320, Note_on_c, 1, 76, 84
8, 124559, Note_on_c, 1, 84, 0
8, 124559, Note_on_c, 1, 76, 0
8, 124800, Note_on_c, 1, 74, 84
8, 124800, Note_on_c, 1, 83, 84
8, 125519, Note_on_c, 1, 74, 0
8, 125519, Note_on_c, 1, 83, 0
8, 127440, Note_on_c, 1, 66, 76
8, 127440, Note_on_c, 1, 69, 76
8, 127507, Note_on_c, 1, 66, 0
8, 127507, Note_on_c, 1, 69, 0
8, 127520, Note_on_c, 1, 67, 76
8, 127520, Note_on_c, 1, 71, 76
8, 127587, Note_on_c, 1, 67, 0
8, 127587, Note_on_c, 1, 71, 0
8, 127600, Note_on_c, 1, 69, 76
8, 127600, Note_on_c, 1, 72, 76
8, 127667, Note_on_c, 1, 69, 0
8, 127667, Note_on_c, 1, 72, 0
8, 127680, Note_on_c, 1, 71, 76
8, 127680, Note_on_c, 1, 74, 76
8, 127904, Note_on_c, 1, 71, 0
8, 127904, Note_on_c, 1, 74, 0
8, 127920, Note_on_c, 1, 67, 76
8, 127920, Note_on_c, 1, 71, 76
8, 127987, Note_on_c, 1, 67, 0
8, 127987, Note_on_c, 1, 71, 0
8, 128000, Note_on_c, 1, 69, 76
8, 128000, Note_on_c, 1, 72, 76
8, 128067, Note_on_c, 1, 69, 0
8, 128067, Note_on_c, 1, 72, 0
8, 128080, Note_on_c, 1, 74, 76
8, 128080, Note_on_c, 1, 71, 76
8, 128147, Note_on_c, 1, 74, 0
8, 128147, Note_on_c, 1, 71, 0
8, 128160, Note_on_c, 1, 76, 76
8, 128160, Note_on_c, 1, 72, 76
8, 128384, Note_on_c, 1, 76, 0
8, 128384, Note_on_c, 1, 72, 0
8, 128400, Note_on_c, 1, 72, 76
8, 128400, Note_on_c, 1, 76, 76
8, 128467, Note_on_c, 1, 72, 0
8, 128467, Note_on_c, 1, 76, 0
8, 128480, Note_on_c, 1, 78, 76
8, 128480, Note_on_c, 1, 74, 76
8, 128547, Note_on_c, 1, 78, 0
8, 128547, Note_on_c, 1, 74, 0
8, 128560, Note_on_c, 1, 79, 76
8, 128560, Note_on_c, 1, 76, 76
8, 128627, Note_on_c, 1, 79, 0
8, 128627, Note_on_c, 1, 76, 0
8, 128640, Note_on_c, 1, 74, 76
8, 128640, Note_on_c, 1, 71, 76
8, 129359, Note_on_c, 1, 74, 0
8, 129359, Note_on_c, 1, 71, 0
8, 133440, Control_c, 1, 11, 48
8, 134160, Note_on_c, 1, 72, 84
8, 134399, Note_on_c, 1, 72, 0
8, 134400, Note_on_c, 1, 71, 84
8, 134400, Note_on_c, 1, 74, 84
8, 134400, Control_c, 1, 11, 48
8, 134453, Control_c, 1, 11, 50
8, 134507, Control_c, 1, 11, 52
8, 134560, Control_c, 1, 11, 55
8, 134613, Control_c, 1, 11, 57
8, 134667, Control_c, 1, 11, 59
8, 134720, Control_c, 1, 11, 61
8, 134773, Control_c, 1, 11, 63
8, 134827, Control_c, 1, 11, 66
8, 134880, Control_c, 1, 11, 68
8, 134933, Control_c, 1, 11, 70
8, 134987, Control_c, 1, 11, 72
8, 135040, Control_c, 1, 11, 74
8, 135093, Control_c, 1, 11, 77
8, 135147, Control_c, 1, 11, 79
8, 135200, Control_c, 1, 11, 81
8, 135253, Control_c, 1, 11, 83
8, 135307, Control_c, 1, 11, 85
8, 135344, Note_on_c, 1, 71, 0
8, 135344, Note_on_c, 1, 74, 0
8, 135360, Note_on_c, 1, 71, 84
8, 135360, Note_on_c, 1, 75, 84
8, 135360, Control_c, 1, 11, 88
8, 135413, Control_c, 1, 11, 90
8, 135467, Control_c, 1, 11, 92
8, 135520, Control_c, 1, 11, 94
8, 135573, Control_c, 1, 11, 96
8, 135627, Control_c, 1, 11, 98
8, 135680, Control_c, 1, 11, 101
8, 135733, Control_c, 1, 11, 103
8, 135787, Control_c, 1, 11, 105
8, 135840, Control_c, 1, 11, 107
8, 135893, Control_c, 1, 11, 109
8, 135947, Control_c, 1, 11, 112
8, 136000, Control_c, 1, 11, 114
8, 136053, Control_c, 1, 11, 116
8, 136107, Control_c, 1, 11, 118
8, 136160, Control_c, 1, 11, 120
8, 136213, Control_c, 1, 11, 123
8, 136267, Control_c, 1, 11, 127
8, 136304, Note_on_c, 1, 71, 0
8, 136304, Note_on_c, 1, 75, 0
8, 136320, Note_on_c, 1, 76, 84
8, 136320, Note_on_c, 1, 84, 84
8, 136799, Note_on_c, 1, 76, 0
8, 136799, Note_on_c, 1, 84, 0
8, 136800, Note_on_c, 1, 84, 84
8, 136800, Note_on_c, 1, 76, 84
8, 136904, Note_on_c, 1, 84, 0
8, 136904, Note_on_c, 1, 76, 0
8, 136920, Note_on_c, 1, 76, 84
8, 136920, Note_on_c, 1, 84, 84
8, 137024, Note_on_c, 1, 76, 0
8, 137024, Note_on_c, 1, 84, 0
8, 137040, Note_on_c, 1, 76, 84
8, 137040, Note_on_c, 1, 84, 84
8, 137144, Note_on_c, 1, 76, 0
8, 137144, Note_on_c, 1, 84, 0
8, 137160, Note_on_c, 1, 84, 84
8, 137160, Note_on_c, 1, 76, 84
8, 137264, Note_on_c, 1, 84, 0
8, 137264, Note_on_c, 1, 76, 0
8, 137280, Note_on_c, 1, 84, 84
8, 137280, Note_on_c, 1, 76, 84
8, 137384, Note_on_c, 1, 84, 0
8, 137384, Note_on_c, 1, 76, 0
8, 137400, Note_on_c, 1, 76, 84
8, 137400, Note_on_c, 1, 84, 84
8, 137504, Note_on_c, 1, 76, 0
8, 137504, Note_on_c, 1, 84, 0
8, 137520, Note_on_c, 1, 84, 84
8, 137520, Note_on_c, 1, 76, 84
8, 137624, Note_on_c, 1, 84, 0
8, 137624, Note_on_c, 1, 76, 0
8, 137640, Note_on_c, 1, 84, 84
8, 137640, Note_on_c, 1, 76, 84
8, 137744, Note_on_c, 1, 84, 0
8, 137744, Note_on_c, 1, 76, 0
8, 137760, Note_on_c, 1, 84, 84
8, 137760, Note_on_c, 1, 76, 84
8, 137864, Note_on_c, 1, 84, 0
8, 137864, Note_on_c, 1, 76, 0
8, 137880, Note_on_c, 1, 84, 84
8, 137880, Note_on_c, 1, 76, 84
8, 137984, Note_on_c, 1, 84, 0
8, 137984, Note_on_c, 1, 76, 0
8, 138000, Note_on_c, 1, 84, 84
8, 138000, Note_on_c, 1, 76, 84
8, 138104, Note_on_c, 1, 84, 0
8, 138104, Note_on_c, 1, 76, 0
8, 138120, Note_on_c, 1, 76, 84
8, 138120, Note_on_c, 1, 84, 84
8, 138224, Note_on_c, 1, 76, 0
8, 138224, Note_on_c, 1, 84, 0
8, 138240, Note_on_c, 1, 76, 84
8, 138240, Note_on_c, 1, 84, 84
8, 138464, Note_on_c, 1, 76, 0
8, 138464, Note_on_c, 1, 84, 0
8, 138480, Note_on_c, 1, 73, 84
8, 138704, Note_on_c, 1, 73, 0
8, 138720, Note_on_c, 1, 74, 84
8, 138944, Note_on_c, 1, 74, 0
8, 138960, Note_on_c, 1, 75, 84
8, 139184, Note_on_c, 1, 75, 0
8, 139200, Note_on_c, 1, 76, 84
8, 139424, Note_on_c, 1, 76, 0
8, 139440, Note_on_c, 1, 78, 84
8, 139664, Note_on_c, 1, 78, 0
8, 139680, Note_on_c, 1, 79, 84
8, 139784, Note_on_c, 1, 79, 0
8, 139800, Note_on_c, 1, 74, 84
8, 139800, Note_on_c, 1, 71, 84
8, 139904, Note_on_c, 1, 74, 0
8, 139904, Note_on_c, 1, 71, 0
8, 139920, Note_on_c, 1, 72, 84
8, 139920, Note_on_c, 1, 69, 84
8, 140024, Note_on_c, 1, 72, 0
8, 140024, Note_on_c, 1, 69, 0
8, 140040, Note_on_c, 1, 71, 84
8, 140040, Note_on_c, 1, 67, 84
8, 140144, Note_on_c, 1, 71, 0
8, 140144, Note_on_c, 1, 67, 0
8, 140160, Note_on_c, 1, 84, 84
8, 140160, Note_on_c, 1, 81, 84
8, 140339, Note_on_c, 1, 84, 0
8, 140339, Note_on_c, 1, 81, 0
8, 141120, Note_on_c, 1, 78, 84
8, 141120, Note_on_c, 1, 81, 84
8, 141299, Note_on_c, 1, 78, 0
8, 141299, Note_on_c, 1, 81, 0
8, 147120, Note_on_c, 1, 77, 48
8, 147344, Note_on_c, 1, 77, 0
8, 147360, Note_on_c, 1, 77, 48
8, 147584, Note_on_c, 1, 77, 0
8, 147600, Note_on_c, 1, 77, 48
8, 147824, Note_on_c, 1, 77, 0
8, 147840, Note_on_c, 1, 76, 48
8, 148304, Note_on_c, 1, 76, 0
8, 148320, Note_on_c, 1, 76, 48
8, 148739, Note_on_c, 1, 76, 0
8, 148740, Note_on_c, 1, 72, 48
8, 148799, Note_on_c, 1, 72, 0
8, 148800, Note_on_c, 1, 71, 48
8, 149279, Note_on_c, 1, 71, 0
8, 149280, Note_on_c, 1, 72, 48
8, 149699, Note_on_c, 1, 72, 0
8, 149700, Note_on_c, 1, 69, 48
8, 149751, Note_on_c, 1, 69, 0
8, 149760, Note_on_c, 1, 79, 76
8, 150464, Note_on_c, 1, 79, 0
8, 150480, Note_on_c, 1, 78, 76
8, 150704, Note_on_c, 1, 78, 0
8, 150720, Note_on_c, 1, 76, 76
8, 150944, Note_on_c, 1, 76, 0
8, 150960, Note_on_c, 1, 74, 76
8, 151184, Note_on_c, 1, 74, 0
8, 151200, Note_on_c, 1, 74, 76
8, 151424, Note_on_c, 1, 74, 0
8, 151440, Note_on_c, 1, 74, 76
8, 151664, Note_on_c, 1, 74, 0
8, 151680, Note_on_c, 1, 79, 84
8, 151800, Control_c, 1, 11, 112
8, 152384, Note_on_c, 1, 79, 0
8, 152400, Note_on_c, 1, 78, 84
8, 152624, Note_on_c, 1, 78, 0
8, 152640, Note_on_c, 1, 76, 84
8, 152864, Note_on_c, 1, 76, 0
8, 152880, Note_on_c, 1, 74, 84
8, 153104, Note_on_c, 1, 74, 0
8, 153120, Note_on_c, 1, 74, 84
8, 153344, Note_on_c, 1, 74, 0
8, 153360, Note_on_c, 1, 74, 84
8, 153584, Note_on_c, 1, 74, 0
8, 153598, Control_c, 1, 11, 127
8, 153600, Note_on_c, 1, 81, 84
8, 153600, Note_on_c, 1, 84, 84
8, 153720, Control_c, 1, 11, 112
8, 154304, Note_on_c, 1, 81, 0
8, 154304, Note_on_c, 1, 84, 0
8, 154320, Note_on_c, 1, 83, 84
8, 154320, Note_on_c, 1, 79, 84
8, 154544, Note_on_c, 1, 83, 0
8, 154544, Note_on_c, 1, 79, 0
8, 154558, Control_c, 1, 11, 127
8, 154560, Note_on_c, 1, 76, 76
8, 154560, Note_on_c, 1, 81, 76
8, 154784, Note_on_c, 1, 76, 0
8, 154784, Note_on_c, 1, 81, 0
8, 154800, Note_on_c, 1, 77, 80
8, 154800, Note_on_c, 1, 80, 80
8, 155024, Note_on_c, 1, 77, 0
8, 155024, Note_on_c, 1, 80, 0
8, 155040, Note_on_c, 1, 80, 80
8, 155040, Note_on_c, 1, 77, 80
8, 155264, Note_on_c, 1, 80, 0
8, 155264, Note_on_c, 1, 77, 0
8, 155280, Note_on_c, 1, 80, 80
8, 155280, Note_on_c, 1, 77, 80
8, 155504, Note_on_c, 1, 80, 0
8, 155504, Note_on_c, 1, 77, 0
8, 155520, Note_on_c, 1, 77, 80
8, 155520, Note_on_c, 1, 80, 80
8, 155744, Note_on_c, 1, 77, 0
8, 155744, Note_on_c, 1, 80, 0
8, 155760, Note_on_c, 1, 77, 80
8, 155760, Note_on_c, 1, 80, 80
8, 155984, Note_on_c, 1, 77, 0
8, 155984, Note_on_c, 1, 80, 0
8, 156000, Note_on_c, 1, 77, 80
8, 156000, Note_on_c, 1, 80, 80
8, 156224, Note_on_c, 1, 77, 0
8, 156224, Note_on_c, 1, 80, 0
8, 156240, Note_on_c, 1, 77, 80
8, 156240, Note_on_c, 1, 80, 80
8, 156464, Note_on_c, 1, 77, 0
8, 156464, Note_on_c, 1, 80, 0
8, 156480, Note_on_c, 1, 77, 80
8, 156480, Note_on_c, 1, 80, 80
8, 156704, Note_on_c, 1, 77, 0
8, 156704, Note_on_c, 1, 80, 0
8, 156720, Note_on_c, 1, 77, 80
8, 156720, Note_on_c, 1, 80, 80
8, 156944, Note_on_c, 1, 77, 0
8, 156944, Note_on_c, 1, 80, 0
8, 156960, Note_on_c, 1, 77, 80
8, 156960, Note_on_c, 1, 80, 80
8, 157184, Note_on_c, 1, 77, 0
8, 157184, Note_on_c, 1, 80, 0
8, 157200, Note_on_c, 1, 80, 80
8, 157200, Note_on_c, 1, 77, 80
8, 157424, Note_on_c, 1, 80, 0
8, 157424, Note_on_c, 1, 77, 0
8, 157440, Note_on_c, 1, 77, 84
8, 159344, Note_on_c, 1, 77, 0
8, 159360, Note_on_c, 1, 77, 84
8, 159360, Note_on_c, 1, 74, 84
8, 160064, Note_on_c, 1, 77, 0
8, 160064, Note_on_c, 1, 74, 0
8, 160080, Note_on_c, 1, 74, 84
8, 160080, Note_on_c, 1, 77, 84
8, 160184, Note_on_c, 1, 74, 0
8, 160184, Note_on_c, 1, 77, 0
8, 160200, Note_on_c, 1, 74, 84
8, 160200, Note_on_c, 1, 77, 84
8, 160304, Note_on_c, 1, 74, 0
8, 160304, Note_on_c, 1, 77, 0
8, 160320, Note_on_c, 1, 77, 84
8, 160320, Note_on_c, 1, 74, 84
8, 161024, Note_on_c, 1, 77, 0
8, 161024, Note_on_c, 1, 74, 0
8, 161040, Note_on_c, 1, 77, 84
8, 161040, Note_on_c, 1, 74, 84
8, 161144, Note_on_c, 1, 77, 0
8, 161144, Note_on_c, 1, 74, 0
8, 161160, Note_on_c, 1, 74, 84
8, 161160, Note_on_c, 1, 77, 84
8, 161264, Note_on_c, 1, 74, 0
8, 161264, Note_on_c, 1, 77, 0
8, 161280, Note_on_c, 1, 74, 84
8, 161280, Note_on_c, 1, 77, 84
8, 161504, Note_on_c, 1, 74, 0
8, 161504, Note_on_c, 1, 77, 0
8, 161520, Note_on_c, 1, 74, 84
8, 161520, Note_on_c, 1, 77, 84
8, 161624, Note_on_c, 1, 74, 0
8, 161624, Note_on_c, 1, 77, 0
8, 161640, Note_on_c, 1, 77, 84
8, 161640, Note_on_c, 1, 74, 84
8, 161744, Note_on_c, 1, 77, 0
8, 161744, Note_on_c, 1, 74, 0
8, 161760, Note_on_c, 1, 74, 84
8, 161760, Note_on_c, 1, 77, 84
8, 161984, Note_on_c, 1, 74, 0
8, 161984, Note_on_c, 1, 77, 0
8, 162000, Note_on_c, 1, 74, 84
8, 162000, Note_on_c, 1, 77, 84
8, 162104, Note_on_c, 1, 74, 0
8, 162104, Note_on_c, 1, 77, 0
8, 162120, Note_on_c, 1, 74, 84
8, 162120, Note_on_c, 1, 77, 84
8, 162224, Note_on_c, 1, 74, 0
8, 162224, Note_on_c, 1, 77, 0
8, 162240, Note_on_c, 1, 71, 84
8, 162344, Note_on_c, 1, 71, 0
8, 162360, Note_on_c, 1, 67, 84
8, 162464, Note_on_c, 1, 67, 0
8, 162480, Note_on_c, 1, 74, 84
8, 162584, Note_on_c, 1, 74, 0
8, 162600, Note_on_c, 1, 71, 84
8, 162704, Note_on_c, 1, 71, 0
8, 162720, Note_on_c, 1, 77, 84
8, 162824, Note_on_c, 1, 77, 0
8, 162840, Note_on_c, 1, 74, 84
8, 162944, Note_on_c, 1, 74, 0
8, 162960, Note_on_c, 1, 74, 84
8, 162960, Note_on_c, 1, 77, 84
8, 163064, Note_on_c, 1, 74, 0
8, 163064, Note_on_c, 1, 77, 0
8, 163080, Note_on_c, 1, 83, 84
8, 163080, Note_on_c, 1, 86, 84
8, 163184, Note_on_c, 1, 83, 0
8, 163184, Note_on_c, 1, 86, 0
8, 163200, Note_on_c, 1, 86, 84
8, 163200, Note_on_c, 1, 83, 84
8, 166064, Note_on_c, 1, 86, 0
8, 166064, Note_on_c, 1, 83, 0
8, 166080, Note_on_c, 1, 68, 84
8, 166184, Note_on_c, 1, 68, 0
8, 166200, Note_on_c, 1, 64, 84
8, 166304, Note_on_c, 1, 64, 0
8, 166320, Note_on_c, 1, 71, 84
8, 166424, Note_on_c, 1, 71, 0
8, 166440, Note_on_c, 1, 68, 84
8, 166544, Note_on_c, 1, 68, 0
8, 166560, Note_on_c, 1, 74, 84
8, 166664, Note_on_c, 1, 74, 0
8, 166680, Note_on_c, 1, 71, 84
8, 166784, Note_on_c, 1, 71, 0
8, 166800, Note_on_c, 1, 80, 84
8, 166904, Note_on_c, 1, 80, 0
8, 166920, Note_on_c, 1, 76, 84
8, 167024, Note_on_c, 1, 76, 0
8, 167040, Note_on_c, 1, 76, 84
8, 167040, Note_on_c, 1, 73, 84
8, 167279, Note_on_c, 1, 76, 0
8, 167279, Note_on_c, 1, 73, 0
8, 167520, Note_on_c, 1, 74, 84
8, 167520, Note_on_c, 1, 78, 84
8, 167759, Note_on_c, 1, 74, 0
8, 167759, Note_on_c, 1, 78, 0
8, 168000, Note_on_c, 1, 76, 84
8, 168000, Note_on_c, 1, 73, 84
8, 168719, Note_on_c, 1, 76, 0
8, 168719, Note_on_c, 1, 73, 0
8, 173040, Note_on_c, 1, 72, 48
8, 173119, Note_on_c, 1, 72, 0
8, 173120, Note_on_c, 1, 74, 48
8, 173199, Note_on_c, 1, 74, 0
8, 173200, Note_on_c, 1, 76, 48
8, 173267, Note_on_c, 1, 76, 0
8, 173280, Note_on_c, 1, 77, 48
8, 173459, Note_on_c, 1, 77, 0
8, 173520, Note_on_c, 1, 77, 48
8, 173599, Note_on_c, 1, 77, 0
8, 173600, Note_on_c, 1, 79, 48
8, 173679, Note_on_c, 1, 79, 0
8, 173680, Note_on_c, 1, 81, 48
8, 173747, Note_on_c, 1, 81, 0
8, 173760, Note_on_c, 1, 82, 48
8, 173939, Note_on_c, 1, 82, 0
8, 174960, Note_on_c, 1, 72, 48
8, 175039, Note_on_c, 1, 72, 0
8, 175040, Note_on_c, 1, 74, 48
8, 175119, Note_on_c, 1, 74, 0
8, 175120, Note_on_c, 1, 76, 48
8, 175187, Note_on_c, 1, 76, 0
8, 175200, Note_on_c, 1, 77, 48
8, 175379, Note_on_c, 1, 77, 0
8, 175440, Note_on_c, 1, 77, 48
8, 175519, Note_on_c, 1, 77, 0
8, 175520, Note_on_c, 1, 79, 48
8, 175599, Note_on_c, 1, 79, 0
8, 175600, Note_on_c, 1, 81, 48
8, 175667, Note_on_c, 1, 81, 0
8, 175680, Note_on_c, 1, 82, 48
8, 175859, Note_on_c, 1, 82, 0
8, 176400, Note_on_c, 1, 72, 52
8, 176879, Note_on_c, 1, 72, 0
8, 176880, Note_on_c, 1, 73, 52
8, 177119, Note_on_c, 1, 73, 0
8, 177120, Note_on_c, 1, 74, 52
8, 177359, Note_on_c, 1, 74, 0
8, 177360, Note_on_c, 1, 75, 52
8, 177599, Note_on_c, 1, 75, 0
8, 177600, Note_on_c, 1, 74, 52
8, 177839, Note_on_c, 1, 74, 0
8, 177840, Note_on_c, 1, 78, 52
8, 178079, Note_on_c, 1, 78, 0
8, 178080, Note_on_c, 1, 79, 52
8, 178319, Note_on_c, 1, 79, 0
8, 178320, Note_on_c, 1, 74, 52
8, 178559, Note_on_c, 1, 74, 0
8, 178560, Note_on_c, 1, 79, 52
8, 178799, Note_on_c, 1, 79, 0
8, 178800, Note_on_c, 1, 77, 52
8, 178800, Note_on_c, 1, 67, 52
8, 179039, Note_on_c, 1, 77, 0
8, 179039, Note_on_c, 1, 67, 0
8, 179040, Note_on_c, 1, 75, 52
8, 179040, Note_on_c, 1, 72, 52
8, 179264, Note_on_c, 1, 72, 0
8, 179279, Note_on_c, 1, 75, 0
8, 179280, Note_on_c, 1, 72, 52
8, 179280, Note_on_c, 1, 76, 52
8, 179519, Note_on_c, 1, 76, 0
8, 179520, Note_on_c, 1, 77, 52
8, 179759, Note_on_c, 1, 72, 0
8, 179759, Note_on_c, 1, 77, 0
8, 180240, Note_on_c, 1, 74, 52
8, 180704, Note_on_c, 1, 74, 0
8, 180720, Note_on_c, 1, 74, 52
8, 180959, Note_on_c, 1, 74, 0
8, 180960, Note_on_c, 1, 76, 52
8, 181184, Note_on_c, 1, 76, 0
8, 181200, Note_on_c, 1, 76, 52
8, 181424, Note_on_c, 1, 76, 0
8, 181440, Note_on_c, 1, 76, 52
8, 182144, Note_on_c, 1, 76, 0
8, 182158, Control_c, 1, 11, 80
8, 182160, Note_on_c, 1, 72, 76
8, 182160, Note_on_c, 1, 70, 76
8, 182160, Control_c, 1, 11, 80
8, 182213, Control_c, 1, 11, 83
8, 182267, Control_c, 1, 11, 85
8, 182320, Control_c, 1, 11, 88
8, 182373, Control_c, 1, 11, 90
8, 182399, Note_on_c, 1, 72, 0
8, 182400, Note_on_c, 1, 74, 76
8, 182427, Control_c, 1, 11, 93
8, 182480, Control_c, 1, 11, 96
8, 182533, Control_c, 1, 11, 98
8, 182587, Control_c, 1, 11, 101
8, 182639, Note_on_c, 1, 70, 0
8, 182639, Note_on_c, 1, 74, 0
8, 182640, Note_on_c, 1, 72, 76
8, 182640, Control_c, 1, 11, 104
8, 182640, Note_on_c, 1, 75, 76
8, 182693, Control_c, 1, 11, 106
8, 182747, Control_c, 1, 11, 109
8, 182800, Control_c, 1, 11, 111
8, 182853, Control_c, 1, 11, 114
8, 182879, Note_on_c, 1, 72, 0
8, 182879, Note_on_c, 1, 75, 0
8, 182880, Note_on_c, 1, 77, 76
8, 182880, Note_on_c, 1, 74, 76
8, 182907, Control_c, 1, 11, 117
8, 182960, Control_c, 1, 11, 119
8, 183013, Control_c, 1, 11, 122
8, 183067, Control_c, 1, 11, 127
8, 183104, Note_on_c, 1, 77, 0
8, 183104, Note_on_c, 1, 74, 0
8, 183120, Note_on_c, 1, 65, 76
8, 183120, Note_on_c, 1, 77, 76
8, 185984, Note_on_c, 1, 65, 0
8, 185984, Note_on_c, 1, 77, 0
8, 186000, Note_on_c, 1, 65, 76
8, 186000, Note_on_c, 1, 77, 76
8, 188879, Note_on_c, 1, 65, 0
8, 188879, Note_on_c, 1, 77, 0
8, 189360, Note_on_c, 1, 72, 76
8, 189360, Note_on_c, 1, 80, 76
8, 189427, Note_on_c, 1, 72, 0
8, 189427, Note_on_c, 1, 80, 0
8, 189440, Note_on_c, 1, 72, 76
8, 189440, Note_on_c, 1, 80, 76
8, 189507, Note_on_c, 1, 72, 0
8, 189507, Note_on_c, 1, 80, 0
8, 189520, Note_on_c, 1, 80, 76
8, 189520, Note_on_c, 1, 72, 76
8, 189599, Note_on_c, 1, 80, 0
8, 189599, Note_on_c, 1, 72, 0
8, 189840, Note_on_c, 1, 80, 76
8, 189840, Note_on_c, 1, 73, 76
8, 189907, Note_on_c, 1, 80, 0
8, 189907, Note_on_c, 1, 73, 0
8, 189920, Note_on_c, 1, 80, 76
8, 189920, Note_on_c, 1, 73, 76
8, 189987, Note_on_c, 1, 80, 0
8, 189987, Note_on_c, 1, 73, 0
8, 190000, Note_on_c, 1, 80, 76
8, 190000, Note_on_c, 1, 73, 76
8, 190067, Note_on_c, 1, 80, 0
8, 190067, Note_on_c, 1, 73, 0
8, 190080, Note_on_c, 1, 80, 76
8, 190080, Note_on_c, 1, 75, 76
8, 191759, Note_on_c, 1, 80, 0
8, 191759, Note_on_c, 1, 75, 0
8, 192240, Note_on_c, 1, 80, 76
8, 192240, Note_on_c, 1, 74, 76
8, 192307, Note_on_c, 1, 80, 0
8, 192307, Note_on_c, 1, 74, 0
8, 192320, Note_on_c, 1, 74, 76
8, 192320, Note_on_c, 1, 80, 76
8, 192387, Note_on_c, 1, 74, 0
8, 192387, Note_on_c, 1, 80, 0
8, 192400, Note_on_c, 1, 74, 76
8, 192400, Note_on_c, 1, 80, 76
8, 192479, Note_on_c, 1, 74, 0
8, 192479, Note_on_c, 1, 80, 0
8, 192720, Note_on_c, 1, 75, 76
8, 192720, Note_on_c, 1, 80, 76
8, 192787, Note_on_c, 1, 75, 0
8, 192787, Note_on_c, 1, 80, 0
8, 192800, Note_on_c, 1, 75, 76
8, 192800, Note_on_c, 1, 80, 76
8, 192867, Note_on_c, 1, 75, 0
8, 192867, Note_on_c, 1, 80, 0
8, 192880, Note_on_c, 1, 80, 76
8, 192880, Note_on_c, 1, 75, 76
8, 192947, Note_on_c, 1, 80, 0
8, 192947, Note_on_c, 1, 75, 0
8, 192960, Note_on_c, 1, 77, 76
8, 192960, Note_on_c, 1, 80, 76
8, 194624, Note_on_c, 1, 77, 0
8, 194624, Note_on_c, 1, 80, 0
8, 194640, Note_on_c, 1, 72, 76
8, 194719, Note_on_c, 1, 72, 0
8, 194720, Note_on_c, 1, 70, 76
8, 194799, Note_on_c, 1, 70, 0
8, 194800, Note_on_c, 1, 68, 76
8, 194879, Note_on_c, 1, 68, 0
8, 194880, Note_on_c, 1, 67, 76
8, 195119, Note_on_c, 1, 67, 0
8, 195120, Note_on_c, 1, 70, 76
8, 195199, Note_on_c, 1, 70, 0
8, 195200, Note_on_c, 1, 68, 76
8, 195279, Note_on_c, 1, 68, 0
8, 195280, Note_on_c, 1, 67, 76
8, 195359, Note_on_c, 1, 67, 0
8, 195360, Note_on_c, 1, 65, 76
8, 195599, Note_on_c, 1, 65, 0
8, 195600, Note_on_c, 1, 68, 76
8, 195679, Note_on_c, 1, 68, 0
8, 195680, Note_on_c, 1, 67, 76
8, 195759, Note_on_c, 1, 67, 0
8, 195760, Note_on_c, 1, 65, 76
8, 195827, Note_on_c, 1, 65, 0
8, 195840, Note_on_c, 1, 64, 76
8, 196019, Note_on_c, 1, 64, 0
8, 196560, Note_on_c, 1, 76, 76
8, 196639, Note_on_c, 1, 76, 0
8, 196640, Note_on_c, 1, 77, 76
8, 196719, Note_on_c, 1, 77, 0
8, 196720, Note_on_c, 1, 79, 76
8, 196787, Note_on_c, 1, 79, 0
8, 196800, Note_on_c, 1, 72, 76
8, 196979, Note_on_c, 1, 72, 0
8, 198480, Note_on_c, 1, 79, 80
8, 198480, Note_on_c, 1, 76, 80
8, 198547, Note_on_c, 1, 79, 0
8, 198547, Note_on_c, 1, 76, 0
8, 198560, Note_on_c, 1, 79, 80
8, 198560, Note_on_c, 1, 76, 80
8, 198627, Note_on_c, 1, 79, 0
8, 198627, Note_on_c, 1, 76, 0
8, 198640, Note_on_c, 1, 79, 80
8, 198640, Note_on_c, 1, 76, 80
8, 198707, Note_on_c, 1, 79, 0
8, 198707, Note_on_c, 1, 76, 0
8, 198720, Note_on_c, 1, 80, 80
8, 198720, Note_on_c, 1, 77, 80
8, 198959, Note_on_c, 1, 80, 0
8, 198959, Note_on_c, 1, 77, 0
8, 199440, Note_on_c, 1, 80, 80
8, 199440, Note_on_c, 1, 77, 80
8, 199507, Note_on_c, 1, 80, 0
8, 199507, Note_on_c, 1, 77, 0
8, 199520, Note_on_c, 1, 77, 80
8, 199520, Note_on_c, 1, 80, 80
8, 199587, Note_on_c, 1, 77, 0
8, 199587, Note_on_c, 1, 80, 0
8, 199600, Note_on_c, 1, 80, 80
8, 199600, Note_on_c, 1, 77, 80
8, 199667, Note_on_c, 1, 80, 0
8, 199667, Note_on_c, 1, 77, 0
8, 199680, Note_on_c, 1, 82, 80
8, 199680, Note_on_c, 1, 79, 80
8, 199919, Note_on_c, 1, 82, 0
8, 199919, Note_on_c, 1, 79, 0
8, 200400, Note_on_c, 1, 82, 80
8, 200400, Note_on_c, 1, 79, 80
8, 200467, Note_on_c, 1, 82, 0
8, 200467, Note_on_c, 1, 79, 0
8, 200480, Note_on_c, 1, 82, 80
8, 200480, Note_on_c, 1, 79, 80
8, 200547, Note_on_c, 1, 82, 0
8, 200547, Note_on_c, 1, 79, 0
8, 200560, Note_on_c, 1, 82, 80
8, 200560, Note_on_c, 1, 79, 80
8, 200627, Note_on_c, 1, 82, 0
8, 200627, Note_on_c, 1, 79, 0
8, 200640, Note_on_c, 1, 84, 80
8, 200640, Note_on_c, 1, 80, 80
8, 200879, Note_on_c, 1, 84, 0
8, 200879, Note_on_c, 1, 80, 0
8, 201360, Note_on_c, 1, 72, 80
8, 201427, Note_on_c, 1, 72, 0
8, 201440, Note_on_c, 1, 72, 80
8, 201507, Note_on_c, 1, 72, 0
8, 201520, Note_on_c, 1, 72, 80
8, 201587, Note_on_c, 1, 72, 0
8, 201600, Note_on_c, 1, 74, 80
8, 201600, Note_on_c, 1, 71, 80
8, 201839, Note_on_c, 1, 74, 0
8, 201839, Note_on_c, 1, 71, 0
8, 202320, Note_on_c, 1, 74, 80
8, 202320, Note_on_c, 1, 71, 80
8, 202387, Note_on_c, 1, 74, 0
8, 202387, Note_on_c, 1, 71, 0
8, 202400, Note_on_c, 1, 74, 80
8, 202400, Note_on_c, 1, 71, 80
8, 202467, Note_on_c, 1, 74, 0
8, 202467, Note_on_c, 1, 71, 0
8, 202480, Note_on_c, 1, 71, 80
8, 202480, Note_on_c, 1, 74, 80
8, 202547, Note_on_c, 1, 71, 0
8, 202547, Note_on_c, 1, 74, 0
8, 202560, Note_on_c, 1, 72, 80
8, 202560, Note_on_c, 1, 75, 80
8, 202799, Note_on_c, 1, 72, 0
8, 202799, Note_on_c, 1, 75, 0
8, 203280, Note_on_c, 1, 72, 80
8, 203280, Note_on_c, 1, 75, 80
8, 203347, Note_on_c, 1, 72, 0
8, 203347, Note_on_c, 1, 75, 0
8, 203360, Note_on_c, 1, 72, 80
8, 203360, Note_on_c, 1, 75, 80
8, 203427, Note_on_c, 1, 72, 0
8, 203427, Note_on_c, 1, 75, 0
8, 203440, Note_on_c, 1, 75, 80
8, 203440, Note_on_c, 1, 72, 80
8, 203507, Note_on_c, 1, 75, 0
8, 203507, Note_on_c, 1, 72, 0
8, 203520, Note_on_c, 1, 77, 80
8, 203520, Note_on_c, 1, 74, 80
8, 203759, Note_on_c, 1, 77, 0
8, 203759, Note_on_c, 1, 74, 0
8, 204240, Note_on_c, 1, 74, 80
8, 204240, Note_on_c, 1, 77, 80
8, 204307, Note_on_c, 1, 74, 0
8, 204307, Note_on_c, 1, 77, 0
8, 204320, Note_on_c, 1, 77, 80
8, 204320, Note_on_c, 1, 74, 80
8, 204387, Note_on_c, 1, 77, 0
8, 204387, Note_on_c, 1, 74, 0
8, 204400, Note_on_c, 1, 74, 80
8, 204400, Note_on_c, 1, 77, 80
8, 204467, Note_on_c, 1, 74, 0
8, 204467, Note_on_c, 1, 77, 0
8, 204480, Note_on_c, 1, 79, 80
8, 204480, Note_on_c, 1, 75, 80
8, 204719, Note_on_c, 1, 79, 0
8, 204719, Note_on_c, 1, 75, 0
8, 205200, Note_on_c, 1, 79, 80
8, 205200, Note_on_c, 1, 75, 80
8, 205267, Note_on_c, 1, 79, 0
8, 205267, Note_on_c, 1, 75, 0
8, 205280, Note_on_c, 1, 79, 80
8, 205280, Note_on_c, 1, 75, 80
8, 205347, Note_on_c, 1, 79, 0
8, 205347, Note_on_c, 1, 75, 0
8, 205360, Note_on_c, 1, 79, 80
8, 205360, Note_on_c, 1, 75, 80
8, 205439, Note_on_c, 1, 79, 0
8, 205439, Note_on_c, 1, 75, 0
8, 205680, Note_on_c, 1, 78, 80
8, 205747, Note_on_c, 1, 78, 0
8, 205760, Note_on_c, 1, 78, 80
8, 205827, Note_on_c, 1, 78, 0
8, 205840, Note_on_c, 1, 78, 80
8, 205919, Note_on_c, 1, 78, 0
8, 206160, Note_on_c, 1, 78, 80
8, 206227, Note_on_c, 1, 78, 0
8, 206240, Note_on_c, 1, 78, 80
8, 206307, Note_on_c, 1, 78, 0
8, 206320, Note_on_c, 1, 78, 80
8, 206399, Note_on_c, 1, 78, 0
8, 206640, Note_on_c, 1, 78, 80
8, 206707, Note_on_c, 1, 78, 0
8, 206720, Note_on_c, 1, 78, 80
8, 206787, Note_on_c, 1, 78, 0
8, 206800, Note_on_c, 1, 78, 80
8, 206879, Note_on_c, 1, 78, 0
8, 207120, Note_on_c, 1, 78, 80
8, 207187, Note_on_c, 1, 78, 0
8, 207200, Note_on_c, 1, 78, 80
8, 207267, Note_on_c, 1, 78, 0
8, 207280, Note_on_c, 1, 78, 80
8, 207347, Note_on_c, 1, 78, 0
8, 207360, Note_on_c, 1, 79, 84
8, 207360, Note_on_c, 1, 67, 84
8, 208064, Note_on_c, 1, 79, 0
8, 208064, Note_on_c, 1, 67, 0
8, 208080, Note_on_c, 1, 72, 84
8, 208080, Note_on_c, 1, 84, 84
8, 208304, Note_on_c, 1, 72, 0
8, 208304, Note_on_c, 1, 84, 0
8, 208320, Note_on_c, 1, 71, 84
8, 208320, Note_on_c, 1, 83, 84
8, 208784, Note_on_c, 1, 71, 0
8, 208784, Note_on_c, 1, 83, 0
8, 208800, Note_on_c, 1, 72, 84
8, 208800, Note_on_c, 1, 84, 84
8, 209264, Note_on_c, 1, 72, 0
8, 209264, Note_on_c, 1, 84, 0
8, 209280, Note_on_c, 1, 86, 84
8, 209280, Note_on_c, 1, 74, 84
8, 209984, Note_on_c, 1, 86, 0
8, 209984, Note_on_c, 1, 74, 0
8, 210000, Note_on_c, 1, 71, 84
8, 210000, Note_on_c, 1, 74, 84
8, 210224, Note_on_c, 1, 71, 0
8, 210224, Note_on_c, 1, 74, 0
8, 210240, Note_on_c, 1, 69, 84
8, 210240, Note_on_c, 1, 72, 84
8, 210704, Note_on_c, 1, 69, 0
8, 210704, Note_on_c, 1, 72, 0
8, 210720, Note_on_c, 1, 74, 84
8, 210720, Note_on_c, 1, 71, 84
8, 211184, Note_on_c, 1, 74, 0
8, 211184, Note_on_c, 1, 71, 0
8, 211200, Note_on_c, 1, 72, 84
8, 211200, Note_on_c, 1, 76, 84
8, 211904, Note_on_c, 1, 72, 0
8, 211904, Note_on_c, 1, 76, 0
8, 211920, Note_on_c, 1, 76, 84
8, 211920, Note_on_c, 1, 72, 84
8, 212144, Note_on_c, 1, 76, 0
8, 212144, Note_on_c, 1, 72, 0
8, 212160, Note_on_c, 1, 71, 84
8, 212160, Note_on_c, 1, 74, 84
8, 212624, Note_on_c, 1, 71, 0
8, 212624, Note_on_c, 1, 74, 0
8, 212640, Note_on_c, 1, 76, 84
8, 212640, Note_on_c, 1, 72, 84
8, 213104, Note_on_c, 1, 76, 0
8, 213104, Note_on_c, 1, 72, 0
8, 213120, Note_on_c, 1, 77, 84
8, 213120, Note_on_c, 1, 74, 84
8, 213824, Note_on_c, 1, 77, 0
8, 213824, Note_on_c, 1, 74, 0
8, 213840, Note_on_c, 1, 74, 84
8, 213840, Note_on_c, 1, 77, 84
8, 214064, Note_on_c, 1, 74, 0
8, 214064, Note_on_c, 1, 77, 0
8, 214080, Note_on_c, 1, 76, 84
8, 214080, Note_on_c, 1, 72, 84
8, 214544, Note_on_c, 1, 76, 0
8, 214544, Note_on_c, 1, 72, 0
8, 214560, Note_on_c, 1, 77, 84
8, 214560, Note_on_c, 1, 74, 84
8, 215024, Note_on_c, 1, 77, 0
8, 215024, Note_on_c, 1, 74, 0
8, 215040, Note_on_c, 1, 76, 92
8, 215040, Note_on_c, 1, 79, 92
8, 215160, Control_c, 1, 11, 112
8, 215984, Note_on_c, 1, 76, 0
8, 215984, Note_on_c, 1, 79, 0
8, 215998, Control_c, 1, 11, 127
8, 216000, Note_on_c, 1, 77, 92
8, 216000, Note_on_c, 1, 80, 92
8, 216120, Control_c, 1, 11, 112
8, 216944, Note_on_c, 1, 77, 0
8, 216944, Note_on_c, 1, 80, 0
8, 216958, Control_c, 1, 11, 127
8, 216960, Note_on_c, 1, 81, 84
8, 216960, Note_on_c, 1, 78, 84
8, 218864, Note_on_c, 1, 81, 0
8, 218864, Note_on_c, 1, 78, 0
8, 218880, Note_on_c, 1, 83, 84
8, 218880, Note_on_c, 1, 79, 84
8, 219824, Note_on_c, 1, 83, 0
8, 219824, Note_on_c, 1, 79, 0
8, 219840, Note_on_c, 1, 83, 84
8, 219840, Note_on_c, 1, 79, 84
8, 220784, Note_on_c, 1, 83, 0
8, 220784, Note_on_c, 1, 79, 0
8, 220800, Note_on_c, 1, 83, 84
8, 220800, Note_on_c, 1, 79, 84
8, 221024, Note_on_c, 1, 83, 0
8, 221024, Note_on_c, 1, 79, 0
8, 221040, Note_on_c, 1, 83, 84
8, 221040, Note_on_c, 1, 79, 84
8, 221144, Note_on_c, 1, 83, 0
8, 221144, Note_on_c, 1, 79, 0
8, 221160, Note_on_c, 1, 79, 84
8, 221160, Note_on_c, 1, 83, 84
8, 221264, Note_on_c, 1, 79, 0
8, 221264, Note_on_c, 1, 83, 0
8, 221280, Note_on_c, 1, 79, 84
8, 221280, Note_on_c, 1, 83, 84
8, 221504, Note_on_c, 1, 79, 0
8, 221504, Note_on_c, 1, 83, 0
8, 221520, Note_on_c, 1, 83, 84
8, 221520, Note_on_c, 1, 79, 84
8, 221624, Note_on_c, 1, 83, 0
8, 221624, Note_on_c, 1, 79, 0
8, 221640, Note_on_c, 1, 79, 84
8, 221640, Note_on_c, 1, 83, 84
8, 221744, Note_on_c, 1, 79, 0
8, 221744, Note_on_c, 1, 83, 0
8, 221760, Note_on_c, 1, 83, 84
8, 221760, Note_on_c, 1, 79, 84
8, 221984, Note_on_c, 1, 83, 0
8, 221984, Note_on_c, 1, 79, 0
8, 222000, Note_on_c, 1, 79, 84
8, 222000, Note_on_c, 1, 83, 84
8, 222104, Note_on_c, 1, 79, 0
8, 222104, Note_on_c, 1, 83, 0
8, 222120, Note_on_c, 1, 83, 84
8, 222120, Note_on_c, 1, 79, 84
8, 222224, Note_on_c, 1, 83, 0
8, 222224, Note_on_c, 1, 79, 0
8, 222240, Note_on_c, 1, 83, 84
8, 222240, Note_on_c, 1, 79, 84
8, 222464, Note_on_c, 1, 83, 0
8, 222464, Note_on_c, 1, 79, 0
8, 222480, Note_on_c, 1, 79, 84
8, 222480, Note_on_c, 1, 83, 84
8, 222584, Note_on_c, 1, 79, 0
8, 222584, Note_on_c, 1, 83, 0
8, 222600, Note_on_c, 1, 83, 84
8, 222600, Note_on_c, 1, 79, 84
8, 222704, Note_on_c, 1, 83, 0
8, 222704, Note_on_c, 1, 79, 0
8, 222720, Note_on_c, 1, 79, 84
8, 222720, Note_on_c, 1, 83, 84
8, 222944, Note_on_c, 1, 79, 0
8, 222944, Note_on_c, 1, 83, 0
8, 222960, Note_on_c, 1, 79, 84
8, 222960, Note_on_c, 1, 83, 84
8, 223064, Note_on_c, 1, 79, 0
8, 223064, Note_on_c, 1, 83, 0
8, 223080, Note_on_c, 1, 83, 84
8, 223080, Note_on_c, 1, 79, 84
8, 223184, Note_on_c, 1, 83, 0
8, 223184, Note_on_c, 1, 79, 0
8, 223200, Note_on_c, 1, 83, 84
8, 223200, Note_on_c, 1, 79, 84
8, 223424, Note_on_c, 1, 83, 0
8, 223424, Note_on_c, 1, 79, 0
8, 223440, Note_on_c, 1, 79, 84
8, 223440, Note_on_c, 1, 83, 84
8, 223544, Note_on_c, 1, 79, 0
8, 223544, Note_on_c, 1, 83, 0
8, 223560, Note_on_c, 1, 83, 84
8, 223560, Note_on_c, 1, 79, 84
8, 223664, Note_on_c, 1, 83, 0
8, 223664, Note_on_c, 1, 79, 0
8, 223680, Note_on_c, 1, 79, 84
8, 223680, Note_on_c, 1, 83, 84
8, 223904, Note_on_c, 1, 79, 0
8, 223904, Note_on_c, 1, 83, 0
8, 223920, Note_on_c, 1, 79, 84
8, 223920, Note_on_c, 1, 83, 84
8, 224024, Note_on_c, 1, 79, 0
8, 224024, Note_on_c, 1, 83, 0
8, 224040, Note_on_c, 1, 83, 84
8, 224040, Note_on_c, 1, 79, 84
8, 224144, Note_on_c, 1, 83, 0
8, 224144, Note_on_c, 1, 79, 0
8, 224160, Note_on_c, 1, 79, 84
8, 224160, Note_on_c, 1, 83, 84
8, 224384, Note_on_c, 1, 79, 0
8, 224384, Note_on_c, 1, 83, 0
8, 224400, Note_on_c, 1, 83, 84
8, 224400, Note_on_c, 1, 79, 84
8, 224504, Note_on_c, 1, 83, 0
8, 224504, Note_on_c, 1, 79, 0
8, 224520, Note_on_c, 1, 83, 84
8, 224520, Note_on_c, 1, 79, 84
8, 224624, Note_on_c, 1, 83, 0
8, 224624, Note_on_c, 1, 79, 0
8, 224640, Note_on_c, 1, 83, 84
8, 224640, Note_on_c, 1, 79, 84
8, 227504, Note_on_c, 1, 83, 0
8, 227504, Note_on_c, 1, 79, 0
8, 227520, Note_on_c, 1, 71, 84
8, 227520, Note_on_c, 1, 79, 84
8, 227759, Note_on_c, 1, 71, 0
8, 227759, Note_on_c, 1, 79, 0
8, 241200, Note_on_c, 1, 72, 52
8, 241419, Note_on_c, 1, 72, 0
8, 241440, Note_on_c, 1, 72, 52
8, 241659, Note_on_c, 1, 72, 0
8, 241680, Note_on_c, 1, 72, 52
8, 241899, Note_on_c, 1, 72, 0
8, 241920, Note_on_c, 1, 72, 52
8, 242619, Note_on_c, 1, 72, 0
8, 242640, Note_on_c, 1, 75, 52
8, 242879, Note_on_c, 1, 75, 0
8, 242880, Note_on_c, 1, 74, 52
8, 243099, Note_on_c, 1, 74, 0
8, 243120, Note_on_c, 1, 72, 52
8, 243299, Note_on_c, 1, 72, 0
8, 243360, Note_on_c, 1, 79, 52
8, 245519, Note_on_c, 1, 79, 0
8, 245520, Note_on_c, 1, 78, 52
8, 246239, Note_on_c, 1, 78, 0
8, 246240, Note_on_c, 1, 79, 52
8, 248399, Note_on_c, 1, 79, 0
8, 248400, Note_on_c, 1, 78, 52
8, 249119, Note_on_c, 1, 78, 0
8, 249120, Note_on_c, 1, 79, 52
8, 249819, Note_on_c, 1, 79, 0
8, 249840, Note_on_c, 1, 77, 52
8, 251279, Note_on_c, 1, 77, 0
8, 251280, Note_on_c, 1, 74, 52
8, 252719, Note_on_c, 1, 74, 0
8, 252720, Note_on_c, 1, 71, 52
8, 254159, Note_on_c, 1, 71, 0
8, 254160, Note_on_c, 1, 74, 52
8, 255579, Note_on_c, 1, 74, 0
8, 255600, Note_on_c, 1, 77, 52
8, 257039, Note_on_c, 1, 77, 0
8, 257040, Note_on_c, 1, 74, 52
8, 258479, Note_on_c, 1, 74, 0
8, 258480, Note_on_c, 1, 71, 52
8, 259919, Note_on_c, 1, 71, 0
8, 259920, Note_on_c, 1, 74, 52
8, 261359, Note_on_c, 1, 74, 0
8, 261360, Note_on_c, 1, 77, 52
8, 262799, Note_on_c, 1, 77, 0
8, 262800, Note_on_c, 1, 74, 52
8, 263499, Note_on_c, 1, 74, 0
8, 263518, Control_c, 1, 11, 64
8, 263520, Note_on_c, 1, 71, 84
8, 264239, Note_on_c, 1, 71, 0
8, 264240, Note_on_c, 1, 74, 84
8, 264959, Note_on_c, 1, 74, 0
8, 264960, Control_c, 1, 11, 64
8, 264960, Note_on_c, 1, 77, 84
8, 265020, Control_c, 1, 11, 67
8, 265080, Control_c, 1, 11, 69
8, 265140, Control_c, 1, 11, 72
8, 265200, Control_c, 1, 11, 75
8, 265260, Control_c, 1, 11, 77
8, 265320, Control_c, 1, 11, 80
8, 265380, Control_c, 1, 11, 82
8, 265440, Control_c, 1, 11, 85
8, 265500, Control_c, 1, 11, 88
8, 265560, Control_c, 1, 11, 90
8, 265620, Control_c, 1, 11, 93
8, 265679, Note_on_c, 1, 77, 0
8, 265680, Note_on_c, 1, 71, 84
8, 265680, Control_c, 1, 11, 96
8, 265740, Control_c, 1, 11, 98
8, 265800, Control_c, 1, 11, 101
8, 265860, Control_c, 1, 11, 103
8, 265920, Control_c, 1, 11, 106
8, 265980, Control_c, 1, 11, 109
8, 266040, Control_c, 1, 11, 111
8, 266100, Control_c, 1, 11, 114
8, 266160, Control_c, 1, 11, 117
8, 266220, Control_c, 1, 11, 119
8, 266280, Control_c, 1, 11, 122
8, 266340, Control_c, 1, 11, 127
8, 266379, Note_on_c, 1, 71, 0
8, 266400, Note_on_c, 1, 64, 84
8, 266400, Note_on_c, 1, 72, 84
8, 266864, Note_on_c, 1, 64, 0
8, 266864, Note_on_c, 1, 72, 0
8, 266880, Note_on_c, 1, 76, 84
8, 266880, Note_on_c, 1, 72, 84
8, 267344, Note_on_c, 1, 76, 0
8, 267344, Note_on_c, 1, 72, 0
8, 267360, Note_on_c, 1, 79, 84
8, 267360, Note_on_c, 1, 76, 84
8, 268064, Note_on_c, 1, 79, 0
8, 268064, Note_on_c, 1, 76, 0
8, 268080, Note_on_c, 1, 74, 84
8, 268080, Note_on_c, 1, 77, 84
8, 268199, Note_on_c, 1, 74, 0
8, 268199, Note_on_c, 1, 77, 0
8, 268320, Note_on_c, 1, 76, 84
8, 268320, Note_on_c, 1, 72, 84
8, 268439, Note_on_c, 1, 76, 0
8, 268439, Note_on_c, 1, 72, 0
8, 268560, Note_on_c, 1, 74, 84
8, 268560, Note_on_c, 1, 67, 84
8, 268679, Note_on_c, 1, 74, 0
8, 268679, Note_on_c, 1, 67, 0
8, 268800, Note_on_c, 1, 64, 84
8, 268800, Note_on_c, 1, 72, 84
8, 268919, Note_on_c, 1, 64, 0
8, 268919, Note_on_c, 1, 72, 0
8, 269040, Note_on_c, 1, 67, 84
8, 269040, Note_on_c, 1, 74, 84
8, 269159, Note_on_c, 1, 67, 0
8, 269159, Note_on_c, 1, 74, 0
8, 269280, Note_on_c, 1, 64, 84
8, 269280, Note_on_c, 1, 72, 84
8, 269984, Note_on_c, 1, 64, 0
8, 269984, Note_on_c, 1, 72, 0
8, 270000, Note_on_c, 1, 72, 84
8, 270000, Note_on_c, 1, 64, 84
8, 270171, Note_on_c, 1, 72, 0
8, 270171, Note_on_c, 1, 64, 0
8, 270180, Note_on_c, 1, 72, 84
8, 270180, Note_on_c, 1, 64, 84
8, 270231, Note_on_c, 1, 72, 0
8, 270231, Note_on_c, 1, 64, 0
8, 270240, Note_on_c, 1, 74, 84
8, 270240, Note_on_c, 1, 67, 84
8, 270944, Note_on_c, 1, 74, 0
8, 270944, Note_on_c, 1, 67, 0
8, 270960, Note_on_c, 1, 67, 84
8, 270960, Note_on_c, 1, 74, 84
8, 271131, Note_on_c, 1, 67, 0
8, 271131, Note_on_c, 1, 74, 0
8, 271140, Note_on_c, 1, 74, 84
8, 271140, Note_on_c, 1, 67, 84
8, 271191, Note_on_c, 1, 74, 0
8, 271191, Note_on_c, 1, 67, 0
8, 271200, Note_on_c, 1, 72, 84
8, 271200, Note_on_c, 1, 76, 84
8, 271784, Note_on_c, 1, 72, 0
8, 271784, Note_on_c, 1, 76, 0
8, 271800, Note_on_c, 1, 72, 84
8, 271889, Note_on_c, 1, 72, 0
8, 271920, Note_on_c, 1, 74, 84
8, 272009, Note_on_c, 1, 74, 0
8, 272040, Note_on_c, 1, 76, 84
8, 272129, Note_on_c, 1, 76, 0
8, 272160, Note_on_c, 1, 77, 84
8, 272249, Note_on_c, 1, 77, 0
8, 272280, Note_on_c, 1, 76, 84
8, 272369, Note_on_c, 1, 76, 0
8, 272400, Note_on_c, 1, 77, 84
8, 272489, Note_on_c, 1, 77, 0
8, 272520, Note_on_c, 1, 79, 84
8, 272609, Note_on_c, 1, 79, 0
8, 272640, Note_on_c, 1, 81, 84
8, 272729, Note_on_c, 1, 81, 0
8, 272760, Note_on_c, 1, 79, 84
8, 272849, Note_on_c, 1, 79, 0
8, 272880, Note_on_c, 1, 81, 84
8, 272969, Note_on_c, 1, 81, 0
8, 273000, Note_on_c, 1, 83, 84
8, 273089, Note_on_c, 1, 83, 0
8, 273120, Note_on_c, 1, 84, 84
8, 273704, Note_on_c, 1, 84, 0
8, 273720, Note_on_c, 1, 72, 84
8, 273809, Note_on_c, 1, 72, 0
8, 273840, Note_on_c, 1, 74, 84
8, 273929, Note_on_c, 1, 74, 0
8, 273960, Note_on_c, 1, 76, 84
8, 274049, Note_on_c, 1, 76, 0
8, 274080, Note_on_c, 1, 77, 84
8, 274169, Note_on_c, 1, 77, 0
8, 274200, Note_on_c, 1, 76, 84
8, 274289, Note_on_c, 1, 76, 0
8, 274320, Note_on_c, 1, 77, 84
8, 274409, Note_on_c, 1, 77, 0
8, 274440, Note_on_c, 1, 79, 84
8, 274529, Note_on_c, 1, 79, 0
8, 274560, Note_on_c, 1, 81, 84
8, 274649, Note_on_c, 1, 81, 0
8, 274680, Note_on_c, 1, 79, 84
8, 274769, Note_on_c, 1, 79, 0
8, 274800, Note_on_c, 1, 81, 84
8, 274889, Note_on_c, 1, 81, 0
8, 274920, Note_on_c, 1, 83, 84
8, 275009, Note_on_c, 1, 83, 0
8, 275040, Note_on_c, 1, 84, 84
8, 275624, Note_on_c, 1, 84, 0
8, 275640, Note_on_c, 1, 72, 84
8, 275729, Note_on_c, 1, 72, 0
8, 275760, Note_on_c, 1, 74, 84
8, 275849, Note_on_c, 1, 74, 0
8, 275880, Note_on_c, 1, 76, 84
8, 275947, Note_on_c, 1, 76, 0
8, 275960, Note_on_c, 1, 79, 84
8, 275999, Note_on_c, 1, 79, 0
8, 276000, Note_on_c, 1, 77, 84
8, 276089, Note_on_c, 1, 77, 0
8, 276120, Note_on_c, 1, 76, 84
8, 276209, Note_on_c, 1, 76, 0
8, 276240, Note_on_c, 1, 77, 84
8, 276329, Note_on_c, 1, 77, 0
8, 276360, Note_on_c, 1, 79, 84
8, 276427, Note_on_c, 1, 79, 0
8, 276440, Note_on_c, 1, 83, 84
8, 276479, Note_on_c, 1, 83, 0
8, 276480, Note_on_c, 1, 81, 84
8, 276569, Note_on_c, 1, 81, 0
8, 276600, Note_on_c, 1, 79, 84
8, 276689, Note_on_c, 1, 79, 0
8, 276720, Note_on_c, 1, 81, 84
8, 276809, Note_on_c, 1, 81, 0
8, 276840, Note_on_c, 1, 83, 84
8, 276929, Note_on_c, 1, 83, 0
8, 276960, Note_on_c, 1, 79, 84
8, 276960, Note_on_c, 1, 72, 84
8, 277049, Note_on_c, 1, 79, 0
8, 277049, Note_on_c, 1, 72, 0
8, 277080, Note_on_c, 1, 71, 84
8, 277169, Note_on_c, 1, 71, 0
8, 277200, Note_on_c, 1, 72, 84
8, 277289, Note_on_c, 1, 72, 0
8, 277320, Note_on_c, 1, 74, 84
8, 277409, Note_on_c, 1, 74, 0
8, 277440, Note_on_c, 1, 76, 84
8, 277664, Note_on_c, 1, 76, 0
8, 277680, Note_on_c, 1, 79, 84
8, 277680, Note_on_c, 1, 76, 84
8, 277799, Note_on_c, 1, 79, 0
8, 277799, Note_on_c, 1, 76, 0
8, 277860, Note_on_c, 1, 79, 84
8, 277860, Note_on_c, 1, 76, 84
8, 277911, Note_on_c, 1, 79, 0
8, 277911, Note_on_c, 1, 76, 0
8, 277920, Note_on_c, 1, 76, 84
8, 277920, Note_on_c, 1, 79, 84
8, 278039, Note_on_c, 1, 76, 0
8, 278039, Note_on_c, 1, 79, 0
8, 278040, Note_on_c, 1, 77, 84
8, 278040, Note_on_c, 1, 74, 84
8, 278144, Note_on_c, 1, 77, 0
8, 278144, Note_on_c, 1, 74, 0
8, 278160, Note_on_c, 1, 77, 84
8, 278160, Note_on_c, 1, 74, 84
8, 278279, Note_on_c, 1, 77, 0
8, 278279, Note_on_c, 1, 74, 0
8, 278340, Note_on_c, 1, 77, 84
8, 278340, Note_on_c, 1, 74, 84
8, 278391, Note_on_c, 1, 77, 0
8, 278391, Note_on_c, 1, 74, 0
8, 278400, Note_on_c, 1, 77, 84
8, 278400, Note_on_c, 1, 74, 84
8, 278519, Note_on_c, 1, 77, 0
8, 278519, Note_on_c, 1, 74, 0
8, 278520, Note_on_c, 1, 72, 84
8, 278520, Note_on_c, 1, 76, 84
8, 278624, Note_on_c, 1, 72, 0
8, 278624, Note_on_c, 1, 76, 0
8, 278640, Note_on_c, 1, 72, 84
8, 278640, Note_on_c, 1, 76, 84
8, 278759, Note_on_c, 1, 72, 0
8, 278759, Note_on_c, 1, 76, 0
8, 278820, Note_on_c, 1, 72, 84
8, 278820, Note_on_c, 1, 76, 84
8, 278871, Note_on_c, 1, 72, 0
8, 278871, Note_on_c, 1, 76, 0
8, 278880, Note_on_c, 1, 72, 84
8, 278880, Note_on_c, 1, 76, 84
8, 278999, Note_on_c, 1, 72, 0
8, 278999, Note_on_c, 1, 76, 0
8, 279000, Note_on_c, 1, 74, 84
8, 279000, Note_on_c, 1, 71, 84
8, 279104, Note_on_c, 1, 74, 0
8, 279104, Note_on_c, 1, 71, 0
8, 279120, Note_on_c, 1, 74, 84
8, 279120, Note_on_c, 1, 71, 84
8, 279584, Note_on_c, 1, 74, 0
8, 279584, Note_on_c, 1, 71, 0
8, 279600, Note_on_c, 1, 72, 84
8, 279600, Note_on_c, 1, 76, 84
8, 279719, Note_on_c, 1, 72, 0
8, 279719, Note_on_c, 1, 76, 0
8, 279780, Note_on_c, 1, 76, 84
8, 279780, Note_on_c, 1, 79, 84
8, 279831, Note_on_c, 1, 76, 0
8, 279831, Note_on_c, 1, 79, 0
8, 279840, Note_on_c, 1, 79, 84
8, 279840, Note_on_c, 1, 76, 84
8, 279959, Note_on_c, 1, 79, 0
8, 279959, Note_on_c, 1, 76, 0
8, 279960, Note_on_c, 1, 74, 84
8, 279960, Note_on_c, 1, 77, 84
8, 280064, Note_on_c, 1, 74, 0
8, 280064, Note_on_c, 1, 77, 0
8, 280080, Note_on_c, 1, 77, 84
8, 280080, Note_on_c, 1, 74, 84
8, 280199, Note_on_c, 1, 77, 0
8, 280199, Note_on_c, 1, 74, 0
8, 280260, Note_on_c, 1, 74, 84
8, 280260, Note_on_c, 1, 77, 84
8, 280311, Note_on_c, 1, 74, 0
8, 280311, Note_on_c, 1, 77, 0
8, 280320, Note_on_c, 1, 77, 84
8, 280320, Note_on_c, 1, 74, 84
8, 280439, Note_on_c, 1, 77, 0
8, 280439, Note_on_c, 1, 74, 0
8, 280440, Note_on_c, 1, 72, 84
8, 280440, Note_on_c, 1, 76, 84
8, 280544, Note_on_c, 1, 72, 0
8, 280544, Note_on_c, 1, 76, 0
8, 280560, Note_on_c, 1, 76, 84
8, 280560, Note_on_c, 1, 72, 84
8, 280679, Note_on_c, 1, 76, 0
8, 280679, Note_on_c, 1, 72, 0
8, 280740, Note_on_c, 1, 72, 84
8, 280740, Note_on_c, 1, 76, 84
8, 280791, Note_on_c, 1, 72, 0
8, 280791, Note_on_c, 1, 76, 0
8, 280800, Note_on_c, 1, 72, 84
8, 280800, Note_on_c, 1, 76, 84
8, 280919, Note_on_c, 1, 72, 0
8, 280919, Note_on_c, 1, 76, 0
8, 280920, Note_on_c, 1, 74, 84
8, 280920, Note_on_c, 1, 71, 84
8, 281024, Note_on_c, 1, 74, 0
8, 281024, Note_on_c, 1, 71, 0
8, 281040, Note_on_c, 1, 74, 84
8, 281040, Note_on_c, 1, 71, 84
8, 281504, Note_on_c, 1, 74, 0
8, 281504, Note_on_c, 1, 71, 0
8, 281520, Note_on_c, 1, 76, 84
8, 281520, Note_on_c, 1, 72, 84
8, 281609, Note_on_c, 1, 76, 0
8, 281609, Note_on_c, 1, 72, 0
8, 281700, Note_on_c, 1, 76, 84
8, 281700, Note_on_c, 1, 79, 84
8, 281744, Note_on_c, 1, 76, 0
8, 281744, Note_on_c, 1, 79, 0
8, 281760, Note_on_c, 1, 76, 84
8, 281760, Note_on_c, 1, 79, 84
8, 281849, Note_on_c, 1, 76, 0
8, 281849, Note_on_c, 1, 79, 0
8, 281940, Note_on_c, 1, 74, 84
8, 281940, Note_on_c, 1, 77, 84
8, 281984, Note_on_c, 1, 74, 0
8, 281984, Note_on_c, 1, 77, 0
8, 282000, Note_on_c, 1, 74, 84
8, 282000, Note_on_c, 1, 77, 84
8, 282089, Note_on_c, 1, 74, 0
8, 282089, Note_on_c, 1, 77, 0
8, 282180, Note_on_c, 1, 77, 84
8, 282180, Note_on_c, 1, 74, 84
8, 282224, Note_on_c, 1, 77, 0
8, 282224, Note_on_c, 1, 74, 0
8, 282240, Note_on_c, 1, 77, 84
8, 282240, Note_on_c, 1, 74, 84
8, 282329, Note_on_c, 1, 77, 0
8, 282329, Note_on_c, 1, 74, 0
8, 282420, Note_on_c, 1, 72, 84
8, 282420, Note_on_c, 1, 76, 84
8, 282464, Note_on_c, 1, 72, 0
8, 282464, Note_on_c, 1, 76, 0
8, 282480, Note_on_c, 1, 76, 84
8, 282480, Note_on_c, 1, 72, 84
8, 282569, Note_on_c, 1, 76, 0
8, 282569, Note_on_c, 1, 72, 0
8, 282660, Note_on_c, 1, 76, 84
8, 282660, Note_on_c, 1, 72, 84
8, 282704, Note_on_c, 1, 76, 0
8, 282704, Note_on_c, 1, 72, 0
8, 282720, Note_on_c, 1, 74, 84
8, 282720, Note_on_c, 1, 71, 84
8, 282944, Note_on_c, 1, 74, 0
8, 282944, Note_on_c, 1, 71, 0
8, 282960, Note_on_c, 1, 79, 84
8, 283424, Note_on_c, 1, 79, 0
8, 283440, Note_on_c, 1, 81, 84
8, 283499, Note_on_c, 1, 81, 0
8, 283500, Note_on_c, 1, 79, 84
8, 283559, Note_on_c, 1, 79, 0
8, 283560, Note_on_c, 1, 77, 84
8, 283619, Note_on_c, 1, 77, 0
8, 283620, Note_on_c, 1, 76, 84
8, 283671, Note_on_c, 1, 76, 0
8, 283680, Note_on_c, 1, 74, 84
8, 283799, Note_on_c, 1, 74, 0
8, 283860, Note_on_c, 1, 74, 84
8, 283911, Note_on_c, 1, 74, 0
8, 283920, Note_on_c, 1, 79, 84
8, 284384, Note_on_c, 1, 79, 0
8, 284400, Note_on_c, 1, 81, 84
8, 284459, Note_on_c, 1, 81, 0
8, 284460, Note_on_c, 1, 79, 84
8, 284519, Note_on_c, 1, 79, 0
8, 284520, Note_on_c, 1, 77, 84
8, 284579, Note_on_c, 1, 77, 0
8, 284580, Note_on_c, 1, 76, 84
8, 284631, Note_on_c, 1, 76, 0
8, 284640, Note_on_c, 1, 74, 84
8, 284759, Note_on_c, 1, 74, 0
8, 284820, Note_on_c, 1, 79, 84
8, 284871, Note_on_c, 1, 79, 0
8, 284880, Note_on_c, 1, 81, 84
8, 284939, Note_on_c, 1, 81, 0
8, 284940, Note_on_c, 1, 79, 84
8, 284999, Note_on_c, 1, 79, 0
8, 285000, Note_on_c, 1, 77, 84
8, 285059, Note_on_c, 1, 77, 0
8, 285060, Note_on_c, 1, 76, 84
8, 285111, Note_on_c, 1, 76, 0
8, 285120, Note_on_c, 1, 74, 84
8, 285239, Note_on_c, 1, 74, 0
8, 285300, Note_on_c, 1, 79, 84
8, 285351, Note_on_c, 1, 79, 0
8, 285360, Note_on_c, 1, 81, 84
8, 285419, Note_on_c, 1, 81, 0
8, 285420, Note_on_c, 1, 79, 84
8, 285479, Note_on_c, 1, 79, 0
8, 285480, Note_on_c, 1, 77, 84
8, 285539, Note_on_c, 1, 77, 0
8, 285540, Note_on_c, 1, 76, 84
8, 285591, Note_on_c, 1, 76, 0
8, 285600, Note_on_c, 1, 74, 84
8, 285719, Note_on_c, 1, 74, 0
8, 285780, Note_on_c, 1, 79, 84
8, 285831, Note_on_c, 1, 79, 0
8, 285840, Note_on_c, 1, 81, 84
8, 285899, Note_on_c, 1, 81, 0
8, 285900, Note_on_c, 1, 79, 84
8, 285959, Note_on_c, 1, 79, 0
8, 285960, Note_on_c, 1, 77, 84
8, 286019, Note_on_c, 1, 77, 0
8, 286020, Note_on_c, 1, 76, 84
8, 286071, Note_on_c, 1, 76, 0
8, 286080, Note_on_c, 1, 74, 84
8, 286199, Note_on_c, 1, 74, 0
8, 286260, Note_on_c, 1, 79, 84
8, 286311, Note_on_c, 1, 79, 0
8, 286320, Note_on_c, 1, 81, 84
8, 286379, Note_on_c, 1, 81, 0
8, 286380, Note_on_c, 1, 79, 84
8, 286439, Note_on_c, 1, 79, 0
8, 286440, Note_on_c, 1, 77, 84
8, 286499, Note_on_c, 1, 77, 0
8, 286500, Note_on_c, 1, 76, 84
8, 286551, Note_on_c, 1, 76, 0
8, 286560, Note_on_c, 1, 74, 84
8, 286679, Note_on_c, 1, 74, 0
8, 288600, Note_on_c, 1, 72, 92
8, 288719, Note_on_c, 1, 72, 0
8, 288720, Note_on_c, 1, 71, 84
8, 288824, Note_on_c, 1, 71, 0
8, 288840, Note_on_c, 1, 69, 84
8, 288929, Note_on_c, 1, 69, 0
8, 288960, Note_on_c, 1, 67, 84
8, 289049, Note_on_c, 1, 67, 0
8, 289080, Note_on_c, 1, 72, 92
8, 289199, Note_on_c, 1, 72, 0
8, 289200, Note_on_c, 1, 71, 84
8, 289304, Note_on_c, 1, 71, 0
8, 289320, Note_on_c, 1, 69, 84
8, 289409, Note_on_c, 1, 69, 0
8, 289440, Note_on_c, 1, 67, 84
8, 289529, Note_on_c, 1, 67, 0
8, 289560, Note_on_c, 1, 72, 92
8, 289679, Note_on_c, 1, 72, 0
8, 289680, Note_on_c, 1, 71, 84
8, 289784, Note_on_c, 1, 71, 0
8, 289800, Note_on_c, 1, 69, 84
8, 289889, Note_on_c, 1, 69, 0
8, 289920, Note_on_c, 1, 67, 84
8, 290009, Note_on_c, 1, 67, 0
8, 290040, Note_on_c, 1, 77, 84
8, 290129, Note_on_c, 1, 77, 0
8, 290160, Note_on_c, 1, 76, 84
8, 290249, Note_on_c, 1, 76, 0
8, 290280, Note_on_c, 1, 74, 84
8, 290369, Note_on_c, 1, 74, 0
8, 290400, Note_on_c, 1, 72, 84
8, 290400, Note_on_c, 1, 64, 84
8, 291104, Note_on_c, 1, 72, 0
8, 291104, Note_on_c, 1, 64, 0
8, 291120, Note_on_c, 1, 67, 84
8, 291120, Note_on_c, 1, 64, 84
8, 291359, Note_on_c, 1, 67, 0
8, 291359, Note_on_c, 1, 64, 0
8, 291360, Note_on_c, 1, 67, 84
8, 291360, Note_on_c, 1, 76, 84
8, 292079, Note_on_c, 1, 67, 0
8, 292079, Note_on_c, 1, 76, 0
8, 292080, Note_on_c, 1, 74, 84
8, 292080, Note_on_c, 1, 65, 84
8, 292259, Note_on_c, 1, 74, 0
8, 292259, Note_on_c, 1, 65, 0
8, 292260, Note_on_c, 1, 72, 84
8, 292260, Note_on_c, 1, 64, 84
8, 292311, Note_on_c, 1, 72, 0
8, 292311, Note_on_c, 1, 64, 0
8, 292320, Note_on_c, 1, 71, 84
8, 292320, Note_on_c, 1, 62, 84
8, 292559, Note_on_c, 1, 71, 0
8, 292559, Note_on_c, 1, 62, 0
8, 294240, Note_on_c, 1, 74, 84
8, 294240, Note_on_c, 1, 71, 84
8, 294944, Note_on_c, 1, 74, 0
8, 294944, Note_on_c, 1, 71, 0
8, 294960, Note_on_c, 1, 67, 84
8, 295199, Note_on_c, 1, 67, 0
8, 295200, Note_on_c, 1, 74, 84
8, 295200, Note_on_c, 1, 77, 84
8, 295919, Note_on_c, 1, 74, 0
8, 295919, Note_on_c, 1, 77, 0
8, 295920, Note_on_c, 1, 72, 84
8, 295920, Note_on_c, 1, 76, 84
8, 296099, Note_on_c, 1, 72, 0
8, 296099, Note_on_c, 1, 76, 0
8, 296100, Note_on_c, 1, 74, 84
8, 296100, Note_on_c, 1, 71, 84
8, 296151, Note_on_c, 1, 74, 0
8, 296151, Note_on_c, 1, 71, 0
8, 296160, Note_on_c, 1, 82, 84
8, 296160, Note_on_c, 1, 79, 84
8, 298064, Note_on_c, 1, 82, 0
8, 298064, Note_on_c, 1, 79, 0
8, 298080, Note_on_c, 1, 79, 84
8, 298080, Note_on_c, 1, 76, 84
8, 298319, Note_on_c, 1, 79, 0
8, 298319, Note_on_c, 1, 76, 0
8, 299040, Note_on_c, 1, 79, 84
8, 299040, Note_on_c, 1, 76, 84
8, 299279, Note_on_c, 1, 79, 0
8, 299279, Note_on_c, 1, 76, 0
8, 300000, Note_on_c, 1, 81, 84
8, 300000, Note_on_c, 1, 77, 84
8, 300239, Note_on_c, 1, 81, 0
8, 300239, Note_on_c, 1, 77, 0
8, 300960, Note_on_c, 1, 77, 84
8, 300960, Note_on_c, 1, 81, 84
8, 301199, Note_on_c, 1, 77, 0
8, 301199, Note_on_c, 1, 81, 0
8, 301920, Note_on_c, 1, 71, 84
8, 303344, Note_on_c, 1, 71, 0
8, 303360, Note_on_c, 1, 71, 84
8, 303599, Note_on_c, 1, 71, 0
8, 303600, Note_on_c, 1, 72, 84
8, 303779, Note_on_c, 1, 72, 0
8, 303780, Note_on_c, 1, 74, 84
8, 303831, Note_on_c, 1, 74, 0
8, 303840, Note_on_c, 1, 72, 84
8, 305264, Note_on_c, 1, 72, 0
8, 305280, Note_on_c, 1, 72, 84
8, 305519, Note_on_c, 1, 72, 0
8, 305520, Note_on_c, 1, 74, 84
8, 305699, Note_on_c, 1, 74, 0
8, 305700, Note_on_c, 1, 76, 84
8, 305751, Note_on_c, 1, 76, 0
8, 305760, Note_on_c, 1, 74, 84
8, 306224, Note_on_c, 1, 74, 0
8, 306240, Note_on_c, 1, 71, 84
8, 306599, Note_on_c, 1, 71, 0
8, 306600, Note_on_c, 1, 72, 84
8, 306659, Note_on_c, 1, 72, 0
8, 306660, Note_on_c, 1, 74, 84
8, 306711, Note_on_c, 1, 74, 0
8, 306720, Note_on_c, 1, 72, 84
8, 307184, Note_on_c, 1, 72, 0
8, 307200, Note_on_c, 1, 72, 84
8, 307559, Note_on_c, 1, 72, 0
8, 307560, Note_on_c, 1, 74, 84
8, 307619, Note_on_c, 1, 74, 0
8, 307620, Note_on_c, 1, 76, 84
8, 307671, Note_on_c, 1, 76, 0
8, 307680, Note_on_c, 1, 74, 84
8, 307784, Note_on_c, 1, 74, 0
8, 307800, Note_on_c, 1, 79, 84
8, 307800, Note_on_c, 1, 71, 84
8, 308024, Note_on_c, 1, 71, 0
8, 308040, Note_on_c, 1, 72, 84
8, 308144, Note_on_c, 1, 72, 0
8, 308160, Note_on_c, 1, 74, 84
8, 308249, Note_on_c, 1, 79, 0
8, 308249, Note_on_c, 1, 74, 0
8, 308280, Note_on_c, 1, 79, 84
8, 308399, Note_on_c, 1, 79, 0
8, 308400, Note_on_c, 1, 77, 84
8, 308504, Note_on_c, 1, 77, 0
8, 308520, Note_on_c, 1, 76, 84
8, 308609, Note_on_c, 1, 76, 0
8, 308640, Note_on_c, 1, 74, 84
8, 308729, Note_on_c, 1, 74, 0
8, 308760, Note_on_c, 1, 76, 84
8, 308879, Note_on_c, 1, 76, 0
8, 308880, Note_on_c, 1, 74, 84
8, 308984, Note_on_c, 1, 74, 0
8, 309000, Note_on_c, 1, 72, 84
8, 309089, Note_on_c, 1, 72, 0
8, 309120, Note_on_c, 1, 71, 84
8, 309224, Note_on_c, 1, 71, 0
8, 309240, Note_on_c, 1, 79, 84
8, 309240, Note_on_c, 1, 83, 84
8, 309359, Note_on_c, 1, 79, 0
8, 309359, Note_on_c, 1, 83, 0
8, 309360, Note_on_c, 1, 78, 84
8, 309360, Note_on_c, 1, 84, 84
8, 309464, Note_on_c, 1, 78, 0
8, 309464, Note_on_c, 1, 84, 0
8, 309480, Note_on_c, 1, 78, 84
8, 309480, Note_on_c, 1, 84, 84
8, 309569, Note_on_c, 1, 78, 0
8, 309569, Note_on_c, 1, 84, 0
8, 309600, Note_on_c, 1, 79, 84
8, 309600, Note_on_c, 1, 83, 84
8, 309689, Note_on_c, 1, 79, 0
8, 309689, Note_on_c, 1, 83, 0
8, 309720, Note_on_c, 1, 67, 84
8, 309720, Note_on_c, 1, 79, 84
8, 309839, Note_on_c, 1, 67, 0
8, 309839, Note_on_c, 1, 79, 0
8, 309840, Note_on_c, 1, 78, 84
8, 309840, Note_on_c, 1, 66, 84
8, 309944, Note_on_c, 1, 78, 0
8, 309944, Note_on_c, 1, 66, 0
8, 309960, Note_on_c, 1, 72, 84
8, 309960, Note_on_c, 1, 84, 84
8, 310049, Note_on_c, 1, 72, 0
8, 310049, Note_on_c, 1, 84, 0
8, 310080, Note_on_c, 1, 83, 84
8, 310080, Note_on_c, 1, 71, 84
8, 310199, Note_on_c, 1, 83, 0
8, 310199, Note_on_c, 1, 71, 0
8, 311520, Note_on_c, 1, 76, 84
8, 311520, Note_on_c, 1, 79, 84
8, 311699, Note_on_c, 1, 76, 0
8, 311699, Note_on_c, 1, 79, 0
8, 312000, Note_on_c, 1, 81, 84
8, 312000, Note_on_c, 1, 77, 84
8, 312179, Note_on_c, 1, 81, 0
8, 312179, Note_on_c, 1, 77, 0
8, 312480, Note_on_c, 1, 76, 84
8, 312480, Note_on_c, 1, 79, 84
8, 313199, Note_on_c, 1, 76, 0
8, 313199, Note_on_c, 1, 79, 0
8, 315120, Note_on_c, 1, 71, 76
8, 315120, Note_on_c, 1, 74, 76
8, 315187, Note_on_c, 1, 71, 0
8, 315187, Note_on_c, 1, 74, 0
8, 315200, Note_on_c, 1, 76, 76
8, 315200, Note_on_c, 1, 72, 76
8, 315267, Note_on_c, 1, 76, 0
8, 315267, Note_on_c, 1, 72, 0
8, 315280, Note_on_c, 1, 77, 76
8, 315280, Note_on_c, 1, 74, 76
8, 315347, Note_on_c, 1, 77, 0
8, 315347, Note_on_c, 1, 74, 0
8, 315360, Note_on_c, 1, 79, 76
8, 315360, Note_on_c, 1, 76, 76
8, 315584, Note_on_c, 1, 79, 0
8, 315584, Note_on_c, 1, 76, 0
8, 315600, Note_on_c, 1, 76, 76
8, 315600, Note_on_c, 1, 72, 76
8, 315667, Note_on_c, 1, 76, 0
8, 315667, Note_on_c, 1, 72, 0
8, 315680, Note_on_c, 1, 74, 76
8, 315680, Note_on_c, 1, 77, 76
8, 315747, Note_on_c, 1, 74, 0
8, 315747, Note_on_c, 1, 77, 0
8, 315760, Note_on_c, 1, 79, 76
8, 315760, Note_on_c, 1, 76, 76
8, 315827, Note_on_c, 1, 79, 0
8, 315827, Note_on_c, 1, 76, 0
8, 315840, Note_on_c, 1, 81, 76
8, 315840, Note_on_c, 1, 77, 76
8, 316064, Note_on_c, 1, 81, 0
8, 316064, Note_on_c, 1, 77, 0
8, 316080, Note_on_c, 1, 77, 76
8, 316080, Note_on_c, 1, 81, 76
8, 316147, Note_on_c, 1, 77, 0
8, 316147, Note_on_c, 1, 81, 0
8, 316160, Note_on_c, 1, 79, 76
8, 316160, Note_on_c, 1, 83, 76
8, 316227, Note_on_c, 1, 79, 0
8, 316227, Note_on_c, 1, 83, 0
8, 316240, Note_on_c, 1, 81, 76
8, 316240, Note_on_c, 1, 84, 76
8, 316307, Note_on_c, 1, 81, 0
8, 316307, Note_on_c, 1, 84, 0
8, 316320, Note_on_c, 1, 79, 76
8, 316320, Note_on_c, 1, 76, 76
8, 317039, Note_on_c, 1, 79, 0
8, 317039, Note_on_c, 1, 76, 0
8, 320880, Note_on_c, 1, 84, 48
8, 320959, Note_on_c, 1, 84, 0
8, 320960, Note_on_c, 1, 82, 48
8, 321039, Note_on_c, 1, 82, 0
8, 321040, Note_on_c, 1, 81, 48
8, 321119, Note_on_c, 1, 81, 0
8, 321120, Note_on_c, 1, 79, 48
8, 321359, Note_on_c, 1, 79, 0
8, 321360, Note_on_c, 1, 82, 48
8, 321439, Note_on_c, 1, 82, 0
8, 321440, Note_on_c, 1, 81, 48
8, 321519, Note_on_c, 1, 81, 0
8, 321520, Note_on_c, 1, 79, 48
8, 321599, Note_on_c, 1, 79, 0
8, 321600, Note_on_c, 1, 77, 48
8, 321839, Note_on_c, 1, 77, 0
8, 321840, Note_on_c, 1, 81, 48
8, 321919, Note_on_c, 1, 81, 0
8, 321920, Note_on_c, 1, 79, 48
8, 321999, Note_on_c, 1, 79, 0
8, 322000, Note_on_c, 1, 77, 48
8, 322067, Note_on_c, 1, 77, 0
8, 322078, Control_c, 1, 11, 64
8, 322080, Control_c, 1, 11, 64
8, 322080, Note_on_c, 1, 76, 84
8, 322160, Control_c, 1, 11, 67
8, 322240, Control_c, 1, 11, 69
8, 322320, Control_c, 1, 11, 72
8, 322400, Control_c, 1, 11, 75
8, 322480, Control_c, 1, 11, 77
8, 322560, Control_c, 1, 11, 80
8, 322640, Control_c, 1, 11, 82
8, 322720, Control_c, 1, 11, 85
8, 322800, Control_c, 1, 11, 88
8, 322880, Control_c, 1, 11, 90
8, 322960, Control_c, 1, 11, 93
8, 323040, Control_c, 1, 11, 96
8, 323120, Control_c, 1, 11, 98
8, 323200, Control_c, 1, 11, 101
8, 323280, Control_c, 1, 11, 103
8, 323360, Control_c, 1, 11, 106
8, 323440, Control_c, 1, 11, 109
8, 323520, Control_c, 1, 11, 111
8, 323600, Control_c, 1, 11, 114
8, 323680, Control_c, 1, 11, 117
8, 323760, Control_c, 1, 11, 119
8, 323840, Control_c, 1, 11, 122
8, 323920, Control_c, 1, 11, 127
8, 323984, Note_on_c, 1, 76, 0
8, 324000, Note_on_c, 1, 77, 84
8, 324000, Note_on_c, 1, 81, 84
8, 324479, Note_on_c, 1, 77, 0
8, 324479, Note_on_c, 1, 81, 0
8, 324480, Note_on_c, 1, 81, 84
8, 324480, Note_on_c, 1, 77, 84
8, 324584, Note_on_c, 1, 81, 0
8, 324584, Note_on_c, 1, 77, 0
8, 324600, Note_on_c, 1, 81, 84
8, 324600, Note_on_c, 1, 77, 84
8, 324704, Note_on_c, 1, 81, 0
8, 324704, Note_on_c, 1, 77, 0
8, 324720, Note_on_c, 1, 81, 84
8, 324720, Note_on_c, 1, 77, 84
8, 324824, Note_on_c, 1, 81, 0
8, 324824, Note_on_c, 1, 77, 0
8, 324840, Note_on_c, 1, 77, 84
8, 324840, Note_on_c, 1, 81, 84
8, 324944, Note_on_c, 1, 77, 0
8, 324944, Note_on_c, 1, 81, 0
8, 324960, Note_on_c, 1, 81, 84
8, 324960, Note_on_c, 1, 77, 84
8, 325064, Note_on_c, 1, 81, 0
8, 325064, Note_on_c, 1, 77, 0
8, 325080, Note_on_c, 1, 77, 84
8, 325080, Note_on_c, 1, 81, 84
8, 325184, Note_on_c, 1, 77, 0
8, 325184, Note_on_c, 1, 81, 0
8, 325200, Note_on_c, 1, 81, 84
8, 325200, Note_on_c, 1, 77, 84
8, 325304, Note_on_c, 1, 81, 0
8, 325304, Note_on_c, 1, 77, 0
8, 325320, Note_on_c, 1, 81, 84
8, 325320, Note_on_c, 1, 77, 84
8, 325424, Note_on_c, 1, 81, 0
8, 325424, Note_on_c, 1, 77, 0
8, 325440, Note_on_c, 1, 81, 84
8, 325440, Note_on_c, 1, 77, 84
8, 325544, Note_on_c, 1, 81, 0
8, 325544, Note_on_c, 1, 77, 0
8, 325560, Note_on_c, 1, 81, 84
8, 325560, Note_on_c, 1, 77, 84
8, 325664, Note_on_c, 1, 81, 0
8, 325664, Note_on_c, 1, 77, 0
8, 325680, Note_on_c, 1, 81, 84
8, 325680, Note_on_c, 1, 77, 84
8, 325784, Note_on_c, 1, 81, 0
8, 325784, Note_on_c, 1, 77, 0
8, 325800, Note_on_c, 1, 77, 84
8, 325800, Note_on_c, 1, 81, 84
8, 325904, Note_on_c, 1, 77, 0
8, 325904, Note_on_c, 1, 81, 0
8, 325920, Note_on_c, 1, 77, 84
8, 325920, Note_on_c, 1, 81, 84
8, 326144, Note_on_c, 1, 77, 0
8, 326144, Note_on_c, 1, 81, 0
8, 326160, Note_on_c, 1, 78, 84
8, 326384, Note_on_c, 1, 78, 0
8, 326400, Note_on_c, 1, 79, 84
8, 326624, Note_on_c, 1, 79, 0
8, 326640, Note_on_c, 1, 80, 84
8, 326864, Note_on_c, 1, 80, 0
8, 326880, Note_on_c, 1, 81, 84
8, 327104, Note_on_c, 1, 81, 0
8, 327120, Note_on_c, 1, 83, 84
8, 327344, Note_on_c, 1, 83, 0
8, 327360, Note_on_c, 1, 84, 84
8, 327420, Note_on_c, 1, 83, 84
8, 327464, Note_on_c, 1, 84, 0
8, 327471, Note_on_c, 1, 83, 0
8, 327480, Note_on_c, 1, 72, 84
8, 327480, Note_on_c, 1, 81, 84
8, 327531, Note_on_c, 1, 81, 0
8, 327540, Note_on_c, 1, 79, 84
8, 327584, Note_on_c, 1, 72, 0
8, 327591, Note_on_c, 1, 79, 0
8, 327600, Note_on_c, 1, 77, 84
8, 327600, Note_on_c, 1, 72, 84
8, 327651, Note_on_c, 1, 77, 0
8, 327660, Note_on_c, 1, 76, 84
8, 327704, Note_on_c, 1, 72, 0
8, 327711, Note_on_c, 1, 76, 0
8, 327720, Note_on_c, 1, 72, 84
8, 327720, Note_on_c, 1, 74, 84
8, 327771, Note_on_c, 1, 74, 0
8, 327824, Note_on_c, 1, 72, 0
8, 327840, Note_on_c, 1, 77, 84
8, 327840, Note_on_c, 1, 74, 84
8, 328019, Note_on_c, 1, 77, 0
8, 328019, Note_on_c, 1, 74, 0
8, 328800, Note_on_c, 1, 74, 84
8, 328800, Note_on_c, 1, 71, 84
8, 328979, Note_on_c, 1, 74, 0
8, 328979, Note_on_c, 1, 71, 0
8, 329760, Note_on_c, 1, 72, 76
8, 329880, Control_c, 1, 11, 72
8, 330479, Note_on_c, 1, 72, 0
8, 330480, Note_on_c, 1, 71, 76
8, 330719, Note_on_c, 1, 71, 0
8, 330720, Note_on_c, 1, 69, 76
8, 330959, Note_on_c, 1, 69, 0
8, 330960, Note_on_c, 1, 67, 76
8, 331184, Note_on_c, 1, 67, 0
8, 331200, Note_on_c, 1, 67, 76
8, 331424, Note_on_c, 1, 67, 0
8, 331440, Note_on_c, 1, 67, 76
8, 331664, Note_on_c, 1, 67, 0
8, 331678, Control_c, 1, 11, 127
8, 331680, Note_on_c, 1, 72, 76
8, 331800, Control_c, 1, 11, 80
8, 332399, Note_on_c, 1, 72, 0
8, 332400, Note_on_c, 1, 71, 76
8, 332639, Note_on_c, 1, 71, 0
8, 332640, Note_on_c, 1, 69, 76
8, 332879, Note_on_c, 1, 69, 0
8, 332880, Note_on_c, 1, 67, 76
8, 333104, Note_on_c, 1, 67, 0
8, 333120, Note_on_c, 1, 67, 76
8, 333344, Note_on_c, 1, 67, 0
8, 333360, Note_on_c, 1, 67, 76
8, 333584, Note_on_c, 1, 67, 0
8, 333598, Control_c, 1, 11, 127
8, 333600, Note_on_c, 1, 77, 76
8, 333720, Control_c, 1, 11, 80
8, 334319, Note_on_c, 1, 77, 0
8, 334320, Note_on_c, 1, 76, 76
8, 334559, Note_on_c, 1, 76, 0
8, 334560, Note_on_c, 1, 74, 76
8, 334799, Note_on_c, 1, 74, 0
8, 334800, Note_on_c, 1, 73, 76
8, 335024, Note_on_c, 1, 73, 0
8, 335040, Note_on_c, 1, 73, 76
8, 335264, Note_on_c, 1, 73, 0
8, 335280, Note_on_c, 1, 73, 76
8, 335504, Note_on_c, 1, 73, 0
8, 335520, Note_on_c, 1, 74, 76
8, 335984, Note_on_c, 1, 74, 0
8, 336000, Note_on_c, 1, 77, 76
8, 336419, Note_on_c, 1, 77, 0
8, 336420, Note_on_c, 1, 74, 76
8, 336479, Note_on_c, 1, 74, 0
8, 336480, Note_on_c, 1, 72, 76
8, 336959, Note_on_c, 1, 72, 0
8, 336960, Note_on_c, 1, 74, 76
8, 337379, Note_on_c, 1, 74, 0
8, 337380, Note_on_c, 1, 71, 76
8, 337431, Note_on_c, 1, 71, 0
8, 337438, Control_c, 1, 11, 127
8, 337440, Note_on_c, 1, 72, 76
8, 337440, Note_on_c, 1, 79, 76
8, 338144, Note_on_c, 1, 72, 0
8, 338144, Note_on_c, 1, 79, 0
8, 338160, Note_on_c, 1, 77, 76
8, 338160, Note_on_c, 1, 71, 76
8, 338384, Note_on_c, 1, 77, 0
8, 338384, Note_on_c, 1, 71, 0
8, 338400, Note_on_c, 1, 77, 76
8, 338400, Note_on_c, 1, 72, 76
8, 338624, Note_on_c, 1, 77, 0
8, 338624, Note_on_c, 1, 72, 0
8, 338640, Note_on_c, 1, 77, 76
8, 338640, Note_on_c, 1, 74, 76
8, 338864, Note_on_c, 1, 77, 0
8, 338864, Note_on_c, 1, 74, 0
8, 338880, Note_on_c, 1, 74, 76
8, 338880, Note_on_c, 1, 77, 76
8, 339104, Note_on_c, 1, 74, 0
8, 339104, Note_on_c, 1, 77, 0
8, 339120, Note_on_c, 1, 77, 76
8, 339120, Note_on_c, 1, 74, 76
8, 339344, Note_on_c, 1, 77, 0
8, 339344, Note_on_c, 1, 74, 0
8, 339360, Note_on_c, 1, 79, 84
8, 339360, Note_on_c, 1, 72, 84
8, 339480, Control_c, 1, 11, 112
8, 340064, Note_on_c, 1, 79, 0
8, 340064, Note_on_c, 1, 72, 0
8, 340080, Note_on_c, 1, 71, 84
8, 340080, Note_on_c, 1, 77, 84
8, 340304, Note_on_c, 1, 71, 0
8, 340304, Note_on_c, 1, 77, 0
8, 340320, Note_on_c, 1, 77, 84
8, 340320, Note_on_c, 1, 72, 84
8, 340544, Note_on_c, 1, 77, 0
8, 340544, Note_on_c, 1, 72, 0
8, 340560, Note_on_c, 1, 77, 84
8, 340560, Note_on_c, 1, 74, 84
8, 340784, Note_on_c, 1, 77, 0
8, 340784, Note_on_c, 1, 74, 0
8, 340800, Note_on_c, 1, 74, 84
8, 340800, Note_on_c, 1, 77, 84
8, 341024, Note_on_c, 1, 74, 0
8, 341024, Note_on_c, 1, 77, 0
8, 341040, Note_on_c, 1, 74, 84
8, 341040, Note_on_c, 1, 77, 84
8, 341264, Note_on_c, 1, 74, 0
8, 341264, Note_on_c, 1, 77, 0
8, 341278, Control_c, 1, 11, 127
8, 341280, Note_on_c, 1, 77, 84
8, 341280, Note_on_c, 1, 79, 84
8, 341400, Control_c, 1, 11, 112
8, 341984, Note_on_c, 1, 77, 0
8, 341984, Note_on_c, 1, 79, 0
8, 342000, Note_on_c, 1, 76, 84
8, 342000, Note_on_c, 1, 79, 84
8, 342224, Note_on_c, 1, 76, 0
8, 342224, Note_on_c, 1, 79, 0
8, 342238, Control_c, 1, 11, 127
8, 342240, Note_on_c, 1, 74, 76
8, 342240, Note_on_c, 1, 81, 76
8, 342464, Note_on_c, 1, 74, 0
8, 342464, Note_on_c, 1, 81, 0
8, 342480, Note_on_c, 1, 82, 80
8, 342480, Note_on_c, 1, 73, 80
8, 342704, Note_on_c, 1, 82, 0
8, 342704, Note_on_c, 1, 73, 0
8, 342720, Note_on_c, 1, 82, 80
8, 342720, Note_on_c, 1, 73, 80
8, 342944, Note_on_c, 1, 82, 0
8, 342944, Note_on_c, 1, 73, 0
8, 342960, Note_on_c, 1, 82, 80
8, 342960, Note_on_c, 1, 73, 80
8, 343184, Note_on_c, 1, 82, 0
8, 343184, Note_on_c, 1, 73, 0
8, 343200, Note_on_c, 1, 82, 80
8, 343200, Note_on_c, 1, 73, 80
8, 343424, Note_on_c, 1, 82, 0
8, 343424, Note_on_c, 1, 73, 0
8, 343440, Note_on_c, 1, 82, 80
8, 343440, Note_on_c, 1, 85, 80
8, 343664, Note_on_c, 1, 82, 0
8, 343664, Note_on_c, 1, 85, 0
8, 343680, Note_on_c, 1, 82, 80
8, 343680, Note_on_c, 1, 85, 80
8, 343904, Note_on_c, 1, 82, 0
8, 343904, Note_on_c, 1, 85, 0
8, 343920, Note_on_c, 1, 85, 80
8, 343920, Note_on_c, 1, 82, 80
8, 344144, Note_on_c, 1, 85, 0
8, 344144, Note_on_c, 1, 82, 0
8, 344160, Note_on_c, 1, 85, 80
8, 344160, Note_on_c, 1, 82, 80
8, 344384, Note_on_c, 1, 85, 0
8, 344384, Note_on_c, 1, 82, 0
8, 344400, Note_on_c, 1, 85, 80
8, 344400, Note_on_c, 1, 82, 80
8, 344624, Note_on_c, 1, 85, 0
8, 344624, Note_on_c, 1, 82, 0
8, 344640, Note_on_c, 1, 82, 80
8, 344640, Note_on_c, 1, 85, 80
8, 344864, Note_on_c, 1, 82, 0
8, 344864, Note_on_c, 1, 85, 0
8, 344880, Note_on_c, 1, 85, 80
8, 344880, Note_on_c, 1, 82, 80
8, 345104, Note_on_c, 1, 85, 0
8, 345104, Note_on_c, 1, 82, 0
8, 345120, Note_on_c, 1, 85, 84
8, 345120, Note_on_c, 1, 82, 84
8, 346064, Note_on_c, 1, 85, 0
8, 346064, Note_on_c, 1, 82, 0
8, 346080, Note_on_c, 1, 86, 84
8, 346080, Note_on_c, 1, 82, 84
8, 347024, Note_on_c, 1, 86, 0
8, 347024, Note_on_c, 1, 82, 0
8, 347040, Note_on_c, 1, 83, 84
8, 347040, Note_on_c, 1, 86, 84
8, 347984, Note_on_c, 1, 83, 0
8, 347984, Note_on_c, 1, 86, 0
8, 348000, Note_on_c, 1, 75, 84
8, 348000, Note_on_c, 1, 84, 84
8, 349904, Note_on_c, 1, 75, 0
8, 349904, Note_on_c, 1, 84, 0
8, 349920, Note_on_c, 1, 76, 92
8, 349920, Note_on_c, 1, 84, 92
8, 350040, Control_c, 1, 11, 112
8, 350639, Note_on_c, 1, 76, 0
8, 350639, Note_on_c, 1, 84, 0
8, 354720, Control_c, 1, 11, 127
8, 354960, Note_on_c, 1, 71, 76
8, 355039, Note_on_c, 1, 71, 0
8, 355040, Note_on_c, 1, 72, 76
8, 355119, Note_on_c, 1, 72, 0
8, 355120, Note_on_c, 1, 74, 76
8, 355199, Note_on_c, 1, 74, 0
8, 355440, Note_on_c, 1, 72, 76
8, 355519, Note_on_c, 1, 72, 0
8, 355520, Note_on_c, 1, 74, 76
8, 355599, Note_on_c, 1, 74, 0
8, 355600, Note_on_c, 1, 76, 76
8, 355679, Note_on_c, 1, 76, 0
8, 355920, Note_on_c, 1, 74, 76
8, 355999, Note_on_c, 1, 74, 0
8, 356000, Note_on_c, 1, 76, 76
8, 356079, Note_on_c, 1, 76, 0
8, 356080, Note_on_c, 1, 77, 76
8, 356159, Note_on_c, 1, 77, 0
8, 356880, Note_on_c, 1, 72, 76
8, 356959, Note_on_c, 1, 72, 0
8, 356960, Note_on_c, 1, 74, 76
8, 357039, Note_on_c, 1, 74, 0
8, 357040, Note_on_c, 1, 76, 76
8, 357119, Note_on_c, 1, 76, 0
8, 357360, Note_on_c, 1, 74, 76
8, 357439, Note_on_c, 1, 74, 0
8, 357440, Note_on_c, 1, 76, 76
8, 357519, Note_on_c, 1, 76, 0
8, 357520, Note_on_c, 1, 77, 76
8, 357599, Note_on_c, 1, 77, 0
8, 357840, Note_on_c, 1, 76, 76
8, 357919, Note_on_c, 1, 76, 0
8, 357920, Note_on_c, 1, 77, 76
8, 357999, Note_on_c, 1, 77, 0
8, 358000, Note_on_c, 1, 79, 76
8, 358079, Note_on_c, 1, 79, 0
8, 358320, Note_on_c, 1, 72, 80
8, 358320, Note_on_c, 1, 76, 80
8, 358544, Note_on_c, 1, 72, 0
8, 358544, Note_on_c, 1, 76, 0
8, 358560, Note_on_c, 1, 74, 80
8, 358560, Note_on_c, 1, 71, 80
8, 359024, Note_on_c, 1, 74, 0
8, 359024, Note_on_c, 1, 71, 0
8, 359040, Note_on_c, 1, 76, 80
8, 359040, Note_on_c, 1, 72, 80
8, 359504, Note_on_c, 1, 76, 0
8, 359504, Note_on_c, 1, 72, 0
8, 359520, Note_on_c, 1, 77, 80
8, 359520, Note_on_c, 1, 71, 80
8, 360224, Note_on_c, 1, 77, 0
8, 360224, Note_on_c, 1, 71, 0
8, 360240, Note_on_c, 1, 71, 80
8, 360240, Note_on_c, 1, 77, 80
8, 360464, Note_on_c, 1, 71, 0
8, 360464, Note_on_c, 1, 77, 0
8, 360480, Note_on_c, 1, 76, 80
8, 360480, Note_on_c, 1, 70, 80
8, 360944, Note_on_c, 1, 76, 0
8, 360944, Note_on_c, 1, 70, 0
8, 360960, Note_on_c, 1, 70, 80
8, 360960, Note_on_c, 1, 77, 80
8, 361424, Note_on_c, 1, 70, 0
8, 361424, Note_on_c, 1, 77, 0
8, 361440, Note_on_c, 1, 79, 84
8, 361440, Note_on_c, 1, 73, 84
8, 362384, Note_on_c, 1, 73, 0
8, 362400, Note_on_c, 1, 72, 84
8, 363344, Note_on_c, 1, 79, 0
8, 363344, Note_on_c, 1, 72, 0
8, 363360, Note_on_c, 1, 81, 84
8, 363360, Note_on_c, 1, 72, 84
8, 363839, Note_on_c, 1, 81, 0
8, 363839, Note_on_c, 1, 72, 0
8, 363840, Note_on_c, 1, 72, 84
8, 363840, Note_on_c, 1, 81, 84
8, 363944, Note_on_c, 1, 72, 0
8, 363944, Note_on_c, 1, 81, 0
8, 363960, Note_on_c, 1, 72, 84
8, 363960, Note_on_c, 1, 81, 84
8, 364064, Note_on_c, 1, 72, 0
8, 364064, Note_on_c, 1, 81, 0
8, 364080, Note_on_c, 1, 72, 84
8, 364080, Note_on_c, 1, 81, 84
8, 364184, Note_on_c, 1, 72, 0
8, 364184, Note_on_c, 1, 81, 0
8, 364200, Note_on_c, 1, 81, 84
8, 364200, Note_on_c, 1, 72, 84
8, 364304, Note_on_c, 1, 81, 0
8, 364304, Note_on_c, 1, 72, 0
8, 364320, Note_on_c, 1, 84, 84
8, 364320, Note_on_c, 1, 81, 84
8, 364799, Note_on_c, 1, 84, 0
8, 364799, Note_on_c, 1, 81, 0
8, 364800, Note_on_c, 1, 84, 84
8, 364800, Note_on_c, 1, 81, 84
8, 364904, Note_on_c, 1, 84, 0
8, 364904, Note_on_c, 1, 81, 0
8, 364920, Note_on_c, 1, 81, 84
8, 364920, Note_on_c, 1, 84, 84
8, 365024, Note_on_c, 1, 81, 0
8, 365024, Note_on_c, 1, 84, 0
8, 365040, Note_on_c, 1, 81, 84
8, 365040, Note_on_c, 1, 84, 84
8, 365144, Note_on_c, 1, 81, 0
8, 365144, Note_on_c, 1, 84, 0
8, 365160, Note_on_c, 1, 84, 84
8, 365160, Note_on_c, 1, 81, 84
8, 365264, Note_on_c, 1, 84, 0
8, 365264, Note_on_c, 1, 81, 0
8, 365280, Note_on_c, 1, 81, 84
8, 365280, Note_on_c, 1, 84, 84
8, 365504, Note_on_c, 1, 81, 0
8, 365504, Note_on_c, 1, 84, 0
8, 365520, Note_on_c, 1, 84, 84
8, 365520, Note_on_c, 1, 81, 84
8, 365624, Note_on_c, 1, 84, 0
8, 365624, Note_on_c, 1, 81, 0
8, 365640, Note_on_c, 1, 84, 84
8, 365640, Note_on_c, 1, 81, 84
8, 365744, Note_on_c, 1, 84, 0
8, 365744, Note_on_c, 1, 81, 0
8, 365760, Note_on_c, 1, 84, 84
8, 365760, Note_on_c, 1, 81, 84
8, 365864, Note_on_c, 1, 84, 0
8, 365864, Note_on_c, 1, 81, 0
8, 365880, Note_on_c, 1, 81, 84
8, 365880, Note_on_c, 1, 84, 84
8, 365984, Note_on_c, 1, 81, 0
8, 365984, Note_on_c, 1, 84, 0
8, 366000, Note_on_c, 1, 81, 84
8, 366000, Note_on_c, 1, 84, 84
8, 366104, Note_on_c, 1, 81, 0
8, 366104, Note_on_c, 1, 84, 0
8, 366120, Note_on_c, 1, 81, 84
8, 366120, Note_on_c, 1, 84, 84
8, 366224, Note_on_c, 1, 81, 0
8, 366224, Note_on_c, 1, 84, 0
8, 366240, Note_on_c, 1, 84, 84
8, 366240, Note_on_c, 1, 81, 84
8, 366344, Note_on_c, 1, 84, 0
8, 366344, Note_on_c, 1, 81, 0
8, 366360, Note_on_c, 1, 81, 84
8, 366360, Note_on_c, 1, 84, 84
8, 366464, Note_on_c, 1, 81, 0
8, 366464, Note_on_c, 1, 84, 0
8, 366480, Note_on_c, 1, 84, 84
8, 366480, Note_on_c, 1, 81, 84
8, 366584, Note_on_c, 1, 84, 0
8, 366584, Note_on_c, 1, 81, 0
8, 366600, Note_on_c, 1, 84, 84
8, 366600, Note_on_c, 1, 81, 84
8, 366704, Note_on_c, 1, 84, 0
8, 366704, Note_on_c, 1, 81, 0
8, 366720, Note_on_c, 1, 81, 84
8, 366720, Note_on_c, 1, 84, 84
8, 366824, Note_on_c, 1, 81, 0
8, 366824, Note_on_c, 1, 84, 0
8, 366840, Note_on_c, 1, 81, 84
8, 366840, Note_on_c, 1, 84, 84
8, 366944, Note_on_c, 1, 81, 0
8, 366944, Note_on_c, 1, 84, 0
8, 366960, Note_on_c, 1, 81, 84
8, 366960, Note_on_c, 1, 84, 84
8, 367064, Note_on_c, 1, 81, 0
8, 367064, Note_on_c, 1, 84, 0
8, 367080, Note_on_c, 1, 81, 84
8, 367080, Note_on_c, 1, 84, 84
8, 367184, Note_on_c, 1, 81, 0
8, 367184, Note_on_c, 1, 84, 0
8, 367200, Note_on_c, 1, 74, 84
8, 367200, Note_on_c, 1, 83, 84
8, 367379, Note_on_c, 1, 74, 0
8, 367379, Note_on_c, 1, 83, 0
8, 368160, Note_on_c, 1, 74, 84
8, 368160, Note_on_c, 1, 83, 84
8, 368339, Note_on_c, 1, 74, 0
8, 368339, Note_on_c, 1, 83, 0
8, 369120, Note_on_c, 1, 84, 84
8, 369120, Note_on_c, 1, 76, 84
8, 369299, Note_on_c, 1, 84, 0
8, 369299, Note_on_c, 1, 76, 0
8, 370080, Note_on_c, 1, 74, 84
8, 370080, Note_on_c, 1, 83, 84
8, 370259, Note_on_c, 1, 74, 0
8, 370259, Note_on_c, 1, 83, 0
8, 371040, Note_on_c, 1, 84, 84
8, 371040, Note_on_c, 1, 76, 84
8, 371219, Note_on_c, 1, 84, 0
8, 371219, Note_on_c, 1, 76, 0
8, 372000, Note_on_c, 1, 83, 84
8, 372000, Note_on_c, 1, 74, 84
8, 372179, Note_on_c, 1, 83, 0
8, 372179, Note_on_c, 1, 74, 0
8, 379440, Note_on_c, 1, 67, 52
8, 379679, Note_on_c, 1, 67, 0
8, 379680, Note_on_c, 1, 72, 54
8, 379919, Note_on_c, 1, 72, 0
8, 379920, Note_on_c, 1, 67, 57
8, 380159, Note_on_c, 1, 67, 0
8, 380160, Note_on_c, 1, 76, 60
8, 380399, Note_on_c, 1, 76, 0
8, 380400, Note_on_c, 1, 74, 62
8, 380579, Note_on_c, 1, 74, 0
8, 380580, Note_on_c, 1, 72, 64
8, 380631, Note_on_c, 1, 72, 0
8, 380640, Note_on_c, 1, 71, 65
8, 380879, Note_on_c, 1, 71, 0
8, 380880, Note_on_c, 1, 67, 68
8, 381119, Note_on_c, 1, 67, 0
8, 381120, Note_on_c, 1, 74, 70
8, 381359, Note_on_c, 1, 74, 0
8, 381360, Note_on_c, 1, 72, 73
8, 381539, Note_on_c, 1, 72, 0
8, 381540, Note_on_c, 1, 71, 75
8, 381591, Note_on_c, 1, 71, 0
8, 381600, Note_on_c, 1, 72, 76
8, 381839, Note_on_c, 1, 72, 0
8, 381840, Note_on_c, 1, 77, 76
8, 381840, Note_on_c, 1, 71, 76
8, 382079, Note_on_c, 1, 77, 0
8, 382079, Note_on_c, 1, 71, 0
8, 382080, Note_on_c, 1, 76, 76
8, 382080, Note_on_c, 1, 72, 76
8, 382319, Note_on_c, 1, 76, 0
8, 382319, Note_on_c, 1, 72, 0
8, 382320, Note_on_c, 1, 67, 76
8, 382320, Note_on_c, 1, 74, 76
8, 382559, Note_on_c, 1, 67, 0
8, 382559, Note_on_c, 1, 74, 0
8, 382560, Note_on_c, 1, 69, 76
8, 382560, Note_on_c, 1, 72, 76
8, 382799, Note_on_c, 1, 69, 0
8, 382799, Note_on_c, 1, 72, 0
8, 382800, Note_on_c, 1, 76, 76
8, 382800, Note_on_c, 1, 79, 76
8, 383039, Note_on_c, 1, 76, 0
8, 383039, Note_on_c, 1, 79, 0
8, 383040, Note_on_c, 1, 69, 76
8, 383040, Note_on_c, 1, 81, 76
8, 383279, Note_on_c, 1, 69, 0
8, 383279, Note_on_c, 1, 81, 0
8, 383280, Note_on_c, 1, 79, 76
8, 383280, Note_on_c, 1, 67, 76
8, 383504, Note_on_c, 1, 79, 0
8, 383504, Note_on_c, 1, 67, 0
8, 383520, Note_on_c, 1, 69, 76
8, 383520, Note_on_c, 1, 81, 76
8, 384224, Note_on_c, 1, 69, 0
8, 384224, Note_on_c, 1, 81, 0
8, 384240, Note_on_c, 1, 67, 76
8, 384240, Note_on_c, 1, 79, 76
8, 384419, Note_on_c, 1, 67, 0
8, 384419, Note_on_c, 1, 79, 0
8, 384480, Note_on_c, 1, 65, 76
8, 384480, Note_on_c, 1, 77, 76
8, 385184, Note_on_c, 1, 65, 0
8, 385184, Note_on_c, 1, 77, 0
8, 385200, Note_on_c, 1, 79, 76
8, 385200, Note_on_c, 1, 67, 76
8, 385379, Note_on_c, 1, 79, 0
8, 385379, Note_on_c, 1, 67, 0
8, 385440, Note_on_c, 1, 81, 76
8, 385440, Note_on_c, 1, 69, 76
8, 386144, Note_on_c, 1, 81, 0
8, 386144, Note_on_c, 1, 69, 0
8, 386160, Note_on_c, 1, 67, 76
8, 386160, Note_on_c, 1, 79, 76
8, 386339, Note_on_c, 1, 67, 0
8, 386339, Note_on_c, 1, 79, 0
8, 386400, Note_on_c, 1, 77, 76
8, 386400, Note_on_c, 1, 65, 76
8, 387104, Note_on_c, 1, 77, 0
8, 387104, Note_on_c, 1, 65, 0
8, 387120, Note_on_c, 1, 75, 76
8, 387120, Note_on_c, 1, 78, 76
8, 387299, Note_on_c, 1, 75, 0
8, 387299, Note_on_c, 1, 78, 0
8, 387360, Note_on_c, 1, 74, 76
8, 387360, Note_on_c, 1, 79, 76
8, 387599, Note_on_c, 1, 74, 0
8, 387599, Note_on_c, 1, 79, 0
8, 387840, Note_on_c, 1, 72, 52
8, 387840, Note_on_c, 1, 76, 52
8, 388079, Note_on_c, 1, 72, 0
8, 388079, Note_on_c, 1, 76, 0
8, 388320, Note_on_c, 1, 77, 52
8, 388320, Note_on_c, 1, 74, 52
8, 388559, Note_on_c, 1, 77, 0
8, 388559, Note_on_c, 1, 74, 0
8, 388800, Note_on_c, 1, 74, 52
8, 388800, Note_on_c, 1, 71, 52
8, 389039, Note_on_c, 1, 74, 0
8, 389039, Note_on_c, 1, 71, 0
8, 390960, Note_on_c, 1, 64, 48
8, 391199, Note_on_c, 1, 64, 0
8, 391200, Note_on_c, 1, 72, 48
8, 391439, Note_on_c, 1, 72, 0
8, 391440, Note_on_c, 1, 67, 48
8, 391679, Note_on_c, 1, 67, 0
8, 391680, Note_on_c, 1, 76, 48
8, 391919, Note_on_c, 1, 76, 0
8, 391920, Note_on_c, 1, 74, 48
8, 392099, Note_on_c, 1, 74, 0
8, 392100, Note_on_c, 1, 72, 48
8, 392151, Note_on_c, 1, 72, 0
8, 392160, Note_on_c, 1, 79, 48
8, 392864, Note_on_c, 1, 79, 0
8, 392880, Note_on_c, 1, 79, 52
8, 392880, Note_on_c, 1, 71, 52
8, 393119, Note_on_c, 1, 79, 0
8, 393120, Note_on_c, 1, 74, 53
8, 393344, Note_on_c, 1, 71, 0
8, 393344, Note_on_c, 1, 74, 0
8, 393360, Note_on_c, 1, 74, 54
8, 393360, Note_on_c, 1, 71, 54
8, 393599, Note_on_c, 1, 74, 0
8, 393599, Note_on_c, 1, 71, 0
8, 393840, Note_on_c, 1, 74, 56
8, 393840, Note_on_c, 1, 71, 56
8, 394079, Note_on_c, 1, 74, 0
8, 394079, Note_on_c, 1, 71, 0
8, 394320, Note_on_c, 1, 72, 58
8, 394320, Note_on_c, 1, 76, 58
8, 394559, Note_on_c, 1, 72, 0
8, 394559, Note_on_c, 1, 76, 0
8, 394800, Note_on_c, 1, 76, 61
8, 394800, Note_on_c, 1, 72, 61
8, 395039, Note_on_c, 1, 76, 0
8, 395039, Note_on_c, 1, 72, 0
8, 395280, Note_on_c, 1, 74, 63
8, 395280, Note_on_c, 1, 71, 63
8, 395519, Note_on_c, 1, 74, 0
8, 395519, Note_on_c, 1, 71, 0
8, 395760, Note_on_c, 1, 74, 65
8, 395760, Note_on_c, 1, 71, 65
8, 395999, Note_on_c, 1, 74, 0
8, 395999, Note_on_c, 1, 71, 0
8, 396240, Note_on_c, 1, 76, 68
8, 396240, Note_on_c, 1, 72, 68
8, 396479, Note_on_c, 1, 76, 0
8, 396479, Note_on_c, 1, 72, 0
8, 396720, Note_on_c, 1, 72, 70
8, 396720, Note_on_c, 1, 76, 70
8, 396959, Note_on_c, 1, 72, 0
8, 396959, Note_on_c, 1, 76, 0
8, 397200, Note_on_c, 1, 71, 72
8, 397200, Note_on_c, 1, 74, 72
8, 397439, Note_on_c, 1, 71, 0
8, 397439, Note_on_c, 1, 74, 0
8, 397680, Note_on_c, 1, 74, 74
8, 397680, Note_on_c, 1, 71, 74
8, 397904, Note_on_c, 1, 74, 0
8, 397904, Note_on_c, 1, 71, 0
8, 397920, Note_on_c, 1, 72, 76
8, 398159, Note_on_c, 1, 72, 0
8, 398160, Note_on_c, 1, 83, 76
8, 398399, Note_on_c, 1, 83, 0
8, 398400, Note_on_c, 1, 81, 76
8, 398639, Note_on_c, 1, 81, 0
8, 398640, Note_on_c, 1, 79, 76
8, 398879, Note_on_c, 1, 79, 0
8, 398880, Note_on_c, 1, 77, 76
8, 399119, Note_on_c, 1, 77, 0
8, 399120, Note_on_c, 1, 76, 76
8, 399359, Note_on_c, 1, 76, 0
8, 399360, Note_on_c, 1, 74, 76
8, 399599, Note_on_c, 1, 74, 0
8, 399600, Note_on_c, 1, 73, 76
8, 399824, Note_on_c, 1, 73, 0
8, 399840, Note_on_c, 1, 74, 76
8, 400064, Note_on_c, 1, 74, 0
8, 400080, Note_on_c, 1, 81, 76
8, 400080, Note_on_c, 1, 69, 76
8, 400544, Note_on_c, 1, 81, 0
8, 400544, Note_on_c, 1, 69, 0
8, 400560, Note_on_c, 1, 67, 76
8, 400560, Note_on_c, 1, 79, 76
8, 400739, Note_on_c, 1, 67, 0
8, 400739, Note_on_c, 1, 79, 0
8, 400800, Note_on_c, 1, 77, 76
8, 400800, Note_on_c, 1, 65, 76
8, 401504, Note_on_c, 1, 77, 0
8, 401504, Note_on_c, 1, 65, 0
8, 401520, Note_on_c, 1, 67, 76
8, 401520, Note_on_c, 1, 79, 76
8, 401699, Note_on_c, 1, 67, 0
8, 401699, Note_on_c, 1, 79, 0
8, 401760, Note_on_c, 1, 69, 76
8, 401760, Note_on_c, 1, 81, 76
8, 402464, Note_on_c, 1, 69, 0
8, 402464, Note_on_c, 1, 81, 0
8, 402480, Note_on_c, 1, 67, 76
8, 402480, Note_on_c, 1, 79, 76
8, 402659, Note_on_c, 1, 67, 0
8, 402659, Note_on_c, 1, 79, 0
8, 402720, Note_on_c, 1, 65, 76
8, 402720, Note_on_c, 1, 77, 76
8, 403424, Note_on_c, 1, 65, 0
8, 403424, Note_on_c, 1, 77, 0
8, 403440, Note_on_c, 1, 75, 76
8, 403440, Note_on_c, 1, 78, 76
8, 403619, Note_on_c, 1, 75, 0
8, 403619, Note_on_c, 1, 78, 0
8, 403680, Note_on_c, 1, 76, 52
8, 403680, Note_on_c, 1, 79, 52
8, 403731, Note_on_c, 1, 76, 0
8, 403731, Note_on_c, 1, 79, 0
8, 403740, Note_on_c, 1, 76, 52
8, 403740, Note_on_c, 1, 79, 52
8, 403791, Note_on_c, 1, 76, 0
8, 403791, Note_on_c, 1, 79, 0
8, 403800, Note_on_c, 1, 76, 52
8, 403800, Note_on_c, 1, 79, 52
8, 403851, Note_on_c, 1, 76, 0
8, 403851, Note_on_c, 1, 79, 0
8, 403860, Note_on_c, 1, 79, 52
8, 403860, Note_on_c, 1, 76, 52
8, 403919, Note_on_c, 1, 79, 0
8, 403919, Note_on_c, 1, 76, 0
8, 403980, Note_on_c, 1, 72, 52
8, 403980, Note_on_c, 1, 79, 52
8, 404031, Note_on_c, 1, 72, 0
8, 404031, Note_on_c, 1, 79, 0
8, 404040, Note_on_c, 1, 79, 52
8, 404040, Note_on_c, 1, 72, 52
8, 404091, Note_on_c, 1, 79, 0
8, 404091, Note_on_c, 1, 72, 0
8, 404100, Note_on_c, 1, 72, 52
8, 404100, Note_on_c, 1, 79, 52
8, 404159, Note_on_c, 1, 72, 0
8, 404159, Note_on_c, 1, 79, 0
8, 404220, Note_on_c, 1, 72, 52
8, 404220, Note_on_c, 1, 79, 52
8, 404271, Note_on_c, 1, 72, 0
8, 404271, Note_on_c, 1, 79, 0
8, 404280, Note_on_c, 1, 72, 52
8, 404280, Note_on_c, 1, 79, 52
8, 404331, Note_on_c, 1, 72, 0
8, 404331, Note_on_c, 1, 79, 0
8, 404340, Note_on_c, 1, 72, 52
8, 404340, Note_on_c, 1, 79, 52
8, 404399, Note_on_c, 1, 72, 0
8, 404399, Note_on_c, 1, 79, 0
8, 404460, Note_on_c, 1, 77, 53
8, 404460, Note_on_c, 1, 72, 53
8, 404511, Note_on_c, 1, 77, 0
8, 404511, Note_on_c, 1, 72, 0
8, 404520, Note_on_c, 1, 72, 53
8, 404520, Note_on_c, 1, 77, 53
8, 404571, Note_on_c, 1, 72, 0
8, 404571, Note_on_c, 1, 77, 0
8, 404580, Note_on_c, 1, 77, 53
8, 404580, Note_on_c, 1, 72, 53
8, 404639, Note_on_c, 1, 77, 0
8, 404639, Note_on_c, 1, 72, 0
8, 404700, Note_on_c, 1, 77, 54
8, 404700, Note_on_c, 1, 74, 54
8, 404751, Note_on_c, 1, 77, 0
8, 404751, Note_on_c, 1, 74, 0
8, 404760, Note_on_c, 1, 74, 54
8, 404760, Note_on_c, 1, 77, 54
8, 404811, Note_on_c, 1, 74, 0
8, 404811, Note_on_c, 1, 77, 0
8, 404820, Note_on_c, 1, 74, 55
8, 404820, Note_on_c, 1, 77, 55
8, 404879, Note_on_c, 1, 74, 0
8, 404879, Note_on_c, 1, 77, 0
8, 404940, Note_on_c, 1, 76, 55
8, 404940, Note_on_c, 1, 72, 55
8, 404991, Note_on_c, 1, 76, 0
8, 404991, Note_on_c, 1, 72, 0
8, 405000, Note_on_c, 1, 76, 55
8, 405000, Note_on_c, 1, 72, 55
8, 405051, Note_on_c, 1, 76, 0
8, 405051, Note_on_c, 1, 72, 0
8, 405060, Note_on_c, 1, 72, 56
8, 405060, Note_on_c, 1, 76, 56
8, 405119, Note_on_c, 1, 72, 0
8, 405119, Note_on_c, 1, 76, 0
8, 405240, Note_on_c, 1, 71, 56
8, 405240, Note_on_c, 1, 74, 56
8, 405359, Note_on_c, 1, 71, 0
8, 405359, Note_on_c, 1, 74, 0
8, 405480, Note_on_c, 1, 72, 58
8, 405480, Note_on_c, 1, 79, 58
8, 405599, Note_on_c, 1, 72, 0
8, 405599, Note_on_c, 1, 79, 0
8, 405720, Note_on_c, 1, 79, 59
8, 405720, Note_on_c, 1, 72, 59
8, 405839, Note_on_c, 1, 79, 0
8, 405839, Note_on_c, 1, 72, 0
8, 405960, Note_on_c, 1, 79, 60
8, 405960, Note_on_c, 1, 72, 60
8, 406079, Note_on_c, 1, 79, 0
8, 406079, Note_on_c, 1, 72, 0
8, 406200, Note_on_c, 1, 79, 61
8, 406200, Note_on_c, 1, 72, 61
8, 406319, Note_on_c, 1, 79, 0
8, 406319, Note_on_c, 1, 72, 0
8, 406440, Note_on_c, 1, 72, 62
8, 406440, Note_on_c, 1, 77, 62
8, 406559, Note_on_c, 1, 72, 0
8, 406559, Note_on_c, 1, 77, 0
8, 406680, Note_on_c, 1, 71, 63
8, 406680, Note_on_c, 1, 77, 63
8, 406799, Note_on_c, 1, 71, 0
8, 406799, Note_on_c, 1, 77, 0
8, 406920, Note_on_c, 1, 76, 64
8, 406920, Note_on_c, 1, 72, 64
8, 407039, Note_on_c, 1, 76, 0
8, 407039, Note_on_c, 1, 72, 0
8, 407160, Note_on_c, 1, 74, 65
8, 407160, Note_on_c, 1, 71, 65
8, 407279, Note_on_c, 1, 74, 0
8, 407279, Note_on_c, 1, 71, 0
8, 407400, Note_on_c, 1, 72, 66
8, 407400, Note_on_c, 1, 79, 66
8, 407519, Note_on_c, 1, 72, 0
8, 407519, Note_on_c, 1, 79, 0
8, 407640, Note_on_c, 1, 72, 67
8, 407640, Note_on_c, 1, 79, 67
8, 407759, Note_on_c, 1, 72, 0
8, 407759, Note_on_c, 1, 79, 0
8, 407880, Note_on_c, 1, 72, 68
8, 407880, Note_on_c, 1, 79, 68
8, 407999, Note_on_c, 1, 72, 0
8, 407999, Note_on_c, 1, 79, 0
8, 408120, Note_on_c, 1, 72, 70
8, 408120, Note_on_c, 1, 79, 70
8, 408239, Note_on_c, 1, 72, 0
8, 408239, Note_on_c, 1, 79, 0
8, 408360, Note_on_c, 1, 72, 71
8, 408360, Note_on_c, 1, 77, 71
8, 408479, Note_on_c, 1, 72, 0
8, 408479, Note_on_c, 1, 77, 0
8, 408600, Note_on_c, 1, 71, 72
8, 408600, Note_on_c, 1, 77, 72
8, 408719, Note_on_c, 1, 71, 0
8, 408719, Note_on_c, 1, 77, 0
8, 408840, Note_on_c, 1, 76, 73
8, 408840, Note_on_c, 1, 72, 73
8, 408959, Note_on_c, 1, 76, 0
8, 408959, Note_on_c, 1, 72, 0
8, 409080, Note_on_c, 1, 74, 74
8, 409080, Note_on_c, 1, 72, 74
8, 409199, Note_on_c, 1, 74, 0
8, 409199, Note_on_c, 1, 72, 0
8, 409320, Note_on_c, 1, 79, 75
8, 409320, Note_on_c, 1, 71, 75
8, 409409, Note_on_c, 1, 79, 0
8, 409409, Note_on_c, 1, 71, 0
8, 409440, Note_on_c, 1, 60, 76
8, 409440, Note_on_c, 1, 72, 76
8, 409559, Note_on_c, 1, 60, 0
8, 409559, Note_on_c, 1, 72, 0
8, 413280, Note_on_c, 1, 72, 76
8, 413340, Control_c, 1, 11, 80
8, 413619, Note_on_c, 1, 72, 0
8, 413640, Note_on_c, 1, 71, 76
8, 413739, Note_on_c, 1, 71, 0
8, 413760, Note_on_c, 1, 69, 76
8, 413879, Note_on_c, 1, 69, 0
8, 413880, Note_on_c, 1, 67, 76
8, 413979, Note_on_c, 1, 67, 0
8, 414000, Note_on_c, 1, 67, 76
8, 414089, Note_on_c, 1, 67, 0
8, 414120, Note_on_c, 1, 67, 76
8, 414209, Note_on_c, 1, 67, 0
8, 414238, Control_c, 1, 11, 127
8, 414240, Note_on_c, 1, 72, 76
8, 414300, Control_c, 1, 11, 80
8, 414579, Note_on_c, 1, 72, 0
8, 414600, Note_on_c, 1, 71, 76
8, 414699, Note_on_c, 1, 71, 0
8, 414720, Note_on_c, 1, 69, 76
8, 414839, Note_on_c, 1, 69, 0
8, 414840, Note_on_c, 1, 67, 76
8, 414939, Note_on_c, 1, 67, 0
8, 414960, Note_on_c, 1, 67, 76
8, 415049, Note_on_c, 1, 67, 0
8, 415080, Note_on_c, 1, 67, 76
8, 415169, Note_on_c, 1, 67, 0
8, 415198, Control_c, 1, 11, 127
8, 415200, Note_on_c, 1, 72, 76
8, 415200, Note_on_c, 1, 76, 76
8, 415260, Control_c, 1, 11, 80
8, 415539, Note_on_c, 1, 72, 0
8, 415539, Note_on_c, 1, 76, 0
8, 415560, Note_on_c, 1, 71, 76
8, 415560, Note_on_c, 1, 74, 76
8, 415659, Note_on_c, 1, 71, 0
8, 415659, Note_on_c, 1, 74, 0
8, 415680, Note_on_c, 1, 72, 76
8, 415680, Note_on_c, 1, 69, 76
8, 415799, Note_on_c, 1, 72, 0
8, 415799, Note_on_c, 1, 69, 0
8, 415800, Note_on_c, 1, 71, 76
8, 415800, Note_on_c, 1, 67, 76
8, 415899, Note_on_c, 1, 71, 0
8, 415899, Note_on_c, 1, 67, 0
8, 415920, Note_on_c, 1, 71, 76
8, 415920, Note_on_c, 1, 67, 76
8, 416009, Note_on_c, 1, 71, 0
8, 416009, Note_on_c, 1, 67, 0
8, 416040, Note_on_c, 1, 67, 76
8, 416040, Note_on_c, 1, 71, 76
8, 416129, Note_on_c, 1, 67, 0
8, 416129, Note_on_c, 1, 71, 0
8, 416158, Control_c, 1, 11, 127
8, 416160, Note_on_c, 1, 72, 76
8, 416160, Note_on_c, 1, 76, 76
8, 416220, Control_c, 1, 11, 80
8, 416499, Note_on_c, 1, 72, 0
8, 416499, Note_on_c, 1, 76, 0
8, 416520, Note_on_c, 1, 74, 76
8, 416520, Note_on_c, 1, 71, 76
8, 416619, Note_on_c, 1, 74, 0
8, 416619, Note_on_c, 1, 71, 0
8, 416640, Note_on_c, 1, 69, 76
8, 416640, Note_on_c, 1, 72, 76
8, 416759, Note_on_c, 1, 69, 0
8, 416759, Note_on_c, 1, 72, 0
8, 416760, Note_on_c, 1, 67, 76
8, 416760, Note_on_c, 1, 71, 76
8, 416859, Note_on_c, 1, 67, 0
8, 416859, Note_on_c, 1, 71, 0
8, 416880, Note_on_c, 1, 71, 76
8, 416880, Note_on_c, 1, 67, 76
8, 416969, Note_on_c, 1, 71, 0
8, 416969, Note_on_c, 1, 67, 0
8, 417000, Note_on_c, 1, 67, 76
8, 417000, Note_on_c, 1, 71, 76
8, 417089, Note_on_c, 1, 67, 0
8, 417089, Note_on_c, 1, 71, 0
8, 417120, Note_on_c, 1, 72, 76
8, 417120, Control_c, 1, 11, 80
8, 417120, Note_on_c, 1, 76, 76
8, 417239, Note_on_c, 1, 72, 0
8, 417239, Note_on_c, 1, 76, 0
8, 417280, Control_c, 1, 11, 82
8, 417360, Note_on_c, 1, 79, 76
8, 417360, Note_on_c, 1, 72, 76
8, 417440, Control_c, 1, 11, 84
8, 417479, Note_on_c, 1, 79, 0
8, 417479, Note_on_c, 1, 72, 0
8, 417600, Note_on_c, 1, 72, 76
8, 417600, Note_on_c, 1, 79, 76
8, 417600, Control_c, 1, 11, 86
8, 417719, Note_on_c, 1, 72, 0
8, 417719, Note_on_c, 1, 79, 0
8, 417760, Control_c, 1, 11, 88
8, 417840, Note_on_c, 1, 77, 76
8, 417840, Note_on_c, 1, 72, 76
8, 417920, Control_c, 1, 11, 90
8, 417959, Note_on_c, 1, 77, 0
8, 417959, Note_on_c, 1, 72, 0
8, 418080, Note_on_c, 1, 71, 76
8, 418080, Note_on_c, 1, 77, 76
8, 418080, Control_c, 1, 11, 92
8, 418199, Note_on_c, 1, 71, 0
8, 418199, Note_on_c, 1, 77, 0
8, 418240, Control_c, 1, 11, 94
8, 418320, Note_on_c, 1, 76, 76
8, 418320, Note_on_c, 1, 72, 76
8, 418400, Control_c, 1, 11, 96
8, 418439, Note_on_c, 1, 76, 0
8, 418439, Note_on_c, 1, 72, 0
8, 418560, Note_on_c, 1, 71, 76
8, 418560, Control_c, 1, 11, 98
8, 418560, Note_on_c, 1, 74, 76
8, 418679, Note_on_c, 1, 71, 0
8, 418679, Note_on_c, 1, 74, 0
8, 418720, Control_c, 1, 11, 100
8, 418800, Note_on_c, 1, 79, 76
8, 418800, Note_on_c, 1, 72, 76
8, 418880, Control_c, 1, 11, 102
8, 418919, Note_on_c, 1, 79, 0
8, 418919, Note_on_c, 1, 72, 0
8, 419040, Control_c, 1, 11, 104
8, 419040, Note_on_c, 1, 79, 76
8, 419040, Note_on_c, 1, 72, 76
8, 419159, Note_on_c, 1, 79, 0
8, 419159, Note_on_c, 1, 72, 0
8, 419200, Control_c, 1, 11, 105
8, 419280, Note_on_c, 1, 79, 76
8, 419280, Note_on_c, 1, 72, 76
8, 419360, Control_c, 1, 11, 107
8, 419399, Note_on_c, 1, 79, 0
8, 419399, Note_on_c, 1, 72, 0
8, 419520, Control_c, 1, 11, 109
8, 419520, Note_on_c, 1, 79, 76
8, 419520, Note_on_c, 1, 72, 76
8, 419639, Note_on_c, 1, 79, 0
8, 419639, Note_on_c, 1, 72, 0
8, 419680, Control_c, 1, 11, 111
8, 419760, Note_on_c, 1, 72, 76
8, 419760, Note_on_c, 1, 77, 76
8, 419840, Control_c, 1, 11, 113
8, 419879, Note_on_c, 1, 72, 0
8, 419879, Note_on_c, 1, 77, 0
8, 420000, Control_c, 1, 11, 115
8, 420000, Note_on_c, 1, 77, 76
8, 420000, Note_on_c, 1, 71, 76
8, 420119, Note_on_c, 1, 77, 0
8, 420119, Note_on_c, 1, 71, 0
8, 420160, Control_c, 1, 11, 117
8, 420240, Note_on_c, 1, 72, 76
8, 420240, Note_on_c, 1, 76, 76
8, 420320, Control_c, 1, 11, 119
8, 420359, Note_on_c, 1, 72, 0
8, 420359, Note_on_c, 1, 76, 0
8, 420480, Control_c, 1, 11, 121
8, 420480, Note_on_c, 1, 71, 76
8, 420480, Note_on_c, 1, 74, 76
8, 420599, Note_on_c, 1, 71, 0
8, 420599, Note_on_c, 1, 74, 0
8, 420640, Control_c, 1, 11, 123
8, 420720, Note_on_c, 1, 79, 76
8, 420720, Note_on_c, 1, 72, 76
8, 420800, Control_c, 1, 11, 127
8, 420819, Note_on_c, 1, 79, 0
8, 420819, Note_on_c, 1, 72, 0
8, 420840, Note_on_c, 1, 79, 76
8, 420840, Note_on_c, 1, 72, 76
8, 420939, Note_on_c, 1, 79, 0
8, 420939, Note_on_c, 1, 72, 0
8, 420960, Note_on_c, 1, 79, 76
8, 420960, Note_on_c, 1, 76, 76
8, 421059, Note_on_c, 1, 79, 0
8, 421059, Note_on_c, 1, 76, 0
8, 421080, Note_on_c, 1, 79, 76
8, 421080, Note_on_c, 1, 76, 76
8, 421179, Note_on_c, 1, 79, 0
8, 421179, Note_on_c, 1, 76, 0
8, 421200, Note_on_c, 1, 79, 76
8, 421200, Note_on_c, 1, 76, 76
8, 421299, Note_on_c, 1, 79, 0
8, 421299, Note_on_c, 1, 76, 0
8, 421320, Note_on_c, 1, 79, 76
8, 421320, Note_on_c, 1, 76, 76
8, 421419, Note_on_c, 1, 79, 0
8, 421419, Note_on_c, 1, 76, 0
8, 421440, Note_on_c, 1, 79, 76
8, 421440, Note_on_c, 1, 72, 76
8, 421539, Note_on_c, 1, 79, 0
8, 421539, Note_on_c, 1, 72, 0
8, 421560, Note_on_c, 1, 79, 76
8, 421560, Note_on_c, 1, 72, 76
8, 421659, Note_on_c, 1, 79, 0
8, 421659, Note_on_c, 1, 72, 0
8, 421680, Note_on_c, 1, 77, 76
8, 421680, Note_on_c, 1, 72, 76
8, 421779, Note_on_c, 1, 77, 0
8, 421779, Note_on_c, 1, 72, 0
8, 421800, Note_on_c, 1, 77, 76
8, 421800, Note_on_c, 1, 72, 76
8, 421899, Note_on_c, 1, 77, 0
8, 421899, Note_on_c, 1, 72, 0
8, 421920, Note_on_c, 1, 77, 76
8, 421920, Note_on_c, 1, 71, 76
8, 422019, Note_on_c, 1, 77, 0
8, 422019, Note_on_c, 1, 71, 0
8, 422040, Note_on_c, 1, 77, 76
8, 422040, Note_on_c, 1, 71, 76
8, 422139, Note_on_c, 1, 77, 0
8, 422139, Note_on_c, 1, 71, 0
8, 422160, Note_on_c, 1, 76, 76
8, 422160, Note_on_c, 1, 72, 76
8, 422259, Note_on_c, 1, 76, 0
8, 422259, Note_on_c, 1, 72, 0
8, 422280, Note_on_c, 1, 76, 76
8, 422280, Note_on_c, 1, 72, 76
8, 422379, Note_on_c, 1, 76, 0
8, 422379, Note_on_c, 1, 72, 0
8, 422400, Note_on_c, 1, 74, 76
8, 422400, Note_on_c, 1, 72, 76
8, 422499, Note_on_c, 1, 74, 0
8, 422499, Note_on_c, 1, 72, 0
8, 422520, Note_on_c, 1, 74, 76
8, 422520, Note_on_c, 1, 72, 76
8, 422619, Note_on_c, 1, 74, 0
8, 422619, Note_on_c, 1, 72, 0
8, 422640, Note_on_c, 1, 79, 76
8, 422640, Note_on_c, 1, 71, 76
8, 422739, Note_on_c, 1, 79, 0
8, 422739, Note_on_c, 1, 71, 0
8, 422760, Note_on_c, 1, 79, 76
8, 422760, Note_on_c, 1, 71, 76
8, 422859, Note_on_c, 1, 79, 0
8, 422859, Note_on_c, 1, 71, 0
8, 422880, Note_on_c, 1, 72, 84
8, 422880, Note_on_c, 1, 60, 84
8, 423099, Note_on_c, 1, 72, 0
8, 423099, Note_on_c, 1, 60, 0
8, 423120, Note_on_c, 1, 76, 84
8, 423120, Note_on_c, 1, 64, 84
8, 423339, Note_on_c, 1, 76, 0
8, 423339, Note_on_c, 1, 64, 0
8, 423360, Note_on_c, 1, 79, 84
8, 423360, Note_on_c, 1, 67, 84
8, 423699, Note_on_c, 1, 79, 0
8, 423699, Note_on_c, 1, 67, 0
8, 423720, Note_on_c, 1, 77, 84
8, 423720, Note_on_c, 1, 65, 84
8, 423819, Note_on_c, 1, 77, 0
8, 423819, Note_on_c, 1, 65, 0
8, 423840, Note_on_c, 1, 76, 84
8, 423840, Note_on_c, 1, 64, 84
8, 423939, Note_on_c, 1, 76, 0
8, 423939, Note_on_c, 1, 64, 0
8, 423960, Note_on_c, 1, 74, 84
8, 423960, Note_on_c, 1, 62, 84
8, 424059, Note_on_c, 1, 74, 0
8, 424059, Note_on_c, 1, 62, 0
8, 424080, Note_on_c, 1, 72, 84
8, 424080, Note_on_c, 1, 60, 84
8, 424179, Note_on_c, 1, 72, 0
8, 424179, Note_on_c, 1, 60, 0
8, 424200, Note_on_c, 1, 74, 84
8, 424200, Note_on_c, 1, 62, 84
8, 424299, Note_on_c, 1, 74, 0
8, 424299, Note_on_c, 1, 62, 0
8, 424320, Note_on_c, 1, 76, 84
8, 424320, Note_on_c, 1, 64, 84
8, 424659, Note_on_c, 1, 76, 0
8, 424659, Note_on_c, 1, 64, 0
8, 424680, Note_on_c, 1, 76, 84
8, 424680, Note_on_c, 1, 64, 84
8, 424779, Note_on_c, 1, 76, 0
8, 424779, Note_on_c, 1, 64, 0
8, 424800, Note_on_c, 1, 76, 84
8, 424800, Note_on_c, 1, 64, 84
8, 424899, Note_on_c, 1, 76, 0
8, 424899, Note_on_c, 1, 64, 0
8, 424920, Note_on_c, 1, 74, 84
8, 424920, Note_on_c, 1, 62, 84
8, 425019, Note_on_c, 1, 74, 0
8, 425019, Note_on_c, 1, 62, 0
8, 425040, Note_on_c, 1, 76, 84
8, 425040, Note_on_c, 1, 64, 84
8, 425139, Note_on_c, 1, 76, 0
8, 425139, Note_on_c, 1, 64, 0
8, 425160, Note_on_c, 1, 77, 84
8, 425160, Note_on_c, 1, 65, 84
8, 425259, Note_on_c, 1, 77, 0
8, 425259, Note_on_c, 1, 65, 0
8, 425280, Note_on_c, 1, 79, 84
8, 425280, Note_on_c, 1, 67, 84
8, 425619, Note_on_c, 1, 79, 0
8, 425619, Note_on_c, 1, 67, 0
8, 425640, Note_on_c, 1, 79, 84
8, 425640, Note_on_c, 1, 67, 84
8, 425739, Note_on_c, 1, 79, 0
8, 425739, Note_on_c, 1, 67, 0
8, 425760, Note_on_c, 1, 79, 84
8, 425760, Note_on_c, 1, 67, 84
8, 425859, Note_on_c, 1, 79, 0
8, 425859, Note_on_c, 1, 67, 0
8, 425880, Note_on_c, 1, 77, 84
8, 425880, Note_on_c, 1, 65, 84
8, 425979, Note_on_c, 1, 77, 0
8, 425979, Note_on_c, 1, 65, 0
8, 426000, Note_on_c, 1, 79, 84
8, 426000, Note_on_c, 1, 67, 84
8, 426099, Note_on_c, 1, 79, 0
8, 426099, Note_on_c, 1, 67, 0
8, 426120, Note_on_c, 1, 83, 84
8, 426120, Note_on_c, 1, 71, 84
8, 426219, Note_on_c, 1, 83, 0
8, 426219, Note_on_c, 1, 71, 0
8, 426240, Note_on_c, 1, 84, 84
8, 426240, Note_on_c, 1, 72, 84
8, 426579, Note_on_c, 1, 84, 0
8, 426579, Note_on_c, 1, 72, 0
8, 426600, Note_on_c, 1, 83, 84
8, 426600, Note_on_c, 1, 71, 84
8, 426699, Note_on_c, 1, 83, 0
8, 426699, Note_on_c, 1, 71, 0
8, 426720, Note_on_c, 1, 84, 84
8, 426720, Note_on_c, 1, 72, 84
8, 426819, Note_on_c, 1, 84, 0
8, 426819, Note_on_c, 1, 72, 0
8, 426840, Note_on_c, 1, 83, 84
8, 426840, Note_on_c, 1, 71, 84
8, 426939, Note_on_c, 1, 83, 0
8, 426939, Note_on_c, 1, 71, 0
8, 426960, Note_on_c, 1, 84, 84
8, 426960, Note_on_c, 1, 72, 84
8, 427059, Note_on_c, 1, 84, 0
8, 427059, Note_on_c, 1, 72, 0
8, 427080, Note_on_c, 1, 86, 84
8, 427080, Note_on_c, 1, 74, 84
8, 427179, Note_on_c, 1, 86, 0
8, 427179, Note_on_c, 1, 74, 0
8, 427200, Note_on_c, 1, 76, 84
8, 427299, Note_on_c, 1, 76, 0
8, 427320, Note_on_c, 1, 74, 84
8, 427419, Note_on_c, 1, 74, 0
8, 427440, Note_on_c, 1, 76, 84
8, 427539, Note_on_c, 1, 76, 0
8, 427560, Note_on_c, 1, 77, 84
8, 427659, Note_on_c, 1, 77, 0
8, 427680, Note_on_c, 1, 79, 84
8, 428619, Note_on_c, 1, 79, 0
8, 428640, Note_on_c, 1, 76, 84
8, 429579, Note_on_c, 1, 76, 0
8, 429600, Note_on_c, 1, 72, 84
8, 429719, Note_on_c, 1, 72, 0
8, 430080, Note_on_c, 1, 83, 84
8, 430080, Note_on_c, 1, 74, 84
8, 430199, Note_on_c, 1, 83, 0
8, 430199, Note_on_c, 1, 74, 0
8, 430560, Note_on_c, 1, 84, 84
8, 430560, Note_on_c, 1, 76, 84
8, 430679, Note_on_c, 1, 84, 0
8, 430679, Note_on_c, 1, 76, 0
8, 431040, Note_on_c, 1, 83, 84
8, 431040, Note_on_c, 1, 74, 84
8, 431159, Note_on_c, 1, 83, 0
8, 431159, Note_on_c, 1, 74, 0
8, 431520, Note_on_c, 1, 84, 84
8, 431520, Note_on_c, 1, 76, 84
8, 431639, Note_on_c, 1, 84, 0
8, 431639, Note_on_c, 1, 76, 0
8, 432000, Note_on_c, 1, 83, 84
8, 432000, Note_on_c, 1, 74, 84
8, 432119, Note_on_c, 1, 83, 0
8, 432119, Note_on_c, 1, 74, 0
8, 432480, Note_on_c, 1, 84, 84
8, 432480, Note_on_c, 1, 76, 84
8, 432599, Note_on_c, 1, 84, 0
8, 432599, Note_on_c, 1, 76, 0
8, 432960, Note_on_c, 1, 83, 84
8, 432960, Note_on_c, 1, 74, 84
8, 433079, Note_on_c, 1, 83, 0
8, 433079, Note_on_c, 1, 74, 0
8, 433440, Note_on_c, 1, 84, 84
8, 433440, Note_on_c, 1, 76, 84
8, 433559, Note_on_c, 1, 84, 0
8, 433559, Note_on_c, 1, 76, 0
8, 433920, Note_on_c, 1, 83, 84
8, 433920, Note_on_c, 1, 74, 84
8, 434039, Note_on_c, 1, 83, 0
8, 434039, Note_on_c, 1, 74, 0
8, 434400, Note_on_c, 1, 84, 84
8, 434400, Note_on_c, 1, 76, 84
8, 434519, Note_on_c, 1, 84, 0
8, 434519, Note_on_c, 1, 76, 0
8, 434880, Note_on_c, 1, 83, 84
8, 434880, Note_on_c, 1, 74, 84
8, 434999, Note_on_c, 1, 83, 0
8, 434999, Note_on_c, 1, 74, 0
8, 435360, Note_on_c, 1, 84, 84
8, 435360, Note_on_c, 1, 76, 84
8, 436299, Note_on_c, 1, 84, 0
8, 436299, Note_on_c, 1, 76, 0
8, 436320, Note_on_c, 1, 84, 84
8, 437019, Note_on_c, 1, 84, 0
8, 437040, Note_on_c, 1, 79, 84
8, 437139, Note_on_c, 1, 79, 0
8, 437160, Note_on_c, 1, 76, 84
8, 437259, Note_on_c, 1, 76, 0
8, 437280, Note_on_c, 1, 72, 84
8, 437399, Note_on_c, 1, 72, 0
8, 437640, Note_on_c, 1, 72, 84
8, 437640, Note_on_c, 1, 64, 84
8, 437739, Note_on_c, 1, 72, 0
8, 437739, Note_on_c, 1, 64, 0
8, 437760, Note_on_c, 1, 72, 84
8, 437760, Note_on_c, 1, 64, 84
8, 437859, Note_on_c, 1, 72, 0
8, 437859, Note_on_c, 1, 64, 0
8, 437880, Note_on_c, 1, 72, 84
8, 437880, Note_on_c, 1, 64, 84
8, 437979, Note_on_c, 1, 72, 0
8, 437979, Note_on_c, 1, 64, 0
8, 438000, Note_on_c, 1, 72, 84
8, 438000, Note_on_c, 1, 64, 84
8, 438099, Note_on_c, 1, 72, 0
8, 438099, Note_on_c, 1, 64, 0
8, 438120, Note_on_c, 1, 72, 84
8, 438120, Note_on_c, 1, 64, 84
8, 438219, Note_on_c, 1, 72, 0
8, 438219, Note_on_c, 1, 64, 0
8, 438240, Note_on_c, 1, 72, 84
8, 438240, Note_on_c, 1, 64, 84
8, 438359, Note_on_c, 1, 72, 0
8, 438359, Note_on_c, 1, 64, 0
8, 438600, Note_on_c, 1, 76, 84
8, 438600, Note_on_c, 1, 72, 84
8, 438699, Note_on_c, 1, 76, 0
8, 438699, Note_on_c, 1, 72, 0
8, 438720, Note_on_c, 1, 76, 84
8, 438720, Note_on_c, 1, 72, 84
8, 438819, Note_on_c, 1, 76, 0
8, 438819, Note_on_c, 1, 72, 0
8, 438840, Note_on_c, 1, 76, 84
8, 438840, Note_on_c, 1, 72, 84
8, 438939, Note_on_c, 1, 76, 0
8, 438939, Note_on_c, 1, 72, 0
8, 438960, Note_on_c, 1, 76, 84
8, 438960, Note_on_c, 1, 72, 84
8, 439059, Note_on_c, 1, 76, 0
8, 439059, Note_on_c, 1, 72, 0
8, 439080, Note_on_c, 1, 76, 84
8, 439080, Note_on_c, 1, 72, 84
8, 439179, Note_on_c, 1, 76, 0
8, 439179, Note_on_c, 1, 72, 0
8, 439200, Note_on_c, 1, 76, 84
8, 439200, Note_on_c, 1, 72, 84
8, 439319, Note_on_c, 1, 76, 0
8, 439319, Note_on_c, 1, 72, 0
8, 439440, Note_on_c, 1, 72, 84
8, 439440, Note_on_c, 1, 64, 84
8, 439539, Note_on_c, 1, 72, 0
8, 439539, Note_on_c, 1, 64, 0
8, 439560, Note_on_c, 1, 72, 84
8, 439560, Note_on_c, 1, 64, 84
8, 439659, Note_on_c, 1, 72, 0
8, 439659, Note_on_c, 1, 64, 0
8, 439680, Note_on_c, 1, 72, 84
8, 439680, Note_on_c, 1, 64, 84
8, 439799, Note_on_c, 1, 72, 0
8, 439799, Note_on_c, 1, 64, 0
8, 439920, Note_on_c, 1, 76, 84
8, 439920, Note_on_c, 1, 72, 84
8, 440019, Note_on_c, 1, 76, 0
8, 440019, Note_on_c, 1, 72, 0
8, 440040, Note_on_c, 1, 76, 84
8, 440040, Note_on_c, 1, 72, 84
8, 440139, Note_on_c, 1, 76, 0
8, 440139, Note_on_c, 1, 72, 0
8, 440160, Note_on_c, 1, 76, 84
8, 440160, Note_on_c, 1, 72, 84
8, 440279, Note_on_c, 1, 76, 0
8, 440279, Note_on_c, 1, 72, 0
8, 440400, Note_on_c, 1, 79, 84
8, 440400, Note_on_c, 1, 76, 84
8, 440499, Note_on_c, 1, 79, 0
8, 440499, Note_on_c, 1, 76, 0
8, 440520, Note_on_c, 1, 79, 84
8, 440520, Note_on_c, 1, 76, 84
8, 440619, Note_on_c, 1, 79, 0
8, 440619, Note_on_c, 1, 76, 0
8, 440640, Note_on_c, 1, 79, 84
8, 440640, Note_on_c, 1, 76, 84
8, 440759, Note_on_c, 1, 79, 0
8, 440759, Note_on_c, 1, 76, 0
8, 440880, Note_on_c, 1, 84, 84
8, 440880, Note_on_c, 1, 76, 84
8, 440979, Note_on_c, 1, 84, 0
8, 440979, Note_on_c, 1, 76, 0
8, 441000, Note_on_c, 1, 84, 84
8, 441000, Note_on_c, 1, 76, 84
8, 441099, Note_on_c, 1, 84, 0
8, 441099, Note_on_c, 1, 76, 0
8, 441120, Note_on_c, 1, 84, 84
8, 441120, Note_on_c, 1, 76, 84
8, 442059, Note_on_c, 1, 84, 0
8, 442059, Note_on_c, 1, 76, 0
8, 442080, Note_on_c, 1, 84, 84
8, 442080, Note_on_c, 1, 76, 84
8, 443019, Note_on_c, 1, 84, 0
8, 443019, Note_on_c, 1, 76, 0
8, 443040, Note_on_c, 1, 84, 84
8, 443040, Note_on_c, 1, 76, 84
8, 443159, Note_on_c, 1, 84, 0
8, 443159, Note_on_c, 1, 76, 0
8, 444000, Note_on_c, 1, 84, 84
8, 444000, Note_on_c, 1, 76, 84
8, 444119, Note_on_c, 1, 84, 0
8, 444119, Note_on_c, 1, 76, 0
8, 444960, Note_on_c, 1, 84, 84
8, 444960, Note_on_c, 1, 76, 84
8, 445079, Note_on_c, 1, 84, 0
8, 445079, Note_on_c, 1, 76, 0
8, 445920, Note_on_c, 1, 84, 84
8, 445920, Note_on_c, 1, 76, 84
8, 446039, Note_on_c, 1, 84, 0
8, 446039, Note_on_c, 1, 76, 0
8, 446400, Note_on_c, 1, 84, 84
8, 446400, Note_on_c, 1, 76, 84
8, 446519, Note_on_c, 1, 84, 0
8, 446519, Note_on_c, 1, 76, 0
8, 446880, Note_on_c, 1, 84, 84
8, 446880, Note_on_c, 1, 76, 84
8, 446999, Note_on_c, 1, 84, 0
8, 446999, Note_on_c, 1, 76, 0
8, 447840, Note_on_c, 1, 84, 84
8, 447840, Note_on_c, 1, 76, 84
8, 447959, Note_on_c, 1, 84, 0
8, 447959, Note_on_c, 1, 76, 0
8, 448800, Note_on_c, 1, 72, 84
8, 451199, Note_on_c, 1, 72, 0
8, 451199, End_track
9, 0, Start_track
9, 0, Title_t, "Clarinet in C"
9, 0, MIDI_port, 0
9, 0, Program_c, 2, 71
9, 0, Control_c, 2, 7, 88
9, 0, Control_c, 2, 10, 75
9, 0, Control_c, 2, 11, 127
9, 0, Note_on_c, 2, 72, 84
9, 0, Note_on_c, 2, 64, 84
9, 464, Note_on_c, 2, 72, 0
9, 464, Note_on_c, 2, 64, 0
9, 480, Note_on_c, 2, 72, 84
9, 480, Note_on_c, 2, 76, 84
9, 944, Note_on_c, 2, 72, 0
9, 944, Note_on_c, 2, 76, 0
9, 960, Note_on_c, 2, 76, 84
9, 960, Note_on_c, 2, 79, 84
9, 1664, Note_on_c, 2, 76, 0
9, 1664, Note_on_c, 2, 79, 0
9, 1680, Note_on_c, 2, 74, 84
9, 1680, Note_on_c, 2, 77, 84
9, 1799, Note_on_c, 2, 74, 0
9, 1799, Note_on_c, 2, 77, 0
9, 1920, Note_on_c, 2, 72, 84
9, 1920, Note_on_c, 2, 76, 84
9, 2039, Note_on_c, 2, 72, 0
9, 2039, Note_on_c, 2, 76, 0
9, 2160, Note_on_c, 2, 67, 84
9, 2160, Note_on_c, 2, 74, 84
9, 2279, Note_on_c, 2, 67, 0
9, 2279, Note_on_c, 2, 74, 0
9, 2400, Note_on_c, 2, 64, 84
9, 2400, Note_on_c, 2, 72, 84
9, 2519, Note_on_c, 2, 64, 0
9, 2519, Note_on_c, 2, 72, 0
9, 2640, Note_on_c, 2, 74, 84
9, 2640, Note_on_c, 2, 67, 84
9, 2759, Note_on_c, 2, 74, 0
9, 2759, Note_on_c, 2, 67, 0
9, 2880, Note_on_c, 2, 72, 84
9, 2880, Note_on_c, 2, 64, 84
9, 3584, Note_on_c, 2, 72, 0
9, 3584, Note_on_c, 2, 64, 0
9, 3600, Note_on_c, 2, 64, 84
9, 3600, Note_on_c, 2, 72, 84
9, 3771, Note_on_c, 2, 64, 0
9, 3771, Note_on_c, 2, 72, 0
9, 3780, Note_on_c, 2, 64, 84
9, 3780, Note_on_c, 2, 72, 84
9, 3831, Note_on_c, 2, 64, 0
9, 3831, Note_on_c, 2, 72, 0
9, 3840, Note_on_c, 2, 67, 84
9, 3840, Note_on_c, 2, 74, 84
9, 4544, Note_on_c, 2, 67, 0
9, 4544, Note_on_c, 2, 74, 0
9, 4560, Note_on_c, 2, 74, 84
9, 4560, Note_on_c, 2, 67, 84
9, 4731, Note_on_c, 2, 74, 0
9, 4731, Note_on_c, 2, 67, 0
9, 4740, Note_on_c, 2, 74, 84
9, 4740, Note_on_c, 2, 67, 84
9, 4791, Note_on_c, 2, 74, 0
9, 4791, Note_on_c, 2, 67, 0
9, 4800, Note_on_c, 2, 76, 84
9, 4800, Note_on_c, 2, 72, 84
9, 5744, Note_on_c, 2, 76, 0
9, 5744, Note_on_c, 2, 72, 0
9, 5760, Note_on_c, 2, 72, 84
9, 5760, Note_on_c, 2, 77, 84
9, 6224, Note_on_c, 2, 77, 0
9, 6240, Note_on_c, 2, 81, 84
9, 6704, Note_on_c, 2, 72, 0
9, 6704, Note_on_c, 2, 81, 0
9, 6720, Note_on_c, 2, 72, 84
9, 6720, Note_on_c, 2, 79, 84
9, 7424, Note_on_c, 2, 79, 0
9, 7440, Note_on_c, 2, 76, 84
9, 7664, Note_on_c, 2, 72, 0
9, 7664, Note_on_c, 2, 76, 0
9, 7680, Note_on_c, 2, 77, 84
9, 7680, Note_on_c, 2, 72, 84
9, 8144, Note_on_c, 2, 77, 0
9, 8160, Note_on_c, 2, 81, 84
9, 8624, Note_on_c, 2, 72, 0
9, 8624, Note_on_c, 2, 81, 0
9, 8640, Note_on_c, 2, 72, 84
9, 8640, Note_on_c, 2, 79, 84
9, 9344, Note_on_c, 2, 79, 0
9, 9360, Note_on_c, 2, 76, 84
9, 9584, Note_on_c, 2, 72, 0
9, 9584, Note_on_c, 2, 76, 0
9, 9600, Note_on_c, 2, 77, 84
9, 9600, Note_on_c, 2, 72, 84
9, 10064, Note_on_c, 2, 77, 0
9, 10080, Note_on_c, 2, 81, 84
9, 10544, Note_on_c, 2, 72, 0
9, 10544, Note_on_c, 2, 81, 0
9, 10560, Note_on_c, 2, 72, 84
9, 10560, Note_on_c, 2, 79, 84
9, 11264, Note_on_c, 2, 72, 0
9, 11264, Note_on_c, 2, 79, 0
9, 11280, Note_on_c, 2, 67, 84
9, 11280, Note_on_c, 2, 76, 84
9, 11504, Note_on_c, 2, 67, 0
9, 11504, Note_on_c, 2, 76, 0
9, 11520, Note_on_c, 2, 65, 84
9, 11520, Note_on_c, 2, 74, 84
9, 11984, Note_on_c, 2, 65, 0
9, 11984, Note_on_c, 2, 74, 0
9, 12000, Note_on_c, 2, 64, 84
9, 12000, Note_on_c, 2, 72, 84
9, 12464, Note_on_c, 2, 64, 0
9, 12464, Note_on_c, 2, 72, 0
9, 12480, Note_on_c, 2, 64, 84
9, 12480, Note_on_c, 2, 72, 84
9, 12599, Note_on_c, 2, 64, 0
9, 12599, Note_on_c, 2, 72, 0
9, 12600, Note_on_c, 2, 71, 84
9, 12600, Note_on_c, 2, 62, 84
9, 12704, Note_on_c, 2, 71, 0
9, 12704, Note_on_c, 2, 62, 0
9, 12720, Note_on_c, 2, 71, 84
9, 12720, Note_on_c, 2, 62, 84
9, 13184, Note_on_c, 2, 71, 0
9, 13184, Note_on_c, 2, 62, 0
9, 13200, Note_on_c, 2, 72, 84
9, 13200, Note_on_c, 2, 64, 84
9, 13371, Note_on_c, 2, 72, 0
9, 13371, Note_on_c, 2, 64, 0
9, 13380, Note_on_c, 2, 64, 84
9, 13380, Note_on_c, 2, 72, 84
9, 13431, Note_on_c, 2, 64, 0
9, 13431, Note_on_c, 2, 72, 0
9, 13440, Note_on_c, 2, 65, 84
9, 13440, Note_on_c, 2, 74, 84
9, 13904, Note_on_c, 2, 65, 0
9, 13904, Note_on_c, 2, 74, 0
9, 13920, Note_on_c, 2, 72, 84
9, 13920, Note_on_c, 2, 64, 84
9, 14384, Note_on_c, 2, 72, 0
9, 14384, Note_on_c, 2, 64, 0
9, 14400, Note_on_c, 2, 72, 84
9, 14400, Note_on_c, 2, 64, 84
9, 14519, Note_on_c, 2, 72, 0
9, 14519, Note_on_c, 2, 64, 0
9, 14520, Note_on_c, 2, 71, 84
9, 14520, Note_on_c, 2, 62, 84
9, 14624, Note_on_c, 2, 71, 0
9, 14624, Note_on_c, 2, 62, 0
9, 14640, Note_on_c, 2, 71, 84
9, 14640, Note_on_c, 2, 62, 84
9, 15104, Note_on_c, 2, 71, 0
9, 15104, Note_on_c, 2, 62, 0
9, 15120, Note_on_c, 2, 64, 84
9, 15120, Note_on_c, 2, 72, 84
9, 15209, Note_on_c, 2, 64, 0
9, 15209, Note_on_c, 2, 72, 0
9, 15300, Note_on_c, 2, 64, 84
9, 15300, Note_on_c, 2, 72, 84
9, 15344, Note_on_c, 2, 64, 0
9, 15344, Note_on_c, 2, 72, 0
9, 15360, Note_on_c, 2, 74, 84
9, 15360, Note_on_c, 2, 65, 84
9, 15449, Note_on_c, 2, 74, 0
9, 15449, Note_on_c, 2, 65, 0
9, 15540, Note_on_c, 2, 65, 84
9, 15540, Note_on_c, 2, 74, 84
9, 15584, Note_on_c, 2, 65, 0
9, 15584, Note_on_c, 2, 74, 0
9, 15600, Note_on_c, 2, 74, 84
9, 15600, Note_on_c, 2, 65, 84
9, 15689, Note_on_c, 2, 74, 0
9, 15689, Note_on_c, 2, 65, 0
9, 15780, Note_on_c, 2, 65, 84
9, 15780, Note_on_c, 2, 74, 84
9, 15824, Note_on_c, 2, 65, 0
9, 15824, Note_on_c, 2, 74, 0
9, 15840, Note_on_c, 2, 64, 84
9, 15840, Note_on_c, 2, 72, 84
9, 15929, Note_on_c, 2, 64, 0
9, 15929, Note_on_c, 2, 72, 0
9, 16020, Note_on_c, 2, 64, 84
9, 16020, Note_on_c, 2, 72, 84
9, 16064, Note_on_c, 2, 64, 0
9, 16064, Note_on_c, 2, 72, 0
9, 16080, Note_on_c, 2, 64, 84
9, 16080, Note_on_c, 2, 72, 84
9, 16169, Note_on_c, 2, 64, 0
9, 16169, Note_on_c, 2, 72, 0
9, 16260, Note_on_c, 2, 72, 84
9, 16260, Note_on_c, 2, 64, 84
9, 16304, Note_on_c, 2, 72, 0
9, 16304, Note_on_c, 2, 64, 0
9, 16320, Note_on_c, 2, 71, 84
9, 16320, Note_on_c, 2, 62, 84
9, 16544, Note_on_c, 2, 71, 0
9, 16544, Note_on_c, 2, 62, 0
9, 16560, Note_on_c, 2, 67, 84
9, 16560, Note_on_c, 2, 71, 84
9, 16784, Note_on_c, 2, 67, 0
9, 16784, Note_on_c, 2, 71, 0
9, 16800, Note_on_c, 2, 72, 84
9, 16800, Note_on_c, 2, 76, 84
9, 17024, Note_on_c, 2, 72, 0
9, 17024, Note_on_c, 2, 76, 0
9, 17040, Note_on_c, 2, 76, 84
9, 17040, Note_on_c, 2, 72, 84
9, 17264, Note_on_c, 2, 76, 0
9, 17264, Note_on_c, 2, 72, 0
9, 17280, Note_on_c, 2, 71, 84
9, 17280, Note_on_c, 2, 74, 84
9, 17504, Note_on_c, 2, 71, 0
9, 17504, Note_on_c, 2, 74, 0
9, 17520, Note_on_c, 2, 71, 84
9, 17520, Note_on_c, 2, 67, 84
9, 17744, Note_on_c, 2, 71, 0
9, 17744, Note_on_c, 2, 67, 0
9, 17760, Note_on_c, 2, 72, 84
9, 17760, Note_on_c, 2, 76, 84
9, 17984, Note_on_c, 2, 72, 0
9, 17984, Note_on_c, 2, 76, 0
9, 18000, Note_on_c, 2, 72, 84
9, 18000, Note_on_c, 2, 76, 84
9, 18224, Note_on_c, 2, 72, 0
9, 18224, Note_on_c, 2, 76, 0
9, 18240, Note_on_c, 2, 71, 84
9, 18240, Note_on_c, 2, 74, 84
9, 18359, Note_on_c, 2, 71, 0
9, 18359, Note_on_c, 2, 74, 0
9, 18420, Note_on_c, 2, 72, 84
9, 18420, Note_on_c, 2, 67, 84
9, 18471, Note_on_c, 2, 72, 0
9, 18471, Note_on_c, 2, 67, 0
9, 18480, Note_on_c, 2, 76, 84
9, 18480, Note_on_c, 2, 72, 84
9, 18704, Note_on_c, 2, 76, 0
9, 18704, Note_on_c, 2, 72, 0
9, 18720, Note_on_c, 2, 74, 84
9, 18720, Note_on_c, 2, 71, 84
9, 18839, Note_on_c, 2, 74, 0
9, 18839, Note_on_c, 2, 71, 0
9, 18900, Note_on_c, 2, 72, 84
9, 18900, Note_on_c, 2, 67, 84
9, 18951, Note_on_c, 2, 72, 0
9, 18951, Note_on_c, 2, 67, 0
9, 18960, Note_on_c, 2, 72, 84
9, 18960, Note_on_c, 2, 76, 84
9, 19184, Note_on_c, 2, 72, 0
9, 19184, Note_on_c, 2, 76, 0
9, 19200, Note_on_c, 2, 71, 84
9, 19200, Note_on_c, 2, 74, 84
9, 19319, Note_on_c, 2, 71, 0
9, 19319, Note_on_c, 2, 74, 0
9, 19380, Note_on_c, 2, 72, 84
9, 19380, Note_on_c, 2, 67, 84
9, 19431, Note_on_c, 2, 72, 0
9, 19431, Note_on_c, 2, 67, 0
9, 19440, Note_on_c, 2, 76, 84
9, 19440, Note_on_c, 2, 72, 84
9, 19664, Note_on_c, 2, 76, 0
9, 19664, Note_on_c, 2, 72, 0
9, 19680, Note_on_c, 2, 74, 84
9, 19680, Note_on_c, 2, 71, 84
9, 19799, Note_on_c, 2, 74, 0
9, 19799, Note_on_c, 2, 71, 0
9, 19860, Note_on_c, 2, 72, 84
9, 19860, Note_on_c, 2, 67, 84
9, 19911, Note_on_c, 2, 72, 0
9, 19911, Note_on_c, 2, 67, 0
9, 19920, Note_on_c, 2, 72, 84
9, 19920, Note_on_c, 2, 76, 84
9, 20144, Note_on_c, 2, 72, 0
9, 20144, Note_on_c, 2, 76, 0
9, 20160, Note_on_c, 2, 74, 84
9, 20160, Note_on_c, 2, 71, 84
9, 20279, Note_on_c, 2, 74, 0
9, 20279, Note_on_c, 2, 71, 0
9, 21240, Note_on_c, 2, 76, 92
9, 21359, Note_on_c, 2, 76, 0
9, 21360, Note_on_c, 2, 74, 84
9, 21464, Note_on_c, 2, 74, 0
9, 21480, Note_on_c, 2, 72, 84
9, 21569, Note_on_c, 2, 72, 0
9, 21600, Note_on_c, 2, 71, 84
9, 21689, Note_on_c, 2, 71, 0
9, 21720, Note_on_c, 2, 72, 92
9, 21839, Note_on_c, 2, 72, 0
9, 21840, Note_on_c, 2, 71, 84
9, 21944, Note_on_c, 2, 71, 0
9, 21960, Note_on_c, 2, 69, 84
9, 22049, Note_on_c, 2, 69, 0
9, 22080, Note_on_c, 2, 67, 84
9, 22169, Note_on_c, 2, 67, 0
9, 22200, Note_on_c, 2, 72, 92
9, 22319, Note_on_c, 2, 72, 0
9, 22320, Note_on_c, 2, 71, 84
9, 22424, Note_on_c, 2, 71, 0
9, 22440, Note_on_c, 2, 69, 84
9, 22529, Note_on_c, 2, 69, 0
9, 22560, Note_on_c, 2, 67, 84
9, 22649, Note_on_c, 2, 67, 0
9, 22680, Note_on_c, 2, 72, 92
9, 22799, Note_on_c, 2, 72, 0
9, 22800, Note_on_c, 2, 71, 84
9, 22904, Note_on_c, 2, 71, 0
9, 22920, Note_on_c, 2, 69, 84
9, 23009, Note_on_c, 2, 69, 0
9, 23040, Note_on_c, 2, 67, 84
9, 23129, Note_on_c, 2, 67, 0
9, 23160, Note_on_c, 2, 72, 92
9, 23279, Note_on_c, 2, 72, 0
9, 23280, Note_on_c, 2, 71, 84
9, 23384, Note_on_c, 2, 71, 0
9, 23400, Note_on_c, 2, 69, 84
9, 23489, Note_on_c, 2, 69, 0
9, 23520, Note_on_c, 2, 67, 84
9, 23609, Note_on_c, 2, 67, 0
9, 23640, Note_on_c, 2, 65, 84
9, 23729, Note_on_c, 2, 65, 0
9, 23760, Note_on_c, 2, 64, 84
9, 23849, Note_on_c, 2, 64, 0
9, 23880, Note_on_c, 2, 62, 84
9, 23969, Note_on_c, 2, 62, 0
9, 24000, Note_on_c, 2, 72, 84
9, 24000, Note_on_c, 2, 64, 84
9, 24704, Note_on_c, 2, 72, 0
9, 24704, Note_on_c, 2, 64, 0
9, 24720, Note_on_c, 2, 64, 84
9, 24720, Note_on_c, 2, 67, 84
9, 24959, Note_on_c, 2, 64, 0
9, 24959, Note_on_c, 2, 67, 0
9, 24960, Note_on_c, 2, 67, 84
9, 24960, Note_on_c, 2, 76, 84
9, 25679, Note_on_c, 2, 67, 0
9, 25679, Note_on_c, 2, 76, 0
9, 25680, Note_on_c, 2, 74, 84
9, 25680, Note_on_c, 2, 65, 84
9, 25859, Note_on_c, 2, 74, 0
9, 25859, Note_on_c, 2, 65, 0
9, 25860, Note_on_c, 2, 72, 84
9, 25860, Note_on_c, 2, 64, 84
9, 25911, Note_on_c, 2, 72, 0
9, 25911, Note_on_c, 2, 64, 0
9, 25920, Note_on_c, 2, 62, 84
9, 25920, Note_on_c, 2, 71, 84
9, 26159, Note_on_c, 2, 62, 0
9, 26159, Note_on_c, 2, 71, 0
9, 27840, Note_on_c, 2, 74, 84
9, 27840, Note_on_c, 2, 71, 84
9, 28544, Note_on_c, 2, 74, 0
9, 28544, Note_on_c, 2, 71, 0
9, 28560, Note_on_c, 2, 67, 84
9, 28799, Note_on_c, 2, 67, 0
9, 28800, Note_on_c, 2, 74, 84
9, 28800, Note_on_c, 2, 77, 84
9, 29519, Note_on_c, 2, 74, 0
9, 29519, Note_on_c, 2, 77, 0
9, 29520, Note_on_c, 2, 76, 84
9, 29520, Note_on_c, 2, 72, 84
9, 29699, Note_on_c, 2, 76, 0
9, 29699, Note_on_c, 2, 72, 0
9, 29700, Note_on_c, 2, 71, 84
9, 29700, Note_on_c, 2, 74, 84
9, 29751, Note_on_c, 2, 71, 0
9, 29751, Note_on_c, 2, 74, 0
9, 29760, Note_on_c, 2, 71, 84
9, 29760, Note_on_c, 2, 74, 84
9, 29999, Note_on_c, 2, 71, 0
9, 29999, Note_on_c, 2, 74, 0
9, 30000, Note_on_c, 2, 76, 84
9, 30000, Note_on_c, 2, 72, 84
9, 31664, Note_on_c, 2, 76, 0
9, 31664, Note_on_c, 2, 72, 0
9, 31680, Note_on_c, 2, 72, 84
9, 31680, Note_on_c, 2, 76, 84
9, 31919, Note_on_c, 2, 72, 0
9, 31919, Note_on_c, 2, 76, 0
9, 32640, Note_on_c, 2, 76, 84
9, 32640, Note_on_c, 2, 72, 84
9, 32879, Note_on_c, 2, 76, 0
9, 32879, Note_on_c, 2, 72, 0
9, 33600, Note_on_c, 2, 72, 84
9, 33600, Note_on_c, 2, 66, 84
9, 33839, Note_on_c, 2, 72, 0
9, 33839, Note_on_c, 2, 66, 0
9, 34560, Note_on_c, 2, 72, 84
9, 34560, Note_on_c, 2, 69, 84
9, 34799, Note_on_c, 2, 72, 0
9, 34799, Note_on_c, 2, 69, 0
9, 35520, Note_on_c, 2, 67, 84
9, 35520, Note_on_c, 2, 71, 84
9, 35759, Note_on_c, 2, 67, 0
9, 35759, Note_on_c, 2, 71, 0
9, 36000, Note_on_c, 2, 67, 84
9, 36000, Note_on_c, 2, 71, 84
9, 36239, Note_on_c, 2, 67, 0
9, 36239, Note_on_c, 2, 71, 0
9, 36480, Note_on_c, 2, 66, 84
9, 36480, Note_on_c, 2, 69, 84
9, 36719, Note_on_c, 2, 66, 0
9, 36719, Note_on_c, 2, 69, 0
9, 36960, Note_on_c, 2, 69, 84
9, 36960, Note_on_c, 2, 66, 84
9, 37199, Note_on_c, 2, 69, 0
9, 37199, Note_on_c, 2, 66, 0
9, 37440, Note_on_c, 2, 71, 84
9, 37440, Note_on_c, 2, 67, 84
9, 37679, Note_on_c, 2, 71, 0
9, 37679, Note_on_c, 2, 67, 0
9, 37920, Note_on_c, 2, 67, 84
9, 37920, Note_on_c, 2, 71, 84
9, 38159, Note_on_c, 2, 67, 0
9, 38159, Note_on_c, 2, 71, 0
9, 38400, Note_on_c, 2, 66, 84
9, 38400, Note_on_c, 2, 69, 84
9, 38519, Note_on_c, 2, 66, 0
9, 38519, Note_on_c, 2, 69, 0
9, 39000, Note_on_c, 2, 74, 84
9, 39119, Note_on_c, 2, 74, 0
9, 39120, Note_on_c, 2, 72, 84
9, 39224, Note_on_c, 2, 72, 0
9, 39240, Note_on_c, 2, 71, 84
9, 39329, Note_on_c, 2, 71, 0
9, 39360, Note_on_c, 2, 69, 84
9, 39449, Note_on_c, 2, 69, 0
9, 39480, Note_on_c, 2, 71, 84
9, 39599, Note_on_c, 2, 71, 0
9, 39600, Note_on_c, 2, 69, 84
9, 39704, Note_on_c, 2, 69, 0
9, 39720, Note_on_c, 2, 67, 84
9, 39809, Note_on_c, 2, 67, 0
9, 39840, Note_on_c, 2, 66, 84
9, 39944, Note_on_c, 2, 66, 0
9, 39960, Note_on_c, 2, 62, 84
9, 39960, Note_on_c, 2, 66, 84
9, 40079, Note_on_c, 2, 62, 0
9, 40079, Note_on_c, 2, 66, 0
9, 40080, Note_on_c, 2, 67, 84
9, 40080, Note_on_c, 2, 61, 84
9, 40184, Note_on_c, 2, 67, 0
9, 40184, Note_on_c, 2, 61, 0
9, 40200, Note_on_c, 2, 67, 84
9, 40200, Note_on_c, 2, 64, 84
9, 40289, Note_on_c, 2, 67, 0
9, 40289, Note_on_c, 2, 64, 0
9, 40320, Note_on_c, 2, 66, 84
9, 40320, Note_on_c, 2, 62, 84
9, 40439, Note_on_c, 2, 66, 0
9, 40439, Note_on_c, 2, 62, 0
9, 42240, Note_on_c, 2, 74, 84
9, 42240, Note_on_c, 2, 71, 84
9, 42419, Note_on_c, 2, 74, 0
9, 42419, Note_on_c, 2, 71, 0
9, 42720, Note_on_c, 2, 72, 84
9, 42720, Note_on_c, 2, 76, 84
9, 42899, Note_on_c, 2, 72, 0
9, 42899, Note_on_c, 2, 76, 0
9, 43200, Note_on_c, 2, 71, 84
9, 43200, Note_on_c, 2, 74, 84
9, 43919, Note_on_c, 2, 71, 0
9, 43919, Note_on_c, 2, 74, 0
9, 47040, Note_on_c, 2, 71, 76
9, 47040, Note_on_c, 2, 74, 76
9, 47759, Note_on_c, 2, 71, 0
9, 47759, Note_on_c, 2, 74, 0
9, 54720, Note_on_c, 2, 76, 84
9, 54720, Note_on_c, 2, 72, 84
9, 55199, Note_on_c, 2, 76, 0
9, 55199, Note_on_c, 2, 72, 0
9, 55200, Note_on_c, 2, 76, 84
9, 55200, Note_on_c, 2, 72, 84
9, 55304, Note_on_c, 2, 76, 0
9, 55304, Note_on_c, 2, 72, 0
9, 55320, Note_on_c, 2, 76, 84
9, 55320, Note_on_c, 2, 72, 84
9, 55424, Note_on_c, 2, 76, 0
9, 55424, Note_on_c, 2, 72, 0
9, 55440, Note_on_c, 2, 72, 84
9, 55440, Note_on_c, 2, 76, 84
9, 55544, Note_on_c, 2, 72, 0
9, 55544, Note_on_c, 2, 76, 0
9, 55560, Note_on_c, 2, 72, 84
9, 55560, Note_on_c, 2, 76, 84
9, 55664, Note_on_c, 2, 72, 0
9, 55664, Note_on_c, 2, 76, 0
9, 55680, Note_on_c, 2, 76, 84
9, 55680, Note_on_c, 2, 72, 84
9, 55784, Note_on_c, 2, 76, 0
9, 55784, Note_on_c, 2, 72, 0
9, 55800, Note_on_c, 2, 72, 84
9, 55800, Note_on_c, 2, 76, 84
9, 55904, Note_on_c, 2, 72, 0
9, 55904, Note_on_c, 2, 76, 0
9, 55920, Note_on_c, 2, 76, 84
9, 55920, Note_on_c, 2, 72, 84
9, 56024, Note_on_c, 2, 76, 0
9, 56024, Note_on_c, 2, 72, 0
9, 56040, Note_on_c, 2, 72, 84
9, 56040, Note_on_c, 2, 76, 84
9, 56144, Note_on_c, 2, 72, 0
9, 56144, Note_on_c, 2, 76, 0
9, 56160, Note_on_c, 2, 76, 84
9, 56160, Note_on_c, 2, 72, 84
9, 56264, Note_on_c, 2, 76, 0
9, 56264, Note_on_c, 2, 72, 0
9, 56280, Note_on_c, 2, 76, 84
9, 56280, Note_on_c, 2, 72, 84
9, 56384, Note_on_c, 2, 76, 0
9, 56384, Note_on_c, 2, 72, 0
9, 56400, Note_on_c, 2, 76, 84
9, 56400, Note_on_c, 2, 72, 84
9, 56504, Note_on_c, 2, 76, 0
9, 56504, Note_on_c, 2, 72, 0
9, 56520, Note_on_c, 2, 72, 84
9, 56520, Note_on_c, 2, 76, 84
9, 56624, Note_on_c, 2, 72, 0
9, 56624, Note_on_c, 2, 76, 0
9, 56640, Note_on_c, 2, 72, 84
9, 56640, Note_on_c, 2, 76, 84
9, 56879, Note_on_c, 2, 72, 0
9, 56879, Note_on_c, 2, 76, 0
9, 60480, Note_on_c, 2, 67, 76
9, 60599, Note_on_c, 2, 67, 0
9, 60600, Note_on_c, 2, 67, 52
9, 61199, Note_on_c, 2, 67, 0
9, 61200, Note_on_c, 2, 66, 52
9, 61439, Note_on_c, 2, 66, 0
9, 61440, Note_on_c, 2, 64, 52
9, 61440, Note_on_c, 2, 61, 52
9, 61679, Note_on_c, 2, 64, 0
9, 61679, Note_on_c, 2, 61, 0
9, 61680, Note_on_c, 2, 62, 52
9, 61904, Note_on_c, 2, 62, 0
9, 61920, Note_on_c, 2, 62, 52
9, 62144, Note_on_c, 2, 62, 0
9, 62160, Note_on_c, 2, 62, 52
9, 62384, Note_on_c, 2, 62, 0
9, 62400, Note_on_c, 2, 67, 76
9, 62519, Note_on_c, 2, 67, 0
9, 62520, Note_on_c, 2, 67, 52
9, 63119, Note_on_c, 2, 67, 0
9, 63120, Note_on_c, 2, 66, 52
9, 63359, Note_on_c, 2, 66, 0
9, 63360, Note_on_c, 2, 64, 52
9, 63360, Note_on_c, 2, 61, 52
9, 63599, Note_on_c, 2, 64, 0
9, 63599, Note_on_c, 2, 61, 0
9, 63600, Note_on_c, 2, 62, 52
9, 63824, Note_on_c, 2, 62, 0
9, 63840, Note_on_c, 2, 62, 52
9, 64064, Note_on_c, 2, 62, 0
9, 64080, Note_on_c, 2, 62, 52
9, 64304, Note_on_c, 2, 62, 0
9, 64320, Note_on_c, 2, 72, 76
9, 64320, Note_on_c, 2, 67, 76
9, 64439, Note_on_c, 2, 72, 0
9, 64439, Note_on_c, 2, 67, 0
9, 64440, Note_on_c, 2, 72, 52
9, 64440, Note_on_c, 2, 67, 52
9, 64799, Note_on_c, 2, 67, 0
9, 64800, Note_on_c, 2, 65, 52
9, 65039, Note_on_c, 2, 72, 0
9, 65040, Note_on_c, 2, 71, 52
9, 65279, Note_on_c, 2, 65, 0
9, 65279, Note_on_c, 2, 71, 0
9, 65280, Note_on_c, 2, 69, 52
9, 65280, Note_on_c, 2, 64, 52
9, 65519, Note_on_c, 2, 69, 0
9, 65519, Note_on_c, 2, 64, 0
9, 65520, Note_on_c, 2, 65, 52
9, 65520, Note_on_c, 2, 68, 52
9, 65744, Note_on_c, 2, 65, 0
9, 65744, Note_on_c, 2, 68, 0
9, 65760, Note_on_c, 2, 68, 52
9, 65760, Note_on_c, 2, 65, 52
9, 65984, Note_on_c, 2, 68, 0
9, 65984, Note_on_c, 2, 65, 0
9, 66000, Note_on_c, 2, 68, 52
9, 66000, Note_on_c, 2, 65, 52
9, 66224, Note_on_c, 2, 68, 0
9, 66224, Note_on_c, 2, 65, 0
9, 66240, Note_on_c, 2, 69, 52
9, 66719, Note_on_c, 2, 69, 0
9, 66720, Note_on_c, 2, 72, 52
9, 67139, Note_on_c, 2, 72, 0
9, 67140, Note_on_c, 2, 69, 52
9, 67199, Note_on_c, 2, 69, 0
9, 67200, Note_on_c, 2, 67, 52
9, 67679, Note_on_c, 2, 67, 0
9, 67680, Note_on_c, 2, 69, 52
9, 68099, Note_on_c, 2, 69, 0
9, 68100, Note_on_c, 2, 66, 52
9, 68151, Note_on_c, 2, 66, 0
9, 68160, Note_on_c, 2, 67, 84
9, 68160, Note_on_c, 2, 74, 84
9, 68864, Note_on_c, 2, 67, 0
9, 68864, Note_on_c, 2, 74, 0
9, 68880, Note_on_c, 2, 72, 84
9, 68880, Note_on_c, 2, 66, 84
9, 69104, Note_on_c, 2, 72, 0
9, 69104, Note_on_c, 2, 66, 0
9, 69120, Note_on_c, 2, 72, 84
9, 69120, Note_on_c, 2, 67, 84
9, 69344, Note_on_c, 2, 72, 0
9, 69344, Note_on_c, 2, 67, 0
9, 69360, Note_on_c, 2, 69, 84
9, 69360, Note_on_c, 2, 72, 84
9, 69584, Note_on_c, 2, 69, 0
9, 69584, Note_on_c, 2, 72, 0
9, 69600, Note_on_c, 2, 69, 84
9, 69600, Note_on_c, 2, 72, 84
9, 69824, Note_on_c, 2, 69, 0
9, 69824, Note_on_c, 2, 72, 0
9, 69840, Note_on_c, 2, 72, 84
9, 69840, Note_on_c, 2, 69, 84
9, 70064, Note_on_c, 2, 72, 0
9, 70064, Note_on_c, 2, 69, 0
9, 70080, Note_on_c, 2, 67, 84
9, 70080, Note_on_c, 2, 74, 84
9, 70200, Control_c, 2, 11, 112
9, 70784, Note_on_c, 2, 67, 0
9, 70784, Note_on_c, 2, 74, 0
9, 70800, Note_on_c, 2, 66, 84
9, 70800, Note_on_c, 2, 72, 84
9, 71024, Note_on_c, 2, 66, 0
9, 71024, Note_on_c, 2, 72, 0
9, 71040, Note_on_c, 2, 72, 84
9, 71040, Note_on_c, 2, 67, 84
9, 71264, Note_on_c, 2, 72, 0
9, 71264, Note_on_c, 2, 67, 0
9, 71280, Note_on_c, 2, 69, 84
9, 71280, Note_on_c, 2, 72, 84
9, 71504, Note_on_c, 2, 69, 0
9, 71504, Note_on_c, 2, 72, 0
9, 71520, Note_on_c, 2, 69, 84
9, 71520, Note_on_c, 2, 72, 84
9, 71744, Note_on_c, 2, 69, 0
9, 71744, Note_on_c, 2, 72, 0
9, 71760, Note_on_c, 2, 69, 84
9, 71760, Note_on_c, 2, 72, 84
9, 71984, Note_on_c, 2, 69, 0
9, 71984, Note_on_c, 2, 72, 0
9, 71998, Control_c, 2, 11, 127
9, 72000, Note_on_c, 2, 72, 84
9, 72000, Note_on_c, 2, 69, 84
9, 72120, Control_c, 2, 11, 112
9, 72704, Note_on_c, 2, 72, 0
9, 72704, Note_on_c, 2, 69, 0
9, 72720, Note_on_c, 2, 71, 84
9, 72720, Note_on_c, 2, 67, 84
9, 72944, Note_on_c, 2, 71, 0
9, 72944, Note_on_c, 2, 67, 0
9, 72958, Control_c, 2, 11, 127
9, 72960, Note_on_c, 2, 69, 80
9, 72960, Note_on_c, 2, 64, 80
9, 73184, Note_on_c, 2, 69, 0
9, 73184, Note_on_c, 2, 64, 0
9, 73200, Note_on_c, 2, 68, 80
9, 73200, Note_on_c, 2, 65, 80
9, 73424, Note_on_c, 2, 68, 0
9, 73424, Note_on_c, 2, 65, 0
9, 73440, Note_on_c, 2, 68, 80
9, 73440, Note_on_c, 2, 65, 80
9, 73664, Note_on_c, 2, 68, 0
9, 73664, Note_on_c, 2, 65, 0
9, 73680, Note_on_c, 2, 65, 80
9, 73680, Note_on_c, 2, 68, 80
9, 73904, Note_on_c, 2, 65, 0
9, 73904, Note_on_c, 2, 68, 0
9, 73920, Note_on_c, 2, 68, 80
9, 73920, Note_on_c, 2, 65, 80
9, 74144, Note_on_c, 2, 68, 0
9, 74144, Note_on_c, 2, 65, 0
9, 74160, Note_on_c, 2, 68, 80
9, 74160, Note_on_c, 2, 65, 80
9, 74384, Note_on_c, 2, 68, 0
9, 74384, Note_on_c, 2, 65, 0
9, 74400, Note_on_c, 2, 65, 80
9, 74400, Note_on_c, 2, 68, 80
9, 74624, Note_on_c, 2, 65, 0
9, 74624, Note_on_c, 2, 68, 0
9, 74640, Note_on_c, 2, 65, 80
9, 74640, Note_on_c, 2, 68, 80
9, 74864, Note_on_c, 2, 65, 0
9, 74864, Note_on_c, 2, 68, 0
9, 74880, Note_on_c, 2, 65, 80
9, 74880, Note_on_c, 2, 68, 80
9, 75104, Note_on_c, 2, 65, 0
9, 75104, Note_on_c, 2, 68, 0
9, 75120, Note_on_c, 2, 68, 80
9, 75120, Note_on_c, 2, 65, 80
9, 75344, Note_on_c, 2, 68, 0
9, 75344, Note_on_c, 2, 65, 0
9, 75360, Note_on_c, 2, 68, 80
9, 75360, Note_on_c, 2, 65, 80
9, 75584, Note_on_c, 2, 68, 0
9, 75584, Note_on_c, 2, 65, 0
9, 75600, Note_on_c, 2, 65, 80
9, 75600, Note_on_c, 2, 68, 80
9, 75824, Note_on_c, 2, 65, 0
9, 75824, Note_on_c, 2, 68, 0
9, 75840, Note_on_c, 2, 77, 84
9, 75840, Note_on_c, 2, 65, 84
9, 77744, Note_on_c, 2, 77, 0
9, 77744, Note_on_c, 2, 65, 0
9, 77760, Note_on_c, 2, 74, 84
9, 77760, Note_on_c, 2, 71, 84
9, 78464, Note_on_c, 2, 74, 0
9, 78464, Note_on_c, 2, 71, 0
9, 78480, Note_on_c, 2, 74, 84
9, 78480, Note_on_c, 2, 71, 84
9, 78584, Note_on_c, 2, 74, 0
9, 78584, Note_on_c, 2, 71, 0
9, 78600, Note_on_c, 2, 74, 84
9, 78600, Note_on_c, 2, 71, 84
9, 78704, Note_on_c, 2, 74, 0
9, 78704, Note_on_c, 2, 71, 0
9, 78720, Note_on_c, 2, 71, 84
9, 78720, Note_on_c, 2, 74, 84
9, 79424, Note_on_c, 2, 71, 0
9, 79424, Note_on_c, 2, 74, 0
9, 79440, Note_on_c, 2, 71, 84
9, 79440, Note_on_c, 2, 74, 84
9, 79544, Note_on_c, 2, 71, 0
9, 79544, Note_on_c, 2, 74, 0
9, 79560, Note_on_c, 2, 71, 84
9, 79560, Note_on_c, 2, 74, 84
9, 79664, Note_on_c, 2, 71, 0
9, 79664, Note_on_c, 2, 74, 0
9, 79680, Note_on_c, 2, 74, 84
9, 79680, Note_on_c, 2, 71, 84
9, 79904, Note_on_c, 2, 74, 0
9, 79904, Note_on_c, 2, 71, 0
9, 79920, Note_on_c, 2, 74, 84
9, 79920, Note_on_c, 2, 71, 84
9, 80024, Note_on_c, 2, 74, 0
9, 80024, Note_on_c, 2, 71, 0
9, 80040, Note_on_c, 2, 71, 84
9, 80040, Note_on_c, 2, 74, 84
9, 80144, Note_on_c, 2, 71, 0
9, 80144, Note_on_c, 2, 74, 0
9, 80160, Note_on_c, 2, 71, 84
9, 80160, Note_on_c, 2, 74, 84
9, 80384, Note_on_c, 2, 71, 0
9, 80384, Note_on_c, 2, 74, 0
9, 80400, Note_on_c, 2, 74, 84
9, 80400, Note_on_c, 2, 71, 84
9, 80504, Note_on_c, 2, 74, 0
9, 80504, Note_on_c, 2, 71, 0
9, 80520, Note_on_c, 2, 74, 84
9, 80520, Note_on_c, 2, 71, 84
9, 80624, Note_on_c, 2, 74, 0
9, 80624, Note_on_c, 2, 71, 0
9, 80640, Note_on_c, 2, 71, 84
9, 80640, Note_on_c, 2, 74, 84
9, 80744, Note_on_c, 2, 71, 0
9, 80744, Note_on_c, 2, 74, 0
9, 80760, Note_on_c, 2, 55, 84
9, 80760, Note_on_c, 2, 67, 84
9, 80864, Note_on_c, 2, 55, 0
9, 80864, Note_on_c, 2, 67, 0
9, 80880, Note_on_c, 2, 62, 84
9, 80880, Note_on_c, 2, 74, 84
9, 80984, Note_on_c, 2, 62, 0
9, 80984, Note_on_c, 2, 74, 0
9, 81000, Note_on_c, 2, 71, 84
9, 81000, Note_on_c, 2, 59, 84
9, 81104, Note_on_c, 2, 71, 0
9, 81104, Note_on_c, 2, 59, 0
9, 81120, Note_on_c, 2, 77, 84
9, 81120, Note_on_c, 2, 65, 84
9, 81224, Note_on_c, 2, 77, 0
9, 81224, Note_on_c, 2, 65, 0
9, 81240, Note_on_c, 2, 74, 84
9, 81240, Note_on_c, 2, 62, 84
9, 81344, Note_on_c, 2, 74, 0
9, 81344, Note_on_c, 2, 62, 0
9, 81360, Note_on_c, 2, 71, 84
9, 81464, Note_on_c, 2, 71, 0
9, 81480, Note_on_c, 2, 67, 84
9, 81584, Note_on_c, 2, 67, 0
9, 81600, Note_on_c, 2, 64, 84
9, 81600, Note_on_c, 2, 72, 84
9, 82064, Note_on_c, 2, 64, 0
9, 82064, Note_on_c, 2, 72, 0
9, 82080, Note_on_c, 2, 72, 84
9, 82080, Note_on_c, 2, 76, 84
9, 82544, Note_on_c, 2, 72, 0
9, 82544, Note_on_c, 2, 76, 0
9, 82560, Note_on_c, 2, 76, 84
9, 82560, Note_on_c, 2, 79, 84
9, 83264, Note_on_c, 2, 76, 0
9, 83264, Note_on_c, 2, 79, 0
9, 83280, Note_on_c, 2, 77, 84
9, 83280, Note_on_c, 2, 74, 84
9, 83399, Note_on_c, 2, 77, 0
9, 83399, Note_on_c, 2, 74, 0
9, 83520, Note_on_c, 2, 72, 84
9, 83520, Note_on_c, 2, 76, 84
9, 83639, Note_on_c, 2, 72, 0
9, 83639, Note_on_c, 2, 76, 0
9, 83760, Note_on_c, 2, 67, 84
9, 83760, Note_on_c, 2, 74, 84
9, 83879, Note_on_c, 2, 67, 0
9, 83879, Note_on_c, 2, 74, 0
9, 84000, Note_on_c, 2, 72, 84
9, 84000, Note_on_c, 2, 64, 84
9, 84119, Note_on_c, 2, 72, 0
9, 84119, Note_on_c, 2, 64, 0
9, 84240, Note_on_c, 2, 67, 84
9, 84240, Note_on_c, 2, 74, 84
9, 84359, Note_on_c, 2, 67, 0
9, 84359, Note_on_c, 2, 74, 0
9, 84480, Note_on_c, 2, 64, 84
9, 84480, Note_on_c, 2, 72, 84
9, 85184, Note_on_c, 2, 64, 0
9, 85184, Note_on_c, 2, 72, 0
9, 85200, Note_on_c, 2, 64, 84
9, 85200, Note_on_c, 2, 72, 84
9, 85371, Note_on_c, 2, 64, 0
9, 85371, Note_on_c, 2, 72, 0
9, 85380, Note_on_c, 2, 72, 84
9, 85380, Note_on_c, 2, 64, 84
9, 85431, Note_on_c, 2, 72, 0
9, 85431, Note_on_c, 2, 64, 0
9, 85440, Note_on_c, 2, 67, 84
9, 85440, Note_on_c, 2, 74, 84
9, 86144, Note_on_c, 2, 67, 0
9, 86144, Note_on_c, 2, 74, 0
9, 86160, Note_on_c, 2, 74, 84
9, 86160, Note_on_c, 2, 67, 84
9, 86331, Note_on_c, 2, 74, 0
9, 86331, Note_on_c, 2, 67, 0
9, 86340, Note_on_c, 2, 74, 84
9, 86340, Note_on_c, 2, 67, 84
9, 86391, Note_on_c, 2, 74, 0
9, 86391, Note_on_c, 2, 67, 0
9, 86400, Note_on_c, 2, 76, 84
9, 86400, Note_on_c, 2, 72, 84
9, 87344, Note_on_c, 2, 76, 0
9, 87344, Note_on_c, 2, 72, 0
9, 87360, Note_on_c, 2, 77, 84
9, 87360, Note_on_c, 2, 72, 84
9, 87824, Note_on_c, 2, 77, 0
9, 87840, Note_on_c, 2, 81, 84
9, 88304, Note_on_c, 2, 72, 0
9, 88304, Note_on_c, 2, 81, 0
9, 88320, Note_on_c, 2, 79, 84
9, 88320, Note_on_c, 2, 72, 84
9, 89024, Note_on_c, 2, 79, 0
9, 89040, Note_on_c, 2, 76, 84
9, 89264, Note_on_c, 2, 72, 0
9, 89264, Note_on_c, 2, 76, 0
9, 89280, Note_on_c, 2, 72, 84
9, 89280, Note_on_c, 2, 77, 84
9, 89744, Note_on_c, 2, 77, 0
9, 89760, Note_on_c, 2, 81, 84
9, 90224, Note_on_c, 2, 72, 0
9, 90224, Note_on_c, 2, 81, 0
9, 90240, Note_on_c, 2, 72, 84
9, 90240, Note_on_c, 2, 79, 84
9, 90944, Note_on_c, 2, 79, 0
9, 90960, Note_on_c, 2, 76, 84
9, 91184, Note_on_c, 2, 72, 0
9, 91184, Note_on_c, 2, 76, 0
9, 91200, Note_on_c, 2, 77, 84
9, 91200, Note_on_c, 2, 72, 84
9, 91664, Note_on_c, 2, 77, 0
9, 91680, Note_on_c, 2, 81, 84
9, 92144, Note_on_c, 2, 72, 0
9, 92144, Note_on_c, 2, 81, 0
9, 92160, Note_on_c, 2, 79, 84
9, 92160, Note_on_c, 2, 72, 84
9, 92864, Note_on_c, 2, 79, 0
9, 92864, Note_on_c, 2, 72, 0
9, 92880, Note_on_c, 2, 76, 84
9, 92880, Note_on_c, 2, 67, 84
9, 93104, Note_on_c, 2, 76, 0
9, 93104, Note_on_c, 2, 67, 0
9, 93120, Note_on_c, 2, 65, 84
9, 93120, Note_on_c, 2, 74, 84
9, 93584, Note_on_c, 2, 65, 0
9, 93584, Note_on_c, 2, 74, 0
9, 93600, Note_on_c, 2, 64, 84
9, 93600, Note_on_c, 2, 72, 84
9, 94064, Note_on_c, 2, 64, 0
9, 94064, Note_on_c, 2, 72, 0
9, 94080, Note_on_c, 2, 72, 84
9, 94080, Note_on_c, 2, 64, 84
9, 94199, Note_on_c, 2, 72, 0
9, 94199, Note_on_c, 2, 64, 0
9, 94200, Note_on_c, 2, 62, 84
9, 94200, Note_on_c, 2, 71, 84
9, 94304, Note_on_c, 2, 62, 0
9, 94304, Note_on_c, 2, 71, 0
9, 94320, Note_on_c, 2, 62, 84
9, 94320, Note_on_c, 2, 71, 84
9, 94784, Note_on_c, 2, 62, 0
9, 94784, Note_on_c, 2, 71, 0
9, 94800, Note_on_c, 2, 72, 84
9, 94800, Note_on_c, 2, 64, 84
9, 94971, Note_on_c, 2, 72, 0
9, 94971, Note_on_c, 2, 64, 0
9, 94980, Note_on_c, 2, 64, 84
9, 94980, Note_on_c, 2, 72, 84
9, 95031, Note_on_c, 2, 64, 0
9, 95031, Note_on_c, 2, 72, 0
9, 95040, Note_on_c, 2, 65, 84
9, 95040, Note_on_c, 2, 74, 84
9, 95504, Note_on_c, 2, 65, 0
9, 95504, Note_on_c, 2, 74, 0
9, 95520, Note_on_c, 2, 72, 84
9, 95520, Note_on_c, 2, 64, 84
9, 95984, Note_on_c, 2, 72, 0
9, 95984, Note_on_c, 2, 64, 0
9, 96000, Note_on_c, 2, 72, 84
9, 96000, Note_on_c, 2, 64, 84
9, 96119, Note_on_c, 2, 72, 0
9, 96119, Note_on_c, 2, 64, 0
9, 96120, Note_on_c, 2, 62, 84
9, 96120, Note_on_c, 2, 71, 84
9, 96224, Note_on_c, 2, 62, 0
9, 96224, Note_on_c, 2, 71, 0
9, 96240, Note_on_c, 2, 71, 84
9, 96240, Note_on_c, 2, 62, 84
9, 96704, Note_on_c, 2, 71, 0
9, 96704, Note_on_c, 2, 62, 0
9, 96720, Note_on_c, 2, 64, 84
9, 96720, Note_on_c, 2, 72, 84
9, 96809, Note_on_c, 2, 64, 0
9, 96809, Note_on_c, 2, 72, 0
9, 96900, Note_on_c, 2, 72, 84
9, 96900, Note_on_c, 2, 64, 84
9, 96944, Note_on_c, 2, 72, 0
9, 96944, Note_on_c, 2, 64, 0
9, 96960, Note_on_c, 2, 65, 84
9, 96960, Note_on_c, 2, 74, 84
9, 97049, Note_on_c, 2, 65, 0
9, 97049, Note_on_c, 2, 74, 0
9, 97140, Note_on_c, 2, 65, 84
9, 97140, Note_on_c, 2, 74, 84
9, 97184, Note_on_c, 2, 65, 0
9, 97184, Note_on_c, 2, 74, 0
9, 97200, Note_on_c, 2, 74, 84
9, 97200, Note_on_c, 2, 65, 84
9, 97289, Note_on_c, 2, 74, 0
9, 97289, Note_on_c, 2, 65, 0
9, 97380, Note_on_c, 2, 65, 84
9, 97380, Note_on_c, 2, 74, 84
9, 97424, Note_on_c, 2, 65, 0
9, 97424, Note_on_c, 2, 74, 0
9, 97440, Note_on_c, 2, 72, 84
9, 97440, Note_on_c, 2, 64, 84
9, 97529, Note_on_c, 2, 72, 0
9, 97529, Note_on_c, 2, 64, 0
9, 97620, Note_on_c, 2, 72, 84
9, 97620, Note_on_c, 2, 64, 84
9, 97664, Note_on_c, 2, 72, 0
9, 97664, Note_on_c, 2, 64, 0
9, 97680, Note_on_c, 2, 72, 84
9, 97680, Note_on_c, 2, 64, 84
9, 97769, Note_on_c, 2, 72, 0
9, 97769, Note_on_c, 2, 64, 0
9, 97860, Note_on_c, 2, 64, 84
9, 97860, Note_on_c, 2, 72, 84
9, 97904, Note_on_c, 2, 64, 0
9, 97904, Note_on_c, 2, 72, 0
9, 97920, Note_on_c, 2, 62, 84
9, 97920, Note_on_c, 2, 71, 84
9, 98144, Note_on_c, 2, 62, 0
9, 98144, Note_on_c, 2, 71, 0
9, 98160, Note_on_c, 2, 67, 84
9, 98160, Note_on_c, 2, 71, 84
9, 98384, Note_on_c, 2, 67, 0
9, 98384, Note_on_c, 2, 71, 0
9, 98400, Note_on_c, 2, 76, 84
9, 98400, Note_on_c, 2, 72, 84
9, 98624, Note_on_c, 2, 76, 0
9, 98624, Note_on_c, 2, 72, 0
9, 98640, Note_on_c, 2, 72, 84
9, 98640, Note_on_c, 2, 76, 84
9, 98864, Note_on_c, 2, 72, 0
9, 98864, Note_on_c, 2, 76, 0
9, 98880, Note_on_c, 2, 71, 84
9, 98880, Note_on_c, 2, 74, 84
9, 99104, Note_on_c, 2, 71, 0
9, 99104, Note_on_c, 2, 74, 0
9, 99120, Note_on_c, 2, 67, 84
9, 99120, Note_on_c, 2, 71, 84
9, 99344, Note_on_c, 2, 67, 0
9, 99344, Note_on_c, 2, 71, 0
9, 99360, Note_on_c, 2, 72, 84
9, 99360, Note_on_c, 2, 76, 84
9, 99584, Note_on_c, 2, 72, 0
9, 99584, Note_on_c, 2, 76, 0
9, 99600, Note_on_c, 2, 72, 84
9, 99600, Note_on_c, 2, 76, 84
9, 99824, Note_on_c, 2, 72, 0
9, 99824, Note_on_c, 2, 76, 0
9, 99840, Note_on_c, 2, 71, 84
9, 99840, Note_on_c, 2, 74, 84
9, 99959, Note_on_c, 2, 71, 0
9, 99959, Note_on_c, 2, 74, 0
9, 100020, Note_on_c, 2, 72, 84
9, 100020, Note_on_c, 2, 67, 84
9, 100071, Note_on_c, 2, 72, 0
9, 100071, Note_on_c, 2, 67, 0
9, 100080, Note_on_c, 2, 76, 84
9, 100080, Note_on_c, 2, 72, 84
9, 100304, Note_on_c, 2, 76, 0
9, 100304, Note_on_c, 2, 72, 0
9, 100320, Note_on_c, 2, 71, 84
9, 100320, Note_on_c, 2, 74, 84
9, 100439, Note_on_c, 2, 71, 0
9, 100439, Note_on_c, 2, 74, 0
9, 100500, Note_on_c, 2, 67, 84
9, 100500, Note_on_c, 2, 72, 84
9, 100551, Note_on_c, 2, 67, 0
9, 100551, Note_on_c, 2, 72, 0
9, 100560, Note_on_c, 2, 76, 84
9, 100560, Note_on_c, 2, 72, 84
9, 100784, Note_on_c, 2, 76, 0
9, 100784, Note_on_c, 2, 72, 0
9, 100800, Note_on_c, 2, 71, 84
9, 100800, Note_on_c, 2, 74, 84
9, 100919, Note_on_c, 2, 71, 0
9, 100919, Note_on_c, 2, 74, 0
9, 100980, Note_on_c, 2, 72, 84
9, 100980, Note_on_c, 2, 67, 84
9, 101031, Note_on_c, 2, 72, 0
9, 101031, Note_on_c, 2, 67, 0
9, 101040, Note_on_c, 2, 72, 84
9, 101040, Note_on_c, 2, 76, 84
9, 101264, Note_on_c, 2, 72, 0
9, 101264, Note_on_c, 2, 76, 0
9, 101280, Note_on_c, 2, 74, 84
9, 101280, Note_on_c, 2, 71, 84
9, 101399, Note_on_c, 2, 74, 0
9, 101399, Note_on_c, 2, 71, 0
9, 101460, Note_on_c, 2, 67, 84
9, 101460, Note_on_c, 2, 72, 84
9, 101511, Note_on_c, 2, 67, 0
9, 101511, Note_on_c, 2, 72, 0
9, 101520, Note_on_c, 2, 72, 84
9, 101520, Note_on_c, 2, 76, 84
9, 101744, Note_on_c, 2, 72, 0
9, 101744, Note_on_c, 2, 76, 0
9, 101760, Note_on_c, 2, 71, 84
9, 101760, Note_on_c, 2, 74, 84
9, 101879, Note_on_c, 2, 71, 0
9, 101879, Note_on_c, 2, 74, 0
9, 102840, Note_on_c, 2, 76, 92
9, 102959, Note_on_c, 2, 76, 0
9, 102960, Note_on_c, 2, 74, 84
9, 103064, Note_on_c, 2, 74, 0
9, 103080, Note_on_c, 2, 72, 84
9, 103169, Note_on_c, 2, 72, 0
9, 103200, Note_on_c, 2, 71, 84
9, 103289, Note_on_c, 2, 71, 0
9, 103320, Note_on_c, 2, 72, 92
9, 103439, Note_on_c, 2, 72, 0
9, 103440, Note_on_c, 2, 71, 84
9, 103544, Note_on_c, 2, 71, 0
9, 103560, Note_on_c, 2, 69, 84
9, 103649, Note_on_c, 2, 69, 0
9, 103680, Note_on_c, 2, 67, 84
9, 103769, Note_on_c, 2, 67, 0
9, 103800, Note_on_c, 2, 72, 92
9, 103919, Note_on_c, 2, 72, 0
9, 103920, Note_on_c, 2, 71, 84
9, 104024, Note_on_c, 2, 71, 0
9, 104040, Note_on_c, 2, 69, 84
9, 104129, Note_on_c, 2, 69, 0
9, 104160, Note_on_c, 2, 67, 84
9, 104249, Note_on_c, 2, 67, 0
9, 104280, Note_on_c, 2, 72, 92
9, 104399, Note_on_c, 2, 72, 0
9, 104400, Note_on_c, 2, 71, 84
9, 104504, Note_on_c, 2, 71, 0
9, 104520, Note_on_c, 2, 69, 84
9, 104609, Note_on_c, 2, 69, 0
9, 104640, Note_on_c, 2, 67, 84
9, 104729, Note_on_c, 2, 67, 0
9, 104760, Note_on_c, 2, 72, 92
9, 104879, Note_on_c, 2, 72, 0
9, 104880, Note_on_c, 2, 71, 84
9, 104984, Note_on_c, 2, 71, 0
9, 105000, Note_on_c, 2, 69, 84
9, 105089, Note_on_c, 2, 69, 0
9, 105120, Note_on_c, 2, 67, 84
9, 105209, Note_on_c, 2, 67, 0
9, 105240, Note_on_c, 2, 65, 84
9, 105329, Note_on_c, 2, 65, 0
9, 105360, Note_on_c, 2, 64, 84
9, 105449, Note_on_c, 2, 64, 0
9, 105480, Note_on_c, 2, 62, 84
9, 105569, Note_on_c, 2, 62, 0
9, 105600, Note_on_c, 2, 64, 84
9, 105600, Note_on_c, 2, 72, 84
9, 106304, Note_on_c, 2, 64, 0
9, 106304, Note_on_c, 2, 72, 0
9, 106320, Note_on_c, 2, 67, 84
9, 106320, Note_on_c, 2, 64, 84
9, 106559, Note_on_c, 2, 67, 0
9, 106559, Note_on_c, 2, 64, 0
9, 106560, Note_on_c, 2, 76, 84
9, 106560, Note_on_c, 2, 67, 84
9, 107279, Note_on_c, 2, 76, 0
9, 107279, Note_on_c, 2, 67, 0
9, 107280, Note_on_c, 2, 74, 84
9, 107280, Note_on_c, 2, 65, 84
9, 107459, Note_on_c, 2, 74, 0
9, 107459, Note_on_c, 2, 65, 0
9, 107460, Note_on_c, 2, 64, 84
9, 107460, Note_on_c, 2, 72, 84
9, 107511, Note_on_c, 2, 64, 0
9, 107511, Note_on_c, 2, 72, 0
9, 107520, Note_on_c, 2, 62, 84
9, 107520, Note_on_c, 2, 71, 84
9, 107759, Note_on_c, 2, 62, 0
9, 107759, Note_on_c, 2, 71, 0
9, 109440, Note_on_c, 2, 74, 84
9, 109440, Note_on_c, 2, 71, 84
9, 110144, Note_on_c, 2, 74, 0
9, 110144, Note_on_c, 2, 71, 0
9, 110160, Note_on_c, 2, 67, 84
9, 110399, Note_on_c, 2, 67, 0
9, 110400, Note_on_c, 2, 77, 84
9, 110400, Note_on_c, 2, 74, 84
9, 111119, Note_on_c, 2, 77, 0
9, 111119, Note_on_c, 2, 74, 0
9, 111120, Note_on_c, 2, 72, 84
9, 111120, Note_on_c, 2, 76, 84
9, 111299, Note_on_c, 2, 72, 0
9, 111299, Note_on_c, 2, 76, 0
9, 111300, Note_on_c, 2, 74, 84
9, 111300, Note_on_c, 2, 71, 84
9, 111351, Note_on_c, 2, 74, 0
9, 111351, Note_on_c, 2, 71, 0
9, 111360, Note_on_c, 2, 74, 84
9, 111360, Note_on_c, 2, 71, 84
9, 111599, Note_on_c, 2, 74, 0
9, 111599, Note_on_c, 2, 71, 0
9, 111600, Note_on_c, 2, 72, 84
9, 111600, Note_on_c, 2, 76, 84
9, 113264, Note_on_c, 2, 72, 0
9, 113264, Note_on_c, 2, 76, 0
9, 113280, Note_on_c, 2, 76, 84
9, 113280, Note_on_c, 2, 72, 84
9, 113519, Note_on_c, 2, 76, 0
9, 113519, Note_on_c, 2, 72, 0
9, 114240, Note_on_c, 2, 72, 84
9, 114240, Note_on_c, 2, 76, 84
9, 114479, Note_on_c, 2, 72, 0
9, 114479, Note_on_c, 2, 76, 0
9, 115200, Note_on_c, 2, 72, 84
9, 115200, Note_on_c, 2, 66, 84
9, 115439, Note_on_c, 2, 72, 0
9, 115439, Note_on_c, 2, 66, 0
9, 116160, Note_on_c, 2, 69, 84
9, 116160, Note_on_c, 2, 72, 84
9, 116399, Note_on_c, 2, 69, 0
9, 116399, Note_on_c, 2, 72, 0
9, 117120, Note_on_c, 2, 71, 84
9, 117120, Note_on_c, 2, 67, 84
9, 117359, Note_on_c, 2, 71, 0
9, 117359, Note_on_c, 2, 67, 0
9, 117600, Note_on_c, 2, 67, 84
9, 117600, Note_on_c, 2, 71, 84
9, 117839, Note_on_c, 2, 67, 0
9, 117839, Note_on_c, 2, 71, 0
9, 118080, Note_on_c, 2, 66, 84
9, 118080, Note_on_c, 2, 69, 84
9, 118319, Note_on_c, 2, 66, 0
9, 118319, Note_on_c, 2, 69, 0
9, 118560, Note_on_c, 2, 69, 84
9, 118560, Note_on_c, 2, 66, 84
9, 118799, Note_on_c, 2, 69, 0
9, 118799, Note_on_c, 2, 66, 0
9, 119040, Note_on_c, 2, 71, 84
9, 119040, Note_on_c, 2, 67, 84
9, 119279, Note_on_c, 2, 71, 0
9, 119279, Note_on_c, 2, 67, 0
9, 119520, Note_on_c, 2, 67, 84
9, 119520, Note_on_c, 2, 71, 84
9, 119759, Note_on_c, 2, 67, 0
9, 119759, Note_on_c, 2, 71, 0
9, 120000, Note_on_c, 2, 69, 84
9, 120000, Note_on_c, 2, 66, 84
9, 120119, Note_on_c, 2, 69, 0
9, 120119, Note_on_c, 2, 66, 0
9, 120600, Note_on_c, 2, 74, 84
9, 120719, Note_on_c, 2, 74, 0
9, 120720, Note_on_c, 2, 72, 84
9, 120824, Note_on_c, 2, 72, 0
9, 120840, Note_on_c, 2, 71, 84
9, 120929, Note_on_c, 2, 71, 0
9, 120960, Note_on_c, 2, 69, 84
9, 121049, Note_on_c, 2, 69, 0
9, 121080, Note_on_c, 2, 71, 84
9, 121199, Note_on_c, 2, 71, 0
9, 121200, Note_on_c, 2, 69, 84
9, 121304, Note_on_c, 2, 69, 0
9, 121320, Note_on_c, 2, 67, 84
9, 121409, Note_on_c, 2, 67, 0
9, 121440, Note_on_c, 2, 66, 84
9, 121544, Note_on_c, 2, 66, 0
9, 121560, Note_on_c, 2, 62, 84
9, 121560, Note_on_c, 2, 66, 84
9, 121679, Note_on_c, 2, 62, 0
9, 121679, Note_on_c, 2, 66, 0
9, 121680, Note_on_c, 2, 67, 84
9, 121680, Note_on_c, 2, 61, 84
9, 121784, Note_on_c, 2, 67, 0
9, 121784, Note_on_c, 2, 61, 0
9, 121800, Note_on_c, 2, 64, 84
9, 121800, Note_on_c, 2, 67, 84
9, 121889, Note_on_c, 2, 64, 0
9, 121889, Note_on_c, 2, 67, 0
9, 121920, Note_on_c, 2, 66, 84
9, 121920, Note_on_c, 2, 62, 84
9, 122039, Note_on_c, 2, 66, 0
9, 122039, Note_on_c, 2, 62, 0
9, 123840, Note_on_c, 2, 71, 84
9, 123840, Note_on_c, 2, 74, 84
9, 124019, Note_on_c, 2, 71, 0
9, 124019, Note_on_c, 2, 74, 0
9, 124320, Note_on_c, 2, 76, 84
9, 124320, Note_on_c, 2, 72, 84
9, 124499, Note_on_c, 2, 76, 0
9, 124499, Note_on_c, 2, 72, 0
9, 124800, Note_on_c, 2, 74, 84
9, 124800, Note_on_c, 2, 71, 84
9, 125519, Note_on_c, 2, 74, 0
9, 125519, Note_on_c, 2, 71, 0
9, 128640, Note_on_c, 2, 74, 76
9, 128640, Note_on_c, 2, 71, 76
9, 129359, Note_on_c, 2, 74, 0
9, 129359, Note_on_c, 2, 71, 0
9, 136320, Note_on_c, 2, 72, 84
9, 136320, Note_on_c, 2, 76, 84
9, 136799, Note_on_c, 2, 72, 0
9, 136799, Note_on_c, 2, 76, 0
9, 136800, Note_on_c, 2, 72, 84
9, 136800, Note_on_c, 2, 76, 84
9, 136904, Note_on_c, 2, 72, 0
9, 136904, Note_on_c, 2, 76, 0
9, 136920, Note_on_c, 2, 72, 84
9, 136920, Note_on_c, 2, 76, 84
9, 137024, Note_on_c, 2, 72, 0
9, 137024, Note_on_c, 2, 76, 0
9, 137040, Note_on_c, 2, 76, 84
9, 137040, Note_on_c, 2, 72, 84
9, 137144, Note_on_c, 2, 76, 0
9, 137144, Note_on_c, 2, 72, 0
9, 137160, Note_on_c, 2, 76, 84
9, 137160, Note_on_c, 2, 72, 84
9, 137264, Note_on_c, 2, 76, 0
9, 137264, Note_on_c, 2, 72, 0
9, 137280, Note_on_c, 2, 76, 84
9, 137280, Note_on_c, 2, 72, 84
9, 137384, Note_on_c, 2, 76, 0
9, 137384, Note_on_c, 2, 72, 0
9, 137400, Note_on_c, 2, 76, 84
9, 137400, Note_on_c, 2, 72, 84
9, 137504, Note_on_c, 2, 76, 0
9, 137504, Note_on_c, 2, 72, 0
9, 137520, Note_on_c, 2, 72, 84
9, 137520, Note_on_c, 2, 76, 84
9, 137624, Note_on_c, 2, 72, 0
9, 137624, Note_on_c, 2, 76, 0
9, 137640, Note_on_c, 2, 76, 84
9, 137640, Note_on_c, 2, 72, 84
9, 137744, Note_on_c, 2, 76, 0
9, 137744, Note_on_c, 2, 72, 0
9, 137760, Note_on_c, 2, 72, 84
9, 137760, Note_on_c, 2, 76, 84
9, 137864, Note_on_c, 2, 72, 0
9, 137864, Note_on_c, 2, 76, 0
9, 137880, Note_on_c, 2, 76, 84
9, 137880, Note_on_c, 2, 72, 84
9, 137984, Note_on_c, 2, 76, 0
9, 137984, Note_on_c, 2, 72, 0
9, 138000, Note_on_c, 2, 72, 84
9, 138000, Note_on_c, 2, 76, 84
9, 138104, Note_on_c, 2, 72, 0
9, 138104, Note_on_c, 2, 76, 0
9, 138120, Note_on_c, 2, 76, 84
9, 138120, Note_on_c, 2, 72, 84
9, 138224, Note_on_c, 2, 76, 0
9, 138224, Note_on_c, 2, 72, 0
9, 138240, Note_on_c, 2, 72, 84
9, 138240, Note_on_c, 2, 76, 84
9, 138479, Note_on_c, 2, 72, 0
9, 138479, Note_on_c, 2, 76, 0
9, 142080, Note_on_c, 2, 67, 76
9, 142199, Note_on_c, 2, 67, 0
9, 142200, Note_on_c, 2, 67, 52
9, 142799, Note_on_c, 2, 67, 0
9, 142800, Note_on_c, 2, 66, 52
9, 143039, Note_on_c, 2, 66, 0
9, 143040, Note_on_c, 2, 64, 52
9, 143040, Note_on_c, 2, 61, 52
9, 143279, Note_on_c, 2, 64, 0
9, 143279, Note_on_c, 2, 61, 0
9, 143280, Note_on_c, 2, 62, 52
9, 143504, Note_on_c, 2, 62, 0
9, 143520, Note_on_c, 2, 62, 52
9, 143744, Note_on_c, 2, 62, 0
9, 143760, Note_on_c, 2, 62, 52
9, 143984, Note_on_c, 2, 62, 0
9, 144000, Note_on_c, 2, 67, 76
9, 144119, Note_on_c, 2, 67, 0
9, 144120, Note_on_c, 2, 67, 52
9, 144719, Note_on_c, 2, 67, 0
9, 144720, Note_on_c, 2, 66, 52
9, 144959, Note_on_c, 2, 66, 0
9, 144960, Note_on_c, 2, 61, 52
9, 144960, Note_on_c, 2, 64, 52
9, 145199, Note_on_c, 2, 61, 0
9, 145199, Note_on_c, 2, 64, 0
9, 145200, Note_on_c, 2, 62, 52
9, 145424, Note_on_c, 2, 62, 0
9, 145440, Note_on_c, 2, 62, 52
9, 145664, Note_on_c, 2, 62, 0
9, 145680, Note_on_c, 2, 62, 52
9, 145904, Note_on_c, 2, 62, 0
9, 145920, Note_on_c, 2, 67, 76
9, 145920, Note_on_c, 2, 72, 76
9, 146039, Note_on_c, 2, 67, 0
9, 146039, Note_on_c, 2, 72, 0
9, 146040, Note_on_c, 2, 67, 52
9, 146040, Note_on_c, 2, 72, 52
9, 146399, Note_on_c, 2, 67, 0
9, 146400, Note_on_c, 2, 65, 52
9, 146639, Note_on_c, 2, 72, 0
9, 146640, Note_on_c, 2, 71, 52
9, 146879, Note_on_c, 2, 65, 0
9, 146879, Note_on_c, 2, 71, 0
9, 146880, Note_on_c, 2, 64, 52
9, 146880, Note_on_c, 2, 69, 52
9, 147119, Note_on_c, 2, 64, 0
9, 147119, Note_on_c, 2, 69, 0
9, 147120, Note_on_c, 2, 65, 52
9, 147120, Note_on_c, 2, 68, 52
9, 147344, Note_on_c, 2, 65, 0
9, 147344, Note_on_c, 2, 68, 0
9, 147360, Note_on_c, 2, 68, 52
9, 147360, Note_on_c, 2, 65, 52
9, 147584, Note_on_c, 2, 68, 0
9, 147584, Note_on_c, 2, 65, 0
9, 147600, Note_on_c, 2, 65, 52
9, 147600, Note_on_c, 2, 68, 52
9, 147824, Note_on_c, 2, 65, 0
9, 147824, Note_on_c, 2, 68, 0
9, 147840, Note_on_c, 2, 69, 52
9, 148319, Note_on_c, 2, 69, 0
9, 148320, Note_on_c, 2, 72, 52
9, 148739, Note_on_c, 2, 72, 0
9, 148740, Note_on_c, 2, 69, 52
9, 148799, Note_on_c, 2, 69, 0
9, 148800, Note_on_c, 2, 67, 52
9, 149279, Note_on_c, 2, 67, 0
9, 149280, Note_on_c, 2, 69, 52
9, 149699, Note_on_c, 2, 69, 0
9, 149700, Note_on_c, 2, 66, 52
9, 149751, Note_on_c, 2, 66, 0
9, 149760, Note_on_c, 2, 67, 84
9, 149760, Note_on_c, 2, 74, 84
9, 150464, Note_on_c, 2, 67, 0
9, 150464, Note_on_c, 2, 74, 0
9, 150480, Note_on_c, 2, 66, 84
9, 150480, Note_on_c, 2, 72, 84
9, 150704, Note_on_c, 2, 66, 0
9, 150704, Note_on_c, 2, 72, 0
9, 150720, Note_on_c, 2, 67, 84
9, 150720, Note_on_c, 2, 72, 84
9, 150944, Note_on_c, 2, 67, 0
9, 150944, Note_on_c, 2, 72, 0
9, 150960, Note_on_c, 2, 72, 84
9, 150960, Note_on_c, 2, 69, 84
9, 151184, Note_on_c, 2, 72, 0
9, 151184, Note_on_c, 2, 69, 0
9, 151200, Note_on_c, 2, 72, 84
9, 151200, Note_on_c, 2, 69, 84
9, 151424, Note_on_c, 2, 72, 0
9, 151424, Note_on_c, 2, 69, 0
9, 151440, Note_on_c, 2, 72, 84
9, 151440, Note_on_c, 2, 69, 84
9, 151664, Note_on_c, 2, 72, 0
9, 151664, Note_on_c, 2, 69, 0
9, 151680, Note_on_c, 2, 74, 84
9, 151680, Note_on_c, 2, 67, 84
9, 151800, Control_c, 2, 11, 112
9, 152384, Note_on_c, 2, 74, 0
9, 152384, Note_on_c, 2, 67, 0
9, 152400, Note_on_c, 2, 72, 84
9, 152400, Note_on_c, 2, 66, 84
9, 152624, Note_on_c, 2, 72, 0
9, 152624, Note_on_c, 2, 66, 0
9, 152640, Note_on_c, 2, 67, 84
9, 152640, Note_on_c, 2, 72, 84
9, 152864, Note_on_c, 2, 67, 0
9, 152864, Note_on_c, 2, 72, 0
9, 152880, Note_on_c, 2, 69, 84
9, 152880, Note_on_c, 2, 72, 84
9, 153104, Note_on_c, 2, 69, 0
9, 153104, Note_on_c, 2, 72, 0
9, 153120, Note_on_c, 2, 69, 84
9, 153120, Note_on_c, 2, 72, 84
9, 153344, Note_on_c, 2, 69, 0
9, 153344, Note_on_c, 2, 72, 0
9, 153360, Note_on_c, 2, 69, 84
9, 153360, Note_on_c, 2, 72, 84
9, 153584, Note_on_c, 2, 69, 0
9, 153584, Note_on_c, 2, 72, 0
9, 153598, Control_c, 2, 11, 127
9, 153600, Note_on_c, 2, 69, 84
9, 153600, Note_on_c, 2, 72, 84
9, 153720, Control_c, 2, 11, 112
9, 154304, Note_on_c, 2, 69, 0
9, 154304, Note_on_c, 2, 72, 0
9, 154320, Note_on_c, 2, 71, 84
9, 154320, Note_on_c, 2, 67, 84
9, 154544, Note_on_c, 2, 71, 0
9, 154544, Note_on_c, 2, 67, 0
9, 154558, Control_c, 2, 11, 127
9, 154560, Note_on_c, 2, 69, 80
9, 154560, Note_on_c, 2, 64, 80
9, 154784, Note_on_c, 2, 69, 0
9, 154784, Note_on_c, 2, 64, 0
9, 154800, Note_on_c, 2, 65, 80
9, 154800, Note_on_c, 2, 68, 80
9, 155024, Note_on_c, 2, 65, 0
9, 155024, Note_on_c, 2, 68, 0
9, 155040, Note_on_c, 2, 65, 80
9, 155040, Note_on_c, 2, 68, 80
9, 155264, Note_on_c, 2, 65, 0
9, 155264, Note_on_c, 2, 68, 0
9, 155280, Note_on_c, 2, 65, 80
9, 155280, Note_on_c, 2, 68, 80
9, 155504, Note_on_c, 2, 65, 0
9, 155504, Note_on_c, 2, 68, 0
9, 155520, Note_on_c, 2, 68, 80
9, 155520, Note_on_c, 2, 65, 80
9, 155744, Note_on_c, 2, 68, 0
9, 155744, Note_on_c, 2, 65, 0
9, 155760, Note_on_c, 2, 68, 80
9, 155760, Note_on_c, 2, 65, 80
9, 155984, Note_on_c, 2, 68, 0
9, 155984, Note_on_c, 2, 65, 0
9, 156000, Note_on_c, 2, 65, 80
9, 156000, Note_on_c, 2, 68, 80
9, 156224, Note_on_c, 2, 65, 0
9, 156224, Note_on_c, 2, 68, 0
9, 156240, Note_on_c, 2, 68, 80
9, 156240, Note_on_c, 2, 65, 80
9, 156464, Note_on_c, 2, 68, 0
9, 156464, Note_on_c, 2, 65, 0
9, 156480, Note_on_c, 2, 65, 80
9, 156480, Note_on_c, 2, 68, 80
9, 156704, Note_on_c, 2, 65, 0
9, 156704, Note_on_c, 2, 68, 0
9, 156720, Note_on_c, 2, 65, 80
9, 156720, Note_on_c, 2, 68, 80
9, 156944, Note_on_c, 2, 65, 0
9, 156944, Note_on_c, 2, 68, 0
9, 156960, Note_on_c, 2, 68, 80
9, 156960, Note_on_c, 2, 65, 80
9, 157184, Note_on_c, 2, 68, 0
9, 157184, Note_on_c, 2, 65, 0
9, 157200, Note_on_c, 2, 68, 80
9, 157200, Note_on_c, 2, 65, 80
9, 157424, Note_on_c, 2, 68, 0
9, 157424, Note_on_c, 2, 65, 0
9, 157440, Note_on_c, 2, 77, 84
9, 157440, Note_on_c, 2, 65, 84
9, 159344, Note_on_c, 2, 77, 0
9, 159344, Note_on_c, 2, 65, 0
9, 159360, Note_on_c, 2, 71, 84
9, 159360, Note_on_c, 2, 74, 84
9, 160064, Note_on_c, 2, 71, 0
9, 160064, Note_on_c, 2, 74, 0
9, 160080, Note_on_c, 2, 71, 84
9, 160080, Note_on_c, 2, 74, 84
9, 160184, Note_on_c, 2, 71, 0
9, 160184, Note_on_c, 2, 74, 0
9, 160200, Note_on_c, 2, 74, 84
9, 160200, Note_on_c, 2, 71, 84
9, 160304, Note_on_c, 2, 74, 0
9, 160304, Note_on_c, 2, 71, 0
9, 160320, Note_on_c, 2, 74, 84
9, 160320, Note_on_c, 2, 71, 84
9, 161024, Note_on_c, 2, 74, 0
9, 161024, Note_on_c, 2, 71, 0
9, 161040, Note_on_c, 2, 71, 84
9, 161040, Note_on_c, 2, 74, 84
9, 161144, Note_on_c, 2, 71, 0
9, 161144, Note_on_c, 2, 74, 0
9, 161160, Note_on_c, 2, 74, 84
9, 161160, Note_on_c, 2, 71, 84
9, 161264, Note_on_c, 2, 74, 0
9, 161264, Note_on_c, 2, 71, 0
9, 161280, Note_on_c, 2, 74, 84
9, 161280, Note_on_c, 2, 71, 84
9, 161504, Note_on_c, 2, 74, 0
9, 161504, Note_on_c, 2, 71, 0
9, 161520, Note_on_c, 2, 74, 84
9, 161520, Note_on_c, 2, 71, 84
9, 161624, Note_on_c, 2, 74, 0
9, 161624, Note_on_c, 2, 71, 0
9, 161640, Note_on_c, 2, 71, 84
9, 161640, Note_on_c, 2, 74, 84
9, 161744, Note_on_c, 2, 71, 0
9, 161744, Note_on_c, 2, 74, 0
9, 161760, Note_on_c, 2, 74, 84
9, 161760, Note_on_c, 2, 71, 84
9, 161984, Note_on_c, 2, 74, 0
9, 161984, Note_on_c, 2, 71, 0
9, 162000, Note_on_c, 2, 71, 84
9, 162000, Note_on_c, 2, 74, 84
9, 162104, Note_on_c, 2, 71, 0
9, 162104, Note_on_c, 2, 74, 0
9, 162120, Note_on_c, 2, 74, 84
9, 162120, Note_on_c, 2, 71, 84
9, 162224, Note_on_c, 2, 74, 0
9, 162224, Note_on_c, 2, 71, 0
9, 162240, Note_on_c, 2, 74, 84
9, 162240, Note_on_c, 2, 71, 84
9, 162344, Note_on_c, 2, 74, 0
9, 162344, Note_on_c, 2, 71, 0
9, 162360, Note_on_c, 2, 74, 84
9, 162360, Note_on_c, 2, 71, 84
9, 162464, Note_on_c, 2, 74, 0
9, 162464, Note_on_c, 2, 71, 0
9, 162480, Note_on_c, 2, 71, 84
9, 162480, Note_on_c, 2, 74, 84
9, 163184, Note_on_c, 2, 71, 0
9, 163184, Note_on_c, 2, 74, 0
9, 163200, Note_on_c, 2, 74, 84
9, 163200, Note_on_c, 2, 71, 84
9, 167024, Note_on_c, 2, 74, 0
9, 167024, Note_on_c, 2, 71, 0
9, 167040, Note_on_c, 2, 73, 84
9, 167040, Note_on_c, 2, 69, 84
9, 167279, Note_on_c, 2, 73, 0
9, 167279, Note_on_c, 2, 69, 0
9, 176400, Note_on_c, 2, 67, 52
9, 176639, Note_on_c, 2, 67, 0
9, 176640, Note_on_c, 2, 69, 52
9, 177344, Note_on_c, 2, 69, 0
9, 177360, Note_on_c, 2, 69, 52
9, 177599, Note_on_c, 2, 69, 0
9, 177600, Note_on_c, 2, 70, 52
9, 177839, Note_on_c, 2, 70, 0
9, 177840, Note_on_c, 2, 72, 52
9, 178079, Note_on_c, 2, 72, 0
9, 178080, Note_on_c, 2, 74, 52
9, 178319, Note_on_c, 2, 74, 0
9, 178320, Note_on_c, 2, 71, 52
9, 178559, Note_on_c, 2, 71, 0
9, 178560, Note_on_c, 2, 72, 52
9, 178799, Note_on_c, 2, 72, 0
9, 178800, Note_on_c, 2, 71, 52
9, 179039, Note_on_c, 2, 71, 0
9, 179040, Note_on_c, 2, 72, 52
9, 179279, Note_on_c, 2, 72, 0
9, 179280, Note_on_c, 2, 67, 52
9, 179519, Note_on_c, 2, 67, 0
9, 179520, Note_on_c, 2, 72, 52
9, 179759, Note_on_c, 2, 72, 0
9, 180240, Note_on_c, 2, 69, 52
9, 180479, Note_on_c, 2, 69, 0
9, 180480, Note_on_c, 2, 70, 52
9, 180719, Note_on_c, 2, 70, 0
9, 180720, Note_on_c, 2, 69, 52
9, 180959, Note_on_c, 2, 69, 0
9, 180960, Note_on_c, 2, 70, 52
9, 181199, Note_on_c, 2, 70, 0
9, 181200, Note_on_c, 2, 71, 52
9, 181439, Note_on_c, 2, 71, 0
9, 181440, Note_on_c, 2, 72, 52
9, 181679, Note_on_c, 2, 72, 0
9, 181680, Note_on_c, 2, 68, 52
9, 181919, Note_on_c, 2, 68, 0
9, 181920, Note_on_c, 2, 69, 52
9, 182144, Note_on_c, 2, 69, 0
9, 182158, Control_c, 2, 11, 80
9, 182160, Note_on_c, 2, 76, 76
9, 182160, Control_c, 2, 11, 80
9, 182213, Control_c, 2, 11, 83
9, 182267, Control_c, 2, 11, 85
9, 182320, Control_c, 2, 11, 88
9, 182373, Control_c, 2, 11, 90
9, 182399, Note_on_c, 2, 76, 0
9, 182400, Note_on_c, 2, 77, 76
9, 182427, Control_c, 2, 11, 93
9, 182480, Control_c, 2, 11, 96
9, 182533, Control_c, 2, 11, 98
9, 182587, Control_c, 2, 11, 101
9, 182640, Control_c, 2, 11, 104
9, 182693, Control_c, 2, 11, 106
9, 182747, Control_c, 2, 11, 109
9, 182800, Control_c, 2, 11, 111
9, 182853, Control_c, 2, 11, 114
9, 182907, Control_c, 2, 11, 117
9, 182960, Control_c, 2, 11, 119
9, 183013, Control_c, 2, 11, 122
9, 183067, Control_c, 2, 11, 127
9, 183104, Note_on_c, 2, 77, 0
9, 183120, Note_on_c, 2, 77, 76
9, 183120, Note_on_c, 2, 65, 76
9, 185984, Note_on_c, 2, 77, 0
9, 185984, Note_on_c, 2, 65, 0
9, 186000, Note_on_c, 2, 65, 76
9, 186000, Note_on_c, 2, 77, 76
9, 188879, Note_on_c, 2, 65, 0
9, 188879, Note_on_c, 2, 77, 0
9, 190080, Note_on_c, 2, 75, 76
9, 190080, Note_on_c, 2, 68, 76
9, 191759, Note_on_c, 2, 75, 0
9, 191759, Note_on_c, 2, 68, 0
9, 192960, Note_on_c, 2, 77, 76
9, 192960, Note_on_c, 2, 68, 76
9, 194639, Note_on_c, 2, 77, 0
9, 194639, Note_on_c, 2, 68, 0
9, 198480, Note_on_c, 2, 64, 80
9, 198480, Note_on_c, 2, 67, 80
9, 198547, Note_on_c, 2, 64, 0
9, 198547, Note_on_c, 2, 67, 0
9, 198560, Note_on_c, 2, 67, 80
9, 198560, Note_on_c, 2, 64, 80
9, 198627, Note_on_c, 2, 67, 0
9, 198627, Note_on_c, 2, 64, 0
9, 198640, Note_on_c, 2, 64, 80
9, 198640, Note_on_c, 2, 67, 80
9, 198707, Note_on_c, 2, 64, 0
9, 198707, Note_on_c, 2, 67, 0
9, 198720, Note_on_c, 2, 68, 80
9, 198720, Note_on_c, 2, 65, 80
9, 198959, Note_on_c, 2, 68, 0
9, 198959, Note_on_c, 2, 65, 0
9, 199440, Note_on_c, 2, 68, 80
9, 199440, Note_on_c, 2, 65, 80
9, 199507, Note_on_c, 2, 68, 0
9, 199507, Note_on_c, 2, 65, 0
9, 199520, Note_on_c, 2, 68, 80
9, 199520, Note_on_c, 2, 65, 80
9, 199587, Note_on_c, 2, 68, 0
9, 199587, Note_on_c, 2, 65, 0
9, 199600, Note_on_c, 2, 65, 80
9, 199600, Note_on_c, 2, 68, 80
9, 199667, Note_on_c, 2, 65, 0
9, 199667, Note_on_c, 2, 68, 0
9, 199680, Note_on_c, 2, 67, 80
9, 199680, Note_on_c, 2, 70, 80
9, 199919, Note_on_c, 2, 67, 0
9, 199919, Note_on_c, 2, 70, 0
9, 200400, Note_on_c, 2, 70, 80
9, 200400, Note_on_c, 2, 67, 80
9, 200467, Note_on_c, 2, 70, 0
9, 200467, Note_on_c, 2, 67, 0
9, 200480, Note_on_c, 2, 67, 80
9, 200480, Note_on_c, 2, 70, 80
9, 200547, Note_on_c, 2, 67, 0
9, 200547, Note_on_c, 2, 70, 0
9, 200560, Note_on_c, 2, 70, 80
9, 200560, Note_on_c, 2, 67, 80
9, 200627, Note_on_c, 2, 70, 0
9, 200627, Note_on_c, 2, 67, 0
9, 200640, Note_on_c, 2, 68, 80
9, 200640, Note_on_c, 2, 72, 80
9, 200879, Note_on_c, 2, 68, 0
9, 200879, Note_on_c, 2, 72, 0
9, 201360, Note_on_c, 2, 60, 80
9, 201427, Note_on_c, 2, 60, 0
9, 201440, Note_on_c, 2, 60, 80
9, 201507, Note_on_c, 2, 60, 0
9, 201520, Note_on_c, 2, 60, 80
9, 201587, Note_on_c, 2, 60, 0
9, 201600, Note_on_c, 2, 62, 80
9, 201600, Note_on_c, 2, 59, 80
9, 201839, Note_on_c, 2, 62, 0
9, 201839, Note_on_c, 2, 59, 0
9, 202320, Note_on_c, 2, 59, 80
9, 202320, Note_on_c, 2, 62, 80
9, 202387, Note_on_c, 2, 59, 0
9, 202387, Note_on_c, 2, 62, 0
9, 202400, Note_on_c, 2, 59, 80
9, 202400, Note_on_c, 2, 62, 80
9, 202467, Note_on_c, 2, 59, 0
9, 202467, Note_on_c, 2, 62, 0
9, 202480, Note_on_c, 2, 59, 80
9, 202480, Note_on_c, 2, 62, 80
9, 202547, Note_on_c, 2, 59, 0
9, 202547, Note_on_c, 2, 62, 0
9, 202560, Note_on_c, 2, 63, 80
9, 202560, Note_on_c, 2, 60, 80
9, 202799, Note_on_c, 2, 63, 0
9, 202799, Note_on_c, 2, 60, 0
9, 203280, Note_on_c, 2, 60, 80
9, 203280, Note_on_c, 2, 63, 80
9, 203347, Note_on_c, 2, 60, 0
9, 203347, Note_on_c, 2, 63, 0
9, 203360, Note_on_c, 2, 60, 80
9, 203360, Note_on_c, 2, 63, 80
9, 203427, Note_on_c, 2, 60, 0
9, 203427, Note_on_c, 2, 63, 0
9, 203440, Note_on_c, 2, 60, 80
9, 203440, Note_on_c, 2, 63, 80
9, 203507, Note_on_c, 2, 60, 0
9, 203507, Note_on_c, 2, 63, 0
9, 203520, Note_on_c, 2, 62, 80
9, 203520, Note_on_c, 2, 65, 80
9, 203759, Note_on_c, 2, 62, 0
9, 203759, Note_on_c, 2, 65, 0
9, 204240, Note_on_c, 2, 65, 80
9, 204240, Note_on_c, 2, 62, 80
9, 204307, Note_on_c, 2, 65, 0
9, 204307, Note_on_c, 2, 62, 0
9, 204320, Note_on_c, 2, 65, 80
9, 204320, Note_on_c, 2, 62, 80
9, 204387, Note_on_c, 2, 65, 0
9, 204387, Note_on_c, 2, 62, 0
9, 204400, Note_on_c, 2, 62, 80
9, 204400, Note_on_c, 2, 65, 80
9, 204467, Note_on_c, 2, 62, 0
9, 204467, Note_on_c, 2, 65, 0
9, 204480, Note_on_c, 2, 67, 80
9, 204480, Note_on_c, 2, 63, 80
9, 204719, Note_on_c, 2, 67, 0
9, 204719, Note_on_c, 2, 63, 0
9, 205200, Note_on_c, 2, 67, 80
9, 205200, Note_on_c, 2, 63, 80
9, 205267, Note_on_c, 2, 67, 0
9, 205267, Note_on_c, 2, 63, 0
9, 205280, Note_on_c, 2, 67, 80
9, 205280, Note_on_c, 2, 63, 80
9, 205347, Note_on_c, 2, 67, 0
9, 205347, Note_on_c, 2, 63, 0
9, 205360, Note_on_c, 2, 63, 80
9, 205360, Note_on_c, 2, 67, 80
9, 205439, Note_on_c, 2, 63, 0
9, 205439, Note_on_c, 2, 67, 0
9, 205680, Note_on_c, 2, 72, 80
9, 205680, Note_on_c, 2, 69, 80
9, 205747, Note_on_c, 2, 72, 0
9, 205747, Note_on_c, 2, 69, 0
9, 205760, Note_on_c, 2, 69, 80
9, 205760, Note_on_c, 2, 72, 80
9, 205827, Note_on_c, 2, 69, 0
9, 205827, Note_on_c, 2, 72, 0
9, 205840, Note_on_c, 2, 72, 80
9, 205840, Note_on_c, 2, 69, 80
9, 205919, Note_on_c, 2, 72, 0
9, 205919, Note_on_c, 2, 69, 0
9, 206160, Note_on_c, 2, 69, 80
9, 206160, Note_on_c, 2, 72, 80
9, 206227, Note_on_c, 2, 69, 0
9, 206227, Note_on_c, 2, 72, 0
9, 206240, Note_on_c, 2, 72, 80
9, 206240, Note_on_c, 2, 69, 80
9, 206307, Note_on_c, 2, 72, 0
9, 206307, Note_on_c, 2, 69, 0
9, 206320, Note_on_c, 2, 69, 80
9, 206320, Note_on_c, 2, 72, 80
9, 206399, Note_on_c, 2, 69, 0
9, 206399, Note_on_c, 2, 72, 0
9, 206640, Note_on_c, 2, 72, 80
9, 206640, Note_on_c, 2, 69, 80
9, 206707, Note_on_c, 2, 72, 0
9, 206707, Note_on_c, 2, 69, 0
9, 206720, Note_on_c, 2, 72, 80
9, 206720, Note_on_c, 2, 69, 80
9, 206787, Note_on_c, 2, 72, 0
9, 206787, Note_on_c, 2, 69, 0
9, 206800, Note_on_c, 2, 72, 80
9, 206800, Note_on_c, 2, 69, 80
9, 206879, Note_on_c, 2, 72, 0
9, 206879, Note_on_c, 2, 69, 0
9, 207120, Note_on_c, 2, 69, 80
9, 207120, Note_on_c, 2, 72, 80
9, 207187, Note_on_c, 2, 69, 0
9, 207187, Note_on_c, 2, 72, 0
9, 207200, Note_on_c, 2, 72, 80
9, 207200, Note_on_c, 2, 69, 80
9, 207267, Note_on_c, 2, 72, 0
9, 207267, Note_on_c, 2, 69, 0
9, 207280, Note_on_c, 2, 72, 80
9, 207280, Note_on_c, 2, 69, 80
9, 207347, Note_on_c, 2, 72, 0
9, 207347, Note_on_c, 2, 69, 0
9, 207360, Note_on_c, 2, 67, 84
9, 208064, Note_on_c, 2, 67, 0
9, 208080, Note_on_c, 2, 72, 84
9, 208304, Note_on_c, 2, 72, 0
9, 208320, Note_on_c, 2, 71, 84
9, 208784, Note_on_c, 2, 71, 0
9, 208800, Note_on_c, 2, 72, 84
9, 209264, Note_on_c, 2, 72, 0
9, 209280, Note_on_c, 2, 74, 84
9, 209984, Note_on_c, 2, 74, 0
9, 210000, Note_on_c, 2, 59, 84
9, 210000, Note_on_c, 2, 62, 84
9, 210224, Note_on_c, 2, 59, 0
9, 210224, Note_on_c, 2, 62, 0
9, 210240, Note_on_c, 2, 57, 84
9, 210240, Note_on_c, 2, 60, 84
9, 210704, Note_on_c, 2, 57, 0
9, 210704, Note_on_c, 2, 60, 0
9, 210720, Note_on_c, 2, 59, 84
9, 210720, Note_on_c, 2, 62, 84
9, 211184, Note_on_c, 2, 59, 0
9, 211184, Note_on_c, 2, 62, 0
9, 211200, Note_on_c, 2, 60, 84
9, 211200, Note_on_c, 2, 64, 84
9, 211904, Note_on_c, 2, 60, 0
9, 211904, Note_on_c, 2, 64, 0
9, 211920, Note_on_c, 2, 64, 84
9, 211920, Note_on_c, 2, 60, 84
9, 212144, Note_on_c, 2, 64, 0
9, 212144, Note_on_c, 2, 60, 0
9, 212160, Note_on_c, 2, 62, 84
9, 212160, Note_on_c, 2, 59, 84
9, 212624, Note_on_c, 2, 62, 0
9, 212624, Note_on_c, 2, 59, 0
9, 212640, Note_on_c, 2, 60, 84
9, 212640, Note_on_c, 2, 64, 84
9, 213104, Note_on_c, 2, 60, 0
9, 213104, Note_on_c, 2, 64, 0
9, 213120, Note_on_c, 2, 62, 84
9, 213120, Note_on_c, 2, 65, 84
9, 213824, Note_on_c, 2, 62, 0
9, 213824, Note_on_c, 2, 65, 0
9, 213840, Note_on_c, 2, 62, 84
9, 213840, Note_on_c, 2, 65, 84
9, 214064, Note_on_c, 2, 62, 0
9, 214064, Note_on_c, 2, 65, 0
9, 214080, Note_on_c, 2, 60, 84
9, 214080, Note_on_c, 2, 64, 84
9, 214544, Note_on_c, 2, 60, 0
9, 214544, Note_on_c, 2, 64, 0
9, 214560, Note_on_c, 2, 62, 84
9, 214560, Note_on_c, 2, 65, 84
9, 215024, Note_on_c, 2, 62, 0
9, 215024, Note_on_c, 2, 65, 0
9, 215040, Note_on_c, 2, 67, 92
9, 215040, Note_on_c, 2, 64, 92
9, 215160, Control_c, 2, 11, 112
9, 215984, Note_on_c, 2, 67, 0
9, 215984, Note_on_c, 2, 64, 0
9, 215998, Control_c, 2, 11, 127
9, 216000, Note_on_c, 2, 68, 92
9, 216000, Note_on_c, 2, 65, 92
9, 216120, Control_c, 2, 11, 112
9, 216944, Note_on_c, 2, 68, 0
9, 216944, Note_on_c, 2, 65, 0
9, 216958, Control_c, 2, 11, 127
9, 216960, Note_on_c, 2, 69, 84
9, 216960, Note_on_c, 2, 66, 84
9, 218864, Note_on_c, 2, 69, 0
9, 218864, Note_on_c, 2, 66, 0
9, 218880, Note_on_c, 2, 71, 84
9, 218880, Note_on_c, 2, 67, 84
9, 219824, Note_on_c, 2, 71, 0
9, 219824, Note_on_c, 2, 67, 0
9, 219840, Note_on_c, 2, 67, 84
9, 219840, Note_on_c, 2, 71, 84
9, 220784, Note_on_c, 2, 67, 0
9, 220784, Note_on_c, 2, 71, 0
9, 220800, Note_on_c, 2, 67, 84
9, 220800, Note_on_c, 2, 71, 84
9, 221024, Note_on_c, 2, 67, 0
9, 221024, Note_on_c, 2, 71, 0
9, 221040, Note_on_c, 2, 67, 84
9, 221040, Note_on_c, 2, 71, 84
9, 221144, Note_on_c, 2, 67, 0
9, 221144, Note_on_c, 2, 71, 0
9, 221160, Note_on_c, 2, 71, 84
9, 221160, Note_on_c, 2, 67, 84
9, 221264, Note_on_c, 2, 71, 0
9, 221264, Note_on_c, 2, 67, 0
9, 221280, Note_on_c, 2, 67, 84
9, 221280, Note_on_c, 2, 71, 84
9, 221504, Note_on_c, 2, 67, 0
9, 221504, Note_on_c, 2, 71, 0
9, 221520, Note_on_c, 2, 71, 84
9, 221520, Note_on_c, 2, 67, 84
9, 221624, Note_on_c, 2, 71, 0
9, 221624, Note_on_c, 2, 67, 0
9, 221640, Note_on_c, 2, 67, 84
9, 221640, Note_on_c, 2, 71, 84
9, 221744, Note_on_c, 2, 67, 0
9, 221744, Note_on_c, 2, 71, 0
9, 221760, Note_on_c, 2, 71, 84
9, 221760, Note_on_c, 2, 67, 84
9, 221984, Note_on_c, 2, 71, 0
9, 221984, Note_on_c, 2, 67, 0
9, 222000, Note_on_c, 2, 67, 84
9, 222000, Note_on_c, 2, 71, 84
9, 222104, Note_on_c, 2, 67, 0
9, 222104, Note_on_c, 2, 71, 0
9, 222120, Note_on_c, 2, 67, 84
9, 222120, Note_on_c, 2, 71, 84
9, 222224, Note_on_c, 2, 67, 0
9, 222224, Note_on_c, 2, 71, 0
9, 222240, Note_on_c, 2, 67, 84
9, 222240, Note_on_c, 2, 71, 84
9, 222464, Note_on_c, 2, 67, 0
9, 222464, Note_on_c, 2, 71, 0
9, 222480, Note_on_c, 2, 67, 84
9, 222480, Note_on_c, 2, 71, 84
9, 222584, Note_on_c, 2, 67, 0
9, 222584, Note_on_c, 2, 71, 0
9, 222600, Note_on_c, 2, 71, 84
9, 222600, Note_on_c, 2, 67, 84
9, 222704, Note_on_c, 2, 71, 0
9, 222704, Note_on_c, 2, 67, 0
9, 222720, Note_on_c, 2, 67, 84
9, 222720, Note_on_c, 2, 71, 84
9, 222944, Note_on_c, 2, 67, 0
9, 222944, Note_on_c, 2, 71, 0
9, 222960, Note_on_c, 2, 67, 84
9, 222960, Note_on_c, 2, 71, 84
9, 223064, Note_on_c, 2, 67, 0
9, 223064, Note_on_c, 2, 71, 0
9, 223080, Note_on_c, 2, 71, 84
9, 223080, Note_on_c, 2, 67, 84
9, 223184, Note_on_c, 2, 71, 0
9, 223184, Note_on_c, 2, 67, 0
9, 223200, Note_on_c, 2, 67, 84
9, 223200, Note_on_c, 2, 71, 84
9, 223424, Note_on_c, 2, 67, 0
9, 223424, Note_on_c, 2, 71, 0
9, 223440, Note_on_c, 2, 71, 84
9, 223440, Note_on_c, 2, 67, 84
9, 223544, Note_on_c, 2, 71, 0
9, 223544, Note_on_c, 2, 67, 0
9, 223560, Note_on_c, 2, 71, 84
9, 223560, Note_on_c, 2, 67, 84
9, 223664, Note_on_c, 2, 71, 0
9, 223664, Note_on_c, 2, 67, 0
9, 223680, Note_on_c, 2, 71, 84
9, 223680, Note_on_c, 2, 67, 84
9, 223904, Note_on_c, 2, 71, 0
9, 223904, Note_on_c, 2, 67, 0
9, 223920, Note_on_c, 2, 67, 84
9, 223920, Note_on_c, 2, 71, 84
9, 224024, Note_on_c, 2, 67, 0
9, 224024, Note_on_c, 2, 71, 0
9, 224040, Note_on_c, 2, 67, 84
9, 224040, Note_on_c, 2, 71, 84
9, 224144, Note_on_c, 2, 67, 0
9, 224144, Note_on_c, 2, 71, 0
9, 224160, Note_on_c, 2, 67, 84
9, 224160, Note_on_c, 2, 71, 84
9, 224384, Note_on_c, 2, 67, 0
9, 224384, Note_on_c, 2, 71, 0
9, 224400, Note_on_c, 2, 67, 84
9, 224400, Note_on_c, 2, 71, 84
9, 224504, Note_on_c, 2, 67, 0
9, 224504, Note_on_c, 2, 71, 0
9, 224520, Note_on_c, 2, 71, 84
9, 224520, Note_on_c, 2, 67, 84
9, 224624, Note_on_c, 2, 71, 0
9, 224624, Note_on_c, 2, 67, 0
9, 224640, Note_on_c, 2, 71, 84
9, 224640, Note_on_c, 2, 67, 84
9, 227504, Note_on_c, 2, 71, 0
9, 227504, Note_on_c, 2, 67, 0
9, 227520, Note_on_c, 2, 67, 84
9, 227520, Note_on_c, 2, 71, 84
9, 227759, Note_on_c, 2, 67, 0
9, 227759, Note_on_c, 2, 71, 0
9, 235440, Note_on_c, 2, 65, 52
9, 235440, Note_on_c, 2, 67, 52
9, 235659, Note_on_c, 2, 65, 0
9, 235659, Note_on_c, 2, 67, 0
9, 235680, Note_on_c, 2, 65, 52
9, 235680, Note_on_c, 2, 67, 52
9, 235899, Note_on_c, 2, 65, 0
9, 235899, Note_on_c, 2, 67, 0
9, 235920, Note_on_c, 2, 65, 52
9, 235920, Note_on_c, 2, 67, 52
9, 236139, Note_on_c, 2, 65, 0
9, 236139, Note_on_c, 2, 67, 0
9, 236160, Note_on_c, 2, 63, 52
9, 236160, Note_on_c, 2, 67, 52
9, 236859, Note_on_c, 2, 63, 0
9, 236859, Note_on_c, 2, 67, 0
9, 236880, Note_on_c, 2, 70, 52
9, 236880, Note_on_c, 2, 67, 52
9, 237119, Note_on_c, 2, 70, 0
9, 237119, Note_on_c, 2, 67, 0
9, 237120, Note_on_c, 2, 65, 52
9, 237120, Note_on_c, 2, 68, 52
9, 237339, Note_on_c, 2, 65, 0
9, 237339, Note_on_c, 2, 68, 0
9, 237360, Note_on_c, 2, 63, 52
9, 237360, Note_on_c, 2, 67, 52
9, 237539, Note_on_c, 2, 63, 0
9, 237539, Note_on_c, 2, 67, 0
9, 237600, Note_on_c, 2, 65, 52
9, 237600, Note_on_c, 2, 62, 52
9, 237839, Note_on_c, 2, 65, 0
9, 237839, Note_on_c, 2, 62, 0
9, 244080, Note_on_c, 2, 62, 52
9, 244080, Note_on_c, 2, 65, 52
9, 244299, Note_on_c, 2, 62, 0
9, 244299, Note_on_c, 2, 65, 0
9, 244320, Note_on_c, 2, 65, 52
9, 244320, Note_on_c, 2, 62, 52
9, 244539, Note_on_c, 2, 65, 0
9, 244539, Note_on_c, 2, 62, 0
9, 244560, Note_on_c, 2, 62, 52
9, 244560, Note_on_c, 2, 65, 52
9, 244779, Note_on_c, 2, 62, 0
9, 244779, Note_on_c, 2, 65, 0
9, 244800, Note_on_c, 2, 63, 52
9, 244800, Note_on_c, 2, 60, 52
9, 245039, Note_on_c, 2, 63, 0
9, 245039, Note_on_c, 2, 60, 0
9, 245520, Note_on_c, 2, 63, 52
9, 245520, Note_on_c, 2, 60, 52
9, 245739, Note_on_c, 2, 63, 0
9, 245739, Note_on_c, 2, 60, 0
9, 245760, Note_on_c, 2, 60, 52
9, 245760, Note_on_c, 2, 63, 52
9, 245979, Note_on_c, 2, 60, 0
9, 245979, Note_on_c, 2, 63, 0
9, 246000, Note_on_c, 2, 63, 52
9, 246000, Note_on_c, 2, 60, 52
9, 246219, Note_on_c, 2, 63, 0
9, 246219, Note_on_c, 2, 60, 0
9, 246240, Note_on_c, 2, 62, 52
9, 246240, Note_on_c, 2, 59, 52
9, 246479, Note_on_c, 2, 62, 0
9, 246479, Note_on_c, 2, 59, 0
9, 246960, Note_on_c, 2, 65, 52
9, 246960, Note_on_c, 2, 62, 52
9, 247179, Note_on_c, 2, 65, 0
9, 247179, Note_on_c, 2, 62, 0
9, 247200, Note_on_c, 2, 62, 52
9, 247200, Note_on_c, 2, 65, 52
9, 247419, Note_on_c, 2, 62, 0
9, 247419, Note_on_c, 2, 65, 0
9, 247440, Note_on_c, 2, 62, 52
9, 247440, Note_on_c, 2, 65, 52
9, 247659, Note_on_c, 2, 62, 0
9, 247659, Note_on_c, 2, 65, 0
9, 247680, Note_on_c, 2, 63, 52
9, 247680, Note_on_c, 2, 60, 52
9, 247919, Note_on_c, 2, 63, 0
9, 247919, Note_on_c, 2, 60, 0
9, 248400, Note_on_c, 2, 63, 52
9, 248400, Note_on_c, 2, 60, 52
9, 248619, Note_on_c, 2, 63, 0
9, 248619, Note_on_c, 2, 60, 0
9, 248640, Note_on_c, 2, 63, 52
9, 248640, Note_on_c, 2, 60, 52
9, 248859, Note_on_c, 2, 63, 0
9, 248859, Note_on_c, 2, 60, 0
9, 248880, Note_on_c, 2, 63, 52
9, 248880, Note_on_c, 2, 60, 52
9, 249099, Note_on_c, 2, 63, 0
9, 249099, Note_on_c, 2, 60, 0
9, 249120, Note_on_c, 2, 62, 52
9, 249120, Note_on_c, 2, 59, 52
9, 249359, Note_on_c, 2, 62, 0
9, 249359, Note_on_c, 2, 59, 0
9, 249840, Note_on_c, 2, 59, 52
9, 249840, Note_on_c, 2, 62, 52
9, 250059, Note_on_c, 2, 59, 0
9, 250059, Note_on_c, 2, 62, 0
9, 250080, Note_on_c, 2, 62, 52
9, 250080, Note_on_c, 2, 59, 52
9, 250299, Note_on_c, 2, 62, 0
9, 250299, Note_on_c, 2, 59, 0
9, 250320, Note_on_c, 2, 59, 52
9, 250320, Note_on_c, 2, 62, 52
9, 250539, Note_on_c, 2, 59, 0
9, 250539, Note_on_c, 2, 62, 0
9, 250560, Note_on_c, 2, 62, 52
9, 250560, Note_on_c, 2, 59, 52
9, 250799, Note_on_c, 2, 62, 0
9, 250799, Note_on_c, 2, 59, 0
9, 251280, Note_on_c, 2, 59, 52
9, 251280, Note_on_c, 2, 62, 52
9, 251499, Note_on_c, 2, 59, 0
9, 251499, Note_on_c, 2, 62, 0
9, 251520, Note_on_c, 2, 62, 52
9, 251520, Note_on_c, 2, 59, 52
9, 251739, Note_on_c, 2, 62, 0
9, 251739, Note_on_c, 2, 59, 0
9, 251760, Note_on_c, 2, 62, 52
9, 251760, Note_on_c, 2, 59, 52
9, 251979, Note_on_c, 2, 62, 0
9, 251979, Note_on_c, 2, 59, 0
9, 252000, Note_on_c, 2, 62, 52
9, 252000, Note_on_c, 2, 59, 52
9, 252239, Note_on_c, 2, 62, 0
9, 252239, Note_on_c, 2, 59, 0
9, 252720, Note_on_c, 2, 62, 52
9, 252720, Note_on_c, 2, 59, 52
9, 252939, Note_on_c, 2, 62, 0
9, 252939, Note_on_c, 2, 59, 0
9, 252960, Note_on_c, 2, 59, 52
9, 252960, Note_on_c, 2, 62, 52
9, 253179, Note_on_c, 2, 59, 0
9, 253179, Note_on_c, 2, 62, 0
9, 253200, Note_on_c, 2, 59, 52
9, 253200, Note_on_c, 2, 62, 52
9, 253419, Note_on_c, 2, 59, 0
9, 253419, Note_on_c, 2, 62, 0
9, 253440, Note_on_c, 2, 62, 52
9, 253440, Note_on_c, 2, 59, 52
9, 253679, Note_on_c, 2, 62, 0
9, 253679, Note_on_c, 2, 59, 0
9, 254160, Note_on_c, 2, 62, 52
9, 254160, Note_on_c, 2, 59, 52
9, 254379, Note_on_c, 2, 62, 0
9, 254379, Note_on_c, 2, 59, 0
9, 254400, Note_on_c, 2, 59, 52
9, 254400, Note_on_c, 2, 62, 52
9, 254619, Note_on_c, 2, 59, 0
9, 254619, Note_on_c, 2, 62, 0
9, 254640, Note_on_c, 2, 59, 52
9, 254640, Note_on_c, 2, 62, 52
9, 254859, Note_on_c, 2, 59, 0
9, 254859, Note_on_c, 2, 62, 0
9, 254880, Note_on_c, 2, 62, 52
9, 254880, Note_on_c, 2, 59, 52
9, 255119, Note_on_c, 2, 62, 0
9, 255119, Note_on_c, 2, 59, 0
9, 255600, Note_on_c, 2, 59, 52
9, 255600, Note_on_c, 2, 62, 52
9, 255819, Note_on_c, 2, 59, 0
9, 255819, Note_on_c, 2, 62, 0
9, 255840, Note_on_c, 2, 59, 52
9, 255840, Note_on_c, 2, 62, 52
9, 256059, Note_on_c, 2, 59, 0
9, 256059, Note_on_c, 2, 62, 0
9, 256080, Note_on_c, 2, 59, 52
9, 256080, Note_on_c, 2, 62, 52
9, 256299, Note_on_c, 2, 59, 0
9, 256299, Note_on_c, 2, 62, 0
9, 256320, Note_on_c, 2, 59, 52
9, 256320, Note_on_c, 2, 62, 52
9, 256559, Note_on_c, 2, 59, 0
9, 256559, Note_on_c, 2, 62, 0
9, 257040, Note_on_c, 2, 62, 52
9, 257040, Note_on_c, 2, 59, 52
9, 257259, Note_on_c, 2, 62, 0
9, 257259, Note_on_c, 2, 59, 0
9, 257280, Note_on_c, 2, 59, 52
9, 257280, Note_on_c, 2, 62, 52
9, 257499, Note_on_c, 2, 59, 0
9, 257499, Note_on_c, 2, 62, 0
9, 257520, Note_on_c, 2, 62, 52
9, 257520, Note_on_c, 2, 59, 52
9, 257739, Note_on_c, 2, 62, 0
9, 257739, Note_on_c, 2, 59, 0
9, 257760, Note_on_c, 2, 59, 52
9, 257760, Note_on_c, 2, 62, 52
9, 257999, Note_on_c, 2, 59, 0
9, 257999, Note_on_c, 2, 62, 0
9, 258480, Note_on_c, 2, 62, 52
9, 258480, Note_on_c, 2, 59, 52
9, 258699, Note_on_c, 2, 62, 0
9, 258699, Note_on_c, 2, 59, 0
9, 258720, Note_on_c, 2, 62, 52
9, 258720, Note_on_c, 2, 59, 52
9, 258939, Note_on_c, 2, 62, 0
9, 258939, Note_on_c, 2, 59, 0
9, 258960, Note_on_c, 2, 59, 52
9, 258960, Note_on_c, 2, 62, 52
9, 259179, Note_on_c, 2, 59, 0
9, 259179, Note_on_c, 2, 62, 0
9, 259200, Note_on_c, 2, 62, 52
9, 259200, Note_on_c, 2, 59, 52
9, 259439, Note_on_c, 2, 62, 0
9, 259439, Note_on_c, 2, 59, 0
9, 259920, Note_on_c, 2, 59, 52
9, 259920, Note_on_c, 2, 62, 52
9, 260139, Note_on_c, 2, 59, 0
9, 260139, Note_on_c, 2, 62, 0
9, 260160, Note_on_c, 2, 59, 52
9, 260160, Note_on_c, 2, 62, 52
9, 260379, Note_on_c, 2, 59, 0
9, 260379, Note_on_c, 2, 62, 0
9, 260400, Note_on_c, 2, 62, 52
9, 260400, Note_on_c, 2, 59, 52
9, 260619, Note_on_c, 2, 62, 0
9, 260619, Note_on_c, 2, 59, 0
9, 260640, Note_on_c, 2, 59, 52
9, 260640, Note_on_c, 2, 62, 52
9, 260859, Note_on_c, 2, 59, 0
9, 260859, Note_on_c, 2, 62, 0
9, 260880, Note_on_c, 2, 62, 52
9, 260880, Note_on_c, 2, 59, 52
9, 261099, Note_on_c, 2, 62, 0
9, 261099, Note_on_c, 2, 59, 0
9, 261120, Note_on_c, 2, 59, 52
9, 261120, Note_on_c, 2, 62, 52
9, 261339, Note_on_c, 2, 59, 0
9, 261339, Note_on_c, 2, 62, 0
9, 261360, Note_on_c, 2, 59, 52
9, 261360, Note_on_c, 2, 62, 52
9, 261579, Note_on_c, 2, 59, 0
9, 261579, Note_on_c, 2, 62, 0
9, 261600, Note_on_c, 2, 62, 52
9, 261600, Note_on_c, 2, 59, 52
9, 261819, Note_on_c, 2, 62, 0
9, 261819, Note_on_c, 2, 59, 0
9, 261840, Note_on_c, 2, 59, 52
9, 261840, Note_on_c, 2, 62, 52
9, 262059, Note_on_c, 2, 59, 0
9, 262059, Note_on_c, 2, 62, 0
9, 262080, Note_on_c, 2, 62, 52
9, 262080, Note_on_c, 2, 59, 52
9, 262299, Note_on_c, 2, 62, 0
9, 262299, Note_on_c, 2, 59, 0
9, 262320, Note_on_c, 2, 59, 52
9, 262320, Note_on_c, 2, 62, 52
9, 262539, Note_on_c, 2, 59, 0
9, 262539, Note_on_c, 2, 62, 0
9, 262560, Note_on_c, 2, 62, 52
9, 262560, Note_on_c, 2, 59, 52
9, 262779, Note_on_c, 2, 62, 0
9, 262779, Note_on_c, 2, 59, 0
9, 262800, Note_on_c, 2, 62, 52
9, 262800, Note_on_c, 2, 59, 52
9, 263019, Note_on_c, 2, 62, 0
9, 263019, Note_on_c, 2, 59, 0
9, 263040, Note_on_c, 2, 59, 52
9, 263040, Note_on_c, 2, 62, 52
9, 263259, Note_on_c, 2, 59, 0
9, 263259, Note_on_c, 2, 62, 0
9, 263280, Note_on_c, 2, 59, 52
9, 263280, Note_on_c, 2, 62, 52
9, 263499, Note_on_c, 2, 59, 0
9, 263499, Note_on_c, 2, 62, 0
9, 263520, Note_on_c, 2, 62, 52
9, 263520, Note_on_c, 2, 59, 52
9, 263739, Note_on_c, 2, 62, 0
9, 263739, Note_on_c, 2, 59, 0
9, 263760, Note_on_c, 2, 59, 52
9, 263760, Note_on_c, 2, 62, 52
9, 263979, Note_on_c, 2, 59, 0
9, 263979, Note_on_c, 2, 62, 0
9, 264000, Note_on_c, 2, 59, 52
9, 264000, Note_on_c, 2, 62, 52
9, 264219, Note_on_c, 2, 59, 0
9, 264219, Note_on_c, 2, 62, 0
9, 264240, Note_on_c, 2, 59, 52
9, 264240, Note_on_c, 2, 62, 52
9, 264459, Note_on_c, 2, 59, 0
9, 264459, Note_on_c, 2, 62, 0
9, 264480, Note_on_c, 2, 59, 52
9, 264480, Note_on_c, 2, 62, 52
9, 264699, Note_on_c, 2, 59, 0
9, 264699, Note_on_c, 2, 62, 0
9, 264720, Note_on_c, 2, 59, 52
9, 264720, Note_on_c, 2, 62, 52
9, 264939, Note_on_c, 2, 59, 0
9, 264939, Note_on_c, 2, 62, 0
9, 264960, Note_on_c, 2, 59, 52
9, 264960, Note_on_c, 2, 62, 52
9, 265179, Note_on_c, 2, 59, 0
9, 265179, Note_on_c, 2, 62, 0
9, 265200, Note_on_c, 2, 59, 57
9, 265200, Note_on_c, 2, 62, 57
9, 265419, Note_on_c, 2, 59, 0
9, 265419, Note_on_c, 2, 62, 0
9, 265440, Note_on_c, 2, 62, 62
9, 265440, Note_on_c, 2, 59, 62
9, 265659, Note_on_c, 2, 62, 0
9, 265659, Note_on_c, 2, 59, 0
9, 265680, Note_on_c, 2, 59, 68
9, 265680, Note_on_c, 2, 62, 68
9, 265899, Note_on_c, 2, 59, 0
9, 265899, Note_on_c, 2, 62, 0
9, 265920, Note_on_c, 2, 62, 73
9, 265920, Note_on_c, 2, 59, 73
9, 266139, Note_on_c, 2, 62, 0
9, 266139, Note_on_c, 2, 59, 0
9, 266160, Note_on_c, 2, 59, 78
9, 266160, Note_on_c, 2, 62, 78
9, 266379, Note_on_c, 2, 59, 0
9, 266379, Note_on_c, 2, 62, 0
9, 266400, Note_on_c, 2, 60, 84
9, 266400, Note_on_c, 2, 64, 84
9, 266864, Note_on_c, 2, 60, 0
9, 266864, Note_on_c, 2, 64, 0
9, 266880, Note_on_c, 2, 72, 84
9, 266880, Note_on_c, 2, 76, 84
9, 267344, Note_on_c, 2, 72, 0
9, 267344, Note_on_c, 2, 76, 0
9, 267360, Note_on_c, 2, 76, 84
9, 267360, Note_on_c, 2, 79, 84
9, 268064, Note_on_c, 2, 76, 0
9, 268064, Note_on_c, 2, 79, 0
9, 268080, Note_on_c, 2, 74, 84
9, 268080, Note_on_c, 2, 77, 84
9, 268199, Note_on_c, 2, 74, 0
9, 268199, Note_on_c, 2, 77, 0
9, 268320, Note_on_c, 2, 76, 84
9, 268320, Note_on_c, 2, 72, 84
9, 268439, Note_on_c, 2, 76, 0
9, 268439, Note_on_c, 2, 72, 0
9, 268560, Note_on_c, 2, 74, 84
9, 268560, Note_on_c, 2, 67, 84
9, 268679, Note_on_c, 2, 74, 0
9, 268679, Note_on_c, 2, 67, 0
9, 268800, Note_on_c, 2, 64, 84
9, 268800, Note_on_c, 2, 72, 84
9, 268919, Note_on_c, 2, 64, 0
9, 268919, Note_on_c, 2, 72, 0
9, 269040, Note_on_c, 2, 67, 84
9, 269040, Note_on_c, 2, 74, 84
9, 269159, Note_on_c, 2, 67, 0
9, 269159, Note_on_c, 2, 74, 0
9, 269280, Note_on_c, 2, 72, 84
9, 269280, Note_on_c, 2, 64, 84
9, 269984, Note_on_c, 2, 72, 0
9, 269984, Note_on_c, 2, 64, 0
9, 270000, Note_on_c, 2, 64, 84
9, 270000, Note_on_c, 2, 72, 84
9, 270171, Note_on_c, 2, 64, 0
9, 270171, Note_on_c, 2, 72, 0
9, 270180, Note_on_c, 2, 64, 84
9, 270180, Note_on_c, 2, 72, 84
9, 270231, Note_on_c, 2, 64, 0
9, 270231, Note_on_c, 2, 72, 0
9, 270240, Note_on_c, 2, 67, 84
9, 270240, Note_on_c, 2, 74, 84
9, 270944, Note_on_c, 2, 67, 0
9, 270944, Note_on_c, 2, 74, 0
9, 270960, Note_on_c, 2, 67, 84
9, 270960, Note_on_c, 2, 74, 84
9, 271131, Note_on_c, 2, 67, 0
9, 271131, Note_on_c, 2, 74, 0
9, 271140, Note_on_c, 2, 74, 84
9, 271140, Note_on_c, 2, 67, 84
9, 271191, Note_on_c, 2, 74, 0
9, 271191, Note_on_c, 2, 67, 0
9, 271200, Note_on_c, 2, 72, 84
9, 271200, Note_on_c, 2, 76, 84
9, 272144, Note_on_c, 2, 72, 0
9, 272144, Note_on_c, 2, 76, 0
9, 272160, Note_on_c, 2, 72, 84
9, 272160, Note_on_c, 2, 77, 84
9, 272624, Note_on_c, 2, 77, 0
9, 272640, Note_on_c, 2, 81, 84
9, 273104, Note_on_c, 2, 72, 0
9, 273104, Note_on_c, 2, 81, 0
9, 273120, Note_on_c, 2, 79, 84
9, 273120, Note_on_c, 2, 72, 84
9, 273824, Note_on_c, 2, 79, 0
9, 273840, Note_on_c, 2, 76, 84
9, 274064, Note_on_c, 2, 72, 0
9, 274064, Note_on_c, 2, 76, 0
9, 274080, Note_on_c, 2, 77, 84
9, 274080, Note_on_c, 2, 72, 84
9, 274544, Note_on_c, 2, 77, 0
9, 274560, Note_on_c, 2, 81, 84
9, 275024, Note_on_c, 2, 72, 0
9, 275024, Note_on_c, 2, 81, 0
9, 275040, Note_on_c, 2, 72, 84
9, 275040, Note_on_c, 2, 79, 84
9, 275744, Note_on_c, 2, 79, 0
9, 275760, Note_on_c, 2, 76, 84
9, 275984, Note_on_c, 2, 72, 0
9, 275984, Note_on_c, 2, 76, 0
9, 276000, Note_on_c, 2, 77, 84
9, 276000, Note_on_c, 2, 72, 84
9, 276464, Note_on_c, 2, 77, 0
9, 276480, Note_on_c, 2, 81, 84
9, 276944, Note_on_c, 2, 72, 0
9, 276944, Note_on_c, 2, 81, 0
9, 276960, Note_on_c, 2, 72, 84
9, 276960, Note_on_c, 2, 79, 84
9, 277664, Note_on_c, 2, 72, 0
9, 277664, Note_on_c, 2, 79, 0
9, 277680, Note_on_c, 2, 67, 84
9, 277680, Note_on_c, 2, 76, 84
9, 277904, Note_on_c, 2, 67, 0
9, 277904, Note_on_c, 2, 76, 0
9, 277920, Note_on_c, 2, 74, 84
9, 277920, Note_on_c, 2, 65, 84
9, 278384, Note_on_c, 2, 74, 0
9, 278384, Note_on_c, 2, 65, 0
9, 278400, Note_on_c, 2, 64, 84
9, 278400, Note_on_c, 2, 72, 84
9, 278864, Note_on_c, 2, 64, 0
9, 278864, Note_on_c, 2, 72, 0
9, 278880, Note_on_c, 2, 72, 84
9, 278880, Note_on_c, 2, 64, 84
9, 278999, Note_on_c, 2, 72, 0
9, 278999, Note_on_c, 2, 64, 0
9, 279000, Note_on_c, 2, 62, 84
9, 279000, Note_on_c, 2, 71, 84
9, 279104, Note_on_c, 2, 62, 0
9, 279104, Note_on_c, 2, 71, 0
9, 279120, Note_on_c, 2, 62, 84
9, 279120, Note_on_c, 2, 71, 84
9, 279584, Note_on_c, 2, 62, 0
9, 279584, Note_on_c, 2, 71, 0
9, 279600, Note_on_c, 2, 64, 84
9, 279600, Note_on_c, 2, 72, 84
9, 279771, Note_on_c, 2, 64, 0
9, 279771, Note_on_c, 2, 72, 0
9, 279780, Note_on_c, 2, 72, 84
9, 279780, Note_on_c, 2, 64, 84
9, 279831, Note_on_c, 2, 72, 0
9, 279831, Note_on_c, 2, 64, 0
9, 279840, Note_on_c, 2, 74, 84
9, 279840, Note_on_c, 2, 65, 84
9, 280304, Note_on_c, 2, 74, 0
9, 280304, Note_on_c, 2, 65, 0
9, 280320, Note_on_c, 2, 64, 84
9, 280320, Note_on_c, 2, 72, 84
9, 280784, Note_on_c, 2, 64, 0
9, 280784, Note_on_c, 2, 72, 0
9, 280800, Note_on_c, 2, 72, 84
9, 280800, Note_on_c, 2, 64, 84
9, 280919, Note_on_c, 2, 72, 0
9, 280919, Note_on_c, 2, 64, 0
9, 280920, Note_on_c, 2, 62, 84
9, 280920, Note_on_c, 2, 71, 84
9, 281024, Note_on_c, 2, 62, 0
9, 281024, Note_on_c, 2, 71, 0
9, 281040, Note_on_c, 2, 62, 84
9, 281040, Note_on_c, 2, 71, 84
9, 281504, Note_on_c, 2, 62, 0
9, 281504, Note_on_c, 2, 71, 0
9, 281520, Note_on_c, 2, 72, 84
9, 281520, Note_on_c, 2, 64, 84
9, 281609, Note_on_c, 2, 72, 0
9, 281609, Note_on_c, 2, 64, 0
9, 281700, Note_on_c, 2, 72, 84
9, 281700, Note_on_c, 2, 64, 84
9, 281744, Note_on_c, 2, 72, 0
9, 281744, Note_on_c, 2, 64, 0
9, 281760, Note_on_c, 2, 65, 84
9, 281760, Note_on_c, 2, 74, 84
9, 281849, Note_on_c, 2, 65, 0
9, 281849, Note_on_c, 2, 74, 0
9, 281940, Note_on_c, 2, 74, 84
9, 281940, Note_on_c, 2, 65, 84
9, 281984, Note_on_c, 2, 74, 0
9, 281984, Note_on_c, 2, 65, 0
9, 282000, Note_on_c, 2, 65, 84
9, 282000, Note_on_c, 2, 74, 84
9, 282089, Note_on_c, 2, 65, 0
9, 282089, Note_on_c, 2, 74, 0
9, 282180, Note_on_c, 2, 74, 84
9, 282180, Note_on_c, 2, 65, 84
9, 282224, Note_on_c, 2, 74, 0
9, 282224, Note_on_c, 2, 65, 0
9, 282240, Note_on_c, 2, 72, 84
9, 282240, Note_on_c, 2, 64, 84
9, 282329, Note_on_c, 2, 72, 0
9, 282329, Note_on_c, 2, 64, 0
9, 282420, Note_on_c, 2, 64, 84
9, 282420, Note_on_c, 2, 72, 84
9, 282464, Note_on_c, 2, 64, 0
9, 282464, Note_on_c, 2, 72, 0
9, 282480, Note_on_c, 2, 64, 84
9, 282480, Note_on_c, 2, 72, 84
9, 282569, Note_on_c, 2, 64, 0
9, 282569, Note_on_c, 2, 72, 0
9, 282660, Note_on_c, 2, 64, 84
9, 282660, Note_on_c, 2, 72, 84
9, 282704, Note_on_c, 2, 64, 0
9, 282704, Note_on_c, 2, 72, 0
9, 282720, Note_on_c, 2, 62, 84
9, 282720, Note_on_c, 2, 71, 84
9, 282944, Note_on_c, 2, 62, 0
9, 282944, Note_on_c, 2, 71, 0
9, 282960, Note_on_c, 2, 71, 84
9, 282960, Note_on_c, 2, 67, 84
9, 283184, Note_on_c, 2, 71, 0
9, 283184, Note_on_c, 2, 67, 0
9, 283200, Note_on_c, 2, 76, 84
9, 283200, Note_on_c, 2, 72, 84
9, 283424, Note_on_c, 2, 76, 0
9, 283424, Note_on_c, 2, 72, 0
9, 283440, Note_on_c, 2, 76, 84
9, 283440, Note_on_c, 2, 72, 84
9, 283664, Note_on_c, 2, 76, 0
9, 283664, Note_on_c, 2, 72, 0
9, 283680, Note_on_c, 2, 71, 84
9, 283680, Note_on_c, 2, 74, 84
9, 283904, Note_on_c, 2, 71, 0
9, 283904, Note_on_c, 2, 74, 0
9, 283920, Note_on_c, 2, 67, 84
9, 283920, Note_on_c, 2, 71, 84
9, 284144, Note_on_c, 2, 67, 0
9, 284144, Note_on_c, 2, 71, 0
9, 284160, Note_on_c, 2, 72, 84
9, 284160, Note_on_c, 2, 76, 84
9, 284384, Note_on_c, 2, 72, 0
9, 284384, Note_on_c, 2, 76, 0
9, 284400, Note_on_c, 2, 72, 84
9, 284400, Note_on_c, 2, 76, 84
9, 284624, Note_on_c, 2, 72, 0
9, 284624, Note_on_c, 2, 76, 0
9, 284640, Note_on_c, 2, 71, 84
9, 284640, Note_on_c, 2, 74, 84
9, 284759, Note_on_c, 2, 71, 0
9, 284759, Note_on_c, 2, 74, 0
9, 284820, Note_on_c, 2, 72, 84
9, 284820, Note_on_c, 2, 67, 84
9, 284871, Note_on_c, 2, 72, 0
9, 284871, Note_on_c, 2, 67, 0
9, 284880, Note_on_c, 2, 76, 84
9, 284880, Note_on_c, 2, 72, 84
9, 285104, Note_on_c, 2, 76, 0
9, 285104, Note_on_c, 2, 72, 0
9, 285120, Note_on_c, 2, 71, 84
9, 285120, Note_on_c, 2, 74, 84
9, 285239, Note_on_c, 2, 71, 0
9, 285239, Note_on_c, 2, 74, 0
9, 285300, Note_on_c, 2, 67, 84
9, 285300, Note_on_c, 2, 72, 84
9, 285351, Note_on_c, 2, 67, 0
9, 285351, Note_on_c, 2, 72, 0
9, 285360, Note_on_c, 2, 72, 84
9, 285360, Note_on_c, 2, 76, 84
9, 285584, Note_on_c, 2, 72, 0
9, 285584, Note_on_c, 2, 76, 0
9, 285600, Note_on_c, 2, 74, 84
9, 285600, Note_on_c, 2, 71, 84
9, 285719, Note_on_c, 2, 74, 0
9, 285719, Note_on_c, 2, 71, 0
9, 285780, Note_on_c, 2, 67, 84
9, 285780, Note_on_c, 2, 72, 84
9, 285831, Note_on_c, 2, 67, 0
9, 285831, Note_on_c, 2, 72, 0
9, 285840, Note_on_c, 2, 76, 84
9, 285840, Note_on_c, 2, 72, 84
9, 286064, Note_on_c, 2, 76, 0
9, 286064, Note_on_c, 2, 72, 0
9, 286080, Note_on_c, 2, 71, 84
9, 286080, Note_on_c, 2, 74, 84
9, 286199, Note_on_c, 2, 71, 0
9, 286199, Note_on_c, 2, 74, 0
9, 286260, Note_on_c, 2, 67, 84
9, 286260, Note_on_c, 2, 72, 84
9, 286311, Note_on_c, 2, 67, 0
9, 286311, Note_on_c, 2, 72, 0
9, 286320, Note_on_c, 2, 72, 84
9, 286320, Note_on_c, 2, 76, 84
9, 286544, Note_on_c, 2, 72, 0
9, 286544, Note_on_c, 2, 76, 0
9, 286560, Note_on_c, 2, 71, 84
9, 286560, Note_on_c, 2, 74, 84
9, 286679, Note_on_c, 2, 71, 0
9, 286679, Note_on_c, 2, 74, 0
9, 287640, Note_on_c, 2, 76, 92
9, 287759, Note_on_c, 2, 76, 0
9, 287760, Note_on_c, 2, 74, 84
9, 287864, Note_on_c, 2, 74, 0
9, 287880, Note_on_c, 2, 72, 84
9, 287969, Note_on_c, 2, 72, 0
9, 288000, Note_on_c, 2, 71, 84
9, 288089, Note_on_c, 2, 71, 0
9, 288120, Note_on_c, 2, 72, 92
9, 288239, Note_on_c, 2, 72, 0
9, 288240, Note_on_c, 2, 71, 84
9, 288344, Note_on_c, 2, 71, 0
9, 288360, Note_on_c, 2, 69, 84
9, 288449, Note_on_c, 2, 69, 0
9, 288480, Note_on_c, 2, 67, 84
9, 288569, Note_on_c, 2, 67, 0
9, 288600, Note_on_c, 2, 72, 92
9, 288719, Note_on_c, 2, 72, 0
9, 288720, Note_on_c, 2, 71, 84
9, 288824, Note_on_c, 2, 71, 0
9, 288840, Note_on_c, 2, 69, 84
9, 288929, Note_on_c, 2, 69, 0
9, 288960, Note_on_c, 2, 67, 84
9, 289049, Note_on_c, 2, 67, 0
9, 289080, Note_on_c, 2, 72, 92
9, 289199, Note_on_c, 2, 72, 0
9, 289200, Note_on_c, 2, 71, 84
9, 289304, Note_on_c, 2, 71, 0
9, 289320, Note_on_c, 2, 69, 84
9, 289409, Note_on_c, 2, 69, 0
9, 289440, Note_on_c, 2, 67, 84
9, 289529, Note_on_c, 2, 67, 0
9, 289560, Note_on_c, 2, 72, 92
9, 289679, Note_on_c, 2, 72, 0
9, 289680, Note_on_c, 2, 71, 84
9, 289784, Note_on_c, 2, 71, 0
9, 289800, Note_on_c, 2, 69, 84
9, 289889, Note_on_c, 2, 69, 0
9, 289920, Note_on_c, 2, 67, 84
9, 290009, Note_on_c, 2, 67, 0
9, 290040, Note_on_c, 2, 65, 84
9, 290129, Note_on_c, 2, 65, 0
9, 290160, Note_on_c, 2, 64, 84
9, 290249, Note_on_c, 2, 64, 0
9, 290280, Note_on_c, 2, 62, 84
9, 290369, Note_on_c, 2, 62, 0
9, 290400, Note_on_c, 2, 64, 84
9, 290400, Note_on_c, 2, 72, 84
9, 291104, Note_on_c, 2, 64, 0
9, 291104, Note_on_c, 2, 72, 0
9, 291120, Note_on_c, 2, 67, 84
9, 291120, Note_on_c, 2, 64, 84
9, 291359, Note_on_c, 2, 67, 0
9, 291359, Note_on_c, 2, 64, 0
9, 291360, Note_on_c, 2, 67, 84
9, 291360, Note_on_c, 2, 76, 84
9, 292079, Note_on_c, 2, 67, 0
9, 292079, Note_on_c, 2, 76, 0
9, 292080, Note_on_c, 2, 65, 84
9, 292080, Note_on_c, 2, 74, 84
9, 292259, Note_on_c, 2, 65, 0
9, 292259, Note_on_c, 2, 74, 0
9, 292260, Note_on_c, 2, 72, 84
9, 292260, Note_on_c, 2, 64, 84
9, 292311, Note_on_c, 2, 72, 0
9, 292311, Note_on_c, 2, 64, 0
9, 292320, Note_on_c, 2, 71, 84
9, 292320, Note_on_c, 2, 62, 84
9, 292559, Note_on_c, 2, 71, 0
9, 292559, Note_on_c, 2, 62, 0
9, 294240, Note_on_c, 2, 74, 84
9, 294240, Note_on_c, 2, 71, 84
9, 294944, Note_on_c, 2, 74, 0
9, 294944, Note_on_c, 2, 71, 0
9, 294960, Note_on_c, 2, 67, 84
9, 295199, Note_on_c, 2, 67, 0
9, 295200, Note_on_c, 2, 77, 84
9, 295200, Note_on_c, 2, 74, 84
9, 295919, Note_on_c, 2, 77, 0
9, 295919, Note_on_c, 2, 74, 0
9, 295920, Note_on_c, 2, 76, 84
9, 295920, Note_on_c, 2, 72, 84
9, 296099, Note_on_c, 2, 76, 0
9, 296099, Note_on_c, 2, 72, 0
9, 296100, Note_on_c, 2, 74, 84
9, 296100, Note_on_c, 2, 71, 84
9, 296151, Note_on_c, 2, 74, 0
9, 296151, Note_on_c, 2, 71, 0
9, 296160, Note_on_c, 2, 76, 84
9, 296160, Note_on_c, 2, 70, 84
9, 298064, Note_on_c, 2, 76, 0
9, 298064, Note_on_c, 2, 70, 0
9, 298080, Note_on_c, 2, 67, 84
9, 298080, Note_on_c, 2, 76, 84
9, 298319, Note_on_c, 2, 67, 0
9, 298319, Note_on_c, 2, 76, 0
9, 299040, Note_on_c, 2, 76, 84
9, 299040, Note_on_c, 2, 67, 84
9, 299264, Note_on_c, 2, 76, 0
9, 299264, Note_on_c, 2, 67, 0
9, 300000, Note_on_c, 2, 77, 84
9, 300000, Note_on_c, 2, 69, 84
9, 300224, Note_on_c, 2, 77, 0
9, 300224, Note_on_c, 2, 69, 0
9, 300960, Note_on_c, 2, 77, 84
9, 300960, Note_on_c, 2, 69, 84
9, 301184, Note_on_c, 2, 77, 0
9, 301184, Note_on_c, 2, 69, 0
9, 301920, Note_on_c, 2, 74, 84
9, 301920, Note_on_c, 2, 77, 84
9, 303824, Note_on_c, 2, 74, 0
9, 303824, Note_on_c, 2, 77, 0
9, 303840, Note_on_c, 2, 72, 84
9, 303840, Note_on_c, 2, 76, 84
9, 305744, Note_on_c, 2, 72, 0
9, 305744, Note_on_c, 2, 76, 0
9, 305760, Note_on_c, 2, 77, 84
9, 305760, Note_on_c, 2, 74, 84
9, 306704, Note_on_c, 2, 77, 0
9, 306704, Note_on_c, 2, 74, 0
9, 306720, Note_on_c, 2, 76, 84
9, 306720, Note_on_c, 2, 72, 84
9, 307664, Note_on_c, 2, 76, 0
9, 307664, Note_on_c, 2, 72, 0
9, 307680, Note_on_c, 2, 74, 84
9, 307680, Note_on_c, 2, 71, 84
9, 307784, Note_on_c, 2, 74, 0
9, 307784, Note_on_c, 2, 71, 0
9, 307800, Note_on_c, 2, 71, 84
9, 308024, Note_on_c, 2, 71, 0
9, 308040, Note_on_c, 2, 72, 84
9, 308159, Note_on_c, 2, 72, 0
9, 308160, Note_on_c, 2, 74, 84
9, 308249, Note_on_c, 2, 74, 0
9, 308280, Note_on_c, 2, 79, 84
9, 308280, Note_on_c, 2, 67, 84
9, 308399, Note_on_c, 2, 79, 0
9, 308399, Note_on_c, 2, 67, 0
9, 308400, Note_on_c, 2, 77, 84
9, 308400, Note_on_c, 2, 65, 84
9, 308504, Note_on_c, 2, 77, 0
9, 308504, Note_on_c, 2, 65, 0
9, 308520, Note_on_c, 2, 76, 84
9, 308520, Note_on_c, 2, 64, 84
9, 308609, Note_on_c, 2, 76, 0
9, 308609, Note_on_c, 2, 64, 0
9, 308640, Note_on_c, 2, 74, 84
9, 308640, Note_on_c, 2, 62, 84
9, 308729, Note_on_c, 2, 74, 0
9, 308729, Note_on_c, 2, 62, 0
9, 308760, Note_on_c, 2, 64, 84
9, 308760, Note_on_c, 2, 76, 84
9, 308879, Note_on_c, 2, 64, 0
9, 308879, Note_on_c, 2, 76, 0
9, 308880, Note_on_c, 2, 74, 84
9, 308880, Note_on_c, 2, 62, 84
9, 308984, Note_on_c, 2, 74, 0
9, 308984, Note_on_c, 2, 62, 0
9, 309000, Note_on_c, 2, 72, 84
9, 309000, Note_on_c, 2, 60, 84
9, 309089, Note_on_c, 2, 72, 0
9, 309089, Note_on_c, 2, 60, 0
9, 309120, Note_on_c, 2, 71, 84
9, 309120, Note_on_c, 2, 59, 84
9, 309209, Note_on_c, 2, 71, 0
9, 309209, Note_on_c, 2, 59, 0
9, 309240, Note_on_c, 2, 67, 84
9, 309240, Note_on_c, 2, 71, 84
9, 309359, Note_on_c, 2, 67, 0
9, 309359, Note_on_c, 2, 71, 0
9, 309360, Note_on_c, 2, 66, 84
9, 309360, Note_on_c, 2, 72, 84
9, 309464, Note_on_c, 2, 66, 0
9, 309464, Note_on_c, 2, 72, 0
9, 309480, Note_on_c, 2, 72, 84
9, 309480, Note_on_c, 2, 66, 84
9, 309569, Note_on_c, 2, 72, 0
9, 309569, Note_on_c, 2, 66, 0
9, 309600, Note_on_c, 2, 71, 84
9, 309600, Note_on_c, 2, 67, 84
9, 309689, Note_on_c, 2, 71, 0
9, 309689, Note_on_c, 2, 67, 0
9, 309720, Note_on_c, 2, 67, 84
9, 309839, Note_on_c, 2, 67, 0
9, 309840, Note_on_c, 2, 66, 84
9, 309944, Note_on_c, 2, 66, 0
9, 309960, Note_on_c, 2, 72, 84
9, 310049, Note_on_c, 2, 72, 0
9, 310080, Note_on_c, 2, 71, 84
9, 310199, Note_on_c, 2, 71, 0
9, 311520, Note_on_c, 2, 67, 84
9, 311520, Note_on_c, 2, 64, 84
9, 311699, Note_on_c, 2, 67, 0
9, 311699, Note_on_c, 2, 64, 0
9, 312000, Note_on_c, 2, 65, 84
9, 312000, Note_on_c, 2, 69, 84
9, 312179, Note_on_c, 2, 65, 0
9, 312179, Note_on_c, 2, 69, 0
9, 312480, Note_on_c, 2, 64, 84
9, 312480, Note_on_c, 2, 67, 84
9, 313199, Note_on_c, 2, 64, 0
9, 313199, Note_on_c, 2, 67, 0
9, 315120, Note_on_c, 2, 59, 76
9, 315120, Note_on_c, 2, 62, 76
9, 315187, Note_on_c, 2, 59, 0
9, 315187, Note_on_c, 2, 62, 0
9, 315200, Note_on_c, 2, 60, 76
9, 315200, Note_on_c, 2, 64, 76
9, 315267, Note_on_c, 2, 60, 0
9, 315267, Note_on_c, 2, 64, 0
9, 315280, Note_on_c, 2, 62, 76
9, 315280, Note_on_c, 2, 65, 76
9, 315347, Note_on_c, 2, 62, 0
9, 315347, Note_on_c, 2, 65, 0
9, 315360, Note_on_c, 2, 67, 76
9, 315360, Note_on_c, 2, 64, 76
9, 315584, Note_on_c, 2, 67, 0
9, 315584, Note_on_c, 2, 64, 0
9, 315600, Note_on_c, 2, 64, 76
9, 315600, Note_on_c, 2, 60, 76
9, 315667, Note_on_c, 2, 64, 0
9, 315667, Note_on_c, 2, 60, 0
9, 315680, Note_on_c, 2, 65, 76
9, 315680, Note_on_c, 2, 62, 76
9, 315747, Note_on_c, 2, 65, 0
9, 315747, Note_on_c, 2, 62, 0
9, 315760, Note_on_c, 2, 67, 76
9, 315760, Note_on_c, 2, 64, 76
9, 315827, Note_on_c, 2, 67, 0
9, 315827, Note_on_c, 2, 64, 0
9, 315840, Note_on_c, 2, 65, 76
9, 315840, Note_on_c, 2, 69, 76
9, 316064, Note_on_c, 2, 65, 0
9, 316064, Note_on_c, 2, 69, 0
9, 316080, Note_on_c, 2, 69, 76
9, 316080, Note_on_c, 2, 65, 76
9, 316147, Note_on_c, 2, 69, 0
9, 316147, Note_on_c, 2, 65, 0
9, 316160, Note_on_c, 2, 71, 76
9, 316160, Note_on_c, 2, 67, 76
9, 316227, Note_on_c, 2, 71, 0
9, 316227, Note_on_c, 2, 67, 0
9, 316240, Note_on_c, 2, 69, 76
9, 316240, Note_on_c, 2, 72, 76
9, 316307, Note_on_c, 2, 69, 0
9, 316307, Note_on_c, 2, 72, 0
9, 316320, Note_on_c, 2, 64, 76
9, 316320, Note_on_c, 2, 67, 76
9, 317039, Note_on_c, 2, 64, 0
9, 317039, Note_on_c, 2, 67, 0
9, 318960, Note_on_c, 2, 81, 48
9, 319039, Note_on_c, 2, 81, 0
9, 319040, Note_on_c, 2, 79, 48
9, 319119, Note_on_c, 2, 79, 0
9, 319120, Note_on_c, 2, 77, 48
9, 319199, Note_on_c, 2, 77, 0
9, 319200, Note_on_c, 2, 76, 48
9, 319439, Note_on_c, 2, 76, 0
9, 319440, Note_on_c, 2, 79, 48
9, 319519, Note_on_c, 2, 79, 0
9, 319520, Note_on_c, 2, 77, 48
9, 319599, Note_on_c, 2, 77, 0
9, 319600, Note_on_c, 2, 76, 48
9, 319679, Note_on_c, 2, 76, 0
9, 319680, Note_on_c, 2, 74, 48
9, 319919, Note_on_c, 2, 74, 0
9, 319920, Note_on_c, 2, 77, 48
9, 319999, Note_on_c, 2, 77, 0
9, 320000, Note_on_c, 2, 76, 48
9, 320079, Note_on_c, 2, 76, 0
9, 320080, Note_on_c, 2, 74, 48
9, 320147, Note_on_c, 2, 74, 0
9, 320160, Note_on_c, 2, 73, 48
9, 320399, Note_on_c, 2, 73, 0
9, 320640, Control_c, 2, 11, 64
9, 320880, Note_on_c, 2, 60, 84
9, 320947, Note_on_c, 2, 60, 0
9, 320960, Note_on_c, 2, 64, 84
9, 321027, Note_on_c, 2, 64, 0
9, 321040, Note_on_c, 2, 65, 84
9, 321107, Note_on_c, 2, 65, 0
9, 321120, Note_on_c, 2, 67, 84
9, 321344, Note_on_c, 2, 67, 0
9, 321360, Note_on_c, 2, 60, 84
9, 321427, Note_on_c, 2, 60, 0
9, 321440, Note_on_c, 2, 65, 84
9, 321507, Note_on_c, 2, 65, 0
9, 321520, Note_on_c, 2, 67, 84
9, 321587, Note_on_c, 2, 67, 0
9, 321600, Note_on_c, 2, 69, 84
9, 321824, Note_on_c, 2, 69, 0
9, 321840, Note_on_c, 2, 60, 84
9, 321907, Note_on_c, 2, 60, 0
9, 321920, Note_on_c, 2, 67, 84
9, 321987, Note_on_c, 2, 67, 0
9, 322000, Note_on_c, 2, 69, 84
9, 322067, Note_on_c, 2, 69, 0
9, 322080, Control_c, 2, 11, 64
9, 322080, Note_on_c, 2, 70, 84
9, 322160, Control_c, 2, 11, 67
9, 322240, Control_c, 2, 11, 69
9, 322320, Control_c, 2, 11, 72
9, 322400, Control_c, 2, 11, 75
9, 322480, Control_c, 2, 11, 77
9, 322560, Control_c, 2, 11, 80
9, 322640, Control_c, 2, 11, 82
9, 322720, Control_c, 2, 11, 85
9, 322800, Control_c, 2, 11, 88
9, 322880, Control_c, 2, 11, 90
9, 322960, Control_c, 2, 11, 93
9, 323040, Control_c, 2, 11, 96
9, 323120, Control_c, 2, 11, 98
9, 323200, Control_c, 2, 11, 101
9, 323280, Control_c, 2, 11, 103
9, 323360, Control_c, 2, 11, 106
9, 323440, Control_c, 2, 11, 109
9, 323520, Control_c, 2, 11, 111
9, 323600, Control_c, 2, 11, 114
9, 323680, Control_c, 2, 11, 117
9, 323760, Control_c, 2, 11, 119
9, 323840, Control_c, 2, 11, 122
9, 323920, Control_c, 2, 11, 127
9, 323984, Note_on_c, 2, 70, 0
9, 324000, Note_on_c, 2, 65, 84
9, 324000, Note_on_c, 2, 69, 84
9, 324479, Note_on_c, 2, 65, 0
9, 324479, Note_on_c, 2, 69, 0
9, 324480, Note_on_c, 2, 65, 84
9, 324480, Note_on_c, 2, 69, 84
9, 324584, Note_on_c, 2, 65, 0
9, 324584, Note_on_c, 2, 69, 0
9, 324600, Note_on_c, 2, 65, 84
9, 324600, Note_on_c, 2, 69, 84
9, 324704, Note_on_c, 2, 65, 0
9, 324704, Note_on_c, 2, 69, 0
9, 324720, Note_on_c, 2, 69, 84
9, 324720, Note_on_c, 2, 65, 84
9, 324824, Note_on_c, 2, 69, 0
9, 324824, Note_on_c, 2, 65, 0
9, 324840, Note_on_c, 2, 65, 84
9, 324840, Note_on_c, 2, 69, 84
9, 324944, Note_on_c, 2, 65, 0
9, 324944, Note_on_c, 2, 69, 0
9, 324960, Note_on_c, 2, 69, 84
9, 324960, Note_on_c, 2, 65, 84
9, 325064, Note_on_c, 2, 69, 0
9, 325064, Note_on_c, 2, 65, 0
9, 325080, Note_on_c, 2, 65, 84
9, 325080, Note_on_c, 2, 69, 84
9, 325184, Note_on_c, 2, 65, 0
9, 325184, Note_on_c, 2, 69, 0
9, 325200, Note_on_c, 2, 65, 84
9, 325200, Note_on_c, 2, 69, 84
9, 325304, Note_on_c, 2, 65, 0
9, 325304, Note_on_c, 2, 69, 0
9, 325320, Note_on_c, 2, 65, 84
9, 325320, Note_on_c, 2, 69, 84
9, 325424, Note_on_c, 2, 65, 0
9, 325424, Note_on_c, 2, 69, 0
9, 325440, Note_on_c, 2, 65, 84
9, 325440, Note_on_c, 2, 69, 84
9, 325544, Note_on_c, 2, 65, 0
9, 325544, Note_on_c, 2, 69, 0
9, 325560, Note_on_c, 2, 65, 84
9, 325560, Note_on_c, 2, 69, 84
9, 325664, Note_on_c, 2, 65, 0
9, 325664, Note_on_c, 2, 69, 0
9, 325680, Note_on_c, 2, 69, 84
9, 325680, Note_on_c, 2, 65, 84
9, 325784, Note_on_c, 2, 69, 0
9, 325784, Note_on_c, 2, 65, 0
9, 325800, Note_on_c, 2, 69, 84
9, 325800, Note_on_c, 2, 65, 84
9, 325904, Note_on_c, 2, 69, 0
9, 325904, Note_on_c, 2, 65, 0
9, 325920, Note_on_c, 2, 69, 84
9, 325920, Note_on_c, 2, 65, 84
9, 326144, Note_on_c, 2, 69, 0
9, 326144, Note_on_c, 2, 65, 0
9, 326160, Note_on_c, 2, 66, 84
9, 326384, Note_on_c, 2, 66, 0
9, 326400, Note_on_c, 2, 67, 84
9, 326624, Note_on_c, 2, 67, 0
9, 326640, Note_on_c, 2, 68, 84
9, 326864, Note_on_c, 2, 68, 0
9, 326880, Note_on_c, 2, 69, 84
9, 327104, Note_on_c, 2, 69, 0
9, 327120, Note_on_c, 2, 71, 84
9, 327344, Note_on_c, 2, 71, 0
9, 327360, Note_on_c, 2, 72, 84
9, 327464, Note_on_c, 2, 72, 0
9, 327480, Note_on_c, 2, 67, 84
9, 327480, Note_on_c, 2, 64, 84
9, 327584, Note_on_c, 2, 67, 0
9, 327584, Note_on_c, 2, 64, 0
9, 327600, Note_on_c, 2, 65, 84
9, 327600, Note_on_c, 2, 62, 84
9, 327704, Note_on_c, 2, 65, 0
9, 327704, Note_on_c, 2, 62, 0
9, 327720, Note_on_c, 2, 60, 84
9, 327720, Note_on_c, 2, 64, 84
9, 327824, Note_on_c, 2, 60, 0
9, 327824, Note_on_c, 2, 64, 0
9, 327840, Note_on_c, 2, 65, 84
9, 327840, Note_on_c, 2, 69, 84
9, 328019, Note_on_c, 2, 65, 0
9, 328019, Note_on_c, 2, 69, 0
9, 328800, Note_on_c, 2, 59, 84
9, 328800, Note_on_c, 2, 62, 84
9, 328979, Note_on_c, 2, 59, 0
9, 328979, Note_on_c, 2, 62, 0
9, 329760, Note_on_c, 2, 72, 76
9, 329760, Note_on_c, 2, 67, 76
9, 329880, Control_c, 2, 11, 72
9, 330239, Note_on_c, 2, 67, 0
9, 330240, Note_on_c, 2, 65, 76
9, 330479, Note_on_c, 2, 72, 0
9, 330480, Note_on_c, 2, 71, 76
9, 330719, Note_on_c, 2, 65, 0
9, 330719, Note_on_c, 2, 71, 0
9, 330720, Note_on_c, 2, 66, 76
9, 330720, Note_on_c, 2, 69, 76
9, 330959, Note_on_c, 2, 66, 0
9, 330959, Note_on_c, 2, 69, 0
9, 330960, Note_on_c, 2, 67, 76
9, 331184, Note_on_c, 2, 67, 0
9, 331200, Note_on_c, 2, 67, 76
9, 331424, Note_on_c, 2, 67, 0
9, 331440, Note_on_c, 2, 67, 76
9, 331664, Note_on_c, 2, 67, 0
9, 331678, Control_c, 2, 11, 127
9, 331680, Note_on_c, 2, 67, 76
9, 331680, Note_on_c, 2, 72, 76
9, 331800, Control_c, 2, 11, 80
9, 332159, Note_on_c, 2, 67, 0
9, 332160, Note_on_c, 2, 65, 76
9, 332399, Note_on_c, 2, 72, 0
9, 332400, Note_on_c, 2, 71, 76
9, 332639, Note_on_c, 2, 65, 0
9, 332639, Note_on_c, 2, 71, 0
9, 332640, Note_on_c, 2, 66, 76
9, 332640, Note_on_c, 2, 69, 76
9, 332879, Note_on_c, 2, 66, 0
9, 332879, Note_on_c, 2, 69, 0
9, 332880, Note_on_c, 2, 67, 76
9, 333104, Note_on_c, 2, 67, 0
9, 333120, Note_on_c, 2, 67, 76
9, 333344, Note_on_c, 2, 67, 0
9, 333360, Note_on_c, 2, 67, 76
9, 333584, Note_on_c, 2, 67, 0
9, 333598, Control_c, 2, 11, 127
9, 333600, Note_on_c, 2, 77, 76
9, 333600, Note_on_c, 2, 72, 76
9, 333720, Control_c, 2, 11, 80
9, 334079, Note_on_c, 2, 72, 0
9, 334080, Note_on_c, 2, 70, 76
9, 334319, Note_on_c, 2, 77, 0
9, 334320, Note_on_c, 2, 76, 76
9, 334559, Note_on_c, 2, 70, 0
9, 334559, Note_on_c, 2, 76, 0
9, 334560, Note_on_c, 2, 74, 76
9, 334560, Note_on_c, 2, 69, 76
9, 334799, Note_on_c, 2, 74, 0
9, 334799, Note_on_c, 2, 69, 0
9, 334800, Note_on_c, 2, 70, 76
9, 334800, Note_on_c, 2, 73, 76
9, 335024, Note_on_c, 2, 70, 0
9, 335024, Note_on_c, 2, 73, 0
9, 335040, Note_on_c, 2, 70, 76
9, 335040, Note_on_c, 2, 73, 76
9, 335264, Note_on_c, 2, 70, 0
9, 335264, Note_on_c, 2, 73, 0
9, 335280, Note_on_c, 2, 73, 76
9, 335280, Note_on_c, 2, 70, 76
9, 335504, Note_on_c, 2, 73, 0
9, 335504, Note_on_c, 2, 70, 0
9, 335520, Note_on_c, 2, 69, 76
9, 335520, Note_on_c, 2, 74, 76
9, 335984, Note_on_c, 2, 69, 0
9, 335984, Note_on_c, 2, 74, 0
9, 336000, Note_on_c, 2, 65, 76
9, 336000, Note_on_c, 2, 69, 76
9, 336419, Note_on_c, 2, 65, 0
9, 336419, Note_on_c, 2, 69, 0
9, 336420, Note_on_c, 2, 65, 76
9, 336420, Note_on_c, 2, 62, 76
9, 336479, Note_on_c, 2, 65, 0
9, 336479, Note_on_c, 2, 62, 0
9, 336480, Note_on_c, 2, 64, 76
9, 336480, Note_on_c, 2, 60, 76
9, 336959, Note_on_c, 2, 64, 0
9, 336959, Note_on_c, 2, 60, 0
9, 336960, Note_on_c, 2, 62, 76
9, 336960, Note_on_c, 2, 65, 76
9, 337379, Note_on_c, 2, 62, 0
9, 337379, Note_on_c, 2, 65, 0
9, 337380, Note_on_c, 2, 62, 76
9, 337380, Note_on_c, 2, 59, 76
9, 337431, Note_on_c, 2, 62, 0
9, 337431, Note_on_c, 2, 59, 0
9, 337438, Control_c, 2, 11, 127
9, 337440, Note_on_c, 2, 67, 76
9, 337440, Note_on_c, 2, 72, 76
9, 338144, Note_on_c, 2, 67, 0
9, 338144, Note_on_c, 2, 72, 0
9, 338160, Note_on_c, 2, 65, 76
9, 338160, Note_on_c, 2, 71, 76
9, 338384, Note_on_c, 2, 65, 0
9, 338384, Note_on_c, 2, 71, 0
9, 338400, Note_on_c, 2, 65, 76
9, 338400, Note_on_c, 2, 69, 76
9, 338624, Note_on_c, 2, 65, 0
9, 338624, Note_on_c, 2, 69, 0
9, 338640, Note_on_c, 2, 67, 76
9, 338640, Note_on_c, 2, 65, 76
9, 338864, Note_on_c, 2, 67, 0
9, 338864, Note_on_c, 2, 65, 0
9, 338880, Note_on_c, 2, 65, 76
9, 338880, Note_on_c, 2, 67, 76
9, 339104, Note_on_c, 2, 65, 0
9, 339104, Note_on_c, 2, 67, 0
9, 339120, Note_on_c, 2, 65, 76
9, 339120, Note_on_c, 2, 67, 76
9, 339344, Note_on_c, 2, 65, 0
9, 339344, Note_on_c, 2, 67, 0
9, 339360, Note_on_c, 2, 67, 84
9, 339360, Note_on_c, 2, 72, 84
9, 339480, Control_c, 2, 11, 112
9, 340064, Note_on_c, 2, 67, 0
9, 340064, Note_on_c, 2, 72, 0
9, 340080, Note_on_c, 2, 65, 84
9, 340080, Note_on_c, 2, 71, 84
9, 340304, Note_on_c, 2, 65, 0
9, 340304, Note_on_c, 2, 71, 0
9, 340320, Note_on_c, 2, 69, 84
9, 340320, Note_on_c, 2, 65, 84
9, 340544, Note_on_c, 2, 69, 0
9, 340544, Note_on_c, 2, 65, 0
9, 340560, Note_on_c, 2, 67, 84
9, 340560, Note_on_c, 2, 65, 84
9, 340784, Note_on_c, 2, 67, 0
9, 340784, Note_on_c, 2, 65, 0
9, 340800, Note_on_c, 2, 65, 84
9, 340800, Note_on_c, 2, 67, 84
9, 341024, Note_on_c, 2, 65, 0
9, 341024, Note_on_c, 2, 67, 0
9, 341040, Note_on_c, 2, 65, 84
9, 341040, Note_on_c, 2, 67, 84
9, 341264, Note_on_c, 2, 65, 0
9, 341264, Note_on_c, 2, 67, 0
9, 341278, Control_c, 2, 11, 127
9, 341280, Note_on_c, 2, 74, 84
9, 341280, Note_on_c, 2, 65, 84
9, 341400, Control_c, 2, 11, 112
9, 341984, Note_on_c, 2, 74, 0
9, 341984, Note_on_c, 2, 65, 0
9, 342000, Note_on_c, 2, 64, 84
9, 342000, Note_on_c, 2, 72, 84
9, 342224, Note_on_c, 2, 64, 0
9, 342224, Note_on_c, 2, 72, 0
9, 342238, Control_c, 2, 11, 127
9, 342240, Note_on_c, 2, 74, 76
9, 342240, Note_on_c, 2, 69, 76
9, 342464, Note_on_c, 2, 74, 0
9, 342464, Note_on_c, 2, 69, 0
9, 342480, Note_on_c, 2, 67, 80
9, 342480, Note_on_c, 2, 70, 80
9, 342704, Note_on_c, 2, 67, 0
9, 342704, Note_on_c, 2, 70, 0
9, 342720, Note_on_c, 2, 70, 80
9, 342720, Note_on_c, 2, 67, 80
9, 342944, Note_on_c, 2, 70, 0
9, 342944, Note_on_c, 2, 67, 0
9, 342960, Note_on_c, 2, 70, 80
9, 342960, Note_on_c, 2, 67, 80
9, 343184, Note_on_c, 2, 70, 0
9, 343184, Note_on_c, 2, 67, 0
9, 343200, Note_on_c, 2, 67, 80
9, 343200, Note_on_c, 2, 70, 80
9, 343424, Note_on_c, 2, 67, 0
9, 343424, Note_on_c, 2, 70, 0
9, 343440, Note_on_c, 2, 73, 80
9, 343440, Note_on_c, 2, 70, 80
9, 343664, Note_on_c, 2, 73, 0
9, 343664, Note_on_c, 2, 70, 0
9, 343680, Note_on_c, 2, 73, 80
9, 343680, Note_on_c, 2, 70, 80
9, 343904, Note_on_c, 2, 73, 0
9, 343904, Note_on_c, 2, 70, 0
9, 343920, Note_on_c, 2, 73, 80
9, 343920, Note_on_c, 2, 70, 80
9, 344144, Note_on_c, 2, 73, 0
9, 344144, Note_on_c, 2, 70, 0
9, 344160, Note_on_c, 2, 70, 80
9, 344160, Note_on_c, 2, 73, 80
9, 344384, Note_on_c, 2, 70, 0
9, 344384, Note_on_c, 2, 73, 0
9, 344400, Note_on_c, 2, 70, 80
9, 344400, Note_on_c, 2, 73, 80
9, 344624, Note_on_c, 2, 70, 0
9, 344624, Note_on_c, 2, 73, 0
9, 344640, Note_on_c, 2, 70, 80
9, 344640, Note_on_c, 2, 73, 80
9, 344864, Note_on_c, 2, 70, 0
9, 344864, Note_on_c, 2, 73, 0
9, 344880, Note_on_c, 2, 70, 80
9, 344880, Note_on_c, 2, 73, 80
9, 345104, Note_on_c, 2, 70, 0
9, 345104, Note_on_c, 2, 73, 0
9, 345120, Note_on_c, 2, 73, 84
9, 345120, Note_on_c, 2, 70, 84
9, 346064, Note_on_c, 2, 73, 0
9, 346064, Note_on_c, 2, 70, 0
9, 346080, Note_on_c, 2, 74, 84
9, 346080, Note_on_c, 2, 70, 84
9, 347024, Note_on_c, 2, 74, 0
9, 347024, Note_on_c, 2, 70, 0
9, 347040, Note_on_c, 2, 71, 84
9, 347040, Note_on_c, 2, 74, 84
9, 347984, Note_on_c, 2, 71, 0
9, 347984, Note_on_c, 2, 74, 0
9, 348000, Note_on_c, 2, 72, 84
9, 348000, Note_on_c, 2, 75, 84
9, 349904, Note_on_c, 2, 72, 0
9, 349904, Note_on_c, 2, 75, 0
9, 349920, Note_on_c, 2, 72, 92
9, 349920, Note_on_c, 2, 76, 92
9, 350040, Control_c, 2, 11, 112
9, 350639, Note_on_c, 2, 72, 0
9, 350639, Note_on_c, 2, 76, 0
9, 357600, Control_c, 2, 11, 127
9, 358320, Note_on_c, 2, 60, 80
9, 358320, Note_on_c, 2, 64, 80
9, 358544, Note_on_c, 2, 60, 0
9, 358544, Note_on_c, 2, 64, 0
9, 358560, Note_on_c, 2, 62, 80
9, 358560, Note_on_c, 2, 59, 80
9, 359024, Note_on_c, 2, 62, 0
9, 359024, Note_on_c, 2, 59, 0
9, 359040, Note_on_c, 2, 64, 80
9, 359040, Note_on_c, 2, 60, 80
9, 359504, Note_on_c, 2, 64, 0
9, 359504, Note_on_c, 2, 60, 0
9, 359520, Note_on_c, 2, 65, 80
9, 359520, Note_on_c, 2, 59, 80
9, 360224, Note_on_c, 2, 65, 0
9, 360224, Note_on_c, 2, 59, 0
9, 360240, Note_on_c, 2, 65, 80
9, 360240, Note_on_c, 2, 59, 80
9, 360464, Note_on_c, 2, 65, 0
9, 360464, Note_on_c, 2, 59, 0
9, 360480, Note_on_c, 2, 64, 80
9, 360480, Note_on_c, 2, 58, 80
9, 360944, Note_on_c, 2, 64, 0
9, 360944, Note_on_c, 2, 58, 0
9, 360960, Note_on_c, 2, 65, 80
9, 360960, Note_on_c, 2, 58, 80
9, 361424, Note_on_c, 2, 65, 0
9, 361424, Note_on_c, 2, 58, 0
9, 361440, Note_on_c, 2, 70, 84
9, 361440, Note_on_c, 2, 67, 84
9, 363344, Note_on_c, 2, 70, 0
9, 363344, Note_on_c, 2, 67, 0
9, 363360, Note_on_c, 2, 69, 84
9, 363360, Note_on_c, 2, 65, 84
9, 363839, Note_on_c, 2, 69, 0
9, 363839, Note_on_c, 2, 65, 0
9, 363840, Note_on_c, 2, 69, 84
9, 363840, Note_on_c, 2, 65, 84
9, 363944, Note_on_c, 2, 69, 0
9, 363944, Note_on_c, 2, 65, 0
9, 363960, Note_on_c, 2, 65, 84
9, 363960, Note_on_c, 2, 69, 84
9, 364064, Note_on_c, 2, 65, 0
9, 364064, Note_on_c, 2, 69, 0
9, 364080, Note_on_c, 2, 69, 84
9, 364080, Note_on_c, 2, 65, 84
9, 364184, Note_on_c, 2, 69, 0
9, 364184, Note_on_c, 2, 65, 0
9, 364200, Note_on_c, 2, 69, 84
9, 364200, Note_on_c, 2, 65, 84
9, 364304, Note_on_c, 2, 69, 0
9, 364304, Note_on_c, 2, 65, 0
9, 364320, Note_on_c, 2, 69, 84
9, 364320, Note_on_c, 2, 72, 84
9, 364799, Note_on_c, 2, 69, 0
9, 364799, Note_on_c, 2, 72, 0
9, 364800, Note_on_c, 2, 69, 84
9, 364800, Note_on_c, 2, 72, 84
9, 364904, Note_on_c, 2, 69, 0
9, 364904, Note_on_c, 2, 72, 0
9, 364920, Note_on_c, 2, 69, 84
9, 364920, Note_on_c, 2, 72, 84
9, 365024, Note_on_c, 2, 69, 0
9, 365024, Note_on_c, 2, 72, 0
9, 365040, Note_on_c, 2, 72, 84
9, 365040, Note_on_c, 2, 69, 84
9, 365144, Note_on_c, 2, 72, 0
9, 365144, Note_on_c, 2, 69, 0
9, 365160, Note_on_c, 2, 72, 84
9, 365160, Note_on_c, 2, 69, 84
9, 365264, Note_on_c, 2, 72, 0
9, 365264, Note_on_c, 2, 69, 0
9, 365280, Note_on_c, 2, 77, 84
9, 365280, Note_on_c, 2, 69, 84
9, 365504, Note_on_c, 2, 77, 0
9, 365504, Note_on_c, 2, 69, 0
9, 365520, Note_on_c, 2, 77, 84
9, 365520, Note_on_c, 2, 69, 84
9, 365624, Note_on_c, 2, 77, 0
9, 365624, Note_on_c, 2, 69, 0
9, 365640, Note_on_c, 2, 77, 84
9, 365640, Note_on_c, 2, 69, 84
9, 365744, Note_on_c, 2, 77, 0
9, 365744, Note_on_c, 2, 69, 0
9, 365760, Note_on_c, 2, 69, 84
9, 365760, Note_on_c, 2, 77, 84
9, 365864, Note_on_c, 2, 69, 0
9, 365864, Note_on_c, 2, 77, 0
9, 365880, Note_on_c, 2, 77, 84
9, 365880, Note_on_c, 2, 69, 84
9, 365984, Note_on_c, 2, 77, 0
9, 365984, Note_on_c, 2, 69, 0
9, 366000, Note_on_c, 2, 77, 84
9, 366000, Note_on_c, 2, 69, 84
9, 366104, Note_on_c, 2, 77, 0
9, 366104, Note_on_c, 2, 69, 0
9, 366120, Note_on_c, 2, 69, 84
9, 366120, Note_on_c, 2, 77, 84
9, 366224, Note_on_c, 2, 69, 0
9, 366224, Note_on_c, 2, 77, 0
9, 366240, Note_on_c, 2, 69, 84
9, 366240, Note_on_c, 2, 77, 84
9, 366344, Note_on_c, 2, 69, 0
9, 366344, Note_on_c, 2, 77, 0
9, 366360, Note_on_c, 2, 69, 84
9, 366360, Note_on_c, 2, 77, 84
9, 366464, Note_on_c, 2, 69, 0
9, 366464, Note_on_c, 2, 77, 0
9, 366480, Note_on_c, 2, 77, 84
9, 366480, Note_on_c, 2, 69, 84
9, 366584, Note_on_c, 2, 77, 0
9, 366584, Note_on_c, 2, 69, 0
9, 366600, Note_on_c, 2, 69, 84
9, 366600, Note_on_c, 2, 77, 84
9, 366704, Note_on_c, 2, 69, 0
9, 366704, Note_on_c, 2, 77, 0
9, 366720, Note_on_c, 2, 77, 84
9, 366720, Note_on_c, 2, 69, 84
9, 366824, Note_on_c, 2, 77, 0
9, 366824, Note_on_c, 2, 69, 0
9, 366840, Note_on_c, 2, 77, 84
9, 366840, Note_on_c, 2, 69, 84
9, 366944, Note_on_c, 2, 77, 0
9, 366944, Note_on_c, 2, 69, 0
9, 366960, Note_on_c, 2, 69, 84
9, 366960, Note_on_c, 2, 77, 84
9, 367064, Note_on_c, 2, 69, 0
9, 367064, Note_on_c, 2, 77, 0
9, 367080, Note_on_c, 2, 69, 84
9, 367080, Note_on_c, 2, 77, 84
9, 367184, Note_on_c, 2, 69, 0
9, 367184, Note_on_c, 2, 77, 0
9, 367200, Note_on_c, 2, 71, 84
9, 367200, Note_on_c, 2, 74, 84
9, 367379, Note_on_c, 2, 71, 0
9, 367379, Note_on_c, 2, 74, 0
9, 368160, Note_on_c, 2, 79, 84
9, 368160, Note_on_c, 2, 71, 84
9, 368339, Note_on_c, 2, 79, 0
9, 368339, Note_on_c, 2, 71, 0
9, 369120, Note_on_c, 2, 72, 84
9, 369120, Note_on_c, 2, 76, 84
9, 369299, Note_on_c, 2, 72, 0
9, 369299, Note_on_c, 2, 76, 0
9, 370080, Note_on_c, 2, 79, 84
9, 370080, Note_on_c, 2, 71, 84
9, 370259, Note_on_c, 2, 79, 0
9, 370259, Note_on_c, 2, 71, 0
9, 371040, Note_on_c, 2, 72, 84
9, 371040, Note_on_c, 2, 76, 84
9, 371219, Note_on_c, 2, 72, 0
9, 371219, Note_on_c, 2, 76, 0
9, 372000, Note_on_c, 2, 79, 84
9, 372000, Note_on_c, 2, 71, 84
9, 372179, Note_on_c, 2, 79, 0
9, 372179, Note_on_c, 2, 71, 0
9, 377520, Note_on_c, 2, 67, 52
9, 377759, Note_on_c, 2, 67, 0
9, 377760, Note_on_c, 2, 72, 53
9, 377999, Note_on_c, 2, 72, 0
9, 378000, Note_on_c, 2, 67, 54
9, 378239, Note_on_c, 2, 67, 0
9, 378240, Note_on_c, 2, 76, 56
9, 378479, Note_on_c, 2, 76, 0
9, 378480, Note_on_c, 2, 74, 57
9, 378659, Note_on_c, 2, 74, 0
9, 378660, Note_on_c, 2, 72, 58
9, 378711, Note_on_c, 2, 72, 0
9, 378720, Note_on_c, 2, 71, 59
9, 378959, Note_on_c, 2, 71, 0
9, 378960, Note_on_c, 2, 67, 60
9, 379199, Note_on_c, 2, 67, 0
9, 379200, Note_on_c, 2, 74, 61
9, 379439, Note_on_c, 2, 74, 0
9, 379440, Note_on_c, 2, 72, 63
9, 379619, Note_on_c, 2, 72, 0
9, 379620, Note_on_c, 2, 71, 64
9, 379671, Note_on_c, 2, 71, 0
9, 379680, Note_on_c, 2, 72, 64
9, 379919, Note_on_c, 2, 72, 0
9, 379920, Note_on_c, 2, 67, 66
9, 380159, Note_on_c, 2, 67, 0
9, 380160, Note_on_c, 2, 76, 67
9, 380399, Note_on_c, 2, 76, 0
9, 380400, Note_on_c, 2, 74, 68
9, 380579, Note_on_c, 2, 74, 0
9, 380580, Note_on_c, 2, 72, 70
9, 380631, Note_on_c, 2, 72, 0
9, 380640, Note_on_c, 2, 71, 70
9, 380879, Note_on_c, 2, 71, 0
9, 380880, Note_on_c, 2, 67, 71
9, 381119, Note_on_c, 2, 67, 0
9, 381120, Note_on_c, 2, 74, 73
9, 381359, Note_on_c, 2, 74, 0
9, 381360, Note_on_c, 2, 72, 74
9, 381539, Note_on_c, 2, 72, 0
9, 381540, Note_on_c, 2, 71, 75
9, 381591, Note_on_c, 2, 71, 0
9, 381600, Note_on_c, 2, 72, 76
9, 381839, Note_on_c, 2, 72, 0
9, 381840, Note_on_c, 2, 71, 76
9, 382079, Note_on_c, 2, 71, 0
9, 382080, Note_on_c, 2, 72, 76
9, 382319, Note_on_c, 2, 72, 0
9, 382320, Note_on_c, 2, 67, 76
9, 382320, Note_on_c, 2, 74, 76
9, 382559, Note_on_c, 2, 67, 0
9, 382559, Note_on_c, 2, 74, 0
9, 382560, Note_on_c, 2, 69, 76
9, 382560, Note_on_c, 2, 72, 76
9, 382799, Note_on_c, 2, 69, 0
9, 382799, Note_on_c, 2, 72, 0
9, 382800, Note_on_c, 2, 76, 76
9, 382800, Note_on_c, 2, 64, 76
9, 383039, Note_on_c, 2, 76, 0
9, 383039, Note_on_c, 2, 64, 0
9, 383040, Note_on_c, 2, 74, 76
9, 383040, Note_on_c, 2, 69, 76
9, 383279, Note_on_c, 2, 74, 0
9, 383279, Note_on_c, 2, 69, 0
9, 383280, Note_on_c, 2, 67, 76
9, 383504, Note_on_c, 2, 67, 0
9, 383520, Note_on_c, 2, 69, 76
9, 383520, Note_on_c, 2, 74, 76
9, 384224, Note_on_c, 2, 69, 0
9, 384224, Note_on_c, 2, 74, 0
9, 384240, Note_on_c, 2, 67, 76
9, 384240, Note_on_c, 2, 76, 76
9, 384419, Note_on_c, 2, 67, 0
9, 384419, Note_on_c, 2, 76, 0
9, 384480, Note_on_c, 2, 65, 76
9, 384480, Note_on_c, 2, 77, 76
9, 385184, Note_on_c, 2, 65, 0
9, 385184, Note_on_c, 2, 77, 0
9, 385200, Note_on_c, 2, 75, 76
9, 385200, Note_on_c, 2, 67, 76
9, 385379, Note_on_c, 2, 75, 0
9, 385379, Note_on_c, 2, 67, 0
9, 385440, Note_on_c, 2, 74, 76
9, 385440, Note_on_c, 2, 69, 76
9, 386144, Note_on_c, 2, 74, 0
9, 386144, Note_on_c, 2, 69, 0
9, 386160, Note_on_c, 2, 67, 76
9, 386160, Note_on_c, 2, 76, 76
9, 386339, Note_on_c, 2, 67, 0
9, 386339, Note_on_c, 2, 76, 0
9, 386400, Note_on_c, 2, 65, 76
9, 386400, Note_on_c, 2, 77, 76
9, 387104, Note_on_c, 2, 65, 0
9, 387104, Note_on_c, 2, 77, 0
9, 387120, Note_on_c, 2, 63, 76
9, 387120, Note_on_c, 2, 75, 76
9, 387299, Note_on_c, 2, 63, 0
9, 387299, Note_on_c, 2, 75, 0
9, 387360, Note_on_c, 2, 74, 76
9, 387360, Note_on_c, 2, 62, 76
9, 387599, Note_on_c, 2, 74, 0
9, 387599, Note_on_c, 2, 62, 0
9, 387840, Note_on_c, 2, 64, 52
9, 387840, Note_on_c, 2, 72, 52
9, 388079, Note_on_c, 2, 64, 0
9, 388079, Note_on_c, 2, 72, 0
9, 388320, Note_on_c, 2, 74, 52
9, 388320, Note_on_c, 2, 65, 52
9, 388559, Note_on_c, 2, 74, 0
9, 388559, Note_on_c, 2, 65, 0
9, 388800, Note_on_c, 2, 62, 52
9, 388800, Note_on_c, 2, 71, 52
9, 389039, Note_on_c, 2, 62, 0
9, 389039, Note_on_c, 2, 71, 0
9, 397200, Note_on_c, 2, 71, 70
9, 397200, Note_on_c, 2, 62, 70
9, 397439, Note_on_c, 2, 71, 0
9, 397439, Note_on_c, 2, 62, 0
9, 397680, Note_on_c, 2, 71, 74
9, 397680, Note_on_c, 2, 62, 74
9, 397904, Note_on_c, 2, 71, 0
9, 397904, Note_on_c, 2, 62, 0
9, 397920, Note_on_c, 2, 64, 76
9, 397920, Note_on_c, 2, 72, 76
9, 398159, Note_on_c, 2, 64, 0
9, 398159, Note_on_c, 2, 72, 0
9, 398160, Note_on_c, 2, 71, 76
9, 398160, Note_on_c, 2, 77, 76
9, 398399, Note_on_c, 2, 71, 0
9, 398399, Note_on_c, 2, 77, 0
9, 398400, Note_on_c, 2, 72, 76
9, 398400, Note_on_c, 2, 76, 76
9, 398639, Note_on_c, 2, 72, 0
9, 398639, Note_on_c, 2, 76, 0
9, 398640, Note_on_c, 2, 67, 76
9, 398640, Note_on_c, 2, 74, 76
9, 398879, Note_on_c, 2, 67, 0
9, 398879, Note_on_c, 2, 74, 0
9, 398880, Note_on_c, 2, 69, 76
9, 398880, Note_on_c, 2, 72, 76
9, 399119, Note_on_c, 2, 69, 0
9, 399119, Note_on_c, 2, 72, 0
9, 399120, Note_on_c, 2, 72, 76
9, 399120, Note_on_c, 2, 64, 76
9, 399359, Note_on_c, 2, 72, 0
9, 399359, Note_on_c, 2, 64, 0
9, 399360, Note_on_c, 2, 69, 76
9, 399360, Note_on_c, 2, 65, 76
9, 399599, Note_on_c, 2, 69, 0
9, 399599, Note_on_c, 2, 65, 0
9, 399600, Note_on_c, 2, 67, 76
9, 399824, Note_on_c, 2, 67, 0
9, 399840, Note_on_c, 2, 74, 76
9, 399840, Note_on_c, 2, 62, 76
9, 400544, Note_on_c, 2, 74, 0
9, 400544, Note_on_c, 2, 62, 0
9, 400560, Note_on_c, 2, 64, 76
9, 400560, Note_on_c, 2, 76, 76
9, 400739, Note_on_c, 2, 64, 0
9, 400739, Note_on_c, 2, 76, 0
9, 400800, Note_on_c, 2, 77, 76
9, 400800, Note_on_c, 2, 65, 76
9, 401504, Note_on_c, 2, 77, 0
9, 401504, Note_on_c, 2, 65, 0
9, 401520, Note_on_c, 2, 63, 76
9, 401520, Note_on_c, 2, 75, 76
9, 401699, Note_on_c, 2, 63, 0
9, 401699, Note_on_c, 2, 75, 0
9, 401760, Note_on_c, 2, 62, 76
9, 401760, Note_on_c, 2, 74, 76
9, 402464, Note_on_c, 2, 62, 0
9, 402464, Note_on_c, 2, 74, 0
9, 402480, Note_on_c, 2, 75, 76
9, 402480, Note_on_c, 2, 63, 76
9, 402659, Note_on_c, 2, 75, 0
9, 402659, Note_on_c, 2, 63, 0
9, 402720, Note_on_c, 2, 77, 76
9, 402720, Note_on_c, 2, 65, 76
9, 403424, Note_on_c, 2, 77, 0
9, 403424, Note_on_c, 2, 65, 0
9, 403440, Note_on_c, 2, 75, 76
9, 403440, Note_on_c, 2, 72, 76
9, 403619, Note_on_c, 2, 75, 0
9, 403619, Note_on_c, 2, 72, 0
9, 403680, Note_on_c, 2, 72, 52
9, 403680, Note_on_c, 2, 76, 52
9, 403731, Note_on_c, 2, 72, 0
9, 403731, Note_on_c, 2, 76, 0
9, 403740, Note_on_c, 2, 72, 52
9, 403740, Note_on_c, 2, 76, 52
9, 403791, Note_on_c, 2, 72, 0
9, 403791, Note_on_c, 2, 76, 0
9, 403800, Note_on_c, 2, 72, 52
9, 403800, Note_on_c, 2, 76, 52
9, 403851, Note_on_c, 2, 72, 0
9, 403851, Note_on_c, 2, 76, 0
9, 403860, Note_on_c, 2, 76, 52
9, 403860, Note_on_c, 2, 72, 52
9, 403919, Note_on_c, 2, 76, 0
9, 403919, Note_on_c, 2, 72, 0
9, 403980, Note_on_c, 2, 67, 52
9, 403980, Note_on_c, 2, 64, 52
9, 404031, Note_on_c, 2, 67, 0
9, 404031, Note_on_c, 2, 64, 0
9, 404040, Note_on_c, 2, 64, 52
9, 404040, Note_on_c, 2, 67, 52
9, 404091, Note_on_c, 2, 64, 0
9, 404091, Note_on_c, 2, 67, 0
9, 404100, Note_on_c, 2, 64, 52
9, 404100, Note_on_c, 2, 67, 52
9, 404159, Note_on_c, 2, 64, 0
9, 404159, Note_on_c, 2, 67, 0
9, 404220, Note_on_c, 2, 60, 52
9, 404220, Note_on_c, 2, 67, 52
9, 404271, Note_on_c, 2, 60, 0
9, 404271, Note_on_c, 2, 67, 0
9, 404280, Note_on_c, 2, 67, 52
9, 404280, Note_on_c, 2, 60, 52
9, 404331, Note_on_c, 2, 67, 0
9, 404331, Note_on_c, 2, 60, 0
9, 404340, Note_on_c, 2, 60, 52
9, 404340, Note_on_c, 2, 67, 52
9, 404399, Note_on_c, 2, 60, 0
9, 404399, Note_on_c, 2, 67, 0
9, 404460, Note_on_c, 2, 65, 53
9, 404460, Note_on_c, 2, 60, 53
9, 404511, Note_on_c, 2, 65, 0
9, 404511, Note_on_c, 2, 60, 0
9, 404520, Note_on_c, 2, 60, 53
9, 404520, Note_on_c, 2, 65, 53
9, 404571, Note_on_c, 2, 60, 0
9, 404571, Note_on_c, 2, 65, 0
9, 404580, Note_on_c, 2, 65, 53
9, 404580, Note_on_c, 2, 60, 53
9, 404639, Note_on_c, 2, 65, 0
9, 404639, Note_on_c, 2, 60, 0
9, 404700, Note_on_c, 2, 65, 54
9, 404700, Note_on_c, 2, 62, 54
9, 404751, Note_on_c, 2, 65, 0
9, 404751, Note_on_c, 2, 62, 0
9, 404760, Note_on_c, 2, 62, 54
9, 404760, Note_on_c, 2, 65, 54
9, 404811, Note_on_c, 2, 62, 0
9, 404811, Note_on_c, 2, 65, 0
9, 404820, Note_on_c, 2, 62, 55
9, 404820, Note_on_c, 2, 65, 55
9, 404879, Note_on_c, 2, 62, 0
9, 404879, Note_on_c, 2, 65, 0
9, 404940, Note_on_c, 2, 60, 55
9, 404940, Note_on_c, 2, 64, 55
9, 404991, Note_on_c, 2, 60, 0
9, 404991, Note_on_c, 2, 64, 0
9, 405000, Note_on_c, 2, 60, 55
9, 405000, Note_on_c, 2, 64, 55
9, 405051, Note_on_c, 2, 60, 0
9, 405051, Note_on_c, 2, 64, 0
9, 405060, Note_on_c, 2, 60, 56
9, 405060, Note_on_c, 2, 64, 56
9, 405119, Note_on_c, 2, 60, 0
9, 405119, Note_on_c, 2, 64, 0
9, 405240, Note_on_c, 2, 59, 56
9, 405240, Note_on_c, 2, 65, 56
9, 405359, Note_on_c, 2, 59, 0
9, 405359, Note_on_c, 2, 65, 0
9, 405480, Note_on_c, 2, 76, 58
9, 405480, Note_on_c, 2, 64, 58
9, 405599, Note_on_c, 2, 76, 0
9, 405599, Note_on_c, 2, 64, 0
9, 405720, Note_on_c, 2, 76, 59
9, 405720, Note_on_c, 2, 64, 59
9, 405839, Note_on_c, 2, 76, 0
9, 405839, Note_on_c, 2, 64, 0
9, 405960, Note_on_c, 2, 64, 60
9, 405960, Note_on_c, 2, 67, 60
9, 406079, Note_on_c, 2, 64, 0
9, 406079, Note_on_c, 2, 67, 0
9, 406200, Note_on_c, 2, 60, 61
9, 406200, Note_on_c, 2, 67, 61
9, 406319, Note_on_c, 2, 60, 0
9, 406319, Note_on_c, 2, 67, 0
9, 406440, Note_on_c, 2, 65, 62
9, 406440, Note_on_c, 2, 60, 62
9, 406559, Note_on_c, 2, 65, 0
9, 406559, Note_on_c, 2, 60, 0
9, 406680, Note_on_c, 2, 62, 63
9, 406680, Note_on_c, 2, 65, 63
9, 406799, Note_on_c, 2, 62, 0
9, 406799, Note_on_c, 2, 65, 0
9, 406920, Note_on_c, 2, 60, 64
9, 406920, Note_on_c, 2, 64, 64
9, 407039, Note_on_c, 2, 60, 0
9, 407039, Note_on_c, 2, 64, 0
9, 407160, Note_on_c, 2, 62, 65
9, 407160, Note_on_c, 2, 59, 65
9, 407279, Note_on_c, 2, 62, 0
9, 407279, Note_on_c, 2, 59, 0
9, 407400, Note_on_c, 2, 67, 66
9, 407400, Note_on_c, 2, 60, 66
9, 407519, Note_on_c, 2, 67, 0
9, 407519, Note_on_c, 2, 60, 0
9, 407640, Note_on_c, 2, 60, 67
9, 407640, Note_on_c, 2, 67, 67
9, 407759, Note_on_c, 2, 60, 0
9, 407759, Note_on_c, 2, 67, 0
9, 407880, Note_on_c, 2, 60, 68
9, 407880, Note_on_c, 2, 67, 68
9, 407999, Note_on_c, 2, 60, 0
9, 407999, Note_on_c, 2, 67, 0
9, 408120, Note_on_c, 2, 67, 70
9, 408120, Note_on_c, 2, 60, 70
9, 408239, Note_on_c, 2, 67, 0
9, 408239, Note_on_c, 2, 60, 0
9, 408360, Note_on_c, 2, 60, 71
9, 408360, Note_on_c, 2, 65, 71
9, 408479, Note_on_c, 2, 60, 0
9, 408479, Note_on_c, 2, 65, 0
9, 408600, Note_on_c, 2, 62, 72
9, 408600, Note_on_c, 2, 65, 72
9, 408719, Note_on_c, 2, 62, 0
9, 408719, Note_on_c, 2, 65, 0
9, 408840, Note_on_c, 2, 64, 73
9, 408840, Note_on_c, 2, 60, 73
9, 408959, Note_on_c, 2, 64, 0
9, 408959, Note_on_c, 2, 60, 0
9, 409080, Note_on_c, 2, 60, 74
9, 409080, Note_on_c, 2, 62, 74
9, 409199, Note_on_c, 2, 60, 0
9, 409199, Note_on_c, 2, 62, 0
9, 409320, Note_on_c, 2, 67, 75
9, 409320, Note_on_c, 2, 59, 75
9, 409409, Note_on_c, 2, 67, 0
9, 409409, Note_on_c, 2, 59, 0
9, 409440, Note_on_c, 2, 60, 76
9, 409559, Note_on_c, 2, 60, 0
9, 413280, Note_on_c, 2, 64, 76
9, 413280, Note_on_c, 2, 60, 76
9, 413340, Control_c, 2, 11, 80
9, 413739, Note_on_c, 2, 64, 0
9, 413739, Note_on_c, 2, 60, 0
9, 413760, Note_on_c, 2, 65, 76
9, 413760, Note_on_c, 2, 62, 76
9, 414219, Note_on_c, 2, 65, 0
9, 414219, Note_on_c, 2, 62, 0
9, 414238, Control_c, 2, 11, 127
9, 414240, Note_on_c, 2, 64, 76
9, 414240, Note_on_c, 2, 60, 76
9, 414300, Control_c, 2, 11, 80
9, 414699, Note_on_c, 2, 64, 0
9, 414699, Note_on_c, 2, 60, 0
9, 414720, Note_on_c, 2, 62, 76
9, 414720, Note_on_c, 2, 65, 76
9, 415179, Note_on_c, 2, 62, 0
9, 415179, Note_on_c, 2, 65, 0
9, 415198, Control_c, 2, 11, 127
9, 415200, Note_on_c, 2, 60, 76
9, 415200, Note_on_c, 2, 64, 76
9, 415260, Control_c, 2, 11, 80
9, 415659, Note_on_c, 2, 60, 0
9, 415659, Note_on_c, 2, 64, 0
9, 415680, Note_on_c, 2, 65, 76
9, 415680, Note_on_c, 2, 62, 76
9, 416139, Note_on_c, 2, 65, 0
9, 416139, Note_on_c, 2, 62, 0
9, 416158, Control_c, 2, 11, 127
9, 416160, Note_on_c, 2, 60, 76
9, 416160, Note_on_c, 2, 64, 76
9, 416220, Control_c, 2, 11, 80
9, 416619, Note_on_c, 2, 60, 0
9, 416619, Note_on_c, 2, 64, 0
9, 416640, Note_on_c, 2, 65, 76
9, 416640, Note_on_c, 2, 62, 76
9, 417099, Note_on_c, 2, 65, 0
9, 417099, Note_on_c, 2, 62, 0
9, 417120, Note_on_c, 2, 64, 76
9, 417120, Note_on_c, 2, 60, 76
9, 417120, Control_c, 2, 11, 80
9, 417239, Note_on_c, 2, 64, 0
9, 417239, Note_on_c, 2, 60, 0
9, 417280, Control_c, 2, 11, 82
9, 417360, Note_on_c, 2, 72, 76
9, 417360, Note_on_c, 2, 64, 76
9, 417440, Control_c, 2, 11, 84
9, 417479, Note_on_c, 2, 72, 0
9, 417479, Note_on_c, 2, 64, 0
9, 417600, Control_c, 2, 11, 86
9, 417600, Note_on_c, 2, 64, 76
9, 417600, Note_on_c, 2, 72, 76
9, 417719, Note_on_c, 2, 64, 0
9, 417719, Note_on_c, 2, 72, 0
9, 417760, Control_c, 2, 11, 88
9, 417840, Note_on_c, 2, 65, 76
9, 417840, Note_on_c, 2, 72, 76
9, 417920, Control_c, 2, 11, 90
9, 417959, Note_on_c, 2, 65, 0
9, 417959, Note_on_c, 2, 72, 0
9, 418080, Control_c, 2, 11, 92
9, 418080, Note_on_c, 2, 62, 76
9, 418080, Note_on_c, 2, 71, 76
9, 418199, Note_on_c, 2, 62, 0
9, 418199, Note_on_c, 2, 71, 0
9, 418240, Control_c, 2, 11, 94
9, 418320, Note_on_c, 2, 64, 76
9, 418320, Note_on_c, 2, 72, 76
9, 418400, Control_c, 2, 11, 96
9, 418439, Note_on_c, 2, 64, 0
9, 418439, Note_on_c, 2, 72, 0
9, 418560, Note_on_c, 2, 62, 76
9, 418560, Control_c, 2, 11, 98
9, 418560, Note_on_c, 2, 71, 76
9, 418679, Note_on_c, 2, 62, 0
9, 418679, Note_on_c, 2, 71, 0
9, 418720, Control_c, 2, 11, 100
9, 418800, Note_on_c, 2, 64, 76
9, 418800, Note_on_c, 2, 72, 76
9, 418880, Control_c, 2, 11, 102
9, 418919, Note_on_c, 2, 64, 0
9, 418919, Note_on_c, 2, 72, 0
9, 419040, Note_on_c, 2, 64, 76
9, 419040, Note_on_c, 2, 72, 76
9, 419040, Control_c, 2, 11, 104
9, 419159, Note_on_c, 2, 64, 0
9, 419159, Note_on_c, 2, 72, 0
9, 419200, Control_c, 2, 11, 105
9, 419280, Note_on_c, 2, 72, 76
9, 419280, Note_on_c, 2, 64, 76
9, 419360, Control_c, 2, 11, 107
9, 419399, Note_on_c, 2, 72, 0
9, 419399, Note_on_c, 2, 64, 0
9, 419520, Note_on_c, 2, 72, 76
9, 419520, Note_on_c, 2, 60, 76
9, 419520, Control_c, 2, 11, 109
9, 419639, Note_on_c, 2, 72, 0
9, 419639, Note_on_c, 2, 60, 0
9, 419680, Control_c, 2, 11, 111
9, 419760, Note_on_c, 2, 72, 76
9, 419840, Control_c, 2, 11, 113
9, 419879, Note_on_c, 2, 72, 0
9, 420000, Note_on_c, 2, 71, 76
9, 420000, Note_on_c, 2, 62, 76
9, 420000, Control_c, 2, 11, 115
9, 420119, Note_on_c, 2, 71, 0
9, 420119, Note_on_c, 2, 62, 0
9, 420160, Control_c, 2, 11, 117
9, 420240, Note_on_c, 2, 72, 76
9, 420240, Note_on_c, 2, 64, 76
9, 420320, Control_c, 2, 11, 119
9, 420359, Note_on_c, 2, 72, 0
9, 420359, Note_on_c, 2, 64, 0
9, 420480, Control_c, 2, 11, 121
9, 420480, Note_on_c, 2, 71, 76
9, 420480, Note_on_c, 2, 62, 76
9, 420599, Note_on_c, 2, 71, 0
9, 420599, Note_on_c, 2, 62, 0
9, 420640, Control_c, 2, 11, 123
9, 420720, Note_on_c, 2, 72, 76
9, 420720, Note_on_c, 2, 64, 76
9, 420800, Control_c, 2, 11, 127
9, 420819, Note_on_c, 2, 72, 0
9, 420819, Note_on_c, 2, 64, 0
9, 420840, Note_on_c, 2, 64, 76
9, 420840, Note_on_c, 2, 72, 76
9, 420939, Note_on_c, 2, 64, 0
9, 420939, Note_on_c, 2, 72, 0
9, 420960, Note_on_c, 2, 72, 76
9, 420960, Note_on_c, 2, 64, 76
9, 421059, Note_on_c, 2, 72, 0
9, 421059, Note_on_c, 2, 64, 0
9, 421080, Note_on_c, 2, 72, 76
9, 421080, Note_on_c, 2, 64, 76
9, 421179, Note_on_c, 2, 72, 0
9, 421179, Note_on_c, 2, 64, 0
9, 421200, Note_on_c, 2, 72, 76
9, 421200, Note_on_c, 2, 64, 76
9, 421299, Note_on_c, 2, 72, 0
9, 421299, Note_on_c, 2, 64, 0
9, 421320, Note_on_c, 2, 72, 76
9, 421320, Note_on_c, 2, 64, 76
9, 421419, Note_on_c, 2, 72, 0
9, 421419, Note_on_c, 2, 64, 0
9, 421440, Note_on_c, 2, 72, 76
9, 421440, Note_on_c, 2, 60, 76
9, 421539, Note_on_c, 2, 72, 0
9, 421539, Note_on_c, 2, 60, 0
9, 421560, Note_on_c, 2, 72, 76
9, 421560, Note_on_c, 2, 60, 76
9, 421659, Note_on_c, 2, 72, 0
9, 421659, Note_on_c, 2, 60, 0
9, 421680, Note_on_c, 2, 72, 76
9, 421680, Note_on_c, 2, 65, 76
9, 421779, Note_on_c, 2, 72, 0
9, 421779, Note_on_c, 2, 65, 0
9, 421800, Note_on_c, 2, 72, 76
9, 421800, Note_on_c, 2, 65, 76
9, 421899, Note_on_c, 2, 72, 0
9, 421899, Note_on_c, 2, 65, 0
9, 421920, Note_on_c, 2, 71, 76
9, 421920, Note_on_c, 2, 62, 76
9, 422019, Note_on_c, 2, 71, 0
9, 422019, Note_on_c, 2, 62, 0
9, 422040, Note_on_c, 2, 71, 76
9, 422040, Note_on_c, 2, 62, 76
9, 422139, Note_on_c, 2, 71, 0
9, 422139, Note_on_c, 2, 62, 0
9, 422160, Note_on_c, 2, 72, 76
9, 422160, Note_on_c, 2, 64, 76
9, 422259, Note_on_c, 2, 72, 0
9, 422259, Note_on_c, 2, 64, 0
9, 422280, Note_on_c, 2, 72, 76
9, 422280, Note_on_c, 2, 64, 76
9, 422379, Note_on_c, 2, 72, 0
9, 422379, Note_on_c, 2, 64, 0
9, 422400, Note_on_c, 2, 72, 76
9, 422400, Note_on_c, 2, 65, 76
9, 422499, Note_on_c, 2, 72, 0
9, 422499, Note_on_c, 2, 65, 0
9, 422520, Note_on_c, 2, 72, 76
9, 422520, Note_on_c, 2, 65, 76
9, 422619, Note_on_c, 2, 72, 0
9, 422619, Note_on_c, 2, 65, 0
9, 422640, Note_on_c, 2, 71, 76
9, 422640, Note_on_c, 2, 65, 76
9, 422739, Note_on_c, 2, 71, 0
9, 422739, Note_on_c, 2, 65, 0
9, 422760, Note_on_c, 2, 71, 76
9, 422760, Note_on_c, 2, 65, 76
9, 422859, Note_on_c, 2, 71, 0
9, 422859, Note_on_c, 2, 65, 0
9, 422880, Note_on_c, 2, 72, 84
9, 422880, Note_on_c, 2, 64, 84
9, 423099, Note_on_c, 2, 72, 0
9, 423099, Note_on_c, 2, 64, 0
9, 423120, Note_on_c, 2, 76, 84
9, 423120, Note_on_c, 2, 64, 84
9, 423339, Note_on_c, 2, 76, 0
9, 423339, Note_on_c, 2, 64, 0
9, 423360, Note_on_c, 2, 79, 84
9, 423360, Note_on_c, 2, 67, 84
9, 423699, Note_on_c, 2, 79, 0
9, 423699, Note_on_c, 2, 67, 0
9, 423720, Note_on_c, 2, 77, 84
9, 423720, Note_on_c, 2, 65, 84
9, 423819, Note_on_c, 2, 77, 0
9, 423819, Note_on_c, 2, 65, 0
9, 423840, Note_on_c, 2, 76, 84
9, 423840, Note_on_c, 2, 64, 84
9, 423939, Note_on_c, 2, 76, 0
9, 423939, Note_on_c, 2, 64, 0
9, 423960, Note_on_c, 2, 74, 84
9, 423960, Note_on_c, 2, 62, 84
9, 424059, Note_on_c, 2, 74, 0
9, 424059, Note_on_c, 2, 62, 0
9, 424080, Note_on_c, 2, 72, 84
9, 424080, Note_on_c, 2, 60, 84
9, 424179, Note_on_c, 2, 72, 0
9, 424179, Note_on_c, 2, 60, 0
9, 424200, Note_on_c, 2, 74, 84
9, 424200, Note_on_c, 2, 62, 84
9, 424299, Note_on_c, 2, 74, 0
9, 424299, Note_on_c, 2, 62, 0
9, 424320, Note_on_c, 2, 76, 84
9, 424320, Note_on_c, 2, 64, 84
9, 424659, Note_on_c, 2, 76, 0
9, 424659, Note_on_c, 2, 64, 0
9, 424680, Note_on_c, 2, 76, 84
9, 424680, Note_on_c, 2, 64, 84
9, 424779, Note_on_c, 2, 76, 0
9, 424779, Note_on_c, 2, 64, 0
9, 424800, Note_on_c, 2, 76, 84
9, 424800, Note_on_c, 2, 64, 84
9, 424899, Note_on_c, 2, 76, 0
9, 424899, Note_on_c, 2, 64, 0
9, 424920, Note_on_c, 2, 74, 84
9, 424920, Note_on_c, 2, 62, 84
9, 425019, Note_on_c, 2, 74, 0
9, 425019, Note_on_c, 2, 62, 0
9, 425040, Note_on_c, 2, 76, 84
9, 425040, Note_on_c, 2, 64, 84
9, 425139, Note_on_c, 2, 76, 0
9, 425139, Note_on_c, 2, 64, 0
9, 425160, Note_on_c, 2, 77, 84
9, 425160, Note_on_c, 2, 65, 84
9, 425259, Note_on_c, 2, 77, 0
9, 425259, Note_on_c, 2, 65, 0
9, 425280, Note_on_c, 2, 79, 84
9, 425280, Note_on_c, 2, 67, 84
9, 425619, Note_on_c, 2, 79, 0
9, 425619, Note_on_c, 2, 67, 0
9, 425640, Note_on_c, 2, 79, 84
9, 425640, Note_on_c, 2, 67, 84
9, 425739, Note_on_c, 2, 79, 0
9, 425739, Note_on_c, 2, 67, 0
9, 425760, Note_on_c, 2, 79, 84
9, 425760, Note_on_c, 2, 67, 84
9, 425859, Note_on_c, 2, 79, 0
9, 425859, Note_on_c, 2, 67, 0
9, 425880, Note_on_c, 2, 77, 84
9, 425880, Note_on_c, 2, 65, 84
9, 425979, Note_on_c, 2, 77, 0
9, 425979, Note_on_c, 2, 65, 0
9, 426000, Note_on_c, 2, 79, 84
9, 426000, Note_on_c, 2, 67, 84
9, 426099, Note_on_c, 2, 79, 0
9, 426099, Note_on_c, 2, 67, 0
9, 426120, Note_on_c, 2, 83, 84
9, 426120, Note_on_c, 2, 71, 84
9, 426219, Note_on_c, 2, 83, 0
9, 426219, Note_on_c, 2, 71, 0
9, 426240, Note_on_c, 2, 84, 84
9, 426240, Note_on_c, 2, 72, 84
9, 426579, Note_on_c, 2, 84, 0
9, 426579, Note_on_c, 2, 72, 0
9, 426600, Note_on_c, 2, 71, 84
9, 426699, Note_on_c, 2, 71, 0
9, 426720, Note_on_c, 2, 72, 84
9, 426819, Note_on_c, 2, 72, 0
9, 426840, Note_on_c, 2, 71, 84
9, 426939, Note_on_c, 2, 71, 0
9, 426960, Note_on_c, 2, 72, 84
9, 427059, Note_on_c, 2, 72, 0
9, 427080, Note_on_c, 2, 74, 84
9, 427179, Note_on_c, 2, 74, 0
9, 427200, Note_on_c, 2, 76, 84
9, 427299, Note_on_c, 2, 76, 0
9, 427320, Note_on_c, 2, 74, 84
9, 427419, Note_on_c, 2, 74, 0
9, 427440, Note_on_c, 2, 76, 84
9, 427539, Note_on_c, 2, 76, 0
9, 427560, Note_on_c, 2, 77, 84
9, 427659, Note_on_c, 2, 77, 0
9, 427680, Note_on_c, 2, 79, 84
9, 428619, Note_on_c, 2, 79, 0
9, 428640, Note_on_c, 2, 76, 84
9, 429579, Note_on_c, 2, 76, 0
9, 429600, Note_on_c, 2, 72, 84
9, 429719, Note_on_c, 2, 72, 0
9, 430080, Note_on_c, 2, 74, 84
9, 430080, Note_on_c, 2, 71, 84
9, 430199, Note_on_c, 2, 74, 0
9, 430199, Note_on_c, 2, 71, 0
9, 430560, Note_on_c, 2, 76, 84
9, 430560, Note_on_c, 2, 72, 84
9, 430679, Note_on_c, 2, 76, 0
9, 430679, Note_on_c, 2, 72, 0
9, 431040, Note_on_c, 2, 74, 84
9, 431040, Note_on_c, 2, 71, 84
9, 431159, Note_on_c, 2, 74, 0
9, 431159, Note_on_c, 2, 71, 0
9, 431520, Note_on_c, 2, 76, 84
9, 431520, Note_on_c, 2, 72, 84
9, 431639, Note_on_c, 2, 76, 0
9, 431639, Note_on_c, 2, 72, 0
9, 432000, Note_on_c, 2, 74, 84
9, 432000, Note_on_c, 2, 71, 84
9, 432119, Note_on_c, 2, 74, 0
9, 432119, Note_on_c, 2, 71, 0
9, 432480, Note_on_c, 2, 76, 84
9, 432480, Note_on_c, 2, 72, 84
9, 432599, Note_on_c, 2, 76, 0
9, 432599, Note_on_c, 2, 72, 0
9, 432960, Note_on_c, 2, 79, 84
9, 432960, Note_on_c, 2, 71, 84
9, 433079, Note_on_c, 2, 79, 0
9, 433079, Note_on_c, 2, 71, 0
9, 433440, Note_on_c, 2, 76, 84
9, 433440, Note_on_c, 2, 72, 84
9, 433559, Note_on_c, 2, 76, 0
9, 433559, Note_on_c, 2, 72, 0
9, 433920, Note_on_c, 2, 79, 84
9, 433920, Note_on_c, 2, 71, 84
9, 434039, Note_on_c, 2, 79, 0
9, 434039, Note_on_c, 2, 71, 0
9, 434400, Note_on_c, 2, 76, 84
9, 434400, Note_on_c, 2, 72, 84
9, 434519, Note_on_c, 2, 76, 0
9, 434519, Note_on_c, 2, 72, 0
9, 434880, Note_on_c, 2, 79, 84
9, 434880, Note_on_c, 2, 71, 84
9, 434999, Note_on_c, 2, 79, 0
9, 434999, Note_on_c, 2, 71, 0
9, 435360, Note_on_c, 2, 76, 84
9, 435360, Note_on_c, 2, 72, 84
9, 436299, Note_on_c, 2, 76, 0
9, 436299, Note_on_c, 2, 72, 0
9, 436320, Note_on_c, 2, 84, 84
9, 436320, Note_on_c, 2, 72, 84
9, 437019, Note_on_c, 2, 84, 0
9, 437019, Note_on_c, 2, 72, 0
9, 437040, Note_on_c, 2, 79, 84
9, 437040, Note_on_c, 2, 67, 84
9, 437139, Note_on_c, 2, 79, 0
9, 437139, Note_on_c, 2, 67, 0
9, 437160, Note_on_c, 2, 76, 84
9, 437160, Note_on_c, 2, 64, 84
9, 437259, Note_on_c, 2, 76, 0
9, 437259, Note_on_c, 2, 64, 0
9, 437280, Note_on_c, 2, 72, 84
9, 437399, Note_on_c, 2, 72, 0
9, 437640, Note_on_c, 2, 72, 84
9, 437640, Note_on_c, 2, 64, 84
9, 437739, Note_on_c, 2, 72, 0
9, 437739, Note_on_c, 2, 64, 0
9, 437760, Note_on_c, 2, 72, 84
9, 437760, Note_on_c, 2, 64, 84
9, 437859, Note_on_c, 2, 72, 0
9, 437859, Note_on_c, 2, 64, 0
9, 437880, Note_on_c, 2, 72, 84
9, 437880, Note_on_c, 2, 64, 84
9, 437979, Note_on_c, 2, 72, 0
9, 437979, Note_on_c, 2, 64, 0
9, 438000, Note_on_c, 2, 72, 84
9, 438000, Note_on_c, 2, 64, 84
9, 438099, Note_on_c, 2, 72, 0
9, 438099, Note_on_c, 2, 64, 0
9, 438120, Note_on_c, 2, 72, 84
9, 438120, Note_on_c, 2, 64, 84
9, 438219, Note_on_c, 2, 72, 0
9, 438219, Note_on_c, 2, 64, 0
9, 438240, Note_on_c, 2, 72, 84
9, 438240, Note_on_c, 2, 64, 84
9, 438359, Note_on_c, 2, 72, 0
9, 438359, Note_on_c, 2, 64, 0
9, 438600, Note_on_c, 2, 76, 84
9, 438600, Note_on_c, 2, 72, 84
9, 438699, Note_on_c, 2, 76, 0
9, 438699, Note_on_c, 2, 72, 0
9, 438720, Note_on_c, 2, 76, 84
9, 438720, Note_on_c, 2, 72, 84
9, 438819, Note_on_c, 2, 76, 0
9, 438819, Note_on_c, 2, 72, 0
9, 438840, Note_on_c, 2, 76, 84
9, 438840, Note_on_c, 2, 72, 84
9, 438939, Note_on_c, 2, 76, 0
9, 438939, Note_on_c, 2, 72, 0
9, 438960, Note_on_c, 2, 76, 84
9, 438960, Note_on_c, 2, 72, 84
9, 439059, Note_on_c, 2, 76, 0
9, 439059, Note_on_c, 2, 72, 0
9, 439080, Note_on_c, 2, 76, 84
9, 439080, Note_on_c, 2, 72, 84
9, 439179, Note_on_c, 2, 76, 0
9, 439179, Note_on_c, 2, 72, 0
9, 439200, Note_on_c, 2, 76, 84
9, 439200, Note_on_c, 2, 72, 84
9, 439319, Note_on_c, 2, 76, 0
9, 439319, Note_on_c, 2, 72, 0
9, 439440, Note_on_c, 2, 72, 84
9, 439440, Note_on_c, 2, 64, 84
9, 439539, Note_on_c, 2, 72, 0
9, 439539, Note_on_c, 2, 64, 0
9, 439560, Note_on_c, 2, 72, 84
9, 439560, Note_on_c, 2, 64, 84
9, 439659, Note_on_c, 2, 72, 0
9, 439659, Note_on_c, 2, 64, 0
9, 439680, Note_on_c, 2, 72, 84
9, 439680, Note_on_c, 2, 64, 84
9, 439799, Note_on_c, 2, 72, 0
9, 439799, Note_on_c, 2, 64, 0
9, 439920, Note_on_c, 2, 76, 84
9, 439920, Note_on_c, 2, 72, 84
9, 440019, Note_on_c, 2, 76, 0
9, 440019, Note_on_c, 2, 72, 0
9, 440040, Note_on_c, 2, 76, 84
9, 440040, Note_on_c, 2, 72, 84
9, 440139, Note_on_c, 2, 76, 0
9, 440139, Note_on_c, 2, 72, 0
9, 440160, Note_on_c, 2, 76, 84
9, 440160, Note_on_c, 2, 72, 84
9, 440279, Note_on_c, 2, 76, 0
9, 440279, Note_on_c, 2, 72, 0
9, 440400, Note_on_c, 2, 67, 84
9, 440400, Note_on_c, 2, 64, 84
9, 440499, Note_on_c, 2, 67, 0
9, 440499, Note_on_c, 2, 64, 0
9, 440520, Note_on_c, 2, 67, 84
9, 440520, Note_on_c, 2, 64, 84
9, 440619, Note_on_c, 2, 67, 0
9, 440619, Note_on_c, 2, 64, 0
9, 440640, Note_on_c, 2, 67, 84
9, 440640, Note_on_c, 2, 64, 84
9, 440759, Note_on_c, 2, 67, 0
9, 440759, Note_on_c, 2, 64, 0
9, 440880, Note_on_c, 2, 72, 84
9, 440880, Note_on_c, 2, 64, 84
9, 440979, Note_on_c, 2, 72, 0
9, 440979, Note_on_c, 2, 64, 0
9, 441000, Note_on_c, 2, 72, 84
9, 441000, Note_on_c, 2, 64, 84
9, 441099, Note_on_c, 2, 72, 0
9, 441099, Note_on_c, 2, 64, 0
9, 441120, Note_on_c, 2, 72, 84
9, 441120, Note_on_c, 2, 64, 84
9, 442059, Note_on_c, 2, 72, 0
9, 442059, Note_on_c, 2, 64, 0
9, 442080, Note_on_c, 2, 76, 84
9, 442080, Note_on_c, 2, 72, 84
9, 443019, Note_on_c, 2, 76, 0
9, 443019, Note_on_c, 2, 72, 0
9, 443040, Note_on_c, 2, 76, 84
9, 443040, Note_on_c, 2, 72, 84
9, 443159, Note_on_c, 2, 76, 0
9, 443159, Note_on_c, 2, 72, 0
9, 444000, Note_on_c, 2, 72, 84
9, 444000, Note_on_c, 2, 64, 84
9, 444119, Note_on_c, 2, 72, 0
9, 444119, Note_on_c, 2, 64, 0
9, 444960, Note_on_c, 2, 72, 84
9, 444960, Note_on_c, 2, 64, 84
9, 445079, Note_on_c, 2, 72, 0
9, 445079, Note_on_c, 2, 64, 0
9, 445920, Note_on_c, 2, 72, 84
9, 445920, Note_on_c, 2, 64, 84
9, 446039, Note_on_c, 2, 72, 0
9, 446039, Note_on_c, 2, 64, 0
9, 446400, Note_on_c, 2, 72, 84
9, 446400, Note_on_c, 2, 64, 84
9, 446519, Note_on_c, 2, 72, 0
9, 446519, Note_on_c, 2, 64, 0
9, 446880, Note_on_c, 2, 72, 84
9, 446880, Note_on_c, 2, 64, 84
9, 446999, Note_on_c, 2, 72, 0
9, 446999, Note_on_c, 2, 64, 0
9, 447840, Note_on_c, 2, 72, 84
9, 447840, Note_on_c, 2, 64, 84
9, 447959, Note_on_c, 2, 72, 0
9, 447959, Note_on_c, 2, 64, 0
9, 448800, Note_on_c, 2, 60, 84
9, 451199, Note_on_c, 2, 60, 0
9, 451199, End_track
10, 0, Start_track
10, 0, Title_t, "Bassoon"
10, 0, MIDI_port, 0
10, 0, Program_c, 3, 70
10, 0, Control_c, 3, 7, 96
10, 0, Control_c, 3, 10, 65
10, 0, Control_c, 3, 11, 127
10, 0, Note_on_c, 3, 48, 84
10, 479, Note_on_c, 3, 48, 0
10, 480, Note_on_c, 3, 52, 84
10, 480, Note_on_c, 3, 48, 84
10, 959, Note_on_c, 3, 52, 0
10, 959, Note_on_c, 3, 48, 0
10, 960, Note_on_c, 3, 55, 84
10, 960, Note_on_c, 3, 52, 84
10, 1664, Note_on_c, 3, 55, 0
10, 1664, Note_on_c, 3, 52, 0
10, 1680, Note_on_c, 3, 50, 84
10, 1680, Note_on_c, 3, 53, 84
10, 1799, Note_on_c, 3, 50, 0
10, 1799, Note_on_c, 3, 53, 0
10, 1920, Note_on_c, 3, 48, 84
10, 1920, Note_on_c, 3, 52, 84
10, 2039, Note_on_c, 3, 48, 0
10, 2039, Note_on_c, 3, 52, 0
10, 2160, Note_on_c, 3, 43, 84
10, 2160, Note_on_c, 3, 50, 84
10, 2279, Note_on_c, 3, 43, 0
10, 2279, Note_on_c, 3, 50, 0
10, 2400, Note_on_c, 3, 48, 84
10, 2519, Note_on_c, 3, 48, 0
10, 2640, Note_on_c, 3, 50, 84
10, 2640, Note_on_c, 3, 43, 84
10, 2759, Note_on_c, 3, 50, 0
10, 2759, Note_on_c, 3, 43, 0
10, 2880, Note_on_c, 3, 48, 84
10, 3584, Note_on_c, 3, 48, 0
10, 3600, Note_on_c, 3, 48, 84
10, 3771, Note_on_c, 3, 48, 0
10, 3780, Note_on_c, 3, 48, 84
10, 3831, Note_on_c, 3, 48, 0
10, 3840, Note_on_c, 3, 50, 84
10, 3840, Note_on_c, 3, 47, 84
10, 4544, Note_on_c, 3, 50, 0
10, 4544, Note_on_c, 3, 47, 0
10, 4560, Note_on_c, 3, 47, 84
10, 4560, Note_on_c, 3, 50, 84
10, 4731, Note_on_c, 3, 47, 0
10, 4731, Note_on_c, 3, 50, 0
10, 4740, Note_on_c, 3, 50, 84
10, 4740, Note_on_c, 3, 47, 84
10, 4791, Note_on_c, 3, 50, 0
10, 4791, Note_on_c, 3, 47, 0
10, 4800, Note_on_c, 3, 52, 84
10, 4800, Note_on_c, 3, 48, 84
10, 5384, Note_on_c, 3, 52, 0
10, 5384, Note_on_c, 3, 48, 0
10, 5400, Note_on_c, 3, 60, 84
10, 5504, Note_on_c, 3, 60, 0
10, 5520, Note_on_c, 3, 59, 84
10, 5624, Note_on_c, 3, 59, 0
10, 5640, Note_on_c, 3, 58, 84
10, 5744, Note_on_c, 3, 58, 0
10, 5760, Note_on_c, 3, 53, 84
10, 5760, Note_on_c, 3, 57, 84
10, 6704, Note_on_c, 3, 53, 0
10, 6704, Note_on_c, 3, 57, 0
10, 6720, Note_on_c, 3, 55, 84
10, 6720, Note_on_c, 3, 52, 84
10, 7664, Note_on_c, 3, 55, 0
10, 7664, Note_on_c, 3, 52, 0
10, 7680, Note_on_c, 3, 53, 84
10, 7680, Note_on_c, 3, 57, 84
10, 8624, Note_on_c, 3, 53, 0
10, 8624, Note_on_c, 3, 57, 0
10, 8640, Note_on_c, 3, 55, 84
10, 8640, Note_on_c, 3, 52, 84
10, 9584, Note_on_c, 3, 55, 0
10, 9584, Note_on_c, 3, 52, 0
10, 9600, Note_on_c, 3, 53, 84
10, 9600, Note_on_c, 3, 57, 84
10, 10544, Note_on_c, 3, 53, 0
10, 10544, Note_on_c, 3, 57, 0
10, 10560, Note_on_c, 3, 55, 84
10, 10560, Note_on_c, 3, 52, 84
10, 11264, Note_on_c, 3, 55, 0
10, 11264, Note_on_c, 3, 52, 0
10, 11280, Note_on_c, 3, 52, 84
10, 11280, Note_on_c, 3, 55, 84
10, 11504, Note_on_c, 3, 52, 0
10, 11504, Note_on_c, 3, 55, 0
10, 11520, Note_on_c, 3, 53, 84
10, 11520, Note_on_c, 3, 50, 84
10, 11984, Note_on_c, 3, 53, 0
10, 11984, Note_on_c, 3, 50, 0
10, 12000, Note_on_c, 3, 48, 84
10, 12000, Note_on_c, 3, 52, 84
10, 12464, Note_on_c, 3, 48, 0
10, 12464, Note_on_c, 3, 52, 0
10, 12480, Note_on_c, 3, 47, 84
10, 12480, Note_on_c, 3, 50, 84
10, 12704, Note_on_c, 3, 47, 0
10, 12704, Note_on_c, 3, 50, 0
10, 12720, Note_on_c, 3, 50, 84
10, 12720, Note_on_c, 3, 47, 84
10, 13184, Note_on_c, 3, 50, 0
10, 13184, Note_on_c, 3, 47, 0
10, 13200, Note_on_c, 3, 48, 84
10, 13200, Note_on_c, 3, 52, 84
10, 13371, Note_on_c, 3, 48, 0
10, 13371, Note_on_c, 3, 52, 0
10, 13380, Note_on_c, 3, 52, 84
10, 13380, Note_on_c, 3, 48, 84
10, 13431, Note_on_c, 3, 52, 0
10, 13431, Note_on_c, 3, 48, 0
10, 13440, Note_on_c, 3, 50, 84
10, 13440, Note_on_c, 3, 53, 84
10, 13904, Note_on_c, 3, 50, 0
10, 13904, Note_on_c, 3, 53, 0
10, 13920, Note_on_c, 3, 52, 84
10, 13920, Note_on_c, 3, 48, 84
10, 14384, Note_on_c, 3, 52, 0
10, 14384, Note_on_c, 3, 48, 0
10, 14400, Note_on_c, 3, 50, 84
10, 14400, Note_on_c, 3, 47, 84
10, 14624, Note_on_c, 3, 50, 0
10, 14624, Note_on_c, 3, 47, 0
10, 14640, Note_on_c, 3, 50, 84
10, 14640, Note_on_c, 3, 47, 84
10, 15104, Note_on_c, 3, 50, 0
10, 15104, Note_on_c, 3, 47, 0
10, 15120, Note_on_c, 3, 52, 84
10, 15120, Note_on_c, 3, 48, 84
10, 15291, Note_on_c, 3, 52, 0
10, 15291, Note_on_c, 3, 48, 0
10, 15300, Note_on_c, 3, 52, 84
10, 15300, Note_on_c, 3, 48, 84
10, 15351, Note_on_c, 3, 52, 0
10, 15351, Note_on_c, 3, 48, 0
10, 15360, Note_on_c, 3, 53, 84
10, 15360, Note_on_c, 3, 50, 84
10, 15449, Note_on_c, 3, 53, 0
10, 15449, Note_on_c, 3, 50, 0
10, 15540, Note_on_c, 3, 53, 84
10, 15540, Note_on_c, 3, 50, 84
10, 15584, Note_on_c, 3, 53, 0
10, 15584, Note_on_c, 3, 50, 0
10, 15600, Note_on_c, 3, 50, 84
10, 15600, Note_on_c, 3, 53, 84
10, 15689, Note_on_c, 3, 50, 0
10, 15689, Note_on_c, 3, 53, 0
10, 15780, Note_on_c, 3, 50, 84
10, 15780, Note_on_c, 3, 53, 84
10, 15824, Note_on_c, 3, 50, 0
10, 15824, Note_on_c, 3, 53, 0
10, 15840, Note_on_c, 3, 52, 84
10, 15840, Note_on_c, 3, 48, 84
10, 15929, Note_on_c, 3, 52, 0
10, 15929, Note_on_c, 3, 48, 0
10, 16020, Note_on_c, 3, 48, 84
10, 16020, Note_on_c, 3, 52, 84
10, 16064, Note_on_c, 3, 48, 0
10, 16064, Note_on_c, 3, 52, 0
10, 16080, Note_on_c, 3, 48, 84
10, 16080, Note_on_c, 3, 52, 84
10, 16169, Note_on_c, 3, 48, 0
10, 16169, Note_on_c, 3, 52, 0
10, 16260, Note_on_c, 3, 52, 84
10, 16260, Note_on_c, 3, 48, 84
10, 16304, Note_on_c, 3, 52, 0
10, 16304, Note_on_c, 3, 48, 0
10, 16320, Note_on_c, 3, 43, 84
10, 16320, Note_on_c, 3, 50, 84
10, 16544, Note_on_c, 3, 43, 0
10, 16544, Note_on_c, 3, 50, 0
10, 16560, Note_on_c, 3, 59, 84
10, 16560, Note_on_c, 3, 55, 84
10, 16784, Note_on_c, 3, 59, 0
10, 16784, Note_on_c, 3, 55, 0
10, 16800, Note_on_c, 3, 64, 84
10, 16800, Note_on_c, 3, 60, 84
10, 17024, Note_on_c, 3, 64, 0
10, 17024, Note_on_c, 3, 60, 0
10, 17040, Note_on_c, 3, 60, 84
10, 17040, Note_on_c, 3, 64, 84
10, 17264, Note_on_c, 3, 60, 0
10, 17264, Note_on_c, 3, 64, 0
10, 17280, Note_on_c, 3, 62, 84
10, 17280, Note_on_c, 3, 59, 84
10, 17504, Note_on_c, 3, 62, 0
10, 17504, Note_on_c, 3, 59, 0
10, 17520, Note_on_c, 3, 55, 84
10, 17520, Note_on_c, 3, 59, 84
10, 17744, Note_on_c, 3, 55, 0
10, 17744, Note_on_c, 3, 59, 0
10, 17760, Note_on_c, 3, 64, 84
10, 17760, Note_on_c, 3, 60, 84
10, 17984, Note_on_c, 3, 64, 0
10, 17984, Note_on_c, 3, 60, 0
10, 18000, Note_on_c, 3, 64, 84
10, 18000, Note_on_c, 3, 60, 84
10, 18224, Note_on_c, 3, 64, 0
10, 18224, Note_on_c, 3, 60, 0
10, 18240, Note_on_c, 3, 62, 84
10, 18240, Note_on_c, 3, 59, 84
10, 18359, Note_on_c, 3, 62, 0
10, 18359, Note_on_c, 3, 59, 0
10, 18420, Note_on_c, 3, 60, 84
10, 18420, Note_on_c, 3, 55, 84
10, 18471, Note_on_c, 3, 60, 0
10, 18471, Note_on_c, 3, 55, 0
10, 18480, Note_on_c, 3, 64, 84
10, 18480, Note_on_c, 3, 60, 84
10, 18704, Note_on_c, 3, 64, 0
10, 18704, Note_on_c, 3, 60, 0
10, 18720, Note_on_c, 3, 59, 84
10, 18720, Note_on_c, 3, 62, 84
10, 18839, Note_on_c, 3, 59, 0
10, 18839, Note_on_c, 3, 62, 0
10, 18900, Note_on_c, 3, 60, 84
10, 18900, Note_on_c, 3, 55, 84
10, 18951, Note_on_c, 3, 60, 0
10, 18951, Note_on_c, 3, 55, 0
10, 18960, Note_on_c, 3, 60, 84
10, 18960, Note_on_c, 3, 64, 84
10, 19184, Note_on_c, 3, 60, 0
10, 19184, Note_on_c, 3, 64, 0
10, 19200, Note_on_c, 3, 62, 84
10, 19200, Note_on_c, 3, 59, 84
10, 19319, Note_on_c, 3, 62, 0
10, 19319, Note_on_c, 3, 59, 0
10, 19380, Note_on_c, 3, 55, 84
10, 19380, Note_on_c, 3, 60, 84
10, 19431, Note_on_c, 3, 55, 0
10, 19431, Note_on_c, 3, 60, 0
10, 19440, Note_on_c, 3, 64, 84
10, 19440, Note_on_c, 3, 60, 84
10, 19664, Note_on_c, 3, 64, 0
10, 19664, Note_on_c, 3, 60, 0
10, 19680, Note_on_c, 3, 62, 84
10, 19680, Note_on_c, 3, 59, 84
10, 19799, Note_on_c, 3, 62, 0
10, 19799, Note_on_c, 3, 59, 0
10, 19860, Note_on_c, 3, 55, 84
10, 19860, Note_on_c, 3, 60, 84
10, 19911, Note_on_c, 3, 55, 0
10, 19911, Note_on_c, 3, 60, 0
10, 19920, Note_on_c, 3, 60, 84
10, 19920, Note_on_c, 3, 64, 84
10, 20144, Note_on_c, 3, 60, 0
10, 20144, Note_on_c, 3, 64, 0
10, 20160, Note_on_c, 3, 62, 84
10, 20160, Note_on_c, 3, 59, 84
10, 20279, Note_on_c, 3, 62, 0
10, 20279, Note_on_c, 3, 59, 0
10, 20760, Note_on_c, 3, 64, 84
10, 20879, Note_on_c, 3, 64, 0
10, 20880, Note_on_c, 3, 62, 92
10, 20999, Note_on_c, 3, 62, 0
10, 21000, Note_on_c, 3, 60, 84
10, 21089, Note_on_c, 3, 60, 0
10, 21120, Note_on_c, 3, 59, 84
10, 21209, Note_on_c, 3, 59, 0
10, 21240, Note_on_c, 3, 64, 92
10, 21359, Note_on_c, 3, 64, 0
10, 21360, Note_on_c, 3, 62, 84
10, 21464, Note_on_c, 3, 62, 0
10, 21480, Note_on_c, 3, 60, 84
10, 21569, Note_on_c, 3, 60, 0
10, 21600, Note_on_c, 3, 59, 84
10, 21689, Note_on_c, 3, 59, 0
10, 21720, Note_on_c, 3, 60, 92
10, 21839, Note_on_c, 3, 60, 0
10, 21840, Note_on_c, 3, 59, 84
10, 21944, Note_on_c, 3, 59, 0
10, 21960, Note_on_c, 3, 57, 84
10, 22049, Note_on_c, 3, 57, 0
10, 22080, Note_on_c, 3, 55, 84
10, 22169, Note_on_c, 3, 55, 0
10, 22200, Note_on_c, 3, 60, 92
10, 22319, Note_on_c, 3, 60, 0
10, 22320, Note_on_c, 3, 59, 84
10, 22424, Note_on_c, 3, 59, 0
10, 22440, Note_on_c, 3, 57, 84
10, 22529, Note_on_c, 3, 57, 0
10, 22560, Note_on_c, 3, 55, 84
10, 22649, Note_on_c, 3, 55, 0
10, 22680, Note_on_c, 3, 60, 92
10, 22799, Note_on_c, 3, 60, 0
10, 22800, Note_on_c, 3, 59, 84
10, 22904, Note_on_c, 3, 59, 0
10, 22920, Note_on_c, 3, 57, 84
10, 23009, Note_on_c, 3, 57, 0
10, 23040, Note_on_c, 3, 55, 84
10, 23129, Note_on_c, 3, 55, 0
10, 23160, Note_on_c, 3, 60, 92
10, 23279, Note_on_c, 3, 60, 0
10, 23280, Note_on_c, 3, 59, 84
10, 23384, Note_on_c, 3, 59, 0
10, 23400, Note_on_c, 3, 57, 84
10, 23489, Note_on_c, 3, 57, 0
10, 23520, Note_on_c, 3, 55, 84
10, 23609, Note_on_c, 3, 55, 0
10, 23640, Note_on_c, 3, 53, 84
10, 23729, Note_on_c, 3, 53, 0
10, 23760, Note_on_c, 3, 52, 84
10, 23849, Note_on_c, 3, 52, 0
10, 23880, Note_on_c, 3, 50, 84
10, 23969, Note_on_c, 3, 50, 0
10, 24000, Note_on_c, 3, 60, 84
10, 24000, Note_on_c, 3, 52, 84
10, 24704, Note_on_c, 3, 60, 0
10, 24704, Note_on_c, 3, 52, 0
10, 24720, Note_on_c, 3, 52, 84
10, 24720, Note_on_c, 3, 55, 84
10, 24959, Note_on_c, 3, 52, 0
10, 24959, Note_on_c, 3, 55, 0
10, 24960, Note_on_c, 3, 55, 84
10, 24960, Note_on_c, 3, 64, 84
10, 25679, Note_on_c, 3, 55, 0
10, 25679, Note_on_c, 3, 64, 0
10, 25680, Note_on_c, 3, 62, 84
10, 25680, Note_on_c, 3, 53, 84
10, 25859, Note_on_c, 3, 62, 0
10, 25859, Note_on_c, 3, 53, 0
10, 25860, Note_on_c, 3, 60, 84
10, 25860, Note_on_c, 3, 52, 84
10, 25911, Note_on_c, 3, 60, 0
10, 25911, Note_on_c, 3, 52, 0
10, 25920, Note_on_c, 3, 59, 84
10, 25920, Note_on_c, 3, 50, 84
10, 26159, Note_on_c, 3, 59, 0
10, 26159, Note_on_c, 3, 50, 0
10, 27840, Note_on_c, 3, 62, 84
10, 27840, Note_on_c, 3, 59, 84
10, 28544, Note_on_c, 3, 62, 0
10, 28544, Note_on_c, 3, 59, 0
10, 28560, Note_on_c, 3, 55, 84
10, 28799, Note_on_c, 3, 55, 0
10, 28800, Note_on_c, 3, 62, 84
10, 28800, Note_on_c, 3, 65, 84
10, 29519, Note_on_c, 3, 62, 0
10, 29519, Note_on_c, 3, 65, 0
10, 29520, Note_on_c, 3, 64, 84
10, 29520, Note_on_c, 3, 60, 84
10, 29699, Note_on_c, 3, 64, 0
10, 29699, Note_on_c, 3, 60, 0
10, 29700, Note_on_c, 3, 62, 84
10, 29700, Note_on_c, 3, 59, 84
10, 29751, Note_on_c, 3, 62, 0
10, 29751, Note_on_c, 3, 59, 0
10, 29760, Note_on_c, 3, 59, 84
10, 29760, Note_on_c, 3, 62, 84
10, 29999, Note_on_c, 3, 59, 0
10, 29999, Note_on_c, 3, 62, 0
10, 30000, Note_on_c, 3, 64, 84
10, 30000, Note_on_c, 3, 60, 84
10, 31664, Note_on_c, 3, 64, 0
10, 31664, Note_on_c, 3, 60, 0
10, 31680, Note_on_c, 3, 48, 84
10, 31680, Note_on_c, 3, 52, 84
10, 31784, Note_on_c, 3, 48, 0
10, 31800, Note_on_c, 3, 47, 84
10, 31904, Note_on_c, 3, 47, 0
10, 31920, Note_on_c, 3, 48, 84
10, 32024, Note_on_c, 3, 48, 0
10, 32040, Note_on_c, 3, 48, 84
10, 32144, Note_on_c, 3, 48, 0
10, 32160, Note_on_c, 3, 48, 84
10, 32744, Note_on_c, 3, 48, 0
10, 32760, Note_on_c, 3, 47, 84
10, 32864, Note_on_c, 3, 47, 0
10, 32880, Note_on_c, 3, 48, 84
10, 32984, Note_on_c, 3, 48, 0
10, 33000, Note_on_c, 3, 48, 84
10, 33104, Note_on_c, 3, 52, 0
10, 33104, Note_on_c, 3, 48, 0
10, 33120, Note_on_c, 3, 52, 84
10, 33120, Note_on_c, 3, 48, 84
10, 33344, Note_on_c, 3, 52, 0
10, 33360, Note_on_c, 3, 54, 84
10, 33539, Note_on_c, 3, 54, 0
10, 33540, Note_on_c, 3, 55, 84
10, 33591, Note_on_c, 3, 55, 0
10, 33600, Note_on_c, 3, 54, 84
10, 33704, Note_on_c, 3, 48, 0
10, 33720, Note_on_c, 3, 49, 84
10, 33824, Note_on_c, 3, 49, 0
10, 33840, Note_on_c, 3, 50, 84
10, 33944, Note_on_c, 3, 50, 0
10, 33960, Note_on_c, 3, 50, 84
10, 34064, Note_on_c, 3, 50, 0
10, 34080, Note_on_c, 3, 50, 84
10, 34664, Note_on_c, 3, 50, 0
10, 34680, Note_on_c, 3, 49, 84
10, 34784, Note_on_c, 3, 49, 0
10, 34800, Note_on_c, 3, 50, 84
10, 34904, Note_on_c, 3, 50, 0
10, 34920, Note_on_c, 3, 50, 84
10, 35024, Note_on_c, 3, 54, 0
10, 35024, Note_on_c, 3, 50, 0
10, 35040, Note_on_c, 3, 54, 84
10, 35040, Note_on_c, 3, 50, 84
10, 35264, Note_on_c, 3, 54, 0
10, 35280, Note_on_c, 3, 55, 84
10, 35459, Note_on_c, 3, 55, 0
10, 35460, Note_on_c, 3, 57, 84
10, 35511, Note_on_c, 3, 57, 0
10, 35520, Note_on_c, 3, 59, 84
10, 35624, Note_on_c, 3, 50, 0
10, 35640, Note_on_c, 3, 49, 84
10, 35744, Note_on_c, 3, 49, 0
10, 35760, Note_on_c, 3, 50, 84
10, 35864, Note_on_c, 3, 50, 0
10, 35880, Note_on_c, 3, 50, 84
10, 35984, Note_on_c, 3, 59, 0
10, 35984, Note_on_c, 3, 50, 0
10, 36000, Note_on_c, 3, 55, 84
10, 36000, Note_on_c, 3, 50, 84
10, 36224, Note_on_c, 3, 55, 0
10, 36240, Note_on_c, 3, 57, 84
10, 36419, Note_on_c, 3, 57, 0
10, 36420, Note_on_c, 3, 59, 84
10, 36471, Note_on_c, 3, 59, 0
10, 36480, Note_on_c, 3, 57, 84
10, 36584, Note_on_c, 3, 50, 0
10, 36600, Note_on_c, 3, 49, 84
10, 36704, Note_on_c, 3, 49, 0
10, 36720, Note_on_c, 3, 50, 84
10, 36824, Note_on_c, 3, 50, 0
10, 36840, Note_on_c, 3, 50, 84
10, 36944, Note_on_c, 3, 57, 0
10, 36944, Note_on_c, 3, 50, 0
10, 36960, Note_on_c, 3, 54, 84
10, 36960, Note_on_c, 3, 50, 84
10, 37064, Note_on_c, 3, 50, 0
10, 37080, Note_on_c, 3, 49, 84
10, 37184, Note_on_c, 3, 49, 0
10, 37200, Note_on_c, 3, 50, 84
10, 37304, Note_on_c, 3, 50, 0
10, 37319, Note_on_c, 3, 54, 0
10, 37320, Note_on_c, 3, 50, 84
10, 37320, Note_on_c, 3, 55, 84
10, 37379, Note_on_c, 3, 55, 0
10, 37380, Note_on_c, 3, 57, 84
10, 37424, Note_on_c, 3, 50, 0
10, 37431, Note_on_c, 3, 57, 0
10, 37440, Note_on_c, 3, 50, 84
10, 37440, Note_on_c, 3, 59, 84
10, 37544, Note_on_c, 3, 50, 0
10, 37560, Note_on_c, 3, 49, 84
10, 37664, Note_on_c, 3, 49, 0
10, 37680, Note_on_c, 3, 50, 84
10, 37784, Note_on_c, 3, 50, 0
10, 37800, Note_on_c, 3, 50, 84
10, 37904, Note_on_c, 3, 59, 0
10, 37904, Note_on_c, 3, 50, 0
10, 37920, Note_on_c, 3, 55, 84
10, 37920, Note_on_c, 3, 50, 84
10, 38024, Note_on_c, 3, 50, 0
10, 38040, Note_on_c, 3, 49, 84
10, 38144, Note_on_c, 3, 49, 0
10, 38160, Note_on_c, 3, 50, 84
10, 38264, Note_on_c, 3, 50, 0
10, 38279, Note_on_c, 3, 55, 0
10, 38280, Note_on_c, 3, 57, 84
10, 38280, Note_on_c, 3, 50, 84
10, 38339, Note_on_c, 3, 57, 0
10, 38340, Note_on_c, 3, 59, 84
10, 38384, Note_on_c, 3, 50, 0
10, 38391, Note_on_c, 3, 59, 0
10, 38400, Note_on_c, 3, 50, 84
10, 38504, Note_on_c, 3, 50, 0
10, 38520, Note_on_c, 3, 62, 84
10, 38639, Note_on_c, 3, 62, 0
10, 38640, Note_on_c, 3, 60, 84
10, 38744, Note_on_c, 3, 60, 0
10, 38760, Note_on_c, 3, 59, 84
10, 38849, Note_on_c, 3, 59, 0
10, 38880, Note_on_c, 3, 57, 84
10, 38969, Note_on_c, 3, 57, 0
10, 39000, Note_on_c, 3, 59, 84
10, 39119, Note_on_c, 3, 59, 0
10, 39120, Note_on_c, 3, 57, 84
10, 39224, Note_on_c, 3, 57, 0
10, 39240, Note_on_c, 3, 55, 84
10, 39329, Note_on_c, 3, 55, 0
10, 39360, Note_on_c, 3, 54, 84
10, 39449, Note_on_c, 3, 54, 0
10, 39480, Note_on_c, 3, 55, 84
10, 39599, Note_on_c, 3, 55, 0
10, 39600, Note_on_c, 3, 54, 84
10, 39704, Note_on_c, 3, 54, 0
10, 39720, Note_on_c, 3, 52, 84
10, 39809, Note_on_c, 3, 52, 0
10, 39840, Note_on_c, 3, 50, 84
10, 39944, Note_on_c, 3, 50, 0
10, 39960, Note_on_c, 3, 50, 84
10, 39960, Note_on_c, 3, 62, 84
10, 40079, Note_on_c, 3, 50, 0
10, 40079, Note_on_c, 3, 62, 0
10, 40080, Note_on_c, 3, 45, 84
10, 40080, Note_on_c, 3, 57, 84
10, 40184, Note_on_c, 3, 45, 0
10, 40184, Note_on_c, 3, 57, 0
10, 40200, Note_on_c, 3, 57, 84
10, 40200, Note_on_c, 3, 45, 84
10, 40289, Note_on_c, 3, 57, 0
10, 40289, Note_on_c, 3, 45, 0
10, 40320, Note_on_c, 3, 50, 84
10, 40320, Note_on_c, 3, 62, 84
10, 40424, Note_on_c, 3, 50, 0
10, 40424, Note_on_c, 3, 62, 0
10, 40440, Note_on_c, 3, 62, 84
10, 40559, Note_on_c, 3, 62, 0
10, 40560, Note_on_c, 3, 61, 84
10, 40664, Note_on_c, 3, 61, 0
10, 40680, Note_on_c, 3, 67, 84
10, 40769, Note_on_c, 3, 67, 0
10, 40800, Note_on_c, 3, 66, 84
10, 40919, Note_on_c, 3, 66, 0
10, 42240, Note_on_c, 3, 59, 84
10, 42240, Note_on_c, 3, 62, 84
10, 42419, Note_on_c, 3, 59, 0
10, 42419, Note_on_c, 3, 62, 0
10, 42720, Note_on_c, 3, 64, 84
10, 42720, Note_on_c, 3, 60, 84
10, 42899, Note_on_c, 3, 64, 0
10, 42899, Note_on_c, 3, 60, 0
10, 43200, Note_on_c, 3, 62, 84
10, 43200, Note_on_c, 3, 59, 84
10, 43919, Note_on_c, 3, 62, 0
10, 43919, Note_on_c, 3, 59, 0
10, 45840, Note_on_c, 3, 54, 76
10, 45840, Note_on_c, 3, 57, 76
10, 45907, Note_on_c, 3, 54, 0
10, 45907, Note_on_c, 3, 57, 0
10, 45920, Note_on_c, 3, 55, 76
10, 45920, Note_on_c, 3, 59, 76
10, 45987, Note_on_c, 3, 55, 0
10, 45987, Note_on_c, 3, 59, 0
10, 46000, Note_on_c, 3, 60, 76
10, 46000, Note_on_c, 3, 57, 76
10, 46067, Note_on_c, 3, 60, 0
10, 46067, Note_on_c, 3, 57, 0
10, 46080, Note_on_c, 3, 59, 76
10, 46080, Note_on_c, 3, 62, 76
10, 46304, Note_on_c, 3, 59, 0
10, 46304, Note_on_c, 3, 62, 0
10, 46320, Note_on_c, 3, 55, 76
10, 46320, Note_on_c, 3, 59, 76
10, 46387, Note_on_c, 3, 55, 0
10, 46387, Note_on_c, 3, 59, 0
10, 46400, Note_on_c, 3, 60, 76
10, 46400, Note_on_c, 3, 57, 76
10, 46467, Note_on_c, 3, 60, 0
10, 46467, Note_on_c, 3, 57, 0
10, 46480, Note_on_c, 3, 59, 76
10, 46480, Note_on_c, 3, 62, 76
10, 46547, Note_on_c, 3, 59, 0
10, 46547, Note_on_c, 3, 62, 0
10, 46560, Note_on_c, 3, 64, 76
10, 46560, Note_on_c, 3, 60, 76
10, 46784, Note_on_c, 3, 64, 0
10, 46784, Note_on_c, 3, 60, 0
10, 46800, Note_on_c, 3, 64, 76
10, 46800, Note_on_c, 3, 60, 76
10, 46867, Note_on_c, 3, 64, 0
10, 46867, Note_on_c, 3, 60, 0
10, 46880, Note_on_c, 3, 66, 76
10, 46880, Note_on_c, 3, 62, 76
10, 46947, Note_on_c, 3, 66, 0
10, 46947, Note_on_c, 3, 62, 0
10, 46960, Note_on_c, 3, 64, 76
10, 46960, Note_on_c, 3, 67, 76
10, 47027, Note_on_c, 3, 64, 0
10, 47027, Note_on_c, 3, 67, 0
10, 47040, Note_on_c, 3, 59, 76
10, 47040, Note_on_c, 3, 62, 76
10, 47759, Note_on_c, 3, 59, 0
10, 47759, Note_on_c, 3, 62, 0
10, 48720, Note_on_c, 3, 59, 52
10, 48720, Note_on_c, 3, 62, 52
10, 48959, Note_on_c, 3, 59, 0
10, 48959, Note_on_c, 3, 62, 0
10, 48960, Note_on_c, 3, 57, 52
10, 48960, Note_on_c, 3, 60, 52
10, 49439, Note_on_c, 3, 57, 0
10, 49439, Note_on_c, 3, 60, 0
10, 49440, Note_on_c, 3, 55, 52
10, 49440, Note_on_c, 3, 59, 52
10, 49679, Note_on_c, 3, 55, 0
10, 49679, Note_on_c, 3, 59, 0
10, 50640, Note_on_c, 3, 60, 52
10, 50640, Note_on_c, 3, 64, 52
10, 50879, Note_on_c, 3, 60, 0
10, 50879, Note_on_c, 3, 64, 0
10, 50880, Note_on_c, 3, 59, 52
10, 50880, Note_on_c, 3, 62, 52
10, 51359, Note_on_c, 3, 59, 0
10, 51359, Note_on_c, 3, 62, 0
10, 51360, Note_on_c, 3, 60, 52
10, 51360, Note_on_c, 3, 57, 52
10, 51599, Note_on_c, 3, 60, 0
10, 51599, Note_on_c, 3, 57, 0
10, 51840, Control_c, 3, 11, 48
10, 52560, Note_on_c, 3, 60, 84
10, 52799, Note_on_c, 3, 60, 0
10, 52800, Note_on_c, 3, 59, 84
10, 52800, Note_on_c, 3, 62, 84
10, 52800, Control_c, 3, 11, 48
10, 52853, Control_c, 3, 11, 50
10, 52907, Control_c, 3, 11, 52
10, 52960, Control_c, 3, 11, 55
10, 53013, Control_c, 3, 11, 57
10, 53067, Control_c, 3, 11, 59
10, 53120, Control_c, 3, 11, 61
10, 53173, Control_c, 3, 11, 63
10, 53227, Control_c, 3, 11, 66
10, 53280, Control_c, 3, 11, 68
10, 53333, Control_c, 3, 11, 70
10, 53387, Control_c, 3, 11, 72
10, 53440, Control_c, 3, 11, 74
10, 53493, Control_c, 3, 11, 77
10, 53547, Control_c, 3, 11, 79
10, 53600, Control_c, 3, 11, 81
10, 53653, Control_c, 3, 11, 83
10, 53707, Control_c, 3, 11, 85
10, 53744, Note_on_c, 3, 59, 0
10, 53744, Note_on_c, 3, 62, 0
10, 53760, Note_on_c, 3, 59, 84
10, 53760, Control_c, 3, 11, 88
10, 53760, Note_on_c, 3, 63, 84
10, 53813, Control_c, 3, 11, 90
10, 53867, Control_c, 3, 11, 92
10, 53920, Control_c, 3, 11, 94
10, 53973, Control_c, 3, 11, 96
10, 54027, Control_c, 3, 11, 98
10, 54080, Control_c, 3, 11, 101
10, 54133, Control_c, 3, 11, 103
10, 54187, Control_c, 3, 11, 105
10, 54240, Control_c, 3, 11, 107
10, 54293, Control_c, 3, 11, 109
10, 54347, Control_c, 3, 11, 112
10, 54400, Control_c, 3, 11, 114
10, 54453, Control_c, 3, 11, 116
10, 54507, Control_c, 3, 11, 118
10, 54560, Control_c, 3, 11, 120
10, 54613, Control_c, 3, 11, 123
10, 54667, Control_c, 3, 11, 127
10, 54704, Note_on_c, 3, 59, 0
10, 54704, Note_on_c, 3, 63, 0
10, 54720, Note_on_c, 3, 64, 84
10, 54720, Note_on_c, 3, 60, 84
10, 55304, Note_on_c, 3, 64, 0
10, 55304, Note_on_c, 3, 60, 0
10, 55320, Note_on_c, 3, 48, 84
10, 55424, Note_on_c, 3, 48, 0
10, 55440, Note_on_c, 3, 48, 84
10, 55544, Note_on_c, 3, 48, 0
10, 55560, Note_on_c, 3, 48, 84
10, 55664, Note_on_c, 3, 48, 0
10, 55680, Note_on_c, 3, 48, 84
10, 55784, Note_on_c, 3, 48, 0
10, 55800, Note_on_c, 3, 48, 84
10, 55904, Note_on_c, 3, 48, 0
10, 55920, Note_on_c, 3, 48, 84
10, 56024, Note_on_c, 3, 48, 0
10, 56040, Note_on_c, 3, 48, 84
10, 56144, Note_on_c, 3, 48, 0
10, 56160, Note_on_c, 3, 48, 84
10, 56264, Note_on_c, 3, 48, 0
10, 56280, Note_on_c, 3, 48, 84
10, 56384, Note_on_c, 3, 48, 0
10, 56400, Note_on_c, 3, 48, 84
10, 56504, Note_on_c, 3, 48, 0
10, 56520, Note_on_c, 3, 48, 84
10, 56624, Note_on_c, 3, 48, 0
10, 56640, Note_on_c, 3, 48, 84
10, 56864, Note_on_c, 3, 48, 0
10, 56880, Note_on_c, 3, 49, 84
10, 56880, Note_on_c, 3, 61, 84
10, 57104, Note_on_c, 3, 49, 0
10, 57104, Note_on_c, 3, 61, 0
10, 57120, Note_on_c, 3, 62, 84
10, 57120, Note_on_c, 3, 50, 84
10, 57344, Note_on_c, 3, 62, 0
10, 57344, Note_on_c, 3, 50, 0
10, 57360, Note_on_c, 3, 51, 84
10, 57360, Note_on_c, 3, 63, 84
10, 57584, Note_on_c, 3, 51, 0
10, 57584, Note_on_c, 3, 63, 0
10, 57600, Note_on_c, 3, 64, 84
10, 57600, Note_on_c, 3, 52, 84
10, 57824, Note_on_c, 3, 64, 0
10, 57824, Note_on_c, 3, 52, 0
10, 57840, Note_on_c, 3, 54, 84
10, 57840, Note_on_c, 3, 66, 84
10, 58064, Note_on_c, 3, 54, 0
10, 58064, Note_on_c, 3, 66, 0
10, 58080, Note_on_c, 3, 55, 84
10, 58080, Note_on_c, 3, 67, 84
10, 58184, Note_on_c, 3, 55, 0
10, 58184, Note_on_c, 3, 67, 0
10, 58200, Note_on_c, 3, 59, 84
10, 58200, Note_on_c, 3, 55, 84
10, 58304, Note_on_c, 3, 59, 0
10, 58304, Note_on_c, 3, 55, 0
10, 58320, Note_on_c, 3, 60, 84
10, 58320, Note_on_c, 3, 57, 84
10, 58424, Note_on_c, 3, 60, 0
10, 58424, Note_on_c, 3, 57, 0
10, 58440, Note_on_c, 3, 62, 84
10, 58440, Note_on_c, 3, 59, 84
10, 58544, Note_on_c, 3, 62, 0
10, 58544, Note_on_c, 3, 59, 0
10, 58560, Note_on_c, 3, 64, 84
10, 58560, Note_on_c, 3, 60, 84
10, 58739, Note_on_c, 3, 64, 0
10, 58739, Note_on_c, 3, 60, 0
10, 59520, Note_on_c, 3, 62, 84
10, 59699, Note_on_c, 3, 62, 0
10, 60480, Note_on_c, 3, 62, 76
10, 60480, Note_on_c, 3, 59, 76
10, 60599, Note_on_c, 3, 62, 0
10, 60599, Note_on_c, 3, 59, 0
10, 60600, Note_on_c, 3, 62, 52
10, 60600, Note_on_c, 3, 59, 52
10, 60959, Note_on_c, 3, 62, 0
10, 60960, Note_on_c, 3, 60, 52
10, 61199, Note_on_c, 3, 59, 0
10, 61200, Note_on_c, 3, 57, 52
10, 61439, Note_on_c, 3, 60, 0
10, 61439, Note_on_c, 3, 57, 0
10, 61440, Note_on_c, 3, 55, 52
10, 61440, Note_on_c, 3, 58, 52
10, 61679, Note_on_c, 3, 55, 0
10, 61679, Note_on_c, 3, 58, 0
10, 61680, Note_on_c, 3, 54, 52
10, 61680, Note_on_c, 3, 57, 52
10, 61904, Note_on_c, 3, 54, 0
10, 61904, Note_on_c, 3, 57, 0
10, 61920, Note_on_c, 3, 57, 52
10, 61920, Note_on_c, 3, 54, 52
10, 62144, Note_on_c, 3, 57, 0
10, 62144, Note_on_c, 3, 54, 0
10, 62160, Note_on_c, 3, 57, 52
10, 62160, Note_on_c, 3, 54, 52
10, 62384, Note_on_c, 3, 57, 0
10, 62384, Note_on_c, 3, 54, 0
10, 62400, Note_on_c, 3, 59, 76
10, 62400, Note_on_c, 3, 62, 76
10, 62519, Note_on_c, 3, 59, 0
10, 62519, Note_on_c, 3, 62, 0
10, 62520, Note_on_c, 3, 62, 52
10, 62520, Note_on_c, 3, 59, 52
10, 62879, Note_on_c, 3, 62, 0
10, 62880, Note_on_c, 3, 60, 52
10, 63119, Note_on_c, 3, 59, 0
10, 63120, Note_on_c, 3, 57, 52
10, 63359, Note_on_c, 3, 60, 0
10, 63359, Note_on_c, 3, 57, 0
10, 63360, Note_on_c, 3, 55, 52
10, 63360, Note_on_c, 3, 58, 52
10, 63599, Note_on_c, 3, 55, 0
10, 63599, Note_on_c, 3, 58, 0
10, 63600, Note_on_c, 3, 54, 52
10, 63600, Note_on_c, 3, 57, 52
10, 63824, Note_on_c, 3, 54, 0
10, 63824, Note_on_c, 3, 57, 0
10, 63840, Note_on_c, 3, 57, 52
10, 63840, Note_on_c, 3, 54, 52
10, 64064, Note_on_c, 3, 57, 0
10, 64064, Note_on_c, 3, 54, 0
10, 64080, Note_on_c, 3, 57, 52
10, 64080, Note_on_c, 3, 54, 52
10, 64304, Note_on_c, 3, 57, 0
10, 64304, Note_on_c, 3, 54, 0
10, 64320, Note_on_c, 3, 52, 76
10, 64320, Note_on_c, 3, 55, 76
10, 64439, Note_on_c, 3, 52, 0
10, 64439, Note_on_c, 3, 55, 0
10, 64440, Note_on_c, 3, 55, 52
10, 64440, Note_on_c, 3, 52, 52
10, 64799, Note_on_c, 3, 55, 0
10, 64800, Note_on_c, 3, 56, 60
10, 65039, Note_on_c, 3, 52, 0
10, 65040, Note_on_c, 3, 50, 52
10, 65279, Note_on_c, 3, 56, 0
10, 65279, Note_on_c, 3, 50, 0
10, 65280, Note_on_c, 3, 57, 52
10, 65280, Note_on_c, 3, 48, 52
10, 65519, Note_on_c, 3, 57, 0
10, 65519, Note_on_c, 3, 48, 0
10, 65520, Note_on_c, 3, 62, 52
10, 65520, Note_on_c, 3, 59, 52
10, 65744, Note_on_c, 3, 62, 0
10, 65744, Note_on_c, 3, 59, 0
10, 65760, Note_on_c, 3, 62, 52
10, 65760, Note_on_c, 3, 59, 52
10, 65984, Note_on_c, 3, 62, 0
10, 65984, Note_on_c, 3, 59, 0
10, 66000, Note_on_c, 3, 62, 52
10, 66000, Note_on_c, 3, 59, 52
10, 66224, Note_on_c, 3, 62, 0
10, 66224, Note_on_c, 3, 59, 0
10, 66240, Note_on_c, 3, 60, 52
10, 66240, Note_on_c, 3, 64, 52
10, 66704, Note_on_c, 3, 60, 0
10, 66704, Note_on_c, 3, 64, 0
10, 66720, Note_on_c, 3, 60, 52
10, 66720, Note_on_c, 3, 64, 52
10, 67139, Note_on_c, 3, 60, 0
10, 67139, Note_on_c, 3, 64, 0
10, 67140, Note_on_c, 3, 60, 52
10, 67140, Note_on_c, 3, 57, 52
10, 67199, Note_on_c, 3, 60, 0
10, 67199, Note_on_c, 3, 57, 0
10, 67200, Note_on_c, 3, 59, 52
10, 67200, Note_on_c, 3, 55, 52
10, 67679, Note_on_c, 3, 59, 0
10, 67679, Note_on_c, 3, 55, 0
10, 67680, Note_on_c, 3, 57, 52
10, 67680, Note_on_c, 3, 60, 52
10, 68099, Note_on_c, 3, 57, 0
10, 68099, Note_on_c, 3, 60, 0
10, 68100, Note_on_c, 3, 54, 52
10, 68100, Note_on_c, 3, 57, 52
10, 68151, Note_on_c, 3, 54, 0
10, 68151, Note_on_c, 3, 57, 0
10, 68160, Note_on_c, 3, 50, 76
10, 68160, Note_on_c, 3, 62, 76
10, 68864, Note_on_c, 3, 50, 0
10, 68864, Note_on_c, 3, 62, 0
10, 68880, Note_on_c, 3, 50, 76
10, 68880, Note_on_c, 3, 62, 76
10, 69104, Note_on_c, 3, 50, 0
10, 69104, Note_on_c, 3, 62, 0
10, 69120, Note_on_c, 3, 50, 76
10, 69120, Note_on_c, 3, 62, 76
10, 69344, Note_on_c, 3, 50, 0
10, 69344, Note_on_c, 3, 62, 0
10, 69360, Note_on_c, 3, 62, 76
10, 69360, Note_on_c, 3, 50, 76
10, 69584, Note_on_c, 3, 62, 0
10, 69584, Note_on_c, 3, 50, 0
10, 69600, Note_on_c, 3, 62, 76
10, 69600, Note_on_c, 3, 50, 76
10, 69824, Note_on_c, 3, 62, 0
10, 69824, Note_on_c, 3, 50, 0
10, 69840, Note_on_c, 3, 50, 76
10, 69840, Note_on_c, 3, 62, 76
10, 70064, Note_on_c, 3, 50, 0
10, 70064, Note_on_c, 3, 62, 0
10, 70080, Note_on_c, 3, 62, 84
10, 70080, Note_on_c, 3, 50, 84
10, 70200, Control_c, 3, 11, 112
10, 70784, Note_on_c, 3, 62, 0
10, 70784, Note_on_c, 3, 50, 0
10, 70800, Note_on_c, 3, 62, 84
10, 70800, Note_on_c, 3, 50, 84
10, 71024, Note_on_c, 3, 62, 0
10, 71024, Note_on_c, 3, 50, 0
10, 71040, Note_on_c, 3, 62, 84
10, 71040, Note_on_c, 3, 50, 84
10, 71264, Note_on_c, 3, 62, 0
10, 71264, Note_on_c, 3, 50, 0
10, 71280, Note_on_c, 3, 50, 84
10, 71280, Note_on_c, 3, 62, 84
10, 71504, Note_on_c, 3, 50, 0
10, 71504, Note_on_c, 3, 62, 0
10, 71520, Note_on_c, 3, 62, 84
10, 71520, Note_on_c, 3, 50, 84
10, 71744, Note_on_c, 3, 62, 0
10, 71744, Note_on_c, 3, 50, 0
10, 71760, Note_on_c, 3, 62, 84
10, 71760, Note_on_c, 3, 50, 84
10, 71984, Note_on_c, 3, 62, 0
10, 71984, Note_on_c, 3, 50, 0
10, 71998, Control_c, 3, 11, 127
10, 72000, Note_on_c, 3, 50, 84
10, 72000, Note_on_c, 3, 62, 84
10, 72120, Control_c, 3, 11, 112
10, 72704, Note_on_c, 3, 50, 0
10, 72704, Note_on_c, 3, 62, 0
10, 72720, Note_on_c, 3, 62, 84
10, 72720, Note_on_c, 3, 55, 84
10, 72944, Note_on_c, 3, 62, 0
10, 72944, Note_on_c, 3, 55, 0
10, 72958, Control_c, 3, 11, 127
10, 72960, Note_on_c, 3, 64, 84
10, 72960, Note_on_c, 3, 60, 84
10, 73184, Note_on_c, 3, 64, 0
10, 73184, Note_on_c, 3, 60, 0
10, 73200, Note_on_c, 3, 65, 84
10, 73200, Note_on_c, 3, 60, 84
10, 73424, Note_on_c, 3, 65, 0
10, 73424, Note_on_c, 3, 60, 0
10, 73440, Note_on_c, 3, 65, 84
10, 73440, Note_on_c, 3, 60, 84
10, 73664, Note_on_c, 3, 65, 0
10, 73664, Note_on_c, 3, 60, 0
10, 73680, Note_on_c, 3, 60, 84
10, 73680, Note_on_c, 3, 65, 84
10, 73904, Note_on_c, 3, 60, 0
10, 73904, Note_on_c, 3, 65, 0
10, 73920, Note_on_c, 3, 65, 76
10, 73920, Note_on_c, 3, 60, 76
10, 74144, Note_on_c, 3, 65, 0
10, 74144, Note_on_c, 3, 60, 0
10, 74160, Note_on_c, 3, 65, 80
10, 74160, Note_on_c, 3, 60, 80
10, 74384, Note_on_c, 3, 65, 0
10, 74384, Note_on_c, 3, 60, 0
10, 74400, Note_on_c, 3, 60, 80
10, 74400, Note_on_c, 3, 65, 80
10, 74624, Note_on_c, 3, 60, 0
10, 74624, Note_on_c, 3, 65, 0
10, 74640, Note_on_c, 3, 65, 80
10, 74640, Note_on_c, 3, 60, 80
10, 74864, Note_on_c, 3, 65, 0
10, 74864, Note_on_c, 3, 60, 0
10, 74880, Note_on_c, 3, 65, 80
10, 74880, Note_on_c, 3, 60, 80
10, 75104, Note_on_c, 3, 65, 0
10, 75104, Note_on_c, 3, 60, 0
10, 75120, Note_on_c, 3, 65, 80
10, 75120, Note_on_c, 3, 60, 80
10, 75344, Note_on_c, 3, 65, 0
10, 75344, Note_on_c, 3, 60, 0
10, 75360, Note_on_c, 3, 65, 80
10, 75360, Note_on_c, 3, 60, 80
10, 75584, Note_on_c, 3, 65, 0
10, 75584, Note_on_c, 3, 60, 0
10, 75600, Note_on_c, 3, 65, 80
10, 75600, Note_on_c, 3, 60, 80
10, 75824, Note_on_c, 3, 65, 0
10, 75824, Note_on_c, 3, 60, 0
10, 75840, Note_on_c, 3, 53, 84
10, 75840, Note_on_c, 3, 65, 84
10, 77744, Note_on_c, 3, 53, 0
10, 77744, Note_on_c, 3, 65, 0
10, 77760, Note_on_c, 3, 59, 84
10, 77760, Note_on_c, 3, 65, 84
10, 78464, Note_on_c, 3, 59, 0
10, 78464, Note_on_c, 3, 65, 0
10, 78480, Note_on_c, 3, 59, 84
10, 78480, Note_on_c, 3, 65, 84
10, 78584, Note_on_c, 3, 59, 0
10, 78584, Note_on_c, 3, 65, 0
10, 78600, Note_on_c, 3, 59, 84
10, 78600, Note_on_c, 3, 65, 84
10, 78704, Note_on_c, 3, 59, 0
10, 78704, Note_on_c, 3, 65, 0
10, 78720, Note_on_c, 3, 65, 84
10, 78720, Note_on_c, 3, 59, 84
10, 79424, Note_on_c, 3, 65, 0
10, 79424, Note_on_c, 3, 59, 0
10, 79440, Note_on_c, 3, 59, 84
10, 79440, Note_on_c, 3, 65, 84
10, 79544, Note_on_c, 3, 59, 0
10, 79544, Note_on_c, 3, 65, 0
10, 79560, Note_on_c, 3, 65, 84
10, 79560, Note_on_c, 3, 59, 84
10, 79664, Note_on_c, 3, 65, 0
10, 79664, Note_on_c, 3, 59, 0
10, 79680, Note_on_c, 3, 59, 84
10, 79680, Note_on_c, 3, 65, 84
10, 79904, Note_on_c, 3, 59, 0
10, 79904, Note_on_c, 3, 65, 0
10, 79920, Note_on_c, 3, 65, 84
10, 79920, Note_on_c, 3, 59, 84
10, 80024, Note_on_c, 3, 65, 0
10, 80024, Note_on_c, 3, 59, 0
10, 80040, Note_on_c, 3, 65, 84
10, 80040, Note_on_c, 3, 59, 84
10, 80144, Note_on_c, 3, 65, 0
10, 80144, Note_on_c, 3, 59, 0
10, 80160, Note_on_c, 3, 65, 84
10, 80160, Note_on_c, 3, 59, 84
10, 80384, Note_on_c, 3, 65, 0
10, 80384, Note_on_c, 3, 59, 0
10, 80400, Note_on_c, 3, 59, 84
10, 80400, Note_on_c, 3, 65, 84
10, 80504, Note_on_c, 3, 59, 0
10, 80504, Note_on_c, 3, 65, 0
10, 80520, Note_on_c, 3, 65, 84
10, 80520, Note_on_c, 3, 59, 84
10, 80624, Note_on_c, 3, 65, 0
10, 80624, Note_on_c, 3, 59, 0
10, 80640, Note_on_c, 3, 59, 84
10, 80640, Note_on_c, 3, 65, 84
10, 80744, Note_on_c, 3, 59, 0
10, 80744, Note_on_c, 3, 65, 0
10, 80760, Note_on_c, 3, 55, 84
10, 80864, Note_on_c, 3, 55, 0
10, 80880, Note_on_c, 3, 62, 84
10, 80984, Note_on_c, 3, 62, 0
10, 81000, Note_on_c, 3, 59, 84
10, 81104, Note_on_c, 3, 59, 0
10, 81120, Note_on_c, 3, 65, 84
10, 81224, Note_on_c, 3, 65, 0
10, 81240, Note_on_c, 3, 62, 84
10, 81344, Note_on_c, 3, 62, 0
10, 81360, Note_on_c, 3, 59, 84
10, 81464, Note_on_c, 3, 59, 0
10, 81480, Note_on_c, 3, 55, 84
10, 81584, Note_on_c, 3, 55, 0
10, 81600, Note_on_c, 3, 48, 84
10, 81600, Note_on_c, 3, 60, 84
10, 82064, Note_on_c, 3, 48, 0
10, 82064, Note_on_c, 3, 60, 0
10, 82080, Note_on_c, 3, 48, 84
10, 82080, Note_on_c, 3, 52, 84
10, 82544, Note_on_c, 3, 48, 0
10, 82544, Note_on_c, 3, 52, 0
10, 82560, Note_on_c, 3, 52, 84
10, 82560, Note_on_c, 3, 55, 84
10, 83264, Note_on_c, 3, 52, 0
10, 83264, Note_on_c, 3, 55, 0
10, 83280, Note_on_c, 3, 50, 84
10, 83280, Note_on_c, 3, 53, 84
10, 83399, Note_on_c, 3, 50, 0
10, 83399, Note_on_c, 3, 53, 0
10, 83520, Note_on_c, 3, 48, 84
10, 83520, Note_on_c, 3, 52, 84
10, 83639, Note_on_c, 3, 48, 0
10, 83639, Note_on_c, 3, 52, 0
10, 83760, Note_on_c, 3, 50, 84
10, 83760, Note_on_c, 3, 43, 84
10, 83879, Note_on_c, 3, 50, 0
10, 83879, Note_on_c, 3, 43, 0
10, 84000, Note_on_c, 3, 48, 84
10, 84119, Note_on_c, 3, 48, 0
10, 84240, Note_on_c, 3, 43, 84
10, 84240, Note_on_c, 3, 50, 84
10, 84359, Note_on_c, 3, 43, 0
10, 84359, Note_on_c, 3, 50, 0
10, 84480, Note_on_c, 3, 48, 84
10, 85184, Note_on_c, 3, 48, 0
10, 85200, Note_on_c, 3, 48, 84
10, 85371, Note_on_c, 3, 48, 0
10, 85380, Note_on_c, 3, 48, 84
10, 85431, Note_on_c, 3, 48, 0
10, 85440, Note_on_c, 3, 50, 84
10, 85440, Note_on_c, 3, 47, 84
10, 86144, Note_on_c, 3, 50, 0
10, 86144, Note_on_c, 3, 47, 0
10, 86160, Note_on_c, 3, 47, 84
10, 86160, Note_on_c, 3, 50, 84
10, 86331, Note_on_c, 3, 47, 0
10, 86331, Note_on_c, 3, 50, 0
10, 86340, Note_on_c, 3, 47, 84
10, 86340, Note_on_c, 3, 50, 84
10, 86391, Note_on_c, 3, 47, 0
10, 86391, Note_on_c, 3, 50, 0
10, 86400, Note_on_c, 3, 48, 84
10, 86400, Note_on_c, 3, 52, 84
10, 86984, Note_on_c, 3, 48, 0
10, 86984, Note_on_c, 3, 52, 0
10, 87000, Note_on_c, 3, 60, 84
10, 87104, Note_on_c, 3, 60, 0
10, 87120, Note_on_c, 3, 59, 84
10, 87224, Note_on_c, 3, 59, 0
10, 87240, Note_on_c, 3, 58, 84
10, 87344, Note_on_c, 3, 58, 0
10, 87360, Note_on_c, 3, 53, 84
10, 87360, Note_on_c, 3, 57, 84
10, 88304, Note_on_c, 3, 53, 0
10, 88304, Note_on_c, 3, 57, 0
10, 88320, Note_on_c, 3, 55, 84
10, 88320, Note_on_c, 3, 52, 84
10, 89264, Note_on_c, 3, 55, 0
10, 89264, Note_on_c, 3, 52, 0
10, 89280, Note_on_c, 3, 53, 84
10, 89280, Note_on_c, 3, 57, 84
10, 90224, Note_on_c, 3, 53, 0
10, 90224, Note_on_c, 3, 57, 0
10, 90240, Note_on_c, 3, 55, 84
10, 90240, Note_on_c, 3, 52, 84
10, 91184, Note_on_c, 3, 55, 0
10, 91184, Note_on_c, 3, 52, 0
10, 91200, Note_on_c, 3, 53, 84
10, 91200, Note_on_c, 3, 57, 84
10, 92144, Note_on_c, 3, 53, 0
10, 92144, Note_on_c, 3, 57, 0
10, 92160, Note_on_c, 3, 52, 84
10, 92160, Note_on_c, 3, 55, 84
10, 92864, Note_on_c, 3, 52, 0
10, 92864, Note_on_c, 3, 55, 0
10, 92880, Note_on_c, 3, 55, 84
10, 92880, Note_on_c, 3, 52, 84
10, 93104, Note_on_c, 3, 55, 0
10, 93104, Note_on_c, 3, 52, 0
10, 93120, Note_on_c, 3, 50, 84
10, 93120, Note_on_c, 3, 53, 84
10, 93584, Note_on_c, 3, 50, 0
10, 93584, Note_on_c, 3, 53, 0
10, 93600, Note_on_c, 3, 48, 84
10, 93600, Note_on_c, 3, 52, 84
10, 94064, Note_on_c, 3, 48, 0
10, 94064, Note_on_c, 3, 52, 0
10, 94080, Note_on_c, 3, 47, 84
10, 94080, Note_on_c, 3, 50, 84
10, 94304, Note_on_c, 3, 47, 0
10, 94304, Note_on_c, 3, 50, 0
10, 94320, Note_on_c, 3, 50, 84
10, 94320, Note_on_c, 3, 47, 84
10, 94784, Note_on_c, 3, 50, 0
10, 94784, Note_on_c, 3, 47, 0
10, 94800, Note_on_c, 3, 48, 84
10, 94800, Note_on_c, 3, 52, 84
10, 94971, Note_on_c, 3, 48, 0
10, 94971, Note_on_c, 3, 52, 0
10, 94980, Note_on_c, 3, 48, 84
10, 94980, Note_on_c, 3, 52, 84
10, 95031, Note_on_c, 3, 48, 0
10, 95031, Note_on_c, 3, 52, 0
10, 95040, Note_on_c, 3, 53, 84
10, 95040, Note_on_c, 3, 50, 84
10, 95504, Note_on_c, 3, 53, 0
10, 95504, Note_on_c, 3, 50, 0
10, 95520, Note_on_c, 3, 48, 84
10, 95520, Note_on_c, 3, 52, 84
10, 95984, Note_on_c, 3, 48, 0
10, 95984, Note_on_c, 3, 52, 0
10, 96000, Note_on_c, 3, 47, 84
10, 96000, Note_on_c, 3, 50, 84
10, 96224, Note_on_c, 3, 47, 0
10, 96224, Note_on_c, 3, 50, 0
10, 96240, Note_on_c, 3, 50, 84
10, 96240, Note_on_c, 3, 47, 84
10, 96704, Note_on_c, 3, 50, 0
10, 96704, Note_on_c, 3, 47, 0
10, 96720, Note_on_c, 3, 52, 84
10, 96720, Note_on_c, 3, 48, 84
10, 96891, Note_on_c, 3, 52, 0
10, 96891, Note_on_c, 3, 48, 0
10, 96900, Note_on_c, 3, 52, 84
10, 96900, Note_on_c, 3, 48, 84
10, 96951, Note_on_c, 3, 52, 0
10, 96951, Note_on_c, 3, 48, 0
10, 96960, Note_on_c, 3, 53, 84
10, 96960, Note_on_c, 3, 50, 84
10, 97049, Note_on_c, 3, 53, 0
10, 97049, Note_on_c, 3, 50, 0
10, 97140, Note_on_c, 3, 53, 84
10, 97140, Note_on_c, 3, 50, 84
10, 97184, Note_on_c, 3, 53, 0
10, 97184, Note_on_c, 3, 50, 0
10, 97200, Note_on_c, 3, 50, 84
10, 97200, Note_on_c, 3, 53, 84
10, 97289, Note_on_c, 3, 50, 0
10, 97289, Note_on_c, 3, 53, 0
10, 97380, Note_on_c, 3, 50, 84
10, 97380, Note_on_c, 3, 53, 84
10, 97424, Note_on_c, 3, 50, 0
10, 97424, Note_on_c, 3, 53, 0
10, 97440, Note_on_c, 3, 48, 84
10, 97440, Note_on_c, 3, 52, 84
10, 97529, Note_on_c, 3, 48, 0
10, 97529, Note_on_c, 3, 52, 0
10, 97620, Note_on_c, 3, 52, 84
10, 97620, Note_on_c, 3, 48, 84
10, 97664, Note_on_c, 3, 52, 0
10, 97664, Note_on_c, 3, 48, 0
10, 97680, Note_on_c, 3, 48, 84
10, 97680, Note_on_c, 3, 52, 84
10, 97769, Note_on_c, 3, 48, 0
10, 97769, Note_on_c, 3, 52, 0
10, 97860, Note_on_c, 3, 48, 84
10, 97860, Note_on_c, 3, 52, 84
10, 97904, Note_on_c, 3, 48, 0
10, 97904, Note_on_c, 3, 52, 0
10, 97920, Note_on_c, 3, 50, 84
10, 97920, Note_on_c, 3, 43, 84
10, 98144, Note_on_c, 3, 50, 0
10, 98144, Note_on_c, 3, 43, 0
10, 98160, Note_on_c, 3, 55, 84
10, 98160, Note_on_c, 3, 59, 84
10, 98384, Note_on_c, 3, 55, 0
10, 98384, Note_on_c, 3, 59, 0
10, 98400, Note_on_c, 3, 60, 84
10, 98400, Note_on_c, 3, 64, 84
10, 98624, Note_on_c, 3, 60, 0
10, 98624, Note_on_c, 3, 64, 0
10, 98640, Note_on_c, 3, 60, 84
10, 98640, Note_on_c, 3, 64, 84
10, 98864, Note_on_c, 3, 60, 0
10, 98864, Note_on_c, 3, 64, 0
10, 98880, Note_on_c, 3, 59, 84
10, 98880, Note_on_c, 3, 62, 84
10, 99104, Note_on_c, 3, 59, 0
10, 99104, Note_on_c, 3, 62, 0
10, 99120, Note_on_c, 3, 55, 84
10, 99120, Note_on_c, 3, 59, 84
10, 99344, Note_on_c, 3, 55, 0
10, 99344, Note_on_c, 3, 59, 0
10, 99360, Note_on_c, 3, 64, 84
10, 99360, Note_on_c, 3, 60, 84
10, 99584, Note_on_c, 3, 64, 0
10, 99584, Note_on_c, 3, 60, 0
10, 99600, Note_on_c, 3, 60, 84
10, 99600, Note_on_c, 3, 64, 84
10, 99824, Note_on_c, 3, 60, 0
10, 99824, Note_on_c, 3, 64, 0
10, 99840, Note_on_c, 3, 62, 84
10, 99840, Note_on_c, 3, 59, 84
10, 99959, Note_on_c, 3, 62, 0
10, 99959, Note_on_c, 3, 59, 0
10, 100020, Note_on_c, 3, 60, 84
10, 100020, Note_on_c, 3, 55, 84
10, 100071, Note_on_c, 3, 60, 0
10, 100071, Note_on_c, 3, 55, 0
10, 100080, Note_on_c, 3, 64, 84
10, 100080, Note_on_c, 3, 60, 84
10, 100304, Note_on_c, 3, 64, 0
10, 100304, Note_on_c, 3, 60, 0
10, 100320, Note_on_c, 3, 59, 84
10, 100320, Note_on_c, 3, 62, 84
10, 100439, Note_on_c, 3, 59, 0
10, 100439, Note_on_c, 3, 62, 0
10, 100500, Note_on_c, 3, 60, 84
10, 100500, Note_on_c, 3, 55, 84
10, 100551, Note_on_c, 3, 60, 0
10, 100551, Note_on_c, 3, 55, 0
10, 100560, Note_on_c, 3, 60, 84
10, 100560, Note_on_c, 3, 64, 84
10, 100784, Note_on_c, 3, 60, 0
10, 100784, Note_on_c, 3, 64, 0
10, 100800, Note_on_c, 3, 62, 84
10, 100800, Note_on_c, 3, 59, 84
10, 100919, Note_on_c, 3, 62, 0
10, 100919, Note_on_c, 3, 59, 0
10, 100980, Note_on_c, 3, 60, 84
10, 100980, Note_on_c, 3, 55, 84
10, 101031, Note_on_c, 3, 60, 0
10, 101031, Note_on_c, 3, 55, 0
10, 101040, Note_on_c, 3, 60, 84
10, 101040, Note_on_c, 3, 64, 84
10, 101264, Note_on_c, 3, 60, 0
10, 101264, Note_on_c, 3, 64, 0
10, 101280, Note_on_c, 3, 62, 84
10, 101280, Note_on_c, 3, 59, 84
10, 101399, Note_on_c, 3, 62, 0
10, 101399, Note_on_c, 3, 59, 0
10, 101460, Note_on_c, 3, 60, 84
10, 101460, Note_on_c, 3, 55, 84
10, 101511, Note_on_c, 3, 60, 0
10, 101511, Note_on_c, 3, 55, 0
10, 101520, Note_on_c, 3, 60, 84
10, 101520, Note_on_c, 3, 64, 84
10, 101744, Note_on_c, 3, 60, 0
10, 101744, Note_on_c, 3, 64, 0
10, 101760, Note_on_c, 3, 59, 84
10, 101760, Note_on_c, 3, 62, 84
10, 101879, Note_on_c, 3, 59, 0
10, 101879, Note_on_c, 3, 62, 0
10, 102360, Note_on_c, 3, 64, 84
10, 102479, Note_on_c, 3, 64, 0
10, 102480, Note_on_c, 3, 62, 92
10, 102599, Note_on_c, 3, 62, 0
10, 102600, Note_on_c, 3, 60, 84
10, 102689, Note_on_c, 3, 60, 0
10, 102720, Note_on_c, 3, 59, 84
10, 102809, Note_on_c, 3, 59, 0
10, 102840, Note_on_c, 3, 64, 92
10, 102959, Note_on_c, 3, 64, 0
10, 102960, Note_on_c, 3, 62, 84
10, 103064, Note_on_c, 3, 62, 0
10, 103080, Note_on_c, 3, 60, 84
10, 103169, Note_on_c, 3, 60, 0
10, 103200, Note_on_c, 3, 59, 84
10, 103289, Note_on_c, 3, 59, 0
10, 103320, Note_on_c, 3, 60, 92
10, 103439, Note_on_c, 3, 60, 0
10, 103440, Note_on_c, 3, 59, 84
10, 103544, Note_on_c, 3, 59, 0
10, 103560, Note_on_c, 3, 57, 84
10, 103649, Note_on_c, 3, 57, 0
10, 103680, Note_on_c, 3, 55, 84
10, 103769, Note_on_c, 3, 55, 0
10, 103800, Note_on_c, 3, 60, 92
10, 103919, Note_on_c, 3, 60, 0
10, 103920, Note_on_c, 3, 59, 84
10, 104024, Note_on_c, 3, 59, 0
10, 104040, Note_on_c, 3, 57, 84
10, 104129, Note_on_c, 3, 57, 0
10, 104160, Note_on_c, 3, 55, 84
10, 104249, Note_on_c, 3, 55, 0
10, 104280, Note_on_c, 3, 60, 92
10, 104399, Note_on_c, 3, 60, 0
10, 104400, Note_on_c, 3, 59, 84
10, 104504, Note_on_c, 3, 59, 0
10, 104520, Note_on_c, 3, 57, 84
10, 104609, Note_on_c, 3, 57, 0
10, 104640, Note_on_c, 3, 55, 84
10, 104729, Note_on_c, 3, 55, 0
10, 104760, Note_on_c, 3, 60, 92
10, 104879, Note_on_c, 3, 60, 0
10, 104880, Note_on_c, 3, 59, 84
10, 104984, Note_on_c, 3, 59, 0
10, 105000, Note_on_c, 3, 57, 84
10, 105089, Note_on_c, 3, 57, 0
10, 105120, Note_on_c, 3, 55, 84
10, 105209, Note_on_c, 3, 55, 0
10, 105240, Note_on_c, 3, 53, 84
10, 105329, Note_on_c, 3, 53, 0
10, 105360, Note_on_c, 3, 52, 84
10, 105449, Note_on_c, 3, 52, 0
10, 105480, Note_on_c, 3, 50, 84
10, 105569, Note_on_c, 3, 50, 0
10, 105600, Note_on_c, 3, 60, 84
10, 105600, Note_on_c, 3, 52, 84
10, 106304, Note_on_c, 3, 60, 0
10, 106304, Note_on_c, 3, 52, 0
10, 106320, Note_on_c, 3, 55, 84
10, 106320, Note_on_c, 3, 52, 84
10, 106559, Note_on_c, 3, 55, 0
10, 106559, Note_on_c, 3, 52, 0
10, 106560, Note_on_c, 3, 64, 84
10, 106560, Note_on_c, 3, 55, 84
10, 107279, Note_on_c, 3, 64, 0
10, 107279, Note_on_c, 3, 55, 0
10, 107280, Note_on_c, 3, 62, 84
10, 107280, Note_on_c, 3, 53, 84
10, 107459, Note_on_c, 3, 62, 0
10, 107459, Note_on_c, 3, 53, 0
10, 107460, Note_on_c, 3, 60, 84
10, 107460, Note_on_c, 3, 52, 84
10, 107511, Note_on_c, 3, 60, 0
10, 107511, Note_on_c, 3, 52, 0
10, 107520, Note_on_c, 3, 50, 84
10, 107520, Note_on_c, 3, 59, 84
10, 107759, Note_on_c, 3, 50, 0
10, 107759, Note_on_c, 3, 59, 0
10, 109440, Note_on_c, 3, 59, 84
10, 109440, Note_on_c, 3, 62, 84
10, 110144, Note_on_c, 3, 59, 0
10, 110144, Note_on_c, 3, 62, 0
10, 110160, Note_on_c, 3, 55, 84
10, 110399, Note_on_c, 3, 55, 0
10, 110400, Note_on_c, 3, 62, 84
10, 110400, Note_on_c, 3, 65, 84
10, 111119, Note_on_c, 3, 62, 0
10, 111119, Note_on_c, 3, 65, 0
10, 111120, Note_on_c, 3, 64, 84
10, 111120, Note_on_c, 3, 60, 84
10, 111299, Note_on_c, 3, 64, 0
10, 111299, Note_on_c, 3, 60, 0
10, 111300, Note_on_c, 3, 59, 84
10, 111300, Note_on_c, 3, 62, 84
10, 111351, Note_on_c, 3, 59, 0
10, 111351, Note_on_c, 3, 62, 0
10, 111360, Note_on_c, 3, 62, 84
10, 111360, Note_on_c, 3, 59, 84
10, 111599, Note_on_c, 3, 62, 0
10, 111599, Note_on_c, 3, 59, 0
10, 111600, Note_on_c, 3, 60, 84
10, 111600, Note_on_c, 3, 64, 84
10, 113264, Note_on_c, 3, 60, 0
10, 113264, Note_on_c, 3, 64, 0
10, 113280, Note_on_c, 3, 48, 84
10, 113280, Note_on_c, 3, 52, 84
10, 113384, Note_on_c, 3, 48, 0
10, 113400, Note_on_c, 3, 47, 84
10, 113504, Note_on_c, 3, 47, 0
10, 113520, Note_on_c, 3, 48, 84
10, 113624, Note_on_c, 3, 48, 0
10, 113640, Note_on_c, 3, 48, 84
10, 113744, Note_on_c, 3, 48, 0
10, 113760, Note_on_c, 3, 48, 84
10, 114344, Note_on_c, 3, 48, 0
10, 114360, Note_on_c, 3, 47, 84
10, 114464, Note_on_c, 3, 47, 0
10, 114480, Note_on_c, 3, 48, 84
10, 114584, Note_on_c, 3, 48, 0
10, 114600, Note_on_c, 3, 48, 84
10, 114704, Note_on_c, 3, 52, 0
10, 114704, Note_on_c, 3, 48, 0
10, 114720, Note_on_c, 3, 48, 84
10, 114720, Note_on_c, 3, 52, 84
10, 114944, Note_on_c, 3, 52, 0
10, 114960, Note_on_c, 3, 54, 84
10, 115139, Note_on_c, 3, 54, 0
10, 115140, Note_on_c, 3, 55, 84
10, 115191, Note_on_c, 3, 55, 0
10, 115200, Note_on_c, 3, 54, 84
10, 115304, Note_on_c, 3, 48, 0
10, 115320, Note_on_c, 3, 49, 84
10, 115424, Note_on_c, 3, 49, 0
10, 115440, Note_on_c, 3, 50, 84
10, 115544, Note_on_c, 3, 50, 0
10, 115560, Note_on_c, 3, 50, 84
10, 115664, Note_on_c, 3, 50, 0
10, 115680, Note_on_c, 3, 50, 84
10, 116264, Note_on_c, 3, 50, 0
10, 116280, Note_on_c, 3, 49, 84
10, 116384, Note_on_c, 3, 49, 0
10, 116400, Note_on_c, 3, 50, 84
10, 116504, Note_on_c, 3, 50, 0
10, 116520, Note_on_c, 3, 50, 84
10, 116624, Note_on_c, 3, 54, 0
10, 116624, Note_on_c, 3, 50, 0
10, 116640, Note_on_c, 3, 50, 84
10, 116640, Note_on_c, 3, 54, 84
10, 116864, Note_on_c, 3, 54, 0
10, 116880, Note_on_c, 3, 55, 84
10, 117059, Note_on_c, 3, 55, 0
10, 117060, Note_on_c, 3, 57, 84
10, 117111, Note_on_c, 3, 57, 0
10, 117120, Note_on_c, 3, 59, 84
10, 117224, Note_on_c, 3, 50, 0
10, 117240, Note_on_c, 3, 49, 84
10, 117344, Note_on_c, 3, 49, 0
10, 117360, Note_on_c, 3, 50, 84
10, 117464, Note_on_c, 3, 50, 0
10, 117480, Note_on_c, 3, 50, 84
10, 117584, Note_on_c, 3, 59, 0
10, 117584, Note_on_c, 3, 50, 0
10, 117600, Note_on_c, 3, 50, 84
10, 117600, Note_on_c, 3, 55, 84
10, 117824, Note_on_c, 3, 55, 0
10, 117840, Note_on_c, 3, 57, 84
10, 118019, Note_on_c, 3, 57, 0
10, 118020, Note_on_c, 3, 59, 84
10, 118071, Note_on_c, 3, 59, 0
10, 118080, Note_on_c, 3, 57, 84
10, 118184, Note_on_c, 3, 50, 0
10, 118200, Note_on_c, 3, 49, 84
10, 118304, Note_on_c, 3, 49, 0
10, 118320, Note_on_c, 3, 50, 84
10, 118424, Note_on_c, 3, 50, 0
10, 118440, Note_on_c, 3, 50, 84
10, 118544, Note_on_c, 3, 57, 0
10, 118544, Note_on_c, 3, 50, 0
10, 118560, Note_on_c, 3, 50, 84
10, 118560, Note_on_c, 3, 54, 84
10, 118664, Note_on_c, 3, 50, 0
10, 118680, Note_on_c, 3, 49, 84
10, 118784, Note_on_c, 3, 49, 0
10, 118800, Note_on_c, 3, 50, 84
10, 118904, Note_on_c, 3, 50, 0
10, 118919, Note_on_c, 3, 54, 0
10, 118920, Note_on_c, 3, 50, 84
10, 118920, Note_on_c, 3, 55, 84
10, 118979, Note_on_c, 3, 55, 0
10, 118980, Note_on_c, 3, 57, 84
10, 119024, Note_on_c, 3, 50, 0
10, 119031, Note_on_c, 3, 57, 0
10, 119040, Note_on_c, 3, 59, 84
10, 119040, Note_on_c, 3, 50, 84
10, 119144, Note_on_c, 3, 50, 0
10, 119160, Note_on_c, 3, 49, 84
10, 119264, Note_on_c, 3, 49, 0
10, 119280, Note_on_c, 3, 50, 84
10, 119384, Note_on_c, 3, 50, 0
10, 119400, Note_on_c, 3, 50, 84
10, 119504, Note_on_c, 3, 59, 0
10, 119504, Note_on_c, 3, 50, 0
10, 119520, Note_on_c, 3, 55, 84
10, 119520, Note_on_c, 3, 50, 84
10, 119624, Note_on_c, 3, 50, 0
10, 119640, Note_on_c, 3, 49, 84
10, 119744, Note_on_c, 3, 49, 0
10, 119760, Note_on_c, 3, 50, 84
10, 119864, Note_on_c, 3, 50, 0
10, 119879, Note_on_c, 3, 55, 0
10, 119880, Note_on_c, 3, 50, 84
10, 119880, Note_on_c, 3, 57, 84
10, 119939, Note_on_c, 3, 57, 0
10, 119940, Note_on_c, 3, 59, 84
10, 119984, Note_on_c, 3, 50, 0
10, 119991, Note_on_c, 3, 59, 0
10, 120000, Note_on_c, 3, 50, 84
10, 120104, Note_on_c, 3, 50, 0
10, 120120, Note_on_c, 3, 62, 84
10, 120239, Note_on_c, 3, 62, 0
10, 120240, Note_on_c, 3, 60, 84
10, 120344, Note_on_c, 3, 60, 0
10, 120360, Note_on_c, 3, 59, 84
10, 120449, Note_on_c, 3, 59, 0
10, 120480, Note_on_c, 3, 57, 84
10, 120569, Note_on_c, 3, 57, 0
10, 120600, Note_on_c, 3, 59, 84
10, 120719, Note_on_c, 3, 59, 0
10, 120720, Note_on_c, 3, 57, 84
10, 120824, Note_on_c, 3, 57, 0
10, 120840, Note_on_c, 3, 55, 84
10, 120929, Note_on_c, 3, 55, 0
10, 120960, Note_on_c, 3, 54, 84
10, 121049, Note_on_c, 3, 54, 0
10, 121080, Note_on_c, 3, 55, 84
10, 121199, Note_on_c, 3, 55, 0
10, 121200, Note_on_c, 3, 54, 84
10, 121304, Note_on_c, 3, 54, 0
10, 121320, Note_on_c, 3, 52, 84
10, 121409, Note_on_c, 3, 52, 0
10, 121440, Note_on_c, 3, 50, 84
10, 121544, Note_on_c, 3, 50, 0
10, 121560, Note_on_c, 3, 50, 84
10, 121560, Note_on_c, 3, 62, 84
10, 121679, Note_on_c, 3, 50, 0
10, 121679, Note_on_c, 3, 62, 0
10, 121680, Note_on_c, 3, 45, 84
10, 121680, Note_on_c, 3, 57, 84
10, 121784, Note_on_c, 3, 45, 0
10, 121784, Note_on_c, 3, 57, 0
10, 121800, Note_on_c, 3, 57, 84
10, 121800, Note_on_c, 3, 45, 84
10, 121889, Note_on_c, 3, 57, 0
10, 121889, Note_on_c, 3, 45, 0
10, 121920, Note_on_c, 3, 62, 84
10, 121920, Note_on_c, 3, 50, 84
10, 122024, Note_on_c, 3, 62, 0
10, 122024, Note_on_c, 3, 50, 0
10, 122040, Note_on_c, 3, 62, 84
10, 122159, Note_on_c, 3, 62, 0
10, 122160, Note_on_c, 3, 61, 84
10, 122264, Note_on_c, 3, 61, 0
10, 122280, Note_on_c, 3, 67, 84
10, 122369, Note_on_c, 3, 67, 0
10, 122400, Note_on_c, 3, 66, 84
10, 122519, Note_on_c, 3, 66, 0
10, 123840, Note_on_c, 3, 59, 84
10, 123840, Note_on_c, 3, 62, 84
10, 124019, Note_on_c, 3, 59, 0
10, 124019, Note_on_c, 3, 62, 0
10, 124320, Note_on_c, 3, 60, 84
10, 124320, Note_on_c, 3, 64, 84
10, 124499, Note_on_c, 3, 60, 0
10, 124499, Note_on_c, 3, 64, 0
10, 124800, Note_on_c, 3, 59, 84
10, 124800, Note_on_c, 3, 62, 84
10, 125519, Note_on_c, 3, 59, 0
10, 125519, Note_on_c, 3, 62, 0
10, 127440, Note_on_c, 3, 54, 76
10, 127440, Note_on_c, 3, 57, 76
10, 127507, Note_on_c, 3, 54, 0
10, 127507, Note_on_c, 3, 57, 0
10, 127520, Note_on_c, 3, 55, 76
10, 127520, Note_on_c, 3, 59, 76
10, 127587, Note_on_c, 3, 55, 0
10, 127587, Note_on_c, 3, 59, 0
10, 127600, Note_on_c, 3, 57, 76
10, 127600, Note_on_c, 3, 60, 76
10, 127667, Note_on_c, 3, 57, 0
10, 127667, Note_on_c, 3, 60, 0
10, 127680, Note_on_c, 3, 62, 76
10, 127680, Note_on_c, 3, 59, 76
10, 127904, Note_on_c, 3, 62, 0
10, 127904, Note_on_c, 3, 59, 0
10, 127920, Note_on_c, 3, 59, 76
10, 127920, Note_on_c, 3, 55, 76
10, 127987, Note_on_c, 3, 59, 0
10, 127987, Note_on_c, 3, 55, 0
10, 128000, Note_on_c, 3, 60, 76
10, 128000, Note_on_c, 3, 57, 76
10, 128067, Note_on_c, 3, 60, 0
10, 128067, Note_on_c, 3, 57, 0
10, 128080, Note_on_c, 3, 59, 76
10, 128080, Note_on_c, 3, 62, 76
10, 128147, Note_on_c, 3, 59, 0
10, 128147, Note_on_c, 3, 62, 0
10, 128160, Note_on_c, 3, 60, 76
10, 128160, Note_on_c, 3, 64, 76
10, 128384, Note_on_c, 3, 60, 0
10, 128384, Note_on_c, 3, 64, 0
10, 128400, Note_on_c, 3, 64, 76
10, 128400, Note_on_c, 3, 60, 76
10, 128467, Note_on_c, 3, 64, 0
10, 128467, Note_on_c, 3, 60, 0
10, 128480, Note_on_c, 3, 66, 76
10, 128480, Note_on_c, 3, 62, 76
10, 128547, Note_on_c, 3, 66, 0
10, 128547, Note_on_c, 3, 62, 0
10, 128560, Note_on_c, 3, 64, 76
10, 128560, Note_on_c, 3, 67, 76
10, 128627, Note_on_c, 3, 64, 0
10, 128627, Note_on_c, 3, 67, 0
10, 128640, Note_on_c, 3, 62, 76
10, 128640, Note_on_c, 3, 59, 76
10, 129359, Note_on_c, 3, 62, 0
10, 129359, Note_on_c, 3, 59, 0
10, 130320, Note_on_c, 3, 59, 52
10, 130320, Note_on_c, 3, 62, 52
10, 130559, Note_on_c, 3, 59, 0
10, 130559, Note_on_c, 3, 62, 0
10, 130560, Note_on_c, 3, 57, 52
10, 130560, Note_on_c, 3, 60, 52
10, 131039, Note_on_c, 3, 57, 0
10, 131039, Note_on_c, 3, 60, 0
10, 131040, Note_on_c, 3, 55, 52
10, 131040, Note_on_c, 3, 59, 52
10, 131279, Note_on_c, 3, 55, 0
10, 131279, Note_on_c, 3, 59, 0
10, 132240, Note_on_c, 3, 64, 52
10, 132240, Note_on_c, 3, 60, 52
10, 132479, Note_on_c, 3, 64, 0
10, 132479, Note_on_c, 3, 60, 0
10, 132480, Note_on_c, 3, 59, 52
10, 132480, Note_on_c, 3, 62, 52
10, 132959, Note_on_c, 3, 59, 0
10, 132959, Note_on_c, 3, 62, 0
10, 132960, Note_on_c, 3, 60, 52
10, 132960, Note_on_c, 3, 57, 52
10, 133199, Note_on_c, 3, 60, 0
10, 133199, Note_on_c, 3, 57, 0
10, 133440, Control_c, 3, 11, 48
10, 134160, Note_on_c, 3, 60, 84
10, 134399, Note_on_c, 3, 60, 0
10, 134400, Note_on_c, 3, 62, 84
10, 134400, Note_on_c, 3, 59, 84
10, 134400, Control_c, 3, 11, 48
10, 134453, Control_c, 3, 11, 50
10, 134507, Control_c, 3, 11, 52
10, 134560, Control_c, 3, 11, 55
10, 134613, Control_c, 3, 11, 57
10, 134667, Control_c, 3, 11, 59
10, 134720, Control_c, 3, 11, 61
10, 134773, Control_c, 3, 11, 63
10, 134827, Control_c, 3, 11, 66
10, 134880, Control_c, 3, 11, 68
10, 134933, Control_c, 3, 11, 70
10, 134987, Control_c, 3, 11, 72
10, 135040, Control_c, 3, 11, 74
10, 135093, Control_c, 3, 11, 77
10, 135147, Control_c, 3, 11, 79
10, 135200, Control_c, 3, 11, 81
10, 135253, Control_c, 3, 11, 83
10, 135307, Control_c, 3, 11, 85
10, 135344, Note_on_c, 3, 62, 0
10, 135344, Note_on_c, 3, 59, 0
10, 135360, Control_c, 3, 11, 88
10, 135360, Note_on_c, 3, 59, 84
10, 135360, Note_on_c, 3, 63, 84
10, 135413, Control_c, 3, 11, 90
10, 135467, Control_c, 3, 11, 92
10, 135520, Control_c, 3, 11, 94
10, 135573, Control_c, 3, 11, 96
10, 135627, Control_c, 3, 11, 98
10, 135680, Control_c, 3, 11, 101
10, 135733, Control_c, 3, 11, 103
10, 135787, Control_c, 3, 11, 105
10, 135840, Control_c, 3, 11, 107
10, 135893, Control_c, 3, 11, 109
10, 135947, Control_c, 3, 11, 112
10, 136000, Control_c, 3, 11, 114
10, 136053, Control_c, 3, 11, 116
10, 136107, Control_c, 3, 11, 118
10, 136160, Control_c, 3, 11, 120
10, 136213, Control_c, 3, 11, 123
10, 136267, Control_c, 3, 11, 127
10, 136304, Note_on_c, 3, 59, 0
10, 136304, Note_on_c, 3, 63, 0
10, 136320, Note_on_c, 3, 64, 84
10, 136320, Note_on_c, 3, 60, 84
10, 136904, Note_on_c, 3, 64, 0
10, 136904, Note_on_c, 3, 60, 0
10, 136920, Note_on_c, 3, 48, 84
10, 137024, Note_on_c, 3, 48, 0
10, 137040, Note_on_c, 3, 48, 84
10, 137144, Note_on_c, 3, 48, 0
10, 137160, Note_on_c, 3, 48, 84
10, 137264, Note_on_c, 3, 48, 0
10, 137280, Note_on_c, 3, 48, 84
10, 137384, Note_on_c, 3, 48, 0
10, 137400, Note_on_c, 3, 48, 84
10, 137504, Note_on_c, 3, 48, 0
10, 137520, Note_on_c, 3, 48, 84
10, 137624, Note_on_c, 3, 48, 0
10, 137640, Note_on_c, 3, 48, 84
10, 137744, Note_on_c, 3, 48, 0
10, 137760, Note_on_c, 3, 48, 84
10, 137864, Note_on_c, 3, 48, 0
10, 137880, Note_on_c, 3, 48, 84
10, 137984, Note_on_c, 3, 48, 0
10, 138000, Note_on_c, 3, 48, 84
10, 138104, Note_on_c, 3, 48, 0
10, 138120, Note_on_c, 3, 48, 84
10, 138224, Note_on_c, 3, 48, 0
10, 138240, Note_on_c, 3, 48, 84
10, 138464, Note_on_c, 3, 48, 0
10, 138480, Note_on_c, 3, 61, 84
10, 138480, Note_on_c, 3, 49, 84
10, 138704, Note_on_c, 3, 61, 0
10, 138704, Note_on_c, 3, 49, 0
10, 138720, Note_on_c, 3, 50, 84
10, 138720, Note_on_c, 3, 62, 84
10, 138944, Note_on_c, 3, 50, 0
10, 138944, Note_on_c, 3, 62, 0
10, 138960, Note_on_c, 3, 51, 84
10, 138960, Note_on_c, 3, 63, 84
10, 139184, Note_on_c, 3, 51, 0
10, 139184, Note_on_c, 3, 63, 0
10, 139200, Note_on_c, 3, 64, 84
10, 139200, Note_on_c, 3, 52, 84
10, 139424, Note_on_c, 3, 64, 0
10, 139424, Note_on_c, 3, 52, 0
10, 139440, Note_on_c, 3, 66, 84
10, 139440, Note_on_c, 3, 54, 84
10, 139664, Note_on_c, 3, 66, 0
10, 139664, Note_on_c, 3, 54, 0
10, 139680, Note_on_c, 3, 55, 84
10, 139680, Note_on_c, 3, 67, 84
10, 139784, Note_on_c, 3, 55, 0
10, 139784, Note_on_c, 3, 67, 0
10, 139800, Note_on_c, 3, 55, 84
10, 139800, Note_on_c, 3, 59, 84
10, 139904, Note_on_c, 3, 55, 0
10, 139904, Note_on_c, 3, 59, 0
10, 139920, Note_on_c, 3, 60, 84
10, 139920, Note_on_c, 3, 57, 84
10, 140024, Note_on_c, 3, 60, 0
10, 140024, Note_on_c, 3, 57, 0
10, 140040, Note_on_c, 3, 62, 84
10, 140040, Note_on_c, 3, 59, 84
10, 140144, Note_on_c, 3, 62, 0
10, 140144, Note_on_c, 3, 59, 0
10, 140160, Note_on_c, 3, 64, 84
10, 140160, Note_on_c, 3, 60, 84
10, 140339, Note_on_c, 3, 64, 0
10, 140339, Note_on_c, 3, 60, 0
10, 141120, Note_on_c, 3, 62, 84
10, 141299, Note_on_c, 3, 62, 0
10, 142080, Note_on_c, 3, 59, 76
10, 142080, Note_on_c, 3, 62, 76
10, 142199, Note_on_c, 3, 59, 0
10, 142199, Note_on_c, 3, 62, 0
10, 142200, Note_on_c, 3, 62, 52
10, 142200, Note_on_c, 3, 59, 52
10, 142559, Note_on_c, 3, 62, 0
10, 142560, Note_on_c, 3, 60, 52
10, 142799, Note_on_c, 3, 59, 0
10, 142800, Note_on_c, 3, 57, 52
10, 143039, Note_on_c, 3, 60, 0
10, 143039, Note_on_c, 3, 57, 0
10, 143040, Note_on_c, 3, 58, 52
10, 143040, Note_on_c, 3, 55, 52
10, 143279, Note_on_c, 3, 58, 0
10, 143279, Note_on_c, 3, 55, 0
10, 143280, Note_on_c, 3, 54, 52
10, 143280, Note_on_c, 3, 57, 52
10, 143504, Note_on_c, 3, 54, 0
10, 143504, Note_on_c, 3, 57, 0
10, 143520, Note_on_c, 3, 57, 52
10, 143520, Note_on_c, 3, 54, 52
10, 143744, Note_on_c, 3, 57, 0
10, 143744, Note_on_c, 3, 54, 0
10, 143760, Note_on_c, 3, 54, 52
10, 143760, Note_on_c, 3, 57, 52
10, 143984, Note_on_c, 3, 54, 0
10, 143984, Note_on_c, 3, 57, 0
10, 144000, Note_on_c, 3, 62, 76
10, 144000, Note_on_c, 3, 59, 76
10, 144119, Note_on_c, 3, 62, 0
10, 144119, Note_on_c, 3, 59, 0
10, 144120, Note_on_c, 3, 59, 52
10, 144120, Note_on_c, 3, 62, 52
10, 144479, Note_on_c, 3, 62, 0
10, 144480, Note_on_c, 3, 60, 52
10, 144719, Note_on_c, 3, 59, 0
10, 144720, Note_on_c, 3, 57, 52
10, 144959, Note_on_c, 3, 60, 0
10, 144959, Note_on_c, 3, 57, 0
10, 144960, Note_on_c, 3, 55, 52
10, 144960, Note_on_c, 3, 58, 52
10, 145199, Note_on_c, 3, 55, 0
10, 145199, Note_on_c, 3, 58, 0
10, 145200, Note_on_c, 3, 57, 52
10, 145200, Note_on_c, 3, 54, 52
10, 145424, Note_on_c, 3, 57, 0
10, 145424, Note_on_c, 3, 54, 0
10, 145440, Note_on_c, 3, 57, 52
10, 145440, Note_on_c, 3, 54, 52
10, 145664, Note_on_c, 3, 57, 0
10, 145664, Note_on_c, 3, 54, 0
10, 145680, Note_on_c, 3, 54, 52
10, 145680, Note_on_c, 3, 57, 52
10, 145904, Note_on_c, 3, 54, 0
10, 145904, Note_on_c, 3, 57, 0
10, 145920, Note_on_c, 3, 52, 76
10, 145920, Note_on_c, 3, 55, 76
10, 146039, Note_on_c, 3, 52, 0
10, 146039, Note_on_c, 3, 55, 0
10, 146040, Note_on_c, 3, 52, 52
10, 146040, Note_on_c, 3, 55, 52
10, 146399, Note_on_c, 3, 55, 0
10, 146400, Note_on_c, 3, 56, 60
10, 146639, Note_on_c, 3, 52, 0
10, 146640, Note_on_c, 3, 50, 52
10, 146879, Note_on_c, 3, 56, 0
10, 146879, Note_on_c, 3, 50, 0
10, 146880, Note_on_c, 3, 48, 52
10, 146880, Note_on_c, 3, 57, 52
10, 147119, Note_on_c, 3, 48, 0
10, 147119, Note_on_c, 3, 57, 0
10, 147120, Note_on_c, 3, 62, 52
10, 147120, Note_on_c, 3, 59, 52
10, 147344, Note_on_c, 3, 62, 0
10, 147344, Note_on_c, 3, 59, 0
10, 147360, Note_on_c, 3, 59, 52
10, 147360, Note_on_c, 3, 62, 52
10, 147584, Note_on_c, 3, 59, 0
10, 147584, Note_on_c, 3, 62, 0
10, 147600, Note_on_c, 3, 59, 52
10, 147600, Note_on_c, 3, 62, 52
10, 147824, Note_on_c, 3, 59, 0
10, 147824, Note_on_c, 3, 62, 0
10, 147840, Note_on_c, 3, 60, 52
10, 147840, Note_on_c, 3, 64, 52
10, 148304, Note_on_c, 3, 60, 0
10, 148304, Note_on_c, 3, 64, 0
10, 148320, Note_on_c, 3, 60, 52
10, 148320, Note_on_c, 3, 64, 52
10, 148739, Note_on_c, 3, 60, 0
10, 148739, Note_on_c, 3, 64, 0
10, 148740, Note_on_c, 3, 60, 52
10, 148740, Note_on_c, 3, 57, 52
10, 148799, Note_on_c, 3, 60, 0
10, 148799, Note_on_c, 3, 57, 0
10, 148800, Note_on_c, 3, 59, 52
10, 148800, Note_on_c, 3, 55, 52
10, 149279, Note_on_c, 3, 59, 0
10, 149279, Note_on_c, 3, 55, 0
10, 149280, Note_on_c, 3, 60, 52
10, 149280, Note_on_c, 3, 57, 52
10, 149699, Note_on_c, 3, 60, 0
10, 149699, Note_on_c, 3, 57, 0
10, 149700, Note_on_c, 3, 54, 52
10, 149700, Note_on_c, 3, 57, 52
10, 149751, Note_on_c, 3, 54, 0
10, 149751, Note_on_c, 3, 57, 0
10, 149760, Note_on_c, 3, 62, 76
10, 149760, Note_on_c, 3, 50, 76
10, 150464, Note_on_c, 3, 62, 0
10, 150464, Note_on_c, 3, 50, 0
10, 150480, Note_on_c, 3, 50, 76
10, 150480, Note_on_c, 3, 62, 76
10, 150704, Note_on_c, 3, 50, 0
10, 150704, Note_on_c, 3, 62, 0
10, 150720, Note_on_c, 3, 62, 76
10, 150720, Note_on_c, 3, 50, 76
10, 150944, Note_on_c, 3, 62, 0
10, 150944, Note_on_c, 3, 50, 0
10, 150960, Note_on_c, 3, 50, 76
10, 150960, Note_on_c, 3, 62, 76
10, 151184, Note_on_c, 3, 50, 0
10, 151184, Note_on_c, 3, 62, 0
10, 151200, Note_on_c, 3, 62, 76
10, 151200, Note_on_c, 3, 50, 76
10, 151424, Note_on_c, 3, 62, 0
10, 151424, Note_on_c, 3, 50, 0
10, 151440, Note_on_c, 3, 50, 76
10, 151440, Note_on_c, 3, 62, 76
10, 151664, Note_on_c, 3, 50, 0
10, 151664, Note_on_c, 3, 62, 0
10, 151680, Note_on_c, 3, 62, 84
10, 151680, Note_on_c, 3, 50, 84
10, 151800, Control_c, 3, 11, 112
10, 152384, Note_on_c, 3, 62, 0
10, 152384, Note_on_c, 3, 50, 0
10, 152400, Note_on_c, 3, 50, 84
10, 152400, Note_on_c, 3, 62, 84
10, 152624, Note_on_c, 3, 50, 0
10, 152624, Note_on_c, 3, 62, 0
10, 152640, Note_on_c, 3, 62, 84
10, 152640, Note_on_c, 3, 50, 84
10, 152864, Note_on_c, 3, 62, 0
10, 152864, Note_on_c, 3, 50, 0
10, 152880, Note_on_c, 3, 62, 84
10, 152880, Note_on_c, 3, 50, 84
10, 153104, Note_on_c, 3, 62, 0
10, 153104, Note_on_c, 3, 50, 0
10, 153120, Note_on_c, 3, 62, 84
10, 153120, Note_on_c, 3, 50, 84
10, 153344, Note_on_c, 3, 62, 0
10, 153344, Note_on_c, 3, 50, 0
10, 153360, Note_on_c, 3, 62, 84
10, 153360, Note_on_c, 3, 50, 84
10, 153584, Note_on_c, 3, 62, 0
10, 153584, Note_on_c, 3, 50, 0
10, 153598, Control_c, 3, 11, 127
10, 153600, Note_on_c, 3, 62, 84
10, 153600, Note_on_c, 3, 50, 84
10, 153720, Control_c, 3, 11, 112
10, 154304, Note_on_c, 3, 62, 0
10, 154304, Note_on_c, 3, 50, 0
10, 154320, Note_on_c, 3, 55, 84
10, 154320, Note_on_c, 3, 62, 84
10, 154544, Note_on_c, 3, 55, 0
10, 154544, Note_on_c, 3, 62, 0
10, 154558, Control_c, 3, 11, 127
10, 154560, Note_on_c, 3, 64, 84
10, 154560, Note_on_c, 3, 60, 84
10, 154784, Note_on_c, 3, 64, 0
10, 154784, Note_on_c, 3, 60, 0
10, 154800, Note_on_c, 3, 65, 84
10, 154800, Note_on_c, 3, 60, 84
10, 155024, Note_on_c, 3, 65, 0
10, 155024, Note_on_c, 3, 60, 0
10, 155040, Note_on_c, 3, 65, 84
10, 155040, Note_on_c, 3, 60, 84
10, 155264, Note_on_c, 3, 65, 0
10, 155264, Note_on_c, 3, 60, 0
10, 155280, Note_on_c, 3, 60, 84
10, 155280, Note_on_c, 3, 65, 84
10, 155504, Note_on_c, 3, 60, 0
10, 155504, Note_on_c, 3, 65, 0
10, 155520, Note_on_c, 3, 60, 76
10, 155520, Note_on_c, 3, 65, 76
10, 155744, Note_on_c, 3, 60, 0
10, 155744, Note_on_c, 3, 65, 0
10, 155760, Note_on_c, 3, 60, 80
10, 155760, Note_on_c, 3, 65, 80
10, 155984, Note_on_c, 3, 60, 0
10, 155984, Note_on_c, 3, 65, 0
10, 156000, Note_on_c, 3, 65, 80
10, 156000, Note_on_c, 3, 60, 80
10, 156224, Note_on_c, 3, 65, 0
10, 156224, Note_on_c, 3, 60, 0
10, 156240, Note_on_c, 3, 60, 80
10, 156240, Note_on_c, 3, 65, 80
10, 156464, Note_on_c, 3, 60, 0
10, 156464, Note_on_c, 3, 65, 0
10, 156480, Note_on_c, 3, 60, 80
10, 156480, Note_on_c, 3, 65, 80
10, 156704, Note_on_c, 3, 60, 0
10, 156704, Note_on_c, 3, 65, 0
10, 156720, Note_on_c, 3, 65, 80
10, 156720, Note_on_c, 3, 60, 80
10, 156944, Note_on_c, 3, 65, 0
10, 156944, Note_on_c, 3, 60, 0
10, 156960, Note_on_c, 3, 65, 80
10, 156960, Note_on_c, 3, 60, 80
10, 157184, Note_on_c, 3, 65, 0
10, 157184, Note_on_c, 3, 60, 0
10, 157200, Note_on_c, 3, 60, 80
10, 157200, Note_on_c, 3, 65, 80
10, 157424, Note_on_c, 3, 60, 0
10, 157424, Note_on_c, 3, 65, 0
10, 157440, Note_on_c, 3, 53, 84
10, 157440, Note_on_c, 3, 65, 84
10, 159344, Note_on_c, 3, 53, 0
10, 159344, Note_on_c, 3, 65, 0
10, 159360, Note_on_c, 3, 65, 84
10, 159360, Note_on_c, 3, 59, 84
10, 160064, Note_on_c, 3, 65, 0
10, 160064, Note_on_c, 3, 59, 0
10, 160080, Note_on_c, 3, 65, 84
10, 160080, Note_on_c, 3, 59, 84
10, 160184, Note_on_c, 3, 65, 0
10, 160184, Note_on_c, 3, 59, 0
10, 160200, Note_on_c, 3, 59, 84
10, 160200, Note_on_c, 3, 65, 84
10, 160304, Note_on_c, 3, 59, 0
10, 160304, Note_on_c, 3, 65, 0
10, 160320, Note_on_c, 3, 59, 84
10, 160320, Note_on_c, 3, 65, 84
10, 161024, Note_on_c, 3, 59, 0
10, 161024, Note_on_c, 3, 65, 0
10, 161040, Note_on_c, 3, 65, 84
10, 161040, Note_on_c, 3, 59, 84
10, 161144, Note_on_c, 3, 65, 0
10, 161144, Note_on_c, 3, 59, 0
10, 161160, Note_on_c, 3, 59, 84
10, 161160, Note_on_c, 3, 65, 84
10, 161264, Note_on_c, 3, 59, 0
10, 161264, Note_on_c, 3, 65, 0
10, 161280, Note_on_c, 3, 65, 84
10, 161280, Note_on_c, 3, 59, 84
10, 161504, Note_on_c, 3, 65, 0
10, 161504, Note_on_c, 3, 59, 0
10, 161520, Note_on_c, 3, 65, 84
10, 161520, Note_on_c, 3, 59, 84
10, 161624, Note_on_c, 3, 65, 0
10, 161624, Note_on_c, 3, 59, 0
10, 161640, Note_on_c, 3, 59, 84
10, 161640, Note_on_c, 3, 65, 84
10, 161744, Note_on_c, 3, 59, 0
10, 161744, Note_on_c, 3, 65, 0
10, 161760, Note_on_c, 3, 65, 84
10, 161760, Note_on_c, 3, 59, 84
10, 161984, Note_on_c, 3, 65, 0
10, 161984, Note_on_c, 3, 59, 0
10, 162000, Note_on_c, 3, 65, 84
10, 162000, Note_on_c, 3, 59, 84
10, 162104, Note_on_c, 3, 65, 0
10, 162104, Note_on_c, 3, 59, 0
10, 162120, Note_on_c, 3, 59, 84
10, 162120, Note_on_c, 3, 65, 84
10, 162224, Note_on_c, 3, 59, 0
10, 162224, Note_on_c, 3, 65, 0
10, 162240, Note_on_c, 3, 59, 84
10, 162344, Note_on_c, 3, 59, 0
10, 162360, Note_on_c, 3, 55, 84
10, 162464, Note_on_c, 3, 55, 0
10, 162480, Note_on_c, 3, 62, 84
10, 162584, Note_on_c, 3, 62, 0
10, 162600, Note_on_c, 3, 59, 84
10, 162704, Note_on_c, 3, 59, 0
10, 162720, Note_on_c, 3, 65, 84
10, 162824, Note_on_c, 3, 65, 0
10, 162840, Note_on_c, 3, 62, 84
10, 162944, Note_on_c, 3, 62, 0
10, 162960, Note_on_c, 3, 55, 84
10, 162960, Note_on_c, 3, 65, 84
10, 163184, Note_on_c, 3, 55, 0
10, 163184, Note_on_c, 3, 65, 0
10, 163200, Note_on_c, 3, 56, 84
10, 163200, Note_on_c, 3, 59, 84
10, 166064, Note_on_c, 3, 56, 0
10, 166064, Note_on_c, 3, 59, 0
10, 166080, Note_on_c, 3, 56, 84
10, 166184, Note_on_c, 3, 56, 0
10, 166200, Note_on_c, 3, 52, 84
10, 166304, Note_on_c, 3, 52, 0
10, 166320, Note_on_c, 3, 59, 84
10, 166424, Note_on_c, 3, 59, 0
10, 166440, Note_on_c, 3, 56, 84
10, 166544, Note_on_c, 3, 56, 0
10, 166560, Note_on_c, 3, 62, 84
10, 166664, Note_on_c, 3, 62, 0
10, 166680, Note_on_c, 3, 59, 84
10, 166784, Note_on_c, 3, 59, 0
10, 166800, Note_on_c, 3, 59, 84
10, 166800, Note_on_c, 3, 62, 84
10, 166904, Note_on_c, 3, 59, 0
10, 166904, Note_on_c, 3, 62, 0
10, 166920, Note_on_c, 3, 62, 84
10, 166920, Note_on_c, 3, 59, 84
10, 167024, Note_on_c, 3, 62, 0
10, 167024, Note_on_c, 3, 59, 0
10, 167040, Note_on_c, 3, 61, 84
10, 167040, Note_on_c, 3, 57, 84
10, 167279, Note_on_c, 3, 61, 0
10, 167279, Note_on_c, 3, 57, 0
10, 167520, Note_on_c, 3, 66, 84
10, 167520, Note_on_c, 3, 62, 84
10, 167759, Note_on_c, 3, 66, 0
10, 167759, Note_on_c, 3, 62, 0
10, 168000, Note_on_c, 3, 61, 84
10, 168000, Note_on_c, 3, 64, 84
10, 168719, Note_on_c, 3, 61, 0
10, 168719, Note_on_c, 3, 64, 0
10, 176400, Note_on_c, 3, 60, 52
10, 176479, Note_on_c, 3, 60, 0
10, 176480, Note_on_c, 3, 62, 52
10, 176559, Note_on_c, 3, 62, 0
10, 176560, Note_on_c, 3, 64, 52
10, 176627, Note_on_c, 3, 64, 0
10, 176640, Note_on_c, 3, 65, 52
10, 176879, Note_on_c, 3, 65, 0
10, 176880, Note_on_c, 3, 64, 52
10, 177119, Note_on_c, 3, 64, 0
10, 177120, Note_on_c, 3, 62, 52
10, 177359, Note_on_c, 3, 62, 0
10, 177360, Note_on_c, 3, 60, 52
10, 177599, Note_on_c, 3, 60, 0
10, 177600, Note_on_c, 3, 58, 52
10, 177839, Note_on_c, 3, 58, 0
10, 177840, Note_on_c, 3, 57, 52
10, 178079, Note_on_c, 3, 57, 0
10, 178080, Note_on_c, 3, 55, 52
10, 178304, Note_on_c, 3, 55, 0
10, 178320, Note_on_c, 3, 53, 52
10, 178320, Note_on_c, 3, 65, 52
10, 178559, Note_on_c, 3, 53, 0
10, 178559, Note_on_c, 3, 65, 0
10, 178560, Note_on_c, 3, 52, 52
10, 178560, Note_on_c, 3, 64, 52
10, 178799, Note_on_c, 3, 52, 0
10, 178799, Note_on_c, 3, 64, 0
10, 178800, Note_on_c, 3, 62, 52
10, 178800, Note_on_c, 3, 50, 52
10, 179039, Note_on_c, 3, 62, 0
10, 179039, Note_on_c, 3, 50, 0
10, 179040, Note_on_c, 3, 48, 52
10, 179040, Note_on_c, 3, 60, 52
10, 179279, Note_on_c, 3, 48, 0
10, 179279, Note_on_c, 3, 60, 0
10, 179280, Note_on_c, 3, 46, 52
10, 179280, Note_on_c, 3, 58, 52
10, 179519, Note_on_c, 3, 46, 0
10, 179519, Note_on_c, 3, 58, 0
10, 179520, Note_on_c, 3, 57, 52
10, 179520, Note_on_c, 3, 45, 52
10, 179759, Note_on_c, 3, 57, 0
10, 179759, Note_on_c, 3, 45, 0
10, 180240, Note_on_c, 3, 62, 52
10, 180319, Note_on_c, 3, 62, 0
10, 180320, Note_on_c, 3, 64, 52
10, 180399, Note_on_c, 3, 64, 0
10, 180400, Note_on_c, 3, 66, 52
10, 180467, Note_on_c, 3, 66, 0
10, 180480, Note_on_c, 3, 67, 52
10, 180719, Note_on_c, 3, 67, 0
10, 180720, Note_on_c, 3, 65, 52
10, 180959, Note_on_c, 3, 65, 0
10, 180960, Note_on_c, 3, 64, 52
10, 181184, Note_on_c, 3, 64, 0
10, 181200, Note_on_c, 3, 64, 52
10, 181200, Note_on_c, 3, 62, 52
10, 181439, Note_on_c, 3, 62, 0
10, 181440, Note_on_c, 3, 60, 52
10, 181679, Note_on_c, 3, 64, 0
10, 181679, Note_on_c, 3, 60, 0
10, 181680, Note_on_c, 3, 59, 52
10, 181680, Note_on_c, 3, 62, 52
10, 181919, Note_on_c, 3, 59, 0
10, 181919, Note_on_c, 3, 62, 0
10, 181920, Note_on_c, 3, 60, 52
10, 181920, Note_on_c, 3, 57, 52
10, 182144, Note_on_c, 3, 60, 0
10, 182144, Note_on_c, 3, 57, 0
10, 182158, Control_c, 3, 11, 80
10, 182160, Note_on_c, 3, 64, 76
10, 182160, Note_on_c, 3, 55, 76
10, 182160, Control_c, 3, 11, 80
10, 182213, Control_c, 3, 11, 83
10, 182267, Control_c, 3, 11, 85
10, 182320, Control_c, 3, 11, 88
10, 182373, Control_c, 3, 11, 90
10, 182399, Note_on_c, 3, 64, 0
10, 182399, Note_on_c, 3, 55, 0
10, 182400, Note_on_c, 3, 53, 76
10, 182400, Note_on_c, 3, 65, 76
10, 182427, Control_c, 3, 11, 93
10, 182480, Control_c, 3, 11, 96
10, 182533, Control_c, 3, 11, 98
10, 182587, Control_c, 3, 11, 101
10, 182639, Note_on_c, 3, 53, 0
10, 182640, Control_c, 3, 11, 104
10, 182640, Note_on_c, 3, 51, 76
10, 182693, Control_c, 3, 11, 106
10, 182747, Control_c, 3, 11, 109
10, 182800, Control_c, 3, 11, 111
10, 182853, Control_c, 3, 11, 114
10, 182879, Note_on_c, 3, 51, 0
10, 182880, Note_on_c, 3, 50, 76
10, 182907, Control_c, 3, 11, 117
10, 182960, Control_c, 3, 11, 119
10, 183013, Control_c, 3, 11, 122
10, 183067, Control_c, 3, 11, 127
10, 183104, Note_on_c, 3, 65, 0
10, 183104, Note_on_c, 3, 50, 0
10, 183120, Note_on_c, 3, 41, 76
10, 183120, Note_on_c, 3, 53, 76
10, 185984, Note_on_c, 3, 41, 0
10, 185984, Note_on_c, 3, 53, 0
10, 186000, Note_on_c, 3, 41, 76
10, 186000, Note_on_c, 3, 53, 76
10, 188864, Note_on_c, 3, 41, 0
10, 188864, Note_on_c, 3, 53, 0
10, 188880, Note_on_c, 3, 61, 84
10, 189104, Note_on_c, 3, 61, 0
10, 189120, Note_on_c, 3, 60, 84
10, 189584, Note_on_c, 3, 60, 0
10, 189600, Note_on_c, 3, 61, 84
10, 190064, Note_on_c, 3, 61, 0
10, 190080, Note_on_c, 3, 60, 76
10, 190080, Note_on_c, 3, 63, 76
10, 191744, Note_on_c, 3, 60, 0
10, 191744, Note_on_c, 3, 63, 0
10, 191760, Note_on_c, 3, 63, 76
10, 191984, Note_on_c, 3, 63, 0
10, 192000, Note_on_c, 3, 62, 76
10, 192464, Note_on_c, 3, 62, 0
10, 192480, Note_on_c, 3, 63, 76
10, 192944, Note_on_c, 3, 63, 0
10, 192960, Note_on_c, 3, 62, 76
10, 192960, Note_on_c, 3, 59, 76
10, 194624, Note_on_c, 3, 62, 0
10, 194624, Note_on_c, 3, 59, 0
10, 194640, Note_on_c, 3, 60, 76
10, 194719, Note_on_c, 3, 60, 0
10, 194720, Note_on_c, 3, 58, 76
10, 194799, Note_on_c, 3, 58, 0
10, 194800, Note_on_c, 3, 56, 76
10, 194879, Note_on_c, 3, 56, 0
10, 194880, Note_on_c, 3, 55, 76
10, 195119, Note_on_c, 3, 55, 0
10, 195120, Note_on_c, 3, 58, 76
10, 195199, Note_on_c, 3, 58, 0
10, 195200, Note_on_c, 3, 56, 76
10, 195279, Note_on_c, 3, 56, 0
10, 195280, Note_on_c, 3, 55, 76
10, 195359, Note_on_c, 3, 55, 0
10, 195360, Note_on_c, 3, 53, 76
10, 195599, Note_on_c, 3, 53, 0
10, 195600, Note_on_c, 3, 56, 76
10, 195679, Note_on_c, 3, 56, 0
10, 195680, Note_on_c, 3, 55, 76
10, 195759, Note_on_c, 3, 55, 0
10, 195760, Note_on_c, 3, 53, 76
10, 195827, Note_on_c, 3, 53, 0
10, 195840, Note_on_c, 3, 52, 76
10, 196019, Note_on_c, 3, 52, 0
10, 197040, Note_on_c, 3, 64, 76
10, 197119, Note_on_c, 3, 64, 0
10, 197120, Note_on_c, 3, 65, 76
10, 197199, Note_on_c, 3, 65, 0
10, 197200, Note_on_c, 3, 67, 76
10, 197267, Note_on_c, 3, 67, 0
10, 197280, Note_on_c, 3, 60, 76
10, 197459, Note_on_c, 3, 60, 0
10, 198480, Note_on_c, 3, 55, 80
10, 198480, Note_on_c, 3, 48, 80
10, 198547, Note_on_c, 3, 55, 0
10, 198547, Note_on_c, 3, 48, 0
10, 198560, Note_on_c, 3, 48, 80
10, 198560, Note_on_c, 3, 55, 80
10, 198627, Note_on_c, 3, 48, 0
10, 198627, Note_on_c, 3, 55, 0
10, 198640, Note_on_c, 3, 48, 80
10, 198640, Note_on_c, 3, 55, 80
10, 198707, Note_on_c, 3, 48, 0
10, 198707, Note_on_c, 3, 55, 0
10, 198720, Note_on_c, 3, 56, 80
10, 198720, Note_on_c, 3, 41, 80
10, 198959, Note_on_c, 3, 56, 0
10, 198959, Note_on_c, 3, 41, 0
10, 199440, Note_on_c, 3, 56, 80
10, 199440, Note_on_c, 3, 53, 80
10, 199507, Note_on_c, 3, 56, 0
10, 199507, Note_on_c, 3, 53, 0
10, 199520, Note_on_c, 3, 53, 80
10, 199520, Note_on_c, 3, 56, 80
10, 199587, Note_on_c, 3, 53, 0
10, 199587, Note_on_c, 3, 56, 0
10, 199600, Note_on_c, 3, 53, 80
10, 199600, Note_on_c, 3, 56, 80
10, 199667, Note_on_c, 3, 53, 0
10, 199667, Note_on_c, 3, 56, 0
10, 199680, Note_on_c, 3, 51, 80
10, 199680, Note_on_c, 3, 58, 80
10, 199919, Note_on_c, 3, 51, 0
10, 199919, Note_on_c, 3, 58, 0
10, 200400, Note_on_c, 3, 51, 80
10, 200400, Note_on_c, 3, 58, 80
10, 200467, Note_on_c, 3, 51, 0
10, 200467, Note_on_c, 3, 58, 0
10, 200480, Note_on_c, 3, 58, 80
10, 200480, Note_on_c, 3, 51, 80
10, 200547, Note_on_c, 3, 58, 0
10, 200547, Note_on_c, 3, 51, 0
10, 200560, Note_on_c, 3, 51, 80
10, 200560, Note_on_c, 3, 58, 80
10, 200627, Note_on_c, 3, 51, 0
10, 200627, Note_on_c, 3, 58, 0
10, 200640, Note_on_c, 3, 60, 80
10, 200640, Note_on_c, 3, 44, 80
10, 200879, Note_on_c, 3, 60, 0
10, 200879, Note_on_c, 3, 44, 0
10, 201360, Note_on_c, 3, 56, 80
10, 201427, Note_on_c, 3, 56, 0
10, 201440, Note_on_c, 3, 56, 80
10, 201507, Note_on_c, 3, 56, 0
10, 201520, Note_on_c, 3, 56, 80
10, 201587, Note_on_c, 3, 56, 0
10, 201600, Note_on_c, 3, 55, 80
10, 201839, Note_on_c, 3, 55, 0
10, 202320, Note_on_c, 3, 55, 80
10, 202387, Note_on_c, 3, 55, 0
10, 202400, Note_on_c, 3, 55, 80
10, 202467, Note_on_c, 3, 55, 0
10, 202480, Note_on_c, 3, 55, 80
10, 202547, Note_on_c, 3, 55, 0
10, 202560, Note_on_c, 3, 48, 80
10, 202799, Note_on_c, 3, 48, 0
10, 203280, Note_on_c, 3, 51, 80
10, 203280, Note_on_c, 3, 48, 80
10, 203347, Note_on_c, 3, 51, 0
10, 203347, Note_on_c, 3, 48, 0
10, 203360, Note_on_c, 3, 48, 80
10, 203360, Note_on_c, 3, 51, 80
10, 203427, Note_on_c, 3, 48, 0
10, 203427, Note_on_c, 3, 51, 0
10, 203440, Note_on_c, 3, 51, 80
10, 203440, Note_on_c, 3, 48, 80
10, 203507, Note_on_c, 3, 51, 0
10, 203507, Note_on_c, 3, 48, 0
10, 203520, Note_on_c, 3, 46, 80
10, 203520, Note_on_c, 3, 53, 80
10, 203759, Note_on_c, 3, 46, 0
10, 203759, Note_on_c, 3, 53, 0
10, 204240, Note_on_c, 3, 53, 80
10, 204240, Note_on_c, 3, 46, 80
10, 204307, Note_on_c, 3, 53, 0
10, 204307, Note_on_c, 3, 46, 0
10, 204320, Note_on_c, 3, 53, 80
10, 204320, Note_on_c, 3, 46, 80
10, 204387, Note_on_c, 3, 53, 0
10, 204387, Note_on_c, 3, 46, 0
10, 204400, Note_on_c, 3, 53, 80
10, 204400, Note_on_c, 3, 46, 80
10, 204467, Note_on_c, 3, 53, 0
10, 204467, Note_on_c, 3, 46, 0
10, 204480, Note_on_c, 3, 51, 80
10, 204480, Note_on_c, 3, 55, 80
10, 204719, Note_on_c, 3, 51, 0
10, 204719, Note_on_c, 3, 55, 0
10, 205200, Note_on_c, 3, 55, 80
10, 205200, Note_on_c, 3, 51, 80
10, 205267, Note_on_c, 3, 55, 0
10, 205267, Note_on_c, 3, 51, 0
10, 205280, Note_on_c, 3, 55, 80
10, 205280, Note_on_c, 3, 51, 80
10, 205347, Note_on_c, 3, 55, 0
10, 205347, Note_on_c, 3, 51, 0
10, 205360, Note_on_c, 3, 55, 80
10, 205360, Note_on_c, 3, 51, 80
10, 205439, Note_on_c, 3, 55, 0
10, 205439, Note_on_c, 3, 51, 0
10, 205680, Note_on_c, 3, 50, 80
10, 205680, Note_on_c, 3, 62, 80
10, 205747, Note_on_c, 3, 50, 0
10, 205747, Note_on_c, 3, 62, 0
10, 205760, Note_on_c, 3, 62, 80
10, 205760, Note_on_c, 3, 50, 80
10, 205827, Note_on_c, 3, 62, 0
10, 205827, Note_on_c, 3, 50, 0
10, 205840, Note_on_c, 3, 62, 80
10, 205840, Note_on_c, 3, 50, 80
10, 205919, Note_on_c, 3, 62, 0
10, 205919, Note_on_c, 3, 50, 0
10, 206160, Note_on_c, 3, 62, 80
10, 206160, Note_on_c, 3, 50, 80
10, 206227, Note_on_c, 3, 62, 0
10, 206227, Note_on_c, 3, 50, 0
10, 206240, Note_on_c, 3, 62, 80
10, 206240, Note_on_c, 3, 50, 80
10, 206307, Note_on_c, 3, 62, 0
10, 206307, Note_on_c, 3, 50, 0
10, 206320, Note_on_c, 3, 62, 80
10, 206320, Note_on_c, 3, 50, 80
10, 206399, Note_on_c, 3, 62, 0
10, 206399, Note_on_c, 3, 50, 0
10, 206640, Note_on_c, 3, 50, 80
10, 206640, Note_on_c, 3, 62, 80
10, 206707, Note_on_c, 3, 50, 0
10, 206707, Note_on_c, 3, 62, 0
10, 206720, Note_on_c, 3, 62, 80
10, 206720, Note_on_c, 3, 50, 80
10, 206787, Note_on_c, 3, 62, 0
10, 206787, Note_on_c, 3, 50, 0
10, 206800, Note_on_c, 3, 62, 80
10, 206800, Note_on_c, 3, 50, 80
10, 206879, Note_on_c, 3, 62, 0
10, 206879, Note_on_c, 3, 50, 0
10, 207120, Note_on_c, 3, 62, 80
10, 207120, Note_on_c, 3, 50, 80
10, 207187, Note_on_c, 3, 62, 0
10, 207187, Note_on_c, 3, 50, 0
10, 207200, Note_on_c, 3, 62, 80
10, 207200, Note_on_c, 3, 50, 80
10, 207267, Note_on_c, 3, 62, 0
10, 207267, Note_on_c, 3, 50, 0
10, 207280, Note_on_c, 3, 50, 80
10, 207280, Note_on_c, 3, 62, 80
10, 207347, Note_on_c, 3, 50, 0
10, 207347, Note_on_c, 3, 62, 0
10, 207360, Note_on_c, 3, 67, 84
10, 207360, Note_on_c, 3, 55, 84
10, 208064, Note_on_c, 3, 67, 0
10, 208064, Note_on_c, 3, 55, 0
10, 208080, Note_on_c, 3, 48, 84
10, 208080, Note_on_c, 3, 60, 84
10, 208304, Note_on_c, 3, 48, 0
10, 208304, Note_on_c, 3, 60, 0
10, 208320, Note_on_c, 3, 59, 84
10, 208320, Note_on_c, 3, 47, 84
10, 208784, Note_on_c, 3, 59, 0
10, 208784, Note_on_c, 3, 47, 0
10, 208800, Note_on_c, 3, 48, 84
10, 208800, Note_on_c, 3, 60, 84
10, 209264, Note_on_c, 3, 48, 0
10, 209264, Note_on_c, 3, 60, 0
10, 209280, Note_on_c, 3, 50, 84
10, 209280, Note_on_c, 3, 62, 84
10, 209984, Note_on_c, 3, 50, 0
10, 209984, Note_on_c, 3, 62, 0
10, 210000, Note_on_c, 3, 50, 84
10, 210000, Note_on_c, 3, 47, 84
10, 210224, Note_on_c, 3, 50, 0
10, 210224, Note_on_c, 3, 47, 0
10, 210240, Note_on_c, 3, 45, 84
10, 210240, Note_on_c, 3, 48, 84
10, 210704, Note_on_c, 3, 45, 0
10, 210704, Note_on_c, 3, 48, 0
10, 210720, Note_on_c, 3, 47, 84
10, 210720, Note_on_c, 3, 50, 84
10, 211184, Note_on_c, 3, 47, 0
10, 211184, Note_on_c, 3, 50, 0
10, 211200, Note_on_c, 3, 52, 84
10, 211200, Note_on_c, 3, 48, 84
10, 211904, Note_on_c, 3, 52, 0
10, 211904, Note_on_c, 3, 48, 0
10, 211920, Note_on_c, 3, 52, 84
10, 211920, Note_on_c, 3, 48, 84
10, 212144, Note_on_c, 3, 52, 0
10, 212144, Note_on_c, 3, 48, 0
10, 212160, Note_on_c, 3, 47, 84
10, 212160, Note_on_c, 3, 50, 84
10, 212624, Note_on_c, 3, 47, 0
10, 212624, Note_on_c, 3, 50, 0
10, 212640, Note_on_c, 3, 52, 84
10, 212640, Note_on_c, 3, 48, 84
10, 213104, Note_on_c, 3, 52, 0
10, 213104, Note_on_c, 3, 48, 0
10, 213120, Note_on_c, 3, 53, 84
10, 213120, Note_on_c, 3, 50, 84
10, 213824, Note_on_c, 3, 53, 0
10, 213824, Note_on_c, 3, 50, 0
10, 213840, Note_on_c, 3, 50, 84
10, 213840, Note_on_c, 3, 53, 84
10, 214064, Note_on_c, 3, 50, 0
10, 214064, Note_on_c, 3, 53, 0
10, 214080, Note_on_c, 3, 52, 84
10, 214080, Note_on_c, 3, 48, 84
10, 214544, Note_on_c, 3, 52, 0
10, 214544, Note_on_c, 3, 48, 0
10, 214560, Note_on_c, 3, 53, 84
10, 214560, Note_on_c, 3, 50, 84
10, 215024, Note_on_c, 3, 53, 0
10, 215024, Note_on_c, 3, 50, 0
10, 215040, Note_on_c, 3, 52, 92
10, 215040, Note_on_c, 3, 55, 92
10, 215160, Control_c, 3, 11, 112
10, 215984, Note_on_c, 3, 52, 0
10, 215984, Note_on_c, 3, 55, 0
10, 215998, Control_c, 3, 11, 127
10, 216000, Note_on_c, 3, 53, 92
10, 216000, Note_on_c, 3, 56, 92
10, 216120, Control_c, 3, 11, 112
10, 216944, Note_on_c, 3, 53, 0
10, 216944, Note_on_c, 3, 56, 0
10, 216958, Control_c, 3, 11, 127
10, 216960, Note_on_c, 3, 57, 84
10, 216960, Note_on_c, 3, 54, 84
10, 218864, Note_on_c, 3, 57, 0
10, 218864, Note_on_c, 3, 54, 0
10, 218880, Note_on_c, 3, 55, 84
10, 218880, Note_on_c, 3, 59, 84
10, 219824, Note_on_c, 3, 55, 0
10, 219824, Note_on_c, 3, 59, 0
10, 219840, Note_on_c, 3, 62, 84
10, 219840, Note_on_c, 3, 55, 84
10, 220784, Note_on_c, 3, 62, 0
10, 220784, Note_on_c, 3, 55, 0
10, 220800, Note_on_c, 3, 62, 84
10, 220800, Note_on_c, 3, 55, 84
10, 221024, Note_on_c, 3, 62, 0
10, 221024, Note_on_c, 3, 55, 0
10, 221040, Note_on_c, 3, 62, 84
10, 221040, Note_on_c, 3, 55, 84
10, 221144, Note_on_c, 3, 62, 0
10, 221144, Note_on_c, 3, 55, 0
10, 221160, Note_on_c, 3, 62, 84
10, 221160, Note_on_c, 3, 55, 84
10, 221264, Note_on_c, 3, 62, 0
10, 221264, Note_on_c, 3, 55, 0
10, 221280, Note_on_c, 3, 62, 84
10, 221280, Note_on_c, 3, 55, 84
10, 221504, Note_on_c, 3, 62, 0
10, 221504, Note_on_c, 3, 55, 0
10, 221520, Note_on_c, 3, 62, 84
10, 221520, Note_on_c, 3, 55, 84
10, 221624, Note_on_c, 3, 62, 0
10, 221624, Note_on_c, 3, 55, 0
10, 221640, Note_on_c, 3, 55, 84
10, 221640, Note_on_c, 3, 62, 84
10, 221744, Note_on_c, 3, 55, 0
10, 221744, Note_on_c, 3, 62, 0
10, 221760, Note_on_c, 3, 62, 84
10, 221760, Note_on_c, 3, 55, 84
10, 221984, Note_on_c, 3, 62, 0
10, 221984, Note_on_c, 3, 55, 0
10, 222000, Note_on_c, 3, 62, 84
10, 222000, Note_on_c, 3, 55, 84
10, 222104, Note_on_c, 3, 62, 0
10, 222104, Note_on_c, 3, 55, 0
10, 222120, Note_on_c, 3, 55, 84
10, 222120, Note_on_c, 3, 62, 84
10, 222224, Note_on_c, 3, 55, 0
10, 222224, Note_on_c, 3, 62, 0
10, 222240, Note_on_c, 3, 55, 84
10, 222240, Note_on_c, 3, 62, 84
10, 222464, Note_on_c, 3, 55, 0
10, 222464, Note_on_c, 3, 62, 0
10, 222480, Note_on_c, 3, 55, 84
10, 222480, Note_on_c, 3, 62, 84
10, 222584, Note_on_c, 3, 55, 0
10, 222584, Note_on_c, 3, 62, 0
10, 222600, Note_on_c, 3, 62, 84
10, 222600, Note_on_c, 3, 55, 84
10, 222704, Note_on_c, 3, 62, 0
10, 222704, Note_on_c, 3, 55, 0
10, 222720, Note_on_c, 3, 62, 84
10, 222720, Note_on_c, 3, 55, 84
10, 222944, Note_on_c, 3, 62, 0
10, 222944, Note_on_c, 3, 55, 0
10, 222960, Note_on_c, 3, 55, 84
10, 222960, Note_on_c, 3, 62, 84
10, 223064, Note_on_c, 3, 55, 0
10, 223064, Note_on_c, 3, 62, 0
10, 223080, Note_on_c, 3, 55, 84
10, 223080, Note_on_c, 3, 62, 84
10, 223184, Note_on_c, 3, 55, 0
10, 223184, Note_on_c, 3, 62, 0
10, 223200, Note_on_c, 3, 62, 84
10, 223200, Note_on_c, 3, 55, 84
10, 223424, Note_on_c, 3, 62, 0
10, 223424, Note_on_c, 3, 55, 0
10, 223440, Note_on_c, 3, 62, 84
10, 223440, Note_on_c, 3, 55, 84
10, 223544, Note_on_c, 3, 62, 0
10, 223544, Note_on_c, 3, 55, 0
10, 223560, Note_on_c, 3, 55, 84
10, 223560, Note_on_c, 3, 62, 84
10, 223664, Note_on_c, 3, 55, 0
10, 223664, Note_on_c, 3, 62, 0
10, 223680, Note_on_c, 3, 55, 84
10, 223680, Note_on_c, 3, 62, 84
10, 223904, Note_on_c, 3, 55, 0
10, 223904, Note_on_c, 3, 62, 0
10, 223920, Note_on_c, 3, 62, 84
10, 223920, Note_on_c, 3, 55, 84
10, 224024, Note_on_c, 3, 62, 0
10, 224024, Note_on_c, 3, 55, 0
10, 224040, Note_on_c, 3, 62, 84
10, 224040, Note_on_c, 3, 55, 84
10, 224144, Note_on_c, 3, 62, 0
10, 224144, Note_on_c, 3, 55, 0
10, 224160, Note_on_c, 3, 55, 84
10, 224160, Note_on_c, 3, 62, 84
10, 224384, Note_on_c, 3, 55, 0
10, 224384, Note_on_c, 3, 62, 0
10, 224400, Note_on_c, 3, 62, 84
10, 224400, Note_on_c, 3, 55, 84
10, 224504, Note_on_c, 3, 62, 0
10, 224504, Note_on_c, 3, 55, 0
10, 224520, Note_on_c, 3, 62, 84
10, 224520, Note_on_c, 3, 55, 84
10, 224624, Note_on_c, 3, 62, 0
10, 224624, Note_on_c, 3, 55, 0
10, 224640, Note_on_c, 3, 55, 84
10, 224640, Note_on_c, 3, 62, 84
10, 227504, Note_on_c, 3, 55, 0
10, 227504, Note_on_c, 3, 62, 0
10, 227520, Note_on_c, 3, 55, 84
10, 227520, Note_on_c, 3, 43, 84
10, 227759, Note_on_c, 3, 55, 0
10, 227759, Note_on_c, 3, 43, 0
10, 255600, Note_on_c, 3, 65, 48
10, 257039, Note_on_c, 3, 65, 0
10, 257040, Note_on_c, 3, 62, 48
10, 258479, Note_on_c, 3, 62, 0
10, 258480, Note_on_c, 3, 59, 48
10, 259919, Note_on_c, 3, 59, 0
10, 259920, Note_on_c, 3, 62, 48
10, 261359, Note_on_c, 3, 62, 0
10, 261360, Note_on_c, 3, 65, 48
10, 262799, Note_on_c, 3, 65, 0
10, 262800, Note_on_c, 3, 62, 48
10, 263499, Note_on_c, 3, 62, 0
10, 263518, Control_c, 3, 11, 64
10, 263520, Note_on_c, 3, 59, 84
10, 264239, Note_on_c, 3, 59, 0
10, 264240, Note_on_c, 3, 62, 84
10, 264959, Note_on_c, 3, 62, 0
10, 264960, Note_on_c, 3, 65, 84
10, 264960, Control_c, 3, 11, 64
10, 265020, Control_c, 3, 11, 67
10, 265080, Control_c, 3, 11, 69
10, 265140, Control_c, 3, 11, 72
10, 265200, Control_c, 3, 11, 75
10, 265260, Control_c, 3, 11, 77
10, 265320, Control_c, 3, 11, 80
10, 265380, Control_c, 3, 11, 82
10, 265440, Control_c, 3, 11, 85
10, 265500, Control_c, 3, 11, 88
10, 265560, Control_c, 3, 11, 90
10, 265620, Control_c, 3, 11, 93
10, 265679, Note_on_c, 3, 65, 0
10, 265680, Note_on_c, 3, 59, 84
10, 265680, Control_c, 3, 11, 96
10, 265740, Control_c, 3, 11, 98
10, 265800, Control_c, 3, 11, 101
10, 265860, Control_c, 3, 11, 103
10, 265920, Control_c, 3, 11, 106
10, 265980, Control_c, 3, 11, 109
10, 266040, Control_c, 3, 11, 111
10, 266100, Control_c, 3, 11, 114
10, 266160, Control_c, 3, 11, 117
10, 266220, Control_c, 3, 11, 119
10, 266280, Control_c, 3, 11, 122
10, 266340, Control_c, 3, 11, 127
10, 266379, Note_on_c, 3, 59, 0
10, 266400, Note_on_c, 3, 60, 84
10, 266400, Note_on_c, 3, 48, 84
10, 266864, Note_on_c, 3, 60, 0
10, 266864, Note_on_c, 3, 48, 0
10, 266880, Note_on_c, 3, 48, 84
10, 266880, Note_on_c, 3, 52, 84
10, 267344, Note_on_c, 3, 48, 0
10, 267344, Note_on_c, 3, 52, 0
10, 267360, Note_on_c, 3, 55, 84
10, 267360, Note_on_c, 3, 52, 84
10, 268064, Note_on_c, 3, 55, 0
10, 268064, Note_on_c, 3, 52, 0
10, 268080, Note_on_c, 3, 50, 84
10, 268080, Note_on_c, 3, 53, 84
10, 268199, Note_on_c, 3, 50, 0
10, 268199, Note_on_c, 3, 53, 0
10, 268320, Note_on_c, 3, 48, 84
10, 268320, Note_on_c, 3, 52, 84
10, 268439, Note_on_c, 3, 48, 0
10, 268439, Note_on_c, 3, 52, 0
10, 268560, Note_on_c, 3, 50, 84
10, 268560, Note_on_c, 3, 43, 84
10, 268679, Note_on_c, 3, 50, 0
10, 268679, Note_on_c, 3, 43, 0
10, 268800, Note_on_c, 3, 48, 84
10, 268919, Note_on_c, 3, 48, 0
10, 269040, Note_on_c, 3, 43, 84
10, 269040, Note_on_c, 3, 50, 84
10, 269159, Note_on_c, 3, 43, 0
10, 269159, Note_on_c, 3, 50, 0
10, 269280, Note_on_c, 3, 48, 84
10, 269984, Note_on_c, 3, 48, 0
10, 270000, Note_on_c, 3, 48, 84
10, 270171, Note_on_c, 3, 48, 0
10, 270180, Note_on_c, 3, 48, 84
10, 270231, Note_on_c, 3, 48, 0
10, 270240, Note_on_c, 3, 47, 84
10, 270240, Note_on_c, 3, 50, 84
10, 270944, Note_on_c, 3, 47, 0
10, 270944, Note_on_c, 3, 50, 0
10, 270960, Note_on_c, 3, 50, 84
10, 270960, Note_on_c, 3, 47, 84
10, 271131, Note_on_c, 3, 50, 0
10, 271131, Note_on_c, 3, 47, 0
10, 271140, Note_on_c, 3, 50, 84
10, 271140, Note_on_c, 3, 47, 84
10, 271191, Note_on_c, 3, 50, 0
10, 271191, Note_on_c, 3, 47, 0
10, 271200, Note_on_c, 3, 52, 84
10, 271200, Note_on_c, 3, 48, 84
10, 271784, Note_on_c, 3, 52, 0
10, 271784, Note_on_c, 3, 48, 0
10, 271800, Note_on_c, 3, 60, 84
10, 271904, Note_on_c, 3, 60, 0
10, 271920, Note_on_c, 3, 59, 84
10, 272024, Note_on_c, 3, 59, 0
10, 272040, Note_on_c, 3, 58, 84
10, 272144, Note_on_c, 3, 58, 0
10, 272160, Note_on_c, 3, 53, 84
10, 272160, Note_on_c, 3, 57, 84
10, 273104, Note_on_c, 3, 53, 0
10, 273104, Note_on_c, 3, 57, 0
10, 273120, Note_on_c, 3, 55, 84
10, 273120, Note_on_c, 3, 52, 84
10, 274064, Note_on_c, 3, 55, 0
10, 274064, Note_on_c, 3, 52, 0
10, 274080, Note_on_c, 3, 53, 84
10, 274080, Note_on_c, 3, 57, 84
10, 275024, Note_on_c, 3, 53, 0
10, 275024, Note_on_c, 3, 57, 0
10, 275040, Note_on_c, 3, 52, 84
10, 275040, Note_on_c, 3, 55, 84
10, 275984, Note_on_c, 3, 52, 0
10, 275984, Note_on_c, 3, 55, 0
10, 276000, Note_on_c, 3, 57, 84
10, 276000, Note_on_c, 3, 53, 84
10, 276944, Note_on_c, 3, 57, 0
10, 276944, Note_on_c, 3, 53, 0
10, 276960, Note_on_c, 3, 55, 84
10, 276960, Note_on_c, 3, 52, 84
10, 277664, Note_on_c, 3, 55, 0
10, 277664, Note_on_c, 3, 52, 0
10, 277680, Note_on_c, 3, 55, 84
10, 277680, Note_on_c, 3, 52, 84
10, 277904, Note_on_c, 3, 55, 0
10, 277904, Note_on_c, 3, 52, 0
10, 277920, Note_on_c, 3, 53, 84
10, 277920, Note_on_c, 3, 50, 84
10, 278384, Note_on_c, 3, 53, 0
10, 278384, Note_on_c, 3, 50, 0
10, 278400, Note_on_c, 3, 52, 84
10, 278400, Note_on_c, 3, 48, 84
10, 278864, Note_on_c, 3, 52, 0
10, 278864, Note_on_c, 3, 48, 0
10, 278880, Note_on_c, 3, 47, 84
10, 278880, Note_on_c, 3, 50, 84
10, 279104, Note_on_c, 3, 47, 0
10, 279104, Note_on_c, 3, 50, 0
10, 279120, Note_on_c, 3, 50, 84
10, 279120, Note_on_c, 3, 47, 84
10, 279584, Note_on_c, 3, 50, 0
10, 279584, Note_on_c, 3, 47, 0
10, 279600, Note_on_c, 3, 52, 84
10, 279600, Note_on_c, 3, 48, 84
10, 279771, Note_on_c, 3, 52, 0
10, 279771, Note_on_c, 3, 48, 0
10, 279780, Note_on_c, 3, 48, 84
10, 279780, Note_on_c, 3, 52, 84
10, 279831, Note_on_c, 3, 48, 0
10, 279831, Note_on_c, 3, 52, 0
10, 279840, Note_on_c, 3, 50, 84
10, 279840, Note_on_c, 3, 53, 84
10, 280304, Note_on_c, 3, 50, 0
10, 280304, Note_on_c, 3, 53, 0
10, 280320, Note_on_c, 3, 48, 84
10, 280320, Note_on_c, 3, 52, 84
10, 280784, Note_on_c, 3, 48, 0
10, 280784, Note_on_c, 3, 52, 0
10, 280800, Note_on_c, 3, 50, 84
10, 280800, Note_on_c, 3, 47, 84
10, 281024, Note_on_c, 3, 50, 0
10, 281024, Note_on_c, 3, 47, 0
10, 281040, Note_on_c, 3, 47, 84
10, 281040, Note_on_c, 3, 50, 84
10, 281504, Note_on_c, 3, 47, 0
10, 281504, Note_on_c, 3, 50, 0
10, 281520, Note_on_c, 3, 52, 84
10, 281520, Note_on_c, 3, 48, 84
10, 281691, Note_on_c, 3, 52, 0
10, 281691, Note_on_c, 3, 48, 0
10, 281700, Note_on_c, 3, 48, 84
10, 281700, Note_on_c, 3, 52, 84
10, 281751, Note_on_c, 3, 48, 0
10, 281751, Note_on_c, 3, 52, 0
10, 281760, Note_on_c, 3, 53, 84
10, 281760, Note_on_c, 3, 50, 84
10, 281849, Note_on_c, 3, 53, 0
10, 281849, Note_on_c, 3, 50, 0
10, 281940, Note_on_c, 3, 50, 84
10, 281940, Note_on_c, 3, 53, 84
10, 281984, Note_on_c, 3, 50, 0
10, 281984, Note_on_c, 3, 53, 0
10, 282000, Note_on_c, 3, 53, 84
10, 282000, Note_on_c, 3, 50, 84
10, 282089, Note_on_c, 3, 53, 0
10, 282089, Note_on_c, 3, 50, 0
10, 282180, Note_on_c, 3, 50, 84
10, 282180, Note_on_c, 3, 53, 84
10, 282224, Note_on_c, 3, 50, 0
10, 282224, Note_on_c, 3, 53, 0
10, 282240, Note_on_c, 3, 52, 84
10, 282240, Note_on_c, 3, 48, 84
10, 282329, Note_on_c, 3, 52, 0
10, 282329, Note_on_c, 3, 48, 0
10, 282420, Note_on_c, 3, 52, 84
10, 282420, Note_on_c, 3, 48, 84
10, 282464, Note_on_c, 3, 52, 0
10, 282464, Note_on_c, 3, 48, 0
10, 282480, Note_on_c, 3, 52, 84
10, 282480, Note_on_c, 3, 48, 84
10, 282569, Note_on_c, 3, 52, 0
10, 282569, Note_on_c, 3, 48, 0
10, 282660, Note_on_c, 3, 52, 84
10, 282660, Note_on_c, 3, 48, 84
10, 282704, Note_on_c, 3, 52, 0
10, 282704, Note_on_c, 3, 48, 0
10, 282720, Note_on_c, 3, 50, 84
10, 282720, Note_on_c, 3, 43, 84
10, 282944, Note_on_c, 3, 50, 0
10, 282944, Note_on_c, 3, 43, 0
10, 282960, Note_on_c, 3, 59, 84
10, 282960, Note_on_c, 3, 55, 84
10, 283184, Note_on_c, 3, 59, 0
10, 283184, Note_on_c, 3, 55, 0
10, 283200, Note_on_c, 3, 60, 84
10, 283200, Note_on_c, 3, 64, 84
10, 283424, Note_on_c, 3, 60, 0
10, 283424, Note_on_c, 3, 64, 0
10, 283440, Note_on_c, 3, 64, 84
10, 283440, Note_on_c, 3, 60, 84
10, 283664, Note_on_c, 3, 64, 0
10, 283664, Note_on_c, 3, 60, 0
10, 283680, Note_on_c, 3, 62, 84
10, 283680, Note_on_c, 3, 59, 84
10, 283904, Note_on_c, 3, 62, 0
10, 283904, Note_on_c, 3, 59, 0
10, 283920, Note_on_c, 3, 59, 84
10, 283920, Note_on_c, 3, 55, 84
10, 284144, Note_on_c, 3, 59, 0
10, 284144, Note_on_c, 3, 55, 0
10, 284160, Note_on_c, 3, 64, 84
10, 284160, Note_on_c, 3, 60, 84
10, 284384, Note_on_c, 3, 64, 0
10, 284384, Note_on_c, 3, 60, 0
10, 284400, Note_on_c, 3, 64, 84
10, 284400, Note_on_c, 3, 60, 84
10, 284624, Note_on_c, 3, 64, 0
10, 284624, Note_on_c, 3, 60, 0
10, 284640, Note_on_c, 3, 62, 84
10, 284640, Note_on_c, 3, 59, 84
10, 284759, Note_on_c, 3, 62, 0
10, 284759, Note_on_c, 3, 59, 0
10, 284820, Note_on_c, 3, 55, 84
10, 284820, Note_on_c, 3, 60, 84
10, 284871, Note_on_c, 3, 55, 0
10, 284871, Note_on_c, 3, 60, 0
10, 284880, Note_on_c, 3, 64, 84
10, 284880, Note_on_c, 3, 60, 84
10, 285104, Note_on_c, 3, 64, 0
10, 285104, Note_on_c, 3, 60, 0
10, 285120, Note_on_c, 3, 62, 84
10, 285120, Note_on_c, 3, 59, 84
10, 285239, Note_on_c, 3, 62, 0
10, 285239, Note_on_c, 3, 59, 0
10, 285300, Note_on_c, 3, 60, 84
10, 285300, Note_on_c, 3, 55, 84
10, 285351, Note_on_c, 3, 60, 0
10, 285351, Note_on_c, 3, 55, 0
10, 285360, Note_on_c, 3, 64, 84
10, 285360, Note_on_c, 3, 60, 84
10, 285584, Note_on_c, 3, 64, 0
10, 285584, Note_on_c, 3, 60, 0
10, 285600, Note_on_c, 3, 62, 84
10, 285600, Note_on_c, 3, 59, 84
10, 285719, Note_on_c, 3, 62, 0
10, 285719, Note_on_c, 3, 59, 0
10, 285780, Note_on_c, 3, 60, 84
10, 285780, Note_on_c, 3, 55, 84
10, 285831, Note_on_c, 3, 60, 0
10, 285831, Note_on_c, 3, 55, 0
10, 285840, Note_on_c, 3, 64, 84
10, 285840, Note_on_c, 3, 60, 84
10, 286064, Note_on_c, 3, 64, 0
10, 286064, Note_on_c, 3, 60, 0
10, 286080, Note_on_c, 3, 62, 84
10, 286080, Note_on_c, 3, 59, 84
10, 286199, Note_on_c, 3, 62, 0
10, 286199, Note_on_c, 3, 59, 0
10, 286260, Note_on_c, 3, 60, 84
10, 286260, Note_on_c, 3, 55, 84
10, 286311, Note_on_c, 3, 60, 0
10, 286311, Note_on_c, 3, 55, 0
10, 286320, Note_on_c, 3, 60, 84
10, 286320, Note_on_c, 3, 64, 84
10, 286544, Note_on_c, 3, 60, 0
10, 286544, Note_on_c, 3, 64, 0
10, 286560, Note_on_c, 3, 59, 84
10, 286560, Note_on_c, 3, 62, 84
10, 286679, Note_on_c, 3, 59, 0
10, 286679, Note_on_c, 3, 62, 0
10, 287160, Note_on_c, 3, 64, 84
10, 287279, Note_on_c, 3, 64, 0
10, 287280, Note_on_c, 3, 62, 92
10, 287399, Note_on_c, 3, 62, 0
10, 287400, Note_on_c, 3, 60, 84
10, 287489, Note_on_c, 3, 60, 0
10, 287520, Note_on_c, 3, 59, 84
10, 287609, Note_on_c, 3, 59, 0
10, 287640, Note_on_c, 3, 64, 92
10, 287759, Note_on_c, 3, 64, 0
10, 287760, Note_on_c, 3, 62, 84
10, 287864, Note_on_c, 3, 62, 0
10, 287880, Note_on_c, 3, 60, 84
10, 287969, Note_on_c, 3, 60, 0
10, 288000, Note_on_c, 3, 59, 84
10, 288089, Note_on_c, 3, 59, 0
10, 288120, Note_on_c, 3, 60, 92
10, 288239, Note_on_c, 3, 60, 0
10, 288240, Note_on_c, 3, 59, 84
10, 288344, Note_on_c, 3, 59, 0
10, 288360, Note_on_c, 3, 57, 84
10, 288449, Note_on_c, 3, 57, 0
10, 288480, Note_on_c, 3, 55, 84
10, 288569, Note_on_c, 3, 55, 0
10, 288600, Note_on_c, 3, 60, 92
10, 288719, Note_on_c, 3, 60, 0
10, 288720, Note_on_c, 3, 59, 84
10, 288824, Note_on_c, 3, 59, 0
10, 288840, Note_on_c, 3, 57, 84
10, 288929, Note_on_c, 3, 57, 0
10, 288960, Note_on_c, 3, 55, 84
10, 289049, Note_on_c, 3, 55, 0
10, 289080, Note_on_c, 3, 60, 92
10, 289199, Note_on_c, 3, 60, 0
10, 289200, Note_on_c, 3, 59, 84
10, 289304, Note_on_c, 3, 59, 0
10, 289320, Note_on_c, 3, 57, 84
10, 289409, Note_on_c, 3, 57, 0
10, 289440, Note_on_c, 3, 55, 84
10, 289529, Note_on_c, 3, 55, 0
10, 289560, Note_on_c, 3, 60, 92
10, 289679, Note_on_c, 3, 60, 0
10, 289680, Note_on_c, 3, 59, 84
10, 289784, Note_on_c, 3, 59, 0
10, 289800, Note_on_c, 3, 57, 84
10, 289889, Note_on_c, 3, 57, 0
10, 289920, Note_on_c, 3, 55, 84
10, 290009, Note_on_c, 3, 55, 0
10, 290040, Note_on_c, 3, 53, 84
10, 290129, Note_on_c, 3, 53, 0
10, 290160, Note_on_c, 3, 52, 84
10, 290249, Note_on_c, 3, 52, 0
10, 290280, Note_on_c, 3, 50, 84
10, 290369, Note_on_c, 3, 50, 0
10, 290400, Note_on_c, 3, 52, 84
10, 290400, Note_on_c, 3, 60, 84
10, 291104, Note_on_c, 3, 52, 0
10, 291104, Note_on_c, 3, 60, 0
10, 291120, Note_on_c, 3, 52, 84
10, 291120, Note_on_c, 3, 55, 84
10, 291359, Note_on_c, 3, 52, 0
10, 291359, Note_on_c, 3, 55, 0
10, 291360, Note_on_c, 3, 64, 84
10, 291360, Note_on_c, 3, 55, 84
10, 292079, Note_on_c, 3, 64, 0
10, 292079, Note_on_c, 3, 55, 0
10, 292080, Note_on_c, 3, 53, 84
10, 292080, Note_on_c, 3, 62, 84
10, 292259, Note_on_c, 3, 53, 0
10, 292259, Note_on_c, 3, 62, 0
10, 292260, Note_on_c, 3, 52, 84
10, 292260, Note_on_c, 3, 60, 84
10, 292311, Note_on_c, 3, 52, 0
10, 292311, Note_on_c, 3, 60, 0
10, 292320, Note_on_c, 3, 50, 84
10, 292320, Note_on_c, 3, 59, 84
10, 292559, Note_on_c, 3, 50, 0
10, 292559, Note_on_c, 3, 59, 0
10, 294240, Note_on_c, 3, 59, 84
10, 294240, Note_on_c, 3, 62, 84
10, 294944, Note_on_c, 3, 59, 0
10, 294944, Note_on_c, 3, 62, 0
10, 294960, Note_on_c, 3, 55, 84
10, 295199, Note_on_c, 3, 55, 0
10, 295200, Note_on_c, 3, 65, 84
10, 295200, Note_on_c, 3, 62, 84
10, 295919, Note_on_c, 3, 65, 0
10, 295919, Note_on_c, 3, 62, 0
10, 295920, Note_on_c, 3, 60, 84
10, 295920, Note_on_c, 3, 64, 84
10, 296099, Note_on_c, 3, 60, 0
10, 296099, Note_on_c, 3, 64, 0
10, 296100, Note_on_c, 3, 62, 84
10, 296100, Note_on_c, 3, 59, 84
10, 296151, Note_on_c, 3, 62, 0
10, 296151, Note_on_c, 3, 59, 0
10, 296160, Note_on_c, 3, 58, 84
10, 296160, Note_on_c, 3, 60, 84
10, 298064, Note_on_c, 3, 58, 0
10, 298064, Note_on_c, 3, 60, 0
10, 298080, Note_on_c, 3, 60, 84
10, 298080, Note_on_c, 3, 58, 84
10, 298304, Note_on_c, 3, 60, 0
10, 298304, Note_on_c, 3, 58, 0
10, 299040, Note_on_c, 3, 60, 84
10, 299040, Note_on_c, 3, 58, 84
10, 299279, Note_on_c, 3, 60, 0
10, 299279, Note_on_c, 3, 58, 0
10, 300000, Note_on_c, 3, 60, 84
10, 300000, Note_on_c, 3, 57, 84
10, 300239, Note_on_c, 3, 60, 0
10, 300239, Note_on_c, 3, 57, 0
10, 300960, Note_on_c, 3, 60, 84
10, 300960, Note_on_c, 3, 57, 84
10, 301199, Note_on_c, 3, 60, 0
10, 301199, Note_on_c, 3, 57, 0
10, 301920, Note_on_c, 3, 59, 84
10, 303344, Note_on_c, 3, 59, 0
10, 303360, Note_on_c, 3, 59, 84
10, 303599, Note_on_c, 3, 59, 0
10, 303600, Note_on_c, 3, 60, 84
10, 303779, Note_on_c, 3, 60, 0
10, 303780, Note_on_c, 3, 62, 84
10, 303831, Note_on_c, 3, 62, 0
10, 303840, Note_on_c, 3, 60, 84
10, 305264, Note_on_c, 3, 60, 0
10, 305280, Note_on_c, 3, 60, 84
10, 305519, Note_on_c, 3, 60, 0
10, 305520, Note_on_c, 3, 62, 84
10, 305699, Note_on_c, 3, 62, 0
10, 305700, Note_on_c, 3, 64, 84
10, 305751, Note_on_c, 3, 64, 0
10, 305760, Note_on_c, 3, 62, 84
10, 306224, Note_on_c, 3, 62, 0
10, 306240, Note_on_c, 3, 59, 84
10, 306599, Note_on_c, 3, 59, 0
10, 306600, Note_on_c, 3, 60, 84
10, 306659, Note_on_c, 3, 60, 0
10, 306660, Note_on_c, 3, 62, 84
10, 306711, Note_on_c, 3, 62, 0
10, 306720, Note_on_c, 3, 60, 84
10, 307184, Note_on_c, 3, 60, 0
10, 307200, Note_on_c, 3, 60, 84
10, 307559, Note_on_c, 3, 60, 0
10, 307560, Note_on_c, 3, 62, 84
10, 307619, Note_on_c, 3, 62, 0
10, 307620, Note_on_c, 3, 64, 84
10, 307671, Note_on_c, 3, 64, 0
10, 307680, Note_on_c, 3, 59, 84
10, 307680, Note_on_c, 3, 62, 84
10, 307784, Note_on_c, 3, 59, 0
10, 307784, Note_on_c, 3, 62, 0
10, 307800, Note_on_c, 3, 67, 84
10, 307919, Note_on_c, 3, 67, 0
10, 307920, Note_on_c, 3, 65, 84
10, 308024, Note_on_c, 3, 65, 0
10, 308040, Note_on_c, 3, 64, 84
10, 308129, Note_on_c, 3, 64, 0
10, 308160, Note_on_c, 3, 62, 84
10, 308249, Note_on_c, 3, 62, 0
10, 308280, Note_on_c, 3, 64, 84
10, 308399, Note_on_c, 3, 64, 0
10, 308400, Note_on_c, 3, 62, 84
10, 308504, Note_on_c, 3, 62, 0
10, 308520, Note_on_c, 3, 60, 84
10, 308609, Note_on_c, 3, 60, 0
10, 308640, Note_on_c, 3, 59, 84
10, 308729, Note_on_c, 3, 59, 0
10, 308760, Note_on_c, 3, 60, 84
10, 308879, Note_on_c, 3, 60, 0
10, 308880, Note_on_c, 3, 59, 84
10, 308984, Note_on_c, 3, 59, 0
10, 309000, Note_on_c, 3, 57, 84
10, 309089, Note_on_c, 3, 57, 0
10, 309120, Note_on_c, 3, 55, 84
10, 309209, Note_on_c, 3, 55, 0
10, 309240, Note_on_c, 3, 55, 84
10, 309359, Note_on_c, 3, 55, 0
10, 309360, Note_on_c, 3, 57, 84
10, 309464, Note_on_c, 3, 57, 0
10, 309480, Note_on_c, 3, 50, 84
10, 309569, Note_on_c, 3, 50, 0
10, 309600, Note_on_c, 3, 55, 84
10, 309839, Note_on_c, 3, 55, 0
10, 311520, Note_on_c, 3, 55, 84
10, 311520, Note_on_c, 3, 52, 84
10, 311699, Note_on_c, 3, 55, 0
10, 311699, Note_on_c, 3, 52, 0
10, 312000, Note_on_c, 3, 53, 84
10, 312000, Note_on_c, 3, 57, 84
10, 312179, Note_on_c, 3, 53, 0
10, 312179, Note_on_c, 3, 57, 0
10, 312480, Note_on_c, 3, 52, 84
10, 312480, Note_on_c, 3, 55, 84
10, 313199, Note_on_c, 3, 52, 0
10, 313199, Note_on_c, 3, 55, 0
10, 315120, Note_on_c, 3, 50, 76
10, 315120, Note_on_c, 3, 47, 76
10, 315187, Note_on_c, 3, 50, 0
10, 315187, Note_on_c, 3, 47, 0
10, 315200, Note_on_c, 3, 52, 76
10, 315200, Note_on_c, 3, 48, 76
10, 315267, Note_on_c, 3, 52, 0
10, 315267, Note_on_c, 3, 48, 0
10, 315280, Note_on_c, 3, 53, 76
10, 315280, Note_on_c, 3, 50, 76
10, 315347, Note_on_c, 3, 53, 0
10, 315347, Note_on_c, 3, 50, 0
10, 315360, Note_on_c, 3, 52, 76
10, 315360, Note_on_c, 3, 55, 76
10, 315584, Note_on_c, 3, 52, 0
10, 315584, Note_on_c, 3, 55, 0
10, 315600, Note_on_c, 3, 48, 76
10, 315600, Note_on_c, 3, 52, 76
10, 315667, Note_on_c, 3, 48, 0
10, 315667, Note_on_c, 3, 52, 0
10, 315680, Note_on_c, 3, 50, 76
10, 315680, Note_on_c, 3, 53, 76
10, 315747, Note_on_c, 3, 50, 0
10, 315747, Note_on_c, 3, 53, 0
10, 315760, Note_on_c, 3, 52, 76
10, 315760, Note_on_c, 3, 55, 76
10, 315827, Note_on_c, 3, 52, 0
10, 315827, Note_on_c, 3, 55, 0
10, 315840, Note_on_c, 3, 57, 76
10, 315840, Note_on_c, 3, 53, 76
10, 316064, Note_on_c, 3, 57, 0
10, 316064, Note_on_c, 3, 53, 0
10, 316080, Note_on_c, 3, 57, 76
10, 316080, Note_on_c, 3, 53, 76
10, 316147, Note_on_c, 3, 57, 0
10, 316147, Note_on_c, 3, 53, 0
10, 316160, Note_on_c, 3, 59, 76
10, 316160, Note_on_c, 3, 55, 76
10, 316227, Note_on_c, 3, 59, 0
10, 316227, Note_on_c, 3, 55, 0
10, 316240, Note_on_c, 3, 57, 76
10, 316240, Note_on_c, 3, 60, 76
10, 316307, Note_on_c, 3, 57, 0
10, 316307, Note_on_c, 3, 60, 0
10, 316320, Note_on_c, 3, 52, 76
10, 316320, Note_on_c, 3, 55, 76
10, 317039, Note_on_c, 3, 52, 0
10, 317039, Note_on_c, 3, 55, 0
10, 318000, Note_on_c, 3, 64, 52
10, 318000, Note_on_c, 3, 67, 52
10, 318239, Note_on_c, 3, 64, 0
10, 318239, Note_on_c, 3, 67, 0
10, 318240, Note_on_c, 3, 65, 52
10, 318240, Note_on_c, 3, 62, 52
10, 318719, Note_on_c, 3, 65, 0
10, 318719, Note_on_c, 3, 62, 0
10, 318720, Note_on_c, 3, 60, 52
10, 318720, Note_on_c, 3, 64, 52
10, 318959, Note_on_c, 3, 60, 0
10, 318959, Note_on_c, 3, 64, 0
10, 319920, Note_on_c, 3, 65, 48
10, 319920, Note_on_c, 3, 69, 48
10, 320159, Note_on_c, 3, 65, 0
10, 320159, Note_on_c, 3, 69, 0
10, 320160, Note_on_c, 3, 67, 48
10, 320160, Note_on_c, 3, 64, 48
10, 320639, Note_on_c, 3, 67, 0
10, 320639, Note_on_c, 3, 64, 0
10, 320640, Note_on_c, 3, 65, 48
10, 320640, Note_on_c, 3, 62, 48
10, 320864, Note_on_c, 3, 65, 0
10, 320864, Note_on_c, 3, 62, 0
10, 320878, Control_c, 3, 11, 64
10, 320880, Note_on_c, 3, 48, 84
10, 320947, Note_on_c, 3, 48, 0
10, 320960, Note_on_c, 3, 52, 84
10, 321027, Note_on_c, 3, 52, 0
10, 321040, Note_on_c, 3, 53, 84
10, 321107, Note_on_c, 3, 53, 0
10, 321120, Note_on_c, 3, 55, 84
10, 321344, Note_on_c, 3, 55, 0
10, 321360, Note_on_c, 3, 48, 84
10, 321427, Note_on_c, 3, 48, 0
10, 321440, Note_on_c, 3, 53, 84
10, 321507, Note_on_c, 3, 53, 0
10, 321520, Note_on_c, 3, 55, 84
10, 321587, Note_on_c, 3, 55, 0
10, 321600, Note_on_c, 3, 57, 84
10, 321824, Note_on_c, 3, 57, 0
10, 321840, Note_on_c, 3, 48, 84
10, 321907, Note_on_c, 3, 48, 0
10, 321920, Note_on_c, 3, 55, 84
10, 321987, Note_on_c, 3, 55, 0
10, 322000, Note_on_c, 3, 57, 84
10, 322067, Note_on_c, 3, 57, 0
10, 322080, Note_on_c, 3, 58, 84
10, 322080, Control_c, 3, 11, 64
10, 322160, Control_c, 3, 11, 67
10, 322240, Control_c, 3, 11, 69
10, 322320, Control_c, 3, 11, 72
10, 322400, Control_c, 3, 11, 75
10, 322480, Control_c, 3, 11, 77
10, 322560, Control_c, 3, 11, 80
10, 322640, Control_c, 3, 11, 82
10, 322720, Control_c, 3, 11, 85
10, 322800, Control_c, 3, 11, 88
10, 322880, Control_c, 3, 11, 90
10, 322960, Control_c, 3, 11, 93
10, 323040, Control_c, 3, 11, 96
10, 323120, Control_c, 3, 11, 98
10, 323200, Control_c, 3, 11, 101
10, 323280, Control_c, 3, 11, 103
10, 323360, Control_c, 3, 11, 106
10, 323440, Control_c, 3, 11, 109
10, 323520, Control_c, 3, 11, 111
10, 323600, Control_c, 3, 11, 114
10, 323680, Control_c, 3, 11, 117
10, 323760, Control_c, 3, 11, 119
10, 323840, Control_c, 3, 11, 122
10, 323920, Control_c, 3, 11, 127
10, 323984, Note_on_c, 3, 58, 0
10, 324000, Note_on_c, 3, 57, 84
10, 324000, Note_on_c, 3, 53, 84
10, 324479, Note_on_c, 3, 57, 0
10, 324479, Note_on_c, 3, 53, 0
10, 324480, Note_on_c, 3, 53, 84
10, 324480, Note_on_c, 3, 57, 84
10, 324584, Note_on_c, 3, 53, 0
10, 324584, Note_on_c, 3, 57, 0
10, 324600, Note_on_c, 3, 57, 84
10, 324600, Note_on_c, 3, 53, 84
10, 324704, Note_on_c, 3, 57, 0
10, 324704, Note_on_c, 3, 53, 0
10, 324720, Note_on_c, 3, 57, 84
10, 324720, Note_on_c, 3, 53, 84
10, 324824, Note_on_c, 3, 57, 0
10, 324824, Note_on_c, 3, 53, 0
10, 324840, Note_on_c, 3, 53, 84
10, 324840, Note_on_c, 3, 57, 84
10, 324944, Note_on_c, 3, 53, 0
10, 324944, Note_on_c, 3, 57, 0
10, 324960, Note_on_c, 3, 53, 84
10, 324960, Note_on_c, 3, 57, 84
10, 325064, Note_on_c, 3, 53, 0
10, 325064, Note_on_c, 3, 57, 0
10, 325080, Note_on_c, 3, 53, 84
10, 325080, Note_on_c, 3, 57, 84
10, 325184, Note_on_c, 3, 53, 0
10, 325184, Note_on_c, 3, 57, 0
10, 325200, Note_on_c, 3, 57, 84
10, 325200, Note_on_c, 3, 53, 84
10, 325304, Note_on_c, 3, 57, 0
10, 325304, Note_on_c, 3, 53, 0
10, 325320, Note_on_c, 3, 57, 84
10, 325320, Note_on_c, 3, 53, 84
10, 325424, Note_on_c, 3, 57, 0
10, 325424, Note_on_c, 3, 53, 0
10, 325440, Note_on_c, 3, 57, 84
10, 325440, Note_on_c, 3, 53, 84
10, 325544, Note_on_c, 3, 57, 0
10, 325544, Note_on_c, 3, 53, 0
10, 325560, Note_on_c, 3, 53, 84
10, 325560, Note_on_c, 3, 57, 84
10, 325664, Note_on_c, 3, 53, 0
10, 325664, Note_on_c, 3, 57, 0
10, 325680, Note_on_c, 3, 57, 84
10, 325680, Note_on_c, 3, 53, 84
10, 325784, Note_on_c, 3, 57, 0
10, 325784, Note_on_c, 3, 53, 0
10, 325800, Note_on_c, 3, 57, 84
10, 325800, Note_on_c, 3, 53, 84
10, 325904, Note_on_c, 3, 57, 0
10, 325904, Note_on_c, 3, 53, 0
10, 325920, Note_on_c, 3, 57, 84
10, 325920, Note_on_c, 3, 53, 84
10, 326144, Note_on_c, 3, 57, 0
10, 326144, Note_on_c, 3, 53, 0
10, 326160, Note_on_c, 3, 42, 84
10, 326160, Note_on_c, 3, 54, 84
10, 326384, Note_on_c, 3, 42, 0
10, 326384, Note_on_c, 3, 54, 0
10, 326400, Note_on_c, 3, 55, 84
10, 326400, Note_on_c, 3, 43, 84
10, 326624, Note_on_c, 3, 55, 0
10, 326624, Note_on_c, 3, 43, 0
10, 326640, Note_on_c, 3, 44, 84
10, 326640, Note_on_c, 3, 56, 84
10, 326864, Note_on_c, 3, 44, 0
10, 326864, Note_on_c, 3, 56, 0
10, 326880, Note_on_c, 3, 57, 84
10, 326880, Note_on_c, 3, 45, 84
10, 327104, Note_on_c, 3, 57, 0
10, 327104, Note_on_c, 3, 45, 0
10, 327120, Note_on_c, 3, 59, 84
10, 327120, Note_on_c, 3, 47, 84
10, 327344, Note_on_c, 3, 59, 0
10, 327344, Note_on_c, 3, 47, 0
10, 327360, Note_on_c, 3, 60, 84
10, 327360, Note_on_c, 3, 48, 84
10, 327464, Note_on_c, 3, 60, 0
10, 327464, Note_on_c, 3, 48, 0
10, 327480, Note_on_c, 3, 52, 84
10, 327480, Note_on_c, 3, 48, 84
10, 327584, Note_on_c, 3, 52, 0
10, 327584, Note_on_c, 3, 48, 0
10, 327600, Note_on_c, 3, 53, 84
10, 327600, Note_on_c, 3, 50, 84
10, 327704, Note_on_c, 3, 53, 0
10, 327704, Note_on_c, 3, 50, 0
10, 327720, Note_on_c, 3, 55, 84
10, 327720, Note_on_c, 3, 52, 84
10, 327824, Note_on_c, 3, 55, 0
10, 327824, Note_on_c, 3, 52, 0
10, 327840, Note_on_c, 3, 57, 84
10, 327840, Note_on_c, 3, 53, 84
10, 328019, Note_on_c, 3, 57, 0
10, 328019, Note_on_c, 3, 53, 0
10, 328800, Note_on_c, 3, 55, 84
10, 328800, Note_on_c, 3, 43, 84
10, 328979, Note_on_c, 3, 55, 0
10, 328979, Note_on_c, 3, 43, 0
10, 329760, Note_on_c, 3, 52, 76
10, 329760, Note_on_c, 3, 60, 76
10, 329880, Control_c, 3, 11, 72
10, 330479, Note_on_c, 3, 52, 0
10, 330479, Note_on_c, 3, 60, 0
10, 330480, Note_on_c, 3, 59, 76
10, 330480, Note_on_c, 3, 50, 76
10, 330719, Note_on_c, 3, 59, 0
10, 330719, Note_on_c, 3, 50, 0
10, 330720, Note_on_c, 3, 57, 76
10, 330720, Note_on_c, 3, 48, 76
10, 330959, Note_on_c, 3, 57, 0
10, 330959, Note_on_c, 3, 48, 0
10, 330960, Note_on_c, 3, 47, 76
10, 330960, Note_on_c, 3, 59, 76
10, 331184, Note_on_c, 3, 47, 0
10, 331184, Note_on_c, 3, 59, 0
10, 331200, Note_on_c, 3, 59, 76
10, 331200, Note_on_c, 3, 47, 76
10, 331424, Note_on_c, 3, 59, 0
10, 331424, Note_on_c, 3, 47, 0
10, 331440, Note_on_c, 3, 59, 76
10, 331440, Note_on_c, 3, 47, 76
10, 331664, Note_on_c, 3, 59, 0
10, 331664, Note_on_c, 3, 47, 0
10, 331678, Control_c, 3, 11, 127
10, 331680, Note_on_c, 3, 60, 76
10, 331680, Note_on_c, 3, 52, 76
10, 331800, Control_c, 3, 11, 80
10, 332399, Note_on_c, 3, 60, 0
10, 332399, Note_on_c, 3, 52, 0
10, 332400, Note_on_c, 3, 59, 76
10, 332400, Note_on_c, 3, 50, 76
10, 332639, Note_on_c, 3, 59, 0
10, 332639, Note_on_c, 3, 50, 0
10, 332640, Note_on_c, 3, 57, 76
10, 332640, Note_on_c, 3, 48, 76
10, 332879, Note_on_c, 3, 57, 0
10, 332879, Note_on_c, 3, 48, 0
10, 332880, Note_on_c, 3, 47, 76
10, 332880, Note_on_c, 3, 59, 76
10, 333104, Note_on_c, 3, 47, 0
10, 333104, Note_on_c, 3, 59, 0
10, 333120, Note_on_c, 3, 59, 76
10, 333120, Note_on_c, 3, 47, 76
10, 333344, Note_on_c, 3, 59, 0
10, 333344, Note_on_c, 3, 47, 0
10, 333360, Note_on_c, 3, 47, 76
10, 333360, Note_on_c, 3, 59, 76
10, 333584, Note_on_c, 3, 47, 0
10, 333584, Note_on_c, 3, 59, 0
10, 333598, Control_c, 3, 11, 127
10, 333600, Note_on_c, 3, 60, 76
10, 333600, Note_on_c, 3, 57, 76
10, 333720, Control_c, 3, 11, 80
10, 334079, Note_on_c, 3, 60, 0
10, 334080, Note_on_c, 3, 58, 76
10, 334319, Note_on_c, 3, 57, 0
10, 334320, Note_on_c, 3, 55, 76
10, 334559, Note_on_c, 3, 58, 0
10, 334559, Note_on_c, 3, 55, 0
10, 334560, Note_on_c, 3, 53, 76
10, 334560, Note_on_c, 3, 57, 76
10, 334799, Note_on_c, 3, 53, 0
10, 334799, Note_on_c, 3, 57, 0
10, 334800, Note_on_c, 3, 61, 76
10, 334800, Note_on_c, 3, 52, 76
10, 335024, Note_on_c, 3, 61, 0
10, 335024, Note_on_c, 3, 52, 0
10, 335040, Note_on_c, 3, 61, 76
10, 335040, Note_on_c, 3, 52, 76
10, 335264, Note_on_c, 3, 61, 0
10, 335264, Note_on_c, 3, 52, 0
10, 335280, Note_on_c, 3, 61, 76
10, 335280, Note_on_c, 3, 52, 76
10, 335504, Note_on_c, 3, 61, 0
10, 335504, Note_on_c, 3, 52, 0
10, 335520, Note_on_c, 3, 53, 76
10, 335520, Note_on_c, 3, 62, 76
10, 335984, Note_on_c, 3, 53, 0
10, 335984, Note_on_c, 3, 62, 0
10, 336000, Note_on_c, 3, 50, 76
10, 336419, Note_on_c, 3, 50, 0
10, 336420, Note_on_c, 3, 53, 76
10, 336471, Note_on_c, 3, 53, 0
10, 336480, Note_on_c, 3, 55, 76
10, 336944, Note_on_c, 3, 55, 0
10, 336960, Note_on_c, 3, 43, 76
10, 337424, Note_on_c, 3, 43, 0
10, 337438, Control_c, 3, 11, 127
10, 337440, Note_on_c, 3, 55, 76
10, 337440, Note_on_c, 3, 52, 76
10, 338144, Note_on_c, 3, 55, 0
10, 338144, Note_on_c, 3, 52, 0
10, 338160, Note_on_c, 3, 59, 76
10, 338160, Note_on_c, 3, 50, 76
10, 338384, Note_on_c, 3, 59, 0
10, 338384, Note_on_c, 3, 50, 0
10, 338400, Note_on_c, 3, 60, 76
10, 338400, Note_on_c, 3, 48, 76
10, 338624, Note_on_c, 3, 60, 0
10, 338624, Note_on_c, 3, 48, 0
10, 338640, Note_on_c, 3, 59, 76
10, 338640, Note_on_c, 3, 47, 76
10, 338864, Note_on_c, 3, 59, 0
10, 338864, Note_on_c, 3, 47, 0
10, 338880, Note_on_c, 3, 59, 76
10, 338880, Note_on_c, 3, 47, 76
10, 339104, Note_on_c, 3, 59, 0
10, 339104, Note_on_c, 3, 47, 0
10, 339120, Note_on_c, 3, 47, 76
10, 339120, Note_on_c, 3, 59, 76
10, 339344, Note_on_c, 3, 47, 0
10, 339344, Note_on_c, 3, 59, 0
10, 339360, Note_on_c, 3, 52, 84
10, 339360, Note_on_c, 3, 55, 84
10, 339480, Control_c, 3, 11, 112
10, 340064, Note_on_c, 3, 52, 0
10, 340064, Note_on_c, 3, 55, 0
10, 340080, Note_on_c, 3, 50, 84
10, 340080, Note_on_c, 3, 59, 84
10, 340304, Note_on_c, 3, 50, 0
10, 340304, Note_on_c, 3, 59, 0
10, 340320, Note_on_c, 3, 60, 84
10, 340320, Note_on_c, 3, 48, 84
10, 340544, Note_on_c, 3, 60, 0
10, 340544, Note_on_c, 3, 48, 0
10, 340560, Note_on_c, 3, 59, 84
10, 340560, Note_on_c, 3, 47, 84
10, 340784, Note_on_c, 3, 59, 0
10, 340784, Note_on_c, 3, 47, 0
10, 340800, Note_on_c, 3, 47, 84
10, 340800, Note_on_c, 3, 59, 84
10, 341024, Note_on_c, 3, 47, 0
10, 341024, Note_on_c, 3, 59, 0
10, 341040, Note_on_c, 3, 59, 84
10, 341040, Note_on_c, 3, 47, 84
10, 341264, Note_on_c, 3, 59, 0
10, 341264, Note_on_c, 3, 47, 0
10, 341278, Control_c, 3, 11, 127
10, 341280, Note_on_c, 3, 59, 84
10, 341280, Note_on_c, 3, 47, 84
10, 341400, Control_c, 3, 11, 112
10, 341984, Note_on_c, 3, 59, 0
10, 341984, Note_on_c, 3, 47, 0
10, 342000, Note_on_c, 3, 48, 84
10, 342000, Note_on_c, 3, 60, 84
10, 342224, Note_on_c, 3, 48, 0
10, 342224, Note_on_c, 3, 60, 0
10, 342238, Control_c, 3, 11, 127
10, 342240, Note_on_c, 3, 41, 76
10, 342240, Note_on_c, 3, 53, 76
10, 342464, Note_on_c, 3, 41, 0
10, 342464, Note_on_c, 3, 53, 0
10, 342480, Note_on_c, 3, 55, 80
10, 342480, Note_on_c, 3, 52, 80
10, 342704, Note_on_c, 3, 55, 0
10, 342704, Note_on_c, 3, 52, 0
10, 342720, Note_on_c, 3, 52, 80
10, 342720, Note_on_c, 3, 55, 80
10, 342944, Note_on_c, 3, 52, 0
10, 342944, Note_on_c, 3, 55, 0
10, 342960, Note_on_c, 3, 55, 80
10, 342960, Note_on_c, 3, 52, 80
10, 343184, Note_on_c, 3, 55, 0
10, 343184, Note_on_c, 3, 52, 0
10, 343200, Note_on_c, 3, 52, 80
10, 343200, Note_on_c, 3, 55, 80
10, 343424, Note_on_c, 3, 52, 0
10, 343424, Note_on_c, 3, 55, 0
10, 343440, Note_on_c, 3, 55, 80
10, 343440, Note_on_c, 3, 58, 80
10, 343664, Note_on_c, 3, 55, 0
10, 343664, Note_on_c, 3, 58, 0
10, 343680, Note_on_c, 3, 58, 80
10, 343680, Note_on_c, 3, 55, 80
10, 343904, Note_on_c, 3, 58, 0
10, 343904, Note_on_c, 3, 55, 0
10, 343920, Note_on_c, 3, 58, 80
10, 343920, Note_on_c, 3, 55, 80
10, 344144, Note_on_c, 3, 58, 0
10, 344144, Note_on_c, 3, 55, 0
10, 344160, Note_on_c, 3, 58, 80
10, 344160, Note_on_c, 3, 55, 80
10, 344384, Note_on_c, 3, 58, 0
10, 344384, Note_on_c, 3, 55, 0
10, 344400, Note_on_c, 3, 61, 80
10, 344400, Note_on_c, 3, 58, 80
10, 344624, Note_on_c, 3, 61, 0
10, 344624, Note_on_c, 3, 58, 0
10, 344640, Note_on_c, 3, 61, 80
10, 344640, Note_on_c, 3, 58, 80
10, 344864, Note_on_c, 3, 61, 0
10, 344864, Note_on_c, 3, 58, 0
10, 344880, Note_on_c, 3, 61, 80
10, 344880, Note_on_c, 3, 58, 80
10, 345104, Note_on_c, 3, 61, 0
10, 345104, Note_on_c, 3, 58, 0
10, 345120, Note_on_c, 3, 61, 84
10, 345120, Note_on_c, 3, 58, 84
10, 346064, Note_on_c, 3, 61, 0
10, 346064, Note_on_c, 3, 58, 0
10, 346080, Note_on_c, 3, 62, 84
10, 346080, Note_on_c, 3, 58, 84
10, 347024, Note_on_c, 3, 62, 0
10, 347024, Note_on_c, 3, 58, 0
10, 347040, Note_on_c, 3, 62, 84
10, 347040, Note_on_c, 3, 59, 84
10, 347984, Note_on_c, 3, 62, 0
10, 347984, Note_on_c, 3, 59, 0
10, 348000, Note_on_c, 3, 63, 84
10, 348000, Note_on_c, 3, 60, 84
10, 349904, Note_on_c, 3, 63, 0
10, 349904, Note_on_c, 3, 60, 0
10, 349920, Note_on_c, 3, 60, 92
10, 349920, Note_on_c, 3, 64, 92
10, 350040, Control_c, 3, 11, 112
10, 350639, Note_on_c, 3, 60, 0
10, 350639, Note_on_c, 3, 64, 0
10, 354720, Control_c, 3, 11, 127
10, 354960, Note_on_c, 3, 59, 76
10, 355039, Note_on_c, 3, 59, 0
10, 355040, Note_on_c, 3, 60, 76
10, 355119, Note_on_c, 3, 60, 0
10, 355120, Note_on_c, 3, 62, 76
10, 355199, Note_on_c, 3, 62, 0
10, 355440, Note_on_c, 3, 60, 76
10, 355519, Note_on_c, 3, 60, 0
10, 355520, Note_on_c, 3, 62, 76
10, 355599, Note_on_c, 3, 62, 0
10, 355600, Note_on_c, 3, 64, 76
10, 355679, Note_on_c, 3, 64, 0
10, 355920, Note_on_c, 3, 62, 76
10, 355999, Note_on_c, 3, 62, 0
10, 356000, Note_on_c, 3, 64, 76
10, 356079, Note_on_c, 3, 64, 0
10, 356080, Note_on_c, 3, 65, 76
10, 356159, Note_on_c, 3, 65, 0
10, 356880, Note_on_c, 3, 60, 76
10, 356959, Note_on_c, 3, 60, 0
10, 356960, Note_on_c, 3, 62, 76
10, 357039, Note_on_c, 3, 62, 0
10, 357040, Note_on_c, 3, 64, 76
10, 357119, Note_on_c, 3, 64, 0
10, 357360, Note_on_c, 3, 62, 76
10, 357439, Note_on_c, 3, 62, 0
10, 357440, Note_on_c, 3, 64, 76
10, 357519, Note_on_c, 3, 64, 0
10, 357520, Note_on_c, 3, 65, 76
10, 357599, Note_on_c, 3, 65, 0
10, 357840, Note_on_c, 3, 64, 76
10, 357919, Note_on_c, 3, 64, 0
10, 357920, Note_on_c, 3, 65, 76
10, 357999, Note_on_c, 3, 65, 0
10, 358000, Note_on_c, 3, 67, 76
10, 358079, Note_on_c, 3, 67, 0
10, 358320, Note_on_c, 3, 48, 80
10, 358544, Note_on_c, 3, 48, 0
10, 358560, Note_on_c, 3, 43, 80
10, 359024, Note_on_c, 3, 43, 0
10, 359040, Note_on_c, 3, 36, 80
10, 359040, Note_on_c, 3, 48, 80
10, 359504, Note_on_c, 3, 36, 0
10, 359504, Note_on_c, 3, 48, 0
10, 359520, Note_on_c, 3, 38, 80
10, 359520, Note_on_c, 3, 50, 80
10, 360224, Note_on_c, 3, 38, 0
10, 360224, Note_on_c, 3, 50, 0
10, 360240, Note_on_c, 3, 50, 80
10, 360240, Note_on_c, 3, 38, 80
10, 360464, Note_on_c, 3, 50, 0
10, 360464, Note_on_c, 3, 38, 0
10, 360480, Note_on_c, 3, 49, 80
10, 360944, Note_on_c, 3, 49, 0
10, 360960, Note_on_c, 3, 50, 80
10, 361424, Note_on_c, 3, 50, 0
10, 361440, Note_on_c, 3, 52, 84
10, 361440, Note_on_c, 3, 61, 84
10, 362384, Note_on_c, 3, 61, 0
10, 362400, Note_on_c, 3, 60, 84
10, 363344, Note_on_c, 3, 52, 0
10, 363344, Note_on_c, 3, 60, 0
10, 363360, Note_on_c, 3, 53, 84
10, 363360, Note_on_c, 3, 57, 84
10, 363839, Note_on_c, 3, 53, 0
10, 363839, Note_on_c, 3, 57, 0
10, 363840, Note_on_c, 3, 57, 84
10, 363840, Note_on_c, 3, 53, 84
10, 363944, Note_on_c, 3, 57, 0
10, 363944, Note_on_c, 3, 53, 0
10, 363960, Note_on_c, 3, 57, 84
10, 363960, Note_on_c, 3, 53, 84
10, 364064, Note_on_c, 3, 57, 0
10, 364064, Note_on_c, 3, 53, 0
10, 364080, Note_on_c, 3, 57, 84
10, 364080, Note_on_c, 3, 53, 84
10, 364184, Note_on_c, 3, 57, 0
10, 364184, Note_on_c, 3, 53, 0
10, 364200, Note_on_c, 3, 57, 84
10, 364200, Note_on_c, 3, 53, 84
10, 364304, Note_on_c, 3, 57, 0
10, 364304, Note_on_c, 3, 53, 0
10, 364320, Note_on_c, 3, 57, 84
10, 364320, Note_on_c, 3, 53, 84
10, 364799, Note_on_c, 3, 57, 0
10, 364799, Note_on_c, 3, 53, 0
10, 364800, Note_on_c, 3, 57, 84
10, 364800, Note_on_c, 3, 53, 84
10, 364904, Note_on_c, 3, 57, 0
10, 364904, Note_on_c, 3, 53, 0
10, 364920, Note_on_c, 3, 53, 84
10, 364920, Note_on_c, 3, 57, 84
10, 365024, Note_on_c, 3, 53, 0
10, 365024, Note_on_c, 3, 57, 0
10, 365040, Note_on_c, 3, 53, 84
10, 365040, Note_on_c, 3, 57, 84
10, 365144, Note_on_c, 3, 53, 0
10, 365144, Note_on_c, 3, 57, 0
10, 365160, Note_on_c, 3, 53, 84
10, 365160, Note_on_c, 3, 57, 84
10, 365264, Note_on_c, 3, 53, 0
10, 365264, Note_on_c, 3, 57, 0
10, 365280, Note_on_c, 3, 53, 84
10, 365280, Note_on_c, 3, 57, 84
10, 365504, Note_on_c, 3, 53, 0
10, 365504, Note_on_c, 3, 57, 0
10, 365520, Note_on_c, 3, 53, 84
10, 365520, Note_on_c, 3, 57, 84
10, 365624, Note_on_c, 3, 53, 0
10, 365624, Note_on_c, 3, 57, 0
10, 365640, Note_on_c, 3, 57, 84
10, 365640, Note_on_c, 3, 53, 84
10, 365744, Note_on_c, 3, 57, 0
10, 365744, Note_on_c, 3, 53, 0
10, 365760, Note_on_c, 3, 57, 84
10, 365760, Note_on_c, 3, 53, 84
10, 365864, Note_on_c, 3, 57, 0
10, 365864, Note_on_c, 3, 53, 0
10, 365880, Note_on_c, 3, 57, 84
10, 365880, Note_on_c, 3, 53, 84
10, 365984, Note_on_c, 3, 57, 0
10, 365984, Note_on_c, 3, 53, 0
10, 366000, Note_on_c, 3, 57, 84
10, 366000, Note_on_c, 3, 53, 84
10, 366104, Note_on_c, 3, 57, 0
10, 366104, Note_on_c, 3, 53, 0
10, 366120, Note_on_c, 3, 53, 84
10, 366120, Note_on_c, 3, 57, 84
10, 366224, Note_on_c, 3, 53, 0
10, 366224, Note_on_c, 3, 57, 0
10, 366240, Note_on_c, 3, 53, 84
10, 366240, Note_on_c, 3, 57, 84
10, 366344, Note_on_c, 3, 53, 0
10, 366344, Note_on_c, 3, 57, 0
10, 366360, Note_on_c, 3, 53, 84
10, 366360, Note_on_c, 3, 57, 84
10, 366464, Note_on_c, 3, 53, 0
10, 366464, Note_on_c, 3, 57, 0
10, 366480, Note_on_c, 3, 53, 84
10, 366480, Note_on_c, 3, 57, 84
10, 366584, Note_on_c, 3, 53, 0
10, 366584, Note_on_c, 3, 57, 0
10, 366600, Note_on_c, 3, 57, 84
10, 366600, Note_on_c, 3, 53, 84
10, 366704, Note_on_c, 3, 57, 0
10, 366704, Note_on_c, 3, 53, 0
10, 366720, Note_on_c, 3, 53, 84
10, 366720, Note_on_c, 3, 57, 84
10, 366824, Note_on_c, 3, 53, 0
10, 366824, Note_on_c, 3, 57, 0
10, 366840, Note_on_c, 3, 53, 84
10, 366840, Note_on_c, 3, 57, 84
10, 366944, Note_on_c, 3, 53, 0
10, 366944, Note_on_c, 3, 57, 0
10, 366960, Note_on_c, 3, 53, 84
10, 366960, Note_on_c, 3, 57, 84
10, 367064, Note_on_c, 3, 53, 0
10, 367064, Note_on_c, 3, 57, 0
10, 367080, Note_on_c, 3, 57, 84
10, 367080, Note_on_c, 3, 53, 84
10, 367184, Note_on_c, 3, 57, 0
10, 367184, Note_on_c, 3, 53, 0
10, 367200, Note_on_c, 3, 59, 84
10, 367200, Note_on_c, 3, 55, 84
10, 367379, Note_on_c, 3, 59, 0
10, 367379, Note_on_c, 3, 55, 0
10, 368160, Note_on_c, 3, 59, 84
10, 368160, Note_on_c, 3, 62, 84
10, 368339, Note_on_c, 3, 59, 0
10, 368339, Note_on_c, 3, 62, 0
10, 369120, Note_on_c, 3, 60, 84
10, 369120, Note_on_c, 3, 64, 84
10, 369299, Note_on_c, 3, 60, 0
10, 369299, Note_on_c, 3, 64, 0
10, 370080, Note_on_c, 3, 62, 84
10, 370080, Note_on_c, 3, 59, 84
10, 370259, Note_on_c, 3, 62, 0
10, 370259, Note_on_c, 3, 59, 0
10, 371040, Note_on_c, 3, 64, 84
10, 371040, Note_on_c, 3, 60, 84
10, 371219, Note_on_c, 3, 64, 0
10, 371219, Note_on_c, 3, 60, 0
10, 372000, Note_on_c, 3, 62, 84
10, 372000, Note_on_c, 3, 59, 84
10, 372179, Note_on_c, 3, 62, 0
10, 372179, Note_on_c, 3, 59, 0
10, 372720, Note_on_c, 3, 43, 84
10, 372959, Note_on_c, 3, 43, 0
10, 372960, Note_on_c, 3, 48, 84
10, 373199, Note_on_c, 3, 48, 0
10, 373200, Note_on_c, 3, 43, 84
10, 373439, Note_on_c, 3, 43, 0
10, 373440, Note_on_c, 3, 52, 84
10, 373679, Note_on_c, 3, 52, 0
10, 373680, Note_on_c, 3, 50, 84
10, 373859, Note_on_c, 3, 50, 0
10, 373860, Note_on_c, 3, 48, 84
10, 373911, Note_on_c, 3, 48, 0
10, 373920, Note_on_c, 3, 55, 84
10, 374639, Note_on_c, 3, 55, 0
10, 378480, Note_on_c, 3, 55, 52
10, 378719, Note_on_c, 3, 55, 0
10, 378720, Note_on_c, 3, 59, 53
10, 378959, Note_on_c, 3, 59, 0
10, 378960, Note_on_c, 3, 55, 55
10, 379199, Note_on_c, 3, 55, 0
10, 379200, Note_on_c, 3, 62, 57
10, 379439, Note_on_c, 3, 62, 0
10, 379440, Note_on_c, 3, 60, 59
10, 379619, Note_on_c, 3, 60, 0
10, 379620, Note_on_c, 3, 59, 60
10, 379671, Note_on_c, 3, 59, 0
10, 379680, Note_on_c, 3, 60, 61
10, 379919, Note_on_c, 3, 60, 0
10, 379920, Note_on_c, 3, 55, 63
10, 380159, Note_on_c, 3, 55, 0
10, 380160, Note_on_c, 3, 64, 64
10, 380399, Note_on_c, 3, 64, 0
10, 380400, Note_on_c, 3, 62, 66
10, 380579, Note_on_c, 3, 62, 0
10, 380580, Note_on_c, 3, 60, 68
10, 380631, Note_on_c, 3, 60, 0
10, 380640, Note_on_c, 3, 59, 68
10, 380879, Note_on_c, 3, 59, 0
10, 380880, Note_on_c, 3, 55, 70
10, 381119, Note_on_c, 3, 55, 0
10, 381120, Note_on_c, 3, 62, 72
10, 381359, Note_on_c, 3, 62, 0
10, 381360, Note_on_c, 3, 60, 74
10, 381539, Note_on_c, 3, 60, 0
10, 381540, Note_on_c, 3, 59, 75
10, 381591, Note_on_c, 3, 59, 0
10, 381600, Note_on_c, 3, 60, 76
10, 381839, Note_on_c, 3, 60, 0
10, 381840, Note_on_c, 3, 65, 76
10, 381840, Note_on_c, 3, 62, 76
10, 382079, Note_on_c, 3, 65, 0
10, 382079, Note_on_c, 3, 62, 0
10, 382080, Note_on_c, 3, 60, 76
10, 382080, Note_on_c, 3, 64, 76
10, 382319, Note_on_c, 3, 60, 0
10, 382319, Note_on_c, 3, 64, 0
10, 382320, Note_on_c, 3, 62, 76
10, 382320, Note_on_c, 3, 59, 76
10, 382559, Note_on_c, 3, 62, 0
10, 382559, Note_on_c, 3, 59, 0
10, 382560, Note_on_c, 3, 60, 76
10, 382560, Note_on_c, 3, 57, 76
10, 382799, Note_on_c, 3, 60, 0
10, 382799, Note_on_c, 3, 57, 0
10, 382800, Note_on_c, 3, 55, 76
10, 382800, Note_on_c, 3, 60, 76
10, 383039, Note_on_c, 3, 55, 0
10, 383039, Note_on_c, 3, 60, 0
10, 383040, Note_on_c, 3, 53, 76
10, 383040, Note_on_c, 3, 57, 76
10, 383279, Note_on_c, 3, 53, 0
10, 383279, Note_on_c, 3, 57, 0
10, 383280, Note_on_c, 3, 52, 76
10, 383280, Note_on_c, 3, 64, 76
10, 383504, Note_on_c, 3, 52, 0
10, 383504, Note_on_c, 3, 64, 0
10, 383520, Note_on_c, 3, 62, 76
10, 383520, Note_on_c, 3, 50, 76
10, 384224, Note_on_c, 3, 62, 0
10, 384224, Note_on_c, 3, 50, 0
10, 384240, Note_on_c, 3, 64, 76
10, 384240, Note_on_c, 3, 52, 76
10, 384419, Note_on_c, 3, 64, 0
10, 384419, Note_on_c, 3, 52, 0
10, 384480, Note_on_c, 3, 53, 76
10, 384480, Note_on_c, 3, 65, 76
10, 385184, Note_on_c, 3, 53, 0
10, 385184, Note_on_c, 3, 65, 0
10, 385200, Note_on_c, 3, 63, 76
10, 385200, Note_on_c, 3, 51, 76
10, 385379, Note_on_c, 3, 63, 0
10, 385379, Note_on_c, 3, 51, 0
10, 385440, Note_on_c, 3, 62, 76
10, 385440, Note_on_c, 3, 50, 76
10, 386144, Note_on_c, 3, 62, 0
10, 386144, Note_on_c, 3, 50, 0
10, 386160, Note_on_c, 3, 52, 76
10, 386160, Note_on_c, 3, 64, 76
10, 386339, Note_on_c, 3, 52, 0
10, 386339, Note_on_c, 3, 64, 0
10, 386400, Note_on_c, 3, 53, 76
10, 386400, Note_on_c, 3, 65, 76
10, 387104, Note_on_c, 3, 53, 0
10, 387104, Note_on_c, 3, 65, 0
10, 387120, Note_on_c, 3, 54, 76
10, 387120, Note_on_c, 3, 66, 76
10, 387299, Note_on_c, 3, 54, 0
10, 387299, Note_on_c, 3, 66, 0
10, 387360, Note_on_c, 3, 67, 76
10, 387360, Note_on_c, 3, 55, 76
10, 387599, Note_on_c, 3, 67, 0
10, 387599, Note_on_c, 3, 55, 0
10, 387840, Note_on_c, 3, 48, 52
10, 387840, Note_on_c, 3, 52, 52
10, 388079, Note_on_c, 3, 48, 0
10, 388079, Note_on_c, 3, 52, 0
10, 388320, Note_on_c, 3, 53, 52
10, 388320, Note_on_c, 3, 50, 52
10, 388559, Note_on_c, 3, 53, 0
10, 388559, Note_on_c, 3, 50, 0
10, 388800, Note_on_c, 3, 47, 52
10, 388800, Note_on_c, 3, 50, 52
10, 389039, Note_on_c, 3, 47, 0
10, 389039, Note_on_c, 3, 50, 0
10, 395280, Note_on_c, 3, 59, 54
10, 395280, Note_on_c, 3, 62, 54
10, 395519, Note_on_c, 3, 59, 0
10, 395519, Note_on_c, 3, 62, 0
10, 395760, Note_on_c, 3, 62, 58
10, 395760, Note_on_c, 3, 59, 58
10, 395999, Note_on_c, 3, 62, 0
10, 395999, Note_on_c, 3, 59, 0
10, 396240, Note_on_c, 3, 64, 62
10, 396240, Note_on_c, 3, 60, 62
10, 396479, Note_on_c, 3, 64, 0
10, 396479, Note_on_c, 3, 60, 0
10, 396720, Note_on_c, 3, 64, 66
10, 396720, Note_on_c, 3, 60, 66
10, 396959, Note_on_c, 3, 64, 0
10, 396959, Note_on_c, 3, 60, 0
10, 397200, Note_on_c, 3, 59, 70
10, 397200, Note_on_c, 3, 62, 70
10, 397439, Note_on_c, 3, 59, 0
10, 397439, Note_on_c, 3, 62, 0
10, 397680, Note_on_c, 3, 59, 74
10, 397680, Note_on_c, 3, 62, 74
10, 397904, Note_on_c, 3, 59, 0
10, 397904, Note_on_c, 3, 62, 0
10, 397920, Note_on_c, 3, 64, 76
10, 397920, Note_on_c, 3, 60, 76
10, 398159, Note_on_c, 3, 64, 0
10, 398159, Note_on_c, 3, 60, 0
10, 398160, Note_on_c, 3, 65, 76
10, 398160, Note_on_c, 3, 62, 76
10, 398399, Note_on_c, 3, 65, 0
10, 398399, Note_on_c, 3, 62, 0
10, 398400, Note_on_c, 3, 60, 76
10, 398400, Note_on_c, 3, 64, 76
10, 398639, Note_on_c, 3, 60, 0
10, 398639, Note_on_c, 3, 64, 0
10, 398640, Note_on_c, 3, 59, 76
10, 398640, Note_on_c, 3, 62, 76
10, 398879, Note_on_c, 3, 59, 0
10, 398879, Note_on_c, 3, 62, 0
10, 398880, Note_on_c, 3, 57, 76
10, 398880, Note_on_c, 3, 60, 76
10, 399119, Note_on_c, 3, 57, 0
10, 399119, Note_on_c, 3, 60, 0
10, 399120, Note_on_c, 3, 60, 76
10, 399120, Note_on_c, 3, 55, 76
10, 399359, Note_on_c, 3, 60, 0
10, 399359, Note_on_c, 3, 55, 0
10, 399360, Note_on_c, 3, 57, 76
10, 399360, Note_on_c, 3, 53, 76
10, 399599, Note_on_c, 3, 57, 0
10, 399599, Note_on_c, 3, 53, 0
10, 399600, Note_on_c, 3, 55, 76
10, 399600, Note_on_c, 3, 52, 76
10, 399824, Note_on_c, 3, 55, 0
10, 399824, Note_on_c, 3, 52, 0
10, 399840, Note_on_c, 3, 50, 76
10, 399840, Note_on_c, 3, 62, 76
10, 400544, Note_on_c, 3, 50, 0
10, 400544, Note_on_c, 3, 62, 0
10, 400560, Note_on_c, 3, 52, 76
10, 400560, Note_on_c, 3, 64, 76
10, 400739, Note_on_c, 3, 52, 0
10, 400739, Note_on_c, 3, 64, 0
10, 400800, Note_on_c, 3, 53, 76
10, 400800, Note_on_c, 3, 65, 76
10, 401504, Note_on_c, 3, 53, 0
10, 401504, Note_on_c, 3, 65, 0
10, 401520, Note_on_c, 3, 51, 76
10, 401520, Note_on_c, 3, 63, 76
10, 401699, Note_on_c, 3, 51, 0
10, 401699, Note_on_c, 3, 63, 0
10, 401760, Note_on_c, 3, 50, 76
10, 401760, Note_on_c, 3, 62, 76
10, 402464, Note_on_c, 3, 50, 0
10, 402464, Note_on_c, 3, 62, 0
10, 402480, Note_on_c, 3, 63, 76
10, 402480, Note_on_c, 3, 51, 76
10, 402659, Note_on_c, 3, 63, 0
10, 402659, Note_on_c, 3, 51, 0
10, 402720, Note_on_c, 3, 65, 76
10, 402720, Note_on_c, 3, 53, 76
10, 403424, Note_on_c, 3, 65, 0
10, 403424, Note_on_c, 3, 53, 0
10, 403440, Note_on_c, 3, 60, 76
10, 403440, Note_on_c, 3, 63, 76
10, 403619, Note_on_c, 3, 60, 0
10, 403619, Note_on_c, 3, 63, 0
10, 403680, Note_on_c, 3, 60, 52
10, 403680, Note_on_c, 3, 64, 52
10, 403731, Note_on_c, 3, 60, 0
10, 403731, Note_on_c, 3, 64, 0
10, 403740, Note_on_c, 3, 60, 52
10, 403740, Note_on_c, 3, 58, 52
10, 403791, Note_on_c, 3, 60, 0
10, 403791, Note_on_c, 3, 58, 0
10, 403800, Note_on_c, 3, 58, 52
10, 403800, Note_on_c, 3, 60, 52
10, 403851, Note_on_c, 3, 58, 0
10, 403851, Note_on_c, 3, 60, 0
10, 403860, Note_on_c, 3, 58, 52
10, 403860, Note_on_c, 3, 60, 52
10, 403919, Note_on_c, 3, 58, 0
10, 403919, Note_on_c, 3, 60, 0
10, 403980, Note_on_c, 3, 60, 52
10, 403980, Note_on_c, 3, 58, 52
10, 404031, Note_on_c, 3, 60, 0
10, 404031, Note_on_c, 3, 58, 0
10, 404040, Note_on_c, 3, 58, 52
10, 404040, Note_on_c, 3, 60, 52
10, 404091, Note_on_c, 3, 58, 0
10, 404091, Note_on_c, 3, 60, 0
10, 404100, Note_on_c, 3, 58, 52
10, 404100, Note_on_c, 3, 60, 52
10, 404159, Note_on_c, 3, 58, 0
10, 404159, Note_on_c, 3, 60, 0
10, 404220, Note_on_c, 3, 56, 52
10, 404220, Note_on_c, 3, 60, 52
10, 404271, Note_on_c, 3, 56, 0
10, 404271, Note_on_c, 3, 60, 0
10, 404280, Note_on_c, 3, 60, 52
10, 404280, Note_on_c, 3, 56, 52
10, 404331, Note_on_c, 3, 60, 0
10, 404331, Note_on_c, 3, 56, 0
10, 404340, Note_on_c, 3, 60, 52
10, 404340, Note_on_c, 3, 56, 52
10, 404399, Note_on_c, 3, 60, 0
10, 404399, Note_on_c, 3, 56, 0
10, 404460, Note_on_c, 3, 56, 53
10, 404460, Note_on_c, 3, 60, 53
10, 404511, Note_on_c, 3, 56, 0
10, 404511, Note_on_c, 3, 60, 0
10, 404520, Note_on_c, 3, 56, 53
10, 404520, Note_on_c, 3, 60, 53
10, 404571, Note_on_c, 3, 56, 0
10, 404571, Note_on_c, 3, 60, 0
10, 404580, Note_on_c, 3, 56, 53
10, 404580, Note_on_c, 3, 60, 53
10, 404639, Note_on_c, 3, 56, 0
10, 404639, Note_on_c, 3, 60, 0
10, 404700, Note_on_c, 3, 55, 54
10, 404700, Note_on_c, 3, 59, 54
10, 404751, Note_on_c, 3, 55, 0
10, 404751, Note_on_c, 3, 59, 0
10, 404760, Note_on_c, 3, 59, 54
10, 404760, Note_on_c, 3, 55, 54
10, 404811, Note_on_c, 3, 59, 0
10, 404811, Note_on_c, 3, 55, 0
10, 404820, Note_on_c, 3, 55, 55
10, 404820, Note_on_c, 3, 59, 55
10, 404879, Note_on_c, 3, 55, 0
10, 404879, Note_on_c, 3, 59, 0
10, 404940, Note_on_c, 3, 55, 55
10, 404940, Note_on_c, 3, 60, 55
10, 404991, Note_on_c, 3, 55, 0
10, 404991, Note_on_c, 3, 60, 0
10, 405000, Note_on_c, 3, 60, 55
10, 405000, Note_on_c, 3, 55, 55
10, 405051, Note_on_c, 3, 60, 0
10, 405051, Note_on_c, 3, 55, 0
10, 405060, Note_on_c, 3, 55, 56
10, 405060, Note_on_c, 3, 60, 56
10, 405119, Note_on_c, 3, 55, 0
10, 405119, Note_on_c, 3, 60, 0
10, 405240, Note_on_c, 3, 55, 56
10, 405240, Note_on_c, 3, 59, 56
10, 405359, Note_on_c, 3, 55, 0
10, 405359, Note_on_c, 3, 59, 0
10, 405480, Note_on_c, 3, 58, 58
10, 405480, Note_on_c, 3, 60, 58
10, 405599, Note_on_c, 3, 58, 0
10, 405599, Note_on_c, 3, 60, 0
10, 405720, Note_on_c, 3, 58, 59
10, 405720, Note_on_c, 3, 60, 59
10, 405839, Note_on_c, 3, 58, 0
10, 405839, Note_on_c, 3, 60, 0
10, 405960, Note_on_c, 3, 60, 60
10, 405960, Note_on_c, 3, 58, 60
10, 406079, Note_on_c, 3, 60, 0
10, 406079, Note_on_c, 3, 58, 0
10, 406200, Note_on_c, 3, 60, 61
10, 406200, Note_on_c, 3, 56, 61
10, 406319, Note_on_c, 3, 60, 0
10, 406319, Note_on_c, 3, 56, 0
10, 406440, Note_on_c, 3, 60, 62
10, 406440, Note_on_c, 3, 56, 62
10, 406559, Note_on_c, 3, 60, 0
10, 406559, Note_on_c, 3, 56, 0
10, 406680, Note_on_c, 3, 59, 63
10, 406680, Note_on_c, 3, 55, 63
10, 406799, Note_on_c, 3, 59, 0
10, 406799, Note_on_c, 3, 55, 0
10, 406920, Note_on_c, 3, 55, 64
10, 406920, Note_on_c, 3, 60, 64
10, 407039, Note_on_c, 3, 55, 0
10, 407039, Note_on_c, 3, 60, 0
10, 407160, Note_on_c, 3, 59, 65
10, 407160, Note_on_c, 3, 55, 65
10, 407279, Note_on_c, 3, 59, 0
10, 407279, Note_on_c, 3, 55, 0
10, 407400, Note_on_c, 3, 64, 66
10, 407400, Note_on_c, 3, 58, 66
10, 407519, Note_on_c, 3, 64, 0
10, 407519, Note_on_c, 3, 58, 0
10, 407640, Note_on_c, 3, 58, 67
10, 407640, Note_on_c, 3, 64, 67
10, 407759, Note_on_c, 3, 58, 0
10, 407759, Note_on_c, 3, 64, 0
10, 407880, Note_on_c, 3, 58, 68
10, 407880, Note_on_c, 3, 64, 68
10, 407999, Note_on_c, 3, 58, 0
10, 407999, Note_on_c, 3, 64, 0
10, 408120, Note_on_c, 3, 56, 70
10, 408120, Note_on_c, 3, 60, 70
10, 408239, Note_on_c, 3, 56, 0
10, 408239, Note_on_c, 3, 60, 0
10, 408360, Note_on_c, 3, 60, 71
10, 408360, Note_on_c, 3, 56, 71
10, 408479, Note_on_c, 3, 60, 0
10, 408479, Note_on_c, 3, 56, 0
10, 408600, Note_on_c, 3, 59, 72
10, 408600, Note_on_c, 3, 55, 72
10, 408719, Note_on_c, 3, 59, 0
10, 408719, Note_on_c, 3, 55, 0
10, 408840, Note_on_c, 3, 55, 73
10, 408840, Note_on_c, 3, 60, 73
10, 408959, Note_on_c, 3, 55, 0
10, 408959, Note_on_c, 3, 60, 0
10, 409080, Note_on_c, 3, 60, 74
10, 409080, Note_on_c, 3, 55, 74
10, 409199, Note_on_c, 3, 60, 0
10, 409199, Note_on_c, 3, 55, 0
10, 409320, Note_on_c, 3, 59, 75
10, 409320, Note_on_c, 3, 55, 75
10, 409409, Note_on_c, 3, 59, 0
10, 409409, Note_on_c, 3, 55, 0
10, 409440, Note_on_c, 3, 48, 76
10, 409559, Note_on_c, 3, 48, 0
10, 413280, Note_on_c, 3, 60, 76
10, 413340, Control_c, 3, 11, 80
10, 413619, Note_on_c, 3, 60, 0
10, 413640, Note_on_c, 3, 59, 76
10, 413739, Note_on_c, 3, 59, 0
10, 413760, Note_on_c, 3, 57, 76
10, 413879, Note_on_c, 3, 57, 0
10, 413880, Note_on_c, 3, 55, 76
10, 413979, Note_on_c, 3, 55, 0
10, 414000, Note_on_c, 3, 55, 76
10, 414089, Note_on_c, 3, 55, 0
10, 414120, Note_on_c, 3, 55, 76
10, 414209, Note_on_c, 3, 55, 0
10, 414238, Control_c, 3, 11, 127
10, 414240, Note_on_c, 3, 60, 76
10, 414300, Control_c, 3, 11, 80
10, 414579, Note_on_c, 3, 60, 0
10, 414600, Note_on_c, 3, 59, 76
10, 414699, Note_on_c, 3, 59, 0
10, 414720, Note_on_c, 3, 57, 76
10, 414839, Note_on_c, 3, 57, 0
10, 414840, Note_on_c, 3, 55, 76
10, 414939, Note_on_c, 3, 55, 0
10, 414960, Note_on_c, 3, 55, 76
10, 415049, Note_on_c, 3, 55, 0
10, 415080, Note_on_c, 3, 55, 76
10, 415169, Note_on_c, 3, 55, 0
10, 415198, Control_c, 3, 11, 127
10, 415200, Note_on_c, 3, 64, 76
10, 415200, Note_on_c, 3, 60, 76
10, 415260, Control_c, 3, 11, 80
10, 415539, Note_on_c, 3, 64, 0
10, 415539, Note_on_c, 3, 60, 0
10, 415560, Note_on_c, 3, 59, 76
10, 415560, Note_on_c, 3, 62, 76
10, 415659, Note_on_c, 3, 59, 0
10, 415659, Note_on_c, 3, 62, 0
10, 415680, Note_on_c, 3, 57, 76
10, 415680, Note_on_c, 3, 60, 76
10, 415799, Note_on_c, 3, 57, 0
10, 415799, Note_on_c, 3, 60, 0
10, 415800, Note_on_c, 3, 59, 76
10, 415800, Note_on_c, 3, 55, 76
10, 415899, Note_on_c, 3, 59, 0
10, 415899, Note_on_c, 3, 55, 0
10, 415920, Note_on_c, 3, 59, 76
10, 415920, Note_on_c, 3, 55, 76
10, 416009, Note_on_c, 3, 59, 0
10, 416009, Note_on_c, 3, 55, 0
10, 416040, Note_on_c, 3, 59, 76
10, 416040, Note_on_c, 3, 55, 76
10, 416129, Note_on_c, 3, 59, 0
10, 416129, Note_on_c, 3, 55, 0
10, 416158, Control_c, 3, 11, 127
10, 416160, Note_on_c, 3, 60, 76
10, 416160, Note_on_c, 3, 64, 76
10, 416220, Control_c, 3, 11, 80
10, 416499, Note_on_c, 3, 60, 0
10, 416499, Note_on_c, 3, 64, 0
10, 416520, Note_on_c, 3, 59, 76
10, 416520, Note_on_c, 3, 62, 76
10, 416619, Note_on_c, 3, 59, 0
10, 416619, Note_on_c, 3, 62, 0
10, 416640, Note_on_c, 3, 60, 76
10, 416640, Note_on_c, 3, 57, 76
10, 416759, Note_on_c, 3, 60, 0
10, 416759, Note_on_c, 3, 57, 0
10, 416760, Note_on_c, 3, 59, 76
10, 416760, Note_on_c, 3, 55, 76
10, 416859, Note_on_c, 3, 59, 0
10, 416859, Note_on_c, 3, 55, 0
10, 416880, Note_on_c, 3, 55, 76
10, 416880, Note_on_c, 3, 59, 76
10, 416969, Note_on_c, 3, 55, 0
10, 416969, Note_on_c, 3, 59, 0
10, 417000, Note_on_c, 3, 55, 76
10, 417000, Note_on_c, 3, 59, 76
10, 417089, Note_on_c, 3, 55, 0
10, 417089, Note_on_c, 3, 59, 0
10, 417120, Control_c, 3, 11, 80
10, 417120, Note_on_c, 3, 64, 76
10, 417120, Note_on_c, 3, 60, 76
10, 417239, Note_on_c, 3, 64, 0
10, 417239, Note_on_c, 3, 60, 0
10, 417280, Control_c, 3, 11, 82
10, 417360, Note_on_c, 3, 67, 76
10, 417360, Note_on_c, 3, 58, 76
10, 417440, Control_c, 3, 11, 84
10, 417479, Note_on_c, 3, 67, 0
10, 417479, Note_on_c, 3, 58, 0
10, 417600, Control_c, 3, 11, 86
10, 417600, Note_on_c, 3, 67, 76
10, 417600, Note_on_c, 3, 56, 76
10, 417719, Note_on_c, 3, 67, 0
10, 417719, Note_on_c, 3, 56, 0
10, 417760, Control_c, 3, 11, 88
10, 417840, Note_on_c, 3, 56, 76
10, 417840, Note_on_c, 3, 65, 76
10, 417920, Control_c, 3, 11, 90
10, 417959, Note_on_c, 3, 56, 0
10, 417959, Note_on_c, 3, 65, 0
10, 418080, Control_c, 3, 11, 92
10, 418080, Note_on_c, 3, 65, 76
10, 418080, Note_on_c, 3, 59, 76
10, 418199, Note_on_c, 3, 65, 0
10, 418199, Note_on_c, 3, 59, 0
10, 418240, Control_c, 3, 11, 94
10, 418320, Note_on_c, 3, 64, 76
10, 418320, Note_on_c, 3, 60, 76
10, 418400, Control_c, 3, 11, 96
10, 418439, Note_on_c, 3, 64, 0
10, 418439, Note_on_c, 3, 60, 0
10, 418560, Control_c, 3, 11, 98
10, 418560, Note_on_c, 3, 62, 76
10, 418560, Note_on_c, 3, 59, 76
10, 418679, Note_on_c, 3, 62, 0
10, 418679, Note_on_c, 3, 59, 0
10, 418720, Control_c, 3, 11, 100
10, 418800, Note_on_c, 3, 67, 76
10, 418800, Note_on_c, 3, 58, 76
10, 418880, Control_c, 3, 11, 102
10, 418919, Note_on_c, 3, 67, 0
10, 418919, Note_on_c, 3, 58, 0
10, 419040, Control_c, 3, 11, 104
10, 419040, Note_on_c, 3, 67, 76
10, 419040, Note_on_c, 3, 58, 76
10, 419159, Note_on_c, 3, 67, 0
10, 419159, Note_on_c, 3, 58, 0
10, 419200, Control_c, 3, 11, 105
10, 419280, Note_on_c, 3, 67, 76
10, 419280, Note_on_c, 3, 58, 76
10, 419360, Control_c, 3, 11, 107
10, 419399, Note_on_c, 3, 67, 0
10, 419399, Note_on_c, 3, 58, 0
10, 419520, Control_c, 3, 11, 109
10, 419520, Note_on_c, 3, 67, 76
10, 419520, Note_on_c, 3, 56, 76
10, 419639, Note_on_c, 3, 67, 0
10, 419639, Note_on_c, 3, 56, 0
10, 419680, Control_c, 3, 11, 111
10, 419760, Note_on_c, 3, 65, 76
10, 419760, Note_on_c, 3, 56, 76
10, 419840, Control_c, 3, 11, 113
10, 419879, Note_on_c, 3, 65, 0
10, 419879, Note_on_c, 3, 56, 0
10, 420000, Control_c, 3, 11, 115
10, 420000, Note_on_c, 3, 65, 76
10, 420000, Note_on_c, 3, 59, 76
10, 420119, Note_on_c, 3, 65, 0
10, 420119, Note_on_c, 3, 59, 0
10, 420160, Control_c, 3, 11, 117
10, 420240, Note_on_c, 3, 64, 76
10, 420240, Note_on_c, 3, 60, 76
10, 420320, Control_c, 3, 11, 119
10, 420359, Note_on_c, 3, 64, 0
10, 420359, Note_on_c, 3, 60, 0
10, 420480, Control_c, 3, 11, 121
10, 420480, Note_on_c, 3, 62, 76
10, 420480, Note_on_c, 3, 59, 76
10, 420599, Note_on_c, 3, 62, 0
10, 420599, Note_on_c, 3, 59, 0
10, 420640, Control_c, 3, 11, 123
10, 420720, Note_on_c, 3, 67, 76
10, 420720, Note_on_c, 3, 58, 76
10, 420800, Control_c, 3, 11, 127
10, 420819, Note_on_c, 3, 67, 0
10, 420819, Note_on_c, 3, 58, 0
10, 420840, Note_on_c, 3, 67, 76
10, 420840, Note_on_c, 3, 58, 76
10, 420939, Note_on_c, 3, 67, 0
10, 420939, Note_on_c, 3, 58, 0
10, 420960, Note_on_c, 3, 67, 76
10, 420960, Note_on_c, 3, 58, 76
10, 421059, Note_on_c, 3, 67, 0
10, 421059, Note_on_c, 3, 58, 0
10, 421080, Note_on_c, 3, 67, 76
10, 421080, Note_on_c, 3, 58, 76
10, 421179, Note_on_c, 3, 67, 0
10, 421179, Note_on_c, 3, 58, 0
10, 421200, Note_on_c, 3, 67, 76
10, 421200, Note_on_c, 3, 58, 76
10, 421299, Note_on_c, 3, 67, 0
10, 421299, Note_on_c, 3, 58, 0
10, 421320, Note_on_c, 3, 67, 76
10, 421320, Note_on_c, 3, 58, 76
10, 421419, Note_on_c, 3, 67, 0
10, 421419, Note_on_c, 3, 58, 0
10, 421440, Note_on_c, 3, 67, 76
10, 421440, Note_on_c, 3, 56, 76
10, 421539, Note_on_c, 3, 67, 0
10, 421539, Note_on_c, 3, 56, 0
10, 421560, Note_on_c, 3, 67, 76
10, 421560, Note_on_c, 3, 56, 76
10, 421659, Note_on_c, 3, 67, 0
10, 421659, Note_on_c, 3, 56, 0
10, 421680, Note_on_c, 3, 65, 76
10, 421680, Note_on_c, 3, 56, 76
10, 421779, Note_on_c, 3, 65, 0
10, 421779, Note_on_c, 3, 56, 0
10, 421800, Note_on_c, 3, 65, 76
10, 421800, Note_on_c, 3, 56, 76
10, 421899, Note_on_c, 3, 65, 0
10, 421899, Note_on_c, 3, 56, 0
10, 421920, Note_on_c, 3, 65, 76
10, 421920, Note_on_c, 3, 55, 76
10, 422019, Note_on_c, 3, 65, 0
10, 422019, Note_on_c, 3, 55, 0
10, 422040, Note_on_c, 3, 65, 76
10, 422040, Note_on_c, 3, 55, 76
10, 422139, Note_on_c, 3, 65, 0
10, 422139, Note_on_c, 3, 55, 0
10, 422160, Note_on_c, 3, 64, 76
10, 422160, Note_on_c, 3, 55, 76
10, 422259, Note_on_c, 3, 64, 0
10, 422259, Note_on_c, 3, 55, 0
10, 422280, Note_on_c, 3, 64, 76
10, 422280, Note_on_c, 3, 55, 76
10, 422379, Note_on_c, 3, 64, 0
10, 422379, Note_on_c, 3, 55, 0
10, 422400, Note_on_c, 3, 62, 76
10, 422400, Note_on_c, 3, 55, 76
10, 422499, Note_on_c, 3, 62, 0
10, 422499, Note_on_c, 3, 55, 0
10, 422520, Note_on_c, 3, 62, 76
10, 422520, Note_on_c, 3, 55, 76
10, 422619, Note_on_c, 3, 62, 0
10, 422619, Note_on_c, 3, 55, 0
10, 422640, Note_on_c, 3, 62, 76
10, 422640, Note_on_c, 3, 55, 76
10, 422739, Note_on_c, 3, 62, 0
10, 422739, Note_on_c, 3, 55, 0
10, 422760, Note_on_c, 3, 62, 76
10, 422760, Note_on_c, 3, 55, 76
10, 422859, Note_on_c, 3, 62, 0
10, 422859, Note_on_c, 3, 55, 0
10, 422880, Note_on_c, 3, 60, 84
10, 422880, Note_on_c, 3, 48, 84
10, 423099, Note_on_c, 3, 60, 0
10, 423099, Note_on_c, 3, 48, 0
10, 423120, Note_on_c, 3, 64, 84
10, 423120, Note_on_c, 3, 52, 84
10, 423339, Note_on_c, 3, 64, 0
10, 423339, Note_on_c, 3, 52, 0
10, 423360, Note_on_c, 3, 67, 84
10, 423360, Note_on_c, 3, 55, 84
10, 423699, Note_on_c, 3, 67, 0
10, 423699, Note_on_c, 3, 55, 0
10, 423720, Note_on_c, 3, 65, 84
10, 423720, Note_on_c, 3, 53, 84
10, 423819, Note_on_c, 3, 65, 0
10, 423819, Note_on_c, 3, 53, 0
10, 423840, Note_on_c, 3, 64, 84
10, 423840, Note_on_c, 3, 52, 84
10, 423939, Note_on_c, 3, 64, 0
10, 423939, Note_on_c, 3, 52, 0
10, 423960, Note_on_c, 3, 62, 84
10, 423960, Note_on_c, 3, 50, 84
10, 424059, Note_on_c, 3, 62, 0
10, 424059, Note_on_c, 3, 50, 0
10, 424080, Note_on_c, 3, 60, 84
10, 424080, Note_on_c, 3, 48, 84
10, 424179, Note_on_c, 3, 60, 0
10, 424179, Note_on_c, 3, 48, 0
10, 424200, Note_on_c, 3, 62, 84
10, 424200, Note_on_c, 3, 50, 84
10, 424299, Note_on_c, 3, 62, 0
10, 424299, Note_on_c, 3, 50, 0
10, 424320, Note_on_c, 3, 64, 84
10, 424320, Note_on_c, 3, 52, 84
10, 424659, Note_on_c, 3, 64, 0
10, 424659, Note_on_c, 3, 52, 0
10, 424680, Note_on_c, 3, 64, 84
10, 424680, Note_on_c, 3, 52, 84
10, 424779, Note_on_c, 3, 64, 0
10, 424779, Note_on_c, 3, 52, 0
10, 424800, Note_on_c, 3, 64, 84
10, 424800, Note_on_c, 3, 52, 84
10, 424899, Note_on_c, 3, 64, 0
10, 424899, Note_on_c, 3, 52, 0
10, 424920, Note_on_c, 3, 62, 84
10, 424920, Note_on_c, 3, 50, 84
10, 425019, Note_on_c, 3, 62, 0
10, 425019, Note_on_c, 3, 50, 0
10, 425040, Note_on_c, 3, 64, 84
10, 425040, Note_on_c, 3, 52, 84
10, 425139, Note_on_c, 3, 64, 0
10, 425139, Note_on_c, 3, 52, 0
10, 425160, Note_on_c, 3, 65, 84
10, 425160, Note_on_c, 3, 53, 84
10, 425259, Note_on_c, 3, 65, 0
10, 425259, Note_on_c, 3, 53, 0
10, 425280, Note_on_c, 3, 67, 84
10, 425280, Note_on_c, 3, 55, 84
10, 425619, Note_on_c, 3, 67, 0
10, 425619, Note_on_c, 3, 55, 0
10, 425640, Note_on_c, 3, 55, 84
10, 425739, Note_on_c, 3, 55, 0
10, 425760, Note_on_c, 3, 55, 84
10, 425859, Note_on_c, 3, 55, 0
10, 425880, Note_on_c, 3, 53, 84
10, 425979, Note_on_c, 3, 53, 0
10, 426000, Note_on_c, 3, 55, 84
10, 426099, Note_on_c, 3, 55, 0
10, 426120, Note_on_c, 3, 59, 84
10, 426219, Note_on_c, 3, 59, 0
10, 426240, Note_on_c, 3, 60, 84
10, 426579, Note_on_c, 3, 60, 0
10, 426600, Note_on_c, 3, 59, 84
10, 426699, Note_on_c, 3, 59, 0
10, 426720, Note_on_c, 3, 60, 84
10, 426720, Note_on_c, 3, 48, 84
10, 426819, Note_on_c, 3, 60, 0
10, 426819, Note_on_c, 3, 48, 0
10, 426840, Note_on_c, 3, 59, 84
10, 426840, Note_on_c, 3, 47, 84
10, 426939, Note_on_c, 3, 59, 0
10, 426939, Note_on_c, 3, 47, 0
10, 426960, Note_on_c, 3, 60, 84
10, 426960, Note_on_c, 3, 48, 84
10, 427059, Note_on_c, 3, 60, 0
10, 427059, Note_on_c, 3, 48, 0
10, 427080, Note_on_c, 3, 62, 84
10, 427080, Note_on_c, 3, 50, 84
10, 427179, Note_on_c, 3, 62, 0
10, 427179, Note_on_c, 3, 50, 0
10, 427200, Note_on_c, 3, 64, 84
10, 427200, Note_on_c, 3, 52, 84
10, 427299, Note_on_c, 3, 64, 0
10, 427299, Note_on_c, 3, 52, 0
10, 427320, Note_on_c, 3, 62, 84
10, 427320, Note_on_c, 3, 50, 84
10, 427419, Note_on_c, 3, 62, 0
10, 427419, Note_on_c, 3, 50, 0
10, 427440, Note_on_c, 3, 64, 84
10, 427440, Note_on_c, 3, 52, 84
10, 427539, Note_on_c, 3, 64, 0
10, 427539, Note_on_c, 3, 52, 0
10, 427560, Note_on_c, 3, 65, 84
10, 427560, Note_on_c, 3, 53, 84
10, 427659, Note_on_c, 3, 65, 0
10, 427659, Note_on_c, 3, 53, 0
10, 427680, Note_on_c, 3, 67, 84
10, 427680, Note_on_c, 3, 55, 84
10, 428619, Note_on_c, 3, 67, 0
10, 428619, Note_on_c, 3, 55, 0
10, 428640, Note_on_c, 3, 64, 84
10, 428640, Note_on_c, 3, 52, 84
10, 429579, Note_on_c, 3, 64, 0
10, 429579, Note_on_c, 3, 52, 0
10, 429600, Note_on_c, 3, 60, 84
10, 429600, Note_on_c, 3, 48, 84
10, 429719, Note_on_c, 3, 60, 0
10, 429719, Note_on_c, 3, 48, 0
10, 430080, Note_on_c, 3, 62, 84
10, 430080, Note_on_c, 3, 59, 84
10, 430199, Note_on_c, 3, 62, 0
10, 430199, Note_on_c, 3, 59, 0
10, 430560, Note_on_c, 3, 64, 84
10, 430560, Note_on_c, 3, 60, 84
10, 430679, Note_on_c, 3, 64, 0
10, 430679, Note_on_c, 3, 60, 0
10, 431040, Note_on_c, 3, 62, 84
10, 431040, Note_on_c, 3, 59, 84
10, 431159, Note_on_c, 3, 62, 0
10, 431159, Note_on_c, 3, 59, 0
10, 431520, Note_on_c, 3, 64, 84
10, 431520, Note_on_c, 3, 60, 84
10, 431639, Note_on_c, 3, 64, 0
10, 431639, Note_on_c, 3, 60, 0
10, 432000, Note_on_c, 3, 62, 84
10, 432000, Note_on_c, 3, 59, 84
10, 432119, Note_on_c, 3, 62, 0
10, 432119, Note_on_c, 3, 59, 0
10, 432480, Note_on_c, 3, 64, 84
10, 432480, Note_on_c, 3, 60, 84
10, 432599, Note_on_c, 3, 64, 0
10, 432599, Note_on_c, 3, 60, 0
10, 432960, Note_on_c, 3, 62, 84
10, 432960, Note_on_c, 3, 59, 84
10, 433079, Note_on_c, 3, 62, 0
10, 433079, Note_on_c, 3, 59, 0
10, 433440, Note_on_c, 3, 64, 84
10, 433440, Note_on_c, 3, 60, 84
10, 433559, Note_on_c, 3, 64, 0
10, 433559, Note_on_c, 3, 60, 0
10, 433920, Note_on_c, 3, 62, 84
10, 433920, Note_on_c, 3, 59, 84
10, 434039, Note_on_c, 3, 62, 0
10, 434039, Note_on_c, 3, 59, 0
10, 434400, Note_on_c, 3, 64, 84
10, 434400, Note_on_c, 3, 60, 84
10, 434519, Note_on_c, 3, 64, 0
10, 434519, Note_on_c, 3, 60, 0
10, 434880, Note_on_c, 3, 62, 84
10, 434880, Note_on_c, 3, 59, 84
10, 434999, Note_on_c, 3, 62, 0
10, 434999, Note_on_c, 3, 59, 0
10, 435360, Note_on_c, 3, 60, 84
10, 436299, Note_on_c, 3, 60, 0
10, 436320, Note_on_c, 3, 60, 84
10, 437019, Note_on_c, 3, 60, 0
10, 437040, Note_on_c, 3, 55, 84
10, 437139, Note_on_c, 3, 55, 0
10, 437160, Note_on_c, 3, 52, 84
10, 437259, Note_on_c, 3, 52, 0
10, 437280, Note_on_c, 3, 48, 84
10, 437399, Note_on_c, 3, 48, 0
10, 437640, Note_on_c, 3, 48, 84
10, 437739, Note_on_c, 3, 48, 0
10, 437760, Note_on_c, 3, 48, 84
10, 437859, Note_on_c, 3, 48, 0
10, 437880, Note_on_c, 3, 48, 84
10, 437979, Note_on_c, 3, 48, 0
10, 438000, Note_on_c, 3, 48, 84
10, 438099, Note_on_c, 3, 48, 0
10, 438120, Note_on_c, 3, 48, 84
10, 438219, Note_on_c, 3, 48, 0
10, 438240, Note_on_c, 3, 48, 84
10, 438359, Note_on_c, 3, 48, 0
10, 438600, Note_on_c, 3, 48, 84
10, 438699, Note_on_c, 3, 48, 0
10, 438720, Note_on_c, 3, 48, 84
10, 438819, Note_on_c, 3, 48, 0
10, 438840, Note_on_c, 3, 48, 84
10, 438939, Note_on_c, 3, 48, 0
10, 438960, Note_on_c, 3, 48, 84
10, 439059, Note_on_c, 3, 48, 0
10, 439080, Note_on_c, 3, 48, 84
10, 439179, Note_on_c, 3, 48, 0
10, 439200, Note_on_c, 3, 48, 84
10, 439319, Note_on_c, 3, 48, 0
10, 439440, Note_on_c, 3, 48, 84
10, 439539, Note_on_c, 3, 48, 0
10, 439560, Note_on_c, 3, 48, 84
10, 439659, Note_on_c, 3, 48, 0
10, 439680, Note_on_c, 3, 48, 84
10, 439799, Note_on_c, 3, 48, 0
10, 439920, Note_on_c, 3, 48, 84
10, 440019, Note_on_c, 3, 48, 0
10, 440040, Note_on_c, 3, 48, 84
10, 440139, Note_on_c, 3, 48, 0
10, 440160, Note_on_c, 3, 48, 84
10, 440279, Note_on_c, 3, 48, 0
10, 440400, Note_on_c, 3, 55, 84
10, 440400, Note_on_c, 3, 52, 84
10, 440499, Note_on_c, 3, 55, 0
10, 440499, Note_on_c, 3, 52, 0
10, 440520, Note_on_c, 3, 55, 84
10, 440520, Note_on_c, 3, 52, 84
10, 440619, Note_on_c, 3, 55, 0
10, 440619, Note_on_c, 3, 52, 0
10, 440640, Note_on_c, 3, 55, 84
10, 440640, Note_on_c, 3, 52, 84
10, 440759, Note_on_c, 3, 55, 0
10, 440759, Note_on_c, 3, 52, 0
10, 440880, Note_on_c, 3, 60, 84
10, 440880, Note_on_c, 3, 52, 84
10, 440979, Note_on_c, 3, 60, 0
10, 440979, Note_on_c, 3, 52, 0
10, 441000, Note_on_c, 3, 60, 84
10, 441000, Note_on_c, 3, 52, 84
10, 441099, Note_on_c, 3, 60, 0
10, 441099, Note_on_c, 3, 52, 0
10, 441120, Note_on_c, 3, 60, 84
10, 441120, Note_on_c, 3, 52, 84
10, 442059, Note_on_c, 3, 60, 0
10, 442059, Note_on_c, 3, 52, 0
10, 442080, Note_on_c, 3, 64, 84
10, 442080, Note_on_c, 3, 60, 84
10, 443019, Note_on_c, 3, 64, 0
10, 443019, Note_on_c, 3, 60, 0
10, 443040, Note_on_c, 3, 64, 84
10, 443040, Note_on_c, 3, 60, 84
10, 443159, Note_on_c, 3, 64, 0
10, 443159, Note_on_c, 3, 60, 0
10, 444000, Note_on_c, 3, 60, 84
10, 444000, Note_on_c, 3, 48, 84
10, 444119, Note_on_c, 3, 60, 0
10, 444119, Note_on_c, 3, 48, 0
10, 444960, Note_on_c, 3, 60, 84
10, 444960, Note_on_c, 3, 48, 84
10, 445079, Note_on_c, 3, 60, 0
10, 445079, Note_on_c, 3, 48, 0
10, 445920, Note_on_c, 3, 48, 84
10, 446039, Note_on_c, 3, 48, 0
10, 446400, Note_on_c, 3, 48, 84
10, 446519, Note_on_c, 3, 48, 0
10, 446880, Note_on_c, 3, 48, 84
10, 446999, Note_on_c, 3, 48, 0
10, 447840, Note_on_c, 3, 48, 84
10, 447959, Note_on_c, 3, 48, 0
10, 448800, Note_on_c, 3, 48, 84
10, 451199, Note_on_c, 3, 48, 0
10, 451199, End_track
11, 0, Start_track
11, 0, Title_t, "Contrabassoon"
11, 0, MIDI_port, 0
11, 0, Program_c, 3, 70
11, 0, Control_c, 3, 7, 96
11, 0, Control_c, 3, 10, 65
11, 0, Control_c, 3, 11, 127
11, 0, Note_on_c, 3, 36, 84
11, 239, Note_on_c, 3, 36, 0
11, 480, Note_on_c, 3, 36, 84
11, 719, Note_on_c, 3, 36, 0
11, 960, Note_on_c, 3, 36, 84
11, 1664, Note_on_c, 3, 36, 0
11, 1680, Note_on_c, 3, 31, 84
11, 1799, Note_on_c, 3, 31, 0
11, 1920, Note_on_c, 3, 36, 84
11, 2039, Note_on_c, 3, 36, 0
11, 2160, Note_on_c, 3, 31, 84
11, 2279, Note_on_c, 3, 31, 0
11, 2400, Note_on_c, 3, 36, 84
11, 2519, Note_on_c, 3, 36, 0
11, 2640, Note_on_c, 3, 31, 84
11, 2759, Note_on_c, 3, 31, 0
11, 2880, Note_on_c, 3, 36, 84
11, 3584, Note_on_c, 3, 36, 0
11, 3600, Note_on_c, 3, 36, 84
11, 3771, Note_on_c, 3, 36, 0
11, 3780, Note_on_c, 3, 36, 84
11, 3831, Note_on_c, 3, 36, 0
11, 3840, Note_on_c, 3, 31, 84
11, 4544, Note_on_c, 3, 31, 0
11, 4560, Note_on_c, 3, 31, 84
11, 4731, Note_on_c, 3, 31, 0
11, 4740, Note_on_c, 3, 31, 84
11, 4791, Note_on_c, 3, 31, 0
11, 4800, Note_on_c, 3, 36, 84
11, 5744, Note_on_c, 3, 36, 0
11, 5760, Note_on_c, 3, 33, 84
11, 6224, Note_on_c, 3, 33, 0
11, 6240, Note_on_c, 3, 29, 84
11, 6704, Note_on_c, 3, 29, 0
11, 6720, Note_on_c, 3, 28, 84
11, 6824, Note_on_c, 3, 28, 0
11, 6840, Note_on_c, 3, 29, 84
11, 6944, Note_on_c, 3, 29, 0
11, 6960, Note_on_c, 3, 28, 84
11, 7064, Note_on_c, 3, 28, 0
11, 7080, Note_on_c, 3, 26, 84
11, 7184, Note_on_c, 3, 26, 0
11, 7200, Note_on_c, 3, 24, 84
11, 7664, Note_on_c, 3, 24, 0
11, 7680, Note_on_c, 3, 33, 84
11, 8144, Note_on_c, 3, 33, 0
11, 8160, Note_on_c, 3, 29, 84
11, 8624, Note_on_c, 3, 29, 0
11, 8640, Note_on_c, 3, 28, 84
11, 8744, Note_on_c, 3, 28, 0
11, 8760, Note_on_c, 3, 29, 84
11, 8864, Note_on_c, 3, 29, 0
11, 8880, Note_on_c, 3, 28, 84
11, 8984, Note_on_c, 3, 28, 0
11, 9000, Note_on_c, 3, 26, 84
11, 9104, Note_on_c, 3, 26, 0
11, 9120, Note_on_c, 3, 24, 84
11, 9584, Note_on_c, 3, 24, 0
11, 9600, Note_on_c, 3, 33, 84
11, 10064, Note_on_c, 3, 33, 0
11, 10080, Note_on_c, 3, 29, 84
11, 10544, Note_on_c, 3, 29, 0
11, 10560, Note_on_c, 3, 28, 84
11, 10664, Note_on_c, 3, 28, 0
11, 10680, Note_on_c, 3, 29, 84
11, 10784, Note_on_c, 3, 29, 0
11, 10800, Note_on_c, 3, 28, 84
11, 10904, Note_on_c, 3, 28, 0
11, 10920, Note_on_c, 3, 26, 84
11, 11024, Note_on_c, 3, 26, 0
11, 11040, Note_on_c, 3, 24, 84
11, 11264, Note_on_c, 3, 24, 0
11, 11280, Note_on_c, 3, 36, 84
11, 11451, Note_on_c, 3, 36, 0
11, 11460, Note_on_c, 3, 36, 84
11, 11511, Note_on_c, 3, 36, 0
11, 11520, Note_on_c, 3, 35, 84
11, 11984, Note_on_c, 3, 35, 0
11, 12000, Note_on_c, 3, 36, 84
11, 12464, Note_on_c, 3, 36, 0
11, 12480, Note_on_c, 3, 31, 84
11, 12704, Note_on_c, 3, 31, 0
11, 12720, Note_on_c, 3, 31, 84
11, 13184, Note_on_c, 3, 31, 0
11, 13200, Note_on_c, 3, 36, 84
11, 13371, Note_on_c, 3, 36, 0
11, 13380, Note_on_c, 3, 36, 84
11, 13431, Note_on_c, 3, 36, 0
11, 13440, Note_on_c, 3, 35, 84
11, 13904, Note_on_c, 3, 35, 0
11, 13920, Note_on_c, 3, 36, 84
11, 14384, Note_on_c, 3, 36, 0
11, 14400, Note_on_c, 3, 31, 84
11, 14624, Note_on_c, 3, 31, 0
11, 14640, Note_on_c, 3, 31, 84
11, 15104, Note_on_c, 3, 31, 0
11, 15120, Note_on_c, 3, 36, 84
11, 15291, Note_on_c, 3, 36, 0
11, 15300, Note_on_c, 3, 36, 84
11, 15351, Note_on_c, 3, 36, 0
11, 15360, Note_on_c, 3, 35, 84
11, 15531, Note_on_c, 3, 35, 0
11, 15540, Note_on_c, 3, 35, 84
11, 15591, Note_on_c, 3, 35, 0
11, 15600, Note_on_c, 3, 31, 84
11, 15771, Note_on_c, 3, 31, 0
11, 15780, Note_on_c, 3, 31, 84
11, 15831, Note_on_c, 3, 31, 0
11, 15840, Note_on_c, 3, 36, 84
11, 16011, Note_on_c, 3, 36, 0
11, 16020, Note_on_c, 3, 36, 84
11, 16071, Note_on_c, 3, 36, 0
11, 16080, Note_on_c, 3, 40, 84
11, 16251, Note_on_c, 3, 40, 0
11, 16260, Note_on_c, 3, 40, 84
11, 16311, Note_on_c, 3, 40, 0
11, 16320, Note_on_c, 3, 43, 84
11, 16424, Note_on_c, 3, 43, 0
11, 16440, Note_on_c, 3, 31, 84
11, 16544, Note_on_c, 3, 31, 0
11, 16560, Note_on_c, 3, 31, 84
11, 16799, Note_on_c, 3, 31, 0
11, 17400, Note_on_c, 3, 31, 84
11, 17504, Note_on_c, 3, 31, 0
11, 17520, Note_on_c, 3, 31, 84
11, 17759, Note_on_c, 3, 31, 0
11, 18360, Note_on_c, 3, 31, 84
11, 18464, Note_on_c, 3, 31, 0
11, 18480, Note_on_c, 3, 31, 84
11, 18719, Note_on_c, 3, 31, 0
11, 18840, Note_on_c, 3, 31, 84
11, 18944, Note_on_c, 3, 31, 0
11, 18960, Note_on_c, 3, 31, 84
11, 19199, Note_on_c, 3, 31, 0
11, 19320, Note_on_c, 3, 31, 84
11, 19424, Note_on_c, 3, 31, 0
11, 19440, Note_on_c, 3, 31, 84
11, 19679, Note_on_c, 3, 31, 0
11, 19800, Note_on_c, 3, 31, 84
11, 19904, Note_on_c, 3, 31, 0
11, 19920, Note_on_c, 3, 31, 84
11, 20144, Note_on_c, 3, 31, 0
11, 20160, Note_on_c, 3, 31, 84
11, 20399, Note_on_c, 3, 31, 0
11, 23160, Note_on_c, 3, 48, 92
11, 23279, Note_on_c, 3, 48, 0
11, 23280, Note_on_c, 3, 47, 84
11, 23384, Note_on_c, 3, 47, 0
11, 23400, Note_on_c, 3, 45, 84
11, 23489, Note_on_c, 3, 45, 0
11, 23520, Note_on_c, 3, 43, 84
11, 23609, Note_on_c, 3, 43, 0
11, 23640, Note_on_c, 3, 41, 84
11, 23729, Note_on_c, 3, 41, 0
11, 23760, Note_on_c, 3, 40, 84
11, 23849, Note_on_c, 3, 40, 0
11, 23880, Note_on_c, 3, 38, 84
11, 23969, Note_on_c, 3, 38, 0
11, 24000, Note_on_c, 3, 36, 84
11, 24239, Note_on_c, 3, 36, 0
11, 25920, Note_on_c, 3, 31, 84
11, 26504, Note_on_c, 3, 31, 0
11, 26520, Note_on_c, 3, 31, 84
11, 26609, Note_on_c, 3, 31, 0
11, 26640, Note_on_c, 3, 35, 84
11, 26729, Note_on_c, 3, 35, 0
11, 26760, Note_on_c, 3, 38, 84
11, 26849, Note_on_c, 3, 38, 0
11, 26880, Note_on_c, 3, 41, 84
11, 26969, Note_on_c, 3, 41, 0
11, 27000, Note_on_c, 3, 43, 84
11, 27089, Note_on_c, 3, 43, 0
11, 27120, Note_on_c, 3, 47, 84
11, 27209, Note_on_c, 3, 47, 0
11, 27240, Note_on_c, 3, 50, 84
11, 27329, Note_on_c, 3, 50, 0
11, 27360, Note_on_c, 3, 53, 84
11, 27464, Note_on_c, 3, 53, 0
11, 27480, Note_on_c, 3, 55, 84
11, 27584, Note_on_c, 3, 55, 0
11, 27600, Note_on_c, 3, 53, 84
11, 27704, Note_on_c, 3, 53, 0
11, 27720, Note_on_c, 3, 50, 84
11, 27824, Note_on_c, 3, 50, 0
11, 27840, Note_on_c, 3, 47, 84
11, 27944, Note_on_c, 3, 47, 0
11, 27960, Note_on_c, 3, 50, 84
11, 28064, Note_on_c, 3, 50, 0
11, 28080, Note_on_c, 3, 47, 84
11, 28184, Note_on_c, 3, 47, 0
11, 28200, Note_on_c, 3, 43, 84
11, 28304, Note_on_c, 3, 43, 0
11, 28320, Note_on_c, 3, 41, 84
11, 28424, Note_on_c, 3, 41, 0
11, 28440, Note_on_c, 3, 38, 84
11, 28544, Note_on_c, 3, 38, 0
11, 28560, Note_on_c, 3, 35, 84
11, 28664, Note_on_c, 3, 35, 0
11, 28680, Note_on_c, 3, 38, 84
11, 28784, Note_on_c, 3, 38, 0
11, 28800, Note_on_c, 3, 31, 84
11, 29039, Note_on_c, 3, 31, 0
11, 29760, Note_on_c, 3, 36, 84
11, 30344, Note_on_c, 3, 36, 0
11, 30360, Note_on_c, 3, 36, 84
11, 30464, Note_on_c, 3, 36, 0
11, 30480, Note_on_c, 3, 40, 84
11, 30584, Note_on_c, 3, 40, 0
11, 30600, Note_on_c, 3, 31, 84
11, 30704, Note_on_c, 3, 31, 0
11, 30720, Note_on_c, 3, 36, 84
11, 30824, Note_on_c, 3, 36, 0
11, 30840, Note_on_c, 3, 40, 84
11, 30944, Note_on_c, 3, 40, 0
11, 30960, Note_on_c, 3, 43, 84
11, 31064, Note_on_c, 3, 43, 0
11, 31080, Note_on_c, 3, 48, 84
11, 31184, Note_on_c, 3, 48, 0
11, 31200, Note_on_c, 3, 52, 84
11, 31304, Note_on_c, 3, 52, 0
11, 31320, Note_on_c, 3, 48, 84
11, 31424, Note_on_c, 3, 48, 0
11, 31440, Note_on_c, 3, 43, 84
11, 31544, Note_on_c, 3, 43, 0
11, 31560, Note_on_c, 3, 40, 84
11, 31664, Note_on_c, 3, 40, 0
11, 31680, Note_on_c, 3, 36, 84
11, 31784, Note_on_c, 3, 36, 0
11, 31800, Note_on_c, 3, 35, 84
11, 31904, Note_on_c, 3, 35, 0
11, 31920, Note_on_c, 3, 36, 84
11, 32024, Note_on_c, 3, 36, 0
11, 32040, Note_on_c, 3, 36, 84
11, 32144, Note_on_c, 3, 36, 0
11, 32160, Note_on_c, 3, 36, 84
11, 32744, Note_on_c, 3, 36, 0
11, 32760, Note_on_c, 3, 35, 84
11, 32864, Note_on_c, 3, 35, 0
11, 32880, Note_on_c, 3, 36, 84
11, 32984, Note_on_c, 3, 36, 0
11, 33000, Note_on_c, 3, 36, 84
11, 33104, Note_on_c, 3, 36, 0
11, 33120, Note_on_c, 3, 36, 84
11, 33704, Note_on_c, 3, 36, 0
11, 33720, Note_on_c, 3, 37, 84
11, 33824, Note_on_c, 3, 37, 0
11, 33840, Note_on_c, 3, 38, 84
11, 33944, Note_on_c, 3, 38, 0
11, 33960, Note_on_c, 3, 38, 84
11, 34064, Note_on_c, 3, 38, 0
11, 34080, Note_on_c, 3, 38, 84
11, 34664, Note_on_c, 3, 38, 0
11, 34680, Note_on_c, 3, 37, 84
11, 34784, Note_on_c, 3, 37, 0
11, 34800, Note_on_c, 3, 38, 84
11, 34904, Note_on_c, 3, 38, 0
11, 34920, Note_on_c, 3, 38, 84
11, 35024, Note_on_c, 3, 38, 0
11, 35040, Note_on_c, 3, 38, 84
11, 35624, Note_on_c, 3, 38, 0
11, 35640, Note_on_c, 3, 37, 84
11, 35744, Note_on_c, 3, 37, 0
11, 35760, Note_on_c, 3, 38, 84
11, 35864, Note_on_c, 3, 38, 0
11, 35880, Note_on_c, 3, 38, 84
11, 35984, Note_on_c, 3, 38, 0
11, 36000, Note_on_c, 3, 38, 84
11, 36584, Note_on_c, 3, 38, 0
11, 36600, Note_on_c, 3, 37, 84
11, 36704, Note_on_c, 3, 37, 0
11, 36720, Note_on_c, 3, 38, 84
11, 36824, Note_on_c, 3, 38, 0
11, 36840, Note_on_c, 3, 38, 84
11, 36944, Note_on_c, 3, 38, 0
11, 36960, Note_on_c, 3, 38, 84
11, 37064, Note_on_c, 3, 38, 0
11, 37080, Note_on_c, 3, 37, 84
11, 37184, Note_on_c, 3, 37, 0
11, 37200, Note_on_c, 3, 38, 84
11, 37304, Note_on_c, 3, 38, 0
11, 37320, Note_on_c, 3, 38, 84
11, 37424, Note_on_c, 3, 38, 0
11, 37440, Note_on_c, 3, 38, 84
11, 37544, Note_on_c, 3, 38, 0
11, 37560, Note_on_c, 3, 37, 84
11, 37664, Note_on_c, 3, 37, 0
11, 37680, Note_on_c, 3, 38, 84
11, 37784, Note_on_c, 3, 38, 0
11, 37800, Note_on_c, 3, 38, 84
11, 37904, Note_on_c, 3, 38, 0
11, 37920, Note_on_c, 3, 38, 84
11, 38024, Note_on_c, 3, 38, 0
11, 38040, Note_on_c, 3, 37, 84
11, 38144, Note_on_c, 3, 37, 0
11, 38160, Note_on_c, 3, 38, 84
11, 38264, Note_on_c, 3, 38, 0
11, 38280, Note_on_c, 3, 38, 84
11, 38384, Note_on_c, 3, 38, 0
11, 38400, Note_on_c, 3, 38, 84
11, 38504, Note_on_c, 3, 38, 0
11, 38520, Note_on_c, 3, 50, 84
11, 38639, Note_on_c, 3, 50, 0
11, 38640, Note_on_c, 3, 48, 84
11, 38744, Note_on_c, 3, 48, 0
11, 38760, Note_on_c, 3, 47, 84
11, 38849, Note_on_c, 3, 47, 0
11, 38880, Note_on_c, 3, 45, 84
11, 38969, Note_on_c, 3, 45, 0
11, 39000, Note_on_c, 3, 47, 84
11, 39119, Note_on_c, 3, 47, 0
11, 39120, Note_on_c, 3, 45, 84
11, 39224, Note_on_c, 3, 45, 0
11, 39240, Note_on_c, 3, 43, 84
11, 39329, Note_on_c, 3, 43, 0
11, 39360, Note_on_c, 3, 42, 84
11, 39464, Note_on_c, 3, 42, 0
11, 39480, Note_on_c, 3, 43, 84
11, 39599, Note_on_c, 3, 43, 0
11, 39600, Note_on_c, 3, 42, 84
11, 39704, Note_on_c, 3, 42, 0
11, 39720, Note_on_c, 3, 40, 84
11, 39809, Note_on_c, 3, 40, 0
11, 39840, Note_on_c, 3, 38, 84
11, 39929, Note_on_c, 3, 38, 0
11, 39960, Note_on_c, 3, 38, 84
11, 40079, Note_on_c, 3, 38, 0
11, 40080, Note_on_c, 3, 40, 84
11, 40184, Note_on_c, 3, 40, 0
11, 40200, Note_on_c, 3, 33, 84
11, 40289, Note_on_c, 3, 33, 0
11, 40320, Note_on_c, 3, 38, 84
11, 40439, Note_on_c, 3, 38, 0
11, 41400, Note_on_c, 3, 38, 84
11, 41519, Note_on_c, 3, 38, 0
11, 41520, Note_on_c, 3, 36, 84
11, 41624, Note_on_c, 3, 36, 0
11, 41640, Note_on_c, 3, 45, 84
11, 41729, Note_on_c, 3, 45, 0
11, 41760, Note_on_c, 3, 36, 84
11, 41849, Note_on_c, 3, 36, 0
11, 41880, Note_on_c, 3, 35, 84
11, 41999, Note_on_c, 3, 35, 0
11, 42000, Note_on_c, 3, 33, 84
11, 42104, Note_on_c, 3, 33, 0
11, 42120, Note_on_c, 3, 42, 84
11, 42209, Note_on_c, 3, 42, 0
11, 42240, Note_on_c, 3, 31, 84
11, 42479, Note_on_c, 3, 31, 0
11, 42720, Note_on_c, 3, 31, 84
11, 42959, Note_on_c, 3, 31, 0
11, 43200, Note_on_c, 3, 31, 84
11, 43424, Note_on_c, 3, 31, 0
11, 43440, Note_on_c, 3, 38, 84
11, 43519, Note_on_c, 3, 38, 0
11, 43520, Note_on_c, 3, 40, 84
11, 43599, Note_on_c, 3, 40, 0
11, 43600, Note_on_c, 3, 42, 84
11, 43667, Note_on_c, 3, 42, 0
11, 43680, Note_on_c, 3, 43, 84
11, 43919, Note_on_c, 3, 43, 0
11, 45360, Note_on_c, 3, 42, 52
11, 45439, Note_on_c, 3, 42, 0
11, 45440, Note_on_c, 3, 43, 56
11, 45519, Note_on_c, 3, 43, 0
11, 45520, Note_on_c, 3, 45, 60
11, 45587, Note_on_c, 3, 45, 0
11, 45600, Note_on_c, 3, 38, 64
11, 45824, Note_on_c, 3, 38, 0
11, 45840, Note_on_c, 3, 36, 76
11, 45907, Note_on_c, 3, 36, 0
11, 45920, Note_on_c, 3, 35, 76
11, 45987, Note_on_c, 3, 35, 0
11, 46000, Note_on_c, 3, 33, 76
11, 46067, Note_on_c, 3, 33, 0
11, 46080, Note_on_c, 3, 31, 76
11, 46319, Note_on_c, 3, 31, 0
11, 46560, Note_on_c, 3, 31, 76
11, 46799, Note_on_c, 3, 31, 0
11, 47040, Note_on_c, 3, 31, 76
11, 47264, Note_on_c, 3, 31, 0
11, 47280, Note_on_c, 3, 38, 76
11, 47347, Note_on_c, 3, 38, 0
11, 47360, Note_on_c, 3, 40, 76
11, 47427, Note_on_c, 3, 40, 0
11, 47440, Note_on_c, 3, 42, 76
11, 47507, Note_on_c, 3, 42, 0
11, 47520, Note_on_c, 3, 43, 76
11, 47759, Note_on_c, 3, 43, 0
11, 49200, Note_on_c, 3, 38, 76
11, 49267, Note_on_c, 3, 38, 0
11, 49280, Note_on_c, 3, 40, 76
11, 49347, Note_on_c, 3, 40, 0
11, 49360, Note_on_c, 3, 42, 76
11, 49427, Note_on_c, 3, 42, 0
11, 49440, Note_on_c, 3, 43, 76
11, 49679, Note_on_c, 3, 43, 0
11, 51120, Note_on_c, 3, 40, 76
11, 51187, Note_on_c, 3, 40, 0
11, 51200, Note_on_c, 3, 42, 76
11, 51267, Note_on_c, 3, 42, 0
11, 51280, Note_on_c, 3, 44, 76
11, 51347, Note_on_c, 3, 44, 0
11, 51360, Note_on_c, 3, 45, 76
11, 51599, Note_on_c, 3, 45, 0
11, 54720, Note_on_c, 3, 36, 84
11, 55304, Note_on_c, 3, 36, 0
11, 55320, Note_on_c, 3, 36, 84
11, 55424, Note_on_c, 3, 36, 0
11, 55440, Note_on_c, 3, 36, 84
11, 55544, Note_on_c, 3, 36, 0
11, 55560, Note_on_c, 3, 36, 84
11, 55664, Note_on_c, 3, 36, 0
11, 55680, Note_on_c, 3, 36, 84
11, 55784, Note_on_c, 3, 36, 0
11, 55800, Note_on_c, 3, 36, 84
11, 55904, Note_on_c, 3, 36, 0
11, 55920, Note_on_c, 3, 36, 84
11, 56024, Note_on_c, 3, 36, 0
11, 56040, Note_on_c, 3, 36, 84
11, 56144, Note_on_c, 3, 36, 0
11, 56160, Note_on_c, 3, 36, 84
11, 56264, Note_on_c, 3, 36, 0
11, 56280, Note_on_c, 3, 36, 84
11, 56384, Note_on_c, 3, 36, 0
11, 56400, Note_on_c, 3, 36, 84
11, 56504, Note_on_c, 3, 36, 0
11, 56520, Note_on_c, 3, 36, 84
11, 56624, Note_on_c, 3, 36, 0
11, 56640, Note_on_c, 3, 36, 84
11, 56744, Note_on_c, 3, 36, 0
11, 56760, Note_on_c, 3, 36, 84
11, 56864, Note_on_c, 3, 36, 0
11, 56880, Note_on_c, 3, 37, 84
11, 56984, Note_on_c, 3, 37, 0
11, 57000, Note_on_c, 3, 37, 84
11, 57104, Note_on_c, 3, 37, 0
11, 57120, Note_on_c, 3, 38, 84
11, 57224, Note_on_c, 3, 38, 0
11, 57240, Note_on_c, 3, 38, 84
11, 57344, Note_on_c, 3, 38, 0
11, 57360, Note_on_c, 3, 39, 84
11, 57464, Note_on_c, 3, 39, 0
11, 57480, Note_on_c, 3, 39, 84
11, 57584, Note_on_c, 3, 39, 0
11, 57600, Note_on_c, 3, 40, 84
11, 57704, Note_on_c, 3, 40, 0
11, 57720, Note_on_c, 3, 40, 84
11, 57824, Note_on_c, 3, 40, 0
11, 57840, Note_on_c, 3, 42, 84
11, 57944, Note_on_c, 3, 42, 0
11, 57960, Note_on_c, 3, 42, 84
11, 58064, Note_on_c, 3, 42, 0
11, 58080, Note_on_c, 3, 43, 84
11, 58184, Note_on_c, 3, 43, 0
11, 58200, Note_on_c, 3, 31, 84
11, 58304, Note_on_c, 3, 31, 0
11, 58320, Note_on_c, 3, 33, 84
11, 58424, Note_on_c, 3, 33, 0
11, 58440, Note_on_c, 3, 35, 84
11, 58544, Note_on_c, 3, 35, 0
11, 58560, Note_on_c, 3, 36, 84
11, 58739, Note_on_c, 3, 36, 0
11, 59520, Note_on_c, 3, 38, 84
11, 59699, Note_on_c, 3, 38, 0
11, 68160, Note_on_c, 3, 35, 76
11, 68864, Note_on_c, 3, 35, 0
11, 68880, Note_on_c, 3, 33, 76
11, 69104, Note_on_c, 3, 33, 0
11, 69120, Note_on_c, 3, 31, 76
11, 69344, Note_on_c, 3, 31, 0
11, 69360, Note_on_c, 3, 30, 76
11, 69584, Note_on_c, 3, 30, 0
11, 69600, Note_on_c, 3, 30, 76
11, 69824, Note_on_c, 3, 30, 0
11, 69840, Note_on_c, 3, 30, 76
11, 70064, Note_on_c, 3, 30, 0
11, 70080, Note_on_c, 3, 35, 84
11, 70784, Note_on_c, 3, 35, 0
11, 70800, Note_on_c, 3, 33, 84
11, 71024, Note_on_c, 3, 33, 0
11, 71040, Note_on_c, 3, 31, 84
11, 71264, Note_on_c, 3, 31, 0
11, 71280, Note_on_c, 3, 30, 84
11, 71504, Note_on_c, 3, 30, 0
11, 71520, Note_on_c, 3, 30, 84
11, 71744, Note_on_c, 3, 30, 0
11, 71760, Note_on_c, 3, 30, 84
11, 71984, Note_on_c, 3, 30, 0
11, 72000, Note_on_c, 3, 30, 84
11, 72704, Note_on_c, 3, 30, 0
11, 72720, Note_on_c, 3, 31, 84
11, 72944, Note_on_c, 3, 31, 0
11, 72960, Note_on_c, 3, 36, 76
11, 73184, Note_on_c, 3, 36, 0
11, 73200, Note_on_c, 3, 36, 80
11, 73424, Note_on_c, 3, 36, 0
11, 73440, Note_on_c, 3, 36, 80
11, 73664, Note_on_c, 3, 36, 0
11, 73680, Note_on_c, 3, 36, 80
11, 73904, Note_on_c, 3, 36, 0
11, 73920, Note_on_c, 3, 36, 80
11, 74144, Note_on_c, 3, 36, 0
11, 74160, Note_on_c, 3, 36, 80
11, 74384, Note_on_c, 3, 36, 0
11, 74400, Note_on_c, 3, 36, 80
11, 74624, Note_on_c, 3, 36, 0
11, 74640, Note_on_c, 3, 36, 80
11, 74864, Note_on_c, 3, 36, 0
11, 74880, Note_on_c, 3, 36, 80
11, 75104, Note_on_c, 3, 36, 0
11, 75120, Note_on_c, 3, 36, 80
11, 75344, Note_on_c, 3, 36, 0
11, 75360, Note_on_c, 3, 36, 80
11, 75584, Note_on_c, 3, 36, 0
11, 75600, Note_on_c, 3, 36, 80
11, 75824, Note_on_c, 3, 36, 0
11, 75840, Note_on_c, 3, 29, 84
11, 75929, Note_on_c, 3, 29, 0
11, 75960, Note_on_c, 3, 24, 84
11, 76049, Note_on_c, 3, 24, 0
11, 76080, Note_on_c, 3, 32, 84
11, 76199, Note_on_c, 3, 32, 0
11, 76200, Note_on_c, 3, 29, 84
11, 76304, Note_on_c, 3, 29, 0
11, 76320, Note_on_c, 3, 32, 84
11, 76409, Note_on_c, 3, 32, 0
11, 76440, Note_on_c, 3, 29, 84
11, 76529, Note_on_c, 3, 29, 0
11, 76560, Note_on_c, 3, 36, 84
11, 76679, Note_on_c, 3, 36, 0
11, 76680, Note_on_c, 3, 32, 84
11, 76784, Note_on_c, 3, 32, 0
11, 76800, Note_on_c, 3, 36, 84
11, 76889, Note_on_c, 3, 36, 0
11, 76920, Note_on_c, 3, 32, 84
11, 77009, Note_on_c, 3, 32, 0
11, 77040, Note_on_c, 3, 41, 84
11, 77159, Note_on_c, 3, 41, 0
11, 77160, Note_on_c, 3, 36, 84
11, 77264, Note_on_c, 3, 36, 0
11, 77280, Note_on_c, 3, 41, 84
11, 77369, Note_on_c, 3, 41, 0
11, 77400, Note_on_c, 3, 36, 84
11, 77489, Note_on_c, 3, 36, 0
11, 77520, Note_on_c, 3, 44, 84
11, 77639, Note_on_c, 3, 44, 0
11, 77640, Note_on_c, 3, 41, 84
11, 77744, Note_on_c, 3, 41, 0
11, 77760, Note_on_c, 3, 43, 84
11, 79664, Note_on_c, 3, 43, 0
11, 79680, Note_on_c, 3, 50, 84
11, 79784, Note_on_c, 3, 50, 0
11, 79800, Note_on_c, 3, 53, 84
11, 79904, Note_on_c, 3, 53, 0
11, 79920, Note_on_c, 3, 47, 84
11, 80024, Note_on_c, 3, 47, 0
11, 80040, Note_on_c, 3, 50, 84
11, 80144, Note_on_c, 3, 50, 0
11, 80160, Note_on_c, 3, 43, 84
11, 80264, Note_on_c, 3, 43, 0
11, 80280, Note_on_c, 3, 47, 84
11, 80384, Note_on_c, 3, 47, 0
11, 80400, Note_on_c, 3, 41, 84
11, 80504, Note_on_c, 3, 41, 0
11, 80520, Note_on_c, 3, 43, 84
11, 80624, Note_on_c, 3, 43, 0
11, 80640, Note_on_c, 3, 38, 84
11, 80744, Note_on_c, 3, 38, 0
11, 80760, Note_on_c, 3, 41, 84
11, 80864, Note_on_c, 3, 41, 0
11, 80880, Note_on_c, 3, 35, 84
11, 80984, Note_on_c, 3, 35, 0
11, 81000, Note_on_c, 3, 38, 84
11, 81104, Note_on_c, 3, 38, 0
11, 81120, Note_on_c, 3, 31, 84
11, 81224, Note_on_c, 3, 31, 0
11, 81240, Note_on_c, 3, 43, 84
11, 81344, Note_on_c, 3, 43, 0
11, 81360, Note_on_c, 3, 43, 84
11, 81464, Note_on_c, 3, 43, 0
11, 81480, Note_on_c, 3, 43, 84
11, 81584, Note_on_c, 3, 43, 0
11, 81600, Note_on_c, 3, 36, 84
11, 81839, Note_on_c, 3, 36, 0
11, 82080, Note_on_c, 3, 36, 84
11, 82319, Note_on_c, 3, 36, 0
11, 82560, Note_on_c, 3, 36, 84
11, 83264, Note_on_c, 3, 36, 0
11, 83280, Note_on_c, 3, 31, 84
11, 83399, Note_on_c, 3, 31, 0
11, 83520, Note_on_c, 3, 36, 84
11, 83639, Note_on_c, 3, 36, 0
11, 83760, Note_on_c, 3, 31, 84
11, 83879, Note_on_c, 3, 31, 0
11, 84000, Note_on_c, 3, 36, 84
11, 84119, Note_on_c, 3, 36, 0
11, 84240, Note_on_c, 3, 31, 84
11, 84359, Note_on_c, 3, 31, 0
11, 84480, Note_on_c, 3, 36, 84
11, 85184, Note_on_c, 3, 36, 0
11, 85200, Note_on_c, 3, 36, 84
11, 85371, Note_on_c, 3, 36, 0
11, 85380, Note_on_c, 3, 36, 84
11, 85431, Note_on_c, 3, 36, 0
11, 85440, Note_on_c, 3, 31, 84
11, 86144, Note_on_c, 3, 31, 0
11, 86160, Note_on_c, 3, 31, 84
11, 86331, Note_on_c, 3, 31, 0
11, 86340, Note_on_c, 3, 31, 84
11, 86391, Note_on_c, 3, 31, 0
11, 86400, Note_on_c, 3, 36, 84
11, 87344, Note_on_c, 3, 36, 0
11, 87360, Note_on_c, 3, 33, 84
11, 87824, Note_on_c, 3, 33, 0
11, 87840, Note_on_c, 3, 29, 84
11, 88304, Note_on_c, 3, 29, 0
11, 88320, Note_on_c, 3, 28, 84
11, 88424, Note_on_c, 3, 28, 0
11, 88440, Note_on_c, 3, 29, 84
11, 88544, Note_on_c, 3, 29, 0
11, 88560, Note_on_c, 3, 28, 84
11, 88664, Note_on_c, 3, 28, 0
11, 88680, Note_on_c, 3, 26, 84
11, 88784, Note_on_c, 3, 26, 0
11, 88800, Note_on_c, 3, 24, 84
11, 89264, Note_on_c, 3, 24, 0
11, 89280, Note_on_c, 3, 33, 84
11, 89744, Note_on_c, 3, 33, 0
11, 89760, Note_on_c, 3, 29, 84
11, 90224, Note_on_c, 3, 29, 0
11, 90240, Note_on_c, 3, 28, 84
11, 90344, Note_on_c, 3, 28, 0
11, 90360, Note_on_c, 3, 29, 84
11, 90464, Note_on_c, 3, 29, 0
11, 90480, Note_on_c, 3, 28, 84
11, 90584, Note_on_c, 3, 28, 0
11, 90600, Note_on_c, 3, 26, 84
11, 90704, Note_on_c, 3, 26, 0
11, 90720, Note_on_c, 3, 24, 84
11, 91184, Note_on_c, 3, 24, 0
11, 91200, Note_on_c, 3, 33, 84
11, 91664, Note_on_c, 3, 33, 0
11, 91680, Note_on_c, 3, 29, 84
11, 92144, Note_on_c, 3, 29, 0
11, 92160, Note_on_c, 3, 28, 84
11, 92264, Note_on_c, 3, 28, 0
11, 92280, Note_on_c, 3, 29, 84
11, 92384, Note_on_c, 3, 29, 0
11, 92400, Note_on_c, 3, 28, 84
11, 92504, Note_on_c, 3, 28, 0
11, 92520, Note_on_c, 3, 26, 84
11, 92624, Note_on_c, 3, 26, 0
11, 92640, Note_on_c, 3, 24, 84
11, 92864, Note_on_c, 3, 24, 0
11, 92880, Note_on_c, 3, 36, 84
11, 93051, Note_on_c, 3, 36, 0
11, 93060, Note_on_c, 3, 36, 84
11, 93111, Note_on_c, 3, 36, 0
11, 93120, Note_on_c, 3, 35, 84
11, 93584, Note_on_c, 3, 35, 0
11, 93600, Note_on_c, 3, 36, 84
11, 94064, Note_on_c, 3, 36, 0
11, 94080, Note_on_c, 3, 31, 84
11, 94304, Note_on_c, 3, 31, 0
11, 94320, Note_on_c, 3, 31, 84
11, 94784, Note_on_c, 3, 31, 0
11, 94800, Note_on_c, 3, 36, 84
11, 94971, Note_on_c, 3, 36, 0
11, 94980, Note_on_c, 3, 36, 84
11, 95031, Note_on_c, 3, 36, 0
11, 95040, Note_on_c, 3, 35, 84
11, 95504, Note_on_c, 3, 35, 0
11, 95520, Note_on_c, 3, 36, 84
11, 95984, Note_on_c, 3, 36, 0
11, 96000, Note_on_c, 3, 31, 84
11, 96224, Note_on_c, 3, 31, 0
11, 96240, Note_on_c, 3, 31, 84
11, 96704, Note_on_c, 3, 31, 0
11, 96720, Note_on_c, 3, 36, 84
11, 96891, Note_on_c, 3, 36, 0
11, 96900, Note_on_c, 3, 36, 84
11, 96951, Note_on_c, 3, 36, 0
11, 96960, Note_on_c, 3, 35, 84
11, 97131, Note_on_c, 3, 35, 0
11, 97140, Note_on_c, 3, 35, 84
11, 97191, Note_on_c, 3, 35, 0
11, 97200, Note_on_c, 3, 31, 84
11, 97371, Note_on_c, 3, 31, 0
11, 97380, Note_on_c, 3, 31, 84
11, 97431, Note_on_c, 3, 31, 0
11, 97440, Note_on_c, 3, 36, 84
11, 97611, Note_on_c, 3, 36, 0
11, 97620, Note_on_c, 3, 36, 84
11, 97671, Note_on_c, 3, 36, 0
11, 97680, Note_on_c, 3, 40, 84
11, 97851, Note_on_c, 3, 40, 0
11, 97860, Note_on_c, 3, 40, 84
11, 97911, Note_on_c, 3, 40, 0
11, 97920, Note_on_c, 3, 43, 84
11, 98024, Note_on_c, 3, 43, 0
11, 98040, Note_on_c, 3, 31, 84
11, 98144, Note_on_c, 3, 31, 0
11, 98160, Note_on_c, 3, 31, 84
11, 98399, Note_on_c, 3, 31, 0
11, 99000, Note_on_c, 3, 31, 84
11, 99104, Note_on_c, 3, 31, 0
11, 99120, Note_on_c, 3, 31, 84
11, 99359, Note_on_c, 3, 31, 0
11, 99960, Note_on_c, 3, 31, 84
11, 100064, Note_on_c, 3, 31, 0
11, 100080, Note_on_c, 3, 31, 84
11, 100319, Note_on_c, 3, 31, 0
11, 100440, Note_on_c, 3, 31, 84
11, 100544, Note_on_c, 3, 31, 0
11, 100560, Note_on_c, 3, 31, 84
11, 100799, Note_on_c, 3, 31, 0
11, 100920, Note_on_c, 3, 31, 84
11, 101024, Note_on_c, 3, 31, 0
11, 101040, Note_on_c, 3, 31, 84
11, 101279, Note_on_c, 3, 31, 0
11, 101400, Note_on_c, 3, 31, 84
11, 101504, Note_on_c, 3, 31, 0
11, 101520, Note_on_c, 3, 31, 84
11, 101744, Note_on_c, 3, 31, 0
11, 101760, Note_on_c, 3, 31, 84
11, 101999, Note_on_c, 3, 31, 0
11, 104760, Note_on_c, 3, 48, 92
11, 104879, Note_on_c, 3, 48, 0
11, 104880, Note_on_c, 3, 47, 84
11, 104984, Note_on_c, 3, 47, 0
11, 105000, Note_on_c, 3, 45, 84
11, 105089, Note_on_c, 3, 45, 0
11, 105120, Note_on_c, 3, 43, 84
11, 105209, Note_on_c, 3, 43, 0
11, 105240, Note_on_c, 3, 41, 84
11, 105329, Note_on_c, 3, 41, 0
11, 105360, Note_on_c, 3, 40, 84
11, 105449, Note_on_c, 3, 40, 0
11, 105480, Note_on_c, 3, 38, 84
11, 105569, Note_on_c, 3, 38, 0
11, 105600, Note_on_c, 3, 36, 84
11, 105839, Note_on_c, 3, 36, 0
11, 107520, Note_on_c, 3, 31, 84
11, 108104, Note_on_c, 3, 31, 0
11, 108120, Note_on_c, 3, 31, 84
11, 108209, Note_on_c, 3, 31, 0
11, 108240, Note_on_c, 3, 35, 84
11, 108329, Note_on_c, 3, 35, 0
11, 108360, Note_on_c, 3, 38, 84
11, 108449, Note_on_c, 3, 38, 0
11, 108480, Note_on_c, 3, 41, 84
11, 108569, Note_on_c, 3, 41, 0
11, 108600, Note_on_c, 3, 43, 84
11, 108689, Note_on_c, 3, 43, 0
11, 108720, Note_on_c, 3, 47, 84
11, 108809, Note_on_c, 3, 47, 0
11, 108840, Note_on_c, 3, 50, 84
11, 108929, Note_on_c, 3, 50, 0
11, 108960, Note_on_c, 3, 53, 84
11, 109064, Note_on_c, 3, 53, 0
11, 109080, Note_on_c, 3, 55, 84
11, 109184, Note_on_c, 3, 55, 0
11, 109200, Note_on_c, 3, 53, 84
11, 109304, Note_on_c, 3, 53, 0
11, 109320, Note_on_c, 3, 50, 84
11, 109424, Note_on_c, 3, 50, 0
11, 109440, Note_on_c, 3, 47, 84
11, 109544, Note_on_c, 3, 47, 0
11, 109560, Note_on_c, 3, 50, 84
11, 109664, Note_on_c, 3, 50, 0
11, 109680, Note_on_c, 3, 47, 84
11, 109784, Note_on_c, 3, 47, 0
11, 109800, Note_on_c, 3, 43, 84
11, 109904, Note_on_c, 3, 43, 0
11, 109920, Note_on_c, 3, 41, 84
11, 110024, Note_on_c, 3, 41, 0
11, 110040, Note_on_c, 3, 38, 84
11, 110144, Note_on_c, 3, 38, 0
11, 110160, Note_on_c, 3, 35, 84
11, 110264, Note_on_c, 3, 35, 0
11, 110280, Note_on_c, 3, 38, 84
11, 110384, Note_on_c, 3, 38, 0
11, 110400, Note_on_c, 3, 31, 84
11, 110639, Note_on_c, 3, 31, 0
11, 111360, Note_on_c, 3, 36, 84
11, 111944, Note_on_c, 3, 36, 0
11, 111960, Note_on_c, 3, 36, 84
11, 112064, Note_on_c, 3, 36, 0
11, 112080, Note_on_c, 3, 40, 84
11, 112184, Note_on_c, 3, 40, 0
11, 112200, Note_on_c, 3, 31, 84
11, 112304, Note_on_c, 3, 31, 0
11, 112320, Note_on_c, 3, 36, 84
11, 112424, Note_on_c, 3, 36, 0
11, 112440, Note_on_c, 3, 40, 84
11, 112544, Note_on_c, 3, 40, 0
11, 112560, Note_on_c, 3, 43, 84
11, 112664, Note_on_c, 3, 43, 0
11, 112680, Note_on_c, 3, 48, 84
11, 112784, Note_on_c, 3, 48, 0
11, 112800, Note_on_c, 3, 52, 84
11, 112904, Note_on_c, 3, 52, 0
11, 112920, Note_on_c, 3, 48, 84
11, 113024, Note_on_c, 3, 48, 0
11, 113040, Note_on_c, 3, 43, 84
11, 113144, Note_on_c, 3, 43, 0
11, 113160, Note_on_c, 3, 40, 84
11, 113264, Note_on_c, 3, 40, 0
11, 113280, Note_on_c, 3, 36, 84
11, 113384, Note_on_c, 3, 36, 0
11, 113400, Note_on_c, 3, 35, 84
11, 113504, Note_on_c, 3, 35, 0
11, 113520, Note_on_c, 3, 36, 84
11, 113624, Note_on_c, 3, 36, 0
11, 113640, Note_on_c, 3, 36, 84
11, 113744, Note_on_c, 3, 36, 0
11, 113760, Note_on_c, 3, 36, 84
11, 114344, Note_on_c, 3, 36, 0
11, 114360, Note_on_c, 3, 35, 84
11, 114464, Note_on_c, 3, 35, 0
11, 114480, Note_on_c, 3, 36, 84
11, 114584, Note_on_c, 3, 36, 0
11, 114600, Note_on_c, 3, 36, 84
11, 114704, Note_on_c, 3, 36, 0
11, 114720, Note_on_c, 3, 36, 84
11, 115304, Note_on_c, 3, 36, 0
11, 115320, Note_on_c, 3, 37, 84
11, 115424, Note_on_c, 3, 37, 0
11, 115440, Note_on_c, 3, 38, 84
11, 115544, Note_on_c, 3, 38, 0
11, 115560, Note_on_c, 3, 38, 84
11, 115664, Note_on_c, 3, 38, 0
11, 115680, Note_on_c, 3, 38, 84
11, 116264, Note_on_c, 3, 38, 0
11, 116280, Note_on_c, 3, 37, 84
11, 116384, Note_on_c, 3, 37, 0
11, 116400, Note_on_c, 3, 38, 84
11, 116504, Note_on_c, 3, 38, 0
11, 116520, Note_on_c, 3, 38, 84
11, 116624, Note_on_c, 3, 38, 0
11, 116640, Note_on_c, 3, 38, 84
11, 117224, Note_on_c, 3, 38, 0
11, 117240, Note_on_c, 3, 37, 84
11, 117344, Note_on_c, 3, 37, 0
11, 117360, Note_on_c, 3, 38, 84
11, 117464, Note_on_c, 3, 38, 0
11, 117480, Note_on_c, 3, 38, 84
11, 117584, Note_on_c, 3, 38, 0
11, 117600, Note_on_c, 3, 38, 84
11, 118184, Note_on_c, 3, 38, 0
11, 118200, Note_on_c, 3, 37, 84
11, 118304, Note_on_c, 3, 37, 0
11, 118320, Note_on_c, 3, 38, 84
11, 118424, Note_on_c, 3, 38, 0
11, 118440, Note_on_c, 3, 38, 84
11, 118544, Note_on_c, 3, 38, 0
11, 118560, Note_on_c, 3, 38, 84
11, 118664, Note_on_c, 3, 38, 0
11, 118680, Note_on_c, 3, 37, 84
11, 118784, Note_on_c, 3, 37, 0
11, 118800, Note_on_c, 3, 38, 84
11, 118904, Note_on_c, 3, 38, 0
11, 118920, Note_on_c, 3, 38, 84
11, 119024, Note_on_c, 3, 38, 0
11, 119040, Note_on_c, 3, 38, 84
11, 119144, Note_on_c, 3, 38, 0
11, 119160, Note_on_c, 3, 37, 84
11, 119264, Note_on_c, 3, 37, 0
11, 119280, Note_on_c, 3, 38, 84
11, 119384, Note_on_c, 3, 38, 0
11, 119400, Note_on_c, 3, 38, 84
11, 119504, Note_on_c, 3, 38, 0
11, 119520, Note_on_c, 3, 38, 84
11, 119624, Note_on_c, 3, 38, 0
11, 119640, Note_on_c, 3, 37, 84
11, 119744, Note_on_c, 3, 37, 0
11, 119760, Note_on_c, 3, 38, 84
11, 119864, Note_on_c, 3, 38, 0
11, 119880, Note_on_c, 3, 38, 84
11, 119984, Note_on_c, 3, 38, 0
11, 120000, Note_on_c, 3, 38, 84
11, 120104, Note_on_c, 3, 38, 0
11, 120120, Note_on_c, 3, 50, 84
11, 120239, Note_on_c, 3, 50, 0
11, 120240, Note_on_c, 3, 48, 84
11, 120344, Note_on_c, 3, 48, 0
11, 120360, Note_on_c, 3, 47, 84
11, 120449, Note_on_c, 3, 47, 0
11, 120480, Note_on_c, 3, 45, 84
11, 120569, Note_on_c, 3, 45, 0
11, 120600, Note_on_c, 3, 47, 84
11, 120719, Note_on_c, 3, 47, 0
11, 120720, Note_on_c, 3, 45, 84
11, 120824, Note_on_c, 3, 45, 0
11, 120840, Note_on_c, 3, 43, 84
11, 120929, Note_on_c, 3, 43, 0
11, 120960, Note_on_c, 3, 42, 84
11, 121064, Note_on_c, 3, 42, 0
11, 121080, Note_on_c, 3, 43, 84
11, 121199, Note_on_c, 3, 43, 0
11, 121200, Note_on_c, 3, 42, 84
11, 121304, Note_on_c, 3, 42, 0
11, 121320, Note_on_c, 3, 40, 84
11, 121409, Note_on_c, 3, 40, 0
11, 121440, Note_on_c, 3, 38, 84
11, 121529, Note_on_c, 3, 38, 0
11, 121560, Note_on_c, 3, 38, 84
11, 121679, Note_on_c, 3, 38, 0
11, 121680, Note_on_c, 3, 40, 84
11, 121784, Note_on_c, 3, 40, 0
11, 121800, Note_on_c, 3, 33, 84
11, 121889, Note_on_c, 3, 33, 0
11, 121920, Note_on_c, 3, 38, 84
11, 122039, Note_on_c, 3, 38, 0
11, 123000, Note_on_c, 3, 38, 84
11, 123119, Note_on_c, 3, 38, 0
11, 123120, Note_on_c, 3, 36, 84
11, 123224, Note_on_c, 3, 36, 0
11, 123240, Note_on_c, 3, 45, 84
11, 123329, Note_on_c, 3, 45, 0
11, 123360, Note_on_c, 3, 36, 84
11, 123449, Note_on_c, 3, 36, 0
11, 123480, Note_on_c, 3, 35, 84
11, 123599, Note_on_c, 3, 35, 0
11, 123600, Note_on_c, 3, 33, 84
11, 123704, Note_on_c, 3, 33, 0
11, 123720, Note_on_c, 3, 42, 84
11, 123809, Note_on_c, 3, 42, 0
11, 123840, Note_on_c, 3, 31, 84
11, 124079, Note_on_c, 3, 31, 0
11, 124320, Note_on_c, 3, 31, 84
11, 124559, Note_on_c, 3, 31, 0
11, 124800, Note_on_c, 3, 31, 84
11, 125024, Note_on_c, 3, 31, 0
11, 125040, Note_on_c, 3, 38, 84
11, 125119, Note_on_c, 3, 38, 0
11, 125120, Note_on_c, 3, 40, 84
11, 125199, Note_on_c, 3, 40, 0
11, 125200, Note_on_c, 3, 42, 84
11, 125267, Note_on_c, 3, 42, 0
11, 125280, Note_on_c, 3, 43, 84
11, 125519, Note_on_c, 3, 43, 0
11, 126960, Note_on_c, 3, 42, 52
11, 127039, Note_on_c, 3, 42, 0
11, 127040, Note_on_c, 3, 43, 56
11, 127119, Note_on_c, 3, 43, 0
11, 127120, Note_on_c, 3, 45, 60
11, 127187, Note_on_c, 3, 45, 0
11, 127200, Note_on_c, 3, 38, 64
11, 127424, Note_on_c, 3, 38, 0
11, 127440, Note_on_c, 3, 36, 76
11, 127507, Note_on_c, 3, 36, 0
11, 127520, Note_on_c, 3, 35, 76
11, 127587, Note_on_c, 3, 35, 0
11, 127600, Note_on_c, 3, 33, 76
11, 127667, Note_on_c, 3, 33, 0
11, 127680, Note_on_c, 3, 31, 76
11, 127919, Note_on_c, 3, 31, 0
11, 128160, Note_on_c, 3, 31, 76
11, 128399, Note_on_c, 3, 31, 0
11, 128640, Note_on_c, 3, 31, 76
11, 128864, Note_on_c, 3, 31, 0
11, 128880, Note_on_c, 3, 38, 76
11, 128947, Note_on_c, 3, 38, 0
11, 128960, Note_on_c, 3, 40, 76
11, 129027, Note_on_c, 3, 40, 0
11, 129040, Note_on_c, 3, 42, 76
11, 129107, Note_on_c, 3, 42, 0
11, 129120, Note_on_c, 3, 43, 76
11, 129359, Note_on_c, 3, 43, 0
11, 130800, Note_on_c, 3, 38, 76
11, 130867, Note_on_c, 3, 38, 0
11, 130880, Note_on_c, 3, 40, 76
11, 130947, Note_on_c, 3, 40, 0
11, 130960, Note_on_c, 3, 42, 76
11, 131027, Note_on_c, 3, 42, 0
11, 131040, Note_on_c, 3, 43, 76
11, 131279, Note_on_c, 3, 43, 0
11, 132720, Note_on_c, 3, 40, 76
11, 132787, Note_on_c, 3, 40, 0
11, 132800, Note_on_c, 3, 42, 76
11, 132867, Note_on_c, 3, 42, 0
11, 132880, Note_on_c, 3, 44, 76
11, 132947, Note_on_c, 3, 44, 0
11, 132960, Note_on_c, 3, 45, 76
11, 133199, Note_on_c, 3, 45, 0
11, 136320, Note_on_c, 3, 36, 84
11, 136904, Note_on_c, 3, 36, 0
11, 136920, Note_on_c, 3, 36, 84
11, 137024, Note_on_c, 3, 36, 0
11, 137040, Note_on_c, 3, 36, 84
11, 137144, Note_on_c, 3, 36, 0
11, 137160, Note_on_c, 3, 36, 84
11, 137264, Note_on_c, 3, 36, 0
11, 137280, Note_on_c, 3, 36, 84
11, 137384, Note_on_c, 3, 36, 0
11, 137400, Note_on_c, 3, 36, 84
11, 137504, Note_on_c, 3, 36, 0
11, 137520, Note_on_c, 3, 36, 84
11, 137624, Note_on_c, 3, 36, 0
11, 137640, Note_on_c, 3, 36, 84
11, 137744, Note_on_c, 3, 36, 0
11, 137760, Note_on_c, 3, 36, 84
11, 137864, Note_on_c, 3, 36, 0
11, 137880, Note_on_c, 3, 36, 84
11, 137984, Note_on_c, 3, 36, 0
11, 138000, Note_on_c, 3, 36, 84
11, 138104, Note_on_c, 3, 36, 0
11, 138120, Note_on_c, 3, 36, 84
11, 138224, Note_on_c, 3, 36, 0
11, 138240, Note_on_c, 3, 36, 84
11, 138344, Note_on_c, 3, 36, 0
11, 138360, Note_on_c, 3, 36, 84
11, 138464, Note_on_c, 3, 36, 0
11, 138480, Note_on_c, 3, 37, 84
11, 138584, Note_on_c, 3, 37, 0
11, 138600, Note_on_c, 3, 37, 84
11, 138704, Note_on_c, 3, 37, 0
11, 138720, Note_on_c, 3, 38, 84
11, 138824, Note_on_c, 3, 38, 0
11, 138840, Note_on_c, 3, 38, 84
11, 138944, Note_on_c, 3, 38, 0
11, 138960, Note_on_c, 3, 39, 84
11, 139064, Note_on_c, 3, 39, 0
11, 139080, Note_on_c, 3, 39, 84
11, 139184, Note_on_c, 3, 39, 0
11, 139200, Note_on_c, 3, 40, 84
11, 139304, Note_on_c, 3, 40, 0
11, 139320, Note_on_c, 3, 40, 84
11, 139424, Note_on_c, 3, 40, 0
11, 139440, Note_on_c, 3, 42, 84
11, 139544, Note_on_c, 3, 42, 0
11, 139560, Note_on_c, 3, 42, 84
11, 139664, Note_on_c, 3, 42, 0
11, 139680, Note_on_c, 3, 43, 84
11, 139784, Note_on_c, 3, 43, 0
11, 139800, Note_on_c, 3, 31, 84
11, 139904, Note_on_c, 3, 31, 0
11, 139920, Note_on_c, 3, 33, 84
11, 140024, Note_on_c, 3, 33, 0
11, 140040, Note_on_c, 3, 35, 84
11, 140144, Note_on_c, 3, 35, 0
11, 140160, Note_on_c, 3, 36, 84
11, 140339, Note_on_c, 3, 36, 0
11, 141120, Note_on_c, 3, 38, 84
11, 141299, Note_on_c, 3, 38, 0
11, 149760, Note_on_c, 3, 35, 76
11, 150464, Note_on_c, 3, 35, 0
11, 150480, Note_on_c, 3, 33, 76
11, 150704, Note_on_c, 3, 33, 0
11, 150720, Note_on_c, 3, 31, 76
11, 150944, Note_on_c, 3, 31, 0
11, 150960, Note_on_c, 3, 30, 76
11, 151184, Note_on_c, 3, 30, 0
11, 151200, Note_on_c, 3, 30, 76
11, 151424, Note_on_c, 3, 30, 0
11, 151440, Note_on_c, 3, 30, 76
11, 151664, Note_on_c, 3, 30, 0
11, 151680, Note_on_c, 3, 35, 84
11, 152384, Note_on_c, 3, 35, 0
11, 152400, Note_on_c, 3, 33, 84
11, 152624, Note_on_c, 3, 33, 0
11, 152640, Note_on_c, 3, 31, 84
11, 152864, Note_on_c, 3, 31, 0
11, 152880, Note_on_c, 3, 30, 84
11, 153104, Note_on_c, 3, 30, 0
11, 153120, Note_on_c, 3, 30, 84
11, 153344, Note_on_c, 3, 30, 0
11, 153360, Note_on_c, 3, 30, 84
11, 153584, Note_on_c, 3, 30, 0
11, 153600, Note_on_c, 3, 30, 84
11, 154304, Note_on_c, 3, 30, 0
11, 154320, Note_on_c, 3, 31, 84
11, 154544, Note_on_c, 3, 31, 0
11, 154560, Note_on_c, 3, 36, 76
11, 154784, Note_on_c, 3, 36, 0
11, 154800, Note_on_c, 3, 36, 80
11, 155024, Note_on_c, 3, 36, 0
11, 155040, Note_on_c, 3, 36, 80
11, 155264, Note_on_c, 3, 36, 0
11, 155280, Note_on_c, 3, 36, 80
11, 155504, Note_on_c, 3, 36, 0
11, 155520, Note_on_c, 3, 36, 80
11, 155744, Note_on_c, 3, 36, 0
11, 155760, Note_on_c, 3, 36, 80
11, 155984, Note_on_c, 3, 36, 0
11, 156000, Note_on_c, 3, 36, 80
11, 156224, Note_on_c, 3, 36, 0
11, 156240, Note_on_c, 3, 36, 80
11, 156464, Note_on_c, 3, 36, 0
11, 156480, Note_on_c, 3, 36, 80
11, 156704, Note_on_c, 3, 36, 0
11, 156720, Note_on_c, 3, 36, 80
11, 156944, Note_on_c, 3, 36, 0
11, 156960, Note_on_c, 3, 36, 80
11, 157184, Note_on_c, 3, 36, 0
11, 157200, Note_on_c, 3, 36, 80
11, 157424, Note_on_c, 3, 36, 0
11, 157440, Note_on_c, 3, 29, 84
11, 157529, Note_on_c, 3, 29, 0
11, 157560, Note_on_c, 3, 24, 84
11, 157649, Note_on_c, 3, 24, 0
11, 157680, Note_on_c, 3, 32, 84
11, 157799, Note_on_c, 3, 32, 0
11, 157800, Note_on_c, 3, 29, 84
11, 157904, Note_on_c, 3, 29, 0
11, 157920, Note_on_c, 3, 32, 84
11, 158009, Note_on_c, 3, 32, 0
11, 158040, Note_on_c, 3, 29, 84
11, 158129, Note_on_c, 3, 29, 0
11, 158160, Note_on_c, 3, 36, 84
11, 158279, Note_on_c, 3, 36, 0
11, 158280, Note_on_c, 3, 32, 84
11, 158384, Note_on_c, 3, 32, 0
11, 158400, Note_on_c, 3, 36, 84
11, 158489, Note_on_c, 3, 36, 0
11, 158520, Note_on_c, 3, 32, 84
11, 158609, Note_on_c, 3, 32, 0
11, 158640, Note_on_c, 3, 41, 84
11, 158759, Note_on_c, 3, 41, 0
11, 158760, Note_on_c, 3, 36, 84
11, 158864, Note_on_c, 3, 36, 0
11, 158880, Note_on_c, 3, 41, 84
11, 158969, Note_on_c, 3, 41, 0
11, 159000, Note_on_c, 3, 36, 84
11, 159089, Note_on_c, 3, 36, 0
11, 159120, Note_on_c, 3, 44, 84
11, 159239, Note_on_c, 3, 44, 0
11, 159240, Note_on_c, 3, 41, 84
11, 159344, Note_on_c, 3, 41, 0
11, 159360, Note_on_c, 3, 43, 84
11, 161264, Note_on_c, 3, 43, 0
11, 161280, Note_on_c, 3, 50, 84
11, 161384, Note_on_c, 3, 50, 0
11, 161400, Note_on_c, 3, 53, 84
11, 161504, Note_on_c, 3, 53, 0
11, 161520, Note_on_c, 3, 47, 84
11, 161624, Note_on_c, 3, 47, 0
11, 161640, Note_on_c, 3, 50, 84
11, 161744, Note_on_c, 3, 50, 0
11, 161760, Note_on_c, 3, 43, 84
11, 161864, Note_on_c, 3, 43, 0
11, 161880, Note_on_c, 3, 47, 84
11, 161984, Note_on_c, 3, 47, 0
11, 162000, Note_on_c, 3, 41, 84
11, 162104, Note_on_c, 3, 41, 0
11, 162120, Note_on_c, 3, 43, 84
11, 162224, Note_on_c, 3, 43, 0
11, 162240, Note_on_c, 3, 35, 84
11, 162344, Note_on_c, 3, 35, 0
11, 162360, Note_on_c, 3, 38, 84
11, 162464, Note_on_c, 3, 38, 0
11, 162480, Note_on_c, 3, 31, 84
11, 162584, Note_on_c, 3, 31, 0
11, 162600, Note_on_c, 3, 35, 84
11, 162704, Note_on_c, 3, 35, 0
11, 162720, Note_on_c, 3, 31, 84
11, 162824, Note_on_c, 3, 31, 0
11, 162840, Note_on_c, 3, 38, 84
11, 162944, Note_on_c, 3, 38, 0
11, 162960, Note_on_c, 3, 35, 84
11, 163064, Note_on_c, 3, 35, 0
11, 163080, Note_on_c, 3, 31, 84
11, 163184, Note_on_c, 3, 31, 0
11, 163200, Note_on_c, 3, 32, 84
11, 163289, Note_on_c, 3, 32, 0
11, 163320, Note_on_c, 3, 28, 84
11, 163409, Note_on_c, 3, 28, 0
11, 163440, Note_on_c, 3, 35, 84
11, 163559, Note_on_c, 3, 35, 0
11, 163560, Note_on_c, 3, 32, 84
11, 163664, Note_on_c, 3, 32, 0
11, 163680, Note_on_c, 3, 35, 84
11, 163769, Note_on_c, 3, 35, 0
11, 163800, Note_on_c, 3, 32, 84
11, 163889, Note_on_c, 3, 32, 0
11, 163920, Note_on_c, 3, 40, 84
11, 164039, Note_on_c, 3, 40, 0
11, 164040, Note_on_c, 3, 35, 84
11, 164144, Note_on_c, 3, 35, 0
11, 164160, Note_on_c, 3, 40, 84
11, 164249, Note_on_c, 3, 40, 0
11, 164280, Note_on_c, 3, 35, 84
11, 164369, Note_on_c, 3, 35, 0
11, 164400, Note_on_c, 3, 44, 84
11, 164519, Note_on_c, 3, 44, 0
11, 164520, Note_on_c, 3, 40, 84
11, 164624, Note_on_c, 3, 40, 0
11, 164640, Note_on_c, 3, 44, 84
11, 164729, Note_on_c, 3, 44, 0
11, 164760, Note_on_c, 3, 40, 84
11, 164849, Note_on_c, 3, 40, 0
11, 164880, Note_on_c, 3, 47, 84
11, 164999, Note_on_c, 3, 47, 0
11, 165000, Note_on_c, 3, 44, 84
11, 165104, Note_on_c, 3, 44, 0
11, 165120, Note_on_c, 3, 52, 84
11, 165209, Note_on_c, 3, 52, 0
11, 165240, Note_on_c, 3, 47, 84
11, 165329, Note_on_c, 3, 47, 0
11, 165360, Note_on_c, 3, 44, 84
11, 165449, Note_on_c, 3, 44, 0
11, 165480, Note_on_c, 3, 47, 84
11, 165569, Note_on_c, 3, 47, 0
11, 165600, Note_on_c, 3, 40, 84
11, 165689, Note_on_c, 3, 40, 0
11, 165720, Note_on_c, 3, 44, 84
11, 165809, Note_on_c, 3, 44, 0
11, 165840, Note_on_c, 3, 38, 84
11, 165929, Note_on_c, 3, 38, 0
11, 165960, Note_on_c, 3, 40, 84
11, 166049, Note_on_c, 3, 40, 0
11, 166080, Note_on_c, 3, 35, 84
11, 166169, Note_on_c, 3, 35, 0
11, 166200, Note_on_c, 3, 38, 84
11, 166289, Note_on_c, 3, 38, 0
11, 166320, Note_on_c, 3, 32, 84
11, 166409, Note_on_c, 3, 32, 0
11, 166440, Note_on_c, 3, 35, 84
11, 166529, Note_on_c, 3, 35, 0
11, 166560, Note_on_c, 3, 28, 84
11, 166664, Note_on_c, 3, 28, 0
11, 166680, Note_on_c, 3, 40, 84
11, 166784, Note_on_c, 3, 40, 0
11, 166800, Note_on_c, 3, 40, 84
11, 166904, Note_on_c, 3, 40, 0
11, 166920, Note_on_c, 3, 40, 84
11, 167024, Note_on_c, 3, 40, 0
11, 167040, Note_on_c, 3, 33, 84
11, 167279, Note_on_c, 3, 33, 0
11, 167520, Note_on_c, 3, 33, 84
11, 167759, Note_on_c, 3, 33, 0
11, 168000, Note_on_c, 3, 33, 84
11, 168224, Note_on_c, 3, 33, 0
11, 168240, Note_on_c, 3, 40, 84
11, 168307, Note_on_c, 3, 40, 0
11, 168320, Note_on_c, 3, 42, 84
11, 168387, Note_on_c, 3, 42, 0
11, 168400, Note_on_c, 3, 44, 84
11, 168467, Note_on_c, 3, 44, 0
11, 168480, Note_on_c, 3, 45, 84
11, 168719, Note_on_c, 3, 45, 0
11, 183120, Note_on_c, 3, 34, 76
11, 183344, Note_on_c, 3, 34, 0
11, 183360, Note_on_c, 3, 33, 76
11, 183824, Note_on_c, 3, 33, 0
11, 183840, Note_on_c, 3, 34, 76
11, 184304, Note_on_c, 3, 34, 0
11, 184320, Note_on_c, 3, 36, 76
11, 185984, Note_on_c, 3, 36, 0
11, 186000, Note_on_c, 3, 36, 76
11, 186224, Note_on_c, 3, 36, 0
11, 186240, Note_on_c, 3, 34, 76
11, 186704, Note_on_c, 3, 34, 0
11, 186720, Note_on_c, 3, 36, 76
11, 187184, Note_on_c, 3, 36, 0
11, 187200, Note_on_c, 3, 37, 76
11, 188879, Note_on_c, 3, 37, 0
11, 190080, Note_on_c, 3, 36, 76
11, 191759, Note_on_c, 3, 36, 0
11, 192960, Note_on_c, 3, 38, 76
11, 194624, Note_on_c, 3, 38, 0
11, 194640, Note_on_c, 3, 37, 76
11, 194864, Note_on_c, 3, 37, 0
11, 194880, Note_on_c, 3, 37, 76
11, 195824, Note_on_c, 3, 37, 0
11, 195840, Note_on_c, 3, 36, 76
11, 197984, Note_on_c, 3, 36, 0
11, 198000, Note_on_c, 3, 37, 80
11, 198224, Note_on_c, 3, 37, 0
11, 198240, Note_on_c, 3, 36, 80
11, 198944, Note_on_c, 3, 36, 0
11, 198960, Note_on_c, 3, 31, 80
11, 199139, Note_on_c, 3, 31, 0
11, 199200, Note_on_c, 3, 29, 80
11, 199904, Note_on_c, 3, 29, 0
11, 199920, Note_on_c, 3, 41, 80
11, 200099, Note_on_c, 3, 41, 0
11, 200160, Note_on_c, 3, 39, 80
11, 200864, Note_on_c, 3, 39, 0
11, 200880, Note_on_c, 3, 34, 80
11, 201059, Note_on_c, 3, 34, 0
11, 201120, Note_on_c, 3, 32, 80
11, 201824, Note_on_c, 3, 32, 0
11, 201840, Note_on_c, 3, 44, 80
11, 202019, Note_on_c, 3, 44, 0
11, 202080, Note_on_c, 3, 43, 80
11, 202784, Note_on_c, 3, 43, 0
11, 202800, Note_on_c, 3, 38, 80
11, 202979, Note_on_c, 3, 38, 0
11, 203040, Note_on_c, 3, 36, 80
11, 203744, Note_on_c, 3, 36, 0
11, 203760, Note_on_c, 3, 48, 80
11, 203939, Note_on_c, 3, 48, 0
11, 204000, Note_on_c, 3, 46, 80
11, 204704, Note_on_c, 3, 46, 0
11, 204720, Note_on_c, 3, 41, 80
11, 204899, Note_on_c, 3, 41, 0
11, 204960, Note_on_c, 3, 39, 80
11, 205139, Note_on_c, 3, 39, 0
11, 205200, Note_on_c, 3, 51, 80
11, 205379, Note_on_c, 3, 51, 0
11, 205440, Note_on_c, 3, 50, 80
11, 205507, Note_on_c, 3, 50, 0
11, 205520, Note_on_c, 3, 50, 80
11, 205587, Note_on_c, 3, 50, 0
11, 205600, Note_on_c, 3, 50, 80
11, 205667, Note_on_c, 3, 50, 0
11, 205680, Note_on_c, 3, 50, 80
11, 205747, Note_on_c, 3, 50, 0
11, 205760, Note_on_c, 3, 50, 80
11, 205827, Note_on_c, 3, 50, 0
11, 205840, Note_on_c, 3, 50, 80
11, 205907, Note_on_c, 3, 50, 0
11, 205920, Note_on_c, 3, 50, 80
11, 205987, Note_on_c, 3, 50, 0
11, 206000, Note_on_c, 3, 50, 80
11, 206067, Note_on_c, 3, 50, 0
11, 206080, Note_on_c, 3, 50, 80
11, 206147, Note_on_c, 3, 50, 0
11, 206160, Note_on_c, 3, 50, 80
11, 206227, Note_on_c, 3, 50, 0
11, 206240, Note_on_c, 3, 50, 80
11, 206307, Note_on_c, 3, 50, 0
11, 206320, Note_on_c, 3, 50, 80
11, 206387, Note_on_c, 3, 50, 0
11, 206400, Note_on_c, 3, 50, 80
11, 206467, Note_on_c, 3, 50, 0
11, 206480, Note_on_c, 3, 50, 80
11, 206547, Note_on_c, 3, 50, 0
11, 206560, Note_on_c, 3, 50, 80
11, 206627, Note_on_c, 3, 50, 0
11, 206640, Note_on_c, 3, 50, 80
11, 206707, Note_on_c, 3, 50, 0
11, 206720, Note_on_c, 3, 50, 80
11, 206787, Note_on_c, 3, 50, 0
11, 206800, Note_on_c, 3, 50, 80
11, 206867, Note_on_c, 3, 50, 0
11, 206880, Note_on_c, 3, 50, 80
11, 206947, Note_on_c, 3, 50, 0
11, 206960, Note_on_c, 3, 50, 80
11, 207027, Note_on_c, 3, 50, 0
11, 207040, Note_on_c, 3, 50, 80
11, 207107, Note_on_c, 3, 50, 0
11, 207120, Note_on_c, 3, 50, 80
11, 207187, Note_on_c, 3, 50, 0
11, 207200, Note_on_c, 3, 50, 80
11, 207267, Note_on_c, 3, 50, 0
11, 207280, Note_on_c, 3, 50, 80
11, 207347, Note_on_c, 3, 50, 0
11, 207360, Note_on_c, 3, 31, 84
11, 209264, Note_on_c, 3, 31, 0
11, 209280, Note_on_c, 3, 31, 84
11, 211184, Note_on_c, 3, 31, 0
11, 211200, Note_on_c, 3, 31, 84
11, 213104, Note_on_c, 3, 31, 0
11, 213120, Note_on_c, 3, 31, 84
11, 215024, Note_on_c, 3, 31, 0
11, 215040, Note_on_c, 3, 31, 92
11, 215107, Note_on_c, 3, 31, 0
11, 215120, Note_on_c, 3, 31, 84
11, 215187, Note_on_c, 3, 31, 0
11, 215200, Note_on_c, 3, 31, 84
11, 215267, Note_on_c, 3, 31, 0
11, 215280, Note_on_c, 3, 31, 84
11, 215347, Note_on_c, 3, 31, 0
11, 215360, Note_on_c, 3, 31, 84
11, 215427, Note_on_c, 3, 31, 0
11, 215440, Note_on_c, 3, 31, 84
11, 215507, Note_on_c, 3, 31, 0
11, 215520, Note_on_c, 3, 31, 84
11, 215587, Note_on_c, 3, 31, 0
11, 215600, Note_on_c, 3, 31, 84
11, 215667, Note_on_c, 3, 31, 0
11, 215680, Note_on_c, 3, 31, 84
11, 215747, Note_on_c, 3, 31, 0
11, 215760, Note_on_c, 3, 31, 84
11, 215827, Note_on_c, 3, 31, 0
11, 215840, Note_on_c, 3, 31, 84
11, 215907, Note_on_c, 3, 31, 0
11, 215920, Note_on_c, 3, 31, 84
11, 215987, Note_on_c, 3, 31, 0
11, 216000, Note_on_c, 3, 31, 92
11, 216067, Note_on_c, 3, 31, 0
11, 216080, Note_on_c, 3, 31, 84
11, 216147, Note_on_c, 3, 31, 0
11, 216160, Note_on_c, 3, 31, 84
11, 216227, Note_on_c, 3, 31, 0
11, 216240, Note_on_c, 3, 31, 84
11, 216307, Note_on_c, 3, 31, 0
11, 216320, Note_on_c, 3, 31, 84
11, 216387, Note_on_c, 3, 31, 0
11, 216400, Note_on_c, 3, 31, 84
11, 216467, Note_on_c, 3, 31, 0
11, 216480, Note_on_c, 3, 31, 84
11, 216547, Note_on_c, 3, 31, 0
11, 216560, Note_on_c, 3, 31, 84
11, 216627, Note_on_c, 3, 31, 0
11, 216640, Note_on_c, 3, 31, 84
11, 216707, Note_on_c, 3, 31, 0
11, 216720, Note_on_c, 3, 31, 84
11, 216787, Note_on_c, 3, 31, 0
11, 216800, Note_on_c, 3, 31, 84
11, 216867, Note_on_c, 3, 31, 0
11, 216880, Note_on_c, 3, 31, 84
11, 216947, Note_on_c, 3, 31, 0
11, 216960, Note_on_c, 3, 31, 84
11, 217027, Note_on_c, 3, 31, 0
11, 217040, Note_on_c, 3, 31, 84
11, 217107, Note_on_c, 3, 31, 0
11, 217120, Note_on_c, 3, 31, 84
11, 217187, Note_on_c, 3, 31, 0
11, 217200, Note_on_c, 3, 31, 84
11, 217267, Note_on_c, 3, 31, 0
11, 217280, Note_on_c, 3, 31, 84
11, 217347, Note_on_c, 3, 31, 0
11, 217360, Note_on_c, 3, 31, 84
11, 217427, Note_on_c, 3, 31, 0
11, 217440, Note_on_c, 3, 31, 84
11, 217507, Note_on_c, 3, 31, 0
11, 217520, Note_on_c, 3, 31, 84
11, 217587, Note_on_c, 3, 31, 0
11, 217600, Note_on_c, 3, 31, 84
11, 217667, Note_on_c, 3, 31, 0
11, 217680, Note_on_c, 3, 31, 84
11, 217747, Note_on_c, 3, 31, 0
11, 217760, Note_on_c, 3, 31, 84
11, 217827, Note_on_c, 3, 31, 0
11, 217840, Note_on_c, 3, 31, 84
11, 217907, Note_on_c, 3, 31, 0
11, 217920, Note_on_c, 3, 31, 84
11, 217987, Note_on_c, 3, 31, 0
11, 218000, Note_on_c, 3, 31, 84
11, 218067, Note_on_c, 3, 31, 0
11, 218080, Note_on_c, 3, 31, 84
11, 218147, Note_on_c, 3, 31, 0
11, 218160, Note_on_c, 3, 31, 84
11, 218227, Note_on_c, 3, 31, 0
11, 218240, Note_on_c, 3, 31, 84
11, 218307, Note_on_c, 3, 31, 0
11, 218320, Note_on_c, 3, 31, 84
11, 218387, Note_on_c, 3, 31, 0
11, 218400, Note_on_c, 3, 31, 84
11, 218467, Note_on_c, 3, 31, 0
11, 218480, Note_on_c, 3, 31, 84
11, 218547, Note_on_c, 3, 31, 0
11, 218560, Note_on_c, 3, 31, 84
11, 218627, Note_on_c, 3, 31, 0
11, 218640, Note_on_c, 3, 31, 84
11, 218707, Note_on_c, 3, 31, 0
11, 218720, Note_on_c, 3, 31, 84
11, 218787, Note_on_c, 3, 31, 0
11, 218800, Note_on_c, 3, 31, 84
11, 218867, Note_on_c, 3, 31, 0
11, 218880, Note_on_c, 3, 31, 84
11, 219464, Note_on_c, 3, 31, 0
11, 219480, Note_on_c, 3, 38, 84
11, 219584, Note_on_c, 3, 38, 0
11, 219600, Note_on_c, 3, 35, 84
11, 219704, Note_on_c, 3, 35, 0
11, 219720, Note_on_c, 3, 38, 84
11, 219824, Note_on_c, 3, 38, 0
11, 219840, Note_on_c, 3, 43, 84
11, 220424, Note_on_c, 3, 43, 0
11, 220440, Note_on_c, 3, 38, 84
11, 220544, Note_on_c, 3, 38, 0
11, 220560, Note_on_c, 3, 35, 84
11, 220664, Note_on_c, 3, 35, 0
11, 220680, Note_on_c, 3, 38, 84
11, 220784, Note_on_c, 3, 38, 0
11, 220800, Note_on_c, 3, 43, 84
11, 220904, Note_on_c, 3, 43, 0
11, 220920, Note_on_c, 3, 50, 84
11, 221024, Note_on_c, 3, 50, 0
11, 221040, Note_on_c, 3, 47, 84
11, 221144, Note_on_c, 3, 47, 0
11, 221160, Note_on_c, 3, 50, 84
11, 221264, Note_on_c, 3, 50, 0
11, 221280, Note_on_c, 3, 50, 84
11, 221384, Note_on_c, 3, 50, 0
11, 221400, Note_on_c, 3, 47, 84
11, 221504, Note_on_c, 3, 47, 0
11, 221520, Note_on_c, 3, 43, 84
11, 221624, Note_on_c, 3, 43, 0
11, 221640, Note_on_c, 3, 47, 84
11, 221744, Note_on_c, 3, 47, 0
11, 221760, Note_on_c, 3, 47, 84
11, 221864, Note_on_c, 3, 47, 0
11, 221880, Note_on_c, 3, 43, 84
11, 221984, Note_on_c, 3, 43, 0
11, 222000, Note_on_c, 3, 38, 84
11, 222104, Note_on_c, 3, 38, 0
11, 222120, Note_on_c, 3, 43, 84
11, 222224, Note_on_c, 3, 43, 0
11, 222240, Note_on_c, 3, 43, 84
11, 222344, Note_on_c, 3, 43, 0
11, 222360, Note_on_c, 3, 38, 84
11, 222464, Note_on_c, 3, 38, 0
11, 222480, Note_on_c, 3, 35, 84
11, 222584, Note_on_c, 3, 35, 0
11, 222600, Note_on_c, 3, 38, 84
11, 222704, Note_on_c, 3, 38, 0
11, 222720, Note_on_c, 3, 38, 84
11, 222824, Note_on_c, 3, 38, 0
11, 222840, Note_on_c, 3, 35, 84
11, 222944, Note_on_c, 3, 35, 0
11, 222960, Note_on_c, 3, 31, 84
11, 223064, Note_on_c, 3, 31, 0
11, 223080, Note_on_c, 3, 47, 84
11, 223184, Note_on_c, 3, 47, 0
11, 223200, Note_on_c, 3, 47, 84
11, 223304, Note_on_c, 3, 47, 0
11, 223320, Note_on_c, 3, 43, 84
11, 223424, Note_on_c, 3, 43, 0
11, 223440, Note_on_c, 3, 38, 84
11, 223544, Note_on_c, 3, 38, 0
11, 223560, Note_on_c, 3, 43, 84
11, 223664, Note_on_c, 3, 43, 0
11, 223680, Note_on_c, 3, 43, 84
11, 223784, Note_on_c, 3, 43, 0
11, 223800, Note_on_c, 3, 38, 84
11, 223904, Note_on_c, 3, 38, 0
11, 223920, Note_on_c, 3, 35, 84
11, 224024, Note_on_c, 3, 35, 0
11, 224040, Note_on_c, 3, 38, 84
11, 224144, Note_on_c, 3, 38, 0
11, 224160, Note_on_c, 3, 43, 84
11, 224264, Note_on_c, 3, 43, 0
11, 224280, Note_on_c, 3, 38, 84
11, 224384, Note_on_c, 3, 38, 0
11, 224400, Note_on_c, 3, 35, 84
11, 224504, Note_on_c, 3, 35, 0
11, 224520, Note_on_c, 3, 38, 84
11, 224624, Note_on_c, 3, 38, 0
11, 224640, Note_on_c, 3, 31, 84
11, 225584, Note_on_c, 3, 31, 0
11, 225600, Note_on_c, 3, 31, 84
11, 226544, Note_on_c, 3, 31, 0
11, 226560, Note_on_c, 3, 31, 84
11, 227504, Note_on_c, 3, 31, 0
11, 227520, Note_on_c, 3, 31, 84
11, 227759, Note_on_c, 3, 31, 0
11, 266400, Note_on_c, 3, 36, 84
11, 266639, Note_on_c, 3, 36, 0
11, 266880, Note_on_c, 3, 36, 84
11, 267119, Note_on_c, 3, 36, 0
11, 267360, Note_on_c, 3, 36, 84
11, 268064, Note_on_c, 3, 36, 0
11, 268080, Note_on_c, 3, 31, 84
11, 268199, Note_on_c, 3, 31, 0
11, 268320, Note_on_c, 3, 36, 84
11, 268439, Note_on_c, 3, 36, 0
11, 268560, Note_on_c, 3, 31, 84
11, 268679, Note_on_c, 3, 31, 0
11, 268800, Note_on_c, 3, 36, 84
11, 268919, Note_on_c, 3, 36, 0
11, 269040, Note_on_c, 3, 31, 84
11, 269159, Note_on_c, 3, 31, 0
11, 269280, Note_on_c, 3, 36, 84
11, 269984, Note_on_c, 3, 36, 0
11, 270000, Note_on_c, 3, 36, 84
11, 270171, Note_on_c, 3, 36, 0
11, 270180, Note_on_c, 3, 36, 84
11, 270231, Note_on_c, 3, 36, 0
11, 270240, Note_on_c, 3, 31, 84
11, 270944, Note_on_c, 3, 31, 0
11, 270960, Note_on_c, 3, 31, 84
11, 271131, Note_on_c, 3, 31, 0
11, 271140, Note_on_c, 3, 31, 84
11, 271191, Note_on_c, 3, 31, 0
11, 271200, Note_on_c, 3, 36, 84
11, 272144, Note_on_c, 3, 36, 0
11, 272160, Note_on_c, 3, 33, 84
11, 272624, Note_on_c, 3, 33, 0
11, 272640, Note_on_c, 3, 29, 84
11, 273104, Note_on_c, 3, 29, 0
11, 273120, Note_on_c, 3, 28, 84
11, 273224, Note_on_c, 3, 28, 0
11, 273240, Note_on_c, 3, 29, 84
11, 273344, Note_on_c, 3, 29, 0
11, 273360, Note_on_c, 3, 28, 84
11, 273464, Note_on_c, 3, 28, 0
11, 273480, Note_on_c, 3, 26, 84
11, 273584, Note_on_c, 3, 26, 0
11, 273600, Note_on_c, 3, 24, 84
11, 274064, Note_on_c, 3, 24, 0
11, 274080, Note_on_c, 3, 33, 84
11, 274544, Note_on_c, 3, 33, 0
11, 274560, Note_on_c, 3, 29, 84
11, 275024, Note_on_c, 3, 29, 0
11, 275040, Note_on_c, 3, 28, 84
11, 275144, Note_on_c, 3, 28, 0
11, 275160, Note_on_c, 3, 29, 84
11, 275264, Note_on_c, 3, 29, 0
11, 275280, Note_on_c, 3, 28, 84
11, 275384, Note_on_c, 3, 28, 0
11, 275400, Note_on_c, 3, 26, 84
11, 275504, Note_on_c, 3, 26, 0
11, 275520, Note_on_c, 3, 24, 84
11, 275984, Note_on_c, 3, 24, 0
11, 276000, Note_on_c, 3, 33, 84
11, 276464, Note_on_c, 3, 33, 0
11, 276480, Note_on_c, 3, 29, 84
11, 276944, Note_on_c, 3, 29, 0
11, 276960, Note_on_c, 3, 28, 84
11, 277064, Note_on_c, 3, 28, 0
11, 277080, Note_on_c, 3, 29, 84
11, 277184, Note_on_c, 3, 29, 0
11, 277200, Note_on_c, 3, 28, 84
11, 277304, Note_on_c, 3, 28, 0
11, 277320, Note_on_c, 3, 26, 84
11, 277424, Note_on_c, 3, 26, 0
11, 277440, Note_on_c, 3, 24, 84
11, 277664, Note_on_c, 3, 24, 0
11, 277680, Note_on_c, 3, 36, 84
11, 277851, Note_on_c, 3, 36, 0
11, 277860, Note_on_c, 3, 36, 84
11, 277911, Note_on_c, 3, 36, 0
11, 277920, Note_on_c, 3, 35, 84
11, 278384, Note_on_c, 3, 35, 0
11, 278400, Note_on_c, 3, 36, 84
11, 278864, Note_on_c, 3, 36, 0
11, 278880, Note_on_c, 3, 31, 84
11, 279104, Note_on_c, 3, 31, 0
11, 279120, Note_on_c, 3, 31, 84
11, 279584, Note_on_c, 3, 31, 0
11, 279600, Note_on_c, 3, 36, 84
11, 279771, Note_on_c, 3, 36, 0
11, 279780, Note_on_c, 3, 36, 84
11, 279831, Note_on_c, 3, 36, 0
11, 279840, Note_on_c, 3, 35, 84
11, 280304, Note_on_c, 3, 35, 0
11, 280320, Note_on_c, 3, 36, 84
11, 280784, Note_on_c, 3, 36, 0
11, 280800, Note_on_c, 3, 31, 84
11, 281024, Note_on_c, 3, 31, 0
11, 281040, Note_on_c, 3, 31, 84
11, 281504, Note_on_c, 3, 31, 0
11, 281520, Note_on_c, 3, 36, 84
11, 281691, Note_on_c, 3, 36, 0
11, 281700, Note_on_c, 3, 36, 84
11, 281751, Note_on_c, 3, 36, 0
11, 281760, Note_on_c, 3, 35, 84
11, 281931, Note_on_c, 3, 35, 0
11, 281940, Note_on_c, 3, 35, 84
11, 281991, Note_on_c, 3, 35, 0
11, 282000, Note_on_c, 3, 31, 84
11, 282171, Note_on_c, 3, 31, 0
11, 282180, Note_on_c, 3, 31, 84
11, 282231, Note_on_c, 3, 31, 0
11, 282240, Note_on_c, 3, 36, 84
11, 282411, Note_on_c, 3, 36, 0
11, 282420, Note_on_c, 3, 36, 84
11, 282471, Note_on_c, 3, 36, 0
11, 282480, Note_on_c, 3, 40, 84
11, 282651, Note_on_c, 3, 40, 0
11, 282660, Note_on_c, 3, 40, 84
11, 282711, Note_on_c, 3, 40, 0
11, 282720, Note_on_c, 3, 43, 84
11, 282824, Note_on_c, 3, 43, 0
11, 282840, Note_on_c, 3, 31, 84
11, 282944, Note_on_c, 3, 31, 0
11, 282960, Note_on_c, 3, 31, 84
11, 283199, Note_on_c, 3, 31, 0
11, 283800, Note_on_c, 3, 31, 84
11, 283904, Note_on_c, 3, 31, 0
11, 283920, Note_on_c, 3, 31, 84
11, 284159, Note_on_c, 3, 31, 0
11, 284760, Note_on_c, 3, 31, 84
11, 284864, Note_on_c, 3, 31, 0
11, 284880, Note_on_c, 3, 31, 84
11, 285119, Note_on_c, 3, 31, 0
11, 285240, Note_on_c, 3, 31, 84
11, 285344, Note_on_c, 3, 31, 0
11, 285360, Note_on_c, 3, 31, 84
11, 285599, Note_on_c, 3, 31, 0
11, 285720, Note_on_c, 3, 31, 84
11, 285824, Note_on_c, 3, 31, 0
11, 285840, Note_on_c, 3, 31, 84
11, 286079, Note_on_c, 3, 31, 0
11, 286200, Note_on_c, 3, 31, 84
11, 286304, Note_on_c, 3, 31, 0
11, 286320, Note_on_c, 3, 31, 84
11, 286544, Note_on_c, 3, 31, 0
11, 286560, Note_on_c, 3, 31, 84
11, 286799, Note_on_c, 3, 31, 0
11, 289560, Note_on_c, 3, 48, 92
11, 289679, Note_on_c, 3, 48, 0
11, 289680, Note_on_c, 3, 47, 84
11, 289784, Note_on_c, 3, 47, 0
11, 289800, Note_on_c, 3, 45, 84
11, 289889, Note_on_c, 3, 45, 0
11, 289920, Note_on_c, 3, 43, 84
11, 290009, Note_on_c, 3, 43, 0
11, 290040, Note_on_c, 3, 41, 84
11, 290129, Note_on_c, 3, 41, 0
11, 290160, Note_on_c, 3, 40, 84
11, 290249, Note_on_c, 3, 40, 0
11, 290280, Note_on_c, 3, 38, 84
11, 290369, Note_on_c, 3, 38, 0
11, 290400, Note_on_c, 3, 36, 84
11, 290639, Note_on_c, 3, 36, 0
11, 292320, Note_on_c, 3, 31, 84
11, 292904, Note_on_c, 3, 31, 0
11, 292920, Note_on_c, 3, 31, 84
11, 293009, Note_on_c, 3, 31, 0
11, 293040, Note_on_c, 3, 35, 84
11, 293129, Note_on_c, 3, 35, 0
11, 293160, Note_on_c, 3, 38, 84
11, 293249, Note_on_c, 3, 38, 0
11, 293280, Note_on_c, 3, 41, 84
11, 293369, Note_on_c, 3, 41, 0
11, 293400, Note_on_c, 3, 43, 84
11, 293489, Note_on_c, 3, 43, 0
11, 293520, Note_on_c, 3, 47, 84
11, 293609, Note_on_c, 3, 47, 0
11, 293640, Note_on_c, 3, 50, 84
11, 293729, Note_on_c, 3, 50, 0
11, 293760, Note_on_c, 3, 53, 84
11, 293849, Note_on_c, 3, 53, 0
11, 293880, Note_on_c, 3, 55, 84
11, 293969, Note_on_c, 3, 55, 0
11, 294000, Note_on_c, 3, 53, 84
11, 294089, Note_on_c, 3, 53, 0
11, 294120, Note_on_c, 3, 50, 84
11, 294209, Note_on_c, 3, 50, 0
11, 294240, Note_on_c, 3, 47, 84
11, 294344, Note_on_c, 3, 47, 0
11, 294360, Note_on_c, 3, 50, 84
11, 294464, Note_on_c, 3, 50, 0
11, 294480, Note_on_c, 3, 47, 84
11, 294584, Note_on_c, 3, 47, 0
11, 294600, Note_on_c, 3, 43, 84
11, 294704, Note_on_c, 3, 43, 0
11, 294720, Note_on_c, 3, 41, 84
11, 294824, Note_on_c, 3, 41, 0
11, 294840, Note_on_c, 3, 38, 84
11, 294944, Note_on_c, 3, 38, 0
11, 294960, Note_on_c, 3, 35, 84
11, 295064, Note_on_c, 3, 35, 0
11, 295080, Note_on_c, 3, 38, 84
11, 295184, Note_on_c, 3, 38, 0
11, 295200, Note_on_c, 3, 31, 84
11, 295439, Note_on_c, 3, 31, 0
11, 296160, Note_on_c, 3, 24, 84
11, 296744, Note_on_c, 3, 24, 0
11, 296760, Note_on_c, 3, 24, 84
11, 296864, Note_on_c, 3, 24, 0
11, 296880, Note_on_c, 3, 28, 84
11, 296984, Note_on_c, 3, 28, 0
11, 297000, Note_on_c, 3, 31, 84
11, 297104, Note_on_c, 3, 31, 0
11, 297120, Note_on_c, 3, 36, 84
11, 297224, Note_on_c, 3, 36, 0
11, 297240, Note_on_c, 3, 40, 84
11, 297344, Note_on_c, 3, 40, 0
11, 297360, Note_on_c, 3, 43, 84
11, 297464, Note_on_c, 3, 43, 0
11, 297480, Note_on_c, 3, 48, 84
11, 297584, Note_on_c, 3, 48, 0
11, 297600, Note_on_c, 3, 52, 84
11, 297704, Note_on_c, 3, 52, 0
11, 297720, Note_on_c, 3, 48, 84
11, 297824, Note_on_c, 3, 48, 0
11, 297840, Note_on_c, 3, 43, 84
11, 297944, Note_on_c, 3, 43, 0
11, 297960, Note_on_c, 3, 40, 84
11, 298064, Note_on_c, 3, 40, 0
11, 298080, Note_on_c, 3, 34, 84
11, 298184, Note_on_c, 3, 34, 0
11, 298200, Note_on_c, 3, 33, 84
11, 298304, Note_on_c, 3, 33, 0
11, 298320, Note_on_c, 3, 34, 84
11, 298424, Note_on_c, 3, 34, 0
11, 298440, Note_on_c, 3, 34, 84
11, 298544, Note_on_c, 3, 34, 0
11, 298560, Note_on_c, 3, 34, 84
11, 299144, Note_on_c, 3, 34, 0
11, 299160, Note_on_c, 3, 33, 84
11, 299264, Note_on_c, 3, 33, 0
11, 299280, Note_on_c, 3, 34, 84
11, 299384, Note_on_c, 3, 34, 0
11, 299400, Note_on_c, 3, 34, 84
11, 299504, Note_on_c, 3, 34, 0
11, 299520, Note_on_c, 3, 34, 84
11, 299984, Note_on_c, 3, 34, 0
11, 300000, Note_on_c, 3, 33, 84
11, 300104, Note_on_c, 3, 33, 0
11, 300120, Note_on_c, 3, 32, 84
11, 300224, Note_on_c, 3, 32, 0
11, 300240, Note_on_c, 3, 33, 84
11, 300344, Note_on_c, 3, 33, 0
11, 300360, Note_on_c, 3, 33, 84
11, 300464, Note_on_c, 3, 33, 0
11, 300480, Note_on_c, 3, 33, 84
11, 301064, Note_on_c, 3, 33, 0
11, 301080, Note_on_c, 3, 32, 84
11, 301184, Note_on_c, 3, 32, 0
11, 301200, Note_on_c, 3, 33, 84
11, 301304, Note_on_c, 3, 33, 0
11, 301320, Note_on_c, 3, 33, 84
11, 301424, Note_on_c, 3, 33, 0
11, 301440, Note_on_c, 3, 33, 84
11, 301904, Note_on_c, 3, 33, 0
11, 301920, Note_on_c, 3, 35, 84
11, 302624, Note_on_c, 3, 35, 0
11, 302640, Note_on_c, 3, 31, 84
11, 302879, Note_on_c, 3, 31, 0
11, 302880, Note_on_c, 3, 35, 84
11, 303119, Note_on_c, 3, 35, 0
11, 303120, Note_on_c, 3, 31, 84
11, 303359, Note_on_c, 3, 31, 0
11, 303360, Note_on_c, 3, 38, 84
11, 303599, Note_on_c, 3, 38, 0
11, 303600, Note_on_c, 3, 36, 84
11, 303779, Note_on_c, 3, 36, 0
11, 303780, Note_on_c, 3, 35, 84
11, 303831, Note_on_c, 3, 35, 0
11, 303840, Note_on_c, 3, 36, 84
11, 304544, Note_on_c, 3, 36, 0
11, 304560, Note_on_c, 3, 31, 84
11, 304799, Note_on_c, 3, 31, 0
11, 304800, Note_on_c, 3, 36, 84
11, 305039, Note_on_c, 3, 36, 0
11, 305040, Note_on_c, 3, 31, 84
11, 305279, Note_on_c, 3, 31, 0
11, 305280, Note_on_c, 3, 40, 84
11, 305519, Note_on_c, 3, 40, 0
11, 305520, Note_on_c, 3, 38, 84
11, 305699, Note_on_c, 3, 38, 0
11, 305700, Note_on_c, 3, 36, 84
11, 305751, Note_on_c, 3, 36, 0
11, 305760, Note_on_c, 3, 35, 84
11, 306104, Note_on_c, 3, 35, 0
11, 306120, Note_on_c, 3, 31, 84
11, 306224, Note_on_c, 3, 31, 0
11, 306240, Note_on_c, 3, 38, 84
11, 306599, Note_on_c, 3, 38, 0
11, 306600, Note_on_c, 3, 36, 84
11, 306659, Note_on_c, 3, 36, 0
11, 306660, Note_on_c, 3, 35, 84
11, 306711, Note_on_c, 3, 35, 0
11, 306720, Note_on_c, 3, 36, 84
11, 307064, Note_on_c, 3, 36, 0
11, 307080, Note_on_c, 3, 31, 84
11, 307184, Note_on_c, 3, 31, 0
11, 307200, Note_on_c, 3, 40, 84
11, 307559, Note_on_c, 3, 40, 0
11, 307560, Note_on_c, 3, 38, 84
11, 307619, Note_on_c, 3, 38, 0
11, 307620, Note_on_c, 3, 36, 84
11, 307671, Note_on_c, 3, 36, 0
11, 307680, Note_on_c, 3, 43, 84
11, 307769, Note_on_c, 3, 43, 0
11, 307800, Note_on_c, 3, 55, 84
11, 307919, Note_on_c, 3, 55, 0
11, 307920, Note_on_c, 3, 53, 84
11, 308024, Note_on_c, 3, 53, 0
11, 308040, Note_on_c, 3, 52, 84
11, 308129, Note_on_c, 3, 52, 0
11, 308160, Note_on_c, 3, 50, 84
11, 308249, Note_on_c, 3, 50, 0
11, 308280, Note_on_c, 3, 52, 84
11, 308399, Note_on_c, 3, 52, 0
11, 308400, Note_on_c, 3, 50, 84
11, 308504, Note_on_c, 3, 50, 0
11, 308520, Note_on_c, 3, 48, 84
11, 308609, Note_on_c, 3, 48, 0
11, 308640, Note_on_c, 3, 47, 84
11, 308729, Note_on_c, 3, 47, 0
11, 308760, Note_on_c, 3, 48, 84
11, 308879, Note_on_c, 3, 48, 0
11, 308880, Note_on_c, 3, 47, 84
11, 308984, Note_on_c, 3, 47, 0
11, 309000, Note_on_c, 3, 45, 84
11, 309089, Note_on_c, 3, 45, 0
11, 309120, Note_on_c, 3, 43, 84
11, 309209, Note_on_c, 3, 43, 0
11, 309240, Note_on_c, 3, 43, 84
11, 309359, Note_on_c, 3, 43, 0
11, 309360, Note_on_c, 3, 45, 84
11, 309464, Note_on_c, 3, 45, 0
11, 309480, Note_on_c, 3, 38, 84
11, 309569, Note_on_c, 3, 38, 0
11, 309600, Note_on_c, 3, 43, 84
11, 309839, Note_on_c, 3, 43, 0
11, 310680, Note_on_c, 3, 43, 84
11, 310799, Note_on_c, 3, 43, 0
11, 310800, Note_on_c, 3, 41, 84
11, 310904, Note_on_c, 3, 41, 0
11, 310920, Note_on_c, 3, 50, 84
11, 311009, Note_on_c, 3, 50, 0
11, 311040, Note_on_c, 3, 41, 84
11, 311129, Note_on_c, 3, 41, 0
11, 311160, Note_on_c, 3, 40, 84
11, 311279, Note_on_c, 3, 40, 0
11, 311280, Note_on_c, 3, 38, 84
11, 311384, Note_on_c, 3, 38, 0
11, 311400, Note_on_c, 3, 47, 84
11, 311489, Note_on_c, 3, 47, 0
11, 311520, Note_on_c, 3, 36, 84
11, 311759, Note_on_c, 3, 36, 0
11, 312000, Note_on_c, 3, 36, 84
11, 312239, Note_on_c, 3, 36, 0
11, 312480, Note_on_c, 3, 36, 84
11, 312704, Note_on_c, 3, 36, 0
11, 312720, Note_on_c, 3, 31, 84
11, 312787, Note_on_c, 3, 31, 0
11, 312800, Note_on_c, 3, 33, 84
11, 312867, Note_on_c, 3, 33, 0
11, 312880, Note_on_c, 3, 35, 84
11, 312947, Note_on_c, 3, 35, 0
11, 312960, Note_on_c, 3, 36, 84
11, 313199, Note_on_c, 3, 36, 0
11, 314400, Control_c, 3, 11, 80
11, 314640, Note_on_c, 3, 47, 76
11, 314640, Control_c, 3, 11, 80
11, 314693, Control_c, 3, 11, 85
11, 314719, Note_on_c, 3, 47, 0
11, 314720, Note_on_c, 3, 48, 76
11, 314747, Control_c, 3, 11, 90
11, 314799, Note_on_c, 3, 48, 0
11, 314800, Control_c, 3, 11, 96
11, 314800, Note_on_c, 3, 50, 76
11, 314853, Control_c, 3, 11, 101
11, 314867, Note_on_c, 3, 50, 0
11, 314880, Note_on_c, 3, 43, 76
11, 314907, Control_c, 3, 11, 106
11, 314960, Control_c, 3, 11, 111
11, 315013, Control_c, 3, 11, 117
11, 315067, Control_c, 3, 11, 127
11, 315104, Note_on_c, 3, 43, 0
11, 315120, Note_on_c, 3, 41, 76
11, 315187, Note_on_c, 3, 41, 0
11, 315200, Note_on_c, 3, 40, 76
11, 315267, Note_on_c, 3, 40, 0
11, 315280, Note_on_c, 3, 38, 76
11, 315347, Note_on_c, 3, 38, 0
11, 315360, Note_on_c, 3, 36, 76
11, 315599, Note_on_c, 3, 36, 0
11, 315840, Note_on_c, 3, 36, 76
11, 316079, Note_on_c, 3, 36, 0
11, 316320, Note_on_c, 3, 36, 76
11, 316544, Note_on_c, 3, 36, 0
11, 316560, Note_on_c, 3, 31, 76
11, 316627, Note_on_c, 3, 31, 0
11, 316640, Note_on_c, 3, 33, 76
11, 316707, Note_on_c, 3, 33, 0
11, 316720, Note_on_c, 3, 35, 76
11, 316787, Note_on_c, 3, 35, 0
11, 316800, Note_on_c, 3, 36, 76
11, 317039, Note_on_c, 3, 36, 0
11, 318480, Note_on_c, 3, 31, 76
11, 318547, Note_on_c, 3, 31, 0
11, 318560, Note_on_c, 3, 33, 76
11, 318627, Note_on_c, 3, 33, 0
11, 318640, Note_on_c, 3, 35, 76
11, 318707, Note_on_c, 3, 35, 0
11, 318720, Note_on_c, 3, 36, 76
11, 318959, Note_on_c, 3, 36, 0
11, 320400, Note_on_c, 3, 33, 76
11, 320467, Note_on_c, 3, 33, 0
11, 320480, Note_on_c, 3, 35, 76
11, 320547, Note_on_c, 3, 35, 0
11, 320560, Note_on_c, 3, 37, 76
11, 320627, Note_on_c, 3, 37, 0
11, 320640, Note_on_c, 3, 38, 76
11, 320879, Note_on_c, 3, 38, 0
11, 324000, Note_on_c, 3, 41, 84
11, 324479, Note_on_c, 3, 41, 0
11, 324480, Note_on_c, 3, 41, 84
11, 324584, Note_on_c, 3, 41, 0
11, 324600, Note_on_c, 3, 41, 84
11, 324704, Note_on_c, 3, 41, 0
11, 324720, Note_on_c, 3, 41, 84
11, 324824, Note_on_c, 3, 41, 0
11, 324840, Note_on_c, 3, 41, 84
11, 324944, Note_on_c, 3, 41, 0
11, 324960, Note_on_c, 3, 41, 84
11, 325064, Note_on_c, 3, 41, 0
11, 325080, Note_on_c, 3, 41, 84
11, 325184, Note_on_c, 3, 41, 0
11, 325200, Note_on_c, 3, 41, 84
11, 325304, Note_on_c, 3, 41, 0
11, 325320, Note_on_c, 3, 41, 84
11, 325424, Note_on_c, 3, 41, 0
11, 325440, Note_on_c, 3, 41, 84
11, 325544, Note_on_c, 3, 41, 0
11, 325560, Note_on_c, 3, 41, 84
11, 325664, Note_on_c, 3, 41, 0
11, 325680, Note_on_c, 3, 41, 84
11, 325784, Note_on_c, 3, 41, 0
11, 325800, Note_on_c, 3, 41, 84
11, 325904, Note_on_c, 3, 41, 0
11, 325920, Note_on_c, 3, 41, 84
11, 326024, Note_on_c, 3, 41, 0
11, 326040, Note_on_c, 3, 41, 84
11, 326144, Note_on_c, 3, 41, 0
11, 326160, Note_on_c, 3, 42, 84
11, 326264, Note_on_c, 3, 42, 0
11, 326280, Note_on_c, 3, 42, 84
11, 326384, Note_on_c, 3, 42, 0
11, 326400, Note_on_c, 3, 43, 84
11, 326504, Note_on_c, 3, 43, 0
11, 326520, Note_on_c, 3, 43, 84
11, 326624, Note_on_c, 3, 43, 0
11, 326640, Note_on_c, 3, 44, 84
11, 326744, Note_on_c, 3, 44, 0
11, 326760, Note_on_c, 3, 44, 84
11, 326864, Note_on_c, 3, 44, 0
11, 326880, Note_on_c, 3, 45, 84
11, 326984, Note_on_c, 3, 45, 0
11, 327000, Note_on_c, 3, 45, 84
11, 327104, Note_on_c, 3, 45, 0
11, 327120, Note_on_c, 3, 47, 84
11, 327224, Note_on_c, 3, 47, 0
11, 327240, Note_on_c, 3, 47, 84
11, 327344, Note_on_c, 3, 47, 0
11, 327360, Note_on_c, 3, 48, 84
11, 327464, Note_on_c, 3, 48, 0
11, 327480, Note_on_c, 3, 36, 84
11, 327584, Note_on_c, 3, 36, 0
11, 327600, Note_on_c, 3, 38, 84
11, 327704, Note_on_c, 3, 38, 0
11, 327720, Note_on_c, 3, 40, 84
11, 327824, Note_on_c, 3, 40, 0
11, 327840, Note_on_c, 3, 41, 84
11, 328019, Note_on_c, 3, 41, 0
11, 328800, Note_on_c, 3, 43, 84
11, 328979, Note_on_c, 3, 43, 0
11, 337440, Note_on_c, 3, 40, 76
11, 338144, Note_on_c, 3, 40, 0
11, 338160, Note_on_c, 3, 38, 76
11, 338384, Note_on_c, 3, 38, 0
11, 338400, Note_on_c, 3, 36, 76
11, 338624, Note_on_c, 3, 36, 0
11, 338640, Note_on_c, 3, 35, 76
11, 338864, Note_on_c, 3, 35, 0
11, 338880, Note_on_c, 3, 35, 76
11, 339104, Note_on_c, 3, 35, 0
11, 339120, Note_on_c, 3, 35, 76
11, 339344, Note_on_c, 3, 35, 0
11, 339360, Note_on_c, 3, 40, 84
11, 340064, Note_on_c, 3, 40, 0
11, 340080, Note_on_c, 3, 38, 84
11, 340304, Note_on_c, 3, 38, 0
11, 340320, Note_on_c, 3, 36, 84
11, 340544, Note_on_c, 3, 36, 0
11, 340560, Note_on_c, 3, 35, 84
11, 340784, Note_on_c, 3, 35, 0
11, 340800, Note_on_c, 3, 35, 84
11, 341024, Note_on_c, 3, 35, 0
11, 341040, Note_on_c, 3, 35, 84
11, 341264, Note_on_c, 3, 35, 0
11, 341280, Note_on_c, 3, 35, 84
11, 341984, Note_on_c, 3, 35, 0
11, 342000, Note_on_c, 3, 36, 84
11, 342224, Note_on_c, 3, 36, 0
11, 342240, Note_on_c, 3, 29, 76
11, 342464, Note_on_c, 3, 29, 0
11, 342480, Note_on_c, 3, 28, 80
11, 342704, Note_on_c, 3, 28, 0
11, 342720, Note_on_c, 3, 28, 80
11, 342944, Note_on_c, 3, 28, 0
11, 342960, Note_on_c, 3, 28, 80
11, 343184, Note_on_c, 3, 28, 0
11, 343200, Note_on_c, 3, 28, 80
11, 343424, Note_on_c, 3, 28, 0
11, 343440, Note_on_c, 3, 28, 80
11, 343664, Note_on_c, 3, 28, 0
11, 343680, Note_on_c, 3, 28, 80
11, 343904, Note_on_c, 3, 28, 0
11, 343920, Note_on_c, 3, 28, 80
11, 344144, Note_on_c, 3, 28, 0
11, 344160, Note_on_c, 3, 28, 80
11, 344384, Note_on_c, 3, 28, 0
11, 344400, Note_on_c, 3, 28, 80
11, 344624, Note_on_c, 3, 28, 0
11, 344640, Note_on_c, 3, 28, 80
11, 344864, Note_on_c, 3, 28, 0
11, 344880, Note_on_c, 3, 28, 80
11, 345104, Note_on_c, 3, 28, 0
11, 345120, Note_on_c, 3, 29, 84
11, 347984, Note_on_c, 3, 29, 0
11, 348000, Note_on_c, 3, 30, 84
11, 349904, Note_on_c, 3, 30, 0
11, 349920, Note_on_c, 3, 31, 92
11, 350880, Control_c, 3, 11, 96
11, 351824, Note_on_c, 3, 31, 0
11, 351838, Control_c, 3, 11, 127
11, 351840, Note_on_c, 3, 31, 84
11, 351960, Control_c, 3, 11, 112
11, 353744, Note_on_c, 3, 31, 0
11, 353758, Control_c, 3, 11, 127
11, 353760, Note_on_c, 3, 31, 84
11, 353880, Control_c, 3, 11, 112
11, 355664, Note_on_c, 3, 31, 0
11, 355678, Control_c, 3, 11, 127
11, 355680, Note_on_c, 3, 31, 84
11, 355799, Note_on_c, 3, 31, 0
11, 355800, Note_on_c, 3, 31, 76
11, 357584, Note_on_c, 3, 31, 0
11, 357600, Note_on_c, 3, 31, 76
11, 358304, Note_on_c, 3, 31, 0
11, 358320, Note_on_c, 3, 36, 80
11, 358544, Note_on_c, 3, 36, 0
11, 358560, Note_on_c, 3, 31, 80
11, 359024, Note_on_c, 3, 31, 0
11, 359040, Note_on_c, 3, 36, 80
11, 359504, Note_on_c, 3, 36, 0
11, 359520, Note_on_c, 3, 38, 80
11, 360224, Note_on_c, 3, 38, 0
11, 360240, Note_on_c, 3, 38, 80
11, 360464, Note_on_c, 3, 38, 0
11, 360480, Note_on_c, 3, 37, 80
11, 360944, Note_on_c, 3, 37, 0
11, 360960, Note_on_c, 3, 38, 80
11, 361424, Note_on_c, 3, 38, 0
11, 361440, Note_on_c, 3, 40, 84
11, 363344, Note_on_c, 3, 40, 0
11, 363360, Note_on_c, 3, 41, 84
11, 363464, Note_on_c, 3, 41, 0
11, 363480, Note_on_c, 3, 29, 84
11, 363584, Note_on_c, 3, 29, 0
11, 363600, Note_on_c, 3, 29, 84
11, 363704, Note_on_c, 3, 29, 0
11, 363720, Note_on_c, 3, 29, 84
11, 363824, Note_on_c, 3, 29, 0
11, 363840, Note_on_c, 3, 29, 84
11, 363944, Note_on_c, 3, 29, 0
11, 363960, Note_on_c, 3, 29, 84
11, 364064, Note_on_c, 3, 29, 0
11, 364080, Note_on_c, 3, 29, 84
11, 364184, Note_on_c, 3, 29, 0
11, 364200, Note_on_c, 3, 29, 84
11, 364304, Note_on_c, 3, 29, 0
11, 364320, Note_on_c, 3, 29, 84
11, 364424, Note_on_c, 3, 29, 0
11, 364440, Note_on_c, 3, 29, 84
11, 364544, Note_on_c, 3, 29, 0
11, 364560, Note_on_c, 3, 29, 84
11, 364664, Note_on_c, 3, 29, 0
11, 364680, Note_on_c, 3, 29, 84
11, 364784, Note_on_c, 3, 29, 0
11, 364800, Note_on_c, 3, 29, 84
11, 364904, Note_on_c, 3, 29, 0
11, 364920, Note_on_c, 3, 29, 84
11, 365024, Note_on_c, 3, 29, 0
11, 365040, Note_on_c, 3, 29, 84
11, 365144, Note_on_c, 3, 29, 0
11, 365160, Note_on_c, 3, 29, 84
11, 365264, Note_on_c, 3, 29, 0
11, 365280, Note_on_c, 3, 29, 84
11, 365384, Note_on_c, 3, 29, 0
11, 365400, Note_on_c, 3, 29, 84
11, 365504, Note_on_c, 3, 29, 0
11, 365520, Note_on_c, 3, 29, 84
11, 365624, Note_on_c, 3, 29, 0
11, 365640, Note_on_c, 3, 29, 84
11, 365744, Note_on_c, 3, 29, 0
11, 365760, Note_on_c, 3, 29, 84
11, 365864, Note_on_c, 3, 29, 0
11, 365880, Note_on_c, 3, 29, 84
11, 365984, Note_on_c, 3, 29, 0
11, 366000, Note_on_c, 3, 29, 84
11, 366104, Note_on_c, 3, 29, 0
11, 366120, Note_on_c, 3, 29, 84
11, 366224, Note_on_c, 3, 29, 0
11, 366240, Note_on_c, 3, 29, 84
11, 366344, Note_on_c, 3, 29, 0
11, 366360, Note_on_c, 3, 29, 84
11, 366464, Note_on_c, 3, 29, 0
11, 366480, Note_on_c, 3, 29, 84
11, 366584, Note_on_c, 3, 29, 0
11, 366600, Note_on_c, 3, 29, 84
11, 366704, Note_on_c, 3, 29, 0
11, 366720, Note_on_c, 3, 29, 84
11, 366824, Note_on_c, 3, 29, 0
11, 366840, Note_on_c, 3, 29, 84
11, 366944, Note_on_c, 3, 29, 0
11, 366960, Note_on_c, 3, 29, 84
11, 367064, Note_on_c, 3, 29, 0
11, 367080, Note_on_c, 3, 29, 84
11, 367184, Note_on_c, 3, 29, 0
11, 367200, Note_on_c, 3, 31, 84
11, 367379, Note_on_c, 3, 31, 0
11, 368160, Note_on_c, 3, 31, 84
11, 368339, Note_on_c, 3, 31, 0
11, 369120, Note_on_c, 3, 36, 84
11, 369299, Note_on_c, 3, 36, 0
11, 370080, Note_on_c, 3, 31, 84
11, 370259, Note_on_c, 3, 31, 0
11, 371040, Note_on_c, 3, 36, 84
11, 371219, Note_on_c, 3, 36, 0
11, 372000, Note_on_c, 3, 31, 84
11, 372179, Note_on_c, 3, 31, 0
11, 381600, Note_on_c, 3, 28, 76
11, 381824, Note_on_c, 3, 28, 0
11, 381840, Note_on_c, 3, 38, 76
11, 382079, Note_on_c, 3, 38, 0
11, 382080, Note_on_c, 3, 36, 76
11, 382319, Note_on_c, 3, 36, 0
11, 382320, Note_on_c, 3, 35, 76
11, 382559, Note_on_c, 3, 35, 0
11, 382560, Note_on_c, 3, 33, 76
11, 382799, Note_on_c, 3, 33, 0
11, 382800, Note_on_c, 3, 31, 76
11, 383039, Note_on_c, 3, 31, 0
11, 383040, Note_on_c, 3, 29, 76
11, 383279, Note_on_c, 3, 29, 0
11, 383280, Note_on_c, 3, 28, 76
11, 383504, Note_on_c, 3, 28, 0
11, 383520, Note_on_c, 3, 29, 76
11, 384224, Note_on_c, 3, 29, 0
11, 384240, Note_on_c, 3, 31, 76
11, 384419, Note_on_c, 3, 31, 0
11, 384480, Note_on_c, 3, 33, 76
11, 385184, Note_on_c, 3, 33, 0
11, 385200, Note_on_c, 3, 31, 76
11, 385379, Note_on_c, 3, 31, 0
11, 385440, Note_on_c, 3, 30, 76
11, 386144, Note_on_c, 3, 30, 0
11, 386160, Note_on_c, 3, 31, 76
11, 386339, Note_on_c, 3, 31, 0
11, 386400, Note_on_c, 3, 32, 76
11, 387104, Note_on_c, 3, 32, 0
11, 387120, Note_on_c, 3, 33, 76
11, 387299, Note_on_c, 3, 33, 0
11, 387360, Note_on_c, 3, 35, 76
11, 387599, Note_on_c, 3, 35, 0
11, 387840, Note_on_c, 3, 36, 52
11, 388079, Note_on_c, 3, 36, 0
11, 388320, Note_on_c, 3, 29, 52
11, 388559, Note_on_c, 3, 29, 0
11, 388800, Note_on_c, 3, 31, 52
11, 389024, Note_on_c, 3, 31, 0
11, 389040, Note_on_c, 3, 31, 76
11, 389279, Note_on_c, 3, 31, 0
11, 389280, Note_on_c, 3, 36, 76
11, 389519, Note_on_c, 3, 36, 0
11, 389520, Note_on_c, 3, 31, 76
11, 389759, Note_on_c, 3, 31, 0
11, 389760, Note_on_c, 3, 40, 76
11, 389999, Note_on_c, 3, 40, 0
11, 390000, Note_on_c, 3, 38, 76
11, 390179, Note_on_c, 3, 38, 0
11, 390180, Note_on_c, 3, 36, 76
11, 390231, Note_on_c, 3, 36, 0
11, 390240, Note_on_c, 3, 43, 76
11, 390959, Note_on_c, 3, 43, 0
11, 397920, Note_on_c, 3, 28, 76
11, 398144, Note_on_c, 3, 28, 0
11, 398160, Note_on_c, 3, 38, 76
11, 398399, Note_on_c, 3, 38, 0
11, 398400, Note_on_c, 3, 36, 76
11, 398639, Note_on_c, 3, 36, 0
11, 398640, Note_on_c, 3, 35, 76
11, 398879, Note_on_c, 3, 35, 0
11, 398880, Note_on_c, 3, 33, 76
11, 399119, Note_on_c, 3, 33, 0
11, 399120, Note_on_c, 3, 31, 76
11, 399359, Note_on_c, 3, 31, 0
11, 399360, Note_on_c, 3, 29, 76
11, 399599, Note_on_c, 3, 29, 0
11, 399600, Note_on_c, 3, 28, 76
11, 399824, Note_on_c, 3, 28, 0
11, 399840, Note_on_c, 3, 29, 76
11, 400559, Note_on_c, 3, 29, 0
11, 400560, Note_on_c, 3, 31, 76
11, 400739, Note_on_c, 3, 31, 0
11, 400800, Note_on_c, 3, 33, 76
11, 401519, Note_on_c, 3, 33, 0
11, 401520, Note_on_c, 3, 31, 76
11, 401699, Note_on_c, 3, 31, 0
11, 401760, Note_on_c, 3, 30, 76
11, 402479, Note_on_c, 3, 30, 0
11, 402480, Note_on_c, 3, 31, 76
11, 402659, Note_on_c, 3, 31, 0
11, 402720, Note_on_c, 3, 32, 76
11, 403439, Note_on_c, 3, 32, 0
11, 403440, Note_on_c, 3, 33, 76
11, 403619, Note_on_c, 3, 33, 0
11, 403680, Note_on_c, 3, 34, 52
11, 403799, Note_on_c, 3, 34, 0
11, 407280, Note_on_c, 3, 46, 52
11, 407399, Note_on_c, 3, 46, 0
11, 407520, Note_on_c, 3, 46, 54
11, 407639, Note_on_c, 3, 46, 0
11, 407760, Note_on_c, 3, 46, 57
11, 407879, Note_on_c, 3, 46, 0
11, 408000, Note_on_c, 3, 44, 60
11, 408119, Note_on_c, 3, 44, 0
11, 408240, Note_on_c, 3, 44, 62
11, 408359, Note_on_c, 3, 44, 0
11, 408480, Note_on_c, 3, 43, 65
11, 408599, Note_on_c, 3, 43, 0
11, 408720, Note_on_c, 3, 43, 68
11, 408839, Note_on_c, 3, 43, 0
11, 408960, Note_on_c, 3, 43, 70
11, 409079, Note_on_c, 3, 43, 0
11, 409200, Note_on_c, 3, 31, 73
11, 409319, Note_on_c, 3, 31, 0
11, 409440, Note_on_c, 3, 36, 76
11, 409500, Control_c, 3, 11, 80
11, 409559, Note_on_c, 3, 36, 0
11, 410040, Note_on_c, 3, 31, 76
11, 410139, Note_on_c, 3, 31, 0
11, 410160, Note_on_c, 3, 31, 76
11, 410259, Note_on_c, 3, 31, 0
11, 410280, Note_on_c, 3, 31, 76
11, 410379, Note_on_c, 3, 31, 0
11, 410398, Control_c, 3, 11, 127
11, 410400, Note_on_c, 3, 36, 76
11, 410460, Control_c, 3, 11, 80
11, 410519, Note_on_c, 3, 36, 0
11, 411000, Note_on_c, 3, 31, 76
11, 411099, Note_on_c, 3, 31, 0
11, 411120, Note_on_c, 3, 31, 76
11, 411219, Note_on_c, 3, 31, 0
11, 411240, Note_on_c, 3, 31, 76
11, 411339, Note_on_c, 3, 31, 0
11, 411358, Control_c, 3, 11, 127
11, 411360, Note_on_c, 3, 36, 76
11, 411420, Control_c, 3, 11, 80
11, 411479, Note_on_c, 3, 36, 0
11, 411960, Note_on_c, 3, 31, 76
11, 412059, Note_on_c, 3, 31, 0
11, 412080, Note_on_c, 3, 31, 76
11, 412179, Note_on_c, 3, 31, 0
11, 412200, Note_on_c, 3, 31, 76
11, 412299, Note_on_c, 3, 31, 0
11, 412318, Control_c, 3, 11, 127
11, 412320, Note_on_c, 3, 36, 76
11, 412380, Control_c, 3, 11, 80
11, 412439, Note_on_c, 3, 36, 0
11, 412920, Note_on_c, 3, 31, 76
11, 413019, Note_on_c, 3, 31, 0
11, 413040, Note_on_c, 3, 31, 76
11, 413139, Note_on_c, 3, 31, 0
11, 413160, Note_on_c, 3, 31, 76
11, 413259, Note_on_c, 3, 31, 0
11, 413278, Control_c, 3, 11, 127
11, 413280, Note_on_c, 3, 36, 76
11, 413399, Note_on_c, 3, 36, 0
11, 413880, Note_on_c, 3, 31, 76
11, 413979, Note_on_c, 3, 31, 0
11, 414000, Note_on_c, 3, 31, 76
11, 414099, Note_on_c, 3, 31, 0
11, 414120, Note_on_c, 3, 31, 76
11, 414219, Note_on_c, 3, 31, 0
11, 414240, Note_on_c, 3, 36, 76
11, 414359, Note_on_c, 3, 36, 0
11, 414840, Note_on_c, 3, 31, 76
11, 414939, Note_on_c, 3, 31, 0
11, 414960, Note_on_c, 3, 31, 76
11, 415059, Note_on_c, 3, 31, 0
11, 415080, Note_on_c, 3, 31, 76
11, 415179, Note_on_c, 3, 31, 0
11, 415200, Note_on_c, 3, 36, 76
11, 415319, Note_on_c, 3, 36, 0
11, 415800, Note_on_c, 3, 31, 76
11, 415899, Note_on_c, 3, 31, 0
11, 415920, Note_on_c, 3, 31, 76
11, 416019, Note_on_c, 3, 31, 0
11, 416040, Note_on_c, 3, 31, 76
11, 416139, Note_on_c, 3, 31, 0
11, 416160, Note_on_c, 3, 36, 76
11, 416279, Note_on_c, 3, 36, 0
11, 416760, Note_on_c, 3, 31, 76
11, 416859, Note_on_c, 3, 31, 0
11, 416880, Note_on_c, 3, 31, 76
11, 416979, Note_on_c, 3, 31, 0
11, 417000, Note_on_c, 3, 31, 76
11, 417099, Note_on_c, 3, 31, 0
11, 417120, Note_on_c, 3, 46, 76
11, 417239, Note_on_c, 3, 46, 0
11, 417360, Note_on_c, 3, 46, 76
11, 417479, Note_on_c, 3, 46, 0
11, 417600, Note_on_c, 3, 44, 76
11, 417719, Note_on_c, 3, 44, 0
11, 417840, Note_on_c, 3, 44, 76
11, 417959, Note_on_c, 3, 44, 0
11, 418080, Note_on_c, 3, 43, 76
11, 418199, Note_on_c, 3, 43, 0
11, 418320, Note_on_c, 3, 43, 76
11, 418439, Note_on_c, 3, 43, 0
11, 418560, Note_on_c, 3, 43, 76
11, 418679, Note_on_c, 3, 43, 0
11, 418800, Note_on_c, 3, 46, 76
11, 418919, Note_on_c, 3, 46, 0
11, 419040, Note_on_c, 3, 46, 76
11, 419159, Note_on_c, 3, 46, 0
11, 419280, Note_on_c, 3, 46, 76
11, 419399, Note_on_c, 3, 46, 0
11, 419520, Note_on_c, 3, 44, 76
11, 419639, Note_on_c, 3, 44, 0
11, 419760, Note_on_c, 3, 44, 76
11, 419879, Note_on_c, 3, 44, 0
11, 420000, Note_on_c, 3, 43, 76
11, 420119, Note_on_c, 3, 43, 0
11, 420240, Note_on_c, 3, 43, 76
11, 420359, Note_on_c, 3, 43, 0
11, 420480, Note_on_c, 3, 43, 76
11, 420599, Note_on_c, 3, 43, 0
11, 420720, Note_on_c, 3, 46, 76
11, 420819, Note_on_c, 3, 46, 0
11, 420840, Note_on_c, 3, 46, 76
11, 420939, Note_on_c, 3, 46, 0
11, 420960, Note_on_c, 3, 46, 76
11, 421059, Note_on_c, 3, 46, 0
11, 421080, Note_on_c, 3, 46, 76
11, 421179, Note_on_c, 3, 46, 0
11, 421200, Note_on_c, 3, 46, 76
11, 421299, Note_on_c, 3, 46, 0
11, 421320, Note_on_c, 3, 46, 76
11, 421419, Note_on_c, 3, 46, 0
11, 421440, Note_on_c, 3, 44, 76
11, 421539, Note_on_c, 3, 44, 0
11, 421560, Note_on_c, 3, 44, 76
11, 421659, Note_on_c, 3, 44, 0
11, 421680, Note_on_c, 3, 44, 76
11, 421779, Note_on_c, 3, 44, 0
11, 421800, Note_on_c, 3, 44, 76
11, 421899, Note_on_c, 3, 44, 0
11, 421920, Note_on_c, 3, 43, 76
11, 422019, Note_on_c, 3, 43, 0
11, 422040, Note_on_c, 3, 43, 76
11, 422139, Note_on_c, 3, 43, 0
11, 422160, Note_on_c, 3, 43, 76
11, 422259, Note_on_c, 3, 43, 0
11, 422280, Note_on_c, 3, 43, 76
11, 422379, Note_on_c, 3, 43, 0
11, 422400, Note_on_c, 3, 31, 76
11, 422499, Note_on_c, 3, 31, 0
11, 422520, Note_on_c, 3, 31, 76
11, 422619, Note_on_c, 3, 31, 0
11, 422640, Note_on_c, 3, 31, 76
11, 422739, Note_on_c, 3, 31, 0
11, 422760, Note_on_c, 3, 31, 76
11, 422859, Note_on_c, 3, 31, 0
11, 422880, Note_on_c, 3, 36, 84
11, 422999, Note_on_c, 3, 36, 0
11, 423360, Note_on_c, 3, 36, 84
11, 423579, Note_on_c, 3, 36, 0
11, 423600, Note_on_c, 3, 40, 84
11, 423819, Note_on_c, 3, 40, 0
11, 423840, Note_on_c, 3, 43, 84
11, 424179, Note_on_c, 3, 43, 0
11, 424200, Note_on_c, 3, 41, 84
11, 424299, Note_on_c, 3, 41, 0
11, 424320, Note_on_c, 3, 40, 84
11, 424419, Note_on_c, 3, 40, 0
11, 424440, Note_on_c, 3, 38, 84
11, 424539, Note_on_c, 3, 38, 0
11, 424560, Note_on_c, 3, 36, 84
11, 424659, Note_on_c, 3, 36, 0
11, 424680, Note_on_c, 3, 38, 84
11, 424779, Note_on_c, 3, 38, 0
11, 424800, Note_on_c, 3, 40, 84
11, 425139, Note_on_c, 3, 40, 0
11, 425160, Note_on_c, 3, 40, 84
11, 425259, Note_on_c, 3, 40, 0
11, 425280, Note_on_c, 3, 40, 84
11, 425379, Note_on_c, 3, 40, 0
11, 425400, Note_on_c, 3, 38, 84
11, 425499, Note_on_c, 3, 38, 0
11, 425520, Note_on_c, 3, 40, 84
11, 425619, Note_on_c, 3, 40, 0
11, 425640, Note_on_c, 3, 41, 84
11, 425739, Note_on_c, 3, 41, 0
11, 425760, Note_on_c, 3, 43, 84
11, 426099, Note_on_c, 3, 43, 0
11, 426120, Note_on_c, 3, 43, 84
11, 426219, Note_on_c, 3, 43, 0
11, 426240, Note_on_c, 3, 43, 84
11, 426339, Note_on_c, 3, 43, 0
11, 426360, Note_on_c, 3, 41, 84
11, 426459, Note_on_c, 3, 41, 0
11, 426480, Note_on_c, 3, 43, 84
11, 426579, Note_on_c, 3, 43, 0
11, 426600, Note_on_c, 3, 47, 84
11, 426699, Note_on_c, 3, 47, 0
11, 426720, Note_on_c, 3, 48, 84
11, 426819, Note_on_c, 3, 48, 0
11, 426840, Note_on_c, 3, 47, 84
11, 426939, Note_on_c, 3, 47, 0
11, 426960, Note_on_c, 3, 48, 84
11, 427059, Note_on_c, 3, 48, 0
11, 427080, Note_on_c, 3, 50, 84
11, 427179, Note_on_c, 3, 50, 0
11, 427200, Note_on_c, 3, 52, 84
11, 427299, Note_on_c, 3, 52, 0
11, 427320, Note_on_c, 3, 38, 84
11, 427419, Note_on_c, 3, 38, 0
11, 427440, Note_on_c, 3, 40, 84
11, 427539, Note_on_c, 3, 40, 0
11, 427560, Note_on_c, 3, 41, 84
11, 427659, Note_on_c, 3, 41, 0
11, 427680, Note_on_c, 3, 43, 84
11, 428619, Note_on_c, 3, 43, 0
11, 428640, Note_on_c, 3, 40, 84
11, 429579, Note_on_c, 3, 40, 0
11, 429600, Note_on_c, 3, 36, 84
11, 429719, Note_on_c, 3, 36, 0
11, 430080, Note_on_c, 3, 31, 84
11, 430199, Note_on_c, 3, 31, 0
11, 430560, Note_on_c, 3, 36, 84
11, 430679, Note_on_c, 3, 36, 0
11, 431040, Note_on_c, 3, 31, 84
11, 431159, Note_on_c, 3, 31, 0
11, 431520, Note_on_c, 3, 36, 84
11, 431639, Note_on_c, 3, 36, 0
11, 432000, Note_on_c, 3, 31, 84
11, 432119, Note_on_c, 3, 31, 0
11, 432480, Note_on_c, 3, 36, 84
11, 432599, Note_on_c, 3, 36, 0
11, 432960, Note_on_c, 3, 31, 84
11, 433079, Note_on_c, 3, 31, 0
11, 433440, Note_on_c, 3, 36, 84
11, 433559, Note_on_c, 3, 36, 0
11, 433920, Note_on_c, 3, 31, 84
11, 434039, Note_on_c, 3, 31, 0
11, 434400, Note_on_c, 3, 36, 84
11, 434519, Note_on_c, 3, 36, 0
11, 434880, Note_on_c, 3, 31, 84
11, 434999, Note_on_c, 3, 31, 0
11, 435360, Note_on_c, 3, 48, 84
11, 436299, Note_on_c, 3, 48, 0
11, 436320, Note_on_c, 3, 48, 84
11, 437019, Note_on_c, 3, 48, 0
11, 437040, Note_on_c, 3, 43, 84
11, 437139, Note_on_c, 3, 43, 0
11, 437160, Note_on_c, 3, 40, 84
11, 437259, Note_on_c, 3, 40, 0
11, 437280, Note_on_c, 3, 36, 84
11, 437399, Note_on_c, 3, 36, 0
11, 437640, Note_on_c, 3, 36, 84
11, 437739, Note_on_c, 3, 36, 0
11, 437760, Note_on_c, 3, 36, 84
11, 437859, Note_on_c, 3, 36, 0
11, 437880, Note_on_c, 3, 36, 84
11, 437979, Note_on_c, 3, 36, 0
11, 438000, Note_on_c, 3, 36, 84
11, 438099, Note_on_c, 3, 36, 0
11, 438120, Note_on_c, 3, 36, 84
11, 438219, Note_on_c, 3, 36, 0
11, 438240, Note_on_c, 3, 36, 84
11, 438359, Note_on_c, 3, 36, 0
11, 438600, Note_on_c, 3, 36, 84
11, 438699, Note_on_c, 3, 36, 0
11, 438720, Note_on_c, 3, 36, 84
11, 438819, Note_on_c, 3, 36, 0
11, 438840, Note_on_c, 3, 36, 84
11, 438939, Note_on_c, 3, 36, 0
11, 438960, Note_on_c, 3, 36, 84
11, 439059, Note_on_c, 3, 36, 0
11, 439080, Note_on_c, 3, 36, 84
11, 439179, Note_on_c, 3, 36, 0
11, 439200, Note_on_c, 3, 36, 84
11, 439319, Note_on_c, 3, 36, 0
11, 439440, Note_on_c, 3, 36, 84
11, 439539, Note_on_c, 3, 36, 0
11, 439560, Note_on_c, 3, 36, 84
11, 439659, Note_on_c, 3, 36, 0
11, 439680, Note_on_c, 3, 36, 84
11, 439799, Note_on_c, 3, 36, 0
11, 439920, Note_on_c, 3, 36, 84
11, 440019, Note_on_c, 3, 36, 0
11, 440040, Note_on_c, 3, 36, 84
11, 440139, Note_on_c, 3, 36, 0
11, 440160, Note_on_c, 3, 36, 84
11, 440279, Note_on_c, 3, 36, 0
11, 440400, Note_on_c, 3, 36, 84
11, 440499, Note_on_c, 3, 36, 0
11, 440520, Note_on_c, 3, 36, 84
11, 440619, Note_on_c, 3, 36, 0
11, 440640, Note_on_c, 3, 36, 84
11, 440759, Note_on_c, 3, 36, 0
11, 440880, Note_on_c, 3, 36, 84
11, 440979, Note_on_c, 3, 36, 0
11, 441000, Note_on_c, 3, 36, 84
11, 441099, Note_on_c, 3, 36, 0
11, 441120, Note_on_c, 3, 36, 84
11, 441219, Note_on_c, 3, 36, 0
11, 441240, Note_on_c, 3, 40, 84
11, 441339, Note_on_c, 3, 40, 0
11, 441360, Note_on_c, 3, 43, 84
11, 441459, Note_on_c, 3, 43, 0
11, 441480, Note_on_c, 3, 48, 84
11, 441579, Note_on_c, 3, 48, 0
11, 441600, Note_on_c, 3, 52, 84
11, 441699, Note_on_c, 3, 52, 0
11, 441720, Note_on_c, 3, 55, 84
11, 441819, Note_on_c, 3, 55, 0
11, 441840, Note_on_c, 3, 52, 84
11, 441939, Note_on_c, 3, 52, 0
11, 441960, Note_on_c, 3, 48, 84
11, 442059, Note_on_c, 3, 48, 0
11, 442080, Note_on_c, 3, 43, 84
11, 442179, Note_on_c, 3, 43, 0
11, 442200, Note_on_c, 3, 40, 84
11, 442299, Note_on_c, 3, 40, 0
11, 442320, Note_on_c, 3, 36, 84
11, 442419, Note_on_c, 3, 36, 0
11, 442440, Note_on_c, 3, 31, 84
11, 442539, Note_on_c, 3, 31, 0
11, 442560, Note_on_c, 3, 28, 84
11, 442659, Note_on_c, 3, 28, 0
11, 442680, Note_on_c, 3, 24, 84
11, 442779, Note_on_c, 3, 24, 0
11, 442800, Note_on_c, 3, 36, 84
11, 442899, Note_on_c, 3, 36, 0
11, 442920, Note_on_c, 3, 36, 84
11, 443019, Note_on_c, 3, 36, 0
11, 443040, Note_on_c, 3, 36, 84
11, 443159, Note_on_c, 3, 36, 0
11, 444000, Note_on_c, 3, 36, 84
11, 444119, Note_on_c, 3, 36, 0
11, 444960, Note_on_c, 3, 36, 84
11, 445079, Note_on_c, 3, 36, 0
11, 445920, Note_on_c, 3, 36, 84
11, 446039, Note_on_c, 3, 36, 0
11, 446400, Note_on_c, 3, 36, 84
11, 446519, Note_on_c, 3, 36, 0
11, 446880, Note_on_c, 3, 36, 84
11, 446999, Note_on_c, 3, 36, 0
11, 447840, Note_on_c, 3, 36, 84
11, 447959, Note_on_c, 3, 36, 0
11, 448800, Note_on_c, 3, 36, 84
11, 451199, Note_on_c, 3, 36, 0
11, 451199, End_track
12, 0, Start_track
12, 0, Title_t, "French Horn in C"
12, 0, MIDI_port, 0
12, 0, Program_c, 4, 60
12, 0, Control_c, 4, 7, 96
12, 0, Control_c, 4, 10, 45
12, 0, Control_c, 4, 11, 127
12, 0, Note_on_c, 4, 60, 84
12, 0, Note_on_c, 4, 52, 84
12, 464, Note_on_c, 4, 60, 0
12, 464, Note_on_c, 4, 52, 0
12, 480, Note_on_c, 4, 64, 84
12, 480, Note_on_c, 4, 60, 84
12, 944, Note_on_c, 4, 64, 0
12, 944, Note_on_c, 4, 60, 0
12, 960, Note_on_c, 4, 67, 84
12, 960, Note_on_c, 4, 64, 84
12, 1664, Note_on_c, 4, 67, 0
12, 1664, Note_on_c, 4, 64, 0
12, 1680, Note_on_c, 4, 62, 84
12, 1680, Note_on_c, 4, 65, 84
12, 1799, Note_on_c, 4, 62, 0
12, 1799, Note_on_c, 4, 65, 0
12, 1920, Note_on_c, 4, 60, 84
12, 1920, Note_on_c, 4, 64, 84
12, 2039, Note_on_c, 4, 60, 0
12, 2039, Note_on_c, 4, 64, 0
12, 2160, Note_on_c, 4, 55, 84
12, 2160, Note_on_c, 4, 62, 84
12, 2279, Note_on_c, 4, 55, 0
12, 2279, Note_on_c, 4, 62, 0
12, 2400, Note_on_c, 4, 60, 84
12, 2400, Note_on_c, 4, 52, 84
12, 2519, Note_on_c, 4, 60, 0
12, 2519, Note_on_c, 4, 52, 0
12, 2640, Note_on_c, 4, 62, 84
12, 2640, Note_on_c, 4, 55, 84
12, 2759, Note_on_c, 4, 62, 0
12, 2759, Note_on_c, 4, 55, 0
12, 2880, Note_on_c, 4, 52, 84
12, 2880, Note_on_c, 4, 60, 84
12, 3584, Note_on_c, 4, 52, 0
12, 3584, Note_on_c, 4, 60, 0
12, 3600, Note_on_c, 4, 52, 84
12, 3600, Note_on_c, 4, 60, 84
12, 3771, Note_on_c, 4, 52, 0
12, 3771, Note_on_c, 4, 60, 0
12, 3780, Note_on_c, 4, 52, 84
12, 3780, Note_on_c, 4, 60, 84
12, 3831, Note_on_c, 4, 52, 0
12, 3831, Note_on_c, 4, 60, 0
12, 3840, Note_on_c, 4, 62, 84
12, 3840, Note_on_c, 4, 55, 84
12, 4544, Note_on_c, 4, 62, 0
12, 4544, Note_on_c, 4, 55, 0
12, 4560, Note_on_c, 4, 55, 84
12, 4560, Note_on_c, 4, 62, 84
12, 4731, Note_on_c, 4, 55, 0
12, 4731, Note_on_c, 4, 62, 0
12, 4740, Note_on_c, 4, 55, 84
12, 4740, Note_on_c, 4, 62, 84
12, 4791, Note_on_c, 4, 55, 0
12, 4791, Note_on_c, 4, 62, 0
12, 4800, Note_on_c, 4, 60, 84
12, 4800, Note_on_c, 4, 64, 84
12, 5384, Note_on_c, 4, 60, 0
12, 5384, Note_on_c, 4, 64, 0
12, 5400, Note_on_c, 4, 60, 84
12, 5400, Note_on_c, 4, 48, 84
12, 5504, Note_on_c, 4, 60, 0
12, 5504, Note_on_c, 4, 48, 0
12, 5520, Note_on_c, 4, 60, 84
12, 5520, Note_on_c, 4, 48, 84
12, 5624, Note_on_c, 4, 60, 0
12, 5624, Note_on_c, 4, 48, 0
12, 5640, Note_on_c, 4, 60, 84
12, 5640, Note_on_c, 4, 48, 84
12, 5744, Note_on_c, 4, 60, 0
12, 5744, Note_on_c, 4, 48, 0
12, 5760, Note_on_c, 4, 60, 84
12, 5760, Note_on_c, 4, 48, 84
12, 5984, Note_on_c, 4, 60, 0
12, 5984, Note_on_c, 4, 48, 0
12, 6000, Note_on_c, 4, 60, 84
12, 6000, Note_on_c, 4, 48, 84
12, 6104, Note_on_c, 4, 60, 0
12, 6104, Note_on_c, 4, 48, 0
12, 6120, Note_on_c, 4, 48, 84
12, 6120, Note_on_c, 4, 60, 84
12, 6224, Note_on_c, 4, 48, 0
12, 6224, Note_on_c, 4, 60, 0
12, 6240, Note_on_c, 4, 48, 84
12, 6240, Note_on_c, 4, 60, 84
12, 6464, Note_on_c, 4, 48, 0
12, 6464, Note_on_c, 4, 60, 0
12, 6480, Note_on_c, 4, 60, 84
12, 6480, Note_on_c, 4, 48, 84
12, 6584, Note_on_c, 4, 60, 0
12, 6584, Note_on_c, 4, 48, 0
12, 6600, Note_on_c, 4, 60, 84
12, 6600, Note_on_c, 4, 48, 84
12, 6704, Note_on_c, 4, 60, 0
12, 6704, Note_on_c, 4, 48, 0
12, 6720, Note_on_c, 4, 60, 84
12, 6720, Note_on_c, 4, 48, 84
12, 7304, Note_on_c, 4, 60, 0
12, 7304, Note_on_c, 4, 48, 0
12, 7320, Note_on_c, 4, 48, 84
12, 7320, Note_on_c, 4, 60, 84
12, 7424, Note_on_c, 4, 48, 0
12, 7424, Note_on_c, 4, 60, 0
12, 7440, Note_on_c, 4, 60, 84
12, 7440, Note_on_c, 4, 48, 84
12, 7544, Note_on_c, 4, 60, 0
12, 7544, Note_on_c, 4, 48, 0
12, 7560, Note_on_c, 4, 48, 84
12, 7560, Note_on_c, 4, 60, 84
12, 7664, Note_on_c, 4, 48, 0
12, 7664, Note_on_c, 4, 60, 0
12, 7680, Note_on_c, 4, 60, 84
12, 7680, Note_on_c, 4, 48, 84
12, 7904, Note_on_c, 4, 60, 0
12, 7904, Note_on_c, 4, 48, 0
12, 7920, Note_on_c, 4, 60, 84
12, 7920, Note_on_c, 4, 48, 84
12, 8024, Note_on_c, 4, 60, 0
12, 8024, Note_on_c, 4, 48, 0
12, 8040, Note_on_c, 4, 48, 84
12, 8040, Note_on_c, 4, 60, 84
12, 8144, Note_on_c, 4, 48, 0
12, 8144, Note_on_c, 4, 60, 0
12, 8160, Note_on_c, 4, 60, 84
12, 8160, Note_on_c, 4, 48, 84
12, 8384, Note_on_c, 4, 60, 0
12, 8384, Note_on_c, 4, 48, 0
12, 8400, Note_on_c, 4, 60, 84
12, 8400, Note_on_c, 4, 48, 84
12, 8504, Note_on_c, 4, 60, 0
12, 8504, Note_on_c, 4, 48, 0
12, 8520, Note_on_c, 4, 60, 84
12, 8520, Note_on_c, 4, 48, 84
12, 8624, Note_on_c, 4, 60, 0
12, 8624, Note_on_c, 4, 48, 0
12, 8640, Note_on_c, 4, 60, 84
12, 8640, Note_on_c, 4, 48, 84
12, 9224, Note_on_c, 4, 60, 0
12, 9224, Note_on_c, 4, 48, 0
12, 9240, Note_on_c, 4, 48, 84
12, 9240, Note_on_c, 4, 60, 84
12, 9344, Note_on_c, 4, 48, 0
12, 9344, Note_on_c, 4, 60, 0
12, 9360, Note_on_c, 4, 60, 84
12, 9360, Note_on_c, 4, 48, 84
12, 9464, Note_on_c, 4, 60, 0
12, 9464, Note_on_c, 4, 48, 0
12, 9480, Note_on_c, 4, 48, 84
12, 9480, Note_on_c, 4, 60, 84
12, 9584, Note_on_c, 4, 48, 0
12, 9584, Note_on_c, 4, 60, 0
12, 9600, Note_on_c, 4, 48, 84
12, 9600, Note_on_c, 4, 60, 84
12, 9824, Note_on_c, 4, 48, 0
12, 9824, Note_on_c, 4, 60, 0
12, 9840, Note_on_c, 4, 48, 84
12, 9840, Note_on_c, 4, 60, 84
12, 9944, Note_on_c, 4, 48, 0
12, 9944, Note_on_c, 4, 60, 0
12, 9960, Note_on_c, 4, 60, 84
12, 9960, Note_on_c, 4, 48, 84
12, 10064, Note_on_c, 4, 60, 0
12, 10064, Note_on_c, 4, 48, 0
12, 10080, Note_on_c, 4, 48, 84
12, 10080, Note_on_c, 4, 60, 84
12, 10304, Note_on_c, 4, 48, 0
12, 10304, Note_on_c, 4, 60, 0
12, 10320, Note_on_c, 4, 60, 84
12, 10320, Note_on_c, 4, 48, 84
12, 10424, Note_on_c, 4, 60, 0
12, 10424, Note_on_c, 4, 48, 0
12, 10440, Note_on_c, 4, 48, 84
12, 10440, Note_on_c, 4, 60, 84
12, 10544, Note_on_c, 4, 48, 0
12, 10544, Note_on_c, 4, 60, 0
12, 10560, Note_on_c, 4, 48, 84
12, 10560, Note_on_c, 4, 60, 84
12, 11264, Note_on_c, 4, 48, 0
12, 11264, Note_on_c, 4, 60, 0
12, 11280, Note_on_c, 4, 48, 84
12, 11280, Note_on_c, 4, 64, 84
12, 11451, Note_on_c, 4, 48, 0
12, 11451, Note_on_c, 4, 64, 0
12, 11460, Note_on_c, 4, 64, 84
12, 11460, Note_on_c, 4, 48, 84
12, 11511, Note_on_c, 4, 64, 0
12, 11511, Note_on_c, 4, 48, 0
12, 11520, Note_on_c, 4, 62, 84
12, 11520, Note_on_c, 4, 43, 84
12, 11744, Note_on_c, 4, 62, 0
12, 11744, Note_on_c, 4, 43, 0
12, 11760, Note_on_c, 4, 62, 84
12, 11760, Note_on_c, 4, 43, 84
12, 11931, Note_on_c, 4, 62, 0
12, 11931, Note_on_c, 4, 43, 0
12, 11940, Note_on_c, 4, 62, 84
12, 11940, Note_on_c, 4, 43, 84
12, 11991, Note_on_c, 4, 62, 0
12, 11991, Note_on_c, 4, 43, 0
12, 12000, Note_on_c, 4, 64, 84
12, 12000, Note_on_c, 4, 48, 84
12, 12224, Note_on_c, 4, 64, 0
12, 12224, Note_on_c, 4, 48, 0
12, 12240, Note_on_c, 4, 64, 84
12, 12240, Note_on_c, 4, 48, 84
12, 12411, Note_on_c, 4, 64, 0
12, 12411, Note_on_c, 4, 48, 0
12, 12420, Note_on_c, 4, 48, 84
12, 12420, Note_on_c, 4, 64, 84
12, 12471, Note_on_c, 4, 48, 0
12, 12471, Note_on_c, 4, 64, 0
12, 12480, Note_on_c, 4, 62, 84
12, 12480, Note_on_c, 4, 43, 84
12, 12704, Note_on_c, 4, 62, 0
12, 12704, Note_on_c, 4, 43, 0
12, 12720, Note_on_c, 4, 43, 84
12, 12720, Note_on_c, 4, 62, 84
12, 13184, Note_on_c, 4, 43, 0
12, 13184, Note_on_c, 4, 62, 0
12, 13200, Note_on_c, 4, 64, 84
12, 13200, Note_on_c, 4, 48, 84
12, 13371, Note_on_c, 4, 64, 0
12, 13371, Note_on_c, 4, 48, 0
12, 13380, Note_on_c, 4, 64, 84
12, 13380, Note_on_c, 4, 48, 84
12, 13431, Note_on_c, 4, 64, 0
12, 13431, Note_on_c, 4, 48, 0
12, 13440, Note_on_c, 4, 43, 84
12, 13440, Note_on_c, 4, 62, 84
12, 13664, Note_on_c, 4, 43, 0
12, 13664, Note_on_c, 4, 62, 0
12, 13680, Note_on_c, 4, 43, 84
12, 13680, Note_on_c, 4, 62, 84
12, 13851, Note_on_c, 4, 43, 0
12, 13851, Note_on_c, 4, 62, 0
12, 13860, Note_on_c, 4, 62, 84
12, 13860, Note_on_c, 4, 43, 84
12, 13911, Note_on_c, 4, 62, 0
12, 13911, Note_on_c, 4, 43, 0
12, 13920, Note_on_c, 4, 48, 84
12, 13920, Note_on_c, 4, 64, 84
12, 14144, Note_on_c, 4, 48, 0
12, 14144, Note_on_c, 4, 64, 0
12, 14160, Note_on_c, 4, 64, 84
12, 14160, Note_on_c, 4, 48, 84
12, 14331, Note_on_c, 4, 64, 0
12, 14331, Note_on_c, 4, 48, 0
12, 14340, Note_on_c, 4, 48, 84
12, 14340, Note_on_c, 4, 64, 84
12, 14391, Note_on_c, 4, 48, 0
12, 14391, Note_on_c, 4, 64, 0
12, 14400, Note_on_c, 4, 43, 84
12, 14400, Note_on_c, 4, 62, 84
12, 14624, Note_on_c, 4, 43, 0
12, 14624, Note_on_c, 4, 62, 0
12, 14640, Note_on_c, 4, 43, 84
12, 14640, Note_on_c, 4, 62, 84
12, 15104, Note_on_c, 4, 43, 0
12, 15104, Note_on_c, 4, 62, 0
12, 15120, Note_on_c, 4, 64, 84
12, 15120, Note_on_c, 4, 48, 84
12, 15291, Note_on_c, 4, 64, 0
12, 15291, Note_on_c, 4, 48, 0
12, 15300, Note_on_c, 4, 64, 84
12, 15300, Note_on_c, 4, 48, 84
12, 15351, Note_on_c, 4, 64, 0
12, 15351, Note_on_c, 4, 48, 0
12, 15360, Note_on_c, 4, 43, 84
12, 15360, Note_on_c, 4, 62, 84
12, 15531, Note_on_c, 4, 43, 0
12, 15531, Note_on_c, 4, 62, 0
12, 15540, Note_on_c, 4, 62, 84
12, 15540, Note_on_c, 4, 43, 84
12, 15591, Note_on_c, 4, 62, 0
12, 15591, Note_on_c, 4, 43, 0
12, 15600, Note_on_c, 4, 62, 84
12, 15600, Note_on_c, 4, 43, 84
12, 15771, Note_on_c, 4, 62, 0
12, 15771, Note_on_c, 4, 43, 0
12, 15780, Note_on_c, 4, 62, 84
12, 15780, Note_on_c, 4, 43, 84
12, 15831, Note_on_c, 4, 62, 0
12, 15831, Note_on_c, 4, 43, 0
12, 15840, Note_on_c, 4, 64, 84
12, 15840, Note_on_c, 4, 48, 84
12, 16011, Note_on_c, 4, 64, 0
12, 16011, Note_on_c, 4, 48, 0
12, 16020, Note_on_c, 4, 64, 84
12, 16020, Note_on_c, 4, 48, 84
12, 16071, Note_on_c, 4, 64, 0
12, 16071, Note_on_c, 4, 48, 0
12, 16080, Note_on_c, 4, 64, 84
12, 16080, Note_on_c, 4, 48, 84
12, 16251, Note_on_c, 4, 64, 0
12, 16251, Note_on_c, 4, 48, 0
12, 16260, Note_on_c, 4, 48, 84
12, 16260, Note_on_c, 4, 64, 84
12, 16311, Note_on_c, 4, 48, 0
12, 16311, Note_on_c, 4, 64, 0
12, 16320, Note_on_c, 4, 43, 84
12, 16320, Note_on_c, 4, 62, 84
12, 16544, Note_on_c, 4, 43, 0
12, 16544, Note_on_c, 4, 62, 0
12, 16560, Note_on_c, 4, 62, 84
12, 16560, Note_on_c, 4, 55, 84
12, 16784, Note_on_c, 4, 62, 0
12, 16784, Note_on_c, 4, 55, 0
12, 16800, Note_on_c, 4, 64, 84
12, 16800, Note_on_c, 4, 60, 84
12, 17024, Note_on_c, 4, 64, 0
12, 17024, Note_on_c, 4, 60, 0
12, 17040, Note_on_c, 4, 64, 84
12, 17040, Note_on_c, 4, 60, 84
12, 17264, Note_on_c, 4, 64, 0
12, 17264, Note_on_c, 4, 60, 0
12, 17280, Note_on_c, 4, 55, 84
12, 17280, Note_on_c, 4, 62, 84
12, 17504, Note_on_c, 4, 55, 0
12, 17504, Note_on_c, 4, 62, 0
12, 17520, Note_on_c, 4, 55, 84
12, 17520, Note_on_c, 4, 62, 84
12, 17744, Note_on_c, 4, 55, 0
12, 17744, Note_on_c, 4, 62, 0
12, 17760, Note_on_c, 4, 60, 84
12, 17760, Note_on_c, 4, 64, 84
12, 17984, Note_on_c, 4, 60, 0
12, 17984, Note_on_c, 4, 64, 0
12, 18000, Note_on_c, 4, 64, 84
12, 18000, Note_on_c, 4, 60, 84
12, 18224, Note_on_c, 4, 64, 0
12, 18224, Note_on_c, 4, 60, 0
12, 18240, Note_on_c, 4, 62, 84
12, 18240, Note_on_c, 4, 55, 84
12, 18359, Note_on_c, 4, 62, 0
12, 18359, Note_on_c, 4, 55, 0
12, 18420, Note_on_c, 4, 60, 84
12, 18420, Note_on_c, 4, 64, 84
12, 18471, Note_on_c, 4, 60, 0
12, 18471, Note_on_c, 4, 64, 0
12, 18480, Note_on_c, 4, 64, 84
12, 18480, Note_on_c, 4, 60, 84
12, 18704, Note_on_c, 4, 64, 0
12, 18704, Note_on_c, 4, 60, 0
12, 18720, Note_on_c, 4, 55, 84
12, 18720, Note_on_c, 4, 62, 84
12, 18839, Note_on_c, 4, 55, 0
12, 18839, Note_on_c, 4, 62, 0
12, 18900, Note_on_c, 4, 64, 84
12, 18900, Note_on_c, 4, 60, 84
12, 18951, Note_on_c, 4, 64, 0
12, 18951, Note_on_c, 4, 60, 0
12, 18960, Note_on_c, 4, 60, 84
12, 18960, Note_on_c, 4, 64, 84
12, 19184, Note_on_c, 4, 60, 0
12, 19184, Note_on_c, 4, 64, 0
12, 19200, Note_on_c, 4, 55, 84
12, 19200, Note_on_c, 4, 62, 84
12, 19319, Note_on_c, 4, 55, 0
12, 19319, Note_on_c, 4, 62, 0
12, 19380, Note_on_c, 4, 64, 84
12, 19380, Note_on_c, 4, 60, 84
12, 19431, Note_on_c, 4, 64, 0
12, 19431, Note_on_c, 4, 60, 0
12, 19440, Note_on_c, 4, 64, 84
12, 19440, Note_on_c, 4, 60, 84
12, 19664, Note_on_c, 4, 64, 0
12, 19664, Note_on_c, 4, 60, 0
12, 19680, Note_on_c, 4, 62, 84
12, 19680, Note_on_c, 4, 55, 84
12, 19799, Note_on_c, 4, 62, 0
12, 19799, Note_on_c, 4, 55, 0
12, 19860, Note_on_c, 4, 64, 84
12, 19860, Note_on_c, 4, 60, 84
12, 19911, Note_on_c, 4, 64, 0
12, 19911, Note_on_c, 4, 60, 0
12, 19920, Note_on_c, 4, 64, 84
12, 19920, Note_on_c, 4, 60, 84
12, 20144, Note_on_c, 4, 64, 0
12, 20144, Note_on_c, 4, 60, 0
12, 20160, Note_on_c, 4, 62, 84
12, 20160, Note_on_c, 4, 55, 84
12, 20279, Note_on_c, 4, 62, 0
12, 20279, Note_on_c, 4, 55, 0
12, 24000, Note_on_c, 4, 60, 84
12, 24000, Note_on_c, 4, 52, 84
12, 24704, Note_on_c, 4, 60, 0
12, 24704, Note_on_c, 4, 52, 0
12, 24720, Note_on_c, 4, 55, 84
12, 24720, Note_on_c, 4, 52, 84
12, 24959, Note_on_c, 4, 55, 0
12, 24959, Note_on_c, 4, 52, 0
12, 24960, Note_on_c, 4, 55, 84
12, 24960, Note_on_c, 4, 64, 84
12, 25679, Note_on_c, 4, 55, 0
12, 25679, Note_on_c, 4, 64, 0
12, 25680, Note_on_c, 4, 55, 84
12, 25680, Note_on_c, 4, 62, 84
12, 25859, Note_on_c, 4, 55, 0
12, 25859, Note_on_c, 4, 62, 0
12, 25860, Note_on_c, 4, 52, 84
12, 25860, Note_on_c, 4, 60, 84
12, 25911, Note_on_c, 4, 52, 0
12, 25911, Note_on_c, 4, 60, 0
12, 25920, Note_on_c, 4, 62, 84
12, 25920, Note_on_c, 4, 55, 84
12, 27824, Note_on_c, 4, 62, 0
12, 27824, Note_on_c, 4, 55, 0
12, 27840, Note_on_c, 4, 55, 84
12, 27840, Note_on_c, 4, 62, 84
12, 28544, Note_on_c, 4, 55, 0
12, 28544, Note_on_c, 4, 62, 0
12, 28560, Note_on_c, 4, 55, 84
12, 28799, Note_on_c, 4, 55, 0
12, 28800, Note_on_c, 4, 65, 84
12, 28800, Note_on_c, 4, 62, 84
12, 29519, Note_on_c, 4, 65, 0
12, 29519, Note_on_c, 4, 62, 0
12, 29520, Note_on_c, 4, 60, 84
12, 29520, Note_on_c, 4, 64, 84
12, 29699, Note_on_c, 4, 60, 0
12, 29699, Note_on_c, 4, 64, 0
12, 29700, Note_on_c, 4, 55, 84
12, 29700, Note_on_c, 4, 62, 84
12, 29751, Note_on_c, 4, 55, 0
12, 29751, Note_on_c, 4, 62, 0
12, 29760, Note_on_c, 4, 62, 84
12, 29760, Note_on_c, 4, 55, 84
12, 29999, Note_on_c, 4, 62, 0
12, 29999, Note_on_c, 4, 55, 0
12, 30000, Note_on_c, 4, 60, 84
12, 30000, Note_on_c, 4, 64, 84
12, 31664, Note_on_c, 4, 60, 0
12, 31664, Note_on_c, 4, 64, 0
12, 31680, Note_on_c, 4, 48, 84
12, 31680, Note_on_c, 4, 60, 84
12, 32624, Note_on_c, 4, 48, 0
12, 32624, Note_on_c, 4, 60, 0
12, 32640, Note_on_c, 4, 48, 84
12, 32640, Note_on_c, 4, 60, 84
12, 33584, Note_on_c, 4, 48, 0
12, 33584, Note_on_c, 4, 60, 0
12, 33600, Note_on_c, 4, 62, 84
12, 34544, Note_on_c, 4, 62, 0
12, 34560, Note_on_c, 4, 62, 84
12, 35504, Note_on_c, 4, 62, 0
12, 35520, Note_on_c, 4, 62, 84
12, 36464, Note_on_c, 4, 62, 0
12, 36480, Note_on_c, 4, 62, 84
12, 37424, Note_on_c, 4, 62, 0
12, 37440, Note_on_c, 4, 62, 84
12, 38384, Note_on_c, 4, 62, 0
12, 38400, Note_on_c, 4, 62, 84
12, 38984, Note_on_c, 4, 62, 0
12, 39000, Note_on_c, 4, 62, 84
12, 39224, Note_on_c, 4, 62, 0
12, 39240, Note_on_c, 4, 62, 84
12, 39464, Note_on_c, 4, 62, 0
12, 39480, Note_on_c, 4, 62, 84
12, 39704, Note_on_c, 4, 62, 0
12, 39720, Note_on_c, 4, 62, 84
12, 39824, Note_on_c, 4, 62, 0
12, 39840, Note_on_c, 4, 62, 84
12, 39944, Note_on_c, 4, 62, 0
12, 39960, Note_on_c, 4, 62, 84
12, 40079, Note_on_c, 4, 62, 0
12, 40080, Note_on_c, 4, 64, 84
12, 40184, Note_on_c, 4, 64, 0
12, 40200, Note_on_c, 4, 64, 84
12, 40289, Note_on_c, 4, 64, 0
12, 40320, Note_on_c, 4, 62, 84
12, 40439, Note_on_c, 4, 62, 0
12, 42240, Note_on_c, 4, 67, 84
12, 42240, Note_on_c, 4, 55, 84
12, 43184, Note_on_c, 4, 67, 0
12, 43184, Note_on_c, 4, 55, 0
12, 43200, Note_on_c, 4, 55, 84
12, 43200, Note_on_c, 4, 67, 84
12, 43919, Note_on_c, 4, 55, 0
12, 43919, Note_on_c, 4, 67, 0
12, 45840, Note_on_c, 4, 62, 76
12, 45907, Note_on_c, 4, 62, 0
12, 45920, Note_on_c, 4, 62, 76
12, 45987, Note_on_c, 4, 62, 0
12, 46000, Note_on_c, 4, 62, 76
12, 46067, Note_on_c, 4, 62, 0
12, 46080, Note_on_c, 4, 55, 76
12, 46304, Note_on_c, 4, 55, 0
12, 46320, Note_on_c, 4, 55, 76
12, 46387, Note_on_c, 4, 55, 0
12, 46400, Note_on_c, 4, 55, 76
12, 46467, Note_on_c, 4, 55, 0
12, 46480, Note_on_c, 4, 55, 76
12, 46547, Note_on_c, 4, 55, 0
12, 46560, Note_on_c, 4, 55, 76
12, 46784, Note_on_c, 4, 55, 0
12, 46800, Note_on_c, 4, 55, 76
12, 46867, Note_on_c, 4, 55, 0
12, 46880, Note_on_c, 4, 55, 76
12, 46947, Note_on_c, 4, 55, 0
12, 46960, Note_on_c, 4, 55, 76
12, 47027, Note_on_c, 4, 55, 0
12, 47040, Note_on_c, 4, 55, 76
12, 47264, Note_on_c, 4, 55, 0
12, 47280, Note_on_c, 4, 55, 76
12, 47347, Note_on_c, 4, 55, 0
12, 47360, Note_on_c, 4, 55, 76
12, 47427, Note_on_c, 4, 55, 0
12, 47440, Note_on_c, 4, 55, 76
12, 47507, Note_on_c, 4, 55, 0
12, 47520, Note_on_c, 4, 55, 76
12, 47759, Note_on_c, 4, 55, 0
12, 51600, Note_on_c, 4, 60, 48
12, 51600, Note_on_c, 4, 52, 48
12, 51667, Note_on_c, 4, 60, 0
12, 51667, Note_on_c, 4, 52, 0
12, 51680, Note_on_c, 4, 55, 48
12, 51680, Note_on_c, 4, 62, 48
12, 51747, Note_on_c, 4, 55, 0
12, 51747, Note_on_c, 4, 62, 0
12, 51760, Note_on_c, 4, 60, 48
12, 51760, Note_on_c, 4, 64, 48
12, 51827, Note_on_c, 4, 60, 0
12, 51827, Note_on_c, 4, 64, 0
12, 51840, Note_on_c, 4, 65, 48
12, 51840, Note_on_c, 4, 62, 48
12, 52064, Note_on_c, 4, 65, 0
12, 52064, Note_on_c, 4, 62, 0
12, 52080, Note_on_c, 4, 55, 48
12, 52080, Note_on_c, 4, 62, 48
12, 52147, Note_on_c, 4, 55, 0
12, 52147, Note_on_c, 4, 62, 0
12, 52160, Note_on_c, 4, 64, 48
12, 52160, Note_on_c, 4, 60, 48
12, 52227, Note_on_c, 4, 64, 0
12, 52227, Note_on_c, 4, 60, 0
12, 52240, Note_on_c, 4, 62, 48
12, 52240, Note_on_c, 4, 65, 48
12, 52307, Note_on_c, 4, 62, 0
12, 52307, Note_on_c, 4, 65, 0
12, 52320, Note_on_c, 4, 64, 48
12, 52320, Note_on_c, 4, 60, 48
12, 52544, Note_on_c, 4, 64, 0
12, 52544, Note_on_c, 4, 60, 0
12, 52560, Note_on_c, 4, 60, 48
12, 52560, Note_on_c, 4, 52, 48
12, 52627, Note_on_c, 4, 60, 0
12, 52627, Note_on_c, 4, 52, 0
12, 52640, Note_on_c, 4, 55, 48
12, 52640, Note_on_c, 4, 62, 48
12, 52707, Note_on_c, 4, 55, 0
12, 52707, Note_on_c, 4, 62, 0
12, 52720, Note_on_c, 4, 64, 48
12, 52720, Note_on_c, 4, 60, 48
12, 52787, Note_on_c, 4, 64, 0
12, 52787, Note_on_c, 4, 60, 0
12, 52798, Control_c, 4, 11, 64
12, 52800, Note_on_c, 4, 65, 84
12, 52800, Control_c, 4, 11, 64
12, 52800, Note_on_c, 4, 55, 84
12, 52853, Control_c, 4, 11, 66
12, 52907, Control_c, 4, 11, 68
12, 52960, Control_c, 4, 11, 69
12, 53013, Control_c, 4, 11, 71
12, 53067, Control_c, 4, 11, 73
12, 53120, Control_c, 4, 11, 75
12, 53173, Control_c, 4, 11, 76
12, 53227, Control_c, 4, 11, 78
12, 53280, Control_c, 4, 11, 80
12, 53333, Control_c, 4, 11, 82
12, 53387, Control_c, 4, 11, 83
12, 53440, Control_c, 4, 11, 85
12, 53493, Control_c, 4, 11, 87
12, 53547, Control_c, 4, 11, 89
12, 53600, Control_c, 4, 11, 90
12, 53653, Control_c, 4, 11, 92
12, 53707, Control_c, 4, 11, 94
12, 53760, Control_c, 4, 11, 96
12, 53813, Control_c, 4, 11, 97
12, 53867, Control_c, 4, 11, 99
12, 53920, Control_c, 4, 11, 101
12, 53973, Control_c, 4, 11, 103
12, 54027, Control_c, 4, 11, 104
12, 54080, Control_c, 4, 11, 106
12, 54133, Control_c, 4, 11, 108
12, 54187, Control_c, 4, 11, 110
12, 54240, Control_c, 4, 11, 111
12, 54293, Control_c, 4, 11, 113
12, 54347, Control_c, 4, 11, 115
12, 54400, Control_c, 4, 11, 117
12, 54453, Control_c, 4, 11, 118
12, 54507, Control_c, 4, 11, 120
12, 54560, Control_c, 4, 11, 122
12, 54613, Control_c, 4, 11, 124
12, 54667, Control_c, 4, 11, 127
12, 54704, Note_on_c, 4, 65, 0
12, 54704, Note_on_c, 4, 55, 0
12, 54720, Note_on_c, 4, 64, 84
12, 54720, Note_on_c, 4, 48, 84
12, 56864, Note_on_c, 4, 64, 0
12, 56864, Note_on_c, 4, 48, 0
12, 56880, Note_on_c, 4, 55, 84
12, 56880, Note_on_c, 4, 67, 84
12, 57104, Note_on_c, 4, 55, 0
12, 57104, Note_on_c, 4, 67, 0
12, 57120, Note_on_c, 4, 67, 84
12, 57120, Note_on_c, 4, 55, 84
12, 57344, Note_on_c, 4, 67, 0
12, 57344, Note_on_c, 4, 55, 0
12, 57360, Note_on_c, 4, 67, 84
12, 57360, Note_on_c, 4, 55, 84
12, 57584, Note_on_c, 4, 67, 0
12, 57584, Note_on_c, 4, 55, 0
12, 57600, Note_on_c, 4, 67, 84
12, 57600, Note_on_c, 4, 55, 84
12, 57824, Note_on_c, 4, 67, 0
12, 57824, Note_on_c, 4, 55, 0
12, 57840, Note_on_c, 4, 62, 84
12, 57840, Note_on_c, 4, 60, 84
12, 58064, Note_on_c, 4, 62, 0
12, 58064, Note_on_c, 4, 60, 0
12, 58080, Note_on_c, 4, 55, 84
12, 58080, Note_on_c, 4, 62, 84
12, 58304, Note_on_c, 4, 55, 0
12, 58304, Note_on_c, 4, 62, 0
12, 58320, Note_on_c, 4, 55, 84
12, 58320, Note_on_c, 4, 62, 84
12, 58544, Note_on_c, 4, 55, 0
12, 58544, Note_on_c, 4, 62, 0
12, 58560, Note_on_c, 4, 60, 84
12, 58560, Note_on_c, 4, 48, 84
12, 58739, Note_on_c, 4, 60, 0
12, 58739, Note_on_c, 4, 48, 0
12, 59520, Note_on_c, 4, 62, 84
12, 59699, Note_on_c, 4, 62, 0
12, 68160, Note_on_c, 4, 67, 76
12, 68864, Note_on_c, 4, 67, 0
12, 68880, Note_on_c, 4, 66, 76
12, 69104, Note_on_c, 4, 66, 0
12, 69120, Note_on_c, 4, 64, 76
12, 69344, Note_on_c, 4, 64, 0
12, 69360, Note_on_c, 4, 62, 76
12, 69584, Note_on_c, 4, 62, 0
12, 69600, Note_on_c, 4, 62, 76
12, 69824, Note_on_c, 4, 62, 0
12, 69840, Note_on_c, 4, 62, 76
12, 70064, Note_on_c, 4, 62, 0
12, 70080, Note_on_c, 4, 67, 84
12, 70200, Control_c, 4, 11, 112
12, 70784, Note_on_c, 4, 67, 0
12, 70800, Note_on_c, 4, 66, 84
12, 71024, Note_on_c, 4, 66, 0
12, 71040, Note_on_c, 4, 64, 84
12, 71264, Note_on_c, 4, 64, 0
12, 71280, Note_on_c, 4, 62, 84
12, 71504, Note_on_c, 4, 62, 0
12, 71520, Note_on_c, 4, 62, 84
12, 71744, Note_on_c, 4, 62, 0
12, 71760, Note_on_c, 4, 62, 84
12, 71984, Note_on_c, 4, 62, 0
12, 71998, Control_c, 4, 11, 127
12, 72000, Note_on_c, 4, 62, 84
12, 72120, Control_c, 4, 11, 112
12, 72704, Note_on_c, 4, 62, 0
12, 72720, Note_on_c, 4, 55, 84
12, 72720, Note_on_c, 4, 67, 84
12, 72944, Note_on_c, 4, 55, 0
12, 72944, Note_on_c, 4, 67, 0
12, 72958, Control_c, 4, 11, 127
12, 72960, Note_on_c, 4, 48, 76
12, 72960, Note_on_c, 4, 60, 76
12, 73184, Note_on_c, 4, 48, 0
12, 73184, Note_on_c, 4, 60, 0
12, 73200, Note_on_c, 4, 48, 80
12, 73200, Note_on_c, 4, 60, 80
12, 73424, Note_on_c, 4, 48, 0
12, 73424, Note_on_c, 4, 60, 0
12, 73440, Note_on_c, 4, 48, 80
12, 73440, Note_on_c, 4, 60, 80
12, 73664, Note_on_c, 4, 48, 0
12, 73664, Note_on_c, 4, 60, 0
12, 73680, Note_on_c, 4, 48, 80
12, 73680, Note_on_c, 4, 60, 80
12, 73904, Note_on_c, 4, 48, 0
12, 73904, Note_on_c, 4, 60, 0
12, 73920, Note_on_c, 4, 48, 80
12, 73920, Note_on_c, 4, 60, 80
12, 74144, Note_on_c, 4, 48, 0
12, 74144, Note_on_c, 4, 60, 0
12, 74160, Note_on_c, 4, 48, 80
12, 74160, Note_on_c, 4, 60, 80
12, 74384, Note_on_c, 4, 48, 0
12, 74384, Note_on_c, 4, 60, 0
12, 74400, Note_on_c, 4, 60, 80
12, 74400, Note_on_c, 4, 48, 80
12, 74624, Note_on_c, 4, 60, 0
12, 74624, Note_on_c, 4, 48, 0
12, 74640, Note_on_c, 4, 60, 80
12, 74640, Note_on_c, 4, 48, 80
12, 74864, Note_on_c, 4, 60, 0
12, 74864, Note_on_c, 4, 48, 0
12, 74880, Note_on_c, 4, 60, 80
12, 74880, Note_on_c, 4, 48, 80
12, 75104, Note_on_c, 4, 60, 0
12, 75104, Note_on_c, 4, 48, 0
12, 75120, Note_on_c, 4, 48, 80
12, 75120, Note_on_c, 4, 60, 80
12, 75344, Note_on_c, 4, 48, 0
12, 75344, Note_on_c, 4, 60, 0
12, 75360, Note_on_c, 4, 48, 80
12, 75360, Note_on_c, 4, 60, 80
12, 75584, Note_on_c, 4, 48, 0
12, 75584, Note_on_c, 4, 60, 0
12, 75600, Note_on_c, 4, 48, 80
12, 75600, Note_on_c, 4, 60, 80
12, 75824, Note_on_c, 4, 48, 0
12, 75824, Note_on_c, 4, 60, 0
12, 75840, Note_on_c, 4, 60, 84
12, 75840, Note_on_c, 4, 48, 84
12, 77744, Note_on_c, 4, 60, 0
12, 77744, Note_on_c, 4, 48, 0
12, 77760, Note_on_c, 4, 43, 84
12, 77760, Note_on_c, 4, 55, 84
12, 78464, Note_on_c, 4, 43, 0
12, 78464, Note_on_c, 4, 55, 0
12, 78480, Note_on_c, 4, 55, 84
12, 78480, Note_on_c, 4, 62, 84
12, 78584, Note_on_c, 4, 55, 0
12, 78584, Note_on_c, 4, 62, 0
12, 78600, Note_on_c, 4, 62, 84
12, 78600, Note_on_c, 4, 55, 84
12, 78704, Note_on_c, 4, 62, 0
12, 78704, Note_on_c, 4, 55, 0
12, 78720, Note_on_c, 4, 55, 84
12, 78720, Note_on_c, 4, 62, 84
12, 79424, Note_on_c, 4, 55, 0
12, 79424, Note_on_c, 4, 62, 0
12, 79440, Note_on_c, 4, 55, 84
12, 79440, Note_on_c, 4, 62, 84
12, 79544, Note_on_c, 4, 55, 0
12, 79544, Note_on_c, 4, 62, 0
12, 79560, Note_on_c, 4, 55, 84
12, 79560, Note_on_c, 4, 62, 84
12, 79664, Note_on_c, 4, 55, 0
12, 79664, Note_on_c, 4, 62, 0
12, 79680, Note_on_c, 4, 62, 84
12, 79680, Note_on_c, 4, 55, 84
12, 79904, Note_on_c, 4, 62, 0
12, 79904, Note_on_c, 4, 55, 0
12, 79920, Note_on_c, 4, 55, 84
12, 79920, Note_on_c, 4, 62, 84
12, 80024, Note_on_c, 4, 55, 0
12, 80024, Note_on_c, 4, 62, 0
12, 80040, Note_on_c, 4, 62, 84
12, 80040, Note_on_c, 4, 55, 84
12, 80144, Note_on_c, 4, 62, 0
12, 80144, Note_on_c, 4, 55, 0
12, 80160, Note_on_c, 4, 62, 84
12, 80160, Note_on_c, 4, 55, 84
12, 80384, Note_on_c, 4, 62, 0
12, 80384, Note_on_c, 4, 55, 0
12, 80400, Note_on_c, 4, 62, 84
12, 80400, Note_on_c, 4, 55, 84
12, 80504, Note_on_c, 4, 62, 0
12, 80504, Note_on_c, 4, 55, 0
12, 80520, Note_on_c, 4, 55, 84
12, 80520, Note_on_c, 4, 62, 84
12, 80624, Note_on_c, 4, 55, 0
12, 80624, Note_on_c, 4, 62, 0
12, 80640, Note_on_c, 4, 55, 84
12, 80640, Note_on_c, 4, 62, 84
12, 80744, Note_on_c, 4, 55, 0
12, 80744, Note_on_c, 4, 62, 0
12, 80760, Note_on_c, 4, 55, 84
12, 80760, Note_on_c, 4, 62, 84
12, 80864, Note_on_c, 4, 55, 0
12, 80864, Note_on_c, 4, 62, 0
12, 80880, Note_on_c, 4, 55, 84
12, 80880, Note_on_c, 4, 62, 84
12, 81119, Note_on_c, 4, 55, 0
12, 81119, Note_on_c, 4, 62, 0
12, 81360, Note_on_c, 4, 62, 84
12, 81360, Note_on_c, 4, 55, 84
12, 81584, Note_on_c, 4, 62, 0
12, 81584, Note_on_c, 4, 55, 0
12, 81600, Note_on_c, 4, 60, 84
12, 81600, Note_on_c, 4, 52, 84
12, 82064, Note_on_c, 4, 60, 0
12, 82064, Note_on_c, 4, 52, 0
12, 82080, Note_on_c, 4, 64, 84
12, 82080, Note_on_c, 4, 60, 84
12, 82544, Note_on_c, 4, 64, 0
12, 82544, Note_on_c, 4, 60, 0
12, 82560, Note_on_c, 4, 64, 84
12, 82560, Note_on_c, 4, 67, 84
12, 83264, Note_on_c, 4, 64, 0
12, 83264, Note_on_c, 4, 67, 0
12, 83280, Note_on_c, 4, 65, 84
12, 83280, Note_on_c, 4, 62, 84
12, 83399, Note_on_c, 4, 65, 0
12, 83399, Note_on_c, 4, 62, 0
12, 83520, Note_on_c, 4, 60, 84
12, 83520, Note_on_c, 4, 64, 84
12, 83639, Note_on_c, 4, 60, 0
12, 83639, Note_on_c, 4, 64, 0
12, 83760, Note_on_c, 4, 62, 84
12, 83760, Note_on_c, 4, 55, 84
12, 83879, Note_on_c, 4, 62, 0
12, 83879, Note_on_c, 4, 55, 0
12, 84000, Note_on_c, 4, 60, 84
12, 84000, Note_on_c, 4, 52, 84
12, 84119, Note_on_c, 4, 60, 0
12, 84119, Note_on_c, 4, 52, 0
12, 84240, Note_on_c, 4, 55, 84
12, 84240, Note_on_c, 4, 62, 84
12, 84359, Note_on_c, 4, 55, 0
12, 84359, Note_on_c, 4, 62, 0
12, 84480, Note_on_c, 4, 52, 84
12, 84480, Note_on_c, 4, 60, 84
12, 85184, Note_on_c, 4, 52, 0
12, 85184, Note_on_c, 4, 60, 0
12, 85200, Note_on_c, 4, 60, 84
12, 85200, Note_on_c, 4, 52, 84
12, 85371, Note_on_c, 4, 60, 0
12, 85371, Note_on_c, 4, 52, 0
12, 85380, Note_on_c, 4, 60, 84
12, 85380, Note_on_c, 4, 52, 84
12, 85431, Note_on_c, 4, 60, 0
12, 85431, Note_on_c, 4, 52, 0
12, 85440, Note_on_c, 4, 62, 84
12, 85440, Note_on_c, 4, 55, 84
12, 86144, Note_on_c, 4, 62, 0
12, 86144, Note_on_c, 4, 55, 0
12, 86160, Note_on_c, 4, 55, 84
12, 86160, Note_on_c, 4, 62, 84
12, 86331, Note_on_c, 4, 55, 0
12, 86331, Note_on_c, 4, 62, 0
12, 86340, Note_on_c, 4, 55, 84
12, 86340, Note_on_c, 4, 62, 84
12, 86391, Note_on_c, 4, 55, 0
12, 86391, Note_on_c, 4, 62, 0
12, 86400, Note_on_c, 4, 60, 84
12, 86400, Note_on_c, 4, 64, 84
12, 86984, Note_on_c, 4, 60, 0
12, 86984, Note_on_c, 4, 64, 0
12, 87000, Note_on_c, 4, 48, 84
12, 87000, Note_on_c, 4, 60, 84
12, 87104, Note_on_c, 4, 48, 0
12, 87104, Note_on_c, 4, 60, 0
12, 87120, Note_on_c, 4, 48, 84
12, 87120, Note_on_c, 4, 60, 84
12, 87224, Note_on_c, 4, 48, 0
12, 87224, Note_on_c, 4, 60, 0
12, 87240, Note_on_c, 4, 48, 84
12, 87240, Note_on_c, 4, 60, 84
12, 87344, Note_on_c, 4, 48, 0
12, 87344, Note_on_c, 4, 60, 0
12, 87360, Note_on_c, 4, 48, 84
12, 87360, Note_on_c, 4, 60, 84
12, 87584, Note_on_c, 4, 48, 0
12, 87584, Note_on_c, 4, 60, 0
12, 87600, Note_on_c, 4, 60, 84
12, 87600, Note_on_c, 4, 48, 84
12, 87704, Note_on_c, 4, 60, 0
12, 87704, Note_on_c, 4, 48, 0
12, 87720, Note_on_c, 4, 48, 84
12, 87720, Note_on_c, 4, 60, 84
12, 87824, Note_on_c, 4, 48, 0
12, 87824, Note_on_c, 4, 60, 0
12, 87840, Note_on_c, 4, 60, 84
12, 87840, Note_on_c, 4, 48, 84
12, 88064, Note_on_c, 4, 60, 0
12, 88064, Note_on_c, 4, 48, 0
12, 88080, Note_on_c, 4, 48, 84
12, 88080, Note_on_c, 4, 60, 84
12, 88184, Note_on_c, 4, 48, 0
12, 88184, Note_on_c, 4, 60, 0
12, 88200, Note_on_c, 4, 60, 84
12, 88200, Note_on_c, 4, 48, 84
12, 88304, Note_on_c, 4, 60, 0
12, 88304, Note_on_c, 4, 48, 0
12, 88320, Note_on_c, 4, 60, 84
12, 88320, Note_on_c, 4, 48, 84
12, 88904, Note_on_c, 4, 60, 0
12, 88904, Note_on_c, 4, 48, 0
12, 88920, Note_on_c, 4, 60, 84
12, 88920, Note_on_c, 4, 48, 84
12, 89024, Note_on_c, 4, 60, 0
12, 89024, Note_on_c, 4, 48, 0
12, 89040, Note_on_c, 4, 60, 84
12, 89040, Note_on_c, 4, 48, 84
12, 89144, Note_on_c, 4, 60, 0
12, 89144, Note_on_c, 4, 48, 0
12, 89160, Note_on_c, 4, 60, 84
12, 89160, Note_on_c, 4, 48, 84
12, 89264, Note_on_c, 4, 60, 0
12, 89264, Note_on_c, 4, 48, 0
12, 89280, Note_on_c, 4, 48, 84
12, 89280, Note_on_c, 4, 60, 84
12, 89504, Note_on_c, 4, 48, 0
12, 89504, Note_on_c, 4, 60, 0
12, 89520, Note_on_c, 4, 48, 84
12, 89520, Note_on_c, 4, 60, 84
12, 89624, Note_on_c, 4, 48, 0
12, 89624, Note_on_c, 4, 60, 0
12, 89640, Note_on_c, 4, 60, 84
12, 89640, Note_on_c, 4, 48, 84
12, 89744, Note_on_c, 4, 60, 0
12, 89744, Note_on_c, 4, 48, 0
12, 89760, Note_on_c, 4, 48, 84
12, 89760, Note_on_c, 4, 60, 84
12, 89984, Note_on_c, 4, 48, 0
12, 89984, Note_on_c, 4, 60, 0
12, 90000, Note_on_c, 4, 48, 84
12, 90000, Note_on_c, 4, 60, 84
12, 90104, Note_on_c, 4, 48, 0
12, 90104, Note_on_c, 4, 60, 0
12, 90120, Note_on_c, 4, 48, 84
12, 90120, Note_on_c, 4, 60, 84
12, 90224, Note_on_c, 4, 48, 0
12, 90224, Note_on_c, 4, 60, 0
12, 90240, Note_on_c, 4, 60, 84
12, 90240, Note_on_c, 4, 48, 84
12, 90824, Note_on_c, 4, 60, 0
12, 90824, Note_on_c, 4, 48, 0
12, 90840, Note_on_c, 4, 48, 84
12, 90840, Note_on_c, 4, 60, 84
12, 90944, Note_on_c, 4, 48, 0
12, 90944, Note_on_c, 4, 60, 0
12, 90960, Note_on_c, 4, 48, 84
12, 90960, Note_on_c, 4, 60, 84
12, 91064, Note_on_c, 4, 48, 0
12, 91064, Note_on_c, 4, 60, 0
12, 91080, Note_on_c, 4, 48, 84
12, 91080, Note_on_c, 4, 60, 84
12, 91184, Note_on_c, 4, 48, 0
12, 91184, Note_on_c, 4, 60, 0
12, 91200, Note_on_c, 4, 48, 84
12, 91200, Note_on_c, 4, 60, 84
12, 91424, Note_on_c, 4, 48, 0
12, 91424, Note_on_c, 4, 60, 0
12, 91440, Note_on_c, 4, 60, 84
12, 91440, Note_on_c, 4, 48, 84
12, 91544, Note_on_c, 4, 60, 0
12, 91544, Note_on_c, 4, 48, 0
12, 91560, Note_on_c, 4, 48, 84
12, 91560, Note_on_c, 4, 60, 84
12, 91664, Note_on_c, 4, 48, 0
12, 91664, Note_on_c, 4, 60, 0
12, 91680, Note_on_c, 4, 60, 84
12, 91680, Note_on_c, 4, 48, 84
12, 91904, Note_on_c, 4, 60, 0
12, 91904, Note_on_c, 4, 48, 0
12, 91920, Note_on_c, 4, 48, 84
12, 91920, Note_on_c, 4, 60, 84
12, 92024, Note_on_c, 4, 48, 0
12, 92024, Note_on_c, 4, 60, 0
12, 92040, Note_on_c, 4, 60, 84
12, 92040, Note_on_c, 4, 48, 84
12, 92144, Note_on_c, 4, 60, 0
12, 92144, Note_on_c, 4, 48, 0
12, 92160, Note_on_c, 4, 48, 84
12, 92160, Note_on_c, 4, 60, 84
12, 92864, Note_on_c, 4, 48, 0
12, 92864, Note_on_c, 4, 60, 0
12, 92880, Note_on_c, 4, 48, 84
12, 92880, Note_on_c, 4, 64, 84
12, 93051, Note_on_c, 4, 48, 0
12, 93051, Note_on_c, 4, 64, 0
12, 93060, Note_on_c, 4, 48, 84
12, 93060, Note_on_c, 4, 64, 84
12, 93111, Note_on_c, 4, 48, 0
12, 93111, Note_on_c, 4, 64, 0
12, 93120, Note_on_c, 4, 62, 84
12, 93120, Note_on_c, 4, 43, 84
12, 93344, Note_on_c, 4, 62, 0
12, 93344, Note_on_c, 4, 43, 0
12, 93360, Note_on_c, 4, 62, 84
12, 93360, Note_on_c, 4, 43, 84
12, 93531, Note_on_c, 4, 62, 0
12, 93531, Note_on_c, 4, 43, 0
12, 93540, Note_on_c, 4, 62, 84
12, 93540, Note_on_c, 4, 43, 84
12, 93591, Note_on_c, 4, 62, 0
12, 93591, Note_on_c, 4, 43, 0
12, 93600, Note_on_c, 4, 48, 84
12, 93600, Note_on_c, 4, 64, 84
12, 93824, Note_on_c, 4, 48, 0
12, 93824, Note_on_c, 4, 64, 0
12, 93840, Note_on_c, 4, 64, 84
12, 93840, Note_on_c, 4, 48, 84
12, 94011, Note_on_c, 4, 64, 0
12, 94011, Note_on_c, 4, 48, 0
12, 94020, Note_on_c, 4, 48, 84
12, 94020, Note_on_c, 4, 64, 84
12, 94071, Note_on_c, 4, 48, 0
12, 94071, Note_on_c, 4, 64, 0
12, 94080, Note_on_c, 4, 43, 84
12, 94080, Note_on_c, 4, 62, 84
12, 94304, Note_on_c, 4, 43, 0
12, 94304, Note_on_c, 4, 62, 0
12, 94320, Note_on_c, 4, 43, 84
12, 94320, Note_on_c, 4, 62, 84
12, 94784, Note_on_c, 4, 43, 0
12, 94784, Note_on_c, 4, 62, 0
12, 94800, Note_on_c, 4, 48, 84
12, 94800, Note_on_c, 4, 64, 84
12, 94971, Note_on_c, 4, 48, 0
12, 94971, Note_on_c, 4, 64, 0
12, 94980, Note_on_c, 4, 48, 84
12, 94980, Note_on_c, 4, 64, 84
12, 95031, Note_on_c, 4, 48, 0
12, 95031, Note_on_c, 4, 64, 0
12, 95040, Note_on_c, 4, 62, 84
12, 95040, Note_on_c, 4, 43, 84
12, 95264, Note_on_c, 4, 62, 0
12, 95264, Note_on_c, 4, 43, 0
12, 95280, Note_on_c, 4, 43, 84
12, 95280, Note_on_c, 4, 62, 84
12, 95451, Note_on_c, 4, 43, 0
12, 95451, Note_on_c, 4, 62, 0
12, 95460, Note_on_c, 4, 43, 84
12, 95460, Note_on_c, 4, 62, 84
12, 95511, Note_on_c, 4, 43, 0
12, 95511, Note_on_c, 4, 62, 0
12, 95520, Note_on_c, 4, 48, 84
12, 95520, Note_on_c, 4, 64, 84
12, 95744, Note_on_c, 4, 48, 0
12, 95744, Note_on_c, 4, 64, 0
12, 95760, Note_on_c, 4, 48, 84
12, 95760, Note_on_c, 4, 64, 84
12, 95931, Note_on_c, 4, 48, 0
12, 95931, Note_on_c, 4, 64, 0
12, 95940, Note_on_c, 4, 48, 84
12, 95940, Note_on_c, 4, 64, 84
12, 95991, Note_on_c, 4, 48, 0
12, 95991, Note_on_c, 4, 64, 0
12, 96000, Note_on_c, 4, 43, 84
12, 96000, Note_on_c, 4, 62, 84
12, 96224, Note_on_c, 4, 43, 0
12, 96224, Note_on_c, 4, 62, 0
12, 96240, Note_on_c, 4, 43, 84
12, 96240, Note_on_c, 4, 62, 84
12, 96704, Note_on_c, 4, 43, 0
12, 96704, Note_on_c, 4, 62, 0
12, 96720, Note_on_c, 4, 48, 84
12, 96720, Note_on_c, 4, 64, 84
12, 96891, Note_on_c, 4, 48, 0
12, 96891, Note_on_c, 4, 64, 0
12, 96900, Note_on_c, 4, 64, 84
12, 96900, Note_on_c, 4, 48, 84
12, 96951, Note_on_c, 4, 64, 0
12, 96951, Note_on_c, 4, 48, 0
12, 96960, Note_on_c, 4, 43, 84
12, 96960, Note_on_c, 4, 62, 84
12, 97131, Note_on_c, 4, 43, 0
12, 97131, Note_on_c, 4, 62, 0
12, 97140, Note_on_c, 4, 62, 84
12, 97140, Note_on_c, 4, 43, 84
12, 97191, Note_on_c, 4, 62, 0
12, 97191, Note_on_c, 4, 43, 0
12, 97200, Note_on_c, 4, 62, 84
12, 97200, Note_on_c, 4, 43, 84
12, 97371, Note_on_c, 4, 62, 0
12, 97371, Note_on_c, 4, 43, 0
12, 97380, Note_on_c, 4, 43, 84
12, 97380, Note_on_c, 4, 62, 84
12, 97431, Note_on_c, 4, 43, 0
12, 97431, Note_on_c, 4, 62, 0
12, 97440, Note_on_c, 4, 48, 84
12, 97440, Note_on_c, 4, 64, 84
12, 97611, Note_on_c, 4, 48, 0
12, 97611, Note_on_c, 4, 64, 0
12, 97620, Note_on_c, 4, 64, 84
12, 97620, Note_on_c, 4, 48, 84
12, 97671, Note_on_c, 4, 64, 0
12, 97671, Note_on_c, 4, 48, 0
12, 97680, Note_on_c, 4, 48, 84
12, 97680, Note_on_c, 4, 64, 84
12, 97851, Note_on_c, 4, 48, 0
12, 97851, Note_on_c, 4, 64, 0
12, 97860, Note_on_c, 4, 64, 84
12, 97860, Note_on_c, 4, 48, 84
12, 97911, Note_on_c, 4, 64, 0
12, 97911, Note_on_c, 4, 48, 0
12, 97920, Note_on_c, 4, 43, 84
12, 97920, Note_on_c, 4, 62, 84
12, 98144, Note_on_c, 4, 43, 0
12, 98144, Note_on_c, 4, 62, 0
12, 98160, Note_on_c, 4, 62, 84
12, 98160, Note_on_c, 4, 55, 84
12, 98384, Note_on_c, 4, 62, 0
12, 98384, Note_on_c, 4, 55, 0
12, 98400, Note_on_c, 4, 64, 84
12, 98400, Note_on_c, 4, 60, 84
12, 98624, Note_on_c, 4, 64, 0
12, 98624, Note_on_c, 4, 60, 0
12, 98640, Note_on_c, 4, 60, 84
12, 98640, Note_on_c, 4, 64, 84
12, 98864, Note_on_c, 4, 60, 0
12, 98864, Note_on_c, 4, 64, 0
12, 98880, Note_on_c, 4, 62, 84
12, 98880, Note_on_c, 4, 55, 84
12, 99104, Note_on_c, 4, 62, 0
12, 99104, Note_on_c, 4, 55, 0
12, 99120, Note_on_c, 4, 55, 84
12, 99120, Note_on_c, 4, 62, 84
12, 99344, Note_on_c, 4, 55, 0
12, 99344, Note_on_c, 4, 62, 0
12, 99360, Note_on_c, 4, 60, 84
12, 99360, Note_on_c, 4, 64, 84
12, 99584, Note_on_c, 4, 60, 0
12, 99584, Note_on_c, 4, 64, 0
12, 99600, Note_on_c, 4, 60, 84
12, 99600, Note_on_c, 4, 64, 84
12, 99824, Note_on_c, 4, 60, 0
12, 99824, Note_on_c, 4, 64, 0
12, 99840, Note_on_c, 4, 62, 84
12, 99840, Note_on_c, 4, 55, 84
12, 99959, Note_on_c, 4, 62, 0
12, 99959, Note_on_c, 4, 55, 0
12, 100020, Note_on_c, 4, 60, 84
12, 100020, Note_on_c, 4, 64, 84
12, 100071, Note_on_c, 4, 60, 0
12, 100071, Note_on_c, 4, 64, 0
12, 100080, Note_on_c, 4, 64, 84
12, 100080, Note_on_c, 4, 60, 84
12, 100304, Note_on_c, 4, 64, 0
12, 100304, Note_on_c, 4, 60, 0
12, 100320, Note_on_c, 4, 55, 84
12, 100320, Note_on_c, 4, 62, 84
12, 100439, Note_on_c, 4, 55, 0
12, 100439, Note_on_c, 4, 62, 0
12, 100500, Note_on_c, 4, 64, 84
12, 100500, Note_on_c, 4, 60, 84
12, 100551, Note_on_c, 4, 64, 0
12, 100551, Note_on_c, 4, 60, 0
12, 100560, Note_on_c, 4, 60, 84
12, 100560, Note_on_c, 4, 64, 84
12, 100784, Note_on_c, 4, 60, 0
12, 100784, Note_on_c, 4, 64, 0
12, 100800, Note_on_c, 4, 62, 84
12, 100800, Note_on_c, 4, 55, 84
12, 100919, Note_on_c, 4, 62, 0
12, 100919, Note_on_c, 4, 55, 0
12, 100980, Note_on_c, 4, 64, 84
12, 100980, Note_on_c, 4, 60, 84
12, 101031, Note_on_c, 4, 64, 0
12, 101031, Note_on_c, 4, 60, 0
12, 101040, Note_on_c, 4, 60, 84
12, 101040, Note_on_c, 4, 64, 84
12, 101264, Note_on_c, 4, 60, 0
12, 101264, Note_on_c, 4, 64, 0
12, 101280, Note_on_c, 4, 62, 84
12, 101280, Note_on_c, 4, 55, 84
12, 101399, Note_on_c, 4, 62, 0
12, 101399, Note_on_c, 4, 55, 0
12, 101460, Note_on_c, 4, 60, 84
12, 101460, Note_on_c, 4, 64, 84
12, 101511, Note_on_c, 4, 60, 0
12, 101511, Note_on_c, 4, 64, 0
12, 101520, Note_on_c, 4, 64, 84
12, 101520, Note_on_c, 4, 60, 84
12, 101744, Note_on_c, 4, 64, 0
12, 101744, Note_on_c, 4, 60, 0
12, 101760, Note_on_c, 4, 55, 84
12, 101760, Note_on_c, 4, 62, 84
12, 101879, Note_on_c, 4, 55, 0
12, 101879, Note_on_c, 4, 62, 0
12, 105600, Note_on_c, 4, 52, 84
12, 105600, Note_on_c, 4, 60, 84
12, 106304, Note_on_c, 4, 52, 0
12, 106304, Note_on_c, 4, 60, 0
12, 106320, Note_on_c, 4, 52, 84
12, 106320, Note_on_c, 4, 55, 84
12, 106559, Note_on_c, 4, 52, 0
12, 106559, Note_on_c, 4, 55, 0
12, 106560, Note_on_c, 4, 64, 84
12, 106560, Note_on_c, 4, 55, 84
12, 107279, Note_on_c, 4, 64, 0
12, 107279, Note_on_c, 4, 55, 0
12, 107280, Note_on_c, 4, 62, 84
12, 107280, Note_on_c, 4, 55, 84
12, 107459, Note_on_c, 4, 62, 0
12, 107459, Note_on_c, 4, 55, 0
12, 107460, Note_on_c, 4, 60, 84
12, 107460, Note_on_c, 4, 52, 84
12, 107511, Note_on_c, 4, 60, 0
12, 107511, Note_on_c, 4, 52, 0
12, 107520, Note_on_c, 4, 62, 84
12, 107520, Note_on_c, 4, 55, 84
12, 109424, Note_on_c, 4, 62, 0
12, 109424, Note_on_c, 4, 55, 0
12, 109440, Note_on_c, 4, 62, 84
12, 109440, Note_on_c, 4, 55, 84
12, 110144, Note_on_c, 4, 62, 0
12, 110144, Note_on_c, 4, 55, 0
12, 110160, Note_on_c, 4, 55, 84
12, 110399, Note_on_c, 4, 55, 0
12, 110400, Note_on_c, 4, 62, 84
12, 110400, Note_on_c, 4, 65, 84
12, 111119, Note_on_c, 4, 62, 0
12, 111119, Note_on_c, 4, 65, 0
12, 111120, Note_on_c, 4, 60, 84
12, 111120, Note_on_c, 4, 64, 84
12, 111299, Note_on_c, 4, 60, 0
12, 111299, Note_on_c, 4, 64, 0
12, 111300, Note_on_c, 4, 55, 84
12, 111300, Note_on_c, 4, 62, 84
12, 111351, Note_on_c, 4, 55, 0
12, 111351, Note_on_c, 4, 62, 0
12, 111360, Note_on_c, 4, 62, 84
12, 111360, Note_on_c, 4, 55, 84
12, 111599, Note_on_c, 4, 62, 0
12, 111599, Note_on_c, 4, 55, 0
12, 111600, Note_on_c, 4, 64, 84
12, 111600, Note_on_c, 4, 60, 84
12, 113264, Note_on_c, 4, 64, 0
12, 113264, Note_on_c, 4, 60, 0
12, 113280, Note_on_c, 4, 48, 84
12, 113280, Note_on_c, 4, 60, 84
12, 114224, Note_on_c, 4, 48, 0
12, 114224, Note_on_c, 4, 60, 0
12, 114240, Note_on_c, 4, 60, 84
12, 114240, Note_on_c, 4, 48, 84
12, 115184, Note_on_c, 4, 60, 0
12, 115184, Note_on_c, 4, 48, 0
12, 115200, Note_on_c, 4, 62, 84
12, 116144, Note_on_c, 4, 62, 0
12, 116160, Note_on_c, 4, 62, 84
12, 117104, Note_on_c, 4, 62, 0
12, 117120, Note_on_c, 4, 62, 84
12, 118064, Note_on_c, 4, 62, 0
12, 118080, Note_on_c, 4, 62, 84
12, 119024, Note_on_c, 4, 62, 0
12, 119040, Note_on_c, 4, 62, 84
12, 119984, Note_on_c, 4, 62, 0
12, 120000, Note_on_c, 4, 62, 84
12, 120584, Note_on_c, 4, 62, 0
12, 120600, Note_on_c, 4, 62, 84
12, 120824, Note_on_c, 4, 62, 0
12, 120840, Note_on_c, 4, 62, 84
12, 121064, Note_on_c, 4, 62, 0
12, 121080, Note_on_c, 4, 62, 84
12, 121304, Note_on_c, 4, 62, 0
12, 121320, Note_on_c, 4, 62, 84
12, 121424, Note_on_c, 4, 62, 0
12, 121440, Note_on_c, 4, 62, 84
12, 121544, Note_on_c, 4, 62, 0
12, 121560, Note_on_c, 4, 62, 84
12, 121679, Note_on_c, 4, 62, 0
12, 121680, Note_on_c, 4, 64, 84
12, 121784, Note_on_c, 4, 64, 0
12, 121800, Note_on_c, 4, 64, 84
12, 121889, Note_on_c, 4, 64, 0
12, 121920, Note_on_c, 4, 62, 84
12, 122039, Note_on_c, 4, 62, 0
12, 123840, Note_on_c, 4, 67, 84
12, 123840, Note_on_c, 4, 55, 84
12, 124784, Note_on_c, 4, 67, 0
12, 124784, Note_on_c, 4, 55, 0
12, 124800, Note_on_c, 4, 67, 84
12, 124800, Note_on_c, 4, 55, 84
12, 125519, Note_on_c, 4, 67, 0
12, 125519, Note_on_c, 4, 55, 0
12, 127440, Note_on_c, 4, 62, 76
12, 127507, Note_on_c, 4, 62, 0
12, 127520, Note_on_c, 4, 62, 76
12, 127587, Note_on_c, 4, 62, 0
12, 127600, Note_on_c, 4, 62, 76
12, 127667, Note_on_c, 4, 62, 0
12, 127680, Note_on_c, 4, 55, 76
12, 127904, Note_on_c, 4, 55, 0
12, 127920, Note_on_c, 4, 55, 76
12, 127987, Note_on_c, 4, 55, 0
12, 128000, Note_on_c, 4, 55, 76
12, 128067, Note_on_c, 4, 55, 0
12, 128080, Note_on_c, 4, 55, 76
12, 128147, Note_on_c, 4, 55, 0
12, 128160, Note_on_c, 4, 55, 76
12, 128384, Note_on_c, 4, 55, 0
12, 128400, Note_on_c, 4, 55, 76
12, 128467, Note_on_c, 4, 55, 0
12, 128480, Note_on_c, 4, 55, 76
12, 128547, Note_on_c, 4, 55, 0
12, 128560, Note_on_c, 4, 55, 76
12, 128627, Note_on_c, 4, 55, 0
12, 128640, Note_on_c, 4, 55, 76
12, 128864, Note_on_c, 4, 55, 0
12, 128880, Note_on_c, 4, 55, 76
12, 128947, Note_on_c, 4, 55, 0
12, 128960, Note_on_c, 4, 55, 76
12, 129027, Note_on_c, 4, 55, 0
12, 129040, Note_on_c, 4, 55, 76
12, 129107, Note_on_c, 4, 55, 0
12, 129120, Note_on_c, 4, 55, 76
12, 129359, Note_on_c, 4, 55, 0
12, 133200, Note_on_c, 4, 52, 48
12, 133200, Note_on_c, 4, 60, 48
12, 133267, Note_on_c, 4, 52, 0
12, 133267, Note_on_c, 4, 60, 0
12, 133280, Note_on_c, 4, 55, 48
12, 133280, Note_on_c, 4, 62, 48
12, 133347, Note_on_c, 4, 55, 0
12, 133347, Note_on_c, 4, 62, 0
12, 133360, Note_on_c, 4, 60, 48
12, 133360, Note_on_c, 4, 64, 48
12, 133427, Note_on_c, 4, 60, 0
12, 133427, Note_on_c, 4, 64, 0
12, 133440, Note_on_c, 4, 62, 48
12, 133440, Note_on_c, 4, 65, 48
12, 133664, Note_on_c, 4, 62, 0
12, 133664, Note_on_c, 4, 65, 0
12, 133680, Note_on_c, 4, 55, 48
12, 133680, Note_on_c, 4, 62, 48
12, 133747, Note_on_c, 4, 55, 0
12, 133747, Note_on_c, 4, 62, 0
12, 133760, Note_on_c, 4, 64, 48
12, 133760, Note_on_c, 4, 60, 48
12, 133827, Note_on_c, 4, 64, 0
12, 133827, Note_on_c, 4, 60, 0
12, 133840, Note_on_c, 4, 65, 48
12, 133840, Note_on_c, 4, 62, 48
12, 133907, Note_on_c, 4, 65, 0
12, 133907, Note_on_c, 4, 62, 0
12, 133920, Note_on_c, 4, 64, 48
12, 133920, Note_on_c, 4, 60, 48
12, 134144, Note_on_c, 4, 64, 0
12, 134144, Note_on_c, 4, 60, 0
12, 134160, Note_on_c, 4, 60, 48
12, 134160, Note_on_c, 4, 52, 48
12, 134227, Note_on_c, 4, 60, 0
12, 134227, Note_on_c, 4, 52, 0
12, 134240, Note_on_c, 4, 55, 48
12, 134240, Note_on_c, 4, 62, 48
12, 134307, Note_on_c, 4, 55, 0
12, 134307, Note_on_c, 4, 62, 0
12, 134320, Note_on_c, 4, 60, 48
12, 134320, Note_on_c, 4, 64, 48
12, 134387, Note_on_c, 4, 60, 0
12, 134387, Note_on_c, 4, 64, 0
12, 134398, Control_c, 4, 11, 64
12, 134400, Note_on_c, 4, 55, 84
12, 134400, Note_on_c, 4, 65, 84
12, 134400, Control_c, 4, 11, 64
12, 134453, Control_c, 4, 11, 66
12, 134507, Control_c, 4, 11, 68
12, 134560, Control_c, 4, 11, 69
12, 134613, Control_c, 4, 11, 71
12, 134667, Control_c, 4, 11, 73
12, 134720, Control_c, 4, 11, 75
12, 134773, Control_c, 4, 11, 76
12, 134827, Control_c, 4, 11, 78
12, 134880, Control_c, 4, 11, 80
12, 134933, Control_c, 4, 11, 82
12, 134987, Control_c, 4, 11, 83
12, 135040, Control_c, 4, 11, 85
12, 135093, Control_c, 4, 11, 87
12, 135147, Control_c, 4, 11, 89
12, 135200, Control_c, 4, 11, 90
12, 135253, Control_c, 4, 11, 92
12, 135307, Control_c, 4, 11, 94
12, 135360, Control_c, 4, 11, 96
12, 135413, Control_c, 4, 11, 97
12, 135467, Control_c, 4, 11, 99
12, 135520, Control_c, 4, 11, 101
12, 135573, Control_c, 4, 11, 103
12, 135627, Control_c, 4, 11, 104
12, 135680, Control_c, 4, 11, 106
12, 135733, Control_c, 4, 11, 108
12, 135787, Control_c, 4, 11, 110
12, 135840, Control_c, 4, 11, 111
12, 135893, Control_c, 4, 11, 113
12, 135947, Control_c, 4, 11, 115
12, 136000, Control_c, 4, 11, 117
12, 136053, Control_c, 4, 11, 118
12, 136107, Control_c, 4, 11, 120
12, 136160, Control_c, 4, 11, 122
12, 136213, Control_c, 4, 11, 124
12, 136267, Control_c, 4, 11, 127
12, 136304, Note_on_c, 4, 55, 0
12, 136304, Note_on_c, 4, 65, 0
12, 136320, Note_on_c, 4, 64, 84
12, 136320, Note_on_c, 4, 48, 84
12, 138464, Note_on_c, 4, 64, 0
12, 138464, Note_on_c, 4, 48, 0
12, 138480, Note_on_c, 4, 55, 84
12, 138480, Note_on_c, 4, 67, 84
12, 138704, Note_on_c, 4, 55, 0
12, 138704, Note_on_c, 4, 67, 0
12, 138720, Note_on_c, 4, 55, 84
12, 138720, Note_on_c, 4, 67, 84
12, 138944, Note_on_c, 4, 55, 0
12, 138944, Note_on_c, 4, 67, 0
12, 138960, Note_on_c, 4, 55, 84
12, 138960, Note_on_c, 4, 67, 84
12, 139184, Note_on_c, 4, 55, 0
12, 139184, Note_on_c, 4, 67, 0
12, 139200, Note_on_c, 4, 67, 84
12, 139200, Note_on_c, 4, 55, 84
12, 139424, Note_on_c, 4, 67, 0
12, 139424, Note_on_c, 4, 55, 0
12, 139440, Note_on_c, 4, 62, 84
12, 139440, Note_on_c, 4, 60, 84
12, 139664, Note_on_c, 4, 62, 0
12, 139664, Note_on_c, 4, 60, 0
12, 139680, Note_on_c, 4, 62, 84
12, 139680, Note_on_c, 4, 55, 84
12, 139904, Note_on_c, 4, 62, 0
12, 139904, Note_on_c, 4, 55, 0
12, 139920, Note_on_c, 4, 55, 84
12, 139920, Note_on_c, 4, 62, 84
12, 140144, Note_on_c, 4, 55, 0
12, 140144, Note_on_c, 4, 62, 0
12, 140160, Note_on_c, 4, 48, 84
12, 140160, Note_on_c, 4, 60, 84
12, 140339, Note_on_c, 4, 48, 0
12, 140339, Note_on_c, 4, 60, 0
12, 141120, Note_on_c, 4, 62, 84
12, 141299, Note_on_c, 4, 62, 0
12, 149760, Note_on_c, 4, 67, 76
12, 150464, Note_on_c, 4, 67, 0
12, 150480, Note_on_c, 4, 66, 76
12, 150704, Note_on_c, 4, 66, 0
12, 150720, Note_on_c, 4, 64, 76
12, 150944, Note_on_c, 4, 64, 0
12, 150960, Note_on_c, 4, 62, 76
12, 151184, Note_on_c, 4, 62, 0
12, 151200, Note_on_c, 4, 62, 76
12, 151424, Note_on_c, 4, 62, 0
12, 151440, Note_on_c, 4, 62, 76
12, 151664, Note_on_c, 4, 62, 0
12, 151680, Note_on_c, 4, 67, 84
12, 151800, Control_c, 4, 11, 112
12, 152384, Note_on_c, 4, 67, 0
12, 152400, Note_on_c, 4, 66, 84
12, 152624, Note_on_c, 4, 66, 0
12, 152640, Note_on_c, 4, 64, 84
12, 152864, Note_on_c, 4, 64, 0
12, 152880, Note_on_c, 4, 62, 84
12, 153104, Note_on_c, 4, 62, 0
12, 153120, Note_on_c, 4, 62, 84
12, 153344, Note_on_c, 4, 62, 0
12, 153360, Note_on_c, 4, 62, 84
12, 153584, Note_on_c, 4, 62, 0
12, 153598, Control_c, 4, 11, 127
12, 153600, Note_on_c, 4, 62, 84
12, 153720, Control_c, 4, 11, 112
12, 154304, Note_on_c, 4, 62, 0
12, 154320, Note_on_c, 4, 55, 84
12, 154320, Note_on_c, 4, 67, 84
12, 154544, Note_on_c, 4, 55, 0
12, 154544, Note_on_c, 4, 67, 0
12, 154558, Control_c, 4, 11, 127
12, 154560, Note_on_c, 4, 48, 76
12, 154560, Note_on_c, 4, 60, 76
12, 154784, Note_on_c, 4, 48, 0
12, 154784, Note_on_c, 4, 60, 0
12, 154800, Note_on_c, 4, 48, 80
12, 154800, Note_on_c, 4, 60, 80
12, 155024, Note_on_c, 4, 48, 0
12, 155024, Note_on_c, 4, 60, 0
12, 155040, Note_on_c, 4, 60, 80
12, 155040, Note_on_c, 4, 48, 80
12, 155264, Note_on_c, 4, 60, 0
12, 155264, Note_on_c, 4, 48, 0
12, 155280, Note_on_c, 4, 60, 80
12, 155280, Note_on_c, 4, 48, 80
12, 155504, Note_on_c, 4, 60, 0
12, 155504, Note_on_c, 4, 48, 0
12, 155520, Note_on_c, 4, 48, 80
12, 155520, Note_on_c, 4, 60, 80
12, 155744, Note_on_c, 4, 48, 0
12, 155744, Note_on_c, 4, 60, 0
12, 155760, Note_on_c, 4, 48, 80
12, 155760, Note_on_c, 4, 60, 80
12, 155984, Note_on_c, 4, 48, 0
12, 155984, Note_on_c, 4, 60, 0
12, 156000, Note_on_c, 4, 60, 80
12, 156000, Note_on_c, 4, 48, 80
12, 156224, Note_on_c, 4, 60, 0
12, 156224, Note_on_c, 4, 48, 0
12, 156240, Note_on_c, 4, 60, 80
12, 156240, Note_on_c, 4, 48, 80
12, 156464, Note_on_c, 4, 60, 0
12, 156464, Note_on_c, 4, 48, 0
12, 156480, Note_on_c, 4, 60, 80
12, 156480, Note_on_c, 4, 48, 80
12, 156704, Note_on_c, 4, 60, 0
12, 156704, Note_on_c, 4, 48, 0
12, 156720, Note_on_c, 4, 48, 80
12, 156720, Note_on_c, 4, 60, 80
12, 156944, Note_on_c, 4, 48, 0
12, 156944, Note_on_c, 4, 60, 0
12, 156960, Note_on_c, 4, 48, 80
12, 156960, Note_on_c, 4, 60, 80
12, 157184, Note_on_c, 4, 48, 0
12, 157184, Note_on_c, 4, 60, 0
12, 157200, Note_on_c, 4, 60, 80
12, 157200, Note_on_c, 4, 48, 80
12, 157424, Note_on_c, 4, 60, 0
12, 157424, Note_on_c, 4, 48, 0
12, 157440, Note_on_c, 4, 60, 84
12, 157440, Note_on_c, 4, 48, 84
12, 159344, Note_on_c, 4, 60, 0
12, 159344, Note_on_c, 4, 48, 0
12, 159360, Note_on_c, 4, 43, 84
12, 159360, Note_on_c, 4, 55, 84
12, 160064, Note_on_c, 4, 43, 0
12, 160064, Note_on_c, 4, 55, 0
12, 160080, Note_on_c, 4, 62, 84
12, 160080, Note_on_c, 4, 55, 84
12, 160184, Note_on_c, 4, 62, 0
12, 160184, Note_on_c, 4, 55, 0
12, 160200, Note_on_c, 4, 55, 84
12, 160200, Note_on_c, 4, 62, 84
12, 160304, Note_on_c, 4, 55, 0
12, 160304, Note_on_c, 4, 62, 0
12, 160320, Note_on_c, 4, 55, 84
12, 160320, Note_on_c, 4, 62, 84
12, 161024, Note_on_c, 4, 55, 0
12, 161024, Note_on_c, 4, 62, 0
12, 161040, Note_on_c, 4, 55, 84
12, 161040, Note_on_c, 4, 62, 84
12, 161144, Note_on_c, 4, 55, 0
12, 161144, Note_on_c, 4, 62, 0
12, 161160, Note_on_c, 4, 55, 84
12, 161160, Note_on_c, 4, 62, 84
12, 161264, Note_on_c, 4, 55, 0
12, 161264, Note_on_c, 4, 62, 0
12, 161280, Note_on_c, 4, 55, 84
12, 161280, Note_on_c, 4, 62, 84
12, 161504, Note_on_c, 4, 55, 0
12, 161504, Note_on_c, 4, 62, 0
12, 161520, Note_on_c, 4, 55, 84
12, 161520, Note_on_c, 4, 62, 84
12, 161624, Note_on_c, 4, 55, 0
12, 161624, Note_on_c, 4, 62, 0
12, 161640, Note_on_c, 4, 55, 84
12, 161640, Note_on_c, 4, 62, 84
12, 161744, Note_on_c, 4, 55, 0
12, 161744, Note_on_c, 4, 62, 0
12, 161760, Note_on_c, 4, 62, 84
12, 161760, Note_on_c, 4, 55, 84
12, 161984, Note_on_c, 4, 62, 0
12, 161984, Note_on_c, 4, 55, 0
12, 162000, Note_on_c, 4, 55, 84
12, 162000, Note_on_c, 4, 62, 84
12, 162104, Note_on_c, 4, 55, 0
12, 162104, Note_on_c, 4, 62, 0
12, 162120, Note_on_c, 4, 62, 84
12, 162120, Note_on_c, 4, 55, 84
12, 162224, Note_on_c, 4, 62, 0
12, 162224, Note_on_c, 4, 55, 0
12, 162240, Note_on_c, 4, 62, 84
12, 162240, Note_on_c, 4, 55, 84
12, 162344, Note_on_c, 4, 62, 0
12, 162344, Note_on_c, 4, 55, 0
12, 162360, Note_on_c, 4, 55, 84
12, 162360, Note_on_c, 4, 62, 84
12, 162464, Note_on_c, 4, 55, 0
12, 162464, Note_on_c, 4, 62, 0
12, 162480, Note_on_c, 4, 62, 84
12, 162480, Note_on_c, 4, 55, 84
12, 163184, Note_on_c, 4, 62, 0
12, 163184, Note_on_c, 4, 55, 0
12, 163200, Note_on_c, 4, 64, 84
12, 163200, Note_on_c, 4, 52, 84
12, 167024, Note_on_c, 4, 64, 0
12, 167024, Note_on_c, 4, 52, 0
12, 167040, Note_on_c, 4, 64, 84
12, 167040, Note_on_c, 4, 52, 84
12, 167279, Note_on_c, 4, 64, 0
12, 167279, Note_on_c, 4, 52, 0
12, 168000, Note_on_c, 4, 64, 84
12, 168719, Note_on_c, 4, 64, 0
12, 172560, Note_on_c, 4, 60, 52
12, 172560, Note_on_c, 4, 48, 52
12, 172784, Note_on_c, 4, 60, 0
12, 172784, Note_on_c, 4, 48, 0
12, 172800, Note_on_c, 4, 48, 52
12, 172800, Note_on_c, 4, 60, 52
12, 173024, Note_on_c, 4, 48, 0
12, 173024, Note_on_c, 4, 60, 0
12, 173040, Note_on_c, 4, 60, 52
12, 173040, Note_on_c, 4, 48, 52
12, 173264, Note_on_c, 4, 60, 0
12, 173264, Note_on_c, 4, 48, 0
12, 173280, Note_on_c, 4, 48, 52
12, 173280, Note_on_c, 4, 60, 52
12, 173504, Note_on_c, 4, 48, 0
12, 173504, Note_on_c, 4, 60, 0
12, 173520, Note_on_c, 4, 48, 52
12, 173520, Note_on_c, 4, 60, 52
12, 173744, Note_on_c, 4, 48, 0
12, 173744, Note_on_c, 4, 60, 0
12, 173760, Note_on_c, 4, 60, 52
12, 173760, Note_on_c, 4, 48, 52
12, 173984, Note_on_c, 4, 60, 0
12, 173984, Note_on_c, 4, 48, 0
12, 174000, Note_on_c, 4, 48, 52
12, 174000, Note_on_c, 4, 60, 52
12, 174224, Note_on_c, 4, 48, 0
12, 174224, Note_on_c, 4, 60, 0
12, 174240, Note_on_c, 4, 60, 52
12, 174240, Note_on_c, 4, 48, 52
12, 174464, Note_on_c, 4, 60, 0
12, 174464, Note_on_c, 4, 48, 0
12, 174480, Note_on_c, 4, 60, 52
12, 174480, Note_on_c, 4, 48, 52
12, 174704, Note_on_c, 4, 60, 0
12, 174704, Note_on_c, 4, 48, 0
12, 174720, Note_on_c, 4, 48, 52
12, 174720, Note_on_c, 4, 60, 52
12, 174944, Note_on_c, 4, 48, 0
12, 174944, Note_on_c, 4, 60, 0
12, 174960, Note_on_c, 4, 60, 52
12, 174960, Note_on_c, 4, 48, 52
12, 175184, Note_on_c, 4, 60, 0
12, 175184, Note_on_c, 4, 48, 0
12, 175200, Note_on_c, 4, 48, 52
12, 175200, Note_on_c, 4, 60, 52
12, 175424, Note_on_c, 4, 48, 0
12, 175424, Note_on_c, 4, 60, 0
12, 175440, Note_on_c, 4, 60, 52
12, 175440, Note_on_c, 4, 48, 52
12, 175664, Note_on_c, 4, 60, 0
12, 175664, Note_on_c, 4, 48, 0
12, 175680, Note_on_c, 4, 48, 52
12, 175680, Note_on_c, 4, 60, 52
12, 175904, Note_on_c, 4, 48, 0
12, 175904, Note_on_c, 4, 60, 0
12, 175920, Note_on_c, 4, 60, 52
12, 175920, Note_on_c, 4, 48, 52
12, 176144, Note_on_c, 4, 60, 0
12, 176144, Note_on_c, 4, 48, 0
12, 176160, Note_on_c, 4, 48, 52
12, 176160, Note_on_c, 4, 60, 52
12, 176384, Note_on_c, 4, 48, 0
12, 176384, Note_on_c, 4, 60, 0
12, 176400, Note_on_c, 4, 60, 52
12, 176624, Note_on_c, 4, 60, 0
12, 176640, Note_on_c, 4, 65, 52
12, 176879, Note_on_c, 4, 65, 0
12, 190080, Note_on_c, 4, 48, 76
12, 190080, Note_on_c, 4, 60, 76
12, 191744, Note_on_c, 4, 48, 0
12, 191744, Note_on_c, 4, 60, 0
12, 191760, Note_on_c, 4, 63, 76
12, 191984, Note_on_c, 4, 63, 0
12, 192000, Note_on_c, 4, 62, 76
12, 192464, Note_on_c, 4, 62, 0
12, 192480, Note_on_c, 4, 63, 76
12, 192944, Note_on_c, 4, 63, 0
12, 192960, Note_on_c, 4, 65, 76
12, 194639, Note_on_c, 4, 65, 0
12, 195600, Note_on_c, 4, 65, 76
12, 195824, Note_on_c, 4, 65, 0
12, 195840, Note_on_c, 4, 64, 76
12, 196304, Note_on_c, 4, 64, 0
12, 196320, Note_on_c, 4, 65, 76
12, 196784, Note_on_c, 4, 65, 0
12, 196800, Note_on_c, 4, 67, 76
12, 197504, Note_on_c, 4, 67, 0
12, 197520, Note_on_c, 4, 48, 76
12, 197520, Note_on_c, 4, 60, 76
12, 197759, Note_on_c, 4, 48, 0
12, 197759, Note_on_c, 4, 60, 0
12, 198000, Note_on_c, 4, 60, 76
12, 198000, Note_on_c, 4, 48, 76
12, 198067, Note_on_c, 4, 60, 0
12, 198067, Note_on_c, 4, 48, 0
12, 198080, Note_on_c, 4, 60, 76
12, 198080, Note_on_c, 4, 48, 76
12, 198147, Note_on_c, 4, 60, 0
12, 198147, Note_on_c, 4, 48, 0
12, 198160, Note_on_c, 4, 60, 76
12, 198160, Note_on_c, 4, 48, 76
12, 198227, Note_on_c, 4, 60, 0
12, 198227, Note_on_c, 4, 48, 0
12, 198240, Note_on_c, 4, 48, 76
12, 198240, Note_on_c, 4, 60, 76
12, 198479, Note_on_c, 4, 48, 0
12, 198479, Note_on_c, 4, 60, 0
12, 198960, Note_on_c, 4, 48, 80
12, 198960, Note_on_c, 4, 60, 80
12, 199027, Note_on_c, 4, 48, 0
12, 199027, Note_on_c, 4, 60, 0
12, 199040, Note_on_c, 4, 48, 80
12, 199040, Note_on_c, 4, 60, 80
12, 199107, Note_on_c, 4, 48, 0
12, 199107, Note_on_c, 4, 60, 0
12, 199120, Note_on_c, 4, 60, 80
12, 199120, Note_on_c, 4, 48, 80
12, 199187, Note_on_c, 4, 60, 0
12, 199187, Note_on_c, 4, 48, 0
12, 199200, Note_on_c, 4, 48, 80
12, 199200, Note_on_c, 4, 60, 80
12, 199439, Note_on_c, 4, 48, 0
12, 199439, Note_on_c, 4, 60, 0
12, 199920, Note_on_c, 4, 67, 80
12, 199920, Note_on_c, 4, 55, 80
12, 199987, Note_on_c, 4, 67, 0
12, 199987, Note_on_c, 4, 55, 0
12, 200000, Note_on_c, 4, 55, 80
12, 200000, Note_on_c, 4, 67, 80
12, 200067, Note_on_c, 4, 55, 0
12, 200067, Note_on_c, 4, 67, 0
12, 200080, Note_on_c, 4, 67, 80
12, 200080, Note_on_c, 4, 55, 80
12, 200147, Note_on_c, 4, 67, 0
12, 200147, Note_on_c, 4, 55, 0
12, 200160, Note_on_c, 4, 67, 80
12, 200160, Note_on_c, 4, 55, 80
12, 200399, Note_on_c, 4, 67, 0
12, 200399, Note_on_c, 4, 55, 0
12, 200880, Note_on_c, 4, 48, 80
12, 200880, Note_on_c, 4, 60, 80
12, 200947, Note_on_c, 4, 48, 0
12, 200947, Note_on_c, 4, 60, 0
12, 200960, Note_on_c, 4, 48, 80
12, 200960, Note_on_c, 4, 60, 80
12, 201027, Note_on_c, 4, 48, 0
12, 201027, Note_on_c, 4, 60, 0
12, 201040, Note_on_c, 4, 60, 80
12, 201040, Note_on_c, 4, 48, 80
12, 201107, Note_on_c, 4, 60, 0
12, 201107, Note_on_c, 4, 48, 0
12, 201120, Note_on_c, 4, 60, 80
12, 201120, Note_on_c, 4, 48, 80
12, 201359, Note_on_c, 4, 60, 0
12, 201359, Note_on_c, 4, 48, 0
12, 201840, Note_on_c, 4, 55, 80
12, 201840, Note_on_c, 4, 67, 80
12, 201907, Note_on_c, 4, 55, 0
12, 201907, Note_on_c, 4, 67, 0
12, 201920, Note_on_c, 4, 55, 80
12, 201920, Note_on_c, 4, 67, 80
12, 201987, Note_on_c, 4, 55, 0
12, 201987, Note_on_c, 4, 67, 0
12, 202000, Note_on_c, 4, 67, 80
12, 202000, Note_on_c, 4, 55, 80
12, 202067, Note_on_c, 4, 67, 0
12, 202067, Note_on_c, 4, 55, 0
12, 202080, Note_on_c, 4, 67, 80
12, 202080, Note_on_c, 4, 55, 80
12, 202319, Note_on_c, 4, 67, 0
12, 202319, Note_on_c, 4, 55, 0
12, 202800, Note_on_c, 4, 60, 80
12, 202800, Note_on_c, 4, 48, 80
12, 202867, Note_on_c, 4, 60, 0
12, 202867, Note_on_c, 4, 48, 0
12, 202880, Note_on_c, 4, 60, 80
12, 202880, Note_on_c, 4, 48, 80
12, 202947, Note_on_c, 4, 60, 0
12, 202947, Note_on_c, 4, 48, 0
12, 202960, Note_on_c, 4, 48, 80
12, 202960, Note_on_c, 4, 60, 80
12, 203027, Note_on_c, 4, 48, 0
12, 203027, Note_on_c, 4, 60, 0
12, 203040, Note_on_c, 4, 60, 80
12, 203040, Note_on_c, 4, 48, 80
12, 203279, Note_on_c, 4, 60, 0
12, 203279, Note_on_c, 4, 48, 0
12, 203760, Note_on_c, 4, 62, 80
12, 203827, Note_on_c, 4, 62, 0
12, 203840, Note_on_c, 4, 62, 80
12, 203907, Note_on_c, 4, 62, 0
12, 203920, Note_on_c, 4, 62, 80
12, 203987, Note_on_c, 4, 62, 0
12, 204000, Note_on_c, 4, 62, 80
12, 204239, Note_on_c, 4, 62, 0
12, 204720, Note_on_c, 4, 67, 80
12, 204720, Note_on_c, 4, 55, 80
12, 204787, Note_on_c, 4, 67, 0
12, 204787, Note_on_c, 4, 55, 0
12, 204800, Note_on_c, 4, 67, 80
12, 204800, Note_on_c, 4, 55, 80
12, 204867, Note_on_c, 4, 67, 0
12, 204867, Note_on_c, 4, 55, 0
12, 204880, Note_on_c, 4, 67, 80
12, 204880, Note_on_c, 4, 55, 80
12, 204947, Note_on_c, 4, 67, 0
12, 204947, Note_on_c, 4, 55, 0
12, 204960, Note_on_c, 4, 67, 80
12, 204960, Note_on_c, 4, 55, 80
12, 205199, Note_on_c, 4, 67, 0
12, 205199, Note_on_c, 4, 55, 0
12, 205680, Note_on_c, 4, 62, 80
12, 205747, Note_on_c, 4, 62, 0
12, 205760, Note_on_c, 4, 62, 80
12, 205827, Note_on_c, 4, 62, 0
12, 205840, Note_on_c, 4, 62, 80
12, 205919, Note_on_c, 4, 62, 0
12, 206160, Note_on_c, 4, 62, 80
12, 206227, Note_on_c, 4, 62, 0
12, 206240, Note_on_c, 4, 62, 80
12, 206307, Note_on_c, 4, 62, 0
12, 206320, Note_on_c, 4, 62, 80
12, 206399, Note_on_c, 4, 62, 0
12, 206640, Note_on_c, 4, 62, 80
12, 206707, Note_on_c, 4, 62, 0
12, 206720, Note_on_c, 4, 62, 80
12, 206787, Note_on_c, 4, 62, 0
12, 206800, Note_on_c, 4, 62, 80
12, 206879, Note_on_c, 4, 62, 0
12, 207120, Note_on_c, 4, 62, 80
12, 207187, Note_on_c, 4, 62, 0
12, 207200, Note_on_c, 4, 62, 80
12, 207267, Note_on_c, 4, 62, 0
12, 207280, Note_on_c, 4, 62, 80
12, 207347, Note_on_c, 4, 62, 0
12, 207360, Note_on_c, 4, 62, 84
12, 207360, Note_on_c, 4, 55, 84
12, 207599, Note_on_c, 4, 62, 0
12, 207599, Note_on_c, 4, 55, 0
12, 209280, Note_on_c, 4, 67, 84
12, 209280, Note_on_c, 4, 55, 84
12, 209519, Note_on_c, 4, 67, 0
12, 209519, Note_on_c, 4, 55, 0
12, 211200, Note_on_c, 4, 55, 84
12, 211200, Note_on_c, 4, 67, 84
12, 211439, Note_on_c, 4, 55, 0
12, 211439, Note_on_c, 4, 67, 0
12, 211920, Note_on_c, 4, 48, 84
12, 211920, Note_on_c, 4, 64, 84
12, 212144, Note_on_c, 4, 48, 0
12, 212144, Note_on_c, 4, 64, 0
12, 212160, Note_on_c, 4, 62, 84
12, 212160, Note_on_c, 4, 43, 84
12, 212624, Note_on_c, 4, 62, 0
12, 212624, Note_on_c, 4, 43, 0
12, 212640, Note_on_c, 4, 64, 84
12, 212640, Note_on_c, 4, 48, 84
12, 213104, Note_on_c, 4, 64, 0
12, 213104, Note_on_c, 4, 48, 0
12, 213120, Note_on_c, 4, 65, 84
12, 213120, Note_on_c, 4, 43, 84
12, 213824, Note_on_c, 4, 65, 0
12, 213824, Note_on_c, 4, 43, 0
12, 213840, Note_on_c, 4, 43, 84
12, 213840, Note_on_c, 4, 65, 84
12, 214064, Note_on_c, 4, 43, 0
12, 214064, Note_on_c, 4, 65, 0
12, 214080, Note_on_c, 4, 48, 84
12, 214080, Note_on_c, 4, 64, 84
12, 214544, Note_on_c, 4, 48, 0
12, 214544, Note_on_c, 4, 64, 0
12, 214560, Note_on_c, 4, 65, 84
12, 214560, Note_on_c, 4, 43, 84
12, 215024, Note_on_c, 4, 65, 0
12, 215024, Note_on_c, 4, 43, 0
12, 215040, Note_on_c, 4, 67, 92
12, 215040, Note_on_c, 4, 43, 92
12, 215160, Control_c, 4, 11, 112
12, 215984, Note_on_c, 4, 67, 0
12, 215984, Note_on_c, 4, 43, 0
12, 215998, Control_c, 4, 11, 127
12, 216000, Note_on_c, 4, 60, 92
12, 216000, Note_on_c, 4, 48, 92
12, 216120, Control_c, 4, 11, 112
12, 216944, Note_on_c, 4, 60, 0
12, 216944, Note_on_c, 4, 48, 0
12, 216958, Control_c, 4, 11, 127
12, 216960, Note_on_c, 4, 60, 84
12, 216960, Note_on_c, 4, 48, 84
12, 218864, Note_on_c, 4, 60, 0
12, 218864, Note_on_c, 4, 48, 0
12, 218880, Note_on_c, 4, 67, 84
12, 218880, Note_on_c, 4, 55, 84
12, 219824, Note_on_c, 4, 67, 0
12, 219824, Note_on_c, 4, 55, 0
12, 219840, Note_on_c, 4, 67, 84
12, 219840, Note_on_c, 4, 55, 84
12, 220784, Note_on_c, 4, 67, 0
12, 220784, Note_on_c, 4, 55, 0
12, 220800, Note_on_c, 4, 55, 84
12, 220800, Note_on_c, 4, 67, 84
12, 221024, Note_on_c, 4, 55, 0
12, 221024, Note_on_c, 4, 67, 0
12, 221040, Note_on_c, 4, 67, 84
12, 221040, Note_on_c, 4, 55, 84
12, 221144, Note_on_c, 4, 67, 0
12, 221144, Note_on_c, 4, 55, 0
12, 221160, Note_on_c, 4, 55, 84
12, 221160, Note_on_c, 4, 67, 84
12, 221264, Note_on_c, 4, 55, 0
12, 221264, Note_on_c, 4, 67, 0
12, 221280, Note_on_c, 4, 67, 84
12, 221280, Note_on_c, 4, 55, 84
12, 221504, Note_on_c, 4, 67, 0
12, 221504, Note_on_c, 4, 55, 0
12, 221520, Note_on_c, 4, 67, 84
12, 221520, Note_on_c, 4, 55, 84
12, 221624, Note_on_c, 4, 67, 0
12, 221624, Note_on_c, 4, 55, 0
12, 221640, Note_on_c, 4, 55, 84
12, 221640, Note_on_c, 4, 67, 84
12, 221744, Note_on_c, 4, 55, 0
12, 221744, Note_on_c, 4, 67, 0
12, 221760, Note_on_c, 4, 67, 84
12, 221760, Note_on_c, 4, 55, 84
12, 221984, Note_on_c, 4, 67, 0
12, 221984, Note_on_c, 4, 55, 0
12, 222000, Note_on_c, 4, 55, 84
12, 222000, Note_on_c, 4, 67, 84
12, 222104, Note_on_c, 4, 55, 0
12, 222104, Note_on_c, 4, 67, 0
12, 222120, Note_on_c, 4, 55, 84
12, 222120, Note_on_c, 4, 67, 84
12, 222224, Note_on_c, 4, 55, 0
12, 222224, Note_on_c, 4, 67, 0
12, 222240, Note_on_c, 4, 67, 84
12, 222240, Note_on_c, 4, 55, 84
12, 222464, Note_on_c, 4, 67, 0
12, 222464, Note_on_c, 4, 55, 0
12, 222480, Note_on_c, 4, 67, 84
12, 222480, Note_on_c, 4, 55, 84
12, 222584, Note_on_c, 4, 67, 0
12, 222584, Note_on_c, 4, 55, 0
12, 222600, Note_on_c, 4, 55, 84
12, 222600, Note_on_c, 4, 67, 84
12, 222704, Note_on_c, 4, 55, 0
12, 222704, Note_on_c, 4, 67, 0
12, 222720, Note_on_c, 4, 55, 84
12, 222720, Note_on_c, 4, 67, 84
12, 222944, Note_on_c, 4, 55, 0
12, 222944, Note_on_c, 4, 67, 0
12, 222960, Note_on_c, 4, 67, 84
12, 222960, Note_on_c, 4, 55, 84
12, 223064, Note_on_c, 4, 67, 0
12, 223064, Note_on_c, 4, 55, 0
12, 223080, Note_on_c, 4, 55, 84
12, 223080, Note_on_c, 4, 67, 84
12, 223184, Note_on_c, 4, 55, 0
12, 223184, Note_on_c, 4, 67, 0
12, 223200, Note_on_c, 4, 55, 84
12, 223200, Note_on_c, 4, 67, 84
12, 223424, Note_on_c, 4, 55, 0
12, 223424, Note_on_c, 4, 67, 0
12, 223440, Note_on_c, 4, 67, 84
12, 223440, Note_on_c, 4, 55, 84
12, 223544, Note_on_c, 4, 67, 0
12, 223544, Note_on_c, 4, 55, 0
12, 223560, Note_on_c, 4, 55, 84
12, 223560, Note_on_c, 4, 67, 84
12, 223664, Note_on_c, 4, 55, 0
12, 223664, Note_on_c, 4, 67, 0
12, 223680, Note_on_c, 4, 67, 84
12, 223680, Note_on_c, 4, 55, 84
12, 223904, Note_on_c, 4, 67, 0
12, 223904, Note_on_c, 4, 55, 0
12, 223920, Note_on_c, 4, 55, 84
12, 223920, Note_on_c, 4, 67, 84
12, 224024, Note_on_c, 4, 55, 0
12, 224024, Note_on_c, 4, 67, 0
12, 224040, Note_on_c, 4, 55, 84
12, 224040, Note_on_c, 4, 67, 84
12, 224144, Note_on_c, 4, 55, 0
12, 224144, Note_on_c, 4, 67, 0
12, 224160, Note_on_c, 4, 67, 84
12, 224160, Note_on_c, 4, 55, 84
12, 224384, Note_on_c, 4, 67, 0
12, 224384, Note_on_c, 4, 55, 0
12, 224400, Note_on_c, 4, 67, 84
12, 224400, Note_on_c, 4, 55, 84
12, 224504, Note_on_c, 4, 67, 0
12, 224504, Note_on_c, 4, 55, 0
12, 224520, Note_on_c, 4, 67, 84
12, 224520, Note_on_c, 4, 55, 84
12, 224624, Note_on_c, 4, 67, 0
12, 224624, Note_on_c, 4, 55, 0
12, 224640, Note_on_c, 4, 55, 84
12, 224640, Note_on_c, 4, 67, 84
12, 227504, Note_on_c, 4, 55, 0
12, 227504, Note_on_c, 4, 67, 0
12, 227520, Note_on_c, 4, 67, 84
12, 227520, Note_on_c, 4, 55, 84
12, 227759, Note_on_c, 4, 67, 0
12, 227759, Note_on_c, 4, 55, 0
12, 245520, Note_on_c, 4, 43, 44
12, 245520, Note_on_c, 4, 55, 44
12, 245739, Note_on_c, 4, 43, 0
12, 245739, Note_on_c, 4, 55, 0
12, 245760, Note_on_c, 4, 55, 44
12, 245760, Note_on_c, 4, 43, 44
12, 245979, Note_on_c, 4, 55, 0
12, 245979, Note_on_c, 4, 43, 0
12, 246000, Note_on_c, 4, 55, 44
12, 246000, Note_on_c, 4, 43, 44
12, 246219, Note_on_c, 4, 55, 0
12, 246219, Note_on_c, 4, 43, 0
12, 246240, Note_on_c, 4, 55, 44
12, 246240, Note_on_c, 4, 43, 44
12, 246479, Note_on_c, 4, 55, 0
12, 246479, Note_on_c, 4, 43, 0
12, 248400, Note_on_c, 4, 55, 44
12, 248400, Note_on_c, 4, 43, 44
12, 248619, Note_on_c, 4, 55, 0
12, 248619, Note_on_c, 4, 43, 0
12, 248640, Note_on_c, 4, 55, 44
12, 248640, Note_on_c, 4, 43, 44
12, 248859, Note_on_c, 4, 55, 0
12, 248859, Note_on_c, 4, 43, 0
12, 248880, Note_on_c, 4, 43, 44
12, 248880, Note_on_c, 4, 55, 44
12, 249099, Note_on_c, 4, 43, 0
12, 249099, Note_on_c, 4, 55, 0
12, 249120, Note_on_c, 4, 55, 44
12, 249120, Note_on_c, 4, 43, 44
12, 249359, Note_on_c, 4, 55, 0
12, 249359, Note_on_c, 4, 43, 0
12, 249840, Note_on_c, 4, 55, 44
12, 249840, Note_on_c, 4, 43, 44
12, 250059, Note_on_c, 4, 55, 0
12, 250059, Note_on_c, 4, 43, 0
12, 250080, Note_on_c, 4, 55, 44
12, 250080, Note_on_c, 4, 43, 44
12, 250299, Note_on_c, 4, 55, 0
12, 250299, Note_on_c, 4, 43, 0
12, 250320, Note_on_c, 4, 43, 44
12, 250320, Note_on_c, 4, 55, 44
12, 250539, Note_on_c, 4, 43, 0
12, 250539, Note_on_c, 4, 55, 0
12, 250560, Note_on_c, 4, 55, 44
12, 250560, Note_on_c, 4, 43, 44
12, 250799, Note_on_c, 4, 55, 0
12, 250799, Note_on_c, 4, 43, 0
12, 251280, Note_on_c, 4, 55, 44
12, 251280, Note_on_c, 4, 43, 44
12, 251499, Note_on_c, 4, 55, 0
12, 251499, Note_on_c, 4, 43, 0
12, 251520, Note_on_c, 4, 43, 44
12, 251520, Note_on_c, 4, 55, 44
12, 251739, Note_on_c, 4, 43, 0
12, 251739, Note_on_c, 4, 55, 0
12, 251760, Note_on_c, 4, 55, 44
12, 251760, Note_on_c, 4, 43, 44
12, 251979, Note_on_c, 4, 55, 0
12, 251979, Note_on_c, 4, 43, 0
12, 252000, Note_on_c, 4, 55, 44
12, 252000, Note_on_c, 4, 43, 44
12, 252239, Note_on_c, 4, 55, 0
12, 252239, Note_on_c, 4, 43, 0
12, 252720, Note_on_c, 4, 43, 44
12, 252720, Note_on_c, 4, 55, 44
12, 252939, Note_on_c, 4, 43, 0
12, 252939, Note_on_c, 4, 55, 0
12, 252960, Note_on_c, 4, 43, 44
12, 252960, Note_on_c, 4, 55, 44
12, 253179, Note_on_c, 4, 43, 0
12, 253179, Note_on_c, 4, 55, 0
12, 253200, Note_on_c, 4, 43, 44
12, 253200, Note_on_c, 4, 55, 44
12, 253419, Note_on_c, 4, 43, 0
12, 253419, Note_on_c, 4, 55, 0
12, 253440, Note_on_c, 4, 43, 44
12, 253440, Note_on_c, 4, 55, 44
12, 253679, Note_on_c, 4, 43, 0
12, 253679, Note_on_c, 4, 55, 0
12, 254160, Note_on_c, 4, 43, 44
12, 254160, Note_on_c, 4, 55, 44
12, 254379, Note_on_c, 4, 43, 0
12, 254379, Note_on_c, 4, 55, 0
12, 254400, Note_on_c, 4, 55, 44
12, 254400, Note_on_c, 4, 43, 44
12, 254619, Note_on_c, 4, 55, 0
12, 254619, Note_on_c, 4, 43, 0
12, 254640, Note_on_c, 4, 55, 44
12, 254640, Note_on_c, 4, 43, 44
12, 254859, Note_on_c, 4, 55, 0
12, 254859, Note_on_c, 4, 43, 0
12, 254880, Note_on_c, 4, 55, 44
12, 254880, Note_on_c, 4, 43, 44
12, 255119, Note_on_c, 4, 55, 0
12, 255119, Note_on_c, 4, 43, 0
12, 255600, Note_on_c, 4, 55, 44
12, 255600, Note_on_c, 4, 43, 44
12, 255819, Note_on_c, 4, 55, 0
12, 255819, Note_on_c, 4, 43, 0
12, 255840, Note_on_c, 4, 55, 44
12, 255840, Note_on_c, 4, 43, 44
12, 256059, Note_on_c, 4, 55, 0
12, 256059, Note_on_c, 4, 43, 0
12, 256080, Note_on_c, 4, 43, 44
12, 256080, Note_on_c, 4, 55, 44
12, 256299, Note_on_c, 4, 43, 0
12, 256299, Note_on_c, 4, 55, 0
12, 256320, Note_on_c, 4, 43, 44
12, 256320, Note_on_c, 4, 55, 44
12, 256559, Note_on_c, 4, 43, 0
12, 256559, Note_on_c, 4, 55, 0
12, 257040, Note_on_c, 4, 55, 44
12, 257040, Note_on_c, 4, 43, 44
12, 257259, Note_on_c, 4, 55, 0
12, 257259, Note_on_c, 4, 43, 0
12, 257280, Note_on_c, 4, 55, 44
12, 257280, Note_on_c, 4, 43, 44
12, 257499, Note_on_c, 4, 55, 0
12, 257499, Note_on_c, 4, 43, 0
12, 257520, Note_on_c, 4, 55, 44
12, 257520, Note_on_c, 4, 43, 44
12, 257739, Note_on_c, 4, 55, 0
12, 257739, Note_on_c, 4, 43, 0
12, 257760, Note_on_c, 4, 55, 44
12, 257760, Note_on_c, 4, 43, 44
12, 257999, Note_on_c, 4, 55, 0
12, 257999, Note_on_c, 4, 43, 0
12, 258480, Note_on_c, 4, 43, 44
12, 258480, Note_on_c, 4, 55, 44
12, 258699, Note_on_c, 4, 43, 0
12, 258699, Note_on_c, 4, 55, 0
12, 258720, Note_on_c, 4, 55, 44
12, 258720, Note_on_c, 4, 43, 44
12, 258939, Note_on_c, 4, 55, 0
12, 258939, Note_on_c, 4, 43, 0
12, 258960, Note_on_c, 4, 55, 44
12, 258960, Note_on_c, 4, 43, 44
12, 259179, Note_on_c, 4, 55, 0
12, 259179, Note_on_c, 4, 43, 0
12, 259200, Note_on_c, 4, 43, 44
12, 259200, Note_on_c, 4, 55, 44
12, 259439, Note_on_c, 4, 43, 0
12, 259439, Note_on_c, 4, 55, 0
12, 259920, Note_on_c, 4, 62, 44
12, 259920, Note_on_c, 4, 55, 44
12, 260139, Note_on_c, 4, 62, 0
12, 260139, Note_on_c, 4, 55, 0
12, 260160, Note_on_c, 4, 62, 44
12, 260160, Note_on_c, 4, 55, 44
12, 260379, Note_on_c, 4, 62, 0
12, 260379, Note_on_c, 4, 55, 0
12, 260400, Note_on_c, 4, 62, 44
12, 260400, Note_on_c, 4, 55, 44
12, 260619, Note_on_c, 4, 62, 0
12, 260619, Note_on_c, 4, 55, 0
12, 260640, Note_on_c, 4, 62, 44
12, 260640, Note_on_c, 4, 55, 44
12, 260859, Note_on_c, 4, 62, 0
12, 260859, Note_on_c, 4, 55, 0
12, 260880, Note_on_c, 4, 62, 44
12, 260880, Note_on_c, 4, 55, 44
12, 261099, Note_on_c, 4, 62, 0
12, 261099, Note_on_c, 4, 55, 0
12, 261120, Note_on_c, 4, 62, 44
12, 261120, Note_on_c, 4, 55, 44
12, 261339, Note_on_c, 4, 62, 0
12, 261339, Note_on_c, 4, 55, 0
12, 261360, Note_on_c, 4, 55, 44
12, 261360, Note_on_c, 4, 62, 44
12, 261579, Note_on_c, 4, 55, 0
12, 261579, Note_on_c, 4, 62, 0
12, 261600, Note_on_c, 4, 62, 44
12, 261600, Note_on_c, 4, 55, 44
12, 261819, Note_on_c, 4, 62, 0
12, 261819, Note_on_c, 4, 55, 0
12, 261840, Note_on_c, 4, 55, 44
12, 261840, Note_on_c, 4, 62, 44
12, 262059, Note_on_c, 4, 55, 0
12, 262059, Note_on_c, 4, 62, 0
12, 262080, Note_on_c, 4, 55, 44
12, 262080, Note_on_c, 4, 62, 44
12, 262299, Note_on_c, 4, 55, 0
12, 262299, Note_on_c, 4, 62, 0
12, 262320, Note_on_c, 4, 62, 44
12, 262320, Note_on_c, 4, 55, 44
12, 262539, Note_on_c, 4, 62, 0
12, 262539, Note_on_c, 4, 55, 0
12, 262560, Note_on_c, 4, 62, 44
12, 262560, Note_on_c, 4, 55, 44
12, 262779, Note_on_c, 4, 62, 0
12, 262779, Note_on_c, 4, 55, 0
12, 262800, Note_on_c, 4, 55, 44
12, 262800, Note_on_c, 4, 62, 44
12, 263019, Note_on_c, 4, 55, 0
12, 263019, Note_on_c, 4, 62, 0
12, 263040, Note_on_c, 4, 62, 44
12, 263040, Note_on_c, 4, 55, 44
12, 263259, Note_on_c, 4, 62, 0
12, 263259, Note_on_c, 4, 55, 0
12, 263280, Note_on_c, 4, 62, 44
12, 263280, Note_on_c, 4, 55, 44
12, 263499, Note_on_c, 4, 62, 0
12, 263499, Note_on_c, 4, 55, 0
12, 263520, Note_on_c, 4, 55, 44
12, 263520, Note_on_c, 4, 62, 44
12, 263739, Note_on_c, 4, 55, 0
12, 263739, Note_on_c, 4, 62, 0
12, 263760, Note_on_c, 4, 55, 44
12, 263760, Note_on_c, 4, 62, 44
12, 263979, Note_on_c, 4, 55, 0
12, 263979, Note_on_c, 4, 62, 0
12, 264000, Note_on_c, 4, 62, 44
12, 264000, Note_on_c, 4, 55, 44
12, 264219, Note_on_c, 4, 62, 0
12, 264219, Note_on_c, 4, 55, 0
12, 264240, Note_on_c, 4, 55, 44
12, 264240, Note_on_c, 4, 62, 44
12, 264459, Note_on_c, 4, 55, 0
12, 264459, Note_on_c, 4, 62, 0
12, 264480, Note_on_c, 4, 62, 44
12, 264480, Note_on_c, 4, 55, 44
12, 264699, Note_on_c, 4, 62, 0
12, 264699, Note_on_c, 4, 55, 0
12, 264720, Note_on_c, 4, 55, 44
12, 264720, Note_on_c, 4, 62, 44
12, 264939, Note_on_c, 4, 55, 0
12, 264939, Note_on_c, 4, 62, 0
12, 264960, Note_on_c, 4, 62, 44
12, 264960, Note_on_c, 4, 55, 44
12, 265179, Note_on_c, 4, 62, 0
12, 265179, Note_on_c, 4, 55, 0
12, 265200, Note_on_c, 4, 62, 50
12, 265200, Note_on_c, 4, 55, 50
12, 265419, Note_on_c, 4, 62, 0
12, 265419, Note_on_c, 4, 55, 0
12, 265440, Note_on_c, 4, 55, 57
12, 265440, Note_on_c, 4, 62, 57
12, 265659, Note_on_c, 4, 55, 0
12, 265659, Note_on_c, 4, 62, 0
12, 265680, Note_on_c, 4, 55, 64
12, 265680, Note_on_c, 4, 62, 64
12, 265899, Note_on_c, 4, 55, 0
12, 265899, Note_on_c, 4, 62, 0
12, 265920, Note_on_c, 4, 55, 70
12, 265920, Note_on_c, 4, 62, 70
12, 266139, Note_on_c, 4, 55, 0
12, 266139, Note_on_c, 4, 62, 0
12, 266160, Note_on_c, 4, 55, 77
12, 266160, Note_on_c, 4, 62, 77
12, 266379, Note_on_c, 4, 55, 0
12, 266379, Note_on_c, 4, 62, 0
12, 266400, Note_on_c, 4, 60, 84
12, 266400, Note_on_c, 4, 52, 84
12, 266864, Note_on_c, 4, 60, 0
12, 266864, Note_on_c, 4, 52, 0
12, 266880, Note_on_c, 4, 64, 84
12, 266880, Note_on_c, 4, 60, 84
12, 267344, Note_on_c, 4, 64, 0
12, 267344, Note_on_c, 4, 60, 0
12, 267360, Note_on_c, 4, 64, 84
12, 267360, Note_on_c, 4, 67, 84
12, 268064, Note_on_c, 4, 64, 0
12, 268064, Note_on_c, 4, 67, 0
12, 268080, Note_on_c, 4, 65, 84
12, 268080, Note_on_c, 4, 62, 84
12, 268199, Note_on_c, 4, 65, 0
12, 268199, Note_on_c, 4, 62, 0
12, 268320, Note_on_c, 4, 64, 84
12, 268320, Note_on_c, 4, 60, 84
12, 268439, Note_on_c, 4, 64, 0
12, 268439, Note_on_c, 4, 60, 0
12, 268560, Note_on_c, 4, 55, 84
12, 268560, Note_on_c, 4, 62, 84
12, 268679, Note_on_c, 4, 55, 0
12, 268679, Note_on_c, 4, 62, 0
12, 268800, Note_on_c, 4, 52, 84
12, 268800, Note_on_c, 4, 60, 84
12, 268919, Note_on_c, 4, 52, 0
12, 268919, Note_on_c, 4, 60, 0
12, 269040, Note_on_c, 4, 62, 84
12, 269040, Note_on_c, 4, 55, 84
12, 269159, Note_on_c, 4, 62, 0
12, 269159, Note_on_c, 4, 55, 0
12, 269280, Note_on_c, 4, 52, 84
12, 269280, Note_on_c, 4, 60, 84
12, 269984, Note_on_c, 4, 52, 0
12, 269984, Note_on_c, 4, 60, 0
12, 270000, Note_on_c, 4, 60, 84
12, 270000, Note_on_c, 4, 52, 84
12, 270171, Note_on_c, 4, 60, 0
12, 270171, Note_on_c, 4, 52, 0
12, 270180, Note_on_c, 4, 52, 84
12, 270180, Note_on_c, 4, 60, 84
12, 270231, Note_on_c, 4, 52, 0
12, 270231, Note_on_c, 4, 60, 0
12, 270240, Note_on_c, 4, 62, 84
12, 270240, Note_on_c, 4, 55, 84
12, 270944, Note_on_c, 4, 62, 0
12, 270944, Note_on_c, 4, 55, 0
12, 270960, Note_on_c, 4, 62, 84
12, 270960, Note_on_c, 4, 55, 84
12, 271131, Note_on_c, 4, 62, 0
12, 271131, Note_on_c, 4, 55, 0
12, 271140, Note_on_c, 4, 55, 84
12, 271140, Note_on_c, 4, 62, 84
12, 271191, Note_on_c, 4, 55, 0
12, 271191, Note_on_c, 4, 62, 0
12, 271200, Note_on_c, 4, 64, 84
12, 271200, Note_on_c, 4, 60, 84
12, 271784, Note_on_c, 4, 64, 0
12, 271784, Note_on_c, 4, 60, 0
12, 271800, Note_on_c, 4, 60, 84
12, 271800, Note_on_c, 4, 48, 84
12, 271904, Note_on_c, 4, 60, 0
12, 271904, Note_on_c, 4, 48, 0
12, 271920, Note_on_c, 4, 48, 84
12, 271920, Note_on_c, 4, 60, 84
12, 272024, Note_on_c, 4, 48, 0
12, 272024, Note_on_c, 4, 60, 0
12, 272040, Note_on_c, 4, 48, 84
12, 272040, Note_on_c, 4, 60, 84
12, 272144, Note_on_c, 4, 48, 0
12, 272144, Note_on_c, 4, 60, 0
12, 272160, Note_on_c, 4, 60, 84
12, 272160, Note_on_c, 4, 48, 84
12, 272384, Note_on_c, 4, 60, 0
12, 272384, Note_on_c, 4, 48, 0
12, 272400, Note_on_c, 4, 60, 84
12, 272400, Note_on_c, 4, 48, 84
12, 272504, Note_on_c, 4, 60, 0
12, 272504, Note_on_c, 4, 48, 0
12, 272520, Note_on_c, 4, 48, 84
12, 272520, Note_on_c, 4, 60, 84
12, 272624, Note_on_c, 4, 48, 0
12, 272624, Note_on_c, 4, 60, 0
12, 272640, Note_on_c, 4, 48, 84
12, 272640, Note_on_c, 4, 60, 84
12, 272864, Note_on_c, 4, 48, 0
12, 272864, Note_on_c, 4, 60, 0
12, 272880, Note_on_c, 4, 48, 84
12, 272880, Note_on_c, 4, 60, 84
12, 272984, Note_on_c, 4, 48, 0
12, 272984, Note_on_c, 4, 60, 0
12, 273000, Note_on_c, 4, 48, 84
12, 273000, Note_on_c, 4, 60, 84
12, 273104, Note_on_c, 4, 48, 0
12, 273104, Note_on_c, 4, 60, 0
12, 273120, Note_on_c, 4, 48, 84
12, 273120, Note_on_c, 4, 60, 84
12, 273704, Note_on_c, 4, 48, 0
12, 273704, Note_on_c, 4, 60, 0
12, 273720, Note_on_c, 4, 48, 84
12, 273720, Note_on_c, 4, 60, 84
12, 273824, Note_on_c, 4, 48, 0
12, 273824, Note_on_c, 4, 60, 0
12, 273840, Note_on_c, 4, 60, 84
12, 273840, Note_on_c, 4, 48, 84
12, 273944, Note_on_c, 4, 60, 0
12, 273944, Note_on_c, 4, 48, 0
12, 273960, Note_on_c, 4, 60, 84
12, 273960, Note_on_c, 4, 48, 84
12, 274064, Note_on_c, 4, 60, 0
12, 274064, Note_on_c, 4, 48, 0
12, 274080, Note_on_c, 4, 60, 84
12, 274080, Note_on_c, 4, 48, 84
12, 274304, Note_on_c, 4, 60, 0
12, 274304, Note_on_c, 4, 48, 0
12, 274320, Note_on_c, 4, 48, 84
12, 274320, Note_on_c, 4, 60, 84
12, 274424, Note_on_c, 4, 48, 0
12, 274424, Note_on_c, 4, 60, 0
12, 274440, Note_on_c, 4, 60, 84
12, 274440, Note_on_c, 4, 48, 84
12, 274544, Note_on_c, 4, 60, 0
12, 274544, Note_on_c, 4, 48, 0
12, 274560, Note_on_c, 4, 48, 84
12, 274560, Note_on_c, 4, 60, 84
12, 274784, Note_on_c, 4, 48, 0
12, 274784, Note_on_c, 4, 60, 0
12, 274800, Note_on_c, 4, 60, 84
12, 274800, Note_on_c, 4, 48, 84
12, 274904, Note_on_c, 4, 60, 0
12, 274904, Note_on_c, 4, 48, 0
12, 274920, Note_on_c, 4, 48, 84
12, 274920, Note_on_c, 4, 60, 84
12, 275024, Note_on_c, 4, 48, 0
12, 275024, Note_on_c, 4, 60, 0
12, 275040, Note_on_c, 4, 48, 84
12, 275040, Note_on_c, 4, 60, 84
12, 275624, Note_on_c, 4, 48, 0
12, 275624, Note_on_c, 4, 60, 0
12, 275640, Note_on_c, 4, 60, 84
12, 275640, Note_on_c, 4, 48, 84
12, 275744, Note_on_c, 4, 60, 0
12, 275744, Note_on_c, 4, 48, 0
12, 275760, Note_on_c, 4, 48, 84
12, 275760, Note_on_c, 4, 60, 84
12, 275864, Note_on_c, 4, 48, 0
12, 275864, Note_on_c, 4, 60, 0
12, 275880, Note_on_c, 4, 60, 84
12, 275880, Note_on_c, 4, 48, 84
12, 275984, Note_on_c, 4, 60, 0
12, 275984, Note_on_c, 4, 48, 0
12, 276000, Note_on_c, 4, 48, 84
12, 276000, Note_on_c, 4, 60, 84
12, 276224, Note_on_c, 4, 48, 0
12, 276224, Note_on_c, 4, 60, 0
12, 276240, Note_on_c, 4, 60, 84
12, 276240, Note_on_c, 4, 48, 84
12, 276344, Note_on_c, 4, 60, 0
12, 276344, Note_on_c, 4, 48, 0
12, 276360, Note_on_c, 4, 60, 84
12, 276360, Note_on_c, 4, 48, 84
12, 276464, Note_on_c, 4, 60, 0
12, 276464, Note_on_c, 4, 48, 0
12, 276480, Note_on_c, 4, 60, 84
12, 276480, Note_on_c, 4, 48, 84
12, 276704, Note_on_c, 4, 60, 0
12, 276704, Note_on_c, 4, 48, 0
12, 276720, Note_on_c, 4, 48, 84
12, 276720, Note_on_c, 4, 60, 84
12, 276824, Note_on_c, 4, 48, 0
12, 276824, Note_on_c, 4, 60, 0
12, 276840, Note_on_c, 4, 60, 84
12, 276840, Note_on_c, 4, 48, 84
12, 276944, Note_on_c, 4, 60, 0
12, 276944, Note_on_c, 4, 48, 0
12, 276960, Note_on_c, 4, 60, 84
12, 276960, Note_on_c, 4, 48, 84
12, 277664, Note_on_c, 4, 60, 0
12, 277664, Note_on_c, 4, 48, 0
12, 277680, Note_on_c, 4, 48, 84
12, 277680, Note_on_c, 4, 64, 84
12, 277851, Note_on_c, 4, 48, 0
12, 277851, Note_on_c, 4, 64, 0
12, 277860, Note_on_c, 4, 48, 84
12, 277860, Note_on_c, 4, 64, 84
12, 277911, Note_on_c, 4, 48, 0
12, 277911, Note_on_c, 4, 64, 0
12, 277920, Note_on_c, 4, 43, 84
12, 277920, Note_on_c, 4, 62, 84
12, 278144, Note_on_c, 4, 43, 0
12, 278144, Note_on_c, 4, 62, 0
12, 278160, Note_on_c, 4, 62, 84
12, 278160, Note_on_c, 4, 43, 84
12, 278331, Note_on_c, 4, 62, 0
12, 278331, Note_on_c, 4, 43, 0
12, 278340, Note_on_c, 4, 62, 84
12, 278340, Note_on_c, 4, 43, 84
12, 278391, Note_on_c, 4, 62, 0
12, 278391, Note_on_c, 4, 43, 0
12, 278400, Note_on_c, 4, 64, 84
12, 278400, Note_on_c, 4, 48, 84
12, 278624, Note_on_c, 4, 64, 0
12, 278624, Note_on_c, 4, 48, 0
12, 278640, Note_on_c, 4, 48, 84
12, 278640, Note_on_c, 4, 64, 84
12, 278811, Note_on_c, 4, 48, 0
12, 278811, Note_on_c, 4, 64, 0
12, 278820, Note_on_c, 4, 48, 84
12, 278820, Note_on_c, 4, 64, 84
12, 278871, Note_on_c, 4, 48, 0
12, 278871, Note_on_c, 4, 64, 0
12, 278880, Note_on_c, 4, 43, 84
12, 278880, Note_on_c, 4, 62, 84
12, 279104, Note_on_c, 4, 43, 0
12, 279104, Note_on_c, 4, 62, 0
12, 279120, Note_on_c, 4, 43, 84
12, 279120, Note_on_c, 4, 62, 84
12, 279584, Note_on_c, 4, 43, 0
12, 279584, Note_on_c, 4, 62, 0
12, 279600, Note_on_c, 4, 64, 84
12, 279600, Note_on_c, 4, 48, 84
12, 279771, Note_on_c, 4, 64, 0
12, 279771, Note_on_c, 4, 48, 0
12, 279780, Note_on_c, 4, 64, 84
12, 279780, Note_on_c, 4, 48, 84
12, 279831, Note_on_c, 4, 64, 0
12, 279831, Note_on_c, 4, 48, 0
12, 279840, Note_on_c, 4, 62, 84
12, 279840, Note_on_c, 4, 43, 84
12, 280064, Note_on_c, 4, 62, 0
12, 280064, Note_on_c, 4, 43, 0
12, 280080, Note_on_c, 4, 62, 84
12, 280080, Note_on_c, 4, 43, 84
12, 280251, Note_on_c, 4, 62, 0
12, 280251, Note_on_c, 4, 43, 0
12, 280260, Note_on_c, 4, 62, 84
12, 280260, Note_on_c, 4, 43, 84
12, 280311, Note_on_c, 4, 62, 0
12, 280311, Note_on_c, 4, 43, 0
12, 280320, Note_on_c, 4, 64, 84
12, 280320, Note_on_c, 4, 48, 84
12, 280544, Note_on_c, 4, 64, 0
12, 280544, Note_on_c, 4, 48, 0
12, 280560, Note_on_c, 4, 64, 84
12, 280560, Note_on_c, 4, 48, 84
12, 280731, Note_on_c, 4, 64, 0
12, 280731, Note_on_c, 4, 48, 0
12, 280740, Note_on_c, 4, 48, 84
12, 280740, Note_on_c, 4, 64, 84
12, 280791, Note_on_c, 4, 48, 0
12, 280791, Note_on_c, 4, 64, 0
12, 280800, Note_on_c, 4, 43, 84
12, 280800, Note_on_c, 4, 62, 84
12, 281024, Note_on_c, 4, 43, 0
12, 281024, Note_on_c, 4, 62, 0
12, 281040, Note_on_c, 4, 62, 84
12, 281040, Note_on_c, 4, 43, 84
12, 281504, Note_on_c, 4, 62, 0
12, 281504, Note_on_c, 4, 43, 0
12, 281520, Note_on_c, 4, 64, 84
12, 281520, Note_on_c, 4, 48, 84
12, 281691, Note_on_c, 4, 64, 0
12, 281691, Note_on_c, 4, 48, 0
12, 281700, Note_on_c, 4, 64, 84
12, 281700, Note_on_c, 4, 48, 84
12, 281751, Note_on_c, 4, 64, 0
12, 281751, Note_on_c, 4, 48, 0
12, 281760, Note_on_c, 4, 62, 84
12, 281760, Note_on_c, 4, 43, 84
12, 281931, Note_on_c, 4, 62, 0
12, 281931, Note_on_c, 4, 43, 0
12, 281940, Note_on_c, 4, 43, 84
12, 281940, Note_on_c, 4, 62, 84
12, 281991, Note_on_c, 4, 43, 0
12, 281991, Note_on_c, 4, 62, 0
12, 282000, Note_on_c, 4, 43, 84
12, 282000, Note_on_c, 4, 62, 84
12, 282171, Note_on_c, 4, 43, 0
12, 282171, Note_on_c, 4, 62, 0
12, 282180, Note_on_c, 4, 43, 84
12, 282180, Note_on_c, 4, 62, 84
12, 282231, Note_on_c, 4, 43, 0
12, 282231, Note_on_c, 4, 62, 0
12, 282240, Note_on_c, 4, 64, 84
12, 282240, Note_on_c, 4, 48, 84
12, 282411, Note_on_c, 4, 64, 0
12, 282411, Note_on_c, 4, 48, 0
12, 282420, Note_on_c, 4, 48, 84
12, 282420, Note_on_c, 4, 64, 84
12, 282471, Note_on_c, 4, 48, 0
12, 282471, Note_on_c, 4, 64, 0
12, 282480, Note_on_c, 4, 48, 84
12, 282480, Note_on_c, 4, 64, 84
12, 282651, Note_on_c, 4, 48, 0
12, 282651, Note_on_c, 4, 64, 0
12, 282660, Note_on_c, 4, 64, 84
12, 282660, Note_on_c, 4, 48, 84
12, 282711, Note_on_c, 4, 64, 0
12, 282711, Note_on_c, 4, 48, 0
12, 282720, Note_on_c, 4, 62, 84
12, 282720, Note_on_c, 4, 43, 84
12, 282944, Note_on_c, 4, 62, 0
12, 282944, Note_on_c, 4, 43, 0
12, 282960, Note_on_c, 4, 62, 84
12, 282960, Note_on_c, 4, 55, 84
12, 283184, Note_on_c, 4, 62, 0
12, 283184, Note_on_c, 4, 55, 0
12, 283200, Note_on_c, 4, 60, 84
12, 283200, Note_on_c, 4, 64, 84
12, 283424, Note_on_c, 4, 60, 0
12, 283424, Note_on_c, 4, 64, 0
12, 283440, Note_on_c, 4, 64, 84
12, 283440, Note_on_c, 4, 60, 84
12, 283664, Note_on_c, 4, 64, 0
12, 283664, Note_on_c, 4, 60, 0
12, 283680, Note_on_c, 4, 62, 84
12, 283680, Note_on_c, 4, 55, 84
12, 283904, Note_on_c, 4, 62, 0
12, 283904, Note_on_c, 4, 55, 0
12, 283920, Note_on_c, 4, 55, 84
12, 283920, Note_on_c, 4, 62, 84
12, 284144, Note_on_c, 4, 55, 0
12, 284144, Note_on_c, 4, 62, 0
12, 284160, Note_on_c, 4, 60, 84
12, 284160, Note_on_c, 4, 64, 84
12, 284384, Note_on_c, 4, 60, 0
12, 284384, Note_on_c, 4, 64, 0
12, 284400, Note_on_c, 4, 60, 84
12, 284400, Note_on_c, 4, 64, 84
12, 284624, Note_on_c, 4, 60, 0
12, 284624, Note_on_c, 4, 64, 0
12, 284640, Note_on_c, 4, 62, 84
12, 284640, Note_on_c, 4, 55, 84
12, 284759, Note_on_c, 4, 62, 0
12, 284759, Note_on_c, 4, 55, 0
12, 284820, Note_on_c, 4, 64, 84
12, 284820, Note_on_c, 4, 60, 84
12, 284871, Note_on_c, 4, 64, 0
12, 284871, Note_on_c, 4, 60, 0
12, 284880, Note_on_c, 4, 60, 84
12, 284880, Note_on_c, 4, 64, 84
12, 285104, Note_on_c, 4, 60, 0
12, 285104, Note_on_c, 4, 64, 0
12, 285120, Note_on_c, 4, 62, 84
12, 285120, Note_on_c, 4, 55, 84
12, 285239, Note_on_c, 4, 62, 0
12, 285239, Note_on_c, 4, 55, 0
12, 285300, Note_on_c, 4, 64, 84
12, 285300, Note_on_c, 4, 60, 84
12, 285351, Note_on_c, 4, 64, 0
12, 285351, Note_on_c, 4, 60, 0
12, 285360, Note_on_c, 4, 64, 84
12, 285360, Note_on_c, 4, 60, 84
12, 285584, Note_on_c, 4, 64, 0
12, 285584, Note_on_c, 4, 60, 0
12, 285600, Note_on_c, 4, 55, 84
12, 285600, Note_on_c, 4, 62, 84
12, 285719, Note_on_c, 4, 55, 0
12, 285719, Note_on_c, 4, 62, 0
12, 285780, Note_on_c, 4, 60, 84
12, 285780, Note_on_c, 4, 64, 84
12, 285831, Note_on_c, 4, 60, 0
12, 285831, Note_on_c, 4, 64, 0
12, 285840, Note_on_c, 4, 60, 84
12, 285840, Note_on_c, 4, 64, 84
12, 286064, Note_on_c, 4, 60, 0
12, 286064, Note_on_c, 4, 64, 0
12, 286080, Note_on_c, 4, 62, 84
12, 286080, Note_on_c, 4, 55, 84
12, 286199, Note_on_c, 4, 62, 0
12, 286199, Note_on_c, 4, 55, 0
12, 286260, Note_on_c, 4, 64, 84
12, 286260, Note_on_c, 4, 60, 84
12, 286311, Note_on_c, 4, 64, 0
12, 286311, Note_on_c, 4, 60, 0
12, 286320, Note_on_c, 4, 60, 84
12, 286320, Note_on_c, 4, 64, 84
12, 286544, Note_on_c, 4, 60, 0
12, 286544, Note_on_c, 4, 64, 0
12, 286560, Note_on_c, 4, 55, 84
12, 286560, Note_on_c, 4, 62, 84
12, 286679, Note_on_c, 4, 55, 0
12, 286679, Note_on_c, 4, 62, 0
12, 290400, Note_on_c, 4, 60, 84
12, 290400, Note_on_c, 4, 52, 84
12, 291104, Note_on_c, 4, 60, 0
12, 291104, Note_on_c, 4, 52, 0
12, 291120, Note_on_c, 4, 55, 84
12, 291120, Note_on_c, 4, 52, 84
12, 291359, Note_on_c, 4, 55, 0
12, 291359, Note_on_c, 4, 52, 0
12, 291360, Note_on_c, 4, 64, 84
12, 291360, Note_on_c, 4, 55, 84
12, 292079, Note_on_c, 4, 64, 0
12, 292079, Note_on_c, 4, 55, 0
12, 292080, Note_on_c, 4, 55, 84
12, 292080, Note_on_c, 4, 62, 84
12, 292259, Note_on_c, 4, 55, 0
12, 292259, Note_on_c, 4, 62, 0
12, 292260, Note_on_c, 4, 52, 84
12, 292260, Note_on_c, 4, 60, 84
12, 292311, Note_on_c, 4, 52, 0
12, 292311, Note_on_c, 4, 60, 0
12, 292320, Note_on_c, 4, 62, 84
12, 292320, Note_on_c, 4, 55, 84
12, 294224, Note_on_c, 4, 62, 0
12, 294224, Note_on_c, 4, 55, 0
12, 294240, Note_on_c, 4, 55, 84
12, 294240, Note_on_c, 4, 62, 84
12, 294944, Note_on_c, 4, 55, 0
12, 294944, Note_on_c, 4, 62, 0
12, 294960, Note_on_c, 4, 55, 84
12, 295199, Note_on_c, 4, 55, 0
12, 295200, Note_on_c, 4, 65, 84
12, 295200, Note_on_c, 4, 62, 84
12, 295919, Note_on_c, 4, 65, 0
12, 295919, Note_on_c, 4, 62, 0
12, 295920, Note_on_c, 4, 64, 84
12, 295920, Note_on_c, 4, 60, 84
12, 296099, Note_on_c, 4, 64, 0
12, 296099, Note_on_c, 4, 60, 0
12, 296100, Note_on_c, 4, 62, 84
12, 296100, Note_on_c, 4, 55, 84
12, 296151, Note_on_c, 4, 62, 0
12, 296151, Note_on_c, 4, 55, 0
12, 296160, Note_on_c, 4, 64, 84
12, 296160, Note_on_c, 4, 48, 84
12, 298064, Note_on_c, 4, 64, 0
12, 298064, Note_on_c, 4, 48, 0
12, 298080, Note_on_c, 4, 48, 84
12, 298080, Note_on_c, 4, 60, 84
12, 299999, Note_on_c, 4, 48, 0
12, 299999, Note_on_c, 4, 60, 0
12, 300000, Note_on_c, 4, 60, 84
12, 300000, Note_on_c, 4, 48, 84
12, 301904, Note_on_c, 4, 60, 0
12, 301904, Note_on_c, 4, 48, 0
12, 301920, Note_on_c, 4, 55, 84
12, 301920, Note_on_c, 4, 67, 84
12, 303839, Note_on_c, 4, 55, 0
12, 303839, Note_on_c, 4, 67, 0
12, 303840, Note_on_c, 4, 67, 84
12, 303840, Note_on_c, 4, 55, 84
12, 305744, Note_on_c, 4, 67, 0
12, 305744, Note_on_c, 4, 55, 0
12, 305760, Note_on_c, 4, 55, 84
12, 305760, Note_on_c, 4, 67, 84
12, 306704, Note_on_c, 4, 55, 0
12, 306704, Note_on_c, 4, 67, 0
12, 306720, Note_on_c, 4, 67, 84
12, 306720, Note_on_c, 4, 55, 84
12, 307664, Note_on_c, 4, 67, 0
12, 307664, Note_on_c, 4, 55, 0
12, 307680, Note_on_c, 4, 67, 84
12, 307680, Note_on_c, 4, 55, 84
12, 308264, Note_on_c, 4, 67, 0
12, 308264, Note_on_c, 4, 55, 0
12, 308280, Note_on_c, 4, 55, 84
12, 308280, Note_on_c, 4, 67, 84
12, 308504, Note_on_c, 4, 55, 0
12, 308504, Note_on_c, 4, 67, 0
12, 308520, Note_on_c, 4, 55, 84
12, 308520, Note_on_c, 4, 67, 84
12, 308624, Note_on_c, 4, 55, 0
12, 308624, Note_on_c, 4, 67, 0
12, 308640, Note_on_c, 4, 55, 84
12, 308640, Note_on_c, 4, 67, 84
12, 308744, Note_on_c, 4, 55, 0
12, 308744, Note_on_c, 4, 67, 0
12, 308760, Note_on_c, 4, 67, 84
12, 308760, Note_on_c, 4, 55, 84
12, 308984, Note_on_c, 4, 67, 0
12, 308984, Note_on_c, 4, 55, 0
12, 309000, Note_on_c, 4, 55, 84
12, 309000, Note_on_c, 4, 67, 84
12, 309104, Note_on_c, 4, 55, 0
12, 309104, Note_on_c, 4, 67, 0
12, 309120, Note_on_c, 4, 55, 84
12, 309120, Note_on_c, 4, 67, 84
12, 309224, Note_on_c, 4, 55, 0
12, 309224, Note_on_c, 4, 67, 0
12, 309240, Note_on_c, 4, 62, 84
12, 309464, Note_on_c, 4, 62, 0
12, 309480, Note_on_c, 4, 62, 84
12, 309584, Note_on_c, 4, 62, 0
12, 309600, Note_on_c, 4, 55, 84
12, 309600, Note_on_c, 4, 62, 84
12, 309839, Note_on_c, 4, 55, 0
12, 309839, Note_on_c, 4, 62, 0
12, 311520, Note_on_c, 4, 60, 84
12, 311520, Note_on_c, 4, 48, 84
12, 311759, Note_on_c, 4, 60, 0
12, 311759, Note_on_c, 4, 48, 0
12, 312000, Note_on_c, 4, 48, 84
12, 312000, Note_on_c, 4, 60, 84
12, 312239, Note_on_c, 4, 48, 0
12, 312239, Note_on_c, 4, 60, 0
12, 312480, Note_on_c, 4, 48, 84
12, 312480, Note_on_c, 4, 60, 84
12, 313199, Note_on_c, 4, 48, 0
12, 313199, Note_on_c, 4, 60, 0
12, 315120, Note_on_c, 4, 67, 76
12, 315120, Note_on_c, 4, 55, 76
12, 315187, Note_on_c, 4, 67, 0
12, 315187, Note_on_c, 4, 55, 0
12, 315200, Note_on_c, 4, 67, 76
12, 315200, Note_on_c, 4, 55, 76
12, 315267, Note_on_c, 4, 67, 0
12, 315267, Note_on_c, 4, 55, 0
12, 315280, Note_on_c, 4, 67, 76
12, 315280, Note_on_c, 4, 55, 76
12, 315347, Note_on_c, 4, 67, 0
12, 315347, Note_on_c, 4, 55, 0
12, 315360, Note_on_c, 4, 60, 76
12, 315360, Note_on_c, 4, 48, 76
12, 315584, Note_on_c, 4, 60, 0
12, 315584, Note_on_c, 4, 48, 0
12, 315600, Note_on_c, 4, 48, 76
12, 315600, Note_on_c, 4, 60, 76
12, 315667, Note_on_c, 4, 48, 0
12, 315667, Note_on_c, 4, 60, 0
12, 315680, Note_on_c, 4, 60, 76
12, 315680, Note_on_c, 4, 48, 76
12, 315747, Note_on_c, 4, 60, 0
12, 315747, Note_on_c, 4, 48, 0
12, 315760, Note_on_c, 4, 48, 76
12, 315760, Note_on_c, 4, 60, 76
12, 315827, Note_on_c, 4, 48, 0
12, 315827, Note_on_c, 4, 60, 0
12, 315840, Note_on_c, 4, 48, 76
12, 315840, Note_on_c, 4, 60, 76
12, 316064, Note_on_c, 4, 48, 0
12, 316064, Note_on_c, 4, 60, 0
12, 316080, Note_on_c, 4, 48, 76
12, 316080, Note_on_c, 4, 60, 76
12, 316147, Note_on_c, 4, 48, 0
12, 316147, Note_on_c, 4, 60, 0
12, 316160, Note_on_c, 4, 60, 76
12, 316160, Note_on_c, 4, 48, 76
12, 316227, Note_on_c, 4, 60, 0
12, 316227, Note_on_c, 4, 48, 0
12, 316240, Note_on_c, 4, 48, 76
12, 316240, Note_on_c, 4, 60, 76
12, 316307, Note_on_c, 4, 48, 0
12, 316307, Note_on_c, 4, 60, 0
12, 316320, Note_on_c, 4, 60, 76
12, 316320, Note_on_c, 4, 48, 76
12, 317039, Note_on_c, 4, 60, 0
12, 317039, Note_on_c, 4, 48, 0
12, 318480, Note_on_c, 4, 62, 76
12, 318480, Note_on_c, 4, 55, 76
12, 318547, Note_on_c, 4, 62, 0
12, 318547, Note_on_c, 4, 55, 0
12, 318560, Note_on_c, 4, 55, 76
12, 318560, Note_on_c, 4, 62, 76
12, 318627, Note_on_c, 4, 55, 0
12, 318627, Note_on_c, 4, 62, 0
12, 318640, Note_on_c, 4, 62, 76
12, 318640, Note_on_c, 4, 55, 76
12, 318707, Note_on_c, 4, 62, 0
12, 318707, Note_on_c, 4, 55, 0
12, 318720, Note_on_c, 4, 64, 76
12, 318720, Note_on_c, 4, 60, 76
12, 318959, Note_on_c, 4, 64, 0
12, 318959, Note_on_c, 4, 60, 0
12, 320160, Control_c, 4, 11, 48
12, 320880, Note_on_c, 4, 60, 84
12, 320880, Note_on_c, 4, 48, 84
12, 322079, Note_on_c, 4, 60, 0
12, 322079, Note_on_c, 4, 48, 0
12, 322080, Control_c, 4, 11, 48
12, 322080, Note_on_c, 4, 48, 84
12, 322080, Note_on_c, 4, 60, 84
12, 322160, Control_c, 4, 11, 51
12, 322240, Control_c, 4, 11, 55
12, 322320, Control_c, 4, 11, 58
12, 322400, Control_c, 4, 11, 61
12, 322480, Control_c, 4, 11, 64
12, 322560, Control_c, 4, 11, 68
12, 322640, Control_c, 4, 11, 71
12, 322720, Control_c, 4, 11, 74
12, 322800, Control_c, 4, 11, 78
12, 322880, Control_c, 4, 11, 81
12, 322960, Control_c, 4, 11, 84
12, 323040, Control_c, 4, 11, 88
12, 323120, Control_c, 4, 11, 91
12, 323200, Control_c, 4, 11, 94
12, 323280, Control_c, 4, 11, 97
12, 323360, Control_c, 4, 11, 101
12, 323440, Control_c, 4, 11, 104
12, 323520, Control_c, 4, 11, 107
12, 323600, Control_c, 4, 11, 111
12, 323680, Control_c, 4, 11, 114
12, 323760, Control_c, 4, 11, 117
12, 323840, Control_c, 4, 11, 120
12, 323920, Control_c, 4, 11, 127
12, 323984, Note_on_c, 4, 48, 0
12, 323984, Note_on_c, 4, 60, 0
12, 324000, Note_on_c, 4, 48, 84
12, 324000, Note_on_c, 4, 60, 84
12, 324479, Note_on_c, 4, 48, 0
12, 324479, Note_on_c, 4, 60, 0
12, 324480, Note_on_c, 4, 60, 84
12, 324480, Note_on_c, 4, 48, 84
12, 324584, Note_on_c, 4, 60, 0
12, 324584, Note_on_c, 4, 48, 0
12, 324600, Note_on_c, 4, 60, 84
12, 324600, Note_on_c, 4, 48, 84
12, 324704, Note_on_c, 4, 60, 0
12, 324704, Note_on_c, 4, 48, 0
12, 324720, Note_on_c, 4, 60, 84
12, 324720, Note_on_c, 4, 48, 84
12, 324824, Note_on_c, 4, 60, 0
12, 324824, Note_on_c, 4, 48, 0
12, 324840, Note_on_c, 4, 48, 84
12, 324840, Note_on_c, 4, 60, 84
12, 324944, Note_on_c, 4, 48, 0
12, 324944, Note_on_c, 4, 60, 0
12, 324960, Note_on_c, 4, 60, 84
12, 324960, Note_on_c, 4, 48, 84
12, 325064, Note_on_c, 4, 60, 0
12, 325064, Note_on_c, 4, 48, 0
12, 325080, Note_on_c, 4, 60, 84
12, 325080, Note_on_c, 4, 48, 84
12, 325184, Note_on_c, 4, 60, 0
12, 325184, Note_on_c, 4, 48, 0
12, 325200, Note_on_c, 4, 60, 84
12, 325200, Note_on_c, 4, 48, 84
12, 325304, Note_on_c, 4, 60, 0
12, 325304, Note_on_c, 4, 48, 0
12, 325320, Note_on_c, 4, 48, 84
12, 325320, Note_on_c, 4, 60, 84
12, 325424, Note_on_c, 4, 48, 0
12, 325424, Note_on_c, 4, 60, 0
12, 325440, Note_on_c, 4, 48, 84
12, 325440, Note_on_c, 4, 60, 84
12, 325544, Note_on_c, 4, 48, 0
12, 325544, Note_on_c, 4, 60, 0
12, 325560, Note_on_c, 4, 48, 84
12, 325560, Note_on_c, 4, 60, 84
12, 325664, Note_on_c, 4, 48, 0
12, 325664, Note_on_c, 4, 60, 0
12, 325680, Note_on_c, 4, 48, 84
12, 325680, Note_on_c, 4, 60, 84
12, 325784, Note_on_c, 4, 48, 0
12, 325784, Note_on_c, 4, 60, 0
12, 325800, Note_on_c, 4, 48, 84
12, 325800, Note_on_c, 4, 60, 84
12, 325904, Note_on_c, 4, 48, 0
12, 325904, Note_on_c, 4, 60, 0
12, 325920, Note_on_c, 4, 48, 84
12, 325920, Note_on_c, 4, 60, 84
12, 326144, Note_on_c, 4, 48, 0
12, 326144, Note_on_c, 4, 60, 0
12, 326160, Note_on_c, 4, 60, 84
12, 326160, Note_on_c, 4, 48, 84
12, 326384, Note_on_c, 4, 60, 0
12, 326384, Note_on_c, 4, 48, 0
12, 326400, Note_on_c, 4, 60, 84
12, 326400, Note_on_c, 4, 48, 84
12, 326624, Note_on_c, 4, 60, 0
12, 326624, Note_on_c, 4, 48, 0
12, 326640, Note_on_c, 4, 48, 84
12, 326640, Note_on_c, 4, 60, 84
12, 326864, Note_on_c, 4, 48, 0
12, 326864, Note_on_c, 4, 60, 0
12, 326880, Note_on_c, 4, 60, 84
12, 326880, Note_on_c, 4, 48, 84
12, 327104, Note_on_c, 4, 60, 0
12, 327104, Note_on_c, 4, 48, 0
12, 327120, Note_on_c, 4, 48, 84
12, 327120, Note_on_c, 4, 60, 84
12, 327344, Note_on_c, 4, 48, 0
12, 327344, Note_on_c, 4, 60, 0
12, 327360, Note_on_c, 4, 60, 84
12, 327360, Note_on_c, 4, 48, 84
12, 327464, Note_on_c, 4, 60, 0
12, 327464, Note_on_c, 4, 48, 0
12, 327480, Note_on_c, 4, 60, 84
12, 327480, Note_on_c, 4, 48, 84
12, 327584, Note_on_c, 4, 60, 0
12, 327584, Note_on_c, 4, 48, 0
12, 327600, Note_on_c, 4, 48, 84
12, 327600, Note_on_c, 4, 60, 84
12, 327704, Note_on_c, 4, 48, 0
12, 327704, Note_on_c, 4, 60, 0
12, 327720, Note_on_c, 4, 60, 84
12, 327720, Note_on_c, 4, 48, 84
12, 327824, Note_on_c, 4, 60, 0
12, 327824, Note_on_c, 4, 48, 0
12, 327840, Note_on_c, 4, 48, 84
12, 327840, Note_on_c, 4, 60, 84
12, 328019, Note_on_c, 4, 48, 0
12, 328019, Note_on_c, 4, 60, 0
12, 328800, Note_on_c, 4, 55, 84
12, 328800, Note_on_c, 4, 43, 84
12, 328979, Note_on_c, 4, 55, 0
12, 328979, Note_on_c, 4, 43, 0
12, 330480, Note_on_c, 4, 62, 48
12, 330719, Note_on_c, 4, 62, 0
12, 330720, Note_on_c, 4, 60, 48
12, 330959, Note_on_c, 4, 60, 0
12, 330960, Note_on_c, 4, 55, 48
12, 330960, Note_on_c, 4, 62, 48
12, 331184, Note_on_c, 4, 55, 0
12, 331184, Note_on_c, 4, 62, 0
12, 331200, Note_on_c, 4, 55, 48
12, 331200, Note_on_c, 4, 62, 48
12, 331424, Note_on_c, 4, 55, 0
12, 331424, Note_on_c, 4, 62, 0
12, 331440, Note_on_c, 4, 62, 48
12, 331440, Note_on_c, 4, 55, 48
12, 331679, Note_on_c, 4, 62, 0
12, 331679, Note_on_c, 4, 55, 0
12, 332400, Note_on_c, 4, 62, 48
12, 332639, Note_on_c, 4, 62, 0
12, 332640, Note_on_c, 4, 60, 48
12, 332879, Note_on_c, 4, 60, 0
12, 332880, Note_on_c, 4, 62, 48
12, 332880, Note_on_c, 4, 55, 48
12, 333104, Note_on_c, 4, 62, 0
12, 333104, Note_on_c, 4, 55, 0
12, 333120, Note_on_c, 4, 55, 48
12, 333120, Note_on_c, 4, 62, 48
12, 333344, Note_on_c, 4, 55, 0
12, 333344, Note_on_c, 4, 62, 0
12, 333360, Note_on_c, 4, 55, 48
12, 333360, Note_on_c, 4, 62, 48
12, 333584, Note_on_c, 4, 55, 0
12, 333584, Note_on_c, 4, 62, 0
12, 333600, Note_on_c, 4, 65, 76
12, 333720, Control_c, 4, 11, 80
12, 334319, Note_on_c, 4, 65, 0
12, 334320, Note_on_c, 4, 64, 76
12, 334559, Note_on_c, 4, 64, 0
12, 334560, Note_on_c, 4, 62, 76
12, 334799, Note_on_c, 4, 62, 0
12, 334800, Note_on_c, 4, 67, 76
12, 334800, Note_on_c, 4, 64, 76
12, 335024, Note_on_c, 4, 67, 0
12, 335024, Note_on_c, 4, 64, 0
12, 335040, Note_on_c, 4, 64, 76
12, 335040, Note_on_c, 4, 67, 76
12, 335264, Note_on_c, 4, 64, 0
12, 335264, Note_on_c, 4, 67, 0
12, 335280, Note_on_c, 4, 67, 76
12, 335280, Note_on_c, 4, 64, 76
12, 335504, Note_on_c, 4, 67, 0
12, 335504, Note_on_c, 4, 64, 0
12, 335520, Note_on_c, 4, 62, 76
12, 335520, Note_on_c, 4, 65, 76
12, 335984, Note_on_c, 4, 62, 0
12, 335984, Note_on_c, 4, 65, 0
12, 336000, Note_on_c, 4, 62, 76
12, 336000, Note_on_c, 4, 65, 76
12, 336464, Note_on_c, 4, 62, 0
12, 336464, Note_on_c, 4, 65, 0
12, 336480, Note_on_c, 4, 64, 76
12, 336480, Note_on_c, 4, 60, 76
12, 336959, Note_on_c, 4, 64, 0
12, 336959, Note_on_c, 4, 60, 0
12, 336960, Note_on_c, 4, 65, 76
12, 336960, Note_on_c, 4, 62, 76
12, 337379, Note_on_c, 4, 65, 0
12, 337379, Note_on_c, 4, 62, 0
12, 337380, Note_on_c, 4, 55, 76
12, 337380, Note_on_c, 4, 62, 76
12, 337431, Note_on_c, 4, 55, 0
12, 337431, Note_on_c, 4, 62, 0
12, 337438, Control_c, 4, 11, 127
12, 337440, Note_on_c, 4, 60, 76
12, 337440, Note_on_c, 4, 52, 76
12, 338144, Note_on_c, 4, 60, 0
12, 338144, Note_on_c, 4, 52, 0
12, 338160, Note_on_c, 4, 62, 76
12, 338160, Note_on_c, 4, 55, 76
12, 338384, Note_on_c, 4, 62, 0
12, 338384, Note_on_c, 4, 55, 0
12, 338400, Note_on_c, 4, 48, 76
12, 338400, Note_on_c, 4, 60, 76
12, 338624, Note_on_c, 4, 48, 0
12, 338624, Note_on_c, 4, 60, 0
12, 338640, Note_on_c, 4, 65, 76
12, 338640, Note_on_c, 4, 62, 76
12, 338864, Note_on_c, 4, 65, 0
12, 338864, Note_on_c, 4, 62, 0
12, 338880, Note_on_c, 4, 65, 76
12, 338880, Note_on_c, 4, 62, 76
12, 339104, Note_on_c, 4, 65, 0
12, 339104, Note_on_c, 4, 62, 0
12, 339120, Note_on_c, 4, 62, 76
12, 339120, Note_on_c, 4, 65, 76
12, 339344, Note_on_c, 4, 62, 0
12, 339344, Note_on_c, 4, 65, 0
12, 339360, Note_on_c, 4, 52, 84
12, 339360, Note_on_c, 4, 60, 84
12, 339480, Control_c, 4, 11, 112
12, 340064, Note_on_c, 4, 52, 0
12, 340064, Note_on_c, 4, 60, 0
12, 340080, Note_on_c, 4, 62, 84
12, 340080, Note_on_c, 4, 55, 84
12, 340304, Note_on_c, 4, 62, 0
12, 340304, Note_on_c, 4, 55, 0
12, 340320, Note_on_c, 4, 48, 84
12, 340320, Note_on_c, 4, 60, 84
12, 340544, Note_on_c, 4, 48, 0
12, 340544, Note_on_c, 4, 60, 0
12, 340560, Note_on_c, 4, 62, 84
12, 340560, Note_on_c, 4, 65, 84
12, 340784, Note_on_c, 4, 62, 0
12, 340784, Note_on_c, 4, 65, 0
12, 340800, Note_on_c, 4, 62, 84
12, 340800, Note_on_c, 4, 65, 84
12, 341024, Note_on_c, 4, 62, 0
12, 341024, Note_on_c, 4, 65, 0
12, 341040, Note_on_c, 4, 62, 84
12, 341040, Note_on_c, 4, 65, 84
12, 341264, Note_on_c, 4, 62, 0
12, 341264, Note_on_c, 4, 65, 0
12, 341278, Control_c, 4, 11, 127
12, 341280, Note_on_c, 4, 62, 84
12, 341280, Note_on_c, 4, 55, 84
12, 341400, Control_c, 4, 11, 112
12, 341984, Note_on_c, 4, 62, 0
12, 341984, Note_on_c, 4, 55, 0
12, 342000, Note_on_c, 4, 60, 84
12, 342000, Note_on_c, 4, 52, 84
12, 342224, Note_on_c, 4, 60, 0
12, 342224, Note_on_c, 4, 52, 0
12, 342238, Control_c, 4, 11, 127
12, 342240, Note_on_c, 4, 60, 76
12, 342240, Note_on_c, 4, 48, 76
12, 342464, Note_on_c, 4, 60, 0
12, 342464, Note_on_c, 4, 48, 0
12, 342480, Note_on_c, 4, 64, 80
12, 342480, Note_on_c, 4, 52, 80
12, 342704, Note_on_c, 4, 64, 0
12, 342704, Note_on_c, 4, 52, 0
12, 342720, Note_on_c, 4, 52, 80
12, 342720, Note_on_c, 4, 64, 80
12, 342944, Note_on_c, 4, 52, 0
12, 342944, Note_on_c, 4, 64, 0
12, 342960, Note_on_c, 4, 52, 80
12, 342960, Note_on_c, 4, 64, 80
12, 343184, Note_on_c, 4, 52, 0
12, 343184, Note_on_c, 4, 64, 0
12, 343200, Note_on_c, 4, 52, 80
12, 343200, Note_on_c, 4, 64, 80
12, 343424, Note_on_c, 4, 52, 0
12, 343424, Note_on_c, 4, 64, 0
12, 343440, Note_on_c, 4, 52, 80
12, 343440, Note_on_c, 4, 64, 80
12, 343664, Note_on_c, 4, 52, 0
12, 343664, Note_on_c, 4, 64, 0
12, 343680, Note_on_c, 4, 52, 80
12, 343680, Note_on_c, 4, 64, 80
12, 343904, Note_on_c, 4, 52, 0
12, 343904, Note_on_c, 4, 64, 0
12, 343920, Note_on_c, 4, 52, 80
12, 343920, Note_on_c, 4, 64, 80
12, 344144, Note_on_c, 4, 52, 0
12, 344144, Note_on_c, 4, 64, 0
12, 344160, Note_on_c, 4, 64, 80
12, 344160, Note_on_c, 4, 52, 80
12, 344384, Note_on_c, 4, 64, 0
12, 344384, Note_on_c, 4, 52, 0
12, 344400, Note_on_c, 4, 52, 80
12, 344400, Note_on_c, 4, 64, 80
12, 344624, Note_on_c, 4, 52, 0
12, 344624, Note_on_c, 4, 64, 0
12, 344640, Note_on_c, 4, 64, 80
12, 344640, Note_on_c, 4, 52, 80
12, 344864, Note_on_c, 4, 64, 0
12, 344864, Note_on_c, 4, 52, 0
12, 344880, Note_on_c, 4, 64, 80
12, 344880, Note_on_c, 4, 52, 80
12, 345104, Note_on_c, 4, 64, 0
12, 345104, Note_on_c, 4, 52, 0
12, 345120, Note_on_c, 4, 64, 84
12, 346064, Note_on_c, 4, 64, 0
12, 346080, Note_on_c, 4, 65, 84
12, 347984, Note_on_c, 4, 65, 0
12, 348000, Note_on_c, 4, 48, 84
12, 348000, Note_on_c, 4, 60, 84
12, 349904, Note_on_c, 4, 48, 0
12, 349904, Note_on_c, 4, 60, 0
12, 349920, Note_on_c, 4, 60, 92
12, 349920, Note_on_c, 4, 52, 92
12, 350040, Control_c, 4, 11, 112
12, 350639, Note_on_c, 4, 60, 0
12, 350639, Note_on_c, 4, 52, 0
12, 351600, Control_c, 4, 11, 127
12, 351840, Note_on_c, 4, 55, 84
12, 351840, Note_on_c, 4, 67, 84
12, 351960, Control_c, 4, 11, 112
12, 352079, Note_on_c, 4, 55, 0
12, 352079, Note_on_c, 4, 67, 0
12, 353520, Control_c, 4, 11, 127
12, 353760, Note_on_c, 4, 67, 76
12, 353760, Note_on_c, 4, 55, 76
12, 353999, Note_on_c, 4, 67, 0
12, 353999, Note_on_c, 4, 55, 0
12, 355680, Note_on_c, 4, 55, 76
12, 355680, Note_on_c, 4, 67, 76
12, 355919, Note_on_c, 4, 55, 0
12, 355919, Note_on_c, 4, 67, 0
12, 357600, Note_on_c, 4, 67, 76
12, 357600, Note_on_c, 4, 55, 76
12, 357839, Note_on_c, 4, 67, 0
12, 357839, Note_on_c, 4, 55, 0
12, 358320, Note_on_c, 4, 64, 80
12, 358320, Note_on_c, 4, 48, 80
12, 358544, Note_on_c, 4, 64, 0
12, 358544, Note_on_c, 4, 48, 0
12, 358560, Note_on_c, 4, 62, 80
12, 358560, Note_on_c, 4, 43, 80
12, 359024, Note_on_c, 4, 62, 0
12, 359024, Note_on_c, 4, 43, 0
12, 359040, Note_on_c, 4, 48, 80
12, 359040, Note_on_c, 4, 64, 80
12, 359504, Note_on_c, 4, 48, 0
12, 359504, Note_on_c, 4, 64, 0
12, 359520, Note_on_c, 4, 65, 80
12, 359520, Note_on_c, 4, 43, 80
12, 360224, Note_on_c, 4, 65, 0
12, 360224, Note_on_c, 4, 43, 0
12, 360240, Note_on_c, 4, 65, 80
12, 360240, Note_on_c, 4, 43, 80
12, 360464, Note_on_c, 4, 65, 0
12, 360464, Note_on_c, 4, 43, 0
12, 360480, Note_on_c, 4, 43, 80
12, 360480, Note_on_c, 4, 64, 80
12, 360944, Note_on_c, 4, 43, 0
12, 360944, Note_on_c, 4, 64, 0
12, 360960, Note_on_c, 4, 43, 80
12, 360960, Note_on_c, 4, 65, 80
12, 361424, Note_on_c, 4, 43, 0
12, 361424, Note_on_c, 4, 65, 0
12, 361440, Note_on_c, 4, 67, 84
12, 361440, Note_on_c, 4, 43, 84
12, 363344, Note_on_c, 4, 67, 0
12, 363344, Note_on_c, 4, 43, 0
12, 363360, Note_on_c, 4, 60, 84
12, 363360, Note_on_c, 4, 48, 84
12, 363839, Note_on_c, 4, 60, 0
12, 363839, Note_on_c, 4, 48, 0
12, 363840, Note_on_c, 4, 60, 84
12, 363840, Note_on_c, 4, 48, 84
12, 363944, Note_on_c, 4, 60, 0
12, 363944, Note_on_c, 4, 48, 0
12, 363960, Note_on_c, 4, 48, 84
12, 363960, Note_on_c, 4, 60, 84
12, 364064, Note_on_c, 4, 48, 0
12, 364064, Note_on_c, 4, 60, 0
12, 364080, Note_on_c, 4, 48, 84
12, 364080, Note_on_c, 4, 60, 84
12, 364184, Note_on_c, 4, 48, 0
12, 364184, Note_on_c, 4, 60, 0
12, 364200, Note_on_c, 4, 48, 84
12, 364200, Note_on_c, 4, 60, 84
12, 364304, Note_on_c, 4, 48, 0
12, 364304, Note_on_c, 4, 60, 0
12, 364320, Note_on_c, 4, 48, 84
12, 364320, Note_on_c, 4, 60, 84
12, 364799, Note_on_c, 4, 48, 0
12, 364799, Note_on_c, 4, 60, 0
12, 364800, Note_on_c, 4, 60, 84
12, 364800, Note_on_c, 4, 48, 84
12, 364904, Note_on_c, 4, 60, 0
12, 364904, Note_on_c, 4, 48, 0
12, 364920, Note_on_c, 4, 60, 84
12, 364920, Note_on_c, 4, 48, 84
12, 365024, Note_on_c, 4, 60, 0
12, 365024, Note_on_c, 4, 48, 0
12, 365040, Note_on_c, 4, 60, 84
12, 365040, Note_on_c, 4, 48, 84
12, 365144, Note_on_c, 4, 60, 0
12, 365144, Note_on_c, 4, 48, 0
12, 365160, Note_on_c, 4, 60, 84
12, 365160, Note_on_c, 4, 48, 84
12, 365264, Note_on_c, 4, 60, 0
12, 365264, Note_on_c, 4, 48, 0
12, 365280, Note_on_c, 4, 48, 84
12, 365280, Note_on_c, 4, 60, 84
12, 365504, Note_on_c, 4, 48, 0
12, 365504, Note_on_c, 4, 60, 0
12, 365520, Note_on_c, 4, 65, 84
12, 365520, Note_on_c, 4, 60, 84
12, 365624, Note_on_c, 4, 65, 0
12, 365624, Note_on_c, 4, 60, 0
12, 365640, Note_on_c, 4, 65, 84
12, 365640, Note_on_c, 4, 60, 84
12, 365744, Note_on_c, 4, 65, 0
12, 365744, Note_on_c, 4, 60, 0
12, 365760, Note_on_c, 4, 60, 84
12, 365760, Note_on_c, 4, 65, 84
12, 365864, Note_on_c, 4, 60, 0
12, 365864, Note_on_c, 4, 65, 0
12, 365880, Note_on_c, 4, 60, 84
12, 365880, Note_on_c, 4, 65, 84
12, 365984, Note_on_c, 4, 60, 0
12, 365984, Note_on_c, 4, 65, 0
12, 366000, Note_on_c, 4, 60, 84
12, 366000, Note_on_c, 4, 65, 84
12, 366104, Note_on_c, 4, 60, 0
12, 366104, Note_on_c, 4, 65, 0
12, 366120, Note_on_c, 4, 65, 84
12, 366120, Note_on_c, 4, 60, 84
12, 366224, Note_on_c, 4, 65, 0
12, 366224, Note_on_c, 4, 60, 0
12, 366240, Note_on_c, 4, 65, 84
12, 366240, Note_on_c, 4, 60, 84
12, 366344, Note_on_c, 4, 65, 0
12, 366344, Note_on_c, 4, 60, 0
12, 366360, Note_on_c, 4, 65, 84
12, 366360, Note_on_c, 4, 60, 84
12, 366464, Note_on_c, 4, 65, 0
12, 366464, Note_on_c, 4, 60, 0
12, 366480, Note_on_c, 4, 60, 84
12, 366480, Note_on_c, 4, 65, 84
12, 366584, Note_on_c, 4, 60, 0
12, 366584, Note_on_c, 4, 65, 0
12, 366600, Note_on_c, 4, 60, 84
12, 366600, Note_on_c, 4, 65, 84
12, 366704, Note_on_c, 4, 60, 0
12, 366704, Note_on_c, 4, 65, 0
12, 366720, Note_on_c, 4, 60, 84
12, 366720, Note_on_c, 4, 65, 84
12, 366824, Note_on_c, 4, 60, 0
12, 366824, Note_on_c, 4, 65, 0
12, 366840, Note_on_c, 4, 60, 84
12, 366840, Note_on_c, 4, 65, 84
12, 366944, Note_on_c, 4, 60, 0
12, 366944, Note_on_c, 4, 65, 0
12, 366960, Note_on_c, 4, 65, 84
12, 366960, Note_on_c, 4, 60, 84
12, 367064, Note_on_c, 4, 65, 0
12, 367064, Note_on_c, 4, 60, 0
12, 367080, Note_on_c, 4, 65, 84
12, 367080, Note_on_c, 4, 60, 84
12, 367184, Note_on_c, 4, 65, 0
12, 367184, Note_on_c, 4, 60, 0
12, 367200, Note_on_c, 4, 55, 84
12, 367200, Note_on_c, 4, 62, 84
12, 367379, Note_on_c, 4, 55, 0
12, 367379, Note_on_c, 4, 62, 0
12, 368160, Note_on_c, 4, 55, 84
12, 368160, Note_on_c, 4, 62, 84
12, 368339, Note_on_c, 4, 55, 0
12, 368339, Note_on_c, 4, 62, 0
12, 369120, Note_on_c, 4, 52, 84
12, 369120, Note_on_c, 4, 60, 84
12, 369299, Note_on_c, 4, 52, 0
12, 369299, Note_on_c, 4, 60, 0
12, 370080, Note_on_c, 4, 55, 84
12, 370080, Note_on_c, 4, 62, 84
12, 370259, Note_on_c, 4, 55, 0
12, 370259, Note_on_c, 4, 62, 0
12, 371040, Note_on_c, 4, 60, 84
12, 371040, Note_on_c, 4, 52, 84
12, 371219, Note_on_c, 4, 60, 0
12, 371219, Note_on_c, 4, 52, 0
12, 372000, Note_on_c, 4, 55, 84
12, 372000, Note_on_c, 4, 62, 84
12, 372179, Note_on_c, 4, 55, 0
12, 372179, Note_on_c, 4, 62, 0
12, 373920, Control_c, 4, 11, 80
12, 374640, Note_on_c, 4, 52, 76
12, 374879, Note_on_c, 4, 52, 0
12, 374880, Note_on_c, 4, 60, 76
12, 375119, Note_on_c, 4, 60, 0
12, 375120, Note_on_c, 4, 55, 76
12, 375359, Note_on_c, 4, 55, 0
12, 375360, Note_on_c, 4, 64, 76
12, 375599, Note_on_c, 4, 64, 0
12, 375600, Note_on_c, 4, 62, 76
12, 375779, Note_on_c, 4, 62, 0
12, 375780, Note_on_c, 4, 60, 76
12, 375831, Note_on_c, 4, 60, 0
12, 375840, Note_on_c, 4, 67, 76
12, 376800, Control_c, 4, 11, 80
12, 376902, Control_c, 4, 11, 81
12, 377004, Control_c, 4, 11, 82
12, 377106, Control_c, 4, 11, 83
12, 377209, Control_c, 4, 11, 84
12, 377311, Control_c, 4, 11, 85
12, 377413, Control_c, 4, 11, 86
12, 377515, Control_c, 4, 11, 87
12, 377617, Control_c, 4, 11, 88
12, 377719, Control_c, 4, 11, 89
12, 377759, Note_on_c, 4, 67, 0
12, 377760, Note_on_c, 4, 67, 76
12, 377821, Control_c, 4, 11, 90
12, 377923, Control_c, 4, 11, 91
12, 378026, Control_c, 4, 11, 92
12, 378128, Control_c, 4, 11, 93
12, 378230, Control_c, 4, 11, 94
12, 378332, Control_c, 4, 11, 95
12, 378434, Control_c, 4, 11, 96
12, 378536, Control_c, 4, 11, 97
12, 378638, Control_c, 4, 11, 98
12, 378740, Control_c, 4, 11, 99
12, 378843, Control_c, 4, 11, 100
12, 378945, Control_c, 4, 11, 101
12, 379047, Control_c, 4, 11, 102
12, 379149, Control_c, 4, 11, 103
12, 379251, Control_c, 4, 11, 104
12, 379353, Control_c, 4, 11, 105
12, 379455, Control_c, 4, 11, 106
12, 379557, Control_c, 4, 11, 107
12, 379660, Control_c, 4, 11, 108
12, 379679, Note_on_c, 4, 67, 0
12, 379680, Note_on_c, 4, 67, 76
12, 379762, Control_c, 4, 11, 109
12, 379864, Control_c, 4, 11, 110
12, 379966, Control_c, 4, 11, 111
12, 380068, Control_c, 4, 11, 112
12, 380170, Control_c, 4, 11, 113
12, 380272, Control_c, 4, 11, 114
12, 380374, Control_c, 4, 11, 115
12, 380477, Control_c, 4, 11, 116
12, 380579, Control_c, 4, 11, 117
12, 380681, Control_c, 4, 11, 118
12, 380783, Control_c, 4, 11, 119
12, 380885, Control_c, 4, 11, 120
12, 380987, Control_c, 4, 11, 121
12, 381089, Control_c, 4, 11, 122
12, 381191, Control_c, 4, 11, 123
12, 381294, Control_c, 4, 11, 124
12, 381396, Control_c, 4, 11, 125
12, 381498, Control_c, 4, 11, 127
12, 381584, Note_on_c, 4, 67, 0
12, 381600, Note_on_c, 4, 60, 76
12, 381824, Note_on_c, 4, 60, 0
12, 381840, Note_on_c, 4, 60, 76
12, 381840, Note_on_c, 4, 48, 76
12, 382064, Note_on_c, 4, 60, 0
12, 382064, Note_on_c, 4, 48, 0
12, 382080, Note_on_c, 4, 60, 76
12, 382080, Note_on_c, 4, 48, 76
12, 382304, Note_on_c, 4, 60, 0
12, 382304, Note_on_c, 4, 48, 0
12, 382320, Note_on_c, 4, 60, 76
12, 382320, Note_on_c, 4, 48, 76
12, 382544, Note_on_c, 4, 60, 0
12, 382544, Note_on_c, 4, 48, 0
12, 382560, Note_on_c, 4, 48, 76
12, 382560, Note_on_c, 4, 60, 76
12, 382784, Note_on_c, 4, 48, 0
12, 382784, Note_on_c, 4, 60, 0
12, 382800, Note_on_c, 4, 60, 76
12, 382800, Note_on_c, 4, 48, 76
12, 383024, Note_on_c, 4, 60, 0
12, 383024, Note_on_c, 4, 48, 0
12, 383040, Note_on_c, 4, 60, 76
12, 383040, Note_on_c, 4, 48, 76
12, 383264, Note_on_c, 4, 60, 0
12, 383264, Note_on_c, 4, 48, 0
12, 383280, Note_on_c, 4, 60, 76
12, 383280, Note_on_c, 4, 48, 76
12, 383504, Note_on_c, 4, 60, 0
12, 383504, Note_on_c, 4, 48, 0
12, 383520, Note_on_c, 4, 48, 76
12, 383520, Note_on_c, 4, 60, 76
12, 384224, Note_on_c, 4, 48, 0
12, 384224, Note_on_c, 4, 60, 0
12, 384240, Note_on_c, 4, 48, 76
12, 384240, Note_on_c, 4, 60, 76
12, 384419, Note_on_c, 4, 48, 0
12, 384419, Note_on_c, 4, 60, 0
12, 384480, Note_on_c, 4, 60, 76
12, 384480, Note_on_c, 4, 48, 76
12, 385184, Note_on_c, 4, 60, 0
12, 385184, Note_on_c, 4, 48, 0
12, 385200, Note_on_c, 4, 60, 76
12, 385200, Note_on_c, 4, 48, 76
12, 385379, Note_on_c, 4, 60, 0
12, 385379, Note_on_c, 4, 48, 0
12, 385440, Note_on_c, 4, 48, 76
12, 385440, Note_on_c, 4, 60, 76
12, 386144, Note_on_c, 4, 48, 0
12, 386144, Note_on_c, 4, 60, 0
12, 386160, Note_on_c, 4, 60, 76
12, 386160, Note_on_c, 4, 48, 76
12, 386339, Note_on_c, 4, 60, 0
12, 386339, Note_on_c, 4, 48, 0
12, 386400, Note_on_c, 4, 48, 76
12, 386400, Note_on_c, 4, 60, 76
12, 387104, Note_on_c, 4, 48, 0
12, 387104, Note_on_c, 4, 60, 0
12, 387120, Note_on_c, 4, 48, 76
12, 387120, Note_on_c, 4, 60, 76
12, 387299, Note_on_c, 4, 48, 0
12, 387299, Note_on_c, 4, 60, 0
12, 387360, Note_on_c, 4, 55, 76
12, 387360, Note_on_c, 4, 43, 76
12, 387599, Note_on_c, 4, 55, 0
12, 387599, Note_on_c, 4, 43, 0
12, 387840, Note_on_c, 4, 60, 52
12, 387840, Note_on_c, 4, 64, 52
12, 388079, Note_on_c, 4, 60, 0
12, 388079, Note_on_c, 4, 64, 0
12, 388320, Note_on_c, 4, 65, 52
12, 388320, Note_on_c, 4, 62, 52
12, 388559, Note_on_c, 4, 65, 0
12, 388559, Note_on_c, 4, 62, 0
12, 388800, Note_on_c, 4, 55, 52
12, 388800, Note_on_c, 4, 62, 52
12, 389039, Note_on_c, 4, 55, 0
12, 389039, Note_on_c, 4, 62, 0
12, 390960, Note_on_c, 4, 52, 52
12, 391199, Note_on_c, 4, 52, 0
12, 391200, Note_on_c, 4, 60, 52
12, 391439, Note_on_c, 4, 60, 0
12, 391440, Note_on_c, 4, 55, 52
12, 391679, Note_on_c, 4, 55, 0
12, 391680, Note_on_c, 4, 64, 52
12, 391919, Note_on_c, 4, 64, 0
12, 391920, Note_on_c, 4, 62, 52
12, 392099, Note_on_c, 4, 62, 0
12, 392100, Note_on_c, 4, 60, 52
12, 392151, Note_on_c, 4, 60, 0
12, 392160, Note_on_c, 4, 67, 52
12, 392864, Note_on_c, 4, 67, 0
12, 392880, Note_on_c, 4, 67, 52
12, 392880, Note_on_c, 4, 55, 52
12, 393119, Note_on_c, 4, 67, 0
12, 393120, Note_on_c, 4, 62, 53
12, 393344, Note_on_c, 4, 55, 0
12, 393344, Note_on_c, 4, 62, 0
12, 393360, Note_on_c, 4, 62, 54
12, 393360, Note_on_c, 4, 55, 54
12, 393599, Note_on_c, 4, 62, 0
12, 393599, Note_on_c, 4, 55, 0
12, 393840, Note_on_c, 4, 55, 56
12, 393840, Note_on_c, 4, 62, 56
12, 394079, Note_on_c, 4, 55, 0
12, 394079, Note_on_c, 4, 62, 0
12, 394320, Note_on_c, 4, 64, 58
12, 394320, Note_on_c, 4, 60, 58
12, 394559, Note_on_c, 4, 64, 0
12, 394559, Note_on_c, 4, 60, 0
12, 394800, Note_on_c, 4, 64, 61
12, 394800, Note_on_c, 4, 60, 61
12, 395039, Note_on_c, 4, 64, 0
12, 395039, Note_on_c, 4, 60, 0
12, 395280, Note_on_c, 4, 55, 63
12, 395280, Note_on_c, 4, 62, 63
12, 395519, Note_on_c, 4, 55, 0
12, 395519, Note_on_c, 4, 62, 0
12, 395760, Note_on_c, 4, 55, 65
12, 395760, Note_on_c, 4, 62, 65
12, 395999, Note_on_c, 4, 55, 0
12, 395999, Note_on_c, 4, 62, 0
12, 396240, Note_on_c, 4, 60, 68
12, 396240, Note_on_c, 4, 64, 68
12, 396479, Note_on_c, 4, 60, 0
12, 396479, Note_on_c, 4, 64, 0
12, 396720, Note_on_c, 4, 64, 70
12, 396720, Note_on_c, 4, 60, 70
12, 396959, Note_on_c, 4, 64, 0
12, 396959, Note_on_c, 4, 60, 0
12, 397200, Note_on_c, 4, 55, 72
12, 397200, Note_on_c, 4, 62, 72
12, 397439, Note_on_c, 4, 55, 0
12, 397439, Note_on_c, 4, 62, 0
12, 397680, Note_on_c, 4, 55, 74
12, 397680, Note_on_c, 4, 62, 74
12, 397904, Note_on_c, 4, 55, 0
12, 397904, Note_on_c, 4, 62, 0
12, 397920, Note_on_c, 4, 48, 76
12, 397920, Note_on_c, 4, 60, 76
12, 398144, Note_on_c, 4, 48, 0
12, 398144, Note_on_c, 4, 60, 0
12, 398160, Note_on_c, 4, 60, 76
12, 398160, Note_on_c, 4, 48, 76
12, 398384, Note_on_c, 4, 60, 0
12, 398384, Note_on_c, 4, 48, 0
12, 398400, Note_on_c, 4, 48, 76
12, 398400, Note_on_c, 4, 60, 76
12, 398624, Note_on_c, 4, 48, 0
12, 398624, Note_on_c, 4, 60, 0
12, 398640, Note_on_c, 4, 48, 76
12, 398640, Note_on_c, 4, 60, 76
12, 398864, Note_on_c, 4, 48, 0
12, 398864, Note_on_c, 4, 60, 0
12, 398880, Note_on_c, 4, 60, 76
12, 398880, Note_on_c, 4, 48, 76
12, 399104, Note_on_c, 4, 60, 0
12, 399104, Note_on_c, 4, 48, 0
12, 399120, Note_on_c, 4, 48, 76
12, 399120, Note_on_c, 4, 60, 76
12, 399344, Note_on_c, 4, 48, 0
12, 399344, Note_on_c, 4, 60, 0
12, 399360, Note_on_c, 4, 60, 76
12, 399360, Note_on_c, 4, 48, 76
12, 399584, Note_on_c, 4, 60, 0
12, 399584, Note_on_c, 4, 48, 0
12, 399600, Note_on_c, 4, 48, 76
12, 399600, Note_on_c, 4, 60, 76
12, 399824, Note_on_c, 4, 48, 0
12, 399824, Note_on_c, 4, 60, 0
12, 399840, Note_on_c, 4, 60, 76
12, 399840, Note_on_c, 4, 48, 76
12, 400544, Note_on_c, 4, 60, 0
12, 400544, Note_on_c, 4, 48, 0
12, 400560, Note_on_c, 4, 60, 76
12, 400560, Note_on_c, 4, 48, 76
12, 400739, Note_on_c, 4, 60, 0
12, 400739, Note_on_c, 4, 48, 0
12, 400800, Note_on_c, 4, 60, 76
12, 400800, Note_on_c, 4, 48, 76
12, 401504, Note_on_c, 4, 60, 0
12, 401504, Note_on_c, 4, 48, 0
12, 401520, Note_on_c, 4, 60, 76
12, 401520, Note_on_c, 4, 48, 76
12, 401699, Note_on_c, 4, 60, 0
12, 401699, Note_on_c, 4, 48, 0
12, 401760, Note_on_c, 4, 48, 76
12, 401760, Note_on_c, 4, 60, 76
12, 402464, Note_on_c, 4, 48, 0
12, 402464, Note_on_c, 4, 60, 0
12, 402480, Note_on_c, 4, 48, 76
12, 402480, Note_on_c, 4, 60, 76
12, 402659, Note_on_c, 4, 48, 0
12, 402659, Note_on_c, 4, 60, 0
12, 402720, Note_on_c, 4, 48, 76
12, 402720, Note_on_c, 4, 60, 76
12, 403424, Note_on_c, 4, 48, 0
12, 403424, Note_on_c, 4, 60, 0
12, 403440, Note_on_c, 4, 48, 76
12, 403440, Note_on_c, 4, 60, 76
12, 403619, Note_on_c, 4, 48, 0
12, 403619, Note_on_c, 4, 60, 0
12, 403680, Note_on_c, 4, 48, 52
12, 403680, Note_on_c, 4, 60, 52
12, 403731, Note_on_c, 4, 48, 0
12, 403731, Note_on_c, 4, 60, 0
12, 403740, Note_on_c, 4, 60, 52
12, 403791, Note_on_c, 4, 60, 0
12, 403800, Note_on_c, 4, 60, 52
12, 403851, Note_on_c, 4, 60, 0
12, 403860, Note_on_c, 4, 60, 52
12, 403919, Note_on_c, 4, 60, 0
12, 403980, Note_on_c, 4, 60, 52
12, 404031, Note_on_c, 4, 60, 0
12, 404040, Note_on_c, 4, 60, 52
12, 404091, Note_on_c, 4, 60, 0
12, 404100, Note_on_c, 4, 60, 52
12, 404159, Note_on_c, 4, 60, 0
12, 404220, Note_on_c, 4, 60, 52
12, 404271, Note_on_c, 4, 60, 0
12, 404280, Note_on_c, 4, 60, 52
12, 404331, Note_on_c, 4, 60, 0
12, 404340, Note_on_c, 4, 60, 52
12, 404399, Note_on_c, 4, 60, 0
12, 404460, Note_on_c, 4, 60, 53
12, 404511, Note_on_c, 4, 60, 0
12, 404520, Note_on_c, 4, 60, 53
12, 404571, Note_on_c, 4, 60, 0
12, 404580, Note_on_c, 4, 60, 53
12, 404639, Note_on_c, 4, 60, 0
12, 404700, Note_on_c, 4, 55, 54
12, 404700, Note_on_c, 4, 62, 54
12, 404751, Note_on_c, 4, 55, 0
12, 404751, Note_on_c, 4, 62, 0
12, 404760, Note_on_c, 4, 55, 54
12, 404760, Note_on_c, 4, 62, 54
12, 404811, Note_on_c, 4, 55, 0
12, 404811, Note_on_c, 4, 62, 0
12, 404820, Note_on_c, 4, 55, 55
12, 404820, Note_on_c, 4, 62, 55
12, 404879, Note_on_c, 4, 55, 0
12, 404879, Note_on_c, 4, 62, 0
12, 404940, Note_on_c, 4, 60, 55
12, 404940, Note_on_c, 4, 64, 55
12, 404991, Note_on_c, 4, 60, 0
12, 404991, Note_on_c, 4, 64, 0
12, 405000, Note_on_c, 4, 64, 55
12, 405000, Note_on_c, 4, 60, 55
12, 405051, Note_on_c, 4, 64, 0
12, 405051, Note_on_c, 4, 60, 0
12, 405060, Note_on_c, 4, 60, 56
12, 405060, Note_on_c, 4, 64, 56
12, 405119, Note_on_c, 4, 60, 0
12, 405119, Note_on_c, 4, 64, 0
12, 405240, Note_on_c, 4, 55, 56
12, 405240, Note_on_c, 4, 62, 56
12, 405359, Note_on_c, 4, 55, 0
12, 405359, Note_on_c, 4, 62, 0
12, 405480, Note_on_c, 4, 60, 58
12, 405599, Note_on_c, 4, 60, 0
12, 405720, Note_on_c, 4, 60, 59
12, 405839, Note_on_c, 4, 60, 0
12, 405960, Note_on_c, 4, 60, 60
12, 406079, Note_on_c, 4, 60, 0
12, 406200, Note_on_c, 4, 60, 61
12, 406319, Note_on_c, 4, 60, 0
12, 406440, Note_on_c, 4, 60, 62
12, 406559, Note_on_c, 4, 60, 0
12, 406680, Note_on_c, 4, 55, 63
12, 406680, Note_on_c, 4, 62, 63
12, 406799, Note_on_c, 4, 55, 0
12, 406799, Note_on_c, 4, 62, 0
12, 406920, Note_on_c, 4, 60, 64
12, 406920, Note_on_c, 4, 64, 64
12, 407039, Note_on_c, 4, 60, 0
12, 407039, Note_on_c, 4, 64, 0
12, 407160, Note_on_c, 4, 62, 65
12, 407160, Note_on_c, 4, 55, 65
12, 407279, Note_on_c, 4, 62, 0
12, 407279, Note_on_c, 4, 55, 0
12, 407400, Note_on_c, 4, 60, 66
12, 407519, Note_on_c, 4, 60, 0
12, 407640, Note_on_c, 4, 60, 67
12, 407759, Note_on_c, 4, 60, 0
12, 407880, Note_on_c, 4, 60, 68
12, 407999, Note_on_c, 4, 60, 0
12, 408120, Note_on_c, 4, 60, 70
12, 408239, Note_on_c, 4, 60, 0
12, 408360, Note_on_c, 4, 60, 71
12, 408459, Note_on_c, 4, 60, 0
12, 408480, Note_on_c, 4, 62, 71
12, 408480, Note_on_c, 4, 55, 71
12, 408599, Note_on_c, 4, 62, 0
12, 408599, Note_on_c, 4, 55, 0
12, 408720, Note_on_c, 4, 60, 72
12, 408720, Note_on_c, 4, 64, 72
12, 408839, Note_on_c, 4, 60, 0
12, 408839, Note_on_c, 4, 64, 0
12, 408960, Note_on_c, 4, 62, 73
12, 408960, Note_on_c, 4, 60, 73
12, 409079, Note_on_c, 4, 62, 0
12, 409079, Note_on_c, 4, 60, 0
12, 409200, Note_on_c, 4, 62, 74
12, 409200, Note_on_c, 4, 55, 74
12, 409319, Note_on_c, 4, 62, 0
12, 409319, Note_on_c, 4, 55, 0
12, 409440, Note_on_c, 4, 48, 76
12, 409440, Note_on_c, 4, 60, 76
12, 409559, Note_on_c, 4, 48, 0
12, 409559, Note_on_c, 4, 60, 0
12, 410400, Note_on_c, 4, 48, 76
12, 410400, Note_on_c, 4, 60, 76
12, 410519, Note_on_c, 4, 48, 0
12, 410519, Note_on_c, 4, 60, 0
12, 411360, Note_on_c, 4, 48, 76
12, 411360, Note_on_c, 4, 60, 76
12, 411479, Note_on_c, 4, 48, 0
12, 411479, Note_on_c, 4, 60, 0
12, 412320, Note_on_c, 4, 60, 76
12, 412320, Note_on_c, 4, 48, 76
12, 412439, Note_on_c, 4, 60, 0
12, 412439, Note_on_c, 4, 48, 0
12, 413280, Note_on_c, 4, 60, 76
12, 413280, Note_on_c, 4, 48, 76
12, 413399, Note_on_c, 4, 60, 0
12, 413399, Note_on_c, 4, 48, 0
12, 414240, Note_on_c, 4, 48, 76
12, 414240, Note_on_c, 4, 60, 76
12, 414359, Note_on_c, 4, 48, 0
12, 414359, Note_on_c, 4, 60, 0
12, 415200, Note_on_c, 4, 60, 76
12, 415200, Note_on_c, 4, 48, 76
12, 415260, Control_c, 4, 11, 80
12, 415319, Note_on_c, 4, 60, 0
12, 415319, Note_on_c, 4, 48, 0
12, 415800, Note_on_c, 4, 55, 76
12, 415800, Note_on_c, 4, 62, 76
12, 415899, Note_on_c, 4, 55, 0
12, 415899, Note_on_c, 4, 62, 0
12, 415920, Note_on_c, 4, 62, 76
12, 415920, Note_on_c, 4, 55, 76
12, 416019, Note_on_c, 4, 62, 0
12, 416019, Note_on_c, 4, 55, 0
12, 416040, Note_on_c, 4, 62, 76
12, 416040, Note_on_c, 4, 55, 76
12, 416139, Note_on_c, 4, 62, 0
12, 416139, Note_on_c, 4, 55, 0
12, 416158, Control_c, 4, 11, 127
12, 416160, Note_on_c, 4, 48, 76
12, 416160, Note_on_c, 4, 60, 76
12, 416220, Control_c, 4, 11, 80
12, 416279, Note_on_c, 4, 48, 0
12, 416279, Note_on_c, 4, 60, 0
12, 416760, Note_on_c, 4, 55, 76
12, 416760, Note_on_c, 4, 62, 76
12, 416859, Note_on_c, 4, 55, 0
12, 416859, Note_on_c, 4, 62, 0
12, 416880, Note_on_c, 4, 62, 76
12, 416880, Note_on_c, 4, 55, 76
12, 416979, Note_on_c, 4, 62, 0
12, 416979, Note_on_c, 4, 55, 0
12, 417000, Note_on_c, 4, 55, 76
12, 417000, Note_on_c, 4, 62, 76
12, 417099, Note_on_c, 4, 55, 0
12, 417099, Note_on_c, 4, 62, 0
12, 417120, Control_c, 4, 11, 80
12, 417120, Note_on_c, 4, 60, 76
12, 417120, Note_on_c, 4, 52, 76
12, 417239, Note_on_c, 4, 60, 0
12, 417239, Note_on_c, 4, 52, 0
12, 417280, Control_c, 4, 11, 82
12, 417360, Note_on_c, 4, 48, 76
12, 417360, Note_on_c, 4, 60, 76
12, 417440, Control_c, 4, 11, 84
12, 417479, Note_on_c, 4, 48, 0
12, 417479, Note_on_c, 4, 60, 0
12, 417600, Note_on_c, 4, 60, 76
12, 417600, Note_on_c, 4, 48, 76
12, 417600, Control_c, 4, 11, 86
12, 417719, Note_on_c, 4, 60, 0
12, 417719, Note_on_c, 4, 48, 0
12, 417760, Control_c, 4, 11, 88
12, 417840, Note_on_c, 4, 60, 76
12, 417840, Note_on_c, 4, 48, 76
12, 417920, Control_c, 4, 11, 90
12, 417959, Note_on_c, 4, 60, 0
12, 417959, Note_on_c, 4, 48, 0
12, 418080, Control_c, 4, 11, 92
12, 418080, Note_on_c, 4, 55, 76
12, 418080, Note_on_c, 4, 62, 76
12, 418199, Note_on_c, 4, 55, 0
12, 418199, Note_on_c, 4, 62, 0
12, 418240, Control_c, 4, 11, 94
12, 418320, Note_on_c, 4, 64, 76
12, 418320, Note_on_c, 4, 60, 76
12, 418400, Control_c, 4, 11, 96
12, 418439, Note_on_c, 4, 64, 0
12, 418439, Note_on_c, 4, 60, 0
12, 418560, Control_c, 4, 11, 98
12, 418560, Note_on_c, 4, 55, 76
12, 418560, Note_on_c, 4, 62, 76
12, 418679, Note_on_c, 4, 55, 0
12, 418679, Note_on_c, 4, 62, 0
12, 418720, Control_c, 4, 11, 100
12, 418800, Note_on_c, 4, 60, 76
12, 418800, Note_on_c, 4, 52, 76
12, 418880, Control_c, 4, 11, 102
12, 418919, Note_on_c, 4, 60, 0
12, 418919, Note_on_c, 4, 52, 0
12, 419040, Note_on_c, 4, 52, 76
12, 419040, Control_c, 4, 11, 104
12, 419040, Note_on_c, 4, 60, 76
12, 419159, Note_on_c, 4, 52, 0
12, 419159, Note_on_c, 4, 60, 0
12, 419200, Control_c, 4, 11, 105
12, 419280, Note_on_c, 4, 52, 76
12, 419280, Note_on_c, 4, 60, 76
12, 419360, Control_c, 4, 11, 107
12, 419399, Note_on_c, 4, 52, 0
12, 419399, Note_on_c, 4, 60, 0
12, 419520, Control_c, 4, 11, 109
12, 419520, Note_on_c, 4, 48, 76
12, 419520, Note_on_c, 4, 60, 76
12, 419639, Note_on_c, 4, 48, 0
12, 419639, Note_on_c, 4, 60, 0
12, 419680, Control_c, 4, 11, 111
12, 419760, Note_on_c, 4, 48, 76
12, 419760, Note_on_c, 4, 60, 76
12, 419840, Control_c, 4, 11, 113
12, 419879, Note_on_c, 4, 48, 0
12, 419879, Note_on_c, 4, 60, 0
12, 420000, Note_on_c, 4, 55, 76
12, 420000, Control_c, 4, 11, 115
12, 420000, Note_on_c, 4, 62, 76
12, 420119, Note_on_c, 4, 55, 0
12, 420119, Note_on_c, 4, 62, 0
12, 420160, Control_c, 4, 11, 117
12, 420240, Note_on_c, 4, 64, 76
12, 420240, Note_on_c, 4, 60, 76
12, 420320, Control_c, 4, 11, 119
12, 420359, Note_on_c, 4, 64, 0
12, 420359, Note_on_c, 4, 60, 0
12, 420480, Control_c, 4, 11, 121
12, 420480, Note_on_c, 4, 62, 76
12, 420480, Note_on_c, 4, 55, 76
12, 420599, Note_on_c, 4, 62, 0
12, 420599, Note_on_c, 4, 55, 0
12, 420640, Control_c, 4, 11, 123
12, 420720, Note_on_c, 4, 52, 76
12, 420720, Note_on_c, 4, 60, 76
12, 420800, Control_c, 4, 11, 127
12, 420819, Note_on_c, 4, 52, 0
12, 420819, Note_on_c, 4, 60, 0
12, 420840, Note_on_c, 4, 52, 76
12, 420840, Note_on_c, 4, 60, 76
12, 420939, Note_on_c, 4, 52, 0
12, 420939, Note_on_c, 4, 60, 0
12, 420960, Note_on_c, 4, 60, 76
12, 420960, Note_on_c, 4, 48, 76
12, 421059, Note_on_c, 4, 60, 0
12, 421059, Note_on_c, 4, 48, 0
12, 421080, Note_on_c, 4, 60, 76
12, 421080, Note_on_c, 4, 48, 76
12, 421179, Note_on_c, 4, 60, 0
12, 421179, Note_on_c, 4, 48, 0
12, 421200, Note_on_c, 4, 60, 76
12, 421200, Note_on_c, 4, 48, 76
12, 421299, Note_on_c, 4, 60, 0
12, 421299, Note_on_c, 4, 48, 0
12, 421320, Note_on_c, 4, 60, 76
12, 421320, Note_on_c, 4, 48, 76
12, 421419, Note_on_c, 4, 60, 0
12, 421419, Note_on_c, 4, 48, 0
12, 421440, Note_on_c, 4, 60, 76
12, 421440, Note_on_c, 4, 48, 76
12, 421539, Note_on_c, 4, 60, 0
12, 421539, Note_on_c, 4, 48, 0
12, 421560, Note_on_c, 4, 60, 76
12, 421560, Note_on_c, 4, 48, 76
12, 421659, Note_on_c, 4, 60, 0
12, 421659, Note_on_c, 4, 48, 0
12, 421680, Note_on_c, 4, 60, 76
12, 421680, Note_on_c, 4, 48, 76
12, 421779, Note_on_c, 4, 60, 0
12, 421779, Note_on_c, 4, 48, 0
12, 421800, Note_on_c, 4, 60, 76
12, 421800, Note_on_c, 4, 48, 76
12, 421899, Note_on_c, 4, 60, 0
12, 421899, Note_on_c, 4, 48, 0
12, 421920, Note_on_c, 4, 62, 76
12, 421920, Note_on_c, 4, 55, 76
12, 422019, Note_on_c, 4, 62, 0
12, 422019, Note_on_c, 4, 55, 0
12, 422040, Note_on_c, 4, 62, 76
12, 422040, Note_on_c, 4, 55, 76
12, 422139, Note_on_c, 4, 62, 0
12, 422139, Note_on_c, 4, 55, 0
12, 422160, Note_on_c, 4, 64, 76
12, 422160, Note_on_c, 4, 60, 76
12, 422259, Note_on_c, 4, 64, 0
12, 422259, Note_on_c, 4, 60, 0
12, 422280, Note_on_c, 4, 64, 76
12, 422280, Note_on_c, 4, 60, 76
12, 422379, Note_on_c, 4, 64, 0
12, 422379, Note_on_c, 4, 60, 0
12, 422400, Note_on_c, 4, 62, 76
12, 422400, Note_on_c, 4, 60, 76
12, 422499, Note_on_c, 4, 62, 0
12, 422499, Note_on_c, 4, 60, 0
12, 422520, Note_on_c, 4, 62, 76
12, 422520, Note_on_c, 4, 60, 76
12, 422619, Note_on_c, 4, 62, 0
12, 422619, Note_on_c, 4, 60, 0
12, 422640, Note_on_c, 4, 62, 76
12, 422640, Note_on_c, 4, 55, 76
12, 422739, Note_on_c, 4, 62, 0
12, 422739, Note_on_c, 4, 55, 0
12, 422760, Note_on_c, 4, 62, 76
12, 422760, Note_on_c, 4, 55, 76
12, 422859, Note_on_c, 4, 62, 0
12, 422859, Note_on_c, 4, 55, 0
12, 422880, Note_on_c, 4, 60, 84
12, 422880, Note_on_c, 4, 52, 84
12, 423099, Note_on_c, 4, 60, 0
12, 423099, Note_on_c, 4, 52, 0
12, 423120, Note_on_c, 4, 64, 84
12, 423120, Note_on_c, 4, 60, 84
12, 423339, Note_on_c, 4, 64, 0
12, 423339, Note_on_c, 4, 60, 0
12, 423360, Note_on_c, 4, 67, 84
12, 423360, Note_on_c, 4, 64, 84
12, 423699, Note_on_c, 4, 67, 0
12, 423699, Note_on_c, 4, 64, 0
12, 423720, Note_on_c, 4, 65, 84
12, 423720, Note_on_c, 4, 62, 84
12, 423819, Note_on_c, 4, 65, 0
12, 423819, Note_on_c, 4, 62, 0
12, 423840, Note_on_c, 4, 64, 84
12, 423840, Note_on_c, 4, 60, 84
12, 423939, Note_on_c, 4, 64, 0
12, 423939, Note_on_c, 4, 60, 0
12, 423960, Note_on_c, 4, 62, 84
12, 423960, Note_on_c, 4, 55, 84
12, 424059, Note_on_c, 4, 62, 0
12, 424059, Note_on_c, 4, 55, 0
12, 424080, Note_on_c, 4, 60, 84
12, 424080, Note_on_c, 4, 52, 84
12, 424179, Note_on_c, 4, 60, 0
12, 424179, Note_on_c, 4, 52, 0
12, 424200, Note_on_c, 4, 62, 84
12, 424200, Note_on_c, 4, 55, 84
12, 424299, Note_on_c, 4, 62, 0
12, 424299, Note_on_c, 4, 55, 0
12, 424320, Note_on_c, 4, 64, 84
12, 424320, Note_on_c, 4, 60, 84
12, 424659, Note_on_c, 4, 64, 0
12, 424659, Note_on_c, 4, 60, 0
12, 424680, Note_on_c, 4, 64, 84
12, 424779, Note_on_c, 4, 64, 0
12, 424800, Note_on_c, 4, 64, 84
12, 424899, Note_on_c, 4, 64, 0
12, 424920, Note_on_c, 4, 62, 84
12, 425019, Note_on_c, 4, 62, 0
12, 425040, Note_on_c, 4, 64, 84
12, 425139, Note_on_c, 4, 64, 0
12, 425160, Note_on_c, 4, 65, 84
12, 425259, Note_on_c, 4, 65, 0
12, 425280, Note_on_c, 4, 67, 84
12, 425619, Note_on_c, 4, 67, 0
12, 425640, Note_on_c, 4, 67, 84
12, 425640, Note_on_c, 4, 55, 84
12, 425739, Note_on_c, 4, 67, 0
12, 425739, Note_on_c, 4, 55, 0
12, 425760, Note_on_c, 4, 67, 84
12, 425760, Note_on_c, 4, 55, 84
12, 425859, Note_on_c, 4, 67, 0
12, 425859, Note_on_c, 4, 55, 0
12, 425880, Note_on_c, 4, 67, 84
12, 425880, Note_on_c, 4, 55, 84
12, 425979, Note_on_c, 4, 67, 0
12, 425979, Note_on_c, 4, 55, 0
12, 426000, Note_on_c, 4, 67, 84
12, 426000, Note_on_c, 4, 55, 84
12, 426099, Note_on_c, 4, 67, 0
12, 426099, Note_on_c, 4, 55, 0
12, 426120, Note_on_c, 4, 67, 84
12, 426120, Note_on_c, 4, 55, 84
12, 426219, Note_on_c, 4, 67, 0
12, 426219, Note_on_c, 4, 55, 0
12, 426240, Note_on_c, 4, 67, 84
12, 426240, Note_on_c, 4, 55, 84
12, 426579, Note_on_c, 4, 67, 0
12, 426579, Note_on_c, 4, 55, 0
12, 426600, Note_on_c, 4, 67, 84
12, 426600, Note_on_c, 4, 55, 84
12, 426699, Note_on_c, 4, 67, 0
12, 426699, Note_on_c, 4, 55, 0
12, 426720, Note_on_c, 4, 67, 84
12, 426720, Note_on_c, 4, 55, 84
12, 426819, Note_on_c, 4, 67, 0
12, 426819, Note_on_c, 4, 55, 0
12, 426840, Note_on_c, 4, 67, 84
12, 426840, Note_on_c, 4, 55, 84
12, 426939, Note_on_c, 4, 67, 0
12, 426939, Note_on_c, 4, 55, 0
12, 426960, Note_on_c, 4, 67, 84
12, 426960, Note_on_c, 4, 55, 84
12, 427059, Note_on_c, 4, 67, 0
12, 427059, Note_on_c, 4, 55, 0
12, 427080, Note_on_c, 4, 67, 84
12, 427080, Note_on_c, 4, 55, 84
12, 427179, Note_on_c, 4, 67, 0
12, 427179, Note_on_c, 4, 55, 0
12, 427200, Note_on_c, 4, 67, 84
12, 427200, Note_on_c, 4, 55, 84
12, 427299, Note_on_c, 4, 67, 0
12, 427299, Note_on_c, 4, 55, 0
12, 427320, Note_on_c, 4, 67, 84
12, 427320, Note_on_c, 4, 55, 84
12, 427419, Note_on_c, 4, 67, 0
12, 427419, Note_on_c, 4, 55, 0
12, 427440, Note_on_c, 4, 67, 84
12, 427440, Note_on_c, 4, 55, 84
12, 427539, Note_on_c, 4, 67, 0
12, 427539, Note_on_c, 4, 55, 0
12, 427560, Note_on_c, 4, 67, 84
12, 427560, Note_on_c, 4, 55, 84
12, 427659, Note_on_c, 4, 67, 0
12, 427659, Note_on_c, 4, 55, 0
12, 427680, Note_on_c, 4, 67, 84
12, 427680, Note_on_c, 4, 55, 84
12, 428619, Note_on_c, 4, 67, 0
12, 428619, Note_on_c, 4, 55, 0
12, 428640, Note_on_c, 4, 64, 84
12, 428640, Note_on_c, 4, 52, 84
12, 429579, Note_on_c, 4, 64, 0
12, 429579, Note_on_c, 4, 52, 0
12, 429600, Note_on_c, 4, 60, 84
12, 429600, Note_on_c, 4, 48, 84
12, 429719, Note_on_c, 4, 60, 0
12, 429719, Note_on_c, 4, 48, 0
12, 430080, Note_on_c, 4, 62, 84
12, 430080, Note_on_c, 4, 55, 84
12, 430199, Note_on_c, 4, 62, 0
12, 430199, Note_on_c, 4, 55, 0
12, 430560, Note_on_c, 4, 64, 84
12, 430560, Note_on_c, 4, 60, 84
12, 430679, Note_on_c, 4, 64, 0
12, 430679, Note_on_c, 4, 60, 0
12, 431040, Note_on_c, 4, 67, 84
12, 431040, Note_on_c, 4, 55, 84
12, 431159, Note_on_c, 4, 67, 0
12, 431159, Note_on_c, 4, 55, 0
12, 431520, Note_on_c, 4, 64, 84
12, 431520, Note_on_c, 4, 60, 84
12, 431639, Note_on_c, 4, 64, 0
12, 431639, Note_on_c, 4, 60, 0
12, 432000, Note_on_c, 4, 62, 84
12, 432000, Note_on_c, 4, 55, 84
12, 432119, Note_on_c, 4, 62, 0
12, 432119, Note_on_c, 4, 55, 0
12, 432480, Note_on_c, 4, 64, 84
12, 432480, Note_on_c, 4, 60, 84
12, 432599, Note_on_c, 4, 64, 0
12, 432599, Note_on_c, 4, 60, 0
12, 432960, Note_on_c, 4, 67, 84
12, 432960, Note_on_c, 4, 55, 84
12, 433079, Note_on_c, 4, 67, 0
12, 433079, Note_on_c, 4, 55, 0
12, 433440, Note_on_c, 4, 64, 84
12, 433440, Note_on_c, 4, 60, 84
12, 433559, Note_on_c, 4, 64, 0
12, 433559, Note_on_c, 4, 60, 0
12, 433920, Note_on_c, 4, 67, 84
12, 433920, Note_on_c, 4, 55, 84
12, 434039, Note_on_c, 4, 67, 0
12, 434039, Note_on_c, 4, 55, 0
12, 434400, Note_on_c, 4, 64, 84
12, 434400, Note_on_c, 4, 60, 84
12, 434519, Note_on_c, 4, 64, 0
12, 434519, Note_on_c, 4, 60, 0
12, 434880, Note_on_c, 4, 67, 84
12, 434880, Note_on_c, 4, 55, 84
12, 434999, Note_on_c, 4, 67, 0
12, 434999, Note_on_c, 4, 55, 0
12, 435360, Note_on_c, 4, 72, 84
12, 435360, Note_on_c, 4, 60, 84
12, 436299, Note_on_c, 4, 72, 0
12, 436299, Note_on_c, 4, 60, 0
12, 436320, Note_on_c, 4, 72, 84
12, 436320, Note_on_c, 4, 60, 84
12, 437019, Note_on_c, 4, 72, 0
12, 437019, Note_on_c, 4, 60, 0
12, 437040, Note_on_c, 4, 67, 84
12, 437040, Note_on_c, 4, 55, 84
12, 437139, Note_on_c, 4, 67, 0
12, 437139, Note_on_c, 4, 55, 0
12, 437160, Note_on_c, 4, 64, 84
12, 437160, Note_on_c, 4, 52, 84
12, 437259, Note_on_c, 4, 64, 0
12, 437259, Note_on_c, 4, 52, 0
12, 437280, Note_on_c, 4, 60, 84
12, 437280, Note_on_c, 4, 48, 84
12, 437399, Note_on_c, 4, 60, 0
12, 437399, Note_on_c, 4, 48, 0
12, 437640, Note_on_c, 4, 60, 84
12, 437640, Note_on_c, 4, 52, 84
12, 437739, Note_on_c, 4, 60, 0
12, 437739, Note_on_c, 4, 52, 0
12, 437760, Note_on_c, 4, 60, 84
12, 437760, Note_on_c, 4, 52, 84
12, 437859, Note_on_c, 4, 60, 0
12, 437859, Note_on_c, 4, 52, 0
12, 437880, Note_on_c, 4, 60, 84
12, 437880, Note_on_c, 4, 52, 84
12, 437979, Note_on_c, 4, 60, 0
12, 437979, Note_on_c, 4, 52, 0
12, 438000, Note_on_c, 4, 60, 84
12, 438000, Note_on_c, 4, 52, 84
12, 438099, Note_on_c, 4, 60, 0
12, 438099, Note_on_c, 4, 52, 0
12, 438120, Note_on_c, 4, 60, 84
12, 438120, Note_on_c, 4, 52, 84
12, 438219, Note_on_c, 4, 60, 0
12, 438219, Note_on_c, 4, 52, 0
12, 438240, Note_on_c, 4, 60, 84
12, 438240, Note_on_c, 4, 52, 84
12, 438359, Note_on_c, 4, 60, 0
12, 438359, Note_on_c, 4, 52, 0
12, 438600, Note_on_c, 4, 64, 84
12, 438600, Note_on_c, 4, 60, 84
12, 438699, Note_on_c, 4, 64, 0
12, 438699, Note_on_c, 4, 60, 0
12, 438720, Note_on_c, 4, 64, 84
12, 438720, Note_on_c, 4, 60, 84
12, 438819, Note_on_c, 4, 64, 0
12, 438819, Note_on_c, 4, 60, 0
12, 438840, Note_on_c, 4, 64, 84
12, 438840, Note_on_c, 4, 60, 84
12, 438939, Note_on_c, 4, 64, 0
12, 438939, Note_on_c, 4, 60, 0
12, 438960, Note_on_c, 4, 64, 84
12, 438960, Note_on_c, 4, 60, 84
12, 439059, Note_on_c, 4, 64, 0
12, 439059, Note_on_c, 4, 60, 0
12, 439080, Note_on_c, 4, 64, 84
12, 439080, Note_on_c, 4, 60, 84
12, 439179, Note_on_c, 4, 64, 0
12, 439179, Note_on_c, 4, 60, 0
12, 439200, Note_on_c, 4, 64, 84
12, 439200, Note_on_c, 4, 60, 84
12, 439319, Note_on_c, 4, 64, 0
12, 439319, Note_on_c, 4, 60, 0
12, 439440, Note_on_c, 4, 60, 84
12, 439440, Note_on_c, 4, 52, 84
12, 439539, Note_on_c, 4, 60, 0
12, 439539, Note_on_c, 4, 52, 0
12, 439560, Note_on_c, 4, 60, 84
12, 439560, Note_on_c, 4, 52, 84
12, 439659, Note_on_c, 4, 60, 0
12, 439659, Note_on_c, 4, 52, 0
12, 439680, Note_on_c, 4, 60, 84
12, 439680, Note_on_c, 4, 52, 84
12, 439799, Note_on_c, 4, 60, 0
12, 439799, Note_on_c, 4, 52, 0
12, 439920, Note_on_c, 4, 64, 84
12, 439920, Note_on_c, 4, 60, 84
12, 440019, Note_on_c, 4, 64, 0
12, 440019, Note_on_c, 4, 60, 0
12, 440040, Note_on_c, 4, 64, 84
12, 440040, Note_on_c, 4, 60, 84
12, 440139, Note_on_c, 4, 64, 0
12, 440139, Note_on_c, 4, 60, 0
12, 440160, Note_on_c, 4, 64, 84
12, 440160, Note_on_c, 4, 60, 84
12, 440279, Note_on_c, 4, 64, 0
12, 440279, Note_on_c, 4, 60, 0
12, 440400, Note_on_c, 4, 67, 84
12, 440400, Note_on_c, 4, 52, 84
12, 440499, Note_on_c, 4, 67, 0
12, 440499, Note_on_c, 4, 52, 0
12, 440520, Note_on_c, 4, 67, 84
12, 440520, Note_on_c, 4, 52, 84
12, 440619, Note_on_c, 4, 67, 0
12, 440619, Note_on_c, 4, 52, 0
12, 440640, Note_on_c, 4, 67, 84
12, 440640, Note_on_c, 4, 52, 84
12, 440759, Note_on_c, 4, 67, 0
12, 440759, Note_on_c, 4, 52, 0
12, 440880, Note_on_c, 4, 60, 84
12, 440880, Note_on_c, 4, 48, 84
12, 440979, Note_on_c, 4, 60, 0
12, 440979, Note_on_c, 4, 48, 0
12, 441000, Note_on_c, 4, 60, 84
12, 441000, Note_on_c, 4, 48, 84
12, 441099, Note_on_c, 4, 60, 0
12, 441099, Note_on_c, 4, 48, 0
12, 441120, Note_on_c, 4, 60, 84
12, 441120, Note_on_c, 4, 48, 84
12, 442059, Note_on_c, 4, 60, 0
12, 442059, Note_on_c, 4, 48, 0
12, 442080, Note_on_c, 4, 64, 84
12, 442080, Note_on_c, 4, 48, 84
12, 443019, Note_on_c, 4, 64, 0
12, 443019, Note_on_c, 4, 48, 0
12, 443040, Note_on_c, 4, 64, 84
12, 443040, Note_on_c, 4, 48, 84
12, 443159, Note_on_c, 4, 64, 0
12, 443159, Note_on_c, 4, 48, 0
12, 444000, Note_on_c, 4, 60, 84
12, 444000, Note_on_c, 4, 52, 84
12, 444119, Note_on_c, 4, 60, 0
12, 444119, Note_on_c, 4, 52, 0
12, 444960, Note_on_c, 4, 60, 84
12, 444960, Note_on_c, 4, 52, 84
12, 445079, Note_on_c, 4, 60, 0
12, 445079, Note_on_c, 4, 52, 0
12, 445920, Note_on_c, 4, 60, 84
12, 445920, Note_on_c, 4, 52, 84
12, 446039, Note_on_c, 4, 60, 0
12, 446039, Note_on_c, 4, 52, 0
12, 446400, Note_on_c, 4, 60, 84
12, 446400, Note_on_c, 4, 52, 84
12, 446519, Note_on_c, 4, 60, 0
12, 446519, Note_on_c, 4, 52, 0
12, 446880, Note_on_c, 4, 60, 84
12, 446880, Note_on_c, 4, 52, 84
12, 446999, Note_on_c, 4, 60, 0
12, 446999, Note_on_c, 4, 52, 0
12, 447840, Note_on_c, 4, 60, 84
12, 447840, Note_on_c, 4, 52, 84
12, 447959, Note_on_c, 4, 60, 0
12, 447959, Note_on_c, 4, 52, 0
12, 448800, Note_on_c, 4, 60, 84
12, 448800, Note_on_c, 4, 48, 84
12, 451199, Note_on_c, 4, 60, 0
12, 451199, Note_on_c, 4, 48, 0
12, 451199, End_track
13, 0, Start_track
13, 0, Title_t, "Trumpet in C"
13, 0, MIDI_port, 0
13, 0, Program_c, 5, 56
13, 0, Control_c, 5, 7, 96
13, 0, Control_c, 5, 10, 60
13, 0, Control_c, 5, 11, 127
13, 0, Note_on_c, 5, 72, 84
13, 0, Note_on_c, 5, 64, 84
13, 464, Note_on_c, 5, 72, 0
13, 464, Note_on_c, 5, 64, 0
13, 480, Note_on_c, 5, 72, 84
13, 480, Note_on_c, 5, 76, 84
13, 944, Note_on_c, 5, 72, 0
13, 944, Note_on_c, 5, 76, 0
13, 960, Note_on_c, 5, 79, 84
13, 960, Note_on_c, 5, 76, 84
13, 1664, Note_on_c, 5, 79, 0
13, 1664, Note_on_c, 5, 76, 0
13, 1680, Note_on_c, 5, 77, 84
13, 1680, Note_on_c, 5, 74, 84
13, 1799, Note_on_c, 5, 77, 0
13, 1799, Note_on_c, 5, 74, 0
13, 1920, Note_on_c, 5, 72, 84
13, 1920, Note_on_c, 5, 76, 84
13, 2039, Note_on_c, 5, 72, 0
13, 2039, Note_on_c, 5, 76, 0
13, 2160, Note_on_c, 5, 74, 84
13, 2160, Note_on_c, 5, 67, 84
13, 2279, Note_on_c, 5, 74, 0
13, 2279, Note_on_c, 5, 67, 0
13, 2400, Note_on_c, 5, 72, 84
13, 2400, Note_on_c, 5, 64, 84
13, 2519, Note_on_c, 5, 72, 0
13, 2519, Note_on_c, 5, 64, 0
13, 2640, Note_on_c, 5, 74, 84
13, 2640, Note_on_c, 5, 67, 84
13, 2759, Note_on_c, 5, 74, 0
13, 2759, Note_on_c, 5, 67, 0
13, 2880, Note_on_c, 5, 72, 84
13, 2880, Note_on_c, 5, 64, 84
13, 3584, Note_on_c, 5, 72, 0
13, 3584, Note_on_c, 5, 64, 0
13, 3600, Note_on_c, 5, 72, 84
13, 3600, Note_on_c, 5, 64, 84
13, 3771, Note_on_c, 5, 72, 0
13, 3771, Note_on_c, 5, 64, 0
13, 3780, Note_on_c, 5, 64, 84
13, 3780, Note_on_c, 5, 72, 84
13, 3831, Note_on_c, 5, 64, 0
13, 3831, Note_on_c, 5, 72, 0
13, 3840, Note_on_c, 5, 67, 84
13, 3840, Note_on_c, 5, 74, 84
13, 4544, Note_on_c, 5, 67, 0
13, 4544, Note_on_c, 5, 74, 0
13, 4560, Note_on_c, 5, 67, 84
13, 4560, Note_on_c, 5, 74, 84
13, 4731, Note_on_c, 5, 67, 0
13, 4731, Note_on_c, 5, 74, 0
13, 4740, Note_on_c, 5, 74, 84
13, 4740, Note_on_c, 5, 67, 84
13, 4791, Note_on_c, 5, 74, 0
13, 4791, Note_on_c, 5, 67, 0
13, 4800, Note_on_c, 5, 76, 84
13, 4800, Note_on_c, 5, 72, 84
13, 5384, Note_on_c, 5, 76, 0
13, 5384, Note_on_c, 5, 72, 0
13, 5400, Note_on_c, 5, 72, 84
13, 5400, Note_on_c, 5, 60, 84
13, 5504, Note_on_c, 5, 72, 0
13, 5504, Note_on_c, 5, 60, 0
13, 5520, Note_on_c, 5, 72, 84
13, 5520, Note_on_c, 5, 60, 84
13, 5624, Note_on_c, 5, 72, 0
13, 5624, Note_on_c, 5, 60, 0
13, 5640, Note_on_c, 5, 72, 84
13, 5640, Note_on_c, 5, 60, 84
13, 5744, Note_on_c, 5, 72, 0
13, 5744, Note_on_c, 5, 60, 0
13, 5760, Note_on_c, 5, 60, 84
13, 5760, Note_on_c, 5, 72, 84
13, 5984, Note_on_c, 5, 60, 0
13, 5984, Note_on_c, 5, 72, 0
13, 6000, Note_on_c, 5, 72, 84
13, 6000, Note_on_c, 5, 60, 84
13, 6104, Note_on_c, 5, 72, 0
13, 6104, Note_on_c, 5, 60, 0
13, 6120, Note_on_c, 5, 72, 84
13, 6120, Note_on_c, 5, 60, 84
13, 6224, Note_on_c, 5, 72, 0
13, 6224, Note_on_c, 5, 60, 0
13, 6240, Note_on_c, 5, 60, 84
13, 6240, Note_on_c, 5, 72, 84
13, 6464, Note_on_c, 5, 60, 0
13, 6464, Note_on_c, 5, 72, 0
13, 6480, Note_on_c, 5, 72, 84
13, 6480, Note_on_c, 5, 60, 84
13, 6584, Note_on_c, 5, 72, 0
13, 6584, Note_on_c, 5, 60, 0
13, 6600, Note_on_c, 5, 60, 84
13, 6600, Note_on_c, 5, 72, 84
13, 6704, Note_on_c, 5, 60, 0
13, 6704, Note_on_c, 5, 72, 0
13, 6720, Note_on_c, 5, 60, 84
13, 6720, Note_on_c, 5, 72, 84
13, 7304, Note_on_c, 5, 60, 0
13, 7304, Note_on_c, 5, 72, 0
13, 7320, Note_on_c, 5, 72, 84
13, 7320, Note_on_c, 5, 60, 84
13, 7424, Note_on_c, 5, 72, 0
13, 7424, Note_on_c, 5, 60, 0
13, 7440, Note_on_c, 5, 60, 84
13, 7440, Note_on_c, 5, 72, 84
13, 7544, Note_on_c, 5, 60, 0
13, 7544, Note_on_c, 5, 72, 0
13, 7560, Note_on_c, 5, 72, 84
13, 7560, Note_on_c, 5, 60, 84
13, 7664, Note_on_c, 5, 72, 0
13, 7664, Note_on_c, 5, 60, 0
13, 7680, Note_on_c, 5, 60, 84
13, 7680, Note_on_c, 5, 72, 84
13, 7904, Note_on_c, 5, 60, 0
13, 7904, Note_on_c, 5, 72, 0
13, 7920, Note_on_c, 5, 72, 84
13, 7920, Note_on_c, 5, 60, 84
13, 8024, Note_on_c, 5, 72, 0
13, 8024, Note_on_c, 5, 60, 0
13, 8040, Note_on_c, 5, 72, 84
13, 8040, Note_on_c, 5, 60, 84
13, 8144, Note_on_c, 5, 72, 0
13, 8144, Note_on_c, 5, 60, 0
13, 8160, Note_on_c, 5, 60, 84
13, 8160, Note_on_c, 5, 72, 84
13, 8384, Note_on_c, 5, 60, 0
13, 8384, Note_on_c, 5, 72, 0
13, 8400, Note_on_c, 5, 60, 84
13, 8400, Note_on_c, 5, 72, 84
13, 8504, Note_on_c, 5, 60, 0
13, 8504, Note_on_c, 5, 72, 0
13, 8520, Note_on_c, 5, 72, 84
13, 8520, Note_on_c, 5, 60, 84
13, 8624, Note_on_c, 5, 72, 0
13, 8624, Note_on_c, 5, 60, 0
13, 8640, Note_on_c, 5, 72, 84
13, 8640, Note_on_c, 5, 60, 84
13, 9224, Note_on_c, 5, 72, 0
13, 9224, Note_on_c, 5, 60, 0
13, 9240, Note_on_c, 5, 60, 84
13, 9240, Note_on_c, 5, 72, 84
13, 9344, Note_on_c, 5, 60, 0
13, 9344, Note_on_c, 5, 72, 0
13, 9360, Note_on_c, 5, 72, 84
13, 9360, Note_on_c, 5, 60, 84
13, 9464, Note_on_c, 5, 72, 0
13, 9464, Note_on_c, 5, 60, 0
13, 9480, Note_on_c, 5, 60, 84
13, 9480, Note_on_c, 5, 72, 84
13, 9584, Note_on_c, 5, 60, 0
13, 9584, Note_on_c, 5, 72, 0
13, 9600, Note_on_c, 5, 72, 84
13, 9600, Note_on_c, 5, 60, 84
13, 9824, Note_on_c, 5, 72, 0
13, 9824, Note_on_c, 5, 60, 0
13, 9840, Note_on_c, 5, 72, 84
13, 9840, Note_on_c, 5, 60, 84
13, 9944, Note_on_c, 5, 72, 0
13, 9944, Note_on_c, 5, 60, 0
13, 9960, Note_on_c, 5, 60, 84
13, 9960, Note_on_c, 5, 72, 84
13, 10064, Note_on_c, 5, 60, 0
13, 10064, Note_on_c, 5, 72, 0
13, 10080, Note_on_c, 5, 60, 84
13, 10080, Note_on_c, 5, 72, 84
13, 10304, Note_on_c, 5, 60, 0
13, 10304, Note_on_c, 5, 72, 0
13, 10320, Note_on_c, 5, 72, 84
13, 10320, Note_on_c, 5, 60, 84
13, 10424, Note_on_c, 5, 72, 0
13, 10424, Note_on_c, 5, 60, 0
13, 10440, Note_on_c, 5, 72, 84
13, 10440, Note_on_c, 5, 60, 84
13, 10544, Note_on_c, 5, 72, 0
13, 10544, Note_on_c, 5, 60, 0
13, 10560, Note_on_c, 5, 72, 84
13, 10560, Note_on_c, 5, 60, 84
13, 11264, Note_on_c, 5, 72, 0
13, 11264, Note_on_c, 5, 60, 0
13, 11280, Note_on_c, 5, 76, 84
13, 11280, Note_on_c, 5, 60, 84
13, 11451, Note_on_c, 5, 76, 0
13, 11451, Note_on_c, 5, 60, 0
13, 11460, Note_on_c, 5, 60, 84
13, 11460, Note_on_c, 5, 76, 84
13, 11511, Note_on_c, 5, 60, 0
13, 11511, Note_on_c, 5, 76, 0
13, 11520, Note_on_c, 5, 55, 84
13, 11520, Note_on_c, 5, 74, 84
13, 11744, Note_on_c, 5, 55, 0
13, 11744, Note_on_c, 5, 74, 0
13, 11760, Note_on_c, 5, 55, 84
13, 11760, Note_on_c, 5, 74, 84
13, 11931, Note_on_c, 5, 55, 0
13, 11931, Note_on_c, 5, 74, 0
13, 11940, Note_on_c, 5, 55, 84
13, 11940, Note_on_c, 5, 74, 84
13, 11991, Note_on_c, 5, 55, 0
13, 11991, Note_on_c, 5, 74, 0
13, 12000, Note_on_c, 5, 60, 84
13, 12000, Note_on_c, 5, 76, 84
13, 12224, Note_on_c, 5, 60, 0
13, 12224, Note_on_c, 5, 76, 0
13, 12240, Note_on_c, 5, 76, 84
13, 12240, Note_on_c, 5, 60, 84
13, 12411, Note_on_c, 5, 76, 0
13, 12411, Note_on_c, 5, 60, 0
13, 12420, Note_on_c, 5, 76, 84
13, 12420, Note_on_c, 5, 60, 84
13, 12471, Note_on_c, 5, 76, 0
13, 12471, Note_on_c, 5, 60, 0
13, 12480, Note_on_c, 5, 55, 84
13, 12480, Note_on_c, 5, 74, 84
13, 12704, Note_on_c, 5, 55, 0
13, 12704, Note_on_c, 5, 74, 0
13, 12720, Note_on_c, 5, 74, 84
13, 12720, Note_on_c, 5, 55, 84
13, 13184, Note_on_c, 5, 74, 0
13, 13184, Note_on_c, 5, 55, 0
13, 13200, Note_on_c, 5, 60, 84
13, 13200, Note_on_c, 5, 76, 84
13, 13371, Note_on_c, 5, 60, 0
13, 13371, Note_on_c, 5, 76, 0
13, 13380, Note_on_c, 5, 60, 84
13, 13380, Note_on_c, 5, 76, 84
13, 13431, Note_on_c, 5, 60, 0
13, 13431, Note_on_c, 5, 76, 0
13, 13440, Note_on_c, 5, 55, 84
13, 13440, Note_on_c, 5, 74, 84
13, 13664, Note_on_c, 5, 55, 0
13, 13664, Note_on_c, 5, 74, 0
13, 13680, Note_on_c, 5, 55, 84
13, 13680, Note_on_c, 5, 74, 84
13, 13851, Note_on_c, 5, 55, 0
13, 13851, Note_on_c, 5, 74, 0
13, 13860, Note_on_c, 5, 55, 84
13, 13860, Note_on_c, 5, 74, 84
13, 13911, Note_on_c, 5, 55, 0
13, 13911, Note_on_c, 5, 74, 0
13, 13920, Note_on_c, 5, 60, 84
13, 13920, Note_on_c, 5, 76, 84
13, 14144, Note_on_c, 5, 60, 0
13, 14144, Note_on_c, 5, 76, 0
13, 14160, Note_on_c, 5, 76, 84
13, 14160, Note_on_c, 5, 60, 84
13, 14331, Note_on_c, 5, 76, 0
13, 14331, Note_on_c, 5, 60, 0
13, 14340, Note_on_c, 5, 60, 84
13, 14340, Note_on_c, 5, 76, 84
13, 14391, Note_on_c, 5, 60, 0
13, 14391, Note_on_c, 5, 76, 0
13, 14400, Note_on_c, 5, 74, 84
13, 14400, Note_on_c, 5, 55, 84
13, 14624, Note_on_c, 5, 74, 0
13, 14624, Note_on_c, 5, 55, 0
13, 14640, Note_on_c, 5, 74, 84
13, 14640, Note_on_c, 5, 55, 84
13, 15104, Note_on_c, 5, 74, 0
13, 15104, Note_on_c, 5, 55, 0
13, 15120, Note_on_c, 5, 60, 84
13, 15120, Note_on_c, 5, 76, 84
13, 15291, Note_on_c, 5, 60, 0
13, 15291, Note_on_c, 5, 76, 0
13, 15300, Note_on_c, 5, 76, 84
13, 15300, Note_on_c, 5, 60, 84
13, 15351, Note_on_c, 5, 76, 0
13, 15351, Note_on_c, 5, 60, 0
13, 15360, Note_on_c, 5, 74, 84
13, 15360, Note_on_c, 5, 55, 84
13, 15531, Note_on_c, 5, 74, 0
13, 15531, Note_on_c, 5, 55, 0
13, 15540, Note_on_c, 5, 74, 84
13, 15540, Note_on_c, 5, 55, 84
13, 15591, Note_on_c, 5, 74, 0
13, 15591, Note_on_c, 5, 55, 0
13, 15600, Note_on_c, 5, 74, 84
13, 15600, Note_on_c, 5, 55, 84
13, 15771, Note_on_c, 5, 74, 0
13, 15771, Note_on_c, 5, 55, 0
13, 15780, Note_on_c, 5, 74, 84
13, 15780, Note_on_c, 5, 55, 84
13, 15831, Note_on_c, 5, 74, 0
13, 15831, Note_on_c, 5, 55, 0
13, 15840, Note_on_c, 5, 60, 84
13, 15840, Note_on_c, 5, 76, 84
13, 16011, Note_on_c, 5, 60, 0
13, 16011, Note_on_c, 5, 76, 0
13, 16020, Note_on_c, 5, 76, 84
13, 16020, Note_on_c, 5, 60, 84
13, 16071, Note_on_c, 5, 76, 0
13, 16071, Note_on_c, 5, 60, 0
13, 16080, Note_on_c, 5, 60, 84
13, 16080, Note_on_c, 5, 76, 84
13, 16251, Note_on_c, 5, 60, 0
13, 16251, Note_on_c, 5, 76, 0
13, 16260, Note_on_c, 5, 60, 84
13, 16260, Note_on_c, 5, 76, 84
13, 16311, Note_on_c, 5, 60, 0
13, 16311, Note_on_c, 5, 76, 0
13, 16320, Note_on_c, 5, 74, 84
13, 16320, Note_on_c, 5, 55, 84
13, 16544, Note_on_c, 5, 74, 0
13, 16544, Note_on_c, 5, 55, 0
13, 16560, Note_on_c, 5, 74, 84
13, 16560, Note_on_c, 5, 67, 84
13, 16784, Note_on_c, 5, 74, 0
13, 16784, Note_on_c, 5, 67, 0
13, 16800, Note_on_c, 5, 72, 84
13, 16800, Note_on_c, 5, 76, 84
13, 17024, Note_on_c, 5, 72, 0
13, 17024, Note_on_c, 5, 76, 0
13, 17040, Note_on_c, 5, 72, 84
13, 17040, Note_on_c, 5, 76, 84
13, 17264, Note_on_c, 5, 72, 0
13, 17264, Note_on_c, 5, 76, 0
13, 17280, Note_on_c, 5, 74, 84
13, 17280, Note_on_c, 5, 67, 84
13, 17504, Note_on_c, 5, 74, 0
13, 17504, Note_on_c, 5, 67, 0
13, 17520, Note_on_c, 5, 67, 84
13, 17520, Note_on_c, 5, 74, 84
13, 17744, Note_on_c, 5, 67, 0
13, 17744, Note_on_c, 5, 74, 0
13, 17760, Note_on_c, 5, 76, 84
13, 17760, Note_on_c, 5, 72, 84
13, 17984, Note_on_c, 5, 76, 0
13, 17984, Note_on_c, 5, 72, 0
13, 18000, Note_on_c, 5, 76, 84
13, 18000, Note_on_c, 5, 72, 84
13, 18224, Note_on_c, 5, 76, 0
13, 18224, Note_on_c, 5, 72, 0
13, 18240, Note_on_c, 5, 74, 84
13, 18240, Note_on_c, 5, 67, 84
13, 18359, Note_on_c, 5, 74, 0
13, 18359, Note_on_c, 5, 67, 0
13, 18420, Note_on_c, 5, 72, 84
13, 18420, Note_on_c, 5, 76, 84
13, 18471, Note_on_c, 5, 72, 0
13, 18471, Note_on_c, 5, 76, 0
13, 18480, Note_on_c, 5, 76, 84
13, 18480, Note_on_c, 5, 72, 84
13, 18704, Note_on_c, 5, 76, 0
13, 18704, Note_on_c, 5, 72, 0
13, 18720, Note_on_c, 5, 74, 84
13, 18720, Note_on_c, 5, 67, 84
13, 18839, Note_on_c, 5, 74, 0
13, 18839, Note_on_c, 5, 67, 0
13, 18900, Note_on_c, 5, 72, 84
13, 18900, Note_on_c, 5, 76, 84
13, 18951, Note_on_c, 5, 72, 0
13, 18951, Note_on_c, 5, 76, 0
13, 18960, Note_on_c, 5, 76, 84
13, 18960, Note_on_c, 5, 72, 84
13, 19184, Note_on_c, 5, 76, 0
13, 19184, Note_on_c, 5, 72, 0
13, 19200, Note_on_c, 5, 74, 84
13, 19200, Note_on_c, 5, 67, 84
13, 19319, Note_on_c, 5, 74, 0
13, 19319, Note_on_c, 5, 67, 0
13, 19380, Note_on_c, 5, 72, 84
13, 19380, Note_on_c, 5, 76, 84
13, 19431, Note_on_c, 5, 72, 0
13, 19431, Note_on_c, 5, 76, 0
13, 19440, Note_on_c, 5, 72, 84
13, 19440, Note_on_c, 5, 76, 84
13, 19664, Note_on_c, 5, 72, 0
13, 19664, Note_on_c, 5, 76, 0
13, 19680, Note_on_c, 5, 67, 84
13, 19680, Note_on_c, 5, 74, 84
13, 19799, Note_on_c, 5, 67, 0
13, 19799, Note_on_c, 5, 74, 0
13, 19860, Note_on_c, 5, 72, 84
13, 19860, Note_on_c, 5, 76, 84
13, 19911, Note_on_c, 5, 72, 0
13, 19911, Note_on_c, 5, 76, 0
13, 19920, Note_on_c, 5, 76, 84
13, 19920, Note_on_c, 5, 72, 84
13, 20144, Note_on_c, 5, 76, 0
13, 20144, Note_on_c, 5, 72, 0
13, 20160, Note_on_c, 5, 74, 84
13, 20160, Note_on_c, 5, 67, 84
13, 20279, Note_on_c, 5, 74, 0
13, 20279, Note_on_c, 5, 67, 0
13, 25920, Note_on_c, 5, 74, 84
13, 25920, Note_on_c, 5, 67, 84
13, 27824, Note_on_c, 5, 74, 0
13, 27824, Note_on_c, 5, 67, 0
13, 27840, Note_on_c, 5, 74, 84
13, 27840, Note_on_c, 5, 67, 84
13, 28079, Note_on_c, 5, 74, 0
13, 28079, Note_on_c, 5, 67, 0
13, 29760, Note_on_c, 5, 76, 84
13, 29760, Note_on_c, 5, 72, 84
13, 31664, Note_on_c, 5, 76, 0
13, 31664, Note_on_c, 5, 72, 0
13, 31680, Note_on_c, 5, 60, 84
13, 31680, Note_on_c, 5, 72, 84
13, 32624, Note_on_c, 5, 60, 0
13, 32624, Note_on_c, 5, 72, 0
13, 32640, Note_on_c, 5, 60, 84
13, 32640, Note_on_c, 5, 72, 84
13, 33584, Note_on_c, 5, 60, 0
13, 33584, Note_on_c, 5, 72, 0
13, 33600, Note_on_c, 5, 74, 84
13, 34544, Note_on_c, 5, 74, 0
13, 34560, Note_on_c, 5, 74, 84
13, 35504, Note_on_c, 5, 74, 0
13, 35520, Note_on_c, 5, 74, 84
13, 36464, Note_on_c, 5, 74, 0
13, 36480, Note_on_c, 5, 74, 84
13, 37424, Note_on_c, 5, 74, 0
13, 37440, Note_on_c, 5, 74, 84
13, 38384, Note_on_c, 5, 74, 0
13, 38400, Note_on_c, 5, 74, 84
13, 38984, Note_on_c, 5, 74, 0
13, 39000, Note_on_c, 5, 74, 84
13, 39224, Note_on_c, 5, 74, 0
13, 39240, Note_on_c, 5, 74, 84
13, 39464, Note_on_c, 5, 74, 0
13, 39480, Note_on_c, 5, 74, 84
13, 39704, Note_on_c, 5, 74, 0
13, 39720, Note_on_c, 5, 74, 84
13, 39824, Note_on_c, 5, 74, 0
13, 39840, Note_on_c, 5, 74, 84
13, 39944, Note_on_c, 5, 74, 0
13, 39960, Note_on_c, 5, 74, 84
13, 40079, Note_on_c, 5, 74, 0
13, 40080, Note_on_c, 5, 76, 84
13, 40184, Note_on_c, 5, 76, 0
13, 40200, Note_on_c, 5, 76, 84
13, 40289, Note_on_c, 5, 76, 0
13, 40320, Note_on_c, 5, 74, 84
13, 40439, Note_on_c, 5, 74, 0
13, 42240, Note_on_c, 5, 67, 84
13, 42240, Note_on_c, 5, 55, 84
13, 42479, Note_on_c, 5, 67, 0
13, 42479, Note_on_c, 5, 55, 0
13, 42720, Note_on_c, 5, 67, 84
13, 42720, Note_on_c, 5, 55, 84
13, 42959, Note_on_c, 5, 67, 0
13, 42959, Note_on_c, 5, 55, 0
13, 43200, Note_on_c, 5, 67, 84
13, 43200, Note_on_c, 5, 55, 84
13, 43439, Note_on_c, 5, 67, 0
13, 43439, Note_on_c, 5, 55, 0
13, 45840, Note_on_c, 5, 74, 76
13, 45907, Note_on_c, 5, 74, 0
13, 45920, Note_on_c, 5, 74, 76
13, 45987, Note_on_c, 5, 74, 0
13, 46000, Note_on_c, 5, 74, 76
13, 46067, Note_on_c, 5, 74, 0
13, 46080, Note_on_c, 5, 67, 76
13, 46304, Note_on_c, 5, 67, 0
13, 46320, Note_on_c, 5, 67, 76
13, 46387, Note_on_c, 5, 67, 0
13, 46400, Note_on_c, 5, 67, 76
13, 46467, Note_on_c, 5, 67, 0
13, 46480, Note_on_c, 5, 67, 76
13, 46547, Note_on_c, 5, 67, 0
13, 46560, Note_on_c, 5, 67, 76
13, 46784, Note_on_c, 5, 67, 0
13, 46800, Note_on_c, 5, 67, 76
13, 46867, Note_on_c, 5, 67, 0
13, 46880, Note_on_c, 5, 67, 76
13, 46947, Note_on_c, 5, 67, 0
13, 46960, Note_on_c, 5, 67, 76
13, 47027, Note_on_c, 5, 67, 0
13, 47040, Note_on_c, 5, 67, 76
13, 47264, Note_on_c, 5, 67, 0
13, 47280, Note_on_c, 5, 67, 76
13, 47347, Note_on_c, 5, 67, 0
13, 47360, Note_on_c, 5, 67, 76
13, 47427, Note_on_c, 5, 67, 0
13, 47440, Note_on_c, 5, 67, 76
13, 47507, Note_on_c, 5, 67, 0
13, 47520, Note_on_c, 5, 67, 76
13, 47759, Note_on_c, 5, 67, 0
13, 54720, Note_on_c, 5, 76, 84
13, 54720, Note_on_c, 5, 60, 84
13, 56864, Note_on_c, 5, 76, 0
13, 56864, Note_on_c, 5, 60, 0
13, 56880, Note_on_c, 5, 67, 84
13, 56880, Note_on_c, 5, 79, 84
13, 57104, Note_on_c, 5, 67, 0
13, 57104, Note_on_c, 5, 79, 0
13, 57120, Note_on_c, 5, 79, 84
13, 57120, Note_on_c, 5, 67, 84
13, 57344, Note_on_c, 5, 79, 0
13, 57344, Note_on_c, 5, 67, 0
13, 57360, Note_on_c, 5, 79, 84
13, 57360, Note_on_c, 5, 67, 84
13, 57584, Note_on_c, 5, 79, 0
13, 57584, Note_on_c, 5, 67, 0
13, 57600, Note_on_c, 5, 67, 84
13, 57600, Note_on_c, 5, 79, 84
13, 57824, Note_on_c, 5, 67, 0
13, 57824, Note_on_c, 5, 79, 0
13, 57840, Note_on_c, 5, 74, 84
13, 58064, Note_on_c, 5, 74, 0
13, 58080, Note_on_c, 5, 74, 84
13, 58080, Note_on_c, 5, 67, 84
13, 58304, Note_on_c, 5, 74, 0
13, 58304, Note_on_c, 5, 67, 0
13, 58320, Note_on_c, 5, 74, 84
13, 58320, Note_on_c, 5, 67, 84
13, 58544, Note_on_c, 5, 74, 0
13, 58544, Note_on_c, 5, 67, 0
13, 58560, Note_on_c, 5, 60, 84
13, 58560, Note_on_c, 5, 72, 84
13, 58739, Note_on_c, 5, 60, 0
13, 58739, Note_on_c, 5, 72, 0
13, 59520, Note_on_c, 5, 74, 84
13, 59699, Note_on_c, 5, 74, 0
13, 68160, Note_on_c, 5, 67, 76
13, 68160, Note_on_c, 5, 79, 76
13, 68864, Note_on_c, 5, 67, 0
13, 68864, Note_on_c, 5, 79, 0
13, 68880, Note_on_c, 5, 74, 76
13, 69104, Note_on_c, 5, 74, 0
13, 69120, Note_on_c, 5, 74, 76
13, 69344, Note_on_c, 5, 74, 0
13, 69360, Note_on_c, 5, 74, 76
13, 69584, Note_on_c, 5, 74, 0
13, 69600, Note_on_c, 5, 74, 76
13, 69824, Note_on_c, 5, 74, 0
13, 69840, Note_on_c, 5, 74, 76
13, 70064, Note_on_c, 5, 74, 0
13, 70080, Note_on_c, 5, 67, 84
13, 70080, Note_on_c, 5, 79, 84
13, 70200, Control_c, 5, 11, 112
13, 70784, Note_on_c, 5, 67, 0
13, 70784, Note_on_c, 5, 79, 0
13, 70800, Note_on_c, 5, 74, 84
13, 71024, Note_on_c, 5, 74, 0
13, 71040, Note_on_c, 5, 74, 84
13, 71264, Note_on_c, 5, 74, 0
13, 71280, Note_on_c, 5, 74, 84
13, 71504, Note_on_c, 5, 74, 0
13, 71520, Note_on_c, 5, 74, 84
13, 71744, Note_on_c, 5, 74, 0
13, 71760, Note_on_c, 5, 74, 84
13, 71984, Note_on_c, 5, 74, 0
13, 71998, Control_c, 5, 11, 127
13, 72000, Note_on_c, 5, 74, 84
13, 72120, Control_c, 5, 11, 112
13, 72704, Note_on_c, 5, 74, 0
13, 72720, Note_on_c, 5, 67, 84
13, 72944, Note_on_c, 5, 67, 0
13, 72958, Control_c, 5, 11, 127
13, 72960, Note_on_c, 5, 60, 76
13, 72960, Note_on_c, 5, 72, 76
13, 73184, Note_on_c, 5, 60, 0
13, 73184, Note_on_c, 5, 72, 0
13, 73200, Note_on_c, 5, 60, 80
13, 73200, Note_on_c, 5, 72, 80
13, 73424, Note_on_c, 5, 60, 0
13, 73424, Note_on_c, 5, 72, 0
13, 73440, Note_on_c, 5, 60, 80
13, 73440, Note_on_c, 5, 72, 80
13, 73664, Note_on_c, 5, 60, 0
13, 73664, Note_on_c, 5, 72, 0
13, 73680, Note_on_c, 5, 60, 80
13, 73680, Note_on_c, 5, 72, 80
13, 73904, Note_on_c, 5, 60, 0
13, 73904, Note_on_c, 5, 72, 0
13, 73920, Note_on_c, 5, 72, 80
13, 73920, Note_on_c, 5, 60, 80
13, 74144, Note_on_c, 5, 72, 0
13, 74144, Note_on_c, 5, 60, 0
13, 74160, Note_on_c, 5, 72, 80
13, 74160, Note_on_c, 5, 60, 80
13, 74384, Note_on_c, 5, 72, 0
13, 74384, Note_on_c, 5, 60, 0
13, 74400, Note_on_c, 5, 60, 80
13, 74400, Note_on_c, 5, 72, 80
13, 74624, Note_on_c, 5, 60, 0
13, 74624, Note_on_c, 5, 72, 0
13, 74640, Note_on_c, 5, 72, 80
13, 74640, Note_on_c, 5, 60, 80
13, 74864, Note_on_c, 5, 72, 0
13, 74864, Note_on_c, 5, 60, 0
13, 74880, Note_on_c, 5, 60, 80
13, 74880, Note_on_c, 5, 72, 80
13, 75104, Note_on_c, 5, 60, 0
13, 75104, Note_on_c, 5, 72, 0
13, 75120, Note_on_c, 5, 72, 80
13, 75120, Note_on_c, 5, 60, 80
13, 75344, Note_on_c, 5, 72, 0
13, 75344, Note_on_c, 5, 60, 0
13, 75360, Note_on_c, 5, 60, 80
13, 75360, Note_on_c, 5, 72, 80
13, 75584, Note_on_c, 5, 60, 0
13, 75584, Note_on_c, 5, 72, 0
13, 75600, Note_on_c, 5, 72, 80
13, 75600, Note_on_c, 5, 60, 80
13, 75824, Note_on_c, 5, 72, 0
13, 75824, Note_on_c, 5, 60, 0
13, 75840, Note_on_c, 5, 72, 84
13, 75840, Note_on_c, 5, 60, 84
13, 77744, Note_on_c, 5, 72, 0
13, 77744, Note_on_c, 5, 60, 0
13, 77760, Note_on_c, 5, 55, 84
13, 77760, Note_on_c, 5, 67, 84
13, 77999, Note_on_c, 5, 55, 0
13, 77999, Note_on_c, 5, 67, 0
13, 78480, Note_on_c, 5, 67, 84
13, 78480, Note_on_c, 5, 55, 84
13, 78704, Note_on_c, 5, 67, 0
13, 78704, Note_on_c, 5, 55, 0
13, 78720, Note_on_c, 5, 67, 84
13, 78720, Note_on_c, 5, 55, 84
13, 78959, Note_on_c, 5, 67, 0
13, 78959, Note_on_c, 5, 55, 0
13, 79440, Note_on_c, 5, 67, 84
13, 79440, Note_on_c, 5, 55, 84
13, 79544, Note_on_c, 5, 67, 0
13, 79544, Note_on_c, 5, 55, 0
13, 79560, Note_on_c, 5, 55, 84
13, 79560, Note_on_c, 5, 67, 84
13, 79664, Note_on_c, 5, 55, 0
13, 79664, Note_on_c, 5, 67, 0
13, 79680, Note_on_c, 5, 67, 84
13, 79680, Note_on_c, 5, 55, 84
13, 79904, Note_on_c, 5, 67, 0
13, 79904, Note_on_c, 5, 55, 0
13, 79920, Note_on_c, 5, 55, 84
13, 79920, Note_on_c, 5, 67, 84
13, 80024, Note_on_c, 5, 55, 0
13, 80024, Note_on_c, 5, 67, 0
13, 80040, Note_on_c, 5, 55, 84
13, 80040, Note_on_c, 5, 67, 84
13, 80144, Note_on_c, 5, 55, 0
13, 80144, Note_on_c, 5, 67, 0
13, 80160, Note_on_c, 5, 55, 84
13, 80160, Note_on_c, 5, 67, 84
13, 80384, Note_on_c, 5, 55, 0
13, 80384, Note_on_c, 5, 67, 0
13, 80400, Note_on_c, 5, 55, 84
13, 80400, Note_on_c, 5, 67, 84
13, 80504, Note_on_c, 5, 55, 0
13, 80504, Note_on_c, 5, 67, 0
13, 80520, Note_on_c, 5, 67, 84
13, 80520, Note_on_c, 5, 55, 84
13, 80624, Note_on_c, 5, 67, 0
13, 80624, Note_on_c, 5, 55, 0
13, 80640, Note_on_c, 5, 55, 84
13, 80640, Note_on_c, 5, 67, 84
13, 80744, Note_on_c, 5, 55, 0
13, 80744, Note_on_c, 5, 67, 0
13, 80760, Note_on_c, 5, 67, 84
13, 80760, Note_on_c, 5, 55, 84
13, 80864, Note_on_c, 5, 67, 0
13, 80864, Note_on_c, 5, 55, 0
13, 80880, Note_on_c, 5, 74, 84
13, 80880, Note_on_c, 5, 67, 84
13, 81119, Note_on_c, 5, 74, 0
13, 81119, Note_on_c, 5, 67, 0
13, 81360, Note_on_c, 5, 67, 84
13, 81360, Note_on_c, 5, 55, 84
13, 81584, Note_on_c, 5, 67, 0
13, 81584, Note_on_c, 5, 55, 0
13, 81600, Note_on_c, 5, 72, 84
13, 81600, Note_on_c, 5, 64, 84
13, 82064, Note_on_c, 5, 72, 0
13, 82064, Note_on_c, 5, 64, 0
13, 82080, Note_on_c, 5, 76, 84
13, 82080, Note_on_c, 5, 72, 84
13, 82544, Note_on_c, 5, 76, 0
13, 82544, Note_on_c, 5, 72, 0
13, 82560, Note_on_c, 5, 76, 84
13, 82560, Note_on_c, 5, 79, 84
13, 83264, Note_on_c, 5, 76, 0
13, 83264, Note_on_c, 5, 79, 0
13, 83280, Note_on_c, 5, 74, 84
13, 83280, Note_on_c, 5, 77, 84
13, 83399, Note_on_c, 5, 74, 0
13, 83399, Note_on_c, 5, 77, 0
13, 83520, Note_on_c, 5, 72, 84
13, 83520, Note_on_c, 5, 76, 84
13, 83639, Note_on_c, 5, 72, 0
13, 83639, Note_on_c, 5, 76, 0
13, 83760, Note_on_c, 5, 74, 84
13, 83760, Note_on_c, 5, 67, 84
13, 83879, Note_on_c, 5, 74, 0
13, 83879, Note_on_c, 5, 67, 0
13, 84000, Note_on_c, 5, 72, 84
13, 84000, Note_on_c, 5, 64, 84
13, 84119, Note_on_c, 5, 72, 0
13, 84119, Note_on_c, 5, 64, 0
13, 84240, Note_on_c, 5, 67, 84
13, 84240, Note_on_c, 5, 74, 84
13, 84359, Note_on_c, 5, 67, 0
13, 84359, Note_on_c, 5, 74, 0
13, 84480, Note_on_c, 5, 72, 84
13, 84480, Note_on_c, 5, 64, 84
13, 85184, Note_on_c, 5, 72, 0
13, 85184, Note_on_c, 5, 64, 0
13, 85200, Note_on_c, 5, 64, 84
13, 85200, Note_on_c, 5, 72, 84
13, 85371, Note_on_c, 5, 64, 0
13, 85371, Note_on_c, 5, 72, 0
13, 85380, Note_on_c, 5, 64, 84
13, 85380, Note_on_c, 5, 72, 84
13, 85431, Note_on_c, 5, 64, 0
13, 85431, Note_on_c, 5, 72, 0
13, 85440, Note_on_c, 5, 67, 84
13, 85440, Note_on_c, 5, 74, 84
13, 86144, Note_on_c, 5, 67, 0
13, 86144, Note_on_c, 5, 74, 0
13, 86160, Note_on_c, 5, 74, 84
13, 86160, Note_on_c, 5, 67, 84
13, 86331, Note_on_c, 5, 74, 0
13, 86331, Note_on_c, 5, 67, 0
13, 86340, Note_on_c, 5, 67, 84
13, 86340, Note_on_c, 5, 74, 84
13, 86391, Note_on_c, 5, 67, 0
13, 86391, Note_on_c, 5, 74, 0
13, 86400, Note_on_c, 5, 72, 84
13, 86400, Note_on_c, 5, 76, 84
13, 86984, Note_on_c, 5, 72, 0
13, 86984, Note_on_c, 5, 76, 0
13, 87000, Note_on_c, 5, 72, 84
13, 87000, Note_on_c, 5, 60, 84
13, 87104, Note_on_c, 5, 72, 0
13, 87104, Note_on_c, 5, 60, 0
13, 87120, Note_on_c, 5, 60, 84
13, 87120, Note_on_c, 5, 72, 84
13, 87224, Note_on_c, 5, 60, 0
13, 87224, Note_on_c, 5, 72, 0
13, 87240, Note_on_c, 5, 72, 84
13, 87240, Note_on_c, 5, 60, 84
13, 87344, Note_on_c, 5, 72, 0
13, 87344, Note_on_c, 5, 60, 0
13, 87360, Note_on_c, 5, 72, 84
13, 87360, Note_on_c, 5, 60, 84
13, 87584, Note_on_c, 5, 72, 0
13, 87584, Note_on_c, 5, 60, 0
13, 87600, Note_on_c, 5, 72, 84
13, 87600, Note_on_c, 5, 60, 84
13, 87704, Note_on_c, 5, 72, 0
13, 87704, Note_on_c, 5, 60, 0
13, 87720, Note_on_c, 5, 72, 84
13, 87720, Note_on_c, 5, 60, 84
13, 87824, Note_on_c, 5, 72, 0
13, 87824, Note_on_c, 5, 60, 0
13, 87840, Note_on_c, 5, 60, 84
13, 87840, Note_on_c, 5, 72, 84
13, 88064, Note_on_c, 5, 60, 0
13, 88064, Note_on_c, 5, 72, 0
13, 88080, Note_on_c, 5, 72, 84
13, 88080, Note_on_c, 5, 60, 84
13, 88184, Note_on_c, 5, 72, 0
13, 88184, Note_on_c, 5, 60, 0
13, 88200, Note_on_c, 5, 60, 84
13, 88200, Note_on_c, 5, 72, 84
13, 88304, Note_on_c, 5, 60, 0
13, 88304, Note_on_c, 5, 72, 0
13, 88320, Note_on_c, 5, 72, 84
13, 88320, Note_on_c, 5, 60, 84
13, 88904, Note_on_c, 5, 72, 0
13, 88904, Note_on_c, 5, 60, 0
13, 88920, Note_on_c, 5, 60, 84
13, 88920, Note_on_c, 5, 72, 84
13, 89024, Note_on_c, 5, 60, 0
13, 89024, Note_on_c, 5, 72, 0
13, 89040, Note_on_c, 5, 60, 84
13, 89040, Note_on_c, 5, 72, 84
13, 89144, Note_on_c, 5, 60, 0
13, 89144, Note_on_c, 5, 72, 0
13, 89160, Note_on_c, 5, 60, 84
13, 89160, Note_on_c, 5, 72, 84
13, 89264, Note_on_c, 5, 60, 0
13, 89264, Note_on_c, 5, 72, 0
13, 89280, Note_on_c, 5, 60, 84
13, 89280, Note_on_c, 5, 72, 84
13, 89504, Note_on_c, 5, 60, 0
13, 89504, Note_on_c, 5, 72, 0
13, 89520, Note_on_c, 5, 72, 84
13, 89520, Note_on_c, 5, 60, 84
13, 89624, Note_on_c, 5, 72, 0
13, 89624, Note_on_c, 5, 60, 0
13, 89640, Note_on_c, 5, 72, 84
13, 89640, Note_on_c, 5, 60, 84
13, 89744, Note_on_c, 5, 72, 0
13, 89744, Note_on_c, 5, 60, 0
13, 89760, Note_on_c, 5, 60, 84
13, 89760, Note_on_c, 5, 72, 84
13, 89984, Note_on_c, 5, 60, 0
13, 89984, Note_on_c, 5, 72, 0
13, 90000, Note_on_c, 5, 60, 84
13, 90000, Note_on_c, 5, 72, 84
13, 90104, Note_on_c, 5, 60, 0
13, 90104, Note_on_c, 5, 72, 0
13, 90120, Note_on_c, 5, 60, 84
13, 90120, Note_on_c, 5, 72, 84
13, 90224, Note_on_c, 5, 60, 0
13, 90224, Note_on_c, 5, 72, 0
13, 90240, Note_on_c, 5, 60, 84
13, 90240, Note_on_c, 5, 72, 84
13, 90824, Note_on_c, 5, 60, 0
13, 90824, Note_on_c, 5, 72, 0
13, 90840, Note_on_c, 5, 72, 84
13, 90840, Note_on_c, 5, 60, 84
13, 90944, Note_on_c, 5, 72, 0
13, 90944, Note_on_c, 5, 60, 0
13, 90960, Note_on_c, 5, 60, 84
13, 90960, Note_on_c, 5, 72, 84
13, 91064, Note_on_c, 5, 60, 0
13, 91064, Note_on_c, 5, 72, 0
13, 91080, Note_on_c, 5, 60, 84
13, 91080, Note_on_c, 5, 72, 84
13, 91184, Note_on_c, 5, 60, 0
13, 91184, Note_on_c, 5, 72, 0
13, 91200, Note_on_c, 5, 60, 84
13, 91200, Note_on_c, 5, 72, 84
13, 91424, Note_on_c, 5, 60, 0
13, 91424, Note_on_c, 5, 72, 0
13, 91440, Note_on_c, 5, 72, 84
13, 91440, Note_on_c, 5, 60, 84
13, 91544, Note_on_c, 5, 72, 0
13, 91544, Note_on_c, 5, 60, 0
13, 91560, Note_on_c, 5, 60, 84
13, 91560, Note_on_c, 5, 72, 84
13, 91664, Note_on_c, 5, 60, 0
13, 91664, Note_on_c, 5, 72, 0
13, 91680, Note_on_c, 5, 72, 84
13, 91680, Note_on_c, 5, 60, 84
13, 91904, Note_on_c, 5, 72, 0
13, 91904, Note_on_c, 5, 60, 0
13, 91920, Note_on_c, 5, 60, 84
13, 91920, Note_on_c, 5, 72, 84
13, 92024, Note_on_c, 5, 60, 0
13, 92024, Note_on_c, 5, 72, 0
13, 92040, Note_on_c, 5, 60, 84
13, 92040, Note_on_c, 5, 72, 84
13, 92144, Note_on_c, 5, 60, 0
13, 92144, Note_on_c, 5, 72, 0
13, 92160, Note_on_c, 5, 60, 84
13, 92160, Note_on_c, 5, 72, 84
13, 92864, Note_on_c, 5, 60, 0
13, 92864, Note_on_c, 5, 72, 0
13, 92880, Note_on_c, 5, 60, 84
13, 92880, Note_on_c, 5, 76, 84
13, 93051, Note_on_c, 5, 60, 0
13, 93051, Note_on_c, 5, 76, 0
13, 93060, Note_on_c, 5, 60, 84
13, 93060, Note_on_c, 5, 76, 84
13, 93111, Note_on_c, 5, 60, 0
13, 93111, Note_on_c, 5, 76, 0
13, 93120, Note_on_c, 5, 74, 84
13, 93120, Note_on_c, 5, 55, 84
13, 93344, Note_on_c, 5, 74, 0
13, 93344, Note_on_c, 5, 55, 0
13, 93360, Note_on_c, 5, 74, 84
13, 93360, Note_on_c, 5, 55, 84
13, 93531, Note_on_c, 5, 74, 0
13, 93531, Note_on_c, 5, 55, 0
13, 93540, Note_on_c, 5, 55, 84
13, 93540, Note_on_c, 5, 74, 84
13, 93591, Note_on_c, 5, 55, 0
13, 93591, Note_on_c, 5, 74, 0
13, 93600, Note_on_c, 5, 76, 84
13, 93600, Note_on_c, 5, 60, 84
13, 93824, Note_on_c, 5, 76, 0
13, 93824, Note_on_c, 5, 60, 0
13, 93840, Note_on_c, 5, 76, 84
13, 93840, Note_on_c, 5, 60, 84
13, 94011, Note_on_c, 5, 76, 0
13, 94011, Note_on_c, 5, 60, 0
13, 94020, Note_on_c, 5, 60, 84
13, 94020, Note_on_c, 5, 76, 84
13, 94071, Note_on_c, 5, 60, 0
13, 94071, Note_on_c, 5, 76, 0
13, 94080, Note_on_c, 5, 55, 84
13, 94080, Note_on_c, 5, 74, 84
13, 94304, Note_on_c, 5, 55, 0
13, 94304, Note_on_c, 5, 74, 0
13, 94320, Note_on_c, 5, 55, 84
13, 94320, Note_on_c, 5, 74, 84
13, 94784, Note_on_c, 5, 55, 0
13, 94784, Note_on_c, 5, 74, 0
13, 94800, Note_on_c, 5, 76, 84
13, 94800, Note_on_c, 5, 60, 84
13, 94971, Note_on_c, 5, 76, 0
13, 94971, Note_on_c, 5, 60, 0
13, 94980, Note_on_c, 5, 60, 84
13, 94980, Note_on_c, 5, 76, 84
13, 95031, Note_on_c, 5, 60, 0
13, 95031, Note_on_c, 5, 76, 0
13, 95040, Note_on_c, 5, 55, 84
13, 95040, Note_on_c, 5, 74, 84
13, 95264, Note_on_c, 5, 55, 0
13, 95264, Note_on_c, 5, 74, 0
13, 95280, Note_on_c, 5, 55, 84
13, 95280, Note_on_c, 5, 74, 84
13, 95451, Note_on_c, 5, 55, 0
13, 95451, Note_on_c, 5, 74, 0
13, 95460, Note_on_c, 5, 55, 84
13, 95460, Note_on_c, 5, 74, 84
13, 95511, Note_on_c, 5, 55, 0
13, 95511, Note_on_c, 5, 74, 0
13, 95520, Note_on_c, 5, 76, 84
13, 95520, Note_on_c, 5, 60, 84
13, 95744, Note_on_c, 5, 76, 0
13, 95744, Note_on_c, 5, 60, 0
13, 95760, Note_on_c, 5, 76, 84
13, 95760, Note_on_c, 5, 60, 84
13, 95931, Note_on_c, 5, 76, 0
13, 95931, Note_on_c, 5, 60, 0
13, 95940, Note_on_c, 5, 76, 84
13, 95940, Note_on_c, 5, 60, 84
13, 95991, Note_on_c, 5, 76, 0
13, 95991, Note_on_c, 5, 60, 0
13, 96000, Note_on_c, 5, 74, 84
13, 96000, Note_on_c, 5, 55, 84
13, 96224, Note_on_c, 5, 74, 0
13, 96224, Note_on_c, 5, 55, 0
13, 96240, Note_on_c, 5, 74, 84
13, 96240, Note_on_c, 5, 55, 84
13, 96704, Note_on_c, 5, 74, 0
13, 96704, Note_on_c, 5, 55, 0
13, 96720, Note_on_c, 5, 60, 84
13, 96720, Note_on_c, 5, 76, 84
13, 96891, Note_on_c, 5, 60, 0
13, 96891, Note_on_c, 5, 76, 0
13, 96900, Note_on_c, 5, 76, 84
13, 96900, Note_on_c, 5, 60, 84
13, 96951, Note_on_c, 5, 76, 0
13, 96951, Note_on_c, 5, 60, 0
13, 96960, Note_on_c, 5, 55, 84
13, 96960, Note_on_c, 5, 74, 84
13, 97131, Note_on_c, 5, 55, 0
13, 97131, Note_on_c, 5, 74, 0
13, 97140, Note_on_c, 5, 74, 84
13, 97140, Note_on_c, 5, 55, 84
13, 97191, Note_on_c, 5, 74, 0
13, 97191, Note_on_c, 5, 55, 0
13, 97200, Note_on_c, 5, 74, 84
13, 97200, Note_on_c, 5, 55, 84
13, 97371, Note_on_c, 5, 74, 0
13, 97371, Note_on_c, 5, 55, 0
13, 97380, Note_on_c, 5, 55, 84
13, 97380, Note_on_c, 5, 74, 84
13, 97431, Note_on_c, 5, 55, 0
13, 97431, Note_on_c, 5, 74, 0
13, 97440, Note_on_c, 5, 60, 84
13, 97440, Note_on_c, 5, 76, 84
13, 97611, Note_on_c, 5, 60, 0
13, 97611, Note_on_c, 5, 76, 0
13, 97620, Note_on_c, 5, 76, 84
13, 97620, Note_on_c, 5, 60, 84
13, 97671, Note_on_c, 5, 76, 0
13, 97671, Note_on_c, 5, 60, 0
13, 97680, Note_on_c, 5, 60, 84
13, 97680, Note_on_c, 5, 76, 84
13, 97851, Note_on_c, 5, 60, 0
13, 97851, Note_on_c, 5, 76, 0
13, 97860, Note_on_c, 5, 76, 84
13, 97860, Note_on_c, 5, 60, 84
13, 97911, Note_on_c, 5, 76, 0
13, 97911, Note_on_c, 5, 60, 0
13, 97920, Note_on_c, 5, 74, 84
13, 97920, Note_on_c, 5, 55, 84
13, 98144, Note_on_c, 5, 74, 0
13, 98144, Note_on_c, 5, 55, 0
13, 98160, Note_on_c, 5, 74, 84
13, 98160, Note_on_c, 5, 67, 84
13, 98384, Note_on_c, 5, 74, 0
13, 98384, Note_on_c, 5, 67, 0
13, 98400, Note_on_c, 5, 72, 84
13, 98400, Note_on_c, 5, 76, 84
13, 98624, Note_on_c, 5, 72, 0
13, 98624, Note_on_c, 5, 76, 0
13, 98640, Note_on_c, 5, 76, 84
13, 98640, Note_on_c, 5, 72, 84
13, 98864, Note_on_c, 5, 76, 0
13, 98864, Note_on_c, 5, 72, 0
13, 98880, Note_on_c, 5, 74, 84
13, 98880, Note_on_c, 5, 67, 84
13, 99104, Note_on_c, 5, 74, 0
13, 99104, Note_on_c, 5, 67, 0
13, 99120, Note_on_c, 5, 67, 84
13, 99120, Note_on_c, 5, 74, 84
13, 99344, Note_on_c, 5, 67, 0
13, 99344, Note_on_c, 5, 74, 0
13, 99360, Note_on_c, 5, 76, 84
13, 99360, Note_on_c, 5, 72, 84
13, 99584, Note_on_c, 5, 76, 0
13, 99584, Note_on_c, 5, 72, 0
13, 99600, Note_on_c, 5, 72, 84
13, 99600, Note_on_c, 5, 76, 84
13, 99824, Note_on_c, 5, 72, 0
13, 99824, Note_on_c, 5, 76, 0
13, 99840, Note_on_c, 5, 74, 84
13, 99840, Note_on_c, 5, 67, 84
13, 99959, Note_on_c, 5, 74, 0
13, 99959, Note_on_c, 5, 67, 0
13, 100020, Note_on_c, 5, 76, 84
13, 100020, Note_on_c, 5, 72, 84
13, 100071, Note_on_c, 5, 76, 0
13, 100071, Note_on_c, 5, 72, 0
13, 100080, Note_on_c, 5, 76, 84
13, 100080, Note_on_c, 5, 72, 84
13, 100304, Note_on_c, 5, 76, 0
13, 100304, Note_on_c, 5, 72, 0
13, 100320, Note_on_c, 5, 74, 84
13, 100320, Note_on_c, 5, 67, 84
13, 100439, Note_on_c, 5, 74, 0
13, 100439, Note_on_c, 5, 67, 0
13, 100500, Note_on_c, 5, 76, 84
13, 100500, Note_on_c, 5, 72, 84
13, 100551, Note_on_c, 5, 76, 0
13, 100551, Note_on_c, 5, 72, 0
13, 100560, Note_on_c, 5, 76, 84
13, 100560, Note_on_c, 5, 72, 84
13, 100784, Note_on_c, 5, 76, 0
13, 100784, Note_on_c, 5, 72, 0
13, 100800, Note_on_c, 5, 67, 84
13, 100800, Note_on_c, 5, 74, 84
13, 100919, Note_on_c, 5, 67, 0
13, 100919, Note_on_c, 5, 74, 0
13, 100980, Note_on_c, 5, 72, 84
13, 100980, Note_on_c, 5, 76, 84
13, 101031, Note_on_c, 5, 72, 0
13, 101031, Note_on_c, 5, 76, 0
13, 101040, Note_on_c, 5, 72, 84
13, 101040, Note_on_c, 5, 76, 84
13, 101264, Note_on_c, 5, 72, 0
13, 101264, Note_on_c, 5, 76, 0
13, 101280, Note_on_c, 5, 74, 84
13, 101280, Note_on_c, 5, 67, 84
13, 101399, Note_on_c, 5, 74, 0
13, 101399, Note_on_c, 5, 67, 0
13, 101460, Note_on_c, 5, 76, 84
13, 101460, Note_on_c, 5, 72, 84
13, 101511, Note_on_c, 5, 76, 0
13, 101511, Note_on_c, 5, 72, 0
13, 101520, Note_on_c, 5, 72, 84
13, 101520, Note_on_c, 5, 76, 84
13, 101744, Note_on_c, 5, 72, 0
13, 101744, Note_on_c, 5, 76, 0
13, 101760, Note_on_c, 5, 67, 84
13, 101760, Note_on_c, 5, 74, 84
13, 101879, Note_on_c, 5, 67, 0
13, 101879, Note_on_c, 5, 74, 0
13, 107520, Note_on_c, 5, 74, 84
13, 107520, Note_on_c, 5, 67, 84
13, 109424, Note_on_c, 5, 74, 0
13, 109424, Note_on_c, 5, 67, 0
13, 109440, Note_on_c, 5, 67, 84
13, 109440, Note_on_c, 5, 74, 84
13, 109679, Note_on_c, 5, 67, 0
13, 109679, Note_on_c, 5, 74, 0
13, 111360, Note_on_c, 5, 72, 84
13, 111360, Note_on_c, 5, 76, 84
13, 113264, Note_on_c, 5, 72, 0
13, 113264, Note_on_c, 5, 76, 0
13, 113280, Note_on_c, 5, 72, 84
13, 113280, Note_on_c, 5, 60, 84
13, 114224, Note_on_c, 5, 72, 0
13, 114224, Note_on_c, 5, 60, 0
13, 114240, Note_on_c, 5, 60, 84
13, 114240, Note_on_c, 5, 72, 84
13, 115184, Note_on_c, 5, 60, 0
13, 115184, Note_on_c, 5, 72, 0
13, 115200, Note_on_c, 5, 74, 84
13, 116144, Note_on_c, 5, 74, 0
13, 116160, Note_on_c, 5, 74, 84
13, 117104, Note_on_c, 5, 74, 0
13, 117120, Note_on_c, 5, 74, 84
13, 118064, Note_on_c, 5, 74, 0
13, 118080, Note_on_c, 5, 74, 84
13, 119024, Note_on_c, 5, 74, 0
13, 119040, Note_on_c, 5, 74, 84
13, 119984, Note_on_c, 5, 74, 0
13, 120000, Note_on_c, 5, 74, 84
13, 120584, Note_on_c, 5, 74, 0
13, 120600, Note_on_c, 5, 74, 84
13, 120824, Note_on_c, 5, 74, 0
13, 120840, Note_on_c, 5, 74, 84
13, 121064, Note_on_c, 5, 74, 0
13, 121080, Note_on_c, 5, 74, 84
13, 121304, Note_on_c, 5, 74, 0
13, 121320, Note_on_c, 5, 74, 84
13, 121424, Note_on_c, 5, 74, 0
13, 121440, Note_on_c, 5, 74, 84
13, 121544, Note_on_c, 5, 74, 0
13, 121560, Note_on_c, 5, 74, 84
13, 121679, Note_on_c, 5, 74, 0
13, 121680, Note_on_c, 5, 76, 84
13, 121784, Note_on_c, 5, 76, 0
13, 121800, Note_on_c, 5, 76, 84
13, 121889, Note_on_c, 5, 76, 0
13, 121920, Note_on_c, 5, 74, 84
13, 122039, Note_on_c, 5, 74, 0
13, 123840, Note_on_c, 5, 55, 84
13, 123840, Note_on_c, 5, 67, 84
13, 124079, Note_on_c, 5, 55, 0
13, 124079, Note_on_c, 5, 67, 0
13, 124320, Note_on_c, 5, 55, 84
13, 124320, Note_on_c, 5, 67, 84
13, 124559, Note_on_c, 5, 55, 0
13, 124559, Note_on_c, 5, 67, 0
13, 124800, Note_on_c, 5, 67, 84
13, 124800, Note_on_c, 5, 55, 84
13, 125039, Note_on_c, 5, 67, 0
13, 125039, Note_on_c, 5, 55, 0
13, 127440, Note_on_c, 5, 74, 76
13, 127507, Note_on_c, 5, 74, 0
13, 127520, Note_on_c, 5, 74, 76
13, 127587, Note_on_c, 5, 74, 0
13, 127600, Note_on_c, 5, 74, 76
13, 127667, Note_on_c, 5, 74, 0
13, 127680, Note_on_c, 5, 67, 76
13, 127904, Note_on_c, 5, 67, 0
13, 127920, Note_on_c, 5, 67, 76
13, 127987, Note_on_c, 5, 67, 0
13, 128000, Note_on_c, 5, 67, 76
13, 128067, Note_on_c, 5, 67, 0
13, 128080, Note_on_c, 5, 67, 76
13, 128147, Note_on_c, 5, 67, 0
13, 128160, Note_on_c, 5, 67, 76
13, 128384, Note_on_c, 5, 67, 0
13, 128400, Note_on_c, 5, 67, 76
13, 128467, Note_on_c, 5, 67, 0
13, 128480, Note_on_c, 5, 67, 76
13, 128547, Note_on_c, 5, 67, 0
13, 128560, Note_on_c, 5, 67, 76
13, 128627, Note_on_c, 5, 67, 0
13, 128640, Note_on_c, 5, 67, 76
13, 128864, Note_on_c, 5, 67, 0
13, 128880, Note_on_c, 5, 67, 76
13, 128947, Note_on_c, 5, 67, 0
13, 128960, Note_on_c, 5, 67, 76
13, 129027, Note_on_c, 5, 67, 0
13, 129040, Note_on_c, 5, 67, 76
13, 129107, Note_on_c, 5, 67, 0
13, 129120, Note_on_c, 5, 67, 76
13, 129359, Note_on_c, 5, 67, 0
13, 136320, Note_on_c, 5, 60, 84
13, 136320, Note_on_c, 5, 76, 84
13, 138464, Note_on_c, 5, 60, 0
13, 138464, Note_on_c, 5, 76, 0
13, 138480, Note_on_c, 5, 79, 84
13, 138480, Note_on_c, 5, 67, 84
13, 138704, Note_on_c, 5, 79, 0
13, 138704, Note_on_c, 5, 67, 0
13, 138720, Note_on_c, 5, 79, 84
13, 138720, Note_on_c, 5, 67, 84
13, 138944, Note_on_c, 5, 79, 0
13, 138944, Note_on_c, 5, 67, 0
13, 138960, Note_on_c, 5, 67, 84
13, 138960, Note_on_c, 5, 79, 84
13, 139184, Note_on_c, 5, 67, 0
13, 139184, Note_on_c, 5, 79, 0
13, 139200, Note_on_c, 5, 67, 84
13, 139200, Note_on_c, 5, 79, 84
13, 139424, Note_on_c, 5, 67, 0
13, 139424, Note_on_c, 5, 79, 0
13, 139440, Note_on_c, 5, 74, 84
13, 139664, Note_on_c, 5, 74, 0
13, 139680, Note_on_c, 5, 67, 84
13, 139680, Note_on_c, 5, 74, 84
13, 139904, Note_on_c, 5, 67, 0
13, 139904, Note_on_c, 5, 74, 0
13, 139920, Note_on_c, 5, 74, 84
13, 139920, Note_on_c, 5, 67, 84
13, 140144, Note_on_c, 5, 74, 0
13, 140144, Note_on_c, 5, 67, 0
13, 140160, Note_on_c, 5, 60, 84
13, 140160, Note_on_c, 5, 72, 84
13, 140339, Note_on_c, 5, 60, 0
13, 140339, Note_on_c, 5, 72, 0
13, 141120, Note_on_c, 5, 74, 84
13, 141299, Note_on_c, 5, 74, 0
13, 149760, Note_on_c, 5, 79, 76
13, 149760, Note_on_c, 5, 67, 76
13, 150464, Note_on_c, 5, 79, 0
13, 150464, Note_on_c, 5, 67, 0
13, 150480, Note_on_c, 5, 74, 76
13, 150704, Note_on_c, 5, 74, 0
13, 150720, Note_on_c, 5, 74, 76
13, 150944, Note_on_c, 5, 74, 0
13, 150960, Note_on_c, 5, 74, 76
13, 151184, Note_on_c, 5, 74, 0
13, 151200, Note_on_c, 5, 74, 76
13, 151424, Note_on_c, 5, 74, 0
13, 151440, Note_on_c, 5, 74, 76
13, 151664, Note_on_c, 5, 74, 0
13, 151680, Note_on_c, 5, 67, 84
13, 151680, Note_on_c, 5, 79, 84
13, 151800, Control_c, 5, 11, 112
13, 152384, Note_on_c, 5, 67, 0
13, 152384, Note_on_c, 5, 79, 0
13, 152400, Note_on_c, 5, 74, 84
13, 152624, Note_on_c, 5, 74, 0
13, 152640, Note_on_c, 5, 74, 84
13, 152864, Note_on_c, 5, 74, 0
13, 152880, Note_on_c, 5, 74, 84
13, 153104, Note_on_c, 5, 74, 0
13, 153120, Note_on_c, 5, 74, 84
13, 153344, Note_on_c, 5, 74, 0
13, 153360, Note_on_c, 5, 74, 84
13, 153584, Note_on_c, 5, 74, 0
13, 153598, Control_c, 5, 11, 127
13, 153600, Note_on_c, 5, 74, 84
13, 153720, Control_c, 5, 11, 112
13, 154304, Note_on_c, 5, 74, 0
13, 154320, Note_on_c, 5, 67, 84
13, 154544, Note_on_c, 5, 67, 0
13, 154558, Control_c, 5, 11, 127
13, 154560, Note_on_c, 5, 72, 76
13, 154560, Note_on_c, 5, 60, 76
13, 154784, Note_on_c, 5, 72, 0
13, 154784, Note_on_c, 5, 60, 0
13, 154800, Note_on_c, 5, 60, 80
13, 154800, Note_on_c, 5, 72, 80
13, 155024, Note_on_c, 5, 60, 0
13, 155024, Note_on_c, 5, 72, 0
13, 155040, Note_on_c, 5, 60, 80
13, 155040, Note_on_c, 5, 72, 80
13, 155264, Note_on_c, 5, 60, 0
13, 155264, Note_on_c, 5, 72, 0
13, 155280, Note_on_c, 5, 60, 80
13, 155280, Note_on_c, 5, 72, 80
13, 155504, Note_on_c, 5, 60, 0
13, 155504, Note_on_c, 5, 72, 0
13, 155520, Note_on_c, 5, 60, 80
13, 155520, Note_on_c, 5, 72, 80
13, 155744, Note_on_c, 5, 60, 0
13, 155744, Note_on_c, 5, 72, 0
13, 155760, Note_on_c, 5, 60, 80
13, 155760, Note_on_c, 5, 72, 80
13, 155984, Note_on_c, 5, 60, 0
13, 155984, Note_on_c, 5, 72, 0
13, 156000, Note_on_c, 5, 72, 80
13, 156000, Note_on_c, 5, 60, 80
13, 156224, Note_on_c, 5, 72, 0
13, 156224, Note_on_c, 5, 60, 0
13, 156240, Note_on_c, 5, 72, 80
13, 156240, Note_on_c, 5, 60, 80
13, 156464, Note_on_c, 5, 72, 0
13, 156464, Note_on_c, 5, 60, 0
13, 156480, Note_on_c, 5, 60, 80
13, 156480, Note_on_c, 5, 72, 80
13, 156704, Note_on_c, 5, 60, 0
13, 156704, Note_on_c, 5, 72, 0
13, 156720, Note_on_c, 5, 60, 80
13, 156720, Note_on_c, 5, 72, 80
13, 156944, Note_on_c, 5, 60, 0
13, 156944, Note_on_c, 5, 72, 0
13, 156960, Note_on_c, 5, 72, 80
13, 156960, Note_on_c, 5, 60, 80
13, 157184, Note_on_c, 5, 72, 0
13, 157184, Note_on_c, 5, 60, 0
13, 157200, Note_on_c, 5, 72, 80
13, 157200, Note_on_c, 5, 60, 80
13, 157424, Note_on_c, 5, 72, 0
13, 157424, Note_on_c, 5, 60, 0
13, 157440, Note_on_c, 5, 60, 84
13, 157440, Note_on_c, 5, 72, 84
13, 159344, Note_on_c, 5, 60, 0
13, 159344, Note_on_c, 5, 72, 0
13, 159360, Note_on_c, 5, 67, 84
13, 159360, Note_on_c, 5, 55, 84
13, 159599, Note_on_c, 5, 67, 0
13, 159599, Note_on_c, 5, 55, 0
13, 160080, Note_on_c, 5, 67, 84
13, 160080, Note_on_c, 5, 55, 84
13, 160304, Note_on_c, 5, 67, 0
13, 160304, Note_on_c, 5, 55, 0
13, 160320, Note_on_c, 5, 67, 84
13, 160320, Note_on_c, 5, 55, 84
13, 160559, Note_on_c, 5, 67, 0
13, 160559, Note_on_c, 5, 55, 0
13, 161040, Note_on_c, 5, 67, 84
13, 161040, Note_on_c, 5, 55, 84
13, 161144, Note_on_c, 5, 67, 0
13, 161144, Note_on_c, 5, 55, 0
13, 161160, Note_on_c, 5, 67, 84
13, 161160, Note_on_c, 5, 55, 84
13, 161264, Note_on_c, 5, 67, 0
13, 161264, Note_on_c, 5, 55, 0
13, 161280, Note_on_c, 5, 67, 84
13, 161280, Note_on_c, 5, 55, 84
13, 161504, Note_on_c, 5, 67, 0
13, 161504, Note_on_c, 5, 55, 0
13, 161520, Note_on_c, 5, 67, 84
13, 161520, Note_on_c, 5, 55, 84
13, 161624, Note_on_c, 5, 67, 0
13, 161624, Note_on_c, 5, 55, 0
13, 161640, Note_on_c, 5, 67, 84
13, 161640, Note_on_c, 5, 55, 84
13, 161744, Note_on_c, 5, 67, 0
13, 161744, Note_on_c, 5, 55, 0
13, 161760, Note_on_c, 5, 67, 84
13, 161760, Note_on_c, 5, 55, 84
13, 161984, Note_on_c, 5, 67, 0
13, 161984, Note_on_c, 5, 55, 0
13, 162000, Note_on_c, 5, 67, 84
13, 162000, Note_on_c, 5, 55, 84
13, 162104, Note_on_c, 5, 67, 0
13, 162104, Note_on_c, 5, 55, 0
13, 162120, Note_on_c, 5, 55, 84
13, 162120, Note_on_c, 5, 67, 84
13, 162224, Note_on_c, 5, 55, 0
13, 162224, Note_on_c, 5, 67, 0
13, 162240, Note_on_c, 5, 67, 84
13, 162240, Note_on_c, 5, 74, 84
13, 162344, Note_on_c, 5, 67, 0
13, 162344, Note_on_c, 5, 74, 0
13, 162360, Note_on_c, 5, 67, 84
13, 162360, Note_on_c, 5, 74, 84
13, 162464, Note_on_c, 5, 67, 0
13, 162464, Note_on_c, 5, 74, 0
13, 162480, Note_on_c, 5, 74, 84
13, 162480, Note_on_c, 5, 67, 84
13, 163184, Note_on_c, 5, 74, 0
13, 163184, Note_on_c, 5, 67, 0
13, 163200, Note_on_c, 5, 64, 84
13, 163200, Note_on_c, 5, 76, 84
13, 167024, Note_on_c, 5, 64, 0
13, 167024, Note_on_c, 5, 76, 0
13, 167040, Note_on_c, 5, 64, 84
13, 167040, Note_on_c, 5, 76, 84
13, 167279, Note_on_c, 5, 64, 0
13, 167279, Note_on_c, 5, 76, 0
13, 190080, Note_on_c, 5, 72, 76
13, 190080, Note_on_c, 5, 60, 76
13, 191759, Note_on_c, 5, 72, 0
13, 191759, Note_on_c, 5, 60, 0
13, 192960, Note_on_c, 5, 77, 76
13, 194639, Note_on_c, 5, 77, 0
13, 195600, Note_on_c, 5, 77, 76
13, 195824, Note_on_c, 5, 77, 0
13, 195840, Note_on_c, 5, 76, 76
13, 196304, Note_on_c, 5, 76, 0
13, 196320, Note_on_c, 5, 77, 76
13, 196784, Note_on_c, 5, 77, 0
13, 196800, Note_on_c, 5, 79, 76
13, 197504, Note_on_c, 5, 79, 0
13, 197520, Note_on_c, 5, 72, 76
13, 197520, Note_on_c, 5, 60, 76
13, 197759, Note_on_c, 5, 72, 0
13, 197759, Note_on_c, 5, 60, 0
13, 198000, Note_on_c, 5, 72, 76
13, 198000, Note_on_c, 5, 60, 76
13, 198067, Note_on_c, 5, 72, 0
13, 198067, Note_on_c, 5, 60, 0
13, 198080, Note_on_c, 5, 60, 76
13, 198080, Note_on_c, 5, 72, 76
13, 198147, Note_on_c, 5, 60, 0
13, 198147, Note_on_c, 5, 72, 0
13, 198160, Note_on_c, 5, 60, 76
13, 198160, Note_on_c, 5, 72, 76
13, 198227, Note_on_c, 5, 60, 0
13, 198227, Note_on_c, 5, 72, 0
13, 198240, Note_on_c, 5, 72, 76
13, 198240, Note_on_c, 5, 60, 76
13, 198479, Note_on_c, 5, 72, 0
13, 198479, Note_on_c, 5, 60, 0
13, 198960, Note_on_c, 5, 72, 80
13, 198960, Note_on_c, 5, 60, 80
13, 199027, Note_on_c, 5, 72, 0
13, 199027, Note_on_c, 5, 60, 0
13, 199040, Note_on_c, 5, 72, 80
13, 199040, Note_on_c, 5, 60, 80
13, 199107, Note_on_c, 5, 72, 0
13, 199107, Note_on_c, 5, 60, 0
13, 199120, Note_on_c, 5, 60, 80
13, 199120, Note_on_c, 5, 72, 80
13, 199187, Note_on_c, 5, 60, 0
13, 199187, Note_on_c, 5, 72, 0
13, 199200, Note_on_c, 5, 60, 80
13, 199200, Note_on_c, 5, 72, 80
13, 199439, Note_on_c, 5, 60, 0
13, 199439, Note_on_c, 5, 72, 0
13, 199920, Note_on_c, 5, 67, 80
13, 199920, Note_on_c, 5, 55, 80
13, 199987, Note_on_c, 5, 67, 0
13, 199987, Note_on_c, 5, 55, 0
13, 200000, Note_on_c, 5, 55, 80
13, 200000, Note_on_c, 5, 67, 80
13, 200067, Note_on_c, 5, 55, 0
13, 200067, Note_on_c, 5, 67, 0
13, 200080, Note_on_c, 5, 55, 80
13, 200080, Note_on_c, 5, 67, 80
13, 200147, Note_on_c, 5, 55, 0
13, 200147, Note_on_c, 5, 67, 0
13, 200160, Note_on_c, 5, 55, 80
13, 200160, Note_on_c, 5, 67, 80
13, 200399, Note_on_c, 5, 55, 0
13, 200399, Note_on_c, 5, 67, 0
13, 200880, Note_on_c, 5, 60, 80
13, 200880, Note_on_c, 5, 72, 80
13, 200947, Note_on_c, 5, 60, 0
13, 200947, Note_on_c, 5, 72, 0
13, 200960, Note_on_c, 5, 72, 80
13, 200960, Note_on_c, 5, 60, 80
13, 201027, Note_on_c, 5, 72, 0
13, 201027, Note_on_c, 5, 60, 0
13, 201040, Note_on_c, 5, 60, 80
13, 201040, Note_on_c, 5, 72, 80
13, 201107, Note_on_c, 5, 60, 0
13, 201107, Note_on_c, 5, 72, 0
13, 201120, Note_on_c, 5, 60, 80
13, 201120, Note_on_c, 5, 72, 80
13, 201359, Note_on_c, 5, 60, 0
13, 201359, Note_on_c, 5, 72, 0
13, 201840, Note_on_c, 5, 67, 80
13, 201840, Note_on_c, 5, 74, 80
13, 201907, Note_on_c, 5, 67, 0
13, 201907, Note_on_c, 5, 74, 0
13, 201920, Note_on_c, 5, 67, 80
13, 201920, Note_on_c, 5, 74, 80
13, 201987, Note_on_c, 5, 67, 0
13, 201987, Note_on_c, 5, 74, 0
13, 202000, Note_on_c, 5, 67, 80
13, 202000, Note_on_c, 5, 74, 80
13, 202067, Note_on_c, 5, 67, 0
13, 202067, Note_on_c, 5, 74, 0
13, 202080, Note_on_c, 5, 67, 80
13, 202080, Note_on_c, 5, 74, 80
13, 202319, Note_on_c, 5, 67, 0
13, 202319, Note_on_c, 5, 74, 0
13, 202800, Note_on_c, 5, 72, 80
13, 202800, Note_on_c, 5, 60, 80
13, 202867, Note_on_c, 5, 72, 0
13, 202867, Note_on_c, 5, 60, 0
13, 202880, Note_on_c, 5, 60, 80
13, 202880, Note_on_c, 5, 72, 80
13, 202947, Note_on_c, 5, 60, 0
13, 202947, Note_on_c, 5, 72, 0
13, 202960, Note_on_c, 5, 72, 80
13, 202960, Note_on_c, 5, 60, 80
13, 203027, Note_on_c, 5, 72, 0
13, 203027, Note_on_c, 5, 60, 0
13, 203040, Note_on_c, 5, 60, 80
13, 203040, Note_on_c, 5, 72, 80
13, 203279, Note_on_c, 5, 60, 0
13, 203279, Note_on_c, 5, 72, 0
13, 203760, Note_on_c, 5, 74, 80
13, 203827, Note_on_c, 5, 74, 0
13, 203840, Note_on_c, 5, 74, 80
13, 203907, Note_on_c, 5, 74, 0
13, 203920, Note_on_c, 5, 74, 80
13, 203987, Note_on_c, 5, 74, 0
13, 204000, Note_on_c, 5, 74, 80
13, 204239, Note_on_c, 5, 74, 0
13, 204720, Note_on_c, 5, 55, 80
13, 204720, Note_on_c, 5, 67, 80
13, 204787, Note_on_c, 5, 55, 0
13, 204787, Note_on_c, 5, 67, 0
13, 204800, Note_on_c, 5, 67, 80
13, 204800, Note_on_c, 5, 55, 80
13, 204867, Note_on_c, 5, 67, 0
13, 204867, Note_on_c, 5, 55, 0
13, 204880, Note_on_c, 5, 55, 80
13, 204880, Note_on_c, 5, 67, 80
13, 204947, Note_on_c, 5, 55, 0
13, 204947, Note_on_c, 5, 67, 0
13, 204960, Note_on_c, 5, 55, 80
13, 204960, Note_on_c, 5, 67, 80
13, 205199, Note_on_c, 5, 55, 0
13, 205199, Note_on_c, 5, 67, 0
13, 205680, Note_on_c, 5, 74, 80
13, 205747, Note_on_c, 5, 74, 0
13, 205760, Note_on_c, 5, 74, 80
13, 205827, Note_on_c, 5, 74, 0
13, 205840, Note_on_c, 5, 74, 80
13, 205919, Note_on_c, 5, 74, 0
13, 206160, Note_on_c, 5, 74, 80
13, 206227, Note_on_c, 5, 74, 0
13, 206240, Note_on_c, 5, 74, 80
13, 206307, Note_on_c, 5, 74, 0
13, 206320, Note_on_c, 5, 74, 80
13, 206399, Note_on_c, 5, 74, 0
13, 206640, Note_on_c, 5, 74, 80
13, 206707, Note_on_c, 5, 74, 0
13, 206720, Note_on_c, 5, 74, 80
13, 206787, Note_on_c, 5, 74, 0
13, 206800, Note_on_c, 5, 74, 80
13, 206879, Note_on_c, 5, 74, 0
13, 207120, Note_on_c, 5, 74, 80
13, 207187, Note_on_c, 5, 74, 0
13, 207200, Note_on_c, 5, 74, 80
13, 207267, Note_on_c, 5, 74, 0
13, 207280, Note_on_c, 5, 74, 80
13, 207347, Note_on_c, 5, 74, 0
13, 207360, Note_on_c, 5, 55, 84
13, 207360, Note_on_c, 5, 67, 84
13, 207599, Note_on_c, 5, 55, 0
13, 207599, Note_on_c, 5, 67, 0
13, 209280, Note_on_c, 5, 67, 84
13, 209280, Note_on_c, 5, 55, 84
13, 209519, Note_on_c, 5, 67, 0
13, 209519, Note_on_c, 5, 55, 0
13, 211200, Note_on_c, 5, 67, 84
13, 211200, Note_on_c, 5, 55, 84
13, 211439, Note_on_c, 5, 67, 0
13, 211439, Note_on_c, 5, 55, 0
13, 211920, Note_on_c, 5, 60, 84
13, 211920, Note_on_c, 5, 76, 84
13, 212144, Note_on_c, 5, 60, 0
13, 212144, Note_on_c, 5, 76, 0
13, 212160, Note_on_c, 5, 74, 84
13, 212160, Note_on_c, 5, 55, 84
13, 212624, Note_on_c, 5, 74, 0
13, 212624, Note_on_c, 5, 55, 0
13, 212640, Note_on_c, 5, 76, 84
13, 212640, Note_on_c, 5, 60, 84
13, 213104, Note_on_c, 5, 76, 0
13, 213104, Note_on_c, 5, 60, 0
13, 213120, Note_on_c, 5, 77, 84
13, 213120, Note_on_c, 5, 55, 84
13, 213824, Note_on_c, 5, 77, 0
13, 213824, Note_on_c, 5, 55, 0
13, 213840, Note_on_c, 5, 77, 84
13, 213840, Note_on_c, 5, 55, 84
13, 214064, Note_on_c, 5, 77, 0
13, 214064, Note_on_c, 5, 55, 0
13, 214080, Note_on_c, 5, 60, 84
13, 214080, Note_on_c, 5, 76, 84
13, 214544, Note_on_c, 5, 60, 0
13, 214544, Note_on_c, 5, 76, 0
13, 214560, Note_on_c, 5, 55, 84
13, 214560, Note_on_c, 5, 77, 84
13, 215024, Note_on_c, 5, 55, 0
13, 215024, Note_on_c, 5, 77, 0
13, 215040, Note_on_c, 5, 79, 92
13, 215040, Note_on_c, 5, 55, 92
13, 215160, Control_c, 5, 11, 112
13, 215984, Note_on_c, 5, 79, 0
13, 215984, Note_on_c, 5, 55, 0
13, 215998, Control_c, 5, 11, 127
13, 216000, Note_on_c, 5, 60, 92
13, 216000, Note_on_c, 5, 72, 92
13, 216120, Control_c, 5, 11, 112
13, 216944, Note_on_c, 5, 60, 0
13, 216944, Note_on_c, 5, 72, 0
13, 216958, Control_c, 5, 11, 127
13, 216960, Note_on_c, 5, 72, 84
13, 216960, Note_on_c, 5, 60, 84
13, 218864, Note_on_c, 5, 72, 0
13, 218864, Note_on_c, 5, 60, 0
13, 218880, Note_on_c, 5, 67, 84
13, 218880, Note_on_c, 5, 79, 84
13, 219824, Note_on_c, 5, 67, 0
13, 219824, Note_on_c, 5, 79, 0
13, 219840, Note_on_c, 5, 67, 84
13, 219840, Note_on_c, 5, 79, 84
13, 220784, Note_on_c, 5, 67, 0
13, 220784, Note_on_c, 5, 79, 0
13, 220800, Note_on_c, 5, 79, 84
13, 220800, Note_on_c, 5, 67, 84
13, 221024, Note_on_c, 5, 79, 0
13, 221024, Note_on_c, 5, 67, 0
13, 221040, Note_on_c, 5, 67, 84
13, 221040, Note_on_c, 5, 79, 84
13, 221144, Note_on_c, 5, 67, 0
13, 221144, Note_on_c, 5, 79, 0
13, 221160, Note_on_c, 5, 79, 84
13, 221160, Note_on_c, 5, 67, 84
13, 221264, Note_on_c, 5, 79, 0
13, 221264, Note_on_c, 5, 67, 0
13, 221280, Note_on_c, 5, 79, 84
13, 221280, Note_on_c, 5, 67, 84
13, 221504, Note_on_c, 5, 79, 0
13, 221504, Note_on_c, 5, 67, 0
13, 221520, Note_on_c, 5, 79, 84
13, 221520, Note_on_c, 5, 67, 84
13, 221624, Note_on_c, 5, 79, 0
13, 221624, Note_on_c, 5, 67, 0
13, 221640, Note_on_c, 5, 67, 84
13, 221640, Note_on_c, 5, 79, 84
13, 221744, Note_on_c, 5, 67, 0
13, 221744, Note_on_c, 5, 79, 0
13, 221760, Note_on_c, 5, 67, 84
13, 221760, Note_on_c, 5, 79, 84
13, 221984, Note_on_c, 5, 67, 0
13, 221984, Note_on_c, 5, 79, 0
13, 222000, Note_on_c, 5, 67, 84
13, 222000, Note_on_c, 5, 79, 84
13, 222104, Note_on_c, 5, 67, 0
13, 222104, Note_on_c, 5, 79, 0
13, 222120, Note_on_c, 5, 67, 84
13, 222120, Note_on_c, 5, 79, 84
13, 222224, Note_on_c, 5, 67, 0
13, 222224, Note_on_c, 5, 79, 0
13, 222240, Note_on_c, 5, 79, 84
13, 222240, Note_on_c, 5, 67, 84
13, 222464, Note_on_c, 5, 79, 0
13, 222464, Note_on_c, 5, 67, 0
13, 222480, Note_on_c, 5, 79, 84
13, 222480, Note_on_c, 5, 67, 84
13, 222584, Note_on_c, 5, 79, 0
13, 222584, Note_on_c, 5, 67, 0
13, 222600, Note_on_c, 5, 67, 84
13, 222600, Note_on_c, 5, 79, 84
13, 222704, Note_on_c, 5, 67, 0
13, 222704, Note_on_c, 5, 79, 0
13, 222720, Note_on_c, 5, 79, 84
13, 222720, Note_on_c, 5, 67, 84
13, 222944, Note_on_c, 5, 79, 0
13, 222944, Note_on_c, 5, 67, 0
13, 222960, Note_on_c, 5, 79, 84
13, 222960, Note_on_c, 5, 67, 84
13, 223064, Note_on_c, 5, 79, 0
13, 223064, Note_on_c, 5, 67, 0
13, 223080, Note_on_c, 5, 67, 84
13, 223080, Note_on_c, 5, 79, 84
13, 223184, Note_on_c, 5, 67, 0
13, 223184, Note_on_c, 5, 79, 0
13, 223200, Note_on_c, 5, 67, 84
13, 223200, Note_on_c, 5, 79, 84
13, 223424, Note_on_c, 5, 67, 0
13, 223424, Note_on_c, 5, 79, 0
13, 223440, Note_on_c, 5, 79, 84
13, 223440, Note_on_c, 5, 67, 84
13, 223544, Note_on_c, 5, 79, 0
13, 223544, Note_on_c, 5, 67, 0
13, 223560, Note_on_c, 5, 79, 84
13, 223560, Note_on_c, 5, 67, 84
13, 223664, Note_on_c, 5, 79, 0
13, 223664, Note_on_c, 5, 67, 0
13, 223680, Note_on_c, 5, 67, 84
13, 223680, Note_on_c, 5, 79, 84
13, 223904, Note_on_c, 5, 67, 0
13, 223904, Note_on_c, 5, 79, 0
13, 223920, Note_on_c, 5, 67, 84
13, 223920, Note_on_c, 5, 79, 84
13, 224024, Note_on_c, 5, 67, 0
13, 224024, Note_on_c, 5, 79, 0
13, 224040, Note_on_c, 5, 79, 84
13, 224040, Note_on_c, 5, 67, 84
13, 224144, Note_on_c, 5, 79, 0
13, 224144, Note_on_c, 5, 67, 0
13, 224160, Note_on_c, 5, 79, 84
13, 224160, Note_on_c, 5, 67, 84
13, 224384, Note_on_c, 5, 79, 0
13, 224384, Note_on_c, 5, 67, 0
13, 224400, Note_on_c, 5, 67, 84
13, 224400, Note_on_c, 5, 79, 84
13, 224504, Note_on_c, 5, 67, 0
13, 224504, Note_on_c, 5, 79, 0
13, 224520, Note_on_c, 5, 79, 84
13, 224520, Note_on_c, 5, 67, 84
13, 224624, Note_on_c, 5, 79, 0
13, 224624, Note_on_c, 5, 67, 0
13, 224640, Note_on_c, 5, 79, 84
13, 224640, Note_on_c, 5, 67, 84
13, 227504, Note_on_c, 5, 79, 0
13, 227504, Note_on_c, 5, 67, 0
13, 227520, Note_on_c, 5, 67, 84
13, 227520, Note_on_c, 5, 79, 84
13, 227759, Note_on_c, 5, 67, 0
13, 227759, Note_on_c, 5, 79, 0
13, 266400, Note_on_c, 5, 72, 84
13, 266400, Note_on_c, 5, 64, 84
13, 266864, Note_on_c, 5, 72, 0
13, 266864, Note_on_c, 5, 64, 0
13, 266880, Note_on_c, 5, 76, 84
13, 266880, Note_on_c, 5, 72, 84
13, 267344, Note_on_c, 5, 76, 0
13, 267344, Note_on_c, 5, 72, 0
13, 267360, Note_on_c, 5, 76, 84
13, 267360, Note_on_c, 5, 79, 84
13, 268064, Note_on_c, 5, 76, 0
13, 268064, Note_on_c, 5, 79, 0
13, 268080, Note_on_c, 5, 74, 84
13, 268080, Note_on_c, 5, 77, 84
13, 268199, Note_on_c, 5, 74, 0
13, 268199, Note_on_c, 5, 77, 0
13, 268320, Note_on_c, 5, 72, 84
13, 268320, Note_on_c, 5, 76, 84
13, 268439, Note_on_c, 5, 72, 0
13, 268439, Note_on_c, 5, 76, 0
13, 268560, Note_on_c, 5, 74, 84
13, 268560, Note_on_c, 5, 67, 84
13, 268679, Note_on_c, 5, 74, 0
13, 268679, Note_on_c, 5, 67, 0
13, 268800, Note_on_c, 5, 64, 84
13, 268800, Note_on_c, 5, 72, 84
13, 268919, Note_on_c, 5, 64, 0
13, 268919, Note_on_c, 5, 72, 0
13, 269040, Note_on_c, 5, 67, 84
13, 269040, Note_on_c, 5, 74, 84
13, 269159, Note_on_c, 5, 67, 0
13, 269159, Note_on_c, 5, 74, 0
13, 269280, Note_on_c, 5, 72, 84
13, 269280, Note_on_c, 5, 64, 84
13, 269984, Note_on_c, 5, 72, 0
13, 269984, Note_on_c, 5, 64, 0
13, 270000, Note_on_c, 5, 64, 84
13, 270000, Note_on_c, 5, 72, 84
13, 270171, Note_on_c, 5, 64, 0
13, 270171, Note_on_c, 5, 72, 0
13, 270180, Note_on_c, 5, 72, 84
13, 270180, Note_on_c, 5, 64, 84
13, 270231, Note_on_c, 5, 72, 0
13, 270231, Note_on_c, 5, 64, 0
13, 270240, Note_on_c, 5, 67, 84
13, 270240, Note_on_c, 5, 74, 84
13, 270944, Note_on_c, 5, 67, 0
13, 270944, Note_on_c, 5, 74, 0
13, 270960, Note_on_c, 5, 67, 84
13, 270960, Note_on_c, 5, 74, 84
13, 271131, Note_on_c, 5, 67, 0
13, 271131, Note_on_c, 5, 74, 0
13, 271140, Note_on_c, 5, 67, 84
13, 271140, Note_on_c, 5, 74, 84
13, 271191, Note_on_c, 5, 67, 0
13, 271191, Note_on_c, 5, 74, 0
13, 271200, Note_on_c, 5, 76, 84
13, 271200, Note_on_c, 5, 72, 84
13, 271784, Note_on_c, 5, 76, 0
13, 271784, Note_on_c, 5, 72, 0
13, 271800, Note_on_c, 5, 60, 84
13, 271800, Note_on_c, 5, 72, 84
13, 271904, Note_on_c, 5, 60, 0
13, 271904, Note_on_c, 5, 72, 0
13, 271920, Note_on_c, 5, 60, 84
13, 271920, Note_on_c, 5, 72, 84
13, 272024, Note_on_c, 5, 60, 0
13, 272024, Note_on_c, 5, 72, 0
13, 272040, Note_on_c, 5, 72, 84
13, 272040, Note_on_c, 5, 60, 84
13, 272144, Note_on_c, 5, 72, 0
13, 272144, Note_on_c, 5, 60, 0
13, 272160, Note_on_c, 5, 60, 84
13, 272160, Note_on_c, 5, 72, 84
13, 272384, Note_on_c, 5, 60, 0
13, 272384, Note_on_c, 5, 72, 0
13, 272400, Note_on_c, 5, 72, 84
13, 272400, Note_on_c, 5, 60, 84
13, 272504, Note_on_c, 5, 72, 0
13, 272504, Note_on_c, 5, 60, 0
13, 272520, Note_on_c, 5, 72, 84
13, 272520, Note_on_c, 5, 60, 84
13, 272624, Note_on_c, 5, 72, 0
13, 272624, Note_on_c, 5, 60, 0
13, 272640, Note_on_c, 5, 60, 84
13, 272640, Note_on_c, 5, 72, 84
13, 272864, Note_on_c, 5, 60, 0
13, 272864, Note_on_c, 5, 72, 0
13, 272880, Note_on_c, 5, 72, 84
13, 272880, Note_on_c, 5, 60, 84
13, 272984, Note_on_c, 5, 72, 0
13, 272984, Note_on_c, 5, 60, 0
13, 273000, Note_on_c, 5, 60, 84
13, 273000, Note_on_c, 5, 72, 84
13, 273104, Note_on_c, 5, 60, 0
13, 273104, Note_on_c, 5, 72, 0
13, 273120, Note_on_c, 5, 60, 84
13, 273120, Note_on_c, 5, 72, 84
13, 273704, Note_on_c, 5, 60, 0
13, 273704, Note_on_c, 5, 72, 0
13, 273720, Note_on_c, 5, 72, 84
13, 273720, Note_on_c, 5, 60, 84
13, 273824, Note_on_c, 5, 72, 0
13, 273824, Note_on_c, 5, 60, 0
13, 273840, Note_on_c, 5, 72, 84
13, 273840, Note_on_c, 5, 60, 84
13, 273944, Note_on_c, 5, 72, 0
13, 273944, Note_on_c, 5, 60, 0
13, 273960, Note_on_c, 5, 60, 84
13, 273960, Note_on_c, 5, 72, 84
13, 274064, Note_on_c, 5, 60, 0
13, 274064, Note_on_c, 5, 72, 0
13, 274080, Note_on_c, 5, 72, 84
13, 274080, Note_on_c, 5, 60, 84
13, 274304, Note_on_c, 5, 72, 0
13, 274304, Note_on_c, 5, 60, 0
13, 274320, Note_on_c, 5, 72, 84
13, 274320, Note_on_c, 5, 60, 84
13, 274424, Note_on_c, 5, 72, 0
13, 274424, Note_on_c, 5, 60, 0
13, 274440, Note_on_c, 5, 60, 84
13, 274440, Note_on_c, 5, 72, 84
13, 274544, Note_on_c, 5, 60, 0
13, 274544, Note_on_c, 5, 72, 0
13, 274560, Note_on_c, 5, 72, 84
13, 274560, Note_on_c, 5, 60, 84
13, 274784, Note_on_c, 5, 72, 0
13, 274784, Note_on_c, 5, 60, 0
13, 274800, Note_on_c, 5, 60, 84
13, 274800, Note_on_c, 5, 72, 84
13, 274904, Note_on_c, 5, 60, 0
13, 274904, Note_on_c, 5, 72, 0
13, 274920, Note_on_c, 5, 72, 84
13, 274920, Note_on_c, 5, 60, 84
13, 275024, Note_on_c, 5, 72, 0
13, 275024, Note_on_c, 5, 60, 0
13, 275040, Note_on_c, 5, 72, 84
13, 275040, Note_on_c, 5, 60, 84
13, 275624, Note_on_c, 5, 72, 0
13, 275624, Note_on_c, 5, 60, 0
13, 275640, Note_on_c, 5, 60, 84
13, 275640, Note_on_c, 5, 72, 84
13, 275744, Note_on_c, 5, 60, 0
13, 275744, Note_on_c, 5, 72, 0
13, 275760, Note_on_c, 5, 60, 84
13, 275760, Note_on_c, 5, 72, 84
13, 275864, Note_on_c, 5, 60, 0
13, 275864, Note_on_c, 5, 72, 0
13, 275880, Note_on_c, 5, 60, 84
13, 275880, Note_on_c, 5, 72, 84
13, 275984, Note_on_c, 5, 60, 0
13, 275984, Note_on_c, 5, 72, 0
13, 276000, Note_on_c, 5, 72, 84
13, 276000, Note_on_c, 5, 60, 84
13, 276224, Note_on_c, 5, 72, 0
13, 276224, Note_on_c, 5, 60, 0
13, 276240, Note_on_c, 5, 72, 84
13, 276240, Note_on_c, 5, 60, 84
13, 276344, Note_on_c, 5, 72, 0
13, 276344, Note_on_c, 5, 60, 0
13, 276360, Note_on_c, 5, 60, 84
13, 276360, Note_on_c, 5, 72, 84
13, 276464, Note_on_c, 5, 60, 0
13, 276464, Note_on_c, 5, 72, 0
13, 276480, Note_on_c, 5, 72, 84
13, 276480, Note_on_c, 5, 60, 84
13, 276704, Note_on_c, 5, 72, 0
13, 276704, Note_on_c, 5, 60, 0
13, 276720, Note_on_c, 5, 60, 84
13, 276720, Note_on_c, 5, 72, 84
13, 276824, Note_on_c, 5, 60, 0
13, 276824, Note_on_c, 5, 72, 0
13, 276840, Note_on_c, 5, 72, 84
13, 276840, Note_on_c, 5, 60, 84
13, 276944, Note_on_c, 5, 72, 0
13, 276944, Note_on_c, 5, 60, 0
13, 276960, Note_on_c, 5, 72, 84
13, 276960, Note_on_c, 5, 60, 84
13, 277664, Note_on_c, 5, 72, 0
13, 277664, Note_on_c, 5, 60, 0
13, 277680, Note_on_c, 5, 76, 84
13, 277680, Note_on_c, 5, 60, 84
13, 277851, Note_on_c, 5, 76, 0
13, 277851, Note_on_c, 5, 60, 0
13, 277860, Note_on_c, 5, 60, 84
13, 277860, Note_on_c, 5, 76, 84
13, 277911, Note_on_c, 5, 60, 0
13, 277911, Note_on_c, 5, 76, 0
13, 277920, Note_on_c, 5, 74, 84
13, 277920, Note_on_c, 5, 55, 84
13, 278144, Note_on_c, 5, 74, 0
13, 278144, Note_on_c, 5, 55, 0
13, 278160, Note_on_c, 5, 74, 84
13, 278160, Note_on_c, 5, 55, 84
13, 278331, Note_on_c, 5, 74, 0
13, 278331, Note_on_c, 5, 55, 0
13, 278340, Note_on_c, 5, 74, 84
13, 278340, Note_on_c, 5, 55, 84
13, 278391, Note_on_c, 5, 74, 0
13, 278391, Note_on_c, 5, 55, 0
13, 278400, Note_on_c, 5, 76, 84
13, 278400, Note_on_c, 5, 60, 84
13, 278624, Note_on_c, 5, 76, 0
13, 278624, Note_on_c, 5, 60, 0
13, 278640, Note_on_c, 5, 76, 84
13, 278640, Note_on_c, 5, 60, 84
13, 278811, Note_on_c, 5, 76, 0
13, 278811, Note_on_c, 5, 60, 0
13, 278820, Note_on_c, 5, 76, 84
13, 278820, Note_on_c, 5, 60, 84
13, 278871, Note_on_c, 5, 76, 0
13, 278871, Note_on_c, 5, 60, 0
13, 278880, Note_on_c, 5, 55, 84
13, 278880, Note_on_c, 5, 74, 84
13, 279104, Note_on_c, 5, 55, 0
13, 279104, Note_on_c, 5, 74, 0
13, 279120, Note_on_c, 5, 55, 84
13, 279120, Note_on_c, 5, 74, 84
13, 279584, Note_on_c, 5, 55, 0
13, 279584, Note_on_c, 5, 74, 0
13, 279600, Note_on_c, 5, 76, 84
13, 279600, Note_on_c, 5, 60, 84
13, 279771, Note_on_c, 5, 76, 0
13, 279771, Note_on_c, 5, 60, 0
13, 279780, Note_on_c, 5, 60, 84
13, 279780, Note_on_c, 5, 76, 84
13, 279831, Note_on_c, 5, 60, 0
13, 279831, Note_on_c, 5, 76, 0
13, 279840, Note_on_c, 5, 74, 84
13, 279840, Note_on_c, 5, 55, 84
13, 280064, Note_on_c, 5, 74, 0
13, 280064, Note_on_c, 5, 55, 0
13, 280080, Note_on_c, 5, 74, 84
13, 280080, Note_on_c, 5, 55, 84
13, 280251, Note_on_c, 5, 74, 0
13, 280251, Note_on_c, 5, 55, 0
13, 280260, Note_on_c, 5, 55, 84
13, 280260, Note_on_c, 5, 74, 84
13, 280311, Note_on_c, 5, 55, 0
13, 280311, Note_on_c, 5, 74, 0
13, 280320, Note_on_c, 5, 76, 84
13, 280320, Note_on_c, 5, 60, 84
13, 280544, Note_on_c, 5, 76, 0
13, 280544, Note_on_c, 5, 60, 0
13, 280560, Note_on_c, 5, 60, 84
13, 280560, Note_on_c, 5, 76, 84
13, 280731, Note_on_c, 5, 60, 0
13, 280731, Note_on_c, 5, 76, 0
13, 280740, Note_on_c, 5, 76, 84
13, 280740, Note_on_c, 5, 60, 84
13, 280791, Note_on_c, 5, 76, 0
13, 280791, Note_on_c, 5, 60, 0
13, 280800, Note_on_c, 5, 55, 84
13, 280800, Note_on_c, 5, 74, 84
13, 281024, Note_on_c, 5, 55, 0
13, 281024, Note_on_c, 5, 74, 0
13, 281040, Note_on_c, 5, 74, 84
13, 281040, Note_on_c, 5, 55, 84
13, 281504, Note_on_c, 5, 74, 0
13, 281504, Note_on_c, 5, 55, 0
13, 281520, Note_on_c, 5, 60, 84
13, 281520, Note_on_c, 5, 76, 84
13, 281691, Note_on_c, 5, 60, 0
13, 281691, Note_on_c, 5, 76, 0
13, 281700, Note_on_c, 5, 60, 84
13, 281700, Note_on_c, 5, 76, 84
13, 281751, Note_on_c, 5, 60, 0
13, 281751, Note_on_c, 5, 76, 0
13, 281760, Note_on_c, 5, 74, 84
13, 281760, Note_on_c, 5, 55, 84
13, 281931, Note_on_c, 5, 74, 0
13, 281931, Note_on_c, 5, 55, 0
13, 281940, Note_on_c, 5, 55, 84
13, 281940, Note_on_c, 5, 74, 84
13, 281991, Note_on_c, 5, 55, 0
13, 281991, Note_on_c, 5, 74, 0
13, 282000, Note_on_c, 5, 74, 84
13, 282000, Note_on_c, 5, 55, 84
13, 282171, Note_on_c, 5, 74, 0
13, 282171, Note_on_c, 5, 55, 0
13, 282180, Note_on_c, 5, 55, 84
13, 282180, Note_on_c, 5, 74, 84
13, 282231, Note_on_c, 5, 55, 0
13, 282231, Note_on_c, 5, 74, 0
13, 282240, Note_on_c, 5, 76, 84
13, 282240, Note_on_c, 5, 60, 84
13, 282411, Note_on_c, 5, 76, 0
13, 282411, Note_on_c, 5, 60, 0
13, 282420, Note_on_c, 5, 60, 84
13, 282420, Note_on_c, 5, 76, 84
13, 282471, Note_on_c, 5, 60, 0
13, 282471, Note_on_c, 5, 76, 0
13, 282480, Note_on_c, 5, 60, 84
13, 282480, Note_on_c, 5, 76, 84
13, 282651, Note_on_c, 5, 60, 0
13, 282651, Note_on_c, 5, 76, 0
13, 282660, Note_on_c, 5, 60, 84
13, 282660, Note_on_c, 5, 76, 84
13, 282711, Note_on_c, 5, 60, 0
13, 282711, Note_on_c, 5, 76, 0
13, 282720, Note_on_c, 5, 74, 84
13, 282720, Note_on_c, 5, 55, 84
13, 282944, Note_on_c, 5, 74, 0
13, 282944, Note_on_c, 5, 55, 0
13, 282960, Note_on_c, 5, 67, 84
13, 282960, Note_on_c, 5, 74, 84
13, 283184, Note_on_c, 5, 67, 0
13, 283184, Note_on_c, 5, 74, 0
13, 283200, Note_on_c, 5, 76, 84
13, 283200, Note_on_c, 5, 72, 84
13, 283424, Note_on_c, 5, 76, 0
13, 283424, Note_on_c, 5, 72, 0
13, 283440, Note_on_c, 5, 76, 84
13, 283440, Note_on_c, 5, 72, 84
13, 283664, Note_on_c, 5, 76, 0
13, 283664, Note_on_c, 5, 72, 0
13, 283680, Note_on_c, 5, 67, 84
13, 283680, Note_on_c, 5, 74, 84
13, 283904, Note_on_c, 5, 67, 0
13, 283904, Note_on_c, 5, 74, 0
13, 283920, Note_on_c, 5, 74, 84
13, 283920, Note_on_c, 5, 67, 84
13, 284144, Note_on_c, 5, 74, 0
13, 284144, Note_on_c, 5, 67, 0
13, 284160, Note_on_c, 5, 76, 84
13, 284160, Note_on_c, 5, 72, 84
13, 284384, Note_on_c, 5, 76, 0
13, 284384, Note_on_c, 5, 72, 0
13, 284400, Note_on_c, 5, 72, 84
13, 284400, Note_on_c, 5, 76, 84
13, 284624, Note_on_c, 5, 72, 0
13, 284624, Note_on_c, 5, 76, 0
13, 284640, Note_on_c, 5, 67, 84
13, 284640, Note_on_c, 5, 74, 84
13, 284759, Note_on_c, 5, 67, 0
13, 284759, Note_on_c, 5, 74, 0
13, 284820, Note_on_c, 5, 72, 84
13, 284820, Note_on_c, 5, 76, 84
13, 284871, Note_on_c, 5, 72, 0
13, 284871, Note_on_c, 5, 76, 0
13, 284880, Note_on_c, 5, 72, 84
13, 284880, Note_on_c, 5, 76, 84
13, 285104, Note_on_c, 5, 72, 0
13, 285104, Note_on_c, 5, 76, 0
13, 285120, Note_on_c, 5, 74, 84
13, 285120, Note_on_c, 5, 67, 84
13, 285239, Note_on_c, 5, 74, 0
13, 285239, Note_on_c, 5, 67, 0
13, 285300, Note_on_c, 5, 76, 84
13, 285300, Note_on_c, 5, 72, 84
13, 285351, Note_on_c, 5, 76, 0
13, 285351, Note_on_c, 5, 72, 0
13, 285360, Note_on_c, 5, 72, 84
13, 285360, Note_on_c, 5, 76, 84
13, 285584, Note_on_c, 5, 72, 0
13, 285584, Note_on_c, 5, 76, 0
13, 285600, Note_on_c, 5, 74, 84
13, 285600, Note_on_c, 5, 67, 84
13, 285719, Note_on_c, 5, 74, 0
13, 285719, Note_on_c, 5, 67, 0
13, 285780, Note_on_c, 5, 76, 84
13, 285780, Note_on_c, 5, 72, 84
13, 285831, Note_on_c, 5, 76, 0
13, 285831, Note_on_c, 5, 72, 0
13, 285840, Note_on_c, 5, 76, 84
13, 285840, Note_on_c, 5, 72, 84
13, 286064, Note_on_c, 5, 76, 0
13, 286064, Note_on_c, 5, 72, 0
13, 286080, Note_on_c, 5, 74, 84
13, 286080, Note_on_c, 5, 67, 84
13, 286199, Note_on_c, 5, 74, 0
13, 286199, Note_on_c, 5, 67, 0
13, 286260, Note_on_c, 5, 76, 84
13, 286260, Note_on_c, 5, 72, 84
13, 286311, Note_on_c, 5, 76, 0
13, 286311, Note_on_c, 5, 72, 0
13, 286320, Note_on_c, 5, 72, 84
13, 286320, Note_on_c, 5, 76, 84
13, 286544, Note_on_c, 5, 72, 0
13, 286544, Note_on_c, 5, 76, 0
13, 286560, Note_on_c, 5, 67, 84
13, 286560, Note_on_c, 5, 74, 84
13, 286679, Note_on_c, 5, 67, 0
13, 286679, Note_on_c, 5, 74, 0
13, 292320, Note_on_c, 5, 74, 84
13, 292320, Note_on_c, 5, 67, 84
13, 294224, Note_on_c, 5, 74, 0
13, 294224, Note_on_c, 5, 67, 0
13, 294240, Note_on_c, 5, 74, 84
13, 294240, Note_on_c, 5, 67, 84
13, 294479, Note_on_c, 5, 74, 0
13, 294479, Note_on_c, 5, 67, 0
13, 296160, Note_on_c, 5, 76, 84
13, 296160, Note_on_c, 5, 60, 84
13, 298064, Note_on_c, 5, 76, 0
13, 298064, Note_on_c, 5, 60, 0
13, 298080, Note_on_c, 5, 60, 84
13, 298080, Note_on_c, 5, 72, 84
13, 298319, Note_on_c, 5, 60, 0
13, 298319, Note_on_c, 5, 72, 0
13, 299040, Note_on_c, 5, 72, 84
13, 299040, Note_on_c, 5, 60, 84
13, 299279, Note_on_c, 5, 72, 0
13, 299279, Note_on_c, 5, 60, 0
13, 300000, Note_on_c, 5, 72, 84
13, 300000, Note_on_c, 5, 60, 84
13, 300239, Note_on_c, 5, 72, 0
13, 300239, Note_on_c, 5, 60, 0
13, 300960, Note_on_c, 5, 60, 84
13, 300960, Note_on_c, 5, 72, 84
13, 301199, Note_on_c, 5, 60, 0
13, 301199, Note_on_c, 5, 72, 0
13, 301920, Note_on_c, 5, 67, 84
13, 301920, Note_on_c, 5, 79, 84
13, 303839, Note_on_c, 5, 67, 0
13, 303839, Note_on_c, 5, 79, 0
13, 303840, Note_on_c, 5, 79, 84
13, 303840, Note_on_c, 5, 67, 84
13, 305744, Note_on_c, 5, 79, 0
13, 305744, Note_on_c, 5, 67, 0
13, 305760, Note_on_c, 5, 67, 84
13, 305760, Note_on_c, 5, 79, 84
13, 306704, Note_on_c, 5, 67, 0
13, 306704, Note_on_c, 5, 79, 0
13, 306720, Note_on_c, 5, 67, 84
13, 306720, Note_on_c, 5, 79, 84
13, 307664, Note_on_c, 5, 67, 0
13, 307664, Note_on_c, 5, 79, 0
13, 307680, Note_on_c, 5, 79, 84
13, 307680, Note_on_c, 5, 67, 84
13, 308264, Note_on_c, 5, 79, 0
13, 308264, Note_on_c, 5, 67, 0
13, 308280, Note_on_c, 5, 67, 84
13, 308280, Note_on_c, 5, 79, 84
13, 308504, Note_on_c, 5, 67, 0
13, 308504, Note_on_c, 5, 79, 0
13, 308520, Note_on_c, 5, 79, 84
13, 308520, Note_on_c, 5, 67, 84
13, 308624, Note_on_c, 5, 79, 0
13, 308624, Note_on_c, 5, 67, 0
13, 308640, Note_on_c, 5, 79, 84
13, 308640, Note_on_c, 5, 67, 84
13, 308744, Note_on_c, 5, 79, 0
13, 308744, Note_on_c, 5, 67, 0
13, 308760, Note_on_c, 5, 67, 84
13, 308760, Note_on_c, 5, 79, 84
13, 308984, Note_on_c, 5, 67, 0
13, 308984, Note_on_c, 5, 79, 0
13, 309000, Note_on_c, 5, 79, 84
13, 309000, Note_on_c, 5, 67, 84
13, 309104, Note_on_c, 5, 79, 0
13, 309104, Note_on_c, 5, 67, 0
13, 309120, Note_on_c, 5, 79, 84
13, 309120, Note_on_c, 5, 67, 84
13, 309224, Note_on_c, 5, 79, 0
13, 309224, Note_on_c, 5, 67, 0
13, 309240, Note_on_c, 5, 74, 84
13, 309464, Note_on_c, 5, 74, 0
13, 309480, Note_on_c, 5, 74, 84
13, 309584, Note_on_c, 5, 74, 0
13, 309600, Note_on_c, 5, 74, 84
13, 309600, Note_on_c, 5, 67, 84
13, 309839, Note_on_c, 5, 74, 0
13, 309839, Note_on_c, 5, 67, 0
13, 311520, Note_on_c, 5, 72, 84
13, 311520, Note_on_c, 5, 60, 84
13, 311759, Note_on_c, 5, 72, 0
13, 311759, Note_on_c, 5, 60, 0
13, 312000, Note_on_c, 5, 60, 84
13, 312000, Note_on_c, 5, 72, 84
13, 312239, Note_on_c, 5, 60, 0
13, 312239, Note_on_c, 5, 72, 0
13, 312480, Note_on_c, 5, 60, 84
13, 312480, Note_on_c, 5, 72, 84
13, 313199, Note_on_c, 5, 60, 0
13, 313199, Note_on_c, 5, 72, 0
13, 315120, Note_on_c, 5, 67, 76
13, 315120, Note_on_c, 5, 55, 76
13, 315187, Note_on_c, 5, 67, 0
13, 315187, Note_on_c, 5, 55, 0
13, 315200, Note_on_c, 5, 55, 76
13, 315200, Note_on_c, 5, 67, 76
13, 315267, Note_on_c, 5, 55, 0
13, 315267, Note_on_c, 5, 67, 0
13, 315280, Note_on_c, 5, 67, 76
13, 315280, Note_on_c, 5, 55, 76
13, 315347, Note_on_c, 5, 67, 0
13, 315347, Note_on_c, 5, 55, 0
13, 315360, Note_on_c, 5, 60, 76
13, 315360, Note_on_c, 5, 72, 76
13, 315584, Note_on_c, 5, 60, 0
13, 315584, Note_on_c, 5, 72, 0
13, 315600, Note_on_c, 5, 72, 76
13, 315600, Note_on_c, 5, 60, 76
13, 315667, Note_on_c, 5, 72, 0
13, 315667, Note_on_c, 5, 60, 0
13, 315680, Note_on_c, 5, 60, 76
13, 315680, Note_on_c, 5, 72, 76
13, 315747, Note_on_c, 5, 60, 0
13, 315747, Note_on_c, 5, 72, 0
13, 315760, Note_on_c, 5, 60, 76
13, 315760, Note_on_c, 5, 72, 76
13, 315827, Note_on_c, 5, 60, 0
13, 315827, Note_on_c, 5, 72, 0
13, 315840, Note_on_c, 5, 72, 76
13, 315840, Note_on_c, 5, 60, 76
13, 316064, Note_on_c, 5, 72, 0
13, 316064, Note_on_c, 5, 60, 0
13, 316080, Note_on_c, 5, 72, 76
13, 316080, Note_on_c, 5, 60, 76
13, 316147, Note_on_c, 5, 72, 0
13, 316147, Note_on_c, 5, 60, 0
13, 316160, Note_on_c, 5, 72, 76
13, 316160, Note_on_c, 5, 60, 76
13, 316227, Note_on_c, 5, 72, 0
13, 316227, Note_on_c, 5, 60, 0
13, 316240, Note_on_c, 5, 60, 76
13, 316240, Note_on_c, 5, 72, 76
13, 316307, Note_on_c, 5, 60, 0
13, 316307, Note_on_c, 5, 72, 0
13, 316320, Note_on_c, 5, 60, 76
13, 316320, Note_on_c, 5, 72, 76
13, 317039, Note_on_c, 5, 60, 0
13, 317039, Note_on_c, 5, 72, 0
13, 318480, Note_on_c, 5, 67, 76
13, 318480, Note_on_c, 5, 55, 76
13, 318547, Note_on_c, 5, 67, 0
13, 318547, Note_on_c, 5, 55, 0
13, 318560, Note_on_c, 5, 55, 76
13, 318560, Note_on_c, 5, 67, 76
13, 318627, Note_on_c, 5, 55, 0
13, 318627, Note_on_c, 5, 67, 0
13, 318640, Note_on_c, 5, 67, 76
13, 318640, Note_on_c, 5, 55, 76
13, 318707, Note_on_c, 5, 67, 0
13, 318707, Note_on_c, 5, 55, 0
13, 318720, Note_on_c, 5, 60, 76
13, 318720, Note_on_c, 5, 72, 76
13, 318959, Note_on_c, 5, 60, 0
13, 318959, Note_on_c, 5, 72, 0
13, 324000, Note_on_c, 5, 72, 84
13, 324000, Note_on_c, 5, 60, 84
13, 324479, Note_on_c, 5, 72, 0
13, 324479, Note_on_c, 5, 60, 0
13, 324480, Note_on_c, 5, 72, 84
13, 324480, Note_on_c, 5, 60, 84
13, 324584, Note_on_c, 5, 72, 0
13, 324584, Note_on_c, 5, 60, 0
13, 324600, Note_on_c, 5, 60, 84
13, 324600, Note_on_c, 5, 72, 84
13, 324704, Note_on_c, 5, 60, 0
13, 324704, Note_on_c, 5, 72, 0
13, 324720, Note_on_c, 5, 72, 84
13, 324720, Note_on_c, 5, 60, 84
13, 324824, Note_on_c, 5, 72, 0
13, 324824, Note_on_c, 5, 60, 0
13, 324840, Note_on_c, 5, 72, 84
13, 324840, Note_on_c, 5, 60, 84
13, 324944, Note_on_c, 5, 72, 0
13, 324944, Note_on_c, 5, 60, 0
13, 324960, Note_on_c, 5, 72, 84
13, 324960, Note_on_c, 5, 60, 84
13, 325064, Note_on_c, 5, 72, 0
13, 325064, Note_on_c, 5, 60, 0
13, 325080, Note_on_c, 5, 72, 84
13, 325080, Note_on_c, 5, 60, 84
13, 325184, Note_on_c, 5, 72, 0
13, 325184, Note_on_c, 5, 60, 0
13, 325200, Note_on_c, 5, 72, 84
13, 325200, Note_on_c, 5, 60, 84
13, 325304, Note_on_c, 5, 72, 0
13, 325304, Note_on_c, 5, 60, 0
13, 325320, Note_on_c, 5, 72, 84
13, 325320, Note_on_c, 5, 60, 84
13, 325424, Note_on_c, 5, 72, 0
13, 325424, Note_on_c, 5, 60, 0
13, 325440, Note_on_c, 5, 60, 84
13, 325440, Note_on_c, 5, 72, 84
13, 325544, Note_on_c, 5, 60, 0
13, 325544, Note_on_c, 5, 72, 0
13, 325560, Note_on_c, 5, 72, 84
13, 325560, Note_on_c, 5, 60, 84
13, 325664, Note_on_c, 5, 72, 0
13, 325664, Note_on_c, 5, 60, 0
13, 325680, Note_on_c, 5, 72, 84
13, 325680, Note_on_c, 5, 60, 84
13, 325784, Note_on_c, 5, 72, 0
13, 325784, Note_on_c, 5, 60, 0
13, 325800, Note_on_c, 5, 60, 84
13, 325800, Note_on_c, 5, 72, 84
13, 325904, Note_on_c, 5, 60, 0
13, 325904, Note_on_c, 5, 72, 0
13, 325920, Note_on_c, 5, 60, 84
13, 325920, Note_on_c, 5, 72, 84
13, 326144, Note_on_c, 5, 60, 0
13, 326144, Note_on_c, 5, 72, 0
13, 326160, Note_on_c, 5, 72, 84
13, 326160, Note_on_c, 5, 60, 84
13, 326384, Note_on_c, 5, 72, 0
13, 326384, Note_on_c, 5, 60, 0
13, 326400, Note_on_c, 5, 60, 84
13, 326400, Note_on_c, 5, 72, 84
13, 326624, Note_on_c, 5, 60, 0
13, 326624, Note_on_c, 5, 72, 0
13, 326640, Note_on_c, 5, 72, 84
13, 326640, Note_on_c, 5, 60, 84
13, 326864, Note_on_c, 5, 72, 0
13, 326864, Note_on_c, 5, 60, 0
13, 326880, Note_on_c, 5, 72, 84
13, 326880, Note_on_c, 5, 60, 84
13, 327104, Note_on_c, 5, 72, 0
13, 327104, Note_on_c, 5, 60, 0
13, 327120, Note_on_c, 5, 60, 84
13, 327120, Note_on_c, 5, 72, 84
13, 327344, Note_on_c, 5, 60, 0
13, 327344, Note_on_c, 5, 72, 0
13, 327360, Note_on_c, 5, 72, 84
13, 327360, Note_on_c, 5, 60, 84
13, 327464, Note_on_c, 5, 72, 0
13, 327464, Note_on_c, 5, 60, 0
13, 327480, Note_on_c, 5, 60, 84
13, 327480, Note_on_c, 5, 72, 84
13, 327584, Note_on_c, 5, 60, 0
13, 327584, Note_on_c, 5, 72, 0
13, 327600, Note_on_c, 5, 72, 84
13, 327600, Note_on_c, 5, 60, 84
13, 327704, Note_on_c, 5, 72, 0
13, 327704, Note_on_c, 5, 60, 0
13, 327720, Note_on_c, 5, 72, 84
13, 327720, Note_on_c, 5, 60, 84
13, 327824, Note_on_c, 5, 72, 0
13, 327824, Note_on_c, 5, 60, 0
13, 327840, Note_on_c, 5, 72, 84
13, 327840, Note_on_c, 5, 60, 84
13, 328019, Note_on_c, 5, 72, 0
13, 328019, Note_on_c, 5, 60, 0
13, 328800, Note_on_c, 5, 67, 84
13, 328800, Note_on_c, 5, 55, 84
13, 328979, Note_on_c, 5, 67, 0
13, 328979, Note_on_c, 5, 55, 0
13, 337440, Note_on_c, 5, 72, 76
13, 337440, Note_on_c, 5, 60, 76
13, 338144, Note_on_c, 5, 72, 0
13, 338144, Note_on_c, 5, 60, 0
13, 338160, Note_on_c, 5, 67, 76
13, 338160, Note_on_c, 5, 55, 76
13, 338384, Note_on_c, 5, 67, 0
13, 338384, Note_on_c, 5, 55, 0
13, 338400, Note_on_c, 5, 67, 76
13, 338400, Note_on_c, 5, 55, 76
13, 338624, Note_on_c, 5, 67, 0
13, 338624, Note_on_c, 5, 55, 0
13, 338640, Note_on_c, 5, 67, 76
13, 338640, Note_on_c, 5, 55, 76
13, 338864, Note_on_c, 5, 67, 0
13, 338864, Note_on_c, 5, 55, 0
13, 338880, Note_on_c, 5, 55, 76
13, 338880, Note_on_c, 5, 67, 76
13, 339104, Note_on_c, 5, 55, 0
13, 339104, Note_on_c, 5, 67, 0
13, 339120, Note_on_c, 5, 67, 76
13, 339120, Note_on_c, 5, 55, 76
13, 339344, Note_on_c, 5, 67, 0
13, 339344, Note_on_c, 5, 55, 0
13, 339360, Note_on_c, 5, 72, 84
13, 339360, Note_on_c, 5, 60, 84
13, 339480, Control_c, 5, 11, 112
13, 340064, Note_on_c, 5, 72, 0
13, 340064, Note_on_c, 5, 60, 0
13, 340080, Note_on_c, 5, 55, 84
13, 340080, Note_on_c, 5, 67, 84
13, 340304, Note_on_c, 5, 55, 0
13, 340304, Note_on_c, 5, 67, 0
13, 340320, Note_on_c, 5, 55, 84
13, 340320, Note_on_c, 5, 67, 84
13, 340544, Note_on_c, 5, 55, 0
13, 340544, Note_on_c, 5, 67, 0
13, 340560, Note_on_c, 5, 67, 84
13, 340560, Note_on_c, 5, 55, 84
13, 340784, Note_on_c, 5, 67, 0
13, 340784, Note_on_c, 5, 55, 0
13, 340800, Note_on_c, 5, 67, 84
13, 340800, Note_on_c, 5, 55, 84
13, 341024, Note_on_c, 5, 67, 0
13, 341024, Note_on_c, 5, 55, 0
13, 341040, Note_on_c, 5, 67, 84
13, 341040, Note_on_c, 5, 55, 84
13, 341264, Note_on_c, 5, 67, 0
13, 341264, Note_on_c, 5, 55, 0
13, 341278, Control_c, 5, 11, 127
13, 341280, Note_on_c, 5, 55, 84
13, 341280, Note_on_c, 5, 67, 84
13, 341400, Control_c, 5, 11, 112
13, 341984, Note_on_c, 5, 55, 0
13, 341984, Note_on_c, 5, 67, 0
13, 342000, Note_on_c, 5, 72, 84
13, 342000, Note_on_c, 5, 60, 84
13, 342224, Note_on_c, 5, 72, 0
13, 342224, Note_on_c, 5, 60, 0
13, 342238, Control_c, 5, 11, 127
13, 342240, Note_on_c, 5, 60, 76
13, 342240, Note_on_c, 5, 72, 76
13, 342464, Note_on_c, 5, 60, 0
13, 342464, Note_on_c, 5, 72, 0
13, 342480, Note_on_c, 5, 67, 80
13, 342480, Note_on_c, 5, 55, 80
13, 342704, Note_on_c, 5, 67, 0
13, 342704, Note_on_c, 5, 55, 0
13, 342720, Note_on_c, 5, 55, 80
13, 342720, Note_on_c, 5, 67, 80
13, 342944, Note_on_c, 5, 55, 0
13, 342944, Note_on_c, 5, 67, 0
13, 342960, Note_on_c, 5, 55, 80
13, 342960, Note_on_c, 5, 67, 80
13, 343184, Note_on_c, 5, 55, 0
13, 343184, Note_on_c, 5, 67, 0
13, 343200, Note_on_c, 5, 55, 80
13, 343200, Note_on_c, 5, 67, 80
13, 343424, Note_on_c, 5, 55, 0
13, 343424, Note_on_c, 5, 67, 0
13, 343440, Note_on_c, 5, 55, 80
13, 343440, Note_on_c, 5, 67, 80
13, 343664, Note_on_c, 5, 55, 0
13, 343664, Note_on_c, 5, 67, 0
13, 343680, Note_on_c, 5, 55, 80
13, 343680, Note_on_c, 5, 67, 80
13, 343904, Note_on_c, 5, 55, 0
13, 343904, Note_on_c, 5, 67, 0
13, 343920, Note_on_c, 5, 67, 80
13, 343920, Note_on_c, 5, 55, 80
13, 344144, Note_on_c, 5, 67, 0
13, 344144, Note_on_c, 5, 55, 0
13, 344160, Note_on_c, 5, 67, 80
13, 344160, Note_on_c, 5, 55, 80
13, 344384, Note_on_c, 5, 67, 0
13, 344384, Note_on_c, 5, 55, 0
13, 344400, Note_on_c, 5, 76, 80
13, 344400, Note_on_c, 5, 64, 80
13, 344624, Note_on_c, 5, 76, 0
13, 344624, Note_on_c, 5, 64, 0
13, 344640, Note_on_c, 5, 64, 80
13, 344640, Note_on_c, 5, 76, 80
13, 344864, Note_on_c, 5, 64, 0
13, 344864, Note_on_c, 5, 76, 0
13, 344880, Note_on_c, 5, 76, 80
13, 344880, Note_on_c, 5, 64, 80
13, 345104, Note_on_c, 5, 76, 0
13, 345104, Note_on_c, 5, 64, 0
13, 345120, Note_on_c, 5, 76, 84
13, 345120, Note_on_c, 5, 64, 84
13, 346064, Note_on_c, 5, 76, 0
13, 346064, Note_on_c, 5, 64, 0
13, 346080, Note_on_c, 5, 77, 84
13, 347984, Note_on_c, 5, 77, 0
13, 348000, Note_on_c, 5, 72, 84
13, 348000, Note_on_c, 5, 60, 84
13, 349904, Note_on_c, 5, 72, 0
13, 349904, Note_on_c, 5, 60, 0
13, 349920, Note_on_c, 5, 60, 92
13, 349920, Note_on_c, 5, 72, 92
13, 350040, Control_c, 5, 11, 112
13, 350639, Note_on_c, 5, 60, 0
13, 350639, Note_on_c, 5, 72, 0
13, 351600, Control_c, 5, 11, 127
13, 351840, Note_on_c, 5, 55, 84
13, 351840, Note_on_c, 5, 67, 84
13, 351960, Control_c, 5, 11, 112
13, 352079, Note_on_c, 5, 55, 0
13, 352079, Note_on_c, 5, 67, 0
13, 353520, Control_c, 5, 11, 127
13, 353760, Note_on_c, 5, 67, 76
13, 353760, Note_on_c, 5, 55, 76
13, 353999, Note_on_c, 5, 67, 0
13, 353999, Note_on_c, 5, 55, 0
13, 355680, Note_on_c, 5, 67, 76
13, 355680, Note_on_c, 5, 55, 76
13, 355919, Note_on_c, 5, 67, 0
13, 355919, Note_on_c, 5, 55, 0
13, 357600, Note_on_c, 5, 55, 76
13, 357600, Note_on_c, 5, 67, 76
13, 357839, Note_on_c, 5, 55, 0
13, 357839, Note_on_c, 5, 67, 0
13, 358320, Note_on_c, 5, 60, 80
13, 358544, Note_on_c, 5, 60, 0
13, 358560, Note_on_c, 5, 74, 80
13, 358560, Note_on_c, 5, 55, 80
13, 359024, Note_on_c, 5, 74, 0
13, 359024, Note_on_c, 5, 55, 0
13, 359040, Note_on_c, 5, 60, 80
13, 359040, Note_on_c, 5, 76, 80
13, 359504, Note_on_c, 5, 60, 0
13, 359504, Note_on_c, 5, 76, 0
13, 359520, Note_on_c, 5, 77, 80
13, 359520, Note_on_c, 5, 55, 80
13, 360224, Note_on_c, 5, 77, 0
13, 360224, Note_on_c, 5, 55, 0
13, 360240, Note_on_c, 5, 77, 80
13, 360240, Note_on_c, 5, 55, 80
13, 360464, Note_on_c, 5, 77, 0
13, 360464, Note_on_c, 5, 55, 0
13, 360480, Note_on_c, 5, 76, 80
13, 360480, Note_on_c, 5, 55, 80
13, 360944, Note_on_c, 5, 76, 0
13, 360944, Note_on_c, 5, 55, 0
13, 360960, Note_on_c, 5, 55, 80
13, 360960, Note_on_c, 5, 77, 80
13, 361424, Note_on_c, 5, 55, 0
13, 361424, Note_on_c, 5, 77, 0
13, 361440, Note_on_c, 5, 55, 84
13, 361440, Note_on_c, 5, 79, 84
13, 363344, Note_on_c, 5, 55, 0
13, 363344, Note_on_c, 5, 79, 0
13, 363360, Note_on_c, 5, 72, 84
13, 363360, Note_on_c, 5, 60, 84
13, 363599, Note_on_c, 5, 72, 0
13, 363599, Note_on_c, 5, 60, 0
13, 363960, Note_on_c, 5, 60, 84
13, 363960, Note_on_c, 5, 72, 84
13, 364064, Note_on_c, 5, 60, 0
13, 364064, Note_on_c, 5, 72, 0
13, 364080, Note_on_c, 5, 72, 84
13, 364080, Note_on_c, 5, 60, 84
13, 364184, Note_on_c, 5, 72, 0
13, 364184, Note_on_c, 5, 60, 0
13, 364200, Note_on_c, 5, 72, 84
13, 364200, Note_on_c, 5, 60, 84
13, 364304, Note_on_c, 5, 72, 0
13, 364304, Note_on_c, 5, 60, 0
13, 364320, Note_on_c, 5, 72, 84
13, 364320, Note_on_c, 5, 60, 84
13, 364559, Note_on_c, 5, 72, 0
13, 364559, Note_on_c, 5, 60, 0
13, 364920, Note_on_c, 5, 72, 84
13, 364920, Note_on_c, 5, 60, 84
13, 365024, Note_on_c, 5, 72, 0
13, 365024, Note_on_c, 5, 60, 0
13, 365040, Note_on_c, 5, 72, 84
13, 365040, Note_on_c, 5, 60, 84
13, 365144, Note_on_c, 5, 72, 0
13, 365144, Note_on_c, 5, 60, 0
13, 365160, Note_on_c, 5, 72, 84
13, 365160, Note_on_c, 5, 60, 84
13, 365264, Note_on_c, 5, 72, 0
13, 365264, Note_on_c, 5, 60, 0
13, 365280, Note_on_c, 5, 72, 84
13, 365280, Note_on_c, 5, 60, 84
13, 365504, Note_on_c, 5, 72, 0
13, 365504, Note_on_c, 5, 60, 0
13, 365520, Note_on_c, 5, 60, 84
13, 365520, Note_on_c, 5, 72, 84
13, 365624, Note_on_c, 5, 60, 0
13, 365624, Note_on_c, 5, 72, 0
13, 365640, Note_on_c, 5, 72, 84
13, 365640, Note_on_c, 5, 60, 84
13, 365744, Note_on_c, 5, 72, 0
13, 365744, Note_on_c, 5, 60, 0
13, 365760, Note_on_c, 5, 72, 84
13, 365760, Note_on_c, 5, 60, 84
13, 365864, Note_on_c, 5, 72, 0
13, 365864, Note_on_c, 5, 60, 0
13, 365880, Note_on_c, 5, 60, 84
13, 365880, Note_on_c, 5, 72, 84
13, 365984, Note_on_c, 5, 60, 0
13, 365984, Note_on_c, 5, 72, 0
13, 366000, Note_on_c, 5, 60, 84
13, 366000, Note_on_c, 5, 72, 84
13, 366104, Note_on_c, 5, 60, 0
13, 366104, Note_on_c, 5, 72, 0
13, 366120, Note_on_c, 5, 60, 84
13, 366120, Note_on_c, 5, 72, 84
13, 366224, Note_on_c, 5, 60, 0
13, 366224, Note_on_c, 5, 72, 0
13, 366240, Note_on_c, 5, 60, 84
13, 366240, Note_on_c, 5, 72, 84
13, 366344, Note_on_c, 5, 60, 0
13, 366344, Note_on_c, 5, 72, 0
13, 366360, Note_on_c, 5, 72, 84
13, 366360, Note_on_c, 5, 60, 84
13, 366464, Note_on_c, 5, 72, 0
13, 366464, Note_on_c, 5, 60, 0
13, 366480, Note_on_c, 5, 72, 84
13, 366480, Note_on_c, 5, 60, 84
13, 366584, Note_on_c, 5, 72, 0
13, 366584, Note_on_c, 5, 60, 0
13, 366600, Note_on_c, 5, 72, 84
13, 366600, Note_on_c, 5, 60, 84
13, 366704, Note_on_c, 5, 72, 0
13, 366704, Note_on_c, 5, 60, 0
13, 366720, Note_on_c, 5, 60, 84
13, 366720, Note_on_c, 5, 72, 84
13, 366824, Note_on_c, 5, 60, 0
13, 366824, Note_on_c, 5, 72, 0
13, 366840, Note_on_c, 5, 72, 84
13, 366840, Note_on_c, 5, 60, 84
13, 366944, Note_on_c, 5, 72, 0
13, 366944, Note_on_c, 5, 60, 0
13, 366960, Note_on_c, 5, 60, 84
13, 366960, Note_on_c, 5, 72, 84
13, 367064, Note_on_c, 5, 60, 0
13, 367064, Note_on_c, 5, 72, 0
13, 367080, Note_on_c, 5, 72, 84
13, 367080, Note_on_c, 5, 60, 84
13, 367184, Note_on_c, 5, 72, 0
13, 367184, Note_on_c, 5, 60, 0
13, 367200, Note_on_c, 5, 67, 84
13, 367200, Note_on_c, 5, 55, 84
13, 367379, Note_on_c, 5, 67, 0
13, 367379, Note_on_c, 5, 55, 0
13, 368160, Note_on_c, 5, 74, 84
13, 368160, Note_on_c, 5, 67, 84
13, 368339, Note_on_c, 5, 74, 0
13, 368339, Note_on_c, 5, 67, 0
13, 369120, Note_on_c, 5, 72, 84
13, 369120, Note_on_c, 5, 64, 84
13, 369299, Note_on_c, 5, 72, 0
13, 369299, Note_on_c, 5, 64, 0
13, 370080, Note_on_c, 5, 67, 84
13, 370080, Note_on_c, 5, 74, 84
13, 370259, Note_on_c, 5, 67, 0
13, 370259, Note_on_c, 5, 74, 0
13, 371040, Note_on_c, 5, 64, 84
13, 371040, Note_on_c, 5, 72, 84
13, 371219, Note_on_c, 5, 64, 0
13, 371219, Note_on_c, 5, 72, 0
13, 372000, Note_on_c, 5, 67, 84
13, 372000, Note_on_c, 5, 74, 84
13, 372179, Note_on_c, 5, 67, 0
13, 372179, Note_on_c, 5, 74, 0
13, 379680, Control_c, 5, 11, 80
13, 380640, Control_c, 5, 11, 80
13, 380640, Note_on_c, 5, 55, 76
13, 380640, Note_on_c, 5, 67, 76
13, 380693, Control_c, 5, 11, 83
13, 380747, Control_c, 5, 11, 85
13, 380800, Control_c, 5, 11, 88
13, 380853, Control_c, 5, 11, 90
13, 380907, Control_c, 5, 11, 93
13, 380960, Control_c, 5, 11, 96
13, 381013, Control_c, 5, 11, 98
13, 381067, Control_c, 5, 11, 101
13, 381120, Control_c, 5, 11, 104
13, 381173, Control_c, 5, 11, 106
13, 381227, Control_c, 5, 11, 109
13, 381280, Control_c, 5, 11, 111
13, 381333, Control_c, 5, 11, 114
13, 381387, Control_c, 5, 11, 117
13, 381440, Control_c, 5, 11, 119
13, 381493, Control_c, 5, 11, 122
13, 381547, Control_c, 5, 11, 127
13, 381584, Note_on_c, 5, 55, 0
13, 381584, Note_on_c, 5, 67, 0
13, 381600, Note_on_c, 5, 60, 76
13, 381600, Note_on_c, 5, 72, 76
13, 381824, Note_on_c, 5, 60, 0
13, 381824, Note_on_c, 5, 72, 0
13, 381840, Note_on_c, 5, 72, 76
13, 381840, Note_on_c, 5, 60, 76
13, 382064, Note_on_c, 5, 72, 0
13, 382064, Note_on_c, 5, 60, 0
13, 382080, Note_on_c, 5, 60, 76
13, 382080, Note_on_c, 5, 72, 76
13, 382304, Note_on_c, 5, 60, 0
13, 382304, Note_on_c, 5, 72, 0
13, 382320, Note_on_c, 5, 60, 76
13, 382320, Note_on_c, 5, 72, 76
13, 382544, Note_on_c, 5, 60, 0
13, 382544, Note_on_c, 5, 72, 0
13, 382560, Note_on_c, 5, 60, 76
13, 382560, Note_on_c, 5, 72, 76
13, 382784, Note_on_c, 5, 60, 0
13, 382784, Note_on_c, 5, 72, 0
13, 382800, Note_on_c, 5, 72, 76
13, 382800, Note_on_c, 5, 60, 76
13, 383024, Note_on_c, 5, 72, 0
13, 383024, Note_on_c, 5, 60, 0
13, 383040, Note_on_c, 5, 60, 76
13, 383040, Note_on_c, 5, 72, 76
13, 383264, Note_on_c, 5, 60, 0
13, 383264, Note_on_c, 5, 72, 0
13, 383280, Note_on_c, 5, 60, 76
13, 383280, Note_on_c, 5, 72, 76
13, 383504, Note_on_c, 5, 60, 0
13, 383504, Note_on_c, 5, 72, 0
13, 383520, Note_on_c, 5, 60, 76
13, 383520, Note_on_c, 5, 72, 76
13, 384224, Note_on_c, 5, 60, 0
13, 384224, Note_on_c, 5, 72, 0
13, 384240, Note_on_c, 5, 60, 76
13, 384240, Note_on_c, 5, 72, 76
13, 384419, Note_on_c, 5, 60, 0
13, 384419, Note_on_c, 5, 72, 0
13, 384480, Note_on_c, 5, 60, 76
13, 384480, Note_on_c, 5, 72, 76
13, 385184, Note_on_c, 5, 60, 0
13, 385184, Note_on_c, 5, 72, 0
13, 385200, Note_on_c, 5, 72, 76
13, 385200, Note_on_c, 5, 60, 76
13, 385379, Note_on_c, 5, 72, 0
13, 385379, Note_on_c, 5, 60, 0
13, 385440, Note_on_c, 5, 72, 76
13, 385440, Note_on_c, 5, 60, 76
13, 386144, Note_on_c, 5, 72, 0
13, 386144, Note_on_c, 5, 60, 0
13, 386160, Note_on_c, 5, 72, 76
13, 386160, Note_on_c, 5, 60, 76
13, 386339, Note_on_c, 5, 72, 0
13, 386339, Note_on_c, 5, 60, 0
13, 386400, Note_on_c, 5, 72, 76
13, 386400, Note_on_c, 5, 60, 76
13, 387104, Note_on_c, 5, 72, 0
13, 387104, Note_on_c, 5, 60, 0
13, 387120, Note_on_c, 5, 60, 76
13, 387120, Note_on_c, 5, 72, 76
13, 387299, Note_on_c, 5, 60, 0
13, 387299, Note_on_c, 5, 72, 0
13, 387360, Note_on_c, 5, 55, 76
13, 387360, Note_on_c, 5, 67, 76
13, 387599, Note_on_c, 5, 55, 0
13, 387599, Note_on_c, 5, 67, 0
13, 387840, Note_on_c, 5, 60, 52
13, 388079, Note_on_c, 5, 60, 0
13, 388320, Note_on_c, 5, 60, 52
13, 388559, Note_on_c, 5, 60, 0
13, 388800, Note_on_c, 5, 55, 52
13, 388800, Note_on_c, 5, 67, 52
13, 389039, Note_on_c, 5, 55, 0
13, 389039, Note_on_c, 5, 67, 0
13, 397200, Note_on_c, 5, 67, 58
13, 397200, Note_on_c, 5, 55, 58
13, 397439, Note_on_c, 5, 67, 0
13, 397439, Note_on_c, 5, 55, 0
13, 397680, Note_on_c, 5, 55, 70
13, 397680, Note_on_c, 5, 67, 70
13, 397904, Note_on_c, 5, 55, 0
13, 397904, Note_on_c, 5, 67, 0
13, 397920, Note_on_c, 5, 72, 76
13, 397920, Note_on_c, 5, 60, 76
13, 398144, Note_on_c, 5, 72, 0
13, 398144, Note_on_c, 5, 60, 0
13, 398160, Note_on_c, 5, 72, 76
13, 398160, Note_on_c, 5, 60, 76
13, 398384, Note_on_c, 5, 72, 0
13, 398384, Note_on_c, 5, 60, 0
13, 398400, Note_on_c, 5, 60, 76
13, 398400, Note_on_c, 5, 72, 76
13, 398624, Note_on_c, 5, 60, 0
13, 398624, Note_on_c, 5, 72, 0
13, 398640, Note_on_c, 5, 60, 76
13, 398640, Note_on_c, 5, 72, 76
13, 398864, Note_on_c, 5, 60, 0
13, 398864, Note_on_c, 5, 72, 0
13, 398880, Note_on_c, 5, 60, 76
13, 398880, Note_on_c, 5, 72, 76
13, 399104, Note_on_c, 5, 60, 0
13, 399104, Note_on_c, 5, 72, 0
13, 399120, Note_on_c, 5, 72, 76
13, 399120, Note_on_c, 5, 60, 76
13, 399344, Note_on_c, 5, 72, 0
13, 399344, Note_on_c, 5, 60, 0
13, 399360, Note_on_c, 5, 72, 76
13, 399360, Note_on_c, 5, 60, 76
13, 399584, Note_on_c, 5, 72, 0
13, 399584, Note_on_c, 5, 60, 0
13, 399600, Note_on_c, 5, 72, 76
13, 399600, Note_on_c, 5, 60, 76
13, 399824, Note_on_c, 5, 72, 0
13, 399824, Note_on_c, 5, 60, 0
13, 399840, Note_on_c, 5, 72, 76
13, 399840, Note_on_c, 5, 60, 76
13, 400544, Note_on_c, 5, 72, 0
13, 400544, Note_on_c, 5, 60, 0
13, 400560, Note_on_c, 5, 72, 76
13, 400560, Note_on_c, 5, 60, 76
13, 400739, Note_on_c, 5, 72, 0
13, 400739, Note_on_c, 5, 60, 0
13, 400800, Note_on_c, 5, 60, 76
13, 400800, Note_on_c, 5, 72, 76
13, 401504, Note_on_c, 5, 60, 0
13, 401504, Note_on_c, 5, 72, 0
13, 401520, Note_on_c, 5, 72, 76
13, 401520, Note_on_c, 5, 60, 76
13, 401699, Note_on_c, 5, 72, 0
13, 401699, Note_on_c, 5, 60, 0
13, 401760, Note_on_c, 5, 60, 76
13, 401760, Note_on_c, 5, 72, 76
13, 402464, Note_on_c, 5, 60, 0
13, 402464, Note_on_c, 5, 72, 0
13, 402480, Note_on_c, 5, 60, 76
13, 402480, Note_on_c, 5, 72, 76
13, 402659, Note_on_c, 5, 60, 0
13, 402659, Note_on_c, 5, 72, 0
13, 402720, Note_on_c, 5, 60, 76
13, 402720, Note_on_c, 5, 72, 76
13, 403424, Note_on_c, 5, 60, 0
13, 403424, Note_on_c, 5, 72, 0
13, 403440, Note_on_c, 5, 60, 76
13, 403440, Note_on_c, 5, 72, 76
13, 403619, Note_on_c, 5, 60, 0
13, 403619, Note_on_c, 5, 72, 0
13, 403680, Note_on_c, 5, 60, 52
13, 403680, Note_on_c, 5, 72, 52
13, 403799, Note_on_c, 5, 60, 0
13, 403799, Note_on_c, 5, 72, 0
13, 407760, Note_on_c, 5, 72, 52
13, 407760, Note_on_c, 5, 60, 52
13, 407879, Note_on_c, 5, 72, 0
13, 407879, Note_on_c, 5, 60, 0
13, 408000, Note_on_c, 5, 60, 52
13, 408000, Note_on_c, 5, 72, 52
13, 408119, Note_on_c, 5, 60, 0
13, 408119, Note_on_c, 5, 72, 0
13, 408240, Note_on_c, 5, 60, 56
13, 408240, Note_on_c, 5, 72, 56
13, 408359, Note_on_c, 5, 60, 0
13, 408359, Note_on_c, 5, 72, 0
13, 408480, Note_on_c, 5, 67, 60
13, 408480, Note_on_c, 5, 55, 60
13, 408599, Note_on_c, 5, 67, 0
13, 408599, Note_on_c, 5, 55, 0
13, 408720, Note_on_c, 5, 67, 64
13, 408720, Note_on_c, 5, 55, 64
13, 408839, Note_on_c, 5, 67, 0
13, 408839, Note_on_c, 5, 55, 0
13, 408960, Note_on_c, 5, 67, 68
13, 408960, Note_on_c, 5, 55, 68
13, 409079, Note_on_c, 5, 67, 0
13, 409079, Note_on_c, 5, 55, 0
13, 409200, Note_on_c, 5, 67, 72
13, 409200, Note_on_c, 5, 55, 72
13, 409319, Note_on_c, 5, 67, 0
13, 409319, Note_on_c, 5, 55, 0
13, 409440, Note_on_c, 5, 60, 76
13, 409559, Note_on_c, 5, 60, 0
13, 410400, Note_on_c, 5, 60, 76
13, 410519, Note_on_c, 5, 60, 0
13, 411360, Note_on_c, 5, 60, 76
13, 411479, Note_on_c, 5, 60, 0
13, 412320, Note_on_c, 5, 60, 76
13, 412439, Note_on_c, 5, 60, 0
13, 413280, Note_on_c, 5, 72, 76
13, 413280, Note_on_c, 5, 60, 76
13, 413399, Note_on_c, 5, 72, 0
13, 413399, Note_on_c, 5, 60, 0
13, 414240, Note_on_c, 5, 60, 76
13, 414240, Note_on_c, 5, 72, 76
13, 414359, Note_on_c, 5, 60, 0
13, 414359, Note_on_c, 5, 72, 0
13, 415200, Note_on_c, 5, 60, 76
13, 415200, Note_on_c, 5, 72, 76
13, 415319, Note_on_c, 5, 60, 0
13, 415319, Note_on_c, 5, 72, 0
13, 416160, Note_on_c, 5, 60, 76
13, 416160, Note_on_c, 5, 72, 76
13, 416279, Note_on_c, 5, 60, 0
13, 416279, Note_on_c, 5, 72, 0
13, 417120, Note_on_c, 5, 72, 52
13, 417120, Note_on_c, 5, 60, 52
13, 417239, Note_on_c, 5, 72, 0
13, 417239, Note_on_c, 5, 60, 0
13, 417360, Note_on_c, 5, 72, 53
13, 417360, Note_on_c, 5, 60, 53
13, 417479, Note_on_c, 5, 72, 0
13, 417479, Note_on_c, 5, 60, 0
13, 417600, Note_on_c, 5, 72, 55
13, 417600, Note_on_c, 5, 60, 55
13, 417719, Note_on_c, 5, 72, 0
13, 417719, Note_on_c, 5, 60, 0
13, 417840, Note_on_c, 5, 60, 56
13, 417840, Note_on_c, 5, 72, 56
13, 417959, Note_on_c, 5, 60, 0
13, 417959, Note_on_c, 5, 72, 0
13, 418080, Note_on_c, 5, 67, 58
13, 418080, Note_on_c, 5, 55, 58
13, 418199, Note_on_c, 5, 67, 0
13, 418199, Note_on_c, 5, 55, 0
13, 418320, Note_on_c, 5, 55, 59
13, 418320, Note_on_c, 5, 67, 59
13, 418439, Note_on_c, 5, 55, 0
13, 418439, Note_on_c, 5, 67, 0
13, 418560, Note_on_c, 5, 67, 61
13, 418560, Note_on_c, 5, 55, 61
13, 418679, Note_on_c, 5, 67, 0
13, 418679, Note_on_c, 5, 55, 0
13, 418800, Note_on_c, 5, 60, 62
13, 418800, Note_on_c, 5, 72, 62
13, 418919, Note_on_c, 5, 60, 0
13, 418919, Note_on_c, 5, 72, 0
13, 419040, Note_on_c, 5, 60, 64
13, 419040, Note_on_c, 5, 72, 64
13, 419159, Note_on_c, 5, 60, 0
13, 419159, Note_on_c, 5, 72, 0
13, 419280, Note_on_c, 5, 60, 65
13, 419280, Note_on_c, 5, 72, 65
13, 419399, Note_on_c, 5, 60, 0
13, 419399, Note_on_c, 5, 72, 0
13, 419520, Note_on_c, 5, 60, 67
13, 419520, Note_on_c, 5, 72, 67
13, 419639, Note_on_c, 5, 60, 0
13, 419639, Note_on_c, 5, 72, 0
13, 419760, Note_on_c, 5, 60, 68
13, 419760, Note_on_c, 5, 72, 68
13, 419879, Note_on_c, 5, 60, 0
13, 419879, Note_on_c, 5, 72, 0
13, 420000, Note_on_c, 5, 55, 70
13, 420000, Note_on_c, 5, 67, 70
13, 420119, Note_on_c, 5, 55, 0
13, 420119, Note_on_c, 5, 67, 0
13, 420240, Note_on_c, 5, 67, 71
13, 420240, Note_on_c, 5, 55, 71
13, 420359, Note_on_c, 5, 67, 0
13, 420359, Note_on_c, 5, 55, 0
13, 420480, Note_on_c, 5, 55, 73
13, 420480, Note_on_c, 5, 67, 73
13, 420599, Note_on_c, 5, 55, 0
13, 420599, Note_on_c, 5, 67, 0
13, 420720, Note_on_c, 5, 72, 74
13, 420720, Note_on_c, 5, 60, 74
13, 420819, Note_on_c, 5, 72, 0
13, 420819, Note_on_c, 5, 60, 0
13, 420840, Note_on_c, 5, 60, 75
13, 420840, Note_on_c, 5, 72, 75
13, 420939, Note_on_c, 5, 60, 0
13, 420939, Note_on_c, 5, 72, 0
13, 420960, Note_on_c, 5, 72, 76
13, 420960, Note_on_c, 5, 60, 76
13, 421059, Note_on_c, 5, 72, 0
13, 421059, Note_on_c, 5, 60, 0
13, 421080, Note_on_c, 5, 72, 76
13, 421080, Note_on_c, 5, 60, 76
13, 421179, Note_on_c, 5, 72, 0
13, 421179, Note_on_c, 5, 60, 0
13, 421200, Note_on_c, 5, 60, 76
13, 421200, Note_on_c, 5, 72, 76
13, 421299, Note_on_c, 5, 60, 0
13, 421299, Note_on_c, 5, 72, 0
13, 421320, Note_on_c, 5, 72, 76
13, 421320, Note_on_c, 5, 60, 76
13, 421419, Note_on_c, 5, 72, 0
13, 421419, Note_on_c, 5, 60, 0
13, 421440, Note_on_c, 5, 60, 76
13, 421440, Note_on_c, 5, 72, 76
13, 421539, Note_on_c, 5, 60, 0
13, 421539, Note_on_c, 5, 72, 0
13, 421560, Note_on_c, 5, 60, 76
13, 421560, Note_on_c, 5, 72, 76
13, 421659, Note_on_c, 5, 60, 0
13, 421659, Note_on_c, 5, 72, 0
13, 421680, Note_on_c, 5, 72, 76
13, 421680, Note_on_c, 5, 60, 76
13, 421779, Note_on_c, 5, 72, 0
13, 421779, Note_on_c, 5, 60, 0
13, 421800, Note_on_c, 5, 60, 76
13, 421800, Note_on_c, 5, 72, 76
13, 421899, Note_on_c, 5, 60, 0
13, 421899, Note_on_c, 5, 72, 0
13, 421920, Note_on_c, 5, 67, 76
13, 421920, Note_on_c, 5, 55, 76
13, 422019, Note_on_c, 5, 67, 0
13, 422019, Note_on_c, 5, 55, 0
13, 422040, Note_on_c, 5, 55, 76
13, 422040, Note_on_c, 5, 67, 76
13, 422139, Note_on_c, 5, 55, 0
13, 422139, Note_on_c, 5, 67, 0
13, 422160, Note_on_c, 5, 67, 76
13, 422160, Note_on_c, 5, 55, 76
13, 422259, Note_on_c, 5, 67, 0
13, 422259, Note_on_c, 5, 55, 0
13, 422280, Note_on_c, 5, 67, 76
13, 422280, Note_on_c, 5, 55, 76
13, 422379, Note_on_c, 5, 67, 0
13, 422379, Note_on_c, 5, 55, 0
13, 422400, Note_on_c, 5, 55, 76
13, 422400, Note_on_c, 5, 67, 76
13, 422499, Note_on_c, 5, 55, 0
13, 422499, Note_on_c, 5, 67, 0
13, 422520, Note_on_c, 5, 67, 76
13, 422520, Note_on_c, 5, 55, 76
13, 422619, Note_on_c, 5, 67, 0
13, 422619, Note_on_c, 5, 55, 0
13, 422640, Note_on_c, 5, 67, 76
13, 422640, Note_on_c, 5, 55, 76
13, 422739, Note_on_c, 5, 67, 0
13, 422739, Note_on_c, 5, 55, 0
13, 422760, Note_on_c, 5, 67, 76
13, 422760, Note_on_c, 5, 55, 76
13, 422859, Note_on_c, 5, 67, 0
13, 422859, Note_on_c, 5, 55, 0
13, 422880, Note_on_c, 5, 64, 84
13, 422880, Note_on_c, 5, 72, 84
13, 423099, Note_on_c, 5, 64, 0
13, 423099, Note_on_c, 5, 72, 0
13, 423120, Note_on_c, 5, 76, 84
13, 423120, Note_on_c, 5, 72, 84
13, 423339, Note_on_c, 5, 76, 0
13, 423339, Note_on_c, 5, 72, 0
13, 423360, Note_on_c, 5, 76, 84
13, 423360, Note_on_c, 5, 79, 84
13, 423699, Note_on_c, 5, 76, 0
13, 423699, Note_on_c, 5, 79, 0
13, 423720, Note_on_c, 5, 77, 84
13, 423720, Note_on_c, 5, 74, 84
13, 423819, Note_on_c, 5, 77, 0
13, 423819, Note_on_c, 5, 74, 0
13, 423840, Note_on_c, 5, 76, 84
13, 423840, Note_on_c, 5, 72, 84
13, 423939, Note_on_c, 5, 76, 0
13, 423939, Note_on_c, 5, 72, 0
13, 423960, Note_on_c, 5, 67, 84
13, 423960, Note_on_c, 5, 74, 84
13, 424059, Note_on_c, 5, 67, 0
13, 424059, Note_on_c, 5, 74, 0
13, 424080, Note_on_c, 5, 64, 84
13, 424080, Note_on_c, 5, 72, 84
13, 424179, Note_on_c, 5, 64, 0
13, 424179, Note_on_c, 5, 72, 0
13, 424200, Note_on_c, 5, 67, 84
13, 424200, Note_on_c, 5, 74, 84
13, 424299, Note_on_c, 5, 67, 0
13, 424299, Note_on_c, 5, 74, 0
13, 424320, Note_on_c, 5, 72, 84
13, 424320, Note_on_c, 5, 76, 84
13, 424659, Note_on_c, 5, 72, 0
13, 424659, Note_on_c, 5, 76, 0
13, 424680, Note_on_c, 5, 76, 84
13, 424779, Note_on_c, 5, 76, 0
13, 424800, Note_on_c, 5, 76, 84
13, 424899, Note_on_c, 5, 76, 0
13, 424920, Note_on_c, 5, 74, 84
13, 425019, Note_on_c, 5, 74, 0
13, 425040, Note_on_c, 5, 76, 84
13, 425139, Note_on_c, 5, 76, 0
13, 425160, Note_on_c, 5, 77, 84
13, 425259, Note_on_c, 5, 77, 0
13, 425280, Note_on_c, 5, 79, 84
13, 425619, Note_on_c, 5, 79, 0
13, 425640, Note_on_c, 5, 79, 84
13, 425640, Note_on_c, 5, 67, 84
13, 425739, Note_on_c, 5, 79, 0
13, 425739, Note_on_c, 5, 67, 0
13, 425760, Note_on_c, 5, 67, 84
13, 425760, Note_on_c, 5, 79, 84
13, 425859, Note_on_c, 5, 67, 0
13, 425859, Note_on_c, 5, 79, 0
13, 425880, Note_on_c, 5, 79, 84
13, 425880, Note_on_c, 5, 67, 84
13, 425979, Note_on_c, 5, 79, 0
13, 425979, Note_on_c, 5, 67, 0
13, 426000, Note_on_c, 5, 67, 84
13, 426000, Note_on_c, 5, 79, 84
13, 426099, Note_on_c, 5, 67, 0
13, 426099, Note_on_c, 5, 79, 0
13, 426120, Note_on_c, 5, 67, 84
13, 426120, Note_on_c, 5, 79, 84
13, 426219, Note_on_c, 5, 67, 0
13, 426219, Note_on_c, 5, 79, 0
13, 426240, Note_on_c, 5, 79, 84
13, 426240, Note_on_c, 5, 67, 84
13, 426579, Note_on_c, 5, 79, 0
13, 426579, Note_on_c, 5, 67, 0
13, 426600, Note_on_c, 5, 67, 84
13, 426600, Note_on_c, 5, 79, 84
13, 426699, Note_on_c, 5, 67, 0
13, 426699, Note_on_c, 5, 79, 0
13, 426720, Note_on_c, 5, 67, 84
13, 426720, Note_on_c, 5, 79, 84
13, 426819, Note_on_c, 5, 67, 0
13, 426819, Note_on_c, 5, 79, 0
13, 426840, Note_on_c, 5, 67, 84
13, 426840, Note_on_c, 5, 79, 84
13, 426939, Note_on_c, 5, 67, 0
13, 426939, Note_on_c, 5, 79, 0
13, 426960, Note_on_c, 5, 67, 84
13, 426960, Note_on_c, 5, 79, 84
13, 427059, Note_on_c, 5, 67, 0
13, 427059, Note_on_c, 5, 79, 0
13, 427080, Note_on_c, 5, 67, 84
13, 427080, Note_on_c, 5, 79, 84
13, 427179, Note_on_c, 5, 67, 0
13, 427179, Note_on_c, 5, 79, 0
13, 427200, Note_on_c, 5, 79, 84
13, 427200, Note_on_c, 5, 67, 84
13, 427299, Note_on_c, 5, 79, 0
13, 427299, Note_on_c, 5, 67, 0
13, 427320, Note_on_c, 5, 67, 84
13, 427320, Note_on_c, 5, 79, 84
13, 427419, Note_on_c, 5, 67, 0
13, 427419, Note_on_c, 5, 79, 0
13, 427440, Note_on_c, 5, 67, 84
13, 427440, Note_on_c, 5, 79, 84
13, 427539, Note_on_c, 5, 67, 0
13, 427539, Note_on_c, 5, 79, 0
13, 427560, Note_on_c, 5, 67, 84
13, 427560, Note_on_c, 5, 79, 84
13, 427659, Note_on_c, 5, 67, 0
13, 427659, Note_on_c, 5, 79, 0
13, 427680, Note_on_c, 5, 79, 84
13, 427680, Note_on_c, 5, 67, 84
13, 428619, Note_on_c, 5, 79, 0
13, 428619, Note_on_c, 5, 67, 0
13, 428640, Note_on_c, 5, 64, 84
13, 428640, Note_on_c, 5, 76, 84
13, 429579, Note_on_c, 5, 64, 0
13, 429579, Note_on_c, 5, 76, 0
13, 429600, Note_on_c, 5, 72, 84
13, 429600, Note_on_c, 5, 60, 84
13, 429719, Note_on_c, 5, 72, 0
13, 429719, Note_on_c, 5, 60, 0
13, 430080, Note_on_c, 5, 74, 84
13, 430080, Note_on_c, 5, 67, 84
13, 430199, Note_on_c, 5, 74, 0
13, 430199, Note_on_c, 5, 67, 0
13, 430560, Note_on_c, 5, 76, 84
13, 430560, Note_on_c, 5, 72, 84
13, 430679, Note_on_c, 5, 76, 0
13, 430679, Note_on_c, 5, 72, 0
13, 431040, Note_on_c, 5, 67, 84
13, 431040, Note_on_c, 5, 79, 84
13, 431159, Note_on_c, 5, 67, 0
13, 431159, Note_on_c, 5, 79, 0
13, 431520, Note_on_c, 5, 76, 84
13, 431520, Note_on_c, 5, 72, 84
13, 431639, Note_on_c, 5, 76, 0
13, 431639, Note_on_c, 5, 72, 0
13, 432000, Note_on_c, 5, 67, 84
13, 432000, Note_on_c, 5, 74, 84
13, 432119, Note_on_c, 5, 67, 0
13, 432119, Note_on_c, 5, 74, 0
13, 432480, Note_on_c, 5, 72, 84
13, 432480, Note_on_c, 5, 76, 84
13, 432599, Note_on_c, 5, 72, 0
13, 432599, Note_on_c, 5, 76, 0
13, 432960, Note_on_c, 5, 79, 84
13, 432960, Note_on_c, 5, 67, 84
13, 433079, Note_on_c, 5, 79, 0
13, 433079, Note_on_c, 5, 67, 0
13, 433440, Note_on_c, 5, 76, 84
13, 433440, Note_on_c, 5, 72, 84
13, 433559, Note_on_c, 5, 76, 0
13, 433559, Note_on_c, 5, 72, 0
13, 433920, Note_on_c, 5, 79, 84
13, 433920, Note_on_c, 5, 67, 84
13, 434039, Note_on_c, 5, 79, 0
13, 434039, Note_on_c, 5, 67, 0
13, 434400, Note_on_c, 5, 76, 84
13, 434400, Note_on_c, 5, 72, 84
13, 434519, Note_on_c, 5, 76, 0
13, 434519, Note_on_c, 5, 72, 0
13, 434880, Note_on_c, 5, 79, 84
13, 434880, Note_on_c, 5, 67, 84
13, 434999, Note_on_c, 5, 79, 0
13, 434999, Note_on_c, 5, 67, 0
13, 435360, Note_on_c, 5, 72, 84
13, 436299, Note_on_c, 5, 72, 0
13, 436320, Note_on_c, 5, 72, 84
13, 437019, Note_on_c, 5, 72, 0
13, 437040, Note_on_c, 5, 67, 84
13, 437139, Note_on_c, 5, 67, 0
13, 437160, Note_on_c, 5, 64, 84
13, 437259, Note_on_c, 5, 64, 0
13, 437280, Note_on_c, 5, 60, 84
13, 437399, Note_on_c, 5, 60, 0
13, 437640, Note_on_c, 5, 72, 84
13, 437640, Note_on_c, 5, 60, 84
13, 437739, Note_on_c, 5, 72, 0
13, 437739, Note_on_c, 5, 60, 0
13, 437760, Note_on_c, 5, 72, 84
13, 437760, Note_on_c, 5, 60, 84
13, 437859, Note_on_c, 5, 72, 0
13, 437859, Note_on_c, 5, 60, 0
13, 437880, Note_on_c, 5, 72, 84
13, 437880, Note_on_c, 5, 60, 84
13, 437979, Note_on_c, 5, 72, 0
13, 437979, Note_on_c, 5, 60, 0
13, 438000, Note_on_c, 5, 72, 84
13, 438000, Note_on_c, 5, 60, 84
13, 438099, Note_on_c, 5, 72, 0
13, 438099, Note_on_c, 5, 60, 0
13, 438120, Note_on_c, 5, 72, 84
13, 438120, Note_on_c, 5, 60, 84
13, 438219, Note_on_c, 5, 72, 0
13, 438219, Note_on_c, 5, 60, 0
13, 438240, Note_on_c, 5, 72, 84
13, 438240, Note_on_c, 5, 60, 84
13, 438359, Note_on_c, 5, 72, 0
13, 438359, Note_on_c, 5, 60, 0
13, 438600, Note_on_c, 5, 72, 84
13, 438600, Note_on_c, 5, 60, 84
13, 438699, Note_on_c, 5, 72, 0
13, 438699, Note_on_c, 5, 60, 0
13, 438720, Note_on_c, 5, 72, 84
13, 438720, Note_on_c, 5, 60, 84
13, 438819, Note_on_c, 5, 72, 0
13, 438819, Note_on_c, 5, 60, 0
13, 438840, Note_on_c, 5, 72, 84
13, 438840, Note_on_c, 5, 60, 84
13, 438939, Note_on_c, 5, 72, 0
13, 438939, Note_on_c, 5, 60, 0
13, 438960, Note_on_c, 5, 72, 84
13, 438960, Note_on_c, 5, 60, 84
13, 439059, Note_on_c, 5, 72, 0
13, 439059, Note_on_c, 5, 60, 0
13, 439080, Note_on_c, 5, 72, 84
13, 439080, Note_on_c, 5, 60, 84
13, 439179, Note_on_c, 5, 72, 0
13, 439179, Note_on_c, 5, 60, 0
13, 439200, Note_on_c, 5, 72, 84
13, 439200, Note_on_c, 5, 60, 84
13, 439319, Note_on_c, 5, 72, 0
13, 439319, Note_on_c, 5, 60, 0
13, 439440, Note_on_c, 5, 72, 84
13, 439440, Note_on_c, 5, 60, 84
13, 439539, Note_on_c, 5, 72, 0
13, 439539, Note_on_c, 5, 60, 0
13, 439560, Note_on_c, 5, 72, 84
13, 439560, Note_on_c, 5, 60, 84
13, 439659, Note_on_c, 5, 72, 0
13, 439659, Note_on_c, 5, 60, 0
13, 439680, Note_on_c, 5, 72, 84
13, 439680, Note_on_c, 5, 60, 84
13, 439799, Note_on_c, 5, 72, 0
13, 439799, Note_on_c, 5, 60, 0
13, 439920, Note_on_c, 5, 72, 84
13, 439920, Note_on_c, 5, 60, 84
13, 440019, Note_on_c, 5, 72, 0
13, 440019, Note_on_c, 5, 60, 0
13, 440040, Note_on_c, 5, 72, 84
13, 440040, Note_on_c, 5, 60, 84
13, 440139, Note_on_c, 5, 72, 0
13, 440139, Note_on_c, 5, 60, 0
13, 440160, Note_on_c, 5, 72, 84
13, 440160, Note_on_c, 5, 60, 84
13, 440279, Note_on_c, 5, 72, 0
13, 440279, Note_on_c, 5, 60, 0
13, 440400, Note_on_c, 5, 72, 84
13, 440400, Note_on_c, 5, 60, 84
13, 440499, Note_on_c, 5, 72, 0
13, 440499, Note_on_c, 5, 60, 0
13, 440520, Note_on_c, 5, 72, 84
13, 440520, Note_on_c, 5, 60, 84
13, 440619, Note_on_c, 5, 72, 0
13, 440619, Note_on_c, 5, 60, 0
13, 440640, Note_on_c, 5, 72, 84
13, 440640, Note_on_c, 5, 60, 84
13, 440759, Note_on_c, 5, 72, 0
13, 440759, Note_on_c, 5, 60, 0
13, 440880, Note_on_c, 5, 72, 84
13, 440880, Note_on_c, 5, 60, 84
13, 440979, Note_on_c, 5, 72, 0
13, 440979, Note_on_c, 5, 60, 0
13, 441000, Note_on_c, 5, 72, 84
13, 441000, Note_on_c, 5, 60, 84
13, 441099, Note_on_c, 5, 72, 0
13, 441099, Note_on_c, 5, 60, 0
13, 441120, Note_on_c, 5, 72, 84
13, 441120, Note_on_c, 5, 60, 84
13, 442059, Note_on_c, 5, 72, 0
13, 442059, Note_on_c, 5, 60, 0
13, 442080, Note_on_c, 5, 76, 84
13, 442080, Note_on_c, 5, 60, 84
13, 443019, Note_on_c, 5, 76, 0
13, 443019, Note_on_c, 5, 60, 0
13, 443040, Note_on_c, 5, 76, 84
13, 443040, Note_on_c, 5, 60, 84
13, 443159, Note_on_c, 5, 76, 0
13, 443159, Note_on_c, 5, 60, 0
13, 444000, Note_on_c, 5, 72, 84
13, 444000, Note_on_c, 5, 64, 84
13, 444119, Note_on_c, 5, 72, 0
13, 444119, Note_on_c, 5, 64, 0
13, 444960, Note_on_c, 5, 72, 84
13, 444960, Note_on_c, 5, 64, 84
13, 445079, Note_on_c, 5, 72, 0
13, 445079, Note_on_c, 5, 64, 0
13, 445920, Note_on_c, 5, 72, 84
13, 445920, Note_on_c, 5, 64, 84
13, 446039, Note_on_c, 5, 72, 0
13, 446039, Note_on_c, 5, 64, 0
13, 446400, Note_on_c, 5, 72, 84
13, 446400, Note_on_c, 5, 64, 84
13, 446519, Note_on_c, 5, 72, 0
13, 446519, Note_on_c, 5, 64, 0
13, 446880, Note_on_c, 5, 72, 84
13, 446880, Note_on_c, 5, 64, 84
13, 446999, Note_on_c, 5, 72, 0
13, 446999, Note_on_c, 5, 64, 0
13, 447840, Note_on_c, 5, 72, 84
13, 447840, Note_on_c, 5, 64, 84
13, 447959, Note_on_c, 5, 72, 0
13, 447959, Note_on_c, 5, 64, 0
13, 448800, Note_on_c, 5, 60, 84
13, 451199, Note_on_c, 5, 60, 0
13, 451199, End_track
14, 0, Start_track
14, 0, Title_t, "Timpani"
14, 0, MIDI_port, 0
14, 0, Program_c, 6, 47
14, 0, Control_c, 6, 7, 96
14, 0, Control_c, 6, 10, 25
14, 0, Control_c, 6, 11, 127
14, 0, Note_on_c, 6, 48, 84
14, 239, Note_on_c, 6, 48, 0
14, 480, Note_on_c, 6, 48, 84
14, 719, Note_on_c, 6, 48, 0
14, 960, Note_on_c, 6, 48, 84
14, 1199, Note_on_c, 6, 48, 0
14, 1680, Note_on_c, 6, 43, 84
14, 1799, Note_on_c, 6, 43, 0
14, 1920, Note_on_c, 6, 48, 84
14, 2039, Note_on_c, 6, 48, 0
14, 2160, Note_on_c, 6, 43, 84
14, 2279, Note_on_c, 6, 43, 0
14, 2400, Note_on_c, 6, 48, 84
14, 2519, Note_on_c, 6, 48, 0
14, 2640, Note_on_c, 6, 43, 84
14, 2759, Note_on_c, 6, 43, 0
14, 2880, Note_on_c, 6, 48, 84
14, 3119, Note_on_c, 6, 48, 0
14, 3600, Note_on_c, 6, 48, 84
14, 3779, Note_on_c, 6, 48, 0
14, 3780, Note_on_c, 6, 48, 84
14, 3839, Note_on_c, 6, 48, 0
14, 3840, Note_on_c, 6, 43, 84
14, 4079, Note_on_c, 6, 43, 0
14, 4560, Note_on_c, 6, 43, 84
14, 4739, Note_on_c, 6, 43, 0
14, 4740, Note_on_c, 6, 43, 84
14, 4799, Note_on_c, 6, 43, 0
14, 4800, Note_on_c, 6, 48, 84
14, 5039, Note_on_c, 6, 48, 0
14, 5400, Note_on_c, 6, 48, 84
14, 5519, Note_on_c, 6, 48, 0
14, 5520, Note_on_c, 6, 48, 84
14, 5639, Note_on_c, 6, 48, 0
14, 5640, Note_on_c, 6, 48, 84
14, 5759, Note_on_c, 6, 48, 0
14, 5760, Note_on_c, 6, 48, 84
14, 5999, Note_on_c, 6, 48, 0
14, 6000, Note_on_c, 6, 48, 84
14, 6119, Note_on_c, 6, 48, 0
14, 6120, Note_on_c, 6, 48, 84
14, 6239, Note_on_c, 6, 48, 0
14, 6240, Note_on_c, 6, 48, 84
14, 6479, Note_on_c, 6, 48, 0
14, 6480, Note_on_c, 6, 48, 84
14, 6599, Note_on_c, 6, 48, 0
14, 6600, Note_on_c, 6, 48, 84
14, 6719, Note_on_c, 6, 48, 0
14, 6720, Note_on_c, 6, 48, 84
14, 6779, Note_on_c, 6, 48, 0
14, 6780, Note_on_c, 6, 48, 84
14, 6839, Note_on_c, 6, 48, 0
14, 6840, Note_on_c, 6, 48, 84
14, 6899, Note_on_c, 6, 48, 0
14, 6900, Note_on_c, 6, 48, 84
14, 6959, Note_on_c, 6, 48, 0
14, 6960, Note_on_c, 6, 48, 84
14, 7019, Note_on_c, 6, 48, 0
14, 7020, Note_on_c, 6, 48, 84
14, 7079, Note_on_c, 6, 48, 0
14, 7080, Note_on_c, 6, 48, 84
14, 7139, Note_on_c, 6, 48, 0
14, 7140, Note_on_c, 6, 48, 84
14, 7199, Note_on_c, 6, 48, 0
14, 7200, Note_on_c, 6, 48, 84
14, 7319, Note_on_c, 6, 48, 0
14, 7320, Note_on_c, 6, 48, 84
14, 7439, Note_on_c, 6, 48, 0
14, 7440, Note_on_c, 6, 48, 84
14, 7559, Note_on_c, 6, 48, 0
14, 7560, Note_on_c, 6, 48, 84
14, 7679, Note_on_c, 6, 48, 0
14, 7680, Note_on_c, 6, 48, 84
14, 7919, Note_on_c, 6, 48, 0
14, 7920, Note_on_c, 6, 48, 84
14, 8039, Note_on_c, 6, 48, 0
14, 8040, Note_on_c, 6, 48, 84
14, 8159, Note_on_c, 6, 48, 0
14, 8160, Note_on_c, 6, 48, 84
14, 8399, Note_on_c, 6, 48, 0
14, 8400, Note_on_c, 6, 48, 84
14, 8519, Note_on_c, 6, 48, 0
14, 8520, Note_on_c, 6, 48, 84
14, 8639, Note_on_c, 6, 48, 0
14, 8640, Note_on_c, 6, 48, 84
14, 8699, Note_on_c, 6, 48, 0
14, 8700, Note_on_c, 6, 48, 84
14, 8759, Note_on_c, 6, 48, 0
14, 8760, Note_on_c, 6, 48, 84
14, 8819, Note_on_c, 6, 48, 0
14, 8820, Note_on_c, 6, 48, 84
14, 8879, Note_on_c, 6, 48, 0
14, 8880, Note_on_c, 6, 48, 84
14, 8939, Note_on_c, 6, 48, 0
14, 8940, Note_on_c, 6, 48, 84
14, 8999, Note_on_c, 6, 48, 0
14, 9000, Note_on_c, 6, 48, 84
14, 9059, Note_on_c, 6, 48, 0
14, 9060, Note_on_c, 6, 48, 84
14, 9119, Note_on_c, 6, 48, 0
14, 9120, Note_on_c, 6, 48, 84
14, 9239, Note_on_c, 6, 48, 0
14, 9240, Note_on_c, 6, 48, 84
14, 9359, Note_on_c, 6, 48, 0
14, 9360, Note_on_c, 6, 48, 84
14, 9479, Note_on_c, 6, 48, 0
14, 9480, Note_on_c, 6, 48, 84
14, 9599, Note_on_c, 6, 48, 0
14, 9600, Note_on_c, 6, 48, 84
14, 9839, Note_on_c, 6, 48, 0
14, 9840, Note_on_c, 6, 48, 84
14, 9959, Note_on_c, 6, 48, 0
14, 9960, Note_on_c, 6, 48, 84
14, 10079, Note_on_c, 6, 48, 0
14, 10080, Note_on_c, 6, 48, 84
14, 10319, Note_on_c, 6, 48, 0
14, 10320, Note_on_c, 6, 48, 84
14, 10439, Note_on_c, 6, 48, 0
14, 10440, Note_on_c, 6, 48, 84
14, 10559, Note_on_c, 6, 48, 0
14, 10560, Note_on_c, 6, 48, 84
14, 10619, Note_on_c, 6, 48, 0
14, 10620, Note_on_c, 6, 48, 84
14, 10679, Note_on_c, 6, 48, 0
14, 10680, Note_on_c, 6, 48, 84
14, 10739, Note_on_c, 6, 48, 0
14, 10740, Note_on_c, 6, 48, 84
14, 10799, Note_on_c, 6, 48, 0
14, 10800, Note_on_c, 6, 48, 84
14, 10859, Note_on_c, 6, 48, 0
14, 10860, Note_on_c, 6, 48, 84
14, 10919, Note_on_c, 6, 48, 0
14, 10920, Note_on_c, 6, 48, 84
14, 10979, Note_on_c, 6, 48, 0
14, 10980, Note_on_c, 6, 48, 84
14, 11039, Note_on_c, 6, 48, 0
14, 11040, Note_on_c, 6, 48, 84
14, 11279, Note_on_c, 6, 48, 0
14, 11280, Note_on_c, 6, 48, 84
14, 11459, Note_on_c, 6, 48, 0
14, 11460, Note_on_c, 6, 48, 84
14, 11519, Note_on_c, 6, 48, 0
14, 11520, Note_on_c, 6, 43, 84
14, 11759, Note_on_c, 6, 43, 0
14, 12000, Note_on_c, 6, 48, 84
14, 12239, Note_on_c, 6, 48, 0
14, 12480, Note_on_c, 6, 43, 84
14, 12719, Note_on_c, 6, 43, 0
14, 12720, Note_on_c, 6, 43, 84
14, 12959, Note_on_c, 6, 43, 0
14, 13200, Note_on_c, 6, 48, 84
14, 13379, Note_on_c, 6, 48, 0
14, 13380, Note_on_c, 6, 48, 84
14, 13439, Note_on_c, 6, 48, 0
14, 13440, Note_on_c, 6, 43, 84
14, 13679, Note_on_c, 6, 43, 0
14, 13920, Note_on_c, 6, 48, 84
14, 14159, Note_on_c, 6, 48, 0
14, 14400, Note_on_c, 6, 43, 84
14, 14639, Note_on_c, 6, 43, 0
14, 14640, Note_on_c, 6, 43, 84
14, 14879, Note_on_c, 6, 43, 0
14, 15120, Note_on_c, 6, 48, 84
14, 15299, Note_on_c, 6, 48, 0
14, 15300, Note_on_c, 6, 48, 84
14, 15359, Note_on_c, 6, 48, 0
14, 15360, Note_on_c, 6, 43, 84
14, 15539, Note_on_c, 6, 43, 0
14, 15540, Note_on_c, 6, 43, 84
14, 15599, Note_on_c, 6, 43, 0
14, 15600, Note_on_c, 6, 43, 84
14, 15779, Note_on_c, 6, 43, 0
14, 15780, Note_on_c, 6, 43, 84
14, 15839, Note_on_c, 6, 43, 0
14, 15840, Note_on_c, 6, 48, 84
14, 16019, Note_on_c, 6, 48, 0
14, 16020, Note_on_c, 6, 48, 84
14, 16079, Note_on_c, 6, 48, 0
14, 16080, Note_on_c, 6, 48, 84
14, 16259, Note_on_c, 6, 48, 0
14, 16260, Note_on_c, 6, 48, 84
14, 16319, Note_on_c, 6, 48, 0
14, 16320, Note_on_c, 6, 43, 84
14, 16499, Note_on_c, 6, 43, 0
14, 16500, Note_on_c, 6, 43, 84
14, 16559, Note_on_c, 6, 43, 0
14, 16560, Note_on_c, 6, 43, 84
14, 16799, Note_on_c, 6, 43, 0
14, 17280, Note_on_c, 6, 43, 84
14, 17459, Note_on_c, 6, 43, 0
14, 17460, Note_on_c, 6, 43, 84
14, 17519, Note_on_c, 6, 43, 0
14, 17520, Note_on_c, 6, 43, 84
14, 17759, Note_on_c, 6, 43, 0
14, 18240, Note_on_c, 6, 43, 84
14, 18419, Note_on_c, 6, 43, 0
14, 18420, Note_on_c, 6, 43, 84
14, 18479, Note_on_c, 6, 43, 0
14, 18480, Note_on_c, 6, 43, 84
14, 18719, Note_on_c, 6, 43, 0
14, 18720, Note_on_c, 6, 43, 84
14, 18899, Note_on_c, 6, 43, 0
14, 18900, Note_on_c, 6, 43, 84
14, 18959, Note_on_c, 6, 43, 0
14, 18960, Note_on_c, 6, 43, 84
14, 19199, Note_on_c, 6, 43, 0
14, 19200, Note_on_c, 6, 43, 84
14, 19379, Note_on_c, 6, 43, 0
14, 19380, Note_on_c, 6, 43, 84
14, 19439, Note_on_c, 6, 43, 0
14, 19440, Note_on_c, 6, 43, 84
14, 19679, Note_on_c, 6, 43, 0
14, 19680, Note_on_c, 6, 43, 84
14, 19859, Note_on_c, 6, 43, 0
14, 19860, Note_on_c, 6, 43, 84
14, 19919, Note_on_c, 6, 43, 0
14, 19920, Note_on_c, 6, 43, 84
14, 20159, Note_on_c, 6, 43, 0
14, 20160, Note_on_c, 6, 43, 84
14, 20279, Note_on_c, 6, 43, 0
14, 25920, Note_on_c, 6, 43, 84
14, 25979, Note_on_c, 6, 43, 0
14, 25980, Note_on_c, 6, 43, 84
14, 26039, Note_on_c, 6, 43, 0
14, 26040, Note_on_c, 6, 43, 84
14, 26099, Note_on_c, 6, 43, 0
14, 26100, Note_on_c, 6, 43, 84
14, 26159, Note_on_c, 6, 43, 0
14, 26160, Note_on_c, 6, 43, 84
14, 26219, Note_on_c, 6, 43, 0
14, 26220, Note_on_c, 6, 43, 84
14, 26279, Note_on_c, 6, 43, 0
14, 26280, Note_on_c, 6, 43, 84
14, 26339, Note_on_c, 6, 43, 0
14, 26340, Note_on_c, 6, 43, 84
14, 26399, Note_on_c, 6, 43, 0
14, 26400, Note_on_c, 6, 43, 84
14, 26459, Note_on_c, 6, 43, 0
14, 26460, Note_on_c, 6, 43, 84
14, 26519, Note_on_c, 6, 43, 0
14, 26520, Note_on_c, 6, 43, 84
14, 26579, Note_on_c, 6, 43, 0
14, 26580, Note_on_c, 6, 43, 84
14, 26639, Note_on_c, 6, 43, 0
14, 26640, Note_on_c, 6, 43, 84
14, 26699, Note_on_c, 6, 43, 0
14, 26700, Note_on_c, 6, 43, 84
14, 26759, Note_on_c, 6, 43, 0
14, 26760, Note_on_c, 6, 43, 84
14, 26819, Note_on_c, 6, 43, 0
14, 26820, Note_on_c, 6, 43, 84
14, 26879, Note_on_c, 6, 43, 0
14, 26880, Note_on_c, 6, 43, 84
14, 26939, Note_on_c, 6, 43, 0
14, 26940, Note_on_c, 6, 43, 84
14, 26999, Note_on_c, 6, 43, 0
14, 27000, Note_on_c, 6, 43, 84
14, 27059, Note_on_c, 6, 43, 0
14, 27060, Note_on_c, 6, 43, 84
14, 27119, Note_on_c, 6, 43, 0
14, 27120, Note_on_c, 6, 43, 84
14, 27179, Note_on_c, 6, 43, 0
14, 27180, Note_on_c, 6, 43, 84
14, 27239, Note_on_c, 6, 43, 0
14, 27240, Note_on_c, 6, 43, 84
14, 27299, Note_on_c, 6, 43, 0
14, 27300, Note_on_c, 6, 43, 84
14, 27359, Note_on_c, 6, 43, 0
14, 27360, Note_on_c, 6, 43, 84
14, 27419, Note_on_c, 6, 43, 0
14, 27420, Note_on_c, 6, 43, 84
14, 27479, Note_on_c, 6, 43, 0
14, 27480, Note_on_c, 6, 43, 84
14, 27539, Note_on_c, 6, 43, 0
14, 27540, Note_on_c, 6, 43, 84
14, 27599, Note_on_c, 6, 43, 0
14, 27600, Note_on_c, 6, 43, 84
14, 27659, Note_on_c, 6, 43, 0
14, 27660, Note_on_c, 6, 43, 84
14, 27719, Note_on_c, 6, 43, 0
14, 27720, Note_on_c, 6, 43, 84
14, 27779, Note_on_c, 6, 43, 0
14, 27780, Note_on_c, 6, 43, 84
14, 27839, Note_on_c, 6, 43, 0
14, 27840, Note_on_c, 6, 43, 84
14, 28079, Note_on_c, 6, 43, 0
14, 29760, Note_on_c, 6, 48, 84
14, 29819, Note_on_c, 6, 48, 0
14, 29820, Note_on_c, 6, 48, 84
14, 29879, Note_on_c, 6, 48, 0
14, 29880, Note_on_c, 6, 48, 84
14, 29939, Note_on_c, 6, 48, 0
14, 29940, Note_on_c, 6, 48, 84
14, 29999, Note_on_c, 6, 48, 0
14, 30000, Note_on_c, 6, 48, 84
14, 30059, Note_on_c, 6, 48, 0
14, 30060, Note_on_c, 6, 48, 84
14, 30119, Note_on_c, 6, 48, 0
14, 30120, Note_on_c, 6, 48, 84
14, 30179, Note_on_c, 6, 48, 0
14, 30180, Note_on_c, 6, 48, 84
14, 30239, Note_on_c, 6, 48, 0
14, 30240, Note_on_c, 6, 48, 84
14, 30299, Note_on_c, 6, 48, 0
14, 30300, Note_on_c, 6, 48, 84
14, 30359, Note_on_c, 6, 48, 0
14, 30360, Note_on_c, 6, 48, 84
14, 30419, Note_on_c, 6, 48, 0
14, 30420, Note_on_c, 6, 48, 84
14, 30479, Note_on_c, 6, 48, 0
14, 30480, Note_on_c, 6, 48, 84
14, 30539, Note_on_c, 6, 48, 0
14, 30540, Note_on_c, 6, 48, 84
14, 30599, Note_on_c, 6, 48, 0
14, 30600, Note_on_c, 6, 48, 84
14, 30659, Note_on_c, 6, 48, 0
14, 30660, Note_on_c, 6, 48, 84
14, 30719, Note_on_c, 6, 48, 0
14, 30720, Note_on_c, 6, 48, 84
14, 30779, Note_on_c, 6, 48, 0
14, 30780, Note_on_c, 6, 48, 84
14, 30839, Note_on_c, 6, 48, 0
14, 30840, Note_on_c, 6, 48, 84
14, 30899, Note_on_c, 6, 48, 0
14, 30900, Note_on_c, 6, 48, 84
14, 30959, Note_on_c, 6, 48, 0
14, 30960, Note_on_c, 6, 48, 84
14, 31019, Note_on_c, 6, 48, 0
14, 31020, Note_on_c, 6, 48, 84
14, 31079, Note_on_c, 6, 48, 0
14, 31080, Note_on_c, 6, 48, 84
14, 31139, Note_on_c, 6, 48, 0
14, 31140, Note_on_c, 6, 48, 84
14, 31199, Note_on_c, 6, 48, 0
14, 31200, Note_on_c, 6, 48, 84
14, 31259, Note_on_c, 6, 48, 0
14, 31260, Note_on_c, 6, 48, 84
14, 31319, Note_on_c, 6, 48, 0
14, 31320, Note_on_c, 6, 48, 84
14, 31379, Note_on_c, 6, 48, 0
14, 31380, Note_on_c, 6, 48, 84
14, 31439, Note_on_c, 6, 48, 0
14, 31440, Note_on_c, 6, 48, 84
14, 31499, Note_on_c, 6, 48, 0
14, 31500, Note_on_c, 6, 48, 84
14, 31559, Note_on_c, 6, 48, 0
14, 31560, Note_on_c, 6, 48, 84
14, 31619, Note_on_c, 6, 48, 0
14, 31620, Note_on_c, 6, 48, 84
14, 31679, Note_on_c, 6, 48, 0
14, 31680, Note_on_c, 6, 48, 84
14, 31919, Note_on_c, 6, 48, 0
14, 32640, Note_on_c, 6, 48, 84
14, 32879, Note_on_c, 6, 48, 0
14, 33600, Note_on_c, 6, 48, 84
14, 33839, Note_on_c, 6, 48, 0
14, 42240, Note_on_c, 6, 43, 84
14, 42479, Note_on_c, 6, 43, 0
14, 42720, Note_on_c, 6, 43, 84
14, 42959, Note_on_c, 6, 43, 0
14, 43200, Note_on_c, 6, 43, 84
14, 43439, Note_on_c, 6, 43, 0
14, 46080, Note_on_c, 6, 43, 76
14, 46319, Note_on_c, 6, 43, 0
14, 46320, Note_on_c, 6, 43, 76
14, 46399, Note_on_c, 6, 43, 0
14, 46400, Note_on_c, 6, 43, 76
14, 46479, Note_on_c, 6, 43, 0
14, 46480, Note_on_c, 6, 43, 76
14, 46559, Note_on_c, 6, 43, 0
14, 46560, Note_on_c, 6, 43, 76
14, 46799, Note_on_c, 6, 43, 0
14, 46800, Note_on_c, 6, 43, 76
14, 46879, Note_on_c, 6, 43, 0
14, 46880, Note_on_c, 6, 43, 76
14, 46959, Note_on_c, 6, 43, 0
14, 46960, Note_on_c, 6, 43, 76
14, 47039, Note_on_c, 6, 43, 0
14, 47040, Note_on_c, 6, 43, 76
14, 47279, Note_on_c, 6, 43, 0
14, 47280, Note_on_c, 6, 43, 76
14, 47359, Note_on_c, 6, 43, 0
14, 47360, Note_on_c, 6, 43, 76
14, 47439, Note_on_c, 6, 43, 0
14, 47440, Note_on_c, 6, 43, 76
14, 47519, Note_on_c, 6, 43, 0
14, 47520, Note_on_c, 6, 43, 76
14, 47759, Note_on_c, 6, 43, 0
14, 54720, Note_on_c, 6, 48, 84
14, 54779, Note_on_c, 6, 48, 0
14, 54780, Note_on_c, 6, 48, 84
14, 54839, Note_on_c, 6, 48, 0
14, 54840, Note_on_c, 6, 48, 84
14, 54899, Note_on_c, 6, 48, 0
14, 54900, Note_on_c, 6, 48, 84
14, 54959, Note_on_c, 6, 48, 0
14, 54960, Note_on_c, 6, 48, 84
14, 55019, Note_on_c, 6, 48, 0
14, 55020, Note_on_c, 6, 48, 84
14, 55079, Note_on_c, 6, 48, 0
14, 55080, Note_on_c, 6, 48, 84
14, 55139, Note_on_c, 6, 48, 0
14, 55140, Note_on_c, 6, 48, 84
14, 55199, Note_on_c, 6, 48, 0
14, 55200, Note_on_c, 6, 48, 84
14, 55319, Note_on_c, 6, 48, 0
14, 55320, Note_on_c, 6, 48, 84
14, 55439, Note_on_c, 6, 48, 0
14, 55440, Note_on_c, 6, 48, 84
14, 55559, Note_on_c, 6, 48, 0
14, 55560, Note_on_c, 6, 48, 84
14, 55679, Note_on_c, 6, 48, 0
14, 55680, Note_on_c, 6, 48, 84
14, 55799, Note_on_c, 6, 48, 0
14, 55800, Note_on_c, 6, 48, 84
14, 55919, Note_on_c, 6, 48, 0
14, 55920, Note_on_c, 6, 48, 84
14, 56039, Note_on_c, 6, 48, 0
14, 56040, Note_on_c, 6, 48, 84
14, 56159, Note_on_c, 6, 48, 0
14, 56160, Note_on_c, 6, 48, 84
14, 56279, Note_on_c, 6, 48, 0
14, 56280, Note_on_c, 6, 48, 84
14, 56399, Note_on_c, 6, 48, 0
14, 56400, Note_on_c, 6, 48, 84
14, 56519, Note_on_c, 6, 48, 0
14, 56520, Note_on_c, 6, 48, 84
14, 56639, Note_on_c, 6, 48, 0
14, 56640, Note_on_c, 6, 48, 84
14, 56879, Note_on_c, 6, 48, 0
14, 56880, Note_on_c, 6, 43, 84
14, 57119, Note_on_c, 6, 43, 0
14, 57120, Note_on_c, 6, 43, 84
14, 57359, Note_on_c, 6, 43, 0
14, 57360, Note_on_c, 6, 43, 84
14, 57599, Note_on_c, 6, 43, 0
14, 57600, Note_on_c, 6, 43, 84
14, 57839, Note_on_c, 6, 43, 0
14, 58320, Note_on_c, 6, 43, 84
14, 58559, Note_on_c, 6, 43, 0
14, 58560, Note_on_c, 6, 48, 84
14, 58799, Note_on_c, 6, 48, 0
14, 68160, Note_on_c, 6, 43, 76
14, 68399, Note_on_c, 6, 43, 0
14, 70080, Note_on_c, 6, 43, 76
14, 70319, Note_on_c, 6, 43, 0
14, 72720, Note_on_c, 6, 43, 76
14, 72959, Note_on_c, 6, 43, 0
14, 72960, Note_on_c, 6, 48, 76
14, 73199, Note_on_c, 6, 48, 0
14, 73200, Note_on_c, 6, 48, 80
14, 73439, Note_on_c, 6, 48, 0
14, 73440, Note_on_c, 6, 48, 80
14, 73679, Note_on_c, 6, 48, 0
14, 73680, Note_on_c, 6, 48, 80
14, 73919, Note_on_c, 6, 48, 0
14, 73920, Note_on_c, 6, 48, 80
14, 74159, Note_on_c, 6, 48, 0
14, 74160, Note_on_c, 6, 48, 80
14, 74399, Note_on_c, 6, 48, 0
14, 74400, Note_on_c, 6, 48, 80
14, 74639, Note_on_c, 6, 48, 0
14, 74640, Note_on_c, 6, 48, 80
14, 74879, Note_on_c, 6, 48, 0
14, 74880, Note_on_c, 6, 48, 80
14, 75119, Note_on_c, 6, 48, 0
14, 75120, Note_on_c, 6, 48, 80
14, 75359, Note_on_c, 6, 48, 0
14, 75360, Note_on_c, 6, 48, 80
14, 75599, Note_on_c, 6, 48, 0
14, 75600, Note_on_c, 6, 48, 80
14, 75839, Note_on_c, 6, 48, 0
14, 75840, Note_on_c, 6, 48, 84
14, 75899, Note_on_c, 6, 48, 0
14, 75900, Note_on_c, 6, 48, 84
14, 75959, Note_on_c, 6, 48, 0
14, 75960, Note_on_c, 6, 48, 84
14, 76019, Note_on_c, 6, 48, 0
14, 76020, Note_on_c, 6, 48, 84
14, 76079, Note_on_c, 6, 48, 0
14, 76080, Note_on_c, 6, 48, 84
14, 76139, Note_on_c, 6, 48, 0
14, 76140, Note_on_c, 6, 48, 84
14, 76199, Note_on_c, 6, 48, 0
14, 76200, Note_on_c, 6, 48, 84
14, 76259, Note_on_c, 6, 48, 0
14, 76260, Note_on_c, 6, 48, 84
14, 76319, Note_on_c, 6, 48, 0
14, 76320, Note_on_c, 6, 48, 84
14, 76379, Note_on_c, 6, 48, 0
14, 76380, Note_on_c, 6, 48, 84
14, 76439, Note_on_c, 6, 48, 0
14, 76440, Note_on_c, 6, 48, 84
14, 76499, Note_on_c, 6, 48, 0
14, 76500, Note_on_c, 6, 48, 84
14, 76559, Note_on_c, 6, 48, 0
14, 76560, Note_on_c, 6, 48, 84
14, 76619, Note_on_c, 6, 48, 0
14, 76620, Note_on_c, 6, 48, 84
14, 76679, Note_on_c, 6, 48, 0
14, 76680, Note_on_c, 6, 48, 84
14, 76739, Note_on_c, 6, 48, 0
14, 76740, Note_on_c, 6, 48, 84
14, 76799, Note_on_c, 6, 48, 0
14, 76800, Note_on_c, 6, 48, 84
14, 76859, Note_on_c, 6, 48, 0
14, 76860, Note_on_c, 6, 48, 84
14, 76919, Note_on_c, 6, 48, 0
14, 76920, Note_on_c, 6, 48, 84
14, 76979, Note_on_c, 6, 48, 0
14, 76980, Note_on_c, 6, 48, 84
14, 77039, Note_on_c, 6, 48, 0
14, 77040, Note_on_c, 6, 48, 84
14, 77099, Note_on_c, 6, 48, 0
14, 77100, Note_on_c, 6, 48, 84
14, 77159, Note_on_c, 6, 48, 0
14, 77160, Note_on_c, 6, 48, 84
14, 77219, Note_on_c, 6, 48, 0
14, 77220, Note_on_c, 6, 48, 84
14, 77279, Note_on_c, 6, 48, 0
14, 77280, Note_on_c, 6, 48, 84
14, 77339, Note_on_c, 6, 48, 0
14, 77340, Note_on_c, 6, 48, 84
14, 77399, Note_on_c, 6, 48, 0
14, 77400, Note_on_c, 6, 48, 84
14, 77459, Note_on_c, 6, 48, 0
14, 77460, Note_on_c, 6, 48, 84
14, 77519, Note_on_c, 6, 48, 0
14, 77520, Note_on_c, 6, 48, 84
14, 77579, Note_on_c, 6, 48, 0
14, 77580, Note_on_c, 6, 48, 84
14, 77639, Note_on_c, 6, 48, 0
14, 77640, Note_on_c, 6, 48, 84
14, 77699, Note_on_c, 6, 48, 0
14, 77700, Note_on_c, 6, 48, 84
14, 77759, Note_on_c, 6, 48, 0
14, 77760, Note_on_c, 6, 43, 84
14, 77999, Note_on_c, 6, 43, 0
14, 78480, Note_on_c, 6, 43, 84
14, 78599, Note_on_c, 6, 43, 0
14, 78600, Note_on_c, 6, 43, 84
14, 78719, Note_on_c, 6, 43, 0
14, 78720, Note_on_c, 6, 43, 84
14, 78959, Note_on_c, 6, 43, 0
14, 79440, Note_on_c, 6, 43, 84
14, 79559, Note_on_c, 6, 43, 0
14, 79560, Note_on_c, 6, 43, 84
14, 79679, Note_on_c, 6, 43, 0
14, 79680, Note_on_c, 6, 43, 84
14, 79919, Note_on_c, 6, 43, 0
14, 79920, Note_on_c, 6, 43, 84
14, 80039, Note_on_c, 6, 43, 0
14, 80040, Note_on_c, 6, 43, 84
14, 80159, Note_on_c, 6, 43, 0
14, 80160, Note_on_c, 6, 43, 84
14, 80399, Note_on_c, 6, 43, 0
14, 80400, Note_on_c, 6, 43, 84
14, 80519, Note_on_c, 6, 43, 0
14, 80520, Note_on_c, 6, 43, 84
14, 80639, Note_on_c, 6, 43, 0
14, 80640, Note_on_c, 6, 43, 84
14, 80759, Note_on_c, 6, 43, 0
14, 80760, Note_on_c, 6, 43, 84
14, 80879, Note_on_c, 6, 43, 0
14, 80880, Note_on_c, 6, 43, 84
14, 81119, Note_on_c, 6, 43, 0
14, 81360, Note_on_c, 6, 43, 84
14, 81599, Note_on_c, 6, 43, 0
14, 81600, Note_on_c, 6, 48, 84
14, 81839, Note_on_c, 6, 48, 0
14, 82080, Note_on_c, 6, 48, 84
14, 82319, Note_on_c, 6, 48, 0
14, 82560, Note_on_c, 6, 48, 84
14, 82799, Note_on_c, 6, 48, 0
14, 83280, Note_on_c, 6, 43, 84
14, 83399, Note_on_c, 6, 43, 0
14, 83520, Note_on_c, 6, 48, 84
14, 83639, Note_on_c, 6, 48, 0
14, 83760, Note_on_c, 6, 43, 84
14, 83879, Note_on_c, 6, 43, 0
14, 84000, Note_on_c, 6, 48, 84
14, 84119, Note_on_c, 6, 48, 0
14, 84240, Note_on_c, 6, 43, 84
14, 84359, Note_on_c, 6, 43, 0
14, 84480, Note_on_c, 6, 48, 84
14, 84719, Note_on_c, 6, 48, 0
14, 85200, Note_on_c, 6, 48, 84
14, 85379, Note_on_c, 6, 48, 0
14, 85380, Note_on_c, 6, 48, 84
14, 85439, Note_on_c, 6, 48, 0
14, 85440, Note_on_c, 6, 43, 84
14, 85679, Note_on_c, 6, 43, 0
14, 86160, Note_on_c, 6, 43, 84
14, 86339, Note_on_c, 6, 43, 0
14, 86340, Note_on_c, 6, 43, 84
14, 86399, Note_on_c, 6, 43, 0
14, 86400, Note_on_c, 6, 48, 84
14, 86639, Note_on_c, 6, 48, 0
14, 87000, Note_on_c, 6, 48, 84
14, 87119, Note_on_c, 6, 48, 0
14, 87120, Note_on_c, 6, 48, 84
14, 87239, Note_on_c, 6, 48, 0
14, 87240, Note_on_c, 6, 48, 84
14, 87359, Note_on_c, 6, 48, 0
14, 87360, Note_on_c, 6, 48, 84
14, 87599, Note_on_c, 6, 48, 0
14, 87600, Note_on_c, 6, 48, 84
14, 87719, Note_on_c, 6, 48, 0
14, 87720, Note_on_c, 6, 48, 84
14, 87839, Note_on_c, 6, 48, 0
14, 87840, Note_on_c, 6, 48, 84
14, 88079, Note_on_c, 6, 48, 0
14, 88080, Note_on_c, 6, 48, 84
14, 88199, Note_on_c, 6, 48, 0
14, 88200, Note_on_c, 6, 48, 84
14, 88319, Note_on_c, 6, 48, 0
14, 88320, Note_on_c, 6, 48, 84
14, 88379, Note_on_c, 6, 48, 0
14, 88380, Note_on_c, 6, 48, 84
14, 88439, Note_on_c, 6, 48, 0
14, 88440, Note_on_c, 6, 48, 84
14, 88499, Note_on_c, 6, 48, 0
14, 88500, Note_on_c, 6, 48, 84
14, 88559, Note_on_c, 6, 48, 0
14, 88560, Note_on_c, 6, 48, 84
14, 88619, Note_on_c, 6, 48, 0
14, 88620, Note_on_c, 6, 48, 84
14, 88679, Note_on_c, 6, 48, 0
14, 88680, Note_on_c, 6, 48, 84
14, 88739, Note_on_c, 6, 48, 0
14, 88740, Note_on_c, 6, 48, 84
14, 88799, Note_on_c, 6, 48, 0
14, 88800, Note_on_c, 6, 48, 84
14, 88919, Note_on_c, 6, 48, 0
14, 88920, Note_on_c, 6, 48, 84
14, 89039, Note_on_c, 6, 48, 0
14, 89040, Note_on_c, 6, 48, 84
14, 89159, Note_on_c, 6, 48, 0
14, 89160, Note_on_c, 6, 48, 84
14, 89279, Note_on_c, 6, 48, 0
14, 89280, Note_on_c, 6, 48, 84
14, 89519, Note_on_c, 6, 48, 0
14, 89520, Note_on_c, 6, 48, 84
14, 89639, Note_on_c, 6, 48, 0
14, 89640, Note_on_c, 6, 48, 84
14, 89759, Note_on_c, 6, 48, 0
14, 89760, Note_on_c, 6, 48, 84
14, 89999, Note_on_c, 6, 48, 0
14, 90000, Note_on_c, 6, 48, 84
14, 90119, Note_on_c, 6, 48, 0
14, 90120, Note_on_c, 6, 48, 84
14, 90239, Note_on_c, 6, 48, 0
14, 90240, Note_on_c, 6, 48, 84
14, 90299, Note_on_c, 6, 48, 0
14, 90300, Note_on_c, 6, 48, 84
14, 90359, Note_on_c, 6, 48, 0
14, 90360, Note_on_c, 6, 48, 84
14, 90419, Note_on_c, 6, 48, 0
14, 90420, Note_on_c, 6, 48, 84
14, 90479, Note_on_c, 6, 48, 0
14, 90480, Note_on_c, 6, 48, 84
14, 90539, Note_on_c, 6, 48, 0
14, 90540, Note_on_c, 6, 48, 84
14, 90599, Note_on_c, 6, 48, 0
14, 90600, Note_on_c, 6, 48, 84
14, 90659, Note_on_c, 6, 48, 0
14, 90660, Note_on_c, 6, 48, 84
14, 90719, Note_on_c, 6, 48, 0
14, 90720, Note_on_c, 6, 48, 84
14, 90839, Note_on_c, 6, 48, 0
14, 90840, Note_on_c, 6, 48, 84
14, 90959, Note_on_c, 6, 48, 0
14, 90960, Note_on_c, 6, 48, 84
14, 91079, Note_on_c, 6, 48, 0
14, 91080, Note_on_c, 6, 48, 84
14, 91199, Note_on_c, 6, 48, 0
14, 91200, Note_on_c, 6, 48, 84
14, 91439, Note_on_c, 6, 48, 0
14, 91440, Note_on_c, 6, 48, 84
14, 91559, Note_on_c, 6, 48, 0
14, 91560, Note_on_c, 6, 48, 84
14, 91679, Note_on_c, 6, 48, 0
14, 91680, Note_on_c, 6, 48, 84
14, 91919, Note_on_c, 6, 48, 0
14, 91920, Note_on_c, 6, 48, 84
14, 92039, Note_on_c, 6, 48, 0
14, 92040, Note_on_c, 6, 48, 84
14, 92159, Note_on_c, 6, 48, 0
14, 92160, Note_on_c, 6, 48, 84
14, 92219, Note_on_c, 6, 48, 0
14, 92220, Note_on_c, 6, 48, 84
14, 92279, Note_on_c, 6, 48, 0
14, 92280, Note_on_c, 6, 48, 84
14, 92339, Note_on_c, 6, 48, 0
14, 92340, Note_on_c, 6, 48, 84
14, 92399, Note_on_c, 6, 48, 0
14, 92400, Note_on_c, 6, 48, 84
14, 92459, Note_on_c, 6, 48, 0
14, 92460, Note_on_c, 6, 48, 84
14, 92519, Note_on_c, 6, 48, 0
14, 92520, Note_on_c, 6, 48, 84
14, 92579, Note_on_c, 6, 48, 0
14, 92580, Note_on_c, 6, 48, 84
14, 92639, Note_on_c, 6, 48, 0
14, 92640, Note_on_c, 6, 48, 84
14, 92879, Note_on_c, 6, 48, 0
14, 92880, Note_on_c, 6, 48, 84
14, 93059, Note_on_c, 6, 48, 0
14, 93060, Note_on_c, 6, 48, 84
14, 93119, Note_on_c, 6, 48, 0
14, 93120, Note_on_c, 6, 43, 84
14, 93359, Note_on_c, 6, 43, 0
14, 93600, Note_on_c, 6, 48, 84
14, 93839, Note_on_c, 6, 48, 0
14, 94080, Note_on_c, 6, 43, 84
14, 94319, Note_on_c, 6, 43, 0
14, 94320, Note_on_c, 6, 43, 84
14, 94559, Note_on_c, 6, 43, 0
14, 94800, Note_on_c, 6, 48, 84
14, 94979, Note_on_c, 6, 48, 0
14, 94980, Note_on_c, 6, 48, 84
14, 95039, Note_on_c, 6, 48, 0
14, 95040, Note_on_c, 6, 43, 84
14, 95279, Note_on_c, 6, 43, 0
14, 95520, Note_on_c, 6, 48, 84
14, 95759, Note_on_c, 6, 48, 0
14, 96000, Note_on_c, 6, 43, 84
14, 96239, Note_on_c, 6, 43, 0
14, 96240, Note_on_c, 6, 43, 84
14, 96479, Note_on_c, 6, 43, 0
14, 96720, Note_on_c, 6, 48, 84
14, 96899, Note_on_c, 6, 48, 0
14, 96900, Note_on_c, 6, 48, 84
14, 96959, Note_on_c, 6, 48, 0
14, 96960, Note_on_c, 6, 43, 84
14, 97139, Note_on_c, 6, 43, 0
14, 97140, Note_on_c, 6, 43, 84
14, 97199, Note_on_c, 6, 43, 0
14, 97200, Note_on_c, 6, 43, 84
14, 97379, Note_on_c, 6, 43, 0
14, 97380, Note_on_c, 6, 43, 84
14, 97439, Note_on_c, 6, 43, 0
14, 97440, Note_on_c, 6, 48, 84
14, 97619, Note_on_c, 6, 48, 0
14, 97620, Note_on_c, 6, 48, 84
14, 97679, Note_on_c, 6, 48, 0
14, 97680, Note_on_c, 6, 48, 84
14, 97859, Note_on_c, 6, 48, 0
14, 97860, Note_on_c, 6, 48, 84
14, 97919, Note_on_c, 6, 48, 0
14, 97920, Note_on_c, 6, 43, 84
14, 98099, Note_on_c, 6, 43, 0
14, 98100, Note_on_c, 6, 43, 84
14, 98159, Note_on_c, 6, 43, 0
14, 98160, Note_on_c, 6, 43, 84
14, 98399, Note_on_c, 6, 43, 0
14, 98880, Note_on_c, 6, 43, 84
14, 99059, Note_on_c, 6, 43, 0
14, 99060, Note_on_c, 6, 43, 84
14, 99119, Note_on_c, 6, 43, 0
14, 99120, Note_on_c, 6, 43, 84
14, 99359, Note_on_c, 6, 43, 0
14, 99840, Note_on_c, 6, 43, 84
14, 100019, Note_on_c, 6, 43, 0
14, 100020, Note_on_c, 6, 43, 84
14, 100079, Note_on_c, 6, 43, 0
14, 100080, Note_on_c, 6, 43, 84
14, 100319, Note_on_c, 6, 43, 0
14, 100320, Note_on_c, 6, 43, 84
14, 100499, Note_on_c, 6, 43, 0
14, 100500, Note_on_c, 6, 43, 84
14, 100559, Note_on_c, 6, 43, 0
14, 100560, Note_on_c, 6, 43, 84
14, 100799, Note_on_c, 6, 43, 0
14, 100800, Note_on_c, 6, 43, 84
14, 100979, Note_on_c, 6, 43, 0
14, 100980, Note_on_c, 6, 43, 84
14, 101039, Note_on_c, 6, 43, 0
14, 101040, Note_on_c, 6, 43, 84
14, 101279, Note_on_c, 6, 43, 0
14, 101280, Note_on_c, 6, 43, 84
14, 101459, Note_on_c, 6, 43, 0
14, 101460, Note_on_c, 6, 43, 84
14, 101519, Note_on_c, 6, 43, 0
14, 101520, Note_on_c, 6, 43, 84
14, 101759, Note_on_c, 6, 43, 0
14, 101760, Note_on_c, 6, 43, 84
14, 101879, Note_on_c, 6, 43, 0
14, 107520, Note_on_c, 6, 43, 84
14, 107579, Note_on_c, 6, 43, 0
14, 107580, Note_on_c, 6, 43, 84
14, 107639, Note_on_c, 6, 43, 0
14, 107640, Note_on_c, 6, 43, 84
14, 107699, Note_on_c, 6, 43, 0
14, 107700, Note_on_c, 6, 43, 84
14, 107759, Note_on_c, 6, 43, 0
14, 107760, Note_on_c, 6, 43, 84
14, 107819, Note_on_c, 6, 43, 0
14, 107820, Note_on_c, 6, 43, 84
14, 107879, Note_on_c, 6, 43, 0
14, 107880, Note_on_c, 6, 43, 84
14, 107939, Note_on_c, 6, 43, 0
14, 107940, Note_on_c, 6, 43, 84
14, 107999, Note_on_c, 6, 43, 0
14, 108000, Note_on_c, 6, 43, 84
14, 108059, Note_on_c, 6, 43, 0
14, 108060, Note_on_c, 6, 43, 84
14, 108119, Note_on_c, 6, 43, 0
14, 108120, Note_on_c, 6, 43, 84
14, 108179, Note_on_c, 6, 43, 0
14, 108180, Note_on_c, 6, 43, 84
14, 108239, Note_on_c, 6, 43, 0
14, 108240, Note_on_c, 6, 43, 84
14, 108299, Note_on_c, 6, 43, 0
14, 108300, Note_on_c, 6, 43, 84
14, 108359, Note_on_c, 6, 43, 0
14, 108360, Note_on_c, 6, 43, 84
14, 108419, Note_on_c, 6, 43, 0
14, 108420, Note_on_c, 6, 43, 84
14, 108479, Note_on_c, 6, 43, 0
14, 108480, Note_on_c, 6, 43, 84
14, 108539, Note_on_c, 6, 43, 0
14, 108540, Note_on_c, 6, 43, 84
14, 108599, Note_on_c, 6, 43, 0
14, 108600, Note_on_c, 6, 43, 84
14, 108659, Note_on_c, 6, 43, 0
14, 108660, Note_on_c, 6, 43, 84
14, 108719, Note_on_c, 6, 43, 0
14, 108720, Note_on_c, 6, 43, 84
14, 108779, Note_on_c, 6, 43, 0
14, 108780, Note_on_c, 6, 43, 84
14, 108839, Note_on_c, 6, 43, 0
14, 108840, Note_on_c, 6, 43, 84
14, 108899, Note_on_c, 6, 43, 0
14, 108900, Note_on_c, 6, 43, 84
14, 108959, Note_on_c, 6, 43, 0
14, 108960, Note_on_c, 6, 43, 84
14, 109019, Note_on_c, 6, 43, 0
14, 109020, Note_on_c, 6, 43, 84
14, 109079, Note_on_c, 6, 43, 0
14, 109080, Note_on_c, 6, 43, 84
14, 109139, Note_on_c, 6, 43, 0
14, 109140, Note_on_c, 6, 43, 84
14, 109199, Note_on_c, 6, 43, 0
14, 109200, Note_on_c, 6, 43, 84
14, 109259, Note_on_c, 6, 43, 0
14, 109260, Note_on_c, 6, 43, 84
14, 109319, Note_on_c, 6, 43, 0
14, 109320, Note_on_c, 6, 43, 84
14, 109379, Note_on_c, 6, 43, 0
14, 109380, Note_on_c, 6, 43, 84
14, 109439, Note_on_c, 6, 43, 0
14, 109440, Note_on_c, 6, 43, 84
14, 109679, Note_on_c, 6, 43, 0
14, 111360, Note_on_c, 6, 48, 84
14, 111419, Note_on_c, 6, 48, 0
14, 111420, Note_on_c, 6, 48, 84
14, 111479, Note_on_c, 6, 48, 0
14, 111480, Note_on_c, 6, 48, 84
14, 111539, Note_on_c, 6, 48, 0
14, 111540, Note_on_c, 6, 48, 84
14, 111599, Note_on_c, 6, 48, 0
14, 111600, Note_on_c, 6, 48, 84
14, 111659, Note_on_c, 6, 48, 0
14, 111660, Note_on_c, 6, 48, 84
14, 111719, Note_on_c, 6, 48, 0
14, 111720, Note_on_c, 6, 48, 84
14, 111779, Note_on_c, 6, 48, 0
14, 111780, Note_on_c, 6, 48, 84
14, 111839, Note_on_c, 6, 48, 0
14, 111840, Note_on_c, 6, 48, 84
14, 111899, Note_on_c, 6, 48, 0
14, 111900, Note_on_c, 6, 48, 84
14, 111959, Note_on_c, 6, 48, 0
14, 111960, Note_on_c, 6, 48, 84
14, 112019, Note_on_c, 6, 48, 0
14, 112020, Note_on_c, 6, 48, 84
14, 112079, Note_on_c, 6, 48, 0
14, 112080, Note_on_c, 6, 48, 84
14, 112139, Note_on_c, 6, 48, 0
14, 112140, Note_on_c, 6, 48, 84
14, 112199, Note_on_c, 6, 48, 0
14, 112200, Note_on_c, 6, 48, 84
14, 112259, Note_on_c, 6, 48, 0
14, 112260, Note_on_c, 6, 48, 84
14, 112319, Note_on_c, 6, 48, 0
14, 112320, Note_on_c, 6, 48, 84
14, 112379, Note_on_c, 6, 48, 0
14, 112380, Note_on_c, 6, 48, 84
14, 112439, Note_on_c, 6, 48, 0
14, 112440, Note_on_c, 6, 48, 84
14, 112499, Note_on_c, 6, 48, 0
14, 112500, Note_on_c, 6, 48, 84
14, 112559, Note_on_c, 6, 48, 0
14, 112560, Note_on_c, 6, 48, 84
14, 112619, Note_on_c, 6, 48, 0
14, 112620, Note_on_c, 6, 48, 84
14, 112679, Note_on_c, 6, 48, 0
14, 112680, Note_on_c, 6, 48, 84
14, 112739, Note_on_c, 6, 48, 0
14, 112740, Note_on_c, 6, 48, 84
14, 112799, Note_on_c, 6, 48, 0
14, 112800, Note_on_c, 6, 48, 84
14, 112859, Note_on_c, 6, 48, 0
14, 112860, Note_on_c, 6, 48, 84
14, 112919, Note_on_c, 6, 48, 0
14, 112920, Note_on_c, 6, 48, 84
14, 112979, Note_on_c, 6, 48, 0
14, 112980, Note_on_c, 6, 48, 84
14, 113039, Note_on_c, 6, 48, 0
14, 113040, Note_on_c, 6, 48, 84
14, 113099, Note_on_c, 6, 48, 0
14, 113100, Note_on_c, 6, 48, 84
14, 113159, Note_on_c, 6, 48, 0
14, 113160, Note_on_c, 6, 48, 84
14, 113219, Note_on_c, 6, 48, 0
14, 113220, Note_on_c, 6, 48, 84
14, 113279, Note_on_c, 6, 48, 0
14, 113280, Note_on_c, 6, 48, 84
14, 113519, Note_on_c, 6, 48, 0
14, 114240, Note_on_c, 6, 48, 84
14, 114479, Note_on_c, 6, 48, 0
14, 115200, Note_on_c, 6, 48, 84
14, 115439, Note_on_c, 6, 48, 0
14, 123840, Note_on_c, 6, 43, 84
14, 124079, Note_on_c, 6, 43, 0
14, 124320, Note_on_c, 6, 43, 84
14, 124559, Note_on_c, 6, 43, 0
14, 124800, Note_on_c, 6, 43, 84
14, 125039, Note_on_c, 6, 43, 0
14, 127680, Note_on_c, 6, 43, 76
14, 127919, Note_on_c, 6, 43, 0
14, 127920, Note_on_c, 6, 43, 76
14, 127999, Note_on_c, 6, 43, 0
14, 128000, Note_on_c, 6, 43, 76
14, 128079, Note_on_c, 6, 43, 0
14, 128080, Note_on_c, 6, 43, 76
14, 128159, Note_on_c, 6, 43, 0
14, 128160, Note_on_c, 6, 43, 76
14, 128399, Note_on_c, 6, 43, 0
14, 128400, Note_on_c, 6, 43, 76
14, 128479, Note_on_c, 6, 43, 0
14, 128480, Note_on_c, 6, 43, 76
14, 128559, Note_on_c, 6, 43, 0
14, 128560, Note_on_c, 6, 43, 76
14, 128639, Note_on_c, 6, 43, 0
14, 128640, Note_on_c, 6, 43, 76
14, 128879, Note_on_c, 6, 43, 0
14, 128880, Note_on_c, 6, 43, 76
14, 128959, Note_on_c, 6, 43, 0
14, 128960, Note_on_c, 6, 43, 76
14, 129039, Note_on_c, 6, 43, 0
14, 129040, Note_on_c, 6, 43, 76
14, 129119, Note_on_c, 6, 43, 0
14, 129120, Note_on_c, 6, 43, 76
14, 129359, Note_on_c, 6, 43, 0
14, 136320, Note_on_c, 6, 48, 84
14, 136379, Note_on_c, 6, 48, 0
14, 136380, Note_on_c, 6, 48, 84
14, 136439, Note_on_c, 6, 48, 0
14, 136440, Note_on_c, 6, 48, 84
14, 136499, Note_on_c, 6, 48, 0
14, 136500, Note_on_c, 6, 48, 84
14, 136559, Note_on_c, 6, 48, 0
14, 136560, Note_on_c, 6, 48, 84
14, 136619, Note_on_c, 6, 48, 0
14, 136620, Note_on_c, 6, 48, 84
14, 136679, Note_on_c, 6, 48, 0
14, 136680, Note_on_c, 6, 48, 84
14, 136739, Note_on_c, 6, 48, 0
14, 136740, Note_on_c, 6, 48, 84
14, 136799, Note_on_c, 6, 48, 0
14, 136800, Note_on_c, 6, 48, 84
14, 136919, Note_on_c, 6, 48, 0
14, 136920, Note_on_c, 6, 48, 84
14, 137039, Note_on_c, 6, 48, 0
14, 137040, Note_on_c, 6, 48, 84
14, 137159, Note_on_c, 6, 48, 0
14, 137160, Note_on_c, 6, 48, 84
14, 137279, Note_on_c, 6, 48, 0
14, 137280, Note_on_c, 6, 48, 84
14, 137399, Note_on_c, 6, 48, 0
14, 137400, Note_on_c, 6, 48, 84
14, 137519, Note_on_c, 6, 48, 0
14, 137520, Note_on_c, 6, 48, 84
14, 137639, Note_on_c, 6, 48, 0
14, 137640, Note_on_c, 6, 48, 84
14, 137759, Note_on_c, 6, 48, 0
14, 137760, Note_on_c, 6, 48, 84
14, 137879, Note_on_c, 6, 48, 0
14, 137880, Note_on_c, 6, 48, 84
14, 137999, Note_on_c, 6, 48, 0
14, 138000, Note_on_c, 6, 48, 84
14, 138119, Note_on_c, 6, 48, 0
14, 138120, Note_on_c, 6, 48, 84
14, 138239, Note_on_c, 6, 48, 0
14, 138240, Note_on_c, 6, 48, 84
14, 138479, Note_on_c, 6, 48, 0
14, 138480, Note_on_c, 6, 43, 84
14, 138719, Note_on_c, 6, 43, 0
14, 138720, Note_on_c, 6, 43, 84
14, 138959, Note_on_c, 6, 43, 0
14, 138960, Note_on_c, 6, 43, 84
14, 139199, Note_on_c, 6, 43, 0
14, 139200, Note_on_c, 6, 43, 84
14, 139439, Note_on_c, 6, 43, 0
14, 139920, Note_on_c, 6, 43, 84
14, 140159, Note_on_c, 6, 43, 0
14, 140160, Note_on_c, 6, 48, 84
14, 140399, Note_on_c, 6, 48, 0
14, 149760, Note_on_c, 6, 43, 76
14, 149999, Note_on_c, 6, 43, 0
14, 151680, Note_on_c, 6, 43, 76
14, 151919, Note_on_c, 6, 43, 0
14, 154320, Note_on_c, 6, 43, 76
14, 154559, Note_on_c, 6, 43, 0
14, 154560, Note_on_c, 6, 48, 76
14, 154799, Note_on_c, 6, 48, 0
14, 154800, Note_on_c, 6, 48, 80
14, 155039, Note_on_c, 6, 48, 0
14, 155040, Note_on_c, 6, 48, 80
14, 155279, Note_on_c, 6, 48, 0
14, 155280, Note_on_c, 6, 48, 80
14, 155519, Note_on_c, 6, 48, 0
14, 155520, Note_on_c, 6, 48, 80
14, 155759, Note_on_c, 6, 48, 0
14, 155760, Note_on_c, 6, 48, 80
14, 155999, Note_on_c, 6, 48, 0
14, 156000, Note_on_c, 6, 48, 80
14, 156239, Note_on_c, 6, 48, 0
14, 156240, Note_on_c, 6, 48, 80
14, 156479, Note_on_c, 6, 48, 0
14, 156480, Note_on_c, 6, 48, 80
14, 156719, Note_on_c, 6, 48, 0
14, 156720, Note_on_c, 6, 48, 80
14, 156959, Note_on_c, 6, 48, 0
14, 156960, Note_on_c, 6, 48, 80
14, 157199, Note_on_c, 6, 48, 0
14, 157200, Note_on_c, 6, 48, 80
14, 157439, Note_on_c, 6, 48, 0
14, 157440, Note_on_c, 6, 48, 84
14, 157499, Note_on_c, 6, 48, 0
14, 157500, Note_on_c, 6, 48, 84
14, 157559, Note_on_c, 6, 48, 0
14, 157560, Note_on_c, 6, 48, 84
14, 157619, Note_on_c, 6, 48, 0
14, 157620, Note_on_c, 6, 48, 84
14, 157679, Note_on_c, 6, 48, 0
14, 157680, Note_on_c, 6, 48, 84
14, 157739, Note_on_c, 6, 48, 0
14, 157740, Note_on_c, 6, 48, 84
14, 157799, Note_on_c, 6, 48, 0
14, 157800, Note_on_c, 6, 48, 84
14, 157859, Note_on_c, 6, 48, 0
14, 157860, Note_on_c, 6, 48, 84
14, 157919, Note_on_c, 6, 48, 0
14, 157920, Note_on_c, 6, 48, 84
14, 157979, Note_on_c, 6, 48, 0
14, 157980, Note_on_c, 6, 48, 84
14, 158039, Note_on_c, 6, 48, 0
14, 158040, Note_on_c, 6, 48, 84
14, 158099, Note_on_c, 6, 48, 0
14, 158100, Note_on_c, 6, 48, 84
14, 158159, Note_on_c, 6, 48, 0
14, 158160, Note_on_c, 6, 48, 84
14, 158219, Note_on_c, 6, 48, 0
14, 158220, Note_on_c, 6, 48, 84
14, 158279, Note_on_c, 6, 48, 0
14, 158280, Note_on_c, 6, 48, 84
14, 158339, Note_on_c, 6, 48, 0
14, 158340, Note_on_c, 6, 48, 84
14, 158399, Note_on_c, 6, 48, 0
14, 158400, Note_on_c, 6, 48, 84
14, 158459, Note_on_c, 6, 48, 0
14, 158460, Note_on_c, 6, 48, 84
14, 158519, Note_on_c, 6, 48, 0
14, 158520, Note_on_c, 6, 48, 84
14, 158579, Note_on_c, 6, 48, 0
14, 158580, Note_on_c, 6, 48, 84
14, 158639, Note_on_c, 6, 48, 0
14, 158640, Note_on_c, 6, 48, 84
14, 158699, Note_on_c, 6, 48, 0
14, 158700, Note_on_c, 6, 48, 84
14, 158759, Note_on_c, 6, 48, 0
14, 158760, Note_on_c, 6, 48, 84
14, 158819, Note_on_c, 6, 48, 0
14, 158820, Note_on_c, 6, 48, 84
14, 158879, Note_on_c, 6, 48, 0
14, 158880, Note_on_c, 6, 48, 84
14, 158939, Note_on_c, 6, 48, 0
14, 158940, Note_on_c, 6, 48, 84
14, 158999, Note_on_c, 6, 48, 0
14, 159000, Note_on_c, 6, 48, 84
14, 159059, Note_on_c, 6, 48, 0
14, 159060, Note_on_c, 6, 48, 84
14, 159119, Note_on_c, 6, 48, 0
14, 159120, Note_on_c, 6, 48, 84
14, 159179, Note_on_c, 6, 48, 0
14, 159180, Note_on_c, 6, 48, 84
14, 159239, Note_on_c, 6, 48, 0
14, 159240, Note_on_c, 6, 48, 84
14, 159299, Note_on_c, 6, 48, 0
14, 159300, Note_on_c, 6, 48, 84
14, 159359, Note_on_c, 6, 48, 0
14, 159360, Note_on_c, 6, 43, 84
14, 159599, Note_on_c, 6, 43, 0
14, 160080, Note_on_c, 6, 43, 84
14, 160199, Note_on_c, 6, 43, 0
14, 160200, Note_on_c, 6, 43, 84
14, 160319, Note_on_c, 6, 43, 0
14, 160320, Note_on_c, 6, 43, 84
14, 160559, Note_on_c, 6, 43, 0
14, 161040, Note_on_c, 6, 43, 84
14, 161159, Note_on_c, 6, 43, 0
14, 161160, Note_on_c, 6, 43, 84
14, 161279, Note_on_c, 6, 43, 0
14, 161280, Note_on_c, 6, 43, 84
14, 161519, Note_on_c, 6, 43, 0
14, 161520, Note_on_c, 6, 43, 84
14, 161639, Note_on_c, 6, 43, 0
14, 161640, Note_on_c, 6, 43, 84
14, 161759, Note_on_c, 6, 43, 0
14, 161760, Note_on_c, 6, 43, 84
14, 161999, Note_on_c, 6, 43, 0
14, 162000, Note_on_c, 6, 43, 84
14, 162119, Note_on_c, 6, 43, 0
14, 162120, Note_on_c, 6, 43, 84
14, 162239, Note_on_c, 6, 43, 0
14, 162240, Note_on_c, 6, 43, 84
14, 162359, Note_on_c, 6, 43, 0
14, 162360, Note_on_c, 6, 43, 84
14, 162479, Note_on_c, 6, 43, 0
14, 162480, Note_on_c, 6, 43, 84
14, 162539, Note_on_c, 6, 43, 0
14, 162540, Note_on_c, 6, 43, 84
14, 162599, Note_on_c, 6, 43, 0
14, 162600, Note_on_c, 6, 43, 84
14, 162659, Note_on_c, 6, 43, 0
14, 162660, Note_on_c, 6, 43, 84
14, 162719, Note_on_c, 6, 43, 0
14, 162720, Note_on_c, 6, 43, 84
14, 162779, Note_on_c, 6, 43, 0
14, 162780, Note_on_c, 6, 43, 84
14, 162839, Note_on_c, 6, 43, 0
14, 162840, Note_on_c, 6, 43, 84
14, 162899, Note_on_c, 6, 43, 0
14, 162900, Note_on_c, 6, 43, 84
14, 162959, Note_on_c, 6, 43, 0
14, 162960, Note_on_c, 6, 43, 84
14, 163199, Note_on_c, 6, 43, 0
14, 190080, Note_on_c, 6, 48, 72
14, 190119, Note_on_c, 6, 48, 0
14, 190120, Note_on_c, 6, 48, 76
14, 190159, Note_on_c, 6, 48, 0
14, 190160, Note_on_c, 6, 48, 73
14, 190199, Note_on_c, 6, 48, 0
14, 190200, Note_on_c, 6, 48, 78
14, 190239, Note_on_c, 6, 48, 0
14, 190240, Note_on_c, 6, 48, 76
14, 190279, Note_on_c, 6, 48, 0
14, 190280, Note_on_c, 6, 48, 75
14, 190319, Note_on_c, 6, 48, 0
14, 190320, Note_on_c, 6, 48, 74
14, 190359, Note_on_c, 6, 48, 0
14, 190360, Note_on_c, 6, 48, 79
14, 190399, Note_on_c, 6, 48, 0
14, 190400, Note_on_c, 6, 48, 78
14, 190439, Note_on_c, 6, 48, 0
14, 190440, Note_on_c, 6, 48, 77
14, 190479, Note_on_c, 6, 48, 0
14, 190480, Note_on_c, 6, 48, 73
14, 190519, Note_on_c, 6, 48, 0
14, 190520, Note_on_c, 6, 48, 78
14, 190559, Note_on_c, 6, 48, 0
14, 190560, Note_on_c, 6, 48, 77
14, 190599, Note_on_c, 6, 48, 0
14, 190600, Note_on_c, 6, 48, 76
14, 190639, Note_on_c, 6, 48, 0
14, 190640, Note_on_c, 6, 48, 74
14, 190679, Note_on_c, 6, 48, 0
14, 190680, Note_on_c, 6, 48, 72
14, 190719, Note_on_c, 6, 48, 0
14, 190720, Note_on_c, 6, 48, 72
14, 190759, Note_on_c, 6, 48, 0
14, 190760, Note_on_c, 6, 48, 74
14, 190799, Note_on_c, 6, 48, 0
14, 190800, Note_on_c, 6, 48, 73
14, 190839, Note_on_c, 6, 48, 0
14, 190840, Note_on_c, 6, 48, 73
14, 190879, Note_on_c, 6, 48, 0
14, 190880, Note_on_c, 6, 48, 79
14, 190919, Note_on_c, 6, 48, 0
14, 190920, Note_on_c, 6, 48, 75
14, 190959, Note_on_c, 6, 48, 0
14, 190960, Note_on_c, 6, 48, 72
14, 190999, Note_on_c, 6, 48, 0
14, 191000, Note_on_c, 6, 48, 72
14, 191039, Note_on_c, 6, 48, 0
14, 191040, Note_on_c, 6, 48, 72
14, 191079, Note_on_c, 6, 48, 0
14, 191080, Note_on_c, 6, 48, 75
14, 191119, Note_on_c, 6, 48, 0
14, 191120, Note_on_c, 6, 48, 76
14, 191159, Note_on_c, 6, 48, 0
14, 191160, Note_on_c, 6, 48, 76
14, 191199, Note_on_c, 6, 48, 0
14, 191200, Note_on_c, 6, 48, 76
14, 191239, Note_on_c, 6, 48, 0
14, 191240, Note_on_c, 6, 48, 76
14, 191279, Note_on_c, 6, 48, 0
14, 191280, Note_on_c, 6, 48, 73
14, 191319, Note_on_c, 6, 48, 0
14, 191320, Note_on_c, 6, 48, 77
14, 191359, Note_on_c, 6, 48, 0
14, 191360, Note_on_c, 6, 48, 75
14, 191399, Note_on_c, 6, 48, 0
14, 191400, Note_on_c, 6, 48, 74
14, 191439, Note_on_c, 6, 48, 0
14, 191440, Note_on_c, 6, 48, 72
14, 191479, Note_on_c, 6, 48, 0
14, 191480, Note_on_c, 6, 48, 76
14, 191519, Note_on_c, 6, 48, 0
14, 191520, Note_on_c, 6, 48, 76
14, 191759, Note_on_c, 6, 48, 0
14, 195600, Note_on_c, 6, 48, 76
14, 195839, Note_on_c, 6, 48, 0
14, 195840, Note_on_c, 6, 48, 76
14, 196319, Note_on_c, 6, 48, 0
14, 196320, Note_on_c, 6, 48, 76
14, 196799, Note_on_c, 6, 48, 0
14, 196800, Note_on_c, 6, 48, 76
14, 197039, Note_on_c, 6, 48, 0
14, 197520, Note_on_c, 6, 48, 76
14, 197759, Note_on_c, 6, 48, 0
14, 198000, Note_on_c, 6, 48, 76
14, 198079, Note_on_c, 6, 48, 0
14, 198080, Note_on_c, 6, 48, 76
14, 198159, Note_on_c, 6, 48, 0
14, 198160, Note_on_c, 6, 48, 76
14, 198239, Note_on_c, 6, 48, 0
14, 198240, Note_on_c, 6, 48, 76
14, 198479, Note_on_c, 6, 48, 0
14, 198960, Note_on_c, 6, 48, 80
14, 199039, Note_on_c, 6, 48, 0
14, 199040, Note_on_c, 6, 48, 80
14, 199119, Note_on_c, 6, 48, 0
14, 199120, Note_on_c, 6, 48, 80
14, 199199, Note_on_c, 6, 48, 0
14, 199200, Note_on_c, 6, 48, 80
14, 199439, Note_on_c, 6, 48, 0
14, 199920, Note_on_c, 6, 43, 80
14, 199999, Note_on_c, 6, 43, 0
14, 200000, Note_on_c, 6, 43, 80
14, 200079, Note_on_c, 6, 43, 0
14, 200080, Note_on_c, 6, 43, 80
14, 200159, Note_on_c, 6, 43, 0
14, 200160, Note_on_c, 6, 43, 80
14, 200399, Note_on_c, 6, 43, 0
14, 200880, Note_on_c, 6, 48, 80
14, 200959, Note_on_c, 6, 48, 0
14, 200960, Note_on_c, 6, 48, 80
14, 201039, Note_on_c, 6, 48, 0
14, 201040, Note_on_c, 6, 48, 80
14, 201119, Note_on_c, 6, 48, 0
14, 201120, Note_on_c, 6, 48, 80
14, 201359, Note_on_c, 6, 48, 0
14, 201840, Note_on_c, 6, 43, 80
14, 201919, Note_on_c, 6, 43, 0
14, 201920, Note_on_c, 6, 43, 80
14, 201999, Note_on_c, 6, 43, 0
14, 202000, Note_on_c, 6, 43, 80
14, 202079, Note_on_c, 6, 43, 0
14, 202080, Note_on_c, 6, 43, 80
14, 202319, Note_on_c, 6, 43, 0
14, 202800, Note_on_c, 6, 48, 80
14, 202879, Note_on_c, 6, 48, 0
14, 202880, Note_on_c, 6, 48, 80
14, 202959, Note_on_c, 6, 48, 0
14, 202960, Note_on_c, 6, 48, 80
14, 203039, Note_on_c, 6, 48, 0
14, 203040, Note_on_c, 6, 48, 80
14, 203279, Note_on_c, 6, 48, 0
14, 204720, Note_on_c, 6, 43, 80
14, 204799, Note_on_c, 6, 43, 0
14, 204800, Note_on_c, 6, 43, 80
14, 204879, Note_on_c, 6, 43, 0
14, 204880, Note_on_c, 6, 43, 80
14, 204959, Note_on_c, 6, 43, 0
14, 204960, Note_on_c, 6, 43, 80
14, 205199, Note_on_c, 6, 43, 0
14, 207360, Note_on_c, 6, 43, 84
14, 207599, Note_on_c, 6, 43, 0
14, 209280, Note_on_c, 6, 43, 84
14, 209519, Note_on_c, 6, 43, 0
14, 211200, Note_on_c, 6, 43, 84
14, 211439, Note_on_c, 6, 43, 0
14, 211920, Note_on_c, 6, 48, 84
14, 212159, Note_on_c, 6, 48, 0
14, 212160, Note_on_c, 6, 43, 84
14, 212399, Note_on_c, 6, 43, 0
14, 212640, Note_on_c, 6, 48, 84
14, 212879, Note_on_c, 6, 48, 0
14, 213120, Note_on_c, 6, 43, 84
14, 213359, Note_on_c, 6, 43, 0
14, 213840, Note_on_c, 6, 43, 84
14, 214079, Note_on_c, 6, 43, 0
14, 214080, Note_on_c, 6, 48, 84
14, 214319, Note_on_c, 6, 48, 0
14, 214560, Note_on_c, 6, 43, 84
14, 214799, Note_on_c, 6, 43, 0
14, 215040, Note_on_c, 6, 43, 84
14, 215279, Note_on_c, 6, 43, 0
14, 216000, Note_on_c, 6, 48, 84
14, 216239, Note_on_c, 6, 48, 0
14, 216960, Note_on_c, 6, 48, 86
14, 216999, Note_on_c, 6, 48, 0
14, 217000, Note_on_c, 6, 48, 86
14, 217039, Note_on_c, 6, 48, 0
14, 217040, Note_on_c, 6, 48, 84
14, 217079, Note_on_c, 6, 48, 0
14, 217080, Note_on_c, 6, 48, 82
14, 217119, Note_on_c, 6, 48, 0
14, 217120, Note_on_c, 6, 48, 87
14, 217159, Note_on_c, 6, 48, 0
14, 217160, Note_on_c, 6, 48, 85
14, 217199, Note_on_c, 6, 48, 0
14, 217200, Note_on_c, 6, 48, 87
14, 217239, Note_on_c, 6, 48, 0
14, 217240, Note_on_c, 6, 48, 87
14, 217279, Note_on_c, 6, 48, 0
14, 217280, Note_on_c, 6, 48, 84
14, 217319, Note_on_c, 6, 48, 0
14, 217320, Note_on_c, 6, 48, 81
14, 217359, Note_on_c, 6, 48, 0
14, 217360, Note_on_c, 6, 48, 83
14, 217399, Note_on_c, 6, 48, 0
14, 217400, Note_on_c, 6, 48, 81
14, 217439, Note_on_c, 6, 48, 0
14, 217440, Note_on_c, 6, 48, 86
14, 217479, Note_on_c, 6, 48, 0
14, 217480, Note_on_c, 6, 48, 81
14, 217519, Note_on_c, 6, 48, 0
14, 217520, Note_on_c, 6, 48, 86
14, 217559, Note_on_c, 6, 48, 0
14, 217560, Note_on_c, 6, 48, 86
14, 217599, Note_on_c, 6, 48, 0
14, 217600, Note_on_c, 6, 48, 87
14, 217639, Note_on_c, 6, 48, 0
14, 217640, Note_on_c, 6, 48, 87
14, 217679, Note_on_c, 6, 48, 0
14, 217680, Note_on_c, 6, 48, 84
14, 217719, Note_on_c, 6, 48, 0
14, 217720, Note_on_c, 6, 48, 83
14, 217759, Note_on_c, 6, 48, 0
14, 217760, Note_on_c, 6, 48, 82
14, 217799, Note_on_c, 6, 48, 0
14, 217800, Note_on_c, 6, 48, 82
14, 217839, Note_on_c, 6, 48, 0
14, 217840, Note_on_c, 6, 48, 86
14, 217879, Note_on_c, 6, 48, 0
14, 217880, Note_on_c, 6, 48, 80
14, 217919, Note_on_c, 6, 48, 0
14, 217920, Note_on_c, 6, 48, 83
14, 217959, Note_on_c, 6, 48, 0
14, 217960, Note_on_c, 6, 48, 80
14, 217999, Note_on_c, 6, 48, 0
14, 218000, Note_on_c, 6, 48, 85
14, 218039, Note_on_c, 6, 48, 0
14, 218040, Note_on_c, 6, 48, 80
14, 218079, Note_on_c, 6, 48, 0
14, 218080, Note_on_c, 6, 48, 80
14, 218119, Note_on_c, 6, 48, 0
14, 218120, Note_on_c, 6, 48, 87
14, 218159, Note_on_c, 6, 48, 0
14, 218160, Note_on_c, 6, 48, 82
14, 218199, Note_on_c, 6, 48, 0
14, 218200, Note_on_c, 6, 48, 82
14, 218239, Note_on_c, 6, 48, 0
14, 218240, Note_on_c, 6, 48, 84
14, 218279, Note_on_c, 6, 48, 0
14, 218280, Note_on_c, 6, 48, 85
14, 218319, Note_on_c, 6, 48, 0
14, 218320, Note_on_c, 6, 48, 86
14, 218359, Note_on_c, 6, 48, 0
14, 218360, Note_on_c, 6, 48, 85
14, 218399, Note_on_c, 6, 48, 0
14, 218400, Note_on_c, 6, 48, 83
14, 218439, Note_on_c, 6, 48, 0
14, 218440, Note_on_c, 6, 48, 81
14, 218479, Note_on_c, 6, 48, 0
14, 218480, Note_on_c, 6, 48, 85
14, 218519, Note_on_c, 6, 48, 0
14, 218520, Note_on_c, 6, 48, 83
14, 218559, Note_on_c, 6, 48, 0
14, 218560, Note_on_c, 6, 48, 83
14, 218599, Note_on_c, 6, 48, 0
14, 218600, Note_on_c, 6, 48, 87
14, 218639, Note_on_c, 6, 48, 0
14, 218640, Note_on_c, 6, 48, 85
14, 218679, Note_on_c, 6, 48, 0
14, 218680, Note_on_c, 6, 48, 80
14, 218719, Note_on_c, 6, 48, 0
14, 218720, Note_on_c, 6, 48, 84
14, 218759, Note_on_c, 6, 48, 0
14, 218760, Note_on_c, 6, 48, 83
14, 218799, Note_on_c, 6, 48, 0
14, 218800, Note_on_c, 6, 48, 85
14, 218839, Note_on_c, 6, 48, 0
14, 218840, Note_on_c, 6, 48, 84
14, 218879, Note_on_c, 6, 48, 0
14, 218880, Note_on_c, 6, 43, 84
14, 218939, Note_on_c, 6, 43, 0
14, 218940, Note_on_c, 6, 43, 84
14, 218999, Note_on_c, 6, 43, 0
14, 219000, Note_on_c, 6, 43, 84
14, 219059, Note_on_c, 6, 43, 0
14, 219060, Note_on_c, 6, 43, 84
14, 219119, Note_on_c, 6, 43, 0
14, 219120, Note_on_c, 6, 43, 84
14, 219179, Note_on_c, 6, 43, 0
14, 219180, Note_on_c, 6, 43, 84
14, 219239, Note_on_c, 6, 43, 0
14, 219240, Note_on_c, 6, 43, 84
14, 219299, Note_on_c, 6, 43, 0
14, 219300, Note_on_c, 6, 43, 84
14, 219359, Note_on_c, 6, 43, 0
14, 219360, Note_on_c, 6, 43, 84
14, 219479, Note_on_c, 6, 43, 0
14, 219840, Note_on_c, 6, 43, 84
14, 219899, Note_on_c, 6, 43, 0
14, 219900, Note_on_c, 6, 43, 84
14, 219959, Note_on_c, 6, 43, 0
14, 219960, Note_on_c, 6, 43, 84
14, 220019, Note_on_c, 6, 43, 0
14, 220020, Note_on_c, 6, 43, 84
14, 220079, Note_on_c, 6, 43, 0
14, 220080, Note_on_c, 6, 43, 84
14, 220139, Note_on_c, 6, 43, 0
14, 220140, Note_on_c, 6, 43, 84
14, 220199, Note_on_c, 6, 43, 0
14, 220200, Note_on_c, 6, 43, 84
14, 220259, Note_on_c, 6, 43, 0
14, 220260, Note_on_c, 6, 43, 84
14, 220319, Note_on_c, 6, 43, 0
14, 220320, Note_on_c, 6, 43, 84
14, 220439, Note_on_c, 6, 43, 0
14, 220800, Note_on_c, 6, 43, 84
14, 221039, Note_on_c, 6, 43, 0
14, 221040, Note_on_c, 6, 43, 84
14, 221159, Note_on_c, 6, 43, 0
14, 221160, Note_on_c, 6, 43, 84
14, 221279, Note_on_c, 6, 43, 0
14, 221280, Note_on_c, 6, 43, 84
14, 221519, Note_on_c, 6, 43, 0
14, 221520, Note_on_c, 6, 43, 84
14, 221639, Note_on_c, 6, 43, 0
14, 221640, Note_on_c, 6, 43, 84
14, 221759, Note_on_c, 6, 43, 0
14, 221760, Note_on_c, 6, 43, 84
14, 221999, Note_on_c, 6, 43, 0
14, 222000, Note_on_c, 6, 43, 84
14, 222119, Note_on_c, 6, 43, 0
14, 222120, Note_on_c, 6, 43, 84
14, 222239, Note_on_c, 6, 43, 0
14, 222240, Note_on_c, 6, 43, 84
14, 222479, Note_on_c, 6, 43, 0
14, 222480, Note_on_c, 6, 43, 84
14, 222599, Note_on_c, 6, 43, 0
14, 222600, Note_on_c, 6, 43, 84
14, 222719, Note_on_c, 6, 43, 0
14, 222720, Note_on_c, 6, 43, 84
14, 222959, Note_on_c, 6, 43, 0
14, 222960, Note_on_c, 6, 43, 84
14, 223079, Note_on_c, 6, 43, 0
14, 223080, Note_on_c, 6, 43, 84
14, 223199, Note_on_c, 6, 43, 0
14, 223200, Note_on_c, 6, 43, 84
14, 223439, Note_on_c, 6, 43, 0
14, 223440, Note_on_c, 6, 43, 84
14, 223559, Note_on_c, 6, 43, 0
14, 223560, Note_on_c, 6, 43, 84
14, 223679, Note_on_c, 6, 43, 0
14, 223680, Note_on_c, 6, 43, 84
14, 223919, Note_on_c, 6, 43, 0
14, 223920, Note_on_c, 6, 43, 84
14, 224039, Note_on_c, 6, 43, 0
14, 224040, Note_on_c, 6, 43, 84
14, 224159, Note_on_c, 6, 43, 0
14, 224160, Note_on_c, 6, 43, 84
14, 224399, Note_on_c, 6, 43, 0
14, 224400, Note_on_c, 6, 43, 84
14, 224519, Note_on_c, 6, 43, 0
14, 224520, Note_on_c, 6, 43, 84
14, 224639, Note_on_c, 6, 43, 0
14, 224640, Note_on_c, 6, 43, 84
14, 224699, Note_on_c, 6, 43, 0
14, 224700, Note_on_c, 6, 43, 84
14, 224759, Note_on_c, 6, 43, 0
14, 224760, Note_on_c, 6, 43, 84
14, 224819, Note_on_c, 6, 43, 0
14, 224820, Note_on_c, 6, 43, 84
14, 224879, Note_on_c, 6, 43, 0
14, 224880, Note_on_c, 6, 43, 84
14, 224939, Note_on_c, 6, 43, 0
14, 224940, Note_on_c, 6, 43, 84
14, 224999, Note_on_c, 6, 43, 0
14, 225000, Note_on_c, 6, 43, 84
14, 225059, Note_on_c, 6, 43, 0
14, 225060, Note_on_c, 6, 43, 84
14, 225119, Note_on_c, 6, 43, 0
14, 225120, Note_on_c, 6, 43, 84
14, 225179, Note_on_c, 6, 43, 0
14, 225180, Note_on_c, 6, 43, 84
14, 225239, Note_on_c, 6, 43, 0
14, 225240, Note_on_c, 6, 43, 84
14, 225299, Note_on_c, 6, 43, 0
14, 225300, Note_on_c, 6, 43, 84
14, 225359, Note_on_c, 6, 43, 0
14, 225360, Note_on_c, 6, 43, 84
14, 225419, Note_on_c, 6, 43, 0
14, 225420, Note_on_c, 6, 43, 84
14, 225479, Note_on_c, 6, 43, 0
14, 225480, Note_on_c, 6, 43, 84
14, 225539, Note_on_c, 6, 43, 0
14, 225540, Note_on_c, 6, 43, 84
14, 225599, Note_on_c, 6, 43, 0
14, 225600, Note_on_c, 6, 43, 84
14, 225659, Note_on_c, 6, 43, 0
14, 225660, Note_on_c, 6, 43, 84
14, 225719, Note_on_c, 6, 43, 0
14, 225720, Note_on_c, 6, 43, 84
14, 225779, Note_on_c, 6, 43, 0
14, 225780, Note_on_c, 6, 43, 84
14, 225839, Note_on_c, 6, 43, 0
14, 225840, Note_on_c, 6, 43, 84
14, 225899, Note_on_c, 6, 43, 0
14, 225900, Note_on_c, 6, 43, 84
14, 225959, Note_on_c, 6, 43, 0
14, 225960, Note_on_c, 6, 43, 84
14, 226019, Note_on_c, 6, 43, 0
14, 226020, Note_on_c, 6, 43, 84
14, 226079, Note_on_c, 6, 43, 0
14, 226080, Note_on_c, 6, 43, 84
14, 226139, Note_on_c, 6, 43, 0
14, 226140, Note_on_c, 6, 43, 84
14, 226199, Note_on_c, 6, 43, 0
14, 226200, Note_on_c, 6, 43, 84
14, 226259, Note_on_c, 6, 43, 0
14, 226260, Note_on_c, 6, 43, 84
14, 226319, Note_on_c, 6, 43, 0
14, 226320, Note_on_c, 6, 43, 84
14, 226379, Note_on_c, 6, 43, 0
14, 226380, Note_on_c, 6, 43, 84
14, 226439, Note_on_c, 6, 43, 0
14, 226440, Note_on_c, 6, 43, 84
14, 226499, Note_on_c, 6, 43, 0
14, 226500, Note_on_c, 6, 43, 84
14, 226559, Note_on_c, 6, 43, 0
14, 226560, Note_on_c, 6, 43, 84
14, 226619, Note_on_c, 6, 43, 0
14, 226620, Note_on_c, 6, 43, 84
14, 226679, Note_on_c, 6, 43, 0
14, 226680, Note_on_c, 6, 43, 84
14, 226739, Note_on_c, 6, 43, 0
14, 226740, Note_on_c, 6, 43, 84
14, 226799, Note_on_c, 6, 43, 0
14, 226800, Note_on_c, 6, 43, 84
14, 226859, Note_on_c, 6, 43, 0
14, 226860, Note_on_c, 6, 43, 84
14, 226919, Note_on_c, 6, 43, 0
14, 226920, Note_on_c, 6, 43, 84
14, 226979, Note_on_c, 6, 43, 0
14, 226980, Note_on_c, 6, 43, 84
14, 227039, Note_on_c, 6, 43, 0
14, 227040, Note_on_c, 6, 43, 84
14, 227099, Note_on_c, 6, 43, 0
14, 227100, Note_on_c, 6, 43, 84
14, 227159, Note_on_c, 6, 43, 0
14, 227160, Note_on_c, 6, 43, 84
14, 227219, Note_on_c, 6, 43, 0
14, 227220, Note_on_c, 6, 43, 84
14, 227279, Note_on_c, 6, 43, 0
14, 227280, Note_on_c, 6, 43, 84
14, 227339, Note_on_c, 6, 43, 0
14, 227340, Note_on_c, 6, 43, 84
14, 227399, Note_on_c, 6, 43, 0
14, 227400, Note_on_c, 6, 43, 84
14, 227459, Note_on_c, 6, 43, 0
14, 227460, Note_on_c, 6, 43, 84
14, 227519, Note_on_c, 6, 43, 0
14, 227520, Note_on_c, 6, 43, 84
14, 227759, Note_on_c, 6, 43, 0
14, 263520, Note_on_c, 6, 48, 44
14, 263639, Note_on_c, 6, 48, 0
14, 263640, Note_on_c, 6, 48, 44
14, 263759, Note_on_c, 6, 48, 0
14, 263760, Note_on_c, 6, 48, 44
14, 263879, Note_on_c, 6, 48, 0
14, 263880, Note_on_c, 6, 48, 44
14, 263999, Note_on_c, 6, 48, 0
14, 264000, Note_on_c, 6, 48, 44
14, 264119, Note_on_c, 6, 48, 0
14, 264120, Note_on_c, 6, 48, 44
14, 264239, Note_on_c, 6, 48, 0
14, 264240, Note_on_c, 6, 48, 44
14, 264359, Note_on_c, 6, 48, 0
14, 264360, Note_on_c, 6, 48, 44
14, 264479, Note_on_c, 6, 48, 0
14, 264480, Note_on_c, 6, 48, 44
14, 264599, Note_on_c, 6, 48, 0
14, 264600, Note_on_c, 6, 48, 44
14, 264719, Note_on_c, 6, 48, 0
14, 264720, Note_on_c, 6, 48, 44
14, 264839, Note_on_c, 6, 48, 0
14, 264840, Note_on_c, 6, 48, 44
14, 264959, Note_on_c, 6, 48, 0
14, 264960, Note_on_c, 6, 48, 44
14, 265079, Note_on_c, 6, 48, 0
14, 265080, Note_on_c, 6, 48, 47
14, 265199, Note_on_c, 6, 48, 0
14, 265200, Note_on_c, 6, 48, 50
14, 265319, Note_on_c, 6, 48, 0
14, 265320, Note_on_c, 6, 48, 54
14, 265439, Note_on_c, 6, 48, 0
14, 265440, Note_on_c, 6, 48, 57
14, 265559, Note_on_c, 6, 48, 0
14, 265560, Note_on_c, 6, 48, 60
14, 265679, Note_on_c, 6, 48, 0
14, 265680, Note_on_c, 6, 48, 64
14, 265799, Note_on_c, 6, 48, 0
14, 265800, Note_on_c, 6, 48, 67
14, 265919, Note_on_c, 6, 48, 0
14, 265920, Note_on_c, 6, 48, 70
14, 266039, Note_on_c, 6, 48, 0
14, 266040, Note_on_c, 6, 48, 74
14, 266159, Note_on_c, 6, 48, 0
14, 266160, Note_on_c, 6, 48, 77
14, 266279, Note_on_c, 6, 48, 0
14, 266280, Note_on_c, 6, 48, 80
14, 266399, Note_on_c, 6, 48, 0
14, 266400, Note_on_c, 6, 48, 84
14, 266639, Note_on_c, 6, 48, 0
14, 266880, Note_on_c, 6, 48, 84
14, 267119, Note_on_c, 6, 48, 0
14, 267360, Note_on_c, 6, 48, 84
14, 267599, Note_on_c, 6, 48, 0
14, 268080, Note_on_c, 6, 43, 84
14, 268199, Note_on_c, 6, 43, 0
14, 268320, Note_on_c, 6, 48, 84
14, 268439, Note_on_c, 6, 48, 0
14, 268560, Note_on_c, 6, 43, 84
14, 268679, Note_on_c, 6, 43, 0
14, 268800, Note_on_c, 6, 48, 84
14, 268919, Note_on_c, 6, 48, 0
14, 269040, Note_on_c, 6, 43, 84
14, 269159, Note_on_c, 6, 43, 0
14, 269280, Note_on_c, 6, 48, 84
14, 269519, Note_on_c, 6, 48, 0
14, 270000, Note_on_c, 6, 48, 84
14, 270179, Note_on_c, 6, 48, 0
14, 270180, Note_on_c, 6, 48, 84
14, 270239, Note_on_c, 6, 48, 0
14, 270240, Note_on_c, 6, 43, 84
14, 270479, Note_on_c, 6, 43, 0
14, 270960, Note_on_c, 6, 43, 84
14, 271139, Note_on_c, 6, 43, 0
14, 271140, Note_on_c, 6, 43, 84
14, 271199, Note_on_c, 6, 43, 0
14, 271200, Note_on_c, 6, 48, 84
14, 271439, Note_on_c, 6, 48, 0
14, 271800, Note_on_c, 6, 48, 84
14, 271919, Note_on_c, 6, 48, 0
14, 271920, Note_on_c, 6, 48, 84
14, 272039, Note_on_c, 6, 48, 0
14, 272040, Note_on_c, 6, 48, 84
14, 272159, Note_on_c, 6, 48, 0
14, 272160, Note_on_c, 6, 48, 84
14, 272399, Note_on_c, 6, 48, 0
14, 272400, Note_on_c, 6, 48, 84
14, 272519, Note_on_c, 6, 48, 0
14, 272520, Note_on_c, 6, 48, 84
14, 272639, Note_on_c, 6, 48, 0
14, 272640, Note_on_c, 6, 48, 84
14, 272879, Note_on_c, 6, 48, 0
14, 272880, Note_on_c, 6, 48, 84
14, 272999, Note_on_c, 6, 48, 0
14, 273000, Note_on_c, 6, 48, 84
14, 273119, Note_on_c, 6, 48, 0
14, 273120, Note_on_c, 6, 48, 84
14, 273179, Note_on_c, 6, 48, 0
14, 273180, Note_on_c, 6, 48, 84
14, 273239, Note_on_c, 6, 48, 0
14, 273240, Note_on_c, 6, 48, 84
14, 273299, Note_on_c, 6, 48, 0
14, 273300, Note_on_c, 6, 48, 84
14, 273359, Note_on_c, 6, 48, 0
14, 273360, Note_on_c, 6, 48, 84
14, 273419, Note_on_c, 6, 48, 0
14, 273420, Note_on_c, 6, 48, 84
14, 273479, Note_on_c, 6, 48, 0
14, 273480, Note_on_c, 6, 48, 84
14, 273539, Note_on_c, 6, 48, 0
14, 273540, Note_on_c, 6, 48, 84
14, 273599, Note_on_c, 6, 48, 0
14, 273600, Note_on_c, 6, 48, 84
14, 273719, Note_on_c, 6, 48, 0
14, 273720, Note_on_c, 6, 48, 84
14, 273839, Note_on_c, 6, 48, 0
14, 273840, Note_on_c, 6, 48, 84
14, 273959, Note_on_c, 6, 48, 0
14, 273960, Note_on_c, 6, 48, 84
14, 274079, Note_on_c, 6, 48, 0
14, 274080, Note_on_c, 6, 48, 84
14, 274319, Note_on_c, 6, 48, 0
14, 274320, Note_on_c, 6, 48, 84
14, 274439, Note_on_c, 6, 48, 0
14, 274440, Note_on_c, 6, 48, 84
14, 274559, Note_on_c, 6, 48, 0
14, 274560, Note_on_c, 6, 48, 84
14, 274799, Note_on_c, 6, 48, 0
14, 274800, Note_on_c, 6, 48, 84
14, 274919, Note_on_c, 6, 48, 0
14, 274920, Note_on_c, 6, 48, 84
14, 275039, Note_on_c, 6, 48, 0
14, 275040, Note_on_c, 6, 48, 84
14, 275099, Note_on_c, 6, 48, 0
14, 275100, Note_on_c, 6, 48, 84
14, 275159, Note_on_c, 6, 48, 0
14, 275160, Note_on_c, 6, 48, 84
14, 275219, Note_on_c, 6, 48, 0
14, 275220, Note_on_c, 6, 48, 84
14, 275279, Note_on_c, 6, 48, 0
14, 275280, Note_on_c, 6, 48, 84
14, 275339, Note_on_c, 6, 48, 0
14, 275340, Note_on_c, 6, 48, 84
14, 275399, Note_on_c, 6, 48, 0
14, 275400, Note_on_c, 6, 48, 84
14, 275459, Note_on_c, 6, 48, 0
14, 275460, Note_on_c, 6, 48, 84
14, 275519, Note_on_c, 6, 48, 0
14, 275520, Note_on_c, 6, 48, 84
14, 275639, Note_on_c, 6, 48, 0
14, 275640, Note_on_c, 6, 48, 84
14, 275759, Note_on_c, 6, 48, 0
14, 275760, Note_on_c, 6, 48, 84
14, 275879, Note_on_c, 6, 48, 0
14, 275880, Note_on_c, 6, 48, 84
14, 275999, Note_on_c, 6, 48, 0
14, 276000, Note_on_c, 6, 48, 84
14, 276239, Note_on_c, 6, 48, 0
14, 276240, Note_on_c, 6, 48, 84
14, 276359, Note_on_c, 6, 48, 0
14, 276360, Note_on_c, 6, 48, 84
14, 276479, Note_on_c, 6, 48, 0
14, 276480, Note_on_c, 6, 48, 84
14, 276719, Note_on_c, 6, 48, 0
14, 276720, Note_on_c, 6, 48, 84
14, 276839, Note_on_c, 6, 48, 0
14, 276840, Note_on_c, 6, 48, 84
14, 276959, Note_on_c, 6, 48, 0
14, 276960, Note_on_c, 6, 48, 84
14, 277019, Note_on_c, 6, 48, 0
14, 277020, Note_on_c, 6, 48, 84
14, 277079, Note_on_c, 6, 48, 0
14, 277080, Note_on_c, 6, 48, 84
14, 277139, Note_on_c, 6, 48, 0
14, 277140, Note_on_c, 6, 48, 84
14, 277199, Note_on_c, 6, 48, 0
14, 277200, Note_on_c, 6, 48, 84
14, 277259, Note_on_c, 6, 48, 0
14, 277260, Note_on_c, 6, 48, 84
14, 277319, Note_on_c, 6, 48, 0
14, 277320, Note_on_c, 6, 48, 84
14, 277379, Note_on_c, 6, 48, 0
14, 277380, Note_on_c, 6, 48, 84
14, 277439, Note_on_c, 6, 48, 0
14, 277440, Note_on_c, 6, 48, 84
14, 277679, Note_on_c, 6, 48, 0
14, 277680, Note_on_c, 6, 48, 84
14, 277859, Note_on_c, 6, 48, 0
14, 277860, Note_on_c, 6, 48, 84
14, 277919, Note_on_c, 6, 48, 0
14, 277920, Note_on_c, 6, 43, 84
14, 278159, Note_on_c, 6, 43, 0
14, 278400, Note_on_c, 6, 48, 84
14, 278639, Note_on_c, 6, 48, 0
14, 278880, Note_on_c, 6, 43, 84
14, 279119, Note_on_c, 6, 43, 0
14, 279120, Note_on_c, 6, 43, 84
14, 279359, Note_on_c, 6, 43, 0
14, 279600, Note_on_c, 6, 48, 84
14, 279779, Note_on_c, 6, 48, 0
14, 279780, Note_on_c, 6, 48, 84
14, 279839, Note_on_c, 6, 48, 0
14, 279840, Note_on_c, 6, 43, 84
14, 280079, Note_on_c, 6, 43, 0
14, 280320, Note_on_c, 6, 48, 84
14, 280559, Note_on_c, 6, 48, 0
14, 280800, Note_on_c, 6, 43, 84
14, 281039, Note_on_c, 6, 43, 0
14, 281040, Note_on_c, 6, 43, 84
14, 281279, Note_on_c, 6, 43, 0
14, 281520, Note_on_c, 6, 48, 84
14, 281699, Note_on_c, 6, 48, 0
14, 281700, Note_on_c, 6, 48, 84
14, 281759, Note_on_c, 6, 48, 0
14, 281760, Note_on_c, 6, 43, 84
14, 281939, Note_on_c, 6, 43, 0
14, 281940, Note_on_c, 6, 43, 84
14, 281999, Note_on_c, 6, 43, 0
14, 282000, Note_on_c, 6, 43, 84
14, 282179, Note_on_c, 6, 43, 0
14, 282180, Note_on_c, 6, 43, 84
14, 282239, Note_on_c, 6, 43, 0
14, 282240, Note_on_c, 6, 48, 84
14, 282419, Note_on_c, 6, 48, 0
14, 282420, Note_on_c, 6, 48, 84
14, 282479, Note_on_c, 6, 48, 0
14, 282480, Note_on_c, 6, 48, 84
14, 282659, Note_on_c, 6, 48, 0
14, 282660, Note_on_c, 6, 48, 84
14, 282719, Note_on_c, 6, 48, 0
14, 282720, Note_on_c, 6, 43, 84
14, 282899, Note_on_c, 6, 43, 0
14, 282900, Note_on_c, 6, 43, 84
14, 282959, Note_on_c, 6, 43, 0
14, 282960, Note_on_c, 6, 43, 84
14, 283199, Note_on_c, 6, 43, 0
14, 283680, Note_on_c, 6, 43, 84
14, 283859, Note_on_c, 6, 43, 0
14, 283860, Note_on_c, 6, 43, 84
14, 283919, Note_on_c, 6, 43, 0
14, 283920, Note_on_c, 6, 43, 84
14, 284159, Note_on_c, 6, 43, 0
14, 284640, Note_on_c, 6, 43, 84
14, 284819, Note_on_c, 6, 43, 0
14, 284820, Note_on_c, 6, 43, 84
14, 284879, Note_on_c, 6, 43, 0
14, 284880, Note_on_c, 6, 43, 84
14, 285119, Note_on_c, 6, 43, 0
14, 285120, Note_on_c, 6, 43, 84
14, 285299, Note_on_c, 6, 43, 0
14, 285300, Note_on_c, 6, 43, 84
14, 285359, Note_on_c, 6, 43, 0
14, 285360, Note_on_c, 6, 43, 84
14, 285599, Note_on_c, 6, 43, 0
14, 285600, Note_on_c, 6, 43, 84
14, 285779, Note_on_c, 6, 43, 0
14, 285780, Note_on_c, 6, 43, 84
14, 285839, Note_on_c, 6, 43, 0
14, 285840, Note_on_c, 6, 43, 84
14, 286079, Note_on_c, 6, 43, 0
14, 286080, Note_on_c, 6, 43, 84
14, 286259, Note_on_c, 6, 43, 0
14, 286260, Note_on_c, 6, 43, 84
14, 286319, Note_on_c, 6, 43, 0
14, 286320, Note_on_c, 6, 43, 84
14, 286559, Note_on_c, 6, 43, 0
14, 286560, Note_on_c, 6, 43, 84
14, 286679, Note_on_c, 6, 43, 0
14, 292320, Note_on_c, 6, 43, 84
14, 292379, Note_on_c, 6, 43, 0
14, 292380, Note_on_c, 6, 43, 84
14, 292439, Note_on_c, 6, 43, 0
14, 292440, Note_on_c, 6, 43, 84
14, 292499, Note_on_c, 6, 43, 0
14, 292500, Note_on_c, 6, 43, 84
14, 292559, Note_on_c, 6, 43, 0
14, 292560, Note_on_c, 6, 43, 84
14, 292619, Note_on_c, 6, 43, 0
14, 292620, Note_on_c, 6, 43, 84
14, 292679, Note_on_c, 6, 43, 0
14, 292680, Note_on_c, 6, 43, 84
14, 292739, Note_on_c, 6, 43, 0
14, 292740, Note_on_c, 6, 43, 84
14, 292799, Note_on_c, 6, 43, 0
14, 292800, Note_on_c, 6, 43, 84
14, 292859, Note_on_c, 6, 43, 0
14, 292860, Note_on_c, 6, 43, 84
14, 292919, Note_on_c, 6, 43, 0
14, 292920, Note_on_c, 6, 43, 84
14, 292979, Note_on_c, 6, 43, 0
14, 292980, Note_on_c, 6, 43, 84
14, 293039, Note_on_c, 6, 43, 0
14, 293040, Note_on_c, 6, 43, 84
14, 293099, Note_on_c, 6, 43, 0
14, 293100, Note_on_c, 6, 43, 84
14, 293159, Note_on_c, 6, 43, 0
14, 293160, Note_on_c, 6, 43, 84
14, 293219, Note_on_c, 6, 43, 0
14, 293220, Note_on_c, 6, 43, 84
14, 293279, Note_on_c, 6, 43, 0
14, 293280, Note_on_c, 6, 43, 84
14, 293339, Note_on_c, 6, 43, 0
14, 293340, Note_on_c, 6, 43, 84
14, 293399, Note_on_c, 6, 43, 0
14, 293400, Note_on_c, 6, 43, 84
14, 293459, Note_on_c, 6, 43, 0
14, 293460, Note_on_c, 6, 43, 84
14, 293519, Note_on_c, 6, 43, 0
14, 293520, Note_on_c, 6, 43, 84
14, 293579, Note_on_c, 6, 43, 0
14, 293580, Note_on_c, 6, 43, 84
14, 293639, Note_on_c, 6, 43, 0
14, 293640, Note_on_c, 6, 43, 84
14, 293699, Note_on_c, 6, 43, 0
14, 293700, Note_on_c, 6, 43, 84
14, 293759, Note_on_c, 6, 43, 0
14, 293760, Note_on_c, 6, 43, 84
14, 293819, Note_on_c, 6, 43, 0
14, 293820, Note_on_c, 6, 43, 84
14, 293879, Note_on_c, 6, 43, 0
14, 293880, Note_on_c, 6, 43, 84
14, 293939, Note_on_c, 6, 43, 0
14, 293940, Note_on_c, 6, 43, 84
14, 293999, Note_on_c, 6, 43, 0
14, 294000, Note_on_c, 6, 43, 84
14, 294059, Note_on_c, 6, 43, 0
14, 294060, Note_on_c, 6, 43, 84
14, 294119, Note_on_c, 6, 43, 0
14, 294120, Note_on_c, 6, 43, 84
14, 294179, Note_on_c, 6, 43, 0
14, 294180, Note_on_c, 6, 43, 84
14, 294239, Note_on_c, 6, 43, 0
14, 294240, Note_on_c, 6, 43, 84
14, 294479, Note_on_c, 6, 43, 0
14, 296160, Note_on_c, 6, 48, 84
14, 296219, Note_on_c, 6, 48, 0
14, 296220, Note_on_c, 6, 48, 84
14, 296279, Note_on_c, 6, 48, 0
14, 296280, Note_on_c, 6, 48, 84
14, 296339, Note_on_c, 6, 48, 0
14, 296340, Note_on_c, 6, 48, 84
14, 296399, Note_on_c, 6, 48, 0
14, 296400, Note_on_c, 6, 48, 84
14, 296459, Note_on_c, 6, 48, 0
14, 296460, Note_on_c, 6, 48, 84
14, 296519, Note_on_c, 6, 48, 0
14, 296520, Note_on_c, 6, 48, 84
14, 296579, Note_on_c, 6, 48, 0
14, 296580, Note_on_c, 6, 48, 84
14, 296639, Note_on_c, 6, 48, 0
14, 296640, Note_on_c, 6, 48, 84
14, 296699, Note_on_c, 6, 48, 0
14, 296700, Note_on_c, 6, 48, 84
14, 296759, Note_on_c, 6, 48, 0
14, 296760, Note_on_c, 6, 48, 84
14, 296819, Note_on_c, 6, 48, 0
14, 296820, Note_on_c, 6, 48, 84
14, 296879, Note_on_c, 6, 48, 0
14, 296880, Note_on_c, 6, 48, 84
14, 296939, Note_on_c, 6, 48, 0
14, 296940, Note_on_c, 6, 48, 84
14, 296999, Note_on_c, 6, 48, 0
14, 297000, Note_on_c, 6, 48, 84
14, 297059, Note_on_c, 6, 48, 0
14, 297060, Note_on_c, 6, 48, 84
14, 297119, Note_on_c, 6, 48, 0
14, 297120, Note_on_c, 6, 48, 84
14, 297179, Note_on_c, 6, 48, 0
14, 297180, Note_on_c, 6, 48, 84
14, 297239, Note_on_c, 6, 48, 0
14, 297240, Note_on_c, 6, 48, 84
14, 297299, Note_on_c, 6, 48, 0
14, 297300, Note_on_c, 6, 48, 84
14, 297359, Note_on_c, 6, 48, 0
14, 297360, Note_on_c, 6, 48, 84
14, 297419, Note_on_c, 6, 48, 0
14, 297420, Note_on_c, 6, 48, 84
14, 297479, Note_on_c, 6, 48, 0
14, 297480, Note_on_c, 6, 48, 84
14, 297539, Note_on_c, 6, 48, 0
14, 297540, Note_on_c, 6, 48, 84
14, 297599, Note_on_c, 6, 48, 0
14, 297600, Note_on_c, 6, 48, 84
14, 297659, Note_on_c, 6, 48, 0
14, 297660, Note_on_c, 6, 48, 84
14, 297719, Note_on_c, 6, 48, 0
14, 297720, Note_on_c, 6, 48, 84
14, 297779, Note_on_c, 6, 48, 0
14, 297780, Note_on_c, 6, 48, 84
14, 297839, Note_on_c, 6, 48, 0
14, 297840, Note_on_c, 6, 48, 84
14, 297899, Note_on_c, 6, 48, 0
14, 297900, Note_on_c, 6, 48, 84
14, 297959, Note_on_c, 6, 48, 0
14, 297960, Note_on_c, 6, 48, 84
14, 298019, Note_on_c, 6, 48, 0
14, 298020, Note_on_c, 6, 48, 84
14, 298079, Note_on_c, 6, 48, 0
14, 298080, Note_on_c, 6, 48, 84
14, 298319, Note_on_c, 6, 48, 0
14, 299040, Note_on_c, 6, 48, 84
14, 299279, Note_on_c, 6, 48, 0
14, 300000, Note_on_c, 6, 48, 84
14, 300239, Note_on_c, 6, 48, 0
14, 300960, Note_on_c, 6, 48, 84
14, 301199, Note_on_c, 6, 48, 0
14, 301920, Note_on_c, 6, 43, 84
14, 302159, Note_on_c, 6, 43, 0
14, 302880, Note_on_c, 6, 43, 84
14, 303119, Note_on_c, 6, 43, 0
14, 303840, Note_on_c, 6, 43, 84
14, 304079, Note_on_c, 6, 43, 0
14, 304800, Note_on_c, 6, 43, 84
14, 305039, Note_on_c, 6, 43, 0
14, 305760, Note_on_c, 6, 43, 84
14, 305999, Note_on_c, 6, 43, 0
14, 306720, Note_on_c, 6, 43, 84
14, 306959, Note_on_c, 6, 43, 0
14, 307680, Note_on_c, 6, 43, 84
14, 307739, Note_on_c, 6, 43, 0
14, 307740, Note_on_c, 6, 43, 84
14, 307799, Note_on_c, 6, 43, 0
14, 307800, Note_on_c, 6, 43, 84
14, 307859, Note_on_c, 6, 43, 0
14, 307860, Note_on_c, 6, 43, 84
14, 307919, Note_on_c, 6, 43, 0
14, 307920, Note_on_c, 6, 43, 84
14, 307979, Note_on_c, 6, 43, 0
14, 307980, Note_on_c, 6, 43, 84
14, 308039, Note_on_c, 6, 43, 0
14, 308040, Note_on_c, 6, 43, 84
14, 308099, Note_on_c, 6, 43, 0
14, 308100, Note_on_c, 6, 43, 84
14, 308159, Note_on_c, 6, 43, 0
14, 308160, Note_on_c, 6, 43, 84
14, 308279, Note_on_c, 6, 43, 0
14, 308280, Note_on_c, 6, 43, 84
14, 308399, Note_on_c, 6, 43, 0
14, 308520, Note_on_c, 6, 43, 84
14, 308639, Note_on_c, 6, 43, 0
14, 308640, Note_on_c, 6, 43, 84
14, 308759, Note_on_c, 6, 43, 0
14, 308760, Note_on_c, 6, 43, 84
14, 308879, Note_on_c, 6, 43, 0
14, 309000, Note_on_c, 6, 43, 84
14, 309119, Note_on_c, 6, 43, 0
14, 309120, Note_on_c, 6, 43, 84
14, 309239, Note_on_c, 6, 43, 0
14, 309240, Note_on_c, 6, 43, 84
14, 309359, Note_on_c, 6, 43, 0
14, 309600, Note_on_c, 6, 43, 84
14, 309839, Note_on_c, 6, 43, 0
14, 311520, Note_on_c, 6, 48, 84
14, 311759, Note_on_c, 6, 48, 0
14, 312000, Note_on_c, 6, 48, 84
14, 312239, Note_on_c, 6, 48, 0
14, 312480, Note_on_c, 6, 48, 84
14, 312719, Note_on_c, 6, 48, 0
14, 315120, Note_on_c, 6, 43, 76
14, 315199, Note_on_c, 6, 43, 0
14, 315200, Note_on_c, 6, 43, 76
14, 315279, Note_on_c, 6, 43, 0
14, 315280, Note_on_c, 6, 43, 76
14, 315359, Note_on_c, 6, 43, 0
14, 315360, Note_on_c, 6, 48, 76
14, 315599, Note_on_c, 6, 48, 0
14, 315600, Note_on_c, 6, 48, 76
14, 315679, Note_on_c, 6, 48, 0
14, 315680, Note_on_c, 6, 48, 76
14, 315759, Note_on_c, 6, 48, 0
14, 315760, Note_on_c, 6, 48, 76
14, 315839, Note_on_c, 6, 48, 0
14, 315840, Note_on_c, 6, 48, 76
14, 316079, Note_on_c, 6, 48, 0
14, 316080, Note_on_c, 6, 48, 76
14, 316159, Note_on_c, 6, 48, 0
14, 316160, Note_on_c, 6, 48, 76
14, 316239, Note_on_c, 6, 48, 0
14, 316240, Note_on_c, 6, 48, 76
14, 316319, Note_on_c, 6, 48, 0
14, 316320, Note_on_c, 6, 48, 76
14, 316559, Note_on_c, 6, 48, 0
14, 318480, Note_on_c, 6, 43, 76
14, 318559, Note_on_c, 6, 43, 0
14, 318560, Note_on_c, 6, 43, 76
14, 318639, Note_on_c, 6, 43, 0
14, 318640, Note_on_c, 6, 43, 76
14, 318719, Note_on_c, 6, 43, 0
14, 318720, Note_on_c, 6, 48, 76
14, 318959, Note_on_c, 6, 48, 0
14, 324000, Note_on_c, 6, 48, 84
14, 324059, Note_on_c, 6, 48, 0
14, 324060, Note_on_c, 6, 48, 84
14, 324119, Note_on_c, 6, 48, 0
14, 324120, Note_on_c, 6, 48, 84
14, 324179, Note_on_c, 6, 48, 0
14, 324180, Note_on_c, 6, 48, 84
14, 324239, Note_on_c, 6, 48, 0
14, 324240, Note_on_c, 6, 48, 84
14, 324299, Note_on_c, 6, 48, 0
14, 324300, Note_on_c, 6, 48, 84
14, 324359, Note_on_c, 6, 48, 0
14, 324360, Note_on_c, 6, 48, 84
14, 324419, Note_on_c, 6, 48, 0
14, 324420, Note_on_c, 6, 48, 84
14, 324479, Note_on_c, 6, 48, 0
14, 324480, Note_on_c, 6, 48, 84
14, 324599, Note_on_c, 6, 48, 0
14, 324600, Note_on_c, 6, 48, 84
14, 324719, Note_on_c, 6, 48, 0
14, 324720, Note_on_c, 6, 48, 84
14, 324839, Note_on_c, 6, 48, 0
14, 324840, Note_on_c, 6, 48, 84
14, 324959, Note_on_c, 6, 48, 0
14, 324960, Note_on_c, 6, 48, 84
14, 325079, Note_on_c, 6, 48, 0
14, 325080, Note_on_c, 6, 48, 84
14, 325199, Note_on_c, 6, 48, 0
14, 325200, Note_on_c, 6, 48, 84
14, 325319, Note_on_c, 6, 48, 0
14, 325320, Note_on_c, 6, 48, 84
14, 325439, Note_on_c, 6, 48, 0
14, 325440, Note_on_c, 6, 48, 84
14, 325559, Note_on_c, 6, 48, 0
14, 325560, Note_on_c, 6, 48, 84
14, 325679, Note_on_c, 6, 48, 0
14, 325680, Note_on_c, 6, 48, 84
14, 325799, Note_on_c, 6, 48, 0
14, 325800, Note_on_c, 6, 48, 84
14, 325919, Note_on_c, 6, 48, 0
14, 325920, Note_on_c, 6, 48, 84
14, 326159, Note_on_c, 6, 48, 0
14, 326160, Note_on_c, 6, 48, 84
14, 326399, Note_on_c, 6, 48, 0
14, 326400, Note_on_c, 6, 48, 84
14, 326639, Note_on_c, 6, 48, 0
14, 326640, Note_on_c, 6, 48, 84
14, 326879, Note_on_c, 6, 48, 0
14, 326880, Note_on_c, 6, 48, 84
14, 327119, Note_on_c, 6, 48, 0
14, 327120, Note_on_c, 6, 48, 84
14, 327359, Note_on_c, 6, 48, 0
14, 327360, Note_on_c, 6, 48, 84
14, 327479, Note_on_c, 6, 48, 0
14, 327480, Note_on_c, 6, 48, 84
14, 327599, Note_on_c, 6, 48, 0
14, 327600, Note_on_c, 6, 48, 84
14, 327719, Note_on_c, 6, 48, 0
14, 327720, Note_on_c, 6, 48, 84
14, 327839, Note_on_c, 6, 48, 0
14, 327840, Note_on_c, 6, 48, 84
14, 328019, Note_on_c, 6, 48, 0
14, 328800, Note_on_c, 6, 43, 84
14, 328979, Note_on_c, 6, 43, 0
14, 337440, Note_on_c, 6, 48, 76
14, 337679, Note_on_c, 6, 48, 0
14, 338160, Note_on_c, 6, 43, 76
14, 338399, Note_on_c, 6, 43, 0
14, 338400, Note_on_c, 6, 43, 76
14, 338639, Note_on_c, 6, 43, 0
14, 338640, Note_on_c, 6, 43, 76
14, 338879, Note_on_c, 6, 43, 0
14, 338880, Note_on_c, 6, 43, 76
14, 339119, Note_on_c, 6, 43, 0
14, 339120, Note_on_c, 6, 43, 76
14, 339359, Note_on_c, 6, 43, 0
14, 339360, Note_on_c, 6, 48, 76
14, 339599, Note_on_c, 6, 48, 0
14, 340080, Note_on_c, 6, 43, 76
14, 340319, Note_on_c, 6, 43, 0
14, 340320, Note_on_c, 6, 43, 76
14, 340559, Note_on_c, 6, 43, 0
14, 340560, Note_on_c, 6, 43, 76
14, 340799, Note_on_c, 6, 43, 0
14, 340800, Note_on_c, 6, 43, 76
14, 341039, Note_on_c, 6, 43, 0
14, 341040, Note_on_c, 6, 43, 76
14, 341279, Note_on_c, 6, 43, 0
14, 341280, Note_on_c, 6, 43, 76
14, 341519, Note_on_c, 6, 43, 0
14, 342000, Note_on_c, 6, 48, 76
14, 342239, Note_on_c, 6, 48, 0
14, 342240, Note_on_c, 6, 48, 76
14, 342479, Note_on_c, 6, 48, 0
14, 342480, Note_on_c, 6, 43, 80
14, 342719, Note_on_c, 6, 43, 0
14, 342720, Note_on_c, 6, 43, 80
14, 342959, Note_on_c, 6, 43, 0
14, 342960, Note_on_c, 6, 43, 80
14, 343199, Note_on_c, 6, 43, 0
14, 343200, Note_on_c, 6, 43, 80
14, 343439, Note_on_c, 6, 43, 0
14, 343440, Note_on_c, 6, 43, 80
14, 343679, Note_on_c, 6, 43, 0
14, 343680, Note_on_c, 6, 43, 80
14, 343919, Note_on_c, 6, 43, 0
14, 343920, Note_on_c, 6, 43, 80
14, 344159, Note_on_c, 6, 43, 0
14, 344160, Note_on_c, 6, 43, 80
14, 344399, Note_on_c, 6, 43, 0
14, 344400, Note_on_c, 6, 43, 80
14, 344639, Note_on_c, 6, 43, 0
14, 344640, Note_on_c, 6, 43, 80
14, 344879, Note_on_c, 6, 43, 0
14, 344880, Note_on_c, 6, 43, 80
14, 345119, Note_on_c, 6, 43, 0
14, 348000, Note_on_c, 6, 48, 80
14, 348039, Note_on_c, 6, 48, 0
14, 348040, Note_on_c, 6, 48, 84
14, 348079, Note_on_c, 6, 48, 0
14, 348080, Note_on_c, 6, 48, 81
14, 348119, Note_on_c, 6, 48, 0
14, 348120, Note_on_c, 6, 48, 86
14, 348159, Note_on_c, 6, 48, 0
14, 348160, Note_on_c, 6, 48, 84
14, 348199, Note_on_c, 6, 48, 0
14, 348200, Note_on_c, 6, 48, 83
14, 348239, Note_on_c, 6, 48, 0
14, 348240, Note_on_c, 6, 48, 82
14, 348279, Note_on_c, 6, 48, 0
14, 348280, Note_on_c, 6, 48, 87
14, 348319, Note_on_c, 6, 48, 0
14, 348320, Note_on_c, 6, 48, 86
14, 348359, Note_on_c, 6, 48, 0
14, 348360, Note_on_c, 6, 48, 85
14, 348399, Note_on_c, 6, 48, 0
14, 348400, Note_on_c, 6, 48, 81
14, 348439, Note_on_c, 6, 48, 0
14, 348440, Note_on_c, 6, 48, 86
14, 348479, Note_on_c, 6, 48, 0
14, 348480, Note_on_c, 6, 48, 85
14, 348519, Note_on_c, 6, 48, 0
14, 348520, Note_on_c, 6, 48, 84
14, 348559, Note_on_c, 6, 48, 0
14, 348560, Note_on_c, 6, 48, 82
14, 348599, Note_on_c, 6, 48, 0
14, 348600, Note_on_c, 6, 48, 80
14, 348639, Note_on_c, 6, 48, 0
14, 348640, Note_on_c, 6, 48, 80
14, 348679, Note_on_c, 6, 48, 0
14, 348680, Note_on_c, 6, 48, 82
14, 348719, Note_on_c, 6, 48, 0
14, 348720, Note_on_c, 6, 48, 81
14, 348759, Note_on_c, 6, 48, 0
14, 348760, Note_on_c, 6, 48, 81
14, 348799, Note_on_c, 6, 48, 0
14, 348800, Note_on_c, 6, 48, 87
14, 348839, Note_on_c, 6, 48, 0
14, 348840, Note_on_c, 6, 48, 83
14, 348879, Note_on_c, 6, 48, 0
14, 348880, Note_on_c, 6, 48, 80
14, 348919, Note_on_c, 6, 48, 0
14, 348920, Note_on_c, 6, 48, 80
14, 348959, Note_on_c, 6, 48, 0
14, 348960, Note_on_c, 6, 48, 80
14, 348999, Note_on_c, 6, 48, 0
14, 349000, Note_on_c, 6, 48, 83
14, 349039, Note_on_c, 6, 48, 0
14, 349040, Note_on_c, 6, 48, 84
14, 349079, Note_on_c, 6, 48, 0
14, 349080, Note_on_c, 6, 48, 84
14, 349119, Note_on_c, 6, 48, 0
14, 349120, Note_on_c, 6, 48, 84
14, 349159, Note_on_c, 6, 48, 0
14, 349160, Note_on_c, 6, 48, 84
14, 349199, Note_on_c, 6, 48, 0
14, 349200, Note_on_c, 6, 48, 81
14, 349239, Note_on_c, 6, 48, 0
14, 349240, Note_on_c, 6, 48, 85
14, 349279, Note_on_c, 6, 48, 0
14, 349280, Note_on_c, 6, 48, 83
14, 349319, Note_on_c, 6, 48, 0
14, 349320, Note_on_c, 6, 48, 82
14, 349359, Note_on_c, 6, 48, 0
14, 349360, Note_on_c, 6, 48, 80
14, 349399, Note_on_c, 6, 48, 0
14, 349400, Note_on_c, 6, 48, 84
14, 349439, Note_on_c, 6, 48, 0
14, 349440, Note_on_c, 6, 48, 86
14, 349479, Note_on_c, 6, 48, 0
14, 349480, Note_on_c, 6, 48, 86
14, 349519, Note_on_c, 6, 48, 0
14, 349520, Note_on_c, 6, 48, 84
14, 349559, Note_on_c, 6, 48, 0
14, 349560, Note_on_c, 6, 48, 82
14, 349599, Note_on_c, 6, 48, 0
14, 349600, Note_on_c, 6, 48, 87
14, 349639, Note_on_c, 6, 48, 0
14, 349640, Note_on_c, 6, 48, 85
14, 349679, Note_on_c, 6, 48, 0
14, 349680, Note_on_c, 6, 48, 87
14, 349719, Note_on_c, 6, 48, 0
14, 349720, Note_on_c, 6, 48, 87
14, 349759, Note_on_c, 6, 48, 0
14, 349760, Note_on_c, 6, 48, 84
14, 349799, Note_on_c, 6, 48, 0
14, 349800, Note_on_c, 6, 48, 81
14, 349839, Note_on_c, 6, 48, 0
14, 349840, Note_on_c, 6, 48, 83
14, 349879, Note_on_c, 6, 48, 0
14, 349880, Note_on_c, 6, 48, 81
14, 349919, Note_on_c, 6, 48, 0
14, 349920, Note_on_c, 6, 48, 92
14, 349979, Note_on_c, 6, 48, 0
14, 349980, Note_on_c, 6, 48, 84
14, 350039, Note_on_c, 6, 48, 0
14, 350040, Note_on_c, 6, 48, 84
14, 350099, Note_on_c, 6, 48, 0
14, 350100, Note_on_c, 6, 48, 84
14, 350159, Note_on_c, 6, 48, 0
14, 350160, Note_on_c, 6, 48, 84
14, 350219, Note_on_c, 6, 48, 0
14, 350220, Note_on_c, 6, 48, 84
14, 350279, Note_on_c, 6, 48, 0
14, 350280, Note_on_c, 6, 48, 84
14, 350339, Note_on_c, 6, 48, 0
14, 350340, Note_on_c, 6, 48, 84
14, 350399, Note_on_c, 6, 48, 0
14, 350400, Note_on_c, 6, 48, 84
14, 350639, Note_on_c, 6, 48, 0
14, 351840, Note_on_c, 6, 43, 84
14, 352049, Note_on_c, 6, 43, 0
14, 353760, Note_on_c, 6, 43, 76
14, 353999, Note_on_c, 6, 43, 0
14, 355680, Note_on_c, 6, 43, 76
14, 355919, Note_on_c, 6, 43, 0
14, 357600, Note_on_c, 6, 43, 76
14, 357839, Note_on_c, 6, 43, 0
14, 358320, Note_on_c, 6, 48, 80
14, 358559, Note_on_c, 6, 48, 0
14, 358560, Note_on_c, 6, 43, 80
14, 358799, Note_on_c, 6, 43, 0
14, 359040, Note_on_c, 6, 48, 80
14, 359279, Note_on_c, 6, 48, 0
14, 359520, Note_on_c, 6, 43, 80
14, 359759, Note_on_c, 6, 43, 0
14, 360240, Note_on_c, 6, 43, 80
14, 360479, Note_on_c, 6, 43, 0
14, 360480, Note_on_c, 6, 43, 80
14, 360719, Note_on_c, 6, 43, 0
14, 360960, Note_on_c, 6, 43, 80
14, 361199, Note_on_c, 6, 43, 0
14, 361440, Note_on_c, 6, 43, 84
14, 361679, Note_on_c, 6, 43, 0
14, 362400, Note_on_c, 6, 43, 84
14, 362639, Note_on_c, 6, 43, 0
14, 363360, Note_on_c, 6, 48, 84
14, 363599, Note_on_c, 6, 48, 0
14, 363960, Note_on_c, 6, 48, 84
14, 364079, Note_on_c, 6, 48, 0
14, 364080, Note_on_c, 6, 48, 84
14, 364199, Note_on_c, 6, 48, 0
14, 364200, Note_on_c, 6, 48, 84
14, 364319, Note_on_c, 6, 48, 0
14, 364320, Note_on_c, 6, 48, 84
14, 364559, Note_on_c, 6, 48, 0
14, 364920, Note_on_c, 6, 48, 84
14, 365039, Note_on_c, 6, 48, 0
14, 365040, Note_on_c, 6, 48, 84
14, 365159, Note_on_c, 6, 48, 0
14, 365160, Note_on_c, 6, 48, 84
14, 365279, Note_on_c, 6, 48, 0
14, 365280, Note_on_c, 6, 48, 84
14, 365519, Note_on_c, 6, 48, 0
14, 365520, Note_on_c, 6, 48, 84
14, 365639, Note_on_c, 6, 48, 0
14, 365640, Note_on_c, 6, 48, 84
14, 365759, Note_on_c, 6, 48, 0
14, 365760, Note_on_c, 6, 48, 84
14, 365879, Note_on_c, 6, 48, 0
14, 365880, Note_on_c, 6, 48, 84
14, 365999, Note_on_c, 6, 48, 0
14, 366000, Note_on_c, 6, 48, 84
14, 366119, Note_on_c, 6, 48, 0
14, 366120, Note_on_c, 6, 48, 84
14, 366239, Note_on_c, 6, 48, 0
14, 366240, Note_on_c, 6, 48, 84
14, 366359, Note_on_c, 6, 48, 0
14, 366360, Note_on_c, 6, 48, 84
14, 366479, Note_on_c, 6, 48, 0
14, 366480, Note_on_c, 6, 48, 84
14, 366599, Note_on_c, 6, 48, 0
14, 366600, Note_on_c, 6, 48, 84
14, 366719, Note_on_c, 6, 48, 0
14, 366720, Note_on_c, 6, 48, 84
14, 366839, Note_on_c, 6, 48, 0
14, 366840, Note_on_c, 6, 48, 84
14, 366959, Note_on_c, 6, 48, 0
14, 366960, Note_on_c, 6, 48, 84
14, 367079, Note_on_c, 6, 48, 0
14, 367080, Note_on_c, 6, 48, 84
14, 367199, Note_on_c, 6, 48, 0
14, 367200, Note_on_c, 6, 43, 84
14, 367379, Note_on_c, 6, 43, 0
14, 368160, Note_on_c, 6, 43, 84
14, 368339, Note_on_c, 6, 43, 0
14, 369120, Note_on_c, 6, 48, 84
14, 369299, Note_on_c, 6, 48, 0
14, 370080, Note_on_c, 6, 43, 84
14, 370259, Note_on_c, 6, 43, 0
14, 371040, Note_on_c, 6, 48, 84
14, 371219, Note_on_c, 6, 48, 0
14, 372000, Note_on_c, 6, 43, 84
14, 372179, Note_on_c, 6, 43, 0
14, 380640, Note_on_c, 6, 43, 52
14, 380679, Note_on_c, 6, 43, 0
14, 380680, Note_on_c, 6, 43, 53
14, 380719, Note_on_c, 6, 43, 0
14, 380720, Note_on_c, 6, 43, 54
14, 380759, Note_on_c, 6, 43, 0
14, 380760, Note_on_c, 6, 43, 55
14, 380799, Note_on_c, 6, 43, 0
14, 380800, Note_on_c, 6, 43, 56
14, 380839, Note_on_c, 6, 43, 0
14, 380840, Note_on_c, 6, 43, 57
14, 380879, Note_on_c, 6, 43, 0
14, 380880, Note_on_c, 6, 43, 58
14, 380919, Note_on_c, 6, 43, 0
14, 380920, Note_on_c, 6, 43, 59
14, 380959, Note_on_c, 6, 43, 0
14, 380960, Note_on_c, 6, 43, 60
14, 380999, Note_on_c, 6, 43, 0
14, 381000, Note_on_c, 6, 43, 61
14, 381039, Note_on_c, 6, 43, 0
14, 381040, Note_on_c, 6, 43, 62
14, 381079, Note_on_c, 6, 43, 0
14, 381080, Note_on_c, 6, 43, 63
14, 381119, Note_on_c, 6, 43, 0
14, 381120, Note_on_c, 6, 43, 64
14, 381159, Note_on_c, 6, 43, 0
14, 381160, Note_on_c, 6, 43, 65
14, 381199, Note_on_c, 6, 43, 0
14, 381200, Note_on_c, 6, 43, 66
14, 381239, Note_on_c, 6, 43, 0
14, 381240, Note_on_c, 6, 43, 67
14, 381279, Note_on_c, 6, 43, 0
14, 381280, Note_on_c, 6, 43, 68
14, 381319, Note_on_c, 6, 43, 0
14, 381320, Note_on_c, 6, 43, 69
14, 381359, Note_on_c, 6, 43, 0
14, 381360, Note_on_c, 6, 43, 70
14, 381399, Note_on_c, 6, 43, 0
14, 381400, Note_on_c, 6, 43, 71
14, 381439, Note_on_c, 6, 43, 0
14, 381440, Note_on_c, 6, 43, 72
14, 381479, Note_on_c, 6, 43, 0
14, 381480, Note_on_c, 6, 43, 73
14, 381519, Note_on_c, 6, 43, 0
14, 381520, Note_on_c, 6, 43, 74
14, 381559, Note_on_c, 6, 43, 0
14, 381560, Note_on_c, 6, 43, 75
14, 381599, Note_on_c, 6, 43, 0
14, 381600, Note_on_c, 6, 48, 76
14, 381839, Note_on_c, 6, 48, 0
14, 381840, Note_on_c, 6, 48, 76
14, 382079, Note_on_c, 6, 48, 0
14, 382080, Note_on_c, 6, 48, 76
14, 382319, Note_on_c, 6, 48, 0
14, 382320, Note_on_c, 6, 48, 76
14, 382559, Note_on_c, 6, 48, 0
14, 382560, Note_on_c, 6, 48, 76
14, 382799, Note_on_c, 6, 48, 0
14, 382800, Note_on_c, 6, 48, 76
14, 383039, Note_on_c, 6, 48, 0
14, 383040, Note_on_c, 6, 48, 76
14, 383279, Note_on_c, 6, 48, 0
14, 383280, Note_on_c, 6, 48, 76
14, 383519, Note_on_c, 6, 48, 0
14, 383520, Note_on_c, 6, 48, 76
14, 383759, Note_on_c, 6, 48, 0
14, 384240, Note_on_c, 6, 48, 76
14, 384419, Note_on_c, 6, 48, 0
14, 384480, Note_on_c, 6, 48, 76
14, 384719, Note_on_c, 6, 48, 0
14, 385200, Note_on_c, 6, 48, 76
14, 385379, Note_on_c, 6, 48, 0
14, 385440, Note_on_c, 6, 48, 76
14, 385679, Note_on_c, 6, 48, 0
14, 386160, Note_on_c, 6, 48, 76
14, 386339, Note_on_c, 6, 48, 0
14, 386400, Note_on_c, 6, 48, 76
14, 386639, Note_on_c, 6, 48, 0
14, 387120, Note_on_c, 6, 48, 76
14, 387299, Note_on_c, 6, 48, 0
14, 387360, Note_on_c, 6, 43, 76
14, 387599, Note_on_c, 6, 43, 0
14, 387840, Note_on_c, 6, 48, 52
14, 388079, Note_on_c, 6, 48, 0
14, 388320, Note_on_c, 6, 48, 52
14, 388559, Note_on_c, 6, 48, 0
14, 388800, Note_on_c, 6, 43, 52
14, 389039, Note_on_c, 6, 43, 0
14, 397200, Note_on_c, 6, 43, 58
14, 397439, Note_on_c, 6, 43, 0
14, 397680, Note_on_c, 6, 43, 70
14, 397919, Note_on_c, 6, 43, 0
14, 397920, Note_on_c, 6, 48, 76
14, 398159, Note_on_c, 6, 48, 0
14, 398160, Note_on_c, 6, 48, 76
14, 398399, Note_on_c, 6, 48, 0
14, 398400, Note_on_c, 6, 48, 76
14, 398639, Note_on_c, 6, 48, 0
14, 398640, Note_on_c, 6, 48, 76
14, 398879, Note_on_c, 6, 48, 0
14, 398880, Note_on_c, 6, 48, 76
14, 399119, Note_on_c, 6, 48, 0
14, 399120, Note_on_c, 6, 48, 76
14, 399359, Note_on_c, 6, 48, 0
14, 399360, Note_on_c, 6, 48, 76
14, 399599, Note_on_c, 6, 48, 0
14, 399600, Note_on_c, 6, 48, 76
14, 399839, Note_on_c, 6, 48, 0
14, 399840, Note_on_c, 6, 48, 76
14, 400079, Note_on_c, 6, 48, 0
14, 400560, Note_on_c, 6, 48, 76
14, 400739, Note_on_c, 6, 48, 0
14, 400800, Note_on_c, 6, 48, 76
14, 401039, Note_on_c, 6, 48, 0
14, 401520, Note_on_c, 6, 48, 76
14, 401699, Note_on_c, 6, 48, 0
14, 401760, Note_on_c, 6, 48, 76
14, 401999, Note_on_c, 6, 48, 0
14, 402480, Note_on_c, 6, 48, 76
14, 402659, Note_on_c, 6, 48, 0
14, 402720, Note_on_c, 6, 48, 76
14, 402959, Note_on_c, 6, 48, 0
14, 403440, Note_on_c, 6, 48, 76
14, 403619, Note_on_c, 6, 48, 0
14, 403680, Note_on_c, 6, 48, 52
14, 403799, Note_on_c, 6, 48, 0
14, 407760, Note_on_c, 6, 48, 52
14, 407879, Note_on_c, 6, 48, 0
14, 408000, Note_on_c, 6, 48, 52
14, 408119, Note_on_c, 6, 48, 0
14, 408240, Note_on_c, 6, 48, 56
14, 408359, Note_on_c, 6, 48, 0
14, 408480, Note_on_c, 6, 43, 60
14, 408599, Note_on_c, 6, 43, 0
14, 408720, Note_on_c, 6, 43, 64
14, 408839, Note_on_c, 6, 43, 0
14, 408960, Note_on_c, 6, 43, 68
14, 409079, Note_on_c, 6, 43, 0
14, 409200, Note_on_c, 6, 43, 72
14, 409319, Note_on_c, 6, 43, 0
14, 409440, Note_on_c, 6, 48, 76
14, 409559, Note_on_c, 6, 48, 0
14, 410400, Note_on_c, 6, 48, 76
14, 410519, Note_on_c, 6, 48, 0
14, 411360, Note_on_c, 6, 48, 76
14, 411479, Note_on_c, 6, 48, 0
14, 412320, Note_on_c, 6, 48, 76
14, 412439, Note_on_c, 6, 48, 0
14, 413280, Note_on_c, 6, 48, 76
14, 413399, Note_on_c, 6, 48, 0
14, 414240, Note_on_c, 6, 48, 76
14, 414359, Note_on_c, 6, 48, 0
14, 415200, Note_on_c, 6, 48, 76
14, 415319, Note_on_c, 6, 48, 0
14, 416160, Note_on_c, 6, 48, 76
14, 416279, Note_on_c, 6, 48, 0
14, 417120, Note_on_c, 6, 48, 52
14, 417239, Note_on_c, 6, 48, 0
14, 417360, Note_on_c, 6, 48, 53
14, 417479, Note_on_c, 6, 48, 0
14, 417600, Note_on_c, 6, 48, 55
14, 417719, Note_on_c, 6, 48, 0
14, 417840, Note_on_c, 6, 48, 56
14, 417959, Note_on_c, 6, 48, 0
14, 418080, Note_on_c, 6, 43, 58
14, 418199, Note_on_c, 6, 43, 0
14, 418320, Note_on_c, 6, 43, 59
14, 418439, Note_on_c, 6, 43, 0
14, 418560, Note_on_c, 6, 43, 61
14, 418679, Note_on_c, 6, 43, 0
14, 418800, Note_on_c, 6, 48, 62
14, 418919, Note_on_c, 6, 48, 0
14, 419040, Note_on_c, 6, 48, 64
14, 419159, Note_on_c, 6, 48, 0
14, 419280, Note_on_c, 6, 48, 65
14, 419399, Note_on_c, 6, 48, 0
14, 419520, Note_on_c, 6, 48, 67
14, 419639, Note_on_c, 6, 48, 0
14, 419760, Note_on_c, 6, 48, 68
14, 419879, Note_on_c, 6, 48, 0
14, 420000, Note_on_c, 6, 43, 70
14, 420119, Note_on_c, 6, 43, 0
14, 420240, Note_on_c, 6, 43, 71
14, 420359, Note_on_c, 6, 43, 0
14, 420480, Note_on_c, 6, 43, 73
14, 420599, Note_on_c, 6, 43, 0
14, 420720, Note_on_c, 6, 48, 74
14, 420839, Note_on_c, 6, 48, 0
14, 420840, Note_on_c, 6, 48, 75
14, 420959, Note_on_c, 6, 48, 0
14, 420960, Note_on_c, 6, 48, 76
14, 421079, Note_on_c, 6, 48, 0
14, 421080, Note_on_c, 6, 48, 76
14, 421199, Note_on_c, 6, 48, 0
14, 421200, Note_on_c, 6, 48, 76
14, 421319, Note_on_c, 6, 48, 0
14, 421320, Note_on_c, 6, 48, 76
14, 421439, Note_on_c, 6, 48, 0
14, 421440, Note_on_c, 6, 48, 76
14, 421559, Note_on_c, 6, 48, 0
14, 421560, Note_on_c, 6, 48, 76
14, 421679, Note_on_c, 6, 48, 0
14, 421680, Note_on_c, 6, 48, 76
14, 421799, Note_on_c, 6, 48, 0
14, 421800, Note_on_c, 6, 48, 76
14, 421919, Note_on_c, 6, 48, 0
14, 421920, Note_on_c, 6, 43, 76
14, 422039, Note_on_c, 6, 43, 0
14, 422040, Note_on_c, 6, 43, 76
14, 422159, Note_on_c, 6, 43, 0
14, 422160, Note_on_c, 6, 43, 76
14, 422279, Note_on_c, 6, 43, 0
14, 422280, Note_on_c, 6, 43, 76
14, 422399, Note_on_c, 6, 43, 0
14, 422400, Note_on_c, 6, 43, 76
14, 422519, Note_on_c, 6, 43, 0
14, 422520, Note_on_c, 6, 43, 76
14, 422639, Note_on_c, 6, 43, 0
14, 422640, Note_on_c, 6, 43, 76
14, 422759, Note_on_c, 6, 43, 0
14, 422760, Note_on_c, 6, 43, 76
14, 422879, Note_on_c, 6, 43, 0
14, 422880, Note_on_c, 6, 48, 84
14, 422999, Note_on_c, 6, 48, 0
14, 423120, Note_on_c, 6, 48, 84
14, 423239, Note_on_c, 6, 48, 0
14, 423360, Note_on_c, 6, 48, 84
14, 423479, Note_on_c, 6, 48, 0
14, 423600, Note_on_c, 6, 48, 84
14, 423719, Note_on_c, 6, 48, 0
14, 423840, Note_on_c, 6, 48, 84
14, 423959, Note_on_c, 6, 48, 0
14, 423960, Note_on_c, 6, 48, 84
14, 424079, Note_on_c, 6, 48, 0
14, 424080, Note_on_c, 6, 48, 84
14, 424199, Note_on_c, 6, 48, 0
14, 424200, Note_on_c, 6, 48, 84
14, 424319, Note_on_c, 6, 48, 0
14, 424320, Note_on_c, 6, 48, 84
14, 424439, Note_on_c, 6, 48, 0
14, 424680, Note_on_c, 6, 48, 84
14, 424799, Note_on_c, 6, 48, 0
14, 424800, Note_on_c, 6, 48, 84
14, 424919, Note_on_c, 6, 48, 0
14, 424920, Note_on_c, 6, 48, 84
14, 425039, Note_on_c, 6, 48, 0
14, 425040, Note_on_c, 6, 48, 84
14, 425159, Note_on_c, 6, 48, 0
14, 425160, Note_on_c, 6, 48, 84
14, 425279, Note_on_c, 6, 48, 0
14, 425280, Note_on_c, 6, 48, 84
14, 425399, Note_on_c, 6, 48, 0
14, 425640, Note_on_c, 6, 48, 84
14, 425759, Note_on_c, 6, 48, 0
14, 425760, Note_on_c, 6, 43, 84
14, 425879, Note_on_c, 6, 43, 0
14, 425880, Note_on_c, 6, 43, 84
14, 425999, Note_on_c, 6, 43, 0
14, 426000, Note_on_c, 6, 43, 84
14, 426119, Note_on_c, 6, 43, 0
14, 426120, Note_on_c, 6, 43, 84
14, 426239, Note_on_c, 6, 43, 0
14, 426240, Note_on_c, 6, 43, 84
14, 426359, Note_on_c, 6, 43, 0
14, 426600, Note_on_c, 6, 43, 84
14, 426719, Note_on_c, 6, 43, 0
14, 426720, Note_on_c, 6, 43, 84
14, 426839, Note_on_c, 6, 43, 0
14, 426840, Note_on_c, 6, 43, 84
14, 426959, Note_on_c, 6, 43, 0
14, 426960, Note_on_c, 6, 43, 84
14, 427079, Note_on_c, 6, 43, 0
14, 427080, Note_on_c, 6, 43, 84
14, 427199, Note_on_c, 6, 43, 0
14, 427200, Note_on_c, 6, 43, 84
14, 427319, Note_on_c, 6, 43, 0
14, 427320, Note_on_c, 6, 43, 84
14, 427439, Note_on_c, 6, 43, 0
14, 427440, Note_on_c, 6, 43, 84
14, 427559, Note_on_c, 6, 43, 0
14, 427560, Note_on_c, 6, 43, 84
14, 427679, Note_on_c, 6, 43, 0
14, 427680, Note_on_c, 6, 43, 80
14, 427739, Note_on_c, 6, 43, 0
14, 427740, Note_on_c, 6, 43, 87
14, 427799, Note_on_c, 6, 43, 0
14, 427800, Note_on_c, 6, 43, 82
14, 427859, Note_on_c, 6, 43, 0
14, 427860, Note_on_c, 6, 43, 82
14, 427919, Note_on_c, 6, 43, 0
14, 427920, Note_on_c, 6, 43, 84
14, 427979, Note_on_c, 6, 43, 0
14, 427980, Note_on_c, 6, 43, 85
14, 428039, Note_on_c, 6, 43, 0
14, 428040, Note_on_c, 6, 43, 86
14, 428099, Note_on_c, 6, 43, 0
14, 428100, Note_on_c, 6, 43, 85
14, 428159, Note_on_c, 6, 43, 0
14, 428160, Note_on_c, 6, 43, 83
14, 428219, Note_on_c, 6, 43, 0
14, 428220, Note_on_c, 6, 43, 81
14, 428279, Note_on_c, 6, 43, 0
14, 428280, Note_on_c, 6, 43, 85
14, 428339, Note_on_c, 6, 43, 0
14, 428340, Note_on_c, 6, 43, 83
14, 428399, Note_on_c, 6, 43, 0
14, 428400, Note_on_c, 6, 43, 83
14, 428459, Note_on_c, 6, 43, 0
14, 428460, Note_on_c, 6, 43, 87
14, 428519, Note_on_c, 6, 43, 0
14, 428520, Note_on_c, 6, 43, 85
14, 428579, Note_on_c, 6, 43, 0
14, 428580, Note_on_c, 6, 43, 80
14, 428639, Note_on_c, 6, 43, 0
14, 428640, Note_on_c, 6, 43, 84
14, 428699, Note_on_c, 6, 43, 0
14, 428700, Note_on_c, 6, 43, 83
14, 428759, Note_on_c, 6, 43, 0
14, 428760, Note_on_c, 6, 43, 85
14, 428819, Note_on_c, 6, 43, 0
14, 428820, Note_on_c, 6, 43, 84
14, 428879, Note_on_c, 6, 43, 0
14, 428880, Note_on_c, 6, 43, 84
14, 428939, Note_on_c, 6, 43, 0
14, 428940, Note_on_c, 6, 43, 82
14, 428999, Note_on_c, 6, 43, 0
14, 429000, Note_on_c, 6, 43, 81
14, 429059, Note_on_c, 6, 43, 0
14, 429060, Note_on_c, 6, 43, 81
14, 429119, Note_on_c, 6, 43, 0
14, 429120, Note_on_c, 6, 43, 83
14, 429179, Note_on_c, 6, 43, 0
14, 429180, Note_on_c, 6, 43, 86
14, 429239, Note_on_c, 6, 43, 0
14, 429240, Note_on_c, 6, 43, 84
14, 429299, Note_on_c, 6, 43, 0
14, 429300, Note_on_c, 6, 43, 87
14, 429359, Note_on_c, 6, 43, 0
14, 429360, Note_on_c, 6, 43, 86
14, 429419, Note_on_c, 6, 43, 0
14, 429420, Note_on_c, 6, 43, 82
14, 429479, Note_on_c, 6, 43, 0
14, 429480, Note_on_c, 6, 43, 81
14, 429539, Note_on_c, 6, 43, 0
14, 429540, Note_on_c, 6, 43, 85
14, 429599, Note_on_c, 6, 43, 0
14, 429600, Note_on_c, 6, 48, 84
14, 429719, Note_on_c, 6, 48, 0
14, 430080, Note_on_c, 6, 43, 84
14, 430199, Note_on_c, 6, 43, 0
14, 430560, Note_on_c, 6, 48, 84
14, 430679, Note_on_c, 6, 48, 0
14, 431040, Note_on_c, 6, 43, 84
14, 431159, Note_on_c, 6, 43, 0
14, 431520, Note_on_c, 6, 48, 84
14, 431639, Note_on_c, 6, 48, 0
14, 432000, Note_on_c, 6, 43, 84
14, 432119, Note_on_c, 6, 43, 0
14, 432480, Note_on_c, 6, 48, 84
14, 432599, Note_on_c, 6, 48, 0
14, 432960, Note_on_c, 6, 43, 84
14, 433079, Note_on_c, 6, 43, 0
14, 433440, Note_on_c, 6, 48, 84
14, 433559, Note_on_c, 6, 48, 0
14, 433920, Note_on_c, 6, 43, 84
14, 434039, Note_on_c, 6, 43, 0
14, 434400, Note_on_c, 6, 48, 84
14, 434519, Note_on_c, 6, 48, 0
14, 434880, Note_on_c, 6, 43, 84
14, 434999, Note_on_c, 6, 43, 0
14, 435360, Note_on_c, 6, 48, 84
14, 435419, Note_on_c, 6, 48, 0
14, 435420, Note_on_c, 6, 48, 84
14, 435479, Note_on_c, 6, 48, 0
14, 435480, Note_on_c, 6, 48, 84
14, 435539, Note_on_c, 6, 48, 0
14, 435540, Note_on_c, 6, 48, 84
14, 435599, Note_on_c, 6, 48, 0
14, 435600, Note_on_c, 6, 48, 84
14, 435659, Note_on_c, 6, 48, 0
14, 435660, Note_on_c, 6, 48, 84
14, 435719, Note_on_c, 6, 48, 0
14, 435720, Note_on_c, 6, 48, 84
14, 435779, Note_on_c, 6, 48, 0
14, 435780, Note_on_c, 6, 48, 84
14, 435839, Note_on_c, 6, 48, 0
14, 435840, Note_on_c, 6, 48, 84
14, 435899, Note_on_c, 6, 48, 0
14, 435900, Note_on_c, 6, 48, 84
14, 435959, Note_on_c, 6, 48, 0
14, 435960, Note_on_c, 6, 48, 84
14, 436019, Note_on_c, 6, 48, 0
14, 436020, Note_on_c, 6, 48, 84
14, 436079, Note_on_c, 6, 48, 0
14, 436080, Note_on_c, 6, 48, 84
14, 436139, Note_on_c, 6, 48, 0
14, 436140, Note_on_c, 6, 48, 84
14, 436199, Note_on_c, 6, 48, 0
14, 436200, Note_on_c, 6, 48, 84
14, 436259, Note_on_c, 6, 48, 0
14, 436260, Note_on_c, 6, 48, 84
14, 436319, Note_on_c, 6, 48, 0
14, 436320, Note_on_c, 6, 48, 84
14, 436379, Note_on_c, 6, 48, 0
14, 436380, Note_on_c, 6, 48, 84
14, 436439, Note_on_c, 6, 48, 0
14, 436440, Note_on_c, 6, 48, 84
14, 436499, Note_on_c, 6, 48, 0
14, 436500, Note_on_c, 6, 48, 84
14, 436559, Note_on_c, 6, 48, 0
14, 436560, Note_on_c, 6, 48, 84
14, 436619, Note_on_c, 6, 48, 0
14, 436620, Note_on_c, 6, 48, 84
14, 436679, Note_on_c, 6, 48, 0
14, 436680, Note_on_c, 6, 48, 84
14, 436739, Note_on_c, 6, 48, 0
14, 436740, Note_on_c, 6, 48, 84
14, 436799, Note_on_c, 6, 48, 0
14, 436800, Note_on_c, 6, 48, 84
14, 436859, Note_on_c, 6, 48, 0
14, 436860, Note_on_c, 6, 48, 84
14, 436919, Note_on_c, 6, 48, 0
14, 436920, Note_on_c, 6, 48, 84
14, 436979, Note_on_c, 6, 48, 0
14, 436980, Note_on_c, 6, 48, 84
14, 437039, Note_on_c, 6, 48, 0
14, 437040, Note_on_c, 6, 48, 84
14, 437099, Note_on_c, 6, 48, 0
14, 437100, Note_on_c, 6, 48, 84
14, 437159, Note_on_c, 6, 48, 0
14, 437160, Note_on_c, 6, 48, 84
14, 437219, Note_on_c, 6, 48, 0
14, 437220, Note_on_c, 6, 48, 84
14, 437279, Note_on_c, 6, 48, 0
14, 437280, Note_on_c, 6, 48, 84
14, 437399, Note_on_c, 6, 48, 0
14, 437640, Note_on_c, 6, 48, 84
14, 437759, Note_on_c, 6, 48, 0
14, 437760, Note_on_c, 6, 48, 84
14, 437879, Note_on_c, 6, 48, 0
14, 437880, Note_on_c, 6, 48, 84
14, 437999, Note_on_c, 6, 48, 0
14, 438000, Note_on_c, 6, 48, 84
14, 438119, Note_on_c, 6, 48, 0
14, 438120, Note_on_c, 6, 48, 84
14, 438239, Note_on_c, 6, 48, 0
14, 438240, Note_on_c, 6, 48, 84
14, 438359, Note_on_c, 6, 48, 0
14, 438600, Note_on_c, 6, 48, 84
14, 438719, Note_on_c, 6, 48, 0
14, 438720, Note_on_c, 6, 48, 84
14, 438839, Note_on_c, 6, 48, 0
14, 438840, Note_on_c, 6, 48, 84
14, 438959, Note_on_c, 6, 48, 0
14, 438960, Note_on_c, 6, 48, 84
14, 439079, Note_on_c, 6, 48, 0
14, 439080, Note_on_c, 6, 48, 84
14, 439199, Note_on_c, 6, 48, 0
14, 439200, Note_on_c, 6, 48, 84
14, 439319, Note_on_c, 6, 48, 0
14, 439440, Note_on_c, 6, 48, 84
14, 439559, Note_on_c, 6, 48, 0
14, 439560, Note_on_c, 6, 48, 84
14, 439679, Note_on_c, 6, 48, 0
14, 439680, Note_on_c, 6, 48, 84
14, 439799, Note_on_c, 6, 48, 0
14, 439920, Note_on_c, 6, 48, 84
14, 440039, Note_on_c, 6, 48, 0
14, 440040, Note_on_c, 6, 48, 84
14, 440159, Note_on_c, 6, 48, 0
14, 440160, Note_on_c, 6, 48, 84
14, 440279, Note_on_c, 6, 48, 0
14, 440400, Note_on_c, 6, 48, 84
14, 440519, Note_on_c, 6, 48, 0
14, 440520, Note_on_c, 6, 48, 84
14, 440639, Note_on_c, 6, 48, 0
14, 440640, Note_on_c, 6, 48, 84
14, 440759, Note_on_c, 6, 48, 0
14, 440880, Note_on_c, 6, 48, 84
14, 440999, Note_on_c, 6, 48, 0
14, 441000, Note_on_c, 6, 48, 84
14, 441119, Note_on_c, 6, 48, 0
14, 441120, Note_on_c, 6, 48, 84
14, 441179, Note_on_c, 6, 48, 0
14, 441180, Note_on_c, 6, 48, 84
14, 441239, Note_on_c, 6, 48, 0
14, 441240, Note_on_c, 6, 48, 84
14, 441299, Note_on_c, 6, 48, 0
14, 441300, Note_on_c, 6, 48, 84
14, 441359, Note_on_c, 6, 48, 0
14, 441360, Note_on_c, 6, 48, 84
14, 441419, Note_on_c, 6, 48, 0
14, 441420, Note_on_c, 6, 48, 84
14, 441479, Note_on_c, 6, 48, 0
14, 441480, Note_on_c, 6, 48, 84
14, 441539, Note_on_c, 6, 48, 0
14, 441540, Note_on_c, 6, 48, 84
14, 441599, Note_on_c, 6, 48, 0
14, 441600, Note_on_c, 6, 48, 84
14, 441659, Note_on_c, 6, 48, 0
14, 441660, Note_on_c, 6, 48, 84
14, 441719, Note_on_c, 6, 48, 0
14, 441720, Note_on_c, 6, 48, 84
14, 441779, Note_on_c, 6, 48, 0
14, 441780, Note_on_c, 6, 48, 84
14, 441839, Note_on_c, 6, 48, 0
14, 441840, Note_on_c, 6, 48, 84
14, 441899, Note_on_c, 6, 48, 0
14, 441900, Note_on_c, 6, 48, 84
14, 441959, Note_on_c, 6, 48, 0
14, 441960, Note_on_c, 6, 48, 84
14, 442019, Note_on_c, 6, 48, 0
14, 442020, Note_on_c, 6, 48, 84
14, 442079, Note_on_c, 6, 48, 0
14, 442080, Note_on_c, 6, 48, 84
14, 442139, Note_on_c, 6, 48, 0
14, 442140, Note_on_c, 6, 48, 84
14, 442199, Note_on_c, 6, 48, 0
14, 442200, Note_on_c, 6, 48, 84
14, 442259, Note_on_c, 6, 48, 0
14, 442260, Note_on_c, 6, 48, 84
14, 442319, Note_on_c, 6, 48, 0
14, 442320, Note_on_c, 6, 48, 84
14, 442379, Note_on_c, 6, 48, 0
14, 442380, Note_on_c, 6, 48, 84
14, 442439, Note_on_c, 6, 48, 0
14, 442440, Note_on_c, 6, 48, 84
14, 442499, Note_on_c, 6, 48, 0
14, 442500, Note_on_c, 6, 48, 84
14, 442559, Note_on_c, 6, 48, 0
14, 442560, Note_on_c, 6, 48, 84
14, 442619, Note_on_c, 6, 48, 0
14, 442620, Note_on_c, 6, 48, 84
14, 442679, Note_on_c, 6, 48, 0
14, 442680, Note_on_c, 6, 48, 84
14, 442739, Note_on_c, 6, 48, 0
14, 442740, Note_on_c, 6, 48, 84
14, 442799, Note_on_c, 6, 48, 0
14, 442800, Note_on_c, 6, 48, 84
14, 442859, Note_on_c, 6, 48, 0
14, 442860, Note_on_c, 6, 48, 84
14, 442919, Note_on_c, 6, 48, 0
14, 442920, Note_on_c, 6, 48, 84
14, 442979, Note_on_c, 6, 48, 0
14, 442980, Note_on_c, 6, 48, 84
14, 443039, Note_on_c, 6, 48, 0
14, 443040, Note_on_c, 6, 48, 84
14, 443159, Note_on_c, 6, 48, 0
14, 444000, Note_on_c, 6, 48, 84
14, 444119, Note_on_c, 6, 48, 0
14, 444960, Note_on_c, 6, 48, 84
14, 445079, Note_on_c, 6, 48, 0
14, 445920, Note_on_c, 6, 48, 84
14, 446039, Note_on_c, 6, 48, 0
14, 446400, Note_on_c, 6, 48, 84
14, 446519, Note_on_c, 6, 48, 0
14, 446880, Note_on_c, 6, 48, 84
14, 446999, Note_on_c, 6, 48, 0
14, 447840, Note_on_c, 6, 48, 84
14, 447959, Note_on_c, 6, 48, 0
14, 448800, Note_on_c, 6, 48, 80
14, 448829, Note_on_c, 6, 48, 0
14, 448830, Note_on_c, 6, 48, 84
14, 448859, Note_on_c, 6, 48, 0
14, 448860, Note_on_c, 6, 48, 81
14, 448889, Note_on_c, 6, 48, 0
14, 448890, Note_on_c, 6, 48, 86
14, 448919, Note_on_c, 6, 48, 0
14, 448920, Note_on_c, 6, 48, 84
14, 448949, Note_on_c, 6, 48, 0
14, 448950, Note_on_c, 6, 48, 83
14, 448979, Note_on_c, 6, 48, 0
14, 448980, Note_on_c, 6, 48, 82
14, 449009, Note_on_c, 6, 48, 0
14, 449010, Note_on_c, 6, 48, 87
14, 449039, Note_on_c, 6, 48, 0
14, 449040, Note_on_c, 6, 48, 86
14, 449069, Note_on_c, 6, 48, 0
14, 449070, Note_on_c, 6, 48, 85
14, 449099, Note_on_c, 6, 48, 0
14, 449100, Note_on_c, 6, 48, 81
14, 449129, Note_on_c, 6, 48, 0
14, 449130, Note_on_c, 6, 48, 86
14, 449159, Note_on_c, 6, 48, 0
14, 449160, Note_on_c, 6, 48, 85
14, 449189, Note_on_c, 6, 48, 0
14, 449190, Note_on_c, 6, 48, 84
14, 449219, Note_on_c, 6, 48, 0
14, 449220, Note_on_c, 6, 48, 82
14, 449249, Note_on_c, 6, 48, 0
14, 449250, Note_on_c, 6, 48, 80
14, 449279, Note_on_c, 6, 48, 0
14, 449280, Note_on_c, 6, 48, 80
14, 449309, Note_on_c, 6, 48, 0
14, 449310, Note_on_c, 6, 48, 82
14, 449339, Note_on_c, 6, 48, 0
14, 449340, Note_on_c, 6, 48, 81
14, 449369, Note_on_c, 6, 48, 0
14, 449370, Note_on_c, 6, 48, 81
14, 449399, Note_on_c, 6, 48, 0
14, 449400, Note_on_c, 6, 48, 87
14, 449429, Note_on_c, 6, 48, 0
14, 449430, Note_on_c, 6, 48, 83
14, 449459, Note_on_c, 6, 48, 0
14, 449460, Note_on_c, 6, 48, 80
14, 449489, Note_on_c, 6, 48, 0
14, 449490, Note_on_c, 6, 48, 80
14, 449519, Note_on_c, 6, 48, 0
14, 449520, Note_on_c, 6, 48, 80
14, 449549, Note_on_c, 6, 48, 0
14, 449550, Note_on_c, 6, 48, 83
14, 449579, Note_on_c, 6, 48, 0
14, 449580, Note_on_c, 6, 48, 84
14, 449609, Note_on_c, 6, 48, 0
14, 449610, Note_on_c, 6, 48, 84
14, 449639, Note_on_c, 6, 48, 0
14, 449640, Note_on_c, 6, 48, 84
14, 449669, Note_on_c, 6, 48, 0
14, 449670, Note_on_c, 6, 48, 84
14, 449699, Note_on_c, 6, 48, 0
14, 449700, Note_on_c, 6, 48, 81
14, 449729, Note_on_c, 6, 48, 0
14, 449730, Note_on_c, 6, 48, 85
14, 449759, Note_on_c, 6, 48, 0
14, 449760, Note_on_c, 6, 48, 83
14, 449789, Note_on_c, 6, 48, 0
14, 449790, Note_on_c, 6, 48, 82
14, 449819, Note_on_c, 6, 48, 0
14, 449820, Note_on_c, 6, 48, 80
14, 449849, Note_on_c, 6, 48, 0
14, 449850, Note_on_c, 6, 48, 84
14, 449879, Note_on_c, 6, 48, 0
14, 449880, Note_on_c, 6, 48, 86
14, 449909, Note_on_c, 6, 48, 0
14, 449910, Note_on_c, 6, 48, 86
14, 449939, Note_on_c, 6, 48, 0
14, 449940, Note_on_c, 6, 48, 84
14, 449969, Note_on_c, 6, 48, 0
14, 449970, Note_on_c, 6, 48, 82
14, 449999, Note_on_c, 6, 48, 0
14, 450000, Note_on_c, 6, 48, 87
14, 450029, Note_on_c, 6, 48, 0
14, 450030, Note_on_c, 6, 48, 85
14, 450059, Note_on_c, 6, 48, 0
14, 450060, Note_on_c, 6, 48, 87
14, 450089, Note_on_c, 6, 48, 0
14, 450090, Note_on_c, 6, 48, 87
14, 450119, Note_on_c, 6, 48, 0
14, 450120, Note_on_c, 6, 48, 84
14, 450149, Note_on_c, 6, 48, 0
14, 450150, Note_on_c, 6, 48, 81
14, 450179, Note_on_c, 6, 48, 0
14, 450180, Note_on_c, 6, 48, 83
14, 450209, Note_on_c, 6, 48, 0
14, 450210, Note_on_c, 6, 48, 81
14, 450239, Note_on_c, 6, 48, 0
14, 450240, Note_on_c, 6, 48, 86
14, 450269, Note_on_c, 6, 48, 0
14, 450270, Note_on_c, 6, 48, 81
14, 450299, Note_on_c, 6, 48, 0
14, 450300, Note_on_c, 6, 48, 86
14, 450329, Note_on_c, 6, 48, 0
14, 450330, Note_on_c, 6, 48, 86
14, 450359, Note_on_c, 6, 48, 0
14, 450360, Note_on_c, 6, 48, 87
14, 450389, Note_on_c, 6, 48, 0
14, 450390, Note_on_c, 6, 48, 87
14, 450419, Note_on_c, 6, 48, 0
14, 450420, Note_on_c, 6, 48, 84
14, 450449, Note_on_c, 6, 48, 0
14, 450450, Note_on_c, 6, 48, 83
14, 450479, Note_on_c, 6, 48, 0
14, 450480, Note_on_c, 6, 48, 82
14, 450509, Note_on_c, 6, 48, 0
14, 450510, Note_on_c, 6, 48, 82
14, 450539, Note_on_c, 6, 48, 0
14, 450540, Note_on_c, 6, 48, 86
14, 450569, Note_on_c, 6, 48, 0
14, 450570, Note_on_c, 6, 48, 80
14, 450599, Note_on_c, 6, 48, 0
14, 450600, Note_on_c, 6, 48, 83
14, 450629, Note_on_c, 6, 48, 0
14, 450630, Note_on_c, 6, 48, 80
14, 450659, Note_on_c, 6, 48, 0
14, 450660, Note_on_c, 6, 48, 85
14, 450689, Note_on_c, 6, 48, 0
14, 450690, Note_on_c, 6, 48, 80
14, 450719, Note_on_c, 6, 48, 0
14, 450720, Note_on_c, 6, 48, 80
14, 450749, Note_on_c, 6, 48, 0
14, 450750, Note_on_c, 6, 48, 84
14, 450779, Note_on_c, 6, 48, 0
14, 450780, Note_on_c, 6, 48, 81
14, 450809, Note_on_c, 6, 48, 0
14, 450810, Note_on_c, 6, 48, 86
14, 450839, Note_on_c, 6, 48, 0
14, 450840, Note_on_c, 6, 48, 84
14, 450869, Note_on_c, 6, 48, 0
14, 450870, Note_on_c, 6, 48, 83
14, 450899, Note_on_c, 6, 48, 0
14, 450900, Note_on_c, 6, 48, 82
14, 450929, Note_on_c, 6, 48, 0
14, 450930, Note_on_c, 6, 48, 87
14, 450959, Note_on_c, 6, 48, 0
14, 450960, Note_on_c, 6, 48, 86
14, 450989, Note_on_c, 6, 48, 0
14, 450990, Note_on_c, 6, 48, 85
14, 451019, Note_on_c, 6, 48, 0
14, 451020, Note_on_c, 6, 48, 81
14, 451049, Note_on_c, 6, 48, 0
14, 451050, Note_on_c, 6, 48, 86
14, 451079, Note_on_c, 6, 48, 0
14, 451080, Note_on_c, 6, 48, 85
14, 451109, Note_on_c, 6, 48, 0
14, 451110, Note_on_c, 6, 48, 84
14, 451139, Note_on_c, 6, 48, 0
14, 451140, Note_on_c, 6, 48, 82
14, 451169, Note_on_c, 6, 48, 0
14, 451170, Note_on_c, 6, 48, 80
14, 451199, Note_on_c, 6, 48, 0
14, 451199, End_track
15, 0, Start_track
15, 0, Title_t, "Alto Trombone"
15, 0, MIDI_port, 0
15, 0, Program_c, 8, 57
15, 0, Control_c, 8, 7, 96
15, 0, Control_c, 8, 10, 80
15, 0, Control_c, 8, 11, 127
15, 0, Note_on_c, 8, 72, 84
15, 464, Note_on_c, 8, 72, 0
15, 480, Note_on_c, 8, 64, 84
15, 944, Note_on_c, 8, 64, 0
15, 960, Note_on_c, 8, 67, 84
15, 1664, Note_on_c, 8, 67, 0
15, 1680, Note_on_c, 8, 65, 84
15, 1799, Note_on_c, 8, 65, 0
15, 1920, Note_on_c, 8, 64, 84
15, 2039, Note_on_c, 8, 64, 0
15, 2160, Note_on_c, 8, 62, 84
15, 2279, Note_on_c, 8, 62, 0
15, 2400, Note_on_c, 8, 60, 84
15, 2519, Note_on_c, 8, 60, 0
15, 2640, Note_on_c, 8, 62, 84
15, 2759, Note_on_c, 8, 62, 0
15, 2880, Note_on_c, 8, 60, 84
15, 3599, Note_on_c, 8, 60, 0
15, 3840, Note_on_c, 8, 62, 84
15, 4559, Note_on_c, 8, 62, 0
15, 4800, Note_on_c, 8, 64, 84
15, 5519, Note_on_c, 8, 64, 0
15, 5760, Note_on_c, 8, 65, 84
15, 6119, Note_on_c, 8, 65, 0
15, 6240, Note_on_c, 8, 69, 84
15, 6599, Note_on_c, 8, 69, 0
15, 6720, Note_on_c, 8, 67, 84
15, 7319, Note_on_c, 8, 67, 0
15, 7680, Note_on_c, 8, 65, 84
15, 8144, Note_on_c, 8, 65, 0
15, 8160, Note_on_c, 8, 69, 84
15, 8624, Note_on_c, 8, 69, 0
15, 8640, Note_on_c, 8, 67, 84
15, 9239, Note_on_c, 8, 67, 0
15, 9600, Note_on_c, 8, 65, 84
15, 9959, Note_on_c, 8, 65, 0
15, 10080, Note_on_c, 8, 69, 84
15, 10439, Note_on_c, 8, 69, 0
15, 10560, Note_on_c, 8, 67, 84
15, 11264, Note_on_c, 8, 67, 0
15, 11280, Note_on_c, 8, 64, 84
15, 11504, Note_on_c, 8, 64, 0
15, 11520, Note_on_c, 8, 65, 84
15, 11759, Note_on_c, 8, 65, 0
15, 12000, Note_on_c, 8, 64, 84
15, 12239, Note_on_c, 8, 64, 0
15, 12480, Note_on_c, 8, 62, 84
15, 12704, Note_on_c, 8, 62, 0
15, 12720, Note_on_c, 8, 62, 84
15, 12959, Note_on_c, 8, 62, 0
15, 13200, Note_on_c, 8, 64, 84
15, 13424, Note_on_c, 8, 64, 0
15, 13440, Note_on_c, 8, 65, 84
15, 13679, Note_on_c, 8, 65, 0
15, 13920, Note_on_c, 8, 64, 84
15, 14159, Note_on_c, 8, 64, 0
15, 14400, Note_on_c, 8, 62, 84
15, 14624, Note_on_c, 8, 62, 0
15, 14640, Note_on_c, 8, 62, 84
15, 14879, Note_on_c, 8, 62, 0
15, 15120, Note_on_c, 8, 72, 84
15, 15344, Note_on_c, 8, 72, 0
15, 15360, Note_on_c, 8, 74, 84
15, 15584, Note_on_c, 8, 74, 0
15, 15600, Note_on_c, 8, 74, 84
15, 15824, Note_on_c, 8, 74, 0
15, 15840, Note_on_c, 8, 72, 84
15, 16064, Note_on_c, 8, 72, 0
15, 16080, Note_on_c, 8, 72, 84
15, 16304, Note_on_c, 8, 72, 0
15, 16320, Note_on_c, 8, 71, 84
15, 16559, Note_on_c, 8, 71, 0
15, 17280, Note_on_c, 8, 71, 84
15, 17519, Note_on_c, 8, 71, 0
15, 18240, Note_on_c, 8, 71, 84
15, 18479, Note_on_c, 8, 71, 0
15, 18720, Note_on_c, 8, 71, 84
15, 18959, Note_on_c, 8, 71, 0
15, 19200, Note_on_c, 8, 71, 84
15, 19439, Note_on_c, 8, 71, 0
15, 19680, Note_on_c, 8, 71, 84
15, 19919, Note_on_c, 8, 71, 0
15, 20160, Note_on_c, 8, 71, 84
15, 20399, Note_on_c, 8, 71, 0
15, 25920, Note_on_c, 8, 59, 84
15, 26159, Note_on_c, 8, 59, 0
15, 26400, Note_on_c, 8, 59, 84
15, 26639, Note_on_c, 8, 59, 0
15, 26880, Note_on_c, 8, 59, 84
15, 27119, Note_on_c, 8, 59, 0
15, 27360, Note_on_c, 8, 59, 84
15, 27599, Note_on_c, 8, 59, 0
15, 27840, Note_on_c, 8, 62, 84
15, 28079, Note_on_c, 8, 62, 0
15, 29760, Note_on_c, 8, 64, 84
15, 29999, Note_on_c, 8, 64, 0
15, 30240, Note_on_c, 8, 64, 84
15, 30479, Note_on_c, 8, 64, 0
15, 30720, Note_on_c, 8, 64, 84
15, 30959, Note_on_c, 8, 64, 0
15, 31200, Note_on_c, 8, 64, 84
15, 31439, Note_on_c, 8, 64, 0
15, 31680, Note_on_c, 8, 64, 84
15, 31919, Note_on_c, 8, 64, 0
15, 32640, Note_on_c, 8, 64, 84
15, 32879, Note_on_c, 8, 64, 0
15, 33600, Note_on_c, 8, 66, 84
15, 33839, Note_on_c, 8, 66, 0
15, 34560, Note_on_c, 8, 66, 84
15, 34799, Note_on_c, 8, 66, 0
15, 35520, Note_on_c, 8, 67, 84
15, 35759, Note_on_c, 8, 67, 0
15, 36480, Note_on_c, 8, 66, 84
15, 36719, Note_on_c, 8, 66, 0
15, 36960, Note_on_c, 8, 66, 84
15, 37199, Note_on_c, 8, 66, 0
15, 37440, Note_on_c, 8, 67, 84
15, 37679, Note_on_c, 8, 67, 0
15, 37920, Note_on_c, 8, 67, 84
15, 38159, Note_on_c, 8, 67, 0
15, 38400, Note_on_c, 8, 74, 84
15, 39959, Note_on_c, 8, 74, 0
15, 46080, Note_on_c, 8, 71, 76
15, 46319, Note_on_c, 8, 71, 0
15, 46560, Note_on_c, 8, 72, 76
15, 46799, Note_on_c, 8, 72, 0
15, 47040, Note_on_c, 8, 71, 76
15, 47759, Note_on_c, 8, 71, 0
15, 54720, Note_on_c, 8, 72, 76
15, 56879, Note_on_c, 8, 72, 0
15, 58560, Note_on_c, 8, 72, 76
15, 58739, Note_on_c, 8, 72, 0
15, 59520, Note_on_c, 8, 69, 76
15, 59699, Note_on_c, 8, 69, 0
15, 65520, Note_on_c, 8, 65, 52
15, 65744, Note_on_c, 8, 65, 0
15, 65760, Note_on_c, 8, 65, 52
15, 65984, Note_on_c, 8, 65, 0
15, 66000, Note_on_c, 8, 65, 52
15, 66224, Note_on_c, 8, 65, 0
15, 66240, Note_on_c, 8, 64, 52
15, 66479, Note_on_c, 8, 64, 0
15, 66720, Note_on_c, 8, 69, 52
15, 66959, Note_on_c, 8, 69, 0
15, 67200, Note_on_c, 8, 67, 52
15, 67439, Note_on_c, 8, 67, 0
15, 67680, Note_on_c, 8, 66, 52
15, 67919, Note_on_c, 8, 66, 0
15, 68160, Note_on_c, 8, 67, 76
15, 68864, Note_on_c, 8, 67, 0
15, 68880, Note_on_c, 8, 66, 76
15, 69104, Note_on_c, 8, 66, 0
15, 69120, Note_on_c, 8, 64, 76
15, 69344, Note_on_c, 8, 64, 0
15, 69360, Note_on_c, 8, 62, 76
15, 69584, Note_on_c, 8, 62, 0
15, 69600, Note_on_c, 8, 62, 76
15, 69824, Note_on_c, 8, 62, 0
15, 69840, Note_on_c, 8, 62, 76
15, 70064, Note_on_c, 8, 62, 0
15, 70080, Note_on_c, 8, 67, 84
15, 70200, Control_c, 8, 11, 112
15, 70784, Note_on_c, 8, 67, 0
15, 70800, Note_on_c, 8, 66, 84
15, 71024, Note_on_c, 8, 66, 0
15, 71040, Note_on_c, 8, 64, 84
15, 71264, Note_on_c, 8, 64, 0
15, 71280, Note_on_c, 8, 62, 84
15, 71504, Note_on_c, 8, 62, 0
15, 71520, Note_on_c, 8, 62, 84
15, 71744, Note_on_c, 8, 62, 0
15, 71760, Note_on_c, 8, 62, 84
15, 71984, Note_on_c, 8, 62, 0
15, 71998, Control_c, 8, 11, 127
15, 72000, Note_on_c, 8, 72, 84
15, 72120, Control_c, 8, 11, 112
15, 72704, Note_on_c, 8, 72, 0
15, 72720, Note_on_c, 8, 71, 84
15, 72944, Note_on_c, 8, 71, 0
15, 72960, Note_on_c, 8, 69, 84
15, 73199, Note_on_c, 8, 69, 0
15, 74880, Control_c, 8, 11, 127
15, 75840, Note_on_c, 8, 77, 84
15, 77744, Note_on_c, 8, 77, 0
15, 77760, Note_on_c, 8, 71, 84
15, 77999, Note_on_c, 8, 71, 0
15, 78720, Note_on_c, 8, 71, 84
15, 78959, Note_on_c, 8, 71, 0
15, 79680, Note_on_c, 8, 71, 84
15, 79919, Note_on_c, 8, 71, 0
15, 80160, Note_on_c, 8, 71, 84
15, 80399, Note_on_c, 8, 71, 0
15, 80640, Note_on_c, 8, 71, 84
15, 80879, Note_on_c, 8, 71, 0
15, 81120, Note_on_c, 8, 71, 84
15, 81359, Note_on_c, 8, 71, 0
15, 81600, Note_on_c, 8, 72, 84
15, 82064, Note_on_c, 8, 72, 0
15, 82080, Note_on_c, 8, 64, 84
15, 82544, Note_on_c, 8, 64, 0
15, 82560, Note_on_c, 8, 67, 84
15, 83264, Note_on_c, 8, 67, 0
15, 83280, Note_on_c, 8, 65, 84
15, 83399, Note_on_c, 8, 65, 0
15, 83520, Note_on_c, 8, 64, 84
15, 83639, Note_on_c, 8, 64, 0
15, 83760, Note_on_c, 8, 62, 84
15, 83879, Note_on_c, 8, 62, 0
15, 84000, Note_on_c, 8, 60, 84
15, 84119, Note_on_c, 8, 60, 0
15, 84240, Note_on_c, 8, 62, 84
15, 84359, Note_on_c, 8, 62, 0
15, 84480, Note_on_c, 8, 60, 84
15, 85199, Note_on_c, 8, 60, 0
15, 85440, Note_on_c, 8, 62, 84
15, 86159, Note_on_c, 8, 62, 0
15, 86400, Note_on_c, 8, 64, 84
15, 87119, Note_on_c, 8, 64, 0
15, 87360, Note_on_c, 8, 65, 84
15, 87719, Note_on_c, 8, 65, 0
15, 87840, Note_on_c, 8, 69, 84
15, 88199, Note_on_c, 8, 69, 0
15, 88320, Note_on_c, 8, 67, 84
15, 88919, Note_on_c, 8, 67, 0
15, 89280, Note_on_c, 8, 65, 84
15, 89744, Note_on_c, 8, 65, 0
15, 89760, Note_on_c, 8, 69, 84
15, 90224, Note_on_c, 8, 69, 0
15, 90240, Note_on_c, 8, 67, 84
15, 90839, Note_on_c, 8, 67, 0
15, 91200, Note_on_c, 8, 65, 84
15, 91559, Note_on_c, 8, 65, 0
15, 91680, Note_on_c, 8, 69, 84
15, 92039, Note_on_c, 8, 69, 0
15, 92160, Note_on_c, 8, 67, 84
15, 92864, Note_on_c, 8, 67, 0
15, 92880, Note_on_c, 8, 64, 84
15, 93104, Note_on_c, 8, 64, 0
15, 93120, Note_on_c, 8, 65, 84
15, 93359, Note_on_c, 8, 65, 0
15, 93600, Note_on_c, 8, 64, 84
15, 93839, Note_on_c, 8, 64, 0
15, 94080, Note_on_c, 8, 62, 84
15, 94304, Note_on_c, 8, 62, 0
15, 94320, Note_on_c, 8, 62, 84
15, 94559, Note_on_c, 8, 62, 0
15, 94800, Note_on_c, 8, 64, 84
15, 95024, Note_on_c, 8, 64, 0
15, 95040, Note_on_c, 8, 65, 84
15, 95279, Note_on_c, 8, 65, 0
15, 95520, Note_on_c, 8, 64, 84
15, 95759, Note_on_c, 8, 64, 0
15, 96000, Note_on_c, 8, 62, 84
15, 96224, Note_on_c, 8, 62, 0
15, 96240, Note_on_c, 8, 62, 84
15, 96479, Note_on_c, 8, 62, 0
15, 96720, Note_on_c, 8, 72, 84
15, 96944, Note_on_c, 8, 72, 0
15, 96960, Note_on_c, 8, 74, 84
15, 97184, Note_on_c, 8, 74, 0
15, 97200, Note_on_c, 8, 74, 84
15, 97424, Note_on_c, 8, 74, 0
15, 97440, Note_on_c, 8, 72, 84
15, 97664, Note_on_c, 8, 72, 0
15, 97680, Note_on_c, 8, 72, 84
15, 97904, Note_on_c, 8, 72, 0
15, 97920, Note_on_c, 8, 71, 84
15, 98159, Note_on_c, 8, 71, 0
15, 98880, Note_on_c, 8, 71, 84
15, 99119, Note_on_c, 8, 71, 0
15, 99840, Note_on_c, 8, 71, 84
15, 100079, Note_on_c, 8, 71, 0
15, 100320, Note_on_c, 8, 71, 84
15, 100559, Note_on_c, 8, 71, 0
15, 100800, Note_on_c, 8, 71, 84
15, 101039, Note_on_c, 8, 71, 0
15, 101280, Note_on_c, 8, 71, 84
15, 101519, Note_on_c, 8, 71, 0
15, 101760, Note_on_c, 8, 71, 84
15, 101999, Note_on_c, 8, 71, 0
15, 107520, Note_on_c, 8, 59, 84
15, 107759, Note_on_c, 8, 59, 0
15, 108000, Note_on_c, 8, 59, 84
15, 108239, Note_on_c, 8, 59, 0
15, 108480, Note_on_c, 8, 59, 84
15, 108719, Note_on_c, 8, 59, 0
15, 108960, Note_on_c, 8, 59, 84
15, 109199, Note_on_c, 8, 59, 0
15, 109440, Note_on_c, 8, 62, 84
15, 109679, Note_on_c, 8, 62, 0
15, 111360, Note_on_c, 8, 64, 84
15, 111599, Note_on_c, 8, 64, 0
15, 111840, Note_on_c, 8, 64, 84
15, 112079, Note_on_c, 8, 64, 0
15, 112320, Note_on_c, 8, 64, 84
15, 112559, Note_on_c, 8, 64, 0
15, 112800, Note_on_c, 8, 64, 84
15, 113039, Note_on_c, 8, 64, 0
15, 113280, Note_on_c, 8, 64, 84
15, 113519, Note_on_c, 8, 64, 0
15, 114240, Note_on_c, 8, 64, 84
15, 114479, Note_on_c, 8, 64, 0
15, 115200, Note_on_c, 8, 66, 84
15, 115439, Note_on_c, 8, 66, 0
15, 116160, Note_on_c, 8, 66, 84
15, 116399, Note_on_c, 8, 66, 0
15, 117120, Note_on_c, 8, 67, 84
15, 117359, Note_on_c, 8, 67, 0
15, 118080, Note_on_c, 8, 66, 84
15, 118319, Note_on_c, 8, 66, 0
15, 118560, Note_on_c, 8, 66, 84
15, 118799, Note_on_c, 8, 66, 0
15, 119040, Note_on_c, 8, 67, 84
15, 119279, Note_on_c, 8, 67, 0
15, 119520, Note_on_c, 8, 67, 84
15, 119759, Note_on_c, 8, 67, 0
15, 120000, Note_on_c, 8, 74, 84
15, 121559, Note_on_c, 8, 74, 0
15, 127680, Note_on_c, 8, 71, 76
15, 127919, Note_on_c, 8, 71, 0
15, 128160, Note_on_c, 8, 72, 76
15, 128399, Note_on_c, 8, 72, 0
15, 128640, Note_on_c, 8, 71, 76
15, 129359, Note_on_c, 8, 71, 0
15, 136320, Note_on_c, 8, 72, 76
15, 138479, Note_on_c, 8, 72, 0
15, 140160, Note_on_c, 8, 72, 76
15, 140339, Note_on_c, 8, 72, 0
15, 141120, Note_on_c, 8, 69, 76
15, 141299, Note_on_c, 8, 69, 0
15, 147120, Note_on_c, 8, 65, 52
15, 147344, Note_on_c, 8, 65, 0
15, 147360, Note_on_c, 8, 65, 52
15, 147584, Note_on_c, 8, 65, 0
15, 147600, Note_on_c, 8, 65, 52
15, 147824, Note_on_c, 8, 65, 0
15, 147840, Note_on_c, 8, 64, 52
15, 148079, Note_on_c, 8, 64, 0
15, 148320, Note_on_c, 8, 69, 52
15, 148559, Note_on_c, 8, 69, 0
15, 148800, Note_on_c, 8, 67, 52
15, 149039, Note_on_c, 8, 67, 0
15, 149280, Note_on_c, 8, 66, 52
15, 149519, Note_on_c, 8, 66, 0
15, 149760, Note_on_c, 8, 67, 76
15, 150464, Note_on_c, 8, 67, 0
15, 150480, Note_on_c, 8, 66, 76
15, 150704, Note_on_c, 8, 66, 0
15, 150720, Note_on_c, 8, 64, 76
15, 150944, Note_on_c, 8, 64, 0
15, 150960, Note_on_c, 8, 62, 76
15, 151184, Note_on_c, 8, 62, 0
15, 151200, Note_on_c, 8, 62, 76
15, 151424, Note_on_c, 8, 62, 0
15, 151440, Note_on_c, 8, 62, 76
15, 151664, Note_on_c, 8, 62, 0
15, 151680, Note_on_c, 8, 67, 84
15, 151800, Control_c, 8, 11, 112
15, 152384, Note_on_c, 8, 67, 0
15, 152400, Note_on_c, 8, 66, 84
15, 152624, Note_on_c, 8, 66, 0
15, 152640, Note_on_c, 8, 64, 84
15, 152864, Note_on_c, 8, 64, 0
15, 152880, Note_on_c, 8, 62, 84
15, 153104, Note_on_c, 8, 62, 0
15, 153120, Note_on_c, 8, 62, 84
15, 153344, Note_on_c, 8, 62, 0
15, 153360, Note_on_c, 8, 62, 84
15, 153584, Note_on_c, 8, 62, 0
15, 153598, Control_c, 8, 11, 127
15, 153600, Note_on_c, 8, 72, 84
15, 153720, Control_c, 8, 11, 112
15, 154304, Note_on_c, 8, 72, 0
15, 154320, Note_on_c, 8, 71, 84
15, 154544, Note_on_c, 8, 71, 0
15, 154560, Note_on_c, 8, 69, 84
15, 154799, Note_on_c, 8, 69, 0
15, 156480, Control_c, 8, 11, 127
15, 157440, Note_on_c, 8, 77, 84
15, 159344, Note_on_c, 8, 77, 0
15, 159360, Note_on_c, 8, 71, 84
15, 159599, Note_on_c, 8, 71, 0
15, 160320, Note_on_c, 8, 71, 84
15, 160559, Note_on_c, 8, 71, 0
15, 161280, Note_on_c, 8, 71, 84
15, 161519, Note_on_c, 8, 71, 0
15, 161760, Note_on_c, 8, 71, 84
15, 161999, Note_on_c, 8, 71, 0
15, 162240, Note_on_c, 8, 71, 84
15, 162464, Note_on_c, 8, 71, 0
15, 162480, Note_on_c, 8, 71, 84
15, 163184, Note_on_c, 8, 71, 0
15, 163200, Note_on_c, 8, 71, 84
15, 167024, Note_on_c, 8, 71, 0
15, 167040, Note_on_c, 8, 69, 84
15, 167279, Note_on_c, 8, 69, 0
15, 188880, Note_on_c, 8, 61, 76
15, 189104, Note_on_c, 8, 61, 0
15, 189120, Note_on_c, 8, 60, 76
15, 189584, Note_on_c, 8, 60, 0
15, 189600, Note_on_c, 8, 61, 76
15, 190064, Note_on_c, 8, 61, 0
15, 190080, Note_on_c, 8, 63, 76
15, 191744, Note_on_c, 8, 63, 0
15, 191760, Note_on_c, 8, 63, 76
15, 191984, Note_on_c, 8, 63, 0
15, 192000, Note_on_c, 8, 62, 76
15, 192464, Note_on_c, 8, 62, 0
15, 192480, Note_on_c, 8, 63, 76
15, 192944, Note_on_c, 8, 63, 0
15, 192960, Note_on_c, 8, 65, 76
15, 194639, Note_on_c, 8, 65, 0
15, 195840, Note_on_c, 8, 64, 76
15, 197999, Note_on_c, 8, 64, 0
15, 198720, Note_on_c, 8, 56, 80
15, 198959, Note_on_c, 8, 56, 0
15, 199680, Note_on_c, 8, 58, 80
15, 199919, Note_on_c, 8, 58, 0
15, 200640, Note_on_c, 8, 60, 80
15, 200879, Note_on_c, 8, 60, 0
15, 201600, Note_on_c, 8, 62, 80
15, 201839, Note_on_c, 8, 62, 0
15, 202560, Note_on_c, 8, 63, 80
15, 202799, Note_on_c, 8, 63, 0
15, 203520, Note_on_c, 8, 65, 80
15, 203759, Note_on_c, 8, 65, 0
15, 204480, Note_on_c, 8, 67, 80
15, 204719, Note_on_c, 8, 67, 0
15, 205440, Note_on_c, 8, 74, 80
15, 207344, Note_on_c, 8, 74, 0
15, 207360, Note_on_c, 8, 67, 84
15, 207599, Note_on_c, 8, 67, 0
15, 209280, Note_on_c, 8, 62, 84
15, 209519, Note_on_c, 8, 62, 0
15, 211200, Note_on_c, 8, 64, 84
15, 211439, Note_on_c, 8, 64, 0
15, 213120, Note_on_c, 8, 65, 84
15, 213359, Note_on_c, 8, 65, 0
15, 215040, Note_on_c, 8, 67, 84
15, 215279, Note_on_c, 8, 67, 0
15, 216960, Note_on_c, 8, 63, 84
15, 218864, Note_on_c, 8, 63, 0
15, 218880, Note_on_c, 8, 62, 84
15, 219479, Note_on_c, 8, 62, 0
15, 219840, Note_on_c, 8, 62, 84
15, 220439, Note_on_c, 8, 62, 0
15, 220800, Note_on_c, 8, 62, 84
15, 221039, Note_on_c, 8, 62, 0
15, 221280, Note_on_c, 8, 62, 84
15, 221519, Note_on_c, 8, 62, 0
15, 221760, Note_on_c, 8, 62, 84
15, 221999, Note_on_c, 8, 62, 0
15, 222240, Note_on_c, 8, 62, 84
15, 222479, Note_on_c, 8, 62, 0
15, 222720, Note_on_c, 8, 62, 84
15, 222959, Note_on_c, 8, 62, 0
15, 223200, Note_on_c, 8, 62, 84
15, 223439, Note_on_c, 8, 62, 0
15, 223680, Note_on_c, 8, 62, 84
15, 223919, Note_on_c, 8, 62, 0
15, 224160, Note_on_c, 8, 62, 84
15, 224399, Note_on_c, 8, 62, 0
15, 224640, Note_on_c, 8, 67, 84
15, 227504, Note_on_c, 8, 67, 0
15, 227520, Note_on_c, 8, 67, 84
15, 227759, Note_on_c, 8, 67, 0
15, 266400, Note_on_c, 8, 72, 84
15, 266864, Note_on_c, 8, 72, 0
15, 266880, Note_on_c, 8, 64, 84
15, 267344, Note_on_c, 8, 64, 0
15, 267360, Note_on_c, 8, 67, 84
15, 268064, Note_on_c, 8, 67, 0
15, 268080, Note_on_c, 8, 65, 84
15, 268199, Note_on_c, 8, 65, 0
15, 268320, Note_on_c, 8, 64, 84
15, 268439, Note_on_c, 8, 64, 0
15, 268560, Note_on_c, 8, 62, 84
15, 268679, Note_on_c, 8, 62, 0
15, 268800, Note_on_c, 8, 60, 84
15, 268919, Note_on_c, 8, 60, 0
15, 269040, Note_on_c, 8, 62, 84
15, 269159, Note_on_c, 8, 62, 0
15, 269280, Note_on_c, 8, 60, 84
15, 269999, Note_on_c, 8, 60, 0
15, 270240, Note_on_c, 8, 62, 84
15, 270959, Note_on_c, 8, 62, 0
15, 271200, Note_on_c, 8, 64, 84
15, 271919, Note_on_c, 8, 64, 0
15, 272160, Note_on_c, 8, 65, 84
15, 272519, Note_on_c, 8, 65, 0
15, 272640, Note_on_c, 8, 69, 84
15, 272999, Note_on_c, 8, 69, 0
15, 273120, Note_on_c, 8, 67, 84
15, 273719, Note_on_c, 8, 67, 0
15, 274080, Note_on_c, 8, 65, 84
15, 274544, Note_on_c, 8, 65, 0
15, 274560, Note_on_c, 8, 69, 84
15, 275024, Note_on_c, 8, 69, 0
15, 275040, Note_on_c, 8, 67, 84
15, 275639, Note_on_c, 8, 67, 0
15, 276000, Note_on_c, 8, 65, 84
15, 276359, Note_on_c, 8, 65, 0
15, 276480, Note_on_c, 8, 69, 84
15, 276839, Note_on_c, 8, 69, 0
15, 276960, Note_on_c, 8, 67, 84
15, 277664, Note_on_c, 8, 67, 0
15, 277680, Note_on_c, 8, 64, 84
15, 277904, Note_on_c, 8, 64, 0
15, 277920, Note_on_c, 8, 65, 84
15, 278159, Note_on_c, 8, 65, 0
15, 278400, Note_on_c, 8, 64, 84
15, 278639, Note_on_c, 8, 64, 0
15, 278880, Note_on_c, 8, 62, 84
15, 279104, Note_on_c, 8, 62, 0
15, 279120, Note_on_c, 8, 62, 84
15, 279359, Note_on_c, 8, 62, 0
15, 279600, Note_on_c, 8, 64, 84
15, 279824, Note_on_c, 8, 64, 0
15, 279840, Note_on_c, 8, 65, 84
15, 280079, Note_on_c, 8, 65, 0
15, 280320, Note_on_c, 8, 64, 84
15, 280559, Note_on_c, 8, 64, 0
15, 280800, Note_on_c, 8, 62, 84
15, 281024, Note_on_c, 8, 62, 0
15, 281040, Note_on_c, 8, 62, 84
15, 281279, Note_on_c, 8, 62, 0
15, 281520, Note_on_c, 8, 72, 84
15, 281744, Note_on_c, 8, 72, 0
15, 281760, Note_on_c, 8, 74, 84
15, 281984, Note_on_c, 8, 74, 0
15, 282000, Note_on_c, 8, 74, 84
15, 282224, Note_on_c, 8, 74, 0
15, 282240, Note_on_c, 8, 72, 84
15, 282464, Note_on_c, 8, 72, 0
15, 282480, Note_on_c, 8, 72, 84
15, 282704, Note_on_c, 8, 72, 0
15, 282720, Note_on_c, 8, 71, 84
15, 282959, Note_on_c, 8, 71, 0
15, 283680, Note_on_c, 8, 71, 84
15, 283919, Note_on_c, 8, 71, 0
15, 284640, Note_on_c, 8, 71, 84
15, 284879, Note_on_c, 8, 71, 0
15, 285120, Note_on_c, 8, 71, 84
15, 285359, Note_on_c, 8, 71, 0
15, 285600, Note_on_c, 8, 71, 84
15, 285839, Note_on_c, 8, 71, 0
15, 286080, Note_on_c, 8, 71, 84
15, 286319, Note_on_c, 8, 71, 0
15, 286560, Note_on_c, 8, 71, 84
15, 286799, Note_on_c, 8, 71, 0
15, 292320, Note_on_c, 8, 59, 84
15, 292559, Note_on_c, 8, 59, 0
15, 292800, Note_on_c, 8, 59, 84
15, 293039, Note_on_c, 8, 59, 0
15, 293280, Note_on_c, 8, 59, 84
15, 293519, Note_on_c, 8, 59, 0
15, 293760, Note_on_c, 8, 59, 84
15, 293999, Note_on_c, 8, 59, 0
15, 294240, Note_on_c, 8, 62, 84
15, 294479, Note_on_c, 8, 62, 0
15, 296160, Note_on_c, 8, 64, 84
15, 296399, Note_on_c, 8, 64, 0
15, 296640, Note_on_c, 8, 64, 84
15, 296879, Note_on_c, 8, 64, 0
15, 297120, Note_on_c, 8, 64, 84
15, 297359, Note_on_c, 8, 64, 0
15, 297600, Note_on_c, 8, 64, 84
15, 297839, Note_on_c, 8, 64, 0
15, 298080, Note_on_c, 8, 64, 84
15, 298319, Note_on_c, 8, 64, 0
15, 299040, Note_on_c, 8, 64, 84
15, 299279, Note_on_c, 8, 64, 0
15, 300000, Note_on_c, 8, 65, 84
15, 300239, Note_on_c, 8, 65, 0
15, 300960, Note_on_c, 8, 65, 84
15, 301199, Note_on_c, 8, 65, 0
15, 301920, Note_on_c, 8, 65, 84
15, 302399, Note_on_c, 8, 65, 0
15, 303840, Note_on_c, 8, 64, 84
15, 304319, Note_on_c, 8, 64, 0
15, 305760, Note_on_c, 8, 65, 84
15, 306239, Note_on_c, 8, 65, 0
15, 306720, Note_on_c, 8, 64, 84
15, 307199, Note_on_c, 8, 64, 0
15, 307680, Note_on_c, 8, 62, 84
15, 307919, Note_on_c, 8, 62, 0
15, 309600, Note_on_c, 8, 67, 84
15, 309839, Note_on_c, 8, 67, 0
15, 315360, Note_on_c, 8, 67, 76
15, 315599, Note_on_c, 8, 67, 0
15, 315840, Note_on_c, 8, 69, 76
15, 316079, Note_on_c, 8, 69, 0
15, 316320, Note_on_c, 8, 67, 76
15, 317039, Note_on_c, 8, 67, 0
15, 324000, Note_on_c, 8, 69, 84
15, 325904, Note_on_c, 8, 69, 0
15, 325920, Note_on_c, 8, 69, 84
15, 326159, Note_on_c, 8, 69, 0
15, 337440, Note_on_c, 8, 72, 76
15, 338144, Note_on_c, 8, 72, 0
15, 338160, Note_on_c, 8, 71, 76
15, 338384, Note_on_c, 8, 71, 0
15, 338400, Note_on_c, 8, 69, 76
15, 338624, Note_on_c, 8, 69, 0
15, 338640, Note_on_c, 8, 67, 76
15, 338864, Note_on_c, 8, 67, 0
15, 338880, Note_on_c, 8, 67, 76
15, 339104, Note_on_c, 8, 67, 0
15, 339120, Note_on_c, 8, 67, 76
15, 339344, Note_on_c, 8, 67, 0
15, 339360, Note_on_c, 8, 72, 84
15, 339480, Control_c, 8, 11, 112
15, 340064, Note_on_c, 8, 72, 0
15, 340080, Note_on_c, 8, 71, 84
15, 340304, Note_on_c, 8, 71, 0
15, 340320, Note_on_c, 8, 69, 84
15, 340544, Note_on_c, 8, 69, 0
15, 340560, Note_on_c, 8, 67, 84
15, 340784, Note_on_c, 8, 67, 0
15, 340800, Note_on_c, 8, 67, 84
15, 341024, Note_on_c, 8, 67, 0
15, 341040, Note_on_c, 8, 67, 84
15, 341264, Note_on_c, 8, 67, 0
15, 341278, Control_c, 8, 11, 127
15, 341280, Note_on_c, 8, 65, 84
15, 341400, Control_c, 8, 11, 112
15, 341984, Note_on_c, 8, 65, 0
15, 342000, Note_on_c, 8, 64, 84
15, 342224, Note_on_c, 8, 64, 0
15, 342238, Control_c, 8, 11, 127
15, 342240, Note_on_c, 8, 62, 76
15, 342464, Note_on_c, 8, 62, 0
15, 342480, Note_on_c, 8, 70, 80
15, 342704, Note_on_c, 8, 70, 0
15, 342720, Note_on_c, 8, 70, 80
15, 342944, Note_on_c, 8, 70, 0
15, 342960, Note_on_c, 8, 70, 80
15, 343184, Note_on_c, 8, 70, 0
15, 343200, Note_on_c, 8, 70, 80
15, 343424, Note_on_c, 8, 70, 0
15, 343440, Note_on_c, 8, 70, 80
15, 343664, Note_on_c, 8, 70, 0
15, 343680, Note_on_c, 8, 70, 80
15, 343904, Note_on_c, 8, 70, 0
15, 343920, Note_on_c, 8, 70, 80
15, 344144, Note_on_c, 8, 70, 0
15, 344160, Note_on_c, 8, 70, 80
15, 344384, Note_on_c, 8, 70, 0
15, 344400, Note_on_c, 8, 70, 80
15, 344624, Note_on_c, 8, 70, 0
15, 344640, Note_on_c, 8, 70, 80
15, 344864, Note_on_c, 8, 70, 0
15, 344880, Note_on_c, 8, 70, 80
15, 345104, Note_on_c, 8, 70, 0
15, 345120, Note_on_c, 8, 70, 84
15, 346064, Note_on_c, 8, 70, 0
15, 346080, Note_on_c, 8, 70, 84
15, 347024, Note_on_c, 8, 70, 0
15, 347040, Note_on_c, 8, 71, 84
15, 347984, Note_on_c, 8, 71, 0
15, 348000, Note_on_c, 8, 72, 84
15, 348944, Note_on_c, 8, 72, 0
15, 348960, Note_on_c, 8, 69, 84
15, 349904, Note_on_c, 8, 69, 0
15, 349920, Note_on_c, 8, 67, 92
15, 350040, Control_c, 8, 11, 112
15, 350624, Note_on_c, 8, 67, 0
15, 354720, Control_c, 8, 11, 127
15, 355680, Note_on_c, 8, 67, 76
15, 355919, Note_on_c, 8, 67, 0
15, 357600, Note_on_c, 8, 67, 76
15, 357839, Note_on_c, 8, 67, 0
15, 358320, Note_on_c, 8, 64, 80
15, 358544, Note_on_c, 8, 64, 0
15, 358560, Note_on_c, 8, 62, 80
15, 359024, Note_on_c, 8, 62, 0
15, 359040, Note_on_c, 8, 64, 80
15, 359504, Note_on_c, 8, 64, 0
15, 359520, Note_on_c, 8, 65, 80
15, 360224, Note_on_c, 8, 65, 0
15, 360240, Note_on_c, 8, 65, 80
15, 360464, Note_on_c, 8, 65, 0
15, 360480, Note_on_c, 8, 64, 80
15, 360944, Note_on_c, 8, 64, 0
15, 360960, Note_on_c, 8, 65, 80
15, 361424, Note_on_c, 8, 65, 0
15, 361440, Note_on_c, 8, 67, 84
15, 363344, Note_on_c, 8, 67, 0
15, 363360, Note_on_c, 8, 69, 84
15, 364304, Note_on_c, 8, 69, 0
15, 364320, Note_on_c, 8, 69, 84
15, 365264, Note_on_c, 8, 69, 0
15, 365280, Note_on_c, 8, 69, 84
15, 365744, Note_on_c, 8, 69, 0
15, 365760, Note_on_c, 8, 69, 84
15, 366224, Note_on_c, 8, 69, 0
15, 366240, Note_on_c, 8, 69, 84
15, 366704, Note_on_c, 8, 69, 0
15, 366720, Note_on_c, 8, 69, 84
15, 367184, Note_on_c, 8, 69, 0
15, 367200, Note_on_c, 8, 67, 84
15, 367379, Note_on_c, 8, 67, 0
15, 368160, Note_on_c, 8, 67, 84
15, 368339, Note_on_c, 8, 67, 0
15, 369120, Note_on_c, 8, 64, 84
15, 369299, Note_on_c, 8, 64, 0
15, 370080, Note_on_c, 8, 67, 84
15, 370259, Note_on_c, 8, 67, 0
15, 371040, Note_on_c, 8, 64, 84
15, 371219, Note_on_c, 8, 64, 0
15, 372000, Note_on_c, 8, 67, 84
15, 372179, Note_on_c, 8, 67, 0
15, 383520, Note_on_c, 8, 62, 76
15, 383759, Note_on_c, 8, 62, 0
15, 384480, Note_on_c, 8, 65, 76
15, 384719, Note_on_c, 8, 65, 0
15, 385440, Note_on_c, 8, 62, 76
15, 385679, Note_on_c, 8, 62, 0
15, 386400, Note_on_c, 8, 65, 76
15, 386639, Note_on_c, 8, 65, 0
15, 387120, Note_on_c, 8, 66, 76
15, 387299, Note_on_c, 8, 66, 0
15, 387360, Note_on_c, 8, 67, 76
15, 387599, Note_on_c, 8, 67, 0
15, 399840, Note_on_c, 8, 62, 76
15, 400079, Note_on_c, 8, 62, 0
15, 400800, Note_on_c, 8, 65, 76
15, 401039, Note_on_c, 8, 65, 0
15, 401760, Note_on_c, 8, 62, 76
15, 401999, Note_on_c, 8, 62, 0
15, 402720, Note_on_c, 8, 65, 76
15, 402959, Note_on_c, 8, 65, 0
15, 421440, Note_on_c, 8, 72, 76
15, 421899, Note_on_c, 8, 72, 0
15, 421920, Note_on_c, 8, 71, 76
15, 422139, Note_on_c, 8, 71, 0
15, 422160, Note_on_c, 8, 72, 76
15, 422379, Note_on_c, 8, 72, 0
15, 422400, Note_on_c, 8, 72, 76
15, 422619, Note_on_c, 8, 72, 0
15, 422640, Note_on_c, 8, 71, 76
15, 422859, Note_on_c, 8, 71, 0
15, 422880, Note_on_c, 8, 72, 84
15, 422999, Note_on_c, 8, 72, 0
15, 432960, Note_on_c, 8, 71, 84
15, 433079, Note_on_c, 8, 71, 0
15, 433440, Note_on_c, 8, 72, 84
15, 433559, Note_on_c, 8, 72, 0
15, 433920, Note_on_c, 8, 71, 84
15, 434039, Note_on_c, 8, 71, 0
15, 434400, Note_on_c, 8, 72, 84
15, 434519, Note_on_c, 8, 72, 0
15, 434880, Note_on_c, 8, 71, 84
15, 434999, Note_on_c, 8, 71, 0
15, 435360, Note_on_c, 8, 72, 84
15, 436299, Note_on_c, 8, 72, 0
15, 436320, Note_on_c, 8, 72, 84
15, 437259, Note_on_c, 8, 72, 0
15, 437280, Note_on_c, 8, 72, 84
15, 437399, Note_on_c, 8, 72, 0
15, 438240, Note_on_c, 8, 60, 84
15, 438359, Note_on_c, 8, 60, 0
15, 439200, Note_on_c, 8, 64, 84
15, 439319, Note_on_c, 8, 64, 0
15, 439680, Note_on_c, 8, 60, 84
15, 439799, Note_on_c, 8, 60, 0
15, 440160, Note_on_c, 8, 64, 84
15, 440279, Note_on_c, 8, 64, 0
15, 440640, Note_on_c, 8, 67, 84
15, 440759, Note_on_c, 8, 67, 0
15, 441120, Note_on_c, 8, 72, 84
15, 442059, Note_on_c, 8, 72, 0
15, 442080, Note_on_c, 8, 76, 84
15, 443019, Note_on_c, 8, 76, 0
15, 443040, Note_on_c, 8, 76, 84
15, 443159, Note_on_c, 8, 76, 0
15, 444000, Note_on_c, 8, 72, 84
15, 444119, Note_on_c, 8, 72, 0
15, 444960, Note_on_c, 8, 64, 84
15, 445079, Note_on_c, 8, 64, 0
15, 445920, Note_on_c, 8, 72, 84
15, 446039, Note_on_c, 8, 72, 0
15, 446400, Note_on_c, 8, 72, 84
15, 446519, Note_on_c, 8, 72, 0
15, 446880, Note_on_c, 8, 72, 84
15, 446999, Note_on_c, 8, 72, 0
15, 447840, Note_on_c, 8, 72, 84
15, 447959, Note_on_c, 8, 72, 0
15, 448800, Note_on_c, 8, 60, 84
15, 448919, Note_on_c, 8, 60, 0
15, 448919, End_track
16, 0, Start_track
16, 0, Title_t, "Tenor Trombone"
16, 0, MIDI_port, 0
16, 0, Program_c, 8, 57
16, 0, Control_c, 8, 7, 96
16, 0, Control_c, 8, 10, 80
16, 0, Control_c, 8, 11, 127
16, 0, Note_on_c, 8, 64, 84
16, 464, Note_on_c, 8, 64, 0
16, 480, Note_on_c, 8, 60, 84
16, 944, Note_on_c, 8, 60, 0
16, 960, Note_on_c, 8, 64, 84
16, 1664, Note_on_c, 8, 64, 0
16, 1680, Note_on_c, 8, 62, 84
16, 1799, Note_on_c, 8, 62, 0
16, 1920, Note_on_c, 8, 60, 84
16, 2039, Note_on_c, 8, 60, 0
16, 2160, Note_on_c, 8, 53, 84
16, 2279, Note_on_c, 8, 53, 0
16, 2400, Note_on_c, 8, 52, 84
16, 2519, Note_on_c, 8, 52, 0
16, 2640, Note_on_c, 8, 53, 84
16, 2759, Note_on_c, 8, 53, 0
16, 2880, Note_on_c, 8, 52, 84
16, 3599, Note_on_c, 8, 52, 0
16, 3840, Note_on_c, 8, 59, 84
16, 4559, Note_on_c, 8, 59, 0
16, 4800, Note_on_c, 8, 60, 84
16, 5519, Note_on_c, 8, 60, 0
16, 5760, Note_on_c, 8, 60, 84
16, 6119, Note_on_c, 8, 60, 0
16, 6240, Note_on_c, 8, 60, 84
16, 6599, Note_on_c, 8, 60, 0
16, 6720, Note_on_c, 8, 60, 84
16, 7319, Note_on_c, 8, 60, 0
16, 7680, Note_on_c, 8, 60, 84
16, 8144, Note_on_c, 8, 60, 0
16, 8160, Note_on_c, 8, 60, 84
16, 8624, Note_on_c, 8, 60, 0
16, 8640, Note_on_c, 8, 60, 84
16, 9239, Note_on_c, 8, 60, 0
16, 9600, Note_on_c, 8, 60, 84
16, 9959, Note_on_c, 8, 60, 0
16, 10080, Note_on_c, 8, 60, 84
16, 10439, Note_on_c, 8, 60, 0
16, 10560, Note_on_c, 8, 60, 84
16, 11264, Note_on_c, 8, 60, 0
16, 11280, Note_on_c, 8, 60, 84
16, 11504, Note_on_c, 8, 60, 0
16, 11520, Note_on_c, 8, 62, 84
16, 11759, Note_on_c, 8, 62, 0
16, 12000, Note_on_c, 8, 60, 84
16, 12239, Note_on_c, 8, 60, 0
16, 12480, Note_on_c, 8, 59, 84
16, 12704, Note_on_c, 8, 59, 0
16, 12720, Note_on_c, 8, 59, 84
16, 12959, Note_on_c, 8, 59, 0
16, 13200, Note_on_c, 8, 60, 84
16, 13424, Note_on_c, 8, 60, 0
16, 13440, Note_on_c, 8, 62, 84
16, 13679, Note_on_c, 8, 62, 0
16, 13920, Note_on_c, 8, 60, 84
16, 14159, Note_on_c, 8, 60, 0
16, 14400, Note_on_c, 8, 59, 84
16, 14624, Note_on_c, 8, 59, 0
16, 14640, Note_on_c, 8, 59, 84
16, 14879, Note_on_c, 8, 59, 0
16, 15120, Note_on_c, 8, 64, 84
16, 15344, Note_on_c, 8, 64, 0
16, 15360, Note_on_c, 8, 65, 84
16, 15584, Note_on_c, 8, 65, 0
16, 15600, Note_on_c, 8, 65, 84
16, 15824, Note_on_c, 8, 65, 0
16, 15840, Note_on_c, 8, 64, 84
16, 16064, Note_on_c, 8, 64, 0
16, 16080, Note_on_c, 8, 64, 84
16, 16304, Note_on_c, 8, 64, 0
16, 16320, Note_on_c, 8, 62, 84
16, 16559, Note_on_c, 8, 62, 0
16, 17280, Note_on_c, 8, 62, 84
16, 17519, Note_on_c, 8, 62, 0
16, 18240, Note_on_c, 8, 62, 84
16, 18479, Note_on_c, 8, 62, 0
16, 18720, Note_on_c, 8, 62, 84
16, 18959, Note_on_c, 8, 62, 0
16, 19200, Note_on_c, 8, 62, 84
16, 19439, Note_on_c, 8, 62, 0
16, 19680, Note_on_c, 8, 62, 84
16, 19919, Note_on_c, 8, 62, 0
16, 20160, Note_on_c, 8, 62, 84
16, 20399, Note_on_c, 8, 62, 0
16, 25920, Note_on_c, 8, 55, 84
16, 26159, Note_on_c, 8, 55, 0
16, 26400, Note_on_c, 8, 55, 84
16, 26639, Note_on_c, 8, 55, 0
16, 26880, Note_on_c, 8, 55, 84
16, 27119, Note_on_c, 8, 55, 0
16, 27360, Note_on_c, 8, 55, 84
16, 27599, Note_on_c, 8, 55, 0
16, 27840, Note_on_c, 8, 59, 84
16, 28079, Note_on_c, 8, 59, 0
16, 29760, Note_on_c, 8, 60, 84
16, 29999, Note_on_c, 8, 60, 0
16, 30240, Note_on_c, 8, 60, 84
16, 30479, Note_on_c, 8, 60, 0
16, 30720, Note_on_c, 8, 60, 84
16, 30959, Note_on_c, 8, 60, 0
16, 31200, Note_on_c, 8, 60, 84
16, 31439, Note_on_c, 8, 60, 0
16, 31680, Note_on_c, 8, 60, 84
16, 31919, Note_on_c, 8, 60, 0
16, 32640, Note_on_c, 8, 60, 84
16, 32879, Note_on_c, 8, 60, 0
16, 33600, Note_on_c, 8, 60, 84
16, 33839, Note_on_c, 8, 60, 0
16, 34560, Note_on_c, 8, 60, 84
16, 34799, Note_on_c, 8, 60, 0
16, 35520, Note_on_c, 8, 59, 84
16, 35759, Note_on_c, 8, 59, 0
16, 36480, Note_on_c, 8, 60, 84
16, 36719, Note_on_c, 8, 60, 0
16, 36960, Note_on_c, 8, 60, 84
16, 37199, Note_on_c, 8, 60, 0
16, 37440, Note_on_c, 8, 59, 84
16, 37679, Note_on_c, 8, 59, 0
16, 37920, Note_on_c, 8, 59, 84
16, 38159, Note_on_c, 8, 59, 0
16, 38400, Note_on_c, 8, 62, 84
16, 39959, Note_on_c, 8, 62, 0
16, 46080, Note_on_c, 8, 62, 76
16, 46319, Note_on_c, 8, 62, 0
16, 46560, Note_on_c, 8, 64, 76
16, 46799, Note_on_c, 8, 64, 0
16, 47040, Note_on_c, 8, 62, 76
16, 47759, Note_on_c, 8, 62, 0
16, 54720, Note_on_c, 8, 64, 76
16, 56879, Note_on_c, 8, 64, 0
16, 58560, Note_on_c, 8, 69, 76
16, 58739, Note_on_c, 8, 69, 0
16, 59520, Note_on_c, 8, 62, 76
16, 59699, Note_on_c, 8, 62, 0
16, 65520, Note_on_c, 8, 62, 52
16, 65744, Note_on_c, 8, 62, 0
16, 65760, Note_on_c, 8, 62, 52
16, 65984, Note_on_c, 8, 62, 0
16, 66000, Note_on_c, 8, 62, 52
16, 66224, Note_on_c, 8, 62, 0
16, 66240, Note_on_c, 8, 60, 52
16, 66479, Note_on_c, 8, 60, 0
16, 66720, Note_on_c, 8, 60, 52
16, 66959, Note_on_c, 8, 60, 0
16, 67200, Note_on_c, 8, 59, 52
16, 67439, Note_on_c, 8, 59, 0
16, 67680, Note_on_c, 8, 57, 52
16, 67919, Note_on_c, 8, 57, 0
16, 68160, Note_on_c, 8, 62, 76
16, 68864, Note_on_c, 8, 62, 0
16, 68880, Note_on_c, 8, 60, 76
16, 69104, Note_on_c, 8, 60, 0
16, 69120, Note_on_c, 8, 60, 76
16, 69344, Note_on_c, 8, 60, 0
16, 69360, Note_on_c, 8, 60, 76
16, 69584, Note_on_c, 8, 60, 0
16, 69600, Note_on_c, 8, 60, 76
16, 69824, Note_on_c, 8, 60, 0
16, 69840, Note_on_c, 8, 60, 76
16, 70064, Note_on_c, 8, 60, 0
16, 70080, Note_on_c, 8, 62, 84
16, 70784, Note_on_c, 8, 62, 0
16, 70800, Note_on_c, 8, 60, 84
16, 71024, Note_on_c, 8, 60, 0
16, 71040, Note_on_c, 8, 60, 84
16, 71264, Note_on_c, 8, 60, 0
16, 71280, Note_on_c, 8, 60, 84
16, 71504, Note_on_c, 8, 60, 0
16, 71520, Note_on_c, 8, 60, 84
16, 71744, Note_on_c, 8, 60, 0
16, 71760, Note_on_c, 8, 60, 84
16, 71984, Note_on_c, 8, 60, 0
16, 72000, Note_on_c, 8, 69, 84
16, 72704, Note_on_c, 8, 69, 0
16, 72720, Note_on_c, 8, 67, 84
16, 72944, Note_on_c, 8, 67, 0
16, 72960, Note_on_c, 8, 60, 84
16, 73199, Note_on_c, 8, 60, 0
16, 75840, Note_on_c, 8, 65, 84
16, 77744, Note_on_c, 8, 65, 0
16, 77760, Note_on_c, 8, 62, 84
16, 77999, Note_on_c, 8, 62, 0
16, 78720, Note_on_c, 8, 62, 84
16, 78959, Note_on_c, 8, 62, 0
16, 79680, Note_on_c, 8, 62, 84
16, 79919, Note_on_c, 8, 62, 0
16, 80160, Note_on_c, 8, 62, 84
16, 80399, Note_on_c, 8, 62, 0
16, 80640, Note_on_c, 8, 62, 84
16, 80879, Note_on_c, 8, 62, 0
16, 81120, Note_on_c, 8, 62, 84
16, 81359, Note_on_c, 8, 62, 0
16, 81600, Note_on_c, 8, 64, 84
16, 82064, Note_on_c, 8, 64, 0
16, 82080, Note_on_c, 8, 60, 84
16, 82544, Note_on_c, 8, 60, 0
16, 82560, Note_on_c, 8, 64, 84
16, 83264, Note_on_c, 8, 64, 0
16, 83280, Note_on_c, 8, 62, 84
16, 83399, Note_on_c, 8, 62, 0
16, 83520, Note_on_c, 8, 60, 84
16, 83639, Note_on_c, 8, 60, 0
16, 83760, Note_on_c, 8, 53, 84
16, 83879, Note_on_c, 8, 53, 0
16, 84000, Note_on_c, 8, 52, 84
16, 84119, Note_on_c, 8, 52, 0
16, 84240, Note_on_c, 8, 53, 84
16, 84359, Note_on_c, 8, 53, 0
16, 84480, Note_on_c, 8, 52, 84
16, 85199, Note_on_c, 8, 52, 0
16, 85440, Note_on_c, 8, 59, 84
16, 86159, Note_on_c, 8, 59, 0
16, 86400, Note_on_c, 8, 60, 84
16, 87119, Note_on_c, 8, 60, 0
16, 87360, Note_on_c, 8, 60, 84
16, 87719, Note_on_c, 8, 60, 0
16, 87840, Note_on_c, 8, 60, 84
16, 88199, Note_on_c, 8, 60, 0
16, 88320, Note_on_c, 8, 60, 84
16, 88919, Note_on_c, 8, 60, 0
16, 89280, Note_on_c, 8, 60, 84
16, 89744, Note_on_c, 8, 60, 0
16, 89760, Note_on_c, 8, 60, 84
16, 90224, Note_on_c, 8, 60, 0
16, 90240, Note_on_c, 8, 60, 84
16, 90839, Note_on_c, 8, 60, 0
16, 91200, Note_on_c, 8, 60, 84
16, 91559, Note_on_c, 8, 60, 0
16, 91680, Note_on_c, 8, 60, 84
16, 92039, Note_on_c, 8, 60, 0
16, 92160, Note_on_c, 8, 60, 84
16, 92864, Note_on_c, 8, 60, 0
16, 92880, Note_on_c, 8, 60, 84
16, 93104, Note_on_c, 8, 60, 0
16, 93120, Note_on_c, 8, 62, 84
16, 93359, Note_on_c, 8, 62, 0
16, 93600, Note_on_c, 8, 60, 84
16, 93839, Note_on_c, 8, 60, 0
16, 94080, Note_on_c, 8, 59, 84
16, 94304, Note_on_c, 8, 59, 0
16, 94320, Note_on_c, 8, 59, 84
16, 94559, Note_on_c, 8, 59, 0
16, 94800, Note_on_c, 8, 60, 84
16, 95024, Note_on_c, 8, 60, 0
16, 95040, Note_on_c, 8, 62, 84
16, 95279, Note_on_c, 8, 62, 0
16, 95520, Note_on_c, 8, 60, 84
16, 95759, Note_on_c, 8, 60, 0
16, 96000, Note_on_c, 8, 59, 84
16, 96224, Note_on_c, 8, 59, 0
16, 96240, Note_on_c, 8, 59, 84
16, 96479, Note_on_c, 8, 59, 0
16, 96720, Note_on_c, 8, 64, 84
16, 96944, Note_on_c, 8, 64, 0
16, 96960, Note_on_c, 8, 65, 84
16, 97184, Note_on_c, 8, 65, 0
16, 97200, Note_on_c, 8, 65, 84
16, 97424, Note_on_c, 8, 65, 0
16, 97440, Note_on_c, 8, 64, 84
16, 97664, Note_on_c, 8, 64, 0
16, 97680, Note_on_c, 8, 64, 84
16, 97904, Note_on_c, 8, 64, 0
16, 97920, Note_on_c, 8, 62, 84
16, 98159, Note_on_c, 8, 62, 0
16, 98880, Note_on_c, 8, 62, 84
16, 99119, Note_on_c, 8, 62, 0
16, 99840, Note_on_c, 8, 62, 84
16, 100079, Note_on_c, 8, 62, 0
16, 100320, Note_on_c, 8, 62, 84
16, 100559, Note_on_c, 8, 62, 0
16, 100800, Note_on_c, 8, 62, 84
16, 101039, Note_on_c, 8, 62, 0
16, 101280, Note_on_c, 8, 62, 84
16, 101519, Note_on_c, 8, 62, 0
16, 101760, Note_on_c, 8, 62, 84
16, 101999, Note_on_c, 8, 62, 0
16, 107520, Note_on_c, 8, 55, 84
16, 107759, Note_on_c, 8, 55, 0
16, 108000, Note_on_c, 8, 55, 84
16, 108239, Note_on_c, 8, 55, 0
16, 108480, Note_on_c, 8, 55, 84
16, 108719, Note_on_c, 8, 55, 0
16, 108960, Note_on_c, 8, 55, 84
16, 109199, Note_on_c, 8, 55, 0
16, 109440, Note_on_c, 8, 59, 84
16, 109679, Note_on_c, 8, 59, 0
16, 111360, Note_on_c, 8, 60, 84
16, 111599, Note_on_c, 8, 60, 0
16, 111840, Note_on_c, 8, 60, 84
16, 112079, Note_on_c, 8, 60, 0
16, 112320, Note_on_c, 8, 60, 84
16, 112559, Note_on_c, 8, 60, 0
16, 112800, Note_on_c, 8, 60, 84
16, 113039, Note_on_c, 8, 60, 0
16, 113280, Note_on_c, 8, 60, 84
16, 113519, Note_on_c, 8, 60, 0
16, 114240, Note_on_c, 8, 60, 84
16, 114479, Note_on_c, 8, 60, 0
16, 115200, Note_on_c, 8, 60, 84
16, 115439, Note_on_c, 8, 60, 0
16, 116160, Note_on_c, 8, 60, 84
16, 116399, Note_on_c, 8, 60, 0
16, 117120, Note_on_c, 8, 59, 84
16, 117359, Note_on_c, 8, 59, 0
16, 118080, Note_on_c, 8, 60, 84
16, 118319, Note_on_c, 8, 60, 0
16, 118560, Note_on_c, 8, 60, 84
16, 118799, Note_on_c, 8, 60, 0
16, 119040, Note_on_c, 8, 59, 84
16, 119279, Note_on_c, 8, 59, 0
16, 119520, Note_on_c, 8, 59, 84
16, 119759, Note_on_c, 8, 59, 0
16, 120000, Note_on_c, 8, 62, 84
16, 121559, Note_on_c, 8, 62, 0
16, 127680, Note_on_c, 8, 62, 76
16, 127919, Note_on_c, 8, 62, 0
16, 128160, Note_on_c, 8, 64, 76
16, 128399, Note_on_c, 8, 64, 0
16, 128640, Note_on_c, 8, 62, 76
16, 129359, Note_on_c, 8, 62, 0
16, 136320, Note_on_c, 8, 64, 76
16, 138479, Note_on_c, 8, 64, 0
16, 140160, Note_on_c, 8, 69, 76
16, 140339, Note_on_c, 8, 69, 0
16, 141120, Note_on_c, 8, 62, 76
16, 141299, Note_on_c, 8, 62, 0
16, 147120, Note_on_c, 8, 62, 52
16, 147344, Note_on_c, 8, 62, 0
16, 147360, Note_on_c, 8, 62, 52
16, 147584, Note_on_c, 8, 62, 0
16, 147600, Note_on_c, 8, 62, 52
16, 147824, Note_on_c, 8, 62, 0
16, 147840, Note_on_c, 8, 60, 52
16, 148079, Note_on_c, 8, 60, 0
16, 148320, Note_on_c, 8, 60, 52
16, 148559, Note_on_c, 8, 60, 0
16, 148800, Note_on_c, 8, 59, 52
16, 149039, Note_on_c, 8, 59, 0
16, 149280, Note_on_c, 8, 57, 52
16, 149519, Note_on_c, 8, 57, 0
16, 149760, Note_on_c, 8, 62, 76
16, 150464, Note_on_c, 8, 62, 0
16, 150480, Note_on_c, 8, 60, 76
16, 150704, Note_on_c, 8, 60, 0
16, 150720, Note_on_c, 8, 60, 76
16, 150944, Note_on_c, 8, 60, 0
16, 150960, Note_on_c, 8, 60, 76
16, 151184, Note_on_c, 8, 60, 0
16, 151200, Note_on_c, 8, 60, 76
16, 151424, Note_on_c, 8, 60, 0
16, 151440, Note_on_c, 8, 60, 76
16, 151664, Note_on_c, 8, 60, 0
16, 151680, Note_on_c, 8, 62, 84
16, 152384, Note_on_c, 8, 62, 0
16, 152400, Note_on_c, 8, 60, 84
16, 152624, Note_on_c, 8, 60, 0
16, 152640, Note_on_c, 8, 60, 84
16, 152864, Note_on_c, 8, 60, 0
16, 152880, Note_on_c, 8, 60, 84
16, 153104, Note_on_c, 8, 60, 0
16, 153120, Note_on_c, 8, 60, 84
16, 153344, Note_on_c, 8, 60, 0
16, 153360, Note_on_c, 8, 60, 84
16, 153584, Note_on_c, 8, 60, 0
16, 153600, Note_on_c, 8, 69, 84
16, 154304, Note_on_c, 8, 69, 0
16, 154320, Note_on_c, 8, 67, 84
16, 154544, Note_on_c, 8, 67, 0
16, 154560, Note_on_c, 8, 60, 84
16, 154799, Note_on_c, 8, 60, 0
16, 157440, Note_on_c, 8, 65, 84
16, 159344, Note_on_c, 8, 65, 0
16, 159360, Note_on_c, 8, 62, 84
16, 159599, Note_on_c, 8, 62, 0
16, 160320, Note_on_c, 8, 62, 84
16, 160559, Note_on_c, 8, 62, 0
16, 161280, Note_on_c, 8, 62, 84
16, 161519, Note_on_c, 8, 62, 0
16, 161760, Note_on_c, 8, 62, 84
16, 161999, Note_on_c, 8, 62, 0
16, 162240, Note_on_c, 8, 62, 84
16, 162464, Note_on_c, 8, 62, 0
16, 162480, Note_on_c, 8, 62, 84
16, 163184, Note_on_c, 8, 62, 0
16, 163200, Note_on_c, 8, 62, 84
16, 167024, Note_on_c, 8, 62, 0
16, 167040, Note_on_c, 8, 57, 84
16, 167279, Note_on_c, 8, 57, 0
16, 188880, Note_on_c, 8, 61, 76
16, 189104, Note_on_c, 8, 61, 0
16, 189120, Note_on_c, 8, 60, 76
16, 189584, Note_on_c, 8, 60, 0
16, 189600, Note_on_c, 8, 61, 76
16, 190064, Note_on_c, 8, 61, 0
16, 190080, Note_on_c, 8, 63, 76
16, 191744, Note_on_c, 8, 63, 0
16, 191760, Note_on_c, 8, 63, 76
16, 191984, Note_on_c, 8, 63, 0
16, 192000, Note_on_c, 8, 62, 76
16, 192464, Note_on_c, 8, 62, 0
16, 192480, Note_on_c, 8, 63, 76
16, 192944, Note_on_c, 8, 63, 0
16, 192960, Note_on_c, 8, 65, 76
16, 194639, Note_on_c, 8, 65, 0
16, 195840, Note_on_c, 8, 55, 76
16, 197999, Note_on_c, 8, 55, 0
16, 198720, Note_on_c, 8, 53, 80
16, 198959, Note_on_c, 8, 53, 0
16, 199680, Note_on_c, 8, 55, 80
16, 199919, Note_on_c, 8, 55, 0
16, 200640, Note_on_c, 8, 56, 80
16, 200879, Note_on_c, 8, 56, 0
16, 201600, Note_on_c, 8, 59, 80
16, 201839, Note_on_c, 8, 59, 0
16, 202560, Note_on_c, 8, 60, 80
16, 202799, Note_on_c, 8, 60, 0
16, 203520, Note_on_c, 8, 62, 80
16, 203759, Note_on_c, 8, 62, 0
16, 204480, Note_on_c, 8, 63, 80
16, 204719, Note_on_c, 8, 63, 0
16, 205440, Note_on_c, 8, 62, 80
16, 207344, Note_on_c, 8, 62, 0
16, 207360, Note_on_c, 8, 55, 84
16, 207599, Note_on_c, 8, 55, 0
16, 209280, Note_on_c, 8, 59, 84
16, 209519, Note_on_c, 8, 59, 0
16, 211200, Note_on_c, 8, 60, 84
16, 211439, Note_on_c, 8, 60, 0
16, 213120, Note_on_c, 8, 62, 84
16, 213359, Note_on_c, 8, 62, 0
16, 215040, Note_on_c, 8, 64, 84
16, 215279, Note_on_c, 8, 64, 0
16, 216960, Note_on_c, 8, 60, 84
16, 218864, Note_on_c, 8, 60, 0
16, 218880, Note_on_c, 8, 59, 84
16, 219479, Note_on_c, 8, 59, 0
16, 219840, Note_on_c, 8, 59, 84
16, 220439, Note_on_c, 8, 59, 0
16, 220800, Note_on_c, 8, 59, 84
16, 221039, Note_on_c, 8, 59, 0
16, 221280, Note_on_c, 8, 59, 84
16, 221519, Note_on_c, 8, 59, 0
16, 221760, Note_on_c, 8, 59, 84
16, 221999, Note_on_c, 8, 59, 0
16, 222240, Note_on_c, 8, 59, 84
16, 222479, Note_on_c, 8, 59, 0
16, 222720, Note_on_c, 8, 59, 84
16, 222959, Note_on_c, 8, 59, 0
16, 223200, Note_on_c, 8, 59, 84
16, 223439, Note_on_c, 8, 59, 0
16, 223680, Note_on_c, 8, 59, 84
16, 223919, Note_on_c, 8, 59, 0
16, 224160, Note_on_c, 8, 59, 84
16, 224399, Note_on_c, 8, 59, 0
16, 224640, Note_on_c, 8, 59, 84
16, 227504, Note_on_c, 8, 59, 0
16, 227520, Note_on_c, 8, 59, 84
16, 227759, Note_on_c, 8, 59, 0
16, 266400, Note_on_c, 8, 64, 84
16, 266864, Note_on_c, 8, 64, 0
16, 266880, Note_on_c, 8, 60, 84
16, 267344, Note_on_c, 8, 60, 0
16, 267360, Note_on_c, 8, 64, 84
16, 268064, Note_on_c, 8, 64, 0
16, 268080, Note_on_c, 8, 62, 84
16, 268199, Note_on_c, 8, 62, 0
16, 268320, Note_on_c, 8, 60, 84
16, 268439, Note_on_c, 8, 60, 0
16, 268560, Note_on_c, 8, 53, 84
16, 268679, Note_on_c, 8, 53, 0
16, 268800, Note_on_c, 8, 52, 84
16, 268919, Note_on_c, 8, 52, 0
16, 269040, Note_on_c, 8, 53, 84
16, 269159, Note_on_c, 8, 53, 0
16, 269280, Note_on_c, 8, 52, 84
16, 269999, Note_on_c, 8, 52, 0
16, 270240, Note_on_c, 8, 59, 84
16, 270959, Note_on_c, 8, 59, 0
16, 271200, Note_on_c, 8, 60, 84
16, 271919, Note_on_c, 8, 60, 0
16, 272160, Note_on_c, 8, 60, 84
16, 272519, Note_on_c, 8, 60, 0
16, 272640, Note_on_c, 8, 60, 84
16, 272999, Note_on_c, 8, 60, 0
16, 273120, Note_on_c, 8, 60, 84
16, 273719, Note_on_c, 8, 60, 0
16, 274080, Note_on_c, 8, 60, 84
16, 274544, Note_on_c, 8, 60, 0
16, 274560, Note_on_c, 8, 60, 84
16, 275024, Note_on_c, 8, 60, 0
16, 275040, Note_on_c, 8, 60, 84
16, 275639, Note_on_c, 8, 60, 0
16, 276000, Note_on_c, 8, 60, 84
16, 276359, Note_on_c, 8, 60, 0
16, 276480, Note_on_c, 8, 60, 84
16, 276839, Note_on_c, 8, 60, 0
16, 276960, Note_on_c, 8, 60, 84
16, 277664, Note_on_c, 8, 60, 0
16, 277680, Note_on_c, 8, 60, 84
16, 277904, Note_on_c, 8, 60, 0
16, 277920, Note_on_c, 8, 62, 84
16, 278159, Note_on_c, 8, 62, 0
16, 278400, Note_on_c, 8, 60, 84
16, 278639, Note_on_c, 8, 60, 0
16, 278880, Note_on_c, 8, 59, 84
16, 279104, Note_on_c, 8, 59, 0
16, 279120, Note_on_c, 8, 59, 84
16, 279359, Note_on_c, 8, 59, 0
16, 279600, Note_on_c, 8, 60, 84
16, 279824, Note_on_c, 8, 60, 0
16, 279840, Note_on_c, 8, 62, 84
16, 280079, Note_on_c, 8, 62, 0
16, 280320, Note_on_c, 8, 60, 84
16, 280559, Note_on_c, 8, 60, 0
16, 280800, Note_on_c, 8, 59, 84
16, 281024, Note_on_c, 8, 59, 0
16, 281040, Note_on_c, 8, 59, 84
16, 281279, Note_on_c, 8, 59, 0
16, 281520, Note_on_c, 8, 64, 84
16, 281744, Note_on_c, 8, 64, 0
16, 281760, Note_on_c, 8, 65, 84
16, 281984, Note_on_c, 8, 65, 0
16, 282000, Note_on_c, 8, 65, 84
16, 282224, Note_on_c, 8, 65, 0
16, 282240, Note_on_c, 8, 64, 84
16, 282464, Note_on_c, 8, 64, 0
16, 282480, Note_on_c, 8, 64, 84
16, 282704, Note_on_c, 8, 64, 0
16, 282720, Note_on_c, 8, 62, 84
16, 282959, Note_on_c, 8, 62, 0
16, 283680, Note_on_c, 8, 62, 84
16, 283919, Note_on_c, 8, 62, 0
16, 284640, Note_on_c, 8, 62, 84
16, 284879, Note_on_c, 8, 62, 0
16, 285120, Note_on_c, 8, 62, 84
16, 285359, Note_on_c, 8, 62, 0
16, 285600, Note_on_c, 8, 62, 84
16, 285839, Note_on_c, 8, 62, 0
16, 286080, Note_on_c, 8, 62, 84
16, 286319, Note_on_c, 8, 62, 0
16, 286560, Note_on_c, 8, 62, 84
16, 286799, Note_on_c, 8, 62, 0
16, 292320, Note_on_c, 8, 55, 84
16, 292559, Note_on_c, 8, 55, 0
16, 292800, Note_on_c, 8, 55, 84
16, 293039, Note_on_c, 8, 55, 0
16, 293280, Note_on_c, 8, 55, 84
16, 293519, Note_on_c, 8, 55, 0
16, 293760, Note_on_c, 8, 55, 84
16, 293999, Note_on_c, 8, 55, 0
16, 294240, Note_on_c, 8, 59, 84
16, 294479, Note_on_c, 8, 59, 0
16, 296160, Note_on_c, 8, 58, 84
16, 296399, Note_on_c, 8, 58, 0
16, 296640, Note_on_c, 8, 58, 84
16, 296879, Note_on_c, 8, 58, 0
16, 297120, Note_on_c, 8, 58, 84
16, 297359, Note_on_c, 8, 58, 0
16, 297600, Note_on_c, 8, 58, 84
16, 297839, Note_on_c, 8, 58, 0
16, 298080, Note_on_c, 8, 60, 84
16, 298319, Note_on_c, 8, 60, 0
16, 299040, Note_on_c, 8, 60, 84
16, 299279, Note_on_c, 8, 60, 0
16, 300000, Note_on_c, 8, 60, 84
16, 300239, Note_on_c, 8, 60, 0
16, 300960, Note_on_c, 8, 60, 84
16, 301199, Note_on_c, 8, 60, 0
16, 301920, Note_on_c, 8, 62, 84
16, 302399, Note_on_c, 8, 62, 0
16, 303840, Note_on_c, 8, 60, 84
16, 304319, Note_on_c, 8, 60, 0
16, 305760, Note_on_c, 8, 62, 84
16, 306239, Note_on_c, 8, 62, 0
16, 306720, Note_on_c, 8, 60, 84
16, 307199, Note_on_c, 8, 60, 0
16, 307680, Note_on_c, 8, 59, 84
16, 307919, Note_on_c, 8, 59, 0
16, 309600, Note_on_c, 8, 62, 84
16, 309839, Note_on_c, 8, 62, 0
16, 315360, Note_on_c, 8, 64, 76
16, 315599, Note_on_c, 8, 64, 0
16, 315840, Note_on_c, 8, 65, 76
16, 316079, Note_on_c, 8, 65, 0
16, 316320, Note_on_c, 8, 64, 76
16, 317039, Note_on_c, 8, 64, 0
16, 324000, Note_on_c, 8, 65, 84
16, 325904, Note_on_c, 8, 65, 0
16, 325920, Note_on_c, 8, 65, 84
16, 326159, Note_on_c, 8, 65, 0
16, 337440, Note_on_c, 8, 60, 76
16, 338144, Note_on_c, 8, 60, 0
16, 338160, Note_on_c, 8, 59, 76
16, 338384, Note_on_c, 8, 59, 0
16, 338400, Note_on_c, 8, 57, 76
16, 338624, Note_on_c, 8, 57, 0
16, 338640, Note_on_c, 8, 55, 76
16, 338864, Note_on_c, 8, 55, 0
16, 338880, Note_on_c, 8, 55, 76
16, 339104, Note_on_c, 8, 55, 0
16, 339120, Note_on_c, 8, 55, 76
16, 339344, Note_on_c, 8, 55, 0
16, 339360, Note_on_c, 8, 60, 84
16, 340064, Note_on_c, 8, 60, 0
16, 340080, Note_on_c, 8, 59, 84
16, 340304, Note_on_c, 8, 59, 0
16, 340320, Note_on_c, 8, 57, 84
16, 340544, Note_on_c, 8, 57, 0
16, 340560, Note_on_c, 8, 55, 84
16, 340784, Note_on_c, 8, 55, 0
16, 340800, Note_on_c, 8, 55, 84
16, 341024, Note_on_c, 8, 55, 0
16, 341040, Note_on_c, 8, 55, 84
16, 341264, Note_on_c, 8, 55, 0
16, 341280, Note_on_c, 8, 62, 84
16, 341984, Note_on_c, 8, 62, 0
16, 342000, Note_on_c, 8, 60, 84
16, 342224, Note_on_c, 8, 60, 0
16, 342240, Note_on_c, 8, 57, 76
16, 342464, Note_on_c, 8, 57, 0
16, 342480, Note_on_c, 8, 55, 80
16, 342704, Note_on_c, 8, 55, 0
16, 342720, Note_on_c, 8, 55, 80
16, 342944, Note_on_c, 8, 55, 0
16, 342960, Note_on_c, 8, 55, 80
16, 343184, Note_on_c, 8, 55, 0
16, 343200, Note_on_c, 8, 55, 80
16, 343424, Note_on_c, 8, 55, 0
16, 343440, Note_on_c, 8, 55, 80
16, 343664, Note_on_c, 8, 55, 0
16, 343680, Note_on_c, 8, 55, 80
16, 343904, Note_on_c, 8, 55, 0
16, 343920, Note_on_c, 8, 55, 80
16, 344144, Note_on_c, 8, 55, 0
16, 344160, Note_on_c, 8, 55, 80
16, 344384, Note_on_c, 8, 55, 0
16, 344400, Note_on_c, 8, 58, 80
16, 344624, Note_on_c, 8, 58, 0
16, 344640, Note_on_c, 8, 58, 80
16, 344864, Note_on_c, 8, 58, 0
16, 344880, Note_on_c, 8, 58, 80
16, 345104, Note_on_c, 8, 58, 0
16, 345120, Note_on_c, 8, 58, 84
16, 346064, Note_on_c, 8, 58, 0
16, 346080, Note_on_c, 8, 58, 84
16, 347024, Note_on_c, 8, 58, 0
16, 347040, Note_on_c, 8, 59, 84
16, 347984, Note_on_c, 8, 59, 0
16, 348000, Note_on_c, 8, 60, 84
16, 349904, Note_on_c, 8, 60, 0
16, 349920, Note_on_c, 8, 60, 92
16, 350639, Note_on_c, 8, 60, 0
16, 355680, Note_on_c, 8, 62, 76
16, 355919, Note_on_c, 8, 62, 0
16, 357600, Note_on_c, 8, 64, 76
16, 357839, Note_on_c, 8, 64, 0
16, 358320, Note_on_c, 8, 55, 80
16, 358544, Note_on_c, 8, 55, 0
16, 358560, Note_on_c, 8, 55, 80
16, 359024, Note_on_c, 8, 55, 0
16, 359040, Note_on_c, 8, 55, 80
16, 359504, Note_on_c, 8, 55, 0
16, 359520, Note_on_c, 8, 55, 80
16, 360224, Note_on_c, 8, 55, 0
16, 360240, Note_on_c, 8, 55, 80
16, 360464, Note_on_c, 8, 55, 0
16, 360480, Note_on_c, 8, 55, 80
16, 360944, Note_on_c, 8, 55, 0
16, 360960, Note_on_c, 8, 55, 80
16, 361424, Note_on_c, 8, 55, 0
16, 361440, Note_on_c, 8, 58, 84
16, 362384, Note_on_c, 8, 58, 0
16, 362400, Note_on_c, 8, 60, 84
16, 363344, Note_on_c, 8, 60, 0
16, 363360, Note_on_c, 8, 65, 84
16, 364304, Note_on_c, 8, 65, 0
16, 364320, Note_on_c, 8, 65, 84
16, 365264, Note_on_c, 8, 65, 0
16, 365280, Note_on_c, 8, 65, 84
16, 365744, Note_on_c, 8, 65, 0
16, 365760, Note_on_c, 8, 65, 84
16, 366224, Note_on_c, 8, 65, 0
16, 366240, Note_on_c, 8, 65, 84
16, 366704, Note_on_c, 8, 65, 0
16, 366720, Note_on_c, 8, 65, 84
16, 367184, Note_on_c, 8, 65, 0
16, 367200, Note_on_c, 8, 59, 84
16, 367379, Note_on_c, 8, 59, 0
16, 368160, Note_on_c, 8, 55, 84
16, 368339, Note_on_c, 8, 55, 0
16, 369120, Note_on_c, 8, 55, 84
16, 369299, Note_on_c, 8, 55, 0
16, 370080, Note_on_c, 8, 55, 84
16, 370259, Note_on_c, 8, 55, 0
16, 371040, Note_on_c, 8, 55, 84
16, 371219, Note_on_c, 8, 55, 0
16, 372000, Note_on_c, 8, 55, 84
16, 372179, Note_on_c, 8, 55, 0
16, 383520, Note_on_c, 8, 60, 76
16, 383759, Note_on_c, 8, 60, 0
16, 384480, Note_on_c, 8, 60, 76
16, 384719, Note_on_c, 8, 60, 0
16, 385440, Note_on_c, 8, 57, 76
16, 385679, Note_on_c, 8, 57, 0
16, 386400, Note_on_c, 8, 60, 76
16, 386639, Note_on_c, 8, 60, 0
16, 387120, Note_on_c, 8, 60, 76
16, 387299, Note_on_c, 8, 60, 0
16, 387360, Note_on_c, 8, 62, 76
16, 387599, Note_on_c, 8, 62, 0
16, 399840, Note_on_c, 8, 60, 76
16, 400079, Note_on_c, 8, 60, 0
16, 400800, Note_on_c, 8, 60, 76
16, 401039, Note_on_c, 8, 60, 0
16, 401760, Note_on_c, 8, 60, 76
16, 401999, Note_on_c, 8, 60, 0
16, 402720, Note_on_c, 8, 60, 76
16, 402959, Note_on_c, 8, 60, 0
16, 420960, Note_on_c, 8, 67, 76
16, 421659, Note_on_c, 8, 67, 0
16, 421680, Note_on_c, 8, 65, 76
16, 421899, Note_on_c, 8, 65, 0
16, 421920, Note_on_c, 8, 62, 76
16, 422139, Note_on_c, 8, 62, 0
16, 422160, Note_on_c, 8, 64, 76
16, 422379, Note_on_c, 8, 64, 0
16, 422400, Note_on_c, 8, 62, 76
16, 422859, Note_on_c, 8, 62, 0
16, 422880, Note_on_c, 8, 60, 84
16, 422999, Note_on_c, 8, 60, 0
16, 432960, Note_on_c, 8, 62, 84
16, 433079, Note_on_c, 8, 62, 0
16, 433440, Note_on_c, 8, 64, 84
16, 433559, Note_on_c, 8, 64, 0
16, 433920, Note_on_c, 8, 62, 84
16, 434039, Note_on_c, 8, 62, 0
16, 434400, Note_on_c, 8, 64, 84
16, 434519, Note_on_c, 8, 64, 0
16, 434880, Note_on_c, 8, 62, 84
16, 434999, Note_on_c, 8, 62, 0
16, 435360, Note_on_c, 8, 64, 84
16, 436299, Note_on_c, 8, 64, 0
16, 436320, Note_on_c, 8, 64, 84
16, 437259, Note_on_c, 8, 64, 0
16, 437280, Note_on_c, 8, 64, 84
16, 437399, Note_on_c, 8, 64, 0
16, 438240, Note_on_c, 8, 60, 84
16, 438359, Note_on_c, 8, 60, 0
16, 439200, Note_on_c, 8, 60, 84
16, 439319, Note_on_c, 8, 60, 0
16, 439680, Note_on_c, 8, 60, 84
16, 439799, Note_on_c, 8, 60, 0
16, 440160, Note_on_c, 8, 60, 84
16, 440279, Note_on_c, 8, 60, 0
16, 440640, Note_on_c, 8, 64, 84
16, 440759, Note_on_c, 8, 64, 0
16, 441120, Note_on_c, 8, 60, 84
16, 442059, Note_on_c, 8, 60, 0
16, 442080, Note_on_c, 8, 64, 84
16, 443019, Note_on_c, 8, 64, 0
16, 443040, Note_on_c, 8, 60, 84
16, 443159, Note_on_c, 8, 60, 0
16, 444000, Note_on_c, 8, 64, 84
16, 444119, Note_on_c, 8, 64, 0
16, 444960, Note_on_c, 8, 60, 84
16, 445079, Note_on_c, 8, 60, 0
16, 445920, Note_on_c, 8, 64, 84
16, 446039, Note_on_c, 8, 64, 0
16, 446400, Note_on_c, 8, 64, 84
16, 446519, Note_on_c, 8, 64, 0
16, 446880, Note_on_c, 8, 64, 84
16, 446999, Note_on_c, 8, 64, 0
16, 447840, Note_on_c, 8, 60, 84
16, 447959, Note_on_c, 8, 60, 0
16, 448800, Note_on_c, 8, 52, 84
16, 448919, Note_on_c, 8, 52, 0
16, 448919, End_track
17, 0, Start_track
17, 0, Title_t, "Bass Trombone"
17, 0, MIDI_port, 0
17, 0, Program_c, 10, 57
17, 0, Control_c, 10, 7, 96
17, 0, Control_c, 10, 10, 85
17, 0, Control_c, 10, 11, 127
17, 0, Note_on_c, 10, 48, 84
17, 464, Note_on_c, 10, 48, 0
17, 480, Note_on_c, 10, 48, 84
17, 944, Note_on_c, 10, 48, 0
17, 960, Note_on_c, 10, 48, 84
17, 1664, Note_on_c, 10, 48, 0
17, 1680, Note_on_c, 10, 43, 84
17, 1799, Note_on_c, 10, 43, 0
17, 1920, Note_on_c, 10, 48, 84
17, 2039, Note_on_c, 10, 48, 0
17, 2160, Note_on_c, 10, 43, 84
17, 2279, Note_on_c, 10, 43, 0
17, 2400, Note_on_c, 10, 48, 84
17, 2519, Note_on_c, 10, 48, 0
17, 2640, Note_on_c, 10, 43, 84
17, 2759, Note_on_c, 10, 43, 0
17, 2880, Note_on_c, 10, 48, 84
17, 3599, Note_on_c, 10, 48, 0
17, 3840, Note_on_c, 10, 43, 84
17, 4559, Note_on_c, 10, 43, 0
17, 4800, Note_on_c, 10, 48, 84
17, 5519, Note_on_c, 10, 48, 0
17, 5760, Note_on_c, 10, 45, 84
17, 6119, Note_on_c, 10, 45, 0
17, 6240, Note_on_c, 10, 41, 84
17, 6599, Note_on_c, 10, 41, 0
17, 6720, Note_on_c, 10, 52, 84
17, 7199, Note_on_c, 10, 52, 0
17, 7200, Note_on_c, 10, 48, 84
17, 7319, Note_on_c, 10, 48, 0
17, 7680, Note_on_c, 10, 45, 84
17, 8144, Note_on_c, 10, 45, 0
17, 8160, Note_on_c, 10, 41, 84
17, 8624, Note_on_c, 10, 41, 0
17, 8640, Note_on_c, 10, 52, 84
17, 8999, Note_on_c, 10, 52, 0
17, 9600, Note_on_c, 10, 45, 84
17, 9959, Note_on_c, 10, 45, 0
17, 10080, Note_on_c, 10, 41, 84
17, 10439, Note_on_c, 10, 41, 0
17, 10560, Note_on_c, 10, 52, 84
17, 11024, Note_on_c, 10, 52, 0
17, 11040, Note_on_c, 10, 48, 84
17, 11264, Note_on_c, 10, 48, 0
17, 11280, Note_on_c, 10, 48, 84
17, 11504, Note_on_c, 10, 48, 0
17, 11520, Note_on_c, 10, 47, 84
17, 11984, Note_on_c, 10, 47, 0
17, 12000, Note_on_c, 10, 48, 84
17, 12464, Note_on_c, 10, 48, 0
17, 12480, Note_on_c, 10, 43, 84
17, 12704, Note_on_c, 10, 43, 0
17, 12720, Note_on_c, 10, 43, 84
17, 12959, Note_on_c, 10, 43, 0
17, 13200, Note_on_c, 10, 48, 84
17, 13424, Note_on_c, 10, 48, 0
17, 13440, Note_on_c, 10, 47, 84
17, 13904, Note_on_c, 10, 47, 0
17, 13920, Note_on_c, 10, 48, 84
17, 14384, Note_on_c, 10, 48, 0
17, 14400, Note_on_c, 10, 43, 84
17, 14624, Note_on_c, 10, 43, 0
17, 14640, Note_on_c, 10, 43, 84
17, 14879, Note_on_c, 10, 43, 0
17, 15120, Note_on_c, 10, 48, 84
17, 15344, Note_on_c, 10, 48, 0
17, 15360, Note_on_c, 10, 47, 84
17, 15584, Note_on_c, 10, 47, 0
17, 15600, Note_on_c, 10, 43, 84
17, 15824, Note_on_c, 10, 43, 0
17, 15840, Note_on_c, 10, 48, 84
17, 16064, Note_on_c, 10, 48, 0
17, 16080, Note_on_c, 10, 52, 84
17, 16304, Note_on_c, 10, 52, 0
17, 16320, Note_on_c, 10, 43, 84
17, 16559, Note_on_c, 10, 43, 0
17, 17280, Note_on_c, 10, 43, 84
17, 17519, Note_on_c, 10, 43, 0
17, 18240, Note_on_c, 10, 43, 84
17, 18479, Note_on_c, 10, 43, 0
17, 18720, Note_on_c, 10, 43, 84
17, 18959, Note_on_c, 10, 43, 0
17, 19200, Note_on_c, 10, 43, 84
17, 19439, Note_on_c, 10, 43, 0
17, 19680, Note_on_c, 10, 43, 84
17, 19919, Note_on_c, 10, 43, 0
17, 20160, Note_on_c, 10, 43, 84
17, 20399, Note_on_c, 10, 43, 0
17, 25920, Note_on_c, 10, 50, 84
17, 26159, Note_on_c, 10, 50, 0
17, 26400, Note_on_c, 10, 50, 84
17, 26639, Note_on_c, 10, 50, 0
17, 26880, Note_on_c, 10, 50, 84
17, 27119, Note_on_c, 10, 50, 0
17, 27360, Note_on_c, 10, 50, 84
17, 27599, Note_on_c, 10, 50, 0
17, 27840, Note_on_c, 10, 55, 84
17, 28079, Note_on_c, 10, 55, 0
17, 29760, Note_on_c, 10, 48, 84
17, 29999, Note_on_c, 10, 48, 0
17, 30240, Note_on_c, 10, 48, 84
17, 30479, Note_on_c, 10, 48, 0
17, 30720, Note_on_c, 10, 48, 84
17, 30959, Note_on_c, 10, 48, 0
17, 31200, Note_on_c, 10, 48, 84
17, 31439, Note_on_c, 10, 48, 0
17, 31680, Note_on_c, 10, 48, 84
17, 31919, Note_on_c, 10, 48, 0
17, 32640, Note_on_c, 10, 48, 84
17, 32879, Note_on_c, 10, 48, 0
17, 33600, Note_on_c, 10, 50, 84
17, 33839, Note_on_c, 10, 50, 0
17, 34560, Note_on_c, 10, 50, 84
17, 34799, Note_on_c, 10, 50, 0
17, 35520, Note_on_c, 10, 50, 84
17, 35759, Note_on_c, 10, 50, 0
17, 36480, Note_on_c, 10, 50, 84
17, 36719, Note_on_c, 10, 50, 0
17, 36960, Note_on_c, 10, 50, 84
17, 37199, Note_on_c, 10, 50, 0
17, 37440, Note_on_c, 10, 50, 84
17, 37679, Note_on_c, 10, 50, 0
17, 37920, Note_on_c, 10, 50, 84
17, 38159, Note_on_c, 10, 50, 0
17, 38400, Note_on_c, 10, 50, 84
17, 39959, Note_on_c, 10, 50, 0
17, 46080, Note_on_c, 10, 43, 76
17, 46319, Note_on_c, 10, 43, 0
17, 46560, Note_on_c, 10, 43, 76
17, 46799, Note_on_c, 10, 43, 0
17, 47040, Note_on_c, 10, 43, 76
17, 47759, Note_on_c, 10, 43, 0
17, 54720, Note_on_c, 10, 60, 76
17, 56879, Note_on_c, 10, 60, 0
17, 58560, Note_on_c, 10, 48, 76
17, 58739, Note_on_c, 10, 48, 0
17, 59520, Note_on_c, 10, 50, 76
17, 59699, Note_on_c, 10, 50, 0
17, 65520, Note_on_c, 10, 47, 52
17, 65744, Note_on_c, 10, 47, 0
17, 65760, Note_on_c, 10, 47, 52
17, 65984, Note_on_c, 10, 47, 0
17, 66000, Note_on_c, 10, 47, 52
17, 66224, Note_on_c, 10, 47, 0
17, 66240, Note_on_c, 10, 48, 52
17, 66479, Note_on_c, 10, 48, 0
17, 66720, Note_on_c, 10, 45, 52
17, 66959, Note_on_c, 10, 45, 0
17, 67200, Note_on_c, 10, 50, 52
17, 67439, Note_on_c, 10, 50, 0
17, 67680, Note_on_c, 10, 50, 52
17, 67919, Note_on_c, 10, 50, 0
17, 68160, Note_on_c, 10, 59, 76
17, 68864, Note_on_c, 10, 59, 0
17, 68880, Note_on_c, 10, 57, 76
17, 69104, Note_on_c, 10, 57, 0
17, 69120, Note_on_c, 10, 55, 76
17, 69344, Note_on_c, 10, 55, 0
17, 69360, Note_on_c, 10, 54, 76
17, 69584, Note_on_c, 10, 54, 0
17, 69600, Note_on_c, 10, 54, 76
17, 69824, Note_on_c, 10, 54, 0
17, 69840, Note_on_c, 10, 54, 76
17, 70064, Note_on_c, 10, 54, 0
17, 70080, Note_on_c, 10, 59, 84
17, 70200, Control_c, 10, 11, 112
17, 70784, Note_on_c, 10, 59, 0
17, 70800, Note_on_c, 10, 57, 84
17, 71024, Note_on_c, 10, 57, 0
17, 71040, Note_on_c, 10, 55, 84
17, 71264, Note_on_c, 10, 55, 0
17, 71280, Note_on_c, 10, 54, 84
17, 71504, Note_on_c, 10, 54, 0
17, 71520, Note_on_c, 10, 54, 84
17, 71744, Note_on_c, 10, 54, 0
17, 71760, Note_on_c, 10, 54, 84
17, 71984, Note_on_c, 10, 54, 0
17, 71998, Control_c, 10, 11, 127
17, 72000, Note_on_c, 10, 54, 84
17, 72120, Control_c, 10, 11, 112
17, 72704, Note_on_c, 10, 54, 0
17, 72720, Note_on_c, 10, 55, 84
17, 72944, Note_on_c, 10, 55, 0
17, 72960, Note_on_c, 10, 48, 84
17, 73199, Note_on_c, 10, 48, 0
17, 74880, Control_c, 10, 11, 127
17, 75840, Note_on_c, 10, 41, 84
17, 77744, Note_on_c, 10, 41, 0
17, 77760, Note_on_c, 10, 43, 84
17, 77999, Note_on_c, 10, 43, 0
17, 78720, Note_on_c, 10, 43, 84
17, 78959, Note_on_c, 10, 43, 0
17, 79680, Note_on_c, 10, 43, 84
17, 79919, Note_on_c, 10, 43, 0
17, 80160, Note_on_c, 10, 43, 84
17, 80399, Note_on_c, 10, 43, 0
17, 80640, Note_on_c, 10, 43, 84
17, 80879, Note_on_c, 10, 43, 0
17, 81120, Note_on_c, 10, 43, 84
17, 81359, Note_on_c, 10, 43, 0
17, 81600, Note_on_c, 10, 48, 84
17, 82064, Note_on_c, 10, 48, 0
17, 82080, Note_on_c, 10, 48, 84
17, 82544, Note_on_c, 10, 48, 0
17, 82560, Note_on_c, 10, 48, 84
17, 83264, Note_on_c, 10, 48, 0
17, 83280, Note_on_c, 10, 43, 84
17, 83399, Note_on_c, 10, 43, 0
17, 83520, Note_on_c, 10, 48, 84
17, 83639, Note_on_c, 10, 48, 0
17, 83760, Note_on_c, 10, 43, 84
17, 83879, Note_on_c, 10, 43, 0
17, 84000, Note_on_c, 10, 48, 84
17, 84119, Note_on_c, 10, 48, 0
17, 84240, Note_on_c, 10, 43, 84
17, 84359, Note_on_c, 10, 43, 0
17, 84480, Note_on_c, 10, 48, 84
17, 85199, Note_on_c, 10, 48, 0
17, 85440, Note_on_c, 10, 43, 84
17, 86159, Note_on_c, 10, 43, 0
17, 86400, Note_on_c, 10, 48, 84
17, 87119, Note_on_c, 10, 48, 0
17, 87360, Note_on_c, 10, 45, 84
17, 87719, Note_on_c, 10, 45, 0
17, 87840, Note_on_c, 10, 41, 84
17, 88199, Note_on_c, 10, 41, 0
17, 88320, Note_on_c, 10, 52, 84
17, 88799, Note_on_c, 10, 52, 0
17, 88800, Note_on_c, 10, 48, 84
17, 88919, Note_on_c, 10, 48, 0
17, 89280, Note_on_c, 10, 45, 84
17, 89744, Note_on_c, 10, 45, 0
17, 89760, Note_on_c, 10, 41, 84
17, 90224, Note_on_c, 10, 41, 0
17, 90240, Note_on_c, 10, 52, 84
17, 90599, Note_on_c, 10, 52, 0
17, 91200, Note_on_c, 10, 45, 84
17, 91559, Note_on_c, 10, 45, 0
17, 91680, Note_on_c, 10, 41, 84
17, 92039, Note_on_c, 10, 41, 0
17, 92160, Note_on_c, 10, 52, 84
17, 92624, Note_on_c, 10, 52, 0
17, 92640, Note_on_c, 10, 48, 84
17, 92864, Note_on_c, 10, 48, 0
17, 92880, Note_on_c, 10, 48, 84
17, 93104, Note_on_c, 10, 48, 0
17, 93120, Note_on_c, 10, 47, 84
17, 93584, Note_on_c, 10, 47, 0
17, 93600, Note_on_c, 10, 48, 84
17, 94064, Note_on_c, 10, 48, 0
17, 94080, Note_on_c, 10, 43, 84
17, 94304, Note_on_c, 10, 43, 0
17, 94320, Note_on_c, 10, 43, 84
17, 94559, Note_on_c, 10, 43, 0
17, 94800, Note_on_c, 10, 48, 84
17, 95024, Note_on_c, 10, 48, 0
17, 95040, Note_on_c, 10, 47, 84
17, 95504, Note_on_c, 10, 47, 0
17, 95520, Note_on_c, 10, 48, 84
17, 95984, Note_on_c, 10, 48, 0
17, 96000, Note_on_c, 10, 43, 84
17, 96224, Note_on_c, 10, 43, 0
17, 96240, Note_on_c, 10, 43, 84
17, 96479, Note_on_c, 10, 43, 0
17, 96720, Note_on_c, 10, 48, 84
17, 96944, Note_on_c, 10, 48, 0
17, 96960, Note_on_c, 10, 47, 84
17, 97184, Note_on_c, 10, 47, 0
17, 97200, Note_on_c, 10, 43, 84
17, 97424, Note_on_c, 10, 43, 0
17, 97440, Note_on_c, 10, 48, 84
17, 97664, Note_on_c, 10, 48, 0
17, 97680, Note_on_c, 10, 52, 84
17, 97904, Note_on_c, 10, 52, 0
17, 97920, Note_on_c, 10, 43, 84
17, 98159, Note_on_c, 10, 43, 0
17, 98880, Note_on_c, 10, 43, 84
17, 99119, Note_on_c, 10, 43, 0
17, 99840, Note_on_c, 10, 43, 84
17, 100079, Note_on_c, 10, 43, 0
17, 100320, Note_on_c, 10, 43, 84
17, 100559, Note_on_c, 10, 43, 0
17, 100800, Note_on_c, 10, 43, 84
17, 101039, Note_on_c, 10, 43, 0
17, 101280, Note_on_c, 10, 43, 84
17, 101519, Note_on_c, 10, 43, 0
17, 101760, Note_on_c, 10, 43, 84
17, 101999, Note_on_c, 10, 43, 0
17, 107520, Note_on_c, 10, 50, 84
17, 107759, Note_on_c, 10, 50, 0
17, 108000, Note_on_c, 10, 50, 84
17, 108239, Note_on_c, 10, 50, 0
17, 108480, Note_on_c, 10, 50, 84
17, 108719, Note_on_c, 10, 50, 0
17, 108960, Note_on_c, 10, 50, 84
17, 109199, Note_on_c, 10, 50, 0
17, 109440, Note_on_c, 10, 55, 84
17, 109679, Note_on_c, 10, 55, 0
17, 111360, Note_on_c, 10, 48, 84
17, 111599, Note_on_c, 10, 48, 0
17, 111840, Note_on_c, 10, 48, 84
17, 112079, Note_on_c, 10, 48, 0
17, 112320, Note_on_c, 10, 48, 84
17, 112559, Note_on_c, 10, 48, 0
17, 112800, Note_on_c, 10, 48, 84
17, 113039, Note_on_c, 10, 48, 0
17, 113280, Note_on_c, 10, 48, 84
17, 113519, Note_on_c, 10, 48, 0
17, 114240, Note_on_c, 10, 48, 84
17, 114479, Note_on_c, 10, 48, 0
17, 115200, Note_on_c, 10, 50, 84
17, 115439, Note_on_c, 10, 50, 0
17, 116160, Note_on_c, 10, 50, 84
17, 116399, Note_on_c, 10, 50, 0
17, 117120, Note_on_c, 10, 50, 84
17, 117359, Note_on_c, 10, 50, 0
17, 118080, Note_on_c, 10, 50, 84
17, 118319, Note_on_c, 10, 50, 0
17, 118560, Note_on_c, 10, 50, 84
17, 118799, Note_on_c, 10, 50, 0
17, 119040, Note_on_c, 10, 50, 84
17, 119279, Note_on_c, 10, 50, 0
17, 119520, Note_on_c, 10, 50, 84
17, 119759, Note_on_c, 10, 50, 0
17, 120000, Note_on_c, 10, 50, 84
17, 121559, Note_on_c, 10, 50, 0
17, 127680, Note_on_c, 10, 43, 76
17, 127919, Note_on_c, 10, 43, 0
17, 128160, Note_on_c, 10, 43, 76
17, 128399, Note_on_c, 10, 43, 0
17, 128640, Note_on_c, 10, 43, 76
17, 129359, Note_on_c, 10, 43, 0
17, 136320, Note_on_c, 10, 60, 76
17, 138479, Note_on_c, 10, 60, 0
17, 140160, Note_on_c, 10, 48, 76
17, 140339, Note_on_c, 10, 48, 0
17, 141120, Note_on_c, 10, 50, 76
17, 141299, Note_on_c, 10, 50, 0
17, 147120, Note_on_c, 10, 47, 52
17, 147344, Note_on_c, 10, 47, 0
17, 147360, Note_on_c, 10, 47, 52
17, 147584, Note_on_c, 10, 47, 0
17, 147600, Note_on_c, 10, 47, 52
17, 147824, Note_on_c, 10, 47, 0
17, 147840, Note_on_c, 10, 48, 52
17, 148079, Note_on_c, 10, 48, 0
17, 148320, Note_on_c, 10, 45, 52
17, 148559, Note_on_c, 10, 45, 0
17, 148800, Note_on_c, 10, 50, 52
17, 149039, Note_on_c, 10, 50, 0
17, 149280, Note_on_c, 10, 50, 52
17, 149519, Note_on_c, 10, 50, 0
17, 149760, Note_on_c, 10, 59, 76
17, 150464, Note_on_c, 10, 59, 0
17, 150480, Note_on_c, 10, 57, 76
17, 150704, Note_on_c, 10, 57, 0
17, 150720, Note_on_c, 10, 55, 76
17, 150944, Note_on_c, 10, 55, 0
17, 150960, Note_on_c, 10, 54, 76
17, 151184, Note_on_c, 10, 54, 0
17, 151200, Note_on_c, 10, 54, 76
17, 151424, Note_on_c, 10, 54, 0
17, 151440, Note_on_c, 10, 54, 76
17, 151664, Note_on_c, 10, 54, 0
17, 151680, Note_on_c, 10, 59, 84
17, 151800, Control_c, 10, 11, 112
17, 152384, Note_on_c, 10, 59, 0
17, 152400, Note_on_c, 10, 57, 84
17, 152624, Note_on_c, 10, 57, 0
17, 152640, Note_on_c, 10, 55, 84
17, 152864, Note_on_c, 10, 55, 0
17, 152880, Note_on_c, 10, 54, 84
17, 153104, Note_on_c, 10, 54, 0
17, 153120, Note_on_c, 10, 54, 84
17, 153344, Note_on_c, 10, 54, 0
17, 153360, Note_on_c, 10, 54, 84
17, 153584, Note_on_c, 10, 54, 0
17, 153598, Control_c, 10, 11, 127
17, 153600, Note_on_c, 10, 54, 84
17, 153720, Control_c, 10, 11, 112
17, 154304, Note_on_c, 10, 54, 0
17, 154320, Note_on_c, 10, 55, 84
17, 154544, Note_on_c, 10, 55, 0
17, 154560, Note_on_c, 10, 48, 84
17, 154799, Note_on_c, 10, 48, 0
17, 156480, Control_c, 10, 11, 127
17, 157440, Note_on_c, 10, 41, 84
17, 159344, Note_on_c, 10, 41, 0
17, 159360, Note_on_c, 10, 43, 84
17, 159599, Note_on_c, 10, 43, 0
17, 160320, Note_on_c, 10, 43, 84
17, 160559, Note_on_c, 10, 43, 0
17, 161280, Note_on_c, 10, 43, 84
17, 161519, Note_on_c, 10, 43, 0
17, 161760, Note_on_c, 10, 43, 84
17, 161999, Note_on_c, 10, 43, 0
17, 162240, Note_on_c, 10, 43, 84
17, 162464, Note_on_c, 10, 43, 0
17, 162480, Note_on_c, 10, 43, 84
17, 163184, Note_on_c, 10, 43, 0
17, 163200, Note_on_c, 10, 52, 84
17, 167024, Note_on_c, 10, 52, 0
17, 167040, Note_on_c, 10, 45, 84
17, 167279, Note_on_c, 10, 45, 0
17, 190080, Note_on_c, 10, 56, 76
17, 191759, Note_on_c, 10, 56, 0
17, 192960, Note_on_c, 10, 41, 76
17, 194639, Note_on_c, 10, 41, 0
17, 195840, Note_on_c, 10, 48, 76
17, 197999, Note_on_c, 10, 48, 0
17, 198720, Note_on_c, 10, 48, 80
17, 198959, Note_on_c, 10, 48, 0
17, 199680, Note_on_c, 10, 51, 80
17, 199919, Note_on_c, 10, 51, 0
17, 200640, Note_on_c, 10, 51, 80
17, 200879, Note_on_c, 10, 51, 0
17, 201600, Note_on_c, 10, 55, 80
17, 201839, Note_on_c, 10, 55, 0
17, 202560, Note_on_c, 10, 55, 80
17, 202799, Note_on_c, 10, 55, 0
17, 203520, Note_on_c, 10, 58, 80
17, 203759, Note_on_c, 10, 58, 0
17, 204480, Note_on_c, 10, 58, 80
17, 204719, Note_on_c, 10, 58, 0
17, 207360, Note_on_c, 10, 43, 84
17, 207599, Note_on_c, 10, 43, 0
17, 209280, Note_on_c, 10, 55, 84
17, 209519, Note_on_c, 10, 55, 0
17, 211200, Note_on_c, 10, 55, 84
17, 211439, Note_on_c, 10, 55, 0
17, 213120, Note_on_c, 10, 55, 84
17, 213359, Note_on_c, 10, 55, 0
17, 215040, Note_on_c, 10, 55, 84
17, 215279, Note_on_c, 10, 55, 0
17, 216960, Note_on_c, 10, 43, 84
17, 218864, Note_on_c, 10, 43, 0
17, 218880, Note_on_c, 10, 43, 84
17, 219479, Note_on_c, 10, 43, 0
17, 219840, Note_on_c, 10, 43, 84
17, 220439, Note_on_c, 10, 43, 0
17, 220800, Note_on_c, 10, 43, 84
17, 221039, Note_on_c, 10, 43, 0
17, 221280, Note_on_c, 10, 43, 84
17, 221519, Note_on_c, 10, 43, 0
17, 221760, Note_on_c, 10, 43, 84
17, 221999, Note_on_c, 10, 43, 0
17, 222240, Note_on_c, 10, 43, 84
17, 222479, Note_on_c, 10, 43, 0
17, 222720, Note_on_c, 10, 43, 84
17, 222959, Note_on_c, 10, 43, 0
17, 223200, Note_on_c, 10, 43, 84
17, 223439, Note_on_c, 10, 43, 0
17, 223680, Note_on_c, 10, 43, 84
17, 223919, Note_on_c, 10, 43, 0
17, 224160, Note_on_c, 10, 43, 84
17, 224399, Note_on_c, 10, 43, 0
17, 224640, Note_on_c, 10, 43, 84
17, 227504, Note_on_c, 10, 43, 0
17, 227520, Note_on_c, 10, 43, 84
17, 227759, Note_on_c, 10, 43, 0
17, 266400, Note_on_c, 10, 48, 84
17, 266864, Note_on_c, 10, 48, 0
17, 266880, Note_on_c, 10, 48, 84
17, 267344, Note_on_c, 10, 48, 0
17, 267360, Note_on_c, 10, 48, 84
17, 268064, Note_on_c, 10, 48, 0
17, 268080, Note_on_c, 10, 43, 84
17, 268199, Note_on_c, 10, 43, 0
17, 268320, Note_on_c, 10, 48, 84
17, 268439, Note_on_c, 10, 48, 0
17, 268560, Note_on_c, 10, 43, 84
17, 268679, Note_on_c, 10, 43, 0
17, 268800, Note_on_c, 10, 48, 84
17, 268919, Note_on_c, 10, 48, 0
17, 269040, Note_on_c, 10, 43, 84
17, 269159, Note_on_c, 10, 43, 0
17, 269280, Note_on_c, 10, 48, 84
17, 269999, Note_on_c, 10, 48, 0
17, 270240, Note_on_c, 10, 43, 84
17, 270959, Note_on_c, 10, 43, 0
17, 271200, Note_on_c, 10, 48, 84
17, 271919, Note_on_c, 10, 48, 0
17, 272160, Note_on_c, 10, 45, 84
17, 272519, Note_on_c, 10, 45, 0
17, 272640, Note_on_c, 10, 41, 84
17, 272999, Note_on_c, 10, 41, 0
17, 273120, Note_on_c, 10, 52, 84
17, 273599, Note_on_c, 10, 52, 0
17, 273600, Note_on_c, 10, 48, 84
17, 273719, Note_on_c, 10, 48, 0
17, 274080, Note_on_c, 10, 45, 84
17, 274544, Note_on_c, 10, 45, 0
17, 274560, Note_on_c, 10, 41, 84
17, 275024, Note_on_c, 10, 41, 0
17, 275040, Note_on_c, 10, 52, 84
17, 275399, Note_on_c, 10, 52, 0
17, 276000, Note_on_c, 10, 45, 84
17, 276359, Note_on_c, 10, 45, 0
17, 276480, Note_on_c, 10, 41, 84
17, 276839, Note_on_c, 10, 41, 0
17, 276960, Note_on_c, 10, 52, 84
17, 277424, Note_on_c, 10, 52, 0
17, 277440, Note_on_c, 10, 48, 84
17, 277664, Note_on_c, 10, 48, 0
17, 277680, Note_on_c, 10, 48, 84
17, 277904, Note_on_c, 10, 48, 0
17, 277920, Note_on_c, 10, 47, 84
17, 278384, Note_on_c, 10, 47, 0
17, 278400, Note_on_c, 10, 48, 84
17, 278864, Note_on_c, 10, 48, 0
17, 278880, Note_on_c, 10, 43, 84
17, 279104, Note_on_c, 10, 43, 0
17, 279120, Note_on_c, 10, 43, 84
17, 279359, Note_on_c, 10, 43, 0
17, 279600, Note_on_c, 10, 48, 84
17, 279824, Note_on_c, 10, 48, 0
17, 279840, Note_on_c, 10, 47, 84
17, 280304, Note_on_c, 10, 47, 0
17, 280320, Note_on_c, 10, 48, 84
17, 280784, Note_on_c, 10, 48, 0
17, 280800, Note_on_c, 10, 43, 84
17, 281024, Note_on_c, 10, 43, 0
17, 281040, Note_on_c, 10, 43, 84
17, 281279, Note_on_c, 10, 43, 0
17, 281520, Note_on_c, 10, 48, 84
17, 281744, Note_on_c, 10, 48, 0
17, 281760, Note_on_c, 10, 47, 84
17, 281984, Note_on_c, 10, 47, 0
17, 282000, Note_on_c, 10, 43, 84
17, 282224, Note_on_c, 10, 43, 0
17, 282240, Note_on_c, 10, 48, 84
17, 282464, Note_on_c, 10, 48, 0
17, 282480, Note_on_c, 10, 52, 84
17, 282704, Note_on_c, 10, 52, 0
17, 282720, Note_on_c, 10, 43, 84
17, 282959, Note_on_c, 10, 43, 0
17, 283680, Note_on_c, 10, 43, 84
17, 283919, Note_on_c, 10, 43, 0
17, 284640, Note_on_c, 10, 43, 84
17, 284879, Note_on_c, 10, 43, 0
17, 285120, Note_on_c, 10, 43, 84
17, 285359, Note_on_c, 10, 43, 0
17, 285600, Note_on_c, 10, 43, 84
17, 285839, Note_on_c, 10, 43, 0
17, 286080, Note_on_c, 10, 43, 84
17, 286319, Note_on_c, 10, 43, 0
17, 286560, Note_on_c, 10, 43, 84
17, 286799, Note_on_c, 10, 43, 0
17, 292320, Note_on_c, 10, 50, 84
17, 292559, Note_on_c, 10, 50, 0
17, 292800, Note_on_c, 10, 50, 84
17, 293039, Note_on_c, 10, 50, 0
17, 293280, Note_on_c, 10, 50, 84
17, 293519, Note_on_c, 10, 50, 0
17, 293760, Note_on_c, 10, 50, 84
17, 293999, Note_on_c, 10, 50, 0
17, 294240, Note_on_c, 10, 55, 84
17, 294479, Note_on_c, 10, 55, 0
17, 296160, Note_on_c, 10, 55, 84
17, 296399, Note_on_c, 10, 55, 0
17, 296640, Note_on_c, 10, 55, 84
17, 296879, Note_on_c, 10, 55, 0
17, 297120, Note_on_c, 10, 55, 84
17, 297359, Note_on_c, 10, 55, 0
17, 297600, Note_on_c, 10, 55, 84
17, 297839, Note_on_c, 10, 55, 0
17, 298080, Note_on_c, 10, 55, 84
17, 298319, Note_on_c, 10, 55, 0
17, 299040, Note_on_c, 10, 55, 84
17, 299279, Note_on_c, 10, 55, 0
17, 300000, Note_on_c, 10, 57, 84
17, 300239, Note_on_c, 10, 57, 0
17, 300960, Note_on_c, 10, 57, 84
17, 301199, Note_on_c, 10, 57, 0
17, 301920, Note_on_c, 10, 55, 84
17, 302399, Note_on_c, 10, 55, 0
17, 303840, Note_on_c, 10, 55, 84
17, 304319, Note_on_c, 10, 55, 0
17, 305760, Note_on_c, 10, 55, 84
17, 306239, Note_on_c, 10, 55, 0
17, 306720, Note_on_c, 10, 55, 84
17, 307199, Note_on_c, 10, 55, 0
17, 307680, Note_on_c, 10, 55, 84
17, 307919, Note_on_c, 10, 55, 0
17, 309600, Note_on_c, 10, 55, 84
17, 309839, Note_on_c, 10, 55, 0
17, 315360, Note_on_c, 10, 60, 76
17, 315599, Note_on_c, 10, 60, 0
17, 315840, Note_on_c, 10, 60, 76
17, 316079, Note_on_c, 10, 60, 0
17, 316320, Note_on_c, 10, 60, 76
17, 317039, Note_on_c, 10, 60, 0
17, 324000, Note_on_c, 10, 53, 84
17, 325904, Note_on_c, 10, 53, 0
17, 325920, Note_on_c, 10, 53, 84
17, 326159, Note_on_c, 10, 53, 0
17, 337440, Note_on_c, 10, 52, 76
17, 338144, Note_on_c, 10, 52, 0
17, 338160, Note_on_c, 10, 50, 76
17, 338384, Note_on_c, 10, 50, 0
17, 338400, Note_on_c, 10, 48, 76
17, 338624, Note_on_c, 10, 48, 0
17, 338640, Note_on_c, 10, 47, 76
17, 338864, Note_on_c, 10, 47, 0
17, 338880, Note_on_c, 10, 47, 76
17, 339104, Note_on_c, 10, 47, 0
17, 339120, Note_on_c, 10, 47, 76
17, 339344, Note_on_c, 10, 47, 0
17, 339360, Note_on_c, 10, 52, 84
17, 339480, Control_c, 10, 11, 112
17, 340064, Note_on_c, 10, 52, 0
17, 340080, Note_on_c, 10, 50, 84
17, 340304, Note_on_c, 10, 50, 0
17, 340320, Note_on_c, 10, 48, 84
17, 340544, Note_on_c, 10, 48, 0
17, 340560, Note_on_c, 10, 47, 84
17, 340784, Note_on_c, 10, 47, 0
17, 340800, Note_on_c, 10, 47, 84
17, 341024, Note_on_c, 10, 47, 0
17, 341040, Note_on_c, 10, 47, 84
17, 341264, Note_on_c, 10, 47, 0
17, 341278, Control_c, 10, 11, 127
17, 341280, Note_on_c, 10, 47, 84
17, 341400, Control_c, 10, 11, 112
17, 341984, Note_on_c, 10, 47, 0
17, 342000, Note_on_c, 10, 48, 84
17, 342224, Note_on_c, 10, 48, 0
17, 342238, Control_c, 10, 11, 127
17, 342240, Note_on_c, 10, 53, 76
17, 342464, Note_on_c, 10, 53, 0
17, 342480, Note_on_c, 10, 52, 80
17, 342704, Note_on_c, 10, 52, 0
17, 342720, Note_on_c, 10, 52, 80
17, 342944, Note_on_c, 10, 52, 0
17, 342960, Note_on_c, 10, 52, 80
17, 343184, Note_on_c, 10, 52, 0
17, 343200, Note_on_c, 10, 52, 80
17, 343424, Note_on_c, 10, 52, 0
17, 343440, Note_on_c, 10, 52, 80
17, 343664, Note_on_c, 10, 52, 0
17, 343680, Note_on_c, 10, 52, 80
17, 343904, Note_on_c, 10, 52, 0
17, 343920, Note_on_c, 10, 52, 80
17, 344144, Note_on_c, 10, 52, 0
17, 344160, Note_on_c, 10, 52, 80
17, 344384, Note_on_c, 10, 52, 0
17, 344400, Note_on_c, 10, 52, 80
17, 344624, Note_on_c, 10, 52, 0
17, 344640, Note_on_c, 10, 52, 80
17, 344864, Note_on_c, 10, 52, 0
17, 344880, Note_on_c, 10, 52, 80
17, 345104, Note_on_c, 10, 52, 0
17, 345120, Note_on_c, 10, 53, 84
17, 346064, Note_on_c, 10, 53, 0
17, 346080, Note_on_c, 10, 53, 84
17, 347024, Note_on_c, 10, 53, 0
17, 347040, Note_on_c, 10, 53, 84
17, 347984, Note_on_c, 10, 53, 0
17, 348000, Note_on_c, 10, 54, 84
17, 349904, Note_on_c, 10, 54, 0
17, 349920, Note_on_c, 10, 55, 92
17, 350040, Control_c, 10, 11, 112
17, 350639, Note_on_c, 10, 55, 0
17, 354720, Control_c, 10, 11, 127
17, 355680, Note_on_c, 10, 55, 76
17, 355919, Note_on_c, 10, 55, 0
17, 357600, Note_on_c, 10, 55, 76
17, 357839, Note_on_c, 10, 55, 0
17, 358320, Note_on_c, 10, 48, 80
17, 358544, Note_on_c, 10, 48, 0
17, 358560, Note_on_c, 10, 43, 80
17, 359024, Note_on_c, 10, 43, 0
17, 359040, Note_on_c, 10, 48, 80
17, 359504, Note_on_c, 10, 48, 0
17, 359520, Note_on_c, 10, 50, 80
17, 360224, Note_on_c, 10, 50, 0
17, 360240, Note_on_c, 10, 50, 80
17, 360464, Note_on_c, 10, 50, 0
17, 360480, Note_on_c, 10, 49, 80
17, 360944, Note_on_c, 10, 49, 0
17, 360960, Note_on_c, 10, 50, 80
17, 361424, Note_on_c, 10, 50, 0
17, 361440, Note_on_c, 10, 52, 84
17, 363344, Note_on_c, 10, 52, 0
17, 363360, Note_on_c, 10, 53, 84
17, 364304, Note_on_c, 10, 53, 0
17, 364320, Note_on_c, 10, 53, 84
17, 365264, Note_on_c, 10, 53, 0
17, 365280, Note_on_c, 10, 53, 84
17, 365744, Note_on_c, 10, 53, 0
17, 365760, Note_on_c, 10, 53, 84
17, 366224, Note_on_c, 10, 53, 0
17, 366240, Note_on_c, 10, 53, 84
17, 366704, Note_on_c, 10, 53, 0
17, 366720, Note_on_c, 10, 53, 84
17, 367184, Note_on_c, 10, 53, 0
17, 367200, Note_on_c, 10, 43, 84
17, 367379, Note_on_c, 10, 43, 0
17, 368160, Note_on_c, 10, 43, 84
17, 368339, Note_on_c, 10, 43, 0
17, 369120, Note_on_c, 10, 48, 84
17, 369299, Note_on_c, 10, 48, 0
17, 370080, Note_on_c, 10, 43, 84
17, 370259, Note_on_c, 10, 43, 0
17, 371040, Note_on_c, 10, 48, 84
17, 371219, Note_on_c, 10, 48, 0
17, 372000, Note_on_c, 10, 43, 84
17, 372179, Note_on_c, 10, 43, 0
17, 383520, Note_on_c, 10, 53, 76
17, 383759, Note_on_c, 10, 53, 0
17, 384480, Note_on_c, 10, 57, 76
17, 384719, Note_on_c, 10, 57, 0
17, 385440, Note_on_c, 10, 54, 76
17, 385679, Note_on_c, 10, 54, 0
17, 386400, Note_on_c, 10, 56, 76
17, 386639, Note_on_c, 10, 56, 0
17, 387120, Note_on_c, 10, 57, 76
17, 387299, Note_on_c, 10, 57, 0
17, 387360, Note_on_c, 10, 59, 76
17, 387599, Note_on_c, 10, 59, 0
17, 399840, Note_on_c, 10, 53, 76
17, 400079, Note_on_c, 10, 53, 0
17, 400800, Note_on_c, 10, 57, 76
17, 401039, Note_on_c, 10, 57, 0
17, 401760, Note_on_c, 10, 54, 76
17, 401999, Note_on_c, 10, 54, 0
17, 402720, Note_on_c, 10, 56, 76
17, 402959, Note_on_c, 10, 56, 0
17, 420960, Note_on_c, 10, 58, 76
17, 421419, Note_on_c, 10, 58, 0
17, 421440, Note_on_c, 10, 56, 76
17, 421899, Note_on_c, 10, 56, 0
17, 421920, Note_on_c, 10, 55, 76
17, 422379, Note_on_c, 10, 55, 0
17, 422400, Note_on_c, 10, 43, 76
17, 422859, Note_on_c, 10, 43, 0
17, 422880, Note_on_c, 10, 48, 84
17, 422999, Note_on_c, 10, 48, 0
17, 432960, Note_on_c, 10, 43, 84
17, 433079, Note_on_c, 10, 43, 0
17, 433440, Note_on_c, 10, 48, 84
17, 433559, Note_on_c, 10, 48, 0
17, 433920, Note_on_c, 10, 43, 84
17, 434039, Note_on_c, 10, 43, 0
17, 434400, Note_on_c, 10, 48, 84
17, 434519, Note_on_c, 10, 48, 0
17, 434880, Note_on_c, 10, 43, 84
17, 434999, Note_on_c, 10, 43, 0
17, 435360, Note_on_c, 10, 60, 84
17, 436299, Note_on_c, 10, 60, 0
17, 436320, Note_on_c, 10, 60, 84
17, 437259, Note_on_c, 10, 60, 0
17, 437280, Note_on_c, 10, 60, 84
17, 437399, Note_on_c, 10, 60, 0
17, 438240, Note_on_c, 10, 48, 84
17, 438359, Note_on_c, 10, 48, 0
17, 439200, Note_on_c, 10, 48, 84
17, 439319, Note_on_c, 10, 48, 0
17, 439680, Note_on_c, 10, 48, 84
17, 439799, Note_on_c, 10, 48, 0
17, 440160, Note_on_c, 10, 48, 84
17, 440279, Note_on_c, 10, 48, 0
17, 440640, Note_on_c, 10, 48, 84
17, 440759, Note_on_c, 10, 48, 0
17, 441120, Note_on_c, 10, 60, 84
17, 442059, Note_on_c, 10, 60, 0
17, 442080, Note_on_c, 10, 60, 84
17, 443019, Note_on_c, 10, 60, 0
17, 443040, Note_on_c, 10, 60, 84
17, 443159, Note_on_c, 10, 60, 0
17, 444000, Note_on_c, 10, 48, 84
17, 444119, Note_on_c, 10, 48, 0
17, 444960, Note_on_c, 10, 48, 84
17, 445079, Note_on_c, 10, 48, 0
17, 445920, Note_on_c, 10, 48, 84
17, 446039, Note_on_c, 10, 48, 0
17, 446400, Note_on_c, 10, 48, 84
17, 446519, Note_on_c, 10, 48, 0
17, 446880, Note_on_c, 10, 48, 84
17, 446999, Note_on_c, 10, 48, 0
17, 447840, Note_on_c, 10, 48, 84
17, 447959, Note_on_c, 10, 48, 0
17, 448800, Note_on_c, 10, 48, 84
17, 448919, Note_on_c, 10, 48, 0
17, 448919, End_track
18, 0, Start_track
18, 0, Title_t, "Violin I"
18, 0, MIDI_port, 0
18, 0, Program_c, 11, 48
18, 0, Control_c, 11, 7, 96
18, 0, Control_c, 11, 10, 48
18, 0, Control_c, 11, 11, 127
18, 0, Note_on_c, 11, 88, 84
18, 0, Note_on_c, 11, 76, 84
18, 239, Note_on_c, 11, 88, 0
18, 239, Note_on_c, 11, 76, 0
18, 480, Note_on_c, 11, 64, 84
18, 480, Note_on_c, 11, 76, 84
18, 480, Note_on_c, 11, 72, 84
18, 480, Note_on_c, 11, 55, 84
18, 719, Note_on_c, 11, 64, 0
18, 719, Note_on_c, 11, 76, 0
18, 719, Note_on_c, 11, 72, 0
18, 719, Note_on_c, 11, 55, 0
18, 960, Note_on_c, 11, 79, 84
18, 960, Note_on_c, 11, 72, 84
18, 960, Note_on_c, 11, 55, 84
18, 960, Note_on_c, 11, 64, 84
18, 1199, Note_on_c, 11, 72, 0
18, 1199, Note_on_c, 11, 55, 0
18, 1199, Note_on_c, 11, 64, 0
18, 1664, Note_on_c, 11, 79, 0
18, 1680, Note_on_c, 11, 77, 84
18, 1680, Note_on_c, 11, 71, 84
18, 1680, Note_on_c, 11, 62, 84
18, 1680, Note_on_c, 11, 55, 84
18, 1799, Note_on_c, 11, 77, 0
18, 1799, Note_on_c, 11, 71, 0
18, 1799, Note_on_c, 11, 62, 0
18, 1799, Note_on_c, 11, 55, 0
18, 1920, Note_on_c, 11, 76, 84
18, 1920, Note_on_c, 11, 72, 84
18, 1920, Note_on_c, 11, 64, 84
18, 1920, Note_on_c, 11, 55, 84
18, 2039, Note_on_c, 11, 76, 0
18, 2039, Note_on_c, 11, 72, 0
18, 2039, Note_on_c, 11, 64, 0
18, 2039, Note_on_c, 11, 55, 0
18, 2160, Note_on_c, 11, 74, 84
18, 2160, Note_on_c, 11, 65, 84
18, 2160, Note_on_c, 11, 55, 84
18, 2279, Note_on_c, 11, 74, 0
18, 2279, Note_on_c, 11, 65, 0
18, 2279, Note_on_c, 11, 55, 0
18, 2400, Note_on_c, 11, 55, 84
18, 2400, Note_on_c, 11, 72, 84
18, 2400, Note_on_c, 11, 64, 84
18, 2519, Note_on_c, 11, 55, 0
18, 2519, Note_on_c, 11, 72, 0
18, 2519, Note_on_c, 11, 64, 0
18, 2640, Note_on_c, 11, 65, 84
18, 2640, Note_on_c, 11, 74, 84
18, 2640, Note_on_c, 11, 55, 84
18, 2759, Note_on_c, 11, 65, 0
18, 2759, Note_on_c, 11, 74, 0
18, 2759, Note_on_c, 11, 55, 0
18, 2880, Note_on_c, 11, 72, 84
18, 2880, Note_on_c, 11, 64, 84
18, 2880, Note_on_c, 11, 55, 84
18, 3119, Note_on_c, 11, 64, 0
18, 3119, Note_on_c, 11, 55, 0
18, 3584, Note_on_c, 11, 72, 0
18, 3600, Note_on_c, 11, 72, 84
18, 3771, Note_on_c, 11, 72, 0
18, 3780, Note_on_c, 11, 72, 84
18, 3831, Note_on_c, 11, 72, 0
18, 3840, Note_on_c, 11, 74, 84
18, 3840, Note_on_c, 11, 67, 84
18, 3840, Note_on_c, 11, 55, 84
18, 4079, Note_on_c, 11, 67, 0
18, 4079, Note_on_c, 11, 55, 0
18, 4544, Note_on_c, 11, 74, 0
18, 4560, Note_on_c, 11, 74, 84
18, 4731, Note_on_c, 11, 74, 0
18, 4740, Note_on_c, 11, 74, 84
18, 4791, Note_on_c, 11, 74, 0
18, 4800, Note_on_c, 11, 67, 84
18, 4800, Note_on_c, 11, 76, 84
18, 4800, Note_on_c, 11, 60, 84
18, 4800, Note_on_c, 11, 72, 84
18, 5039, Note_on_c, 11, 67, 0
18, 5039, Note_on_c, 11, 60, 0
18, 5039, Note_on_c, 11, 72, 0
18, 5384, Note_on_c, 11, 76, 0
18, 5400, Note_on_c, 11, 72, 84
18, 5489, Note_on_c, 11, 72, 0
18, 5520, Note_on_c, 11, 74, 84
18, 5609, Note_on_c, 11, 74, 0
18, 5640, Note_on_c, 11, 76, 84
18, 5729, Note_on_c, 11, 76, 0
18, 5760, Note_on_c, 11, 77, 84
18, 5849, Note_on_c, 11, 77, 0
18, 5880, Note_on_c, 11, 76, 84
18, 5969, Note_on_c, 11, 76, 0
18, 6000, Note_on_c, 11, 77, 84
18, 6089, Note_on_c, 11, 77, 0
18, 6120, Note_on_c, 11, 79, 84
18, 6209, Note_on_c, 11, 79, 0
18, 6240, Note_on_c, 11, 81, 84
18, 6329, Note_on_c, 11, 81, 0
18, 6360, Note_on_c, 11, 79, 84
18, 6449, Note_on_c, 11, 79, 0
18, 6480, Note_on_c, 11, 81, 84
18, 6569, Note_on_c, 11, 81, 0
18, 6600, Note_on_c, 11, 83, 84
18, 6689, Note_on_c, 11, 83, 0
18, 6720, Note_on_c, 11, 84, 84
18, 7304, Note_on_c, 11, 84, 0
18, 7320, Note_on_c, 11, 72, 84
18, 7409, Note_on_c, 11, 72, 0
18, 7440, Note_on_c, 11, 74, 84
18, 7529, Note_on_c, 11, 74, 0
18, 7560, Note_on_c, 11, 76, 84
18, 7649, Note_on_c, 11, 76, 0
18, 7680, Note_on_c, 11, 77, 84
18, 7769, Note_on_c, 11, 77, 0
18, 7800, Note_on_c, 11, 76, 84
18, 7889, Note_on_c, 11, 76, 0
18, 7920, Note_on_c, 11, 77, 84
18, 8009, Note_on_c, 11, 77, 0
18, 8040, Note_on_c, 11, 79, 84
18, 8129, Note_on_c, 11, 79, 0
18, 8160, Note_on_c, 11, 81, 84
18, 8249, Note_on_c, 11, 81, 0
18, 8280, Note_on_c, 11, 79, 84
18, 8369, Note_on_c, 11, 79, 0
18, 8400, Note_on_c, 11, 81, 84
18, 8489, Note_on_c, 11, 81, 0
18, 8520, Note_on_c, 11, 83, 84
18, 8609, Note_on_c, 11, 83, 0
18, 8640, Note_on_c, 11, 84, 84
18, 9224, Note_on_c, 11, 84, 0
18, 9240, Note_on_c, 11, 72, 84
18, 9329, Note_on_c, 11, 72, 0
18, 9360, Note_on_c, 11, 74, 84
18, 9449, Note_on_c, 11, 74, 0
18, 9480, Note_on_c, 11, 76, 84
18, 9547, Note_on_c, 11, 76, 0
18, 9560, Note_on_c, 11, 79, 84
18, 9599, Note_on_c, 11, 79, 0
18, 9600, Note_on_c, 11, 77, 84
18, 9689, Note_on_c, 11, 77, 0
18, 9720, Note_on_c, 11, 76, 84
18, 9809, Note_on_c, 11, 76, 0
18, 9840, Note_on_c, 11, 77, 84
18, 9929, Note_on_c, 11, 77, 0
18, 9960, Note_on_c, 11, 79, 84
18, 10027, Note_on_c, 11, 79, 0
18, 10040, Note_on_c, 11, 83, 84
18, 10079, Note_on_c, 11, 83, 0
18, 10080, Note_on_c, 11, 81, 84
18, 10169, Note_on_c, 11, 81, 0
18, 10200, Note_on_c, 11, 79, 84
18, 10289, Note_on_c, 11, 79, 0
18, 10320, Note_on_c, 11, 81, 84
18, 10409, Note_on_c, 11, 81, 0
18, 10440, Note_on_c, 11, 83, 84
18, 10507, Note_on_c, 11, 83, 0
18, 10520, Note_on_c, 11, 86, 84
18, 10559, Note_on_c, 11, 86, 0
18, 10560, Note_on_c, 11, 84, 84
18, 10649, Note_on_c, 11, 84, 0
18, 10680, Note_on_c, 11, 83, 84
18, 10769, Note_on_c, 11, 83, 0
18, 10800, Note_on_c, 11, 84, 84
18, 10889, Note_on_c, 11, 84, 0
18, 10920, Note_on_c, 11, 86, 84
18, 11009, Note_on_c, 11, 86, 0
18, 11040, Note_on_c, 11, 88, 84
18, 11264, Note_on_c, 11, 88, 0
18, 11280, Note_on_c, 11, 79, 84
18, 11399, Note_on_c, 11, 79, 0
18, 11460, Note_on_c, 11, 88, 84
18, 11511, Note_on_c, 11, 88, 0
18, 11520, Note_on_c, 11, 88, 84
18, 11639, Note_on_c, 11, 88, 0
18, 11640, Note_on_c, 11, 86, 84
18, 11744, Note_on_c, 11, 86, 0
18, 11760, Note_on_c, 11, 77, 84
18, 11879, Note_on_c, 11, 77, 0
18, 11940, Note_on_c, 11, 86, 84
18, 11991, Note_on_c, 11, 86, 0
18, 12000, Note_on_c, 11, 86, 84
18, 12119, Note_on_c, 11, 86, 0
18, 12120, Note_on_c, 11, 84, 84
18, 12224, Note_on_c, 11, 84, 0
18, 12240, Note_on_c, 11, 76, 84
18, 12359, Note_on_c, 11, 76, 0
18, 12420, Note_on_c, 11, 84, 84
18, 12471, Note_on_c, 11, 84, 0
18, 12480, Note_on_c, 11, 84, 84
18, 12599, Note_on_c, 11, 84, 0
18, 12600, Note_on_c, 11, 83, 84
18, 12704, Note_on_c, 11, 83, 0
18, 12720, Note_on_c, 11, 83, 84
18, 13184, Note_on_c, 11, 83, 0
18, 13200, Note_on_c, 11, 84, 84
18, 13319, Note_on_c, 11, 84, 0
18, 13380, Note_on_c, 11, 88, 84
18, 13431, Note_on_c, 11, 88, 0
18, 13440, Note_on_c, 11, 88, 84
18, 13559, Note_on_c, 11, 88, 0
18, 13560, Note_on_c, 11, 86, 84
18, 13664, Note_on_c, 11, 86, 0
18, 13680, Note_on_c, 11, 77, 84
18, 13799, Note_on_c, 11, 77, 0
18, 13860, Note_on_c, 11, 86, 84
18, 13911, Note_on_c, 11, 86, 0
18, 13920, Note_on_c, 11, 86, 84
18, 14039, Note_on_c, 11, 86, 0
18, 14040, Note_on_c, 11, 84, 84
18, 14144, Note_on_c, 11, 84, 0
18, 14160, Note_on_c, 11, 76, 84
18, 14279, Note_on_c, 11, 76, 0
18, 14340, Note_on_c, 11, 84, 84
18, 14391, Note_on_c, 11, 84, 0
18, 14400, Note_on_c, 11, 84, 84
18, 14519, Note_on_c, 11, 84, 0
18, 14520, Note_on_c, 11, 83, 84
18, 14624, Note_on_c, 11, 83, 0
18, 14640, Note_on_c, 11, 83, 84
18, 15104, Note_on_c, 11, 83, 0
18, 15120, Note_on_c, 11, 84, 84
18, 15209, Note_on_c, 11, 84, 0
18, 15300, Note_on_c, 11, 88, 84
18, 15344, Note_on_c, 11, 88, 0
18, 15360, Note_on_c, 11, 88, 84
18, 15449, Note_on_c, 11, 88, 0
18, 15540, Note_on_c, 11, 86, 84
18, 15584, Note_on_c, 11, 86, 0
18, 15600, Note_on_c, 11, 77, 84
18, 15689, Note_on_c, 11, 77, 0
18, 15780, Note_on_c, 11, 86, 84
18, 15824, Note_on_c, 11, 86, 0
18, 15840, Note_on_c, 11, 86, 84
18, 15929, Note_on_c, 11, 86, 0
18, 16020, Note_on_c, 11, 84, 84
18, 16064, Note_on_c, 11, 84, 0
18, 16080, Note_on_c, 11, 76, 84
18, 16169, Note_on_c, 11, 76, 0
18, 16260, Note_on_c, 11, 84, 84
18, 16304, Note_on_c, 11, 84, 0
18, 16320, Note_on_c, 11, 83, 84
18, 16409, Note_on_c, 11, 83, 0
18, 16500, Note_on_c, 11, 74, 84
18, 16551, Note_on_c, 11, 74, 0
18, 16560, Note_on_c, 11, 79, 84
18, 17024, Note_on_c, 11, 79, 0
18, 17040, Note_on_c, 11, 81, 84
18, 17099, Note_on_c, 11, 81, 0
18, 17100, Note_on_c, 11, 79, 84
18, 17159, Note_on_c, 11, 79, 0
18, 17160, Note_on_c, 11, 77, 84
18, 17219, Note_on_c, 11, 77, 0
18, 17220, Note_on_c, 11, 76, 84
18, 17271, Note_on_c, 11, 76, 0
18, 17280, Note_on_c, 11, 74, 84
18, 17399, Note_on_c, 11, 74, 0
18, 17460, Note_on_c, 11, 74, 84
18, 17511, Note_on_c, 11, 74, 0
18, 17520, Note_on_c, 11, 79, 84
18, 17984, Note_on_c, 11, 79, 0
18, 18000, Note_on_c, 11, 81, 84
18, 18059, Note_on_c, 11, 81, 0
18, 18060, Note_on_c, 11, 79, 84
18, 18119, Note_on_c, 11, 79, 0
18, 18120, Note_on_c, 11, 77, 84
18, 18179, Note_on_c, 11, 77, 0
18, 18180, Note_on_c, 11, 76, 84
18, 18231, Note_on_c, 11, 76, 0
18, 18240, Note_on_c, 11, 74, 84
18, 18359, Note_on_c, 11, 74, 0
18, 18420, Note_on_c, 11, 79, 84
18, 18471, Note_on_c, 11, 79, 0
18, 18480, Note_on_c, 11, 81, 84
18, 18539, Note_on_c, 11, 81, 0
18, 18540, Note_on_c, 11, 79, 84
18, 18599, Note_on_c, 11, 79, 0
18, 18600, Note_on_c, 11, 77, 84
18, 18659, Note_on_c, 11, 77, 0
18, 18660, Note_on_c, 11, 76, 84
18, 18711, Note_on_c, 11, 76, 0
18, 18720, Note_on_c, 11, 74, 84
18, 18839, Note_on_c, 11, 74, 0
18, 18900, Note_on_c, 11, 79, 84
18, 18951, Note_on_c, 11, 79, 0
18, 18960, Note_on_c, 11, 81, 84
18, 19019, Note_on_c, 11, 81, 0
18, 19020, Note_on_c, 11, 79, 84
18, 19079, Note_on_c, 11, 79, 0
18, 19080, Note_on_c, 11, 77, 84
18, 19139, Note_on_c, 11, 77, 0
18, 19140, Note_on_c, 11, 76, 84
18, 19191, Note_on_c, 11, 76, 0
18, 19200, Note_on_c, 11, 74, 84
18, 19319, Note_on_c, 11, 74, 0
18, 19380, Note_on_c, 11, 79, 84
18, 19431, Note_on_c, 11, 79, 0
18, 19440, Note_on_c, 11, 81, 84
18, 19499, Note_on_c, 11, 81, 0
18, 19500, Note_on_c, 11, 79, 84
18, 19559, Note_on_c, 11, 79, 0
18, 19560, Note_on_c, 11, 77, 84
18, 19619, Note_on_c, 11, 77, 0
18, 19620, Note_on_c, 11, 76, 84
18, 19671, Note_on_c, 11, 76, 0
18, 19680, Note_on_c, 11, 74, 84
18, 19799, Note_on_c, 11, 74, 0
18, 19860, Note_on_c, 11, 79, 84
18, 19911, Note_on_c, 11, 79, 0
18, 19920, Note_on_c, 11, 81, 84
18, 19979, Note_on_c, 11, 81, 0
18, 19980, Note_on_c, 11, 79, 84
18, 20039, Note_on_c, 11, 79, 0
18, 20040, Note_on_c, 11, 77, 84
18, 20099, Note_on_c, 11, 77, 0
18, 20100, Note_on_c, 11, 76, 84
18, 20151, Note_on_c, 11, 76, 0
18, 20160, Note_on_c, 11, 74, 84
18, 20249, Note_on_c, 11, 74, 0
18, 20280, Note_on_c, 11, 79, 92
18, 20399, Note_on_c, 11, 79, 0
18, 20400, Note_on_c, 11, 77, 84
18, 20504, Note_on_c, 11, 77, 0
18, 20520, Note_on_c, 11, 76, 84
18, 20609, Note_on_c, 11, 76, 0
18, 20640, Note_on_c, 11, 74, 84
18, 20729, Note_on_c, 11, 74, 0
18, 20760, Note_on_c, 11, 76, 92
18, 20879, Note_on_c, 11, 76, 0
18, 20880, Note_on_c, 11, 74, 84
18, 20984, Note_on_c, 11, 74, 0
18, 21000, Note_on_c, 11, 72, 84
18, 21089, Note_on_c, 11, 72, 0
18, 21120, Note_on_c, 11, 71, 84
18, 21209, Note_on_c, 11, 71, 0
18, 21240, Note_on_c, 11, 76, 92
18, 21359, Note_on_c, 11, 76, 0
18, 21360, Note_on_c, 11, 74, 84
18, 21464, Note_on_c, 11, 74, 0
18, 21480, Note_on_c, 11, 72, 84
18, 21569, Note_on_c, 11, 72, 0
18, 21600, Note_on_c, 11, 71, 84
18, 21689, Note_on_c, 11, 71, 0
18, 21720, Note_on_c, 11, 72, 92
18, 21839, Note_on_c, 11, 72, 0
18, 21840, Note_on_c, 11, 71, 84
18, 21944, Note_on_c, 11, 71, 0
18, 21960, Note_on_c, 11, 69, 84
18, 22049, Note_on_c, 11, 69, 0
18, 22080, Note_on_c, 11, 67, 84
18, 22169, Note_on_c, 11, 67, 0
18, 22200, Note_on_c, 11, 72, 92
18, 22319, Note_on_c, 11, 72, 0
18, 22320, Note_on_c, 11, 71, 84
18, 22424, Note_on_c, 11, 71, 0
18, 22440, Note_on_c, 11, 69, 84
18, 22529, Note_on_c, 11, 69, 0
18, 22560, Note_on_c, 11, 67, 84
18, 22649, Note_on_c, 11, 67, 0
18, 22680, Note_on_c, 11, 72, 92
18, 22799, Note_on_c, 11, 72, 0
18, 22800, Note_on_c, 11, 71, 84
18, 22904, Note_on_c, 11, 71, 0
18, 22920, Note_on_c, 11, 69, 84
18, 23009, Note_on_c, 11, 69, 0
18, 23040, Note_on_c, 11, 67, 84
18, 23129, Note_on_c, 11, 67, 0
18, 23160, Note_on_c, 11, 72, 92
18, 23279, Note_on_c, 11, 72, 0
18, 23280, Note_on_c, 11, 71, 84
18, 23384, Note_on_c, 11, 71, 0
18, 23400, Note_on_c, 11, 69, 84
18, 23489, Note_on_c, 11, 69, 0
18, 23520, Note_on_c, 11, 67, 84
18, 23609, Note_on_c, 11, 67, 0
18, 23640, Note_on_c, 11, 65, 84
18, 23729, Note_on_c, 11, 65, 0
18, 23760, Note_on_c, 11, 64, 84
18, 23849, Note_on_c, 11, 64, 0
18, 23880, Note_on_c, 11, 62, 84
18, 23969, Note_on_c, 11, 62, 0
18, 24000, Note_on_c, 11, 60, 84
18, 24239, Note_on_c, 11, 60, 0
18, 25920, Note_on_c, 11, 55, 84
18, 25920, Note_on_c, 11, 62, 84
18, 25920, Note_on_c, 11, 71, 84
18, 26159, Note_on_c, 11, 55, 0
18, 26159, Note_on_c, 11, 62, 0
18, 26159, Note_on_c, 11, 71, 0
18, 26400, Note_on_c, 11, 71, 84
18, 26400, Note_on_c, 11, 55, 84
18, 26400, Note_on_c, 11, 62, 84
18, 26639, Note_on_c, 11, 71, 0
18, 26639, Note_on_c, 11, 55, 0
18, 26639, Note_on_c, 11, 62, 0
18, 26880, Note_on_c, 11, 71, 84
18, 26880, Note_on_c, 11, 62, 84
18, 26880, Note_on_c, 11, 55, 84
18, 27119, Note_on_c, 11, 71, 0
18, 27119, Note_on_c, 11, 62, 0
18, 27119, Note_on_c, 11, 55, 0
18, 27360, Note_on_c, 11, 71, 84
18, 27360, Note_on_c, 11, 62, 84
18, 27360, Note_on_c, 11, 55, 84
18, 27599, Note_on_c, 11, 71, 0
18, 27599, Note_on_c, 11, 62, 0
18, 27599, Note_on_c, 11, 55, 0
18, 27840, Note_on_c, 11, 74, 84
18, 27840, Note_on_c, 11, 55, 84
18, 27840, Note_on_c, 11, 65, 84
18, 28079, Note_on_c, 11, 74, 0
18, 28079, Note_on_c, 11, 55, 0
18, 28079, Note_on_c, 11, 65, 0
18, 29760, Note_on_c, 11, 55, 84
18, 29760, Note_on_c, 11, 64, 84
18, 29760, Note_on_c, 11, 76, 84
18, 29760, Note_on_c, 11, 72, 84
18, 29999, Note_on_c, 11, 55, 0
18, 29999, Note_on_c, 11, 64, 0
18, 29999, Note_on_c, 11, 76, 0
18, 29999, Note_on_c, 11, 72, 0
18, 30240, Note_on_c, 11, 72, 84
18, 30240, Note_on_c, 11, 64, 84
18, 30240, Note_on_c, 11, 76, 84
18, 30240, Note_on_c, 11, 55, 84
18, 30479, Note_on_c, 11, 72, 0
18, 30479, Note_on_c, 11, 64, 0
18, 30479, Note_on_c, 11, 76, 0
18, 30479, Note_on_c, 11, 55, 0
18, 30720, Note_on_c, 11, 76, 84
18, 30720, Note_on_c, 11, 64, 84
18, 30720, Note_on_c, 11, 55, 84
18, 30720, Note_on_c, 11, 72, 84
18, 30959, Note_on_c, 11, 76, 0
18, 30959, Note_on_c, 11, 64, 0
18, 30959, Note_on_c, 11, 55, 0
18, 30959, Note_on_c, 11, 72, 0
18, 31200, Note_on_c, 11, 72, 84
18, 31200, Note_on_c, 11, 76, 84
18, 31200, Note_on_c, 11, 64, 84
18, 31200, Note_on_c, 11, 55, 84
18, 31439, Note_on_c, 11, 72, 0
18, 31439, Note_on_c, 11, 76, 0
18, 31439, Note_on_c, 11, 64, 0
18, 31439, Note_on_c, 11, 55, 0
18, 31680, Note_on_c, 11, 64, 84
18, 31680, Note_on_c, 11, 72, 84
18, 31680, Note_on_c, 11, 76, 84
18, 31919, Note_on_c, 11, 64, 0
18, 31919, Note_on_c, 11, 72, 0
18, 32384, Note_on_c, 11, 76, 0
18, 32400, Note_on_c, 11, 72, 84
18, 32639, Note_on_c, 11, 72, 0
18, 32640, Note_on_c, 11, 76, 84
18, 32879, Note_on_c, 11, 76, 0
18, 32880, Note_on_c, 11, 72, 84
18, 33119, Note_on_c, 11, 72, 0
18, 33120, Note_on_c, 11, 79, 84
18, 33359, Note_on_c, 11, 79, 0
18, 33360, Note_on_c, 11, 78, 84
18, 33539, Note_on_c, 11, 78, 0
18, 33540, Note_on_c, 11, 76, 84
18, 33591, Note_on_c, 11, 76, 0
18, 33600, Note_on_c, 11, 78, 84
18, 34304, Note_on_c, 11, 78, 0
18, 34320, Note_on_c, 11, 72, 84
18, 34559, Note_on_c, 11, 72, 0
18, 34560, Note_on_c, 11, 78, 84
18, 34799, Note_on_c, 11, 78, 0
18, 34800, Note_on_c, 11, 72, 84
18, 35039, Note_on_c, 11, 72, 0
18, 35040, Note_on_c, 11, 81, 84
18, 35279, Note_on_c, 11, 81, 0
18, 35280, Note_on_c, 11, 79, 84
18, 35459, Note_on_c, 11, 79, 0
18, 35460, Note_on_c, 11, 78, 84
18, 35511, Note_on_c, 11, 78, 0
18, 35520, Note_on_c, 11, 79, 84
18, 35759, Note_on_c, 11, 79, 0
18, 35760, Note_on_c, 11, 74, 84
18, 35999, Note_on_c, 11, 74, 0
18, 36000, Note_on_c, 11, 83, 84
18, 36239, Note_on_c, 11, 83, 0
18, 36240, Note_on_c, 11, 81, 84
18, 36419, Note_on_c, 11, 81, 0
18, 36420, Note_on_c, 11, 79, 84
18, 36471, Note_on_c, 11, 79, 0
18, 36480, Note_on_c, 11, 78, 84
18, 36824, Note_on_c, 11, 78, 0
18, 36840, Note_on_c, 11, 74, 84
18, 36944, Note_on_c, 11, 74, 0
18, 36960, Note_on_c, 11, 81, 84
18, 37319, Note_on_c, 11, 81, 0
18, 37320, Note_on_c, 11, 79, 84
18, 37379, Note_on_c, 11, 79, 0
18, 37380, Note_on_c, 11, 78, 84
18, 37431, Note_on_c, 11, 78, 0
18, 37440, Note_on_c, 11, 79, 84
18, 37784, Note_on_c, 11, 79, 0
18, 37800, Note_on_c, 11, 74, 84
18, 37904, Note_on_c, 11, 74, 0
18, 37920, Note_on_c, 11, 83, 84
18, 38279, Note_on_c, 11, 83, 0
18, 38280, Note_on_c, 11, 81, 84
18, 38339, Note_on_c, 11, 81, 0
18, 38340, Note_on_c, 11, 79, 84
18, 38391, Note_on_c, 11, 79, 0
18, 38400, Note_on_c, 11, 86, 84
18, 38984, Note_on_c, 11, 86, 0
18, 39000, Note_on_c, 11, 86, 84
18, 39119, Note_on_c, 11, 86, 0
18, 39120, Note_on_c, 11, 84, 84
18, 39224, Note_on_c, 11, 84, 0
18, 39240, Note_on_c, 11, 83, 84
18, 39329, Note_on_c, 11, 83, 0
18, 39360, Note_on_c, 11, 81, 84
18, 39449, Note_on_c, 11, 81, 0
18, 39480, Note_on_c, 11, 83, 84
18, 39599, Note_on_c, 11, 83, 0
18, 39600, Note_on_c, 11, 81, 84
18, 39704, Note_on_c, 11, 81, 0
18, 39720, Note_on_c, 11, 79, 84
18, 39809, Note_on_c, 11, 79, 0
18, 39840, Note_on_c, 11, 78, 84
18, 39929, Note_on_c, 11, 78, 0
18, 39960, Note_on_c, 11, 74, 84
18, 40079, Note_on_c, 11, 74, 0
18, 40080, Note_on_c, 11, 73, 84
18, 40184, Note_on_c, 11, 73, 0
18, 40200, Note_on_c, 11, 79, 84
18, 40289, Note_on_c, 11, 79, 0
18, 40320, Note_on_c, 11, 78, 84
18, 40439, Note_on_c, 11, 78, 0
18, 40920, Note_on_c, 11, 62, 84
18, 41039, Note_on_c, 11, 62, 0
18, 41040, Note_on_c, 11, 61, 84
18, 41144, Note_on_c, 11, 61, 0
18, 41160, Note_on_c, 11, 67, 84
18, 41249, Note_on_c, 11, 67, 0
18, 41280, Note_on_c, 11, 66, 84
18, 41399, Note_on_c, 11, 66, 0
18, 42000, Note_on_c, 11, 69, 84
18, 42079, Note_on_c, 11, 69, 0
18, 42080, Note_on_c, 11, 71, 84
18, 42159, Note_on_c, 11, 71, 0
18, 42160, Note_on_c, 11, 72, 84
18, 42227, Note_on_c, 11, 72, 0
18, 42240, Note_on_c, 11, 74, 84
18, 42419, Note_on_c, 11, 74, 0
18, 42480, Note_on_c, 11, 71, 84
18, 42559, Note_on_c, 11, 71, 0
18, 42560, Note_on_c, 11, 72, 84
18, 42639, Note_on_c, 11, 72, 0
18, 42640, Note_on_c, 11, 74, 84
18, 42707, Note_on_c, 11, 74, 0
18, 42720, Note_on_c, 11, 76, 84
18, 42899, Note_on_c, 11, 76, 0
18, 42960, Note_on_c, 11, 76, 84
18, 43039, Note_on_c, 11, 76, 0
18, 43040, Note_on_c, 11, 78, 84
18, 43119, Note_on_c, 11, 78, 0
18, 43120, Note_on_c, 11, 79, 84
18, 43187, Note_on_c, 11, 79, 0
18, 43200, Note_on_c, 11, 74, 84
18, 43904, Note_on_c, 11, 74, 0
18, 43920, Note_on_c, 11, 74, 52
18, 43999, Note_on_c, 11, 74, 0
18, 44000, Note_on_c, 11, 72, 52
18, 44079, Note_on_c, 11, 72, 0
18, 44080, Note_on_c, 11, 71, 52
18, 44159, Note_on_c, 11, 71, 0
18, 44160, Note_on_c, 11, 69, 52
18, 44399, Note_on_c, 11, 69, 0
18, 44400, Note_on_c, 11, 72, 52
18, 44479, Note_on_c, 11, 72, 0
18, 44480, Note_on_c, 11, 71, 52
18, 44559, Note_on_c, 11, 71, 0
18, 44560, Note_on_c, 11, 69, 52
18, 44639, Note_on_c, 11, 69, 0
18, 44640, Note_on_c, 11, 67, 52
18, 44879, Note_on_c, 11, 67, 0
18, 44880, Note_on_c, 11, 71, 52
18, 44959, Note_on_c, 11, 71, 0
18, 44960, Note_on_c, 11, 69, 52
18, 45039, Note_on_c, 11, 69, 0
18, 45040, Note_on_c, 11, 67, 52
18, 45107, Note_on_c, 11, 67, 0
18, 45120, Note_on_c, 11, 66, 52
18, 45299, Note_on_c, 11, 66, 0
18, 45358, Control_c, 11, 11, 80
18, 45360, Note_on_c, 11, 66, 76
18, 45360, Control_c, 11, 11, 80
18, 45400, Control_c, 11, 11, 84
18, 45439, Note_on_c, 11, 66, 0
18, 45440, Control_c, 11, 11, 88
18, 45440, Note_on_c, 11, 67, 76
18, 45480, Control_c, 11, 11, 92
18, 45519, Note_on_c, 11, 67, 0
18, 45520, Note_on_c, 11, 69, 76
18, 45520, Control_c, 11, 11, 96
18, 45560, Control_c, 11, 11, 100
18, 45587, Note_on_c, 11, 69, 0
18, 45600, Control_c, 11, 11, 104
18, 45600, Note_on_c, 11, 62, 76
18, 45640, Control_c, 11, 11, 107
18, 45680, Control_c, 11, 11, 111
18, 45720, Control_c, 11, 11, 115
18, 45760, Control_c, 11, 11, 119
18, 45800, Control_c, 11, 11, 127
18, 45824, Note_on_c, 11, 62, 0
18, 45840, Note_on_c, 11, 60, 76
18, 45907, Note_on_c, 11, 60, 0
18, 45920, Note_on_c, 11, 59, 76
18, 45987, Note_on_c, 11, 59, 0
18, 46000, Note_on_c, 11, 57, 76
18, 46067, Note_on_c, 11, 57, 0
18, 46080, Note_on_c, 11, 55, 76
18, 46080, Note_on_c, 11, 79, 76
18, 46080, Note_on_c, 11, 62, 76
18, 46080, Note_on_c, 11, 71, 76
18, 46319, Note_on_c, 11, 55, 0
18, 46319, Note_on_c, 11, 79, 0
18, 46319, Note_on_c, 11, 62, 0
18, 46319, Note_on_c, 11, 71, 0
18, 46560, Note_on_c, 11, 64, 76
18, 46560, Note_on_c, 11, 72, 76
18, 46560, Note_on_c, 11, 79, 76
18, 46560, Note_on_c, 11, 55, 76
18, 46799, Note_on_c, 11, 64, 0
18, 46799, Note_on_c, 11, 72, 0
18, 46799, Note_on_c, 11, 79, 0
18, 46799, Note_on_c, 11, 55, 0
18, 47040, Note_on_c, 11, 79, 76
18, 47040, Note_on_c, 11, 71, 76
18, 47040, Note_on_c, 11, 62, 76
18, 47040, Note_on_c, 11, 55, 76
18, 47264, Note_on_c, 11, 79, 0
18, 47264, Note_on_c, 11, 71, 0
18, 47264, Note_on_c, 11, 62, 0
18, 47264, Note_on_c, 11, 55, 0
18, 47280, Note_on_c, 11, 62, 76
18, 47347, Note_on_c, 11, 62, 0
18, 47360, Note_on_c, 11, 64, 76
18, 47427, Note_on_c, 11, 64, 0
18, 47440, Note_on_c, 11, 66, 76
18, 47507, Note_on_c, 11, 66, 0
18, 47520, Note_on_c, 11, 67, 76
18, 47744, Note_on_c, 11, 67, 0
18, 47760, Note_on_c, 11, 74, 52
18, 47839, Note_on_c, 11, 74, 0
18, 47840, Note_on_c, 11, 72, 52
18, 47919, Note_on_c, 11, 72, 0
18, 47920, Note_on_c, 11, 71, 52
18, 47999, Note_on_c, 11, 71, 0
18, 48000, Note_on_c, 11, 69, 52
18, 48239, Note_on_c, 11, 69, 0
18, 48240, Note_on_c, 11, 72, 52
18, 48319, Note_on_c, 11, 72, 0
18, 48320, Note_on_c, 11, 71, 52
18, 48399, Note_on_c, 11, 71, 0
18, 48400, Note_on_c, 11, 69, 52
18, 48479, Note_on_c, 11, 69, 0
18, 48480, Note_on_c, 11, 67, 52
18, 48719, Note_on_c, 11, 67, 0
18, 48720, Note_on_c, 11, 71, 52
18, 48799, Note_on_c, 11, 71, 0
18, 48800, Note_on_c, 11, 69, 52
18, 48879, Note_on_c, 11, 69, 0
18, 48880, Note_on_c, 11, 67, 52
18, 48959, Note_on_c, 11, 67, 0
18, 48960, Note_on_c, 11, 66, 52
18, 49199, Note_on_c, 11, 66, 0
18, 49680, Note_on_c, 11, 76, 52
18, 49759, Note_on_c, 11, 76, 0
18, 49760, Note_on_c, 11, 74, 52
18, 49839, Note_on_c, 11, 74, 0
18, 49840, Note_on_c, 11, 72, 52
18, 49919, Note_on_c, 11, 72, 0
18, 49920, Note_on_c, 11, 71, 52
18, 50159, Note_on_c, 11, 71, 0
18, 50160, Note_on_c, 11, 74, 52
18, 50239, Note_on_c, 11, 74, 0
18, 50240, Note_on_c, 11, 72, 52
18, 50319, Note_on_c, 11, 72, 0
18, 50320, Note_on_c, 11, 71, 52
18, 50399, Note_on_c, 11, 71, 0
18, 50400, Note_on_c, 11, 69, 52
18, 50639, Note_on_c, 11, 69, 0
18, 50640, Note_on_c, 11, 72, 52
18, 50719, Note_on_c, 11, 72, 0
18, 50720, Note_on_c, 11, 71, 52
18, 50799, Note_on_c, 11, 71, 0
18, 50800, Note_on_c, 11, 69, 52
18, 50879, Note_on_c, 11, 69, 0
18, 50880, Note_on_c, 11, 68, 52
18, 51104, Note_on_c, 11, 68, 0
18, 51120, Note_on_c, 11, 64, 76
18, 51187, Note_on_c, 11, 64, 0
18, 51200, Note_on_c, 11, 66, 76
18, 51267, Note_on_c, 11, 66, 0
18, 51280, Note_on_c, 11, 68, 76
18, 51347, Note_on_c, 11, 68, 0
18, 51360, Note_on_c, 11, 69, 76
18, 51584, Note_on_c, 11, 69, 0
18, 51600, Note_on_c, 11, 79, 44
18, 51679, Note_on_c, 11, 79, 0
18, 51680, Note_on_c, 11, 77, 44
18, 51759, Note_on_c, 11, 77, 0
18, 51760, Note_on_c, 11, 76, 44
18, 51839, Note_on_c, 11, 76, 0
18, 51840, Note_on_c, 11, 74, 44
18, 52079, Note_on_c, 11, 74, 0
18, 52080, Note_on_c, 11, 77, 44
18, 52159, Note_on_c, 11, 77, 0
18, 52160, Note_on_c, 11, 76, 44
18, 52239, Note_on_c, 11, 76, 0
18, 52240, Note_on_c, 11, 74, 44
18, 52319, Note_on_c, 11, 74, 0
18, 52320, Note_on_c, 11, 72, 44
18, 52559, Note_on_c, 11, 72, 0
18, 52560, Note_on_c, 11, 76, 44
18, 52639, Note_on_c, 11, 76, 0
18, 52640, Note_on_c, 11, 74, 44
18, 52719, Note_on_c, 11, 74, 0
18, 52720, Note_on_c, 11, 72, 44
18, 52787, Note_on_c, 11, 72, 0
18, 52800, Note_on_c, 11, 71, 44
18, 52851, Note_on_c, 11, 71, 0
18, 52860, Note_on_c, 11, 74, 45
18, 52911, Note_on_c, 11, 74, 0
18, 52920, Note_on_c, 11, 74, 46
18, 52971, Note_on_c, 11, 74, 0
18, 52980, Note_on_c, 11, 74, 47
18, 53031, Note_on_c, 11, 74, 0
18, 53040, Note_on_c, 11, 74, 49
18, 53091, Note_on_c, 11, 74, 0
18, 53100, Note_on_c, 11, 74, 50
18, 53151, Note_on_c, 11, 74, 0
18, 53160, Note_on_c, 11, 74, 51
18, 53211, Note_on_c, 11, 74, 0
18, 53220, Note_on_c, 11, 74, 52
18, 53271, Note_on_c, 11, 74, 0
18, 53280, Note_on_c, 11, 74, 54
18, 53331, Note_on_c, 11, 74, 0
18, 53340, Note_on_c, 11, 74, 55
18, 53391, Note_on_c, 11, 74, 0
18, 53400, Note_on_c, 11, 74, 56
18, 53451, Note_on_c, 11, 74, 0
18, 53460, Note_on_c, 11, 74, 57
18, 53511, Note_on_c, 11, 74, 0
18, 53520, Note_on_c, 11, 74, 59
18, 53571, Note_on_c, 11, 74, 0
18, 53580, Note_on_c, 11, 74, 60
18, 53631, Note_on_c, 11, 74, 0
18, 53640, Note_on_c, 11, 74, 61
18, 53691, Note_on_c, 11, 74, 0
18, 53700, Note_on_c, 11, 74, 62
18, 53751, Note_on_c, 11, 74, 0
18, 53760, Note_on_c, 11, 75, 64
18, 53811, Note_on_c, 11, 75, 0
18, 53820, Note_on_c, 11, 75, 65
18, 53871, Note_on_c, 11, 75, 0
18, 53880, Note_on_c, 11, 75, 66
18, 53931, Note_on_c, 11, 75, 0
18, 53940, Note_on_c, 11, 75, 67
18, 53991, Note_on_c, 11, 75, 0
18, 54000, Note_on_c, 11, 75, 69
18, 54051, Note_on_c, 11, 75, 0
18, 54060, Note_on_c, 11, 75, 70
18, 54111, Note_on_c, 11, 75, 0
18, 54120, Note_on_c, 11, 75, 71
18, 54171, Note_on_c, 11, 75, 0
18, 54180, Note_on_c, 11, 75, 72
18, 54231, Note_on_c, 11, 75, 0
18, 54240, Note_on_c, 11, 75, 74
18, 54291, Note_on_c, 11, 75, 0
18, 54300, Note_on_c, 11, 75, 75
18, 54351, Note_on_c, 11, 75, 0
18, 54360, Note_on_c, 11, 75, 76
18, 54411, Note_on_c, 11, 75, 0
18, 54420, Note_on_c, 11, 75, 77
18, 54471, Note_on_c, 11, 75, 0
18, 54480, Note_on_c, 11, 75, 79
18, 54531, Note_on_c, 11, 75, 0
18, 54540, Note_on_c, 11, 75, 80
18, 54591, Note_on_c, 11, 75, 0
18, 54600, Note_on_c, 11, 75, 81
18, 54651, Note_on_c, 11, 75, 0
18, 54660, Note_on_c, 11, 75, 82
18, 54711, Note_on_c, 11, 75, 0
18, 54720, Note_on_c, 11, 76, 84
18, 54771, Note_on_c, 11, 76, 0
18, 54780, Note_on_c, 11, 76, 84
18, 54831, Note_on_c, 11, 76, 0
18, 54840, Note_on_c, 11, 76, 84
18, 54891, Note_on_c, 11, 76, 0
18, 54900, Note_on_c, 11, 76, 84
18, 54951, Note_on_c, 11, 76, 0
18, 54960, Note_on_c, 11, 76, 84
18, 55011, Note_on_c, 11, 76, 0
18, 55020, Note_on_c, 11, 76, 84
18, 55071, Note_on_c, 11, 76, 0
18, 55080, Note_on_c, 11, 76, 84
18, 55131, Note_on_c, 11, 76, 0
18, 55140, Note_on_c, 11, 76, 84
18, 55191, Note_on_c, 11, 76, 0
18, 55200, Note_on_c, 11, 76, 84
18, 55251, Note_on_c, 11, 76, 0
18, 55260, Note_on_c, 11, 60, 84
18, 55311, Note_on_c, 11, 60, 0
18, 55320, Note_on_c, 11, 62, 84
18, 55371, Note_on_c, 11, 62, 0
18, 55380, Note_on_c, 11, 64, 84
18, 55431, Note_on_c, 11, 64, 0
18, 55440, Note_on_c, 11, 65, 84
18, 55491, Note_on_c, 11, 65, 0
18, 55500, Note_on_c, 11, 67, 84
18, 55551, Note_on_c, 11, 67, 0
18, 55560, Note_on_c, 11, 69, 84
18, 55611, Note_on_c, 11, 69, 0
18, 55620, Note_on_c, 11, 71, 84
18, 55671, Note_on_c, 11, 71, 0
18, 55680, Note_on_c, 11, 72, 84
18, 55731, Note_on_c, 11, 72, 0
18, 55740, Note_on_c, 11, 64, 84
18, 55791, Note_on_c, 11, 64, 0
18, 55800, Note_on_c, 11, 65, 84
18, 55851, Note_on_c, 11, 65, 0
18, 55860, Note_on_c, 11, 67, 84
18, 55911, Note_on_c, 11, 67, 0
18, 55920, Note_on_c, 11, 69, 84
18, 55971, Note_on_c, 11, 69, 0
18, 55980, Note_on_c, 11, 71, 84
18, 56031, Note_on_c, 11, 71, 0
18, 56040, Note_on_c, 11, 72, 84
18, 56091, Note_on_c, 11, 72, 0
18, 56100, Note_on_c, 11, 74, 84
18, 56151, Note_on_c, 11, 74, 0
18, 56160, Note_on_c, 11, 76, 84
18, 56211, Note_on_c, 11, 76, 0
18, 56220, Note_on_c, 11, 72, 84
18, 56271, Note_on_c, 11, 72, 0
18, 56280, Note_on_c, 11, 74, 84
18, 56331, Note_on_c, 11, 74, 0
18, 56340, Note_on_c, 11, 76, 84
18, 56391, Note_on_c, 11, 76, 0
18, 56400, Note_on_c, 11, 77, 84
18, 56451, Note_on_c, 11, 77, 0
18, 56460, Note_on_c, 11, 79, 84
18, 56511, Note_on_c, 11, 79, 0
18, 56520, Note_on_c, 11, 81, 84
18, 56571, Note_on_c, 11, 81, 0
18, 56580, Note_on_c, 11, 83, 84
18, 56631, Note_on_c, 11, 83, 0
18, 56640, Note_on_c, 11, 84, 84
18, 56691, Note_on_c, 11, 84, 0
18, 56700, Note_on_c, 11, 86, 84
18, 56751, Note_on_c, 11, 86, 0
18, 56760, Note_on_c, 11, 88, 84
18, 56811, Note_on_c, 11, 88, 0
18, 56820, Note_on_c, 11, 89, 84
18, 56871, Note_on_c, 11, 89, 0
18, 56880, Note_on_c, 11, 91, 84
18, 56931, Note_on_c, 11, 91, 0
18, 56940, Note_on_c, 11, 91, 84
18, 56991, Note_on_c, 11, 91, 0
18, 57000, Note_on_c, 11, 91, 84
18, 57051, Note_on_c, 11, 91, 0
18, 57060, Note_on_c, 11, 91, 84
18, 57111, Note_on_c, 11, 91, 0
18, 57120, Note_on_c, 11, 91, 84
18, 57171, Note_on_c, 11, 91, 0
18, 57180, Note_on_c, 11, 91, 84
18, 57231, Note_on_c, 11, 91, 0
18, 57240, Note_on_c, 11, 91, 84
18, 57291, Note_on_c, 11, 91, 0
18, 57300, Note_on_c, 11, 91, 84
18, 57351, Note_on_c, 11, 91, 0
18, 57360, Note_on_c, 11, 91, 84
18, 57411, Note_on_c, 11, 91, 0
18, 57420, Note_on_c, 11, 91, 84
18, 57471, Note_on_c, 11, 91, 0
18, 57480, Note_on_c, 11, 91, 84
18, 57531, Note_on_c, 11, 91, 0
18, 57540, Note_on_c, 11, 91, 84
18, 57591, Note_on_c, 11, 91, 0
18, 57600, Note_on_c, 11, 91, 84
18, 57651, Note_on_c, 11, 91, 0
18, 57660, Note_on_c, 11, 91, 84
18, 57711, Note_on_c, 11, 91, 0
18, 57720, Note_on_c, 11, 90, 84
18, 57771, Note_on_c, 11, 90, 0
18, 57780, Note_on_c, 11, 88, 84
18, 57831, Note_on_c, 11, 88, 0
18, 57840, Note_on_c, 11, 86, 84
18, 57891, Note_on_c, 11, 86, 0
18, 57900, Note_on_c, 11, 84, 84
18, 57951, Note_on_c, 11, 84, 0
18, 57960, Note_on_c, 11, 83, 84
18, 58011, Note_on_c, 11, 83, 0
18, 58020, Note_on_c, 11, 81, 84
18, 58071, Note_on_c, 11, 81, 0
18, 58080, Note_on_c, 11, 79, 84
18, 58131, Note_on_c, 11, 79, 0
18, 58140, Note_on_c, 11, 78, 84
18, 58191, Note_on_c, 11, 78, 0
18, 58200, Note_on_c, 11, 76, 84
18, 58251, Note_on_c, 11, 76, 0
18, 58260, Note_on_c, 11, 74, 84
18, 58311, Note_on_c, 11, 74, 0
18, 58320, Note_on_c, 11, 72, 84
18, 58371, Note_on_c, 11, 72, 0
18, 58380, Note_on_c, 11, 71, 84
18, 58431, Note_on_c, 11, 71, 0
18, 58440, Note_on_c, 11, 69, 84
18, 58491, Note_on_c, 11, 69, 0
18, 58500, Note_on_c, 11, 67, 84
18, 58551, Note_on_c, 11, 67, 0
18, 58560, Note_on_c, 11, 72, 84
18, 58739, Note_on_c, 11, 72, 0
18, 59520, Note_on_c, 11, 66, 84
18, 59520, Note_on_c, 11, 69, 84
18, 59520, Note_on_c, 11, 62, 84
18, 59699, Note_on_c, 11, 66, 0
18, 59699, Note_on_c, 11, 69, 0
18, 59699, Note_on_c, 11, 62, 0
18, 62040, Note_on_c, 11, 74, 52
18, 62099, Note_on_c, 11, 74, 0
18, 62100, Note_on_c, 11, 76, 52
18, 62159, Note_on_c, 11, 76, 0
18, 62160, Note_on_c, 11, 78, 52
18, 62219, Note_on_c, 11, 78, 0
18, 62220, Note_on_c, 11, 79, 52
18, 62279, Note_on_c, 11, 79, 0
18, 62280, Note_on_c, 11, 81, 52
18, 62339, Note_on_c, 11, 81, 0
18, 62340, Note_on_c, 11, 78, 52
18, 62399, Note_on_c, 11, 78, 0
18, 62400, Note_on_c, 11, 79, 52
18, 62639, Note_on_c, 11, 79, 0
18, 63960, Note_on_c, 11, 74, 52
18, 64019, Note_on_c, 11, 74, 0
18, 64020, Note_on_c, 11, 76, 52
18, 64079, Note_on_c, 11, 76, 0
18, 64080, Note_on_c, 11, 78, 52
18, 64139, Note_on_c, 11, 78, 0
18, 64140, Note_on_c, 11, 79, 52
18, 64199, Note_on_c, 11, 79, 0
18, 64200, Note_on_c, 11, 81, 52
18, 64259, Note_on_c, 11, 81, 0
18, 64260, Note_on_c, 11, 83, 52
18, 64319, Note_on_c, 11, 83, 0
18, 64320, Note_on_c, 11, 84, 76
18, 64379, Note_on_c, 11, 84, 0
18, 64380, Note_on_c, 11, 84, 52
18, 64559, Note_on_c, 11, 84, 0
18, 65880, Note_on_c, 11, 80, 52
18, 65939, Note_on_c, 11, 80, 0
18, 65940, Note_on_c, 11, 81, 52
18, 65999, Note_on_c, 11, 81, 0
18, 66000, Note_on_c, 11, 83, 52
18, 66059, Note_on_c, 11, 83, 0
18, 66060, Note_on_c, 11, 84, 52
18, 66119, Note_on_c, 11, 84, 0
18, 66120, Note_on_c, 11, 86, 52
18, 66179, Note_on_c, 11, 86, 0
18, 66180, Note_on_c, 11, 83, 52
18, 66239, Note_on_c, 11, 83, 0
18, 66240, Note_on_c, 11, 88, 52
18, 66479, Note_on_c, 11, 88, 0
18, 66780, Note_on_c, 11, 76, 52
18, 66839, Note_on_c, 11, 76, 0
18, 66840, Note_on_c, 11, 78, 52
18, 66899, Note_on_c, 11, 78, 0
18, 66900, Note_on_c, 11, 80, 52
18, 66959, Note_on_c, 11, 80, 0
18, 66960, Note_on_c, 11, 81, 52
18, 67019, Note_on_c, 11, 81, 0
18, 67020, Note_on_c, 11, 83, 52
18, 67079, Note_on_c, 11, 83, 0
18, 67080, Note_on_c, 11, 84, 52
18, 67139, Note_on_c, 11, 84, 0
18, 67140, Note_on_c, 11, 81, 52
18, 67199, Note_on_c, 11, 81, 0
18, 67200, Note_on_c, 11, 86, 52
18, 67439, Note_on_c, 11, 86, 0
18, 67800, Note_on_c, 11, 69, 52
18, 67859, Note_on_c, 11, 69, 0
18, 67860, Note_on_c, 11, 71, 52
18, 67919, Note_on_c, 11, 71, 0
18, 67920, Note_on_c, 11, 72, 52
18, 67979, Note_on_c, 11, 72, 0
18, 67980, Note_on_c, 11, 74, 52
18, 68039, Note_on_c, 11, 74, 0
18, 68040, Note_on_c, 11, 76, 52
18, 68099, Note_on_c, 11, 76, 0
18, 68100, Note_on_c, 11, 78, 52
18, 68151, Note_on_c, 11, 78, 0
18, 68160, Note_on_c, 11, 79, 76
18, 68211, Note_on_c, 11, 79, 0
18, 68220, Note_on_c, 11, 79, 76
18, 68271, Note_on_c, 11, 79, 0
18, 68280, Note_on_c, 11, 79, 76
18, 68331, Note_on_c, 11, 79, 0
18, 68340, Note_on_c, 11, 79, 76
18, 68391, Note_on_c, 11, 79, 0
18, 68400, Note_on_c, 11, 79, 76
18, 68451, Note_on_c, 11, 79, 0
18, 68460, Note_on_c, 11, 79, 76
18, 68511, Note_on_c, 11, 79, 0
18, 68520, Note_on_c, 11, 79, 76
18, 68571, Note_on_c, 11, 79, 0
18, 68580, Note_on_c, 11, 79, 76
18, 68631, Note_on_c, 11, 79, 0
18, 68640, Note_on_c, 11, 79, 76
18, 68691, Note_on_c, 11, 79, 0
18, 68700, Note_on_c, 11, 79, 76
18, 68751, Note_on_c, 11, 79, 0
18, 68760, Note_on_c, 11, 79, 76
18, 68811, Note_on_c, 11, 79, 0
18, 68820, Note_on_c, 11, 79, 76
18, 68871, Note_on_c, 11, 79, 0
18, 68880, Note_on_c, 11, 78, 76
18, 68931, Note_on_c, 11, 78, 0
18, 68940, Note_on_c, 11, 78, 76
18, 68991, Note_on_c, 11, 78, 0
18, 69000, Note_on_c, 11, 78, 76
18, 69051, Note_on_c, 11, 78, 0
18, 69060, Note_on_c, 11, 78, 76
18, 69111, Note_on_c, 11, 78, 0
18, 69120, Note_on_c, 11, 76, 76
18, 69171, Note_on_c, 11, 76, 0
18, 69180, Note_on_c, 11, 76, 76
18, 69231, Note_on_c, 11, 76, 0
18, 69240, Note_on_c, 11, 76, 76
18, 69291, Note_on_c, 11, 76, 0
18, 69300, Note_on_c, 11, 76, 76
18, 69351, Note_on_c, 11, 76, 0
18, 69360, Note_on_c, 11, 74, 76
18, 69411, Note_on_c, 11, 74, 0
18, 69420, Note_on_c, 11, 74, 76
18, 69471, Note_on_c, 11, 74, 0
18, 69480, Note_on_c, 11, 74, 76
18, 69531, Note_on_c, 11, 74, 0
18, 69540, Note_on_c, 11, 74, 76
18, 69591, Note_on_c, 11, 74, 0
18, 69600, Note_on_c, 11, 74, 76
18, 69651, Note_on_c, 11, 74, 0
18, 69660, Note_on_c, 11, 74, 76
18, 69711, Note_on_c, 11, 74, 0
18, 69720, Note_on_c, 11, 74, 76
18, 69771, Note_on_c, 11, 74, 0
18, 69780, Note_on_c, 11, 74, 76
18, 69831, Note_on_c, 11, 74, 0
18, 69840, Note_on_c, 11, 74, 76
18, 69891, Note_on_c, 11, 74, 0
18, 69900, Note_on_c, 11, 74, 76
18, 69951, Note_on_c, 11, 74, 0
18, 69960, Note_on_c, 11, 74, 76
18, 70011, Note_on_c, 11, 74, 0
18, 70020, Note_on_c, 11, 74, 76
18, 70071, Note_on_c, 11, 74, 0
18, 70080, Note_on_c, 11, 79, 84
18, 70131, Note_on_c, 11, 79, 0
18, 70140, Note_on_c, 11, 79, 76
18, 70191, Note_on_c, 11, 79, 0
18, 70200, Note_on_c, 11, 79, 76
18, 70251, Note_on_c, 11, 79, 0
18, 70260, Note_on_c, 11, 79, 76
18, 70311, Note_on_c, 11, 79, 0
18, 70320, Note_on_c, 11, 79, 76
18, 70371, Note_on_c, 11, 79, 0
18, 70380, Note_on_c, 11, 79, 76
18, 70431, Note_on_c, 11, 79, 0
18, 70440, Note_on_c, 11, 79, 76
18, 70491, Note_on_c, 11, 79, 0
18, 70500, Note_on_c, 11, 79, 76
18, 70551, Note_on_c, 11, 79, 0
18, 70560, Note_on_c, 11, 79, 76
18, 70611, Note_on_c, 11, 79, 0
18, 70620, Note_on_c, 11, 79, 76
18, 70671, Note_on_c, 11, 79, 0
18, 70680, Note_on_c, 11, 79, 76
18, 70731, Note_on_c, 11, 79, 0
18, 70740, Note_on_c, 11, 79, 76
18, 70791, Note_on_c, 11, 79, 0
18, 70800, Note_on_c, 11, 78, 76
18, 70851, Note_on_c, 11, 78, 0
18, 70860, Note_on_c, 11, 78, 76
18, 70911, Note_on_c, 11, 78, 0
18, 70920, Note_on_c, 11, 78, 76
18, 70971, Note_on_c, 11, 78, 0
18, 70980, Note_on_c, 11, 78, 76
18, 71031, Note_on_c, 11, 78, 0
18, 71040, Note_on_c, 11, 76, 76
18, 71091, Note_on_c, 11, 76, 0
18, 71100, Note_on_c, 11, 76, 76
18, 71151, Note_on_c, 11, 76, 0
18, 71160, Note_on_c, 11, 76, 76
18, 71211, Note_on_c, 11, 76, 0
18, 71220, Note_on_c, 11, 76, 76
18, 71271, Note_on_c, 11, 76, 0
18, 71280, Note_on_c, 11, 74, 76
18, 71331, Note_on_c, 11, 74, 0
18, 71340, Note_on_c, 11, 74, 76
18, 71391, Note_on_c, 11, 74, 0
18, 71400, Note_on_c, 11, 74, 76
18, 71451, Note_on_c, 11, 74, 0
18, 71460, Note_on_c, 11, 74, 76
18, 71511, Note_on_c, 11, 74, 0
18, 71520, Note_on_c, 11, 74, 76
18, 71571, Note_on_c, 11, 74, 0
18, 71580, Note_on_c, 11, 74, 76
18, 71631, Note_on_c, 11, 74, 0
18, 71640, Note_on_c, 11, 74, 76
18, 71691, Note_on_c, 11, 74, 0
18, 71700, Note_on_c, 11, 74, 76
18, 71751, Note_on_c, 11, 74, 0
18, 71760, Note_on_c, 11, 74, 76
18, 71811, Note_on_c, 11, 74, 0
18, 71820, Note_on_c, 11, 74, 76
18, 71871, Note_on_c, 11, 74, 0
18, 71880, Note_on_c, 11, 74, 76
18, 71931, Note_on_c, 11, 74, 0
18, 71940, Note_on_c, 11, 74, 76
18, 71991, Note_on_c, 11, 74, 0
18, 72000, Note_on_c, 11, 84, 84
18, 72051, Note_on_c, 11, 84, 0
18, 72060, Note_on_c, 11, 84, 76
18, 72111, Note_on_c, 11, 84, 0
18, 72120, Note_on_c, 11, 84, 76
18, 72171, Note_on_c, 11, 84, 0
18, 72180, Note_on_c, 11, 84, 76
18, 72231, Note_on_c, 11, 84, 0
18, 72240, Note_on_c, 11, 84, 76
18, 72291, Note_on_c, 11, 84, 0
18, 72300, Note_on_c, 11, 84, 76
18, 72351, Note_on_c, 11, 84, 0
18, 72360, Note_on_c, 11, 84, 76
18, 72411, Note_on_c, 11, 84, 0
18, 72420, Note_on_c, 11, 84, 76
18, 72471, Note_on_c, 11, 84, 0
18, 72480, Note_on_c, 11, 84, 76
18, 72531, Note_on_c, 11, 84, 0
18, 72540, Note_on_c, 11, 84, 76
18, 72591, Note_on_c, 11, 84, 0
18, 72600, Note_on_c, 11, 84, 76
18, 72651, Note_on_c, 11, 84, 0
18, 72660, Note_on_c, 11, 84, 76
18, 72711, Note_on_c, 11, 84, 0
18, 72720, Note_on_c, 11, 83, 76
18, 72771, Note_on_c, 11, 83, 0
18, 72780, Note_on_c, 11, 83, 76
18, 72831, Note_on_c, 11, 83, 0
18, 72840, Note_on_c, 11, 83, 76
18, 72891, Note_on_c, 11, 83, 0
18, 72900, Note_on_c, 11, 83, 76
18, 72951, Note_on_c, 11, 83, 0
18, 72960, Note_on_c, 11, 81, 76
18, 73011, Note_on_c, 11, 81, 0
18, 73020, Note_on_c, 11, 81, 76
18, 73071, Note_on_c, 11, 81, 0
18, 73080, Note_on_c, 11, 81, 76
18, 73131, Note_on_c, 11, 81, 0
18, 73140, Note_on_c, 11, 81, 76
18, 73191, Note_on_c, 11, 81, 0
18, 73200, Note_on_c, 11, 80, 80
18, 73251, Note_on_c, 11, 80, 0
18, 73260, Note_on_c, 11, 80, 80
18, 73311, Note_on_c, 11, 80, 0
18, 73320, Note_on_c, 11, 80, 80
18, 73371, Note_on_c, 11, 80, 0
18, 73380, Note_on_c, 11, 80, 80
18, 73431, Note_on_c, 11, 80, 0
18, 73440, Note_on_c, 11, 80, 80
18, 73491, Note_on_c, 11, 80, 0
18, 73500, Note_on_c, 11, 80, 80
18, 73551, Note_on_c, 11, 80, 0
18, 73560, Note_on_c, 11, 80, 80
18, 73611, Note_on_c, 11, 80, 0
18, 73620, Note_on_c, 11, 80, 80
18, 73671, Note_on_c, 11, 80, 0
18, 73680, Note_on_c, 11, 80, 80
18, 73731, Note_on_c, 11, 80, 0
18, 73740, Note_on_c, 11, 80, 80
18, 73791, Note_on_c, 11, 80, 0
18, 73800, Note_on_c, 11, 80, 80
18, 73851, Note_on_c, 11, 80, 0
18, 73860, Note_on_c, 11, 80, 80
18, 73911, Note_on_c, 11, 80, 0
18, 73920, Note_on_c, 11, 80, 80
18, 73971, Note_on_c, 11, 80, 0
18, 73980, Note_on_c, 11, 80, 80
18, 74031, Note_on_c, 11, 80, 0
18, 74040, Note_on_c, 11, 80, 80
18, 74091, Note_on_c, 11, 80, 0
18, 74100, Note_on_c, 11, 80, 80
18, 74151, Note_on_c, 11, 80, 0
18, 74160, Note_on_c, 11, 80, 80
18, 74211, Note_on_c, 11, 80, 0
18, 74220, Note_on_c, 11, 80, 80
18, 74271, Note_on_c, 11, 80, 0
18, 74280, Note_on_c, 11, 80, 80
18, 74331, Note_on_c, 11, 80, 0
18, 74340, Note_on_c, 11, 80, 80
18, 74391, Note_on_c, 11, 80, 0
18, 74400, Note_on_c, 11, 80, 80
18, 74451, Note_on_c, 11, 80, 0
18, 74460, Note_on_c, 11, 80, 80
18, 74511, Note_on_c, 11, 80, 0
18, 74520, Note_on_c, 11, 80, 80
18, 74571, Note_on_c, 11, 80, 0
18, 74580, Note_on_c, 11, 80, 80
18, 74631, Note_on_c, 11, 80, 0
18, 74640, Note_on_c, 11, 80, 80
18, 74691, Note_on_c, 11, 80, 0
18, 74700, Note_on_c, 11, 80, 80
18, 74751, Note_on_c, 11, 80, 0
18, 74760, Note_on_c, 11, 80, 80
18, 74811, Note_on_c, 11, 80, 0
18, 74820, Note_on_c, 11, 80, 80
18, 74871, Note_on_c, 11, 80, 0
18, 74880, Note_on_c, 11, 80, 80
18, 74931, Note_on_c, 11, 80, 0
18, 74940, Note_on_c, 11, 80, 80
18, 74991, Note_on_c, 11, 80, 0
18, 75000, Note_on_c, 11, 80, 80
18, 75051, Note_on_c, 11, 80, 0
18, 75060, Note_on_c, 11, 80, 80
18, 75111, Note_on_c, 11, 80, 0
18, 75120, Note_on_c, 11, 84, 80
18, 75171, Note_on_c, 11, 84, 0
18, 75180, Note_on_c, 11, 84, 80
18, 75231, Note_on_c, 11, 84, 0
18, 75240, Note_on_c, 11, 84, 80
18, 75291, Note_on_c, 11, 84, 0
18, 75300, Note_on_c, 11, 84, 80
18, 75351, Note_on_c, 11, 84, 0
18, 75360, Note_on_c, 11, 84, 80
18, 75411, Note_on_c, 11, 84, 0
18, 75420, Note_on_c, 11, 84, 80
18, 75471, Note_on_c, 11, 84, 0
18, 75480, Note_on_c, 11, 84, 80
18, 75531, Note_on_c, 11, 84, 0
18, 75540, Note_on_c, 11, 84, 80
18, 75591, Note_on_c, 11, 84, 0
18, 75600, Note_on_c, 11, 84, 80
18, 75651, Note_on_c, 11, 84, 0
18, 75660, Note_on_c, 11, 84, 80
18, 75711, Note_on_c, 11, 84, 0
18, 75720, Note_on_c, 11, 84, 80
18, 75771, Note_on_c, 11, 84, 0
18, 75780, Note_on_c, 11, 84, 80
18, 75831, Note_on_c, 11, 84, 0
18, 75840, Note_on_c, 11, 89, 84
18, 76799, Note_on_c, 11, 89, 0
18, 76800, Note_on_c, 11, 89, 84
18, 77744, Note_on_c, 11, 89, 0
18, 77760, Note_on_c, 11, 55, 84
18, 77760, Note_on_c, 11, 71, 84
18, 77760, Note_on_c, 11, 65, 84
18, 77849, Note_on_c, 11, 55, 0
18, 77849, Note_on_c, 11, 71, 0
18, 77849, Note_on_c, 11, 65, 0
18, 77880, Note_on_c, 11, 55, 84
18, 77969, Note_on_c, 11, 55, 0
18, 78000, Note_on_c, 11, 59, 84
18, 78119, Note_on_c, 11, 59, 0
18, 78120, Note_on_c, 11, 55, 84
18, 78224, Note_on_c, 11, 55, 0
18, 78240, Note_on_c, 11, 59, 84
18, 78329, Note_on_c, 11, 59, 0
18, 78360, Note_on_c, 11, 55, 84
18, 78449, Note_on_c, 11, 55, 0
18, 78480, Note_on_c, 11, 62, 84
18, 78599, Note_on_c, 11, 62, 0
18, 78600, Note_on_c, 11, 59, 84
18, 78704, Note_on_c, 11, 59, 0
18, 78720, Note_on_c, 11, 62, 84
18, 78809, Note_on_c, 11, 62, 0
18, 78840, Note_on_c, 11, 59, 84
18, 78929, Note_on_c, 11, 59, 0
18, 78960, Note_on_c, 11, 65, 84
18, 79079, Note_on_c, 11, 65, 0
18, 79080, Note_on_c, 11, 62, 84
18, 79184, Note_on_c, 11, 62, 0
18, 79200, Note_on_c, 11, 65, 84
18, 79289, Note_on_c, 11, 65, 0
18, 79320, Note_on_c, 11, 62, 84
18, 79409, Note_on_c, 11, 62, 0
18, 79440, Note_on_c, 11, 71, 84
18, 79559, Note_on_c, 11, 71, 0
18, 79560, Note_on_c, 11, 65, 84
18, 79664, Note_on_c, 11, 65, 0
18, 79680, Note_on_c, 11, 71, 84
18, 79769, Note_on_c, 11, 71, 0
18, 79800, Note_on_c, 11, 65, 84
18, 79889, Note_on_c, 11, 65, 0
18, 79920, Note_on_c, 11, 74, 84
18, 80009, Note_on_c, 11, 74, 0
18, 80040, Note_on_c, 11, 71, 84
18, 80129, Note_on_c, 11, 71, 0
18, 80160, Note_on_c, 11, 77, 84
18, 80249, Note_on_c, 11, 77, 0
18, 80280, Note_on_c, 11, 74, 84
18, 80369, Note_on_c, 11, 74, 0
18, 80400, Note_on_c, 11, 83, 84
18, 80489, Note_on_c, 11, 83, 0
18, 80520, Note_on_c, 11, 77, 84
18, 80609, Note_on_c, 11, 77, 0
18, 80640, Note_on_c, 11, 86, 84
18, 80729, Note_on_c, 11, 86, 0
18, 80760, Note_on_c, 11, 83, 84
18, 80849, Note_on_c, 11, 83, 0
18, 80880, Note_on_c, 11, 89, 84
18, 81119, Note_on_c, 11, 89, 0
18, 81360, Note_on_c, 11, 71, 84
18, 81360, Note_on_c, 11, 62, 84
18, 81360, Note_on_c, 11, 55, 84
18, 81584, Note_on_c, 11, 71, 0
18, 81584, Note_on_c, 11, 62, 0
18, 81584, Note_on_c, 11, 55, 0
18, 81600, Note_on_c, 11, 72, 84
18, 81600, Note_on_c, 11, 55, 84
18, 81600, Note_on_c, 11, 64, 84
18, 81839, Note_on_c, 11, 72, 0
18, 81839, Note_on_c, 11, 55, 0
18, 81839, Note_on_c, 11, 64, 0
18, 82080, Note_on_c, 11, 64, 84
18, 82080, Note_on_c, 11, 72, 84
18, 82080, Note_on_c, 11, 76, 84
18, 82080, Note_on_c, 11, 55, 84
18, 82319, Note_on_c, 11, 64, 0
18, 82319, Note_on_c, 11, 72, 0
18, 82319, Note_on_c, 11, 76, 0
18, 82319, Note_on_c, 11, 55, 0
18, 82560, Note_on_c, 11, 55, 84
18, 82560, Note_on_c, 11, 72, 84
18, 82560, Note_on_c, 11, 64, 84
18, 82560, Note_on_c, 11, 79, 84
18, 82799, Note_on_c, 11, 55, 0
18, 82799, Note_on_c, 11, 72, 0
18, 82799, Note_on_c, 11, 64, 0
18, 83264, Note_on_c, 11, 79, 0
18, 83280, Note_on_c, 11, 55, 84
18, 83280, Note_on_c, 11, 62, 84
18, 83280, Note_on_c, 11, 71, 84
18, 83280, Note_on_c, 11, 77, 84
18, 83399, Note_on_c, 11, 55, 0
18, 83399, Note_on_c, 11, 62, 0
18, 83399, Note_on_c, 11, 71, 0
18, 83399, Note_on_c, 11, 77, 0
18, 83520, Note_on_c, 11, 72, 84
18, 83520, Note_on_c, 11, 76, 84
18, 83520, Note_on_c, 11, 64, 84
18, 83520, Note_on_c, 11, 55, 84
18, 83639, Note_on_c, 11, 72, 0
18, 83639, Note_on_c, 11, 76, 0
18, 83639, Note_on_c, 11, 64, 0
18, 83639, Note_on_c, 11, 55, 0
18, 83760, Note_on_c, 11, 65, 84
18, 83760, Note_on_c, 11, 55, 84
18, 83760, Note_on_c, 11, 74, 84
18, 83879, Note_on_c, 11, 65, 0
18, 83879, Note_on_c, 11, 55, 0
18, 83879, Note_on_c, 11, 74, 0
18, 84000, Note_on_c, 11, 72, 84
18, 84000, Note_on_c, 11, 64, 84
18, 84000, Note_on_c, 11, 55, 84
18, 84119, Note_on_c, 11, 72, 0
18, 84119, Note_on_c, 11, 64, 0
18, 84119, Note_on_c, 11, 55, 0
18, 84240, Note_on_c, 11, 74, 84
18, 84240, Note_on_c, 11, 65, 84
18, 84240, Note_on_c, 11, 55, 84
18, 84359, Note_on_c, 11, 74, 0
18, 84359, Note_on_c, 11, 65, 0
18, 84359, Note_on_c, 11, 55, 0
18, 84480, Note_on_c, 11, 72, 84
18, 84480, Note_on_c, 11, 64, 84
18, 84480, Note_on_c, 11, 55, 84
18, 84719, Note_on_c, 11, 64, 0
18, 84719, Note_on_c, 11, 55, 0
18, 85184, Note_on_c, 11, 72, 0
18, 85200, Note_on_c, 11, 72, 84
18, 85371, Note_on_c, 11, 72, 0
18, 85380, Note_on_c, 11, 72, 84
18, 85431, Note_on_c, 11, 72, 0
18, 85440, Note_on_c, 11, 55, 84
18, 85440, Note_on_c, 11, 67, 84
18, 85440, Note_on_c, 11, 74, 84
18, 85679, Note_on_c, 11, 55, 0
18, 85679, Note_on_c, 11, 67, 0
18, 86144, Note_on_c, 11, 74, 0
18, 86160, Note_on_c, 11, 74, 84
18, 86331, Note_on_c, 11, 74, 0
18, 86340, Note_on_c, 11, 74, 84
18, 86391, Note_on_c, 11, 74, 0
18, 86400, Note_on_c, 11, 76, 84
18, 86400, Note_on_c, 11, 72, 84
18, 86400, Note_on_c, 11, 60, 84
18, 86400, Note_on_c, 11, 67, 84
18, 86639, Note_on_c, 11, 72, 0
18, 86639, Note_on_c, 11, 60, 0
18, 86639, Note_on_c, 11, 67, 0
18, 86984, Note_on_c, 11, 76, 0
18, 87000, Note_on_c, 11, 72, 84
18, 87089, Note_on_c, 11, 72, 0
18, 87120, Note_on_c, 11, 74, 84
18, 87209, Note_on_c, 11, 74, 0
18, 87240, Note_on_c, 11, 76, 84
18, 87329, Note_on_c, 11, 76, 0
18, 87360, Note_on_c, 11, 77, 84
18, 87449, Note_on_c, 11, 77, 0
18, 87480, Note_on_c, 11, 76, 84
18, 87569, Note_on_c, 11, 76, 0
18, 87600, Note_on_c, 11, 77, 84
18, 87689, Note_on_c, 11, 77, 0
18, 87720, Note_on_c, 11, 79, 84
18, 87809, Note_on_c, 11, 79, 0
18, 87840, Note_on_c, 11, 81, 84
18, 87929, Note_on_c, 11, 81, 0
18, 87960, Note_on_c, 11, 79, 84
18, 88049, Note_on_c, 11, 79, 0
18, 88080, Note_on_c, 11, 81, 84
18, 88169, Note_on_c, 11, 81, 0
18, 88200, Note_on_c, 11, 83, 84
18, 88289, Note_on_c, 11, 83, 0
18, 88320, Note_on_c, 11, 84, 84
18, 88904, Note_on_c, 11, 84, 0
18, 88920, Note_on_c, 11, 72, 84
18, 89009, Note_on_c, 11, 72, 0
18, 89040, Note_on_c, 11, 74, 84
18, 89129, Note_on_c, 11, 74, 0
18, 89160, Note_on_c, 11, 76, 84
18, 89249, Note_on_c, 11, 76, 0
18, 89280, Note_on_c, 11, 77, 84
18, 89369, Note_on_c, 11, 77, 0
18, 89400, Note_on_c, 11, 76, 84
18, 89489, Note_on_c, 11, 76, 0
18, 89520, Note_on_c, 11, 77, 84
18, 89609, Note_on_c, 11, 77, 0
18, 89640, Note_on_c, 11, 79, 84
18, 89729, Note_on_c, 11, 79, 0
18, 89760, Note_on_c, 11, 81, 84
18, 89849, Note_on_c, 11, 81, 0
18, 89880, Note_on_c, 11, 79, 84
18, 89969, Note_on_c, 11, 79, 0
18, 90000, Note_on_c, 11, 81, 84
18, 90089, Note_on_c, 11, 81, 0
18, 90120, Note_on_c, 11, 83, 84
18, 90209, Note_on_c, 11, 83, 0
18, 90240, Note_on_c, 11, 84, 84
18, 90824, Note_on_c, 11, 84, 0
18, 90840, Note_on_c, 11, 72, 84
18, 90929, Note_on_c, 11, 72, 0
18, 90960, Note_on_c, 11, 74, 84
18, 91049, Note_on_c, 11, 74, 0
18, 91080, Note_on_c, 11, 76, 84
18, 91147, Note_on_c, 11, 76, 0
18, 91160, Note_on_c, 11, 79, 84
18, 91199, Note_on_c, 11, 79, 0
18, 91200, Note_on_c, 11, 77, 84
18, 91289, Note_on_c, 11, 77, 0
18, 91320, Note_on_c, 11, 76, 84
18, 91409, Note_on_c, 11, 76, 0
18, 91440, Note_on_c, 11, 77, 84
18, 91529, Note_on_c, 11, 77, 0
18, 91560, Note_on_c, 11, 79, 84
18, 91627, Note_on_c, 11, 79, 0
18, 91640, Note_on_c, 11, 83, 84
18, 91679, Note_on_c, 11, 83, 0
18, 91680, Note_on_c, 11, 81, 84
18, 91769, Note_on_c, 11, 81, 0
18, 91800, Note_on_c, 11, 79, 84
18, 91889, Note_on_c, 11, 79, 0
18, 91920, Note_on_c, 11, 81, 84
18, 92009, Note_on_c, 11, 81, 0
18, 92040, Note_on_c, 11, 83, 84
18, 92107, Note_on_c, 11, 83, 0
18, 92120, Note_on_c, 11, 86, 84
18, 92159, Note_on_c, 11, 86, 0
18, 92160, Note_on_c, 11, 84, 84
18, 92249, Note_on_c, 11, 84, 0
18, 92280, Note_on_c, 11, 83, 84
18, 92369, Note_on_c, 11, 83, 0
18, 92400, Note_on_c, 11, 84, 84
18, 92489, Note_on_c, 11, 84, 0
18, 92520, Note_on_c, 11, 86, 84
18, 92609, Note_on_c, 11, 86, 0
18, 92640, Note_on_c, 11, 88, 84
18, 92864, Note_on_c, 11, 88, 0
18, 92880, Note_on_c, 11, 79, 84
18, 92999, Note_on_c, 11, 79, 0
18, 93060, Note_on_c, 11, 88, 84
18, 93111, Note_on_c, 11, 88, 0
18, 93120, Note_on_c, 11, 88, 84
18, 93239, Note_on_c, 11, 88, 0
18, 93240, Note_on_c, 11, 86, 84
18, 93344, Note_on_c, 11, 86, 0
18, 93360, Note_on_c, 11, 77, 84
18, 93479, Note_on_c, 11, 77, 0
18, 93540, Note_on_c, 11, 86, 84
18, 93591, Note_on_c, 11, 86, 0
18, 93600, Note_on_c, 11, 86, 84
18, 93719, Note_on_c, 11, 86, 0
18, 93720, Note_on_c, 11, 84, 84
18, 93824, Note_on_c, 11, 84, 0
18, 93840, Note_on_c, 11, 76, 84
18, 93959, Note_on_c, 11, 76, 0
18, 94020, Note_on_c, 11, 84, 84
18, 94071, Note_on_c, 11, 84, 0
18, 94080, Note_on_c, 11, 84, 84
18, 94199, Note_on_c, 11, 84, 0
18, 94200, Note_on_c, 11, 83, 84
18, 94304, Note_on_c, 11, 83, 0
18, 94320, Note_on_c, 11, 83, 84
18, 94784, Note_on_c, 11, 83, 0
18, 94800, Note_on_c, 11, 84, 84
18, 94919, Note_on_c, 11, 84, 0
18, 94980, Note_on_c, 11, 88, 84
18, 95031, Note_on_c, 11, 88, 0
18, 95040, Note_on_c, 11, 88, 84
18, 95159, Note_on_c, 11, 88, 0
18, 95160, Note_on_c, 11, 86, 84
18, 95264, Note_on_c, 11, 86, 0
18, 95280, Note_on_c, 11, 77, 84
18, 95399, Note_on_c, 11, 77, 0
18, 95460, Note_on_c, 11, 86, 84
18, 95511, Note_on_c, 11, 86, 0
18, 95520, Note_on_c, 11, 86, 84
18, 95639, Note_on_c, 11, 86, 0
18, 95640, Note_on_c, 11, 84, 84
18, 95744, Note_on_c, 11, 84, 0
18, 95760, Note_on_c, 11, 76, 84
18, 95879, Note_on_c, 11, 76, 0
18, 95940, Note_on_c, 11, 84, 84
18, 95991, Note_on_c, 11, 84, 0
18, 96000, Note_on_c, 11, 84, 84
18, 96119, Note_on_c, 11, 84, 0
18, 96120, Note_on_c, 11, 83, 84
18, 96224, Note_on_c, 11, 83, 0
18, 96240, Note_on_c, 11, 83, 84
18, 96704, Note_on_c, 11, 83, 0
18, 96720, Note_on_c, 11, 84, 84
18, 96809, Note_on_c, 11, 84, 0
18, 96900, Note_on_c, 11, 88, 84
18, 96944, Note_on_c, 11, 88, 0
18, 96960, Note_on_c, 11, 88, 84
18, 97049, Note_on_c, 11, 88, 0
18, 97140, Note_on_c, 11, 86, 84
18, 97184, Note_on_c, 11, 86, 0
18, 97200, Note_on_c, 11, 77, 84
18, 97289, Note_on_c, 11, 77, 0
18, 97380, Note_on_c, 11, 86, 84
18, 97424, Note_on_c, 11, 86, 0
18, 97440, Note_on_c, 11, 86, 84
18, 97529, Note_on_c, 11, 86, 0
18, 97620, Note_on_c, 11, 84, 84
18, 97664, Note_on_c, 11, 84, 0
18, 97680, Note_on_c, 11, 76, 84
18, 97769, Note_on_c, 11, 76, 0
18, 97860, Note_on_c, 11, 84, 84
18, 97904, Note_on_c, 11, 84, 0
18, 97920, Note_on_c, 11, 83, 84
18, 98009, Note_on_c, 11, 83, 0
18, 98100, Note_on_c, 11, 74, 84
18, 98151, Note_on_c, 11, 74, 0
18, 98160, Note_on_c, 11, 79, 84
18, 98624, Note_on_c, 11, 79, 0
18, 98640, Note_on_c, 11, 81, 84
18, 98699, Note_on_c, 11, 81, 0
18, 98700, Note_on_c, 11, 79, 84
18, 98759, Note_on_c, 11, 79, 0
18, 98760, Note_on_c, 11, 77, 84
18, 98819, Note_on_c, 11, 77, 0
18, 98820, Note_on_c, 11, 76, 84
18, 98871, Note_on_c, 11, 76, 0
18, 98880, Note_on_c, 11, 74, 84
18, 98999, Note_on_c, 11, 74, 0
18, 99060, Note_on_c, 11, 74, 84
18, 99111, Note_on_c, 11, 74, 0
18, 99120, Note_on_c, 11, 79, 84
18, 99584, Note_on_c, 11, 79, 0
18, 99600, Note_on_c, 11, 81, 84
18, 99659, Note_on_c, 11, 81, 0
18, 99660, Note_on_c, 11, 79, 84
18, 99719, Note_on_c, 11, 79, 0
18, 99720, Note_on_c, 11, 77, 84
18, 99779, Note_on_c, 11, 77, 0
18, 99780, Note_on_c, 11, 76, 84
18, 99831, Note_on_c, 11, 76, 0
18, 99840, Note_on_c, 11, 74, 84
18, 99959, Note_on_c, 11, 74, 0
18, 100020, Note_on_c, 11, 79, 84
18, 100071, Note_on_c, 11, 79, 0
18, 100080, Note_on_c, 11, 81, 84
18, 100139, Note_on_c, 11, 81, 0
18, 100140, Note_on_c, 11, 79, 84
18, 100199, Note_on_c, 11, 79, 0
18, 100200, Note_on_c, 11, 77, 84
18, 100259, Note_on_c, 11, 77, 0
18, 100260, Note_on_c, 11, 76, 84
18, 100311, Note_on_c, 11, 76, 0
18, 100320, Note_on_c, 11, 74, 84
18, 100439, Note_on_c, 11, 74, 0
18, 100500, Note_on_c, 11, 79, 84
18, 100551, Note_on_c, 11, 79, 0
18, 100560, Note_on_c, 11, 81, 84
18, 100619, Note_on_c, 11, 81, 0
18, 100620, Note_on_c, 11, 79, 84
18, 100679, Note_on_c, 11, 79, 0
18, 100680, Note_on_c, 11, 77, 84
18, 100739, Note_on_c, 11, 77, 0
18, 100740, Note_on_c, 11, 76, 84
18, 100791, Note_on_c, 11, 76, 0
18, 100800, Note_on_c, 11, 74, 84
18, 100919, Note_on_c, 11, 74, 0
18, 100980, Note_on_c, 11, 79, 84
18, 101031, Note_on_c, 11, 79, 0
18, 101040, Note_on_c, 11, 81, 84
18, 101099, Note_on_c, 11, 81, 0
18, 101100, Note_on_c, 11, 79, 84
18, 101159, Note_on_c, 11, 79, 0
18, 101160, Note_on_c, 11, 77, 84
18, 101219, Note_on_c, 11, 77, 0
18, 101220, Note_on_c, 11, 76, 84
18, 101271, Note_on_c, 11, 76, 0
18, 101280, Note_on_c, 11, 74, 84
18, 101399, Note_on_c, 11, 74, 0
18, 101460, Note_on_c, 11, 79, 84
18, 101511, Note_on_c, 11, 79, 0
18, 101520, Note_on_c, 11, 81, 84
18, 101579, Note_on_c, 11, 81, 0
18, 101580, Note_on_c, 11, 79, 84
18, 101639, Note_on_c, 11, 79, 0
18, 101640, Note_on_c, 11, 77, 84
18, 101699, Note_on_c, 11, 77, 0
18, 101700, Note_on_c, 11, 76, 84
18, 101751, Note_on_c, 11, 76, 0
18, 101760, Note_on_c, 11, 74, 84
18, 101849, Note_on_c, 11, 74, 0
18, 101880, Note_on_c, 11, 79, 92
18, 101999, Note_on_c, 11, 79, 0
18, 102000, Note_on_c, 11, 77, 84
18, 102104, Note_on_c, 11, 77, 0
18, 102120, Note_on_c, 11, 76, 84
18, 102209, Note_on_c, 11, 76, 0
18, 102240, Note_on_c, 11, 74, 84
18, 102329, Note_on_c, 11, 74, 0
18, 102360, Note_on_c, 11, 76, 92
18, 102479, Note_on_c, 11, 76, 0
18, 102480, Note_on_c, 11, 74, 84
18, 102584, Note_on_c, 11, 74, 0
18, 102600, Note_on_c, 11, 72, 84
18, 102689, Note_on_c, 11, 72, 0
18, 102720, Note_on_c, 11, 71, 84
18, 102809, Note_on_c, 11, 71, 0
18, 102840, Note_on_c, 11, 76, 92
18, 102959, Note_on_c, 11, 76, 0
18, 102960, Note_on_c, 11, 74, 84
18, 103064, Note_on_c, 11, 74, 0
18, 103080, Note_on_c, 11, 72, 84
18, 103169, Note_on_c, 11, 72, 0
18, 103200, Note_on_c, 11, 71, 84
18, 103289, Note_on_c, 11, 71, 0
18, 103320, Note_on_c, 11, 72, 92
18, 103439, Note_on_c, 11, 72, 0
18, 103440, Note_on_c, 11, 71, 84
18, 103544, Note_on_c, 11, 71, 0
18, 103560, Note_on_c, 11, 69, 84
18, 103649, Note_on_c, 11, 69, 0
18, 103680, Note_on_c, 11, 67, 84
18, 103769, Note_on_c, 11, 67, 0
18, 103800, Note_on_c, 11, 72, 92
18, 103919, Note_on_c, 11, 72, 0
18, 103920, Note_on_c, 11, 71, 84
18, 104024, Note_on_c, 11, 71, 0
18, 104040, Note_on_c, 11, 69, 84
18, 104129, Note_on_c, 11, 69, 0
18, 104160, Note_on_c, 11, 67, 84
18, 104249, Note_on_c, 11, 67, 0
18, 104280, Note_on_c, 11, 72, 92
18, 104399, Note_on_c, 11, 72, 0
18, 104400, Note_on_c, 11, 71, 84
18, 104504, Note_on_c, 11, 71, 0
18, 104520, Note_on_c, 11, 69, 84
18, 104609, Note_on_c, 11, 69, 0
18, 104640, Note_on_c, 11, 67, 84
18, 104729, Note_on_c, 11, 67, 0
18, 104760, Note_on_c, 11, 72, 92
18, 104879, Note_on_c, 11, 72, 0
18, 104880, Note_on_c, 11, 71, 84
18, 104984, Note_on_c, 11, 71, 0
18, 105000, Note_on_c, 11, 69, 84
18, 105089, Note_on_c, 11, 69, 0
18, 105120, Note_on_c, 11, 67, 84
18, 105209, Note_on_c, 11, 67, 0
18, 105240, Note_on_c, 11, 65, 84
18, 105329, Note_on_c, 11, 65, 0
18, 105360, Note_on_c, 11, 64, 84
18, 105449, Note_on_c, 11, 64, 0
18, 105480, Note_on_c, 11, 62, 84
18, 105569, Note_on_c, 11, 62, 0
18, 105600, Note_on_c, 11, 60, 84
18, 105839, Note_on_c, 11, 60, 0
18, 107520, Note_on_c, 11, 71, 84
18, 107520, Note_on_c, 11, 55, 84
18, 107520, Note_on_c, 11, 62, 84
18, 107759, Note_on_c, 11, 71, 0
18, 107759, Note_on_c, 11, 55, 0
18, 107759, Note_on_c, 11, 62, 0
18, 108000, Note_on_c, 11, 62, 84
18, 108000, Note_on_c, 11, 55, 84
18, 108000, Note_on_c, 11, 71, 84
18, 108239, Note_on_c, 11, 62, 0
18, 108239, Note_on_c, 11, 55, 0
18, 108239, Note_on_c, 11, 71, 0
18, 108480, Note_on_c, 11, 71, 84
18, 108480, Note_on_c, 11, 55, 84
18, 108480, Note_on_c, 11, 62, 84
18, 108719, Note_on_c, 11, 71, 0
18, 108719, Note_on_c, 11, 55, 0
18, 108719, Note_on_c, 11, 62, 0
18, 108960, Note_on_c, 11, 55, 84
18, 108960, Note_on_c, 11, 71, 84
18, 108960, Note_on_c, 11, 62, 84
18, 109199, Note_on_c, 11, 55, 0
18, 109199, Note_on_c, 11, 71, 0
18, 109199, Note_on_c, 11, 62, 0
18, 109440, Note_on_c, 11, 74, 84
18, 109440, Note_on_c, 11, 65, 84
18, 109440, Note_on_c, 11, 55, 84
18, 109679, Note_on_c, 11, 74, 0
18, 109679, Note_on_c, 11, 65, 0
18, 109679, Note_on_c, 11, 55, 0
18, 111360, Note_on_c, 11, 72, 84
18, 111360, Note_on_c, 11, 64, 84
18, 111360, Note_on_c, 11, 76, 84
18, 111360, Note_on_c, 11, 55, 84
18, 111599, Note_on_c, 11, 72, 0
18, 111599, Note_on_c, 11, 64, 0
18, 111599, Note_on_c, 11, 76, 0
18, 111599, Note_on_c, 11, 55, 0
18, 111840, Note_on_c, 11, 55, 84
18, 111840, Note_on_c, 11, 72, 84
18, 111840, Note_on_c, 11, 76, 84
18, 111840, Note_on_c, 11, 64, 84
18, 112079, Note_on_c, 11, 55, 0
18, 112079, Note_on_c, 11, 72, 0
18, 112079, Note_on_c, 11, 76, 0
18, 112079, Note_on_c, 11, 64, 0
18, 112320, Note_on_c, 11, 64, 84
18, 112320, Note_on_c, 11, 76, 84
18, 112320, Note_on_c, 11, 72, 84
18, 112320, Note_on_c, 11, 55, 84
18, 112559, Note_on_c, 11, 64, 0
18, 112559, Note_on_c, 11, 76, 0
18, 112559, Note_on_c, 11, 72, 0
18, 112559, Note_on_c, 11, 55, 0
18, 112800, Note_on_c, 11, 64, 84
18, 112800, Note_on_c, 11, 55, 84
18, 112800, Note_on_c, 11, 76, 84
18, 112800, Note_on_c, 11, 72, 84
18, 113039, Note_on_c, 11, 64, 0
18, 113039, Note_on_c, 11, 55, 0
18, 113039, Note_on_c, 11, 76, 0
18, 113039, Note_on_c, 11, 72, 0
18, 113280, Note_on_c, 11, 72, 84
18, 113280, Note_on_c, 11, 64, 84
18, 113280, Note_on_c, 11, 76, 84
18, 113519, Note_on_c, 11, 72, 0
18, 113519, Note_on_c, 11, 64, 0
18, 113984, Note_on_c, 11, 76, 0
18, 114000, Note_on_c, 11, 72, 84
18, 114239, Note_on_c, 11, 72, 0
18, 114240, Note_on_c, 11, 76, 84
18, 114479, Note_on_c, 11, 76, 0
18, 114480, Note_on_c, 11, 72, 84
18, 114719, Note_on_c, 11, 72, 0
18, 114720, Note_on_c, 11, 79, 84
18, 114959, Note_on_c, 11, 79, 0
18, 114960, Note_on_c, 11, 78, 84
18, 115139, Note_on_c, 11, 78, 0
18, 115140, Note_on_c, 11, 76, 84
18, 115191, Note_on_c, 11, 76, 0
18, 115200, Note_on_c, 11, 78, 84
18, 115904, Note_on_c, 11, 78, 0
18, 115920, Note_on_c, 11, 72, 84
18, 116159, Note_on_c, 11, 72, 0
18, 116160, Note_on_c, 11, 78, 84
18, 116399, Note_on_c, 11, 78, 0
18, 116400, Note_on_c, 11, 72, 84
18, 116639, Note_on_c, 11, 72, 0
18, 116640, Note_on_c, 11, 81, 84
18, 116879, Note_on_c, 11, 81, 0
18, 116880, Note_on_c, 11, 79, 84
18, 117059, Note_on_c, 11, 79, 0
18, 117060, Note_on_c, 11, 78, 84
18, 117111, Note_on_c, 11, 78, 0
18, 117120, Note_on_c, 11, 79, 84
18, 117359, Note_on_c, 11, 79, 0
18, 117360, Note_on_c, 11, 74, 84
18, 117599, Note_on_c, 11, 74, 0
18, 117600, Note_on_c, 11, 83, 84
18, 117839, Note_on_c, 11, 83, 0
18, 117840, Note_on_c, 11, 81, 84
18, 118019, Note_on_c, 11, 81, 0
18, 118020, Note_on_c, 11, 79, 84
18, 118071, Note_on_c, 11, 79, 0
18, 118080, Note_on_c, 11, 78, 84
18, 118424, Note_on_c, 11, 78, 0
18, 118440, Note_on_c, 11, 74, 84
18, 118544, Note_on_c, 11, 74, 0
18, 118560, Note_on_c, 11, 81, 84
18, 118919, Note_on_c, 11, 81, 0
18, 118920, Note_on_c, 11, 79, 84
18, 118979, Note_on_c, 11, 79, 0
18, 118980, Note_on_c, 11, 78, 84
18, 119031, Note_on_c, 11, 78, 0
18, 119040, Note_on_c, 11, 79, 84
18, 119384, Note_on_c, 11, 79, 0
18, 119400, Note_on_c, 11, 74, 84
18, 119504, Note_on_c, 11, 74, 0
18, 119520, Note_on_c, 11, 83, 84
18, 119879, Note_on_c, 11, 83, 0
18, 119880, Note_on_c, 11, 81, 84
18, 119939, Note_on_c, 11, 81, 0
18, 119940, Note_on_c, 11, 79, 84
18, 119991, Note_on_c, 11, 79, 0
18, 120000, Note_on_c, 11, 86, 84
18, 120584, Note_on_c, 11, 86, 0
18, 120600, Note_on_c, 11, 86, 84
18, 120719, Note_on_c, 11, 86, 0
18, 120720, Note_on_c, 11, 84, 84
18, 120824, Note_on_c, 11, 84, 0
18, 120840, Note_on_c, 11, 83, 84
18, 120929, Note_on_c, 11, 83, 0
18, 120960, Note_on_c, 11, 81, 84
18, 121049, Note_on_c, 11, 81, 0
18, 121080, Note_on_c, 11, 83, 84
18, 121199, Note_on_c, 11, 83, 0
18, 121200, Note_on_c, 11, 81, 84
18, 121304, Note_on_c, 11, 81, 0
18, 121320, Note_on_c, 11, 79, 84
18, 121409, Note_on_c, 11, 79, 0
18, 121440, Note_on_c, 11, 78, 84
18, 121529, Note_on_c, 11, 78, 0
18, 121560, Note_on_c, 11, 74, 84
18, 121679, Note_on_c, 11, 74, 0
18, 121680, Note_on_c, 11, 73, 84
18, 121784, Note_on_c, 11, 73, 0
18, 121800, Note_on_c, 11, 79, 84
18, 121889, Note_on_c, 11, 79, 0
18, 121920, Note_on_c, 11, 78, 84
18, 122039, Note_on_c, 11, 78, 0
18, 122520, Note_on_c, 11, 62, 84
18, 122639, Note_on_c, 11, 62, 0
18, 122640, Note_on_c, 11, 61, 84
18, 122744, Note_on_c, 11, 61, 0
18, 122760, Note_on_c, 11, 67, 84
18, 122849, Note_on_c, 11, 67, 0
18, 122880, Note_on_c, 11, 66, 84
18, 122999, Note_on_c, 11, 66, 0
18, 123600, Note_on_c, 11, 69, 84
18, 123679, Note_on_c, 11, 69, 0
18, 123680, Note_on_c, 11, 71, 84
18, 123759, Note_on_c, 11, 71, 0
18, 123760, Note_on_c, 11, 72, 84
18, 123827, Note_on_c, 11, 72, 0
18, 123840, Note_on_c, 11, 74, 84
18, 124019, Note_on_c, 11, 74, 0
18, 124080, Note_on_c, 11, 71, 84
18, 124159, Note_on_c, 11, 71, 0
18, 124160, Note_on_c, 11, 72, 84
18, 124239, Note_on_c, 11, 72, 0
18, 124240, Note_on_c, 11, 74, 84
18, 124307, Note_on_c, 11, 74, 0
18, 124320, Note_on_c, 11, 76, 84
18, 124499, Note_on_c, 11, 76, 0
18, 124560, Note_on_c, 11, 76, 84
18, 124639, Note_on_c, 11, 76, 0
18, 124640, Note_on_c, 11, 78, 84
18, 124719, Note_on_c, 11, 78, 0
18, 124720, Note_on_c, 11, 79, 84
18, 124787, Note_on_c, 11, 79, 0
18, 124800, Note_on_c, 11, 74, 84
18, 125504, Note_on_c, 11, 74, 0
18, 125520, Note_on_c, 11, 74, 52
18, 125599, Note_on_c, 11, 74, 0
18, 125600, Note_on_c, 11, 72, 52
18, 125679, Note_on_c, 11, 72, 0
18, 125680, Note_on_c, 11, 71, 52
18, 125759, Note_on_c, 11, 71, 0
18, 125760, Note_on_c, 11, 69, 52
18, 125999, Note_on_c, 11, 69, 0
18, 126000, Note_on_c, 11, 72, 52
18, 126079, Note_on_c, 11, 72, 0
18, 126080, Note_on_c, 11, 71, 52
18, 126159, Note_on_c, 11, 71, 0
18, 126160, Note_on_c, 11, 69, 52
18, 126239, Note_on_c, 11, 69, 0
18, 126240, Note_on_c, 11, 67, 52
18, 126479, Note_on_c, 11, 67, 0
18, 126480, Note_on_c, 11, 71, 52
18, 126559, Note_on_c, 11, 71, 0
18, 126560, Note_on_c, 11, 69, 52
18, 126639, Note_on_c, 11, 69, 0
18, 126640, Note_on_c, 11, 67, 52
18, 126707, Note_on_c, 11, 67, 0
18, 126720, Note_on_c, 11, 66, 52
18, 126899, Note_on_c, 11, 66, 0
18, 126958, Control_c, 11, 11, 80
18, 126960, Control_c, 11, 11, 80
18, 126960, Note_on_c, 11, 66, 76
18, 127000, Control_c, 11, 11, 84
18, 127039, Note_on_c, 11, 66, 0
18, 127040, Note_on_c, 11, 67, 76
18, 127040, Control_c, 11, 11, 88
18, 127080, Control_c, 11, 11, 92
18, 127119, Note_on_c, 11, 67, 0
18, 127120, Note_on_c, 11, 69, 76
18, 127120, Control_c, 11, 11, 96
18, 127160, Control_c, 11, 11, 100
18, 127187, Note_on_c, 11, 69, 0
18, 127200, Control_c, 11, 11, 104
18, 127200, Note_on_c, 11, 62, 76
18, 127240, Control_c, 11, 11, 107
18, 127280, Control_c, 11, 11, 111
18, 127320, Control_c, 11, 11, 115
18, 127360, Control_c, 11, 11, 119
18, 127400, Control_c, 11, 11, 127
18, 127424, Note_on_c, 11, 62, 0
18, 127440, Note_on_c, 11, 60, 76
18, 127507, Note_on_c, 11, 60, 0
18, 127520, Note_on_c, 11, 59, 76
18, 127587, Note_on_c, 11, 59, 0
18, 127600, Note_on_c, 11, 57, 76
18, 127667, Note_on_c, 11, 57, 0
18, 127680, Note_on_c, 11, 71, 76
18, 127680, Note_on_c, 11, 62, 76
18, 127680, Note_on_c, 11, 79, 76
18, 127680, Note_on_c, 11, 55, 76
18, 127919, Note_on_c, 11, 71, 0
18, 127919, Note_on_c, 11, 62, 0
18, 127919, Note_on_c, 11, 79, 0
18, 127919, Note_on_c, 11, 55, 0
18, 128160, Note_on_c, 11, 79, 76
18, 128160, Note_on_c, 11, 64, 76
18, 128160, Note_on_c, 11, 72, 76
18, 128160, Note_on_c, 11, 55, 76
18, 128399, Note_on_c, 11, 79, 0
18, 128399, Note_on_c, 11, 64, 0
18, 128399, Note_on_c, 11, 72, 0
18, 128399, Note_on_c, 11, 55, 0
18, 128640, Note_on_c, 11, 71, 76
18, 128640, Note_on_c, 11, 55, 76
18, 128640, Note_on_c, 11, 62, 76
18, 128640, Note_on_c, 11, 79, 76
18, 128864, Note_on_c, 11, 71, 0
18, 128864, Note_on_c, 11, 55, 0
18, 128864, Note_on_c, 11, 62, 0
18, 128864, Note_on_c, 11, 79, 0
18, 128880, Note_on_c, 11, 62, 76
18, 128947, Note_on_c, 11, 62, 0
18, 128960, Note_on_c, 11, 64, 76
18, 129027, Note_on_c, 11, 64, 0
18, 129040, Note_on_c, 11, 66, 76
18, 129107, Note_on_c, 11, 66, 0
18, 129120, Note_on_c, 11, 67, 76
18, 129344, Note_on_c, 11, 67, 0
18, 129360, Note_on_c, 11, 74, 52
18, 129439, Note_on_c, 11, 74, 0
18, 129440, Note_on_c, 11, 72, 52
18, 129519, Note_on_c, 11, 72, 0
18, 129520, Note_on_c, 11, 71, 52
18, 129599, Note_on_c, 11, 71, 0
18, 129600, Note_on_c, 11, 69, 52
18, 129839, Note_on_c, 11, 69, 0
18, 129840, Note_on_c, 11, 72, 52
18, 129919, Note_on_c, 11, 72, 0
18, 129920, Note_on_c, 11, 71, 52
18, 129999, Note_on_c, 11, 71, 0
18, 130000, Note_on_c, 11, 69, 52
18, 130079, Note_on_c, 11, 69, 0
18, 130080, Note_on_c, 11, 67, 52
18, 130319, Note_on_c, 11, 67, 0
18, 130320, Note_on_c, 11, 71, 52
18, 130399, Note_on_c, 11, 71, 0
18, 130400, Note_on_c, 11, 69, 52
18, 130479, Note_on_c, 11, 69, 0
18, 130480, Note_on_c, 11, 67, 52
18, 130559, Note_on_c, 11, 67, 0
18, 130560, Note_on_c, 11, 66, 52
18, 130799, Note_on_c, 11, 66, 0
18, 131280, Note_on_c, 11, 76, 52
18, 131359, Note_on_c, 11, 76, 0
18, 131360, Note_on_c, 11, 74, 52
18, 131439, Note_on_c, 11, 74, 0
18, 131440, Note_on_c, 11, 72, 52
18, 131519, Note_on_c, 11, 72, 0
18, 131520, Note_on_c, 11, 71, 52
18, 131759, Note_on_c, 11, 71, 0
18, 131760, Note_on_c, 11, 74, 52
18, 131839, Note_on_c, 11, 74, 0
18, 131840, Note_on_c, 11, 72, 52
18, 131919, Note_on_c, 11, 72, 0
18, 131920, Note_on_c, 11, 71, 52
18, 131999, Note_on_c, 11, 71, 0
18, 132000, Note_on_c, 11, 69, 52
18, 132239, Note_on_c, 11, 69, 0
18, 132240, Note_on_c, 11, 72, 52
18, 132319, Note_on_c, 11, 72, 0
18, 132320, Note_on_c, 11, 71, 52
18, 132399, Note_on_c, 11, 71, 0
18, 132400, Note_on_c, 11, 69, 52
18, 132479, Note_on_c, 11, 69, 0
18, 132480, Note_on_c, 11, 68, 52
18, 132704, Note_on_c, 11, 68, 0
18, 132720, Note_on_c, 11, 64, 76
18, 132787, Note_on_c, 11, 64, 0
18, 132800, Note_on_c, 11, 66, 76
18, 132867, Note_on_c, 11, 66, 0
18, 132880, Note_on_c, 11, 68, 76
18, 132947, Note_on_c, 11, 68, 0
18, 132960, Note_on_c, 11, 69, 76
18, 133184, Note_on_c, 11, 69, 0
18, 133200, Note_on_c, 11, 79, 44
18, 133279, Note_on_c, 11, 79, 0
18, 133280, Note_on_c, 11, 77, 44
18, 133359, Note_on_c, 11, 77, 0
18, 133360, Note_on_c, 11, 76, 44
18, 133439, Note_on_c, 11, 76, 0
18, 133440, Note_on_c, 11, 74, 44
18, 133679, Note_on_c, 11, 74, 0
18, 133680, Note_on_c, 11, 77, 44
18, 133759, Note_on_c, 11, 77, 0
18, 133760, Note_on_c, 11, 76, 44
18, 133839, Note_on_c, 11, 76, 0
18, 133840, Note_on_c, 11, 74, 44
18, 133919, Note_on_c, 11, 74, 0
18, 133920, Note_on_c, 11, 72, 44
18, 134159, Note_on_c, 11, 72, 0
18, 134160, Note_on_c, 11, 76, 44
18, 134239, Note_on_c, 11, 76, 0
18, 134240, Note_on_c, 11, 74, 44
18, 134319, Note_on_c, 11, 74, 0
18, 134320, Note_on_c, 11, 72, 44
18, 134387, Note_on_c, 11, 72, 0
18, 134400, Note_on_c, 11, 71, 44
18, 134451, Note_on_c, 11, 71, 0
18, 134460, Note_on_c, 11, 74, 45
18, 134511, Note_on_c, 11, 74, 0
18, 134520, Note_on_c, 11, 74, 46
18, 134571, Note_on_c, 11, 74, 0
18, 134580, Note_on_c, 11, 74, 47
18, 134631, Note_on_c, 11, 74, 0
18, 134640, Note_on_c, 11, 74, 49
18, 134691, Note_on_c, 11, 74, 0
18, 134700, Note_on_c, 11, 74, 50
18, 134751, Note_on_c, 11, 74, 0
18, 134760, Note_on_c, 11, 74, 51
18, 134811, Note_on_c, 11, 74, 0
18, 134820, Note_on_c, 11, 74, 52
18, 134871, Note_on_c, 11, 74, 0
18, 134880, Note_on_c, 11, 74, 54
18, 134931, Note_on_c, 11, 74, 0
18, 134940, Note_on_c, 11, 74, 55
18, 134991, Note_on_c, 11, 74, 0
18, 135000, Note_on_c, 11, 74, 56
18, 135051, Note_on_c, 11, 74, 0
18, 135060, Note_on_c, 11, 74, 57
18, 135111, Note_on_c, 11, 74, 0
18, 135120, Note_on_c, 11, 74, 59
18, 135171, Note_on_c, 11, 74, 0
18, 135180, Note_on_c, 11, 74, 60
18, 135231, Note_on_c, 11, 74, 0
18, 135240, Note_on_c, 11, 74, 61
18, 135291, Note_on_c, 11, 74, 0
18, 135300, Note_on_c, 11, 74, 62
18, 135351, Note_on_c, 11, 74, 0
18, 135360, Note_on_c, 11, 75, 64
18, 135411, Note_on_c, 11, 75, 0
18, 135420, Note_on_c, 11, 75, 65
18, 135471, Note_on_c, 11, 75, 0
18, 135480, Note_on_c, 11, 75, 66
18, 135531, Note_on_c, 11, 75, 0
18, 135540, Note_on_c, 11, 75, 67
18, 135591, Note_on_c, 11, 75, 0
18, 135600, Note_on_c, 11, 75, 69
18, 135651, Note_on_c, 11, 75, 0
18, 135660, Note_on_c, 11, 75, 70
18, 135711, Note_on_c, 11, 75, 0
18, 135720, Note_on_c, 11, 75, 71
18, 135771, Note_on_c, 11, 75, 0
18, 135780, Note_on_c, 11, 75, 72
18, 135831, Note_on_c, 11, 75, 0
18, 135840, Note_on_c, 11, 75, 74
18, 135891, Note_on_c, 11, 75, 0
18, 135900, Note_on_c, 11, 75, 75
18, 135951, Note_on_c, 11, 75, 0
18, 135960, Note_on_c, 11, 75, 76
18, 136011, Note_on_c, 11, 75, 0
18, 136020, Note_on_c, 11, 75, 77
18, 136071, Note_on_c, 11, 75, 0
18, 136080, Note_on_c, 11, 75, 79
18, 136131, Note_on_c, 11, 75, 0
18, 136140, Note_on_c, 11, 75, 80
18, 136191, Note_on_c, 11, 75, 0
18, 136200, Note_on_c, 11, 75, 81
18, 136251, Note_on_c, 11, 75, 0
18, 136260, Note_on_c, 11, 75, 82
18, 136311, Note_on_c, 11, 75, 0
18, 136320, Note_on_c, 11, 76, 84
18, 136371, Note_on_c, 11, 76, 0
18, 136380, Note_on_c, 11, 76, 84
18, 136431, Note_on_c, 11, 76, 0
18, 136440, Note_on_c, 11, 76, 84
18, 136491, Note_on_c, 11, 76, 0
18, 136500, Note_on_c, 11, 76, 84
18, 136551, Note_on_c, 11, 76, 0
18, 136560, Note_on_c, 11, 76, 84
18, 136611, Note_on_c, 11, 76, 0
18, 136620, Note_on_c, 11, 76, 84
18, 136671, Note_on_c, 11, 76, 0
18, 136680, Note_on_c, 11, 76, 84
18, 136731, Note_on_c, 11, 76, 0
18, 136740, Note_on_c, 11, 76, 84
18, 136791, Note_on_c, 11, 76, 0
18, 136800, Note_on_c, 11, 76, 84
18, 136851, Note_on_c, 11, 76, 0
18, 136860, Note_on_c, 11, 60, 84
18, 136911, Note_on_c, 11, 60, 0
18, 136920, Note_on_c, 11, 62, 84
18, 136971, Note_on_c, 11, 62, 0
18, 136980, Note_on_c, 11, 64, 84
18, 137031, Note_on_c, 11, 64, 0
18, 137040, Note_on_c, 11, 65, 84
18, 137091, Note_on_c, 11, 65, 0
18, 137100, Note_on_c, 11, 67, 84
18, 137151, Note_on_c, 11, 67, 0
18, 137160, Note_on_c, 11, 69, 84
18, 137211, Note_on_c, 11, 69, 0
18, 137220, Note_on_c, 11, 71, 84
18, 137271, Note_on_c, 11, 71, 0
18, 137280, Note_on_c, 11, 72, 84
18, 137331, Note_on_c, 11, 72, 0
18, 137340, Note_on_c, 11, 64, 84
18, 137391, Note_on_c, 11, 64, 0
18, 137400, Note_on_c, 11, 65, 84
18, 137451, Note_on_c, 11, 65, 0
18, 137460, Note_on_c, 11, 67, 84
18, 137511, Note_on_c, 11, 67, 0
18, 137520, Note_on_c, 11, 69, 84
18, 137571, Note_on_c, 11, 69, 0
18, 137580, Note_on_c, 11, 71, 84
18, 137631, Note_on_c, 11, 71, 0
18, 137640, Note_on_c, 11, 72, 84
18, 137691, Note_on_c, 11, 72, 0
18, 137700, Note_on_c, 11, 74, 84
18, 137751, Note_on_c, 11, 74, 0
18, 137760, Note_on_c, 11, 76, 84
18, 137811, Note_on_c, 11, 76, 0
18, 137820, Note_on_c, 11, 72, 84
18, 137871, Note_on_c, 11, 72, 0
18, 137880, Note_on_c, 11, 74, 84
18, 137931, Note_on_c, 11, 74, 0
18, 137940, Note_on_c, 11, 76, 84
18, 137991, Note_on_c, 11, 76, 0
18, 138000, Note_on_c, 11, 77, 84
18, 138051, Note_on_c, 11, 77, 0
18, 138060, Note_on_c, 11, 79, 84
18, 138111, Note_on_c, 11, 79, 0
18, 138120, Note_on_c, 11, 81, 84
18, 138171, Note_on_c, 11, 81, 0
18, 138180, Note_on_c, 11, 83, 84
18, 138231, Note_on_c, 11, 83, 0
18, 138240, Note_on_c, 11, 84, 84
18, 138291, Note_on_c, 11, 84, 0
18, 138300, Note_on_c, 11, 86, 84
18, 138351, Note_on_c, 11, 86, 0
18, 138360, Note_on_c, 11, 88, 84
18, 138411, Note_on_c, 11, 88, 0
18, 138420, Note_on_c, 11, 89, 84
18, 138471, Note_on_c, 11, 89, 0
18, 138480, Note_on_c, 11, 91, 84
18, 138531, Note_on_c, 11, 91, 0
18, 138540, Note_on_c, 11, 91, 84
18, 138591, Note_on_c, 11, 91, 0
18, 138600, Note_on_c, 11, 91, 84
18, 138651, Note_on_c, 11, 91, 0
18, 138660, Note_on_c, 11, 91, 84
18, 138711, Note_on_c, 11, 91, 0
18, 138720, Note_on_c, 11, 91, 84
18, 138771, Note_on_c, 11, 91, 0
18, 138780, Note_on_c, 11, 91, 84
18, 138831, Note_on_c, 11, 91, 0
18, 138840, Note_on_c, 11, 91, 84
18, 138891, Note_on_c, 11, 91, 0
18, 138900, Note_on_c, 11, 91, 84
18, 138951, Note_on_c, 11, 91, 0
18, 138960, Note_on_c, 11, 91, 84
18, 139011, Note_on_c, 11, 91, 0
18, 139020, Note_on_c, 11, 91, 84
18, 139071, Note_on_c, 11, 91, 0
18, 139080, Note_on_c, 11, 91, 84
18, 139131, Note_on_c, 11, 91, 0
18, 139140, Note_on_c, 11, 91, 84
18, 139191, Note_on_c, 11, 91, 0
18, 139200, Note_on_c, 11, 91, 84
18, 139251, Note_on_c, 11, 91, 0
18, 139260, Note_on_c, 11, 91, 84
18, 139311, Note_on_c, 11, 91, 0
18, 139320, Note_on_c, 11, 90, 84
18, 139371, Note_on_c, 11, 90, 0
18, 139380, Note_on_c, 11, 88, 84
18, 139431, Note_on_c, 11, 88, 0
18, 139440, Note_on_c, 11, 86, 84
18, 139491, Note_on_c, 11, 86, 0
18, 139500, Note_on_c, 11, 84, 84
18, 139551, Note_on_c, 11, 84, 0
18, 139560, Note_on_c, 11, 83, 84
18, 139611, Note_on_c, 11, 83, 0
18, 139620, Note_on_c, 11, 81, 84
18, 139671, Note_on_c, 11, 81, 0
18, 139680, Note_on_c, 11, 79, 84
18, 139731, Note_on_c, 11, 79, 0
18, 139740, Note_on_c, 11, 78, 84
18, 139791, Note_on_c, 11, 78, 0
18, 139800, Note_on_c, 11, 76, 84
18, 139851, Note_on_c, 11, 76, 0
18, 139860, Note_on_c, 11, 74, 84
18, 139911, Note_on_c, 11, 74, 0
18, 139920, Note_on_c, 11, 72, 84
18, 139971, Note_on_c, 11, 72, 0
18, 139980, Note_on_c, 11, 71, 84
18, 140031, Note_on_c, 11, 71, 0
18, 140040, Note_on_c, 11, 69, 84
18, 140091, Note_on_c, 11, 69, 0
18, 140100, Note_on_c, 11, 67, 84
18, 140151, Note_on_c, 11, 67, 0
18, 140160, Note_on_c, 11, 72, 84
18, 140339, Note_on_c, 11, 72, 0
18, 141120, Note_on_c, 11, 62, 84
18, 141120, Note_on_c, 11, 69, 84
18, 141120, Note_on_c, 11, 66, 84
18, 141299, Note_on_c, 11, 62, 0
18, 141299, Note_on_c, 11, 69, 0
18, 141299, Note_on_c, 11, 66, 0
18, 143640, Note_on_c, 11, 74, 52
18, 143699, Note_on_c, 11, 74, 0
18, 143700, Note_on_c, 11, 76, 52
18, 143759, Note_on_c, 11, 76, 0
18, 143760, Note_on_c, 11, 78, 52
18, 143819, Note_on_c, 11, 78, 0
18, 143820, Note_on_c, 11, 79, 52
18, 143879, Note_on_c, 11, 79, 0
18, 143880, Note_on_c, 11, 81, 52
18, 143939, Note_on_c, 11, 81, 0
18, 143940, Note_on_c, 11, 78, 52
18, 143999, Note_on_c, 11, 78, 0
18, 144000, Note_on_c, 11, 79, 52
18, 144239, Note_on_c, 11, 79, 0
18, 145560, Note_on_c, 11, 74, 52
18, 145619, Note_on_c, 11, 74, 0
18, 145620, Note_on_c, 11, 76, 52
18, 145679, Note_on_c, 11, 76, 0
18, 145680, Note_on_c, 11, 78, 52
18, 145739, Note_on_c, 11, 78, 0
18, 145740, Note_on_c, 11, 79, 52
18, 145799, Note_on_c, 11, 79, 0
18, 145800, Note_on_c, 11, 81, 52
18, 145859, Note_on_c, 11, 81, 0
18, 145860, Note_on_c, 11, 83, 52
18, 145919, Note_on_c, 11, 83, 0
18, 145920, Note_on_c, 11, 84, 76
18, 145979, Note_on_c, 11, 84, 0
18, 145980, Note_on_c, 11, 84, 52
18, 146159, Note_on_c, 11, 84, 0
18, 147480, Note_on_c, 11, 80, 52
18, 147539, Note_on_c, 11, 80, 0
18, 147540, Note_on_c, 11, 81, 52
18, 147599, Note_on_c, 11, 81, 0
18, 147600, Note_on_c, 11, 83, 52
18, 147659, Note_on_c, 11, 83, 0
18, 147660, Note_on_c, 11, 84, 52
18, 147719, Note_on_c, 11, 84, 0
18, 147720, Note_on_c, 11, 86, 52
18, 147779, Note_on_c, 11, 86, 0
18, 147780, Note_on_c, 11, 83, 52
18, 147839, Note_on_c, 11, 83, 0
18, 147840, Note_on_c, 11, 88, 52
18, 148079, Note_on_c, 11, 88, 0
18, 148380, Note_on_c, 11, 76, 52
18, 148439, Note_on_c, 11, 76, 0
18, 148440, Note_on_c, 11, 78, 52
18, 148499, Note_on_c, 11, 78, 0
18, 148500, Note_on_c, 11, 80, 52
18, 148559, Note_on_c, 11, 80, 0
18, 148560, Note_on_c, 11, 81, 52
18, 148619, Note_on_c, 11, 81, 0
18, 148620, Note_on_c, 11, 83, 52
18, 148679, Note_on_c, 11, 83, 0
18, 148680, Note_on_c, 11, 84, 52
18, 148739, Note_on_c, 11, 84, 0
18, 148740, Note_on_c, 11, 81, 52
18, 148799, Note_on_c, 11, 81, 0
18, 148800, Note_on_c, 11, 86, 52
18, 149039, Note_on_c, 11, 86, 0
18, 149400, Note_on_c, 11, 69, 52
18, 149459, Note_on_c, 11, 69, 0
18, 149460, Note_on_c, 11, 71, 52
18, 149519, Note_on_c, 11, 71, 0
18, 149520, Note_on_c, 11, 72, 52
18, 149579, Note_on_c, 11, 72, 0
18, 149580, Note_on_c, 11, 74, 52
18, 149639, Note_on_c, 11, 74, 0
18, 149640, Note_on_c, 11, 76, 52
18, 149699, Note_on_c, 11, 76, 0
18, 149700, Note_on_c, 11, 78, 52
18, 149751, Note_on_c, 11, 78, 0
18, 149760, Note_on_c, 11, 79, 76
18, 149811, Note_on_c, 11, 79, 0
18, 149820, Note_on_c, 11, 79, 76
18, 149871, Note_on_c, 11, 79, 0
18, 149880, Note_on_c, 11, 79, 76
18, 149931, Note_on_c, 11, 79, 0
18, 149940, Note_on_c, 11, 79, 76
18, 149991, Note_on_c, 11, 79, 0
18, 150000, Note_on_c, 11, 79, 76
18, 150051, Note_on_c, 11, 79, 0
18, 150060, Note_on_c, 11, 79, 76
18, 150111, Note_on_c, 11, 79, 0
18, 150120, Note_on_c, 11, 79, 76
18, 150171, Note_on_c, 11, 79, 0
18, 150180, Note_on_c, 11, 79, 76
18, 150231, Note_on_c, 11, 79, 0
18, 150240, Note_on_c, 11, 79, 76
18, 150291, Note_on_c, 11, 79, 0
18, 150300, Note_on_c, 11, 79, 76
18, 150351, Note_on_c, 11, 79, 0
18, 150360, Note_on_c, 11, 79, 76
18, 150411, Note_on_c, 11, 79, 0
18, 150420, Note_on_c, 11, 79, 76
18, 150471, Note_on_c, 11, 79, 0
18, 150480, Note_on_c, 11, 78, 76
18, 150531, Note_on_c, 11, 78, 0
18, 150540, Note_on_c, 11, 78, 76
18, 150591, Note_on_c, 11, 78, 0
18, 150600, Note_on_c, 11, 78, 76
18, 150651, Note_on_c, 11, 78, 0
18, 150660, Note_on_c, 11, 78, 76
18, 150711, Note_on_c, 11, 78, 0
18, 150720, Note_on_c, 11, 76, 76
18, 150771, Note_on_c, 11, 76, 0
18, 150780, Note_on_c, 11, 76, 76
18, 150831, Note_on_c, 11, 76, 0
18, 150840, Note_on_c, 11, 76, 76
18, 150891, Note_on_c, 11, 76, 0
18, 150900, Note_on_c, 11, 76, 76
18, 150951, Note_on_c, 11, 76, 0
18, 150960, Note_on_c, 11, 74, 76
18, 151011, Note_on_c, 11, 74, 0
18, 151020, Note_on_c, 11, 74, 76
18, 151071, Note_on_c, 11, 74, 0
18, 151080, Note_on_c, 11, 74, 76
18, 151131, Note_on_c, 11, 74, 0
18, 151140, Note_on_c, 11, 74, 76
18, 151191, Note_on_c, 11, 74, 0
18, 151200, Note_on_c, 11, 74, 76
18, 151251, Note_on_c, 11, 74, 0
18, 151260, Note_on_c, 11, 74, 76
18, 151311, Note_on_c, 11, 74, 0
18, 151320, Note_on_c, 11, 74, 76
18, 151371, Note_on_c, 11, 74, 0
18, 151380, Note_on_c, 11, 74, 76
18, 151431, Note_on_c, 11, 74, 0
18, 151440, Note_on_c, 11, 74, 76
18, 151491, Note_on_c, 11, 74, 0
18, 151500, Note_on_c, 11, 74, 76
18, 151551, Note_on_c, 11, 74, 0
18, 151560, Note_on_c, 11, 74, 76
18, 151611, Note_on_c, 11, 74, 0
18, 151620, Note_on_c, 11, 74, 76
18, 151671, Note_on_c, 11, 74, 0
18, 151680, Note_on_c, 11, 79, 84
18, 151731, Note_on_c, 11, 79, 0
18, 151740, Note_on_c, 11, 79, 76
18, 151791, Note_on_c, 11, 79, 0
18, 151800, Note_on_c, 11, 79, 76
18, 151851, Note_on_c, 11, 79, 0
18, 151860, Note_on_c, 11, 79, 76
18, 151911, Note_on_c, 11, 79, 0
18, 151920, Note_on_c, 11, 79, 76
18, 151971, Note_on_c, 11, 79, 0
18, 151980, Note_on_c, 11, 79, 76
18, 152031, Note_on_c, 11, 79, 0
18, 152040, Note_on_c, 11, 79, 76
18, 152091, Note_on_c, 11, 79, 0
18, 152100, Note_on_c, 11, 79, 76
18, 152151, Note_on_c, 11, 79, 0
18, 152160, Note_on_c, 11, 79, 76
18, 152211, Note_on_c, 11, 79, 0
18, 152220, Note_on_c, 11, 79, 76
18, 152271, Note_on_c, 11, 79, 0
18, 152280, Note_on_c, 11, 79, 76
18, 152331, Note_on_c, 11, 79, 0
18, 152340, Note_on_c, 11, 79, 76
18, 152391, Note_on_c, 11, 79, 0
18, 152400, Note_on_c, 11, 78, 76
18, 152451, Note_on_c, 11, 78, 0
18, 152460, Note_on_c, 11, 78, 76
18, 152511, Note_on_c, 11, 78, 0
18, 152520, Note_on_c, 11, 78, 76
18, 152571, Note_on_c, 11, 78, 0
18, 152580, Note_on_c, 11, 78, 76
18, 152631, Note_on_c, 11, 78, 0
18, 152640, Note_on_c, 11, 76, 76
18, 152691, Note_on_c, 11, 76, 0
18, 152700, Note_on_c, 11, 76, 76
18, 152751, Note_on_c, 11, 76, 0
18, 152760, Note_on_c, 11, 76, 76
18, 152811, Note_on_c, 11, 76, 0
18, 152820, Note_on_c, 11, 76, 76
18, 152871, Note_on_c, 11, 76, 0
18, 152880, Note_on_c, 11, 74, 76
18, 152931, Note_on_c, 11, 74, 0
18, 152940, Note_on_c, 11, 74, 76
18, 152991, Note_on_c, 11, 74, 0
18, 153000, Note_on_c, 11, 74, 76
18, 153051, Note_on_c, 11, 74, 0
18, 153060, Note_on_c, 11, 74, 76
18, 153111, Note_on_c, 11, 74, 0
18, 153120, Note_on_c, 11, 74, 76
18, 153171, Note_on_c, 11, 74, 0
18, 153180, Note_on_c, 11, 74, 76
18, 153231, Note_on_c, 11, 74, 0
18, 153240, Note_on_c, 11, 74, 76
18, 153291, Note_on_c, 11, 74, 0
18, 153300, Note_on_c, 11, 74, 76
18, 153351, Note_on_c, 11, 74, 0
18, 153360, Note_on_c, 11, 74, 76
18, 153411, Note_on_c, 11, 74, 0
18, 153420, Note_on_c, 11, 74, 76
18, 153471, Note_on_c, 11, 74, 0
18, 153480, Note_on_c, 11, 74, 76
18, 153531, Note_on_c, 11, 74, 0
18, 153540, Note_on_c, 11, 74, 76
18, 153591, Note_on_c, 11, 74, 0
18, 153600, Note_on_c, 11, 84, 84
18, 153651, Note_on_c, 11, 84, 0
18, 153660, Note_on_c, 11, 84, 76
18, 153711, Note_on_c, 11, 84, 0
18, 153720, Note_on_c, 11, 84, 76
18, 153771, Note_on_c, 11, 84, 0
18, 153780, Note_on_c, 11, 84, 76
18, 153831, Note_on_c, 11, 84, 0
18, 153840, Note_on_c, 11, 84, 76
18, 153891, Note_on_c, 11, 84, 0
18, 153900, Note_on_c, 11, 84, 76
18, 153951, Note_on_c, 11, 84, 0
18, 153960, Note_on_c, 11, 84, 76
18, 154011, Note_on_c, 11, 84, 0
18, 154020, Note_on_c, 11, 84, 76
18, 154071, Note_on_c, 11, 84, 0
18, 154080, Note_on_c, 11, 84, 76
18, 154131, Note_on_c, 11, 84, 0
18, 154140, Note_on_c, 11, 84, 76
18, 154191, Note_on_c, 11, 84, 0
18, 154200, Note_on_c, 11, 84, 76
18, 154251, Note_on_c, 11, 84, 0
18, 154260, Note_on_c, 11, 84, 76
18, 154311, Note_on_c, 11, 84, 0
18, 154320, Note_on_c, 11, 83, 76
18, 154371, Note_on_c, 11, 83, 0
18, 154380, Note_on_c, 11, 83, 76
18, 154431, Note_on_c, 11, 83, 0
18, 154440, Note_on_c, 11, 83, 76
18, 154491, Note_on_c, 11, 83, 0
18, 154500, Note_on_c, 11, 83, 76
18, 154551, Note_on_c, 11, 83, 0
18, 154560, Note_on_c, 11, 81, 76
18, 154611, Note_on_c, 11, 81, 0
18, 154620, Note_on_c, 11, 81, 76
18, 154671, Note_on_c, 11, 81, 0
18, 154680, Note_on_c, 11, 81, 76
18, 154731, Note_on_c, 11, 81, 0
18, 154740, Note_on_c, 11, 81, 76
18, 154791, Note_on_c, 11, 81, 0
18, 154800, Note_on_c, 11, 80, 80
18, 154851, Note_on_c, 11, 80, 0
18, 154860, Note_on_c, 11, 80, 80
18, 154911, Note_on_c, 11, 80, 0
18, 154920, Note_on_c, 11, 80, 80
18, 154971, Note_on_c, 11, 80, 0
18, 154980, Note_on_c, 11, 80, 80
18, 155031, Note_on_c, 11, 80, 0
18, 155040, Note_on_c, 11, 80, 80
18, 155091, Note_on_c, 11, 80, 0
18, 155100, Note_on_c, 11, 80, 80
18, 155151, Note_on_c, 11, 80, 0
18, 155160, Note_on_c, 11, 80, 80
18, 155211, Note_on_c, 11, 80, 0
18, 155220, Note_on_c, 11, 80, 80
18, 155271, Note_on_c, 11, 80, 0
18, 155280, Note_on_c, 11, 80, 80
18, 155331, Note_on_c, 11, 80, 0
18, 155340, Note_on_c, 11, 80, 80
18, 155391, Note_on_c, 11, 80, 0
18, 155400, Note_on_c, 11, 80, 80
18, 155451, Note_on_c, 11, 80, 0
18, 155460, Note_on_c, 11, 80, 80
18, 155511, Note_on_c, 11, 80, 0
18, 155520, Note_on_c, 11, 80, 80
18, 155571, Note_on_c, 11, 80, 0
18, 155580, Note_on_c, 11, 80, 80
18, 155631, Note_on_c, 11, 80, 0
18, 155640, Note_on_c, 11, 80, 80
18, 155691, Note_on_c, 11, 80, 0
18, 155700, Note_on_c, 11, 80, 80
18, 155751, Note_on_c, 11, 80, 0
18, 155760, Note_on_c, 11, 80, 80
18, 155811, Note_on_c, 11, 80, 0
18, 155820, Note_on_c, 11, 80, 80
18, 155871, Note_on_c, 11, 80, 0
18, 155880, Note_on_c, 11, 80, 80
18, 155931, Note_on_c, 11, 80, 0
18, 155940, Note_on_c, 11, 80, 80
18, 155991, Note_on_c, 11, 80, 0
18, 156000, Note_on_c, 11, 80, 80
18, 156051, Note_on_c, 11, 80, 0
18, 156060, Note_on_c, 11, 80, 80
18, 156111, Note_on_c, 11, 80, 0
18, 156120, Note_on_c, 11, 80, 80
18, 156171, Note_on_c, 11, 80, 0
18, 156180, Note_on_c, 11, 80, 80
18, 156231, Note_on_c, 11, 80, 0
18, 156240, Note_on_c, 11, 80, 80
18, 156291, Note_on_c, 11, 80, 0
18, 156300, Note_on_c, 11, 80, 80
18, 156351, Note_on_c, 11, 80, 0
18, 156360, Note_on_c, 11, 80, 80
18, 156411, Note_on_c, 11, 80, 0
18, 156420, Note_on_c, 11, 80, 80
18, 156471, Note_on_c, 11, 80, 0
18, 156480, Note_on_c, 11, 80, 80
18, 156531, Note_on_c, 11, 80, 0
18, 156540, Note_on_c, 11, 80, 80
18, 156591, Note_on_c, 11, 80, 0
18, 156600, Note_on_c, 11, 80, 80
18, 156651, Note_on_c, 11, 80, 0
18, 156660, Note_on_c, 11, 80, 80
18, 156711, Note_on_c, 11, 80, 0
18, 156720, Note_on_c, 11, 84, 80
18, 156771, Note_on_c, 11, 84, 0
18, 156780, Note_on_c, 11, 84, 80
18, 156831, Note_on_c, 11, 84, 0
18, 156840, Note_on_c, 11, 84, 80
18, 156891, Note_on_c, 11, 84, 0
18, 156900, Note_on_c, 11, 84, 80
18, 156951, Note_on_c, 11, 84, 0
18, 156960, Note_on_c, 11, 84, 80
18, 157011, Note_on_c, 11, 84, 0
18, 157020, Note_on_c, 11, 84, 80
18, 157071, Note_on_c, 11, 84, 0
18, 157080, Note_on_c, 11, 84, 80
18, 157131, Note_on_c, 11, 84, 0
18, 157140, Note_on_c, 11, 84, 80
18, 157191, Note_on_c, 11, 84, 0
18, 157200, Note_on_c, 11, 84, 80
18, 157251, Note_on_c, 11, 84, 0
18, 157260, Note_on_c, 11, 84, 80
18, 157311, Note_on_c, 11, 84, 0
18, 157320, Note_on_c, 11, 84, 80
18, 157371, Note_on_c, 11, 84, 0
18, 157380, Note_on_c, 11, 84, 80
18, 157431, Note_on_c, 11, 84, 0
18, 157440, Note_on_c, 11, 89, 84
18, 158399, Note_on_c, 11, 89, 0
18, 158400, Note_on_c, 11, 89, 84
18, 159344, Note_on_c, 11, 89, 0
18, 159360, Note_on_c, 11, 71, 84
18, 159360, Note_on_c, 11, 65, 84
18, 159360, Note_on_c, 11, 55, 84
18, 159449, Note_on_c, 11, 71, 0
18, 159449, Note_on_c, 11, 65, 0
18, 159449, Note_on_c, 11, 55, 0
18, 159480, Note_on_c, 11, 55, 84
18, 159569, Note_on_c, 11, 55, 0
18, 159600, Note_on_c, 11, 59, 84
18, 159719, Note_on_c, 11, 59, 0
18, 159720, Note_on_c, 11, 55, 84
18, 159824, Note_on_c, 11, 55, 0
18, 159840, Note_on_c, 11, 59, 84
18, 159929, Note_on_c, 11, 59, 0
18, 159960, Note_on_c, 11, 55, 84
18, 160049, Note_on_c, 11, 55, 0
18, 160080, Note_on_c, 11, 62, 84
18, 160199, Note_on_c, 11, 62, 0
18, 160200, Note_on_c, 11, 59, 84
18, 160304, Note_on_c, 11, 59, 0
18, 160320, Note_on_c, 11, 62, 84
18, 160409, Note_on_c, 11, 62, 0
18, 160440, Note_on_c, 11, 59, 84
18, 160529, Note_on_c, 11, 59, 0
18, 160560, Note_on_c, 11, 65, 84
18, 160679, Note_on_c, 11, 65, 0
18, 160680, Note_on_c, 11, 62, 84
18, 160784, Note_on_c, 11, 62, 0
18, 160800, Note_on_c, 11, 65, 84
18, 160889, Note_on_c, 11, 65, 0
18, 160920, Note_on_c, 11, 62, 84
18, 161009, Note_on_c, 11, 62, 0
18, 161040, Note_on_c, 11, 71, 84
18, 161159, Note_on_c, 11, 71, 0
18, 161160, Note_on_c, 11, 65, 84
18, 161264, Note_on_c, 11, 65, 0
18, 161280, Note_on_c, 11, 71, 84
18, 161369, Note_on_c, 11, 71, 0
18, 161400, Note_on_c, 11, 65, 84
18, 161489, Note_on_c, 11, 65, 0
18, 161520, Note_on_c, 11, 74, 84
18, 161609, Note_on_c, 11, 74, 0
18, 161640, Note_on_c, 11, 71, 84
18, 161729, Note_on_c, 11, 71, 0
18, 161760, Note_on_c, 11, 77, 84
18, 161849, Note_on_c, 11, 77, 0
18, 161880, Note_on_c, 11, 74, 84
18, 161969, Note_on_c, 11, 74, 0
18, 162000, Note_on_c, 11, 83, 84
18, 162089, Note_on_c, 11, 83, 0
18, 162120, Note_on_c, 11, 77, 84
18, 162209, Note_on_c, 11, 77, 0
18, 162240, Note_on_c, 11, 86, 84
18, 162329, Note_on_c, 11, 86, 0
18, 162360, Note_on_c, 11, 83, 84
18, 162449, Note_on_c, 11, 83, 0
18, 162480, Note_on_c, 11, 89, 84
18, 162531, Note_on_c, 11, 89, 0
18, 162540, Note_on_c, 11, 89, 84
18, 162591, Note_on_c, 11, 89, 0
18, 162600, Note_on_c, 11, 89, 84
18, 162651, Note_on_c, 11, 89, 0
18, 162660, Note_on_c, 11, 89, 84
18, 162711, Note_on_c, 11, 89, 0
18, 162720, Note_on_c, 11, 89, 84
18, 162771, Note_on_c, 11, 89, 0
18, 162780, Note_on_c, 11, 89, 84
18, 162831, Note_on_c, 11, 89, 0
18, 162840, Note_on_c, 11, 89, 84
18, 162891, Note_on_c, 11, 89, 0
18, 162900, Note_on_c, 11, 89, 84
18, 162951, Note_on_c, 11, 89, 0
18, 162960, Note_on_c, 11, 89, 84
18, 163011, Note_on_c, 11, 89, 0
18, 163020, Note_on_c, 11, 89, 84
18, 163071, Note_on_c, 11, 89, 0
18, 163080, Note_on_c, 11, 89, 84
18, 163131, Note_on_c, 11, 89, 0
18, 163140, Note_on_c, 11, 89, 84
18, 163191, Note_on_c, 11, 89, 0
18, 163200, Note_on_c, 11, 88, 84
18, 163200, Note_on_c, 11, 76, 84
18, 163251, Note_on_c, 11, 88, 0
18, 163251, Note_on_c, 11, 76, 0
18, 163260, Note_on_c, 11, 76, 84
18, 163260, Note_on_c, 11, 88, 84
18, 163311, Note_on_c, 11, 76, 0
18, 163311, Note_on_c, 11, 88, 0
18, 163320, Note_on_c, 11, 76, 84
18, 163320, Note_on_c, 11, 88, 84
18, 163371, Note_on_c, 11, 76, 0
18, 163371, Note_on_c, 11, 88, 0
18, 163380, Note_on_c, 11, 76, 84
18, 163380, Note_on_c, 11, 88, 84
18, 163431, Note_on_c, 11, 76, 0
18, 163431, Note_on_c, 11, 88, 0
18, 163440, Note_on_c, 11, 76, 84
18, 163440, Note_on_c, 11, 88, 84
18, 163491, Note_on_c, 11, 76, 0
18, 163491, Note_on_c, 11, 88, 0
18, 163500, Note_on_c, 11, 76, 84
18, 163500, Note_on_c, 11, 88, 84
18, 163551, Note_on_c, 11, 76, 0
18, 163551, Note_on_c, 11, 88, 0
18, 163560, Note_on_c, 11, 76, 84
18, 163560, Note_on_c, 11, 88, 84
18, 163611, Note_on_c, 11, 76, 0
18, 163611, Note_on_c, 11, 88, 0
18, 163620, Note_on_c, 11, 76, 84
18, 163620, Note_on_c, 11, 88, 84
18, 163671, Note_on_c, 11, 76, 0
18, 163671, Note_on_c, 11, 88, 0
18, 163680, Note_on_c, 11, 88, 84
18, 163680, Note_on_c, 11, 76, 84
18, 163731, Note_on_c, 11, 88, 0
18, 163731, Note_on_c, 11, 76, 0
18, 163740, Note_on_c, 11, 76, 84
18, 163740, Note_on_c, 11, 88, 84
18, 163791, Note_on_c, 11, 76, 0
18, 163791, Note_on_c, 11, 88, 0
18, 163800, Note_on_c, 11, 76, 84
18, 163800, Note_on_c, 11, 88, 84
18, 163851, Note_on_c, 11, 76, 0
18, 163851, Note_on_c, 11, 88, 0
18, 163860, Note_on_c, 11, 88, 84
18, 163860, Note_on_c, 11, 76, 84
18, 163911, Note_on_c, 11, 88, 0
18, 163911, Note_on_c, 11, 76, 0
18, 163920, Note_on_c, 11, 76, 84
18, 163920, Note_on_c, 11, 88, 84
18, 163971, Note_on_c, 11, 76, 0
18, 163971, Note_on_c, 11, 88, 0
18, 163980, Note_on_c, 11, 88, 84
18, 163980, Note_on_c, 11, 76, 84
18, 164031, Note_on_c, 11, 88, 0
18, 164031, Note_on_c, 11, 76, 0
18, 164040, Note_on_c, 11, 76, 84
18, 164040, Note_on_c, 11, 88, 84
18, 164091, Note_on_c, 11, 76, 0
18, 164091, Note_on_c, 11, 88, 0
18, 164100, Note_on_c, 11, 76, 84
18, 164100, Note_on_c, 11, 88, 84
18, 164151, Note_on_c, 11, 76, 0
18, 164151, Note_on_c, 11, 88, 0
18, 164160, Note_on_c, 11, 88, 84
18, 164160, Note_on_c, 11, 76, 84
18, 164211, Note_on_c, 11, 88, 0
18, 164211, Note_on_c, 11, 76, 0
18, 164220, Note_on_c, 11, 76, 84
18, 164220, Note_on_c, 11, 88, 84
18, 164271, Note_on_c, 11, 76, 0
18, 164271, Note_on_c, 11, 88, 0
18, 164280, Note_on_c, 11, 88, 84
18, 164280, Note_on_c, 11, 76, 84
18, 164331, Note_on_c, 11, 88, 0
18, 164331, Note_on_c, 11, 76, 0
18, 164340, Note_on_c, 11, 76, 84
18, 164340, Note_on_c, 11, 88, 84
18, 164391, Note_on_c, 11, 76, 0
18, 164391, Note_on_c, 11, 88, 0
18, 164400, Note_on_c, 11, 88, 84
18, 164400, Note_on_c, 11, 76, 84
18, 164451, Note_on_c, 11, 88, 0
18, 164451, Note_on_c, 11, 76, 0
18, 164460, Note_on_c, 11, 76, 84
18, 164460, Note_on_c, 11, 88, 84
18, 164511, Note_on_c, 11, 76, 0
18, 164511, Note_on_c, 11, 88, 0
18, 164520, Note_on_c, 11, 88, 84
18, 164520, Note_on_c, 11, 76, 84
18, 164571, Note_on_c, 11, 88, 0
18, 164571, Note_on_c, 11, 76, 0
18, 164580, Note_on_c, 11, 88, 84
18, 164580, Note_on_c, 11, 76, 84
18, 164631, Note_on_c, 11, 88, 0
18, 164631, Note_on_c, 11, 76, 0
18, 164640, Note_on_c, 11, 88, 84
18, 164640, Note_on_c, 11, 76, 84
18, 164691, Note_on_c, 11, 88, 0
18, 164691, Note_on_c, 11, 76, 0
18, 164700, Note_on_c, 11, 88, 84
18, 164700, Note_on_c, 11, 76, 84
18, 164751, Note_on_c, 11, 88, 0
18, 164751, Note_on_c, 11, 76, 0
18, 164760, Note_on_c, 11, 88, 84
18, 164760, Note_on_c, 11, 76, 84
18, 164811, Note_on_c, 11, 88, 0
18, 164811, Note_on_c, 11, 76, 0
18, 164820, Note_on_c, 11, 76, 84
18, 164820, Note_on_c, 11, 88, 84
18, 164871, Note_on_c, 11, 76, 0
18, 164871, Note_on_c, 11, 88, 0
18, 164880, Note_on_c, 11, 88, 84
18, 164880, Note_on_c, 11, 76, 84
18, 164931, Note_on_c, 11, 88, 0
18, 164931, Note_on_c, 11, 76, 0
18, 164940, Note_on_c, 11, 88, 84
18, 164940, Note_on_c, 11, 76, 84
18, 164991, Note_on_c, 11, 88, 0
18, 164991, Note_on_c, 11, 76, 0
18, 165000, Note_on_c, 11, 88, 84
18, 165000, Note_on_c, 11, 76, 84
18, 165051, Note_on_c, 11, 88, 0
18, 165051, Note_on_c, 11, 76, 0
18, 165060, Note_on_c, 11, 88, 84
18, 165060, Note_on_c, 11, 76, 84
18, 165111, Note_on_c, 11, 88, 0
18, 165111, Note_on_c, 11, 76, 0
18, 165120, Note_on_c, 11, 76, 84
18, 165120, Note_on_c, 11, 88, 84
18, 165171, Note_on_c, 11, 76, 0
18, 165171, Note_on_c, 11, 88, 0
18, 165180, Note_on_c, 11, 88, 84
18, 165180, Note_on_c, 11, 76, 84
18, 165231, Note_on_c, 11, 88, 0
18, 165231, Note_on_c, 11, 76, 0
18, 165240, Note_on_c, 11, 88, 84
18, 165240, Note_on_c, 11, 76, 84
18, 165291, Note_on_c, 11, 88, 0
18, 165291, Note_on_c, 11, 76, 0
18, 165300, Note_on_c, 11, 76, 84
18, 165300, Note_on_c, 11, 88, 84
18, 165351, Note_on_c, 11, 76, 0
18, 165351, Note_on_c, 11, 88, 0
18, 165360, Note_on_c, 11, 88, 84
18, 165360, Note_on_c, 11, 76, 84
18, 165411, Note_on_c, 11, 88, 0
18, 165411, Note_on_c, 11, 76, 0
18, 165420, Note_on_c, 11, 76, 84
18, 165420, Note_on_c, 11, 88, 84
18, 165471, Note_on_c, 11, 76, 0
18, 165471, Note_on_c, 11, 88, 0
18, 165480, Note_on_c, 11, 88, 84
18, 165480, Note_on_c, 11, 76, 84
18, 165531, Note_on_c, 11, 88, 0
18, 165531, Note_on_c, 11, 76, 0
18, 165540, Note_on_c, 11, 76, 84
18, 165540, Note_on_c, 11, 88, 84
18, 165591, Note_on_c, 11, 76, 0
18, 165591, Note_on_c, 11, 88, 0
18, 165600, Note_on_c, 11, 88, 84
18, 165600, Note_on_c, 11, 76, 84
18, 165651, Note_on_c, 11, 88, 0
18, 165651, Note_on_c, 11, 76, 0
18, 165660, Note_on_c, 11, 76, 84
18, 165660, Note_on_c, 11, 88, 84
18, 165711, Note_on_c, 11, 76, 0
18, 165711, Note_on_c, 11, 88, 0
18, 165720, Note_on_c, 11, 76, 84
18, 165720, Note_on_c, 11, 88, 84
18, 165771, Note_on_c, 11, 76, 0
18, 165771, Note_on_c, 11, 88, 0
18, 165780, Note_on_c, 11, 76, 84
18, 165780, Note_on_c, 11, 88, 84
18, 165831, Note_on_c, 11, 76, 0
18, 165831, Note_on_c, 11, 88, 0
18, 165840, Note_on_c, 11, 76, 84
18, 165840, Note_on_c, 11, 88, 84
18, 165891, Note_on_c, 11, 76, 0
18, 165891, Note_on_c, 11, 88, 0
18, 165900, Note_on_c, 11, 76, 84
18, 165900, Note_on_c, 11, 88, 84
18, 165951, Note_on_c, 11, 76, 0
18, 165951, Note_on_c, 11, 88, 0
18, 165960, Note_on_c, 11, 76, 84
18, 165960, Note_on_c, 11, 88, 84
18, 166011, Note_on_c, 11, 76, 0
18, 166011, Note_on_c, 11, 88, 0
18, 166020, Note_on_c, 11, 88, 84
18, 166020, Note_on_c, 11, 76, 84
18, 166071, Note_on_c, 11, 88, 0
18, 166071, Note_on_c, 11, 76, 0
18, 166080, Note_on_c, 11, 76, 84
18, 166080, Note_on_c, 11, 88, 84
18, 166131, Note_on_c, 11, 76, 0
18, 166131, Note_on_c, 11, 88, 0
18, 166140, Note_on_c, 11, 88, 84
18, 166140, Note_on_c, 11, 76, 84
18, 166191, Note_on_c, 11, 88, 0
18, 166191, Note_on_c, 11, 76, 0
18, 166200, Note_on_c, 11, 76, 84
18, 166200, Note_on_c, 11, 88, 84
18, 166251, Note_on_c, 11, 76, 0
18, 166251, Note_on_c, 11, 88, 0
18, 166260, Note_on_c, 11, 76, 84
18, 166260, Note_on_c, 11, 88, 84
18, 166311, Note_on_c, 11, 76, 0
18, 166311, Note_on_c, 11, 88, 0
18, 166320, Note_on_c, 11, 88, 84
18, 166320, Note_on_c, 11, 76, 84
18, 166371, Note_on_c, 11, 88, 0
18, 166371, Note_on_c, 11, 76, 0
18, 166380, Note_on_c, 11, 88, 84
18, 166380, Note_on_c, 11, 76, 84
18, 166431, Note_on_c, 11, 88, 0
18, 166431, Note_on_c, 11, 76, 0
18, 166440, Note_on_c, 11, 76, 84
18, 166440, Note_on_c, 11, 88, 84
18, 166491, Note_on_c, 11, 76, 0
18, 166491, Note_on_c, 11, 88, 0
18, 166500, Note_on_c, 11, 76, 84
18, 166500, Note_on_c, 11, 88, 84
18, 166551, Note_on_c, 11, 76, 0
18, 166551, Note_on_c, 11, 88, 0
18, 166560, Note_on_c, 11, 88, 84
18, 166560, Note_on_c, 11, 76, 84
18, 166611, Note_on_c, 11, 88, 0
18, 166611, Note_on_c, 11, 76, 0
18, 166620, Note_on_c, 11, 76, 84
18, 166620, Note_on_c, 11, 88, 84
18, 166671, Note_on_c, 11, 76, 0
18, 166671, Note_on_c, 11, 88, 0
18, 166680, Note_on_c, 11, 88, 84
18, 166680, Note_on_c, 11, 76, 84
18, 166731, Note_on_c, 11, 88, 0
18, 166731, Note_on_c, 11, 76, 0
18, 166740, Note_on_c, 11, 76, 84
18, 166740, Note_on_c, 11, 88, 84
18, 166791, Note_on_c, 11, 76, 0
18, 166791, Note_on_c, 11, 88, 0
18, 166800, Note_on_c, 11, 88, 84
18, 166800, Note_on_c, 11, 76, 84
18, 166851, Note_on_c, 11, 88, 0
18, 166851, Note_on_c, 11, 76, 0
18, 166860, Note_on_c, 11, 76, 84
18, 166860, Note_on_c, 11, 88, 84
18, 166911, Note_on_c, 11, 76, 0
18, 166911, Note_on_c, 11, 88, 0
18, 166920, Note_on_c, 11, 88, 84
18, 166920, Note_on_c, 11, 76, 84
18, 166971, Note_on_c, 11, 88, 0
18, 166971, Note_on_c, 11, 76, 0
18, 166980, Note_on_c, 11, 76, 84
18, 166980, Note_on_c, 11, 88, 84
18, 167031, Note_on_c, 11, 76, 0
18, 167031, Note_on_c, 11, 88, 0
18, 167040, Note_on_c, 11, 76, 84
18, 167040, Note_on_c, 11, 88, 84
18, 167219, Note_on_c, 11, 76, 0
18, 167219, Note_on_c, 11, 88, 0
18, 167280, Note_on_c, 11, 73, 84
18, 167359, Note_on_c, 11, 73, 0
18, 167360, Note_on_c, 11, 74, 84
18, 167439, Note_on_c, 11, 74, 0
18, 167440, Note_on_c, 11, 76, 84
18, 167507, Note_on_c, 11, 76, 0
18, 167520, Note_on_c, 11, 78, 84
18, 167699, Note_on_c, 11, 78, 0
18, 167760, Note_on_c, 11, 78, 84
18, 167839, Note_on_c, 11, 78, 0
18, 167840, Note_on_c, 11, 80, 84
18, 167919, Note_on_c, 11, 80, 0
18, 167920, Note_on_c, 11, 81, 84
18, 167987, Note_on_c, 11, 81, 0
18, 168000, Note_on_c, 11, 76, 84
18, 168704, Note_on_c, 11, 76, 0
18, 168720, Note_on_c, 11, 76, 52
18, 168799, Note_on_c, 11, 76, 0
18, 168800, Note_on_c, 11, 74, 52
18, 168879, Note_on_c, 11, 74, 0
18, 168880, Note_on_c, 11, 73, 52
18, 168959, Note_on_c, 11, 73, 0
18, 168960, Note_on_c, 11, 71, 52
18, 169199, Note_on_c, 11, 71, 0
18, 169200, Note_on_c, 11, 74, 52
18, 169279, Note_on_c, 11, 74, 0
18, 169280, Note_on_c, 11, 73, 52
18, 169359, Note_on_c, 11, 73, 0
18, 169360, Note_on_c, 11, 71, 52
18, 169439, Note_on_c, 11, 71, 0
18, 169440, Note_on_c, 11, 69, 52
18, 169679, Note_on_c, 11, 69, 0
18, 169680, Note_on_c, 11, 73, 52
18, 169759, Note_on_c, 11, 73, 0
18, 169760, Note_on_c, 11, 71, 52
18, 169839, Note_on_c, 11, 71, 0
18, 169840, Note_on_c, 11, 69, 52
18, 169907, Note_on_c, 11, 69, 0
18, 169920, Note_on_c, 11, 68, 52
18, 170099, Note_on_c, 11, 68, 0
18, 170160, Note_on_c, 11, 68, 52
18, 170239, Note_on_c, 11, 68, 0
18, 170240, Note_on_c, 11, 69, 52
18, 170319, Note_on_c, 11, 69, 0
18, 170320, Note_on_c, 11, 71, 52
18, 170387, Note_on_c, 11, 71, 0
18, 170400, Note_on_c, 11, 64, 52
18, 170624, Note_on_c, 11, 64, 0
18, 170640, Note_on_c, 11, 76, 52
18, 170719, Note_on_c, 11, 76, 0
18, 170720, Note_on_c, 11, 74, 52
18, 170799, Note_on_c, 11, 74, 0
18, 170800, Note_on_c, 11, 72, 52
18, 170879, Note_on_c, 11, 72, 0
18, 170880, Note_on_c, 11, 71, 52
18, 171119, Note_on_c, 11, 71, 0
18, 171120, Note_on_c, 11, 74, 52
18, 171199, Note_on_c, 11, 74, 0
18, 171200, Note_on_c, 11, 72, 52
18, 171279, Note_on_c, 11, 72, 0
18, 171280, Note_on_c, 11, 71, 52
18, 171359, Note_on_c, 11, 71, 0
18, 171360, Note_on_c, 11, 69, 52
18, 171599, Note_on_c, 11, 69, 0
18, 171600, Note_on_c, 11, 72, 52
18, 171679, Note_on_c, 11, 72, 0
18, 171680, Note_on_c, 11, 71, 52
18, 171759, Note_on_c, 11, 71, 0
18, 171760, Note_on_c, 11, 69, 52
18, 171827, Note_on_c, 11, 69, 0
18, 171840, Note_on_c, 11, 68, 52
18, 172019, Note_on_c, 11, 68, 0
18, 172080, Note_on_c, 11, 68, 52
18, 172159, Note_on_c, 11, 68, 0
18, 172160, Note_on_c, 11, 69, 52
18, 172239, Note_on_c, 11, 69, 0
18, 172240, Note_on_c, 11, 71, 52
18, 172307, Note_on_c, 11, 71, 0
18, 172320, Note_on_c, 11, 64, 52
18, 172544, Note_on_c, 11, 64, 0
18, 172560, Note_on_c, 11, 60, 52
18, 172739, Note_on_c, 11, 60, 0
18, 172800, Note_on_c, 11, 64, 52
18, 173279, Note_on_c, 11, 64, 0
18, 173280, Note_on_c, 11, 65, 52
18, 173759, Note_on_c, 11, 65, 0
18, 173760, Note_on_c, 11, 67, 52
18, 174464, Note_on_c, 11, 67, 0
18, 174480, Note_on_c, 11, 65, 52
18, 174659, Note_on_c, 11, 65, 0
18, 174720, Note_on_c, 11, 64, 52
18, 175199, Note_on_c, 11, 64, 0
18, 175200, Note_on_c, 11, 65, 52
18, 175664, Note_on_c, 11, 65, 0
18, 175680, Note_on_c, 11, 67, 52
18, 175919, Note_on_c, 11, 67, 0
18, 176880, Note_on_c, 11, 69, 52
18, 176959, Note_on_c, 11, 69, 0
18, 176960, Note_on_c, 11, 71, 52
18, 177039, Note_on_c, 11, 71, 0
18, 177040, Note_on_c, 11, 73, 52
18, 177107, Note_on_c, 11, 73, 0
18, 177120, Note_on_c, 11, 74, 52
18, 177299, Note_on_c, 11, 74, 0
18, 178320, Note_on_c, 11, 71, 52
18, 178559, Note_on_c, 11, 71, 0
18, 178560, Note_on_c, 11, 72, 52
18, 178799, Note_on_c, 11, 72, 0
18, 178800, Note_on_c, 11, 74, 52
18, 179039, Note_on_c, 11, 74, 0
18, 179040, Note_on_c, 11, 75, 52
18, 179279, Note_on_c, 11, 75, 0
18, 179280, Note_on_c, 11, 76, 52
18, 179519, Note_on_c, 11, 76, 0
18, 179520, Note_on_c, 11, 77, 52
18, 179759, Note_on_c, 11, 77, 0
18, 180720, Note_on_c, 11, 69, 52
18, 180799, Note_on_c, 11, 69, 0
18, 180800, Note_on_c, 11, 72, 52
18, 180879, Note_on_c, 11, 72, 0
18, 180880, Note_on_c, 11, 74, 52
18, 180947, Note_on_c, 11, 74, 0
18, 180960, Note_on_c, 11, 76, 52
18, 181139, Note_on_c, 11, 76, 0
18, 181440, Control_c, 11, 11, 80
18, 182160, Note_on_c, 11, 61, 76
18, 182160, Control_c, 11, 11, 80
18, 182213, Control_c, 11, 11, 83
18, 182267, Control_c, 11, 11, 85
18, 182320, Control_c, 11, 11, 88
18, 182373, Control_c, 11, 11, 90
18, 182399, Note_on_c, 11, 61, 0
18, 182400, Note_on_c, 11, 62, 76
18, 182427, Control_c, 11, 11, 93
18, 182480, Control_c, 11, 11, 96
18, 182533, Control_c, 11, 11, 98
18, 182587, Control_c, 11, 11, 101
18, 182639, Note_on_c, 11, 62, 0
18, 182640, Note_on_c, 11, 63, 76
18, 182640, Control_c, 11, 11, 104
18, 182693, Control_c, 11, 11, 106
18, 182747, Control_c, 11, 11, 109
18, 182800, Control_c, 11, 11, 111
18, 182853, Control_c, 11, 11, 114
18, 182879, Note_on_c, 11, 63, 0
18, 182880, Note_on_c, 11, 65, 76
18, 182907, Control_c, 11, 11, 117
18, 182960, Control_c, 11, 11, 119
18, 183013, Control_c, 11, 11, 122
18, 183067, Control_c, 11, 11, 127
18, 183104, Note_on_c, 11, 65, 0
18, 183120, Note_on_c, 11, 77, 76
18, 183199, Note_on_c, 11, 77, 0
18, 183200, Note_on_c, 11, 75, 76
18, 183279, Note_on_c, 11, 75, 0
18, 183280, Note_on_c, 11, 74, 76
18, 183359, Note_on_c, 11, 74, 0
18, 183360, Note_on_c, 11, 72, 76
18, 183599, Note_on_c, 11, 72, 0
18, 183600, Note_on_c, 11, 75, 76
18, 183679, Note_on_c, 11, 75, 0
18, 183680, Note_on_c, 11, 74, 76
18, 183759, Note_on_c, 11, 74, 0
18, 183760, Note_on_c, 11, 72, 76
18, 183839, Note_on_c, 11, 72, 0
18, 183840, Note_on_c, 11, 70, 76
18, 184079, Note_on_c, 11, 70, 0
18, 184080, Note_on_c, 11, 74, 76
18, 184159, Note_on_c, 11, 74, 0
18, 184160, Note_on_c, 11, 72, 76
18, 184239, Note_on_c, 11, 72, 0
18, 184240, Note_on_c, 11, 70, 76
18, 184307, Note_on_c, 11, 70, 0
18, 184320, Note_on_c, 11, 69, 76
18, 184544, Note_on_c, 11, 69, 0
18, 184560, Note_on_c, 11, 81, 76
18, 184627, Note_on_c, 11, 81, 0
18, 184640, Note_on_c, 11, 82, 76
18, 184707, Note_on_c, 11, 82, 0
18, 184720, Note_on_c, 11, 84, 76
18, 184787, Note_on_c, 11, 84, 0
18, 184800, Note_on_c, 11, 77, 76
18, 185039, Note_on_c, 11, 77, 0
18, 186000, Note_on_c, 11, 78, 76
18, 186079, Note_on_c, 11, 78, 0
18, 186080, Note_on_c, 11, 77, 76
18, 186159, Note_on_c, 11, 77, 0
18, 186160, Note_on_c, 11, 75, 76
18, 186239, Note_on_c, 11, 75, 0
18, 186240, Note_on_c, 11, 73, 76
18, 186479, Note_on_c, 11, 73, 0
18, 186480, Note_on_c, 11, 77, 76
18, 186559, Note_on_c, 11, 77, 0
18, 186560, Note_on_c, 11, 75, 76
18, 186639, Note_on_c, 11, 75, 0
18, 186640, Note_on_c, 11, 73, 76
18, 186719, Note_on_c, 11, 73, 0
18, 186720, Note_on_c, 11, 72, 76
18, 186959, Note_on_c, 11, 72, 0
18, 186960, Note_on_c, 11, 75, 76
18, 187039, Note_on_c, 11, 75, 0
18, 187040, Note_on_c, 11, 73, 76
18, 187119, Note_on_c, 11, 73, 0
18, 187120, Note_on_c, 11, 72, 76
18, 187187, Note_on_c, 11, 72, 0
18, 187200, Note_on_c, 11, 70, 76
18, 187424, Note_on_c, 11, 70, 0
18, 187440, Note_on_c, 11, 82, 76
18, 187507, Note_on_c, 11, 82, 0
18, 187520, Note_on_c, 11, 84, 76
18, 187587, Note_on_c, 11, 84, 0
18, 187600, Note_on_c, 11, 85, 76
18, 187667, Note_on_c, 11, 85, 0
18, 187680, Note_on_c, 11, 77, 76
18, 187919, Note_on_c, 11, 77, 0
18, 190080, Note_on_c, 11, 80, 76
18, 190304, Note_on_c, 11, 80, 0
18, 190320, Note_on_c, 11, 84, 76
18, 190387, Note_on_c, 11, 84, 0
18, 190400, Note_on_c, 11, 85, 76
18, 190467, Note_on_c, 11, 85, 0
18, 190480, Note_on_c, 11, 87, 76
18, 190547, Note_on_c, 11, 87, 0
18, 190560, Note_on_c, 11, 80, 76
18, 190799, Note_on_c, 11, 80, 0
18, 191760, Note_on_c, 11, 68, 76
18, 191999, Note_on_c, 11, 68, 0
18, 192000, Note_on_c, 11, 68, 76
18, 192959, Note_on_c, 11, 68, 0
18, 192960, Note_on_c, 11, 68, 76
18, 193184, Note_on_c, 11, 68, 0
18, 193200, Note_on_c, 11, 83, 76
18, 193267, Note_on_c, 11, 83, 0
18, 193280, Note_on_c, 11, 84, 76
18, 193347, Note_on_c, 11, 84, 0
18, 193360, Note_on_c, 11, 86, 76
18, 193427, Note_on_c, 11, 86, 0
18, 193440, Note_on_c, 11, 77, 76
18, 193679, Note_on_c, 11, 77, 0
18, 194640, Note_on_c, 11, 77, 76
18, 194819, Note_on_c, 11, 77, 0
18, 194880, Note_on_c, 11, 76, 76
18, 195239, Note_on_c, 11, 76, 0
18, 195360, Note_on_c, 11, 77, 76
18, 195719, Note_on_c, 11, 77, 0
18, 195840, Note_on_c, 11, 79, 76
18, 197504, Note_on_c, 11, 79, 0
18, 197520, Note_on_c, 11, 77, 76
18, 197699, Note_on_c, 11, 77, 0
18, 197760, Note_on_c, 11, 76, 80
18, 198464, Note_on_c, 11, 76, 0
18, 198480, Note_on_c, 11, 79, 80
18, 198659, Note_on_c, 11, 79, 0
18, 198720, Note_on_c, 11, 77, 80
18, 199424, Note_on_c, 11, 77, 0
18, 199440, Note_on_c, 11, 80, 80
18, 199619, Note_on_c, 11, 80, 0
18, 199680, Note_on_c, 11, 79, 80
18, 200384, Note_on_c, 11, 79, 0
18, 200400, Note_on_c, 11, 82, 80
18, 200579, Note_on_c, 11, 82, 0
18, 200640, Note_on_c, 11, 80, 80
18, 201344, Note_on_c, 11, 80, 0
18, 201360, Note_on_c, 11, 84, 80
18, 201539, Note_on_c, 11, 84, 0
18, 201600, Note_on_c, 11, 83, 80
18, 202304, Note_on_c, 11, 83, 0
18, 202320, Note_on_c, 11, 86, 80
18, 202499, Note_on_c, 11, 86, 0
18, 202560, Note_on_c, 11, 84, 80
18, 203264, Note_on_c, 11, 84, 0
18, 203280, Note_on_c, 11, 87, 80
18, 203459, Note_on_c, 11, 87, 0
18, 203520, Note_on_c, 11, 86, 80
18, 204224, Note_on_c, 11, 86, 0
18, 204240, Note_on_c, 11, 89, 80
18, 204419, Note_on_c, 11, 89, 0
18, 204480, Note_on_c, 11, 87, 80
18, 205184, Note_on_c, 11, 87, 0
18, 205200, Note_on_c, 11, 91, 80
18, 205379, Note_on_c, 11, 91, 0
18, 205440, Note_on_c, 11, 90, 80
18, 205507, Note_on_c, 11, 90, 0
18, 205520, Note_on_c, 11, 90, 80
18, 205587, Note_on_c, 11, 90, 0
18, 205600, Note_on_c, 11, 90, 80
18, 205667, Note_on_c, 11, 90, 0
18, 205680, Note_on_c, 11, 90, 80
18, 205747, Note_on_c, 11, 90, 0
18, 205760, Note_on_c, 11, 90, 80
18, 205827, Note_on_c, 11, 90, 0
18, 205840, Note_on_c, 11, 90, 80
18, 205907, Note_on_c, 11, 90, 0
18, 205920, Note_on_c, 11, 90, 80
18, 205987, Note_on_c, 11, 90, 0
18, 206000, Note_on_c, 11, 90, 80
18, 206067, Note_on_c, 11, 90, 0
18, 206080, Note_on_c, 11, 90, 80
18, 206147, Note_on_c, 11, 90, 0
18, 206160, Note_on_c, 11, 90, 80
18, 206227, Note_on_c, 11, 90, 0
18, 206240, Note_on_c, 11, 90, 80
18, 206307, Note_on_c, 11, 90, 0
18, 206320, Note_on_c, 11, 90, 80
18, 206387, Note_on_c, 11, 90, 0
18, 206400, Note_on_c, 11, 90, 80
18, 206467, Note_on_c, 11, 90, 0
18, 206480, Note_on_c, 11, 90, 80
18, 206547, Note_on_c, 11, 90, 0
18, 206560, Note_on_c, 11, 90, 80
18, 206627, Note_on_c, 11, 90, 0
18, 206640, Note_on_c, 11, 90, 80
18, 206707, Note_on_c, 11, 90, 0
18, 206720, Note_on_c, 11, 90, 80
18, 206787, Note_on_c, 11, 90, 0
18, 206800, Note_on_c, 11, 90, 80
18, 206867, Note_on_c, 11, 90, 0
18, 206880, Note_on_c, 11, 90, 80
18, 206947, Note_on_c, 11, 90, 0
18, 206960, Note_on_c, 11, 90, 80
18, 207027, Note_on_c, 11, 90, 0
18, 207040, Note_on_c, 11, 90, 80
18, 207107, Note_on_c, 11, 90, 0
18, 207120, Note_on_c, 11, 90, 80
18, 207187, Note_on_c, 11, 90, 0
18, 207200, Note_on_c, 11, 90, 80
18, 207267, Note_on_c, 11, 90, 0
18, 207280, Note_on_c, 11, 90, 80
18, 207347, Note_on_c, 11, 90, 0
18, 207360, Note_on_c, 11, 91, 84
18, 207360, Note_on_c, 11, 79, 84
18, 207427, Note_on_c, 11, 91, 0
18, 207427, Note_on_c, 11, 79, 0
18, 207440, Note_on_c, 11, 79, 84
18, 207440, Note_on_c, 11, 91, 84
18, 207507, Note_on_c, 11, 79, 0
18, 207507, Note_on_c, 11, 91, 0
18, 207520, Note_on_c, 11, 91, 84
18, 207520, Note_on_c, 11, 79, 84
18, 207587, Note_on_c, 11, 91, 0
18, 207587, Note_on_c, 11, 79, 0
18, 207600, Note_on_c, 11, 91, 84
18, 207600, Note_on_c, 11, 79, 84
18, 207667, Note_on_c, 11, 91, 0
18, 207667, Note_on_c, 11, 79, 0
18, 207680, Note_on_c, 11, 91, 84
18, 207680, Note_on_c, 11, 79, 84
18, 207747, Note_on_c, 11, 91, 0
18, 207747, Note_on_c, 11, 79, 0
18, 207760, Note_on_c, 11, 79, 84
18, 207760, Note_on_c, 11, 91, 84
18, 207827, Note_on_c, 11, 79, 0
18, 207827, Note_on_c, 11, 91, 0
18, 207840, Note_on_c, 11, 79, 84
18, 207840, Note_on_c, 11, 91, 84
18, 207907, Note_on_c, 11, 79, 0
18, 207907, Note_on_c, 11, 91, 0
18, 207920, Note_on_c, 11, 91, 84
18, 207920, Note_on_c, 11, 79, 84
18, 207987, Note_on_c, 11, 91, 0
18, 207987, Note_on_c, 11, 79, 0
18, 208000, Note_on_c, 11, 79, 84
18, 208000, Note_on_c, 11, 91, 84
18, 208067, Note_on_c, 11, 79, 0
18, 208067, Note_on_c, 11, 91, 0
18, 208080, Note_on_c, 11, 91, 84
18, 208080, Note_on_c, 11, 79, 84
18, 208147, Note_on_c, 11, 91, 0
18, 208147, Note_on_c, 11, 79, 0
18, 208160, Note_on_c, 11, 79, 84
18, 208160, Note_on_c, 11, 91, 84
18, 208227, Note_on_c, 11, 79, 0
18, 208227, Note_on_c, 11, 91, 0
18, 208240, Note_on_c, 11, 91, 84
18, 208240, Note_on_c, 11, 79, 84
18, 208307, Note_on_c, 11, 91, 0
18, 208307, Note_on_c, 11, 79, 0
18, 208320, Note_on_c, 11, 91, 84
18, 208320, Note_on_c, 11, 79, 84
18, 208387, Note_on_c, 11, 91, 0
18, 208387, Note_on_c, 11, 79, 0
18, 208400, Note_on_c, 11, 79, 84
18, 208400, Note_on_c, 11, 91, 84
18, 208467, Note_on_c, 11, 79, 0
18, 208467, Note_on_c, 11, 91, 0
18, 208480, Note_on_c, 11, 79, 84
18, 208480, Note_on_c, 11, 91, 84
18, 208547, Note_on_c, 11, 79, 0
18, 208547, Note_on_c, 11, 91, 0
18, 208560, Note_on_c, 11, 79, 84
18, 208560, Note_on_c, 11, 91, 84
18, 208627, Note_on_c, 11, 79, 0
18, 208627, Note_on_c, 11, 91, 0
18, 208640, Note_on_c, 11, 91, 84
18, 208640, Note_on_c, 11, 79, 84
18, 208707, Note_on_c, 11, 91, 0
18, 208707, Note_on_c, 11, 79, 0
18, 208720, Note_on_c, 11, 79, 84
18, 208720, Note_on_c, 11, 91, 84
18, 208787, Note_on_c, 11, 79, 0
18, 208787, Note_on_c, 11, 91, 0
18, 208800, Note_on_c, 11, 79, 84
18, 208800, Note_on_c, 11, 91, 84
18, 208867, Note_on_c, 11, 79, 0
18, 208867, Note_on_c, 11, 91, 0
18, 208880, Note_on_c, 11, 79, 84
18, 208880, Note_on_c, 11, 91, 84
18, 208947, Note_on_c, 11, 79, 0
18, 208947, Note_on_c, 11, 91, 0
18, 208960, Note_on_c, 11, 91, 84
18, 208960, Note_on_c, 11, 79, 84
18, 209027, Note_on_c, 11, 91, 0
18, 209027, Note_on_c, 11, 79, 0
18, 209040, Note_on_c, 11, 79, 84
18, 209040, Note_on_c, 11, 91, 84
18, 209107, Note_on_c, 11, 79, 0
18, 209107, Note_on_c, 11, 91, 0
18, 209120, Note_on_c, 11, 91, 84
18, 209120, Note_on_c, 11, 79, 84
18, 209187, Note_on_c, 11, 91, 0
18, 209187, Note_on_c, 11, 79, 0
18, 209200, Note_on_c, 11, 91, 84
18, 209200, Note_on_c, 11, 79, 84
18, 209267, Note_on_c, 11, 91, 0
18, 209267, Note_on_c, 11, 79, 0
18, 209280, Note_on_c, 11, 91, 84
18, 209280, Note_on_c, 11, 79, 84
18, 209347, Note_on_c, 11, 91, 0
18, 209347, Note_on_c, 11, 79, 0
18, 209360, Note_on_c, 11, 91, 84
18, 209360, Note_on_c, 11, 79, 84
18, 209427, Note_on_c, 11, 91, 0
18, 209427, Note_on_c, 11, 79, 0
18, 209440, Note_on_c, 11, 91, 84
18, 209440, Note_on_c, 11, 79, 84
18, 209507, Note_on_c, 11, 91, 0
18, 209507, Note_on_c, 11, 79, 0
18, 209520, Note_on_c, 11, 91, 84
18, 209520, Note_on_c, 11, 79, 84
18, 209587, Note_on_c, 11, 91, 0
18, 209587, Note_on_c, 11, 79, 0
18, 209600, Note_on_c, 11, 79, 84
18, 209600, Note_on_c, 11, 91, 84
18, 209667, Note_on_c, 11, 79, 0
18, 209667, Note_on_c, 11, 91, 0
18, 209680, Note_on_c, 11, 91, 84
18, 209680, Note_on_c, 11, 79, 84
18, 209747, Note_on_c, 11, 91, 0
18, 209747, Note_on_c, 11, 79, 0
18, 209760, Note_on_c, 11, 91, 84
18, 209760, Note_on_c, 11, 79, 84
18, 209827, Note_on_c, 11, 91, 0
18, 209827, Note_on_c, 11, 79, 0
18, 209840, Note_on_c, 11, 91, 84
18, 209840, Note_on_c, 11, 79, 84
18, 209907, Note_on_c, 11, 91, 0
18, 209907, Note_on_c, 11, 79, 0
18, 209920, Note_on_c, 11, 91, 84
18, 209920, Note_on_c, 11, 79, 84
18, 209987, Note_on_c, 11, 91, 0
18, 209987, Note_on_c, 11, 79, 0
18, 210000, Note_on_c, 11, 91, 84
18, 210000, Note_on_c, 11, 79, 84
18, 210067, Note_on_c, 11, 91, 0
18, 210067, Note_on_c, 11, 79, 0
18, 210080, Note_on_c, 11, 79, 84
18, 210080, Note_on_c, 11, 91, 84
18, 210147, Note_on_c, 11, 79, 0
18, 210147, Note_on_c, 11, 91, 0
18, 210160, Note_on_c, 11, 79, 84
18, 210160, Note_on_c, 11, 91, 84
18, 210227, Note_on_c, 11, 79, 0
18, 210227, Note_on_c, 11, 91, 0
18, 210240, Note_on_c, 11, 91, 84
18, 210240, Note_on_c, 11, 79, 84
18, 210307, Note_on_c, 11, 91, 0
18, 210307, Note_on_c, 11, 79, 0
18, 210320, Note_on_c, 11, 91, 84
18, 210320, Note_on_c, 11, 79, 84
18, 210387, Note_on_c, 11, 91, 0
18, 210387, Note_on_c, 11, 79, 0
18, 210400, Note_on_c, 11, 91, 84
18, 210400, Note_on_c, 11, 79, 84
18, 210467, Note_on_c, 11, 91, 0
18, 210467, Note_on_c, 11, 79, 0
18, 210480, Note_on_c, 11, 79, 84
18, 210480, Note_on_c, 11, 91, 84
18, 210547, Note_on_c, 11, 79, 0
18, 210547, Note_on_c, 11, 91, 0
18, 210560, Note_on_c, 11, 91, 84
18, 210560, Note_on_c, 11, 79, 84
18, 210627, Note_on_c, 11, 91, 0
18, 210627, Note_on_c, 11, 79, 0
18, 210640, Note_on_c, 11, 79, 84
18, 210640, Note_on_c, 11, 91, 84
18, 210707, Note_on_c, 11, 79, 0
18, 210707, Note_on_c, 11, 91, 0
18, 210720, Note_on_c, 11, 91, 84
18, 210720, Note_on_c, 11, 79, 84
18, 210787, Note_on_c, 11, 91, 0
18, 210787, Note_on_c, 11, 79, 0
18, 210800, Note_on_c, 11, 91, 84
18, 210800, Note_on_c, 11, 79, 84
18, 210867, Note_on_c, 11, 91, 0
18, 210867, Note_on_c, 11, 79, 0
18, 210880, Note_on_c, 11, 91, 84
18, 210880, Note_on_c, 11, 79, 84
18, 210947, Note_on_c, 11, 91, 0
18, 210947, Note_on_c, 11, 79, 0
18, 210960, Note_on_c, 11, 79, 84
18, 210960, Note_on_c, 11, 91, 84
18, 211027, Note_on_c, 11, 79, 0
18, 211027, Note_on_c, 11, 91, 0
18, 211040, Note_on_c, 11, 79, 84
18, 211040, Note_on_c, 11, 91, 84
18, 211107, Note_on_c, 11, 79, 0
18, 211107, Note_on_c, 11, 91, 0
18, 211120, Note_on_c, 11, 79, 84
18, 211120, Note_on_c, 11, 91, 84
18, 211187, Note_on_c, 11, 79, 0
18, 211187, Note_on_c, 11, 91, 0
18, 211200, Note_on_c, 11, 91, 84
18, 211200, Note_on_c, 11, 79, 84
18, 211267, Note_on_c, 11, 91, 0
18, 211267, Note_on_c, 11, 79, 0
18, 211280, Note_on_c, 11, 91, 84
18, 211280, Note_on_c, 11, 79, 84
18, 211347, Note_on_c, 11, 91, 0
18, 211347, Note_on_c, 11, 79, 0
18, 211360, Note_on_c, 11, 79, 84
18, 211360, Note_on_c, 11, 91, 84
18, 211427, Note_on_c, 11, 79, 0
18, 211427, Note_on_c, 11, 91, 0
18, 211440, Note_on_c, 11, 79, 84
18, 211440, Note_on_c, 11, 91, 84
18, 211507, Note_on_c, 11, 79, 0
18, 211507, Note_on_c, 11, 91, 0
18, 211520, Note_on_c, 11, 79, 84
18, 211520, Note_on_c, 11, 91, 84
18, 211587, Note_on_c, 11, 79, 0
18, 211587, Note_on_c, 11, 91, 0
18, 211600, Note_on_c, 11, 79, 84
18, 211600, Note_on_c, 11, 91, 84
18, 211667, Note_on_c, 11, 79, 0
18, 211667, Note_on_c, 11, 91, 0
18, 211680, Note_on_c, 11, 79, 84
18, 211680, Note_on_c, 11, 91, 84
18, 211747, Note_on_c, 11, 79, 0
18, 211747, Note_on_c, 11, 91, 0
18, 211760, Note_on_c, 11, 91, 84
18, 211760, Note_on_c, 11, 79, 84
18, 211827, Note_on_c, 11, 91, 0
18, 211827, Note_on_c, 11, 79, 0
18, 211840, Note_on_c, 11, 91, 84
18, 211840, Note_on_c, 11, 79, 84
18, 211907, Note_on_c, 11, 91, 0
18, 211907, Note_on_c, 11, 79, 0
18, 211920, Note_on_c, 11, 91, 84
18, 211920, Note_on_c, 11, 79, 84
18, 211987, Note_on_c, 11, 91, 0
18, 211987, Note_on_c, 11, 79, 0
18, 212000, Note_on_c, 11, 79, 84
18, 212000, Note_on_c, 11, 91, 84
18, 212067, Note_on_c, 11, 79, 0
18, 212067, Note_on_c, 11, 91, 0
18, 212080, Note_on_c, 11, 79, 84
18, 212080, Note_on_c, 11, 91, 84
18, 212147, Note_on_c, 11, 79, 0
18, 212147, Note_on_c, 11, 91, 0
18, 212160, Note_on_c, 11, 91, 84
18, 212160, Note_on_c, 11, 79, 84
18, 212227, Note_on_c, 11, 91, 0
18, 212227, Note_on_c, 11, 79, 0
18, 212240, Note_on_c, 11, 79, 84
18, 212240, Note_on_c, 11, 91, 84
18, 212307, Note_on_c, 11, 79, 0
18, 212307, Note_on_c, 11, 91, 0
18, 212320, Note_on_c, 11, 91, 84
18, 212320, Note_on_c, 11, 79, 84
18, 212387, Note_on_c, 11, 91, 0
18, 212387, Note_on_c, 11, 79, 0
18, 212400, Note_on_c, 11, 91, 84
18, 212400, Note_on_c, 11, 79, 84
18, 212467, Note_on_c, 11, 91, 0
18, 212467, Note_on_c, 11, 79, 0
18, 212480, Note_on_c, 11, 91, 84
18, 212480, Note_on_c, 11, 79, 84
18, 212547, Note_on_c, 11, 91, 0
18, 212547, Note_on_c, 11, 79, 0
18, 212560, Note_on_c, 11, 79, 84
18, 212560, Note_on_c, 11, 91, 84
18, 212627, Note_on_c, 11, 79, 0
18, 212627, Note_on_c, 11, 91, 0
18, 212640, Note_on_c, 11, 91, 84
18, 212640, Note_on_c, 11, 79, 84
18, 212707, Note_on_c, 11, 91, 0
18, 212707, Note_on_c, 11, 79, 0
18, 212720, Note_on_c, 11, 91, 84
18, 212720, Note_on_c, 11, 79, 84
18, 212787, Note_on_c, 11, 91, 0
18, 212787, Note_on_c, 11, 79, 0
18, 212800, Note_on_c, 11, 79, 84
18, 212800, Note_on_c, 11, 91, 84
18, 212867, Note_on_c, 11, 79, 0
18, 212867, Note_on_c, 11, 91, 0
18, 212880, Note_on_c, 11, 79, 84
18, 212880, Note_on_c, 11, 91, 84
18, 212947, Note_on_c, 11, 79, 0
18, 212947, Note_on_c, 11, 91, 0
18, 212960, Note_on_c, 11, 79, 84
18, 212960, Note_on_c, 11, 91, 84
18, 213027, Note_on_c, 11, 79, 0
18, 213027, Note_on_c, 11, 91, 0
18, 213040, Note_on_c, 11, 79, 84
18, 213040, Note_on_c, 11, 91, 84
18, 213107, Note_on_c, 11, 79, 0
18, 213107, Note_on_c, 11, 91, 0
18, 213120, Note_on_c, 11, 91, 84
18, 213120, Note_on_c, 11, 79, 84
18, 213187, Note_on_c, 11, 91, 0
18, 213187, Note_on_c, 11, 79, 0
18, 213200, Note_on_c, 11, 91, 84
18, 213200, Note_on_c, 11, 79, 84
18, 213267, Note_on_c, 11, 91, 0
18, 213267, Note_on_c, 11, 79, 0
18, 213280, Note_on_c, 11, 91, 84
18, 213280, Note_on_c, 11, 79, 84
18, 213347, Note_on_c, 11, 91, 0
18, 213347, Note_on_c, 11, 79, 0
18, 213360, Note_on_c, 11, 91, 84
18, 213360, Note_on_c, 11, 79, 84
18, 213427, Note_on_c, 11, 91, 0
18, 213427, Note_on_c, 11, 79, 0
18, 213440, Note_on_c, 11, 91, 84
18, 213440, Note_on_c, 11, 79, 84
18, 213507, Note_on_c, 11, 91, 0
18, 213507, Note_on_c, 11, 79, 0
18, 213520, Note_on_c, 11, 79, 84
18, 213520, Note_on_c, 11, 91, 84
18, 213587, Note_on_c, 11, 79, 0
18, 213587, Note_on_c, 11, 91, 0
18, 213600, Note_on_c, 11, 91, 84
18, 213600, Note_on_c, 11, 79, 84
18, 213667, Note_on_c, 11, 91, 0
18, 213667, Note_on_c, 11, 79, 0
18, 213680, Note_on_c, 11, 79, 84
18, 213680, Note_on_c, 11, 91, 84
18, 213747, Note_on_c, 11, 79, 0
18, 213747, Note_on_c, 11, 91, 0
18, 213760, Note_on_c, 11, 79, 84
18, 213760, Note_on_c, 11, 91, 84
18, 213827, Note_on_c, 11, 79, 0
18, 213827, Note_on_c, 11, 91, 0
18, 213840, Note_on_c, 11, 91, 84
18, 213840, Note_on_c, 11, 79, 84
18, 213907, Note_on_c, 11, 91, 0
18, 213907, Note_on_c, 11, 79, 0
18, 213920, Note_on_c, 11, 79, 84
18, 213920, Note_on_c, 11, 91, 84
18, 213987, Note_on_c, 11, 79, 0
18, 213987, Note_on_c, 11, 91, 0
18, 214000, Note_on_c, 11, 79, 84
18, 214000, Note_on_c, 11, 91, 84
18, 214067, Note_on_c, 11, 79, 0
18, 214067, Note_on_c, 11, 91, 0
18, 214080, Note_on_c, 11, 79, 84
18, 214080, Note_on_c, 11, 91, 84
18, 214147, Note_on_c, 11, 79, 0
18, 214147, Note_on_c, 11, 91, 0
18, 214160, Note_on_c, 11, 91, 84
18, 214160, Note_on_c, 11, 79, 84
18, 214227, Note_on_c, 11, 91, 0
18, 214227, Note_on_c, 11, 79, 0
18, 214240, Note_on_c, 11, 79, 84
18, 214240, Note_on_c, 11, 91, 84
18, 214307, Note_on_c, 11, 79, 0
18, 214307, Note_on_c, 11, 91, 0
18, 214320, Note_on_c, 11, 91, 84
18, 214320, Note_on_c, 11, 79, 84
18, 214387, Note_on_c, 11, 91, 0
18, 214387, Note_on_c, 11, 79, 0
18, 214400, Note_on_c, 11, 79, 84
18, 214400, Note_on_c, 11, 91, 84
18, 214467, Note_on_c, 11, 79, 0
18, 214467, Note_on_c, 11, 91, 0
18, 214480, Note_on_c, 11, 91, 84
18, 214480, Note_on_c, 11, 79, 84
18, 214547, Note_on_c, 11, 91, 0
18, 214547, Note_on_c, 11, 79, 0
18, 214560, Note_on_c, 11, 91, 84
18, 214560, Note_on_c, 11, 79, 84
18, 214627, Note_on_c, 11, 91, 0
18, 214627, Note_on_c, 11, 79, 0
18, 214640, Note_on_c, 11, 79, 84
18, 214640, Note_on_c, 11, 91, 84
18, 214707, Note_on_c, 11, 79, 0
18, 214707, Note_on_c, 11, 91, 0
18, 214720, Note_on_c, 11, 91, 84
18, 214720, Note_on_c, 11, 79, 84
18, 214787, Note_on_c, 11, 91, 0
18, 214787, Note_on_c, 11, 79, 0
18, 214800, Note_on_c, 11, 91, 84
18, 214800, Note_on_c, 11, 79, 84
18, 214867, Note_on_c, 11, 91, 0
18, 214867, Note_on_c, 11, 79, 0
18, 214880, Note_on_c, 11, 79, 84
18, 214880, Note_on_c, 11, 91, 84
18, 214947, Note_on_c, 11, 79, 0
18, 214947, Note_on_c, 11, 91, 0
18, 214960, Note_on_c, 11, 79, 84
18, 214960, Note_on_c, 11, 91, 84
18, 215027, Note_on_c, 11, 79, 0
18, 215027, Note_on_c, 11, 91, 0
18, 215040, Note_on_c, 11, 91, 92
18, 215040, Note_on_c, 11, 79, 92
18, 215107, Note_on_c, 11, 91, 0
18, 215107, Note_on_c, 11, 79, 0
18, 215120, Note_on_c, 11, 79, 84
18, 215187, Note_on_c, 11, 79, 0
18, 215200, Note_on_c, 11, 79, 84
18, 215267, Note_on_c, 11, 79, 0
18, 215280, Note_on_c, 11, 79, 84
18, 215347, Note_on_c, 11, 79, 0
18, 215360, Note_on_c, 11, 79, 84
18, 215427, Note_on_c, 11, 79, 0
18, 215440, Note_on_c, 11, 79, 84
18, 215507, Note_on_c, 11, 79, 0
18, 215520, Note_on_c, 11, 79, 84
18, 215587, Note_on_c, 11, 79, 0
18, 215600, Note_on_c, 11, 79, 84
18, 215667, Note_on_c, 11, 79, 0
18, 215680, Note_on_c, 11, 79, 84
18, 215747, Note_on_c, 11, 79, 0
18, 215760, Note_on_c, 11, 79, 84
18, 215827, Note_on_c, 11, 79, 0
18, 215840, Note_on_c, 11, 79, 84
18, 215907, Note_on_c, 11, 79, 0
18, 215920, Note_on_c, 11, 79, 84
18, 215987, Note_on_c, 11, 79, 0
18, 216000, Note_on_c, 11, 80, 92
18, 216067, Note_on_c, 11, 80, 0
18, 216080, Note_on_c, 11, 80, 84
18, 216147, Note_on_c, 11, 80, 0
18, 216160, Note_on_c, 11, 80, 84
18, 216227, Note_on_c, 11, 80, 0
18, 216240, Note_on_c, 11, 80, 84
18, 216307, Note_on_c, 11, 80, 0
18, 216320, Note_on_c, 11, 80, 84
18, 216387, Note_on_c, 11, 80, 0
18, 216400, Note_on_c, 11, 80, 84
18, 216467, Note_on_c, 11, 80, 0
18, 216480, Note_on_c, 11, 80, 84
18, 216547, Note_on_c, 11, 80, 0
18, 216560, Note_on_c, 11, 80, 84
18, 216627, Note_on_c, 11, 80, 0
18, 216640, Note_on_c, 11, 80, 84
18, 216707, Note_on_c, 11, 80, 0
18, 216720, Note_on_c, 11, 80, 84
18, 216787, Note_on_c, 11, 80, 0
18, 216800, Note_on_c, 11, 80, 84
18, 216867, Note_on_c, 11, 80, 0
18, 216880, Note_on_c, 11, 80, 84
18, 216947, Note_on_c, 11, 80, 0
18, 216960, Note_on_c, 11, 81, 84
18, 217027, Note_on_c, 11, 81, 0
18, 217040, Note_on_c, 11, 78, 84
18, 217107, Note_on_c, 11, 78, 0
18, 217120, Note_on_c, 11, 75, 84
18, 217187, Note_on_c, 11, 75, 0
18, 217200, Note_on_c, 11, 72, 84
18, 217267, Note_on_c, 11, 72, 0
18, 217280, Note_on_c, 11, 69, 84
18, 217347, Note_on_c, 11, 69, 0
18, 217360, Note_on_c, 11, 66, 84
18, 217427, Note_on_c, 11, 66, 0
18, 217440, Note_on_c, 11, 63, 84
18, 217507, Note_on_c, 11, 63, 0
18, 217520, Note_on_c, 11, 60, 84
18, 217587, Note_on_c, 11, 60, 0
18, 217600, Note_on_c, 11, 57, 84
18, 217667, Note_on_c, 11, 57, 0
18, 217680, Note_on_c, 11, 60, 84
18, 217747, Note_on_c, 11, 60, 0
18, 217760, Note_on_c, 11, 63, 84
18, 217827, Note_on_c, 11, 63, 0
18, 217840, Note_on_c, 11, 66, 84
18, 217907, Note_on_c, 11, 66, 0
18, 217920, Note_on_c, 11, 69, 84
18, 217987, Note_on_c, 11, 69, 0
18, 218000, Note_on_c, 11, 72, 84
18, 218067, Note_on_c, 11, 72, 0
18, 218080, Note_on_c, 11, 75, 84
18, 218147, Note_on_c, 11, 75, 0
18, 218160, Note_on_c, 11, 78, 84
18, 218227, Note_on_c, 11, 78, 0
18, 218240, Note_on_c, 11, 81, 84
18, 218307, Note_on_c, 11, 81, 0
18, 218320, Note_on_c, 11, 81, 84
18, 218387, Note_on_c, 11, 81, 0
18, 218400, Note_on_c, 11, 81, 84
18, 218467, Note_on_c, 11, 81, 0
18, 218480, Note_on_c, 11, 81, 84
18, 218547, Note_on_c, 11, 81, 0
18, 218560, Note_on_c, 11, 81, 84
18, 218627, Note_on_c, 11, 81, 0
18, 218640, Note_on_c, 11, 81, 84
18, 218707, Note_on_c, 11, 81, 0
18, 218720, Note_on_c, 11, 81, 84
18, 218787, Note_on_c, 11, 81, 0
18, 218800, Note_on_c, 11, 81, 84
18, 218867, Note_on_c, 11, 81, 0
18, 218880, Note_on_c, 11, 83, 84
18, 218931, Note_on_c, 11, 83, 0
18, 218940, Note_on_c, 11, 83, 84
18, 218991, Note_on_c, 11, 83, 0
18, 219000, Note_on_c, 11, 83, 84
18, 219051, Note_on_c, 11, 83, 0
18, 219060, Note_on_c, 11, 83, 84
18, 219111, Note_on_c, 11, 83, 0
18, 219120, Note_on_c, 11, 83, 84
18, 219171, Note_on_c, 11, 83, 0
18, 219180, Note_on_c, 11, 83, 84
18, 219231, Note_on_c, 11, 83, 0
18, 219240, Note_on_c, 11, 83, 84
18, 219291, Note_on_c, 11, 83, 0
18, 219300, Note_on_c, 11, 83, 84
18, 219351, Note_on_c, 11, 83, 0
18, 219360, Note_on_c, 11, 83, 84
18, 219411, Note_on_c, 11, 83, 0
18, 219420, Note_on_c, 11, 83, 84
18, 219471, Note_on_c, 11, 83, 0
18, 219480, Note_on_c, 11, 86, 84
18, 219531, Note_on_c, 11, 86, 0
18, 219540, Note_on_c, 11, 86, 84
18, 219591, Note_on_c, 11, 86, 0
18, 219600, Note_on_c, 11, 83, 84
18, 219651, Note_on_c, 11, 83, 0
18, 219660, Note_on_c, 11, 83, 84
18, 219711, Note_on_c, 11, 83, 0
18, 219720, Note_on_c, 11, 86, 84
18, 219771, Note_on_c, 11, 86, 0
18, 219780, Note_on_c, 11, 86, 84
18, 219831, Note_on_c, 11, 86, 0
18, 219840, Note_on_c, 11, 91, 84
18, 219891, Note_on_c, 11, 91, 0
18, 219900, Note_on_c, 11, 91, 84
18, 219951, Note_on_c, 11, 91, 0
18, 219960, Note_on_c, 11, 91, 84
18, 220011, Note_on_c, 11, 91, 0
18, 220020, Note_on_c, 11, 91, 84
18, 220071, Note_on_c, 11, 91, 0
18, 220080, Note_on_c, 11, 91, 84
18, 220131, Note_on_c, 11, 91, 0
18, 220140, Note_on_c, 11, 91, 84
18, 220191, Note_on_c, 11, 91, 0
18, 220200, Note_on_c, 11, 91, 84
18, 220251, Note_on_c, 11, 91, 0
18, 220260, Note_on_c, 11, 91, 84
18, 220311, Note_on_c, 11, 91, 0
18, 220320, Note_on_c, 11, 91, 84
18, 220371, Note_on_c, 11, 91, 0
18, 220380, Note_on_c, 11, 91, 84
18, 220431, Note_on_c, 11, 91, 0
18, 220440, Note_on_c, 11, 86, 84
18, 220491, Note_on_c, 11, 86, 0
18, 220500, Note_on_c, 11, 86, 84
18, 220551, Note_on_c, 11, 86, 0
18, 220560, Note_on_c, 11, 83, 84
18, 220611, Note_on_c, 11, 83, 0
18, 220620, Note_on_c, 11, 83, 84
18, 220671, Note_on_c, 11, 83, 0
18, 220680, Note_on_c, 11, 86, 84
18, 220731, Note_on_c, 11, 86, 0
18, 220740, Note_on_c, 11, 86, 84
18, 220791, Note_on_c, 11, 86, 0
18, 220800, Note_on_c, 11, 91, 84
18, 220851, Note_on_c, 11, 91, 0
18, 220860, Note_on_c, 11, 91, 84
18, 220911, Note_on_c, 11, 91, 0
18, 220920, Note_on_c, 11, 86, 84
18, 220971, Note_on_c, 11, 86, 0
18, 220980, Note_on_c, 11, 86, 84
18, 221031, Note_on_c, 11, 86, 0
18, 221040, Note_on_c, 11, 83, 84
18, 221091, Note_on_c, 11, 83, 0
18, 221100, Note_on_c, 11, 83, 84
18, 221151, Note_on_c, 11, 83, 0
18, 221160, Note_on_c, 11, 86, 84
18, 221211, Note_on_c, 11, 86, 0
18, 221220, Note_on_c, 11, 86, 84
18, 221271, Note_on_c, 11, 86, 0
18, 221280, Note_on_c, 11, 86, 84
18, 221331, Note_on_c, 11, 86, 0
18, 221340, Note_on_c, 11, 86, 84
18, 221391, Note_on_c, 11, 86, 0
18, 221400, Note_on_c, 11, 83, 84
18, 221451, Note_on_c, 11, 83, 0
18, 221460, Note_on_c, 11, 83, 84
18, 221511, Note_on_c, 11, 83, 0
18, 221520, Note_on_c, 11, 79, 84
18, 221571, Note_on_c, 11, 79, 0
18, 221580, Note_on_c, 11, 79, 84
18, 221631, Note_on_c, 11, 79, 0
18, 221640, Note_on_c, 11, 83, 84
18, 221691, Note_on_c, 11, 83, 0
18, 221700, Note_on_c, 11, 83, 84
18, 221751, Note_on_c, 11, 83, 0
18, 221760, Note_on_c, 11, 83, 84
18, 221811, Note_on_c, 11, 83, 0
18, 221820, Note_on_c, 11, 83, 84
18, 221871, Note_on_c, 11, 83, 0
18, 221880, Note_on_c, 11, 79, 84
18, 221931, Note_on_c, 11, 79, 0
18, 221940, Note_on_c, 11, 79, 84
18, 221991, Note_on_c, 11, 79, 0
18, 222000, Note_on_c, 11, 74, 84
18, 222051, Note_on_c, 11, 74, 0
18, 222060, Note_on_c, 11, 74, 84
18, 222111, Note_on_c, 11, 74, 0
18, 222120, Note_on_c, 11, 79, 84
18, 222171, Note_on_c, 11, 79, 0
18, 222180, Note_on_c, 11, 79, 84
18, 222231, Note_on_c, 11, 79, 0
18, 222240, Note_on_c, 11, 79, 84
18, 222291, Note_on_c, 11, 79, 0
18, 222300, Note_on_c, 11, 79, 84
18, 222351, Note_on_c, 11, 79, 0
18, 222360, Note_on_c, 11, 74, 84
18, 222411, Note_on_c, 11, 74, 0
18, 222420, Note_on_c, 11, 74, 84
18, 222471, Note_on_c, 11, 74, 0
18, 222480, Note_on_c, 11, 71, 84
18, 222531, Note_on_c, 11, 71, 0
18, 222540, Note_on_c, 11, 71, 84
18, 222591, Note_on_c, 11, 71, 0
18, 222600, Note_on_c, 11, 74, 84
18, 222651, Note_on_c, 11, 74, 0
18, 222660, Note_on_c, 11, 74, 84
18, 222711, Note_on_c, 11, 74, 0
18, 222720, Note_on_c, 11, 74, 84
18, 222771, Note_on_c, 11, 74, 0
18, 222780, Note_on_c, 11, 74, 84
18, 222831, Note_on_c, 11, 74, 0
18, 222840, Note_on_c, 11, 71, 84
18, 222891, Note_on_c, 11, 71, 0
18, 222900, Note_on_c, 11, 71, 84
18, 222951, Note_on_c, 11, 71, 0
18, 222960, Note_on_c, 11, 67, 84
18, 223011, Note_on_c, 11, 67, 0
18, 223020, Note_on_c, 11, 67, 84
18, 223071, Note_on_c, 11, 67, 0
18, 223080, Note_on_c, 11, 71, 84
18, 223131, Note_on_c, 11, 71, 0
18, 223140, Note_on_c, 11, 71, 84
18, 223191, Note_on_c, 11, 71, 0
18, 223200, Note_on_c, 11, 71, 84
18, 223251, Note_on_c, 11, 71, 0
18, 223260, Note_on_c, 11, 71, 84
18, 223311, Note_on_c, 11, 71, 0
18, 223320, Note_on_c, 11, 67, 84
18, 223371, Note_on_c, 11, 67, 0
18, 223380, Note_on_c, 11, 67, 84
18, 223431, Note_on_c, 11, 67, 0
18, 223440, Note_on_c, 11, 62, 84
18, 223491, Note_on_c, 11, 62, 0
18, 223500, Note_on_c, 11, 62, 84
18, 223551, Note_on_c, 11, 62, 0
18, 223560, Note_on_c, 11, 67, 84
18, 223611, Note_on_c, 11, 67, 0
18, 223620, Note_on_c, 11, 67, 84
18, 223671, Note_on_c, 11, 67, 0
18, 223680, Note_on_c, 11, 67, 84
18, 223731, Note_on_c, 11, 67, 0
18, 223740, Note_on_c, 11, 67, 84
18, 223791, Note_on_c, 11, 67, 0
18, 223800, Note_on_c, 11, 62, 84
18, 223851, Note_on_c, 11, 62, 0
18, 223860, Note_on_c, 11, 62, 84
18, 223911, Note_on_c, 11, 62, 0
18, 223920, Note_on_c, 11, 59, 84
18, 223971, Note_on_c, 11, 59, 0
18, 223980, Note_on_c, 11, 59, 84
18, 224031, Note_on_c, 11, 59, 0
18, 224040, Note_on_c, 11, 62, 84
18, 224091, Note_on_c, 11, 62, 0
18, 224100, Note_on_c, 11, 62, 84
18, 224151, Note_on_c, 11, 62, 0
18, 224160, Note_on_c, 11, 67, 84
18, 224211, Note_on_c, 11, 67, 0
18, 224220, Note_on_c, 11, 67, 84
18, 224271, Note_on_c, 11, 67, 0
18, 224280, Note_on_c, 11, 62, 84
18, 224331, Note_on_c, 11, 62, 0
18, 224340, Note_on_c, 11, 62, 84
18, 224391, Note_on_c, 11, 62, 0
18, 224400, Note_on_c, 11, 59, 84
18, 224451, Note_on_c, 11, 59, 0
18, 224460, Note_on_c, 11, 59, 84
18, 224511, Note_on_c, 11, 59, 0
18, 224520, Note_on_c, 11, 62, 84
18, 224571, Note_on_c, 11, 62, 0
18, 224580, Note_on_c, 11, 62, 84
18, 224631, Note_on_c, 11, 62, 0
18, 224640, Note_on_c, 11, 67, 84
18, 224640, Note_on_c, 11, 55, 84
18, 225584, Note_on_c, 11, 67, 0
18, 225584, Note_on_c, 11, 55, 0
18, 225600, Note_on_c, 11, 71, 84
18, 225600, Note_on_c, 11, 62, 84
18, 225600, Note_on_c, 11, 55, 84
18, 225839, Note_on_c, 11, 62, 0
18, 225839, Note_on_c, 11, 55, 0
18, 226544, Note_on_c, 11, 71, 0
18, 226560, Note_on_c, 11, 62, 84
18, 226560, Note_on_c, 11, 55, 84
18, 226560, Note_on_c, 11, 74, 84
18, 226799, Note_on_c, 11, 62, 0
18, 226799, Note_on_c, 11, 55, 0
18, 227504, Note_on_c, 11, 74, 0
18, 227520, Note_on_c, 11, 71, 84
18, 227520, Note_on_c, 11, 79, 84
18, 227520, Note_on_c, 11, 62, 84
18, 227520, Note_on_c, 11, 55, 84
18, 227759, Note_on_c, 11, 71, 0
18, 227759, Note_on_c, 11, 79, 0
18, 227759, Note_on_c, 11, 62, 0
18, 227759, Note_on_c, 11, 55, 0
18, 228240, Note_on_c, 11, 67, 84
18, 228479, Note_on_c, 11, 67, 0
18, 228960, Note_on_c, 11, 67, 78
18, 229199, Note_on_c, 11, 67, 0
18, 229680, Note_on_c, 11, 67, 71
18, 229919, Note_on_c, 11, 67, 0
18, 230400, Note_on_c, 11, 67, 64
18, 230639, Note_on_c, 11, 67, 0
18, 231120, Note_on_c, 11, 67, 58
18, 231359, Note_on_c, 11, 67, 0
18, 231840, Note_on_c, 11, 67, 51
18, 232079, Note_on_c, 11, 67, 0
18, 232560, Note_on_c, 11, 67, 44
18, 232779, Note_on_c, 11, 67, 0
18, 232800, Note_on_c, 11, 67, 44
18, 233019, Note_on_c, 11, 67, 0
18, 233040, Note_on_c, 11, 67, 44
18, 233259, Note_on_c, 11, 67, 0
18, 233280, Note_on_c, 11, 67, 44
18, 233519, Note_on_c, 11, 67, 0
18, 234000, Note_on_c, 11, 67, 44
18, 234219, Note_on_c, 11, 67, 0
18, 234240, Note_on_c, 11, 67, 44
18, 234459, Note_on_c, 11, 67, 0
18, 234480, Note_on_c, 11, 67, 44
18, 234699, Note_on_c, 11, 67, 0
18, 234720, Note_on_c, 11, 67, 44
18, 234959, Note_on_c, 11, 67, 0
18, 235200, Program_c, 11, 45
18, 235440, Note_on_c, 11, 65, 44
18, 235679, Note_on_c, 11, 65, 0
18, 236160, Note_on_c, 11, 63, 44
18, 236399, Note_on_c, 11, 63, 0
18, 236880, Note_on_c, 11, 65, 44
18, 237119, Note_on_c, 11, 65, 0
18, 237600, Note_on_c, 11, 62, 44
18, 237839, Note_on_c, 11, 62, 0
18, 238080, Program_c, 11, 48
18, 238320, Note_on_c, 11, 72, 44
18, 238539, Note_on_c, 11, 72, 0
18, 238560, Note_on_c, 11, 72, 44
18, 238779, Note_on_c, 11, 72, 0
18, 238800, Note_on_c, 11, 72, 44
18, 239019, Note_on_c, 11, 72, 0
18, 239040, Note_on_c, 11, 72, 44
18, 239279, Note_on_c, 11, 72, 0
18, 239760, Note_on_c, 11, 72, 44
18, 239979, Note_on_c, 11, 72, 0
18, 240000, Note_on_c, 11, 72, 44
18, 240219, Note_on_c, 11, 72, 0
18, 240240, Note_on_c, 11, 72, 44
18, 240459, Note_on_c, 11, 72, 0
18, 240480, Note_on_c, 11, 72, 44
18, 240719, Note_on_c, 11, 72, 0
18, 240960, Program_c, 11, 45
18, 241200, Note_on_c, 11, 64, 44
18, 241439, Note_on_c, 11, 64, 0
18, 241920, Note_on_c, 11, 65, 44
18, 242159, Note_on_c, 11, 65, 0
18, 242640, Note_on_c, 11, 66, 44
18, 242879, Note_on_c, 11, 66, 0
18, 243360, Note_on_c, 11, 67, 44
18, 243599, Note_on_c, 11, 67, 0
18, 245520, Note_on_c, 11, 55, 44
18, 245520, Note_on_c, 11, 63, 44
18, 245759, Note_on_c, 11, 55, 0
18, 245759, Note_on_c, 11, 63, 0
18, 246240, Note_on_c, 11, 55, 44
18, 246240, Note_on_c, 11, 62, 44
18, 246479, Note_on_c, 11, 55, 0
18, 246479, Note_on_c, 11, 62, 0
18, 248400, Note_on_c, 11, 55, 44
18, 248400, Note_on_c, 11, 63, 44
18, 248639, Note_on_c, 11, 55, 0
18, 248639, Note_on_c, 11, 63, 0
18, 249120, Note_on_c, 11, 55, 44
18, 249120, Note_on_c, 11, 62, 44
18, 249359, Note_on_c, 11, 55, 0
18, 249359, Note_on_c, 11, 62, 0
18, 264240, Program_c, 11, 48
18, 264960, Note_on_c, 11, 83, 44
18, 265059, Note_on_c, 11, 83, 0
18, 265080, Note_on_c, 11, 83, 47
18, 265179, Note_on_c, 11, 83, 0
18, 265200, Note_on_c, 11, 83, 50
18, 265299, Note_on_c, 11, 83, 0
18, 265320, Note_on_c, 11, 83, 54
18, 265419, Note_on_c, 11, 83, 0
18, 265440, Note_on_c, 11, 83, 57
18, 265539, Note_on_c, 11, 83, 0
18, 265560, Note_on_c, 11, 83, 60
18, 265659, Note_on_c, 11, 83, 0
18, 265680, Note_on_c, 11, 83, 64
18, 265779, Note_on_c, 11, 83, 0
18, 265800, Note_on_c, 11, 83, 67
18, 265899, Note_on_c, 11, 83, 0
18, 265920, Note_on_c, 11, 83, 70
18, 266019, Note_on_c, 11, 83, 0
18, 266040, Note_on_c, 11, 83, 74
18, 266139, Note_on_c, 11, 83, 0
18, 266160, Note_on_c, 11, 83, 77
18, 266259, Note_on_c, 11, 83, 0
18, 266280, Note_on_c, 11, 83, 80
18, 266379, Note_on_c, 11, 83, 0
18, 266400, Note_on_c, 11, 84, 84
18, 266400, Note_on_c, 11, 67, 84
18, 266400, Note_on_c, 11, 76, 84
18, 266579, Note_on_c, 11, 84, 0
18, 266579, Note_on_c, 11, 67, 0
18, 266579, Note_on_c, 11, 76, 0
18, 266880, Note_on_c, 11, 64, 84
18, 266880, Note_on_c, 11, 76, 84
18, 266880, Note_on_c, 11, 55, 84
18, 266880, Note_on_c, 11, 72, 84
18, 267059, Note_on_c, 11, 64, 0
18, 267059, Note_on_c, 11, 76, 0
18, 267059, Note_on_c, 11, 55, 0
18, 267059, Note_on_c, 11, 72, 0
18, 267360, Note_on_c, 11, 64, 84
18, 267360, Note_on_c, 11, 55, 84
18, 267360, Note_on_c, 11, 72, 84
18, 267360, Note_on_c, 11, 79, 84
18, 267599, Note_on_c, 11, 64, 0
18, 267599, Note_on_c, 11, 55, 0
18, 267599, Note_on_c, 11, 72, 0
18, 268064, Note_on_c, 11, 79, 0
18, 268080, Note_on_c, 11, 77, 84
18, 268080, Note_on_c, 11, 71, 84
18, 268080, Note_on_c, 11, 55, 84
18, 268080, Note_on_c, 11, 62, 84
18, 268199, Note_on_c, 11, 77, 0
18, 268199, Note_on_c, 11, 71, 0
18, 268199, Note_on_c, 11, 55, 0
18, 268199, Note_on_c, 11, 62, 0
18, 268320, Note_on_c, 11, 55, 84
18, 268320, Note_on_c, 11, 76, 84
18, 268320, Note_on_c, 11, 64, 84
18, 268320, Note_on_c, 11, 72, 84
18, 268439, Note_on_c, 11, 55, 0
18, 268439, Note_on_c, 11, 76, 0
18, 268439, Note_on_c, 11, 64, 0
18, 268439, Note_on_c, 11, 72, 0
18, 268560, Note_on_c, 11, 65, 84
18, 268560, Note_on_c, 11, 55, 84
18, 268560, Note_on_c, 11, 74, 84
18, 268679, Note_on_c, 11, 65, 0
18, 268679, Note_on_c, 11, 55, 0
18, 268679, Note_on_c, 11, 74, 0
18, 268800, Note_on_c, 11, 72, 84
18, 268800, Note_on_c, 11, 55, 84
18, 268800, Note_on_c, 11, 64, 84
18, 268919, Note_on_c, 11, 72, 0
18, 268919, Note_on_c, 11, 55, 0
18, 268919, Note_on_c, 11, 64, 0
18, 269040, Note_on_c, 11, 74, 84
18, 269040, Note_on_c, 11, 55, 84
18, 269040, Note_on_c, 11, 65, 84
18, 269159, Note_on_c, 11, 74, 0
18, 269159, Note_on_c, 11, 55, 0
18, 269159, Note_on_c, 11, 65, 0
18, 269280, Note_on_c, 11, 72, 84
18, 269280, Note_on_c, 11, 55, 84
18, 269280, Note_on_c, 11, 64, 84
18, 269519, Note_on_c, 11, 55, 0
18, 269519, Note_on_c, 11, 64, 0
18, 269984, Note_on_c, 11, 72, 0
18, 270000, Note_on_c, 11, 72, 84
18, 270171, Note_on_c, 11, 72, 0
18, 270180, Note_on_c, 11, 72, 84
18, 270231, Note_on_c, 11, 72, 0
18, 270240, Note_on_c, 11, 55, 84
18, 270240, Note_on_c, 11, 74, 84
18, 270240, Note_on_c, 11, 67, 84
18, 270479, Note_on_c, 11, 55, 0
18, 270479, Note_on_c, 11, 67, 0
18, 270944, Note_on_c, 11, 74, 0
18, 270960, Note_on_c, 11, 74, 84
18, 271131, Note_on_c, 11, 74, 0
18, 271140, Note_on_c, 11, 74, 84
18, 271191, Note_on_c, 11, 74, 0
18, 271200, Note_on_c, 11, 76, 84
18, 271200, Note_on_c, 11, 67, 84
18, 271200, Note_on_c, 11, 72, 84
18, 271200, Note_on_c, 11, 60, 84
18, 271439, Note_on_c, 11, 67, 0
18, 271439, Note_on_c, 11, 72, 0
18, 271439, Note_on_c, 11, 60, 0
18, 271784, Note_on_c, 11, 76, 0
18, 271800, Note_on_c, 11, 72, 84
18, 271889, Note_on_c, 11, 72, 0
18, 271920, Note_on_c, 11, 74, 84
18, 272009, Note_on_c, 11, 74, 0
18, 272040, Note_on_c, 11, 76, 84
18, 272129, Note_on_c, 11, 76, 0
18, 272160, Note_on_c, 11, 77, 84
18, 272249, Note_on_c, 11, 77, 0
18, 272280, Note_on_c, 11, 76, 84
18, 272369, Note_on_c, 11, 76, 0
18, 272400, Note_on_c, 11, 77, 84
18, 272489, Note_on_c, 11, 77, 0
18, 272520, Note_on_c, 11, 79, 84
18, 272609, Note_on_c, 11, 79, 0
18, 272640, Note_on_c, 11, 81, 84
18, 272729, Note_on_c, 11, 81, 0
18, 272760, Note_on_c, 11, 79, 84
18, 272849, Note_on_c, 11, 79, 0
18, 272880, Note_on_c, 11, 81, 84
18, 272969, Note_on_c, 11, 81, 0
18, 273000, Note_on_c, 11, 83, 84
18, 273089, Note_on_c, 11, 83, 0
18, 273120, Note_on_c, 11, 84, 84
18, 273704, Note_on_c, 11, 84, 0
18, 273720, Note_on_c, 11, 72, 84
18, 273809, Note_on_c, 11, 72, 0
18, 273840, Note_on_c, 11, 74, 84
18, 273929, Note_on_c, 11, 74, 0
18, 273960, Note_on_c, 11, 76, 84
18, 274049, Note_on_c, 11, 76, 0
18, 274080, Note_on_c, 11, 77, 84
18, 274169, Note_on_c, 11, 77, 0
18, 274200, Note_on_c, 11, 76, 84
18, 274289, Note_on_c, 11, 76, 0
18, 274320, Note_on_c, 11, 77, 84
18, 274409, Note_on_c, 11, 77, 0
18, 274440, Note_on_c, 11, 79, 84
18, 274529, Note_on_c, 11, 79, 0
18, 274560, Note_on_c, 11, 81, 84
18, 274649, Note_on_c, 11, 81, 0
18, 274680, Note_on_c, 11, 79, 84
18, 274769, Note_on_c, 11, 79, 0
18, 274800, Note_on_c, 11, 81, 84
18, 274889, Note_on_c, 11, 81, 0
18, 274920, Note_on_c, 11, 83, 84
18, 275009, Note_on_c, 11, 83, 0
18, 275040, Note_on_c, 11, 84, 84
18, 275624, Note_on_c, 11, 84, 0
18, 275640, Note_on_c, 11, 72, 84
18, 275729, Note_on_c, 11, 72, 0
18, 275760, Note_on_c, 11, 74, 84
18, 275849, Note_on_c, 11, 74, 0
18, 275880, Note_on_c, 11, 76, 84
18, 275947, Note_on_c, 11, 76, 0
18, 275960, Note_on_c, 11, 79, 84
18, 275999, Note_on_c, 11, 79, 0
18, 276000, Note_on_c, 11, 77, 84
18, 276089, Note_on_c, 11, 77, 0
18, 276120, Note_on_c, 11, 76, 84
18, 276209, Note_on_c, 11, 76, 0
18, 276240, Note_on_c, 11, 77, 84
18, 276329, Note_on_c, 11, 77, 0
18, 276360, Note_on_c, 11, 79, 84
18, 276427, Note_on_c, 11, 79, 0
18, 276440, Note_on_c, 11, 83, 84
18, 276479, Note_on_c, 11, 83, 0
18, 276480, Note_on_c, 11, 81, 84
18, 276569, Note_on_c, 11, 81, 0
18, 276600, Note_on_c, 11, 79, 84
18, 276689, Note_on_c, 11, 79, 0
18, 276720, Note_on_c, 11, 81, 84
18, 276809, Note_on_c, 11, 81, 0
18, 276840, Note_on_c, 11, 83, 84
18, 276907, Note_on_c, 11, 83, 0
18, 276920, Note_on_c, 11, 86, 84
18, 276959, Note_on_c, 11, 86, 0
18, 276960, Note_on_c, 11, 84, 84
18, 277049, Note_on_c, 11, 84, 0
18, 277080, Note_on_c, 11, 83, 84
18, 277169, Note_on_c, 11, 83, 0
18, 277200, Note_on_c, 11, 84, 84
18, 277289, Note_on_c, 11, 84, 0
18, 277320, Note_on_c, 11, 86, 84
18, 277409, Note_on_c, 11, 86, 0
18, 277440, Note_on_c, 11, 88, 84
18, 277664, Note_on_c, 11, 88, 0
18, 277680, Note_on_c, 11, 79, 84
18, 277799, Note_on_c, 11, 79, 0
18, 277860, Note_on_c, 11, 88, 84
18, 277911, Note_on_c, 11, 88, 0
18, 277920, Note_on_c, 11, 88, 84
18, 278039, Note_on_c, 11, 88, 0
18, 278040, Note_on_c, 11, 86, 84
18, 278144, Note_on_c, 11, 86, 0
18, 278160, Note_on_c, 11, 77, 84
18, 278279, Note_on_c, 11, 77, 0
18, 278340, Note_on_c, 11, 86, 84
18, 278391, Note_on_c, 11, 86, 0
18, 278400, Note_on_c, 11, 86, 84
18, 278519, Note_on_c, 11, 86, 0
18, 278520, Note_on_c, 11, 84, 84
18, 278624, Note_on_c, 11, 84, 0
18, 278640, Note_on_c, 11, 76, 84
18, 278759, Note_on_c, 11, 76, 0
18, 278820, Note_on_c, 11, 84, 84
18, 278871, Note_on_c, 11, 84, 0
18, 278880, Note_on_c, 11, 84, 84
18, 278999, Note_on_c, 11, 84, 0
18, 279000, Note_on_c, 11, 83, 84
18, 279104, Note_on_c, 11, 83, 0
18, 279120, Note_on_c, 11, 83, 84
18, 279584, Note_on_c, 11, 83, 0
18, 279600, Note_on_c, 11, 84, 84
18, 279719, Note_on_c, 11, 84, 0
18, 279780, Note_on_c, 11, 88, 84
18, 279831, Note_on_c, 11, 88, 0
18, 279840, Note_on_c, 11, 88, 84
18, 279959, Note_on_c, 11, 88, 0
18, 279960, Note_on_c, 11, 86, 84
18, 280064, Note_on_c, 11, 86, 0
18, 280080, Note_on_c, 11, 77, 84
18, 280199, Note_on_c, 11, 77, 0
18, 280260, Note_on_c, 11, 86, 84
18, 280311, Note_on_c, 11, 86, 0
18, 280320, Note_on_c, 11, 86, 84
18, 280439, Note_on_c, 11, 86, 0
18, 280440, Note_on_c, 11, 84, 84
18, 280544, Note_on_c, 11, 84, 0
18, 280560, Note_on_c, 11, 76, 84
18, 280679, Note_on_c, 11, 76, 0
18, 280740, Note_on_c, 11, 84, 84
18, 280791, Note_on_c, 11, 84, 0
18, 280800, Note_on_c, 11, 84, 84
18, 280919, Note_on_c, 11, 84, 0
18, 280920, Note_on_c, 11, 83, 84
18, 281024, Note_on_c, 11, 83, 0
18, 281040, Note_on_c, 11, 83, 84
18, 281504, Note_on_c, 11, 83, 0
18, 281520, Note_on_c, 11, 84, 84
18, 281609, Note_on_c, 11, 84, 0
18, 281700, Note_on_c, 11, 88, 84
18, 281744, Note_on_c, 11, 88, 0
18, 281760, Note_on_c, 11, 88, 84
18, 281849, Note_on_c, 11, 88, 0
18, 281940, Note_on_c, 11, 86, 84
18, 281984, Note_on_c, 11, 86, 0
18, 282000, Note_on_c, 11, 77, 84
18, 282089, Note_on_c, 11, 77, 0
18, 282180, Note_on_c, 11, 86, 84
18, 282224, Note_on_c, 11, 86, 0
18, 282240, Note_on_c, 11, 86, 84
18, 282329, Note_on_c, 11, 86, 0
18, 282420, Note_on_c, 11, 84, 84
18, 282464, Note_on_c, 11, 84, 0
18, 282480, Note_on_c, 11, 76, 84
18, 282569, Note_on_c, 11, 76, 0
18, 282660, Note_on_c, 11, 84, 84
18, 282704, Note_on_c, 11, 84, 0
18, 282720, Note_on_c, 11, 83, 84
18, 282809, Note_on_c, 11, 83, 0
18, 282900, Note_on_c, 11, 74, 84
18, 282951, Note_on_c, 11, 74, 0
18, 282960, Note_on_c, 11, 79, 84
18, 283424, Note_on_c, 11, 79, 0
18, 283440, Note_on_c, 11, 81, 84
18, 283499, Note_on_c, 11, 81, 0
18, 283500, Note_on_c, 11, 79, 84
18, 283559, Note_on_c, 11, 79, 0
18, 283560, Note_on_c, 11, 77, 84
18, 283619, Note_on_c, 11, 77, 0
18, 283620, Note_on_c, 11, 76, 84
18, 283671, Note_on_c, 11, 76, 0
18, 283680, Note_on_c, 11, 74, 84
18, 283799, Note_on_c, 11, 74, 0
18, 283860, Note_on_c, 11, 74, 84
18, 283911, Note_on_c, 11, 74, 0
18, 283920, Note_on_c, 11, 79, 84
18, 284384, Note_on_c, 11, 79, 0
18, 284400, Note_on_c, 11, 81, 84
18, 284459, Note_on_c, 11, 81, 0
18, 284460, Note_on_c, 11, 79, 84
18, 284519, Note_on_c, 11, 79, 0
18, 284520, Note_on_c, 11, 77, 84
18, 284579, Note_on_c, 11, 77, 0
18, 284580, Note_on_c, 11, 76, 84
18, 284631, Note_on_c, 11, 76, 0
18, 284640, Note_on_c, 11, 74, 84
18, 284759, Note_on_c, 11, 74, 0
18, 284820, Note_on_c, 11, 79, 84
18, 284871, Note_on_c, 11, 79, 0
18, 284880, Note_on_c, 11, 81, 84
18, 284939, Note_on_c, 11, 81, 0
18, 284940, Note_on_c, 11, 79, 84
18, 284999, Note_on_c, 11, 79, 0
18, 285000, Note_on_c, 11, 77, 84
18, 285059, Note_on_c, 11, 77, 0
18, 285060, Note_on_c, 11, 76, 84
18, 285111, Note_on_c, 11, 76, 0
18, 285120, Note_on_c, 11, 74, 84
18, 285239, Note_on_c, 11, 74, 0
18, 285300, Note_on_c, 11, 79, 84
18, 285351, Note_on_c, 11, 79, 0
18, 285360, Note_on_c, 11, 81, 84
18, 285419, Note_on_c, 11, 81, 0
18, 285420, Note_on_c, 11, 79, 84
18, 285479, Note_on_c, 11, 79, 0
18, 285480, Note_on_c, 11, 77, 84
18, 285539, Note_on_c, 11, 77, 0
18, 285540, Note_on_c, 11, 76, 84
18, 285591, Note_on_c, 11, 76, 0
18, 285600, Note_on_c, 11, 74, 84
18, 285719, Note_on_c, 11, 74, 0
18, 285780, Note_on_c, 11, 79, 84
18, 285831, Note_on_c, 11, 79, 0
18, 285840, Note_on_c, 11, 81, 84
18, 285899, Note_on_c, 11, 81, 0
18, 285900, Note_on_c, 11, 79, 84
18, 285959, Note_on_c, 11, 79, 0
18, 285960, Note_on_c, 11, 77, 84
18, 286019, Note_on_c, 11, 77, 0
18, 286020, Note_on_c, 11, 76, 84
18, 286071, Note_on_c, 11, 76, 0
18, 286080, Note_on_c, 11, 74, 84
18, 286199, Note_on_c, 11, 74, 0
18, 286260, Note_on_c, 11, 79, 84
18, 286311, Note_on_c, 11, 79, 0
18, 286320, Note_on_c, 11, 81, 84
18, 286379, Note_on_c, 11, 81, 0
18, 286380, Note_on_c, 11, 79, 84
18, 286439, Note_on_c, 11, 79, 0
18, 286440, Note_on_c, 11, 77, 84
18, 286499, Note_on_c, 11, 77, 0
18, 286500, Note_on_c, 11, 76, 84
18, 286551, Note_on_c, 11, 76, 0
18, 286560, Note_on_c, 11, 74, 84
18, 286649, Note_on_c, 11, 74, 0
18, 286680, Note_on_c, 11, 79, 92
18, 286799, Note_on_c, 11, 79, 0
18, 286800, Note_on_c, 11, 77, 84
18, 286904, Note_on_c, 11, 77, 0
18, 286920, Note_on_c, 11, 76, 84
18, 287009, Note_on_c, 11, 76, 0
18, 287040, Note_on_c, 11, 74, 84
18, 287129, Note_on_c, 11, 74, 0
18, 287160, Note_on_c, 11, 76, 92
18, 287279, Note_on_c, 11, 76, 0
18, 287280, Note_on_c, 11, 74, 84
18, 287384, Note_on_c, 11, 74, 0
18, 287400, Note_on_c, 11, 72, 84
18, 287489, Note_on_c, 11, 72, 0
18, 287520, Note_on_c, 11, 71, 84
18, 287609, Note_on_c, 11, 71, 0
18, 287640, Note_on_c, 11, 76, 92
18, 287759, Note_on_c, 11, 76, 0
18, 287760, Note_on_c, 11, 74, 84
18, 287864, Note_on_c, 11, 74, 0
18, 287880, Note_on_c, 11, 72, 84
18, 287969, Note_on_c, 11, 72, 0
18, 288000, Note_on_c, 11, 71, 84
18, 288089, Note_on_c, 11, 71, 0
18, 288120, Note_on_c, 11, 72, 92
18, 288239, Note_on_c, 11, 72, 0
18, 288240, Note_on_c, 11, 71, 84
18, 288344, Note_on_c, 11, 71, 0
18, 288360, Note_on_c, 11, 69, 84
18, 288449, Note_on_c, 11, 69, 0
18, 288480, Note_on_c, 11, 67, 84
18, 288569, Note_on_c, 11, 67, 0
18, 288600, Note_on_c, 11, 72, 92
18, 288719, Note_on_c, 11, 72, 0
18, 288720, Note_on_c, 11, 71, 84
18, 288824, Note_on_c, 11, 71, 0
18, 288840, Note_on_c, 11, 69, 84
18, 288929, Note_on_c, 11, 69, 0
18, 288960, Note_on_c, 11, 67, 84
18, 289049, Note_on_c, 11, 67, 0
18, 289080, Note_on_c, 11, 72, 92
18, 289199, Note_on_c, 11, 72, 0
18, 289200, Note_on_c, 11, 71, 84
18, 289304, Note_on_c, 11, 71, 0
18, 289320, Note_on_c, 11, 69, 84
18, 289409, Note_on_c, 11, 69, 0
18, 289440, Note_on_c, 11, 67, 84
18, 289529, Note_on_c, 11, 67, 0
18, 289560, Note_on_c, 11, 72, 92
18, 289679, Note_on_c, 11, 72, 0
18, 289680, Note_on_c, 11, 71, 84
18, 289784, Note_on_c, 11, 71, 0
18, 289800, Note_on_c, 11, 69, 84
18, 289889, Note_on_c, 11, 69, 0
18, 289920, Note_on_c, 11, 67, 84
18, 290009, Note_on_c, 11, 67, 0
18, 290040, Note_on_c, 11, 65, 84
18, 290129, Note_on_c, 11, 65, 0
18, 290160, Note_on_c, 11, 64, 84
18, 290249, Note_on_c, 11, 64, 0
18, 290280, Note_on_c, 11, 62, 84
18, 290369, Note_on_c, 11, 62, 0
18, 290400, Note_on_c, 11, 60, 84
18, 290639, Note_on_c, 11, 60, 0
18, 292320, Note_on_c, 11, 55, 84
18, 292320, Note_on_c, 11, 62, 84
18, 292320, Note_on_c, 11, 71, 84
18, 292559, Note_on_c, 11, 55, 0
18, 292559, Note_on_c, 11, 62, 0
18, 292559, Note_on_c, 11, 71, 0
18, 292800, Note_on_c, 11, 62, 84
18, 292800, Note_on_c, 11, 71, 84
18, 292800, Note_on_c, 11, 55, 84
18, 293039, Note_on_c, 11, 62, 0
18, 293039, Note_on_c, 11, 71, 0
18, 293039, Note_on_c, 11, 55, 0
18, 293280, Note_on_c, 11, 55, 84
18, 293280, Note_on_c, 11, 62, 84
18, 293280, Note_on_c, 11, 71, 84
18, 293519, Note_on_c, 11, 55, 0
18, 293519, Note_on_c, 11, 62, 0
18, 293519, Note_on_c, 11, 71, 0
18, 293760, Note_on_c, 11, 62, 84
18, 293760, Note_on_c, 11, 71, 84
18, 293760, Note_on_c, 11, 55, 84
18, 293999, Note_on_c, 11, 62, 0
18, 293999, Note_on_c, 11, 71, 0
18, 293999, Note_on_c, 11, 55, 0
18, 294240, Note_on_c, 11, 74, 84
18, 294240, Note_on_c, 11, 65, 84
18, 294240, Note_on_c, 11, 55, 84
18, 294479, Note_on_c, 11, 74, 0
18, 294479, Note_on_c, 11, 65, 0
18, 294479, Note_on_c, 11, 55, 0
18, 296160, Note_on_c, 11, 70, 84
18, 296160, Note_on_c, 11, 55, 84
18, 296160, Note_on_c, 11, 76, 84
18, 296160, Note_on_c, 11, 67, 84
18, 296399, Note_on_c, 11, 70, 0
18, 296399, Note_on_c, 11, 55, 0
18, 296399, Note_on_c, 11, 76, 0
18, 296399, Note_on_c, 11, 67, 0
18, 296640, Note_on_c, 11, 70, 84
18, 296640, Note_on_c, 11, 55, 84
18, 296640, Note_on_c, 11, 76, 84
18, 296640, Note_on_c, 11, 67, 84
18, 296879, Note_on_c, 11, 70, 0
18, 296879, Note_on_c, 11, 55, 0
18, 296879, Note_on_c, 11, 76, 0
18, 296879, Note_on_c, 11, 67, 0
18, 297120, Note_on_c, 11, 67, 84
18, 297120, Note_on_c, 11, 70, 84
18, 297120, Note_on_c, 11, 76, 84
18, 297120, Note_on_c, 11, 55, 84
18, 297359, Note_on_c, 11, 67, 0
18, 297359, Note_on_c, 11, 70, 0
18, 297359, Note_on_c, 11, 76, 0
18, 297359, Note_on_c, 11, 55, 0
18, 297600, Note_on_c, 11, 76, 84
18, 297600, Note_on_c, 11, 70, 84
18, 297600, Note_on_c, 11, 55, 84
18, 297600, Note_on_c, 11, 67, 84
18, 297839, Note_on_c, 11, 76, 0
18, 297839, Note_on_c, 11, 70, 0
18, 297839, Note_on_c, 11, 55, 0
18, 297839, Note_on_c, 11, 67, 0
18, 298080, Note_on_c, 11, 76, 84
18, 298784, Note_on_c, 11, 76, 0
18, 298800, Note_on_c, 11, 72, 84
18, 299039, Note_on_c, 11, 72, 0
18, 299040, Note_on_c, 11, 76, 84
18, 299279, Note_on_c, 11, 76, 0
18, 299280, Note_on_c, 11, 72, 84
18, 299519, Note_on_c, 11, 72, 0
18, 299520, Note_on_c, 11, 79, 84
18, 299759, Note_on_c, 11, 79, 0
18, 299760, Note_on_c, 11, 77, 84
18, 299939, Note_on_c, 11, 77, 0
18, 299940, Note_on_c, 11, 76, 84
18, 299991, Note_on_c, 11, 76, 0
18, 300000, Note_on_c, 11, 77, 84
18, 300704, Note_on_c, 11, 77, 0
18, 300720, Note_on_c, 11, 72, 84
18, 300959, Note_on_c, 11, 72, 0
18, 300960, Note_on_c, 11, 77, 84
18, 301199, Note_on_c, 11, 77, 0
18, 301200, Note_on_c, 11, 72, 84
18, 301439, Note_on_c, 11, 72, 0
18, 301440, Note_on_c, 11, 81, 84
18, 301679, Note_on_c, 11, 81, 0
18, 301680, Note_on_c, 11, 79, 84
18, 301859, Note_on_c, 11, 79, 0
18, 301860, Note_on_c, 11, 77, 84
18, 301911, Note_on_c, 11, 77, 0
18, 301920, Note_on_c, 11, 79, 84
18, 301920, Note_on_c, 11, 67, 84
18, 301971, Note_on_c, 11, 79, 0
18, 301971, Note_on_c, 11, 67, 0
18, 301980, Note_on_c, 11, 79, 84
18, 301980, Note_on_c, 11, 67, 84
18, 302031, Note_on_c, 11, 79, 0
18, 302031, Note_on_c, 11, 67, 0
18, 302040, Note_on_c, 11, 67, 84
18, 302040, Note_on_c, 11, 79, 84
18, 302091, Note_on_c, 11, 67, 0
18, 302091, Note_on_c, 11, 79, 0
18, 302100, Note_on_c, 11, 79, 84
18, 302100, Note_on_c, 11, 67, 84
18, 302151, Note_on_c, 11, 79, 0
18, 302151, Note_on_c, 11, 67, 0
18, 302160, Note_on_c, 11, 79, 84
18, 302160, Note_on_c, 11, 67, 84
18, 302211, Note_on_c, 11, 79, 0
18, 302211, Note_on_c, 11, 67, 0
18, 302220, Note_on_c, 11, 67, 84
18, 302220, Note_on_c, 11, 79, 84
18, 302271, Note_on_c, 11, 67, 0
18, 302271, Note_on_c, 11, 79, 0
18, 302280, Note_on_c, 11, 79, 84
18, 302280, Note_on_c, 11, 67, 84
18, 302331, Note_on_c, 11, 79, 0
18, 302331, Note_on_c, 11, 67, 0
18, 302340, Note_on_c, 11, 79, 84
18, 302340, Note_on_c, 11, 67, 84
18, 302391, Note_on_c, 11, 79, 0
18, 302391, Note_on_c, 11, 67, 0
18, 302400, Note_on_c, 11, 79, 84
18, 302400, Note_on_c, 11, 67, 84
18, 302451, Note_on_c, 11, 79, 0
18, 302451, Note_on_c, 11, 67, 0
18, 302460, Note_on_c, 11, 67, 84
18, 302460, Note_on_c, 11, 79, 84
18, 302511, Note_on_c, 11, 67, 0
18, 302511, Note_on_c, 11, 79, 0
18, 302520, Note_on_c, 11, 79, 84
18, 302520, Note_on_c, 11, 67, 84
18, 302571, Note_on_c, 11, 79, 0
18, 302571, Note_on_c, 11, 67, 0
18, 302580, Note_on_c, 11, 67, 84
18, 302580, Note_on_c, 11, 79, 84
18, 302631, Note_on_c, 11, 67, 0
18, 302631, Note_on_c, 11, 79, 0
18, 302640, Note_on_c, 11, 67, 84
18, 302640, Note_on_c, 11, 79, 84
18, 302691, Note_on_c, 11, 67, 0
18, 302691, Note_on_c, 11, 79, 0
18, 302700, Note_on_c, 11, 79, 84
18, 302700, Note_on_c, 11, 67, 84
18, 302751, Note_on_c, 11, 79, 0
18, 302751, Note_on_c, 11, 67, 0
18, 302760, Note_on_c, 11, 79, 84
18, 302760, Note_on_c, 11, 67, 84
18, 302811, Note_on_c, 11, 79, 0
18, 302811, Note_on_c, 11, 67, 0
18, 302820, Note_on_c, 11, 67, 84
18, 302820, Note_on_c, 11, 79, 84
18, 302871, Note_on_c, 11, 67, 0
18, 302871, Note_on_c, 11, 79, 0
18, 302880, Note_on_c, 11, 79, 84
18, 302880, Note_on_c, 11, 67, 84
18, 302931, Note_on_c, 11, 79, 0
18, 302931, Note_on_c, 11, 67, 0
18, 302940, Note_on_c, 11, 79, 84
18, 302940, Note_on_c, 11, 67, 84
18, 302991, Note_on_c, 11, 79, 0
18, 302991, Note_on_c, 11, 67, 0
18, 303000, Note_on_c, 11, 79, 84
18, 303000, Note_on_c, 11, 67, 84
18, 303051, Note_on_c, 11, 79, 0
18, 303051, Note_on_c, 11, 67, 0
18, 303060, Note_on_c, 11, 79, 84
18, 303060, Note_on_c, 11, 67, 84
18, 303111, Note_on_c, 11, 79, 0
18, 303111, Note_on_c, 11, 67, 0
18, 303120, Note_on_c, 11, 79, 84
18, 303120, Note_on_c, 11, 67, 84
18, 303171, Note_on_c, 11, 79, 0
18, 303171, Note_on_c, 11, 67, 0
18, 303180, Note_on_c, 11, 67, 84
18, 303180, Note_on_c, 11, 79, 84
18, 303231, Note_on_c, 11, 67, 0
18, 303231, Note_on_c, 11, 79, 0
18, 303240, Note_on_c, 11, 79, 84
18, 303240, Note_on_c, 11, 67, 84
18, 303291, Note_on_c, 11, 79, 0
18, 303291, Note_on_c, 11, 67, 0
18, 303300, Note_on_c, 11, 67, 84
18, 303300, Note_on_c, 11, 79, 84
18, 303351, Note_on_c, 11, 67, 0
18, 303351, Note_on_c, 11, 79, 0
18, 303360, Note_on_c, 11, 67, 84
18, 303360, Note_on_c, 11, 79, 84
18, 303411, Note_on_c, 11, 67, 0
18, 303411, Note_on_c, 11, 79, 0
18, 303420, Note_on_c, 11, 79, 84
18, 303420, Note_on_c, 11, 67, 84
18, 303471, Note_on_c, 11, 79, 0
18, 303471, Note_on_c, 11, 67, 0
18, 303480, Note_on_c, 11, 67, 84
18, 303480, Note_on_c, 11, 79, 84
18, 303531, Note_on_c, 11, 67, 0
18, 303531, Note_on_c, 11, 79, 0
18, 303540, Note_on_c, 11, 79, 84
18, 303540, Note_on_c, 11, 67, 84
18, 303591, Note_on_c, 11, 79, 0
18, 303591, Note_on_c, 11, 67, 0
18, 303600, Note_on_c, 11, 79, 84
18, 303600, Note_on_c, 11, 67, 84
18, 303651, Note_on_c, 11, 79, 0
18, 303651, Note_on_c, 11, 67, 0
18, 303660, Note_on_c, 11, 67, 84
18, 303660, Note_on_c, 11, 79, 84
18, 303711, Note_on_c, 11, 67, 0
18, 303711, Note_on_c, 11, 79, 0
18, 303720, Note_on_c, 11, 79, 84
18, 303720, Note_on_c, 11, 67, 84
18, 303771, Note_on_c, 11, 79, 0
18, 303771, Note_on_c, 11, 67, 0
18, 303780, Note_on_c, 11, 67, 84
18, 303780, Note_on_c, 11, 79, 84
18, 303831, Note_on_c, 11, 67, 0
18, 303831, Note_on_c, 11, 79, 0
18, 303840, Note_on_c, 11, 67, 84
18, 303840, Note_on_c, 11, 79, 84
18, 303891, Note_on_c, 11, 67, 0
18, 303891, Note_on_c, 11, 79, 0
18, 303900, Note_on_c, 11, 67, 84
18, 303900, Note_on_c, 11, 79, 84
18, 303951, Note_on_c, 11, 67, 0
18, 303951, Note_on_c, 11, 79, 0
18, 303960, Note_on_c, 11, 79, 84
18, 303960, Note_on_c, 11, 67, 84
18, 304011, Note_on_c, 11, 79, 0
18, 304011, Note_on_c, 11, 67, 0
18, 304020, Note_on_c, 11, 67, 84
18, 304020, Note_on_c, 11, 79, 84
18, 304071, Note_on_c, 11, 67, 0
18, 304071, Note_on_c, 11, 79, 0
18, 304080, Note_on_c, 11, 79, 84
18, 304080, Note_on_c, 11, 67, 84
18, 304131, Note_on_c, 11, 79, 0
18, 304131, Note_on_c, 11, 67, 0
18, 304140, Note_on_c, 11, 67, 84
18, 304140, Note_on_c, 11, 79, 84
18, 304191, Note_on_c, 11, 67, 0
18, 304191, Note_on_c, 11, 79, 0
18, 304200, Note_on_c, 11, 79, 84
18, 304200, Note_on_c, 11, 67, 84
18, 304251, Note_on_c, 11, 79, 0
18, 304251, Note_on_c, 11, 67, 0
18, 304260, Note_on_c, 11, 67, 84
18, 304260, Note_on_c, 11, 79, 84
18, 304311, Note_on_c, 11, 67, 0
18, 304311, Note_on_c, 11, 79, 0
18, 304320, Note_on_c, 11, 79, 84
18, 304320, Note_on_c, 11, 67, 84
18, 304371, Note_on_c, 11, 79, 0
18, 304371, Note_on_c, 11, 67, 0
18, 304380, Note_on_c, 11, 67, 84
18, 304380, Note_on_c, 11, 79, 84
18, 304431, Note_on_c, 11, 67, 0
18, 304431, Note_on_c, 11, 79, 0
18, 304440, Note_on_c, 11, 79, 84
18, 304440, Note_on_c, 11, 67, 84
18, 304491, Note_on_c, 11, 79, 0
18, 304491, Note_on_c, 11, 67, 0
18, 304500, Note_on_c, 11, 79, 84
18, 304500, Note_on_c, 11, 67, 84
18, 304551, Note_on_c, 11, 79, 0
18, 304551, Note_on_c, 11, 67, 0
18, 304560, Note_on_c, 11, 67, 84
18, 304560, Note_on_c, 11, 79, 84
18, 304611, Note_on_c, 11, 67, 0
18, 304611, Note_on_c, 11, 79, 0
18, 304620, Note_on_c, 11, 79, 84
18, 304620, Note_on_c, 11, 67, 84
18, 304671, Note_on_c, 11, 79, 0
18, 304671, Note_on_c, 11, 67, 0
18, 304680, Note_on_c, 11, 67, 84
18, 304680, Note_on_c, 11, 79, 84
18, 304731, Note_on_c, 11, 67, 0
18, 304731, Note_on_c, 11, 79, 0
18, 304740, Note_on_c, 11, 79, 84
18, 304740, Note_on_c, 11, 67, 84
18, 304791, Note_on_c, 11, 79, 0
18, 304791, Note_on_c, 11, 67, 0
18, 304800, Note_on_c, 11, 67, 84
18, 304800, Note_on_c, 11, 79, 84
18, 304851, Note_on_c, 11, 67, 0
18, 304851, Note_on_c, 11, 79, 0
18, 304860, Note_on_c, 11, 67, 84
18, 304860, Note_on_c, 11, 79, 84
18, 304911, Note_on_c, 11, 67, 0
18, 304911, Note_on_c, 11, 79, 0
18, 304920, Note_on_c, 11, 79, 84
18, 304920, Note_on_c, 11, 67, 84
18, 304971, Note_on_c, 11, 79, 0
18, 304971, Note_on_c, 11, 67, 0
18, 304980, Note_on_c, 11, 67, 84
18, 304980, Note_on_c, 11, 79, 84
18, 305031, Note_on_c, 11, 67, 0
18, 305031, Note_on_c, 11, 79, 0
18, 305040, Note_on_c, 11, 67, 84
18, 305040, Note_on_c, 11, 79, 84
18, 305091, Note_on_c, 11, 67, 0
18, 305091, Note_on_c, 11, 79, 0
18, 305100, Note_on_c, 11, 79, 84
18, 305100, Note_on_c, 11, 67, 84
18, 305151, Note_on_c, 11, 79, 0
18, 305151, Note_on_c, 11, 67, 0
18, 305160, Note_on_c, 11, 79, 84
18, 305160, Note_on_c, 11, 67, 84
18, 305211, Note_on_c, 11, 79, 0
18, 305211, Note_on_c, 11, 67, 0
18, 305220, Note_on_c, 11, 67, 84
18, 305220, Note_on_c, 11, 79, 84
18, 305271, Note_on_c, 11, 67, 0
18, 305271, Note_on_c, 11, 79, 0
18, 305280, Note_on_c, 11, 67, 84
18, 305280, Note_on_c, 11, 79, 84
18, 305331, Note_on_c, 11, 67, 0
18, 305331, Note_on_c, 11, 79, 0
18, 305340, Note_on_c, 11, 79, 84
18, 305340, Note_on_c, 11, 67, 84
18, 305391, Note_on_c, 11, 79, 0
18, 305391, Note_on_c, 11, 67, 0
18, 305400, Note_on_c, 11, 67, 84
18, 305400, Note_on_c, 11, 79, 84
18, 305451, Note_on_c, 11, 67, 0
18, 305451, Note_on_c, 11, 79, 0
18, 305460, Note_on_c, 11, 79, 84
18, 305460, Note_on_c, 11, 67, 84
18, 305511, Note_on_c, 11, 79, 0
18, 305511, Note_on_c, 11, 67, 0
18, 305520, Note_on_c, 11, 67, 84
18, 305520, Note_on_c, 11, 79, 84
18, 305571, Note_on_c, 11, 67, 0
18, 305571, Note_on_c, 11, 79, 0
18, 305580, Note_on_c, 11, 79, 84
18, 305580, Note_on_c, 11, 67, 84
18, 305631, Note_on_c, 11, 79, 0
18, 305631, Note_on_c, 11, 67, 0
18, 305640, Note_on_c, 11, 79, 84
18, 305640, Note_on_c, 11, 67, 84
18, 305691, Note_on_c, 11, 79, 0
18, 305691, Note_on_c, 11, 67, 0
18, 305700, Note_on_c, 11, 79, 84
18, 305700, Note_on_c, 11, 67, 84
18, 305751, Note_on_c, 11, 79, 0
18, 305751, Note_on_c, 11, 67, 0
18, 305760, Note_on_c, 11, 67, 84
18, 305760, Note_on_c, 11, 79, 84
18, 305811, Note_on_c, 11, 67, 0
18, 305811, Note_on_c, 11, 79, 0
18, 305820, Note_on_c, 11, 79, 84
18, 305820, Note_on_c, 11, 67, 84
18, 305871, Note_on_c, 11, 79, 0
18, 305871, Note_on_c, 11, 67, 0
18, 305880, Note_on_c, 11, 67, 84
18, 305880, Note_on_c, 11, 79, 84
18, 305931, Note_on_c, 11, 67, 0
18, 305931, Note_on_c, 11, 79, 0
18, 305940, Note_on_c, 11, 79, 84
18, 305940, Note_on_c, 11, 67, 84
18, 305991, Note_on_c, 11, 79, 0
18, 305991, Note_on_c, 11, 67, 0
18, 306000, Note_on_c, 11, 67, 84
18, 306000, Note_on_c, 11, 79, 84
18, 306051, Note_on_c, 11, 67, 0
18, 306051, Note_on_c, 11, 79, 0
18, 306060, Note_on_c, 11, 67, 84
18, 306060, Note_on_c, 11, 79, 84
18, 306111, Note_on_c, 11, 67, 0
18, 306111, Note_on_c, 11, 79, 0
18, 306120, Note_on_c, 11, 67, 84
18, 306120, Note_on_c, 11, 79, 84
18, 306171, Note_on_c, 11, 67, 0
18, 306171, Note_on_c, 11, 79, 0
18, 306180, Note_on_c, 11, 67, 84
18, 306180, Note_on_c, 11, 79, 84
18, 306231, Note_on_c, 11, 67, 0
18, 306231, Note_on_c, 11, 79, 0
18, 306240, Note_on_c, 11, 67, 84
18, 306240, Note_on_c, 11, 79, 84
18, 306291, Note_on_c, 11, 67, 0
18, 306291, Note_on_c, 11, 79, 0
18, 306300, Note_on_c, 11, 79, 84
18, 306300, Note_on_c, 11, 67, 84
18, 306351, Note_on_c, 11, 79, 0
18, 306351, Note_on_c, 11, 67, 0
18, 306360, Note_on_c, 11, 67, 84
18, 306360, Note_on_c, 11, 79, 84
18, 306411, Note_on_c, 11, 67, 0
18, 306411, Note_on_c, 11, 79, 0
18, 306420, Note_on_c, 11, 79, 84
18, 306420, Note_on_c, 11, 67, 84
18, 306471, Note_on_c, 11, 79, 0
18, 306471, Note_on_c, 11, 67, 0
18, 306480, Note_on_c, 11, 67, 84
18, 306480, Note_on_c, 11, 79, 84
18, 306531, Note_on_c, 11, 67, 0
18, 306531, Note_on_c, 11, 79, 0
18, 306540, Note_on_c, 11, 79, 84
18, 306540, Note_on_c, 11, 67, 84
18, 306591, Note_on_c, 11, 79, 0
18, 306591, Note_on_c, 11, 67, 0
18, 306600, Note_on_c, 11, 67, 84
18, 306600, Note_on_c, 11, 79, 84
18, 306651, Note_on_c, 11, 67, 0
18, 306651, Note_on_c, 11, 79, 0
18, 306660, Note_on_c, 11, 67, 84
18, 306660, Note_on_c, 11, 79, 84
18, 306711, Note_on_c, 11, 67, 0
18, 306711, Note_on_c, 11, 79, 0
18, 306720, Note_on_c, 11, 67, 84
18, 306720, Note_on_c, 11, 79, 84
18, 306771, Note_on_c, 11, 67, 0
18, 306771, Note_on_c, 11, 79, 0
18, 306780, Note_on_c, 11, 67, 84
18, 306780, Note_on_c, 11, 79, 84
18, 306831, Note_on_c, 11, 67, 0
18, 306831, Note_on_c, 11, 79, 0
18, 306840, Note_on_c, 11, 67, 84
18, 306840, Note_on_c, 11, 79, 84
18, 306891, Note_on_c, 11, 67, 0
18, 306891, Note_on_c, 11, 79, 0
18, 306900, Note_on_c, 11, 79, 84
18, 306900, Note_on_c, 11, 67, 84
18, 306951, Note_on_c, 11, 79, 0
18, 306951, Note_on_c, 11, 67, 0
18, 306960, Note_on_c, 11, 79, 84
18, 306960, Note_on_c, 11, 67, 84
18, 307011, Note_on_c, 11, 79, 0
18, 307011, Note_on_c, 11, 67, 0
18, 307020, Note_on_c, 11, 67, 84
18, 307020, Note_on_c, 11, 79, 84
18, 307071, Note_on_c, 11, 67, 0
18, 307071, Note_on_c, 11, 79, 0
18, 307080, Note_on_c, 11, 79, 84
18, 307080, Note_on_c, 11, 67, 84
18, 307131, Note_on_c, 11, 79, 0
18, 307131, Note_on_c, 11, 67, 0
18, 307140, Note_on_c, 11, 79, 84
18, 307140, Note_on_c, 11, 67, 84
18, 307191, Note_on_c, 11, 79, 0
18, 307191, Note_on_c, 11, 67, 0
18, 307200, Note_on_c, 11, 67, 84
18, 307200, Note_on_c, 11, 79, 84
18, 307251, Note_on_c, 11, 67, 0
18, 307251, Note_on_c, 11, 79, 0
18, 307260, Note_on_c, 11, 79, 84
18, 307260, Note_on_c, 11, 67, 84
18, 307311, Note_on_c, 11, 79, 0
18, 307311, Note_on_c, 11, 67, 0
18, 307320, Note_on_c, 11, 67, 84
18, 307320, Note_on_c, 11, 79, 84
18, 307371, Note_on_c, 11, 67, 0
18, 307371, Note_on_c, 11, 79, 0
18, 307380, Note_on_c, 11, 67, 84
18, 307380, Note_on_c, 11, 79, 84
18, 307431, Note_on_c, 11, 67, 0
18, 307431, Note_on_c, 11, 79, 0
18, 307440, Note_on_c, 11, 67, 84
18, 307440, Note_on_c, 11, 79, 84
18, 307491, Note_on_c, 11, 67, 0
18, 307491, Note_on_c, 11, 79, 0
18, 307500, Note_on_c, 11, 67, 84
18, 307500, Note_on_c, 11, 79, 84
18, 307551, Note_on_c, 11, 67, 0
18, 307551, Note_on_c, 11, 79, 0
18, 307560, Note_on_c, 11, 67, 84
18, 307560, Note_on_c, 11, 79, 84
18, 307611, Note_on_c, 11, 67, 0
18, 307611, Note_on_c, 11, 79, 0
18, 307620, Note_on_c, 11, 79, 84
18, 307620, Note_on_c, 11, 67, 84
18, 307671, Note_on_c, 11, 79, 0
18, 307671, Note_on_c, 11, 67, 0
18, 307680, Note_on_c, 11, 79, 84
18, 308264, Note_on_c, 11, 79, 0
18, 308280, Note_on_c, 11, 79, 84
18, 308399, Note_on_c, 11, 79, 0
18, 308400, Note_on_c, 11, 77, 84
18, 308504, Note_on_c, 11, 77, 0
18, 308520, Note_on_c, 11, 76, 84
18, 308609, Note_on_c, 11, 76, 0
18, 308640, Note_on_c, 11, 74, 84
18, 308729, Note_on_c, 11, 74, 0
18, 308760, Note_on_c, 11, 76, 84
18, 308879, Note_on_c, 11, 76, 0
18, 308880, Note_on_c, 11, 74, 84
18, 308984, Note_on_c, 11, 74, 0
18, 309000, Note_on_c, 11, 72, 84
18, 309089, Note_on_c, 11, 72, 0
18, 309120, Note_on_c, 11, 71, 84
18, 309209, Note_on_c, 11, 71, 0
18, 309240, Note_on_c, 11, 79, 84
18, 309359, Note_on_c, 11, 79, 0
18, 309360, Note_on_c, 11, 78, 84
18, 309464, Note_on_c, 11, 78, 0
18, 309480, Note_on_c, 11, 84, 84
18, 309569, Note_on_c, 11, 84, 0
18, 309600, Note_on_c, 11, 83, 84
18, 309839, Note_on_c, 11, 83, 0
18, 310200, Note_on_c, 11, 67, 84
18, 310319, Note_on_c, 11, 67, 0
18, 310320, Note_on_c, 11, 66, 84
18, 310424, Note_on_c, 11, 66, 0
18, 310440, Note_on_c, 11, 72, 84
18, 310529, Note_on_c, 11, 72, 0
18, 310560, Note_on_c, 11, 71, 84
18, 310679, Note_on_c, 11, 71, 0
18, 311280, Note_on_c, 11, 74, 84
18, 311359, Note_on_c, 11, 74, 0
18, 311360, Note_on_c, 11, 76, 84
18, 311439, Note_on_c, 11, 76, 0
18, 311440, Note_on_c, 11, 77, 84
18, 311507, Note_on_c, 11, 77, 0
18, 311520, Note_on_c, 11, 79, 84
18, 311699, Note_on_c, 11, 79, 0
18, 311760, Note_on_c, 11, 76, 84
18, 311839, Note_on_c, 11, 76, 0
18, 311840, Note_on_c, 11, 77, 84
18, 311919, Note_on_c, 11, 77, 0
18, 311920, Note_on_c, 11, 79, 84
18, 311987, Note_on_c, 11, 79, 0
18, 312000, Note_on_c, 11, 81, 84
18, 312179, Note_on_c, 11, 81, 0
18, 312240, Note_on_c, 11, 81, 84
18, 312319, Note_on_c, 11, 81, 0
18, 312320, Note_on_c, 11, 83, 84
18, 312399, Note_on_c, 11, 83, 0
18, 312400, Note_on_c, 11, 84, 84
18, 312467, Note_on_c, 11, 84, 0
18, 312480, Note_on_c, 11, 79, 84
18, 313184, Note_on_c, 11, 79, 0
18, 313200, Note_on_c, 11, 79, 52
18, 313279, Note_on_c, 11, 79, 0
18, 313280, Note_on_c, 11, 77, 52
18, 313359, Note_on_c, 11, 77, 0
18, 313360, Note_on_c, 11, 76, 52
18, 313439, Note_on_c, 11, 76, 0
18, 313440, Note_on_c, 11, 74, 52
18, 313679, Note_on_c, 11, 74, 0
18, 313680, Note_on_c, 11, 77, 52
18, 313759, Note_on_c, 11, 77, 0
18, 313760, Note_on_c, 11, 76, 52
18, 313839, Note_on_c, 11, 76, 0
18, 313840, Note_on_c, 11, 74, 52
18, 313919, Note_on_c, 11, 74, 0
18, 313920, Note_on_c, 11, 72, 52
18, 314159, Note_on_c, 11, 72, 0
18, 314160, Note_on_c, 11, 76, 52
18, 314239, Note_on_c, 11, 76, 0
18, 314240, Note_on_c, 11, 74, 52
18, 314319, Note_on_c, 11, 74, 0
18, 314320, Note_on_c, 11, 72, 52
18, 314387, Note_on_c, 11, 72, 0
18, 314400, Note_on_c, 11, 71, 52
18, 314579, Note_on_c, 11, 71, 0
18, 314638, Control_c, 11, 11, 80
18, 314640, Control_c, 11, 11, 80
18, 314640, Note_on_c, 11, 71, 76
18, 314693, Control_c, 11, 11, 85
18, 314719, Note_on_c, 11, 71, 0
18, 314720, Note_on_c, 11, 72, 76
18, 314747, Control_c, 11, 11, 90
18, 314799, Note_on_c, 11, 72, 0
18, 314800, Note_on_c, 11, 74, 76
18, 314800, Control_c, 11, 11, 96
18, 314853, Control_c, 11, 11, 101
18, 314867, Note_on_c, 11, 74, 0
18, 314880, Note_on_c, 11, 67, 76
18, 314907, Control_c, 11, 11, 106
18, 314960, Control_c, 11, 11, 111
18, 315013, Control_c, 11, 11, 117
18, 315067, Control_c, 11, 11, 127
18, 315104, Note_on_c, 11, 67, 0
18, 315120, Note_on_c, 11, 62, 76
18, 315187, Note_on_c, 11, 62, 0
18, 315200, Note_on_c, 11, 64, 76
18, 315267, Note_on_c, 11, 64, 0
18, 315280, Note_on_c, 11, 65, 76
18, 315347, Note_on_c, 11, 65, 0
18, 315360, Note_on_c, 11, 84, 76
18, 315360, Note_on_c, 11, 76, 76
18, 315360, Note_on_c, 11, 67, 76
18, 315599, Note_on_c, 11, 84, 0
18, 315599, Note_on_c, 11, 76, 0
18, 315599, Note_on_c, 11, 67, 0
18, 315840, Note_on_c, 11, 84, 76
18, 315840, Note_on_c, 11, 77, 76
18, 315840, Note_on_c, 11, 69, 76
18, 316079, Note_on_c, 11, 84, 0
18, 316079, Note_on_c, 11, 77, 0
18, 316079, Note_on_c, 11, 69, 0
18, 316320, Note_on_c, 11, 76, 76
18, 316320, Note_on_c, 11, 67, 76
18, 316320, Note_on_c, 11, 84, 76
18, 316544, Note_on_c, 11, 76, 0
18, 316544, Note_on_c, 11, 67, 0
18, 316544, Note_on_c, 11, 84, 0
18, 316560, Note_on_c, 11, 67, 76
18, 316627, Note_on_c, 11, 67, 0
18, 316640, Note_on_c, 11, 69, 76
18, 316707, Note_on_c, 11, 69, 0
18, 316720, Note_on_c, 11, 71, 76
18, 316787, Note_on_c, 11, 71, 0
18, 316800, Note_on_c, 11, 72, 76
18, 317024, Note_on_c, 11, 72, 0
18, 317040, Note_on_c, 11, 79, 52
18, 317119, Note_on_c, 11, 79, 0
18, 317120, Note_on_c, 11, 77, 52
18, 317199, Note_on_c, 11, 77, 0
18, 317200, Note_on_c, 11, 76, 52
18, 317279, Note_on_c, 11, 76, 0
18, 317280, Note_on_c, 11, 74, 52
18, 317519, Note_on_c, 11, 74, 0
18, 317520, Note_on_c, 11, 77, 52
18, 317599, Note_on_c, 11, 77, 0
18, 317600, Note_on_c, 11, 76, 52
18, 317679, Note_on_c, 11, 76, 0
18, 317680, Note_on_c, 11, 74, 52
18, 317759, Note_on_c, 11, 74, 0
18, 317760, Note_on_c, 11, 72, 52
18, 317999, Note_on_c, 11, 72, 0
18, 318000, Note_on_c, 11, 76, 52
18, 318079, Note_on_c, 11, 76, 0
18, 318080, Note_on_c, 11, 74, 52
18, 318159, Note_on_c, 11, 74, 0
18, 318160, Note_on_c, 11, 72, 52
18, 318227, Note_on_c, 11, 72, 0
18, 318240, Note_on_c, 11, 71, 52
18, 318479, Note_on_c, 11, 71, 0
18, 318960, Note_on_c, 11, 81, 52
18, 319039, Note_on_c, 11, 81, 0
18, 319040, Note_on_c, 11, 79, 52
18, 319119, Note_on_c, 11, 79, 0
18, 319120, Note_on_c, 11, 77, 52
18, 319199, Note_on_c, 11, 77, 0
18, 319200, Note_on_c, 11, 76, 52
18, 319439, Note_on_c, 11, 76, 0
18, 319440, Note_on_c, 11, 79, 52
18, 319519, Note_on_c, 11, 79, 0
18, 319520, Note_on_c, 11, 77, 52
18, 319599, Note_on_c, 11, 77, 0
18, 319600, Note_on_c, 11, 76, 52
18, 319679, Note_on_c, 11, 76, 0
18, 319680, Note_on_c, 11, 74, 52
18, 319919, Note_on_c, 11, 74, 0
18, 319920, Note_on_c, 11, 77, 52
18, 319999, Note_on_c, 11, 77, 0
18, 320000, Note_on_c, 11, 76, 52
18, 320079, Note_on_c, 11, 76, 0
18, 320080, Note_on_c, 11, 74, 52
18, 320147, Note_on_c, 11, 74, 0
18, 320160, Note_on_c, 11, 73, 52
18, 320399, Note_on_c, 11, 73, 0
18, 320880, Note_on_c, 11, 84, 44
18, 320959, Note_on_c, 11, 84, 0
18, 320960, Note_on_c, 11, 82, 44
18, 321039, Note_on_c, 11, 82, 0
18, 321040, Note_on_c, 11, 81, 44
18, 321119, Note_on_c, 11, 81, 0
18, 321120, Note_on_c, 11, 79, 44
18, 321359, Note_on_c, 11, 79, 0
18, 321360, Note_on_c, 11, 82, 44
18, 321439, Note_on_c, 11, 82, 0
18, 321440, Note_on_c, 11, 81, 44
18, 321519, Note_on_c, 11, 81, 0
18, 321520, Note_on_c, 11, 79, 44
18, 321599, Note_on_c, 11, 79, 0
18, 321600, Note_on_c, 11, 77, 44
18, 321839, Note_on_c, 11, 77, 0
18, 321840, Note_on_c, 11, 81, 44
18, 321919, Note_on_c, 11, 81, 0
18, 321920, Note_on_c, 11, 79, 44
18, 321999, Note_on_c, 11, 79, 0
18, 322000, Note_on_c, 11, 77, 44
18, 322067, Note_on_c, 11, 77, 0
18, 322080, Note_on_c, 11, 76, 44
18, 322131, Note_on_c, 11, 76, 0
18, 322140, Note_on_c, 11, 79, 45
18, 322191, Note_on_c, 11, 79, 0
18, 322200, Note_on_c, 11, 79, 46
18, 322251, Note_on_c, 11, 79, 0
18, 322260, Note_on_c, 11, 79, 47
18, 322311, Note_on_c, 11, 79, 0
18, 322320, Note_on_c, 11, 79, 49
18, 322371, Note_on_c, 11, 79, 0
18, 322380, Note_on_c, 11, 79, 50
18, 322431, Note_on_c, 11, 79, 0
18, 322440, Note_on_c, 11, 79, 51
18, 322491, Note_on_c, 11, 79, 0
18, 322500, Note_on_c, 11, 79, 52
18, 322551, Note_on_c, 11, 79, 0
18, 322560, Note_on_c, 11, 79, 54
18, 322611, Note_on_c, 11, 79, 0
18, 322620, Note_on_c, 11, 79, 55
18, 322671, Note_on_c, 11, 79, 0
18, 322680, Note_on_c, 11, 79, 56
18, 322731, Note_on_c, 11, 79, 0
18, 322740, Note_on_c, 11, 79, 57
18, 322791, Note_on_c, 11, 79, 0
18, 322800, Note_on_c, 11, 79, 59
18, 322851, Note_on_c, 11, 79, 0
18, 322860, Note_on_c, 11, 79, 60
18, 322911, Note_on_c, 11, 79, 0
18, 322920, Note_on_c, 11, 79, 61
18, 322971, Note_on_c, 11, 79, 0
18, 322980, Note_on_c, 11, 79, 62
18, 323031, Note_on_c, 11, 79, 0
18, 323040, Note_on_c, 11, 80, 64
18, 323091, Note_on_c, 11, 80, 0
18, 323100, Note_on_c, 11, 80, 65
18, 323151, Note_on_c, 11, 80, 0
18, 323160, Note_on_c, 11, 80, 66
18, 323211, Note_on_c, 11, 80, 0
18, 323220, Note_on_c, 11, 80, 67
18, 323271, Note_on_c, 11, 80, 0
18, 323280, Note_on_c, 11, 80, 69
18, 323331, Note_on_c, 11, 80, 0
18, 323340, Note_on_c, 11, 80, 70
18, 323391, Note_on_c, 11, 80, 0
18, 323400, Note_on_c, 11, 80, 71
18, 323451, Note_on_c, 11, 80, 0
18, 323460, Note_on_c, 11, 80, 72
18, 323511, Note_on_c, 11, 80, 0
18, 323520, Note_on_c, 11, 80, 74
18, 323571, Note_on_c, 11, 80, 0
18, 323580, Note_on_c, 11, 80, 75
18, 323631, Note_on_c, 11, 80, 0
18, 323640, Note_on_c, 11, 80, 76
18, 323691, Note_on_c, 11, 80, 0
18, 323700, Note_on_c, 11, 80, 77
18, 323751, Note_on_c, 11, 80, 0
18, 323760, Note_on_c, 11, 80, 79
18, 323811, Note_on_c, 11, 80, 0
18, 323820, Note_on_c, 11, 80, 80
18, 323871, Note_on_c, 11, 80, 0
18, 323880, Note_on_c, 11, 80, 81
18, 323931, Note_on_c, 11, 80, 0
18, 323940, Note_on_c, 11, 80, 82
18, 323991, Note_on_c, 11, 80, 0
18, 324000, Note_on_c, 11, 81, 84
18, 324051, Note_on_c, 11, 81, 0
18, 324060, Note_on_c, 11, 81, 84
18, 324111, Note_on_c, 11, 81, 0
18, 324120, Note_on_c, 11, 81, 84
18, 324171, Note_on_c, 11, 81, 0
18, 324180, Note_on_c, 11, 81, 84
18, 324231, Note_on_c, 11, 81, 0
18, 324240, Note_on_c, 11, 81, 84
18, 324291, Note_on_c, 11, 81, 0
18, 324300, Note_on_c, 11, 81, 84
18, 324351, Note_on_c, 11, 81, 0
18, 324360, Note_on_c, 11, 81, 84
18, 324411, Note_on_c, 11, 81, 0
18, 324420, Note_on_c, 11, 81, 84
18, 324471, Note_on_c, 11, 81, 0
18, 324480, Note_on_c, 11, 81, 84
18, 324531, Note_on_c, 11, 81, 0
18, 324540, Note_on_c, 11, 57, 84
18, 324591, Note_on_c, 11, 57, 0
18, 324600, Note_on_c, 11, 58, 84
18, 324651, Note_on_c, 11, 58, 0
18, 324660, Note_on_c, 11, 60, 84
18, 324711, Note_on_c, 11, 60, 0
18, 324720, Note_on_c, 11, 62, 84
18, 324771, Note_on_c, 11, 62, 0
18, 324780, Note_on_c, 11, 64, 84
18, 324831, Note_on_c, 11, 64, 0
18, 324840, Note_on_c, 11, 65, 84
18, 324891, Note_on_c, 11, 65, 0
18, 324900, Note_on_c, 11, 67, 84
18, 324951, Note_on_c, 11, 67, 0
18, 324960, Note_on_c, 11, 69, 84
18, 325011, Note_on_c, 11, 69, 0
18, 325020, Note_on_c, 11, 60, 84
18, 325071, Note_on_c, 11, 60, 0
18, 325080, Note_on_c, 11, 62, 84
18, 325131, Note_on_c, 11, 62, 0
18, 325140, Note_on_c, 11, 64, 84
18, 325191, Note_on_c, 11, 64, 0
18, 325200, Note_on_c, 11, 65, 84
18, 325251, Note_on_c, 11, 65, 0
18, 325260, Note_on_c, 11, 67, 84
18, 325311, Note_on_c, 11, 67, 0
18, 325320, Note_on_c, 11, 69, 84
18, 325371, Note_on_c, 11, 69, 0
18, 325380, Note_on_c, 11, 70, 84
18, 325431, Note_on_c, 11, 70, 0
18, 325440, Note_on_c, 11, 72, 84
18, 325491, Note_on_c, 11, 72, 0
18, 325500, Note_on_c, 11, 69, 84
18, 325551, Note_on_c, 11, 69, 0
18, 325560, Note_on_c, 11, 70, 84
18, 325611, Note_on_c, 11, 70, 0
18, 325620, Note_on_c, 11, 72, 84
18, 325671, Note_on_c, 11, 72, 0
18, 325680, Note_on_c, 11, 74, 84
18, 325731, Note_on_c, 11, 74, 0
18, 325740, Note_on_c, 11, 76, 84
18, 325791, Note_on_c, 11, 76, 0
18, 325800, Note_on_c, 11, 77, 84
18, 325851, Note_on_c, 11, 77, 0
18, 325860, Note_on_c, 11, 79, 84
18, 325911, Note_on_c, 11, 79, 0
18, 325920, Note_on_c, 11, 81, 84
18, 325971, Note_on_c, 11, 81, 0
18, 325980, Note_on_c, 11, 79, 84
18, 326031, Note_on_c, 11, 79, 0
18, 326040, Note_on_c, 11, 81, 84
18, 326091, Note_on_c, 11, 81, 0
18, 326100, Note_on_c, 11, 83, 84
18, 326151, Note_on_c, 11, 83, 0
18, 326160, Note_on_c, 11, 84, 84
18, 326211, Note_on_c, 11, 84, 0
18, 326220, Note_on_c, 11, 84, 84
18, 326271, Note_on_c, 11, 84, 0
18, 326280, Note_on_c, 11, 84, 84
18, 326331, Note_on_c, 11, 84, 0
18, 326340, Note_on_c, 11, 84, 84
18, 326391, Note_on_c, 11, 84, 0
18, 326400, Note_on_c, 11, 84, 84
18, 326451, Note_on_c, 11, 84, 0
18, 326460, Note_on_c, 11, 84, 84
18, 326511, Note_on_c, 11, 84, 0
18, 326520, Note_on_c, 11, 84, 84
18, 326571, Note_on_c, 11, 84, 0
18, 326580, Note_on_c, 11, 84, 84
18, 326631, Note_on_c, 11, 84, 0
18, 326640, Note_on_c, 11, 84, 84
18, 326691, Note_on_c, 11, 84, 0
18, 326700, Note_on_c, 11, 84, 84
18, 326751, Note_on_c, 11, 84, 0
18, 326760, Note_on_c, 11, 84, 84
18, 326811, Note_on_c, 11, 84, 0
18, 326820, Note_on_c, 11, 84, 84
18, 326871, Note_on_c, 11, 84, 0
18, 326880, Note_on_c, 11, 84, 84
18, 326931, Note_on_c, 11, 84, 0
18, 326940, Note_on_c, 11, 84, 84
18, 326991, Note_on_c, 11, 84, 0
18, 327000, Note_on_c, 11, 83, 84
18, 327051, Note_on_c, 11, 83, 0
18, 327060, Note_on_c, 11, 81, 84
18, 327111, Note_on_c, 11, 81, 0
18, 327120, Note_on_c, 11, 79, 84
18, 327171, Note_on_c, 11, 79, 0
18, 327180, Note_on_c, 11, 77, 84
18, 327231, Note_on_c, 11, 77, 0
18, 327240, Note_on_c, 11, 76, 84
18, 327291, Note_on_c, 11, 76, 0
18, 327300, Note_on_c, 11, 74, 84
18, 327351, Note_on_c, 11, 74, 0
18, 327360, Note_on_c, 11, 72, 84
18, 327411, Note_on_c, 11, 72, 0
18, 327420, Note_on_c, 11, 71, 84
18, 327471, Note_on_c, 11, 71, 0
18, 327480, Note_on_c, 11, 69, 84
18, 327531, Note_on_c, 11, 69, 0
18, 327540, Note_on_c, 11, 67, 84
18, 327591, Note_on_c, 11, 67, 0
18, 327600, Note_on_c, 11, 65, 84
18, 327651, Note_on_c, 11, 65, 0
18, 327660, Note_on_c, 11, 64, 84
18, 327711, Note_on_c, 11, 64, 0
18, 327720, Note_on_c, 11, 62, 84
18, 327771, Note_on_c, 11, 62, 0
18, 327780, Note_on_c, 11, 60, 84
18, 327831, Note_on_c, 11, 60, 0
18, 327840, Note_on_c, 11, 65, 84
18, 328019, Note_on_c, 11, 65, 0
18, 328800, Note_on_c, 11, 55, 84
18, 328800, Note_on_c, 11, 62, 84
18, 328979, Note_on_c, 11, 55, 0
18, 328979, Note_on_c, 11, 62, 0
18, 331320, Note_on_c, 11, 67, 52
18, 331379, Note_on_c, 11, 67, 0
18, 331380, Note_on_c, 11, 69, 52
18, 331439, Note_on_c, 11, 69, 0
18, 331440, Note_on_c, 11, 71, 52
18, 331499, Note_on_c, 11, 71, 0
18, 331500, Note_on_c, 11, 72, 52
18, 331559, Note_on_c, 11, 72, 0
18, 331560, Note_on_c, 11, 74, 52
18, 331619, Note_on_c, 11, 74, 0
18, 331620, Note_on_c, 11, 71, 52
18, 331679, Note_on_c, 11, 71, 0
18, 331680, Note_on_c, 11, 72, 52
18, 331919, Note_on_c, 11, 72, 0
18, 333240, Note_on_c, 11, 67, 52
18, 333299, Note_on_c, 11, 67, 0
18, 333300, Note_on_c, 11, 69, 52
18, 333359, Note_on_c, 11, 69, 0
18, 333360, Note_on_c, 11, 71, 52
18, 333419, Note_on_c, 11, 71, 0
18, 333420, Note_on_c, 11, 72, 52
18, 333479, Note_on_c, 11, 72, 0
18, 333480, Note_on_c, 11, 74, 52
18, 333539, Note_on_c, 11, 74, 0
18, 333540, Note_on_c, 11, 76, 52
18, 333599, Note_on_c, 11, 76, 0
18, 333600, Note_on_c, 11, 77, 68
18, 333659, Note_on_c, 11, 77, 0
18, 333660, Note_on_c, 11, 77, 52
18, 333839, Note_on_c, 11, 77, 0
18, 335160, Note_on_c, 11, 73, 52
18, 335219, Note_on_c, 11, 73, 0
18, 335220, Note_on_c, 11, 74, 52
18, 335279, Note_on_c, 11, 74, 0
18, 335280, Note_on_c, 11, 76, 52
18, 335339, Note_on_c, 11, 76, 0
18, 335340, Note_on_c, 11, 77, 52
18, 335399, Note_on_c, 11, 77, 0
18, 335400, Note_on_c, 11, 79, 52
18, 335459, Note_on_c, 11, 79, 0
18, 335460, Note_on_c, 11, 76, 52
18, 335519, Note_on_c, 11, 76, 0
18, 335520, Note_on_c, 11, 81, 52
18, 335759, Note_on_c, 11, 81, 0
18, 336060, Note_on_c, 11, 69, 52
18, 336119, Note_on_c, 11, 69, 0
18, 336120, Note_on_c, 11, 71, 52
18, 336179, Note_on_c, 11, 71, 0
18, 336180, Note_on_c, 11, 73, 52
18, 336239, Note_on_c, 11, 73, 0
18, 336240, Note_on_c, 11, 74, 52
18, 336299, Note_on_c, 11, 74, 0
18, 336300, Note_on_c, 11, 76, 52
18, 336359, Note_on_c, 11, 76, 0
18, 336360, Note_on_c, 11, 77, 52
18, 336419, Note_on_c, 11, 77, 0
18, 336420, Note_on_c, 11, 74, 52
18, 336479, Note_on_c, 11, 74, 0
18, 336480, Note_on_c, 11, 79, 52
18, 336719, Note_on_c, 11, 79, 0
18, 337080, Note_on_c, 11, 74, 52
18, 337139, Note_on_c, 11, 74, 0
18, 337140, Note_on_c, 11, 76, 52
18, 337199, Note_on_c, 11, 76, 0
18, 337200, Note_on_c, 11, 77, 52
18, 337259, Note_on_c, 11, 77, 0
18, 337260, Note_on_c, 11, 79, 52
18, 337319, Note_on_c, 11, 79, 0
18, 337320, Note_on_c, 11, 81, 52
18, 337379, Note_on_c, 11, 81, 0
18, 337380, Note_on_c, 11, 83, 52
18, 337431, Note_on_c, 11, 83, 0
18, 337440, Note_on_c, 11, 84, 76
18, 337491, Note_on_c, 11, 84, 0
18, 337500, Note_on_c, 11, 84, 76
18, 337551, Note_on_c, 11, 84, 0
18, 337560, Note_on_c, 11, 84, 76
18, 337611, Note_on_c, 11, 84, 0
18, 337620, Note_on_c, 11, 84, 76
18, 337671, Note_on_c, 11, 84, 0
18, 337680, Note_on_c, 11, 84, 76
18, 337731, Note_on_c, 11, 84, 0
18, 337740, Note_on_c, 11, 84, 76
18, 337791, Note_on_c, 11, 84, 0
18, 337800, Note_on_c, 11, 84, 76
18, 337851, Note_on_c, 11, 84, 0
18, 337860, Note_on_c, 11, 84, 76
18, 337911, Note_on_c, 11, 84, 0
18, 337920, Note_on_c, 11, 84, 76
18, 337971, Note_on_c, 11, 84, 0
18, 337980, Note_on_c, 11, 84, 76
18, 338031, Note_on_c, 11, 84, 0
18, 338040, Note_on_c, 11, 84, 76
18, 338091, Note_on_c, 11, 84, 0
18, 338100, Note_on_c, 11, 84, 76
18, 338151, Note_on_c, 11, 84, 0
18, 338160, Note_on_c, 11, 83, 76
18, 338211, Note_on_c, 11, 83, 0
18, 338220, Note_on_c, 11, 83, 76
18, 338271, Note_on_c, 11, 83, 0
18, 338280, Note_on_c, 11, 83, 76
18, 338331, Note_on_c, 11, 83, 0
18, 338340, Note_on_c, 11, 83, 76
18, 338391, Note_on_c, 11, 83, 0
18, 338400, Note_on_c, 11, 81, 76
18, 338451, Note_on_c, 11, 81, 0
18, 338460, Note_on_c, 11, 81, 76
18, 338511, Note_on_c, 11, 81, 0
18, 338520, Note_on_c, 11, 81, 76
18, 338571, Note_on_c, 11, 81, 0
18, 338580, Note_on_c, 11, 81, 76
18, 338631, Note_on_c, 11, 81, 0
18, 338640, Note_on_c, 11, 79, 76
18, 338691, Note_on_c, 11, 79, 0
18, 338700, Note_on_c, 11, 79, 76
18, 338751, Note_on_c, 11, 79, 0
18, 338760, Note_on_c, 11, 79, 76
18, 338811, Note_on_c, 11, 79, 0
18, 338820, Note_on_c, 11, 79, 76
18, 338871, Note_on_c, 11, 79, 0
18, 338880, Note_on_c, 11, 79, 76
18, 338931, Note_on_c, 11, 79, 0
18, 338940, Note_on_c, 11, 79, 76
18, 338991, Note_on_c, 11, 79, 0
18, 339000, Note_on_c, 11, 79, 76
18, 339051, Note_on_c, 11, 79, 0
18, 339060, Note_on_c, 11, 79, 76
18, 339111, Note_on_c, 11, 79, 0
18, 339120, Note_on_c, 11, 79, 76
18, 339171, Note_on_c, 11, 79, 0
18, 339180, Note_on_c, 11, 79, 76
18, 339231, Note_on_c, 11, 79, 0
18, 339240, Note_on_c, 11, 79, 76
18, 339291, Note_on_c, 11, 79, 0
18, 339300, Note_on_c, 11, 79, 76
18, 339351, Note_on_c, 11, 79, 0
18, 339360, Note_on_c, 11, 84, 84
18, 339411, Note_on_c, 11, 84, 0
18, 339420, Note_on_c, 11, 84, 76
18, 339471, Note_on_c, 11, 84, 0
18, 339480, Note_on_c, 11, 84, 76
18, 339531, Note_on_c, 11, 84, 0
18, 339540, Note_on_c, 11, 84, 76
18, 339591, Note_on_c, 11, 84, 0
18, 339600, Note_on_c, 11, 84, 76
18, 339651, Note_on_c, 11, 84, 0
18, 339660, Note_on_c, 11, 84, 76
18, 339711, Note_on_c, 11, 84, 0
18, 339720, Note_on_c, 11, 84, 76
18, 339771, Note_on_c, 11, 84, 0
18, 339780, Note_on_c, 11, 84, 76
18, 339831, Note_on_c, 11, 84, 0
18, 339840, Note_on_c, 11, 84, 76
18, 339891, Note_on_c, 11, 84, 0
18, 339900, Note_on_c, 11, 84, 76
18, 339951, Note_on_c, 11, 84, 0
18, 339960, Note_on_c, 11, 84, 76
18, 340011, Note_on_c, 11, 84, 0
18, 340020, Note_on_c, 11, 84, 76
18, 340071, Note_on_c, 11, 84, 0
18, 340080, Note_on_c, 11, 83, 76
18, 340131, Note_on_c, 11, 83, 0
18, 340140, Note_on_c, 11, 83, 76
18, 340191, Note_on_c, 11, 83, 0
18, 340200, Note_on_c, 11, 83, 76
18, 340251, Note_on_c, 11, 83, 0
18, 340260, Note_on_c, 11, 83, 76
18, 340311, Note_on_c, 11, 83, 0
18, 340320, Note_on_c, 11, 81, 76
18, 340371, Note_on_c, 11, 81, 0
18, 340380, Note_on_c, 11, 81, 76
18, 340431, Note_on_c, 11, 81, 0
18, 340440, Note_on_c, 11, 81, 76
18, 340491, Note_on_c, 11, 81, 0
18, 340500, Note_on_c, 11, 81, 76
18, 340551, Note_on_c, 11, 81, 0
18, 340560, Note_on_c, 11, 79, 76
18, 340611, Note_on_c, 11, 79, 0
18, 340620, Note_on_c, 11, 79, 76
18, 340671, Note_on_c, 11, 79, 0
18, 340680, Note_on_c, 11, 79, 76
18, 340731, Note_on_c, 11, 79, 0
18, 340740, Note_on_c, 11, 79, 76
18, 340791, Note_on_c, 11, 79, 0
18, 340800, Note_on_c, 11, 79, 76
18, 340851, Note_on_c, 11, 79, 0
18, 340860, Note_on_c, 11, 79, 76
18, 340911, Note_on_c, 11, 79, 0
18, 340920, Note_on_c, 11, 79, 76
18, 340971, Note_on_c, 11, 79, 0
18, 340980, Note_on_c, 11, 79, 76
18, 341031, Note_on_c, 11, 79, 0
18, 341040, Note_on_c, 11, 79, 76
18, 341091, Note_on_c, 11, 79, 0
18, 341100, Note_on_c, 11, 79, 76
18, 341151, Note_on_c, 11, 79, 0
18, 341160, Note_on_c, 11, 79, 76
18, 341211, Note_on_c, 11, 79, 0
18, 341220, Note_on_c, 11, 79, 76
18, 341271, Note_on_c, 11, 79, 0
18, 341280, Note_on_c, 11, 89, 84
18, 341331, Note_on_c, 11, 89, 0
18, 341340, Note_on_c, 11, 89, 76
18, 341391, Note_on_c, 11, 89, 0
18, 341400, Note_on_c, 11, 89, 76
18, 341451, Note_on_c, 11, 89, 0
18, 341460, Note_on_c, 11, 89, 76
18, 341511, Note_on_c, 11, 89, 0
18, 341520, Note_on_c, 11, 89, 76
18, 341571, Note_on_c, 11, 89, 0
18, 341580, Note_on_c, 11, 89, 76
18, 341631, Note_on_c, 11, 89, 0
18, 341640, Note_on_c, 11, 89, 76
18, 341691, Note_on_c, 11, 89, 0
18, 341700, Note_on_c, 11, 89, 76
18, 341751, Note_on_c, 11, 89, 0
18, 341760, Note_on_c, 11, 89, 76
18, 341811, Note_on_c, 11, 89, 0
18, 341820, Note_on_c, 11, 89, 76
18, 341871, Note_on_c, 11, 89, 0
18, 341880, Note_on_c, 11, 89, 76
18, 341931, Note_on_c, 11, 89, 0
18, 341940, Note_on_c, 11, 89, 76
18, 341991, Note_on_c, 11, 89, 0
18, 342000, Note_on_c, 11, 88, 76
18, 342051, Note_on_c, 11, 88, 0
18, 342060, Note_on_c, 11, 88, 76
18, 342111, Note_on_c, 11, 88, 0
18, 342120, Note_on_c, 11, 88, 76
18, 342171, Note_on_c, 11, 88, 0
18, 342180, Note_on_c, 11, 88, 76
18, 342231, Note_on_c, 11, 88, 0
18, 342240, Note_on_c, 11, 86, 76
18, 342291, Note_on_c, 11, 86, 0
18, 342300, Note_on_c, 11, 86, 76
18, 342351, Note_on_c, 11, 86, 0
18, 342360, Note_on_c, 11, 86, 76
18, 342411, Note_on_c, 11, 86, 0
18, 342420, Note_on_c, 11, 86, 76
18, 342471, Note_on_c, 11, 86, 0
18, 342480, Note_on_c, 11, 85, 80
18, 342531, Note_on_c, 11, 85, 0
18, 342540, Note_on_c, 11, 85, 80
18, 342591, Note_on_c, 11, 85, 0
18, 342600, Note_on_c, 11, 85, 80
18, 342651, Note_on_c, 11, 85, 0
18, 342660, Note_on_c, 11, 85, 80
18, 342711, Note_on_c, 11, 85, 0
18, 342720, Note_on_c, 11, 85, 80
18, 342771, Note_on_c, 11, 85, 0
18, 342780, Note_on_c, 11, 85, 80
18, 342831, Note_on_c, 11, 85, 0
18, 342840, Note_on_c, 11, 85, 80
18, 342891, Note_on_c, 11, 85, 0
18, 342900, Note_on_c, 11, 85, 80
18, 342951, Note_on_c, 11, 85, 0
18, 342960, Note_on_c, 11, 85, 80
18, 343011, Note_on_c, 11, 85, 0
18, 343020, Note_on_c, 11, 85, 80
18, 343071, Note_on_c, 11, 85, 0
18, 343080, Note_on_c, 11, 85, 80
18, 343131, Note_on_c, 11, 85, 0
18, 343140, Note_on_c, 11, 85, 80
18, 343191, Note_on_c, 11, 85, 0
18, 343200, Note_on_c, 11, 85, 80
18, 343251, Note_on_c, 11, 85, 0
18, 343260, Note_on_c, 11, 85, 80
18, 343311, Note_on_c, 11, 85, 0
18, 343320, Note_on_c, 11, 85, 80
18, 343371, Note_on_c, 11, 85, 0
18, 343380, Note_on_c, 11, 85, 80
18, 343431, Note_on_c, 11, 85, 0
18, 343440, Note_on_c, 11, 88, 80
18, 343491, Note_on_c, 11, 88, 0
18, 343500, Note_on_c, 11, 88, 80
18, 343551, Note_on_c, 11, 88, 0
18, 343560, Note_on_c, 11, 88, 80
18, 343611, Note_on_c, 11, 88, 0
18, 343620, Note_on_c, 11, 88, 80
18, 343671, Note_on_c, 11, 88, 0
18, 343680, Note_on_c, 11, 88, 80
18, 343731, Note_on_c, 11, 88, 0
18, 343740, Note_on_c, 11, 88, 80
18, 343791, Note_on_c, 11, 88, 0
18, 343800, Note_on_c, 11, 88, 80
18, 343851, Note_on_c, 11, 88, 0
18, 343860, Note_on_c, 11, 88, 80
18, 343911, Note_on_c, 11, 88, 0
18, 343920, Note_on_c, 11, 88, 80
18, 343971, Note_on_c, 11, 88, 0
18, 343980, Note_on_c, 11, 88, 80
18, 344031, Note_on_c, 11, 88, 0
18, 344040, Note_on_c, 11, 88, 80
18, 344091, Note_on_c, 11, 88, 0
18, 344100, Note_on_c, 11, 88, 80
18, 344151, Note_on_c, 11, 88, 0
18, 344160, Note_on_c, 11, 88, 80
18, 344211, Note_on_c, 11, 88, 0
18, 344220, Note_on_c, 11, 88, 80
18, 344271, Note_on_c, 11, 88, 0
18, 344280, Note_on_c, 11, 88, 80
18, 344331, Note_on_c, 11, 88, 0
18, 344340, Note_on_c, 11, 88, 80
18, 344391, Note_on_c, 11, 88, 0
18, 344400, Note_on_c, 11, 91, 80
18, 344451, Note_on_c, 11, 91, 0
18, 344460, Note_on_c, 11, 91, 80
18, 344511, Note_on_c, 11, 91, 0
18, 344520, Note_on_c, 11, 91, 80
18, 344571, Note_on_c, 11, 91, 0
18, 344580, Note_on_c, 11, 91, 80
18, 344631, Note_on_c, 11, 91, 0
18, 344640, Note_on_c, 11, 91, 80
18, 344691, Note_on_c, 11, 91, 0
18, 344700, Note_on_c, 11, 91, 80
18, 344751, Note_on_c, 11, 91, 0
18, 344760, Note_on_c, 11, 91, 80
18, 344811, Note_on_c, 11, 91, 0
18, 344820, Note_on_c, 11, 91, 80
18, 344871, Note_on_c, 11, 91, 0
18, 344880, Note_on_c, 11, 91, 80
18, 344931, Note_on_c, 11, 91, 0
18, 344940, Note_on_c, 11, 91, 80
18, 344991, Note_on_c, 11, 91, 0
18, 345000, Note_on_c, 11, 91, 80
18, 345051, Note_on_c, 11, 91, 0
18, 345060, Note_on_c, 11, 91, 80
18, 345111, Note_on_c, 11, 91, 0
18, 345120, Note_on_c, 11, 91, 84
18, 345171, Note_on_c, 11, 91, 0
18, 345180, Note_on_c, 11, 91, 84
18, 345231, Note_on_c, 11, 91, 0
18, 345240, Note_on_c, 11, 91, 84
18, 345291, Note_on_c, 11, 91, 0
18, 345300, Note_on_c, 11, 91, 84
18, 345351, Note_on_c, 11, 91, 0
18, 345360, Note_on_c, 11, 91, 84
18, 345411, Note_on_c, 11, 91, 0
18, 345420, Note_on_c, 11, 91, 84
18, 345471, Note_on_c, 11, 91, 0
18, 345480, Note_on_c, 11, 91, 84
18, 345531, Note_on_c, 11, 91, 0
18, 345540, Note_on_c, 11, 91, 84
18, 345591, Note_on_c, 11, 91, 0
18, 345600, Note_on_c, 11, 91, 84
18, 345651, Note_on_c, 11, 91, 0
18, 345660, Note_on_c, 11, 91, 84
18, 345711, Note_on_c, 11, 91, 0
18, 345720, Note_on_c, 11, 91, 84
18, 345771, Note_on_c, 11, 91, 0
18, 345780, Note_on_c, 11, 91, 84
18, 345831, Note_on_c, 11, 91, 0
18, 345840, Note_on_c, 11, 91, 84
18, 345891, Note_on_c, 11, 91, 0
18, 345900, Note_on_c, 11, 91, 84
18, 345951, Note_on_c, 11, 91, 0
18, 345960, Note_on_c, 11, 91, 84
18, 346011, Note_on_c, 11, 91, 0
18, 346020, Note_on_c, 11, 91, 84
18, 346071, Note_on_c, 11, 91, 0
18, 346080, Note_on_c, 11, 89, 84
18, 346131, Note_on_c, 11, 89, 0
18, 346140, Note_on_c, 11, 89, 84
18, 346191, Note_on_c, 11, 89, 0
18, 346200, Note_on_c, 11, 89, 84
18, 346251, Note_on_c, 11, 89, 0
18, 346260, Note_on_c, 11, 89, 84
18, 346311, Note_on_c, 11, 89, 0
18, 346320, Note_on_c, 11, 89, 84
18, 346371, Note_on_c, 11, 89, 0
18, 346380, Note_on_c, 11, 89, 84
18, 346431, Note_on_c, 11, 89, 0
18, 346440, Note_on_c, 11, 89, 84
18, 346491, Note_on_c, 11, 89, 0
18, 346500, Note_on_c, 11, 89, 84
18, 346551, Note_on_c, 11, 89, 0
18, 346560, Note_on_c, 11, 89, 84
18, 346611, Note_on_c, 11, 89, 0
18, 346620, Note_on_c, 11, 89, 84
18, 346671, Note_on_c, 11, 89, 0
18, 346680, Note_on_c, 11, 89, 84
18, 346731, Note_on_c, 11, 89, 0
18, 346740, Note_on_c, 11, 89, 84
18, 346791, Note_on_c, 11, 89, 0
18, 346800, Note_on_c, 11, 89, 84
18, 346851, Note_on_c, 11, 89, 0
18, 346860, Note_on_c, 11, 89, 84
18, 346911, Note_on_c, 11, 89, 0
18, 346920, Note_on_c, 11, 89, 84
18, 346971, Note_on_c, 11, 89, 0
18, 346980, Note_on_c, 11, 89, 84
18, 347031, Note_on_c, 11, 89, 0
18, 347040, Note_on_c, 11, 89, 84
18, 347091, Note_on_c, 11, 89, 0
18, 347100, Note_on_c, 11, 89, 84
18, 347151, Note_on_c, 11, 89, 0
18, 347160, Note_on_c, 11, 89, 84
18, 347211, Note_on_c, 11, 89, 0
18, 347220, Note_on_c, 11, 89, 84
18, 347271, Note_on_c, 11, 89, 0
18, 347280, Note_on_c, 11, 89, 84
18, 347331, Note_on_c, 11, 89, 0
18, 347340, Note_on_c, 11, 89, 84
18, 347391, Note_on_c, 11, 89, 0
18, 347400, Note_on_c, 11, 89, 84
18, 347451, Note_on_c, 11, 89, 0
18, 347460, Note_on_c, 11, 89, 84
18, 347511, Note_on_c, 11, 89, 0
18, 347520, Note_on_c, 11, 89, 84
18, 347571, Note_on_c, 11, 89, 0
18, 347580, Note_on_c, 11, 89, 84
18, 347631, Note_on_c, 11, 89, 0
18, 347640, Note_on_c, 11, 89, 84
18, 347691, Note_on_c, 11, 89, 0
18, 347700, Note_on_c, 11, 89, 84
18, 347751, Note_on_c, 11, 89, 0
18, 347760, Note_on_c, 11, 89, 84
18, 347811, Note_on_c, 11, 89, 0
18, 347820, Note_on_c, 11, 89, 84
18, 347871, Note_on_c, 11, 89, 0
18, 347880, Note_on_c, 11, 89, 84
18, 347931, Note_on_c, 11, 89, 0
18, 347940, Note_on_c, 11, 89, 84
18, 347991, Note_on_c, 11, 89, 0
18, 348000, Note_on_c, 11, 87, 84
18, 348051, Note_on_c, 11, 87, 0
18, 348060, Note_on_c, 11, 87, 84
18, 348111, Note_on_c, 11, 87, 0
18, 348120, Note_on_c, 11, 87, 84
18, 348171, Note_on_c, 11, 87, 0
18, 348180, Note_on_c, 11, 87, 84
18, 348231, Note_on_c, 11, 87, 0
18, 348240, Note_on_c, 11, 87, 84
18, 348291, Note_on_c, 11, 87, 0
18, 348300, Note_on_c, 11, 87, 84
18, 348351, Note_on_c, 11, 87, 0
18, 348360, Note_on_c, 11, 87, 84
18, 348411, Note_on_c, 11, 87, 0
18, 348420, Note_on_c, 11, 87, 84
18, 348471, Note_on_c, 11, 87, 0
18, 348480, Note_on_c, 11, 87, 84
18, 348531, Note_on_c, 11, 87, 0
18, 348540, Note_on_c, 11, 87, 84
18, 348591, Note_on_c, 11, 87, 0
18, 348600, Note_on_c, 11, 87, 84
18, 348651, Note_on_c, 11, 87, 0
18, 348660, Note_on_c, 11, 87, 84
18, 348711, Note_on_c, 11, 87, 0
18, 348720, Note_on_c, 11, 87, 84
18, 348771, Note_on_c, 11, 87, 0
18, 348780, Note_on_c, 11, 87, 84
18, 348831, Note_on_c, 11, 87, 0
18, 348840, Note_on_c, 11, 87, 84
18, 348891, Note_on_c, 11, 87, 0
18, 348900, Note_on_c, 11, 87, 84
18, 348951, Note_on_c, 11, 87, 0
18, 348960, Note_on_c, 11, 87, 84
18, 349011, Note_on_c, 11, 87, 0
18, 349020, Note_on_c, 11, 87, 84
18, 349071, Note_on_c, 11, 87, 0
18, 349080, Note_on_c, 11, 87, 84
18, 349131, Note_on_c, 11, 87, 0
18, 349140, Note_on_c, 11, 87, 84
18, 349191, Note_on_c, 11, 87, 0
18, 349200, Note_on_c, 11, 87, 84
18, 349251, Note_on_c, 11, 87, 0
18, 349260, Note_on_c, 11, 87, 84
18, 349311, Note_on_c, 11, 87, 0
18, 349320, Note_on_c, 11, 87, 84
18, 349371, Note_on_c, 11, 87, 0
18, 349380, Note_on_c, 11, 87, 84
18, 349431, Note_on_c, 11, 87, 0
18, 349440, Note_on_c, 11, 87, 84
18, 349491, Note_on_c, 11, 87, 0
18, 349500, Note_on_c, 11, 87, 84
18, 349551, Note_on_c, 11, 87, 0
18, 349560, Note_on_c, 11, 87, 84
18, 349611, Note_on_c, 11, 87, 0
18, 349620, Note_on_c, 11, 87, 84
18, 349671, Note_on_c, 11, 87, 0
18, 349680, Note_on_c, 11, 87, 84
18, 349731, Note_on_c, 11, 87, 0
18, 349740, Note_on_c, 11, 87, 84
18, 349791, Note_on_c, 11, 87, 0
18, 349800, Note_on_c, 11, 87, 84
18, 349851, Note_on_c, 11, 87, 0
18, 349860, Note_on_c, 11, 87, 84
18, 349911, Note_on_c, 11, 87, 0
18, 349920, Note_on_c, 11, 88, 92
18, 349979, Note_on_c, 11, 88, 0
18, 349980, Note_on_c, 11, 88, 84
18, 350624, Note_on_c, 11, 88, 0
18, 350640, Note_on_c, 11, 79, 76
18, 350719, Note_on_c, 11, 79, 0
18, 350720, Note_on_c, 11, 77, 76
18, 350799, Note_on_c, 11, 77, 0
18, 350800, Note_on_c, 11, 76, 76
18, 350879, Note_on_c, 11, 76, 0
18, 350880, Note_on_c, 11, 74, 76
18, 351119, Note_on_c, 11, 74, 0
18, 351120, Note_on_c, 11, 77, 76
18, 351199, Note_on_c, 11, 77, 0
18, 351200, Note_on_c, 11, 76, 76
18, 351279, Note_on_c, 11, 76, 0
18, 351280, Note_on_c, 11, 74, 76
18, 351359, Note_on_c, 11, 74, 0
18, 351360, Note_on_c, 11, 72, 76
18, 351599, Note_on_c, 11, 72, 0
18, 351600, Note_on_c, 11, 76, 76
18, 351679, Note_on_c, 11, 76, 0
18, 351680, Note_on_c, 11, 74, 76
18, 351759, Note_on_c, 11, 74, 0
18, 351760, Note_on_c, 11, 72, 76
18, 351827, Note_on_c, 11, 72, 0
18, 351840, Note_on_c, 11, 71, 84
18, 351899, Note_on_c, 11, 71, 0
18, 351900, Note_on_c, 11, 71, 76
18, 352019, Note_on_c, 11, 71, 0
18, 352080, Note_on_c, 11, 71, 76
18, 352159, Note_on_c, 11, 71, 0
18, 352160, Note_on_c, 11, 72, 76
18, 352239, Note_on_c, 11, 72, 0
18, 352240, Note_on_c, 11, 74, 76
18, 352307, Note_on_c, 11, 74, 0
18, 352320, Note_on_c, 11, 67, 76
18, 352499, Note_on_c, 11, 67, 0
18, 352560, Note_on_c, 11, 81, 76
18, 352639, Note_on_c, 11, 81, 0
18, 352640, Note_on_c, 11, 79, 76
18, 352719, Note_on_c, 11, 79, 0
18, 352720, Note_on_c, 11, 77, 76
18, 352799, Note_on_c, 11, 77, 0
18, 352800, Note_on_c, 11, 76, 76
18, 353039, Note_on_c, 11, 76, 0
18, 353040, Note_on_c, 11, 79, 76
18, 353119, Note_on_c, 11, 79, 0
18, 353120, Note_on_c, 11, 77, 76
18, 353199, Note_on_c, 11, 77, 0
18, 353200, Note_on_c, 11, 76, 76
18, 353279, Note_on_c, 11, 76, 0
18, 353280, Note_on_c, 11, 74, 76
18, 353519, Note_on_c, 11, 74, 0
18, 353520, Note_on_c, 11, 77, 76
18, 353599, Note_on_c, 11, 77, 0
18, 353600, Note_on_c, 11, 76, 76
18, 353679, Note_on_c, 11, 76, 0
18, 353680, Note_on_c, 11, 74, 76
18, 353747, Note_on_c, 11, 74, 0
18, 353760, Note_on_c, 11, 72, 84
18, 353819, Note_on_c, 11, 72, 0
18, 353820, Note_on_c, 11, 72, 76
18, 353939, Note_on_c, 11, 72, 0
18, 354000, Note_on_c, 11, 72, 76
18, 354079, Note_on_c, 11, 72, 0
18, 354080, Note_on_c, 11, 74, 76
18, 354159, Note_on_c, 11, 74, 0
18, 354160, Note_on_c, 11, 76, 76
18, 354227, Note_on_c, 11, 76, 0
18, 354240, Note_on_c, 11, 67, 76
18, 354419, Note_on_c, 11, 67, 0
18, 354480, Note_on_c, 11, 72, 76
18, 354704, Note_on_c, 11, 72, 0
18, 354720, Note_on_c, 11, 71, 76
18, 355184, Note_on_c, 11, 71, 0
18, 355200, Note_on_c, 11, 72, 76
18, 355664, Note_on_c, 11, 72, 0
18, 355680, Note_on_c, 11, 74, 84
18, 355739, Note_on_c, 11, 74, 0
18, 355740, Note_on_c, 11, 74, 76
18, 356384, Note_on_c, 11, 74, 0
18, 356400, Note_on_c, 11, 74, 76
18, 356624, Note_on_c, 11, 74, 0
18, 356640, Note_on_c, 11, 72, 76
18, 357104, Note_on_c, 11, 72, 0
18, 357120, Note_on_c, 11, 74, 76
18, 357584, Note_on_c, 11, 74, 0
18, 357600, Note_on_c, 11, 76, 84
18, 357659, Note_on_c, 11, 76, 0
18, 357660, Note_on_c, 11, 76, 76
18, 358304, Note_on_c, 11, 76, 0
18, 358320, Note_on_c, 11, 79, 80
18, 358387, Note_on_c, 11, 79, 0
18, 358400, Note_on_c, 11, 77, 80
18, 358467, Note_on_c, 11, 77, 0
18, 358480, Note_on_c, 11, 76, 80
18, 358547, Note_on_c, 11, 76, 0
18, 358560, Note_on_c, 11, 74, 80
18, 358627, Note_on_c, 11, 74, 0
18, 358640, Note_on_c, 11, 73, 80
18, 358707, Note_on_c, 11, 73, 0
18, 358720, Note_on_c, 11, 74, 80
18, 358787, Note_on_c, 11, 74, 0
18, 358800, Note_on_c, 11, 77, 80
18, 358867, Note_on_c, 11, 77, 0
18, 358880, Note_on_c, 11, 76, 80
18, 358947, Note_on_c, 11, 76, 0
18, 358960, Note_on_c, 11, 74, 80
18, 359027, Note_on_c, 11, 74, 0
18, 359040, Note_on_c, 11, 76, 80
18, 359107, Note_on_c, 11, 76, 0
18, 359120, Note_on_c, 11, 74, 80
18, 359187, Note_on_c, 11, 74, 0
18, 359200, Note_on_c, 11, 76, 80
18, 359267, Note_on_c, 11, 76, 0
18, 359280, Note_on_c, 11, 79, 80
18, 359347, Note_on_c, 11, 79, 0
18, 359360, Note_on_c, 11, 77, 80
18, 359427, Note_on_c, 11, 77, 0
18, 359440, Note_on_c, 11, 76, 80
18, 359507, Note_on_c, 11, 76, 0
18, 359520, Note_on_c, 11, 77, 80
18, 359587, Note_on_c, 11, 77, 0
18, 359600, Note_on_c, 11, 76, 80
18, 359667, Note_on_c, 11, 76, 0
18, 359680, Note_on_c, 11, 77, 80
18, 359747, Note_on_c, 11, 77, 0
18, 359760, Note_on_c, 11, 81, 80
18, 359827, Note_on_c, 11, 81, 0
18, 359840, Note_on_c, 11, 79, 80
18, 359907, Note_on_c, 11, 79, 0
18, 359920, Note_on_c, 11, 77, 80
18, 359987, Note_on_c, 11, 77, 0
18, 360000, Note_on_c, 11, 77, 80
18, 360067, Note_on_c, 11, 77, 0
18, 360080, Note_on_c, 11, 76, 80
18, 360147, Note_on_c, 11, 76, 0
18, 360160, Note_on_c, 11, 77, 80
18, 360227, Note_on_c, 11, 77, 0
18, 360240, Note_on_c, 11, 81, 80
18, 360307, Note_on_c, 11, 81, 0
18, 360320, Note_on_c, 11, 79, 80
18, 360387, Note_on_c, 11, 79, 0
18, 360400, Note_on_c, 11, 77, 80
18, 360467, Note_on_c, 11, 77, 0
18, 360480, Note_on_c, 11, 76, 80
18, 360547, Note_on_c, 11, 76, 0
18, 360560, Note_on_c, 11, 74, 80
18, 360627, Note_on_c, 11, 74, 0
18, 360640, Note_on_c, 11, 76, 80
18, 360707, Note_on_c, 11, 76, 0
18, 360720, Note_on_c, 11, 79, 80
18, 360787, Note_on_c, 11, 79, 0
18, 360800, Note_on_c, 11, 77, 80
18, 360867, Note_on_c, 11, 77, 0
18, 360880, Note_on_c, 11, 76, 80
18, 360947, Note_on_c, 11, 76, 0
18, 360960, Note_on_c, 11, 77, 80
18, 361027, Note_on_c, 11, 77, 0
18, 361040, Note_on_c, 11, 76, 80
18, 361107, Note_on_c, 11, 76, 0
18, 361120, Note_on_c, 11, 77, 80
18, 361187, Note_on_c, 11, 77, 0
18, 361200, Note_on_c, 11, 81, 80
18, 361267, Note_on_c, 11, 81, 0
18, 361280, Note_on_c, 11, 79, 80
18, 361347, Note_on_c, 11, 79, 0
18, 361360, Note_on_c, 11, 77, 80
18, 361427, Note_on_c, 11, 77, 0
18, 361440, Note_on_c, 11, 79, 84
18, 361507, Note_on_c, 11, 79, 0
18, 361520, Note_on_c, 11, 78, 84
18, 361587, Note_on_c, 11, 78, 0
18, 361600, Note_on_c, 11, 79, 84
18, 361667, Note_on_c, 11, 79, 0
18, 361680, Note_on_c, 11, 82, 84
18, 361747, Note_on_c, 11, 82, 0
18, 361760, Note_on_c, 11, 81, 84
18, 361827, Note_on_c, 11, 81, 0
18, 361840, Note_on_c, 11, 79, 84
18, 361907, Note_on_c, 11, 79, 0
18, 361920, Note_on_c, 11, 79, 84
18, 361987, Note_on_c, 11, 79, 0
18, 362000, Note_on_c, 11, 78, 84
18, 362067, Note_on_c, 11, 78, 0
18, 362080, Note_on_c, 11, 79, 84
18, 362147, Note_on_c, 11, 79, 0
18, 362160, Note_on_c, 11, 82, 84
18, 362227, Note_on_c, 11, 82, 0
18, 362240, Note_on_c, 11, 81, 84
18, 362307, Note_on_c, 11, 81, 0
18, 362320, Note_on_c, 11, 79, 84
18, 362387, Note_on_c, 11, 79, 0
18, 362400, Note_on_c, 11, 79, 84
18, 362467, Note_on_c, 11, 79, 0
18, 362480, Note_on_c, 11, 78, 84
18, 362547, Note_on_c, 11, 78, 0
18, 362560, Note_on_c, 11, 79, 84
18, 362627, Note_on_c, 11, 79, 0
18, 362640, Note_on_c, 11, 82, 84
18, 362707, Note_on_c, 11, 82, 0
18, 362720, Note_on_c, 11, 81, 84
18, 362787, Note_on_c, 11, 81, 0
18, 362800, Note_on_c, 11, 79, 84
18, 362867, Note_on_c, 11, 79, 0
18, 362880, Note_on_c, 11, 79, 84
18, 362947, Note_on_c, 11, 79, 0
18, 362960, Note_on_c, 11, 78, 84
18, 363027, Note_on_c, 11, 78, 0
18, 363040, Note_on_c, 11, 79, 84
18, 363107, Note_on_c, 11, 79, 0
18, 363120, Note_on_c, 11, 82, 84
18, 363187, Note_on_c, 11, 82, 0
18, 363200, Note_on_c, 11, 81, 84
18, 363267, Note_on_c, 11, 81, 0
18, 363280, Note_on_c, 11, 79, 84
18, 363347, Note_on_c, 11, 79, 0
18, 363360, Note_on_c, 11, 81, 84
18, 363411, Note_on_c, 11, 81, 0
18, 363420, Note_on_c, 11, 69, 84
18, 363471, Note_on_c, 11, 69, 0
18, 363480, Note_on_c, 11, 81, 84
18, 363531, Note_on_c, 11, 81, 0
18, 363540, Note_on_c, 11, 81, 84
18, 363591, Note_on_c, 11, 81, 0
18, 363600, Note_on_c, 11, 81, 92
18, 363651, Note_on_c, 11, 81, 0
18, 363660, Note_on_c, 11, 81, 84
18, 363711, Note_on_c, 11, 81, 0
18, 363720, Note_on_c, 11, 81, 84
18, 363771, Note_on_c, 11, 81, 0
18, 363780, Note_on_c, 11, 81, 84
18, 363831, Note_on_c, 11, 81, 0
18, 363840, Note_on_c, 11, 81, 84
18, 363891, Note_on_c, 11, 81, 0
18, 363900, Note_on_c, 11, 81, 84
18, 363951, Note_on_c, 11, 81, 0
18, 363960, Note_on_c, 11, 81, 84
18, 364011, Note_on_c, 11, 81, 0
18, 364020, Note_on_c, 11, 81, 84
18, 364071, Note_on_c, 11, 81, 0
18, 364080, Note_on_c, 11, 81, 84
18, 364131, Note_on_c, 11, 81, 0
18, 364140, Note_on_c, 11, 81, 84
18, 364191, Note_on_c, 11, 81, 0
18, 364200, Note_on_c, 11, 81, 84
18, 364251, Note_on_c, 11, 81, 0
18, 364260, Note_on_c, 11, 81, 84
18, 364311, Note_on_c, 11, 81, 0
18, 364320, Note_on_c, 11, 84, 84
18, 364371, Note_on_c, 11, 84, 0
18, 364380, Note_on_c, 11, 69, 84
18, 364431, Note_on_c, 11, 69, 0
18, 364440, Note_on_c, 11, 84, 84
18, 364491, Note_on_c, 11, 84, 0
18, 364500, Note_on_c, 11, 84, 84
18, 364551, Note_on_c, 11, 84, 0
18, 364560, Note_on_c, 11, 84, 92
18, 364611, Note_on_c, 11, 84, 0
18, 364620, Note_on_c, 11, 84, 84
18, 364671, Note_on_c, 11, 84, 0
18, 364680, Note_on_c, 11, 84, 84
18, 364731, Note_on_c, 11, 84, 0
18, 364740, Note_on_c, 11, 84, 84
18, 364791, Note_on_c, 11, 84, 0
18, 364800, Note_on_c, 11, 84, 84
18, 364851, Note_on_c, 11, 84, 0
18, 364860, Note_on_c, 11, 84, 84
18, 364911, Note_on_c, 11, 84, 0
18, 364920, Note_on_c, 11, 84, 84
18, 364971, Note_on_c, 11, 84, 0
18, 364980, Note_on_c, 11, 84, 84
18, 365031, Note_on_c, 11, 84, 0
18, 365040, Note_on_c, 11, 84, 84
18, 365091, Note_on_c, 11, 84, 0
18, 365100, Note_on_c, 11, 84, 84
18, 365151, Note_on_c, 11, 84, 0
18, 365160, Note_on_c, 11, 84, 84
18, 365211, Note_on_c, 11, 84, 0
18, 365220, Note_on_c, 11, 84, 84
18, 365271, Note_on_c, 11, 84, 0
18, 365280, Note_on_c, 11, 89, 84
18, 365331, Note_on_c, 11, 89, 0
18, 365340, Note_on_c, 11, 69, 84
18, 365391, Note_on_c, 11, 69, 0
18, 365400, Note_on_c, 11, 89, 84
18, 365451, Note_on_c, 11, 89, 0
18, 365460, Note_on_c, 11, 89, 84
18, 365511, Note_on_c, 11, 89, 0
18, 365520, Note_on_c, 11, 89, 92
18, 365571, Note_on_c, 11, 89, 0
18, 365580, Note_on_c, 11, 89, 84
18, 365631, Note_on_c, 11, 89, 0
18, 365640, Note_on_c, 11, 89, 84
18, 365691, Note_on_c, 11, 89, 0
18, 365700, Note_on_c, 11, 89, 84
18, 365751, Note_on_c, 11, 89, 0
18, 365760, Note_on_c, 11, 89, 84
18, 365811, Note_on_c, 11, 89, 0
18, 365820, Note_on_c, 11, 89, 84
18, 365871, Note_on_c, 11, 89, 0
18, 365880, Note_on_c, 11, 89, 84
18, 365931, Note_on_c, 11, 89, 0
18, 365940, Note_on_c, 11, 89, 84
18, 365991, Note_on_c, 11, 89, 0
18, 366000, Note_on_c, 11, 89, 84
18, 366051, Note_on_c, 11, 89, 0
18, 366060, Note_on_c, 11, 89, 84
18, 366111, Note_on_c, 11, 89, 0
18, 366120, Note_on_c, 11, 89, 84
18, 366171, Note_on_c, 11, 89, 0
18, 366180, Note_on_c, 11, 89, 84
18, 366231, Note_on_c, 11, 89, 0
18, 366240, Note_on_c, 11, 93, 84
18, 366291, Note_on_c, 11, 93, 0
18, 366300, Note_on_c, 11, 69, 84
18, 366351, Note_on_c, 11, 69, 0
18, 366360, Note_on_c, 11, 93, 84
18, 366411, Note_on_c, 11, 93, 0
18, 366420, Note_on_c, 11, 93, 84
18, 366471, Note_on_c, 11, 93, 0
18, 366480, Note_on_c, 11, 93, 92
18, 366531, Note_on_c, 11, 93, 0
18, 366540, Note_on_c, 11, 93, 84
18, 366591, Note_on_c, 11, 93, 0
18, 366600, Note_on_c, 11, 93, 84
18, 366651, Note_on_c, 11, 93, 0
18, 366660, Note_on_c, 11, 93, 84
18, 366711, Note_on_c, 11, 93, 0
18, 366720, Note_on_c, 11, 93, 84
18, 366771, Note_on_c, 11, 93, 0
18, 366780, Note_on_c, 11, 93, 84
18, 366831, Note_on_c, 11, 93, 0
18, 366840, Note_on_c, 11, 93, 84
18, 366891, Note_on_c, 11, 93, 0
18, 366900, Note_on_c, 11, 93, 84
18, 366951, Note_on_c, 11, 93, 0
18, 366960, Note_on_c, 11, 93, 84
18, 367011, Note_on_c, 11, 93, 0
18, 367020, Note_on_c, 11, 93, 84
18, 367071, Note_on_c, 11, 93, 0
18, 367080, Note_on_c, 11, 93, 84
18, 367131, Note_on_c, 11, 93, 0
18, 367140, Note_on_c, 11, 93, 84
18, 367191, Note_on_c, 11, 93, 0
18, 367200, Note_on_c, 11, 91, 84
18, 367379, Note_on_c, 11, 91, 0
18, 368160, Note_on_c, 11, 71, 84
18, 368160, Note_on_c, 11, 62, 84
18, 368160, Note_on_c, 11, 79, 84
18, 368160, Note_on_c, 11, 55, 84
18, 368339, Note_on_c, 11, 71, 0
18, 368339, Note_on_c, 11, 62, 0
18, 368339, Note_on_c, 11, 79, 0
18, 368339, Note_on_c, 11, 55, 0
18, 369120, Note_on_c, 11, 55, 84
18, 369120, Note_on_c, 11, 72, 84
18, 369120, Note_on_c, 11, 64, 84
18, 369120, Note_on_c, 11, 76, 84
18, 369299, Note_on_c, 11, 55, 0
18, 369299, Note_on_c, 11, 72, 0
18, 369299, Note_on_c, 11, 64, 0
18, 369299, Note_on_c, 11, 76, 0
18, 370080, Note_on_c, 11, 79, 84
18, 370080, Note_on_c, 11, 71, 84
18, 370080, Note_on_c, 11, 55, 84
18, 370080, Note_on_c, 11, 62, 84
18, 370259, Note_on_c, 11, 79, 0
18, 370259, Note_on_c, 11, 71, 0
18, 370259, Note_on_c, 11, 55, 0
18, 370259, Note_on_c, 11, 62, 0
18, 371040, Note_on_c, 11, 76, 84
18, 371040, Note_on_c, 11, 55, 84
18, 371040, Note_on_c, 11, 72, 84
18, 371040, Note_on_c, 11, 64, 84
18, 371219, Note_on_c, 11, 76, 0
18, 371219, Note_on_c, 11, 55, 0
18, 371219, Note_on_c, 11, 72, 0
18, 371219, Note_on_c, 11, 64, 0
18, 372000, Note_on_c, 11, 79, 84
18, 372000, Note_on_c, 11, 55, 84
18, 372000, Note_on_c, 11, 62, 84
18, 372000, Note_on_c, 11, 71, 84
18, 372179, Note_on_c, 11, 79, 0
18, 372179, Note_on_c, 11, 55, 0
18, 372179, Note_on_c, 11, 62, 0
18, 372179, Note_on_c, 11, 71, 0
18, 376960, Note_on_c, 11, 71, 52
18, 376999, Note_on_c, 11, 71, 0
18, 377000, Note_on_c, 11, 72, 53
18, 377039, Note_on_c, 11, 72, 0
18, 377040, Note_on_c, 11, 74, 53
18, 377279, Note_on_c, 11, 74, 0
18, 377440, Note_on_c, 11, 71, 55
18, 377479, Note_on_c, 11, 71, 0
18, 377480, Note_on_c, 11, 72, 55
18, 377519, Note_on_c, 11, 72, 0
18, 377520, Note_on_c, 11, 74, 55
18, 377759, Note_on_c, 11, 74, 0
18, 377920, Note_on_c, 11, 72, 57
18, 377959, Note_on_c, 11, 72, 0
18, 377960, Note_on_c, 11, 74, 57
18, 377999, Note_on_c, 11, 74, 0
18, 378000, Note_on_c, 11, 76, 58
18, 378239, Note_on_c, 11, 76, 0
18, 378400, Note_on_c, 11, 72, 60
18, 378439, Note_on_c, 11, 72, 0
18, 378440, Note_on_c, 11, 74, 60
18, 378479, Note_on_c, 11, 74, 0
18, 378480, Note_on_c, 11, 76, 60
18, 378719, Note_on_c, 11, 76, 0
18, 378880, Note_on_c, 11, 71, 62
18, 378919, Note_on_c, 11, 71, 0
18, 378920, Note_on_c, 11, 72, 62
18, 378959, Note_on_c, 11, 72, 0
18, 378960, Note_on_c, 11, 74, 62
18, 379199, Note_on_c, 11, 74, 0
18, 379360, Note_on_c, 11, 71, 64
18, 379399, Note_on_c, 11, 71, 0
18, 379400, Note_on_c, 11, 72, 65
18, 379439, Note_on_c, 11, 72, 0
18, 379440, Note_on_c, 11, 74, 65
18, 379679, Note_on_c, 11, 74, 0
18, 379840, Note_on_c, 11, 72, 67
18, 379879, Note_on_c, 11, 72, 0
18, 379880, Note_on_c, 11, 74, 67
18, 379919, Note_on_c, 11, 74, 0
18, 379920, Note_on_c, 11, 76, 67
18, 380159, Note_on_c, 11, 76, 0
18, 380320, Note_on_c, 11, 72, 69
18, 380359, Note_on_c, 11, 72, 0
18, 380360, Note_on_c, 11, 74, 69
18, 380399, Note_on_c, 11, 74, 0
18, 380400, Note_on_c, 11, 76, 70
18, 380639, Note_on_c, 11, 76, 0
18, 380800, Note_on_c, 11, 79, 72
18, 380839, Note_on_c, 11, 79, 0
18, 380840, Note_on_c, 11, 81, 72
18, 380879, Note_on_c, 11, 81, 0
18, 380880, Note_on_c, 11, 83, 72
18, 381119, Note_on_c, 11, 83, 0
18, 381280, Note_on_c, 11, 79, 74
18, 381319, Note_on_c, 11, 79, 0
18, 381320, Note_on_c, 11, 81, 74
18, 381359, Note_on_c, 11, 81, 0
18, 381360, Note_on_c, 11, 83, 74
18, 381584, Note_on_c, 11, 83, 0
18, 381600, Note_on_c, 11, 84, 76
18, 381839, Note_on_c, 11, 84, 0
18, 381840, Note_on_c, 11, 83, 76
18, 382079, Note_on_c, 11, 83, 0
18, 382080, Note_on_c, 11, 81, 76
18, 382319, Note_on_c, 11, 81, 0
18, 382320, Note_on_c, 11, 79, 76
18, 382559, Note_on_c, 11, 79, 0
18, 382560, Note_on_c, 11, 77, 76
18, 382799, Note_on_c, 11, 77, 0
18, 382800, Note_on_c, 11, 76, 76
18, 383039, Note_on_c, 11, 76, 0
18, 383040, Note_on_c, 11, 74, 76
18, 383279, Note_on_c, 11, 74, 0
18, 383280, Note_on_c, 11, 73, 76
18, 383504, Note_on_c, 11, 73, 0
18, 383520, Note_on_c, 11, 74, 76
18, 384224, Note_on_c, 11, 74, 0
18, 384240, Note_on_c, 11, 76, 76
18, 384419, Note_on_c, 11, 76, 0
18, 384480, Note_on_c, 11, 77, 76
18, 385184, Note_on_c, 11, 77, 0
18, 385200, Note_on_c, 11, 75, 76
18, 385379, Note_on_c, 11, 75, 0
18, 385440, Note_on_c, 11, 74, 76
18, 386144, Note_on_c, 11, 74, 0
18, 386160, Note_on_c, 11, 76, 76
18, 386339, Note_on_c, 11, 76, 0
18, 386400, Note_on_c, 11, 77, 76
18, 387104, Note_on_c, 11, 77, 0
18, 387120, Note_on_c, 11, 78, 76
18, 387299, Note_on_c, 11, 78, 0
18, 387360, Note_on_c, 11, 79, 76
18, 387599, Note_on_c, 11, 79, 0
18, 387840, Note_on_c, 11, 76, 52
18, 388079, Note_on_c, 11, 76, 0
18, 388320, Note_on_c, 11, 77, 52
18, 388559, Note_on_c, 11, 77, 0
18, 388800, Note_on_c, 11, 74, 52
18, 389024, Note_on_c, 11, 74, 0
18, 389040, Note_on_c, 11, 55, 76
18, 389279, Note_on_c, 11, 55, 0
18, 389280, Note_on_c, 11, 60, 76
18, 389519, Note_on_c, 11, 60, 0
18, 389520, Note_on_c, 11, 55, 76
18, 389759, Note_on_c, 11, 55, 0
18, 389760, Note_on_c, 11, 64, 76
18, 389999, Note_on_c, 11, 64, 0
18, 390000, Note_on_c, 11, 62, 76
18, 390179, Note_on_c, 11, 62, 0
18, 390180, Note_on_c, 11, 60, 76
18, 390231, Note_on_c, 11, 60, 0
18, 390240, Note_on_c, 11, 67, 76
18, 390959, Note_on_c, 11, 67, 0
18, 392880, Note_on_c, 11, 79, 52
18, 393119, Note_on_c, 11, 79, 0
18, 393120, Note_on_c, 11, 83, 53
18, 393359, Note_on_c, 11, 83, 0
18, 393360, Note_on_c, 11, 79, 54
18, 393599, Note_on_c, 11, 79, 0
18, 393600, Note_on_c, 11, 86, 55
18, 393839, Note_on_c, 11, 86, 0
18, 393840, Note_on_c, 11, 84, 56
18, 394019, Note_on_c, 11, 84, 0
18, 394020, Note_on_c, 11, 83, 57
18, 394071, Note_on_c, 11, 83, 0
18, 394080, Note_on_c, 11, 84, 57
18, 394319, Note_on_c, 11, 84, 0
18, 394320, Note_on_c, 11, 79, 58
18, 394559, Note_on_c, 11, 79, 0
18, 394560, Note_on_c, 11, 88, 60
18, 394799, Note_on_c, 11, 88, 0
18, 394800, Note_on_c, 11, 86, 61
18, 394979, Note_on_c, 11, 86, 0
18, 394980, Note_on_c, 11, 84, 62
18, 395031, Note_on_c, 11, 84, 0
18, 395040, Note_on_c, 11, 83, 62
18, 395279, Note_on_c, 11, 83, 0
18, 395280, Note_on_c, 11, 79, 63
18, 395519, Note_on_c, 11, 79, 0
18, 395520, Note_on_c, 11, 86, 64
18, 395759, Note_on_c, 11, 86, 0
18, 395760, Note_on_c, 11, 84, 65
18, 395939, Note_on_c, 11, 84, 0
18, 395940, Note_on_c, 11, 83, 66
18, 395991, Note_on_c, 11, 83, 0
18, 396000, Note_on_c, 11, 84, 66
18, 396239, Note_on_c, 11, 84, 0
18, 396240, Note_on_c, 11, 79, 68
18, 396479, Note_on_c, 11, 79, 0
18, 396480, Note_on_c, 11, 88, 69
18, 396719, Note_on_c, 11, 88, 0
18, 396720, Note_on_c, 11, 86, 70
18, 396899, Note_on_c, 11, 86, 0
18, 396900, Note_on_c, 11, 84, 71
18, 396951, Note_on_c, 11, 84, 0
18, 396960, Note_on_c, 11, 83, 71
18, 397199, Note_on_c, 11, 83, 0
18, 397200, Note_on_c, 11, 79, 72
18, 397439, Note_on_c, 11, 79, 0
18, 397440, Note_on_c, 11, 86, 73
18, 397679, Note_on_c, 11, 86, 0
18, 397680, Note_on_c, 11, 84, 74
18, 397859, Note_on_c, 11, 84, 0
18, 397860, Note_on_c, 11, 83, 75
18, 397911, Note_on_c, 11, 83, 0
18, 397920, Note_on_c, 11, 84, 76
18, 397971, Note_on_c, 11, 84, 0
18, 397980, Note_on_c, 11, 84, 76
18, 398031, Note_on_c, 11, 84, 0
18, 398040, Note_on_c, 11, 84, 76
18, 398091, Note_on_c, 11, 84, 0
18, 398100, Note_on_c, 11, 84, 76
18, 398151, Note_on_c, 11, 84, 0
18, 398160, Note_on_c, 11, 83, 76
18, 398211, Note_on_c, 11, 83, 0
18, 398220, Note_on_c, 11, 83, 76
18, 398271, Note_on_c, 11, 83, 0
18, 398280, Note_on_c, 11, 83, 76
18, 398331, Note_on_c, 11, 83, 0
18, 398340, Note_on_c, 11, 83, 76
18, 398391, Note_on_c, 11, 83, 0
18, 398400, Note_on_c, 11, 81, 76
18, 398451, Note_on_c, 11, 81, 0
18, 398460, Note_on_c, 11, 81, 76
18, 398511, Note_on_c, 11, 81, 0
18, 398520, Note_on_c, 11, 81, 76
18, 398571, Note_on_c, 11, 81, 0
18, 398580, Note_on_c, 11, 81, 76
18, 398631, Note_on_c, 11, 81, 0
18, 398640, Note_on_c, 11, 79, 76
18, 398691, Note_on_c, 11, 79, 0
18, 398700, Note_on_c, 11, 79, 76
18, 398751, Note_on_c, 11, 79, 0
18, 398760, Note_on_c, 11, 79, 76
18, 398811, Note_on_c, 11, 79, 0
18, 398820, Note_on_c, 11, 79, 76
18, 398871, Note_on_c, 11, 79, 0
18, 398880, Note_on_c, 11, 77, 76
18, 398931, Note_on_c, 11, 77, 0
18, 398940, Note_on_c, 11, 77, 76
18, 398991, Note_on_c, 11, 77, 0
18, 399000, Note_on_c, 11, 77, 76
18, 399051, Note_on_c, 11, 77, 0
18, 399060, Note_on_c, 11, 77, 76
18, 399111, Note_on_c, 11, 77, 0
18, 399120, Note_on_c, 11, 76, 76
18, 399171, Note_on_c, 11, 76, 0
18, 399180, Note_on_c, 11, 76, 76
18, 399231, Note_on_c, 11, 76, 0
18, 399240, Note_on_c, 11, 76, 76
18, 399291, Note_on_c, 11, 76, 0
18, 399300, Note_on_c, 11, 76, 76
18, 399351, Note_on_c, 11, 76, 0
18, 399360, Note_on_c, 11, 74, 76
18, 399411, Note_on_c, 11, 74, 0
18, 399420, Note_on_c, 11, 74, 76
18, 399471, Note_on_c, 11, 74, 0
18, 399480, Note_on_c, 11, 74, 76
18, 399531, Note_on_c, 11, 74, 0
18, 399540, Note_on_c, 11, 74, 76
18, 399591, Note_on_c, 11, 74, 0
18, 399600, Note_on_c, 11, 73, 76
18, 399651, Note_on_c, 11, 73, 0
18, 399660, Note_on_c, 11, 73, 76
18, 399711, Note_on_c, 11, 73, 0
18, 399720, Note_on_c, 11, 73, 76
18, 399771, Note_on_c, 11, 73, 0
18, 399780, Note_on_c, 11, 73, 76
18, 399831, Note_on_c, 11, 73, 0
18, 399840, Note_on_c, 11, 74, 76
18, 400544, Note_on_c, 11, 74, 0
18, 400560, Note_on_c, 11, 76, 76
18, 400739, Note_on_c, 11, 76, 0
18, 400800, Note_on_c, 11, 77, 76
18, 401504, Note_on_c, 11, 77, 0
18, 401520, Note_on_c, 11, 75, 76
18, 401699, Note_on_c, 11, 75, 0
18, 401760, Note_on_c, 11, 74, 76
18, 402464, Note_on_c, 11, 74, 0
18, 402480, Note_on_c, 11, 75, 76
18, 402659, Note_on_c, 11, 75, 0
18, 402720, Note_on_c, 11, 77, 76
18, 403424, Note_on_c, 11, 77, 0
18, 403440, Note_on_c, 11, 78, 76
18, 403619, Note_on_c, 11, 78, 0
18, 403680, Note_on_c, 11, 79, 52
18, 403799, Note_on_c, 11, 79, 0
18, 403920, Note_on_c, 11, 79, 52
18, 404039, Note_on_c, 11, 79, 0
18, 404160, Note_on_c, 11, 79, 52
18, 404279, Note_on_c, 11, 79, 0
18, 404400, Note_on_c, 11, 77, 53
18, 404519, Note_on_c, 11, 77, 0
18, 404640, Note_on_c, 11, 77, 54
18, 404759, Note_on_c, 11, 77, 0
18, 404880, Note_on_c, 11, 76, 55
18, 404999, Note_on_c, 11, 76, 0
18, 405120, Note_on_c, 11, 74, 56
18, 405239, Note_on_c, 11, 74, 0
18, 405360, Note_on_c, 11, 79, 57
18, 405479, Note_on_c, 11, 79, 0
18, 405600, Note_on_c, 11, 79, 58
18, 405719, Note_on_c, 11, 79, 0
18, 405840, Note_on_c, 11, 79, 59
18, 405959, Note_on_c, 11, 79, 0
18, 406080, Note_on_c, 11, 79, 60
18, 406199, Note_on_c, 11, 79, 0
18, 406320, Note_on_c, 11, 77, 61
18, 406439, Note_on_c, 11, 77, 0
18, 406560, Note_on_c, 11, 77, 62
18, 406679, Note_on_c, 11, 77, 0
18, 406800, Note_on_c, 11, 76, 64
18, 406919, Note_on_c, 11, 76, 0
18, 407040, Note_on_c, 11, 74, 65
18, 407159, Note_on_c, 11, 74, 0
18, 407280, Note_on_c, 11, 79, 66
18, 407399, Note_on_c, 11, 79, 0
18, 407520, Note_on_c, 11, 79, 67
18, 407639, Note_on_c, 11, 79, 0
18, 407760, Note_on_c, 11, 79, 68
18, 407879, Note_on_c, 11, 79, 0
18, 408000, Note_on_c, 11, 79, 69
18, 408119, Note_on_c, 11, 79, 0
18, 408240, Note_on_c, 11, 77, 70
18, 408359, Note_on_c, 11, 77, 0
18, 408480, Note_on_c, 11, 77, 71
18, 408599, Note_on_c, 11, 77, 0
18, 408720, Note_on_c, 11, 76, 72
18, 408839, Note_on_c, 11, 76, 0
18, 408960, Note_on_c, 11, 74, 73
18, 409079, Note_on_c, 11, 74, 0
18, 409200, Note_on_c, 11, 79, 74
18, 409319, Note_on_c, 11, 79, 0
18, 409440, Note_on_c, 11, 60, 76
18, 409499, Note_on_c, 11, 60, 0
18, 409500, Note_on_c, 11, 60, 52
18, 409779, Note_on_c, 11, 60, 0
18, 409800, Note_on_c, 11, 59, 52
18, 409899, Note_on_c, 11, 59, 0
18, 409920, Note_on_c, 11, 57, 52
18, 410039, Note_on_c, 11, 57, 0
18, 410040, Note_on_c, 11, 55, 52
18, 410139, Note_on_c, 11, 55, 0
18, 410160, Note_on_c, 11, 55, 52
18, 410249, Note_on_c, 11, 55, 0
18, 410280, Note_on_c, 11, 55, 52
18, 410369, Note_on_c, 11, 55, 0
18, 410400, Note_on_c, 11, 60, 76
18, 410459, Note_on_c, 11, 60, 0
18, 410460, Note_on_c, 11, 60, 52
18, 410739, Note_on_c, 11, 60, 0
18, 410760, Note_on_c, 11, 59, 52
18, 410859, Note_on_c, 11, 59, 0
18, 410880, Note_on_c, 11, 57, 52
18, 410999, Note_on_c, 11, 57, 0
18, 411000, Note_on_c, 11, 55, 52
18, 411099, Note_on_c, 11, 55, 0
18, 411120, Note_on_c, 11, 55, 52
18, 411209, Note_on_c, 11, 55, 0
18, 411240, Note_on_c, 11, 55, 52
18, 411329, Note_on_c, 11, 55, 0
18, 411360, Note_on_c, 11, 64, 76
18, 411419, Note_on_c, 11, 64, 0
18, 411420, Note_on_c, 11, 64, 52
18, 411699, Note_on_c, 11, 64, 0
18, 411720, Note_on_c, 11, 62, 52
18, 411819, Note_on_c, 11, 62, 0
18, 411840, Note_on_c, 11, 60, 52
18, 411959, Note_on_c, 11, 60, 0
18, 411960, Note_on_c, 11, 59, 52
18, 412059, Note_on_c, 11, 59, 0
18, 412080, Note_on_c, 11, 59, 52
18, 412169, Note_on_c, 11, 59, 0
18, 412200, Note_on_c, 11, 59, 52
18, 412289, Note_on_c, 11, 59, 0
18, 412320, Note_on_c, 11, 64, 76
18, 412379, Note_on_c, 11, 64, 0
18, 412380, Note_on_c, 11, 64, 52
18, 412659, Note_on_c, 11, 64, 0
18, 412680, Note_on_c, 11, 62, 52
18, 412779, Note_on_c, 11, 62, 0
18, 412800, Note_on_c, 11, 60, 52
18, 412919, Note_on_c, 11, 60, 0
18, 412920, Note_on_c, 11, 59, 52
18, 413019, Note_on_c, 11, 59, 0
18, 413040, Note_on_c, 11, 59, 52
18, 413129, Note_on_c, 11, 59, 0
18, 413160, Note_on_c, 11, 59, 52
18, 413249, Note_on_c, 11, 59, 0
18, 413280, Note_on_c, 11, 72, 76
18, 413339, Note_on_c, 11, 72, 0
18, 413340, Note_on_c, 11, 72, 52
18, 413619, Note_on_c, 11, 72, 0
18, 413640, Note_on_c, 11, 71, 52
18, 413739, Note_on_c, 11, 71, 0
18, 413760, Note_on_c, 11, 69, 52
18, 413879, Note_on_c, 11, 69, 0
18, 413880, Note_on_c, 11, 67, 52
18, 413979, Note_on_c, 11, 67, 0
18, 414000, Note_on_c, 11, 67, 52
18, 414089, Note_on_c, 11, 67, 0
18, 414120, Note_on_c, 11, 67, 52
18, 414209, Note_on_c, 11, 67, 0
18, 414240, Note_on_c, 11, 72, 76
18, 414299, Note_on_c, 11, 72, 0
18, 414300, Note_on_c, 11, 72, 52
18, 414579, Note_on_c, 11, 72, 0
18, 414600, Note_on_c, 11, 71, 52
18, 414699, Note_on_c, 11, 71, 0
18, 414720, Note_on_c, 11, 69, 52
18, 414839, Note_on_c, 11, 69, 0
18, 414840, Note_on_c, 11, 67, 52
18, 414939, Note_on_c, 11, 67, 0
18, 414960, Note_on_c, 11, 67, 52
18, 415049, Note_on_c, 11, 67, 0
18, 415080, Note_on_c, 11, 67, 52
18, 415169, Note_on_c, 11, 67, 0
18, 415200, Note_on_c, 11, 76, 76
18, 415259, Note_on_c, 11, 76, 0
18, 415260, Note_on_c, 11, 76, 52
18, 415539, Note_on_c, 11, 76, 0
18, 415560, Note_on_c, 11, 74, 52
18, 415659, Note_on_c, 11, 74, 0
18, 415680, Note_on_c, 11, 72, 52
18, 415799, Note_on_c, 11, 72, 0
18, 415800, Note_on_c, 11, 71, 52
18, 415899, Note_on_c, 11, 71, 0
18, 415920, Note_on_c, 11, 71, 52
18, 416009, Note_on_c, 11, 71, 0
18, 416040, Note_on_c, 11, 71, 52
18, 416129, Note_on_c, 11, 71, 0
18, 416160, Note_on_c, 11, 76, 76
18, 416219, Note_on_c, 11, 76, 0
18, 416220, Note_on_c, 11, 76, 52
18, 416499, Note_on_c, 11, 76, 0
18, 416520, Note_on_c, 11, 74, 52
18, 416619, Note_on_c, 11, 74, 0
18, 416640, Note_on_c, 11, 72, 52
18, 416759, Note_on_c, 11, 72, 0
18, 416760, Note_on_c, 11, 71, 52
18, 416859, Note_on_c, 11, 71, 0
18, 416880, Note_on_c, 11, 71, 52
18, 416969, Note_on_c, 11, 71, 0
18, 417000, Note_on_c, 11, 71, 52
18, 417089, Note_on_c, 11, 71, 0
18, 417120, Note_on_c, 11, 79, 52
18, 417239, Note_on_c, 11, 79, 0
18, 417360, Note_on_c, 11, 79, 53
18, 417479, Note_on_c, 11, 79, 0
18, 417600, Note_on_c, 11, 79, 55
18, 417719, Note_on_c, 11, 79, 0
18, 417840, Note_on_c, 11, 77, 56
18, 417959, Note_on_c, 11, 77, 0
18, 418080, Note_on_c, 11, 77, 58
18, 418199, Note_on_c, 11, 77, 0
18, 418320, Note_on_c, 11, 76, 59
18, 418439, Note_on_c, 11, 76, 0
18, 418560, Note_on_c, 11, 74, 61
18, 418679, Note_on_c, 11, 74, 0
18, 418800, Note_on_c, 11, 79, 62
18, 418919, Note_on_c, 11, 79, 0
18, 419040, Note_on_c, 11, 79, 64
18, 419159, Note_on_c, 11, 79, 0
18, 419280, Note_on_c, 11, 79, 65
18, 419399, Note_on_c, 11, 79, 0
18, 419520, Note_on_c, 11, 79, 67
18, 419639, Note_on_c, 11, 79, 0
18, 419760, Note_on_c, 11, 77, 68
18, 419879, Note_on_c, 11, 77, 0
18, 420000, Note_on_c, 11, 77, 70
18, 420119, Note_on_c, 11, 77, 0
18, 420240, Note_on_c, 11, 76, 71
18, 420359, Note_on_c, 11, 76, 0
18, 420480, Note_on_c, 11, 74, 73
18, 420599, Note_on_c, 11, 74, 0
18, 420720, Note_on_c, 11, 79, 74
18, 420769, Note_on_c, 11, 79, 0
18, 420780, Note_on_c, 11, 79, 74
18, 420829, Note_on_c, 11, 79, 0
18, 420840, Note_on_c, 11, 79, 75
18, 420889, Note_on_c, 11, 79, 0
18, 420900, Note_on_c, 11, 79, 75
18, 420949, Note_on_c, 11, 79, 0
18, 420960, Note_on_c, 11, 79, 76
18, 421009, Note_on_c, 11, 79, 0
18, 421020, Note_on_c, 11, 79, 76
18, 421069, Note_on_c, 11, 79, 0
18, 421080, Note_on_c, 11, 79, 76
18, 421129, Note_on_c, 11, 79, 0
18, 421140, Note_on_c, 11, 79, 76
18, 421189, Note_on_c, 11, 79, 0
18, 421200, Note_on_c, 11, 79, 76
18, 421249, Note_on_c, 11, 79, 0
18, 421260, Note_on_c, 11, 79, 76
18, 421309, Note_on_c, 11, 79, 0
18, 421320, Note_on_c, 11, 79, 76
18, 421369, Note_on_c, 11, 79, 0
18, 421380, Note_on_c, 11, 79, 76
18, 421429, Note_on_c, 11, 79, 0
18, 421440, Note_on_c, 11, 79, 76
18, 421489, Note_on_c, 11, 79, 0
18, 421500, Note_on_c, 11, 79, 76
18, 421549, Note_on_c, 11, 79, 0
18, 421560, Note_on_c, 11, 79, 76
18, 421609, Note_on_c, 11, 79, 0
18, 421620, Note_on_c, 11, 79, 76
18, 421669, Note_on_c, 11, 79, 0
18, 421680, Note_on_c, 11, 77, 76
18, 421729, Note_on_c, 11, 77, 0
18, 421740, Note_on_c, 11, 77, 76
18, 421789, Note_on_c, 11, 77, 0
18, 421800, Note_on_c, 11, 77, 76
18, 421849, Note_on_c, 11, 77, 0
18, 421860, Note_on_c, 11, 77, 76
18, 421909, Note_on_c, 11, 77, 0
18, 421920, Note_on_c, 11, 77, 76
18, 421969, Note_on_c, 11, 77, 0
18, 421980, Note_on_c, 11, 77, 76
18, 422029, Note_on_c, 11, 77, 0
18, 422040, Note_on_c, 11, 77, 76
18, 422089, Note_on_c, 11, 77, 0
18, 422100, Note_on_c, 11, 77, 76
18, 422149, Note_on_c, 11, 77, 0
18, 422160, Note_on_c, 11, 76, 76
18, 422209, Note_on_c, 11, 76, 0
18, 422220, Note_on_c, 11, 76, 76
18, 422269, Note_on_c, 11, 76, 0
18, 422280, Note_on_c, 11, 76, 76
18, 422329, Note_on_c, 11, 76, 0
18, 422340, Note_on_c, 11, 76, 76
18, 422389, Note_on_c, 11, 76, 0
18, 422400, Note_on_c, 11, 74, 76
18, 422449, Note_on_c, 11, 74, 0
18, 422460, Note_on_c, 11, 74, 76
18, 422509, Note_on_c, 11, 74, 0
18, 422520, Note_on_c, 11, 74, 76
18, 422569, Note_on_c, 11, 74, 0
18, 422580, Note_on_c, 11, 74, 76
18, 422629, Note_on_c, 11, 74, 0
18, 422640, Note_on_c, 11, 79, 76
18, 422689, Note_on_c, 11, 79, 0
18, 422700, Note_on_c, 11, 79, 76
18, 422749, Note_on_c, 11, 79, 0
18, 422760, Note_on_c, 11, 79, 76
18, 422809, Note_on_c, 11, 79, 0
18, 422820, Note_on_c, 11, 79, 76
18, 422869, Note_on_c, 11, 79, 0
18, 422880, Note_on_c, 11, 72, 84
18, 422929, Note_on_c, 11, 72, 0
18, 422940, Note_on_c, 11, 72, 84
18, 422989, Note_on_c, 11, 72, 0
18, 423000, Note_on_c, 11, 72, 84
18, 423049, Note_on_c, 11, 72, 0
18, 423060, Note_on_c, 11, 72, 84
18, 423109, Note_on_c, 11, 72, 0
18, 423120, Note_on_c, 11, 76, 84
18, 423169, Note_on_c, 11, 76, 0
18, 423180, Note_on_c, 11, 76, 84
18, 423229, Note_on_c, 11, 76, 0
18, 423240, Note_on_c, 11, 76, 84
18, 423289, Note_on_c, 11, 76, 0
18, 423300, Note_on_c, 11, 76, 84
18, 423349, Note_on_c, 11, 76, 0
18, 423360, Note_on_c, 11, 79, 84
18, 423409, Note_on_c, 11, 79, 0
18, 423420, Note_on_c, 11, 79, 84
18, 423469, Note_on_c, 11, 79, 0
18, 423480, Note_on_c, 11, 79, 84
18, 423529, Note_on_c, 11, 79, 0
18, 423540, Note_on_c, 11, 79, 84
18, 423589, Note_on_c, 11, 79, 0
18, 423600, Note_on_c, 11, 79, 84
18, 423649, Note_on_c, 11, 79, 0
18, 423660, Note_on_c, 11, 79, 84
18, 423709, Note_on_c, 11, 79, 0
18, 423720, Note_on_c, 11, 77, 84
18, 423769, Note_on_c, 11, 77, 0
18, 423780, Note_on_c, 11, 77, 84
18, 423829, Note_on_c, 11, 77, 0
18, 423840, Note_on_c, 11, 76, 84
18, 423889, Note_on_c, 11, 76, 0
18, 423900, Note_on_c, 11, 76, 84
18, 423949, Note_on_c, 11, 76, 0
18, 423960, Note_on_c, 11, 74, 84
18, 424009, Note_on_c, 11, 74, 0
18, 424020, Note_on_c, 11, 74, 84
18, 424069, Note_on_c, 11, 74, 0
18, 424080, Note_on_c, 11, 72, 84
18, 424129, Note_on_c, 11, 72, 0
18, 424140, Note_on_c, 11, 72, 84
18, 424189, Note_on_c, 11, 72, 0
18, 424200, Note_on_c, 11, 74, 84
18, 424249, Note_on_c, 11, 74, 0
18, 424260, Note_on_c, 11, 74, 84
18, 424309, Note_on_c, 11, 74, 0
18, 424320, Note_on_c, 11, 76, 84
18, 424369, Note_on_c, 11, 76, 0
18, 424380, Note_on_c, 11, 76, 84
18, 424429, Note_on_c, 11, 76, 0
18, 424440, Note_on_c, 11, 76, 84
18, 424489, Note_on_c, 11, 76, 0
18, 424500, Note_on_c, 11, 76, 84
18, 424549, Note_on_c, 11, 76, 0
18, 424560, Note_on_c, 11, 76, 84
18, 424609, Note_on_c, 11, 76, 0
18, 424620, Note_on_c, 11, 76, 84
18, 424669, Note_on_c, 11, 76, 0
18, 424680, Note_on_c, 11, 76, 84
18, 424729, Note_on_c, 11, 76, 0
18, 424740, Note_on_c, 11, 76, 84
18, 424789, Note_on_c, 11, 76, 0
18, 424800, Note_on_c, 11, 76, 84
18, 424849, Note_on_c, 11, 76, 0
18, 424860, Note_on_c, 11, 76, 84
18, 424909, Note_on_c, 11, 76, 0
18, 424920, Note_on_c, 11, 74, 84
18, 424969, Note_on_c, 11, 74, 0
18, 424980, Note_on_c, 11, 74, 84
18, 425029, Note_on_c, 11, 74, 0
18, 425040, Note_on_c, 11, 76, 84
18, 425089, Note_on_c, 11, 76, 0
18, 425100, Note_on_c, 11, 76, 84
18, 425149, Note_on_c, 11, 76, 0
18, 425160, Note_on_c, 11, 77, 84
18, 425209, Note_on_c, 11, 77, 0
18, 425220, Note_on_c, 11, 77, 84
18, 425269, Note_on_c, 11, 77, 0
18, 425280, Note_on_c, 11, 79, 84
18, 425329, Note_on_c, 11, 79, 0
18, 425340, Note_on_c, 11, 79, 84
18, 425389, Note_on_c, 11, 79, 0
18, 425400, Note_on_c, 11, 79, 84
18, 425449, Note_on_c, 11, 79, 0
18, 425460, Note_on_c, 11, 79, 84
18, 425509, Note_on_c, 11, 79, 0
18, 425520, Note_on_c, 11, 79, 84
18, 425569, Note_on_c, 11, 79, 0
18, 425580, Note_on_c, 11, 79, 84
18, 425629, Note_on_c, 11, 79, 0
18, 425640, Note_on_c, 11, 79, 84
18, 425689, Note_on_c, 11, 79, 0
18, 425700, Note_on_c, 11, 79, 84
18, 425749, Note_on_c, 11, 79, 0
18, 425760, Note_on_c, 11, 79, 84
18, 425809, Note_on_c, 11, 79, 0
18, 425820, Note_on_c, 11, 79, 84
18, 425869, Note_on_c, 11, 79, 0
18, 425880, Note_on_c, 11, 77, 84
18, 425929, Note_on_c, 11, 77, 0
18, 425940, Note_on_c, 11, 77, 84
18, 425989, Note_on_c, 11, 77, 0
18, 426000, Note_on_c, 11, 79, 84
18, 426049, Note_on_c, 11, 79, 0
18, 426060, Note_on_c, 11, 79, 84
18, 426109, Note_on_c, 11, 79, 0
18, 426120, Note_on_c, 11, 83, 84
18, 426169, Note_on_c, 11, 83, 0
18, 426180, Note_on_c, 11, 83, 84
18, 426229, Note_on_c, 11, 83, 0
18, 426240, Note_on_c, 11, 84, 84
18, 426289, Note_on_c, 11, 84, 0
18, 426300, Note_on_c, 11, 84, 84
18, 426349, Note_on_c, 11, 84, 0
18, 426360, Note_on_c, 11, 84, 84
18, 426409, Note_on_c, 11, 84, 0
18, 426420, Note_on_c, 11, 84, 84
18, 426469, Note_on_c, 11, 84, 0
18, 426480, Note_on_c, 11, 84, 84
18, 426529, Note_on_c, 11, 84, 0
18, 426540, Note_on_c, 11, 84, 84
18, 426589, Note_on_c, 11, 84, 0
18, 426600, Note_on_c, 11, 83, 84
18, 426649, Note_on_c, 11, 83, 0
18, 426660, Note_on_c, 11, 83, 84
18, 426709, Note_on_c, 11, 83, 0
18, 426720, Note_on_c, 11, 84, 84
18, 426769, Note_on_c, 11, 84, 0
18, 426780, Note_on_c, 11, 84, 84
18, 426829, Note_on_c, 11, 84, 0
18, 426840, Note_on_c, 11, 83, 84
18, 426889, Note_on_c, 11, 83, 0
18, 426900, Note_on_c, 11, 83, 84
18, 426949, Note_on_c, 11, 83, 0
18, 426960, Note_on_c, 11, 84, 84
18, 427009, Note_on_c, 11, 84, 0
18, 427020, Note_on_c, 11, 84, 84
18, 427069, Note_on_c, 11, 84, 0
18, 427080, Note_on_c, 11, 86, 84
18, 427129, Note_on_c, 11, 86, 0
18, 427140, Note_on_c, 11, 86, 84
18, 427189, Note_on_c, 11, 86, 0
18, 427200, Note_on_c, 11, 88, 84
18, 427249, Note_on_c, 11, 88, 0
18, 427260, Note_on_c, 11, 88, 84
18, 427309, Note_on_c, 11, 88, 0
18, 427320, Note_on_c, 11, 86, 84
18, 427369, Note_on_c, 11, 86, 0
18, 427380, Note_on_c, 11, 86, 84
18, 427429, Note_on_c, 11, 86, 0
18, 427440, Note_on_c, 11, 88, 84
18, 427489, Note_on_c, 11, 88, 0
18, 427500, Note_on_c, 11, 88, 84
18, 427549, Note_on_c, 11, 88, 0
18, 427560, Note_on_c, 11, 89, 84
18, 427609, Note_on_c, 11, 89, 0
18, 427620, Note_on_c, 11, 89, 84
18, 427669, Note_on_c, 11, 89, 0
18, 427680, Note_on_c, 11, 91, 84
18, 427729, Note_on_c, 11, 91, 0
18, 427740, Note_on_c, 11, 91, 84
18, 427789, Note_on_c, 11, 91, 0
18, 427800, Note_on_c, 11, 91, 84
18, 427849, Note_on_c, 11, 91, 0
18, 427860, Note_on_c, 11, 91, 84
18, 427909, Note_on_c, 11, 91, 0
18, 427920, Note_on_c, 11, 91, 84
18, 427969, Note_on_c, 11, 91, 0
18, 427980, Note_on_c, 11, 91, 84
18, 428029, Note_on_c, 11, 91, 0
18, 428040, Note_on_c, 11, 91, 84
18, 428089, Note_on_c, 11, 91, 0
18, 428100, Note_on_c, 11, 91, 84
18, 428149, Note_on_c, 11, 91, 0
18, 428160, Note_on_c, 11, 91, 84
18, 428209, Note_on_c, 11, 91, 0
18, 428220, Note_on_c, 11, 91, 84
18, 428269, Note_on_c, 11, 91, 0
18, 428280, Note_on_c, 11, 91, 84
18, 428329, Note_on_c, 11, 91, 0
18, 428340, Note_on_c, 11, 91, 84
18, 428389, Note_on_c, 11, 91, 0
18, 428400, Note_on_c, 11, 91, 84
18, 428449, Note_on_c, 11, 91, 0
18, 428460, Note_on_c, 11, 91, 84
18, 428509, Note_on_c, 11, 91, 0
18, 428520, Note_on_c, 11, 91, 84
18, 428569, Note_on_c, 11, 91, 0
18, 428580, Note_on_c, 11, 91, 84
18, 428629, Note_on_c, 11, 91, 0
18, 428640, Note_on_c, 11, 88, 84
18, 428689, Note_on_c, 11, 88, 0
18, 428700, Note_on_c, 11, 88, 84
18, 428749, Note_on_c, 11, 88, 0
18, 428760, Note_on_c, 11, 88, 84
18, 428809, Note_on_c, 11, 88, 0
18, 428820, Note_on_c, 11, 88, 84
18, 428869, Note_on_c, 11, 88, 0
18, 428880, Note_on_c, 11, 88, 84
18, 428929, Note_on_c, 11, 88, 0
18, 428940, Note_on_c, 11, 88, 84
18, 428989, Note_on_c, 11, 88, 0
18, 429000, Note_on_c, 11, 88, 84
18, 429049, Note_on_c, 11, 88, 0
18, 429060, Note_on_c, 11, 88, 84
18, 429109, Note_on_c, 11, 88, 0
18, 429120, Note_on_c, 11, 88, 84
18, 429169, Note_on_c, 11, 88, 0
18, 429180, Note_on_c, 11, 88, 84
18, 429229, Note_on_c, 11, 88, 0
18, 429240, Note_on_c, 11, 88, 84
18, 429289, Note_on_c, 11, 88, 0
18, 429300, Note_on_c, 11, 88, 84
18, 429349, Note_on_c, 11, 88, 0
18, 429360, Note_on_c, 11, 88, 84
18, 429409, Note_on_c, 11, 88, 0
18, 429420, Note_on_c, 11, 88, 84
18, 429469, Note_on_c, 11, 88, 0
18, 429480, Note_on_c, 11, 88, 84
18, 429529, Note_on_c, 11, 88, 0
18, 429540, Note_on_c, 11, 88, 84
18, 429589, Note_on_c, 11, 88, 0
18, 429600, Note_on_c, 11, 84, 84
18, 429719, Note_on_c, 11, 84, 0
18, 430080, Note_on_c, 11, 74, 84
18, 430080, Note_on_c, 11, 67, 84
18, 430080, Note_on_c, 11, 55, 84
18, 430199, Note_on_c, 11, 74, 0
18, 430199, Note_on_c, 11, 67, 0
18, 430199, Note_on_c, 11, 55, 0
18, 430560, Note_on_c, 11, 67, 84
18, 430560, Note_on_c, 11, 55, 84
18, 430560, Note_on_c, 11, 76, 84
18, 430679, Note_on_c, 11, 67, 0
18, 430679, Note_on_c, 11, 55, 0
18, 430679, Note_on_c, 11, 76, 0
18, 431040, Note_on_c, 11, 71, 84
18, 431040, Note_on_c, 11, 55, 84
18, 431040, Note_on_c, 11, 79, 84
18, 431040, Note_on_c, 11, 62, 84
18, 431159, Note_on_c, 11, 71, 0
18, 431159, Note_on_c, 11, 55, 0
18, 431159, Note_on_c, 11, 79, 0
18, 431159, Note_on_c, 11, 62, 0
18, 431520, Note_on_c, 11, 76, 84
18, 431520, Note_on_c, 11, 55, 84
18, 431520, Note_on_c, 11, 64, 84
18, 431520, Note_on_c, 11, 72, 84
18, 431639, Note_on_c, 11, 76, 0
18, 431639, Note_on_c, 11, 55, 0
18, 431639, Note_on_c, 11, 64, 0
18, 431639, Note_on_c, 11, 72, 0
18, 432000, Note_on_c, 11, 67, 84
18, 432000, Note_on_c, 11, 55, 84
18, 432000, Note_on_c, 11, 74, 84
18, 432119, Note_on_c, 11, 67, 0
18, 432119, Note_on_c, 11, 55, 0
18, 432119, Note_on_c, 11, 74, 0
18, 432480, Note_on_c, 11, 67, 84
18, 432480, Note_on_c, 11, 76, 84
18, 432480, Note_on_c, 11, 55, 84
18, 432599, Note_on_c, 11, 67, 0
18, 432599, Note_on_c, 11, 76, 0
18, 432599, Note_on_c, 11, 55, 0
18, 432960, Note_on_c, 11, 79, 84
18, 432960, Note_on_c, 11, 71, 84
18, 432960, Note_on_c, 11, 55, 84
18, 432960, Note_on_c, 11, 62, 84
18, 433079, Note_on_c, 11, 79, 0
18, 433079, Note_on_c, 11, 71, 0
18, 433079, Note_on_c, 11, 55, 0
18, 433079, Note_on_c, 11, 62, 0
18, 433440, Note_on_c, 11, 76, 84
18, 433440, Note_on_c, 11, 55, 84
18, 433440, Note_on_c, 11, 72, 84
18, 433440, Note_on_c, 11, 64, 84
18, 433559, Note_on_c, 11, 76, 0
18, 433559, Note_on_c, 11, 55, 0
18, 433559, Note_on_c, 11, 72, 0
18, 433559, Note_on_c, 11, 64, 0
18, 433920, Note_on_c, 11, 55, 84
18, 433920, Note_on_c, 11, 71, 84
18, 433920, Note_on_c, 11, 62, 84
18, 433920, Note_on_c, 11, 79, 84
18, 434039, Note_on_c, 11, 55, 0
18, 434039, Note_on_c, 11, 71, 0
18, 434039, Note_on_c, 11, 62, 0
18, 434039, Note_on_c, 11, 79, 0
18, 434400, Note_on_c, 11, 55, 84
18, 434400, Note_on_c, 11, 76, 84
18, 434400, Note_on_c, 11, 72, 84
18, 434400, Note_on_c, 11, 64, 84
18, 434519, Note_on_c, 11, 55, 0
18, 434519, Note_on_c, 11, 76, 0
18, 434519, Note_on_c, 11, 72, 0
18, 434519, Note_on_c, 11, 64, 0
18, 434880, Note_on_c, 11, 55, 84
18, 434880, Note_on_c, 11, 79, 84
18, 434880, Note_on_c, 11, 71, 84
18, 434880, Note_on_c, 11, 62, 84
18, 434999, Note_on_c, 11, 55, 0
18, 434999, Note_on_c, 11, 79, 0
18, 434999, Note_on_c, 11, 71, 0
18, 434999, Note_on_c, 11, 62, 0
18, 435360, Note_on_c, 11, 84, 84
18, 435409, Note_on_c, 11, 84, 0
18, 435420, Note_on_c, 11, 84, 84
18, 435469, Note_on_c, 11, 84, 0
18, 435480, Note_on_c, 11, 84, 84
18, 435529, Note_on_c, 11, 84, 0
18, 435540, Note_on_c, 11, 84, 84
18, 435589, Note_on_c, 11, 84, 0
18, 435600, Note_on_c, 11, 84, 84
18, 435649, Note_on_c, 11, 84, 0
18, 435660, Note_on_c, 11, 84, 84
18, 435709, Note_on_c, 11, 84, 0
18, 435720, Note_on_c, 11, 84, 84
18, 435769, Note_on_c, 11, 84, 0
18, 435780, Note_on_c, 11, 84, 84
18, 435829, Note_on_c, 11, 84, 0
18, 435840, Note_on_c, 11, 84, 84
18, 435889, Note_on_c, 11, 84, 0
18, 435900, Note_on_c, 11, 84, 84
18, 435949, Note_on_c, 11, 84, 0
18, 435960, Note_on_c, 11, 84, 84
18, 436009, Note_on_c, 11, 84, 0
18, 436020, Note_on_c, 11, 84, 84
18, 436069, Note_on_c, 11, 84, 0
18, 436080, Note_on_c, 11, 79, 84
18, 436129, Note_on_c, 11, 79, 0
18, 436140, Note_on_c, 11, 79, 84
18, 436189, Note_on_c, 11, 79, 0
18, 436200, Note_on_c, 11, 76, 84
18, 436249, Note_on_c, 11, 76, 0
18, 436260, Note_on_c, 11, 76, 84
18, 436309, Note_on_c, 11, 76, 0
18, 436320, Note_on_c, 11, 72, 84
18, 436369, Note_on_c, 11, 72, 0
18, 436380, Note_on_c, 11, 72, 84
18, 436429, Note_on_c, 11, 72, 0
18, 436440, Note_on_c, 11, 72, 84
18, 436489, Note_on_c, 11, 72, 0
18, 436500, Note_on_c, 11, 72, 84
18, 436549, Note_on_c, 11, 72, 0
18, 436560, Note_on_c, 11, 72, 84
18, 436609, Note_on_c, 11, 72, 0
18, 436620, Note_on_c, 11, 72, 84
18, 436669, Note_on_c, 11, 72, 0
18, 436680, Note_on_c, 11, 72, 84
18, 436729, Note_on_c, 11, 72, 0
18, 436740, Note_on_c, 11, 72, 84
18, 436789, Note_on_c, 11, 72, 0
18, 436800, Note_on_c, 11, 72, 84
18, 436849, Note_on_c, 11, 72, 0
18, 436860, Note_on_c, 11, 72, 84
18, 436909, Note_on_c, 11, 72, 0
18, 436920, Note_on_c, 11, 72, 84
18, 436969, Note_on_c, 11, 72, 0
18, 436980, Note_on_c, 11, 72, 84
18, 437029, Note_on_c, 11, 72, 0
18, 437040, Note_on_c, 11, 67, 84
18, 437089, Note_on_c, 11, 67, 0
18, 437100, Note_on_c, 11, 67, 84
18, 437149, Note_on_c, 11, 67, 0
18, 437160, Note_on_c, 11, 64, 84
18, 437209, Note_on_c, 11, 64, 0
18, 437220, Note_on_c, 11, 64, 84
18, 437269, Note_on_c, 11, 64, 0
18, 437280, Note_on_c, 11, 60, 84
18, 437399, Note_on_c, 11, 60, 0
18, 437640, Note_on_c, 11, 72, 84
18, 437739, Note_on_c, 11, 72, 0
18, 437760, Note_on_c, 11, 72, 84
18, 437859, Note_on_c, 11, 72, 0
18, 437880, Note_on_c, 11, 72, 84
18, 437979, Note_on_c, 11, 72, 0
18, 438000, Note_on_c, 11, 72, 84
18, 438099, Note_on_c, 11, 72, 0
18, 438120, Note_on_c, 11, 72, 84
18, 438219, Note_on_c, 11, 72, 0
18, 438240, Note_on_c, 11, 72, 84
18, 438359, Note_on_c, 11, 72, 0
18, 438600, Note_on_c, 11, 76, 84
18, 438699, Note_on_c, 11, 76, 0
18, 438720, Note_on_c, 11, 76, 84
18, 438819, Note_on_c, 11, 76, 0
18, 438840, Note_on_c, 11, 76, 84
18, 438939, Note_on_c, 11, 76, 0
18, 438960, Note_on_c, 11, 76, 84
18, 439059, Note_on_c, 11, 76, 0
18, 439080, Note_on_c, 11, 76, 84
18, 439179, Note_on_c, 11, 76, 0
18, 439200, Note_on_c, 11, 76, 84
18, 439319, Note_on_c, 11, 76, 0
18, 439440, Note_on_c, 11, 72, 84
18, 439539, Note_on_c, 11, 72, 0
18, 439560, Note_on_c, 11, 72, 84
18, 439659, Note_on_c, 11, 72, 0
18, 439680, Note_on_c, 11, 72, 84
18, 439799, Note_on_c, 11, 72, 0
18, 439920, Note_on_c, 11, 76, 84
18, 440019, Note_on_c, 11, 76, 0
18, 440040, Note_on_c, 11, 76, 84
18, 440139, Note_on_c, 11, 76, 0
18, 440160, Note_on_c, 11, 76, 84
18, 440279, Note_on_c, 11, 76, 0
18, 440400, Note_on_c, 11, 79, 84
18, 440499, Note_on_c, 11, 79, 0
18, 440520, Note_on_c, 11, 79, 84
18, 440619, Note_on_c, 11, 79, 0
18, 440640, Note_on_c, 11, 79, 84
18, 440759, Note_on_c, 11, 79, 0
18, 440880, Note_on_c, 11, 84, 84
18, 440979, Note_on_c, 11, 84, 0
18, 441000, Note_on_c, 11, 84, 84
18, 441099, Note_on_c, 11, 84, 0
18, 441120, Note_on_c, 11, 84, 84
18, 441169, Note_on_c, 11, 84, 0
18, 441180, Note_on_c, 11, 84, 84
18, 441229, Note_on_c, 11, 84, 0
18, 441240, Note_on_c, 11, 84, 84
18, 441289, Note_on_c, 11, 84, 0
18, 441300, Note_on_c, 11, 84, 84
18, 441349, Note_on_c, 11, 84, 0
18, 441360, Note_on_c, 11, 84, 84
18, 441409, Note_on_c, 11, 84, 0
18, 441420, Note_on_c, 11, 84, 84
18, 441469, Note_on_c, 11, 84, 0
18, 441480, Note_on_c, 11, 84, 84
18, 441529, Note_on_c, 11, 84, 0
18, 441540, Note_on_c, 11, 84, 84
18, 441589, Note_on_c, 11, 84, 0
18, 441600, Note_on_c, 11, 84, 84
18, 441649, Note_on_c, 11, 84, 0
18, 441660, Note_on_c, 11, 84, 84
18, 441709, Note_on_c, 11, 84, 0
18, 441720, Note_on_c, 11, 84, 84
18, 441769, Note_on_c, 11, 84, 0
18, 441780, Note_on_c, 11, 84, 84
18, 441829, Note_on_c, 11, 84, 0
18, 441840, Note_on_c, 11, 84, 84
18, 441889, Note_on_c, 11, 84, 0
18, 441900, Note_on_c, 11, 84, 84
18, 441949, Note_on_c, 11, 84, 0
18, 441960, Note_on_c, 11, 84, 84
18, 442009, Note_on_c, 11, 84, 0
18, 442020, Note_on_c, 11, 84, 84
18, 442069, Note_on_c, 11, 84, 0
18, 442080, Note_on_c, 11, 88, 84
18, 442129, Note_on_c, 11, 88, 0
18, 442140, Note_on_c, 11, 88, 84
18, 442189, Note_on_c, 11, 88, 0
18, 442200, Note_on_c, 11, 88, 84
18, 442249, Note_on_c, 11, 88, 0
18, 442260, Note_on_c, 11, 88, 84
18, 442309, Note_on_c, 11, 88, 0
18, 442320, Note_on_c, 11, 88, 84
18, 442369, Note_on_c, 11, 88, 0
18, 442380, Note_on_c, 11, 88, 84
18, 442429, Note_on_c, 11, 88, 0
18, 442440, Note_on_c, 11, 88, 84
18, 442489, Note_on_c, 11, 88, 0
18, 442500, Note_on_c, 11, 88, 84
18, 442549, Note_on_c, 11, 88, 0
18, 442560, Note_on_c, 11, 88, 84
18, 442609, Note_on_c, 11, 88, 0
18, 442620, Note_on_c, 11, 88, 84
18, 442669, Note_on_c, 11, 88, 0
18, 442680, Note_on_c, 11, 88, 84
18, 442729, Note_on_c, 11, 88, 0
18, 442740, Note_on_c, 11, 88, 84
18, 442789, Note_on_c, 11, 88, 0
18, 442800, Note_on_c, 11, 88, 84
18, 442849, Note_on_c, 11, 88, 0
18, 442860, Note_on_c, 11, 88, 84
18, 442909, Note_on_c, 11, 88, 0
18, 442920, Note_on_c, 11, 88, 84
18, 442969, Note_on_c, 11, 88, 0
18, 442980, Note_on_c, 11, 88, 84
18, 443029, Note_on_c, 11, 88, 0
18, 443040, Note_on_c, 11, 88, 84
18, 443040, Note_on_c, 11, 76, 84
18, 443040, Note_on_c, 11, 67, 84
18, 443159, Note_on_c, 11, 88, 0
18, 443159, Note_on_c, 11, 76, 0
18, 443159, Note_on_c, 11, 67, 0
18, 444000, Note_on_c, 11, 84, 84
18, 444000, Note_on_c, 11, 76, 84
18, 444000, Note_on_c, 11, 67, 84
18, 444000, Note_on_c, 11, 60, 84
18, 444119, Note_on_c, 11, 84, 0
18, 444119, Note_on_c, 11, 76, 0
18, 444119, Note_on_c, 11, 67, 0
18, 444119, Note_on_c, 11, 60, 0
18, 444960, Note_on_c, 11, 72, 84
18, 444960, Note_on_c, 11, 64, 84
18, 444960, Note_on_c, 11, 55, 84
18, 445079, Note_on_c, 11, 72, 0
18, 445079, Note_on_c, 11, 64, 0
18, 445079, Note_on_c, 11, 55, 0
18, 445920, Note_on_c, 11, 84, 84
18, 445920, Note_on_c, 11, 76, 84
18, 445920, Note_on_c, 11, 67, 84
18, 445920, Note_on_c, 11, 60, 84
18, 446039, Note_on_c, 11, 84, 0
18, 446039, Note_on_c, 11, 76, 0
18, 446039, Note_on_c, 11, 67, 0
18, 446039, Note_on_c, 11, 60, 0
18, 446400, Note_on_c, 11, 84, 84
18, 446400, Note_on_c, 11, 76, 84
18, 446400, Note_on_c, 11, 67, 84
18, 446400, Note_on_c, 11, 60, 84
18, 446519, Note_on_c, 11, 84, 0
18, 446519, Note_on_c, 11, 76, 0
18, 446519, Note_on_c, 11, 67, 0
18, 446519, Note_on_c, 11, 60, 0
18, 446880, Note_on_c, 11, 84, 84
18, 446880, Note_on_c, 11, 76, 84
18, 446880, Note_on_c, 11, 67, 84
18, 446880, Note_on_c, 11, 60, 84
18, 446999, Note_on_c, 11, 84, 0
18, 446999, Note_on_c, 11, 76, 0
18, 446999, Note_on_c, 11, 67, 0
18, 446999, Note_on_c, 11, 60, 0
18, 447840, Note_on_c, 11, 84, 84
18, 447840, Note_on_c, 11, 76, 84
18, 447840, Note_on_c, 11, 67, 84
18, 447840, Note_on_c, 11, 60, 84
18, 447959, Note_on_c, 11, 84, 0
18, 447959, Note_on_c, 11, 76, 0
18, 447959, Note_on_c, 11, 67, 0
18, 447959, Note_on_c, 11, 60, 0
18, 448800, Note_on_c, 11, 60, 84
18, 451199, Note_on_c, 11, 60, 0
18, 451199, End_track
19, 0, Start_track
19, 0, Title_t, "Violin II"
19, 0, MIDI_port, 0
19, 0, Program_c, 12, 48
19, 0, Control_c, 12, 7, 96
19, 0, Control_c, 12, 10, 24
19, 0, Control_c, 12, 11, 127
19, 0, Note_on_c, 12, 84, 84
19, 0, Note_on_c, 12, 76, 84
19, 0, Note_on_c, 12, 67, 84
19, 239, Note_on_c, 12, 84, 0
19, 239, Note_on_c, 12, 76, 0
19, 239, Note_on_c, 12, 67, 0
19, 480, Note_on_c, 12, 72, 84
19, 480, Note_on_c, 12, 64, 84
19, 480, Note_on_c, 12, 55, 84
19, 480, Note_on_c, 12, 76, 84
19, 719, Note_on_c, 12, 72, 0
19, 719, Note_on_c, 12, 64, 0
19, 719, Note_on_c, 12, 55, 0
19, 719, Note_on_c, 12, 76, 0
19, 960, Note_on_c, 12, 79, 84
19, 960, Note_on_c, 12, 64, 84
19, 960, Note_on_c, 12, 72, 84
19, 960, Note_on_c, 12, 55, 84
19, 1199, Note_on_c, 12, 64, 0
19, 1199, Note_on_c, 12, 72, 0
19, 1199, Note_on_c, 12, 55, 0
19, 1664, Note_on_c, 12, 79, 0
19, 1680, Note_on_c, 12, 71, 84
19, 1680, Note_on_c, 12, 77, 84
19, 1680, Note_on_c, 12, 62, 84
19, 1680, Note_on_c, 12, 55, 84
19, 1799, Note_on_c, 12, 71, 0
19, 1799, Note_on_c, 12, 77, 0
19, 1799, Note_on_c, 12, 62, 0
19, 1799, Note_on_c, 12, 55, 0
19, 1920, Note_on_c, 12, 64, 84
19, 1920, Note_on_c, 12, 76, 84
19, 1920, Note_on_c, 12, 55, 84
19, 1920, Note_on_c, 12, 72, 84
19, 2039, Note_on_c, 12, 64, 0
19, 2039, Note_on_c, 12, 76, 0
19, 2039, Note_on_c, 12, 55, 0
19, 2039, Note_on_c, 12, 72, 0
19, 2160, Note_on_c, 12, 55, 84
19, 2160, Note_on_c, 12, 74, 84
19, 2160, Note_on_c, 12, 65, 84
19, 2279, Note_on_c, 12, 55, 0
19, 2279, Note_on_c, 12, 74, 0
19, 2279, Note_on_c, 12, 65, 0
19, 2400, Note_on_c, 12, 72, 84
19, 2400, Note_on_c, 12, 55, 84
19, 2400, Note_on_c, 12, 64, 84
19, 2519, Note_on_c, 12, 72, 0
19, 2519, Note_on_c, 12, 55, 0
19, 2519, Note_on_c, 12, 64, 0
19, 2640, Note_on_c, 12, 74, 84
19, 2640, Note_on_c, 12, 65, 84
19, 2640, Note_on_c, 12, 55, 84
19, 2759, Note_on_c, 12, 74, 0
19, 2759, Note_on_c, 12, 65, 0
19, 2759, Note_on_c, 12, 55, 0
19, 2880, Note_on_c, 12, 72, 84
19, 2880, Note_on_c, 12, 55, 84
19, 2880, Note_on_c, 12, 64, 84
19, 2931, Note_on_c, 12, 72, 0
19, 2931, Note_on_c, 12, 55, 0
19, 2931, Note_on_c, 12, 64, 0
19, 2940, Note_on_c, 12, 60, 84
19, 2991, Note_on_c, 12, 60, 0
19, 3000, Note_on_c, 12, 60, 84
19, 3051, Note_on_c, 12, 60, 0
19, 3060, Note_on_c, 12, 60, 84
19, 3111, Note_on_c, 12, 60, 0
19, 3120, Note_on_c, 12, 60, 84
19, 3171, Note_on_c, 12, 60, 0
19, 3180, Note_on_c, 12, 60, 84
19, 3231, Note_on_c, 12, 60, 0
19, 3240, Note_on_c, 12, 60, 84
19, 3291, Note_on_c, 12, 60, 0
19, 3300, Note_on_c, 12, 60, 84
19, 3351, Note_on_c, 12, 60, 0
19, 3360, Note_on_c, 12, 60, 84
19, 3411, Note_on_c, 12, 60, 0
19, 3420, Note_on_c, 12, 60, 84
19, 3471, Note_on_c, 12, 60, 0
19, 3480, Note_on_c, 12, 60, 84
19, 3531, Note_on_c, 12, 60, 0
19, 3540, Note_on_c, 12, 60, 84
19, 3591, Note_on_c, 12, 60, 0
19, 3600, Note_on_c, 12, 60, 84
19, 3651, Note_on_c, 12, 60, 0
19, 3660, Note_on_c, 12, 60, 84
19, 3711, Note_on_c, 12, 60, 0
19, 3720, Note_on_c, 12, 60, 84
19, 3771, Note_on_c, 12, 60, 0
19, 3780, Note_on_c, 12, 60, 84
19, 3831, Note_on_c, 12, 60, 0
19, 3840, Note_on_c, 12, 59, 84
19, 3840, Note_on_c, 12, 62, 84
19, 3891, Note_on_c, 12, 59, 0
19, 3891, Note_on_c, 12, 62, 0
19, 3900, Note_on_c, 12, 59, 84
19, 3900, Note_on_c, 12, 62, 84
19, 3951, Note_on_c, 12, 59, 0
19, 3951, Note_on_c, 12, 62, 0
19, 3960, Note_on_c, 12, 62, 84
19, 3960, Note_on_c, 12, 59, 84
19, 4011, Note_on_c, 12, 62, 0
19, 4011, Note_on_c, 12, 59, 0
19, 4020, Note_on_c, 12, 59, 84
19, 4020, Note_on_c, 12, 62, 84
19, 4071, Note_on_c, 12, 59, 0
19, 4071, Note_on_c, 12, 62, 0
19, 4080, Note_on_c, 12, 59, 84
19, 4080, Note_on_c, 12, 62, 84
19, 4131, Note_on_c, 12, 59, 0
19, 4131, Note_on_c, 12, 62, 0
19, 4140, Note_on_c, 12, 62, 84
19, 4140, Note_on_c, 12, 59, 84
19, 4191, Note_on_c, 12, 62, 0
19, 4191, Note_on_c, 12, 59, 0
19, 4200, Note_on_c, 12, 62, 84
19, 4200, Note_on_c, 12, 59, 84
19, 4251, Note_on_c, 12, 62, 0
19, 4251, Note_on_c, 12, 59, 0
19, 4260, Note_on_c, 12, 62, 84
19, 4260, Note_on_c, 12, 59, 84
19, 4311, Note_on_c, 12, 62, 0
19, 4311, Note_on_c, 12, 59, 0
19, 4320, Note_on_c, 12, 62, 84
19, 4320, Note_on_c, 12, 59, 84
19, 4371, Note_on_c, 12, 62, 0
19, 4371, Note_on_c, 12, 59, 0
19, 4380, Note_on_c, 12, 62, 84
19, 4380, Note_on_c, 12, 59, 84
19, 4431, Note_on_c, 12, 62, 0
19, 4431, Note_on_c, 12, 59, 0
19, 4440, Note_on_c, 12, 62, 84
19, 4440, Note_on_c, 12, 59, 84
19, 4491, Note_on_c, 12, 62, 0
19, 4491, Note_on_c, 12, 59, 0
19, 4500, Note_on_c, 12, 59, 84
19, 4500, Note_on_c, 12, 62, 84
19, 4551, Note_on_c, 12, 59, 0
19, 4551, Note_on_c, 12, 62, 0
19, 4560, Note_on_c, 12, 62, 84
19, 4560, Note_on_c, 12, 59, 84
19, 4611, Note_on_c, 12, 62, 0
19, 4611, Note_on_c, 12, 59, 0
19, 4620, Note_on_c, 12, 62, 84
19, 4620, Note_on_c, 12, 59, 84
19, 4671, Note_on_c, 12, 62, 0
19, 4671, Note_on_c, 12, 59, 0
19, 4680, Note_on_c, 12, 59, 84
19, 4680, Note_on_c, 12, 62, 84
19, 4731, Note_on_c, 12, 59, 0
19, 4731, Note_on_c, 12, 62, 0
19, 4740, Note_on_c, 12, 59, 84
19, 4740, Note_on_c, 12, 62, 84
19, 4791, Note_on_c, 12, 59, 0
19, 4791, Note_on_c, 12, 62, 0
19, 4800, Note_on_c, 12, 64, 84
19, 4800, Note_on_c, 12, 60, 84
19, 4851, Note_on_c, 12, 64, 0
19, 4851, Note_on_c, 12, 60, 0
19, 4860, Note_on_c, 12, 64, 84
19, 4860, Note_on_c, 12, 60, 84
19, 4911, Note_on_c, 12, 64, 0
19, 4911, Note_on_c, 12, 60, 0
19, 4920, Note_on_c, 12, 60, 84
19, 4920, Note_on_c, 12, 64, 84
19, 4971, Note_on_c, 12, 60, 0
19, 4971, Note_on_c, 12, 64, 0
19, 4980, Note_on_c, 12, 64, 84
19, 4980, Note_on_c, 12, 60, 84
19, 5031, Note_on_c, 12, 64, 0
19, 5031, Note_on_c, 12, 60, 0
19, 5040, Note_on_c, 12, 60, 84
19, 5040, Note_on_c, 12, 64, 84
19, 5091, Note_on_c, 12, 60, 0
19, 5091, Note_on_c, 12, 64, 0
19, 5100, Note_on_c, 12, 64, 84
19, 5100, Note_on_c, 12, 60, 84
19, 5151, Note_on_c, 12, 64, 0
19, 5151, Note_on_c, 12, 60, 0
19, 5160, Note_on_c, 12, 60, 84
19, 5160, Note_on_c, 12, 64, 84
19, 5211, Note_on_c, 12, 60, 0
19, 5211, Note_on_c, 12, 64, 0
19, 5220, Note_on_c, 12, 60, 84
19, 5220, Note_on_c, 12, 64, 84
19, 5271, Note_on_c, 12, 60, 0
19, 5271, Note_on_c, 12, 64, 0
19, 5280, Note_on_c, 12, 64, 84
19, 5280, Note_on_c, 12, 60, 84
19, 5331, Note_on_c, 12, 64, 0
19, 5331, Note_on_c, 12, 60, 0
19, 5340, Note_on_c, 12, 60, 84
19, 5340, Note_on_c, 12, 64, 84
19, 5391, Note_on_c, 12, 60, 0
19, 5391, Note_on_c, 12, 64, 0
19, 5400, Note_on_c, 12, 64, 84
19, 5400, Note_on_c, 12, 60, 84
19, 5451, Note_on_c, 12, 64, 0
19, 5451, Note_on_c, 12, 60, 0
19, 5460, Note_on_c, 12, 64, 84
19, 5460, Note_on_c, 12, 60, 84
19, 5511, Note_on_c, 12, 64, 0
19, 5511, Note_on_c, 12, 60, 0
19, 5520, Note_on_c, 12, 64, 84
19, 5520, Note_on_c, 12, 60, 84
19, 5571, Note_on_c, 12, 64, 0
19, 5571, Note_on_c, 12, 60, 0
19, 5580, Note_on_c, 12, 60, 84
19, 5580, Note_on_c, 12, 64, 84
19, 5631, Note_on_c, 12, 60, 0
19, 5631, Note_on_c, 12, 64, 0
19, 5640, Note_on_c, 12, 60, 84
19, 5640, Note_on_c, 12, 64, 84
19, 5691, Note_on_c, 12, 60, 0
19, 5691, Note_on_c, 12, 64, 0
19, 5700, Note_on_c, 12, 60, 84
19, 5700, Note_on_c, 12, 64, 84
19, 5751, Note_on_c, 12, 60, 0
19, 5751, Note_on_c, 12, 64, 0
19, 5760, Note_on_c, 12, 60, 84
19, 5760, Note_on_c, 12, 65, 84
19, 5811, Note_on_c, 12, 60, 0
19, 5811, Note_on_c, 12, 65, 0
19, 5820, Note_on_c, 12, 60, 84
19, 5820, Note_on_c, 12, 65, 84
19, 5871, Note_on_c, 12, 60, 0
19, 5871, Note_on_c, 12, 65, 0
19, 5880, Note_on_c, 12, 60, 84
19, 5880, Note_on_c, 12, 65, 84
19, 5931, Note_on_c, 12, 60, 0
19, 5931, Note_on_c, 12, 65, 0
19, 5940, Note_on_c, 12, 60, 84
19, 5940, Note_on_c, 12, 65, 84
19, 5991, Note_on_c, 12, 60, 0
19, 5991, Note_on_c, 12, 65, 0
19, 6000, Note_on_c, 12, 65, 84
19, 6000, Note_on_c, 12, 60, 84
19, 6051, Note_on_c, 12, 65, 0
19, 6051, Note_on_c, 12, 60, 0
19, 6060, Note_on_c, 12, 60, 84
19, 6060, Note_on_c, 12, 65, 84
19, 6111, Note_on_c, 12, 60, 0
19, 6111, Note_on_c, 12, 65, 0
19, 6120, Note_on_c, 12, 65, 84
19, 6120, Note_on_c, 12, 60, 84
19, 6171, Note_on_c, 12, 65, 0
19, 6171, Note_on_c, 12, 60, 0
19, 6180, Note_on_c, 12, 60, 84
19, 6180, Note_on_c, 12, 65, 84
19, 6231, Note_on_c, 12, 60, 0
19, 6231, Note_on_c, 12, 65, 0
19, 6240, Note_on_c, 12, 65, 84
19, 6240, Note_on_c, 12, 60, 84
19, 6291, Note_on_c, 12, 65, 0
19, 6291, Note_on_c, 12, 60, 0
19, 6300, Note_on_c, 12, 65, 84
19, 6300, Note_on_c, 12, 60, 84
19, 6351, Note_on_c, 12, 65, 0
19, 6351, Note_on_c, 12, 60, 0
19, 6360, Note_on_c, 12, 60, 84
19, 6360, Note_on_c, 12, 65, 84
19, 6411, Note_on_c, 12, 60, 0
19, 6411, Note_on_c, 12, 65, 0
19, 6420, Note_on_c, 12, 65, 84
19, 6420, Note_on_c, 12, 60, 84
19, 6471, Note_on_c, 12, 65, 0
19, 6471, Note_on_c, 12, 60, 0
19, 6480, Note_on_c, 12, 60, 84
19, 6480, Note_on_c, 12, 65, 84
19, 6531, Note_on_c, 12, 60, 0
19, 6531, Note_on_c, 12, 65, 0
19, 6540, Note_on_c, 12, 65, 84
19, 6540, Note_on_c, 12, 60, 84
19, 6591, Note_on_c, 12, 65, 0
19, 6591, Note_on_c, 12, 60, 0
19, 6600, Note_on_c, 12, 65, 84
19, 6600, Note_on_c, 12, 60, 84
19, 6651, Note_on_c, 12, 65, 0
19, 6651, Note_on_c, 12, 60, 0
19, 6660, Note_on_c, 12, 65, 84
19, 6660, Note_on_c, 12, 60, 84
19, 6711, Note_on_c, 12, 65, 0
19, 6711, Note_on_c, 12, 60, 0
19, 6720, Note_on_c, 12, 60, 84
19, 6720, Note_on_c, 12, 67, 84
19, 6771, Note_on_c, 12, 60, 0
19, 6771, Note_on_c, 12, 67, 0
19, 6780, Note_on_c, 12, 67, 84
19, 6780, Note_on_c, 12, 60, 84
19, 6831, Note_on_c, 12, 67, 0
19, 6831, Note_on_c, 12, 60, 0
19, 6840, Note_on_c, 12, 67, 84
19, 6840, Note_on_c, 12, 60, 84
19, 6891, Note_on_c, 12, 67, 0
19, 6891, Note_on_c, 12, 60, 0
19, 6900, Note_on_c, 12, 60, 84
19, 6900, Note_on_c, 12, 67, 84
19, 6951, Note_on_c, 12, 60, 0
19, 6951, Note_on_c, 12, 67, 0
19, 6960, Note_on_c, 12, 67, 84
19, 6960, Note_on_c, 12, 60, 84
19, 7011, Note_on_c, 12, 67, 0
19, 7011, Note_on_c, 12, 60, 0
19, 7020, Note_on_c, 12, 60, 84
19, 7020, Note_on_c, 12, 67, 84
19, 7071, Note_on_c, 12, 60, 0
19, 7071, Note_on_c, 12, 67, 0
19, 7080, Note_on_c, 12, 60, 84
19, 7080, Note_on_c, 12, 67, 84
19, 7131, Note_on_c, 12, 60, 0
19, 7131, Note_on_c, 12, 67, 0
19, 7140, Note_on_c, 12, 67, 84
19, 7140, Note_on_c, 12, 60, 84
19, 7191, Note_on_c, 12, 67, 0
19, 7191, Note_on_c, 12, 60, 0
19, 7200, Note_on_c, 12, 64, 84
19, 7200, Note_on_c, 12, 60, 84
19, 7251, Note_on_c, 12, 64, 0
19, 7251, Note_on_c, 12, 60, 0
19, 7260, Note_on_c, 12, 60, 84
19, 7260, Note_on_c, 12, 64, 84
19, 7311, Note_on_c, 12, 60, 0
19, 7311, Note_on_c, 12, 64, 0
19, 7320, Note_on_c, 12, 60, 84
19, 7320, Note_on_c, 12, 64, 84
19, 7371, Note_on_c, 12, 60, 0
19, 7371, Note_on_c, 12, 64, 0
19, 7380, Note_on_c, 12, 60, 84
19, 7380, Note_on_c, 12, 64, 84
19, 7431, Note_on_c, 12, 60, 0
19, 7431, Note_on_c, 12, 64, 0
19, 7440, Note_on_c, 12, 60, 84
19, 7440, Note_on_c, 12, 64, 84
19, 7491, Note_on_c, 12, 60, 0
19, 7491, Note_on_c, 12, 64, 0
19, 7500, Note_on_c, 12, 60, 84
19, 7500, Note_on_c, 12, 64, 84
19, 7551, Note_on_c, 12, 60, 0
19, 7551, Note_on_c, 12, 64, 0
19, 7560, Note_on_c, 12, 64, 84
19, 7560, Note_on_c, 12, 60, 84
19, 7611, Note_on_c, 12, 64, 0
19, 7611, Note_on_c, 12, 60, 0
19, 7620, Note_on_c, 12, 64, 84
19, 7620, Note_on_c, 12, 60, 84
19, 7671, Note_on_c, 12, 64, 0
19, 7671, Note_on_c, 12, 60, 0
19, 7680, Note_on_c, 12, 65, 84
19, 7680, Note_on_c, 12, 60, 84
19, 7731, Note_on_c, 12, 65, 0
19, 7731, Note_on_c, 12, 60, 0
19, 7740, Note_on_c, 12, 65, 84
19, 7740, Note_on_c, 12, 60, 84
19, 7791, Note_on_c, 12, 65, 0
19, 7791, Note_on_c, 12, 60, 0
19, 7800, Note_on_c, 12, 65, 84
19, 7800, Note_on_c, 12, 60, 84
19, 7851, Note_on_c, 12, 65, 0
19, 7851, Note_on_c, 12, 60, 0
19, 7860, Note_on_c, 12, 60, 84
19, 7860, Note_on_c, 12, 65, 84
19, 7911, Note_on_c, 12, 60, 0
19, 7911, Note_on_c, 12, 65, 0
19, 7920, Note_on_c, 12, 65, 84
19, 7920, Note_on_c, 12, 60, 84
19, 7971, Note_on_c, 12, 65, 0
19, 7971, Note_on_c, 12, 60, 0
19, 7980, Note_on_c, 12, 65, 84
19, 7980, Note_on_c, 12, 60, 84
19, 8031, Note_on_c, 12, 65, 0
19, 8031, Note_on_c, 12, 60, 0
19, 8040, Note_on_c, 12, 65, 84
19, 8040, Note_on_c, 12, 60, 84
19, 8091, Note_on_c, 12, 65, 0
19, 8091, Note_on_c, 12, 60, 0
19, 8100, Note_on_c, 12, 60, 84
19, 8100, Note_on_c, 12, 65, 84
19, 8151, Note_on_c, 12, 60, 0
19, 8151, Note_on_c, 12, 65, 0
19, 8160, Note_on_c, 12, 65, 84
19, 8160, Note_on_c, 12, 60, 84
19, 8211, Note_on_c, 12, 65, 0
19, 8211, Note_on_c, 12, 60, 0
19, 8220, Note_on_c, 12, 60, 84
19, 8220, Note_on_c, 12, 65, 84
19, 8271, Note_on_c, 12, 60, 0
19, 8271, Note_on_c, 12, 65, 0
19, 8280, Note_on_c, 12, 65, 84
19, 8280, Note_on_c, 12, 60, 84
19, 8331, Note_on_c, 12, 65, 0
19, 8331, Note_on_c, 12, 60, 0
19, 8340, Note_on_c, 12, 65, 84
19, 8340, Note_on_c, 12, 60, 84
19, 8391, Note_on_c, 12, 65, 0
19, 8391, Note_on_c, 12, 60, 0
19, 8400, Note_on_c, 12, 60, 84
19, 8400, Note_on_c, 12, 65, 84
19, 8451, Note_on_c, 12, 60, 0
19, 8451, Note_on_c, 12, 65, 0
19, 8460, Note_on_c, 12, 65, 84
19, 8460, Note_on_c, 12, 60, 84
19, 8511, Note_on_c, 12, 65, 0
19, 8511, Note_on_c, 12, 60, 0
19, 8520, Note_on_c, 12, 65, 84
19, 8520, Note_on_c, 12, 60, 84
19, 8571, Note_on_c, 12, 65, 0
19, 8571, Note_on_c, 12, 60, 0
19, 8580, Note_on_c, 12, 65, 84
19, 8580, Note_on_c, 12, 60, 84
19, 8631, Note_on_c, 12, 65, 0
19, 8631, Note_on_c, 12, 60, 0
19, 8640, Note_on_c, 12, 67, 84
19, 8640, Note_on_c, 12, 60, 84
19, 8691, Note_on_c, 12, 67, 0
19, 8691, Note_on_c, 12, 60, 0
19, 8700, Note_on_c, 12, 67, 84
19, 8700, Note_on_c, 12, 60, 84
19, 8751, Note_on_c, 12, 67, 0
19, 8751, Note_on_c, 12, 60, 0
19, 8760, Note_on_c, 12, 67, 84
19, 8760, Note_on_c, 12, 60, 84
19, 8811, Note_on_c, 12, 67, 0
19, 8811, Note_on_c, 12, 60, 0
19, 8820, Note_on_c, 12, 60, 84
19, 8820, Note_on_c, 12, 67, 84
19, 8871, Note_on_c, 12, 60, 0
19, 8871, Note_on_c, 12, 67, 0
19, 8880, Note_on_c, 12, 60, 84
19, 8880, Note_on_c, 12, 67, 84
19, 8931, Note_on_c, 12, 60, 0
19, 8931, Note_on_c, 12, 67, 0
19, 8940, Note_on_c, 12, 60, 84
19, 8940, Note_on_c, 12, 67, 84
19, 8991, Note_on_c, 12, 60, 0
19, 8991, Note_on_c, 12, 67, 0
19, 9000, Note_on_c, 12, 67, 84
19, 9000, Note_on_c, 12, 60, 84
19, 9051, Note_on_c, 12, 67, 0
19, 9051, Note_on_c, 12, 60, 0
19, 9060, Note_on_c, 12, 60, 84
19, 9060, Note_on_c, 12, 67, 84
19, 9111, Note_on_c, 12, 60, 0
19, 9111, Note_on_c, 12, 67, 0
19, 9120, Note_on_c, 12, 64, 84
19, 9120, Note_on_c, 12, 60, 84
19, 9171, Note_on_c, 12, 64, 0
19, 9171, Note_on_c, 12, 60, 0
19, 9180, Note_on_c, 12, 60, 84
19, 9180, Note_on_c, 12, 64, 84
19, 9231, Note_on_c, 12, 60, 0
19, 9231, Note_on_c, 12, 64, 0
19, 9240, Note_on_c, 12, 64, 84
19, 9240, Note_on_c, 12, 60, 84
19, 9291, Note_on_c, 12, 64, 0
19, 9291, Note_on_c, 12, 60, 0
19, 9300, Note_on_c, 12, 64, 84
19, 9300, Note_on_c, 12, 60, 84
19, 9351, Note_on_c, 12, 64, 0
19, 9351, Note_on_c, 12, 60, 0
19, 9360, Note_on_c, 12, 64, 84
19, 9360, Note_on_c, 12, 60, 84
19, 9411, Note_on_c, 12, 64, 0
19, 9411, Note_on_c, 12, 60, 0
19, 9420, Note_on_c, 12, 64, 84
19, 9420, Note_on_c, 12, 60, 84
19, 9471, Note_on_c, 12, 64, 0
19, 9471, Note_on_c, 12, 60, 0
19, 9480, Note_on_c, 12, 60, 84
19, 9480, Note_on_c, 12, 64, 84
19, 9531, Note_on_c, 12, 60, 0
19, 9531, Note_on_c, 12, 64, 0
19, 9540, Note_on_c, 12, 60, 84
19, 9540, Note_on_c, 12, 64, 84
19, 9591, Note_on_c, 12, 60, 0
19, 9591, Note_on_c, 12, 64, 0
19, 9600, Note_on_c, 12, 65, 84
19, 9600, Note_on_c, 12, 60, 84
19, 9651, Note_on_c, 12, 65, 0
19, 9651, Note_on_c, 12, 60, 0
19, 9660, Note_on_c, 12, 65, 84
19, 9660, Note_on_c, 12, 60, 84
19, 9711, Note_on_c, 12, 65, 0
19, 9711, Note_on_c, 12, 60, 0
19, 9720, Note_on_c, 12, 65, 84
19, 9720, Note_on_c, 12, 60, 84
19, 9771, Note_on_c, 12, 65, 0
19, 9771, Note_on_c, 12, 60, 0
19, 9780, Note_on_c, 12, 65, 84
19, 9780, Note_on_c, 12, 60, 84
19, 9831, Note_on_c, 12, 65, 0
19, 9831, Note_on_c, 12, 60, 0
19, 9840, Note_on_c, 12, 60, 84
19, 9840, Note_on_c, 12, 65, 84
19, 9891, Note_on_c, 12, 60, 0
19, 9891, Note_on_c, 12, 65, 0
19, 9900, Note_on_c, 12, 60, 84
19, 9900, Note_on_c, 12, 65, 84
19, 9951, Note_on_c, 12, 60, 0
19, 9951, Note_on_c, 12, 65, 0
19, 9960, Note_on_c, 12, 60, 84
19, 9960, Note_on_c, 12, 65, 84
19, 10011, Note_on_c, 12, 60, 0
19, 10011, Note_on_c, 12, 65, 0
19, 10020, Note_on_c, 12, 65, 84
19, 10020, Note_on_c, 12, 60, 84
19, 10071, Note_on_c, 12, 65, 0
19, 10071, Note_on_c, 12, 60, 0
19, 10080, Note_on_c, 12, 65, 84
19, 10080, Note_on_c, 12, 60, 84
19, 10131, Note_on_c, 12, 65, 0
19, 10131, Note_on_c, 12, 60, 0
19, 10140, Note_on_c, 12, 60, 84
19, 10140, Note_on_c, 12, 65, 84
19, 10191, Note_on_c, 12, 60, 0
19, 10191, Note_on_c, 12, 65, 0
19, 10200, Note_on_c, 12, 60, 84
19, 10200, Note_on_c, 12, 65, 84
19, 10251, Note_on_c, 12, 60, 0
19, 10251, Note_on_c, 12, 65, 0
19, 10260, Note_on_c, 12, 60, 84
19, 10260, Note_on_c, 12, 65, 84
19, 10311, Note_on_c, 12, 60, 0
19, 10311, Note_on_c, 12, 65, 0
19, 10320, Note_on_c, 12, 60, 84
19, 10320, Note_on_c, 12, 65, 84
19, 10371, Note_on_c, 12, 60, 0
19, 10371, Note_on_c, 12, 65, 0
19, 10380, Note_on_c, 12, 60, 84
19, 10380, Note_on_c, 12, 65, 84
19, 10431, Note_on_c, 12, 60, 0
19, 10431, Note_on_c, 12, 65, 0
19, 10440, Note_on_c, 12, 65, 84
19, 10440, Note_on_c, 12, 60, 84
19, 10491, Note_on_c, 12, 65, 0
19, 10491, Note_on_c, 12, 60, 0
19, 10500, Note_on_c, 12, 65, 84
19, 10500, Note_on_c, 12, 60, 84
19, 10551, Note_on_c, 12, 65, 0
19, 10551, Note_on_c, 12, 60, 0
19, 10560, Note_on_c, 12, 67, 84
19, 10560, Note_on_c, 12, 60, 84
19, 10611, Note_on_c, 12, 67, 0
19, 10611, Note_on_c, 12, 60, 0
19, 10620, Note_on_c, 12, 60, 84
19, 10620, Note_on_c, 12, 67, 84
19, 10671, Note_on_c, 12, 60, 0
19, 10671, Note_on_c, 12, 67, 0
19, 10680, Note_on_c, 12, 67, 84
19, 10680, Note_on_c, 12, 60, 84
19, 10731, Note_on_c, 12, 67, 0
19, 10731, Note_on_c, 12, 60, 0
19, 10740, Note_on_c, 12, 67, 84
19, 10740, Note_on_c, 12, 60, 84
19, 10791, Note_on_c, 12, 67, 0
19, 10791, Note_on_c, 12, 60, 0
19, 10800, Note_on_c, 12, 60, 84
19, 10800, Note_on_c, 12, 67, 84
19, 10851, Note_on_c, 12, 60, 0
19, 10851, Note_on_c, 12, 67, 0
19, 10860, Note_on_c, 12, 67, 84
19, 10860, Note_on_c, 12, 60, 84
19, 10911, Note_on_c, 12, 67, 0
19, 10911, Note_on_c, 12, 60, 0
19, 10920, Note_on_c, 12, 67, 84
19, 10920, Note_on_c, 12, 60, 84
19, 10971, Note_on_c, 12, 67, 0
19, 10971, Note_on_c, 12, 60, 0
19, 10980, Note_on_c, 12, 60, 84
19, 10980, Note_on_c, 12, 67, 84
19, 11031, Note_on_c, 12, 60, 0
19, 11031, Note_on_c, 12, 67, 0
19, 11040, Note_on_c, 12, 60, 84
19, 11040, Note_on_c, 12, 64, 84
19, 11091, Note_on_c, 12, 60, 0
19, 11091, Note_on_c, 12, 64, 0
19, 11100, Note_on_c, 12, 60, 84
19, 11100, Note_on_c, 12, 64, 84
19, 11151, Note_on_c, 12, 60, 0
19, 11151, Note_on_c, 12, 64, 0
19, 11160, Note_on_c, 12, 60, 84
19, 11160, Note_on_c, 12, 64, 84
19, 11211, Note_on_c, 12, 60, 0
19, 11211, Note_on_c, 12, 64, 0
19, 11220, Note_on_c, 12, 64, 84
19, 11220, Note_on_c, 12, 60, 84
19, 11271, Note_on_c, 12, 64, 0
19, 11271, Note_on_c, 12, 60, 0
19, 11280, Note_on_c, 12, 64, 84
19, 11280, Note_on_c, 12, 60, 84
19, 11331, Note_on_c, 12, 64, 0
19, 11331, Note_on_c, 12, 60, 0
19, 11340, Note_on_c, 12, 64, 84
19, 11340, Note_on_c, 12, 60, 84
19, 11391, Note_on_c, 12, 64, 0
19, 11391, Note_on_c, 12, 60, 0
19, 11400, Note_on_c, 12, 60, 84
19, 11400, Note_on_c, 12, 64, 84
19, 11451, Note_on_c, 12, 60, 0
19, 11451, Note_on_c, 12, 64, 0
19, 11460, Note_on_c, 12, 60, 84
19, 11460, Note_on_c, 12, 64, 84
19, 11511, Note_on_c, 12, 60, 0
19, 11511, Note_on_c, 12, 64, 0
19, 11520, Note_on_c, 12, 65, 84
19, 11520, Note_on_c, 12, 55, 84
19, 11744, Note_on_c, 12, 65, 0
19, 11744, Note_on_c, 12, 55, 0
19, 11760, Note_on_c, 12, 55, 84
19, 11760, Note_on_c, 12, 65, 84
19, 11931, Note_on_c, 12, 55, 0
19, 11931, Note_on_c, 12, 65, 0
19, 11940, Note_on_c, 12, 55, 84
19, 11940, Note_on_c, 12, 65, 84
19, 11991, Note_on_c, 12, 55, 0
19, 11991, Note_on_c, 12, 65, 0
19, 12000, Note_on_c, 12, 55, 84
19, 12000, Note_on_c, 12, 64, 84
19, 12224, Note_on_c, 12, 55, 0
19, 12224, Note_on_c, 12, 64, 0
19, 12240, Note_on_c, 12, 64, 84
19, 12240, Note_on_c, 12, 55, 84
19, 12411, Note_on_c, 12, 64, 0
19, 12411, Note_on_c, 12, 55, 0
19, 12420, Note_on_c, 12, 64, 84
19, 12420, Note_on_c, 12, 55, 84
19, 12471, Note_on_c, 12, 64, 0
19, 12471, Note_on_c, 12, 55, 0
19, 12480, Note_on_c, 12, 55, 84
19, 12480, Note_on_c, 12, 62, 84
19, 12704, Note_on_c, 12, 55, 0
19, 12704, Note_on_c, 12, 62, 0
19, 12720, Note_on_c, 12, 55, 84
19, 12720, Note_on_c, 12, 62, 84
19, 13184, Note_on_c, 12, 55, 0
19, 13184, Note_on_c, 12, 62, 0
19, 13200, Note_on_c, 12, 55, 84
19, 13200, Note_on_c, 12, 64, 84
19, 13371, Note_on_c, 12, 55, 0
19, 13371, Note_on_c, 12, 64, 0
19, 13380, Note_on_c, 12, 55, 84
19, 13380, Note_on_c, 12, 64, 84
19, 13431, Note_on_c, 12, 55, 0
19, 13431, Note_on_c, 12, 64, 0
19, 13440, Note_on_c, 12, 65, 84
19, 13440, Note_on_c, 12, 55, 84
19, 13664, Note_on_c, 12, 65, 0
19, 13664, Note_on_c, 12, 55, 0
19, 13680, Note_on_c, 12, 55, 84
19, 13680, Note_on_c, 12, 65, 84
19, 13851, Note_on_c, 12, 55, 0
19, 13851, Note_on_c, 12, 65, 0
19, 13860, Note_on_c, 12, 65, 84
19, 13860, Note_on_c, 12, 55, 84
19, 13911, Note_on_c, 12, 65, 0
19, 13911, Note_on_c, 12, 55, 0
19, 13920, Note_on_c, 12, 55, 84
19, 13920, Note_on_c, 12, 64, 84
19, 14144, Note_on_c, 12, 55, 0
19, 14144, Note_on_c, 12, 64, 0
19, 14160, Note_on_c, 12, 64, 84
19, 14160, Note_on_c, 12, 55, 84
19, 14331, Note_on_c, 12, 64, 0
19, 14331, Note_on_c, 12, 55, 0
19, 14340, Note_on_c, 12, 64, 84
19, 14340, Note_on_c, 12, 55, 84
19, 14391, Note_on_c, 12, 64, 0
19, 14391, Note_on_c, 12, 55, 0
19, 14400, Note_on_c, 12, 55, 84
19, 14400, Note_on_c, 12, 62, 84
19, 14624, Note_on_c, 12, 55, 0
19, 14624, Note_on_c, 12, 62, 0
19, 14640, Note_on_c, 12, 62, 84
19, 14640, Note_on_c, 12, 55, 84
19, 15104, Note_on_c, 12, 62, 0
19, 15104, Note_on_c, 12, 55, 0
19, 15120, Note_on_c, 12, 55, 84
19, 15120, Note_on_c, 12, 64, 84
19, 15291, Note_on_c, 12, 55, 0
19, 15291, Note_on_c, 12, 64, 0
19, 15300, Note_on_c, 12, 64, 84
19, 15300, Note_on_c, 12, 55, 84
19, 15351, Note_on_c, 12, 64, 0
19, 15351, Note_on_c, 12, 55, 0
19, 15360, Note_on_c, 12, 65, 84
19, 15360, Note_on_c, 12, 55, 84
19, 15531, Note_on_c, 12, 65, 0
19, 15531, Note_on_c, 12, 55, 0
19, 15540, Note_on_c, 12, 65, 84
19, 15540, Note_on_c, 12, 55, 84
19, 15591, Note_on_c, 12, 65, 0
19, 15591, Note_on_c, 12, 55, 0
19, 15600, Note_on_c, 12, 55, 84
19, 15600, Note_on_c, 12, 65, 84
19, 15771, Note_on_c, 12, 55, 0
19, 15771, Note_on_c, 12, 65, 0
19, 15780, Note_on_c, 12, 65, 84
19, 15780, Note_on_c, 12, 55, 84
19, 15831, Note_on_c, 12, 65, 0
19, 15831, Note_on_c, 12, 55, 0
19, 15840, Note_on_c, 12, 64, 84
19, 15840, Note_on_c, 12, 55, 84
19, 16011, Note_on_c, 12, 64, 0
19, 16011, Note_on_c, 12, 55, 0
19, 16020, Note_on_c, 12, 64, 84
19, 16020, Note_on_c, 12, 55, 84
19, 16071, Note_on_c, 12, 64, 0
19, 16071, Note_on_c, 12, 55, 0
19, 16080, Note_on_c, 12, 55, 84
19, 16080, Note_on_c, 12, 64, 84
19, 16251, Note_on_c, 12, 55, 0
19, 16251, Note_on_c, 12, 64, 0
19, 16260, Note_on_c, 12, 55, 84
19, 16260, Note_on_c, 12, 64, 84
19, 16311, Note_on_c, 12, 55, 0
19, 16311, Note_on_c, 12, 64, 0
19, 16320, Note_on_c, 12, 62, 84
19, 16320, Note_on_c, 12, 55, 84
19, 16371, Note_on_c, 12, 62, 0
19, 16371, Note_on_c, 12, 55, 0
19, 16380, Note_on_c, 12, 62, 84
19, 16380, Note_on_c, 12, 55, 84
19, 16431, Note_on_c, 12, 62, 0
19, 16431, Note_on_c, 12, 55, 0
19, 16440, Note_on_c, 12, 62, 84
19, 16440, Note_on_c, 12, 55, 84
19, 16491, Note_on_c, 12, 62, 0
19, 16491, Note_on_c, 12, 55, 0
19, 16500, Note_on_c, 12, 62, 84
19, 16500, Note_on_c, 12, 55, 84
19, 16551, Note_on_c, 12, 62, 0
19, 16551, Note_on_c, 12, 55, 0
19, 16560, Note_on_c, 12, 55, 84
19, 16560, Note_on_c, 12, 62, 84
19, 16611, Note_on_c, 12, 55, 0
19, 16611, Note_on_c, 12, 62, 0
19, 16620, Note_on_c, 12, 62, 84
19, 16620, Note_on_c, 12, 55, 84
19, 16671, Note_on_c, 12, 62, 0
19, 16671, Note_on_c, 12, 55, 0
19, 16680, Note_on_c, 12, 62, 84
19, 16680, Note_on_c, 12, 55, 84
19, 16731, Note_on_c, 12, 62, 0
19, 16731, Note_on_c, 12, 55, 0
19, 16740, Note_on_c, 12, 55, 84
19, 16740, Note_on_c, 12, 62, 84
19, 16791, Note_on_c, 12, 55, 0
19, 16791, Note_on_c, 12, 62, 0
19, 16800, Note_on_c, 12, 55, 84
19, 16800, Note_on_c, 12, 64, 84
19, 16851, Note_on_c, 12, 55, 0
19, 16851, Note_on_c, 12, 64, 0
19, 16860, Note_on_c, 12, 64, 84
19, 16860, Note_on_c, 12, 55, 84
19, 16911, Note_on_c, 12, 64, 0
19, 16911, Note_on_c, 12, 55, 0
19, 16920, Note_on_c, 12, 55, 84
19, 16920, Note_on_c, 12, 64, 84
19, 16971, Note_on_c, 12, 55, 0
19, 16971, Note_on_c, 12, 64, 0
19, 16980, Note_on_c, 12, 64, 84
19, 16980, Note_on_c, 12, 55, 84
19, 17031, Note_on_c, 12, 64, 0
19, 17031, Note_on_c, 12, 55, 0
19, 17040, Note_on_c, 12, 55, 84
19, 17040, Note_on_c, 12, 64, 84
19, 17091, Note_on_c, 12, 55, 0
19, 17091, Note_on_c, 12, 64, 0
19, 17100, Note_on_c, 12, 64, 84
19, 17100, Note_on_c, 12, 55, 84
19, 17151, Note_on_c, 12, 64, 0
19, 17151, Note_on_c, 12, 55, 0
19, 17160, Note_on_c, 12, 64, 84
19, 17160, Note_on_c, 12, 55, 84
19, 17211, Note_on_c, 12, 64, 0
19, 17211, Note_on_c, 12, 55, 0
19, 17220, Note_on_c, 12, 64, 84
19, 17220, Note_on_c, 12, 55, 84
19, 17271, Note_on_c, 12, 64, 0
19, 17271, Note_on_c, 12, 55, 0
19, 17280, Note_on_c, 12, 55, 84
19, 17280, Note_on_c, 12, 62, 84
19, 17331, Note_on_c, 12, 55, 0
19, 17331, Note_on_c, 12, 62, 0
19, 17340, Note_on_c, 12, 55, 84
19, 17340, Note_on_c, 12, 62, 84
19, 17391, Note_on_c, 12, 55, 0
19, 17391, Note_on_c, 12, 62, 0
19, 17400, Note_on_c, 12, 55, 84
19, 17400, Note_on_c, 12, 62, 84
19, 17451, Note_on_c, 12, 55, 0
19, 17451, Note_on_c, 12, 62, 0
19, 17460, Note_on_c, 12, 62, 84
19, 17460, Note_on_c, 12, 55, 84
19, 17511, Note_on_c, 12, 62, 0
19, 17511, Note_on_c, 12, 55, 0
19, 17520, Note_on_c, 12, 62, 84
19, 17520, Note_on_c, 12, 55, 84
19, 17571, Note_on_c, 12, 62, 0
19, 17571, Note_on_c, 12, 55, 0
19, 17580, Note_on_c, 12, 55, 84
19, 17580, Note_on_c, 12, 62, 84
19, 17631, Note_on_c, 12, 55, 0
19, 17631, Note_on_c, 12, 62, 0
19, 17640, Note_on_c, 12, 62, 84
19, 17640, Note_on_c, 12, 55, 84
19, 17691, Note_on_c, 12, 62, 0
19, 17691, Note_on_c, 12, 55, 0
19, 17700, Note_on_c, 12, 55, 84
19, 17700, Note_on_c, 12, 62, 84
19, 17751, Note_on_c, 12, 55, 0
19, 17751, Note_on_c, 12, 62, 0
19, 17760, Note_on_c, 12, 55, 84
19, 17760, Note_on_c, 12, 64, 84
19, 17811, Note_on_c, 12, 55, 0
19, 17811, Note_on_c, 12, 64, 0
19, 17820, Note_on_c, 12, 64, 84
19, 17820, Note_on_c, 12, 55, 84
19, 17871, Note_on_c, 12, 64, 0
19, 17871, Note_on_c, 12, 55, 0
19, 17880, Note_on_c, 12, 64, 84
19, 17880, Note_on_c, 12, 55, 84
19, 17931, Note_on_c, 12, 64, 0
19, 17931, Note_on_c, 12, 55, 0
19, 17940, Note_on_c, 12, 55, 84
19, 17940, Note_on_c, 12, 64, 84
19, 17991, Note_on_c, 12, 55, 0
19, 17991, Note_on_c, 12, 64, 0
19, 18000, Note_on_c, 12, 55, 84
19, 18000, Note_on_c, 12, 64, 84
19, 18051, Note_on_c, 12, 55, 0
19, 18051, Note_on_c, 12, 64, 0
19, 18060, Note_on_c, 12, 55, 84
19, 18060, Note_on_c, 12, 64, 84
19, 18111, Note_on_c, 12, 55, 0
19, 18111, Note_on_c, 12, 64, 0
19, 18120, Note_on_c, 12, 55, 84
19, 18120, Note_on_c, 12, 64, 84
19, 18171, Note_on_c, 12, 55, 0
19, 18171, Note_on_c, 12, 64, 0
19, 18180, Note_on_c, 12, 64, 84
19, 18180, Note_on_c, 12, 55, 84
19, 18231, Note_on_c, 12, 64, 0
19, 18231, Note_on_c, 12, 55, 0
19, 18240, Note_on_c, 12, 55, 84
19, 18240, Note_on_c, 12, 62, 84
19, 18291, Note_on_c, 12, 55, 0
19, 18291, Note_on_c, 12, 62, 0
19, 18300, Note_on_c, 12, 55, 84
19, 18300, Note_on_c, 12, 62, 84
19, 18351, Note_on_c, 12, 55, 0
19, 18351, Note_on_c, 12, 62, 0
19, 18360, Note_on_c, 12, 64, 84
19, 18360, Note_on_c, 12, 55, 84
19, 18411, Note_on_c, 12, 64, 0
19, 18411, Note_on_c, 12, 55, 0
19, 18420, Note_on_c, 12, 55, 84
19, 18420, Note_on_c, 12, 64, 84
19, 18471, Note_on_c, 12, 55, 0
19, 18471, Note_on_c, 12, 64, 0
19, 18480, Note_on_c, 12, 64, 84
19, 18480, Note_on_c, 12, 55, 84
19, 18531, Note_on_c, 12, 64, 0
19, 18531, Note_on_c, 12, 55, 0
19, 18540, Note_on_c, 12, 55, 84
19, 18540, Note_on_c, 12, 64, 84
19, 18591, Note_on_c, 12, 55, 0
19, 18591, Note_on_c, 12, 64, 0
19, 18600, Note_on_c, 12, 55, 84
19, 18600, Note_on_c, 12, 64, 84
19, 18651, Note_on_c, 12, 55, 0
19, 18651, Note_on_c, 12, 64, 0
19, 18660, Note_on_c, 12, 64, 84
19, 18660, Note_on_c, 12, 55, 84
19, 18711, Note_on_c, 12, 64, 0
19, 18711, Note_on_c, 12, 55, 0
19, 18720, Note_on_c, 12, 55, 84
19, 18720, Note_on_c, 12, 62, 84
19, 18771, Note_on_c, 12, 55, 0
19, 18771, Note_on_c, 12, 62, 0
19, 18780, Note_on_c, 12, 55, 84
19, 18780, Note_on_c, 12, 62, 84
19, 18831, Note_on_c, 12, 55, 0
19, 18831, Note_on_c, 12, 62, 0
19, 18840, Note_on_c, 12, 64, 84
19, 18840, Note_on_c, 12, 55, 84
19, 18891, Note_on_c, 12, 64, 0
19, 18891, Note_on_c, 12, 55, 0
19, 18900, Note_on_c, 12, 64, 84
19, 18900, Note_on_c, 12, 55, 84
19, 18951, Note_on_c, 12, 64, 0
19, 18951, Note_on_c, 12, 55, 0
19, 18960, Note_on_c, 12, 55, 84
19, 18960, Note_on_c, 12, 64, 84
19, 19011, Note_on_c, 12, 55, 0
19, 19011, Note_on_c, 12, 64, 0
19, 19020, Note_on_c, 12, 55, 84
19, 19020, Note_on_c, 12, 64, 84
19, 19071, Note_on_c, 12, 55, 0
19, 19071, Note_on_c, 12, 64, 0
19, 19080, Note_on_c, 12, 64, 84
19, 19080, Note_on_c, 12, 55, 84
19, 19131, Note_on_c, 12, 64, 0
19, 19131, Note_on_c, 12, 55, 0
19, 19140, Note_on_c, 12, 55, 84
19, 19140, Note_on_c, 12, 64, 84
19, 19191, Note_on_c, 12, 55, 0
19, 19191, Note_on_c, 12, 64, 0
19, 19200, Note_on_c, 12, 62, 84
19, 19200, Note_on_c, 12, 55, 84
19, 19251, Note_on_c, 12, 62, 0
19, 19251, Note_on_c, 12, 55, 0
19, 19260, Note_on_c, 12, 55, 84
19, 19260, Note_on_c, 12, 62, 84
19, 19311, Note_on_c, 12, 55, 0
19, 19311, Note_on_c, 12, 62, 0
19, 19320, Note_on_c, 12, 64, 84
19, 19320, Note_on_c, 12, 55, 84
19, 19371, Note_on_c, 12, 64, 0
19, 19371, Note_on_c, 12, 55, 0
19, 19380, Note_on_c, 12, 55, 84
19, 19380, Note_on_c, 12, 64, 84
19, 19431, Note_on_c, 12, 55, 0
19, 19431, Note_on_c, 12, 64, 0
19, 19440, Note_on_c, 12, 64, 84
19, 19440, Note_on_c, 12, 55, 84
19, 19491, Note_on_c, 12, 64, 0
19, 19491, Note_on_c, 12, 55, 0
19, 19500, Note_on_c, 12, 64, 84
19, 19500, Note_on_c, 12, 55, 84
19, 19551, Note_on_c, 12, 64, 0
19, 19551, Note_on_c, 12, 55, 0
19, 19560, Note_on_c, 12, 64, 84
19, 19560, Note_on_c, 12, 55, 84
19, 19611, Note_on_c, 12, 64, 0
19, 19611, Note_on_c, 12, 55, 0
19, 19620, Note_on_c, 12, 55, 84
19, 19620, Note_on_c, 12, 64, 84
19, 19671, Note_on_c, 12, 55, 0
19, 19671, Note_on_c, 12, 64, 0
19, 19680, Note_on_c, 12, 62, 84
19, 19680, Note_on_c, 12, 55, 84
19, 19731, Note_on_c, 12, 62, 0
19, 19731, Note_on_c, 12, 55, 0
19, 19740, Note_on_c, 12, 55, 84
19, 19740, Note_on_c, 12, 62, 84
19, 19791, Note_on_c, 12, 55, 0
19, 19791, Note_on_c, 12, 62, 0
19, 19800, Note_on_c, 12, 64, 84
19, 19800, Note_on_c, 12, 55, 84
19, 19851, Note_on_c, 12, 64, 0
19, 19851, Note_on_c, 12, 55, 0
19, 19860, Note_on_c, 12, 64, 84
19, 19860, Note_on_c, 12, 55, 84
19, 19911, Note_on_c, 12, 64, 0
19, 19911, Note_on_c, 12, 55, 0
19, 19920, Note_on_c, 12, 64, 84
19, 19920, Note_on_c, 12, 55, 84
19, 19971, Note_on_c, 12, 64, 0
19, 19971, Note_on_c, 12, 55, 0
19, 19980, Note_on_c, 12, 55, 84
19, 19980, Note_on_c, 12, 64, 84
19, 20031, Note_on_c, 12, 55, 0
19, 20031, Note_on_c, 12, 64, 0
19, 20040, Note_on_c, 12, 55, 84
19, 20040, Note_on_c, 12, 64, 84
19, 20091, Note_on_c, 12, 55, 0
19, 20091, Note_on_c, 12, 64, 0
19, 20100, Note_on_c, 12, 55, 84
19, 20100, Note_on_c, 12, 64, 84
19, 20151, Note_on_c, 12, 55, 0
19, 20151, Note_on_c, 12, 64, 0
19, 20160, Note_on_c, 12, 62, 84
19, 20160, Note_on_c, 12, 55, 84
19, 20264, Note_on_c, 12, 62, 0
19, 20264, Note_on_c, 12, 55, 0
19, 20280, Note_on_c, 12, 79, 92
19, 20399, Note_on_c, 12, 79, 0
19, 20400, Note_on_c, 12, 77, 84
19, 20504, Note_on_c, 12, 77, 0
19, 20520, Note_on_c, 12, 76, 84
19, 20609, Note_on_c, 12, 76, 0
19, 20640, Note_on_c, 12, 74, 84
19, 20729, Note_on_c, 12, 74, 0
19, 20760, Note_on_c, 12, 76, 92
19, 20879, Note_on_c, 12, 76, 0
19, 20880, Note_on_c, 12, 74, 84
19, 20984, Note_on_c, 12, 74, 0
19, 21000, Note_on_c, 12, 72, 84
19, 21089, Note_on_c, 12, 72, 0
19, 21120, Note_on_c, 12, 71, 84
19, 21209, Note_on_c, 12, 71, 0
19, 21240, Note_on_c, 12, 76, 92
19, 21359, Note_on_c, 12, 76, 0
19, 21360, Note_on_c, 12, 74, 84
19, 21464, Note_on_c, 12, 74, 0
19, 21480, Note_on_c, 12, 72, 84
19, 21569, Note_on_c, 12, 72, 0
19, 21600, Note_on_c, 12, 71, 84
19, 21689, Note_on_c, 12, 71, 0
19, 21720, Note_on_c, 12, 72, 92
19, 21839, Note_on_c, 12, 72, 0
19, 21840, Note_on_c, 12, 71, 84
19, 21944, Note_on_c, 12, 71, 0
19, 21960, Note_on_c, 12, 69, 84
19, 22049, Note_on_c, 12, 69, 0
19, 22080, Note_on_c, 12, 67, 84
19, 22169, Note_on_c, 12, 67, 0
19, 22200, Note_on_c, 12, 72, 92
19, 22319, Note_on_c, 12, 72, 0
19, 22320, Note_on_c, 12, 71, 84
19, 22424, Note_on_c, 12, 71, 0
19, 22440, Note_on_c, 12, 69, 84
19, 22529, Note_on_c, 12, 69, 0
19, 22560, Note_on_c, 12, 67, 84
19, 22649, Note_on_c, 12, 67, 0
19, 22680, Note_on_c, 12, 72, 92
19, 22799, Note_on_c, 12, 72, 0
19, 22800, Note_on_c, 12, 71, 84
19, 22904, Note_on_c, 12, 71, 0
19, 22920, Note_on_c, 12, 69, 84
19, 23009, Note_on_c, 12, 69, 0
19, 23040, Note_on_c, 12, 67, 84
19, 23129, Note_on_c, 12, 67, 0
19, 23160, Note_on_c, 12, 72, 92
19, 23279, Note_on_c, 12, 72, 0
19, 23280, Note_on_c, 12, 71, 84
19, 23384, Note_on_c, 12, 71, 0
19, 23400, Note_on_c, 12, 69, 84
19, 23489, Note_on_c, 12, 69, 0
19, 23520, Note_on_c, 12, 67, 84
19, 23609, Note_on_c, 12, 67, 0
19, 23640, Note_on_c, 12, 65, 84
19, 23729, Note_on_c, 12, 65, 0
19, 23760, Note_on_c, 12, 64, 84
19, 23849, Note_on_c, 12, 64, 0
19, 23880, Note_on_c, 12, 62, 84
19, 23969, Note_on_c, 12, 62, 0
19, 24000, Note_on_c, 12, 60, 84
19, 24051, Note_on_c, 12, 60, 0
19, 24060, Note_on_c, 12, 60, 84
19, 24111, Note_on_c, 12, 60, 0
19, 24120, Note_on_c, 12, 60, 84
19, 24171, Note_on_c, 12, 60, 0
19, 24180, Note_on_c, 12, 60, 84
19, 24231, Note_on_c, 12, 60, 0
19, 24240, Note_on_c, 12, 60, 84
19, 24291, Note_on_c, 12, 60, 0
19, 24300, Note_on_c, 12, 60, 84
19, 24351, Note_on_c, 12, 60, 0
19, 24360, Note_on_c, 12, 60, 84
19, 24411, Note_on_c, 12, 60, 0
19, 24420, Note_on_c, 12, 60, 84
19, 24471, Note_on_c, 12, 60, 0
19, 24480, Note_on_c, 12, 60, 84
19, 24531, Note_on_c, 12, 60, 0
19, 24540, Note_on_c, 12, 60, 84
19, 24591, Note_on_c, 12, 60, 0
19, 24600, Note_on_c, 12, 60, 84
19, 24651, Note_on_c, 12, 60, 0
19, 24660, Note_on_c, 12, 60, 84
19, 24711, Note_on_c, 12, 60, 0
19, 24720, Note_on_c, 12, 60, 84
19, 24771, Note_on_c, 12, 60, 0
19, 24780, Note_on_c, 12, 60, 84
19, 24831, Note_on_c, 12, 60, 0
19, 24840, Note_on_c, 12, 60, 84
19, 24891, Note_on_c, 12, 60, 0
19, 24900, Note_on_c, 12, 60, 84
19, 24951, Note_on_c, 12, 60, 0
19, 24960, Note_on_c, 12, 60, 84
19, 25011, Note_on_c, 12, 60, 0
19, 25020, Note_on_c, 12, 60, 84
19, 25071, Note_on_c, 12, 60, 0
19, 25080, Note_on_c, 12, 60, 84
19, 25131, Note_on_c, 12, 60, 0
19, 25140, Note_on_c, 12, 60, 84
19, 25191, Note_on_c, 12, 60, 0
19, 25200, Note_on_c, 12, 60, 84
19, 25251, Note_on_c, 12, 60, 0
19, 25260, Note_on_c, 12, 60, 84
19, 25311, Note_on_c, 12, 60, 0
19, 25320, Note_on_c, 12, 60, 84
19, 25371, Note_on_c, 12, 60, 0
19, 25380, Note_on_c, 12, 60, 84
19, 25431, Note_on_c, 12, 60, 0
19, 25440, Note_on_c, 12, 60, 84
19, 25491, Note_on_c, 12, 60, 0
19, 25500, Note_on_c, 12, 60, 84
19, 25551, Note_on_c, 12, 60, 0
19, 25560, Note_on_c, 12, 60, 84
19, 25611, Note_on_c, 12, 60, 0
19, 25620, Note_on_c, 12, 60, 84
19, 25671, Note_on_c, 12, 60, 0
19, 25680, Note_on_c, 12, 60, 84
19, 25731, Note_on_c, 12, 60, 0
19, 25740, Note_on_c, 12, 60, 84
19, 25791, Note_on_c, 12, 60, 0
19, 25800, Note_on_c, 12, 60, 84
19, 25851, Note_on_c, 12, 60, 0
19, 25860, Note_on_c, 12, 60, 84
19, 25911, Note_on_c, 12, 60, 0
19, 25920, Note_on_c, 12, 62, 84
19, 25920, Note_on_c, 12, 59, 84
19, 25971, Note_on_c, 12, 62, 0
19, 25971, Note_on_c, 12, 59, 0
19, 25980, Note_on_c, 12, 62, 84
19, 25980, Note_on_c, 12, 59, 84
19, 26031, Note_on_c, 12, 62, 0
19, 26031, Note_on_c, 12, 59, 0
19, 26040, Note_on_c, 12, 59, 84
19, 26040, Note_on_c, 12, 62, 84
19, 26091, Note_on_c, 12, 59, 0
19, 26091, Note_on_c, 12, 62, 0
19, 26100, Note_on_c, 12, 59, 84
19, 26100, Note_on_c, 12, 62, 84
19, 26151, Note_on_c, 12, 59, 0
19, 26151, Note_on_c, 12, 62, 0
19, 26160, Note_on_c, 12, 62, 84
19, 26160, Note_on_c, 12, 59, 84
19, 26211, Note_on_c, 12, 62, 0
19, 26211, Note_on_c, 12, 59, 0
19, 26220, Note_on_c, 12, 59, 84
19, 26220, Note_on_c, 12, 62, 84
19, 26271, Note_on_c, 12, 59, 0
19, 26271, Note_on_c, 12, 62, 0
19, 26280, Note_on_c, 12, 62, 84
19, 26280, Note_on_c, 12, 59, 84
19, 26331, Note_on_c, 12, 62, 0
19, 26331, Note_on_c, 12, 59, 0
19, 26340, Note_on_c, 12, 62, 84
19, 26340, Note_on_c, 12, 59, 84
19, 26391, Note_on_c, 12, 62, 0
19, 26391, Note_on_c, 12, 59, 0
19, 26400, Note_on_c, 12, 62, 84
19, 26400, Note_on_c, 12, 59, 84
19, 26451, Note_on_c, 12, 62, 0
19, 26451, Note_on_c, 12, 59, 0
19, 26460, Note_on_c, 12, 59, 84
19, 26460, Note_on_c, 12, 62, 84
19, 26511, Note_on_c, 12, 59, 0
19, 26511, Note_on_c, 12, 62, 0
19, 26520, Note_on_c, 12, 62, 84
19, 26520, Note_on_c, 12, 59, 84
19, 26571, Note_on_c, 12, 62, 0
19, 26571, Note_on_c, 12, 59, 0
19, 26580, Note_on_c, 12, 59, 84
19, 26580, Note_on_c, 12, 62, 84
19, 26631, Note_on_c, 12, 59, 0
19, 26631, Note_on_c, 12, 62, 0
19, 26640, Note_on_c, 12, 62, 84
19, 26640, Note_on_c, 12, 59, 84
19, 26691, Note_on_c, 12, 62, 0
19, 26691, Note_on_c, 12, 59, 0
19, 26700, Note_on_c, 12, 59, 84
19, 26700, Note_on_c, 12, 62, 84
19, 26751, Note_on_c, 12, 59, 0
19, 26751, Note_on_c, 12, 62, 0
19, 26760, Note_on_c, 12, 59, 84
19, 26760, Note_on_c, 12, 62, 84
19, 26811, Note_on_c, 12, 59, 0
19, 26811, Note_on_c, 12, 62, 0
19, 26820, Note_on_c, 12, 62, 84
19, 26820, Note_on_c, 12, 59, 84
19, 26871, Note_on_c, 12, 62, 0
19, 26871, Note_on_c, 12, 59, 0
19, 26880, Note_on_c, 12, 59, 84
19, 26880, Note_on_c, 12, 62, 84
19, 26931, Note_on_c, 12, 59, 0
19, 26931, Note_on_c, 12, 62, 0
19, 26940, Note_on_c, 12, 62, 84
19, 26940, Note_on_c, 12, 59, 84
19, 26991, Note_on_c, 12, 62, 0
19, 26991, Note_on_c, 12, 59, 0
19, 27000, Note_on_c, 12, 59, 84
19, 27000, Note_on_c, 12, 62, 84
19, 27051, Note_on_c, 12, 59, 0
19, 27051, Note_on_c, 12, 62, 0
19, 27060, Note_on_c, 12, 62, 84
19, 27060, Note_on_c, 12, 59, 84
19, 27111, Note_on_c, 12, 62, 0
19, 27111, Note_on_c, 12, 59, 0
19, 27120, Note_on_c, 12, 62, 84
19, 27120, Note_on_c, 12, 59, 84
19, 27171, Note_on_c, 12, 62, 0
19, 27171, Note_on_c, 12, 59, 0
19, 27180, Note_on_c, 12, 62, 84
19, 27180, Note_on_c, 12, 59, 84
19, 27231, Note_on_c, 12, 62, 0
19, 27231, Note_on_c, 12, 59, 0
19, 27240, Note_on_c, 12, 62, 84
19, 27240, Note_on_c, 12, 59, 84
19, 27291, Note_on_c, 12, 62, 0
19, 27291, Note_on_c, 12, 59, 0
19, 27300, Note_on_c, 12, 62, 84
19, 27300, Note_on_c, 12, 59, 84
19, 27351, Note_on_c, 12, 62, 0
19, 27351, Note_on_c, 12, 59, 0
19, 27360, Note_on_c, 12, 59, 84
19, 27360, Note_on_c, 12, 62, 84
19, 27411, Note_on_c, 12, 59, 0
19, 27411, Note_on_c, 12, 62, 0
19, 27420, Note_on_c, 12, 59, 84
19, 27420, Note_on_c, 12, 62, 84
19, 27471, Note_on_c, 12, 59, 0
19, 27471, Note_on_c, 12, 62, 0
19, 27480, Note_on_c, 12, 62, 84
19, 27480, Note_on_c, 12, 59, 84
19, 27531, Note_on_c, 12, 62, 0
19, 27531, Note_on_c, 12, 59, 0
19, 27540, Note_on_c, 12, 62, 84
19, 27540, Note_on_c, 12, 59, 84
19, 27591, Note_on_c, 12, 62, 0
19, 27591, Note_on_c, 12, 59, 0
19, 27600, Note_on_c, 12, 59, 84
19, 27600, Note_on_c, 12, 62, 84
19, 27651, Note_on_c, 12, 59, 0
19, 27651, Note_on_c, 12, 62, 0
19, 27660, Note_on_c, 12, 59, 84
19, 27660, Note_on_c, 12, 62, 84
19, 27711, Note_on_c, 12, 59, 0
19, 27711, Note_on_c, 12, 62, 0
19, 27720, Note_on_c, 12, 59, 84
19, 27720, Note_on_c, 12, 62, 84
19, 27771, Note_on_c, 12, 59, 0
19, 27771, Note_on_c, 12, 62, 0
19, 27780, Note_on_c, 12, 62, 84
19, 27780, Note_on_c, 12, 59, 84
19, 27831, Note_on_c, 12, 62, 0
19, 27831, Note_on_c, 12, 59, 0
19, 27840, Note_on_c, 12, 62, 84
19, 27840, Note_on_c, 12, 59, 84
19, 27891, Note_on_c, 12, 62, 0
19, 27891, Note_on_c, 12, 59, 0
19, 27900, Note_on_c, 12, 62, 84
19, 27900, Note_on_c, 12, 59, 84
19, 27951, Note_on_c, 12, 62, 0
19, 27951, Note_on_c, 12, 59, 0
19, 27960, Note_on_c, 12, 62, 84
19, 27960, Note_on_c, 12, 59, 84
19, 28011, Note_on_c, 12, 62, 0
19, 28011, Note_on_c, 12, 59, 0
19, 28020, Note_on_c, 12, 62, 84
19, 28020, Note_on_c, 12, 59, 84
19, 28071, Note_on_c, 12, 62, 0
19, 28071, Note_on_c, 12, 59, 0
19, 28080, Note_on_c, 12, 59, 84
19, 28080, Note_on_c, 12, 62, 84
19, 28131, Note_on_c, 12, 59, 0
19, 28131, Note_on_c, 12, 62, 0
19, 28140, Note_on_c, 12, 62, 84
19, 28140, Note_on_c, 12, 59, 84
19, 28191, Note_on_c, 12, 62, 0
19, 28191, Note_on_c, 12, 59, 0
19, 28200, Note_on_c, 12, 59, 84
19, 28200, Note_on_c, 12, 62, 84
19, 28251, Note_on_c, 12, 59, 0
19, 28251, Note_on_c, 12, 62, 0
19, 28260, Note_on_c, 12, 62, 84
19, 28260, Note_on_c, 12, 59, 84
19, 28311, Note_on_c, 12, 62, 0
19, 28311, Note_on_c, 12, 59, 0
19, 28320, Note_on_c, 12, 59, 84
19, 28320, Note_on_c, 12, 62, 84
19, 28371, Note_on_c, 12, 59, 0
19, 28371, Note_on_c, 12, 62, 0
19, 28380, Note_on_c, 12, 59, 84
19, 28380, Note_on_c, 12, 62, 84
19, 28431, Note_on_c, 12, 59, 0
19, 28431, Note_on_c, 12, 62, 0
19, 28440, Note_on_c, 12, 62, 84
19, 28440, Note_on_c, 12, 59, 84
19, 28491, Note_on_c, 12, 62, 0
19, 28491, Note_on_c, 12, 59, 0
19, 28500, Note_on_c, 12, 59, 84
19, 28500, Note_on_c, 12, 62, 84
19, 28551, Note_on_c, 12, 59, 0
19, 28551, Note_on_c, 12, 62, 0
19, 28560, Note_on_c, 12, 62, 84
19, 28560, Note_on_c, 12, 59, 84
19, 28611, Note_on_c, 12, 62, 0
19, 28611, Note_on_c, 12, 59, 0
19, 28620, Note_on_c, 12, 59, 84
19, 28620, Note_on_c, 12, 62, 84
19, 28671, Note_on_c, 12, 59, 0
19, 28671, Note_on_c, 12, 62, 0
19, 28680, Note_on_c, 12, 59, 84
19, 28680, Note_on_c, 12, 62, 84
19, 28731, Note_on_c, 12, 59, 0
19, 28731, Note_on_c, 12, 62, 0
19, 28740, Note_on_c, 12, 62, 84
19, 28740, Note_on_c, 12, 59, 84
19, 28791, Note_on_c, 12, 62, 0
19, 28791, Note_on_c, 12, 59, 0
19, 28800, Note_on_c, 12, 62, 84
19, 28800, Note_on_c, 12, 59, 84
19, 28851, Note_on_c, 12, 62, 0
19, 28851, Note_on_c, 12, 59, 0
19, 28860, Note_on_c, 12, 59, 84
19, 28860, Note_on_c, 12, 62, 84
19, 28911, Note_on_c, 12, 59, 0
19, 28911, Note_on_c, 12, 62, 0
19, 28920, Note_on_c, 12, 59, 84
19, 28920, Note_on_c, 12, 62, 84
19, 28971, Note_on_c, 12, 59, 0
19, 28971, Note_on_c, 12, 62, 0
19, 28980, Note_on_c, 12, 59, 84
19, 28980, Note_on_c, 12, 62, 84
19, 29031, Note_on_c, 12, 59, 0
19, 29031, Note_on_c, 12, 62, 0
19, 29040, Note_on_c, 12, 62, 84
19, 29040, Note_on_c, 12, 59, 84
19, 29091, Note_on_c, 12, 62, 0
19, 29091, Note_on_c, 12, 59, 0
19, 29100, Note_on_c, 12, 59, 84
19, 29100, Note_on_c, 12, 62, 84
19, 29151, Note_on_c, 12, 59, 0
19, 29151, Note_on_c, 12, 62, 0
19, 29160, Note_on_c, 12, 62, 84
19, 29160, Note_on_c, 12, 59, 84
19, 29211, Note_on_c, 12, 62, 0
19, 29211, Note_on_c, 12, 59, 0
19, 29220, Note_on_c, 12, 59, 84
19, 29220, Note_on_c, 12, 62, 84
19, 29271, Note_on_c, 12, 59, 0
19, 29271, Note_on_c, 12, 62, 0
19, 29280, Note_on_c, 12, 62, 84
19, 29280, Note_on_c, 12, 59, 84
19, 29331, Note_on_c, 12, 62, 0
19, 29331, Note_on_c, 12, 59, 0
19, 29340, Note_on_c, 12, 59, 84
19, 29340, Note_on_c, 12, 62, 84
19, 29391, Note_on_c, 12, 59, 0
19, 29391, Note_on_c, 12, 62, 0
19, 29400, Note_on_c, 12, 62, 84
19, 29400, Note_on_c, 12, 59, 84
19, 29451, Note_on_c, 12, 62, 0
19, 29451, Note_on_c, 12, 59, 0
19, 29460, Note_on_c, 12, 59, 84
19, 29460, Note_on_c, 12, 62, 84
19, 29511, Note_on_c, 12, 59, 0
19, 29511, Note_on_c, 12, 62, 0
19, 29520, Note_on_c, 12, 59, 84
19, 29520, Note_on_c, 12, 62, 84
19, 29571, Note_on_c, 12, 59, 0
19, 29571, Note_on_c, 12, 62, 0
19, 29580, Note_on_c, 12, 62, 84
19, 29580, Note_on_c, 12, 59, 84
19, 29631, Note_on_c, 12, 62, 0
19, 29631, Note_on_c, 12, 59, 0
19, 29640, Note_on_c, 12, 59, 84
19, 29640, Note_on_c, 12, 62, 84
19, 29691, Note_on_c, 12, 59, 0
19, 29691, Note_on_c, 12, 62, 0
19, 29700, Note_on_c, 12, 59, 84
19, 29700, Note_on_c, 12, 62, 84
19, 29751, Note_on_c, 12, 59, 0
19, 29751, Note_on_c, 12, 62, 0
19, 29760, Note_on_c, 12, 64, 84
19, 29760, Note_on_c, 12, 60, 84
19, 29811, Note_on_c, 12, 64, 0
19, 29811, Note_on_c, 12, 60, 0
19, 29820, Note_on_c, 12, 64, 84
19, 29820, Note_on_c, 12, 60, 84
19, 29871, Note_on_c, 12, 64, 0
19, 29871, Note_on_c, 12, 60, 0
19, 29880, Note_on_c, 12, 60, 84
19, 29880, Note_on_c, 12, 64, 84
19, 29931, Note_on_c, 12, 60, 0
19, 29931, Note_on_c, 12, 64, 0
19, 29940, Note_on_c, 12, 64, 84
19, 29940, Note_on_c, 12, 60, 84
19, 29991, Note_on_c, 12, 64, 0
19, 29991, Note_on_c, 12, 60, 0
19, 30000, Note_on_c, 12, 64, 84
19, 30000, Note_on_c, 12, 60, 84
19, 30051, Note_on_c, 12, 64, 0
19, 30051, Note_on_c, 12, 60, 0
19, 30060, Note_on_c, 12, 64, 84
19, 30060, Note_on_c, 12, 60, 84
19, 30111, Note_on_c, 12, 64, 0
19, 30111, Note_on_c, 12, 60, 0
19, 30120, Note_on_c, 12, 64, 84
19, 30120, Note_on_c, 12, 60, 84
19, 30171, Note_on_c, 12, 64, 0
19, 30171, Note_on_c, 12, 60, 0
19, 30180, Note_on_c, 12, 64, 84
19, 30180, Note_on_c, 12, 60, 84
19, 30231, Note_on_c, 12, 64, 0
19, 30231, Note_on_c, 12, 60, 0
19, 30240, Note_on_c, 12, 64, 84
19, 30240, Note_on_c, 12, 60, 84
19, 30291, Note_on_c, 12, 64, 0
19, 30291, Note_on_c, 12, 60, 0
19, 30300, Note_on_c, 12, 60, 84
19, 30300, Note_on_c, 12, 64, 84
19, 30351, Note_on_c, 12, 60, 0
19, 30351, Note_on_c, 12, 64, 0
19, 30360, Note_on_c, 12, 60, 84
19, 30360, Note_on_c, 12, 64, 84
19, 30411, Note_on_c, 12, 60, 0
19, 30411, Note_on_c, 12, 64, 0
19, 30420, Note_on_c, 12, 64, 84
19, 30420, Note_on_c, 12, 60, 84
19, 30471, Note_on_c, 12, 64, 0
19, 30471, Note_on_c, 12, 60, 0
19, 30480, Note_on_c, 12, 64, 84
19, 30480, Note_on_c, 12, 60, 84
19, 30531, Note_on_c, 12, 64, 0
19, 30531, Note_on_c, 12, 60, 0
19, 30540, Note_on_c, 12, 64, 84
19, 30540, Note_on_c, 12, 60, 84
19, 30591, Note_on_c, 12, 64, 0
19, 30591, Note_on_c, 12, 60, 0
19, 30600, Note_on_c, 12, 60, 84
19, 30600, Note_on_c, 12, 64, 84
19, 30651, Note_on_c, 12, 60, 0
19, 30651, Note_on_c, 12, 64, 0
19, 30660, Note_on_c, 12, 60, 84
19, 30660, Note_on_c, 12, 64, 84
19, 30711, Note_on_c, 12, 60, 0
19, 30711, Note_on_c, 12, 64, 0
19, 30720, Note_on_c, 12, 60, 84
19, 30720, Note_on_c, 12, 64, 84
19, 30771, Note_on_c, 12, 60, 0
19, 30771, Note_on_c, 12, 64, 0
19, 30780, Note_on_c, 12, 60, 84
19, 30780, Note_on_c, 12, 64, 84
19, 30831, Note_on_c, 12, 60, 0
19, 30831, Note_on_c, 12, 64, 0
19, 30840, Note_on_c, 12, 60, 84
19, 30840, Note_on_c, 12, 64, 84
19, 30891, Note_on_c, 12, 60, 0
19, 30891, Note_on_c, 12, 64, 0
19, 30900, Note_on_c, 12, 60, 84
19, 30900, Note_on_c, 12, 64, 84
19, 30951, Note_on_c, 12, 60, 0
19, 30951, Note_on_c, 12, 64, 0
19, 30960, Note_on_c, 12, 64, 84
19, 30960, Note_on_c, 12, 60, 84
19, 31011, Note_on_c, 12, 64, 0
19, 31011, Note_on_c, 12, 60, 0
19, 31020, Note_on_c, 12, 64, 84
19, 31020, Note_on_c, 12, 60, 84
19, 31071, Note_on_c, 12, 64, 0
19, 31071, Note_on_c, 12, 60, 0
19, 31080, Note_on_c, 12, 60, 84
19, 31080, Note_on_c, 12, 64, 84
19, 31131, Note_on_c, 12, 60, 0
19, 31131, Note_on_c, 12, 64, 0
19, 31140, Note_on_c, 12, 64, 84
19, 31140, Note_on_c, 12, 60, 84
19, 31191, Note_on_c, 12, 64, 0
19, 31191, Note_on_c, 12, 60, 0
19, 31200, Note_on_c, 12, 64, 84
19, 31200, Note_on_c, 12, 60, 84
19, 31251, Note_on_c, 12, 64, 0
19, 31251, Note_on_c, 12, 60, 0
19, 31260, Note_on_c, 12, 60, 84
19, 31260, Note_on_c, 12, 64, 84
19, 31311, Note_on_c, 12, 60, 0
19, 31311, Note_on_c, 12, 64, 0
19, 31320, Note_on_c, 12, 60, 84
19, 31320, Note_on_c, 12, 64, 84
19, 31371, Note_on_c, 12, 60, 0
19, 31371, Note_on_c, 12, 64, 0
19, 31380, Note_on_c, 12, 64, 84
19, 31380, Note_on_c, 12, 60, 84
19, 31431, Note_on_c, 12, 64, 0
19, 31431, Note_on_c, 12, 60, 0
19, 31440, Note_on_c, 12, 60, 84
19, 31440, Note_on_c, 12, 64, 84
19, 31491, Note_on_c, 12, 60, 0
19, 31491, Note_on_c, 12, 64, 0
19, 31500, Note_on_c, 12, 60, 84
19, 31500, Note_on_c, 12, 64, 84
19, 31551, Note_on_c, 12, 60, 0
19, 31551, Note_on_c, 12, 64, 0
19, 31560, Note_on_c, 12, 64, 84
19, 31560, Note_on_c, 12, 60, 84
19, 31611, Note_on_c, 12, 64, 0
19, 31611, Note_on_c, 12, 60, 0
19, 31620, Note_on_c, 12, 64, 84
19, 31620, Note_on_c, 12, 60, 84
19, 31671, Note_on_c, 12, 64, 0
19, 31671, Note_on_c, 12, 60, 0
19, 31680, Note_on_c, 12, 55, 84
19, 31680, Note_on_c, 12, 76, 84
19, 31680, Note_on_c, 12, 64, 84
19, 31680, Note_on_c, 12, 72, 84
19, 31919, Note_on_c, 12, 55, 0
19, 31919, Note_on_c, 12, 64, 0
19, 31919, Note_on_c, 12, 72, 0
19, 32384, Note_on_c, 12, 76, 0
19, 32400, Note_on_c, 12, 60, 84
19, 32639, Note_on_c, 12, 60, 0
19, 32640, Note_on_c, 12, 64, 84
19, 32879, Note_on_c, 12, 64, 0
19, 32880, Note_on_c, 12, 60, 84
19, 33119, Note_on_c, 12, 60, 0
19, 33120, Note_on_c, 12, 67, 84
19, 33359, Note_on_c, 12, 67, 0
19, 33360, Note_on_c, 12, 66, 84
19, 33539, Note_on_c, 12, 66, 0
19, 33540, Note_on_c, 12, 64, 84
19, 33591, Note_on_c, 12, 64, 0
19, 33600, Note_on_c, 12, 66, 84
19, 34304, Note_on_c, 12, 66, 0
19, 34320, Note_on_c, 12, 60, 84
19, 34559, Note_on_c, 12, 60, 0
19, 34560, Note_on_c, 12, 66, 84
19, 34799, Note_on_c, 12, 66, 0
19, 34800, Note_on_c, 12, 60, 84
19, 35039, Note_on_c, 12, 60, 0
19, 35040, Note_on_c, 12, 69, 84
19, 35279, Note_on_c, 12, 69, 0
19, 35280, Note_on_c, 12, 67, 84
19, 35459, Note_on_c, 12, 67, 0
19, 35460, Note_on_c, 12, 66, 84
19, 35511, Note_on_c, 12, 66, 0
19, 35520, Note_on_c, 12, 67, 84
19, 35759, Note_on_c, 12, 67, 0
19, 35760, Note_on_c, 12, 62, 84
19, 35999, Note_on_c, 12, 62, 0
19, 36000, Note_on_c, 12, 71, 84
19, 36239, Note_on_c, 12, 71, 0
19, 36240, Note_on_c, 12, 69, 84
19, 36419, Note_on_c, 12, 69, 0
19, 36420, Note_on_c, 12, 67, 84
19, 36471, Note_on_c, 12, 67, 0
19, 36480, Note_on_c, 12, 66, 84
19, 36824, Note_on_c, 12, 66, 0
19, 36840, Note_on_c, 12, 62, 84
19, 36944, Note_on_c, 12, 62, 0
19, 36960, Note_on_c, 12, 69, 84
19, 37319, Note_on_c, 12, 69, 0
19, 37320, Note_on_c, 12, 67, 84
19, 37379, Note_on_c, 12, 67, 0
19, 37380, Note_on_c, 12, 66, 84
19, 37431, Note_on_c, 12, 66, 0
19, 37440, Note_on_c, 12, 67, 84
19, 37784, Note_on_c, 12, 67, 0
19, 37800, Note_on_c, 12, 62, 84
19, 37904, Note_on_c, 12, 62, 0
19, 37920, Note_on_c, 12, 71, 84
19, 38279, Note_on_c, 12, 71, 0
19, 38280, Note_on_c, 12, 69, 84
19, 38339, Note_on_c, 12, 69, 0
19, 38340, Note_on_c, 12, 67, 84
19, 38391, Note_on_c, 12, 67, 0
19, 38400, Note_on_c, 12, 86, 84
19, 38400, Note_on_c, 12, 74, 84
19, 38984, Note_on_c, 12, 86, 0
19, 38984, Note_on_c, 12, 74, 0
19, 39000, Note_on_c, 12, 86, 84
19, 39119, Note_on_c, 12, 86, 0
19, 39120, Note_on_c, 12, 84, 84
19, 39224, Note_on_c, 12, 84, 0
19, 39240, Note_on_c, 12, 83, 84
19, 39329, Note_on_c, 12, 83, 0
19, 39360, Note_on_c, 12, 81, 84
19, 39449, Note_on_c, 12, 81, 0
19, 39480, Note_on_c, 12, 83, 84
19, 39599, Note_on_c, 12, 83, 0
19, 39600, Note_on_c, 12, 81, 84
19, 39704, Note_on_c, 12, 81, 0
19, 39720, Note_on_c, 12, 79, 84
19, 39809, Note_on_c, 12, 79, 0
19, 39840, Note_on_c, 12, 78, 84
19, 39929, Note_on_c, 12, 78, 0
19, 39960, Note_on_c, 12, 66, 84
19, 40079, Note_on_c, 12, 66, 0
19, 40080, Note_on_c, 12, 67, 84
19, 40184, Note_on_c, 12, 67, 0
19, 40200, Note_on_c, 12, 61, 84
19, 40289, Note_on_c, 12, 61, 0
19, 40320, Note_on_c, 12, 62, 84
19, 40439, Note_on_c, 12, 62, 0
19, 42000, Note_on_c, 12, 57, 84
19, 42079, Note_on_c, 12, 57, 0
19, 42080, Note_on_c, 12, 59, 84
19, 42159, Note_on_c, 12, 59, 0
19, 42160, Note_on_c, 12, 60, 84
19, 42227, Note_on_c, 12, 60, 0
19, 42240, Note_on_c, 12, 62, 84
19, 42307, Note_on_c, 12, 62, 0
19, 42320, Note_on_c, 12, 59, 84
19, 42387, Note_on_c, 12, 59, 0
19, 42400, Note_on_c, 12, 62, 84
19, 42467, Note_on_c, 12, 62, 0
19, 42480, Note_on_c, 12, 62, 84
19, 42547, Note_on_c, 12, 62, 0
19, 42560, Note_on_c, 12, 62, 84
19, 42627, Note_on_c, 12, 62, 0
19, 42640, Note_on_c, 12, 62, 84
19, 42707, Note_on_c, 12, 62, 0
19, 42720, Note_on_c, 12, 60, 84
19, 42787, Note_on_c, 12, 60, 0
19, 42800, Note_on_c, 12, 64, 84
19, 42867, Note_on_c, 12, 64, 0
19, 42880, Note_on_c, 12, 64, 84
19, 42947, Note_on_c, 12, 64, 0
19, 42960, Note_on_c, 12, 64, 84
19, 43027, Note_on_c, 12, 64, 0
19, 43040, Note_on_c, 12, 64, 84
19, 43107, Note_on_c, 12, 64, 0
19, 43120, Note_on_c, 12, 64, 84
19, 43187, Note_on_c, 12, 64, 0
19, 43200, Note_on_c, 12, 59, 84
19, 43267, Note_on_c, 12, 59, 0
19, 43280, Note_on_c, 12, 62, 84
19, 43347, Note_on_c, 12, 62, 0
19, 43360, Note_on_c, 12, 62, 84
19, 43427, Note_on_c, 12, 62, 0
19, 43440, Note_on_c, 12, 62, 84
19, 43507, Note_on_c, 12, 62, 0
19, 43520, Note_on_c, 12, 62, 84
19, 43587, Note_on_c, 12, 62, 0
19, 43600, Note_on_c, 12, 62, 84
19, 43667, Note_on_c, 12, 62, 0
19, 43680, Note_on_c, 12, 62, 84
19, 43904, Note_on_c, 12, 62, 0
19, 43920, Note_on_c, 12, 59, 52
19, 43999, Note_on_c, 12, 59, 0
19, 44000, Note_on_c, 12, 60, 52
19, 44079, Note_on_c, 12, 60, 0
19, 44080, Note_on_c, 12, 62, 52
19, 44159, Note_on_c, 12, 62, 0
19, 44160, Note_on_c, 12, 60, 52
19, 44399, Note_on_c, 12, 60, 0
19, 44400, Note_on_c, 12, 57, 52
19, 44479, Note_on_c, 12, 57, 0
19, 44480, Note_on_c, 12, 59, 52
19, 44559, Note_on_c, 12, 59, 0
19, 44560, Note_on_c, 12, 60, 52
19, 44639, Note_on_c, 12, 60, 0
19, 44640, Note_on_c, 12, 59, 52
19, 44879, Note_on_c, 12, 59, 0
19, 44880, Note_on_c, 12, 55, 52
19, 44959, Note_on_c, 12, 55, 0
19, 44960, Note_on_c, 12, 57, 52
19, 45039, Note_on_c, 12, 57, 0
19, 45040, Note_on_c, 12, 59, 52
19, 45107, Note_on_c, 12, 59, 0
19, 45120, Note_on_c, 12, 60, 52
19, 45299, Note_on_c, 12, 60, 0
19, 45358, Control_c, 12, 11, 80
19, 45360, Note_on_c, 12, 66, 76
19, 45360, Control_c, 12, 11, 80
19, 45400, Control_c, 12, 11, 84
19, 45439, Note_on_c, 12, 66, 0
19, 45440, Control_c, 12, 11, 88
19, 45440, Note_on_c, 12, 67, 76
19, 45480, Control_c, 12, 11, 92
19, 45519, Note_on_c, 12, 67, 0
19, 45520, Note_on_c, 12, 69, 76
19, 45520, Control_c, 12, 11, 96
19, 45560, Control_c, 12, 11, 100
19, 45587, Note_on_c, 12, 69, 0
19, 45600, Control_c, 12, 11, 104
19, 45600, Note_on_c, 12, 62, 76
19, 45640, Control_c, 12, 11, 107
19, 45680, Control_c, 12, 11, 111
19, 45720, Control_c, 12, 11, 115
19, 45760, Control_c, 12, 11, 119
19, 45800, Control_c, 12, 11, 127
19, 45824, Note_on_c, 12, 62, 0
19, 45840, Note_on_c, 12, 60, 76
19, 45907, Note_on_c, 12, 60, 0
19, 45920, Note_on_c, 12, 59, 76
19, 45987, Note_on_c, 12, 59, 0
19, 46000, Note_on_c, 12, 57, 76
19, 46067, Note_on_c, 12, 57, 0
19, 46080, Note_on_c, 12, 67, 76
19, 46147, Note_on_c, 12, 67, 0
19, 46160, Note_on_c, 12, 79, 76
19, 46227, Note_on_c, 12, 79, 0
19, 46240, Note_on_c, 12, 79, 76
19, 46307, Note_on_c, 12, 79, 0
19, 46320, Note_on_c, 12, 79, 76
19, 46387, Note_on_c, 12, 79, 0
19, 46400, Note_on_c, 12, 78, 76
19, 46467, Note_on_c, 12, 78, 0
19, 46480, Note_on_c, 12, 77, 76
19, 46547, Note_on_c, 12, 77, 0
19, 46560, Note_on_c, 12, 76, 76
19, 46627, Note_on_c, 12, 76, 0
19, 46640, Note_on_c, 12, 76, 76
19, 46707, Note_on_c, 12, 76, 0
19, 46720, Note_on_c, 12, 76, 76
19, 46787, Note_on_c, 12, 76, 0
19, 46800, Note_on_c, 12, 76, 76
19, 46867, Note_on_c, 12, 76, 0
19, 46880, Note_on_c, 12, 74, 76
19, 46947, Note_on_c, 12, 74, 0
19, 46960, Note_on_c, 12, 72, 76
19, 47027, Note_on_c, 12, 72, 0
19, 47040, Note_on_c, 12, 74, 76
19, 47107, Note_on_c, 12, 74, 0
19, 47120, Note_on_c, 12, 62, 76
19, 47187, Note_on_c, 12, 62, 0
19, 47200, Note_on_c, 12, 62, 76
19, 47267, Note_on_c, 12, 62, 0
19, 47280, Note_on_c, 12, 62, 76
19, 47347, Note_on_c, 12, 62, 0
19, 47360, Note_on_c, 12, 62, 76
19, 47427, Note_on_c, 12, 62, 0
19, 47440, Note_on_c, 12, 62, 76
19, 47507, Note_on_c, 12, 62, 0
19, 47520, Note_on_c, 12, 62, 76
19, 47744, Note_on_c, 12, 62, 0
19, 47760, Note_on_c, 12, 59, 52
19, 47839, Note_on_c, 12, 59, 0
19, 47840, Note_on_c, 12, 60, 52
19, 47919, Note_on_c, 12, 60, 0
19, 47920, Note_on_c, 12, 62, 52
19, 47999, Note_on_c, 12, 62, 0
19, 48000, Note_on_c, 12, 60, 52
19, 48239, Note_on_c, 12, 60, 0
19, 48240, Note_on_c, 12, 57, 52
19, 48319, Note_on_c, 12, 57, 0
19, 48320, Note_on_c, 12, 59, 52
19, 48399, Note_on_c, 12, 59, 0
19, 48400, Note_on_c, 12, 60, 52
19, 48479, Note_on_c, 12, 60, 0
19, 48480, Note_on_c, 12, 59, 52
19, 48719, Note_on_c, 12, 59, 0
19, 48720, Note_on_c, 12, 55, 52
19, 48799, Note_on_c, 12, 55, 0
19, 48800, Note_on_c, 12, 57, 52
19, 48879, Note_on_c, 12, 57, 0
19, 48880, Note_on_c, 12, 59, 52
19, 48959, Note_on_c, 12, 59, 0
19, 48960, Note_on_c, 12, 60, 52
19, 49184, Note_on_c, 12, 60, 0
19, 49200, Note_on_c, 12, 62, 76
19, 49267, Note_on_c, 12, 62, 0
19, 49280, Note_on_c, 12, 64, 76
19, 49347, Note_on_c, 12, 64, 0
19, 49360, Note_on_c, 12, 66, 76
19, 49427, Note_on_c, 12, 66, 0
19, 49440, Note_on_c, 12, 67, 76
19, 49664, Note_on_c, 12, 67, 0
19, 49680, Note_on_c, 12, 60, 52
19, 49759, Note_on_c, 12, 60, 0
19, 49760, Note_on_c, 12, 62, 52
19, 49839, Note_on_c, 12, 62, 0
19, 49840, Note_on_c, 12, 64, 52
19, 49919, Note_on_c, 12, 64, 0
19, 49920, Note_on_c, 12, 62, 52
19, 50159, Note_on_c, 12, 62, 0
19, 50160, Note_on_c, 12, 59, 52
19, 50239, Note_on_c, 12, 59, 0
19, 50240, Note_on_c, 12, 60, 52
19, 50319, Note_on_c, 12, 60, 0
19, 50320, Note_on_c, 12, 62, 52
19, 50399, Note_on_c, 12, 62, 0
19, 50400, Note_on_c, 12, 60, 52
19, 50639, Note_on_c, 12, 60, 0
19, 50640, Note_on_c, 12, 57, 52
19, 50719, Note_on_c, 12, 57, 0
19, 50720, Note_on_c, 12, 59, 52
19, 50799, Note_on_c, 12, 59, 0
19, 50800, Note_on_c, 12, 60, 52
19, 50879, Note_on_c, 12, 60, 0
19, 50880, Note_on_c, 12, 62, 52
19, 51104, Note_on_c, 12, 62, 0
19, 51120, Note_on_c, 12, 64, 76
19, 51187, Note_on_c, 12, 64, 0
19, 51200, Note_on_c, 12, 66, 76
19, 51267, Note_on_c, 12, 66, 0
19, 51280, Note_on_c, 12, 68, 76
19, 51347, Note_on_c, 12, 68, 0
19, 51360, Note_on_c, 12, 69, 76
19, 51584, Note_on_c, 12, 69, 0
19, 51600, Note_on_c, 12, 67, 44
19, 51679, Note_on_c, 12, 67, 0
19, 51680, Note_on_c, 12, 65, 44
19, 51759, Note_on_c, 12, 65, 0
19, 51760, Note_on_c, 12, 64, 44
19, 51839, Note_on_c, 12, 64, 0
19, 51840, Note_on_c, 12, 62, 44
19, 52079, Note_on_c, 12, 62, 0
19, 52080, Note_on_c, 12, 65, 44
19, 52159, Note_on_c, 12, 65, 0
19, 52160, Note_on_c, 12, 64, 44
19, 52239, Note_on_c, 12, 64, 0
19, 52240, Note_on_c, 12, 62, 44
19, 52319, Note_on_c, 12, 62, 0
19, 52320, Note_on_c, 12, 60, 44
19, 52559, Note_on_c, 12, 60, 0
19, 52560, Note_on_c, 12, 64, 44
19, 52639, Note_on_c, 12, 64, 0
19, 52640, Note_on_c, 12, 62, 44
19, 52719, Note_on_c, 12, 62, 0
19, 52720, Note_on_c, 12, 60, 44
19, 52787, Note_on_c, 12, 60, 0
19, 52800, Note_on_c, 12, 59, 44
19, 52851, Note_on_c, 12, 59, 0
19, 52860, Note_on_c, 12, 71, 44
19, 52911, Note_on_c, 12, 71, 0
19, 52920, Note_on_c, 12, 71, 45
19, 52971, Note_on_c, 12, 71, 0
19, 52980, Note_on_c, 12, 71, 46
19, 53031, Note_on_c, 12, 71, 0
19, 53040, Note_on_c, 12, 71, 47
19, 53091, Note_on_c, 12, 71, 0
19, 53100, Note_on_c, 12, 71, 49
19, 53151, Note_on_c, 12, 71, 0
19, 53160, Note_on_c, 12, 71, 50
19, 53211, Note_on_c, 12, 71, 0
19, 53220, Note_on_c, 12, 71, 51
19, 53271, Note_on_c, 12, 71, 0
19, 53280, Note_on_c, 12, 71, 53
19, 53331, Note_on_c, 12, 71, 0
19, 53340, Note_on_c, 12, 71, 54
19, 53391, Note_on_c, 12, 71, 0
19, 53400, Note_on_c, 12, 71, 55
19, 53451, Note_on_c, 12, 71, 0
19, 53460, Note_on_c, 12, 71, 56
19, 53511, Note_on_c, 12, 71, 0
19, 53520, Note_on_c, 12, 71, 58
19, 53571, Note_on_c, 12, 71, 0
19, 53580, Note_on_c, 12, 71, 59
19, 53631, Note_on_c, 12, 71, 0
19, 53640, Note_on_c, 12, 71, 60
19, 53691, Note_on_c, 12, 71, 0
19, 53700, Note_on_c, 12, 71, 62
19, 53751, Note_on_c, 12, 71, 0
19, 53760, Note_on_c, 12, 71, 63
19, 53811, Note_on_c, 12, 71, 0
19, 53820, Note_on_c, 12, 71, 64
19, 53871, Note_on_c, 12, 71, 0
19, 53880, Note_on_c, 12, 71, 65
19, 53931, Note_on_c, 12, 71, 0
19, 53940, Note_on_c, 12, 71, 67
19, 53991, Note_on_c, 12, 71, 0
19, 54000, Note_on_c, 12, 71, 68
19, 54051, Note_on_c, 12, 71, 0
19, 54060, Note_on_c, 12, 71, 69
19, 54111, Note_on_c, 12, 71, 0
19, 54120, Note_on_c, 12, 71, 71
19, 54171, Note_on_c, 12, 71, 0
19, 54180, Note_on_c, 12, 71, 72
19, 54231, Note_on_c, 12, 71, 0
19, 54240, Note_on_c, 12, 71, 73
19, 54291, Note_on_c, 12, 71, 0
19, 54300, Note_on_c, 12, 71, 74
19, 54351, Note_on_c, 12, 71, 0
19, 54360, Note_on_c, 12, 71, 76
19, 54411, Note_on_c, 12, 71, 0
19, 54420, Note_on_c, 12, 71, 77
19, 54471, Note_on_c, 12, 71, 0
19, 54480, Note_on_c, 12, 71, 78
19, 54531, Note_on_c, 12, 71, 0
19, 54540, Note_on_c, 12, 71, 80
19, 54591, Note_on_c, 12, 71, 0
19, 54600, Note_on_c, 12, 71, 81
19, 54651, Note_on_c, 12, 71, 0
19, 54660, Note_on_c, 12, 71, 82
19, 54711, Note_on_c, 12, 71, 0
19, 54720, Note_on_c, 12, 72, 84
19, 54771, Note_on_c, 12, 72, 0
19, 54780, Note_on_c, 12, 72, 84
19, 54831, Note_on_c, 12, 72, 0
19, 54840, Note_on_c, 12, 72, 84
19, 54891, Note_on_c, 12, 72, 0
19, 54900, Note_on_c, 12, 72, 84
19, 54951, Note_on_c, 12, 72, 0
19, 54960, Note_on_c, 12, 72, 84
19, 55011, Note_on_c, 12, 72, 0
19, 55020, Note_on_c, 12, 72, 84
19, 55071, Note_on_c, 12, 72, 0
19, 55080, Note_on_c, 12, 72, 84
19, 55131, Note_on_c, 12, 72, 0
19, 55140, Note_on_c, 12, 72, 84
19, 55191, Note_on_c, 12, 72, 0
19, 55200, Note_on_c, 12, 72, 84
19, 55251, Note_on_c, 12, 72, 0
19, 55260, Note_on_c, 12, 60, 84
19, 55311, Note_on_c, 12, 60, 0
19, 55320, Note_on_c, 12, 62, 84
19, 55371, Note_on_c, 12, 62, 0
19, 55380, Note_on_c, 12, 64, 84
19, 55431, Note_on_c, 12, 64, 0
19, 55440, Note_on_c, 12, 65, 84
19, 55491, Note_on_c, 12, 65, 0
19, 55500, Note_on_c, 12, 67, 84
19, 55551, Note_on_c, 12, 67, 0
19, 55560, Note_on_c, 12, 69, 84
19, 55611, Note_on_c, 12, 69, 0
19, 55620, Note_on_c, 12, 71, 84
19, 55671, Note_on_c, 12, 71, 0
19, 55680, Note_on_c, 12, 72, 84
19, 55731, Note_on_c, 12, 72, 0
19, 55740, Note_on_c, 12, 60, 84
19, 55791, Note_on_c, 12, 60, 0
19, 55800, Note_on_c, 12, 62, 84
19, 55851, Note_on_c, 12, 62, 0
19, 55860, Note_on_c, 12, 64, 84
19, 55911, Note_on_c, 12, 64, 0
19, 55920, Note_on_c, 12, 65, 84
19, 55971, Note_on_c, 12, 65, 0
19, 55980, Note_on_c, 12, 67, 84
19, 56031, Note_on_c, 12, 67, 0
19, 56040, Note_on_c, 12, 69, 84
19, 56091, Note_on_c, 12, 69, 0
19, 56100, Note_on_c, 12, 71, 84
19, 56151, Note_on_c, 12, 71, 0
19, 56160, Note_on_c, 12, 72, 84
19, 56211, Note_on_c, 12, 72, 0
19, 56220, Note_on_c, 12, 64, 84
19, 56271, Note_on_c, 12, 64, 0
19, 56280, Note_on_c, 12, 65, 84
19, 56331, Note_on_c, 12, 65, 0
19, 56340, Note_on_c, 12, 67, 84
19, 56391, Note_on_c, 12, 67, 0
19, 56400, Note_on_c, 12, 69, 84
19, 56451, Note_on_c, 12, 69, 0
19, 56460, Note_on_c, 12, 71, 84
19, 56511, Note_on_c, 12, 71, 0
19, 56520, Note_on_c, 12, 72, 84
19, 56571, Note_on_c, 12, 72, 0
19, 56580, Note_on_c, 12, 74, 84
19, 56631, Note_on_c, 12, 74, 0
19, 56640, Note_on_c, 12, 76, 84
19, 56691, Note_on_c, 12, 76, 0
19, 56700, Note_on_c, 12, 74, 84
19, 56751, Note_on_c, 12, 74, 0
19, 56760, Note_on_c, 12, 76, 84
19, 56811, Note_on_c, 12, 76, 0
19, 56820, Note_on_c, 12, 77, 84
19, 56871, Note_on_c, 12, 77, 0
19, 56880, Note_on_c, 12, 79, 84
19, 56931, Note_on_c, 12, 79, 0
19, 56940, Note_on_c, 12, 79, 84
19, 56991, Note_on_c, 12, 79, 0
19, 57000, Note_on_c, 12, 79, 84
19, 57051, Note_on_c, 12, 79, 0
19, 57060, Note_on_c, 12, 79, 84
19, 57111, Note_on_c, 12, 79, 0
19, 57120, Note_on_c, 12, 79, 84
19, 57171, Note_on_c, 12, 79, 0
19, 57180, Note_on_c, 12, 79, 84
19, 57231, Note_on_c, 12, 79, 0
19, 57240, Note_on_c, 12, 79, 84
19, 57291, Note_on_c, 12, 79, 0
19, 57300, Note_on_c, 12, 79, 84
19, 57351, Note_on_c, 12, 79, 0
19, 57360, Note_on_c, 12, 79, 84
19, 57411, Note_on_c, 12, 79, 0
19, 57420, Note_on_c, 12, 79, 84
19, 57471, Note_on_c, 12, 79, 0
19, 57480, Note_on_c, 12, 79, 84
19, 57531, Note_on_c, 12, 79, 0
19, 57540, Note_on_c, 12, 79, 84
19, 57591, Note_on_c, 12, 79, 0
19, 57600, Note_on_c, 12, 79, 84
19, 57651, Note_on_c, 12, 79, 0
19, 57660, Note_on_c, 12, 79, 84
19, 57711, Note_on_c, 12, 79, 0
19, 57720, Note_on_c, 12, 78, 84
19, 57771, Note_on_c, 12, 78, 0
19, 57780, Note_on_c, 12, 76, 84
19, 57831, Note_on_c, 12, 76, 0
19, 57840, Note_on_c, 12, 74, 84
19, 57891, Note_on_c, 12, 74, 0
19, 57900, Note_on_c, 12, 72, 84
19, 57951, Note_on_c, 12, 72, 0
19, 57960, Note_on_c, 12, 71, 84
19, 58011, Note_on_c, 12, 71, 0
19, 58020, Note_on_c, 12, 69, 84
19, 58071, Note_on_c, 12, 69, 0
19, 58080, Note_on_c, 12, 67, 84
19, 58131, Note_on_c, 12, 67, 0
19, 58140, Note_on_c, 12, 66, 84
19, 58191, Note_on_c, 12, 66, 0
19, 58200, Note_on_c, 12, 64, 84
19, 58251, Note_on_c, 12, 64, 0
19, 58260, Note_on_c, 12, 62, 84
19, 58311, Note_on_c, 12, 62, 0
19, 58320, Note_on_c, 12, 60, 84
19, 58371, Note_on_c, 12, 60, 0
19, 58380, Note_on_c, 12, 59, 84
19, 58431, Note_on_c, 12, 59, 0
19, 58440, Note_on_c, 12, 57, 84
19, 58491, Note_on_c, 12, 57, 0
19, 58500, Note_on_c, 12, 55, 84
19, 58551, Note_on_c, 12, 55, 0
19, 58560, Note_on_c, 12, 69, 84
19, 58739, Note_on_c, 12, 69, 0
19, 59520, Note_on_c, 12, 69, 84
19, 59520, Note_on_c, 12, 62, 84
19, 59520, Note_on_c, 12, 66, 84
19, 59699, Note_on_c, 12, 69, 0
19, 59699, Note_on_c, 12, 62, 0
19, 59699, Note_on_c, 12, 66, 0
19, 60960, Note_on_c, 12, 63, 76
19, 61019, Note_on_c, 12, 63, 0
19, 61020, Note_on_c, 12, 63, 52
19, 61439, Note_on_c, 12, 63, 0
19, 61440, Note_on_c, 12, 64, 52
19, 61679, Note_on_c, 12, 64, 0
19, 62880, Note_on_c, 12, 63, 76
19, 62939, Note_on_c, 12, 63, 0
19, 62940, Note_on_c, 12, 63, 52
19, 63359, Note_on_c, 12, 63, 0
19, 63360, Note_on_c, 12, 64, 52
19, 63599, Note_on_c, 12, 64, 0
19, 64800, Note_on_c, 12, 68, 76
19, 64859, Note_on_c, 12, 68, 0
19, 64860, Note_on_c, 12, 68, 52
19, 65279, Note_on_c, 12, 68, 0
19, 65280, Note_on_c, 12, 69, 52
19, 65519, Note_on_c, 12, 69, 0
19, 68160, Note_on_c, 12, 67, 76
19, 68211, Note_on_c, 12, 67, 0
19, 68220, Note_on_c, 12, 67, 76
19, 68271, Note_on_c, 12, 67, 0
19, 68280, Note_on_c, 12, 67, 76
19, 68331, Note_on_c, 12, 67, 0
19, 68340, Note_on_c, 12, 67, 76
19, 68391, Note_on_c, 12, 67, 0
19, 68400, Note_on_c, 12, 67, 76
19, 68451, Note_on_c, 12, 67, 0
19, 68460, Note_on_c, 12, 67, 76
19, 68511, Note_on_c, 12, 67, 0
19, 68520, Note_on_c, 12, 67, 76
19, 68571, Note_on_c, 12, 67, 0
19, 68580, Note_on_c, 12, 67, 76
19, 68631, Note_on_c, 12, 67, 0
19, 68640, Note_on_c, 12, 67, 76
19, 68691, Note_on_c, 12, 67, 0
19, 68700, Note_on_c, 12, 67, 76
19, 68751, Note_on_c, 12, 67, 0
19, 68760, Note_on_c, 12, 67, 76
19, 68811, Note_on_c, 12, 67, 0
19, 68820, Note_on_c, 12, 67, 76
19, 68871, Note_on_c, 12, 67, 0
19, 68880, Note_on_c, 12, 66, 76
19, 68931, Note_on_c, 12, 66, 0
19, 68940, Note_on_c, 12, 66, 76
19, 68991, Note_on_c, 12, 66, 0
19, 69000, Note_on_c, 12, 66, 76
19, 69051, Note_on_c, 12, 66, 0
19, 69060, Note_on_c, 12, 66, 76
19, 69111, Note_on_c, 12, 66, 0
19, 69120, Note_on_c, 12, 64, 76
19, 69171, Note_on_c, 12, 64, 0
19, 69180, Note_on_c, 12, 64, 76
19, 69231, Note_on_c, 12, 64, 0
19, 69240, Note_on_c, 12, 64, 76
19, 69291, Note_on_c, 12, 64, 0
19, 69300, Note_on_c, 12, 64, 76
19, 69351, Note_on_c, 12, 64, 0
19, 69360, Note_on_c, 12, 62, 76
19, 69411, Note_on_c, 12, 62, 0
19, 69420, Note_on_c, 12, 62, 76
19, 69471, Note_on_c, 12, 62, 0
19, 69480, Note_on_c, 12, 62, 76
19, 69531, Note_on_c, 12, 62, 0
19, 69540, Note_on_c, 12, 62, 76
19, 69591, Note_on_c, 12, 62, 0
19, 69600, Note_on_c, 12, 62, 76
19, 69651, Note_on_c, 12, 62, 0
19, 69660, Note_on_c, 12, 62, 76
19, 69711, Note_on_c, 12, 62, 0
19, 69720, Note_on_c, 12, 62, 76
19, 69771, Note_on_c, 12, 62, 0
19, 69780, Note_on_c, 12, 62, 76
19, 69831, Note_on_c, 12, 62, 0
19, 69840, Note_on_c, 12, 62, 76
19, 69891, Note_on_c, 12, 62, 0
19, 69900, Note_on_c, 12, 62, 76
19, 69951, Note_on_c, 12, 62, 0
19, 69960, Note_on_c, 12, 62, 76
19, 70011, Note_on_c, 12, 62, 0
19, 70020, Note_on_c, 12, 62, 76
19, 70071, Note_on_c, 12, 62, 0
19, 70080, Note_on_c, 12, 67, 84
19, 70131, Note_on_c, 12, 67, 0
19, 70140, Note_on_c, 12, 67, 76
19, 70191, Note_on_c, 12, 67, 0
19, 70200, Note_on_c, 12, 67, 76
19, 70251, Note_on_c, 12, 67, 0
19, 70260, Note_on_c, 12, 67, 76
19, 70311, Note_on_c, 12, 67, 0
19, 70320, Note_on_c, 12, 67, 76
19, 70371, Note_on_c, 12, 67, 0
19, 70380, Note_on_c, 12, 67, 76
19, 70431, Note_on_c, 12, 67, 0
19, 70440, Note_on_c, 12, 67, 76
19, 70491, Note_on_c, 12, 67, 0
19, 70500, Note_on_c, 12, 67, 76
19, 70551, Note_on_c, 12, 67, 0
19, 70560, Note_on_c, 12, 67, 76
19, 70611, Note_on_c, 12, 67, 0
19, 70620, Note_on_c, 12, 67, 76
19, 70671, Note_on_c, 12, 67, 0
19, 70680, Note_on_c, 12, 67, 76
19, 70731, Note_on_c, 12, 67, 0
19, 70740, Note_on_c, 12, 67, 76
19, 70791, Note_on_c, 12, 67, 0
19, 70800, Note_on_c, 12, 66, 76
19, 70851, Note_on_c, 12, 66, 0
19, 70860, Note_on_c, 12, 66, 76
19, 70911, Note_on_c, 12, 66, 0
19, 70920, Note_on_c, 12, 66, 76
19, 70971, Note_on_c, 12, 66, 0
19, 70980, Note_on_c, 12, 66, 76
19, 71031, Note_on_c, 12, 66, 0
19, 71040, Note_on_c, 12, 64, 76
19, 71091, Note_on_c, 12, 64, 0
19, 71100, Note_on_c, 12, 64, 76
19, 71151, Note_on_c, 12, 64, 0
19, 71160, Note_on_c, 12, 64, 76
19, 71211, Note_on_c, 12, 64, 0
19, 71220, Note_on_c, 12, 64, 76
19, 71271, Note_on_c, 12, 64, 0
19, 71280, Note_on_c, 12, 62, 76
19, 71331, Note_on_c, 12, 62, 0
19, 71340, Note_on_c, 12, 62, 76
19, 71391, Note_on_c, 12, 62, 0
19, 71400, Note_on_c, 12, 62, 76
19, 71451, Note_on_c, 12, 62, 0
19, 71460, Note_on_c, 12, 62, 76
19, 71511, Note_on_c, 12, 62, 0
19, 71520, Note_on_c, 12, 62, 76
19, 71571, Note_on_c, 12, 62, 0
19, 71580, Note_on_c, 12, 62, 76
19, 71631, Note_on_c, 12, 62, 0
19, 71640, Note_on_c, 12, 62, 76
19, 71691, Note_on_c, 12, 62, 0
19, 71700, Note_on_c, 12, 62, 76
19, 71751, Note_on_c, 12, 62, 0
19, 71760, Note_on_c, 12, 62, 76
19, 71811, Note_on_c, 12, 62, 0
19, 71820, Note_on_c, 12, 62, 76
19, 71871, Note_on_c, 12, 62, 0
19, 71880, Note_on_c, 12, 62, 76
19, 71931, Note_on_c, 12, 62, 0
19, 71940, Note_on_c, 12, 62, 76
19, 71991, Note_on_c, 12, 62, 0
19, 72000, Note_on_c, 12, 72, 84
19, 72051, Note_on_c, 12, 72, 0
19, 72060, Note_on_c, 12, 72, 76
19, 72111, Note_on_c, 12, 72, 0
19, 72120, Note_on_c, 12, 72, 76
19, 72171, Note_on_c, 12, 72, 0
19, 72180, Note_on_c, 12, 72, 76
19, 72231, Note_on_c, 12, 72, 0
19, 72240, Note_on_c, 12, 72, 76
19, 72291, Note_on_c, 12, 72, 0
19, 72300, Note_on_c, 12, 72, 76
19, 72351, Note_on_c, 12, 72, 0
19, 72360, Note_on_c, 12, 72, 76
19, 72411, Note_on_c, 12, 72, 0
19, 72420, Note_on_c, 12, 72, 76
19, 72471, Note_on_c, 12, 72, 0
19, 72480, Note_on_c, 12, 72, 76
19, 72531, Note_on_c, 12, 72, 0
19, 72540, Note_on_c, 12, 72, 76
19, 72591, Note_on_c, 12, 72, 0
19, 72600, Note_on_c, 12, 72, 76
19, 72651, Note_on_c, 12, 72, 0
19, 72660, Note_on_c, 12, 72, 76
19, 72711, Note_on_c, 12, 72, 0
19, 72720, Note_on_c, 12, 71, 76
19, 72771, Note_on_c, 12, 71, 0
19, 72780, Note_on_c, 12, 71, 76
19, 72831, Note_on_c, 12, 71, 0
19, 72840, Note_on_c, 12, 71, 76
19, 72891, Note_on_c, 12, 71, 0
19, 72900, Note_on_c, 12, 71, 76
19, 72951, Note_on_c, 12, 71, 0
19, 72960, Note_on_c, 12, 69, 76
19, 73011, Note_on_c, 12, 69, 0
19, 73020, Note_on_c, 12, 69, 76
19, 73071, Note_on_c, 12, 69, 0
19, 73080, Note_on_c, 12, 69, 76
19, 73131, Note_on_c, 12, 69, 0
19, 73140, Note_on_c, 12, 69, 76
19, 73191, Note_on_c, 12, 69, 0
19, 73200, Note_on_c, 12, 68, 80
19, 73251, Note_on_c, 12, 68, 0
19, 73260, Note_on_c, 12, 68, 80
19, 73311, Note_on_c, 12, 68, 0
19, 73320, Note_on_c, 12, 68, 80
19, 73371, Note_on_c, 12, 68, 0
19, 73380, Note_on_c, 12, 68, 80
19, 73431, Note_on_c, 12, 68, 0
19, 73440, Note_on_c, 12, 68, 80
19, 73491, Note_on_c, 12, 68, 0
19, 73500, Note_on_c, 12, 68, 80
19, 73551, Note_on_c, 12, 68, 0
19, 73560, Note_on_c, 12, 68, 80
19, 73611, Note_on_c, 12, 68, 0
19, 73620, Note_on_c, 12, 68, 80
19, 73671, Note_on_c, 12, 68, 0
19, 73680, Note_on_c, 12, 68, 80
19, 73731, Note_on_c, 12, 68, 0
19, 73740, Note_on_c, 12, 68, 80
19, 73791, Note_on_c, 12, 68, 0
19, 73800, Note_on_c, 12, 68, 80
19, 73851, Note_on_c, 12, 68, 0
19, 73860, Note_on_c, 12, 68, 80
19, 73911, Note_on_c, 12, 68, 0
19, 73920, Note_on_c, 12, 68, 80
19, 73971, Note_on_c, 12, 68, 0
19, 73980, Note_on_c, 12, 68, 80
19, 74031, Note_on_c, 12, 68, 0
19, 74040, Note_on_c, 12, 68, 80
19, 74091, Note_on_c, 12, 68, 0
19, 74100, Note_on_c, 12, 68, 80
19, 74151, Note_on_c, 12, 68, 0
19, 74160, Note_on_c, 12, 68, 80
19, 74211, Note_on_c, 12, 68, 0
19, 74220, Note_on_c, 12, 68, 80
19, 74271, Note_on_c, 12, 68, 0
19, 74280, Note_on_c, 12, 68, 80
19, 74331, Note_on_c, 12, 68, 0
19, 74340, Note_on_c, 12, 68, 80
19, 74391, Note_on_c, 12, 68, 0
19, 74400, Note_on_c, 12, 68, 80
19, 74451, Note_on_c, 12, 68, 0
19, 74460, Note_on_c, 12, 68, 80
19, 74511, Note_on_c, 12, 68, 0
19, 74520, Note_on_c, 12, 68, 80
19, 74571, Note_on_c, 12, 68, 0
19, 74580, Note_on_c, 12, 68, 80
19, 74631, Note_on_c, 12, 68, 0
19, 74640, Note_on_c, 12, 68, 80
19, 74691, Note_on_c, 12, 68, 0
19, 74700, Note_on_c, 12, 68, 80
19, 74751, Note_on_c, 12, 68, 0
19, 74760, Note_on_c, 12, 68, 80
19, 74811, Note_on_c, 12, 68, 0
19, 74820, Note_on_c, 12, 68, 80
19, 74871, Note_on_c, 12, 68, 0
19, 74880, Note_on_c, 12, 68, 80
19, 74931, Note_on_c, 12, 68, 0
19, 74940, Note_on_c, 12, 68, 80
19, 74991, Note_on_c, 12, 68, 0
19, 75000, Note_on_c, 12, 68, 80
19, 75051, Note_on_c, 12, 68, 0
19, 75060, Note_on_c, 12, 68, 80
19, 75111, Note_on_c, 12, 68, 0
19, 75120, Note_on_c, 12, 80, 80
19, 75171, Note_on_c, 12, 80, 0
19, 75180, Note_on_c, 12, 80, 80
19, 75231, Note_on_c, 12, 80, 0
19, 75240, Note_on_c, 12, 80, 80
19, 75291, Note_on_c, 12, 80, 0
19, 75300, Note_on_c, 12, 80, 80
19, 75351, Note_on_c, 12, 80, 0
19, 75360, Note_on_c, 12, 80, 80
19, 75411, Note_on_c, 12, 80, 0
19, 75420, Note_on_c, 12, 80, 80
19, 75471, Note_on_c, 12, 80, 0
19, 75480, Note_on_c, 12, 80, 80
19, 75531, Note_on_c, 12, 80, 0
19, 75540, Note_on_c, 12, 80, 80
19, 75591, Note_on_c, 12, 80, 0
19, 75600, Note_on_c, 12, 80, 80
19, 75651, Note_on_c, 12, 80, 0
19, 75660, Note_on_c, 12, 80, 80
19, 75711, Note_on_c, 12, 80, 0
19, 75720, Note_on_c, 12, 80, 80
19, 75771, Note_on_c, 12, 80, 0
19, 75780, Note_on_c, 12, 80, 80
19, 75831, Note_on_c, 12, 80, 0
19, 75840, Note_on_c, 12, 80, 84
19, 76799, Note_on_c, 12, 80, 0
19, 76800, Note_on_c, 12, 80, 84
19, 77744, Note_on_c, 12, 80, 0
19, 77760, Note_on_c, 12, 59, 84
19, 77849, Note_on_c, 12, 59, 0
19, 77880, Note_on_c, 12, 55, 84
19, 77969, Note_on_c, 12, 55, 0
19, 78000, Note_on_c, 12, 59, 84
19, 78119, Note_on_c, 12, 59, 0
19, 78120, Note_on_c, 12, 55, 84
19, 78224, Note_on_c, 12, 55, 0
19, 78240, Note_on_c, 12, 59, 84
19, 78329, Note_on_c, 12, 59, 0
19, 78360, Note_on_c, 12, 55, 84
19, 78449, Note_on_c, 12, 55, 0
19, 78480, Note_on_c, 12, 59, 84
19, 78599, Note_on_c, 12, 59, 0
19, 78600, Note_on_c, 12, 55, 84
19, 78704, Note_on_c, 12, 55, 0
19, 78720, Note_on_c, 12, 59, 84
19, 78839, Note_on_c, 12, 59, 0
19, 78840, Note_on_c, 12, 55, 84
19, 78944, Note_on_c, 12, 55, 0
19, 78960, Note_on_c, 12, 62, 84
19, 79079, Note_on_c, 12, 62, 0
19, 79080, Note_on_c, 12, 59, 84
19, 79184, Note_on_c, 12, 59, 0
19, 79200, Note_on_c, 12, 62, 84
19, 79289, Note_on_c, 12, 62, 0
19, 79320, Note_on_c, 12, 59, 84
19, 79409, Note_on_c, 12, 59, 0
19, 79440, Note_on_c, 12, 65, 84
19, 79559, Note_on_c, 12, 65, 0
19, 79560, Note_on_c, 12, 62, 84
19, 79664, Note_on_c, 12, 62, 0
19, 79680, Note_on_c, 12, 65, 84
19, 79769, Note_on_c, 12, 65, 0
19, 79800, Note_on_c, 12, 62, 84
19, 79889, Note_on_c, 12, 62, 0
19, 79920, Note_on_c, 12, 71, 84
19, 80009, Note_on_c, 12, 71, 0
19, 80040, Note_on_c, 12, 65, 84
19, 80129, Note_on_c, 12, 65, 0
19, 80160, Note_on_c, 12, 74, 84
19, 80249, Note_on_c, 12, 74, 0
19, 80280, Note_on_c, 12, 71, 84
19, 80369, Note_on_c, 12, 71, 0
19, 80400, Note_on_c, 12, 77, 84
19, 80489, Note_on_c, 12, 77, 0
19, 80520, Note_on_c, 12, 74, 84
19, 80609, Note_on_c, 12, 74, 0
19, 80640, Note_on_c, 12, 83, 84
19, 80729, Note_on_c, 12, 83, 0
19, 80760, Note_on_c, 12, 77, 84
19, 80849, Note_on_c, 12, 77, 0
19, 80880, Note_on_c, 12, 86, 84
19, 81119, Note_on_c, 12, 86, 0
19, 81360, Note_on_c, 12, 55, 84
19, 81360, Note_on_c, 12, 62, 84
19, 81360, Note_on_c, 12, 71, 84
19, 81584, Note_on_c, 12, 55, 0
19, 81584, Note_on_c, 12, 62, 0
19, 81584, Note_on_c, 12, 71, 0
19, 81600, Note_on_c, 12, 55, 84
19, 81600, Note_on_c, 12, 64, 84
19, 81600, Note_on_c, 12, 72, 84
19, 81839, Note_on_c, 12, 55, 0
19, 81839, Note_on_c, 12, 64, 0
19, 81839, Note_on_c, 12, 72, 0
19, 82080, Note_on_c, 12, 72, 84
19, 82080, Note_on_c, 12, 64, 84
19, 82080, Note_on_c, 12, 55, 84
19, 82080, Note_on_c, 12, 76, 84
19, 82319, Note_on_c, 12, 72, 0
19, 82319, Note_on_c, 12, 64, 0
19, 82319, Note_on_c, 12, 55, 0
19, 82319, Note_on_c, 12, 76, 0
19, 82560, Note_on_c, 12, 55, 84
19, 82560, Note_on_c, 12, 72, 84
19, 82560, Note_on_c, 12, 64, 84
19, 82560, Note_on_c, 12, 79, 84
19, 82799, Note_on_c, 12, 55, 0
19, 82799, Note_on_c, 12, 72, 0
19, 82799, Note_on_c, 12, 64, 0
19, 83264, Note_on_c, 12, 79, 0
19, 83280, Note_on_c, 12, 77, 84
19, 83280, Note_on_c, 12, 62, 84
19, 83280, Note_on_c, 12, 55, 84
19, 83280, Note_on_c, 12, 71, 84
19, 83399, Note_on_c, 12, 77, 0
19, 83399, Note_on_c, 12, 62, 0
19, 83399, Note_on_c, 12, 55, 0
19, 83399, Note_on_c, 12, 71, 0
19, 83520, Note_on_c, 12, 76, 84
19, 83520, Note_on_c, 12, 55, 84
19, 83520, Note_on_c, 12, 72, 84
19, 83520, Note_on_c, 12, 64, 84
19, 83639, Note_on_c, 12, 76, 0
19, 83639, Note_on_c, 12, 55, 0
19, 83639, Note_on_c, 12, 72, 0
19, 83639, Note_on_c, 12, 64, 0
19, 83760, Note_on_c, 12, 74, 84
19, 83760, Note_on_c, 12, 65, 84
19, 83760, Note_on_c, 12, 55, 84
19, 83879, Note_on_c, 12, 74, 0
19, 83879, Note_on_c, 12, 65, 0
19, 83879, Note_on_c, 12, 55, 0
19, 84000, Note_on_c, 12, 72, 84
19, 84000, Note_on_c, 12, 55, 84
19, 84000, Note_on_c, 12, 64, 84
19, 84119, Note_on_c, 12, 72, 0
19, 84119, Note_on_c, 12, 55, 0
19, 84119, Note_on_c, 12, 64, 0
19, 84240, Note_on_c, 12, 74, 84
19, 84240, Note_on_c, 12, 55, 84
19, 84240, Note_on_c, 12, 65, 84
19, 84359, Note_on_c, 12, 74, 0
19, 84359, Note_on_c, 12, 55, 0
19, 84359, Note_on_c, 12, 65, 0
19, 84480, Note_on_c, 12, 72, 84
19, 84480, Note_on_c, 12, 55, 84
19, 84480, Note_on_c, 12, 64, 84
19, 84531, Note_on_c, 12, 72, 0
19, 84531, Note_on_c, 12, 55, 0
19, 84531, Note_on_c, 12, 64, 0
19, 84540, Note_on_c, 12, 60, 84
19, 84591, Note_on_c, 12, 60, 0
19, 84600, Note_on_c, 12, 60, 84
19, 84651, Note_on_c, 12, 60, 0
19, 84660, Note_on_c, 12, 60, 84
19, 84711, Note_on_c, 12, 60, 0
19, 84720, Note_on_c, 12, 60, 84
19, 84771, Note_on_c, 12, 60, 0
19, 84780, Note_on_c, 12, 60, 84
19, 84831, Note_on_c, 12, 60, 0
19, 84840, Note_on_c, 12, 60, 84
19, 84891, Note_on_c, 12, 60, 0
19, 84900, Note_on_c, 12, 60, 84
19, 84951, Note_on_c, 12, 60, 0
19, 84960, Note_on_c, 12, 60, 84
19, 85011, Note_on_c, 12, 60, 0
19, 85020, Note_on_c, 12, 60, 84
19, 85071, Note_on_c, 12, 60, 0
19, 85080, Note_on_c, 12, 60, 84
19, 85131, Note_on_c, 12, 60, 0
19, 85140, Note_on_c, 12, 60, 84
19, 85191, Note_on_c, 12, 60, 0
19, 85200, Note_on_c, 12, 60, 84
19, 85251, Note_on_c, 12, 60, 0
19, 85260, Note_on_c, 12, 60, 84
19, 85311, Note_on_c, 12, 60, 0
19, 85320, Note_on_c, 12, 60, 84
19, 85371, Note_on_c, 12, 60, 0
19, 85380, Note_on_c, 12, 60, 84
19, 85431, Note_on_c, 12, 60, 0
19, 85440, Note_on_c, 12, 59, 84
19, 85440, Note_on_c, 12, 62, 84
19, 85491, Note_on_c, 12, 59, 0
19, 85491, Note_on_c, 12, 62, 0
19, 85500, Note_on_c, 12, 62, 84
19, 85500, Note_on_c, 12, 59, 84
19, 85551, Note_on_c, 12, 62, 0
19, 85551, Note_on_c, 12, 59, 0
19, 85560, Note_on_c, 12, 59, 84
19, 85560, Note_on_c, 12, 62, 84
19, 85611, Note_on_c, 12, 59, 0
19, 85611, Note_on_c, 12, 62, 0
19, 85620, Note_on_c, 12, 62, 84
19, 85620, Note_on_c, 12, 59, 84
19, 85671, Note_on_c, 12, 62, 0
19, 85671, Note_on_c, 12, 59, 0
19, 85680, Note_on_c, 12, 62, 84
19, 85680, Note_on_c, 12, 59, 84
19, 85731, Note_on_c, 12, 62, 0
19, 85731, Note_on_c, 12, 59, 0
19, 85740, Note_on_c, 12, 59, 84
19, 85740, Note_on_c, 12, 62, 84
19, 85791, Note_on_c, 12, 59, 0
19, 85791, Note_on_c, 12, 62, 0
19, 85800, Note_on_c, 12, 59, 84
19, 85800, Note_on_c, 12, 62, 84
19, 85851, Note_on_c, 12, 59, 0
19, 85851, Note_on_c, 12, 62, 0
19, 85860, Note_on_c, 12, 62, 84
19, 85860, Note_on_c, 12, 59, 84
19, 85911, Note_on_c, 12, 62, 0
19, 85911, Note_on_c, 12, 59, 0
19, 85920, Note_on_c, 12, 62, 84
19, 85920, Note_on_c, 12, 59, 84
19, 85971, Note_on_c, 12, 62, 0
19, 85971, Note_on_c, 12, 59, 0
19, 85980, Note_on_c, 12, 59, 84
19, 85980, Note_on_c, 12, 62, 84
19, 86031, Note_on_c, 12, 59, 0
19, 86031, Note_on_c, 12, 62, 0
19, 86040, Note_on_c, 12, 62, 84
19, 86040, Note_on_c, 12, 59, 84
19, 86091, Note_on_c, 12, 62, 0
19, 86091, Note_on_c, 12, 59, 0
19, 86100, Note_on_c, 12, 62, 84
19, 86100, Note_on_c, 12, 59, 84
19, 86151, Note_on_c, 12, 62, 0
19, 86151, Note_on_c, 12, 59, 0
19, 86160, Note_on_c, 12, 59, 84
19, 86160, Note_on_c, 12, 62, 84
19, 86211, Note_on_c, 12, 59, 0
19, 86211, Note_on_c, 12, 62, 0
19, 86220, Note_on_c, 12, 59, 84
19, 86220, Note_on_c, 12, 62, 84
19, 86271, Note_on_c, 12, 59, 0
19, 86271, Note_on_c, 12, 62, 0
19, 86280, Note_on_c, 12, 59, 84
19, 86280, Note_on_c, 12, 62, 84
19, 86331, Note_on_c, 12, 59, 0
19, 86331, Note_on_c, 12, 62, 0
19, 86340, Note_on_c, 12, 59, 84
19, 86340, Note_on_c, 12, 62, 84
19, 86391, Note_on_c, 12, 59, 0
19, 86391, Note_on_c, 12, 62, 0
19, 86400, Note_on_c, 12, 60, 84
19, 86400, Note_on_c, 12, 64, 84
19, 86451, Note_on_c, 12, 60, 0
19, 86451, Note_on_c, 12, 64, 0
19, 86460, Note_on_c, 12, 60, 84
19, 86460, Note_on_c, 12, 64, 84
19, 86511, Note_on_c, 12, 60, 0
19, 86511, Note_on_c, 12, 64, 0
19, 86520, Note_on_c, 12, 64, 84
19, 86520, Note_on_c, 12, 60, 84
19, 86571, Note_on_c, 12, 64, 0
19, 86571, Note_on_c, 12, 60, 0
19, 86580, Note_on_c, 12, 60, 84
19, 86580, Note_on_c, 12, 64, 84
19, 86631, Note_on_c, 12, 60, 0
19, 86631, Note_on_c, 12, 64, 0
19, 86640, Note_on_c, 12, 64, 84
19, 86640, Note_on_c, 12, 60, 84
19, 86691, Note_on_c, 12, 64, 0
19, 86691, Note_on_c, 12, 60, 0
19, 86700, Note_on_c, 12, 64, 84
19, 86700, Note_on_c, 12, 60, 84
19, 86751, Note_on_c, 12, 64, 0
19, 86751, Note_on_c, 12, 60, 0
19, 86760, Note_on_c, 12, 60, 84
19, 86760, Note_on_c, 12, 64, 84
19, 86811, Note_on_c, 12, 60, 0
19, 86811, Note_on_c, 12, 64, 0
19, 86820, Note_on_c, 12, 60, 84
19, 86820, Note_on_c, 12, 64, 84
19, 86871, Note_on_c, 12, 60, 0
19, 86871, Note_on_c, 12, 64, 0
19, 86880, Note_on_c, 12, 64, 84
19, 86880, Note_on_c, 12, 60, 84
19, 86931, Note_on_c, 12, 64, 0
19, 86931, Note_on_c, 12, 60, 0
19, 86940, Note_on_c, 12, 64, 84
19, 86940, Note_on_c, 12, 60, 84
19, 86991, Note_on_c, 12, 64, 0
19, 86991, Note_on_c, 12, 60, 0
19, 87000, Note_on_c, 12, 64, 84
19, 87000, Note_on_c, 12, 60, 84
19, 87051, Note_on_c, 12, 64, 0
19, 87051, Note_on_c, 12, 60, 0
19, 87060, Note_on_c, 12, 60, 84
19, 87060, Note_on_c, 12, 64, 84
19, 87111, Note_on_c, 12, 60, 0
19, 87111, Note_on_c, 12, 64, 0
19, 87120, Note_on_c, 12, 64, 84
19, 87120, Note_on_c, 12, 60, 84
19, 87171, Note_on_c, 12, 64, 0
19, 87171, Note_on_c, 12, 60, 0
19, 87180, Note_on_c, 12, 64, 84
19, 87180, Note_on_c, 12, 60, 84
19, 87231, Note_on_c, 12, 64, 0
19, 87231, Note_on_c, 12, 60, 0
19, 87240, Note_on_c, 12, 64, 84
19, 87240, Note_on_c, 12, 60, 84
19, 87291, Note_on_c, 12, 64, 0
19, 87291, Note_on_c, 12, 60, 0
19, 87300, Note_on_c, 12, 64, 84
19, 87300, Note_on_c, 12, 60, 84
19, 87351, Note_on_c, 12, 64, 0
19, 87351, Note_on_c, 12, 60, 0
19, 87360, Note_on_c, 12, 60, 84
19, 87360, Note_on_c, 12, 65, 84
19, 87411, Note_on_c, 12, 60, 0
19, 87411, Note_on_c, 12, 65, 0
19, 87420, Note_on_c, 12, 65, 84
19, 87420, Note_on_c, 12, 60, 84
19, 87471, Note_on_c, 12, 65, 0
19, 87471, Note_on_c, 12, 60, 0
19, 87480, Note_on_c, 12, 65, 84
19, 87480, Note_on_c, 12, 60, 84
19, 87531, Note_on_c, 12, 65, 0
19, 87531, Note_on_c, 12, 60, 0
19, 87540, Note_on_c, 12, 65, 84
19, 87540, Note_on_c, 12, 60, 84
19, 87591, Note_on_c, 12, 65, 0
19, 87591, Note_on_c, 12, 60, 0
19, 87600, Note_on_c, 12, 60, 84
19, 87600, Note_on_c, 12, 65, 84
19, 87651, Note_on_c, 12, 60, 0
19, 87651, Note_on_c, 12, 65, 0
19, 87660, Note_on_c, 12, 65, 84
19, 87660, Note_on_c, 12, 60, 84
19, 87711, Note_on_c, 12, 65, 0
19, 87711, Note_on_c, 12, 60, 0
19, 87720, Note_on_c, 12, 60, 84
19, 87720, Note_on_c, 12, 65, 84
19, 87771, Note_on_c, 12, 60, 0
19, 87771, Note_on_c, 12, 65, 0
19, 87780, Note_on_c, 12, 60, 84
19, 87780, Note_on_c, 12, 65, 84
19, 87831, Note_on_c, 12, 60, 0
19, 87831, Note_on_c, 12, 65, 0
19, 87840, Note_on_c, 12, 65, 84
19, 87840, Note_on_c, 12, 60, 84
19, 87891, Note_on_c, 12, 65, 0
19, 87891, Note_on_c, 12, 60, 0
19, 87900, Note_on_c, 12, 60, 84
19, 87900, Note_on_c, 12, 65, 84
19, 87951, Note_on_c, 12, 60, 0
19, 87951, Note_on_c, 12, 65, 0
19, 87960, Note_on_c, 12, 60, 84
19, 87960, Note_on_c, 12, 65, 84
19, 88011, Note_on_c, 12, 60, 0
19, 88011, Note_on_c, 12, 65, 0
19, 88020, Note_on_c, 12, 65, 84
19, 88020, Note_on_c, 12, 60, 84
19, 88071, Note_on_c, 12, 65, 0
19, 88071, Note_on_c, 12, 60, 0
19, 88080, Note_on_c, 12, 60, 84
19, 88080, Note_on_c, 12, 65, 84
19, 88131, Note_on_c, 12, 60, 0
19, 88131, Note_on_c, 12, 65, 0
19, 88140, Note_on_c, 12, 65, 84
19, 88140, Note_on_c, 12, 60, 84
19, 88191, Note_on_c, 12, 65, 0
19, 88191, Note_on_c, 12, 60, 0
19, 88200, Note_on_c, 12, 65, 84
19, 88200, Note_on_c, 12, 60, 84
19, 88251, Note_on_c, 12, 65, 0
19, 88251, Note_on_c, 12, 60, 0
19, 88260, Note_on_c, 12, 65, 84
19, 88260, Note_on_c, 12, 60, 84
19, 88311, Note_on_c, 12, 65, 0
19, 88311, Note_on_c, 12, 60, 0
19, 88320, Note_on_c, 12, 67, 84
19, 88320, Note_on_c, 12, 60, 84
19, 88371, Note_on_c, 12, 67, 0
19, 88371, Note_on_c, 12, 60, 0
19, 88380, Note_on_c, 12, 60, 84
19, 88380, Note_on_c, 12, 67, 84
19, 88431, Note_on_c, 12, 60, 0
19, 88431, Note_on_c, 12, 67, 0
19, 88440, Note_on_c, 12, 60, 84
19, 88440, Note_on_c, 12, 67, 84
19, 88491, Note_on_c, 12, 60, 0
19, 88491, Note_on_c, 12, 67, 0
19, 88500, Note_on_c, 12, 60, 84
19, 88500, Note_on_c, 12, 67, 84
19, 88551, Note_on_c, 12, 60, 0
19, 88551, Note_on_c, 12, 67, 0
19, 88560, Note_on_c, 12, 67, 84
19, 88560, Note_on_c, 12, 60, 84
19, 88611, Note_on_c, 12, 67, 0
19, 88611, Note_on_c, 12, 60, 0
19, 88620, Note_on_c, 12, 60, 84
19, 88620, Note_on_c, 12, 67, 84
19, 88671, Note_on_c, 12, 60, 0
19, 88671, Note_on_c, 12, 67, 0
19, 88680, Note_on_c, 12, 60, 84
19, 88680, Note_on_c, 12, 67, 84
19, 88731, Note_on_c, 12, 60, 0
19, 88731, Note_on_c, 12, 67, 0
19, 88740, Note_on_c, 12, 60, 84
19, 88740, Note_on_c, 12, 67, 84
19, 88791, Note_on_c, 12, 60, 0
19, 88791, Note_on_c, 12, 67, 0
19, 88800, Note_on_c, 12, 64, 84
19, 88800, Note_on_c, 12, 60, 84
19, 88851, Note_on_c, 12, 64, 0
19, 88851, Note_on_c, 12, 60, 0
19, 88860, Note_on_c, 12, 60, 84
19, 88860, Note_on_c, 12, 64, 84
19, 88911, Note_on_c, 12, 60, 0
19, 88911, Note_on_c, 12, 64, 0
19, 88920, Note_on_c, 12, 60, 84
19, 88920, Note_on_c, 12, 64, 84
19, 88971, Note_on_c, 12, 60, 0
19, 88971, Note_on_c, 12, 64, 0
19, 88980, Note_on_c, 12, 60, 84
19, 88980, Note_on_c, 12, 64, 84
19, 89031, Note_on_c, 12, 60, 0
19, 89031, Note_on_c, 12, 64, 0
19, 89040, Note_on_c, 12, 64, 84
19, 89040, Note_on_c, 12, 60, 84
19, 89091, Note_on_c, 12, 64, 0
19, 89091, Note_on_c, 12, 60, 0
19, 89100, Note_on_c, 12, 64, 84
19, 89100, Note_on_c, 12, 60, 84
19, 89151, Note_on_c, 12, 64, 0
19, 89151, Note_on_c, 12, 60, 0
19, 89160, Note_on_c, 12, 60, 84
19, 89160, Note_on_c, 12, 64, 84
19, 89211, Note_on_c, 12, 60, 0
19, 89211, Note_on_c, 12, 64, 0
19, 89220, Note_on_c, 12, 64, 84
19, 89220, Note_on_c, 12, 60, 84
19, 89271, Note_on_c, 12, 64, 0
19, 89271, Note_on_c, 12, 60, 0
19, 89280, Note_on_c, 12, 65, 84
19, 89280, Note_on_c, 12, 60, 84
19, 89331, Note_on_c, 12, 65, 0
19, 89331, Note_on_c, 12, 60, 0
19, 89340, Note_on_c, 12, 60, 84
19, 89340, Note_on_c, 12, 65, 84
19, 89391, Note_on_c, 12, 60, 0
19, 89391, Note_on_c, 12, 65, 0
19, 89400, Note_on_c, 12, 60, 84
19, 89400, Note_on_c, 12, 65, 84
19, 89451, Note_on_c, 12, 60, 0
19, 89451, Note_on_c, 12, 65, 0
19, 89460, Note_on_c, 12, 65, 84
19, 89460, Note_on_c, 12, 60, 84
19, 89511, Note_on_c, 12, 65, 0
19, 89511, Note_on_c, 12, 60, 0
19, 89520, Note_on_c, 12, 65, 84
19, 89520, Note_on_c, 12, 60, 84
19, 89571, Note_on_c, 12, 65, 0
19, 89571, Note_on_c, 12, 60, 0
19, 89580, Note_on_c, 12, 65, 84
19, 89580, Note_on_c, 12, 60, 84
19, 89631, Note_on_c, 12, 65, 0
19, 89631, Note_on_c, 12, 60, 0
19, 89640, Note_on_c, 12, 65, 84
19, 89640, Note_on_c, 12, 60, 84
19, 89691, Note_on_c, 12, 65, 0
19, 89691, Note_on_c, 12, 60, 0
19, 89700, Note_on_c, 12, 60, 84
19, 89700, Note_on_c, 12, 65, 84
19, 89751, Note_on_c, 12, 60, 0
19, 89751, Note_on_c, 12, 65, 0
19, 89760, Note_on_c, 12, 65, 84
19, 89760, Note_on_c, 12, 60, 84
19, 89811, Note_on_c, 12, 65, 0
19, 89811, Note_on_c, 12, 60, 0
19, 89820, Note_on_c, 12, 65, 84
19, 89820, Note_on_c, 12, 60, 84
19, 89871, Note_on_c, 12, 65, 0
19, 89871, Note_on_c, 12, 60, 0
19, 89880, Note_on_c, 12, 65, 84
19, 89880, Note_on_c, 12, 60, 84
19, 89931, Note_on_c, 12, 65, 0
19, 89931, Note_on_c, 12, 60, 0
19, 89940, Note_on_c, 12, 60, 84
19, 89940, Note_on_c, 12, 65, 84
19, 89991, Note_on_c, 12, 60, 0
19, 89991, Note_on_c, 12, 65, 0
19, 90000, Note_on_c, 12, 65, 84
19, 90000, Note_on_c, 12, 60, 84
19, 90051, Note_on_c, 12, 65, 0
19, 90051, Note_on_c, 12, 60, 0
19, 90060, Note_on_c, 12, 60, 84
19, 90060, Note_on_c, 12, 65, 84
19, 90111, Note_on_c, 12, 60, 0
19, 90111, Note_on_c, 12, 65, 0
19, 90120, Note_on_c, 12, 65, 84
19, 90120, Note_on_c, 12, 60, 84
19, 90171, Note_on_c, 12, 65, 0
19, 90171, Note_on_c, 12, 60, 0
19, 90180, Note_on_c, 12, 60, 84
19, 90180, Note_on_c, 12, 65, 84
19, 90231, Note_on_c, 12, 60, 0
19, 90231, Note_on_c, 12, 65, 0
19, 90240, Note_on_c, 12, 67, 84
19, 90240, Note_on_c, 12, 60, 84
19, 90291, Note_on_c, 12, 67, 0
19, 90291, Note_on_c, 12, 60, 0
19, 90300, Note_on_c, 12, 60, 84
19, 90300, Note_on_c, 12, 67, 84
19, 90351, Note_on_c, 12, 60, 0
19, 90351, Note_on_c, 12, 67, 0
19, 90360, Note_on_c, 12, 60, 84
19, 90360, Note_on_c, 12, 67, 84
19, 90411, Note_on_c, 12, 60, 0
19, 90411, Note_on_c, 12, 67, 0
19, 90420, Note_on_c, 12, 60, 84
19, 90420, Note_on_c, 12, 67, 84
19, 90471, Note_on_c, 12, 60, 0
19, 90471, Note_on_c, 12, 67, 0
19, 90480, Note_on_c, 12, 67, 84
19, 90480, Note_on_c, 12, 60, 84
19, 90531, Note_on_c, 12, 67, 0
19, 90531, Note_on_c, 12, 60, 0
19, 90540, Note_on_c, 12, 67, 84
19, 90540, Note_on_c, 12, 60, 84
19, 90591, Note_on_c, 12, 67, 0
19, 90591, Note_on_c, 12, 60, 0
19, 90600, Note_on_c, 12, 60, 84
19, 90600, Note_on_c, 12, 67, 84
19, 90651, Note_on_c, 12, 60, 0
19, 90651, Note_on_c, 12, 67, 0
19, 90660, Note_on_c, 12, 60, 84
19, 90660, Note_on_c, 12, 67, 84
19, 90711, Note_on_c, 12, 60, 0
19, 90711, Note_on_c, 12, 67, 0
19, 90720, Note_on_c, 12, 64, 84
19, 90720, Note_on_c, 12, 60, 84
19, 90771, Note_on_c, 12, 64, 0
19, 90771, Note_on_c, 12, 60, 0
19, 90780, Note_on_c, 12, 64, 84
19, 90780, Note_on_c, 12, 60, 84
19, 90831, Note_on_c, 12, 64, 0
19, 90831, Note_on_c, 12, 60, 0
19, 90840, Note_on_c, 12, 60, 84
19, 90840, Note_on_c, 12, 64, 84
19, 90891, Note_on_c, 12, 60, 0
19, 90891, Note_on_c, 12, 64, 0
19, 90900, Note_on_c, 12, 64, 84
19, 90900, Note_on_c, 12, 60, 84
19, 90951, Note_on_c, 12, 64, 0
19, 90951, Note_on_c, 12, 60, 0
19, 90960, Note_on_c, 12, 64, 84
19, 90960, Note_on_c, 12, 60, 84
19, 91011, Note_on_c, 12, 64, 0
19, 91011, Note_on_c, 12, 60, 0
19, 91020, Note_on_c, 12, 64, 84
19, 91020, Note_on_c, 12, 60, 84
19, 91071, Note_on_c, 12, 64, 0
19, 91071, Note_on_c, 12, 60, 0
19, 91080, Note_on_c, 12, 64, 84
19, 91080, Note_on_c, 12, 60, 84
19, 91131, Note_on_c, 12, 64, 0
19, 91131, Note_on_c, 12, 60, 0
19, 91140, Note_on_c, 12, 64, 84
19, 91140, Note_on_c, 12, 60, 84
19, 91191, Note_on_c, 12, 64, 0
19, 91191, Note_on_c, 12, 60, 0
19, 91200, Note_on_c, 12, 65, 84
19, 91200, Note_on_c, 12, 60, 84
19, 91251, Note_on_c, 12, 65, 0
19, 91251, Note_on_c, 12, 60, 0
19, 91260, Note_on_c, 12, 65, 84
19, 91260, Note_on_c, 12, 60, 84
19, 91311, Note_on_c, 12, 65, 0
19, 91311, Note_on_c, 12, 60, 0
19, 91320, Note_on_c, 12, 60, 84
19, 91320, Note_on_c, 12, 65, 84
19, 91371, Note_on_c, 12, 60, 0
19, 91371, Note_on_c, 12, 65, 0
19, 91380, Note_on_c, 12, 60, 84
19, 91380, Note_on_c, 12, 65, 84
19, 91431, Note_on_c, 12, 60, 0
19, 91431, Note_on_c, 12, 65, 0
19, 91440, Note_on_c, 12, 60, 84
19, 91440, Note_on_c, 12, 65, 84
19, 91491, Note_on_c, 12, 60, 0
19, 91491, Note_on_c, 12, 65, 0
19, 91500, Note_on_c, 12, 60, 84
19, 91500, Note_on_c, 12, 65, 84
19, 91551, Note_on_c, 12, 60, 0
19, 91551, Note_on_c, 12, 65, 0
19, 91560, Note_on_c, 12, 60, 84
19, 91560, Note_on_c, 12, 65, 84
19, 91611, Note_on_c, 12, 60, 0
19, 91611, Note_on_c, 12, 65, 0
19, 91620, Note_on_c, 12, 65, 84
19, 91620, Note_on_c, 12, 60, 84
19, 91671, Note_on_c, 12, 65, 0
19, 91671, Note_on_c, 12, 60, 0
19, 91680, Note_on_c, 12, 60, 84
19, 91680, Note_on_c, 12, 65, 84
19, 91731, Note_on_c, 12, 60, 0
19, 91731, Note_on_c, 12, 65, 0
19, 91740, Note_on_c, 12, 65, 84
19, 91740, Note_on_c, 12, 60, 84
19, 91791, Note_on_c, 12, 65, 0
19, 91791, Note_on_c, 12, 60, 0
19, 91800, Note_on_c, 12, 60, 84
19, 91800, Note_on_c, 12, 65, 84
19, 91851, Note_on_c, 12, 60, 0
19, 91851, Note_on_c, 12, 65, 0
19, 91860, Note_on_c, 12, 60, 84
19, 91860, Note_on_c, 12, 65, 84
19, 91911, Note_on_c, 12, 60, 0
19, 91911, Note_on_c, 12, 65, 0
19, 91920, Note_on_c, 12, 60, 84
19, 91920, Note_on_c, 12, 65, 84
19, 91971, Note_on_c, 12, 60, 0
19, 91971, Note_on_c, 12, 65, 0
19, 91980, Note_on_c, 12, 60, 84
19, 91980, Note_on_c, 12, 65, 84
19, 92031, Note_on_c, 12, 60, 0
19, 92031, Note_on_c, 12, 65, 0
19, 92040, Note_on_c, 12, 60, 84
19, 92040, Note_on_c, 12, 65, 84
19, 92091, Note_on_c, 12, 60, 0
19, 92091, Note_on_c, 12, 65, 0
19, 92100, Note_on_c, 12, 60, 84
19, 92100, Note_on_c, 12, 65, 84
19, 92151, Note_on_c, 12, 60, 0
19, 92151, Note_on_c, 12, 65, 0
19, 92160, Note_on_c, 12, 60, 84
19, 92160, Note_on_c, 12, 67, 84
19, 92211, Note_on_c, 12, 60, 0
19, 92211, Note_on_c, 12, 67, 0
19, 92220, Note_on_c, 12, 67, 84
19, 92220, Note_on_c, 12, 60, 84
19, 92271, Note_on_c, 12, 67, 0
19, 92271, Note_on_c, 12, 60, 0
19, 92280, Note_on_c, 12, 67, 84
19, 92280, Note_on_c, 12, 60, 84
19, 92331, Note_on_c, 12, 67, 0
19, 92331, Note_on_c, 12, 60, 0
19, 92340, Note_on_c, 12, 60, 84
19, 92340, Note_on_c, 12, 67, 84
19, 92391, Note_on_c, 12, 60, 0
19, 92391, Note_on_c, 12, 67, 0
19, 92400, Note_on_c, 12, 60, 84
19, 92400, Note_on_c, 12, 67, 84
19, 92451, Note_on_c, 12, 60, 0
19, 92451, Note_on_c, 12, 67, 0
19, 92460, Note_on_c, 12, 60, 84
19, 92460, Note_on_c, 12, 67, 84
19, 92511, Note_on_c, 12, 60, 0
19, 92511, Note_on_c, 12, 67, 0
19, 92520, Note_on_c, 12, 60, 84
19, 92520, Note_on_c, 12, 67, 84
19, 92571, Note_on_c, 12, 60, 0
19, 92571, Note_on_c, 12, 67, 0
19, 92580, Note_on_c, 12, 67, 84
19, 92580, Note_on_c, 12, 60, 84
19, 92631, Note_on_c, 12, 67, 0
19, 92631, Note_on_c, 12, 60, 0
19, 92640, Note_on_c, 12, 64, 84
19, 92640, Note_on_c, 12, 60, 84
19, 92691, Note_on_c, 12, 64, 0
19, 92691, Note_on_c, 12, 60, 0
19, 92700, Note_on_c, 12, 60, 84
19, 92700, Note_on_c, 12, 64, 84
19, 92751, Note_on_c, 12, 60, 0
19, 92751, Note_on_c, 12, 64, 0
19, 92760, Note_on_c, 12, 64, 84
19, 92760, Note_on_c, 12, 60, 84
19, 92811, Note_on_c, 12, 64, 0
19, 92811, Note_on_c, 12, 60, 0
19, 92820, Note_on_c, 12, 60, 84
19, 92820, Note_on_c, 12, 64, 84
19, 92871, Note_on_c, 12, 60, 0
19, 92871, Note_on_c, 12, 64, 0
19, 92880, Note_on_c, 12, 64, 84
19, 92880, Note_on_c, 12, 60, 84
19, 92931, Note_on_c, 12, 64, 0
19, 92931, Note_on_c, 12, 60, 0
19, 92940, Note_on_c, 12, 60, 84
19, 92940, Note_on_c, 12, 64, 84
19, 92991, Note_on_c, 12, 60, 0
19, 92991, Note_on_c, 12, 64, 0
19, 93000, Note_on_c, 12, 64, 84
19, 93000, Note_on_c, 12, 60, 84
19, 93051, Note_on_c, 12, 64, 0
19, 93051, Note_on_c, 12, 60, 0
19, 93060, Note_on_c, 12, 64, 84
19, 93060, Note_on_c, 12, 60, 84
19, 93111, Note_on_c, 12, 64, 0
19, 93111, Note_on_c, 12, 60, 0
19, 93120, Note_on_c, 12, 65, 84
19, 93120, Note_on_c, 12, 55, 84
19, 93344, Note_on_c, 12, 65, 0
19, 93344, Note_on_c, 12, 55, 0
19, 93360, Note_on_c, 12, 65, 84
19, 93360, Note_on_c, 12, 55, 84
19, 93531, Note_on_c, 12, 65, 0
19, 93531, Note_on_c, 12, 55, 0
19, 93540, Note_on_c, 12, 65, 84
19, 93540, Note_on_c, 12, 55, 84
19, 93591, Note_on_c, 12, 65, 0
19, 93591, Note_on_c, 12, 55, 0
19, 93600, Note_on_c, 12, 55, 84
19, 93600, Note_on_c, 12, 64, 84
19, 93824, Note_on_c, 12, 55, 0
19, 93824, Note_on_c, 12, 64, 0
19, 93840, Note_on_c, 12, 64, 84
19, 93840, Note_on_c, 12, 55, 84
19, 94011, Note_on_c, 12, 64, 0
19, 94011, Note_on_c, 12, 55, 0
19, 94020, Note_on_c, 12, 55, 84
19, 94020, Note_on_c, 12, 64, 84
19, 94071, Note_on_c, 12, 55, 0
19, 94071, Note_on_c, 12, 64, 0
19, 94080, Note_on_c, 12, 55, 84
19, 94080, Note_on_c, 12, 62, 84
19, 94304, Note_on_c, 12, 55, 0
19, 94304, Note_on_c, 12, 62, 0
19, 94320, Note_on_c, 12, 62, 84
19, 94320, Note_on_c, 12, 55, 84
19, 94784, Note_on_c, 12, 62, 0
19, 94784, Note_on_c, 12, 55, 0
19, 94800, Note_on_c, 12, 55, 84
19, 94800, Note_on_c, 12, 64, 84
19, 94971, Note_on_c, 12, 55, 0
19, 94971, Note_on_c, 12, 64, 0
19, 94980, Note_on_c, 12, 55, 84
19, 94980, Note_on_c, 12, 64, 84
19, 95031, Note_on_c, 12, 55, 0
19, 95031, Note_on_c, 12, 64, 0
19, 95040, Note_on_c, 12, 55, 84
19, 95040, Note_on_c, 12, 65, 84
19, 95264, Note_on_c, 12, 55, 0
19, 95264, Note_on_c, 12, 65, 0
19, 95280, Note_on_c, 12, 55, 84
19, 95280, Note_on_c, 12, 65, 84
19, 95451, Note_on_c, 12, 55, 0
19, 95451, Note_on_c, 12, 65, 0
19, 95460, Note_on_c, 12, 55, 84
19, 95460, Note_on_c, 12, 65, 84
19, 95511, Note_on_c, 12, 55, 0
19, 95511, Note_on_c, 12, 65, 0
19, 95520, Note_on_c, 12, 55, 84
19, 95520, Note_on_c, 12, 64, 84
19, 95744, Note_on_c, 12, 55, 0
19, 95744, Note_on_c, 12, 64, 0
19, 95760, Note_on_c, 12, 55, 84
19, 95760, Note_on_c, 12, 64, 84
19, 95931, Note_on_c, 12, 55, 0
19, 95931, Note_on_c, 12, 64, 0
19, 95940, Note_on_c, 12, 64, 84
19, 95940, Note_on_c, 12, 55, 84
19, 95991, Note_on_c, 12, 64, 0
19, 95991, Note_on_c, 12, 55, 0
19, 96000, Note_on_c, 12, 55, 84
19, 96000, Note_on_c, 12, 62, 84
19, 96224, Note_on_c, 12, 55, 0
19, 96224, Note_on_c, 12, 62, 0
19, 96240, Note_on_c, 12, 55, 84
19, 96240, Note_on_c, 12, 62, 84
19, 96704, Note_on_c, 12, 55, 0
19, 96704, Note_on_c, 12, 62, 0
19, 96720, Note_on_c, 12, 64, 84
19, 96720, Note_on_c, 12, 55, 84
19, 96891, Note_on_c, 12, 64, 0
19, 96891, Note_on_c, 12, 55, 0
19, 96900, Note_on_c, 12, 55, 84
19, 96900, Note_on_c, 12, 64, 84
19, 96951, Note_on_c, 12, 55, 0
19, 96951, Note_on_c, 12, 64, 0
19, 96960, Note_on_c, 12, 55, 84
19, 96960, Note_on_c, 12, 65, 84
19, 97131, Note_on_c, 12, 55, 0
19, 97131, Note_on_c, 12, 65, 0
19, 97140, Note_on_c, 12, 65, 84
19, 97140, Note_on_c, 12, 55, 84
19, 97191, Note_on_c, 12, 65, 0
19, 97191, Note_on_c, 12, 55, 0
19, 97200, Note_on_c, 12, 65, 84
19, 97200, Note_on_c, 12, 55, 84
19, 97371, Note_on_c, 12, 65, 0
19, 97371, Note_on_c, 12, 55, 0
19, 97380, Note_on_c, 12, 65, 84
19, 97380, Note_on_c, 12, 55, 84
19, 97431, Note_on_c, 12, 65, 0
19, 97431, Note_on_c, 12, 55, 0
19, 97440, Note_on_c, 12, 55, 84
19, 97440, Note_on_c, 12, 64, 84
19, 97611, Note_on_c, 12, 55, 0
19, 97611, Note_on_c, 12, 64, 0
19, 97620, Note_on_c, 12, 64, 84
19, 97620, Note_on_c, 12, 55, 84
19, 97671, Note_on_c, 12, 64, 0
19, 97671, Note_on_c, 12, 55, 0
19, 97680, Note_on_c, 12, 55, 84
19, 97680, Note_on_c, 12, 64, 84
19, 97851, Note_on_c, 12, 55, 0
19, 97851, Note_on_c, 12, 64, 0
19, 97860, Note_on_c, 12, 64, 84
19, 97860, Note_on_c, 12, 55, 84
19, 97911, Note_on_c, 12, 64, 0
19, 97911, Note_on_c, 12, 55, 0
19, 97920, Note_on_c, 12, 55, 84
19, 97920, Note_on_c, 12, 62, 84
19, 97971, Note_on_c, 12, 55, 0
19, 97971, Note_on_c, 12, 62, 0
19, 97980, Note_on_c, 12, 55, 84
19, 97980, Note_on_c, 12, 62, 84
19, 98031, Note_on_c, 12, 55, 0
19, 98031, Note_on_c, 12, 62, 0
19, 98040, Note_on_c, 12, 62, 84
19, 98040, Note_on_c, 12, 55, 84
19, 98091, Note_on_c, 12, 62, 0
19, 98091, Note_on_c, 12, 55, 0
19, 98100, Note_on_c, 12, 62, 84
19, 98100, Note_on_c, 12, 55, 84
19, 98151, Note_on_c, 12, 62, 0
19, 98151, Note_on_c, 12, 55, 0
19, 98160, Note_on_c, 12, 55, 84
19, 98160, Note_on_c, 12, 62, 84
19, 98211, Note_on_c, 12, 55, 0
19, 98211, Note_on_c, 12, 62, 0
19, 98220, Note_on_c, 12, 62, 84
19, 98220, Note_on_c, 12, 55, 84
19, 98271, Note_on_c, 12, 62, 0
19, 98271, Note_on_c, 12, 55, 0
19, 98280, Note_on_c, 12, 55, 84
19, 98280, Note_on_c, 12, 62, 84
19, 98331, Note_on_c, 12, 55, 0
19, 98331, Note_on_c, 12, 62, 0
19, 98340, Note_on_c, 12, 55, 84
19, 98340, Note_on_c, 12, 62, 84
19, 98391, Note_on_c, 12, 55, 0
19, 98391, Note_on_c, 12, 62, 0
19, 98400, Note_on_c, 12, 55, 84
19, 98400, Note_on_c, 12, 64, 84
19, 98451, Note_on_c, 12, 55, 0
19, 98451, Note_on_c, 12, 64, 0
19, 98460, Note_on_c, 12, 64, 84
19, 98460, Note_on_c, 12, 55, 84
19, 98511, Note_on_c, 12, 64, 0
19, 98511, Note_on_c, 12, 55, 0
19, 98520, Note_on_c, 12, 64, 84
19, 98520, Note_on_c, 12, 55, 84
19, 98571, Note_on_c, 12, 64, 0
19, 98571, Note_on_c, 12, 55, 0
19, 98580, Note_on_c, 12, 64, 84
19, 98580, Note_on_c, 12, 55, 84
19, 98631, Note_on_c, 12, 64, 0
19, 98631, Note_on_c, 12, 55, 0
19, 98640, Note_on_c, 12, 55, 84
19, 98640, Note_on_c, 12, 64, 84
19, 98691, Note_on_c, 12, 55, 0
19, 98691, Note_on_c, 12, 64, 0
19, 98700, Note_on_c, 12, 55, 84
19, 98700, Note_on_c, 12, 64, 84
19, 98751, Note_on_c, 12, 55, 0
19, 98751, Note_on_c, 12, 64, 0
19, 98760, Note_on_c, 12, 64, 84
19, 98760, Note_on_c, 12, 55, 84
19, 98811, Note_on_c, 12, 64, 0
19, 98811, Note_on_c, 12, 55, 0
19, 98820, Note_on_c, 12, 64, 84
19, 98820, Note_on_c, 12, 55, 84
19, 98871, Note_on_c, 12, 64, 0
19, 98871, Note_on_c, 12, 55, 0
19, 98880, Note_on_c, 12, 62, 84
19, 98880, Note_on_c, 12, 55, 84
19, 98931, Note_on_c, 12, 62, 0
19, 98931, Note_on_c, 12, 55, 0
19, 98940, Note_on_c, 12, 55, 84
19, 98940, Note_on_c, 12, 62, 84
19, 98991, Note_on_c, 12, 55, 0
19, 98991, Note_on_c, 12, 62, 0
19, 99000, Note_on_c, 12, 55, 84
19, 99000, Note_on_c, 12, 62, 84
19, 99051, Note_on_c, 12, 55, 0
19, 99051, Note_on_c, 12, 62, 0
19, 99060, Note_on_c, 12, 55, 84
19, 99060, Note_on_c, 12, 62, 84
19, 99111, Note_on_c, 12, 55, 0
19, 99111, Note_on_c, 12, 62, 0
19, 99120, Note_on_c, 12, 62, 84
19, 99120, Note_on_c, 12, 55, 84
19, 99171, Note_on_c, 12, 62, 0
19, 99171, Note_on_c, 12, 55, 0
19, 99180, Note_on_c, 12, 62, 84
19, 99180, Note_on_c, 12, 55, 84
19, 99231, Note_on_c, 12, 62, 0
19, 99231, Note_on_c, 12, 55, 0
19, 99240, Note_on_c, 12, 62, 84
19, 99240, Note_on_c, 12, 55, 84
19, 99291, Note_on_c, 12, 62, 0
19, 99291, Note_on_c, 12, 55, 0
19, 99300, Note_on_c, 12, 55, 84
19, 99300, Note_on_c, 12, 62, 84
19, 99351, Note_on_c, 12, 55, 0
19, 99351, Note_on_c, 12, 62, 0
19, 99360, Note_on_c, 12, 55, 84
19, 99360, Note_on_c, 12, 64, 84
19, 99411, Note_on_c, 12, 55, 0
19, 99411, Note_on_c, 12, 64, 0
19, 99420, Note_on_c, 12, 55, 84
19, 99420, Note_on_c, 12, 64, 84
19, 99471, Note_on_c, 12, 55, 0
19, 99471, Note_on_c, 12, 64, 0
19, 99480, Note_on_c, 12, 55, 84
19, 99480, Note_on_c, 12, 64, 84
19, 99531, Note_on_c, 12, 55, 0
19, 99531, Note_on_c, 12, 64, 0
19, 99540, Note_on_c, 12, 64, 84
19, 99540, Note_on_c, 12, 55, 84
19, 99591, Note_on_c, 12, 64, 0
19, 99591, Note_on_c, 12, 55, 0
19, 99600, Note_on_c, 12, 64, 84
19, 99600, Note_on_c, 12, 55, 84
19, 99651, Note_on_c, 12, 64, 0
19, 99651, Note_on_c, 12, 55, 0
19, 99660, Note_on_c, 12, 55, 84
19, 99660, Note_on_c, 12, 64, 84
19, 99711, Note_on_c, 12, 55, 0
19, 99711, Note_on_c, 12, 64, 0
19, 99720, Note_on_c, 12, 55, 84
19, 99720, Note_on_c, 12, 64, 84
19, 99771, Note_on_c, 12, 55, 0
19, 99771, Note_on_c, 12, 64, 0
19, 99780, Note_on_c, 12, 55, 84
19, 99780, Note_on_c, 12, 64, 84
19, 99831, Note_on_c, 12, 55, 0
19, 99831, Note_on_c, 12, 64, 0
19, 99840, Note_on_c, 12, 62, 84
19, 99840, Note_on_c, 12, 55, 84
19, 99891, Note_on_c, 12, 62, 0
19, 99891, Note_on_c, 12, 55, 0
19, 99900, Note_on_c, 12, 55, 84
19, 99900, Note_on_c, 12, 62, 84
19, 99951, Note_on_c, 12, 55, 0
19, 99951, Note_on_c, 12, 62, 0
19, 99960, Note_on_c, 12, 55, 84
19, 99960, Note_on_c, 12, 64, 84
19, 100011, Note_on_c, 12, 55, 0
19, 100011, Note_on_c, 12, 64, 0
19, 100020, Note_on_c, 12, 64, 84
19, 100020, Note_on_c, 12, 55, 84
19, 100071, Note_on_c, 12, 64, 0
19, 100071, Note_on_c, 12, 55, 0
19, 100080, Note_on_c, 12, 55, 84
19, 100080, Note_on_c, 12, 64, 84
19, 100131, Note_on_c, 12, 55, 0
19, 100131, Note_on_c, 12, 64, 0
19, 100140, Note_on_c, 12, 55, 84
19, 100140, Note_on_c, 12, 64, 84
19, 100191, Note_on_c, 12, 55, 0
19, 100191, Note_on_c, 12, 64, 0
19, 100200, Note_on_c, 12, 55, 84
19, 100200, Note_on_c, 12, 64, 84
19, 100251, Note_on_c, 12, 55, 0
19, 100251, Note_on_c, 12, 64, 0
19, 100260, Note_on_c, 12, 55, 84
19, 100260, Note_on_c, 12, 64, 84
19, 100311, Note_on_c, 12, 55, 0
19, 100311, Note_on_c, 12, 64, 0
19, 100320, Note_on_c, 12, 55, 84
19, 100320, Note_on_c, 12, 62, 84
19, 100371, Note_on_c, 12, 55, 0
19, 100371, Note_on_c, 12, 62, 0
19, 100380, Note_on_c, 12, 55, 84
19, 100380, Note_on_c, 12, 62, 84
19, 100431, Note_on_c, 12, 55, 0
19, 100431, Note_on_c, 12, 62, 0
19, 100440, Note_on_c, 12, 64, 84
19, 100440, Note_on_c, 12, 55, 84
19, 100491, Note_on_c, 12, 64, 0
19, 100491, Note_on_c, 12, 55, 0
19, 100500, Note_on_c, 12, 55, 84
19, 100500, Note_on_c, 12, 64, 84
19, 100551, Note_on_c, 12, 55, 0
19, 100551, Note_on_c, 12, 64, 0
19, 100560, Note_on_c, 12, 55, 84
19, 100560, Note_on_c, 12, 64, 84
19, 100611, Note_on_c, 12, 55, 0
19, 100611, Note_on_c, 12, 64, 0
19, 100620, Note_on_c, 12, 55, 84
19, 100620, Note_on_c, 12, 64, 84
19, 100671, Note_on_c, 12, 55, 0
19, 100671, Note_on_c, 12, 64, 0
19, 100680, Note_on_c, 12, 64, 84
19, 100680, Note_on_c, 12, 55, 84
19, 100731, Note_on_c, 12, 64, 0
19, 100731, Note_on_c, 12, 55, 0
19, 100740, Note_on_c, 12, 55, 84
19, 100740, Note_on_c, 12, 64, 84
19, 100791, Note_on_c, 12, 55, 0
19, 100791, Note_on_c, 12, 64, 0
19, 100800, Note_on_c, 12, 62, 84
19, 100800, Note_on_c, 12, 55, 84
19, 100851, Note_on_c, 12, 62, 0
19, 100851, Note_on_c, 12, 55, 0
19, 100860, Note_on_c, 12, 55, 84
19, 100860, Note_on_c, 12, 62, 84
19, 100911, Note_on_c, 12, 55, 0
19, 100911, Note_on_c, 12, 62, 0
19, 100920, Note_on_c, 12, 64, 84
19, 100920, Note_on_c, 12, 55, 84
19, 100971, Note_on_c, 12, 64, 0
19, 100971, Note_on_c, 12, 55, 0
19, 100980, Note_on_c, 12, 55, 84
19, 100980, Note_on_c, 12, 64, 84
19, 101031, Note_on_c, 12, 55, 0
19, 101031, Note_on_c, 12, 64, 0
19, 101040, Note_on_c, 12, 55, 84
19, 101040, Note_on_c, 12, 64, 84
19, 101091, Note_on_c, 12, 55, 0
19, 101091, Note_on_c, 12, 64, 0
19, 101100, Note_on_c, 12, 64, 84
19, 101100, Note_on_c, 12, 55, 84
19, 101151, Note_on_c, 12, 64, 0
19, 101151, Note_on_c, 12, 55, 0
19, 101160, Note_on_c, 12, 64, 84
19, 101160, Note_on_c, 12, 55, 84
19, 101211, Note_on_c, 12, 64, 0
19, 101211, Note_on_c, 12, 55, 0
19, 101220, Note_on_c, 12, 64, 84
19, 101220, Note_on_c, 12, 55, 84
19, 101271, Note_on_c, 12, 64, 0
19, 101271, Note_on_c, 12, 55, 0
19, 101280, Note_on_c, 12, 62, 84
19, 101280, Note_on_c, 12, 55, 84
19, 101331, Note_on_c, 12, 62, 0
19, 101331, Note_on_c, 12, 55, 0
19, 101340, Note_on_c, 12, 55, 84
19, 101340, Note_on_c, 12, 62, 84
19, 101391, Note_on_c, 12, 55, 0
19, 101391, Note_on_c, 12, 62, 0
19, 101400, Note_on_c, 12, 64, 84
19, 101400, Note_on_c, 12, 55, 84
19, 101451, Note_on_c, 12, 64, 0
19, 101451, Note_on_c, 12, 55, 0
19, 101460, Note_on_c, 12, 64, 84
19, 101460, Note_on_c, 12, 55, 84
19, 101511, Note_on_c, 12, 64, 0
19, 101511, Note_on_c, 12, 55, 0
19, 101520, Note_on_c, 12, 64, 84
19, 101520, Note_on_c, 12, 55, 84
19, 101571, Note_on_c, 12, 64, 0
19, 101571, Note_on_c, 12, 55, 0
19, 101580, Note_on_c, 12, 64, 84
19, 101580, Note_on_c, 12, 55, 84
19, 101631, Note_on_c, 12, 64, 0
19, 101631, Note_on_c, 12, 55, 0
19, 101640, Note_on_c, 12, 55, 84
19, 101640, Note_on_c, 12, 64, 84
19, 101691, Note_on_c, 12, 55, 0
19, 101691, Note_on_c, 12, 64, 0
19, 101700, Note_on_c, 12, 64, 84
19, 101700, Note_on_c, 12, 55, 84
19, 101751, Note_on_c, 12, 64, 0
19, 101751, Note_on_c, 12, 55, 0
19, 101760, Note_on_c, 12, 62, 84
19, 101760, Note_on_c, 12, 55, 84
19, 101864, Note_on_c, 12, 62, 0
19, 101864, Note_on_c, 12, 55, 0
19, 101880, Note_on_c, 12, 79, 92
19, 101999, Note_on_c, 12, 79, 0
19, 102000, Note_on_c, 12, 77, 84
19, 102104, Note_on_c, 12, 77, 0
19, 102120, Note_on_c, 12, 76, 84
19, 102209, Note_on_c, 12, 76, 0
19, 102240, Note_on_c, 12, 74, 84
19, 102329, Note_on_c, 12, 74, 0
19, 102360, Note_on_c, 12, 76, 92
19, 102479, Note_on_c, 12, 76, 0
19, 102480, Note_on_c, 12, 74, 84
19, 102584, Note_on_c, 12, 74, 0
19, 102600, Note_on_c, 12, 72, 84
19, 102689, Note_on_c, 12, 72, 0
19, 102720, Note_on_c, 12, 71, 84
19, 102809, Note_on_c, 12, 71, 0
19, 102840, Note_on_c, 12, 76, 92
19, 102959, Note_on_c, 12, 76, 0
19, 102960, Note_on_c, 12, 74, 84
19, 103064, Note_on_c, 12, 74, 0
19, 103080, Note_on_c, 12, 72, 84
19, 103169, Note_on_c, 12, 72, 0
19, 103200, Note_on_c, 12, 71, 84
19, 103289, Note_on_c, 12, 71, 0
19, 103320, Note_on_c, 12, 72, 92
19, 103439, Note_on_c, 12, 72, 0
19, 103440, Note_on_c, 12, 71, 84
19, 103544, Note_on_c, 12, 71, 0
19, 103560, Note_on_c, 12, 69, 84
19, 103649, Note_on_c, 12, 69, 0
19, 103680, Note_on_c, 12, 67, 84
19, 103769, Note_on_c, 12, 67, 0
19, 103800, Note_on_c, 12, 72, 92
19, 103919, Note_on_c, 12, 72, 0
19, 103920, Note_on_c, 12, 71, 84
19, 104024, Note_on_c, 12, 71, 0
19, 104040, Note_on_c, 12, 69, 84
19, 104129, Note_on_c, 12, 69, 0
19, 104160, Note_on_c, 12, 67, 84
19, 104249, Note_on_c, 12, 67, 0
19, 104280, Note_on_c, 12, 72, 92
19, 104399, Note_on_c, 12, 72, 0
19, 104400, Note_on_c, 12, 71, 84
19, 104504, Note_on_c, 12, 71, 0
19, 104520, Note_on_c, 12, 69, 84
19, 104609, Note_on_c, 12, 69, 0
19, 104640, Note_on_c, 12, 67, 84
19, 104729, Note_on_c, 12, 67, 0
19, 104760, Note_on_c, 12, 72, 92
19, 104879, Note_on_c, 12, 72, 0
19, 104880, Note_on_c, 12, 71, 84
19, 104984, Note_on_c, 12, 71, 0
19, 105000, Note_on_c, 12, 69, 84
19, 105089, Note_on_c, 12, 69, 0
19, 105120, Note_on_c, 12, 67, 84
19, 105209, Note_on_c, 12, 67, 0
19, 105240, Note_on_c, 12, 65, 84
19, 105329, Note_on_c, 12, 65, 0
19, 105360, Note_on_c, 12, 64, 84
19, 105449, Note_on_c, 12, 64, 0
19, 105480, Note_on_c, 12, 62, 84
19, 105569, Note_on_c, 12, 62, 0
19, 105600, Note_on_c, 12, 60, 84
19, 105651, Note_on_c, 12, 60, 0
19, 105660, Note_on_c, 12, 60, 84
19, 105711, Note_on_c, 12, 60, 0
19, 105720, Note_on_c, 12, 60, 84
19, 105771, Note_on_c, 12, 60, 0
19, 105780, Note_on_c, 12, 60, 84
19, 105831, Note_on_c, 12, 60, 0
19, 105840, Note_on_c, 12, 60, 84
19, 105891, Note_on_c, 12, 60, 0
19, 105900, Note_on_c, 12, 60, 84
19, 105951, Note_on_c, 12, 60, 0
19, 105960, Note_on_c, 12, 60, 84
19, 106011, Note_on_c, 12, 60, 0
19, 106020, Note_on_c, 12, 60, 84
19, 106071, Note_on_c, 12, 60, 0
19, 106080, Note_on_c, 12, 60, 84
19, 106131, Note_on_c, 12, 60, 0
19, 106140, Note_on_c, 12, 60, 84
19, 106191, Note_on_c, 12, 60, 0
19, 106200, Note_on_c, 12, 60, 84
19, 106251, Note_on_c, 12, 60, 0
19, 106260, Note_on_c, 12, 60, 84
19, 106311, Note_on_c, 12, 60, 0
19, 106320, Note_on_c, 12, 60, 84
19, 106371, Note_on_c, 12, 60, 0
19, 106380, Note_on_c, 12, 60, 84
19, 106431, Note_on_c, 12, 60, 0
19, 106440, Note_on_c, 12, 60, 84
19, 106491, Note_on_c, 12, 60, 0
19, 106500, Note_on_c, 12, 60, 84
19, 106551, Note_on_c, 12, 60, 0
19, 106560, Note_on_c, 12, 60, 84
19, 106611, Note_on_c, 12, 60, 0
19, 106620, Note_on_c, 12, 60, 84
19, 106671, Note_on_c, 12, 60, 0
19, 106680, Note_on_c, 12, 60, 84
19, 106731, Note_on_c, 12, 60, 0
19, 106740, Note_on_c, 12, 60, 84
19, 106791, Note_on_c, 12, 60, 0
19, 106800, Note_on_c, 12, 60, 84
19, 106851, Note_on_c, 12, 60, 0
19, 106860, Note_on_c, 12, 60, 84
19, 106911, Note_on_c, 12, 60, 0
19, 106920, Note_on_c, 12, 60, 84
19, 106971, Note_on_c, 12, 60, 0
19, 106980, Note_on_c, 12, 60, 84
19, 107031, Note_on_c, 12, 60, 0
19, 107040, Note_on_c, 12, 60, 84
19, 107091, Note_on_c, 12, 60, 0
19, 107100, Note_on_c, 12, 60, 84
19, 107151, Note_on_c, 12, 60, 0
19, 107160, Note_on_c, 12, 60, 84
19, 107211, Note_on_c, 12, 60, 0
19, 107220, Note_on_c, 12, 60, 84
19, 107271, Note_on_c, 12, 60, 0
19, 107280, Note_on_c, 12, 60, 84
19, 107331, Note_on_c, 12, 60, 0
19, 107340, Note_on_c, 12, 60, 84
19, 107391, Note_on_c, 12, 60, 0
19, 107400, Note_on_c, 12, 60, 84
19, 107451, Note_on_c, 12, 60, 0
19, 107460, Note_on_c, 12, 60, 84
19, 107511, Note_on_c, 12, 60, 0
19, 107520, Note_on_c, 12, 59, 84
19, 107520, Note_on_c, 12, 62, 84
19, 107571, Note_on_c, 12, 59, 0
19, 107571, Note_on_c, 12, 62, 0
19, 107580, Note_on_c, 12, 59, 84
19, 107580, Note_on_c, 12, 62, 84
19, 107631, Note_on_c, 12, 59, 0
19, 107631, Note_on_c, 12, 62, 0
19, 107640, Note_on_c, 12, 62, 84
19, 107640, Note_on_c, 12, 59, 84
19, 107691, Note_on_c, 12, 62, 0
19, 107691, Note_on_c, 12, 59, 0
19, 107700, Note_on_c, 12, 59, 84
19, 107700, Note_on_c, 12, 62, 84
19, 107751, Note_on_c, 12, 59, 0
19, 107751, Note_on_c, 12, 62, 0
19, 107760, Note_on_c, 12, 62, 84
19, 107760, Note_on_c, 12, 59, 84
19, 107811, Note_on_c, 12, 62, 0
19, 107811, Note_on_c, 12, 59, 0
19, 107820, Note_on_c, 12, 59, 84
19, 107820, Note_on_c, 12, 62, 84
19, 107871, Note_on_c, 12, 59, 0
19, 107871, Note_on_c, 12, 62, 0
19, 107880, Note_on_c, 12, 59, 84
19, 107880, Note_on_c, 12, 62, 84
19, 107931, Note_on_c, 12, 59, 0
19, 107931, Note_on_c, 12, 62, 0
19, 107940, Note_on_c, 12, 62, 84
19, 107940, Note_on_c, 12, 59, 84
19, 107991, Note_on_c, 12, 62, 0
19, 107991, Note_on_c, 12, 59, 0
19, 108000, Note_on_c, 12, 59, 84
19, 108000, Note_on_c, 12, 62, 84
19, 108051, Note_on_c, 12, 59, 0
19, 108051, Note_on_c, 12, 62, 0
19, 108060, Note_on_c, 12, 59, 84
19, 108060, Note_on_c, 12, 62, 84
19, 108111, Note_on_c, 12, 59, 0
19, 108111, Note_on_c, 12, 62, 0
19, 108120, Note_on_c, 12, 62, 84
19, 108120, Note_on_c, 12, 59, 84
19, 108171, Note_on_c, 12, 62, 0
19, 108171, Note_on_c, 12, 59, 0
19, 108180, Note_on_c, 12, 59, 84
19, 108180, Note_on_c, 12, 62, 84
19, 108231, Note_on_c, 12, 59, 0
19, 108231, Note_on_c, 12, 62, 0
19, 108240, Note_on_c, 12, 59, 84
19, 108240, Note_on_c, 12, 62, 84
19, 108291, Note_on_c, 12, 59, 0
19, 108291, Note_on_c, 12, 62, 0
19, 108300, Note_on_c, 12, 62, 84
19, 108300, Note_on_c, 12, 59, 84
19, 108351, Note_on_c, 12, 62, 0
19, 108351, Note_on_c, 12, 59, 0
19, 108360, Note_on_c, 12, 59, 84
19, 108360, Note_on_c, 12, 62, 84
19, 108411, Note_on_c, 12, 59, 0
19, 108411, Note_on_c, 12, 62, 0
19, 108420, Note_on_c, 12, 59, 84
19, 108420, Note_on_c, 12, 62, 84
19, 108471, Note_on_c, 12, 59, 0
19, 108471, Note_on_c, 12, 62, 0
19, 108480, Note_on_c, 12, 62, 84
19, 108480, Note_on_c, 12, 59, 84
19, 108531, Note_on_c, 12, 62, 0
19, 108531, Note_on_c, 12, 59, 0
19, 108540, Note_on_c, 12, 62, 84
19, 108540, Note_on_c, 12, 59, 84
19, 108591, Note_on_c, 12, 62, 0
19, 108591, Note_on_c, 12, 59, 0
19, 108600, Note_on_c, 12, 62, 84
19, 108600, Note_on_c, 12, 59, 84
19, 108651, Note_on_c, 12, 62, 0
19, 108651, Note_on_c, 12, 59, 0
19, 108660, Note_on_c, 12, 59, 84
19, 108660, Note_on_c, 12, 62, 84
19, 108711, Note_on_c, 12, 59, 0
19, 108711, Note_on_c, 12, 62, 0
19, 108720, Note_on_c, 12, 62, 84
19, 108720, Note_on_c, 12, 59, 84
19, 108771, Note_on_c, 12, 62, 0
19, 108771, Note_on_c, 12, 59, 0
19, 108780, Note_on_c, 12, 62, 84
19, 108780, Note_on_c, 12, 59, 84
19, 108831, Note_on_c, 12, 62, 0
19, 108831, Note_on_c, 12, 59, 0
19, 108840, Note_on_c, 12, 59, 84
19, 108840, Note_on_c, 12, 62, 84
19, 108891, Note_on_c, 12, 59, 0
19, 108891, Note_on_c, 12, 62, 0
19, 108900, Note_on_c, 12, 62, 84
19, 108900, Note_on_c, 12, 59, 84
19, 108951, Note_on_c, 12, 62, 0
19, 108951, Note_on_c, 12, 59, 0
19, 108960, Note_on_c, 12, 59, 84
19, 108960, Note_on_c, 12, 62, 84
19, 109011, Note_on_c, 12, 59, 0
19, 109011, Note_on_c, 12, 62, 0
19, 109020, Note_on_c, 12, 62, 84
19, 109020, Note_on_c, 12, 59, 84
19, 109071, Note_on_c, 12, 62, 0
19, 109071, Note_on_c, 12, 59, 0
19, 109080, Note_on_c, 12, 59, 84
19, 109080, Note_on_c, 12, 62, 84
19, 109131, Note_on_c, 12, 59, 0
19, 109131, Note_on_c, 12, 62, 0
19, 109140, Note_on_c, 12, 59, 84
19, 109140, Note_on_c, 12, 62, 84
19, 109191, Note_on_c, 12, 59, 0
19, 109191, Note_on_c, 12, 62, 0
19, 109200, Note_on_c, 12, 62, 84
19, 109200, Note_on_c, 12, 59, 84
19, 109251, Note_on_c, 12, 62, 0
19, 109251, Note_on_c, 12, 59, 0
19, 109260, Note_on_c, 12, 59, 84
19, 109260, Note_on_c, 12, 62, 84
19, 109311, Note_on_c, 12, 59, 0
19, 109311, Note_on_c, 12, 62, 0
19, 109320, Note_on_c, 12, 59, 84
19, 109320, Note_on_c, 12, 62, 84
19, 109371, Note_on_c, 12, 59, 0
19, 109371, Note_on_c, 12, 62, 0
19, 109380, Note_on_c, 12, 62, 84
19, 109380, Note_on_c, 12, 59, 84
19, 109431, Note_on_c, 12, 62, 0
19, 109431, Note_on_c, 12, 59, 0
19, 109440, Note_on_c, 12, 59, 84
19, 109440, Note_on_c, 12, 62, 84
19, 109491, Note_on_c, 12, 59, 0
19, 109491, Note_on_c, 12, 62, 0
19, 109500, Note_on_c, 12, 59, 84
19, 109500, Note_on_c, 12, 62, 84
19, 109551, Note_on_c, 12, 59, 0
19, 109551, Note_on_c, 12, 62, 0
19, 109560, Note_on_c, 12, 59, 84
19, 109560, Note_on_c, 12, 62, 84
19, 109611, Note_on_c, 12, 59, 0
19, 109611, Note_on_c, 12, 62, 0
19, 109620, Note_on_c, 12, 62, 84
19, 109620, Note_on_c, 12, 59, 84
19, 109671, Note_on_c, 12, 62, 0
19, 109671, Note_on_c, 12, 59, 0
19, 109680, Note_on_c, 12, 59, 84
19, 109680, Note_on_c, 12, 62, 84
19, 109731, Note_on_c, 12, 59, 0
19, 109731, Note_on_c, 12, 62, 0
19, 109740, Note_on_c, 12, 62, 84
19, 109740, Note_on_c, 12, 59, 84
19, 109791, Note_on_c, 12, 62, 0
19, 109791, Note_on_c, 12, 59, 0
19, 109800, Note_on_c, 12, 62, 84
19, 109800, Note_on_c, 12, 59, 84
19, 109851, Note_on_c, 12, 62, 0
19, 109851, Note_on_c, 12, 59, 0
19, 109860, Note_on_c, 12, 59, 84
19, 109860, Note_on_c, 12, 62, 84
19, 109911, Note_on_c, 12, 59, 0
19, 109911, Note_on_c, 12, 62, 0
19, 109920, Note_on_c, 12, 59, 84
19, 109920, Note_on_c, 12, 62, 84
19, 109971, Note_on_c, 12, 59, 0
19, 109971, Note_on_c, 12, 62, 0
19, 109980, Note_on_c, 12, 62, 84
19, 109980, Note_on_c, 12, 59, 84
19, 110031, Note_on_c, 12, 62, 0
19, 110031, Note_on_c, 12, 59, 0
19, 110040, Note_on_c, 12, 62, 84
19, 110040, Note_on_c, 12, 59, 84
19, 110091, Note_on_c, 12, 62, 0
19, 110091, Note_on_c, 12, 59, 0
19, 110100, Note_on_c, 12, 59, 84
19, 110100, Note_on_c, 12, 62, 84
19, 110151, Note_on_c, 12, 59, 0
19, 110151, Note_on_c, 12, 62, 0
19, 110160, Note_on_c, 12, 59, 84
19, 110160, Note_on_c, 12, 62, 84
19, 110211, Note_on_c, 12, 59, 0
19, 110211, Note_on_c, 12, 62, 0
19, 110220, Note_on_c, 12, 59, 84
19, 110220, Note_on_c, 12, 62, 84
19, 110271, Note_on_c, 12, 59, 0
19, 110271, Note_on_c, 12, 62, 0
19, 110280, Note_on_c, 12, 62, 84
19, 110280, Note_on_c, 12, 59, 84
19, 110331, Note_on_c, 12, 62, 0
19, 110331, Note_on_c, 12, 59, 0
19, 110340, Note_on_c, 12, 59, 84
19, 110340, Note_on_c, 12, 62, 84
19, 110391, Note_on_c, 12, 59, 0
19, 110391, Note_on_c, 12, 62, 0
19, 110400, Note_on_c, 12, 62, 84
19, 110400, Note_on_c, 12, 59, 84
19, 110451, Note_on_c, 12, 62, 0
19, 110451, Note_on_c, 12, 59, 0
19, 110460, Note_on_c, 12, 62, 84
19, 110460, Note_on_c, 12, 59, 84
19, 110511, Note_on_c, 12, 62, 0
19, 110511, Note_on_c, 12, 59, 0
19, 110520, Note_on_c, 12, 62, 84
19, 110520, Note_on_c, 12, 59, 84
19, 110571, Note_on_c, 12, 62, 0
19, 110571, Note_on_c, 12, 59, 0
19, 110580, Note_on_c, 12, 59, 84
19, 110580, Note_on_c, 12, 62, 84
19, 110631, Note_on_c, 12, 59, 0
19, 110631, Note_on_c, 12, 62, 0
19, 110640, Note_on_c, 12, 59, 84
19, 110640, Note_on_c, 12, 62, 84
19, 110691, Note_on_c, 12, 59, 0
19, 110691, Note_on_c, 12, 62, 0
19, 110700, Note_on_c, 12, 59, 84
19, 110700, Note_on_c, 12, 62, 84
19, 110751, Note_on_c, 12, 59, 0
19, 110751, Note_on_c, 12, 62, 0
19, 110760, Note_on_c, 12, 59, 84
19, 110760, Note_on_c, 12, 62, 84
19, 110811, Note_on_c, 12, 59, 0
19, 110811, Note_on_c, 12, 62, 0
19, 110820, Note_on_c, 12, 62, 84
19, 110820, Note_on_c, 12, 59, 84
19, 110871, Note_on_c, 12, 62, 0
19, 110871, Note_on_c, 12, 59, 0
19, 110880, Note_on_c, 12, 62, 84
19, 110880, Note_on_c, 12, 59, 84
19, 110931, Note_on_c, 12, 62, 0
19, 110931, Note_on_c, 12, 59, 0
19, 110940, Note_on_c, 12, 62, 84
19, 110940, Note_on_c, 12, 59, 84
19, 110991, Note_on_c, 12, 62, 0
19, 110991, Note_on_c, 12, 59, 0
19, 111000, Note_on_c, 12, 62, 84
19, 111000, Note_on_c, 12, 59, 84
19, 111051, Note_on_c, 12, 62, 0
19, 111051, Note_on_c, 12, 59, 0
19, 111060, Note_on_c, 12, 62, 84
19, 111060, Note_on_c, 12, 59, 84
19, 111111, Note_on_c, 12, 62, 0
19, 111111, Note_on_c, 12, 59, 0
19, 111120, Note_on_c, 12, 62, 84
19, 111120, Note_on_c, 12, 59, 84
19, 111171, Note_on_c, 12, 62, 0
19, 111171, Note_on_c, 12, 59, 0
19, 111180, Note_on_c, 12, 59, 84
19, 111180, Note_on_c, 12, 62, 84
19, 111231, Note_on_c, 12, 59, 0
19, 111231, Note_on_c, 12, 62, 0
19, 111240, Note_on_c, 12, 62, 84
19, 111240, Note_on_c, 12, 59, 84
19, 111291, Note_on_c, 12, 62, 0
19, 111291, Note_on_c, 12, 59, 0
19, 111300, Note_on_c, 12, 62, 84
19, 111300, Note_on_c, 12, 59, 84
19, 111351, Note_on_c, 12, 62, 0
19, 111351, Note_on_c, 12, 59, 0
19, 111360, Note_on_c, 12, 60, 84
19, 111360, Note_on_c, 12, 64, 84
19, 111411, Note_on_c, 12, 60, 0
19, 111411, Note_on_c, 12, 64, 0
19, 111420, Note_on_c, 12, 60, 84
19, 111420, Note_on_c, 12, 64, 84
19, 111471, Note_on_c, 12, 60, 0
19, 111471, Note_on_c, 12, 64, 0
19, 111480, Note_on_c, 12, 60, 84
19, 111480, Note_on_c, 12, 64, 84
19, 111531, Note_on_c, 12, 60, 0
19, 111531, Note_on_c, 12, 64, 0
19, 111540, Note_on_c, 12, 64, 84
19, 111540, Note_on_c, 12, 60, 84
19, 111591, Note_on_c, 12, 64, 0
19, 111591, Note_on_c, 12, 60, 0
19, 111600, Note_on_c, 12, 64, 84
19, 111600, Note_on_c, 12, 60, 84
19, 111651, Note_on_c, 12, 64, 0
19, 111651, Note_on_c, 12, 60, 0
19, 111660, Note_on_c, 12, 60, 84
19, 111660, Note_on_c, 12, 64, 84
19, 111711, Note_on_c, 12, 60, 0
19, 111711, Note_on_c, 12, 64, 0
19, 111720, Note_on_c, 12, 60, 84
19, 111720, Note_on_c, 12, 64, 84
19, 111771, Note_on_c, 12, 60, 0
19, 111771, Note_on_c, 12, 64, 0
19, 111780, Note_on_c, 12, 60, 84
19, 111780, Note_on_c, 12, 64, 84
19, 111831, Note_on_c, 12, 60, 0
19, 111831, Note_on_c, 12, 64, 0
19, 111840, Note_on_c, 12, 64, 84
19, 111840, Note_on_c, 12, 60, 84
19, 111891, Note_on_c, 12, 64, 0
19, 111891, Note_on_c, 12, 60, 0
19, 111900, Note_on_c, 12, 60, 84
19, 111900, Note_on_c, 12, 64, 84
19, 111951, Note_on_c, 12, 60, 0
19, 111951, Note_on_c, 12, 64, 0
19, 111960, Note_on_c, 12, 60, 84
19, 111960, Note_on_c, 12, 64, 84
19, 112011, Note_on_c, 12, 60, 0
19, 112011, Note_on_c, 12, 64, 0
19, 112020, Note_on_c, 12, 60, 84
19, 112020, Note_on_c, 12, 64, 84
19, 112071, Note_on_c, 12, 60, 0
19, 112071, Note_on_c, 12, 64, 0
19, 112080, Note_on_c, 12, 64, 84
19, 112080, Note_on_c, 12, 60, 84
19, 112131, Note_on_c, 12, 64, 0
19, 112131, Note_on_c, 12, 60, 0
19, 112140, Note_on_c, 12, 60, 84
19, 112140, Note_on_c, 12, 64, 84
19, 112191, Note_on_c, 12, 60, 0
19, 112191, Note_on_c, 12, 64, 0
19, 112200, Note_on_c, 12, 60, 84
19, 112200, Note_on_c, 12, 64, 84
19, 112251, Note_on_c, 12, 60, 0
19, 112251, Note_on_c, 12, 64, 0
19, 112260, Note_on_c, 12, 64, 84
19, 112260, Note_on_c, 12, 60, 84
19, 112311, Note_on_c, 12, 64, 0
19, 112311, Note_on_c, 12, 60, 0
19, 112320, Note_on_c, 12, 64, 84
19, 112320, Note_on_c, 12, 60, 84
19, 112371, Note_on_c, 12, 64, 0
19, 112371, Note_on_c, 12, 60, 0
19, 112380, Note_on_c, 12, 60, 84
19, 112380, Note_on_c, 12, 64, 84
19, 112431, Note_on_c, 12, 60, 0
19, 112431, Note_on_c, 12, 64, 0
19, 112440, Note_on_c, 12, 60, 84
19, 112440, Note_on_c, 12, 64, 84
19, 112491, Note_on_c, 12, 60, 0
19, 112491, Note_on_c, 12, 64, 0
19, 112500, Note_on_c, 12, 60, 84
19, 112500, Note_on_c, 12, 64, 84
19, 112551, Note_on_c, 12, 60, 0
19, 112551, Note_on_c, 12, 64, 0
19, 112560, Note_on_c, 12, 60, 84
19, 112560, Note_on_c, 12, 64, 84
19, 112611, Note_on_c, 12, 60, 0
19, 112611, Note_on_c, 12, 64, 0
19, 112620, Note_on_c, 12, 64, 84
19, 112620, Note_on_c, 12, 60, 84
19, 112671, Note_on_c, 12, 64, 0
19, 112671, Note_on_c, 12, 60, 0
19, 112680, Note_on_c, 12, 64, 84
19, 112680, Note_on_c, 12, 60, 84
19, 112731, Note_on_c, 12, 64, 0
19, 112731, Note_on_c, 12, 60, 0
19, 112740, Note_on_c, 12, 64, 84
19, 112740, Note_on_c, 12, 60, 84
19, 112791, Note_on_c, 12, 64, 0
19, 112791, Note_on_c, 12, 60, 0
19, 112800, Note_on_c, 12, 64, 84
19, 112800, Note_on_c, 12, 60, 84
19, 112851, Note_on_c, 12, 64, 0
19, 112851, Note_on_c, 12, 60, 0
19, 112860, Note_on_c, 12, 64, 84
19, 112860, Note_on_c, 12, 60, 84
19, 112911, Note_on_c, 12, 64, 0
19, 112911, Note_on_c, 12, 60, 0
19, 112920, Note_on_c, 12, 64, 84
19, 112920, Note_on_c, 12, 60, 84
19, 112971, Note_on_c, 12, 64, 0
19, 112971, Note_on_c, 12, 60, 0
19, 112980, Note_on_c, 12, 64, 84
19, 112980, Note_on_c, 12, 60, 84
19, 113031, Note_on_c, 12, 64, 0
19, 113031, Note_on_c, 12, 60, 0
19, 113040, Note_on_c, 12, 64, 84
19, 113040, Note_on_c, 12, 60, 84
19, 113091, Note_on_c, 12, 64, 0
19, 113091, Note_on_c, 12, 60, 0
19, 113100, Note_on_c, 12, 60, 84
19, 113100, Note_on_c, 12, 64, 84
19, 113151, Note_on_c, 12, 60, 0
19, 113151, Note_on_c, 12, 64, 0
19, 113160, Note_on_c, 12, 64, 84
19, 113160, Note_on_c, 12, 60, 84
19, 113211, Note_on_c, 12, 64, 0
19, 113211, Note_on_c, 12, 60, 0
19, 113220, Note_on_c, 12, 60, 84
19, 113220, Note_on_c, 12, 64, 84
19, 113271, Note_on_c, 12, 60, 0
19, 113271, Note_on_c, 12, 64, 0
19, 113280, Note_on_c, 12, 76, 84
19, 113280, Note_on_c, 12, 55, 84
19, 113280, Note_on_c, 12, 72, 84
19, 113280, Note_on_c, 12, 64, 84
19, 113519, Note_on_c, 12, 55, 0
19, 113519, Note_on_c, 12, 72, 0
19, 113519, Note_on_c, 12, 64, 0
19, 113984, Note_on_c, 12, 76, 0
19, 114000, Note_on_c, 12, 60, 84
19, 114239, Note_on_c, 12, 60, 0
19, 114240, Note_on_c, 12, 64, 84
19, 114479, Note_on_c, 12, 64, 0
19, 114480, Note_on_c, 12, 60, 84
19, 114719, Note_on_c, 12, 60, 0
19, 114720, Note_on_c, 12, 67, 84
19, 114959, Note_on_c, 12, 67, 0
19, 114960, Note_on_c, 12, 66, 84
19, 115139, Note_on_c, 12, 66, 0
19, 115140, Note_on_c, 12, 64, 84
19, 115191, Note_on_c, 12, 64, 0
19, 115200, Note_on_c, 12, 66, 84
19, 115904, Note_on_c, 12, 66, 0
19, 115920, Note_on_c, 12, 60, 84
19, 116159, Note_on_c, 12, 60, 0
19, 116160, Note_on_c, 12, 66, 84
19, 116399, Note_on_c, 12, 66, 0
19, 116400, Note_on_c, 12, 60, 84
19, 116639, Note_on_c, 12, 60, 0
19, 116640, Note_on_c, 12, 69, 84
19, 116879, Note_on_c, 12, 69, 0
19, 116880, Note_on_c, 12, 67, 84
19, 117059, Note_on_c, 12, 67, 0
19, 117060, Note_on_c, 12, 66, 84
19, 117111, Note_on_c, 12, 66, 0
19, 117120, Note_on_c, 12, 67, 84
19, 117359, Note_on_c, 12, 67, 0
19, 117360, Note_on_c, 12, 62, 84
19, 117599, Note_on_c, 12, 62, 0
19, 117600, Note_on_c, 12, 71, 84
19, 117839, Note_on_c, 12, 71, 0
19, 117840, Note_on_c, 12, 69, 84
19, 118019, Note_on_c, 12, 69, 0
19, 118020, Note_on_c, 12, 67, 84
19, 118071, Note_on_c, 12, 67, 0
19, 118080, Note_on_c, 12, 66, 84
19, 118424, Note_on_c, 12, 66, 0
19, 118440, Note_on_c, 12, 62, 84
19, 118544, Note_on_c, 12, 62, 0
19, 118560, Note_on_c, 12, 69, 84
19, 118919, Note_on_c, 12, 69, 0
19, 118920, Note_on_c, 12, 67, 84
19, 118979, Note_on_c, 12, 67, 0
19, 118980, Note_on_c, 12, 66, 84
19, 119031, Note_on_c, 12, 66, 0
19, 119040, Note_on_c, 12, 67, 84
19, 119384, Note_on_c, 12, 67, 0
19, 119400, Note_on_c, 12, 62, 84
19, 119504, Note_on_c, 12, 62, 0
19, 119520, Note_on_c, 12, 71, 84
19, 119879, Note_on_c, 12, 71, 0
19, 119880, Note_on_c, 12, 69, 84
19, 119939, Note_on_c, 12, 69, 0
19, 119940, Note_on_c, 12, 67, 84
19, 119991, Note_on_c, 12, 67, 0
19, 120000, Note_on_c, 12, 74, 84
19, 120000, Note_on_c, 12, 86, 84
19, 120584, Note_on_c, 12, 74, 0
19, 120584, Note_on_c, 12, 86, 0
19, 120600, Note_on_c, 12, 86, 84
19, 120719, Note_on_c, 12, 86, 0
19, 120720, Note_on_c, 12, 84, 84
19, 120824, Note_on_c, 12, 84, 0
19, 120840, Note_on_c, 12, 83, 84
19, 120929, Note_on_c, 12, 83, 0
19, 120960, Note_on_c, 12, 81, 84
19, 121049, Note_on_c, 12, 81, 0
19, 121080, Note_on_c, 12, 83, 84
19, 121199, Note_on_c, 12, 83, 0
19, 121200, Note_on_c, 12, 81, 84
19, 121304, Note_on_c, 12, 81, 0
19, 121320, Note_on_c, 12, 79, 84
19, 121409, Note_on_c, 12, 79, 0
19, 121440, Note_on_c, 12, 78, 84
19, 121529, Note_on_c, 12, 78, 0
19, 121560, Note_on_c, 12, 66, 84
19, 121679, Note_on_c, 12, 66, 0
19, 121680, Note_on_c, 12, 67, 84
19, 121784, Note_on_c, 12, 67, 0
19, 121800, Note_on_c, 12, 61, 84
19, 121889, Note_on_c, 12, 61, 0
19, 121920, Note_on_c, 12, 62, 84
19, 122039, Note_on_c, 12, 62, 0
19, 123600, Note_on_c, 12, 57, 84
19, 123679, Note_on_c, 12, 57, 0
19, 123680, Note_on_c, 12, 59, 84
19, 123759, Note_on_c, 12, 59, 0
19, 123760, Note_on_c, 12, 60, 84
19, 123827, Note_on_c, 12, 60, 0
19, 123840, Note_on_c, 12, 62, 84
19, 123907, Note_on_c, 12, 62, 0
19, 123920, Note_on_c, 12, 59, 84
19, 123987, Note_on_c, 12, 59, 0
19, 124000, Note_on_c, 12, 62, 84
19, 124067, Note_on_c, 12, 62, 0
19, 124080, Note_on_c, 12, 62, 84
19, 124147, Note_on_c, 12, 62, 0
19, 124160, Note_on_c, 12, 62, 84
19, 124227, Note_on_c, 12, 62, 0
19, 124240, Note_on_c, 12, 62, 84
19, 124307, Note_on_c, 12, 62, 0
19, 124320, Note_on_c, 12, 60, 84
19, 124387, Note_on_c, 12, 60, 0
19, 124400, Note_on_c, 12, 64, 84
19, 124467, Note_on_c, 12, 64, 0
19, 124480, Note_on_c, 12, 64, 84
19, 124547, Note_on_c, 12, 64, 0
19, 124560, Note_on_c, 12, 64, 84
19, 124627, Note_on_c, 12, 64, 0
19, 124640, Note_on_c, 12, 64, 84
19, 124707, Note_on_c, 12, 64, 0
19, 124720, Note_on_c, 12, 64, 84
19, 124787, Note_on_c, 12, 64, 0
19, 124800, Note_on_c, 12, 59, 84
19, 124867, Note_on_c, 12, 59, 0
19, 124880, Note_on_c, 12, 62, 84
19, 124947, Note_on_c, 12, 62, 0
19, 124960, Note_on_c, 12, 62, 84
19, 125027, Note_on_c, 12, 62, 0
19, 125040, Note_on_c, 12, 62, 84
19, 125107, Note_on_c, 12, 62, 0
19, 125120, Note_on_c, 12, 62, 84
19, 125187, Note_on_c, 12, 62, 0
19, 125200, Note_on_c, 12, 62, 84
19, 125267, Note_on_c, 12, 62, 0
19, 125280, Note_on_c, 12, 62, 84
19, 125504, Note_on_c, 12, 62, 0
19, 125520, Note_on_c, 12, 59, 52
19, 125599, Note_on_c, 12, 59, 0
19, 125600, Note_on_c, 12, 60, 52
19, 125679, Note_on_c, 12, 60, 0
19, 125680, Note_on_c, 12, 62, 52
19, 125759, Note_on_c, 12, 62, 0
19, 125760, Note_on_c, 12, 60, 52
19, 125999, Note_on_c, 12, 60, 0
19, 126000, Note_on_c, 12, 57, 52
19, 126079, Note_on_c, 12, 57, 0
19, 126080, Note_on_c, 12, 59, 52
19, 126159, Note_on_c, 12, 59, 0
19, 126160, Note_on_c, 12, 60, 52
19, 126239, Note_on_c, 12, 60, 0
19, 126240, Note_on_c, 12, 59, 52
19, 126479, Note_on_c, 12, 59, 0
19, 126480, Note_on_c, 12, 55, 52
19, 126559, Note_on_c, 12, 55, 0
19, 126560, Note_on_c, 12, 57, 52
19, 126639, Note_on_c, 12, 57, 0
19, 126640, Note_on_c, 12, 59, 52
19, 126707, Note_on_c, 12, 59, 0
19, 126720, Note_on_c, 12, 60, 52
19, 126899, Note_on_c, 12, 60, 0
19, 126958, Control_c, 12, 11, 80
19, 126960, Note_on_c, 12, 66, 76
19, 126960, Control_c, 12, 11, 80
19, 127000, Control_c, 12, 11, 84
19, 127039, Note_on_c, 12, 66, 0
19, 127040, Control_c, 12, 11, 88
19, 127040, Note_on_c, 12, 67, 76
19, 127080, Control_c, 12, 11, 92
19, 127119, Note_on_c, 12, 67, 0
19, 127120, Control_c, 12, 11, 96
19, 127120, Note_on_c, 12, 69, 76
19, 127160, Control_c, 12, 11, 100
19, 127187, Note_on_c, 12, 69, 0
19, 127200, Note_on_c, 12, 62, 76
19, 127200, Control_c, 12, 11, 104
19, 127240, Control_c, 12, 11, 107
19, 127280, Control_c, 12, 11, 111
19, 127320, Control_c, 12, 11, 115
19, 127360, Control_c, 12, 11, 119
19, 127400, Control_c, 12, 11, 127
19, 127424, Note_on_c, 12, 62, 0
19, 127440, Note_on_c, 12, 60, 76
19, 127507, Note_on_c, 12, 60, 0
19, 127520, Note_on_c, 12, 59, 76
19, 127587, Note_on_c, 12, 59, 0
19, 127600, Note_on_c, 12, 57, 76
19, 127667, Note_on_c, 12, 57, 0
19, 127680, Note_on_c, 12, 67, 76
19, 127747, Note_on_c, 12, 67, 0
19, 127760, Note_on_c, 12, 79, 76
19, 127827, Note_on_c, 12, 79, 0
19, 127840, Note_on_c, 12, 79, 76
19, 127907, Note_on_c, 12, 79, 0
19, 127920, Note_on_c, 12, 79, 76
19, 127987, Note_on_c, 12, 79, 0
19, 128000, Note_on_c, 12, 78, 76
19, 128067, Note_on_c, 12, 78, 0
19, 128080, Note_on_c, 12, 77, 76
19, 128147, Note_on_c, 12, 77, 0
19, 128160, Note_on_c, 12, 76, 76
19, 128227, Note_on_c, 12, 76, 0
19, 128240, Note_on_c, 12, 76, 76
19, 128307, Note_on_c, 12, 76, 0
19, 128320, Note_on_c, 12, 76, 76
19, 128387, Note_on_c, 12, 76, 0
19, 128400, Note_on_c, 12, 76, 76
19, 128467, Note_on_c, 12, 76, 0
19, 128480, Note_on_c, 12, 74, 76
19, 128547, Note_on_c, 12, 74, 0
19, 128560, Note_on_c, 12, 72, 76
19, 128627, Note_on_c, 12, 72, 0
19, 128640, Note_on_c, 12, 74, 76
19, 128707, Note_on_c, 12, 74, 0
19, 128720, Note_on_c, 12, 62, 76
19, 128787, Note_on_c, 12, 62, 0
19, 128800, Note_on_c, 12, 62, 76
19, 128867, Note_on_c, 12, 62, 0
19, 128880, Note_on_c, 12, 62, 76
19, 128947, Note_on_c, 12, 62, 0
19, 128960, Note_on_c, 12, 62, 76
19, 129027, Note_on_c, 12, 62, 0
19, 129040, Note_on_c, 12, 62, 76
19, 129107, Note_on_c, 12, 62, 0
19, 129120, Note_on_c, 12, 62, 76
19, 129344, Note_on_c, 12, 62, 0
19, 129360, Note_on_c, 12, 59, 52
19, 129439, Note_on_c, 12, 59, 0
19, 129440, Note_on_c, 12, 60, 52
19, 129519, Note_on_c, 12, 60, 0
19, 129520, Note_on_c, 12, 62, 52
19, 129599, Note_on_c, 12, 62, 0
19, 129600, Note_on_c, 12, 60, 52
19, 129839, Note_on_c, 12, 60, 0
19, 129840, Note_on_c, 12, 57, 52
19, 129919, Note_on_c, 12, 57, 0
19, 129920, Note_on_c, 12, 59, 52
19, 129999, Note_on_c, 12, 59, 0
19, 130000, Note_on_c, 12, 60, 52
19, 130079, Note_on_c, 12, 60, 0
19, 130080, Note_on_c, 12, 59, 52
19, 130319, Note_on_c, 12, 59, 0
19, 130320, Note_on_c, 12, 55, 52
19, 130399, Note_on_c, 12, 55, 0
19, 130400, Note_on_c, 12, 57, 52
19, 130479, Note_on_c, 12, 57, 0
19, 130480, Note_on_c, 12, 59, 52
19, 130559, Note_on_c, 12, 59, 0
19, 130560, Note_on_c, 12, 60, 52
19, 130784, Note_on_c, 12, 60, 0
19, 130800, Note_on_c, 12, 62, 76
19, 130867, Note_on_c, 12, 62, 0
19, 130880, Note_on_c, 12, 64, 76
19, 130947, Note_on_c, 12, 64, 0
19, 130960, Note_on_c, 12, 66, 76
19, 131027, Note_on_c, 12, 66, 0
19, 131040, Note_on_c, 12, 67, 76
19, 131264, Note_on_c, 12, 67, 0
19, 131280, Note_on_c, 12, 60, 52
19, 131359, Note_on_c, 12, 60, 0
19, 131360, Note_on_c, 12, 62, 52
19, 131439, Note_on_c, 12, 62, 0
19, 131440, Note_on_c, 12, 64, 52
19, 131519, Note_on_c, 12, 64, 0
19, 131520, Note_on_c, 12, 62, 52
19, 131759, Note_on_c, 12, 62, 0
19, 131760, Note_on_c, 12, 59, 52
19, 131839, Note_on_c, 12, 59, 0
19, 131840, Note_on_c, 12, 60, 52
19, 131919, Note_on_c, 12, 60, 0
19, 131920, Note_on_c, 12, 62, 52
19, 131999, Note_on_c, 12, 62, 0
19, 132000, Note_on_c, 12, 60, 52
19, 132239, Note_on_c, 12, 60, 0
19, 132240, Note_on_c, 12, 57, 52
19, 132319, Note_on_c, 12, 57, 0
19, 132320, Note_on_c, 12, 59, 52
19, 132399, Note_on_c, 12, 59, 0
19, 132400, Note_on_c, 12, 60, 52
19, 132479, Note_on_c, 12, 60, 0
19, 132480, Note_on_c, 12, 62, 52
19, 132704, Note_on_c, 12, 62, 0
19, 132720, Note_on_c, 12, 64, 76
19, 132787, Note_on_c, 12, 64, 0
19, 132800, Note_on_c, 12, 66, 76
19, 132867, Note_on_c, 12, 66, 0
19, 132880, Note_on_c, 12, 68, 76
19, 132947, Note_on_c, 12, 68, 0
19, 132960, Note_on_c, 12, 69, 76
19, 133184, Note_on_c, 12, 69, 0
19, 133200, Note_on_c, 12, 67, 44
19, 133279, Note_on_c, 12, 67, 0
19, 133280, Note_on_c, 12, 65, 44
19, 133359, Note_on_c, 12, 65, 0
19, 133360, Note_on_c, 12, 64, 44
19, 133439, Note_on_c, 12, 64, 0
19, 133440, Note_on_c, 12, 62, 44
19, 133679, Note_on_c, 12, 62, 0
19, 133680, Note_on_c, 12, 65, 44
19, 133759, Note_on_c, 12, 65, 0
19, 133760, Note_on_c, 12, 64, 44
19, 133839, Note_on_c, 12, 64, 0
19, 133840, Note_on_c, 12, 62, 44
19, 133919, Note_on_c, 12, 62, 0
19, 133920, Note_on_c, 12, 60, 44
19, 134159, Note_on_c, 12, 60, 0
19, 134160, Note_on_c, 12, 64, 44
19, 134239, Note_on_c, 12, 64, 0
19, 134240, Note_on_c, 12, 62, 44
19, 134319, Note_on_c, 12, 62, 0
19, 134320, Note_on_c, 12, 60, 44
19, 134387, Note_on_c, 12, 60, 0
19, 134400, Note_on_c, 12, 59, 44
19, 134451, Note_on_c, 12, 59, 0
19, 134460, Note_on_c, 12, 71, 44
19, 134511, Note_on_c, 12, 71, 0
19, 134520, Note_on_c, 12, 71, 45
19, 134571, Note_on_c, 12, 71, 0
19, 134580, Note_on_c, 12, 71, 46
19, 134631, Note_on_c, 12, 71, 0
19, 134640, Note_on_c, 12, 71, 47
19, 134691, Note_on_c, 12, 71, 0
19, 134700, Note_on_c, 12, 71, 49
19, 134751, Note_on_c, 12, 71, 0
19, 134760, Note_on_c, 12, 71, 50
19, 134811, Note_on_c, 12, 71, 0
19, 134820, Note_on_c, 12, 71, 51
19, 134871, Note_on_c, 12, 71, 0
19, 134880, Note_on_c, 12, 71, 53
19, 134931, Note_on_c, 12, 71, 0
19, 134940, Note_on_c, 12, 71, 54
19, 134991, Note_on_c, 12, 71, 0
19, 135000, Note_on_c, 12, 71, 55
19, 135051, Note_on_c, 12, 71, 0
19, 135060, Note_on_c, 12, 71, 56
19, 135111, Note_on_c, 12, 71, 0
19, 135120, Note_on_c, 12, 71, 58
19, 135171, Note_on_c, 12, 71, 0
19, 135180, Note_on_c, 12, 71, 59
19, 135231, Note_on_c, 12, 71, 0
19, 135240, Note_on_c, 12, 71, 60
19, 135291, Note_on_c, 12, 71, 0
19, 135300, Note_on_c, 12, 71, 62
19, 135351, Note_on_c, 12, 71, 0
19, 135360, Note_on_c, 12, 71, 63
19, 135411, Note_on_c, 12, 71, 0
19, 135420, Note_on_c, 12, 71, 64
19, 135471, Note_on_c, 12, 71, 0
19, 135480, Note_on_c, 12, 71, 65
19, 135531, Note_on_c, 12, 71, 0
19, 135540, Note_on_c, 12, 71, 67
19, 135591, Note_on_c, 12, 71, 0
19, 135600, Note_on_c, 12, 71, 68
19, 135651, Note_on_c, 12, 71, 0
19, 135660, Note_on_c, 12, 71, 69
19, 135711, Note_on_c, 12, 71, 0
19, 135720, Note_on_c, 12, 71, 71
19, 135771, Note_on_c, 12, 71, 0
19, 135780, Note_on_c, 12, 71, 72
19, 135831, Note_on_c, 12, 71, 0
19, 135840, Note_on_c, 12, 71, 73
19, 135891, Note_on_c, 12, 71, 0
19, 135900, Note_on_c, 12, 71, 74
19, 135951, Note_on_c, 12, 71, 0
19, 135960, Note_on_c, 12, 71, 76
19, 136011, Note_on_c, 12, 71, 0
19, 136020, Note_on_c, 12, 71, 77
19, 136071, Note_on_c, 12, 71, 0
19, 136080, Note_on_c, 12, 71, 78
19, 136131, Note_on_c, 12, 71, 0
19, 136140, Note_on_c, 12, 71, 80
19, 136191, Note_on_c, 12, 71, 0
19, 136200, Note_on_c, 12, 71, 81
19, 136251, Note_on_c, 12, 71, 0
19, 136260, Note_on_c, 12, 71, 82
19, 136311, Note_on_c, 12, 71, 0
19, 136320, Note_on_c, 12, 72, 84
19, 136371, Note_on_c, 12, 72, 0
19, 136380, Note_on_c, 12, 72, 84
19, 136431, Note_on_c, 12, 72, 0
19, 136440, Note_on_c, 12, 72, 84
19, 136491, Note_on_c, 12, 72, 0
19, 136500, Note_on_c, 12, 72, 84
19, 136551, Note_on_c, 12, 72, 0
19, 136560, Note_on_c, 12, 72, 84
19, 136611, Note_on_c, 12, 72, 0
19, 136620, Note_on_c, 12, 72, 84
19, 136671, Note_on_c, 12, 72, 0
19, 136680, Note_on_c, 12, 72, 84
19, 136731, Note_on_c, 12, 72, 0
19, 136740, Note_on_c, 12, 72, 84
19, 136791, Note_on_c, 12, 72, 0
19, 136800, Note_on_c, 12, 72, 84
19, 136851, Note_on_c, 12, 72, 0
19, 136860, Note_on_c, 12, 60, 84
19, 136911, Note_on_c, 12, 60, 0
19, 136920, Note_on_c, 12, 62, 84
19, 136971, Note_on_c, 12, 62, 0
19, 136980, Note_on_c, 12, 64, 84
19, 137031, Note_on_c, 12, 64, 0
19, 137040, Note_on_c, 12, 65, 84
19, 137091, Note_on_c, 12, 65, 0
19, 137100, Note_on_c, 12, 67, 84
19, 137151, Note_on_c, 12, 67, 0
19, 137160, Note_on_c, 12, 69, 84
19, 137211, Note_on_c, 12, 69, 0
19, 137220, Note_on_c, 12, 71, 84
19, 137271, Note_on_c, 12, 71, 0
19, 137280, Note_on_c, 12, 72, 84
19, 137331, Note_on_c, 12, 72, 0
19, 137340, Note_on_c, 12, 60, 84
19, 137391, Note_on_c, 12, 60, 0
19, 137400, Note_on_c, 12, 62, 84
19, 137451, Note_on_c, 12, 62, 0
19, 137460, Note_on_c, 12, 64, 84
19, 137511, Note_on_c, 12, 64, 0
19, 137520, Note_on_c, 12, 65, 84
19, 137571, Note_on_c, 12, 65, 0
19, 137580, Note_on_c, 12, 67, 84
19, 137631, Note_on_c, 12, 67, 0
19, 137640, Note_on_c, 12, 69, 84
19, 137691, Note_on_c, 12, 69, 0
19, 137700, Note_on_c, 12, 71, 84
19, 137751, Note_on_c, 12, 71, 0
19, 137760, Note_on_c, 12, 72, 84
19, 137811, Note_on_c, 12, 72, 0
19, 137820, Note_on_c, 12, 64, 84
19, 137871, Note_on_c, 12, 64, 0
19, 137880, Note_on_c, 12, 65, 84
19, 137931, Note_on_c, 12, 65, 0
19, 137940, Note_on_c, 12, 67, 84
19, 137991, Note_on_c, 12, 67, 0
19, 138000, Note_on_c, 12, 69, 84
19, 138051, Note_on_c, 12, 69, 0
19, 138060, Note_on_c, 12, 71, 84
19, 138111, Note_on_c, 12, 71, 0
19, 138120, Note_on_c, 12, 72, 84
19, 138171, Note_on_c, 12, 72, 0
19, 138180, Note_on_c, 12, 74, 84
19, 138231, Note_on_c, 12, 74, 0
19, 138240, Note_on_c, 12, 76, 84
19, 138291, Note_on_c, 12, 76, 0
19, 138300, Note_on_c, 12, 74, 84
19, 138351, Note_on_c, 12, 74, 0
19, 138360, Note_on_c, 12, 76, 84
19, 138411, Note_on_c, 12, 76, 0
19, 138420, Note_on_c, 12, 77, 84
19, 138471, Note_on_c, 12, 77, 0
19, 138480, Note_on_c, 12, 79, 84
19, 138531, Note_on_c, 12, 79, 0
19, 138540, Note_on_c, 12, 79, 84
19, 138591, Note_on_c, 12, 79, 0
19, 138600, Note_on_c, 12, 79, 84
19, 138651, Note_on_c, 12, 79, 0
19, 138660, Note_on_c, 12, 79, 84
19, 138711, Note_on_c, 12, 79, 0
19, 138720, Note_on_c, 12, 79, 84
19, 138771, Note_on_c, 12, 79, 0
19, 138780, Note_on_c, 12, 79, 84
19, 138831, Note_on_c, 12, 79, 0
19, 138840, Note_on_c, 12, 79, 84
19, 138891, Note_on_c, 12, 79, 0
19, 138900, Note_on_c, 12, 79, 84
19, 138951, Note_on_c, 12, 79, 0
19, 138960, Note_on_c, 12, 79, 84
19, 139011, Note_on_c, 12, 79, 0
19, 139020, Note_on_c, 12, 79, 84
19, 139071, Note_on_c, 12, 79, 0
19, 139080, Note_on_c, 12, 79, 84
19, 139131, Note_on_c, 12, 79, 0
19, 139140, Note_on_c, 12, 79, 84
19, 139191, Note_on_c, 12, 79, 0
19, 139200, Note_on_c, 12, 79, 84
19, 139251, Note_on_c, 12, 79, 0
19, 139260, Note_on_c, 12, 79, 84
19, 139311, Note_on_c, 12, 79, 0
19, 139320, Note_on_c, 12, 78, 84
19, 139371, Note_on_c, 12, 78, 0
19, 139380, Note_on_c, 12, 76, 84
19, 139431, Note_on_c, 12, 76, 0
19, 139440, Note_on_c, 12, 74, 84
19, 139491, Note_on_c, 12, 74, 0
19, 139500, Note_on_c, 12, 72, 84
19, 139551, Note_on_c, 12, 72, 0
19, 139560, Note_on_c, 12, 71, 84
19, 139611, Note_on_c, 12, 71, 0
19, 139620, Note_on_c, 12, 69, 84
19, 139671, Note_on_c, 12, 69, 0
19, 139680, Note_on_c, 12, 67, 84
19, 139731, Note_on_c, 12, 67, 0
19, 139740, Note_on_c, 12, 66, 84
19, 139791, Note_on_c, 12, 66, 0
19, 139800, Note_on_c, 12, 64, 84
19, 139851, Note_on_c, 12, 64, 0
19, 139860, Note_on_c, 12, 62, 84
19, 139911, Note_on_c, 12, 62, 0
19, 139920, Note_on_c, 12, 60, 84
19, 139971, Note_on_c, 12, 60, 0
19, 139980, Note_on_c, 12, 59, 84
19, 140031, Note_on_c, 12, 59, 0
19, 140040, Note_on_c, 12, 57, 84
19, 140091, Note_on_c, 12, 57, 0
19, 140100, Note_on_c, 12, 55, 84
19, 140151, Note_on_c, 12, 55, 0
19, 140160, Note_on_c, 12, 69, 84
19, 140339, Note_on_c, 12, 69, 0
19, 141120, Note_on_c, 12, 62, 84
19, 141120, Note_on_c, 12, 66, 84
19, 141120, Note_on_c, 12, 69, 84
19, 141299, Note_on_c, 12, 62, 0
19, 141299, Note_on_c, 12, 66, 0
19, 141299, Note_on_c, 12, 69, 0
19, 142560, Note_on_c, 12, 63, 76
19, 142619, Note_on_c, 12, 63, 0
19, 142620, Note_on_c, 12, 63, 52
19, 143039, Note_on_c, 12, 63, 0
19, 143040, Note_on_c, 12, 64, 52
19, 143279, Note_on_c, 12, 64, 0
19, 144480, Note_on_c, 12, 63, 76
19, 144539, Note_on_c, 12, 63, 0
19, 144540, Note_on_c, 12, 63, 52
19, 144959, Note_on_c, 12, 63, 0
19, 144960, Note_on_c, 12, 64, 52
19, 145199, Note_on_c, 12, 64, 0
19, 146400, Note_on_c, 12, 68, 76
19, 146459, Note_on_c, 12, 68, 0
19, 146460, Note_on_c, 12, 68, 52
19, 146879, Note_on_c, 12, 68, 0
19, 146880, Note_on_c, 12, 69, 52
19, 147119, Note_on_c, 12, 69, 0
19, 149760, Note_on_c, 12, 67, 76
19, 149811, Note_on_c, 12, 67, 0
19, 149820, Note_on_c, 12, 67, 76
19, 149871, Note_on_c, 12, 67, 0
19, 149880, Note_on_c, 12, 67, 76
19, 149931, Note_on_c, 12, 67, 0
19, 149940, Note_on_c, 12, 67, 76
19, 149991, Note_on_c, 12, 67, 0
19, 150000, Note_on_c, 12, 67, 76
19, 150051, Note_on_c, 12, 67, 0
19, 150060, Note_on_c, 12, 67, 76
19, 150111, Note_on_c, 12, 67, 0
19, 150120, Note_on_c, 12, 67, 76
19, 150171, Note_on_c, 12, 67, 0
19, 150180, Note_on_c, 12, 67, 76
19, 150231, Note_on_c, 12, 67, 0
19, 150240, Note_on_c, 12, 67, 76
19, 150291, Note_on_c, 12, 67, 0
19, 150300, Note_on_c, 12, 67, 76
19, 150351, Note_on_c, 12, 67, 0
19, 150360, Note_on_c, 12, 67, 76
19, 150411, Note_on_c, 12, 67, 0
19, 150420, Note_on_c, 12, 67, 76
19, 150471, Note_on_c, 12, 67, 0
19, 150480, Note_on_c, 12, 66, 76
19, 150531, Note_on_c, 12, 66, 0
19, 150540, Note_on_c, 12, 66, 76
19, 150591, Note_on_c, 12, 66, 0
19, 150600, Note_on_c, 12, 66, 76
19, 150651, Note_on_c, 12, 66, 0
19, 150660, Note_on_c, 12, 66, 76
19, 150711, Note_on_c, 12, 66, 0
19, 150720, Note_on_c, 12, 64, 76
19, 150771, Note_on_c, 12, 64, 0
19, 150780, Note_on_c, 12, 64, 76
19, 150831, Note_on_c, 12, 64, 0
19, 150840, Note_on_c, 12, 64, 76
19, 150891, Note_on_c, 12, 64, 0
19, 150900, Note_on_c, 12, 64, 76
19, 150951, Note_on_c, 12, 64, 0
19, 150960, Note_on_c, 12, 62, 76
19, 151011, Note_on_c, 12, 62, 0
19, 151020, Note_on_c, 12, 62, 76
19, 151071, Note_on_c, 12, 62, 0
19, 151080, Note_on_c, 12, 62, 76
19, 151131, Note_on_c, 12, 62, 0
19, 151140, Note_on_c, 12, 62, 76
19, 151191, Note_on_c, 12, 62, 0
19, 151200, Note_on_c, 12, 62, 76
19, 151251, Note_on_c, 12, 62, 0
19, 151260, Note_on_c, 12, 62, 76
19, 151311, Note_on_c, 12, 62, 0
19, 151320, Note_on_c, 12, 62, 76
19, 151371, Note_on_c, 12, 62, 0
19, 151380, Note_on_c, 12, 62, 76
19, 151431, Note_on_c, 12, 62, 0
19, 151440, Note_on_c, 12, 62, 76
19, 151491, Note_on_c, 12, 62, 0
19, 151500, Note_on_c, 12, 62, 76
19, 151551, Note_on_c, 12, 62, 0
19, 151560, Note_on_c, 12, 62, 76
19, 151611, Note_on_c, 12, 62, 0
19, 151620, Note_on_c, 12, 62, 76
19, 151671, Note_on_c, 12, 62, 0
19, 151680, Note_on_c, 12, 67, 84
19, 151731, Note_on_c, 12, 67, 0
19, 151740, Note_on_c, 12, 67, 76
19, 151791, Note_on_c, 12, 67, 0
19, 151800, Note_on_c, 12, 67, 76
19, 151851, Note_on_c, 12, 67, 0
19, 151860, Note_on_c, 12, 67, 76
19, 151911, Note_on_c, 12, 67, 0
19, 151920, Note_on_c, 12, 67, 76
19, 151971, Note_on_c, 12, 67, 0
19, 151980, Note_on_c, 12, 67, 76
19, 152031, Note_on_c, 12, 67, 0
19, 152040, Note_on_c, 12, 67, 76
19, 152091, Note_on_c, 12, 67, 0
19, 152100, Note_on_c, 12, 67, 76
19, 152151, Note_on_c, 12, 67, 0
19, 152160, Note_on_c, 12, 67, 76
19, 152211, Note_on_c, 12, 67, 0
19, 152220, Note_on_c, 12, 67, 76
19, 152271, Note_on_c, 12, 67, 0
19, 152280, Note_on_c, 12, 67, 76
19, 152331, Note_on_c, 12, 67, 0
19, 152340, Note_on_c, 12, 67, 76
19, 152391, Note_on_c, 12, 67, 0
19, 152400, Note_on_c, 12, 66, 76
19, 152451, Note_on_c, 12, 66, 0
19, 152460, Note_on_c, 12, 66, 76
19, 152511, Note_on_c, 12, 66, 0
19, 152520, Note_on_c, 12, 66, 76
19, 152571, Note_on_c, 12, 66, 0
19, 152580, Note_on_c, 12, 66, 76
19, 152631, Note_on_c, 12, 66, 0
19, 152640, Note_on_c, 12, 64, 76
19, 152691, Note_on_c, 12, 64, 0
19, 152700, Note_on_c, 12, 64, 76
19, 152751, Note_on_c, 12, 64, 0
19, 152760, Note_on_c, 12, 64, 76
19, 152811, Note_on_c, 12, 64, 0
19, 152820, Note_on_c, 12, 64, 76
19, 152871, Note_on_c, 12, 64, 0
19, 152880, Note_on_c, 12, 62, 76
19, 152931, Note_on_c, 12, 62, 0
19, 152940, Note_on_c, 12, 62, 76
19, 152991, Note_on_c, 12, 62, 0
19, 153000, Note_on_c, 12, 62, 76
19, 153051, Note_on_c, 12, 62, 0
19, 153060, Note_on_c, 12, 62, 76
19, 153111, Note_on_c, 12, 62, 0
19, 153120, Note_on_c, 12, 62, 76
19, 153171, Note_on_c, 12, 62, 0
19, 153180, Note_on_c, 12, 62, 76
19, 153231, Note_on_c, 12, 62, 0
19, 153240, Note_on_c, 12, 62, 76
19, 153291, Note_on_c, 12, 62, 0
19, 153300, Note_on_c, 12, 62, 76
19, 153351, Note_on_c, 12, 62, 0
19, 153360, Note_on_c, 12, 62, 76
19, 153411, Note_on_c, 12, 62, 0
19, 153420, Note_on_c, 12, 62, 76
19, 153471, Note_on_c, 12, 62, 0
19, 153480, Note_on_c, 12, 62, 76
19, 153531, Note_on_c, 12, 62, 0
19, 153540, Note_on_c, 12, 62, 76
19, 153591, Note_on_c, 12, 62, 0
19, 153600, Note_on_c, 12, 72, 84
19, 153651, Note_on_c, 12, 72, 0
19, 153660, Note_on_c, 12, 72, 76
19, 153711, Note_on_c, 12, 72, 0
19, 153720, Note_on_c, 12, 72, 76
19, 153771, Note_on_c, 12, 72, 0
19, 153780, Note_on_c, 12, 72, 76
19, 153831, Note_on_c, 12, 72, 0
19, 153840, Note_on_c, 12, 72, 76
19, 153891, Note_on_c, 12, 72, 0
19, 153900, Note_on_c, 12, 72, 76
19, 153951, Note_on_c, 12, 72, 0
19, 153960, Note_on_c, 12, 72, 76
19, 154011, Note_on_c, 12, 72, 0
19, 154020, Note_on_c, 12, 72, 76
19, 154071, Note_on_c, 12, 72, 0
19, 154080, Note_on_c, 12, 72, 76
19, 154131, Note_on_c, 12, 72, 0
19, 154140, Note_on_c, 12, 72, 76
19, 154191, Note_on_c, 12, 72, 0
19, 154200, Note_on_c, 12, 72, 76
19, 154251, Note_on_c, 12, 72, 0
19, 154260, Note_on_c, 12, 72, 76
19, 154311, Note_on_c, 12, 72, 0
19, 154320, Note_on_c, 12, 71, 76
19, 154371, Note_on_c, 12, 71, 0
19, 154380, Note_on_c, 12, 71, 76
19, 154431, Note_on_c, 12, 71, 0
19, 154440, Note_on_c, 12, 71, 76
19, 154491, Note_on_c, 12, 71, 0
19, 154500, Note_on_c, 12, 71, 76
19, 154551, Note_on_c, 12, 71, 0
19, 154560, Note_on_c, 12, 69, 76
19, 154611, Note_on_c, 12, 69, 0
19, 154620, Note_on_c, 12, 69, 76
19, 154671, Note_on_c, 12, 69, 0
19, 154680, Note_on_c, 12, 69, 76
19, 154731, Note_on_c, 12, 69, 0
19, 154740, Note_on_c, 12, 69, 76
19, 154791, Note_on_c, 12, 69, 0
19, 154800, Note_on_c, 12, 68, 80
19, 154851, Note_on_c, 12, 68, 0
19, 154860, Note_on_c, 12, 68, 80
19, 154911, Note_on_c, 12, 68, 0
19, 154920, Note_on_c, 12, 68, 80
19, 154971, Note_on_c, 12, 68, 0
19, 154980, Note_on_c, 12, 68, 80
19, 155031, Note_on_c, 12, 68, 0
19, 155040, Note_on_c, 12, 68, 80
19, 155091, Note_on_c, 12, 68, 0
19, 155100, Note_on_c, 12, 68, 80
19, 155151, Note_on_c, 12, 68, 0
19, 155160, Note_on_c, 12, 68, 80
19, 155211, Note_on_c, 12, 68, 0
19, 155220, Note_on_c, 12, 68, 80
19, 155271, Note_on_c, 12, 68, 0
19, 155280, Note_on_c, 12, 68, 80
19, 155331, Note_on_c, 12, 68, 0
19, 155340, Note_on_c, 12, 68, 80
19, 155391, Note_on_c, 12, 68, 0
19, 155400, Note_on_c, 12, 68, 80
19, 155451, Note_on_c, 12, 68, 0
19, 155460, Note_on_c, 12, 68, 80
19, 155511, Note_on_c, 12, 68, 0
19, 155520, Note_on_c, 12, 68, 80
19, 155571, Note_on_c, 12, 68, 0
19, 155580, Note_on_c, 12, 68, 80
19, 155631, Note_on_c, 12, 68, 0
19, 155640, Note_on_c, 12, 68, 80
19, 155691, Note_on_c, 12, 68, 0
19, 155700, Note_on_c, 12, 68, 80
19, 155751, Note_on_c, 12, 68, 0
19, 155760, Note_on_c, 12, 68, 80
19, 155811, Note_on_c, 12, 68, 0
19, 155820, Note_on_c, 12, 68, 80
19, 155871, Note_on_c, 12, 68, 0
19, 155880, Note_on_c, 12, 68, 80
19, 155931, Note_on_c, 12, 68, 0
19, 155940, Note_on_c, 12, 68, 80
19, 155991, Note_on_c, 12, 68, 0
19, 156000, Note_on_c, 12, 68, 80
19, 156051, Note_on_c, 12, 68, 0
19, 156060, Note_on_c, 12, 68, 80
19, 156111, Note_on_c, 12, 68, 0
19, 156120, Note_on_c, 12, 68, 80
19, 156171, Note_on_c, 12, 68, 0
19, 156180, Note_on_c, 12, 68, 80
19, 156231, Note_on_c, 12, 68, 0
19, 156240, Note_on_c, 12, 68, 80
19, 156291, Note_on_c, 12, 68, 0
19, 156300, Note_on_c, 12, 68, 80
19, 156351, Note_on_c, 12, 68, 0
19, 156360, Note_on_c, 12, 68, 80
19, 156411, Note_on_c, 12, 68, 0
19, 156420, Note_on_c, 12, 68, 80
19, 156471, Note_on_c, 12, 68, 0
19, 156480, Note_on_c, 12, 68, 80
19, 156531, Note_on_c, 12, 68, 0
19, 156540, Note_on_c, 12, 68, 80
19, 156591, Note_on_c, 12, 68, 0
19, 156600, Note_on_c, 12, 68, 80
19, 156651, Note_on_c, 12, 68, 0
19, 156660, Note_on_c, 12, 68, 80
19, 156711, Note_on_c, 12, 68, 0
19, 156720, Note_on_c, 12, 80, 80
19, 156771, Note_on_c, 12, 80, 0
19, 156780, Note_on_c, 12, 80, 80
19, 156831, Note_on_c, 12, 80, 0
19, 156840, Note_on_c, 12, 80, 80
19, 156891, Note_on_c, 12, 80, 0
19, 156900, Note_on_c, 12, 80, 80
19, 156951, Note_on_c, 12, 80, 0
19, 156960, Note_on_c, 12, 80, 80
19, 157011, Note_on_c, 12, 80, 0
19, 157020, Note_on_c, 12, 80, 80
19, 157071, Note_on_c, 12, 80, 0
19, 157080, Note_on_c, 12, 80, 80
19, 157131, Note_on_c, 12, 80, 0
19, 157140, Note_on_c, 12, 80, 80
19, 157191, Note_on_c, 12, 80, 0
19, 157200, Note_on_c, 12, 80, 80
19, 157251, Note_on_c, 12, 80, 0
19, 157260, Note_on_c, 12, 80, 80
19, 157311, Note_on_c, 12, 80, 0
19, 157320, Note_on_c, 12, 80, 80
19, 157371, Note_on_c, 12, 80, 0
19, 157380, Note_on_c, 12, 80, 80
19, 157431, Note_on_c, 12, 80, 0
19, 157440, Note_on_c, 12, 80, 84
19, 158399, Note_on_c, 12, 80, 0
19, 158400, Note_on_c, 12, 80, 84
19, 159344, Note_on_c, 12, 80, 0
19, 159360, Note_on_c, 12, 59, 84
19, 159449, Note_on_c, 12, 59, 0
19, 159480, Note_on_c, 12, 55, 84
19, 159569, Note_on_c, 12, 55, 0
19, 159600, Note_on_c, 12, 59, 84
19, 159719, Note_on_c, 12, 59, 0
19, 159720, Note_on_c, 12, 55, 84
19, 159824, Note_on_c, 12, 55, 0
19, 159840, Note_on_c, 12, 59, 84
19, 159929, Note_on_c, 12, 59, 0
19, 159960, Note_on_c, 12, 55, 84
19, 160049, Note_on_c, 12, 55, 0
19, 160080, Note_on_c, 12, 59, 84
19, 160199, Note_on_c, 12, 59, 0
19, 160200, Note_on_c, 12, 55, 84
19, 160304, Note_on_c, 12, 55, 0
19, 160320, Note_on_c, 12, 59, 84
19, 160439, Note_on_c, 12, 59, 0
19, 160440, Note_on_c, 12, 55, 84
19, 160544, Note_on_c, 12, 55, 0
19, 160560, Note_on_c, 12, 62, 84
19, 160679, Note_on_c, 12, 62, 0
19, 160680, Note_on_c, 12, 59, 84
19, 160784, Note_on_c, 12, 59, 0
19, 160800, Note_on_c, 12, 62, 84
19, 160889, Note_on_c, 12, 62, 0
19, 160920, Note_on_c, 12, 59, 84
19, 161009, Note_on_c, 12, 59, 0
19, 161040, Note_on_c, 12, 65, 84
19, 161159, Note_on_c, 12, 65, 0
19, 161160, Note_on_c, 12, 62, 84
19, 161264, Note_on_c, 12, 62, 0
19, 161280, Note_on_c, 12, 65, 84
19, 161369, Note_on_c, 12, 65, 0
19, 161400, Note_on_c, 12, 62, 84
19, 161489, Note_on_c, 12, 62, 0
19, 161520, Note_on_c, 12, 71, 84
19, 161609, Note_on_c, 12, 71, 0
19, 161640, Note_on_c, 12, 65, 84
19, 161729, Note_on_c, 12, 65, 0
19, 161760, Note_on_c, 12, 74, 84
19, 161849, Note_on_c, 12, 74, 0
19, 161880, Note_on_c, 12, 71, 84
19, 161969, Note_on_c, 12, 71, 0
19, 162000, Note_on_c, 12, 77, 84
19, 162089, Note_on_c, 12, 77, 0
19, 162120, Note_on_c, 12, 74, 84
19, 162209, Note_on_c, 12, 74, 0
19, 162240, Note_on_c, 12, 83, 84
19, 162329, Note_on_c, 12, 83, 0
19, 162360, Note_on_c, 12, 77, 84
19, 162449, Note_on_c, 12, 77, 0
19, 162480, Note_on_c, 12, 83, 84
19, 162480, Note_on_c, 12, 74, 84
19, 162531, Note_on_c, 12, 83, 0
19, 162531, Note_on_c, 12, 74, 0
19, 162540, Note_on_c, 12, 83, 84
19, 162540, Note_on_c, 12, 74, 84
19, 162591, Note_on_c, 12, 83, 0
19, 162591, Note_on_c, 12, 74, 0
19, 162600, Note_on_c, 12, 83, 84
19, 162600, Note_on_c, 12, 74, 84
19, 162651, Note_on_c, 12, 83, 0
19, 162651, Note_on_c, 12, 74, 0
19, 162660, Note_on_c, 12, 74, 84
19, 162660, Note_on_c, 12, 83, 84
19, 162711, Note_on_c, 12, 74, 0
19, 162711, Note_on_c, 12, 83, 0
19, 162720, Note_on_c, 12, 83, 84
19, 162720, Note_on_c, 12, 74, 84
19, 162771, Note_on_c, 12, 83, 0
19, 162771, Note_on_c, 12, 74, 0
19, 162780, Note_on_c, 12, 83, 84
19, 162780, Note_on_c, 12, 74, 84
19, 162831, Note_on_c, 12, 83, 0
19, 162831, Note_on_c, 12, 74, 0
19, 162840, Note_on_c, 12, 74, 84
19, 162840, Note_on_c, 12, 83, 84
19, 162891, Note_on_c, 12, 74, 0
19, 162891, Note_on_c, 12, 83, 0
19, 162900, Note_on_c, 12, 74, 84
19, 162900, Note_on_c, 12, 83, 84
19, 162951, Note_on_c, 12, 74, 0
19, 162951, Note_on_c, 12, 83, 0
19, 162960, Note_on_c, 12, 74, 84
19, 162960, Note_on_c, 12, 83, 84
19, 163011, Note_on_c, 12, 74, 0
19, 163011, Note_on_c, 12, 83, 0
19, 163020, Note_on_c, 12, 83, 84
19, 163020, Note_on_c, 12, 74, 84
19, 163071, Note_on_c, 12, 83, 0
19, 163071, Note_on_c, 12, 74, 0
19, 163080, Note_on_c, 12, 83, 84
19, 163080, Note_on_c, 12, 74, 84
19, 163131, Note_on_c, 12, 83, 0
19, 163131, Note_on_c, 12, 74, 0
19, 163140, Note_on_c, 12, 83, 84
19, 163140, Note_on_c, 12, 74, 84
19, 163191, Note_on_c, 12, 83, 0
19, 163191, Note_on_c, 12, 74, 0
19, 163200, Note_on_c, 12, 74, 84
19, 163200, Note_on_c, 12, 83, 84
19, 163251, Note_on_c, 12, 74, 0
19, 163251, Note_on_c, 12, 83, 0
19, 163260, Note_on_c, 12, 83, 84
19, 163260, Note_on_c, 12, 74, 84
19, 163311, Note_on_c, 12, 83, 0
19, 163311, Note_on_c, 12, 74, 0
19, 163320, Note_on_c, 12, 83, 84
19, 163320, Note_on_c, 12, 74, 84
19, 163371, Note_on_c, 12, 83, 0
19, 163371, Note_on_c, 12, 74, 0
19, 163380, Note_on_c, 12, 74, 84
19, 163380, Note_on_c, 12, 83, 84
19, 163431, Note_on_c, 12, 74, 0
19, 163431, Note_on_c, 12, 83, 0
19, 163440, Note_on_c, 12, 83, 84
19, 163440, Note_on_c, 12, 74, 84
19, 163491, Note_on_c, 12, 83, 0
19, 163491, Note_on_c, 12, 74, 0
19, 163500, Note_on_c, 12, 83, 84
19, 163500, Note_on_c, 12, 74, 84
19, 163551, Note_on_c, 12, 83, 0
19, 163551, Note_on_c, 12, 74, 0
19, 163560, Note_on_c, 12, 83, 84
19, 163560, Note_on_c, 12, 74, 84
19, 163611, Note_on_c, 12, 83, 0
19, 163611, Note_on_c, 12, 74, 0
19, 163620, Note_on_c, 12, 74, 84
19, 163620, Note_on_c, 12, 83, 84
19, 163671, Note_on_c, 12, 74, 0
19, 163671, Note_on_c, 12, 83, 0
19, 163680, Note_on_c, 12, 83, 84
19, 163680, Note_on_c, 12, 74, 84
19, 163731, Note_on_c, 12, 83, 0
19, 163731, Note_on_c, 12, 74, 0
19, 163740, Note_on_c, 12, 74, 84
19, 163740, Note_on_c, 12, 83, 84
19, 163791, Note_on_c, 12, 74, 0
19, 163791, Note_on_c, 12, 83, 0
19, 163800, Note_on_c, 12, 74, 84
19, 163800, Note_on_c, 12, 83, 84
19, 163851, Note_on_c, 12, 74, 0
19, 163851, Note_on_c, 12, 83, 0
19, 163860, Note_on_c, 12, 74, 84
19, 163860, Note_on_c, 12, 83, 84
19, 163911, Note_on_c, 12, 74, 0
19, 163911, Note_on_c, 12, 83, 0
19, 163920, Note_on_c, 12, 74, 84
19, 163920, Note_on_c, 12, 83, 84
19, 163971, Note_on_c, 12, 74, 0
19, 163971, Note_on_c, 12, 83, 0
19, 163980, Note_on_c, 12, 83, 84
19, 163980, Note_on_c, 12, 74, 84
19, 164031, Note_on_c, 12, 83, 0
19, 164031, Note_on_c, 12, 74, 0
19, 164040, Note_on_c, 12, 83, 84
19, 164040, Note_on_c, 12, 74, 84
19, 164091, Note_on_c, 12, 83, 0
19, 164091, Note_on_c, 12, 74, 0
19, 164100, Note_on_c, 12, 83, 84
19, 164100, Note_on_c, 12, 74, 84
19, 164151, Note_on_c, 12, 83, 0
19, 164151, Note_on_c, 12, 74, 0
19, 164160, Note_on_c, 12, 74, 84
19, 164160, Note_on_c, 12, 83, 84
19, 164211, Note_on_c, 12, 74, 0
19, 164211, Note_on_c, 12, 83, 0
19, 164220, Note_on_c, 12, 83, 84
19, 164220, Note_on_c, 12, 74, 84
19, 164271, Note_on_c, 12, 83, 0
19, 164271, Note_on_c, 12, 74, 0
19, 164280, Note_on_c, 12, 74, 84
19, 164280, Note_on_c, 12, 83, 84
19, 164331, Note_on_c, 12, 74, 0
19, 164331, Note_on_c, 12, 83, 0
19, 164340, Note_on_c, 12, 83, 84
19, 164340, Note_on_c, 12, 74, 84
19, 164391, Note_on_c, 12, 83, 0
19, 164391, Note_on_c, 12, 74, 0
19, 164400, Note_on_c, 12, 74, 84
19, 164400, Note_on_c, 12, 83, 84
19, 164451, Note_on_c, 12, 74, 0
19, 164451, Note_on_c, 12, 83, 0
19, 164460, Note_on_c, 12, 83, 84
19, 164460, Note_on_c, 12, 74, 84
19, 164511, Note_on_c, 12, 83, 0
19, 164511, Note_on_c, 12, 74, 0
19, 164520, Note_on_c, 12, 74, 84
19, 164520, Note_on_c, 12, 83, 84
19, 164571, Note_on_c, 12, 74, 0
19, 164571, Note_on_c, 12, 83, 0
19, 164580, Note_on_c, 12, 74, 84
19, 164580, Note_on_c, 12, 83, 84
19, 164631, Note_on_c, 12, 74, 0
19, 164631, Note_on_c, 12, 83, 0
19, 164640, Note_on_c, 12, 83, 84
19, 164640, Note_on_c, 12, 74, 84
19, 164691, Note_on_c, 12, 83, 0
19, 164691, Note_on_c, 12, 74, 0
19, 164700, Note_on_c, 12, 83, 84
19, 164700, Note_on_c, 12, 74, 84
19, 164751, Note_on_c, 12, 83, 0
19, 164751, Note_on_c, 12, 74, 0
19, 164760, Note_on_c, 12, 83, 84
19, 164760, Note_on_c, 12, 74, 84
19, 164811, Note_on_c, 12, 83, 0
19, 164811, Note_on_c, 12, 74, 0
19, 164820, Note_on_c, 12, 74, 84
19, 164820, Note_on_c, 12, 83, 84
19, 164871, Note_on_c, 12, 74, 0
19, 164871, Note_on_c, 12, 83, 0
19, 164880, Note_on_c, 12, 83, 84
19, 164880, Note_on_c, 12, 74, 84
19, 164931, Note_on_c, 12, 83, 0
19, 164931, Note_on_c, 12, 74, 0
19, 164940, Note_on_c, 12, 74, 84
19, 164940, Note_on_c, 12, 83, 84
19, 164991, Note_on_c, 12, 74, 0
19, 164991, Note_on_c, 12, 83, 0
19, 165000, Note_on_c, 12, 83, 84
19, 165000, Note_on_c, 12, 74, 84
19, 165051, Note_on_c, 12, 83, 0
19, 165051, Note_on_c, 12, 74, 0
19, 165060, Note_on_c, 12, 83, 84
19, 165060, Note_on_c, 12, 74, 84
19, 165111, Note_on_c, 12, 83, 0
19, 165111, Note_on_c, 12, 74, 0
19, 165120, Note_on_c, 12, 64, 84
19, 165209, Note_on_c, 12, 64, 0
19, 165240, Note_on_c, 12, 59, 84
19, 165329, Note_on_c, 12, 59, 0
19, 165360, Note_on_c, 12, 68, 84
19, 165449, Note_on_c, 12, 68, 0
19, 165480, Note_on_c, 12, 64, 84
19, 165569, Note_on_c, 12, 64, 0
19, 165600, Note_on_c, 12, 71, 84
19, 165689, Note_on_c, 12, 71, 0
19, 165720, Note_on_c, 12, 68, 84
19, 165809, Note_on_c, 12, 68, 0
19, 165840, Note_on_c, 12, 76, 84
19, 165929, Note_on_c, 12, 76, 0
19, 165960, Note_on_c, 12, 71, 84
19, 166049, Note_on_c, 12, 71, 0
19, 166080, Note_on_c, 12, 80, 84
19, 166131, Note_on_c, 12, 80, 0
19, 166140, Note_on_c, 12, 83, 84
19, 166140, Note_on_c, 12, 74, 84
19, 166191, Note_on_c, 12, 83, 0
19, 166191, Note_on_c, 12, 74, 0
19, 166200, Note_on_c, 12, 74, 84
19, 166200, Note_on_c, 12, 83, 84
19, 166251, Note_on_c, 12, 74, 0
19, 166251, Note_on_c, 12, 83, 0
19, 166260, Note_on_c, 12, 83, 84
19, 166260, Note_on_c, 12, 74, 84
19, 166311, Note_on_c, 12, 83, 0
19, 166311, Note_on_c, 12, 74, 0
19, 166320, Note_on_c, 12, 74, 84
19, 166320, Note_on_c, 12, 83, 84
19, 166371, Note_on_c, 12, 74, 0
19, 166371, Note_on_c, 12, 83, 0
19, 166380, Note_on_c, 12, 83, 84
19, 166380, Note_on_c, 12, 74, 84
19, 166431, Note_on_c, 12, 83, 0
19, 166431, Note_on_c, 12, 74, 0
19, 166440, Note_on_c, 12, 83, 84
19, 166440, Note_on_c, 12, 74, 84
19, 166491, Note_on_c, 12, 83, 0
19, 166491, Note_on_c, 12, 74, 0
19, 166500, Note_on_c, 12, 74, 84
19, 166500, Note_on_c, 12, 83, 84
19, 166551, Note_on_c, 12, 74, 0
19, 166551, Note_on_c, 12, 83, 0
19, 166560, Note_on_c, 12, 83, 84
19, 166560, Note_on_c, 12, 74, 84
19, 166611, Note_on_c, 12, 83, 0
19, 166611, Note_on_c, 12, 74, 0
19, 166620, Note_on_c, 12, 74, 84
19, 166620, Note_on_c, 12, 83, 84
19, 166671, Note_on_c, 12, 74, 0
19, 166671, Note_on_c, 12, 83, 0
19, 166680, Note_on_c, 12, 74, 84
19, 166680, Note_on_c, 12, 83, 84
19, 166731, Note_on_c, 12, 74, 0
19, 166731, Note_on_c, 12, 83, 0
19, 166740, Note_on_c, 12, 83, 84
19, 166740, Note_on_c, 12, 74, 84
19, 166791, Note_on_c, 12, 83, 0
19, 166791, Note_on_c, 12, 74, 0
19, 166800, Note_on_c, 12, 74, 84
19, 166800, Note_on_c, 12, 83, 84
19, 166851, Note_on_c, 12, 74, 0
19, 166851, Note_on_c, 12, 83, 0
19, 166860, Note_on_c, 12, 83, 84
19, 166860, Note_on_c, 12, 74, 84
19, 166911, Note_on_c, 12, 83, 0
19, 166911, Note_on_c, 12, 74, 0
19, 166920, Note_on_c, 12, 74, 84
19, 166920, Note_on_c, 12, 83, 84
19, 166971, Note_on_c, 12, 74, 0
19, 166971, Note_on_c, 12, 83, 0
19, 166980, Note_on_c, 12, 74, 84
19, 166980, Note_on_c, 12, 83, 84
19, 167031, Note_on_c, 12, 74, 0
19, 167031, Note_on_c, 12, 83, 0
19, 167040, Note_on_c, 12, 81, 84
19, 167040, Note_on_c, 12, 73, 84
19, 167107, Note_on_c, 12, 81, 0
19, 167107, Note_on_c, 12, 73, 0
19, 167120, Note_on_c, 12, 64, 84
19, 167187, Note_on_c, 12, 64, 0
19, 167200, Note_on_c, 12, 64, 84
19, 167267, Note_on_c, 12, 64, 0
19, 167280, Note_on_c, 12, 61, 84
19, 167347, Note_on_c, 12, 61, 0
19, 167360, Note_on_c, 12, 64, 84
19, 167427, Note_on_c, 12, 64, 0
19, 167440, Note_on_c, 12, 64, 84
19, 167507, Note_on_c, 12, 64, 0
19, 167520, Note_on_c, 12, 62, 84
19, 167587, Note_on_c, 12, 62, 0
19, 167600, Note_on_c, 12, 66, 84
19, 167667, Note_on_c, 12, 66, 0
19, 167680, Note_on_c, 12, 66, 84
19, 167747, Note_on_c, 12, 66, 0
19, 167760, Note_on_c, 12, 62, 84
19, 167827, Note_on_c, 12, 62, 0
19, 167840, Note_on_c, 12, 66, 84
19, 167907, Note_on_c, 12, 66, 0
19, 167920, Note_on_c, 12, 66, 84
19, 167987, Note_on_c, 12, 66, 0
19, 168000, Note_on_c, 12, 61, 84
19, 168067, Note_on_c, 12, 61, 0
19, 168080, Note_on_c, 12, 64, 84
19, 168147, Note_on_c, 12, 64, 0
19, 168160, Note_on_c, 12, 64, 84
19, 168227, Note_on_c, 12, 64, 0
19, 168240, Note_on_c, 12, 64, 84
19, 168307, Note_on_c, 12, 64, 0
19, 168320, Note_on_c, 12, 64, 84
19, 168387, Note_on_c, 12, 64, 0
19, 168400, Note_on_c, 12, 64, 84
19, 168467, Note_on_c, 12, 64, 0
19, 168480, Note_on_c, 12, 64, 84
19, 168704, Note_on_c, 12, 64, 0
19, 168720, Note_on_c, 12, 57, 52
19, 168799, Note_on_c, 12, 57, 0
19, 168800, Note_on_c, 12, 59, 52
19, 168879, Note_on_c, 12, 59, 0
19, 168880, Note_on_c, 12, 61, 52
19, 168959, Note_on_c, 12, 61, 0
19, 168960, Note_on_c, 12, 62, 52
19, 169199, Note_on_c, 12, 62, 0
19, 169200, Note_on_c, 12, 59, 52
19, 169279, Note_on_c, 12, 59, 0
19, 169280, Note_on_c, 12, 61, 52
19, 169359, Note_on_c, 12, 61, 0
19, 169360, Note_on_c, 12, 62, 52
19, 169439, Note_on_c, 12, 62, 0
19, 169440, Note_on_c, 12, 61, 52
19, 169679, Note_on_c, 12, 61, 0
19, 169680, Note_on_c, 12, 57, 52
19, 169759, Note_on_c, 12, 57, 0
19, 169760, Note_on_c, 12, 59, 52
19, 169839, Note_on_c, 12, 59, 0
19, 169840, Note_on_c, 12, 61, 52
19, 169907, Note_on_c, 12, 61, 0
19, 169920, Note_on_c, 12, 62, 52
19, 170624, Note_on_c, 12, 62, 0
19, 170640, Note_on_c, 12, 57, 52
19, 170719, Note_on_c, 12, 57, 0
19, 170720, Note_on_c, 12, 59, 52
19, 170799, Note_on_c, 12, 59, 0
19, 170800, Note_on_c, 12, 60, 52
19, 170879, Note_on_c, 12, 60, 0
19, 170880, Note_on_c, 12, 62, 52
19, 171119, Note_on_c, 12, 62, 0
19, 171120, Note_on_c, 12, 59, 52
19, 171199, Note_on_c, 12, 59, 0
19, 171200, Note_on_c, 12, 60, 52
19, 171279, Note_on_c, 12, 60, 0
19, 171280, Note_on_c, 12, 62, 52
19, 171359, Note_on_c, 12, 62, 0
19, 171360, Note_on_c, 12, 60, 52
19, 171599, Note_on_c, 12, 60, 0
19, 171600, Note_on_c, 12, 57, 52
19, 171679, Note_on_c, 12, 57, 0
19, 171680, Note_on_c, 12, 59, 52
19, 171759, Note_on_c, 12, 59, 0
19, 171760, Note_on_c, 12, 60, 52
19, 171827, Note_on_c, 12, 60, 0
19, 171840, Note_on_c, 12, 62, 52
19, 172544, Note_on_c, 12, 62, 0
19, 172560, Note_on_c, 12, 60, 52
19, 172739, Note_on_c, 12, 60, 0
19, 172800, Note_on_c, 12, 58, 52
19, 173279, Note_on_c, 12, 58, 0
19, 173280, Note_on_c, 12, 57, 52
19, 173759, Note_on_c, 12, 57, 0
19, 173760, Note_on_c, 12, 58, 52
19, 174464, Note_on_c, 12, 58, 0
19, 174480, Note_on_c, 12, 57, 52
19, 174659, Note_on_c, 12, 57, 0
19, 174720, Note_on_c, 12, 58, 52
19, 175199, Note_on_c, 12, 58, 0
19, 175200, Note_on_c, 12, 57, 52
19, 175664, Note_on_c, 12, 57, 0
19, 175680, Note_on_c, 12, 58, 52
19, 175919, Note_on_c, 12, 58, 0
19, 177360, Note_on_c, 12, 66, 52
19, 177439, Note_on_c, 12, 66, 0
19, 177440, Note_on_c, 12, 67, 52
19, 177519, Note_on_c, 12, 67, 0
19, 177520, Note_on_c, 12, 69, 52
19, 177587, Note_on_c, 12, 69, 0
19, 177600, Note_on_c, 12, 70, 52
19, 177779, Note_on_c, 12, 70, 0
19, 178320, Note_on_c, 12, 68, 52
19, 178559, Note_on_c, 12, 68, 0
19, 178560, Note_on_c, 12, 67, 52
19, 178799, Note_on_c, 12, 67, 0
19, 178800, Note_on_c, 12, 71, 52
19, 179039, Note_on_c, 12, 71, 0
19, 179040, Note_on_c, 12, 72, 52
19, 179264, Note_on_c, 12, 72, 0
19, 179280, Note_on_c, 12, 72, 52
19, 179759, Note_on_c, 12, 72, 0
19, 181200, Note_on_c, 12, 64, 52
19, 181279, Note_on_c, 12, 64, 0
19, 181280, Note_on_c, 12, 66, 52
19, 181359, Note_on_c, 12, 66, 0
19, 181360, Note_on_c, 12, 68, 52
19, 181427, Note_on_c, 12, 68, 0
19, 181440, Note_on_c, 12, 69, 52
19, 181679, Note_on_c, 12, 69, 0
19, 181920, Control_c, 12, 11, 80
19, 182160, Note_on_c, 12, 58, 76
19, 182160, Control_c, 12, 11, 80
19, 182213, Control_c, 12, 11, 83
19, 182267, Control_c, 12, 11, 85
19, 182320, Control_c, 12, 11, 88
19, 182373, Control_c, 12, 11, 90
19, 182427, Control_c, 12, 11, 93
19, 182480, Control_c, 12, 11, 96
19, 182533, Control_c, 12, 11, 98
19, 182587, Control_c, 12, 11, 101
19, 182639, Note_on_c, 12, 58, 0
19, 182640, Note_on_c, 12, 60, 76
19, 182640, Control_c, 12, 11, 104
19, 182693, Control_c, 12, 11, 106
19, 182747, Control_c, 12, 11, 109
19, 182800, Control_c, 12, 11, 111
19, 182853, Control_c, 12, 11, 114
19, 182879, Note_on_c, 12, 60, 0
19, 182880, Note_on_c, 12, 62, 76
19, 182907, Control_c, 12, 11, 117
19, 182960, Control_c, 12, 11, 119
19, 183013, Control_c, 12, 11, 122
19, 183067, Control_c, 12, 11, 127
19, 183104, Note_on_c, 12, 62, 0
19, 183120, Note_on_c, 12, 65, 76
19, 183199, Note_on_c, 12, 65, 0
19, 183200, Note_on_c, 12, 63, 76
19, 183279, Note_on_c, 12, 63, 0
19, 183280, Note_on_c, 12, 62, 76
19, 183359, Note_on_c, 12, 62, 0
19, 183360, Note_on_c, 12, 60, 76
19, 183599, Note_on_c, 12, 60, 0
19, 183600, Note_on_c, 12, 63, 76
19, 183679, Note_on_c, 12, 63, 0
19, 183680, Note_on_c, 12, 62, 76
19, 183759, Note_on_c, 12, 62, 0
19, 183760, Note_on_c, 12, 60, 76
19, 183839, Note_on_c, 12, 60, 0
19, 183840, Note_on_c, 12, 58, 76
19, 184079, Note_on_c, 12, 58, 0
19, 184080, Note_on_c, 12, 62, 76
19, 184159, Note_on_c, 12, 62, 0
19, 184160, Note_on_c, 12, 60, 76
19, 184239, Note_on_c, 12, 60, 0
19, 184240, Note_on_c, 12, 58, 76
19, 184307, Note_on_c, 12, 58, 0
19, 184320, Note_on_c, 12, 65, 76
19, 184559, Note_on_c, 12, 65, 0
19, 185040, Note_on_c, 12, 69, 76
19, 185107, Note_on_c, 12, 69, 0
19, 185120, Note_on_c, 12, 70, 76
19, 185187, Note_on_c, 12, 70, 0
19, 185200, Note_on_c, 12, 72, 76
19, 185267, Note_on_c, 12, 72, 0
19, 185280, Note_on_c, 12, 65, 76
19, 185519, Note_on_c, 12, 65, 0
19, 186000, Note_on_c, 12, 66, 76
19, 186079, Note_on_c, 12, 66, 0
19, 186080, Note_on_c, 12, 65, 76
19, 186159, Note_on_c, 12, 65, 0
19, 186160, Note_on_c, 12, 63, 76
19, 186239, Note_on_c, 12, 63, 0
19, 186240, Note_on_c, 12, 61, 76
19, 186479, Note_on_c, 12, 61, 0
19, 186480, Note_on_c, 12, 65, 76
19, 186559, Note_on_c, 12, 65, 0
19, 186560, Note_on_c, 12, 63, 76
19, 186639, Note_on_c, 12, 63, 0
19, 186640, Note_on_c, 12, 61, 76
19, 186719, Note_on_c, 12, 61, 0
19, 186720, Note_on_c, 12, 60, 76
19, 186959, Note_on_c, 12, 60, 0
19, 186960, Note_on_c, 12, 63, 76
19, 187039, Note_on_c, 12, 63, 0
19, 187040, Note_on_c, 12, 61, 76
19, 187119, Note_on_c, 12, 61, 0
19, 187120, Note_on_c, 12, 60, 76
19, 187187, Note_on_c, 12, 60, 0
19, 187200, Note_on_c, 12, 58, 76
19, 187439, Note_on_c, 12, 58, 0
19, 187920, Note_on_c, 12, 73, 76
19, 187987, Note_on_c, 12, 73, 0
19, 188000, Note_on_c, 12, 75, 76
19, 188067, Note_on_c, 12, 75, 0
19, 188080, Note_on_c, 12, 77, 76
19, 188147, Note_on_c, 12, 77, 0
19, 188160, Note_on_c, 12, 70, 76
19, 188399, Note_on_c, 12, 70, 0
19, 188880, Note_on_c, 12, 68, 76
19, 188880, Note_on_c, 12, 56, 76
19, 189119, Note_on_c, 12, 68, 0
19, 189119, Note_on_c, 12, 56, 0
19, 189120, Note_on_c, 12, 56, 76
19, 189120, Note_on_c, 12, 68, 76
19, 190079, Note_on_c, 12, 56, 0
19, 190079, Note_on_c, 12, 68, 0
19, 190080, Note_on_c, 12, 68, 76
19, 190080, Note_on_c, 12, 56, 76
19, 190784, Note_on_c, 12, 68, 0
19, 190784, Note_on_c, 12, 56, 0
19, 190800, Note_on_c, 12, 72, 76
19, 190867, Note_on_c, 12, 72, 0
19, 190880, Note_on_c, 12, 73, 76
19, 190947, Note_on_c, 12, 73, 0
19, 190960, Note_on_c, 12, 75, 76
19, 191027, Note_on_c, 12, 75, 0
19, 191040, Note_on_c, 12, 68, 76
19, 191279, Note_on_c, 12, 68, 0
19, 192000, Note_on_c, 12, 59, 76
19, 192959, Note_on_c, 12, 59, 0
19, 192960, Note_on_c, 12, 59, 76
19, 193664, Note_on_c, 12, 59, 0
19, 193680, Note_on_c, 12, 74, 76
19, 193747, Note_on_c, 12, 74, 0
19, 193760, Note_on_c, 12, 75, 76
19, 193827, Note_on_c, 12, 75, 0
19, 193840, Note_on_c, 12, 77, 76
19, 193907, Note_on_c, 12, 77, 0
19, 193920, Note_on_c, 12, 71, 76
19, 194159, Note_on_c, 12, 71, 0
19, 194640, Note_on_c, 12, 65, 76
19, 194819, Note_on_c, 12, 65, 0
19, 194880, Note_on_c, 12, 64, 76
19, 195239, Note_on_c, 12, 64, 0
19, 195360, Note_on_c, 12, 65, 76
19, 195719, Note_on_c, 12, 65, 0
19, 195840, Note_on_c, 12, 67, 76
19, 197504, Note_on_c, 12, 67, 0
19, 197520, Note_on_c, 12, 65, 76
19, 197699, Note_on_c, 12, 65, 0
19, 197760, Note_on_c, 12, 64, 80
19, 198464, Note_on_c, 12, 64, 0
19, 198480, Note_on_c, 12, 67, 80
19, 198659, Note_on_c, 12, 67, 0
19, 198720, Note_on_c, 12, 65, 80
19, 199424, Note_on_c, 12, 65, 0
19, 199440, Note_on_c, 12, 68, 80
19, 199619, Note_on_c, 12, 68, 0
19, 199680, Note_on_c, 12, 67, 80
19, 200384, Note_on_c, 12, 67, 0
19, 200400, Note_on_c, 12, 70, 80
19, 200579, Note_on_c, 12, 70, 0
19, 200640, Note_on_c, 12, 68, 80
19, 201344, Note_on_c, 12, 68, 0
19, 201360, Note_on_c, 12, 72, 80
19, 201539, Note_on_c, 12, 72, 0
19, 201600, Note_on_c, 12, 71, 80
19, 202304, Note_on_c, 12, 71, 0
19, 202320, Note_on_c, 12, 74, 80
19, 202499, Note_on_c, 12, 74, 0
19, 202560, Note_on_c, 12, 72, 80
19, 203264, Note_on_c, 12, 72, 0
19, 203280, Note_on_c, 12, 75, 80
19, 203459, Note_on_c, 12, 75, 0
19, 203520, Note_on_c, 12, 74, 80
19, 204224, Note_on_c, 12, 74, 0
19, 204240, Note_on_c, 12, 77, 80
19, 204419, Note_on_c, 12, 77, 0
19, 204480, Note_on_c, 12, 75, 80
19, 205184, Note_on_c, 12, 75, 0
19, 205200, Note_on_c, 12, 79, 80
19, 205379, Note_on_c, 12, 79, 0
19, 205440, Note_on_c, 12, 69, 80
19, 205440, Note_on_c, 12, 78, 80
19, 205507, Note_on_c, 12, 69, 0
19, 205507, Note_on_c, 12, 78, 0
19, 205520, Note_on_c, 12, 78, 80
19, 205520, Note_on_c, 12, 69, 80
19, 205587, Note_on_c, 12, 78, 0
19, 205587, Note_on_c, 12, 69, 0
19, 205600, Note_on_c, 12, 69, 80
19, 205600, Note_on_c, 12, 78, 80
19, 205667, Note_on_c, 12, 69, 0
19, 205667, Note_on_c, 12, 78, 0
19, 205680, Note_on_c, 12, 78, 80
19, 205680, Note_on_c, 12, 69, 80
19, 205747, Note_on_c, 12, 78, 0
19, 205747, Note_on_c, 12, 69, 0
19, 205760, Note_on_c, 12, 69, 80
19, 205760, Note_on_c, 12, 78, 80
19, 205827, Note_on_c, 12, 69, 0
19, 205827, Note_on_c, 12, 78, 0
19, 205840, Note_on_c, 12, 69, 80
19, 205840, Note_on_c, 12, 78, 80
19, 205907, Note_on_c, 12, 69, 0
19, 205907, Note_on_c, 12, 78, 0
19, 205920, Note_on_c, 12, 69, 80
19, 205920, Note_on_c, 12, 78, 80
19, 205987, Note_on_c, 12, 69, 0
19, 205987, Note_on_c, 12, 78, 0
19, 206000, Note_on_c, 12, 78, 80
19, 206000, Note_on_c, 12, 69, 80
19, 206067, Note_on_c, 12, 78, 0
19, 206067, Note_on_c, 12, 69, 0
19, 206080, Note_on_c, 12, 69, 80
19, 206080, Note_on_c, 12, 78, 80
19, 206147, Note_on_c, 12, 69, 0
19, 206147, Note_on_c, 12, 78, 0
19, 206160, Note_on_c, 12, 78, 80
19, 206160, Note_on_c, 12, 69, 80
19, 206227, Note_on_c, 12, 78, 0
19, 206227, Note_on_c, 12, 69, 0
19, 206240, Note_on_c, 12, 69, 80
19, 206240, Note_on_c, 12, 78, 80
19, 206307, Note_on_c, 12, 69, 0
19, 206307, Note_on_c, 12, 78, 0
19, 206320, Note_on_c, 12, 78, 80
19, 206320, Note_on_c, 12, 69, 80
19, 206387, Note_on_c, 12, 78, 0
19, 206387, Note_on_c, 12, 69, 0
19, 206400, Note_on_c, 12, 69, 80
19, 206400, Note_on_c, 12, 78, 80
19, 206467, Note_on_c, 12, 69, 0
19, 206467, Note_on_c, 12, 78, 0
19, 206480, Note_on_c, 12, 78, 80
19, 206480, Note_on_c, 12, 69, 80
19, 206547, Note_on_c, 12, 78, 0
19, 206547, Note_on_c, 12, 69, 0
19, 206560, Note_on_c, 12, 78, 80
19, 206560, Note_on_c, 12, 69, 80
19, 206627, Note_on_c, 12, 78, 0
19, 206627, Note_on_c, 12, 69, 0
19, 206640, Note_on_c, 12, 78, 80
19, 206640, Note_on_c, 12, 69, 80
19, 206707, Note_on_c, 12, 78, 0
19, 206707, Note_on_c, 12, 69, 0
19, 206720, Note_on_c, 12, 69, 80
19, 206720, Note_on_c, 12, 78, 80
19, 206787, Note_on_c, 12, 69, 0
19, 206787, Note_on_c, 12, 78, 0
19, 206800, Note_on_c, 12, 78, 80
19, 206800, Note_on_c, 12, 69, 80
19, 206867, Note_on_c, 12, 78, 0
19, 206867, Note_on_c, 12, 69, 0
19, 206880, Note_on_c, 12, 69, 80
19, 206880, Note_on_c, 12, 78, 80
19, 206947, Note_on_c, 12, 69, 0
19, 206947, Note_on_c, 12, 78, 0
19, 206960, Note_on_c, 12, 78, 80
19, 206960, Note_on_c, 12, 69, 80
19, 207027, Note_on_c, 12, 78, 0
19, 207027, Note_on_c, 12, 69, 0
19, 207040, Note_on_c, 12, 78, 80
19, 207040, Note_on_c, 12, 69, 80
19, 207107, Note_on_c, 12, 78, 0
19, 207107, Note_on_c, 12, 69, 0
19, 207120, Note_on_c, 12, 69, 80
19, 207120, Note_on_c, 12, 78, 80
19, 207187, Note_on_c, 12, 69, 0
19, 207187, Note_on_c, 12, 78, 0
19, 207200, Note_on_c, 12, 78, 80
19, 207200, Note_on_c, 12, 69, 80
19, 207267, Note_on_c, 12, 78, 0
19, 207267, Note_on_c, 12, 69, 0
19, 207280, Note_on_c, 12, 69, 80
19, 207280, Note_on_c, 12, 78, 80
19, 207347, Note_on_c, 12, 69, 0
19, 207347, Note_on_c, 12, 78, 0
19, 207360, Note_on_c, 12, 71, 84
19, 207360, Note_on_c, 12, 79, 84
19, 208064, Note_on_c, 12, 71, 0
19, 208064, Note_on_c, 12, 79, 0
19, 208080, Note_on_c, 12, 79, 84
19, 208147, Note_on_c, 12, 79, 0
19, 208160, Note_on_c, 12, 77, 84
19, 208227, Note_on_c, 12, 77, 0
19, 208240, Note_on_c, 12, 76, 84
19, 208307, Note_on_c, 12, 76, 0
19, 208320, Note_on_c, 12, 74, 84
19, 208387, Note_on_c, 12, 74, 0
19, 208400, Note_on_c, 12, 73, 84
19, 208467, Note_on_c, 12, 73, 0
19, 208480, Note_on_c, 12, 74, 84
19, 208547, Note_on_c, 12, 74, 0
19, 208560, Note_on_c, 12, 77, 84
19, 208627, Note_on_c, 12, 77, 0
19, 208640, Note_on_c, 12, 76, 84
19, 208707, Note_on_c, 12, 76, 0
19, 208720, Note_on_c, 12, 74, 84
19, 208787, Note_on_c, 12, 74, 0
19, 208800, Note_on_c, 12, 72, 84
19, 208867, Note_on_c, 12, 72, 0
19, 208880, Note_on_c, 12, 71, 84
19, 208947, Note_on_c, 12, 71, 0
19, 208960, Note_on_c, 12, 72, 84
19, 209027, Note_on_c, 12, 72, 0
19, 209040, Note_on_c, 12, 76, 84
19, 209107, Note_on_c, 12, 76, 0
19, 209120, Note_on_c, 12, 74, 84
19, 209187, Note_on_c, 12, 74, 0
19, 209200, Note_on_c, 12, 72, 84
19, 209267, Note_on_c, 12, 72, 0
19, 209280, Note_on_c, 12, 71, 84
19, 209347, Note_on_c, 12, 71, 0
19, 209360, Note_on_c, 12, 69, 84
19, 209427, Note_on_c, 12, 69, 0
19, 209440, Note_on_c, 12, 71, 84
19, 209507, Note_on_c, 12, 71, 0
19, 209520, Note_on_c, 12, 74, 84
19, 209587, Note_on_c, 12, 74, 0
19, 209600, Note_on_c, 12, 72, 84
19, 209667, Note_on_c, 12, 72, 0
19, 209680, Note_on_c, 12, 71, 84
19, 209747, Note_on_c, 12, 71, 0
19, 209760, Note_on_c, 12, 67, 84
19, 209827, Note_on_c, 12, 67, 0
19, 209840, Note_on_c, 12, 77, 84
19, 209907, Note_on_c, 12, 77, 0
19, 209920, Note_on_c, 12, 79, 84
19, 209987, Note_on_c, 12, 79, 0
19, 210000, Note_on_c, 12, 81, 84
19, 210067, Note_on_c, 12, 81, 0
19, 210080, Note_on_c, 12, 79, 84
19, 210147, Note_on_c, 12, 79, 0
19, 210160, Note_on_c, 12, 77, 84
19, 210227, Note_on_c, 12, 77, 0
19, 210240, Note_on_c, 12, 77, 84
19, 210307, Note_on_c, 12, 77, 0
19, 210320, Note_on_c, 12, 76, 84
19, 210387, Note_on_c, 12, 76, 0
19, 210400, Note_on_c, 12, 77, 84
19, 210467, Note_on_c, 12, 77, 0
19, 210480, Note_on_c, 12, 79, 84
19, 210547, Note_on_c, 12, 79, 0
19, 210560, Note_on_c, 12, 77, 84
19, 210627, Note_on_c, 12, 77, 0
19, 210640, Note_on_c, 12, 76, 84
19, 210707, Note_on_c, 12, 76, 0
19, 210720, Note_on_c, 12, 76, 84
19, 210787, Note_on_c, 12, 76, 0
19, 210800, Note_on_c, 12, 74, 84
19, 210867, Note_on_c, 12, 74, 0
19, 210880, Note_on_c, 12, 76, 84
19, 210947, Note_on_c, 12, 76, 0
19, 210960, Note_on_c, 12, 77, 84
19, 211027, Note_on_c, 12, 77, 0
19, 211040, Note_on_c, 12, 76, 84
19, 211107, Note_on_c, 12, 76, 0
19, 211120, Note_on_c, 12, 74, 84
19, 211187, Note_on_c, 12, 74, 0
19, 211200, Note_on_c, 12, 74, 84
19, 211267, Note_on_c, 12, 74, 0
19, 211280, Note_on_c, 12, 72, 84
19, 211347, Note_on_c, 12, 72, 0
19, 211360, Note_on_c, 12, 74, 84
19, 211427, Note_on_c, 12, 74, 0
19, 211440, Note_on_c, 12, 76, 84
19, 211507, Note_on_c, 12, 76, 0
19, 211520, Note_on_c, 12, 74, 84
19, 211587, Note_on_c, 12, 74, 0
19, 211600, Note_on_c, 12, 72, 84
19, 211667, Note_on_c, 12, 72, 0
19, 211680, Note_on_c, 12, 72, 84
19, 211747, Note_on_c, 12, 72, 0
19, 211760, Note_on_c, 12, 76, 84
19, 211827, Note_on_c, 12, 76, 0
19, 211840, Note_on_c, 12, 77, 84
19, 211907, Note_on_c, 12, 77, 0
19, 211920, Note_on_c, 12, 79, 84
19, 211987, Note_on_c, 12, 79, 0
19, 212000, Note_on_c, 12, 77, 84
19, 212067, Note_on_c, 12, 77, 0
19, 212080, Note_on_c, 12, 76, 84
19, 212147, Note_on_c, 12, 76, 0
19, 212160, Note_on_c, 12, 74, 84
19, 212227, Note_on_c, 12, 74, 0
19, 212240, Note_on_c, 12, 72, 84
19, 212307, Note_on_c, 12, 72, 0
19, 212320, Note_on_c, 12, 74, 84
19, 212387, Note_on_c, 12, 74, 0
19, 212400, Note_on_c, 12, 77, 84
19, 212467, Note_on_c, 12, 77, 0
19, 212480, Note_on_c, 12, 76, 84
19, 212547, Note_on_c, 12, 76, 0
19, 212560, Note_on_c, 12, 74, 84
19, 212627, Note_on_c, 12, 74, 0
19, 212640, Note_on_c, 12, 76, 84
19, 212707, Note_on_c, 12, 76, 0
19, 212720, Note_on_c, 12, 74, 84
19, 212787, Note_on_c, 12, 74, 0
19, 212800, Note_on_c, 12, 76, 84
19, 212867, Note_on_c, 12, 76, 0
19, 212880, Note_on_c, 12, 79, 84
19, 212947, Note_on_c, 12, 79, 0
19, 212960, Note_on_c, 12, 77, 84
19, 213027, Note_on_c, 12, 77, 0
19, 213040, Note_on_c, 12, 76, 84
19, 213107, Note_on_c, 12, 76, 0
19, 213120, Note_on_c, 12, 77, 84
19, 213187, Note_on_c, 12, 77, 0
19, 213200, Note_on_c, 12, 76, 84
19, 213267, Note_on_c, 12, 76, 0
19, 213280, Note_on_c, 12, 77, 84
19, 213347, Note_on_c, 12, 77, 0
19, 213360, Note_on_c, 12, 81, 84
19, 213427, Note_on_c, 12, 81, 0
19, 213440, Note_on_c, 12, 79, 84
19, 213507, Note_on_c, 12, 79, 0
19, 213520, Note_on_c, 12, 77, 84
19, 213587, Note_on_c, 12, 77, 0
19, 213600, Note_on_c, 12, 77, 84
19, 213667, Note_on_c, 12, 77, 0
19, 213680, Note_on_c, 12, 76, 84
19, 213747, Note_on_c, 12, 76, 0
19, 213760, Note_on_c, 12, 77, 84
19, 213827, Note_on_c, 12, 77, 0
19, 213840, Note_on_c, 12, 81, 84
19, 213907, Note_on_c, 12, 81, 0
19, 213920, Note_on_c, 12, 79, 84
19, 213987, Note_on_c, 12, 79, 0
19, 214000, Note_on_c, 12, 77, 84
19, 214067, Note_on_c, 12, 77, 0
19, 214080, Note_on_c, 12, 76, 84
19, 214147, Note_on_c, 12, 76, 0
19, 214160, Note_on_c, 12, 74, 84
19, 214227, Note_on_c, 12, 74, 0
19, 214240, Note_on_c, 12, 76, 84
19, 214307, Note_on_c, 12, 76, 0
19, 214320, Note_on_c, 12, 79, 84
19, 214387, Note_on_c, 12, 79, 0
19, 214400, Note_on_c, 12, 77, 84
19, 214467, Note_on_c, 12, 77, 0
19, 214480, Note_on_c, 12, 76, 84
19, 214547, Note_on_c, 12, 76, 0
19, 214560, Note_on_c, 12, 77, 84
19, 214627, Note_on_c, 12, 77, 0
19, 214640, Note_on_c, 12, 76, 84
19, 214707, Note_on_c, 12, 76, 0
19, 214720, Note_on_c, 12, 77, 84
19, 214787, Note_on_c, 12, 77, 0
19, 214800, Note_on_c, 12, 81, 84
19, 214867, Note_on_c, 12, 81, 0
19, 214880, Note_on_c, 12, 79, 84
19, 214947, Note_on_c, 12, 79, 0
19, 214960, Note_on_c, 12, 77, 84
19, 215027, Note_on_c, 12, 77, 0
19, 215040, Note_on_c, 12, 79, 92
19, 215107, Note_on_c, 12, 79, 0
19, 215120, Note_on_c, 12, 76, 84
19, 215187, Note_on_c, 12, 76, 0
19, 215200, Note_on_c, 12, 76, 84
19, 215267, Note_on_c, 12, 76, 0
19, 215280, Note_on_c, 12, 76, 84
19, 215347, Note_on_c, 12, 76, 0
19, 215360, Note_on_c, 12, 76, 84
19, 215427, Note_on_c, 12, 76, 0
19, 215440, Note_on_c, 12, 76, 84
19, 215507, Note_on_c, 12, 76, 0
19, 215520, Note_on_c, 12, 76, 84
19, 215587, Note_on_c, 12, 76, 0
19, 215600, Note_on_c, 12, 76, 84
19, 215667, Note_on_c, 12, 76, 0
19, 215680, Note_on_c, 12, 76, 84
19, 215747, Note_on_c, 12, 76, 0
19, 215760, Note_on_c, 12, 76, 84
19, 215827, Note_on_c, 12, 76, 0
19, 215840, Note_on_c, 12, 76, 84
19, 215907, Note_on_c, 12, 76, 0
19, 215920, Note_on_c, 12, 76, 84
19, 215987, Note_on_c, 12, 76, 0
19, 216000, Note_on_c, 12, 77, 92
19, 216067, Note_on_c, 12, 77, 0
19, 216080, Note_on_c, 12, 77, 84
19, 216147, Note_on_c, 12, 77, 0
19, 216160, Note_on_c, 12, 77, 84
19, 216227, Note_on_c, 12, 77, 0
19, 216240, Note_on_c, 12, 77, 84
19, 216307, Note_on_c, 12, 77, 0
19, 216320, Note_on_c, 12, 77, 84
19, 216387, Note_on_c, 12, 77, 0
19, 216400, Note_on_c, 12, 77, 84
19, 216467, Note_on_c, 12, 77, 0
19, 216480, Note_on_c, 12, 77, 84
19, 216547, Note_on_c, 12, 77, 0
19, 216560, Note_on_c, 12, 77, 84
19, 216627, Note_on_c, 12, 77, 0
19, 216640, Note_on_c, 12, 77, 84
19, 216707, Note_on_c, 12, 77, 0
19, 216720, Note_on_c, 12, 77, 84
19, 216787, Note_on_c, 12, 77, 0
19, 216800, Note_on_c, 12, 77, 84
19, 216867, Note_on_c, 12, 77, 0
19, 216880, Note_on_c, 12, 77, 84
19, 216947, Note_on_c, 12, 77, 0
19, 216960, Note_on_c, 12, 78, 84
19, 216960, Note_on_c, 12, 69, 84
19, 217027, Note_on_c, 12, 78, 0
19, 217027, Note_on_c, 12, 69, 0
19, 217040, Note_on_c, 12, 69, 84
19, 217040, Note_on_c, 12, 78, 84
19, 217107, Note_on_c, 12, 69, 0
19, 217107, Note_on_c, 12, 78, 0
19, 217120, Note_on_c, 12, 69, 84
19, 217120, Note_on_c, 12, 78, 84
19, 217187, Note_on_c, 12, 69, 0
19, 217187, Note_on_c, 12, 78, 0
19, 217200, Note_on_c, 12, 78, 84
19, 217200, Note_on_c, 12, 69, 84
19, 217267, Note_on_c, 12, 78, 0
19, 217267, Note_on_c, 12, 69, 0
19, 217280, Note_on_c, 12, 78, 84
19, 217280, Note_on_c, 12, 69, 84
19, 217347, Note_on_c, 12, 78, 0
19, 217347, Note_on_c, 12, 69, 0
19, 217360, Note_on_c, 12, 78, 84
19, 217360, Note_on_c, 12, 69, 84
19, 217427, Note_on_c, 12, 78, 0
19, 217427, Note_on_c, 12, 69, 0
19, 217440, Note_on_c, 12, 69, 84
19, 217440, Note_on_c, 12, 78, 84
19, 217507, Note_on_c, 12, 69, 0
19, 217507, Note_on_c, 12, 78, 0
19, 217520, Note_on_c, 12, 78, 84
19, 217520, Note_on_c, 12, 69, 84
19, 217587, Note_on_c, 12, 78, 0
19, 217587, Note_on_c, 12, 69, 0
19, 217600, Note_on_c, 12, 78, 84
19, 217600, Note_on_c, 12, 69, 84
19, 217667, Note_on_c, 12, 78, 0
19, 217667, Note_on_c, 12, 69, 0
19, 217680, Note_on_c, 12, 78, 84
19, 217680, Note_on_c, 12, 69, 84
19, 217747, Note_on_c, 12, 78, 0
19, 217747, Note_on_c, 12, 69, 0
19, 217760, Note_on_c, 12, 69, 84
19, 217760, Note_on_c, 12, 78, 84
19, 217827, Note_on_c, 12, 69, 0
19, 217827, Note_on_c, 12, 78, 0
19, 217840, Note_on_c, 12, 78, 84
19, 217840, Note_on_c, 12, 69, 84
19, 217907, Note_on_c, 12, 78, 0
19, 217907, Note_on_c, 12, 69, 0
19, 217920, Note_on_c, 12, 78, 84
19, 217920, Note_on_c, 12, 69, 84
19, 217987, Note_on_c, 12, 78, 0
19, 217987, Note_on_c, 12, 69, 0
19, 218000, Note_on_c, 12, 78, 84
19, 218000, Note_on_c, 12, 69, 84
19, 218067, Note_on_c, 12, 78, 0
19, 218067, Note_on_c, 12, 69, 0
19, 218080, Note_on_c, 12, 78, 84
19, 218080, Note_on_c, 12, 69, 84
19, 218147, Note_on_c, 12, 78, 0
19, 218147, Note_on_c, 12, 69, 0
19, 218160, Note_on_c, 12, 69, 84
19, 218160, Note_on_c, 12, 78, 84
19, 218227, Note_on_c, 12, 69, 0
19, 218227, Note_on_c, 12, 78, 0
19, 218240, Note_on_c, 12, 78, 84
19, 218240, Note_on_c, 12, 69, 84
19, 218307, Note_on_c, 12, 78, 0
19, 218307, Note_on_c, 12, 69, 0
19, 218320, Note_on_c, 12, 69, 84
19, 218320, Note_on_c, 12, 78, 84
19, 218387, Note_on_c, 12, 69, 0
19, 218387, Note_on_c, 12, 78, 0
19, 218400, Note_on_c, 12, 78, 84
19, 218400, Note_on_c, 12, 69, 84
19, 218467, Note_on_c, 12, 78, 0
19, 218467, Note_on_c, 12, 69, 0
19, 218480, Note_on_c, 12, 69, 84
19, 218480, Note_on_c, 12, 78, 84
19, 218547, Note_on_c, 12, 69, 0
19, 218547, Note_on_c, 12, 78, 0
19, 218560, Note_on_c, 12, 78, 84
19, 218560, Note_on_c, 12, 69, 84
19, 218627, Note_on_c, 12, 78, 0
19, 218627, Note_on_c, 12, 69, 0
19, 218640, Note_on_c, 12, 78, 84
19, 218640, Note_on_c, 12, 69, 84
19, 218707, Note_on_c, 12, 78, 0
19, 218707, Note_on_c, 12, 69, 0
19, 218720, Note_on_c, 12, 78, 84
19, 218720, Note_on_c, 12, 69, 84
19, 218787, Note_on_c, 12, 78, 0
19, 218787, Note_on_c, 12, 69, 0
19, 218800, Note_on_c, 12, 78, 84
19, 218800, Note_on_c, 12, 69, 84
19, 218867, Note_on_c, 12, 78, 0
19, 218867, Note_on_c, 12, 69, 0
19, 218880, Note_on_c, 12, 71, 84
19, 218880, Note_on_c, 12, 79, 84
19, 218931, Note_on_c, 12, 71, 0
19, 218931, Note_on_c, 12, 79, 0
19, 218940, Note_on_c, 12, 71, 84
19, 218940, Note_on_c, 12, 79, 84
19, 218991, Note_on_c, 12, 71, 0
19, 218991, Note_on_c, 12, 79, 0
19, 219000, Note_on_c, 12, 71, 84
19, 219000, Note_on_c, 12, 79, 84
19, 219051, Note_on_c, 12, 71, 0
19, 219051, Note_on_c, 12, 79, 0
19, 219060, Note_on_c, 12, 79, 84
19, 219060, Note_on_c, 12, 71, 84
19, 219111, Note_on_c, 12, 79, 0
19, 219111, Note_on_c, 12, 71, 0
19, 219120, Note_on_c, 12, 79, 84
19, 219120, Note_on_c, 12, 71, 84
19, 219171, Note_on_c, 12, 79, 0
19, 219171, Note_on_c, 12, 71, 0
19, 219180, Note_on_c, 12, 79, 84
19, 219180, Note_on_c, 12, 71, 84
19, 219231, Note_on_c, 12, 79, 0
19, 219231, Note_on_c, 12, 71, 0
19, 219240, Note_on_c, 12, 71, 84
19, 219240, Note_on_c, 12, 79, 84
19, 219291, Note_on_c, 12, 71, 0
19, 219291, Note_on_c, 12, 79, 0
19, 219300, Note_on_c, 12, 71, 84
19, 219300, Note_on_c, 12, 79, 84
19, 219351, Note_on_c, 12, 71, 0
19, 219351, Note_on_c, 12, 79, 0
19, 219360, Note_on_c, 12, 71, 84
19, 219360, Note_on_c, 12, 79, 84
19, 219411, Note_on_c, 12, 71, 0
19, 219411, Note_on_c, 12, 79, 0
19, 219420, Note_on_c, 12, 71, 84
19, 219420, Note_on_c, 12, 79, 84
19, 219471, Note_on_c, 12, 71, 0
19, 219471, Note_on_c, 12, 79, 0
19, 219480, Note_on_c, 12, 74, 84
19, 219531, Note_on_c, 12, 74, 0
19, 219540, Note_on_c, 12, 74, 84
19, 219591, Note_on_c, 12, 74, 0
19, 219600, Note_on_c, 12, 71, 84
19, 219651, Note_on_c, 12, 71, 0
19, 219660, Note_on_c, 12, 71, 84
19, 219711, Note_on_c, 12, 71, 0
19, 219720, Note_on_c, 12, 74, 84
19, 219771, Note_on_c, 12, 74, 0
19, 219780, Note_on_c, 12, 74, 84
19, 219831, Note_on_c, 12, 74, 0
19, 219840, Note_on_c, 12, 79, 84
19, 219891, Note_on_c, 12, 79, 0
19, 219900, Note_on_c, 12, 79, 84
19, 219951, Note_on_c, 12, 79, 0
19, 219960, Note_on_c, 12, 79, 84
19, 220011, Note_on_c, 12, 79, 0
19, 220020, Note_on_c, 12, 79, 84
19, 220071, Note_on_c, 12, 79, 0
19, 220080, Note_on_c, 12, 79, 84
19, 220131, Note_on_c, 12, 79, 0
19, 220140, Note_on_c, 12, 79, 84
19, 220191, Note_on_c, 12, 79, 0
19, 220200, Note_on_c, 12, 79, 84
19, 220251, Note_on_c, 12, 79, 0
19, 220260, Note_on_c, 12, 79, 84
19, 220311, Note_on_c, 12, 79, 0
19, 220320, Note_on_c, 12, 79, 84
19, 220371, Note_on_c, 12, 79, 0
19, 220380, Note_on_c, 12, 79, 84
19, 220431, Note_on_c, 12, 79, 0
19, 220440, Note_on_c, 12, 74, 84
19, 220491, Note_on_c, 12, 74, 0
19, 220500, Note_on_c, 12, 74, 84
19, 220551, Note_on_c, 12, 74, 0
19, 220560, Note_on_c, 12, 71, 84
19, 220611, Note_on_c, 12, 71, 0
19, 220620, Note_on_c, 12, 71, 84
19, 220671, Note_on_c, 12, 71, 0
19, 220680, Note_on_c, 12, 74, 84
19, 220731, Note_on_c, 12, 74, 0
19, 220740, Note_on_c, 12, 74, 84
19, 220791, Note_on_c, 12, 74, 0
19, 220800, Note_on_c, 12, 79, 84
19, 220851, Note_on_c, 12, 79, 0
19, 220860, Note_on_c, 12, 79, 84
19, 220911, Note_on_c, 12, 79, 0
19, 220920, Note_on_c, 12, 74, 84
19, 220971, Note_on_c, 12, 74, 0
19, 220980, Note_on_c, 12, 74, 84
19, 221031, Note_on_c, 12, 74, 0
19, 221040, Note_on_c, 12, 71, 84
19, 221091, Note_on_c, 12, 71, 0
19, 221100, Note_on_c, 12, 71, 84
19, 221151, Note_on_c, 12, 71, 0
19, 221160, Note_on_c, 12, 74, 84
19, 221211, Note_on_c, 12, 74, 0
19, 221220, Note_on_c, 12, 74, 84
19, 221271, Note_on_c, 12, 74, 0
19, 221280, Note_on_c, 12, 74, 84
19, 221331, Note_on_c, 12, 74, 0
19, 221340, Note_on_c, 12, 74, 84
19, 221391, Note_on_c, 12, 74, 0
19, 221400, Note_on_c, 12, 83, 84
19, 221451, Note_on_c, 12, 83, 0
19, 221460, Note_on_c, 12, 83, 84
19, 221511, Note_on_c, 12, 83, 0
19, 221520, Note_on_c, 12, 79, 84
19, 221571, Note_on_c, 12, 79, 0
19, 221580, Note_on_c, 12, 79, 84
19, 221631, Note_on_c, 12, 79, 0
19, 221640, Note_on_c, 12, 83, 84
19, 221691, Note_on_c, 12, 83, 0
19, 221700, Note_on_c, 12, 83, 84
19, 221751, Note_on_c, 12, 83, 0
19, 221760, Note_on_c, 12, 83, 84
19, 221811, Note_on_c, 12, 83, 0
19, 221820, Note_on_c, 12, 83, 84
19, 221871, Note_on_c, 12, 83, 0
19, 221880, Note_on_c, 12, 79, 84
19, 221931, Note_on_c, 12, 79, 0
19, 221940, Note_on_c, 12, 79, 84
19, 221991, Note_on_c, 12, 79, 0
19, 222000, Note_on_c, 12, 74, 84
19, 222051, Note_on_c, 12, 74, 0
19, 222060, Note_on_c, 12, 74, 84
19, 222111, Note_on_c, 12, 74, 0
19, 222120, Note_on_c, 12, 79, 84
19, 222171, Note_on_c, 12, 79, 0
19, 222180, Note_on_c, 12, 79, 84
19, 222231, Note_on_c, 12, 79, 0
19, 222240, Note_on_c, 12, 79, 84
19, 222291, Note_on_c, 12, 79, 0
19, 222300, Note_on_c, 12, 79, 84
19, 222351, Note_on_c, 12, 79, 0
19, 222360, Note_on_c, 12, 74, 84
19, 222411, Note_on_c, 12, 74, 0
19, 222420, Note_on_c, 12, 74, 84
19, 222471, Note_on_c, 12, 74, 0
19, 222480, Note_on_c, 12, 71, 84
19, 222531, Note_on_c, 12, 71, 0
19, 222540, Note_on_c, 12, 71, 84
19, 222591, Note_on_c, 12, 71, 0
19, 222600, Note_on_c, 12, 74, 84
19, 222651, Note_on_c, 12, 74, 0
19, 222660, Note_on_c, 12, 74, 84
19, 222711, Note_on_c, 12, 74, 0
19, 222720, Note_on_c, 12, 74, 84
19, 222771, Note_on_c, 12, 74, 0
19, 222780, Note_on_c, 12, 74, 84
19, 222831, Note_on_c, 12, 74, 0
19, 222840, Note_on_c, 12, 71, 84
19, 222891, Note_on_c, 12, 71, 0
19, 222900, Note_on_c, 12, 71, 84
19, 222951, Note_on_c, 12, 71, 0
19, 222960, Note_on_c, 12, 67, 84
19, 223011, Note_on_c, 12, 67, 0
19, 223020, Note_on_c, 12, 67, 84
19, 223071, Note_on_c, 12, 67, 0
19, 223080, Note_on_c, 12, 71, 84
19, 223131, Note_on_c, 12, 71, 0
19, 223140, Note_on_c, 12, 71, 84
19, 223191, Note_on_c, 12, 71, 0
19, 223200, Note_on_c, 12, 71, 84
19, 223251, Note_on_c, 12, 71, 0
19, 223260, Note_on_c, 12, 71, 84
19, 223311, Note_on_c, 12, 71, 0
19, 223320, Note_on_c, 12, 67, 84
19, 223371, Note_on_c, 12, 67, 0
19, 223380, Note_on_c, 12, 67, 84
19, 223431, Note_on_c, 12, 67, 0
19, 223440, Note_on_c, 12, 62, 84
19, 223491, Note_on_c, 12, 62, 0
19, 223500, Note_on_c, 12, 62, 84
19, 223551, Note_on_c, 12, 62, 0
19, 223560, Note_on_c, 12, 67, 84
19, 223611, Note_on_c, 12, 67, 0
19, 223620, Note_on_c, 12, 67, 84
19, 223671, Note_on_c, 12, 67, 0
19, 223680, Note_on_c, 12, 67, 84
19, 223731, Note_on_c, 12, 67, 0
19, 223740, Note_on_c, 12, 67, 84
19, 223791, Note_on_c, 12, 67, 0
19, 223800, Note_on_c, 12, 62, 84
19, 223851, Note_on_c, 12, 62, 0
19, 223860, Note_on_c, 12, 62, 84
19, 223911, Note_on_c, 12, 62, 0
19, 223920, Note_on_c, 12, 59, 84
19, 223971, Note_on_c, 12, 59, 0
19, 223980, Note_on_c, 12, 59, 84
19, 224031, Note_on_c, 12, 59, 0
19, 224040, Note_on_c, 12, 62, 84
19, 224091, Note_on_c, 12, 62, 0
19, 224100, Note_on_c, 12, 62, 84
19, 224151, Note_on_c, 12, 62, 0
19, 224160, Note_on_c, 12, 67, 84
19, 224211, Note_on_c, 12, 67, 0
19, 224220, Note_on_c, 12, 67, 84
19, 224271, Note_on_c, 12, 67, 0
19, 224280, Note_on_c, 12, 62, 84
19, 224331, Note_on_c, 12, 62, 0
19, 224340, Note_on_c, 12, 62, 84
19, 224391, Note_on_c, 12, 62, 0
19, 224400, Note_on_c, 12, 59, 84
19, 224451, Note_on_c, 12, 59, 0
19, 224460, Note_on_c, 12, 59, 84
19, 224511, Note_on_c, 12, 59, 0
19, 224520, Note_on_c, 12, 62, 84
19, 224571, Note_on_c, 12, 62, 0
19, 224580, Note_on_c, 12, 62, 84
19, 224631, Note_on_c, 12, 62, 0
19, 224640, Note_on_c, 12, 67, 84
19, 224640, Note_on_c, 12, 55, 84
19, 225584, Note_on_c, 12, 67, 0
19, 225584, Note_on_c, 12, 55, 0
19, 225600, Note_on_c, 12, 62, 84
19, 225600, Note_on_c, 12, 55, 84
19, 225600, Note_on_c, 12, 71, 84
19, 225839, Note_on_c, 12, 62, 0
19, 225839, Note_on_c, 12, 55, 0
19, 226544, Note_on_c, 12, 71, 0
19, 226560, Note_on_c, 12, 62, 84
19, 226560, Note_on_c, 12, 74, 84
19, 226560, Note_on_c, 12, 55, 84
19, 226799, Note_on_c, 12, 62, 0
19, 226799, Note_on_c, 12, 55, 0
19, 227504, Note_on_c, 12, 74, 0
19, 227520, Note_on_c, 12, 71, 84
19, 227520, Note_on_c, 12, 79, 84
19, 227520, Note_on_c, 12, 62, 84
19, 227520, Note_on_c, 12, 55, 84
19, 227759, Note_on_c, 12, 71, 0
19, 227759, Note_on_c, 12, 79, 0
19, 227759, Note_on_c, 12, 62, 0
19, 227759, Note_on_c, 12, 55, 0
19, 232560, Program_c, 12, 45
19, 233280, Note_on_c, 12, 63, 44
19, 233519, Note_on_c, 12, 63, 0
19, 234000, Note_on_c, 12, 65, 44
19, 234239, Note_on_c, 12, 65, 0
19, 234720, Note_on_c, 12, 63, 44
19, 234959, Note_on_c, 12, 63, 0
19, 235440, Note_on_c, 12, 62, 44
19, 235679, Note_on_c, 12, 62, 0
19, 236160, Note_on_c, 12, 60, 44
19, 236399, Note_on_c, 12, 60, 0
19, 236880, Note_on_c, 12, 60, 44
19, 237119, Note_on_c, 12, 60, 0
19, 237600, Note_on_c, 12, 58, 44
19, 237839, Note_on_c, 12, 58, 0
19, 238320, Note_on_c, 12, 64, 44
19, 238559, Note_on_c, 12, 64, 0
19, 239040, Note_on_c, 12, 68, 44
19, 239279, Note_on_c, 12, 68, 0
19, 239760, Note_on_c, 12, 64, 44
19, 239999, Note_on_c, 12, 64, 0
19, 240480, Note_on_c, 12, 65, 44
19, 240719, Note_on_c, 12, 65, 0
19, 241200, Note_on_c, 12, 60, 44
19, 241439, Note_on_c, 12, 60, 0
19, 241920, Note_on_c, 12, 60, 44
19, 242159, Note_on_c, 12, 60, 0
19, 242640, Note_on_c, 12, 60, 44
19, 242879, Note_on_c, 12, 60, 0
19, 243360, Note_on_c, 12, 59, 44
19, 243599, Note_on_c, 12, 59, 0
19, 245520, Note_on_c, 12, 60, 44
19, 245759, Note_on_c, 12, 60, 0
19, 246240, Note_on_c, 12, 59, 44
19, 246479, Note_on_c, 12, 59, 0
19, 248400, Note_on_c, 12, 60, 44
19, 248639, Note_on_c, 12, 60, 0
19, 249120, Note_on_c, 12, 59, 44
19, 249359, Note_on_c, 12, 59, 0
19, 264240, Program_c, 12, 48
19, 264960, Note_on_c, 12, 74, 44
19, 265059, Note_on_c, 12, 74, 0
19, 265080, Note_on_c, 12, 74, 47
19, 265179, Note_on_c, 12, 74, 0
19, 265200, Note_on_c, 12, 74, 50
19, 265299, Note_on_c, 12, 74, 0
19, 265320, Note_on_c, 12, 74, 54
19, 265419, Note_on_c, 12, 74, 0
19, 265440, Note_on_c, 12, 74, 57
19, 265539, Note_on_c, 12, 74, 0
19, 265560, Note_on_c, 12, 74, 60
19, 265659, Note_on_c, 12, 74, 0
19, 265680, Note_on_c, 12, 74, 64
19, 265779, Note_on_c, 12, 74, 0
19, 265800, Note_on_c, 12, 74, 67
19, 265899, Note_on_c, 12, 74, 0
19, 265920, Note_on_c, 12, 74, 70
19, 266019, Note_on_c, 12, 74, 0
19, 266040, Note_on_c, 12, 74, 74
19, 266139, Note_on_c, 12, 74, 0
19, 266160, Note_on_c, 12, 74, 77
19, 266259, Note_on_c, 12, 74, 0
19, 266280, Note_on_c, 12, 74, 80
19, 266379, Note_on_c, 12, 74, 0
19, 266400, Note_on_c, 12, 72, 84
19, 266400, Note_on_c, 12, 55, 84
19, 266400, Note_on_c, 12, 64, 84
19, 266579, Note_on_c, 12, 72, 0
19, 266579, Note_on_c, 12, 55, 0
19, 266579, Note_on_c, 12, 64, 0
19, 266880, Note_on_c, 12, 72, 84
19, 266880, Note_on_c, 12, 64, 84
19, 266880, Note_on_c, 12, 55, 84
19, 266880, Note_on_c, 12, 76, 84
19, 267059, Note_on_c, 12, 72, 0
19, 267059, Note_on_c, 12, 64, 0
19, 267059, Note_on_c, 12, 55, 0
19, 267059, Note_on_c, 12, 76, 0
19, 267360, Note_on_c, 12, 64, 84
19, 267360, Note_on_c, 12, 55, 84
19, 267360, Note_on_c, 12, 72, 84
19, 267360, Note_on_c, 12, 79, 84
19, 267599, Note_on_c, 12, 64, 0
19, 267599, Note_on_c, 12, 55, 0
19, 267599, Note_on_c, 12, 72, 0
19, 268064, Note_on_c, 12, 79, 0
19, 268080, Note_on_c, 12, 71, 84
19, 268080, Note_on_c, 12, 77, 84
19, 268080, Note_on_c, 12, 55, 84
19, 268080, Note_on_c, 12, 62, 84
19, 268199, Note_on_c, 12, 71, 0
19, 268199, Note_on_c, 12, 77, 0
19, 268199, Note_on_c, 12, 55, 0
19, 268199, Note_on_c, 12, 62, 0
19, 268320, Note_on_c, 12, 76, 84
19, 268320, Note_on_c, 12, 64, 84
19, 268320, Note_on_c, 12, 55, 84
19, 268320, Note_on_c, 12, 72, 84
19, 268439, Note_on_c, 12, 76, 0
19, 268439, Note_on_c, 12, 64, 0
19, 268439, Note_on_c, 12, 55, 0
19, 268439, Note_on_c, 12, 72, 0
19, 268560, Note_on_c, 12, 55, 84
19, 268560, Note_on_c, 12, 74, 84
19, 268560, Note_on_c, 12, 65, 84
19, 268679, Note_on_c, 12, 55, 0
19, 268679, Note_on_c, 12, 74, 0
19, 268679, Note_on_c, 12, 65, 0
19, 268800, Note_on_c, 12, 55, 84
19, 268800, Note_on_c, 12, 72, 84
19, 268800, Note_on_c, 12, 64, 84
19, 268919, Note_on_c, 12, 55, 0
19, 268919, Note_on_c, 12, 72, 0
19, 268919, Note_on_c, 12, 64, 0
19, 269040, Note_on_c, 12, 65, 84
19, 269040, Note_on_c, 12, 55, 84
19, 269040, Note_on_c, 12, 74, 84
19, 269159, Note_on_c, 12, 65, 0
19, 269159, Note_on_c, 12, 55, 0
19, 269159, Note_on_c, 12, 74, 0
19, 269280, Note_on_c, 12, 72, 84
19, 269280, Note_on_c, 12, 64, 84
19, 269280, Note_on_c, 12, 55, 84
19, 269331, Note_on_c, 12, 72, 0
19, 269331, Note_on_c, 12, 64, 0
19, 269331, Note_on_c, 12, 55, 0
19, 269340, Note_on_c, 12, 60, 84
19, 269391, Note_on_c, 12, 60, 0
19, 269400, Note_on_c, 12, 60, 84
19, 269451, Note_on_c, 12, 60, 0
19, 269460, Note_on_c, 12, 60, 84
19, 269511, Note_on_c, 12, 60, 0
19, 269520, Note_on_c, 12, 60, 84
19, 269571, Note_on_c, 12, 60, 0
19, 269580, Note_on_c, 12, 60, 84
19, 269631, Note_on_c, 12, 60, 0
19, 269640, Note_on_c, 12, 60, 84
19, 269691, Note_on_c, 12, 60, 0
19, 269700, Note_on_c, 12, 60, 84
19, 269751, Note_on_c, 12, 60, 0
19, 269760, Note_on_c, 12, 60, 84
19, 269811, Note_on_c, 12, 60, 0
19, 269820, Note_on_c, 12, 60, 84
19, 269871, Note_on_c, 12, 60, 0
19, 269880, Note_on_c, 12, 60, 84
19, 269931, Note_on_c, 12, 60, 0
19, 269940, Note_on_c, 12, 60, 84
19, 269991, Note_on_c, 12, 60, 0
19, 270000, Note_on_c, 12, 60, 84
19, 270051, Note_on_c, 12, 60, 0
19, 270060, Note_on_c, 12, 60, 84
19, 270111, Note_on_c, 12, 60, 0
19, 270120, Note_on_c, 12, 60, 84
19, 270171, Note_on_c, 12, 60, 0
19, 270180, Note_on_c, 12, 60, 84
19, 270231, Note_on_c, 12, 60, 0
19, 270240, Note_on_c, 12, 59, 84
19, 270240, Note_on_c, 12, 62, 84
19, 270291, Note_on_c, 12, 59, 0
19, 270291, Note_on_c, 12, 62, 0
19, 270300, Note_on_c, 12, 59, 84
19, 270300, Note_on_c, 12, 62, 84
19, 270351, Note_on_c, 12, 59, 0
19, 270351, Note_on_c, 12, 62, 0
19, 270360, Note_on_c, 12, 59, 84
19, 270360, Note_on_c, 12, 62, 84
19, 270411, Note_on_c, 12, 59, 0
19, 270411, Note_on_c, 12, 62, 0
19, 270420, Note_on_c, 12, 59, 84
19, 270420, Note_on_c, 12, 62, 84
19, 270471, Note_on_c, 12, 59, 0
19, 270471, Note_on_c, 12, 62, 0
19, 270480, Note_on_c, 12, 59, 84
19, 270480, Note_on_c, 12, 62, 84
19, 270531, Note_on_c, 12, 59, 0
19, 270531, Note_on_c, 12, 62, 0
19, 270540, Note_on_c, 12, 62, 84
19, 270540, Note_on_c, 12, 59, 84
19, 270591, Note_on_c, 12, 62, 0
19, 270591, Note_on_c, 12, 59, 0
19, 270600, Note_on_c, 12, 59, 84
19, 270600, Note_on_c, 12, 62, 84
19, 270651, Note_on_c, 12, 59, 0
19, 270651, Note_on_c, 12, 62, 0
19, 270660, Note_on_c, 12, 62, 84
19, 270660, Note_on_c, 12, 59, 84
19, 270711, Note_on_c, 12, 62, 0
19, 270711, Note_on_c, 12, 59, 0
19, 270720, Note_on_c, 12, 59, 84
19, 270720, Note_on_c, 12, 62, 84
19, 270771, Note_on_c, 12, 59, 0
19, 270771, Note_on_c, 12, 62, 0
19, 270780, Note_on_c, 12, 62, 84
19, 270780, Note_on_c, 12, 59, 84
19, 270831, Note_on_c, 12, 62, 0
19, 270831, Note_on_c, 12, 59, 0
19, 270840, Note_on_c, 12, 59, 84
19, 270840, Note_on_c, 12, 62, 84
19, 270891, Note_on_c, 12, 59, 0
19, 270891, Note_on_c, 12, 62, 0
19, 270900, Note_on_c, 12, 59, 84
19, 270900, Note_on_c, 12, 62, 84
19, 270951, Note_on_c, 12, 59, 0
19, 270951, Note_on_c, 12, 62, 0
19, 270960, Note_on_c, 12, 62, 84
19, 270960, Note_on_c, 12, 59, 84
19, 271011, Note_on_c, 12, 62, 0
19, 271011, Note_on_c, 12, 59, 0
19, 271020, Note_on_c, 12, 62, 84
19, 271020, Note_on_c, 12, 59, 84
19, 271071, Note_on_c, 12, 62, 0
19, 271071, Note_on_c, 12, 59, 0
19, 271080, Note_on_c, 12, 62, 84
19, 271080, Note_on_c, 12, 59, 84
19, 271131, Note_on_c, 12, 62, 0
19, 271131, Note_on_c, 12, 59, 0
19, 271140, Note_on_c, 12, 62, 84
19, 271140, Note_on_c, 12, 59, 84
19, 271191, Note_on_c, 12, 62, 0
19, 271191, Note_on_c, 12, 59, 0
19, 271200, Note_on_c, 12, 64, 84
19, 271200, Note_on_c, 12, 60, 84
19, 271251, Note_on_c, 12, 64, 0
19, 271251, Note_on_c, 12, 60, 0
19, 271260, Note_on_c, 12, 64, 84
19, 271260, Note_on_c, 12, 60, 84
19, 271311, Note_on_c, 12, 64, 0
19, 271311, Note_on_c, 12, 60, 0
19, 271320, Note_on_c, 12, 64, 84
19, 271320, Note_on_c, 12, 60, 84
19, 271371, Note_on_c, 12, 64, 0
19, 271371, Note_on_c, 12, 60, 0
19, 271380, Note_on_c, 12, 60, 84
19, 271380, Note_on_c, 12, 64, 84
19, 271431, Note_on_c, 12, 60, 0
19, 271431, Note_on_c, 12, 64, 0
19, 271440, Note_on_c, 12, 64, 84
19, 271440, Note_on_c, 12, 60, 84
19, 271491, Note_on_c, 12, 64, 0
19, 271491, Note_on_c, 12, 60, 0
19, 271500, Note_on_c, 12, 60, 84
19, 271500, Note_on_c, 12, 64, 84
19, 271551, Note_on_c, 12, 60, 0
19, 271551, Note_on_c, 12, 64, 0
19, 271560, Note_on_c, 12, 64, 84
19, 271560, Note_on_c, 12, 60, 84
19, 271611, Note_on_c, 12, 64, 0
19, 271611, Note_on_c, 12, 60, 0
19, 271620, Note_on_c, 12, 64, 84
19, 271620, Note_on_c, 12, 60, 84
19, 271671, Note_on_c, 12, 64, 0
19, 271671, Note_on_c, 12, 60, 0
19, 271680, Note_on_c, 12, 60, 84
19, 271680, Note_on_c, 12, 64, 84
19, 271731, Note_on_c, 12, 60, 0
19, 271731, Note_on_c, 12, 64, 0
19, 271740, Note_on_c, 12, 64, 84
19, 271740, Note_on_c, 12, 60, 84
19, 271791, Note_on_c, 12, 64, 0
19, 271791, Note_on_c, 12, 60, 0
19, 271800, Note_on_c, 12, 64, 84
19, 271800, Note_on_c, 12, 60, 84
19, 271851, Note_on_c, 12, 64, 0
19, 271851, Note_on_c, 12, 60, 0
19, 271860, Note_on_c, 12, 64, 84
19, 271860, Note_on_c, 12, 60, 84
19, 271911, Note_on_c, 12, 64, 0
19, 271911, Note_on_c, 12, 60, 0
19, 271920, Note_on_c, 12, 64, 84
19, 271920, Note_on_c, 12, 60, 84
19, 271971, Note_on_c, 12, 64, 0
19, 271971, Note_on_c, 12, 60, 0
19, 271980, Note_on_c, 12, 64, 84
19, 271980, Note_on_c, 12, 60, 84
19, 272031, Note_on_c, 12, 64, 0
19, 272031, Note_on_c, 12, 60, 0
19, 272040, Note_on_c, 12, 64, 84
19, 272040, Note_on_c, 12, 60, 84
19, 272091, Note_on_c, 12, 64, 0
19, 272091, Note_on_c, 12, 60, 0
19, 272100, Note_on_c, 12, 60, 84
19, 272100, Note_on_c, 12, 64, 84
19, 272151, Note_on_c, 12, 60, 0
19, 272151, Note_on_c, 12, 64, 0
19, 272160, Note_on_c, 12, 65, 84
19, 272160, Note_on_c, 12, 60, 84
19, 272211, Note_on_c, 12, 65, 0
19, 272211, Note_on_c, 12, 60, 0
19, 272220, Note_on_c, 12, 65, 84
19, 272220, Note_on_c, 12, 60, 84
19, 272271, Note_on_c, 12, 65, 0
19, 272271, Note_on_c, 12, 60, 0
19, 272280, Note_on_c, 12, 65, 84
19, 272280, Note_on_c, 12, 60, 84
19, 272331, Note_on_c, 12, 65, 0
19, 272331, Note_on_c, 12, 60, 0
19, 272340, Note_on_c, 12, 65, 84
19, 272340, Note_on_c, 12, 60, 84
19, 272391, Note_on_c, 12, 65, 0
19, 272391, Note_on_c, 12, 60, 0
19, 272400, Note_on_c, 12, 65, 84
19, 272400, Note_on_c, 12, 60, 84
19, 272451, Note_on_c, 12, 65, 0
19, 272451, Note_on_c, 12, 60, 0
19, 272460, Note_on_c, 12, 60, 84
19, 272460, Note_on_c, 12, 65, 84
19, 272511, Note_on_c, 12, 60, 0
19, 272511, Note_on_c, 12, 65, 0
19, 272520, Note_on_c, 12, 60, 84
19, 272520, Note_on_c, 12, 65, 84
19, 272571, Note_on_c, 12, 60, 0
19, 272571, Note_on_c, 12, 65, 0
19, 272580, Note_on_c, 12, 65, 84
19, 272580, Note_on_c, 12, 60, 84
19, 272631, Note_on_c, 12, 65, 0
19, 272631, Note_on_c, 12, 60, 0
19, 272640, Note_on_c, 12, 60, 84
19, 272640, Note_on_c, 12, 65, 84
19, 272691, Note_on_c, 12, 60, 0
19, 272691, Note_on_c, 12, 65, 0
19, 272700, Note_on_c, 12, 60, 84
19, 272700, Note_on_c, 12, 65, 84
19, 272751, Note_on_c, 12, 60, 0
19, 272751, Note_on_c, 12, 65, 0
19, 272760, Note_on_c, 12, 65, 84
19, 272760, Note_on_c, 12, 60, 84
19, 272811, Note_on_c, 12, 65, 0
19, 272811, Note_on_c, 12, 60, 0
19, 272820, Note_on_c, 12, 65, 84
19, 272820, Note_on_c, 12, 60, 84
19, 272871, Note_on_c, 12, 65, 0
19, 272871, Note_on_c, 12, 60, 0
19, 272880, Note_on_c, 12, 65, 84
19, 272880, Note_on_c, 12, 60, 84
19, 272931, Note_on_c, 12, 65, 0
19, 272931, Note_on_c, 12, 60, 0
19, 272940, Note_on_c, 12, 65, 84
19, 272940, Note_on_c, 12, 60, 84
19, 272991, Note_on_c, 12, 65, 0
19, 272991, Note_on_c, 12, 60, 0
19, 273000, Note_on_c, 12, 60, 84
19, 273000, Note_on_c, 12, 65, 84
19, 273051, Note_on_c, 12, 60, 0
19, 273051, Note_on_c, 12, 65, 0
19, 273060, Note_on_c, 12, 65, 84
19, 273060, Note_on_c, 12, 60, 84
19, 273111, Note_on_c, 12, 65, 0
19, 273111, Note_on_c, 12, 60, 0
19, 273120, Note_on_c, 12, 67, 84
19, 273120, Note_on_c, 12, 60, 84
19, 273171, Note_on_c, 12, 67, 0
19, 273171, Note_on_c, 12, 60, 0
19, 273180, Note_on_c, 12, 67, 84
19, 273180, Note_on_c, 12, 60, 84
19, 273231, Note_on_c, 12, 67, 0
19, 273231, Note_on_c, 12, 60, 0
19, 273240, Note_on_c, 12, 60, 84
19, 273240, Note_on_c, 12, 67, 84
19, 273291, Note_on_c, 12, 60, 0
19, 273291, Note_on_c, 12, 67, 0
19, 273300, Note_on_c, 12, 67, 84
19, 273300, Note_on_c, 12, 60, 84
19, 273351, Note_on_c, 12, 67, 0
19, 273351, Note_on_c, 12, 60, 0
19, 273360, Note_on_c, 12, 67, 84
19, 273360, Note_on_c, 12, 60, 84
19, 273411, Note_on_c, 12, 67, 0
19, 273411, Note_on_c, 12, 60, 0
19, 273420, Note_on_c, 12, 60, 84
19, 273420, Note_on_c, 12, 67, 84
19, 273471, Note_on_c, 12, 60, 0
19, 273471, Note_on_c, 12, 67, 0
19, 273480, Note_on_c, 12, 67, 84
19, 273480, Note_on_c, 12, 60, 84
19, 273531, Note_on_c, 12, 67, 0
19, 273531, Note_on_c, 12, 60, 0
19, 273540, Note_on_c, 12, 60, 84
19, 273540, Note_on_c, 12, 67, 84
19, 273591, Note_on_c, 12, 60, 0
19, 273591, Note_on_c, 12, 67, 0
19, 273600, Note_on_c, 12, 60, 84
19, 273600, Note_on_c, 12, 64, 84
19, 273651, Note_on_c, 12, 60, 0
19, 273651, Note_on_c, 12, 64, 0
19, 273660, Note_on_c, 12, 60, 84
19, 273660, Note_on_c, 12, 64, 84
19, 273711, Note_on_c, 12, 60, 0
19, 273711, Note_on_c, 12, 64, 0
19, 273720, Note_on_c, 12, 60, 84
19, 273720, Note_on_c, 12, 64, 84
19, 273771, Note_on_c, 12, 60, 0
19, 273771, Note_on_c, 12, 64, 0
19, 273780, Note_on_c, 12, 64, 84
19, 273780, Note_on_c, 12, 60, 84
19, 273831, Note_on_c, 12, 64, 0
19, 273831, Note_on_c, 12, 60, 0
19, 273840, Note_on_c, 12, 60, 84
19, 273840, Note_on_c, 12, 64, 84
19, 273891, Note_on_c, 12, 60, 0
19, 273891, Note_on_c, 12, 64, 0
19, 273900, Note_on_c, 12, 60, 84
19, 273900, Note_on_c, 12, 64, 84
19, 273951, Note_on_c, 12, 60, 0
19, 273951, Note_on_c, 12, 64, 0
19, 273960, Note_on_c, 12, 64, 84
19, 273960, Note_on_c, 12, 60, 84
19, 274011, Note_on_c, 12, 64, 0
19, 274011, Note_on_c, 12, 60, 0
19, 274020, Note_on_c, 12, 60, 84
19, 274020, Note_on_c, 12, 64, 84
19, 274071, Note_on_c, 12, 60, 0
19, 274071, Note_on_c, 12, 64, 0
19, 274080, Note_on_c, 12, 60, 84
19, 274080, Note_on_c, 12, 65, 84
19, 274131, Note_on_c, 12, 60, 0
19, 274131, Note_on_c, 12, 65, 0
19, 274140, Note_on_c, 12, 60, 84
19, 274140, Note_on_c, 12, 65, 84
19, 274191, Note_on_c, 12, 60, 0
19, 274191, Note_on_c, 12, 65, 0
19, 274200, Note_on_c, 12, 60, 84
19, 274200, Note_on_c, 12, 65, 84
19, 274251, Note_on_c, 12, 60, 0
19, 274251, Note_on_c, 12, 65, 0
19, 274260, Note_on_c, 12, 65, 84
19, 274260, Note_on_c, 12, 60, 84
19, 274311, Note_on_c, 12, 65, 0
19, 274311, Note_on_c, 12, 60, 0
19, 274320, Note_on_c, 12, 60, 84
19, 274320, Note_on_c, 12, 65, 84
19, 274371, Note_on_c, 12, 60, 0
19, 274371, Note_on_c, 12, 65, 0
19, 274380, Note_on_c, 12, 65, 84
19, 274380, Note_on_c, 12, 60, 84
19, 274431, Note_on_c, 12, 65, 0
19, 274431, Note_on_c, 12, 60, 0
19, 274440, Note_on_c, 12, 60, 84
19, 274440, Note_on_c, 12, 65, 84
19, 274491, Note_on_c, 12, 60, 0
19, 274491, Note_on_c, 12, 65, 0
19, 274500, Note_on_c, 12, 65, 84
19, 274500, Note_on_c, 12, 60, 84
19, 274551, Note_on_c, 12, 65, 0
19, 274551, Note_on_c, 12, 60, 0
19, 274560, Note_on_c, 12, 65, 84
19, 274560, Note_on_c, 12, 60, 84
19, 274611, Note_on_c, 12, 65, 0
19, 274611, Note_on_c, 12, 60, 0
19, 274620, Note_on_c, 12, 60, 84
19, 274620, Note_on_c, 12, 65, 84
19, 274671, Note_on_c, 12, 60, 0
19, 274671, Note_on_c, 12, 65, 0
19, 274680, Note_on_c, 12, 65, 84
19, 274680, Note_on_c, 12, 60, 84
19, 274731, Note_on_c, 12, 65, 0
19, 274731, Note_on_c, 12, 60, 0
19, 274740, Note_on_c, 12, 65, 84
19, 274740, Note_on_c, 12, 60, 84
19, 274791, Note_on_c, 12, 65, 0
19, 274791, Note_on_c, 12, 60, 0
19, 274800, Note_on_c, 12, 65, 84
19, 274800, Note_on_c, 12, 60, 84
19, 274851, Note_on_c, 12, 65, 0
19, 274851, Note_on_c, 12, 60, 0
19, 274860, Note_on_c, 12, 60, 84
19, 274860, Note_on_c, 12, 65, 84
19, 274911, Note_on_c, 12, 60, 0
19, 274911, Note_on_c, 12, 65, 0
19, 274920, Note_on_c, 12, 60, 84
19, 274920, Note_on_c, 12, 65, 84
19, 274971, Note_on_c, 12, 60, 0
19, 274971, Note_on_c, 12, 65, 0
19, 274980, Note_on_c, 12, 60, 84
19, 274980, Note_on_c, 12, 65, 84
19, 275031, Note_on_c, 12, 60, 0
19, 275031, Note_on_c, 12, 65, 0
19, 275040, Note_on_c, 12, 60, 84
19, 275040, Note_on_c, 12, 67, 84
19, 275091, Note_on_c, 12, 60, 0
19, 275091, Note_on_c, 12, 67, 0
19, 275100, Note_on_c, 12, 60, 84
19, 275100, Note_on_c, 12, 67, 84
19, 275151, Note_on_c, 12, 60, 0
19, 275151, Note_on_c, 12, 67, 0
19, 275160, Note_on_c, 12, 60, 84
19, 275160, Note_on_c, 12, 67, 84
19, 275211, Note_on_c, 12, 60, 0
19, 275211, Note_on_c, 12, 67, 0
19, 275220, Note_on_c, 12, 67, 84
19, 275220, Note_on_c, 12, 60, 84
19, 275271, Note_on_c, 12, 67, 0
19, 275271, Note_on_c, 12, 60, 0
19, 275280, Note_on_c, 12, 67, 84
19, 275280, Note_on_c, 12, 60, 84
19, 275331, Note_on_c, 12, 67, 0
19, 275331, Note_on_c, 12, 60, 0
19, 275340, Note_on_c, 12, 60, 84
19, 275340, Note_on_c, 12, 67, 84
19, 275391, Note_on_c, 12, 60, 0
19, 275391, Note_on_c, 12, 67, 0
19, 275400, Note_on_c, 12, 67, 84
19, 275400, Note_on_c, 12, 60, 84
19, 275451, Note_on_c, 12, 67, 0
19, 275451, Note_on_c, 12, 60, 0
19, 275460, Note_on_c, 12, 60, 84
19, 275460, Note_on_c, 12, 67, 84
19, 275511, Note_on_c, 12, 60, 0
19, 275511, Note_on_c, 12, 67, 0
19, 275520, Note_on_c, 12, 64, 84
19, 275520, Note_on_c, 12, 60, 84
19, 275571, Note_on_c, 12, 64, 0
19, 275571, Note_on_c, 12, 60, 0
19, 275580, Note_on_c, 12, 60, 84
19, 275580, Note_on_c, 12, 64, 84
19, 275631, Note_on_c, 12, 60, 0
19, 275631, Note_on_c, 12, 64, 0
19, 275640, Note_on_c, 12, 64, 84
19, 275640, Note_on_c, 12, 60, 84
19, 275691, Note_on_c, 12, 64, 0
19, 275691, Note_on_c, 12, 60, 0
19, 275700, Note_on_c, 12, 64, 84
19, 275700, Note_on_c, 12, 60, 84
19, 275751, Note_on_c, 12, 64, 0
19, 275751, Note_on_c, 12, 60, 0
19, 275760, Note_on_c, 12, 64, 84
19, 275760, Note_on_c, 12, 60, 84
19, 275811, Note_on_c, 12, 64, 0
19, 275811, Note_on_c, 12, 60, 0
19, 275820, Note_on_c, 12, 60, 84
19, 275820, Note_on_c, 12, 64, 84
19, 275871, Note_on_c, 12, 60, 0
19, 275871, Note_on_c, 12, 64, 0
19, 275880, Note_on_c, 12, 64, 84
19, 275880, Note_on_c, 12, 60, 84
19, 275931, Note_on_c, 12, 64, 0
19, 275931, Note_on_c, 12, 60, 0
19, 275940, Note_on_c, 12, 64, 84
19, 275940, Note_on_c, 12, 60, 84
19, 275991, Note_on_c, 12, 64, 0
19, 275991, Note_on_c, 12, 60, 0
19, 276000, Note_on_c, 12, 60, 84
19, 276000, Note_on_c, 12, 65, 84
19, 276051, Note_on_c, 12, 60, 0
19, 276051, Note_on_c, 12, 65, 0
19, 276060, Note_on_c, 12, 60, 84
19, 276060, Note_on_c, 12, 65, 84
19, 276111, Note_on_c, 12, 60, 0
19, 276111, Note_on_c, 12, 65, 0
19, 276120, Note_on_c, 12, 65, 84
19, 276120, Note_on_c, 12, 60, 84
19, 276171, Note_on_c, 12, 65, 0
19, 276171, Note_on_c, 12, 60, 0
19, 276180, Note_on_c, 12, 60, 84
19, 276180, Note_on_c, 12, 65, 84
19, 276231, Note_on_c, 12, 60, 0
19, 276231, Note_on_c, 12, 65, 0
19, 276240, Note_on_c, 12, 65, 84
19, 276240, Note_on_c, 12, 60, 84
19, 276291, Note_on_c, 12, 65, 0
19, 276291, Note_on_c, 12, 60, 0
19, 276300, Note_on_c, 12, 65, 84
19, 276300, Note_on_c, 12, 60, 84
19, 276351, Note_on_c, 12, 65, 0
19, 276351, Note_on_c, 12, 60, 0
19, 276360, Note_on_c, 12, 60, 84
19, 276360, Note_on_c, 12, 65, 84
19, 276411, Note_on_c, 12, 60, 0
19, 276411, Note_on_c, 12, 65, 0
19, 276420, Note_on_c, 12, 65, 84
19, 276420, Note_on_c, 12, 60, 84
19, 276471, Note_on_c, 12, 65, 0
19, 276471, Note_on_c, 12, 60, 0
19, 276480, Note_on_c, 12, 60, 84
19, 276480, Note_on_c, 12, 65, 84
19, 276531, Note_on_c, 12, 60, 0
19, 276531, Note_on_c, 12, 65, 0
19, 276540, Note_on_c, 12, 65, 84
19, 276540, Note_on_c, 12, 60, 84
19, 276591, Note_on_c, 12, 65, 0
19, 276591, Note_on_c, 12, 60, 0
19, 276600, Note_on_c, 12, 60, 84
19, 276600, Note_on_c, 12, 65, 84
19, 276651, Note_on_c, 12, 60, 0
19, 276651, Note_on_c, 12, 65, 0
19, 276660, Note_on_c, 12, 65, 84
19, 276660, Note_on_c, 12, 60, 84
19, 276711, Note_on_c, 12, 65, 0
19, 276711, Note_on_c, 12, 60, 0
19, 276720, Note_on_c, 12, 65, 84
19, 276720, Note_on_c, 12, 60, 84
19, 276771, Note_on_c, 12, 65, 0
19, 276771, Note_on_c, 12, 60, 0
19, 276780, Note_on_c, 12, 60, 84
19, 276780, Note_on_c, 12, 65, 84
19, 276831, Note_on_c, 12, 60, 0
19, 276831, Note_on_c, 12, 65, 0
19, 276840, Note_on_c, 12, 65, 84
19, 276840, Note_on_c, 12, 60, 84
19, 276891, Note_on_c, 12, 65, 0
19, 276891, Note_on_c, 12, 60, 0
19, 276900, Note_on_c, 12, 60, 84
19, 276900, Note_on_c, 12, 65, 84
19, 276951, Note_on_c, 12, 60, 0
19, 276951, Note_on_c, 12, 65, 0
19, 276960, Note_on_c, 12, 60, 84
19, 276960, Note_on_c, 12, 67, 84
19, 277011, Note_on_c, 12, 60, 0
19, 277011, Note_on_c, 12, 67, 0
19, 277020, Note_on_c, 12, 60, 84
19, 277020, Note_on_c, 12, 67, 84
19, 277071, Note_on_c, 12, 60, 0
19, 277071, Note_on_c, 12, 67, 0
19, 277080, Note_on_c, 12, 67, 84
19, 277080, Note_on_c, 12, 60, 84
19, 277131, Note_on_c, 12, 67, 0
19, 277131, Note_on_c, 12, 60, 0
19, 277140, Note_on_c, 12, 60, 84
19, 277140, Note_on_c, 12, 67, 84
19, 277191, Note_on_c, 12, 60, 0
19, 277191, Note_on_c, 12, 67, 0
19, 277200, Note_on_c, 12, 67, 84
19, 277200, Note_on_c, 12, 60, 84
19, 277251, Note_on_c, 12, 67, 0
19, 277251, Note_on_c, 12, 60, 0
19, 277260, Note_on_c, 12, 67, 84
19, 277260, Note_on_c, 12, 60, 84
19, 277311, Note_on_c, 12, 67, 0
19, 277311, Note_on_c, 12, 60, 0
19, 277320, Note_on_c, 12, 67, 84
19, 277320, Note_on_c, 12, 60, 84
19, 277371, Note_on_c, 12, 67, 0
19, 277371, Note_on_c, 12, 60, 0
19, 277380, Note_on_c, 12, 60, 84
19, 277380, Note_on_c, 12, 67, 84
19, 277431, Note_on_c, 12, 60, 0
19, 277431, Note_on_c, 12, 67, 0
19, 277440, Note_on_c, 12, 64, 84
19, 277440, Note_on_c, 12, 60, 84
19, 277491, Note_on_c, 12, 64, 0
19, 277491, Note_on_c, 12, 60, 0
19, 277500, Note_on_c, 12, 60, 84
19, 277500, Note_on_c, 12, 64, 84
19, 277551, Note_on_c, 12, 60, 0
19, 277551, Note_on_c, 12, 64, 0
19, 277560, Note_on_c, 12, 60, 84
19, 277560, Note_on_c, 12, 64, 84
19, 277611, Note_on_c, 12, 60, 0
19, 277611, Note_on_c, 12, 64, 0
19, 277620, Note_on_c, 12, 64, 84
19, 277620, Note_on_c, 12, 60, 84
19, 277671, Note_on_c, 12, 64, 0
19, 277671, Note_on_c, 12, 60, 0
19, 277680, Note_on_c, 12, 60, 84
19, 277680, Note_on_c, 12, 64, 84
19, 277731, Note_on_c, 12, 60, 0
19, 277731, Note_on_c, 12, 64, 0
19, 277740, Note_on_c, 12, 60, 84
19, 277740, Note_on_c, 12, 64, 84
19, 277791, Note_on_c, 12, 60, 0
19, 277791, Note_on_c, 12, 64, 0
19, 277800, Note_on_c, 12, 60, 84
19, 277800, Note_on_c, 12, 64, 84
19, 277851, Note_on_c, 12, 60, 0
19, 277851, Note_on_c, 12, 64, 0
19, 277860, Note_on_c, 12, 64, 84
19, 277860, Note_on_c, 12, 60, 84
19, 277911, Note_on_c, 12, 64, 0
19, 277911, Note_on_c, 12, 60, 0
19, 277920, Note_on_c, 12, 55, 84
19, 277920, Note_on_c, 12, 65, 84
19, 278144, Note_on_c, 12, 55, 0
19, 278144, Note_on_c, 12, 65, 0
19, 278160, Note_on_c, 12, 55, 84
19, 278160, Note_on_c, 12, 65, 84
19, 278331, Note_on_c, 12, 55, 0
19, 278331, Note_on_c, 12, 65, 0
19, 278340, Note_on_c, 12, 65, 84
19, 278340, Note_on_c, 12, 55, 84
19, 278391, Note_on_c, 12, 65, 0
19, 278391, Note_on_c, 12, 55, 0
19, 278400, Note_on_c, 12, 55, 84
19, 278400, Note_on_c, 12, 64, 84
19, 278624, Note_on_c, 12, 55, 0
19, 278624, Note_on_c, 12, 64, 0
19, 278640, Note_on_c, 12, 55, 84
19, 278640, Note_on_c, 12, 64, 84
19, 278811, Note_on_c, 12, 55, 0
19, 278811, Note_on_c, 12, 64, 0
19, 278820, Note_on_c, 12, 64, 84
19, 278820, Note_on_c, 12, 55, 84
19, 278871, Note_on_c, 12, 64, 0
19, 278871, Note_on_c, 12, 55, 0
19, 278880, Note_on_c, 12, 62, 84
19, 278880, Note_on_c, 12, 55, 84
19, 279104, Note_on_c, 12, 62, 0
19, 279104, Note_on_c, 12, 55, 0
19, 279120, Note_on_c, 12, 55, 84
19, 279120, Note_on_c, 12, 62, 84
19, 279584, Note_on_c, 12, 55, 0
19, 279584, Note_on_c, 12, 62, 0
19, 279600, Note_on_c, 12, 64, 84
19, 279600, Note_on_c, 12, 55, 84
19, 279771, Note_on_c, 12, 64, 0
19, 279771, Note_on_c, 12, 55, 0
19, 279780, Note_on_c, 12, 55, 84
19, 279780, Note_on_c, 12, 64, 84
19, 279831, Note_on_c, 12, 55, 0
19, 279831, Note_on_c, 12, 64, 0
19, 279840, Note_on_c, 12, 65, 84
19, 279840, Note_on_c, 12, 55, 84
19, 280064, Note_on_c, 12, 65, 0
19, 280064, Note_on_c, 12, 55, 0
19, 280080, Note_on_c, 12, 55, 84
19, 280080, Note_on_c, 12, 65, 84
19, 280251, Note_on_c, 12, 55, 0
19, 280251, Note_on_c, 12, 65, 0
19, 280260, Note_on_c, 12, 55, 84
19, 280260, Note_on_c, 12, 65, 84
19, 280311, Note_on_c, 12, 55, 0
19, 280311, Note_on_c, 12, 65, 0
19, 280320, Note_on_c, 12, 55, 84
19, 280320, Note_on_c, 12, 64, 84
19, 280544, Note_on_c, 12, 55, 0
19, 280544, Note_on_c, 12, 64, 0
19, 280560, Note_on_c, 12, 55, 84
19, 280560, Note_on_c, 12, 64, 84
19, 280731, Note_on_c, 12, 55, 0
19, 280731, Note_on_c, 12, 64, 0
19, 280740, Note_on_c, 12, 64, 84
19, 280740, Note_on_c, 12, 55, 84
19, 280791, Note_on_c, 12, 64, 0
19, 280791, Note_on_c, 12, 55, 0
19, 280800, Note_on_c, 12, 62, 84
19, 280800, Note_on_c, 12, 55, 84
19, 281024, Note_on_c, 12, 62, 0
19, 281024, Note_on_c, 12, 55, 0
19, 281040, Note_on_c, 12, 55, 84
19, 281040, Note_on_c, 12, 62, 84
19, 281504, Note_on_c, 12, 55, 0
19, 281504, Note_on_c, 12, 62, 0
19, 281520, Note_on_c, 12, 64, 84
19, 281520, Note_on_c, 12, 55, 84
19, 281691, Note_on_c, 12, 64, 0
19, 281691, Note_on_c, 12, 55, 0
19, 281700, Note_on_c, 12, 64, 84
19, 281700, Note_on_c, 12, 55, 84
19, 281751, Note_on_c, 12, 64, 0
19, 281751, Note_on_c, 12, 55, 0
19, 281760, Note_on_c, 12, 55, 84
19, 281760, Note_on_c, 12, 65, 84
19, 281931, Note_on_c, 12, 55, 0
19, 281931, Note_on_c, 12, 65, 0
19, 281940, Note_on_c, 12, 55, 84
19, 281940, Note_on_c, 12, 65, 84
19, 281991, Note_on_c, 12, 55, 0
19, 281991, Note_on_c, 12, 65, 0
19, 282000, Note_on_c, 12, 55, 84
19, 282000, Note_on_c, 12, 65, 84
19, 282171, Note_on_c, 12, 55, 0
19, 282171, Note_on_c, 12, 65, 0
19, 282180, Note_on_c, 12, 65, 84
19, 282180, Note_on_c, 12, 55, 84
19, 282231, Note_on_c, 12, 65, 0
19, 282231, Note_on_c, 12, 55, 0
19, 282240, Note_on_c, 12, 55, 84
19, 282240, Note_on_c, 12, 64, 84
19, 282411, Note_on_c, 12, 55, 0
19, 282411, Note_on_c, 12, 64, 0
19, 282420, Note_on_c, 12, 64, 84
19, 282420, Note_on_c, 12, 55, 84
19, 282471, Note_on_c, 12, 64, 0
19, 282471, Note_on_c, 12, 55, 0
19, 282480, Note_on_c, 12, 64, 84
19, 282480, Note_on_c, 12, 55, 84
19, 282651, Note_on_c, 12, 64, 0
19, 282651, Note_on_c, 12, 55, 0
19, 282660, Note_on_c, 12, 55, 84
19, 282660, Note_on_c, 12, 64, 84
19, 282711, Note_on_c, 12, 55, 0
19, 282711, Note_on_c, 12, 64, 0
19, 282720, Note_on_c, 12, 62, 84
19, 282720, Note_on_c, 12, 55, 84
19, 282771, Note_on_c, 12, 62, 0
19, 282771, Note_on_c, 12, 55, 0
19, 282780, Note_on_c, 12, 62, 84
19, 282780, Note_on_c, 12, 55, 84
19, 282831, Note_on_c, 12, 62, 0
19, 282831, Note_on_c, 12, 55, 0
19, 282840, Note_on_c, 12, 62, 84
19, 282840, Note_on_c, 12, 55, 84
19, 282891, Note_on_c, 12, 62, 0
19, 282891, Note_on_c, 12, 55, 0
19, 282900, Note_on_c, 12, 55, 84
19, 282900, Note_on_c, 12, 62, 84
19, 282951, Note_on_c, 12, 55, 0
19, 282951, Note_on_c, 12, 62, 0
19, 282960, Note_on_c, 12, 55, 84
19, 282960, Note_on_c, 12, 62, 84
19, 283011, Note_on_c, 12, 55, 0
19, 283011, Note_on_c, 12, 62, 0
19, 283020, Note_on_c, 12, 62, 84
19, 283020, Note_on_c, 12, 55, 84
19, 283071, Note_on_c, 12, 62, 0
19, 283071, Note_on_c, 12, 55, 0
19, 283080, Note_on_c, 12, 62, 84
19, 283080, Note_on_c, 12, 55, 84
19, 283131, Note_on_c, 12, 62, 0
19, 283131, Note_on_c, 12, 55, 0
19, 283140, Note_on_c, 12, 55, 84
19, 283140, Note_on_c, 12, 62, 84
19, 283191, Note_on_c, 12, 55, 0
19, 283191, Note_on_c, 12, 62, 0
19, 283200, Note_on_c, 12, 64, 84
19, 283200, Note_on_c, 12, 55, 84
19, 283251, Note_on_c, 12, 64, 0
19, 283251, Note_on_c, 12, 55, 0
19, 283260, Note_on_c, 12, 55, 84
19, 283260, Note_on_c, 12, 64, 84
19, 283311, Note_on_c, 12, 55, 0
19, 283311, Note_on_c, 12, 64, 0
19, 283320, Note_on_c, 12, 55, 84
19, 283320, Note_on_c, 12, 64, 84
19, 283371, Note_on_c, 12, 55, 0
19, 283371, Note_on_c, 12, 64, 0
19, 283380, Note_on_c, 12, 55, 84
19, 283380, Note_on_c, 12, 64, 84
19, 283431, Note_on_c, 12, 55, 0
19, 283431, Note_on_c, 12, 64, 0
19, 283440, Note_on_c, 12, 55, 84
19, 283440, Note_on_c, 12, 64, 84
19, 283491, Note_on_c, 12, 55, 0
19, 283491, Note_on_c, 12, 64, 0
19, 283500, Note_on_c, 12, 64, 84
19, 283500, Note_on_c, 12, 55, 84
19, 283551, Note_on_c, 12, 64, 0
19, 283551, Note_on_c, 12, 55, 0
19, 283560, Note_on_c, 12, 55, 84
19, 283560, Note_on_c, 12, 64, 84
19, 283611, Note_on_c, 12, 55, 0
19, 283611, Note_on_c, 12, 64, 0
19, 283620, Note_on_c, 12, 55, 84
19, 283620, Note_on_c, 12, 64, 84
19, 283671, Note_on_c, 12, 55, 0
19, 283671, Note_on_c, 12, 64, 0
19, 283680, Note_on_c, 12, 55, 84
19, 283680, Note_on_c, 12, 62, 84
19, 283731, Note_on_c, 12, 55, 0
19, 283731, Note_on_c, 12, 62, 0
19, 283740, Note_on_c, 12, 62, 84
19, 283740, Note_on_c, 12, 55, 84
19, 283791, Note_on_c, 12, 62, 0
19, 283791, Note_on_c, 12, 55, 0
19, 283800, Note_on_c, 12, 55, 84
19, 283800, Note_on_c, 12, 62, 84
19, 283851, Note_on_c, 12, 55, 0
19, 283851, Note_on_c, 12, 62, 0
19, 283860, Note_on_c, 12, 62, 84
19, 283860, Note_on_c, 12, 55, 84
19, 283911, Note_on_c, 12, 62, 0
19, 283911, Note_on_c, 12, 55, 0
19, 283920, Note_on_c, 12, 62, 84
19, 283920, Note_on_c, 12, 55, 84
19, 283971, Note_on_c, 12, 62, 0
19, 283971, Note_on_c, 12, 55, 0
19, 283980, Note_on_c, 12, 62, 84
19, 283980, Note_on_c, 12, 55, 84
19, 284031, Note_on_c, 12, 62, 0
19, 284031, Note_on_c, 12, 55, 0
19, 284040, Note_on_c, 12, 55, 84
19, 284040, Note_on_c, 12, 62, 84
19, 284091, Note_on_c, 12, 55, 0
19, 284091, Note_on_c, 12, 62, 0
19, 284100, Note_on_c, 12, 62, 84
19, 284100, Note_on_c, 12, 55, 84
19, 284151, Note_on_c, 12, 62, 0
19, 284151, Note_on_c, 12, 55, 0
19, 284160, Note_on_c, 12, 55, 84
19, 284160, Note_on_c, 12, 64, 84
19, 284211, Note_on_c, 12, 55, 0
19, 284211, Note_on_c, 12, 64, 0
19, 284220, Note_on_c, 12, 64, 84
19, 284220, Note_on_c, 12, 55, 84
19, 284271, Note_on_c, 12, 64, 0
19, 284271, Note_on_c, 12, 55, 0
19, 284280, Note_on_c, 12, 64, 84
19, 284280, Note_on_c, 12, 55, 84
19, 284331, Note_on_c, 12, 64, 0
19, 284331, Note_on_c, 12, 55, 0
19, 284340, Note_on_c, 12, 64, 84
19, 284340, Note_on_c, 12, 55, 84
19, 284391, Note_on_c, 12, 64, 0
19, 284391, Note_on_c, 12, 55, 0
19, 284400, Note_on_c, 12, 55, 84
19, 284400, Note_on_c, 12, 64, 84
19, 284451, Note_on_c, 12, 55, 0
19, 284451, Note_on_c, 12, 64, 0
19, 284460, Note_on_c, 12, 55, 84
19, 284460, Note_on_c, 12, 64, 84
19, 284511, Note_on_c, 12, 55, 0
19, 284511, Note_on_c, 12, 64, 0
19, 284520, Note_on_c, 12, 55, 84
19, 284520, Note_on_c, 12, 64, 84
19, 284571, Note_on_c, 12, 55, 0
19, 284571, Note_on_c, 12, 64, 0
19, 284580, Note_on_c, 12, 55, 84
19, 284580, Note_on_c, 12, 64, 84
19, 284631, Note_on_c, 12, 55, 0
19, 284631, Note_on_c, 12, 64, 0
19, 284640, Note_on_c, 12, 55, 84
19, 284640, Note_on_c, 12, 62, 84
19, 284691, Note_on_c, 12, 55, 0
19, 284691, Note_on_c, 12, 62, 0
19, 284700, Note_on_c, 12, 62, 84
19, 284700, Note_on_c, 12, 55, 84
19, 284751, Note_on_c, 12, 62, 0
19, 284751, Note_on_c, 12, 55, 0
19, 284760, Note_on_c, 12, 64, 84
19, 284760, Note_on_c, 12, 55, 84
19, 284811, Note_on_c, 12, 64, 0
19, 284811, Note_on_c, 12, 55, 0
19, 284820, Note_on_c, 12, 64, 84
19, 284820, Note_on_c, 12, 55, 84
19, 284871, Note_on_c, 12, 64, 0
19, 284871, Note_on_c, 12, 55, 0
19, 284880, Note_on_c, 12, 55, 84
19, 284880, Note_on_c, 12, 64, 84
19, 284931, Note_on_c, 12, 55, 0
19, 284931, Note_on_c, 12, 64, 0
19, 284940, Note_on_c, 12, 55, 84
19, 284940, Note_on_c, 12, 64, 84
19, 284991, Note_on_c, 12, 55, 0
19, 284991, Note_on_c, 12, 64, 0
19, 285000, Note_on_c, 12, 55, 84
19, 285000, Note_on_c, 12, 64, 84
19, 285051, Note_on_c, 12, 55, 0
19, 285051, Note_on_c, 12, 64, 0
19, 285060, Note_on_c, 12, 55, 84
19, 285060, Note_on_c, 12, 64, 84
19, 285111, Note_on_c, 12, 55, 0
19, 285111, Note_on_c, 12, 64, 0
19, 285120, Note_on_c, 12, 55, 84
19, 285120, Note_on_c, 12, 62, 84
19, 285171, Note_on_c, 12, 55, 0
19, 285171, Note_on_c, 12, 62, 0
19, 285180, Note_on_c, 12, 55, 84
19, 285180, Note_on_c, 12, 62, 84
19, 285231, Note_on_c, 12, 55, 0
19, 285231, Note_on_c, 12, 62, 0
19, 285240, Note_on_c, 12, 55, 84
19, 285240, Note_on_c, 12, 64, 84
19, 285291, Note_on_c, 12, 55, 0
19, 285291, Note_on_c, 12, 64, 0
19, 285300, Note_on_c, 12, 64, 84
19, 285300, Note_on_c, 12, 55, 84
19, 285351, Note_on_c, 12, 64, 0
19, 285351, Note_on_c, 12, 55, 0
19, 285360, Note_on_c, 12, 64, 84
19, 285360, Note_on_c, 12, 55, 84
19, 285411, Note_on_c, 12, 64, 0
19, 285411, Note_on_c, 12, 55, 0
19, 285420, Note_on_c, 12, 64, 84
19, 285420, Note_on_c, 12, 55, 84
19, 285471, Note_on_c, 12, 64, 0
19, 285471, Note_on_c, 12, 55, 0
19, 285480, Note_on_c, 12, 55, 84
19, 285480, Note_on_c, 12, 64, 84
19, 285531, Note_on_c, 12, 55, 0
19, 285531, Note_on_c, 12, 64, 0
19, 285540, Note_on_c, 12, 64, 84
19, 285540, Note_on_c, 12, 55, 84
19, 285591, Note_on_c, 12, 64, 0
19, 285591, Note_on_c, 12, 55, 0
19, 285600, Note_on_c, 12, 55, 84
19, 285600, Note_on_c, 12, 62, 84
19, 285651, Note_on_c, 12, 55, 0
19, 285651, Note_on_c, 12, 62, 0
19, 285660, Note_on_c, 12, 55, 84
19, 285660, Note_on_c, 12, 62, 84
19, 285711, Note_on_c, 12, 55, 0
19, 285711, Note_on_c, 12, 62, 0
19, 285720, Note_on_c, 12, 55, 84
19, 285720, Note_on_c, 12, 64, 84
19, 285771, Note_on_c, 12, 55, 0
19, 285771, Note_on_c, 12, 64, 0
19, 285780, Note_on_c, 12, 64, 84
19, 285780, Note_on_c, 12, 55, 84
19, 285831, Note_on_c, 12, 64, 0
19, 285831, Note_on_c, 12, 55, 0
19, 285840, Note_on_c, 12, 55, 84
19, 285840, Note_on_c, 12, 64, 84
19, 285891, Note_on_c, 12, 55, 0
19, 285891, Note_on_c, 12, 64, 0
19, 285900, Note_on_c, 12, 64, 84
19, 285900, Note_on_c, 12, 55, 84
19, 285951, Note_on_c, 12, 64, 0
19, 285951, Note_on_c, 12, 55, 0
19, 285960, Note_on_c, 12, 55, 84
19, 285960, Note_on_c, 12, 64, 84
19, 286011, Note_on_c, 12, 55, 0
19, 286011, Note_on_c, 12, 64, 0
19, 286020, Note_on_c, 12, 55, 84
19, 286020, Note_on_c, 12, 64, 84
19, 286071, Note_on_c, 12, 55, 0
19, 286071, Note_on_c, 12, 64, 0
19, 286080, Note_on_c, 12, 55, 84
19, 286080, Note_on_c, 12, 62, 84
19, 286131, Note_on_c, 12, 55, 0
19, 286131, Note_on_c, 12, 62, 0
19, 286140, Note_on_c, 12, 62, 84
19, 286140, Note_on_c, 12, 55, 84
19, 286191, Note_on_c, 12, 62, 0
19, 286191, Note_on_c, 12, 55, 0
19, 286200, Note_on_c, 12, 55, 84
19, 286200, Note_on_c, 12, 64, 84
19, 286251, Note_on_c, 12, 55, 0
19, 286251, Note_on_c, 12, 64, 0
19, 286260, Note_on_c, 12, 64, 84
19, 286260, Note_on_c, 12, 55, 84
19, 286311, Note_on_c, 12, 64, 0
19, 286311, Note_on_c, 12, 55, 0
19, 286320, Note_on_c, 12, 55, 84
19, 286320, Note_on_c, 12, 64, 84
19, 286371, Note_on_c, 12, 55, 0
19, 286371, Note_on_c, 12, 64, 0
19, 286380, Note_on_c, 12, 55, 84
19, 286380, Note_on_c, 12, 64, 84
19, 286431, Note_on_c, 12, 55, 0
19, 286431, Note_on_c, 12, 64, 0
19, 286440, Note_on_c, 12, 55, 84
19, 286440, Note_on_c, 12, 64, 84
19, 286491, Note_on_c, 12, 55, 0
19, 286491, Note_on_c, 12, 64, 0
19, 286500, Note_on_c, 12, 64, 84
19, 286500, Note_on_c, 12, 55, 84
19, 286551, Note_on_c, 12, 64, 0
19, 286551, Note_on_c, 12, 55, 0
19, 286560, Note_on_c, 12, 55, 84
19, 286560, Note_on_c, 12, 62, 84
19, 286664, Note_on_c, 12, 55, 0
19, 286664, Note_on_c, 12, 62, 0
19, 286680, Note_on_c, 12, 79, 92
19, 286799, Note_on_c, 12, 79, 0
19, 286800, Note_on_c, 12, 77, 84
19, 286904, Note_on_c, 12, 77, 0
19, 286920, Note_on_c, 12, 76, 84
19, 287009, Note_on_c, 12, 76, 0
19, 287040, Note_on_c, 12, 74, 84
19, 287129, Note_on_c, 12, 74, 0
19, 287160, Note_on_c, 12, 76, 92
19, 287279, Note_on_c, 12, 76, 0
19, 287280, Note_on_c, 12, 74, 84
19, 287384, Note_on_c, 12, 74, 0
19, 287400, Note_on_c, 12, 72, 84
19, 287489, Note_on_c, 12, 72, 0
19, 287520, Note_on_c, 12, 71, 84
19, 287609, Note_on_c, 12, 71, 0
19, 287640, Note_on_c, 12, 76, 92
19, 287759, Note_on_c, 12, 76, 0
19, 287760, Note_on_c, 12, 74, 84
19, 287864, Note_on_c, 12, 74, 0
19, 287880, Note_on_c, 12, 72, 84
19, 287969, Note_on_c, 12, 72, 0
19, 288000, Note_on_c, 12, 71, 84
19, 288089, Note_on_c, 12, 71, 0
19, 288120, Note_on_c, 12, 72, 92
19, 288239, Note_on_c, 12, 72, 0
19, 288240, Note_on_c, 12, 71, 84
19, 288344, Note_on_c, 12, 71, 0
19, 288360, Note_on_c, 12, 69, 84
19, 288449, Note_on_c, 12, 69, 0
19, 288480, Note_on_c, 12, 67, 84
19, 288569, Note_on_c, 12, 67, 0
19, 288600, Note_on_c, 12, 72, 92
19, 288719, Note_on_c, 12, 72, 0
19, 288720, Note_on_c, 12, 71, 84
19, 288824, Note_on_c, 12, 71, 0
19, 288840, Note_on_c, 12, 69, 84
19, 288929, Note_on_c, 12, 69, 0
19, 288960, Note_on_c, 12, 67, 84
19, 289049, Note_on_c, 12, 67, 0
19, 289080, Note_on_c, 12, 72, 92
19, 289199, Note_on_c, 12, 72, 0
19, 289200, Note_on_c, 12, 71, 84
19, 289304, Note_on_c, 12, 71, 0
19, 289320, Note_on_c, 12, 69, 84
19, 289409, Note_on_c, 12, 69, 0
19, 289440, Note_on_c, 12, 67, 84
19, 289529, Note_on_c, 12, 67, 0
19, 289560, Note_on_c, 12, 72, 92
19, 289679, Note_on_c, 12, 72, 0
19, 289680, Note_on_c, 12, 71, 84
19, 289784, Note_on_c, 12, 71, 0
19, 289800, Note_on_c, 12, 69, 84
19, 289889, Note_on_c, 12, 69, 0
19, 289920, Note_on_c, 12, 67, 84
19, 290009, Note_on_c, 12, 67, 0
19, 290040, Note_on_c, 12, 65, 84
19, 290129, Note_on_c, 12, 65, 0
19, 290160, Note_on_c, 12, 64, 84
19, 290249, Note_on_c, 12, 64, 0
19, 290280, Note_on_c, 12, 62, 84
19, 290369, Note_on_c, 12, 62, 0
19, 290400, Note_on_c, 12, 60, 84
19, 290451, Note_on_c, 12, 60, 0
19, 290460, Note_on_c, 12, 60, 84
19, 290511, Note_on_c, 12, 60, 0
19, 290520, Note_on_c, 12, 60, 84
19, 290571, Note_on_c, 12, 60, 0
19, 290580, Note_on_c, 12, 60, 84
19, 290631, Note_on_c, 12, 60, 0
19, 290640, Note_on_c, 12, 60, 84
19, 290691, Note_on_c, 12, 60, 0
19, 290700, Note_on_c, 12, 60, 84
19, 290751, Note_on_c, 12, 60, 0
19, 290760, Note_on_c, 12, 60, 84
19, 290811, Note_on_c, 12, 60, 0
19, 290820, Note_on_c, 12, 60, 84
19, 290871, Note_on_c, 12, 60, 0
19, 290880, Note_on_c, 12, 60, 84
19, 290931, Note_on_c, 12, 60, 0
19, 290940, Note_on_c, 12, 60, 84
19, 290991, Note_on_c, 12, 60, 0
19, 291000, Note_on_c, 12, 60, 84
19, 291051, Note_on_c, 12, 60, 0
19, 291060, Note_on_c, 12, 60, 84
19, 291111, Note_on_c, 12, 60, 0
19, 291120, Note_on_c, 12, 60, 84
19, 291171, Note_on_c, 12, 60, 0
19, 291180, Note_on_c, 12, 60, 84
19, 291231, Note_on_c, 12, 60, 0
19, 291240, Note_on_c, 12, 60, 84
19, 291291, Note_on_c, 12, 60, 0
19, 291300, Note_on_c, 12, 60, 84
19, 291351, Note_on_c, 12, 60, 0
19, 291360, Note_on_c, 12, 60, 84
19, 291411, Note_on_c, 12, 60, 0
19, 291420, Note_on_c, 12, 60, 84
19, 291471, Note_on_c, 12, 60, 0
19, 291480, Note_on_c, 12, 60, 84
19, 291531, Note_on_c, 12, 60, 0
19, 291540, Note_on_c, 12, 60, 84
19, 291591, Note_on_c, 12, 60, 0
19, 291600, Note_on_c, 12, 60, 84
19, 291651, Note_on_c, 12, 60, 0
19, 291660, Note_on_c, 12, 60, 84
19, 291711, Note_on_c, 12, 60, 0
19, 291720, Note_on_c, 12, 60, 84
19, 291771, Note_on_c, 12, 60, 0
19, 291780, Note_on_c, 12, 60, 84
19, 291831, Note_on_c, 12, 60, 0
19, 291840, Note_on_c, 12, 60, 84
19, 291891, Note_on_c, 12, 60, 0
19, 291900, Note_on_c, 12, 60, 84
19, 291951, Note_on_c, 12, 60, 0
19, 291960, Note_on_c, 12, 60, 84
19, 292011, Note_on_c, 12, 60, 0
19, 292020, Note_on_c, 12, 60, 84
19, 292071, Note_on_c, 12, 60, 0
19, 292080, Note_on_c, 12, 60, 84
19, 292131, Note_on_c, 12, 60, 0
19, 292140, Note_on_c, 12, 60, 84
19, 292191, Note_on_c, 12, 60, 0
19, 292200, Note_on_c, 12, 60, 84
19, 292251, Note_on_c, 12, 60, 0
19, 292260, Note_on_c, 12, 60, 84
19, 292311, Note_on_c, 12, 60, 0
19, 292320, Note_on_c, 12, 59, 84
19, 292320, Note_on_c, 12, 62, 84
19, 292371, Note_on_c, 12, 59, 0
19, 292371, Note_on_c, 12, 62, 0
19, 292380, Note_on_c, 12, 59, 84
19, 292380, Note_on_c, 12, 62, 84
19, 292431, Note_on_c, 12, 59, 0
19, 292431, Note_on_c, 12, 62, 0
19, 292440, Note_on_c, 12, 59, 84
19, 292440, Note_on_c, 12, 62, 84
19, 292491, Note_on_c, 12, 59, 0
19, 292491, Note_on_c, 12, 62, 0
19, 292500, Note_on_c, 12, 62, 84
19, 292500, Note_on_c, 12, 59, 84
19, 292551, Note_on_c, 12, 62, 0
19, 292551, Note_on_c, 12, 59, 0
19, 292560, Note_on_c, 12, 62, 84
19, 292560, Note_on_c, 12, 59, 84
19, 292611, Note_on_c, 12, 62, 0
19, 292611, Note_on_c, 12, 59, 0
19, 292620, Note_on_c, 12, 59, 84
19, 292620, Note_on_c, 12, 62, 84
19, 292671, Note_on_c, 12, 59, 0
19, 292671, Note_on_c, 12, 62, 0
19, 292680, Note_on_c, 12, 62, 84
19, 292680, Note_on_c, 12, 59, 84
19, 292731, Note_on_c, 12, 62, 0
19, 292731, Note_on_c, 12, 59, 0
19, 292740, Note_on_c, 12, 62, 84
19, 292740, Note_on_c, 12, 59, 84
19, 292791, Note_on_c, 12, 62, 0
19, 292791, Note_on_c, 12, 59, 0
19, 292800, Note_on_c, 12, 59, 84
19, 292800, Note_on_c, 12, 62, 84
19, 292851, Note_on_c, 12, 59, 0
19, 292851, Note_on_c, 12, 62, 0
19, 292860, Note_on_c, 12, 59, 84
19, 292860, Note_on_c, 12, 62, 84
19, 292911, Note_on_c, 12, 59, 0
19, 292911, Note_on_c, 12, 62, 0
19, 292920, Note_on_c, 12, 59, 84
19, 292920, Note_on_c, 12, 62, 84
19, 292971, Note_on_c, 12, 59, 0
19, 292971, Note_on_c, 12, 62, 0
19, 292980, Note_on_c, 12, 59, 84
19, 292980, Note_on_c, 12, 62, 84
19, 293031, Note_on_c, 12, 59, 0
19, 293031, Note_on_c, 12, 62, 0
19, 293040, Note_on_c, 12, 62, 84
19, 293040, Note_on_c, 12, 59, 84
19, 293091, Note_on_c, 12, 62, 0
19, 293091, Note_on_c, 12, 59, 0
19, 293100, Note_on_c, 12, 59, 84
19, 293100, Note_on_c, 12, 62, 84
19, 293151, Note_on_c, 12, 59, 0
19, 293151, Note_on_c, 12, 62, 0
19, 293160, Note_on_c, 12, 59, 84
19, 293160, Note_on_c, 12, 62, 84
19, 293211, Note_on_c, 12, 59, 0
19, 293211, Note_on_c, 12, 62, 0
19, 293220, Note_on_c, 12, 62, 84
19, 293220, Note_on_c, 12, 59, 84
19, 293271, Note_on_c, 12, 62, 0
19, 293271, Note_on_c, 12, 59, 0
19, 293280, Note_on_c, 12, 59, 84
19, 293280, Note_on_c, 12, 62, 84
19, 293331, Note_on_c, 12, 59, 0
19, 293331, Note_on_c, 12, 62, 0
19, 293340, Note_on_c, 12, 62, 84
19, 293340, Note_on_c, 12, 59, 84
19, 293391, Note_on_c, 12, 62, 0
19, 293391, Note_on_c, 12, 59, 0
19, 293400, Note_on_c, 12, 59, 84
19, 293400, Note_on_c, 12, 62, 84
19, 293451, Note_on_c, 12, 59, 0
19, 293451, Note_on_c, 12, 62, 0
19, 293460, Note_on_c, 12, 62, 84
19, 293460, Note_on_c, 12, 59, 84
19, 293511, Note_on_c, 12, 62, 0
19, 293511, Note_on_c, 12, 59, 0
19, 293520, Note_on_c, 12, 62, 84
19, 293520, Note_on_c, 12, 59, 84
19, 293571, Note_on_c, 12, 62, 0
19, 293571, Note_on_c, 12, 59, 0
19, 293580, Note_on_c, 12, 62, 84
19, 293580, Note_on_c, 12, 59, 84
19, 293631, Note_on_c, 12, 62, 0
19, 293631, Note_on_c, 12, 59, 0
19, 293640, Note_on_c, 12, 62, 84
19, 293640, Note_on_c, 12, 59, 84
19, 293691, Note_on_c, 12, 62, 0
19, 293691, Note_on_c, 12, 59, 0
19, 293700, Note_on_c, 12, 62, 84
19, 293700, Note_on_c, 12, 59, 84
19, 293751, Note_on_c, 12, 62, 0
19, 293751, Note_on_c, 12, 59, 0
19, 293760, Note_on_c, 12, 59, 84
19, 293760, Note_on_c, 12, 62, 84
19, 293811, Note_on_c, 12, 59, 0
19, 293811, Note_on_c, 12, 62, 0
19, 293820, Note_on_c, 12, 62, 84
19, 293820, Note_on_c, 12, 59, 84
19, 293871, Note_on_c, 12, 62, 0
19, 293871, Note_on_c, 12, 59, 0
19, 293880, Note_on_c, 12, 62, 84
19, 293880, Note_on_c, 12, 59, 84
19, 293931, Note_on_c, 12, 62, 0
19, 293931, Note_on_c, 12, 59, 0
19, 293940, Note_on_c, 12, 59, 84
19, 293940, Note_on_c, 12, 62, 84
19, 293991, Note_on_c, 12, 59, 0
19, 293991, Note_on_c, 12, 62, 0
19, 294000, Note_on_c, 12, 62, 84
19, 294000, Note_on_c, 12, 59, 84
19, 294051, Note_on_c, 12, 62, 0
19, 294051, Note_on_c, 12, 59, 0
19, 294060, Note_on_c, 12, 62, 84
19, 294060, Note_on_c, 12, 59, 84
19, 294111, Note_on_c, 12, 62, 0
19, 294111, Note_on_c, 12, 59, 0
19, 294120, Note_on_c, 12, 62, 84
19, 294120, Note_on_c, 12, 59, 84
19, 294171, Note_on_c, 12, 62, 0
19, 294171, Note_on_c, 12, 59, 0
19, 294180, Note_on_c, 12, 62, 84
19, 294180, Note_on_c, 12, 59, 84
19, 294231, Note_on_c, 12, 62, 0
19, 294231, Note_on_c, 12, 59, 0
19, 294240, Note_on_c, 12, 62, 84
19, 294240, Note_on_c, 12, 59, 84
19, 294291, Note_on_c, 12, 62, 0
19, 294291, Note_on_c, 12, 59, 0
19, 294300, Note_on_c, 12, 62, 84
19, 294300, Note_on_c, 12, 59, 84
19, 294351, Note_on_c, 12, 62, 0
19, 294351, Note_on_c, 12, 59, 0
19, 294360, Note_on_c, 12, 59, 84
19, 294360, Note_on_c, 12, 62, 84
19, 294411, Note_on_c, 12, 59, 0
19, 294411, Note_on_c, 12, 62, 0
19, 294420, Note_on_c, 12, 59, 84
19, 294420, Note_on_c, 12, 62, 84
19, 294471, Note_on_c, 12, 59, 0
19, 294471, Note_on_c, 12, 62, 0
19, 294480, Note_on_c, 12, 59, 84
19, 294480, Note_on_c, 12, 62, 84
19, 294531, Note_on_c, 12, 59, 0
19, 294531, Note_on_c, 12, 62, 0
19, 294540, Note_on_c, 12, 59, 84
19, 294540, Note_on_c, 12, 62, 84
19, 294591, Note_on_c, 12, 59, 0
19, 294591, Note_on_c, 12, 62, 0
19, 294600, Note_on_c, 12, 62, 84
19, 294600, Note_on_c, 12, 59, 84
19, 294651, Note_on_c, 12, 62, 0
19, 294651, Note_on_c, 12, 59, 0
19, 294660, Note_on_c, 12, 62, 84
19, 294660, Note_on_c, 12, 59, 84
19, 294711, Note_on_c, 12, 62, 0
19, 294711, Note_on_c, 12, 59, 0
19, 294720, Note_on_c, 12, 59, 84
19, 294720, Note_on_c, 12, 62, 84
19, 294771, Note_on_c, 12, 59, 0
19, 294771, Note_on_c, 12, 62, 0
19, 294780, Note_on_c, 12, 59, 84
19, 294780, Note_on_c, 12, 62, 84
19, 294831, Note_on_c, 12, 59, 0
19, 294831, Note_on_c, 12, 62, 0
19, 294840, Note_on_c, 12, 62, 84
19, 294840, Note_on_c, 12, 59, 84
19, 294891, Note_on_c, 12, 62, 0
19, 294891, Note_on_c, 12, 59, 0
19, 294900, Note_on_c, 12, 62, 84
19, 294900, Note_on_c, 12, 59, 84
19, 294951, Note_on_c, 12, 62, 0
19, 294951, Note_on_c, 12, 59, 0
19, 294960, Note_on_c, 12, 62, 84
19, 294960, Note_on_c, 12, 59, 84
19, 295011, Note_on_c, 12, 62, 0
19, 295011, Note_on_c, 12, 59, 0
19, 295020, Note_on_c, 12, 62, 84
19, 295020, Note_on_c, 12, 59, 84
19, 295071, Note_on_c, 12, 62, 0
19, 295071, Note_on_c, 12, 59, 0
19, 295080, Note_on_c, 12, 59, 84
19, 295080, Note_on_c, 12, 62, 84
19, 295131, Note_on_c, 12, 59, 0
19, 295131, Note_on_c, 12, 62, 0
19, 295140, Note_on_c, 12, 59, 84
19, 295140, Note_on_c, 12, 62, 84
19, 295191, Note_on_c, 12, 59, 0
19, 295191, Note_on_c, 12, 62, 0
19, 295200, Note_on_c, 12, 62, 84
19, 295200, Note_on_c, 12, 59, 84
19, 295251, Note_on_c, 12, 62, 0
19, 295251, Note_on_c, 12, 59, 0
19, 295260, Note_on_c, 12, 59, 84
19, 295260, Note_on_c, 12, 62, 84
19, 295311, Note_on_c, 12, 59, 0
19, 295311, Note_on_c, 12, 62, 0
19, 295320, Note_on_c, 12, 59, 84
19, 295320, Note_on_c, 12, 62, 84
19, 295371, Note_on_c, 12, 59, 0
19, 295371, Note_on_c, 12, 62, 0
19, 295380, Note_on_c, 12, 59, 84
19, 295380, Note_on_c, 12, 62, 84
19, 295431, Note_on_c, 12, 59, 0
19, 295431, Note_on_c, 12, 62, 0
19, 295440, Note_on_c, 12, 59, 84
19, 295440, Note_on_c, 12, 62, 84
19, 295491, Note_on_c, 12, 59, 0
19, 295491, Note_on_c, 12, 62, 0
19, 295500, Note_on_c, 12, 62, 84
19, 295500, Note_on_c, 12, 59, 84
19, 295551, Note_on_c, 12, 62, 0
19, 295551, Note_on_c, 12, 59, 0
19, 295560, Note_on_c, 12, 62, 84
19, 295560, Note_on_c, 12, 59, 84
19, 295611, Note_on_c, 12, 62, 0
19, 295611, Note_on_c, 12, 59, 0
19, 295620, Note_on_c, 12, 62, 84
19, 295620, Note_on_c, 12, 59, 84
19, 295671, Note_on_c, 12, 62, 0
19, 295671, Note_on_c, 12, 59, 0
19, 295680, Note_on_c, 12, 59, 84
19, 295680, Note_on_c, 12, 62, 84
19, 295731, Note_on_c, 12, 59, 0
19, 295731, Note_on_c, 12, 62, 0
19, 295740, Note_on_c, 12, 62, 84
19, 295740, Note_on_c, 12, 59, 84
19, 295791, Note_on_c, 12, 62, 0
19, 295791, Note_on_c, 12, 59, 0
19, 295800, Note_on_c, 12, 59, 84
19, 295800, Note_on_c, 12, 62, 84
19, 295851, Note_on_c, 12, 59, 0
19, 295851, Note_on_c, 12, 62, 0
19, 295860, Note_on_c, 12, 62, 84
19, 295860, Note_on_c, 12, 59, 84
19, 295911, Note_on_c, 12, 62, 0
19, 295911, Note_on_c, 12, 59, 0
19, 295920, Note_on_c, 12, 62, 84
19, 295920, Note_on_c, 12, 59, 84
19, 295971, Note_on_c, 12, 62, 0
19, 295971, Note_on_c, 12, 59, 0
19, 295980, Note_on_c, 12, 59, 84
19, 295980, Note_on_c, 12, 62, 84
19, 296031, Note_on_c, 12, 59, 0
19, 296031, Note_on_c, 12, 62, 0
19, 296040, Note_on_c, 12, 62, 84
19, 296040, Note_on_c, 12, 59, 84
19, 296091, Note_on_c, 12, 62, 0
19, 296091, Note_on_c, 12, 59, 0
19, 296100, Note_on_c, 12, 59, 84
19, 296100, Note_on_c, 12, 62, 84
19, 296151, Note_on_c, 12, 59, 0
19, 296151, Note_on_c, 12, 62, 0
19, 296160, Note_on_c, 12, 64, 84
19, 296160, Note_on_c, 12, 60, 84
19, 296211, Note_on_c, 12, 64, 0
19, 296211, Note_on_c, 12, 60, 0
19, 296220, Note_on_c, 12, 60, 84
19, 296220, Note_on_c, 12, 64, 84
19, 296271, Note_on_c, 12, 60, 0
19, 296271, Note_on_c, 12, 64, 0
19, 296280, Note_on_c, 12, 64, 84
19, 296280, Note_on_c, 12, 60, 84
19, 296331, Note_on_c, 12, 64, 0
19, 296331, Note_on_c, 12, 60, 0
19, 296340, Note_on_c, 12, 64, 84
19, 296340, Note_on_c, 12, 60, 84
19, 296391, Note_on_c, 12, 64, 0
19, 296391, Note_on_c, 12, 60, 0
19, 296400, Note_on_c, 12, 60, 84
19, 296400, Note_on_c, 12, 64, 84
19, 296451, Note_on_c, 12, 60, 0
19, 296451, Note_on_c, 12, 64, 0
19, 296460, Note_on_c, 12, 64, 84
19, 296460, Note_on_c, 12, 60, 84
19, 296511, Note_on_c, 12, 64, 0
19, 296511, Note_on_c, 12, 60, 0
19, 296520, Note_on_c, 12, 60, 84
19, 296520, Note_on_c, 12, 64, 84
19, 296571, Note_on_c, 12, 60, 0
19, 296571, Note_on_c, 12, 64, 0
19, 296580, Note_on_c, 12, 60, 84
19, 296580, Note_on_c, 12, 64, 84
19, 296631, Note_on_c, 12, 60, 0
19, 296631, Note_on_c, 12, 64, 0
19, 296640, Note_on_c, 12, 60, 84
19, 296640, Note_on_c, 12, 64, 84
19, 296691, Note_on_c, 12, 60, 0
19, 296691, Note_on_c, 12, 64, 0
19, 296700, Note_on_c, 12, 60, 84
19, 296700, Note_on_c, 12, 64, 84
19, 296751, Note_on_c, 12, 60, 0
19, 296751, Note_on_c, 12, 64, 0
19, 296760, Note_on_c, 12, 60, 84
19, 296760, Note_on_c, 12, 64, 84
19, 296811, Note_on_c, 12, 60, 0
19, 296811, Note_on_c, 12, 64, 0
19, 296820, Note_on_c, 12, 60, 84
19, 296820, Note_on_c, 12, 64, 84
19, 296871, Note_on_c, 12, 60, 0
19, 296871, Note_on_c, 12, 64, 0
19, 296880, Note_on_c, 12, 64, 84
19, 296880, Note_on_c, 12, 60, 84
19, 296931, Note_on_c, 12, 64, 0
19, 296931, Note_on_c, 12, 60, 0
19, 296940, Note_on_c, 12, 60, 84
19, 296940, Note_on_c, 12, 64, 84
19, 296991, Note_on_c, 12, 60, 0
19, 296991, Note_on_c, 12, 64, 0
19, 297000, Note_on_c, 12, 60, 84
19, 297000, Note_on_c, 12, 64, 84
19, 297051, Note_on_c, 12, 60, 0
19, 297051, Note_on_c, 12, 64, 0
19, 297060, Note_on_c, 12, 64, 84
19, 297060, Note_on_c, 12, 60, 84
19, 297111, Note_on_c, 12, 64, 0
19, 297111, Note_on_c, 12, 60, 0
19, 297120, Note_on_c, 12, 60, 84
19, 297120, Note_on_c, 12, 64, 84
19, 297171, Note_on_c, 12, 60, 0
19, 297171, Note_on_c, 12, 64, 0
19, 297180, Note_on_c, 12, 64, 84
19, 297180, Note_on_c, 12, 60, 84
19, 297231, Note_on_c, 12, 64, 0
19, 297231, Note_on_c, 12, 60, 0
19, 297240, Note_on_c, 12, 64, 84
19, 297240, Note_on_c, 12, 60, 84
19, 297291, Note_on_c, 12, 64, 0
19, 297291, Note_on_c, 12, 60, 0
19, 297300, Note_on_c, 12, 60, 84
19, 297300, Note_on_c, 12, 64, 84
19, 297351, Note_on_c, 12, 60, 0
19, 297351, Note_on_c, 12, 64, 0
19, 297360, Note_on_c, 12, 64, 84
19, 297360, Note_on_c, 12, 60, 84
19, 297411, Note_on_c, 12, 64, 0
19, 297411, Note_on_c, 12, 60, 0
19, 297420, Note_on_c, 12, 60, 84
19, 297420, Note_on_c, 12, 64, 84
19, 297471, Note_on_c, 12, 60, 0
19, 297471, Note_on_c, 12, 64, 0
19, 297480, Note_on_c, 12, 60, 84
19, 297480, Note_on_c, 12, 64, 84
19, 297531, Note_on_c, 12, 60, 0
19, 297531, Note_on_c, 12, 64, 0
19, 297540, Note_on_c, 12, 60, 84
19, 297540, Note_on_c, 12, 64, 84
19, 297591, Note_on_c, 12, 60, 0
19, 297591, Note_on_c, 12, 64, 0
19, 297600, Note_on_c, 12, 60, 84
19, 297600, Note_on_c, 12, 64, 84
19, 297651, Note_on_c, 12, 60, 0
19, 297651, Note_on_c, 12, 64, 0
19, 297660, Note_on_c, 12, 60, 84
19, 297660, Note_on_c, 12, 64, 84
19, 297711, Note_on_c, 12, 60, 0
19, 297711, Note_on_c, 12, 64, 0
19, 297720, Note_on_c, 12, 64, 84
19, 297720, Note_on_c, 12, 60, 84
19, 297771, Note_on_c, 12, 64, 0
19, 297771, Note_on_c, 12, 60, 0
19, 297780, Note_on_c, 12, 60, 84
19, 297780, Note_on_c, 12, 64, 84
19, 297831, Note_on_c, 12, 60, 0
19, 297831, Note_on_c, 12, 64, 0
19, 297840, Note_on_c, 12, 64, 84
19, 297840, Note_on_c, 12, 60, 84
19, 297891, Note_on_c, 12, 64, 0
19, 297891, Note_on_c, 12, 60, 0
19, 297900, Note_on_c, 12, 60, 84
19, 297900, Note_on_c, 12, 64, 84
19, 297951, Note_on_c, 12, 60, 0
19, 297951, Note_on_c, 12, 64, 0
19, 297960, Note_on_c, 12, 60, 84
19, 297960, Note_on_c, 12, 64, 84
19, 298011, Note_on_c, 12, 60, 0
19, 298011, Note_on_c, 12, 64, 0
19, 298020, Note_on_c, 12, 64, 84
19, 298020, Note_on_c, 12, 60, 84
19, 298071, Note_on_c, 12, 64, 0
19, 298071, Note_on_c, 12, 60, 0
19, 298080, Note_on_c, 12, 64, 84
19, 298784, Note_on_c, 12, 64, 0
19, 298800, Note_on_c, 12, 60, 84
19, 299039, Note_on_c, 12, 60, 0
19, 299040, Note_on_c, 12, 64, 84
19, 299279, Note_on_c, 12, 64, 0
19, 299280, Note_on_c, 12, 60, 84
19, 299519, Note_on_c, 12, 60, 0
19, 299520, Note_on_c, 12, 67, 84
19, 299759, Note_on_c, 12, 67, 0
19, 299760, Note_on_c, 12, 65, 84
19, 299939, Note_on_c, 12, 65, 0
19, 299940, Note_on_c, 12, 64, 84
19, 299991, Note_on_c, 12, 64, 0
19, 300000, Note_on_c, 12, 65, 84
19, 300704, Note_on_c, 12, 65, 0
19, 300720, Note_on_c, 12, 60, 84
19, 300959, Note_on_c, 12, 60, 0
19, 300960, Note_on_c, 12, 65, 84
19, 301199, Note_on_c, 12, 65, 0
19, 301200, Note_on_c, 12, 60, 84
19, 301439, Note_on_c, 12, 60, 0
19, 301440, Note_on_c, 12, 69, 84
19, 301679, Note_on_c, 12, 69, 0
19, 301680, Note_on_c, 12, 67, 84
19, 301859, Note_on_c, 12, 67, 0
19, 301860, Note_on_c, 12, 65, 84
19, 301911, Note_on_c, 12, 65, 0
19, 301920, Note_on_c, 12, 77, 84
19, 301920, Note_on_c, 12, 74, 84
19, 301971, Note_on_c, 12, 77, 0
19, 301971, Note_on_c, 12, 74, 0
19, 301980, Note_on_c, 12, 77, 84
19, 301980, Note_on_c, 12, 74, 84
19, 302031, Note_on_c, 12, 77, 0
19, 302031, Note_on_c, 12, 74, 0
19, 302040, Note_on_c, 12, 77, 84
19, 302040, Note_on_c, 12, 74, 84
19, 302091, Note_on_c, 12, 77, 0
19, 302091, Note_on_c, 12, 74, 0
19, 302100, Note_on_c, 12, 74, 84
19, 302100, Note_on_c, 12, 77, 84
19, 302151, Note_on_c, 12, 74, 0
19, 302151, Note_on_c, 12, 77, 0
19, 302160, Note_on_c, 12, 74, 84
19, 302160, Note_on_c, 12, 77, 84
19, 302211, Note_on_c, 12, 74, 0
19, 302211, Note_on_c, 12, 77, 0
19, 302220, Note_on_c, 12, 77, 84
19, 302220, Note_on_c, 12, 74, 84
19, 302271, Note_on_c, 12, 77, 0
19, 302271, Note_on_c, 12, 74, 0
19, 302280, Note_on_c, 12, 77, 84
19, 302280, Note_on_c, 12, 74, 84
19, 302331, Note_on_c, 12, 77, 0
19, 302331, Note_on_c, 12, 74, 0
19, 302340, Note_on_c, 12, 77, 84
19, 302340, Note_on_c, 12, 74, 84
19, 302391, Note_on_c, 12, 77, 0
19, 302391, Note_on_c, 12, 74, 0
19, 302400, Note_on_c, 12, 77, 84
19, 302400, Note_on_c, 12, 74, 84
19, 302451, Note_on_c, 12, 77, 0
19, 302451, Note_on_c, 12, 74, 0
19, 302460, Note_on_c, 12, 77, 84
19, 302460, Note_on_c, 12, 74, 84
19, 302511, Note_on_c, 12, 77, 0
19, 302511, Note_on_c, 12, 74, 0
19, 302520, Note_on_c, 12, 77, 84
19, 302520, Note_on_c, 12, 74, 84
19, 302571, Note_on_c, 12, 77, 0
19, 302571, Note_on_c, 12, 74, 0
19, 302580, Note_on_c, 12, 77, 84
19, 302580, Note_on_c, 12, 74, 84
19, 302631, Note_on_c, 12, 77, 0
19, 302631, Note_on_c, 12, 74, 0
19, 302640, Note_on_c, 12, 74, 84
19, 302640, Note_on_c, 12, 77, 84
19, 302691, Note_on_c, 12, 74, 0
19, 302691, Note_on_c, 12, 77, 0
19, 302700, Note_on_c, 12, 74, 84
19, 302700, Note_on_c, 12, 77, 84
19, 302751, Note_on_c, 12, 74, 0
19, 302751, Note_on_c, 12, 77, 0
19, 302760, Note_on_c, 12, 77, 84
19, 302760, Note_on_c, 12, 74, 84
19, 302811, Note_on_c, 12, 77, 0
19, 302811, Note_on_c, 12, 74, 0
19, 302820, Note_on_c, 12, 77, 84
19, 302820, Note_on_c, 12, 74, 84
19, 302871, Note_on_c, 12, 77, 0
19, 302871, Note_on_c, 12, 74, 0
19, 302880, Note_on_c, 12, 74, 84
19, 302880, Note_on_c, 12, 77, 84
19, 302931, Note_on_c, 12, 74, 0
19, 302931, Note_on_c, 12, 77, 0
19, 302940, Note_on_c, 12, 74, 84
19, 302940, Note_on_c, 12, 77, 84
19, 302991, Note_on_c, 12, 74, 0
19, 302991, Note_on_c, 12, 77, 0
19, 303000, Note_on_c, 12, 74, 84
19, 303000, Note_on_c, 12, 77, 84
19, 303051, Note_on_c, 12, 74, 0
19, 303051, Note_on_c, 12, 77, 0
19, 303060, Note_on_c, 12, 77, 84
19, 303060, Note_on_c, 12, 74, 84
19, 303111, Note_on_c, 12, 77, 0
19, 303111, Note_on_c, 12, 74, 0
19, 303120, Note_on_c, 12, 74, 84
19, 303120, Note_on_c, 12, 77, 84
19, 303171, Note_on_c, 12, 74, 0
19, 303171, Note_on_c, 12, 77, 0
19, 303180, Note_on_c, 12, 74, 84
19, 303180, Note_on_c, 12, 77, 84
19, 303231, Note_on_c, 12, 74, 0
19, 303231, Note_on_c, 12, 77, 0
19, 303240, Note_on_c, 12, 74, 84
19, 303240, Note_on_c, 12, 77, 84
19, 303291, Note_on_c, 12, 74, 0
19, 303291, Note_on_c, 12, 77, 0
19, 303300, Note_on_c, 12, 77, 84
19, 303300, Note_on_c, 12, 74, 84
19, 303351, Note_on_c, 12, 77, 0
19, 303351, Note_on_c, 12, 74, 0
19, 303360, Note_on_c, 12, 77, 84
19, 303360, Note_on_c, 12, 74, 84
19, 303411, Note_on_c, 12, 77, 0
19, 303411, Note_on_c, 12, 74, 0
19, 303420, Note_on_c, 12, 77, 84
19, 303420, Note_on_c, 12, 74, 84
19, 303471, Note_on_c, 12, 77, 0
19, 303471, Note_on_c, 12, 74, 0
19, 303480, Note_on_c, 12, 74, 84
19, 303480, Note_on_c, 12, 77, 84
19, 303531, Note_on_c, 12, 74, 0
19, 303531, Note_on_c, 12, 77, 0
19, 303540, Note_on_c, 12, 77, 84
19, 303540, Note_on_c, 12, 74, 84
19, 303591, Note_on_c, 12, 77, 0
19, 303591, Note_on_c, 12, 74, 0
19, 303600, Note_on_c, 12, 77, 84
19, 303600, Note_on_c, 12, 74, 84
19, 303651, Note_on_c, 12, 77, 0
19, 303651, Note_on_c, 12, 74, 0
19, 303660, Note_on_c, 12, 74, 84
19, 303660, Note_on_c, 12, 77, 84
19, 303711, Note_on_c, 12, 74, 0
19, 303711, Note_on_c, 12, 77, 0
19, 303720, Note_on_c, 12, 77, 84
19, 303720, Note_on_c, 12, 74, 84
19, 303771, Note_on_c, 12, 77, 0
19, 303771, Note_on_c, 12, 74, 0
19, 303780, Note_on_c, 12, 74, 84
19, 303780, Note_on_c, 12, 77, 84
19, 303831, Note_on_c, 12, 74, 0
19, 303831, Note_on_c, 12, 77, 0
19, 303840, Note_on_c, 12, 72, 84
19, 303840, Note_on_c, 12, 76, 84
19, 303891, Note_on_c, 12, 72, 0
19, 303891, Note_on_c, 12, 76, 0
19, 303900, Note_on_c, 12, 72, 84
19, 303900, Note_on_c, 12, 76, 84
19, 303951, Note_on_c, 12, 72, 0
19, 303951, Note_on_c, 12, 76, 0
19, 303960, Note_on_c, 12, 72, 84
19, 303960, Note_on_c, 12, 76, 84
19, 304011, Note_on_c, 12, 72, 0
19, 304011, Note_on_c, 12, 76, 0
19, 304020, Note_on_c, 12, 76, 84
19, 304020, Note_on_c, 12, 72, 84
19, 304071, Note_on_c, 12, 76, 0
19, 304071, Note_on_c, 12, 72, 0
19, 304080, Note_on_c, 12, 72, 84
19, 304080, Note_on_c, 12, 76, 84
19, 304131, Note_on_c, 12, 72, 0
19, 304131, Note_on_c, 12, 76, 0
19, 304140, Note_on_c, 12, 72, 84
19, 304140, Note_on_c, 12, 76, 84
19, 304191, Note_on_c, 12, 72, 0
19, 304191, Note_on_c, 12, 76, 0
19, 304200, Note_on_c, 12, 76, 84
19, 304200, Note_on_c, 12, 72, 84
19, 304251, Note_on_c, 12, 76, 0
19, 304251, Note_on_c, 12, 72, 0
19, 304260, Note_on_c, 12, 72, 84
19, 304260, Note_on_c, 12, 76, 84
19, 304311, Note_on_c, 12, 72, 0
19, 304311, Note_on_c, 12, 76, 0
19, 304320, Note_on_c, 12, 76, 84
19, 304320, Note_on_c, 12, 72, 84
19, 304371, Note_on_c, 12, 76, 0
19, 304371, Note_on_c, 12, 72, 0
19, 304380, Note_on_c, 12, 72, 84
19, 304380, Note_on_c, 12, 76, 84
19, 304431, Note_on_c, 12, 72, 0
19, 304431, Note_on_c, 12, 76, 0
19, 304440, Note_on_c, 12, 76, 84
19, 304440, Note_on_c, 12, 72, 84
19, 304491, Note_on_c, 12, 76, 0
19, 304491, Note_on_c, 12, 72, 0
19, 304500, Note_on_c, 12, 72, 84
19, 304500, Note_on_c, 12, 76, 84
19, 304551, Note_on_c, 12, 72, 0
19, 304551, Note_on_c, 12, 76, 0
19, 304560, Note_on_c, 12, 76, 84
19, 304560, Note_on_c, 12, 72, 84
19, 304611, Note_on_c, 12, 76, 0
19, 304611, Note_on_c, 12, 72, 0
19, 304620, Note_on_c, 12, 76, 84
19, 304620, Note_on_c, 12, 72, 84
19, 304671, Note_on_c, 12, 76, 0
19, 304671, Note_on_c, 12, 72, 0
19, 304680, Note_on_c, 12, 76, 84
19, 304680, Note_on_c, 12, 72, 84
19, 304731, Note_on_c, 12, 76, 0
19, 304731, Note_on_c, 12, 72, 0
19, 304740, Note_on_c, 12, 72, 84
19, 304740, Note_on_c, 12, 76, 84
19, 304791, Note_on_c, 12, 72, 0
19, 304791, Note_on_c, 12, 76, 0
19, 304800, Note_on_c, 12, 72, 84
19, 304800, Note_on_c, 12, 76, 84
19, 304851, Note_on_c, 12, 72, 0
19, 304851, Note_on_c, 12, 76, 0
19, 304860, Note_on_c, 12, 76, 84
19, 304860, Note_on_c, 12, 72, 84
19, 304911, Note_on_c, 12, 76, 0
19, 304911, Note_on_c, 12, 72, 0
19, 304920, Note_on_c, 12, 72, 84
19, 304920, Note_on_c, 12, 76, 84
19, 304971, Note_on_c, 12, 72, 0
19, 304971, Note_on_c, 12, 76, 0
19, 304980, Note_on_c, 12, 76, 84
19, 304980, Note_on_c, 12, 72, 84
19, 305031, Note_on_c, 12, 76, 0
19, 305031, Note_on_c, 12, 72, 0
19, 305040, Note_on_c, 12, 76, 84
19, 305040, Note_on_c, 12, 72, 84
19, 305091, Note_on_c, 12, 76, 0
19, 305091, Note_on_c, 12, 72, 0
19, 305100, Note_on_c, 12, 72, 84
19, 305100, Note_on_c, 12, 76, 84
19, 305151, Note_on_c, 12, 72, 0
19, 305151, Note_on_c, 12, 76, 0
19, 305160, Note_on_c, 12, 76, 84
19, 305160, Note_on_c, 12, 72, 84
19, 305211, Note_on_c, 12, 76, 0
19, 305211, Note_on_c, 12, 72, 0
19, 305220, Note_on_c, 12, 76, 84
19, 305220, Note_on_c, 12, 72, 84
19, 305271, Note_on_c, 12, 76, 0
19, 305271, Note_on_c, 12, 72, 0
19, 305280, Note_on_c, 12, 72, 84
19, 305280, Note_on_c, 12, 76, 84
19, 305331, Note_on_c, 12, 72, 0
19, 305331, Note_on_c, 12, 76, 0
19, 305340, Note_on_c, 12, 76, 84
19, 305340, Note_on_c, 12, 72, 84
19, 305391, Note_on_c, 12, 76, 0
19, 305391, Note_on_c, 12, 72, 0
19, 305400, Note_on_c, 12, 72, 84
19, 305400, Note_on_c, 12, 76, 84
19, 305451, Note_on_c, 12, 72, 0
19, 305451, Note_on_c, 12, 76, 0
19, 305460, Note_on_c, 12, 76, 84
19, 305460, Note_on_c, 12, 72, 84
19, 305511, Note_on_c, 12, 76, 0
19, 305511, Note_on_c, 12, 72, 0
19, 305520, Note_on_c, 12, 72, 84
19, 305520, Note_on_c, 12, 76, 84
19, 305571, Note_on_c, 12, 72, 0
19, 305571, Note_on_c, 12, 76, 0
19, 305580, Note_on_c, 12, 72, 84
19, 305580, Note_on_c, 12, 76, 84
19, 305631, Note_on_c, 12, 72, 0
19, 305631, Note_on_c, 12, 76, 0
19, 305640, Note_on_c, 12, 76, 84
19, 305640, Note_on_c, 12, 72, 84
19, 305691, Note_on_c, 12, 76, 0
19, 305691, Note_on_c, 12, 72, 0
19, 305700, Note_on_c, 12, 76, 84
19, 305700, Note_on_c, 12, 72, 84
19, 305751, Note_on_c, 12, 76, 0
19, 305751, Note_on_c, 12, 72, 0
19, 305760, Note_on_c, 12, 74, 84
19, 305760, Note_on_c, 12, 77, 84
19, 305811, Note_on_c, 12, 74, 0
19, 305811, Note_on_c, 12, 77, 0
19, 305820, Note_on_c, 12, 77, 84
19, 305820, Note_on_c, 12, 74, 84
19, 305871, Note_on_c, 12, 77, 0
19, 305871, Note_on_c, 12, 74, 0
19, 305880, Note_on_c, 12, 77, 84
19, 305880, Note_on_c, 12, 74, 84
19, 305931, Note_on_c, 12, 77, 0
19, 305931, Note_on_c, 12, 74, 0
19, 305940, Note_on_c, 12, 77, 84
19, 305940, Note_on_c, 12, 74, 84
19, 305991, Note_on_c, 12, 77, 0
19, 305991, Note_on_c, 12, 74, 0
19, 306000, Note_on_c, 12, 77, 84
19, 306000, Note_on_c, 12, 74, 84
19, 306051, Note_on_c, 12, 77, 0
19, 306051, Note_on_c, 12, 74, 0
19, 306060, Note_on_c, 12, 74, 84
19, 306060, Note_on_c, 12, 77, 84
19, 306111, Note_on_c, 12, 74, 0
19, 306111, Note_on_c, 12, 77, 0
19, 306120, Note_on_c, 12, 74, 84
19, 306120, Note_on_c, 12, 77, 84
19, 306171, Note_on_c, 12, 74, 0
19, 306171, Note_on_c, 12, 77, 0
19, 306180, Note_on_c, 12, 77, 84
19, 306180, Note_on_c, 12, 74, 84
19, 306231, Note_on_c, 12, 77, 0
19, 306231, Note_on_c, 12, 74, 0
19, 306240, Note_on_c, 12, 74, 84
19, 306240, Note_on_c, 12, 77, 84
19, 306291, Note_on_c, 12, 74, 0
19, 306291, Note_on_c, 12, 77, 0
19, 306300, Note_on_c, 12, 74, 84
19, 306300, Note_on_c, 12, 77, 84
19, 306351, Note_on_c, 12, 74, 0
19, 306351, Note_on_c, 12, 77, 0
19, 306360, Note_on_c, 12, 74, 84
19, 306360, Note_on_c, 12, 77, 84
19, 306411, Note_on_c, 12, 74, 0
19, 306411, Note_on_c, 12, 77, 0
19, 306420, Note_on_c, 12, 74, 84
19, 306420, Note_on_c, 12, 77, 84
19, 306471, Note_on_c, 12, 74, 0
19, 306471, Note_on_c, 12, 77, 0
19, 306480, Note_on_c, 12, 74, 84
19, 306480, Note_on_c, 12, 77, 84
19, 306531, Note_on_c, 12, 74, 0
19, 306531, Note_on_c, 12, 77, 0
19, 306540, Note_on_c, 12, 77, 84
19, 306540, Note_on_c, 12, 74, 84
19, 306591, Note_on_c, 12, 77, 0
19, 306591, Note_on_c, 12, 74, 0
19, 306600, Note_on_c, 12, 77, 84
19, 306600, Note_on_c, 12, 74, 84
19, 306651, Note_on_c, 12, 77, 0
19, 306651, Note_on_c, 12, 74, 0
19, 306660, Note_on_c, 12, 74, 84
19, 306660, Note_on_c, 12, 77, 84
19, 306711, Note_on_c, 12, 74, 0
19, 306711, Note_on_c, 12, 77, 0
19, 306720, Note_on_c, 12, 76, 84
19, 306720, Note_on_c, 12, 72, 84
19, 306771, Note_on_c, 12, 76, 0
19, 306771, Note_on_c, 12, 72, 0
19, 306780, Note_on_c, 12, 76, 84
19, 306780, Note_on_c, 12, 72, 84
19, 306831, Note_on_c, 12, 76, 0
19, 306831, Note_on_c, 12, 72, 0
19, 306840, Note_on_c, 12, 76, 84
19, 306840, Note_on_c, 12, 72, 84
19, 306891, Note_on_c, 12, 76, 0
19, 306891, Note_on_c, 12, 72, 0
19, 306900, Note_on_c, 12, 72, 84
19, 306900, Note_on_c, 12, 76, 84
19, 306951, Note_on_c, 12, 72, 0
19, 306951, Note_on_c, 12, 76, 0
19, 306960, Note_on_c, 12, 76, 84
19, 306960, Note_on_c, 12, 72, 84
19, 307011, Note_on_c, 12, 76, 0
19, 307011, Note_on_c, 12, 72, 0
19, 307020, Note_on_c, 12, 76, 84
19, 307020, Note_on_c, 12, 72, 84
19, 307071, Note_on_c, 12, 76, 0
19, 307071, Note_on_c, 12, 72, 0
19, 307080, Note_on_c, 12, 76, 84
19, 307080, Note_on_c, 12, 72, 84
19, 307131, Note_on_c, 12, 76, 0
19, 307131, Note_on_c, 12, 72, 0
19, 307140, Note_on_c, 12, 72, 84
19, 307140, Note_on_c, 12, 76, 84
19, 307191, Note_on_c, 12, 72, 0
19, 307191, Note_on_c, 12, 76, 0
19, 307200, Note_on_c, 12, 76, 84
19, 307200, Note_on_c, 12, 72, 84
19, 307251, Note_on_c, 12, 76, 0
19, 307251, Note_on_c, 12, 72, 0
19, 307260, Note_on_c, 12, 72, 84
19, 307260, Note_on_c, 12, 76, 84
19, 307311, Note_on_c, 12, 72, 0
19, 307311, Note_on_c, 12, 76, 0
19, 307320, Note_on_c, 12, 76, 84
19, 307320, Note_on_c, 12, 72, 84
19, 307371, Note_on_c, 12, 76, 0
19, 307371, Note_on_c, 12, 72, 0
19, 307380, Note_on_c, 12, 76, 84
19, 307380, Note_on_c, 12, 72, 84
19, 307431, Note_on_c, 12, 76, 0
19, 307431, Note_on_c, 12, 72, 0
19, 307440, Note_on_c, 12, 76, 84
19, 307440, Note_on_c, 12, 72, 84
19, 307491, Note_on_c, 12, 76, 0
19, 307491, Note_on_c, 12, 72, 0
19, 307500, Note_on_c, 12, 72, 84
19, 307500, Note_on_c, 12, 76, 84
19, 307551, Note_on_c, 12, 72, 0
19, 307551, Note_on_c, 12, 76, 0
19, 307560, Note_on_c, 12, 72, 84
19, 307560, Note_on_c, 12, 76, 84
19, 307611, Note_on_c, 12, 72, 0
19, 307611, Note_on_c, 12, 76, 0
19, 307620, Note_on_c, 12, 72, 84
19, 307620, Note_on_c, 12, 76, 84
19, 307671, Note_on_c, 12, 72, 0
19, 307671, Note_on_c, 12, 76, 0
19, 307680, Note_on_c, 12, 74, 84
19, 307784, Note_on_c, 12, 74, 0
19, 307800, Note_on_c, 12, 71, 84
19, 308024, Note_on_c, 12, 71, 0
19, 308040, Note_on_c, 12, 72, 84
19, 308144, Note_on_c, 12, 72, 0
19, 308160, Note_on_c, 12, 74, 84
19, 308249, Note_on_c, 12, 74, 0
19, 308280, Note_on_c, 12, 79, 84
19, 308399, Note_on_c, 12, 79, 0
19, 308400, Note_on_c, 12, 77, 84
19, 308504, Note_on_c, 12, 77, 0
19, 308520, Note_on_c, 12, 76, 84
19, 308609, Note_on_c, 12, 76, 0
19, 308640, Note_on_c, 12, 74, 84
19, 308729, Note_on_c, 12, 74, 0
19, 308760, Note_on_c, 12, 76, 84
19, 308879, Note_on_c, 12, 76, 0
19, 308880, Note_on_c, 12, 74, 84
19, 308984, Note_on_c, 12, 74, 0
19, 309000, Note_on_c, 12, 72, 84
19, 309089, Note_on_c, 12, 72, 0
19, 309120, Note_on_c, 12, 71, 84
19, 309209, Note_on_c, 12, 71, 0
19, 309240, Note_on_c, 12, 71, 84
19, 309359, Note_on_c, 12, 71, 0
19, 309360, Note_on_c, 12, 72, 84
19, 309464, Note_on_c, 12, 72, 0
19, 309480, Note_on_c, 12, 66, 84
19, 309569, Note_on_c, 12, 66, 0
19, 309600, Note_on_c, 12, 67, 84
19, 309839, Note_on_c, 12, 67, 0
19, 310200, Note_on_c, 12, 67, 84
19, 310319, Note_on_c, 12, 67, 0
19, 310320, Note_on_c, 12, 66, 84
19, 310424, Note_on_c, 12, 66, 0
19, 310440, Note_on_c, 12, 72, 84
19, 310529, Note_on_c, 12, 72, 0
19, 310560, Note_on_c, 12, 71, 84
19, 310679, Note_on_c, 12, 71, 0
19, 311280, Note_on_c, 12, 62, 84
19, 311359, Note_on_c, 12, 62, 0
19, 311360, Note_on_c, 12, 64, 84
19, 311439, Note_on_c, 12, 64, 0
19, 311440, Note_on_c, 12, 65, 84
19, 311507, Note_on_c, 12, 65, 0
19, 311520, Note_on_c, 12, 67, 84
19, 311699, Note_on_c, 12, 67, 0
19, 311760, Note_on_c, 12, 64, 84
19, 311839, Note_on_c, 12, 64, 0
19, 311840, Note_on_c, 12, 65, 84
19, 311919, Note_on_c, 12, 65, 0
19, 311920, Note_on_c, 12, 67, 84
19, 311987, Note_on_c, 12, 67, 0
19, 312000, Note_on_c, 12, 69, 84
19, 312179, Note_on_c, 12, 69, 0
19, 312240, Note_on_c, 12, 69, 84
19, 312319, Note_on_c, 12, 69, 0
19, 312320, Note_on_c, 12, 71, 84
19, 312399, Note_on_c, 12, 71, 0
19, 312400, Note_on_c, 12, 72, 84
19, 312467, Note_on_c, 12, 72, 0
19, 312480, Note_on_c, 12, 67, 84
19, 313184, Note_on_c, 12, 67, 0
19, 313200, Note_on_c, 12, 64, 84
19, 313279, Note_on_c, 12, 64, 0
19, 313280, Note_on_c, 12, 65, 84
19, 313359, Note_on_c, 12, 65, 0
19, 313360, Note_on_c, 12, 67, 84
19, 313439, Note_on_c, 12, 67, 0
19, 313440, Note_on_c, 12, 65, 84
19, 313679, Note_on_c, 12, 65, 0
19, 313680, Note_on_c, 12, 62, 84
19, 313759, Note_on_c, 12, 62, 0
19, 313760, Note_on_c, 12, 64, 84
19, 313839, Note_on_c, 12, 64, 0
19, 313840, Note_on_c, 12, 65, 84
19, 313919, Note_on_c, 12, 65, 0
19, 313920, Note_on_c, 12, 64, 84
19, 314159, Note_on_c, 12, 64, 0
19, 314160, Note_on_c, 12, 60, 84
19, 314239, Note_on_c, 12, 60, 0
19, 314240, Note_on_c, 12, 62, 84
19, 314319, Note_on_c, 12, 62, 0
19, 314320, Note_on_c, 12, 64, 84
19, 314387, Note_on_c, 12, 64, 0
19, 314400, Note_on_c, 12, 65, 84
19, 314579, Note_on_c, 12, 65, 0
19, 314638, Control_c, 12, 11, 80
19, 314640, Note_on_c, 12, 59, 76
19, 314693, Control_c, 12, 11, 85
19, 314719, Note_on_c, 12, 59, 0
19, 314720, Note_on_c, 12, 60, 76
19, 314747, Control_c, 12, 11, 90
19, 314799, Note_on_c, 12, 60, 0
19, 314800, Control_c, 12, 11, 96
19, 314800, Note_on_c, 12, 62, 76
19, 314853, Control_c, 12, 11, 101
19, 314867, Note_on_c, 12, 62, 0
19, 314880, Note_on_c, 12, 55, 76
19, 314907, Control_c, 12, 11, 106
19, 314960, Control_c, 12, 11, 111
19, 315013, Control_c, 12, 11, 117
19, 315067, Control_c, 12, 11, 127
19, 315104, Note_on_c, 12, 55, 0
19, 315120, Note_on_c, 12, 71, 76
19, 315187, Note_on_c, 12, 71, 0
19, 315200, Note_on_c, 12, 72, 76
19, 315267, Note_on_c, 12, 72, 0
19, 315280, Note_on_c, 12, 74, 76
19, 315347, Note_on_c, 12, 74, 0
19, 315360, Note_on_c, 12, 72, 76
19, 315427, Note_on_c, 12, 72, 0
19, 315440, Note_on_c, 12, 60, 76
19, 315507, Note_on_c, 12, 60, 0
19, 315520, Note_on_c, 12, 72, 76
19, 315587, Note_on_c, 12, 72, 0
19, 315600, Note_on_c, 12, 72, 76
19, 315667, Note_on_c, 12, 72, 0
19, 315680, Note_on_c, 12, 71, 76
19, 315747, Note_on_c, 12, 71, 0
19, 315760, Note_on_c, 12, 70, 76
19, 315827, Note_on_c, 12, 70, 0
19, 315840, Note_on_c, 12, 69, 76
19, 315907, Note_on_c, 12, 69, 0
19, 315920, Note_on_c, 12, 69, 76
19, 315987, Note_on_c, 12, 69, 0
19, 316000, Note_on_c, 12, 69, 76
19, 316067, Note_on_c, 12, 69, 0
19, 316080, Note_on_c, 12, 69, 76
19, 316147, Note_on_c, 12, 69, 0
19, 316160, Note_on_c, 12, 67, 76
19, 316227, Note_on_c, 12, 67, 0
19, 316240, Note_on_c, 12, 65, 76
19, 316307, Note_on_c, 12, 65, 0
19, 316320, Note_on_c, 12, 64, 76
19, 316387, Note_on_c, 12, 64, 0
19, 316400, Note_on_c, 12, 55, 76
19, 316467, Note_on_c, 12, 55, 0
19, 316480, Note_on_c, 12, 55, 76
19, 316547, Note_on_c, 12, 55, 0
19, 316560, Note_on_c, 12, 55, 76
19, 316627, Note_on_c, 12, 55, 0
19, 316640, Note_on_c, 12, 57, 76
19, 316707, Note_on_c, 12, 57, 0
19, 316720, Note_on_c, 12, 59, 76
19, 316787, Note_on_c, 12, 59, 0
19, 316800, Note_on_c, 12, 60, 76
19, 317024, Note_on_c, 12, 60, 0
19, 317040, Note_on_c, 12, 64, 52
19, 317119, Note_on_c, 12, 64, 0
19, 317120, Note_on_c, 12, 65, 52
19, 317199, Note_on_c, 12, 65, 0
19, 317200, Note_on_c, 12, 67, 52
19, 317279, Note_on_c, 12, 67, 0
19, 317280, Note_on_c, 12, 65, 52
19, 317519, Note_on_c, 12, 65, 0
19, 317520, Note_on_c, 12, 62, 52
19, 317599, Note_on_c, 12, 62, 0
19, 317600, Note_on_c, 12, 64, 52
19, 317679, Note_on_c, 12, 64, 0
19, 317680, Note_on_c, 12, 65, 52
19, 317759, Note_on_c, 12, 65, 0
19, 317760, Note_on_c, 12, 64, 52
19, 317999, Note_on_c, 12, 64, 0
19, 318000, Note_on_c, 12, 60, 52
19, 318079, Note_on_c, 12, 60, 0
19, 318080, Note_on_c, 12, 62, 52
19, 318159, Note_on_c, 12, 62, 0
19, 318160, Note_on_c, 12, 64, 52
19, 318227, Note_on_c, 12, 64, 0
19, 318240, Note_on_c, 12, 65, 52
19, 318464, Note_on_c, 12, 65, 0
19, 318480, Note_on_c, 12, 67, 76
19, 318547, Note_on_c, 12, 67, 0
19, 318560, Note_on_c, 12, 69, 76
19, 318627, Note_on_c, 12, 69, 0
19, 318640, Note_on_c, 12, 71, 76
19, 318707, Note_on_c, 12, 71, 0
19, 318720, Note_on_c, 12, 72, 76
19, 318944, Note_on_c, 12, 72, 0
19, 318960, Note_on_c, 12, 65, 52
19, 319039, Note_on_c, 12, 65, 0
19, 319040, Note_on_c, 12, 67, 52
19, 319119, Note_on_c, 12, 67, 0
19, 319120, Note_on_c, 12, 69, 52
19, 319199, Note_on_c, 12, 69, 0
19, 319200, Note_on_c, 12, 67, 52
19, 319439, Note_on_c, 12, 67, 0
19, 319440, Note_on_c, 12, 64, 52
19, 319519, Note_on_c, 12, 64, 0
19, 319520, Note_on_c, 12, 65, 52
19, 319599, Note_on_c, 12, 65, 0
19, 319600, Note_on_c, 12, 67, 52
19, 319679, Note_on_c, 12, 67, 0
19, 319680, Note_on_c, 12, 65, 52
19, 319919, Note_on_c, 12, 65, 0
19, 319920, Note_on_c, 12, 62, 52
19, 319999, Note_on_c, 12, 62, 0
19, 320000, Note_on_c, 12, 64, 52
19, 320079, Note_on_c, 12, 64, 0
19, 320080, Note_on_c, 12, 65, 52
19, 320147, Note_on_c, 12, 65, 0
19, 320160, Note_on_c, 12, 67, 52
19, 320384, Note_on_c, 12, 67, 0
19, 320400, Note_on_c, 12, 57, 76
19, 320467, Note_on_c, 12, 57, 0
19, 320480, Note_on_c, 12, 59, 76
19, 320547, Note_on_c, 12, 59, 0
19, 320560, Note_on_c, 12, 61, 76
19, 320627, Note_on_c, 12, 61, 0
19, 320640, Note_on_c, 12, 62, 76
19, 320879, Note_on_c, 12, 62, 0
19, 321840, Note_on_c, 12, 72, 44
19, 321919, Note_on_c, 12, 72, 0
19, 321920, Note_on_c, 12, 70, 44
19, 321999, Note_on_c, 12, 70, 0
19, 322000, Note_on_c, 12, 69, 44
19, 322067, Note_on_c, 12, 69, 0
19, 322080, Note_on_c, 12, 67, 44
19, 322131, Note_on_c, 12, 67, 0
19, 322140, Note_on_c, 12, 76, 45
19, 322191, Note_on_c, 12, 76, 0
19, 322200, Note_on_c, 12, 76, 46
19, 322251, Note_on_c, 12, 76, 0
19, 322260, Note_on_c, 12, 76, 47
19, 322311, Note_on_c, 12, 76, 0
19, 322320, Note_on_c, 12, 76, 49
19, 322371, Note_on_c, 12, 76, 0
19, 322380, Note_on_c, 12, 76, 50
19, 322431, Note_on_c, 12, 76, 0
19, 322440, Note_on_c, 12, 76, 51
19, 322491, Note_on_c, 12, 76, 0
19, 322500, Note_on_c, 12, 76, 52
19, 322551, Note_on_c, 12, 76, 0
19, 322560, Note_on_c, 12, 76, 54
19, 322611, Note_on_c, 12, 76, 0
19, 322620, Note_on_c, 12, 76, 55
19, 322671, Note_on_c, 12, 76, 0
19, 322680, Note_on_c, 12, 76, 56
19, 322731, Note_on_c, 12, 76, 0
19, 322740, Note_on_c, 12, 76, 57
19, 322791, Note_on_c, 12, 76, 0
19, 322800, Note_on_c, 12, 76, 59
19, 322851, Note_on_c, 12, 76, 0
19, 322860, Note_on_c, 12, 76, 60
19, 322911, Note_on_c, 12, 76, 0
19, 322920, Note_on_c, 12, 76, 61
19, 322971, Note_on_c, 12, 76, 0
19, 322980, Note_on_c, 12, 76, 62
19, 323031, Note_on_c, 12, 76, 0
19, 323040, Note_on_c, 12, 76, 64
19, 323091, Note_on_c, 12, 76, 0
19, 323100, Note_on_c, 12, 76, 65
19, 323151, Note_on_c, 12, 76, 0
19, 323160, Note_on_c, 12, 76, 66
19, 323211, Note_on_c, 12, 76, 0
19, 323220, Note_on_c, 12, 76, 67
19, 323271, Note_on_c, 12, 76, 0
19, 323280, Note_on_c, 12, 76, 69
19, 323331, Note_on_c, 12, 76, 0
19, 323340, Note_on_c, 12, 76, 70
19, 323391, Note_on_c, 12, 76, 0
19, 323400, Note_on_c, 12, 76, 71
19, 323451, Note_on_c, 12, 76, 0
19, 323460, Note_on_c, 12, 76, 72
19, 323511, Note_on_c, 12, 76, 0
19, 323520, Note_on_c, 12, 76, 74
19, 323571, Note_on_c, 12, 76, 0
19, 323580, Note_on_c, 12, 76, 75
19, 323631, Note_on_c, 12, 76, 0
19, 323640, Note_on_c, 12, 76, 76
19, 323691, Note_on_c, 12, 76, 0
19, 323700, Note_on_c, 12, 76, 77
19, 323751, Note_on_c, 12, 76, 0
19, 323760, Note_on_c, 12, 76, 79
19, 323811, Note_on_c, 12, 76, 0
19, 323820, Note_on_c, 12, 76, 80
19, 323871, Note_on_c, 12, 76, 0
19, 323880, Note_on_c, 12, 76, 81
19, 323931, Note_on_c, 12, 76, 0
19, 323940, Note_on_c, 12, 76, 82
19, 323991, Note_on_c, 12, 76, 0
19, 324000, Note_on_c, 12, 69, 84
19, 324000, Note_on_c, 12, 77, 84
19, 324051, Note_on_c, 12, 69, 0
19, 324051, Note_on_c, 12, 77, 0
19, 324060, Note_on_c, 12, 77, 84
19, 324060, Note_on_c, 12, 69, 84
19, 324111, Note_on_c, 12, 77, 0
19, 324111, Note_on_c, 12, 69, 0
19, 324120, Note_on_c, 12, 77, 84
19, 324120, Note_on_c, 12, 69, 84
19, 324171, Note_on_c, 12, 77, 0
19, 324171, Note_on_c, 12, 69, 0
19, 324180, Note_on_c, 12, 77, 84
19, 324180, Note_on_c, 12, 69, 84
19, 324231, Note_on_c, 12, 77, 0
19, 324231, Note_on_c, 12, 69, 0
19, 324240, Note_on_c, 12, 69, 84
19, 324240, Note_on_c, 12, 77, 84
19, 324291, Note_on_c, 12, 69, 0
19, 324291, Note_on_c, 12, 77, 0
19, 324300, Note_on_c, 12, 77, 84
19, 324300, Note_on_c, 12, 69, 84
19, 324351, Note_on_c, 12, 77, 0
19, 324351, Note_on_c, 12, 69, 0
19, 324360, Note_on_c, 12, 77, 84
19, 324360, Note_on_c, 12, 69, 84
19, 324411, Note_on_c, 12, 77, 0
19, 324411, Note_on_c, 12, 69, 0
19, 324420, Note_on_c, 12, 77, 84
19, 324420, Note_on_c, 12, 69, 84
19, 324471, Note_on_c, 12, 77, 0
19, 324471, Note_on_c, 12, 69, 0
19, 324480, Note_on_c, 12, 69, 84
19, 324480, Note_on_c, 12, 77, 84
19, 324531, Note_on_c, 12, 69, 0
19, 324531, Note_on_c, 12, 77, 0
19, 324540, Note_on_c, 12, 77, 84
19, 324540, Note_on_c, 12, 69, 84
19, 324591, Note_on_c, 12, 77, 0
19, 324591, Note_on_c, 12, 69, 0
19, 324600, Note_on_c, 12, 69, 84
19, 324600, Note_on_c, 12, 77, 84
19, 324651, Note_on_c, 12, 69, 0
19, 324651, Note_on_c, 12, 77, 0
19, 324660, Note_on_c, 12, 69, 84
19, 324660, Note_on_c, 12, 77, 84
19, 324711, Note_on_c, 12, 69, 0
19, 324711, Note_on_c, 12, 77, 0
19, 324720, Note_on_c, 12, 77, 84
19, 324720, Note_on_c, 12, 69, 84
19, 324771, Note_on_c, 12, 77, 0
19, 324771, Note_on_c, 12, 69, 0
19, 324780, Note_on_c, 12, 77, 84
19, 324780, Note_on_c, 12, 69, 84
19, 324831, Note_on_c, 12, 77, 0
19, 324831, Note_on_c, 12, 69, 0
19, 324840, Note_on_c, 12, 77, 84
19, 324840, Note_on_c, 12, 69, 84
19, 324891, Note_on_c, 12, 77, 0
19, 324891, Note_on_c, 12, 69, 0
19, 324900, Note_on_c, 12, 77, 84
19, 324900, Note_on_c, 12, 69, 84
19, 324951, Note_on_c, 12, 77, 0
19, 324951, Note_on_c, 12, 69, 0
19, 324960, Note_on_c, 12, 77, 84
19, 324960, Note_on_c, 12, 69, 84
19, 325011, Note_on_c, 12, 77, 0
19, 325011, Note_on_c, 12, 69, 0
19, 325020, Note_on_c, 12, 57, 84
19, 325071, Note_on_c, 12, 57, 0
19, 325080, Note_on_c, 12, 58, 84
19, 325131, Note_on_c, 12, 58, 0
19, 325140, Note_on_c, 12, 60, 84
19, 325191, Note_on_c, 12, 60, 0
19, 325200, Note_on_c, 12, 62, 84
19, 325251, Note_on_c, 12, 62, 0
19, 325260, Note_on_c, 12, 64, 84
19, 325311, Note_on_c, 12, 64, 0
19, 325320, Note_on_c, 12, 65, 84
19, 325371, Note_on_c, 12, 65, 0
19, 325380, Note_on_c, 12, 67, 84
19, 325431, Note_on_c, 12, 67, 0
19, 325440, Note_on_c, 12, 69, 84
19, 325491, Note_on_c, 12, 69, 0
19, 325500, Note_on_c, 12, 65, 84
19, 325551, Note_on_c, 12, 65, 0
19, 325560, Note_on_c, 12, 67, 84
19, 325611, Note_on_c, 12, 67, 0
19, 325620, Note_on_c, 12, 69, 84
19, 325671, Note_on_c, 12, 69, 0
19, 325680, Note_on_c, 12, 70, 84
19, 325731, Note_on_c, 12, 70, 0
19, 325740, Note_on_c, 12, 72, 84
19, 325791, Note_on_c, 12, 72, 0
19, 325800, Note_on_c, 12, 74, 84
19, 325851, Note_on_c, 12, 74, 0
19, 325860, Note_on_c, 12, 76, 84
19, 325911, Note_on_c, 12, 76, 0
19, 325920, Note_on_c, 12, 77, 84
19, 325971, Note_on_c, 12, 77, 0
19, 325980, Note_on_c, 12, 79, 84
19, 326031, Note_on_c, 12, 79, 0
19, 326040, Note_on_c, 12, 81, 84
19, 326091, Note_on_c, 12, 81, 0
19, 326100, Note_on_c, 12, 83, 84
19, 326151, Note_on_c, 12, 83, 0
19, 326160, Note_on_c, 12, 84, 84
19, 326211, Note_on_c, 12, 84, 0
19, 326220, Note_on_c, 12, 84, 84
19, 326271, Note_on_c, 12, 84, 0
19, 326280, Note_on_c, 12, 84, 84
19, 326331, Note_on_c, 12, 84, 0
19, 326340, Note_on_c, 12, 84, 84
19, 326391, Note_on_c, 12, 84, 0
19, 326400, Note_on_c, 12, 84, 84
19, 326451, Note_on_c, 12, 84, 0
19, 326460, Note_on_c, 12, 84, 84
19, 326511, Note_on_c, 12, 84, 0
19, 326520, Note_on_c, 12, 84, 84
19, 326571, Note_on_c, 12, 84, 0
19, 326580, Note_on_c, 12, 84, 84
19, 326631, Note_on_c, 12, 84, 0
19, 326640, Note_on_c, 12, 84, 84
19, 326691, Note_on_c, 12, 84, 0
19, 326700, Note_on_c, 12, 84, 84
19, 326751, Note_on_c, 12, 84, 0
19, 326760, Note_on_c, 12, 84, 84
19, 326811, Note_on_c, 12, 84, 0
19, 326820, Note_on_c, 12, 84, 84
19, 326871, Note_on_c, 12, 84, 0
19, 326880, Note_on_c, 12, 84, 84
19, 326931, Note_on_c, 12, 84, 0
19, 326940, Note_on_c, 12, 84, 84
19, 326991, Note_on_c, 12, 84, 0
19, 327000, Note_on_c, 12, 83, 84
19, 327051, Note_on_c, 12, 83, 0
19, 327060, Note_on_c, 12, 81, 84
19, 327111, Note_on_c, 12, 81, 0
19, 327120, Note_on_c, 12, 79, 84
19, 327171, Note_on_c, 12, 79, 0
19, 327180, Note_on_c, 12, 77, 84
19, 327231, Note_on_c, 12, 77, 0
19, 327240, Note_on_c, 12, 76, 84
19, 327291, Note_on_c, 12, 76, 0
19, 327300, Note_on_c, 12, 74, 84
19, 327351, Note_on_c, 12, 74, 0
19, 327360, Note_on_c, 12, 72, 84
19, 327411, Note_on_c, 12, 72, 0
19, 327420, Note_on_c, 12, 71, 84
19, 327471, Note_on_c, 12, 71, 0
19, 327480, Note_on_c, 12, 69, 84
19, 327531, Note_on_c, 12, 69, 0
19, 327540, Note_on_c, 12, 67, 84
19, 327591, Note_on_c, 12, 67, 0
19, 327600, Note_on_c, 12, 65, 84
19, 327651, Note_on_c, 12, 65, 0
19, 327660, Note_on_c, 12, 64, 84
19, 327711, Note_on_c, 12, 64, 0
19, 327720, Note_on_c, 12, 62, 84
19, 327771, Note_on_c, 12, 62, 0
19, 327780, Note_on_c, 12, 60, 84
19, 327831, Note_on_c, 12, 60, 0
19, 327840, Note_on_c, 12, 62, 84
19, 328019, Note_on_c, 12, 62, 0
19, 328800, Note_on_c, 12, 59, 84
19, 328979, Note_on_c, 12, 59, 0
19, 330240, Note_on_c, 12, 56, 76
19, 330299, Note_on_c, 12, 56, 0
19, 330300, Note_on_c, 12, 56, 52
19, 330719, Note_on_c, 12, 56, 0
19, 330720, Note_on_c, 12, 57, 52
19, 330959, Note_on_c, 12, 57, 0
19, 332160, Note_on_c, 12, 56, 76
19, 332219, Note_on_c, 12, 56, 0
19, 332220, Note_on_c, 12, 56, 52
19, 332639, Note_on_c, 12, 56, 0
19, 332640, Note_on_c, 12, 57, 52
19, 332879, Note_on_c, 12, 57, 0
19, 334080, Note_on_c, 12, 73, 76
19, 334139, Note_on_c, 12, 73, 0
19, 334140, Note_on_c, 12, 73, 52
19, 334559, Note_on_c, 12, 73, 0
19, 334560, Note_on_c, 12, 74, 52
19, 334784, Note_on_c, 12, 74, 0
19, 334800, Note_on_c, 12, 58, 52
19, 335024, Note_on_c, 12, 58, 0
19, 335040, Note_on_c, 12, 58, 52
19, 335264, Note_on_c, 12, 58, 0
19, 335280, Note_on_c, 12, 58, 52
19, 335504, Note_on_c, 12, 58, 0
19, 335520, Note_on_c, 12, 57, 52
19, 335759, Note_on_c, 12, 57, 0
19, 337080, Note_on_c, 12, 62, 52
19, 337139, Note_on_c, 12, 62, 0
19, 337140, Note_on_c, 12, 64, 52
19, 337199, Note_on_c, 12, 64, 0
19, 337200, Note_on_c, 12, 65, 52
19, 337259, Note_on_c, 12, 65, 0
19, 337260, Note_on_c, 12, 67, 52
19, 337319, Note_on_c, 12, 67, 0
19, 337320, Note_on_c, 12, 69, 52
19, 337379, Note_on_c, 12, 69, 0
19, 337380, Note_on_c, 12, 71, 52
19, 337431, Note_on_c, 12, 71, 0
19, 337440, Note_on_c, 12, 72, 76
19, 337491, Note_on_c, 12, 72, 0
19, 337500, Note_on_c, 12, 72, 76
19, 337551, Note_on_c, 12, 72, 0
19, 337560, Note_on_c, 12, 72, 76
19, 337611, Note_on_c, 12, 72, 0
19, 337620, Note_on_c, 12, 72, 76
19, 337671, Note_on_c, 12, 72, 0
19, 337680, Note_on_c, 12, 72, 76
19, 337731, Note_on_c, 12, 72, 0
19, 337740, Note_on_c, 12, 72, 76
19, 337791, Note_on_c, 12, 72, 0
19, 337800, Note_on_c, 12, 72, 76
19, 337851, Note_on_c, 12, 72, 0
19, 337860, Note_on_c, 12, 72, 76
19, 337911, Note_on_c, 12, 72, 0
19, 337920, Note_on_c, 12, 72, 76
19, 337971, Note_on_c, 12, 72, 0
19, 337980, Note_on_c, 12, 72, 76
19, 338031, Note_on_c, 12, 72, 0
19, 338040, Note_on_c, 12, 72, 76
19, 338091, Note_on_c, 12, 72, 0
19, 338100, Note_on_c, 12, 72, 76
19, 338151, Note_on_c, 12, 72, 0
19, 338160, Note_on_c, 12, 71, 76
19, 338211, Note_on_c, 12, 71, 0
19, 338220, Note_on_c, 12, 71, 76
19, 338271, Note_on_c, 12, 71, 0
19, 338280, Note_on_c, 12, 71, 76
19, 338331, Note_on_c, 12, 71, 0
19, 338340, Note_on_c, 12, 71, 76
19, 338391, Note_on_c, 12, 71, 0
19, 338400, Note_on_c, 12, 69, 76
19, 338451, Note_on_c, 12, 69, 0
19, 338460, Note_on_c, 12, 69, 76
19, 338511, Note_on_c, 12, 69, 0
19, 338520, Note_on_c, 12, 69, 76
19, 338571, Note_on_c, 12, 69, 0
19, 338580, Note_on_c, 12, 69, 76
19, 338631, Note_on_c, 12, 69, 0
19, 338640, Note_on_c, 12, 67, 76
19, 338691, Note_on_c, 12, 67, 0
19, 338700, Note_on_c, 12, 67, 76
19, 338751, Note_on_c, 12, 67, 0
19, 338760, Note_on_c, 12, 67, 76
19, 338811, Note_on_c, 12, 67, 0
19, 338820, Note_on_c, 12, 67, 76
19, 338871, Note_on_c, 12, 67, 0
19, 338880, Note_on_c, 12, 67, 76
19, 338931, Note_on_c, 12, 67, 0
19, 338940, Note_on_c, 12, 67, 76
19, 338991, Note_on_c, 12, 67, 0
19, 339000, Note_on_c, 12, 67, 76
19, 339051, Note_on_c, 12, 67, 0
19, 339060, Note_on_c, 12, 67, 76
19, 339111, Note_on_c, 12, 67, 0
19, 339120, Note_on_c, 12, 67, 76
19, 339171, Note_on_c, 12, 67, 0
19, 339180, Note_on_c, 12, 67, 76
19, 339231, Note_on_c, 12, 67, 0
19, 339240, Note_on_c, 12, 67, 76
19, 339291, Note_on_c, 12, 67, 0
19, 339300, Note_on_c, 12, 67, 76
19, 339351, Note_on_c, 12, 67, 0
19, 339360, Note_on_c, 12, 72, 84
19, 339411, Note_on_c, 12, 72, 0
19, 339420, Note_on_c, 12, 72, 76
19, 339471, Note_on_c, 12, 72, 0
19, 339480, Note_on_c, 12, 72, 76
19, 339531, Note_on_c, 12, 72, 0
19, 339540, Note_on_c, 12, 72, 76
19, 339591, Note_on_c, 12, 72, 0
19, 339600, Note_on_c, 12, 72, 76
19, 339651, Note_on_c, 12, 72, 0
19, 339660, Note_on_c, 12, 72, 76
19, 339711, Note_on_c, 12, 72, 0
19, 339720, Note_on_c, 12, 72, 76
19, 339771, Note_on_c, 12, 72, 0
19, 339780, Note_on_c, 12, 72, 76
19, 339831, Note_on_c, 12, 72, 0
19, 339840, Note_on_c, 12, 72, 76
19, 339891, Note_on_c, 12, 72, 0
19, 339900, Note_on_c, 12, 72, 76
19, 339951, Note_on_c, 12, 72, 0
19, 339960, Note_on_c, 12, 72, 76
19, 340011, Note_on_c, 12, 72, 0
19, 340020, Note_on_c, 12, 72, 76
19, 340071, Note_on_c, 12, 72, 0
19, 340080, Note_on_c, 12, 71, 76
19, 340131, Note_on_c, 12, 71, 0
19, 340140, Note_on_c, 12, 71, 76
19, 340191, Note_on_c, 12, 71, 0
19, 340200, Note_on_c, 12, 71, 76
19, 340251, Note_on_c, 12, 71, 0
19, 340260, Note_on_c, 12, 71, 76
19, 340311, Note_on_c, 12, 71, 0
19, 340320, Note_on_c, 12, 69, 76
19, 340371, Note_on_c, 12, 69, 0
19, 340380, Note_on_c, 12, 69, 76
19, 340431, Note_on_c, 12, 69, 0
19, 340440, Note_on_c, 12, 69, 76
19, 340491, Note_on_c, 12, 69, 0
19, 340500, Note_on_c, 12, 69, 76
19, 340551, Note_on_c, 12, 69, 0
19, 340560, Note_on_c, 12, 67, 76
19, 340611, Note_on_c, 12, 67, 0
19, 340620, Note_on_c, 12, 67, 76
19, 340671, Note_on_c, 12, 67, 0
19, 340680, Note_on_c, 12, 67, 76
19, 340731, Note_on_c, 12, 67, 0
19, 340740, Note_on_c, 12, 67, 76
19, 340791, Note_on_c, 12, 67, 0
19, 340800, Note_on_c, 12, 67, 76
19, 340851, Note_on_c, 12, 67, 0
19, 340860, Note_on_c, 12, 67, 76
19, 340911, Note_on_c, 12, 67, 0
19, 340920, Note_on_c, 12, 67, 76
19, 340971, Note_on_c, 12, 67, 0
19, 340980, Note_on_c, 12, 67, 76
19, 341031, Note_on_c, 12, 67, 0
19, 341040, Note_on_c, 12, 67, 76
19, 341091, Note_on_c, 12, 67, 0
19, 341100, Note_on_c, 12, 67, 76
19, 341151, Note_on_c, 12, 67, 0
19, 341160, Note_on_c, 12, 67, 76
19, 341211, Note_on_c, 12, 67, 0
19, 341220, Note_on_c, 12, 67, 76
19, 341271, Note_on_c, 12, 67, 0
19, 341280, Note_on_c, 12, 77, 84
19, 341331, Note_on_c, 12, 77, 0
19, 341340, Note_on_c, 12, 77, 76
19, 341391, Note_on_c, 12, 77, 0
19, 341400, Note_on_c, 12, 77, 76
19, 341451, Note_on_c, 12, 77, 0
19, 341460, Note_on_c, 12, 77, 76
19, 341511, Note_on_c, 12, 77, 0
19, 341520, Note_on_c, 12, 77, 76
19, 341571, Note_on_c, 12, 77, 0
19, 341580, Note_on_c, 12, 77, 76
19, 341631, Note_on_c, 12, 77, 0
19, 341640, Note_on_c, 12, 77, 76
19, 341691, Note_on_c, 12, 77, 0
19, 341700, Note_on_c, 12, 77, 76
19, 341751, Note_on_c, 12, 77, 0
19, 341760, Note_on_c, 12, 77, 76
19, 341811, Note_on_c, 12, 77, 0
19, 341820, Note_on_c, 12, 77, 76
19, 341871, Note_on_c, 12, 77, 0
19, 341880, Note_on_c, 12, 77, 76
19, 341931, Note_on_c, 12, 77, 0
19, 341940, Note_on_c, 12, 77, 76
19, 341991, Note_on_c, 12, 77, 0
19, 342000, Note_on_c, 12, 76, 76
19, 342051, Note_on_c, 12, 76, 0
19, 342060, Note_on_c, 12, 76, 76
19, 342111, Note_on_c, 12, 76, 0
19, 342120, Note_on_c, 12, 76, 76
19, 342171, Note_on_c, 12, 76, 0
19, 342180, Note_on_c, 12, 76, 76
19, 342231, Note_on_c, 12, 76, 0
19, 342240, Note_on_c, 12, 74, 76
19, 342291, Note_on_c, 12, 74, 0
19, 342300, Note_on_c, 12, 74, 76
19, 342351, Note_on_c, 12, 74, 0
19, 342360, Note_on_c, 12, 74, 76
19, 342411, Note_on_c, 12, 74, 0
19, 342420, Note_on_c, 12, 74, 76
19, 342471, Note_on_c, 12, 74, 0
19, 342480, Note_on_c, 12, 73, 80
19, 342531, Note_on_c, 12, 73, 0
19, 342540, Note_on_c, 12, 73, 80
19, 342591, Note_on_c, 12, 73, 0
19, 342600, Note_on_c, 12, 73, 80
19, 342651, Note_on_c, 12, 73, 0
19, 342660, Note_on_c, 12, 73, 80
19, 342711, Note_on_c, 12, 73, 0
19, 342720, Note_on_c, 12, 73, 80
19, 342771, Note_on_c, 12, 73, 0
19, 342780, Note_on_c, 12, 73, 80
19, 342831, Note_on_c, 12, 73, 0
19, 342840, Note_on_c, 12, 73, 80
19, 342891, Note_on_c, 12, 73, 0
19, 342900, Note_on_c, 12, 73, 80
19, 342951, Note_on_c, 12, 73, 0
19, 342960, Note_on_c, 12, 73, 80
19, 343011, Note_on_c, 12, 73, 0
19, 343020, Note_on_c, 12, 73, 80
19, 343071, Note_on_c, 12, 73, 0
19, 343080, Note_on_c, 12, 73, 80
19, 343131, Note_on_c, 12, 73, 0
19, 343140, Note_on_c, 12, 73, 80
19, 343191, Note_on_c, 12, 73, 0
19, 343200, Note_on_c, 12, 73, 80
19, 343251, Note_on_c, 12, 73, 0
19, 343260, Note_on_c, 12, 73, 80
19, 343311, Note_on_c, 12, 73, 0
19, 343320, Note_on_c, 12, 73, 80
19, 343371, Note_on_c, 12, 73, 0
19, 343380, Note_on_c, 12, 73, 80
19, 343431, Note_on_c, 12, 73, 0
19, 343440, Note_on_c, 12, 76, 80
19, 343440, Note_on_c, 12, 73, 80
19, 343491, Note_on_c, 12, 76, 0
19, 343491, Note_on_c, 12, 73, 0
19, 343500, Note_on_c, 12, 73, 80
19, 343500, Note_on_c, 12, 76, 80
19, 343551, Note_on_c, 12, 73, 0
19, 343551, Note_on_c, 12, 76, 0
19, 343560, Note_on_c, 12, 76, 80
19, 343560, Note_on_c, 12, 73, 80
19, 343611, Note_on_c, 12, 76, 0
19, 343611, Note_on_c, 12, 73, 0
19, 343620, Note_on_c, 12, 76, 80
19, 343620, Note_on_c, 12, 73, 80
19, 343671, Note_on_c, 12, 76, 0
19, 343671, Note_on_c, 12, 73, 0
19, 343680, Note_on_c, 12, 76, 80
19, 343680, Note_on_c, 12, 73, 80
19, 343731, Note_on_c, 12, 76, 0
19, 343731, Note_on_c, 12, 73, 0
19, 343740, Note_on_c, 12, 76, 80
19, 343740, Note_on_c, 12, 73, 80
19, 343791, Note_on_c, 12, 76, 0
19, 343791, Note_on_c, 12, 73, 0
19, 343800, Note_on_c, 12, 73, 80
19, 343800, Note_on_c, 12, 76, 80
19, 343851, Note_on_c, 12, 73, 0
19, 343851, Note_on_c, 12, 76, 0
19, 343860, Note_on_c, 12, 73, 80
19, 343860, Note_on_c, 12, 76, 80
19, 343911, Note_on_c, 12, 73, 0
19, 343911, Note_on_c, 12, 76, 0
19, 343920, Note_on_c, 12, 73, 80
19, 343920, Note_on_c, 12, 76, 80
19, 343971, Note_on_c, 12, 73, 0
19, 343971, Note_on_c, 12, 76, 0
19, 343980, Note_on_c, 12, 76, 80
19, 343980, Note_on_c, 12, 73, 80
19, 344031, Note_on_c, 12, 76, 0
19, 344031, Note_on_c, 12, 73, 0
19, 344040, Note_on_c, 12, 76, 80
19, 344040, Note_on_c, 12, 73, 80
19, 344091, Note_on_c, 12, 76, 0
19, 344091, Note_on_c, 12, 73, 0
19, 344100, Note_on_c, 12, 73, 80
19, 344100, Note_on_c, 12, 76, 80
19, 344151, Note_on_c, 12, 73, 0
19, 344151, Note_on_c, 12, 76, 0
19, 344160, Note_on_c, 12, 73, 80
19, 344160, Note_on_c, 12, 76, 80
19, 344211, Note_on_c, 12, 73, 0
19, 344211, Note_on_c, 12, 76, 0
19, 344220, Note_on_c, 12, 73, 80
19, 344220, Note_on_c, 12, 76, 80
19, 344271, Note_on_c, 12, 73, 0
19, 344271, Note_on_c, 12, 76, 0
19, 344280, Note_on_c, 12, 76, 80
19, 344280, Note_on_c, 12, 73, 80
19, 344331, Note_on_c, 12, 76, 0
19, 344331, Note_on_c, 12, 73, 0
19, 344340, Note_on_c, 12, 76, 80
19, 344340, Note_on_c, 12, 73, 80
19, 344391, Note_on_c, 12, 76, 0
19, 344391, Note_on_c, 12, 73, 0
19, 344400, Note_on_c, 12, 73, 80
19, 344400, Note_on_c, 12, 82, 80
19, 344451, Note_on_c, 12, 73, 0
19, 344451, Note_on_c, 12, 82, 0
19, 344460, Note_on_c, 12, 82, 80
19, 344460, Note_on_c, 12, 73, 80
19, 344511, Note_on_c, 12, 82, 0
19, 344511, Note_on_c, 12, 73, 0
19, 344520, Note_on_c, 12, 73, 80
19, 344520, Note_on_c, 12, 82, 80
19, 344571, Note_on_c, 12, 73, 0
19, 344571, Note_on_c, 12, 82, 0
19, 344580, Note_on_c, 12, 73, 80
19, 344580, Note_on_c, 12, 82, 80
19, 344631, Note_on_c, 12, 73, 0
19, 344631, Note_on_c, 12, 82, 0
19, 344640, Note_on_c, 12, 73, 80
19, 344640, Note_on_c, 12, 82, 80
19, 344691, Note_on_c, 12, 73, 0
19, 344691, Note_on_c, 12, 82, 0
19, 344700, Note_on_c, 12, 73, 80
19, 344700, Note_on_c, 12, 82, 80
19, 344751, Note_on_c, 12, 73, 0
19, 344751, Note_on_c, 12, 82, 0
19, 344760, Note_on_c, 12, 82, 80
19, 344760, Note_on_c, 12, 73, 80
19, 344811, Note_on_c, 12, 82, 0
19, 344811, Note_on_c, 12, 73, 0
19, 344820, Note_on_c, 12, 82, 80
19, 344820, Note_on_c, 12, 73, 80
19, 344871, Note_on_c, 12, 82, 0
19, 344871, Note_on_c, 12, 73, 0
19, 344880, Note_on_c, 12, 82, 80
19, 344880, Note_on_c, 12, 73, 80
19, 344931, Note_on_c, 12, 82, 0
19, 344931, Note_on_c, 12, 73, 0
19, 344940, Note_on_c, 12, 82, 80
19, 344940, Note_on_c, 12, 73, 80
19, 344991, Note_on_c, 12, 82, 0
19, 344991, Note_on_c, 12, 73, 0
19, 345000, Note_on_c, 12, 73, 80
19, 345000, Note_on_c, 12, 82, 80
19, 345051, Note_on_c, 12, 73, 0
19, 345051, Note_on_c, 12, 82, 0
19, 345060, Note_on_c, 12, 82, 80
19, 345060, Note_on_c, 12, 73, 80
19, 345111, Note_on_c, 12, 82, 0
19, 345111, Note_on_c, 12, 73, 0
19, 345120, Note_on_c, 12, 82, 84
19, 345120, Note_on_c, 12, 73, 84
19, 345171, Note_on_c, 12, 82, 0
19, 345171, Note_on_c, 12, 73, 0
19, 345180, Note_on_c, 12, 73, 84
19, 345180, Note_on_c, 12, 82, 84
19, 345231, Note_on_c, 12, 73, 0
19, 345231, Note_on_c, 12, 82, 0
19, 345240, Note_on_c, 12, 73, 84
19, 345240, Note_on_c, 12, 82, 84
19, 345291, Note_on_c, 12, 73, 0
19, 345291, Note_on_c, 12, 82, 0
19, 345300, Note_on_c, 12, 82, 84
19, 345300, Note_on_c, 12, 73, 84
19, 345351, Note_on_c, 12, 82, 0
19, 345351, Note_on_c, 12, 73, 0
19, 345360, Note_on_c, 12, 73, 84
19, 345360, Note_on_c, 12, 82, 84
19, 345411, Note_on_c, 12, 73, 0
19, 345411, Note_on_c, 12, 82, 0
19, 345420, Note_on_c, 12, 73, 84
19, 345420, Note_on_c, 12, 82, 84
19, 345471, Note_on_c, 12, 73, 0
19, 345471, Note_on_c, 12, 82, 0
19, 345480, Note_on_c, 12, 73, 84
19, 345480, Note_on_c, 12, 82, 84
19, 345531, Note_on_c, 12, 73, 0
19, 345531, Note_on_c, 12, 82, 0
19, 345540, Note_on_c, 12, 73, 84
19, 345540, Note_on_c, 12, 82, 84
19, 345591, Note_on_c, 12, 73, 0
19, 345591, Note_on_c, 12, 82, 0
19, 345600, Note_on_c, 12, 73, 84
19, 345600, Note_on_c, 12, 82, 84
19, 345651, Note_on_c, 12, 73, 0
19, 345651, Note_on_c, 12, 82, 0
19, 345660, Note_on_c, 12, 73, 84
19, 345660, Note_on_c, 12, 82, 84
19, 345711, Note_on_c, 12, 73, 0
19, 345711, Note_on_c, 12, 82, 0
19, 345720, Note_on_c, 12, 82, 84
19, 345720, Note_on_c, 12, 73, 84
19, 345771, Note_on_c, 12, 82, 0
19, 345771, Note_on_c, 12, 73, 0
19, 345780, Note_on_c, 12, 73, 84
19, 345780, Note_on_c, 12, 82, 84
19, 345831, Note_on_c, 12, 73, 0
19, 345831, Note_on_c, 12, 82, 0
19, 345840, Note_on_c, 12, 82, 84
19, 345840, Note_on_c, 12, 73, 84
19, 345891, Note_on_c, 12, 82, 0
19, 345891, Note_on_c, 12, 73, 0
19, 345900, Note_on_c, 12, 82, 84
19, 345900, Note_on_c, 12, 73, 84
19, 345951, Note_on_c, 12, 82, 0
19, 345951, Note_on_c, 12, 73, 0
19, 345960, Note_on_c, 12, 82, 84
19, 345960, Note_on_c, 12, 73, 84
19, 346011, Note_on_c, 12, 82, 0
19, 346011, Note_on_c, 12, 73, 0
19, 346020, Note_on_c, 12, 73, 84
19, 346020, Note_on_c, 12, 82, 84
19, 346071, Note_on_c, 12, 73, 0
19, 346071, Note_on_c, 12, 82, 0
19, 346080, Note_on_c, 12, 74, 84
19, 346080, Note_on_c, 12, 82, 84
19, 346131, Note_on_c, 12, 74, 0
19, 346131, Note_on_c, 12, 82, 0
19, 346140, Note_on_c, 12, 74, 84
19, 346140, Note_on_c, 12, 82, 84
19, 346191, Note_on_c, 12, 74, 0
19, 346191, Note_on_c, 12, 82, 0
19, 346200, Note_on_c, 12, 74, 84
19, 346200, Note_on_c, 12, 82, 84
19, 346251, Note_on_c, 12, 74, 0
19, 346251, Note_on_c, 12, 82, 0
19, 346260, Note_on_c, 12, 82, 84
19, 346260, Note_on_c, 12, 74, 84
19, 346311, Note_on_c, 12, 82, 0
19, 346311, Note_on_c, 12, 74, 0
19, 346320, Note_on_c, 12, 74, 84
19, 346320, Note_on_c, 12, 82, 84
19, 346371, Note_on_c, 12, 74, 0
19, 346371, Note_on_c, 12, 82, 0
19, 346380, Note_on_c, 12, 82, 84
19, 346380, Note_on_c, 12, 74, 84
19, 346431, Note_on_c, 12, 82, 0
19, 346431, Note_on_c, 12, 74, 0
19, 346440, Note_on_c, 12, 82, 84
19, 346440, Note_on_c, 12, 74, 84
19, 346491, Note_on_c, 12, 82, 0
19, 346491, Note_on_c, 12, 74, 0
19, 346500, Note_on_c, 12, 82, 84
19, 346500, Note_on_c, 12, 74, 84
19, 346551, Note_on_c, 12, 82, 0
19, 346551, Note_on_c, 12, 74, 0
19, 346560, Note_on_c, 12, 74, 84
19, 346560, Note_on_c, 12, 82, 84
19, 346611, Note_on_c, 12, 74, 0
19, 346611, Note_on_c, 12, 82, 0
19, 346620, Note_on_c, 12, 74, 84
19, 346620, Note_on_c, 12, 82, 84
19, 346671, Note_on_c, 12, 74, 0
19, 346671, Note_on_c, 12, 82, 0
19, 346680, Note_on_c, 12, 82, 84
19, 346680, Note_on_c, 12, 74, 84
19, 346731, Note_on_c, 12, 82, 0
19, 346731, Note_on_c, 12, 74, 0
19, 346740, Note_on_c, 12, 82, 84
19, 346740, Note_on_c, 12, 74, 84
19, 346791, Note_on_c, 12, 82, 0
19, 346791, Note_on_c, 12, 74, 0
19, 346800, Note_on_c, 12, 74, 84
19, 346800, Note_on_c, 12, 82, 84
19, 346851, Note_on_c, 12, 74, 0
19, 346851, Note_on_c, 12, 82, 0
19, 346860, Note_on_c, 12, 74, 84
19, 346860, Note_on_c, 12, 82, 84
19, 346911, Note_on_c, 12, 74, 0
19, 346911, Note_on_c, 12, 82, 0
19, 346920, Note_on_c, 12, 74, 84
19, 346920, Note_on_c, 12, 82, 84
19, 346971, Note_on_c, 12, 74, 0
19, 346971, Note_on_c, 12, 82, 0
19, 346980, Note_on_c, 12, 82, 84
19, 346980, Note_on_c, 12, 74, 84
19, 347031, Note_on_c, 12, 82, 0
19, 347031, Note_on_c, 12, 74, 0
19, 347040, Note_on_c, 12, 83, 84
19, 347040, Note_on_c, 12, 74, 84
19, 347091, Note_on_c, 12, 83, 0
19, 347091, Note_on_c, 12, 74, 0
19, 347100, Note_on_c, 12, 74, 84
19, 347100, Note_on_c, 12, 83, 84
19, 347151, Note_on_c, 12, 74, 0
19, 347151, Note_on_c, 12, 83, 0
19, 347160, Note_on_c, 12, 74, 84
19, 347160, Note_on_c, 12, 83, 84
19, 347211, Note_on_c, 12, 74, 0
19, 347211, Note_on_c, 12, 83, 0
19, 347220, Note_on_c, 12, 83, 84
19, 347220, Note_on_c, 12, 74, 84
19, 347271, Note_on_c, 12, 83, 0
19, 347271, Note_on_c, 12, 74, 0
19, 347280, Note_on_c, 12, 83, 84
19, 347280, Note_on_c, 12, 74, 84
19, 347331, Note_on_c, 12, 83, 0
19, 347331, Note_on_c, 12, 74, 0
19, 347340, Note_on_c, 12, 83, 84
19, 347340, Note_on_c, 12, 74, 84
19, 347391, Note_on_c, 12, 83, 0
19, 347391, Note_on_c, 12, 74, 0
19, 347400, Note_on_c, 12, 74, 84
19, 347400, Note_on_c, 12, 83, 84
19, 347451, Note_on_c, 12, 74, 0
19, 347451, Note_on_c, 12, 83, 0
19, 347460, Note_on_c, 12, 74, 84
19, 347460, Note_on_c, 12, 83, 84
19, 347511, Note_on_c, 12, 74, 0
19, 347511, Note_on_c, 12, 83, 0
19, 347520, Note_on_c, 12, 83, 84
19, 347520, Note_on_c, 12, 74, 84
19, 347571, Note_on_c, 12, 83, 0
19, 347571, Note_on_c, 12, 74, 0
19, 347580, Note_on_c, 12, 74, 84
19, 347580, Note_on_c, 12, 83, 84
19, 347631, Note_on_c, 12, 74, 0
19, 347631, Note_on_c, 12, 83, 0
19, 347640, Note_on_c, 12, 83, 84
19, 347640, Note_on_c, 12, 74, 84
19, 347691, Note_on_c, 12, 83, 0
19, 347691, Note_on_c, 12, 74, 0
19, 347700, Note_on_c, 12, 83, 84
19, 347700, Note_on_c, 12, 74, 84
19, 347751, Note_on_c, 12, 83, 0
19, 347751, Note_on_c, 12, 74, 0
19, 347760, Note_on_c, 12, 83, 84
19, 347760, Note_on_c, 12, 74, 84
19, 347811, Note_on_c, 12, 83, 0
19, 347811, Note_on_c, 12, 74, 0
19, 347820, Note_on_c, 12, 74, 84
19, 347820, Note_on_c, 12, 83, 84
19, 347871, Note_on_c, 12, 74, 0
19, 347871, Note_on_c, 12, 83, 0
19, 347880, Note_on_c, 12, 83, 84
19, 347880, Note_on_c, 12, 74, 84
19, 347931, Note_on_c, 12, 83, 0
19, 347931, Note_on_c, 12, 74, 0
19, 347940, Note_on_c, 12, 74, 84
19, 347940, Note_on_c, 12, 83, 84
19, 347991, Note_on_c, 12, 74, 0
19, 347991, Note_on_c, 12, 83, 0
19, 348000, Note_on_c, 12, 84, 84
19, 348000, Note_on_c, 12, 75, 84
19, 348051, Note_on_c, 12, 84, 0
19, 348051, Note_on_c, 12, 75, 0
19, 348060, Note_on_c, 12, 75, 84
19, 348060, Note_on_c, 12, 84, 84
19, 348111, Note_on_c, 12, 75, 0
19, 348111, Note_on_c, 12, 84, 0
19, 348120, Note_on_c, 12, 84, 84
19, 348120, Note_on_c, 12, 75, 84
19, 348171, Note_on_c, 12, 84, 0
19, 348171, Note_on_c, 12, 75, 0
19, 348180, Note_on_c, 12, 75, 84
19, 348180, Note_on_c, 12, 84, 84
19, 348231, Note_on_c, 12, 75, 0
19, 348231, Note_on_c, 12, 84, 0
19, 348240, Note_on_c, 12, 84, 84
19, 348240, Note_on_c, 12, 75, 84
19, 348291, Note_on_c, 12, 84, 0
19, 348291, Note_on_c, 12, 75, 0
19, 348300, Note_on_c, 12, 84, 84
19, 348300, Note_on_c, 12, 75, 84
19, 348351, Note_on_c, 12, 84, 0
19, 348351, Note_on_c, 12, 75, 0
19, 348360, Note_on_c, 12, 84, 84
19, 348360, Note_on_c, 12, 75, 84
19, 348411, Note_on_c, 12, 84, 0
19, 348411, Note_on_c, 12, 75, 0
19, 348420, Note_on_c, 12, 75, 84
19, 348420, Note_on_c, 12, 84, 84
19, 348471, Note_on_c, 12, 75, 0
19, 348471, Note_on_c, 12, 84, 0
19, 348480, Note_on_c, 12, 75, 84
19, 348480, Note_on_c, 12, 84, 84
19, 348531, Note_on_c, 12, 75, 0
19, 348531, Note_on_c, 12, 84, 0
19, 348540, Note_on_c, 12, 84, 84
19, 348540, Note_on_c, 12, 75, 84
19, 348591, Note_on_c, 12, 84, 0
19, 348591, Note_on_c, 12, 75, 0
19, 348600, Note_on_c, 12, 84, 84
19, 348600, Note_on_c, 12, 75, 84
19, 348651, Note_on_c, 12, 84, 0
19, 348651, Note_on_c, 12, 75, 0
19, 348660, Note_on_c, 12, 75, 84
19, 348660, Note_on_c, 12, 84, 84
19, 348711, Note_on_c, 12, 75, 0
19, 348711, Note_on_c, 12, 84, 0
19, 348720, Note_on_c, 12, 84, 84
19, 348720, Note_on_c, 12, 75, 84
19, 348771, Note_on_c, 12, 84, 0
19, 348771, Note_on_c, 12, 75, 0
19, 348780, Note_on_c, 12, 84, 84
19, 348780, Note_on_c, 12, 75, 84
19, 348831, Note_on_c, 12, 84, 0
19, 348831, Note_on_c, 12, 75, 0
19, 348840, Note_on_c, 12, 75, 84
19, 348840, Note_on_c, 12, 84, 84
19, 348891, Note_on_c, 12, 75, 0
19, 348891, Note_on_c, 12, 84, 0
19, 348900, Note_on_c, 12, 75, 84
19, 348900, Note_on_c, 12, 84, 84
19, 348951, Note_on_c, 12, 75, 0
19, 348951, Note_on_c, 12, 84, 0
19, 348960, Note_on_c, 12, 84, 84
19, 348960, Note_on_c, 12, 75, 84
19, 349011, Note_on_c, 12, 84, 0
19, 349011, Note_on_c, 12, 75, 0
19, 349020, Note_on_c, 12, 84, 84
19, 349020, Note_on_c, 12, 75, 84
19, 349071, Note_on_c, 12, 84, 0
19, 349071, Note_on_c, 12, 75, 0
19, 349080, Note_on_c, 12, 84, 84
19, 349080, Note_on_c, 12, 75, 84
19, 349131, Note_on_c, 12, 84, 0
19, 349131, Note_on_c, 12, 75, 0
19, 349140, Note_on_c, 12, 75, 84
19, 349140, Note_on_c, 12, 84, 84
19, 349191, Note_on_c, 12, 75, 0
19, 349191, Note_on_c, 12, 84, 0
19, 349200, Note_on_c, 12, 84, 84
19, 349200, Note_on_c, 12, 75, 84
19, 349251, Note_on_c, 12, 84, 0
19, 349251, Note_on_c, 12, 75, 0
19, 349260, Note_on_c, 12, 75, 84
19, 349260, Note_on_c, 12, 84, 84
19, 349311, Note_on_c, 12, 75, 0
19, 349311, Note_on_c, 12, 84, 0
19, 349320, Note_on_c, 12, 75, 84
19, 349320, Note_on_c, 12, 84, 84
19, 349371, Note_on_c, 12, 75, 0
19, 349371, Note_on_c, 12, 84, 0
19, 349380, Note_on_c, 12, 75, 84
19, 349380, Note_on_c, 12, 84, 84
19, 349431, Note_on_c, 12, 75, 0
19, 349431, Note_on_c, 12, 84, 0
19, 349440, Note_on_c, 12, 84, 84
19, 349440, Note_on_c, 12, 75, 84
19, 349491, Note_on_c, 12, 84, 0
19, 349491, Note_on_c, 12, 75, 0
19, 349500, Note_on_c, 12, 75, 84
19, 349500, Note_on_c, 12, 84, 84
19, 349551, Note_on_c, 12, 75, 0
19, 349551, Note_on_c, 12, 84, 0
19, 349560, Note_on_c, 12, 84, 84
19, 349560, Note_on_c, 12, 75, 84
19, 349611, Note_on_c, 12, 84, 0
19, 349611, Note_on_c, 12, 75, 0
19, 349620, Note_on_c, 12, 84, 84
19, 349620, Note_on_c, 12, 75, 84
19, 349671, Note_on_c, 12, 84, 0
19, 349671, Note_on_c, 12, 75, 0
19, 349680, Note_on_c, 12, 75, 84
19, 349680, Note_on_c, 12, 84, 84
19, 349731, Note_on_c, 12, 75, 0
19, 349731, Note_on_c, 12, 84, 0
19, 349740, Note_on_c, 12, 75, 84
19, 349740, Note_on_c, 12, 84, 84
19, 349791, Note_on_c, 12, 75, 0
19, 349791, Note_on_c, 12, 84, 0
19, 349800, Note_on_c, 12, 84, 84
19, 349800, Note_on_c, 12, 75, 84
19, 349851, Note_on_c, 12, 84, 0
19, 349851, Note_on_c, 12, 75, 0
19, 349860, Note_on_c, 12, 84, 84
19, 349860, Note_on_c, 12, 75, 84
19, 349911, Note_on_c, 12, 84, 0
19, 349911, Note_on_c, 12, 75, 0
19, 349920, Note_on_c, 12, 84, 92
19, 349920, Note_on_c, 12, 76, 92
19, 349979, Note_on_c, 12, 84, 0
19, 349979, Note_on_c, 12, 76, 0
19, 349980, Note_on_c, 12, 84, 84
19, 349980, Note_on_c, 12, 76, 84
19, 350639, Note_on_c, 12, 84, 0
19, 350639, Note_on_c, 12, 76, 0
19, 351120, Note_on_c, 12, 62, 76
19, 351199, Note_on_c, 12, 62, 0
19, 351200, Note_on_c, 12, 64, 76
19, 351279, Note_on_c, 12, 64, 0
19, 351300, Note_on_c, 12, 65, 76
19, 351379, Note_on_c, 12, 65, 0
19, 351600, Note_on_c, 12, 60, 76
19, 351679, Note_on_c, 12, 60, 0
19, 351680, Note_on_c, 12, 62, 76
19, 351759, Note_on_c, 12, 62, 0
19, 351760, Note_on_c, 12, 64, 76
19, 351839, Note_on_c, 12, 64, 0
19, 352080, Note_on_c, 12, 59, 76
19, 352159, Note_on_c, 12, 59, 0
19, 352160, Note_on_c, 12, 60, 76
19, 352239, Note_on_c, 12, 60, 0
19, 352240, Note_on_c, 12, 62, 76
19, 352319, Note_on_c, 12, 62, 0
19, 353040, Note_on_c, 12, 64, 76
19, 353119, Note_on_c, 12, 64, 0
19, 353120, Note_on_c, 12, 65, 76
19, 353199, Note_on_c, 12, 65, 0
19, 353200, Note_on_c, 12, 67, 76
19, 353279, Note_on_c, 12, 67, 0
19, 353520, Note_on_c, 12, 62, 76
19, 353599, Note_on_c, 12, 62, 0
19, 353600, Note_on_c, 12, 64, 76
19, 353679, Note_on_c, 12, 64, 0
19, 353680, Note_on_c, 12, 65, 76
19, 353759, Note_on_c, 12, 65, 0
19, 354000, Note_on_c, 12, 60, 76
19, 354079, Note_on_c, 12, 60, 0
19, 354080, Note_on_c, 12, 62, 76
19, 354159, Note_on_c, 12, 62, 0
19, 354160, Note_on_c, 12, 64, 76
19, 354239, Note_on_c, 12, 64, 0
19, 354480, Note_on_c, 12, 67, 76
19, 354559, Note_on_c, 12, 67, 0
19, 354560, Note_on_c, 12, 65, 76
19, 354639, Note_on_c, 12, 65, 0
19, 354640, Note_on_c, 12, 64, 76
19, 354719, Note_on_c, 12, 64, 0
19, 354720, Note_on_c, 12, 62, 76
19, 354959, Note_on_c, 12, 62, 0
19, 354960, Note_on_c, 12, 65, 76
19, 355039, Note_on_c, 12, 65, 0
19, 355040, Note_on_c, 12, 64, 76
19, 355119, Note_on_c, 12, 64, 0
19, 355120, Note_on_c, 12, 62, 76
19, 355199, Note_on_c, 12, 62, 0
19, 355200, Note_on_c, 12, 60, 76
19, 355439, Note_on_c, 12, 60, 0
19, 355440, Note_on_c, 12, 64, 76
19, 355519, Note_on_c, 12, 64, 0
19, 355520, Note_on_c, 12, 62, 76
19, 355599, Note_on_c, 12, 62, 0
19, 355600, Note_on_c, 12, 60, 76
19, 355667, Note_on_c, 12, 60, 0
19, 355680, Note_on_c, 12, 59, 76
19, 355859, Note_on_c, 12, 59, 0
19, 355920, Note_on_c, 12, 59, 76
19, 355999, Note_on_c, 12, 59, 0
19, 356000, Note_on_c, 12, 60, 76
19, 356079, Note_on_c, 12, 60, 0
19, 356080, Note_on_c, 12, 62, 76
19, 356147, Note_on_c, 12, 62, 0
19, 356160, Note_on_c, 12, 55, 76
19, 356339, Note_on_c, 12, 55, 0
19, 356400, Note_on_c, 12, 69, 76
19, 356479, Note_on_c, 12, 69, 0
19, 356480, Note_on_c, 12, 67, 76
19, 356559, Note_on_c, 12, 67, 0
19, 356560, Note_on_c, 12, 65, 76
19, 356639, Note_on_c, 12, 65, 0
19, 356640, Note_on_c, 12, 64, 76
19, 356879, Note_on_c, 12, 64, 0
19, 356880, Note_on_c, 12, 67, 76
19, 356959, Note_on_c, 12, 67, 0
19, 356960, Note_on_c, 12, 65, 76
19, 357039, Note_on_c, 12, 65, 0
19, 357040, Note_on_c, 12, 64, 76
19, 357119, Note_on_c, 12, 64, 0
19, 357120, Note_on_c, 12, 62, 76
19, 357359, Note_on_c, 12, 62, 0
19, 357360, Note_on_c, 12, 65, 76
19, 357439, Note_on_c, 12, 65, 0
19, 357440, Note_on_c, 12, 64, 76
19, 357519, Note_on_c, 12, 64, 0
19, 357520, Note_on_c, 12, 62, 76
19, 357587, Note_on_c, 12, 62, 0
19, 357600, Note_on_c, 12, 60, 76
19, 357779, Note_on_c, 12, 60, 0
19, 357840, Note_on_c, 12, 60, 76
19, 357919, Note_on_c, 12, 60, 0
19, 357920, Note_on_c, 12, 62, 76
19, 357999, Note_on_c, 12, 62, 0
19, 358000, Note_on_c, 12, 64, 76
19, 358067, Note_on_c, 12, 64, 0
19, 358080, Note_on_c, 12, 55, 76
19, 358259, Note_on_c, 12, 55, 0
19, 358320, Note_on_c, 12, 72, 80
19, 358387, Note_on_c, 12, 72, 0
19, 358400, Note_on_c, 12, 72, 80
19, 358467, Note_on_c, 12, 72, 0
19, 358480, Note_on_c, 12, 72, 80
19, 358547, Note_on_c, 12, 72, 0
19, 358560, Note_on_c, 12, 71, 80
19, 358627, Note_on_c, 12, 71, 0
19, 358640, Note_on_c, 12, 71, 80
19, 358707, Note_on_c, 12, 71, 0
19, 358720, Note_on_c, 12, 71, 80
19, 358787, Note_on_c, 12, 71, 0
19, 358800, Note_on_c, 12, 71, 80
19, 358867, Note_on_c, 12, 71, 0
19, 358880, Note_on_c, 12, 71, 80
19, 358947, Note_on_c, 12, 71, 0
19, 358960, Note_on_c, 12, 71, 80
19, 359027, Note_on_c, 12, 71, 0
19, 359040, Note_on_c, 12, 72, 80
19, 359107, Note_on_c, 12, 72, 0
19, 359120, Note_on_c, 12, 72, 80
19, 359187, Note_on_c, 12, 72, 0
19, 359200, Note_on_c, 12, 72, 80
19, 359267, Note_on_c, 12, 72, 0
19, 359280, Note_on_c, 12, 72, 80
19, 359347, Note_on_c, 12, 72, 0
19, 359360, Note_on_c, 12, 72, 80
19, 359427, Note_on_c, 12, 72, 0
19, 359440, Note_on_c, 12, 72, 80
19, 359507, Note_on_c, 12, 72, 0
19, 359520, Note_on_c, 12, 71, 80
19, 359587, Note_on_c, 12, 71, 0
19, 359600, Note_on_c, 12, 71, 80
19, 359667, Note_on_c, 12, 71, 0
19, 359680, Note_on_c, 12, 71, 80
19, 359747, Note_on_c, 12, 71, 0
19, 359760, Note_on_c, 12, 71, 80
19, 359827, Note_on_c, 12, 71, 0
19, 359840, Note_on_c, 12, 71, 80
19, 359907, Note_on_c, 12, 71, 0
19, 359920, Note_on_c, 12, 71, 80
19, 359987, Note_on_c, 12, 71, 0
19, 360000, Note_on_c, 12, 71, 80
19, 360067, Note_on_c, 12, 71, 0
19, 360080, Note_on_c, 12, 71, 80
19, 360147, Note_on_c, 12, 71, 0
19, 360160, Note_on_c, 12, 71, 80
19, 360227, Note_on_c, 12, 71, 0
19, 360240, Note_on_c, 12, 71, 80
19, 360307, Note_on_c, 12, 71, 0
19, 360320, Note_on_c, 12, 71, 80
19, 360387, Note_on_c, 12, 71, 0
19, 360400, Note_on_c, 12, 71, 80
19, 360467, Note_on_c, 12, 71, 0
19, 360480, Note_on_c, 12, 70, 80
19, 360547, Note_on_c, 12, 70, 0
19, 360560, Note_on_c, 12, 70, 80
19, 360627, Note_on_c, 12, 70, 0
19, 360640, Note_on_c, 12, 70, 80
19, 360707, Note_on_c, 12, 70, 0
19, 360720, Note_on_c, 12, 70, 80
19, 360787, Note_on_c, 12, 70, 0
19, 360800, Note_on_c, 12, 70, 80
19, 360867, Note_on_c, 12, 70, 0
19, 360880, Note_on_c, 12, 70, 80
19, 360947, Note_on_c, 12, 70, 0
19, 360960, Note_on_c, 12, 70, 80
19, 361027, Note_on_c, 12, 70, 0
19, 361040, Note_on_c, 12, 70, 80
19, 361107, Note_on_c, 12, 70, 0
19, 361120, Note_on_c, 12, 70, 80
19, 361187, Note_on_c, 12, 70, 0
19, 361200, Note_on_c, 12, 70, 80
19, 361267, Note_on_c, 12, 70, 0
19, 361280, Note_on_c, 12, 70, 80
19, 361347, Note_on_c, 12, 70, 0
19, 361360, Note_on_c, 12, 70, 80
19, 361427, Note_on_c, 12, 70, 0
19, 361440, Note_on_c, 12, 70, 84
19, 361507, Note_on_c, 12, 70, 0
19, 361520, Note_on_c, 12, 70, 84
19, 361587, Note_on_c, 12, 70, 0
19, 361600, Note_on_c, 12, 70, 84
19, 361667, Note_on_c, 12, 70, 0
19, 361680, Note_on_c, 12, 70, 84
19, 361747, Note_on_c, 12, 70, 0
19, 361760, Note_on_c, 12, 70, 84
19, 361827, Note_on_c, 12, 70, 0
19, 361840, Note_on_c, 12, 70, 84
19, 361907, Note_on_c, 12, 70, 0
19, 361920, Note_on_c, 12, 70, 84
19, 361987, Note_on_c, 12, 70, 0
19, 362000, Note_on_c, 12, 70, 84
19, 362067, Note_on_c, 12, 70, 0
19, 362080, Note_on_c, 12, 70, 84
19, 362147, Note_on_c, 12, 70, 0
19, 362160, Note_on_c, 12, 70, 84
19, 362227, Note_on_c, 12, 70, 0
19, 362240, Note_on_c, 12, 70, 84
19, 362307, Note_on_c, 12, 70, 0
19, 362320, Note_on_c, 12, 70, 84
19, 362387, Note_on_c, 12, 70, 0
19, 362400, Note_on_c, 12, 70, 84
19, 362467, Note_on_c, 12, 70, 0
19, 362480, Note_on_c, 12, 70, 84
19, 362547, Note_on_c, 12, 70, 0
19, 362560, Note_on_c, 12, 70, 84
19, 362627, Note_on_c, 12, 70, 0
19, 362640, Note_on_c, 12, 70, 84
19, 362707, Note_on_c, 12, 70, 0
19, 362720, Note_on_c, 12, 70, 84
19, 362787, Note_on_c, 12, 70, 0
19, 362800, Note_on_c, 12, 70, 84
19, 362867, Note_on_c, 12, 70, 0
19, 362880, Note_on_c, 12, 70, 84
19, 362947, Note_on_c, 12, 70, 0
19, 362960, Note_on_c, 12, 70, 84
19, 363027, Note_on_c, 12, 70, 0
19, 363040, Note_on_c, 12, 70, 84
19, 363107, Note_on_c, 12, 70, 0
19, 363120, Note_on_c, 12, 70, 84
19, 363187, Note_on_c, 12, 70, 0
19, 363200, Note_on_c, 12, 70, 84
19, 363267, Note_on_c, 12, 70, 0
19, 363280, Note_on_c, 12, 70, 84
19, 363347, Note_on_c, 12, 70, 0
19, 363360, Note_on_c, 12, 69, 84
19, 363411, Note_on_c, 12, 69, 0
19, 363420, Note_on_c, 12, 60, 84
19, 363471, Note_on_c, 12, 60, 0
19, 363480, Note_on_c, 12, 69, 84
19, 363531, Note_on_c, 12, 69, 0
19, 363540, Note_on_c, 12, 69, 84
19, 363591, Note_on_c, 12, 69, 0
19, 363600, Note_on_c, 12, 69, 92
19, 363651, Note_on_c, 12, 69, 0
19, 363660, Note_on_c, 12, 69, 84
19, 363711, Note_on_c, 12, 69, 0
19, 363720, Note_on_c, 12, 69, 84
19, 363771, Note_on_c, 12, 69, 0
19, 363780, Note_on_c, 12, 69, 84
19, 363831, Note_on_c, 12, 69, 0
19, 363840, Note_on_c, 12, 69, 84
19, 363891, Note_on_c, 12, 69, 0
19, 363900, Note_on_c, 12, 69, 84
19, 363951, Note_on_c, 12, 69, 0
19, 363960, Note_on_c, 12, 69, 84
19, 364011, Note_on_c, 12, 69, 0
19, 364020, Note_on_c, 12, 69, 84
19, 364071, Note_on_c, 12, 69, 0
19, 364080, Note_on_c, 12, 69, 84
19, 364131, Note_on_c, 12, 69, 0
19, 364140, Note_on_c, 12, 69, 84
19, 364191, Note_on_c, 12, 69, 0
19, 364200, Note_on_c, 12, 69, 84
19, 364251, Note_on_c, 12, 69, 0
19, 364260, Note_on_c, 12, 69, 84
19, 364311, Note_on_c, 12, 69, 0
19, 364320, Note_on_c, 12, 72, 84
19, 364371, Note_on_c, 12, 72, 0
19, 364380, Note_on_c, 12, 69, 84
19, 364431, Note_on_c, 12, 69, 0
19, 364440, Note_on_c, 12, 72, 84
19, 364491, Note_on_c, 12, 72, 0
19, 364500, Note_on_c, 12, 72, 84
19, 364551, Note_on_c, 12, 72, 0
19, 364560, Note_on_c, 12, 72, 92
19, 364611, Note_on_c, 12, 72, 0
19, 364620, Note_on_c, 12, 72, 84
19, 364671, Note_on_c, 12, 72, 0
19, 364680, Note_on_c, 12, 72, 84
19, 364731, Note_on_c, 12, 72, 0
19, 364740, Note_on_c, 12, 72, 84
19, 364791, Note_on_c, 12, 72, 0
19, 364800, Note_on_c, 12, 72, 84
19, 364851, Note_on_c, 12, 72, 0
19, 364860, Note_on_c, 12, 72, 84
19, 364911, Note_on_c, 12, 72, 0
19, 364920, Note_on_c, 12, 72, 84
19, 364971, Note_on_c, 12, 72, 0
19, 364980, Note_on_c, 12, 72, 84
19, 365031, Note_on_c, 12, 72, 0
19, 365040, Note_on_c, 12, 72, 84
19, 365091, Note_on_c, 12, 72, 0
19, 365100, Note_on_c, 12, 72, 84
19, 365151, Note_on_c, 12, 72, 0
19, 365160, Note_on_c, 12, 72, 84
19, 365211, Note_on_c, 12, 72, 0
19, 365220, Note_on_c, 12, 72, 84
19, 365271, Note_on_c, 12, 72, 0
19, 365280, Note_on_c, 12, 77, 84
19, 365331, Note_on_c, 12, 77, 0
19, 365340, Note_on_c, 12, 69, 84
19, 365391, Note_on_c, 12, 69, 0
19, 365400, Note_on_c, 12, 77, 84
19, 365451, Note_on_c, 12, 77, 0
19, 365460, Note_on_c, 12, 77, 84
19, 365511, Note_on_c, 12, 77, 0
19, 365520, Note_on_c, 12, 77, 92
19, 365571, Note_on_c, 12, 77, 0
19, 365580, Note_on_c, 12, 77, 84
19, 365631, Note_on_c, 12, 77, 0
19, 365640, Note_on_c, 12, 77, 84
19, 365691, Note_on_c, 12, 77, 0
19, 365700, Note_on_c, 12, 77, 84
19, 365751, Note_on_c, 12, 77, 0
19, 365760, Note_on_c, 12, 77, 84
19, 365811, Note_on_c, 12, 77, 0
19, 365820, Note_on_c, 12, 77, 84
19, 365871, Note_on_c, 12, 77, 0
19, 365880, Note_on_c, 12, 77, 84
19, 365931, Note_on_c, 12, 77, 0
19, 365940, Note_on_c, 12, 77, 84
19, 365991, Note_on_c, 12, 77, 0
19, 366000, Note_on_c, 12, 77, 84
19, 366051, Note_on_c, 12, 77, 0
19, 366060, Note_on_c, 12, 77, 84
19, 366111, Note_on_c, 12, 77, 0
19, 366120, Note_on_c, 12, 77, 84
19, 366171, Note_on_c, 12, 77, 0
19, 366180, Note_on_c, 12, 77, 84
19, 366231, Note_on_c, 12, 77, 0
19, 366240, Note_on_c, 12, 81, 84
19, 366291, Note_on_c, 12, 81, 0
19, 366300, Note_on_c, 12, 69, 84
19, 366351, Note_on_c, 12, 69, 0
19, 366360, Note_on_c, 12, 81, 84
19, 366411, Note_on_c, 12, 81, 0
19, 366420, Note_on_c, 12, 81, 84
19, 366471, Note_on_c, 12, 81, 0
19, 366480, Note_on_c, 12, 81, 92
19, 366531, Note_on_c, 12, 81, 0
19, 366540, Note_on_c, 12, 81, 84
19, 366591, Note_on_c, 12, 81, 0
19, 366600, Note_on_c, 12, 81, 84
19, 366651, Note_on_c, 12, 81, 0
19, 366660, Note_on_c, 12, 81, 84
19, 366711, Note_on_c, 12, 81, 0
19, 366720, Note_on_c, 12, 81, 84
19, 366771, Note_on_c, 12, 81, 0
19, 366780, Note_on_c, 12, 81, 84
19, 366831, Note_on_c, 12, 81, 0
19, 366840, Note_on_c, 12, 81, 84
19, 366891, Note_on_c, 12, 81, 0
19, 366900, Note_on_c, 12, 81, 84
19, 366951, Note_on_c, 12, 81, 0
19, 366960, Note_on_c, 12, 81, 84
19, 367011, Note_on_c, 12, 81, 0
19, 367020, Note_on_c, 12, 81, 84
19, 367071, Note_on_c, 12, 81, 0
19, 367080, Note_on_c, 12, 81, 84
19, 367131, Note_on_c, 12, 81, 0
19, 367140, Note_on_c, 12, 81, 84
19, 367191, Note_on_c, 12, 81, 0
19, 367200, Note_on_c, 12, 79, 84
19, 367379, Note_on_c, 12, 79, 0
19, 368160, Note_on_c, 12, 62, 84
19, 368160, Note_on_c, 12, 55, 84
19, 368160, Note_on_c, 12, 79, 84
19, 368160, Note_on_c, 12, 71, 84
19, 368339, Note_on_c, 12, 62, 0
19, 368339, Note_on_c, 12, 55, 0
19, 368339, Note_on_c, 12, 79, 0
19, 368339, Note_on_c, 12, 71, 0
19, 369120, Note_on_c, 12, 55, 84
19, 369120, Note_on_c, 12, 72, 84
19, 369120, Note_on_c, 12, 76, 84
19, 369120, Note_on_c, 12, 64, 84
19, 369299, Note_on_c, 12, 55, 0
19, 369299, Note_on_c, 12, 72, 0
19, 369299, Note_on_c, 12, 76, 0
19, 369299, Note_on_c, 12, 64, 0
19, 370080, Note_on_c, 12, 79, 84
19, 370080, Note_on_c, 12, 62, 84
19, 370080, Note_on_c, 12, 55, 84
19, 370080, Note_on_c, 12, 71, 84
19, 370259, Note_on_c, 12, 79, 0
19, 370259, Note_on_c, 12, 62, 0
19, 370259, Note_on_c, 12, 55, 0
19, 370259, Note_on_c, 12, 71, 0
19, 371040, Note_on_c, 12, 55, 84
19, 371040, Note_on_c, 12, 76, 84
19, 371040, Note_on_c, 12, 64, 84
19, 371040, Note_on_c, 12, 72, 84
19, 371219, Note_on_c, 12, 55, 0
19, 371219, Note_on_c, 12, 76, 0
19, 371219, Note_on_c, 12, 64, 0
19, 371219, Note_on_c, 12, 72, 0
19, 372000, Note_on_c, 12, 71, 84
19, 372000, Note_on_c, 12, 62, 84
19, 372000, Note_on_c, 12, 55, 84
19, 372000, Note_on_c, 12, 79, 84
19, 372179, Note_on_c, 12, 71, 0
19, 372179, Note_on_c, 12, 62, 0
19, 372179, Note_on_c, 12, 55, 0
19, 372179, Note_on_c, 12, 79, 0
19, 378880, Note_on_c, 12, 59, 53
19, 378919, Note_on_c, 12, 59, 0
19, 378920, Note_on_c, 12, 60, 53
19, 378959, Note_on_c, 12, 60, 0
19, 378960, Note_on_c, 12, 62, 54
19, 379199, Note_on_c, 12, 62, 0
19, 379360, Note_on_c, 12, 59, 57
19, 379399, Note_on_c, 12, 59, 0
19, 379400, Note_on_c, 12, 60, 57
19, 379439, Note_on_c, 12, 60, 0
19, 379440, Note_on_c, 12, 62, 58
19, 379679, Note_on_c, 12, 62, 0
19, 379840, Note_on_c, 12, 60, 61
19, 379879, Note_on_c, 12, 60, 0
19, 379880, Note_on_c, 12, 62, 61
19, 379919, Note_on_c, 12, 62, 0
19, 379920, Note_on_c, 12, 64, 62
19, 380159, Note_on_c, 12, 64, 0
19, 380320, Note_on_c, 12, 60, 65
19, 380359, Note_on_c, 12, 60, 0
19, 380360, Note_on_c, 12, 62, 65
19, 380399, Note_on_c, 12, 62, 0
19, 380400, Note_on_c, 12, 64, 66
19, 380639, Note_on_c, 12, 64, 0
19, 380800, Note_on_c, 12, 71, 69
19, 380839, Note_on_c, 12, 71, 0
19, 380840, Note_on_c, 12, 72, 69
19, 380879, Note_on_c, 12, 72, 0
19, 380880, Note_on_c, 12, 74, 70
19, 381119, Note_on_c, 12, 74, 0
19, 381280, Note_on_c, 12, 71, 73
19, 381319, Note_on_c, 12, 71, 0
19, 381320, Note_on_c, 12, 72, 73
19, 381359, Note_on_c, 12, 72, 0
19, 381360, Note_on_c, 12, 74, 74
19, 381584, Note_on_c, 12, 74, 0
19, 381600, Note_on_c, 12, 67, 76
19, 381651, Note_on_c, 12, 67, 0
19, 381660, Note_on_c, 12, 67, 76
19, 381711, Note_on_c, 12, 67, 0
19, 381720, Note_on_c, 12, 67, 76
19, 381771, Note_on_c, 12, 67, 0
19, 381780, Note_on_c, 12, 67, 76
19, 381831, Note_on_c, 12, 67, 0
19, 381840, Note_on_c, 12, 65, 76
19, 381891, Note_on_c, 12, 65, 0
19, 381900, Note_on_c, 12, 65, 76
19, 381951, Note_on_c, 12, 65, 0
19, 381960, Note_on_c, 12, 65, 76
19, 382011, Note_on_c, 12, 65, 0
19, 382020, Note_on_c, 12, 65, 76
19, 382071, Note_on_c, 12, 65, 0
19, 382080, Note_on_c, 12, 64, 76
19, 382131, Note_on_c, 12, 64, 0
19, 382140, Note_on_c, 12, 64, 76
19, 382191, Note_on_c, 12, 64, 0
19, 382200, Note_on_c, 12, 64, 76
19, 382251, Note_on_c, 12, 64, 0
19, 382260, Note_on_c, 12, 64, 76
19, 382311, Note_on_c, 12, 64, 0
19, 382320, Note_on_c, 12, 62, 76
19, 382371, Note_on_c, 12, 62, 0
19, 382380, Note_on_c, 12, 62, 76
19, 382431, Note_on_c, 12, 62, 0
19, 382440, Note_on_c, 12, 62, 76
19, 382491, Note_on_c, 12, 62, 0
19, 382500, Note_on_c, 12, 62, 76
19, 382551, Note_on_c, 12, 62, 0
19, 382560, Note_on_c, 12, 60, 76
19, 382611, Note_on_c, 12, 60, 0
19, 382620, Note_on_c, 12, 60, 76
19, 382671, Note_on_c, 12, 60, 0
19, 382680, Note_on_c, 12, 60, 76
19, 382731, Note_on_c, 12, 60, 0
19, 382740, Note_on_c, 12, 60, 76
19, 382791, Note_on_c, 12, 60, 0
19, 382800, Note_on_c, 12, 67, 76
19, 382851, Note_on_c, 12, 67, 0
19, 382860, Note_on_c, 12, 67, 76
19, 382911, Note_on_c, 12, 67, 0
19, 382920, Note_on_c, 12, 67, 76
19, 382971, Note_on_c, 12, 67, 0
19, 382980, Note_on_c, 12, 67, 76
19, 383031, Note_on_c, 12, 67, 0
19, 383040, Note_on_c, 12, 69, 76
19, 383091, Note_on_c, 12, 69, 0
19, 383100, Note_on_c, 12, 69, 76
19, 383151, Note_on_c, 12, 69, 0
19, 383160, Note_on_c, 12, 69, 76
19, 383211, Note_on_c, 12, 69, 0
19, 383220, Note_on_c, 12, 69, 76
19, 383271, Note_on_c, 12, 69, 0
19, 383280, Note_on_c, 12, 69, 76
19, 383331, Note_on_c, 12, 69, 0
19, 383340, Note_on_c, 12, 69, 76
19, 383391, Note_on_c, 12, 69, 0
19, 383400, Note_on_c, 12, 69, 76
19, 383451, Note_on_c, 12, 69, 0
19, 383460, Note_on_c, 12, 69, 76
19, 383511, Note_on_c, 12, 69, 0
19, 383520, Note_on_c, 12, 69, 76
19, 384224, Note_on_c, 12, 69, 0
19, 384240, Note_on_c, 12, 67, 76
19, 384419, Note_on_c, 12, 67, 0
19, 384480, Note_on_c, 12, 65, 76
19, 385184, Note_on_c, 12, 65, 0
19, 385200, Note_on_c, 12, 67, 76
19, 385379, Note_on_c, 12, 67, 0
19, 385440, Note_on_c, 12, 69, 76
19, 386144, Note_on_c, 12, 69, 0
19, 386160, Note_on_c, 12, 67, 76
19, 386339, Note_on_c, 12, 67, 0
19, 386400, Note_on_c, 12, 65, 76
19, 387104, Note_on_c, 12, 65, 0
19, 387120, Note_on_c, 12, 72, 76
19, 387299, Note_on_c, 12, 72, 0
19, 387360, Note_on_c, 12, 65, 76
19, 387360, Note_on_c, 12, 55, 76
19, 387360, Note_on_c, 12, 74, 76
19, 387599, Note_on_c, 12, 65, 0
19, 387599, Note_on_c, 12, 55, 0
19, 387599, Note_on_c, 12, 74, 0
19, 387840, Note_on_c, 12, 72, 52
19, 388079, Note_on_c, 12, 72, 0
19, 388320, Note_on_c, 12, 74, 52
19, 388559, Note_on_c, 12, 74, 0
19, 388800, Note_on_c, 12, 65, 52
19, 389024, Note_on_c, 12, 65, 0
19, 389040, Note_on_c, 12, 55, 76
19, 389279, Note_on_c, 12, 55, 0
19, 389280, Note_on_c, 12, 60, 76
19, 389519, Note_on_c, 12, 60, 0
19, 389520, Note_on_c, 12, 55, 76
19, 389759, Note_on_c, 12, 55, 0
19, 389760, Note_on_c, 12, 64, 76
19, 389999, Note_on_c, 12, 64, 0
19, 390000, Note_on_c, 12, 62, 76
19, 390179, Note_on_c, 12, 62, 0
19, 390180, Note_on_c, 12, 60, 76
19, 390231, Note_on_c, 12, 60, 0
19, 390240, Note_on_c, 12, 67, 76
19, 390959, Note_on_c, 12, 67, 0
19, 392880, Note_on_c, 12, 67, 52
19, 393119, Note_on_c, 12, 67, 0
19, 393120, Note_on_c, 12, 71, 53
19, 393359, Note_on_c, 12, 71, 0
19, 393360, Note_on_c, 12, 67, 54
19, 393599, Note_on_c, 12, 67, 0
19, 393600, Note_on_c, 12, 74, 55
19, 393839, Note_on_c, 12, 74, 0
19, 393840, Note_on_c, 12, 72, 56
19, 394019, Note_on_c, 12, 72, 0
19, 394020, Note_on_c, 12, 71, 57
19, 394071, Note_on_c, 12, 71, 0
19, 394080, Note_on_c, 12, 72, 57
19, 394319, Note_on_c, 12, 72, 0
19, 394320, Note_on_c, 12, 67, 58
19, 394559, Note_on_c, 12, 67, 0
19, 394560, Note_on_c, 12, 76, 60
19, 394799, Note_on_c, 12, 76, 0
19, 394800, Note_on_c, 12, 74, 61
19, 394979, Note_on_c, 12, 74, 0
19, 394980, Note_on_c, 12, 72, 62
19, 395031, Note_on_c, 12, 72, 0
19, 395040, Note_on_c, 12, 71, 62
19, 395279, Note_on_c, 12, 71, 0
19, 395280, Note_on_c, 12, 67, 63
19, 395519, Note_on_c, 12, 67, 0
19, 395520, Note_on_c, 12, 74, 64
19, 395759, Note_on_c, 12, 74, 0
19, 395760, Note_on_c, 12, 72, 65
19, 395939, Note_on_c, 12, 72, 0
19, 395940, Note_on_c, 12, 71, 66
19, 395991, Note_on_c, 12, 71, 0
19, 396000, Note_on_c, 12, 72, 66
19, 396239, Note_on_c, 12, 72, 0
19, 396240, Note_on_c, 12, 67, 68
19, 396479, Note_on_c, 12, 67, 0
19, 396480, Note_on_c, 12, 76, 69
19, 396719, Note_on_c, 12, 76, 0
19, 396720, Note_on_c, 12, 74, 70
19, 396899, Note_on_c, 12, 74, 0
19, 396900, Note_on_c, 12, 72, 71
19, 396951, Note_on_c, 12, 72, 0
19, 396960, Note_on_c, 12, 71, 71
19, 397199, Note_on_c, 12, 71, 0
19, 397200, Note_on_c, 12, 67, 72
19, 397439, Note_on_c, 12, 67, 0
19, 397440, Note_on_c, 12, 74, 73
19, 397679, Note_on_c, 12, 74, 0
19, 397680, Note_on_c, 12, 72, 74
19, 397859, Note_on_c, 12, 72, 0
19, 397860, Note_on_c, 12, 71, 75
19, 397911, Note_on_c, 12, 71, 0
19, 397920, Note_on_c, 12, 72, 76
19, 397971, Note_on_c, 12, 72, 0
19, 397980, Note_on_c, 12, 72, 76
19, 398031, Note_on_c, 12, 72, 0
19, 398040, Note_on_c, 12, 72, 76
19, 398091, Note_on_c, 12, 72, 0
19, 398100, Note_on_c, 12, 72, 76
19, 398151, Note_on_c, 12, 72, 0
19, 398160, Note_on_c, 12, 65, 76
19, 398211, Note_on_c, 12, 65, 0
19, 398220, Note_on_c, 12, 65, 76
19, 398271, Note_on_c, 12, 65, 0
19, 398280, Note_on_c, 12, 65, 76
19, 398331, Note_on_c, 12, 65, 0
19, 398340, Note_on_c, 12, 65, 76
19, 398391, Note_on_c, 12, 65, 0
19, 398400, Note_on_c, 12, 64, 76
19, 398451, Note_on_c, 12, 64, 0
19, 398460, Note_on_c, 12, 64, 76
19, 398511, Note_on_c, 12, 64, 0
19, 398520, Note_on_c, 12, 64, 76
19, 398571, Note_on_c, 12, 64, 0
19, 398580, Note_on_c, 12, 64, 76
19, 398631, Note_on_c, 12, 64, 0
19, 398640, Note_on_c, 12, 62, 76
19, 398691, Note_on_c, 12, 62, 0
19, 398700, Note_on_c, 12, 62, 76
19, 398751, Note_on_c, 12, 62, 0
19, 398760, Note_on_c, 12, 62, 76
19, 398811, Note_on_c, 12, 62, 0
19, 398820, Note_on_c, 12, 62, 76
19, 398871, Note_on_c, 12, 62, 0
19, 398880, Note_on_c, 12, 60, 76
19, 398931, Note_on_c, 12, 60, 0
19, 398940, Note_on_c, 12, 60, 76
19, 398991, Note_on_c, 12, 60, 0
19, 399000, Note_on_c, 12, 60, 76
19, 399051, Note_on_c, 12, 60, 0
19, 399060, Note_on_c, 12, 60, 76
19, 399111, Note_on_c, 12, 60, 0
19, 399120, Note_on_c, 12, 64, 76
19, 399171, Note_on_c, 12, 64, 0
19, 399180, Note_on_c, 12, 64, 76
19, 399231, Note_on_c, 12, 64, 0
19, 399240, Note_on_c, 12, 64, 76
19, 399291, Note_on_c, 12, 64, 0
19, 399300, Note_on_c, 12, 64, 76
19, 399351, Note_on_c, 12, 64, 0
19, 399360, Note_on_c, 12, 69, 76
19, 399411, Note_on_c, 12, 69, 0
19, 399420, Note_on_c, 12, 69, 76
19, 399471, Note_on_c, 12, 69, 0
19, 399480, Note_on_c, 12, 69, 76
19, 399531, Note_on_c, 12, 69, 0
19, 399540, Note_on_c, 12, 69, 76
19, 399591, Note_on_c, 12, 69, 0
19, 399600, Note_on_c, 12, 67, 76
19, 399651, Note_on_c, 12, 67, 0
19, 399660, Note_on_c, 12, 67, 76
19, 399711, Note_on_c, 12, 67, 0
19, 399720, Note_on_c, 12, 67, 76
19, 399771, Note_on_c, 12, 67, 0
19, 399780, Note_on_c, 12, 67, 76
19, 399831, Note_on_c, 12, 67, 0
19, 399840, Note_on_c, 12, 69, 76
19, 400544, Note_on_c, 12, 69, 0
19, 400560, Note_on_c, 12, 67, 76
19, 400739, Note_on_c, 12, 67, 0
19, 400800, Note_on_c, 12, 65, 76
19, 401504, Note_on_c, 12, 65, 0
19, 401520, Note_on_c, 12, 67, 76
19, 401699, Note_on_c, 12, 67, 0
19, 401760, Note_on_c, 12, 69, 76
19, 402464, Note_on_c, 12, 69, 0
19, 402480, Note_on_c, 12, 67, 76
19, 402659, Note_on_c, 12, 67, 0
19, 402720, Note_on_c, 12, 65, 76
19, 403424, Note_on_c, 12, 65, 0
19, 403440, Note_on_c, 12, 72, 76
19, 403619, Note_on_c, 12, 72, 0
19, 403680, Note_on_c, 12, 72, 52
19, 403799, Note_on_c, 12, 72, 0
19, 403920, Note_on_c, 12, 76, 52
19, 404039, Note_on_c, 12, 76, 0
19, 404160, Note_on_c, 12, 72, 52
19, 404279, Note_on_c, 12, 72, 0
19, 404400, Note_on_c, 12, 72, 53
19, 404519, Note_on_c, 12, 72, 0
19, 404640, Note_on_c, 12, 71, 54
19, 404759, Note_on_c, 12, 71, 0
19, 404880, Note_on_c, 12, 72, 55
19, 404999, Note_on_c, 12, 72, 0
19, 405120, Note_on_c, 12, 71, 56
19, 405239, Note_on_c, 12, 71, 0
19, 405360, Note_on_c, 12, 72, 57
19, 405479, Note_on_c, 12, 72, 0
19, 405600, Note_on_c, 12, 72, 58
19, 405719, Note_on_c, 12, 72, 0
19, 405840, Note_on_c, 12, 72, 59
19, 405959, Note_on_c, 12, 72, 0
19, 406080, Note_on_c, 12, 72, 60
19, 406199, Note_on_c, 12, 72, 0
19, 406320, Note_on_c, 12, 72, 61
19, 406439, Note_on_c, 12, 72, 0
19, 406560, Note_on_c, 12, 71, 62
19, 406679, Note_on_c, 12, 71, 0
19, 406800, Note_on_c, 12, 72, 64
19, 406919, Note_on_c, 12, 72, 0
19, 407040, Note_on_c, 12, 71, 65
19, 407159, Note_on_c, 12, 71, 0
19, 407280, Note_on_c, 12, 72, 66
19, 407399, Note_on_c, 12, 72, 0
19, 407520, Note_on_c, 12, 72, 67
19, 407639, Note_on_c, 12, 72, 0
19, 407760, Note_on_c, 12, 72, 68
19, 407879, Note_on_c, 12, 72, 0
19, 408000, Note_on_c, 12, 72, 69
19, 408119, Note_on_c, 12, 72, 0
19, 408240, Note_on_c, 12, 72, 70
19, 408359, Note_on_c, 12, 72, 0
19, 408480, Note_on_c, 12, 71, 71
19, 408599, Note_on_c, 12, 71, 0
19, 408720, Note_on_c, 12, 72, 72
19, 408839, Note_on_c, 12, 72, 0
19, 408960, Note_on_c, 12, 72, 73
19, 409079, Note_on_c, 12, 72, 0
19, 409200, Note_on_c, 12, 71, 74
19, 409319, Note_on_c, 12, 71, 0
19, 411360, Note_on_c, 12, 60, 76
19, 411419, Note_on_c, 12, 60, 0
19, 411420, Note_on_c, 12, 60, 52
19, 411699, Note_on_c, 12, 60, 0
19, 411720, Note_on_c, 12, 59, 52
19, 411819, Note_on_c, 12, 59, 0
19, 411840, Note_on_c, 12, 57, 52
19, 411959, Note_on_c, 12, 57, 0
19, 411960, Note_on_c, 12, 55, 52
19, 412059, Note_on_c, 12, 55, 0
19, 412080, Note_on_c, 12, 55, 52
19, 412169, Note_on_c, 12, 55, 0
19, 412200, Note_on_c, 12, 55, 52
19, 412289, Note_on_c, 12, 55, 0
19, 412320, Note_on_c, 12, 60, 76
19, 412379, Note_on_c, 12, 60, 0
19, 412380, Note_on_c, 12, 60, 52
19, 412659, Note_on_c, 12, 60, 0
19, 412680, Note_on_c, 12, 59, 52
19, 412779, Note_on_c, 12, 59, 0
19, 412800, Note_on_c, 12, 57, 52
19, 412919, Note_on_c, 12, 57, 0
19, 412920, Note_on_c, 12, 55, 52
19, 413019, Note_on_c, 12, 55, 0
19, 413040, Note_on_c, 12, 55, 52
19, 413129, Note_on_c, 12, 55, 0
19, 413160, Note_on_c, 12, 55, 52
19, 413249, Note_on_c, 12, 55, 0
19, 413280, Note_on_c, 12, 64, 76
19, 413339, Note_on_c, 12, 64, 0
19, 413340, Note_on_c, 12, 64, 52
19, 413619, Note_on_c, 12, 64, 0
19, 413640, Note_on_c, 12, 62, 52
19, 413739, Note_on_c, 12, 62, 0
19, 413760, Note_on_c, 12, 60, 52
19, 413879, Note_on_c, 12, 60, 0
19, 413880, Note_on_c, 12, 59, 52
19, 413979, Note_on_c, 12, 59, 0
19, 414000, Note_on_c, 12, 59, 52
19, 414089, Note_on_c, 12, 59, 0
19, 414120, Note_on_c, 12, 59, 52
19, 414209, Note_on_c, 12, 59, 0
19, 414240, Note_on_c, 12, 64, 76
19, 414299, Note_on_c, 12, 64, 0
19, 414300, Note_on_c, 12, 64, 52
19, 414579, Note_on_c, 12, 64, 0
19, 414600, Note_on_c, 12, 62, 52
19, 414699, Note_on_c, 12, 62, 0
19, 414720, Note_on_c, 12, 60, 52
19, 414839, Note_on_c, 12, 60, 0
19, 414840, Note_on_c, 12, 59, 52
19, 414939, Note_on_c, 12, 59, 0
19, 414960, Note_on_c, 12, 59, 52
19, 415049, Note_on_c, 12, 59, 0
19, 415080, Note_on_c, 12, 59, 52
19, 415169, Note_on_c, 12, 59, 0
19, 415200, Note_on_c, 12, 72, 76
19, 415259, Note_on_c, 12, 72, 0
19, 415260, Note_on_c, 12, 72, 52
19, 415539, Note_on_c, 12, 72, 0
19, 415560, Note_on_c, 12, 71, 52
19, 415659, Note_on_c, 12, 71, 0
19, 415680, Note_on_c, 12, 69, 52
19, 415799, Note_on_c, 12, 69, 0
19, 415800, Note_on_c, 12, 67, 52
19, 415899, Note_on_c, 12, 67, 0
19, 415920, Note_on_c, 12, 67, 52
19, 416009, Note_on_c, 12, 67, 0
19, 416040, Note_on_c, 12, 67, 52
19, 416129, Note_on_c, 12, 67, 0
19, 416160, Note_on_c, 12, 72, 76
19, 416219, Note_on_c, 12, 72, 0
19, 416220, Note_on_c, 12, 72, 52
19, 416499, Note_on_c, 12, 72, 0
19, 416520, Note_on_c, 12, 71, 52
19, 416619, Note_on_c, 12, 71, 0
19, 416640, Note_on_c, 12, 69, 52
19, 416759, Note_on_c, 12, 69, 0
19, 416760, Note_on_c, 12, 67, 52
19, 416859, Note_on_c, 12, 67, 0
19, 416880, Note_on_c, 12, 67, 52
19, 416969, Note_on_c, 12, 67, 0
19, 417000, Note_on_c, 12, 67, 52
19, 417089, Note_on_c, 12, 67, 0
19, 417120, Note_on_c, 12, 72, 52
19, 417239, Note_on_c, 12, 72, 0
19, 417360, Note_on_c, 12, 72, 53
19, 417479, Note_on_c, 12, 72, 0
19, 417600, Note_on_c, 12, 72, 55
19, 417719, Note_on_c, 12, 72, 0
19, 417840, Note_on_c, 12, 72, 56
19, 417959, Note_on_c, 12, 72, 0
19, 418080, Note_on_c, 12, 71, 58
19, 418199, Note_on_c, 12, 71, 0
19, 418320, Note_on_c, 12, 72, 59
19, 418439, Note_on_c, 12, 72, 0
19, 418560, Note_on_c, 12, 71, 61
19, 418679, Note_on_c, 12, 71, 0
19, 418800, Note_on_c, 12, 72, 62
19, 418919, Note_on_c, 12, 72, 0
19, 419040, Note_on_c, 12, 72, 64
19, 419089, Note_on_c, 12, 72, 0
19, 419100, Note_on_c, 12, 72, 64
19, 419149, Note_on_c, 12, 72, 0
19, 419160, Note_on_c, 12, 72, 64
19, 419259, Note_on_c, 12, 72, 0
19, 419280, Note_on_c, 12, 72, 65
19, 419329, Note_on_c, 12, 72, 0
19, 419340, Note_on_c, 12, 72, 65
19, 419389, Note_on_c, 12, 72, 0
19, 419400, Note_on_c, 12, 72, 66
19, 419499, Note_on_c, 12, 72, 0
19, 419520, Note_on_c, 12, 72, 67
19, 419569, Note_on_c, 12, 72, 0
19, 419580, Note_on_c, 12, 72, 67
19, 419629, Note_on_c, 12, 72, 0
19, 419640, Note_on_c, 12, 72, 67
19, 419739, Note_on_c, 12, 72, 0
19, 419760, Note_on_c, 12, 72, 68
19, 419809, Note_on_c, 12, 72, 0
19, 419820, Note_on_c, 12, 72, 68
19, 419869, Note_on_c, 12, 72, 0
19, 419880, Note_on_c, 12, 72, 69
19, 419979, Note_on_c, 12, 72, 0
19, 420000, Note_on_c, 12, 71, 70
19, 420049, Note_on_c, 12, 71, 0
19, 420060, Note_on_c, 12, 71, 70
19, 420109, Note_on_c, 12, 71, 0
19, 420120, Note_on_c, 12, 71, 70
19, 420219, Note_on_c, 12, 71, 0
19, 420240, Note_on_c, 12, 72, 71
19, 420289, Note_on_c, 12, 72, 0
19, 420300, Note_on_c, 12, 72, 71
19, 420349, Note_on_c, 12, 72, 0
19, 420360, Note_on_c, 12, 72, 72
19, 420459, Note_on_c, 12, 72, 0
19, 420480, Note_on_c, 12, 71, 73
19, 420529, Note_on_c, 12, 71, 0
19, 420540, Note_on_c, 12, 71, 73
19, 420589, Note_on_c, 12, 71, 0
19, 420600, Note_on_c, 12, 71, 73
19, 420699, Note_on_c, 12, 71, 0
19, 420720, Note_on_c, 12, 72, 74
19, 420769, Note_on_c, 12, 72, 0
19, 420780, Note_on_c, 12, 72, 74
19, 420829, Note_on_c, 12, 72, 0
19, 420840, Note_on_c, 12, 72, 75
19, 420889, Note_on_c, 12, 72, 0
19, 420900, Note_on_c, 12, 72, 75
19, 420949, Note_on_c, 12, 72, 0
19, 420960, Note_on_c, 12, 72, 76
19, 421009, Note_on_c, 12, 72, 0
19, 421020, Note_on_c, 12, 72, 76
19, 421069, Note_on_c, 12, 72, 0
19, 421080, Note_on_c, 12, 72, 76
19, 421129, Note_on_c, 12, 72, 0
19, 421140, Note_on_c, 12, 72, 76
19, 421189, Note_on_c, 12, 72, 0
19, 421200, Note_on_c, 12, 72, 76
19, 421249, Note_on_c, 12, 72, 0
19, 421260, Note_on_c, 12, 72, 76
19, 421309, Note_on_c, 12, 72, 0
19, 421320, Note_on_c, 12, 72, 76
19, 421369, Note_on_c, 12, 72, 0
19, 421380, Note_on_c, 12, 72, 76
19, 421429, Note_on_c, 12, 72, 0
19, 421440, Note_on_c, 12, 72, 76
19, 421489, Note_on_c, 12, 72, 0
19, 421500, Note_on_c, 12, 72, 76
19, 421549, Note_on_c, 12, 72, 0
19, 421560, Note_on_c, 12, 72, 76
19, 421609, Note_on_c, 12, 72, 0
19, 421620, Note_on_c, 12, 72, 76
19, 421669, Note_on_c, 12, 72, 0
19, 421680, Note_on_c, 12, 72, 76
19, 421729, Note_on_c, 12, 72, 0
19, 421740, Note_on_c, 12, 72, 76
19, 421789, Note_on_c, 12, 72, 0
19, 421800, Note_on_c, 12, 72, 76
19, 421849, Note_on_c, 12, 72, 0
19, 421860, Note_on_c, 12, 72, 76
19, 421909, Note_on_c, 12, 72, 0
19, 421920, Note_on_c, 12, 71, 76
19, 421969, Note_on_c, 12, 71, 0
19, 421980, Note_on_c, 12, 71, 76
19, 422029, Note_on_c, 12, 71, 0
19, 422040, Note_on_c, 12, 71, 76
19, 422089, Note_on_c, 12, 71, 0
19, 422100, Note_on_c, 12, 71, 76
19, 422149, Note_on_c, 12, 71, 0
19, 422160, Note_on_c, 12, 72, 76
19, 422209, Note_on_c, 12, 72, 0
19, 422220, Note_on_c, 12, 72, 76
19, 422269, Note_on_c, 12, 72, 0
19, 422280, Note_on_c, 12, 72, 76
19, 422329, Note_on_c, 12, 72, 0
19, 422340, Note_on_c, 12, 72, 76
19, 422389, Note_on_c, 12, 72, 0
19, 422400, Note_on_c, 12, 72, 76
19, 422449, Note_on_c, 12, 72, 0
19, 422460, Note_on_c, 12, 72, 76
19, 422509, Note_on_c, 12, 72, 0
19, 422520, Note_on_c, 12, 72, 76
19, 422569, Note_on_c, 12, 72, 0
19, 422580, Note_on_c, 12, 72, 76
19, 422629, Note_on_c, 12, 72, 0
19, 422640, Note_on_c, 12, 71, 76
19, 422689, Note_on_c, 12, 71, 0
19, 422700, Note_on_c, 12, 71, 76
19, 422749, Note_on_c, 12, 71, 0
19, 422760, Note_on_c, 12, 71, 76
19, 422809, Note_on_c, 12, 71, 0
19, 422820, Note_on_c, 12, 71, 76
19, 422869, Note_on_c, 12, 71, 0
19, 422880, Note_on_c, 12, 72, 84
19, 422929, Note_on_c, 12, 72, 0
19, 422940, Note_on_c, 12, 60, 84
19, 422989, Note_on_c, 12, 60, 0
19, 423000, Note_on_c, 12, 60, 84
19, 423049, Note_on_c, 12, 60, 0
19, 423060, Note_on_c, 12, 60, 84
19, 423109, Note_on_c, 12, 60, 0
19, 423120, Note_on_c, 12, 60, 84
19, 423169, Note_on_c, 12, 60, 0
19, 423180, Note_on_c, 12, 60, 84
19, 423229, Note_on_c, 12, 60, 0
19, 423240, Note_on_c, 12, 60, 84
19, 423289, Note_on_c, 12, 60, 0
19, 423300, Note_on_c, 12, 60, 84
19, 423349, Note_on_c, 12, 60, 0
19, 423360, Note_on_c, 12, 60, 84
19, 423409, Note_on_c, 12, 60, 0
19, 423420, Note_on_c, 12, 60, 84
19, 423469, Note_on_c, 12, 60, 0
19, 423480, Note_on_c, 12, 60, 84
19, 423529, Note_on_c, 12, 60, 0
19, 423540, Note_on_c, 12, 60, 84
19, 423589, Note_on_c, 12, 60, 0
19, 423600, Note_on_c, 12, 60, 84
19, 423649, Note_on_c, 12, 60, 0
19, 423660, Note_on_c, 12, 60, 84
19, 423709, Note_on_c, 12, 60, 0
19, 423720, Note_on_c, 12, 60, 84
19, 423769, Note_on_c, 12, 60, 0
19, 423780, Note_on_c, 12, 60, 84
19, 423829, Note_on_c, 12, 60, 0
19, 423840, Note_on_c, 12, 60, 84
19, 423889, Note_on_c, 12, 60, 0
19, 423900, Note_on_c, 12, 60, 84
19, 423949, Note_on_c, 12, 60, 0
19, 423960, Note_on_c, 12, 60, 84
19, 424009, Note_on_c, 12, 60, 0
19, 424020, Note_on_c, 12, 60, 84
19, 424069, Note_on_c, 12, 60, 0
19, 424080, Note_on_c, 12, 60, 84
19, 424129, Note_on_c, 12, 60, 0
19, 424140, Note_on_c, 12, 60, 84
19, 424189, Note_on_c, 12, 60, 0
19, 424200, Note_on_c, 12, 60, 84
19, 424249, Note_on_c, 12, 60, 0
19, 424260, Note_on_c, 12, 60, 84
19, 424309, Note_on_c, 12, 60, 0
19, 424320, Note_on_c, 12, 64, 84
19, 424320, Note_on_c, 12, 60, 84
19, 424369, Note_on_c, 12, 64, 0
19, 424369, Note_on_c, 12, 60, 0
19, 424380, Note_on_c, 12, 60, 84
19, 424380, Note_on_c, 12, 64, 84
19, 424429, Note_on_c, 12, 60, 0
19, 424429, Note_on_c, 12, 64, 0
19, 424440, Note_on_c, 12, 60, 84
19, 424440, Note_on_c, 12, 64, 84
19, 424489, Note_on_c, 12, 60, 0
19, 424489, Note_on_c, 12, 64, 0
19, 424500, Note_on_c, 12, 60, 84
19, 424500, Note_on_c, 12, 64, 84
19, 424549, Note_on_c, 12, 60, 0
19, 424549, Note_on_c, 12, 64, 0
19, 424560, Note_on_c, 12, 60, 84
19, 424560, Note_on_c, 12, 64, 84
19, 424609, Note_on_c, 12, 60, 0
19, 424609, Note_on_c, 12, 64, 0
19, 424620, Note_on_c, 12, 64, 84
19, 424620, Note_on_c, 12, 60, 84
19, 424669, Note_on_c, 12, 64, 0
19, 424669, Note_on_c, 12, 60, 0
19, 424680, Note_on_c, 12, 64, 84
19, 424680, Note_on_c, 12, 60, 84
19, 424729, Note_on_c, 12, 64, 0
19, 424729, Note_on_c, 12, 60, 0
19, 424740, Note_on_c, 12, 60, 84
19, 424740, Note_on_c, 12, 64, 84
19, 424789, Note_on_c, 12, 60, 0
19, 424789, Note_on_c, 12, 64, 0
19, 424800, Note_on_c, 12, 60, 84
19, 424800, Note_on_c, 12, 64, 84
19, 424849, Note_on_c, 12, 60, 0
19, 424849, Note_on_c, 12, 64, 0
19, 424860, Note_on_c, 12, 60, 84
19, 424860, Note_on_c, 12, 64, 84
19, 424909, Note_on_c, 12, 60, 0
19, 424909, Note_on_c, 12, 64, 0
19, 424920, Note_on_c, 12, 60, 84
19, 424920, Note_on_c, 12, 64, 84
19, 424969, Note_on_c, 12, 60, 0
19, 424969, Note_on_c, 12, 64, 0
19, 424980, Note_on_c, 12, 60, 84
19, 424980, Note_on_c, 12, 64, 84
19, 425029, Note_on_c, 12, 60, 0
19, 425029, Note_on_c, 12, 64, 0
19, 425040, Note_on_c, 12, 64, 84
19, 425040, Note_on_c, 12, 60, 84
19, 425089, Note_on_c, 12, 64, 0
19, 425089, Note_on_c, 12, 60, 0
19, 425100, Note_on_c, 12, 64, 84
19, 425100, Note_on_c, 12, 60, 84
19, 425149, Note_on_c, 12, 64, 0
19, 425149, Note_on_c, 12, 60, 0
19, 425160, Note_on_c, 12, 64, 84
19, 425160, Note_on_c, 12, 60, 84
19, 425209, Note_on_c, 12, 64, 0
19, 425209, Note_on_c, 12, 60, 0
19, 425220, Note_on_c, 12, 64, 84
19, 425220, Note_on_c, 12, 60, 84
19, 425269, Note_on_c, 12, 64, 0
19, 425269, Note_on_c, 12, 60, 0
19, 425280, Note_on_c, 12, 64, 84
19, 425280, Note_on_c, 12, 60, 84
19, 425329, Note_on_c, 12, 64, 0
19, 425329, Note_on_c, 12, 60, 0
19, 425340, Note_on_c, 12, 60, 84
19, 425340, Note_on_c, 12, 64, 84
19, 425389, Note_on_c, 12, 60, 0
19, 425389, Note_on_c, 12, 64, 0
19, 425400, Note_on_c, 12, 64, 84
19, 425400, Note_on_c, 12, 60, 84
19, 425449, Note_on_c, 12, 64, 0
19, 425449, Note_on_c, 12, 60, 0
19, 425460, Note_on_c, 12, 60, 84
19, 425460, Note_on_c, 12, 64, 84
19, 425509, Note_on_c, 12, 60, 0
19, 425509, Note_on_c, 12, 64, 0
19, 425520, Note_on_c, 12, 60, 84
19, 425520, Note_on_c, 12, 64, 84
19, 425569, Note_on_c, 12, 60, 0
19, 425569, Note_on_c, 12, 64, 0
19, 425580, Note_on_c, 12, 60, 84
19, 425580, Note_on_c, 12, 64, 84
19, 425629, Note_on_c, 12, 60, 0
19, 425629, Note_on_c, 12, 64, 0
19, 425640, Note_on_c, 12, 60, 84
19, 425640, Note_on_c, 12, 64, 84
19, 425689, Note_on_c, 12, 60, 0
19, 425689, Note_on_c, 12, 64, 0
19, 425700, Note_on_c, 12, 60, 84
19, 425700, Note_on_c, 12, 64, 84
19, 425749, Note_on_c, 12, 60, 0
19, 425749, Note_on_c, 12, 64, 0
19, 425760, Note_on_c, 12, 64, 84
19, 425760, Note_on_c, 12, 60, 84
19, 425809, Note_on_c, 12, 64, 0
19, 425809, Note_on_c, 12, 60, 0
19, 425820, Note_on_c, 12, 64, 84
19, 425820, Note_on_c, 12, 60, 84
19, 425869, Note_on_c, 12, 64, 0
19, 425869, Note_on_c, 12, 60, 0
19, 425880, Note_on_c, 12, 60, 84
19, 425880, Note_on_c, 12, 64, 84
19, 425929, Note_on_c, 12, 60, 0
19, 425929, Note_on_c, 12, 64, 0
19, 425940, Note_on_c, 12, 60, 84
19, 425940, Note_on_c, 12, 64, 84
19, 425989, Note_on_c, 12, 60, 0
19, 425989, Note_on_c, 12, 64, 0
19, 426000, Note_on_c, 12, 64, 84
19, 426000, Note_on_c, 12, 60, 84
19, 426049, Note_on_c, 12, 64, 0
19, 426049, Note_on_c, 12, 60, 0
19, 426060, Note_on_c, 12, 64, 84
19, 426060, Note_on_c, 12, 60, 84
19, 426109, Note_on_c, 12, 64, 0
19, 426109, Note_on_c, 12, 60, 0
19, 426120, Note_on_c, 12, 60, 84
19, 426120, Note_on_c, 12, 64, 84
19, 426169, Note_on_c, 12, 60, 0
19, 426169, Note_on_c, 12, 64, 0
19, 426180, Note_on_c, 12, 60, 84
19, 426180, Note_on_c, 12, 64, 84
19, 426229, Note_on_c, 12, 60, 0
19, 426229, Note_on_c, 12, 64, 0
19, 426240, Note_on_c, 12, 64, 84
19, 426240, Note_on_c, 12, 60, 84
19, 426289, Note_on_c, 12, 64, 0
19, 426289, Note_on_c, 12, 60, 0
19, 426300, Note_on_c, 12, 60, 84
19, 426300, Note_on_c, 12, 64, 84
19, 426349, Note_on_c, 12, 60, 0
19, 426349, Note_on_c, 12, 64, 0
19, 426360, Note_on_c, 12, 60, 84
19, 426360, Note_on_c, 12, 64, 84
19, 426409, Note_on_c, 12, 60, 0
19, 426409, Note_on_c, 12, 64, 0
19, 426420, Note_on_c, 12, 64, 84
19, 426420, Note_on_c, 12, 60, 84
19, 426469, Note_on_c, 12, 64, 0
19, 426469, Note_on_c, 12, 60, 0
19, 426480, Note_on_c, 12, 60, 84
19, 426480, Note_on_c, 12, 64, 84
19, 426529, Note_on_c, 12, 60, 0
19, 426529, Note_on_c, 12, 64, 0
19, 426540, Note_on_c, 12, 64, 84
19, 426540, Note_on_c, 12, 60, 84
19, 426589, Note_on_c, 12, 64, 0
19, 426589, Note_on_c, 12, 60, 0
19, 426600, Note_on_c, 12, 60, 84
19, 426600, Note_on_c, 12, 64, 84
19, 426649, Note_on_c, 12, 60, 0
19, 426649, Note_on_c, 12, 64, 0
19, 426660, Note_on_c, 12, 60, 84
19, 426660, Note_on_c, 12, 64, 84
19, 426709, Note_on_c, 12, 60, 0
19, 426709, Note_on_c, 12, 64, 0
19, 426720, Note_on_c, 12, 64, 84
19, 426720, Note_on_c, 12, 60, 84
19, 426769, Note_on_c, 12, 64, 0
19, 426769, Note_on_c, 12, 60, 0
19, 426780, Note_on_c, 12, 64, 84
19, 426780, Note_on_c, 12, 60, 84
19, 426829, Note_on_c, 12, 64, 0
19, 426829, Note_on_c, 12, 60, 0
19, 426840, Note_on_c, 12, 64, 84
19, 426840, Note_on_c, 12, 60, 84
19, 426889, Note_on_c, 12, 64, 0
19, 426889, Note_on_c, 12, 60, 0
19, 426900, Note_on_c, 12, 60, 84
19, 426900, Note_on_c, 12, 64, 84
19, 426949, Note_on_c, 12, 60, 0
19, 426949, Note_on_c, 12, 64, 0
19, 426960, Note_on_c, 12, 64, 84
19, 426960, Note_on_c, 12, 60, 84
19, 427009, Note_on_c, 12, 64, 0
19, 427009, Note_on_c, 12, 60, 0
19, 427020, Note_on_c, 12, 60, 84
19, 427020, Note_on_c, 12, 64, 84
19, 427069, Note_on_c, 12, 60, 0
19, 427069, Note_on_c, 12, 64, 0
19, 427080, Note_on_c, 12, 64, 84
19, 427080, Note_on_c, 12, 60, 84
19, 427129, Note_on_c, 12, 64, 0
19, 427129, Note_on_c, 12, 60, 0
19, 427140, Note_on_c, 12, 64, 84
19, 427140, Note_on_c, 12, 60, 84
19, 427189, Note_on_c, 12, 64, 0
19, 427189, Note_on_c, 12, 60, 0
19, 427200, Note_on_c, 12, 60, 84
19, 427200, Note_on_c, 12, 64, 84
19, 427249, Note_on_c, 12, 60, 0
19, 427249, Note_on_c, 12, 64, 0
19, 427260, Note_on_c, 12, 64, 84
19, 427260, Note_on_c, 12, 60, 84
19, 427309, Note_on_c, 12, 64, 0
19, 427309, Note_on_c, 12, 60, 0
19, 427320, Note_on_c, 12, 64, 84
19, 427320, Note_on_c, 12, 60, 84
19, 427369, Note_on_c, 12, 64, 0
19, 427369, Note_on_c, 12, 60, 0
19, 427380, Note_on_c, 12, 64, 84
19, 427380, Note_on_c, 12, 60, 84
19, 427429, Note_on_c, 12, 64, 0
19, 427429, Note_on_c, 12, 60, 0
19, 427440, Note_on_c, 12, 64, 84
19, 427440, Note_on_c, 12, 60, 84
19, 427489, Note_on_c, 12, 64, 0
19, 427489, Note_on_c, 12, 60, 0
19, 427500, Note_on_c, 12, 60, 84
19, 427500, Note_on_c, 12, 64, 84
19, 427549, Note_on_c, 12, 60, 0
19, 427549, Note_on_c, 12, 64, 0
19, 427560, Note_on_c, 12, 64, 84
19, 427560, Note_on_c, 12, 60, 84
19, 427609, Note_on_c, 12, 64, 0
19, 427609, Note_on_c, 12, 60, 0
19, 427620, Note_on_c, 12, 60, 84
19, 427620, Note_on_c, 12, 64, 84
19, 427669, Note_on_c, 12, 60, 0
19, 427669, Note_on_c, 12, 64, 0
19, 427680, Note_on_c, 12, 64, 84
19, 427680, Note_on_c, 12, 60, 84
19, 427729, Note_on_c, 12, 64, 0
19, 427729, Note_on_c, 12, 60, 0
19, 427740, Note_on_c, 12, 72, 84
19, 427740, Note_on_c, 12, 64, 84
19, 427789, Note_on_c, 12, 72, 0
19, 427789, Note_on_c, 12, 64, 0
19, 427800, Note_on_c, 12, 72, 84
19, 427800, Note_on_c, 12, 64, 84
19, 427849, Note_on_c, 12, 72, 0
19, 427849, Note_on_c, 12, 64, 0
19, 427860, Note_on_c, 12, 72, 84
19, 427860, Note_on_c, 12, 64, 84
19, 427909, Note_on_c, 12, 72, 0
19, 427909, Note_on_c, 12, 64, 0
19, 427920, Note_on_c, 12, 64, 84
19, 427920, Note_on_c, 12, 72, 84
19, 427969, Note_on_c, 12, 64, 0
19, 427969, Note_on_c, 12, 72, 0
19, 427980, Note_on_c, 12, 64, 84
19, 427980, Note_on_c, 12, 72, 84
19, 428029, Note_on_c, 12, 64, 0
19, 428029, Note_on_c, 12, 72, 0
19, 428040, Note_on_c, 12, 72, 84
19, 428040, Note_on_c, 12, 64, 84
19, 428089, Note_on_c, 12, 72, 0
19, 428089, Note_on_c, 12, 64, 0
19, 428100, Note_on_c, 12, 72, 84
19, 428100, Note_on_c, 12, 64, 84
19, 428149, Note_on_c, 12, 72, 0
19, 428149, Note_on_c, 12, 64, 0
19, 428160, Note_on_c, 12, 64, 84
19, 428160, Note_on_c, 12, 72, 84
19, 428209, Note_on_c, 12, 64, 0
19, 428209, Note_on_c, 12, 72, 0
19, 428220, Note_on_c, 12, 64, 84
19, 428220, Note_on_c, 12, 72, 84
19, 428269, Note_on_c, 12, 64, 0
19, 428269, Note_on_c, 12, 72, 0
19, 428280, Note_on_c, 12, 72, 84
19, 428280, Note_on_c, 12, 64, 84
19, 428329, Note_on_c, 12, 72, 0
19, 428329, Note_on_c, 12, 64, 0
19, 428340, Note_on_c, 12, 64, 84
19, 428340, Note_on_c, 12, 72, 84
19, 428389, Note_on_c, 12, 64, 0
19, 428389, Note_on_c, 12, 72, 0
19, 428400, Note_on_c, 12, 72, 84
19, 428400, Note_on_c, 12, 64, 84
19, 428449, Note_on_c, 12, 72, 0
19, 428449, Note_on_c, 12, 64, 0
19, 428460, Note_on_c, 12, 72, 84
19, 428460, Note_on_c, 12, 64, 84
19, 428509, Note_on_c, 12, 72, 0
19, 428509, Note_on_c, 12, 64, 0
19, 428520, Note_on_c, 12, 64, 84
19, 428520, Note_on_c, 12, 72, 84
19, 428569, Note_on_c, 12, 64, 0
19, 428569, Note_on_c, 12, 72, 0
19, 428580, Note_on_c, 12, 72, 84
19, 428580, Note_on_c, 12, 64, 84
19, 428629, Note_on_c, 12, 72, 0
19, 428629, Note_on_c, 12, 64, 0
19, 428640, Note_on_c, 12, 72, 84
19, 428640, Note_on_c, 12, 64, 84
19, 428689, Note_on_c, 12, 72, 0
19, 428689, Note_on_c, 12, 64, 0
19, 428700, Note_on_c, 12, 72, 84
19, 428700, Note_on_c, 12, 64, 84
19, 428749, Note_on_c, 12, 72, 0
19, 428749, Note_on_c, 12, 64, 0
19, 428760, Note_on_c, 12, 64, 84
19, 428760, Note_on_c, 12, 72, 84
19, 428809, Note_on_c, 12, 64, 0
19, 428809, Note_on_c, 12, 72, 0
19, 428820, Note_on_c, 12, 64, 84
19, 428820, Note_on_c, 12, 72, 84
19, 428869, Note_on_c, 12, 64, 0
19, 428869, Note_on_c, 12, 72, 0
19, 428880, Note_on_c, 12, 72, 84
19, 428880, Note_on_c, 12, 64, 84
19, 428929, Note_on_c, 12, 72, 0
19, 428929, Note_on_c, 12, 64, 0
19, 428940, Note_on_c, 12, 64, 84
19, 428940, Note_on_c, 12, 72, 84
19, 428989, Note_on_c, 12, 64, 0
19, 428989, Note_on_c, 12, 72, 0
19, 429000, Note_on_c, 12, 72, 84
19, 429000, Note_on_c, 12, 64, 84
19, 429049, Note_on_c, 12, 72, 0
19, 429049, Note_on_c, 12, 64, 0
19, 429060, Note_on_c, 12, 72, 84
19, 429060, Note_on_c, 12, 64, 84
19, 429109, Note_on_c, 12, 72, 0
19, 429109, Note_on_c, 12, 64, 0
19, 429120, Note_on_c, 12, 64, 84
19, 429120, Note_on_c, 12, 72, 84
19, 429169, Note_on_c, 12, 64, 0
19, 429169, Note_on_c, 12, 72, 0
19, 429180, Note_on_c, 12, 64, 84
19, 429180, Note_on_c, 12, 72, 84
19, 429229, Note_on_c, 12, 64, 0
19, 429229, Note_on_c, 12, 72, 0
19, 429240, Note_on_c, 12, 64, 84
19, 429240, Note_on_c, 12, 72, 84
19, 429289, Note_on_c, 12, 64, 0
19, 429289, Note_on_c, 12, 72, 0
19, 429300, Note_on_c, 12, 64, 84
19, 429300, Note_on_c, 12, 72, 84
19, 429349, Note_on_c, 12, 64, 0
19, 429349, Note_on_c, 12, 72, 0
19, 429360, Note_on_c, 12, 64, 84
19, 429360, Note_on_c, 12, 72, 84
19, 429409, Note_on_c, 12, 64, 0
19, 429409, Note_on_c, 12, 72, 0
19, 429420, Note_on_c, 12, 72, 84
19, 429420, Note_on_c, 12, 64, 84
19, 429469, Note_on_c, 12, 72, 0
19, 429469, Note_on_c, 12, 64, 0
19, 429480, Note_on_c, 12, 72, 84
19, 429480, Note_on_c, 12, 64, 84
19, 429529, Note_on_c, 12, 72, 0
19, 429529, Note_on_c, 12, 64, 0
19, 429540, Note_on_c, 12, 64, 84
19, 429540, Note_on_c, 12, 72, 84
19, 429589, Note_on_c, 12, 64, 0
19, 429589, Note_on_c, 12, 72, 0
19, 429600, Note_on_c, 12, 64, 84
19, 429600, Note_on_c, 12, 72, 84
19, 429719, Note_on_c, 12, 64, 0
19, 429719, Note_on_c, 12, 72, 0
19, 430080, Note_on_c, 12, 67, 84
19, 430080, Note_on_c, 12, 55, 84
19, 430080, Note_on_c, 12, 74, 84
19, 430199, Note_on_c, 12, 67, 0
19, 430199, Note_on_c, 12, 55, 0
19, 430199, Note_on_c, 12, 74, 0
19, 430560, Note_on_c, 12, 55, 84
19, 430560, Note_on_c, 12, 76, 84
19, 430560, Note_on_c, 12, 67, 84
19, 430679, Note_on_c, 12, 55, 0
19, 430679, Note_on_c, 12, 76, 0
19, 430679, Note_on_c, 12, 67, 0
19, 431040, Note_on_c, 12, 71, 84
19, 431040, Note_on_c, 12, 55, 84
19, 431040, Note_on_c, 12, 79, 84
19, 431040, Note_on_c, 12, 62, 84
19, 431159, Note_on_c, 12, 71, 0
19, 431159, Note_on_c, 12, 55, 0
19, 431159, Note_on_c, 12, 79, 0
19, 431159, Note_on_c, 12, 62, 0
19, 431520, Note_on_c, 12, 76, 84
19, 431520, Note_on_c, 12, 55, 84
19, 431520, Note_on_c, 12, 72, 84
19, 431520, Note_on_c, 12, 64, 84
19, 431639, Note_on_c, 12, 76, 0
19, 431639, Note_on_c, 12, 55, 0
19, 431639, Note_on_c, 12, 72, 0
19, 431639, Note_on_c, 12, 64, 0
19, 432000, Note_on_c, 12, 74, 84
19, 432000, Note_on_c, 12, 67, 84
19, 432000, Note_on_c, 12, 55, 84
19, 432119, Note_on_c, 12, 74, 0
19, 432119, Note_on_c, 12, 67, 0
19, 432119, Note_on_c, 12, 55, 0
19, 432480, Note_on_c, 12, 55, 84
19, 432480, Note_on_c, 12, 76, 84
19, 432480, Note_on_c, 12, 67, 84
19, 432599, Note_on_c, 12, 55, 0
19, 432599, Note_on_c, 12, 76, 0
19, 432599, Note_on_c, 12, 67, 0
19, 432960, Note_on_c, 12, 79, 84
19, 432960, Note_on_c, 12, 55, 84
19, 432960, Note_on_c, 12, 71, 84
19, 432960, Note_on_c, 12, 62, 84
19, 433079, Note_on_c, 12, 79, 0
19, 433079, Note_on_c, 12, 55, 0
19, 433079, Note_on_c, 12, 71, 0
19, 433079, Note_on_c, 12, 62, 0
19, 433440, Note_on_c, 12, 64, 84
19, 433440, Note_on_c, 12, 72, 84
19, 433440, Note_on_c, 12, 55, 84
19, 433440, Note_on_c, 12, 76, 84
19, 433559, Note_on_c, 12, 64, 0
19, 433559, Note_on_c, 12, 72, 0
19, 433559, Note_on_c, 12, 55, 0
19, 433559, Note_on_c, 12, 76, 0
19, 433920, Note_on_c, 12, 71, 84
19, 433920, Note_on_c, 12, 79, 84
19, 433920, Note_on_c, 12, 55, 84
19, 433920, Note_on_c, 12, 62, 84
19, 434039, Note_on_c, 12, 71, 0
19, 434039, Note_on_c, 12, 79, 0
19, 434039, Note_on_c, 12, 55, 0
19, 434039, Note_on_c, 12, 62, 0
19, 434400, Note_on_c, 12, 76, 84
19, 434400, Note_on_c, 12, 64, 84
19, 434400, Note_on_c, 12, 72, 84
19, 434400, Note_on_c, 12, 55, 84
19, 434519, Note_on_c, 12, 76, 0
19, 434519, Note_on_c, 12, 64, 0
19, 434519, Note_on_c, 12, 72, 0
19, 434519, Note_on_c, 12, 55, 0
19, 434880, Note_on_c, 12, 55, 84
19, 434880, Note_on_c, 12, 79, 84
19, 434880, Note_on_c, 12, 71, 84
19, 434880, Note_on_c, 12, 62, 84
19, 434999, Note_on_c, 12, 55, 0
19, 434999, Note_on_c, 12, 79, 0
19, 434999, Note_on_c, 12, 71, 0
19, 434999, Note_on_c, 12, 62, 0
19, 435360, Note_on_c, 12, 84, 84
19, 435409, Note_on_c, 12, 84, 0
19, 435420, Note_on_c, 12, 84, 84
19, 435469, Note_on_c, 12, 84, 0
19, 435480, Note_on_c, 12, 84, 84
19, 435529, Note_on_c, 12, 84, 0
19, 435540, Note_on_c, 12, 84, 84
19, 435589, Note_on_c, 12, 84, 0
19, 435600, Note_on_c, 12, 84, 84
19, 435649, Note_on_c, 12, 84, 0
19, 435660, Note_on_c, 12, 84, 84
19, 435709, Note_on_c, 12, 84, 0
19, 435720, Note_on_c, 12, 84, 84
19, 435769, Note_on_c, 12, 84, 0
19, 435780, Note_on_c, 12, 84, 84
19, 435829, Note_on_c, 12, 84, 0
19, 435840, Note_on_c, 12, 84, 84
19, 435889, Note_on_c, 12, 84, 0
19, 435900, Note_on_c, 12, 84, 84
19, 435949, Note_on_c, 12, 84, 0
19, 435960, Note_on_c, 12, 84, 84
19, 436009, Note_on_c, 12, 84, 0
19, 436020, Note_on_c, 12, 84, 84
19, 436069, Note_on_c, 12, 84, 0
19, 436080, Note_on_c, 12, 79, 84
19, 436129, Note_on_c, 12, 79, 0
19, 436140, Note_on_c, 12, 79, 84
19, 436189, Note_on_c, 12, 79, 0
19, 436200, Note_on_c, 12, 76, 84
19, 436249, Note_on_c, 12, 76, 0
19, 436260, Note_on_c, 12, 76, 84
19, 436309, Note_on_c, 12, 76, 0
19, 436320, Note_on_c, 12, 72, 84
19, 436369, Note_on_c, 12, 72, 0
19, 436380, Note_on_c, 12, 72, 84
19, 436429, Note_on_c, 12, 72, 0
19, 436440, Note_on_c, 12, 72, 84
19, 436489, Note_on_c, 12, 72, 0
19, 436500, Note_on_c, 12, 72, 84
19, 436549, Note_on_c, 12, 72, 0
19, 436560, Note_on_c, 12, 72, 84
19, 436609, Note_on_c, 12, 72, 0
19, 436620, Note_on_c, 12, 72, 84
19, 436669, Note_on_c, 12, 72, 0
19, 436680, Note_on_c, 12, 72, 84
19, 436729, Note_on_c, 12, 72, 0
19, 436740, Note_on_c, 12, 72, 84
19, 436789, Note_on_c, 12, 72, 0
19, 436800, Note_on_c, 12, 72, 84
19, 436849, Note_on_c, 12, 72, 0
19, 436860, Note_on_c, 12, 72, 84
19, 436909, Note_on_c, 12, 72, 0
19, 436920, Note_on_c, 12, 72, 84
19, 436969, Note_on_c, 12, 72, 0
19, 436980, Note_on_c, 12, 72, 84
19, 437029, Note_on_c, 12, 72, 0
19, 437040, Note_on_c, 12, 67, 84
19, 437089, Note_on_c, 12, 67, 0
19, 437100, Note_on_c, 12, 67, 84
19, 437149, Note_on_c, 12, 67, 0
19, 437160, Note_on_c, 12, 64, 84
19, 437209, Note_on_c, 12, 64, 0
19, 437220, Note_on_c, 12, 64, 84
19, 437269, Note_on_c, 12, 64, 0
19, 437280, Note_on_c, 12, 60, 84
19, 437399, Note_on_c, 12, 60, 0
19, 437640, Note_on_c, 12, 64, 84
19, 437739, Note_on_c, 12, 64, 0
19, 437760, Note_on_c, 12, 64, 84
19, 437859, Note_on_c, 12, 64, 0
19, 437880, Note_on_c, 12, 64, 84
19, 437979, Note_on_c, 12, 64, 0
19, 438000, Note_on_c, 12, 64, 84
19, 438099, Note_on_c, 12, 64, 0
19, 438120, Note_on_c, 12, 64, 84
19, 438219, Note_on_c, 12, 64, 0
19, 438240, Note_on_c, 12, 64, 84
19, 438359, Note_on_c, 12, 64, 0
19, 438600, Note_on_c, 12, 72, 84
19, 438699, Note_on_c, 12, 72, 0
19, 438720, Note_on_c, 12, 72, 84
19, 438819, Note_on_c, 12, 72, 0
19, 438840, Note_on_c, 12, 72, 84
19, 438939, Note_on_c, 12, 72, 0
19, 438960, Note_on_c, 12, 72, 84
19, 439059, Note_on_c, 12, 72, 0
19, 439080, Note_on_c, 12, 72, 84
19, 439179, Note_on_c, 12, 72, 0
19, 439200, Note_on_c, 12, 72, 84
19, 439319, Note_on_c, 12, 72, 0
19, 439440, Note_on_c, 12, 64, 84
19, 439539, Note_on_c, 12, 64, 0
19, 439560, Note_on_c, 12, 64, 84
19, 439659, Note_on_c, 12, 64, 0
19, 439680, Note_on_c, 12, 64, 84
19, 439799, Note_on_c, 12, 64, 0
19, 439920, Note_on_c, 12, 72, 84
19, 440019, Note_on_c, 12, 72, 0
19, 440040, Note_on_c, 12, 72, 84
19, 440139, Note_on_c, 12, 72, 0
19, 440160, Note_on_c, 12, 72, 84
19, 440279, Note_on_c, 12, 72, 0
19, 440400, Note_on_c, 12, 76, 84
19, 440499, Note_on_c, 12, 76, 0
19, 440520, Note_on_c, 12, 76, 84
19, 440619, Note_on_c, 12, 76, 0
19, 440640, Note_on_c, 12, 76, 84
19, 440759, Note_on_c, 12, 76, 0
19, 440880, Note_on_c, 12, 76, 84
19, 440979, Note_on_c, 12, 76, 0
19, 441000, Note_on_c, 12, 76, 84
19, 441099, Note_on_c, 12, 76, 0
19, 441120, Note_on_c, 12, 76, 84
19, 441169, Note_on_c, 12, 76, 0
19, 441180, Note_on_c, 12, 76, 84
19, 441229, Note_on_c, 12, 76, 0
19, 441240, Note_on_c, 12, 76, 84
19, 441289, Note_on_c, 12, 76, 0
19, 441300, Note_on_c, 12, 76, 84
19, 441349, Note_on_c, 12, 76, 0
19, 441360, Note_on_c, 12, 76, 84
19, 441409, Note_on_c, 12, 76, 0
19, 441420, Note_on_c, 12, 76, 84
19, 441469, Note_on_c, 12, 76, 0
19, 441480, Note_on_c, 12, 76, 84
19, 441529, Note_on_c, 12, 76, 0
19, 441540, Note_on_c, 12, 76, 84
19, 441589, Note_on_c, 12, 76, 0
19, 441600, Note_on_c, 12, 76, 84
19, 441649, Note_on_c, 12, 76, 0
19, 441660, Note_on_c, 12, 76, 84
19, 441709, Note_on_c, 12, 76, 0
19, 441720, Note_on_c, 12, 76, 84
19, 441769, Note_on_c, 12, 76, 0
19, 441780, Note_on_c, 12, 76, 84
19, 441829, Note_on_c, 12, 76, 0
19, 441840, Note_on_c, 12, 76, 84
19, 441889, Note_on_c, 12, 76, 0
19, 441900, Note_on_c, 12, 76, 84
19, 441949, Note_on_c, 12, 76, 0
19, 441960, Note_on_c, 12, 76, 84
19, 442009, Note_on_c, 12, 76, 0
19, 442020, Note_on_c, 12, 76, 84
19, 442069, Note_on_c, 12, 76, 0
19, 442080, Note_on_c, 12, 84, 84
19, 442080, Note_on_c, 12, 76, 84
19, 442129, Note_on_c, 12, 84, 0
19, 442129, Note_on_c, 12, 76, 0
19, 442140, Note_on_c, 12, 84, 84
19, 442140, Note_on_c, 12, 76, 84
19, 442189, Note_on_c, 12, 84, 0
19, 442189, Note_on_c, 12, 76, 0
19, 442200, Note_on_c, 12, 84, 84
19, 442200, Note_on_c, 12, 76, 84
19, 442249, Note_on_c, 12, 84, 0
19, 442249, Note_on_c, 12, 76, 0
19, 442260, Note_on_c, 12, 84, 84
19, 442260, Note_on_c, 12, 76, 84
19, 442309, Note_on_c, 12, 84, 0
19, 442309, Note_on_c, 12, 76, 0
19, 442320, Note_on_c, 12, 84, 84
19, 442320, Note_on_c, 12, 76, 84
19, 442369, Note_on_c, 12, 84, 0
19, 442369, Note_on_c, 12, 76, 0
19, 442380, Note_on_c, 12, 76, 84
19, 442380, Note_on_c, 12, 84, 84
19, 442429, Note_on_c, 12, 76, 0
19, 442429, Note_on_c, 12, 84, 0
19, 442440, Note_on_c, 12, 76, 84
19, 442440, Note_on_c, 12, 84, 84
19, 442489, Note_on_c, 12, 76, 0
19, 442489, Note_on_c, 12, 84, 0
19, 442500, Note_on_c, 12, 76, 84
19, 442500, Note_on_c, 12, 84, 84
19, 442549, Note_on_c, 12, 76, 0
19, 442549, Note_on_c, 12, 84, 0
19, 442560, Note_on_c, 12, 84, 84
19, 442560, Note_on_c, 12, 76, 84
19, 442609, Note_on_c, 12, 84, 0
19, 442609, Note_on_c, 12, 76, 0
19, 442620, Note_on_c, 12, 76, 84
19, 442620, Note_on_c, 12, 84, 84
19, 442669, Note_on_c, 12, 76, 0
19, 442669, Note_on_c, 12, 84, 0
19, 442680, Note_on_c, 12, 76, 84
19, 442680, Note_on_c, 12, 84, 84
19, 442729, Note_on_c, 12, 76, 0
19, 442729, Note_on_c, 12, 84, 0
19, 442740, Note_on_c, 12, 76, 84
19, 442740, Note_on_c, 12, 84, 84
19, 442789, Note_on_c, 12, 76, 0
19, 442789, Note_on_c, 12, 84, 0
19, 442800, Note_on_c, 12, 76, 84
19, 442800, Note_on_c, 12, 84, 84
19, 442849, Note_on_c, 12, 76, 0
19, 442849, Note_on_c, 12, 84, 0
19, 442860, Note_on_c, 12, 76, 84
19, 442860, Note_on_c, 12, 84, 84
19, 442909, Note_on_c, 12, 76, 0
19, 442909, Note_on_c, 12, 84, 0
19, 442920, Note_on_c, 12, 76, 84
19, 442920, Note_on_c, 12, 84, 84
19, 442969, Note_on_c, 12, 76, 0
19, 442969, Note_on_c, 12, 84, 0
19, 442980, Note_on_c, 12, 84, 84
19, 442980, Note_on_c, 12, 76, 84
19, 443029, Note_on_c, 12, 84, 0
19, 443029, Note_on_c, 12, 76, 0
19, 443040, Note_on_c, 12, 76, 84
19, 443040, Note_on_c, 12, 84, 84
19, 443159, Note_on_c, 12, 76, 0
19, 443159, Note_on_c, 12, 84, 0
19, 444000, Note_on_c, 12, 67, 84
19, 444000, Note_on_c, 12, 60, 84
19, 444000, Note_on_c, 12, 84, 84
19, 444000, Note_on_c, 12, 76, 84
19, 444119, Note_on_c, 12, 67, 0
19, 444119, Note_on_c, 12, 60, 0
19, 444119, Note_on_c, 12, 84, 0
19, 444119, Note_on_c, 12, 76, 0
19, 444960, Note_on_c, 12, 72, 84
19, 444960, Note_on_c, 12, 55, 84
19, 444960, Note_on_c, 12, 64, 84
19, 445079, Note_on_c, 12, 72, 0
19, 445079, Note_on_c, 12, 55, 0
19, 445079, Note_on_c, 12, 64, 0
19, 445920, Note_on_c, 12, 76, 84
19, 445920, Note_on_c, 12, 60, 84
19, 445920, Note_on_c, 12, 84, 84
19, 445920, Note_on_c, 12, 67, 84
19, 446039, Note_on_c, 12, 76, 0
19, 446039, Note_on_c, 12, 60, 0
19, 446039, Note_on_c, 12, 84, 0
19, 446039, Note_on_c, 12, 67, 0
19, 446400, Note_on_c, 12, 84, 84
19, 446400, Note_on_c, 12, 67, 84
19, 446400, Note_on_c, 12, 76, 84
19, 446400, Note_on_c, 12, 60, 84
19, 446519, Note_on_c, 12, 84, 0
19, 446519, Note_on_c, 12, 67, 0
19, 446519, Note_on_c, 12, 76, 0
19, 446519, Note_on_c, 12, 60, 0
19, 446880, Note_on_c, 12, 67, 84
19, 446880, Note_on_c, 12, 84, 84
19, 446880, Note_on_c, 12, 60, 84
19, 446880, Note_on_c, 12, 76, 84
19, 446999, Note_on_c, 12, 67, 0
19, 446999, Note_on_c, 12, 84, 0
19, 446999, Note_on_c, 12, 60, 0
19, 446999, Note_on_c, 12, 76, 0
19, 447840, Note_on_c, 12, 76, 84
19, 447840, Note_on_c, 12, 84, 84
19, 447840, Note_on_c, 12, 67, 84
19, 447840, Note_on_c, 12, 60, 84
19, 447959, Note_on_c, 12, 76, 0
19, 447959, Note_on_c, 12, 84, 0
19, 447959, Note_on_c, 12, 67, 0
19, 447959, Note_on_c, 12, 60, 0
19, 448800, Note_on_c, 12, 60, 84
19, 451199, Note_on_c, 12, 60, 0
19, 451199, End_track
20, 0, Start_track
20, 0, Title_t, "Viola "
20, 0, MIDI_port, 0
20, 0, Program_c, 13, 48
20, 0, Control_c, 13, 11, 127
20, 0, Control_c, 13, 10, 70
20, 0, Control_c, 13, 7, 96
20, 0, Note_on_c, 13, 60, 84
20, 0, Note_on_c, 13, 48, 84
20, 51, Note_on_c, 13, 60, 0
20, 51, Note_on_c, 13, 48, 0
20, 60, Note_on_c, 13, 48, 84
20, 60, Note_on_c, 13, 60, 84
20, 111, Note_on_c, 13, 48, 0
20, 111, Note_on_c, 13, 60, 0
20, 120, Note_on_c, 13, 48, 84
20, 120, Note_on_c, 13, 60, 84
20, 171, Note_on_c, 13, 48, 0
20, 171, Note_on_c, 13, 60, 0
20, 180, Note_on_c, 13, 48, 84
20, 180, Note_on_c, 13, 60, 84
20, 231, Note_on_c, 13, 48, 0
20, 231, Note_on_c, 13, 60, 0
20, 240, Note_on_c, 13, 48, 84
20, 240, Note_on_c, 13, 60, 84
20, 291, Note_on_c, 13, 48, 0
20, 291, Note_on_c, 13, 60, 0
20, 300, Note_on_c, 13, 48, 84
20, 300, Note_on_c, 13, 60, 84
20, 351, Note_on_c, 13, 48, 0
20, 351, Note_on_c, 13, 60, 0
20, 360, Note_on_c, 13, 60, 84
20, 360, Note_on_c, 13, 48, 84
20, 411, Note_on_c, 13, 60, 0
20, 411, Note_on_c, 13, 48, 0
20, 420, Note_on_c, 13, 48, 84
20, 420, Note_on_c, 13, 60, 84
20, 471, Note_on_c, 13, 48, 0
20, 471, Note_on_c, 13, 60, 0
20, 480, Note_on_c, 13, 48, 84
20, 480, Note_on_c, 13, 60, 84
20, 531, Note_on_c, 13, 48, 0
20, 531, Note_on_c, 13, 60, 0
20, 540, Note_on_c, 13, 60, 84
20, 540, Note_on_c, 13, 48, 84
20, 591, Note_on_c, 13, 60, 0
20, 591, Note_on_c, 13, 48, 0
20, 600, Note_on_c, 13, 60, 84
20, 600, Note_on_c, 13, 48, 84
20, 651, Note_on_c, 13, 60, 0
20, 651, Note_on_c, 13, 48, 0
20, 660, Note_on_c, 13, 48, 84
20, 660, Note_on_c, 13, 60, 84
20, 711, Note_on_c, 13, 48, 0
20, 711, Note_on_c, 13, 60, 0
20, 720, Note_on_c, 13, 48, 84
20, 720, Note_on_c, 13, 60, 84
20, 771, Note_on_c, 13, 48, 0
20, 771, Note_on_c, 13, 60, 0
20, 780, Note_on_c, 13, 48, 84
20, 780, Note_on_c, 13, 60, 84
20, 831, Note_on_c, 13, 48, 0
20, 831, Note_on_c, 13, 60, 0
20, 840, Note_on_c, 13, 48, 84
20, 840, Note_on_c, 13, 60, 84
20, 891, Note_on_c, 13, 48, 0
20, 891, Note_on_c, 13, 60, 0
20, 900, Note_on_c, 13, 48, 84
20, 900, Note_on_c, 13, 60, 84
20, 951, Note_on_c, 13, 48, 0
20, 951, Note_on_c, 13, 60, 0
20, 960, Note_on_c, 13, 48, 84
20, 960, Note_on_c, 13, 60, 84
20, 1011, Note_on_c, 13, 48, 0
20, 1011, Note_on_c, 13, 60, 0
20, 1020, Note_on_c, 13, 48, 84
20, 1020, Note_on_c, 13, 60, 84
20, 1071, Note_on_c, 13, 48, 0
20, 1071, Note_on_c, 13, 60, 0
20, 1080, Note_on_c, 13, 60, 84
20, 1080, Note_on_c, 13, 48, 84
20, 1131, Note_on_c, 13, 60, 0
20, 1131, Note_on_c, 13, 48, 0
20, 1140, Note_on_c, 13, 48, 84
20, 1140, Note_on_c, 13, 60, 84
20, 1191, Note_on_c, 13, 48, 0
20, 1191, Note_on_c, 13, 60, 0
20, 1200, Note_on_c, 13, 60, 84
20, 1200, Note_on_c, 13, 48, 84
20, 1251, Note_on_c, 13, 60, 0
20, 1251, Note_on_c, 13, 48, 0
20, 1260, Note_on_c, 13, 48, 84
20, 1260, Note_on_c, 13, 60, 84
20, 1311, Note_on_c, 13, 48, 0
20, 1311, Note_on_c, 13, 60, 0
20, 1320, Note_on_c, 13, 60, 84
20, 1320, Note_on_c, 13, 48, 84
20, 1371, Note_on_c, 13, 60, 0
20, 1371, Note_on_c, 13, 48, 0
20, 1380, Note_on_c, 13, 48, 84
20, 1380, Note_on_c, 13, 60, 84
20, 1431, Note_on_c, 13, 48, 0
20, 1431, Note_on_c, 13, 60, 0
20, 1440, Note_on_c, 13, 60, 84
20, 1440, Note_on_c, 13, 48, 84
20, 1491, Note_on_c, 13, 60, 0
20, 1491, Note_on_c, 13, 48, 0
20, 1500, Note_on_c, 13, 48, 84
20, 1500, Note_on_c, 13, 60, 84
20, 1551, Note_on_c, 13, 48, 0
20, 1551, Note_on_c, 13, 60, 0
20, 1560, Note_on_c, 13, 48, 84
20, 1560, Note_on_c, 13, 60, 84
20, 1611, Note_on_c, 13, 48, 0
20, 1611, Note_on_c, 13, 60, 0
20, 1620, Note_on_c, 13, 48, 84
20, 1620, Note_on_c, 13, 60, 84
20, 1671, Note_on_c, 13, 48, 0
20, 1671, Note_on_c, 13, 60, 0
20, 1680, Note_on_c, 13, 50, 84
20, 1680, Note_on_c, 13, 59, 84
20, 1731, Note_on_c, 13, 50, 0
20, 1731, Note_on_c, 13, 59, 0
20, 1740, Note_on_c, 13, 50, 84
20, 1740, Note_on_c, 13, 59, 84
20, 1791, Note_on_c, 13, 50, 0
20, 1791, Note_on_c, 13, 59, 0
20, 1800, Note_on_c, 13, 59, 84
20, 1800, Note_on_c, 13, 50, 84
20, 1851, Note_on_c, 13, 59, 0
20, 1851, Note_on_c, 13, 50, 0
20, 1860, Note_on_c, 13, 50, 84
20, 1860, Note_on_c, 13, 59, 84
20, 1911, Note_on_c, 13, 50, 0
20, 1911, Note_on_c, 13, 59, 0
20, 1920, Note_on_c, 13, 48, 84
20, 1920, Note_on_c, 13, 60, 84
20, 1971, Note_on_c, 13, 48, 0
20, 1971, Note_on_c, 13, 60, 0
20, 1980, Note_on_c, 13, 60, 84
20, 1980, Note_on_c, 13, 48, 84
20, 2031, Note_on_c, 13, 60, 0
20, 2031, Note_on_c, 13, 48, 0
20, 2040, Note_on_c, 13, 48, 84
20, 2040, Note_on_c, 13, 60, 84
20, 2091, Note_on_c, 13, 48, 0
20, 2091, Note_on_c, 13, 60, 0
20, 2100, Note_on_c, 13, 48, 84
20, 2100, Note_on_c, 13, 60, 84
20, 2151, Note_on_c, 13, 48, 0
20, 2151, Note_on_c, 13, 60, 0
20, 2160, Note_on_c, 13, 59, 84
20, 2160, Note_on_c, 13, 50, 84
20, 2211, Note_on_c, 13, 59, 0
20, 2211, Note_on_c, 13, 50, 0
20, 2220, Note_on_c, 13, 59, 84
20, 2220, Note_on_c, 13, 50, 84
20, 2271, Note_on_c, 13, 59, 0
20, 2271, Note_on_c, 13, 50, 0
20, 2280, Note_on_c, 13, 50, 84
20, 2280, Note_on_c, 13, 59, 84
20, 2331, Note_on_c, 13, 50, 0
20, 2331, Note_on_c, 13, 59, 0
20, 2340, Note_on_c, 13, 59, 84
20, 2340, Note_on_c, 13, 50, 84
20, 2391, Note_on_c, 13, 59, 0
20, 2391, Note_on_c, 13, 50, 0
20, 2400, Note_on_c, 13, 60, 84
20, 2400, Note_on_c, 13, 48, 84
20, 2451, Note_on_c, 13, 60, 0
20, 2451, Note_on_c, 13, 48, 0
20, 2460, Note_on_c, 13, 60, 84
20, 2460, Note_on_c, 13, 48, 84
20, 2511, Note_on_c, 13, 60, 0
20, 2511, Note_on_c, 13, 48, 0
20, 2520, Note_on_c, 13, 60, 84
20, 2520, Note_on_c, 13, 48, 84
20, 2571, Note_on_c, 13, 60, 0
20, 2571, Note_on_c, 13, 48, 0
20, 2580, Note_on_c, 13, 48, 84
20, 2580, Note_on_c, 13, 60, 84
20, 2631, Note_on_c, 13, 48, 0
20, 2631, Note_on_c, 13, 60, 0
20, 2640, Note_on_c, 13, 50, 84
20, 2640, Note_on_c, 13, 59, 84
20, 2691, Note_on_c, 13, 50, 0
20, 2691, Note_on_c, 13, 59, 0
20, 2700, Note_on_c, 13, 59, 84
20, 2700, Note_on_c, 13, 50, 84
20, 2751, Note_on_c, 13, 59, 0
20, 2751, Note_on_c, 13, 50, 0
20, 2760, Note_on_c, 13, 50, 84
20, 2760, Note_on_c, 13, 59, 84
20, 2811, Note_on_c, 13, 50, 0
20, 2811, Note_on_c, 13, 59, 0
20, 2820, Note_on_c, 13, 50, 84
20, 2820, Note_on_c, 13, 59, 84
20, 2871, Note_on_c, 13, 50, 0
20, 2871, Note_on_c, 13, 59, 0
20, 2880, Note_on_c, 13, 48, 84
20, 2880, Note_on_c, 13, 52, 84
20, 2931, Note_on_c, 13, 48, 0
20, 2931, Note_on_c, 13, 52, 0
20, 2940, Note_on_c, 13, 52, 84
20, 2940, Note_on_c, 13, 48, 84
20, 2991, Note_on_c, 13, 52, 0
20, 2991, Note_on_c, 13, 48, 0
20, 3000, Note_on_c, 13, 52, 84
20, 3000, Note_on_c, 13, 48, 84
20, 3051, Note_on_c, 13, 52, 0
20, 3051, Note_on_c, 13, 48, 0
20, 3060, Note_on_c, 13, 48, 84
20, 3060, Note_on_c, 13, 52, 84
20, 3111, Note_on_c, 13, 48, 0
20, 3111, Note_on_c, 13, 52, 0
20, 3120, Note_on_c, 13, 52, 84
20, 3120, Note_on_c, 13, 48, 84
20, 3171, Note_on_c, 13, 52, 0
20, 3171, Note_on_c, 13, 48, 0
20, 3180, Note_on_c, 13, 52, 84
20, 3180, Note_on_c, 13, 48, 84
20, 3231, Note_on_c, 13, 52, 0
20, 3231, Note_on_c, 13, 48, 0
20, 3240, Note_on_c, 13, 52, 84
20, 3240, Note_on_c, 13, 48, 84
20, 3291, Note_on_c, 13, 52, 0
20, 3291, Note_on_c, 13, 48, 0
20, 3300, Note_on_c, 13, 52, 84
20, 3300, Note_on_c, 13, 48, 84
20, 3351, Note_on_c, 13, 52, 0
20, 3351, Note_on_c, 13, 48, 0
20, 3360, Note_on_c, 13, 52, 84
20, 3360, Note_on_c, 13, 48, 84
20, 3411, Note_on_c, 13, 52, 0
20, 3411, Note_on_c, 13, 48, 0
20, 3420, Note_on_c, 13, 52, 84
20, 3420, Note_on_c, 13, 48, 84
20, 3471, Note_on_c, 13, 52, 0
20, 3471, Note_on_c, 13, 48, 0
20, 3480, Note_on_c, 13, 48, 84
20, 3480, Note_on_c, 13, 52, 84
20, 3531, Note_on_c, 13, 48, 0
20, 3531, Note_on_c, 13, 52, 0
20, 3540, Note_on_c, 13, 52, 84
20, 3540, Note_on_c, 13, 48, 84
20, 3591, Note_on_c, 13, 52, 0
20, 3591, Note_on_c, 13, 48, 0
20, 3600, Note_on_c, 13, 48, 84
20, 3600, Note_on_c, 13, 52, 84
20, 3651, Note_on_c, 13, 48, 0
20, 3651, Note_on_c, 13, 52, 0
20, 3660, Note_on_c, 13, 52, 84
20, 3660, Note_on_c, 13, 48, 84
20, 3711, Note_on_c, 13, 52, 0
20, 3711, Note_on_c, 13, 48, 0
20, 3720, Note_on_c, 13, 52, 84
20, 3720, Note_on_c, 13, 48, 84
20, 3771, Note_on_c, 13, 52, 0
20, 3771, Note_on_c, 13, 48, 0
20, 3780, Note_on_c, 13, 52, 84
20, 3780, Note_on_c, 13, 48, 84
20, 3831, Note_on_c, 13, 52, 0
20, 3831, Note_on_c, 13, 48, 0
20, 3840, Note_on_c, 13, 50, 84
20, 3840, Note_on_c, 13, 55, 84
20, 3891, Note_on_c, 13, 50, 0
20, 3891, Note_on_c, 13, 55, 0
20, 3900, Note_on_c, 13, 50, 84
20, 3900, Note_on_c, 13, 55, 84
20, 3951, Note_on_c, 13, 50, 0
20, 3951, Note_on_c, 13, 55, 0
20, 3960, Note_on_c, 13, 55, 84
20, 3960, Note_on_c, 13, 50, 84
20, 4011, Note_on_c, 13, 55, 0
20, 4011, Note_on_c, 13, 50, 0
20, 4020, Note_on_c, 13, 50, 84
20, 4020, Note_on_c, 13, 55, 84
20, 4071, Note_on_c, 13, 50, 0
20, 4071, Note_on_c, 13, 55, 0
20, 4080, Note_on_c, 13, 50, 84
20, 4080, Note_on_c, 13, 55, 84
20, 4131, Note_on_c, 13, 50, 0
20, 4131, Note_on_c, 13, 55, 0
20, 4140, Note_on_c, 13, 55, 84
20, 4140, Note_on_c, 13, 50, 84
20, 4191, Note_on_c, 13, 55, 0
20, 4191, Note_on_c, 13, 50, 0
20, 4200, Note_on_c, 13, 50, 84
20, 4200, Note_on_c, 13, 55, 84
20, 4251, Note_on_c, 13, 50, 0
20, 4251, Note_on_c, 13, 55, 0
20, 4260, Note_on_c, 13, 55, 84
20, 4260, Note_on_c, 13, 50, 84
20, 4311, Note_on_c, 13, 55, 0
20, 4311, Note_on_c, 13, 50, 0
20, 4320, Note_on_c, 13, 55, 84
20, 4320, Note_on_c, 13, 50, 84
20, 4371, Note_on_c, 13, 55, 0
20, 4371, Note_on_c, 13, 50, 0
20, 4380, Note_on_c, 13, 50, 84
20, 4380, Note_on_c, 13, 55, 84
20, 4431, Note_on_c, 13, 50, 0
20, 4431, Note_on_c, 13, 55, 0
20, 4440, Note_on_c, 13, 55, 84
20, 4440, Note_on_c, 13, 50, 84
20, 4491, Note_on_c, 13, 55, 0
20, 4491, Note_on_c, 13, 50, 0
20, 4500, Note_on_c, 13, 50, 84
20, 4500, Note_on_c, 13, 55, 84
20, 4551, Note_on_c, 13, 50, 0
20, 4551, Note_on_c, 13, 55, 0
20, 4560, Note_on_c, 13, 55, 84
20, 4560, Note_on_c, 13, 50, 84
20, 4611, Note_on_c, 13, 55, 0
20, 4611, Note_on_c, 13, 50, 0
20, 4620, Note_on_c, 13, 55, 84
20, 4620, Note_on_c, 13, 50, 84
20, 4671, Note_on_c, 13, 55, 0
20, 4671, Note_on_c, 13, 50, 0
20, 4680, Note_on_c, 13, 50, 84
20, 4680, Note_on_c, 13, 55, 84
20, 4731, Note_on_c, 13, 50, 0
20, 4731, Note_on_c, 13, 55, 0
20, 4740, Note_on_c, 13, 55, 84
20, 4740, Note_on_c, 13, 50, 84
20, 4791, Note_on_c, 13, 55, 0
20, 4791, Note_on_c, 13, 50, 0
20, 4800, Note_on_c, 13, 52, 84
20, 4800, Note_on_c, 13, 55, 84
20, 4851, Note_on_c, 13, 52, 0
20, 4851, Note_on_c, 13, 55, 0
20, 4860, Note_on_c, 13, 52, 84
20, 4860, Note_on_c, 13, 55, 84
20, 4911, Note_on_c, 13, 52, 0
20, 4911, Note_on_c, 13, 55, 0
20, 4920, Note_on_c, 13, 52, 84
20, 4920, Note_on_c, 13, 55, 84
20, 4971, Note_on_c, 13, 52, 0
20, 4971, Note_on_c, 13, 55, 0
20, 4980, Note_on_c, 13, 55, 84
20, 4980, Note_on_c, 13, 52, 84
20, 5031, Note_on_c, 13, 55, 0
20, 5031, Note_on_c, 13, 52, 0
20, 5040, Note_on_c, 13, 52, 84
20, 5040, Note_on_c, 13, 55, 84
20, 5091, Note_on_c, 13, 52, 0
20, 5091, Note_on_c, 13, 55, 0
20, 5100, Note_on_c, 13, 52, 84
20, 5100, Note_on_c, 13, 55, 84
20, 5151, Note_on_c, 13, 52, 0
20, 5151, Note_on_c, 13, 55, 0
20, 5160, Note_on_c, 13, 55, 84
20, 5160, Note_on_c, 13, 52, 84
20, 5211, Note_on_c, 13, 55, 0
20, 5211, Note_on_c, 13, 52, 0
20, 5220, Note_on_c, 13, 52, 84
20, 5220, Note_on_c, 13, 55, 84
20, 5271, Note_on_c, 13, 52, 0
20, 5271, Note_on_c, 13, 55, 0
20, 5280, Note_on_c, 13, 55, 84
20, 5280, Note_on_c, 13, 52, 84
20, 5331, Note_on_c, 13, 55, 0
20, 5331, Note_on_c, 13, 52, 0
20, 5340, Note_on_c, 13, 52, 84
20, 5340, Note_on_c, 13, 55, 84
20, 5391, Note_on_c, 13, 52, 0
20, 5391, Note_on_c, 13, 55, 0
20, 5400, Note_on_c, 13, 52, 84
20, 5400, Note_on_c, 13, 55, 84
20, 5451, Note_on_c, 13, 52, 0
20, 5451, Note_on_c, 13, 55, 0
20, 5460, Note_on_c, 13, 55, 84
20, 5460, Note_on_c, 13, 52, 84
20, 5511, Note_on_c, 13, 55, 0
20, 5511, Note_on_c, 13, 52, 0
20, 5520, Note_on_c, 13, 52, 84
20, 5520, Note_on_c, 13, 55, 84
20, 5571, Note_on_c, 13, 52, 0
20, 5571, Note_on_c, 13, 55, 0
20, 5580, Note_on_c, 13, 55, 84
20, 5580, Note_on_c, 13, 52, 84
20, 5631, Note_on_c, 13, 55, 0
20, 5631, Note_on_c, 13, 52, 0
20, 5640, Note_on_c, 13, 55, 84
20, 5640, Note_on_c, 13, 52, 84
20, 5691, Note_on_c, 13, 55, 0
20, 5691, Note_on_c, 13, 52, 0
20, 5700, Note_on_c, 13, 52, 84
20, 5700, Note_on_c, 13, 55, 84
20, 5751, Note_on_c, 13, 52, 0
20, 5751, Note_on_c, 13, 55, 0
20, 5760, Note_on_c, 13, 57, 84
20, 5760, Note_on_c, 13, 53, 84
20, 5811, Note_on_c, 13, 57, 0
20, 5811, Note_on_c, 13, 53, 0
20, 5820, Note_on_c, 13, 53, 84
20, 5820, Note_on_c, 13, 57, 84
20, 5871, Note_on_c, 13, 53, 0
20, 5871, Note_on_c, 13, 57, 0
20, 5880, Note_on_c, 13, 57, 84
20, 5880, Note_on_c, 13, 53, 84
20, 5931, Note_on_c, 13, 57, 0
20, 5931, Note_on_c, 13, 53, 0
20, 5940, Note_on_c, 13, 57, 84
20, 5940, Note_on_c, 13, 53, 84
20, 5991, Note_on_c, 13, 57, 0
20, 5991, Note_on_c, 13, 53, 0
20, 6000, Note_on_c, 13, 57, 84
20, 6000, Note_on_c, 13, 53, 84
20, 6051, Note_on_c, 13, 57, 0
20, 6051, Note_on_c, 13, 53, 0
20, 6060, Note_on_c, 13, 53, 84
20, 6060, Note_on_c, 13, 57, 84
20, 6111, Note_on_c, 13, 53, 0
20, 6111, Note_on_c, 13, 57, 0
20, 6120, Note_on_c, 13, 53, 84
20, 6120, Note_on_c, 13, 57, 84
20, 6171, Note_on_c, 13, 53, 0
20, 6171, Note_on_c, 13, 57, 0
20, 6180, Note_on_c, 13, 57, 84
20, 6180, Note_on_c, 13, 53, 84
20, 6231, Note_on_c, 13, 57, 0
20, 6231, Note_on_c, 13, 53, 0
20, 6240, Note_on_c, 13, 57, 84
20, 6240, Note_on_c, 13, 53, 84
20, 6291, Note_on_c, 13, 57, 0
20, 6291, Note_on_c, 13, 53, 0
20, 6300, Note_on_c, 13, 57, 84
20, 6300, Note_on_c, 13, 53, 84
20, 6351, Note_on_c, 13, 57, 0
20, 6351, Note_on_c, 13, 53, 0
20, 6360, Note_on_c, 13, 53, 84
20, 6360, Note_on_c, 13, 57, 84
20, 6411, Note_on_c, 13, 53, 0
20, 6411, Note_on_c, 13, 57, 0
20, 6420, Note_on_c, 13, 53, 84
20, 6420, Note_on_c, 13, 57, 84
20, 6471, Note_on_c, 13, 53, 0
20, 6471, Note_on_c, 13, 57, 0
20, 6480, Note_on_c, 13, 57, 84
20, 6480, Note_on_c, 13, 53, 84
20, 6531, Note_on_c, 13, 57, 0
20, 6531, Note_on_c, 13, 53, 0
20, 6540, Note_on_c, 13, 53, 84
20, 6540, Note_on_c, 13, 57, 84
20, 6591, Note_on_c, 13, 53, 0
20, 6591, Note_on_c, 13, 57, 0
20, 6600, Note_on_c, 13, 57, 84
20, 6600, Note_on_c, 13, 53, 84
20, 6651, Note_on_c, 13, 57, 0
20, 6651, Note_on_c, 13, 53, 0
20, 6660, Note_on_c, 13, 57, 84
20, 6660, Note_on_c, 13, 53, 84
20, 6711, Note_on_c, 13, 57, 0
20, 6711, Note_on_c, 13, 53, 0
20, 6720, Note_on_c, 13, 55, 84
20, 6720, Note_on_c, 13, 52, 84
20, 6771, Note_on_c, 13, 55, 0
20, 6771, Note_on_c, 13, 52, 0
20, 6780, Note_on_c, 13, 55, 84
20, 6780, Note_on_c, 13, 52, 84
20, 6831, Note_on_c, 13, 55, 0
20, 6831, Note_on_c, 13, 52, 0
20, 6840, Note_on_c, 13, 55, 84
20, 6840, Note_on_c, 13, 52, 84
20, 6891, Note_on_c, 13, 55, 0
20, 6891, Note_on_c, 13, 52, 0
20, 6900, Note_on_c, 13, 52, 84
20, 6900, Note_on_c, 13, 55, 84
20, 6951, Note_on_c, 13, 52, 0
20, 6951, Note_on_c, 13, 55, 0
20, 6960, Note_on_c, 13, 55, 84
20, 6960, Note_on_c, 13, 52, 84
20, 7011, Note_on_c, 13, 55, 0
20, 7011, Note_on_c, 13, 52, 0
20, 7020, Note_on_c, 13, 52, 84
20, 7020, Note_on_c, 13, 55, 84
20, 7071, Note_on_c, 13, 52, 0
20, 7071, Note_on_c, 13, 55, 0
20, 7080, Note_on_c, 13, 52, 84
20, 7080, Note_on_c, 13, 55, 84
20, 7131, Note_on_c, 13, 52, 0
20, 7131, Note_on_c, 13, 55, 0
20, 7140, Note_on_c, 13, 52, 84
20, 7140, Note_on_c, 13, 55, 84
20, 7191, Note_on_c, 13, 52, 0
20, 7191, Note_on_c, 13, 55, 0
20, 7200, Note_on_c, 13, 55, 84
20, 7200, Note_on_c, 13, 52, 84
20, 7251, Note_on_c, 13, 55, 0
20, 7251, Note_on_c, 13, 52, 0
20, 7260, Note_on_c, 13, 55, 84
20, 7260, Note_on_c, 13, 52, 84
20, 7311, Note_on_c, 13, 55, 0
20, 7311, Note_on_c, 13, 52, 0
20, 7320, Note_on_c, 13, 55, 84
20, 7320, Note_on_c, 13, 52, 84
20, 7371, Note_on_c, 13, 55, 0
20, 7371, Note_on_c, 13, 52, 0
20, 7380, Note_on_c, 13, 55, 84
20, 7380, Note_on_c, 13, 52, 84
20, 7431, Note_on_c, 13, 55, 0
20, 7431, Note_on_c, 13, 52, 0
20, 7440, Note_on_c, 13, 52, 84
20, 7440, Note_on_c, 13, 55, 84
20, 7491, Note_on_c, 13, 52, 0
20, 7491, Note_on_c, 13, 55, 0
20, 7500, Note_on_c, 13, 55, 84
20, 7500, Note_on_c, 13, 52, 84
20, 7551, Note_on_c, 13, 55, 0
20, 7551, Note_on_c, 13, 52, 0
20, 7560, Note_on_c, 13, 52, 84
20, 7560, Note_on_c, 13, 55, 84
20, 7611, Note_on_c, 13, 52, 0
20, 7611, Note_on_c, 13, 55, 0
20, 7620, Note_on_c, 13, 55, 84
20, 7620, Note_on_c, 13, 52, 84
20, 7671, Note_on_c, 13, 55, 0
20, 7671, Note_on_c, 13, 52, 0
20, 7680, Note_on_c, 13, 53, 84
20, 7680, Note_on_c, 13, 57, 84
20, 7731, Note_on_c, 13, 53, 0
20, 7731, Note_on_c, 13, 57, 0
20, 7740, Note_on_c, 13, 57, 84
20, 7740, Note_on_c, 13, 53, 84
20, 7791, Note_on_c, 13, 57, 0
20, 7791, Note_on_c, 13, 53, 0
20, 7800, Note_on_c, 13, 53, 84
20, 7800, Note_on_c, 13, 57, 84
20, 7851, Note_on_c, 13, 53, 0
20, 7851, Note_on_c, 13, 57, 0
20, 7860, Note_on_c, 13, 53, 84
20, 7860, Note_on_c, 13, 57, 84
20, 7911, Note_on_c, 13, 53, 0
20, 7911, Note_on_c, 13, 57, 0
20, 7920, Note_on_c, 13, 57, 84
20, 7920, Note_on_c, 13, 53, 84
20, 7971, Note_on_c, 13, 57, 0
20, 7971, Note_on_c, 13, 53, 0
20, 7980, Note_on_c, 13, 53, 84
20, 7980, Note_on_c, 13, 57, 84
20, 8031, Note_on_c, 13, 53, 0
20, 8031, Note_on_c, 13, 57, 0
20, 8040, Note_on_c, 13, 53, 84
20, 8040, Note_on_c, 13, 57, 84
20, 8091, Note_on_c, 13, 53, 0
20, 8091, Note_on_c, 13, 57, 0
20, 8100, Note_on_c, 13, 57, 84
20, 8100, Note_on_c, 13, 53, 84
20, 8151, Note_on_c, 13, 57, 0
20, 8151, Note_on_c, 13, 53, 0
20, 8160, Note_on_c, 13, 57, 84
20, 8160, Note_on_c, 13, 53, 84
20, 8211, Note_on_c, 13, 57, 0
20, 8211, Note_on_c, 13, 53, 0
20, 8220, Note_on_c, 13, 53, 84
20, 8220, Note_on_c, 13, 57, 84
20, 8271, Note_on_c, 13, 53, 0
20, 8271, Note_on_c, 13, 57, 0
20, 8280, Note_on_c, 13, 57, 84
20, 8280, Note_on_c, 13, 53, 84
20, 8331, Note_on_c, 13, 57, 0
20, 8331, Note_on_c, 13, 53, 0
20, 8340, Note_on_c, 13, 53, 84
20, 8340, Note_on_c, 13, 57, 84
20, 8391, Note_on_c, 13, 53, 0
20, 8391, Note_on_c, 13, 57, 0
20, 8400, Note_on_c, 13, 53, 84
20, 8400, Note_on_c, 13, 57, 84
20, 8451, Note_on_c, 13, 53, 0
20, 8451, Note_on_c, 13, 57, 0
20, 8460, Note_on_c, 13, 57, 84
20, 8460, Note_on_c, 13, 53, 84
20, 8511, Note_on_c, 13, 57, 0
20, 8511, Note_on_c, 13, 53, 0
20, 8520, Note_on_c, 13, 53, 84
20, 8520, Note_on_c, 13, 57, 84
20, 8571, Note_on_c, 13, 53, 0
20, 8571, Note_on_c, 13, 57, 0
20, 8580, Note_on_c, 13, 57, 84
20, 8580, Note_on_c, 13, 53, 84
20, 8631, Note_on_c, 13, 57, 0
20, 8631, Note_on_c, 13, 53, 0
20, 8640, Note_on_c, 13, 52, 84
20, 8640, Note_on_c, 13, 55, 84
20, 8691, Note_on_c, 13, 52, 0
20, 8691, Note_on_c, 13, 55, 0
20, 8700, Note_on_c, 13, 55, 84
20, 8700, Note_on_c, 13, 52, 84
20, 8751, Note_on_c, 13, 55, 0
20, 8751, Note_on_c, 13, 52, 0
20, 8760, Note_on_c, 13, 52, 84
20, 8760, Note_on_c, 13, 55, 84
20, 8811, Note_on_c, 13, 52, 0
20, 8811, Note_on_c, 13, 55, 0
20, 8820, Note_on_c, 13, 55, 84
20, 8820, Note_on_c, 13, 52, 84
20, 8871, Note_on_c, 13, 55, 0
20, 8871, Note_on_c, 13, 52, 0
20, 8880, Note_on_c, 13, 52, 84
20, 8880, Note_on_c, 13, 55, 84
20, 8931, Note_on_c, 13, 52, 0
20, 8931, Note_on_c, 13, 55, 0
20, 8940, Note_on_c, 13, 52, 84
20, 8940, Note_on_c, 13, 55, 84
20, 8991, Note_on_c, 13, 52, 0
20, 8991, Note_on_c, 13, 55, 0
20, 9000, Note_on_c, 13, 52, 84
20, 9000, Note_on_c, 13, 55, 84
20, 9051, Note_on_c, 13, 52, 0
20, 9051, Note_on_c, 13, 55, 0
20, 9060, Note_on_c, 13, 55, 84
20, 9060, Note_on_c, 13, 52, 84
20, 9111, Note_on_c, 13, 55, 0
20, 9111, Note_on_c, 13, 52, 0
20, 9120, Note_on_c, 13, 55, 84
20, 9120, Note_on_c, 13, 52, 84
20, 9171, Note_on_c, 13, 55, 0
20, 9171, Note_on_c, 13, 52, 0
20, 9180, Note_on_c, 13, 55, 84
20, 9180, Note_on_c, 13, 52, 84
20, 9231, Note_on_c, 13, 55, 0
20, 9231, Note_on_c, 13, 52, 0
20, 9240, Note_on_c, 13, 55, 84
20, 9240, Note_on_c, 13, 52, 84
20, 9291, Note_on_c, 13, 55, 0
20, 9291, Note_on_c, 13, 52, 0
20, 9300, Note_on_c, 13, 55, 84
20, 9300, Note_on_c, 13, 52, 84
20, 9351, Note_on_c, 13, 55, 0
20, 9351, Note_on_c, 13, 52, 0
20, 9360, Note_on_c, 13, 55, 84
20, 9360, Note_on_c, 13, 52, 84
20, 9411, Note_on_c, 13, 55, 0
20, 9411, Note_on_c, 13, 52, 0
20, 9420, Note_on_c, 13, 55, 84
20, 9420, Note_on_c, 13, 52, 84
20, 9471, Note_on_c, 13, 55, 0
20, 9471, Note_on_c, 13, 52, 0
20, 9480, Note_on_c, 13, 52, 84
20, 9480, Note_on_c, 13, 55, 84
20, 9531, Note_on_c, 13, 52, 0
20, 9531, Note_on_c, 13, 55, 0
20, 9540, Note_on_c, 13, 52, 84
20, 9540, Note_on_c, 13, 55, 84
20, 9591, Note_on_c, 13, 52, 0
20, 9591, Note_on_c, 13, 55, 0
20, 9600, Note_on_c, 13, 53, 84
20, 9600, Note_on_c, 13, 57, 84
20, 9651, Note_on_c, 13, 53, 0
20, 9651, Note_on_c, 13, 57, 0
20, 9660, Note_on_c, 13, 57, 84
20, 9660, Note_on_c, 13, 53, 84
20, 9711, Note_on_c, 13, 57, 0
20, 9711, Note_on_c, 13, 53, 0
20, 9720, Note_on_c, 13, 53, 84
20, 9720, Note_on_c, 13, 57, 84
20, 9771, Note_on_c, 13, 53, 0
20, 9771, Note_on_c, 13, 57, 0
20, 9780, Note_on_c, 13, 53, 84
20, 9780, Note_on_c, 13, 57, 84
20, 9831, Note_on_c, 13, 53, 0
20, 9831, Note_on_c, 13, 57, 0
20, 9840, Note_on_c, 13, 57, 84
20, 9840, Note_on_c, 13, 53, 84
20, 9891, Note_on_c, 13, 57, 0
20, 9891, Note_on_c, 13, 53, 0
20, 9900, Note_on_c, 13, 53, 84
20, 9900, Note_on_c, 13, 57, 84
20, 9951, Note_on_c, 13, 53, 0
20, 9951, Note_on_c, 13, 57, 0
20, 9960, Note_on_c, 13, 53, 84
20, 9960, Note_on_c, 13, 57, 84
20, 10011, Note_on_c, 13, 53, 0
20, 10011, Note_on_c, 13, 57, 0
20, 10020, Note_on_c, 13, 57, 84
20, 10020, Note_on_c, 13, 53, 84
20, 10071, Note_on_c, 13, 57, 0
20, 10071, Note_on_c, 13, 53, 0
20, 10080, Note_on_c, 13, 57, 84
20, 10080, Note_on_c, 13, 53, 84
20, 10131, Note_on_c, 13, 57, 0
20, 10131, Note_on_c, 13, 53, 0
20, 10140, Note_on_c, 13, 53, 84
20, 10140, Note_on_c, 13, 57, 84
20, 10191, Note_on_c, 13, 53, 0
20, 10191, Note_on_c, 13, 57, 0
20, 10200, Note_on_c, 13, 53, 84
20, 10200, Note_on_c, 13, 57, 84
20, 10251, Note_on_c, 13, 53, 0
20, 10251, Note_on_c, 13, 57, 0
20, 10260, Note_on_c, 13, 53, 84
20, 10260, Note_on_c, 13, 57, 84
20, 10311, Note_on_c, 13, 53, 0
20, 10311, Note_on_c, 13, 57, 0
20, 10320, Note_on_c, 13, 57, 84
20, 10320, Note_on_c, 13, 53, 84
20, 10371, Note_on_c, 13, 57, 0
20, 10371, Note_on_c, 13, 53, 0
20, 10380, Note_on_c, 13, 53, 84
20, 10380, Note_on_c, 13, 57, 84
20, 10431, Note_on_c, 13, 53, 0
20, 10431, Note_on_c, 13, 57, 0
20, 10440, Note_on_c, 13, 53, 84
20, 10440, Note_on_c, 13, 57, 84
20, 10491, Note_on_c, 13, 53, 0
20, 10491, Note_on_c, 13, 57, 0
20, 10500, Note_on_c, 13, 57, 84
20, 10500, Note_on_c, 13, 53, 84
20, 10551, Note_on_c, 13, 57, 0
20, 10551, Note_on_c, 13, 53, 0
20, 10560, Note_on_c, 13, 52, 84
20, 10560, Note_on_c, 13, 55, 84
20, 10611, Note_on_c, 13, 52, 0
20, 10611, Note_on_c, 13, 55, 0
20, 10620, Note_on_c, 13, 52, 84
20, 10620, Note_on_c, 13, 55, 84
20, 10671, Note_on_c, 13, 52, 0
20, 10671, Note_on_c, 13, 55, 0
20, 10680, Note_on_c, 13, 52, 84
20, 10680, Note_on_c, 13, 55, 84
20, 10731, Note_on_c, 13, 52, 0
20, 10731, Note_on_c, 13, 55, 0
20, 10740, Note_on_c, 13, 52, 84
20, 10740, Note_on_c, 13, 55, 84
20, 10791, Note_on_c, 13, 52, 0
20, 10791, Note_on_c, 13, 55, 0
20, 10800, Note_on_c, 13, 55, 84
20, 10800, Note_on_c, 13, 52, 84
20, 10851, Note_on_c, 13, 55, 0
20, 10851, Note_on_c, 13, 52, 0
20, 10860, Note_on_c, 13, 55, 84
20, 10860, Note_on_c, 13, 52, 84
20, 10911, Note_on_c, 13, 55, 0
20, 10911, Note_on_c, 13, 52, 0
20, 10920, Note_on_c, 13, 52, 84
20, 10920, Note_on_c, 13, 55, 84
20, 10971, Note_on_c, 13, 52, 0
20, 10971, Note_on_c, 13, 55, 0
20, 10980, Note_on_c, 13, 55, 84
20, 10980, Note_on_c, 13, 52, 84
20, 11031, Note_on_c, 13, 55, 0
20, 11031, Note_on_c, 13, 52, 0
20, 11040, Note_on_c, 13, 55, 84
20, 11040, Note_on_c, 13, 52, 84
20, 11091, Note_on_c, 13, 55, 0
20, 11091, Note_on_c, 13, 52, 0
20, 11100, Note_on_c, 13, 55, 84
20, 11100, Note_on_c, 13, 52, 84
20, 11151, Note_on_c, 13, 55, 0
20, 11151, Note_on_c, 13, 52, 0
20, 11160, Note_on_c, 13, 55, 84
20, 11160, Note_on_c, 13, 52, 84
20, 11211, Note_on_c, 13, 55, 0
20, 11211, Note_on_c, 13, 52, 0
20, 11220, Note_on_c, 13, 55, 84
20, 11220, Note_on_c, 13, 52, 84
20, 11271, Note_on_c, 13, 55, 0
20, 11271, Note_on_c, 13, 52, 0
20, 11280, Note_on_c, 13, 52, 84
20, 11280, Note_on_c, 13, 55, 84
20, 11331, Note_on_c, 13, 52, 0
20, 11331, Note_on_c, 13, 55, 0
20, 11340, Note_on_c, 13, 55, 84
20, 11340, Note_on_c, 13, 52, 84
20, 11391, Note_on_c, 13, 55, 0
20, 11391, Note_on_c, 13, 52, 0
20, 11400, Note_on_c, 13, 55, 84
20, 11400, Note_on_c, 13, 52, 84
20, 11451, Note_on_c, 13, 55, 0
20, 11451, Note_on_c, 13, 52, 0
20, 11460, Note_on_c, 13, 55, 84
20, 11460, Note_on_c, 13, 52, 84
20, 11511, Note_on_c, 13, 55, 0
20, 11511, Note_on_c, 13, 52, 0
20, 11520, Note_on_c, 13, 62, 84
20, 11744, Note_on_c, 13, 62, 0
20, 11760, Note_on_c, 13, 62, 84
20, 11931, Note_on_c, 13, 62, 0
20, 11940, Note_on_c, 13, 62, 84
20, 11991, Note_on_c, 13, 62, 0
20, 12000, Note_on_c, 13, 60, 84
20, 12224, Note_on_c, 13, 60, 0
20, 12240, Note_on_c, 13, 60, 84
20, 12411, Note_on_c, 13, 60, 0
20, 12420, Note_on_c, 13, 60, 84
20, 12471, Note_on_c, 13, 60, 0
20, 12480, Note_on_c, 13, 59, 84
20, 12704, Note_on_c, 13, 59, 0
20, 12720, Note_on_c, 13, 59, 84
20, 13184, Note_on_c, 13, 59, 0
20, 13200, Note_on_c, 13, 60, 84
20, 13371, Note_on_c, 13, 60, 0
20, 13380, Note_on_c, 13, 60, 84
20, 13431, Note_on_c, 13, 60, 0
20, 13440, Note_on_c, 13, 62, 84
20, 13664, Note_on_c, 13, 62, 0
20, 13680, Note_on_c, 13, 62, 84
20, 13851, Note_on_c, 13, 62, 0
20, 13860, Note_on_c, 13, 62, 84
20, 13911, Note_on_c, 13, 62, 0
20, 13920, Note_on_c, 13, 60, 84
20, 14144, Note_on_c, 13, 60, 0
20, 14160, Note_on_c, 13, 60, 84
20, 14331, Note_on_c, 13, 60, 0
20, 14340, Note_on_c, 13, 60, 84
20, 14391, Note_on_c, 13, 60, 0
20, 14400, Note_on_c, 13, 59, 84
20, 14624, Note_on_c, 13, 59, 0
20, 14640, Note_on_c, 13, 59, 84
20, 15104, Note_on_c, 13, 59, 0
20, 15120, Note_on_c, 13, 60, 84
20, 15291, Note_on_c, 13, 60, 0
20, 15300, Note_on_c, 13, 60, 84
20, 15351, Note_on_c, 13, 60, 0
20, 15360, Note_on_c, 13, 62, 84
20, 15531, Note_on_c, 13, 62, 0
20, 15540, Note_on_c, 13, 62, 84
20, 15591, Note_on_c, 13, 62, 0
20, 15600, Note_on_c, 13, 59, 84
20, 15771, Note_on_c, 13, 59, 0
20, 15780, Note_on_c, 13, 59, 84
20, 15831, Note_on_c, 13, 59, 0
20, 15840, Note_on_c, 13, 60, 84
20, 16011, Note_on_c, 13, 60, 0
20, 16020, Note_on_c, 13, 60, 84
20, 16071, Note_on_c, 13, 60, 0
20, 16080, Note_on_c, 13, 60, 84
20, 16251, Note_on_c, 13, 60, 0
20, 16260, Note_on_c, 13, 60, 84
20, 16311, Note_on_c, 13, 60, 0
20, 16320, Note_on_c, 13, 59, 84
20, 16371, Note_on_c, 13, 59, 0
20, 16380, Note_on_c, 13, 59, 84
20, 16431, Note_on_c, 13, 59, 0
20, 16440, Note_on_c, 13, 59, 84
20, 16491, Note_on_c, 13, 59, 0
20, 16500, Note_on_c, 13, 59, 84
20, 16551, Note_on_c, 13, 59, 0
20, 16560, Note_on_c, 13, 59, 84
20, 16611, Note_on_c, 13, 59, 0
20, 16620, Note_on_c, 13, 59, 84
20, 16671, Note_on_c, 13, 59, 0
20, 16680, Note_on_c, 13, 59, 84
20, 16731, Note_on_c, 13, 59, 0
20, 16740, Note_on_c, 13, 59, 84
20, 16791, Note_on_c, 13, 59, 0
20, 16800, Note_on_c, 13, 60, 84
20, 16851, Note_on_c, 13, 60, 0
20, 16860, Note_on_c, 13, 60, 84
20, 16911, Note_on_c, 13, 60, 0
20, 16920, Note_on_c, 13, 60, 84
20, 16971, Note_on_c, 13, 60, 0
20, 16980, Note_on_c, 13, 60, 84
20, 17031, Note_on_c, 13, 60, 0
20, 17040, Note_on_c, 13, 60, 84
20, 17091, Note_on_c, 13, 60, 0
20, 17100, Note_on_c, 13, 60, 84
20, 17151, Note_on_c, 13, 60, 0
20, 17160, Note_on_c, 13, 60, 84
20, 17211, Note_on_c, 13, 60, 0
20, 17220, Note_on_c, 13, 60, 84
20, 17271, Note_on_c, 13, 60, 0
20, 17280, Note_on_c, 13, 59, 84
20, 17331, Note_on_c, 13, 59, 0
20, 17340, Note_on_c, 13, 59, 84
20, 17391, Note_on_c, 13, 59, 0
20, 17400, Note_on_c, 13, 59, 84
20, 17451, Note_on_c, 13, 59, 0
20, 17460, Note_on_c, 13, 59, 84
20, 17511, Note_on_c, 13, 59, 0
20, 17520, Note_on_c, 13, 59, 84
20, 17571, Note_on_c, 13, 59, 0
20, 17580, Note_on_c, 13, 59, 84
20, 17631, Note_on_c, 13, 59, 0
20, 17640, Note_on_c, 13, 59, 84
20, 17691, Note_on_c, 13, 59, 0
20, 17700, Note_on_c, 13, 59, 84
20, 17751, Note_on_c, 13, 59, 0
20, 17760, Note_on_c, 13, 60, 84
20, 17811, Note_on_c, 13, 60, 0
20, 17820, Note_on_c, 13, 60, 84
20, 17871, Note_on_c, 13, 60, 0
20, 17880, Note_on_c, 13, 60, 84
20, 17931, Note_on_c, 13, 60, 0
20, 17940, Note_on_c, 13, 60, 84
20, 17991, Note_on_c, 13, 60, 0
20, 18000, Note_on_c, 13, 60, 84
20, 18051, Note_on_c, 13, 60, 0
20, 18060, Note_on_c, 13, 60, 84
20, 18111, Note_on_c, 13, 60, 0
20, 18120, Note_on_c, 13, 60, 84
20, 18171, Note_on_c, 13, 60, 0
20, 18180, Note_on_c, 13, 60, 84
20, 18231, Note_on_c, 13, 60, 0
20, 18240, Note_on_c, 13, 59, 84
20, 18291, Note_on_c, 13, 59, 0
20, 18300, Note_on_c, 13, 59, 84
20, 18351, Note_on_c, 13, 59, 0
20, 18360, Note_on_c, 13, 60, 84
20, 18411, Note_on_c, 13, 60, 0
20, 18420, Note_on_c, 13, 60, 84
20, 18471, Note_on_c, 13, 60, 0
20, 18480, Note_on_c, 13, 60, 84
20, 18531, Note_on_c, 13, 60, 0
20, 18540, Note_on_c, 13, 60, 84
20, 18591, Note_on_c, 13, 60, 0
20, 18600, Note_on_c, 13, 60, 84
20, 18651, Note_on_c, 13, 60, 0
20, 18660, Note_on_c, 13, 60, 84
20, 18711, Note_on_c, 13, 60, 0
20, 18720, Note_on_c, 13, 59, 84
20, 18771, Note_on_c, 13, 59, 0
20, 18780, Note_on_c, 13, 59, 84
20, 18831, Note_on_c, 13, 59, 0
20, 18840, Note_on_c, 13, 60, 84
20, 18891, Note_on_c, 13, 60, 0
20, 18900, Note_on_c, 13, 60, 84
20, 18951, Note_on_c, 13, 60, 0
20, 18960, Note_on_c, 13, 60, 84
20, 19011, Note_on_c, 13, 60, 0
20, 19020, Note_on_c, 13, 60, 84
20, 19071, Note_on_c, 13, 60, 0
20, 19080, Note_on_c, 13, 60, 84
20, 19131, Note_on_c, 13, 60, 0
20, 19140, Note_on_c, 13, 60, 84
20, 19191, Note_on_c, 13, 60, 0
20, 19200, Note_on_c, 13, 59, 84
20, 19251, Note_on_c, 13, 59, 0
20, 19260, Note_on_c, 13, 59, 84
20, 19311, Note_on_c, 13, 59, 0
20, 19320, Note_on_c, 13, 60, 84
20, 19371, Note_on_c, 13, 60, 0
20, 19380, Note_on_c, 13, 60, 84
20, 19431, Note_on_c, 13, 60, 0
20, 19440, Note_on_c, 13, 60, 84
20, 19491, Note_on_c, 13, 60, 0
20, 19500, Note_on_c, 13, 60, 84
20, 19551, Note_on_c, 13, 60, 0
20, 19560, Note_on_c, 13, 60, 84
20, 19611, Note_on_c, 13, 60, 0
20, 19620, Note_on_c, 13, 60, 84
20, 19671, Note_on_c, 13, 60, 0
20, 19680, Note_on_c, 13, 59, 84
20, 19731, Note_on_c, 13, 59, 0
20, 19740, Note_on_c, 13, 59, 84
20, 19791, Note_on_c, 13, 59, 0
20, 19800, Note_on_c, 13, 60, 84
20, 19851, Note_on_c, 13, 60, 0
20, 19860, Note_on_c, 13, 60, 84
20, 19911, Note_on_c, 13, 60, 0
20, 19920, Note_on_c, 13, 60, 84
20, 19971, Note_on_c, 13, 60, 0
20, 19980, Note_on_c, 13, 60, 84
20, 20031, Note_on_c, 13, 60, 0
20, 20040, Note_on_c, 13, 60, 84
20, 20091, Note_on_c, 13, 60, 0
20, 20100, Note_on_c, 13, 60, 84
20, 20151, Note_on_c, 13, 60, 0
20, 20160, Note_on_c, 13, 59, 84
20, 20249, Note_on_c, 13, 59, 0
20, 20280, Note_on_c, 13, 67, 92
20, 20399, Note_on_c, 13, 67, 0
20, 20400, Note_on_c, 13, 65, 84
20, 20504, Note_on_c, 13, 65, 0
20, 20520, Note_on_c, 13, 64, 84
20, 20609, Note_on_c, 13, 64, 0
20, 20640, Note_on_c, 13, 62, 84
20, 20729, Note_on_c, 13, 62, 0
20, 20760, Note_on_c, 13, 64, 92
20, 20879, Note_on_c, 13, 64, 0
20, 20880, Note_on_c, 13, 62, 84
20, 20984, Note_on_c, 13, 62, 0
20, 21000, Note_on_c, 13, 60, 84
20, 21089, Note_on_c, 13, 60, 0
20, 21120, Note_on_c, 13, 59, 84
20, 21209, Note_on_c, 13, 59, 0
20, 21240, Note_on_c, 13, 64, 92
20, 21359, Note_on_c, 13, 64, 0
20, 21360, Note_on_c, 13, 62, 84
20, 21464, Note_on_c, 13, 62, 0
20, 21480, Note_on_c, 13, 60, 84
20, 21569, Note_on_c, 13, 60, 0
20, 21600, Note_on_c, 13, 59, 84
20, 21689, Note_on_c, 13, 59, 0
20, 21720, Note_on_c, 13, 60, 92
20, 21839, Note_on_c, 13, 60, 0
20, 21840, Note_on_c, 13, 59, 84
20, 21944, Note_on_c, 13, 59, 0
20, 21960, Note_on_c, 13, 57, 84
20, 22049, Note_on_c, 13, 57, 0
20, 22080, Note_on_c, 13, 55, 84
20, 22169, Note_on_c, 13, 55, 0
20, 22200, Note_on_c, 13, 60, 92
20, 22319, Note_on_c, 13, 60, 0
20, 22320, Note_on_c, 13, 59, 84
20, 22424, Note_on_c, 13, 59, 0
20, 22440, Note_on_c, 13, 57, 84
20, 22529, Note_on_c, 13, 57, 0
20, 22560, Note_on_c, 13, 55, 84
20, 22649, Note_on_c, 13, 55, 0
20, 22680, Note_on_c, 13, 60, 92
20, 22799, Note_on_c, 13, 60, 0
20, 22800, Note_on_c, 13, 59, 84
20, 22904, Note_on_c, 13, 59, 0
20, 22920, Note_on_c, 13, 57, 84
20, 23009, Note_on_c, 13, 57, 0
20, 23040, Note_on_c, 13, 55, 84
20, 23129, Note_on_c, 13, 55, 0
20, 23160, Note_on_c, 13, 60, 92
20, 23279, Note_on_c, 13, 60, 0
20, 23280, Note_on_c, 13, 59, 84
20, 23384, Note_on_c, 13, 59, 0
20, 23400, Note_on_c, 13, 57, 84
20, 23489, Note_on_c, 13, 57, 0
20, 23520, Note_on_c, 13, 55, 84
20, 23609, Note_on_c, 13, 55, 0
20, 23640, Note_on_c, 13, 53, 84
20, 23729, Note_on_c, 13, 53, 0
20, 23760, Note_on_c, 13, 52, 84
20, 23849, Note_on_c, 13, 52, 0
20, 23880, Note_on_c, 13, 50, 84
20, 23969, Note_on_c, 13, 50, 0
20, 24000, Note_on_c, 13, 48, 84
20, 24051, Note_on_c, 13, 48, 0
20, 24060, Note_on_c, 13, 55, 84
20, 24060, Note_on_c, 13, 52, 84
20, 24111, Note_on_c, 13, 55, 0
20, 24111, Note_on_c, 13, 52, 0
20, 24120, Note_on_c, 13, 52, 84
20, 24120, Note_on_c, 13, 55, 84
20, 24171, Note_on_c, 13, 52, 0
20, 24171, Note_on_c, 13, 55, 0
20, 24180, Note_on_c, 13, 52, 84
20, 24180, Note_on_c, 13, 55, 84
20, 24231, Note_on_c, 13, 52, 0
20, 24231, Note_on_c, 13, 55, 0
20, 24240, Note_on_c, 13, 52, 84
20, 24240, Note_on_c, 13, 55, 84
20, 24291, Note_on_c, 13, 52, 0
20, 24291, Note_on_c, 13, 55, 0
20, 24300, Note_on_c, 13, 52, 84
20, 24300, Note_on_c, 13, 55, 84
20, 24351, Note_on_c, 13, 52, 0
20, 24351, Note_on_c, 13, 55, 0
20, 24360, Note_on_c, 13, 55, 84
20, 24360, Note_on_c, 13, 52, 84
20, 24411, Note_on_c, 13, 55, 0
20, 24411, Note_on_c, 13, 52, 0
20, 24420, Note_on_c, 13, 55, 84
20, 24420, Note_on_c, 13, 52, 84
20, 24471, Note_on_c, 13, 55, 0
20, 24471, Note_on_c, 13, 52, 0
20, 24480, Note_on_c, 13, 52, 84
20, 24480, Note_on_c, 13, 55, 84
20, 24531, Note_on_c, 13, 52, 0
20, 24531, Note_on_c, 13, 55, 0
20, 24540, Note_on_c, 13, 55, 84
20, 24540, Note_on_c, 13, 52, 84
20, 24591, Note_on_c, 13, 55, 0
20, 24591, Note_on_c, 13, 52, 0
20, 24600, Note_on_c, 13, 52, 84
20, 24600, Note_on_c, 13, 55, 84
20, 24651, Note_on_c, 13, 52, 0
20, 24651, Note_on_c, 13, 55, 0
20, 24660, Note_on_c, 13, 52, 84
20, 24660, Note_on_c, 13, 55, 84
20, 24711, Note_on_c, 13, 52, 0
20, 24711, Note_on_c, 13, 55, 0
20, 24720, Note_on_c, 13, 55, 84
20, 24720, Note_on_c, 13, 52, 84
20, 24771, Note_on_c, 13, 55, 0
20, 24771, Note_on_c, 13, 52, 0
20, 24780, Note_on_c, 13, 55, 84
20, 24780, Note_on_c, 13, 52, 84
20, 24831, Note_on_c, 13, 55, 0
20, 24831, Note_on_c, 13, 52, 0
20, 24840, Note_on_c, 13, 55, 84
20, 24840, Note_on_c, 13, 52, 84
20, 24891, Note_on_c, 13, 55, 0
20, 24891, Note_on_c, 13, 52, 0
20, 24900, Note_on_c, 13, 52, 84
20, 24900, Note_on_c, 13, 55, 84
20, 24951, Note_on_c, 13, 52, 0
20, 24951, Note_on_c, 13, 55, 0
20, 24960, Note_on_c, 13, 52, 84
20, 24960, Note_on_c, 13, 55, 84
20, 25011, Note_on_c, 13, 52, 0
20, 25011, Note_on_c, 13, 55, 0
20, 25020, Note_on_c, 13, 52, 84
20, 25020, Note_on_c, 13, 55, 84
20, 25071, Note_on_c, 13, 52, 0
20, 25071, Note_on_c, 13, 55, 0
20, 25080, Note_on_c, 13, 52, 84
20, 25080, Note_on_c, 13, 55, 84
20, 25131, Note_on_c, 13, 52, 0
20, 25131, Note_on_c, 13, 55, 0
20, 25140, Note_on_c, 13, 55, 84
20, 25140, Note_on_c, 13, 52, 84
20, 25191, Note_on_c, 13, 55, 0
20, 25191, Note_on_c, 13, 52, 0
20, 25200, Note_on_c, 13, 52, 84
20, 25200, Note_on_c, 13, 55, 84
20, 25251, Note_on_c, 13, 52, 0
20, 25251, Note_on_c, 13, 55, 0
20, 25260, Note_on_c, 13, 55, 84
20, 25260, Note_on_c, 13, 52, 84
20, 25311, Note_on_c, 13, 55, 0
20, 25311, Note_on_c, 13, 52, 0
20, 25320, Note_on_c, 13, 55, 84
20, 25320, Note_on_c, 13, 52, 84
20, 25371, Note_on_c, 13, 55, 0
20, 25371, Note_on_c, 13, 52, 0
20, 25380, Note_on_c, 13, 52, 84
20, 25380, Note_on_c, 13, 55, 84
20, 25431, Note_on_c, 13, 52, 0
20, 25431, Note_on_c, 13, 55, 0
20, 25440, Note_on_c, 13, 52, 84
20, 25440, Note_on_c, 13, 55, 84
20, 25491, Note_on_c, 13, 52, 0
20, 25491, Note_on_c, 13, 55, 0
20, 25500, Note_on_c, 13, 52, 84
20, 25500, Note_on_c, 13, 55, 84
20, 25551, Note_on_c, 13, 52, 0
20, 25551, Note_on_c, 13, 55, 0
20, 25560, Note_on_c, 13, 55, 84
20, 25560, Note_on_c, 13, 52, 84
20, 25611, Note_on_c, 13, 55, 0
20, 25611, Note_on_c, 13, 52, 0
20, 25620, Note_on_c, 13, 52, 84
20, 25620, Note_on_c, 13, 55, 84
20, 25671, Note_on_c, 13, 52, 0
20, 25671, Note_on_c, 13, 55, 0
20, 25680, Note_on_c, 13, 52, 84
20, 25680, Note_on_c, 13, 55, 84
20, 25731, Note_on_c, 13, 52, 0
20, 25731, Note_on_c, 13, 55, 0
20, 25740, Note_on_c, 13, 52, 84
20, 25740, Note_on_c, 13, 55, 84
20, 25791, Note_on_c, 13, 52, 0
20, 25791, Note_on_c, 13, 55, 0
20, 25800, Note_on_c, 13, 52, 84
20, 25800, Note_on_c, 13, 55, 84
20, 25851, Note_on_c, 13, 52, 0
20, 25851, Note_on_c, 13, 55, 0
20, 25860, Note_on_c, 13, 52, 84
20, 25860, Note_on_c, 13, 55, 84
20, 25911, Note_on_c, 13, 52, 0
20, 25911, Note_on_c, 13, 55, 0
20, 25920, Note_on_c, 13, 55, 84
20, 25920, Note_on_c, 13, 53, 84
20, 25971, Note_on_c, 13, 55, 0
20, 25971, Note_on_c, 13, 53, 0
20, 25980, Note_on_c, 13, 53, 84
20, 25980, Note_on_c, 13, 55, 84
20, 26031, Note_on_c, 13, 53, 0
20, 26031, Note_on_c, 13, 55, 0
20, 26040, Note_on_c, 13, 55, 84
20, 26040, Note_on_c, 13, 53, 84
20, 26091, Note_on_c, 13, 55, 0
20, 26091, Note_on_c, 13, 53, 0
20, 26100, Note_on_c, 13, 55, 84
20, 26100, Note_on_c, 13, 53, 84
20, 26151, Note_on_c, 13, 55, 0
20, 26151, Note_on_c, 13, 53, 0
20, 26160, Note_on_c, 13, 53, 84
20, 26160, Note_on_c, 13, 55, 84
20, 26211, Note_on_c, 13, 53, 0
20, 26211, Note_on_c, 13, 55, 0
20, 26220, Note_on_c, 13, 53, 84
20, 26220, Note_on_c, 13, 55, 84
20, 26271, Note_on_c, 13, 53, 0
20, 26271, Note_on_c, 13, 55, 0
20, 26280, Note_on_c, 13, 53, 84
20, 26280, Note_on_c, 13, 55, 84
20, 26331, Note_on_c, 13, 53, 0
20, 26331, Note_on_c, 13, 55, 0
20, 26340, Note_on_c, 13, 53, 84
20, 26340, Note_on_c, 13, 55, 84
20, 26391, Note_on_c, 13, 53, 0
20, 26391, Note_on_c, 13, 55, 0
20, 26400, Note_on_c, 13, 53, 84
20, 26400, Note_on_c, 13, 55, 84
20, 26451, Note_on_c, 13, 53, 0
20, 26451, Note_on_c, 13, 55, 0
20, 26460, Note_on_c, 13, 53, 84
20, 26460, Note_on_c, 13, 55, 84
20, 26511, Note_on_c, 13, 53, 0
20, 26511, Note_on_c, 13, 55, 0
20, 26520, Note_on_c, 13, 53, 84
20, 26520, Note_on_c, 13, 55, 84
20, 26571, Note_on_c, 13, 53, 0
20, 26571, Note_on_c, 13, 55, 0
20, 26580, Note_on_c, 13, 55, 84
20, 26580, Note_on_c, 13, 53, 84
20, 26631, Note_on_c, 13, 55, 0
20, 26631, Note_on_c, 13, 53, 0
20, 26640, Note_on_c, 13, 53, 84
20, 26640, Note_on_c, 13, 55, 84
20, 26691, Note_on_c, 13, 53, 0
20, 26691, Note_on_c, 13, 55, 0
20, 26700, Note_on_c, 13, 55, 84
20, 26700, Note_on_c, 13, 53, 84
20, 26751, Note_on_c, 13, 55, 0
20, 26751, Note_on_c, 13, 53, 0
20, 26760, Note_on_c, 13, 55, 84
20, 26760, Note_on_c, 13, 53, 84
20, 26811, Note_on_c, 13, 55, 0
20, 26811, Note_on_c, 13, 53, 0
20, 26820, Note_on_c, 13, 53, 84
20, 26820, Note_on_c, 13, 55, 84
20, 26871, Note_on_c, 13, 53, 0
20, 26871, Note_on_c, 13, 55, 0
20, 26880, Note_on_c, 13, 53, 84
20, 26880, Note_on_c, 13, 55, 84
20, 26931, Note_on_c, 13, 53, 0
20, 26931, Note_on_c, 13, 55, 0
20, 26940, Note_on_c, 13, 55, 84
20, 26940, Note_on_c, 13, 53, 84
20, 26991, Note_on_c, 13, 55, 0
20, 26991, Note_on_c, 13, 53, 0
20, 27000, Note_on_c, 13, 55, 84
20, 27000, Note_on_c, 13, 53, 84
20, 27051, Note_on_c, 13, 55, 0
20, 27051, Note_on_c, 13, 53, 0
20, 27060, Note_on_c, 13, 53, 84
20, 27060, Note_on_c, 13, 55, 84
20, 27111, Note_on_c, 13, 53, 0
20, 27111, Note_on_c, 13, 55, 0
20, 27120, Note_on_c, 13, 53, 84
20, 27120, Note_on_c, 13, 55, 84
20, 27171, Note_on_c, 13, 53, 0
20, 27171, Note_on_c, 13, 55, 0
20, 27180, Note_on_c, 13, 53, 84
20, 27180, Note_on_c, 13, 55, 84
20, 27231, Note_on_c, 13, 53, 0
20, 27231, Note_on_c, 13, 55, 0
20, 27240, Note_on_c, 13, 53, 84
20, 27240, Note_on_c, 13, 55, 84
20, 27291, Note_on_c, 13, 53, 0
20, 27291, Note_on_c, 13, 55, 0
20, 27300, Note_on_c, 13, 53, 84
20, 27300, Note_on_c, 13, 55, 84
20, 27351, Note_on_c, 13, 53, 0
20, 27351, Note_on_c, 13, 55, 0
20, 27360, Note_on_c, 13, 53, 84
20, 27360, Note_on_c, 13, 55, 84
20, 27411, Note_on_c, 13, 53, 0
20, 27411, Note_on_c, 13, 55, 0
20, 27420, Note_on_c, 13, 53, 84
20, 27420, Note_on_c, 13, 55, 84
20, 27471, Note_on_c, 13, 53, 0
20, 27471, Note_on_c, 13, 55, 0
20, 27480, Note_on_c, 13, 55, 84
20, 27480, Note_on_c, 13, 53, 84
20, 27531, Note_on_c, 13, 55, 0
20, 27531, Note_on_c, 13, 53, 0
20, 27540, Note_on_c, 13, 53, 84
20, 27540, Note_on_c, 13, 55, 84
20, 27591, Note_on_c, 13, 53, 0
20, 27591, Note_on_c, 13, 55, 0
20, 27600, Note_on_c, 13, 55, 84
20, 27600, Note_on_c, 13, 53, 84
20, 27651, Note_on_c, 13, 55, 0
20, 27651, Note_on_c, 13, 53, 0
20, 27660, Note_on_c, 13, 55, 84
20, 27660, Note_on_c, 13, 53, 84
20, 27711, Note_on_c, 13, 55, 0
20, 27711, Note_on_c, 13, 53, 0
20, 27720, Note_on_c, 13, 53, 84
20, 27720, Note_on_c, 13, 55, 84
20, 27771, Note_on_c, 13, 53, 0
20, 27771, Note_on_c, 13, 55, 0
20, 27780, Note_on_c, 13, 55, 84
20, 27780, Note_on_c, 13, 53, 84
20, 27831, Note_on_c, 13, 55, 0
20, 27831, Note_on_c, 13, 53, 0
20, 27840, Note_on_c, 13, 55, 84
20, 27840, Note_on_c, 13, 53, 84
20, 27891, Note_on_c, 13, 55, 0
20, 27891, Note_on_c, 13, 53, 0
20, 27900, Note_on_c, 13, 53, 84
20, 27900, Note_on_c, 13, 55, 84
20, 27951, Note_on_c, 13, 53, 0
20, 27951, Note_on_c, 13, 55, 0
20, 27960, Note_on_c, 13, 53, 84
20, 27960, Note_on_c, 13, 55, 84
20, 28011, Note_on_c, 13, 53, 0
20, 28011, Note_on_c, 13, 55, 0
20, 28020, Note_on_c, 13, 55, 84
20, 28020, Note_on_c, 13, 53, 84
20, 28071, Note_on_c, 13, 55, 0
20, 28071, Note_on_c, 13, 53, 0
20, 28080, Note_on_c, 13, 55, 84
20, 28080, Note_on_c, 13, 53, 84
20, 28131, Note_on_c, 13, 55, 0
20, 28131, Note_on_c, 13, 53, 0
20, 28140, Note_on_c, 13, 53, 84
20, 28140, Note_on_c, 13, 55, 84
20, 28191, Note_on_c, 13, 53, 0
20, 28191, Note_on_c, 13, 55, 0
20, 28200, Note_on_c, 13, 55, 84
20, 28200, Note_on_c, 13, 53, 84
20, 28251, Note_on_c, 13, 55, 0
20, 28251, Note_on_c, 13, 53, 0
20, 28260, Note_on_c, 13, 55, 84
20, 28260, Note_on_c, 13, 53, 84
20, 28311, Note_on_c, 13, 55, 0
20, 28311, Note_on_c, 13, 53, 0
20, 28320, Note_on_c, 13, 53, 84
20, 28320, Note_on_c, 13, 55, 84
20, 28371, Note_on_c, 13, 53, 0
20, 28371, Note_on_c, 13, 55, 0
20, 28380, Note_on_c, 13, 55, 84
20, 28380, Note_on_c, 13, 53, 84
20, 28431, Note_on_c, 13, 55, 0
20, 28431, Note_on_c, 13, 53, 0
20, 28440, Note_on_c, 13, 53, 84
20, 28440, Note_on_c, 13, 55, 84
20, 28491, Note_on_c, 13, 53, 0
20, 28491, Note_on_c, 13, 55, 0
20, 28500, Note_on_c, 13, 53, 84
20, 28500, Note_on_c, 13, 55, 84
20, 28551, Note_on_c, 13, 53, 0
20, 28551, Note_on_c, 13, 55, 0
20, 28560, Note_on_c, 13, 53, 84
20, 28560, Note_on_c, 13, 55, 84
20, 28611, Note_on_c, 13, 53, 0
20, 28611, Note_on_c, 13, 55, 0
20, 28620, Note_on_c, 13, 55, 84
20, 28620, Note_on_c, 13, 53, 84
20, 28671, Note_on_c, 13, 55, 0
20, 28671, Note_on_c, 13, 53, 0
20, 28680, Note_on_c, 13, 53, 84
20, 28680, Note_on_c, 13, 55, 84
20, 28731, Note_on_c, 13, 53, 0
20, 28731, Note_on_c, 13, 55, 0
20, 28740, Note_on_c, 13, 53, 84
20, 28740, Note_on_c, 13, 55, 84
20, 28791, Note_on_c, 13, 53, 0
20, 28791, Note_on_c, 13, 55, 0
20, 28800, Note_on_c, 13, 53, 84
20, 28800, Note_on_c, 13, 55, 84
20, 28851, Note_on_c, 13, 53, 0
20, 28851, Note_on_c, 13, 55, 0
20, 28860, Note_on_c, 13, 53, 84
20, 28860, Note_on_c, 13, 55, 84
20, 28911, Note_on_c, 13, 53, 0
20, 28911, Note_on_c, 13, 55, 0
20, 28920, Note_on_c, 13, 55, 84
20, 28920, Note_on_c, 13, 53, 84
20, 28971, Note_on_c, 13, 55, 0
20, 28971, Note_on_c, 13, 53, 0
20, 28980, Note_on_c, 13, 53, 84
20, 28980, Note_on_c, 13, 55, 84
20, 29031, Note_on_c, 13, 53, 0
20, 29031, Note_on_c, 13, 55, 0
20, 29040, Note_on_c, 13, 55, 84
20, 29040, Note_on_c, 13, 53, 84
20, 29091, Note_on_c, 13, 55, 0
20, 29091, Note_on_c, 13, 53, 0
20, 29100, Note_on_c, 13, 53, 84
20, 29100, Note_on_c, 13, 55, 84
20, 29151, Note_on_c, 13, 53, 0
20, 29151, Note_on_c, 13, 55, 0
20, 29160, Note_on_c, 13, 53, 84
20, 29160, Note_on_c, 13, 55, 84
20, 29211, Note_on_c, 13, 53, 0
20, 29211, Note_on_c, 13, 55, 0
20, 29220, Note_on_c, 13, 53, 84
20, 29220, Note_on_c, 13, 55, 84
20, 29271, Note_on_c, 13, 53, 0
20, 29271, Note_on_c, 13, 55, 0
20, 29280, Note_on_c, 13, 53, 84
20, 29280, Note_on_c, 13, 55, 84
20, 29331, Note_on_c, 13, 53, 0
20, 29331, Note_on_c, 13, 55, 0
20, 29340, Note_on_c, 13, 55, 84
20, 29340, Note_on_c, 13, 53, 84
20, 29391, Note_on_c, 13, 55, 0
20, 29391, Note_on_c, 13, 53, 0
20, 29400, Note_on_c, 13, 55, 84
20, 29400, Note_on_c, 13, 53, 84
20, 29451, Note_on_c, 13, 55, 0
20, 29451, Note_on_c, 13, 53, 0
20, 29460, Note_on_c, 13, 53, 84
20, 29460, Note_on_c, 13, 55, 84
20, 29511, Note_on_c, 13, 53, 0
20, 29511, Note_on_c, 13, 55, 0
20, 29520, Note_on_c, 13, 53, 84
20, 29520, Note_on_c, 13, 55, 84
20, 29571, Note_on_c, 13, 53, 0
20, 29571, Note_on_c, 13, 55, 0
20, 29580, Note_on_c, 13, 55, 84
20, 29580, Note_on_c, 13, 53, 84
20, 29631, Note_on_c, 13, 55, 0
20, 29631, Note_on_c, 13, 53, 0
20, 29640, Note_on_c, 13, 53, 84
20, 29640, Note_on_c, 13, 55, 84
20, 29691, Note_on_c, 13, 53, 0
20, 29691, Note_on_c, 13, 55, 0
20, 29700, Note_on_c, 13, 55, 84
20, 29700, Note_on_c, 13, 53, 84
20, 29751, Note_on_c, 13, 55, 0
20, 29751, Note_on_c, 13, 53, 0
20, 29760, Note_on_c, 13, 52, 84
20, 29760, Note_on_c, 13, 55, 84
20, 29811, Note_on_c, 13, 52, 0
20, 29811, Note_on_c, 13, 55, 0
20, 29820, Note_on_c, 13, 55, 84
20, 29820, Note_on_c, 13, 52, 84
20, 29871, Note_on_c, 13, 55, 0
20, 29871, Note_on_c, 13, 52, 0
20, 29880, Note_on_c, 13, 55, 84
20, 29880, Note_on_c, 13, 52, 84
20, 29931, Note_on_c, 13, 55, 0
20, 29931, Note_on_c, 13, 52, 0
20, 29940, Note_on_c, 13, 52, 84
20, 29940, Note_on_c, 13, 55, 84
20, 29991, Note_on_c, 13, 52, 0
20, 29991, Note_on_c, 13, 55, 0
20, 30000, Note_on_c, 13, 55, 84
20, 30000, Note_on_c, 13, 52, 84
20, 30051, Note_on_c, 13, 55, 0
20, 30051, Note_on_c, 13, 52, 0
20, 30060, Note_on_c, 13, 55, 84
20, 30060, Note_on_c, 13, 52, 84
20, 30111, Note_on_c, 13, 55, 0
20, 30111, Note_on_c, 13, 52, 0
20, 30120, Note_on_c, 13, 55, 84
20, 30120, Note_on_c, 13, 52, 84
20, 30171, Note_on_c, 13, 55, 0
20, 30171, Note_on_c, 13, 52, 0
20, 30180, Note_on_c, 13, 52, 84
20, 30180, Note_on_c, 13, 55, 84
20, 30231, Note_on_c, 13, 52, 0
20, 30231, Note_on_c, 13, 55, 0
20, 30240, Note_on_c, 13, 55, 84
20, 30240, Note_on_c, 13, 52, 84
20, 30291, Note_on_c, 13, 55, 0
20, 30291, Note_on_c, 13, 52, 0
20, 30300, Note_on_c, 13, 52, 84
20, 30300, Note_on_c, 13, 55, 84
20, 30351, Note_on_c, 13, 52, 0
20, 30351, Note_on_c, 13, 55, 0
20, 30360, Note_on_c, 13, 55, 84
20, 30360, Note_on_c, 13, 52, 84
20, 30411, Note_on_c, 13, 55, 0
20, 30411, Note_on_c, 13, 52, 0
20, 30420, Note_on_c, 13, 55, 84
20, 30420, Note_on_c, 13, 52, 84
20, 30471, Note_on_c, 13, 55, 0
20, 30471, Note_on_c, 13, 52, 0
20, 30480, Note_on_c, 13, 55, 84
20, 30480, Note_on_c, 13, 52, 84
20, 30531, Note_on_c, 13, 55, 0
20, 30531, Note_on_c, 13, 52, 0
20, 30540, Note_on_c, 13, 55, 84
20, 30540, Note_on_c, 13, 52, 84
20, 30591, Note_on_c, 13, 55, 0
20, 30591, Note_on_c, 13, 52, 0
20, 30600, Note_on_c, 13, 52, 84
20, 30600, Note_on_c, 13, 55, 84
20, 30651, Note_on_c, 13, 52, 0
20, 30651, Note_on_c, 13, 55, 0
20, 30660, Note_on_c, 13, 55, 84
20, 30660, Note_on_c, 13, 52, 84
20, 30711, Note_on_c, 13, 55, 0
20, 30711, Note_on_c, 13, 52, 0
20, 30720, Note_on_c, 13, 55, 84
20, 30720, Note_on_c, 13, 52, 84
20, 30771, Note_on_c, 13, 55, 0
20, 30771, Note_on_c, 13, 52, 0
20, 30780, Note_on_c, 13, 55, 84
20, 30780, Note_on_c, 13, 52, 84
20, 30831, Note_on_c, 13, 55, 0
20, 30831, Note_on_c, 13, 52, 0
20, 30840, Note_on_c, 13, 55, 84
20, 30840, Note_on_c, 13, 52, 84
20, 30891, Note_on_c, 13, 55, 0
20, 30891, Note_on_c, 13, 52, 0
20, 30900, Note_on_c, 13, 55, 84
20, 30900, Note_on_c, 13, 52, 84
20, 30951, Note_on_c, 13, 55, 0
20, 30951, Note_on_c, 13, 52, 0
20, 30960, Note_on_c, 13, 52, 84
20, 30960, Note_on_c, 13, 55, 84
20, 31011, Note_on_c, 13, 52, 0
20, 31011, Note_on_c, 13, 55, 0
20, 31020, Note_on_c, 13, 55, 84
20, 31020, Note_on_c, 13, 52, 84
20, 31071, Note_on_c, 13, 55, 0
20, 31071, Note_on_c, 13, 52, 0
20, 31080, Note_on_c, 13, 52, 84
20, 31080, Note_on_c, 13, 55, 84
20, 31131, Note_on_c, 13, 52, 0
20, 31131, Note_on_c, 13, 55, 0
20, 31140, Note_on_c, 13, 52, 84
20, 31140, Note_on_c, 13, 55, 84
20, 31191, Note_on_c, 13, 52, 0
20, 31191, Note_on_c, 13, 55, 0
20, 31200, Note_on_c, 13, 55, 84
20, 31200, Note_on_c, 13, 52, 84
20, 31251, Note_on_c, 13, 55, 0
20, 31251, Note_on_c, 13, 52, 0
20, 31260, Note_on_c, 13, 52, 84
20, 31260, Note_on_c, 13, 55, 84
20, 31311, Note_on_c, 13, 52, 0
20, 31311, Note_on_c, 13, 55, 0
20, 31320, Note_on_c, 13, 52, 84
20, 31320, Note_on_c, 13, 55, 84
20, 31371, Note_on_c, 13, 52, 0
20, 31371, Note_on_c, 13, 55, 0
20, 31380, Note_on_c, 13, 52, 84
20, 31380, Note_on_c, 13, 55, 84
20, 31431, Note_on_c, 13, 52, 0
20, 31431, Note_on_c, 13, 55, 0
20, 31440, Note_on_c, 13, 52, 84
20, 31440, Note_on_c, 13, 55, 84
20, 31491, Note_on_c, 13, 52, 0
20, 31491, Note_on_c, 13, 55, 0
20, 31500, Note_on_c, 13, 52, 84
20, 31500, Note_on_c, 13, 55, 84
20, 31551, Note_on_c, 13, 52, 0
20, 31551, Note_on_c, 13, 55, 0
20, 31560, Note_on_c, 13, 52, 84
20, 31560, Note_on_c, 13, 55, 84
20, 31611, Note_on_c, 13, 52, 0
20, 31611, Note_on_c, 13, 55, 0
20, 31620, Note_on_c, 13, 52, 84
20, 31620, Note_on_c, 13, 55, 84
20, 31671, Note_on_c, 13, 52, 0
20, 31671, Note_on_c, 13, 55, 0
20, 31680, Note_on_c, 13, 52, 84
20, 32639, Note_on_c, 13, 52, 0
20, 32640, Note_on_c, 13, 52, 84
20, 33104, Note_on_c, 13, 52, 0
20, 33120, Note_on_c, 13, 52, 84
20, 33359, Note_on_c, 13, 52, 0
20, 33360, Note_on_c, 13, 54, 84
20, 33539, Note_on_c, 13, 54, 0
20, 33540, Note_on_c, 13, 55, 84
20, 33591, Note_on_c, 13, 55, 0
20, 33600, Note_on_c, 13, 54, 84
20, 34559, Note_on_c, 13, 54, 0
20, 34560, Note_on_c, 13, 54, 84
20, 35024, Note_on_c, 13, 54, 0
20, 35040, Note_on_c, 13, 54, 84
20, 35279, Note_on_c, 13, 54, 0
20, 35280, Note_on_c, 13, 55, 84
20, 35459, Note_on_c, 13, 55, 0
20, 35460, Note_on_c, 13, 57, 84
20, 35511, Note_on_c, 13, 57, 0
20, 35520, Note_on_c, 13, 59, 84
20, 35984, Note_on_c, 13, 59, 0
20, 36000, Note_on_c, 13, 55, 84
20, 36239, Note_on_c, 13, 55, 0
20, 36240, Note_on_c, 13, 57, 84
20, 36419, Note_on_c, 13, 57, 0
20, 36420, Note_on_c, 13, 59, 84
20, 36471, Note_on_c, 13, 59, 0
20, 36480, Note_on_c, 13, 57, 84
20, 36944, Note_on_c, 13, 57, 0
20, 36960, Note_on_c, 13, 54, 84
20, 37319, Note_on_c, 13, 54, 0
20, 37320, Note_on_c, 13, 55, 84
20, 37379, Note_on_c, 13, 55, 0
20, 37380, Note_on_c, 13, 57, 84
20, 37431, Note_on_c, 13, 57, 0
20, 37440, Note_on_c, 13, 59, 84
20, 37904, Note_on_c, 13, 59, 0
20, 37920, Note_on_c, 13, 55, 84
20, 38279, Note_on_c, 13, 55, 0
20, 38280, Note_on_c, 13, 57, 84
20, 38339, Note_on_c, 13, 57, 0
20, 38340, Note_on_c, 13, 59, 84
20, 38391, Note_on_c, 13, 59, 0
20, 38400, Note_on_c, 13, 54, 84
20, 38504, Note_on_c, 13, 54, 0
20, 38520, Note_on_c, 13, 66, 84
20, 38744, Note_on_c, 13, 66, 0
20, 38760, Note_on_c, 13, 67, 84
20, 38864, Note_on_c, 13, 67, 0
20, 38880, Note_on_c, 13, 69, 84
20, 38969, Note_on_c, 13, 69, 0
20, 39000, Note_on_c, 13, 74, 84
20, 39119, Note_on_c, 13, 74, 0
20, 39120, Note_on_c, 13, 72, 84
20, 39224, Note_on_c, 13, 72, 0
20, 39240, Note_on_c, 13, 71, 84
20, 39329, Note_on_c, 13, 71, 0
20, 39360, Note_on_c, 13, 69, 84
20, 39449, Note_on_c, 13, 69, 0
20, 39480, Note_on_c, 13, 71, 84
20, 39599, Note_on_c, 13, 71, 0
20, 39600, Note_on_c, 13, 69, 84
20, 39704, Note_on_c, 13, 69, 0
20, 39720, Note_on_c, 13, 67, 84
20, 39809, Note_on_c, 13, 67, 0
20, 39840, Note_on_c, 13, 62, 84
20, 39929, Note_on_c, 13, 62, 0
20, 39960, Note_on_c, 13, 62, 84
20, 40079, Note_on_c, 13, 62, 0
20, 40080, Note_on_c, 13, 64, 84
20, 40184, Note_on_c, 13, 64, 0
20, 40200, Note_on_c, 13, 57, 84
20, 40289, Note_on_c, 13, 57, 0
20, 40320, Note_on_c, 13, 62, 84
20, 40439, Note_on_c, 13, 62, 0
20, 40920, Note_on_c, 13, 50, 84
20, 41039, Note_on_c, 13, 50, 0
20, 41040, Note_on_c, 13, 49, 84
20, 41144, Note_on_c, 13, 49, 0
20, 41160, Note_on_c, 13, 55, 84
20, 41249, Note_on_c, 13, 55, 0
20, 41280, Note_on_c, 13, 54, 84
20, 41399, Note_on_c, 13, 54, 0
20, 42000, Note_on_c, 13, 54, 84
20, 42079, Note_on_c, 13, 54, 0
20, 42080, Note_on_c, 13, 55, 84
20, 42159, Note_on_c, 13, 55, 0
20, 42160, Note_on_c, 13, 57, 84
20, 42227, Note_on_c, 13, 57, 0
20, 42240, Note_on_c, 13, 59, 84
20, 42307, Note_on_c, 13, 59, 0
20, 42320, Note_on_c, 13, 55, 84
20, 42387, Note_on_c, 13, 55, 0
20, 42400, Note_on_c, 13, 59, 84
20, 42467, Note_on_c, 13, 59, 0
20, 42480, Note_on_c, 13, 59, 84
20, 42547, Note_on_c, 13, 59, 0
20, 42560, Note_on_c, 13, 59, 84
20, 42627, Note_on_c, 13, 59, 0
20, 42640, Note_on_c, 13, 59, 84
20, 42707, Note_on_c, 13, 59, 0
20, 42720, Note_on_c, 13, 55, 84
20, 42787, Note_on_c, 13, 55, 0
20, 42800, Note_on_c, 13, 60, 84
20, 42867, Note_on_c, 13, 60, 0
20, 42880, Note_on_c, 13, 60, 84
20, 42947, Note_on_c, 13, 60, 0
20, 42960, Note_on_c, 13, 60, 84
20, 43027, Note_on_c, 13, 60, 0
20, 43040, Note_on_c, 13, 60, 84
20, 43107, Note_on_c, 13, 60, 0
20, 43120, Note_on_c, 13, 60, 84
20, 43187, Note_on_c, 13, 60, 0
20, 43200, Note_on_c, 13, 55, 84
20, 43267, Note_on_c, 13, 55, 0
20, 43280, Note_on_c, 13, 59, 84
20, 43347, Note_on_c, 13, 59, 0
20, 43360, Note_on_c, 13, 59, 84
20, 43427, Note_on_c, 13, 59, 0
20, 43440, Note_on_c, 13, 59, 84
20, 43507, Note_on_c, 13, 59, 0
20, 43520, Note_on_c, 13, 59, 84
20, 43587, Note_on_c, 13, 59, 0
20, 43600, Note_on_c, 13, 59, 84
20, 43667, Note_on_c, 13, 59, 0
20, 43680, Note_on_c, 13, 59, 84
20, 43904, Note_on_c, 13, 59, 0
20, 43920, Note_on_c, 13, 62, 52
20, 44159, Note_on_c, 13, 62, 0
20, 44160, Note_on_c, 13, 62, 52
20, 45119, Note_on_c, 13, 62, 0
20, 45120, Note_on_c, 13, 62, 52
20, 45344, Note_on_c, 13, 62, 0
20, 45358, Control_c, 13, 11, 80
20, 45360, Note_on_c, 13, 54, 76
20, 45360, Control_c, 13, 11, 80
20, 45400, Control_c, 13, 11, 84
20, 45439, Note_on_c, 13, 54, 0
20, 45440, Note_on_c, 13, 55, 76
20, 45440, Control_c, 13, 11, 88
20, 45480, Control_c, 13, 11, 92
20, 45519, Note_on_c, 13, 55, 0
20, 45520, Note_on_c, 13, 57, 76
20, 45520, Control_c, 13, 11, 96
20, 45560, Control_c, 13, 11, 100
20, 45587, Note_on_c, 13, 57, 0
20, 45600, Control_c, 13, 11, 104
20, 45600, Note_on_c, 13, 50, 76
20, 45640, Control_c, 13, 11, 107
20, 45680, Control_c, 13, 11, 111
20, 45720, Control_c, 13, 11, 115
20, 45760, Control_c, 13, 11, 119
20, 45800, Control_c, 13, 11, 127
20, 45824, Note_on_c, 13, 50, 0
20, 45840, Note_on_c, 13, 60, 76
20, 45907, Note_on_c, 13, 60, 0
20, 45920, Note_on_c, 13, 59, 76
20, 45987, Note_on_c, 13, 59, 0
20, 46000, Note_on_c, 13, 57, 76
20, 46067, Note_on_c, 13, 57, 0
20, 46080, Note_on_c, 13, 55, 76
20, 46147, Note_on_c, 13, 55, 0
20, 46160, Note_on_c, 13, 67, 76
20, 46227, Note_on_c, 13, 67, 0
20, 46240, Note_on_c, 13, 67, 76
20, 46307, Note_on_c, 13, 67, 0
20, 46320, Note_on_c, 13, 67, 76
20, 46387, Note_on_c, 13, 67, 0
20, 46400, Note_on_c, 13, 66, 76
20, 46467, Note_on_c, 13, 66, 0
20, 46480, Note_on_c, 13, 65, 76
20, 46547, Note_on_c, 13, 65, 0
20, 46560, Note_on_c, 13, 64, 76
20, 46627, Note_on_c, 13, 64, 0
20, 46640, Note_on_c, 13, 64, 76
20, 46707, Note_on_c, 13, 64, 0
20, 46720, Note_on_c, 13, 64, 76
20, 46787, Note_on_c, 13, 64, 0
20, 46800, Note_on_c, 13, 64, 76
20, 46867, Note_on_c, 13, 64, 0
20, 46880, Note_on_c, 13, 62, 76
20, 46947, Note_on_c, 13, 62, 0
20, 46960, Note_on_c, 13, 60, 76
20, 47027, Note_on_c, 13, 60, 0
20, 47040, Note_on_c, 13, 62, 76
20, 47107, Note_on_c, 13, 62, 0
20, 47120, Note_on_c, 13, 59, 76
20, 47187, Note_on_c, 13, 59, 0
20, 47200, Note_on_c, 13, 59, 76
20, 47267, Note_on_c, 13, 59, 0
20, 47280, Note_on_c, 13, 59, 76
20, 47347, Note_on_c, 13, 59, 0
20, 47360, Note_on_c, 13, 59, 76
20, 47427, Note_on_c, 13, 59, 0
20, 47440, Note_on_c, 13, 59, 76
20, 47507, Note_on_c, 13, 59, 0
20, 47520, Note_on_c, 13, 59, 76
20, 47744, Note_on_c, 13, 59, 0
20, 47760, Note_on_c, 13, 62, 52
20, 47999, Note_on_c, 13, 62, 0
20, 48000, Note_on_c, 13, 62, 52
20, 48959, Note_on_c, 13, 62, 0
20, 48960, Note_on_c, 13, 62, 52
20, 49184, Note_on_c, 13, 62, 0
20, 49200, Note_on_c, 13, 50, 76
20, 49267, Note_on_c, 13, 50, 0
20, 49280, Note_on_c, 13, 52, 76
20, 49347, Note_on_c, 13, 52, 0
20, 49360, Note_on_c, 13, 54, 76
20, 49427, Note_on_c, 13, 54, 0
20, 49440, Note_on_c, 13, 55, 76
20, 49664, Note_on_c, 13, 55, 0
20, 49680, Note_on_c, 13, 64, 52
20, 49919, Note_on_c, 13, 64, 0
20, 49920, Note_on_c, 13, 64, 52
20, 50879, Note_on_c, 13, 64, 0
20, 50880, Note_on_c, 13, 64, 52
20, 51104, Note_on_c, 13, 64, 0
20, 51120, Note_on_c, 13, 52, 76
20, 51187, Note_on_c, 13, 52, 0
20, 51200, Note_on_c, 13, 54, 76
20, 51267, Note_on_c, 13, 54, 0
20, 51280, Note_on_c, 13, 56, 76
20, 51347, Note_on_c, 13, 56, 0
20, 51360, Note_on_c, 13, 57, 76
20, 51599, Note_on_c, 13, 57, 0
20, 52440, Note_on_c, 13, 60, 44
20, 52559, Note_on_c, 13, 60, 0
20, 52560, Note_on_c, 13, 59, 44
20, 52679, Note_on_c, 13, 59, 0
20, 52680, Note_on_c, 13, 60, 44
20, 52784, Note_on_c, 13, 60, 0
20, 52800, Note_on_c, 13, 59, 44
20, 52800, Note_on_c, 13, 62, 44
20, 52851, Note_on_c, 13, 59, 0
20, 52851, Note_on_c, 13, 62, 0
20, 52860, Note_on_c, 13, 59, 45
20, 52860, Note_on_c, 13, 62, 45
20, 52911, Note_on_c, 13, 59, 0
20, 52911, Note_on_c, 13, 62, 0
20, 52920, Note_on_c, 13, 59, 46
20, 52920, Note_on_c, 13, 62, 46
20, 52971, Note_on_c, 13, 59, 0
20, 52971, Note_on_c, 13, 62, 0
20, 52980, Note_on_c, 13, 59, 47
20, 52980, Note_on_c, 13, 62, 47
20, 53031, Note_on_c, 13, 59, 0
20, 53031, Note_on_c, 13, 62, 0
20, 53040, Note_on_c, 13, 59, 49
20, 53040, Note_on_c, 13, 62, 49
20, 53091, Note_on_c, 13, 59, 0
20, 53091, Note_on_c, 13, 62, 0
20, 53100, Note_on_c, 13, 59, 50
20, 53100, Note_on_c, 13, 62, 50
20, 53151, Note_on_c, 13, 59, 0
20, 53151, Note_on_c, 13, 62, 0
20, 53160, Note_on_c, 13, 62, 51
20, 53160, Note_on_c, 13, 59, 51
20, 53211, Note_on_c, 13, 62, 0
20, 53211, Note_on_c, 13, 59, 0
20, 53220, Note_on_c, 13, 62, 52
20, 53220, Note_on_c, 13, 59, 52
20, 53271, Note_on_c, 13, 62, 0
20, 53271, Note_on_c, 13, 59, 0
20, 53280, Note_on_c, 13, 59, 54
20, 53280, Note_on_c, 13, 62, 54
20, 53331, Note_on_c, 13, 59, 0
20, 53331, Note_on_c, 13, 62, 0
20, 53340, Note_on_c, 13, 59, 55
20, 53340, Note_on_c, 13, 62, 55
20, 53391, Note_on_c, 13, 59, 0
20, 53391, Note_on_c, 13, 62, 0
20, 53400, Note_on_c, 13, 59, 56
20, 53400, Note_on_c, 13, 62, 56
20, 53451, Note_on_c, 13, 59, 0
20, 53451, Note_on_c, 13, 62, 0
20, 53460, Note_on_c, 13, 62, 57
20, 53460, Note_on_c, 13, 59, 57
20, 53511, Note_on_c, 13, 62, 0
20, 53511, Note_on_c, 13, 59, 0
20, 53520, Note_on_c, 13, 59, 59
20, 53520, Note_on_c, 13, 62, 59
20, 53571, Note_on_c, 13, 59, 0
20, 53571, Note_on_c, 13, 62, 0
20, 53580, Note_on_c, 13, 62, 60
20, 53580, Note_on_c, 13, 59, 60
20, 53631, Note_on_c, 13, 62, 0
20, 53631, Note_on_c, 13, 59, 0
20, 53640, Note_on_c, 13, 59, 61
20, 53640, Note_on_c, 13, 62, 61
20, 53691, Note_on_c, 13, 59, 0
20, 53691, Note_on_c, 13, 62, 0
20, 53700, Note_on_c, 13, 59, 62
20, 53700, Note_on_c, 13, 62, 62
20, 53751, Note_on_c, 13, 59, 0
20, 53751, Note_on_c, 13, 62, 0
20, 53760, Note_on_c, 13, 59, 64
20, 53760, Note_on_c, 13, 63, 64
20, 53811, Note_on_c, 13, 59, 0
20, 53811, Note_on_c, 13, 63, 0
20, 53820, Note_on_c, 13, 59, 65
20, 53820, Note_on_c, 13, 63, 65
20, 53871, Note_on_c, 13, 59, 0
20, 53871, Note_on_c, 13, 63, 0
20, 53880, Note_on_c, 13, 63, 66
20, 53880, Note_on_c, 13, 59, 66
20, 53931, Note_on_c, 13, 63, 0
20, 53931, Note_on_c, 13, 59, 0
20, 53940, Note_on_c, 13, 63, 67
20, 53940, Note_on_c, 13, 59, 67
20, 53991, Note_on_c, 13, 63, 0
20, 53991, Note_on_c, 13, 59, 0
20, 54000, Note_on_c, 13, 63, 69
20, 54000, Note_on_c, 13, 59, 69
20, 54051, Note_on_c, 13, 63, 0
20, 54051, Note_on_c, 13, 59, 0
20, 54060, Note_on_c, 13, 59, 70
20, 54060, Note_on_c, 13, 63, 70
20, 54111, Note_on_c, 13, 59, 0
20, 54111, Note_on_c, 13, 63, 0
20, 54120, Note_on_c, 13, 59, 71
20, 54120, Note_on_c, 13, 63, 71
20, 54171, Note_on_c, 13, 59, 0
20, 54171, Note_on_c, 13, 63, 0
20, 54180, Note_on_c, 13, 63, 72
20, 54180, Note_on_c, 13, 59, 72
20, 54231, Note_on_c, 13, 63, 0
20, 54231, Note_on_c, 13, 59, 0
20, 54240, Note_on_c, 13, 59, 74
20, 54240, Note_on_c, 13, 63, 74
20, 54291, Note_on_c, 13, 59, 0
20, 54291, Note_on_c, 13, 63, 0
20, 54300, Note_on_c, 13, 63, 75
20, 54300, Note_on_c, 13, 59, 75
20, 54351, Note_on_c, 13, 63, 0
20, 54351, Note_on_c, 13, 59, 0
20, 54360, Note_on_c, 13, 59, 76
20, 54360, Note_on_c, 13, 63, 76
20, 54411, Note_on_c, 13, 59, 0
20, 54411, Note_on_c, 13, 63, 0
20, 54420, Note_on_c, 13, 63, 77
20, 54420, Note_on_c, 13, 59, 77
20, 54471, Note_on_c, 13, 63, 0
20, 54471, Note_on_c, 13, 59, 0
20, 54480, Note_on_c, 13, 59, 79
20, 54480, Note_on_c, 13, 63, 79
20, 54531, Note_on_c, 13, 59, 0
20, 54531, Note_on_c, 13, 63, 0
20, 54540, Note_on_c, 13, 59, 80
20, 54540, Note_on_c, 13, 63, 80
20, 54591, Note_on_c, 13, 59, 0
20, 54591, Note_on_c, 13, 63, 0
20, 54600, Note_on_c, 13, 63, 81
20, 54600, Note_on_c, 13, 59, 81
20, 54651, Note_on_c, 13, 63, 0
20, 54651, Note_on_c, 13, 59, 0
20, 54660, Note_on_c, 13, 59, 82
20, 54660, Note_on_c, 13, 63, 82
20, 54711, Note_on_c, 13, 59, 0
20, 54711, Note_on_c, 13, 63, 0
20, 54720, Note_on_c, 13, 64, 84
20, 54720, Note_on_c, 13, 60, 84
20, 54771, Note_on_c, 13, 64, 0
20, 54771, Note_on_c, 13, 60, 0
20, 54780, Note_on_c, 13, 60, 84
20, 54780, Note_on_c, 13, 64, 84
20, 54831, Note_on_c, 13, 60, 0
20, 54831, Note_on_c, 13, 64, 0
20, 54840, Note_on_c, 13, 60, 84
20, 54840, Note_on_c, 13, 64, 84
20, 54891, Note_on_c, 13, 60, 0
20, 54891, Note_on_c, 13, 64, 0
20, 54900, Note_on_c, 13, 60, 84
20, 54900, Note_on_c, 13, 64, 84
20, 54951, Note_on_c, 13, 60, 0
20, 54951, Note_on_c, 13, 64, 0
20, 54960, Note_on_c, 13, 60, 84
20, 54960, Note_on_c, 13, 64, 84
20, 55011, Note_on_c, 13, 60, 0
20, 55011, Note_on_c, 13, 64, 0
20, 55020, Note_on_c, 13, 60, 84
20, 55020, Note_on_c, 13, 64, 84
20, 55071, Note_on_c, 13, 60, 0
20, 55071, Note_on_c, 13, 64, 0
20, 55080, Note_on_c, 13, 64, 84
20, 55080, Note_on_c, 13, 60, 84
20, 55131, Note_on_c, 13, 64, 0
20, 55131, Note_on_c, 13, 60, 0
20, 55140, Note_on_c, 13, 64, 84
20, 55140, Note_on_c, 13, 60, 84
20, 55191, Note_on_c, 13, 64, 0
20, 55191, Note_on_c, 13, 60, 0
20, 55200, Note_on_c, 13, 60, 84
20, 55200, Note_on_c, 13, 64, 84
20, 55251, Note_on_c, 13, 60, 0
20, 55251, Note_on_c, 13, 64, 0
20, 55260, Note_on_c, 13, 48, 84
20, 55311, Note_on_c, 13, 48, 0
20, 55320, Note_on_c, 13, 50, 84
20, 55371, Note_on_c, 13, 50, 0
20, 55380, Note_on_c, 13, 52, 84
20, 55431, Note_on_c, 13, 52, 0
20, 55440, Note_on_c, 13, 53, 84
20, 55491, Note_on_c, 13, 53, 0
20, 55500, Note_on_c, 13, 55, 84
20, 55551, Note_on_c, 13, 55, 0
20, 55560, Note_on_c, 13, 57, 84
20, 55611, Note_on_c, 13, 57, 0
20, 55620, Note_on_c, 13, 59, 84
20, 55671, Note_on_c, 13, 59, 0
20, 55680, Note_on_c, 13, 60, 84
20, 55731, Note_on_c, 13, 60, 0
20, 55740, Note_on_c, 13, 48, 84
20, 55740, Note_on_c, 13, 52, 84
20, 55791, Note_on_c, 13, 48, 0
20, 55791, Note_on_c, 13, 52, 0
20, 55800, Note_on_c, 13, 50, 84
20, 55800, Note_on_c, 13, 53, 84
20, 55851, Note_on_c, 13, 50, 0
20, 55851, Note_on_c, 13, 53, 0
20, 55860, Note_on_c, 13, 55, 84
20, 55860, Note_on_c, 13, 52, 84
20, 55911, Note_on_c, 13, 55, 0
20, 55911, Note_on_c, 13, 52, 0
20, 55920, Note_on_c, 13, 57, 84
20, 55920, Note_on_c, 13, 53, 84
20, 55971, Note_on_c, 13, 57, 0
20, 55971, Note_on_c, 13, 53, 0
20, 55980, Note_on_c, 13, 59, 84
20, 55980, Note_on_c, 13, 55, 84
20, 56031, Note_on_c, 13, 59, 0
20, 56031, Note_on_c, 13, 55, 0
20, 56040, Note_on_c, 13, 60, 84
20, 56040, Note_on_c, 13, 57, 84
20, 56091, Note_on_c, 13, 60, 0
20, 56091, Note_on_c, 13, 57, 0
20, 56100, Note_on_c, 13, 59, 84
20, 56100, Note_on_c, 13, 62, 84
20, 56151, Note_on_c, 13, 59, 0
20, 56151, Note_on_c, 13, 62, 0
20, 56160, Note_on_c, 13, 60, 84
20, 56160, Note_on_c, 13, 64, 84
20, 56211, Note_on_c, 13, 60, 0
20, 56211, Note_on_c, 13, 64, 0
20, 56220, Note_on_c, 13, 52, 84
20, 56220, Note_on_c, 13, 60, 84
20, 56271, Note_on_c, 13, 52, 0
20, 56271, Note_on_c, 13, 60, 0
20, 56280, Note_on_c, 13, 53, 84
20, 56280, Note_on_c, 13, 62, 84
20, 56331, Note_on_c, 13, 53, 0
20, 56331, Note_on_c, 13, 62, 0
20, 56340, Note_on_c, 13, 55, 84
20, 56340, Note_on_c, 13, 64, 84
20, 56391, Note_on_c, 13, 55, 0
20, 56391, Note_on_c, 13, 64, 0
20, 56400, Note_on_c, 13, 57, 84
20, 56400, Note_on_c, 13, 65, 84
20, 56451, Note_on_c, 13, 57, 0
20, 56451, Note_on_c, 13, 65, 0
20, 56460, Note_on_c, 13, 59, 84
20, 56460, Note_on_c, 13, 67, 84
20, 56511, Note_on_c, 13, 59, 0
20, 56511, Note_on_c, 13, 67, 0
20, 56520, Note_on_c, 13, 60, 84
20, 56520, Note_on_c, 13, 69, 84
20, 56571, Note_on_c, 13, 60, 0
20, 56571, Note_on_c, 13, 69, 0
20, 56580, Note_on_c, 13, 71, 84
20, 56580, Note_on_c, 13, 62, 84
20, 56631, Note_on_c, 13, 71, 0
20, 56631, Note_on_c, 13, 62, 0
20, 56640, Note_on_c, 13, 64, 84
20, 56640, Note_on_c, 13, 72, 84
20, 56691, Note_on_c, 13, 64, 0
20, 56691, Note_on_c, 13, 72, 0
20, 56700, Note_on_c, 13, 60, 84
20, 56751, Note_on_c, 13, 60, 0
20, 56760, Note_on_c, 13, 60, 84
20, 56811, Note_on_c, 13, 60, 0
20, 56820, Note_on_c, 13, 60, 84
20, 56871, Note_on_c, 13, 60, 0
20, 56880, Note_on_c, 13, 61, 84
20, 56931, Note_on_c, 13, 61, 0
20, 56940, Note_on_c, 13, 61, 84
20, 56991, Note_on_c, 13, 61, 0
20, 57000, Note_on_c, 13, 61, 84
20, 57051, Note_on_c, 13, 61, 0
20, 57060, Note_on_c, 13, 61, 84
20, 57111, Note_on_c, 13, 61, 0
20, 57120, Note_on_c, 13, 62, 84
20, 57171, Note_on_c, 13, 62, 0
20, 57180, Note_on_c, 13, 62, 84
20, 57231, Note_on_c, 13, 62, 0
20, 57240, Note_on_c, 13, 62, 84
20, 57291, Note_on_c, 13, 62, 0
20, 57300, Note_on_c, 13, 62, 84
20, 57351, Note_on_c, 13, 62, 0
20, 57360, Note_on_c, 13, 63, 84
20, 57411, Note_on_c, 13, 63, 0
20, 57420, Note_on_c, 13, 63, 84
20, 57471, Note_on_c, 13, 63, 0
20, 57480, Note_on_c, 13, 63, 84
20, 57531, Note_on_c, 13, 63, 0
20, 57540, Note_on_c, 13, 63, 84
20, 57591, Note_on_c, 13, 63, 0
20, 57600, Note_on_c, 13, 64, 84
20, 57651, Note_on_c, 13, 64, 0
20, 57660, Note_on_c, 13, 64, 84
20, 57711, Note_on_c, 13, 64, 0
20, 57720, Note_on_c, 13, 64, 84
20, 57771, Note_on_c, 13, 64, 0
20, 57780, Note_on_c, 13, 64, 84
20, 57831, Note_on_c, 13, 64, 0
20, 57840, Note_on_c, 13, 66, 84
20, 57891, Note_on_c, 13, 66, 0
20, 57900, Note_on_c, 13, 66, 84
20, 57951, Note_on_c, 13, 66, 0
20, 57960, Note_on_c, 13, 66, 84
20, 58011, Note_on_c, 13, 66, 0
20, 58020, Note_on_c, 13, 66, 84
20, 58071, Note_on_c, 13, 66, 0
20, 58080, Note_on_c, 13, 67, 84
20, 58131, Note_on_c, 13, 67, 0
20, 58140, Note_on_c, 13, 67, 84
20, 58191, Note_on_c, 13, 67, 0
20, 58200, Note_on_c, 13, 59, 84
20, 58251, Note_on_c, 13, 59, 0
20, 58260, Note_on_c, 13, 59, 84
20, 58311, Note_on_c, 13, 59, 0
20, 58320, Note_on_c, 13, 60, 84
20, 58371, Note_on_c, 13, 60, 0
20, 58380, Note_on_c, 13, 60, 84
20, 58431, Note_on_c, 13, 60, 0
20, 58440, Note_on_c, 13, 62, 84
20, 58491, Note_on_c, 13, 62, 0
20, 58500, Note_on_c, 13, 62, 84
20, 58551, Note_on_c, 13, 62, 0
20, 58560, Note_on_c, 13, 64, 84
20, 58739, Note_on_c, 13, 64, 0
20, 59520, Note_on_c, 13, 62, 84
20, 59699, Note_on_c, 13, 62, 0
20, 60480, Note_on_c, 13, 67, 76
20, 60539, Note_on_c, 13, 67, 0
20, 60540, Note_on_c, 13, 67, 52
20, 61199, Note_on_c, 13, 67, 0
20, 61200, Note_on_c, 13, 66, 52
20, 61439, Note_on_c, 13, 66, 0
20, 61440, Note_on_c, 13, 64, 52
20, 61679, Note_on_c, 13, 64, 0
20, 61680, Note_on_c, 13, 62, 52
20, 61904, Note_on_c, 13, 62, 0
20, 61920, Note_on_c, 13, 62, 52
20, 62144, Note_on_c, 13, 62, 0
20, 62160, Note_on_c, 13, 62, 52
20, 62384, Note_on_c, 13, 62, 0
20, 62400, Note_on_c, 13, 67, 76
20, 62459, Note_on_c, 13, 67, 0
20, 62460, Note_on_c, 13, 67, 52
20, 63119, Note_on_c, 13, 67, 0
20, 63120, Note_on_c, 13, 66, 52
20, 63359, Note_on_c, 13, 66, 0
20, 63360, Note_on_c, 13, 64, 52
20, 63599, Note_on_c, 13, 64, 0
20, 63600, Note_on_c, 13, 62, 52
20, 63824, Note_on_c, 13, 62, 0
20, 63840, Note_on_c, 13, 62, 52
20, 64064, Note_on_c, 13, 62, 0
20, 64080, Note_on_c, 13, 62, 52
20, 64304, Note_on_c, 13, 62, 0
20, 64320, Note_on_c, 13, 72, 76
20, 64379, Note_on_c, 13, 72, 0
20, 64380, Note_on_c, 13, 72, 52
20, 65039, Note_on_c, 13, 72, 0
20, 65040, Note_on_c, 13, 71, 52
20, 65279, Note_on_c, 13, 71, 0
20, 65280, Note_on_c, 13, 69, 52
20, 65519, Note_on_c, 13, 69, 0
20, 65520, Note_on_c, 13, 68, 52
20, 65744, Note_on_c, 13, 68, 0
20, 65760, Note_on_c, 13, 68, 52
20, 65984, Note_on_c, 13, 68, 0
20, 66000, Note_on_c, 13, 68, 52
20, 66224, Note_on_c, 13, 68, 0
20, 66240, Note_on_c, 13, 69, 52
20, 66704, Note_on_c, 13, 69, 0
20, 66720, Note_on_c, 13, 72, 52
20, 67139, Note_on_c, 13, 72, 0
20, 67140, Note_on_c, 13, 69, 52
20, 67199, Note_on_c, 13, 69, 0
20, 67200, Note_on_c, 13, 67, 52
20, 67679, Note_on_c, 13, 67, 0
20, 67680, Note_on_c, 13, 69, 52
20, 68099, Note_on_c, 13, 69, 0
20, 68100, Note_on_c, 13, 66, 52
20, 68151, Note_on_c, 13, 66, 0
20, 68160, Note_on_c, 13, 59, 76
20, 68160, Note_on_c, 13, 62, 76
20, 68211, Note_on_c, 13, 59, 0
20, 68211, Note_on_c, 13, 62, 0
20, 68220, Note_on_c, 13, 62, 76
20, 68220, Note_on_c, 13, 59, 76
20, 68271, Note_on_c, 13, 62, 0
20, 68271, Note_on_c, 13, 59, 0
20, 68280, Note_on_c, 13, 59, 76
20, 68280, Note_on_c, 13, 62, 76
20, 68331, Note_on_c, 13, 59, 0
20, 68331, Note_on_c, 13, 62, 0
20, 68340, Note_on_c, 13, 62, 76
20, 68340, Note_on_c, 13, 59, 76
20, 68391, Note_on_c, 13, 62, 0
20, 68391, Note_on_c, 13, 59, 0
20, 68400, Note_on_c, 13, 62, 76
20, 68400, Note_on_c, 13, 59, 76
20, 68451, Note_on_c, 13, 62, 0
20, 68451, Note_on_c, 13, 59, 0
20, 68460, Note_on_c, 13, 62, 76
20, 68460, Note_on_c, 13, 59, 76
20, 68511, Note_on_c, 13, 62, 0
20, 68511, Note_on_c, 13, 59, 0
20, 68520, Note_on_c, 13, 59, 76
20, 68520, Note_on_c, 13, 62, 76
20, 68571, Note_on_c, 13, 59, 0
20, 68571, Note_on_c, 13, 62, 0
20, 68580, Note_on_c, 13, 62, 76
20, 68580, Note_on_c, 13, 59, 76
20, 68631, Note_on_c, 13, 62, 0
20, 68631, Note_on_c, 13, 59, 0
20, 68640, Note_on_c, 13, 62, 76
20, 68640, Note_on_c, 13, 59, 76
20, 68691, Note_on_c, 13, 62, 0
20, 68691, Note_on_c, 13, 59, 0
20, 68700, Note_on_c, 13, 62, 76
20, 68700, Note_on_c, 13, 59, 76
20, 68751, Note_on_c, 13, 62, 0
20, 68751, Note_on_c, 13, 59, 0
20, 68760, Note_on_c, 13, 59, 76
20, 68760, Note_on_c, 13, 62, 76
20, 68811, Note_on_c, 13, 59, 0
20, 68811, Note_on_c, 13, 62, 0
20, 68820, Note_on_c, 13, 59, 76
20, 68820, Note_on_c, 13, 62, 76
20, 68871, Note_on_c, 13, 59, 0
20, 68871, Note_on_c, 13, 62, 0
20, 68880, Note_on_c, 13, 57, 76
20, 68880, Note_on_c, 13, 60, 76
20, 68931, Note_on_c, 13, 57, 0
20, 68931, Note_on_c, 13, 60, 0
20, 68940, Note_on_c, 13, 57, 76
20, 68940, Note_on_c, 13, 60, 76
20, 68991, Note_on_c, 13, 57, 0
20, 68991, Note_on_c, 13, 60, 0
20, 69000, Note_on_c, 13, 60, 76
20, 69000, Note_on_c, 13, 57, 76
20, 69051, Note_on_c, 13, 60, 0
20, 69051, Note_on_c, 13, 57, 0
20, 69060, Note_on_c, 13, 57, 76
20, 69060, Note_on_c, 13, 60, 76
20, 69111, Note_on_c, 13, 57, 0
20, 69111, Note_on_c, 13, 60, 0
20, 69120, Note_on_c, 13, 55, 76
20, 69120, Note_on_c, 13, 60, 76
20, 69171, Note_on_c, 13, 55, 0
20, 69171, Note_on_c, 13, 60, 0
20, 69180, Note_on_c, 13, 55, 76
20, 69180, Note_on_c, 13, 60, 76
20, 69231, Note_on_c, 13, 55, 0
20, 69231, Note_on_c, 13, 60, 0
20, 69240, Note_on_c, 13, 60, 76
20, 69240, Note_on_c, 13, 55, 76
20, 69291, Note_on_c, 13, 60, 0
20, 69291, Note_on_c, 13, 55, 0
20, 69300, Note_on_c, 13, 60, 76
20, 69300, Note_on_c, 13, 55, 76
20, 69351, Note_on_c, 13, 60, 0
20, 69351, Note_on_c, 13, 55, 0
20, 69360, Note_on_c, 13, 57, 76
20, 69360, Note_on_c, 13, 60, 76
20, 69411, Note_on_c, 13, 57, 0
20, 69411, Note_on_c, 13, 60, 0
20, 69420, Note_on_c, 13, 60, 76
20, 69420, Note_on_c, 13, 57, 76
20, 69471, Note_on_c, 13, 60, 0
20, 69471, Note_on_c, 13, 57, 0
20, 69480, Note_on_c, 13, 57, 76
20, 69480, Note_on_c, 13, 60, 76
20, 69531, Note_on_c, 13, 57, 0
20, 69531, Note_on_c, 13, 60, 0
20, 69540, Note_on_c, 13, 57, 76
20, 69540, Note_on_c, 13, 60, 76
20, 69591, Note_on_c, 13, 57, 0
20, 69591, Note_on_c, 13, 60, 0
20, 69600, Note_on_c, 13, 60, 76
20, 69600, Note_on_c, 13, 57, 76
20, 69651, Note_on_c, 13, 60, 0
20, 69651, Note_on_c, 13, 57, 0
20, 69660, Note_on_c, 13, 60, 76
20, 69660, Note_on_c, 13, 57, 76
20, 69711, Note_on_c, 13, 60, 0
20, 69711, Note_on_c, 13, 57, 0
20, 69720, Note_on_c, 13, 60, 76
20, 69720, Note_on_c, 13, 57, 76
20, 69771, Note_on_c, 13, 60, 0
20, 69771, Note_on_c, 13, 57, 0
20, 69780, Note_on_c, 13, 57, 76
20, 69780, Note_on_c, 13, 60, 76
20, 69831, Note_on_c, 13, 57, 0
20, 69831, Note_on_c, 13, 60, 0
20, 69840, Note_on_c, 13, 57, 76
20, 69840, Note_on_c, 13, 60, 76
20, 69891, Note_on_c, 13, 57, 0
20, 69891, Note_on_c, 13, 60, 0
20, 69900, Note_on_c, 13, 60, 76
20, 69900, Note_on_c, 13, 57, 76
20, 69951, Note_on_c, 13, 60, 0
20, 69951, Note_on_c, 13, 57, 0
20, 69960, Note_on_c, 13, 57, 76
20, 69960, Note_on_c, 13, 60, 76
20, 70011, Note_on_c, 13, 57, 0
20, 70011, Note_on_c, 13, 60, 0
20, 70020, Note_on_c, 13, 57, 76
20, 70020, Note_on_c, 13, 60, 76
20, 70071, Note_on_c, 13, 57, 0
20, 70071, Note_on_c, 13, 60, 0
20, 70080, Note_on_c, 13, 59, 84
20, 70080, Note_on_c, 13, 62, 84
20, 70131, Note_on_c, 13, 59, 0
20, 70131, Note_on_c, 13, 62, 0
20, 70140, Note_on_c, 13, 62, 76
20, 70140, Note_on_c, 13, 59, 76
20, 70191, Note_on_c, 13, 62, 0
20, 70191, Note_on_c, 13, 59, 0
20, 70200, Note_on_c, 13, 62, 76
20, 70200, Note_on_c, 13, 59, 76
20, 70251, Note_on_c, 13, 62, 0
20, 70251, Note_on_c, 13, 59, 0
20, 70260, Note_on_c, 13, 62, 76
20, 70260, Note_on_c, 13, 59, 76
20, 70311, Note_on_c, 13, 62, 0
20, 70311, Note_on_c, 13, 59, 0
20, 70320, Note_on_c, 13, 62, 76
20, 70320, Note_on_c, 13, 59, 76
20, 70371, Note_on_c, 13, 62, 0
20, 70371, Note_on_c, 13, 59, 0
20, 70380, Note_on_c, 13, 59, 76
20, 70380, Note_on_c, 13, 62, 76
20, 70431, Note_on_c, 13, 59, 0
20, 70431, Note_on_c, 13, 62, 0
20, 70440, Note_on_c, 13, 62, 76
20, 70440, Note_on_c, 13, 59, 76
20, 70491, Note_on_c, 13, 62, 0
20, 70491, Note_on_c, 13, 59, 0
20, 70500, Note_on_c, 13, 62, 76
20, 70500, Note_on_c, 13, 59, 76
20, 70551, Note_on_c, 13, 62, 0
20, 70551, Note_on_c, 13, 59, 0
20, 70560, Note_on_c, 13, 62, 76
20, 70560, Note_on_c, 13, 59, 76
20, 70611, Note_on_c, 13, 62, 0
20, 70611, Note_on_c, 13, 59, 0
20, 70620, Note_on_c, 13, 62, 76
20, 70620, Note_on_c, 13, 59, 76
20, 70671, Note_on_c, 13, 62, 0
20, 70671, Note_on_c, 13, 59, 0
20, 70680, Note_on_c, 13, 62, 76
20, 70680, Note_on_c, 13, 59, 76
20, 70731, Note_on_c, 13, 62, 0
20, 70731, Note_on_c, 13, 59, 0
20, 70740, Note_on_c, 13, 59, 76
20, 70740, Note_on_c, 13, 62, 76
20, 70791, Note_on_c, 13, 59, 0
20, 70791, Note_on_c, 13, 62, 0
20, 70800, Note_on_c, 13, 60, 76
20, 70800, Note_on_c, 13, 57, 76
20, 70851, Note_on_c, 13, 60, 0
20, 70851, Note_on_c, 13, 57, 0
20, 70860, Note_on_c, 13, 57, 76
20, 70860, Note_on_c, 13, 60, 76
20, 70911, Note_on_c, 13, 57, 0
20, 70911, Note_on_c, 13, 60, 0
20, 70920, Note_on_c, 13, 60, 76
20, 70920, Note_on_c, 13, 57, 76
20, 70971, Note_on_c, 13, 60, 0
20, 70971, Note_on_c, 13, 57, 0
20, 70980, Note_on_c, 13, 60, 76
20, 70980, Note_on_c, 13, 57, 76
20, 71031, Note_on_c, 13, 60, 0
20, 71031, Note_on_c, 13, 57, 0
20, 71040, Note_on_c, 13, 55, 76
20, 71040, Note_on_c, 13, 60, 76
20, 71091, Note_on_c, 13, 55, 0
20, 71091, Note_on_c, 13, 60, 0
20, 71100, Note_on_c, 13, 60, 76
20, 71100, Note_on_c, 13, 55, 76
20, 71151, Note_on_c, 13, 60, 0
20, 71151, Note_on_c, 13, 55, 0
20, 71160, Note_on_c, 13, 60, 76
20, 71160, Note_on_c, 13, 55, 76
20, 71211, Note_on_c, 13, 60, 0
20, 71211, Note_on_c, 13, 55, 0
20, 71220, Note_on_c, 13, 60, 76
20, 71220, Note_on_c, 13, 55, 76
20, 71271, Note_on_c, 13, 60, 0
20, 71271, Note_on_c, 13, 55, 0
20, 71280, Note_on_c, 13, 60, 76
20, 71280, Note_on_c, 13, 57, 76
20, 71331, Note_on_c, 13, 60, 0
20, 71331, Note_on_c, 13, 57, 0
20, 71340, Note_on_c, 13, 60, 76
20, 71340, Note_on_c, 13, 57, 76
20, 71391, Note_on_c, 13, 60, 0
20, 71391, Note_on_c, 13, 57, 0
20, 71400, Note_on_c, 13, 60, 76
20, 71400, Note_on_c, 13, 57, 76
20, 71451, Note_on_c, 13, 60, 0
20, 71451, Note_on_c, 13, 57, 0
20, 71460, Note_on_c, 13, 57, 76
20, 71460, Note_on_c, 13, 60, 76
20, 71511, Note_on_c, 13, 57, 0
20, 71511, Note_on_c, 13, 60, 0
20, 71520, Note_on_c, 13, 60, 76
20, 71520, Note_on_c, 13, 57, 76
20, 71571, Note_on_c, 13, 60, 0
20, 71571, Note_on_c, 13, 57, 0
20, 71580, Note_on_c, 13, 57, 76
20, 71580, Note_on_c, 13, 60, 76
20, 71631, Note_on_c, 13, 57, 0
20, 71631, Note_on_c, 13, 60, 0
20, 71640, Note_on_c, 13, 57, 76
20, 71640, Note_on_c, 13, 60, 76
20, 71691, Note_on_c, 13, 57, 0
20, 71691, Note_on_c, 13, 60, 0
20, 71700, Note_on_c, 13, 60, 76
20, 71700, Note_on_c, 13, 57, 76
20, 71751, Note_on_c, 13, 60, 0
20, 71751, Note_on_c, 13, 57, 0
20, 71760, Note_on_c, 13, 57, 76
20, 71760, Note_on_c, 13, 60, 76
20, 71811, Note_on_c, 13, 57, 0
20, 71811, Note_on_c, 13, 60, 0
20, 71820, Note_on_c, 13, 57, 76
20, 71820, Note_on_c, 13, 60, 76
20, 71871, Note_on_c, 13, 57, 0
20, 71871, Note_on_c, 13, 60, 0
20, 71880, Note_on_c, 13, 57, 76
20, 71880, Note_on_c, 13, 60, 76
20, 71931, Note_on_c, 13, 57, 0
20, 71931, Note_on_c, 13, 60, 0
20, 71940, Note_on_c, 13, 60, 76
20, 71940, Note_on_c, 13, 57, 76
20, 71991, Note_on_c, 13, 60, 0
20, 71991, Note_on_c, 13, 57, 0
20, 72000, Note_on_c, 13, 62, 84
20, 72000, Note_on_c, 13, 57, 84
20, 72051, Note_on_c, 13, 62, 0
20, 72051, Note_on_c, 13, 57, 0
20, 72060, Note_on_c, 13, 57, 76
20, 72060, Note_on_c, 13, 62, 76
20, 72111, Note_on_c, 13, 57, 0
20, 72111, Note_on_c, 13, 62, 0
20, 72120, Note_on_c, 13, 62, 76
20, 72120, Note_on_c, 13, 57, 76
20, 72171, Note_on_c, 13, 62, 0
20, 72171, Note_on_c, 13, 57, 0
20, 72180, Note_on_c, 13, 57, 76
20, 72180, Note_on_c, 13, 62, 76
20, 72231, Note_on_c, 13, 57, 0
20, 72231, Note_on_c, 13, 62, 0
20, 72240, Note_on_c, 13, 57, 76
20, 72240, Note_on_c, 13, 62, 76
20, 72291, Note_on_c, 13, 57, 0
20, 72291, Note_on_c, 13, 62, 0
20, 72300, Note_on_c, 13, 57, 76
20, 72300, Note_on_c, 13, 62, 76
20, 72351, Note_on_c, 13, 57, 0
20, 72351, Note_on_c, 13, 62, 0
20, 72360, Note_on_c, 13, 62, 76
20, 72360, Note_on_c, 13, 57, 76
20, 72411, Note_on_c, 13, 62, 0
20, 72411, Note_on_c, 13, 57, 0
20, 72420, Note_on_c, 13, 62, 76
20, 72420, Note_on_c, 13, 57, 76
20, 72471, Note_on_c, 13, 62, 0
20, 72471, Note_on_c, 13, 57, 0
20, 72480, Note_on_c, 13, 62, 76
20, 72480, Note_on_c, 13, 57, 76
20, 72531, Note_on_c, 13, 62, 0
20, 72531, Note_on_c, 13, 57, 0
20, 72540, Note_on_c, 13, 57, 76
20, 72540, Note_on_c, 13, 62, 76
20, 72591, Note_on_c, 13, 57, 0
20, 72591, Note_on_c, 13, 62, 0
20, 72600, Note_on_c, 13, 62, 76
20, 72600, Note_on_c, 13, 57, 76
20, 72651, Note_on_c, 13, 62, 0
20, 72651, Note_on_c, 13, 57, 0
20, 72660, Note_on_c, 13, 57, 76
20, 72660, Note_on_c, 13, 62, 76
20, 72711, Note_on_c, 13, 57, 0
20, 72711, Note_on_c, 13, 62, 0
20, 72720, Note_on_c, 13, 59, 76
20, 72720, Note_on_c, 13, 62, 76
20, 72771, Note_on_c, 13, 59, 0
20, 72771, Note_on_c, 13, 62, 0
20, 72780, Note_on_c, 13, 59, 76
20, 72780, Note_on_c, 13, 62, 76
20, 72831, Note_on_c, 13, 59, 0
20, 72831, Note_on_c, 13, 62, 0
20, 72840, Note_on_c, 13, 59, 76
20, 72840, Note_on_c, 13, 62, 76
20, 72891, Note_on_c, 13, 59, 0
20, 72891, Note_on_c, 13, 62, 0
20, 72900, Note_on_c, 13, 59, 76
20, 72900, Note_on_c, 13, 62, 76
20, 72951, Note_on_c, 13, 59, 0
20, 72951, Note_on_c, 13, 62, 0
20, 72960, Note_on_c, 13, 64, 76
20, 72960, Note_on_c, 13, 60, 76
20, 73011, Note_on_c, 13, 64, 0
20, 73011, Note_on_c, 13, 60, 0
20, 73020, Note_on_c, 13, 64, 76
20, 73020, Note_on_c, 13, 60, 76
20, 73071, Note_on_c, 13, 64, 0
20, 73071, Note_on_c, 13, 60, 0
20, 73080, Note_on_c, 13, 60, 76
20, 73080, Note_on_c, 13, 64, 76
20, 73131, Note_on_c, 13, 60, 0
20, 73131, Note_on_c, 13, 64, 0
20, 73140, Note_on_c, 13, 64, 76
20, 73140, Note_on_c, 13, 60, 76
20, 73191, Note_on_c, 13, 64, 0
20, 73191, Note_on_c, 13, 60, 0
20, 73200, Note_on_c, 13, 60, 80
20, 73200, Note_on_c, 13, 65, 80
20, 73251, Note_on_c, 13, 60, 0
20, 73251, Note_on_c, 13, 65, 0
20, 73260, Note_on_c, 13, 65, 80
20, 73260, Note_on_c, 13, 60, 80
20, 73311, Note_on_c, 13, 65, 0
20, 73311, Note_on_c, 13, 60, 0
20, 73320, Note_on_c, 13, 65, 80
20, 73320, Note_on_c, 13, 60, 80
20, 73371, Note_on_c, 13, 65, 0
20, 73371, Note_on_c, 13, 60, 0
20, 73380, Note_on_c, 13, 60, 80
20, 73380, Note_on_c, 13, 65, 80
20, 73431, Note_on_c, 13, 60, 0
20, 73431, Note_on_c, 13, 65, 0
20, 73440, Note_on_c, 13, 60, 80
20, 73440, Note_on_c, 13, 65, 80
20, 73491, Note_on_c, 13, 60, 0
20, 73491, Note_on_c, 13, 65, 0
20, 73500, Note_on_c, 13, 60, 80
20, 73500, Note_on_c, 13, 65, 80
20, 73551, Note_on_c, 13, 60, 0
20, 73551, Note_on_c, 13, 65, 0
20, 73560, Note_on_c, 13, 65, 80
20, 73560, Note_on_c, 13, 60, 80
20, 73611, Note_on_c, 13, 65, 0
20, 73611, Note_on_c, 13, 60, 0
20, 73620, Note_on_c, 13, 65, 80
20, 73620, Note_on_c, 13, 60, 80
20, 73671, Note_on_c, 13, 65, 0
20, 73671, Note_on_c, 13, 60, 0
20, 73680, Note_on_c, 13, 60, 80
20, 73680, Note_on_c, 13, 65, 80
20, 73731, Note_on_c, 13, 60, 0
20, 73731, Note_on_c, 13, 65, 0
20, 73740, Note_on_c, 13, 65, 80
20, 73740, Note_on_c, 13, 60, 80
20, 73791, Note_on_c, 13, 65, 0
20, 73791, Note_on_c, 13, 60, 0
20, 73800, Note_on_c, 13, 65, 80
20, 73800, Note_on_c, 13, 60, 80
20, 73851, Note_on_c, 13, 65, 0
20, 73851, Note_on_c, 13, 60, 0
20, 73860, Note_on_c, 13, 65, 80
20, 73860, Note_on_c, 13, 60, 80
20, 73911, Note_on_c, 13, 65, 0
20, 73911, Note_on_c, 13, 60, 0
20, 73920, Note_on_c, 13, 60, 80
20, 73920, Note_on_c, 13, 65, 80
20, 73971, Note_on_c, 13, 60, 0
20, 73971, Note_on_c, 13, 65, 0
20, 73980, Note_on_c, 13, 65, 80
20, 73980, Note_on_c, 13, 60, 80
20, 74031, Note_on_c, 13, 65, 0
20, 74031, Note_on_c, 13, 60, 0
20, 74040, Note_on_c, 13, 65, 80
20, 74040, Note_on_c, 13, 60, 80
20, 74091, Note_on_c, 13, 65, 0
20, 74091, Note_on_c, 13, 60, 0
20, 74100, Note_on_c, 13, 60, 80
20, 74100, Note_on_c, 13, 65, 80
20, 74151, Note_on_c, 13, 60, 0
20, 74151, Note_on_c, 13, 65, 0
20, 74160, Note_on_c, 13, 65, 80
20, 74160, Note_on_c, 13, 60, 80
20, 74211, Note_on_c, 13, 65, 0
20, 74211, Note_on_c, 13, 60, 0
20, 74220, Note_on_c, 13, 60, 80
20, 74220, Note_on_c, 13, 65, 80
20, 74271, Note_on_c, 13, 60, 0
20, 74271, Note_on_c, 13, 65, 0
20, 74280, Note_on_c, 13, 60, 80
20, 74280, Note_on_c, 13, 65, 80
20, 74331, Note_on_c, 13, 60, 0
20, 74331, Note_on_c, 13, 65, 0
20, 74340, Note_on_c, 13, 65, 80
20, 74340, Note_on_c, 13, 60, 80
20, 74391, Note_on_c, 13, 65, 0
20, 74391, Note_on_c, 13, 60, 0
20, 74400, Note_on_c, 13, 65, 80
20, 74400, Note_on_c, 13, 60, 80
20, 74451, Note_on_c, 13, 65, 0
20, 74451, Note_on_c, 13, 60, 0
20, 74460, Note_on_c, 13, 65, 80
20, 74460, Note_on_c, 13, 60, 80
20, 74511, Note_on_c, 13, 65, 0
20, 74511, Note_on_c, 13, 60, 0
20, 74520, Note_on_c, 13, 60, 80
20, 74520, Note_on_c, 13, 65, 80
20, 74571, Note_on_c, 13, 60, 0
20, 74571, Note_on_c, 13, 65, 0
20, 74580, Note_on_c, 13, 65, 80
20, 74580, Note_on_c, 13, 60, 80
20, 74631, Note_on_c, 13, 65, 0
20, 74631, Note_on_c, 13, 60, 0
20, 74640, Note_on_c, 13, 65, 80
20, 74640, Note_on_c, 13, 60, 80
20, 74691, Note_on_c, 13, 65, 0
20, 74691, Note_on_c, 13, 60, 0
20, 74700, Note_on_c, 13, 65, 80
20, 74700, Note_on_c, 13, 60, 80
20, 74751, Note_on_c, 13, 65, 0
20, 74751, Note_on_c, 13, 60, 0
20, 74760, Note_on_c, 13, 65, 80
20, 74760, Note_on_c, 13, 60, 80
20, 74811, Note_on_c, 13, 65, 0
20, 74811, Note_on_c, 13, 60, 0
20, 74820, Note_on_c, 13, 60, 80
20, 74820, Note_on_c, 13, 65, 80
20, 74871, Note_on_c, 13, 60, 0
20, 74871, Note_on_c, 13, 65, 0
20, 74880, Note_on_c, 13, 60, 80
20, 74880, Note_on_c, 13, 65, 80
20, 74931, Note_on_c, 13, 60, 0
20, 74931, Note_on_c, 13, 65, 0
20, 74940, Note_on_c, 13, 60, 80
20, 74940, Note_on_c, 13, 65, 80
20, 74991, Note_on_c, 13, 60, 0
20, 74991, Note_on_c, 13, 65, 0
20, 75000, Note_on_c, 13, 60, 80
20, 75000, Note_on_c, 13, 65, 80
20, 75051, Note_on_c, 13, 60, 0
20, 75051, Note_on_c, 13, 65, 0
20, 75060, Note_on_c, 13, 65, 80
20, 75060, Note_on_c, 13, 60, 80
20, 75111, Note_on_c, 13, 65, 0
20, 75111, Note_on_c, 13, 60, 0
20, 75120, Note_on_c, 13, 68, 80
20, 75120, Note_on_c, 13, 65, 80
20, 75171, Note_on_c, 13, 68, 0
20, 75171, Note_on_c, 13, 65, 0
20, 75180, Note_on_c, 13, 65, 80
20, 75180, Note_on_c, 13, 68, 80
20, 75231, Note_on_c, 13, 65, 0
20, 75231, Note_on_c, 13, 68, 0
20, 75240, Note_on_c, 13, 65, 80
20, 75240, Note_on_c, 13, 68, 80
20, 75291, Note_on_c, 13, 65, 0
20, 75291, Note_on_c, 13, 68, 0
20, 75300, Note_on_c, 13, 65, 80
20, 75300, Note_on_c, 13, 68, 80
20, 75351, Note_on_c, 13, 65, 0
20, 75351, Note_on_c, 13, 68, 0
20, 75360, Note_on_c, 13, 65, 80
20, 75360, Note_on_c, 13, 68, 80
20, 75411, Note_on_c, 13, 65, 0
20, 75411, Note_on_c, 13, 68, 0
20, 75420, Note_on_c, 13, 68, 80
20, 75420, Note_on_c, 13, 65, 80
20, 75471, Note_on_c, 13, 68, 0
20, 75471, Note_on_c, 13, 65, 0
20, 75480, Note_on_c, 13, 68, 80
20, 75480, Note_on_c, 13, 65, 80
20, 75531, Note_on_c, 13, 68, 0
20, 75531, Note_on_c, 13, 65, 0
20, 75540, Note_on_c, 13, 68, 80
20, 75540, Note_on_c, 13, 65, 80
20, 75591, Note_on_c, 13, 68, 0
20, 75591, Note_on_c, 13, 65, 0
20, 75600, Note_on_c, 13, 65, 80
20, 75600, Note_on_c, 13, 68, 80
20, 75651, Note_on_c, 13, 65, 0
20, 75651, Note_on_c, 13, 68, 0
20, 75660, Note_on_c, 13, 65, 80
20, 75660, Note_on_c, 13, 68, 80
20, 75711, Note_on_c, 13, 65, 0
20, 75711, Note_on_c, 13, 68, 0
20, 75720, Note_on_c, 13, 65, 80
20, 75720, Note_on_c, 13, 68, 80
20, 75771, Note_on_c, 13, 65, 0
20, 75771, Note_on_c, 13, 68, 0
20, 75780, Note_on_c, 13, 68, 80
20, 75780, Note_on_c, 13, 65, 80
20, 75831, Note_on_c, 13, 68, 0
20, 75831, Note_on_c, 13, 65, 0
20, 75840, Note_on_c, 13, 65, 84
20, 75840, Note_on_c, 13, 68, 84
20, 76799, Note_on_c, 13, 65, 0
20, 76799, Note_on_c, 13, 68, 0
20, 76800, Note_on_c, 13, 65, 84
20, 76800, Note_on_c, 13, 68, 84
20, 77744, Note_on_c, 13, 65, 0
20, 77744, Note_on_c, 13, 68, 0
20, 77760, Note_on_c, 13, 50, 84
20, 78464, Note_on_c, 13, 50, 0
20, 78480, Note_on_c, 13, 50, 84
20, 78599, Note_on_c, 13, 50, 0
20, 78600, Note_on_c, 13, 53, 84
20, 78704, Note_on_c, 13, 53, 0
20, 78720, Note_on_c, 13, 53, 84
20, 78720, Note_on_c, 13, 50, 84
20, 78809, Note_on_c, 13, 53, 0
20, 78809, Note_on_c, 13, 50, 0
20, 78840, Note_on_c, 13, 59, 84
20, 78840, Note_on_c, 13, 53, 84
20, 78929, Note_on_c, 13, 59, 0
20, 78929, Note_on_c, 13, 53, 0
20, 78960, Note_on_c, 13, 53, 84
20, 78960, Note_on_c, 13, 50, 84
20, 79079, Note_on_c, 13, 53, 0
20, 79079, Note_on_c, 13, 50, 0
20, 79080, Note_on_c, 13, 53, 84
20, 79080, Note_on_c, 13, 59, 84
20, 79184, Note_on_c, 13, 53, 0
20, 79184, Note_on_c, 13, 59, 0
20, 79200, Note_on_c, 13, 59, 84
20, 79200, Note_on_c, 13, 53, 84
20, 79289, Note_on_c, 13, 59, 0
20, 79289, Note_on_c, 13, 53, 0
20, 79320, Note_on_c, 13, 59, 84
20, 79320, Note_on_c, 13, 62, 84
20, 79409, Note_on_c, 13, 59, 0
20, 79409, Note_on_c, 13, 62, 0
20, 79440, Note_on_c, 13, 53, 84
20, 79440, Note_on_c, 13, 59, 84
20, 79559, Note_on_c, 13, 53, 0
20, 79559, Note_on_c, 13, 59, 0
20, 79560, Note_on_c, 13, 59, 84
20, 79560, Note_on_c, 13, 62, 84
20, 79664, Note_on_c, 13, 59, 0
20, 79664, Note_on_c, 13, 62, 0
20, 79680, Note_on_c, 13, 53, 84
20, 79680, Note_on_c, 13, 59, 84
20, 79769, Note_on_c, 13, 53, 0
20, 79769, Note_on_c, 13, 59, 0
20, 79800, Note_on_c, 13, 62, 84
20, 79800, Note_on_c, 13, 59, 84
20, 79889, Note_on_c, 13, 62, 0
20, 79889, Note_on_c, 13, 59, 0
20, 79920, Note_on_c, 13, 59, 84
20, 79920, Note_on_c, 13, 62, 84
20, 80009, Note_on_c, 13, 59, 0
20, 80009, Note_on_c, 13, 62, 0
20, 80040, Note_on_c, 13, 62, 84
20, 80040, Note_on_c, 13, 65, 84
20, 80129, Note_on_c, 13, 62, 0
20, 80129, Note_on_c, 13, 65, 0
20, 80160, Note_on_c, 13, 65, 84
20, 80160, Note_on_c, 13, 62, 84
20, 80249, Note_on_c, 13, 65, 0
20, 80249, Note_on_c, 13, 62, 0
20, 80280, Note_on_c, 13, 71, 84
20, 80280, Note_on_c, 13, 65, 84
20, 80369, Note_on_c, 13, 71, 0
20, 80369, Note_on_c, 13, 65, 0
20, 80400, Note_on_c, 13, 65, 84
20, 80400, Note_on_c, 13, 71, 84
20, 80489, Note_on_c, 13, 65, 0
20, 80489, Note_on_c, 13, 71, 0
20, 80520, Note_on_c, 13, 74, 84
20, 80520, Note_on_c, 13, 71, 84
20, 80609, Note_on_c, 13, 74, 0
20, 80609, Note_on_c, 13, 71, 0
20, 80640, Note_on_c, 13, 71, 84
20, 80640, Note_on_c, 13, 74, 84
20, 80729, Note_on_c, 13, 71, 0
20, 80729, Note_on_c, 13, 74, 0
20, 80760, Note_on_c, 13, 74, 84
20, 80760, Note_on_c, 13, 77, 84
20, 80849, Note_on_c, 13, 74, 0
20, 80849, Note_on_c, 13, 77, 0
20, 80880, Note_on_c, 13, 77, 84
20, 80880, Note_on_c, 13, 74, 84
20, 81119, Note_on_c, 13, 77, 0
20, 81119, Note_on_c, 13, 74, 0
20, 81360, Note_on_c, 13, 67, 84
20, 81360, Note_on_c, 13, 55, 84
20, 81584, Note_on_c, 13, 67, 0
20, 81584, Note_on_c, 13, 55, 0
20, 81600, Note_on_c, 13, 60, 84
20, 81600, Note_on_c, 13, 48, 84
20, 81651, Note_on_c, 13, 60, 0
20, 81651, Note_on_c, 13, 48, 0
20, 81660, Note_on_c, 13, 60, 84
20, 81660, Note_on_c, 13, 48, 84
20, 81711, Note_on_c, 13, 60, 0
20, 81711, Note_on_c, 13, 48, 0
20, 81720, Note_on_c, 13, 48, 84
20, 81720, Note_on_c, 13, 60, 84
20, 81771, Note_on_c, 13, 48, 0
20, 81771, Note_on_c, 13, 60, 0
20, 81780, Note_on_c, 13, 48, 84
20, 81780, Note_on_c, 13, 60, 84
20, 81831, Note_on_c, 13, 48, 0
20, 81831, Note_on_c, 13, 60, 0
20, 81840, Note_on_c, 13, 60, 84
20, 81840, Note_on_c, 13, 48, 84
20, 81891, Note_on_c, 13, 60, 0
20, 81891, Note_on_c, 13, 48, 0
20, 81900, Note_on_c, 13, 48, 84
20, 81900, Note_on_c, 13, 60, 84
20, 81951, Note_on_c, 13, 48, 0
20, 81951, Note_on_c, 13, 60, 0
20, 81960, Note_on_c, 13, 48, 84
20, 81960, Note_on_c, 13, 60, 84
20, 82011, Note_on_c, 13, 48, 0
20, 82011, Note_on_c, 13, 60, 0
20, 82020, Note_on_c, 13, 60, 84
20, 82020, Note_on_c, 13, 48, 84
20, 82071, Note_on_c, 13, 60, 0
20, 82071, Note_on_c, 13, 48, 0
20, 82080, Note_on_c, 13, 60, 84
20, 82080, Note_on_c, 13, 48, 84
20, 82131, Note_on_c, 13, 60, 0
20, 82131, Note_on_c, 13, 48, 0
20, 82140, Note_on_c, 13, 48, 84
20, 82140, Note_on_c, 13, 60, 84
20, 82191, Note_on_c, 13, 48, 0
20, 82191, Note_on_c, 13, 60, 0
20, 82200, Note_on_c, 13, 48, 84
20, 82200, Note_on_c, 13, 60, 84
20, 82251, Note_on_c, 13, 48, 0
20, 82251, Note_on_c, 13, 60, 0
20, 82260, Note_on_c, 13, 48, 84
20, 82260, Note_on_c, 13, 60, 84
20, 82311, Note_on_c, 13, 48, 0
20, 82311, Note_on_c, 13, 60, 0
20, 82320, Note_on_c, 13, 48, 84
20, 82320, Note_on_c, 13, 60, 84
20, 82371, Note_on_c, 13, 48, 0
20, 82371, Note_on_c, 13, 60, 0
20, 82380, Note_on_c, 13, 60, 84
20, 82380, Note_on_c, 13, 48, 84
20, 82431, Note_on_c, 13, 60, 0
20, 82431, Note_on_c, 13, 48, 0
20, 82440, Note_on_c, 13, 60, 84
20, 82440, Note_on_c, 13, 48, 84
20, 82491, Note_on_c, 13, 60, 0
20, 82491, Note_on_c, 13, 48, 0
20, 82500, Note_on_c, 13, 48, 84
20, 82500, Note_on_c, 13, 60, 84
20, 82551, Note_on_c, 13, 48, 0
20, 82551, Note_on_c, 13, 60, 0
20, 82560, Note_on_c, 13, 60, 84
20, 82560, Note_on_c, 13, 48, 84
20, 82611, Note_on_c, 13, 60, 0
20, 82611, Note_on_c, 13, 48, 0
20, 82620, Note_on_c, 13, 48, 84
20, 82620, Note_on_c, 13, 60, 84
20, 82671, Note_on_c, 13, 48, 0
20, 82671, Note_on_c, 13, 60, 0
20, 82680, Note_on_c, 13, 48, 84
20, 82680, Note_on_c, 13, 60, 84
20, 82731, Note_on_c, 13, 48, 0
20, 82731, Note_on_c, 13, 60, 0
20, 82740, Note_on_c, 13, 48, 84
20, 82740, Note_on_c, 13, 60, 84
20, 82791, Note_on_c, 13, 48, 0
20, 82791, Note_on_c, 13, 60, 0
20, 82800, Note_on_c, 13, 60, 84
20, 82800, Note_on_c, 13, 48, 84
20, 82851, Note_on_c, 13, 60, 0
20, 82851, Note_on_c, 13, 48, 0
20, 82860, Note_on_c, 13, 60, 84
20, 82860, Note_on_c, 13, 48, 84
20, 82911, Note_on_c, 13, 60, 0
20, 82911, Note_on_c, 13, 48, 0
20, 82920, Note_on_c, 13, 48, 84
20, 82920, Note_on_c, 13, 60, 84
20, 82971, Note_on_c, 13, 48, 0
20, 82971, Note_on_c, 13, 60, 0
20, 82980, Note_on_c, 13, 48, 84
20, 82980, Note_on_c, 13, 60, 84
20, 83031, Note_on_c, 13, 48, 0
20, 83031, Note_on_c, 13, 60, 0
20, 83040, Note_on_c, 13, 48, 84
20, 83040, Note_on_c, 13, 60, 84
20, 83091, Note_on_c, 13, 48, 0
20, 83091, Note_on_c, 13, 60, 0
20, 83100, Note_on_c, 13, 60, 84
20, 83100, Note_on_c, 13, 48, 84
20, 83151, Note_on_c, 13, 60, 0
20, 83151, Note_on_c, 13, 48, 0
20, 83160, Note_on_c, 13, 48, 84
20, 83160, Note_on_c, 13, 60, 84
20, 83211, Note_on_c, 13, 48, 0
20, 83211, Note_on_c, 13, 60, 0
20, 83220, Note_on_c, 13, 48, 84
20, 83220, Note_on_c, 13, 60, 84
20, 83271, Note_on_c, 13, 48, 0
20, 83271, Note_on_c, 13, 60, 0
20, 83280, Note_on_c, 13, 59, 84
20, 83280, Note_on_c, 13, 50, 84
20, 83331, Note_on_c, 13, 59, 0
20, 83331, Note_on_c, 13, 50, 0
20, 83340, Note_on_c, 13, 59, 84
20, 83340, Note_on_c, 13, 50, 84
20, 83391, Note_on_c, 13, 59, 0
20, 83391, Note_on_c, 13, 50, 0
20, 83400, Note_on_c, 13, 50, 84
20, 83400, Note_on_c, 13, 59, 84
20, 83451, Note_on_c, 13, 50, 0
20, 83451, Note_on_c, 13, 59, 0
20, 83460, Note_on_c, 13, 59, 84
20, 83460, Note_on_c, 13, 50, 84
20, 83511, Note_on_c, 13, 59, 0
20, 83511, Note_on_c, 13, 50, 0
20, 83520, Note_on_c, 13, 48, 84
20, 83520, Note_on_c, 13, 60, 84
20, 83571, Note_on_c, 13, 48, 0
20, 83571, Note_on_c, 13, 60, 0
20, 83580, Note_on_c, 13, 48, 84
20, 83580, Note_on_c, 13, 60, 84
20, 83631, Note_on_c, 13, 48, 0
20, 83631, Note_on_c, 13, 60, 0
20, 83640, Note_on_c, 13, 48, 84
20, 83640, Note_on_c, 13, 60, 84
20, 83691, Note_on_c, 13, 48, 0
20, 83691, Note_on_c, 13, 60, 0
20, 83700, Note_on_c, 13, 60, 84
20, 83700, Note_on_c, 13, 48, 84
20, 83751, Note_on_c, 13, 60, 0
20, 83751, Note_on_c, 13, 48, 0
20, 83760, Note_on_c, 13, 50, 84
20, 83760, Note_on_c, 13, 59, 84
20, 83811, Note_on_c, 13, 50, 0
20, 83811, Note_on_c, 13, 59, 0
20, 83820, Note_on_c, 13, 59, 84
20, 83820, Note_on_c, 13, 50, 84
20, 83871, Note_on_c, 13, 59, 0
20, 83871, Note_on_c, 13, 50, 0
20, 83880, Note_on_c, 13, 59, 84
20, 83880, Note_on_c, 13, 50, 84
20, 83931, Note_on_c, 13, 59, 0
20, 83931, Note_on_c, 13, 50, 0
20, 83940, Note_on_c, 13, 59, 84
20, 83940, Note_on_c, 13, 50, 84
20, 83991, Note_on_c, 13, 59, 0
20, 83991, Note_on_c, 13, 50, 0
20, 84000, Note_on_c, 13, 48, 84
20, 84000, Note_on_c, 13, 60, 84
20, 84051, Note_on_c, 13, 48, 0
20, 84051, Note_on_c, 13, 60, 0
20, 84060, Note_on_c, 13, 48, 84
20, 84060, Note_on_c, 13, 60, 84
20, 84111, Note_on_c, 13, 48, 0
20, 84111, Note_on_c, 13, 60, 0
20, 84120, Note_on_c, 13, 60, 84
20, 84120, Note_on_c, 13, 48, 84
20, 84171, Note_on_c, 13, 60, 0
20, 84171, Note_on_c, 13, 48, 0
20, 84180, Note_on_c, 13, 48, 84
20, 84180, Note_on_c, 13, 60, 84
20, 84231, Note_on_c, 13, 48, 0
20, 84231, Note_on_c, 13, 60, 0
20, 84240, Note_on_c, 13, 50, 84
20, 84240, Note_on_c, 13, 59, 84
20, 84291, Note_on_c, 13, 50, 0
20, 84291, Note_on_c, 13, 59, 0
20, 84300, Note_on_c, 13, 50, 84
20, 84300, Note_on_c, 13, 59, 84
20, 84351, Note_on_c, 13, 50, 0
20, 84351, Note_on_c, 13, 59, 0
20, 84360, Note_on_c, 13, 50, 84
20, 84360, Note_on_c, 13, 59, 84
20, 84411, Note_on_c, 13, 50, 0
20, 84411, Note_on_c, 13, 59, 0
20, 84420, Note_on_c, 13, 50, 84
20, 84420, Note_on_c, 13, 59, 84
20, 84471, Note_on_c, 13, 50, 0
20, 84471, Note_on_c, 13, 59, 0
20, 84480, Note_on_c, 13, 52, 84
20, 84480, Note_on_c, 13, 48, 84
20, 84531, Note_on_c, 13, 52, 0
20, 84531, Note_on_c, 13, 48, 0
20, 84540, Note_on_c, 13, 52, 84
20, 84540, Note_on_c, 13, 48, 84
20, 84591, Note_on_c, 13, 52, 0
20, 84591, Note_on_c, 13, 48, 0
20, 84600, Note_on_c, 13, 48, 84
20, 84600, Note_on_c, 13, 52, 84
20, 84651, Note_on_c, 13, 48, 0
20, 84651, Note_on_c, 13, 52, 0
20, 84660, Note_on_c, 13, 52, 84
20, 84660, Note_on_c, 13, 48, 84
20, 84711, Note_on_c, 13, 52, 0
20, 84711, Note_on_c, 13, 48, 0
20, 84720, Note_on_c, 13, 52, 84
20, 84720, Note_on_c, 13, 48, 84
20, 84771, Note_on_c, 13, 52, 0
20, 84771, Note_on_c, 13, 48, 0
20, 84780, Note_on_c, 13, 52, 84
20, 84780, Note_on_c, 13, 48, 84
20, 84831, Note_on_c, 13, 52, 0
20, 84831, Note_on_c, 13, 48, 0
20, 84840, Note_on_c, 13, 48, 84
20, 84840, Note_on_c, 13, 52, 84
20, 84891, Note_on_c, 13, 48, 0
20, 84891, Note_on_c, 13, 52, 0
20, 84900, Note_on_c, 13, 48, 84
20, 84900, Note_on_c, 13, 52, 84
20, 84951, Note_on_c, 13, 48, 0
20, 84951, Note_on_c, 13, 52, 0
20, 84960, Note_on_c, 13, 48, 84
20, 84960, Note_on_c, 13, 52, 84
20, 85011, Note_on_c, 13, 48, 0
20, 85011, Note_on_c, 13, 52, 0
20, 85020, Note_on_c, 13, 48, 84
20, 85020, Note_on_c, 13, 52, 84
20, 85071, Note_on_c, 13, 48, 0
20, 85071, Note_on_c, 13, 52, 0
20, 85080, Note_on_c, 13, 48, 84
20, 85080, Note_on_c, 13, 52, 84
20, 85131, Note_on_c, 13, 48, 0
20, 85131, Note_on_c, 13, 52, 0
20, 85140, Note_on_c, 13, 52, 84
20, 85140, Note_on_c, 13, 48, 84
20, 85191, Note_on_c, 13, 52, 0
20, 85191, Note_on_c, 13, 48, 0
20, 85200, Note_on_c, 13, 52, 84
20, 85200, Note_on_c, 13, 48, 84
20, 85251, Note_on_c, 13, 52, 0
20, 85251, Note_on_c, 13, 48, 0
20, 85260, Note_on_c, 13, 52, 84
20, 85260, Note_on_c, 13, 48, 84
20, 85311, Note_on_c, 13, 52, 0
20, 85311, Note_on_c, 13, 48, 0
20, 85320, Note_on_c, 13, 48, 84
20, 85320, Note_on_c, 13, 52, 84
20, 85371, Note_on_c, 13, 48, 0
20, 85371, Note_on_c, 13, 52, 0
20, 85380, Note_on_c, 13, 48, 84
20, 85380, Note_on_c, 13, 52, 84
20, 85431, Note_on_c, 13, 48, 0
20, 85431, Note_on_c, 13, 52, 0
20, 85440, Note_on_c, 13, 55, 84
20, 85440, Note_on_c, 13, 50, 84
20, 85491, Note_on_c, 13, 55, 0
20, 85491, Note_on_c, 13, 50, 0
20, 85500, Note_on_c, 13, 50, 84
20, 85500, Note_on_c, 13, 55, 84
20, 85551, Note_on_c, 13, 50, 0
20, 85551, Note_on_c, 13, 55, 0
20, 85560, Note_on_c, 13, 55, 84
20, 85560, Note_on_c, 13, 50, 84
20, 85611, Note_on_c, 13, 55, 0
20, 85611, Note_on_c, 13, 50, 0
20, 85620, Note_on_c, 13, 50, 84
20, 85620, Note_on_c, 13, 55, 84
20, 85671, Note_on_c, 13, 50, 0
20, 85671, Note_on_c, 13, 55, 0
20, 85680, Note_on_c, 13, 55, 84
20, 85680, Note_on_c, 13, 50, 84
20, 85731, Note_on_c, 13, 55, 0
20, 85731, Note_on_c, 13, 50, 0
20, 85740, Note_on_c, 13, 55, 84
20, 85740, Note_on_c, 13, 50, 84
20, 85791, Note_on_c, 13, 55, 0
20, 85791, Note_on_c, 13, 50, 0
20, 85800, Note_on_c, 13, 55, 84
20, 85800, Note_on_c, 13, 50, 84
20, 85851, Note_on_c, 13, 55, 0
20, 85851, Note_on_c, 13, 50, 0
20, 85860, Note_on_c, 13, 50, 84
20, 85860, Note_on_c, 13, 55, 84
20, 85911, Note_on_c, 13, 50, 0
20, 85911, Note_on_c, 13, 55, 0
20, 85920, Note_on_c, 13, 50, 84
20, 85920, Note_on_c, 13, 55, 84
20, 85971, Note_on_c, 13, 50, 0
20, 85971, Note_on_c, 13, 55, 0
20, 85980, Note_on_c, 13, 55, 84
20, 85980, Note_on_c, 13, 50, 84
20, 86031, Note_on_c, 13, 55, 0
20, 86031, Note_on_c, 13, 50, 0
20, 86040, Note_on_c, 13, 55, 84
20, 86040, Note_on_c, 13, 50, 84
20, 86091, Note_on_c, 13, 55, 0
20, 86091, Note_on_c, 13, 50, 0
20, 86100, Note_on_c, 13, 50, 84
20, 86100, Note_on_c, 13, 55, 84
20, 86151, Note_on_c, 13, 50, 0
20, 86151, Note_on_c, 13, 55, 0
20, 86160, Note_on_c, 13, 50, 84
20, 86160, Note_on_c, 13, 55, 84
20, 86211, Note_on_c, 13, 50, 0
20, 86211, Note_on_c, 13, 55, 0
20, 86220, Note_on_c, 13, 50, 84
20, 86220, Note_on_c, 13, 55, 84
20, 86271, Note_on_c, 13, 50, 0
20, 86271, Note_on_c, 13, 55, 0
20, 86280, Note_on_c, 13, 55, 84
20, 86280, Note_on_c, 13, 50, 84
20, 86331, Note_on_c, 13, 55, 0
20, 86331, Note_on_c, 13, 50, 0
20, 86340, Note_on_c, 13, 55, 84
20, 86340, Note_on_c, 13, 50, 84
20, 86391, Note_on_c, 13, 55, 0
20, 86391, Note_on_c, 13, 50, 0
20, 86400, Note_on_c, 13, 55, 84
20, 86400, Note_on_c, 13, 52, 84
20, 86451, Note_on_c, 13, 55, 0
20, 86451, Note_on_c, 13, 52, 0
20, 86460, Note_on_c, 13, 55, 84
20, 86460, Note_on_c, 13, 52, 84
20, 86511, Note_on_c, 13, 55, 0
20, 86511, Note_on_c, 13, 52, 0
20, 86520, Note_on_c, 13, 55, 84
20, 86520, Note_on_c, 13, 52, 84
20, 86571, Note_on_c, 13, 55, 0
20, 86571, Note_on_c, 13, 52, 0
20, 86580, Note_on_c, 13, 52, 84
20, 86580, Note_on_c, 13, 55, 84
20, 86631, Note_on_c, 13, 52, 0
20, 86631, Note_on_c, 13, 55, 0
20, 86640, Note_on_c, 13, 55, 84
20, 86640, Note_on_c, 13, 52, 84
20, 86691, Note_on_c, 13, 55, 0
20, 86691, Note_on_c, 13, 52, 0
20, 86700, Note_on_c, 13, 55, 84
20, 86700, Note_on_c, 13, 52, 84
20, 86751, Note_on_c, 13, 55, 0
20, 86751, Note_on_c, 13, 52, 0
20, 86760, Note_on_c, 13, 52, 84
20, 86760, Note_on_c, 13, 55, 84
20, 86811, Note_on_c, 13, 52, 0
20, 86811, Note_on_c, 13, 55, 0
20, 86820, Note_on_c, 13, 55, 84
20, 86820, Note_on_c, 13, 52, 84
20, 86871, Note_on_c, 13, 55, 0
20, 86871, Note_on_c, 13, 52, 0
20, 86880, Note_on_c, 13, 52, 84
20, 86880, Note_on_c, 13, 55, 84
20, 86931, Note_on_c, 13, 52, 0
20, 86931, Note_on_c, 13, 55, 0
20, 86940, Note_on_c, 13, 52, 84
20, 86940, Note_on_c, 13, 55, 84
20, 86991, Note_on_c, 13, 52, 0
20, 86991, Note_on_c, 13, 55, 0
20, 87000, Note_on_c, 13, 55, 84
20, 87000, Note_on_c, 13, 52, 84
20, 87051, Note_on_c, 13, 55, 0
20, 87051, Note_on_c, 13, 52, 0
20, 87060, Note_on_c, 13, 55, 84
20, 87060, Note_on_c, 13, 52, 84
20, 87111, Note_on_c, 13, 55, 0
20, 87111, Note_on_c, 13, 52, 0
20, 87120, Note_on_c, 13, 52, 84
20, 87120, Note_on_c, 13, 55, 84
20, 87171, Note_on_c, 13, 52, 0
20, 87171, Note_on_c, 13, 55, 0
20, 87180, Note_on_c, 13, 52, 84
20, 87180, Note_on_c, 13, 55, 84
20, 87231, Note_on_c, 13, 52, 0
20, 87231, Note_on_c, 13, 55, 0
20, 87240, Note_on_c, 13, 52, 84
20, 87240, Note_on_c, 13, 55, 84
20, 87291, Note_on_c, 13, 52, 0
20, 87291, Note_on_c, 13, 55, 0
20, 87300, Note_on_c, 13, 52, 84
20, 87300, Note_on_c, 13, 55, 84
20, 87351, Note_on_c, 13, 52, 0
20, 87351, Note_on_c, 13, 55, 0
20, 87360, Note_on_c, 13, 53, 84
20, 87360, Note_on_c, 13, 57, 84
20, 87411, Note_on_c, 13, 53, 0
20, 87411, Note_on_c, 13, 57, 0
20, 87420, Note_on_c, 13, 53, 84
20, 87420, Note_on_c, 13, 57, 84
20, 87471, Note_on_c, 13, 53, 0
20, 87471, Note_on_c, 13, 57, 0
20, 87480, Note_on_c, 13, 57, 84
20, 87480, Note_on_c, 13, 53, 84
20, 87531, Note_on_c, 13, 57, 0
20, 87531, Note_on_c, 13, 53, 0
20, 87540, Note_on_c, 13, 57, 84
20, 87540, Note_on_c, 13, 53, 84
20, 87591, Note_on_c, 13, 57, 0
20, 87591, Note_on_c, 13, 53, 0
20, 87600, Note_on_c, 13, 57, 84
20, 87600, Note_on_c, 13, 53, 84
20, 87651, Note_on_c, 13, 57, 0
20, 87651, Note_on_c, 13, 53, 0
20, 87660, Note_on_c, 13, 53, 84
20, 87660, Note_on_c, 13, 57, 84
20, 87711, Note_on_c, 13, 53, 0
20, 87711, Note_on_c, 13, 57, 0
20, 87720, Note_on_c, 13, 53, 84
20, 87720, Note_on_c, 13, 57, 84
20, 87771, Note_on_c, 13, 53, 0
20, 87771, Note_on_c, 13, 57, 0
20, 87780, Note_on_c, 13, 53, 84
20, 87780, Note_on_c, 13, 57, 84
20, 87831, Note_on_c, 13, 53, 0
20, 87831, Note_on_c, 13, 57, 0
20, 87840, Note_on_c, 13, 57, 84
20, 87840, Note_on_c, 13, 53, 84
20, 87891, Note_on_c, 13, 57, 0
20, 87891, Note_on_c, 13, 53, 0
20, 87900, Note_on_c, 13, 57, 84
20, 87900, Note_on_c, 13, 53, 84
20, 87951, Note_on_c, 13, 57, 0
20, 87951, Note_on_c, 13, 53, 0
20, 87960, Note_on_c, 13, 57, 84
20, 87960, Note_on_c, 13, 53, 84
20, 88011, Note_on_c, 13, 57, 0
20, 88011, Note_on_c, 13, 53, 0
20, 88020, Note_on_c, 13, 53, 84
20, 88020, Note_on_c, 13, 57, 84
20, 88071, Note_on_c, 13, 53, 0
20, 88071, Note_on_c, 13, 57, 0
20, 88080, Note_on_c, 13, 57, 84
20, 88080, Note_on_c, 13, 53, 84
20, 88131, Note_on_c, 13, 57, 0
20, 88131, Note_on_c, 13, 53, 0
20, 88140, Note_on_c, 13, 57, 84
20, 88140, Note_on_c, 13, 53, 84
20, 88191, Note_on_c, 13, 57, 0
20, 88191, Note_on_c, 13, 53, 0
20, 88200, Note_on_c, 13, 57, 84
20, 88200, Note_on_c, 13, 53, 84
20, 88251, Note_on_c, 13, 57, 0
20, 88251, Note_on_c, 13, 53, 0
20, 88260, Note_on_c, 13, 57, 84
20, 88260, Note_on_c, 13, 53, 84
20, 88311, Note_on_c, 13, 57, 0
20, 88311, Note_on_c, 13, 53, 0
20, 88320, Note_on_c, 13, 55, 84
20, 88320, Note_on_c, 13, 52, 84
20, 88371, Note_on_c, 13, 55, 0
20, 88371, Note_on_c, 13, 52, 0
20, 88380, Note_on_c, 13, 55, 84
20, 88380, Note_on_c, 13, 52, 84
20, 88431, Note_on_c, 13, 55, 0
20, 88431, Note_on_c, 13, 52, 0
20, 88440, Note_on_c, 13, 55, 84
20, 88440, Note_on_c, 13, 52, 84
20, 88491, Note_on_c, 13, 55, 0
20, 88491, Note_on_c, 13, 52, 0
20, 88500, Note_on_c, 13, 52, 84
20, 88500, Note_on_c, 13, 55, 84
20, 88551, Note_on_c, 13, 52, 0
20, 88551, Note_on_c, 13, 55, 0
20, 88560, Note_on_c, 13, 55, 84
20, 88560, Note_on_c, 13, 52, 84
20, 88611, Note_on_c, 13, 55, 0
20, 88611, Note_on_c, 13, 52, 0
20, 88620, Note_on_c, 13, 55, 84
20, 88620, Note_on_c, 13, 52, 84
20, 88671, Note_on_c, 13, 55, 0
20, 88671, Note_on_c, 13, 52, 0
20, 88680, Note_on_c, 13, 55, 84
20, 88680, Note_on_c, 13, 52, 84
20, 88731, Note_on_c, 13, 55, 0
20, 88731, Note_on_c, 13, 52, 0
20, 88740, Note_on_c, 13, 55, 84
20, 88740, Note_on_c, 13, 52, 84
20, 88791, Note_on_c, 13, 55, 0
20, 88791, Note_on_c, 13, 52, 0
20, 88800, Note_on_c, 13, 52, 84
20, 88800, Note_on_c, 13, 55, 84
20, 88851, Note_on_c, 13, 52, 0
20, 88851, Note_on_c, 13, 55, 0
20, 88860, Note_on_c, 13, 55, 84
20, 88860, Note_on_c, 13, 52, 84
20, 88911, Note_on_c, 13, 55, 0
20, 88911, Note_on_c, 13, 52, 0
20, 88920, Note_on_c, 13, 55, 84
20, 88920, Note_on_c, 13, 52, 84
20, 88971, Note_on_c, 13, 55, 0
20, 88971, Note_on_c, 13, 52, 0
20, 88980, Note_on_c, 13, 55, 84
20, 88980, Note_on_c, 13, 52, 84
20, 89031, Note_on_c, 13, 55, 0
20, 89031, Note_on_c, 13, 52, 0
20, 89040, Note_on_c, 13, 52, 84
20, 89040, Note_on_c, 13, 55, 84
20, 89091, Note_on_c, 13, 52, 0
20, 89091, Note_on_c, 13, 55, 0
20, 89100, Note_on_c, 13, 52, 84
20, 89100, Note_on_c, 13, 55, 84
20, 89151, Note_on_c, 13, 52, 0
20, 89151, Note_on_c, 13, 55, 0
20, 89160, Note_on_c, 13, 55, 84
20, 89160, Note_on_c, 13, 52, 84
20, 89211, Note_on_c, 13, 55, 0
20, 89211, Note_on_c, 13, 52, 0
20, 89220, Note_on_c, 13, 55, 84
20, 89220, Note_on_c, 13, 52, 84
20, 89271, Note_on_c, 13, 55, 0
20, 89271, Note_on_c, 13, 52, 0
20, 89280, Note_on_c, 13, 53, 84
20, 89280, Note_on_c, 13, 57, 84
20, 89331, Note_on_c, 13, 53, 0
20, 89331, Note_on_c, 13, 57, 0
20, 89340, Note_on_c, 13, 53, 84
20, 89340, Note_on_c, 13, 57, 84
20, 89391, Note_on_c, 13, 53, 0
20, 89391, Note_on_c, 13, 57, 0
20, 89400, Note_on_c, 13, 53, 84
20, 89400, Note_on_c, 13, 57, 84
20, 89451, Note_on_c, 13, 53, 0
20, 89451, Note_on_c, 13, 57, 0
20, 89460, Note_on_c, 13, 57, 84
20, 89460, Note_on_c, 13, 53, 84
20, 89511, Note_on_c, 13, 57, 0
20, 89511, Note_on_c, 13, 53, 0
20, 89520, Note_on_c, 13, 57, 84
20, 89520, Note_on_c, 13, 53, 84
20, 89571, Note_on_c, 13, 57, 0
20, 89571, Note_on_c, 13, 53, 0
20, 89580, Note_on_c, 13, 57, 84
20, 89580, Note_on_c, 13, 53, 84
20, 89631, Note_on_c, 13, 57, 0
20, 89631, Note_on_c, 13, 53, 0
20, 89640, Note_on_c, 13, 57, 84
20, 89640, Note_on_c, 13, 53, 84
20, 89691, Note_on_c, 13, 57, 0
20, 89691, Note_on_c, 13, 53, 0
20, 89700, Note_on_c, 13, 57, 84
20, 89700, Note_on_c, 13, 53, 84
20, 89751, Note_on_c, 13, 57, 0
20, 89751, Note_on_c, 13, 53, 0
20, 89760, Note_on_c, 13, 53, 84
20, 89760, Note_on_c, 13, 57, 84
20, 89811, Note_on_c, 13, 53, 0
20, 89811, Note_on_c, 13, 57, 0
20, 89820, Note_on_c, 13, 53, 84
20, 89820, Note_on_c, 13, 57, 84
20, 89871, Note_on_c, 13, 53, 0
20, 89871, Note_on_c, 13, 57, 0
20, 89880, Note_on_c, 13, 57, 84
20, 89880, Note_on_c, 13, 53, 84
20, 89931, Note_on_c, 13, 57, 0
20, 89931, Note_on_c, 13, 53, 0
20, 89940, Note_on_c, 13, 57, 84
20, 89940, Note_on_c, 13, 53, 84
20, 89991, Note_on_c, 13, 57, 0
20, 89991, Note_on_c, 13, 53, 0
20, 90000, Note_on_c, 13, 53, 84
20, 90000, Note_on_c, 13, 57, 84
20, 90051, Note_on_c, 13, 53, 0
20, 90051, Note_on_c, 13, 57, 0
20, 90060, Note_on_c, 13, 57, 84
20, 90060, Note_on_c, 13, 53, 84
20, 90111, Note_on_c, 13, 57, 0
20, 90111, Note_on_c, 13, 53, 0
20, 90120, Note_on_c, 13, 57, 84
20, 90120, Note_on_c, 13, 53, 84
20, 90171, Note_on_c, 13, 57, 0
20, 90171, Note_on_c, 13, 53, 0
20, 90180, Note_on_c, 13, 53, 84
20, 90180, Note_on_c, 13, 57, 84
20, 90231, Note_on_c, 13, 53, 0
20, 90231, Note_on_c, 13, 57, 0
20, 90240, Note_on_c, 13, 55, 84
20, 90240, Note_on_c, 13, 52, 84
20, 90291, Note_on_c, 13, 55, 0
20, 90291, Note_on_c, 13, 52, 0
20, 90300, Note_on_c, 13, 55, 84
20, 90300, Note_on_c, 13, 52, 84
20, 90351, Note_on_c, 13, 55, 0
20, 90351, Note_on_c, 13, 52, 0
20, 90360, Note_on_c, 13, 52, 84
20, 90360, Note_on_c, 13, 55, 84
20, 90411, Note_on_c, 13, 52, 0
20, 90411, Note_on_c, 13, 55, 0
20, 90420, Note_on_c, 13, 55, 84
20, 90420, Note_on_c, 13, 52, 84
20, 90471, Note_on_c, 13, 55, 0
20, 90471, Note_on_c, 13, 52, 0
20, 90480, Note_on_c, 13, 52, 84
20, 90480, Note_on_c, 13, 55, 84
20, 90531, Note_on_c, 13, 52, 0
20, 90531, Note_on_c, 13, 55, 0
20, 90540, Note_on_c, 13, 52, 84
20, 90540, Note_on_c, 13, 55, 84
20, 90591, Note_on_c, 13, 52, 0
20, 90591, Note_on_c, 13, 55, 0
20, 90600, Note_on_c, 13, 55, 84
20, 90600, Note_on_c, 13, 52, 84
20, 90651, Note_on_c, 13, 55, 0
20, 90651, Note_on_c, 13, 52, 0
20, 90660, Note_on_c, 13, 52, 84
20, 90660, Note_on_c, 13, 55, 84
20, 90711, Note_on_c, 13, 52, 0
20, 90711, Note_on_c, 13, 55, 0
20, 90720, Note_on_c, 13, 52, 84
20, 90720, Note_on_c, 13, 55, 84
20, 90771, Note_on_c, 13, 52, 0
20, 90771, Note_on_c, 13, 55, 0
20, 90780, Note_on_c, 13, 52, 84
20, 90780, Note_on_c, 13, 55, 84
20, 90831, Note_on_c, 13, 52, 0
20, 90831, Note_on_c, 13, 55, 0
20, 90840, Note_on_c, 13, 52, 84
20, 90840, Note_on_c, 13, 55, 84
20, 90891, Note_on_c, 13, 52, 0
20, 90891, Note_on_c, 13, 55, 0
20, 90900, Note_on_c, 13, 52, 84
20, 90900, Note_on_c, 13, 55, 84
20, 90951, Note_on_c, 13, 52, 0
20, 90951, Note_on_c, 13, 55, 0
20, 90960, Note_on_c, 13, 52, 84
20, 90960, Note_on_c, 13, 55, 84
20, 91011, Note_on_c, 13, 52, 0
20, 91011, Note_on_c, 13, 55, 0
20, 91020, Note_on_c, 13, 55, 84
20, 91020, Note_on_c, 13, 52, 84
20, 91071, Note_on_c, 13, 55, 0
20, 91071, Note_on_c, 13, 52, 0
20, 91080, Note_on_c, 13, 52, 84
20, 91080, Note_on_c, 13, 55, 84
20, 91131, Note_on_c, 13, 52, 0
20, 91131, Note_on_c, 13, 55, 0
20, 91140, Note_on_c, 13, 52, 84
20, 91140, Note_on_c, 13, 55, 84
20, 91191, Note_on_c, 13, 52, 0
20, 91191, Note_on_c, 13, 55, 0
20, 91200, Note_on_c, 13, 53, 84
20, 91200, Note_on_c, 13, 57, 84
20, 91251, Note_on_c, 13, 53, 0
20, 91251, Note_on_c, 13, 57, 0
20, 91260, Note_on_c, 13, 53, 84
20, 91260, Note_on_c, 13, 57, 84
20, 91311, Note_on_c, 13, 53, 0
20, 91311, Note_on_c, 13, 57, 0
20, 91320, Note_on_c, 13, 57, 84
20, 91320, Note_on_c, 13, 53, 84
20, 91371, Note_on_c, 13, 57, 0
20, 91371, Note_on_c, 13, 53, 0
20, 91380, Note_on_c, 13, 57, 84
20, 91380, Note_on_c, 13, 53, 84
20, 91431, Note_on_c, 13, 57, 0
20, 91431, Note_on_c, 13, 53, 0
20, 91440, Note_on_c, 13, 53, 84
20, 91440, Note_on_c, 13, 57, 84
20, 91491, Note_on_c, 13, 53, 0
20, 91491, Note_on_c, 13, 57, 0
20, 91500, Note_on_c, 13, 57, 84
20, 91500, Note_on_c, 13, 53, 84
20, 91551, Note_on_c, 13, 57, 0
20, 91551, Note_on_c, 13, 53, 0
20, 91560, Note_on_c, 13, 57, 84
20, 91560, Note_on_c, 13, 53, 84
20, 91611, Note_on_c, 13, 57, 0
20, 91611, Note_on_c, 13, 53, 0
20, 91620, Note_on_c, 13, 57, 84
20, 91620, Note_on_c, 13, 53, 84
20, 91671, Note_on_c, 13, 57, 0
20, 91671, Note_on_c, 13, 53, 0
20, 91680, Note_on_c, 13, 53, 84
20, 91680, Note_on_c, 13, 57, 84
20, 91731, Note_on_c, 13, 53, 0
20, 91731, Note_on_c, 13, 57, 0
20, 91740, Note_on_c, 13, 53, 84
20, 91740, Note_on_c, 13, 57, 84
20, 91791, Note_on_c, 13, 53, 0
20, 91791, Note_on_c, 13, 57, 0
20, 91800, Note_on_c, 13, 53, 84
20, 91800, Note_on_c, 13, 57, 84
20, 91851, Note_on_c, 13, 53, 0
20, 91851, Note_on_c, 13, 57, 0
20, 91860, Note_on_c, 13, 53, 84
20, 91860, Note_on_c, 13, 57, 84
20, 91911, Note_on_c, 13, 53, 0
20, 91911, Note_on_c, 13, 57, 0
20, 91920, Note_on_c, 13, 53, 84
20, 91920, Note_on_c, 13, 57, 84
20, 91971, Note_on_c, 13, 53, 0
20, 91971, Note_on_c, 13, 57, 0
20, 91980, Note_on_c, 13, 53, 84
20, 91980, Note_on_c, 13, 57, 84
20, 92031, Note_on_c, 13, 53, 0
20, 92031, Note_on_c, 13, 57, 0
20, 92040, Note_on_c, 13, 53, 84
20, 92040, Note_on_c, 13, 57, 84
20, 92091, Note_on_c, 13, 53, 0
20, 92091, Note_on_c, 13, 57, 0
20, 92100, Note_on_c, 13, 57, 84
20, 92100, Note_on_c, 13, 53, 84
20, 92151, Note_on_c, 13, 57, 0
20, 92151, Note_on_c, 13, 53, 0
20, 92160, Note_on_c, 13, 52, 84
20, 92160, Note_on_c, 13, 55, 84
20, 92211, Note_on_c, 13, 52, 0
20, 92211, Note_on_c, 13, 55, 0
20, 92220, Note_on_c, 13, 52, 84
20, 92220, Note_on_c, 13, 55, 84
20, 92271, Note_on_c, 13, 52, 0
20, 92271, Note_on_c, 13, 55, 0
20, 92280, Note_on_c, 13, 55, 84
20, 92280, Note_on_c, 13, 52, 84
20, 92331, Note_on_c, 13, 55, 0
20, 92331, Note_on_c, 13, 52, 0
20, 92340, Note_on_c, 13, 55, 84
20, 92340, Note_on_c, 13, 52, 84
20, 92391, Note_on_c, 13, 55, 0
20, 92391, Note_on_c, 13, 52, 0
20, 92400, Note_on_c, 13, 52, 84
20, 92400, Note_on_c, 13, 55, 84
20, 92451, Note_on_c, 13, 52, 0
20, 92451, Note_on_c, 13, 55, 0
20, 92460, Note_on_c, 13, 52, 84
20, 92460, Note_on_c, 13, 55, 84
20, 92511, Note_on_c, 13, 52, 0
20, 92511, Note_on_c, 13, 55, 0
20, 92520, Note_on_c, 13, 52, 84
20, 92520, Note_on_c, 13, 55, 84
20, 92571, Note_on_c, 13, 52, 0
20, 92571, Note_on_c, 13, 55, 0
20, 92580, Note_on_c, 13, 55, 84
20, 92580, Note_on_c, 13, 52, 84
20, 92631, Note_on_c, 13, 55, 0
20, 92631, Note_on_c, 13, 52, 0
20, 92640, Note_on_c, 13, 52, 84
20, 92640, Note_on_c, 13, 55, 84
20, 92691, Note_on_c, 13, 52, 0
20, 92691, Note_on_c, 13, 55, 0
20, 92700, Note_on_c, 13, 55, 84
20, 92700, Note_on_c, 13, 52, 84
20, 92751, Note_on_c, 13, 55, 0
20, 92751, Note_on_c, 13, 52, 0
20, 92760, Note_on_c, 13, 52, 84
20, 92760, Note_on_c, 13, 55, 84
20, 92811, Note_on_c, 13, 52, 0
20, 92811, Note_on_c, 13, 55, 0
20, 92820, Note_on_c, 13, 55, 84
20, 92820, Note_on_c, 13, 52, 84
20, 92871, Note_on_c, 13, 55, 0
20, 92871, Note_on_c, 13, 52, 0
20, 92880, Note_on_c, 13, 55, 84
20, 92880, Note_on_c, 13, 52, 84
20, 92931, Note_on_c, 13, 55, 0
20, 92931, Note_on_c, 13, 52, 0
20, 92940, Note_on_c, 13, 55, 84
20, 92940, Note_on_c, 13, 52, 84
20, 92991, Note_on_c, 13, 55, 0
20, 92991, Note_on_c, 13, 52, 0
20, 93000, Note_on_c, 13, 52, 84
20, 93000, Note_on_c, 13, 55, 84
20, 93051, Note_on_c, 13, 52, 0
20, 93051, Note_on_c, 13, 55, 0
20, 93060, Note_on_c, 13, 52, 84
20, 93060, Note_on_c, 13, 55, 84
20, 93111, Note_on_c, 13, 52, 0
20, 93111, Note_on_c, 13, 55, 0
20, 93120, Note_on_c, 13, 62, 84
20, 93344, Note_on_c, 13, 62, 0
20, 93360, Note_on_c, 13, 62, 84
20, 93531, Note_on_c, 13, 62, 0
20, 93540, Note_on_c, 13, 62, 84
20, 93591, Note_on_c, 13, 62, 0
20, 93600, Note_on_c, 13, 60, 84
20, 93824, Note_on_c, 13, 60, 0
20, 93840, Note_on_c, 13, 60, 84
20, 94011, Note_on_c, 13, 60, 0
20, 94020, Note_on_c, 13, 60, 84
20, 94071, Note_on_c, 13, 60, 0
20, 94080, Note_on_c, 13, 59, 84
20, 94304, Note_on_c, 13, 59, 0
20, 94320, Note_on_c, 13, 59, 84
20, 94784, Note_on_c, 13, 59, 0
20, 94800, Note_on_c, 13, 60, 84
20, 94971, Note_on_c, 13, 60, 0
20, 94980, Note_on_c, 13, 60, 84
20, 95031, Note_on_c, 13, 60, 0
20, 95040, Note_on_c, 13, 62, 84
20, 95264, Note_on_c, 13, 62, 0
20, 95280, Note_on_c, 13, 62, 84
20, 95451, Note_on_c, 13, 62, 0
20, 95460, Note_on_c, 13, 62, 84
20, 95511, Note_on_c, 13, 62, 0
20, 95520, Note_on_c, 13, 60, 84
20, 95744, Note_on_c, 13, 60, 0
20, 95760, Note_on_c, 13, 60, 84
20, 95931, Note_on_c, 13, 60, 0
20, 95940, Note_on_c, 13, 60, 84
20, 95991, Note_on_c, 13, 60, 0
20, 96000, Note_on_c, 13, 59, 84
20, 96224, Note_on_c, 13, 59, 0
20, 96240, Note_on_c, 13, 59, 84
20, 96704, Note_on_c, 13, 59, 0
20, 96720, Note_on_c, 13, 60, 84
20, 96891, Note_on_c, 13, 60, 0
20, 96900, Note_on_c, 13, 60, 84
20, 96951, Note_on_c, 13, 60, 0
20, 96960, Note_on_c, 13, 62, 84
20, 97131, Note_on_c, 13, 62, 0
20, 97140, Note_on_c, 13, 62, 84
20, 97191, Note_on_c, 13, 62, 0
20, 97200, Note_on_c, 13, 59, 84
20, 97371, Note_on_c, 13, 59, 0
20, 97380, Note_on_c, 13, 59, 84
20, 97431, Note_on_c, 13, 59, 0
20, 97440, Note_on_c, 13, 60, 84
20, 97611, Note_on_c, 13, 60, 0
20, 97620, Note_on_c, 13, 60, 84
20, 97671, Note_on_c, 13, 60, 0
20, 97680, Note_on_c, 13, 60, 84
20, 97851, Note_on_c, 13, 60, 0
20, 97860, Note_on_c, 13, 60, 84
20, 97911, Note_on_c, 13, 60, 0
20, 97920, Note_on_c, 13, 59, 84
20, 97971, Note_on_c, 13, 59, 0
20, 97980, Note_on_c, 13, 59, 84
20, 98031, Note_on_c, 13, 59, 0
20, 98040, Note_on_c, 13, 59, 84
20, 98091, Note_on_c, 13, 59, 0
20, 98100, Note_on_c, 13, 59, 84
20, 98151, Note_on_c, 13, 59, 0
20, 98160, Note_on_c, 13, 59, 84
20, 98211, Note_on_c, 13, 59, 0
20, 98220, Note_on_c, 13, 59, 84
20, 98271, Note_on_c, 13, 59, 0
20, 98280, Note_on_c, 13, 59, 84
20, 98331, Note_on_c, 13, 59, 0
20, 98340, Note_on_c, 13, 59, 84
20, 98391, Note_on_c, 13, 59, 0
20, 98400, Note_on_c, 13, 60, 84
20, 98451, Note_on_c, 13, 60, 0
20, 98460, Note_on_c, 13, 60, 84
20, 98511, Note_on_c, 13, 60, 0
20, 98520, Note_on_c, 13, 60, 84
20, 98571, Note_on_c, 13, 60, 0
20, 98580, Note_on_c, 13, 60, 84
20, 98631, Note_on_c, 13, 60, 0
20, 98640, Note_on_c, 13, 60, 84
20, 98691, Note_on_c, 13, 60, 0
20, 98700, Note_on_c, 13, 60, 84
20, 98751, Note_on_c, 13, 60, 0
20, 98760, Note_on_c, 13, 60, 84
20, 98811, Note_on_c, 13, 60, 0
20, 98820, Note_on_c, 13, 60, 84
20, 98871, Note_on_c, 13, 60, 0
20, 98880, Note_on_c, 13, 59, 84
20, 98931, Note_on_c, 13, 59, 0
20, 98940, Note_on_c, 13, 59, 84
20, 98991, Note_on_c, 13, 59, 0
20, 99000, Note_on_c, 13, 59, 84
20, 99051, Note_on_c, 13, 59, 0
20, 99060, Note_on_c, 13, 59, 84
20, 99111, Note_on_c, 13, 59, 0
20, 99120, Note_on_c, 13, 59, 84
20, 99171, Note_on_c, 13, 59, 0
20, 99180, Note_on_c, 13, 59, 84
20, 99231, Note_on_c, 13, 59, 0
20, 99240, Note_on_c, 13, 59, 84
20, 99291, Note_on_c, 13, 59, 0
20, 99300, Note_on_c, 13, 59, 84
20, 99351, Note_on_c, 13, 59, 0
20, 99360, Note_on_c, 13, 60, 84
20, 99411, Note_on_c, 13, 60, 0
20, 99420, Note_on_c, 13, 60, 84
20, 99471, Note_on_c, 13, 60, 0
20, 99480, Note_on_c, 13, 60, 84
20, 99531, Note_on_c, 13, 60, 0
20, 99540, Note_on_c, 13, 60, 84
20, 99591, Note_on_c, 13, 60, 0
20, 99600, Note_on_c, 13, 60, 84
20, 99651, Note_on_c, 13, 60, 0
20, 99660, Note_on_c, 13, 60, 84
20, 99711, Note_on_c, 13, 60, 0
20, 99720, Note_on_c, 13, 60, 84
20, 99771, Note_on_c, 13, 60, 0
20, 99780, Note_on_c, 13, 60, 84
20, 99831, Note_on_c, 13, 60, 0
20, 99840, Note_on_c, 13, 59, 84
20, 99891, Note_on_c, 13, 59, 0
20, 99900, Note_on_c, 13, 59, 84
20, 99951, Note_on_c, 13, 59, 0
20, 99960, Note_on_c, 13, 60, 84
20, 100011, Note_on_c, 13, 60, 0
20, 100020, Note_on_c, 13, 60, 84
20, 100071, Note_on_c, 13, 60, 0
20, 100080, Note_on_c, 13, 60, 84
20, 100131, Note_on_c, 13, 60, 0
20, 100140, Note_on_c, 13, 60, 84
20, 100191, Note_on_c, 13, 60, 0
20, 100200, Note_on_c, 13, 60, 84
20, 100251, Note_on_c, 13, 60, 0
20, 100260, Note_on_c, 13, 60, 84
20, 100311, Note_on_c, 13, 60, 0
20, 100320, Note_on_c, 13, 59, 84
20, 100371, Note_on_c, 13, 59, 0
20, 100380, Note_on_c, 13, 59, 84
20, 100431, Note_on_c, 13, 59, 0
20, 100440, Note_on_c, 13, 60, 84
20, 100491, Note_on_c, 13, 60, 0
20, 100500, Note_on_c, 13, 60, 84
20, 100551, Note_on_c, 13, 60, 0
20, 100560, Note_on_c, 13, 60, 84
20, 100611, Note_on_c, 13, 60, 0
20, 100620, Note_on_c, 13, 60, 84
20, 100671, Note_on_c, 13, 60, 0
20, 100680, Note_on_c, 13, 60, 84
20, 100731, Note_on_c, 13, 60, 0
20, 100740, Note_on_c, 13, 60, 84
20, 100791, Note_on_c, 13, 60, 0
20, 100800, Note_on_c, 13, 59, 84
20, 100851, Note_on_c, 13, 59, 0
20, 100860, Note_on_c, 13, 59, 84
20, 100911, Note_on_c, 13, 59, 0
20, 100920, Note_on_c, 13, 60, 84
20, 100971, Note_on_c, 13, 60, 0
20, 100980, Note_on_c, 13, 60, 84
20, 101031, Note_on_c, 13, 60, 0
20, 101040, Note_on_c, 13, 60, 84
20, 101091, Note_on_c, 13, 60, 0
20, 101100, Note_on_c, 13, 60, 84
20, 101151, Note_on_c, 13, 60, 0
20, 101160, Note_on_c, 13, 60, 84
20, 101211, Note_on_c, 13, 60, 0
20, 101220, Note_on_c, 13, 60, 84
20, 101271, Note_on_c, 13, 60, 0
20, 101280, Note_on_c, 13, 59, 84
20, 101331, Note_on_c, 13, 59, 0
20, 101340, Note_on_c, 13, 59, 84
20, 101391, Note_on_c, 13, 59, 0
20, 101400, Note_on_c, 13, 60, 84
20, 101451, Note_on_c, 13, 60, 0
20, 101460, Note_on_c, 13, 60, 84
20, 101511, Note_on_c, 13, 60, 0
20, 101520, Note_on_c, 13, 60, 84
20, 101571, Note_on_c, 13, 60, 0
20, 101580, Note_on_c, 13, 60, 84
20, 101631, Note_on_c, 13, 60, 0
20, 101640, Note_on_c, 13, 60, 84
20, 101691, Note_on_c, 13, 60, 0
20, 101700, Note_on_c, 13, 60, 84
20, 101751, Note_on_c, 13, 60, 0
20, 101760, Note_on_c, 13, 59, 84
20, 101849, Note_on_c, 13, 59, 0
20, 101880, Note_on_c, 13, 67, 92
20, 101999, Note_on_c, 13, 67, 0
20, 102000, Note_on_c, 13, 65, 84
20, 102104, Note_on_c, 13, 65, 0
20, 102120, Note_on_c, 13, 64, 84
20, 102209, Note_on_c, 13, 64, 0
20, 102240, Note_on_c, 13, 62, 84
20, 102329, Note_on_c, 13, 62, 0
20, 102360, Note_on_c, 13, 64, 92
20, 102479, Note_on_c, 13, 64, 0
20, 102480, Note_on_c, 13, 62, 84
20, 102584, Note_on_c, 13, 62, 0
20, 102600, Note_on_c, 13, 60, 84
20, 102689, Note_on_c, 13, 60, 0
20, 102720, Note_on_c, 13, 59, 84
20, 102809, Note_on_c, 13, 59, 0
20, 102840, Note_on_c, 13, 64, 92
20, 102959, Note_on_c, 13, 64, 0
20, 102960, Note_on_c, 13, 62, 84
20, 103064, Note_on_c, 13, 62, 0
20, 103080, Note_on_c, 13, 60, 84
20, 103169, Note_on_c, 13, 60, 0
20, 103200, Note_on_c, 13, 59, 84
20, 103289, Note_on_c, 13, 59, 0
20, 103320, Note_on_c, 13, 60, 92
20, 103439, Note_on_c, 13, 60, 0
20, 103440, Note_on_c, 13, 59, 84
20, 103544, Note_on_c, 13, 59, 0
20, 103560, Note_on_c, 13, 57, 84
20, 103649, Note_on_c, 13, 57, 0
20, 103680, Note_on_c, 13, 55, 84
20, 103769, Note_on_c, 13, 55, 0
20, 103800, Note_on_c, 13, 60, 92
20, 103919, Note_on_c, 13, 60, 0
20, 103920, Note_on_c, 13, 59, 84
20, 104024, Note_on_c, 13, 59, 0
20, 104040, Note_on_c, 13, 57, 84
20, 104129, Note_on_c, 13, 57, 0
20, 104160, Note_on_c, 13, 55, 84
20, 104249, Note_on_c, 13, 55, 0
20, 104280, Note_on_c, 13, 60, 92
20, 104399, Note_on_c, 13, 60, 0
20, 104400, Note_on_c, 13, 59, 84
20, 104504, Note_on_c, 13, 59, 0
20, 104520, Note_on_c, 13, 57, 84
20, 104609, Note_on_c, 13, 57, 0
20, 104640, Note_on_c, 13, 55, 84
20, 104729, Note_on_c, 13, 55, 0
20, 104760, Note_on_c, 13, 60, 92
20, 104879, Note_on_c, 13, 60, 0
20, 104880, Note_on_c, 13, 59, 84
20, 104984, Note_on_c, 13, 59, 0
20, 105000, Note_on_c, 13, 57, 84
20, 105089, Note_on_c, 13, 57, 0
20, 105120, Note_on_c, 13, 55, 84
20, 105209, Note_on_c, 13, 55, 0
20, 105240, Note_on_c, 13, 53, 84
20, 105329, Note_on_c, 13, 53, 0
20, 105360, Note_on_c, 13, 52, 84
20, 105449, Note_on_c, 13, 52, 0
20, 105480, Note_on_c, 13, 50, 84
20, 105569, Note_on_c, 13, 50, 0
20, 105600, Note_on_c, 13, 48, 84
20, 105651, Note_on_c, 13, 48, 0
20, 105660, Note_on_c, 13, 52, 84
20, 105660, Note_on_c, 13, 55, 84
20, 105711, Note_on_c, 13, 52, 0
20, 105711, Note_on_c, 13, 55, 0
20, 105720, Note_on_c, 13, 55, 84
20, 105720, Note_on_c, 13, 52, 84
20, 105771, Note_on_c, 13, 55, 0
20, 105771, Note_on_c, 13, 52, 0
20, 105780, Note_on_c, 13, 52, 84
20, 105780, Note_on_c, 13, 55, 84
20, 105831, Note_on_c, 13, 52, 0
20, 105831, Note_on_c, 13, 55, 0
20, 105840, Note_on_c, 13, 52, 84
20, 105840, Note_on_c, 13, 55, 84
20, 105891, Note_on_c, 13, 52, 0
20, 105891, Note_on_c, 13, 55, 0
20, 105900, Note_on_c, 13, 55, 84
20, 105900, Note_on_c, 13, 52, 84
20, 105951, Note_on_c, 13, 55, 0
20, 105951, Note_on_c, 13, 52, 0
20, 105960, Note_on_c, 13, 52, 84
20, 105960, Note_on_c, 13, 55, 84
20, 106011, Note_on_c, 13, 52, 0
20, 106011, Note_on_c, 13, 55, 0
20, 106020, Note_on_c, 13, 55, 84
20, 106020, Note_on_c, 13, 52, 84
20, 106071, Note_on_c, 13, 55, 0
20, 106071, Note_on_c, 13, 52, 0
20, 106080, Note_on_c, 13, 52, 84
20, 106080, Note_on_c, 13, 55, 84
20, 106131, Note_on_c, 13, 52, 0
20, 106131, Note_on_c, 13, 55, 0
20, 106140, Note_on_c, 13, 52, 84
20, 106140, Note_on_c, 13, 55, 84
20, 106191, Note_on_c, 13, 52, 0
20, 106191, Note_on_c, 13, 55, 0
20, 106200, Note_on_c, 13, 52, 84
20, 106200, Note_on_c, 13, 55, 84
20, 106251, Note_on_c, 13, 52, 0
20, 106251, Note_on_c, 13, 55, 0
20, 106260, Note_on_c, 13, 52, 84
20, 106260, Note_on_c, 13, 55, 84
20, 106311, Note_on_c, 13, 52, 0
20, 106311, Note_on_c, 13, 55, 0
20, 106320, Note_on_c, 13, 52, 84
20, 106320, Note_on_c, 13, 55, 84
20, 106371, Note_on_c, 13, 52, 0
20, 106371, Note_on_c, 13, 55, 0
20, 106380, Note_on_c, 13, 55, 84
20, 106380, Note_on_c, 13, 52, 84
20, 106431, Note_on_c, 13, 55, 0
20, 106431, Note_on_c, 13, 52, 0
20, 106440, Note_on_c, 13, 55, 84
20, 106440, Note_on_c, 13, 52, 84
20, 106491, Note_on_c, 13, 55, 0
20, 106491, Note_on_c, 13, 52, 0
20, 106500, Note_on_c, 13, 52, 84
20, 106500, Note_on_c, 13, 55, 84
20, 106551, Note_on_c, 13, 52, 0
20, 106551, Note_on_c, 13, 55, 0
20, 106560, Note_on_c, 13, 52, 84
20, 106560, Note_on_c, 13, 55, 84
20, 106611, Note_on_c, 13, 52, 0
20, 106611, Note_on_c, 13, 55, 0
20, 106620, Note_on_c, 13, 52, 84
20, 106620, Note_on_c, 13, 55, 84
20, 106671, Note_on_c, 13, 52, 0
20, 106671, Note_on_c, 13, 55, 0
20, 106680, Note_on_c, 13, 52, 84
20, 106680, Note_on_c, 13, 55, 84
20, 106731, Note_on_c, 13, 52, 0
20, 106731, Note_on_c, 13, 55, 0
20, 106740, Note_on_c, 13, 52, 84
20, 106740, Note_on_c, 13, 55, 84
20, 106791, Note_on_c, 13, 52, 0
20, 106791, Note_on_c, 13, 55, 0
20, 106800, Note_on_c, 13, 52, 84
20, 106800, Note_on_c, 13, 55, 84
20, 106851, Note_on_c, 13, 52, 0
20, 106851, Note_on_c, 13, 55, 0
20, 106860, Note_on_c, 13, 52, 84
20, 106860, Note_on_c, 13, 55, 84
20, 106911, Note_on_c, 13, 52, 0
20, 106911, Note_on_c, 13, 55, 0
20, 106920, Note_on_c, 13, 52, 84
20, 106920, Note_on_c, 13, 55, 84
20, 106971, Note_on_c, 13, 52, 0
20, 106971, Note_on_c, 13, 55, 0
20, 106980, Note_on_c, 13, 55, 84
20, 106980, Note_on_c, 13, 52, 84
20, 107031, Note_on_c, 13, 55, 0
20, 107031, Note_on_c, 13, 52, 0
20, 107040, Note_on_c, 13, 52, 84
20, 107040, Note_on_c, 13, 55, 84
20, 107091, Note_on_c, 13, 52, 0
20, 107091, Note_on_c, 13, 55, 0
20, 107100, Note_on_c, 13, 52, 84
20, 107100, Note_on_c, 13, 55, 84
20, 107151, Note_on_c, 13, 52, 0
20, 107151, Note_on_c, 13, 55, 0
20, 107160, Note_on_c, 13, 52, 84
20, 107160, Note_on_c, 13, 55, 84
20, 107211, Note_on_c, 13, 52, 0
20, 107211, Note_on_c, 13, 55, 0
20, 107220, Note_on_c, 13, 52, 84
20, 107220, Note_on_c, 13, 55, 84
20, 107271, Note_on_c, 13, 52, 0
20, 107271, Note_on_c, 13, 55, 0
20, 107280, Note_on_c, 13, 52, 84
20, 107280, Note_on_c, 13, 55, 84
20, 107331, Note_on_c, 13, 52, 0
20, 107331, Note_on_c, 13, 55, 0
20, 107340, Note_on_c, 13, 52, 84
20, 107340, Note_on_c, 13, 55, 84
20, 107391, Note_on_c, 13, 52, 0
20, 107391, Note_on_c, 13, 55, 0
20, 107400, Note_on_c, 13, 52, 84
20, 107400, Note_on_c, 13, 55, 84
20, 107451, Note_on_c, 13, 52, 0
20, 107451, Note_on_c, 13, 55, 0
20, 107460, Note_on_c, 13, 55, 84
20, 107460, Note_on_c, 13, 52, 84
20, 107511, Note_on_c, 13, 55, 0
20, 107511, Note_on_c, 13, 52, 0
20, 107520, Note_on_c, 13, 53, 84
20, 107520, Note_on_c, 13, 55, 84
20, 107571, Note_on_c, 13, 53, 0
20, 107571, Note_on_c, 13, 55, 0
20, 107580, Note_on_c, 13, 53, 84
20, 107580, Note_on_c, 13, 55, 84
20, 107631, Note_on_c, 13, 53, 0
20, 107631, Note_on_c, 13, 55, 0
20, 107640, Note_on_c, 13, 55, 84
20, 107640, Note_on_c, 13, 53, 84
20, 107691, Note_on_c, 13, 55, 0
20, 107691, Note_on_c, 13, 53, 0
20, 107700, Note_on_c, 13, 55, 84
20, 107700, Note_on_c, 13, 53, 84
20, 107751, Note_on_c, 13, 55, 0
20, 107751, Note_on_c, 13, 53, 0
20, 107760, Note_on_c, 13, 53, 84
20, 107760, Note_on_c, 13, 55, 84
20, 107811, Note_on_c, 13, 53, 0
20, 107811, Note_on_c, 13, 55, 0
20, 107820, Note_on_c, 13, 55, 84
20, 107820, Note_on_c, 13, 53, 84
20, 107871, Note_on_c, 13, 55, 0
20, 107871, Note_on_c, 13, 53, 0
20, 107880, Note_on_c, 13, 55, 84
20, 107880, Note_on_c, 13, 53, 84
20, 107931, Note_on_c, 13, 55, 0
20, 107931, Note_on_c, 13, 53, 0
20, 107940, Note_on_c, 13, 53, 84
20, 107940, Note_on_c, 13, 55, 84
20, 107991, Note_on_c, 13, 53, 0
20, 107991, Note_on_c, 13, 55, 0
20, 108000, Note_on_c, 13, 55, 84
20, 108000, Note_on_c, 13, 53, 84
20, 108051, Note_on_c, 13, 55, 0
20, 108051, Note_on_c, 13, 53, 0
20, 108060, Note_on_c, 13, 53, 84
20, 108060, Note_on_c, 13, 55, 84
20, 108111, Note_on_c, 13, 53, 0
20, 108111, Note_on_c, 13, 55, 0
20, 108120, Note_on_c, 13, 53, 84
20, 108120, Note_on_c, 13, 55, 84
20, 108171, Note_on_c, 13, 53, 0
20, 108171, Note_on_c, 13, 55, 0
20, 108180, Note_on_c, 13, 55, 84
20, 108180, Note_on_c, 13, 53, 84
20, 108231, Note_on_c, 13, 55, 0
20, 108231, Note_on_c, 13, 53, 0
20, 108240, Note_on_c, 13, 53, 84
20, 108240, Note_on_c, 13, 55, 84
20, 108291, Note_on_c, 13, 53, 0
20, 108291, Note_on_c, 13, 55, 0
20, 108300, Note_on_c, 13, 55, 84
20, 108300, Note_on_c, 13, 53, 84
20, 108351, Note_on_c, 13, 55, 0
20, 108351, Note_on_c, 13, 53, 0
20, 108360, Note_on_c, 13, 53, 84
20, 108360, Note_on_c, 13, 55, 84
20, 108411, Note_on_c, 13, 53, 0
20, 108411, Note_on_c, 13, 55, 0
20, 108420, Note_on_c, 13, 53, 84
20, 108420, Note_on_c, 13, 55, 84
20, 108471, Note_on_c, 13, 53, 0
20, 108471, Note_on_c, 13, 55, 0
20, 108480, Note_on_c, 13, 53, 84
20, 108480, Note_on_c, 13, 55, 84
20, 108531, Note_on_c, 13, 53, 0
20, 108531, Note_on_c, 13, 55, 0
20, 108540, Note_on_c, 13, 53, 84
20, 108540, Note_on_c, 13, 55, 84
20, 108591, Note_on_c, 13, 53, 0
20, 108591, Note_on_c, 13, 55, 0
20, 108600, Note_on_c, 13, 53, 84
20, 108600, Note_on_c, 13, 55, 84
20, 108651, Note_on_c, 13, 53, 0
20, 108651, Note_on_c, 13, 55, 0
20, 108660, Note_on_c, 13, 53, 84
20, 108660, Note_on_c, 13, 55, 84
20, 108711, Note_on_c, 13, 53, 0
20, 108711, Note_on_c, 13, 55, 0
20, 108720, Note_on_c, 13, 55, 84
20, 108720, Note_on_c, 13, 53, 84
20, 108771, Note_on_c, 13, 55, 0
20, 108771, Note_on_c, 13, 53, 0
20, 108780, Note_on_c, 13, 53, 84
20, 108780, Note_on_c, 13, 55, 84
20, 108831, Note_on_c, 13, 53, 0
20, 108831, Note_on_c, 13, 55, 0
20, 108840, Note_on_c, 13, 53, 84
20, 108840, Note_on_c, 13, 55, 84
20, 108891, Note_on_c, 13, 53, 0
20, 108891, Note_on_c, 13, 55, 0
20, 108900, Note_on_c, 13, 53, 84
20, 108900, Note_on_c, 13, 55, 84
20, 108951, Note_on_c, 13, 53, 0
20, 108951, Note_on_c, 13, 55, 0
20, 108960, Note_on_c, 13, 55, 84
20, 108960, Note_on_c, 13, 53, 84
20, 109011, Note_on_c, 13, 55, 0
20, 109011, Note_on_c, 13, 53, 0
20, 109020, Note_on_c, 13, 55, 84
20, 109020, Note_on_c, 13, 53, 84
20, 109071, Note_on_c, 13, 55, 0
20, 109071, Note_on_c, 13, 53, 0
20, 109080, Note_on_c, 13, 55, 84
20, 109080, Note_on_c, 13, 53, 84
20, 109131, Note_on_c, 13, 55, 0
20, 109131, Note_on_c, 13, 53, 0
20, 109140, Note_on_c, 13, 53, 84
20, 109140, Note_on_c, 13, 55, 84
20, 109191, Note_on_c, 13, 53, 0
20, 109191, Note_on_c, 13, 55, 0
20, 109200, Note_on_c, 13, 53, 84
20, 109200, Note_on_c, 13, 55, 84
20, 109251, Note_on_c, 13, 53, 0
20, 109251, Note_on_c, 13, 55, 0
20, 109260, Note_on_c, 13, 53, 84
20, 109260, Note_on_c, 13, 55, 84
20, 109311, Note_on_c, 13, 53, 0
20, 109311, Note_on_c, 13, 55, 0
20, 109320, Note_on_c, 13, 55, 84
20, 109320, Note_on_c, 13, 53, 84
20, 109371, Note_on_c, 13, 55, 0
20, 109371, Note_on_c, 13, 53, 0
20, 109380, Note_on_c, 13, 53, 84
20, 109380, Note_on_c, 13, 55, 84
20, 109431, Note_on_c, 13, 53, 0
20, 109431, Note_on_c, 13, 55, 0
20, 109440, Note_on_c, 13, 55, 84
20, 109440, Note_on_c, 13, 53, 84
20, 109491, Note_on_c, 13, 55, 0
20, 109491, Note_on_c, 13, 53, 0
20, 109500, Note_on_c, 13, 53, 84
20, 109500, Note_on_c, 13, 55, 84
20, 109551, Note_on_c, 13, 53, 0
20, 109551, Note_on_c, 13, 55, 0
20, 109560, Note_on_c, 13, 53, 84
20, 109560, Note_on_c, 13, 55, 84
20, 109611, Note_on_c, 13, 53, 0
20, 109611, Note_on_c, 13, 55, 0
20, 109620, Note_on_c, 13, 55, 84
20, 109620, Note_on_c, 13, 53, 84
20, 109671, Note_on_c, 13, 55, 0
20, 109671, Note_on_c, 13, 53, 0
20, 109680, Note_on_c, 13, 53, 84
20, 109680, Note_on_c, 13, 55, 84
20, 109731, Note_on_c, 13, 53, 0
20, 109731, Note_on_c, 13, 55, 0
20, 109740, Note_on_c, 13, 53, 84
20, 109740, Note_on_c, 13, 55, 84
20, 109791, Note_on_c, 13, 53, 0
20, 109791, Note_on_c, 13, 55, 0
20, 109800, Note_on_c, 13, 55, 84
20, 109800, Note_on_c, 13, 53, 84
20, 109851, Note_on_c, 13, 55, 0
20, 109851, Note_on_c, 13, 53, 0
20, 109860, Note_on_c, 13, 55, 84
20, 109860, Note_on_c, 13, 53, 84
20, 109911, Note_on_c, 13, 55, 0
20, 109911, Note_on_c, 13, 53, 0
20, 109920, Note_on_c, 13, 55, 84
20, 109920, Note_on_c, 13, 53, 84
20, 109971, Note_on_c, 13, 55, 0
20, 109971, Note_on_c, 13, 53, 0
20, 109980, Note_on_c, 13, 55, 84
20, 109980, Note_on_c, 13, 53, 84
20, 110031, Note_on_c, 13, 55, 0
20, 110031, Note_on_c, 13, 53, 0
20, 110040, Note_on_c, 13, 55, 84
20, 110040, Note_on_c, 13, 53, 84
20, 110091, Note_on_c, 13, 55, 0
20, 110091, Note_on_c, 13, 53, 0
20, 110100, Note_on_c, 13, 55, 84
20, 110100, Note_on_c, 13, 53, 84
20, 110151, Note_on_c, 13, 55, 0
20, 110151, Note_on_c, 13, 53, 0
20, 110160, Note_on_c, 13, 53, 84
20, 110160, Note_on_c, 13, 55, 84
20, 110211, Note_on_c, 13, 53, 0
20, 110211, Note_on_c, 13, 55, 0
20, 110220, Note_on_c, 13, 55, 84
20, 110220, Note_on_c, 13, 53, 84
20, 110271, Note_on_c, 13, 55, 0
20, 110271, Note_on_c, 13, 53, 0
20, 110280, Note_on_c, 13, 55, 84
20, 110280, Note_on_c, 13, 53, 84
20, 110331, Note_on_c, 13, 55, 0
20, 110331, Note_on_c, 13, 53, 0
20, 110340, Note_on_c, 13, 53, 84
20, 110340, Note_on_c, 13, 55, 84
20, 110391, Note_on_c, 13, 53, 0
20, 110391, Note_on_c, 13, 55, 0
20, 110400, Note_on_c, 13, 53, 84
20, 110400, Note_on_c, 13, 55, 84
20, 110451, Note_on_c, 13, 53, 0
20, 110451, Note_on_c, 13, 55, 0
20, 110460, Note_on_c, 13, 53, 84
20, 110460, Note_on_c, 13, 55, 84
20, 110511, Note_on_c, 13, 53, 0
20, 110511, Note_on_c, 13, 55, 0
20, 110520, Note_on_c, 13, 53, 84
20, 110520, Note_on_c, 13, 55, 84
20, 110571, Note_on_c, 13, 53, 0
20, 110571, Note_on_c, 13, 55, 0
20, 110580, Note_on_c, 13, 55, 84
20, 110580, Note_on_c, 13, 53, 84
20, 110631, Note_on_c, 13, 55, 0
20, 110631, Note_on_c, 13, 53, 0
20, 110640, Note_on_c, 13, 53, 84
20, 110640, Note_on_c, 13, 55, 84
20, 110691, Note_on_c, 13, 53, 0
20, 110691, Note_on_c, 13, 55, 0
20, 110700, Note_on_c, 13, 55, 84
20, 110700, Note_on_c, 13, 53, 84
20, 110751, Note_on_c, 13, 55, 0
20, 110751, Note_on_c, 13, 53, 0
20, 110760, Note_on_c, 13, 53, 84
20, 110760, Note_on_c, 13, 55, 84
20, 110811, Note_on_c, 13, 53, 0
20, 110811, Note_on_c, 13, 55, 0
20, 110820, Note_on_c, 13, 53, 84
20, 110820, Note_on_c, 13, 55, 84
20, 110871, Note_on_c, 13, 53, 0
20, 110871, Note_on_c, 13, 55, 0
20, 110880, Note_on_c, 13, 53, 84
20, 110880, Note_on_c, 13, 55, 84
20, 110931, Note_on_c, 13, 53, 0
20, 110931, Note_on_c, 13, 55, 0
20, 110940, Note_on_c, 13, 53, 84
20, 110940, Note_on_c, 13, 55, 84
20, 110991, Note_on_c, 13, 53, 0
20, 110991, Note_on_c, 13, 55, 0
20, 111000, Note_on_c, 13, 53, 84
20, 111000, Note_on_c, 13, 55, 84
20, 111051, Note_on_c, 13, 53, 0
20, 111051, Note_on_c, 13, 55, 0
20, 111060, Note_on_c, 13, 55, 84
20, 111060, Note_on_c, 13, 53, 84
20, 111111, Note_on_c, 13, 55, 0
20, 111111, Note_on_c, 13, 53, 0
20, 111120, Note_on_c, 13, 53, 84
20, 111120, Note_on_c, 13, 55, 84
20, 111171, Note_on_c, 13, 53, 0
20, 111171, Note_on_c, 13, 55, 0
20, 111180, Note_on_c, 13, 55, 84
20, 111180, Note_on_c, 13, 53, 84
20, 111231, Note_on_c, 13, 55, 0
20, 111231, Note_on_c, 13, 53, 0
20, 111240, Note_on_c, 13, 53, 84
20, 111240, Note_on_c, 13, 55, 84
20, 111291, Note_on_c, 13, 53, 0
20, 111291, Note_on_c, 13, 55, 0
20, 111300, Note_on_c, 13, 55, 84
20, 111300, Note_on_c, 13, 53, 84
20, 111351, Note_on_c, 13, 55, 0
20, 111351, Note_on_c, 13, 53, 0
20, 111360, Note_on_c, 13, 52, 84
20, 111360, Note_on_c, 13, 55, 84
20, 111411, Note_on_c, 13, 52, 0
20, 111411, Note_on_c, 13, 55, 0
20, 111420, Note_on_c, 13, 55, 84
20, 111420, Note_on_c, 13, 52, 84
20, 111471, Note_on_c, 13, 55, 0
20, 111471, Note_on_c, 13, 52, 0
20, 111480, Note_on_c, 13, 52, 84
20, 111480, Note_on_c, 13, 55, 84
20, 111531, Note_on_c, 13, 52, 0
20, 111531, Note_on_c, 13, 55, 0
20, 111540, Note_on_c, 13, 52, 84
20, 111540, Note_on_c, 13, 55, 84
20, 111591, Note_on_c, 13, 52, 0
20, 111591, Note_on_c, 13, 55, 0
20, 111600, Note_on_c, 13, 55, 84
20, 111600, Note_on_c, 13, 52, 84
20, 111651, Note_on_c, 13, 55, 0
20, 111651, Note_on_c, 13, 52, 0
20, 111660, Note_on_c, 13, 52, 84
20, 111660, Note_on_c, 13, 55, 84
20, 111711, Note_on_c, 13, 52, 0
20, 111711, Note_on_c, 13, 55, 0
20, 111720, Note_on_c, 13, 52, 84
20, 111720, Note_on_c, 13, 55, 84
20, 111771, Note_on_c, 13, 52, 0
20, 111771, Note_on_c, 13, 55, 0
20, 111780, Note_on_c, 13, 52, 84
20, 111780, Note_on_c, 13, 55, 84
20, 111831, Note_on_c, 13, 52, 0
20, 111831, Note_on_c, 13, 55, 0
20, 111840, Note_on_c, 13, 52, 84
20, 111840, Note_on_c, 13, 55, 84
20, 111891, Note_on_c, 13, 52, 0
20, 111891, Note_on_c, 13, 55, 0
20, 111900, Note_on_c, 13, 55, 84
20, 111900, Note_on_c, 13, 52, 84
20, 111951, Note_on_c, 13, 55, 0
20, 111951, Note_on_c, 13, 52, 0
20, 111960, Note_on_c, 13, 55, 84
20, 111960, Note_on_c, 13, 52, 84
20, 112011, Note_on_c, 13, 55, 0
20, 112011, Note_on_c, 13, 52, 0
20, 112020, Note_on_c, 13, 55, 84
20, 112020, Note_on_c, 13, 52, 84
20, 112071, Note_on_c, 13, 55, 0
20, 112071, Note_on_c, 13, 52, 0
20, 112080, Note_on_c, 13, 55, 84
20, 112080, Note_on_c, 13, 52, 84
20, 112131, Note_on_c, 13, 55, 0
20, 112131, Note_on_c, 13, 52, 0
20, 112140, Note_on_c, 13, 52, 84
20, 112140, Note_on_c, 13, 55, 84
20, 112191, Note_on_c, 13, 52, 0
20, 112191, Note_on_c, 13, 55, 0
20, 112200, Note_on_c, 13, 55, 84
20, 112200, Note_on_c, 13, 52, 84
20, 112251, Note_on_c, 13, 55, 0
20, 112251, Note_on_c, 13, 52, 0
20, 112260, Note_on_c, 13, 52, 84
20, 112260, Note_on_c, 13, 55, 84
20, 112311, Note_on_c, 13, 52, 0
20, 112311, Note_on_c, 13, 55, 0
20, 112320, Note_on_c, 13, 52, 84
20, 112320, Note_on_c, 13, 55, 84
20, 112371, Note_on_c, 13, 52, 0
20, 112371, Note_on_c, 13, 55, 0
20, 112380, Note_on_c, 13, 52, 84
20, 112380, Note_on_c, 13, 55, 84
20, 112431, Note_on_c, 13, 52, 0
20, 112431, Note_on_c, 13, 55, 0
20, 112440, Note_on_c, 13, 52, 84
20, 112440, Note_on_c, 13, 55, 84
20, 112491, Note_on_c, 13, 52, 0
20, 112491, Note_on_c, 13, 55, 0
20, 112500, Note_on_c, 13, 52, 84
20, 112500, Note_on_c, 13, 55, 84
20, 112551, Note_on_c, 13, 52, 0
20, 112551, Note_on_c, 13, 55, 0
20, 112560, Note_on_c, 13, 52, 84
20, 112560, Note_on_c, 13, 55, 84
20, 112611, Note_on_c, 13, 52, 0
20, 112611, Note_on_c, 13, 55, 0
20, 112620, Note_on_c, 13, 55, 84
20, 112620, Note_on_c, 13, 52, 84
20, 112671, Note_on_c, 13, 55, 0
20, 112671, Note_on_c, 13, 52, 0
20, 112680, Note_on_c, 13, 55, 84
20, 112680, Note_on_c, 13, 52, 84
20, 112731, Note_on_c, 13, 55, 0
20, 112731, Note_on_c, 13, 52, 0
20, 112740, Note_on_c, 13, 52, 84
20, 112740, Note_on_c, 13, 55, 84
20, 112791, Note_on_c, 13, 52, 0
20, 112791, Note_on_c, 13, 55, 0
20, 112800, Note_on_c, 13, 55, 84
20, 112800, Note_on_c, 13, 52, 84
20, 112851, Note_on_c, 13, 55, 0
20, 112851, Note_on_c, 13, 52, 0
20, 112860, Note_on_c, 13, 52, 84
20, 112860, Note_on_c, 13, 55, 84
20, 112911, Note_on_c, 13, 52, 0
20, 112911, Note_on_c, 13, 55, 0
20, 112920, Note_on_c, 13, 52, 84
20, 112920, Note_on_c, 13, 55, 84
20, 112971, Note_on_c, 13, 52, 0
20, 112971, Note_on_c, 13, 55, 0
20, 112980, Note_on_c, 13, 52, 84
20, 112980, Note_on_c, 13, 55, 84
20, 113031, Note_on_c, 13, 52, 0
20, 113031, Note_on_c, 13, 55, 0
20, 113040, Note_on_c, 13, 52, 84
20, 113040, Note_on_c, 13, 55, 84
20, 113091, Note_on_c, 13, 52, 0
20, 113091, Note_on_c, 13, 55, 0
20, 113100, Note_on_c, 13, 55, 84
20, 113100, Note_on_c, 13, 52, 84
20, 113151, Note_on_c, 13, 55, 0
20, 113151, Note_on_c, 13, 52, 0
20, 113160, Note_on_c, 13, 55, 84
20, 113160, Note_on_c, 13, 52, 84
20, 113211, Note_on_c, 13, 55, 0
20, 113211, Note_on_c, 13, 52, 0
20, 113220, Note_on_c, 13, 52, 84
20, 113220, Note_on_c, 13, 55, 84
20, 113271, Note_on_c, 13, 52, 0
20, 113271, Note_on_c, 13, 55, 0
20, 113280, Note_on_c, 13, 52, 84
20, 114239, Note_on_c, 13, 52, 0
20, 114240, Note_on_c, 13, 52, 84
20, 114704, Note_on_c, 13, 52, 0
20, 114720, Note_on_c, 13, 52, 84
20, 114959, Note_on_c, 13, 52, 0
20, 114960, Note_on_c, 13, 54, 84
20, 115139, Note_on_c, 13, 54, 0
20, 115140, Note_on_c, 13, 55, 84
20, 115191, Note_on_c, 13, 55, 0
20, 115200, Note_on_c, 13, 54, 84
20, 116159, Note_on_c, 13, 54, 0
20, 116160, Note_on_c, 13, 54, 84
20, 116624, Note_on_c, 13, 54, 0
20, 116640, Note_on_c, 13, 54, 84
20, 116879, Note_on_c, 13, 54, 0
20, 116880, Note_on_c, 13, 55, 84
20, 117059, Note_on_c, 13, 55, 0
20, 117060, Note_on_c, 13, 57, 84
20, 117111, Note_on_c, 13, 57, 0
20, 117120, Note_on_c, 13, 59, 84
20, 117584, Note_on_c, 13, 59, 0
20, 117600, Note_on_c, 13, 55, 84
20, 117839, Note_on_c, 13, 55, 0
20, 117840, Note_on_c, 13, 57, 84
20, 118019, Note_on_c, 13, 57, 0
20, 118020, Note_on_c, 13, 59, 84
20, 118071, Note_on_c, 13, 59, 0
20, 118080, Note_on_c, 13, 57, 84
20, 118544, Note_on_c, 13, 57, 0
20, 118560, Note_on_c, 13, 54, 84
20, 118919, Note_on_c, 13, 54, 0
20, 118920, Note_on_c, 13, 55, 84
20, 118979, Note_on_c, 13, 55, 0
20, 118980, Note_on_c, 13, 57, 84
20, 119031, Note_on_c, 13, 57, 0
20, 119040, Note_on_c, 13, 59, 84
20, 119504, Note_on_c, 13, 59, 0
20, 119520, Note_on_c, 13, 55, 84
20, 119879, Note_on_c, 13, 55, 0
20, 119880, Note_on_c, 13, 57, 84
20, 119939, Note_on_c, 13, 57, 0
20, 119940, Note_on_c, 13, 59, 84
20, 119991, Note_on_c, 13, 59, 0
20, 120000, Note_on_c, 13, 54, 84
20, 120104, Note_on_c, 13, 54, 0
20, 120120, Note_on_c, 13, 66, 84
20, 120344, Note_on_c, 13, 66, 0
20, 120360, Note_on_c, 13, 67, 84
20, 120464, Note_on_c, 13, 67, 0
20, 120480, Note_on_c, 13, 69, 84
20, 120569, Note_on_c, 13, 69, 0
20, 120600, Note_on_c, 13, 74, 84
20, 120719, Note_on_c, 13, 74, 0
20, 120720, Note_on_c, 13, 72, 84
20, 120824, Note_on_c, 13, 72, 0
20, 120840, Note_on_c, 13, 71, 84
20, 120929, Note_on_c, 13, 71, 0
20, 120960, Note_on_c, 13, 69, 84
20, 121049, Note_on_c, 13, 69, 0
20, 121080, Note_on_c, 13, 71, 84
20, 121199, Note_on_c, 13, 71, 0
20, 121200, Note_on_c, 13, 69, 84
20, 121304, Note_on_c, 13, 69, 0
20, 121320, Note_on_c, 13, 67, 84
20, 121409, Note_on_c, 13, 67, 0
20, 121440, Note_on_c, 13, 62, 84
20, 121529, Note_on_c, 13, 62, 0
20, 121560, Note_on_c, 13, 62, 84
20, 121679, Note_on_c, 13, 62, 0
20, 121680, Note_on_c, 13, 64, 84
20, 121784, Note_on_c, 13, 64, 0
20, 121800, Note_on_c, 13, 57, 84
20, 121889, Note_on_c, 13, 57, 0
20, 121920, Note_on_c, 13, 62, 84
20, 122039, Note_on_c, 13, 62, 0
20, 122520, Note_on_c, 13, 50, 84
20, 122639, Note_on_c, 13, 50, 0
20, 122640, Note_on_c, 13, 49, 84
20, 122744, Note_on_c, 13, 49, 0
20, 122760, Note_on_c, 13, 55, 84
20, 122849, Note_on_c, 13, 55, 0
20, 122880, Note_on_c, 13, 54, 84
20, 122999, Note_on_c, 13, 54, 0
20, 123600, Note_on_c, 13, 54, 84
20, 123679, Note_on_c, 13, 54, 0
20, 123680, Note_on_c, 13, 55, 84
20, 123759, Note_on_c, 13, 55, 0
20, 123760, Note_on_c, 13, 57, 84
20, 123827, Note_on_c, 13, 57, 0
20, 123840, Note_on_c, 13, 59, 84
20, 123907, Note_on_c, 13, 59, 0
20, 123920, Note_on_c, 13, 55, 84
20, 123987, Note_on_c, 13, 55, 0
20, 124000, Note_on_c, 13, 59, 84
20, 124067, Note_on_c, 13, 59, 0
20, 124080, Note_on_c, 13, 59, 84
20, 124147, Note_on_c, 13, 59, 0
20, 124160, Note_on_c, 13, 59, 84
20, 124227, Note_on_c, 13, 59, 0
20, 124240, Note_on_c, 13, 59, 84
20, 124307, Note_on_c, 13, 59, 0
20, 124320, Note_on_c, 13, 55, 84
20, 124387, Note_on_c, 13, 55, 0
20, 124400, Note_on_c, 13, 60, 84
20, 124467, Note_on_c, 13, 60, 0
20, 124480, Note_on_c, 13, 60, 84
20, 124547, Note_on_c, 13, 60, 0
20, 124560, Note_on_c, 13, 60, 84
20, 124627, Note_on_c, 13, 60, 0
20, 124640, Note_on_c, 13, 60, 84
20, 124707, Note_on_c, 13, 60, 0
20, 124720, Note_on_c, 13, 60, 84
20, 124787, Note_on_c, 13, 60, 0
20, 124800, Note_on_c, 13, 55, 84
20, 124867, Note_on_c, 13, 55, 0
20, 124880, Note_on_c, 13, 59, 84
20, 124947, Note_on_c, 13, 59, 0
20, 124960, Note_on_c, 13, 59, 84
20, 125027, Note_on_c, 13, 59, 0
20, 125040, Note_on_c, 13, 59, 84
20, 125107, Note_on_c, 13, 59, 0
20, 125120, Note_on_c, 13, 59, 84
20, 125187, Note_on_c, 13, 59, 0
20, 125200, Note_on_c, 13, 59, 84
20, 125267, Note_on_c, 13, 59, 0
20, 125280, Note_on_c, 13, 59, 84
20, 125504, Note_on_c, 13, 59, 0
20, 125520, Note_on_c, 13, 62, 52
20, 125759, Note_on_c, 13, 62, 0
20, 125760, Note_on_c, 13, 62, 52
20, 126719, Note_on_c, 13, 62, 0
20, 126720, Note_on_c, 13, 62, 52
20, 126944, Note_on_c, 13, 62, 0
20, 126958, Control_c, 13, 11, 80
20, 126960, Control_c, 13, 11, 80
20, 126960, Note_on_c, 13, 54, 76
20, 127000, Control_c, 13, 11, 84
20, 127039, Note_on_c, 13, 54, 0
20, 127040, Note_on_c, 13, 55, 76
20, 127040, Control_c, 13, 11, 88
20, 127080, Control_c, 13, 11, 92
20, 127119, Note_on_c, 13, 55, 0
20, 127120, Control_c, 13, 11, 96
20, 127120, Note_on_c, 13, 57, 76
20, 127160, Control_c, 13, 11, 100
20, 127187, Note_on_c, 13, 57, 0
20, 127200, Control_c, 13, 11, 104
20, 127200, Note_on_c, 13, 50, 76
20, 127240, Control_c, 13, 11, 107
20, 127280, Control_c, 13, 11, 111
20, 127320, Control_c, 13, 11, 115
20, 127360, Control_c, 13, 11, 119
20, 127400, Control_c, 13, 11, 127
20, 127424, Note_on_c, 13, 50, 0
20, 127440, Note_on_c, 13, 60, 76
20, 127507, Note_on_c, 13, 60, 0
20, 127520, Note_on_c, 13, 59, 76
20, 127587, Note_on_c, 13, 59, 0
20, 127600, Note_on_c, 13, 57, 76
20, 127667, Note_on_c, 13, 57, 0
20, 127680, Note_on_c, 13, 55, 76
20, 127747, Note_on_c, 13, 55, 0
20, 127760, Note_on_c, 13, 67, 76
20, 127827, Note_on_c, 13, 67, 0
20, 127840, Note_on_c, 13, 67, 76
20, 127907, Note_on_c, 13, 67, 0
20, 127920, Note_on_c, 13, 67, 76
20, 127987, Note_on_c, 13, 67, 0
20, 128000, Note_on_c, 13, 66, 76
20, 128067, Note_on_c, 13, 66, 0
20, 128080, Note_on_c, 13, 65, 76
20, 128147, Note_on_c, 13, 65, 0
20, 128160, Note_on_c, 13, 64, 76
20, 128227, Note_on_c, 13, 64, 0
20, 128240, Note_on_c, 13, 64, 76
20, 128307, Note_on_c, 13, 64, 0
20, 128320, Note_on_c, 13, 64, 76
20, 128387, Note_on_c, 13, 64, 0
20, 128400, Note_on_c, 13, 64, 76
20, 128467, Note_on_c, 13, 64, 0
20, 128480, Note_on_c, 13, 62, 76
20, 128547, Note_on_c, 13, 62, 0
20, 128560, Note_on_c, 13, 60, 76
20, 128627, Note_on_c, 13, 60, 0
20, 128640, Note_on_c, 13, 62, 76
20, 128707, Note_on_c, 13, 62, 0
20, 128720, Note_on_c, 13, 59, 76
20, 128787, Note_on_c, 13, 59, 0
20, 128800, Note_on_c, 13, 59, 76
20, 128867, Note_on_c, 13, 59, 0
20, 128880, Note_on_c, 13, 59, 76
20, 128947, Note_on_c, 13, 59, 0
20, 128960, Note_on_c, 13, 59, 76
20, 129027, Note_on_c, 13, 59, 0
20, 129040, Note_on_c, 13, 59, 76
20, 129107, Note_on_c, 13, 59, 0
20, 129120, Note_on_c, 13, 59, 76
20, 129344, Note_on_c, 13, 59, 0
20, 129360, Note_on_c, 13, 62, 52
20, 129599, Note_on_c, 13, 62, 0
20, 129600, Note_on_c, 13, 62, 52
20, 130559, Note_on_c, 13, 62, 0
20, 130560, Note_on_c, 13, 62, 52
20, 130784, Note_on_c, 13, 62, 0
20, 130800, Note_on_c, 13, 50, 76
20, 130867, Note_on_c, 13, 50, 0
20, 130880, Note_on_c, 13, 52, 76
20, 130947, Note_on_c, 13, 52, 0
20, 130960, Note_on_c, 13, 54, 76
20, 131027, Note_on_c, 13, 54, 0
20, 131040, Note_on_c, 13, 55, 76
20, 131264, Note_on_c, 13, 55, 0
20, 131280, Note_on_c, 13, 64, 52
20, 131519, Note_on_c, 13, 64, 0
20, 131520, Note_on_c, 13, 64, 52
20, 132479, Note_on_c, 13, 64, 0
20, 132480, Note_on_c, 13, 64, 52
20, 132704, Note_on_c, 13, 64, 0
20, 132720, Note_on_c, 13, 52, 76
20, 132787, Note_on_c, 13, 52, 0
20, 132800, Note_on_c, 13, 54, 76
20, 132867, Note_on_c, 13, 54, 0
20, 132880, Note_on_c, 13, 56, 76
20, 132947, Note_on_c, 13, 56, 0
20, 132960, Note_on_c, 13, 57, 76
20, 133199, Note_on_c, 13, 57, 0
20, 134040, Note_on_c, 13, 60, 44
20, 134159, Note_on_c, 13, 60, 0
20, 134160, Note_on_c, 13, 59, 44
20, 134279, Note_on_c, 13, 59, 0
20, 134280, Note_on_c, 13, 60, 44
20, 134384, Note_on_c, 13, 60, 0
20, 134400, Note_on_c, 13, 62, 44
20, 134400, Note_on_c, 13, 59, 44
20, 134451, Note_on_c, 13, 62, 0
20, 134451, Note_on_c, 13, 59, 0
20, 134460, Note_on_c, 13, 62, 45
20, 134460, Note_on_c, 13, 59, 45
20, 134511, Note_on_c, 13, 62, 0
20, 134511, Note_on_c, 13, 59, 0
20, 134520, Note_on_c, 13, 59, 46
20, 134520, Note_on_c, 13, 62, 46
20, 134571, Note_on_c, 13, 59, 0
20, 134571, Note_on_c, 13, 62, 0
20, 134580, Note_on_c, 13, 59, 47
20, 134580, Note_on_c, 13, 62, 47
20, 134631, Note_on_c, 13, 59, 0
20, 134631, Note_on_c, 13, 62, 0
20, 134640, Note_on_c, 13, 62, 49
20, 134640, Note_on_c, 13, 59, 49
20, 134691, Note_on_c, 13, 62, 0
20, 134691, Note_on_c, 13, 59, 0
20, 134700, Note_on_c, 13, 59, 50
20, 134700, Note_on_c, 13, 62, 50
20, 134751, Note_on_c, 13, 59, 0
20, 134751, Note_on_c, 13, 62, 0
20, 134760, Note_on_c, 13, 62, 51
20, 134760, Note_on_c, 13, 59, 51
20, 134811, Note_on_c, 13, 62, 0
20, 134811, Note_on_c, 13, 59, 0
20, 134820, Note_on_c, 13, 62, 52
20, 134820, Note_on_c, 13, 59, 52
20, 134871, Note_on_c, 13, 62, 0
20, 134871, Note_on_c, 13, 59, 0
20, 134880, Note_on_c, 13, 59, 54
20, 134880, Note_on_c, 13, 62, 54
20, 134931, Note_on_c, 13, 59, 0
20, 134931, Note_on_c, 13, 62, 0
20, 134940, Note_on_c, 13, 62, 55
20, 134940, Note_on_c, 13, 59, 55
20, 134991, Note_on_c, 13, 62, 0
20, 134991, Note_on_c, 13, 59, 0
20, 135000, Note_on_c, 13, 59, 56
20, 135000, Note_on_c, 13, 62, 56
20, 135051, Note_on_c, 13, 59, 0
20, 135051, Note_on_c, 13, 62, 0
20, 135060, Note_on_c, 13, 62, 57
20, 135060, Note_on_c, 13, 59, 57
20, 135111, Note_on_c, 13, 62, 0
20, 135111, Note_on_c, 13, 59, 0
20, 135120, Note_on_c, 13, 59, 59
20, 135120, Note_on_c, 13, 62, 59
20, 135171, Note_on_c, 13, 59, 0
20, 135171, Note_on_c, 13, 62, 0
20, 135180, Note_on_c, 13, 62, 60
20, 135180, Note_on_c, 13, 59, 60
20, 135231, Note_on_c, 13, 62, 0
20, 135231, Note_on_c, 13, 59, 0
20, 135240, Note_on_c, 13, 62, 61
20, 135240, Note_on_c, 13, 59, 61
20, 135291, Note_on_c, 13, 62, 0
20, 135291, Note_on_c, 13, 59, 0
20, 135300, Note_on_c, 13, 59, 62
20, 135300, Note_on_c, 13, 62, 62
20, 135351, Note_on_c, 13, 59, 0
20, 135351, Note_on_c, 13, 62, 0
20, 135360, Note_on_c, 13, 63, 64
20, 135360, Note_on_c, 13, 59, 64
20, 135411, Note_on_c, 13, 63, 0
20, 135411, Note_on_c, 13, 59, 0
20, 135420, Note_on_c, 13, 63, 65
20, 135420, Note_on_c, 13, 59, 65
20, 135471, Note_on_c, 13, 63, 0
20, 135471, Note_on_c, 13, 59, 0
20, 135480, Note_on_c, 13, 59, 66
20, 135480, Note_on_c, 13, 63, 66
20, 135531, Note_on_c, 13, 59, 0
20, 135531, Note_on_c, 13, 63, 0
20, 135540, Note_on_c, 13, 59, 67
20, 135540, Note_on_c, 13, 63, 67
20, 135591, Note_on_c, 13, 59, 0
20, 135591, Note_on_c, 13, 63, 0
20, 135600, Note_on_c, 13, 63, 69
20, 135600, Note_on_c, 13, 59, 69
20, 135651, Note_on_c, 13, 63, 0
20, 135651, Note_on_c, 13, 59, 0
20, 135660, Note_on_c, 13, 59, 70
20, 135660, Note_on_c, 13, 63, 70
20, 135711, Note_on_c, 13, 59, 0
20, 135711, Note_on_c, 13, 63, 0
20, 135720, Note_on_c, 13, 63, 71
20, 135720, Note_on_c, 13, 59, 71
20, 135771, Note_on_c, 13, 63, 0
20, 135771, Note_on_c, 13, 59, 0
20, 135780, Note_on_c, 13, 59, 72
20, 135780, Note_on_c, 13, 63, 72
20, 135831, Note_on_c, 13, 59, 0
20, 135831, Note_on_c, 13, 63, 0
20, 135840, Note_on_c, 13, 59, 74
20, 135840, Note_on_c, 13, 63, 74
20, 135891, Note_on_c, 13, 59, 0
20, 135891, Note_on_c, 13, 63, 0
20, 135900, Note_on_c, 13, 59, 75
20, 135900, Note_on_c, 13, 63, 75
20, 135951, Note_on_c, 13, 59, 0
20, 135951, Note_on_c, 13, 63, 0
20, 135960, Note_on_c, 13, 59, 76
20, 135960, Note_on_c, 13, 63, 76
20, 136011, Note_on_c, 13, 59, 0
20, 136011, Note_on_c, 13, 63, 0
20, 136020, Note_on_c, 13, 59, 77
20, 136020, Note_on_c, 13, 63, 77
20, 136071, Note_on_c, 13, 59, 0
20, 136071, Note_on_c, 13, 63, 0
20, 136080, Note_on_c, 13, 63, 79
20, 136080, Note_on_c, 13, 59, 79
20, 136131, Note_on_c, 13, 63, 0
20, 136131, Note_on_c, 13, 59, 0
20, 136140, Note_on_c, 13, 63, 80
20, 136140, Note_on_c, 13, 59, 80
20, 136191, Note_on_c, 13, 63, 0
20, 136191, Note_on_c, 13, 59, 0
20, 136200, Note_on_c, 13, 63, 81
20, 136200, Note_on_c, 13, 59, 81
20, 136251, Note_on_c, 13, 63, 0
20, 136251, Note_on_c, 13, 59, 0
20, 136260, Note_on_c, 13, 59, 82
20, 136260, Note_on_c, 13, 63, 82
20, 136311, Note_on_c, 13, 59, 0
20, 136311, Note_on_c, 13, 63, 0
20, 136320, Note_on_c, 13, 64, 84
20, 136320, Note_on_c, 13, 60, 84
20, 136371, Note_on_c, 13, 64, 0
20, 136371, Note_on_c, 13, 60, 0
20, 136380, Note_on_c, 13, 64, 84
20, 136380, Note_on_c, 13, 60, 84
20, 136431, Note_on_c, 13, 64, 0
20, 136431, Note_on_c, 13, 60, 0
20, 136440, Note_on_c, 13, 60, 84
20, 136440, Note_on_c, 13, 64, 84
20, 136491, Note_on_c, 13, 60, 0
20, 136491, Note_on_c, 13, 64, 0
20, 136500, Note_on_c, 13, 64, 84
20, 136500, Note_on_c, 13, 60, 84
20, 136551, Note_on_c, 13, 64, 0
20, 136551, Note_on_c, 13, 60, 0
20, 136560, Note_on_c, 13, 64, 84
20, 136560, Note_on_c, 13, 60, 84
20, 136611, Note_on_c, 13, 64, 0
20, 136611, Note_on_c, 13, 60, 0
20, 136620, Note_on_c, 13, 60, 84
20, 136620, Note_on_c, 13, 64, 84
20, 136671, Note_on_c, 13, 60, 0
20, 136671, Note_on_c, 13, 64, 0
20, 136680, Note_on_c, 13, 60, 84
20, 136680, Note_on_c, 13, 64, 84
20, 136731, Note_on_c, 13, 60, 0
20, 136731, Note_on_c, 13, 64, 0
20, 136740, Note_on_c, 13, 64, 84
20, 136740, Note_on_c, 13, 60, 84
20, 136791, Note_on_c, 13, 64, 0
20, 136791, Note_on_c, 13, 60, 0
20, 136800, Note_on_c, 13, 64, 84
20, 136800, Note_on_c, 13, 60, 84
20, 136851, Note_on_c, 13, 64, 0
20, 136851, Note_on_c, 13, 60, 0
20, 136860, Note_on_c, 13, 48, 84
20, 136911, Note_on_c, 13, 48, 0
20, 136920, Note_on_c, 13, 50, 84
20, 136971, Note_on_c, 13, 50, 0
20, 136980, Note_on_c, 13, 52, 84
20, 137031, Note_on_c, 13, 52, 0
20, 137040, Note_on_c, 13, 53, 84
20, 137091, Note_on_c, 13, 53, 0
20, 137100, Note_on_c, 13, 55, 84
20, 137151, Note_on_c, 13, 55, 0
20, 137160, Note_on_c, 13, 57, 84
20, 137211, Note_on_c, 13, 57, 0
20, 137220, Note_on_c, 13, 59, 84
20, 137271, Note_on_c, 13, 59, 0
20, 137280, Note_on_c, 13, 60, 84
20, 137331, Note_on_c, 13, 60, 0
20, 137340, Note_on_c, 13, 52, 84
20, 137340, Note_on_c, 13, 48, 84
20, 137391, Note_on_c, 13, 52, 0
20, 137391, Note_on_c, 13, 48, 0
20, 137400, Note_on_c, 13, 53, 84
20, 137400, Note_on_c, 13, 50, 84
20, 137451, Note_on_c, 13, 53, 0
20, 137451, Note_on_c, 13, 50, 0
20, 137460, Note_on_c, 13, 52, 84
20, 137460, Note_on_c, 13, 55, 84
20, 137511, Note_on_c, 13, 52, 0
20, 137511, Note_on_c, 13, 55, 0
20, 137520, Note_on_c, 13, 53, 84
20, 137520, Note_on_c, 13, 57, 84
20, 137571, Note_on_c, 13, 53, 0
20, 137571, Note_on_c, 13, 57, 0
20, 137580, Note_on_c, 13, 55, 84
20, 137580, Note_on_c, 13, 59, 84
20, 137631, Note_on_c, 13, 55, 0
20, 137631, Note_on_c, 13, 59, 0
20, 137640, Note_on_c, 13, 57, 84
20, 137640, Note_on_c, 13, 60, 84
20, 137691, Note_on_c, 13, 57, 0
20, 137691, Note_on_c, 13, 60, 0
20, 137700, Note_on_c, 13, 62, 84
20, 137700, Note_on_c, 13, 59, 84
20, 137751, Note_on_c, 13, 62, 0
20, 137751, Note_on_c, 13, 59, 0
20, 137760, Note_on_c, 13, 60, 84
20, 137760, Note_on_c, 13, 64, 84
20, 137811, Note_on_c, 13, 60, 0
20, 137811, Note_on_c, 13, 64, 0
20, 137820, Note_on_c, 13, 60, 84
20, 137820, Note_on_c, 13, 52, 84
20, 137871, Note_on_c, 13, 60, 0
20, 137871, Note_on_c, 13, 52, 0
20, 137880, Note_on_c, 13, 62, 84
20, 137880, Note_on_c, 13, 53, 84
20, 137931, Note_on_c, 13, 62, 0
20, 137931, Note_on_c, 13, 53, 0
20, 137940, Note_on_c, 13, 55, 84
20, 137940, Note_on_c, 13, 64, 84
20, 137991, Note_on_c, 13, 55, 0
20, 137991, Note_on_c, 13, 64, 0
20, 138000, Note_on_c, 13, 65, 84
20, 138000, Note_on_c, 13, 57, 84
20, 138051, Note_on_c, 13, 65, 0
20, 138051, Note_on_c, 13, 57, 0
20, 138060, Note_on_c, 13, 59, 84
20, 138060, Note_on_c, 13, 67, 84
20, 138111, Note_on_c, 13, 59, 0
20, 138111, Note_on_c, 13, 67, 0
20, 138120, Note_on_c, 13, 60, 84
20, 138120, Note_on_c, 13, 69, 84
20, 138171, Note_on_c, 13, 60, 0
20, 138171, Note_on_c, 13, 69, 0
20, 138180, Note_on_c, 13, 62, 84
20, 138180, Note_on_c, 13, 71, 84
20, 138231, Note_on_c, 13, 62, 0
20, 138231, Note_on_c, 13, 71, 0
20, 138240, Note_on_c, 13, 72, 84
20, 138240, Note_on_c, 13, 64, 84
20, 138291, Note_on_c, 13, 72, 0
20, 138291, Note_on_c, 13, 64, 0
20, 138300, Note_on_c, 13, 60, 84
20, 138351, Note_on_c, 13, 60, 0
20, 138360, Note_on_c, 13, 60, 84
20, 138411, Note_on_c, 13, 60, 0
20, 138420, Note_on_c, 13, 60, 84
20, 138471, Note_on_c, 13, 60, 0
20, 138480, Note_on_c, 13, 61, 84
20, 138531, Note_on_c, 13, 61, 0
20, 138540, Note_on_c, 13, 61, 84
20, 138591, Note_on_c, 13, 61, 0
20, 138600, Note_on_c, 13, 61, 84
20, 138651, Note_on_c, 13, 61, 0
20, 138660, Note_on_c, 13, 61, 84
20, 138711, Note_on_c, 13, 61, 0
20, 138720, Note_on_c, 13, 62, 84
20, 138771, Note_on_c, 13, 62, 0
20, 138780, Note_on_c, 13, 62, 84
20, 138831, Note_on_c, 13, 62, 0
20, 138840, Note_on_c, 13, 62, 84
20, 138891, Note_on_c, 13, 62, 0
20, 138900, Note_on_c, 13, 62, 84
20, 138951, Note_on_c, 13, 62, 0
20, 138960, Note_on_c, 13, 63, 84
20, 139011, Note_on_c, 13, 63, 0
20, 139020, Note_on_c, 13, 63, 84
20, 139071, Note_on_c, 13, 63, 0
20, 139080, Note_on_c, 13, 63, 84
20, 139131, Note_on_c, 13, 63, 0
20, 139140, Note_on_c, 13, 63, 84
20, 139191, Note_on_c, 13, 63, 0
20, 139200, Note_on_c, 13, 64, 84
20, 139251, Note_on_c, 13, 64, 0
20, 139260, Note_on_c, 13, 64, 84
20, 139311, Note_on_c, 13, 64, 0
20, 139320, Note_on_c, 13, 64, 84
20, 139371, Note_on_c, 13, 64, 0
20, 139380, Note_on_c, 13, 64, 84
20, 139431, Note_on_c, 13, 64, 0
20, 139440, Note_on_c, 13, 66, 84
20, 139491, Note_on_c, 13, 66, 0
20, 139500, Note_on_c, 13, 66, 84
20, 139551, Note_on_c, 13, 66, 0
20, 139560, Note_on_c, 13, 66, 84
20, 139611, Note_on_c, 13, 66, 0
20, 139620, Note_on_c, 13, 66, 84
20, 139671, Note_on_c, 13, 66, 0
20, 139680, Note_on_c, 13, 67, 84
20, 139731, Note_on_c, 13, 67, 0
20, 139740, Note_on_c, 13, 67, 84
20, 139791, Note_on_c, 13, 67, 0
20, 139800, Note_on_c, 13, 59, 84
20, 139851, Note_on_c, 13, 59, 0
20, 139860, Note_on_c, 13, 59, 84
20, 139911, Note_on_c, 13, 59, 0
20, 139920, Note_on_c, 13, 60, 84
20, 139971, Note_on_c, 13, 60, 0
20, 139980, Note_on_c, 13, 60, 84
20, 140031, Note_on_c, 13, 60, 0
20, 140040, Note_on_c, 13, 62, 84
20, 140091, Note_on_c, 13, 62, 0
20, 140100, Note_on_c, 13, 62, 84
20, 140151, Note_on_c, 13, 62, 0
20, 140160, Note_on_c, 13, 64, 84
20, 140339, Note_on_c, 13, 64, 0
20, 141120, Note_on_c, 13, 62, 84
20, 141299, Note_on_c, 13, 62, 0
20, 142080, Note_on_c, 13, 67, 76
20, 142139, Note_on_c, 13, 67, 0
20, 142140, Note_on_c, 13, 67, 52
20, 142799, Note_on_c, 13, 67, 0
20, 142800, Note_on_c, 13, 66, 52
20, 143039, Note_on_c, 13, 66, 0
20, 143040, Note_on_c, 13, 64, 52
20, 143279, Note_on_c, 13, 64, 0
20, 143280, Note_on_c, 13, 62, 52
20, 143504, Note_on_c, 13, 62, 0
20, 143520, Note_on_c, 13, 62, 52
20, 143744, Note_on_c, 13, 62, 0
20, 143760, Note_on_c, 13, 62, 52
20, 143984, Note_on_c, 13, 62, 0
20, 144000, Note_on_c, 13, 67, 76
20, 144059, Note_on_c, 13, 67, 0
20, 144060, Note_on_c, 13, 67, 52
20, 144719, Note_on_c, 13, 67, 0
20, 144720, Note_on_c, 13, 66, 52
20, 144959, Note_on_c, 13, 66, 0
20, 144960, Note_on_c, 13, 64, 52
20, 145199, Note_on_c, 13, 64, 0
20, 145200, Note_on_c, 13, 62, 52
20, 145424, Note_on_c, 13, 62, 0
20, 145440, Note_on_c, 13, 62, 52
20, 145664, Note_on_c, 13, 62, 0
20, 145680, Note_on_c, 13, 62, 52
20, 145904, Note_on_c, 13, 62, 0
20, 145920, Note_on_c, 13, 72, 76
20, 145979, Note_on_c, 13, 72, 0
20, 145980, Note_on_c, 13, 72, 52
20, 146639, Note_on_c, 13, 72, 0
20, 146640, Note_on_c, 13, 71, 52
20, 146879, Note_on_c, 13, 71, 0
20, 146880, Note_on_c, 13, 69, 52
20, 147119, Note_on_c, 13, 69, 0
20, 147120, Note_on_c, 13, 68, 52
20, 147344, Note_on_c, 13, 68, 0
20, 147360, Note_on_c, 13, 68, 52
20, 147584, Note_on_c, 13, 68, 0
20, 147600, Note_on_c, 13, 68, 52
20, 147824, Note_on_c, 13, 68, 0
20, 147840, Note_on_c, 13, 69, 52
20, 148304, Note_on_c, 13, 69, 0
20, 148320, Note_on_c, 13, 72, 52
20, 148739, Note_on_c, 13, 72, 0
20, 148740, Note_on_c, 13, 69, 52
20, 148799, Note_on_c, 13, 69, 0
20, 148800, Note_on_c, 13, 67, 52
20, 149279, Note_on_c, 13, 67, 0
20, 149280, Note_on_c, 13, 69, 52
20, 149699, Note_on_c, 13, 69, 0
20, 149700, Note_on_c, 13, 66, 52
20, 149751, Note_on_c, 13, 66, 0
20, 149760, Note_on_c, 13, 62, 76
20, 149760, Note_on_c, 13, 59, 76
20, 149811, Note_on_c, 13, 62, 0
20, 149811, Note_on_c, 13, 59, 0
20, 149820, Note_on_c, 13, 59, 76
20, 149820, Note_on_c, 13, 62, 76
20, 149871, Note_on_c, 13, 59, 0
20, 149871, Note_on_c, 13, 62, 0
20, 149880, Note_on_c, 13, 62, 76
20, 149880, Note_on_c, 13, 59, 76
20, 149931, Note_on_c, 13, 62, 0
20, 149931, Note_on_c, 13, 59, 0
20, 149940, Note_on_c, 13, 59, 76
20, 149940, Note_on_c, 13, 62, 76
20, 149991, Note_on_c, 13, 59, 0
20, 149991, Note_on_c, 13, 62, 0
20, 150000, Note_on_c, 13, 62, 76
20, 150000, Note_on_c, 13, 59, 76
20, 150051, Note_on_c, 13, 62, 0
20, 150051, Note_on_c, 13, 59, 0
20, 150060, Note_on_c, 13, 62, 76
20, 150060, Note_on_c, 13, 59, 76
20, 150111, Note_on_c, 13, 62, 0
20, 150111, Note_on_c, 13, 59, 0
20, 150120, Note_on_c, 13, 59, 76
20, 150120, Note_on_c, 13, 62, 76
20, 150171, Note_on_c, 13, 59, 0
20, 150171, Note_on_c, 13, 62, 0
20, 150180, Note_on_c, 13, 62, 76
20, 150180, Note_on_c, 13, 59, 76
20, 150231, Note_on_c, 13, 62, 0
20, 150231, Note_on_c, 13, 59, 0
20, 150240, Note_on_c, 13, 59, 76
20, 150240, Note_on_c, 13, 62, 76
20, 150291, Note_on_c, 13, 59, 0
20, 150291, Note_on_c, 13, 62, 0
20, 150300, Note_on_c, 13, 62, 76
20, 150300, Note_on_c, 13, 59, 76
20, 150351, Note_on_c, 13, 62, 0
20, 150351, Note_on_c, 13, 59, 0
20, 150360, Note_on_c, 13, 59, 76
20, 150360, Note_on_c, 13, 62, 76
20, 150411, Note_on_c, 13, 59, 0
20, 150411, Note_on_c, 13, 62, 0
20, 150420, Note_on_c, 13, 62, 76
20, 150420, Note_on_c, 13, 59, 76
20, 150471, Note_on_c, 13, 62, 0
20, 150471, Note_on_c, 13, 59, 0
20, 150480, Note_on_c, 13, 60, 76
20, 150480, Note_on_c, 13, 57, 76
20, 150531, Note_on_c, 13, 60, 0
20, 150531, Note_on_c, 13, 57, 0
20, 150540, Note_on_c, 13, 60, 76
20, 150540, Note_on_c, 13, 57, 76
20, 150591, Note_on_c, 13, 60, 0
20, 150591, Note_on_c, 13, 57, 0
20, 150600, Note_on_c, 13, 60, 76
20, 150600, Note_on_c, 13, 57, 76
20, 150651, Note_on_c, 13, 60, 0
20, 150651, Note_on_c, 13, 57, 0
20, 150660, Note_on_c, 13, 60, 76
20, 150660, Note_on_c, 13, 57, 76
20, 150711, Note_on_c, 13, 60, 0
20, 150711, Note_on_c, 13, 57, 0
20, 150720, Note_on_c, 13, 60, 76
20, 150720, Note_on_c, 13, 55, 76
20, 150771, Note_on_c, 13, 60, 0
20, 150771, Note_on_c, 13, 55, 0
20, 150780, Note_on_c, 13, 60, 76
20, 150780, Note_on_c, 13, 55, 76
20, 150831, Note_on_c, 13, 60, 0
20, 150831, Note_on_c, 13, 55, 0
20, 150840, Note_on_c, 13, 55, 76
20, 150840, Note_on_c, 13, 60, 76
20, 150891, Note_on_c, 13, 55, 0
20, 150891, Note_on_c, 13, 60, 0
20, 150900, Note_on_c, 13, 55, 76
20, 150900, Note_on_c, 13, 60, 76
20, 150951, Note_on_c, 13, 55, 0
20, 150951, Note_on_c, 13, 60, 0
20, 150960, Note_on_c, 13, 57, 76
20, 150960, Note_on_c, 13, 60, 76
20, 151011, Note_on_c, 13, 57, 0
20, 151011, Note_on_c, 13, 60, 0
20, 151020, Note_on_c, 13, 57, 76
20, 151020, Note_on_c, 13, 60, 76
20, 151071, Note_on_c, 13, 57, 0
20, 151071, Note_on_c, 13, 60, 0
20, 151080, Note_on_c, 13, 60, 76
20, 151080, Note_on_c, 13, 57, 76
20, 151131, Note_on_c, 13, 60, 0
20, 151131, Note_on_c, 13, 57, 0
20, 151140, Note_on_c, 13, 57, 76
20, 151140, Note_on_c, 13, 60, 76
20, 151191, Note_on_c, 13, 57, 0
20, 151191, Note_on_c, 13, 60, 0
20, 151200, Note_on_c, 13, 57, 76
20, 151200, Note_on_c, 13, 60, 76
20, 151251, Note_on_c, 13, 57, 0
20, 151251, Note_on_c, 13, 60, 0
20, 151260, Note_on_c, 13, 57, 76
20, 151260, Note_on_c, 13, 60, 76
20, 151311, Note_on_c, 13, 57, 0
20, 151311, Note_on_c, 13, 60, 0
20, 151320, Note_on_c, 13, 57, 76
20, 151320, Note_on_c, 13, 60, 76
20, 151371, Note_on_c, 13, 57, 0
20, 151371, Note_on_c, 13, 60, 0
20, 151380, Note_on_c, 13, 57, 76
20, 151380, Note_on_c, 13, 60, 76
20, 151431, Note_on_c, 13, 57, 0
20, 151431, Note_on_c, 13, 60, 0
20, 151440, Note_on_c, 13, 60, 76
20, 151440, Note_on_c, 13, 57, 76
20, 151491, Note_on_c, 13, 60, 0
20, 151491, Note_on_c, 13, 57, 0
20, 151500, Note_on_c, 13, 57, 76
20, 151500, Note_on_c, 13, 60, 76
20, 151551, Note_on_c, 13, 57, 0
20, 151551, Note_on_c, 13, 60, 0
20, 151560, Note_on_c, 13, 60, 76
20, 151560, Note_on_c, 13, 57, 76
20, 151611, Note_on_c, 13, 60, 0
20, 151611, Note_on_c, 13, 57, 0
20, 151620, Note_on_c, 13, 57, 76
20, 151620, Note_on_c, 13, 60, 76
20, 151671, Note_on_c, 13, 57, 0
20, 151671, Note_on_c, 13, 60, 0
20, 151680, Note_on_c, 13, 62, 84
20, 151680, Note_on_c, 13, 59, 84
20, 151731, Note_on_c, 13, 62, 0
20, 151731, Note_on_c, 13, 59, 0
20, 151740, Note_on_c, 13, 62, 76
20, 151740, Note_on_c, 13, 59, 76
20, 151791, Note_on_c, 13, 62, 0
20, 151791, Note_on_c, 13, 59, 0
20, 151800, Note_on_c, 13, 62, 76
20, 151800, Note_on_c, 13, 59, 76
20, 151851, Note_on_c, 13, 62, 0
20, 151851, Note_on_c, 13, 59, 0
20, 151860, Note_on_c, 13, 62, 76
20, 151860, Note_on_c, 13, 59, 76
20, 151911, Note_on_c, 13, 62, 0
20, 151911, Note_on_c, 13, 59, 0
20, 151920, Note_on_c, 13, 62, 76
20, 151920, Note_on_c, 13, 59, 76
20, 151971, Note_on_c, 13, 62, 0
20, 151971, Note_on_c, 13, 59, 0
20, 151980, Note_on_c, 13, 62, 76
20, 151980, Note_on_c, 13, 59, 76
20, 152031, Note_on_c, 13, 62, 0
20, 152031, Note_on_c, 13, 59, 0
20, 152040, Note_on_c, 13, 59, 76
20, 152040, Note_on_c, 13, 62, 76
20, 152091, Note_on_c, 13, 59, 0
20, 152091, Note_on_c, 13, 62, 0
20, 152100, Note_on_c, 13, 59, 76
20, 152100, Note_on_c, 13, 62, 76
20, 152151, Note_on_c, 13, 59, 0
20, 152151, Note_on_c, 13, 62, 0
20, 152160, Note_on_c, 13, 62, 76
20, 152160, Note_on_c, 13, 59, 76
20, 152211, Note_on_c, 13, 62, 0
20, 152211, Note_on_c, 13, 59, 0
20, 152220, Note_on_c, 13, 59, 76
20, 152220, Note_on_c, 13, 62, 76
20, 152271, Note_on_c, 13, 59, 0
20, 152271, Note_on_c, 13, 62, 0
20, 152280, Note_on_c, 13, 62, 76
20, 152280, Note_on_c, 13, 59, 76
20, 152331, Note_on_c, 13, 62, 0
20, 152331, Note_on_c, 13, 59, 0
20, 152340, Note_on_c, 13, 59, 76
20, 152340, Note_on_c, 13, 62, 76
20, 152391, Note_on_c, 13, 59, 0
20, 152391, Note_on_c, 13, 62, 0
20, 152400, Note_on_c, 13, 60, 76
20, 152400, Note_on_c, 13, 57, 76
20, 152451, Note_on_c, 13, 60, 0
20, 152451, Note_on_c, 13, 57, 0
20, 152460, Note_on_c, 13, 57, 76
20, 152460, Note_on_c, 13, 60, 76
20, 152511, Note_on_c, 13, 57, 0
20, 152511, Note_on_c, 13, 60, 0
20, 152520, Note_on_c, 13, 57, 76
20, 152520, Note_on_c, 13, 60, 76
20, 152571, Note_on_c, 13, 57, 0
20, 152571, Note_on_c, 13, 60, 0
20, 152580, Note_on_c, 13, 57, 76
20, 152580, Note_on_c, 13, 60, 76
20, 152631, Note_on_c, 13, 57, 0
20, 152631, Note_on_c, 13, 60, 0
20, 152640, Note_on_c, 13, 60, 76
20, 152640, Note_on_c, 13, 55, 76
20, 152691, Note_on_c, 13, 60, 0
20, 152691, Note_on_c, 13, 55, 0
20, 152700, Note_on_c, 13, 60, 76
20, 152700, Note_on_c, 13, 55, 76
20, 152751, Note_on_c, 13, 60, 0
20, 152751, Note_on_c, 13, 55, 0
20, 152760, Note_on_c, 13, 55, 76
20, 152760, Note_on_c, 13, 60, 76
20, 152811, Note_on_c, 13, 55, 0
20, 152811, Note_on_c, 13, 60, 0
20, 152820, Note_on_c, 13, 55, 76
20, 152820, Note_on_c, 13, 60, 76
20, 152871, Note_on_c, 13, 55, 0
20, 152871, Note_on_c, 13, 60, 0
20, 152880, Note_on_c, 13, 60, 76
20, 152880, Note_on_c, 13, 57, 76
20, 152931, Note_on_c, 13, 60, 0
20, 152931, Note_on_c, 13, 57, 0
20, 152940, Note_on_c, 13, 60, 76
20, 152940, Note_on_c, 13, 57, 76
20, 152991, Note_on_c, 13, 60, 0
20, 152991, Note_on_c, 13, 57, 0
20, 153000, Note_on_c, 13, 60, 76
20, 153000, Note_on_c, 13, 57, 76
20, 153051, Note_on_c, 13, 60, 0
20, 153051, Note_on_c, 13, 57, 0
20, 153060, Note_on_c, 13, 60, 76
20, 153060, Note_on_c, 13, 57, 76
20, 153111, Note_on_c, 13, 60, 0
20, 153111, Note_on_c, 13, 57, 0
20, 153120, Note_on_c, 13, 57, 76
20, 153120, Note_on_c, 13, 60, 76
20, 153171, Note_on_c, 13, 57, 0
20, 153171, Note_on_c, 13, 60, 0
20, 153180, Note_on_c, 13, 60, 76
20, 153180, Note_on_c, 13, 57, 76
20, 153231, Note_on_c, 13, 60, 0
20, 153231, Note_on_c, 13, 57, 0
20, 153240, Note_on_c, 13, 60, 76
20, 153240, Note_on_c, 13, 57, 76
20, 153291, Note_on_c, 13, 60, 0
20, 153291, Note_on_c, 13, 57, 0
20, 153300, Note_on_c, 13, 57, 76
20, 153300, Note_on_c, 13, 60, 76
20, 153351, Note_on_c, 13, 57, 0
20, 153351, Note_on_c, 13, 60, 0
20, 153360, Note_on_c, 13, 57, 76
20, 153360, Note_on_c, 13, 60, 76
20, 153411, Note_on_c, 13, 57, 0
20, 153411, Note_on_c, 13, 60, 0
20, 153420, Note_on_c, 13, 60, 76
20, 153420, Note_on_c, 13, 57, 76
20, 153471, Note_on_c, 13, 60, 0
20, 153471, Note_on_c, 13, 57, 0
20, 153480, Note_on_c, 13, 57, 76
20, 153480, Note_on_c, 13, 60, 76
20, 153531, Note_on_c, 13, 57, 0
20, 153531, Note_on_c, 13, 60, 0
20, 153540, Note_on_c, 13, 60, 76
20, 153540, Note_on_c, 13, 57, 76
20, 153591, Note_on_c, 13, 60, 0
20, 153591, Note_on_c, 13, 57, 0
20, 153600, Note_on_c, 13, 57, 84
20, 153600, Note_on_c, 13, 62, 84
20, 153651, Note_on_c, 13, 57, 0
20, 153651, Note_on_c, 13, 62, 0
20, 153660, Note_on_c, 13, 57, 76
20, 153660, Note_on_c, 13, 62, 76
20, 153711, Note_on_c, 13, 57, 0
20, 153711, Note_on_c, 13, 62, 0
20, 153720, Note_on_c, 13, 62, 76
20, 153720, Note_on_c, 13, 57, 76
20, 153771, Note_on_c, 13, 62, 0
20, 153771, Note_on_c, 13, 57, 0
20, 153780, Note_on_c, 13, 57, 76
20, 153780, Note_on_c, 13, 62, 76
20, 153831, Note_on_c, 13, 57, 0
20, 153831, Note_on_c, 13, 62, 0
20, 153840, Note_on_c, 13, 62, 76
20, 153840, Note_on_c, 13, 57, 76
20, 153891, Note_on_c, 13, 62, 0
20, 153891, Note_on_c, 13, 57, 0
20, 153900, Note_on_c, 13, 62, 76
20, 153900, Note_on_c, 13, 57, 76
20, 153951, Note_on_c, 13, 62, 0
20, 153951, Note_on_c, 13, 57, 0
20, 153960, Note_on_c, 13, 62, 76
20, 153960, Note_on_c, 13, 57, 76
20, 154011, Note_on_c, 13, 62, 0
20, 154011, Note_on_c, 13, 57, 0
20, 154020, Note_on_c, 13, 57, 76
20, 154020, Note_on_c, 13, 62, 76
20, 154071, Note_on_c, 13, 57, 0
20, 154071, Note_on_c, 13, 62, 0
20, 154080, Note_on_c, 13, 57, 76
20, 154080, Note_on_c, 13, 62, 76
20, 154131, Note_on_c, 13, 57, 0
20, 154131, Note_on_c, 13, 62, 0
20, 154140, Note_on_c, 13, 57, 76
20, 154140, Note_on_c, 13, 62, 76
20, 154191, Note_on_c, 13, 57, 0
20, 154191, Note_on_c, 13, 62, 0
20, 154200, Note_on_c, 13, 57, 76
20, 154200, Note_on_c, 13, 62, 76
20, 154251, Note_on_c, 13, 57, 0
20, 154251, Note_on_c, 13, 62, 0
20, 154260, Note_on_c, 13, 62, 76
20, 154260, Note_on_c, 13, 57, 76
20, 154311, Note_on_c, 13, 62, 0
20, 154311, Note_on_c, 13, 57, 0
20, 154320, Note_on_c, 13, 62, 76
20, 154320, Note_on_c, 13, 59, 76
20, 154371, Note_on_c, 13, 62, 0
20, 154371, Note_on_c, 13, 59, 0
20, 154380, Note_on_c, 13, 59, 76
20, 154380, Note_on_c, 13, 62, 76
20, 154431, Note_on_c, 13, 59, 0
20, 154431, Note_on_c, 13, 62, 0
20, 154440, Note_on_c, 13, 59, 76
20, 154440, Note_on_c, 13, 62, 76
20, 154491, Note_on_c, 13, 59, 0
20, 154491, Note_on_c, 13, 62, 0
20, 154500, Note_on_c, 13, 62, 76
20, 154500, Note_on_c, 13, 59, 76
20, 154551, Note_on_c, 13, 62, 0
20, 154551, Note_on_c, 13, 59, 0
20, 154560, Note_on_c, 13, 60, 76
20, 154560, Note_on_c, 13, 64, 76
20, 154611, Note_on_c, 13, 60, 0
20, 154611, Note_on_c, 13, 64, 0
20, 154620, Note_on_c, 13, 64, 76
20, 154620, Note_on_c, 13, 60, 76
20, 154671, Note_on_c, 13, 64, 0
20, 154671, Note_on_c, 13, 60, 0
20, 154680, Note_on_c, 13, 64, 76
20, 154680, Note_on_c, 13, 60, 76
20, 154731, Note_on_c, 13, 64, 0
20, 154731, Note_on_c, 13, 60, 0
20, 154740, Note_on_c, 13, 64, 76
20, 154740, Note_on_c, 13, 60, 76
20, 154791, Note_on_c, 13, 64, 0
20, 154791, Note_on_c, 13, 60, 0
20, 154800, Note_on_c, 13, 65, 80
20, 154800, Note_on_c, 13, 60, 80
20, 154851, Note_on_c, 13, 65, 0
20, 154851, Note_on_c, 13, 60, 0
20, 154860, Note_on_c, 13, 65, 80
20, 154860, Note_on_c, 13, 60, 80
20, 154911, Note_on_c, 13, 65, 0
20, 154911, Note_on_c, 13, 60, 0
20, 154920, Note_on_c, 13, 65, 80
20, 154920, Note_on_c, 13, 60, 80
20, 154971, Note_on_c, 13, 65, 0
20, 154971, Note_on_c, 13, 60, 0
20, 154980, Note_on_c, 13, 60, 80
20, 154980, Note_on_c, 13, 65, 80
20, 155031, Note_on_c, 13, 60, 0
20, 155031, Note_on_c, 13, 65, 0
20, 155040, Note_on_c, 13, 60, 80
20, 155040, Note_on_c, 13, 65, 80
20, 155091, Note_on_c, 13, 60, 0
20, 155091, Note_on_c, 13, 65, 0
20, 155100, Note_on_c, 13, 65, 80
20, 155100, Note_on_c, 13, 60, 80
20, 155151, Note_on_c, 13, 65, 0
20, 155151, Note_on_c, 13, 60, 0
20, 155160, Note_on_c, 13, 65, 80
20, 155160, Note_on_c, 13, 60, 80
20, 155211, Note_on_c, 13, 65, 0
20, 155211, Note_on_c, 13, 60, 0
20, 155220, Note_on_c, 13, 60, 80
20, 155220, Note_on_c, 13, 65, 80
20, 155271, Note_on_c, 13, 60, 0
20, 155271, Note_on_c, 13, 65, 0
20, 155280, Note_on_c, 13, 60, 80
20, 155280, Note_on_c, 13, 65, 80
20, 155331, Note_on_c, 13, 60, 0
20, 155331, Note_on_c, 13, 65, 0
20, 155340, Note_on_c, 13, 60, 80
20, 155340, Note_on_c, 13, 65, 80
20, 155391, Note_on_c, 13, 60, 0
20, 155391, Note_on_c, 13, 65, 0
20, 155400, Note_on_c, 13, 60, 80
20, 155400, Note_on_c, 13, 65, 80
20, 155451, Note_on_c, 13, 60, 0
20, 155451, Note_on_c, 13, 65, 0
20, 155460, Note_on_c, 13, 65, 80
20, 155460, Note_on_c, 13, 60, 80
20, 155511, Note_on_c, 13, 65, 0
20, 155511, Note_on_c, 13, 60, 0
20, 155520, Note_on_c, 13, 65, 80
20, 155520, Note_on_c, 13, 60, 80
20, 155571, Note_on_c, 13, 65, 0
20, 155571, Note_on_c, 13, 60, 0
20, 155580, Note_on_c, 13, 65, 80
20, 155580, Note_on_c, 13, 60, 80
20, 155631, Note_on_c, 13, 65, 0
20, 155631, Note_on_c, 13, 60, 0
20, 155640, Note_on_c, 13, 60, 80
20, 155640, Note_on_c, 13, 65, 80
20, 155691, Note_on_c, 13, 60, 0
20, 155691, Note_on_c, 13, 65, 0
20, 155700, Note_on_c, 13, 65, 80
20, 155700, Note_on_c, 13, 60, 80
20, 155751, Note_on_c, 13, 65, 0
20, 155751, Note_on_c, 13, 60, 0
20, 155760, Note_on_c, 13, 60, 80
20, 155760, Note_on_c, 13, 65, 80
20, 155811, Note_on_c, 13, 60, 0
20, 155811, Note_on_c, 13, 65, 0
20, 155820, Note_on_c, 13, 60, 80
20, 155820, Note_on_c, 13, 65, 80
20, 155871, Note_on_c, 13, 60, 0
20, 155871, Note_on_c, 13, 65, 0
20, 155880, Note_on_c, 13, 65, 80
20, 155880, Note_on_c, 13, 60, 80
20, 155931, Note_on_c, 13, 65, 0
20, 155931, Note_on_c, 13, 60, 0
20, 155940, Note_on_c, 13, 65, 80
20, 155940, Note_on_c, 13, 60, 80
20, 155991, Note_on_c, 13, 65, 0
20, 155991, Note_on_c, 13, 60, 0
20, 156000, Note_on_c, 13, 60, 80
20, 156000, Note_on_c, 13, 65, 80
20, 156051, Note_on_c, 13, 60, 0
20, 156051, Note_on_c, 13, 65, 0
20, 156060, Note_on_c, 13, 65, 80
20, 156060, Note_on_c, 13, 60, 80
20, 156111, Note_on_c, 13, 65, 0
20, 156111, Note_on_c, 13, 60, 0
20, 156120, Note_on_c, 13, 65, 80
20, 156120, Note_on_c, 13, 60, 80
20, 156171, Note_on_c, 13, 65, 0
20, 156171, Note_on_c, 13, 60, 0
20, 156180, Note_on_c, 13, 60, 80
20, 156180, Note_on_c, 13, 65, 80
20, 156231, Note_on_c, 13, 60, 0
20, 156231, Note_on_c, 13, 65, 0
20, 156240, Note_on_c, 13, 60, 80
20, 156240, Note_on_c, 13, 65, 80
20, 156291, Note_on_c, 13, 60, 0
20, 156291, Note_on_c, 13, 65, 0
20, 156300, Note_on_c, 13, 65, 80
20, 156300, Note_on_c, 13, 60, 80
20, 156351, Note_on_c, 13, 65, 0
20, 156351, Note_on_c, 13, 60, 0
20, 156360, Note_on_c, 13, 65, 80
20, 156360, Note_on_c, 13, 60, 80
20, 156411, Note_on_c, 13, 65, 0
20, 156411, Note_on_c, 13, 60, 0
20, 156420, Note_on_c, 13, 65, 80
20, 156420, Note_on_c, 13, 60, 80
20, 156471, Note_on_c, 13, 65, 0
20, 156471, Note_on_c, 13, 60, 0
20, 156480, Note_on_c, 13, 65, 80
20, 156480, Note_on_c, 13, 60, 80
20, 156531, Note_on_c, 13, 65, 0
20, 156531, Note_on_c, 13, 60, 0
20, 156540, Note_on_c, 13, 65, 80
20, 156540, Note_on_c, 13, 60, 80
20, 156591, Note_on_c, 13, 65, 0
20, 156591, Note_on_c, 13, 60, 0
20, 156600, Note_on_c, 13, 65, 80
20, 156600, Note_on_c, 13, 60, 80
20, 156651, Note_on_c, 13, 65, 0
20, 156651, Note_on_c, 13, 60, 0
20, 156660, Note_on_c, 13, 60, 80
20, 156660, Note_on_c, 13, 65, 80
20, 156711, Note_on_c, 13, 60, 0
20, 156711, Note_on_c, 13, 65, 0
20, 156720, Note_on_c, 13, 65, 80
20, 156720, Note_on_c, 13, 68, 80
20, 156771, Note_on_c, 13, 65, 0
20, 156771, Note_on_c, 13, 68, 0
20, 156780, Note_on_c, 13, 65, 80
20, 156780, Note_on_c, 13, 68, 80
20, 156831, Note_on_c, 13, 65, 0
20, 156831, Note_on_c, 13, 68, 0
20, 156840, Note_on_c, 13, 68, 80
20, 156840, Note_on_c, 13, 65, 80
20, 156891, Note_on_c, 13, 68, 0
20, 156891, Note_on_c, 13, 65, 0
20, 156900, Note_on_c, 13, 68, 80
20, 156900, Note_on_c, 13, 65, 80
20, 156951, Note_on_c, 13, 68, 0
20, 156951, Note_on_c, 13, 65, 0
20, 156960, Note_on_c, 13, 68, 80
20, 156960, Note_on_c, 13, 65, 80
20, 157011, Note_on_c, 13, 68, 0
20, 157011, Note_on_c, 13, 65, 0
20, 157020, Note_on_c, 13, 65, 80
20, 157020, Note_on_c, 13, 68, 80
20, 157071, Note_on_c, 13, 65, 0
20, 157071, Note_on_c, 13, 68, 0
20, 157080, Note_on_c, 13, 65, 80
20, 157080, Note_on_c, 13, 68, 80
20, 157131, Note_on_c, 13, 65, 0
20, 157131, Note_on_c, 13, 68, 0
20, 157140, Note_on_c, 13, 68, 80
20, 157140, Note_on_c, 13, 65, 80
20, 157191, Note_on_c, 13, 68, 0
20, 157191, Note_on_c, 13, 65, 0
20, 157200, Note_on_c, 13, 68, 80
20, 157200, Note_on_c, 13, 65, 80
20, 157251, Note_on_c, 13, 68, 0
20, 157251, Note_on_c, 13, 65, 0
20, 157260, Note_on_c, 13, 65, 80
20, 157260, Note_on_c, 13, 68, 80
20, 157311, Note_on_c, 13, 65, 0
20, 157311, Note_on_c, 13, 68, 0
20, 157320, Note_on_c, 13, 65, 80
20, 157320, Note_on_c, 13, 68, 80
20, 157371, Note_on_c, 13, 65, 0
20, 157371, Note_on_c, 13, 68, 0
20, 157380, Note_on_c, 13, 68, 80
20, 157380, Note_on_c, 13, 65, 80
20, 157431, Note_on_c, 13, 68, 0
20, 157431, Note_on_c, 13, 65, 0
20, 157440, Note_on_c, 13, 65, 84
20, 157440, Note_on_c, 13, 68, 84
20, 158399, Note_on_c, 13, 65, 0
20, 158399, Note_on_c, 13, 68, 0
20, 158400, Note_on_c, 13, 68, 84
20, 158400, Note_on_c, 13, 65, 84
20, 159344, Note_on_c, 13, 68, 0
20, 159344, Note_on_c, 13, 65, 0
20, 159360, Note_on_c, 13, 50, 84
20, 160064, Note_on_c, 13, 50, 0
20, 160080, Note_on_c, 13, 50, 84
20, 160199, Note_on_c, 13, 50, 0
20, 160200, Note_on_c, 13, 53, 84
20, 160304, Note_on_c, 13, 53, 0
20, 160320, Note_on_c, 13, 53, 84
20, 160320, Note_on_c, 13, 50, 84
20, 160409, Note_on_c, 13, 53, 0
20, 160409, Note_on_c, 13, 50, 0
20, 160440, Note_on_c, 13, 53, 84
20, 160440, Note_on_c, 13, 59, 84
20, 160529, Note_on_c, 13, 53, 0
20, 160529, Note_on_c, 13, 59, 0
20, 160560, Note_on_c, 13, 53, 84
20, 160560, Note_on_c, 13, 50, 84
20, 160679, Note_on_c, 13, 53, 0
20, 160679, Note_on_c, 13, 50, 0
20, 160680, Note_on_c, 13, 53, 84
20, 160680, Note_on_c, 13, 59, 84
20, 160784, Note_on_c, 13, 53, 0
20, 160784, Note_on_c, 13, 59, 0
20, 160800, Note_on_c, 13, 53, 84
20, 160800, Note_on_c, 13, 59, 84
20, 160889, Note_on_c, 13, 53, 0
20, 160889, Note_on_c, 13, 59, 0
20, 160920, Note_on_c, 13, 62, 84
20, 160920, Note_on_c, 13, 59, 84
20, 161009, Note_on_c, 13, 62, 0
20, 161009, Note_on_c, 13, 59, 0
20, 161040, Note_on_c, 13, 53, 84
20, 161040, Note_on_c, 13, 59, 84
20, 161159, Note_on_c, 13, 53, 0
20, 161159, Note_on_c, 13, 59, 0
20, 161160, Note_on_c, 13, 62, 84
20, 161160, Note_on_c, 13, 59, 84
20, 161264, Note_on_c, 13, 62, 0
20, 161264, Note_on_c, 13, 59, 0
20, 161280, Note_on_c, 13, 53, 84
20, 161280, Note_on_c, 13, 59, 84
20, 161369, Note_on_c, 13, 53, 0
20, 161369, Note_on_c, 13, 59, 0
20, 161400, Note_on_c, 13, 62, 84
20, 161400, Note_on_c, 13, 59, 84
20, 161489, Note_on_c, 13, 62, 0
20, 161489, Note_on_c, 13, 59, 0
20, 161520, Note_on_c, 13, 62, 84
20, 161520, Note_on_c, 13, 59, 84
20, 161609, Note_on_c, 13, 62, 0
20, 161609, Note_on_c, 13, 59, 0
20, 161640, Note_on_c, 13, 62, 84
20, 161640, Note_on_c, 13, 65, 84
20, 161729, Note_on_c, 13, 62, 0
20, 161729, Note_on_c, 13, 65, 0
20, 161760, Note_on_c, 13, 65, 84
20, 161760, Note_on_c, 13, 62, 84
20, 161849, Note_on_c, 13, 65, 0
20, 161849, Note_on_c, 13, 62, 0
20, 161880, Note_on_c, 13, 65, 84
20, 161880, Note_on_c, 13, 71, 84
20, 161969, Note_on_c, 13, 65, 0
20, 161969, Note_on_c, 13, 71, 0
20, 162000, Note_on_c, 13, 71, 84
20, 162000, Note_on_c, 13, 65, 84
20, 162089, Note_on_c, 13, 71, 0
20, 162089, Note_on_c, 13, 65, 0
20, 162120, Note_on_c, 13, 74, 84
20, 162120, Note_on_c, 13, 71, 84
20, 162209, Note_on_c, 13, 74, 0
20, 162209, Note_on_c, 13, 71, 0
20, 162240, Note_on_c, 13, 74, 84
20, 162240, Note_on_c, 13, 71, 84
20, 162329, Note_on_c, 13, 74, 0
20, 162329, Note_on_c, 13, 71, 0
20, 162360, Note_on_c, 13, 74, 84
20, 162360, Note_on_c, 13, 77, 84
20, 162449, Note_on_c, 13, 74, 0
20, 162449, Note_on_c, 13, 77, 0
20, 162480, Note_on_c, 13, 59, 84
20, 162480, Note_on_c, 13, 55, 84
20, 162531, Note_on_c, 13, 59, 0
20, 162531, Note_on_c, 13, 55, 0
20, 162540, Note_on_c, 13, 55, 84
20, 162540, Note_on_c, 13, 59, 84
20, 162591, Note_on_c, 13, 55, 0
20, 162591, Note_on_c, 13, 59, 0
20, 162600, Note_on_c, 13, 59, 84
20, 162600, Note_on_c, 13, 55, 84
20, 162651, Note_on_c, 13, 59, 0
20, 162651, Note_on_c, 13, 55, 0
20, 162660, Note_on_c, 13, 55, 84
20, 162660, Note_on_c, 13, 59, 84
20, 162711, Note_on_c, 13, 55, 0
20, 162711, Note_on_c, 13, 59, 0
20, 162720, Note_on_c, 13, 59, 84
20, 162720, Note_on_c, 13, 55, 84
20, 162771, Note_on_c, 13, 59, 0
20, 162771, Note_on_c, 13, 55, 0
20, 162780, Note_on_c, 13, 59, 84
20, 162780, Note_on_c, 13, 55, 84
20, 162831, Note_on_c, 13, 59, 0
20, 162831, Note_on_c, 13, 55, 0
20, 162840, Note_on_c, 13, 59, 84
20, 162840, Note_on_c, 13, 55, 84
20, 162891, Note_on_c, 13, 59, 0
20, 162891, Note_on_c, 13, 55, 0
20, 162900, Note_on_c, 13, 55, 84
20, 162900, Note_on_c, 13, 59, 84
20, 162951, Note_on_c, 13, 55, 0
20, 162951, Note_on_c, 13, 59, 0
20, 162960, Note_on_c, 13, 59, 84
20, 162960, Note_on_c, 13, 55, 84
20, 163011, Note_on_c, 13, 59, 0
20, 163011, Note_on_c, 13, 55, 0
20, 163020, Note_on_c, 13, 55, 84
20, 163020, Note_on_c, 13, 59, 84
20, 163071, Note_on_c, 13, 55, 0
20, 163071, Note_on_c, 13, 59, 0
20, 163080, Note_on_c, 13, 59, 84
20, 163080, Note_on_c, 13, 55, 84
20, 163131, Note_on_c, 13, 59, 0
20, 163131, Note_on_c, 13, 55, 0
20, 163140, Note_on_c, 13, 55, 84
20, 163140, Note_on_c, 13, 59, 84
20, 163191, Note_on_c, 13, 55, 0
20, 163191, Note_on_c, 13, 59, 0
20, 163200, Note_on_c, 13, 59, 84
20, 163200, Note_on_c, 13, 56, 84
20, 163251, Note_on_c, 13, 59, 0
20, 163251, Note_on_c, 13, 56, 0
20, 163260, Note_on_c, 13, 56, 84
20, 163260, Note_on_c, 13, 59, 84
20, 163311, Note_on_c, 13, 56, 0
20, 163311, Note_on_c, 13, 59, 0
20, 163320, Note_on_c, 13, 59, 84
20, 163320, Note_on_c, 13, 56, 84
20, 163371, Note_on_c, 13, 59, 0
20, 163371, Note_on_c, 13, 56, 0
20, 163380, Note_on_c, 13, 59, 84
20, 163380, Note_on_c, 13, 56, 84
20, 163431, Note_on_c, 13, 59, 0
20, 163431, Note_on_c, 13, 56, 0
20, 163440, Note_on_c, 13, 56, 84
20, 163440, Note_on_c, 13, 59, 84
20, 163491, Note_on_c, 13, 56, 0
20, 163491, Note_on_c, 13, 59, 0
20, 163500, Note_on_c, 13, 56, 84
20, 163500, Note_on_c, 13, 59, 84
20, 163551, Note_on_c, 13, 56, 0
20, 163551, Note_on_c, 13, 59, 0
20, 163560, Note_on_c, 13, 56, 84
20, 163560, Note_on_c, 13, 59, 84
20, 163611, Note_on_c, 13, 56, 0
20, 163611, Note_on_c, 13, 59, 0
20, 163620, Note_on_c, 13, 59, 84
20, 163620, Note_on_c, 13, 56, 84
20, 163671, Note_on_c, 13, 59, 0
20, 163671, Note_on_c, 13, 56, 0
20, 163680, Note_on_c, 13, 59, 84
20, 163680, Note_on_c, 13, 56, 84
20, 163731, Note_on_c, 13, 59, 0
20, 163731, Note_on_c, 13, 56, 0
20, 163740, Note_on_c, 13, 59, 84
20, 163740, Note_on_c, 13, 56, 84
20, 163791, Note_on_c, 13, 59, 0
20, 163791, Note_on_c, 13, 56, 0
20, 163800, Note_on_c, 13, 59, 84
20, 163800, Note_on_c, 13, 56, 84
20, 163851, Note_on_c, 13, 59, 0
20, 163851, Note_on_c, 13, 56, 0
20, 163860, Note_on_c, 13, 56, 84
20, 163860, Note_on_c, 13, 59, 84
20, 163911, Note_on_c, 13, 56, 0
20, 163911, Note_on_c, 13, 59, 0
20, 163920, Note_on_c, 13, 56, 84
20, 163920, Note_on_c, 13, 59, 84
20, 163971, Note_on_c, 13, 56, 0
20, 163971, Note_on_c, 13, 59, 0
20, 163980, Note_on_c, 13, 56, 84
20, 163980, Note_on_c, 13, 59, 84
20, 164031, Note_on_c, 13, 56, 0
20, 164031, Note_on_c, 13, 59, 0
20, 164040, Note_on_c, 13, 56, 84
20, 164040, Note_on_c, 13, 59, 84
20, 164091, Note_on_c, 13, 56, 0
20, 164091, Note_on_c, 13, 59, 0
20, 164100, Note_on_c, 13, 56, 84
20, 164100, Note_on_c, 13, 59, 84
20, 164151, Note_on_c, 13, 56, 0
20, 164151, Note_on_c, 13, 59, 0
20, 164160, Note_on_c, 13, 56, 84
20, 164160, Note_on_c, 13, 59, 84
20, 164211, Note_on_c, 13, 56, 0
20, 164211, Note_on_c, 13, 59, 0
20, 164220, Note_on_c, 13, 56, 84
20, 164220, Note_on_c, 13, 59, 84
20, 164271, Note_on_c, 13, 56, 0
20, 164271, Note_on_c, 13, 59, 0
20, 164280, Note_on_c, 13, 59, 84
20, 164280, Note_on_c, 13, 56, 84
20, 164331, Note_on_c, 13, 59, 0
20, 164331, Note_on_c, 13, 56, 0
20, 164340, Note_on_c, 13, 59, 84
20, 164340, Note_on_c, 13, 56, 84
20, 164391, Note_on_c, 13, 59, 0
20, 164391, Note_on_c, 13, 56, 0
20, 164400, Note_on_c, 13, 56, 84
20, 164400, Note_on_c, 13, 59, 84
20, 164451, Note_on_c, 13, 56, 0
20, 164451, Note_on_c, 13, 59, 0
20, 164460, Note_on_c, 13, 59, 84
20, 164460, Note_on_c, 13, 56, 84
20, 164511, Note_on_c, 13, 59, 0
20, 164511, Note_on_c, 13, 56, 0
20, 164520, Note_on_c, 13, 59, 84
20, 164520, Note_on_c, 13, 56, 84
20, 164571, Note_on_c, 13, 59, 0
20, 164571, Note_on_c, 13, 56, 0
20, 164580, Note_on_c, 13, 59, 84
20, 164580, Note_on_c, 13, 56, 84
20, 164631, Note_on_c, 13, 59, 0
20, 164631, Note_on_c, 13, 56, 0
20, 164640, Note_on_c, 13, 59, 84
20, 164640, Note_on_c, 13, 56, 84
20, 164691, Note_on_c, 13, 59, 0
20, 164691, Note_on_c, 13, 56, 0
20, 164700, Note_on_c, 13, 59, 84
20, 164700, Note_on_c, 13, 56, 84
20, 164751, Note_on_c, 13, 59, 0
20, 164751, Note_on_c, 13, 56, 0
20, 164760, Note_on_c, 13, 56, 84
20, 164760, Note_on_c, 13, 59, 84
20, 164811, Note_on_c, 13, 56, 0
20, 164811, Note_on_c, 13, 59, 0
20, 164820, Note_on_c, 13, 59, 84
20, 164820, Note_on_c, 13, 56, 84
20, 164871, Note_on_c, 13, 59, 0
20, 164871, Note_on_c, 13, 56, 0
20, 164880, Note_on_c, 13, 59, 84
20, 164880, Note_on_c, 13, 56, 84
20, 164931, Note_on_c, 13, 59, 0
20, 164931, Note_on_c, 13, 56, 0
20, 164940, Note_on_c, 13, 59, 84
20, 164940, Note_on_c, 13, 56, 84
20, 164991, Note_on_c, 13, 59, 0
20, 164991, Note_on_c, 13, 56, 0
20, 165000, Note_on_c, 13, 56, 84
20, 165000, Note_on_c, 13, 59, 84
20, 165051, Note_on_c, 13, 56, 0
20, 165051, Note_on_c, 13, 59, 0
20, 165060, Note_on_c, 13, 59, 84
20, 165060, Note_on_c, 13, 56, 84
20, 165111, Note_on_c, 13, 59, 0
20, 165111, Note_on_c, 13, 56, 0
20, 165120, Note_on_c, 13, 56, 84
20, 165120, Note_on_c, 13, 59, 84
20, 165171, Note_on_c, 13, 56, 0
20, 165171, Note_on_c, 13, 59, 0
20, 165180, Note_on_c, 13, 56, 84
20, 165180, Note_on_c, 13, 59, 84
20, 165231, Note_on_c, 13, 56, 0
20, 165231, Note_on_c, 13, 59, 0
20, 165240, Note_on_c, 13, 56, 84
20, 165240, Note_on_c, 13, 59, 84
20, 165291, Note_on_c, 13, 56, 0
20, 165291, Note_on_c, 13, 59, 0
20, 165300, Note_on_c, 13, 56, 84
20, 165300, Note_on_c, 13, 59, 84
20, 165351, Note_on_c, 13, 56, 0
20, 165351, Note_on_c, 13, 59, 0
20, 165360, Note_on_c, 13, 56, 84
20, 165360, Note_on_c, 13, 59, 84
20, 165411, Note_on_c, 13, 56, 0
20, 165411, Note_on_c, 13, 59, 0
20, 165420, Note_on_c, 13, 59, 84
20, 165420, Note_on_c, 13, 56, 84
20, 165471, Note_on_c, 13, 59, 0
20, 165471, Note_on_c, 13, 56, 0
20, 165480, Note_on_c, 13, 59, 84
20, 165480, Note_on_c, 13, 56, 84
20, 165531, Note_on_c, 13, 59, 0
20, 165531, Note_on_c, 13, 56, 0
20, 165540, Note_on_c, 13, 56, 84
20, 165540, Note_on_c, 13, 59, 84
20, 165591, Note_on_c, 13, 56, 0
20, 165591, Note_on_c, 13, 59, 0
20, 165600, Note_on_c, 13, 59, 84
20, 165600, Note_on_c, 13, 56, 84
20, 165651, Note_on_c, 13, 59, 0
20, 165651, Note_on_c, 13, 56, 0
20, 165660, Note_on_c, 13, 59, 84
20, 165660, Note_on_c, 13, 56, 84
20, 165711, Note_on_c, 13, 59, 0
20, 165711, Note_on_c, 13, 56, 0
20, 165720, Note_on_c, 13, 56, 84
20, 165720, Note_on_c, 13, 59, 84
20, 165771, Note_on_c, 13, 56, 0
20, 165771, Note_on_c, 13, 59, 0
20, 165780, Note_on_c, 13, 59, 84
20, 165780, Note_on_c, 13, 56, 84
20, 165831, Note_on_c, 13, 59, 0
20, 165831, Note_on_c, 13, 56, 0
20, 165840, Note_on_c, 13, 59, 84
20, 165840, Note_on_c, 13, 56, 84
20, 165891, Note_on_c, 13, 59, 0
20, 165891, Note_on_c, 13, 56, 0
20, 165900, Note_on_c, 13, 56, 84
20, 165900, Note_on_c, 13, 59, 84
20, 165951, Note_on_c, 13, 56, 0
20, 165951, Note_on_c, 13, 59, 0
20, 165960, Note_on_c, 13, 56, 84
20, 165960, Note_on_c, 13, 59, 84
20, 166011, Note_on_c, 13, 56, 0
20, 166011, Note_on_c, 13, 59, 0
20, 166020, Note_on_c, 13, 56, 84
20, 166020, Note_on_c, 13, 59, 84
20, 166071, Note_on_c, 13, 56, 0
20, 166071, Note_on_c, 13, 59, 0
20, 166080, Note_on_c, 13, 56, 84
20, 166080, Note_on_c, 13, 59, 84
20, 166131, Note_on_c, 13, 56, 0
20, 166131, Note_on_c, 13, 59, 0
20, 166140, Note_on_c, 13, 59, 84
20, 166140, Note_on_c, 13, 56, 84
20, 166191, Note_on_c, 13, 59, 0
20, 166191, Note_on_c, 13, 56, 0
20, 166200, Note_on_c, 13, 56, 84
20, 166200, Note_on_c, 13, 59, 84
20, 166251, Note_on_c, 13, 56, 0
20, 166251, Note_on_c, 13, 59, 0
20, 166260, Note_on_c, 13, 59, 84
20, 166260, Note_on_c, 13, 56, 84
20, 166311, Note_on_c, 13, 59, 0
20, 166311, Note_on_c, 13, 56, 0
20, 166320, Note_on_c, 13, 56, 84
20, 166320, Note_on_c, 13, 59, 84
20, 166371, Note_on_c, 13, 56, 0
20, 166371, Note_on_c, 13, 59, 0
20, 166380, Note_on_c, 13, 56, 84
20, 166380, Note_on_c, 13, 59, 84
20, 166431, Note_on_c, 13, 56, 0
20, 166431, Note_on_c, 13, 59, 0
20, 166440, Note_on_c, 13, 56, 84
20, 166440, Note_on_c, 13, 59, 84
20, 166491, Note_on_c, 13, 56, 0
20, 166491, Note_on_c, 13, 59, 0
20, 166500, Note_on_c, 13, 59, 84
20, 166500, Note_on_c, 13, 56, 84
20, 166551, Note_on_c, 13, 59, 0
20, 166551, Note_on_c, 13, 56, 0
20, 166560, Note_on_c, 13, 56, 84
20, 166560, Note_on_c, 13, 59, 84
20, 166611, Note_on_c, 13, 56, 0
20, 166611, Note_on_c, 13, 59, 0
20, 166620, Note_on_c, 13, 59, 84
20, 166620, Note_on_c, 13, 62, 84
20, 166671, Note_on_c, 13, 59, 0
20, 166671, Note_on_c, 13, 62, 0
20, 166680, Note_on_c, 13, 59, 84
20, 166680, Note_on_c, 13, 62, 84
20, 166731, Note_on_c, 13, 59, 0
20, 166731, Note_on_c, 13, 62, 0
20, 166740, Note_on_c, 13, 62, 84
20, 166740, Note_on_c, 13, 59, 84
20, 166791, Note_on_c, 13, 62, 0
20, 166791, Note_on_c, 13, 59, 0
20, 166800, Note_on_c, 13, 59, 84
20, 166800, Note_on_c, 13, 62, 84
20, 166851, Note_on_c, 13, 59, 0
20, 166851, Note_on_c, 13, 62, 0
20, 166860, Note_on_c, 13, 59, 84
20, 166860, Note_on_c, 13, 62, 84
20, 166911, Note_on_c, 13, 59, 0
20, 166911, Note_on_c, 13, 62, 0
20, 166920, Note_on_c, 13, 59, 84
20, 166920, Note_on_c, 13, 62, 84
20, 166971, Note_on_c, 13, 59, 0
20, 166971, Note_on_c, 13, 62, 0
20, 166980, Note_on_c, 13, 62, 84
20, 166980, Note_on_c, 13, 59, 84
20, 167031, Note_on_c, 13, 62, 0
20, 167031, Note_on_c, 13, 59, 0
20, 167040, Note_on_c, 13, 57, 84
20, 167107, Note_on_c, 13, 57, 0
20, 167120, Note_on_c, 13, 61, 84
20, 167187, Note_on_c, 13, 61, 0
20, 167200, Note_on_c, 13, 61, 84
20, 167267, Note_on_c, 13, 61, 0
20, 167280, Note_on_c, 13, 57, 84
20, 167347, Note_on_c, 13, 57, 0
20, 167360, Note_on_c, 13, 61, 84
20, 167427, Note_on_c, 13, 61, 0
20, 167440, Note_on_c, 13, 61, 84
20, 167507, Note_on_c, 13, 61, 0
20, 167520, Note_on_c, 13, 57, 84
20, 167587, Note_on_c, 13, 57, 0
20, 167600, Note_on_c, 13, 62, 84
20, 167667, Note_on_c, 13, 62, 0
20, 167680, Note_on_c, 13, 62, 84
20, 167747, Note_on_c, 13, 62, 0
20, 167760, Note_on_c, 13, 57, 84
20, 167827, Note_on_c, 13, 57, 0
20, 167840, Note_on_c, 13, 62, 84
20, 167907, Note_on_c, 13, 62, 0
20, 167920, Note_on_c, 13, 62, 84
20, 167987, Note_on_c, 13, 62, 0
20, 168000, Note_on_c, 13, 57, 84
20, 168067, Note_on_c, 13, 57, 0
20, 168080, Note_on_c, 13, 61, 84
20, 168147, Note_on_c, 13, 61, 0
20, 168160, Note_on_c, 13, 61, 84
20, 168227, Note_on_c, 13, 61, 0
20, 168240, Note_on_c, 13, 61, 84
20, 168307, Note_on_c, 13, 61, 0
20, 168320, Note_on_c, 13, 61, 84
20, 168387, Note_on_c, 13, 61, 0
20, 168400, Note_on_c, 13, 61, 84
20, 168467, Note_on_c, 13, 61, 0
20, 168480, Note_on_c, 13, 61, 84
20, 168704, Note_on_c, 13, 61, 0
20, 168720, Note_on_c, 13, 57, 52
20, 168959, Note_on_c, 13, 57, 0
20, 168960, Note_on_c, 13, 56, 52
20, 169439, Note_on_c, 13, 56, 0
20, 169440, Note_on_c, 13, 57, 52
20, 169919, Note_on_c, 13, 57, 0
20, 169920, Note_on_c, 13, 59, 52
20, 170624, Note_on_c, 13, 59, 0
20, 170640, Note_on_c, 13, 57, 52
20, 170879, Note_on_c, 13, 57, 0
20, 170880, Note_on_c, 13, 56, 52
20, 171359, Note_on_c, 13, 56, 0
20, 171360, Note_on_c, 13, 57, 52
20, 171839, Note_on_c, 13, 57, 0
20, 171840, Note_on_c, 13, 59, 52
20, 172544, Note_on_c, 13, 59, 0
20, 172560, Note_on_c, 13, 48, 52
20, 172739, Note_on_c, 13, 48, 0
20, 172800, Note_on_c, 13, 55, 52
20, 173279, Note_on_c, 13, 55, 0
20, 173280, Note_on_c, 13, 53, 52
20, 173759, Note_on_c, 13, 53, 0
20, 173760, Note_on_c, 13, 52, 52
20, 174464, Note_on_c, 13, 52, 0
20, 174480, Note_on_c, 13, 53, 52
20, 174659, Note_on_c, 13, 53, 0
20, 174720, Note_on_c, 13, 55, 52
20, 175199, Note_on_c, 13, 55, 0
20, 175200, Note_on_c, 13, 53, 52
20, 175664, Note_on_c, 13, 53, 0
20, 175680, Note_on_c, 13, 52, 52
20, 175919, Note_on_c, 13, 52, 0
20, 177840, Note_on_c, 13, 57, 52
20, 177919, Note_on_c, 13, 57, 0
20, 177920, Note_on_c, 13, 58, 52
20, 177999, Note_on_c, 13, 58, 0
20, 178000, Note_on_c, 13, 60, 52
20, 178067, Note_on_c, 13, 60, 0
20, 178080, Note_on_c, 13, 62, 52
20, 178259, Note_on_c, 13, 62, 0
20, 178320, Note_on_c, 13, 62, 52
20, 178559, Note_on_c, 13, 62, 0
20, 178560, Note_on_c, 13, 64, 52
20, 178799, Note_on_c, 13, 64, 0
20, 178800, Note_on_c, 13, 65, 52
20, 179039, Note_on_c, 13, 65, 0
20, 179040, Note_on_c, 13, 67, 52
20, 179264, Note_on_c, 13, 67, 0
20, 179280, Note_on_c, 13, 67, 52
20, 179519, Note_on_c, 13, 67, 0
20, 179520, Note_on_c, 13, 60, 52
20, 179759, Note_on_c, 13, 60, 0
20, 181440, Control_c, 13, 11, 80
20, 181680, Note_on_c, 13, 59, 76
20, 181759, Note_on_c, 13, 59, 0
20, 181760, Note_on_c, 13, 60, 76
20, 181839, Note_on_c, 13, 60, 0
20, 181840, Note_on_c, 13, 62, 76
20, 181907, Note_on_c, 13, 62, 0
20, 181920, Note_on_c, 13, 64, 76
20, 181920, Control_c, 13, 11, 80
20, 181973, Control_c, 13, 11, 83
20, 182027, Control_c, 13, 11, 85
20, 182080, Control_c, 13, 11, 88
20, 182099, Note_on_c, 13, 64, 0
20, 182133, Control_c, 13, 11, 90
20, 182160, Note_on_c, 13, 55, 76
20, 182187, Control_c, 13, 11, 93
20, 182240, Control_c, 13, 11, 96
20, 182293, Control_c, 13, 11, 98
20, 182347, Control_c, 13, 11, 101
20, 182399, Note_on_c, 13, 55, 0
20, 182400, Control_c, 13, 11, 104
20, 182400, Note_on_c, 13, 53, 76
20, 182453, Control_c, 13, 11, 106
20, 182507, Control_c, 13, 11, 109
20, 182560, Control_c, 13, 11, 111
20, 182613, Control_c, 13, 11, 114
20, 182624, Note_on_c, 13, 53, 0
20, 182640, Note_on_c, 13, 51, 76
20, 182667, Control_c, 13, 11, 117
20, 182719, Note_on_c, 13, 51, 0
20, 182720, Note_on_c, 13, 53, 76
20, 182720, Control_c, 13, 11, 119
20, 182773, Control_c, 13, 11, 122
20, 182799, Note_on_c, 13, 53, 0
20, 182800, Note_on_c, 13, 54, 76
20, 182827, Control_c, 13, 11, 124
20, 182867, Note_on_c, 13, 54, 0
20, 182880, Note_on_c, 13, 50, 76
20, 183059, Note_on_c, 13, 50, 0
20, 183120, Control_c, 13, 11, 127
20, 183600, Note_on_c, 13, 48, 76
20, 183667, Note_on_c, 13, 48, 0
20, 183680, Note_on_c, 13, 48, 76
20, 183747, Note_on_c, 13, 48, 0
20, 183760, Note_on_c, 13, 48, 76
20, 183839, Note_on_c, 13, 48, 0
20, 184080, Note_on_c, 13, 50, 76
20, 184147, Note_on_c, 13, 50, 0
20, 184160, Note_on_c, 13, 50, 76
20, 184227, Note_on_c, 13, 50, 0
20, 184240, Note_on_c, 13, 50, 76
20, 184307, Note_on_c, 13, 50, 0
20, 184320, Note_on_c, 13, 51, 76
20, 184559, Note_on_c, 13, 51, 0
20, 185520, Note_on_c, 13, 57, 76
20, 185587, Note_on_c, 13, 57, 0
20, 185600, Note_on_c, 13, 58, 76
20, 185667, Note_on_c, 13, 58, 0
20, 185680, Note_on_c, 13, 60, 76
20, 185747, Note_on_c, 13, 60, 0
20, 185760, Note_on_c, 13, 53, 76
20, 185999, Note_on_c, 13, 53, 0
20, 186480, Note_on_c, 13, 49, 76
20, 186547, Note_on_c, 13, 49, 0
20, 186560, Note_on_c, 13, 49, 76
20, 186627, Note_on_c, 13, 49, 0
20, 186640, Note_on_c, 13, 49, 76
20, 186719, Note_on_c, 13, 49, 0
20, 186960, Note_on_c, 13, 51, 76
20, 187027, Note_on_c, 13, 51, 0
20, 187040, Note_on_c, 13, 51, 76
20, 187107, Note_on_c, 13, 51, 0
20, 187120, Note_on_c, 13, 51, 76
20, 187187, Note_on_c, 13, 51, 0
20, 187200, Note_on_c, 13, 53, 76
20, 187439, Note_on_c, 13, 53, 0
20, 188400, Note_on_c, 13, 61, 76
20, 188467, Note_on_c, 13, 61, 0
20, 188480, Note_on_c, 13, 63, 76
20, 188547, Note_on_c, 13, 63, 0
20, 188560, Note_on_c, 13, 65, 76
20, 188627, Note_on_c, 13, 65, 0
20, 188640, Note_on_c, 13, 58, 76
20, 188879, Note_on_c, 13, 58, 0
20, 190080, Note_on_c, 13, 60, 76
20, 190080, Note_on_c, 13, 48, 76
20, 191264, Note_on_c, 13, 60, 0
20, 191264, Note_on_c, 13, 48, 0
20, 191280, Note_on_c, 13, 60, 76
20, 191347, Note_on_c, 13, 60, 0
20, 191360, Note_on_c, 13, 61, 76
20, 191427, Note_on_c, 13, 61, 0
20, 191440, Note_on_c, 13, 63, 76
20, 191507, Note_on_c, 13, 63, 0
20, 191520, Note_on_c, 13, 56, 76
20, 191759, Note_on_c, 13, 56, 0
20, 191760, Note_on_c, 13, 56, 76
20, 191999, Note_on_c, 13, 56, 0
20, 192000, Note_on_c, 13, 56, 76
20, 192959, Note_on_c, 13, 56, 0
20, 192960, Note_on_c, 13, 56, 76
20, 194144, Note_on_c, 13, 56, 0
20, 194160, Note_on_c, 13, 62, 76
20, 194227, Note_on_c, 13, 62, 0
20, 194240, Note_on_c, 13, 63, 76
20, 194307, Note_on_c, 13, 63, 0
20, 194320, Note_on_c, 13, 65, 76
20, 194387, Note_on_c, 13, 65, 0
20, 194400, Note_on_c, 13, 59, 76
20, 194639, Note_on_c, 13, 59, 0
20, 196560, Note_on_c, 13, 53, 76
20, 196739, Note_on_c, 13, 53, 0
20, 196800, Note_on_c, 13, 52, 76
20, 197159, Note_on_c, 13, 52, 0
20, 197280, Note_on_c, 13, 53, 76
20, 197639, Note_on_c, 13, 53, 0
20, 197760, Note_on_c, 13, 55, 80
20, 197939, Note_on_c, 13, 55, 0
20, 198000, Note_on_c, 13, 49, 80
20, 198179, Note_on_c, 13, 49, 0
20, 198240, Note_on_c, 13, 48, 80
20, 198944, Note_on_c, 13, 48, 0
20, 198960, Note_on_c, 13, 55, 80
20, 199139, Note_on_c, 13, 55, 0
20, 199200, Note_on_c, 13, 53, 80
20, 199904, Note_on_c, 13, 53, 0
20, 199920, Note_on_c, 13, 53, 80
20, 200099, Note_on_c, 13, 53, 0
20, 200160, Note_on_c, 13, 51, 80
20, 200864, Note_on_c, 13, 51, 0
20, 200880, Note_on_c, 13, 58, 80
20, 201059, Note_on_c, 13, 58, 0
20, 201120, Note_on_c, 13, 56, 80
20, 201824, Note_on_c, 13, 56, 0
20, 201840, Note_on_c, 13, 56, 80
20, 202019, Note_on_c, 13, 56, 0
20, 202080, Note_on_c, 13, 55, 80
20, 202784, Note_on_c, 13, 55, 0
20, 202800, Note_on_c, 13, 50, 80
20, 202979, Note_on_c, 13, 50, 0
20, 203040, Note_on_c, 13, 48, 80
20, 203744, Note_on_c, 13, 48, 0
20, 203760, Note_on_c, 13, 60, 80
20, 203939, Note_on_c, 13, 60, 0
20, 204000, Note_on_c, 13, 58, 80
20, 204704, Note_on_c, 13, 58, 0
20, 204720, Note_on_c, 13, 53, 80
20, 204899, Note_on_c, 13, 53, 0
20, 204960, Note_on_c, 13, 51, 80
20, 205139, Note_on_c, 13, 51, 0
20, 205200, Note_on_c, 13, 63, 80
20, 205379, Note_on_c, 13, 63, 0
20, 205440, Note_on_c, 13, 62, 80
20, 205440, Note_on_c, 13, 72, 80
20, 205507, Note_on_c, 13, 62, 0
20, 205507, Note_on_c, 13, 72, 0
20, 205520, Note_on_c, 13, 72, 80
20, 205520, Note_on_c, 13, 62, 80
20, 205587, Note_on_c, 13, 72, 0
20, 205587, Note_on_c, 13, 62, 0
20, 205600, Note_on_c, 13, 72, 80
20, 205600, Note_on_c, 13, 62, 80
20, 205667, Note_on_c, 13, 72, 0
20, 205667, Note_on_c, 13, 62, 0
20, 205680, Note_on_c, 13, 72, 80
20, 205680, Note_on_c, 13, 62, 80
20, 205747, Note_on_c, 13, 72, 0
20, 205747, Note_on_c, 13, 62, 0
20, 205760, Note_on_c, 13, 62, 80
20, 205760, Note_on_c, 13, 72, 80
20, 205827, Note_on_c, 13, 62, 0
20, 205827, Note_on_c, 13, 72, 0
20, 205840, Note_on_c, 13, 62, 80
20, 205840, Note_on_c, 13, 72, 80
20, 205907, Note_on_c, 13, 62, 0
20, 205907, Note_on_c, 13, 72, 0
20, 205920, Note_on_c, 13, 62, 80
20, 205920, Note_on_c, 13, 72, 80
20, 205987, Note_on_c, 13, 62, 0
20, 205987, Note_on_c, 13, 72, 0
20, 206000, Note_on_c, 13, 72, 80
20, 206000, Note_on_c, 13, 62, 80
20, 206067, Note_on_c, 13, 72, 0
20, 206067, Note_on_c, 13, 62, 0
20, 206080, Note_on_c, 13, 72, 80
20, 206080, Note_on_c, 13, 62, 80
20, 206147, Note_on_c, 13, 72, 0
20, 206147, Note_on_c, 13, 62, 0
20, 206160, Note_on_c, 13, 72, 80
20, 206160, Note_on_c, 13, 62, 80
20, 206227, Note_on_c, 13, 72, 0
20, 206227, Note_on_c, 13, 62, 0
20, 206240, Note_on_c, 13, 72, 80
20, 206240, Note_on_c, 13, 62, 80
20, 206307, Note_on_c, 13, 72, 0
20, 206307, Note_on_c, 13, 62, 0
20, 206320, Note_on_c, 13, 62, 80
20, 206320, Note_on_c, 13, 72, 80
20, 206387, Note_on_c, 13, 62, 0
20, 206387, Note_on_c, 13, 72, 0
20, 206400, Note_on_c, 13, 72, 80
20, 206400, Note_on_c, 13, 62, 80
20, 206467, Note_on_c, 13, 72, 0
20, 206467, Note_on_c, 13, 62, 0
20, 206480, Note_on_c, 13, 72, 80
20, 206480, Note_on_c, 13, 62, 80
20, 206547, Note_on_c, 13, 72, 0
20, 206547, Note_on_c, 13, 62, 0
20, 206560, Note_on_c, 13, 72, 80
20, 206560, Note_on_c, 13, 62, 80
20, 206627, Note_on_c, 13, 72, 0
20, 206627, Note_on_c, 13, 62, 0
20, 206640, Note_on_c, 13, 62, 80
20, 206640, Note_on_c, 13, 72, 80
20, 206707, Note_on_c, 13, 62, 0
20, 206707, Note_on_c, 13, 72, 0
20, 206720, Note_on_c, 13, 72, 80
20, 206720, Note_on_c, 13, 62, 80
20, 206787, Note_on_c, 13, 72, 0
20, 206787, Note_on_c, 13, 62, 0
20, 206800, Note_on_c, 13, 62, 80
20, 206800, Note_on_c, 13, 72, 80
20, 206867, Note_on_c, 13, 62, 0
20, 206867, Note_on_c, 13, 72, 0
20, 206880, Note_on_c, 13, 72, 80
20, 206880, Note_on_c, 13, 62, 80
20, 206947, Note_on_c, 13, 72, 0
20, 206947, Note_on_c, 13, 62, 0
20, 206960, Note_on_c, 13, 62, 80
20, 206960, Note_on_c, 13, 72, 80
20, 207027, Note_on_c, 13, 62, 0
20, 207027, Note_on_c, 13, 72, 0
20, 207040, Note_on_c, 13, 72, 80
20, 207040, Note_on_c, 13, 62, 80
20, 207107, Note_on_c, 13, 72, 0
20, 207107, Note_on_c, 13, 62, 0
20, 207120, Note_on_c, 13, 72, 80
20, 207120, Note_on_c, 13, 62, 80
20, 207187, Note_on_c, 13, 72, 0
20, 207187, Note_on_c, 13, 62, 0
20, 207200, Note_on_c, 13, 72, 80
20, 207200, Note_on_c, 13, 62, 80
20, 207267, Note_on_c, 13, 72, 0
20, 207267, Note_on_c, 13, 62, 0
20, 207280, Note_on_c, 13, 72, 80
20, 207280, Note_on_c, 13, 62, 80
20, 207347, Note_on_c, 13, 72, 0
20, 207347, Note_on_c, 13, 62, 0
20, 207360, Note_on_c, 13, 55, 84
20, 208064, Note_on_c, 13, 55, 0
20, 208080, Note_on_c, 13, 67, 84
20, 208147, Note_on_c, 13, 67, 0
20, 208160, Note_on_c, 13, 65, 84
20, 208227, Note_on_c, 13, 65, 0
20, 208240, Note_on_c, 13, 64, 84
20, 208307, Note_on_c, 13, 64, 0
20, 208320, Note_on_c, 13, 62, 84
20, 208387, Note_on_c, 13, 62, 0
20, 208400, Note_on_c, 13, 61, 84
20, 208467, Note_on_c, 13, 61, 0
20, 208480, Note_on_c, 13, 62, 84
20, 208547, Note_on_c, 13, 62, 0
20, 208560, Note_on_c, 13, 65, 84
20, 208627, Note_on_c, 13, 65, 0
20, 208640, Note_on_c, 13, 64, 84
20, 208707, Note_on_c, 13, 64, 0
20, 208720, Note_on_c, 13, 62, 84
20, 208787, Note_on_c, 13, 62, 0
20, 208800, Note_on_c, 13, 60, 84
20, 208867, Note_on_c, 13, 60, 0
20, 208880, Note_on_c, 13, 59, 84
20, 208947, Note_on_c, 13, 59, 0
20, 208960, Note_on_c, 13, 60, 84
20, 209027, Note_on_c, 13, 60, 0
20, 209040, Note_on_c, 13, 64, 84
20, 209107, Note_on_c, 13, 64, 0
20, 209120, Note_on_c, 13, 62, 84
20, 209187, Note_on_c, 13, 62, 0
20, 209200, Note_on_c, 13, 60, 84
20, 209267, Note_on_c, 13, 60, 0
20, 209280, Note_on_c, 13, 59, 84
20, 209347, Note_on_c, 13, 59, 0
20, 209360, Note_on_c, 13, 57, 84
20, 209427, Note_on_c, 13, 57, 0
20, 209440, Note_on_c, 13, 59, 84
20, 209507, Note_on_c, 13, 59, 0
20, 209520, Note_on_c, 13, 62, 84
20, 209587, Note_on_c, 13, 62, 0
20, 209600, Note_on_c, 13, 60, 84
20, 209667, Note_on_c, 13, 60, 0
20, 209680, Note_on_c, 13, 59, 84
20, 209747, Note_on_c, 13, 59, 0
20, 209760, Note_on_c, 13, 55, 84
20, 209827, Note_on_c, 13, 55, 0
20, 209840, Note_on_c, 13, 65, 84
20, 209907, Note_on_c, 13, 65, 0
20, 209920, Note_on_c, 13, 67, 84
20, 209987, Note_on_c, 13, 67, 0
20, 210000, Note_on_c, 13, 69, 84
20, 210067, Note_on_c, 13, 69, 0
20, 210080, Note_on_c, 13, 67, 84
20, 210147, Note_on_c, 13, 67, 0
20, 210160, Note_on_c, 13, 65, 84
20, 210227, Note_on_c, 13, 65, 0
20, 210240, Note_on_c, 13, 65, 84
20, 210307, Note_on_c, 13, 65, 0
20, 210320, Note_on_c, 13, 64, 84
20, 210387, Note_on_c, 13, 64, 0
20, 210400, Note_on_c, 13, 65, 84
20, 210467, Note_on_c, 13, 65, 0
20, 210480, Note_on_c, 13, 67, 84
20, 210547, Note_on_c, 13, 67, 0
20, 210560, Note_on_c, 13, 65, 84
20, 210627, Note_on_c, 13, 65, 0
20, 210640, Note_on_c, 13, 64, 84
20, 210707, Note_on_c, 13, 64, 0
20, 210720, Note_on_c, 13, 64, 84
20, 210787, Note_on_c, 13, 64, 0
20, 210800, Note_on_c, 13, 62, 84
20, 210867, Note_on_c, 13, 62, 0
20, 210880, Note_on_c, 13, 64, 84
20, 210947, Note_on_c, 13, 64, 0
20, 210960, Note_on_c, 13, 65, 84
20, 211027, Note_on_c, 13, 65, 0
20, 211040, Note_on_c, 13, 64, 84
20, 211107, Note_on_c, 13, 64, 0
20, 211120, Note_on_c, 13, 62, 84
20, 211187, Note_on_c, 13, 62, 0
20, 211200, Note_on_c, 13, 62, 84
20, 211267, Note_on_c, 13, 62, 0
20, 211280, Note_on_c, 13, 60, 84
20, 211347, Note_on_c, 13, 60, 0
20, 211360, Note_on_c, 13, 62, 84
20, 211427, Note_on_c, 13, 62, 0
20, 211440, Note_on_c, 13, 64, 84
20, 211507, Note_on_c, 13, 64, 0
20, 211520, Note_on_c, 13, 62, 84
20, 211587, Note_on_c, 13, 62, 0
20, 211600, Note_on_c, 13, 60, 84
20, 211667, Note_on_c, 13, 60, 0
20, 211680, Note_on_c, 13, 60, 84
20, 211747, Note_on_c, 13, 60, 0
20, 211760, Note_on_c, 13, 64, 84
20, 211760, Note_on_c, 13, 60, 84
20, 211827, Note_on_c, 13, 64, 0
20, 211827, Note_on_c, 13, 60, 0
20, 211840, Note_on_c, 13, 62, 84
20, 211840, Note_on_c, 13, 65, 84
20, 211907, Note_on_c, 13, 62, 0
20, 211907, Note_on_c, 13, 65, 0
20, 211920, Note_on_c, 13, 67, 84
20, 211920, Note_on_c, 13, 64, 84
20, 211987, Note_on_c, 13, 67, 0
20, 211987, Note_on_c, 13, 64, 0
20, 212000, Note_on_c, 13, 62, 84
20, 212000, Note_on_c, 13, 65, 84
20, 212067, Note_on_c, 13, 62, 0
20, 212067, Note_on_c, 13, 65, 0
20, 212080, Note_on_c, 13, 64, 84
20, 212080, Note_on_c, 13, 60, 84
20, 212147, Note_on_c, 13, 64, 0
20, 212147, Note_on_c, 13, 60, 0
20, 212160, Note_on_c, 13, 62, 84
20, 212160, Note_on_c, 13, 59, 84
20, 212227, Note_on_c, 13, 62, 0
20, 212227, Note_on_c, 13, 59, 0
20, 212240, Note_on_c, 13, 60, 84
20, 212240, Note_on_c, 13, 57, 84
20, 212307, Note_on_c, 13, 60, 0
20, 212307, Note_on_c, 13, 57, 0
20, 212320, Note_on_c, 13, 62, 84
20, 212320, Note_on_c, 13, 59, 84
20, 212387, Note_on_c, 13, 62, 0
20, 212387, Note_on_c, 13, 59, 0
20, 212400, Note_on_c, 13, 62, 84
20, 212400, Note_on_c, 13, 65, 84
20, 212467, Note_on_c, 13, 62, 0
20, 212467, Note_on_c, 13, 65, 0
20, 212480, Note_on_c, 13, 60, 84
20, 212480, Note_on_c, 13, 64, 84
20, 212547, Note_on_c, 13, 60, 0
20, 212547, Note_on_c, 13, 64, 0
20, 212560, Note_on_c, 13, 62, 84
20, 212560, Note_on_c, 13, 59, 84
20, 212627, Note_on_c, 13, 62, 0
20, 212627, Note_on_c, 13, 59, 0
20, 212640, Note_on_c, 13, 64, 84
20, 212640, Note_on_c, 13, 60, 84
20, 212707, Note_on_c, 13, 64, 0
20, 212707, Note_on_c, 13, 60, 0
20, 212720, Note_on_c, 13, 59, 84
20, 212720, Note_on_c, 13, 62, 84
20, 212787, Note_on_c, 13, 59, 0
20, 212787, Note_on_c, 13, 62, 0
20, 212800, Note_on_c, 13, 60, 84
20, 212800, Note_on_c, 13, 64, 84
20, 212867, Note_on_c, 13, 60, 0
20, 212867, Note_on_c, 13, 64, 0
20, 212880, Note_on_c, 13, 67, 84
20, 212880, Note_on_c, 13, 64, 84
20, 212947, Note_on_c, 13, 67, 0
20, 212947, Note_on_c, 13, 64, 0
20, 212960, Note_on_c, 13, 62, 84
20, 212960, Note_on_c, 13, 65, 84
20, 213027, Note_on_c, 13, 62, 0
20, 213027, Note_on_c, 13, 65, 0
20, 213040, Note_on_c, 13, 60, 84
20, 213040, Note_on_c, 13, 64, 84
20, 213107, Note_on_c, 13, 60, 0
20, 213107, Note_on_c, 13, 64, 0
20, 213120, Note_on_c, 13, 65, 84
20, 213120, Note_on_c, 13, 62, 84
20, 213187, Note_on_c, 13, 65, 0
20, 213187, Note_on_c, 13, 62, 0
20, 213200, Note_on_c, 13, 60, 84
20, 213200, Note_on_c, 13, 64, 84
20, 213267, Note_on_c, 13, 60, 0
20, 213267, Note_on_c, 13, 64, 0
20, 213280, Note_on_c, 13, 62, 84
20, 213280, Note_on_c, 13, 65, 84
20, 213347, Note_on_c, 13, 62, 0
20, 213347, Note_on_c, 13, 65, 0
20, 213360, Note_on_c, 13, 65, 84
20, 213360, Note_on_c, 13, 69, 84
20, 213427, Note_on_c, 13, 65, 0
20, 213427, Note_on_c, 13, 69, 0
20, 213440, Note_on_c, 13, 67, 84
20, 213440, Note_on_c, 13, 64, 84
20, 213507, Note_on_c, 13, 67, 0
20, 213507, Note_on_c, 13, 64, 0
20, 213520, Note_on_c, 13, 62, 84
20, 213520, Note_on_c, 13, 65, 84
20, 213587, Note_on_c, 13, 62, 0
20, 213587, Note_on_c, 13, 65, 0
20, 213600, Note_on_c, 13, 62, 84
20, 213600, Note_on_c, 13, 65, 84
20, 213667, Note_on_c, 13, 62, 0
20, 213667, Note_on_c, 13, 65, 0
20, 213680, Note_on_c, 13, 60, 84
20, 213680, Note_on_c, 13, 64, 84
20, 213747, Note_on_c, 13, 60, 0
20, 213747, Note_on_c, 13, 64, 0
20, 213760, Note_on_c, 13, 62, 84
20, 213760, Note_on_c, 13, 65, 84
20, 213827, Note_on_c, 13, 62, 0
20, 213827, Note_on_c, 13, 65, 0
20, 213840, Note_on_c, 13, 69, 84
20, 213840, Note_on_c, 13, 65, 84
20, 213907, Note_on_c, 13, 69, 0
20, 213907, Note_on_c, 13, 65, 0
20, 213920, Note_on_c, 13, 67, 84
20, 213920, Note_on_c, 13, 64, 84
20, 213987, Note_on_c, 13, 67, 0
20, 213987, Note_on_c, 13, 64, 0
20, 214000, Note_on_c, 13, 62, 84
20, 214000, Note_on_c, 13, 65, 84
20, 214067, Note_on_c, 13, 62, 0
20, 214067, Note_on_c, 13, 65, 0
20, 214080, Note_on_c, 13, 64, 84
20, 214080, Note_on_c, 13, 60, 84
20, 214147, Note_on_c, 13, 64, 0
20, 214147, Note_on_c, 13, 60, 0
20, 214160, Note_on_c, 13, 59, 84
20, 214160, Note_on_c, 13, 62, 84
20, 214227, Note_on_c, 13, 59, 0
20, 214227, Note_on_c, 13, 62, 0
20, 214240, Note_on_c, 13, 64, 84
20, 214240, Note_on_c, 13, 60, 84
20, 214307, Note_on_c, 13, 64, 0
20, 214307, Note_on_c, 13, 60, 0
20, 214320, Note_on_c, 13, 64, 84
20, 214320, Note_on_c, 13, 67, 84
20, 214387, Note_on_c, 13, 64, 0
20, 214387, Note_on_c, 13, 67, 0
20, 214400, Note_on_c, 13, 65, 84
20, 214400, Note_on_c, 13, 62, 84
20, 214467, Note_on_c, 13, 65, 0
20, 214467, Note_on_c, 13, 62, 0
20, 214480, Note_on_c, 13, 64, 84
20, 214480, Note_on_c, 13, 60, 84
20, 214547, Note_on_c, 13, 64, 0
20, 214547, Note_on_c, 13, 60, 0
20, 214560, Note_on_c, 13, 65, 84
20, 214560, Note_on_c, 13, 62, 84
20, 214627, Note_on_c, 13, 65, 0
20, 214627, Note_on_c, 13, 62, 0
20, 214640, Note_on_c, 13, 64, 84
20, 214640, Note_on_c, 13, 60, 84
20, 214707, Note_on_c, 13, 64, 0
20, 214707, Note_on_c, 13, 60, 0
20, 214720, Note_on_c, 13, 62, 84
20, 214720, Note_on_c, 13, 65, 84
20, 214787, Note_on_c, 13, 62, 0
20, 214787, Note_on_c, 13, 65, 0
20, 214800, Note_on_c, 13, 65, 84
20, 214800, Note_on_c, 13, 69, 84
20, 214867, Note_on_c, 13, 65, 0
20, 214867, Note_on_c, 13, 69, 0
20, 214880, Note_on_c, 13, 64, 84
20, 214880, Note_on_c, 13, 67, 84
20, 214947, Note_on_c, 13, 64, 0
20, 214947, Note_on_c, 13, 67, 0
20, 214960, Note_on_c, 13, 62, 84
20, 214960, Note_on_c, 13, 65, 84
20, 215027, Note_on_c, 13, 62, 0
20, 215027, Note_on_c, 13, 65, 0
20, 215040, Note_on_c, 13, 67, 92
20, 215040, Note_on_c, 13, 64, 92
20, 215107, Note_on_c, 13, 67, 0
20, 215107, Note_on_c, 13, 64, 0
20, 215120, Note_on_c, 13, 55, 84
20, 215120, Note_on_c, 13, 52, 84
20, 215187, Note_on_c, 13, 55, 0
20, 215187, Note_on_c, 13, 52, 0
20, 215200, Note_on_c, 13, 55, 84
20, 215200, Note_on_c, 13, 52, 84
20, 215267, Note_on_c, 13, 55, 0
20, 215267, Note_on_c, 13, 52, 0
20, 215280, Note_on_c, 13, 55, 84
20, 215280, Note_on_c, 13, 52, 84
20, 215347, Note_on_c, 13, 55, 0
20, 215347, Note_on_c, 13, 52, 0
20, 215360, Note_on_c, 13, 55, 84
20, 215360, Note_on_c, 13, 52, 84
20, 215427, Note_on_c, 13, 55, 0
20, 215427, Note_on_c, 13, 52, 0
20, 215440, Note_on_c, 13, 52, 84
20, 215440, Note_on_c, 13, 55, 84
20, 215507, Note_on_c, 13, 52, 0
20, 215507, Note_on_c, 13, 55, 0
20, 215520, Note_on_c, 13, 55, 84
20, 215520, Note_on_c, 13, 52, 84
20, 215587, Note_on_c, 13, 55, 0
20, 215587, Note_on_c, 13, 52, 0
20, 215600, Note_on_c, 13, 52, 84
20, 215600, Note_on_c, 13, 55, 84
20, 215667, Note_on_c, 13, 52, 0
20, 215667, Note_on_c, 13, 55, 0
20, 215680, Note_on_c, 13, 52, 84
20, 215680, Note_on_c, 13, 55, 84
20, 215747, Note_on_c, 13, 52, 0
20, 215747, Note_on_c, 13, 55, 0
20, 215760, Note_on_c, 13, 52, 84
20, 215760, Note_on_c, 13, 55, 84
20, 215827, Note_on_c, 13, 52, 0
20, 215827, Note_on_c, 13, 55, 0
20, 215840, Note_on_c, 13, 55, 84
20, 215840, Note_on_c, 13, 52, 84
20, 215907, Note_on_c, 13, 55, 0
20, 215907, Note_on_c, 13, 52, 0
20, 215920, Note_on_c, 13, 52, 84
20, 215920, Note_on_c, 13, 55, 84
20, 215987, Note_on_c, 13, 52, 0
20, 215987, Note_on_c, 13, 55, 0
20, 216000, Note_on_c, 13, 56, 92
20, 216000, Note_on_c, 13, 53, 92
20, 216067, Note_on_c, 13, 56, 0
20, 216067, Note_on_c, 13, 53, 0
20, 216080, Note_on_c, 13, 56, 84
20, 216080, Note_on_c, 13, 53, 84
20, 216147, Note_on_c, 13, 56, 0
20, 216147, Note_on_c, 13, 53, 0
20, 216160, Note_on_c, 13, 53, 84
20, 216160, Note_on_c, 13, 56, 84
20, 216227, Note_on_c, 13, 53, 0
20, 216227, Note_on_c, 13, 56, 0
20, 216240, Note_on_c, 13, 53, 84
20, 216240, Note_on_c, 13, 56, 84
20, 216307, Note_on_c, 13, 53, 0
20, 216307, Note_on_c, 13, 56, 0
20, 216320, Note_on_c, 13, 56, 84
20, 216320, Note_on_c, 13, 53, 84
20, 216387, Note_on_c, 13, 56, 0
20, 216387, Note_on_c, 13, 53, 0
20, 216400, Note_on_c, 13, 53, 84
20, 216400, Note_on_c, 13, 56, 84
20, 216467, Note_on_c, 13, 53, 0
20, 216467, Note_on_c, 13, 56, 0
20, 216480, Note_on_c, 13, 56, 84
20, 216480, Note_on_c, 13, 53, 84
20, 216547, Note_on_c, 13, 56, 0
20, 216547, Note_on_c, 13, 53, 0
20, 216560, Note_on_c, 13, 53, 84
20, 216560, Note_on_c, 13, 56, 84
20, 216627, Note_on_c, 13, 53, 0
20, 216627, Note_on_c, 13, 56, 0
20, 216640, Note_on_c, 13, 53, 84
20, 216640, Note_on_c, 13, 56, 84
20, 216707, Note_on_c, 13, 53, 0
20, 216707, Note_on_c, 13, 56, 0
20, 216720, Note_on_c, 13, 53, 84
20, 216720, Note_on_c, 13, 56, 84
20, 216787, Note_on_c, 13, 53, 0
20, 216787, Note_on_c, 13, 56, 0
20, 216800, Note_on_c, 13, 53, 84
20, 216800, Note_on_c, 13, 56, 84
20, 216867, Note_on_c, 13, 53, 0
20, 216867, Note_on_c, 13, 56, 0
20, 216880, Note_on_c, 13, 56, 84
20, 216880, Note_on_c, 13, 53, 84
20, 216947, Note_on_c, 13, 56, 0
20, 216947, Note_on_c, 13, 53, 0
20, 216960, Note_on_c, 13, 54, 84
20, 216960, Note_on_c, 13, 57, 84
20, 217027, Note_on_c, 13, 54, 0
20, 217027, Note_on_c, 13, 57, 0
20, 217040, Note_on_c, 13, 57, 84
20, 217040, Note_on_c, 13, 54, 84
20, 217107, Note_on_c, 13, 57, 0
20, 217107, Note_on_c, 13, 54, 0
20, 217120, Note_on_c, 13, 54, 84
20, 217120, Note_on_c, 13, 57, 84
20, 217187, Note_on_c, 13, 54, 0
20, 217187, Note_on_c, 13, 57, 0
20, 217200, Note_on_c, 13, 54, 84
20, 217200, Note_on_c, 13, 57, 84
20, 217267, Note_on_c, 13, 54, 0
20, 217267, Note_on_c, 13, 57, 0
20, 217280, Note_on_c, 13, 54, 84
20, 217280, Note_on_c, 13, 57, 84
20, 217347, Note_on_c, 13, 54, 0
20, 217347, Note_on_c, 13, 57, 0
20, 217360, Note_on_c, 13, 57, 84
20, 217360, Note_on_c, 13, 54, 84
20, 217427, Note_on_c, 13, 57, 0
20, 217427, Note_on_c, 13, 54, 0
20, 217440, Note_on_c, 13, 54, 84
20, 217440, Note_on_c, 13, 57, 84
20, 217507, Note_on_c, 13, 54, 0
20, 217507, Note_on_c, 13, 57, 0
20, 217520, Note_on_c, 13, 54, 84
20, 217520, Note_on_c, 13, 57, 84
20, 217587, Note_on_c, 13, 54, 0
20, 217587, Note_on_c, 13, 57, 0
20, 217600, Note_on_c, 13, 57, 84
20, 217600, Note_on_c, 13, 54, 84
20, 217667, Note_on_c, 13, 57, 0
20, 217667, Note_on_c, 13, 54, 0
20, 217680, Note_on_c, 13, 57, 84
20, 217680, Note_on_c, 13, 54, 84
20, 217747, Note_on_c, 13, 57, 0
20, 217747, Note_on_c, 13, 54, 0
20, 217760, Note_on_c, 13, 57, 84
20, 217760, Note_on_c, 13, 54, 84
20, 217827, Note_on_c, 13, 57, 0
20, 217827, Note_on_c, 13, 54, 0
20, 217840, Note_on_c, 13, 57, 84
20, 217840, Note_on_c, 13, 54, 84
20, 217907, Note_on_c, 13, 57, 0
20, 217907, Note_on_c, 13, 54, 0
20, 217920, Note_on_c, 13, 54, 84
20, 217920, Note_on_c, 13, 57, 84
20, 217987, Note_on_c, 13, 54, 0
20, 217987, Note_on_c, 13, 57, 0
20, 218000, Note_on_c, 13, 54, 84
20, 218000, Note_on_c, 13, 57, 84
20, 218067, Note_on_c, 13, 54, 0
20, 218067, Note_on_c, 13, 57, 0
20, 218080, Note_on_c, 13, 57, 84
20, 218080, Note_on_c, 13, 54, 84
20, 218147, Note_on_c, 13, 57, 0
20, 218147, Note_on_c, 13, 54, 0
20, 218160, Note_on_c, 13, 54, 84
20, 218160, Note_on_c, 13, 57, 84
20, 218227, Note_on_c, 13, 54, 0
20, 218227, Note_on_c, 13, 57, 0
20, 218240, Note_on_c, 13, 57, 84
20, 218240, Note_on_c, 13, 54, 84
20, 218307, Note_on_c, 13, 57, 0
20, 218307, Note_on_c, 13, 54, 0
20, 218320, Note_on_c, 13, 54, 84
20, 218320, Note_on_c, 13, 57, 84
20, 218387, Note_on_c, 13, 54, 0
20, 218387, Note_on_c, 13, 57, 0
20, 218400, Note_on_c, 13, 54, 84
20, 218400, Note_on_c, 13, 57, 84
20, 218467, Note_on_c, 13, 54, 0
20, 218467, Note_on_c, 13, 57, 0
20, 218480, Note_on_c, 13, 54, 84
20, 218480, Note_on_c, 13, 57, 84
20, 218547, Note_on_c, 13, 54, 0
20, 218547, Note_on_c, 13, 57, 0
20, 218560, Note_on_c, 13, 54, 84
20, 218560, Note_on_c, 13, 57, 84
20, 218627, Note_on_c, 13, 54, 0
20, 218627, Note_on_c, 13, 57, 0
20, 218640, Note_on_c, 13, 57, 84
20, 218640, Note_on_c, 13, 54, 84
20, 218707, Note_on_c, 13, 57, 0
20, 218707, Note_on_c, 13, 54, 0
20, 218720, Note_on_c, 13, 57, 84
20, 218720, Note_on_c, 13, 54, 84
20, 218787, Note_on_c, 13, 57, 0
20, 218787, Note_on_c, 13, 54, 0
20, 218800, Note_on_c, 13, 57, 84
20, 218800, Note_on_c, 13, 54, 84
20, 218867, Note_on_c, 13, 57, 0
20, 218867, Note_on_c, 13, 54, 0
20, 218880, Note_on_c, 13, 55, 84
20, 218880, Note_on_c, 13, 59, 84
20, 218931, Note_on_c, 13, 55, 0
20, 218931, Note_on_c, 13, 59, 0
20, 218940, Note_on_c, 13, 55, 84
20, 218940, Note_on_c, 13, 59, 84
20, 218991, Note_on_c, 13, 55, 0
20, 218991, Note_on_c, 13, 59, 0
20, 219000, Note_on_c, 13, 55, 84
20, 219000, Note_on_c, 13, 59, 84
20, 219051, Note_on_c, 13, 55, 0
20, 219051, Note_on_c, 13, 59, 0
20, 219060, Note_on_c, 13, 55, 84
20, 219060, Note_on_c, 13, 59, 84
20, 219111, Note_on_c, 13, 55, 0
20, 219111, Note_on_c, 13, 59, 0
20, 219120, Note_on_c, 13, 55, 84
20, 219120, Note_on_c, 13, 59, 84
20, 219171, Note_on_c, 13, 55, 0
20, 219171, Note_on_c, 13, 59, 0
20, 219180, Note_on_c, 13, 55, 84
20, 219180, Note_on_c, 13, 59, 84
20, 219231, Note_on_c, 13, 55, 0
20, 219231, Note_on_c, 13, 59, 0
20, 219240, Note_on_c, 13, 55, 84
20, 219240, Note_on_c, 13, 59, 84
20, 219291, Note_on_c, 13, 55, 0
20, 219291, Note_on_c, 13, 59, 0
20, 219300, Note_on_c, 13, 55, 84
20, 219300, Note_on_c, 13, 59, 84
20, 219351, Note_on_c, 13, 55, 0
20, 219351, Note_on_c, 13, 59, 0
20, 219360, Note_on_c, 13, 59, 84
20, 219360, Note_on_c, 13, 55, 84
20, 219411, Note_on_c, 13, 59, 0
20, 219411, Note_on_c, 13, 55, 0
20, 219420, Note_on_c, 13, 55, 84
20, 219420, Note_on_c, 13, 59, 84
20, 219471, Note_on_c, 13, 55, 0
20, 219471, Note_on_c, 13, 59, 0
20, 219480, Note_on_c, 13, 62, 84
20, 219531, Note_on_c, 13, 62, 0
20, 219540, Note_on_c, 13, 62, 84
20, 219591, Note_on_c, 13, 62, 0
20, 219600, Note_on_c, 13, 59, 84
20, 219651, Note_on_c, 13, 59, 0
20, 219660, Note_on_c, 13, 59, 84
20, 219711, Note_on_c, 13, 59, 0
20, 219720, Note_on_c, 13, 62, 84
20, 219771, Note_on_c, 13, 62, 0
20, 219780, Note_on_c, 13, 62, 84
20, 219831, Note_on_c, 13, 62, 0
20, 219840, Note_on_c, 13, 67, 84
20, 219891, Note_on_c, 13, 67, 0
20, 219900, Note_on_c, 13, 67, 84
20, 219951, Note_on_c, 13, 67, 0
20, 219960, Note_on_c, 13, 67, 84
20, 220011, Note_on_c, 13, 67, 0
20, 220020, Note_on_c, 13, 67, 84
20, 220071, Note_on_c, 13, 67, 0
20, 220080, Note_on_c, 13, 67, 84
20, 220131, Note_on_c, 13, 67, 0
20, 220140, Note_on_c, 13, 67, 84
20, 220191, Note_on_c, 13, 67, 0
20, 220200, Note_on_c, 13, 67, 84
20, 220251, Note_on_c, 13, 67, 0
20, 220260, Note_on_c, 13, 67, 84
20, 220311, Note_on_c, 13, 67, 0
20, 220320, Note_on_c, 13, 67, 84
20, 220371, Note_on_c, 13, 67, 0
20, 220380, Note_on_c, 13, 67, 84
20, 220431, Note_on_c, 13, 67, 0
20, 220440, Note_on_c, 13, 62, 84
20, 220491, Note_on_c, 13, 62, 0
20, 220500, Note_on_c, 13, 62, 84
20, 220551, Note_on_c, 13, 62, 0
20, 220560, Note_on_c, 13, 59, 84
20, 220611, Note_on_c, 13, 59, 0
20, 220620, Note_on_c, 13, 59, 84
20, 220671, Note_on_c, 13, 59, 0
20, 220680, Note_on_c, 13, 62, 84
20, 220731, Note_on_c, 13, 62, 0
20, 220740, Note_on_c, 13, 62, 84
20, 220791, Note_on_c, 13, 62, 0
20, 220800, Note_on_c, 13, 67, 84
20, 220851, Note_on_c, 13, 67, 0
20, 220860, Note_on_c, 13, 67, 84
20, 220911, Note_on_c, 13, 67, 0
20, 220920, Note_on_c, 13, 74, 84
20, 220971, Note_on_c, 13, 74, 0
20, 220980, Note_on_c, 13, 74, 84
20, 221031, Note_on_c, 13, 74, 0
20, 221040, Note_on_c, 13, 71, 84
20, 221091, Note_on_c, 13, 71, 0
20, 221100, Note_on_c, 13, 71, 84
20, 221151, Note_on_c, 13, 71, 0
20, 221160, Note_on_c, 13, 74, 84
20, 221211, Note_on_c, 13, 74, 0
20, 221220, Note_on_c, 13, 74, 84
20, 221271, Note_on_c, 13, 74, 0
20, 221280, Note_on_c, 13, 74, 84
20, 221331, Note_on_c, 13, 74, 0
20, 221340, Note_on_c, 13, 74, 84
20, 221391, Note_on_c, 13, 74, 0
20, 221400, Note_on_c, 13, 71, 84
20, 221451, Note_on_c, 13, 71, 0
20, 221460, Note_on_c, 13, 71, 84
20, 221511, Note_on_c, 13, 71, 0
20, 221520, Note_on_c, 13, 67, 84
20, 221571, Note_on_c, 13, 67, 0
20, 221580, Note_on_c, 13, 67, 84
20, 221631, Note_on_c, 13, 67, 0
20, 221640, Note_on_c, 13, 71, 84
20, 221691, Note_on_c, 13, 71, 0
20, 221700, Note_on_c, 13, 71, 84
20, 221751, Note_on_c, 13, 71, 0
20, 221760, Note_on_c, 13, 71, 84
20, 221811, Note_on_c, 13, 71, 0
20, 221820, Note_on_c, 13, 71, 84
20, 221871, Note_on_c, 13, 71, 0
20, 221880, Note_on_c, 13, 67, 84
20, 221931, Note_on_c, 13, 67, 0
20, 221940, Note_on_c, 13, 67, 84
20, 221991, Note_on_c, 13, 67, 0
20, 222000, Note_on_c, 13, 62, 84
20, 222051, Note_on_c, 13, 62, 0
20, 222060, Note_on_c, 13, 62, 84
20, 222111, Note_on_c, 13, 62, 0
20, 222120, Note_on_c, 13, 67, 84
20, 222171, Note_on_c, 13, 67, 0
20, 222180, Note_on_c, 13, 67, 84
20, 222231, Note_on_c, 13, 67, 0
20, 222240, Note_on_c, 13, 67, 84
20, 222291, Note_on_c, 13, 67, 0
20, 222300, Note_on_c, 13, 67, 84
20, 222351, Note_on_c, 13, 67, 0
20, 222360, Note_on_c, 13, 62, 84
20, 222411, Note_on_c, 13, 62, 0
20, 222420, Note_on_c, 13, 62, 84
20, 222471, Note_on_c, 13, 62, 0
20, 222480, Note_on_c, 13, 59, 84
20, 222531, Note_on_c, 13, 59, 0
20, 222540, Note_on_c, 13, 59, 84
20, 222591, Note_on_c, 13, 59, 0
20, 222600, Note_on_c, 13, 62, 84
20, 222651, Note_on_c, 13, 62, 0
20, 222660, Note_on_c, 13, 62, 84
20, 222711, Note_on_c, 13, 62, 0
20, 222720, Note_on_c, 13, 62, 84
20, 222771, Note_on_c, 13, 62, 0
20, 222780, Note_on_c, 13, 62, 84
20, 222831, Note_on_c, 13, 62, 0
20, 222840, Note_on_c, 13, 59, 84
20, 222891, Note_on_c, 13, 59, 0
20, 222900, Note_on_c, 13, 59, 84
20, 222951, Note_on_c, 13, 59, 0
20, 222960, Note_on_c, 13, 55, 84
20, 223011, Note_on_c, 13, 55, 0
20, 223020, Note_on_c, 13, 55, 84
20, 223071, Note_on_c, 13, 55, 0
20, 223080, Note_on_c, 13, 59, 84
20, 223131, Note_on_c, 13, 59, 0
20, 223140, Note_on_c, 13, 59, 84
20, 223191, Note_on_c, 13, 59, 0
20, 223200, Note_on_c, 13, 59, 84
20, 223251, Note_on_c, 13, 59, 0
20, 223260, Note_on_c, 13, 59, 84
20, 223311, Note_on_c, 13, 59, 0
20, 223320, Note_on_c, 13, 55, 84
20, 223371, Note_on_c, 13, 55, 0
20, 223380, Note_on_c, 13, 55, 84
20, 223431, Note_on_c, 13, 55, 0
20, 223440, Note_on_c, 13, 50, 84
20, 223491, Note_on_c, 13, 50, 0
20, 223500, Note_on_c, 13, 50, 84
20, 223551, Note_on_c, 13, 50, 0
20, 223560, Note_on_c, 13, 55, 84
20, 223611, Note_on_c, 13, 55, 0
20, 223620, Note_on_c, 13, 55, 84
20, 223671, Note_on_c, 13, 55, 0
20, 223680, Note_on_c, 13, 55, 84
20, 223731, Note_on_c, 13, 55, 0
20, 223740, Note_on_c, 13, 55, 84
20, 223791, Note_on_c, 13, 55, 0
20, 223800, Note_on_c, 13, 62, 84
20, 223851, Note_on_c, 13, 62, 0
20, 223860, Note_on_c, 13, 62, 84
20, 223911, Note_on_c, 13, 62, 0
20, 223920, Note_on_c, 13, 59, 84
20, 223971, Note_on_c, 13, 59, 0
20, 223980, Note_on_c, 13, 59, 84
20, 224031, Note_on_c, 13, 59, 0
20, 224040, Note_on_c, 13, 62, 84
20, 224091, Note_on_c, 13, 62, 0
20, 224100, Note_on_c, 13, 62, 84
20, 224151, Note_on_c, 13, 62, 0
20, 224160, Note_on_c, 13, 67, 84
20, 224211, Note_on_c, 13, 67, 0
20, 224220, Note_on_c, 13, 67, 84
20, 224271, Note_on_c, 13, 67, 0
20, 224280, Note_on_c, 13, 62, 84
20, 224331, Note_on_c, 13, 62, 0
20, 224340, Note_on_c, 13, 62, 84
20, 224391, Note_on_c, 13, 62, 0
20, 224400, Note_on_c, 13, 59, 84
20, 224451, Note_on_c, 13, 59, 0
20, 224460, Note_on_c, 13, 59, 84
20, 224511, Note_on_c, 13, 59, 0
20, 224520, Note_on_c, 13, 62, 84
20, 224571, Note_on_c, 13, 62, 0
20, 224580, Note_on_c, 13, 62, 84
20, 224631, Note_on_c, 13, 62, 0
20, 224640, Note_on_c, 13, 67, 84
20, 224640, Note_on_c, 13, 55, 84
20, 225584, Note_on_c, 13, 67, 0
20, 225584, Note_on_c, 13, 55, 0
20, 225600, Note_on_c, 13, 71, 84
20, 225600, Note_on_c, 13, 55, 84
20, 225600, Note_on_c, 13, 62, 84
20, 225839, Note_on_c, 13, 55, 0
20, 225839, Note_on_c, 13, 62, 0
20, 226544, Note_on_c, 13, 71, 0
20, 226560, Note_on_c, 13, 55, 84
20, 226560, Note_on_c, 13, 62, 84
20, 226560, Note_on_c, 13, 71, 84
20, 226799, Note_on_c, 13, 55, 0
20, 226799, Note_on_c, 13, 62, 0
20, 227504, Note_on_c, 13, 71, 0
20, 227520, Note_on_c, 13, 55, 84
20, 227520, Note_on_c, 13, 67, 84
20, 227759, Note_on_c, 13, 55, 0
20, 227759, Note_on_c, 13, 67, 0
20, 232560, Program_c, 13, 45
20, 233280, Note_on_c, 13, 60, 44
20, 233519, Note_on_c, 13, 60, 0
20, 234000, Note_on_c, 13, 59, 44
20, 234239, Note_on_c, 13, 59, 0
20, 234720, Note_on_c, 13, 60, 44
20, 234959, Note_on_c, 13, 60, 0
20, 235440, Note_on_c, 13, 55, 44
20, 235679, Note_on_c, 13, 55, 0
20, 236160, Note_on_c, 13, 55, 44
20, 236399, Note_on_c, 13, 55, 0
20, 236880, Note_on_c, 13, 53, 44
20, 237119, Note_on_c, 13, 53, 0
20, 237600, Note_on_c, 13, 53, 44
20, 237839, Note_on_c, 13, 53, 0
20, 238320, Note_on_c, 13, 52, 44
20, 238559, Note_on_c, 13, 52, 0
20, 239040, Note_on_c, 13, 56, 44
20, 239279, Note_on_c, 13, 56, 0
20, 239760, Note_on_c, 13, 58, 44
20, 239999, Note_on_c, 13, 58, 0
20, 240480, Note_on_c, 13, 60, 44
20, 240719, Note_on_c, 13, 60, 0
20, 241200, Note_on_c, 13, 55, 44
20, 241439, Note_on_c, 13, 55, 0
20, 241920, Note_on_c, 13, 53, 44
20, 242159, Note_on_c, 13, 53, 0
20, 242640, Note_on_c, 13, 60, 44
20, 242879, Note_on_c, 13, 60, 0
20, 243360, Note_on_c, 13, 62, 44
20, 243599, Note_on_c, 13, 62, 0
20, 243840, Program_c, 13, 48
20, 244080, Note_on_c, 13, 65, 44
20, 244080, Note_on_c, 13, 62, 44
20, 244299, Note_on_c, 13, 65, 0
20, 244299, Note_on_c, 13, 62, 0
20, 244320, Note_on_c, 13, 62, 44
20, 244320, Note_on_c, 13, 65, 44
20, 244539, Note_on_c, 13, 62, 0
20, 244539, Note_on_c, 13, 65, 0
20, 244560, Note_on_c, 13, 62, 44
20, 244560, Note_on_c, 13, 65, 44
20, 244779, Note_on_c, 13, 62, 0
20, 244779, Note_on_c, 13, 65, 0
20, 244800, Note_on_c, 13, 60, 44
20, 244800, Note_on_c, 13, 63, 44
20, 245039, Note_on_c, 13, 60, 0
20, 245039, Note_on_c, 13, 63, 0
20, 245520, Note_on_c, 13, 63, 44
20, 245520, Note_on_c, 13, 60, 44
20, 245739, Note_on_c, 13, 63, 0
20, 245739, Note_on_c, 13, 60, 0
20, 245760, Note_on_c, 13, 60, 44
20, 245760, Note_on_c, 13, 63, 44
20, 245979, Note_on_c, 13, 60, 0
20, 245979, Note_on_c, 13, 63, 0
20, 246000, Note_on_c, 13, 60, 44
20, 246000, Note_on_c, 13, 63, 44
20, 246219, Note_on_c, 13, 60, 0
20, 246219, Note_on_c, 13, 63, 0
20, 246240, Note_on_c, 13, 62, 44
20, 246240, Note_on_c, 13, 59, 44
20, 246479, Note_on_c, 13, 62, 0
20, 246479, Note_on_c, 13, 59, 0
20, 246960, Note_on_c, 13, 65, 44
20, 246960, Note_on_c, 13, 62, 44
20, 247179, Note_on_c, 13, 65, 0
20, 247179, Note_on_c, 13, 62, 0
20, 247200, Note_on_c, 13, 65, 44
20, 247200, Note_on_c, 13, 62, 44
20, 247419, Note_on_c, 13, 65, 0
20, 247419, Note_on_c, 13, 62, 0
20, 247440, Note_on_c, 13, 62, 44
20, 247440, Note_on_c, 13, 65, 44
20, 247659, Note_on_c, 13, 62, 0
20, 247659, Note_on_c, 13, 65, 0
20, 247680, Note_on_c, 13, 63, 44
20, 247680, Note_on_c, 13, 60, 44
20, 247919, Note_on_c, 13, 63, 0
20, 247919, Note_on_c, 13, 60, 0
20, 248400, Note_on_c, 13, 63, 44
20, 248400, Note_on_c, 13, 60, 44
20, 248619, Note_on_c, 13, 63, 0
20, 248619, Note_on_c, 13, 60, 0
20, 248640, Note_on_c, 13, 63, 44
20, 248640, Note_on_c, 13, 60, 44
20, 248859, Note_on_c, 13, 63, 0
20, 248859, Note_on_c, 13, 60, 0
20, 248880, Note_on_c, 13, 63, 44
20, 248880, Note_on_c, 13, 60, 44
20, 249099, Note_on_c, 13, 63, 0
20, 249099, Note_on_c, 13, 60, 0
20, 249120, Note_on_c, 13, 62, 44
20, 249120, Note_on_c, 13, 59, 44
20, 249359, Note_on_c, 13, 62, 0
20, 249359, Note_on_c, 13, 59, 0
20, 249840, Note_on_c, 13, 62, 44
20, 249840, Note_on_c, 13, 59, 44
20, 250059, Note_on_c, 13, 62, 0
20, 250059, Note_on_c, 13, 59, 0
20, 250080, Note_on_c, 13, 62, 44
20, 250080, Note_on_c, 13, 59, 44
20, 250299, Note_on_c, 13, 62, 0
20, 250299, Note_on_c, 13, 59, 0
20, 250320, Note_on_c, 13, 59, 44
20, 250320, Note_on_c, 13, 62, 44
20, 250539, Note_on_c, 13, 59, 0
20, 250539, Note_on_c, 13, 62, 0
20, 250560, Note_on_c, 13, 59, 44
20, 250560, Note_on_c, 13, 62, 44
20, 250799, Note_on_c, 13, 59, 0
20, 250799, Note_on_c, 13, 62, 0
20, 251280, Note_on_c, 13, 59, 44
20, 251280, Note_on_c, 13, 62, 44
20, 251499, Note_on_c, 13, 59, 0
20, 251499, Note_on_c, 13, 62, 0
20, 251520, Note_on_c, 13, 62, 44
20, 251520, Note_on_c, 13, 59, 44
20, 251739, Note_on_c, 13, 62, 0
20, 251739, Note_on_c, 13, 59, 0
20, 251760, Note_on_c, 13, 59, 44
20, 251760, Note_on_c, 13, 62, 44
20, 251979, Note_on_c, 13, 59, 0
20, 251979, Note_on_c, 13, 62, 0
20, 252000, Note_on_c, 13, 59, 44
20, 252000, Note_on_c, 13, 62, 44
20, 252239, Note_on_c, 13, 59, 0
20, 252239, Note_on_c, 13, 62, 0
20, 252720, Note_on_c, 13, 59, 44
20, 252720, Note_on_c, 13, 62, 44
20, 252939, Note_on_c, 13, 59, 0
20, 252939, Note_on_c, 13, 62, 0
20, 252960, Note_on_c, 13, 62, 44
20, 252960, Note_on_c, 13, 59, 44
20, 253179, Note_on_c, 13, 62, 0
20, 253179, Note_on_c, 13, 59, 0
20, 253200, Note_on_c, 13, 62, 44
20, 253200, Note_on_c, 13, 59, 44
20, 253419, Note_on_c, 13, 62, 0
20, 253419, Note_on_c, 13, 59, 0
20, 253440, Note_on_c, 13, 59, 44
20, 253440, Note_on_c, 13, 62, 44
20, 253679, Note_on_c, 13, 59, 0
20, 253679, Note_on_c, 13, 62, 0
20, 254160, Note_on_c, 13, 62, 44
20, 254160, Note_on_c, 13, 59, 44
20, 254379, Note_on_c, 13, 62, 0
20, 254379, Note_on_c, 13, 59, 0
20, 254400, Note_on_c, 13, 62, 44
20, 254400, Note_on_c, 13, 59, 44
20, 254619, Note_on_c, 13, 62, 0
20, 254619, Note_on_c, 13, 59, 0
20, 254640, Note_on_c, 13, 59, 44
20, 254640, Note_on_c, 13, 62, 44
20, 254859, Note_on_c, 13, 59, 0
20, 254859, Note_on_c, 13, 62, 0
20, 254880, Note_on_c, 13, 62, 44
20, 254880, Note_on_c, 13, 59, 44
20, 255119, Note_on_c, 13, 62, 0
20, 255119, Note_on_c, 13, 59, 0
20, 255600, Note_on_c, 13, 62, 44
20, 255600, Note_on_c, 13, 59, 44
20, 255819, Note_on_c, 13, 62, 0
20, 255819, Note_on_c, 13, 59, 0
20, 255840, Note_on_c, 13, 59, 44
20, 255840, Note_on_c, 13, 62, 44
20, 256059, Note_on_c, 13, 59, 0
20, 256059, Note_on_c, 13, 62, 0
20, 256080, Note_on_c, 13, 62, 44
20, 256080, Note_on_c, 13, 59, 44
20, 256299, Note_on_c, 13, 62, 0
20, 256299, Note_on_c, 13, 59, 0
20, 256320, Note_on_c, 13, 62, 44
20, 256320, Note_on_c, 13, 59, 44
20, 256559, Note_on_c, 13, 62, 0
20, 256559, Note_on_c, 13, 59, 0
20, 257040, Note_on_c, 13, 62, 44
20, 257040, Note_on_c, 13, 59, 44
20, 257259, Note_on_c, 13, 62, 0
20, 257259, Note_on_c, 13, 59, 0
20, 257280, Note_on_c, 13, 59, 44
20, 257280, Note_on_c, 13, 62, 44
20, 257499, Note_on_c, 13, 59, 0
20, 257499, Note_on_c, 13, 62, 0
20, 257520, Note_on_c, 13, 62, 44
20, 257520, Note_on_c, 13, 59, 44
20, 257739, Note_on_c, 13, 62, 0
20, 257739, Note_on_c, 13, 59, 0
20, 257760, Note_on_c, 13, 62, 44
20, 257760, Note_on_c, 13, 59, 44
20, 257999, Note_on_c, 13, 62, 0
20, 257999, Note_on_c, 13, 59, 0
20, 258480, Note_on_c, 13, 59, 44
20, 258480, Note_on_c, 13, 62, 44
20, 258699, Note_on_c, 13, 59, 0
20, 258699, Note_on_c, 13, 62, 0
20, 258720, Note_on_c, 13, 62, 44
20, 258720, Note_on_c, 13, 59, 44
20, 258939, Note_on_c, 13, 62, 0
20, 258939, Note_on_c, 13, 59, 0
20, 258960, Note_on_c, 13, 62, 44
20, 258960, Note_on_c, 13, 59, 44
20, 259179, Note_on_c, 13, 62, 0
20, 259179, Note_on_c, 13, 59, 0
20, 259200, Note_on_c, 13, 59, 44
20, 259200, Note_on_c, 13, 62, 44
20, 259439, Note_on_c, 13, 59, 0
20, 259439, Note_on_c, 13, 62, 0
20, 259920, Note_on_c, 13, 59, 44
20, 259920, Note_on_c, 13, 62, 44
20, 260139, Note_on_c, 13, 59, 0
20, 260139, Note_on_c, 13, 62, 0
20, 260160, Note_on_c, 13, 62, 44
20, 260160, Note_on_c, 13, 59, 44
20, 260379, Note_on_c, 13, 62, 0
20, 260379, Note_on_c, 13, 59, 0
20, 260400, Note_on_c, 13, 62, 44
20, 260400, Note_on_c, 13, 59, 44
20, 260619, Note_on_c, 13, 62, 0
20, 260619, Note_on_c, 13, 59, 0
20, 260640, Note_on_c, 13, 62, 44
20, 260640, Note_on_c, 13, 59, 44
20, 260859, Note_on_c, 13, 62, 0
20, 260859, Note_on_c, 13, 59, 0
20, 260880, Note_on_c, 13, 62, 44
20, 260880, Note_on_c, 13, 59, 44
20, 261099, Note_on_c, 13, 62, 0
20, 261099, Note_on_c, 13, 59, 0
20, 261120, Note_on_c, 13, 62, 44
20, 261120, Note_on_c, 13, 59, 44
20, 261339, Note_on_c, 13, 62, 0
20, 261339, Note_on_c, 13, 59, 0
20, 261360, Note_on_c, 13, 59, 44
20, 261360, Note_on_c, 13, 62, 44
20, 261579, Note_on_c, 13, 59, 0
20, 261579, Note_on_c, 13, 62, 0
20, 261600, Note_on_c, 13, 62, 44
20, 261600, Note_on_c, 13, 59, 44
20, 261819, Note_on_c, 13, 62, 0
20, 261819, Note_on_c, 13, 59, 0
20, 261840, Note_on_c, 13, 62, 44
20, 261840, Note_on_c, 13, 59, 44
20, 262059, Note_on_c, 13, 62, 0
20, 262059, Note_on_c, 13, 59, 0
20, 262080, Note_on_c, 13, 62, 44
20, 262080, Note_on_c, 13, 59, 44
20, 262299, Note_on_c, 13, 62, 0
20, 262299, Note_on_c, 13, 59, 0
20, 262320, Note_on_c, 13, 62, 44
20, 262320, Note_on_c, 13, 59, 44
20, 262539, Note_on_c, 13, 62, 0
20, 262539, Note_on_c, 13, 59, 0
20, 262560, Note_on_c, 13, 59, 44
20, 262560, Note_on_c, 13, 62, 44
20, 262779, Note_on_c, 13, 59, 0
20, 262779, Note_on_c, 13, 62, 0
20, 262800, Note_on_c, 13, 62, 44
20, 262800, Note_on_c, 13, 59, 44
20, 263019, Note_on_c, 13, 62, 0
20, 263019, Note_on_c, 13, 59, 0
20, 263040, Note_on_c, 13, 62, 44
20, 263040, Note_on_c, 13, 59, 44
20, 263259, Note_on_c, 13, 62, 0
20, 263259, Note_on_c, 13, 59, 0
20, 263280, Note_on_c, 13, 59, 44
20, 263280, Note_on_c, 13, 62, 44
20, 263499, Note_on_c, 13, 59, 0
20, 263499, Note_on_c, 13, 62, 0
20, 263520, Note_on_c, 13, 59, 44
20, 263520, Note_on_c, 13, 62, 44
20, 263739, Note_on_c, 13, 59, 0
20, 263739, Note_on_c, 13, 62, 0
20, 263760, Note_on_c, 13, 62, 44
20, 263760, Note_on_c, 13, 59, 44
20, 263979, Note_on_c, 13, 62, 0
20, 263979, Note_on_c, 13, 59, 0
20, 264000, Note_on_c, 13, 59, 44
20, 264000, Note_on_c, 13, 62, 44
20, 264219, Note_on_c, 13, 59, 0
20, 264219, Note_on_c, 13, 62, 0
20, 264240, Note_on_c, 13, 62, 44
20, 264240, Note_on_c, 13, 59, 44
20, 264459, Note_on_c, 13, 62, 0
20, 264459, Note_on_c, 13, 59, 0
20, 264480, Note_on_c, 13, 59, 44
20, 264480, Note_on_c, 13, 62, 44
20, 264699, Note_on_c, 13, 59, 0
20, 264699, Note_on_c, 13, 62, 0
20, 264720, Note_on_c, 13, 62, 44
20, 264720, Note_on_c, 13, 59, 44
20, 264939, Note_on_c, 13, 62, 0
20, 264939, Note_on_c, 13, 59, 0
20, 264960, Note_on_c, 13, 59, 44
20, 264960, Note_on_c, 13, 62, 44
20, 265179, Note_on_c, 13, 59, 0
20, 265179, Note_on_c, 13, 62, 0
20, 265200, Note_on_c, 13, 59, 50
20, 265200, Note_on_c, 13, 62, 50
20, 265419, Note_on_c, 13, 59, 0
20, 265419, Note_on_c, 13, 62, 0
20, 265440, Note_on_c, 13, 59, 57
20, 265440, Note_on_c, 13, 62, 57
20, 265659, Note_on_c, 13, 59, 0
20, 265659, Note_on_c, 13, 62, 0
20, 265680, Note_on_c, 13, 62, 64
20, 265680, Note_on_c, 13, 59, 64
20, 265899, Note_on_c, 13, 62, 0
20, 265899, Note_on_c, 13, 59, 0
20, 265920, Note_on_c, 13, 59, 70
20, 265920, Note_on_c, 13, 62, 70
20, 266139, Note_on_c, 13, 59, 0
20, 266139, Note_on_c, 13, 62, 0
20, 266160, Note_on_c, 13, 62, 77
20, 266160, Note_on_c, 13, 59, 77
20, 266379, Note_on_c, 13, 62, 0
20, 266379, Note_on_c, 13, 59, 0
20, 266400, Note_on_c, 13, 48, 84
20, 266400, Note_on_c, 13, 60, 84
20, 266451, Note_on_c, 13, 48, 0
20, 266451, Note_on_c, 13, 60, 0
20, 266460, Note_on_c, 13, 48, 84
20, 266460, Note_on_c, 13, 60, 84
20, 266511, Note_on_c, 13, 48, 0
20, 266511, Note_on_c, 13, 60, 0
20, 266520, Note_on_c, 13, 48, 84
20, 266520, Note_on_c, 13, 60, 84
20, 266571, Note_on_c, 13, 48, 0
20, 266571, Note_on_c, 13, 60, 0
20, 266580, Note_on_c, 13, 48, 84
20, 266580, Note_on_c, 13, 60, 84
20, 266631, Note_on_c, 13, 48, 0
20, 266631, Note_on_c, 13, 60, 0
20, 266640, Note_on_c, 13, 48, 84
20, 266640, Note_on_c, 13, 60, 84
20, 266691, Note_on_c, 13, 48, 0
20, 266691, Note_on_c, 13, 60, 0
20, 266700, Note_on_c, 13, 60, 84
20, 266700, Note_on_c, 13, 48, 84
20, 266751, Note_on_c, 13, 60, 0
20, 266751, Note_on_c, 13, 48, 0
20, 266760, Note_on_c, 13, 60, 84
20, 266760, Note_on_c, 13, 48, 84
20, 266811, Note_on_c, 13, 60, 0
20, 266811, Note_on_c, 13, 48, 0
20, 266820, Note_on_c, 13, 48, 84
20, 266820, Note_on_c, 13, 60, 84
20, 266871, Note_on_c, 13, 48, 0
20, 266871, Note_on_c, 13, 60, 0
20, 266880, Note_on_c, 13, 48, 84
20, 266880, Note_on_c, 13, 60, 84
20, 266931, Note_on_c, 13, 48, 0
20, 266931, Note_on_c, 13, 60, 0
20, 266940, Note_on_c, 13, 48, 84
20, 266940, Note_on_c, 13, 60, 84
20, 266991, Note_on_c, 13, 48, 0
20, 266991, Note_on_c, 13, 60, 0
20, 267000, Note_on_c, 13, 48, 84
20, 267000, Note_on_c, 13, 60, 84
20, 267051, Note_on_c, 13, 48, 0
20, 267051, Note_on_c, 13, 60, 0
20, 267060, Note_on_c, 13, 60, 84
20, 267060, Note_on_c, 13, 48, 84
20, 267111, Note_on_c, 13, 60, 0
20, 267111, Note_on_c, 13, 48, 0
20, 267120, Note_on_c, 13, 60, 84
20, 267120, Note_on_c, 13, 48, 84
20, 267171, Note_on_c, 13, 60, 0
20, 267171, Note_on_c, 13, 48, 0
20, 267180, Note_on_c, 13, 60, 84
20, 267180, Note_on_c, 13, 48, 84
20, 267231, Note_on_c, 13, 60, 0
20, 267231, Note_on_c, 13, 48, 0
20, 267240, Note_on_c, 13, 48, 84
20, 267240, Note_on_c, 13, 60, 84
20, 267291, Note_on_c, 13, 48, 0
20, 267291, Note_on_c, 13, 60, 0
20, 267300, Note_on_c, 13, 48, 84
20, 267300, Note_on_c, 13, 60, 84
20, 267351, Note_on_c, 13, 48, 0
20, 267351, Note_on_c, 13, 60, 0
20, 267360, Note_on_c, 13, 48, 84
20, 267360, Note_on_c, 13, 60, 84
20, 267411, Note_on_c, 13, 48, 0
20, 267411, Note_on_c, 13, 60, 0
20, 267420, Note_on_c, 13, 48, 84
20, 267420, Note_on_c, 13, 60, 84
20, 267471, Note_on_c, 13, 48, 0
20, 267471, Note_on_c, 13, 60, 0
20, 267480, Note_on_c, 13, 48, 84
20, 267480, Note_on_c, 13, 60, 84
20, 267531, Note_on_c, 13, 48, 0
20, 267531, Note_on_c, 13, 60, 0
20, 267540, Note_on_c, 13, 60, 84
20, 267540, Note_on_c, 13, 48, 84
20, 267591, Note_on_c, 13, 60, 0
20, 267591, Note_on_c, 13, 48, 0
20, 267600, Note_on_c, 13, 48, 84
20, 267600, Note_on_c, 13, 60, 84
20, 267651, Note_on_c, 13, 48, 0
20, 267651, Note_on_c, 13, 60, 0
20, 267660, Note_on_c, 13, 60, 84
20, 267660, Note_on_c, 13, 48, 84
20, 267711, Note_on_c, 13, 60, 0
20, 267711, Note_on_c, 13, 48, 0
20, 267720, Note_on_c, 13, 60, 84
20, 267720, Note_on_c, 13, 48, 84
20, 267771, Note_on_c, 13, 60, 0
20, 267771, Note_on_c, 13, 48, 0
20, 267780, Note_on_c, 13, 60, 84
20, 267780, Note_on_c, 13, 48, 84
20, 267831, Note_on_c, 13, 60, 0
20, 267831, Note_on_c, 13, 48, 0
20, 267840, Note_on_c, 13, 48, 84
20, 267840, Note_on_c, 13, 60, 84
20, 267891, Note_on_c, 13, 48, 0
20, 267891, Note_on_c, 13, 60, 0
20, 267900, Note_on_c, 13, 48, 84
20, 267900, Note_on_c, 13, 60, 84
20, 267951, Note_on_c, 13, 48, 0
20, 267951, Note_on_c, 13, 60, 0
20, 267960, Note_on_c, 13, 48, 84
20, 267960, Note_on_c, 13, 60, 84
20, 268011, Note_on_c, 13, 48, 0
20, 268011, Note_on_c, 13, 60, 0
20, 268020, Note_on_c, 13, 48, 84
20, 268020, Note_on_c, 13, 60, 84
20, 268071, Note_on_c, 13, 48, 0
20, 268071, Note_on_c, 13, 60, 0
20, 268080, Note_on_c, 13, 59, 84
20, 268080, Note_on_c, 13, 50, 84
20, 268131, Note_on_c, 13, 59, 0
20, 268131, Note_on_c, 13, 50, 0
20, 268140, Note_on_c, 13, 59, 84
20, 268140, Note_on_c, 13, 50, 84
20, 268191, Note_on_c, 13, 59, 0
20, 268191, Note_on_c, 13, 50, 0
20, 268200, Note_on_c, 13, 50, 84
20, 268200, Note_on_c, 13, 59, 84
20, 268251, Note_on_c, 13, 50, 0
20, 268251, Note_on_c, 13, 59, 0
20, 268260, Note_on_c, 13, 50, 84
20, 268260, Note_on_c, 13, 59, 84
20, 268311, Note_on_c, 13, 50, 0
20, 268311, Note_on_c, 13, 59, 0
20, 268320, Note_on_c, 13, 60, 84
20, 268320, Note_on_c, 13, 48, 84
20, 268371, Note_on_c, 13, 60, 0
20, 268371, Note_on_c, 13, 48, 0
20, 268380, Note_on_c, 13, 60, 84
20, 268380, Note_on_c, 13, 48, 84
20, 268431, Note_on_c, 13, 60, 0
20, 268431, Note_on_c, 13, 48, 0
20, 268440, Note_on_c, 13, 48, 84
20, 268440, Note_on_c, 13, 60, 84
20, 268491, Note_on_c, 13, 48, 0
20, 268491, Note_on_c, 13, 60, 0
20, 268500, Note_on_c, 13, 60, 84
20, 268500, Note_on_c, 13, 48, 84
20, 268551, Note_on_c, 13, 60, 0
20, 268551, Note_on_c, 13, 48, 0
20, 268560, Note_on_c, 13, 50, 84
20, 268560, Note_on_c, 13, 59, 84
20, 268611, Note_on_c, 13, 50, 0
20, 268611, Note_on_c, 13, 59, 0
20, 268620, Note_on_c, 13, 59, 84
20, 268620, Note_on_c, 13, 50, 84
20, 268671, Note_on_c, 13, 59, 0
20, 268671, Note_on_c, 13, 50, 0
20, 268680, Note_on_c, 13, 59, 84
20, 268680, Note_on_c, 13, 50, 84
20, 268731, Note_on_c, 13, 59, 0
20, 268731, Note_on_c, 13, 50, 0
20, 268740, Note_on_c, 13, 50, 84
20, 268740, Note_on_c, 13, 59, 84
20, 268791, Note_on_c, 13, 50, 0
20, 268791, Note_on_c, 13, 59, 0
20, 268800, Note_on_c, 13, 48, 84
20, 268800, Note_on_c, 13, 60, 84
20, 268851, Note_on_c, 13, 48, 0
20, 268851, Note_on_c, 13, 60, 0
20, 268860, Note_on_c, 13, 48, 84
20, 268860, Note_on_c, 13, 60, 84
20, 268911, Note_on_c, 13, 48, 0
20, 268911, Note_on_c, 13, 60, 0
20, 268920, Note_on_c, 13, 48, 84
20, 268920, Note_on_c, 13, 60, 84
20, 268971, Note_on_c, 13, 48, 0
20, 268971, Note_on_c, 13, 60, 0
20, 268980, Note_on_c, 13, 60, 84
20, 268980, Note_on_c, 13, 48, 84
20, 269031, Note_on_c, 13, 60, 0
20, 269031, Note_on_c, 13, 48, 0
20, 269040, Note_on_c, 13, 59, 84
20, 269040, Note_on_c, 13, 50, 84
20, 269091, Note_on_c, 13, 59, 0
20, 269091, Note_on_c, 13, 50, 0
20, 269100, Note_on_c, 13, 59, 84
20, 269100, Note_on_c, 13, 50, 84
20, 269151, Note_on_c, 13, 59, 0
20, 269151, Note_on_c, 13, 50, 0
20, 269160, Note_on_c, 13, 50, 84
20, 269160, Note_on_c, 13, 59, 84
20, 269211, Note_on_c, 13, 50, 0
20, 269211, Note_on_c, 13, 59, 0
20, 269220, Note_on_c, 13, 50, 84
20, 269220, Note_on_c, 13, 59, 84
20, 269271, Note_on_c, 13, 50, 0
20, 269271, Note_on_c, 13, 59, 0
20, 269280, Note_on_c, 13, 52, 84
20, 269280, Note_on_c, 13, 48, 84
20, 269331, Note_on_c, 13, 52, 0
20, 269331, Note_on_c, 13, 48, 0
20, 269340, Note_on_c, 13, 48, 84
20, 269340, Note_on_c, 13, 52, 84
20, 269391, Note_on_c, 13, 48, 0
20, 269391, Note_on_c, 13, 52, 0
20, 269400, Note_on_c, 13, 48, 84
20, 269400, Note_on_c, 13, 52, 84
20, 269451, Note_on_c, 13, 48, 0
20, 269451, Note_on_c, 13, 52, 0
20, 269460, Note_on_c, 13, 52, 84
20, 269460, Note_on_c, 13, 48, 84
20, 269511, Note_on_c, 13, 52, 0
20, 269511, Note_on_c, 13, 48, 0
20, 269520, Note_on_c, 13, 52, 84
20, 269520, Note_on_c, 13, 48, 84
20, 269571, Note_on_c, 13, 52, 0
20, 269571, Note_on_c, 13, 48, 0
20, 269580, Note_on_c, 13, 48, 84
20, 269580, Note_on_c, 13, 52, 84
20, 269631, Note_on_c, 13, 48, 0
20, 269631, Note_on_c, 13, 52, 0
20, 269640, Note_on_c, 13, 52, 84
20, 269640, Note_on_c, 13, 48, 84
20, 269691, Note_on_c, 13, 52, 0
20, 269691, Note_on_c, 13, 48, 0
20, 269700, Note_on_c, 13, 48, 84
20, 269700, Note_on_c, 13, 52, 84
20, 269751, Note_on_c, 13, 48, 0
20, 269751, Note_on_c, 13, 52, 0
20, 269760, Note_on_c, 13, 52, 84
20, 269760, Note_on_c, 13, 48, 84
20, 269811, Note_on_c, 13, 52, 0
20, 269811, Note_on_c, 13, 48, 0
20, 269820, Note_on_c, 13, 52, 84
20, 269820, Note_on_c, 13, 48, 84
20, 269871, Note_on_c, 13, 52, 0
20, 269871, Note_on_c, 13, 48, 0
20, 269880, Note_on_c, 13, 48, 84
20, 269880, Note_on_c, 13, 52, 84
20, 269931, Note_on_c, 13, 48, 0
20, 269931, Note_on_c, 13, 52, 0
20, 269940, Note_on_c, 13, 52, 84
20, 269940, Note_on_c, 13, 48, 84
20, 269991, Note_on_c, 13, 52, 0
20, 269991, Note_on_c, 13, 48, 0
20, 270000, Note_on_c, 13, 48, 84
20, 270000, Note_on_c, 13, 52, 84
20, 270051, Note_on_c, 13, 48, 0
20, 270051, Note_on_c, 13, 52, 0
20, 270060, Note_on_c, 13, 48, 84
20, 270060, Note_on_c, 13, 52, 84
20, 270111, Note_on_c, 13, 48, 0
20, 270111, Note_on_c, 13, 52, 0
20, 270120, Note_on_c, 13, 48, 84
20, 270120, Note_on_c, 13, 52, 84
20, 270171, Note_on_c, 13, 48, 0
20, 270171, Note_on_c, 13, 52, 0
20, 270180, Note_on_c, 13, 52, 84
20, 270180, Note_on_c, 13, 48, 84
20, 270231, Note_on_c, 13, 52, 0
20, 270231, Note_on_c, 13, 48, 0
20, 270240, Note_on_c, 13, 50, 84
20, 270240, Note_on_c, 13, 55, 84
20, 270291, Note_on_c, 13, 50, 0
20, 270291, Note_on_c, 13, 55, 0
20, 270300, Note_on_c, 13, 55, 84
20, 270300, Note_on_c, 13, 50, 84
20, 270351, Note_on_c, 13, 55, 0
20, 270351, Note_on_c, 13, 50, 0
20, 270360, Note_on_c, 13, 50, 84
20, 270360, Note_on_c, 13, 55, 84
20, 270411, Note_on_c, 13, 50, 0
20, 270411, Note_on_c, 13, 55, 0
20, 270420, Note_on_c, 13, 50, 84
20, 270420, Note_on_c, 13, 55, 84
20, 270471, Note_on_c, 13, 50, 0
20, 270471, Note_on_c, 13, 55, 0
20, 270480, Note_on_c, 13, 50, 84
20, 270480, Note_on_c, 13, 55, 84
20, 270531, Note_on_c, 13, 50, 0
20, 270531, Note_on_c, 13, 55, 0
20, 270540, Note_on_c, 13, 55, 84
20, 270540, Note_on_c, 13, 50, 84
20, 270591, Note_on_c, 13, 55, 0
20, 270591, Note_on_c, 13, 50, 0
20, 270600, Note_on_c, 13, 55, 84
20, 270600, Note_on_c, 13, 50, 84
20, 270651, Note_on_c, 13, 55, 0
20, 270651, Note_on_c, 13, 50, 0
20, 270660, Note_on_c, 13, 55, 84
20, 270660, Note_on_c, 13, 50, 84
20, 270711, Note_on_c, 13, 55, 0
20, 270711, Note_on_c, 13, 50, 0
20, 270720, Note_on_c, 13, 50, 84
20, 270720, Note_on_c, 13, 55, 84
20, 270771, Note_on_c, 13, 50, 0
20, 270771, Note_on_c, 13, 55, 0
20, 270780, Note_on_c, 13, 55, 84
20, 270780, Note_on_c, 13, 50, 84
20, 270831, Note_on_c, 13, 55, 0
20, 270831, Note_on_c, 13, 50, 0
20, 270840, Note_on_c, 13, 50, 84
20, 270840, Note_on_c, 13, 55, 84
20, 270891, Note_on_c, 13, 50, 0
20, 270891, Note_on_c, 13, 55, 0
20, 270900, Note_on_c, 13, 50, 84
20, 270900, Note_on_c, 13, 55, 84
20, 270951, Note_on_c, 13, 50, 0
20, 270951, Note_on_c, 13, 55, 0
20, 270960, Note_on_c, 13, 55, 84
20, 270960, Note_on_c, 13, 50, 84
20, 271011, Note_on_c, 13, 55, 0
20, 271011, Note_on_c, 13, 50, 0
20, 271020, Note_on_c, 13, 50, 84
20, 271020, Note_on_c, 13, 55, 84
20, 271071, Note_on_c, 13, 50, 0
20, 271071, Note_on_c, 13, 55, 0
20, 271080, Note_on_c, 13, 55, 84
20, 271080, Note_on_c, 13, 50, 84
20, 271131, Note_on_c, 13, 55, 0
20, 271131, Note_on_c, 13, 50, 0
20, 271140, Note_on_c, 13, 50, 84
20, 271140, Note_on_c, 13, 55, 84
20, 271191, Note_on_c, 13, 50, 0
20, 271191, Note_on_c, 13, 55, 0
20, 271200, Note_on_c, 13, 52, 84
20, 271200, Note_on_c, 13, 55, 84
20, 271251, Note_on_c, 13, 52, 0
20, 271251, Note_on_c, 13, 55, 0
20, 271260, Note_on_c, 13, 52, 84
20, 271260, Note_on_c, 13, 55, 84
20, 271311, Note_on_c, 13, 52, 0
20, 271311, Note_on_c, 13, 55, 0
20, 271320, Note_on_c, 13, 52, 84
20, 271320, Note_on_c, 13, 55, 84
20, 271371, Note_on_c, 13, 52, 0
20, 271371, Note_on_c, 13, 55, 0
20, 271380, Note_on_c, 13, 55, 84
20, 271380, Note_on_c, 13, 52, 84
20, 271431, Note_on_c, 13, 55, 0
20, 271431, Note_on_c, 13, 52, 0
20, 271440, Note_on_c, 13, 55, 84
20, 271440, Note_on_c, 13, 52, 84
20, 271491, Note_on_c, 13, 55, 0
20, 271491, Note_on_c, 13, 52, 0
20, 271500, Note_on_c, 13, 55, 84
20, 271500, Note_on_c, 13, 52, 84
20, 271551, Note_on_c, 13, 55, 0
20, 271551, Note_on_c, 13, 52, 0
20, 271560, Note_on_c, 13, 55, 84
20, 271560, Note_on_c, 13, 52, 84
20, 271611, Note_on_c, 13, 55, 0
20, 271611, Note_on_c, 13, 52, 0
20, 271620, Note_on_c, 13, 52, 84
20, 271620, Note_on_c, 13, 55, 84
20, 271671, Note_on_c, 13, 52, 0
20, 271671, Note_on_c, 13, 55, 0
20, 271680, Note_on_c, 13, 52, 84
20, 271680, Note_on_c, 13, 55, 84
20, 271731, Note_on_c, 13, 52, 0
20, 271731, Note_on_c, 13, 55, 0
20, 271740, Note_on_c, 13, 55, 84
20, 271740, Note_on_c, 13, 52, 84
20, 271791, Note_on_c, 13, 55, 0
20, 271791, Note_on_c, 13, 52, 0
20, 271800, Note_on_c, 13, 55, 84
20, 271800, Note_on_c, 13, 52, 84
20, 271851, Note_on_c, 13, 55, 0
20, 271851, Note_on_c, 13, 52, 0
20, 271860, Note_on_c, 13, 55, 84
20, 271860, Note_on_c, 13, 52, 84
20, 271911, Note_on_c, 13, 55, 0
20, 271911, Note_on_c, 13, 52, 0
20, 271920, Note_on_c, 13, 55, 84
20, 271920, Note_on_c, 13, 52, 84
20, 271971, Note_on_c, 13, 55, 0
20, 271971, Note_on_c, 13, 52, 0
20, 271980, Note_on_c, 13, 52, 84
20, 271980, Note_on_c, 13, 55, 84
20, 272031, Note_on_c, 13, 52, 0
20, 272031, Note_on_c, 13, 55, 0
20, 272040, Note_on_c, 13, 52, 84
20, 272040, Note_on_c, 13, 55, 84
20, 272091, Note_on_c, 13, 52, 0
20, 272091, Note_on_c, 13, 55, 0
20, 272100, Note_on_c, 13, 55, 84
20, 272100, Note_on_c, 13, 52, 84
20, 272151, Note_on_c, 13, 55, 0
20, 272151, Note_on_c, 13, 52, 0
20, 272160, Note_on_c, 13, 57, 84
20, 272160, Note_on_c, 13, 53, 84
20, 272211, Note_on_c, 13, 57, 0
20, 272211, Note_on_c, 13, 53, 0
20, 272220, Note_on_c, 13, 57, 84
20, 272220, Note_on_c, 13, 53, 84
20, 272271, Note_on_c, 13, 57, 0
20, 272271, Note_on_c, 13, 53, 0
20, 272280, Note_on_c, 13, 53, 84
20, 272280, Note_on_c, 13, 57, 84
20, 272331, Note_on_c, 13, 53, 0
20, 272331, Note_on_c, 13, 57, 0
20, 272340, Note_on_c, 13, 53, 84
20, 272340, Note_on_c, 13, 57, 84
20, 272391, Note_on_c, 13, 53, 0
20, 272391, Note_on_c, 13, 57, 0
20, 272400, Note_on_c, 13, 53, 84
20, 272400, Note_on_c, 13, 57, 84
20, 272451, Note_on_c, 13, 53, 0
20, 272451, Note_on_c, 13, 57, 0
20, 272460, Note_on_c, 13, 57, 84
20, 272460, Note_on_c, 13, 53, 84
20, 272511, Note_on_c, 13, 57, 0
20, 272511, Note_on_c, 13, 53, 0
20, 272520, Note_on_c, 13, 57, 84
20, 272520, Note_on_c, 13, 53, 84
20, 272571, Note_on_c, 13, 57, 0
20, 272571, Note_on_c, 13, 53, 0
20, 272580, Note_on_c, 13, 57, 84
20, 272580, Note_on_c, 13, 53, 84
20, 272631, Note_on_c, 13, 57, 0
20, 272631, Note_on_c, 13, 53, 0
20, 272640, Note_on_c, 13, 53, 84
20, 272640, Note_on_c, 13, 57, 84
20, 272691, Note_on_c, 13, 53, 0
20, 272691, Note_on_c, 13, 57, 0
20, 272700, Note_on_c, 13, 53, 84
20, 272700, Note_on_c, 13, 57, 84
20, 272751, Note_on_c, 13, 53, 0
20, 272751, Note_on_c, 13, 57, 0
20, 272760, Note_on_c, 13, 53, 84
20, 272760, Note_on_c, 13, 57, 84
20, 272811, Note_on_c, 13, 53, 0
20, 272811, Note_on_c, 13, 57, 0
20, 272820, Note_on_c, 13, 53, 84
20, 272820, Note_on_c, 13, 57, 84
20, 272871, Note_on_c, 13, 53, 0
20, 272871, Note_on_c, 13, 57, 0
20, 272880, Note_on_c, 13, 53, 84
20, 272880, Note_on_c, 13, 57, 84
20, 272931, Note_on_c, 13, 53, 0
20, 272931, Note_on_c, 13, 57, 0
20, 272940, Note_on_c, 13, 57, 84
20, 272940, Note_on_c, 13, 53, 84
20, 272991, Note_on_c, 13, 57, 0
20, 272991, Note_on_c, 13, 53, 0
20, 273000, Note_on_c, 13, 57, 84
20, 273000, Note_on_c, 13, 53, 84
20, 273051, Note_on_c, 13, 57, 0
20, 273051, Note_on_c, 13, 53, 0
20, 273060, Note_on_c, 13, 53, 84
20, 273060, Note_on_c, 13, 57, 84
20, 273111, Note_on_c, 13, 53, 0
20, 273111, Note_on_c, 13, 57, 0
20, 273120, Note_on_c, 13, 52, 84
20, 273120, Note_on_c, 13, 55, 84
20, 273171, Note_on_c, 13, 52, 0
20, 273171, Note_on_c, 13, 55, 0
20, 273180, Note_on_c, 13, 55, 84
20, 273180, Note_on_c, 13, 52, 84
20, 273231, Note_on_c, 13, 55, 0
20, 273231, Note_on_c, 13, 52, 0
20, 273240, Note_on_c, 13, 52, 84
20, 273240, Note_on_c, 13, 55, 84
20, 273291, Note_on_c, 13, 52, 0
20, 273291, Note_on_c, 13, 55, 0
20, 273300, Note_on_c, 13, 55, 84
20, 273300, Note_on_c, 13, 52, 84
20, 273351, Note_on_c, 13, 55, 0
20, 273351, Note_on_c, 13, 52, 0
20, 273360, Note_on_c, 13, 55, 84
20, 273360, Note_on_c, 13, 52, 84
20, 273411, Note_on_c, 13, 55, 0
20, 273411, Note_on_c, 13, 52, 0
20, 273420, Note_on_c, 13, 52, 84
20, 273420, Note_on_c, 13, 55, 84
20, 273471, Note_on_c, 13, 52, 0
20, 273471, Note_on_c, 13, 55, 0
20, 273480, Note_on_c, 13, 55, 84
20, 273480, Note_on_c, 13, 52, 84
20, 273531, Note_on_c, 13, 55, 0
20, 273531, Note_on_c, 13, 52, 0
20, 273540, Note_on_c, 13, 55, 84
20, 273540, Note_on_c, 13, 52, 84
20, 273591, Note_on_c, 13, 55, 0
20, 273591, Note_on_c, 13, 52, 0
20, 273600, Note_on_c, 13, 55, 84
20, 273600, Note_on_c, 13, 52, 84
20, 273651, Note_on_c, 13, 55, 0
20, 273651, Note_on_c, 13, 52, 0
20, 273660, Note_on_c, 13, 52, 84
20, 273660, Note_on_c, 13, 55, 84
20, 273711, Note_on_c, 13, 52, 0
20, 273711, Note_on_c, 13, 55, 0
20, 273720, Note_on_c, 13, 52, 84
20, 273720, Note_on_c, 13, 55, 84
20, 273771, Note_on_c, 13, 52, 0
20, 273771, Note_on_c, 13, 55, 0
20, 273780, Note_on_c, 13, 52, 84
20, 273780, Note_on_c, 13, 55, 84
20, 273831, Note_on_c, 13, 52, 0
20, 273831, Note_on_c, 13, 55, 0
20, 273840, Note_on_c, 13, 55, 84
20, 273840, Note_on_c, 13, 52, 84
20, 273891, Note_on_c, 13, 55, 0
20, 273891, Note_on_c, 13, 52, 0
20, 273900, Note_on_c, 13, 55, 84
20, 273900, Note_on_c, 13, 52, 84
20, 273951, Note_on_c, 13, 55, 0
20, 273951, Note_on_c, 13, 52, 0
20, 273960, Note_on_c, 13, 55, 84
20, 273960, Note_on_c, 13, 52, 84
20, 274011, Note_on_c, 13, 55, 0
20, 274011, Note_on_c, 13, 52, 0
20, 274020, Note_on_c, 13, 52, 84
20, 274020, Note_on_c, 13, 55, 84
20, 274071, Note_on_c, 13, 52, 0
20, 274071, Note_on_c, 13, 55, 0
20, 274080, Note_on_c, 13, 53, 84
20, 274080, Note_on_c, 13, 57, 84
20, 274131, Note_on_c, 13, 53, 0
20, 274131, Note_on_c, 13, 57, 0
20, 274140, Note_on_c, 13, 53, 84
20, 274140, Note_on_c, 13, 57, 84
20, 274191, Note_on_c, 13, 53, 0
20, 274191, Note_on_c, 13, 57, 0
20, 274200, Note_on_c, 13, 57, 84
20, 274200, Note_on_c, 13, 53, 84
20, 274251, Note_on_c, 13, 57, 0
20, 274251, Note_on_c, 13, 53, 0
20, 274260, Note_on_c, 13, 57, 84
20, 274260, Note_on_c, 13, 53, 84
20, 274311, Note_on_c, 13, 57, 0
20, 274311, Note_on_c, 13, 53, 0
20, 274320, Note_on_c, 13, 57, 84
20, 274320, Note_on_c, 13, 53, 84
20, 274371, Note_on_c, 13, 57, 0
20, 274371, Note_on_c, 13, 53, 0
20, 274380, Note_on_c, 13, 53, 84
20, 274380, Note_on_c, 13, 57, 84
20, 274431, Note_on_c, 13, 53, 0
20, 274431, Note_on_c, 13, 57, 0
20, 274440, Note_on_c, 13, 53, 84
20, 274440, Note_on_c, 13, 57, 84
20, 274491, Note_on_c, 13, 53, 0
20, 274491, Note_on_c, 13, 57, 0
20, 274500, Note_on_c, 13, 53, 84
20, 274500, Note_on_c, 13, 57, 84
20, 274551, Note_on_c, 13, 53, 0
20, 274551, Note_on_c, 13, 57, 0
20, 274560, Note_on_c, 13, 53, 84
20, 274560, Note_on_c, 13, 57, 84
20, 274611, Note_on_c, 13, 53, 0
20, 274611, Note_on_c, 13, 57, 0
20, 274620, Note_on_c, 13, 53, 84
20, 274620, Note_on_c, 13, 57, 84
20, 274671, Note_on_c, 13, 53, 0
20, 274671, Note_on_c, 13, 57, 0
20, 274680, Note_on_c, 13, 53, 84
20, 274680, Note_on_c, 13, 57, 84
20, 274731, Note_on_c, 13, 53, 0
20, 274731, Note_on_c, 13, 57, 0
20, 274740, Note_on_c, 13, 57, 84
20, 274740, Note_on_c, 13, 53, 84
20, 274791, Note_on_c, 13, 57, 0
20, 274791, Note_on_c, 13, 53, 0
20, 274800, Note_on_c, 13, 57, 84
20, 274800, Note_on_c, 13, 53, 84
20, 274851, Note_on_c, 13, 57, 0
20, 274851, Note_on_c, 13, 53, 0
20, 274860, Note_on_c, 13, 57, 84
20, 274860, Note_on_c, 13, 53, 84
20, 274911, Note_on_c, 13, 57, 0
20, 274911, Note_on_c, 13, 53, 0
20, 274920, Note_on_c, 13, 57, 84
20, 274920, Note_on_c, 13, 53, 84
20, 274971, Note_on_c, 13, 57, 0
20, 274971, Note_on_c, 13, 53, 0
20, 274980, Note_on_c, 13, 57, 84
20, 274980, Note_on_c, 13, 53, 84
20, 275031, Note_on_c, 13, 57, 0
20, 275031, Note_on_c, 13, 53, 0
20, 275040, Note_on_c, 13, 52, 84
20, 275040, Note_on_c, 13, 55, 84
20, 275091, Note_on_c, 13, 52, 0
20, 275091, Note_on_c, 13, 55, 0
20, 275100, Note_on_c, 13, 55, 84
20, 275100, Note_on_c, 13, 52, 84
20, 275151, Note_on_c, 13, 55, 0
20, 275151, Note_on_c, 13, 52, 0
20, 275160, Note_on_c, 13, 55, 84
20, 275160, Note_on_c, 13, 52, 84
20, 275211, Note_on_c, 13, 55, 0
20, 275211, Note_on_c, 13, 52, 0
20, 275220, Note_on_c, 13, 52, 84
20, 275220, Note_on_c, 13, 55, 84
20, 275271, Note_on_c, 13, 52, 0
20, 275271, Note_on_c, 13, 55, 0
20, 275280, Note_on_c, 13, 52, 84
20, 275280, Note_on_c, 13, 55, 84
20, 275331, Note_on_c, 13, 52, 0
20, 275331, Note_on_c, 13, 55, 0
20, 275340, Note_on_c, 13, 52, 84
20, 275340, Note_on_c, 13, 55, 84
20, 275391, Note_on_c, 13, 52, 0
20, 275391, Note_on_c, 13, 55, 0
20, 275400, Note_on_c, 13, 55, 84
20, 275400, Note_on_c, 13, 52, 84
20, 275451, Note_on_c, 13, 55, 0
20, 275451, Note_on_c, 13, 52, 0
20, 275460, Note_on_c, 13, 52, 84
20, 275460, Note_on_c, 13, 55, 84
20, 275511, Note_on_c, 13, 52, 0
20, 275511, Note_on_c, 13, 55, 0
20, 275520, Note_on_c, 13, 52, 84
20, 275520, Note_on_c, 13, 55, 84
20, 275571, Note_on_c, 13, 52, 0
20, 275571, Note_on_c, 13, 55, 0
20, 275580, Note_on_c, 13, 52, 84
20, 275580, Note_on_c, 13, 55, 84
20, 275631, Note_on_c, 13, 52, 0
20, 275631, Note_on_c, 13, 55, 0
20, 275640, Note_on_c, 13, 55, 84
20, 275640, Note_on_c, 13, 52, 84
20, 275691, Note_on_c, 13, 55, 0
20, 275691, Note_on_c, 13, 52, 0
20, 275700, Note_on_c, 13, 55, 84
20, 275700, Note_on_c, 13, 52, 84
20, 275751, Note_on_c, 13, 55, 0
20, 275751, Note_on_c, 13, 52, 0
20, 275760, Note_on_c, 13, 55, 84
20, 275760, Note_on_c, 13, 52, 84
20, 275811, Note_on_c, 13, 55, 0
20, 275811, Note_on_c, 13, 52, 0
20, 275820, Note_on_c, 13, 52, 84
20, 275820, Note_on_c, 13, 55, 84
20, 275871, Note_on_c, 13, 52, 0
20, 275871, Note_on_c, 13, 55, 0
20, 275880, Note_on_c, 13, 55, 84
20, 275880, Note_on_c, 13, 52, 84
20, 275931, Note_on_c, 13, 55, 0
20, 275931, Note_on_c, 13, 52, 0
20, 275940, Note_on_c, 13, 52, 84
20, 275940, Note_on_c, 13, 55, 84
20, 275991, Note_on_c, 13, 52, 0
20, 275991, Note_on_c, 13, 55, 0
20, 276000, Note_on_c, 13, 53, 84
20, 276000, Note_on_c, 13, 57, 84
20, 276051, Note_on_c, 13, 53, 0
20, 276051, Note_on_c, 13, 57, 0
20, 276060, Note_on_c, 13, 57, 84
20, 276060, Note_on_c, 13, 53, 84
20, 276111, Note_on_c, 13, 57, 0
20, 276111, Note_on_c, 13, 53, 0
20, 276120, Note_on_c, 13, 57, 84
20, 276120, Note_on_c, 13, 53, 84
20, 276171, Note_on_c, 13, 57, 0
20, 276171, Note_on_c, 13, 53, 0
20, 276180, Note_on_c, 13, 53, 84
20, 276180, Note_on_c, 13, 57, 84
20, 276231, Note_on_c, 13, 53, 0
20, 276231, Note_on_c, 13, 57, 0
20, 276240, Note_on_c, 13, 53, 84
20, 276240, Note_on_c, 13, 57, 84
20, 276291, Note_on_c, 13, 53, 0
20, 276291, Note_on_c, 13, 57, 0
20, 276300, Note_on_c, 13, 57, 84
20, 276300, Note_on_c, 13, 53, 84
20, 276351, Note_on_c, 13, 57, 0
20, 276351, Note_on_c, 13, 53, 0
20, 276360, Note_on_c, 13, 53, 84
20, 276360, Note_on_c, 13, 57, 84
20, 276411, Note_on_c, 13, 53, 0
20, 276411, Note_on_c, 13, 57, 0
20, 276420, Note_on_c, 13, 57, 84
20, 276420, Note_on_c, 13, 53, 84
20, 276471, Note_on_c, 13, 57, 0
20, 276471, Note_on_c, 13, 53, 0
20, 276480, Note_on_c, 13, 57, 84
20, 276480, Note_on_c, 13, 53, 84
20, 276531, Note_on_c, 13, 57, 0
20, 276531, Note_on_c, 13, 53, 0
20, 276540, Note_on_c, 13, 57, 84
20, 276540, Note_on_c, 13, 53, 84
20, 276591, Note_on_c, 13, 57, 0
20, 276591, Note_on_c, 13, 53, 0
20, 276600, Note_on_c, 13, 57, 84
20, 276600, Note_on_c, 13, 53, 84
20, 276651, Note_on_c, 13, 57, 0
20, 276651, Note_on_c, 13, 53, 0
20, 276660, Note_on_c, 13, 57, 84
20, 276660, Note_on_c, 13, 53, 84
20, 276711, Note_on_c, 13, 57, 0
20, 276711, Note_on_c, 13, 53, 0
20, 276720, Note_on_c, 13, 53, 84
20, 276720, Note_on_c, 13, 57, 84
20, 276771, Note_on_c, 13, 53, 0
20, 276771, Note_on_c, 13, 57, 0
20, 276780, Note_on_c, 13, 53, 84
20, 276780, Note_on_c, 13, 57, 84
20, 276831, Note_on_c, 13, 53, 0
20, 276831, Note_on_c, 13, 57, 0
20, 276840, Note_on_c, 13, 57, 84
20, 276840, Note_on_c, 13, 53, 84
20, 276891, Note_on_c, 13, 57, 0
20, 276891, Note_on_c, 13, 53, 0
20, 276900, Note_on_c, 13, 57, 84
20, 276900, Note_on_c, 13, 53, 84
20, 276951, Note_on_c, 13, 57, 0
20, 276951, Note_on_c, 13, 53, 0
20, 276960, Note_on_c, 13, 55, 84
20, 276960, Note_on_c, 13, 52, 84
20, 277011, Note_on_c, 13, 55, 0
20, 277011, Note_on_c, 13, 52, 0
20, 277020, Note_on_c, 13, 52, 84
20, 277020, Note_on_c, 13, 55, 84
20, 277071, Note_on_c, 13, 52, 0
20, 277071, Note_on_c, 13, 55, 0
20, 277080, Note_on_c, 13, 52, 84
20, 277080, Note_on_c, 13, 55, 84
20, 277131, Note_on_c, 13, 52, 0
20, 277131, Note_on_c, 13, 55, 0
20, 277140, Note_on_c, 13, 52, 84
20, 277140, Note_on_c, 13, 55, 84
20, 277191, Note_on_c, 13, 52, 0
20, 277191, Note_on_c, 13, 55, 0
20, 277200, Note_on_c, 13, 55, 84
20, 277200, Note_on_c, 13, 52, 84
20, 277251, Note_on_c, 13, 55, 0
20, 277251, Note_on_c, 13, 52, 0
20, 277260, Note_on_c, 13, 52, 84
20, 277260, Note_on_c, 13, 55, 84
20, 277311, Note_on_c, 13, 52, 0
20, 277311, Note_on_c, 13, 55, 0
20, 277320, Note_on_c, 13, 52, 84
20, 277320, Note_on_c, 13, 55, 84
20, 277371, Note_on_c, 13, 52, 0
20, 277371, Note_on_c, 13, 55, 0
20, 277380, Note_on_c, 13, 55, 84
20, 277380, Note_on_c, 13, 52, 84
20, 277431, Note_on_c, 13, 55, 0
20, 277431, Note_on_c, 13, 52, 0
20, 277440, Note_on_c, 13, 55, 84
20, 277440, Note_on_c, 13, 52, 84
20, 277491, Note_on_c, 13, 55, 0
20, 277491, Note_on_c, 13, 52, 0
20, 277500, Note_on_c, 13, 55, 84
20, 277500, Note_on_c, 13, 52, 84
20, 277551, Note_on_c, 13, 55, 0
20, 277551, Note_on_c, 13, 52, 0
20, 277560, Note_on_c, 13, 55, 84
20, 277560, Note_on_c, 13, 52, 84
20, 277611, Note_on_c, 13, 55, 0
20, 277611, Note_on_c, 13, 52, 0
20, 277620, Note_on_c, 13, 55, 84
20, 277620, Note_on_c, 13, 52, 84
20, 277671, Note_on_c, 13, 55, 0
20, 277671, Note_on_c, 13, 52, 0
20, 277680, Note_on_c, 13, 52, 84
20, 277680, Note_on_c, 13, 55, 84
20, 277731, Note_on_c, 13, 52, 0
20, 277731, Note_on_c, 13, 55, 0
20, 277740, Note_on_c, 13, 55, 84
20, 277740, Note_on_c, 13, 52, 84
20, 277791, Note_on_c, 13, 55, 0
20, 277791, Note_on_c, 13, 52, 0
20, 277800, Note_on_c, 13, 55, 84
20, 277800, Note_on_c, 13, 52, 84
20, 277851, Note_on_c, 13, 55, 0
20, 277851, Note_on_c, 13, 52, 0
20, 277860, Note_on_c, 13, 52, 84
20, 277860, Note_on_c, 13, 55, 84
20, 277911, Note_on_c, 13, 52, 0
20, 277911, Note_on_c, 13, 55, 0
20, 277920, Note_on_c, 13, 62, 84
20, 278144, Note_on_c, 13, 62, 0
20, 278160, Note_on_c, 13, 62, 84
20, 278331, Note_on_c, 13, 62, 0
20, 278340, Note_on_c, 13, 62, 84
20, 278391, Note_on_c, 13, 62, 0
20, 278400, Note_on_c, 13, 60, 84
20, 278624, Note_on_c, 13, 60, 0
20, 278640, Note_on_c, 13, 60, 84
20, 278811, Note_on_c, 13, 60, 0
20, 278820, Note_on_c, 13, 60, 84
20, 278871, Note_on_c, 13, 60, 0
20, 278880, Note_on_c, 13, 59, 84
20, 279104, Note_on_c, 13, 59, 0
20, 279120, Note_on_c, 13, 59, 84
20, 279584, Note_on_c, 13, 59, 0
20, 279600, Note_on_c, 13, 60, 84
20, 279771, Note_on_c, 13, 60, 0
20, 279780, Note_on_c, 13, 60, 84
20, 279831, Note_on_c, 13, 60, 0
20, 279840, Note_on_c, 13, 62, 84
20, 280064, Note_on_c, 13, 62, 0
20, 280080, Note_on_c, 13, 62, 84
20, 280251, Note_on_c, 13, 62, 0
20, 280260, Note_on_c, 13, 62, 84
20, 280311, Note_on_c, 13, 62, 0
20, 280320, Note_on_c, 13, 60, 84
20, 280544, Note_on_c, 13, 60, 0
20, 280560, Note_on_c, 13, 60, 84
20, 280731, Note_on_c, 13, 60, 0
20, 280740, Note_on_c, 13, 60, 84
20, 280791, Note_on_c, 13, 60, 0
20, 280800, Note_on_c, 13, 59, 84
20, 281024, Note_on_c, 13, 59, 0
20, 281040, Note_on_c, 13, 59, 84
20, 281504, Note_on_c, 13, 59, 0
20, 281520, Note_on_c, 13, 60, 84
20, 281691, Note_on_c, 13, 60, 0
20, 281700, Note_on_c, 13, 60, 84
20, 281751, Note_on_c, 13, 60, 0
20, 281760, Note_on_c, 13, 62, 84
20, 281931, Note_on_c, 13, 62, 0
20, 281940, Note_on_c, 13, 62, 84
20, 281991, Note_on_c, 13, 62, 0
20, 282000, Note_on_c, 13, 59, 84
20, 282171, Note_on_c, 13, 59, 0
20, 282180, Note_on_c, 13, 59, 84
20, 282231, Note_on_c, 13, 59, 0
20, 282240, Note_on_c, 13, 60, 84
20, 282411, Note_on_c, 13, 60, 0
20, 282420, Note_on_c, 13, 60, 84
20, 282471, Note_on_c, 13, 60, 0
20, 282480, Note_on_c, 13, 60, 84
20, 282651, Note_on_c, 13, 60, 0
20, 282660, Note_on_c, 13, 60, 84
20, 282711, Note_on_c, 13, 60, 0
20, 282720, Note_on_c, 13, 59, 84
20, 282771, Note_on_c, 13, 59, 0
20, 282780, Note_on_c, 13, 59, 84
20, 282831, Note_on_c, 13, 59, 0
20, 282840, Note_on_c, 13, 59, 84
20, 282891, Note_on_c, 13, 59, 0
20, 282900, Note_on_c, 13, 59, 84
20, 282951, Note_on_c, 13, 59, 0
20, 282960, Note_on_c, 13, 59, 84
20, 283011, Note_on_c, 13, 59, 0
20, 283020, Note_on_c, 13, 59, 84
20, 283071, Note_on_c, 13, 59, 0
20, 283080, Note_on_c, 13, 59, 84
20, 283131, Note_on_c, 13, 59, 0
20, 283140, Note_on_c, 13, 59, 84
20, 283191, Note_on_c, 13, 59, 0
20, 283200, Note_on_c, 13, 60, 84
20, 283251, Note_on_c, 13, 60, 0
20, 283260, Note_on_c, 13, 60, 84
20, 283311, Note_on_c, 13, 60, 0
20, 283320, Note_on_c, 13, 60, 84
20, 283371, Note_on_c, 13, 60, 0
20, 283380, Note_on_c, 13, 60, 84
20, 283431, Note_on_c, 13, 60, 0
20, 283440, Note_on_c, 13, 60, 84
20, 283491, Note_on_c, 13, 60, 0
20, 283500, Note_on_c, 13, 60, 84
20, 283551, Note_on_c, 13, 60, 0
20, 283560, Note_on_c, 13, 60, 84
20, 283611, Note_on_c, 13, 60, 0
20, 283620, Note_on_c, 13, 60, 84
20, 283671, Note_on_c, 13, 60, 0
20, 283680, Note_on_c, 13, 59, 84
20, 283731, Note_on_c, 13, 59, 0
20, 283740, Note_on_c, 13, 59, 84
20, 283791, Note_on_c, 13, 59, 0
20, 283800, Note_on_c, 13, 59, 84
20, 283851, Note_on_c, 13, 59, 0
20, 283860, Note_on_c, 13, 59, 84
20, 283911, Note_on_c, 13, 59, 0
20, 283920, Note_on_c, 13, 59, 84
20, 283971, Note_on_c, 13, 59, 0
20, 283980, Note_on_c, 13, 59, 84
20, 284031, Note_on_c, 13, 59, 0
20, 284040, Note_on_c, 13, 59, 84
20, 284091, Note_on_c, 13, 59, 0
20, 284100, Note_on_c, 13, 59, 84
20, 284151, Note_on_c, 13, 59, 0
20, 284160, Note_on_c, 13, 60, 84
20, 284211, Note_on_c, 13, 60, 0
20, 284220, Note_on_c, 13, 60, 84
20, 284271, Note_on_c, 13, 60, 0
20, 284280, Note_on_c, 13, 60, 84
20, 284331, Note_on_c, 13, 60, 0
20, 284340, Note_on_c, 13, 60, 84
20, 284391, Note_on_c, 13, 60, 0
20, 284400, Note_on_c, 13, 60, 84
20, 284451, Note_on_c, 13, 60, 0
20, 284460, Note_on_c, 13, 60, 84
20, 284511, Note_on_c, 13, 60, 0
20, 284520, Note_on_c, 13, 60, 84
20, 284571, Note_on_c, 13, 60, 0
20, 284580, Note_on_c, 13, 60, 84
20, 284631, Note_on_c, 13, 60, 0
20, 284640, Note_on_c, 13, 59, 84
20, 284691, Note_on_c, 13, 59, 0
20, 284700, Note_on_c, 13, 59, 84
20, 284751, Note_on_c, 13, 59, 0
20, 284760, Note_on_c, 13, 60, 84
20, 284811, Note_on_c, 13, 60, 0
20, 284820, Note_on_c, 13, 60, 84
20, 284871, Note_on_c, 13, 60, 0
20, 284880, Note_on_c, 13, 60, 84
20, 284931, Note_on_c, 13, 60, 0
20, 284940, Note_on_c, 13, 60, 84
20, 284991, Note_on_c, 13, 60, 0
20, 285000, Note_on_c, 13, 60, 84
20, 285051, Note_on_c, 13, 60, 0
20, 285060, Note_on_c, 13, 60, 84
20, 285111, Note_on_c, 13, 60, 0
20, 285120, Note_on_c, 13, 59, 84
20, 285171, Note_on_c, 13, 59, 0
20, 285180, Note_on_c, 13, 59, 84
20, 285231, Note_on_c, 13, 59, 0
20, 285240, Note_on_c, 13, 60, 84
20, 285291, Note_on_c, 13, 60, 0
20, 285300, Note_on_c, 13, 60, 84
20, 285351, Note_on_c, 13, 60, 0
20, 285360, Note_on_c, 13, 60, 84
20, 285411, Note_on_c, 13, 60, 0
20, 285420, Note_on_c, 13, 60, 84
20, 285471, Note_on_c, 13, 60, 0
20, 285480, Note_on_c, 13, 60, 84
20, 285531, Note_on_c, 13, 60, 0
20, 285540, Note_on_c, 13, 60, 84
20, 285591, Note_on_c, 13, 60, 0
20, 285600, Note_on_c, 13, 59, 84
20, 285651, Note_on_c, 13, 59, 0
20, 285660, Note_on_c, 13, 59, 84
20, 285711, Note_on_c, 13, 59, 0
20, 285720, Note_on_c, 13, 60, 84
20, 285771, Note_on_c, 13, 60, 0
20, 285780, Note_on_c, 13, 60, 84
20, 285831, Note_on_c, 13, 60, 0
20, 285840, Note_on_c, 13, 60, 84
20, 285891, Note_on_c, 13, 60, 0
20, 285900, Note_on_c, 13, 60, 84
20, 285951, Note_on_c, 13, 60, 0
20, 285960, Note_on_c, 13, 60, 84
20, 286011, Note_on_c, 13, 60, 0
20, 286020, Note_on_c, 13, 60, 84
20, 286071, Note_on_c, 13, 60, 0
20, 286080, Note_on_c, 13, 59, 84
20, 286131, Note_on_c, 13, 59, 0
20, 286140, Note_on_c, 13, 59, 84
20, 286191, Note_on_c, 13, 59, 0
20, 286200, Note_on_c, 13, 60, 84
20, 286251, Note_on_c, 13, 60, 0
20, 286260, Note_on_c, 13, 60, 84
20, 286311, Note_on_c, 13, 60, 0
20, 286320, Note_on_c, 13, 60, 84
20, 286371, Note_on_c, 13, 60, 0
20, 286380, Note_on_c, 13, 60, 84
20, 286431, Note_on_c, 13, 60, 0
20, 286440, Note_on_c, 13, 60, 84
20, 286491, Note_on_c, 13, 60, 0
20, 286500, Note_on_c, 13, 60, 84
20, 286551, Note_on_c, 13, 60, 0
20, 286560, Note_on_c, 13, 59, 84
20, 286649, Note_on_c, 13, 59, 0
20, 286680, Note_on_c, 13, 67, 92
20, 286799, Note_on_c, 13, 67, 0
20, 286800, Note_on_c, 13, 65, 84
20, 286904, Note_on_c, 13, 65, 0
20, 286920, Note_on_c, 13, 64, 84
20, 287009, Note_on_c, 13, 64, 0
20, 287040, Note_on_c, 13, 62, 84
20, 287129, Note_on_c, 13, 62, 0
20, 287160, Note_on_c, 13, 64, 92
20, 287279, Note_on_c, 13, 64, 0
20, 287280, Note_on_c, 13, 62, 84
20, 287384, Note_on_c, 13, 62, 0
20, 287400, Note_on_c, 13, 60, 84
20, 287489, Note_on_c, 13, 60, 0
20, 287520, Note_on_c, 13, 59, 84
20, 287609, Note_on_c, 13, 59, 0
20, 287640, Note_on_c, 13, 64, 92
20, 287759, Note_on_c, 13, 64, 0
20, 287760, Note_on_c, 13, 62, 84
20, 287864, Note_on_c, 13, 62, 0
20, 287880, Note_on_c, 13, 60, 84
20, 287969, Note_on_c, 13, 60, 0
20, 288000, Note_on_c, 13, 59, 84
20, 288089, Note_on_c, 13, 59, 0
20, 288120, Note_on_c, 13, 60, 92
20, 288239, Note_on_c, 13, 60, 0
20, 288240, Note_on_c, 13, 59, 84
20, 288344, Note_on_c, 13, 59, 0
20, 288360, Note_on_c, 13, 57, 84
20, 288449, Note_on_c, 13, 57, 0
20, 288480, Note_on_c, 13, 55, 84
20, 288569, Note_on_c, 13, 55, 0
20, 288600, Note_on_c, 13, 60, 92
20, 288719, Note_on_c, 13, 60, 0
20, 288720, Note_on_c, 13, 59, 84
20, 288824, Note_on_c, 13, 59, 0
20, 288840, Note_on_c, 13, 57, 84
20, 288929, Note_on_c, 13, 57, 0
20, 288960, Note_on_c, 13, 55, 84
20, 289049, Note_on_c, 13, 55, 0
20, 289080, Note_on_c, 13, 60, 92
20, 289199, Note_on_c, 13, 60, 0
20, 289200, Note_on_c, 13, 59, 84
20, 289304, Note_on_c, 13, 59, 0
20, 289320, Note_on_c, 13, 57, 84
20, 289409, Note_on_c, 13, 57, 0
20, 289440, Note_on_c, 13, 55, 84
20, 289529, Note_on_c, 13, 55, 0
20, 289560, Note_on_c, 13, 60, 92
20, 289679, Note_on_c, 13, 60, 0
20, 289680, Note_on_c, 13, 59, 84
20, 289784, Note_on_c, 13, 59, 0
20, 289800, Note_on_c, 13, 57, 84
20, 289889, Note_on_c, 13, 57, 0
20, 289920, Note_on_c, 13, 55, 84
20, 290009, Note_on_c, 13, 55, 0
20, 290040, Note_on_c, 13, 53, 84
20, 290129, Note_on_c, 13, 53, 0
20, 290160, Note_on_c, 13, 52, 84
20, 290249, Note_on_c, 13, 52, 0
20, 290280, Note_on_c, 13, 50, 84
20, 290369, Note_on_c, 13, 50, 0
20, 290400, Note_on_c, 13, 52, 84
20, 290400, Note_on_c, 13, 55, 84
20, 290451, Note_on_c, 13, 52, 0
20, 290451, Note_on_c, 13, 55, 0
20, 290460, Note_on_c, 13, 52, 84
20, 290460, Note_on_c, 13, 55, 84
20, 290511, Note_on_c, 13, 52, 0
20, 290511, Note_on_c, 13, 55, 0
20, 290520, Note_on_c, 13, 55, 84
20, 290520, Note_on_c, 13, 52, 84
20, 290571, Note_on_c, 13, 55, 0
20, 290571, Note_on_c, 13, 52, 0
20, 290580, Note_on_c, 13, 55, 84
20, 290580, Note_on_c, 13, 52, 84
20, 290631, Note_on_c, 13, 55, 0
20, 290631, Note_on_c, 13, 52, 0
20, 290640, Note_on_c, 13, 52, 84
20, 290640, Note_on_c, 13, 55, 84
20, 290691, Note_on_c, 13, 52, 0
20, 290691, Note_on_c, 13, 55, 0
20, 290700, Note_on_c, 13, 55, 84
20, 290700, Note_on_c, 13, 52, 84
20, 290751, Note_on_c, 13, 55, 0
20, 290751, Note_on_c, 13, 52, 0
20, 290760, Note_on_c, 13, 52, 84
20, 290760, Note_on_c, 13, 55, 84
20, 290811, Note_on_c, 13, 52, 0
20, 290811, Note_on_c, 13, 55, 0
20, 290820, Note_on_c, 13, 52, 84
20, 290820, Note_on_c, 13, 55, 84
20, 290871, Note_on_c, 13, 52, 0
20, 290871, Note_on_c, 13, 55, 0
20, 290880, Note_on_c, 13, 52, 84
20, 290880, Note_on_c, 13, 55, 84
20, 290931, Note_on_c, 13, 52, 0
20, 290931, Note_on_c, 13, 55, 0
20, 290940, Note_on_c, 13, 52, 84
20, 290940, Note_on_c, 13, 55, 84
20, 290991, Note_on_c, 13, 52, 0
20, 290991, Note_on_c, 13, 55, 0
20, 291000, Note_on_c, 13, 55, 84
20, 291000, Note_on_c, 13, 52, 84
20, 291051, Note_on_c, 13, 55, 0
20, 291051, Note_on_c, 13, 52, 0
20, 291060, Note_on_c, 13, 55, 84
20, 291060, Note_on_c, 13, 52, 84
20, 291111, Note_on_c, 13, 55, 0
20, 291111, Note_on_c, 13, 52, 0
20, 291120, Note_on_c, 13, 52, 84
20, 291120, Note_on_c, 13, 55, 84
20, 291171, Note_on_c, 13, 52, 0
20, 291171, Note_on_c, 13, 55, 0
20, 291180, Note_on_c, 13, 52, 84
20, 291180, Note_on_c, 13, 55, 84
20, 291231, Note_on_c, 13, 52, 0
20, 291231, Note_on_c, 13, 55, 0
20, 291240, Note_on_c, 13, 52, 84
20, 291240, Note_on_c, 13, 55, 84
20, 291291, Note_on_c, 13, 52, 0
20, 291291, Note_on_c, 13, 55, 0
20, 291300, Note_on_c, 13, 55, 84
20, 291300, Note_on_c, 13, 52, 84
20, 291351, Note_on_c, 13, 55, 0
20, 291351, Note_on_c, 13, 52, 0
20, 291360, Note_on_c, 13, 52, 84
20, 291360, Note_on_c, 13, 55, 84
20, 291411, Note_on_c, 13, 52, 0
20, 291411, Note_on_c, 13, 55, 0
20, 291420, Note_on_c, 13, 55, 84
20, 291420, Note_on_c, 13, 52, 84
20, 291471, Note_on_c, 13, 55, 0
20, 291471, Note_on_c, 13, 52, 0
20, 291480, Note_on_c, 13, 55, 84
20, 291480, Note_on_c, 13, 52, 84
20, 291531, Note_on_c, 13, 55, 0
20, 291531, Note_on_c, 13, 52, 0
20, 291540, Note_on_c, 13, 52, 84
20, 291540, Note_on_c, 13, 55, 84
20, 291591, Note_on_c, 13, 52, 0
20, 291591, Note_on_c, 13, 55, 0
20, 291600, Note_on_c, 13, 52, 84
20, 291600, Note_on_c, 13, 55, 84
20, 291651, Note_on_c, 13, 52, 0
20, 291651, Note_on_c, 13, 55, 0
20, 291660, Note_on_c, 13, 52, 84
20, 291660, Note_on_c, 13, 55, 84
20, 291711, Note_on_c, 13, 52, 0
20, 291711, Note_on_c, 13, 55, 0
20, 291720, Note_on_c, 13, 55, 84
20, 291720, Note_on_c, 13, 52, 84
20, 291771, Note_on_c, 13, 55, 0
20, 291771, Note_on_c, 13, 52, 0
20, 291780, Note_on_c, 13, 52, 84
20, 291780, Note_on_c, 13, 55, 84
20, 291831, Note_on_c, 13, 52, 0
20, 291831, Note_on_c, 13, 55, 0
20, 291840, Note_on_c, 13, 55, 84
20, 291840, Note_on_c, 13, 52, 84
20, 291891, Note_on_c, 13, 55, 0
20, 291891, Note_on_c, 13, 52, 0
20, 291900, Note_on_c, 13, 52, 84
20, 291900, Note_on_c, 13, 55, 84
20, 291951, Note_on_c, 13, 52, 0
20, 291951, Note_on_c, 13, 55, 0
20, 291960, Note_on_c, 13, 55, 84
20, 291960, Note_on_c, 13, 52, 84
20, 292011, Note_on_c, 13, 55, 0
20, 292011, Note_on_c, 13, 52, 0
20, 292020, Note_on_c, 13, 55, 84
20, 292020, Note_on_c, 13, 52, 84
20, 292071, Note_on_c, 13, 55, 0
20, 292071, Note_on_c, 13, 52, 0
20, 292080, Note_on_c, 13, 55, 84
20, 292080, Note_on_c, 13, 52, 84
20, 292131, Note_on_c, 13, 55, 0
20, 292131, Note_on_c, 13, 52, 0
20, 292140, Note_on_c, 13, 55, 84
20, 292140, Note_on_c, 13, 52, 84
20, 292191, Note_on_c, 13, 55, 0
20, 292191, Note_on_c, 13, 52, 0
20, 292200, Note_on_c, 13, 52, 84
20, 292200, Note_on_c, 13, 55, 84
20, 292251, Note_on_c, 13, 52, 0
20, 292251, Note_on_c, 13, 55, 0
20, 292260, Note_on_c, 13, 55, 84
20, 292260, Note_on_c, 13, 52, 84
20, 292311, Note_on_c, 13, 55, 0
20, 292311, Note_on_c, 13, 52, 0
20, 292320, Note_on_c, 13, 55, 84
20, 292320, Note_on_c, 13, 53, 84
20, 292371, Note_on_c, 13, 55, 0
20, 292371, Note_on_c, 13, 53, 0
20, 292380, Note_on_c, 13, 53, 84
20, 292380, Note_on_c, 13, 55, 84
20, 292431, Note_on_c, 13, 53, 0
20, 292431, Note_on_c, 13, 55, 0
20, 292440, Note_on_c, 13, 55, 84
20, 292440, Note_on_c, 13, 53, 84
20, 292491, Note_on_c, 13, 55, 0
20, 292491, Note_on_c, 13, 53, 0
20, 292500, Note_on_c, 13, 55, 84
20, 292500, Note_on_c, 13, 53, 84
20, 292551, Note_on_c, 13, 55, 0
20, 292551, Note_on_c, 13, 53, 0
20, 292560, Note_on_c, 13, 53, 84
20, 292560, Note_on_c, 13, 55, 84
20, 292611, Note_on_c, 13, 53, 0
20, 292611, Note_on_c, 13, 55, 0
20, 292620, Note_on_c, 13, 55, 84
20, 292620, Note_on_c, 13, 53, 84
20, 292671, Note_on_c, 13, 55, 0
20, 292671, Note_on_c, 13, 53, 0
20, 292680, Note_on_c, 13, 53, 84
20, 292680, Note_on_c, 13, 55, 84
20, 292731, Note_on_c, 13, 53, 0
20, 292731, Note_on_c, 13, 55, 0
20, 292740, Note_on_c, 13, 55, 84
20, 292740, Note_on_c, 13, 53, 84
20, 292791, Note_on_c, 13, 55, 0
20, 292791, Note_on_c, 13, 53, 0
20, 292800, Note_on_c, 13, 55, 84
20, 292800, Note_on_c, 13, 53, 84
20, 292851, Note_on_c, 13, 55, 0
20, 292851, Note_on_c, 13, 53, 0
20, 292860, Note_on_c, 13, 53, 84
20, 292860, Note_on_c, 13, 55, 84
20, 292911, Note_on_c, 13, 53, 0
20, 292911, Note_on_c, 13, 55, 0
20, 292920, Note_on_c, 13, 53, 84
20, 292920, Note_on_c, 13, 55, 84
20, 292971, Note_on_c, 13, 53, 0
20, 292971, Note_on_c, 13, 55, 0
20, 292980, Note_on_c, 13, 53, 84
20, 292980, Note_on_c, 13, 55, 84
20, 293031, Note_on_c, 13, 53, 0
20, 293031, Note_on_c, 13, 55, 0
20, 293040, Note_on_c, 13, 53, 84
20, 293040, Note_on_c, 13, 55, 84
20, 293091, Note_on_c, 13, 53, 0
20, 293091, Note_on_c, 13, 55, 0
20, 293100, Note_on_c, 13, 53, 84
20, 293100, Note_on_c, 13, 55, 84
20, 293151, Note_on_c, 13, 53, 0
20, 293151, Note_on_c, 13, 55, 0
20, 293160, Note_on_c, 13, 55, 84
20, 293160, Note_on_c, 13, 53, 84
20, 293211, Note_on_c, 13, 55, 0
20, 293211, Note_on_c, 13, 53, 0
20, 293220, Note_on_c, 13, 55, 84
20, 293220, Note_on_c, 13, 53, 84
20, 293271, Note_on_c, 13, 55, 0
20, 293271, Note_on_c, 13, 53, 0
20, 293280, Note_on_c, 13, 53, 84
20, 293280, Note_on_c, 13, 55, 84
20, 293331, Note_on_c, 13, 53, 0
20, 293331, Note_on_c, 13, 55, 0
20, 293340, Note_on_c, 13, 53, 84
20, 293340, Note_on_c, 13, 55, 84
20, 293391, Note_on_c, 13, 53, 0
20, 293391, Note_on_c, 13, 55, 0
20, 293400, Note_on_c, 13, 55, 84
20, 293400, Note_on_c, 13, 53, 84
20, 293451, Note_on_c, 13, 55, 0
20, 293451, Note_on_c, 13, 53, 0
20, 293460, Note_on_c, 13, 55, 84
20, 293460, Note_on_c, 13, 53, 84
20, 293511, Note_on_c, 13, 55, 0
20, 293511, Note_on_c, 13, 53, 0
20, 293520, Note_on_c, 13, 53, 84
20, 293520, Note_on_c, 13, 55, 84
20, 293571, Note_on_c, 13, 53, 0
20, 293571, Note_on_c, 13, 55, 0
20, 293580, Note_on_c, 13, 55, 84
20, 293580, Note_on_c, 13, 53, 84
20, 293631, Note_on_c, 13, 55, 0
20, 293631, Note_on_c, 13, 53, 0
20, 293640, Note_on_c, 13, 55, 84
20, 293640, Note_on_c, 13, 53, 84
20, 293691, Note_on_c, 13, 55, 0
20, 293691, Note_on_c, 13, 53, 0
20, 293700, Note_on_c, 13, 55, 84
20, 293700, Note_on_c, 13, 53, 84
20, 293751, Note_on_c, 13, 55, 0
20, 293751, Note_on_c, 13, 53, 0
20, 293760, Note_on_c, 13, 53, 84
20, 293760, Note_on_c, 13, 55, 84
20, 293811, Note_on_c, 13, 53, 0
20, 293811, Note_on_c, 13, 55, 0
20, 293820, Note_on_c, 13, 55, 84
20, 293820, Note_on_c, 13, 53, 84
20, 293871, Note_on_c, 13, 55, 0
20, 293871, Note_on_c, 13, 53, 0
20, 293880, Note_on_c, 13, 55, 84
20, 293880, Note_on_c, 13, 53, 84
20, 293931, Note_on_c, 13, 55, 0
20, 293931, Note_on_c, 13, 53, 0
20, 293940, Note_on_c, 13, 55, 84
20, 293940, Note_on_c, 13, 53, 84
20, 293991, Note_on_c, 13, 55, 0
20, 293991, Note_on_c, 13, 53, 0
20, 294000, Note_on_c, 13, 55, 84
20, 294000, Note_on_c, 13, 53, 84
20, 294051, Note_on_c, 13, 55, 0
20, 294051, Note_on_c, 13, 53, 0
20, 294060, Note_on_c, 13, 55, 84
20, 294060, Note_on_c, 13, 53, 84
20, 294111, Note_on_c, 13, 55, 0
20, 294111, Note_on_c, 13, 53, 0
20, 294120, Note_on_c, 13, 53, 84
20, 294120, Note_on_c, 13, 55, 84
20, 294171, Note_on_c, 13, 53, 0
20, 294171, Note_on_c, 13, 55, 0
20, 294180, Note_on_c, 13, 55, 84
20, 294180, Note_on_c, 13, 53, 84
20, 294231, Note_on_c, 13, 55, 0
20, 294231, Note_on_c, 13, 53, 0
20, 294240, Note_on_c, 13, 53, 84
20, 294240, Note_on_c, 13, 55, 84
20, 294291, Note_on_c, 13, 53, 0
20, 294291, Note_on_c, 13, 55, 0
20, 294300, Note_on_c, 13, 53, 84
20, 294300, Note_on_c, 13, 55, 84
20, 294351, Note_on_c, 13, 53, 0
20, 294351, Note_on_c, 13, 55, 0
20, 294360, Note_on_c, 13, 55, 84
20, 294360, Note_on_c, 13, 53, 84
20, 294411, Note_on_c, 13, 55, 0
20, 294411, Note_on_c, 13, 53, 0
20, 294420, Note_on_c, 13, 55, 84
20, 294420, Note_on_c, 13, 53, 84
20, 294471, Note_on_c, 13, 55, 0
20, 294471, Note_on_c, 13, 53, 0
20, 294480, Note_on_c, 13, 53, 84
20, 294480, Note_on_c, 13, 55, 84
20, 294531, Note_on_c, 13, 53, 0
20, 294531, Note_on_c, 13, 55, 0
20, 294540, Note_on_c, 13, 53, 84
20, 294540, Note_on_c, 13, 55, 84
20, 294591, Note_on_c, 13, 53, 0
20, 294591, Note_on_c, 13, 55, 0
20, 294600, Note_on_c, 13, 55, 84
20, 294600, Note_on_c, 13, 53, 84
20, 294651, Note_on_c, 13, 55, 0
20, 294651, Note_on_c, 13, 53, 0
20, 294660, Note_on_c, 13, 55, 84
20, 294660, Note_on_c, 13, 53, 84
20, 294711, Note_on_c, 13, 55, 0
20, 294711, Note_on_c, 13, 53, 0
20, 294720, Note_on_c, 13, 53, 84
20, 294720, Note_on_c, 13, 55, 84
20, 294771, Note_on_c, 13, 53, 0
20, 294771, Note_on_c, 13, 55, 0
20, 294780, Note_on_c, 13, 55, 84
20, 294780, Note_on_c, 13, 53, 84
20, 294831, Note_on_c, 13, 55, 0
20, 294831, Note_on_c, 13, 53, 0
20, 294840, Note_on_c, 13, 55, 84
20, 294840, Note_on_c, 13, 53, 84
20, 294891, Note_on_c, 13, 55, 0
20, 294891, Note_on_c, 13, 53, 0
20, 294900, Note_on_c, 13, 53, 84
20, 294900, Note_on_c, 13, 55, 84
20, 294951, Note_on_c, 13, 53, 0
20, 294951, Note_on_c, 13, 55, 0
20, 294960, Note_on_c, 13, 53, 84
20, 294960, Note_on_c, 13, 55, 84
20, 295011, Note_on_c, 13, 53, 0
20, 295011, Note_on_c, 13, 55, 0
20, 295020, Note_on_c, 13, 53, 84
20, 295020, Note_on_c, 13, 55, 84
20, 295071, Note_on_c, 13, 53, 0
20, 295071, Note_on_c, 13, 55, 0
20, 295080, Note_on_c, 13, 53, 84
20, 295080, Note_on_c, 13, 55, 84
20, 295131, Note_on_c, 13, 53, 0
20, 295131, Note_on_c, 13, 55, 0
20, 295140, Note_on_c, 13, 55, 84
20, 295140, Note_on_c, 13, 53, 84
20, 295191, Note_on_c, 13, 55, 0
20, 295191, Note_on_c, 13, 53, 0
20, 295200, Note_on_c, 13, 55, 84
20, 295200, Note_on_c, 13, 53, 84
20, 295251, Note_on_c, 13, 55, 0
20, 295251, Note_on_c, 13, 53, 0
20, 295260, Note_on_c, 13, 55, 84
20, 295260, Note_on_c, 13, 53, 84
20, 295311, Note_on_c, 13, 55, 0
20, 295311, Note_on_c, 13, 53, 0
20, 295320, Note_on_c, 13, 55, 84
20, 295320, Note_on_c, 13, 53, 84
20, 295371, Note_on_c, 13, 55, 0
20, 295371, Note_on_c, 13, 53, 0
20, 295380, Note_on_c, 13, 53, 84
20, 295380, Note_on_c, 13, 55, 84
20, 295431, Note_on_c, 13, 53, 0
20, 295431, Note_on_c, 13, 55, 0
20, 295440, Note_on_c, 13, 55, 84
20, 295440, Note_on_c, 13, 53, 84
20, 295491, Note_on_c, 13, 55, 0
20, 295491, Note_on_c, 13, 53, 0
20, 295500, Note_on_c, 13, 55, 84
20, 295500, Note_on_c, 13, 53, 84
20, 295551, Note_on_c, 13, 55, 0
20, 295551, Note_on_c, 13, 53, 0
20, 295560, Note_on_c, 13, 53, 84
20, 295560, Note_on_c, 13, 55, 84
20, 295611, Note_on_c, 13, 53, 0
20, 295611, Note_on_c, 13, 55, 0
20, 295620, Note_on_c, 13, 55, 84
20, 295620, Note_on_c, 13, 53, 84
20, 295671, Note_on_c, 13, 55, 0
20, 295671, Note_on_c, 13, 53, 0
20, 295680, Note_on_c, 13, 53, 84
20, 295680, Note_on_c, 13, 55, 84
20, 295731, Note_on_c, 13, 53, 0
20, 295731, Note_on_c, 13, 55, 0
20, 295740, Note_on_c, 13, 53, 84
20, 295740, Note_on_c, 13, 55, 84
20, 295791, Note_on_c, 13, 53, 0
20, 295791, Note_on_c, 13, 55, 0
20, 295800, Note_on_c, 13, 55, 84
20, 295800, Note_on_c, 13, 53, 84
20, 295851, Note_on_c, 13, 55, 0
20, 295851, Note_on_c, 13, 53, 0
20, 295860, Note_on_c, 13, 55, 84
20, 295860, Note_on_c, 13, 53, 84
20, 295911, Note_on_c, 13, 55, 0
20, 295911, Note_on_c, 13, 53, 0
20, 295920, Note_on_c, 13, 55, 84
20, 295920, Note_on_c, 13, 53, 84
20, 295971, Note_on_c, 13, 55, 0
20, 295971, Note_on_c, 13, 53, 0
20, 295980, Note_on_c, 13, 55, 84
20, 295980, Note_on_c, 13, 53, 84
20, 296031, Note_on_c, 13, 55, 0
20, 296031, Note_on_c, 13, 53, 0
20, 296040, Note_on_c, 13, 53, 84
20, 296040, Note_on_c, 13, 55, 84
20, 296091, Note_on_c, 13, 53, 0
20, 296091, Note_on_c, 13, 55, 0
20, 296100, Note_on_c, 13, 53, 84
20, 296100, Note_on_c, 13, 55, 84
20, 296151, Note_on_c, 13, 53, 0
20, 296151, Note_on_c, 13, 55, 0
20, 296160, Note_on_c, 13, 55, 84
20, 296160, Note_on_c, 13, 58, 84
20, 296211, Note_on_c, 13, 55, 0
20, 296211, Note_on_c, 13, 58, 0
20, 296220, Note_on_c, 13, 58, 84
20, 296220, Note_on_c, 13, 55, 84
20, 296271, Note_on_c, 13, 58, 0
20, 296271, Note_on_c, 13, 55, 0
20, 296280, Note_on_c, 13, 55, 84
20, 296280, Note_on_c, 13, 58, 84
20, 296331, Note_on_c, 13, 55, 0
20, 296331, Note_on_c, 13, 58, 0
20, 296340, Note_on_c, 13, 58, 84
20, 296340, Note_on_c, 13, 55, 84
20, 296391, Note_on_c, 13, 58, 0
20, 296391, Note_on_c, 13, 55, 0
20, 296400, Note_on_c, 13, 58, 84
20, 296400, Note_on_c, 13, 55, 84
20, 296451, Note_on_c, 13, 58, 0
20, 296451, Note_on_c, 13, 55, 0
20, 296460, Note_on_c, 13, 58, 84
20, 296460, Note_on_c, 13, 55, 84
20, 296511, Note_on_c, 13, 58, 0
20, 296511, Note_on_c, 13, 55, 0
20, 296520, Note_on_c, 13, 58, 84
20, 296520, Note_on_c, 13, 55, 84
20, 296571, Note_on_c, 13, 58, 0
20, 296571, Note_on_c, 13, 55, 0
20, 296580, Note_on_c, 13, 58, 84
20, 296580, Note_on_c, 13, 55, 84
20, 296631, Note_on_c, 13, 58, 0
20, 296631, Note_on_c, 13, 55, 0
20, 296640, Note_on_c, 13, 55, 84
20, 296640, Note_on_c, 13, 58, 84
20, 296691, Note_on_c, 13, 55, 0
20, 296691, Note_on_c, 13, 58, 0
20, 296700, Note_on_c, 13, 55, 84
20, 296700, Note_on_c, 13, 58, 84
20, 296751, Note_on_c, 13, 55, 0
20, 296751, Note_on_c, 13, 58, 0
20, 296760, Note_on_c, 13, 58, 84
20, 296760, Note_on_c, 13, 55, 84
20, 296811, Note_on_c, 13, 58, 0
20, 296811, Note_on_c, 13, 55, 0
20, 296820, Note_on_c, 13, 55, 84
20, 296820, Note_on_c, 13, 58, 84
20, 296871, Note_on_c, 13, 55, 0
20, 296871, Note_on_c, 13, 58, 0
20, 296880, Note_on_c, 13, 55, 84
20, 296880, Note_on_c, 13, 58, 84
20, 296931, Note_on_c, 13, 55, 0
20, 296931, Note_on_c, 13, 58, 0
20, 296940, Note_on_c, 13, 55, 84
20, 296940, Note_on_c, 13, 58, 84
20, 296991, Note_on_c, 13, 55, 0
20, 296991, Note_on_c, 13, 58, 0
20, 297000, Note_on_c, 13, 58, 84
20, 297000, Note_on_c, 13, 55, 84
20, 297051, Note_on_c, 13, 58, 0
20, 297051, Note_on_c, 13, 55, 0
20, 297060, Note_on_c, 13, 55, 84
20, 297060, Note_on_c, 13, 58, 84
20, 297111, Note_on_c, 13, 55, 0
20, 297111, Note_on_c, 13, 58, 0
20, 297120, Note_on_c, 13, 55, 84
20, 297120, Note_on_c, 13, 58, 84
20, 297171, Note_on_c, 13, 55, 0
20, 297171, Note_on_c, 13, 58, 0
20, 297180, Note_on_c, 13, 55, 84
20, 297180, Note_on_c, 13, 58, 84
20, 297231, Note_on_c, 13, 55, 0
20, 297231, Note_on_c, 13, 58, 0
20, 297240, Note_on_c, 13, 55, 84
20, 297240, Note_on_c, 13, 58, 84
20, 297291, Note_on_c, 13, 55, 0
20, 297291, Note_on_c, 13, 58, 0
20, 297300, Note_on_c, 13, 58, 84
20, 297300, Note_on_c, 13, 55, 84
20, 297351, Note_on_c, 13, 58, 0
20, 297351, Note_on_c, 13, 55, 0
20, 297360, Note_on_c, 13, 55, 84
20, 297360, Note_on_c, 13, 58, 84
20, 297411, Note_on_c, 13, 55, 0
20, 297411, Note_on_c, 13, 58, 0
20, 297420, Note_on_c, 13, 55, 84
20, 297420, Note_on_c, 13, 58, 84
20, 297471, Note_on_c, 13, 55, 0
20, 297471, Note_on_c, 13, 58, 0
20, 297480, Note_on_c, 13, 55, 84
20, 297480, Note_on_c, 13, 58, 84
20, 297531, Note_on_c, 13, 55, 0
20, 297531, Note_on_c, 13, 58, 0
20, 297540, Note_on_c, 13, 55, 84
20, 297540, Note_on_c, 13, 58, 84
20, 297591, Note_on_c, 13, 55, 0
20, 297591, Note_on_c, 13, 58, 0
20, 297600, Note_on_c, 13, 55, 84
20, 297600, Note_on_c, 13, 58, 84
20, 297651, Note_on_c, 13, 55, 0
20, 297651, Note_on_c, 13, 58, 0
20, 297660, Note_on_c, 13, 58, 84
20, 297660, Note_on_c, 13, 55, 84
20, 297711, Note_on_c, 13, 58, 0
20, 297711, Note_on_c, 13, 55, 0
20, 297720, Note_on_c, 13, 58, 84
20, 297720, Note_on_c, 13, 55, 84
20, 297771, Note_on_c, 13, 58, 0
20, 297771, Note_on_c, 13, 55, 0
20, 297780, Note_on_c, 13, 55, 84
20, 297780, Note_on_c, 13, 58, 84
20, 297831, Note_on_c, 13, 55, 0
20, 297831, Note_on_c, 13, 58, 0
20, 297840, Note_on_c, 13, 58, 84
20, 297840, Note_on_c, 13, 55, 84
20, 297891, Note_on_c, 13, 58, 0
20, 297891, Note_on_c, 13, 55, 0
20, 297900, Note_on_c, 13, 55, 84
20, 297900, Note_on_c, 13, 58, 84
20, 297951, Note_on_c, 13, 55, 0
20, 297951, Note_on_c, 13, 58, 0
20, 297960, Note_on_c, 13, 55, 84
20, 297960, Note_on_c, 13, 58, 84
20, 298011, Note_on_c, 13, 55, 0
20, 298011, Note_on_c, 13, 58, 0
20, 298020, Note_on_c, 13, 58, 84
20, 298020, Note_on_c, 13, 55, 84
20, 298071, Note_on_c, 13, 58, 0
20, 298071, Note_on_c, 13, 55, 0
20, 298080, Note_on_c, 13, 52, 84
20, 299039, Note_on_c, 13, 52, 0
20, 299040, Note_on_c, 13, 52, 84
20, 299504, Note_on_c, 13, 52, 0
20, 299520, Note_on_c, 13, 52, 84
20, 299759, Note_on_c, 13, 52, 0
20, 299760, Note_on_c, 13, 53, 84
20, 299939, Note_on_c, 13, 53, 0
20, 299940, Note_on_c, 13, 55, 84
20, 299991, Note_on_c, 13, 55, 0
20, 300000, Note_on_c, 13, 53, 84
20, 300959, Note_on_c, 13, 53, 0
20, 300960, Note_on_c, 13, 53, 84
20, 301424, Note_on_c, 13, 53, 0
20, 301440, Note_on_c, 13, 53, 84
20, 301679, Note_on_c, 13, 53, 0
20, 301680, Note_on_c, 13, 55, 84
20, 301859, Note_on_c, 13, 55, 0
20, 301860, Note_on_c, 13, 57, 84
20, 301911, Note_on_c, 13, 57, 0
20, 301920, Note_on_c, 13, 59, 84
20, 302624, Note_on_c, 13, 59, 0
20, 302640, Note_on_c, 13, 55, 84
20, 302879, Note_on_c, 13, 55, 0
20, 302880, Note_on_c, 13, 59, 84
20, 303119, Note_on_c, 13, 59, 0
20, 303120, Note_on_c, 13, 55, 84
20, 303359, Note_on_c, 13, 55, 0
20, 303360, Note_on_c, 13, 62, 84
20, 303599, Note_on_c, 13, 62, 0
20, 303600, Note_on_c, 13, 60, 84
20, 303779, Note_on_c, 13, 60, 0
20, 303780, Note_on_c, 13, 59, 84
20, 303831, Note_on_c, 13, 59, 0
20, 303840, Note_on_c, 13, 60, 84
20, 304544, Note_on_c, 13, 60, 0
20, 304560, Note_on_c, 13, 55, 84
20, 304799, Note_on_c, 13, 55, 0
20, 304800, Note_on_c, 13, 60, 84
20, 305039, Note_on_c, 13, 60, 0
20, 305040, Note_on_c, 13, 55, 84
20, 305279, Note_on_c, 13, 55, 0
20, 305280, Note_on_c, 13, 64, 84
20, 305519, Note_on_c, 13, 64, 0
20, 305520, Note_on_c, 13, 62, 84
20, 305699, Note_on_c, 13, 62, 0
20, 305700, Note_on_c, 13, 60, 84
20, 305751, Note_on_c, 13, 60, 0
20, 305760, Note_on_c, 13, 59, 84
20, 306104, Note_on_c, 13, 59, 0
20, 306120, Note_on_c, 13, 55, 84
20, 306224, Note_on_c, 13, 55, 0
20, 306240, Note_on_c, 13, 62, 84
20, 306599, Note_on_c, 13, 62, 0
20, 306600, Note_on_c, 13, 60, 84
20, 306659, Note_on_c, 13, 60, 0
20, 306660, Note_on_c, 13, 59, 84
20, 306711, Note_on_c, 13, 59, 0
20, 306720, Note_on_c, 13, 60, 84
20, 307064, Note_on_c, 13, 60, 0
20, 307080, Note_on_c, 13, 55, 84
20, 307184, Note_on_c, 13, 55, 0
20, 307200, Note_on_c, 13, 64, 84
20, 307559, Note_on_c, 13, 64, 0
20, 307560, Note_on_c, 13, 62, 84
20, 307619, Note_on_c, 13, 62, 0
20, 307620, Note_on_c, 13, 60, 84
20, 307671, Note_on_c, 13, 60, 0
20, 307680, Note_on_c, 13, 59, 84
20, 307784, Note_on_c, 13, 59, 0
20, 307800, Note_on_c, 13, 59, 84
20, 308024, Note_on_c, 13, 59, 0
20, 308040, Note_on_c, 13, 60, 84
20, 308144, Note_on_c, 13, 60, 0
20, 308160, Note_on_c, 13, 62, 84
20, 308249, Note_on_c, 13, 62, 0
20, 308280, Note_on_c, 13, 67, 84
20, 308399, Note_on_c, 13, 67, 0
20, 308400, Note_on_c, 13, 65, 84
20, 308504, Note_on_c, 13, 65, 0
20, 308520, Note_on_c, 13, 64, 84
20, 308609, Note_on_c, 13, 64, 0
20, 308640, Note_on_c, 13, 62, 84
20, 308729, Note_on_c, 13, 62, 0
20, 308760, Note_on_c, 13, 64, 84
20, 308879, Note_on_c, 13, 64, 0
20, 308880, Note_on_c, 13, 62, 84
20, 308984, Note_on_c, 13, 62, 0
20, 309000, Note_on_c, 13, 60, 84
20, 309089, Note_on_c, 13, 60, 0
20, 309120, Note_on_c, 13, 59, 84
20, 309209, Note_on_c, 13, 59, 0
20, 309240, Note_on_c, 13, 67, 84
20, 309359, Note_on_c, 13, 67, 0
20, 309360, Note_on_c, 13, 62, 84
20, 309464, Note_on_c, 13, 62, 0
20, 309480, Note_on_c, 13, 69, 84
20, 309569, Note_on_c, 13, 69, 0
20, 309600, Note_on_c, 13, 67, 84
20, 309839, Note_on_c, 13, 67, 0
20, 310200, Note_on_c, 13, 55, 84
20, 310319, Note_on_c, 13, 55, 0
20, 310320, Note_on_c, 13, 54, 84
20, 310424, Note_on_c, 13, 54, 0
20, 310440, Note_on_c, 13, 60, 84
20, 310529, Note_on_c, 13, 60, 0
20, 310560, Note_on_c, 13, 59, 84
20, 310679, Note_on_c, 13, 59, 0
20, 311280, Note_on_c, 13, 59, 84
20, 311359, Note_on_c, 13, 59, 0
20, 311360, Note_on_c, 13, 60, 84
20, 311439, Note_on_c, 13, 60, 0
20, 311440, Note_on_c, 13, 62, 84
20, 311507, Note_on_c, 13, 62, 0
20, 311520, Note_on_c, 13, 55, 84
20, 311520, Note_on_c, 13, 52, 84
20, 311587, Note_on_c, 13, 55, 0
20, 311587, Note_on_c, 13, 52, 0
20, 311600, Note_on_c, 13, 52, 84
20, 311600, Note_on_c, 13, 48, 84
20, 311667, Note_on_c, 13, 52, 0
20, 311667, Note_on_c, 13, 48, 0
20, 311680, Note_on_c, 13, 52, 84
20, 311680, Note_on_c, 13, 55, 84
20, 311747, Note_on_c, 13, 52, 0
20, 311747, Note_on_c, 13, 55, 0
20, 311760, Note_on_c, 13, 52, 84
20, 311760, Note_on_c, 13, 55, 84
20, 311827, Note_on_c, 13, 52, 0
20, 311827, Note_on_c, 13, 55, 0
20, 311840, Note_on_c, 13, 55, 84
20, 311840, Note_on_c, 13, 52, 84
20, 311907, Note_on_c, 13, 55, 0
20, 311907, Note_on_c, 13, 52, 0
20, 311920, Note_on_c, 13, 52, 84
20, 311920, Note_on_c, 13, 55, 84
20, 311987, Note_on_c, 13, 52, 0
20, 311987, Note_on_c, 13, 55, 0
20, 312000, Note_on_c, 13, 48, 84
20, 312000, Note_on_c, 13, 53, 84
20, 312067, Note_on_c, 13, 48, 0
20, 312067, Note_on_c, 13, 53, 0
20, 312080, Note_on_c, 13, 57, 84
20, 312080, Note_on_c, 13, 53, 84
20, 312147, Note_on_c, 13, 57, 0
20, 312147, Note_on_c, 13, 53, 0
20, 312160, Note_on_c, 13, 53, 84
20, 312160, Note_on_c, 13, 57, 84
20, 312227, Note_on_c, 13, 53, 0
20, 312227, Note_on_c, 13, 57, 0
20, 312240, Note_on_c, 13, 57, 84
20, 312240, Note_on_c, 13, 53, 84
20, 312307, Note_on_c, 13, 57, 0
20, 312307, Note_on_c, 13, 53, 0
20, 312320, Note_on_c, 13, 57, 84
20, 312320, Note_on_c, 13, 53, 84
20, 312387, Note_on_c, 13, 57, 0
20, 312387, Note_on_c, 13, 53, 0
20, 312400, Note_on_c, 13, 53, 84
20, 312400, Note_on_c, 13, 57, 84
20, 312467, Note_on_c, 13, 53, 0
20, 312467, Note_on_c, 13, 57, 0
20, 312480, Note_on_c, 13, 52, 84
20, 312480, Note_on_c, 13, 48, 84
20, 312547, Note_on_c, 13, 52, 0
20, 312547, Note_on_c, 13, 48, 0
20, 312560, Note_on_c, 13, 52, 84
20, 312560, Note_on_c, 13, 55, 84
20, 312627, Note_on_c, 13, 52, 0
20, 312627, Note_on_c, 13, 55, 0
20, 312640, Note_on_c, 13, 55, 84
20, 312640, Note_on_c, 13, 52, 84
20, 312707, Note_on_c, 13, 55, 0
20, 312707, Note_on_c, 13, 52, 0
20, 312720, Note_on_c, 13, 52, 84
20, 312720, Note_on_c, 13, 55, 84
20, 312787, Note_on_c, 13, 52, 0
20, 312787, Note_on_c, 13, 55, 0
20, 312800, Note_on_c, 13, 55, 84
20, 312800, Note_on_c, 13, 52, 84
20, 312867, Note_on_c, 13, 55, 0
20, 312867, Note_on_c, 13, 52, 0
20, 312880, Note_on_c, 13, 55, 84
20, 312880, Note_on_c, 13, 52, 84
20, 312947, Note_on_c, 13, 55, 0
20, 312947, Note_on_c, 13, 52, 0
20, 312960, Note_on_c, 13, 55, 84
20, 312960, Note_on_c, 13, 52, 84
20, 313184, Note_on_c, 13, 55, 0
20, 313184, Note_on_c, 13, 52, 0
20, 313200, Note_on_c, 13, 67, 52
20, 314624, Note_on_c, 13, 67, 0
20, 314638, Control_c, 13, 11, 80
20, 314640, Note_on_c, 13, 59, 76
20, 314693, Control_c, 13, 11, 85
20, 314719, Note_on_c, 13, 59, 0
20, 314720, Note_on_c, 13, 60, 76
20, 314747, Control_c, 13, 11, 90
20, 314799, Note_on_c, 13, 60, 0
20, 314800, Control_c, 13, 11, 96
20, 314800, Note_on_c, 13, 62, 76
20, 314853, Control_c, 13, 11, 101
20, 314867, Note_on_c, 13, 62, 0
20, 314880, Note_on_c, 13, 55, 76
20, 314907, Control_c, 13, 11, 106
20, 314960, Control_c, 13, 11, 111
20, 315013, Control_c, 13, 11, 117
20, 315067, Control_c, 13, 11, 127
20, 315104, Note_on_c, 13, 55, 0
20, 315120, Note_on_c, 13, 53, 76
20, 315187, Note_on_c, 13, 53, 0
20, 315200, Note_on_c, 13, 52, 76
20, 315267, Note_on_c, 13, 52, 0
20, 315280, Note_on_c, 13, 50, 76
20, 315347, Note_on_c, 13, 50, 0
20, 315360, Note_on_c, 13, 48, 76
20, 315427, Note_on_c, 13, 48, 0
20, 315440, Note_on_c, 13, 60, 76
20, 315507, Note_on_c, 13, 60, 0
20, 315520, Note_on_c, 13, 60, 76
20, 315587, Note_on_c, 13, 60, 0
20, 315600, Note_on_c, 13, 60, 76
20, 315667, Note_on_c, 13, 60, 0
20, 315680, Note_on_c, 13, 59, 76
20, 315747, Note_on_c, 13, 59, 0
20, 315760, Note_on_c, 13, 58, 76
20, 315827, Note_on_c, 13, 58, 0
20, 315840, Note_on_c, 13, 57, 76
20, 315907, Note_on_c, 13, 57, 0
20, 315920, Note_on_c, 13, 57, 76
20, 315987, Note_on_c, 13, 57, 0
20, 316000, Note_on_c, 13, 57, 76
20, 316067, Note_on_c, 13, 57, 0
20, 316080, Note_on_c, 13, 57, 76
20, 316147, Note_on_c, 13, 57, 0
20, 316160, Note_on_c, 13, 55, 76
20, 316227, Note_on_c, 13, 55, 0
20, 316240, Note_on_c, 13, 53, 76
20, 316307, Note_on_c, 13, 53, 0
20, 316320, Note_on_c, 13, 52, 76
20, 316387, Note_on_c, 13, 52, 0
20, 316400, Note_on_c, 13, 55, 76
20, 316467, Note_on_c, 13, 55, 0
20, 316480, Note_on_c, 13, 55, 76
20, 316547, Note_on_c, 13, 55, 0
20, 316560, Note_on_c, 13, 55, 76
20, 316627, Note_on_c, 13, 55, 0
20, 316640, Note_on_c, 13, 57, 76
20, 316707, Note_on_c, 13, 57, 0
20, 316720, Note_on_c, 13, 59, 76
20, 316787, Note_on_c, 13, 59, 0
20, 316800, Note_on_c, 13, 60, 76
20, 317024, Note_on_c, 13, 60, 0
20, 317040, Note_on_c, 13, 67, 52
20, 318464, Note_on_c, 13, 67, 0
20, 318480, Note_on_c, 13, 55, 76
20, 318547, Note_on_c, 13, 55, 0
20, 318560, Note_on_c, 13, 57, 76
20, 318627, Note_on_c, 13, 57, 0
20, 318640, Note_on_c, 13, 59, 76
20, 318707, Note_on_c, 13, 59, 0
20, 318720, Note_on_c, 13, 60, 76
20, 318944, Note_on_c, 13, 60, 0
20, 318960, Note_on_c, 13, 69, 52
20, 320384, Note_on_c, 13, 69, 0
20, 320400, Note_on_c, 13, 57, 76
20, 320467, Note_on_c, 13, 57, 0
20, 320480, Note_on_c, 13, 59, 76
20, 320547, Note_on_c, 13, 59, 0
20, 320560, Note_on_c, 13, 61, 76
20, 320627, Note_on_c, 13, 61, 0
20, 320640, Note_on_c, 13, 62, 76
20, 320864, Note_on_c, 13, 62, 0
20, 320880, Note_on_c, 13, 72, 44
20, 320959, Note_on_c, 13, 72, 0
20, 320960, Note_on_c, 13, 70, 44
20, 321039, Note_on_c, 13, 70, 0
20, 321040, Note_on_c, 13, 69, 44
20, 321119, Note_on_c, 13, 69, 0
20, 321120, Note_on_c, 13, 67, 44
20, 321359, Note_on_c, 13, 67, 0
20, 321360, Note_on_c, 13, 70, 44
20, 321439, Note_on_c, 13, 70, 0
20, 321440, Note_on_c, 13, 69, 44
20, 321519, Note_on_c, 13, 69, 0
20, 321520, Note_on_c, 13, 67, 44
20, 321599, Note_on_c, 13, 67, 0
20, 321600, Note_on_c, 13, 65, 44
20, 321839, Note_on_c, 13, 65, 0
20, 321840, Note_on_c, 13, 69, 44
20, 321919, Note_on_c, 13, 69, 0
20, 321920, Note_on_c, 13, 67, 44
20, 321999, Note_on_c, 13, 67, 0
20, 322000, Note_on_c, 13, 65, 44
20, 322067, Note_on_c, 13, 65, 0
20, 322080, Note_on_c, 13, 64, 44
20, 322131, Note_on_c, 13, 64, 0
20, 322140, Note_on_c, 13, 67, 45
20, 322140, Note_on_c, 13, 64, 45
20, 322191, Note_on_c, 13, 67, 0
20, 322191, Note_on_c, 13, 64, 0
20, 322200, Note_on_c, 13, 64, 46
20, 322200, Note_on_c, 13, 67, 46
20, 322251, Note_on_c, 13, 64, 0
20, 322251, Note_on_c, 13, 67, 0
20, 322260, Note_on_c, 13, 64, 47
20, 322260, Note_on_c, 13, 67, 47
20, 322311, Note_on_c, 13, 64, 0
20, 322311, Note_on_c, 13, 67, 0
20, 322320, Note_on_c, 13, 67, 49
20, 322320, Note_on_c, 13, 64, 49
20, 322371, Note_on_c, 13, 67, 0
20, 322371, Note_on_c, 13, 64, 0
20, 322380, Note_on_c, 13, 64, 50
20, 322380, Note_on_c, 13, 67, 50
20, 322431, Note_on_c, 13, 64, 0
20, 322431, Note_on_c, 13, 67, 0
20, 322440, Note_on_c, 13, 64, 51
20, 322440, Note_on_c, 13, 67, 51
20, 322491, Note_on_c, 13, 64, 0
20, 322491, Note_on_c, 13, 67, 0
20, 322500, Note_on_c, 13, 64, 52
20, 322500, Note_on_c, 13, 67, 52
20, 322551, Note_on_c, 13, 64, 0
20, 322551, Note_on_c, 13, 67, 0
20, 322560, Note_on_c, 13, 67, 54
20, 322560, Note_on_c, 13, 64, 54
20, 322611, Note_on_c, 13, 67, 0
20, 322611, Note_on_c, 13, 64, 0
20, 322620, Note_on_c, 13, 64, 55
20, 322620, Note_on_c, 13, 67, 55
20, 322671, Note_on_c, 13, 64, 0
20, 322671, Note_on_c, 13, 67, 0
20, 322680, Note_on_c, 13, 67, 56
20, 322680, Note_on_c, 13, 64, 56
20, 322731, Note_on_c, 13, 67, 0
20, 322731, Note_on_c, 13, 64, 0
20, 322740, Note_on_c, 13, 67, 57
20, 322740, Note_on_c, 13, 64, 57
20, 322791, Note_on_c, 13, 67, 0
20, 322791, Note_on_c, 13, 64, 0
20, 322800, Note_on_c, 13, 67, 59
20, 322800, Note_on_c, 13, 64, 59
20, 322851, Note_on_c, 13, 67, 0
20, 322851, Note_on_c, 13, 64, 0
20, 322860, Note_on_c, 13, 64, 60
20, 322860, Note_on_c, 13, 67, 60
20, 322911, Note_on_c, 13, 64, 0
20, 322911, Note_on_c, 13, 67, 0
20, 322920, Note_on_c, 13, 67, 61
20, 322920, Note_on_c, 13, 64, 61
20, 322971, Note_on_c, 13, 67, 0
20, 322971, Note_on_c, 13, 64, 0
20, 322980, Note_on_c, 13, 67, 62
20, 322980, Note_on_c, 13, 64, 62
20, 323031, Note_on_c, 13, 67, 0
20, 323031, Note_on_c, 13, 64, 0
20, 323040, Note_on_c, 13, 68, 64
20, 323040, Note_on_c, 13, 64, 64
20, 323091, Note_on_c, 13, 68, 0
20, 323091, Note_on_c, 13, 64, 0
20, 323100, Note_on_c, 13, 68, 65
20, 323100, Note_on_c, 13, 64, 65
20, 323151, Note_on_c, 13, 68, 0
20, 323151, Note_on_c, 13, 64, 0
20, 323160, Note_on_c, 13, 68, 66
20, 323160, Note_on_c, 13, 64, 66
20, 323211, Note_on_c, 13, 68, 0
20, 323211, Note_on_c, 13, 64, 0
20, 323220, Note_on_c, 13, 64, 67
20, 323220, Note_on_c, 13, 68, 67
20, 323271, Note_on_c, 13, 64, 0
20, 323271, Note_on_c, 13, 68, 0
20, 323280, Note_on_c, 13, 68, 69
20, 323280, Note_on_c, 13, 64, 69
20, 323331, Note_on_c, 13, 68, 0
20, 323331, Note_on_c, 13, 64, 0
20, 323340, Note_on_c, 13, 64, 70
20, 323340, Note_on_c, 13, 68, 70
20, 323391, Note_on_c, 13, 64, 0
20, 323391, Note_on_c, 13, 68, 0
20, 323400, Note_on_c, 13, 68, 71
20, 323400, Note_on_c, 13, 64, 71
20, 323451, Note_on_c, 13, 68, 0
20, 323451, Note_on_c, 13, 64, 0
20, 323460, Note_on_c, 13, 68, 72
20, 323460, Note_on_c, 13, 64, 72
20, 323511, Note_on_c, 13, 68, 0
20, 323511, Note_on_c, 13, 64, 0
20, 323520, Note_on_c, 13, 64, 74
20, 323520, Note_on_c, 13, 68, 74
20, 323571, Note_on_c, 13, 64, 0
20, 323571, Note_on_c, 13, 68, 0
20, 323580, Note_on_c, 13, 64, 75
20, 323580, Note_on_c, 13, 68, 75
20, 323631, Note_on_c, 13, 64, 0
20, 323631, Note_on_c, 13, 68, 0
20, 323640, Note_on_c, 13, 68, 76
20, 323640, Note_on_c, 13, 64, 76
20, 323691, Note_on_c, 13, 68, 0
20, 323691, Note_on_c, 13, 64, 0
20, 323700, Note_on_c, 13, 68, 77
20, 323700, Note_on_c, 13, 64, 77
20, 323751, Note_on_c, 13, 68, 0
20, 323751, Note_on_c, 13, 64, 0
20, 323760, Note_on_c, 13, 64, 79
20, 323760, Note_on_c, 13, 68, 79
20, 323811, Note_on_c, 13, 64, 0
20, 323811, Note_on_c, 13, 68, 0
20, 323820, Note_on_c, 13, 68, 80
20, 323820, Note_on_c, 13, 64, 80
20, 323871, Note_on_c, 13, 68, 0
20, 323871, Note_on_c, 13, 64, 0
20, 323880, Note_on_c, 13, 64, 81
20, 323880, Note_on_c, 13, 68, 81
20, 323931, Note_on_c, 13, 64, 0
20, 323931, Note_on_c, 13, 68, 0
20, 323940, Note_on_c, 13, 64, 82
20, 323940, Note_on_c, 13, 68, 82
20, 323991, Note_on_c, 13, 64, 0
20, 323991, Note_on_c, 13, 68, 0
20, 324000, Note_on_c, 13, 69, 84
20, 324000, Note_on_c, 13, 65, 84
20, 324051, Note_on_c, 13, 69, 0
20, 324051, Note_on_c, 13, 65, 0
20, 324060, Note_on_c, 13, 53, 84
20, 324060, Note_on_c, 13, 57, 84
20, 324111, Note_on_c, 13, 53, 0
20, 324111, Note_on_c, 13, 57, 0
20, 324120, Note_on_c, 13, 53, 84
20, 324120, Note_on_c, 13, 57, 84
20, 324171, Note_on_c, 13, 53, 0
20, 324171, Note_on_c, 13, 57, 0
20, 324180, Note_on_c, 13, 53, 84
20, 324180, Note_on_c, 13, 57, 84
20, 324231, Note_on_c, 13, 53, 0
20, 324231, Note_on_c, 13, 57, 0
20, 324240, Note_on_c, 13, 53, 84
20, 324240, Note_on_c, 13, 57, 84
20, 324291, Note_on_c, 13, 53, 0
20, 324291, Note_on_c, 13, 57, 0
20, 324300, Note_on_c, 13, 53, 84
20, 324300, Note_on_c, 13, 57, 84
20, 324351, Note_on_c, 13, 53, 0
20, 324351, Note_on_c, 13, 57, 0
20, 324360, Note_on_c, 13, 53, 84
20, 324360, Note_on_c, 13, 57, 84
20, 324411, Note_on_c, 13, 53, 0
20, 324411, Note_on_c, 13, 57, 0
20, 324420, Note_on_c, 13, 53, 84
20, 324420, Note_on_c, 13, 57, 84
20, 324471, Note_on_c, 13, 53, 0
20, 324471, Note_on_c, 13, 57, 0
20, 324480, Note_on_c, 13, 57, 84
20, 324480, Note_on_c, 13, 53, 84
20, 324531, Note_on_c, 13, 57, 0
20, 324531, Note_on_c, 13, 53, 0
20, 324540, Note_on_c, 13, 57, 84
20, 324540, Note_on_c, 13, 53, 84
20, 324591, Note_on_c, 13, 57, 0
20, 324591, Note_on_c, 13, 53, 0
20, 324600, Note_on_c, 13, 53, 84
20, 324600, Note_on_c, 13, 57, 84
20, 324651, Note_on_c, 13, 53, 0
20, 324651, Note_on_c, 13, 57, 0
20, 324660, Note_on_c, 13, 53, 84
20, 324660, Note_on_c, 13, 57, 84
20, 324711, Note_on_c, 13, 53, 0
20, 324711, Note_on_c, 13, 57, 0
20, 324720, Note_on_c, 13, 57, 84
20, 324720, Note_on_c, 13, 53, 84
20, 324771, Note_on_c, 13, 57, 0
20, 324771, Note_on_c, 13, 53, 0
20, 324780, Note_on_c, 13, 57, 84
20, 324780, Note_on_c, 13, 53, 84
20, 324831, Note_on_c, 13, 57, 0
20, 324831, Note_on_c, 13, 53, 0
20, 324840, Note_on_c, 13, 57, 84
20, 324840, Note_on_c, 13, 53, 84
20, 324891, Note_on_c, 13, 57, 0
20, 324891, Note_on_c, 13, 53, 0
20, 324900, Note_on_c, 13, 57, 84
20, 324900, Note_on_c, 13, 53, 84
20, 324951, Note_on_c, 13, 57, 0
20, 324951, Note_on_c, 13, 53, 0
20, 324960, Note_on_c, 13, 57, 84
20, 324960, Note_on_c, 13, 53, 84
20, 325011, Note_on_c, 13, 57, 0
20, 325011, Note_on_c, 13, 53, 0
20, 325020, Note_on_c, 13, 48, 84
20, 325071, Note_on_c, 13, 48, 0
20, 325080, Note_on_c, 13, 50, 84
20, 325131, Note_on_c, 13, 50, 0
20, 325140, Note_on_c, 13, 52, 84
20, 325191, Note_on_c, 13, 52, 0
20, 325200, Note_on_c, 13, 53, 84
20, 325251, Note_on_c, 13, 53, 0
20, 325260, Note_on_c, 13, 55, 84
20, 325311, Note_on_c, 13, 55, 0
20, 325320, Note_on_c, 13, 57, 84
20, 325371, Note_on_c, 13, 57, 0
20, 325380, Note_on_c, 13, 58, 84
20, 325431, Note_on_c, 13, 58, 0
20, 325440, Note_on_c, 13, 60, 84
20, 325491, Note_on_c, 13, 60, 0
20, 325500, Note_on_c, 13, 53, 84
20, 325500, Note_on_c, 13, 57, 84
20, 325551, Note_on_c, 13, 53, 0
20, 325551, Note_on_c, 13, 57, 0
20, 325560, Note_on_c, 13, 55, 84
20, 325560, Note_on_c, 13, 58, 84
20, 325611, Note_on_c, 13, 55, 0
20, 325611, Note_on_c, 13, 58, 0
20, 325620, Note_on_c, 13, 57, 84
20, 325620, Note_on_c, 13, 60, 84
20, 325671, Note_on_c, 13, 57, 0
20, 325671, Note_on_c, 13, 60, 0
20, 325680, Note_on_c, 13, 62, 84
20, 325680, Note_on_c, 13, 58, 84
20, 325731, Note_on_c, 13, 62, 0
20, 325731, Note_on_c, 13, 58, 0
20, 325740, Note_on_c, 13, 64, 84
20, 325740, Note_on_c, 13, 60, 84
20, 325791, Note_on_c, 13, 64, 0
20, 325791, Note_on_c, 13, 60, 0
20, 325800, Note_on_c, 13, 62, 84
20, 325800, Note_on_c, 13, 65, 84
20, 325851, Note_on_c, 13, 62, 0
20, 325851, Note_on_c, 13, 65, 0
20, 325860, Note_on_c, 13, 64, 84
20, 325860, Note_on_c, 13, 67, 84
20, 325911, Note_on_c, 13, 64, 0
20, 325911, Note_on_c, 13, 67, 0
20, 325920, Note_on_c, 13, 69, 84
20, 325920, Note_on_c, 13, 65, 84
20, 325971, Note_on_c, 13, 69, 0
20, 325971, Note_on_c, 13, 65, 0
20, 325980, Note_on_c, 13, 65, 84
20, 326031, Note_on_c, 13, 65, 0
20, 326040, Note_on_c, 13, 65, 84
20, 326091, Note_on_c, 13, 65, 0
20, 326100, Note_on_c, 13, 65, 84
20, 326151, Note_on_c, 13, 65, 0
20, 326160, Note_on_c, 13, 66, 84
20, 326211, Note_on_c, 13, 66, 0
20, 326220, Note_on_c, 13, 66, 84
20, 326271, Note_on_c, 13, 66, 0
20, 326280, Note_on_c, 13, 66, 84
20, 326331, Note_on_c, 13, 66, 0
20, 326340, Note_on_c, 13, 66, 84
20, 326391, Note_on_c, 13, 66, 0
20, 326400, Note_on_c, 13, 67, 84
20, 326451, Note_on_c, 13, 67, 0
20, 326460, Note_on_c, 13, 67, 84
20, 326511, Note_on_c, 13, 67, 0
20, 326520, Note_on_c, 13, 67, 84
20, 326571, Note_on_c, 13, 67, 0
20, 326580, Note_on_c, 13, 67, 84
20, 326631, Note_on_c, 13, 67, 0
20, 326640, Note_on_c, 13, 68, 84
20, 326691, Note_on_c, 13, 68, 0
20, 326700, Note_on_c, 13, 68, 84
20, 326751, Note_on_c, 13, 68, 0
20, 326760, Note_on_c, 13, 68, 84
20, 326811, Note_on_c, 13, 68, 0
20, 326820, Note_on_c, 13, 68, 84
20, 326871, Note_on_c, 13, 68, 0
20, 326880, Note_on_c, 13, 69, 84
20, 326931, Note_on_c, 13, 69, 0
20, 326940, Note_on_c, 13, 69, 84
20, 326991, Note_on_c, 13, 69, 0
20, 327000, Note_on_c, 13, 69, 84
20, 327051, Note_on_c, 13, 69, 0
20, 327060, Note_on_c, 13, 69, 84
20, 327111, Note_on_c, 13, 69, 0
20, 327120, Note_on_c, 13, 71, 84
20, 327171, Note_on_c, 13, 71, 0
20, 327180, Note_on_c, 13, 71, 84
20, 327231, Note_on_c, 13, 71, 0
20, 327240, Note_on_c, 13, 71, 84
20, 327291, Note_on_c, 13, 71, 0
20, 327300, Note_on_c, 13, 71, 84
20, 327351, Note_on_c, 13, 71, 0
20, 327360, Note_on_c, 13, 72, 84
20, 327464, Note_on_c, 13, 72, 0
20, 327480, Note_on_c, 13, 48, 84
20, 327480, Note_on_c, 13, 52, 84
20, 327531, Note_on_c, 13, 48, 0
20, 327531, Note_on_c, 13, 52, 0
20, 327540, Note_on_c, 13, 52, 84
20, 327540, Note_on_c, 13, 48, 84
20, 327591, Note_on_c, 13, 52, 0
20, 327591, Note_on_c, 13, 48, 0
20, 327600, Note_on_c, 13, 53, 84
20, 327600, Note_on_c, 13, 50, 84
20, 327651, Note_on_c, 13, 53, 0
20, 327651, Note_on_c, 13, 50, 0
20, 327660, Note_on_c, 13, 50, 84
20, 327660, Note_on_c, 13, 53, 84
20, 327711, Note_on_c, 13, 50, 0
20, 327711, Note_on_c, 13, 53, 0
20, 327720, Note_on_c, 13, 52, 84
20, 327720, Note_on_c, 13, 55, 84
20, 327771, Note_on_c, 13, 52, 0
20, 327771, Note_on_c, 13, 55, 0
20, 327780, Note_on_c, 13, 52, 84
20, 327780, Note_on_c, 13, 55, 84
20, 327831, Note_on_c, 13, 52, 0
20, 327831, Note_on_c, 13, 55, 0
20, 327840, Note_on_c, 13, 57, 84
20, 327840, Note_on_c, 13, 53, 84
20, 328019, Note_on_c, 13, 57, 0
20, 328019, Note_on_c, 13, 53, 0
20, 328800, Note_on_c, 13, 55, 84
20, 328979, Note_on_c, 13, 55, 0
20, 329760, Note_on_c, 13, 55, 76
20, 329819, Note_on_c, 13, 55, 0
20, 329820, Note_on_c, 13, 55, 52
20, 330239, Note_on_c, 13, 55, 0
20, 330240, Note_on_c, 13, 53, 52
20, 330479, Note_on_c, 13, 53, 0
20, 330480, Note_on_c, 13, 59, 52
20, 330719, Note_on_c, 13, 59, 0
20, 330720, Note_on_c, 13, 60, 52
20, 330959, Note_on_c, 13, 60, 0
20, 331680, Note_on_c, 13, 55, 76
20, 331739, Note_on_c, 13, 55, 0
20, 331740, Note_on_c, 13, 55, 52
20, 332159, Note_on_c, 13, 55, 0
20, 332160, Note_on_c, 13, 53, 52
20, 332399, Note_on_c, 13, 53, 0
20, 332400, Note_on_c, 13, 59, 52
20, 332639, Note_on_c, 13, 59, 0
20, 332640, Note_on_c, 13, 60, 52
20, 332879, Note_on_c, 13, 60, 0
20, 334080, Note_on_c, 13, 61, 76
20, 334139, Note_on_c, 13, 61, 0
20, 334140, Note_on_c, 13, 61, 52
20, 334559, Note_on_c, 13, 61, 0
20, 334560, Note_on_c, 13, 62, 52
20, 334784, Note_on_c, 13, 62, 0
20, 334800, Note_on_c, 13, 55, 52
20, 335024, Note_on_c, 13, 55, 0
20, 335040, Note_on_c, 13, 55, 52
20, 335264, Note_on_c, 13, 55, 0
20, 335280, Note_on_c, 13, 55, 52
20, 335504, Note_on_c, 13, 55, 0
20, 335520, Note_on_c, 13, 53, 52
20, 335759, Note_on_c, 13, 53, 0
20, 337440, Note_on_c, 13, 60, 76
20, 337440, Note_on_c, 13, 67, 76
20, 337491, Note_on_c, 13, 60, 0
20, 337491, Note_on_c, 13, 67, 0
20, 337500, Note_on_c, 13, 67, 76
20, 337500, Note_on_c, 13, 60, 76
20, 337551, Note_on_c, 13, 67, 0
20, 337551, Note_on_c, 13, 60, 0
20, 337560, Note_on_c, 13, 67, 76
20, 337560, Note_on_c, 13, 60, 76
20, 337611, Note_on_c, 13, 67, 0
20, 337611, Note_on_c, 13, 60, 0
20, 337620, Note_on_c, 13, 67, 76
20, 337620, Note_on_c, 13, 60, 76
20, 337671, Note_on_c, 13, 67, 0
20, 337671, Note_on_c, 13, 60, 0
20, 337680, Note_on_c, 13, 67, 76
20, 337680, Note_on_c, 13, 60, 76
20, 337731, Note_on_c, 13, 67, 0
20, 337731, Note_on_c, 13, 60, 0
20, 337740, Note_on_c, 13, 60, 76
20, 337740, Note_on_c, 13, 67, 76
20, 337791, Note_on_c, 13, 60, 0
20, 337791, Note_on_c, 13, 67, 0
20, 337800, Note_on_c, 13, 60, 76
20, 337800, Note_on_c, 13, 67, 76
20, 337851, Note_on_c, 13, 60, 0
20, 337851, Note_on_c, 13, 67, 0
20, 337860, Note_on_c, 13, 60, 76
20, 337860, Note_on_c, 13, 67, 76
20, 337911, Note_on_c, 13, 60, 0
20, 337911, Note_on_c, 13, 67, 0
20, 337920, Note_on_c, 13, 67, 76
20, 337920, Note_on_c, 13, 60, 76
20, 337971, Note_on_c, 13, 67, 0
20, 337971, Note_on_c, 13, 60, 0
20, 337980, Note_on_c, 13, 60, 76
20, 337980, Note_on_c, 13, 67, 76
20, 338031, Note_on_c, 13, 60, 0
20, 338031, Note_on_c, 13, 67, 0
20, 338040, Note_on_c, 13, 60, 76
20, 338040, Note_on_c, 13, 67, 76
20, 338091, Note_on_c, 13, 60, 0
20, 338091, Note_on_c, 13, 67, 0
20, 338100, Note_on_c, 13, 60, 76
20, 338100, Note_on_c, 13, 67, 76
20, 338151, Note_on_c, 13, 60, 0
20, 338151, Note_on_c, 13, 67, 0
20, 338160, Note_on_c, 13, 62, 76
20, 338160, Note_on_c, 13, 65, 76
20, 338211, Note_on_c, 13, 62, 0
20, 338211, Note_on_c, 13, 65, 0
20, 338220, Note_on_c, 13, 62, 76
20, 338220, Note_on_c, 13, 65, 76
20, 338271, Note_on_c, 13, 62, 0
20, 338271, Note_on_c, 13, 65, 0
20, 338280, Note_on_c, 13, 65, 76
20, 338280, Note_on_c, 13, 62, 76
20, 338331, Note_on_c, 13, 65, 0
20, 338331, Note_on_c, 13, 62, 0
20, 338340, Note_on_c, 13, 65, 76
20, 338340, Note_on_c, 13, 62, 76
20, 338391, Note_on_c, 13, 65, 0
20, 338391, Note_on_c, 13, 62, 0
20, 338400, Note_on_c, 13, 60, 76
20, 338400, Note_on_c, 13, 65, 76
20, 338451, Note_on_c, 13, 60, 0
20, 338451, Note_on_c, 13, 65, 0
20, 338460, Note_on_c, 13, 65, 76
20, 338460, Note_on_c, 13, 60, 76
20, 338511, Note_on_c, 13, 65, 0
20, 338511, Note_on_c, 13, 60, 0
20, 338520, Note_on_c, 13, 65, 76
20, 338520, Note_on_c, 13, 60, 76
20, 338571, Note_on_c, 13, 65, 0
20, 338571, Note_on_c, 13, 60, 0
20, 338580, Note_on_c, 13, 65, 76
20, 338580, Note_on_c, 13, 60, 76
20, 338631, Note_on_c, 13, 65, 0
20, 338631, Note_on_c, 13, 60, 0
20, 338640, Note_on_c, 13, 62, 76
20, 338640, Note_on_c, 13, 65, 76
20, 338691, Note_on_c, 13, 62, 0
20, 338691, Note_on_c, 13, 65, 0
20, 338700, Note_on_c, 13, 65, 76
20, 338700, Note_on_c, 13, 62, 76
20, 338751, Note_on_c, 13, 65, 0
20, 338751, Note_on_c, 13, 62, 0
20, 338760, Note_on_c, 13, 62, 76
20, 338760, Note_on_c, 13, 65, 76
20, 338811, Note_on_c, 13, 62, 0
20, 338811, Note_on_c, 13, 65, 0
20, 338820, Note_on_c, 13, 65, 76
20, 338820, Note_on_c, 13, 62, 76
20, 338871, Note_on_c, 13, 65, 0
20, 338871, Note_on_c, 13, 62, 0
20, 338880, Note_on_c, 13, 62, 76
20, 338880, Note_on_c, 13, 65, 76
20, 338931, Note_on_c, 13, 62, 0
20, 338931, Note_on_c, 13, 65, 0
20, 338940, Note_on_c, 13, 62, 76
20, 338940, Note_on_c, 13, 65, 76
20, 338991, Note_on_c, 13, 62, 0
20, 338991, Note_on_c, 13, 65, 0
20, 339000, Note_on_c, 13, 65, 76
20, 339000, Note_on_c, 13, 62, 76
20, 339051, Note_on_c, 13, 65, 0
20, 339051, Note_on_c, 13, 62, 0
20, 339060, Note_on_c, 13, 62, 76
20, 339060, Note_on_c, 13, 65, 76
20, 339111, Note_on_c, 13, 62, 0
20, 339111, Note_on_c, 13, 65, 0
20, 339120, Note_on_c, 13, 65, 76
20, 339120, Note_on_c, 13, 62, 76
20, 339171, Note_on_c, 13, 65, 0
20, 339171, Note_on_c, 13, 62, 0
20, 339180, Note_on_c, 13, 65, 76
20, 339180, Note_on_c, 13, 62, 76
20, 339231, Note_on_c, 13, 65, 0
20, 339231, Note_on_c, 13, 62, 0
20, 339240, Note_on_c, 13, 65, 76
20, 339240, Note_on_c, 13, 62, 76
20, 339291, Note_on_c, 13, 65, 0
20, 339291, Note_on_c, 13, 62, 0
20, 339300, Note_on_c, 13, 62, 76
20, 339300, Note_on_c, 13, 65, 76
20, 339351, Note_on_c, 13, 62, 0
20, 339351, Note_on_c, 13, 65, 0
20, 339360, Note_on_c, 13, 67, 84
20, 339360, Note_on_c, 13, 60, 84
20, 339411, Note_on_c, 13, 67, 0
20, 339411, Note_on_c, 13, 60, 0
20, 339420, Note_on_c, 13, 67, 76
20, 339420, Note_on_c, 13, 60, 76
20, 339471, Note_on_c, 13, 67, 0
20, 339471, Note_on_c, 13, 60, 0
20, 339480, Note_on_c, 13, 67, 76
20, 339480, Note_on_c, 13, 60, 76
20, 339531, Note_on_c, 13, 67, 0
20, 339531, Note_on_c, 13, 60, 0
20, 339540, Note_on_c, 13, 60, 76
20, 339540, Note_on_c, 13, 67, 76
20, 339591, Note_on_c, 13, 60, 0
20, 339591, Note_on_c, 13, 67, 0
20, 339600, Note_on_c, 13, 67, 76
20, 339600, Note_on_c, 13, 60, 76
20, 339651, Note_on_c, 13, 67, 0
20, 339651, Note_on_c, 13, 60, 0
20, 339660, Note_on_c, 13, 60, 76
20, 339660, Note_on_c, 13, 67, 76
20, 339711, Note_on_c, 13, 60, 0
20, 339711, Note_on_c, 13, 67, 0
20, 339720, Note_on_c, 13, 60, 76
20, 339720, Note_on_c, 13, 67, 76
20, 339771, Note_on_c, 13, 60, 0
20, 339771, Note_on_c, 13, 67, 0
20, 339780, Note_on_c, 13, 67, 76
20, 339780, Note_on_c, 13, 60, 76
20, 339831, Note_on_c, 13, 67, 0
20, 339831, Note_on_c, 13, 60, 0
20, 339840, Note_on_c, 13, 60, 76
20, 339840, Note_on_c, 13, 67, 76
20, 339891, Note_on_c, 13, 60, 0
20, 339891, Note_on_c, 13, 67, 0
20, 339900, Note_on_c, 13, 60, 76
20, 339900, Note_on_c, 13, 67, 76
20, 339951, Note_on_c, 13, 60, 0
20, 339951, Note_on_c, 13, 67, 0
20, 339960, Note_on_c, 13, 67, 76
20, 339960, Note_on_c, 13, 60, 76
20, 340011, Note_on_c, 13, 67, 0
20, 340011, Note_on_c, 13, 60, 0
20, 340020, Note_on_c, 13, 67, 76
20, 340020, Note_on_c, 13, 60, 76
20, 340071, Note_on_c, 13, 67, 0
20, 340071, Note_on_c, 13, 60, 0
20, 340080, Note_on_c, 13, 65, 76
20, 340080, Note_on_c, 13, 62, 76
20, 340131, Note_on_c, 13, 65, 0
20, 340131, Note_on_c, 13, 62, 0
20, 340140, Note_on_c, 13, 65, 76
20, 340140, Note_on_c, 13, 62, 76
20, 340191, Note_on_c, 13, 65, 0
20, 340191, Note_on_c, 13, 62, 0
20, 340200, Note_on_c, 13, 62, 76
20, 340200, Note_on_c, 13, 65, 76
20, 340251, Note_on_c, 13, 62, 0
20, 340251, Note_on_c, 13, 65, 0
20, 340260, Note_on_c, 13, 65, 76
20, 340260, Note_on_c, 13, 62, 76
20, 340311, Note_on_c, 13, 65, 0
20, 340311, Note_on_c, 13, 62, 0
20, 340320, Note_on_c, 13, 65, 76
20, 340320, Note_on_c, 13, 60, 76
20, 340371, Note_on_c, 13, 65, 0
20, 340371, Note_on_c, 13, 60, 0
20, 340380, Note_on_c, 13, 65, 76
20, 340380, Note_on_c, 13, 60, 76
20, 340431, Note_on_c, 13, 65, 0
20, 340431, Note_on_c, 13, 60, 0
20, 340440, Note_on_c, 13, 60, 76
20, 340440, Note_on_c, 13, 65, 76
20, 340491, Note_on_c, 13, 60, 0
20, 340491, Note_on_c, 13, 65, 0
20, 340500, Note_on_c, 13, 60, 76
20, 340500, Note_on_c, 13, 65, 76
20, 340551, Note_on_c, 13, 60, 0
20, 340551, Note_on_c, 13, 65, 0
20, 340560, Note_on_c, 13, 62, 76
20, 340560, Note_on_c, 13, 65, 76
20, 340611, Note_on_c, 13, 62, 0
20, 340611, Note_on_c, 13, 65, 0
20, 340620, Note_on_c, 13, 65, 76
20, 340620, Note_on_c, 13, 62, 76
20, 340671, Note_on_c, 13, 65, 0
20, 340671, Note_on_c, 13, 62, 0
20, 340680, Note_on_c, 13, 65, 76
20, 340680, Note_on_c, 13, 62, 76
20, 340731, Note_on_c, 13, 65, 0
20, 340731, Note_on_c, 13, 62, 0
20, 340740, Note_on_c, 13, 65, 76
20, 340740, Note_on_c, 13, 62, 76
20, 340791, Note_on_c, 13, 65, 0
20, 340791, Note_on_c, 13, 62, 0
20, 340800, Note_on_c, 13, 65, 76
20, 340800, Note_on_c, 13, 62, 76
20, 340851, Note_on_c, 13, 65, 0
20, 340851, Note_on_c, 13, 62, 0
20, 340860, Note_on_c, 13, 65, 76
20, 340860, Note_on_c, 13, 62, 76
20, 340911, Note_on_c, 13, 65, 0
20, 340911, Note_on_c, 13, 62, 0
20, 340920, Note_on_c, 13, 62, 76
20, 340920, Note_on_c, 13, 65, 76
20, 340971, Note_on_c, 13, 62, 0
20, 340971, Note_on_c, 13, 65, 0
20, 340980, Note_on_c, 13, 65, 76
20, 340980, Note_on_c, 13, 62, 76
20, 341031, Note_on_c, 13, 65, 0
20, 341031, Note_on_c, 13, 62, 0
20, 341040, Note_on_c, 13, 62, 76
20, 341040, Note_on_c, 13, 65, 76
20, 341091, Note_on_c, 13, 62, 0
20, 341091, Note_on_c, 13, 65, 0
20, 341100, Note_on_c, 13, 62, 76
20, 341100, Note_on_c, 13, 65, 76
20, 341151, Note_on_c, 13, 62, 0
20, 341151, Note_on_c, 13, 65, 0
20, 341160, Note_on_c, 13, 62, 76
20, 341160, Note_on_c, 13, 65, 76
20, 341211, Note_on_c, 13, 62, 0
20, 341211, Note_on_c, 13, 65, 0
20, 341220, Note_on_c, 13, 65, 76
20, 341220, Note_on_c, 13, 62, 76
20, 341271, Note_on_c, 13, 65, 0
20, 341271, Note_on_c, 13, 62, 0
20, 341280, Note_on_c, 13, 62, 84
20, 341280, Note_on_c, 13, 55, 84
20, 341331, Note_on_c, 13, 62, 0
20, 341331, Note_on_c, 13, 55, 0
20, 341340, Note_on_c, 13, 62, 76
20, 341340, Note_on_c, 13, 55, 76
20, 341391, Note_on_c, 13, 62, 0
20, 341391, Note_on_c, 13, 55, 0
20, 341400, Note_on_c, 13, 62, 76
20, 341400, Note_on_c, 13, 55, 76
20, 341451, Note_on_c, 13, 62, 0
20, 341451, Note_on_c, 13, 55, 0
20, 341460, Note_on_c, 13, 55, 76
20, 341460, Note_on_c, 13, 62, 76
20, 341511, Note_on_c, 13, 55, 0
20, 341511, Note_on_c, 13, 62, 0
20, 341520, Note_on_c, 13, 55, 76
20, 341520, Note_on_c, 13, 62, 76
20, 341571, Note_on_c, 13, 55, 0
20, 341571, Note_on_c, 13, 62, 0
20, 341580, Note_on_c, 13, 55, 76
20, 341580, Note_on_c, 13, 62, 76
20, 341631, Note_on_c, 13, 55, 0
20, 341631, Note_on_c, 13, 62, 0
20, 341640, Note_on_c, 13, 55, 76
20, 341640, Note_on_c, 13, 62, 76
20, 341691, Note_on_c, 13, 55, 0
20, 341691, Note_on_c, 13, 62, 0
20, 341700, Note_on_c, 13, 55, 76
20, 341700, Note_on_c, 13, 62, 76
20, 341751, Note_on_c, 13, 55, 0
20, 341751, Note_on_c, 13, 62, 0
20, 341760, Note_on_c, 13, 62, 76
20, 341760, Note_on_c, 13, 55, 76
20, 341811, Note_on_c, 13, 62, 0
20, 341811, Note_on_c, 13, 55, 0
20, 341820, Note_on_c, 13, 62, 76
20, 341820, Note_on_c, 13, 55, 76
20, 341871, Note_on_c, 13, 62, 0
20, 341871, Note_on_c, 13, 55, 0
20, 341880, Note_on_c, 13, 55, 76
20, 341880, Note_on_c, 13, 62, 76
20, 341931, Note_on_c, 13, 55, 0
20, 341931, Note_on_c, 13, 62, 0
20, 341940, Note_on_c, 13, 62, 76
20, 341940, Note_on_c, 13, 55, 76
20, 341991, Note_on_c, 13, 62, 0
20, 341991, Note_on_c, 13, 55, 0
20, 342000, Note_on_c, 13, 60, 76
20, 342000, Note_on_c, 13, 55, 76
20, 342051, Note_on_c, 13, 60, 0
20, 342051, Note_on_c, 13, 55, 0
20, 342060, Note_on_c, 13, 55, 76
20, 342060, Note_on_c, 13, 60, 76
20, 342111, Note_on_c, 13, 55, 0
20, 342111, Note_on_c, 13, 60, 0
20, 342120, Note_on_c, 13, 60, 76
20, 342120, Note_on_c, 13, 55, 76
20, 342171, Note_on_c, 13, 60, 0
20, 342171, Note_on_c, 13, 55, 0
20, 342180, Note_on_c, 13, 60, 76
20, 342180, Note_on_c, 13, 55, 76
20, 342231, Note_on_c, 13, 60, 0
20, 342231, Note_on_c, 13, 55, 0
20, 342240, Note_on_c, 13, 57, 76
20, 342240, Note_on_c, 13, 53, 76
20, 342291, Note_on_c, 13, 57, 0
20, 342291, Note_on_c, 13, 53, 0
20, 342300, Note_on_c, 13, 57, 76
20, 342300, Note_on_c, 13, 53, 76
20, 342351, Note_on_c, 13, 57, 0
20, 342351, Note_on_c, 13, 53, 0
20, 342360, Note_on_c, 13, 53, 76
20, 342360, Note_on_c, 13, 57, 76
20, 342411, Note_on_c, 13, 53, 0
20, 342411, Note_on_c, 13, 57, 0
20, 342420, Note_on_c, 13, 57, 76
20, 342420, Note_on_c, 13, 53, 76
20, 342471, Note_on_c, 13, 57, 0
20, 342471, Note_on_c, 13, 53, 0
20, 342480, Note_on_c, 13, 58, 80
20, 342480, Note_on_c, 13, 55, 80
20, 342531, Note_on_c, 13, 58, 0
20, 342531, Note_on_c, 13, 55, 0
20, 342540, Note_on_c, 13, 58, 80
20, 342540, Note_on_c, 13, 55, 80
20, 342591, Note_on_c, 13, 58, 0
20, 342591, Note_on_c, 13, 55, 0
20, 342600, Note_on_c, 13, 55, 80
20, 342600, Note_on_c, 13, 58, 80
20, 342651, Note_on_c, 13, 55, 0
20, 342651, Note_on_c, 13, 58, 0
20, 342660, Note_on_c, 13, 55, 80
20, 342660, Note_on_c, 13, 58, 80
20, 342711, Note_on_c, 13, 55, 0
20, 342711, Note_on_c, 13, 58, 0
20, 342720, Note_on_c, 13, 58, 80
20, 342720, Note_on_c, 13, 55, 80
20, 342771, Note_on_c, 13, 58, 0
20, 342771, Note_on_c, 13, 55, 0
20, 342780, Note_on_c, 13, 55, 80
20, 342780, Note_on_c, 13, 58, 80
20, 342831, Note_on_c, 13, 55, 0
20, 342831, Note_on_c, 13, 58, 0
20, 342840, Note_on_c, 13, 58, 80
20, 342840, Note_on_c, 13, 55, 80
20, 342891, Note_on_c, 13, 58, 0
20, 342891, Note_on_c, 13, 55, 0
20, 342900, Note_on_c, 13, 55, 80
20, 342900, Note_on_c, 13, 58, 80
20, 342951, Note_on_c, 13, 55, 0
20, 342951, Note_on_c, 13, 58, 0
20, 342960, Note_on_c, 13, 55, 80
20, 342960, Note_on_c, 13, 58, 80
20, 343011, Note_on_c, 13, 55, 0
20, 343011, Note_on_c, 13, 58, 0
20, 343020, Note_on_c, 13, 58, 80
20, 343020, Note_on_c, 13, 55, 80
20, 343071, Note_on_c, 13, 58, 0
20, 343071, Note_on_c, 13, 55, 0
20, 343080, Note_on_c, 13, 58, 80
20, 343080, Note_on_c, 13, 55, 80
20, 343131, Note_on_c, 13, 58, 0
20, 343131, Note_on_c, 13, 55, 0
20, 343140, Note_on_c, 13, 58, 80
20, 343140, Note_on_c, 13, 55, 80
20, 343191, Note_on_c, 13, 58, 0
20, 343191, Note_on_c, 13, 55, 0
20, 343200, Note_on_c, 13, 58, 80
20, 343200, Note_on_c, 13, 55, 80
20, 343251, Note_on_c, 13, 58, 0
20, 343251, Note_on_c, 13, 55, 0
20, 343260, Note_on_c, 13, 58, 80
20, 343260, Note_on_c, 13, 55, 80
20, 343311, Note_on_c, 13, 58, 0
20, 343311, Note_on_c, 13, 55, 0
20, 343320, Note_on_c, 13, 58, 80
20, 343320, Note_on_c, 13, 55, 80
20, 343371, Note_on_c, 13, 58, 0
20, 343371, Note_on_c, 13, 55, 0
20, 343380, Note_on_c, 13, 58, 80
20, 343380, Note_on_c, 13, 55, 80
20, 343431, Note_on_c, 13, 58, 0
20, 343431, Note_on_c, 13, 55, 0
20, 343440, Note_on_c, 13, 58, 80
20, 343440, Note_on_c, 13, 55, 80
20, 343491, Note_on_c, 13, 58, 0
20, 343491, Note_on_c, 13, 55, 0
20, 343500, Note_on_c, 13, 58, 80
20, 343500, Note_on_c, 13, 55, 80
20, 343551, Note_on_c, 13, 58, 0
20, 343551, Note_on_c, 13, 55, 0
20, 343560, Note_on_c, 13, 55, 80
20, 343560, Note_on_c, 13, 58, 80
20, 343611, Note_on_c, 13, 55, 0
20, 343611, Note_on_c, 13, 58, 0
20, 343620, Note_on_c, 13, 58, 80
20, 343620, Note_on_c, 13, 55, 80
20, 343671, Note_on_c, 13, 58, 0
20, 343671, Note_on_c, 13, 55, 0
20, 343680, Note_on_c, 13, 55, 80
20, 343680, Note_on_c, 13, 58, 80
20, 343731, Note_on_c, 13, 55, 0
20, 343731, Note_on_c, 13, 58, 0
20, 343740, Note_on_c, 13, 55, 80
20, 343740, Note_on_c, 13, 58, 80
20, 343791, Note_on_c, 13, 55, 0
20, 343791, Note_on_c, 13, 58, 0
20, 343800, Note_on_c, 13, 55, 80
20, 343800, Note_on_c, 13, 58, 80
20, 343851, Note_on_c, 13, 55, 0
20, 343851, Note_on_c, 13, 58, 0
20, 343860, Note_on_c, 13, 58, 80
20, 343860, Note_on_c, 13, 55, 80
20, 343911, Note_on_c, 13, 58, 0
20, 343911, Note_on_c, 13, 55, 0
20, 343920, Note_on_c, 13, 55, 80
20, 343920, Note_on_c, 13, 58, 80
20, 343971, Note_on_c, 13, 55, 0
20, 343971, Note_on_c, 13, 58, 0
20, 343980, Note_on_c, 13, 58, 80
20, 343980, Note_on_c, 13, 55, 80
20, 344031, Note_on_c, 13, 58, 0
20, 344031, Note_on_c, 13, 55, 0
20, 344040, Note_on_c, 13, 55, 80
20, 344040, Note_on_c, 13, 58, 80
20, 344091, Note_on_c, 13, 55, 0
20, 344091, Note_on_c, 13, 58, 0
20, 344100, Note_on_c, 13, 55, 80
20, 344100, Note_on_c, 13, 58, 80
20, 344151, Note_on_c, 13, 55, 0
20, 344151, Note_on_c, 13, 58, 0
20, 344160, Note_on_c, 13, 58, 80
20, 344160, Note_on_c, 13, 55, 80
20, 344211, Note_on_c, 13, 58, 0
20, 344211, Note_on_c, 13, 55, 0
20, 344220, Note_on_c, 13, 55, 80
20, 344220, Note_on_c, 13, 58, 80
20, 344271, Note_on_c, 13, 55, 0
20, 344271, Note_on_c, 13, 58, 0
20, 344280, Note_on_c, 13, 55, 80
20, 344280, Note_on_c, 13, 58, 80
20, 344331, Note_on_c, 13, 55, 0
20, 344331, Note_on_c, 13, 58, 0
20, 344340, Note_on_c, 13, 58, 80
20, 344340, Note_on_c, 13, 55, 80
20, 344391, Note_on_c, 13, 58, 0
20, 344391, Note_on_c, 13, 55, 0
20, 344400, Note_on_c, 13, 58, 80
20, 344400, Note_on_c, 13, 55, 80
20, 344451, Note_on_c, 13, 58, 0
20, 344451, Note_on_c, 13, 55, 0
20, 344460, Note_on_c, 13, 55, 80
20, 344460, Note_on_c, 13, 58, 80
20, 344511, Note_on_c, 13, 55, 0
20, 344511, Note_on_c, 13, 58, 0
20, 344520, Note_on_c, 13, 58, 80
20, 344520, Note_on_c, 13, 55, 80
20, 344571, Note_on_c, 13, 58, 0
20, 344571, Note_on_c, 13, 55, 0
20, 344580, Note_on_c, 13, 58, 80
20, 344580, Note_on_c, 13, 55, 80
20, 344631, Note_on_c, 13, 58, 0
20, 344631, Note_on_c, 13, 55, 0
20, 344640, Note_on_c, 13, 55, 80
20, 344640, Note_on_c, 13, 58, 80
20, 344691, Note_on_c, 13, 55, 0
20, 344691, Note_on_c, 13, 58, 0
20, 344700, Note_on_c, 13, 58, 80
20, 344700, Note_on_c, 13, 55, 80
20, 344751, Note_on_c, 13, 58, 0
20, 344751, Note_on_c, 13, 55, 0
20, 344760, Note_on_c, 13, 58, 80
20, 344760, Note_on_c, 13, 55, 80
20, 344811, Note_on_c, 13, 58, 0
20, 344811, Note_on_c, 13, 55, 0
20, 344820, Note_on_c, 13, 58, 80
20, 344820, Note_on_c, 13, 55, 80
20, 344871, Note_on_c, 13, 58, 0
20, 344871, Note_on_c, 13, 55, 0
20, 344880, Note_on_c, 13, 55, 80
20, 344880, Note_on_c, 13, 58, 80
20, 344931, Note_on_c, 13, 55, 0
20, 344931, Note_on_c, 13, 58, 0
20, 344940, Note_on_c, 13, 55, 80
20, 344940, Note_on_c, 13, 58, 80
20, 344991, Note_on_c, 13, 55, 0
20, 344991, Note_on_c, 13, 58, 0
20, 345000, Note_on_c, 13, 58, 80
20, 345000, Note_on_c, 13, 55, 80
20, 345051, Note_on_c, 13, 58, 0
20, 345051, Note_on_c, 13, 55, 0
20, 345060, Note_on_c, 13, 55, 80
20, 345060, Note_on_c, 13, 58, 80
20, 345111, Note_on_c, 13, 55, 0
20, 345111, Note_on_c, 13, 58, 0
20, 345120, Note_on_c, 13, 53, 84
20, 345120, Note_on_c, 13, 58, 84
20, 345171, Note_on_c, 13, 53, 0
20, 345171, Note_on_c, 13, 58, 0
20, 345180, Note_on_c, 13, 58, 84
20, 345180, Note_on_c, 13, 53, 84
20, 345231, Note_on_c, 13, 58, 0
20, 345231, Note_on_c, 13, 53, 0
20, 345240, Note_on_c, 13, 53, 84
20, 345240, Note_on_c, 13, 58, 84
20, 345291, Note_on_c, 13, 53, 0
20, 345291, Note_on_c, 13, 58, 0
20, 345300, Note_on_c, 13, 53, 84
20, 345300, Note_on_c, 13, 58, 84
20, 345351, Note_on_c, 13, 53, 0
20, 345351, Note_on_c, 13, 58, 0
20, 345360, Note_on_c, 13, 53, 84
20, 345360, Note_on_c, 13, 58, 84
20, 345411, Note_on_c, 13, 53, 0
20, 345411, Note_on_c, 13, 58, 0
20, 345420, Note_on_c, 13, 53, 84
20, 345420, Note_on_c, 13, 58, 84
20, 345471, Note_on_c, 13, 53, 0
20, 345471, Note_on_c, 13, 58, 0
20, 345480, Note_on_c, 13, 58, 84
20, 345480, Note_on_c, 13, 53, 84
20, 345531, Note_on_c, 13, 58, 0
20, 345531, Note_on_c, 13, 53, 0
20, 345540, Note_on_c, 13, 53, 84
20, 345540, Note_on_c, 13, 58, 84
20, 345591, Note_on_c, 13, 53, 0
20, 345591, Note_on_c, 13, 58, 0
20, 345600, Note_on_c, 13, 53, 84
20, 345600, Note_on_c, 13, 58, 84
20, 345651, Note_on_c, 13, 53, 0
20, 345651, Note_on_c, 13, 58, 0
20, 345660, Note_on_c, 13, 58, 84
20, 345660, Note_on_c, 13, 53, 84
20, 345711, Note_on_c, 13, 58, 0
20, 345711, Note_on_c, 13, 53, 0
20, 345720, Note_on_c, 13, 53, 84
20, 345720, Note_on_c, 13, 58, 84
20, 345771, Note_on_c, 13, 53, 0
20, 345771, Note_on_c, 13, 58, 0
20, 345780, Note_on_c, 13, 58, 84
20, 345780, Note_on_c, 13, 53, 84
20, 345831, Note_on_c, 13, 58, 0
20, 345831, Note_on_c, 13, 53, 0
20, 345840, Note_on_c, 13, 58, 84
20, 345840, Note_on_c, 13, 53, 84
20, 345891, Note_on_c, 13, 58, 0
20, 345891, Note_on_c, 13, 53, 0
20, 345900, Note_on_c, 13, 58, 84
20, 345900, Note_on_c, 13, 53, 84
20, 345951, Note_on_c, 13, 58, 0
20, 345951, Note_on_c, 13, 53, 0
20, 345960, Note_on_c, 13, 53, 84
20, 345960, Note_on_c, 13, 58, 84
20, 346011, Note_on_c, 13, 53, 0
20, 346011, Note_on_c, 13, 58, 0
20, 346020, Note_on_c, 13, 58, 84
20, 346020, Note_on_c, 13, 53, 84
20, 346071, Note_on_c, 13, 58, 0
20, 346071, Note_on_c, 13, 53, 0
20, 346080, Note_on_c, 13, 58, 84
20, 346080, Note_on_c, 13, 53, 84
20, 346131, Note_on_c, 13, 58, 0
20, 346131, Note_on_c, 13, 53, 0
20, 346140, Note_on_c, 13, 53, 84
20, 346140, Note_on_c, 13, 58, 84
20, 346191, Note_on_c, 13, 53, 0
20, 346191, Note_on_c, 13, 58, 0
20, 346200, Note_on_c, 13, 58, 84
20, 346200, Note_on_c, 13, 53, 84
20, 346251, Note_on_c, 13, 58, 0
20, 346251, Note_on_c, 13, 53, 0
20, 346260, Note_on_c, 13, 53, 84
20, 346260, Note_on_c, 13, 58, 84
20, 346311, Note_on_c, 13, 53, 0
20, 346311, Note_on_c, 13, 58, 0
20, 346320, Note_on_c, 13, 53, 84
20, 346320, Note_on_c, 13, 58, 84
20, 346371, Note_on_c, 13, 53, 0
20, 346371, Note_on_c, 13, 58, 0
20, 346380, Note_on_c, 13, 53, 84
20, 346380, Note_on_c, 13, 58, 84
20, 346431, Note_on_c, 13, 53, 0
20, 346431, Note_on_c, 13, 58, 0
20, 346440, Note_on_c, 13, 53, 84
20, 346440, Note_on_c, 13, 58, 84
20, 346491, Note_on_c, 13, 53, 0
20, 346491, Note_on_c, 13, 58, 0
20, 346500, Note_on_c, 13, 53, 84
20, 346500, Note_on_c, 13, 58, 84
20, 346551, Note_on_c, 13, 53, 0
20, 346551, Note_on_c, 13, 58, 0
20, 346560, Note_on_c, 13, 58, 84
20, 346560, Note_on_c, 13, 53, 84
20, 346611, Note_on_c, 13, 58, 0
20, 346611, Note_on_c, 13, 53, 0
20, 346620, Note_on_c, 13, 53, 84
20, 346620, Note_on_c, 13, 58, 84
20, 346671, Note_on_c, 13, 53, 0
20, 346671, Note_on_c, 13, 58, 0
20, 346680, Note_on_c, 13, 53, 84
20, 346680, Note_on_c, 13, 58, 84
20, 346731, Note_on_c, 13, 53, 0
20, 346731, Note_on_c, 13, 58, 0
20, 346740, Note_on_c, 13, 53, 84
20, 346740, Note_on_c, 13, 58, 84
20, 346791, Note_on_c, 13, 53, 0
20, 346791, Note_on_c, 13, 58, 0
20, 346800, Note_on_c, 13, 53, 84
20, 346800, Note_on_c, 13, 58, 84
20, 346851, Note_on_c, 13, 53, 0
20, 346851, Note_on_c, 13, 58, 0
20, 346860, Note_on_c, 13, 53, 84
20, 346860, Note_on_c, 13, 58, 84
20, 346911, Note_on_c, 13, 53, 0
20, 346911, Note_on_c, 13, 58, 0
20, 346920, Note_on_c, 13, 53, 84
20, 346920, Note_on_c, 13, 58, 84
20, 346971, Note_on_c, 13, 53, 0
20, 346971, Note_on_c, 13, 58, 0
20, 346980, Note_on_c, 13, 58, 84
20, 346980, Note_on_c, 13, 53, 84
20, 347031, Note_on_c, 13, 58, 0
20, 347031, Note_on_c, 13, 53, 0
20, 347040, Note_on_c, 13, 53, 84
20, 347040, Note_on_c, 13, 59, 84
20, 347091, Note_on_c, 13, 53, 0
20, 347091, Note_on_c, 13, 59, 0
20, 347100, Note_on_c, 13, 53, 84
20, 347100, Note_on_c, 13, 59, 84
20, 347151, Note_on_c, 13, 53, 0
20, 347151, Note_on_c, 13, 59, 0
20, 347160, Note_on_c, 13, 53, 84
20, 347160, Note_on_c, 13, 59, 84
20, 347211, Note_on_c, 13, 53, 0
20, 347211, Note_on_c, 13, 59, 0
20, 347220, Note_on_c, 13, 59, 84
20, 347220, Note_on_c, 13, 53, 84
20, 347271, Note_on_c, 13, 59, 0
20, 347271, Note_on_c, 13, 53, 0
20, 347280, Note_on_c, 13, 53, 84
20, 347280, Note_on_c, 13, 59, 84
20, 347331, Note_on_c, 13, 53, 0
20, 347331, Note_on_c, 13, 59, 0
20, 347340, Note_on_c, 13, 53, 84
20, 347340, Note_on_c, 13, 59, 84
20, 347391, Note_on_c, 13, 53, 0
20, 347391, Note_on_c, 13, 59, 0
20, 347400, Note_on_c, 13, 53, 84
20, 347400, Note_on_c, 13, 59, 84
20, 347451, Note_on_c, 13, 53, 0
20, 347451, Note_on_c, 13, 59, 0
20, 347460, Note_on_c, 13, 59, 84
20, 347460, Note_on_c, 13, 53, 84
20, 347511, Note_on_c, 13, 59, 0
20, 347511, Note_on_c, 13, 53, 0
20, 347520, Note_on_c, 13, 59, 84
20, 347520, Note_on_c, 13, 53, 84
20, 347571, Note_on_c, 13, 59, 0
20, 347571, Note_on_c, 13, 53, 0
20, 347580, Note_on_c, 13, 53, 84
20, 347580, Note_on_c, 13, 59, 84
20, 347631, Note_on_c, 13, 53, 0
20, 347631, Note_on_c, 13, 59, 0
20, 347640, Note_on_c, 13, 59, 84
20, 347640, Note_on_c, 13, 53, 84
20, 347691, Note_on_c, 13, 59, 0
20, 347691, Note_on_c, 13, 53, 0
20, 347700, Note_on_c, 13, 59, 84
20, 347700, Note_on_c, 13, 53, 84
20, 347751, Note_on_c, 13, 59, 0
20, 347751, Note_on_c, 13, 53, 0
20, 347760, Note_on_c, 13, 53, 84
20, 347760, Note_on_c, 13, 59, 84
20, 347811, Note_on_c, 13, 53, 0
20, 347811, Note_on_c, 13, 59, 0
20, 347820, Note_on_c, 13, 59, 84
20, 347820, Note_on_c, 13, 53, 84
20, 347871, Note_on_c, 13, 59, 0
20, 347871, Note_on_c, 13, 53, 0
20, 347880, Note_on_c, 13, 53, 84
20, 347880, Note_on_c, 13, 59, 84
20, 347931, Note_on_c, 13, 53, 0
20, 347931, Note_on_c, 13, 59, 0
20, 347940, Note_on_c, 13, 53, 84
20, 347940, Note_on_c, 13, 59, 84
20, 347991, Note_on_c, 13, 53, 0
20, 347991, Note_on_c, 13, 59, 0
20, 348000, Note_on_c, 13, 54, 84
20, 348000, Note_on_c, 13, 60, 84
20, 348051, Note_on_c, 13, 54, 0
20, 348051, Note_on_c, 13, 60, 0
20, 348060, Note_on_c, 13, 60, 84
20, 348060, Note_on_c, 13, 54, 84
20, 348111, Note_on_c, 13, 60, 0
20, 348111, Note_on_c, 13, 54, 0
20, 348120, Note_on_c, 13, 54, 84
20, 348120, Note_on_c, 13, 60, 84
20, 348171, Note_on_c, 13, 54, 0
20, 348171, Note_on_c, 13, 60, 0
20, 348180, Note_on_c, 13, 54, 84
20, 348180, Note_on_c, 13, 60, 84
20, 348231, Note_on_c, 13, 54, 0
20, 348231, Note_on_c, 13, 60, 0
20, 348240, Note_on_c, 13, 60, 84
20, 348240, Note_on_c, 13, 54, 84
20, 348291, Note_on_c, 13, 60, 0
20, 348291, Note_on_c, 13, 54, 0
20, 348300, Note_on_c, 13, 60, 84
20, 348300, Note_on_c, 13, 54, 84
20, 348351, Note_on_c, 13, 60, 0
20, 348351, Note_on_c, 13, 54, 0
20, 348360, Note_on_c, 13, 54, 84
20, 348360, Note_on_c, 13, 60, 84
20, 348411, Note_on_c, 13, 54, 0
20, 348411, Note_on_c, 13, 60, 0
20, 348420, Note_on_c, 13, 60, 84
20, 348420, Note_on_c, 13, 54, 84
20, 348471, Note_on_c, 13, 60, 0
20, 348471, Note_on_c, 13, 54, 0
20, 348480, Note_on_c, 13, 60, 84
20, 348480, Note_on_c, 13, 54, 84
20, 348531, Note_on_c, 13, 60, 0
20, 348531, Note_on_c, 13, 54, 0
20, 348540, Note_on_c, 13, 60, 84
20, 348540, Note_on_c, 13, 54, 84
20, 348591, Note_on_c, 13, 60, 0
20, 348591, Note_on_c, 13, 54, 0
20, 348600, Note_on_c, 13, 54, 84
20, 348600, Note_on_c, 13, 60, 84
20, 348651, Note_on_c, 13, 54, 0
20, 348651, Note_on_c, 13, 60, 0
20, 348660, Note_on_c, 13, 60, 84
20, 348660, Note_on_c, 13, 54, 84
20, 348711, Note_on_c, 13, 60, 0
20, 348711, Note_on_c, 13, 54, 0
20, 348720, Note_on_c, 13, 60, 84
20, 348720, Note_on_c, 13, 54, 84
20, 348771, Note_on_c, 13, 60, 0
20, 348771, Note_on_c, 13, 54, 0
20, 348780, Note_on_c, 13, 54, 84
20, 348780, Note_on_c, 13, 60, 84
20, 348831, Note_on_c, 13, 54, 0
20, 348831, Note_on_c, 13, 60, 0
20, 348840, Note_on_c, 13, 60, 84
20, 348840, Note_on_c, 13, 54, 84
20, 348891, Note_on_c, 13, 60, 0
20, 348891, Note_on_c, 13, 54, 0
20, 348900, Note_on_c, 13, 60, 84
20, 348900, Note_on_c, 13, 54, 84
20, 348951, Note_on_c, 13, 60, 0
20, 348951, Note_on_c, 13, 54, 0
20, 348960, Note_on_c, 13, 60, 84
20, 348960, Note_on_c, 13, 54, 84
20, 349011, Note_on_c, 13, 60, 0
20, 349011, Note_on_c, 13, 54, 0
20, 349020, Note_on_c, 13, 54, 84
20, 349020, Note_on_c, 13, 60, 84
20, 349071, Note_on_c, 13, 54, 0
20, 349071, Note_on_c, 13, 60, 0
20, 349080, Note_on_c, 13, 60, 84
20, 349080, Note_on_c, 13, 54, 84
20, 349131, Note_on_c, 13, 60, 0
20, 349131, Note_on_c, 13, 54, 0
20, 349140, Note_on_c, 13, 60, 84
20, 349140, Note_on_c, 13, 54, 84
20, 349191, Note_on_c, 13, 60, 0
20, 349191, Note_on_c, 13, 54, 0
20, 349200, Note_on_c, 13, 54, 84
20, 349200, Note_on_c, 13, 60, 84
20, 349251, Note_on_c, 13, 54, 0
20, 349251, Note_on_c, 13, 60, 0
20, 349260, Note_on_c, 13, 60, 84
20, 349260, Note_on_c, 13, 54, 84
20, 349311, Note_on_c, 13, 60, 0
20, 349311, Note_on_c, 13, 54, 0
20, 349320, Note_on_c, 13, 60, 84
20, 349320, Note_on_c, 13, 54, 84
20, 349371, Note_on_c, 13, 60, 0
20, 349371, Note_on_c, 13, 54, 0
20, 349380, Note_on_c, 13, 60, 84
20, 349380, Note_on_c, 13, 54, 84
20, 349431, Note_on_c, 13, 60, 0
20, 349431, Note_on_c, 13, 54, 0
20, 349440, Note_on_c, 13, 60, 84
20, 349440, Note_on_c, 13, 54, 84
20, 349491, Note_on_c, 13, 60, 0
20, 349491, Note_on_c, 13, 54, 0
20, 349500, Note_on_c, 13, 60, 84
20, 349500, Note_on_c, 13, 54, 84
20, 349551, Note_on_c, 13, 60, 0
20, 349551, Note_on_c, 13, 54, 0
20, 349560, Note_on_c, 13, 54, 84
20, 349560, Note_on_c, 13, 60, 84
20, 349611, Note_on_c, 13, 54, 0
20, 349611, Note_on_c, 13, 60, 0
20, 349620, Note_on_c, 13, 54, 84
20, 349620, Note_on_c, 13, 60, 84
20, 349671, Note_on_c, 13, 54, 0
20, 349671, Note_on_c, 13, 60, 0
20, 349680, Note_on_c, 13, 54, 84
20, 349680, Note_on_c, 13, 60, 84
20, 349731, Note_on_c, 13, 54, 0
20, 349731, Note_on_c, 13, 60, 0
20, 349740, Note_on_c, 13, 60, 84
20, 349740, Note_on_c, 13, 54, 84
20, 349791, Note_on_c, 13, 60, 0
20, 349791, Note_on_c, 13, 54, 0
20, 349800, Note_on_c, 13, 54, 84
20, 349800, Note_on_c, 13, 60, 84
20, 349851, Note_on_c, 13, 54, 0
20, 349851, Note_on_c, 13, 60, 0
20, 349860, Note_on_c, 13, 60, 84
20, 349860, Note_on_c, 13, 54, 84
20, 349911, Note_on_c, 13, 60, 0
20, 349911, Note_on_c, 13, 54, 0
20, 349920, Note_on_c, 13, 55, 92
20, 349979, Note_on_c, 13, 55, 0
20, 349980, Note_on_c, 13, 55, 84
20, 350639, Note_on_c, 13, 55, 0
20, 351120, Note_on_c, 13, 62, 76
20, 351199, Note_on_c, 13, 62, 0
20, 351200, Note_on_c, 13, 64, 76
20, 351279, Note_on_c, 13, 64, 0
20, 351300, Note_on_c, 13, 65, 76
20, 351379, Note_on_c, 13, 65, 0
20, 351600, Note_on_c, 13, 60, 76
20, 351679, Note_on_c, 13, 60, 0
20, 351680, Note_on_c, 13, 62, 76
20, 351759, Note_on_c, 13, 62, 0
20, 351760, Note_on_c, 13, 64, 76
20, 351839, Note_on_c, 13, 64, 0
20, 352080, Note_on_c, 13, 59, 76
20, 352159, Note_on_c, 13, 59, 0
20, 352160, Note_on_c, 13, 60, 76
20, 352239, Note_on_c, 13, 60, 0
20, 352240, Note_on_c, 13, 62, 76
20, 352319, Note_on_c, 13, 62, 0
20, 353040, Note_on_c, 13, 64, 76
20, 353119, Note_on_c, 13, 64, 0
20, 353120, Note_on_c, 13, 65, 76
20, 353199, Note_on_c, 13, 65, 0
20, 353200, Note_on_c, 13, 67, 76
20, 353279, Note_on_c, 13, 67, 0
20, 353520, Note_on_c, 13, 62, 76
20, 353599, Note_on_c, 13, 62, 0
20, 353600, Note_on_c, 13, 64, 76
20, 353679, Note_on_c, 13, 64, 0
20, 353680, Note_on_c, 13, 65, 76
20, 353759, Note_on_c, 13, 65, 0
20, 354000, Note_on_c, 13, 60, 76
20, 354079, Note_on_c, 13, 60, 0
20, 354080, Note_on_c, 13, 62, 76
20, 354159, Note_on_c, 13, 62, 0
20, 354160, Note_on_c, 13, 64, 76
20, 354239, Note_on_c, 13, 64, 0
20, 354480, Note_on_c, 13, 67, 76
20, 354559, Note_on_c, 13, 67, 0
20, 354560, Note_on_c, 13, 65, 76
20, 354639, Note_on_c, 13, 65, 0
20, 354640, Note_on_c, 13, 64, 76
20, 354719, Note_on_c, 13, 64, 0
20, 354720, Note_on_c, 13, 62, 76
20, 354959, Note_on_c, 13, 62, 0
20, 354960, Note_on_c, 13, 65, 76
20, 355039, Note_on_c, 13, 65, 0
20, 355040, Note_on_c, 13, 64, 76
20, 355119, Note_on_c, 13, 64, 0
20, 355120, Note_on_c, 13, 62, 76
20, 355199, Note_on_c, 13, 62, 0
20, 355200, Note_on_c, 13, 60, 76
20, 355439, Note_on_c, 13, 60, 0
20, 355440, Note_on_c, 13, 64, 76
20, 355519, Note_on_c, 13, 64, 0
20, 355520, Note_on_c, 13, 62, 76
20, 355599, Note_on_c, 13, 62, 0
20, 355600, Note_on_c, 13, 60, 76
20, 355667, Note_on_c, 13, 60, 0
20, 355680, Note_on_c, 13, 59, 76
20, 355859, Note_on_c, 13, 59, 0
20, 355920, Note_on_c, 13, 59, 76
20, 355999, Note_on_c, 13, 59, 0
20, 356000, Note_on_c, 13, 60, 76
20, 356079, Note_on_c, 13, 60, 0
20, 356080, Note_on_c, 13, 62, 76
20, 356147, Note_on_c, 13, 62, 0
20, 356160, Note_on_c, 13, 55, 76
20, 356339, Note_on_c, 13, 55, 0
20, 356400, Note_on_c, 13, 69, 76
20, 356479, Note_on_c, 13, 69, 0
20, 356480, Note_on_c, 13, 67, 76
20, 356559, Note_on_c, 13, 67, 0
20, 356560, Note_on_c, 13, 65, 76
20, 356639, Note_on_c, 13, 65, 0
20, 356640, Note_on_c, 13, 64, 76
20, 356879, Note_on_c, 13, 64, 0
20, 356880, Note_on_c, 13, 67, 76
20, 356959, Note_on_c, 13, 67, 0
20, 356960, Note_on_c, 13, 65, 76
20, 357039, Note_on_c, 13, 65, 0
20, 357040, Note_on_c, 13, 64, 76
20, 357119, Note_on_c, 13, 64, 0
20, 357120, Note_on_c, 13, 62, 76
20, 357359, Note_on_c, 13, 62, 0
20, 357360, Note_on_c, 13, 65, 76
20, 357439, Note_on_c, 13, 65, 0
20, 357440, Note_on_c, 13, 64, 76
20, 357519, Note_on_c, 13, 64, 0
20, 357520, Note_on_c, 13, 62, 76
20, 357587, Note_on_c, 13, 62, 0
20, 357600, Note_on_c, 13, 60, 76
20, 357779, Note_on_c, 13, 60, 0
20, 357840, Note_on_c, 13, 60, 76
20, 357919, Note_on_c, 13, 60, 0
20, 357920, Note_on_c, 13, 62, 76
20, 357999, Note_on_c, 13, 62, 0
20, 358000, Note_on_c, 13, 64, 76
20, 358067, Note_on_c, 13, 64, 0
20, 358080, Note_on_c, 13, 55, 76
20, 358259, Note_on_c, 13, 55, 0
20, 358320, Note_on_c, 13, 55, 80
20, 358387, Note_on_c, 13, 55, 0
20, 358400, Note_on_c, 13, 55, 80
20, 358467, Note_on_c, 13, 55, 0
20, 358480, Note_on_c, 13, 55, 80
20, 358547, Note_on_c, 13, 55, 0
20, 358560, Note_on_c, 13, 67, 80
20, 358560, Note_on_c, 13, 55, 80
20, 358627, Note_on_c, 13, 67, 0
20, 358627, Note_on_c, 13, 55, 0
20, 358640, Note_on_c, 13, 55, 80
20, 358640, Note_on_c, 13, 67, 80
20, 358707, Note_on_c, 13, 55, 0
20, 358707, Note_on_c, 13, 67, 0
20, 358720, Note_on_c, 13, 67, 80
20, 358720, Note_on_c, 13, 55, 80
20, 358787, Note_on_c, 13, 67, 0
20, 358787, Note_on_c, 13, 55, 0
20, 358800, Note_on_c, 13, 67, 80
20, 358800, Note_on_c, 13, 55, 80
20, 358867, Note_on_c, 13, 67, 0
20, 358867, Note_on_c, 13, 55, 0
20, 358880, Note_on_c, 13, 67, 80
20, 358880, Note_on_c, 13, 55, 80
20, 358947, Note_on_c, 13, 67, 0
20, 358947, Note_on_c, 13, 55, 0
20, 358960, Note_on_c, 13, 67, 80
20, 358960, Note_on_c, 13, 55, 80
20, 359027, Note_on_c, 13, 67, 0
20, 359027, Note_on_c, 13, 55, 0
20, 359040, Note_on_c, 13, 67, 80
20, 359040, Note_on_c, 13, 55, 80
20, 359107, Note_on_c, 13, 67, 0
20, 359107, Note_on_c, 13, 55, 0
20, 359120, Note_on_c, 13, 67, 80
20, 359120, Note_on_c, 13, 55, 80
20, 359187, Note_on_c, 13, 67, 0
20, 359187, Note_on_c, 13, 55, 0
20, 359200, Note_on_c, 13, 67, 80
20, 359200, Note_on_c, 13, 55, 80
20, 359267, Note_on_c, 13, 67, 0
20, 359267, Note_on_c, 13, 55, 0
20, 359280, Note_on_c, 13, 67, 80
20, 359280, Note_on_c, 13, 55, 80
20, 359347, Note_on_c, 13, 67, 0
20, 359347, Note_on_c, 13, 55, 0
20, 359360, Note_on_c, 13, 55, 80
20, 359360, Note_on_c, 13, 67, 80
20, 359427, Note_on_c, 13, 55, 0
20, 359427, Note_on_c, 13, 67, 0
20, 359440, Note_on_c, 13, 67, 80
20, 359440, Note_on_c, 13, 55, 80
20, 359507, Note_on_c, 13, 67, 0
20, 359507, Note_on_c, 13, 55, 0
20, 359520, Note_on_c, 13, 67, 80
20, 359520, Note_on_c, 13, 55, 80
20, 359587, Note_on_c, 13, 67, 0
20, 359587, Note_on_c, 13, 55, 0
20, 359600, Note_on_c, 13, 67, 80
20, 359600, Note_on_c, 13, 55, 80
20, 359667, Note_on_c, 13, 67, 0
20, 359667, Note_on_c, 13, 55, 0
20, 359680, Note_on_c, 13, 67, 80
20, 359680, Note_on_c, 13, 55, 80
20, 359747, Note_on_c, 13, 67, 0
20, 359747, Note_on_c, 13, 55, 0
20, 359760, Note_on_c, 13, 67, 80
20, 359760, Note_on_c, 13, 55, 80
20, 359827, Note_on_c, 13, 67, 0
20, 359827, Note_on_c, 13, 55, 0
20, 359840, Note_on_c, 13, 67, 80
20, 359840, Note_on_c, 13, 55, 80
20, 359907, Note_on_c, 13, 67, 0
20, 359907, Note_on_c, 13, 55, 0
20, 359920, Note_on_c, 13, 67, 80
20, 359920, Note_on_c, 13, 55, 80
20, 359987, Note_on_c, 13, 67, 0
20, 359987, Note_on_c, 13, 55, 0
20, 360000, Note_on_c, 13, 55, 80
20, 360000, Note_on_c, 13, 67, 80
20, 360067, Note_on_c, 13, 55, 0
20, 360067, Note_on_c, 13, 67, 0
20, 360080, Note_on_c, 13, 67, 80
20, 360080, Note_on_c, 13, 55, 80
20, 360147, Note_on_c, 13, 67, 0
20, 360147, Note_on_c, 13, 55, 0
20, 360160, Note_on_c, 13, 55, 80
20, 360160, Note_on_c, 13, 67, 80
20, 360227, Note_on_c, 13, 55, 0
20, 360227, Note_on_c, 13, 67, 0
20, 360240, Note_on_c, 13, 67, 80
20, 360240, Note_on_c, 13, 55, 80
20, 360307, Note_on_c, 13, 67, 0
20, 360307, Note_on_c, 13, 55, 0
20, 360320, Note_on_c, 13, 55, 80
20, 360320, Note_on_c, 13, 67, 80
20, 360387, Note_on_c, 13, 55, 0
20, 360387, Note_on_c, 13, 67, 0
20, 360400, Note_on_c, 13, 67, 80
20, 360400, Note_on_c, 13, 55, 80
20, 360467, Note_on_c, 13, 67, 0
20, 360467, Note_on_c, 13, 55, 0
20, 360480, Note_on_c, 13, 67, 80
20, 360480, Note_on_c, 13, 55, 80
20, 360547, Note_on_c, 13, 67, 0
20, 360547, Note_on_c, 13, 55, 0
20, 360560, Note_on_c, 13, 67, 80
20, 360560, Note_on_c, 13, 55, 80
20, 360627, Note_on_c, 13, 67, 0
20, 360627, Note_on_c, 13, 55, 0
20, 360640, Note_on_c, 13, 55, 80
20, 360640, Note_on_c, 13, 67, 80
20, 360707, Note_on_c, 13, 55, 0
20, 360707, Note_on_c, 13, 67, 0
20, 360720, Note_on_c, 13, 67, 80
20, 360720, Note_on_c, 13, 55, 80
20, 360787, Note_on_c, 13, 67, 0
20, 360787, Note_on_c, 13, 55, 0
20, 360800, Note_on_c, 13, 55, 80
20, 360800, Note_on_c, 13, 67, 80
20, 360867, Note_on_c, 13, 55, 0
20, 360867, Note_on_c, 13, 67, 0
20, 360880, Note_on_c, 13, 55, 80
20, 360880, Note_on_c, 13, 67, 80
20, 360947, Note_on_c, 13, 55, 0
20, 360947, Note_on_c, 13, 67, 0
20, 360960, Note_on_c, 13, 55, 80
20, 360960, Note_on_c, 13, 67, 80
20, 361027, Note_on_c, 13, 55, 0
20, 361027, Note_on_c, 13, 67, 0
20, 361040, Note_on_c, 13, 67, 80
20, 361040, Note_on_c, 13, 55, 80
20, 361107, Note_on_c, 13, 67, 0
20, 361107, Note_on_c, 13, 55, 0
20, 361120, Note_on_c, 13, 55, 80
20, 361120, Note_on_c, 13, 67, 80
20, 361187, Note_on_c, 13, 55, 0
20, 361187, Note_on_c, 13, 67, 0
20, 361200, Note_on_c, 13, 67, 80
20, 361200, Note_on_c, 13, 55, 80
20, 361267, Note_on_c, 13, 67, 0
20, 361267, Note_on_c, 13, 55, 0
20, 361280, Note_on_c, 13, 55, 80
20, 361280, Note_on_c, 13, 67, 80
20, 361347, Note_on_c, 13, 55, 0
20, 361347, Note_on_c, 13, 67, 0
20, 361360, Note_on_c, 13, 55, 80
20, 361360, Note_on_c, 13, 67, 80
20, 361427, Note_on_c, 13, 55, 0
20, 361427, Note_on_c, 13, 67, 0
20, 361440, Note_on_c, 13, 61, 84
20, 361507, Note_on_c, 13, 61, 0
20, 361520, Note_on_c, 13, 61, 84
20, 361587, Note_on_c, 13, 61, 0
20, 361600, Note_on_c, 13, 61, 84
20, 361667, Note_on_c, 13, 61, 0
20, 361680, Note_on_c, 13, 61, 84
20, 361747, Note_on_c, 13, 61, 0
20, 361760, Note_on_c, 13, 61, 84
20, 361827, Note_on_c, 13, 61, 0
20, 361840, Note_on_c, 13, 61, 84
20, 361907, Note_on_c, 13, 61, 0
20, 361920, Note_on_c, 13, 61, 84
20, 361987, Note_on_c, 13, 61, 0
20, 362000, Note_on_c, 13, 61, 84
20, 362067, Note_on_c, 13, 61, 0
20, 362080, Note_on_c, 13, 61, 84
20, 362147, Note_on_c, 13, 61, 0
20, 362160, Note_on_c, 13, 61, 84
20, 362227, Note_on_c, 13, 61, 0
20, 362240, Note_on_c, 13, 61, 84
20, 362307, Note_on_c, 13, 61, 0
20, 362320, Note_on_c, 13, 61, 84
20, 362387, Note_on_c, 13, 61, 0
20, 362400, Note_on_c, 13, 60, 84
20, 362467, Note_on_c, 13, 60, 0
20, 362480, Note_on_c, 13, 60, 84
20, 362547, Note_on_c, 13, 60, 0
20, 362560, Note_on_c, 13, 60, 84
20, 362627, Note_on_c, 13, 60, 0
20, 362640, Note_on_c, 13, 60, 84
20, 362707, Note_on_c, 13, 60, 0
20, 362720, Note_on_c, 13, 60, 84
20, 362787, Note_on_c, 13, 60, 0
20, 362800, Note_on_c, 13, 60, 84
20, 362867, Note_on_c, 13, 60, 0
20, 362880, Note_on_c, 13, 60, 84
20, 362947, Note_on_c, 13, 60, 0
20, 362960, Note_on_c, 13, 60, 84
20, 363027, Note_on_c, 13, 60, 0
20, 363040, Note_on_c, 13, 60, 84
20, 363107, Note_on_c, 13, 60, 0
20, 363120, Note_on_c, 13, 60, 84
20, 363187, Note_on_c, 13, 60, 0
20, 363200, Note_on_c, 13, 60, 84
20, 363267, Note_on_c, 13, 60, 0
20, 363280, Note_on_c, 13, 60, 84
20, 363347, Note_on_c, 13, 60, 0
20, 363360, Note_on_c, 13, 60, 84
20, 363411, Note_on_c, 13, 60, 0
20, 363420, Note_on_c, 13, 57, 84
20, 363471, Note_on_c, 13, 57, 0
20, 363480, Note_on_c, 13, 60, 84
20, 363531, Note_on_c, 13, 60, 0
20, 363540, Note_on_c, 13, 60, 84
20, 363591, Note_on_c, 13, 60, 0
20, 363600, Note_on_c, 13, 60, 92
20, 363651, Note_on_c, 13, 60, 0
20, 363660, Note_on_c, 13, 60, 84
20, 363711, Note_on_c, 13, 60, 0
20, 363720, Note_on_c, 13, 60, 84
20, 363771, Note_on_c, 13, 60, 0
20, 363780, Note_on_c, 13, 60, 84
20, 363831, Note_on_c, 13, 60, 0
20, 363840, Note_on_c, 13, 60, 84
20, 363891, Note_on_c, 13, 60, 0
20, 363900, Note_on_c, 13, 60, 84
20, 363951, Note_on_c, 13, 60, 0
20, 363960, Note_on_c, 13, 60, 84
20, 364011, Note_on_c, 13, 60, 0
20, 364020, Note_on_c, 13, 60, 84
20, 364071, Note_on_c, 13, 60, 0
20, 364080, Note_on_c, 13, 60, 84
20, 364131, Note_on_c, 13, 60, 0
20, 364140, Note_on_c, 13, 60, 84
20, 364191, Note_on_c, 13, 60, 0
20, 364200, Note_on_c, 13, 60, 84
20, 364251, Note_on_c, 13, 60, 0
20, 364260, Note_on_c, 13, 60, 84
20, 364311, Note_on_c, 13, 60, 0
20, 364320, Note_on_c, 13, 69, 84
20, 364371, Note_on_c, 13, 69, 0
20, 364380, Note_on_c, 13, 60, 84
20, 364431, Note_on_c, 13, 60, 0
20, 364440, Note_on_c, 13, 69, 84
20, 364491, Note_on_c, 13, 69, 0
20, 364500, Note_on_c, 13, 69, 84
20, 364551, Note_on_c, 13, 69, 0
20, 364560, Note_on_c, 13, 69, 92
20, 364611, Note_on_c, 13, 69, 0
20, 364620, Note_on_c, 13, 69, 84
20, 364671, Note_on_c, 13, 69, 0
20, 364680, Note_on_c, 13, 69, 84
20, 364731, Note_on_c, 13, 69, 0
20, 364740, Note_on_c, 13, 69, 84
20, 364791, Note_on_c, 13, 69, 0
20, 364800, Note_on_c, 13, 69, 84
20, 364851, Note_on_c, 13, 69, 0
20, 364860, Note_on_c, 13, 69, 84
20, 364911, Note_on_c, 13, 69, 0
20, 364920, Note_on_c, 13, 69, 84
20, 364971, Note_on_c, 13, 69, 0
20, 364980, Note_on_c, 13, 69, 84
20, 365031, Note_on_c, 13, 69, 0
20, 365040, Note_on_c, 13, 69, 84
20, 365091, Note_on_c, 13, 69, 0
20, 365100, Note_on_c, 13, 69, 84
20, 365151, Note_on_c, 13, 69, 0
20, 365160, Note_on_c, 13, 69, 84
20, 365211, Note_on_c, 13, 69, 0
20, 365220, Note_on_c, 13, 69, 84
20, 365271, Note_on_c, 13, 69, 0
20, 365280, Note_on_c, 13, 69, 84
20, 365331, Note_on_c, 13, 69, 0
20, 365340, Note_on_c, 13, 60, 84
20, 365391, Note_on_c, 13, 60, 0
20, 365400, Note_on_c, 13, 69, 84
20, 365451, Note_on_c, 13, 69, 0
20, 365460, Note_on_c, 13, 69, 84
20, 365511, Note_on_c, 13, 69, 0
20, 365520, Note_on_c, 13, 69, 92
20, 365571, Note_on_c, 13, 69, 0
20, 365580, Note_on_c, 13, 69, 84
20, 365631, Note_on_c, 13, 69, 0
20, 365640, Note_on_c, 13, 69, 84
20, 365691, Note_on_c, 13, 69, 0
20, 365700, Note_on_c, 13, 69, 84
20, 365751, Note_on_c, 13, 69, 0
20, 365760, Note_on_c, 13, 69, 84
20, 365811, Note_on_c, 13, 69, 0
20, 365820, Note_on_c, 13, 69, 84
20, 365871, Note_on_c, 13, 69, 0
20, 365880, Note_on_c, 13, 69, 84
20, 365931, Note_on_c, 13, 69, 0
20, 365940, Note_on_c, 13, 69, 84
20, 365991, Note_on_c, 13, 69, 0
20, 366000, Note_on_c, 13, 69, 84
20, 366051, Note_on_c, 13, 69, 0
20, 366060, Note_on_c, 13, 69, 84
20, 366111, Note_on_c, 13, 69, 0
20, 366120, Note_on_c, 13, 69, 84
20, 366171, Note_on_c, 13, 69, 0
20, 366180, Note_on_c, 13, 69, 84
20, 366231, Note_on_c, 13, 69, 0
20, 366240, Note_on_c, 13, 72, 84
20, 366291, Note_on_c, 13, 72, 0
20, 366300, Note_on_c, 13, 69, 84
20, 366351, Note_on_c, 13, 69, 0
20, 366360, Note_on_c, 13, 72, 84
20, 366411, Note_on_c, 13, 72, 0
20, 366420, Note_on_c, 13, 72, 84
20, 366471, Note_on_c, 13, 72, 0
20, 366480, Note_on_c, 13, 72, 92
20, 366531, Note_on_c, 13, 72, 0
20, 366540, Note_on_c, 13, 72, 84
20, 366591, Note_on_c, 13, 72, 0
20, 366600, Note_on_c, 13, 72, 84
20, 366651, Note_on_c, 13, 72, 0
20, 366660, Note_on_c, 13, 72, 84
20, 366711, Note_on_c, 13, 72, 0
20, 366720, Note_on_c, 13, 72, 84
20, 366771, Note_on_c, 13, 72, 0
20, 366780, Note_on_c, 13, 72, 84
20, 366831, Note_on_c, 13, 72, 0
20, 366840, Note_on_c, 13, 72, 84
20, 366891, Note_on_c, 13, 72, 0
20, 366900, Note_on_c, 13, 72, 84
20, 366951, Note_on_c, 13, 72, 0
20, 366960, Note_on_c, 13, 72, 84
20, 367011, Note_on_c, 13, 72, 0
20, 367020, Note_on_c, 13, 72, 84
20, 367071, Note_on_c, 13, 72, 0
20, 367080, Note_on_c, 13, 72, 84
20, 367131, Note_on_c, 13, 72, 0
20, 367140, Note_on_c, 13, 72, 84
20, 367191, Note_on_c, 13, 72, 0
20, 367200, Note_on_c, 13, 71, 84
20, 367379, Note_on_c, 13, 71, 0
20, 368160, Note_on_c, 13, 55, 84
20, 368160, Note_on_c, 13, 62, 84
20, 368160, Note_on_c, 13, 71, 84
20, 368339, Note_on_c, 13, 55, 0
20, 368339, Note_on_c, 13, 62, 0
20, 368339, Note_on_c, 13, 71, 0
20, 369120, Note_on_c, 13, 55, 84
20, 369120, Note_on_c, 13, 64, 84
20, 369120, Note_on_c, 13, 72, 84
20, 369120, Note_on_c, 13, 48, 84
20, 369299, Note_on_c, 13, 55, 0
20, 369299, Note_on_c, 13, 64, 0
20, 369299, Note_on_c, 13, 72, 0
20, 369299, Note_on_c, 13, 48, 0
20, 370080, Note_on_c, 13, 62, 84
20, 370080, Note_on_c, 13, 71, 84
20, 370080, Note_on_c, 13, 55, 84
20, 370259, Note_on_c, 13, 62, 0
20, 370259, Note_on_c, 13, 71, 0
20, 370259, Note_on_c, 13, 55, 0
20, 371040, Note_on_c, 13, 64, 84
20, 371040, Note_on_c, 13, 72, 84
20, 371040, Note_on_c, 13, 55, 84
20, 371040, Note_on_c, 13, 48, 84
20, 371219, Note_on_c, 13, 64, 0
20, 371219, Note_on_c, 13, 72, 0
20, 371219, Note_on_c, 13, 55, 0
20, 371219, Note_on_c, 13, 48, 0
20, 372000, Note_on_c, 13, 71, 84
20, 372000, Note_on_c, 13, 55, 84
20, 372000, Note_on_c, 13, 62, 84
20, 372179, Note_on_c, 13, 71, 0
20, 372179, Note_on_c, 13, 55, 0
20, 372179, Note_on_c, 13, 62, 0
20, 376800, Note_on_c, 13, 65, 52
20, 376919, Note_on_c, 13, 65, 0
20, 376920, Note_on_c, 13, 67, 52
20, 377039, Note_on_c, 13, 67, 0
20, 377040, Note_on_c, 13, 65, 53
20, 377159, Note_on_c, 13, 65, 0
20, 377160, Note_on_c, 13, 67, 53
20, 377279, Note_on_c, 13, 67, 0
20, 377280, Note_on_c, 13, 65, 54
20, 377399, Note_on_c, 13, 65, 0
20, 377400, Note_on_c, 13, 67, 55
20, 377519, Note_on_c, 13, 67, 0
20, 377520, Note_on_c, 13, 65, 55
20, 377639, Note_on_c, 13, 65, 0
20, 377640, Note_on_c, 13, 67, 56
20, 377744, Note_on_c, 13, 67, 0
20, 377760, Note_on_c, 13, 64, 56
20, 377879, Note_on_c, 13, 64, 0
20, 377880, Note_on_c, 13, 67, 57
20, 377999, Note_on_c, 13, 67, 0
20, 378000, Note_on_c, 13, 64, 58
20, 378119, Note_on_c, 13, 64, 0
20, 378120, Note_on_c, 13, 67, 58
20, 378239, Note_on_c, 13, 67, 0
20, 378240, Note_on_c, 13, 64, 59
20, 378359, Note_on_c, 13, 64, 0
20, 378360, Note_on_c, 13, 67, 59
20, 378479, Note_on_c, 13, 67, 0
20, 378480, Note_on_c, 13, 64, 60
20, 378599, Note_on_c, 13, 64, 0
20, 378600, Note_on_c, 13, 67, 61
20, 378704, Note_on_c, 13, 67, 0
20, 378720, Note_on_c, 13, 65, 61
20, 378839, Note_on_c, 13, 65, 0
20, 378840, Note_on_c, 13, 67, 62
20, 378959, Note_on_c, 13, 67, 0
20, 378960, Note_on_c, 13, 65, 62
20, 379079, Note_on_c, 13, 65, 0
20, 379080, Note_on_c, 13, 67, 63
20, 379199, Note_on_c, 13, 67, 0
20, 379200, Note_on_c, 13, 65, 64
20, 379319, Note_on_c, 13, 65, 0
20, 379320, Note_on_c, 13, 67, 64
20, 379439, Note_on_c, 13, 67, 0
20, 379440, Note_on_c, 13, 65, 65
20, 379559, Note_on_c, 13, 65, 0
20, 379560, Note_on_c, 13, 67, 65
20, 379664, Note_on_c, 13, 67, 0
20, 379680, Note_on_c, 13, 64, 66
20, 379799, Note_on_c, 13, 64, 0
20, 379800, Note_on_c, 13, 67, 67
20, 379919, Note_on_c, 13, 67, 0
20, 379920, Note_on_c, 13, 64, 67
20, 380039, Note_on_c, 13, 64, 0
20, 380040, Note_on_c, 13, 67, 68
20, 380159, Note_on_c, 13, 67, 0
20, 380160, Note_on_c, 13, 64, 68
20, 380279, Note_on_c, 13, 64, 0
20, 380280, Note_on_c, 13, 67, 69
20, 380399, Note_on_c, 13, 67, 0
20, 380400, Note_on_c, 13, 64, 70
20, 380519, Note_on_c, 13, 64, 0
20, 380520, Note_on_c, 13, 67, 70
20, 380624, Note_on_c, 13, 67, 0
20, 380640, Note_on_c, 13, 65, 71
20, 380759, Note_on_c, 13, 65, 0
20, 380760, Note_on_c, 13, 67, 71
20, 380879, Note_on_c, 13, 67, 0
20, 380880, Note_on_c, 13, 65, 72
20, 380999, Note_on_c, 13, 65, 0
20, 381000, Note_on_c, 13, 67, 73
20, 381119, Note_on_c, 13, 67, 0
20, 381120, Note_on_c, 13, 65, 73
20, 381239, Note_on_c, 13, 65, 0
20, 381240, Note_on_c, 13, 67, 74
20, 381359, Note_on_c, 13, 67, 0
20, 381360, Note_on_c, 13, 65, 74
20, 381479, Note_on_c, 13, 65, 0
20, 381480, Note_on_c, 13, 67, 75
20, 381584, Note_on_c, 13, 67, 0
20, 381600, Note_on_c, 13, 64, 76
20, 381651, Note_on_c, 13, 64, 0
20, 381660, Note_on_c, 13, 64, 76
20, 381711, Note_on_c, 13, 64, 0
20, 381720, Note_on_c, 13, 64, 76
20, 381771, Note_on_c, 13, 64, 0
20, 381780, Note_on_c, 13, 64, 76
20, 381831, Note_on_c, 13, 64, 0
20, 381840, Note_on_c, 13, 62, 76
20, 381891, Note_on_c, 13, 62, 0
20, 381900, Note_on_c, 13, 62, 76
20, 381951, Note_on_c, 13, 62, 0
20, 381960, Note_on_c, 13, 62, 76
20, 382011, Note_on_c, 13, 62, 0
20, 382020, Note_on_c, 13, 62, 76
20, 382071, Note_on_c, 13, 62, 0
20, 382080, Note_on_c, 13, 60, 76
20, 382131, Note_on_c, 13, 60, 0
20, 382140, Note_on_c, 13, 60, 76
20, 382191, Note_on_c, 13, 60, 0
20, 382200, Note_on_c, 13, 60, 76
20, 382251, Note_on_c, 13, 60, 0
20, 382260, Note_on_c, 13, 60, 76
20, 382311, Note_on_c, 13, 60, 0
20, 382320, Note_on_c, 13, 59, 76
20, 382371, Note_on_c, 13, 59, 0
20, 382380, Note_on_c, 13, 59, 76
20, 382431, Note_on_c, 13, 59, 0
20, 382440, Note_on_c, 13, 59, 76
20, 382491, Note_on_c, 13, 59, 0
20, 382500, Note_on_c, 13, 59, 76
20, 382551, Note_on_c, 13, 59, 0
20, 382560, Note_on_c, 13, 57, 76
20, 382611, Note_on_c, 13, 57, 0
20, 382620, Note_on_c, 13, 57, 76
20, 382671, Note_on_c, 13, 57, 0
20, 382680, Note_on_c, 13, 57, 76
20, 382731, Note_on_c, 13, 57, 0
20, 382740, Note_on_c, 13, 57, 76
20, 382791, Note_on_c, 13, 57, 0
20, 382800, Note_on_c, 13, 55, 76
20, 382851, Note_on_c, 13, 55, 0
20, 382860, Note_on_c, 13, 55, 76
20, 382911, Note_on_c, 13, 55, 0
20, 382920, Note_on_c, 13, 55, 76
20, 382971, Note_on_c, 13, 55, 0
20, 382980, Note_on_c, 13, 55, 76
20, 383031, Note_on_c, 13, 55, 0
20, 383040, Note_on_c, 13, 57, 76
20, 383040, Note_on_c, 13, 53, 76
20, 383091, Note_on_c, 13, 57, 0
20, 383091, Note_on_c, 13, 53, 0
20, 383100, Note_on_c, 13, 57, 76
20, 383100, Note_on_c, 13, 53, 76
20, 383151, Note_on_c, 13, 57, 0
20, 383151, Note_on_c, 13, 53, 0
20, 383160, Note_on_c, 13, 57, 76
20, 383160, Note_on_c, 13, 53, 76
20, 383211, Note_on_c, 13, 57, 0
20, 383211, Note_on_c, 13, 53, 0
20, 383220, Note_on_c, 13, 57, 76
20, 383220, Note_on_c, 13, 53, 76
20, 383271, Note_on_c, 13, 57, 0
20, 383271, Note_on_c, 13, 53, 0
20, 383280, Note_on_c, 13, 55, 76
20, 383331, Note_on_c, 13, 55, 0
20, 383340, Note_on_c, 13, 55, 76
20, 383391, Note_on_c, 13, 55, 0
20, 383400, Note_on_c, 13, 55, 76
20, 383451, Note_on_c, 13, 55, 0
20, 383460, Note_on_c, 13, 55, 76
20, 383511, Note_on_c, 13, 55, 0
20, 383520, Note_on_c, 13, 57, 76
20, 384224, Note_on_c, 13, 57, 0
20, 384240, Note_on_c, 13, 55, 76
20, 384419, Note_on_c, 13, 55, 0
20, 384480, Note_on_c, 13, 53, 76
20, 385184, Note_on_c, 13, 53, 0
20, 385200, Note_on_c, 13, 55, 76
20, 385379, Note_on_c, 13, 55, 0
20, 385440, Note_on_c, 13, 57, 76
20, 386144, Note_on_c, 13, 57, 0
20, 386160, Note_on_c, 13, 55, 76
20, 386339, Note_on_c, 13, 55, 0
20, 386400, Note_on_c, 13, 53, 76
20, 387104, Note_on_c, 13, 53, 0
20, 387120, Note_on_c, 13, 57, 76
20, 387299, Note_on_c, 13, 57, 0
20, 387360, Note_on_c, 13, 59, 76
20, 387599, Note_on_c, 13, 59, 0
20, 387840, Note_on_c, 13, 60, 52
20, 388079, Note_on_c, 13, 60, 0
20, 388320, Note_on_c, 13, 57, 52
20, 388559, Note_on_c, 13, 57, 0
20, 388800, Note_on_c, 13, 59, 52
20, 389024, Note_on_c, 13, 59, 0
20, 389040, Note_on_c, 13, 55, 76
20, 389279, Note_on_c, 13, 55, 0
20, 389280, Note_on_c, 13, 60, 76
20, 389519, Note_on_c, 13, 60, 0
20, 389520, Note_on_c, 13, 55, 76
20, 389759, Note_on_c, 13, 55, 0
20, 389760, Note_on_c, 13, 64, 76
20, 389999, Note_on_c, 13, 64, 0
20, 390000, Note_on_c, 13, 62, 76
20, 390179, Note_on_c, 13, 62, 0
20, 390180, Note_on_c, 13, 60, 76
20, 390231, Note_on_c, 13, 60, 0
20, 390240, Note_on_c, 13, 67, 76
20, 390959, Note_on_c, 13, 67, 0
20, 393120, Note_on_c, 13, 62, 52
20, 393239, Note_on_c, 13, 62, 0
20, 393240, Note_on_c, 13, 59, 52
20, 393359, Note_on_c, 13, 59, 0
20, 393360, Note_on_c, 13, 62, 53
20, 393479, Note_on_c, 13, 62, 0
20, 393480, Note_on_c, 13, 59, 53
20, 393599, Note_on_c, 13, 59, 0
20, 393600, Note_on_c, 13, 62, 54
20, 393719, Note_on_c, 13, 62, 0
20, 393720, Note_on_c, 13, 59, 55
20, 393839, Note_on_c, 13, 59, 0
20, 393840, Note_on_c, 13, 62, 55
20, 393959, Note_on_c, 13, 62, 0
20, 393960, Note_on_c, 13, 59, 56
20, 394064, Note_on_c, 13, 59, 0
20, 394080, Note_on_c, 13, 64, 56
20, 394199, Note_on_c, 13, 64, 0
20, 394200, Note_on_c, 13, 60, 57
20, 394319, Note_on_c, 13, 60, 0
20, 394320, Note_on_c, 13, 64, 58
20, 394439, Note_on_c, 13, 64, 0
20, 394440, Note_on_c, 13, 60, 58
20, 394559, Note_on_c, 13, 60, 0
20, 394560, Note_on_c, 13, 64, 59
20, 394679, Note_on_c, 13, 64, 0
20, 394680, Note_on_c, 13, 60, 59
20, 394799, Note_on_c, 13, 60, 0
20, 394800, Note_on_c, 13, 64, 60
20, 394919, Note_on_c, 13, 64, 0
20, 394920, Note_on_c, 13, 60, 61
20, 395024, Note_on_c, 13, 60, 0
20, 395040, Note_on_c, 13, 62, 61
20, 395159, Note_on_c, 13, 62, 0
20, 395160, Note_on_c, 13, 59, 62
20, 395279, Note_on_c, 13, 59, 0
20, 395280, Note_on_c, 13, 62, 62
20, 395399, Note_on_c, 13, 62, 0
20, 395400, Note_on_c, 13, 59, 63
20, 395519, Note_on_c, 13, 59, 0
20, 395520, Note_on_c, 13, 62, 64
20, 395639, Note_on_c, 13, 62, 0
20, 395640, Note_on_c, 13, 59, 64
20, 395759, Note_on_c, 13, 59, 0
20, 395760, Note_on_c, 13, 62, 65
20, 395879, Note_on_c, 13, 62, 0
20, 395880, Note_on_c, 13, 59, 65
20, 395984, Note_on_c, 13, 59, 0
20, 396000, Note_on_c, 13, 64, 66
20, 396119, Note_on_c, 13, 64, 0
20, 396120, Note_on_c, 13, 60, 67
20, 396239, Note_on_c, 13, 60, 0
20, 396240, Note_on_c, 13, 64, 67
20, 396359, Note_on_c, 13, 64, 0
20, 396360, Note_on_c, 13, 60, 68
20, 396479, Note_on_c, 13, 60, 0
20, 396480, Note_on_c, 13, 64, 68
20, 396599, Note_on_c, 13, 64, 0
20, 396600, Note_on_c, 13, 60, 69
20, 396719, Note_on_c, 13, 60, 0
20, 396720, Note_on_c, 13, 64, 70
20, 396839, Note_on_c, 13, 64, 0
20, 396840, Note_on_c, 13, 60, 70
20, 396944, Note_on_c, 13, 60, 0
20, 396960, Note_on_c, 13, 62, 71
20, 397079, Note_on_c, 13, 62, 0
20, 397080, Note_on_c, 13, 59, 71
20, 397199, Note_on_c, 13, 59, 0
20, 397200, Note_on_c, 13, 62, 72
20, 397319, Note_on_c, 13, 62, 0
20, 397320, Note_on_c, 13, 59, 73
20, 397439, Note_on_c, 13, 59, 0
20, 397440, Note_on_c, 13, 62, 73
20, 397559, Note_on_c, 13, 62, 0
20, 397560, Note_on_c, 13, 59, 74
20, 397679, Note_on_c, 13, 59, 0
20, 397680, Note_on_c, 13, 62, 74
20, 397799, Note_on_c, 13, 62, 0
20, 397800, Note_on_c, 13, 59, 75
20, 397904, Note_on_c, 13, 59, 0
20, 397920, Note_on_c, 13, 64, 76
20, 397971, Note_on_c, 13, 64, 0
20, 397980, Note_on_c, 13, 64, 76
20, 398031, Note_on_c, 13, 64, 0
20, 398040, Note_on_c, 13, 64, 76
20, 398091, Note_on_c, 13, 64, 0
20, 398100, Note_on_c, 13, 64, 76
20, 398151, Note_on_c, 13, 64, 0
20, 398160, Note_on_c, 13, 62, 76
20, 398211, Note_on_c, 13, 62, 0
20, 398220, Note_on_c, 13, 62, 76
20, 398271, Note_on_c, 13, 62, 0
20, 398280, Note_on_c, 13, 62, 76
20, 398331, Note_on_c, 13, 62, 0
20, 398340, Note_on_c, 13, 62, 76
20, 398391, Note_on_c, 13, 62, 0
20, 398400, Note_on_c, 13, 60, 76
20, 398451, Note_on_c, 13, 60, 0
20, 398460, Note_on_c, 13, 60, 76
20, 398511, Note_on_c, 13, 60, 0
20, 398520, Note_on_c, 13, 60, 76
20, 398571, Note_on_c, 13, 60, 0
20, 398580, Note_on_c, 13, 60, 76
20, 398631, Note_on_c, 13, 60, 0
20, 398640, Note_on_c, 13, 59, 76
20, 398691, Note_on_c, 13, 59, 0
20, 398700, Note_on_c, 13, 59, 76
20, 398751, Note_on_c, 13, 59, 0
20, 398760, Note_on_c, 13, 59, 76
20, 398811, Note_on_c, 13, 59, 0
20, 398820, Note_on_c, 13, 59, 76
20, 398871, Note_on_c, 13, 59, 0
20, 398880, Note_on_c, 13, 57, 76
20, 398931, Note_on_c, 13, 57, 0
20, 398940, Note_on_c, 13, 57, 76
20, 398991, Note_on_c, 13, 57, 0
20, 399000, Note_on_c, 13, 57, 76
20, 399051, Note_on_c, 13, 57, 0
20, 399060, Note_on_c, 13, 57, 76
20, 399111, Note_on_c, 13, 57, 0
20, 399120, Note_on_c, 13, 55, 76
20, 399171, Note_on_c, 13, 55, 0
20, 399180, Note_on_c, 13, 55, 76
20, 399231, Note_on_c, 13, 55, 0
20, 399240, Note_on_c, 13, 55, 76
20, 399291, Note_on_c, 13, 55, 0
20, 399300, Note_on_c, 13, 55, 76
20, 399351, Note_on_c, 13, 55, 0
20, 399360, Note_on_c, 13, 53, 76
20, 399411, Note_on_c, 13, 53, 0
20, 399420, Note_on_c, 13, 53, 76
20, 399471, Note_on_c, 13, 53, 0
20, 399480, Note_on_c, 13, 53, 76
20, 399531, Note_on_c, 13, 53, 0
20, 399540, Note_on_c, 13, 53, 76
20, 399591, Note_on_c, 13, 53, 0
20, 399600, Note_on_c, 13, 55, 76
20, 399651, Note_on_c, 13, 55, 0
20, 399660, Note_on_c, 13, 55, 76
20, 399711, Note_on_c, 13, 55, 0
20, 399720, Note_on_c, 13, 55, 76
20, 399771, Note_on_c, 13, 55, 0
20, 399780, Note_on_c, 13, 55, 76
20, 399831, Note_on_c, 13, 55, 0
20, 399840, Note_on_c, 13, 53, 76
20, 399840, Note_on_c, 13, 57, 76
20, 400544, Note_on_c, 13, 53, 0
20, 400544, Note_on_c, 13, 57, 0
20, 400560, Note_on_c, 13, 55, 76
20, 400739, Note_on_c, 13, 55, 0
20, 400800, Note_on_c, 13, 57, 76
20, 401504, Note_on_c, 13, 57, 0
20, 401520, Note_on_c, 13, 55, 76
20, 401699, Note_on_c, 13, 55, 0
20, 401760, Note_on_c, 13, 54, 76
20, 402464, Note_on_c, 13, 54, 0
20, 402480, Note_on_c, 13, 55, 76
20, 402659, Note_on_c, 13, 55, 0
20, 402720, Note_on_c, 13, 56, 76
20, 403424, Note_on_c, 13, 56, 0
20, 403440, Note_on_c, 13, 57, 76
20, 403619, Note_on_c, 13, 57, 0
20, 403680, Note_on_c, 13, 58, 52
20, 403799, Note_on_c, 13, 58, 0
20, 403920, Note_on_c, 13, 60, 52
20, 404039, Note_on_c, 13, 60, 0
20, 404160, Note_on_c, 13, 60, 52
20, 404279, Note_on_c, 13, 60, 0
20, 404400, Note_on_c, 13, 60, 53
20, 404519, Note_on_c, 13, 60, 0
20, 404640, Note_on_c, 13, 62, 54
20, 404759, Note_on_c, 13, 62, 0
20, 404880, Note_on_c, 13, 64, 55
20, 404999, Note_on_c, 13, 64, 0
20, 405120, Note_on_c, 13, 65, 56
20, 405239, Note_on_c, 13, 65, 0
20, 405360, Note_on_c, 13, 64, 57
20, 405479, Note_on_c, 13, 64, 0
20, 405600, Note_on_c, 13, 64, 58
20, 405719, Note_on_c, 13, 64, 0
20, 405840, Note_on_c, 13, 64, 59
20, 405959, Note_on_c, 13, 64, 0
20, 406080, Note_on_c, 13, 60, 60
20, 406199, Note_on_c, 13, 60, 0
20, 406320, Note_on_c, 13, 60, 61
20, 406439, Note_on_c, 13, 60, 0
20, 406560, Note_on_c, 13, 62, 62
20, 406679, Note_on_c, 13, 62, 0
20, 406800, Note_on_c, 13, 64, 64
20, 406919, Note_on_c, 13, 64, 0
20, 407040, Note_on_c, 13, 65, 65
20, 407159, Note_on_c, 13, 65, 0
20, 407280, Note_on_c, 13, 64, 66
20, 407399, Note_on_c, 13, 64, 0
20, 407520, Note_on_c, 13, 64, 67
20, 407639, Note_on_c, 13, 64, 0
20, 407760, Note_on_c, 13, 64, 68
20, 407879, Note_on_c, 13, 64, 0
20, 408000, Note_on_c, 13, 64, 69
20, 408119, Note_on_c, 13, 64, 0
20, 408240, Note_on_c, 13, 65, 70
20, 408359, Note_on_c, 13, 65, 0
20, 408480, Note_on_c, 13, 62, 71
20, 408599, Note_on_c, 13, 62, 0
20, 408720, Note_on_c, 13, 64, 72
20, 408839, Note_on_c, 13, 64, 0
20, 408960, Note_on_c, 13, 65, 73
20, 409079, Note_on_c, 13, 65, 0
20, 409200, Note_on_c, 13, 62, 74
20, 409319, Note_on_c, 13, 62, 0
20, 409440, Note_on_c, 13, 48, 76
20, 409440, Note_on_c, 13, 52, 76
20, 409489, Note_on_c, 13, 48, 0
20, 409489, Note_on_c, 13, 52, 0
20, 409500, Note_on_c, 13, 48, 52
20, 409500, Note_on_c, 13, 52, 52
20, 409549, Note_on_c, 13, 48, 0
20, 409549, Note_on_c, 13, 52, 0
20, 409560, Note_on_c, 13, 48, 52
20, 409560, Note_on_c, 13, 52, 52
20, 409609, Note_on_c, 13, 48, 0
20, 409609, Note_on_c, 13, 52, 0
20, 409620, Note_on_c, 13, 52, 52
20, 409620, Note_on_c, 13, 48, 52
20, 409669, Note_on_c, 13, 52, 0
20, 409669, Note_on_c, 13, 48, 0
20, 409680, Note_on_c, 13, 48, 52
20, 409680, Note_on_c, 13, 52, 52
20, 409729, Note_on_c, 13, 48, 0
20, 409729, Note_on_c, 13, 52, 0
20, 409740, Note_on_c, 13, 52, 52
20, 409740, Note_on_c, 13, 48, 52
20, 409789, Note_on_c, 13, 52, 0
20, 409789, Note_on_c, 13, 48, 0
20, 409800, Note_on_c, 13, 48, 52
20, 409800, Note_on_c, 13, 52, 52
20, 409849, Note_on_c, 13, 48, 0
20, 409849, Note_on_c, 13, 52, 0
20, 409860, Note_on_c, 13, 48, 52
20, 409860, Note_on_c, 13, 52, 52
20, 409909, Note_on_c, 13, 48, 0
20, 409909, Note_on_c, 13, 52, 0
20, 409920, Note_on_c, 13, 50, 52
20, 409920, Note_on_c, 13, 53, 52
20, 409969, Note_on_c, 13, 50, 0
20, 409969, Note_on_c, 13, 53, 0
20, 409980, Note_on_c, 13, 50, 52
20, 409980, Note_on_c, 13, 53, 52
20, 410029, Note_on_c, 13, 50, 0
20, 410029, Note_on_c, 13, 53, 0
20, 410040, Note_on_c, 13, 53, 52
20, 410040, Note_on_c, 13, 50, 52
20, 410089, Note_on_c, 13, 53, 0
20, 410089, Note_on_c, 13, 50, 0
20, 410100, Note_on_c, 13, 53, 52
20, 410100, Note_on_c, 13, 50, 52
20, 410149, Note_on_c, 13, 53, 0
20, 410149, Note_on_c, 13, 50, 0
20, 410160, Note_on_c, 13, 50, 52
20, 410160, Note_on_c, 13, 53, 52
20, 410209, Note_on_c, 13, 50, 0
20, 410209, Note_on_c, 13, 53, 0
20, 410220, Note_on_c, 13, 53, 52
20, 410220, Note_on_c, 13, 50, 52
20, 410269, Note_on_c, 13, 53, 0
20, 410269, Note_on_c, 13, 50, 0
20, 410280, Note_on_c, 13, 50, 52
20, 410280, Note_on_c, 13, 53, 52
20, 410329, Note_on_c, 13, 50, 0
20, 410329, Note_on_c, 13, 53, 0
20, 410340, Note_on_c, 13, 53, 52
20, 410340, Note_on_c, 13, 50, 52
20, 410389, Note_on_c, 13, 53, 0
20, 410389, Note_on_c, 13, 50, 0
20, 410400, Note_on_c, 13, 52, 76
20, 410400, Note_on_c, 13, 48, 76
20, 410449, Note_on_c, 13, 52, 0
20, 410449, Note_on_c, 13, 48, 0
20, 410460, Note_on_c, 13, 48, 52
20, 410460, Note_on_c, 13, 52, 52
20, 410509, Note_on_c, 13, 48, 0
20, 410509, Note_on_c, 13, 52, 0
20, 410520, Note_on_c, 13, 52, 52
20, 410520, Note_on_c, 13, 48, 52
20, 410569, Note_on_c, 13, 52, 0
20, 410569, Note_on_c, 13, 48, 0
20, 410580, Note_on_c, 13, 48, 52
20, 410580, Note_on_c, 13, 52, 52
20, 410629, Note_on_c, 13, 48, 0
20, 410629, Note_on_c, 13, 52, 0
20, 410640, Note_on_c, 13, 48, 52
20, 410640, Note_on_c, 13, 52, 52
20, 410689, Note_on_c, 13, 48, 0
20, 410689, Note_on_c, 13, 52, 0
20, 410700, Note_on_c, 13, 48, 52
20, 410700, Note_on_c, 13, 52, 52
20, 410749, Note_on_c, 13, 48, 0
20, 410749, Note_on_c, 13, 52, 0
20, 410760, Note_on_c, 13, 48, 52
20, 410760, Note_on_c, 13, 52, 52
20, 410809, Note_on_c, 13, 48, 0
20, 410809, Note_on_c, 13, 52, 0
20, 410820, Note_on_c, 13, 48, 52
20, 410820, Note_on_c, 13, 52, 52
20, 410869, Note_on_c, 13, 48, 0
20, 410869, Note_on_c, 13, 52, 0
20, 410880, Note_on_c, 13, 50, 52
20, 410880, Note_on_c, 13, 53, 52
20, 410929, Note_on_c, 13, 50, 0
20, 410929, Note_on_c, 13, 53, 0
20, 410940, Note_on_c, 13, 50, 52
20, 410940, Note_on_c, 13, 53, 52
20, 410989, Note_on_c, 13, 50, 0
20, 410989, Note_on_c, 13, 53, 0
20, 411000, Note_on_c, 13, 50, 52
20, 411000, Note_on_c, 13, 53, 52
20, 411049, Note_on_c, 13, 50, 0
20, 411049, Note_on_c, 13, 53, 0
20, 411060, Note_on_c, 13, 50, 52
20, 411060, Note_on_c, 13, 53, 52
20, 411109, Note_on_c, 13, 50, 0
20, 411109, Note_on_c, 13, 53, 0
20, 411120, Note_on_c, 13, 53, 52
20, 411120, Note_on_c, 13, 50, 52
20, 411169, Note_on_c, 13, 53, 0
20, 411169, Note_on_c, 13, 50, 0
20, 411180, Note_on_c, 13, 50, 52
20, 411180, Note_on_c, 13, 53, 52
20, 411229, Note_on_c, 13, 50, 0
20, 411229, Note_on_c, 13, 53, 0
20, 411240, Note_on_c, 13, 50, 52
20, 411240, Note_on_c, 13, 53, 52
20, 411289, Note_on_c, 13, 50, 0
20, 411289, Note_on_c, 13, 53, 0
20, 411300, Note_on_c, 13, 50, 52
20, 411300, Note_on_c, 13, 53, 52
20, 411349, Note_on_c, 13, 50, 0
20, 411349, Note_on_c, 13, 53, 0
20, 411360, Note_on_c, 13, 48, 76
20, 411360, Note_on_c, 13, 52, 76
20, 411409, Note_on_c, 13, 48, 0
20, 411409, Note_on_c, 13, 52, 0
20, 411420, Note_on_c, 13, 48, 52
20, 411420, Note_on_c, 13, 52, 52
20, 411469, Note_on_c, 13, 48, 0
20, 411469, Note_on_c, 13, 52, 0
20, 411480, Note_on_c, 13, 52, 52
20, 411480, Note_on_c, 13, 48, 52
20, 411529, Note_on_c, 13, 52, 0
20, 411529, Note_on_c, 13, 48, 0
20, 411540, Note_on_c, 13, 48, 52
20, 411540, Note_on_c, 13, 52, 52
20, 411589, Note_on_c, 13, 48, 0
20, 411589, Note_on_c, 13, 52, 0
20, 411600, Note_on_c, 13, 52, 52
20, 411600, Note_on_c, 13, 48, 52
20, 411649, Note_on_c, 13, 52, 0
20, 411649, Note_on_c, 13, 48, 0
20, 411660, Note_on_c, 13, 52, 52
20, 411660, Note_on_c, 13, 48, 52
20, 411709, Note_on_c, 13, 52, 0
20, 411709, Note_on_c, 13, 48, 0
20, 411720, Note_on_c, 13, 52, 52
20, 411720, Note_on_c, 13, 48, 52
20, 411769, Note_on_c, 13, 52, 0
20, 411769, Note_on_c, 13, 48, 0
20, 411780, Note_on_c, 13, 48, 52
20, 411780, Note_on_c, 13, 52, 52
20, 411829, Note_on_c, 13, 48, 0
20, 411829, Note_on_c, 13, 52, 0
20, 411840, Note_on_c, 13, 53, 52
20, 411840, Note_on_c, 13, 50, 52
20, 411889, Note_on_c, 13, 53, 0
20, 411889, Note_on_c, 13, 50, 0
20, 411900, Note_on_c, 13, 53, 52
20, 411900, Note_on_c, 13, 50, 52
20, 411949, Note_on_c, 13, 53, 0
20, 411949, Note_on_c, 13, 50, 0
20, 411960, Note_on_c, 13, 53, 52
20, 411960, Note_on_c, 13, 50, 52
20, 412009, Note_on_c, 13, 53, 0
20, 412009, Note_on_c, 13, 50, 0
20, 412020, Note_on_c, 13, 50, 52
20, 412020, Note_on_c, 13, 53, 52
20, 412069, Note_on_c, 13, 50, 0
20, 412069, Note_on_c, 13, 53, 0
20, 412080, Note_on_c, 13, 53, 52
20, 412080, Note_on_c, 13, 50, 52
20, 412129, Note_on_c, 13, 53, 0
20, 412129, Note_on_c, 13, 50, 0
20, 412140, Note_on_c, 13, 53, 52
20, 412140, Note_on_c, 13, 50, 52
20, 412189, Note_on_c, 13, 53, 0
20, 412189, Note_on_c, 13, 50, 0
20, 412200, Note_on_c, 13, 53, 52
20, 412200, Note_on_c, 13, 50, 52
20, 412249, Note_on_c, 13, 53, 0
20, 412249, Note_on_c, 13, 50, 0
20, 412260, Note_on_c, 13, 50, 52
20, 412260, Note_on_c, 13, 53, 52
20, 412309, Note_on_c, 13, 50, 0
20, 412309, Note_on_c, 13, 53, 0
20, 412320, Note_on_c, 13, 52, 76
20, 412320, Note_on_c, 13, 48, 76
20, 412369, Note_on_c, 13, 52, 0
20, 412369, Note_on_c, 13, 48, 0
20, 412380, Note_on_c, 13, 52, 52
20, 412380, Note_on_c, 13, 48, 52
20, 412429, Note_on_c, 13, 52, 0
20, 412429, Note_on_c, 13, 48, 0
20, 412440, Note_on_c, 13, 48, 52
20, 412440, Note_on_c, 13, 52, 52
20, 412489, Note_on_c, 13, 48, 0
20, 412489, Note_on_c, 13, 52, 0
20, 412500, Note_on_c, 13, 52, 52
20, 412500, Note_on_c, 13, 48, 52
20, 412549, Note_on_c, 13, 52, 0
20, 412549, Note_on_c, 13, 48, 0
20, 412560, Note_on_c, 13, 48, 52
20, 412560, Note_on_c, 13, 52, 52
20, 412609, Note_on_c, 13, 48, 0
20, 412609, Note_on_c, 13, 52, 0
20, 412620, Note_on_c, 13, 52, 52
20, 412620, Note_on_c, 13, 48, 52
20, 412669, Note_on_c, 13, 52, 0
20, 412669, Note_on_c, 13, 48, 0
20, 412680, Note_on_c, 13, 52, 52
20, 412680, Note_on_c, 13, 48, 52
20, 412729, Note_on_c, 13, 52, 0
20, 412729, Note_on_c, 13, 48, 0
20, 412740, Note_on_c, 13, 48, 52
20, 412740, Note_on_c, 13, 52, 52
20, 412789, Note_on_c, 13, 48, 0
20, 412789, Note_on_c, 13, 52, 0
20, 412800, Note_on_c, 13, 53, 52
20, 412800, Note_on_c, 13, 50, 52
20, 412849, Note_on_c, 13, 53, 0
20, 412849, Note_on_c, 13, 50, 0
20, 412860, Note_on_c, 13, 50, 52
20, 412860, Note_on_c, 13, 53, 52
20, 412909, Note_on_c, 13, 50, 0
20, 412909, Note_on_c, 13, 53, 0
20, 412920, Note_on_c, 13, 53, 52
20, 412920, Note_on_c, 13, 50, 52
20, 412969, Note_on_c, 13, 53, 0
20, 412969, Note_on_c, 13, 50, 0
20, 412980, Note_on_c, 13, 50, 52
20, 412980, Note_on_c, 13, 53, 52
20, 413029, Note_on_c, 13, 50, 0
20, 413029, Note_on_c, 13, 53, 0
20, 413040, Note_on_c, 13, 50, 52
20, 413040, Note_on_c, 13, 53, 52
20, 413089, Note_on_c, 13, 50, 0
20, 413089, Note_on_c, 13, 53, 0
20, 413100, Note_on_c, 13, 53, 52
20, 413100, Note_on_c, 13, 50, 52
20, 413149, Note_on_c, 13, 53, 0
20, 413149, Note_on_c, 13, 50, 0
20, 413160, Note_on_c, 13, 50, 52
20, 413160, Note_on_c, 13, 53, 52
20, 413209, Note_on_c, 13, 50, 0
20, 413209, Note_on_c, 13, 53, 0
20, 413220, Note_on_c, 13, 50, 52
20, 413220, Note_on_c, 13, 53, 52
20, 413269, Note_on_c, 13, 50, 0
20, 413269, Note_on_c, 13, 53, 0
20, 413280, Note_on_c, 13, 48, 76
20, 413280, Note_on_c, 13, 52, 76
20, 413329, Note_on_c, 13, 48, 0
20, 413329, Note_on_c, 13, 52, 0
20, 413340, Note_on_c, 13, 52, 52
20, 413340, Note_on_c, 13, 48, 52
20, 413389, Note_on_c, 13, 52, 0
20, 413389, Note_on_c, 13, 48, 0
20, 413400, Note_on_c, 13, 48, 52
20, 413400, Note_on_c, 13, 52, 52
20, 413449, Note_on_c, 13, 48, 0
20, 413449, Note_on_c, 13, 52, 0
20, 413460, Note_on_c, 13, 52, 52
20, 413460, Note_on_c, 13, 48, 52
20, 413509, Note_on_c, 13, 52, 0
20, 413509, Note_on_c, 13, 48, 0
20, 413520, Note_on_c, 13, 48, 52
20, 413520, Note_on_c, 13, 52, 52
20, 413569, Note_on_c, 13, 48, 0
20, 413569, Note_on_c, 13, 52, 0
20, 413580, Note_on_c, 13, 48, 52
20, 413580, Note_on_c, 13, 52, 52
20, 413629, Note_on_c, 13, 48, 0
20, 413629, Note_on_c, 13, 52, 0
20, 413640, Note_on_c, 13, 52, 52
20, 413640, Note_on_c, 13, 48, 52
20, 413689, Note_on_c, 13, 52, 0
20, 413689, Note_on_c, 13, 48, 0
20, 413700, Note_on_c, 13, 52, 52
20, 413700, Note_on_c, 13, 48, 52
20, 413749, Note_on_c, 13, 52, 0
20, 413749, Note_on_c, 13, 48, 0
20, 413760, Note_on_c, 13, 53, 52
20, 413760, Note_on_c, 13, 50, 52
20, 413809, Note_on_c, 13, 53, 0
20, 413809, Note_on_c, 13, 50, 0
20, 413820, Note_on_c, 13, 53, 52
20, 413820, Note_on_c, 13, 50, 52
20, 413869, Note_on_c, 13, 53, 0
20, 413869, Note_on_c, 13, 50, 0
20, 413880, Note_on_c, 13, 50, 52
20, 413880, Note_on_c, 13, 53, 52
20, 413929, Note_on_c, 13, 50, 0
20, 413929, Note_on_c, 13, 53, 0
20, 413940, Note_on_c, 13, 53, 52
20, 413940, Note_on_c, 13, 50, 52
20, 413989, Note_on_c, 13, 53, 0
20, 413989, Note_on_c, 13, 50, 0
20, 414000, Note_on_c, 13, 53, 52
20, 414000, Note_on_c, 13, 50, 52
20, 414049, Note_on_c, 13, 53, 0
20, 414049, Note_on_c, 13, 50, 0
20, 414060, Note_on_c, 13, 50, 52
20, 414060, Note_on_c, 13, 53, 52
20, 414109, Note_on_c, 13, 50, 0
20, 414109, Note_on_c, 13, 53, 0
20, 414120, Note_on_c, 13, 53, 52
20, 414120, Note_on_c, 13, 50, 52
20, 414169, Note_on_c, 13, 53, 0
20, 414169, Note_on_c, 13, 50, 0
20, 414180, Note_on_c, 13, 50, 52
20, 414180, Note_on_c, 13, 53, 52
20, 414229, Note_on_c, 13, 50, 0
20, 414229, Note_on_c, 13, 53, 0
20, 414240, Note_on_c, 13, 48, 76
20, 414240, Note_on_c, 13, 52, 76
20, 414289, Note_on_c, 13, 48, 0
20, 414289, Note_on_c, 13, 52, 0
20, 414300, Note_on_c, 13, 52, 52
20, 414300, Note_on_c, 13, 48, 52
20, 414349, Note_on_c, 13, 52, 0
20, 414349, Note_on_c, 13, 48, 0
20, 414360, Note_on_c, 13, 48, 52
20, 414360, Note_on_c, 13, 52, 52
20, 414409, Note_on_c, 13, 48, 0
20, 414409, Note_on_c, 13, 52, 0
20, 414420, Note_on_c, 13, 52, 52
20, 414420, Note_on_c, 13, 48, 52
20, 414469, Note_on_c, 13, 52, 0
20, 414469, Note_on_c, 13, 48, 0
20, 414480, Note_on_c, 13, 48, 52
20, 414480, Note_on_c, 13, 52, 52
20, 414529, Note_on_c, 13, 48, 0
20, 414529, Note_on_c, 13, 52, 0
20, 414540, Note_on_c, 13, 52, 52
20, 414540, Note_on_c, 13, 48, 52
20, 414589, Note_on_c, 13, 52, 0
20, 414589, Note_on_c, 13, 48, 0
20, 414600, Note_on_c, 13, 48, 52
20, 414600, Note_on_c, 13, 52, 52
20, 414649, Note_on_c, 13, 48, 0
20, 414649, Note_on_c, 13, 52, 0
20, 414660, Note_on_c, 13, 52, 52
20, 414660, Note_on_c, 13, 48, 52
20, 414709, Note_on_c, 13, 52, 0
20, 414709, Note_on_c, 13, 48, 0
20, 414720, Note_on_c, 13, 50, 52
20, 414720, Note_on_c, 13, 53, 52
20, 414769, Note_on_c, 13, 50, 0
20, 414769, Note_on_c, 13, 53, 0
20, 414780, Note_on_c, 13, 53, 52
20, 414780, Note_on_c, 13, 50, 52
20, 414829, Note_on_c, 13, 53, 0
20, 414829, Note_on_c, 13, 50, 0
20, 414840, Note_on_c, 13, 53, 52
20, 414840, Note_on_c, 13, 50, 52
20, 414889, Note_on_c, 13, 53, 0
20, 414889, Note_on_c, 13, 50, 0
20, 414900, Note_on_c, 13, 53, 52
20, 414900, Note_on_c, 13, 50, 52
20, 414949, Note_on_c, 13, 53, 0
20, 414949, Note_on_c, 13, 50, 0
20, 414960, Note_on_c, 13, 53, 52
20, 414960, Note_on_c, 13, 50, 52
20, 415009, Note_on_c, 13, 53, 0
20, 415009, Note_on_c, 13, 50, 0
20, 415020, Note_on_c, 13, 50, 52
20, 415020, Note_on_c, 13, 53, 52
20, 415069, Note_on_c, 13, 50, 0
20, 415069, Note_on_c, 13, 53, 0
20, 415080, Note_on_c, 13, 53, 52
20, 415080, Note_on_c, 13, 50, 52
20, 415129, Note_on_c, 13, 53, 0
20, 415129, Note_on_c, 13, 50, 0
20, 415140, Note_on_c, 13, 50, 52
20, 415140, Note_on_c, 13, 53, 52
20, 415189, Note_on_c, 13, 50, 0
20, 415189, Note_on_c, 13, 53, 0
20, 415200, Note_on_c, 13, 48, 76
20, 415200, Note_on_c, 13, 52, 76
20, 415249, Note_on_c, 13, 48, 0
20, 415249, Note_on_c, 13, 52, 0
20, 415260, Note_on_c, 13, 48, 52
20, 415260, Note_on_c, 13, 52, 52
20, 415309, Note_on_c, 13, 48, 0
20, 415309, Note_on_c, 13, 52, 0
20, 415320, Note_on_c, 13, 52, 52
20, 415320, Note_on_c, 13, 48, 52
20, 415369, Note_on_c, 13, 52, 0
20, 415369, Note_on_c, 13, 48, 0
20, 415380, Note_on_c, 13, 52, 52
20, 415380, Note_on_c, 13, 48, 52
20, 415429, Note_on_c, 13, 52, 0
20, 415429, Note_on_c, 13, 48, 0
20, 415440, Note_on_c, 13, 52, 52
20, 415440, Note_on_c, 13, 48, 52
20, 415489, Note_on_c, 13, 52, 0
20, 415489, Note_on_c, 13, 48, 0
20, 415500, Note_on_c, 13, 48, 52
20, 415500, Note_on_c, 13, 52, 52
20, 415549, Note_on_c, 13, 48, 0
20, 415549, Note_on_c, 13, 52, 0
20, 415560, Note_on_c, 13, 52, 52
20, 415560, Note_on_c, 13, 48, 52
20, 415609, Note_on_c, 13, 52, 0
20, 415609, Note_on_c, 13, 48, 0
20, 415620, Note_on_c, 13, 48, 52
20, 415620, Note_on_c, 13, 52, 52
20, 415669, Note_on_c, 13, 48, 0
20, 415669, Note_on_c, 13, 52, 0
20, 415680, Note_on_c, 13, 50, 52
20, 415680, Note_on_c, 13, 53, 52
20, 415729, Note_on_c, 13, 50, 0
20, 415729, Note_on_c, 13, 53, 0
20, 415740, Note_on_c, 13, 50, 52
20, 415740, Note_on_c, 13, 53, 52
20, 415789, Note_on_c, 13, 50, 0
20, 415789, Note_on_c, 13, 53, 0
20, 415800, Note_on_c, 13, 53, 52
20, 415800, Note_on_c, 13, 50, 52
20, 415849, Note_on_c, 13, 53, 0
20, 415849, Note_on_c, 13, 50, 0
20, 415860, Note_on_c, 13, 53, 52
20, 415860, Note_on_c, 13, 50, 52
20, 415909, Note_on_c, 13, 53, 0
20, 415909, Note_on_c, 13, 50, 0
20, 415920, Note_on_c, 13, 50, 52
20, 415920, Note_on_c, 13, 53, 52
20, 415969, Note_on_c, 13, 50, 0
20, 415969, Note_on_c, 13, 53, 0
20, 415980, Note_on_c, 13, 53, 52
20, 415980, Note_on_c, 13, 50, 52
20, 416029, Note_on_c, 13, 53, 0
20, 416029, Note_on_c, 13, 50, 0
20, 416040, Note_on_c, 13, 53, 52
20, 416040, Note_on_c, 13, 50, 52
20, 416089, Note_on_c, 13, 53, 0
20, 416089, Note_on_c, 13, 50, 0
20, 416100, Note_on_c, 13, 50, 52
20, 416100, Note_on_c, 13, 53, 52
20, 416149, Note_on_c, 13, 50, 0
20, 416149, Note_on_c, 13, 53, 0
20, 416160, Note_on_c, 13, 52, 76
20, 416160, Note_on_c, 13, 48, 76
20, 416209, Note_on_c, 13, 52, 0
20, 416209, Note_on_c, 13, 48, 0
20, 416220, Note_on_c, 13, 48, 52
20, 416220, Note_on_c, 13, 52, 52
20, 416269, Note_on_c, 13, 48, 0
20, 416269, Note_on_c, 13, 52, 0
20, 416280, Note_on_c, 13, 48, 52
20, 416280, Note_on_c, 13, 52, 52
20, 416329, Note_on_c, 13, 48, 0
20, 416329, Note_on_c, 13, 52, 0
20, 416340, Note_on_c, 13, 48, 52
20, 416340, Note_on_c, 13, 52, 52
20, 416389, Note_on_c, 13, 48, 0
20, 416389, Note_on_c, 13, 52, 0
20, 416400, Note_on_c, 13, 52, 52
20, 416400, Note_on_c, 13, 48, 52
20, 416449, Note_on_c, 13, 52, 0
20, 416449, Note_on_c, 13, 48, 0
20, 416460, Note_on_c, 13, 52, 52
20, 416460, Note_on_c, 13, 48, 52
20, 416509, Note_on_c, 13, 52, 0
20, 416509, Note_on_c, 13, 48, 0
20, 416520, Note_on_c, 13, 48, 52
20, 416520, Note_on_c, 13, 52, 52
20, 416569, Note_on_c, 13, 48, 0
20, 416569, Note_on_c, 13, 52, 0
20, 416580, Note_on_c, 13, 52, 52
20, 416580, Note_on_c, 13, 48, 52
20, 416629, Note_on_c, 13, 52, 0
20, 416629, Note_on_c, 13, 48, 0
20, 416640, Note_on_c, 13, 53, 52
20, 416640, Note_on_c, 13, 50, 52
20, 416689, Note_on_c, 13, 53, 0
20, 416689, Note_on_c, 13, 50, 0
20, 416700, Note_on_c, 13, 53, 52
20, 416700, Note_on_c, 13, 50, 52
20, 416749, Note_on_c, 13, 53, 0
20, 416749, Note_on_c, 13, 50, 0
20, 416760, Note_on_c, 13, 50, 52
20, 416760, Note_on_c, 13, 53, 52
20, 416809, Note_on_c, 13, 50, 0
20, 416809, Note_on_c, 13, 53, 0
20, 416820, Note_on_c, 13, 53, 52
20, 416820, Note_on_c, 13, 50, 52
20, 416869, Note_on_c, 13, 53, 0
20, 416869, Note_on_c, 13, 50, 0
20, 416880, Note_on_c, 13, 53, 52
20, 416880, Note_on_c, 13, 50, 52
20, 416929, Note_on_c, 13, 53, 0
20, 416929, Note_on_c, 13, 50, 0
20, 416940, Note_on_c, 13, 53, 52
20, 416940, Note_on_c, 13, 50, 52
20, 416989, Note_on_c, 13, 53, 0
20, 416989, Note_on_c, 13, 50, 0
20, 417000, Note_on_c, 13, 50, 52
20, 417000, Note_on_c, 13, 53, 52
20, 417049, Note_on_c, 13, 50, 0
20, 417049, Note_on_c, 13, 53, 0
20, 417060, Note_on_c, 13, 53, 52
20, 417060, Note_on_c, 13, 50, 52
20, 417109, Note_on_c, 13, 53, 0
20, 417109, Note_on_c, 13, 50, 0
20, 417120, Note_on_c, 13, 64, 52
20, 417239, Note_on_c, 13, 64, 0
20, 417360, Note_on_c, 13, 64, 53
20, 417479, Note_on_c, 13, 64, 0
20, 417600, Note_on_c, 13, 60, 55
20, 417719, Note_on_c, 13, 60, 0
20, 417840, Note_on_c, 13, 60, 56
20, 417959, Note_on_c, 13, 60, 0
20, 418080, Note_on_c, 13, 62, 58
20, 418199, Note_on_c, 13, 62, 0
20, 418320, Note_on_c, 13, 64, 59
20, 418439, Note_on_c, 13, 64, 0
20, 418560, Note_on_c, 13, 65, 61
20, 418679, Note_on_c, 13, 65, 0
20, 418800, Note_on_c, 13, 64, 62
20, 418919, Note_on_c, 13, 64, 0
20, 419040, Note_on_c, 13, 64, 64
20, 419089, Note_on_c, 13, 64, 0
20, 419100, Note_on_c, 13, 64, 64
20, 419149, Note_on_c, 13, 64, 0
20, 419160, Note_on_c, 13, 64, 64
20, 419259, Note_on_c, 13, 64, 0
20, 419280, Note_on_c, 13, 64, 65
20, 419329, Note_on_c, 13, 64, 0
20, 419340, Note_on_c, 13, 64, 65
20, 419389, Note_on_c, 13, 64, 0
20, 419400, Note_on_c, 13, 64, 66
20, 419499, Note_on_c, 13, 64, 0
20, 419520, Note_on_c, 13, 65, 67
20, 419569, Note_on_c, 13, 65, 0
20, 419580, Note_on_c, 13, 65, 67
20, 419629, Note_on_c, 13, 65, 0
20, 419640, Note_on_c, 13, 65, 67
20, 419739, Note_on_c, 13, 65, 0
20, 419760, Note_on_c, 13, 65, 68
20, 419809, Note_on_c, 13, 65, 0
20, 419820, Note_on_c, 13, 65, 68
20, 419869, Note_on_c, 13, 65, 0
20, 419880, Note_on_c, 13, 65, 69
20, 419979, Note_on_c, 13, 65, 0
20, 420000, Note_on_c, 13, 62, 70
20, 420049, Note_on_c, 13, 62, 0
20, 420060, Note_on_c, 13, 62, 70
20, 420109, Note_on_c, 13, 62, 0
20, 420120, Note_on_c, 13, 62, 70
20, 420219, Note_on_c, 13, 62, 0
20, 420240, Note_on_c, 13, 64, 71
20, 420289, Note_on_c, 13, 64, 0
20, 420300, Note_on_c, 13, 64, 71
20, 420349, Note_on_c, 13, 64, 0
20, 420360, Note_on_c, 13, 64, 72
20, 420459, Note_on_c, 13, 64, 0
20, 420480, Note_on_c, 13, 65, 73
20, 420529, Note_on_c, 13, 65, 0
20, 420540, Note_on_c, 13, 65, 73
20, 420589, Note_on_c, 13, 65, 0
20, 420600, Note_on_c, 13, 65, 73
20, 420699, Note_on_c, 13, 65, 0
20, 420720, Note_on_c, 13, 64, 74
20, 420769, Note_on_c, 13, 64, 0
20, 420780, Note_on_c, 13, 64, 74
20, 420829, Note_on_c, 13, 64, 0
20, 420840, Note_on_c, 13, 64, 75
20, 420889, Note_on_c, 13, 64, 0
20, 420900, Note_on_c, 13, 64, 75
20, 420949, Note_on_c, 13, 64, 0
20, 420960, Note_on_c, 13, 64, 76
20, 421009, Note_on_c, 13, 64, 0
20, 421020, Note_on_c, 13, 64, 76
20, 421069, Note_on_c, 13, 64, 0
20, 421080, Note_on_c, 13, 64, 76
20, 421129, Note_on_c, 13, 64, 0
20, 421140, Note_on_c, 13, 64, 76
20, 421189, Note_on_c, 13, 64, 0
20, 421200, Note_on_c, 13, 64, 76
20, 421249, Note_on_c, 13, 64, 0
20, 421260, Note_on_c, 13, 64, 76
20, 421309, Note_on_c, 13, 64, 0
20, 421320, Note_on_c, 13, 64, 76
20, 421369, Note_on_c, 13, 64, 0
20, 421380, Note_on_c, 13, 64, 76
20, 421429, Note_on_c, 13, 64, 0
20, 421440, Note_on_c, 13, 65, 76
20, 421489, Note_on_c, 13, 65, 0
20, 421500, Note_on_c, 13, 65, 76
20, 421549, Note_on_c, 13, 65, 0
20, 421560, Note_on_c, 13, 65, 76
20, 421609, Note_on_c, 13, 65, 0
20, 421620, Note_on_c, 13, 65, 76
20, 421669, Note_on_c, 13, 65, 0
20, 421680, Note_on_c, 13, 65, 76
20, 421729, Note_on_c, 13, 65, 0
20, 421740, Note_on_c, 13, 65, 76
20, 421789, Note_on_c, 13, 65, 0
20, 421800, Note_on_c, 13, 65, 76
20, 421849, Note_on_c, 13, 65, 0
20, 421860, Note_on_c, 13, 65, 76
20, 421909, Note_on_c, 13, 65, 0
20, 421920, Note_on_c, 13, 62, 76
20, 421969, Note_on_c, 13, 62, 0
20, 421980, Note_on_c, 13, 62, 76
20, 422029, Note_on_c, 13, 62, 0
20, 422040, Note_on_c, 13, 62, 76
20, 422089, Note_on_c, 13, 62, 0
20, 422100, Note_on_c, 13, 62, 76
20, 422149, Note_on_c, 13, 62, 0
20, 422160, Note_on_c, 13, 60, 76
20, 422209, Note_on_c, 13, 60, 0
20, 422220, Note_on_c, 13, 60, 76
20, 422269, Note_on_c, 13, 60, 0
20, 422280, Note_on_c, 13, 60, 76
20, 422329, Note_on_c, 13, 60, 0
20, 422340, Note_on_c, 13, 60, 76
20, 422389, Note_on_c, 13, 60, 0
20, 422400, Note_on_c, 13, 65, 76
20, 422449, Note_on_c, 13, 65, 0
20, 422460, Note_on_c, 13, 65, 76
20, 422509, Note_on_c, 13, 65, 0
20, 422520, Note_on_c, 13, 65, 76
20, 422569, Note_on_c, 13, 65, 0
20, 422580, Note_on_c, 13, 65, 76
20, 422629, Note_on_c, 13, 65, 0
20, 422640, Note_on_c, 13, 62, 76
20, 422689, Note_on_c, 13, 62, 0
20, 422700, Note_on_c, 13, 62, 76
20, 422749, Note_on_c, 13, 62, 0
20, 422760, Note_on_c, 13, 62, 76
20, 422809, Note_on_c, 13, 62, 0
20, 422820, Note_on_c, 13, 62, 76
20, 422869, Note_on_c, 13, 62, 0
20, 422880, Note_on_c, 13, 60, 84
20, 422929, Note_on_c, 13, 60, 0
20, 422940, Note_on_c, 13, 55, 84
20, 422940, Note_on_c, 13, 52, 84
20, 422989, Note_on_c, 13, 55, 0
20, 422989, Note_on_c, 13, 52, 0
20, 423000, Note_on_c, 13, 52, 84
20, 423000, Note_on_c, 13, 55, 84
20, 423049, Note_on_c, 13, 52, 0
20, 423049, Note_on_c, 13, 55, 0
20, 423060, Note_on_c, 13, 52, 84
20, 423060, Note_on_c, 13, 55, 84
20, 423109, Note_on_c, 13, 52, 0
20, 423109, Note_on_c, 13, 55, 0
20, 423120, Note_on_c, 13, 52, 84
20, 423120, Note_on_c, 13, 55, 84
20, 423169, Note_on_c, 13, 52, 0
20, 423169, Note_on_c, 13, 55, 0
20, 423180, Note_on_c, 13, 52, 84
20, 423180, Note_on_c, 13, 55, 84
20, 423229, Note_on_c, 13, 52, 0
20, 423229, Note_on_c, 13, 55, 0
20, 423240, Note_on_c, 13, 52, 84
20, 423240, Note_on_c, 13, 55, 84
20, 423289, Note_on_c, 13, 52, 0
20, 423289, Note_on_c, 13, 55, 0
20, 423300, Note_on_c, 13, 55, 84
20, 423300, Note_on_c, 13, 52, 84
20, 423349, Note_on_c, 13, 55, 0
20, 423349, Note_on_c, 13, 52, 0
20, 423360, Note_on_c, 13, 52, 84
20, 423360, Note_on_c, 13, 55, 84
20, 423409, Note_on_c, 13, 52, 0
20, 423409, Note_on_c, 13, 55, 0
20, 423420, Note_on_c, 13, 55, 84
20, 423420, Note_on_c, 13, 52, 84
20, 423469, Note_on_c, 13, 55, 0
20, 423469, Note_on_c, 13, 52, 0
20, 423480, Note_on_c, 13, 55, 84
20, 423480, Note_on_c, 13, 52, 84
20, 423529, Note_on_c, 13, 55, 0
20, 423529, Note_on_c, 13, 52, 0
20, 423540, Note_on_c, 13, 55, 84
20, 423540, Note_on_c, 13, 52, 84
20, 423589, Note_on_c, 13, 55, 0
20, 423589, Note_on_c, 13, 52, 0
20, 423600, Note_on_c, 13, 52, 84
20, 423600, Note_on_c, 13, 55, 84
20, 423649, Note_on_c, 13, 52, 0
20, 423649, Note_on_c, 13, 55, 0
20, 423660, Note_on_c, 13, 52, 84
20, 423660, Note_on_c, 13, 55, 84
20, 423709, Note_on_c, 13, 52, 0
20, 423709, Note_on_c, 13, 55, 0
20, 423720, Note_on_c, 13, 52, 84
20, 423720, Note_on_c, 13, 55, 84
20, 423769, Note_on_c, 13, 52, 0
20, 423769, Note_on_c, 13, 55, 0
20, 423780, Note_on_c, 13, 55, 84
20, 423780, Note_on_c, 13, 52, 84
20, 423829, Note_on_c, 13, 55, 0
20, 423829, Note_on_c, 13, 52, 0
20, 423840, Note_on_c, 13, 52, 84
20, 423840, Note_on_c, 13, 55, 84
20, 423889, Note_on_c, 13, 52, 0
20, 423889, Note_on_c, 13, 55, 0
20, 423900, Note_on_c, 13, 55, 84
20, 423900, Note_on_c, 13, 52, 84
20, 423949, Note_on_c, 13, 55, 0
20, 423949, Note_on_c, 13, 52, 0
20, 423960, Note_on_c, 13, 55, 84
20, 423960, Note_on_c, 13, 52, 84
20, 424009, Note_on_c, 13, 55, 0
20, 424009, Note_on_c, 13, 52, 0
20, 424020, Note_on_c, 13, 55, 84
20, 424020, Note_on_c, 13, 52, 84
20, 424069, Note_on_c, 13, 55, 0
20, 424069, Note_on_c, 13, 52, 0
20, 424080, Note_on_c, 13, 52, 84
20, 424080, Note_on_c, 13, 55, 84
20, 424129, Note_on_c, 13, 52, 0
20, 424129, Note_on_c, 13, 55, 0
20, 424140, Note_on_c, 13, 55, 84
20, 424140, Note_on_c, 13, 52, 84
20, 424189, Note_on_c, 13, 55, 0
20, 424189, Note_on_c, 13, 52, 0
20, 424200, Note_on_c, 13, 55, 84
20, 424200, Note_on_c, 13, 52, 84
20, 424249, Note_on_c, 13, 55, 0
20, 424249, Note_on_c, 13, 52, 0
20, 424260, Note_on_c, 13, 55, 84
20, 424260, Note_on_c, 13, 52, 84
20, 424309, Note_on_c, 13, 55, 0
20, 424309, Note_on_c, 13, 52, 0
20, 424320, Note_on_c, 13, 52, 84
20, 424320, Note_on_c, 13, 55, 84
20, 424369, Note_on_c, 13, 52, 0
20, 424369, Note_on_c, 13, 55, 0
20, 424380, Note_on_c, 13, 55, 84
20, 424380, Note_on_c, 13, 52, 84
20, 424429, Note_on_c, 13, 55, 0
20, 424429, Note_on_c, 13, 52, 0
20, 424440, Note_on_c, 13, 52, 84
20, 424440, Note_on_c, 13, 55, 84
20, 424489, Note_on_c, 13, 52, 0
20, 424489, Note_on_c, 13, 55, 0
20, 424500, Note_on_c, 13, 52, 84
20, 424500, Note_on_c, 13, 55, 84
20, 424549, Note_on_c, 13, 52, 0
20, 424549, Note_on_c, 13, 55, 0
20, 424560, Note_on_c, 13, 52, 84
20, 424560, Note_on_c, 13, 55, 84
20, 424609, Note_on_c, 13, 52, 0
20, 424609, Note_on_c, 13, 55, 0
20, 424620, Note_on_c, 13, 55, 84
20, 424620, Note_on_c, 13, 52, 84
20, 424669, Note_on_c, 13, 55, 0
20, 424669, Note_on_c, 13, 52, 0
20, 424680, Note_on_c, 13, 55, 84
20, 424680, Note_on_c, 13, 52, 84
20, 424729, Note_on_c, 13, 55, 0
20, 424729, Note_on_c, 13, 52, 0
20, 424740, Note_on_c, 13, 55, 84
20, 424740, Note_on_c, 13, 52, 84
20, 424789, Note_on_c, 13, 55, 0
20, 424789, Note_on_c, 13, 52, 0
20, 424800, Note_on_c, 13, 55, 84
20, 424800, Note_on_c, 13, 52, 84
20, 424849, Note_on_c, 13, 55, 0
20, 424849, Note_on_c, 13, 52, 0
20, 424860, Note_on_c, 13, 55, 84
20, 424860, Note_on_c, 13, 52, 84
20, 424909, Note_on_c, 13, 55, 0
20, 424909, Note_on_c, 13, 52, 0
20, 424920, Note_on_c, 13, 52, 84
20, 424920, Note_on_c, 13, 55, 84
20, 424969, Note_on_c, 13, 52, 0
20, 424969, Note_on_c, 13, 55, 0
20, 424980, Note_on_c, 13, 55, 84
20, 424980, Note_on_c, 13, 52, 84
20, 425029, Note_on_c, 13, 55, 0
20, 425029, Note_on_c, 13, 52, 0
20, 425040, Note_on_c, 13, 52, 84
20, 425040, Note_on_c, 13, 55, 84
20, 425089, Note_on_c, 13, 52, 0
20, 425089, Note_on_c, 13, 55, 0
20, 425100, Note_on_c, 13, 52, 84
20, 425100, Note_on_c, 13, 55, 84
20, 425149, Note_on_c, 13, 52, 0
20, 425149, Note_on_c, 13, 55, 0
20, 425160, Note_on_c, 13, 52, 84
20, 425160, Note_on_c, 13, 55, 84
20, 425209, Note_on_c, 13, 52, 0
20, 425209, Note_on_c, 13, 55, 0
20, 425220, Note_on_c, 13, 52, 84
20, 425220, Note_on_c, 13, 55, 84
20, 425269, Note_on_c, 13, 52, 0
20, 425269, Note_on_c, 13, 55, 0
20, 425280, Note_on_c, 13, 55, 84
20, 425280, Note_on_c, 13, 52, 84
20, 425329, Note_on_c, 13, 55, 0
20, 425329, Note_on_c, 13, 52, 0
20, 425340, Note_on_c, 13, 55, 84
20, 425340, Note_on_c, 13, 52, 84
20, 425389, Note_on_c, 13, 55, 0
20, 425389, Note_on_c, 13, 52, 0
20, 425400, Note_on_c, 13, 52, 84
20, 425400, Note_on_c, 13, 55, 84
20, 425449, Note_on_c, 13, 52, 0
20, 425449, Note_on_c, 13, 55, 0
20, 425460, Note_on_c, 13, 52, 84
20, 425460, Note_on_c, 13, 55, 84
20, 425509, Note_on_c, 13, 52, 0
20, 425509, Note_on_c, 13, 55, 0
20, 425520, Note_on_c, 13, 55, 84
20, 425520, Note_on_c, 13, 52, 84
20, 425569, Note_on_c, 13, 55, 0
20, 425569, Note_on_c, 13, 52, 0
20, 425580, Note_on_c, 13, 55, 84
20, 425580, Note_on_c, 13, 52, 84
20, 425629, Note_on_c, 13, 55, 0
20, 425629, Note_on_c, 13, 52, 0
20, 425640, Note_on_c, 13, 55, 84
20, 425640, Note_on_c, 13, 52, 84
20, 425689, Note_on_c, 13, 55, 0
20, 425689, Note_on_c, 13, 52, 0
20, 425700, Note_on_c, 13, 52, 84
20, 425700, Note_on_c, 13, 55, 84
20, 425749, Note_on_c, 13, 52, 0
20, 425749, Note_on_c, 13, 55, 0
20, 425760, Note_on_c, 13, 52, 84
20, 425760, Note_on_c, 13, 55, 84
20, 425809, Note_on_c, 13, 52, 0
20, 425809, Note_on_c, 13, 55, 0
20, 425820, Note_on_c, 13, 52, 84
20, 425820, Note_on_c, 13, 55, 84
20, 425869, Note_on_c, 13, 52, 0
20, 425869, Note_on_c, 13, 55, 0
20, 425880, Note_on_c, 13, 52, 84
20, 425880, Note_on_c, 13, 55, 84
20, 425929, Note_on_c, 13, 52, 0
20, 425929, Note_on_c, 13, 55, 0
20, 425940, Note_on_c, 13, 52, 84
20, 425940, Note_on_c, 13, 55, 84
20, 425989, Note_on_c, 13, 52, 0
20, 425989, Note_on_c, 13, 55, 0
20, 426000, Note_on_c, 13, 52, 84
20, 426000, Note_on_c, 13, 55, 84
20, 426049, Note_on_c, 13, 52, 0
20, 426049, Note_on_c, 13, 55, 0
20, 426060, Note_on_c, 13, 52, 84
20, 426060, Note_on_c, 13, 55, 84
20, 426109, Note_on_c, 13, 52, 0
20, 426109, Note_on_c, 13, 55, 0
20, 426120, Note_on_c, 13, 52, 84
20, 426120, Note_on_c, 13, 55, 84
20, 426169, Note_on_c, 13, 52, 0
20, 426169, Note_on_c, 13, 55, 0
20, 426180, Note_on_c, 13, 55, 84
20, 426180, Note_on_c, 13, 52, 84
20, 426229, Note_on_c, 13, 55, 0
20, 426229, Note_on_c, 13, 52, 0
20, 426240, Note_on_c, 13, 55, 84
20, 426240, Note_on_c, 13, 52, 84
20, 426289, Note_on_c, 13, 55, 0
20, 426289, Note_on_c, 13, 52, 0
20, 426300, Note_on_c, 13, 55, 84
20, 426300, Note_on_c, 13, 52, 84
20, 426349, Note_on_c, 13, 55, 0
20, 426349, Note_on_c, 13, 52, 0
20, 426360, Note_on_c, 13, 55, 84
20, 426360, Note_on_c, 13, 52, 84
20, 426409, Note_on_c, 13, 55, 0
20, 426409, Note_on_c, 13, 52, 0
20, 426420, Note_on_c, 13, 52, 84
20, 426420, Note_on_c, 13, 55, 84
20, 426469, Note_on_c, 13, 52, 0
20, 426469, Note_on_c, 13, 55, 0
20, 426480, Note_on_c, 13, 52, 84
20, 426480, Note_on_c, 13, 55, 84
20, 426529, Note_on_c, 13, 52, 0
20, 426529, Note_on_c, 13, 55, 0
20, 426540, Note_on_c, 13, 52, 84
20, 426540, Note_on_c, 13, 55, 84
20, 426589, Note_on_c, 13, 52, 0
20, 426589, Note_on_c, 13, 55, 0
20, 426600, Note_on_c, 13, 52, 84
20, 426600, Note_on_c, 13, 55, 84
20, 426649, Note_on_c, 13, 52, 0
20, 426649, Note_on_c, 13, 55, 0
20, 426660, Note_on_c, 13, 52, 84
20, 426660, Note_on_c, 13, 55, 84
20, 426709, Note_on_c, 13, 52, 0
20, 426709, Note_on_c, 13, 55, 0
20, 426720, Note_on_c, 13, 52, 84
20, 426720, Note_on_c, 13, 55, 84
20, 426769, Note_on_c, 13, 52, 0
20, 426769, Note_on_c, 13, 55, 0
20, 426780, Note_on_c, 13, 52, 84
20, 426780, Note_on_c, 13, 55, 84
20, 426829, Note_on_c, 13, 52, 0
20, 426829, Note_on_c, 13, 55, 0
20, 426840, Note_on_c, 13, 55, 84
20, 426840, Note_on_c, 13, 52, 84
20, 426889, Note_on_c, 13, 55, 0
20, 426889, Note_on_c, 13, 52, 0
20, 426900, Note_on_c, 13, 55, 84
20, 426900, Note_on_c, 13, 52, 84
20, 426949, Note_on_c, 13, 55, 0
20, 426949, Note_on_c, 13, 52, 0
20, 426960, Note_on_c, 13, 52, 84
20, 426960, Note_on_c, 13, 55, 84
20, 427009, Note_on_c, 13, 52, 0
20, 427009, Note_on_c, 13, 55, 0
20, 427020, Note_on_c, 13, 52, 84
20, 427020, Note_on_c, 13, 55, 84
20, 427069, Note_on_c, 13, 52, 0
20, 427069, Note_on_c, 13, 55, 0
20, 427080, Note_on_c, 13, 52, 84
20, 427080, Note_on_c, 13, 55, 84
20, 427129, Note_on_c, 13, 52, 0
20, 427129, Note_on_c, 13, 55, 0
20, 427140, Note_on_c, 13, 52, 84
20, 427140, Note_on_c, 13, 55, 84
20, 427189, Note_on_c, 13, 52, 0
20, 427189, Note_on_c, 13, 55, 0
20, 427200, Note_on_c, 13, 55, 84
20, 427200, Note_on_c, 13, 52, 84
20, 427249, Note_on_c, 13, 55, 0
20, 427249, Note_on_c, 13, 52, 0
20, 427260, Note_on_c, 13, 52, 84
20, 427260, Note_on_c, 13, 55, 84
20, 427309, Note_on_c, 13, 52, 0
20, 427309, Note_on_c, 13, 55, 0
20, 427320, Note_on_c, 13, 52, 84
20, 427320, Note_on_c, 13, 55, 84
20, 427369, Note_on_c, 13, 52, 0
20, 427369, Note_on_c, 13, 55, 0
20, 427380, Note_on_c, 13, 55, 84
20, 427380, Note_on_c, 13, 52, 84
20, 427429, Note_on_c, 13, 55, 0
20, 427429, Note_on_c, 13, 52, 0
20, 427440, Note_on_c, 13, 52, 84
20, 427440, Note_on_c, 13, 55, 84
20, 427489, Note_on_c, 13, 52, 0
20, 427489, Note_on_c, 13, 55, 0
20, 427500, Note_on_c, 13, 55, 84
20, 427500, Note_on_c, 13, 52, 84
20, 427549, Note_on_c, 13, 55, 0
20, 427549, Note_on_c, 13, 52, 0
20, 427560, Note_on_c, 13, 52, 84
20, 427560, Note_on_c, 13, 55, 84
20, 427609, Note_on_c, 13, 52, 0
20, 427609, Note_on_c, 13, 55, 0
20, 427620, Note_on_c, 13, 52, 84
20, 427620, Note_on_c, 13, 55, 84
20, 427669, Note_on_c, 13, 52, 0
20, 427669, Note_on_c, 13, 55, 0
20, 427680, Note_on_c, 13, 52, 84
20, 427680, Note_on_c, 13, 55, 84
20, 427729, Note_on_c, 13, 52, 0
20, 427729, Note_on_c, 13, 55, 0
20, 427740, Note_on_c, 13, 55, 84
20, 427740, Note_on_c, 13, 52, 84
20, 427789, Note_on_c, 13, 55, 0
20, 427789, Note_on_c, 13, 52, 0
20, 427800, Note_on_c, 13, 55, 84
20, 427800, Note_on_c, 13, 52, 84
20, 427849, Note_on_c, 13, 55, 0
20, 427849, Note_on_c, 13, 52, 0
20, 427860, Note_on_c, 13, 52, 84
20, 427860, Note_on_c, 13, 55, 84
20, 427909, Note_on_c, 13, 52, 0
20, 427909, Note_on_c, 13, 55, 0
20, 427920, Note_on_c, 13, 52, 84
20, 427920, Note_on_c, 13, 55, 84
20, 427969, Note_on_c, 13, 52, 0
20, 427969, Note_on_c, 13, 55, 0
20, 427980, Note_on_c, 13, 55, 84
20, 427980, Note_on_c, 13, 52, 84
20, 428029, Note_on_c, 13, 55, 0
20, 428029, Note_on_c, 13, 52, 0
20, 428040, Note_on_c, 13, 52, 84
20, 428040, Note_on_c, 13, 55, 84
20, 428089, Note_on_c, 13, 52, 0
20, 428089, Note_on_c, 13, 55, 0
20, 428100, Note_on_c, 13, 55, 84
20, 428100, Note_on_c, 13, 52, 84
20, 428149, Note_on_c, 13, 55, 0
20, 428149, Note_on_c, 13, 52, 0
20, 428160, Note_on_c, 13, 52, 84
20, 428160, Note_on_c, 13, 55, 84
20, 428209, Note_on_c, 13, 52, 0
20, 428209, Note_on_c, 13, 55, 0
20, 428220, Note_on_c, 13, 52, 84
20, 428220, Note_on_c, 13, 55, 84
20, 428269, Note_on_c, 13, 52, 0
20, 428269, Note_on_c, 13, 55, 0
20, 428280, Note_on_c, 13, 52, 84
20, 428280, Note_on_c, 13, 55, 84
20, 428329, Note_on_c, 13, 52, 0
20, 428329, Note_on_c, 13, 55, 0
20, 428340, Note_on_c, 13, 55, 84
20, 428340, Note_on_c, 13, 52, 84
20, 428389, Note_on_c, 13, 55, 0
20, 428389, Note_on_c, 13, 52, 0
20, 428400, Note_on_c, 13, 55, 84
20, 428400, Note_on_c, 13, 52, 84
20, 428449, Note_on_c, 13, 55, 0
20, 428449, Note_on_c, 13, 52, 0
20, 428460, Note_on_c, 13, 55, 84
20, 428460, Note_on_c, 13, 52, 84
20, 428509, Note_on_c, 13, 55, 0
20, 428509, Note_on_c, 13, 52, 0
20, 428520, Note_on_c, 13, 52, 84
20, 428520, Note_on_c, 13, 55, 84
20, 428569, Note_on_c, 13, 52, 0
20, 428569, Note_on_c, 13, 55, 0
20, 428580, Note_on_c, 13, 55, 84
20, 428580, Note_on_c, 13, 52, 84
20, 428629, Note_on_c, 13, 55, 0
20, 428629, Note_on_c, 13, 52, 0
20, 428640, Note_on_c, 13, 55, 84
20, 428640, Note_on_c, 13, 52, 84
20, 428689, Note_on_c, 13, 55, 0
20, 428689, Note_on_c, 13, 52, 0
20, 428700, Note_on_c, 13, 52, 84
20, 428700, Note_on_c, 13, 55, 84
20, 428749, Note_on_c, 13, 52, 0
20, 428749, Note_on_c, 13, 55, 0
20, 428760, Note_on_c, 13, 52, 84
20, 428760, Note_on_c, 13, 55, 84
20, 428809, Note_on_c, 13, 52, 0
20, 428809, Note_on_c, 13, 55, 0
20, 428820, Note_on_c, 13, 55, 84
20, 428820, Note_on_c, 13, 52, 84
20, 428869, Note_on_c, 13, 55, 0
20, 428869, Note_on_c, 13, 52, 0
20, 428880, Note_on_c, 13, 52, 84
20, 428880, Note_on_c, 13, 55, 84
20, 428929, Note_on_c, 13, 52, 0
20, 428929, Note_on_c, 13, 55, 0
20, 428940, Note_on_c, 13, 52, 84
20, 428940, Note_on_c, 13, 55, 84
20, 428989, Note_on_c, 13, 52, 0
20, 428989, Note_on_c, 13, 55, 0
20, 429000, Note_on_c, 13, 55, 84
20, 429000, Note_on_c, 13, 52, 84
20, 429049, Note_on_c, 13, 55, 0
20, 429049, Note_on_c, 13, 52, 0
20, 429060, Note_on_c, 13, 52, 84
20, 429060, Note_on_c, 13, 55, 84
20, 429109, Note_on_c, 13, 52, 0
20, 429109, Note_on_c, 13, 55, 0
20, 429120, Note_on_c, 13, 55, 84
20, 429120, Note_on_c, 13, 52, 84
20, 429169, Note_on_c, 13, 55, 0
20, 429169, Note_on_c, 13, 52, 0
20, 429180, Note_on_c, 13, 55, 84
20, 429180, Note_on_c, 13, 52, 84
20, 429229, Note_on_c, 13, 55, 0
20, 429229, Note_on_c, 13, 52, 0
20, 429240, Note_on_c, 13, 55, 84
20, 429240, Note_on_c, 13, 52, 84
20, 429289, Note_on_c, 13, 55, 0
20, 429289, Note_on_c, 13, 52, 0
20, 429300, Note_on_c, 13, 52, 84
20, 429300, Note_on_c, 13, 55, 84
20, 429349, Note_on_c, 13, 52, 0
20, 429349, Note_on_c, 13, 55, 0
20, 429360, Note_on_c, 13, 55, 84
20, 429360, Note_on_c, 13, 52, 84
20, 429409, Note_on_c, 13, 55, 0
20, 429409, Note_on_c, 13, 52, 0
20, 429420, Note_on_c, 13, 55, 84
20, 429420, Note_on_c, 13, 52, 84
20, 429469, Note_on_c, 13, 55, 0
20, 429469, Note_on_c, 13, 52, 0
20, 429480, Note_on_c, 13, 52, 84
20, 429480, Note_on_c, 13, 55, 84
20, 429529, Note_on_c, 13, 52, 0
20, 429529, Note_on_c, 13, 55, 0
20, 429540, Note_on_c, 13, 55, 84
20, 429540, Note_on_c, 13, 52, 84
20, 429589, Note_on_c, 13, 55, 0
20, 429589, Note_on_c, 13, 52, 0
20, 429600, Note_on_c, 13, 55, 84
20, 429600, Note_on_c, 13, 52, 84
20, 429719, Note_on_c, 13, 55, 0
20, 429719, Note_on_c, 13, 52, 0
20, 430080, Note_on_c, 13, 71, 84
20, 430080, Note_on_c, 13, 62, 84
20, 430080, Note_on_c, 13, 55, 84
20, 430199, Note_on_c, 13, 71, 0
20, 430199, Note_on_c, 13, 62, 0
20, 430199, Note_on_c, 13, 55, 0
20, 430560, Note_on_c, 13, 72, 84
20, 430560, Note_on_c, 13, 64, 84
20, 430560, Note_on_c, 13, 55, 84
20, 430679, Note_on_c, 13, 72, 0
20, 430679, Note_on_c, 13, 64, 0
20, 430679, Note_on_c, 13, 55, 0
20, 431040, Note_on_c, 13, 71, 84
20, 431040, Note_on_c, 13, 62, 84
20, 431040, Note_on_c, 13, 55, 84
20, 431159, Note_on_c, 13, 71, 0
20, 431159, Note_on_c, 13, 62, 0
20, 431159, Note_on_c, 13, 55, 0
20, 431520, Note_on_c, 13, 72, 84
20, 431520, Note_on_c, 13, 64, 84
20, 431520, Note_on_c, 13, 55, 84
20, 431639, Note_on_c, 13, 72, 0
20, 431639, Note_on_c, 13, 64, 0
20, 431639, Note_on_c, 13, 55, 0
20, 432000, Note_on_c, 13, 71, 84
20, 432000, Note_on_c, 13, 62, 84
20, 432000, Note_on_c, 13, 55, 84
20, 432119, Note_on_c, 13, 71, 0
20, 432119, Note_on_c, 13, 62, 0
20, 432119, Note_on_c, 13, 55, 0
20, 432480, Note_on_c, 13, 72, 84
20, 432480, Note_on_c, 13, 64, 84
20, 432480, Note_on_c, 13, 55, 84
20, 432599, Note_on_c, 13, 72, 0
20, 432599, Note_on_c, 13, 64, 0
20, 432599, Note_on_c, 13, 55, 0
20, 432960, Note_on_c, 13, 71, 84
20, 432960, Note_on_c, 13, 62, 84
20, 432960, Note_on_c, 13, 55, 84
20, 433079, Note_on_c, 13, 71, 0
20, 433079, Note_on_c, 13, 62, 0
20, 433079, Note_on_c, 13, 55, 0
20, 433440, Note_on_c, 13, 72, 84
20, 433440, Note_on_c, 13, 64, 84
20, 433440, Note_on_c, 13, 55, 84
20, 433559, Note_on_c, 13, 72, 0
20, 433559, Note_on_c, 13, 64, 0
20, 433559, Note_on_c, 13, 55, 0
20, 433920, Note_on_c, 13, 71, 84
20, 433920, Note_on_c, 13, 62, 84
20, 433920, Note_on_c, 13, 55, 84
20, 434039, Note_on_c, 13, 71, 0
20, 434039, Note_on_c, 13, 62, 0
20, 434039, Note_on_c, 13, 55, 0
20, 434400, Note_on_c, 13, 72, 84
20, 434400, Note_on_c, 13, 64, 84
20, 434400, Note_on_c, 13, 55, 84
20, 434519, Note_on_c, 13, 72, 0
20, 434519, Note_on_c, 13, 64, 0
20, 434519, Note_on_c, 13, 55, 0
20, 434880, Note_on_c, 13, 71, 84
20, 434880, Note_on_c, 13, 62, 84
20, 434880, Note_on_c, 13, 55, 84
20, 434999, Note_on_c, 13, 71, 0
20, 434999, Note_on_c, 13, 62, 0
20, 434999, Note_on_c, 13, 55, 0
20, 435360, Note_on_c, 13, 72, 84
20, 435409, Note_on_c, 13, 72, 0
20, 435420, Note_on_c, 13, 72, 84
20, 435469, Note_on_c, 13, 72, 0
20, 435480, Note_on_c, 13, 72, 84
20, 435529, Note_on_c, 13, 72, 0
20, 435540, Note_on_c, 13, 72, 84
20, 435589, Note_on_c, 13, 72, 0
20, 435600, Note_on_c, 13, 72, 84
20, 435649, Note_on_c, 13, 72, 0
20, 435660, Note_on_c, 13, 72, 84
20, 435709, Note_on_c, 13, 72, 0
20, 435720, Note_on_c, 13, 72, 84
20, 435769, Note_on_c, 13, 72, 0
20, 435780, Note_on_c, 13, 72, 84
20, 435829, Note_on_c, 13, 72, 0
20, 435840, Note_on_c, 13, 72, 84
20, 435889, Note_on_c, 13, 72, 0
20, 435900, Note_on_c, 13, 72, 84
20, 435949, Note_on_c, 13, 72, 0
20, 435960, Note_on_c, 13, 72, 84
20, 436009, Note_on_c, 13, 72, 0
20, 436020, Note_on_c, 13, 72, 84
20, 436069, Note_on_c, 13, 72, 0
20, 436080, Note_on_c, 13, 67, 84
20, 436129, Note_on_c, 13, 67, 0
20, 436140, Note_on_c, 13, 67, 84
20, 436189, Note_on_c, 13, 67, 0
20, 436200, Note_on_c, 13, 64, 84
20, 436249, Note_on_c, 13, 64, 0
20, 436260, Note_on_c, 13, 64, 84
20, 436309, Note_on_c, 13, 64, 0
20, 436320, Note_on_c, 13, 60, 84
20, 436369, Note_on_c, 13, 60, 0
20, 436380, Note_on_c, 13, 60, 84
20, 436429, Note_on_c, 13, 60, 0
20, 436440, Note_on_c, 13, 60, 84
20, 436489, Note_on_c, 13, 60, 0
20, 436500, Note_on_c, 13, 60, 84
20, 436549, Note_on_c, 13, 60, 0
20, 436560, Note_on_c, 13, 60, 84
20, 436609, Note_on_c, 13, 60, 0
20, 436620, Note_on_c, 13, 60, 84
20, 436669, Note_on_c, 13, 60, 0
20, 436680, Note_on_c, 13, 60, 84
20, 436729, Note_on_c, 13, 60, 0
20, 436740, Note_on_c, 13, 60, 84
20, 436789, Note_on_c, 13, 60, 0
20, 436800, Note_on_c, 13, 60, 84
20, 436849, Note_on_c, 13, 60, 0
20, 436860, Note_on_c, 13, 60, 84
20, 436909, Note_on_c, 13, 60, 0
20, 436920, Note_on_c, 13, 60, 84
20, 436969, Note_on_c, 13, 60, 0
20, 436980, Note_on_c, 13, 60, 84
20, 437029, Note_on_c, 13, 60, 0
20, 437040, Note_on_c, 13, 55, 84
20, 437089, Note_on_c, 13, 55, 0
20, 437100, Note_on_c, 13, 55, 84
20, 437149, Note_on_c, 13, 55, 0
20, 437160, Note_on_c, 13, 52, 84
20, 437209, Note_on_c, 13, 52, 0
20, 437220, Note_on_c, 13, 52, 84
20, 437269, Note_on_c, 13, 52, 0
20, 437280, Note_on_c, 13, 48, 84
20, 437399, Note_on_c, 13, 48, 0
20, 437640, Note_on_c, 13, 60, 84
20, 437739, Note_on_c, 13, 60, 0
20, 437760, Note_on_c, 13, 60, 84
20, 437859, Note_on_c, 13, 60, 0
20, 437880, Note_on_c, 13, 60, 84
20, 437979, Note_on_c, 13, 60, 0
20, 438000, Note_on_c, 13, 60, 84
20, 438099, Note_on_c, 13, 60, 0
20, 438120, Note_on_c, 13, 60, 84
20, 438219, Note_on_c, 13, 60, 0
20, 438240, Note_on_c, 13, 60, 84
20, 438359, Note_on_c, 13, 60, 0
20, 438600, Note_on_c, 13, 60, 84
20, 438699, Note_on_c, 13, 60, 0
20, 438720, Note_on_c, 13, 60, 84
20, 438819, Note_on_c, 13, 60, 0
20, 438840, Note_on_c, 13, 60, 84
20, 438939, Note_on_c, 13, 60, 0
20, 438960, Note_on_c, 13, 60, 84
20, 439059, Note_on_c, 13, 60, 0
20, 439080, Note_on_c, 13, 60, 84
20, 439179, Note_on_c, 13, 60, 0
20, 439200, Note_on_c, 13, 60, 84
20, 439319, Note_on_c, 13, 60, 0
20, 439440, Note_on_c, 13, 60, 84
20, 439440, Note_on_c, 13, 48, 84
20, 439539, Note_on_c, 13, 60, 0
20, 439539, Note_on_c, 13, 48, 0
20, 439560, Note_on_c, 13, 60, 84
20, 439560, Note_on_c, 13, 48, 84
20, 439659, Note_on_c, 13, 60, 0
20, 439659, Note_on_c, 13, 48, 0
20, 439680, Note_on_c, 13, 60, 84
20, 439680, Note_on_c, 13, 48, 84
20, 439799, Note_on_c, 13, 60, 0
20, 439799, Note_on_c, 13, 48, 0
20, 439920, Note_on_c, 13, 60, 84
20, 439920, Note_on_c, 13, 48, 84
20, 440019, Note_on_c, 13, 60, 0
20, 440019, Note_on_c, 13, 48, 0
20, 440040, Note_on_c, 13, 60, 84
20, 440040, Note_on_c, 13, 48, 84
20, 440139, Note_on_c, 13, 60, 0
20, 440139, Note_on_c, 13, 48, 0
20, 440160, Note_on_c, 13, 60, 84
20, 440160, Note_on_c, 13, 48, 84
20, 440279, Note_on_c, 13, 60, 0
20, 440279, Note_on_c, 13, 48, 0
20, 440400, Note_on_c, 13, 60, 84
20, 440400, Note_on_c, 13, 48, 84
20, 440499, Note_on_c, 13, 60, 0
20, 440499, Note_on_c, 13, 48, 0
20, 440520, Note_on_c, 13, 60, 84
20, 440520, Note_on_c, 13, 48, 84
20, 440619, Note_on_c, 13, 60, 0
20, 440619, Note_on_c, 13, 48, 0
20, 440640, Note_on_c, 13, 60, 84
20, 440640, Note_on_c, 13, 48, 84
20, 440759, Note_on_c, 13, 60, 0
20, 440759, Note_on_c, 13, 48, 0
20, 440880, Note_on_c, 13, 60, 84
20, 440979, Note_on_c, 13, 60, 0
20, 441000, Note_on_c, 13, 60, 84
20, 441099, Note_on_c, 13, 60, 0
20, 441120, Note_on_c, 13, 60, 84
20, 441219, Note_on_c, 13, 60, 0
20, 441240, Note_on_c, 13, 64, 84
20, 441339, Note_on_c, 13, 64, 0
20, 441360, Note_on_c, 13, 67, 84
20, 441459, Note_on_c, 13, 67, 0
20, 441480, Note_on_c, 13, 72, 84
20, 441579, Note_on_c, 13, 72, 0
20, 441600, Note_on_c, 13, 76, 84
20, 441699, Note_on_c, 13, 76, 0
20, 441720, Note_on_c, 13, 79, 84
20, 441819, Note_on_c, 13, 79, 0
20, 441840, Note_on_c, 13, 76, 84
20, 441939, Note_on_c, 13, 76, 0
20, 441960, Note_on_c, 13, 72, 84
20, 442059, Note_on_c, 13, 72, 0
20, 442080, Note_on_c, 13, 67, 84
20, 442179, Note_on_c, 13, 67, 0
20, 442200, Note_on_c, 13, 64, 84
20, 442299, Note_on_c, 13, 64, 0
20, 442320, Note_on_c, 13, 60, 84
20, 442419, Note_on_c, 13, 60, 0
20, 442440, Note_on_c, 13, 55, 84
20, 442539, Note_on_c, 13, 55, 0
20, 442560, Note_on_c, 13, 52, 84
20, 442659, Note_on_c, 13, 52, 0
20, 442680, Note_on_c, 13, 48, 84
20, 442779, Note_on_c, 13, 48, 0
20, 442800, Note_on_c, 13, 60, 84
20, 442899, Note_on_c, 13, 60, 0
20, 442920, Note_on_c, 13, 60, 84
20, 443019, Note_on_c, 13, 60, 0
20, 443040, Note_on_c, 13, 60, 84
20, 443040, Note_on_c, 13, 48, 84
20, 443159, Note_on_c, 13, 60, 0
20, 443159, Note_on_c, 13, 48, 0
20, 444000, Note_on_c, 13, 72, 84
20, 444000, Note_on_c, 13, 64, 84
20, 444000, Note_on_c, 13, 55, 84
20, 444119, Note_on_c, 13, 72, 0
20, 444119, Note_on_c, 13, 64, 0
20, 444119, Note_on_c, 13, 55, 0
20, 444960, Note_on_c, 13, 60, 84
20, 444960, Note_on_c, 13, 48, 84
20, 445079, Note_on_c, 13, 60, 0
20, 445079, Note_on_c, 13, 48, 0
20, 445920, Note_on_c, 13, 72, 84
20, 445920, Note_on_c, 13, 64, 84
20, 445920, Note_on_c, 13, 55, 84
20, 445920, Note_on_c, 13, 48, 84
20, 446039, Note_on_c, 13, 72, 0
20, 446039, Note_on_c, 13, 64, 0
20, 446039, Note_on_c, 13, 55, 0
20, 446039, Note_on_c, 13, 48, 0
20, 446400, Note_on_c, 13, 72, 84
20, 446400, Note_on_c, 13, 64, 84
20, 446400, Note_on_c, 13, 55, 84
20, 446400, Note_on_c, 13, 48, 84
20, 446519, Note_on_c, 13, 72, 0
20, 446519, Note_on_c, 13, 64, 0
20, 446519, Note_on_c, 13, 55, 0
20, 446519, Note_on_c, 13, 48, 0
20, 446880, Note_on_c, 13, 72, 84
20, 446880, Note_on_c, 13, 64, 84
20, 446880, Note_on_c, 13, 55, 84
20, 446880, Note_on_c, 13, 48, 84
20, 446999, Note_on_c, 13, 72, 0
20, 446999, Note_on_c, 13, 64, 0
20, 446999, Note_on_c, 13, 55, 0
20, 446999, Note_on_c, 13, 48, 0
20, 447840, Note_on_c, 13, 72, 84
20, 447840, Note_on_c, 13, 64, 84
20, 447840, Note_on_c, 13, 55, 84
20, 447840, Note_on_c, 13, 48, 84
20, 447959, Note_on_c, 13, 72, 0
20, 447959, Note_on_c, 13, 64, 0
20, 447959, Note_on_c, 13, 55, 0
20, 447959, Note_on_c, 13, 48, 0
20, 448800, Note_on_c, 13, 48, 84
20, 451199, Note_on_c, 13, 48, 0
20, 451199, End_track
21, 0, Start_track
21, 0, Title_t, "Cello"
21, 0, MIDI_port, 0
21, 0, Program_c, 14, 48
21, 0, Control_c, 14, 7, 96
21, 0, Control_c, 14, 10, 90
21, 0, Control_c, 14, 11, 127
21, 0, Note_on_c, 14, 48, 84
21, 0, Note_on_c, 14, 36, 84
21, 239, Note_on_c, 14, 48, 0
21, 239, Note_on_c, 14, 36, 0
21, 480, Note_on_c, 14, 48, 84
21, 480, Note_on_c, 14, 36, 84
21, 719, Note_on_c, 14, 48, 0
21, 719, Note_on_c, 14, 36, 0
21, 960, Note_on_c, 14, 48, 84
21, 960, Note_on_c, 14, 36, 84
21, 1664, Note_on_c, 14, 48, 0
21, 1664, Note_on_c, 14, 36, 0
21, 1680, Note_on_c, 14, 43, 84
21, 1799, Note_on_c, 14, 43, 0
21, 1920, Note_on_c, 14, 48, 84
21, 2039, Note_on_c, 14, 48, 0
21, 2160, Note_on_c, 14, 43, 84
21, 2279, Note_on_c, 14, 43, 0
21, 2400, Note_on_c, 14, 36, 84
21, 2519, Note_on_c, 14, 36, 0
21, 2640, Note_on_c, 14, 43, 84
21, 2759, Note_on_c, 14, 43, 0
21, 2880, Note_on_c, 14, 36, 84
21, 3584, Note_on_c, 14, 36, 0
21, 3600, Note_on_c, 14, 48, 84
21, 3771, Note_on_c, 14, 48, 0
21, 3780, Note_on_c, 14, 48, 84
21, 3831, Note_on_c, 14, 48, 0
21, 3840, Note_on_c, 14, 43, 84
21, 4544, Note_on_c, 14, 43, 0
21, 4560, Note_on_c, 14, 43, 84
21, 4731, Note_on_c, 14, 43, 0
21, 4740, Note_on_c, 14, 43, 84
21, 4791, Note_on_c, 14, 43, 0
21, 4800, Note_on_c, 14, 48, 84
21, 5744, Note_on_c, 14, 48, 0
21, 5760, Note_on_c, 14, 45, 84
21, 6224, Note_on_c, 14, 45, 0
21, 6240, Note_on_c, 14, 41, 84
21, 6704, Note_on_c, 14, 41, 0
21, 6720, Note_on_c, 14, 40, 84
21, 6824, Note_on_c, 14, 40, 0
21, 6840, Note_on_c, 14, 41, 84
21, 6944, Note_on_c, 14, 41, 0
21, 6960, Note_on_c, 14, 40, 84
21, 7064, Note_on_c, 14, 40, 0
21, 7080, Note_on_c, 14, 38, 84
21, 7184, Note_on_c, 14, 38, 0
21, 7200, Note_on_c, 14, 36, 84
21, 7664, Note_on_c, 14, 36, 0
21, 7680, Note_on_c, 14, 45, 84
21, 8144, Note_on_c, 14, 45, 0
21, 8160, Note_on_c, 14, 41, 84
21, 8624, Note_on_c, 14, 41, 0
21, 8640, Note_on_c, 14, 40, 84
21, 8744, Note_on_c, 14, 40, 0
21, 8760, Note_on_c, 14, 41, 84
21, 8864, Note_on_c, 14, 41, 0
21, 8880, Note_on_c, 14, 40, 84
21, 8984, Note_on_c, 14, 40, 0
21, 9000, Note_on_c, 14, 38, 84
21, 9104, Note_on_c, 14, 38, 0
21, 9120, Note_on_c, 14, 36, 84
21, 9584, Note_on_c, 14, 36, 0
21, 9600, Note_on_c, 14, 45, 84
21, 10064, Note_on_c, 14, 45, 0
21, 10080, Note_on_c, 14, 41, 84
21, 10544, Note_on_c, 14, 41, 0
21, 10560, Note_on_c, 14, 40, 84
21, 10664, Note_on_c, 14, 40, 0
21, 10680, Note_on_c, 14, 41, 84
21, 10784, Note_on_c, 14, 41, 0
21, 10800, Note_on_c, 14, 40, 84
21, 10904, Note_on_c, 14, 40, 0
21, 10920, Note_on_c, 14, 38, 84
21, 11024, Note_on_c, 14, 38, 0
21, 11040, Note_on_c, 14, 36, 84
21, 11264, Note_on_c, 14, 36, 0
21, 11280, Note_on_c, 14, 48, 84
21, 11451, Note_on_c, 14, 48, 0
21, 11460, Note_on_c, 14, 48, 84
21, 11511, Note_on_c, 14, 48, 0
21, 11520, Note_on_c, 14, 47, 84
21, 11984, Note_on_c, 14, 47, 0
21, 12000, Note_on_c, 14, 48, 84
21, 12464, Note_on_c, 14, 48, 0
21, 12480, Note_on_c, 14, 43, 84
21, 12704, Note_on_c, 14, 43, 0
21, 12720, Note_on_c, 14, 43, 84
21, 13184, Note_on_c, 14, 43, 0
21, 13200, Note_on_c, 14, 48, 84
21, 13371, Note_on_c, 14, 48, 0
21, 13380, Note_on_c, 14, 48, 84
21, 13431, Note_on_c, 14, 48, 0
21, 13440, Note_on_c, 14, 47, 84
21, 13904, Note_on_c, 14, 47, 0
21, 13920, Note_on_c, 14, 48, 84
21, 14384, Note_on_c, 14, 48, 0
21, 14400, Note_on_c, 14, 43, 84
21, 14624, Note_on_c, 14, 43, 0
21, 14640, Note_on_c, 14, 43, 84
21, 15104, Note_on_c, 14, 43, 0
21, 15120, Note_on_c, 14, 48, 84
21, 15291, Note_on_c, 14, 48, 0
21, 15300, Note_on_c, 14, 48, 84
21, 15351, Note_on_c, 14, 48, 0
21, 15360, Note_on_c, 14, 47, 84
21, 15531, Note_on_c, 14, 47, 0
21, 15540, Note_on_c, 14, 47, 84
21, 15591, Note_on_c, 14, 47, 0
21, 15600, Note_on_c, 14, 43, 84
21, 15771, Note_on_c, 14, 43, 0
21, 15780, Note_on_c, 14, 43, 84
21, 15831, Note_on_c, 14, 43, 0
21, 15840, Note_on_c, 14, 48, 84
21, 16011, Note_on_c, 14, 48, 0
21, 16020, Note_on_c, 14, 48, 84
21, 16071, Note_on_c, 14, 48, 0
21, 16080, Note_on_c, 14, 52, 84
21, 16251, Note_on_c, 14, 52, 0
21, 16260, Note_on_c, 14, 52, 84
21, 16311, Note_on_c, 14, 52, 0
21, 16320, Note_on_c, 14, 55, 84
21, 16424, Note_on_c, 14, 55, 0
21, 16440, Note_on_c, 14, 43, 84
21, 16544, Note_on_c, 14, 43, 0
21, 16560, Note_on_c, 14, 43, 84
21, 16799, Note_on_c, 14, 43, 0
21, 17400, Note_on_c, 14, 43, 84
21, 17504, Note_on_c, 14, 43, 0
21, 17520, Note_on_c, 14, 43, 84
21, 17759, Note_on_c, 14, 43, 0
21, 18360, Note_on_c, 14, 43, 84
21, 18464, Note_on_c, 14, 43, 0
21, 18480, Note_on_c, 14, 43, 84
21, 18719, Note_on_c, 14, 43, 0
21, 18840, Note_on_c, 14, 43, 84
21, 18944, Note_on_c, 14, 43, 0
21, 18960, Note_on_c, 14, 43, 84
21, 19199, Note_on_c, 14, 43, 0
21, 19320, Note_on_c, 14, 43, 84
21, 19424, Note_on_c, 14, 43, 0
21, 19440, Note_on_c, 14, 43, 84
21, 19679, Note_on_c, 14, 43, 0
21, 19800, Note_on_c, 14, 43, 84
21, 19904, Note_on_c, 14, 43, 0
21, 19920, Note_on_c, 14, 43, 84
21, 20144, Note_on_c, 14, 43, 0
21, 20160, Note_on_c, 14, 43, 84
21, 20399, Note_on_c, 14, 43, 0
21, 21240, Note_on_c, 14, 64, 92
21, 21359, Note_on_c, 14, 64, 0
21, 21360, Note_on_c, 14, 62, 84
21, 21464, Note_on_c, 14, 62, 0
21, 21480, Note_on_c, 14, 60, 84
21, 21569, Note_on_c, 14, 60, 0
21, 21600, Note_on_c, 14, 59, 84
21, 21689, Note_on_c, 14, 59, 0
21, 21720, Note_on_c, 14, 60, 92
21, 21839, Note_on_c, 14, 60, 0
21, 21840, Note_on_c, 14, 59, 84
21, 21944, Note_on_c, 14, 59, 0
21, 21960, Note_on_c, 14, 57, 84
21, 22049, Note_on_c, 14, 57, 0
21, 22080, Note_on_c, 14, 55, 84
21, 22169, Note_on_c, 14, 55, 0
21, 22200, Note_on_c, 14, 60, 92
21, 22319, Note_on_c, 14, 60, 0
21, 22320, Note_on_c, 14, 59, 84
21, 22424, Note_on_c, 14, 59, 0
21, 22440, Note_on_c, 14, 57, 84
21, 22529, Note_on_c, 14, 57, 0
21, 22560, Note_on_c, 14, 55, 84
21, 22649, Note_on_c, 14, 55, 0
21, 22680, Note_on_c, 14, 60, 92
21, 22799, Note_on_c, 14, 60, 0
21, 22800, Note_on_c, 14, 59, 84
21, 22904, Note_on_c, 14, 59, 0
21, 22920, Note_on_c, 14, 57, 84
21, 23009, Note_on_c, 14, 57, 0
21, 23040, Note_on_c, 14, 55, 84
21, 23129, Note_on_c, 14, 55, 0
21, 23160, Note_on_c, 14, 60, 92
21, 23279, Note_on_c, 14, 60, 0
21, 23280, Note_on_c, 14, 59, 84
21, 23384, Note_on_c, 14, 59, 0
21, 23400, Note_on_c, 14, 57, 84
21, 23489, Note_on_c, 14, 57, 0
21, 23520, Note_on_c, 14, 55, 84
21, 23609, Note_on_c, 14, 55, 0
21, 23640, Note_on_c, 14, 53, 84
21, 23729, Note_on_c, 14, 53, 0
21, 23760, Note_on_c, 14, 52, 84
21, 23849, Note_on_c, 14, 52, 0
21, 23880, Note_on_c, 14, 50, 84
21, 23969, Note_on_c, 14, 50, 0
21, 24000, Note_on_c, 14, 48, 84
21, 24239, Note_on_c, 14, 48, 0
21, 25920, Note_on_c, 14, 43, 84
21, 26504, Note_on_c, 14, 43, 0
21, 26520, Note_on_c, 14, 43, 84
21, 26609, Note_on_c, 14, 43, 0
21, 26640, Note_on_c, 14, 47, 84
21, 26729, Note_on_c, 14, 47, 0
21, 26760, Note_on_c, 14, 50, 84
21, 26849, Note_on_c, 14, 50, 0
21, 26880, Note_on_c, 14, 53, 84
21, 26969, Note_on_c, 14, 53, 0
21, 27000, Note_on_c, 14, 55, 84
21, 27089, Note_on_c, 14, 55, 0
21, 27120, Note_on_c, 14, 59, 84
21, 27209, Note_on_c, 14, 59, 0
21, 27240, Note_on_c, 14, 62, 84
21, 27329, Note_on_c, 14, 62, 0
21, 27360, Note_on_c, 14, 65, 84
21, 27464, Note_on_c, 14, 65, 0
21, 27480, Note_on_c, 14, 67, 84
21, 27584, Note_on_c, 14, 67, 0
21, 27600, Note_on_c, 14, 65, 84
21, 27704, Note_on_c, 14, 65, 0
21, 27720, Note_on_c, 14, 62, 84
21, 27824, Note_on_c, 14, 62, 0
21, 27840, Note_on_c, 14, 59, 84
21, 27944, Note_on_c, 14, 59, 0
21, 27960, Note_on_c, 14, 62, 84
21, 28064, Note_on_c, 14, 62, 0
21, 28080, Note_on_c, 14, 59, 84
21, 28184, Note_on_c, 14, 59, 0
21, 28200, Note_on_c, 14, 55, 84
21, 28304, Note_on_c, 14, 55, 0
21, 28320, Note_on_c, 14, 53, 84
21, 28424, Note_on_c, 14, 53, 0
21, 28440, Note_on_c, 14, 50, 84
21, 28544, Note_on_c, 14, 50, 0
21, 28560, Note_on_c, 14, 47, 84
21, 28664, Note_on_c, 14, 47, 0
21, 28680, Note_on_c, 14, 50, 84
21, 28784, Note_on_c, 14, 50, 0
21, 28800, Note_on_c, 14, 43, 84
21, 29039, Note_on_c, 14, 43, 0
21, 29760, Note_on_c, 14, 36, 84
21, 30344, Note_on_c, 14, 36, 0
21, 30360, Note_on_c, 14, 36, 84
21, 30464, Note_on_c, 14, 36, 0
21, 30480, Note_on_c, 14, 40, 84
21, 30584, Note_on_c, 14, 40, 0
21, 30600, Note_on_c, 14, 43, 84
21, 30704, Note_on_c, 14, 43, 0
21, 30720, Note_on_c, 14, 48, 84
21, 30824, Note_on_c, 14, 48, 0
21, 30840, Note_on_c, 14, 52, 84
21, 30944, Note_on_c, 14, 52, 0
21, 30960, Note_on_c, 14, 55, 84
21, 31064, Note_on_c, 14, 55, 0
21, 31080, Note_on_c, 14, 60, 84
21, 31184, Note_on_c, 14, 60, 0
21, 31200, Note_on_c, 14, 64, 84
21, 31304, Note_on_c, 14, 64, 0
21, 31320, Note_on_c, 14, 60, 84
21, 31424, Note_on_c, 14, 60, 0
21, 31440, Note_on_c, 14, 55, 84
21, 31544, Note_on_c, 14, 55, 0
21, 31560, Note_on_c, 14, 52, 84
21, 31664, Note_on_c, 14, 52, 0
21, 31680, Note_on_c, 14, 48, 84
21, 31784, Note_on_c, 14, 48, 0
21, 31800, Note_on_c, 14, 47, 84
21, 31904, Note_on_c, 14, 47, 0
21, 31920, Note_on_c, 14, 48, 84
21, 32024, Note_on_c, 14, 48, 0
21, 32040, Note_on_c, 14, 48, 84
21, 32144, Note_on_c, 14, 48, 0
21, 32160, Note_on_c, 14, 48, 84
21, 32744, Note_on_c, 14, 48, 0
21, 32760, Note_on_c, 14, 47, 84
21, 32864, Note_on_c, 14, 47, 0
21, 32880, Note_on_c, 14, 48, 84
21, 32984, Note_on_c, 14, 48, 0
21, 33000, Note_on_c, 14, 48, 84
21, 33104, Note_on_c, 14, 48, 0
21, 33120, Note_on_c, 14, 48, 84
21, 33704, Note_on_c, 14, 48, 0
21, 33720, Note_on_c, 14, 49, 84
21, 33824, Note_on_c, 14, 49, 0
21, 33840, Note_on_c, 14, 50, 84
21, 33944, Note_on_c, 14, 50, 0
21, 33960, Note_on_c, 14, 50, 84
21, 34064, Note_on_c, 14, 50, 0
21, 34080, Note_on_c, 14, 50, 84
21, 34664, Note_on_c, 14, 50, 0
21, 34680, Note_on_c, 14, 49, 84
21, 34784, Note_on_c, 14, 49, 0
21, 34800, Note_on_c, 14, 50, 84
21, 34904, Note_on_c, 14, 50, 0
21, 34920, Note_on_c, 14, 50, 84
21, 35024, Note_on_c, 14, 50, 0
21, 35040, Note_on_c, 14, 50, 84
21, 35624, Note_on_c, 14, 50, 0
21, 35640, Note_on_c, 14, 49, 84
21, 35744, Note_on_c, 14, 49, 0
21, 35760, Note_on_c, 14, 50, 84
21, 35864, Note_on_c, 14, 50, 0
21, 35880, Note_on_c, 14, 50, 84
21, 35984, Note_on_c, 14, 50, 0
21, 36000, Note_on_c, 14, 50, 84
21, 36584, Note_on_c, 14, 50, 0
21, 36600, Note_on_c, 14, 49, 84
21, 36704, Note_on_c, 14, 49, 0
21, 36720, Note_on_c, 14, 50, 84
21, 36824, Note_on_c, 14, 50, 0
21, 36840, Note_on_c, 14, 50, 84
21, 36944, Note_on_c, 14, 50, 0
21, 36960, Note_on_c, 14, 50, 84
21, 37064, Note_on_c, 14, 50, 0
21, 37080, Note_on_c, 14, 49, 84
21, 37184, Note_on_c, 14, 49, 0
21, 37200, Note_on_c, 14, 50, 84
21, 37304, Note_on_c, 14, 50, 0
21, 37320, Note_on_c, 14, 50, 84
21, 37424, Note_on_c, 14, 50, 0
21, 37440, Note_on_c, 14, 50, 84
21, 37544, Note_on_c, 14, 50, 0
21, 37560, Note_on_c, 14, 49, 84
21, 37664, Note_on_c, 14, 49, 0
21, 37680, Note_on_c, 14, 50, 84
21, 37784, Note_on_c, 14, 50, 0
21, 37800, Note_on_c, 14, 50, 84
21, 37904, Note_on_c, 14, 50, 0
21, 37920, Note_on_c, 14, 50, 84
21, 38024, Note_on_c, 14, 50, 0
21, 38040, Note_on_c, 14, 49, 84
21, 38144, Note_on_c, 14, 49, 0
21, 38160, Note_on_c, 14, 50, 84
21, 38264, Note_on_c, 14, 50, 0
21, 38280, Note_on_c, 14, 50, 84
21, 38384, Note_on_c, 14, 50, 0
21, 38400, Note_on_c, 14, 50, 84
21, 38504, Note_on_c, 14, 50, 0
21, 38520, Note_on_c, 14, 62, 84
21, 38639, Note_on_c, 14, 62, 0
21, 38640, Note_on_c, 14, 60, 84
21, 38744, Note_on_c, 14, 60, 0
21, 38760, Note_on_c, 14, 59, 84
21, 38849, Note_on_c, 14, 59, 0
21, 38880, Note_on_c, 14, 57, 84
21, 38969, Note_on_c, 14, 57, 0
21, 39000, Note_on_c, 14, 59, 84
21, 39119, Note_on_c, 14, 59, 0
21, 39120, Note_on_c, 14, 57, 84
21, 39224, Note_on_c, 14, 57, 0
21, 39240, Note_on_c, 14, 55, 84
21, 39329, Note_on_c, 14, 55, 0
21, 39360, Note_on_c, 14, 54, 84
21, 39449, Note_on_c, 14, 54, 0
21, 39480, Note_on_c, 14, 55, 84
21, 39599, Note_on_c, 14, 55, 0
21, 39600, Note_on_c, 14, 54, 84
21, 39704, Note_on_c, 14, 54, 0
21, 39720, Note_on_c, 14, 52, 84
21, 39809, Note_on_c, 14, 52, 0
21, 39840, Note_on_c, 14, 50, 84
21, 39929, Note_on_c, 14, 50, 0
21, 39960, Note_on_c, 14, 50, 84
21, 40079, Note_on_c, 14, 50, 0
21, 40080, Note_on_c, 14, 52, 84
21, 40184, Note_on_c, 14, 52, 0
21, 40200, Note_on_c, 14, 45, 84
21, 40289, Note_on_c, 14, 45, 0
21, 40320, Note_on_c, 14, 50, 84
21, 40439, Note_on_c, 14, 50, 0
21, 41400, Note_on_c, 14, 50, 84
21, 41519, Note_on_c, 14, 50, 0
21, 41520, Note_on_c, 14, 48, 84
21, 41624, Note_on_c, 14, 48, 0
21, 41640, Note_on_c, 14, 57, 84
21, 41729, Note_on_c, 14, 57, 0
21, 41760, Note_on_c, 14, 48, 84
21, 41849, Note_on_c, 14, 48, 0
21, 41880, Note_on_c, 14, 47, 84
21, 41999, Note_on_c, 14, 47, 0
21, 42000, Note_on_c, 14, 45, 84
21, 42104, Note_on_c, 14, 45, 0
21, 42120, Note_on_c, 14, 54, 84
21, 42209, Note_on_c, 14, 54, 0
21, 42240, Note_on_c, 14, 43, 84
21, 42479, Note_on_c, 14, 43, 0
21, 42720, Note_on_c, 14, 43, 84
21, 42959, Note_on_c, 14, 43, 0
21, 43200, Note_on_c, 14, 43, 84
21, 43424, Note_on_c, 14, 43, 0
21, 43440, Note_on_c, 14, 50, 84
21, 43519, Note_on_c, 14, 50, 0
21, 43520, Note_on_c, 14, 52, 84
21, 43599, Note_on_c, 14, 52, 0
21, 43600, Note_on_c, 14, 54, 84
21, 43667, Note_on_c, 14, 54, 0
21, 43680, Note_on_c, 14, 55, 84
21, 43904, Note_on_c, 14, 55, 0
21, 43920, Note_on_c, 14, 55, 52
21, 44159, Note_on_c, 14, 55, 0
21, 44160, Note_on_c, 14, 54, 52
21, 44639, Note_on_c, 14, 54, 0
21, 44640, Note_on_c, 14, 55, 52
21, 45119, Note_on_c, 14, 55, 0
21, 45120, Note_on_c, 14, 57, 52
21, 45344, Note_on_c, 14, 57, 0
21, 45358, Control_c, 14, 11, 80
21, 45360, Control_c, 14, 11, 80
21, 45360, Note_on_c, 14, 54, 76
21, 45400, Control_c, 14, 11, 84
21, 45439, Note_on_c, 14, 54, 0
21, 45440, Note_on_c, 14, 55, 76
21, 45440, Control_c, 14, 11, 88
21, 45480, Control_c, 14, 11, 92
21, 45519, Note_on_c, 14, 55, 0
21, 45520, Note_on_c, 14, 57, 76
21, 45520, Control_c, 14, 11, 96
21, 45560, Control_c, 14, 11, 100
21, 45587, Note_on_c, 14, 57, 0
21, 45600, Note_on_c, 14, 50, 76
21, 45600, Control_c, 14, 11, 104
21, 45640, Control_c, 14, 11, 107
21, 45680, Control_c, 14, 11, 111
21, 45720, Control_c, 14, 11, 115
21, 45760, Control_c, 14, 11, 119
21, 45800, Control_c, 14, 11, 127
21, 45824, Note_on_c, 14, 50, 0
21, 45840, Note_on_c, 14, 48, 76
21, 45907, Note_on_c, 14, 48, 0
21, 45920, Note_on_c, 14, 47, 76
21, 45987, Note_on_c, 14, 47, 0
21, 46000, Note_on_c, 14, 45, 76
21, 46067, Note_on_c, 14, 45, 0
21, 46080, Note_on_c, 14, 43, 76
21, 46319, Note_on_c, 14, 43, 0
21, 46560, Note_on_c, 14, 43, 76
21, 46799, Note_on_c, 14, 43, 0
21, 47040, Note_on_c, 14, 43, 76
21, 47264, Note_on_c, 14, 43, 0
21, 47280, Note_on_c, 14, 50, 76
21, 47347, Note_on_c, 14, 50, 0
21, 47360, Note_on_c, 14, 52, 76
21, 47427, Note_on_c, 14, 52, 0
21, 47440, Note_on_c, 14, 54, 76
21, 47507, Note_on_c, 14, 54, 0
21, 47520, Note_on_c, 14, 55, 76
21, 47744, Note_on_c, 14, 55, 0
21, 47760, Note_on_c, 14, 55, 52
21, 47999, Note_on_c, 14, 55, 0
21, 48000, Note_on_c, 14, 54, 52
21, 48479, Note_on_c, 14, 54, 0
21, 48480, Note_on_c, 14, 55, 52
21, 48959, Note_on_c, 14, 55, 0
21, 48960, Note_on_c, 14, 57, 76
21, 49184, Note_on_c, 14, 57, 0
21, 49200, Note_on_c, 14, 50, 76
21, 49267, Note_on_c, 14, 50, 0
21, 49280, Note_on_c, 14, 52, 76
21, 49347, Note_on_c, 14, 52, 0
21, 49360, Note_on_c, 14, 54, 76
21, 49427, Note_on_c, 14, 54, 0
21, 49440, Note_on_c, 14, 55, 76
21, 49664, Note_on_c, 14, 55, 0
21, 49680, Note_on_c, 14, 57, 52
21, 49919, Note_on_c, 14, 57, 0
21, 49920, Note_on_c, 14, 56, 52
21, 50399, Note_on_c, 14, 56, 0
21, 50400, Note_on_c, 14, 57, 52
21, 50879, Note_on_c, 14, 57, 0
21, 50880, Note_on_c, 14, 59, 52
21, 51104, Note_on_c, 14, 59, 0
21, 51120, Note_on_c, 14, 52, 76
21, 51187, Note_on_c, 14, 52, 0
21, 51200, Note_on_c, 14, 54, 76
21, 51267, Note_on_c, 14, 54, 0
21, 51280, Note_on_c, 14, 56, 76
21, 51347, Note_on_c, 14, 56, 0
21, 51360, Note_on_c, 14, 57, 76
21, 51584, Note_on_c, 14, 57, 0
21, 51600, Note_on_c, 14, 48, 44
21, 51839, Note_on_c, 14, 48, 0
21, 51840, Note_on_c, 14, 47, 44
21, 52319, Note_on_c, 14, 47, 0
21, 52320, Note_on_c, 14, 48, 44
21, 52784, Note_on_c, 14, 48, 0
21, 52800, Note_on_c, 14, 43, 44
21, 52904, Note_on_c, 14, 43, 0
21, 52920, Note_on_c, 14, 55, 46
21, 53024, Note_on_c, 14, 55, 0
21, 53040, Note_on_c, 14, 55, 49
21, 53144, Note_on_c, 14, 55, 0
21, 53160, Note_on_c, 14, 55, 51
21, 53264, Note_on_c, 14, 55, 0
21, 53280, Note_on_c, 14, 55, 54
21, 53384, Note_on_c, 14, 55, 0
21, 53400, Note_on_c, 14, 55, 56
21, 53504, Note_on_c, 14, 55, 0
21, 53520, Note_on_c, 14, 55, 59
21, 53624, Note_on_c, 14, 55, 0
21, 53640, Note_on_c, 14, 55, 61
21, 53744, Note_on_c, 14, 55, 0
21, 53760, Note_on_c, 14, 55, 64
21, 53864, Note_on_c, 14, 55, 0
21, 53880, Note_on_c, 14, 55, 66
21, 53984, Note_on_c, 14, 55, 0
21, 54000, Note_on_c, 14, 55, 69
21, 54104, Note_on_c, 14, 55, 0
21, 54120, Note_on_c, 14, 55, 71
21, 54224, Note_on_c, 14, 55, 0
21, 54240, Note_on_c, 14, 55, 74
21, 54344, Note_on_c, 14, 55, 0
21, 54360, Note_on_c, 14, 55, 76
21, 54464, Note_on_c, 14, 55, 0
21, 54480, Note_on_c, 14, 55, 79
21, 54584, Note_on_c, 14, 55, 0
21, 54600, Note_on_c, 14, 55, 81
21, 54704, Note_on_c, 14, 55, 0
21, 54720, Note_on_c, 14, 48, 84
21, 55304, Note_on_c, 14, 48, 0
21, 55320, Note_on_c, 14, 48, 84
21, 55424, Note_on_c, 14, 48, 0
21, 55440, Note_on_c, 14, 48, 84
21, 55544, Note_on_c, 14, 48, 0
21, 55560, Note_on_c, 14, 48, 84
21, 55664, Note_on_c, 14, 48, 0
21, 55680, Note_on_c, 14, 48, 84
21, 55784, Note_on_c, 14, 48, 0
21, 55800, Note_on_c, 14, 48, 84
21, 55904, Note_on_c, 14, 48, 0
21, 55920, Note_on_c, 14, 48, 84
21, 56024, Note_on_c, 14, 48, 0
21, 56040, Note_on_c, 14, 48, 84
21, 56144, Note_on_c, 14, 48, 0
21, 56160, Note_on_c, 14, 48, 84
21, 56264, Note_on_c, 14, 48, 0
21, 56280, Note_on_c, 14, 48, 84
21, 56384, Note_on_c, 14, 48, 0
21, 56400, Note_on_c, 14, 48, 84
21, 56504, Note_on_c, 14, 48, 0
21, 56520, Note_on_c, 14, 48, 84
21, 56624, Note_on_c, 14, 48, 0
21, 56640, Note_on_c, 14, 48, 84
21, 56744, Note_on_c, 14, 48, 0
21, 56760, Note_on_c, 14, 48, 84
21, 56864, Note_on_c, 14, 48, 0
21, 56880, Note_on_c, 14, 49, 84
21, 56984, Note_on_c, 14, 49, 0
21, 57000, Note_on_c, 14, 49, 84
21, 57104, Note_on_c, 14, 49, 0
21, 57120, Note_on_c, 14, 50, 84
21, 57224, Note_on_c, 14, 50, 0
21, 57240, Note_on_c, 14, 50, 84
21, 57344, Note_on_c, 14, 50, 0
21, 57360, Note_on_c, 14, 51, 84
21, 57464, Note_on_c, 14, 51, 0
21, 57480, Note_on_c, 14, 51, 84
21, 57584, Note_on_c, 14, 51, 0
21, 57600, Note_on_c, 14, 52, 84
21, 57704, Note_on_c, 14, 52, 0
21, 57720, Note_on_c, 14, 52, 84
21, 57824, Note_on_c, 14, 52, 0
21, 57840, Note_on_c, 14, 54, 84
21, 57944, Note_on_c, 14, 54, 0
21, 57960, Note_on_c, 14, 54, 84
21, 58064, Note_on_c, 14, 54, 0
21, 58080, Note_on_c, 14, 55, 84
21, 58184, Note_on_c, 14, 55, 0
21, 58200, Note_on_c, 14, 43, 84
21, 58304, Note_on_c, 14, 43, 0
21, 58320, Note_on_c, 14, 45, 84
21, 58424, Note_on_c, 14, 45, 0
21, 58440, Note_on_c, 14, 47, 84
21, 58544, Note_on_c, 14, 47, 0
21, 58560, Note_on_c, 14, 48, 84
21, 58739, Note_on_c, 14, 48, 0
21, 59520, Note_on_c, 14, 50, 84
21, 59699, Note_on_c, 14, 50, 0
21, 61440, Note_on_c, 14, 61, 52
21, 61679, Note_on_c, 14, 61, 0
21, 61680, Note_on_c, 14, 62, 52
21, 61904, Note_on_c, 14, 62, 0
21, 61920, Note_on_c, 14, 62, 52
21, 62144, Note_on_c, 14, 62, 0
21, 62160, Note_on_c, 14, 62, 52
21, 62399, Note_on_c, 14, 62, 0
21, 63360, Note_on_c, 14, 61, 52
21, 63599, Note_on_c, 14, 61, 0
21, 63600, Note_on_c, 14, 62, 52
21, 63824, Note_on_c, 14, 62, 0
21, 63840, Note_on_c, 14, 62, 52
21, 64064, Note_on_c, 14, 62, 0
21, 64080, Note_on_c, 14, 62, 52
21, 64319, Note_on_c, 14, 62, 0
21, 64320, Note_on_c, 14, 52, 76
21, 64379, Note_on_c, 14, 52, 0
21, 64380, Note_on_c, 14, 52, 52
21, 65039, Note_on_c, 14, 52, 0
21, 65040, Note_on_c, 14, 50, 52
21, 65279, Note_on_c, 14, 50, 0
21, 65280, Note_on_c, 14, 48, 52
21, 65519, Note_on_c, 14, 48, 0
21, 65520, Note_on_c, 14, 47, 52
21, 65744, Note_on_c, 14, 47, 0
21, 65760, Note_on_c, 14, 47, 52
21, 65984, Note_on_c, 14, 47, 0
21, 66000, Note_on_c, 14, 47, 52
21, 66224, Note_on_c, 14, 47, 0
21, 66240, Note_on_c, 14, 48, 52
21, 66704, Note_on_c, 14, 48, 0
21, 66720, Note_on_c, 14, 45, 52
21, 67139, Note_on_c, 14, 45, 0
21, 67140, Note_on_c, 14, 48, 52
21, 67191, Note_on_c, 14, 48, 0
21, 67200, Note_on_c, 14, 50, 52
21, 67664, Note_on_c, 14, 50, 0
21, 67680, Note_on_c, 14, 50, 52
21, 68144, Note_on_c, 14, 50, 0
21, 68160, Note_on_c, 14, 47, 76
21, 68864, Note_on_c, 14, 47, 0
21, 68880, Note_on_c, 14, 45, 76
21, 69104, Note_on_c, 14, 45, 0
21, 69120, Note_on_c, 14, 43, 76
21, 69344, Note_on_c, 14, 43, 0
21, 69360, Note_on_c, 14, 42, 76
21, 69584, Note_on_c, 14, 42, 0
21, 69600, Note_on_c, 14, 42, 76
21, 69824, Note_on_c, 14, 42, 0
21, 69840, Note_on_c, 14, 42, 76
21, 70064, Note_on_c, 14, 42, 0
21, 70080, Note_on_c, 14, 47, 84
21, 70139, Note_on_c, 14, 47, 0
21, 70140, Note_on_c, 14, 47, 76
21, 70784, Note_on_c, 14, 47, 0
21, 70800, Note_on_c, 14, 45, 76
21, 71024, Note_on_c, 14, 45, 0
21, 71040, Note_on_c, 14, 43, 76
21, 71264, Note_on_c, 14, 43, 0
21, 71280, Note_on_c, 14, 42, 76
21, 71504, Note_on_c, 14, 42, 0
21, 71520, Note_on_c, 14, 42, 76
21, 71744, Note_on_c, 14, 42, 0
21, 71760, Note_on_c, 14, 42, 76
21, 71984, Note_on_c, 14, 42, 0
21, 72000, Note_on_c, 14, 42, 84
21, 72059, Note_on_c, 14, 42, 0
21, 72060, Note_on_c, 14, 42, 76
21, 72704, Note_on_c, 14, 42, 0
21, 72720, Note_on_c, 14, 43, 76
21, 72944, Note_on_c, 14, 43, 0
21, 72960, Note_on_c, 14, 48, 76
21, 73184, Note_on_c, 14, 48, 0
21, 73200, Note_on_c, 14, 48, 80
21, 73424, Note_on_c, 14, 48, 0
21, 73440, Note_on_c, 14, 48, 80
21, 73664, Note_on_c, 14, 48, 0
21, 73680, Note_on_c, 14, 48, 80
21, 73904, Note_on_c, 14, 48, 0
21, 73920, Note_on_c, 14, 48, 80
21, 74144, Note_on_c, 14, 48, 0
21, 74160, Note_on_c, 14, 48, 80
21, 74384, Note_on_c, 14, 48, 0
21, 74400, Note_on_c, 14, 48, 80
21, 74624, Note_on_c, 14, 48, 0
21, 74640, Note_on_c, 14, 48, 80
21, 74864, Note_on_c, 14, 48, 0
21, 74880, Note_on_c, 14, 48, 80
21, 75104, Note_on_c, 14, 48, 0
21, 75120, Note_on_c, 14, 48, 80
21, 75344, Note_on_c, 14, 48, 0
21, 75360, Note_on_c, 14, 48, 80
21, 75584, Note_on_c, 14, 48, 0
21, 75600, Note_on_c, 14, 48, 80
21, 75824, Note_on_c, 14, 48, 0
21, 75840, Note_on_c, 14, 41, 84
21, 75929, Note_on_c, 14, 41, 0
21, 75960, Note_on_c, 14, 36, 84
21, 76049, Note_on_c, 14, 36, 0
21, 76080, Note_on_c, 14, 44, 84
21, 76199, Note_on_c, 14, 44, 0
21, 76200, Note_on_c, 14, 41, 84
21, 76304, Note_on_c, 14, 41, 0
21, 76320, Note_on_c, 14, 44, 84
21, 76409, Note_on_c, 14, 44, 0
21, 76440, Note_on_c, 14, 41, 84
21, 76529, Note_on_c, 14, 41, 0
21, 76560, Note_on_c, 14, 48, 84
21, 76679, Note_on_c, 14, 48, 0
21, 76680, Note_on_c, 14, 44, 84
21, 76784, Note_on_c, 14, 44, 0
21, 76800, Note_on_c, 14, 48, 84
21, 76889, Note_on_c, 14, 48, 0
21, 76920, Note_on_c, 14, 44, 84
21, 77009, Note_on_c, 14, 44, 0
21, 77040, Note_on_c, 14, 53, 84
21, 77159, Note_on_c, 14, 53, 0
21, 77160, Note_on_c, 14, 48, 84
21, 77264, Note_on_c, 14, 48, 0
21, 77280, Note_on_c, 14, 53, 84
21, 77369, Note_on_c, 14, 53, 0
21, 77400, Note_on_c, 14, 48, 84
21, 77489, Note_on_c, 14, 48, 0
21, 77520, Note_on_c, 14, 56, 84
21, 77639, Note_on_c, 14, 56, 0
21, 77640, Note_on_c, 14, 53, 84
21, 77744, Note_on_c, 14, 53, 0
21, 77760, Note_on_c, 14, 55, 84
21, 78719, Note_on_c, 14, 55, 0
21, 78720, Note_on_c, 14, 55, 84
21, 79664, Note_on_c, 14, 55, 0
21, 79680, Note_on_c, 14, 62, 84
21, 79784, Note_on_c, 14, 62, 0
21, 79800, Note_on_c, 14, 65, 84
21, 79904, Note_on_c, 14, 65, 0
21, 79920, Note_on_c, 14, 59, 84
21, 80024, Note_on_c, 14, 59, 0
21, 80040, Note_on_c, 14, 62, 84
21, 80144, Note_on_c, 14, 62, 0
21, 80160, Note_on_c, 14, 55, 84
21, 80264, Note_on_c, 14, 55, 0
21, 80280, Note_on_c, 14, 59, 84
21, 80384, Note_on_c, 14, 59, 0
21, 80400, Note_on_c, 14, 53, 84
21, 80504, Note_on_c, 14, 53, 0
21, 80520, Note_on_c, 14, 55, 84
21, 80624, Note_on_c, 14, 55, 0
21, 80640, Note_on_c, 14, 50, 84
21, 80744, Note_on_c, 14, 50, 0
21, 80760, Note_on_c, 14, 53, 84
21, 80864, Note_on_c, 14, 53, 0
21, 80880, Note_on_c, 14, 47, 84
21, 80984, Note_on_c, 14, 47, 0
21, 81000, Note_on_c, 14, 50, 84
21, 81104, Note_on_c, 14, 50, 0
21, 81120, Note_on_c, 14, 43, 84
21, 81224, Note_on_c, 14, 43, 0
21, 81240, Note_on_c, 14, 55, 84
21, 81344, Note_on_c, 14, 55, 0
21, 81360, Note_on_c, 14, 55, 84
21, 81464, Note_on_c, 14, 55, 0
21, 81480, Note_on_c, 14, 55, 84
21, 81584, Note_on_c, 14, 55, 0
21, 81600, Note_on_c, 14, 36, 84
21, 81600, Note_on_c, 14, 48, 84
21, 81839, Note_on_c, 14, 36, 0
21, 81839, Note_on_c, 14, 48, 0
21, 82080, Note_on_c, 14, 36, 84
21, 82080, Note_on_c, 14, 48, 84
21, 82319, Note_on_c, 14, 36, 0
21, 82319, Note_on_c, 14, 48, 0
21, 82560, Note_on_c, 14, 48, 84
21, 82560, Note_on_c, 14, 36, 84
21, 83264, Note_on_c, 14, 48, 0
21, 83264, Note_on_c, 14, 36, 0
21, 83280, Note_on_c, 14, 43, 84
21, 83399, Note_on_c, 14, 43, 0
21, 83520, Note_on_c, 14, 48, 84
21, 83639, Note_on_c, 14, 48, 0
21, 83760, Note_on_c, 14, 43, 84
21, 83879, Note_on_c, 14, 43, 0
21, 84000, Note_on_c, 14, 36, 84
21, 84119, Note_on_c, 14, 36, 0
21, 84240, Note_on_c, 14, 43, 84
21, 84359, Note_on_c, 14, 43, 0
21, 84480, Note_on_c, 14, 36, 84
21, 85184, Note_on_c, 14, 36, 0
21, 85200, Note_on_c, 14, 48, 84
21, 85371, Note_on_c, 14, 48, 0
21, 85380, Note_on_c, 14, 48, 84
21, 85431, Note_on_c, 14, 48, 0
21, 85440, Note_on_c, 14, 43, 84
21, 86144, Note_on_c, 14, 43, 0
21, 86160, Note_on_c, 14, 43, 84
21, 86331, Note_on_c, 14, 43, 0
21, 86340, Note_on_c, 14, 43, 84
21, 86391, Note_on_c, 14, 43, 0
21, 86400, Note_on_c, 14, 48, 84
21, 87344, Note_on_c, 14, 48, 0
21, 87360, Note_on_c, 14, 45, 84
21, 87824, Note_on_c, 14, 45, 0
21, 87840, Note_on_c, 14, 41, 84
21, 88304, Note_on_c, 14, 41, 0
21, 88320, Note_on_c, 14, 40, 84
21, 88424, Note_on_c, 14, 40, 0
21, 88440, Note_on_c, 14, 41, 84
21, 88544, Note_on_c, 14, 41, 0
21, 88560, Note_on_c, 14, 40, 84
21, 88664, Note_on_c, 14, 40, 0
21, 88680, Note_on_c, 14, 38, 84
21, 88784, Note_on_c, 14, 38, 0
21, 88800, Note_on_c, 14, 36, 84
21, 89264, Note_on_c, 14, 36, 0
21, 89280, Note_on_c, 14, 45, 84
21, 89744, Note_on_c, 14, 45, 0
21, 89760, Note_on_c, 14, 41, 84
21, 90224, Note_on_c, 14, 41, 0
21, 90240, Note_on_c, 14, 40, 84
21, 90344, Note_on_c, 14, 40, 0
21, 90360, Note_on_c, 14, 41, 84
21, 90464, Note_on_c, 14, 41, 0
21, 90480, Note_on_c, 14, 40, 84
21, 90584, Note_on_c, 14, 40, 0
21, 90600, Note_on_c, 14, 38, 84
21, 90704, Note_on_c, 14, 38, 0
21, 90720, Note_on_c, 14, 36, 84
21, 91184, Note_on_c, 14, 36, 0
21, 91200, Note_on_c, 14, 45, 84
21, 91664, Note_on_c, 14, 45, 0
21, 91680, Note_on_c, 14, 41, 84
21, 92144, Note_on_c, 14, 41, 0
21, 92160, Note_on_c, 14, 40, 84
21, 92264, Note_on_c, 14, 40, 0
21, 92280, Note_on_c, 14, 41, 84
21, 92384, Note_on_c, 14, 41, 0
21, 92400, Note_on_c, 14, 40, 84
21, 92504, Note_on_c, 14, 40, 0
21, 92520, Note_on_c, 14, 38, 84
21, 92624, Note_on_c, 14, 38, 0
21, 92640, Note_on_c, 14, 36, 84
21, 92864, Note_on_c, 14, 36, 0
21, 92880, Note_on_c, 14, 48, 84
21, 93051, Note_on_c, 14, 48, 0
21, 93060, Note_on_c, 14, 48, 84
21, 93111, Note_on_c, 14, 48, 0
21, 93120, Note_on_c, 14, 47, 84
21, 93584, Note_on_c, 14, 47, 0
21, 93600, Note_on_c, 14, 48, 84
21, 94064, Note_on_c, 14, 48, 0
21, 94080, Note_on_c, 14, 43, 84
21, 94304, Note_on_c, 14, 43, 0
21, 94320, Note_on_c, 14, 43, 84
21, 94784, Note_on_c, 14, 43, 0
21, 94800, Note_on_c, 14, 48, 84
21, 94971, Note_on_c, 14, 48, 0
21, 94980, Note_on_c, 14, 48, 84
21, 95031, Note_on_c, 14, 48, 0
21, 95040, Note_on_c, 14, 47, 84
21, 95504, Note_on_c, 14, 47, 0
21, 95520, Note_on_c, 14, 48, 84
21, 95984, Note_on_c, 14, 48, 0
21, 96000, Note_on_c, 14, 43, 84
21, 96224, Note_on_c, 14, 43, 0
21, 96240, Note_on_c, 14, 43, 84
21, 96704, Note_on_c, 14, 43, 0
21, 96720, Note_on_c, 14, 48, 84
21, 96891, Note_on_c, 14, 48, 0
21, 96900, Note_on_c, 14, 48, 84
21, 96951, Note_on_c, 14, 48, 0
21, 96960, Note_on_c, 14, 47, 84
21, 97131, Note_on_c, 14, 47, 0
21, 97140, Note_on_c, 14, 47, 84
21, 97191, Note_on_c, 14, 47, 0
21, 97200, Note_on_c, 14, 43, 84
21, 97371, Note_on_c, 14, 43, 0
21, 97380, Note_on_c, 14, 43, 84
21, 97431, Note_on_c, 14, 43, 0
21, 97440, Note_on_c, 14, 48, 84
21, 97611, Note_on_c, 14, 48, 0
21, 97620, Note_on_c, 14, 48, 84
21, 97671, Note_on_c, 14, 48, 0
21, 97680, Note_on_c, 14, 52, 84
21, 97851, Note_on_c, 14, 52, 0
21, 97860, Note_on_c, 14, 52, 84
21, 97911, Note_on_c, 14, 52, 0
21, 97920, Note_on_c, 14, 55, 84
21, 98024, Note_on_c, 14, 55, 0
21, 98040, Note_on_c, 14, 43, 84
21, 98144, Note_on_c, 14, 43, 0
21, 98160, Note_on_c, 14, 43, 84
21, 98399, Note_on_c, 14, 43, 0
21, 99000, Note_on_c, 14, 43, 84
21, 99104, Note_on_c, 14, 43, 0
21, 99120, Note_on_c, 14, 43, 84
21, 99359, Note_on_c, 14, 43, 0
21, 99960, Note_on_c, 14, 43, 84
21, 100064, Note_on_c, 14, 43, 0
21, 100080, Note_on_c, 14, 43, 84
21, 100319, Note_on_c, 14, 43, 0
21, 100440, Note_on_c, 14, 43, 84
21, 100544, Note_on_c, 14, 43, 0
21, 100560, Note_on_c, 14, 43, 84
21, 100799, Note_on_c, 14, 43, 0
21, 100920, Note_on_c, 14, 43, 84
21, 101024, Note_on_c, 14, 43, 0
21, 101040, Note_on_c, 14, 43, 84
21, 101279, Note_on_c, 14, 43, 0
21, 101400, Note_on_c, 14, 43, 84
21, 101504, Note_on_c, 14, 43, 0
21, 101520, Note_on_c, 14, 43, 84
21, 101744, Note_on_c, 14, 43, 0
21, 101760, Note_on_c, 14, 43, 84
21, 101999, Note_on_c, 14, 43, 0
21, 102840, Note_on_c, 14, 64, 92
21, 102959, Note_on_c, 14, 64, 0
21, 102960, Note_on_c, 14, 62, 84
21, 103064, Note_on_c, 14, 62, 0
21, 103080, Note_on_c, 14, 60, 84
21, 103169, Note_on_c, 14, 60, 0
21, 103200, Note_on_c, 14, 59, 84
21, 103289, Note_on_c, 14, 59, 0
21, 103320, Note_on_c, 14, 60, 92
21, 103439, Note_on_c, 14, 60, 0
21, 103440, Note_on_c, 14, 59, 84
21, 103544, Note_on_c, 14, 59, 0
21, 103560, Note_on_c, 14, 57, 84
21, 103649, Note_on_c, 14, 57, 0
21, 103680, Note_on_c, 14, 55, 84
21, 103769, Note_on_c, 14, 55, 0
21, 103800, Note_on_c, 14, 60, 92
21, 103919, Note_on_c, 14, 60, 0
21, 103920, Note_on_c, 14, 59, 84
21, 104024, Note_on_c, 14, 59, 0
21, 104040, Note_on_c, 14, 57, 84
21, 104129, Note_on_c, 14, 57, 0
21, 104160, Note_on_c, 14, 55, 84
21, 104249, Note_on_c, 14, 55, 0
21, 104280, Note_on_c, 14, 60, 92
21, 104399, Note_on_c, 14, 60, 0
21, 104400, Note_on_c, 14, 59, 84
21, 104504, Note_on_c, 14, 59, 0
21, 104520, Note_on_c, 14, 57, 84
21, 104609, Note_on_c, 14, 57, 0
21, 104640, Note_on_c, 14, 55, 84
21, 104729, Note_on_c, 14, 55, 0
21, 104760, Note_on_c, 14, 60, 92
21, 104879, Note_on_c, 14, 60, 0
21, 104880, Note_on_c, 14, 59, 84
21, 104984, Note_on_c, 14, 59, 0
21, 105000, Note_on_c, 14, 57, 84
21, 105089, Note_on_c, 14, 57, 0
21, 105120, Note_on_c, 14, 55, 84
21, 105209, Note_on_c, 14, 55, 0
21, 105240, Note_on_c, 14, 53, 84
21, 105329, Note_on_c, 14, 53, 0
21, 105360, Note_on_c, 14, 52, 84
21, 105449, Note_on_c, 14, 52, 0
21, 105480, Note_on_c, 14, 50, 84
21, 105569, Note_on_c, 14, 50, 0
21, 105600, Note_on_c, 14, 48, 84
21, 105839, Note_on_c, 14, 48, 0
21, 107520, Note_on_c, 14, 43, 84
21, 108104, Note_on_c, 14, 43, 0
21, 108120, Note_on_c, 14, 43, 84
21, 108209, Note_on_c, 14, 43, 0
21, 108240, Note_on_c, 14, 47, 84
21, 108329, Note_on_c, 14, 47, 0
21, 108360, Note_on_c, 14, 50, 84
21, 108449, Note_on_c, 14, 50, 0
21, 108480, Note_on_c, 14, 53, 84
21, 108569, Note_on_c, 14, 53, 0
21, 108600, Note_on_c, 14, 55, 84
21, 108689, Note_on_c, 14, 55, 0
21, 108720, Note_on_c, 14, 59, 84
21, 108809, Note_on_c, 14, 59, 0
21, 108840, Note_on_c, 14, 62, 84
21, 108929, Note_on_c, 14, 62, 0
21, 108960, Note_on_c, 14, 65, 84
21, 109064, Note_on_c, 14, 65, 0
21, 109080, Note_on_c, 14, 67, 84
21, 109184, Note_on_c, 14, 67, 0
21, 109200, Note_on_c, 14, 65, 84
21, 109304, Note_on_c, 14, 65, 0
21, 109320, Note_on_c, 14, 62, 84
21, 109424, Note_on_c, 14, 62, 0
21, 109440, Note_on_c, 14, 59, 84
21, 109544, Note_on_c, 14, 59, 0
21, 109560, Note_on_c, 14, 62, 84
21, 109664, Note_on_c, 14, 62, 0
21, 109680, Note_on_c, 14, 59, 84
21, 109784, Note_on_c, 14, 59, 0
21, 109800, Note_on_c, 14, 55, 84
21, 109904, Note_on_c, 14, 55, 0
21, 109920, Note_on_c, 14, 53, 84
21, 110024, Note_on_c, 14, 53, 0
21, 110040, Note_on_c, 14, 50, 84
21, 110144, Note_on_c, 14, 50, 0
21, 110160, Note_on_c, 14, 47, 84
21, 110264, Note_on_c, 14, 47, 0
21, 110280, Note_on_c, 14, 50, 84
21, 110384, Note_on_c, 14, 50, 0
21, 110400, Note_on_c, 14, 43, 84
21, 110639, Note_on_c, 14, 43, 0
21, 111360, Note_on_c, 14, 36, 84
21, 111944, Note_on_c, 14, 36, 0
21, 111960, Note_on_c, 14, 36, 84
21, 112064, Note_on_c, 14, 36, 0
21, 112080, Note_on_c, 14, 40, 84
21, 112184, Note_on_c, 14, 40, 0
21, 112200, Note_on_c, 14, 43, 84
21, 112304, Note_on_c, 14, 43, 0
21, 112320, Note_on_c, 14, 48, 84
21, 112424, Note_on_c, 14, 48, 0
21, 112440, Note_on_c, 14, 52, 84
21, 112544, Note_on_c, 14, 52, 0
21, 112560, Note_on_c, 14, 55, 84
21, 112664, Note_on_c, 14, 55, 0
21, 112680, Note_on_c, 14, 60, 84
21, 112784, Note_on_c, 14, 60, 0
21, 112800, Note_on_c, 14, 64, 84
21, 112904, Note_on_c, 14, 64, 0
21, 112920, Note_on_c, 14, 60, 84
21, 113024, Note_on_c, 14, 60, 0
21, 113040, Note_on_c, 14, 55, 84
21, 113144, Note_on_c, 14, 55, 0
21, 113160, Note_on_c, 14, 52, 84
21, 113264, Note_on_c, 14, 52, 0
21, 113280, Note_on_c, 14, 48, 84
21, 113384, Note_on_c, 14, 48, 0
21, 113400, Note_on_c, 14, 47, 84
21, 113504, Note_on_c, 14, 47, 0
21, 113520, Note_on_c, 14, 48, 84
21, 113624, Note_on_c, 14, 48, 0
21, 113640, Note_on_c, 14, 48, 84
21, 113744, Note_on_c, 14, 48, 0
21, 113760, Note_on_c, 14, 48, 84
21, 114344, Note_on_c, 14, 48, 0
21, 114360, Note_on_c, 14, 47, 84
21, 114464, Note_on_c, 14, 47, 0
21, 114480, Note_on_c, 14, 48, 84
21, 114584, Note_on_c, 14, 48, 0
21, 114600, Note_on_c, 14, 48, 84
21, 114704, Note_on_c, 14, 48, 0
21, 114720, Note_on_c, 14, 48, 84
21, 115304, Note_on_c, 14, 48, 0
21, 115320, Note_on_c, 14, 49, 84
21, 115424, Note_on_c, 14, 49, 0
21, 115440, Note_on_c, 14, 50, 84
21, 115544, Note_on_c, 14, 50, 0
21, 115560, Note_on_c, 14, 50, 84
21, 115664, Note_on_c, 14, 50, 0
21, 115680, Note_on_c, 14, 50, 84
21, 116264, Note_on_c, 14, 50, 0
21, 116280, Note_on_c, 14, 49, 84
21, 116384, Note_on_c, 14, 49, 0
21, 116400, Note_on_c, 14, 50, 84
21, 116504, Note_on_c, 14, 50, 0
21, 116520, Note_on_c, 14, 50, 84
21, 116624, Note_on_c, 14, 50, 0
21, 116640, Note_on_c, 14, 50, 84
21, 117224, Note_on_c, 14, 50, 0
21, 117240, Note_on_c, 14, 49, 84
21, 117344, Note_on_c, 14, 49, 0
21, 117360, Note_on_c, 14, 50, 84
21, 117464, Note_on_c, 14, 50, 0
21, 117480, Note_on_c, 14, 50, 84
21, 117584, Note_on_c, 14, 50, 0
21, 117600, Note_on_c, 14, 50, 84
21, 118184, Note_on_c, 14, 50, 0
21, 118200, Note_on_c, 14, 49, 84
21, 118304, Note_on_c, 14, 49, 0
21, 118320, Note_on_c, 14, 50, 84
21, 118424, Note_on_c, 14, 50, 0
21, 118440, Note_on_c, 14, 50, 84
21, 118544, Note_on_c, 14, 50, 0
21, 118560, Note_on_c, 14, 50, 84
21, 118664, Note_on_c, 14, 50, 0
21, 118680, Note_on_c, 14, 49, 84
21, 118784, Note_on_c, 14, 49, 0
21, 118800, Note_on_c, 14, 50, 84
21, 118904, Note_on_c, 14, 50, 0
21, 118920, Note_on_c, 14, 50, 84
21, 119024, Note_on_c, 14, 50, 0
21, 119040, Note_on_c, 14, 50, 84
21, 119144, Note_on_c, 14, 50, 0
21, 119160, Note_on_c, 14, 49, 84
21, 119264, Note_on_c, 14, 49, 0
21, 119280, Note_on_c, 14, 50, 84
21, 119384, Note_on_c, 14, 50, 0
21, 119400, Note_on_c, 14, 50, 84
21, 119504, Note_on_c, 14, 50, 0
21, 119520, Note_on_c, 14, 50, 84
21, 119624, Note_on_c, 14, 50, 0
21, 119640, Note_on_c, 14, 49, 84
21, 119744, Note_on_c, 14, 49, 0
21, 119760, Note_on_c, 14, 50, 84
21, 119864, Note_on_c, 14, 50, 0
21, 119880, Note_on_c, 14, 50, 84
21, 119984, Note_on_c, 14, 50, 0
21, 120000, Note_on_c, 14, 50, 84
21, 120104, Note_on_c, 14, 50, 0
21, 120120, Note_on_c, 14, 62, 84
21, 120239, Note_on_c, 14, 62, 0
21, 120240, Note_on_c, 14, 60, 84
21, 120344, Note_on_c, 14, 60, 0
21, 120360, Note_on_c, 14, 59, 84
21, 120449, Note_on_c, 14, 59, 0
21, 120480, Note_on_c, 14, 57, 84
21, 120569, Note_on_c, 14, 57, 0
21, 120600, Note_on_c, 14, 59, 84
21, 120719, Note_on_c, 14, 59, 0
21, 120720, Note_on_c, 14, 57, 84
21, 120824, Note_on_c, 14, 57, 0
21, 120840, Note_on_c, 14, 55, 84
21, 120929, Note_on_c, 14, 55, 0
21, 120960, Note_on_c, 14, 54, 84
21, 121049, Note_on_c, 14, 54, 0
21, 121080, Note_on_c, 14, 55, 84
21, 121199, Note_on_c, 14, 55, 0
21, 121200, Note_on_c, 14, 54, 84
21, 121304, Note_on_c, 14, 54, 0
21, 121320, Note_on_c, 14, 52, 84
21, 121409, Note_on_c, 14, 52, 0
21, 121440, Note_on_c, 14, 50, 84
21, 121529, Note_on_c, 14, 50, 0
21, 121560, Note_on_c, 14, 50, 84
21, 121679, Note_on_c, 14, 50, 0
21, 121680, Note_on_c, 14, 52, 84
21, 121784, Note_on_c, 14, 52, 0
21, 121800, Note_on_c, 14, 45, 84
21, 121889, Note_on_c, 14, 45, 0
21, 121920, Note_on_c, 14, 50, 84
21, 122039, Note_on_c, 14, 50, 0
21, 123000, Note_on_c, 14, 50, 84
21, 123119, Note_on_c, 14, 50, 0
21, 123120, Note_on_c, 14, 48, 84
21, 123224, Note_on_c, 14, 48, 0
21, 123240, Note_on_c, 14, 57, 84
21, 123329, Note_on_c, 14, 57, 0
21, 123360, Note_on_c, 14, 48, 84
21, 123449, Note_on_c, 14, 48, 0
21, 123480, Note_on_c, 14, 47, 84
21, 123599, Note_on_c, 14, 47, 0
21, 123600, Note_on_c, 14, 45, 84
21, 123704, Note_on_c, 14, 45, 0
21, 123720, Note_on_c, 14, 54, 84
21, 123809, Note_on_c, 14, 54, 0
21, 123840, Note_on_c, 14, 43, 84
21, 124079, Note_on_c, 14, 43, 0
21, 124320, Note_on_c, 14, 43, 84
21, 124559, Note_on_c, 14, 43, 0
21, 124800, Note_on_c, 14, 43, 84
21, 125024, Note_on_c, 14, 43, 0
21, 125040, Note_on_c, 14, 50, 84
21, 125119, Note_on_c, 14, 50, 0
21, 125120, Note_on_c, 14, 52, 84
21, 125199, Note_on_c, 14, 52, 0
21, 125200, Note_on_c, 14, 54, 84
21, 125267, Note_on_c, 14, 54, 0
21, 125280, Note_on_c, 14, 55, 84
21, 125504, Note_on_c, 14, 55, 0
21, 125520, Note_on_c, 14, 55, 52
21, 125759, Note_on_c, 14, 55, 0
21, 125760, Note_on_c, 14, 54, 52
21, 126239, Note_on_c, 14, 54, 0
21, 126240, Note_on_c, 14, 55, 52
21, 126719, Note_on_c, 14, 55, 0
21, 126720, Note_on_c, 14, 57, 52
21, 126944, Note_on_c, 14, 57, 0
21, 126958, Control_c, 14, 11, 80
21, 126960, Note_on_c, 14, 54, 76
21, 126960, Control_c, 14, 11, 80
21, 127000, Control_c, 14, 11, 84
21, 127039, Note_on_c, 14, 54, 0
21, 127040, Control_c, 14, 11, 88
21, 127040, Note_on_c, 14, 55, 76
21, 127080, Control_c, 14, 11, 92
21, 127119, Note_on_c, 14, 55, 0
21, 127120, Note_on_c, 14, 57, 76
21, 127120, Control_c, 14, 11, 96
21, 127160, Control_c, 14, 11, 100
21, 127187, Note_on_c, 14, 57, 0
21, 127200, Note_on_c, 14, 50, 76
21, 127200, Control_c, 14, 11, 104
21, 127240, Control_c, 14, 11, 107
21, 127280, Control_c, 14, 11, 111
21, 127320, Control_c, 14, 11, 115
21, 127360, Control_c, 14, 11, 119
21, 127400, Control_c, 14, 11, 127
21, 127424, Note_on_c, 14, 50, 0
21, 127440, Note_on_c, 14, 48, 76
21, 127507, Note_on_c, 14, 48, 0
21, 127520, Note_on_c, 14, 47, 76
21, 127587, Note_on_c, 14, 47, 0
21, 127600, Note_on_c, 14, 45, 76
21, 127667, Note_on_c, 14, 45, 0
21, 127680, Note_on_c, 14, 43, 76
21, 127919, Note_on_c, 14, 43, 0
21, 128160, Note_on_c, 14, 43, 76
21, 128399, Note_on_c, 14, 43, 0
21, 128640, Note_on_c, 14, 43, 76
21, 128864, Note_on_c, 14, 43, 0
21, 128880, Note_on_c, 14, 50, 76
21, 128947, Note_on_c, 14, 50, 0
21, 128960, Note_on_c, 14, 52, 76
21, 129027, Note_on_c, 14, 52, 0
21, 129040, Note_on_c, 14, 54, 76
21, 129107, Note_on_c, 14, 54, 0
21, 129120, Note_on_c, 14, 55, 76
21, 129344, Note_on_c, 14, 55, 0
21, 129360, Note_on_c, 14, 55, 52
21, 129599, Note_on_c, 14, 55, 0
21, 129600, Note_on_c, 14, 54, 52
21, 130079, Note_on_c, 14, 54, 0
21, 130080, Note_on_c, 14, 55, 52
21, 130559, Note_on_c, 14, 55, 0
21, 130560, Note_on_c, 14, 57, 76
21, 130784, Note_on_c, 14, 57, 0
21, 130800, Note_on_c, 14, 50, 76
21, 130867, Note_on_c, 14, 50, 0
21, 130880, Note_on_c, 14, 52, 76
21, 130947, Note_on_c, 14, 52, 0
21, 130960, Note_on_c, 14, 54, 76
21, 131027, Note_on_c, 14, 54, 0
21, 131040, Note_on_c, 14, 55, 76
21, 131264, Note_on_c, 14, 55, 0
21, 131280, Note_on_c, 14, 57, 52
21, 131519, Note_on_c, 14, 57, 0
21, 131520, Note_on_c, 14, 56, 52
21, 131999, Note_on_c, 14, 56, 0
21, 132000, Note_on_c, 14, 57, 52
21, 132479, Note_on_c, 14, 57, 0
21, 132480, Note_on_c, 14, 59, 52
21, 132704, Note_on_c, 14, 59, 0
21, 132720, Note_on_c, 14, 52, 76
21, 132787, Note_on_c, 14, 52, 0
21, 132800, Note_on_c, 14, 54, 76
21, 132867, Note_on_c, 14, 54, 0
21, 132880, Note_on_c, 14, 56, 76
21, 132947, Note_on_c, 14, 56, 0
21, 132960, Note_on_c, 14, 57, 76
21, 133184, Note_on_c, 14, 57, 0
21, 133200, Note_on_c, 14, 48, 44
21, 133439, Note_on_c, 14, 48, 0
21, 133440, Note_on_c, 14, 47, 44
21, 133919, Note_on_c, 14, 47, 0
21, 133920, Note_on_c, 14, 48, 44
21, 134384, Note_on_c, 14, 48, 0
21, 134400, Note_on_c, 14, 43, 44
21, 134504, Note_on_c, 14, 43, 0
21, 134520, Note_on_c, 14, 55, 46
21, 134624, Note_on_c, 14, 55, 0
21, 134640, Note_on_c, 14, 55, 49
21, 134744, Note_on_c, 14, 55, 0
21, 134760, Note_on_c, 14, 55, 51
21, 134864, Note_on_c, 14, 55, 0
21, 134880, Note_on_c, 14, 55, 54
21, 134984, Note_on_c, 14, 55, 0
21, 135000, Note_on_c, 14, 55, 56
21, 135104, Note_on_c, 14, 55, 0
21, 135120, Note_on_c, 14, 55, 59
21, 135224, Note_on_c, 14, 55, 0
21, 135240, Note_on_c, 14, 55, 61
21, 135344, Note_on_c, 14, 55, 0
21, 135360, Note_on_c, 14, 55, 64
21, 135464, Note_on_c, 14, 55, 0
21, 135480, Note_on_c, 14, 55, 66
21, 135584, Note_on_c, 14, 55, 0
21, 135600, Note_on_c, 14, 55, 69
21, 135704, Note_on_c, 14, 55, 0
21, 135720, Note_on_c, 14, 55, 71
21, 135824, Note_on_c, 14, 55, 0
21, 135840, Note_on_c, 14, 55, 74
21, 135944, Note_on_c, 14, 55, 0
21, 135960, Note_on_c, 14, 55, 76
21, 136064, Note_on_c, 14, 55, 0
21, 136080, Note_on_c, 14, 55, 79
21, 136184, Note_on_c, 14, 55, 0
21, 136200, Note_on_c, 14, 55, 81
21, 136304, Note_on_c, 14, 55, 0
21, 136320, Note_on_c, 14, 48, 84
21, 136904, Note_on_c, 14, 48, 0
21, 136920, Note_on_c, 14, 48, 84
21, 137024, Note_on_c, 14, 48, 0
21, 137040, Note_on_c, 14, 48, 84
21, 137144, Note_on_c, 14, 48, 0
21, 137160, Note_on_c, 14, 48, 84
21, 137264, Note_on_c, 14, 48, 0
21, 137280, Note_on_c, 14, 48, 84
21, 137384, Note_on_c, 14, 48, 0
21, 137400, Note_on_c, 14, 48, 84
21, 137504, Note_on_c, 14, 48, 0
21, 137520, Note_on_c, 14, 48, 84
21, 137624, Note_on_c, 14, 48, 0
21, 137640, Note_on_c, 14, 48, 84
21, 137744, Note_on_c, 14, 48, 0
21, 137760, Note_on_c, 14, 48, 84
21, 137864, Note_on_c, 14, 48, 0
21, 137880, Note_on_c, 14, 48, 84
21, 137984, Note_on_c, 14, 48, 0
21, 138000, Note_on_c, 14, 48, 84
21, 138104, Note_on_c, 14, 48, 0
21, 138120, Note_on_c, 14, 48, 84
21, 138224, Note_on_c, 14, 48, 0
21, 138240, Note_on_c, 14, 48, 84
21, 138344, Note_on_c, 14, 48, 0
21, 138360, Note_on_c, 14, 48, 84
21, 138464, Note_on_c, 14, 48, 0
21, 138480, Note_on_c, 14, 49, 84
21, 138584, Note_on_c, 14, 49, 0
21, 138600, Note_on_c, 14, 49, 84
21, 138704, Note_on_c, 14, 49, 0
21, 138720, Note_on_c, 14, 50, 84
21, 138824, Note_on_c, 14, 50, 0
21, 138840, Note_on_c, 14, 50, 84
21, 138944, Note_on_c, 14, 50, 0
21, 138960, Note_on_c, 14, 51, 84
21, 139064, Note_on_c, 14, 51, 0
21, 139080, Note_on_c, 14, 51, 84
21, 139184, Note_on_c, 14, 51, 0
21, 139200, Note_on_c, 14, 52, 84
21, 139304, Note_on_c, 14, 52, 0
21, 139320, Note_on_c, 14, 52, 84
21, 139424, Note_on_c, 14, 52, 0
21, 139440, Note_on_c, 14, 54, 84
21, 139544, Note_on_c, 14, 54, 0
21, 139560, Note_on_c, 14, 54, 84
21, 139664, Note_on_c, 14, 54, 0
21, 139680, Note_on_c, 14, 55, 84
21, 139784, Note_on_c, 14, 55, 0
21, 139800, Note_on_c, 14, 43, 84
21, 139904, Note_on_c, 14, 43, 0
21, 139920, Note_on_c, 14, 45, 84
21, 140024, Note_on_c, 14, 45, 0
21, 140040, Note_on_c, 14, 47, 84
21, 140144, Note_on_c, 14, 47, 0
21, 140160, Note_on_c, 14, 48, 84
21, 140339, Note_on_c, 14, 48, 0
21, 141120, Note_on_c, 14, 50, 84
21, 141299, Note_on_c, 14, 50, 0
21, 143040, Note_on_c, 14, 61, 52
21, 143279, Note_on_c, 14, 61, 0
21, 143280, Note_on_c, 14, 62, 52
21, 143504, Note_on_c, 14, 62, 0
21, 143520, Note_on_c, 14, 62, 52
21, 143744, Note_on_c, 14, 62, 0
21, 143760, Note_on_c, 14, 62, 52
21, 143999, Note_on_c, 14, 62, 0
21, 144960, Note_on_c, 14, 61, 52
21, 145199, Note_on_c, 14, 61, 0
21, 145200, Note_on_c, 14, 62, 52
21, 145424, Note_on_c, 14, 62, 0
21, 145440, Note_on_c, 14, 62, 52
21, 145664, Note_on_c, 14, 62, 0
21, 145680, Note_on_c, 14, 62, 52
21, 145919, Note_on_c, 14, 62, 0
21, 145920, Note_on_c, 14, 52, 76
21, 145979, Note_on_c, 14, 52, 0
21, 145980, Note_on_c, 14, 52, 52
21, 146639, Note_on_c, 14, 52, 0
21, 146640, Note_on_c, 14, 50, 52
21, 146879, Note_on_c, 14, 50, 0
21, 146880, Note_on_c, 14, 48, 52
21, 147119, Note_on_c, 14, 48, 0
21, 147120, Note_on_c, 14, 47, 52
21, 147344, Note_on_c, 14, 47, 0
21, 147360, Note_on_c, 14, 47, 52
21, 147584, Note_on_c, 14, 47, 0
21, 147600, Note_on_c, 14, 47, 52
21, 147824, Note_on_c, 14, 47, 0
21, 147840, Note_on_c, 14, 48, 52
21, 148304, Note_on_c, 14, 48, 0
21, 148320, Note_on_c, 14, 45, 52
21, 148739, Note_on_c, 14, 45, 0
21, 148740, Note_on_c, 14, 48, 52
21, 148791, Note_on_c, 14, 48, 0
21, 148800, Note_on_c, 14, 50, 52
21, 149264, Note_on_c, 14, 50, 0
21, 149280, Note_on_c, 14, 50, 52
21, 149744, Note_on_c, 14, 50, 0
21, 149760, Note_on_c, 14, 47, 76
21, 150464, Note_on_c, 14, 47, 0
21, 150480, Note_on_c, 14, 45, 76
21, 150704, Note_on_c, 14, 45, 0
21, 150720, Note_on_c, 14, 43, 76
21, 150944, Note_on_c, 14, 43, 0
21, 150960, Note_on_c, 14, 42, 76
21, 151184, Note_on_c, 14, 42, 0
21, 151200, Note_on_c, 14, 42, 76
21, 151424, Note_on_c, 14, 42, 0
21, 151440, Note_on_c, 14, 42, 76
21, 151664, Note_on_c, 14, 42, 0
21, 151680, Note_on_c, 14, 47, 84
21, 151739, Note_on_c, 14, 47, 0
21, 151740, Note_on_c, 14, 47, 76
21, 152384, Note_on_c, 14, 47, 0
21, 152400, Note_on_c, 14, 45, 76
21, 152624, Note_on_c, 14, 45, 0
21, 152640, Note_on_c, 14, 43, 76
21, 152864, Note_on_c, 14, 43, 0
21, 152880, Note_on_c, 14, 42, 76
21, 153104, Note_on_c, 14, 42, 0
21, 153120, Note_on_c, 14, 42, 76
21, 153344, Note_on_c, 14, 42, 0
21, 153360, Note_on_c, 14, 42, 76
21, 153584, Note_on_c, 14, 42, 0
21, 153600, Note_on_c, 14, 42, 84
21, 153659, Note_on_c, 14, 42, 0
21, 153660, Note_on_c, 14, 42, 76
21, 154304, Note_on_c, 14, 42, 0
21, 154320, Note_on_c, 14, 43, 76
21, 154544, Note_on_c, 14, 43, 0
21, 154560, Note_on_c, 14, 48, 76
21, 154784, Note_on_c, 14, 48, 0
21, 154800, Note_on_c, 14, 48, 80
21, 155024, Note_on_c, 14, 48, 0
21, 155040, Note_on_c, 14, 48, 80
21, 155264, Note_on_c, 14, 48, 0
21, 155280, Note_on_c, 14, 48, 80
21, 155504, Note_on_c, 14, 48, 0
21, 155520, Note_on_c, 14, 48, 80
21, 155744, Note_on_c, 14, 48, 0
21, 155760, Note_on_c, 14, 48, 80
21, 155984, Note_on_c, 14, 48, 0
21, 156000, Note_on_c, 14, 48, 80
21, 156224, Note_on_c, 14, 48, 0
21, 156240, Note_on_c, 14, 48, 80
21, 156464, Note_on_c, 14, 48, 0
21, 156480, Note_on_c, 14, 48, 80
21, 156704, Note_on_c, 14, 48, 0
21, 156720, Note_on_c, 14, 48, 80
21, 156944, Note_on_c, 14, 48, 0
21, 156960, Note_on_c, 14, 48, 80
21, 157184, Note_on_c, 14, 48, 0
21, 157200, Note_on_c, 14, 48, 80
21, 157424, Note_on_c, 14, 48, 0
21, 157440, Note_on_c, 14, 41, 84
21, 157529, Note_on_c, 14, 41, 0
21, 157560, Note_on_c, 14, 36, 84
21, 157649, Note_on_c, 14, 36, 0
21, 157680, Note_on_c, 14, 44, 84
21, 157799, Note_on_c, 14, 44, 0
21, 157800, Note_on_c, 14, 41, 84
21, 157904, Note_on_c, 14, 41, 0
21, 157920, Note_on_c, 14, 44, 84
21, 158009, Note_on_c, 14, 44, 0
21, 158040, Note_on_c, 14, 41, 84
21, 158129, Note_on_c, 14, 41, 0
21, 158160, Note_on_c, 14, 48, 84
21, 158279, Note_on_c, 14, 48, 0
21, 158280, Note_on_c, 14, 44, 84
21, 158384, Note_on_c, 14, 44, 0
21, 158400, Note_on_c, 14, 48, 84
21, 158489, Note_on_c, 14, 48, 0
21, 158520, Note_on_c, 14, 44, 84
21, 158609, Note_on_c, 14, 44, 0
21, 158640, Note_on_c, 14, 53, 84
21, 158759, Note_on_c, 14, 53, 0
21, 158760, Note_on_c, 14, 48, 84
21, 158864, Note_on_c, 14, 48, 0
21, 158880, Note_on_c, 14, 53, 84
21, 158969, Note_on_c, 14, 53, 0
21, 159000, Note_on_c, 14, 48, 84
21, 159089, Note_on_c, 14, 48, 0
21, 159120, Note_on_c, 14, 56, 84
21, 159239, Note_on_c, 14, 56, 0
21, 159240, Note_on_c, 14, 53, 84
21, 159344, Note_on_c, 14, 53, 0
21, 159360, Note_on_c, 14, 55, 84
21, 160319, Note_on_c, 14, 55, 0
21, 160320, Note_on_c, 14, 55, 84
21, 161264, Note_on_c, 14, 55, 0
21, 161280, Note_on_c, 14, 62, 84
21, 161384, Note_on_c, 14, 62, 0
21, 161400, Note_on_c, 14, 65, 84
21, 161504, Note_on_c, 14, 65, 0
21, 161520, Note_on_c, 14, 59, 84
21, 161624, Note_on_c, 14, 59, 0
21, 161640, Note_on_c, 14, 62, 84
21, 161744, Note_on_c, 14, 62, 0
21, 161760, Note_on_c, 14, 55, 84
21, 161864, Note_on_c, 14, 55, 0
21, 161880, Note_on_c, 14, 59, 84
21, 161984, Note_on_c, 14, 59, 0
21, 162000, Note_on_c, 14, 53, 84
21, 162104, Note_on_c, 14, 53, 0
21, 162120, Note_on_c, 14, 55, 84
21, 162224, Note_on_c, 14, 55, 0
21, 162240, Note_on_c, 14, 47, 84
21, 162344, Note_on_c, 14, 47, 0
21, 162360, Note_on_c, 14, 50, 84
21, 162464, Note_on_c, 14, 50, 0
21, 162480, Note_on_c, 14, 43, 84
21, 162584, Note_on_c, 14, 43, 0
21, 162600, Note_on_c, 14, 47, 84
21, 162704, Note_on_c, 14, 47, 0
21, 162720, Note_on_c, 14, 43, 84
21, 162824, Note_on_c, 14, 43, 0
21, 162840, Note_on_c, 14, 50, 84
21, 162944, Note_on_c, 14, 50, 0
21, 162960, Note_on_c, 14, 47, 84
21, 163064, Note_on_c, 14, 47, 0
21, 163080, Note_on_c, 14, 43, 84
21, 163184, Note_on_c, 14, 43, 0
21, 163200, Note_on_c, 14, 44, 84
21, 163289, Note_on_c, 14, 44, 0
21, 163320, Note_on_c, 14, 40, 84
21, 163409, Note_on_c, 14, 40, 0
21, 163440, Note_on_c, 14, 47, 84
21, 163559, Note_on_c, 14, 47, 0
21, 163560, Note_on_c, 14, 44, 84
21, 163664, Note_on_c, 14, 44, 0
21, 163680, Note_on_c, 14, 47, 84
21, 163769, Note_on_c, 14, 47, 0
21, 163800, Note_on_c, 14, 44, 84
21, 163889, Note_on_c, 14, 44, 0
21, 163920, Note_on_c, 14, 52, 84
21, 164039, Note_on_c, 14, 52, 0
21, 164040, Note_on_c, 14, 47, 84
21, 164144, Note_on_c, 14, 47, 0
21, 164160, Note_on_c, 14, 52, 84
21, 164249, Note_on_c, 14, 52, 0
21, 164280, Note_on_c, 14, 47, 84
21, 164369, Note_on_c, 14, 47, 0
21, 164400, Note_on_c, 14, 56, 84
21, 164519, Note_on_c, 14, 56, 0
21, 164520, Note_on_c, 14, 52, 84
21, 164624, Note_on_c, 14, 52, 0
21, 164640, Note_on_c, 14, 56, 84
21, 164729, Note_on_c, 14, 56, 0
21, 164760, Note_on_c, 14, 52, 84
21, 164849, Note_on_c, 14, 52, 0
21, 164880, Note_on_c, 14, 59, 84
21, 164999, Note_on_c, 14, 59, 0
21, 165000, Note_on_c, 14, 56, 84
21, 165104, Note_on_c, 14, 56, 0
21, 165120, Note_on_c, 14, 64, 84
21, 165209, Note_on_c, 14, 64, 0
21, 165240, Note_on_c, 14, 59, 84
21, 165329, Note_on_c, 14, 59, 0
21, 165360, Note_on_c, 14, 56, 84
21, 165449, Note_on_c, 14, 56, 0
21, 165480, Note_on_c, 14, 59, 84
21, 165569, Note_on_c, 14, 59, 0
21, 165600, Note_on_c, 14, 52, 84
21, 165689, Note_on_c, 14, 52, 0
21, 165720, Note_on_c, 14, 56, 84
21, 165809, Note_on_c, 14, 56, 0
21, 165840, Note_on_c, 14, 50, 84
21, 165929, Note_on_c, 14, 50, 0
21, 165960, Note_on_c, 14, 52, 84
21, 166049, Note_on_c, 14, 52, 0
21, 166080, Note_on_c, 14, 47, 84
21, 166169, Note_on_c, 14, 47, 0
21, 166200, Note_on_c, 14, 50, 84
21, 166289, Note_on_c, 14, 50, 0
21, 166320, Note_on_c, 14, 44, 84
21, 166409, Note_on_c, 14, 44, 0
21, 166440, Note_on_c, 14, 47, 84
21, 166529, Note_on_c, 14, 47, 0
21, 166560, Note_on_c, 14, 40, 84
21, 166664, Note_on_c, 14, 40, 0
21, 166680, Note_on_c, 14, 52, 84
21, 166784, Note_on_c, 14, 52, 0
21, 166800, Note_on_c, 14, 52, 84
21, 166904, Note_on_c, 14, 52, 0
21, 166920, Note_on_c, 14, 52, 84
21, 167024, Note_on_c, 14, 52, 0
21, 167040, Note_on_c, 14, 45, 84
21, 167279, Note_on_c, 14, 45, 0
21, 167520, Note_on_c, 14, 45, 84
21, 167759, Note_on_c, 14, 45, 0
21, 168000, Note_on_c, 14, 45, 84
21, 168224, Note_on_c, 14, 45, 0
21, 168240, Note_on_c, 14, 52, 84
21, 168307, Note_on_c, 14, 52, 0
21, 168320, Note_on_c, 14, 54, 84
21, 168387, Note_on_c, 14, 54, 0
21, 168400, Note_on_c, 14, 56, 84
21, 168467, Note_on_c, 14, 56, 0
21, 168480, Note_on_c, 14, 57, 84
21, 168704, Note_on_c, 14, 57, 0
21, 168720, Note_on_c, 14, 57, 52
21, 168959, Note_on_c, 14, 57, 0
21, 168960, Note_on_c, 14, 56, 52
21, 169439, Note_on_c, 14, 56, 0
21, 169440, Note_on_c, 14, 57, 52
21, 169919, Note_on_c, 14, 57, 0
21, 169920, Note_on_c, 14, 59, 52
21, 170624, Note_on_c, 14, 59, 0
21, 170640, Note_on_c, 14, 57, 52
21, 170879, Note_on_c, 14, 57, 0
21, 170880, Note_on_c, 14, 56, 52
21, 171359, Note_on_c, 14, 56, 0
21, 171360, Note_on_c, 14, 57, 52
21, 171839, Note_on_c, 14, 57, 0
21, 171840, Note_on_c, 14, 59, 52
21, 172544, Note_on_c, 14, 59, 0
21, 172560, Note_on_c, 14, 48, 52
21, 172639, Note_on_c, 14, 48, 0
21, 172640, Note_on_c, 14, 46, 52
21, 172719, Note_on_c, 14, 46, 0
21, 172720, Note_on_c, 14, 45, 52
21, 172799, Note_on_c, 14, 45, 0
21, 172800, Note_on_c, 14, 43, 52
21, 173039, Note_on_c, 14, 43, 0
21, 173040, Note_on_c, 14, 46, 52
21, 173119, Note_on_c, 14, 46, 0
21, 173120, Note_on_c, 14, 45, 52
21, 173199, Note_on_c, 14, 45, 0
21, 173200, Note_on_c, 14, 43, 52
21, 173279, Note_on_c, 14, 43, 0
21, 173280, Note_on_c, 14, 41, 52
21, 173519, Note_on_c, 14, 41, 0
21, 173520, Note_on_c, 14, 45, 52
21, 173599, Note_on_c, 14, 45, 0
21, 173600, Note_on_c, 14, 43, 52
21, 173679, Note_on_c, 14, 43, 0
21, 173680, Note_on_c, 14, 41, 52
21, 173747, Note_on_c, 14, 41, 0
21, 173760, Note_on_c, 14, 40, 52
21, 173939, Note_on_c, 14, 40, 0
21, 174000, Note_on_c, 14, 40, 52
21, 174079, Note_on_c, 14, 40, 0
21, 174080, Note_on_c, 14, 41, 52
21, 174159, Note_on_c, 14, 41, 0
21, 174160, Note_on_c, 14, 43, 52
21, 174227, Note_on_c, 14, 43, 0
21, 174240, Note_on_c, 14, 36, 52
21, 174419, Note_on_c, 14, 36, 0
21, 174480, Note_on_c, 14, 48, 52
21, 174559, Note_on_c, 14, 48, 0
21, 174560, Note_on_c, 14, 46, 52
21, 174639, Note_on_c, 14, 46, 0
21, 174640, Note_on_c, 14, 45, 52
21, 174707, Note_on_c, 14, 45, 0
21, 174720, Note_on_c, 14, 43, 52
21, 174959, Note_on_c, 14, 43, 0
21, 174960, Note_on_c, 14, 46, 52
21, 175039, Note_on_c, 14, 46, 0
21, 175040, Note_on_c, 14, 45, 52
21, 175119, Note_on_c, 14, 45, 0
21, 175120, Note_on_c, 14, 43, 52
21, 175199, Note_on_c, 14, 43, 0
21, 175200, Note_on_c, 14, 41, 52
21, 175439, Note_on_c, 14, 41, 0
21, 175440, Note_on_c, 14, 45, 52
21, 175519, Note_on_c, 14, 45, 0
21, 175520, Note_on_c, 14, 43, 52
21, 175599, Note_on_c, 14, 43, 0
21, 175600, Note_on_c, 14, 41, 52
21, 175667, Note_on_c, 14, 41, 0
21, 175680, Note_on_c, 14, 40, 52
21, 175919, Note_on_c, 14, 40, 0
21, 178320, Note_on_c, 14, 53, 52
21, 178399, Note_on_c, 14, 53, 0
21, 178400, Note_on_c, 14, 55, 52
21, 178479, Note_on_c, 14, 55, 0
21, 178480, Note_on_c, 14, 56, 52
21, 178547, Note_on_c, 14, 56, 0
21, 178560, Note_on_c, 14, 52, 52
21, 178739, Note_on_c, 14, 52, 0
21, 178800, Note_on_c, 14, 50, 52
21, 178879, Note_on_c, 14, 50, 0
21, 178880, Note_on_c, 14, 52, 52
21, 178959, Note_on_c, 14, 52, 0
21, 178960, Note_on_c, 14, 53, 52
21, 179027, Note_on_c, 14, 53, 0
21, 179040, Note_on_c, 14, 48, 52
21, 179219, Note_on_c, 14, 48, 0
21, 179280, Note_on_c, 14, 46, 52
21, 179359, Note_on_c, 14, 46, 0
21, 179360, Note_on_c, 14, 48, 52
21, 179439, Note_on_c, 14, 48, 0
21, 179440, Note_on_c, 14, 49, 52
21, 179507, Note_on_c, 14, 49, 0
21, 179520, Note_on_c, 14, 45, 52
21, 179759, Note_on_c, 14, 45, 0
21, 181440, Control_c, 14, 11, 80
21, 182160, Control_c, 14, 11, 80
21, 182160, Note_on_c, 14, 55, 76
21, 182213, Control_c, 14, 11, 83
21, 182239, Note_on_c, 14, 55, 0
21, 182240, Note_on_c, 14, 57, 76
21, 182267, Control_c, 14, 11, 85
21, 182319, Note_on_c, 14, 57, 0
21, 182320, Note_on_c, 14, 58, 76
21, 182320, Control_c, 14, 11, 88
21, 182373, Control_c, 14, 11, 90
21, 182387, Note_on_c, 14, 58, 0
21, 182400, Note_on_c, 14, 53, 76
21, 182427, Control_c, 14, 11, 93
21, 182480, Control_c, 14, 11, 96
21, 182533, Control_c, 14, 11, 98
21, 182579, Note_on_c, 14, 53, 0
21, 182587, Control_c, 14, 11, 101
21, 182640, Control_c, 14, 11, 104
21, 182640, Note_on_c, 14, 51, 76
21, 182693, Control_c, 14, 11, 106
21, 182719, Note_on_c, 14, 51, 0
21, 182720, Note_on_c, 14, 53, 76
21, 182747, Control_c, 14, 11, 109
21, 182799, Note_on_c, 14, 53, 0
21, 182800, Control_c, 14, 11, 111
21, 182800, Note_on_c, 14, 54, 76
21, 182853, Control_c, 14, 11, 114
21, 182867, Note_on_c, 14, 54, 0
21, 182880, Note_on_c, 14, 50, 76
21, 182907, Control_c, 14, 11, 117
21, 182960, Control_c, 14, 11, 119
21, 183013, Control_c, 14, 11, 122
21, 183059, Note_on_c, 14, 50, 0
21, 183067, Control_c, 14, 11, 127
21, 183120, Note_on_c, 14, 46, 76
21, 183344, Note_on_c, 14, 46, 0
21, 183360, Note_on_c, 14, 45, 76
21, 183824, Note_on_c, 14, 45, 0
21, 183840, Note_on_c, 14, 46, 76
21, 184304, Note_on_c, 14, 46, 0
21, 184320, Note_on_c, 14, 48, 76
21, 185279, Note_on_c, 14, 48, 0
21, 185280, Note_on_c, 14, 48, 76
21, 185984, Note_on_c, 14, 48, 0
21, 186000, Note_on_c, 14, 48, 76
21, 186224, Note_on_c, 14, 48, 0
21, 186240, Note_on_c, 14, 46, 76
21, 186704, Note_on_c, 14, 46, 0
21, 186720, Note_on_c, 14, 48, 76
21, 187184, Note_on_c, 14, 48, 0
21, 187200, Note_on_c, 14, 49, 76
21, 188159, Note_on_c, 14, 49, 0
21, 188160, Note_on_c, 14, 49, 76
21, 188864, Note_on_c, 14, 49, 0
21, 188880, Note_on_c, 14, 56, 76
21, 188959, Note_on_c, 14, 56, 0
21, 188960, Note_on_c, 14, 54, 76
21, 189039, Note_on_c, 14, 54, 0
21, 189040, Note_on_c, 14, 53, 76
21, 189119, Note_on_c, 14, 53, 0
21, 189120, Note_on_c, 14, 51, 76
21, 189359, Note_on_c, 14, 51, 0
21, 189360, Note_on_c, 14, 54, 76
21, 189439, Note_on_c, 14, 54, 0
21, 189440, Note_on_c, 14, 53, 76
21, 189519, Note_on_c, 14, 53, 0
21, 189520, Note_on_c, 14, 51, 76
21, 189599, Note_on_c, 14, 51, 0
21, 189600, Note_on_c, 14, 49, 76
21, 189839, Note_on_c, 14, 49, 0
21, 189840, Note_on_c, 14, 53, 76
21, 189919, Note_on_c, 14, 53, 0
21, 189920, Note_on_c, 14, 51, 76
21, 189999, Note_on_c, 14, 51, 0
21, 190000, Note_on_c, 14, 49, 76
21, 190067, Note_on_c, 14, 49, 0
21, 190080, Note_on_c, 14, 48, 76
21, 191039, Note_on_c, 14, 48, 0
21, 191040, Note_on_c, 14, 48, 76
21, 191744, Note_on_c, 14, 48, 0
21, 191760, Note_on_c, 14, 58, 76
21, 191839, Note_on_c, 14, 58, 0
21, 191840, Note_on_c, 14, 56, 76
21, 191919, Note_on_c, 14, 56, 0
21, 191920, Note_on_c, 14, 54, 76
21, 191999, Note_on_c, 14, 54, 0
21, 192000, Note_on_c, 14, 53, 76
21, 192239, Note_on_c, 14, 53, 0
21, 192240, Note_on_c, 14, 56, 76
21, 192319, Note_on_c, 14, 56, 0
21, 192320, Note_on_c, 14, 54, 76
21, 192399, Note_on_c, 14, 54, 0
21, 192400, Note_on_c, 14, 53, 76
21, 192479, Note_on_c, 14, 53, 0
21, 192480, Note_on_c, 14, 51, 76
21, 192719, Note_on_c, 14, 51, 0
21, 192720, Note_on_c, 14, 54, 76
21, 192799, Note_on_c, 14, 54, 0
21, 192800, Note_on_c, 14, 53, 76
21, 192879, Note_on_c, 14, 53, 0
21, 192880, Note_on_c, 14, 51, 76
21, 192947, Note_on_c, 14, 51, 0
21, 192960, Note_on_c, 14, 50, 76
21, 193919, Note_on_c, 14, 50, 0
21, 193920, Note_on_c, 14, 50, 76
21, 194624, Note_on_c, 14, 50, 0
21, 194640, Note_on_c, 14, 37, 76
21, 194864, Note_on_c, 14, 37, 0
21, 194880, Note_on_c, 14, 37, 76
21, 195824, Note_on_c, 14, 37, 0
21, 195840, Note_on_c, 14, 36, 76
21, 196544, Note_on_c, 14, 36, 0
21, 196560, Note_on_c, 14, 53, 76
21, 196739, Note_on_c, 14, 53, 0
21, 196800, Note_on_c, 14, 52, 76
21, 197159, Note_on_c, 14, 52, 0
21, 197280, Note_on_c, 14, 53, 76
21, 197639, Note_on_c, 14, 53, 0
21, 197760, Note_on_c, 14, 55, 80
21, 197939, Note_on_c, 14, 55, 0
21, 198000, Note_on_c, 14, 49, 80
21, 198179, Note_on_c, 14, 49, 0
21, 198240, Note_on_c, 14, 48, 80
21, 198944, Note_on_c, 14, 48, 0
21, 198960, Note_on_c, 14, 43, 80
21, 199139, Note_on_c, 14, 43, 0
21, 199200, Note_on_c, 14, 41, 80
21, 199904, Note_on_c, 14, 41, 0
21, 199920, Note_on_c, 14, 53, 80
21, 200099, Note_on_c, 14, 53, 0
21, 200160, Note_on_c, 14, 51, 80
21, 200864, Note_on_c, 14, 51, 0
21, 200880, Note_on_c, 14, 46, 80
21, 201059, Note_on_c, 14, 46, 0
21, 201120, Note_on_c, 14, 44, 80
21, 201824, Note_on_c, 14, 44, 0
21, 201840, Note_on_c, 14, 56, 80
21, 202019, Note_on_c, 14, 56, 0
21, 202080, Note_on_c, 14, 55, 80
21, 202784, Note_on_c, 14, 55, 0
21, 202800, Note_on_c, 14, 50, 80
21, 202979, Note_on_c, 14, 50, 0
21, 203040, Note_on_c, 14, 48, 80
21, 203744, Note_on_c, 14, 48, 0
21, 203760, Note_on_c, 14, 60, 80
21, 203939, Note_on_c, 14, 60, 0
21, 204000, Note_on_c, 14, 58, 80
21, 204704, Note_on_c, 14, 58, 0
21, 204720, Note_on_c, 14, 53, 80
21, 204899, Note_on_c, 14, 53, 0
21, 204960, Note_on_c, 14, 51, 80
21, 205139, Note_on_c, 14, 51, 0
21, 205200, Note_on_c, 14, 63, 80
21, 205379, Note_on_c, 14, 63, 0
21, 205440, Note_on_c, 14, 62, 80
21, 205507, Note_on_c, 14, 62, 0
21, 205520, Note_on_c, 14, 62, 80
21, 205587, Note_on_c, 14, 62, 0
21, 205600, Note_on_c, 14, 62, 80
21, 205667, Note_on_c, 14, 62, 0
21, 205680, Note_on_c, 14, 62, 80
21, 205747, Note_on_c, 14, 62, 0
21, 205760, Note_on_c, 14, 62, 80
21, 205827, Note_on_c, 14, 62, 0
21, 205840, Note_on_c, 14, 62, 80
21, 205907, Note_on_c, 14, 62, 0
21, 205920, Note_on_c, 14, 62, 80
21, 205987, Note_on_c, 14, 62, 0
21, 206000, Note_on_c, 14, 62, 80
21, 206067, Note_on_c, 14, 62, 0
21, 206080, Note_on_c, 14, 62, 80
21, 206147, Note_on_c, 14, 62, 0
21, 206160, Note_on_c, 14, 62, 80
21, 206227, Note_on_c, 14, 62, 0
21, 206240, Note_on_c, 14, 62, 80
21, 206307, Note_on_c, 14, 62, 0
21, 206320, Note_on_c, 14, 62, 80
21, 206387, Note_on_c, 14, 62, 0
21, 206400, Note_on_c, 14, 62, 80
21, 206467, Note_on_c, 14, 62, 0
21, 206480, Note_on_c, 14, 62, 80
21, 206547, Note_on_c, 14, 62, 0
21, 206560, Note_on_c, 14, 62, 80
21, 206627, Note_on_c, 14, 62, 0
21, 206640, Note_on_c, 14, 62, 80
21, 206707, Note_on_c, 14, 62, 0
21, 206720, Note_on_c, 14, 62, 80
21, 206787, Note_on_c, 14, 62, 0
21, 206800, Note_on_c, 14, 62, 80
21, 206867, Note_on_c, 14, 62, 0
21, 206880, Note_on_c, 14, 62, 80
21, 206947, Note_on_c, 14, 62, 0
21, 206960, Note_on_c, 14, 62, 80
21, 207027, Note_on_c, 14, 62, 0
21, 207040, Note_on_c, 14, 62, 80
21, 207107, Note_on_c, 14, 62, 0
21, 207120, Note_on_c, 14, 62, 80
21, 207187, Note_on_c, 14, 62, 0
21, 207200, Note_on_c, 14, 62, 80
21, 207267, Note_on_c, 14, 62, 0
21, 207280, Note_on_c, 14, 62, 80
21, 207347, Note_on_c, 14, 62, 0
21, 207360, Note_on_c, 14, 43, 84
21, 208319, Note_on_c, 14, 43, 0
21, 208320, Note_on_c, 14, 43, 84
21, 209264, Note_on_c, 14, 43, 0
21, 209280, Note_on_c, 14, 43, 84
21, 210239, Note_on_c, 14, 43, 0
21, 210240, Note_on_c, 14, 43, 84
21, 211184, Note_on_c, 14, 43, 0
21, 211200, Note_on_c, 14, 43, 84
21, 211747, Note_on_c, 14, 43, 0
21, 211760, Note_on_c, 14, 60, 84
21, 211760, Note_on_c, 14, 64, 84
21, 211827, Note_on_c, 14, 60, 0
21, 211827, Note_on_c, 14, 64, 0
21, 211840, Note_on_c, 14, 62, 84
21, 211840, Note_on_c, 14, 65, 84
21, 211907, Note_on_c, 14, 62, 0
21, 211907, Note_on_c, 14, 65, 0
21, 211920, Note_on_c, 14, 67, 84
21, 211920, Note_on_c, 14, 64, 84
21, 211987, Note_on_c, 14, 67, 0
21, 211987, Note_on_c, 14, 64, 0
21, 212000, Note_on_c, 14, 62, 84
21, 212000, Note_on_c, 14, 65, 84
21, 212067, Note_on_c, 14, 62, 0
21, 212067, Note_on_c, 14, 65, 0
21, 212080, Note_on_c, 14, 60, 84
21, 212080, Note_on_c, 14, 64, 84
21, 212147, Note_on_c, 14, 60, 0
21, 212147, Note_on_c, 14, 64, 0
21, 212160, Note_on_c, 14, 59, 84
21, 212160, Note_on_c, 14, 62, 84
21, 212227, Note_on_c, 14, 59, 0
21, 212227, Note_on_c, 14, 62, 0
21, 212240, Note_on_c, 14, 57, 84
21, 212240, Note_on_c, 14, 60, 84
21, 212307, Note_on_c, 14, 57, 0
21, 212307, Note_on_c, 14, 60, 0
21, 212320, Note_on_c, 14, 62, 84
21, 212320, Note_on_c, 14, 59, 84
21, 212387, Note_on_c, 14, 62, 0
21, 212387, Note_on_c, 14, 59, 0
21, 212400, Note_on_c, 14, 62, 84
21, 212400, Note_on_c, 14, 65, 84
21, 212467, Note_on_c, 14, 62, 0
21, 212467, Note_on_c, 14, 65, 0
21, 212480, Note_on_c, 14, 60, 84
21, 212480, Note_on_c, 14, 64, 84
21, 212547, Note_on_c, 14, 60, 0
21, 212547, Note_on_c, 14, 64, 0
21, 212560, Note_on_c, 14, 62, 84
21, 212560, Note_on_c, 14, 59, 84
21, 212627, Note_on_c, 14, 62, 0
21, 212627, Note_on_c, 14, 59, 0
21, 212640, Note_on_c, 14, 64, 84
21, 212640, Note_on_c, 14, 60, 84
21, 212707, Note_on_c, 14, 64, 0
21, 212707, Note_on_c, 14, 60, 0
21, 212720, Note_on_c, 14, 62, 84
21, 212720, Note_on_c, 14, 59, 84
21, 212787, Note_on_c, 14, 62, 0
21, 212787, Note_on_c, 14, 59, 0
21, 212800, Note_on_c, 14, 64, 84
21, 212800, Note_on_c, 14, 60, 84
21, 212867, Note_on_c, 14, 64, 0
21, 212867, Note_on_c, 14, 60, 0
21, 212880, Note_on_c, 14, 67, 84
21, 212880, Note_on_c, 14, 64, 84
21, 212947, Note_on_c, 14, 67, 0
21, 212947, Note_on_c, 14, 64, 0
21, 212960, Note_on_c, 14, 65, 84
21, 212960, Note_on_c, 14, 62, 84
21, 213027, Note_on_c, 14, 65, 0
21, 213027, Note_on_c, 14, 62, 0
21, 213040, Note_on_c, 14, 64, 84
21, 213040, Note_on_c, 14, 60, 84
21, 213107, Note_on_c, 14, 64, 0
21, 213107, Note_on_c, 14, 60, 0
21, 213120, Note_on_c, 14, 62, 84
21, 213120, Note_on_c, 14, 65, 84
21, 213187, Note_on_c, 14, 62, 0
21, 213187, Note_on_c, 14, 65, 0
21, 213200, Note_on_c, 14, 60, 84
21, 213200, Note_on_c, 14, 64, 84
21, 213267, Note_on_c, 14, 60, 0
21, 213267, Note_on_c, 14, 64, 0
21, 213280, Note_on_c, 14, 62, 84
21, 213280, Note_on_c, 14, 65, 84
21, 213347, Note_on_c, 14, 62, 0
21, 213347, Note_on_c, 14, 65, 0
21, 213360, Note_on_c, 14, 69, 84
21, 213360, Note_on_c, 14, 65, 84
21, 213427, Note_on_c, 14, 69, 0
21, 213427, Note_on_c, 14, 65, 0
21, 213440, Note_on_c, 14, 67, 84
21, 213440, Note_on_c, 14, 64, 84
21, 213507, Note_on_c, 14, 67, 0
21, 213507, Note_on_c, 14, 64, 0
21, 213520, Note_on_c, 14, 65, 84
21, 213520, Note_on_c, 14, 62, 84
21, 213587, Note_on_c, 14, 65, 0
21, 213587, Note_on_c, 14, 62, 0
21, 213600, Note_on_c, 14, 65, 84
21, 213600, Note_on_c, 14, 62, 84
21, 213667, Note_on_c, 14, 65, 0
21, 213667, Note_on_c, 14, 62, 0
21, 213680, Note_on_c, 14, 64, 84
21, 213680, Note_on_c, 14, 60, 84
21, 213747, Note_on_c, 14, 64, 0
21, 213747, Note_on_c, 14, 60, 0
21, 213760, Note_on_c, 14, 65, 84
21, 213760, Note_on_c, 14, 62, 84
21, 213827, Note_on_c, 14, 65, 0
21, 213827, Note_on_c, 14, 62, 0
21, 213840, Note_on_c, 14, 69, 84
21, 213840, Note_on_c, 14, 65, 84
21, 213907, Note_on_c, 14, 69, 0
21, 213907, Note_on_c, 14, 65, 0
21, 213920, Note_on_c, 14, 67, 84
21, 213920, Note_on_c, 14, 64, 84
21, 213987, Note_on_c, 14, 67, 0
21, 213987, Note_on_c, 14, 64, 0
21, 214000, Note_on_c, 14, 62, 84
21, 214000, Note_on_c, 14, 65, 84
21, 214067, Note_on_c, 14, 62, 0
21, 214067, Note_on_c, 14, 65, 0
21, 214080, Note_on_c, 14, 64, 84
21, 214080, Note_on_c, 14, 60, 84
21, 214147, Note_on_c, 14, 64, 0
21, 214147, Note_on_c, 14, 60, 0
21, 214160, Note_on_c, 14, 59, 84
21, 214160, Note_on_c, 14, 62, 84
21, 214227, Note_on_c, 14, 59, 0
21, 214227, Note_on_c, 14, 62, 0
21, 214240, Note_on_c, 14, 60, 84
21, 214240, Note_on_c, 14, 64, 84
21, 214307, Note_on_c, 14, 60, 0
21, 214307, Note_on_c, 14, 64, 0
21, 214320, Note_on_c, 14, 67, 84
21, 214320, Note_on_c, 14, 64, 84
21, 214387, Note_on_c, 14, 67, 0
21, 214387, Note_on_c, 14, 64, 0
21, 214400, Note_on_c, 14, 65, 84
21, 214400, Note_on_c, 14, 62, 84
21, 214467, Note_on_c, 14, 65, 0
21, 214467, Note_on_c, 14, 62, 0
21, 214480, Note_on_c, 14, 60, 84
21, 214480, Note_on_c, 14, 64, 84
21, 214547, Note_on_c, 14, 60, 0
21, 214547, Note_on_c, 14, 64, 0
21, 214560, Note_on_c, 14, 65, 84
21, 214560, Note_on_c, 14, 62, 84
21, 214627, Note_on_c, 14, 65, 0
21, 214627, Note_on_c, 14, 62, 0
21, 214640, Note_on_c, 14, 64, 84
21, 214640, Note_on_c, 14, 60, 84
21, 214707, Note_on_c, 14, 64, 0
21, 214707, Note_on_c, 14, 60, 0
21, 214720, Note_on_c, 14, 62, 84
21, 214720, Note_on_c, 14, 65, 84
21, 214787, Note_on_c, 14, 62, 0
21, 214787, Note_on_c, 14, 65, 0
21, 214800, Note_on_c, 14, 65, 84
21, 214800, Note_on_c, 14, 69, 84
21, 214867, Note_on_c, 14, 65, 0
21, 214867, Note_on_c, 14, 69, 0
21, 214880, Note_on_c, 14, 67, 84
21, 214880, Note_on_c, 14, 64, 84
21, 214947, Note_on_c, 14, 67, 0
21, 214947, Note_on_c, 14, 64, 0
21, 214960, Note_on_c, 14, 62, 84
21, 214960, Note_on_c, 14, 65, 84
21, 215027, Note_on_c, 14, 62, 0
21, 215027, Note_on_c, 14, 65, 0
21, 215040, Note_on_c, 14, 64, 92
21, 215040, Note_on_c, 14, 67, 92
21, 215107, Note_on_c, 14, 64, 0
21, 215107, Note_on_c, 14, 67, 0
21, 215120, Note_on_c, 14, 43, 84
21, 215187, Note_on_c, 14, 43, 0
21, 215200, Note_on_c, 14, 43, 84
21, 215267, Note_on_c, 14, 43, 0
21, 215280, Note_on_c, 14, 43, 84
21, 215347, Note_on_c, 14, 43, 0
21, 215360, Note_on_c, 14, 43, 84
21, 215427, Note_on_c, 14, 43, 0
21, 215440, Note_on_c, 14, 43, 84
21, 215507, Note_on_c, 14, 43, 0
21, 215520, Note_on_c, 14, 43, 84
21, 215587, Note_on_c, 14, 43, 0
21, 215600, Note_on_c, 14, 43, 84
21, 215667, Note_on_c, 14, 43, 0
21, 215680, Note_on_c, 14, 43, 84
21, 215747, Note_on_c, 14, 43, 0
21, 215760, Note_on_c, 14, 43, 84
21, 215827, Note_on_c, 14, 43, 0
21, 215840, Note_on_c, 14, 43, 84
21, 215907, Note_on_c, 14, 43, 0
21, 215920, Note_on_c, 14, 43, 84
21, 215987, Note_on_c, 14, 43, 0
21, 216000, Note_on_c, 14, 43, 92
21, 216067, Note_on_c, 14, 43, 0
21, 216080, Note_on_c, 14, 43, 84
21, 216147, Note_on_c, 14, 43, 0
21, 216160, Note_on_c, 14, 43, 84
21, 216227, Note_on_c, 14, 43, 0
21, 216240, Note_on_c, 14, 43, 84
21, 216307, Note_on_c, 14, 43, 0
21, 216320, Note_on_c, 14, 43, 84
21, 216387, Note_on_c, 14, 43, 0
21, 216400, Note_on_c, 14, 43, 84
21, 216467, Note_on_c, 14, 43, 0
21, 216480, Note_on_c, 14, 43, 84
21, 216547, Note_on_c, 14, 43, 0
21, 216560, Note_on_c, 14, 43, 84
21, 216627, Note_on_c, 14, 43, 0
21, 216640, Note_on_c, 14, 43, 84
21, 216707, Note_on_c, 14, 43, 0
21, 216720, Note_on_c, 14, 43, 84
21, 216787, Note_on_c, 14, 43, 0
21, 216800, Note_on_c, 14, 43, 84
21, 216867, Note_on_c, 14, 43, 0
21, 216880, Note_on_c, 14, 43, 84
21, 216947, Note_on_c, 14, 43, 0
21, 216960, Note_on_c, 14, 43, 84
21, 217027, Note_on_c, 14, 43, 0
21, 217040, Note_on_c, 14, 43, 84
21, 217107, Note_on_c, 14, 43, 0
21, 217120, Note_on_c, 14, 43, 84
21, 217187, Note_on_c, 14, 43, 0
21, 217200, Note_on_c, 14, 43, 84
21, 217267, Note_on_c, 14, 43, 0
21, 217280, Note_on_c, 14, 43, 84
21, 217347, Note_on_c, 14, 43, 0
21, 217360, Note_on_c, 14, 43, 84
21, 217427, Note_on_c, 14, 43, 0
21, 217440, Note_on_c, 14, 43, 84
21, 217507, Note_on_c, 14, 43, 0
21, 217520, Note_on_c, 14, 43, 84
21, 217587, Note_on_c, 14, 43, 0
21, 217600, Note_on_c, 14, 43, 84
21, 217667, Note_on_c, 14, 43, 0
21, 217680, Note_on_c, 14, 43, 84
21, 217747, Note_on_c, 14, 43, 0
21, 217760, Note_on_c, 14, 43, 84
21, 217827, Note_on_c, 14, 43, 0
21, 217840, Note_on_c, 14, 43, 84
21, 217907, Note_on_c, 14, 43, 0
21, 217920, Note_on_c, 14, 43, 84
21, 217987, Note_on_c, 14, 43, 0
21, 218000, Note_on_c, 14, 43, 84
21, 218067, Note_on_c, 14, 43, 0
21, 218080, Note_on_c, 14, 43, 84
21, 218147, Note_on_c, 14, 43, 0
21, 218160, Note_on_c, 14, 43, 84
21, 218227, Note_on_c, 14, 43, 0
21, 218240, Note_on_c, 14, 43, 84
21, 218307, Note_on_c, 14, 43, 0
21, 218320, Note_on_c, 14, 43, 84
21, 218387, Note_on_c, 14, 43, 0
21, 218400, Note_on_c, 14, 43, 84
21, 218467, Note_on_c, 14, 43, 0
21, 218480, Note_on_c, 14, 43, 84
21, 218547, Note_on_c, 14, 43, 0
21, 218560, Note_on_c, 14, 43, 84
21, 218627, Note_on_c, 14, 43, 0
21, 218640, Note_on_c, 14, 43, 84
21, 218707, Note_on_c, 14, 43, 0
21, 218720, Note_on_c, 14, 43, 84
21, 218787, Note_on_c, 14, 43, 0
21, 218800, Note_on_c, 14, 43, 84
21, 218867, Note_on_c, 14, 43, 0
21, 218880, Note_on_c, 14, 43, 84
21, 219464, Note_on_c, 14, 43, 0
21, 219480, Note_on_c, 14, 50, 84
21, 219584, Note_on_c, 14, 50, 0
21, 219600, Note_on_c, 14, 47, 84
21, 219704, Note_on_c, 14, 47, 0
21, 219720, Note_on_c, 14, 50, 84
21, 219824, Note_on_c, 14, 50, 0
21, 219840, Note_on_c, 14, 55, 84
21, 220424, Note_on_c, 14, 55, 0
21, 220440, Note_on_c, 14, 50, 84
21, 220544, Note_on_c, 14, 50, 0
21, 220560, Note_on_c, 14, 47, 84
21, 220664, Note_on_c, 14, 47, 0
21, 220680, Note_on_c, 14, 50, 84
21, 220784, Note_on_c, 14, 50, 0
21, 220800, Note_on_c, 14, 55, 84
21, 220904, Note_on_c, 14, 55, 0
21, 220920, Note_on_c, 14, 62, 84
21, 221024, Note_on_c, 14, 62, 0
21, 221040, Note_on_c, 14, 59, 84
21, 221144, Note_on_c, 14, 59, 0
21, 221160, Note_on_c, 14, 62, 84
21, 221264, Note_on_c, 14, 62, 0
21, 221280, Note_on_c, 14, 62, 84
21, 221384, Note_on_c, 14, 62, 0
21, 221400, Note_on_c, 14, 59, 84
21, 221504, Note_on_c, 14, 59, 0
21, 221520, Note_on_c, 14, 55, 84
21, 221624, Note_on_c, 14, 55, 0
21, 221640, Note_on_c, 14, 59, 84
21, 221744, Note_on_c, 14, 59, 0
21, 221760, Note_on_c, 14, 59, 84
21, 221864, Note_on_c, 14, 59, 0
21, 221880, Note_on_c, 14, 55, 84
21, 221984, Note_on_c, 14, 55, 0
21, 222000, Note_on_c, 14, 50, 84
21, 222104, Note_on_c, 14, 50, 0
21, 222120, Note_on_c, 14, 55, 84
21, 222224, Note_on_c, 14, 55, 0
21, 222240, Note_on_c, 14, 55, 84
21, 222344, Note_on_c, 14, 55, 0
21, 222360, Note_on_c, 14, 50, 84
21, 222464, Note_on_c, 14, 50, 0
21, 222480, Note_on_c, 14, 47, 84
21, 222584, Note_on_c, 14, 47, 0
21, 222600, Note_on_c, 14, 50, 84
21, 222704, Note_on_c, 14, 50, 0
21, 222720, Note_on_c, 14, 50, 84
21, 222824, Note_on_c, 14, 50, 0
21, 222840, Note_on_c, 14, 47, 84
21, 222944, Note_on_c, 14, 47, 0
21, 222960, Note_on_c, 14, 43, 84
21, 223064, Note_on_c, 14, 43, 0
21, 223080, Note_on_c, 14, 59, 84
21, 223184, Note_on_c, 14, 59, 0
21, 223200, Note_on_c, 14, 59, 84
21, 223304, Note_on_c, 14, 59, 0
21, 223320, Note_on_c, 14, 55, 84
21, 223424, Note_on_c, 14, 55, 0
21, 223440, Note_on_c, 14, 50, 84
21, 223544, Note_on_c, 14, 50, 0
21, 223560, Note_on_c, 14, 55, 84
21, 223664, Note_on_c, 14, 55, 0
21, 223680, Note_on_c, 14, 55, 84
21, 223784, Note_on_c, 14, 55, 0
21, 223800, Note_on_c, 14, 50, 84
21, 223904, Note_on_c, 14, 50, 0
21, 223920, Note_on_c, 14, 47, 84
21, 224024, Note_on_c, 14, 47, 0
21, 224040, Note_on_c, 14, 50, 84
21, 224144, Note_on_c, 14, 50, 0
21, 224160, Note_on_c, 14, 55, 84
21, 224264, Note_on_c, 14, 55, 0
21, 224280, Note_on_c, 14, 50, 84
21, 224384, Note_on_c, 14, 50, 0
21, 224400, Note_on_c, 14, 47, 84
21, 224504, Note_on_c, 14, 47, 0
21, 224520, Note_on_c, 14, 50, 84
21, 224624, Note_on_c, 14, 50, 0
21, 224640, Note_on_c, 14, 43, 84
21, 225584, Note_on_c, 14, 43, 0
21, 225600, Note_on_c, 14, 43, 84
21, 226544, Note_on_c, 14, 43, 0
21, 226560, Note_on_c, 14, 43, 84
21, 227504, Note_on_c, 14, 43, 0
21, 227520, Note_on_c, 14, 43, 84
21, 227759, Note_on_c, 14, 43, 0
21, 232560, Program_c, 14, 45
21, 233280, Note_on_c, 14, 48, 44
21, 233519, Note_on_c, 14, 48, 0
21, 234000, Note_on_c, 14, 50, 44
21, 234239, Note_on_c, 14, 50, 0
21, 234720, Note_on_c, 14, 51, 44
21, 234959, Note_on_c, 14, 51, 0
21, 235440, Note_on_c, 14, 47, 44
21, 235679, Note_on_c, 14, 47, 0
21, 236160, Note_on_c, 14, 48, 44
21, 236399, Note_on_c, 14, 48, 0
21, 236640, Note_on_c, 14, 46, 44
21, 236879, Note_on_c, 14, 46, 0
21, 236880, Note_on_c, 14, 44, 44
21, 237119, Note_on_c, 14, 44, 0
21, 237360, Note_on_c, 14, 45, 44
21, 237599, Note_on_c, 14, 45, 0
21, 237600, Note_on_c, 14, 46, 44
21, 237839, Note_on_c, 14, 46, 0
21, 238320, Note_on_c, 14, 48, 44
21, 238559, Note_on_c, 14, 48, 0
21, 239040, Note_on_c, 14, 53, 44
21, 239279, Note_on_c, 14, 53, 0
21, 239760, Note_on_c, 14, 55, 44
21, 239999, Note_on_c, 14, 55, 0
21, 240480, Note_on_c, 14, 56, 44
21, 240719, Note_on_c, 14, 56, 0
21, 241200, Note_on_c, 14, 46, 44
21, 241439, Note_on_c, 14, 46, 0
21, 241920, Note_on_c, 14, 44, 44
21, 242159, Note_on_c, 14, 44, 0
21, 242640, Note_on_c, 14, 44, 44
21, 242879, Note_on_c, 14, 44, 0
21, 243360, Note_on_c, 14, 43, 44
21, 243599, Note_on_c, 14, 43, 0
21, 245520, Note_on_c, 14, 43, 44
21, 245759, Note_on_c, 14, 43, 0
21, 246240, Note_on_c, 14, 43, 44
21, 246479, Note_on_c, 14, 43, 0
21, 248400, Note_on_c, 14, 43, 44
21, 248639, Note_on_c, 14, 43, 0
21, 249120, Note_on_c, 14, 43, 44
21, 249359, Note_on_c, 14, 43, 0
21, 264240, Program_c, 14, 48
21, 264960, Note_on_c, 14, 48, 44
21, 265059, Note_on_c, 14, 48, 0
21, 265080, Note_on_c, 14, 48, 47
21, 265179, Note_on_c, 14, 48, 0
21, 265200, Note_on_c, 14, 48, 50
21, 265299, Note_on_c, 14, 48, 0
21, 265320, Note_on_c, 14, 48, 54
21, 265419, Note_on_c, 14, 48, 0
21, 265440, Note_on_c, 14, 48, 57
21, 265539, Note_on_c, 14, 48, 0
21, 265560, Note_on_c, 14, 48, 60
21, 265659, Note_on_c, 14, 48, 0
21, 265680, Note_on_c, 14, 48, 64
21, 265779, Note_on_c, 14, 48, 0
21, 265800, Note_on_c, 14, 48, 67
21, 265899, Note_on_c, 14, 48, 0
21, 265920, Note_on_c, 14, 48, 70
21, 266019, Note_on_c, 14, 48, 0
21, 266040, Note_on_c, 14, 48, 74
21, 266139, Note_on_c, 14, 48, 0
21, 266160, Note_on_c, 14, 48, 77
21, 266259, Note_on_c, 14, 48, 0
21, 266280, Note_on_c, 14, 48, 80
21, 266379, Note_on_c, 14, 48, 0
21, 266400, Note_on_c, 14, 48, 84
21, 266400, Note_on_c, 14, 36, 84
21, 266639, Note_on_c, 14, 48, 0
21, 266639, Note_on_c, 14, 36, 0
21, 266880, Note_on_c, 14, 48, 84
21, 266880, Note_on_c, 14, 36, 84
21, 267119, Note_on_c, 14, 48, 0
21, 267119, Note_on_c, 14, 36, 0
21, 267360, Note_on_c, 14, 48, 84
21, 267360, Note_on_c, 14, 36, 84
21, 268064, Note_on_c, 14, 48, 0
21, 268064, Note_on_c, 14, 36, 0
21, 268080, Note_on_c, 14, 43, 84
21, 268199, Note_on_c, 14, 43, 0
21, 268320, Note_on_c, 14, 48, 84
21, 268439, Note_on_c, 14, 48, 0
21, 268560, Note_on_c, 14, 43, 84
21, 268679, Note_on_c, 14, 43, 0
21, 268800, Note_on_c, 14, 36, 84
21, 268919, Note_on_c, 14, 36, 0
21, 269040, Note_on_c, 14, 43, 84
21, 269159, Note_on_c, 14, 43, 0
21, 269280, Note_on_c, 14, 36, 84
21, 269984, Note_on_c, 14, 36, 0
21, 270000, Note_on_c, 14, 48, 84
21, 270171, Note_on_c, 14, 48, 0
21, 270180, Note_on_c, 14, 48, 84
21, 270231, Note_on_c, 14, 48, 0
21, 270240, Note_on_c, 14, 43, 84
21, 270944, Note_on_c, 14, 43, 0
21, 270960, Note_on_c, 14, 43, 84
21, 271131, Note_on_c, 14, 43, 0
21, 271140, Note_on_c, 14, 43, 84
21, 271191, Note_on_c, 14, 43, 0
21, 271200, Note_on_c, 14, 48, 84
21, 272144, Note_on_c, 14, 48, 0
21, 272160, Note_on_c, 14, 45, 84
21, 272624, Note_on_c, 14, 45, 0
21, 272640, Note_on_c, 14, 41, 84
21, 273104, Note_on_c, 14, 41, 0
21, 273120, Note_on_c, 14, 40, 84
21, 273224, Note_on_c, 14, 40, 0
21, 273240, Note_on_c, 14, 41, 84
21, 273344, Note_on_c, 14, 41, 0
21, 273360, Note_on_c, 14, 40, 84
21, 273464, Note_on_c, 14, 40, 0
21, 273480, Note_on_c, 14, 38, 84
21, 273584, Note_on_c, 14, 38, 0
21, 273600, Note_on_c, 14, 36, 84
21, 274064, Note_on_c, 14, 36, 0
21, 274080, Note_on_c, 14, 45, 84
21, 274544, Note_on_c, 14, 45, 0
21, 274560, Note_on_c, 14, 41, 84
21, 275024, Note_on_c, 14, 41, 0
21, 275040, Note_on_c, 14, 40, 84
21, 275144, Note_on_c, 14, 40, 0
21, 275160, Note_on_c, 14, 41, 84
21, 275264, Note_on_c, 14, 41, 0
21, 275280, Note_on_c, 14, 40, 84
21, 275384, Note_on_c, 14, 40, 0
21, 275400, Note_on_c, 14, 38, 84
21, 275504, Note_on_c, 14, 38, 0
21, 275520, Note_on_c, 14, 36, 84
21, 275984, Note_on_c, 14, 36, 0
21, 276000, Note_on_c, 14, 45, 84
21, 276464, Note_on_c, 14, 45, 0
21, 276480, Note_on_c, 14, 41, 84
21, 276944, Note_on_c, 14, 41, 0
21, 276960, Note_on_c, 14, 40, 84
21, 277064, Note_on_c, 14, 40, 0
21, 277080, Note_on_c, 14, 41, 84
21, 277184, Note_on_c, 14, 41, 0
21, 277200, Note_on_c, 14, 40, 84
21, 277304, Note_on_c, 14, 40, 0
21, 277320, Note_on_c, 14, 38, 84
21, 277424, Note_on_c, 14, 38, 0
21, 277440, Note_on_c, 14, 36, 84
21, 277664, Note_on_c, 14, 36, 0
21, 277680, Note_on_c, 14, 48, 84
21, 277851, Note_on_c, 14, 48, 0
21, 277860, Note_on_c, 14, 48, 84
21, 277911, Note_on_c, 14, 48, 0
21, 277920, Note_on_c, 14, 47, 84
21, 278384, Note_on_c, 14, 47, 0
21, 278400, Note_on_c, 14, 48, 84
21, 278864, Note_on_c, 14, 48, 0
21, 278880, Note_on_c, 14, 43, 84
21, 279104, Note_on_c, 14, 43, 0
21, 279120, Note_on_c, 14, 43, 84
21, 279584, Note_on_c, 14, 43, 0
21, 279600, Note_on_c, 14, 48, 84
21, 279771, Note_on_c, 14, 48, 0
21, 279780, Note_on_c, 14, 48, 84
21, 279831, Note_on_c, 14, 48, 0
21, 279840, Note_on_c, 14, 47, 84
21, 280304, Note_on_c, 14, 47, 0
21, 280320, Note_on_c, 14, 48, 84
21, 280784, Note_on_c, 14, 48, 0
21, 280800, Note_on_c, 14, 43, 84
21, 281024, Note_on_c, 14, 43, 0
21, 281040, Note_on_c, 14, 43, 84
21, 281504, Note_on_c, 14, 43, 0
21, 281520, Note_on_c, 14, 48, 84
21, 281691, Note_on_c, 14, 48, 0
21, 281700, Note_on_c, 14, 48, 84
21, 281751, Note_on_c, 14, 48, 0
21, 281760, Note_on_c, 14, 47, 84
21, 281931, Note_on_c, 14, 47, 0
21, 281940, Note_on_c, 14, 47, 84
21, 281991, Note_on_c, 14, 47, 0
21, 282000, Note_on_c, 14, 43, 84
21, 282171, Note_on_c, 14, 43, 0
21, 282180, Note_on_c, 14, 43, 84
21, 282231, Note_on_c, 14, 43, 0
21, 282240, Note_on_c, 14, 48, 84
21, 282411, Note_on_c, 14, 48, 0
21, 282420, Note_on_c, 14, 48, 84
21, 282471, Note_on_c, 14, 48, 0
21, 282480, Note_on_c, 14, 52, 84
21, 282651, Note_on_c, 14, 52, 0
21, 282660, Note_on_c, 14, 52, 84
21, 282711, Note_on_c, 14, 52, 0
21, 282720, Note_on_c, 14, 55, 84
21, 282824, Note_on_c, 14, 55, 0
21, 282840, Note_on_c, 14, 43, 84
21, 282944, Note_on_c, 14, 43, 0
21, 282960, Note_on_c, 14, 43, 84
21, 283199, Note_on_c, 14, 43, 0
21, 283800, Note_on_c, 14, 43, 84
21, 283904, Note_on_c, 14, 43, 0
21, 283920, Note_on_c, 14, 43, 84
21, 284159, Note_on_c, 14, 43, 0
21, 284760, Note_on_c, 14, 43, 84
21, 284864, Note_on_c, 14, 43, 0
21, 284880, Note_on_c, 14, 43, 84
21, 285119, Note_on_c, 14, 43, 0
21, 285240, Note_on_c, 14, 43, 84
21, 285344, Note_on_c, 14, 43, 0
21, 285360, Note_on_c, 14, 43, 84
21, 285599, Note_on_c, 14, 43, 0
21, 285720, Note_on_c, 14, 43, 84
21, 285824, Note_on_c, 14, 43, 0
21, 285840, Note_on_c, 14, 43, 84
21, 286079, Note_on_c, 14, 43, 0
21, 286200, Note_on_c, 14, 43, 84
21, 286304, Note_on_c, 14, 43, 0
21, 286320, Note_on_c, 14, 43, 84
21, 286544, Note_on_c, 14, 43, 0
21, 286560, Note_on_c, 14, 43, 84
21, 286799, Note_on_c, 14, 43, 0
21, 287640, Note_on_c, 14, 64, 92
21, 287759, Note_on_c, 14, 64, 0
21, 287760, Note_on_c, 14, 62, 84
21, 287864, Note_on_c, 14, 62, 0
21, 287880, Note_on_c, 14, 60, 84
21, 287969, Note_on_c, 14, 60, 0
21, 288000, Note_on_c, 14, 59, 84
21, 288089, Note_on_c, 14, 59, 0
21, 288120, Note_on_c, 14, 60, 92
21, 288239, Note_on_c, 14, 60, 0
21, 288240, Note_on_c, 14, 59, 84
21, 288344, Note_on_c, 14, 59, 0
21, 288360, Note_on_c, 14, 57, 84
21, 288449, Note_on_c, 14, 57, 0
21, 288480, Note_on_c, 14, 55, 84
21, 288569, Note_on_c, 14, 55, 0
21, 288600, Note_on_c, 14, 60, 92
21, 288719, Note_on_c, 14, 60, 0
21, 288720, Note_on_c, 14, 59, 84
21, 288824, Note_on_c, 14, 59, 0
21, 288840, Note_on_c, 14, 57, 84
21, 288929, Note_on_c, 14, 57, 0
21, 288960, Note_on_c, 14, 55, 84
21, 289049, Note_on_c, 14, 55, 0
21, 289080, Note_on_c, 14, 60, 92
21, 289199, Note_on_c, 14, 60, 0
21, 289200, Note_on_c, 14, 59, 84
21, 289304, Note_on_c, 14, 59, 0
21, 289320, Note_on_c, 14, 57, 84
21, 289409, Note_on_c, 14, 57, 0
21, 289440, Note_on_c, 14, 55, 84
21, 289529, Note_on_c, 14, 55, 0
21, 289560, Note_on_c, 14, 60, 92
21, 289679, Note_on_c, 14, 60, 0
21, 289680, Note_on_c, 14, 59, 84
21, 289784, Note_on_c, 14, 59, 0
21, 289800, Note_on_c, 14, 57, 84
21, 289889, Note_on_c, 14, 57, 0
21, 289920, Note_on_c, 14, 55, 84
21, 290009, Note_on_c, 14, 55, 0
21, 290040, Note_on_c, 14, 53, 84
21, 290129, Note_on_c, 14, 53, 0
21, 290160, Note_on_c, 14, 52, 84
21, 290249, Note_on_c, 14, 52, 0
21, 290280, Note_on_c, 14, 50, 84
21, 290369, Note_on_c, 14, 50, 0
21, 290400, Note_on_c, 14, 48, 84
21, 290639, Note_on_c, 14, 48, 0
21, 292320, Note_on_c, 14, 43, 84
21, 292904, Note_on_c, 14, 43, 0
21, 292920, Note_on_c, 14, 43, 84
21, 293009, Note_on_c, 14, 43, 0
21, 293040, Note_on_c, 14, 47, 84
21, 293129, Note_on_c, 14, 47, 0
21, 293160, Note_on_c, 14, 50, 84
21, 293249, Note_on_c, 14, 50, 0
21, 293280, Note_on_c, 14, 53, 84
21, 293369, Note_on_c, 14, 53, 0
21, 293400, Note_on_c, 14, 55, 84
21, 293489, Note_on_c, 14, 55, 0
21, 293520, Note_on_c, 14, 59, 84
21, 293609, Note_on_c, 14, 59, 0
21, 293640, Note_on_c, 14, 62, 84
21, 293729, Note_on_c, 14, 62, 0
21, 293760, Note_on_c, 14, 65, 84
21, 293849, Note_on_c, 14, 65, 0
21, 293880, Note_on_c, 14, 67, 84
21, 293969, Note_on_c, 14, 67, 0
21, 294000, Note_on_c, 14, 65, 84
21, 294089, Note_on_c, 14, 65, 0
21, 294120, Note_on_c, 14, 62, 84
21, 294209, Note_on_c, 14, 62, 0
21, 294240, Note_on_c, 14, 59, 84
21, 294344, Note_on_c, 14, 59, 0
21, 294360, Note_on_c, 14, 62, 84
21, 294464, Note_on_c, 14, 62, 0
21, 294480, Note_on_c, 14, 59, 84
21, 294584, Note_on_c, 14, 59, 0
21, 294600, Note_on_c, 14, 55, 84
21, 294704, Note_on_c, 14, 55, 0
21, 294720, Note_on_c, 14, 53, 84
21, 294824, Note_on_c, 14, 53, 0
21, 294840, Note_on_c, 14, 50, 84
21, 294944, Note_on_c, 14, 50, 0
21, 294960, Note_on_c, 14, 47, 84
21, 295064, Note_on_c, 14, 47, 0
21, 295080, Note_on_c, 14, 50, 84
21, 295184, Note_on_c, 14, 50, 0
21, 295200, Note_on_c, 14, 43, 84
21, 295439, Note_on_c, 14, 43, 0
21, 296160, Note_on_c, 14, 36, 84
21, 296744, Note_on_c, 14, 36, 0
21, 296760, Note_on_c, 14, 36, 84
21, 296864, Note_on_c, 14, 36, 0
21, 296880, Note_on_c, 14, 40, 84
21, 296984, Note_on_c, 14, 40, 0
21, 297000, Note_on_c, 14, 43, 84
21, 297104, Note_on_c, 14, 43, 0
21, 297120, Note_on_c, 14, 48, 84
21, 297224, Note_on_c, 14, 48, 0
21, 297240, Note_on_c, 14, 52, 84
21, 297344, Note_on_c, 14, 52, 0
21, 297360, Note_on_c, 14, 55, 84
21, 297464, Note_on_c, 14, 55, 0
21, 297480, Note_on_c, 14, 60, 84
21, 297584, Note_on_c, 14, 60, 0
21, 297600, Note_on_c, 14, 64, 84
21, 297704, Note_on_c, 14, 64, 0
21, 297720, Note_on_c, 14, 60, 84
21, 297824, Note_on_c, 14, 60, 0
21, 297840, Note_on_c, 14, 55, 84
21, 297944, Note_on_c, 14, 55, 0
21, 297960, Note_on_c, 14, 52, 84
21, 298064, Note_on_c, 14, 52, 0
21, 298080, Note_on_c, 14, 46, 84
21, 298184, Note_on_c, 14, 46, 0
21, 298200, Note_on_c, 14, 45, 84
21, 298304, Note_on_c, 14, 45, 0
21, 298320, Note_on_c, 14, 46, 84
21, 298424, Note_on_c, 14, 46, 0
21, 298440, Note_on_c, 14, 46, 84
21, 298544, Note_on_c, 14, 46, 0
21, 298560, Note_on_c, 14, 46, 84
21, 299144, Note_on_c, 14, 46, 0
21, 299160, Note_on_c, 14, 45, 84
21, 299264, Note_on_c, 14, 45, 0
21, 299280, Note_on_c, 14, 46, 84
21, 299384, Note_on_c, 14, 46, 0
21, 299400, Note_on_c, 14, 46, 84
21, 299504, Note_on_c, 14, 46, 0
21, 299520, Note_on_c, 14, 46, 84
21, 299984, Note_on_c, 14, 46, 0
21, 300000, Note_on_c, 14, 45, 84
21, 300104, Note_on_c, 14, 45, 0
21, 300120, Note_on_c, 14, 44, 84
21, 300224, Note_on_c, 14, 44, 0
21, 300240, Note_on_c, 14, 45, 84
21, 300344, Note_on_c, 14, 45, 0
21, 300360, Note_on_c, 14, 45, 84
21, 300464, Note_on_c, 14, 45, 0
21, 300480, Note_on_c, 14, 45, 84
21, 301064, Note_on_c, 14, 45, 0
21, 301080, Note_on_c, 14, 44, 84
21, 301184, Note_on_c, 14, 44, 0
21, 301200, Note_on_c, 14, 45, 84
21, 301304, Note_on_c, 14, 45, 0
21, 301320, Note_on_c, 14, 45, 84
21, 301424, Note_on_c, 14, 45, 0
21, 301440, Note_on_c, 14, 45, 84
21, 301904, Note_on_c, 14, 45, 0
21, 301920, Note_on_c, 14, 47, 84
21, 302624, Note_on_c, 14, 47, 0
21, 302640, Note_on_c, 14, 43, 84
21, 302879, Note_on_c, 14, 43, 0
21, 302880, Note_on_c, 14, 47, 84
21, 303119, Note_on_c, 14, 47, 0
21, 303120, Note_on_c, 14, 43, 84
21, 303359, Note_on_c, 14, 43, 0
21, 303360, Note_on_c, 14, 50, 84
21, 303599, Note_on_c, 14, 50, 0
21, 303600, Note_on_c, 14, 48, 84
21, 303779, Note_on_c, 14, 48, 0
21, 303780, Note_on_c, 14, 47, 84
21, 303831, Note_on_c, 14, 47, 0
21, 303840, Note_on_c, 14, 48, 84
21, 304544, Note_on_c, 14, 48, 0
21, 304560, Note_on_c, 14, 43, 84
21, 304799, Note_on_c, 14, 43, 0
21, 304800, Note_on_c, 14, 48, 84
21, 305039, Note_on_c, 14, 48, 0
21, 305040, Note_on_c, 14, 43, 84
21, 305279, Note_on_c, 14, 43, 0
21, 305280, Note_on_c, 14, 52, 84
21, 305519, Note_on_c, 14, 52, 0
21, 305520, Note_on_c, 14, 50, 84
21, 305699, Note_on_c, 14, 50, 0
21, 305700, Note_on_c, 14, 48, 84
21, 305751, Note_on_c, 14, 48, 0
21, 305760, Note_on_c, 14, 47, 84
21, 306104, Note_on_c, 14, 47, 0
21, 306120, Note_on_c, 14, 43, 84
21, 306224, Note_on_c, 14, 43, 0
21, 306240, Note_on_c, 14, 50, 84
21, 306599, Note_on_c, 14, 50, 0
21, 306600, Note_on_c, 14, 48, 84
21, 306659, Note_on_c, 14, 48, 0
21, 306660, Note_on_c, 14, 47, 84
21, 306711, Note_on_c, 14, 47, 0
21, 306720, Note_on_c, 14, 48, 84
21, 307064, Note_on_c, 14, 48, 0
21, 307080, Note_on_c, 14, 43, 84
21, 307184, Note_on_c, 14, 43, 0
21, 307200, Note_on_c, 14, 52, 84
21, 307559, Note_on_c, 14, 52, 0
21, 307560, Note_on_c, 14, 50, 84
21, 307619, Note_on_c, 14, 50, 0
21, 307620, Note_on_c, 14, 48, 84
21, 307671, Note_on_c, 14, 48, 0
21, 307680, Note_on_c, 14, 55, 84
21, 307769, Note_on_c, 14, 55, 0
21, 307800, Note_on_c, 14, 67, 84
21, 307919, Note_on_c, 14, 67, 0
21, 307920, Note_on_c, 14, 65, 84
21, 308024, Note_on_c, 14, 65, 0
21, 308040, Note_on_c, 14, 64, 84
21, 308129, Note_on_c, 14, 64, 0
21, 308160, Note_on_c, 14, 62, 84
21, 308249, Note_on_c, 14, 62, 0
21, 308280, Note_on_c, 14, 64, 84
21, 308399, Note_on_c, 14, 64, 0
21, 308400, Note_on_c, 14, 62, 84
21, 308504, Note_on_c, 14, 62, 0
21, 308520, Note_on_c, 14, 60, 84
21, 308609, Note_on_c, 14, 60, 0
21, 308640, Note_on_c, 14, 59, 84
21, 308729, Note_on_c, 14, 59, 0
21, 308760, Note_on_c, 14, 60, 84
21, 308879, Note_on_c, 14, 60, 0
21, 308880, Note_on_c, 14, 59, 84
21, 308984, Note_on_c, 14, 59, 0
21, 309000, Note_on_c, 14, 57, 84
21, 309089, Note_on_c, 14, 57, 0
21, 309120, Note_on_c, 14, 55, 84
21, 309209, Note_on_c, 14, 55, 0
21, 309240, Note_on_c, 14, 55, 84
21, 309359, Note_on_c, 14, 55, 0
21, 309360, Note_on_c, 14, 57, 84
21, 309464, Note_on_c, 14, 57, 0
21, 309480, Note_on_c, 14, 50, 84
21, 309569, Note_on_c, 14, 50, 0
21, 309600, Note_on_c, 14, 55, 84
21, 309839, Note_on_c, 14, 55, 0
21, 310680, Note_on_c, 14, 55, 84
21, 310799, Note_on_c, 14, 55, 0
21, 310800, Note_on_c, 14, 53, 84
21, 310904, Note_on_c, 14, 53, 0
21, 310920, Note_on_c, 14, 62, 84
21, 311009, Note_on_c, 14, 62, 0
21, 311040, Note_on_c, 14, 53, 84
21, 311129, Note_on_c, 14, 53, 0
21, 311160, Note_on_c, 14, 52, 84
21, 311279, Note_on_c, 14, 52, 0
21, 311280, Note_on_c, 14, 50, 84
21, 311384, Note_on_c, 14, 50, 0
21, 311400, Note_on_c, 14, 59, 84
21, 311489, Note_on_c, 14, 59, 0
21, 311520, Note_on_c, 14, 48, 84
21, 311759, Note_on_c, 14, 48, 0
21, 312000, Note_on_c, 14, 48, 84
21, 312239, Note_on_c, 14, 48, 0
21, 312480, Note_on_c, 14, 48, 84
21, 312704, Note_on_c, 14, 48, 0
21, 312720, Note_on_c, 14, 43, 84
21, 312787, Note_on_c, 14, 43, 0
21, 312800, Note_on_c, 14, 45, 84
21, 312867, Note_on_c, 14, 45, 0
21, 312880, Note_on_c, 14, 47, 84
21, 312947, Note_on_c, 14, 47, 0
21, 312960, Note_on_c, 14, 48, 84
21, 313184, Note_on_c, 14, 48, 0
21, 313200, Note_on_c, 14, 60, 52
21, 313439, Note_on_c, 14, 60, 0
21, 313440, Note_on_c, 14, 59, 52
21, 313919, Note_on_c, 14, 59, 0
21, 313920, Note_on_c, 14, 60, 52
21, 314399, Note_on_c, 14, 60, 0
21, 314400, Note_on_c, 14, 62, 52
21, 314624, Note_on_c, 14, 62, 0
21, 314638, Control_c, 14, 11, 80
21, 314640, Note_on_c, 14, 59, 76
21, 314693, Control_c, 14, 11, 85
21, 314719, Note_on_c, 14, 59, 0
21, 314720, Note_on_c, 14, 60, 76
21, 314747, Control_c, 14, 11, 90
21, 314799, Note_on_c, 14, 60, 0
21, 314800, Note_on_c, 14, 62, 76
21, 314800, Control_c, 14, 11, 96
21, 314853, Control_c, 14, 11, 101
21, 314867, Note_on_c, 14, 62, 0
21, 314880, Note_on_c, 14, 55, 76
21, 314907, Control_c, 14, 11, 106
21, 314960, Control_c, 14, 11, 111
21, 315013, Control_c, 14, 11, 117
21, 315067, Control_c, 14, 11, 127
21, 315104, Note_on_c, 14, 55, 0
21, 315120, Note_on_c, 14, 53, 76
21, 315187, Note_on_c, 14, 53, 0
21, 315200, Note_on_c, 14, 52, 76
21, 315267, Note_on_c, 14, 52, 0
21, 315280, Note_on_c, 14, 50, 76
21, 315347, Note_on_c, 14, 50, 0
21, 315360, Note_on_c, 14, 48, 76
21, 315599, Note_on_c, 14, 48, 0
21, 315840, Note_on_c, 14, 48, 76
21, 316079, Note_on_c, 14, 48, 0
21, 316320, Note_on_c, 14, 48, 76
21, 316544, Note_on_c, 14, 48, 0
21, 316560, Note_on_c, 14, 43, 76
21, 316627, Note_on_c, 14, 43, 0
21, 316640, Note_on_c, 14, 45, 76
21, 316707, Note_on_c, 14, 45, 0
21, 316720, Note_on_c, 14, 47, 76
21, 316787, Note_on_c, 14, 47, 0
21, 316800, Note_on_c, 14, 48, 76
21, 317024, Note_on_c, 14, 48, 0
21, 317040, Note_on_c, 14, 60, 52
21, 317279, Note_on_c, 14, 60, 0
21, 317280, Note_on_c, 14, 59, 52
21, 317759, Note_on_c, 14, 59, 0
21, 317760, Note_on_c, 14, 60, 52
21, 318239, Note_on_c, 14, 60, 0
21, 318240, Note_on_c, 14, 62, 52
21, 318464, Note_on_c, 14, 62, 0
21, 318480, Note_on_c, 14, 43, 76
21, 318547, Note_on_c, 14, 43, 0
21, 318560, Note_on_c, 14, 45, 76
21, 318627, Note_on_c, 14, 45, 0
21, 318640, Note_on_c, 14, 47, 76
21, 318707, Note_on_c, 14, 47, 0
21, 318720, Note_on_c, 14, 48, 76
21, 318944, Note_on_c, 14, 48, 0
21, 318960, Note_on_c, 14, 62, 52
21, 319199, Note_on_c, 14, 62, 0
21, 319200, Note_on_c, 14, 61, 52
21, 319679, Note_on_c, 14, 61, 0
21, 319680, Note_on_c, 14, 62, 52
21, 320159, Note_on_c, 14, 62, 0
21, 320160, Note_on_c, 14, 64, 52
21, 320384, Note_on_c, 14, 64, 0
21, 320400, Note_on_c, 14, 45, 76
21, 320467, Note_on_c, 14, 45, 0
21, 320480, Note_on_c, 14, 47, 76
21, 320547, Note_on_c, 14, 47, 0
21, 320560, Note_on_c, 14, 49, 76
21, 320627, Note_on_c, 14, 49, 0
21, 320640, Note_on_c, 14, 50, 76
21, 320864, Note_on_c, 14, 50, 0
21, 320880, Note_on_c, 14, 53, 44
21, 321119, Note_on_c, 14, 53, 0
21, 321120, Note_on_c, 14, 52, 44
21, 321599, Note_on_c, 14, 52, 0
21, 321600, Note_on_c, 14, 53, 44
21, 322064, Note_on_c, 14, 53, 0
21, 322080, Note_on_c, 14, 48, 44
21, 322184, Note_on_c, 14, 48, 0
21, 322200, Note_on_c, 14, 60, 44
21, 322304, Note_on_c, 14, 60, 0
21, 322320, Note_on_c, 14, 60, 46
21, 322424, Note_on_c, 14, 60, 0
21, 322440, Note_on_c, 14, 60, 49
21, 322544, Note_on_c, 14, 60, 0
21, 322560, Note_on_c, 14, 60, 52
21, 322664, Note_on_c, 14, 60, 0
21, 322680, Note_on_c, 14, 60, 54
21, 322784, Note_on_c, 14, 60, 0
21, 322800, Note_on_c, 14, 60, 57
21, 322904, Note_on_c, 14, 60, 0
21, 322920, Note_on_c, 14, 60, 60
21, 323024, Note_on_c, 14, 60, 0
21, 323040, Note_on_c, 14, 60, 62
21, 323144, Note_on_c, 14, 60, 0
21, 323160, Note_on_c, 14, 60, 65
21, 323264, Note_on_c, 14, 60, 0
21, 323280, Note_on_c, 14, 60, 68
21, 323384, Note_on_c, 14, 60, 0
21, 323400, Note_on_c, 14, 60, 70
21, 323504, Note_on_c, 14, 60, 0
21, 323520, Note_on_c, 14, 60, 73
21, 323624, Note_on_c, 14, 60, 0
21, 323640, Note_on_c, 14, 60, 76
21, 323744, Note_on_c, 14, 60, 0
21, 323760, Note_on_c, 14, 60, 78
21, 323864, Note_on_c, 14, 60, 0
21, 323880, Note_on_c, 14, 60, 81
21, 323984, Note_on_c, 14, 60, 0
21, 324000, Note_on_c, 14, 53, 84
21, 324479, Note_on_c, 14, 53, 0
21, 324480, Note_on_c, 14, 53, 84
21, 324584, Note_on_c, 14, 53, 0
21, 324600, Note_on_c, 14, 53, 84
21, 324704, Note_on_c, 14, 53, 0
21, 324720, Note_on_c, 14, 53, 84
21, 324824, Note_on_c, 14, 53, 0
21, 324840, Note_on_c, 14, 53, 84
21, 324944, Note_on_c, 14, 53, 0
21, 324960, Note_on_c, 14, 53, 84
21, 325064, Note_on_c, 14, 53, 0
21, 325080, Note_on_c, 14, 53, 84
21, 325184, Note_on_c, 14, 53, 0
21, 325200, Note_on_c, 14, 53, 84
21, 325304, Note_on_c, 14, 53, 0
21, 325320, Note_on_c, 14, 53, 84
21, 325424, Note_on_c, 14, 53, 0
21, 325440, Note_on_c, 14, 53, 84
21, 325544, Note_on_c, 14, 53, 0
21, 325560, Note_on_c, 14, 53, 84
21, 325664, Note_on_c, 14, 53, 0
21, 325680, Note_on_c, 14, 53, 84
21, 325784, Note_on_c, 14, 53, 0
21, 325800, Note_on_c, 14, 53, 84
21, 325904, Note_on_c, 14, 53, 0
21, 325920, Note_on_c, 14, 53, 84
21, 326024, Note_on_c, 14, 53, 0
21, 326040, Note_on_c, 14, 53, 84
21, 326144, Note_on_c, 14, 53, 0
21, 326160, Note_on_c, 14, 54, 84
21, 326264, Note_on_c, 14, 54, 0
21, 326280, Note_on_c, 14, 54, 84
21, 326384, Note_on_c, 14, 54, 0
21, 326400, Note_on_c, 14, 55, 84
21, 326504, Note_on_c, 14, 55, 0
21, 326520, Note_on_c, 14, 55, 84
21, 326624, Note_on_c, 14, 55, 0
21, 326640, Note_on_c, 14, 56, 84
21, 326744, Note_on_c, 14, 56, 0
21, 326760, Note_on_c, 14, 56, 84
21, 326864, Note_on_c, 14, 56, 0
21, 326880, Note_on_c, 14, 57, 84
21, 326984, Note_on_c, 14, 57, 0
21, 327000, Note_on_c, 14, 57, 84
21, 327104, Note_on_c, 14, 57, 0
21, 327120, Note_on_c, 14, 59, 84
21, 327224, Note_on_c, 14, 59, 0
21, 327240, Note_on_c, 14, 59, 84
21, 327344, Note_on_c, 14, 59, 0
21, 327360, Note_on_c, 14, 60, 84
21, 327464, Note_on_c, 14, 60, 0
21, 327480, Note_on_c, 14, 48, 84
21, 327584, Note_on_c, 14, 48, 0
21, 327600, Note_on_c, 14, 50, 84
21, 327704, Note_on_c, 14, 50, 0
21, 327720, Note_on_c, 14, 52, 84
21, 327824, Note_on_c, 14, 52, 0
21, 327840, Note_on_c, 14, 53, 84
21, 328019, Note_on_c, 14, 53, 0
21, 328800, Note_on_c, 14, 55, 84
21, 328979, Note_on_c, 14, 55, 0
21, 330720, Note_on_c, 14, 63, 52
21, 330959, Note_on_c, 14, 63, 0
21, 330960, Note_on_c, 14, 62, 52
21, 331184, Note_on_c, 14, 62, 0
21, 331200, Note_on_c, 14, 62, 52
21, 331424, Note_on_c, 14, 62, 0
21, 331440, Note_on_c, 14, 62, 52
21, 331679, Note_on_c, 14, 62, 0
21, 332640, Note_on_c, 14, 63, 52
21, 332879, Note_on_c, 14, 63, 0
21, 332880, Note_on_c, 14, 62, 52
21, 333104, Note_on_c, 14, 62, 0
21, 333120, Note_on_c, 14, 62, 52
21, 333344, Note_on_c, 14, 62, 0
21, 333360, Note_on_c, 14, 62, 52
21, 333599, Note_on_c, 14, 62, 0
21, 337440, Note_on_c, 14, 52, 76
21, 338144, Note_on_c, 14, 52, 0
21, 338160, Note_on_c, 14, 50, 76
21, 338384, Note_on_c, 14, 50, 0
21, 338400, Note_on_c, 14, 48, 76
21, 338624, Note_on_c, 14, 48, 0
21, 338640, Note_on_c, 14, 47, 76
21, 338864, Note_on_c, 14, 47, 0
21, 338880, Note_on_c, 14, 47, 76
21, 339104, Note_on_c, 14, 47, 0
21, 339120, Note_on_c, 14, 47, 76
21, 339344, Note_on_c, 14, 47, 0
21, 339360, Note_on_c, 14, 52, 84
21, 339419, Note_on_c, 14, 52, 0
21, 339420, Note_on_c, 14, 52, 76
21, 340064, Note_on_c, 14, 52, 0
21, 340080, Note_on_c, 14, 50, 76
21, 340304, Note_on_c, 14, 50, 0
21, 340320, Note_on_c, 14, 48, 76
21, 340544, Note_on_c, 14, 48, 0
21, 340560, Note_on_c, 14, 47, 76
21, 340784, Note_on_c, 14, 47, 0
21, 340800, Note_on_c, 14, 47, 76
21, 341024, Note_on_c, 14, 47, 0
21, 341040, Note_on_c, 14, 47, 76
21, 341264, Note_on_c, 14, 47, 0
21, 341280, Note_on_c, 14, 47, 84
21, 341339, Note_on_c, 14, 47, 0
21, 341340, Note_on_c, 14, 47, 76
21, 341984, Note_on_c, 14, 47, 0
21, 342000, Note_on_c, 14, 48, 76
21, 342224, Note_on_c, 14, 48, 0
21, 342240, Note_on_c, 14, 41, 76
21, 342464, Note_on_c, 14, 41, 0
21, 342480, Note_on_c, 14, 40, 80
21, 342704, Note_on_c, 14, 40, 0
21, 342720, Note_on_c, 14, 40, 80
21, 342944, Note_on_c, 14, 40, 0
21, 342960, Note_on_c, 14, 40, 80
21, 343184, Note_on_c, 14, 40, 0
21, 343200, Note_on_c, 14, 40, 80
21, 343424, Note_on_c, 14, 40, 0
21, 343440, Note_on_c, 14, 40, 80
21, 343664, Note_on_c, 14, 40, 0
21, 343680, Note_on_c, 14, 40, 80
21, 343904, Note_on_c, 14, 40, 0
21, 343920, Note_on_c, 14, 40, 80
21, 344144, Note_on_c, 14, 40, 0
21, 344160, Note_on_c, 14, 40, 80
21, 344384, Note_on_c, 14, 40, 0
21, 344400, Note_on_c, 14, 40, 80
21, 344624, Note_on_c, 14, 40, 0
21, 344640, Note_on_c, 14, 40, 80
21, 344864, Note_on_c, 14, 40, 0
21, 344880, Note_on_c, 14, 40, 80
21, 345104, Note_on_c, 14, 40, 0
21, 345120, Note_on_c, 14, 41, 84
21, 346079, Note_on_c, 14, 41, 0
21, 346080, Note_on_c, 14, 41, 84
21, 347039, Note_on_c, 14, 41, 0
21, 347040, Note_on_c, 14, 41, 84
21, 347984, Note_on_c, 14, 41, 0
21, 348000, Note_on_c, 14, 42, 84
21, 348959, Note_on_c, 14, 42, 0
21, 348960, Note_on_c, 14, 42, 84
21, 349904, Note_on_c, 14, 42, 0
21, 349920, Note_on_c, 14, 43, 92
21, 349979, Note_on_c, 14, 43, 0
21, 349980, Note_on_c, 14, 43, 84
21, 350624, Note_on_c, 14, 43, 0
21, 350640, Note_on_c, 14, 48, 84
21, 350864, Note_on_c, 14, 48, 0
21, 350880, Note_on_c, 14, 47, 76
21, 351344, Note_on_c, 14, 47, 0
21, 351360, Note_on_c, 14, 48, 76
21, 351824, Note_on_c, 14, 48, 0
21, 351840, Note_on_c, 14, 50, 84
21, 351899, Note_on_c, 14, 50, 0
21, 351900, Note_on_c, 14, 50, 76
21, 352544, Note_on_c, 14, 50, 0
21, 352560, Note_on_c, 14, 50, 76
21, 352784, Note_on_c, 14, 50, 0
21, 352800, Note_on_c, 14, 48, 76
21, 353264, Note_on_c, 14, 48, 0
21, 353280, Note_on_c, 14, 50, 76
21, 353744, Note_on_c, 14, 50, 0
21, 353760, Note_on_c, 14, 52, 84
21, 353819, Note_on_c, 14, 52, 0
21, 353820, Note_on_c, 14, 52, 76
21, 354464, Note_on_c, 14, 52, 0
21, 354480, Note_on_c, 14, 55, 76
21, 354559, Note_on_c, 14, 55, 0
21, 354560, Note_on_c, 14, 53, 76
21, 354639, Note_on_c, 14, 53, 0
21, 354640, Note_on_c, 14, 52, 76
21, 354719, Note_on_c, 14, 52, 0
21, 354720, Note_on_c, 14, 50, 76
21, 354959, Note_on_c, 14, 50, 0
21, 354960, Note_on_c, 14, 53, 76
21, 355039, Note_on_c, 14, 53, 0
21, 355040, Note_on_c, 14, 52, 76
21, 355119, Note_on_c, 14, 52, 0
21, 355120, Note_on_c, 14, 50, 76
21, 355199, Note_on_c, 14, 50, 0
21, 355200, Note_on_c, 14, 48, 76
21, 355439, Note_on_c, 14, 48, 0
21, 355440, Note_on_c, 14, 52, 76
21, 355519, Note_on_c, 14, 52, 0
21, 355520, Note_on_c, 14, 50, 76
21, 355599, Note_on_c, 14, 50, 0
21, 355600, Note_on_c, 14, 48, 76
21, 355667, Note_on_c, 14, 48, 0
21, 355680, Note_on_c, 14, 47, 76
21, 355859, Note_on_c, 14, 47, 0
21, 355920, Note_on_c, 14, 47, 76
21, 355999, Note_on_c, 14, 47, 0
21, 356000, Note_on_c, 14, 48, 76
21, 356079, Note_on_c, 14, 48, 0
21, 356080, Note_on_c, 14, 50, 76
21, 356147, Note_on_c, 14, 50, 0
21, 356160, Note_on_c, 14, 43, 76
21, 356339, Note_on_c, 14, 43, 0
21, 356400, Note_on_c, 14, 57, 76
21, 356479, Note_on_c, 14, 57, 0
21, 356480, Note_on_c, 14, 55, 76
21, 356559, Note_on_c, 14, 55, 0
21, 356560, Note_on_c, 14, 53, 76
21, 356639, Note_on_c, 14, 53, 0
21, 356640, Note_on_c, 14, 52, 76
21, 356879, Note_on_c, 14, 52, 0
21, 356880, Note_on_c, 14, 55, 76
21, 356959, Note_on_c, 14, 55, 0
21, 356960, Note_on_c, 14, 53, 76
21, 357039, Note_on_c, 14, 53, 0
21, 357040, Note_on_c, 14, 52, 76
21, 357119, Note_on_c, 14, 52, 0
21, 357120, Note_on_c, 14, 50, 76
21, 357359, Note_on_c, 14, 50, 0
21, 357360, Note_on_c, 14, 53, 76
21, 357439, Note_on_c, 14, 53, 0
21, 357440, Note_on_c, 14, 52, 76
21, 357519, Note_on_c, 14, 52, 0
21, 357520, Note_on_c, 14, 50, 76
21, 357587, Note_on_c, 14, 50, 0
21, 357600, Note_on_c, 14, 48, 76
21, 357779, Note_on_c, 14, 48, 0
21, 357840, Note_on_c, 14, 48, 76
21, 357919, Note_on_c, 14, 48, 0
21, 357920, Note_on_c, 14, 50, 76
21, 357999, Note_on_c, 14, 50, 0
21, 358000, Note_on_c, 14, 52, 76
21, 358067, Note_on_c, 14, 52, 0
21, 358080, Note_on_c, 14, 43, 76
21, 358259, Note_on_c, 14, 43, 0
21, 358320, Note_on_c, 14, 48, 80
21, 358387, Note_on_c, 14, 48, 0
21, 358400, Note_on_c, 14, 60, 80
21, 358467, Note_on_c, 14, 60, 0
21, 358480, Note_on_c, 14, 60, 80
21, 358547, Note_on_c, 14, 60, 0
21, 358560, Note_on_c, 14, 43, 80
21, 358627, Note_on_c, 14, 43, 0
21, 358640, Note_on_c, 14, 55, 80
21, 358707, Note_on_c, 14, 55, 0
21, 358720, Note_on_c, 14, 55, 80
21, 358787, Note_on_c, 14, 55, 0
21, 358800, Note_on_c, 14, 55, 80
21, 358867, Note_on_c, 14, 55, 0
21, 358880, Note_on_c, 14, 55, 80
21, 358947, Note_on_c, 14, 55, 0
21, 358960, Note_on_c, 14, 55, 80
21, 359027, Note_on_c, 14, 55, 0
21, 359040, Note_on_c, 14, 48, 80
21, 359107, Note_on_c, 14, 48, 0
21, 359120, Note_on_c, 14, 60, 80
21, 359187, Note_on_c, 14, 60, 0
21, 359200, Note_on_c, 14, 60, 80
21, 359267, Note_on_c, 14, 60, 0
21, 359280, Note_on_c, 14, 60, 80
21, 359347, Note_on_c, 14, 60, 0
21, 359360, Note_on_c, 14, 60, 80
21, 359427, Note_on_c, 14, 60, 0
21, 359440, Note_on_c, 14, 60, 80
21, 359507, Note_on_c, 14, 60, 0
21, 359520, Note_on_c, 14, 50, 80
21, 359587, Note_on_c, 14, 50, 0
21, 359600, Note_on_c, 14, 62, 80
21, 359667, Note_on_c, 14, 62, 0
21, 359680, Note_on_c, 14, 62, 80
21, 359747, Note_on_c, 14, 62, 0
21, 359760, Note_on_c, 14, 62, 80
21, 359827, Note_on_c, 14, 62, 0
21, 359840, Note_on_c, 14, 62, 80
21, 359907, Note_on_c, 14, 62, 0
21, 359920, Note_on_c, 14, 62, 80
21, 359987, Note_on_c, 14, 62, 0
21, 360000, Note_on_c, 14, 62, 80
21, 360067, Note_on_c, 14, 62, 0
21, 360080, Note_on_c, 14, 62, 80
21, 360147, Note_on_c, 14, 62, 0
21, 360160, Note_on_c, 14, 62, 80
21, 360227, Note_on_c, 14, 62, 0
21, 360240, Note_on_c, 14, 62, 80
21, 360307, Note_on_c, 14, 62, 0
21, 360320, Note_on_c, 14, 62, 80
21, 360387, Note_on_c, 14, 62, 0
21, 360400, Note_on_c, 14, 62, 80
21, 360467, Note_on_c, 14, 62, 0
21, 360480, Note_on_c, 14, 49, 80
21, 360547, Note_on_c, 14, 49, 0
21, 360560, Note_on_c, 14, 61, 80
21, 360627, Note_on_c, 14, 61, 0
21, 360640, Note_on_c, 14, 61, 80
21, 360707, Note_on_c, 14, 61, 0
21, 360720, Note_on_c, 14, 61, 80
21, 360787, Note_on_c, 14, 61, 0
21, 360800, Note_on_c, 14, 61, 80
21, 360867, Note_on_c, 14, 61, 0
21, 360880, Note_on_c, 14, 61, 80
21, 360947, Note_on_c, 14, 61, 0
21, 360960, Note_on_c, 14, 50, 80
21, 361027, Note_on_c, 14, 50, 0
21, 361040, Note_on_c, 14, 62, 80
21, 361107, Note_on_c, 14, 62, 0
21, 361120, Note_on_c, 14, 62, 80
21, 361187, Note_on_c, 14, 62, 0
21, 361200, Note_on_c, 14, 62, 80
21, 361267, Note_on_c, 14, 62, 0
21, 361280, Note_on_c, 14, 62, 80
21, 361347, Note_on_c, 14, 62, 0
21, 361360, Note_on_c, 14, 62, 80
21, 361427, Note_on_c, 14, 62, 0
21, 361440, Note_on_c, 14, 52, 84
21, 361507, Note_on_c, 14, 52, 0
21, 361520, Note_on_c, 14, 64, 84
21, 361587, Note_on_c, 14, 64, 0
21, 361600, Note_on_c, 14, 64, 84
21, 361667, Note_on_c, 14, 64, 0
21, 361680, Note_on_c, 14, 64, 84
21, 361747, Note_on_c, 14, 64, 0
21, 361760, Note_on_c, 14, 64, 84
21, 361827, Note_on_c, 14, 64, 0
21, 361840, Note_on_c, 14, 64, 84
21, 361907, Note_on_c, 14, 64, 0
21, 361920, Note_on_c, 14, 52, 84
21, 361987, Note_on_c, 14, 52, 0
21, 362000, Note_on_c, 14, 64, 84
21, 362067, Note_on_c, 14, 64, 0
21, 362080, Note_on_c, 14, 64, 84
21, 362147, Note_on_c, 14, 64, 0
21, 362160, Note_on_c, 14, 64, 84
21, 362227, Note_on_c, 14, 64, 0
21, 362240, Note_on_c, 14, 64, 84
21, 362307, Note_on_c, 14, 64, 0
21, 362320, Note_on_c, 14, 64, 84
21, 362387, Note_on_c, 14, 64, 0
21, 362400, Note_on_c, 14, 52, 84
21, 362467, Note_on_c, 14, 52, 0
21, 362480, Note_on_c, 14, 64, 84
21, 362547, Note_on_c, 14, 64, 0
21, 362560, Note_on_c, 14, 64, 84
21, 362627, Note_on_c, 14, 64, 0
21, 362640, Note_on_c, 14, 64, 84
21, 362707, Note_on_c, 14, 64, 0
21, 362720, Note_on_c, 14, 64, 84
21, 362787, Note_on_c, 14, 64, 0
21, 362800, Note_on_c, 14, 64, 84
21, 362867, Note_on_c, 14, 64, 0
21, 362880, Note_on_c, 14, 52, 84
21, 362947, Note_on_c, 14, 52, 0
21, 362960, Note_on_c, 14, 64, 84
21, 363027, Note_on_c, 14, 64, 0
21, 363040, Note_on_c, 14, 64, 84
21, 363107, Note_on_c, 14, 64, 0
21, 363120, Note_on_c, 14, 64, 84
21, 363187, Note_on_c, 14, 64, 0
21, 363200, Note_on_c, 14, 64, 84
21, 363267, Note_on_c, 14, 64, 0
21, 363280, Note_on_c, 14, 64, 84
21, 363347, Note_on_c, 14, 64, 0
21, 363360, Note_on_c, 14, 53, 84
21, 363464, Note_on_c, 14, 53, 0
21, 363480, Note_on_c, 14, 41, 84
21, 363584, Note_on_c, 14, 41, 0
21, 363600, Note_on_c, 14, 41, 84
21, 363704, Note_on_c, 14, 41, 0
21, 363720, Note_on_c, 14, 41, 84
21, 363824, Note_on_c, 14, 41, 0
21, 363840, Note_on_c, 14, 41, 84
21, 363944, Note_on_c, 14, 41, 0
21, 363960, Note_on_c, 14, 41, 84
21, 364064, Note_on_c, 14, 41, 0
21, 364080, Note_on_c, 14, 41, 84
21, 364184, Note_on_c, 14, 41, 0
21, 364200, Note_on_c, 14, 41, 84
21, 364304, Note_on_c, 14, 41, 0
21, 364320, Note_on_c, 14, 41, 84
21, 364424, Note_on_c, 14, 41, 0
21, 364440, Note_on_c, 14, 41, 84
21, 364544, Note_on_c, 14, 41, 0
21, 364560, Note_on_c, 14, 41, 84
21, 364664, Note_on_c, 14, 41, 0
21, 364680, Note_on_c, 14, 41, 84
21, 364784, Note_on_c, 14, 41, 0
21, 364800, Note_on_c, 14, 41, 84
21, 364904, Note_on_c, 14, 41, 0
21, 364920, Note_on_c, 14, 41, 84
21, 365024, Note_on_c, 14, 41, 0
21, 365040, Note_on_c, 14, 41, 84
21, 365144, Note_on_c, 14, 41, 0
21, 365160, Note_on_c, 14, 41, 84
21, 365264, Note_on_c, 14, 41, 0
21, 365280, Note_on_c, 14, 41, 84
21, 365384, Note_on_c, 14, 41, 0
21, 365400, Note_on_c, 14, 41, 84
21, 365504, Note_on_c, 14, 41, 0
21, 365520, Note_on_c, 14, 41, 84
21, 365624, Note_on_c, 14, 41, 0
21, 365640, Note_on_c, 14, 41, 84
21, 365744, Note_on_c, 14, 41, 0
21, 365760, Note_on_c, 14, 41, 84
21, 365864, Note_on_c, 14, 41, 0
21, 365880, Note_on_c, 14, 41, 84
21, 365984, Note_on_c, 14, 41, 0
21, 366000, Note_on_c, 14, 41, 84
21, 366104, Note_on_c, 14, 41, 0
21, 366120, Note_on_c, 14, 41, 84
21, 366224, Note_on_c, 14, 41, 0
21, 366240, Note_on_c, 14, 41, 84
21, 366344, Note_on_c, 14, 41, 0
21, 366360, Note_on_c, 14, 41, 84
21, 366464, Note_on_c, 14, 41, 0
21, 366480, Note_on_c, 14, 41, 84
21, 366584, Note_on_c, 14, 41, 0
21, 366600, Note_on_c, 14, 41, 84
21, 366704, Note_on_c, 14, 41, 0
21, 366720, Note_on_c, 14, 41, 84
21, 366824, Note_on_c, 14, 41, 0
21, 366840, Note_on_c, 14, 41, 84
21, 366944, Note_on_c, 14, 41, 0
21, 366960, Note_on_c, 14, 41, 84
21, 367064, Note_on_c, 14, 41, 0
21, 367080, Note_on_c, 14, 41, 84
21, 367184, Note_on_c, 14, 41, 0
21, 367200, Note_on_c, 14, 43, 84
21, 367379, Note_on_c, 14, 43, 0
21, 368160, Note_on_c, 14, 43, 84
21, 368339, Note_on_c, 14, 43, 0
21, 369120, Note_on_c, 14, 48, 84
21, 369299, Note_on_c, 14, 48, 0
21, 370080, Note_on_c, 14, 43, 84
21, 370259, Note_on_c, 14, 43, 0
21, 371040, Note_on_c, 14, 48, 84
21, 371219, Note_on_c, 14, 48, 0
21, 372000, Note_on_c, 14, 43, 84
21, 372179, Note_on_c, 14, 43, 0
21, 378720, Note_on_c, 14, 53, 52
21, 378839, Note_on_c, 14, 53, 0
21, 378840, Note_on_c, 14, 55, 53
21, 378959, Note_on_c, 14, 55, 0
21, 378960, Note_on_c, 14, 53, 54
21, 379079, Note_on_c, 14, 53, 0
21, 379080, Note_on_c, 14, 55, 55
21, 379199, Note_on_c, 14, 55, 0
21, 379200, Note_on_c, 14, 53, 56
21, 379319, Note_on_c, 14, 53, 0
21, 379320, Note_on_c, 14, 55, 57
21, 379439, Note_on_c, 14, 55, 0
21, 379440, Note_on_c, 14, 53, 58
21, 379559, Note_on_c, 14, 53, 0
21, 379560, Note_on_c, 14, 55, 59
21, 379664, Note_on_c, 14, 55, 0
21, 379680, Note_on_c, 14, 52, 60
21, 379799, Note_on_c, 14, 52, 0
21, 379800, Note_on_c, 14, 55, 61
21, 379919, Note_on_c, 14, 55, 0
21, 379920, Note_on_c, 14, 52, 62
21, 380039, Note_on_c, 14, 52, 0
21, 380040, Note_on_c, 14, 55, 63
21, 380159, Note_on_c, 14, 55, 0
21, 380160, Note_on_c, 14, 52, 64
21, 380279, Note_on_c, 14, 52, 0
21, 380280, Note_on_c, 14, 55, 65
21, 380399, Note_on_c, 14, 55, 0
21, 380400, Note_on_c, 14, 52, 66
21, 380519, Note_on_c, 14, 52, 0
21, 380520, Note_on_c, 14, 55, 67
21, 380624, Note_on_c, 14, 55, 0
21, 380640, Note_on_c, 14, 53, 68
21, 380759, Note_on_c, 14, 53, 0
21, 380760, Note_on_c, 14, 55, 69
21, 380879, Note_on_c, 14, 55, 0
21, 380880, Note_on_c, 14, 53, 70
21, 380999, Note_on_c, 14, 53, 0
21, 381000, Note_on_c, 14, 55, 71
21, 381119, Note_on_c, 14, 55, 0
21, 381120, Note_on_c, 14, 53, 72
21, 381239, Note_on_c, 14, 53, 0
21, 381240, Note_on_c, 14, 55, 73
21, 381359, Note_on_c, 14, 55, 0
21, 381360, Note_on_c, 14, 53, 74
21, 381479, Note_on_c, 14, 53, 0
21, 381480, Note_on_c, 14, 55, 75
21, 381584, Note_on_c, 14, 55, 0
21, 381600, Note_on_c, 14, 40, 76
21, 381824, Note_on_c, 14, 40, 0
21, 381840, Note_on_c, 14, 50, 76
21, 382079, Note_on_c, 14, 50, 0
21, 382080, Note_on_c, 14, 48, 76
21, 382319, Note_on_c, 14, 48, 0
21, 382320, Note_on_c, 14, 47, 76
21, 382559, Note_on_c, 14, 47, 0
21, 382560, Note_on_c, 14, 45, 76
21, 382799, Note_on_c, 14, 45, 0
21, 382800, Note_on_c, 14, 43, 76
21, 383039, Note_on_c, 14, 43, 0
21, 383040, Note_on_c, 14, 41, 76
21, 383279, Note_on_c, 14, 41, 0
21, 383280, Note_on_c, 14, 40, 76
21, 383504, Note_on_c, 14, 40, 0
21, 383520, Note_on_c, 14, 41, 76
21, 384224, Note_on_c, 14, 41, 0
21, 384240, Note_on_c, 14, 43, 76
21, 384419, Note_on_c, 14, 43, 0
21, 384480, Note_on_c, 14, 45, 76
21, 385184, Note_on_c, 14, 45, 0
21, 385200, Note_on_c, 14, 43, 76
21, 385379, Note_on_c, 14, 43, 0
21, 385440, Note_on_c, 14, 42, 76
21, 386144, Note_on_c, 14, 42, 0
21, 386160, Note_on_c, 14, 43, 76
21, 386339, Note_on_c, 14, 43, 0
21, 386400, Note_on_c, 14, 44, 76
21, 387104, Note_on_c, 14, 44, 0
21, 387120, Note_on_c, 14, 45, 76
21, 387299, Note_on_c, 14, 45, 0
21, 387360, Note_on_c, 14, 47, 76
21, 387599, Note_on_c, 14, 47, 0
21, 387840, Note_on_c, 14, 48, 52
21, 388079, Note_on_c, 14, 48, 0
21, 388320, Note_on_c, 14, 41, 52
21, 388559, Note_on_c, 14, 41, 0
21, 388800, Note_on_c, 14, 43, 52
21, 389024, Note_on_c, 14, 43, 0
21, 389040, Note_on_c, 14, 43, 76
21, 389279, Note_on_c, 14, 43, 0
21, 389280, Note_on_c, 14, 48, 76
21, 389519, Note_on_c, 14, 48, 0
21, 389520, Note_on_c, 14, 43, 76
21, 389759, Note_on_c, 14, 43, 0
21, 389760, Note_on_c, 14, 52, 76
21, 389999, Note_on_c, 14, 52, 0
21, 390000, Note_on_c, 14, 50, 76
21, 390179, Note_on_c, 14, 50, 0
21, 390180, Note_on_c, 14, 48, 76
21, 390231, Note_on_c, 14, 48, 0
21, 390240, Note_on_c, 14, 55, 76
21, 390959, Note_on_c, 14, 55, 0
21, 393120, Note_on_c, 14, 53, 52
21, 393239, Note_on_c, 14, 53, 0
21, 393240, Note_on_c, 14, 55, 52
21, 393359, Note_on_c, 14, 55, 0
21, 393360, Note_on_c, 14, 53, 53
21, 393479, Note_on_c, 14, 53, 0
21, 393480, Note_on_c, 14, 55, 53
21, 393599, Note_on_c, 14, 55, 0
21, 393600, Note_on_c, 14, 53, 54
21, 393719, Note_on_c, 14, 53, 0
21, 393720, Note_on_c, 14, 55, 55
21, 393839, Note_on_c, 14, 55, 0
21, 393840, Note_on_c, 14, 53, 55
21, 393959, Note_on_c, 14, 53, 0
21, 393960, Note_on_c, 14, 55, 56
21, 394064, Note_on_c, 14, 55, 0
21, 394080, Note_on_c, 14, 52, 56
21, 394199, Note_on_c, 14, 52, 0
21, 394200, Note_on_c, 14, 55, 57
21, 394319, Note_on_c, 14, 55, 0
21, 394320, Note_on_c, 14, 52, 58
21, 394439, Note_on_c, 14, 52, 0
21, 394440, Note_on_c, 14, 55, 58
21, 394559, Note_on_c, 14, 55, 0
21, 394560, Note_on_c, 14, 52, 59
21, 394679, Note_on_c, 14, 52, 0
21, 394680, Note_on_c, 14, 55, 59
21, 394799, Note_on_c, 14, 55, 0
21, 394800, Note_on_c, 14, 52, 60
21, 394919, Note_on_c, 14, 52, 0
21, 394920, Note_on_c, 14, 55, 61
21, 395024, Note_on_c, 14, 55, 0
21, 395040, Note_on_c, 14, 53, 61
21, 395159, Note_on_c, 14, 53, 0
21, 395160, Note_on_c, 14, 55, 62
21, 395279, Note_on_c, 14, 55, 0
21, 395280, Note_on_c, 14, 53, 62
21, 395399, Note_on_c, 14, 53, 0
21, 395400, Note_on_c, 14, 55, 63
21, 395519, Note_on_c, 14, 55, 0
21, 395520, Note_on_c, 14, 53, 64
21, 395639, Note_on_c, 14, 53, 0
21, 395640, Note_on_c, 14, 55, 64
21, 395759, Note_on_c, 14, 55, 0
21, 395760, Note_on_c, 14, 53, 65
21, 395879, Note_on_c, 14, 53, 0
21, 395880, Note_on_c, 14, 55, 65
21, 395984, Note_on_c, 14, 55, 0
21, 396000, Note_on_c, 14, 52, 66
21, 396119, Note_on_c, 14, 52, 0
21, 396120, Note_on_c, 14, 55, 67
21, 396239, Note_on_c, 14, 55, 0
21, 396240, Note_on_c, 14, 52, 67
21, 396359, Note_on_c, 14, 52, 0
21, 396360, Note_on_c, 14, 55, 68
21, 396479, Note_on_c, 14, 55, 0
21, 396480, Note_on_c, 14, 52, 68
21, 396599, Note_on_c, 14, 52, 0
21, 396600, Note_on_c, 14, 55, 69
21, 396719, Note_on_c, 14, 55, 0
21, 396720, Note_on_c, 14, 52, 70
21, 396839, Note_on_c, 14, 52, 0
21, 396840, Note_on_c, 14, 55, 70
21, 396944, Note_on_c, 14, 55, 0
21, 396960, Note_on_c, 14, 53, 71
21, 397079, Note_on_c, 14, 53, 0
21, 397080, Note_on_c, 14, 55, 71
21, 397199, Note_on_c, 14, 55, 0
21, 397200, Note_on_c, 14, 53, 72
21, 397319, Note_on_c, 14, 53, 0
21, 397320, Note_on_c, 14, 55, 73
21, 397439, Note_on_c, 14, 55, 0
21, 397440, Note_on_c, 14, 53, 73
21, 397559, Note_on_c, 14, 53, 0
21, 397560, Note_on_c, 14, 55, 74
21, 397679, Note_on_c, 14, 55, 0
21, 397680, Note_on_c, 14, 53, 74
21, 397799, Note_on_c, 14, 53, 0
21, 397800, Note_on_c, 14, 55, 75
21, 397904, Note_on_c, 14, 55, 0
21, 397920, Note_on_c, 14, 40, 76
21, 398144, Note_on_c, 14, 40, 0
21, 398160, Note_on_c, 14, 50, 76
21, 398399, Note_on_c, 14, 50, 0
21, 398400, Note_on_c, 14, 48, 76
21, 398639, Note_on_c, 14, 48, 0
21, 398640, Note_on_c, 14, 47, 76
21, 398879, Note_on_c, 14, 47, 0
21, 398880, Note_on_c, 14, 45, 76
21, 399119, Note_on_c, 14, 45, 0
21, 399120, Note_on_c, 14, 43, 76
21, 399359, Note_on_c, 14, 43, 0
21, 399360, Note_on_c, 14, 41, 76
21, 399599, Note_on_c, 14, 41, 0
21, 399600, Note_on_c, 14, 40, 76
21, 399824, Note_on_c, 14, 40, 0
21, 399840, Note_on_c, 14, 41, 76
21, 400544, Note_on_c, 14, 41, 0
21, 400560, Note_on_c, 14, 43, 76
21, 400739, Note_on_c, 14, 43, 0
21, 400800, Note_on_c, 14, 45, 76
21, 401504, Note_on_c, 14, 45, 0
21, 401520, Note_on_c, 14, 43, 76
21, 401699, Note_on_c, 14, 43, 0
21, 401760, Note_on_c, 14, 42, 76
21, 402464, Note_on_c, 14, 42, 0
21, 402480, Note_on_c, 14, 43, 76
21, 402659, Note_on_c, 14, 43, 0
21, 402720, Note_on_c, 14, 44, 76
21, 403424, Note_on_c, 14, 44, 0
21, 403440, Note_on_c, 14, 45, 76
21, 403619, Note_on_c, 14, 45, 0
21, 403680, Note_on_c, 14, 46, 52
21, 403799, Note_on_c, 14, 46, 0
21, 403920, Note_on_c, 14, 58, 52
21, 404039, Note_on_c, 14, 58, 0
21, 404160, Note_on_c, 14, 56, 52
21, 404279, Note_on_c, 14, 56, 0
21, 404400, Note_on_c, 14, 56, 53
21, 404519, Note_on_c, 14, 56, 0
21, 404640, Note_on_c, 14, 55, 54
21, 404759, Note_on_c, 14, 55, 0
21, 404880, Note_on_c, 14, 55, 55
21, 404999, Note_on_c, 14, 55, 0
21, 405120, Note_on_c, 14, 55, 56
21, 405239, Note_on_c, 14, 55, 0
21, 405360, Note_on_c, 14, 58, 57
21, 405479, Note_on_c, 14, 58, 0
21, 405600, Note_on_c, 14, 58, 58
21, 405719, Note_on_c, 14, 58, 0
21, 405840, Note_on_c, 14, 58, 59
21, 405959, Note_on_c, 14, 58, 0
21, 406080, Note_on_c, 14, 56, 60
21, 406199, Note_on_c, 14, 56, 0
21, 406320, Note_on_c, 14, 56, 61
21, 406439, Note_on_c, 14, 56, 0
21, 406560, Note_on_c, 14, 55, 62
21, 406679, Note_on_c, 14, 55, 0
21, 406800, Note_on_c, 14, 55, 64
21, 406919, Note_on_c, 14, 55, 0
21, 407040, Note_on_c, 14, 55, 65
21, 407159, Note_on_c, 14, 55, 0
21, 407280, Note_on_c, 14, 58, 66
21, 407399, Note_on_c, 14, 58, 0
21, 407520, Note_on_c, 14, 58, 67
21, 407639, Note_on_c, 14, 58, 0
21, 407760, Note_on_c, 14, 58, 68
21, 407879, Note_on_c, 14, 58, 0
21, 408000, Note_on_c, 14, 56, 69
21, 408119, Note_on_c, 14, 56, 0
21, 408240, Note_on_c, 14, 56, 70
21, 408359, Note_on_c, 14, 56, 0
21, 408480, Note_on_c, 14, 55, 71
21, 408599, Note_on_c, 14, 55, 0
21, 408720, Note_on_c, 14, 55, 72
21, 408839, Note_on_c, 14, 55, 0
21, 408960, Note_on_c, 14, 55, 73
21, 409079, Note_on_c, 14, 55, 0
21, 409200, Note_on_c, 14, 43, 74
21, 409319, Note_on_c, 14, 43, 0
21, 409440, Note_on_c, 14, 48, 76
21, 409499, Note_on_c, 14, 48, 0
21, 409500, Note_on_c, 14, 48, 52
21, 409559, Note_on_c, 14, 48, 0
21, 410040, Note_on_c, 14, 43, 52
21, 410139, Note_on_c, 14, 43, 0
21, 410160, Note_on_c, 14, 43, 52
21, 410259, Note_on_c, 14, 43, 0
21, 410280, Note_on_c, 14, 43, 52
21, 410379, Note_on_c, 14, 43, 0
21, 410400, Note_on_c, 14, 48, 76
21, 410459, Note_on_c, 14, 48, 0
21, 410460, Note_on_c, 14, 48, 52
21, 410519, Note_on_c, 14, 48, 0
21, 411000, Note_on_c, 14, 43, 52
21, 411099, Note_on_c, 14, 43, 0
21, 411120, Note_on_c, 14, 43, 52
21, 411219, Note_on_c, 14, 43, 0
21, 411240, Note_on_c, 14, 43, 52
21, 411339, Note_on_c, 14, 43, 0
21, 411360, Note_on_c, 14, 48, 76
21, 411419, Note_on_c, 14, 48, 0
21, 411420, Note_on_c, 14, 48, 52
21, 411479, Note_on_c, 14, 48, 0
21, 411960, Note_on_c, 14, 43, 52
21, 412059, Note_on_c, 14, 43, 0
21, 412080, Note_on_c, 14, 43, 52
21, 412179, Note_on_c, 14, 43, 0
21, 412200, Note_on_c, 14, 43, 52
21, 412299, Note_on_c, 14, 43, 0
21, 412320, Note_on_c, 14, 48, 76
21, 412379, Note_on_c, 14, 48, 0
21, 412380, Note_on_c, 14, 48, 52
21, 412439, Note_on_c, 14, 48, 0
21, 412920, Note_on_c, 14, 43, 52
21, 413019, Note_on_c, 14, 43, 0
21, 413040, Note_on_c, 14, 43, 52
21, 413139, Note_on_c, 14, 43, 0
21, 413160, Note_on_c, 14, 43, 52
21, 413259, Note_on_c, 14, 43, 0
21, 413280, Note_on_c, 14, 48, 76
21, 413339, Note_on_c, 14, 48, 0
21, 413340, Note_on_c, 14, 48, 52
21, 413399, Note_on_c, 14, 48, 0
21, 413880, Note_on_c, 14, 43, 52
21, 413979, Note_on_c, 14, 43, 0
21, 414000, Note_on_c, 14, 43, 52
21, 414099, Note_on_c, 14, 43, 0
21, 414120, Note_on_c, 14, 43, 52
21, 414219, Note_on_c, 14, 43, 0
21, 414240, Note_on_c, 14, 48, 76
21, 414299, Note_on_c, 14, 48, 0
21, 414300, Note_on_c, 14, 48, 52
21, 414359, Note_on_c, 14, 48, 0
21, 414840, Note_on_c, 14, 43, 52
21, 414939, Note_on_c, 14, 43, 0
21, 414960, Note_on_c, 14, 43, 52
21, 415059, Note_on_c, 14, 43, 0
21, 415080, Note_on_c, 14, 43, 52
21, 415179, Note_on_c, 14, 43, 0
21, 415200, Note_on_c, 14, 48, 76
21, 415259, Note_on_c, 14, 48, 0
21, 415260, Note_on_c, 14, 48, 52
21, 415319, Note_on_c, 14, 48, 0
21, 415800, Note_on_c, 14, 43, 52
21, 415899, Note_on_c, 14, 43, 0
21, 415920, Note_on_c, 14, 43, 52
21, 416019, Note_on_c, 14, 43, 0
21, 416040, Note_on_c, 14, 43, 52
21, 416139, Note_on_c, 14, 43, 0
21, 416160, Note_on_c, 14, 48, 76
21, 416219, Note_on_c, 14, 48, 0
21, 416220, Note_on_c, 14, 48, 52
21, 416279, Note_on_c, 14, 48, 0
21, 416760, Note_on_c, 14, 43, 52
21, 416859, Note_on_c, 14, 43, 0
21, 416880, Note_on_c, 14, 43, 52
21, 416979, Note_on_c, 14, 43, 0
21, 417000, Note_on_c, 14, 43, 52
21, 417099, Note_on_c, 14, 43, 0
21, 417120, Note_on_c, 14, 58, 52
21, 417239, Note_on_c, 14, 58, 0
21, 417360, Note_on_c, 14, 58, 53
21, 417479, Note_on_c, 14, 58, 0
21, 417600, Note_on_c, 14, 56, 55
21, 417719, Note_on_c, 14, 56, 0
21, 417840, Note_on_c, 14, 56, 56
21, 417959, Note_on_c, 14, 56, 0
21, 418080, Note_on_c, 14, 55, 58
21, 418199, Note_on_c, 14, 55, 0
21, 418320, Note_on_c, 14, 55, 59
21, 418439, Note_on_c, 14, 55, 0
21, 418560, Note_on_c, 14, 55, 61
21, 418679, Note_on_c, 14, 55, 0
21, 418800, Note_on_c, 14, 58, 62
21, 418919, Note_on_c, 14, 58, 0
21, 419040, Note_on_c, 14, 58, 64
21, 419159, Note_on_c, 14, 58, 0
21, 419280, Note_on_c, 14, 58, 65
21, 419399, Note_on_c, 14, 58, 0
21, 419520, Note_on_c, 14, 56, 67
21, 419639, Note_on_c, 14, 56, 0
21, 419760, Note_on_c, 14, 56, 68
21, 419879, Note_on_c, 14, 56, 0
21, 420000, Note_on_c, 14, 55, 70
21, 420119, Note_on_c, 14, 55, 0
21, 420240, Note_on_c, 14, 55, 71
21, 420359, Note_on_c, 14, 55, 0
21, 420480, Note_on_c, 14, 55, 73
21, 420599, Note_on_c, 14, 55, 0
21, 420720, Note_on_c, 14, 58, 74
21, 420819, Note_on_c, 14, 58, 0
21, 420840, Note_on_c, 14, 58, 75
21, 420939, Note_on_c, 14, 58, 0
21, 420960, Note_on_c, 14, 58, 76
21, 421059, Note_on_c, 14, 58, 0
21, 421080, Note_on_c, 14, 58, 76
21, 421179, Note_on_c, 14, 58, 0
21, 421200, Note_on_c, 14, 58, 76
21, 421299, Note_on_c, 14, 58, 0
21, 421320, Note_on_c, 14, 58, 76
21, 421419, Note_on_c, 14, 58, 0
21, 421440, Note_on_c, 14, 56, 76
21, 421539, Note_on_c, 14, 56, 0
21, 421560, Note_on_c, 14, 56, 76
21, 421659, Note_on_c, 14, 56, 0
21, 421680, Note_on_c, 14, 56, 76
21, 421779, Note_on_c, 14, 56, 0
21, 421800, Note_on_c, 14, 56, 76
21, 421899, Note_on_c, 14, 56, 0
21, 421920, Note_on_c, 14, 55, 76
21, 422019, Note_on_c, 14, 55, 0
21, 422040, Note_on_c, 14, 55, 76
21, 422139, Note_on_c, 14, 55, 0
21, 422160, Note_on_c, 14, 55, 76
21, 422259, Note_on_c, 14, 55, 0
21, 422280, Note_on_c, 14, 55, 76
21, 422379, Note_on_c, 14, 55, 0
21, 422400, Note_on_c, 14, 43, 76
21, 422499, Note_on_c, 14, 43, 0
21, 422520, Note_on_c, 14, 43, 76
21, 422619, Note_on_c, 14, 43, 0
21, 422640, Note_on_c, 14, 43, 76
21, 422739, Note_on_c, 14, 43, 0
21, 422760, Note_on_c, 14, 43, 76
21, 422859, Note_on_c, 14, 43, 0
21, 422880, Note_on_c, 14, 48, 84
21, 422999, Note_on_c, 14, 48, 0
21, 423360, Note_on_c, 14, 48, 84
21, 423579, Note_on_c, 14, 48, 0
21, 423600, Note_on_c, 14, 52, 84
21, 423819, Note_on_c, 14, 52, 0
21, 423840, Note_on_c, 14, 55, 84
21, 424179, Note_on_c, 14, 55, 0
21, 424200, Note_on_c, 14, 53, 84
21, 424299, Note_on_c, 14, 53, 0
21, 424320, Note_on_c, 14, 52, 84
21, 424419, Note_on_c, 14, 52, 0
21, 424440, Note_on_c, 14, 50, 84
21, 424539, Note_on_c, 14, 50, 0
21, 424560, Note_on_c, 14, 48, 84
21, 424659, Note_on_c, 14, 48, 0
21, 424680, Note_on_c, 14, 50, 84
21, 424779, Note_on_c, 14, 50, 0
21, 424800, Note_on_c, 14, 52, 84
21, 425139, Note_on_c, 14, 52, 0
21, 425160, Note_on_c, 14, 52, 84
21, 425259, Note_on_c, 14, 52, 0
21, 425280, Note_on_c, 14, 52, 84
21, 425379, Note_on_c, 14, 52, 0
21, 425400, Note_on_c, 14, 50, 84
21, 425499, Note_on_c, 14, 50, 0
21, 425520, Note_on_c, 14, 52, 84
21, 425619, Note_on_c, 14, 52, 0
21, 425640, Note_on_c, 14, 53, 84
21, 425739, Note_on_c, 14, 53, 0
21, 425760, Note_on_c, 14, 55, 84
21, 426099, Note_on_c, 14, 55, 0
21, 426120, Note_on_c, 14, 55, 84
21, 426219, Note_on_c, 14, 55, 0
21, 426240, Note_on_c, 14, 55, 84
21, 426339, Note_on_c, 14, 55, 0
21, 426360, Note_on_c, 14, 53, 84
21, 426459, Note_on_c, 14, 53, 0
21, 426480, Note_on_c, 14, 55, 84
21, 426579, Note_on_c, 14, 55, 0
21, 426600, Note_on_c, 14, 59, 84
21, 426699, Note_on_c, 14, 59, 0
21, 426720, Note_on_c, 14, 60, 84
21, 426819, Note_on_c, 14, 60, 0
21, 426840, Note_on_c, 14, 59, 84
21, 426939, Note_on_c, 14, 59, 0
21, 426960, Note_on_c, 14, 60, 84
21, 427059, Note_on_c, 14, 60, 0
21, 427080, Note_on_c, 14, 62, 84
21, 427179, Note_on_c, 14, 62, 0
21, 427200, Note_on_c, 14, 64, 84
21, 427299, Note_on_c, 14, 64, 0
21, 427320, Note_on_c, 14, 50, 84
21, 427419, Note_on_c, 14, 50, 0
21, 427440, Note_on_c, 14, 52, 84
21, 427539, Note_on_c, 14, 52, 0
21, 427560, Note_on_c, 14, 53, 84
21, 427659, Note_on_c, 14, 53, 0
21, 427680, Note_on_c, 14, 55, 84
21, 428619, Note_on_c, 14, 55, 0
21, 428640, Note_on_c, 14, 52, 84
21, 429579, Note_on_c, 14, 52, 0
21, 429600, Note_on_c, 14, 48, 84
21, 429719, Note_on_c, 14, 48, 0
21, 430080, Note_on_c, 14, 43, 84
21, 430199, Note_on_c, 14, 43, 0
21, 430560, Note_on_c, 14, 48, 84
21, 430679, Note_on_c, 14, 48, 0
21, 431040, Note_on_c, 14, 43, 84
21, 431159, Note_on_c, 14, 43, 0
21, 431520, Note_on_c, 14, 48, 84
21, 431639, Note_on_c, 14, 48, 0
21, 432000, Note_on_c, 14, 43, 84
21, 432119, Note_on_c, 14, 43, 0
21, 432480, Note_on_c, 14, 48, 84
21, 432599, Note_on_c, 14, 48, 0
21, 432960, Note_on_c, 14, 43, 84
21, 433079, Note_on_c, 14, 43, 0
21, 433440, Note_on_c, 14, 48, 84
21, 433559, Note_on_c, 14, 48, 0
21, 433920, Note_on_c, 14, 43, 84
21, 434039, Note_on_c, 14, 43, 0
21, 434400, Note_on_c, 14, 48, 84
21, 434519, Note_on_c, 14, 48, 0
21, 434880, Note_on_c, 14, 43, 84
21, 434999, Note_on_c, 14, 43, 0
21, 435360, Note_on_c, 14, 60, 84
21, 436299, Note_on_c, 14, 60, 0
21, 436320, Note_on_c, 14, 60, 84
21, 437019, Note_on_c, 14, 60, 0
21, 437040, Note_on_c, 14, 55, 84
21, 437139, Note_on_c, 14, 55, 0
21, 437160, Note_on_c, 14, 52, 84
21, 437259, Note_on_c, 14, 52, 0
21, 437280, Note_on_c, 14, 48, 84
21, 437399, Note_on_c, 14, 48, 0
21, 437640, Note_on_c, 14, 48, 84
21, 437739, Note_on_c, 14, 48, 0
21, 437760, Note_on_c, 14, 48, 84
21, 437859, Note_on_c, 14, 48, 0
21, 437880, Note_on_c, 14, 48, 84
21, 437979, Note_on_c, 14, 48, 0
21, 438000, Note_on_c, 14, 48, 84
21, 438099, Note_on_c, 14, 48, 0
21, 438120, Note_on_c, 14, 48, 84
21, 438219, Note_on_c, 14, 48, 0
21, 438240, Note_on_c, 14, 48, 84
21, 438359, Note_on_c, 14, 48, 0
21, 438600, Note_on_c, 14, 48, 84
21, 438699, Note_on_c, 14, 48, 0
21, 438720, Note_on_c, 14, 48, 84
21, 438819, Note_on_c, 14, 48, 0
21, 438840, Note_on_c, 14, 48, 84
21, 438939, Note_on_c, 14, 48, 0
21, 438960, Note_on_c, 14, 48, 84
21, 439059, Note_on_c, 14, 48, 0
21, 439080, Note_on_c, 14, 48, 84
21, 439179, Note_on_c, 14, 48, 0
21, 439200, Note_on_c, 14, 48, 84
21, 439319, Note_on_c, 14, 48, 0
21, 439440, Note_on_c, 14, 48, 84
21, 439539, Note_on_c, 14, 48, 0
21, 439560, Note_on_c, 14, 48, 84
21, 439659, Note_on_c, 14, 48, 0
21, 439680, Note_on_c, 14, 48, 84
21, 439799, Note_on_c, 14, 48, 0
21, 439920, Note_on_c, 14, 48, 84
21, 440019, Note_on_c, 14, 48, 0
21, 440040, Note_on_c, 14, 48, 84
21, 440139, Note_on_c, 14, 48, 0
21, 440160, Note_on_c, 14, 48, 84
21, 440279, Note_on_c, 14, 48, 0
21, 440400, Note_on_c, 14, 48, 84
21, 440499, Note_on_c, 14, 48, 0
21, 440520, Note_on_c, 14, 48, 84
21, 440619, Note_on_c, 14, 48, 0
21, 440640, Note_on_c, 14, 48, 84
21, 440759, Note_on_c, 14, 48, 0
21, 440880, Note_on_c, 14, 48, 84
21, 440979, Note_on_c, 14, 48, 0
21, 441000, Note_on_c, 14, 48, 84
21, 441099, Note_on_c, 14, 48, 0
21, 441120, Note_on_c, 14, 48, 84
21, 441219, Note_on_c, 14, 48, 0
21, 441240, Note_on_c, 14, 52, 84
21, 441339, Note_on_c, 14, 52, 0
21, 441360, Note_on_c, 14, 55, 84
21, 441459, Note_on_c, 14, 55, 0
21, 441480, Note_on_c, 14, 60, 84
21, 441579, Note_on_c, 14, 60, 0
21, 441600, Note_on_c, 14, 64, 84
21, 441699, Note_on_c, 14, 64, 0
21, 441720, Note_on_c, 14, 67, 84
21, 441819, Note_on_c, 14, 67, 0
21, 441840, Note_on_c, 14, 64, 84
21, 441939, Note_on_c, 14, 64, 0
21, 441960, Note_on_c, 14, 60, 84
21, 442059, Note_on_c, 14, 60, 0
21, 442080, Note_on_c, 14, 55, 84
21, 442179, Note_on_c, 14, 55, 0
21, 442200, Note_on_c, 14, 52, 84
21, 442299, Note_on_c, 14, 52, 0
21, 442320, Note_on_c, 14, 48, 84
21, 442419, Note_on_c, 14, 48, 0
21, 442440, Note_on_c, 14, 43, 84
21, 442539, Note_on_c, 14, 43, 0
21, 442560, Note_on_c, 14, 40, 84
21, 442659, Note_on_c, 14, 40, 0
21, 442680, Note_on_c, 14, 36, 84
21, 442779, Note_on_c, 14, 36, 0
21, 442800, Note_on_c, 14, 48, 84
21, 442899, Note_on_c, 14, 48, 0
21, 442920, Note_on_c, 14, 48, 84
21, 443019, Note_on_c, 14, 48, 0
21, 443040, Note_on_c, 14, 48, 84
21, 443159, Note_on_c, 14, 48, 0
21, 444000, Note_on_c, 14, 48, 84
21, 444119, Note_on_c, 14, 48, 0
21, 444960, Note_on_c, 14, 48, 84
21, 445079, Note_on_c, 14, 48, 0
21, 445920, Note_on_c, 14, 48, 84
21, 446039, Note_on_c, 14, 48, 0
21, 446400, Note_on_c, 14, 48, 84
21, 446519, Note_on_c, 14, 48, 0
21, 446880, Note_on_c, 14, 48, 84
21, 446999, Note_on_c, 14, 48, 0
21, 447840, Note_on_c, 14, 48, 84
21, 447959, Note_on_c, 14, 48, 0
21, 448800, Note_on_c, 14, 48, 84
21, 451199, Note_on_c, 14, 48, 0
21, 451199, End_track
22, 0, Start_track
22, 0, Title_t, "Contrabass"
22, 0, MIDI_port, 0
22, 0, Program_c, 15, 48
22, 0, Control_c, 15, 7, 88
22, 0, Control_c, 15, 10, 100
22, 0, Control_c, 15, 11, 127
22, 0, Note_on_c, 15, 36, 84
22, 239, Note_on_c, 15, 36, 0
22, 480, Note_on_c, 15, 36, 84
22, 719, Note_on_c, 15, 36, 0
22, 960, Note_on_c, 15, 36, 84
22, 1664, Note_on_c, 15, 36, 0
22, 1680, Note_on_c, 15, 31, 84
22, 1799, Note_on_c, 15, 31, 0
22, 1920, Note_on_c, 15, 36, 84
22, 2039, Note_on_c, 15, 36, 0
22, 2160, Note_on_c, 15, 31, 84
22, 2279, Note_on_c, 15, 31, 0
22, 2400, Note_on_c, 15, 36, 84
22, 2519, Note_on_c, 15, 36, 0
22, 2640, Note_on_c, 15, 31, 84
22, 2759, Note_on_c, 15, 31, 0
22, 2880, Note_on_c, 15, 36, 84
22, 3584, Note_on_c, 15, 36, 0
22, 3600, Note_on_c, 15, 36, 84
22, 3771, Note_on_c, 15, 36, 0
22, 3780, Note_on_c, 15, 36, 84
22, 3831, Note_on_c, 15, 36, 0
22, 3840, Note_on_c, 15, 31, 84
22, 4544, Note_on_c, 15, 31, 0
22, 4560, Note_on_c, 15, 31, 84
22, 4731, Note_on_c, 15, 31, 0
22, 4740, Note_on_c, 15, 31, 84
22, 4791, Note_on_c, 15, 31, 0
22, 4800, Note_on_c, 15, 36, 84
22, 5744, Note_on_c, 15, 36, 0
22, 5760, Note_on_c, 15, 33, 84
22, 6224, Note_on_c, 15, 33, 0
22, 6240, Note_on_c, 15, 29, 84
22, 6704, Note_on_c, 15, 29, 0
22, 6720, Note_on_c, 15, 28, 84
22, 6824, Note_on_c, 15, 28, 0
22, 6840, Note_on_c, 15, 29, 84
22, 6944, Note_on_c, 15, 29, 0
22, 6960, Note_on_c, 15, 28, 84
22, 7064, Note_on_c, 15, 28, 0
22, 7080, Note_on_c, 15, 26, 84
22, 7184, Note_on_c, 15, 26, 0
22, 7200, Note_on_c, 15, 24, 84
22, 7664, Note_on_c, 15, 24, 0
22, 7680, Note_on_c, 15, 33, 84
22, 8144, Note_on_c, 15, 33, 0
22, 8160, Note_on_c, 15, 29, 84
22, 8624, Note_on_c, 15, 29, 0
22, 8640, Note_on_c, 15, 28, 84
22, 8744, Note_on_c, 15, 28, 0
22, 8760, Note_on_c, 15, 29, 84
22, 8864, Note_on_c, 15, 29, 0
22, 8880, Note_on_c, 15, 28, 84
22, 8984, Note_on_c, 15, 28, 0
22, 9000, Note_on_c, 15, 26, 84
22, 9104, Note_on_c, 15, 26, 0
22, 9120, Note_on_c, 15, 24, 84
22, 9584, Note_on_c, 15, 24, 0
22, 9600, Note_on_c, 15, 33, 84
22, 10064, Note_on_c, 15, 33, 0
22, 10080, Note_on_c, 15, 29, 84
22, 10544, Note_on_c, 15, 29, 0
22, 10560, Note_on_c, 15, 28, 84
22, 10664, Note_on_c, 15, 28, 0
22, 10680, Note_on_c, 15, 29, 84
22, 10784, Note_on_c, 15, 29, 0
22, 10800, Note_on_c, 15, 28, 84
22, 10904, Note_on_c, 15, 28, 0
22, 10920, Note_on_c, 15, 26, 84
22, 11024, Note_on_c, 15, 26, 0
22, 11040, Note_on_c, 15, 24, 84
22, 11264, Note_on_c, 15, 24, 0
22, 11280, Note_on_c, 15, 36, 84
22, 11451, Note_on_c, 15, 36, 0
22, 11460, Note_on_c, 15, 36, 84
22, 11511, Note_on_c, 15, 36, 0
22, 11520, Note_on_c, 15, 35, 84
22, 11984, Note_on_c, 15, 35, 0
22, 12000, Note_on_c, 15, 36, 84
22, 12464, Note_on_c, 15, 36, 0
22, 12480, Note_on_c, 15, 31, 84
22, 12704, Note_on_c, 15, 31, 0
22, 12720, Note_on_c, 15, 31, 84
22, 13184, Note_on_c, 15, 31, 0
22, 13200, Note_on_c, 15, 36, 84
22, 13371, Note_on_c, 15, 36, 0
22, 13380, Note_on_c, 15, 36, 84
22, 13431, Note_on_c, 15, 36, 0
22, 13440, Note_on_c, 15, 35, 84
22, 13904, Note_on_c, 15, 35, 0
22, 13920, Note_on_c, 15, 36, 84
22, 14384, Note_on_c, 15, 36, 0
22, 14400, Note_on_c, 15, 31, 84
22, 14624, Note_on_c, 15, 31, 0
22, 14640, Note_on_c, 15, 31, 84
22, 15104, Note_on_c, 15, 31, 0
22, 15120, Note_on_c, 15, 36, 84
22, 15291, Note_on_c, 15, 36, 0
22, 15300, Note_on_c, 15, 36, 84
22, 15351, Note_on_c, 15, 36, 0
22, 15360, Note_on_c, 15, 35, 84
22, 15531, Note_on_c, 15, 35, 0
22, 15540, Note_on_c, 15, 35, 84
22, 15591, Note_on_c, 15, 35, 0
22, 15600, Note_on_c, 15, 31, 84
22, 15771, Note_on_c, 15, 31, 0
22, 15780, Note_on_c, 15, 31, 84
22, 15831, Note_on_c, 15, 31, 0
22, 15840, Note_on_c, 15, 36, 84
22, 16011, Note_on_c, 15, 36, 0
22, 16020, Note_on_c, 15, 36, 84
22, 16071, Note_on_c, 15, 36, 0
22, 16080, Note_on_c, 15, 40, 84
22, 16251, Note_on_c, 15, 40, 0
22, 16260, Note_on_c, 15, 40, 84
22, 16311, Note_on_c, 15, 40, 0
22, 16320, Note_on_c, 15, 43, 84
22, 16424, Note_on_c, 15, 43, 0
22, 16440, Note_on_c, 15, 31, 84
22, 16544, Note_on_c, 15, 31, 0
22, 16560, Note_on_c, 15, 31, 84
22, 16799, Note_on_c, 15, 31, 0
22, 17400, Note_on_c, 15, 31, 84
22, 17504, Note_on_c, 15, 31, 0
22, 17520, Note_on_c, 15, 31, 84
22, 17759, Note_on_c, 15, 31, 0
22, 18360, Note_on_c, 15, 31, 84
22, 18464, Note_on_c, 15, 31, 0
22, 18480, Note_on_c, 15, 31, 84
22, 18719, Note_on_c, 15, 31, 0
22, 18840, Note_on_c, 15, 31, 84
22, 18944, Note_on_c, 15, 31, 0
22, 18960, Note_on_c, 15, 31, 84
22, 19199, Note_on_c, 15, 31, 0
22, 19320, Note_on_c, 15, 31, 84
22, 19424, Note_on_c, 15, 31, 0
22, 19440, Note_on_c, 15, 31, 84
22, 19679, Note_on_c, 15, 31, 0
22, 19800, Note_on_c, 15, 31, 84
22, 19904, Note_on_c, 15, 31, 0
22, 19920, Note_on_c, 15, 31, 84
22, 20144, Note_on_c, 15, 31, 0
22, 20160, Note_on_c, 15, 31, 84
22, 20399, Note_on_c, 15, 31, 0
22, 23160, Note_on_c, 15, 48, 92
22, 23279, Note_on_c, 15, 48, 0
22, 23280, Note_on_c, 15, 47, 84
22, 23384, Note_on_c, 15, 47, 0
22, 23400, Note_on_c, 15, 45, 84
22, 23489, Note_on_c, 15, 45, 0
22, 23520, Note_on_c, 15, 43, 84
22, 23609, Note_on_c, 15, 43, 0
22, 23640, Note_on_c, 15, 41, 84
22, 23729, Note_on_c, 15, 41, 0
22, 23760, Note_on_c, 15, 40, 84
22, 23849, Note_on_c, 15, 40, 0
22, 23880, Note_on_c, 15, 38, 84
22, 23969, Note_on_c, 15, 38, 0
22, 24000, Note_on_c, 15, 36, 84
22, 24239, Note_on_c, 15, 36, 0
22, 25920, Note_on_c, 15, 31, 84
22, 26504, Note_on_c, 15, 31, 0
22, 26520, Note_on_c, 15, 31, 84
22, 26609, Note_on_c, 15, 31, 0
22, 26640, Note_on_c, 15, 35, 84
22, 26729, Note_on_c, 15, 35, 0
22, 26760, Note_on_c, 15, 38, 84
22, 26849, Note_on_c, 15, 38, 0
22, 26880, Note_on_c, 15, 41, 84
22, 26969, Note_on_c, 15, 41, 0
22, 27000, Note_on_c, 15, 43, 84
22, 27089, Note_on_c, 15, 43, 0
22, 27120, Note_on_c, 15, 47, 84
22, 27209, Note_on_c, 15, 47, 0
22, 27240, Note_on_c, 15, 50, 84
22, 27329, Note_on_c, 15, 50, 0
22, 27360, Note_on_c, 15, 53, 84
22, 27464, Note_on_c, 15, 53, 0
22, 27480, Note_on_c, 15, 55, 84
22, 27584, Note_on_c, 15, 55, 0
22, 27600, Note_on_c, 15, 53, 84
22, 27704, Note_on_c, 15, 53, 0
22, 27720, Note_on_c, 15, 50, 84
22, 27824, Note_on_c, 15, 50, 0
22, 27840, Note_on_c, 15, 47, 84
22, 27944, Note_on_c, 15, 47, 0
22, 27960, Note_on_c, 15, 50, 84
22, 28064, Note_on_c, 15, 50, 0
22, 28080, Note_on_c, 15, 47, 84
22, 28184, Note_on_c, 15, 47, 0
22, 28200, Note_on_c, 15, 43, 84
22, 28304, Note_on_c, 15, 43, 0
22, 28320, Note_on_c, 15, 41, 84
22, 28424, Note_on_c, 15, 41, 0
22, 28440, Note_on_c, 15, 38, 84
22, 28544, Note_on_c, 15, 38, 0
22, 28560, Note_on_c, 15, 35, 84
22, 28664, Note_on_c, 15, 35, 0
22, 28680, Note_on_c, 15, 38, 84
22, 28784, Note_on_c, 15, 38, 0
22, 28800, Note_on_c, 15, 31, 84
22, 29039, Note_on_c, 15, 31, 0
22, 29760, Note_on_c, 15, 36, 84
22, 30344, Note_on_c, 15, 36, 0
22, 30360, Note_on_c, 15, 36, 84
22, 30464, Note_on_c, 15, 36, 0
22, 30480, Note_on_c, 15, 40, 84
22, 30584, Note_on_c, 15, 40, 0
22, 30600, Note_on_c, 15, 31, 84
22, 30704, Note_on_c, 15, 31, 0
22, 30720, Note_on_c, 15, 36, 84
22, 30824, Note_on_c, 15, 36, 0
22, 30840, Note_on_c, 15, 40, 84
22, 30944, Note_on_c, 15, 40, 0
22, 30960, Note_on_c, 15, 43, 84
22, 31064, Note_on_c, 15, 43, 0
22, 31080, Note_on_c, 15, 48, 84
22, 31184, Note_on_c, 15, 48, 0
22, 31200, Note_on_c, 15, 52, 84
22, 31304, Note_on_c, 15, 52, 0
22, 31320, Note_on_c, 15, 48, 84
22, 31424, Note_on_c, 15, 48, 0
22, 31440, Note_on_c, 15, 43, 84
22, 31544, Note_on_c, 15, 43, 0
22, 31560, Note_on_c, 15, 40, 84
22, 31664, Note_on_c, 15, 40, 0
22, 31680, Note_on_c, 15, 36, 84
22, 31784, Note_on_c, 15, 36, 0
22, 31800, Note_on_c, 15, 35, 84
22, 31904, Note_on_c, 15, 35, 0
22, 31920, Note_on_c, 15, 36, 84
22, 32024, Note_on_c, 15, 36, 0
22, 32040, Note_on_c, 15, 36, 84
22, 32144, Note_on_c, 15, 36, 0
22, 32160, Note_on_c, 15, 36, 84
22, 32744, Note_on_c, 15, 36, 0
22, 32760, Note_on_c, 15, 35, 84
22, 32864, Note_on_c, 15, 35, 0
22, 32880, Note_on_c, 15, 36, 84
22, 32984, Note_on_c, 15, 36, 0
22, 33000, Note_on_c, 15, 36, 84
22, 33104, Note_on_c, 15, 36, 0
22, 33120, Note_on_c, 15, 36, 84
22, 33704, Note_on_c, 15, 36, 0
22, 33720, Note_on_c, 15, 37, 84
22, 33824, Note_on_c, 15, 37, 0
22, 33840, Note_on_c, 15, 38, 84
22, 33944, Note_on_c, 15, 38, 0
22, 33960, Note_on_c, 15, 38, 84
22, 34064, Note_on_c, 15, 38, 0
22, 34080, Note_on_c, 15, 38, 84
22, 34664, Note_on_c, 15, 38, 0
22, 34680, Note_on_c, 15, 37, 84
22, 34784, Note_on_c, 15, 37, 0
22, 34800, Note_on_c, 15, 38, 84
22, 34904, Note_on_c, 15, 38, 0
22, 34920, Note_on_c, 15, 38, 84
22, 35024, Note_on_c, 15, 38, 0
22, 35040, Note_on_c, 15, 38, 84
22, 35624, Note_on_c, 15, 38, 0
22, 35640, Note_on_c, 15, 37, 84
22, 35744, Note_on_c, 15, 37, 0
22, 35760, Note_on_c, 15, 38, 84
22, 35864, Note_on_c, 15, 38, 0
22, 35880, Note_on_c, 15, 38, 84
22, 35984, Note_on_c, 15, 38, 0
22, 36000, Note_on_c, 15, 38, 84
22, 36584, Note_on_c, 15, 38, 0
22, 36600, Note_on_c, 15, 37, 84
22, 36704, Note_on_c, 15, 37, 0
22, 36720, Note_on_c, 15, 38, 84
22, 36824, Note_on_c, 15, 38, 0
22, 36840, Note_on_c, 15, 38, 84
22, 36944, Note_on_c, 15, 38, 0
22, 36960, Note_on_c, 15, 38, 84
22, 37064, Note_on_c, 15, 38, 0
22, 37080, Note_on_c, 15, 37, 84
22, 37184, Note_on_c, 15, 37, 0
22, 37200, Note_on_c, 15, 38, 84
22, 37304, Note_on_c, 15, 38, 0
22, 37320, Note_on_c, 15, 38, 84
22, 37424, Note_on_c, 15, 38, 0
22, 37440, Note_on_c, 15, 38, 84
22, 37544, Note_on_c, 15, 38, 0
22, 37560, Note_on_c, 15, 37, 84
22, 37664, Note_on_c, 15, 37, 0
22, 37680, Note_on_c, 15, 38, 84
22, 37784, Note_on_c, 15, 38, 0
22, 37800, Note_on_c, 15, 38, 84
22, 37904, Note_on_c, 15, 38, 0
22, 37920, Note_on_c, 15, 38, 84
22, 38024, Note_on_c, 15, 38, 0
22, 38040, Note_on_c, 15, 37, 84
22, 38144, Note_on_c, 15, 37, 0
22, 38160, Note_on_c, 15, 38, 84
22, 38264, Note_on_c, 15, 38, 0
22, 38280, Note_on_c, 15, 38, 84
22, 38384, Note_on_c, 15, 38, 0
22, 38400, Note_on_c, 15, 38, 84
22, 38504, Note_on_c, 15, 38, 0
22, 38520, Note_on_c, 15, 50, 84
22, 38639, Note_on_c, 15, 50, 0
22, 38640, Note_on_c, 15, 48, 84
22, 38744, Note_on_c, 15, 48, 0
22, 38760, Note_on_c, 15, 47, 84
22, 38849, Note_on_c, 15, 47, 0
22, 38880, Note_on_c, 15, 45, 84
22, 38969, Note_on_c, 15, 45, 0
22, 39000, Note_on_c, 15, 47, 84
22, 39119, Note_on_c, 15, 47, 0
22, 39120, Note_on_c, 15, 45, 84
22, 39224, Note_on_c, 15, 45, 0
22, 39240, Note_on_c, 15, 43, 84
22, 39329, Note_on_c, 15, 43, 0
22, 39360, Note_on_c, 15, 42, 84
22, 39449, Note_on_c, 15, 42, 0
22, 39480, Note_on_c, 15, 43, 84
22, 39599, Note_on_c, 15, 43, 0
22, 39600, Note_on_c, 15, 42, 84
22, 39704, Note_on_c, 15, 42, 0
22, 39720, Note_on_c, 15, 40, 84
22, 39809, Note_on_c, 15, 40, 0
22, 39840, Note_on_c, 15, 38, 84
22, 39929, Note_on_c, 15, 38, 0
22, 39960, Note_on_c, 15, 38, 84
22, 40079, Note_on_c, 15, 38, 0
22, 40080, Note_on_c, 15, 40, 84
22, 40184, Note_on_c, 15, 40, 0
22, 40200, Note_on_c, 15, 33, 84
22, 40289, Note_on_c, 15, 33, 0
22, 40320, Note_on_c, 15, 38, 84
22, 40439, Note_on_c, 15, 38, 0
22, 41400, Note_on_c, 15, 38, 84
22, 41519, Note_on_c, 15, 38, 0
22, 41520, Note_on_c, 15, 36, 84
22, 41624, Note_on_c, 15, 36, 0
22, 41640, Note_on_c, 15, 45, 84
22, 41729, Note_on_c, 15, 45, 0
22, 41760, Note_on_c, 15, 36, 84
22, 41849, Note_on_c, 15, 36, 0
22, 41880, Note_on_c, 15, 35, 84
22, 41999, Note_on_c, 15, 35, 0
22, 42000, Note_on_c, 15, 33, 84
22, 42104, Note_on_c, 15, 33, 0
22, 42120, Note_on_c, 15, 42, 84
22, 42209, Note_on_c, 15, 42, 0
22, 42240, Note_on_c, 15, 31, 84
22, 42479, Note_on_c, 15, 31, 0
22, 42720, Note_on_c, 15, 31, 84
22, 42959, Note_on_c, 15, 31, 0
22, 43200, Note_on_c, 15, 31, 84
22, 43424, Note_on_c, 15, 31, 0
22, 43440, Note_on_c, 15, 38, 84
22, 43519, Note_on_c, 15, 38, 0
22, 43520, Note_on_c, 15, 40, 84
22, 43599, Note_on_c, 15, 40, 0
22, 43600, Note_on_c, 15, 42, 84
22, 43667, Note_on_c, 15, 42, 0
22, 43680, Note_on_c, 15, 43, 84
22, 43919, Note_on_c, 15, 43, 0
22, 45360, Note_on_c, 15, 42, 52
22, 45439, Note_on_c, 15, 42, 0
22, 45440, Note_on_c, 15, 43, 56
22, 45519, Note_on_c, 15, 43, 0
22, 45520, Note_on_c, 15, 45, 60
22, 45587, Note_on_c, 15, 45, 0
22, 45600, Note_on_c, 15, 38, 64
22, 45824, Note_on_c, 15, 38, 0
22, 45840, Note_on_c, 15, 36, 76
22, 45907, Note_on_c, 15, 36, 0
22, 45920, Note_on_c, 15, 35, 76
22, 45987, Note_on_c, 15, 35, 0
22, 46000, Note_on_c, 15, 33, 76
22, 46067, Note_on_c, 15, 33, 0
22, 46080, Note_on_c, 15, 31, 76
22, 46319, Note_on_c, 15, 31, 0
22, 46560, Note_on_c, 15, 31, 76
22, 46799, Note_on_c, 15, 31, 0
22, 47040, Note_on_c, 15, 31, 76
22, 47264, Note_on_c, 15, 31, 0
22, 47280, Note_on_c, 15, 38, 76
22, 47347, Note_on_c, 15, 38, 0
22, 47360, Note_on_c, 15, 40, 76
22, 47427, Note_on_c, 15, 40, 0
22, 47440, Note_on_c, 15, 42, 76
22, 47507, Note_on_c, 15, 42, 0
22, 47520, Note_on_c, 15, 43, 76
22, 47759, Note_on_c, 15, 43, 0
22, 49200, Note_on_c, 15, 38, 76
22, 49267, Note_on_c, 15, 38, 0
22, 49280, Note_on_c, 15, 40, 76
22, 49347, Note_on_c, 15, 40, 0
22, 49360, Note_on_c, 15, 42, 76
22, 49427, Note_on_c, 15, 42, 0
22, 49440, Note_on_c, 15, 43, 76
22, 49679, Note_on_c, 15, 43, 0
22, 51120, Note_on_c, 15, 40, 76
22, 51187, Note_on_c, 15, 40, 0
22, 51200, Note_on_c, 15, 42, 76
22, 51267, Note_on_c, 15, 42, 0
22, 51280, Note_on_c, 15, 44, 76
22, 51347, Note_on_c, 15, 44, 0
22, 51360, Note_on_c, 15, 45, 76
22, 51584, Note_on_c, 15, 45, 0
22, 51600, Note_on_c, 15, 36, 44
22, 51839, Note_on_c, 15, 36, 0
22, 51840, Note_on_c, 15, 35, 44
22, 52319, Note_on_c, 15, 35, 0
22, 52320, Note_on_c, 15, 36, 44
22, 52784, Note_on_c, 15, 36, 0
22, 52800, Note_on_c, 15, 31, 44
22, 52904, Note_on_c, 15, 31, 0
22, 52920, Note_on_c, 15, 43, 46
22, 53024, Note_on_c, 15, 43, 0
22, 53040, Note_on_c, 15, 43, 49
22, 53144, Note_on_c, 15, 43, 0
22, 53160, Note_on_c, 15, 43, 51
22, 53264, Note_on_c, 15, 43, 0
22, 53280, Note_on_c, 15, 43, 54
22, 53384, Note_on_c, 15, 43, 0
22, 53400, Note_on_c, 15, 43, 56
22, 53504, Note_on_c, 15, 43, 0
22, 53520, Note_on_c, 15, 43, 59
22, 53624, Note_on_c, 15, 43, 0
22, 53640, Note_on_c, 15, 43, 61
22, 53744, Note_on_c, 15, 43, 0
22, 53760, Note_on_c, 15, 43, 64
22, 53864, Note_on_c, 15, 43, 0
22, 53880, Note_on_c, 15, 43, 66
22, 53984, Note_on_c, 15, 43, 0
22, 54000, Note_on_c, 15, 43, 69
22, 54104, Note_on_c, 15, 43, 0
22, 54120, Note_on_c, 15, 43, 71
22, 54224, Note_on_c, 15, 43, 0
22, 54240, Note_on_c, 15, 43, 74
22, 54344, Note_on_c, 15, 43, 0
22, 54360, Note_on_c, 15, 43, 76
22, 54464, Note_on_c, 15, 43, 0
22, 54480, Note_on_c, 15, 43, 79
22, 54584, Note_on_c, 15, 43, 0
22, 54600, Note_on_c, 15, 43, 81
22, 54704, Note_on_c, 15, 43, 0
22, 54720, Note_on_c, 15, 36, 84
22, 55304, Note_on_c, 15, 36, 0
22, 55320, Note_on_c, 15, 36, 84
22, 55424, Note_on_c, 15, 36, 0
22, 55440, Note_on_c, 15, 36, 84
22, 55544, Note_on_c, 15, 36, 0
22, 55560, Note_on_c, 15, 36, 84
22, 55664, Note_on_c, 15, 36, 0
22, 55680, Note_on_c, 15, 36, 84
22, 55784, Note_on_c, 15, 36, 0
22, 55800, Note_on_c, 15, 36, 84
22, 55904, Note_on_c, 15, 36, 0
22, 55920, Note_on_c, 15, 36, 84
22, 56024, Note_on_c, 15, 36, 0
22, 56040, Note_on_c, 15, 36, 84
22, 56144, Note_on_c, 15, 36, 0
22, 56160, Note_on_c, 15, 36, 84
22, 56264, Note_on_c, 15, 36, 0
22, 56280, Note_on_c, 15, 36, 84
22, 56384, Note_on_c, 15, 36, 0
22, 56400, Note_on_c, 15, 36, 84
22, 56504, Note_on_c, 15, 36, 0
22, 56520, Note_on_c, 15, 36, 84
22, 56624, Note_on_c, 15, 36, 0
22, 56640, Note_on_c, 15, 36, 84
22, 56744, Note_on_c, 15, 36, 0
22, 56760, Note_on_c, 15, 36, 84
22, 56864, Note_on_c, 15, 36, 0
22, 56880, Note_on_c, 15, 37, 84
22, 56984, Note_on_c, 15, 37, 0
22, 57000, Note_on_c, 15, 37, 84
22, 57104, Note_on_c, 15, 37, 0
22, 57120, Note_on_c, 15, 38, 84
22, 57224, Note_on_c, 15, 38, 0
22, 57240, Note_on_c, 15, 38, 84
22, 57344, Note_on_c, 15, 38, 0
22, 57360, Note_on_c, 15, 39, 84
22, 57464, Note_on_c, 15, 39, 0
22, 57480, Note_on_c, 15, 39, 84
22, 57584, Note_on_c, 15, 39, 0
22, 57600, Note_on_c, 15, 40, 84
22, 57704, Note_on_c, 15, 40, 0
22, 57720, Note_on_c, 15, 40, 84
22, 57824, Note_on_c, 15, 40, 0
22, 57840, Note_on_c, 15, 42, 84
22, 57944, Note_on_c, 15, 42, 0
22, 57960, Note_on_c, 15, 42, 84
22, 58064, Note_on_c, 15, 42, 0
22, 58080, Note_on_c, 15, 43, 84
22, 58184, Note_on_c, 15, 43, 0
22, 58200, Note_on_c, 15, 31, 84
22, 58304, Note_on_c, 15, 31, 0
22, 58320, Note_on_c, 15, 33, 84
22, 58424, Note_on_c, 15, 33, 0
22, 58440, Note_on_c, 15, 35, 84
22, 58544, Note_on_c, 15, 35, 0
22, 58560, Note_on_c, 15, 36, 84
22, 58739, Note_on_c, 15, 36, 0
22, 59520, Note_on_c, 15, 38, 84
22, 59699, Note_on_c, 15, 38, 0
22, 68160, Note_on_c, 15, 35, 76
22, 68864, Note_on_c, 15, 35, 0
22, 68880, Note_on_c, 15, 33, 76
22, 69104, Note_on_c, 15, 33, 0
22, 69120, Note_on_c, 15, 31, 76
22, 69344, Note_on_c, 15, 31, 0
22, 69360, Note_on_c, 15, 30, 76
22, 69584, Note_on_c, 15, 30, 0
22, 69600, Note_on_c, 15, 30, 76
22, 69824, Note_on_c, 15, 30, 0
22, 69840, Note_on_c, 15, 30, 76
22, 70064, Note_on_c, 15, 30, 0
22, 70080, Note_on_c, 15, 35, 84
22, 70139, Note_on_c, 15, 35, 0
22, 70140, Note_on_c, 15, 35, 76
22, 70784, Note_on_c, 15, 35, 0
22, 70800, Note_on_c, 15, 33, 76
22, 71024, Note_on_c, 15, 33, 0
22, 71040, Note_on_c, 15, 31, 76
22, 71264, Note_on_c, 15, 31, 0
22, 71280, Note_on_c, 15, 30, 76
22, 71504, Note_on_c, 15, 30, 0
22, 71520, Note_on_c, 15, 30, 76
22, 71744, Note_on_c, 15, 30, 0
22, 71760, Note_on_c, 15, 30, 76
22, 71984, Note_on_c, 15, 30, 0
22, 72000, Note_on_c, 15, 30, 84
22, 72059, Note_on_c, 15, 30, 0
22, 72060, Note_on_c, 15, 30, 76
22, 72704, Note_on_c, 15, 30, 0
22, 72720, Note_on_c, 15, 31, 76
22, 72944, Note_on_c, 15, 31, 0
22, 72960, Note_on_c, 15, 36, 76
22, 73184, Note_on_c, 15, 36, 0
22, 73200, Note_on_c, 15, 36, 80
22, 73424, Note_on_c, 15, 36, 0
22, 73440, Note_on_c, 15, 36, 80
22, 73664, Note_on_c, 15, 36, 0
22, 73680, Note_on_c, 15, 36, 80
22, 73904, Note_on_c, 15, 36, 0
22, 73920, Note_on_c, 15, 36, 80
22, 74144, Note_on_c, 15, 36, 0
22, 74160, Note_on_c, 15, 36, 80
22, 74384, Note_on_c, 15, 36, 0
22, 74400, Note_on_c, 15, 36, 80
22, 74624, Note_on_c, 15, 36, 0
22, 74640, Note_on_c, 15, 36, 80
22, 74864, Note_on_c, 15, 36, 0
22, 74880, Note_on_c, 15, 36, 80
22, 75104, Note_on_c, 15, 36, 0
22, 75120, Note_on_c, 15, 36, 80
22, 75344, Note_on_c, 15, 36, 0
22, 75360, Note_on_c, 15, 36, 80
22, 75584, Note_on_c, 15, 36, 0
22, 75600, Note_on_c, 15, 36, 80
22, 75824, Note_on_c, 15, 36, 0
22, 75840, Note_on_c, 15, 29, 84
22, 75929, Note_on_c, 15, 29, 0
22, 75960, Note_on_c, 15, 24, 84
22, 76049, Note_on_c, 15, 24, 0
22, 76080, Note_on_c, 15, 32, 84
22, 76199, Note_on_c, 15, 32, 0
22, 76200, Note_on_c, 15, 29, 84
22, 76304, Note_on_c, 15, 29, 0
22, 76320, Note_on_c, 15, 32, 84
22, 76409, Note_on_c, 15, 32, 0
22, 76440, Note_on_c, 15, 29, 84
22, 76529, Note_on_c, 15, 29, 0
22, 76560, Note_on_c, 15, 36, 84
22, 76679, Note_on_c, 15, 36, 0
22, 76680, Note_on_c, 15, 32, 84
22, 76784, Note_on_c, 15, 32, 0
22, 76800, Note_on_c, 15, 36, 84
22, 76889, Note_on_c, 15, 36, 0
22, 76920, Note_on_c, 15, 32, 84
22, 77009, Note_on_c, 15, 32, 0
22, 77040, Note_on_c, 15, 41, 84
22, 77159, Note_on_c, 15, 41, 0
22, 77160, Note_on_c, 15, 36, 84
22, 77264, Note_on_c, 15, 36, 0
22, 77280, Note_on_c, 15, 41, 84
22, 77369, Note_on_c, 15, 41, 0
22, 77400, Note_on_c, 15, 36, 84
22, 77489, Note_on_c, 15, 36, 0
22, 77520, Note_on_c, 15, 44, 84
22, 77639, Note_on_c, 15, 44, 0
22, 77640, Note_on_c, 15, 41, 84
22, 77744, Note_on_c, 15, 41, 0
22, 77760, Note_on_c, 15, 43, 84
22, 78719, Note_on_c, 15, 43, 0
22, 78720, Note_on_c, 15, 43, 84
22, 79664, Note_on_c, 15, 43, 0
22, 79680, Note_on_c, 15, 50, 84
22, 79784, Note_on_c, 15, 50, 0
22, 79800, Note_on_c, 15, 53, 84
22, 79904, Note_on_c, 15, 53, 0
22, 79920, Note_on_c, 15, 47, 84
22, 80024, Note_on_c, 15, 47, 0
22, 80040, Note_on_c, 15, 50, 84
22, 80144, Note_on_c, 15, 50, 0
22, 80160, Note_on_c, 15, 43, 84
22, 80264, Note_on_c, 15, 43, 0
22, 80280, Note_on_c, 15, 47, 84
22, 80384, Note_on_c, 15, 47, 0
22, 80400, Note_on_c, 15, 41, 84
22, 80504, Note_on_c, 15, 41, 0
22, 80520, Note_on_c, 15, 43, 84
22, 80624, Note_on_c, 15, 43, 0
22, 80640, Note_on_c, 15, 38, 84
22, 80744, Note_on_c, 15, 38, 0
22, 80760, Note_on_c, 15, 41, 84
22, 80864, Note_on_c, 15, 41, 0
22, 80880, Note_on_c, 15, 35, 84
22, 80984, Note_on_c, 15, 35, 0
22, 81000, Note_on_c, 15, 38, 84
22, 81104, Note_on_c, 15, 38, 0
22, 81120, Note_on_c, 15, 31, 84
22, 81224, Note_on_c, 15, 31, 0
22, 81240, Note_on_c, 15, 43, 84
22, 81344, Note_on_c, 15, 43, 0
22, 81360, Note_on_c, 15, 43, 84
22, 81464, Note_on_c, 15, 43, 0
22, 81480, Note_on_c, 15, 43, 84
22, 81584, Note_on_c, 15, 43, 0
22, 81600, Note_on_c, 15, 36, 84
22, 81839, Note_on_c, 15, 36, 0
22, 82080, Note_on_c, 15, 36, 84
22, 82319, Note_on_c, 15, 36, 0
22, 82560, Note_on_c, 15, 36, 84
22, 83264, Note_on_c, 15, 36, 0
22, 83280, Note_on_c, 15, 31, 84
22, 83399, Note_on_c, 15, 31, 0
22, 83520, Note_on_c, 15, 36, 84
22, 83639, Note_on_c, 15, 36, 0
22, 83760, Note_on_c, 15, 31, 84
22, 83879, Note_on_c, 15, 31, 0
22, 84000, Note_on_c, 15, 36, 84
22, 84119, Note_on_c, 15, 36, 0
22, 84240, Note_on_c, 15, 31, 84
22, 84359, Note_on_c, 15, 31, 0
22, 84480, Note_on_c, 15, 36, 84
22, 85184, Note_on_c, 15, 36, 0
22, 85200, Note_on_c, 15, 36, 84
22, 85371, Note_on_c, 15, 36, 0
22, 85380, Note_on_c, 15, 36, 84
22, 85431, Note_on_c, 15, 36, 0
22, 85440, Note_on_c, 15, 31, 84
22, 86144, Note_on_c, 15, 31, 0
22, 86160, Note_on_c, 15, 31, 84
22, 86331, Note_on_c, 15, 31, 0
22, 86340, Note_on_c, 15, 31, 84
22, 86391, Note_on_c, 15, 31, 0
22, 86400, Note_on_c, 15, 36, 84
22, 87344, Note_on_c, 15, 36, 0
22, 87360, Note_on_c, 15, 33, 84
22, 87824, Note_on_c, 15, 33, 0
22, 87840, Note_on_c, 15, 29, 84
22, 88304, Note_on_c, 15, 29, 0
22, 88320, Note_on_c, 15, 28, 84
22, 88424, Note_on_c, 15, 28, 0
22, 88440, Note_on_c, 15, 29, 84
22, 88544, Note_on_c, 15, 29, 0
22, 88560, Note_on_c, 15, 28, 84
22, 88664, Note_on_c, 15, 28, 0
22, 88680, Note_on_c, 15, 26, 84
22, 88784, Note_on_c, 15, 26, 0
22, 88800, Note_on_c, 15, 24, 84
22, 89264, Note_on_c, 15, 24, 0
22, 89280, Note_on_c, 15, 33, 84
22, 89744, Note_on_c, 15, 33, 0
22, 89760, Note_on_c, 15, 29, 84
22, 90224, Note_on_c, 15, 29, 0
22, 90240, Note_on_c, 15, 28, 84
22, 90344, Note_on_c, 15, 28, 0
22, 90360, Note_on_c, 15, 29, 84
22, 90464, Note_on_c, 15, 29, 0
22, 90480, Note_on_c, 15, 28, 84
22, 90584, Note_on_c, 15, 28, 0
22, 90600, Note_on_c, 15, 26, 84
22, 90704, Note_on_c, 15, 26, 0
22, 90720, Note_on_c, 15, 24, 84
22, 91184, Note_on_c, 15, 24, 0
22, 91200, Note_on_c, 15, 33, 84
22, 91664, Note_on_c, 15, 33, 0
22, 91680, Note_on_c, 15, 29, 84
22, 92144, Note_on_c, 15, 29, 0
22, 92160, Note_on_c, 15, 28, 84
22, 92264, Note_on_c, 15, 28, 0
22, 92280, Note_on_c, 15, 29, 84
22, 92384, Note_on_c, 15, 29, 0
22, 92400, Note_on_c, 15, 28, 84
22, 92504, Note_on_c, 15, 28, 0
22, 92520, Note_on_c, 15, 26, 84
22, 92624, Note_on_c, 15, 26, 0
22, 92640, Note_on_c, 15, 24, 84
22, 92864, Note_on_c, 15, 24, 0
22, 92880, Note_on_c, 15, 36, 84
22, 93051, Note_on_c, 15, 36, 0
22, 93060, Note_on_c, 15, 36, 84
22, 93111, Note_on_c, 15, 36, 0
22, 93120, Note_on_c, 15, 35, 84
22, 93584, Note_on_c, 15, 35, 0
22, 93600, Note_on_c, 15, 36, 84
22, 94064, Note_on_c, 15, 36, 0
22, 94080, Note_on_c, 15, 31, 84
22, 94304, Note_on_c, 15, 31, 0
22, 94320, Note_on_c, 15, 31, 84
22, 94784, Note_on_c, 15, 31, 0
22, 94800, Note_on_c, 15, 36, 84
22, 94971, Note_on_c, 15, 36, 0
22, 94980, Note_on_c, 15, 36, 84
22, 95031, Note_on_c, 15, 36, 0
22, 95040, Note_on_c, 15, 35, 84
22, 95504, Note_on_c, 15, 35, 0
22, 95520, Note_on_c, 15, 36, 84
22, 95984, Note_on_c, 15, 36, 0
22, 96000, Note_on_c, 15, 31, 84
22, 96224, Note_on_c, 15, 31, 0
22, 96240, Note_on_c, 15, 31, 84
22, 96704, Note_on_c, 15, 31, 0
22, 96720, Note_on_c, 15, 36, 84
22, 96891, Note_on_c, 15, 36, 0
22, 96900, Note_on_c, 15, 36, 84
22, 96951, Note_on_c, 15, 36, 0
22, 96960, Note_on_c, 15, 35, 84
22, 97131, Note_on_c, 15, 35, 0
22, 97140, Note_on_c, 15, 35, 84
22, 97191, Note_on_c, 15, 35, 0
22, 97200, Note_on_c, 15, 31, 84
22, 97371, Note_on_c, 15, 31, 0
22, 97380, Note_on_c, 15, 31, 84
22, 97431, Note_on_c, 15, 31, 0
22, 97440, Note_on_c, 15, 36, 84
22, 97611, Note_on_c, 15, 36, 0
22, 97620, Note_on_c, 15, 36, 84
22, 97671, Note_on_c, 15, 36, 0
22, 97680, Note_on_c, 15, 40, 84
22, 97851, Note_on_c, 15, 40, 0
22, 97860, Note_on_c, 15, 40, 84
22, 97911, Note_on_c, 15, 40, 0
22, 97920, Note_on_c, 15, 43, 84
22, 98024, Note_on_c, 15, 43, 0
22, 98040, Note_on_c, 15, 31, 84
22, 98144, Note_on_c, 15, 31, 0
22, 98160, Note_on_c, 15, 31, 84
22, 98399, Note_on_c, 15, 31, 0
22, 99000, Note_on_c, 15, 31, 84
22, 99104, Note_on_c, 15, 31, 0
22, 99120, Note_on_c, 15, 31, 84
22, 99359, Note_on_c, 15, 31, 0
22, 99960, Note_on_c, 15, 31, 84
22, 100064, Note_on_c, 15, 31, 0
22, 100080, Note_on_c, 15, 31, 84
22, 100319, Note_on_c, 15, 31, 0
22, 100440, Note_on_c, 15, 31, 84
22, 100544, Note_on_c, 15, 31, 0
22, 100560, Note_on_c, 15, 31, 84
22, 100799, Note_on_c, 15, 31, 0
22, 100920, Note_on_c, 15, 31, 84
22, 101024, Note_on_c, 15, 31, 0
22, 101040, Note_on_c, 15, 31, 84
22, 101279, Note_on_c, 15, 31, 0
22, 101400, Note_on_c, 15, 31, 84
22, 101504, Note_on_c, 15, 31, 0
22, 101520, Note_on_c, 15, 31, 84
22, 101744, Note_on_c, 15, 31, 0
22, 101760, Note_on_c, 15, 31, 84
22, 101999, Note_on_c, 15, 31, 0
22, 104760, Note_on_c, 15, 48, 92
22, 104879, Note_on_c, 15, 48, 0
22, 104880, Note_on_c, 15, 47, 84
22, 104984, Note_on_c, 15, 47, 0
22, 105000, Note_on_c, 15, 45, 84
22, 105089, Note_on_c, 15, 45, 0
22, 105120, Note_on_c, 15, 43, 84
22, 105209, Note_on_c, 15, 43, 0
22, 105240, Note_on_c, 15, 41, 84
22, 105329, Note_on_c, 15, 41, 0
22, 105360, Note_on_c, 15, 40, 84
22, 105449, Note_on_c, 15, 40, 0
22, 105480, Note_on_c, 15, 38, 84
22, 105569, Note_on_c, 15, 38, 0
22, 105600, Note_on_c, 15, 36, 84
22, 105839, Note_on_c, 15, 36, 0
22, 107520, Note_on_c, 15, 31, 84
22, 108104, Note_on_c, 15, 31, 0
22, 108120, Note_on_c, 15, 31, 84
22, 108209, Note_on_c, 15, 31, 0
22, 108240, Note_on_c, 15, 35, 84
22, 108329, Note_on_c, 15, 35, 0
22, 108360, Note_on_c, 15, 38, 84
22, 108449, Note_on_c, 15, 38, 0
22, 108480, Note_on_c, 15, 41, 84
22, 108569, Note_on_c, 15, 41, 0
22, 108600, Note_on_c, 15, 43, 84
22, 108689, Note_on_c, 15, 43, 0
22, 108720, Note_on_c, 15, 47, 84
22, 108809, Note_on_c, 15, 47, 0
22, 108840, Note_on_c, 15, 50, 84
22, 108929, Note_on_c, 15, 50, 0
22, 108960, Note_on_c, 15, 53, 84
22, 109064, Note_on_c, 15, 53, 0
22, 109080, Note_on_c, 15, 55, 84
22, 109184, Note_on_c, 15, 55, 0
22, 109200, Note_on_c, 15, 53, 84
22, 109304, Note_on_c, 15, 53, 0
22, 109320, Note_on_c, 15, 50, 84
22, 109424, Note_on_c, 15, 50, 0
22, 109440, Note_on_c, 15, 47, 84
22, 109544, Note_on_c, 15, 47, 0
22, 109560, Note_on_c, 15, 50, 84
22, 109664, Note_on_c, 15, 50, 0
22, 109680, Note_on_c, 15, 47, 84
22, 109784, Note_on_c, 15, 47, 0
22, 109800, Note_on_c, 15, 43, 84
22, 109904, Note_on_c, 15, 43, 0
22, 109920, Note_on_c, 15, 41, 84
22, 110024, Note_on_c, 15, 41, 0
22, 110040, Note_on_c, 15, 38, 84
22, 110144, Note_on_c, 15, 38, 0
22, 110160, Note_on_c, 15, 35, 84
22, 110264, Note_on_c, 15, 35, 0
22, 110280, Note_on_c, 15, 38, 84
22, 110384, Note_on_c, 15, 38, 0
22, 110400, Note_on_c, 15, 31, 84
22, 110639, Note_on_c, 15, 31, 0
22, 111360, Note_on_c, 15, 36, 84
22, 111944, Note_on_c, 15, 36, 0
22, 111960, Note_on_c, 15, 36, 84
22, 112064, Note_on_c, 15, 36, 0
22, 112080, Note_on_c, 15, 40, 84
22, 112184, Note_on_c, 15, 40, 0
22, 112200, Note_on_c, 15, 31, 84
22, 112304, Note_on_c, 15, 31, 0
22, 112320, Note_on_c, 15, 36, 84
22, 112424, Note_on_c, 15, 36, 0
22, 112440, Note_on_c, 15, 40, 84
22, 112544, Note_on_c, 15, 40, 0
22, 112560, Note_on_c, 15, 43, 84
22, 112664, Note_on_c, 15, 43, 0
22, 112680, Note_on_c, 15, 48, 84
22, 112784, Note_on_c, 15, 48, 0
22, 112800, Note_on_c, 15, 52, 84
22, 112904, Note_on_c, 15, 52, 0
22, 112920, Note_on_c, 15, 48, 84
22, 113024, Note_on_c, 15, 48, 0
22, 113040, Note_on_c, 15, 43, 84
22, 113144, Note_on_c, 15, 43, 0
22, 113160, Note_on_c, 15, 40, 84
22, 113264, Note_on_c, 15, 40, 0
22, 113280, Note_on_c, 15, 36, 84
22, 113384, Note_on_c, 15, 36, 0
22, 113400, Note_on_c, 15, 35, 84
22, 113504, Note_on_c, 15, 35, 0
22, 113520, Note_on_c, 15, 36, 84
22, 113624, Note_on_c, 15, 36, 0
22, 113640, Note_on_c, 15, 36, 84
22, 113744, Note_on_c, 15, 36, 0
22, 113760, Note_on_c, 15, 36, 84
22, 114344, Note_on_c, 15, 36, 0
22, 114360, Note_on_c, 15, 35, 84
22, 114464, Note_on_c, 15, 35, 0
22, 114480, Note_on_c, 15, 36, 84
22, 114584, Note_on_c, 15, 36, 0
22, 114600, Note_on_c, 15, 36, 84
22, 114704, Note_on_c, 15, 36, 0
22, 114720, Note_on_c, 15, 36, 84
22, 115304, Note_on_c, 15, 36, 0
22, 115320, Note_on_c, 15, 37, 84
22, 115424, Note_on_c, 15, 37, 0
22, 115440, Note_on_c, 15, 38, 84
22, 115544, Note_on_c, 15, 38, 0
22, 115560, Note_on_c, 15, 38, 84
22, 115664, Note_on_c, 15, 38, 0
22, 115680, Note_on_c, 15, 38, 84
22, 116264, Note_on_c, 15, 38, 0
22, 116280, Note_on_c, 15, 37, 84
22, 116384, Note_on_c, 15, 37, 0
22, 116400, Note_on_c, 15, 38, 84
22, 116504, Note_on_c, 15, 38, 0
22, 116520, Note_on_c, 15, 38, 84
22, 116624, Note_on_c, 15, 38, 0
22, 116640, Note_on_c, 15, 38, 84
22, 117224, Note_on_c, 15, 38, 0
22, 117240, Note_on_c, 15, 37, 84
22, 117344, Note_on_c, 15, 37, 0
22, 117360, Note_on_c, 15, 38, 84
22, 117464, Note_on_c, 15, 38, 0
22, 117480, Note_on_c, 15, 38, 84
22, 117584, Note_on_c, 15, 38, 0
22, 117600, Note_on_c, 15, 38, 84
22, 118184, Note_on_c, 15, 38, 0
22, 118200, Note_on_c, 15, 37, 84
22, 118304, Note_on_c, 15, 37, 0
22, 118320, Note_on_c, 15, 38, 84
22, 118424, Note_on_c, 15, 38, 0
22, 118440, Note_on_c, 15, 38, 84
22, 118544, Note_on_c, 15, 38, 0
22, 118560, Note_on_c, 15, 38, 84
22, 118664, Note_on_c, 15, 38, 0
22, 118680, Note_on_c, 15, 37, 84
22, 118784, Note_on_c, 15, 37, 0
22, 118800, Note_on_c, 15, 38, 84
22, 118904, Note_on_c, 15, 38, 0
22, 118920, Note_on_c, 15, 38, 84
22, 119024, Note_on_c, 15, 38, 0
22, 119040, Note_on_c, 15, 38, 84
22, 119144, Note_on_c, 15, 38, 0
22, 119160, Note_on_c, 15, 37, 84
22, 119264, Note_on_c, 15, 37, 0
22, 119280, Note_on_c, 15, 38, 84
22, 119384, Note_on_c, 15, 38, 0
22, 119400, Note_on_c, 15, 38, 84
22, 119504, Note_on_c, 15, 38, 0
22, 119520, Note_on_c, 15, 38, 84
22, 119624, Note_on_c, 15, 38, 0
22, 119640, Note_on_c, 15, 37, 84
22, 119744, Note_on_c, 15, 37, 0
22, 119760, Note_on_c, 15, 38, 84
22, 119864, Note_on_c, 15, 38, 0
22, 119880, Note_on_c, 15, 38, 84
22, 119984, Note_on_c, 15, 38, 0
22, 120000, Note_on_c, 15, 38, 84
22, 120104, Note_on_c, 15, 38, 0
22, 120120, Note_on_c, 15, 50, 84
22, 120239, Note_on_c, 15, 50, 0
22, 120240, Note_on_c, 15, 48, 84
22, 120344, Note_on_c, 15, 48, 0
22, 120360, Note_on_c, 15, 47, 84
22, 120449, Note_on_c, 15, 47, 0
22, 120480, Note_on_c, 15, 45, 84
22, 120569, Note_on_c, 15, 45, 0
22, 120600, Note_on_c, 15, 47, 84
22, 120719, Note_on_c, 15, 47, 0
22, 120720, Note_on_c, 15, 45, 84
22, 120824, Note_on_c, 15, 45, 0
22, 120840, Note_on_c, 15, 43, 84
22, 120929, Note_on_c, 15, 43, 0
22, 120960, Note_on_c, 15, 42, 84
22, 121049, Note_on_c, 15, 42, 0
22, 121080, Note_on_c, 15, 43, 84
22, 121199, Note_on_c, 15, 43, 0
22, 121200, Note_on_c, 15, 42, 84
22, 121304, Note_on_c, 15, 42, 0
22, 121320, Note_on_c, 15, 40, 84
22, 121409, Note_on_c, 15, 40, 0
22, 121440, Note_on_c, 15, 38, 84
22, 121529, Note_on_c, 15, 38, 0
22, 121560, Note_on_c, 15, 38, 84
22, 121679, Note_on_c, 15, 38, 0
22, 121680, Note_on_c, 15, 40, 84
22, 121784, Note_on_c, 15, 40, 0
22, 121800, Note_on_c, 15, 33, 84
22, 121889, Note_on_c, 15, 33, 0
22, 121920, Note_on_c, 15, 38, 84
22, 122039, Note_on_c, 15, 38, 0
22, 123000, Note_on_c, 15, 38, 84
22, 123119, Note_on_c, 15, 38, 0
22, 123120, Note_on_c, 15, 36, 84
22, 123224, Note_on_c, 15, 36, 0
22, 123240, Note_on_c, 15, 45, 84
22, 123329, Note_on_c, 15, 45, 0
22, 123360, Note_on_c, 15, 36, 84
22, 123449, Note_on_c, 15, 36, 0
22, 123480, Note_on_c, 15, 35, 84
22, 123599, Note_on_c, 15, 35, 0
22, 123600, Note_on_c, 15, 33, 84
22, 123704, Note_on_c, 15, 33, 0
22, 123720, Note_on_c, 15, 42, 84
22, 123809, Note_on_c, 15, 42, 0
22, 123840, Note_on_c, 15, 31, 84
22, 124079, Note_on_c, 15, 31, 0
22, 124320, Note_on_c, 15, 31, 84
22, 124559, Note_on_c, 15, 31, 0
22, 124800, Note_on_c, 15, 31, 84
22, 125024, Note_on_c, 15, 31, 0
22, 125040, Note_on_c, 15, 38, 84
22, 125119, Note_on_c, 15, 38, 0
22, 125120, Note_on_c, 15, 40, 84
22, 125199, Note_on_c, 15, 40, 0
22, 125200, Note_on_c, 15, 42, 84
22, 125267, Note_on_c, 15, 42, 0
22, 125280, Note_on_c, 15, 43, 84
22, 125519, Note_on_c, 15, 43, 0
22, 126960, Note_on_c, 15, 42, 52
22, 127039, Note_on_c, 15, 42, 0
22, 127040, Note_on_c, 15, 43, 56
22, 127119, Note_on_c, 15, 43, 0
22, 127120, Note_on_c, 15, 45, 60
22, 127187, Note_on_c, 15, 45, 0
22, 127200, Note_on_c, 15, 38, 64
22, 127424, Note_on_c, 15, 38, 0
22, 127440, Note_on_c, 15, 36, 76
22, 127507, Note_on_c, 15, 36, 0
22, 127520, Note_on_c, 15, 35, 76
22, 127587, Note_on_c, 15, 35, 0
22, 127600, Note_on_c, 15, 33, 76
22, 127667, Note_on_c, 15, 33, 0
22, 127680, Note_on_c, 15, 31, 76
22, 127919, Note_on_c, 15, 31, 0
22, 128160, Note_on_c, 15, 31, 76
22, 128399, Note_on_c, 15, 31, 0
22, 128640, Note_on_c, 15, 31, 76
22, 128864, Note_on_c, 15, 31, 0
22, 128880, Note_on_c, 15, 38, 76
22, 128947, Note_on_c, 15, 38, 0
22, 128960, Note_on_c, 15, 40, 76
22, 129027, Note_on_c, 15, 40, 0
22, 129040, Note_on_c, 15, 42, 76
22, 129107, Note_on_c, 15, 42, 0
22, 129120, Note_on_c, 15, 43, 76
22, 129359, Note_on_c, 15, 43, 0
22, 130800, Note_on_c, 15, 38, 76
22, 130867, Note_on_c, 15, 38, 0
22, 130880, Note_on_c, 15, 40, 76
22, 130947, Note_on_c, 15, 40, 0
22, 130960, Note_on_c, 15, 42, 76
22, 131027, Note_on_c, 15, 42, 0
22, 131040, Note_on_c, 15, 43, 76
22, 131279, Note_on_c, 15, 43, 0
22, 132720, Note_on_c, 15, 40, 76
22, 132787, Note_on_c, 15, 40, 0
22, 132800, Note_on_c, 15, 42, 76
22, 132867, Note_on_c, 15, 42, 0
22, 132880, Note_on_c, 15, 44, 76
22, 132947, Note_on_c, 15, 44, 0
22, 132960, Note_on_c, 15, 45, 76
22, 133184, Note_on_c, 15, 45, 0
22, 133200, Note_on_c, 15, 36, 44
22, 133439, Note_on_c, 15, 36, 0
22, 133440, Note_on_c, 15, 35, 44
22, 133919, Note_on_c, 15, 35, 0
22, 133920, Note_on_c, 15, 36, 44
22, 134384, Note_on_c, 15, 36, 0
22, 134400, Note_on_c, 15, 31, 44
22, 134504, Note_on_c, 15, 31, 0
22, 134520, Note_on_c, 15, 43, 46
22, 134624, Note_on_c, 15, 43, 0
22, 134640, Note_on_c, 15, 43, 49
22, 134744, Note_on_c, 15, 43, 0
22, 134760, Note_on_c, 15, 43, 51
22, 134864, Note_on_c, 15, 43, 0
22, 134880, Note_on_c, 15, 43, 54
22, 134984, Note_on_c, 15, 43, 0
22, 135000, Note_on_c, 15, 43, 56
22, 135104, Note_on_c, 15, 43, 0
22, 135120, Note_on_c, 15, 43, 59
22, 135224, Note_on_c, 15, 43, 0
22, 135240, Note_on_c, 15, 43, 61
22, 135344, Note_on_c, 15, 43, 0
22, 135360, Note_on_c, 15, 43, 64
22, 135464, Note_on_c, 15, 43, 0
22, 135480, Note_on_c, 15, 43, 66
22, 135584, Note_on_c, 15, 43, 0
22, 135600, Note_on_c, 15, 43, 69
22, 135704, Note_on_c, 15, 43, 0
22, 135720, Note_on_c, 15, 43, 71
22, 135824, Note_on_c, 15, 43, 0
22, 135840, Note_on_c, 15, 43, 74
22, 135944, Note_on_c, 15, 43, 0
22, 135960, Note_on_c, 15, 43, 76
22, 136064, Note_on_c, 15, 43, 0
22, 136080, Note_on_c, 15, 43, 79
22, 136184, Note_on_c, 15, 43, 0
22, 136200, Note_on_c, 15, 43, 81
22, 136304, Note_on_c, 15, 43, 0
22, 136320, Note_on_c, 15, 36, 84
22, 136904, Note_on_c, 15, 36, 0
22, 136920, Note_on_c, 15, 36, 84
22, 137024, Note_on_c, 15, 36, 0
22, 137040, Note_on_c, 15, 36, 84
22, 137144, Note_on_c, 15, 36, 0
22, 137160, Note_on_c, 15, 36, 84
22, 137264, Note_on_c, 15, 36, 0
22, 137280, Note_on_c, 15, 36, 84
22, 137384, Note_on_c, 15, 36, 0
22, 137400, Note_on_c, 15, 36, 84
22, 137504, Note_on_c, 15, 36, 0
22, 137520, Note_on_c, 15, 36, 84
22, 137624, Note_on_c, 15, 36, 0
22, 137640, Note_on_c, 15, 36, 84
22, 137744, Note_on_c, 15, 36, 0
22, 137760, Note_on_c, 15, 36, 84
22, 137864, Note_on_c, 15, 36, 0
22, 137880, Note_on_c, 15, 36, 84
22, 137984, Note_on_c, 15, 36, 0
22, 138000, Note_on_c, 15, 36, 84
22, 138104, Note_on_c, 15, 36, 0
22, 138120, Note_on_c, 15, 36, 84
22, 138224, Note_on_c, 15, 36, 0
22, 138240, Note_on_c, 15, 36, 84
22, 138344, Note_on_c, 15, 36, 0
22, 138360, Note_on_c, 15, 36, 84
22, 138464, Note_on_c, 15, 36, 0
22, 138480, Note_on_c, 15, 37, 84
22, 138584, Note_on_c, 15, 37, 0
22, 138600, Note_on_c, 15, 37, 84
22, 138704, Note_on_c, 15, 37, 0
22, 138720, Note_on_c, 15, 38, 84
22, 138824, Note_on_c, 15, 38, 0
22, 138840, Note_on_c, 15, 38, 84
22, 138944, Note_on_c, 15, 38, 0
22, 138960, Note_on_c, 15, 39, 84
22, 139064, Note_on_c, 15, 39, 0
22, 139080, Note_on_c, 15, 39, 84
22, 139184, Note_on_c, 15, 39, 0
22, 139200, Note_on_c, 15, 40, 84
22, 139304, Note_on_c, 15, 40, 0
22, 139320, Note_on_c, 15, 40, 84
22, 139424, Note_on_c, 15, 40, 0
22, 139440, Note_on_c, 15, 42, 84
22, 139544, Note_on_c, 15, 42, 0
22, 139560, Note_on_c, 15, 42, 84
22, 139664, Note_on_c, 15, 42, 0
22, 139680, Note_on_c, 15, 43, 84
22, 139784, Note_on_c, 15, 43, 0
22, 139800, Note_on_c, 15, 31, 84
22, 139904, Note_on_c, 15, 31, 0
22, 139920, Note_on_c, 15, 33, 84
22, 140024, Note_on_c, 15, 33, 0
22, 140040, Note_on_c, 15, 35, 84
22, 140144, Note_on_c, 15, 35, 0
22, 140160, Note_on_c, 15, 36, 84
22, 140339, Note_on_c, 15, 36, 0
22, 141120, Note_on_c, 15, 38, 84
22, 141299, Note_on_c, 15, 38, 0
22, 149760, Note_on_c, 15, 35, 76
22, 150464, Note_on_c, 15, 35, 0
22, 150480, Note_on_c, 15, 33, 76
22, 150704, Note_on_c, 15, 33, 0
22, 150720, Note_on_c, 15, 31, 76
22, 150944, Note_on_c, 15, 31, 0
22, 150960, Note_on_c, 15, 30, 76
22, 151184, Note_on_c, 15, 30, 0
22, 151200, Note_on_c, 15, 30, 76
22, 151424, Note_on_c, 15, 30, 0
22, 151440, Note_on_c, 15, 30, 76
22, 151664, Note_on_c, 15, 30, 0
22, 151680, Note_on_c, 15, 35, 84
22, 151739, Note_on_c, 15, 35, 0
22, 151740, Note_on_c, 15, 35, 76
22, 152384, Note_on_c, 15, 35, 0
22, 152400, Note_on_c, 15, 33, 76
22, 152624, Note_on_c, 15, 33, 0
22, 152640, Note_on_c, 15, 31, 76
22, 152864, Note_on_c, 15, 31, 0
22, 152880, Note_on_c, 15, 30, 76
22, 153104, Note_on_c, 15, 30, 0
22, 153120, Note_on_c, 15, 30, 76
22, 153344, Note_on_c, 15, 30, 0
22, 153360, Note_on_c, 15, 30, 76
22, 153584, Note_on_c, 15, 30, 0
22, 153600, Note_on_c, 15, 30, 84
22, 153659, Note_on_c, 15, 30, 0
22, 153660, Note_on_c, 15, 30, 76
22, 154304, Note_on_c, 15, 30, 0
22, 154320, Note_on_c, 15, 31, 76
22, 154544, Note_on_c, 15, 31, 0
22, 154560, Note_on_c, 15, 36, 76
22, 154784, Note_on_c, 15, 36, 0
22, 154800, Note_on_c, 15, 36, 80
22, 155024, Note_on_c, 15, 36, 0
22, 155040, Note_on_c, 15, 36, 80
22, 155264, Note_on_c, 15, 36, 0
22, 155280, Note_on_c, 15, 36, 80
22, 155504, Note_on_c, 15, 36, 0
22, 155520, Note_on_c, 15, 36, 80
22, 155744, Note_on_c, 15, 36, 0
22, 155760, Note_on_c, 15, 36, 80
22, 155984, Note_on_c, 15, 36, 0
22, 156000, Note_on_c, 15, 36, 80
22, 156224, Note_on_c, 15, 36, 0
22, 156240, Note_on_c, 15, 36, 80
22, 156464, Note_on_c, 15, 36, 0
22, 156480, Note_on_c, 15, 36, 80
22, 156704, Note_on_c, 15, 36, 0
22, 156720, Note_on_c, 15, 36, 80
22, 156944, Note_on_c, 15, 36, 0
22, 156960, Note_on_c, 15, 36, 80
22, 157184, Note_on_c, 15, 36, 0
22, 157200, Note_on_c, 15, 36, 80
22, 157424, Note_on_c, 15, 36, 0
22, 157440, Note_on_c, 15, 29, 84
22, 157529, Note_on_c, 15, 29, 0
22, 157560, Note_on_c, 15, 24, 84
22, 157649, Note_on_c, 15, 24, 0
22, 157680, Note_on_c, 15, 32, 84
22, 157799, Note_on_c, 15, 32, 0
22, 157800, Note_on_c, 15, 29, 84
22, 157904, Note_on_c, 15, 29, 0
22, 157920, Note_on_c, 15, 32, 84
22, 158009, Note_on_c, 15, 32, 0
22, 158040, Note_on_c, 15, 29, 84
22, 158129, Note_on_c, 15, 29, 0
22, 158160, Note_on_c, 15, 36, 84
22, 158279, Note_on_c, 15, 36, 0
22, 158280, Note_on_c, 15, 32, 84
22, 158384, Note_on_c, 15, 32, 0
22, 158400, Note_on_c, 15, 36, 84
22, 158489, Note_on_c, 15, 36, 0
22, 158520, Note_on_c, 15, 32, 84
22, 158609, Note_on_c, 15, 32, 0
22, 158640, Note_on_c, 15, 41, 84
22, 158759, Note_on_c, 15, 41, 0
22, 158760, Note_on_c, 15, 36, 84
22, 158864, Note_on_c, 15, 36, 0
22, 158880, Note_on_c, 15, 41, 84
22, 158969, Note_on_c, 15, 41, 0
22, 159000, Note_on_c, 15, 36, 84
22, 159089, Note_on_c, 15, 36, 0
22, 159120, Note_on_c, 15, 44, 84
22, 159239, Note_on_c, 15, 44, 0
22, 159240, Note_on_c, 15, 41, 84
22, 159344, Note_on_c, 15, 41, 0
22, 159360, Note_on_c, 15, 43, 84
22, 160319, Note_on_c, 15, 43, 0
22, 160320, Note_on_c, 15, 43, 84
22, 161264, Note_on_c, 15, 43, 0
22, 161280, Note_on_c, 15, 50, 84
22, 161384, Note_on_c, 15, 50, 0
22, 161400, Note_on_c, 15, 53, 84
22, 161504, Note_on_c, 15, 53, 0
22, 161520, Note_on_c, 15, 47, 84
22, 161624, Note_on_c, 15, 47, 0
22, 161640, Note_on_c, 15, 50, 84
22, 161744, Note_on_c, 15, 50, 0
22, 161760, Note_on_c, 15, 43, 84
22, 161864, Note_on_c, 15, 43, 0
22, 161880, Note_on_c, 15, 47, 84
22, 161984, Note_on_c, 15, 47, 0
22, 162000, Note_on_c, 15, 41, 84
22, 162104, Note_on_c, 15, 41, 0
22, 162120, Note_on_c, 15, 43, 84
22, 162224, Note_on_c, 15, 43, 0
22, 162240, Note_on_c, 15, 35, 84
22, 162344, Note_on_c, 15, 35, 0
22, 162360, Note_on_c, 15, 38, 84
22, 162464, Note_on_c, 15, 38, 0
22, 162480, Note_on_c, 15, 31, 84
22, 162584, Note_on_c, 15, 31, 0
22, 162600, Note_on_c, 15, 35, 84
22, 162704, Note_on_c, 15, 35, 0
22, 162720, Note_on_c, 15, 31, 84
22, 162824, Note_on_c, 15, 31, 0
22, 162840, Note_on_c, 15, 38, 84
22, 162944, Note_on_c, 15, 38, 0
22, 162960, Note_on_c, 15, 35, 84
22, 163064, Note_on_c, 15, 35, 0
22, 163080, Note_on_c, 15, 31, 84
22, 163184, Note_on_c, 15, 31, 0
22, 163200, Note_on_c, 15, 32, 84
22, 163289, Note_on_c, 15, 32, 0
22, 163320, Note_on_c, 15, 28, 84
22, 163409, Note_on_c, 15, 28, 0
22, 163440, Note_on_c, 15, 35, 84
22, 163559, Note_on_c, 15, 35, 0
22, 163560, Note_on_c, 15, 32, 84
22, 163664, Note_on_c, 15, 32, 0
22, 163680, Note_on_c, 15, 35, 84
22, 163769, Note_on_c, 15, 35, 0
22, 163800, Note_on_c, 15, 32, 84
22, 163889, Note_on_c, 15, 32, 0
22, 163920, Note_on_c, 15, 40, 84
22, 164039, Note_on_c, 15, 40, 0
22, 164040, Note_on_c, 15, 35, 84
22, 164144, Note_on_c, 15, 35, 0
22, 164160, Note_on_c, 15, 40, 84
22, 164249, Note_on_c, 15, 40, 0
22, 164280, Note_on_c, 15, 35, 84
22, 164369, Note_on_c, 15, 35, 0
22, 164400, Note_on_c, 15, 44, 84
22, 164519, Note_on_c, 15, 44, 0
22, 164520, Note_on_c, 15, 40, 84
22, 164624, Note_on_c, 15, 40, 0
22, 164640, Note_on_c, 15, 44, 84
22, 164729, Note_on_c, 15, 44, 0
22, 164760, Note_on_c, 15, 40, 84
22, 164849, Note_on_c, 15, 40, 0
22, 164880, Note_on_c, 15, 47, 84
22, 164999, Note_on_c, 15, 47, 0
22, 165000, Note_on_c, 15, 44, 84
22, 165104, Note_on_c, 15, 44, 0
22, 165120, Note_on_c, 15, 52, 84
22, 165209, Note_on_c, 15, 52, 0
22, 165240, Note_on_c, 15, 47, 84
22, 165329, Note_on_c, 15, 47, 0
22, 165360, Note_on_c, 15, 44, 84
22, 165449, Note_on_c, 15, 44, 0
22, 165480, Note_on_c, 15, 47, 84
22, 165569, Note_on_c, 15, 47, 0
22, 165600, Note_on_c, 15, 40, 84
22, 165689, Note_on_c, 15, 40, 0
22, 165720, Note_on_c, 15, 44, 84
22, 165809, Note_on_c, 15, 44, 0
22, 165840, Note_on_c, 15, 38, 84
22, 165929, Note_on_c, 15, 38, 0
22, 165960, Note_on_c, 15, 40, 84
22, 166049, Note_on_c, 15, 40, 0
22, 166080, Note_on_c, 15, 35, 84
22, 166169, Note_on_c, 15, 35, 0
22, 166200, Note_on_c, 15, 38, 84
22, 166289, Note_on_c, 15, 38, 0
22, 166320, Note_on_c, 15, 32, 84
22, 166409, Note_on_c, 15, 32, 0
22, 166440, Note_on_c, 15, 35, 84
22, 166529, Note_on_c, 15, 35, 0
22, 166560, Note_on_c, 15, 28, 84
22, 166664, Note_on_c, 15, 28, 0
22, 166680, Note_on_c, 15, 40, 84
22, 166784, Note_on_c, 15, 40, 0
22, 166800, Note_on_c, 15, 40, 84
22, 166904, Note_on_c, 15, 40, 0
22, 166920, Note_on_c, 15, 40, 84
22, 167024, Note_on_c, 15, 40, 0
22, 167040, Note_on_c, 15, 33, 84
22, 167279, Note_on_c, 15, 33, 0
22, 167520, Note_on_c, 15, 33, 84
22, 167759, Note_on_c, 15, 33, 0
22, 168000, Note_on_c, 15, 33, 84
22, 168224, Note_on_c, 15, 33, 0
22, 168240, Note_on_c, 15, 40, 84
22, 168307, Note_on_c, 15, 40, 0
22, 168320, Note_on_c, 15, 42, 84
22, 168387, Note_on_c, 15, 42, 0
22, 168400, Note_on_c, 15, 44, 84
22, 168467, Note_on_c, 15, 44, 0
22, 168480, Note_on_c, 15, 45, 84
22, 168704, Note_on_c, 15, 45, 0
22, 183120, Note_on_c, 15, 34, 76
22, 183344, Note_on_c, 15, 34, 0
22, 183360, Note_on_c, 15, 33, 76
22, 183824, Note_on_c, 15, 33, 0
22, 183840, Note_on_c, 15, 34, 76
22, 184304, Note_on_c, 15, 34, 0
22, 184320, Note_on_c, 15, 36, 76
22, 185279, Note_on_c, 15, 36, 0
22, 185280, Note_on_c, 15, 36, 76
22, 185984, Note_on_c, 15, 36, 0
22, 186000, Note_on_c, 15, 36, 76
22, 186224, Note_on_c, 15, 36, 0
22, 186240, Note_on_c, 15, 34, 76
22, 186704, Note_on_c, 15, 34, 0
22, 186720, Note_on_c, 15, 36, 76
22, 187184, Note_on_c, 15, 36, 0
22, 187200, Note_on_c, 15, 37, 76
22, 188159, Note_on_c, 15, 37, 0
22, 188160, Note_on_c, 15, 37, 76
22, 188864, Note_on_c, 15, 37, 0
22, 190080, Note_on_c, 15, 36, 76
22, 191039, Note_on_c, 15, 36, 0
22, 191040, Note_on_c, 15, 36, 76
22, 191744, Note_on_c, 15, 36, 0
22, 192960, Note_on_c, 15, 38, 76
22, 193919, Note_on_c, 15, 38, 0
22, 193920, Note_on_c, 15, 38, 76
22, 194624, Note_on_c, 15, 38, 0
22, 194640, Note_on_c, 15, 37, 76
22, 194864, Note_on_c, 15, 37, 0
22, 194880, Note_on_c, 15, 37, 76
22, 195824, Note_on_c, 15, 37, 0
22, 195840, Note_on_c, 15, 36, 76
22, 196799, Note_on_c, 15, 36, 0
22, 196800, Note_on_c, 15, 36, 76
22, 197984, Note_on_c, 15, 36, 0
22, 198000, Note_on_c, 15, 37, 80
22, 198224, Note_on_c, 15, 37, 0
22, 198240, Note_on_c, 15, 36, 80
22, 198944, Note_on_c, 15, 36, 0
22, 198960, Note_on_c, 15, 31, 80
22, 199139, Note_on_c, 15, 31, 0
22, 199200, Note_on_c, 15, 29, 80
22, 199904, Note_on_c, 15, 29, 0
22, 199920, Note_on_c, 15, 41, 80
22, 200099, Note_on_c, 15, 41, 0
22, 200160, Note_on_c, 15, 39, 80
22, 200864, Note_on_c, 15, 39, 0
22, 200880, Note_on_c, 15, 34, 80
22, 201059, Note_on_c, 15, 34, 0
22, 201120, Note_on_c, 15, 32, 80
22, 201824, Note_on_c, 15, 32, 0
22, 201840, Note_on_c, 15, 44, 80
22, 202019, Note_on_c, 15, 44, 0
22, 202080, Note_on_c, 15, 43, 80
22, 202784, Note_on_c, 15, 43, 0
22, 202800, Note_on_c, 15, 38, 80
22, 202979, Note_on_c, 15, 38, 0
22, 203040, Note_on_c, 15, 36, 80
22, 203744, Note_on_c, 15, 36, 0
22, 203760, Note_on_c, 15, 48, 80
22, 203939, Note_on_c, 15, 48, 0
22, 204000, Note_on_c, 15, 46, 80
22, 204704, Note_on_c, 15, 46, 0
22, 204720, Note_on_c, 15, 41, 80
22, 204899, Note_on_c, 15, 41, 0
22, 204960, Note_on_c, 15, 39, 80
22, 205139, Note_on_c, 15, 39, 0
22, 205200, Note_on_c, 15, 51, 80
22, 205379, Note_on_c, 15, 51, 0
22, 205440, Note_on_c, 15, 50, 80
22, 205507, Note_on_c, 15, 50, 0
22, 205520, Note_on_c, 15, 50, 80
22, 205587, Note_on_c, 15, 50, 0
22, 205600, Note_on_c, 15, 50, 80
22, 205667, Note_on_c, 15, 50, 0
22, 205680, Note_on_c, 15, 50, 80
22, 205747, Note_on_c, 15, 50, 0
22, 205760, Note_on_c, 15, 50, 80
22, 205827, Note_on_c, 15, 50, 0
22, 205840, Note_on_c, 15, 50, 80
22, 205907, Note_on_c, 15, 50, 0
22, 205920, Note_on_c, 15, 50, 80
22, 205987, Note_on_c, 15, 50, 0
22, 206000, Note_on_c, 15, 50, 80
22, 206067, Note_on_c, 15, 50, 0
22, 206080, Note_on_c, 15, 50, 80
22, 206147, Note_on_c, 15, 50, 0
22, 206160, Note_on_c, 15, 50, 80
22, 206227, Note_on_c, 15, 50, 0
22, 206240, Note_on_c, 15, 50, 80
22, 206307, Note_on_c, 15, 50, 0
22, 206320, Note_on_c, 15, 50, 80
22, 206387, Note_on_c, 15, 50, 0
22, 206400, Note_on_c, 15, 50, 80
22, 206467, Note_on_c, 15, 50, 0
22, 206480, Note_on_c, 15, 50, 80
22, 206547, Note_on_c, 15, 50, 0
22, 206560, Note_on_c, 15, 50, 80
22, 206627, Note_on_c, 15, 50, 0
22, 206640, Note_on_c, 15, 50, 80
22, 206707, Note_on_c, 15, 50, 0
22, 206720, Note_on_c, 15, 50, 80
22, 206787, Note_on_c, 15, 50, 0
22, 206800, Note_on_c, 15, 50, 80
22, 206867, Note_on_c, 15, 50, 0
22, 206880, Note_on_c, 15, 50, 80
22, 206947, Note_on_c, 15, 50, 0
22, 206960, Note_on_c, 15, 50, 80
22, 207027, Note_on_c, 15, 50, 0
22, 207040, Note_on_c, 15, 50, 80
22, 207107, Note_on_c, 15, 50, 0
22, 207120, Note_on_c, 15, 50, 80
22, 207187, Note_on_c, 15, 50, 0
22, 207200, Note_on_c, 15, 50, 80
22, 207267, Note_on_c, 15, 50, 0
22, 207280, Note_on_c, 15, 50, 80
22, 207347, Note_on_c, 15, 50, 0
22, 207360, Note_on_c, 15, 31, 84
22, 208319, Note_on_c, 15, 31, 0
22, 208320, Note_on_c, 15, 31, 84
22, 209264, Note_on_c, 15, 31, 0
22, 209280, Note_on_c, 15, 31, 84
22, 210239, Note_on_c, 15, 31, 0
22, 210240, Note_on_c, 15, 31, 84
22, 211184, Note_on_c, 15, 31, 0
22, 211200, Note_on_c, 15, 31, 84
22, 212159, Note_on_c, 15, 31, 0
22, 212160, Note_on_c, 15, 31, 84
22, 213104, Note_on_c, 15, 31, 0
22, 213120, Note_on_c, 15, 31, 84
22, 214079, Note_on_c, 15, 31, 0
22, 214080, Note_on_c, 15, 31, 84
22, 215024, Note_on_c, 15, 31, 0
22, 215040, Note_on_c, 15, 31, 92
22, 215107, Note_on_c, 15, 31, 0
22, 215120, Note_on_c, 15, 31, 84
22, 215187, Note_on_c, 15, 31, 0
22, 215200, Note_on_c, 15, 31, 84
22, 215267, Note_on_c, 15, 31, 0
22, 215280, Note_on_c, 15, 31, 84
22, 215347, Note_on_c, 15, 31, 0
22, 215360, Note_on_c, 15, 31, 84
22, 215427, Note_on_c, 15, 31, 0
22, 215440, Note_on_c, 15, 31, 84
22, 215507, Note_on_c, 15, 31, 0
22, 215520, Note_on_c, 15, 31, 84
22, 215587, Note_on_c, 15, 31, 0
22, 215600, Note_on_c, 15, 31, 84
22, 215667, Note_on_c, 15, 31, 0
22, 215680, Note_on_c, 15, 31, 84
22, 215747, Note_on_c, 15, 31, 0
22, 215760, Note_on_c, 15, 31, 84
22, 215827, Note_on_c, 15, 31, 0
22, 215840, Note_on_c, 15, 31, 84
22, 215907, Note_on_c, 15, 31, 0
22, 215920, Note_on_c, 15, 31, 84
22, 215987, Note_on_c, 15, 31, 0
22, 216000, Note_on_c, 15, 31, 92
22, 216067, Note_on_c, 15, 31, 0
22, 216080, Note_on_c, 15, 31, 84
22, 216147, Note_on_c, 15, 31, 0
22, 216160, Note_on_c, 15, 31, 84
22, 216227, Note_on_c, 15, 31, 0
22, 216240, Note_on_c, 15, 31, 84
22, 216307, Note_on_c, 15, 31, 0
22, 216320, Note_on_c, 15, 31, 84
22, 216387, Note_on_c, 15, 31, 0
22, 216400, Note_on_c, 15, 31, 84
22, 216467, Note_on_c, 15, 31, 0
22, 216480, Note_on_c, 15, 31, 84
22, 216547, Note_on_c, 15, 31, 0
22, 216560, Note_on_c, 15, 31, 84
22, 216627, Note_on_c, 15, 31, 0
22, 216640, Note_on_c, 15, 31, 84
22, 216707, Note_on_c, 15, 31, 0
22, 216720, Note_on_c, 15, 31, 84
22, 216787, Note_on_c, 15, 31, 0
22, 216800, Note_on_c, 15, 31, 84
22, 216867, Note_on_c, 15, 31, 0
22, 216880, Note_on_c, 15, 31, 84
22, 216947, Note_on_c, 15, 31, 0
22, 216960, Note_on_c, 15, 31, 84
22, 217027, Note_on_c, 15, 31, 0
22, 217040, Note_on_c, 15, 31, 84
22, 217107, Note_on_c, 15, 31, 0
22, 217120, Note_on_c, 15, 31, 84
22, 217187, Note_on_c, 15, 31, 0
22, 217200, Note_on_c, 15, 31, 84
22, 217267, Note_on_c, 15, 31, 0
22, 217280, Note_on_c, 15, 31, 84
22, 217347, Note_on_c, 15, 31, 0
22, 217360, Note_on_c, 15, 31, 84
22, 217427, Note_on_c, 15, 31, 0
22, 217440, Note_on_c, 15, 31, 84
22, 217507, Note_on_c, 15, 31, 0
22, 217520, Note_on_c, 15, 31, 84
22, 217587, Note_on_c, 15, 31, 0
22, 217600, Note_on_c, 15, 31, 84
22, 217667, Note_on_c, 15, 31, 0
22, 217680, Note_on_c, 15, 31, 84
22, 217747, Note_on_c, 15, 31, 0
22, 217760, Note_on_c, 15, 31, 84
22, 217827, Note_on_c, 15, 31, 0
22, 217840, Note_on_c, 15, 31, 84
22, 217907, Note_on_c, 15, 31, 0
22, 217920, Note_on_c, 15, 31, 84
22, 217987, Note_on_c, 15, 31, 0
22, 218000, Note_on_c, 15, 31, 84
22, 218067, Note_on_c, 15, 31, 0
22, 218080, Note_on_c, 15, 31, 84
22, 218147, Note_on_c, 15, 31, 0
22, 218160, Note_on_c, 15, 31, 84
22, 218227, Note_on_c, 15, 31, 0
22, 218240, Note_on_c, 15, 31, 84
22, 218307, Note_on_c, 15, 31, 0
22, 218320, Note_on_c, 15, 31, 84
22, 218387, Note_on_c, 15, 31, 0
22, 218400, Note_on_c, 15, 31, 84
22, 218467, Note_on_c, 15, 31, 0
22, 218480, Note_on_c, 15, 31, 84
22, 218547, Note_on_c, 15, 31, 0
22, 218560, Note_on_c, 15, 31, 84
22, 218627, Note_on_c, 15, 31, 0
22, 218640, Note_on_c, 15, 31, 84
22, 218707, Note_on_c, 15, 31, 0
22, 218720, Note_on_c, 15, 31, 84
22, 218787, Note_on_c, 15, 31, 0
22, 218800, Note_on_c, 15, 31, 84
22, 218867, Note_on_c, 15, 31, 0
22, 218880, Note_on_c, 15, 31, 84
22, 219464, Note_on_c, 15, 31, 0
22, 219480, Note_on_c, 15, 38, 84
22, 219584, Note_on_c, 15, 38, 0
22, 219600, Note_on_c, 15, 35, 84
22, 219704, Note_on_c, 15, 35, 0
22, 219720, Note_on_c, 15, 38, 84
22, 219824, Note_on_c, 15, 38, 0
22, 219840, Note_on_c, 15, 43, 84
22, 220424, Note_on_c, 15, 43, 0
22, 220440, Note_on_c, 15, 38, 84
22, 220544, Note_on_c, 15, 38, 0
22, 220560, Note_on_c, 15, 35, 84
22, 220664, Note_on_c, 15, 35, 0
22, 220680, Note_on_c, 15, 38, 84
22, 220784, Note_on_c, 15, 38, 0
22, 220800, Note_on_c, 15, 43, 84
22, 220904, Note_on_c, 15, 43, 0
22, 220920, Note_on_c, 15, 50, 84
22, 221024, Note_on_c, 15, 50, 0
22, 221040, Note_on_c, 15, 47, 84
22, 221144, Note_on_c, 15, 47, 0
22, 221160, Note_on_c, 15, 50, 84
22, 221264, Note_on_c, 15, 50, 0
22, 221280, Note_on_c, 15, 50, 84
22, 221384, Note_on_c, 15, 50, 0
22, 221400, Note_on_c, 15, 47, 84
22, 221504, Note_on_c, 15, 47, 0
22, 221520, Note_on_c, 15, 43, 84
22, 221624, Note_on_c, 15, 43, 0
22, 221640, Note_on_c, 15, 47, 84
22, 221744, Note_on_c, 15, 47, 0
22, 221760, Note_on_c, 15, 47, 84
22, 221864, Note_on_c, 15, 47, 0
22, 221880, Note_on_c, 15, 43, 84
22, 221984, Note_on_c, 15, 43, 0
22, 222000, Note_on_c, 15, 38, 84
22, 222104, Note_on_c, 15, 38, 0
22, 222120, Note_on_c, 15, 43, 84
22, 222224, Note_on_c, 15, 43, 0
22, 222240, Note_on_c, 15, 43, 84
22, 222344, Note_on_c, 15, 43, 0
22, 222360, Note_on_c, 15, 38, 84
22, 222464, Note_on_c, 15, 38, 0
22, 222480, Note_on_c, 15, 35, 84
22, 222584, Note_on_c, 15, 35, 0
22, 222600, Note_on_c, 15, 38, 84
22, 222704, Note_on_c, 15, 38, 0
22, 222720, Note_on_c, 15, 38, 84
22, 222824, Note_on_c, 15, 38, 0
22, 222840, Note_on_c, 15, 35, 84
22, 222944, Note_on_c, 15, 35, 0
22, 222960, Note_on_c, 15, 31, 84
22, 223064, Note_on_c, 15, 31, 0
22, 223080, Note_on_c, 15, 47, 84
22, 223184, Note_on_c, 15, 47, 0
22, 223200, Note_on_c, 15, 47, 84
22, 223304, Note_on_c, 15, 47, 0
22, 223320, Note_on_c, 15, 43, 84
22, 223424, Note_on_c, 15, 43, 0
22, 223440, Note_on_c, 15, 38, 84
22, 223544, Note_on_c, 15, 38, 0
22, 223560, Note_on_c, 15, 43, 84
22, 223664, Note_on_c, 15, 43, 0
22, 223680, Note_on_c, 15, 43, 84
22, 223784, Note_on_c, 15, 43, 0
22, 223800, Note_on_c, 15, 38, 84
22, 223904, Note_on_c, 15, 38, 0
22, 223920, Note_on_c, 15, 35, 84
22, 224024, Note_on_c, 15, 35, 0
22, 224040, Note_on_c, 15, 38, 84
22, 224144, Note_on_c, 15, 38, 0
22, 224160, Note_on_c, 15, 43, 84
22, 224264, Note_on_c, 15, 43, 0
22, 224280, Note_on_c, 15, 38, 84
22, 224384, Note_on_c, 15, 38, 0
22, 224400, Note_on_c, 15, 35, 84
22, 224504, Note_on_c, 15, 35, 0
22, 224520, Note_on_c, 15, 38, 84
22, 224624, Note_on_c, 15, 38, 0
22, 224640, Note_on_c, 15, 31, 84
22, 225584, Note_on_c, 15, 31, 0
22, 225600, Note_on_c, 15, 31, 84
22, 226544, Note_on_c, 15, 31, 0
22, 226560, Note_on_c, 15, 31, 84
22, 227504, Note_on_c, 15, 31, 0
22, 227520, Note_on_c, 15, 31, 84
22, 227759, Note_on_c, 15, 31, 0
22, 264960, Note_on_c, 15, 36, 44
22, 265059, Note_on_c, 15, 36, 0
22, 265080, Note_on_c, 15, 36, 47
22, 265179, Note_on_c, 15, 36, 0
22, 265200, Note_on_c, 15, 36, 50
22, 265299, Note_on_c, 15, 36, 0
22, 265320, Note_on_c, 15, 36, 54
22, 265419, Note_on_c, 15, 36, 0
22, 265440, Note_on_c, 15, 36, 57
22, 265539, Note_on_c, 15, 36, 0
22, 265560, Note_on_c, 15, 36, 60
22, 265659, Note_on_c, 15, 36, 0
22, 265680, Note_on_c, 15, 36, 64
22, 265779, Note_on_c, 15, 36, 0
22, 265800, Note_on_c, 15, 36, 67
22, 265899, Note_on_c, 15, 36, 0
22, 265920, Note_on_c, 15, 36, 70
22, 266019, Note_on_c, 15, 36, 0
22, 266040, Note_on_c, 15, 36, 74
22, 266139, Note_on_c, 15, 36, 0
22, 266160, Note_on_c, 15, 36, 77
22, 266259, Note_on_c, 15, 36, 0
22, 266280, Note_on_c, 15, 36, 80
22, 266379, Note_on_c, 15, 36, 0
22, 266400, Note_on_c, 15, 36, 84
22, 266639, Note_on_c, 15, 36, 0
22, 266880, Note_on_c, 15, 36, 84
22, 267119, Note_on_c, 15, 36, 0
22, 267360, Note_on_c, 15, 36, 84
22, 268064, Note_on_c, 15, 36, 0
22, 268080, Note_on_c, 15, 31, 84
22, 268199, Note_on_c, 15, 31, 0
22, 268320, Note_on_c, 15, 36, 84
22, 268439, Note_on_c, 15, 36, 0
22, 268560, Note_on_c, 15, 31, 84
22, 268679, Note_on_c, 15, 31, 0
22, 268800, Note_on_c, 15, 36, 84
22, 268919, Note_on_c, 15, 36, 0
22, 269040, Note_on_c, 15, 31, 84
22, 269159, Note_on_c, 15, 31, 0
22, 269280, Note_on_c, 15, 36, 84
22, 269984, Note_on_c, 15, 36, 0
22, 270000, Note_on_c, 15, 36, 84
22, 270171, Note_on_c, 15, 36, 0
22, 270180, Note_on_c, 15, 36, 84
22, 270231, Note_on_c, 15, 36, 0
22, 270240, Note_on_c, 15, 31, 84
22, 270944, Note_on_c, 15, 31, 0
22, 270960, Note_on_c, 15, 31, 84
22, 271131, Note_on_c, 15, 31, 0
22, 271140, Note_on_c, 15, 31, 84
22, 271191, Note_on_c, 15, 31, 0
22, 271200, Note_on_c, 15, 36, 84
22, 272144, Note_on_c, 15, 36, 0
22, 272160, Note_on_c, 15, 33, 84
22, 272624, Note_on_c, 15, 33, 0
22, 272640, Note_on_c, 15, 29, 84
22, 273104, Note_on_c, 15, 29, 0
22, 273120, Note_on_c, 15, 28, 84
22, 273224, Note_on_c, 15, 28, 0
22, 273240, Note_on_c, 15, 29, 84
22, 273344, Note_on_c, 15, 29, 0
22, 273360, Note_on_c, 15, 28, 84
22, 273464, Note_on_c, 15, 28, 0
22, 273480, Note_on_c, 15, 26, 84
22, 273584, Note_on_c, 15, 26, 0
22, 273600, Note_on_c, 15, 24, 84
22, 274064, Note_on_c, 15, 24, 0
22, 274080, Note_on_c, 15, 33, 84
22, 274544, Note_on_c, 15, 33, 0
22, 274560, Note_on_c, 15, 29, 84
22, 275024, Note_on_c, 15, 29, 0
22, 275040, Note_on_c, 15, 28, 84
22, 275144, Note_on_c, 15, 28, 0
22, 275160, Note_on_c, 15, 29, 84
22, 275264, Note_on_c, 15, 29, 0
22, 275280, Note_on_c, 15, 28, 84
22, 275384, Note_on_c, 15, 28, 0
22, 275400, Note_on_c, 15, 26, 84
22, 275504, Note_on_c, 15, 26, 0
22, 275520, Note_on_c, 15, 24, 84
22, 275984, Note_on_c, 15, 24, 0
22, 276000, Note_on_c, 15, 33, 84
22, 276464, Note_on_c, 15, 33, 0
22, 276480, Note_on_c, 15, 29, 84
22, 276944, Note_on_c, 15, 29, 0
22, 276960, Note_on_c, 15, 28, 84
22, 277064, Note_on_c, 15, 28, 0
22, 277080, Note_on_c, 15, 29, 84
22, 277184, Note_on_c, 15, 29, 0
22, 277200, Note_on_c, 15, 28, 84
22, 277304, Note_on_c, 15, 28, 0
22, 277320, Note_on_c, 15, 26, 84
22, 277424, Note_on_c, 15, 26, 0
22, 277440, Note_on_c, 15, 24, 84
22, 277664, Note_on_c, 15, 24, 0
22, 277680, Note_on_c, 15, 36, 84
22, 277851, Note_on_c, 15, 36, 0
22, 277860, Note_on_c, 15, 36, 84
22, 277911, Note_on_c, 15, 36, 0
22, 277920, Note_on_c, 15, 35, 84
22, 278384, Note_on_c, 15, 35, 0
22, 278400, Note_on_c, 15, 36, 84
22, 278864, Note_on_c, 15, 36, 0
22, 278880, Note_on_c, 15, 31, 84
22, 279104, Note_on_c, 15, 31, 0
22, 279120, Note_on_c, 15, 31, 84
22, 279584, Note_on_c, 15, 31, 0
22, 279600, Note_on_c, 15, 36, 84
22, 279771, Note_on_c, 15, 36, 0
22, 279780, Note_on_c, 15, 36, 84
22, 279831, Note_on_c, 15, 36, 0
22, 279840, Note_on_c, 15, 35, 84
22, 280304, Note_on_c, 15, 35, 0
22, 280320, Note_on_c, 15, 36, 84
22, 280784, Note_on_c, 15, 36, 0
22, 280800, Note_on_c, 15, 31, 84
22, 281024, Note_on_c, 15, 31, 0
22, 281040, Note_on_c, 15, 31, 84
22, 281504, Note_on_c, 15, 31, 0
22, 281520, Note_on_c, 15, 36, 84
22, 281691, Note_on_c, 15, 36, 0
22, 281700, Note_on_c, 15, 36, 84
22, 281751, Note_on_c, 15, 36, 0
22, 281760, Note_on_c, 15, 35, 84
22, 281931, Note_on_c, 15, 35, 0
22, 281940, Note_on_c, 15, 35, 84
22, 281991, Note_on_c, 15, 35, 0
22, 282000, Note_on_c, 15, 31, 84
22, 282171, Note_on_c, 15, 31, 0
22, 282180, Note_on_c, 15, 31, 84
22, 282231, Note_on_c, 15, 31, 0
22, 282240, Note_on_c, 15, 36, 84
22, 282411, Note_on_c, 15, 36, 0
22, 282420, Note_on_c, 15, 36, 84
22, 282471, Note_on_c, 15, 36, 0
22, 282480, Note_on_c, 15, 40, 84
22, 282651, Note_on_c, 15, 40, 0
22, 282660, Note_on_c, 15, 40, 84
22, 282711, Note_on_c, 15, 40, 0
22, 282720, Note_on_c, 15, 43, 84
22, 282824, Note_on_c, 15, 43, 0
22, 282840, Note_on_c, 15, 31, 84
22, 282944, Note_on_c, 15, 31, 0
22, 282960, Note_on_c, 15, 31, 84
22, 283199, Note_on_c, 15, 31, 0
22, 283800, Note_on_c, 15, 31, 84
22, 283904, Note_on_c, 15, 31, 0
22, 283920, Note_on_c, 15, 31, 84
22, 284159, Note_on_c, 15, 31, 0
22, 284760, Note_on_c, 15, 31, 84
22, 284864, Note_on_c, 15, 31, 0
22, 284880, Note_on_c, 15, 31, 84
22, 285119, Note_on_c, 15, 31, 0
22, 285240, Note_on_c, 15, 31, 84
22, 285344, Note_on_c, 15, 31, 0
22, 285360, Note_on_c, 15, 31, 84
22, 285599, Note_on_c, 15, 31, 0
22, 285720, Note_on_c, 15, 31, 84
22, 285824, Note_on_c, 15, 31, 0
22, 285840, Note_on_c, 15, 31, 84
22, 286079, Note_on_c, 15, 31, 0
22, 286200, Note_on_c, 15, 31, 84
22, 286304, Note_on_c, 15, 31, 0
22, 286320, Note_on_c, 15, 31, 84
22, 286544, Note_on_c, 15, 31, 0
22, 286560, Note_on_c, 15, 31, 84
22, 286799, Note_on_c, 15, 31, 0
22, 289560, Note_on_c, 15, 48, 92
22, 289679, Note_on_c, 15, 48, 0
22, 289680, Note_on_c, 15, 47, 84
22, 289784, Note_on_c, 15, 47, 0
22, 289800, Note_on_c, 15, 45, 84
22, 289889, Note_on_c, 15, 45, 0
22, 289920, Note_on_c, 15, 43, 84
22, 290009, Note_on_c, 15, 43, 0
22, 290040, Note_on_c, 15, 41, 84
22, 290129, Note_on_c, 15, 41, 0
22, 290160, Note_on_c, 15, 40, 84
22, 290249, Note_on_c, 15, 40, 0
22, 290280, Note_on_c, 15, 38, 84
22, 290369, Note_on_c, 15, 38, 0
22, 290400, Note_on_c, 15, 36, 84
22, 290639, Note_on_c, 15, 36, 0
22, 292320, Note_on_c, 15, 31, 84
22, 292904, Note_on_c, 15, 31, 0
22, 292920, Note_on_c, 15, 31, 84
22, 293009, Note_on_c, 15, 31, 0
22, 293040, Note_on_c, 15, 35, 84
22, 293129, Note_on_c, 15, 35, 0
22, 293160, Note_on_c, 15, 38, 84
22, 293249, Note_on_c, 15, 38, 0
22, 293280, Note_on_c, 15, 41, 84
22, 293369, Note_on_c, 15, 41, 0
22, 293400, Note_on_c, 15, 43, 84
22, 293489, Note_on_c, 15, 43, 0
22, 293520, Note_on_c, 15, 47, 84
22, 293609, Note_on_c, 15, 47, 0
22, 293640, Note_on_c, 15, 50, 84
22, 293729, Note_on_c, 15, 50, 0
22, 293760, Note_on_c, 15, 53, 84
22, 293849, Note_on_c, 15, 53, 0
22, 293880, Note_on_c, 15, 55, 84
22, 293969, Note_on_c, 15, 55, 0
22, 294000, Note_on_c, 15, 53, 84
22, 294089, Note_on_c, 15, 53, 0
22, 294120, Note_on_c, 15, 50, 84
22, 294209, Note_on_c, 15, 50, 0
22, 294240, Note_on_c, 15, 47, 84
22, 294344, Note_on_c, 15, 47, 0
22, 294360, Note_on_c, 15, 50, 84
22, 294464, Note_on_c, 15, 50, 0
22, 294480, Note_on_c, 15, 47, 84
22, 294584, Note_on_c, 15, 47, 0
22, 294600, Note_on_c, 15, 43, 84
22, 294704, Note_on_c, 15, 43, 0
22, 294720, Note_on_c, 15, 41, 84
22, 294824, Note_on_c, 15, 41, 0
22, 294840, Note_on_c, 15, 38, 84
22, 294944, Note_on_c, 15, 38, 0
22, 294960, Note_on_c, 15, 35, 84
22, 295064, Note_on_c, 15, 35, 0
22, 295080, Note_on_c, 15, 38, 84
22, 295184, Note_on_c, 15, 38, 0
22, 295200, Note_on_c, 15, 31, 84
22, 295439, Note_on_c, 15, 31, 0
22, 296160, Note_on_c, 15, 24, 84
22, 296744, Note_on_c, 15, 24, 0
22, 296760, Note_on_c, 15, 24, 84
22, 296864, Note_on_c, 15, 24, 0
22, 296880, Note_on_c, 15, 28, 84
22, 296984, Note_on_c, 15, 28, 0
22, 297000, Note_on_c, 15, 31, 84
22, 297104, Note_on_c, 15, 31, 0
22, 297120, Note_on_c, 15, 36, 84
22, 297224, Note_on_c, 15, 36, 0
22, 297240, Note_on_c, 15, 40, 84
22, 297344, Note_on_c, 15, 40, 0
22, 297360, Note_on_c, 15, 43, 84
22, 297464, Note_on_c, 15, 43, 0
22, 297480, Note_on_c, 15, 48, 84
22, 297584, Note_on_c, 15, 48, 0
22, 297600, Note_on_c, 15, 52, 84
22, 297704, Note_on_c, 15, 52, 0
22, 297720, Note_on_c, 15, 48, 84
22, 297824, Note_on_c, 15, 48, 0
22, 297840, Note_on_c, 15, 43, 84
22, 297944, Note_on_c, 15, 43, 0
22, 297960, Note_on_c, 15, 40, 84
22, 298064, Note_on_c, 15, 40, 0
22, 298080, Note_on_c, 15, 34, 84
22, 298184, Note_on_c, 15, 34, 0
22, 298200, Note_on_c, 15, 33, 84
22, 298304, Note_on_c, 15, 33, 0
22, 298320, Note_on_c, 15, 34, 84
22, 298424, Note_on_c, 15, 34, 0
22, 298440, Note_on_c, 15, 34, 84
22, 298544, Note_on_c, 15, 34, 0
22, 298560, Note_on_c, 15, 34, 84
22, 299144, Note_on_c, 15, 34, 0
22, 299160, Note_on_c, 15, 33, 84
22, 299264, Note_on_c, 15, 33, 0
22, 299280, Note_on_c, 15, 34, 84
22, 299384, Note_on_c, 15, 34, 0
22, 299400, Note_on_c, 15, 34, 84
22, 299504, Note_on_c, 15, 34, 0
22, 299520, Note_on_c, 15, 34, 84
22, 299984, Note_on_c, 15, 34, 0
22, 300000, Note_on_c, 15, 33, 84
22, 300104, Note_on_c, 15, 33, 0
22, 300120, Note_on_c, 15, 32, 84
22, 300224, Note_on_c, 15, 32, 0
22, 300240, Note_on_c, 15, 33, 84
22, 300344, Note_on_c, 15, 33, 0
22, 300360, Note_on_c, 15, 33, 84
22, 300464, Note_on_c, 15, 33, 0
22, 300480, Note_on_c, 15, 33, 84
22, 301064, Note_on_c, 15, 33, 0
22, 301080, Note_on_c, 15, 32, 84
22, 301184, Note_on_c, 15, 32, 0
22, 301200, Note_on_c, 15, 33, 84
22, 301304, Note_on_c, 15, 33, 0
22, 301320, Note_on_c, 15, 33, 84
22, 301424, Note_on_c, 15, 33, 0
22, 301440, Note_on_c, 15, 33, 84
22, 301904, Note_on_c, 15, 33, 0
22, 301920, Note_on_c, 15, 35, 84
22, 302624, Note_on_c, 15, 35, 0
22, 302640, Note_on_c, 15, 31, 84
22, 302879, Note_on_c, 15, 31, 0
22, 302880, Note_on_c, 15, 35, 84
22, 303119, Note_on_c, 15, 35, 0
22, 303120, Note_on_c, 15, 31, 84
22, 303359, Note_on_c, 15, 31, 0
22, 303360, Note_on_c, 15, 38, 84
22, 303599, Note_on_c, 15, 38, 0
22, 303600, Note_on_c, 15, 36, 84
22, 303779, Note_on_c, 15, 36, 0
22, 303780, Note_on_c, 15, 35, 84
22, 303831, Note_on_c, 15, 35, 0
22, 303840, Note_on_c, 15, 36, 84
22, 304544, Note_on_c, 15, 36, 0
22, 304560, Note_on_c, 15, 31, 84
22, 304799, Note_on_c, 15, 31, 0
22, 304800, Note_on_c, 15, 36, 84
22, 305039, Note_on_c, 15, 36, 0
22, 305040, Note_on_c, 15, 31, 84
22, 305279, Note_on_c, 15, 31, 0
22, 305280, Note_on_c, 15, 40, 84
22, 305519, Note_on_c, 15, 40, 0
22, 305520, Note_on_c, 15, 38, 84
22, 305699, Note_on_c, 15, 38, 0
22, 305700, Note_on_c, 15, 36, 84
22, 305751, Note_on_c, 15, 36, 0
22, 305760, Note_on_c, 15, 35, 84
22, 306104, Note_on_c, 15, 35, 0
22, 306120, Note_on_c, 15, 31, 84
22, 306224, Note_on_c, 15, 31, 0
22, 306240, Note_on_c, 15, 38, 84
22, 306599, Note_on_c, 15, 38, 0
22, 306600, Note_on_c, 15, 36, 84
22, 306659, Note_on_c, 15, 36, 0
22, 306660, Note_on_c, 15, 35, 84
22, 306711, Note_on_c, 15, 35, 0
22, 306720, Note_on_c, 15, 36, 84
22, 307064, Note_on_c, 15, 36, 0
22, 307080, Note_on_c, 15, 31, 84
22, 307184, Note_on_c, 15, 31, 0
22, 307200, Note_on_c, 15, 40, 84
22, 307559, Note_on_c, 15, 40, 0
22, 307560, Note_on_c, 15, 38, 84
22, 307619, Note_on_c, 15, 38, 0
22, 307620, Note_on_c, 15, 36, 84
22, 307671, Note_on_c, 15, 36, 0
22, 307680, Note_on_c, 15, 43, 84
22, 307769, Note_on_c, 15, 43, 0
22, 307800, Note_on_c, 15, 55, 84
22, 307919, Note_on_c, 15, 55, 0
22, 307920, Note_on_c, 15, 53, 84
22, 308024, Note_on_c, 15, 53, 0
22, 308040, Note_on_c, 15, 52, 84
22, 308129, Note_on_c, 15, 52, 0
22, 308160, Note_on_c, 15, 50, 84
22, 308249, Note_on_c, 15, 50, 0
22, 308280, Note_on_c, 15, 52, 84
22, 308399, Note_on_c, 15, 52, 0
22, 308400, Note_on_c, 15, 50, 84
22, 308504, Note_on_c, 15, 50, 0
22, 308520, Note_on_c, 15, 48, 84
22, 308609, Note_on_c, 15, 48, 0
22, 308640, Note_on_c, 15, 47, 84
22, 308729, Note_on_c, 15, 47, 0
22, 308760, Note_on_c, 15, 48, 84
22, 308879, Note_on_c, 15, 48, 0
22, 308880, Note_on_c, 15, 47, 84
22, 308984, Note_on_c, 15, 47, 0
22, 309000, Note_on_c, 15, 45, 84
22, 309089, Note_on_c, 15, 45, 0
22, 309120, Note_on_c, 15, 43, 84
22, 309209, Note_on_c, 15, 43, 0
22, 309240, Note_on_c, 15, 43, 84
22, 309359, Note_on_c, 15, 43, 0
22, 309360, Note_on_c, 15, 45, 84
22, 309464, Note_on_c, 15, 45, 0
22, 309480, Note_on_c, 15, 38, 84
22, 309569, Note_on_c, 15, 38, 0
22, 309600, Note_on_c, 15, 43, 84
22, 309839, Note_on_c, 15, 43, 0
22, 310680, Note_on_c, 15, 43, 84
22, 310799, Note_on_c, 15, 43, 0
22, 310800, Note_on_c, 15, 41, 84
22, 310904, Note_on_c, 15, 41, 0
22, 310920, Note_on_c, 15, 50, 84
22, 311009, Note_on_c, 15, 50, 0
22, 311040, Note_on_c, 15, 41, 84
22, 311129, Note_on_c, 15, 41, 0
22, 311160, Note_on_c, 15, 40, 84
22, 311279, Note_on_c, 15, 40, 0
22, 311280, Note_on_c, 15, 38, 84
22, 311384, Note_on_c, 15, 38, 0
22, 311400, Note_on_c, 15, 47, 84
22, 311489, Note_on_c, 15, 47, 0
22, 311520, Note_on_c, 15, 36, 84
22, 311759, Note_on_c, 15, 36, 0
22, 312000, Note_on_c, 15, 36, 84
22, 312239, Note_on_c, 15, 36, 0
22, 312480, Note_on_c, 15, 36, 84
22, 312704, Note_on_c, 15, 36, 0
22, 312720, Note_on_c, 15, 31, 84
22, 312787, Note_on_c, 15, 31, 0
22, 312800, Note_on_c, 15, 33, 84
22, 312867, Note_on_c, 15, 33, 0
22, 312880, Note_on_c, 15, 35, 84
22, 312947, Note_on_c, 15, 35, 0
22, 312960, Note_on_c, 15, 36, 84
22, 313199, Note_on_c, 15, 36, 0
22, 314638, Control_c, 15, 11, 80
22, 314640, Note_on_c, 15, 47, 76
22, 314693, Control_c, 15, 11, 85
22, 314719, Note_on_c, 15, 47, 0
22, 314720, Note_on_c, 15, 48, 76
22, 314747, Control_c, 15, 11, 90
22, 314799, Note_on_c, 15, 48, 0
22, 314800, Note_on_c, 15, 50, 76
22, 314800, Control_c, 15, 11, 96
22, 314853, Control_c, 15, 11, 101
22, 314867, Note_on_c, 15, 50, 0
22, 314880, Note_on_c, 15, 43, 76
22, 314907, Control_c, 15, 11, 106
22, 314960, Control_c, 15, 11, 111
22, 315013, Control_c, 15, 11, 117
22, 315067, Control_c, 15, 11, 127
22, 315104, Note_on_c, 15, 43, 0
22, 315120, Note_on_c, 15, 41, 76
22, 315187, Note_on_c, 15, 41, 0
22, 315200, Note_on_c, 15, 40, 76
22, 315267, Note_on_c, 15, 40, 0
22, 315280, Note_on_c, 15, 38, 76
22, 315347, Note_on_c, 15, 38, 0
22, 315360, Note_on_c, 15, 36, 76
22, 315599, Note_on_c, 15, 36, 0
22, 315840, Note_on_c, 15, 36, 76
22, 316079, Note_on_c, 15, 36, 0
22, 316320, Note_on_c, 15, 36, 76
22, 316544, Note_on_c, 15, 36, 0
22, 316560, Note_on_c, 15, 31, 76
22, 316627, Note_on_c, 15, 31, 0
22, 316640, Note_on_c, 15, 33, 76
22, 316707, Note_on_c, 15, 33, 0
22, 316720, Note_on_c, 15, 35, 76
22, 316787, Note_on_c, 15, 35, 0
22, 316800, Note_on_c, 15, 36, 76
22, 317039, Note_on_c, 15, 36, 0
22, 318480, Note_on_c, 15, 31, 76
22, 318547, Note_on_c, 15, 31, 0
22, 318560, Note_on_c, 15, 33, 76
22, 318627, Note_on_c, 15, 33, 0
22, 318640, Note_on_c, 15, 35, 76
22, 318707, Note_on_c, 15, 35, 0
22, 318720, Note_on_c, 15, 36, 76
22, 318959, Note_on_c, 15, 36, 0
22, 320400, Note_on_c, 15, 33, 76
22, 320467, Note_on_c, 15, 33, 0
22, 320480, Note_on_c, 15, 35, 76
22, 320547, Note_on_c, 15, 35, 0
22, 320560, Note_on_c, 15, 37, 76
22, 320627, Note_on_c, 15, 37, 0
22, 320640, Note_on_c, 15, 38, 76
22, 320864, Note_on_c, 15, 38, 0
22, 320880, Note_on_c, 15, 41, 44
22, 321119, Note_on_c, 15, 41, 0
22, 321120, Note_on_c, 15, 40, 44
22, 321599, Note_on_c, 15, 40, 0
22, 321600, Note_on_c, 15, 41, 44
22, 322064, Note_on_c, 15, 41, 0
22, 322080, Note_on_c, 15, 36, 44
22, 322184, Note_on_c, 15, 36, 0
22, 322200, Note_on_c, 15, 48, 44
22, 322304, Note_on_c, 15, 48, 0
22, 322320, Note_on_c, 15, 48, 46
22, 322424, Note_on_c, 15, 48, 0
22, 322440, Note_on_c, 15, 48, 49
22, 322544, Note_on_c, 15, 48, 0
22, 322560, Note_on_c, 15, 48, 52
22, 322664, Note_on_c, 15, 48, 0
22, 322680, Note_on_c, 15, 48, 54
22, 322784, Note_on_c, 15, 48, 0
22, 322800, Note_on_c, 15, 48, 57
22, 322904, Note_on_c, 15, 48, 0
22, 322920, Note_on_c, 15, 48, 60
22, 323024, Note_on_c, 15, 48, 0
22, 323040, Note_on_c, 15, 48, 62
22, 323144, Note_on_c, 15, 48, 0
22, 323160, Note_on_c, 15, 48, 65
22, 323264, Note_on_c, 15, 48, 0
22, 323280, Note_on_c, 15, 48, 68
22, 323384, Note_on_c, 15, 48, 0
22, 323400, Note_on_c, 15, 48, 70
22, 323504, Note_on_c, 15, 48, 0
22, 323520, Note_on_c, 15, 48, 73
22, 323624, Note_on_c, 15, 48, 0
22, 323640, Note_on_c, 15, 48, 76
22, 323744, Note_on_c, 15, 48, 0
22, 323760, Note_on_c, 15, 48, 78
22, 323864, Note_on_c, 15, 48, 0
22, 323880, Note_on_c, 15, 48, 81
22, 323984, Note_on_c, 15, 48, 0
22, 324000, Note_on_c, 15, 41, 84
22, 324479, Note_on_c, 15, 41, 0
22, 324480, Note_on_c, 15, 41, 84
22, 324584, Note_on_c, 15, 41, 0
22, 324600, Note_on_c, 15, 41, 84
22, 324704, Note_on_c, 15, 41, 0
22, 324720, Note_on_c, 15, 41, 84
22, 324824, Note_on_c, 15, 41, 0
22, 324840, Note_on_c, 15, 41, 84
22, 324944, Note_on_c, 15, 41, 0
22, 324960, Note_on_c, 15, 41, 84
22, 325064, Note_on_c, 15, 41, 0
22, 325080, Note_on_c, 15, 41, 84
22, 325184, Note_on_c, 15, 41, 0
22, 325200, Note_on_c, 15, 41, 84
22, 325304, Note_on_c, 15, 41, 0
22, 325320, Note_on_c, 15, 41, 84
22, 325424, Note_on_c, 15, 41, 0
22, 325440, Note_on_c, 15, 41, 84
22, 325544, Note_on_c, 15, 41, 0
22, 325560, Note_on_c, 15, 41, 84
22, 325664, Note_on_c, 15, 41, 0
22, 325680, Note_on_c, 15, 41, 84
22, 325784, Note_on_c, 15, 41, 0
22, 325800, Note_on_c, 15, 41, 84
22, 325904, Note_on_c, 15, 41, 0
22, 325920, Note_on_c, 15, 41, 84
22, 326024, Note_on_c, 15, 41, 0
22, 326040, Note_on_c, 15, 41, 84
22, 326144, Note_on_c, 15, 41, 0
22, 326160, Note_on_c, 15, 42, 84
22, 326264, Note_on_c, 15, 42, 0
22, 326280, Note_on_c, 15, 42, 84
22, 326384, Note_on_c, 15, 42, 0
22, 326400, Note_on_c, 15, 43, 84
22, 326504, Note_on_c, 15, 43, 0
22, 326520, Note_on_c, 15, 43, 84
22, 326624, Note_on_c, 15, 43, 0
22, 326640, Note_on_c, 15, 44, 84
22, 326744, Note_on_c, 15, 44, 0
22, 326760, Note_on_c, 15, 44, 84
22, 326864, Note_on_c, 15, 44, 0
22, 326880, Note_on_c, 15, 45, 84
22, 326984, Note_on_c, 15, 45, 0
22, 327000, Note_on_c, 15, 45, 84
22, 327104, Note_on_c, 15, 45, 0
22, 327120, Note_on_c, 15, 47, 84
22, 327224, Note_on_c, 15, 47, 0
22, 327240, Note_on_c, 15, 47, 84
22, 327344, Note_on_c, 15, 47, 0
22, 327360, Note_on_c, 15, 48, 84
22, 327464, Note_on_c, 15, 48, 0
22, 327480, Note_on_c, 15, 36, 84
22, 327584, Note_on_c, 15, 36, 0
22, 327600, Note_on_c, 15, 38, 84
22, 327704, Note_on_c, 15, 38, 0
22, 327720, Note_on_c, 15, 40, 84
22, 327824, Note_on_c, 15, 40, 0
22, 327840, Note_on_c, 15, 41, 84
22, 328019, Note_on_c, 15, 41, 0
22, 328800, Note_on_c, 15, 43, 84
22, 328979, Note_on_c, 15, 43, 0
22, 337440, Note_on_c, 15, 40, 76
22, 338144, Note_on_c, 15, 40, 0
22, 338160, Note_on_c, 15, 38, 76
22, 338384, Note_on_c, 15, 38, 0
22, 338400, Note_on_c, 15, 36, 76
22, 338624, Note_on_c, 15, 36, 0
22, 338640, Note_on_c, 15, 35, 76
22, 338864, Note_on_c, 15, 35, 0
22, 338880, Note_on_c, 15, 35, 76
22, 339104, Note_on_c, 15, 35, 0
22, 339120, Note_on_c, 15, 35, 76
22, 339344, Note_on_c, 15, 35, 0
22, 339360, Note_on_c, 15, 40, 84
22, 339419, Note_on_c, 15, 40, 0
22, 339420, Note_on_c, 15, 40, 76
22, 340064, Note_on_c, 15, 40, 0
22, 340080, Note_on_c, 15, 38, 76
22, 340304, Note_on_c, 15, 38, 0
22, 340320, Note_on_c, 15, 36, 76
22, 340544, Note_on_c, 15, 36, 0
22, 340560, Note_on_c, 15, 35, 76
22, 340784, Note_on_c, 15, 35, 0
22, 340800, Note_on_c, 15, 35, 76
22, 341024, Note_on_c, 15, 35, 0
22, 341040, Note_on_c, 15, 35, 76
22, 341264, Note_on_c, 15, 35, 0
22, 341280, Note_on_c, 15, 35, 84
22, 341339, Note_on_c, 15, 35, 0
22, 341340, Note_on_c, 15, 35, 76
22, 341984, Note_on_c, 15, 35, 0
22, 342000, Note_on_c, 15, 36, 76
22, 342224, Note_on_c, 15, 36, 0
22, 342240, Note_on_c, 15, 29, 76
22, 342464, Note_on_c, 15, 29, 0
22, 342480, Note_on_c, 15, 28, 80
22, 342704, Note_on_c, 15, 28, 0
22, 342720, Note_on_c, 15, 28, 80
22, 342944, Note_on_c, 15, 28, 0
22, 342960, Note_on_c, 15, 28, 80
22, 343184, Note_on_c, 15, 28, 0
22, 343200, Note_on_c, 15, 28, 80
22, 343424, Note_on_c, 15, 28, 0
22, 343440, Note_on_c, 15, 28, 80
22, 343664, Note_on_c, 15, 28, 0
22, 343680, Note_on_c, 15, 28, 80
22, 343904, Note_on_c, 15, 28, 0
22, 343920, Note_on_c, 15, 28, 80
22, 344144, Note_on_c, 15, 28, 0
22, 344160, Note_on_c, 15, 28, 80
22, 344384, Note_on_c, 15, 28, 0
22, 344400, Note_on_c, 15, 28, 80
22, 344624, Note_on_c, 15, 28, 0
22, 344640, Note_on_c, 15, 28, 80
22, 344864, Note_on_c, 15, 28, 0
22, 344880, Note_on_c, 15, 28, 80
22, 345104, Note_on_c, 15, 28, 0
22, 345120, Note_on_c, 15, 29, 84
22, 346079, Note_on_c, 15, 29, 0
22, 346080, Note_on_c, 15, 29, 84
22, 347039, Note_on_c, 15, 29, 0
22, 347040, Note_on_c, 15, 29, 84
22, 347984, Note_on_c, 15, 29, 0
22, 348000, Note_on_c, 15, 30, 84
22, 348959, Note_on_c, 15, 30, 0
22, 348960, Note_on_c, 15, 30, 84
22, 349904, Note_on_c, 15, 30, 0
22, 349920, Note_on_c, 15, 31, 92
22, 349979, Note_on_c, 15, 31, 0
22, 349980, Note_on_c, 15, 31, 76
22, 350879, Note_on_c, 15, 31, 0
22, 350880, Note_on_c, 15, 31, 76
22, 351824, Note_on_c, 15, 31, 0
22, 351840, Note_on_c, 15, 31, 84
22, 351899, Note_on_c, 15, 31, 0
22, 351900, Note_on_c, 15, 31, 76
22, 352799, Note_on_c, 15, 31, 0
22, 352800, Note_on_c, 15, 31, 76
22, 353744, Note_on_c, 15, 31, 0
22, 353760, Note_on_c, 15, 31, 84
22, 353819, Note_on_c, 15, 31, 0
22, 353820, Note_on_c, 15, 31, 76
22, 354719, Note_on_c, 15, 31, 0
22, 354720, Note_on_c, 15, 31, 76
22, 355664, Note_on_c, 15, 31, 0
22, 355680, Note_on_c, 15, 31, 84
22, 355739, Note_on_c, 15, 31, 0
22, 355740, Note_on_c, 15, 31, 76
22, 356639, Note_on_c, 15, 31, 0
22, 356640, Note_on_c, 15, 31, 76
22, 357584, Note_on_c, 15, 31, 0
22, 357600, Note_on_c, 15, 31, 76
22, 358304, Note_on_c, 15, 31, 0
22, 358320, Note_on_c, 15, 36, 80
22, 358387, Note_on_c, 15, 36, 0
22, 358400, Note_on_c, 15, 48, 80
22, 358467, Note_on_c, 15, 48, 0
22, 358480, Note_on_c, 15, 48, 80
22, 358547, Note_on_c, 15, 48, 0
22, 358560, Note_on_c, 15, 31, 80
22, 358627, Note_on_c, 15, 31, 0
22, 358640, Note_on_c, 15, 43, 80
22, 358707, Note_on_c, 15, 43, 0
22, 358720, Note_on_c, 15, 43, 80
22, 358787, Note_on_c, 15, 43, 0
22, 358800, Note_on_c, 15, 43, 80
22, 358867, Note_on_c, 15, 43, 0
22, 358880, Note_on_c, 15, 43, 80
22, 358947, Note_on_c, 15, 43, 0
22, 358960, Note_on_c, 15, 43, 80
22, 359027, Note_on_c, 15, 43, 0
22, 359040, Note_on_c, 15, 36, 80
22, 359107, Note_on_c, 15, 36, 0
22, 359120, Note_on_c, 15, 48, 80
22, 359187, Note_on_c, 15, 48, 0
22, 359200, Note_on_c, 15, 48, 80
22, 359267, Note_on_c, 15, 48, 0
22, 359280, Note_on_c, 15, 48, 80
22, 359347, Note_on_c, 15, 48, 0
22, 359360, Note_on_c, 15, 48, 80
22, 359427, Note_on_c, 15, 48, 0
22, 359440, Note_on_c, 15, 48, 80
22, 359507, Note_on_c, 15, 48, 0
22, 359520, Note_on_c, 15, 38, 80
22, 359587, Note_on_c, 15, 38, 0
22, 359600, Note_on_c, 15, 50, 80
22, 359667, Note_on_c, 15, 50, 0
22, 359680, Note_on_c, 15, 50, 80
22, 359747, Note_on_c, 15, 50, 0
22, 359760, Note_on_c, 15, 50, 80
22, 359827, Note_on_c, 15, 50, 0
22, 359840, Note_on_c, 15, 50, 80
22, 359907, Note_on_c, 15, 50, 0
22, 359920, Note_on_c, 15, 50, 80
22, 359987, Note_on_c, 15, 50, 0
22, 360000, Note_on_c, 15, 50, 80
22, 360067, Note_on_c, 15, 50, 0
22, 360080, Note_on_c, 15, 50, 80
22, 360147, Note_on_c, 15, 50, 0
22, 360160, Note_on_c, 15, 50, 80
22, 360227, Note_on_c, 15, 50, 0
22, 360240, Note_on_c, 15, 50, 80
22, 360307, Note_on_c, 15, 50, 0
22, 360320, Note_on_c, 15, 50, 80
22, 360387, Note_on_c, 15, 50, 0
22, 360400, Note_on_c, 15, 50, 80
22, 360467, Note_on_c, 15, 50, 0
22, 360480, Note_on_c, 15, 37, 80
22, 360547, Note_on_c, 15, 37, 0
22, 360560, Note_on_c, 15, 49, 80
22, 360627, Note_on_c, 15, 49, 0
22, 360640, Note_on_c, 15, 49, 80
22, 360707, Note_on_c, 15, 49, 0
22, 360720, Note_on_c, 15, 49, 80
22, 360787, Note_on_c, 15, 49, 0
22, 360800, Note_on_c, 15, 49, 80
22, 360867, Note_on_c, 15, 49, 0
22, 360880, Note_on_c, 15, 49, 80
22, 360947, Note_on_c, 15, 49, 0
22, 360960, Note_on_c, 15, 38, 80
22, 361027, Note_on_c, 15, 38, 0
22, 361040, Note_on_c, 15, 50, 80
22, 361107, Note_on_c, 15, 50, 0
22, 361120, Note_on_c, 15, 50, 80
22, 361187, Note_on_c, 15, 50, 0
22, 361200, Note_on_c, 15, 50, 80
22, 361267, Note_on_c, 15, 50, 0
22, 361280, Note_on_c, 15, 50, 80
22, 361347, Note_on_c, 15, 50, 0
22, 361360, Note_on_c, 15, 50, 80
22, 361427, Note_on_c, 15, 50, 0
22, 361440, Note_on_c, 15, 40, 84
22, 361507, Note_on_c, 15, 40, 0
22, 361520, Note_on_c, 15, 52, 84
22, 361587, Note_on_c, 15, 52, 0
22, 361600, Note_on_c, 15, 52, 84
22, 361667, Note_on_c, 15, 52, 0
22, 361680, Note_on_c, 15, 52, 84
22, 361747, Note_on_c, 15, 52, 0
22, 361760, Note_on_c, 15, 52, 84
22, 361827, Note_on_c, 15, 52, 0
22, 361840, Note_on_c, 15, 52, 84
22, 361907, Note_on_c, 15, 52, 0
22, 361920, Note_on_c, 15, 40, 84
22, 361987, Note_on_c, 15, 40, 0
22, 362000, Note_on_c, 15, 52, 84
22, 362067, Note_on_c, 15, 52, 0
22, 362080, Note_on_c, 15, 52, 84
22, 362147, Note_on_c, 15, 52, 0
22, 362160, Note_on_c, 15, 52, 84
22, 362227, Note_on_c, 15, 52, 0
22, 362240, Note_on_c, 15, 52, 84
22, 362307, Note_on_c, 15, 52, 0
22, 362320, Note_on_c, 15, 52, 84
22, 362387, Note_on_c, 15, 52, 0
22, 362400, Note_on_c, 15, 40, 84
22, 362467, Note_on_c, 15, 40, 0
22, 362480, Note_on_c, 15, 52, 84
22, 362547, Note_on_c, 15, 52, 0
22, 362560, Note_on_c, 15, 52, 84
22, 362627, Note_on_c, 15, 52, 0
22, 362640, Note_on_c, 15, 52, 84
22, 362707, Note_on_c, 15, 52, 0
22, 362720, Note_on_c, 15, 52, 84
22, 362787, Note_on_c, 15, 52, 0
22, 362800, Note_on_c, 15, 52, 84
22, 362867, Note_on_c, 15, 52, 0
22, 362880, Note_on_c, 15, 40, 84
22, 362947, Note_on_c, 15, 40, 0
22, 362960, Note_on_c, 15, 52, 84
22, 363027, Note_on_c, 15, 52, 0
22, 363040, Note_on_c, 15, 52, 84
22, 363107, Note_on_c, 15, 52, 0
22, 363120, Note_on_c, 15, 52, 84
22, 363187, Note_on_c, 15, 52, 0
22, 363200, Note_on_c, 15, 52, 84
22, 363267, Note_on_c, 15, 52, 0
22, 363280, Note_on_c, 15, 52, 84
22, 363347, Note_on_c, 15, 52, 0
22, 363360, Note_on_c, 15, 41, 84
22, 363464, Note_on_c, 15, 41, 0
22, 363480, Note_on_c, 15, 29, 84
22, 363584, Note_on_c, 15, 29, 0
22, 363600, Note_on_c, 15, 29, 84
22, 363704, Note_on_c, 15, 29, 0
22, 363720, Note_on_c, 15, 29, 84
22, 363824, Note_on_c, 15, 29, 0
22, 363840, Note_on_c, 15, 29, 84
22, 363944, Note_on_c, 15, 29, 0
22, 363960, Note_on_c, 15, 29, 84
22, 364064, Note_on_c, 15, 29, 0
22, 364080, Note_on_c, 15, 29, 84
22, 364184, Note_on_c, 15, 29, 0
22, 364200, Note_on_c, 15, 29, 84
22, 364304, Note_on_c, 15, 29, 0
22, 364320, Note_on_c, 15, 29, 84
22, 364424, Note_on_c, 15, 29, 0
22, 364440, Note_on_c, 15, 29, 84
22, 364544, Note_on_c, 15, 29, 0
22, 364560, Note_on_c, 15, 29, 84
22, 364664, Note_on_c, 15, 29, 0
22, 364680, Note_on_c, 15, 29, 84
22, 364784, Note_on_c, 15, 29, 0
22, 364800, Note_on_c, 15, 29, 84
22, 364904, Note_on_c, 15, 29, 0
22, 364920, Note_on_c, 15, 29, 84
22, 365024, Note_on_c, 15, 29, 0
22, 365040, Note_on_c, 15, 29, 84
22, 365144, Note_on_c, 15, 29, 0
22, 365160, Note_on_c, 15, 29, 84
22, 365264, Note_on_c, 15, 29, 0
22, 365280, Note_on_c, 15, 29, 84
22, 365384, Note_on_c, 15, 29, 0
22, 365400, Note_on_c, 15, 29, 84
22, 365504, Note_on_c, 15, 29, 0
22, 365520, Note_on_c, 15, 29, 84
22, 365624, Note_on_c, 15, 29, 0
22, 365640, Note_on_c, 15, 29, 84
22, 365744, Note_on_c, 15, 29, 0
22, 365760, Note_on_c, 15, 29, 84
22, 365864, Note_on_c, 15, 29, 0
22, 365880, Note_on_c, 15, 29, 84
22, 365984, Note_on_c, 15, 29, 0
22, 366000, Note_on_c, 15, 29, 84
22, 366104, Note_on_c, 15, 29, 0
22, 366120, Note_on_c, 15, 29, 84
22, 366224, Note_on_c, 15, 29, 0
22, 366240, Note_on_c, 15, 29, 84
22, 366344, Note_on_c, 15, 29, 0
22, 366360, Note_on_c, 15, 29, 84
22, 366464, Note_on_c, 15, 29, 0
22, 366480, Note_on_c, 15, 29, 84
22, 366584, Note_on_c, 15, 29, 0
22, 366600, Note_on_c, 15, 29, 84
22, 366704, Note_on_c, 15, 29, 0
22, 366720, Note_on_c, 15, 29, 84
22, 366824, Note_on_c, 15, 29, 0
22, 366840, Note_on_c, 15, 29, 84
22, 366944, Note_on_c, 15, 29, 0
22, 366960, Note_on_c, 15, 29, 84
22, 367064, Note_on_c, 15, 29, 0
22, 367080, Note_on_c, 15, 29, 84
22, 367184, Note_on_c, 15, 29, 0
22, 367200, Note_on_c, 15, 31, 84
22, 367379, Note_on_c, 15, 31, 0
22, 368160, Note_on_c, 15, 31, 84
22, 368339, Note_on_c, 15, 31, 0
22, 369120, Note_on_c, 15, 36, 84
22, 369299, Note_on_c, 15, 36, 0
22, 370080, Note_on_c, 15, 31, 84
22, 370259, Note_on_c, 15, 31, 0
22, 371040, Note_on_c, 15, 36, 84
22, 371219, Note_on_c, 15, 36, 0
22, 372000, Note_on_c, 15, 31, 84
22, 372179, Note_on_c, 15, 31, 0
22, 380640, Note_on_c, 15, 29, 68
22, 380759, Note_on_c, 15, 29, 0
22, 380760, Note_on_c, 15, 31, 69
22, 380879, Note_on_c, 15, 31, 0
22, 380880, Note_on_c, 15, 29, 70
22, 380999, Note_on_c, 15, 29, 0
22, 381000, Note_on_c, 15, 31, 71
22, 381119, Note_on_c, 15, 31, 0
22, 381120, Note_on_c, 15, 29, 72
22, 381239, Note_on_c, 15, 29, 0
22, 381240, Note_on_c, 15, 31, 73
22, 381359, Note_on_c, 15, 31, 0
22, 381360, Note_on_c, 15, 29, 74
22, 381479, Note_on_c, 15, 29, 0
22, 381480, Note_on_c, 15, 31, 75
22, 381584, Note_on_c, 15, 31, 0
22, 381600, Note_on_c, 15, 28, 76
22, 381824, Note_on_c, 15, 28, 0
22, 381840, Note_on_c, 15, 38, 76
22, 382079, Note_on_c, 15, 38, 0
22, 382080, Note_on_c, 15, 36, 76
22, 382319, Note_on_c, 15, 36, 0
22, 382320, Note_on_c, 15, 35, 76
22, 382559, Note_on_c, 15, 35, 0
22, 382560, Note_on_c, 15, 33, 76
22, 382799, Note_on_c, 15, 33, 0
22, 382800, Note_on_c, 15, 31, 76
22, 383039, Note_on_c, 15, 31, 0
22, 383040, Note_on_c, 15, 29, 76
22, 383279, Note_on_c, 15, 29, 0
22, 383280, Note_on_c, 15, 28, 76
22, 383504, Note_on_c, 15, 28, 0
22, 383520, Note_on_c, 15, 29, 76
22, 384224, Note_on_c, 15, 29, 0
22, 384240, Note_on_c, 15, 31, 76
22, 384419, Note_on_c, 15, 31, 0
22, 384480, Note_on_c, 15, 33, 76
22, 385184, Note_on_c, 15, 33, 0
22, 385200, Note_on_c, 15, 31, 76
22, 385379, Note_on_c, 15, 31, 0
22, 385440, Note_on_c, 15, 30, 76
22, 386144, Note_on_c, 15, 30, 0
22, 386160, Note_on_c, 15, 31, 76
22, 386339, Note_on_c, 15, 31, 0
22, 386400, Note_on_c, 15, 32, 76
22, 387104, Note_on_c, 15, 32, 0
22, 387120, Note_on_c, 15, 33, 76
22, 387299, Note_on_c, 15, 33, 0
22, 387360, Note_on_c, 15, 35, 76
22, 387599, Note_on_c, 15, 35, 0
22, 387840, Note_on_c, 15, 36, 52
22, 388079, Note_on_c, 15, 36, 0
22, 388320, Note_on_c, 15, 29, 52
22, 388559, Note_on_c, 15, 29, 0
22, 388800, Note_on_c, 15, 31, 52
22, 389024, Note_on_c, 15, 31, 0
22, 389040, Note_on_c, 15, 31, 76
22, 389279, Note_on_c, 15, 31, 0
22, 389280, Note_on_c, 15, 36, 76
22, 389519, Note_on_c, 15, 36, 0
22, 389520, Note_on_c, 15, 31, 76
22, 389759, Note_on_c, 15, 31, 0
22, 389760, Note_on_c, 15, 40, 76
22, 389999, Note_on_c, 15, 40, 0
22, 390000, Note_on_c, 15, 38, 76
22, 390179, Note_on_c, 15, 38, 0
22, 390180, Note_on_c, 15, 36, 76
22, 390231, Note_on_c, 15, 36, 0
22, 390240, Note_on_c, 15, 43, 76
22, 390959, Note_on_c, 15, 43, 0
22, 395040, Note_on_c, 15, 29, 61
22, 395159, Note_on_c, 15, 29, 0
22, 395160, Note_on_c, 15, 31, 62
22, 395279, Note_on_c, 15, 31, 0
22, 395280, Note_on_c, 15, 29, 62
22, 395399, Note_on_c, 15, 29, 0
22, 395400, Note_on_c, 15, 31, 63
22, 395519, Note_on_c, 15, 31, 0
22, 395520, Note_on_c, 15, 29, 64
22, 395639, Note_on_c, 15, 29, 0
22, 395640, Note_on_c, 15, 31, 64
22, 395759, Note_on_c, 15, 31, 0
22, 395760, Note_on_c, 15, 29, 65
22, 395879, Note_on_c, 15, 29, 0
22, 395880, Note_on_c, 15, 31, 65
22, 395984, Note_on_c, 15, 31, 0
22, 396000, Note_on_c, 15, 28, 66
22, 396119, Note_on_c, 15, 28, 0
22, 396120, Note_on_c, 15, 31, 67
22, 396239, Note_on_c, 15, 31, 0
22, 396240, Note_on_c, 15, 28, 67
22, 396359, Note_on_c, 15, 28, 0
22, 396360, Note_on_c, 15, 31, 68
22, 396479, Note_on_c, 15, 31, 0
22, 396480, Note_on_c, 15, 28, 68
22, 396599, Note_on_c, 15, 28, 0
22, 396600, Note_on_c, 15, 31, 69
22, 396719, Note_on_c, 15, 31, 0
22, 396720, Note_on_c, 15, 28, 70
22, 396839, Note_on_c, 15, 28, 0
22, 396840, Note_on_c, 15, 31, 70
22, 396944, Note_on_c, 15, 31, 0
22, 396960, Note_on_c, 15, 29, 71
22, 397079, Note_on_c, 15, 29, 0
22, 397080, Note_on_c, 15, 31, 71
22, 397199, Note_on_c, 15, 31, 0
22, 397200, Note_on_c, 15, 29, 72
22, 397319, Note_on_c, 15, 29, 0
22, 397320, Note_on_c, 15, 31, 73
22, 397439, Note_on_c, 15, 31, 0
22, 397440, Note_on_c, 15, 29, 73
22, 397559, Note_on_c, 15, 29, 0
22, 397560, Note_on_c, 15, 31, 74
22, 397679, Note_on_c, 15, 31, 0
22, 397680, Note_on_c, 15, 29, 74
22, 397799, Note_on_c, 15, 29, 0
22, 397800, Note_on_c, 15, 31, 75
22, 397904, Note_on_c, 15, 31, 0
22, 397920, Note_on_c, 15, 28, 76
22, 398144, Note_on_c, 15, 28, 0
22, 398160, Note_on_c, 15, 38, 76
22, 398399, Note_on_c, 15, 38, 0
22, 398400, Note_on_c, 15, 36, 76
22, 398639, Note_on_c, 15, 36, 0
22, 398640, Note_on_c, 15, 35, 76
22, 398879, Note_on_c, 15, 35, 0
22, 398880, Note_on_c, 15, 33, 76
22, 399119, Note_on_c, 15, 33, 0
22, 399120, Note_on_c, 15, 31, 76
22, 399359, Note_on_c, 15, 31, 0
22, 399360, Note_on_c, 15, 29, 76
22, 399599, Note_on_c, 15, 29, 0
22, 399600, Note_on_c, 15, 28, 76
22, 399824, Note_on_c, 15, 28, 0
22, 399840, Note_on_c, 15, 29, 76
22, 400544, Note_on_c, 15, 29, 0
22, 400560, Note_on_c, 15, 31, 76
22, 400739, Note_on_c, 15, 31, 0
22, 400800, Note_on_c, 15, 33, 76
22, 401504, Note_on_c, 15, 33, 0
22, 401520, Note_on_c, 15, 31, 76
22, 401699, Note_on_c, 15, 31, 0
22, 401760, Note_on_c, 15, 30, 76
22, 402464, Note_on_c, 15, 30, 0
22, 402480, Note_on_c, 15, 31, 76
22, 402659, Note_on_c, 15, 31, 0
22, 402720, Note_on_c, 15, 32, 76
22, 403424, Note_on_c, 15, 32, 0
22, 403440, Note_on_c, 15, 33, 76
22, 403619, Note_on_c, 15, 33, 0
22, 403680, Note_on_c, 15, 34, 52
22, 403799, Note_on_c, 15, 34, 0
22, 403920, Note_on_c, 15, 46, 52
22, 404039, Note_on_c, 15, 46, 0
22, 404160, Note_on_c, 15, 44, 52
22, 404279, Note_on_c, 15, 44, 0
22, 404400, Note_on_c, 15, 44, 53
22, 404519, Note_on_c, 15, 44, 0
22, 404640, Note_on_c, 15, 43, 54
22, 404759, Note_on_c, 15, 43, 0
22, 404880, Note_on_c, 15, 43, 55
22, 404999, Note_on_c, 15, 43, 0
22, 405120, Note_on_c, 15, 43, 56
22, 405239, Note_on_c, 15, 43, 0
22, 405360, Note_on_c, 15, 46, 57
22, 405479, Note_on_c, 15, 46, 0
22, 405600, Note_on_c, 15, 46, 58
22, 405719, Note_on_c, 15, 46, 0
22, 405840, Note_on_c, 15, 46, 59
22, 405959, Note_on_c, 15, 46, 0
22, 406080, Note_on_c, 15, 44, 60
22, 406199, Note_on_c, 15, 44, 0
22, 406320, Note_on_c, 15, 44, 61
22, 406439, Note_on_c, 15, 44, 0
22, 406560, Note_on_c, 15, 43, 62
22, 406679, Note_on_c, 15, 43, 0
22, 406800, Note_on_c, 15, 43, 64
22, 406919, Note_on_c, 15, 43, 0
22, 407040, Note_on_c, 15, 43, 65
22, 407159, Note_on_c, 15, 43, 0
22, 407280, Note_on_c, 15, 46, 66
22, 407399, Note_on_c, 15, 46, 0
22, 407520, Note_on_c, 15, 46, 67
22, 407639, Note_on_c, 15, 46, 0
22, 407760, Note_on_c, 15, 46, 68
22, 407879, Note_on_c, 15, 46, 0
22, 408000, Note_on_c, 15, 44, 69
22, 408119, Note_on_c, 15, 44, 0
22, 408240, Note_on_c, 15, 44, 70
22, 408359, Note_on_c, 15, 44, 0
22, 408480, Note_on_c, 15, 43, 71
22, 408599, Note_on_c, 15, 43, 0
22, 408720, Note_on_c, 15, 43, 72
22, 408839, Note_on_c, 15, 43, 0
22, 408960, Note_on_c, 15, 43, 73
22, 409079, Note_on_c, 15, 43, 0
22, 409200, Note_on_c, 15, 31, 74
22, 409319, Note_on_c, 15, 31, 0
22, 409440, Note_on_c, 15, 36, 76
22, 409499, Note_on_c, 15, 36, 0
22, 409500, Note_on_c, 15, 36, 52
22, 409559, Note_on_c, 15, 36, 0
22, 410040, Note_on_c, 15, 31, 52
22, 410139, Note_on_c, 15, 31, 0
22, 410160, Note_on_c, 15, 31, 52
22, 410259, Note_on_c, 15, 31, 0
22, 410280, Note_on_c, 15, 31, 52
22, 410379, Note_on_c, 15, 31, 0
22, 410400, Note_on_c, 15, 36, 76
22, 410459, Note_on_c, 15, 36, 0
22, 410460, Note_on_c, 15, 36, 52
22, 410519, Note_on_c, 15, 36, 0
22, 411000, Note_on_c, 15, 31, 52
22, 411099, Note_on_c, 15, 31, 0
22, 411120, Note_on_c, 15, 31, 52
22, 411219, Note_on_c, 15, 31, 0
22, 411240, Note_on_c, 15, 31, 52
22, 411339, Note_on_c, 15, 31, 0
22, 411360, Note_on_c, 15, 36, 76
22, 411419, Note_on_c, 15, 36, 0
22, 411420, Note_on_c, 15, 36, 52
22, 411479, Note_on_c, 15, 36, 0
22, 411960, Note_on_c, 15, 31, 52
22, 412059, Note_on_c, 15, 31, 0
22, 412080, Note_on_c, 15, 31, 52
22, 412179, Note_on_c, 15, 31, 0
22, 412200, Note_on_c, 15, 31, 52
22, 412299, Note_on_c, 15, 31, 0
22, 412320, Note_on_c, 15, 36, 76
22, 412379, Note_on_c, 15, 36, 0
22, 412380, Note_on_c, 15, 36, 52
22, 412439, Note_on_c, 15, 36, 0
22, 412920, Note_on_c, 15, 31, 52
22, 413019, Note_on_c, 15, 31, 0
22, 413040, Note_on_c, 15, 31, 52
22, 413139, Note_on_c, 15, 31, 0
22, 413160, Note_on_c, 15, 31, 52
22, 413259, Note_on_c, 15, 31, 0
22, 413280, Note_on_c, 15, 36, 76
22, 413339, Note_on_c, 15, 36, 0
22, 413340, Note_on_c, 15, 36, 52
22, 413399, Note_on_c, 15, 36, 0
22, 413880, Note_on_c, 15, 31, 52
22, 413979, Note_on_c, 15, 31, 0
22, 414000, Note_on_c, 15, 31, 52
22, 414099, Note_on_c, 15, 31, 0
22, 414120, Note_on_c, 15, 31, 52
22, 414219, Note_on_c, 15, 31, 0
22, 414240, Note_on_c, 15, 36, 76
22, 414299, Note_on_c, 15, 36, 0
22, 414300, Note_on_c, 15, 36, 52
22, 414359, Note_on_c, 15, 36, 0
22, 414840, Note_on_c, 15, 31, 52
22, 414939, Note_on_c, 15, 31, 0
22, 414960, Note_on_c, 15, 31, 52
22, 415059, Note_on_c, 15, 31, 0
22, 415080, Note_on_c, 15, 31, 52
22, 415179, Note_on_c, 15, 31, 0
22, 415200, Note_on_c, 15, 36, 76
22, 415259, Note_on_c, 15, 36, 0
22, 415260, Note_on_c, 15, 36, 52
22, 415319, Note_on_c, 15, 36, 0
22, 415800, Note_on_c, 15, 31, 52
22, 415899, Note_on_c, 15, 31, 0
22, 415920, Note_on_c, 15, 31, 52
22, 416019, Note_on_c, 15, 31, 0
22, 416040, Note_on_c, 15, 31, 52
22, 416139, Note_on_c, 15, 31, 0
22, 416160, Note_on_c, 15, 36, 76
22, 416219, Note_on_c, 15, 36, 0
22, 416220, Note_on_c, 15, 36, 52
22, 416279, Note_on_c, 15, 36, 0
22, 416760, Note_on_c, 15, 31, 52
22, 416859, Note_on_c, 15, 31, 0
22, 416880, Note_on_c, 15, 31, 52
22, 416979, Note_on_c, 15, 31, 0
22, 417000, Note_on_c, 15, 31, 52
22, 417099, Note_on_c, 15, 31, 0
22, 417120, Note_on_c, 15, 46, 52
22, 417239, Note_on_c, 15, 46, 0
22, 417360, Note_on_c, 15, 46, 53
22, 417479, Note_on_c, 15, 46, 0
22, 417600, Note_on_c, 15, 44, 55
22, 417719, Note_on_c, 15, 44, 0
22, 417840, Note_on_c, 15, 44, 56
22, 417959, Note_on_c, 15, 44, 0
22, 418080, Note_on_c, 15, 43, 58
22, 418199, Note_on_c, 15, 43, 0
22, 418320, Note_on_c, 15, 43, 59
22, 418439, Note_on_c, 15, 43, 0
22, 418560, Note_on_c, 15, 43, 61
22, 418679, Note_on_c, 15, 43, 0
22, 418800, Note_on_c, 15, 46, 62
22, 418919, Note_on_c, 15, 46, 0
22, 419040, Note_on_c, 15, 46, 64
22, 419159, Note_on_c, 15, 46, 0
22, 419280, Note_on_c, 15, 46, 65
22, 419399, Note_on_c, 15, 46, 0
22, 419520, Note_on_c, 15, 44, 67
22, 419639, Note_on_c, 15, 44, 0
22, 419760, Note_on_c, 15, 44, 68
22, 419879, Note_on_c, 15, 44, 0
22, 420000, Note_on_c, 15, 43, 70
22, 420119, Note_on_c, 15, 43, 0
22, 420240, Note_on_c, 15, 43, 71
22, 420359, Note_on_c, 15, 43, 0
22, 420480, Note_on_c, 15, 43, 73
22, 420599, Note_on_c, 15, 43, 0
22, 420720, Note_on_c, 15, 46, 74
22, 420819, Note_on_c, 15, 46, 0
22, 420840, Note_on_c, 15, 46, 75
22, 420939, Note_on_c, 15, 46, 0
22, 420960, Note_on_c, 15, 46, 76
22, 421059, Note_on_c, 15, 46, 0
22, 421080, Note_on_c, 15, 46, 76
22, 421179, Note_on_c, 15, 46, 0
22, 421200, Note_on_c, 15, 46, 76
22, 421299, Note_on_c, 15, 46, 0
22, 421320, Note_on_c, 15, 46, 76
22, 421419, Note_on_c, 15, 46, 0
22, 421440, Note_on_c, 15, 44, 76
22, 421539, Note_on_c, 15, 44, 0
22, 421560, Note_on_c, 15, 44, 76
22, 421659, Note_on_c, 15, 44, 0
22, 421680, Note_on_c, 15, 44, 76
22, 421779, Note_on_c, 15, 44, 0
22, 421800, Note_on_c, 15, 44, 76
22, 421899, Note_on_c, 15, 44, 0
22, 421920, Note_on_c, 15, 43, 76
22, 422019, Note_on_c, 15, 43, 0
22, 422040, Note_on_c, 15, 43, 76
22, 422139, Note_on_c, 15, 43, 0
22, 422160, Note_on_c, 15, 43, 76
22, 422259, Note_on_c, 15, 43, 0
22, 422280, Note_on_c, 15, 43, 76
22, 422379, Note_on_c, 15, 43, 0
22, 422400, Note_on_c, 15, 31, 76
22, 422499, Note_on_c, 15, 31, 0
22, 422520, Note_on_c, 15, 31, 76
22, 422619, Note_on_c, 15, 31, 0
22, 422640, Note_on_c, 15, 31, 76
22, 422739, Note_on_c, 15, 31, 0
22, 422760, Note_on_c, 15, 31, 76
22, 422859, Note_on_c, 15, 31, 0
22, 422880, Note_on_c, 15, 36, 84
22, 422999, Note_on_c, 15, 36, 0
22, 423360, Note_on_c, 15, 36, 84
22, 423579, Note_on_c, 15, 36, 0
22, 423600, Note_on_c, 15, 40, 84
22, 423819, Note_on_c, 15, 40, 0
22, 423840, Note_on_c, 15, 43, 84
22, 424179, Note_on_c, 15, 43, 0
22, 424200, Note_on_c, 15, 41, 84
22, 424299, Note_on_c, 15, 41, 0
22, 424320, Note_on_c, 15, 40, 84
22, 424419, Note_on_c, 15, 40, 0
22, 424440, Note_on_c, 15, 38, 84
22, 424539, Note_on_c, 15, 38, 0
22, 424560, Note_on_c, 15, 36, 84
22, 424659, Note_on_c, 15, 36, 0
22, 424680, Note_on_c, 15, 38, 84
22, 424779, Note_on_c, 15, 38, 0
22, 424800, Note_on_c, 15, 40, 84
22, 425139, Note_on_c, 15, 40, 0
22, 425160, Note_on_c, 15, 40, 84
22, 425259, Note_on_c, 15, 40, 0
22, 425280, Note_on_c, 15, 40, 84
22, 425379, Note_on_c, 15, 40, 0
22, 425400, Note_on_c, 15, 38, 84
22, 425499, Note_on_c, 15, 38, 0
22, 425520, Note_on_c, 15, 40, 84
22, 425619, Note_on_c, 15, 40, 0
22, 425640, Note_on_c, 15, 41, 84
22, 425739, Note_on_c, 15, 41, 0
22, 425760, Note_on_c, 15, 43, 84
22, 426099, Note_on_c, 15, 43, 0
22, 426120, Note_on_c, 15, 43, 84
22, 426219, Note_on_c, 15, 43, 0
22, 426240, Note_on_c, 15, 43, 84
22, 426339, Note_on_c, 15, 43, 0
22, 426360, Note_on_c, 15, 41, 84
22, 426459, Note_on_c, 15, 41, 0
22, 426480, Note_on_c, 15, 43, 84
22, 426579, Note_on_c, 15, 43, 0
22, 426600, Note_on_c, 15, 47, 84
22, 426699, Note_on_c, 15, 47, 0
22, 426720, Note_on_c, 15, 48, 84
22, 426819, Note_on_c, 15, 48, 0
22, 426840, Note_on_c, 15, 47, 84
22, 426939, Note_on_c, 15, 47, 0
22, 426960, Note_on_c, 15, 48, 84
22, 427059, Note_on_c, 15, 48, 0
22, 427080, Note_on_c, 15, 50, 84
22, 427179, Note_on_c, 15, 50, 0
22, 427200, Note_on_c, 15, 52, 84
22, 427299, Note_on_c, 15, 52, 0
22, 427320, Note_on_c, 15, 38, 84
22, 427419, Note_on_c, 15, 38, 0
22, 427440, Note_on_c, 15, 40, 84
22, 427539, Note_on_c, 15, 40, 0
22, 427560, Note_on_c, 15, 41, 84
22, 427659, Note_on_c, 15, 41, 0
22, 427680, Note_on_c, 15, 43, 84
22, 428619, Note_on_c, 15, 43, 0
22, 428640, Note_on_c, 15, 40, 84
22, 429579, Note_on_c, 15, 40, 0
22, 429600, Note_on_c, 15, 36, 84
22, 429719, Note_on_c, 15, 36, 0
22, 430080, Note_on_c, 15, 31, 84
22, 430199, Note_on_c, 15, 31, 0
22, 430560, Note_on_c, 15, 36, 84
22, 430679, Note_on_c, 15, 36, 0
22, 431040, Note_on_c, 15, 31, 84
22, 431159, Note_on_c, 15, 31, 0
22, 431520, Note_on_c, 15, 36, 84
22, 431639, Note_on_c, 15, 36, 0
22, 432000, Note_on_c, 15, 31, 84
22, 432119, Note_on_c, 15, 31, 0
22, 432480, Note_on_c, 15, 36, 84
22, 432599, Note_on_c, 15, 36, 0
22, 432960, Note_on_c, 15, 31, 84
22, 433079, Note_on_c, 15, 31, 0
22, 433440, Note_on_c, 15, 36, 84
22, 433559, Note_on_c, 15, 36, 0
22, 433920, Note_on_c, 15, 31, 84
22, 434039, Note_on_c, 15, 31, 0
22, 434400, Note_on_c, 15, 36, 84
22, 434519, Note_on_c, 15, 36, 0
22, 434880, Note_on_c, 15, 31, 84
22, 434999, Note_on_c, 15, 31, 0
22, 435360, Note_on_c, 15, 48, 84
22, 436299, Note_on_c, 15, 48, 0
22, 436320, Note_on_c, 15, 48, 84
22, 437019, Note_on_c, 15, 48, 0
22, 437040, Note_on_c, 15, 43, 84
22, 437139, Note_on_c, 15, 43, 0
22, 437160, Note_on_c, 15, 40, 84
22, 437259, Note_on_c, 15, 40, 0
22, 437280, Note_on_c, 15, 36, 84
22, 437399, Note_on_c, 15, 36, 0
22, 437640, Note_on_c, 15, 36, 84
22, 437739, Note_on_c, 15, 36, 0
22, 437760, Note_on_c, 15, 36, 84
22, 437859, Note_on_c, 15, 36, 0
22, 437880, Note_on_c, 15, 36, 84
22, 437979, Note_on_c, 15, 36, 0
22, 438000, Note_on_c, 15, 36, 84
22, 438099, Note_on_c, 15, 36, 0
22, 438120, Note_on_c, 15, 36, 84
22, 438219, Note_on_c, 15, 36, 0
22, 438240, Note_on_c, 15, 36, 84
22, 438359, Note_on_c, 15, 36, 0
22, 438600, Note_on_c, 15, 36, 84
22, 438699, Note_on_c, 15, 36, 0
22, 438720, Note_on_c, 15, 36, 84
22, 438819, Note_on_c, 15, 36, 0
22, 438840, Note_on_c, 15, 36, 84
22, 438939, Note_on_c, 15, 36, 0
22, 438960, Note_on_c, 15, 36, 84
22, 439059, Note_on_c, 15, 36, 0
22, 439080, Note_on_c, 15, 36, 84
22, 439179, Note_on_c, 15, 36, 0
22, 439200, Note_on_c, 15, 36, 84
22, 439319, Note_on_c, 15, 36, 0
22, 439440, Note_on_c, 15, 36, 84
22, 439539, Note_on_c, 15, 36, 0
22, 439560, Note_on_c, 15, 36, 84
22, 439659, Note_on_c, 15, 36, 0
22, 439680, Note_on_c, 15, 36, 84
22, 439799, Note_on_c, 15, 36, 0
22, 439920, Note_on_c, 15, 36, 84
22, 440019, Note_on_c, 15, 36, 0
22, 440040, Note_on_c, 15, 36, 84
22, 440139, Note_on_c, 15, 36, 0
22, 440160, Note_on_c, 15, 36, 84
22, 440279, Note_on_c, 15, 36, 0
22, 440400, Note_on_c, 15, 36, 84
22, 440499, Note_on_c, 15, 36, 0
22, 440520, Note_on_c, 15, 36, 84
22, 440619, Note_on_c, 15, 36, 0
22, 440640, Note_on_c, 15, 36, 84
22, 440759, Note_on_c, 15, 36, 0
22, 440880, Note_on_c, 15, 36, 84
22, 440979, Note_on_c, 15, 36, 0
22, 441000, Note_on_c, 15, 36, 84
22, 441099, Note_on_c, 15, 36, 0
22, 441120, Note_on_c, 15, 36, 84
22, 441219, Note_on_c, 15, 36, 0
22, 441240, Note_on_c, 15, 40, 84
22, 441339, Note_on_c, 15, 40, 0
22, 441360, Note_on_c, 15, 43, 84
22, 441459, Note_on_c, 15, 43, 0
22, 441480, Note_on_c, 15, 48, 84
22, 441579, Note_on_c, 15, 48, 0
22, 441600, Note_on_c, 15, 52, 84
22, 441699, Note_on_c, 15, 52, 0
22, 441720, Note_on_c, 15, 55, 84
22, 441819, Note_on_c, 15, 55, 0
22, 441840, Note_on_c, 15, 52, 84
22, 441939, Note_on_c, 15, 52, 0
22, 441960, Note_on_c, 15, 48, 84
22, 442059, Note_on_c, 15, 48, 0
22, 442080, Note_on_c, 15, 43, 84
22, 442179, Note_on_c, 15, 43, 0
22, 442200, Note_on_c, 15, 40, 84
22, 442299, Note_on_c, 15, 40, 0
22, 442320, Note_on_c, 15, 36, 84
22, 442419, Note_on_c, 15, 36, 0
22, 442440, Note_on_c, 15, 31, 84
22, 442539, Note_on_c, 15, 31, 0
22, 442560, Note_on_c, 15, 28, 84
22, 442659, Note_on_c, 15, 28, 0
22, 442680, Note_on_c, 15, 24, 84
22, 442779, Note_on_c, 15, 24, 0
22, 442800, Note_on_c, 15, 36, 84
22, 442899, Note_on_c, 15, 36, 0
22, 442920, Note_on_c, 15, 36, 84
22, 443019, Note_on_c, 15, 36, 0
22, 443040, Note_on_c, 15, 36, 84
22, 443159, Note_on_c, 15, 36, 0
22, 444000, Note_on_c, 15, 36, 84
22, 444119, Note_on_c, 15, 36, 0
22, 444960, Note_on_c, 15, 36, 84
22, 445079, Note_on_c, 15, 36, 0
22, 445920, Note_on_c, 15, 36, 84
22, 446039, Note_on_c, 15, 36, 0
22, 446400, Note_on_c, 15, 36, 84
22, 446519, Note_on_c, 15, 36, 0
22, 446880, Note_on_c, 15, 36, 84
22, 446999, Note_on_c, 15, 36, 0
22, 447840, Note_on_c, 15, 36, 84
22, 447959, Note_on_c, 15, 36, 0
22, 448800, Note_on_c, 15, 36, 84
22, 451199, Note_on_c, 15, 36, 0
22, 451199, End_track
23, 0, Start_track
23, 0, Title_t, "Ludwig van Beethoven - Symphony No. 5, Op.67 - No. 4 Allegro"
23, 0, MIDI_port, 0
23, 0, End_track
0, 0, End_of_file
