0, 0, Header, 1, 18, 240
1, 0, Start_track
1, 0, Sequencer_specific, 10, 0, 0, 91, 35, 1, 0, 5, 6, 42, 0
1, 0, Title_t, "Ludwig van Beethoven - Symphony No. 7 in A Major, Op.92"
1, 0, Instrument_name_t, "Conductor Track"
1, 0, SMPTE_offset, 96, 0, 3, 0, 0
1, 0, MIDI_port, 0
1, 0, Key_signature, 3, "major"
1, 0, Tempo, 416666
1, 0, Time_signature, 2, 2, 24, 8
1, 135360, Key_signature, 0, "minor"
1, 180480, Key_signature, 3, "major"
1, 300240, Tempo, 1000000
1, 300480, Tempo, 416666
1, 300480, End_track
2, 0, Start_track
2, 0, Title_t, "4th Movement - Allegro con brio"
2, 0, MIDI_port, 0
2, 0, End_track
3, 0, Start_track
3, 0, Title_t, "Sequenced by D. L. Viens 6 Oct 2000"
3, 0, MIDI_port, 0
3, 0, End_track
4, 0, Start_track
4, 0, Title_t, "dlviens@empire.net"
4, 0, MIDI_port, 0
4, 0, End_track
5, 0, Start_track
5, 0, MIDI_port, 0
5, 0, End_track
6, 0, Start_track
6, 0, Title_t, "Flute"
6, 0, MIDI_port, 0
6, 0, Program_c, 1, 73
6, 0, Control_c, 1, 7, 72
6, 0, Control_c, 1, 10, 60
6, 0, Control_c, 1, 11, 127
6, 120, Note_on_c, 1, 76, 84
6, 120, Note_on_c, 1, 88, 84
6, 171, Note_on_c, 1, 76, 0
6, 171, Note_on_c, 1, 88, 0
6, 180, Note_on_c, 1, 76, 84
6, 180, Note_on_c, 1, 88, 84
6, 231, Note_on_c, 1, 76, 0
6, 231, Note_on_c, 1, 88, 0
6, 240, Note_on_c, 1, 88, 84
6, 240, Note_on_c, 1, 76, 84
6, 359, Note_on_c, 1, 88, 0
6, 359, Note_on_c, 1, 76, 0
6, 1080, Note_on_c, 1, 86, 84
6, 1080, Note_on_c, 1, 83, 84
6, 1131, Note_on_c, 1, 86, 0
6, 1131, Note_on_c, 1, 83, 0
6, 1140, Note_on_c, 1, 86, 84
6, 1140, Note_on_c, 1, 83, 84
6, 1191, Note_on_c, 1, 86, 0
6, 1191, Note_on_c, 1, 83, 0
6, 1200, Note_on_c, 1, 83, 84
6, 1200, Note_on_c, 1, 86, 84
6, 1319, Note_on_c, 1, 83, 0
6, 1319, Note_on_c, 1, 86, 0
6, 1920, Note_on_c, 1, 76, 84
6, 1920, Note_on_c, 1, 88, 84
6, 2039, Note_on_c, 1, 76, 0
6, 2039, Note_on_c, 1, 88, 0
6, 2280, Note_on_c, 1, 76, 92
6, 2280, Note_on_c, 1, 88, 92
6, 2399, Note_on_c, 1, 76, 0
6, 2399, Note_on_c, 1, 88, 0
6, 2400, Note_on_c, 1, 88, 84
6, 2400, Note_on_c, 1, 76, 84
6, 2519, Note_on_c, 1, 88, 0
6, 2519, Note_on_c, 1, 76, 0
6, 2760, Note_on_c, 1, 88, 92
6, 2760, Note_on_c, 1, 76, 92
6, 2879, Note_on_c, 1, 88, 0
6, 2879, Note_on_c, 1, 76, 0
6, 2880, Note_on_c, 1, 88, 84
6, 2880, Note_on_c, 1, 76, 84
6, 2999, Note_on_c, 1, 88, 0
6, 2999, Note_on_c, 1, 76, 0
6, 3240, Note_on_c, 1, 88, 92
6, 3240, Note_on_c, 1, 76, 92
6, 3359, Note_on_c, 1, 88, 0
6, 3359, Note_on_c, 1, 76, 0
6, 3360, Note_on_c, 1, 88, 84
6, 3360, Note_on_c, 1, 76, 84
6, 3479, Note_on_c, 1, 88, 0
6, 3479, Note_on_c, 1, 76, 0
6, 3720, Note_on_c, 1, 88, 92
6, 3720, Note_on_c, 1, 76, 92
6, 3839, Note_on_c, 1, 88, 0
6, 3839, Note_on_c, 1, 76, 0
6, 3840, Note_on_c, 1, 88, 84
6, 3840, Note_on_c, 1, 76, 84
6, 3959, Note_on_c, 1, 88, 0
6, 3959, Note_on_c, 1, 76, 0
6, 4200, Note_on_c, 1, 88, 92
6, 4200, Note_on_c, 1, 76, 92
6, 4319, Note_on_c, 1, 88, 0
6, 4319, Note_on_c, 1, 76, 0
6, 4320, Note_on_c, 1, 76, 84
6, 4320, Note_on_c, 1, 88, 84
6, 4439, Note_on_c, 1, 76, 0
6, 4439, Note_on_c, 1, 88, 0
6, 4680, Note_on_c, 1, 88, 92
6, 4680, Note_on_c, 1, 76, 92
6, 4799, Note_on_c, 1, 88, 0
6, 4799, Note_on_c, 1, 76, 0
6, 4800, Note_on_c, 1, 88, 84
6, 4800, Note_on_c, 1, 76, 84
6, 4919, Note_on_c, 1, 88, 0
6, 4919, Note_on_c, 1, 76, 0
6, 5160, Note_on_c, 1, 76, 92
6, 5160, Note_on_c, 1, 88, 92
6, 5279, Note_on_c, 1, 76, 0
6, 5279, Note_on_c, 1, 88, 0
6, 5280, Note_on_c, 1, 76, 84
6, 5280, Note_on_c, 1, 81, 84
6, 5384, Note_on_c, 1, 76, 0
6, 5384, Note_on_c, 1, 81, 0
6, 5400, Note_on_c, 1, 93, 84
6, 5400, Note_on_c, 1, 81, 84
6, 5451, Note_on_c, 1, 93, 0
6, 5451, Note_on_c, 1, 81, 0
6, 5460, Note_on_c, 1, 81, 84
6, 5460, Note_on_c, 1, 93, 84
6, 5511, Note_on_c, 1, 81, 0
6, 5511, Note_on_c, 1, 93, 0
6, 5520, Note_on_c, 1, 93, 84
6, 5520, Note_on_c, 1, 81, 84
6, 5639, Note_on_c, 1, 93, 0
6, 5639, Note_on_c, 1, 81, 0
6, 5760, Note_on_c, 1, 88, 84
6, 5760, Note_on_c, 1, 76, 84
6, 5879, Note_on_c, 1, 88, 0
6, 5879, Note_on_c, 1, 76, 0
6, 6120, Note_on_c, 1, 76, 92
6, 6120, Note_on_c, 1, 88, 92
6, 6239, Note_on_c, 1, 76, 0
6, 6239, Note_on_c, 1, 88, 0
6, 6240, Note_on_c, 1, 88, 84
6, 6240, Note_on_c, 1, 76, 84
6, 6359, Note_on_c, 1, 88, 0
6, 6359, Note_on_c, 1, 76, 0
6, 6600, Note_on_c, 1, 76, 92
6, 6600, Note_on_c, 1, 88, 92
6, 6719, Note_on_c, 1, 76, 0
6, 6719, Note_on_c, 1, 88, 0
6, 6720, Note_on_c, 1, 76, 84
6, 6720, Note_on_c, 1, 88, 84
6, 6839, Note_on_c, 1, 76, 0
6, 6839, Note_on_c, 1, 88, 0
6, 7080, Note_on_c, 1, 76, 92
6, 7080, Note_on_c, 1, 88, 92
6, 7199, Note_on_c, 1, 76, 0
6, 7199, Note_on_c, 1, 88, 0
6, 7200, Note_on_c, 1, 76, 84
6, 7200, Note_on_c, 1, 88, 84
6, 7319, Note_on_c, 1, 76, 0
6, 7319, Note_on_c, 1, 88, 0
6, 7560, Note_on_c, 1, 76, 92
6, 7560, Note_on_c, 1, 88, 92
6, 7679, Note_on_c, 1, 76, 0
6, 7679, Note_on_c, 1, 88, 0
6, 7680, Note_on_c, 1, 88, 84
6, 7680, Note_on_c, 1, 76, 84
6, 7799, Note_on_c, 1, 88, 0
6, 7799, Note_on_c, 1, 76, 0
6, 8040, Note_on_c, 1, 76, 92
6, 8040, Note_on_c, 1, 88, 92
6, 8159, Note_on_c, 1, 76, 0
6, 8159, Note_on_c, 1, 88, 0
6, 8160, Note_on_c, 1, 88, 84
6, 8160, Note_on_c, 1, 76, 84
6, 8279, Note_on_c, 1, 88, 0
6, 8279, Note_on_c, 1, 76, 0
6, 8520, Note_on_c, 1, 88, 92
6, 8520, Note_on_c, 1, 76, 92
6, 8639, Note_on_c, 1, 88, 0
6, 8639, Note_on_c, 1, 76, 0
6, 8640, Note_on_c, 1, 88, 84
6, 8640, Note_on_c, 1, 76, 84
6, 8759, Note_on_c, 1, 88, 0
6, 8759, Note_on_c, 1, 76, 0
6, 9000, Note_on_c, 1, 88, 92
6, 9000, Note_on_c, 1, 76, 92
6, 9119, Note_on_c, 1, 88, 0
6, 9119, Note_on_c, 1, 76, 0
6, 9120, Note_on_c, 1, 76, 84
6, 9120, Note_on_c, 1, 81, 84
6, 9224, Note_on_c, 1, 76, 0
6, 9224, Note_on_c, 1, 81, 0
6, 9240, Note_on_c, 1, 81, 84
6, 9240, Note_on_c, 1, 93, 84
6, 9291, Note_on_c, 1, 81, 0
6, 9291, Note_on_c, 1, 93, 0
6, 9300, Note_on_c, 1, 81, 84
6, 9300, Note_on_c, 1, 93, 84
6, 9351, Note_on_c, 1, 81, 0
6, 9351, Note_on_c, 1, 93, 0
6, 9360, Note_on_c, 1, 81, 84
6, 9360, Note_on_c, 1, 93, 84
6, 9479, Note_on_c, 1, 81, 0
6, 9479, Note_on_c, 1, 93, 0
6, 9600, Note_on_c, 1, 90, 84
6, 9600, Note_on_c, 1, 81, 84
6, 9719, Note_on_c, 1, 90, 0
6, 9719, Note_on_c, 1, 81, 0
6, 9960, Note_on_c, 1, 90, 92
6, 9960, Note_on_c, 1, 81, 92
6, 10079, Note_on_c, 1, 90, 0
6, 10079, Note_on_c, 1, 81, 0
6, 10080, Note_on_c, 1, 81, 84
6, 10080, Note_on_c, 1, 88, 84
6, 10199, Note_on_c, 1, 81, 0
6, 10199, Note_on_c, 1, 88, 0
6, 10440, Note_on_c, 1, 88, 92
6, 10440, Note_on_c, 1, 81, 92
6, 10559, Note_on_c, 1, 88, 0
6, 10559, Note_on_c, 1, 81, 0
6, 10560, Note_on_c, 1, 90, 84
6, 10560, Note_on_c, 1, 81, 84
6, 10679, Note_on_c, 1, 90, 0
6, 10679, Note_on_c, 1, 81, 0
6, 10920, Note_on_c, 1, 90, 92
6, 10920, Note_on_c, 1, 81, 92
6, 11039, Note_on_c, 1, 90, 0
6, 11039, Note_on_c, 1, 81, 0
6, 11040, Note_on_c, 1, 81, 84
6, 11040, Note_on_c, 1, 90, 84
6, 11159, Note_on_c, 1, 81, 0
6, 11159, Note_on_c, 1, 90, 0
6, 11160, Note_on_c, 1, 89, 84
6, 11279, Note_on_c, 1, 89, 0
6, 11400, Note_on_c, 1, 85, 92
6, 11400, Note_on_c, 1, 88, 92
6, 11519, Note_on_c, 1, 85, 0
6, 11519, Note_on_c, 1, 88, 0
6, 11520, Note_on_c, 1, 87, 84
6, 11520, Note_on_c, 1, 81, 84
6, 11639, Note_on_c, 1, 87, 0
6, 11639, Note_on_c, 1, 81, 0
6, 11880, Note_on_c, 1, 86, 92
6, 11880, Note_on_c, 1, 83, 92
6, 11939, Note_on_c, 1, 86, 0
6, 11940, Note_on_c, 1, 88, 84
6, 11991, Note_on_c, 1, 88, 0
6, 11999, Note_on_c, 1, 83, 0
6, 12000, Note_on_c, 1, 85, 84
6, 12000, Note_on_c, 1, 88, 84
6, 12119, Note_on_c, 1, 85, 0
6, 12119, Note_on_c, 1, 88, 0
6, 12360, Note_on_c, 1, 88, 92
6, 12360, Note_on_c, 1, 85, 92
6, 12479, Note_on_c, 1, 88, 0
6, 12479, Note_on_c, 1, 85, 0
6, 12480, Note_on_c, 1, 88, 84
6, 12480, Note_on_c, 1, 83, 84
6, 12599, Note_on_c, 1, 88, 0
6, 12599, Note_on_c, 1, 83, 0
6, 12840, Note_on_c, 1, 83, 92
6, 12840, Note_on_c, 1, 88, 92
6, 12959, Note_on_c, 1, 83, 0
6, 12959, Note_on_c, 1, 88, 0
6, 12960, Note_on_c, 1, 81, 84
6, 13064, Note_on_c, 1, 81, 0
6, 13080, Note_on_c, 1, 93, 84
6, 13080, Note_on_c, 1, 81, 84
6, 13131, Note_on_c, 1, 93, 0
6, 13131, Note_on_c, 1, 81, 0
6, 13140, Note_on_c, 1, 93, 84
6, 13140, Note_on_c, 1, 81, 84
6, 13191, Note_on_c, 1, 93, 0
6, 13191, Note_on_c, 1, 81, 0
6, 13200, Note_on_c, 1, 93, 84
6, 13200, Note_on_c, 1, 81, 84
6, 13319, Note_on_c, 1, 93, 0
6, 13319, Note_on_c, 1, 81, 0
6, 13440, Note_on_c, 1, 81, 84
6, 13440, Note_on_c, 1, 90, 84
6, 13559, Note_on_c, 1, 81, 0
6, 13559, Note_on_c, 1, 90, 0
6, 13800, Note_on_c, 1, 90, 92
6, 13800, Note_on_c, 1, 81, 92
6, 13919, Note_on_c, 1, 90, 0
6, 13919, Note_on_c, 1, 81, 0
6, 13920, Note_on_c, 1, 81, 84
6, 13920, Note_on_c, 1, 88, 84
6, 14039, Note_on_c, 1, 81, 0
6, 14039, Note_on_c, 1, 88, 0
6, 14280, Note_on_c, 1, 81, 92
6, 14280, Note_on_c, 1, 88, 92
6, 14399, Note_on_c, 1, 81, 0
6, 14399, Note_on_c, 1, 88, 0
6, 14400, Note_on_c, 1, 90, 84
6, 14400, Note_on_c, 1, 81, 84
6, 14519, Note_on_c, 1, 90, 0
6, 14519, Note_on_c, 1, 81, 0
6, 14760, Note_on_c, 1, 81, 92
6, 14760, Note_on_c, 1, 90, 92
6, 14879, Note_on_c, 1, 81, 0
6, 14879, Note_on_c, 1, 90, 0
6, 14880, Note_on_c, 1, 90, 84
6, 14880, Note_on_c, 1, 81, 84
6, 14999, Note_on_c, 1, 90, 0
6, 14999, Note_on_c, 1, 81, 0
6, 15000, Note_on_c, 1, 89, 84
6, 15119, Note_on_c, 1, 89, 0
6, 15240, Note_on_c, 1, 88, 92
6, 15240, Note_on_c, 1, 85, 92
6, 15359, Note_on_c, 1, 88, 0
6, 15359, Note_on_c, 1, 85, 0
6, 15360, Note_on_c, 1, 87, 84
6, 15360, Note_on_c, 1, 81, 84
6, 15479, Note_on_c, 1, 87, 0
6, 15479, Note_on_c, 1, 81, 0
6, 15720, Note_on_c, 1, 86, 92
6, 15720, Note_on_c, 1, 83, 92
6, 15779, Note_on_c, 1, 86, 0
6, 15780, Note_on_c, 1, 88, 84
6, 15831, Note_on_c, 1, 88, 0
6, 15839, Note_on_c, 1, 83, 0
6, 15840, Note_on_c, 1, 85, 84
6, 15840, Note_on_c, 1, 88, 84
6, 15959, Note_on_c, 1, 85, 0
6, 15959, Note_on_c, 1, 88, 0
6, 16200, Note_on_c, 1, 85, 92
6, 16200, Note_on_c, 1, 88, 92
6, 16319, Note_on_c, 1, 85, 0
6, 16319, Note_on_c, 1, 88, 0
6, 16320, Note_on_c, 1, 88, 84
6, 16320, Note_on_c, 1, 83, 84
6, 16439, Note_on_c, 1, 88, 0
6, 16439, Note_on_c, 1, 83, 0
6, 16680, Note_on_c, 1, 88, 92
6, 16680, Note_on_c, 1, 83, 92
6, 16799, Note_on_c, 1, 88, 0
6, 16799, Note_on_c, 1, 83, 0
6, 16800, Note_on_c, 1, 81, 84
6, 16904, Note_on_c, 1, 81, 0
6, 16920, Note_on_c, 1, 81, 84
6, 16971, Note_on_c, 1, 81, 0
6, 16980, Note_on_c, 1, 81, 84
6, 17031, Note_on_c, 1, 81, 0
6, 17040, Note_on_c, 1, 81, 84
6, 17159, Note_on_c, 1, 81, 0
6, 17400, Note_on_c, 1, 81, 84
6, 17451, Note_on_c, 1, 81, 0
6, 17460, Note_on_c, 1, 81, 84
6, 17511, Note_on_c, 1, 81, 0
6, 17520, Note_on_c, 1, 81, 84
6, 17639, Note_on_c, 1, 81, 0
6, 17880, Note_on_c, 1, 88, 84
6, 17931, Note_on_c, 1, 88, 0
6, 17940, Note_on_c, 1, 88, 84
6, 17991, Note_on_c, 1, 88, 0
6, 18000, Note_on_c, 1, 88, 84
6, 18119, Note_on_c, 1, 88, 0
6, 18360, Note_on_c, 1, 88, 84
6, 18411, Note_on_c, 1, 88, 0
6, 18420, Note_on_c, 1, 88, 84
6, 18471, Note_on_c, 1, 88, 0
6, 18480, Note_on_c, 1, 88, 84
6, 18599, Note_on_c, 1, 88, 0
6, 18720, Note_on_c, 1, 76, 84
6, 18720, Note_on_c, 1, 85, 84
6, 19064, Note_on_c, 1, 76, 0
6, 19064, Note_on_c, 1, 85, 0
6, 19080, Note_on_c, 1, 83, 84
6, 19080, Note_on_c, 1, 74, 84
6, 19169, Note_on_c, 1, 83, 0
6, 19169, Note_on_c, 1, 74, 0
6, 19200, Note_on_c, 1, 81, 84
6, 19200, Note_on_c, 1, 73, 84
6, 19289, Note_on_c, 1, 81, 0
6, 19289, Note_on_c, 1, 73, 0
6, 19320, Note_on_c, 1, 76, 84
6, 19320, Note_on_c, 1, 85, 84
6, 19409, Note_on_c, 1, 76, 0
6, 19409, Note_on_c, 1, 85, 0
6, 19440, Note_on_c, 1, 74, 84
6, 19440, Note_on_c, 1, 83, 84
6, 19529, Note_on_c, 1, 74, 0
6, 19529, Note_on_c, 1, 83, 0
6, 19560, Note_on_c, 1, 73, 84
6, 19560, Note_on_c, 1, 81, 84
6, 19649, Note_on_c, 1, 73, 0
6, 19649, Note_on_c, 1, 81, 0
6, 19680, Note_on_c, 1, 74, 84
6, 19680, Note_on_c, 1, 83, 84
6, 19769, Note_on_c, 1, 74, 0
6, 19769, Note_on_c, 1, 83, 0
6, 19800, Note_on_c, 1, 85, 84
6, 19800, Note_on_c, 1, 93, 84
6, 19889, Note_on_c, 1, 85, 0
6, 19889, Note_on_c, 1, 93, 0
6, 19920, Note_on_c, 1, 92, 84
6, 19920, Note_on_c, 1, 83, 84
6, 20009, Note_on_c, 1, 92, 0
6, 20009, Note_on_c, 1, 83, 0
6, 20040, Note_on_c, 1, 90, 84
6, 20040, Note_on_c, 1, 86, 84
6, 20129, Note_on_c, 1, 90, 0
6, 20129, Note_on_c, 1, 86, 0
6, 20160, Note_on_c, 1, 85, 84
6, 20160, Note_on_c, 1, 88, 84
6, 20249, Note_on_c, 1, 85, 0
6, 20249, Note_on_c, 1, 88, 0
6, 20280, Note_on_c, 1, 83, 84
6, 20280, Note_on_c, 1, 86, 84
6, 20369, Note_on_c, 1, 83, 0
6, 20369, Note_on_c, 1, 86, 0
6, 20400, Note_on_c, 1, 81, 84
6, 20400, Note_on_c, 1, 85, 84
6, 20489, Note_on_c, 1, 81, 0
6, 20489, Note_on_c, 1, 85, 0
6, 20520, Note_on_c, 1, 83, 84
6, 20520, Note_on_c, 1, 80, 84
6, 20609, Note_on_c, 1, 83, 0
6, 20609, Note_on_c, 1, 80, 0
6, 20640, Note_on_c, 1, 81, 84
6, 20744, Note_on_c, 1, 81, 0
6, 20760, Note_on_c, 1, 81, 84
6, 20811, Note_on_c, 1, 81, 0
6, 20820, Note_on_c, 1, 81, 84
6, 20871, Note_on_c, 1, 81, 0
6, 20880, Note_on_c, 1, 81, 84
6, 20999, Note_on_c, 1, 81, 0
6, 21240, Note_on_c, 1, 81, 84
6, 21291, Note_on_c, 1, 81, 0
6, 21300, Note_on_c, 1, 81, 84
6, 21351, Note_on_c, 1, 81, 0
6, 21360, Note_on_c, 1, 81, 84
6, 21479, Note_on_c, 1, 81, 0
6, 21720, Note_on_c, 1, 88, 84
6, 21771, Note_on_c, 1, 88, 0
6, 21780, Note_on_c, 1, 88, 84
6, 21831, Note_on_c, 1, 88, 0
6, 21840, Note_on_c, 1, 88, 84
6, 21959, Note_on_c, 1, 88, 0
6, 22200, Note_on_c, 1, 88, 84
6, 22251, Note_on_c, 1, 88, 0
6, 22260, Note_on_c, 1, 88, 84
6, 22311, Note_on_c, 1, 88, 0
6, 22320, Note_on_c, 1, 88, 84
6, 22439, Note_on_c, 1, 88, 0
6, 22560, Note_on_c, 1, 88, 84
6, 22679, Note_on_c, 1, 88, 0
6, 22800, Note_on_c, 1, 88, 84
6, 22919, Note_on_c, 1, 88, 0
6, 23040, Note_on_c, 1, 88, 84
6, 23159, Note_on_c, 1, 88, 0
6, 23280, Note_on_c, 1, 88, 84
6, 23399, Note_on_c, 1, 88, 0
6, 23520, Note_on_c, 1, 88, 84
6, 23639, Note_on_c, 1, 88, 0
6, 23760, Note_on_c, 1, 88, 84
6, 23879, Note_on_c, 1, 88, 0
6, 24000, Note_on_c, 1, 88, 84
6, 24119, Note_on_c, 1, 88, 0
6, 24240, Note_on_c, 1, 88, 84
6, 24359, Note_on_c, 1, 88, 0
6, 24480, Note_on_c, 1, 88, 84
6, 24599, Note_on_c, 1, 88, 0
6, 24960, Note_on_c, 1, 76, 84
6, 24960, Note_on_c, 1, 88, 84
6, 26519, Note_on_c, 1, 76, 0
6, 26519, Note_on_c, 1, 88, 0
6, 26880, Note_on_c, 1, 76, 84
6, 26880, Note_on_c, 1, 88, 84
6, 28079, Note_on_c, 1, 76, 0
6, 28079, Note_on_c, 1, 88, 0
6, 28080, Note_on_c, 1, 77, 84
6, 28080, Note_on_c, 1, 89, 84
6, 28319, Note_on_c, 1, 77, 0
6, 28319, Note_on_c, 1, 89, 0
6, 28320, Note_on_c, 1, 90, 84
6, 28320, Note_on_c, 1, 78, 84
6, 28439, Note_on_c, 1, 90, 0
6, 28439, Note_on_c, 1, 78, 0
6, 31920, Note_on_c, 1, 85, 84
6, 31920, Note_on_c, 1, 89, 84
6, 32159, Note_on_c, 1, 89, 0
6, 32160, Note_on_c, 1, 90, 84
6, 32279, Note_on_c, 1, 85, 0
6, 32279, Note_on_c, 1, 90, 0
6, 32400, Note_on_c, 1, 85, 84
6, 32519, Note_on_c, 1, 85, 0
6, 32640, Note_on_c, 1, 85, 84
6, 32759, Note_on_c, 1, 85, 0
6, 32880, Note_on_c, 1, 85, 84
6, 32999, Note_on_c, 1, 85, 0
6, 33120, Note_on_c, 1, 85, 84
6, 33239, Note_on_c, 1, 85, 0
6, 33360, Note_on_c, 1, 85, 84
6, 33479, Note_on_c, 1, 85, 0
6, 33600, Note_on_c, 1, 85, 84
6, 33719, Note_on_c, 1, 85, 0
6, 33840, Note_on_c, 1, 85, 84
6, 33959, Note_on_c, 1, 85, 0
6, 34080, Note_on_c, 1, 85, 84
6, 34199, Note_on_c, 1, 85, 0
6, 34320, Note_on_c, 1, 85, 84
6, 34439, Note_on_c, 1, 85, 0
6, 34560, Note_on_c, 1, 85, 84
6, 34679, Note_on_c, 1, 85, 0
6, 34800, Note_on_c, 1, 85, 84
6, 34919, Note_on_c, 1, 85, 0
6, 35040, Note_on_c, 1, 87, 84
6, 35159, Note_on_c, 1, 87, 0
6, 35280, Note_on_c, 1, 87, 84
6, 35399, Note_on_c, 1, 87, 0
6, 35520, Note_on_c, 1, 88, 84
6, 35639, Note_on_c, 1, 88, 0
6, 35760, Note_on_c, 1, 88, 84
6, 35879, Note_on_c, 1, 88, 0
6, 36000, Note_on_c, 1, 87, 84
6, 36000, Note_on_c, 1, 90, 84
6, 36119, Note_on_c, 1, 87, 0
6, 36119, Note_on_c, 1, 90, 0
6, 36240, Note_on_c, 1, 87, 84
6, 36240, Note_on_c, 1, 90, 84
6, 36359, Note_on_c, 1, 87, 0
6, 36359, Note_on_c, 1, 90, 0
6, 36480, Note_on_c, 1, 87, 84
6, 36480, Note_on_c, 1, 90, 84
6, 36599, Note_on_c, 1, 87, 0
6, 36599, Note_on_c, 1, 90, 0
6, 36720, Note_on_c, 1, 90, 84
6, 36720, Note_on_c, 1, 87, 84
6, 36839, Note_on_c, 1, 90, 0
6, 36839, Note_on_c, 1, 87, 0
6, 36960, Note_on_c, 1, 90, 84
6, 36960, Note_on_c, 1, 87, 84
6, 37079, Note_on_c, 1, 90, 0
6, 37079, Note_on_c, 1, 87, 0
6, 37200, Note_on_c, 1, 90, 76
6, 37200, Note_on_c, 1, 87, 76
6, 37319, Note_on_c, 1, 90, 0
6, 37319, Note_on_c, 1, 87, 0
6, 37440, Note_on_c, 1, 78, 52
6, 37440, Note_on_c, 1, 75, 52
6, 37559, Note_on_c, 1, 78, 0
6, 37559, Note_on_c, 1, 75, 0
6, 39120, Note_on_c, 1, 90, 76
6, 39120, Note_on_c, 1, 87, 76
6, 39209, Note_on_c, 1, 90, 0
6, 39209, Note_on_c, 1, 87, 0
6, 39360, Note_on_c, 1, 75, 52
6, 39360, Note_on_c, 1, 78, 52
6, 39479, Note_on_c, 1, 75, 0
6, 39479, Note_on_c, 1, 78, 0
6, 42960, Note_on_c, 1, 80, 76
6, 42960, Note_on_c, 1, 88, 76
6, 43199, Note_on_c, 1, 80, 0
6, 43199, Note_on_c, 1, 88, 0
6, 43440, Note_on_c, 1, 87, 76
6, 43440, Note_on_c, 1, 78, 76
6, 43679, Note_on_c, 1, 87, 0
6, 43679, Note_on_c, 1, 78, 0
6, 43920, Note_on_c, 1, 85, 76
6, 43920, Note_on_c, 1, 76, 76
6, 44159, Note_on_c, 1, 85, 0
6, 44159, Note_on_c, 1, 76, 0
6, 44400, Note_on_c, 1, 87, 76
6, 44400, Note_on_c, 1, 78, 76
6, 44624, Note_on_c, 1, 87, 0
6, 44624, Note_on_c, 1, 78, 0
6, 44640, Note_on_c, 1, 88, 48
6, 45239, Note_on_c, 1, 88, 0
6, 45300, Note_on_c, 1, 90, 48
6, 45359, Note_on_c, 1, 90, 0
6, 45360, Note_on_c, 1, 91, 48
6, 45479, Note_on_c, 1, 91, 0
6, 45540, Note_on_c, 1, 88, 48
6, 45599, Note_on_c, 1, 88, 0
6, 45600, Note_on_c, 1, 90, 48
6, 45719, Note_on_c, 1, 90, 0
6, 45780, Note_on_c, 1, 88, 48
6, 45839, Note_on_c, 1, 88, 0
6, 45840, Note_on_c, 1, 86, 48
6, 45959, Note_on_c, 1, 86, 0
6, 46020, Note_on_c, 1, 90, 48
6, 46079, Note_on_c, 1, 90, 0
6, 46080, Note_on_c, 1, 88, 48
6, 46199, Note_on_c, 1, 88, 0
6, 46260, Note_on_c, 1, 90, 48
6, 46319, Note_on_c, 1, 90, 0
6, 46320, Note_on_c, 1, 91, 48
6, 46439, Note_on_c, 1, 91, 0
6, 46500, Note_on_c, 1, 88, 48
6, 46559, Note_on_c, 1, 88, 0
6, 46560, Note_on_c, 1, 90, 48
6, 46679, Note_on_c, 1, 90, 0
6, 46740, Note_on_c, 1, 88, 48
6, 46799, Note_on_c, 1, 88, 0
6, 46800, Note_on_c, 1, 86, 48
6, 46919, Note_on_c, 1, 86, 0
6, 46980, Note_on_c, 1, 90, 48
6, 47039, Note_on_c, 1, 90, 0
6, 47760, Note_on_c, 1, 80, 76
6, 47760, Note_on_c, 1, 88, 76
6, 47999, Note_on_c, 1, 80, 0
6, 47999, Note_on_c, 1, 88, 0
6, 48240, Note_on_c, 1, 87, 76
6, 48240, Note_on_c, 1, 78, 76
6, 48479, Note_on_c, 1, 87, 0
6, 48479, Note_on_c, 1, 78, 0
6, 48720, Note_on_c, 1, 85, 76
6, 48720, Note_on_c, 1, 76, 76
6, 48959, Note_on_c, 1, 85, 0
6, 48959, Note_on_c, 1, 76, 0
6, 49200, Note_on_c, 1, 78, 76
6, 49200, Note_on_c, 1, 87, 76
6, 49424, Note_on_c, 1, 78, 0
6, 49424, Note_on_c, 1, 87, 0
6, 49440, Note_on_c, 1, 76, 52
6, 49440, Note_on_c, 1, 88, 52
6, 49559, Note_on_c, 1, 76, 0
6, 50039, Note_on_c, 1, 88, 0
6, 50100, Note_on_c, 1, 90, 52
6, 50159, Note_on_c, 1, 90, 0
6, 50160, Note_on_c, 1, 91, 52
6, 50279, Note_on_c, 1, 91, 0
6, 50340, Note_on_c, 1, 88, 52
6, 50399, Note_on_c, 1, 88, 0
6, 50400, Note_on_c, 1, 90, 52
6, 50519, Note_on_c, 1, 90, 0
6, 50580, Note_on_c, 1, 88, 52
6, 50639, Note_on_c, 1, 88, 0
6, 50640, Note_on_c, 1, 86, 52
6, 50759, Note_on_c, 1, 86, 0
6, 50820, Note_on_c, 1, 90, 52
6, 50879, Note_on_c, 1, 90, 0
6, 50880, Note_on_c, 1, 88, 52
6, 50999, Note_on_c, 1, 88, 0
6, 51060, Note_on_c, 1, 90, 52
6, 51119, Note_on_c, 1, 90, 0
6, 51120, Note_on_c, 1, 91, 52
6, 51239, Note_on_c, 1, 91, 0
6, 51300, Note_on_c, 1, 90, 52
6, 51359, Note_on_c, 1, 90, 0
6, 51360, Note_on_c, 1, 88, 52
6, 51360, Note_on_c, 1, 91, 52
6, 51479, Note_on_c, 1, 88, 0
6, 51479, Note_on_c, 1, 91, 0
6, 51588, Control_c, 1, 11, 64
6, 51600, Note_on_c, 1, 88, 84
6, 51600, Note_on_c, 1, 91, 84
6, 51600, Control_c, 1, 11, 64
6, 51688, Control_c, 1, 11, 65
6, 51775, Control_c, 1, 11, 66
6, 51863, Control_c, 1, 11, 67
6, 51950, Control_c, 1, 11, 68
6, 52038, Control_c, 1, 11, 69
6, 52126, Control_c, 1, 11, 70
6, 52213, Control_c, 1, 11, 71
6, 52301, Control_c, 1, 11, 72
6, 52389, Control_c, 1, 11, 73
6, 52476, Control_c, 1, 11, 74
6, 52564, Control_c, 1, 11, 75
6, 52651, Control_c, 1, 11, 76
6, 52739, Control_c, 1, 11, 77
6, 52827, Control_c, 1, 11, 78
6, 52914, Control_c, 1, 11, 79
6, 53002, Control_c, 1, 11, 80
6, 53090, Control_c, 1, 11, 81
6, 53177, Control_c, 1, 11, 82
6, 53265, Control_c, 1, 11, 83
6, 53352, Control_c, 1, 11, 84
6, 53440, Control_c, 1, 11, 85
6, 53528, Control_c, 1, 11, 86
6, 53615, Control_c, 1, 11, 87
6, 53703, Control_c, 1, 11, 88
6, 53744, Note_on_c, 1, 88, 0
6, 53744, Note_on_c, 1, 91, 0
6, 53760, Note_on_c, 1, 86, 84
6, 53760, Note_on_c, 1, 90, 84
6, 53790, Control_c, 1, 11, 89
6, 53878, Control_c, 1, 11, 90
6, 53966, Control_c, 1, 11, 91
6, 54053, Control_c, 1, 11, 92
6, 54141, Control_c, 1, 11, 93
6, 54224, Note_on_c, 1, 86, 0
6, 54224, Note_on_c, 1, 90, 0
6, 54229, Control_c, 1, 11, 94
6, 54240, Note_on_c, 1, 88, 84
6, 54240, Note_on_c, 1, 91, 84
6, 54316, Control_c, 1, 11, 95
6, 54404, Control_c, 1, 11, 96
6, 54491, Control_c, 1, 11, 97
6, 54579, Control_c, 1, 11, 98
6, 54667, Control_c, 1, 11, 99
6, 54754, Control_c, 1, 11, 100
6, 54842, Control_c, 1, 11, 101
6, 54930, Control_c, 1, 11, 102
6, 55017, Control_c, 1, 11, 103
6, 55105, Control_c, 1, 11, 104
6, 55192, Control_c, 1, 11, 105
6, 55280, Control_c, 1, 11, 106
6, 55368, Control_c, 1, 11, 107
6, 55455, Control_c, 1, 11, 108
6, 55543, Control_c, 1, 11, 109
6, 55630, Control_c, 1, 11, 110
6, 55718, Control_c, 1, 11, 111
6, 55806, Control_c, 1, 11, 112
6, 55893, Control_c, 1, 11, 113
6, 55981, Control_c, 1, 11, 114
6, 56069, Control_c, 1, 11, 115
6, 56156, Control_c, 1, 11, 116
6, 56244, Control_c, 1, 11, 117
6, 56331, Control_c, 1, 11, 118
6, 56419, Control_c, 1, 11, 119
6, 56507, Control_c, 1, 11, 120
6, 56594, Control_c, 1, 11, 121
6, 56624, Note_on_c, 1, 88, 0
6, 56624, Note_on_c, 1, 91, 0
6, 56640, Note_on_c, 1, 86, 84
6, 56640, Note_on_c, 1, 90, 84
6, 56682, Control_c, 1, 11, 122
6, 56770, Control_c, 1, 11, 123
6, 56857, Control_c, 1, 11, 124
6, 56945, Control_c, 1, 11, 125
6, 57032, Control_c, 1, 11, 127
6, 57104, Note_on_c, 1, 86, 0
6, 57104, Note_on_c, 1, 90, 0
6, 57120, Note_on_c, 1, 90, 84
6, 57120, Note_on_c, 1, 87, 84
6, 57224, Note_on_c, 1, 90, 0
6, 57224, Note_on_c, 1, 87, 0
6, 57240, Note_on_c, 1, 90, 84
6, 57240, Note_on_c, 1, 87, 84
6, 57344, Note_on_c, 1, 90, 0
6, 57344, Note_on_c, 1, 87, 0
6, 57360, Note_on_c, 1, 90, 84
6, 57360, Note_on_c, 1, 87, 84
6, 57464, Note_on_c, 1, 90, 0
6, 57464, Note_on_c, 1, 87, 0
6, 57480, Note_on_c, 1, 87, 84
6, 57480, Note_on_c, 1, 90, 84
6, 57584, Note_on_c, 1, 87, 0
6, 57584, Note_on_c, 1, 90, 0
6, 57600, Note_on_c, 1, 90, 84
6, 57600, Note_on_c, 1, 87, 84
6, 57704, Note_on_c, 1, 90, 0
6, 57704, Note_on_c, 1, 87, 0
6, 57720, Note_on_c, 1, 90, 84
6, 57720, Note_on_c, 1, 87, 84
6, 57824, Note_on_c, 1, 90, 0
6, 57824, Note_on_c, 1, 87, 0
6, 57840, Note_on_c, 1, 90, 84
6, 57840, Note_on_c, 1, 87, 84
6, 57944, Note_on_c, 1, 90, 0
6, 57944, Note_on_c, 1, 87, 0
6, 57960, Note_on_c, 1, 90, 84
6, 57960, Note_on_c, 1, 87, 84
6, 58064, Note_on_c, 1, 90, 0
6, 58064, Note_on_c, 1, 87, 0
6, 58080, Note_on_c, 1, 85, 92
6, 58080, Note_on_c, 1, 88, 92
6, 58184, Note_on_c, 1, 85, 0
6, 58184, Note_on_c, 1, 88, 0
6, 58200, Note_on_c, 1, 88, 84
6, 58200, Note_on_c, 1, 85, 84
6, 58304, Note_on_c, 1, 88, 0
6, 58304, Note_on_c, 1, 85, 0
6, 58320, Note_on_c, 1, 88, 84
6, 58320, Note_on_c, 1, 85, 84
6, 58424, Note_on_c, 1, 88, 0
6, 58424, Note_on_c, 1, 85, 0
6, 58440, Note_on_c, 1, 88, 84
6, 58440, Note_on_c, 1, 85, 84
6, 58544, Note_on_c, 1, 88, 0
6, 58544, Note_on_c, 1, 85, 0
6, 58560, Note_on_c, 1, 90, 92
6, 58560, Note_on_c, 1, 87, 92
6, 58664, Note_on_c, 1, 90, 0
6, 58664, Note_on_c, 1, 87, 0
6, 58680, Note_on_c, 1, 87, 84
6, 58680, Note_on_c, 1, 90, 84
6, 58784, Note_on_c, 1, 87, 0
6, 58784, Note_on_c, 1, 90, 0
6, 58800, Note_on_c, 1, 87, 84
6, 58800, Note_on_c, 1, 90, 84
6, 58904, Note_on_c, 1, 87, 0
6, 58904, Note_on_c, 1, 90, 0
6, 58920, Note_on_c, 1, 90, 84
6, 58920, Note_on_c, 1, 87, 84
6, 59024, Note_on_c, 1, 90, 0
6, 59024, Note_on_c, 1, 87, 0
6, 59040, Note_on_c, 1, 88, 92
6, 59040, Note_on_c, 1, 85, 92
6, 59144, Note_on_c, 1, 88, 0
6, 59144, Note_on_c, 1, 85, 0
6, 59160, Note_on_c, 1, 85, 84
6, 59160, Note_on_c, 1, 88, 84
6, 59264, Note_on_c, 1, 85, 0
6, 59264, Note_on_c, 1, 88, 0
6, 59280, Note_on_c, 1, 85, 84
6, 59280, Note_on_c, 1, 88, 84
6, 59384, Note_on_c, 1, 85, 0
6, 59384, Note_on_c, 1, 88, 0
6, 59400, Note_on_c, 1, 88, 84
6, 59400, Note_on_c, 1, 85, 84
6, 59504, Note_on_c, 1, 88, 0
6, 59504, Note_on_c, 1, 85, 0
6, 59520, Note_on_c, 1, 87, 92
6, 59520, Note_on_c, 1, 90, 92
6, 59624, Note_on_c, 1, 87, 0
6, 59624, Note_on_c, 1, 90, 0
6, 59640, Note_on_c, 1, 90, 84
6, 59640, Note_on_c, 1, 87, 84
6, 59744, Note_on_c, 1, 90, 0
6, 59744, Note_on_c, 1, 87, 0
6, 59760, Note_on_c, 1, 87, 84
6, 59760, Note_on_c, 1, 90, 84
6, 59864, Note_on_c, 1, 87, 0
6, 59864, Note_on_c, 1, 90, 0
6, 59880, Note_on_c, 1, 90, 84
6, 59880, Note_on_c, 1, 87, 84
6, 59984, Note_on_c, 1, 90, 0
6, 59984, Note_on_c, 1, 87, 0
6, 60000, Note_on_c, 1, 88, 92
6, 60000, Note_on_c, 1, 85, 92
6, 60104, Note_on_c, 1, 88, 0
6, 60104, Note_on_c, 1, 85, 0
6, 60120, Note_on_c, 1, 85, 84
6, 60120, Note_on_c, 1, 88, 84
6, 60224, Note_on_c, 1, 85, 0
6, 60224, Note_on_c, 1, 88, 0
6, 60240, Note_on_c, 1, 85, 84
6, 60240, Note_on_c, 1, 88, 84
6, 60344, Note_on_c, 1, 85, 0
6, 60344, Note_on_c, 1, 88, 0
6, 60360, Note_on_c, 1, 85, 84
6, 60360, Note_on_c, 1, 88, 84
6, 60464, Note_on_c, 1, 85, 0
6, 60464, Note_on_c, 1, 88, 0
6, 60480, Note_on_c, 1, 85, 92
6, 60480, Note_on_c, 1, 90, 92
6, 60584, Note_on_c, 1, 85, 0
6, 60584, Note_on_c, 1, 90, 0
6, 60600, Note_on_c, 1, 85, 84
6, 60600, Note_on_c, 1, 90, 84
6, 60704, Note_on_c, 1, 85, 0
6, 60704, Note_on_c, 1, 90, 0
6, 60720, Note_on_c, 1, 90, 84
6, 60720, Note_on_c, 1, 85, 84
6, 60824, Note_on_c, 1, 90, 0
6, 60824, Note_on_c, 1, 85, 0
6, 60840, Note_on_c, 1, 85, 84
6, 60840, Note_on_c, 1, 90, 84
6, 60944, Note_on_c, 1, 85, 0
6, 60944, Note_on_c, 1, 90, 0
6, 60960, Note_on_c, 1, 88, 92
6, 60960, Note_on_c, 1, 85, 92
6, 61064, Note_on_c, 1, 88, 0
6, 61064, Note_on_c, 1, 85, 0
6, 61080, Note_on_c, 1, 88, 84
6, 61080, Note_on_c, 1, 85, 84
6, 61184, Note_on_c, 1, 88, 0
6, 61184, Note_on_c, 1, 85, 0
6, 61200, Note_on_c, 1, 85, 84
6, 61200, Note_on_c, 1, 88, 84
6, 61304, Note_on_c, 1, 85, 0
6, 61304, Note_on_c, 1, 88, 0
6, 61320, Note_on_c, 1, 85, 84
6, 61320, Note_on_c, 1, 88, 84
6, 61424, Note_on_c, 1, 85, 0
6, 61424, Note_on_c, 1, 88, 0
6, 61440, Note_on_c, 1, 84, 92
6, 61440, Note_on_c, 1, 87, 92
6, 61544, Note_on_c, 1, 84, 0
6, 61544, Note_on_c, 1, 87, 0
6, 61560, Note_on_c, 1, 84, 84
6, 61560, Note_on_c, 1, 87, 84
6, 61664, Note_on_c, 1, 84, 0
6, 61664, Note_on_c, 1, 87, 0
6, 61680, Note_on_c, 1, 84, 84
6, 61680, Note_on_c, 1, 87, 84
6, 61784, Note_on_c, 1, 84, 0
6, 61784, Note_on_c, 1, 87, 0
6, 61800, Note_on_c, 1, 87, 84
6, 61800, Note_on_c, 1, 84, 84
6, 61904, Note_on_c, 1, 87, 0
6, 61904, Note_on_c, 1, 84, 0
6, 61920, Note_on_c, 1, 85, 84
6, 61920, Note_on_c, 1, 88, 84
6, 62024, Note_on_c, 1, 85, 0
6, 62024, Note_on_c, 1, 88, 0
6, 62040, Note_on_c, 1, 85, 84
6, 62040, Note_on_c, 1, 88, 84
6, 62144, Note_on_c, 1, 85, 0
6, 62144, Note_on_c, 1, 88, 0
6, 62160, Note_on_c, 1, 84, 92
6, 62160, Note_on_c, 1, 87, 92
6, 62264, Note_on_c, 1, 84, 0
6, 62264, Note_on_c, 1, 87, 0
6, 62280, Note_on_c, 1, 87, 84
6, 62280, Note_on_c, 1, 84, 84
6, 62384, Note_on_c, 1, 87, 0
6, 62384, Note_on_c, 1, 84, 0
6, 62400, Note_on_c, 1, 87, 92
6, 62400, Note_on_c, 1, 84, 92
6, 62504, Note_on_c, 1, 87, 0
6, 62504, Note_on_c, 1, 84, 0
6, 62520, Note_on_c, 1, 87, 84
6, 62520, Note_on_c, 1, 84, 84
6, 62624, Note_on_c, 1, 87, 0
6, 62624, Note_on_c, 1, 84, 0
6, 62640, Note_on_c, 1, 84, 84
6, 62640, Note_on_c, 1, 87, 84
6, 62744, Note_on_c, 1, 84, 0
6, 62744, Note_on_c, 1, 87, 0
6, 62760, Note_on_c, 1, 87, 84
6, 62760, Note_on_c, 1, 84, 84
6, 62864, Note_on_c, 1, 87, 0
6, 62864, Note_on_c, 1, 84, 0
6, 62880, Note_on_c, 1, 85, 84
6, 62880, Note_on_c, 1, 88, 84
6, 62984, Note_on_c, 1, 85, 0
6, 62984, Note_on_c, 1, 88, 0
6, 63000, Note_on_c, 1, 88, 84
6, 63000, Note_on_c, 1, 85, 84
6, 63104, Note_on_c, 1, 88, 0
6, 63104, Note_on_c, 1, 85, 0
6, 63120, Note_on_c, 1, 87, 92
6, 63120, Note_on_c, 1, 84, 92
6, 63224, Note_on_c, 1, 87, 0
6, 63224, Note_on_c, 1, 84, 0
6, 63240, Note_on_c, 1, 84, 84
6, 63240, Note_on_c, 1, 87, 84
6, 63344, Note_on_c, 1, 84, 0
6, 63344, Note_on_c, 1, 87, 0
6, 63360, Note_on_c, 1, 87, 92
6, 63360, Note_on_c, 1, 84, 92
6, 63464, Note_on_c, 1, 87, 0
6, 63464, Note_on_c, 1, 84, 0
6, 63480, Note_on_c, 1, 87, 84
6, 63480, Note_on_c, 1, 84, 84
6, 63584, Note_on_c, 1, 87, 0
6, 63584, Note_on_c, 1, 84, 0
6, 63600, Note_on_c, 1, 84, 84
6, 63600, Note_on_c, 1, 87, 84
6, 63704, Note_on_c, 1, 84, 0
6, 63704, Note_on_c, 1, 87, 0
6, 63720, Note_on_c, 1, 84, 84
6, 63720, Note_on_c, 1, 87, 84
6, 63824, Note_on_c, 1, 84, 0
6, 63824, Note_on_c, 1, 87, 0
6, 63840, Note_on_c, 1, 85, 84
6, 63840, Note_on_c, 1, 88, 84
6, 63944, Note_on_c, 1, 85, 0
6, 63944, Note_on_c, 1, 88, 0
6, 63960, Note_on_c, 1, 85, 84
6, 63960, Note_on_c, 1, 88, 84
6, 64064, Note_on_c, 1, 85, 0
6, 64064, Note_on_c, 1, 88, 0
6, 64080, Note_on_c, 1, 84, 92
6, 64080, Note_on_c, 1, 87, 92
6, 64184, Note_on_c, 1, 84, 0
6, 64184, Note_on_c, 1, 87, 0
6, 64200, Note_on_c, 1, 87, 84
6, 64200, Note_on_c, 1, 84, 84
6, 64304, Note_on_c, 1, 87, 0
6, 64304, Note_on_c, 1, 84, 0
6, 64320, Note_on_c, 1, 88, 84
6, 64320, Note_on_c, 1, 85, 84
6, 64424, Note_on_c, 1, 88, 0
6, 64424, Note_on_c, 1, 85, 0
6, 64440, Note_on_c, 1, 85, 84
6, 64440, Note_on_c, 1, 88, 84
6, 64544, Note_on_c, 1, 85, 0
6, 64544, Note_on_c, 1, 88, 0
6, 64560, Note_on_c, 1, 87, 92
6, 64560, Note_on_c, 1, 84, 92
6, 64664, Note_on_c, 1, 87, 0
6, 64664, Note_on_c, 1, 84, 0
6, 64680, Note_on_c, 1, 87, 84
6, 64680, Note_on_c, 1, 84, 84
6, 64784, Note_on_c, 1, 87, 0
6, 64784, Note_on_c, 1, 84, 0
6, 64800, Note_on_c, 1, 85, 84
6, 64800, Note_on_c, 1, 88, 84
6, 64904, Note_on_c, 1, 85, 0
6, 64904, Note_on_c, 1, 88, 0
6, 64920, Note_on_c, 1, 85, 84
6, 64920, Note_on_c, 1, 88, 84
6, 65024, Note_on_c, 1, 85, 0
6, 65024, Note_on_c, 1, 88, 0
6, 65040, Note_on_c, 1, 87, 92
6, 65040, Note_on_c, 1, 84, 92
6, 65144, Note_on_c, 1, 87, 0
6, 65144, Note_on_c, 1, 84, 0
6, 65160, Note_on_c, 1, 87, 84
6, 65160, Note_on_c, 1, 84, 84
6, 65264, Note_on_c, 1, 87, 0
6, 65264, Note_on_c, 1, 84, 0
6, 65280, Note_on_c, 1, 88, 84
6, 65280, Note_on_c, 1, 85, 84
6, 65384, Note_on_c, 1, 88, 0
6, 65384, Note_on_c, 1, 85, 0
6, 65400, Note_on_c, 1, 85, 84
6, 65400, Note_on_c, 1, 88, 84
6, 65504, Note_on_c, 1, 85, 0
6, 65504, Note_on_c, 1, 88, 0
6, 65520, Note_on_c, 1, 83, 84
6, 65520, Note_on_c, 1, 90, 84
6, 65624, Note_on_c, 1, 83, 0
6, 65624, Note_on_c, 1, 90, 0
6, 65640, Note_on_c, 1, 90, 84
6, 65640, Note_on_c, 1, 83, 84
6, 65744, Note_on_c, 1, 90, 0
6, 65744, Note_on_c, 1, 83, 0
6, 65760, Note_on_c, 1, 88, 84
6, 65760, Note_on_c, 1, 83, 84
6, 65864, Note_on_c, 1, 88, 0
6, 65864, Note_on_c, 1, 83, 0
6, 65880, Note_on_c, 1, 88, 84
6, 65880, Note_on_c, 1, 76, 84
6, 65931, Note_on_c, 1, 88, 0
6, 65931, Note_on_c, 1, 76, 0
6, 65940, Note_on_c, 1, 88, 84
6, 65940, Note_on_c, 1, 76, 84
6, 65991, Note_on_c, 1, 88, 0
6, 65991, Note_on_c, 1, 76, 0
6, 66000, Note_on_c, 1, 88, 84
6, 66000, Note_on_c, 1, 76, 84
6, 66119, Note_on_c, 1, 88, 0
6, 66119, Note_on_c, 1, 76, 0
6, 66840, Note_on_c, 1, 83, 84
6, 66840, Note_on_c, 1, 86, 84
6, 66891, Note_on_c, 1, 83, 0
6, 66891, Note_on_c, 1, 86, 0
6, 66900, Note_on_c, 1, 86, 84
6, 66900, Note_on_c, 1, 83, 84
6, 66951, Note_on_c, 1, 86, 0
6, 66951, Note_on_c, 1, 83, 0
6, 66960, Note_on_c, 1, 86, 84
6, 66960, Note_on_c, 1, 83, 84
6, 67079, Note_on_c, 1, 86, 0
6, 67079, Note_on_c, 1, 83, 0
6, 67680, Note_on_c, 1, 90, 84
6, 67680, Note_on_c, 1, 81, 84
6, 67799, Note_on_c, 1, 90, 0
6, 67799, Note_on_c, 1, 81, 0
6, 68040, Note_on_c, 1, 81, 92
6, 68040, Note_on_c, 1, 90, 92
6, 68159, Note_on_c, 1, 81, 0
6, 68159, Note_on_c, 1, 90, 0
6, 68160, Note_on_c, 1, 88, 84
6, 68160, Note_on_c, 1, 81, 84
6, 68279, Note_on_c, 1, 88, 0
6, 68279, Note_on_c, 1, 81, 0
6, 68520, Note_on_c, 1, 81, 92
6, 68520, Note_on_c, 1, 88, 92
6, 68639, Note_on_c, 1, 81, 0
6, 68639, Note_on_c, 1, 88, 0
6, 68640, Note_on_c, 1, 90, 84
6, 68640, Note_on_c, 1, 81, 84
6, 68759, Note_on_c, 1, 90, 0
6, 68759, Note_on_c, 1, 81, 0
6, 69000, Note_on_c, 1, 90, 92
6, 69000, Note_on_c, 1, 81, 92
6, 69119, Note_on_c, 1, 90, 0
6, 69119, Note_on_c, 1, 81, 0
6, 69120, Note_on_c, 1, 81, 84
6, 69120, Note_on_c, 1, 90, 84
6, 69239, Note_on_c, 1, 81, 0
6, 69239, Note_on_c, 1, 90, 0
6, 69240, Note_on_c, 1, 89, 84
6, 69359, Note_on_c, 1, 89, 0
6, 69480, Note_on_c, 1, 88, 92
6, 69480, Note_on_c, 1, 85, 92
6, 69599, Note_on_c, 1, 88, 0
6, 69599, Note_on_c, 1, 85, 0
6, 69600, Note_on_c, 1, 87, 84
6, 69600, Note_on_c, 1, 81, 84
6, 69719, Note_on_c, 1, 87, 0
6, 69719, Note_on_c, 1, 81, 0
6, 69960, Note_on_c, 1, 86, 92
6, 69960, Note_on_c, 1, 83, 92
6, 70019, Note_on_c, 1, 86, 0
6, 70020, Note_on_c, 1, 88, 84
6, 70071, Note_on_c, 1, 88, 0
6, 70079, Note_on_c, 1, 83, 0
6, 70080, Note_on_c, 1, 88, 84
6, 70080, Note_on_c, 1, 85, 84
6, 70199, Note_on_c, 1, 88, 0
6, 70199, Note_on_c, 1, 85, 0
6, 70440, Note_on_c, 1, 85, 92
6, 70440, Note_on_c, 1, 88, 92
6, 70559, Note_on_c, 1, 85, 0
6, 70559, Note_on_c, 1, 88, 0
6, 70560, Note_on_c, 1, 88, 84
6, 70560, Note_on_c, 1, 83, 84
6, 70679, Note_on_c, 1, 88, 0
6, 70679, Note_on_c, 1, 83, 0
6, 70920, Note_on_c, 1, 88, 92
6, 70920, Note_on_c, 1, 83, 92
6, 71039, Note_on_c, 1, 88, 0
6, 71039, Note_on_c, 1, 83, 0
6, 71040, Note_on_c, 1, 81, 84
6, 71144, Note_on_c, 1, 81, 0
6, 71160, Note_on_c, 1, 81, 84
6, 71160, Note_on_c, 1, 93, 84
6, 71211, Note_on_c, 1, 81, 0
6, 71211, Note_on_c, 1, 93, 0
6, 71220, Note_on_c, 1, 93, 84
6, 71220, Note_on_c, 1, 81, 84
6, 71271, Note_on_c, 1, 93, 0
6, 71271, Note_on_c, 1, 81, 0
6, 71280, Note_on_c, 1, 81, 84
6, 71280, Note_on_c, 1, 93, 84
6, 71399, Note_on_c, 1, 81, 0
6, 71399, Note_on_c, 1, 93, 0
6, 71520, Note_on_c, 1, 81, 84
6, 71520, Note_on_c, 1, 90, 84
6, 71639, Note_on_c, 1, 81, 0
6, 71639, Note_on_c, 1, 90, 0
6, 71880, Note_on_c, 1, 90, 92
6, 71880, Note_on_c, 1, 81, 92
6, 71999, Note_on_c, 1, 90, 0
6, 71999, Note_on_c, 1, 81, 0
6, 72000, Note_on_c, 1, 88, 84
6, 72000, Note_on_c, 1, 81, 84
6, 72119, Note_on_c, 1, 88, 0
6, 72119, Note_on_c, 1, 81, 0
6, 72360, Note_on_c, 1, 81, 92
6, 72360, Note_on_c, 1, 88, 92
6, 72479, Note_on_c, 1, 81, 0
6, 72479, Note_on_c, 1, 88, 0
6, 72480, Note_on_c, 1, 81, 84
6, 72480, Note_on_c, 1, 90, 84
6, 72599, Note_on_c, 1, 81, 0
6, 72599, Note_on_c, 1, 90, 0
6, 72840, Note_on_c, 1, 81, 92
6, 72840, Note_on_c, 1, 90, 92
6, 72959, Note_on_c, 1, 81, 0
6, 72959, Note_on_c, 1, 90, 0
6, 72960, Note_on_c, 1, 90, 84
6, 72960, Note_on_c, 1, 81, 84
6, 73079, Note_on_c, 1, 90, 0
6, 73079, Note_on_c, 1, 81, 0
6, 73080, Note_on_c, 1, 89, 84
6, 73199, Note_on_c, 1, 89, 0
6, 73320, Note_on_c, 1, 85, 92
6, 73320, Note_on_c, 1, 88, 92
6, 73439, Note_on_c, 1, 85, 0
6, 73439, Note_on_c, 1, 88, 0
6, 73440, Note_on_c, 1, 87, 84
6, 73440, Note_on_c, 1, 81, 84
6, 73559, Note_on_c, 1, 87, 0
6, 73559, Note_on_c, 1, 81, 0
6, 73800, Note_on_c, 1, 86, 92
6, 73800, Note_on_c, 1, 83, 92
6, 73859, Note_on_c, 1, 86, 0
6, 73860, Note_on_c, 1, 88, 84
6, 73911, Note_on_c, 1, 88, 0
6, 73919, Note_on_c, 1, 83, 0
6, 73920, Note_on_c, 1, 85, 84
6, 73920, Note_on_c, 1, 88, 84
6, 74039, Note_on_c, 1, 85, 0
6, 74039, Note_on_c, 1, 88, 0
6, 74280, Note_on_c, 1, 88, 92
6, 74280, Note_on_c, 1, 85, 92
6, 74399, Note_on_c, 1, 88, 0
6, 74399, Note_on_c, 1, 85, 0
6, 74400, Note_on_c, 1, 88, 84
6, 74400, Note_on_c, 1, 83, 84
6, 74519, Note_on_c, 1, 88, 0
6, 74519, Note_on_c, 1, 83, 0
6, 74760, Note_on_c, 1, 83, 92
6, 74760, Note_on_c, 1, 88, 92
6, 74879, Note_on_c, 1, 83, 0
6, 74879, Note_on_c, 1, 88, 0
6, 74880, Note_on_c, 1, 81, 84
6, 74984, Note_on_c, 1, 81, 0
6, 75000, Note_on_c, 1, 81, 84
6, 75051, Note_on_c, 1, 81, 0
6, 75060, Note_on_c, 1, 81, 84
6, 75111, Note_on_c, 1, 81, 0
6, 75120, Note_on_c, 1, 81, 84
6, 75239, Note_on_c, 1, 81, 0
6, 75480, Note_on_c, 1, 81, 84
6, 75531, Note_on_c, 1, 81, 0
6, 75540, Note_on_c, 1, 81, 84
6, 75591, Note_on_c, 1, 81, 0
6, 75600, Note_on_c, 1, 81, 84
6, 75719, Note_on_c, 1, 81, 0
6, 75960, Note_on_c, 1, 88, 84
6, 76011, Note_on_c, 1, 88, 0
6, 76020, Note_on_c, 1, 88, 84
6, 76071, Note_on_c, 1, 88, 0
6, 76080, Note_on_c, 1, 88, 84
6, 76199, Note_on_c, 1, 88, 0
6, 76440, Note_on_c, 1, 88, 84
6, 76491, Note_on_c, 1, 88, 0
6, 76500, Note_on_c, 1, 88, 84
6, 76551, Note_on_c, 1, 88, 0
6, 76560, Note_on_c, 1, 88, 84
6, 76679, Note_on_c, 1, 88, 0
6, 76800, Note_on_c, 1, 85, 84
6, 76800, Note_on_c, 1, 76, 84
6, 77144, Note_on_c, 1, 85, 0
6, 77144, Note_on_c, 1, 76, 0
6, 77160, Note_on_c, 1, 74, 84
6, 77160, Note_on_c, 1, 83, 84
6, 77249, Note_on_c, 1, 74, 0
6, 77249, Note_on_c, 1, 83, 0
6, 77280, Note_on_c, 1, 73, 84
6, 77280, Note_on_c, 1, 81, 84
6, 77369, Note_on_c, 1, 73, 0
6, 77369, Note_on_c, 1, 81, 0
6, 77400, Note_on_c, 1, 76, 84
6, 77400, Note_on_c, 1, 85, 84
6, 77489, Note_on_c, 1, 76, 0
6, 77489, Note_on_c, 1, 85, 0
6, 77520, Note_on_c, 1, 74, 84
6, 77520, Note_on_c, 1, 83, 84
6, 77609, Note_on_c, 1, 74, 0
6, 77609, Note_on_c, 1, 83, 0
6, 77640, Note_on_c, 1, 81, 84
6, 77640, Note_on_c, 1, 73, 84
6, 77729, Note_on_c, 1, 81, 0
6, 77729, Note_on_c, 1, 73, 0
6, 77760, Note_on_c, 1, 74, 84
6, 77760, Note_on_c, 1, 83, 84
6, 77849, Note_on_c, 1, 74, 0
6, 77849, Note_on_c, 1, 83, 0
6, 77880, Note_on_c, 1, 85, 84
6, 77880, Note_on_c, 1, 93, 84
6, 77969, Note_on_c, 1, 85, 0
6, 77969, Note_on_c, 1, 93, 0
6, 78000, Note_on_c, 1, 92, 84
6, 78000, Note_on_c, 1, 83, 84
6, 78089, Note_on_c, 1, 92, 0
6, 78089, Note_on_c, 1, 83, 0
6, 78120, Note_on_c, 1, 86, 84
6, 78120, Note_on_c, 1, 90, 84
6, 78209, Note_on_c, 1, 86, 0
6, 78209, Note_on_c, 1, 90, 0
6, 78240, Note_on_c, 1, 88, 84
6, 78240, Note_on_c, 1, 85, 84
6, 78329, Note_on_c, 1, 88, 0
6, 78329, Note_on_c, 1, 85, 0
6, 78360, Note_on_c, 1, 83, 84
6, 78360, Note_on_c, 1, 86, 84
6, 78449, Note_on_c, 1, 83, 0
6, 78449, Note_on_c, 1, 86, 0
6, 78480, Note_on_c, 1, 81, 84
6, 78480, Note_on_c, 1, 85, 84
6, 78569, Note_on_c, 1, 81, 0
6, 78569, Note_on_c, 1, 85, 0
6, 78600, Note_on_c, 1, 80, 84
6, 78600, Note_on_c, 1, 83, 84
6, 78689, Note_on_c, 1, 80, 0
6, 78689, Note_on_c, 1, 83, 0
6, 78720, Note_on_c, 1, 81, 84
6, 78824, Note_on_c, 1, 81, 0
6, 78840, Note_on_c, 1, 81, 84
6, 78891, Note_on_c, 1, 81, 0
6, 78900, Note_on_c, 1, 81, 84
6, 78951, Note_on_c, 1, 81, 0
6, 78960, Note_on_c, 1, 81, 84
6, 79079, Note_on_c, 1, 81, 0
6, 79320, Note_on_c, 1, 81, 84
6, 79371, Note_on_c, 1, 81, 0
6, 79380, Note_on_c, 1, 81, 84
6, 79431, Note_on_c, 1, 81, 0
6, 79440, Note_on_c, 1, 81, 84
6, 79559, Note_on_c, 1, 81, 0
6, 79800, Note_on_c, 1, 88, 84
6, 79851, Note_on_c, 1, 88, 0
6, 79860, Note_on_c, 1, 88, 84
6, 79911, Note_on_c, 1, 88, 0
6, 79920, Note_on_c, 1, 88, 84
6, 80039, Note_on_c, 1, 88, 0
6, 80280, Note_on_c, 1, 88, 84
6, 80331, Note_on_c, 1, 88, 0
6, 80340, Note_on_c, 1, 88, 84
6, 80391, Note_on_c, 1, 88, 0
6, 80400, Note_on_c, 1, 88, 84
6, 80519, Note_on_c, 1, 88, 0
6, 80640, Note_on_c, 1, 88, 84
6, 80759, Note_on_c, 1, 88, 0
6, 80880, Note_on_c, 1, 88, 84
6, 80999, Note_on_c, 1, 88, 0
6, 81120, Note_on_c, 1, 88, 84
6, 81239, Note_on_c, 1, 88, 0
6, 81360, Note_on_c, 1, 88, 84
6, 81479, Note_on_c, 1, 88, 0
6, 81600, Note_on_c, 1, 88, 84
6, 81719, Note_on_c, 1, 88, 0
6, 81840, Note_on_c, 1, 88, 84
6, 81959, Note_on_c, 1, 88, 0
6, 82080, Note_on_c, 1, 88, 84
6, 82199, Note_on_c, 1, 88, 0
6, 82320, Note_on_c, 1, 88, 84
6, 82439, Note_on_c, 1, 88, 0
6, 82560, Note_on_c, 1, 88, 84
6, 82679, Note_on_c, 1, 88, 0
6, 83040, Note_on_c, 1, 88, 84
6, 83040, Note_on_c, 1, 76, 84
6, 84599, Note_on_c, 1, 88, 0
6, 84599, Note_on_c, 1, 76, 0
6, 84960, Note_on_c, 1, 76, 84
6, 84960, Note_on_c, 1, 88, 84
6, 86159, Note_on_c, 1, 76, 0
6, 86159, Note_on_c, 1, 88, 0
6, 86160, Note_on_c, 1, 77, 84
6, 86160, Note_on_c, 1, 89, 84
6, 86399, Note_on_c, 1, 77, 0
6, 86399, Note_on_c, 1, 89, 0
6, 86400, Note_on_c, 1, 78, 84
6, 86400, Note_on_c, 1, 90, 84
6, 86519, Note_on_c, 1, 78, 0
6, 86519, Note_on_c, 1, 90, 0
6, 90000, Note_on_c, 1, 89, 84
6, 90000, Note_on_c, 1, 85, 84
6, 90239, Note_on_c, 1, 89, 0
6, 90240, Note_on_c, 1, 90, 84
6, 90359, Note_on_c, 1, 85, 0
6, 90359, Note_on_c, 1, 90, 0
6, 90480, Note_on_c, 1, 85, 84
6, 90599, Note_on_c, 1, 85, 0
6, 90720, Note_on_c, 1, 85, 84
6, 90839, Note_on_c, 1, 85, 0
6, 90960, Note_on_c, 1, 85, 84
6, 91079, Note_on_c, 1, 85, 0
6, 91200, Note_on_c, 1, 85, 84
6, 91319, Note_on_c, 1, 85, 0
6, 91440, Note_on_c, 1, 85, 84
6, 91559, Note_on_c, 1, 85, 0
6, 91680, Note_on_c, 1, 85, 84
6, 91799, Note_on_c, 1, 85, 0
6, 91920, Note_on_c, 1, 85, 84
6, 92039, Note_on_c, 1, 85, 0
6, 92160, Note_on_c, 1, 85, 84
6, 92279, Note_on_c, 1, 85, 0
6, 92400, Note_on_c, 1, 85, 84
6, 92519, Note_on_c, 1, 85, 0
6, 92640, Note_on_c, 1, 85, 84
6, 92759, Note_on_c, 1, 85, 0
6, 92880, Note_on_c, 1, 85, 84
6, 92999, Note_on_c, 1, 85, 0
6, 93120, Note_on_c, 1, 87, 84
6, 93239, Note_on_c, 1, 87, 0
6, 93360, Note_on_c, 1, 87, 84
6, 93479, Note_on_c, 1, 87, 0
6, 93600, Note_on_c, 1, 88, 84
6, 93719, Note_on_c, 1, 88, 0
6, 93840, Note_on_c, 1, 88, 84
6, 93959, Note_on_c, 1, 88, 0
6, 94080, Note_on_c, 1, 90, 84
6, 94080, Note_on_c, 1, 87, 84
6, 94199, Note_on_c, 1, 90, 0
6, 94199, Note_on_c, 1, 87, 0
6, 94320, Note_on_c, 1, 90, 84
6, 94320, Note_on_c, 1, 87, 84
6, 94439, Note_on_c, 1, 90, 0
6, 94439, Note_on_c, 1, 87, 0
6, 94560, Note_on_c, 1, 90, 84
6, 94560, Note_on_c, 1, 87, 84
6, 94679, Note_on_c, 1, 90, 0
6, 94679, Note_on_c, 1, 87, 0
6, 94800, Note_on_c, 1, 90, 84
6, 94800, Note_on_c, 1, 87, 84
6, 94919, Note_on_c, 1, 90, 0
6, 94919, Note_on_c, 1, 87, 0
6, 95040, Note_on_c, 1, 90, 84
6, 95040, Note_on_c, 1, 87, 84
6, 95159, Note_on_c, 1, 90, 0
6, 95159, Note_on_c, 1, 87, 0
6, 95280, Note_on_c, 1, 87, 76
6, 95280, Note_on_c, 1, 90, 76
6, 95399, Note_on_c, 1, 87, 0
6, 95399, Note_on_c, 1, 90, 0
6, 95520, Note_on_c, 1, 78, 52
6, 95520, Note_on_c, 1, 75, 52
6, 95639, Note_on_c, 1, 78, 0
6, 95639, Note_on_c, 1, 75, 0
6, 97200, Note_on_c, 1, 87, 76
6, 97200, Note_on_c, 1, 90, 76
6, 97289, Note_on_c, 1, 87, 0
6, 97289, Note_on_c, 1, 90, 0
6, 97440, Note_on_c, 1, 78, 52
6, 97440, Note_on_c, 1, 75, 52
6, 97559, Note_on_c, 1, 78, 0
6, 97559, Note_on_c, 1, 75, 0
6, 101040, Note_on_c, 1, 88, 76
6, 101040, Note_on_c, 1, 80, 76
6, 101279, Note_on_c, 1, 88, 0
6, 101279, Note_on_c, 1, 80, 0
6, 101520, Note_on_c, 1, 78, 76
6, 101520, Note_on_c, 1, 87, 76
6, 101759, Note_on_c, 1, 78, 0
6, 101759, Note_on_c, 1, 87, 0
6, 102000, Note_on_c, 1, 85, 76
6, 102000, Note_on_c, 1, 76, 76
6, 102239, Note_on_c, 1, 85, 0
6, 102239, Note_on_c, 1, 76, 0
6, 102480, Note_on_c, 1, 87, 76
6, 102480, Note_on_c, 1, 78, 76
6, 102704, Note_on_c, 1, 87, 0
6, 102704, Note_on_c, 1, 78, 0
6, 102720, Note_on_c, 1, 88, 48
6, 103319, Note_on_c, 1, 88, 0
6, 103380, Note_on_c, 1, 90, 48
6, 103439, Note_on_c, 1, 90, 0
6, 103440, Note_on_c, 1, 91, 48
6, 103559, Note_on_c, 1, 91, 0
6, 103620, Note_on_c, 1, 88, 48
6, 103679, Note_on_c, 1, 88, 0
6, 103680, Note_on_c, 1, 90, 48
6, 103799, Note_on_c, 1, 90, 0
6, 103860, Note_on_c, 1, 88, 48
6, 103919, Note_on_c, 1, 88, 0
6, 103920, Note_on_c, 1, 86, 48
6, 104039, Note_on_c, 1, 86, 0
6, 104100, Note_on_c, 1, 90, 48
6, 104159, Note_on_c, 1, 90, 0
6, 104160, Note_on_c, 1, 88, 48
6, 104279, Note_on_c, 1, 88, 0
6, 104340, Note_on_c, 1, 90, 48
6, 104399, Note_on_c, 1, 90, 0
6, 104400, Note_on_c, 1, 91, 48
6, 104519, Note_on_c, 1, 91, 0
6, 104580, Note_on_c, 1, 88, 48
6, 104639, Note_on_c, 1, 88, 0
6, 104640, Note_on_c, 1, 90, 48
6, 104759, Note_on_c, 1, 90, 0
6, 104820, Note_on_c, 1, 88, 48
6, 104879, Note_on_c, 1, 88, 0
6, 104880, Note_on_c, 1, 86, 48
6, 104999, Note_on_c, 1, 86, 0
6, 105060, Note_on_c, 1, 90, 48
6, 105119, Note_on_c, 1, 90, 0
6, 105840, Note_on_c, 1, 88, 76
6, 105840, Note_on_c, 1, 80, 76
6, 106079, Note_on_c, 1, 88, 0
6, 106079, Note_on_c, 1, 80, 0
6, 106320, Note_on_c, 1, 78, 76
6, 106320, Note_on_c, 1, 87, 76
6, 106559, Note_on_c, 1, 78, 0
6, 106559, Note_on_c, 1, 87, 0
6, 106800, Note_on_c, 1, 76, 76
6, 106800, Note_on_c, 1, 85, 76
6, 107039, Note_on_c, 1, 76, 0
6, 107039, Note_on_c, 1, 85, 0
6, 107280, Note_on_c, 1, 87, 76
6, 107280, Note_on_c, 1, 78, 76
6, 107504, Note_on_c, 1, 87, 0
6, 107504, Note_on_c, 1, 78, 0
6, 107520, Note_on_c, 1, 76, 52
6, 107520, Note_on_c, 1, 88, 52
6, 107639, Note_on_c, 1, 76, 0
6, 108119, Note_on_c, 1, 88, 0
6, 108180, Note_on_c, 1, 90, 52
6, 108239, Note_on_c, 1, 90, 0
6, 108240, Note_on_c, 1, 91, 52
6, 108359, Note_on_c, 1, 91, 0
6, 108420, Note_on_c, 1, 88, 52
6, 108479, Note_on_c, 1, 88, 0
6, 108480, Note_on_c, 1, 90, 52
6, 108599, Note_on_c, 1, 90, 0
6, 108660, Note_on_c, 1, 88, 52
6, 108719, Note_on_c, 1, 88, 0
6, 108720, Note_on_c, 1, 86, 52
6, 108839, Note_on_c, 1, 86, 0
6, 108900, Note_on_c, 1, 90, 52
6, 108959, Note_on_c, 1, 90, 0
6, 108960, Note_on_c, 1, 88, 52
6, 109079, Note_on_c, 1, 88, 0
6, 109140, Note_on_c, 1, 90, 52
6, 109199, Note_on_c, 1, 90, 0
6, 109200, Note_on_c, 1, 91, 52
6, 109319, Note_on_c, 1, 91, 0
6, 109380, Note_on_c, 1, 90, 52
6, 109439, Note_on_c, 1, 90, 0
6, 109440, Note_on_c, 1, 88, 52
6, 109440, Note_on_c, 1, 91, 52
6, 109559, Note_on_c, 1, 88, 0
6, 109559, Note_on_c, 1, 91, 0
6, 109668, Control_c, 1, 11, 64
6, 109680, Note_on_c, 1, 91, 84
6, 109680, Note_on_c, 1, 88, 84
6, 109680, Control_c, 1, 11, 64
6, 109768, Control_c, 1, 11, 65
6, 109855, Control_c, 1, 11, 66
6, 109943, Control_c, 1, 11, 67
6, 110030, Control_c, 1, 11, 68
6, 110118, Control_c, 1, 11, 69
6, 110206, Control_c, 1, 11, 70
6, 110293, Control_c, 1, 11, 71
6, 110381, Control_c, 1, 11, 72
6, 110469, Control_c, 1, 11, 73
6, 110556, Control_c, 1, 11, 74
6, 110644, Control_c, 1, 11, 75
6, 110731, Control_c, 1, 11, 76
6, 110819, Control_c, 1, 11, 77
6, 110907, Control_c, 1, 11, 78
6, 110994, Control_c, 1, 11, 79
6, 111082, Control_c, 1, 11, 80
6, 111170, Control_c, 1, 11, 81
6, 111257, Control_c, 1, 11, 82
6, 111345, Control_c, 1, 11, 83
6, 111432, Control_c, 1, 11, 84
6, 111520, Control_c, 1, 11, 85
6, 111608, Control_c, 1, 11, 86
6, 111695, Control_c, 1, 11, 87
6, 111783, Control_c, 1, 11, 88
6, 111824, Note_on_c, 1, 91, 0
6, 111824, Note_on_c, 1, 88, 0
6, 111840, Note_on_c, 1, 86, 84
6, 111840, Note_on_c, 1, 90, 84
6, 111870, Control_c, 1, 11, 89
6, 111958, Control_c, 1, 11, 90
6, 112046, Control_c, 1, 11, 91
6, 112133, Control_c, 1, 11, 92
6, 112221, Control_c, 1, 11, 93
6, 112304, Note_on_c, 1, 86, 0
6, 112304, Note_on_c, 1, 90, 0
6, 112309, Control_c, 1, 11, 94
6, 112320, Note_on_c, 1, 91, 84
6, 112320, Note_on_c, 1, 88, 84
6, 112396, Control_c, 1, 11, 95
6, 112484, Control_c, 1, 11, 96
6, 112571, Control_c, 1, 11, 97
6, 112659, Control_c, 1, 11, 98
6, 112747, Control_c, 1, 11, 99
6, 112834, Control_c, 1, 11, 100
6, 112922, Control_c, 1, 11, 101
6, 113010, Control_c, 1, 11, 102
6, 113097, Control_c, 1, 11, 103
6, 113185, Control_c, 1, 11, 104
6, 113272, Control_c, 1, 11, 105
6, 113360, Control_c, 1, 11, 106
6, 113448, Control_c, 1, 11, 107
6, 113535, Control_c, 1, 11, 108
6, 113623, Control_c, 1, 11, 109
6, 113710, Control_c, 1, 11, 110
6, 113798, Control_c, 1, 11, 111
6, 113886, Control_c, 1, 11, 112
6, 113973, Control_c, 1, 11, 113
6, 114061, Control_c, 1, 11, 114
6, 114149, Control_c, 1, 11, 115
6, 114236, Control_c, 1, 11, 116
6, 114324, Control_c, 1, 11, 117
6, 114411, Control_c, 1, 11, 118
6, 114499, Control_c, 1, 11, 119
6, 114587, Control_c, 1, 11, 120
6, 114674, Control_c, 1, 11, 121
6, 114704, Note_on_c, 1, 91, 0
6, 114704, Note_on_c, 1, 88, 0
6, 114720, Note_on_c, 1, 86, 84
6, 114720, Note_on_c, 1, 90, 84
6, 114762, Control_c, 1, 11, 122
6, 114850, Control_c, 1, 11, 123
6, 114937, Control_c, 1, 11, 124
6, 115025, Control_c, 1, 11, 125
6, 115112, Control_c, 1, 11, 127
6, 115184, Note_on_c, 1, 86, 0
6, 115184, Note_on_c, 1, 90, 0
6, 115200, Note_on_c, 1, 90, 84
6, 115200, Note_on_c, 1, 87, 84
6, 115304, Note_on_c, 1, 90, 0
6, 115304, Note_on_c, 1, 87, 0
6, 115320, Note_on_c, 1, 90, 84
6, 115320, Note_on_c, 1, 87, 84
6, 115424, Note_on_c, 1, 90, 0
6, 115424, Note_on_c, 1, 87, 0
6, 115440, Note_on_c, 1, 90, 84
6, 115440, Note_on_c, 1, 87, 84
6, 115544, Note_on_c, 1, 90, 0
6, 115544, Note_on_c, 1, 87, 0
6, 115560, Note_on_c, 1, 90, 84
6, 115560, Note_on_c, 1, 87, 84
6, 115664, Note_on_c, 1, 90, 0
6, 115664, Note_on_c, 1, 87, 0
6, 115680, Note_on_c, 1, 87, 84
6, 115680, Note_on_c, 1, 90, 84
6, 115784, Note_on_c, 1, 87, 0
6, 115784, Note_on_c, 1, 90, 0
6, 115800, Note_on_c, 1, 90, 84
6, 115800, Note_on_c, 1, 87, 84
6, 115904, Note_on_c, 1, 90, 0
6, 115904, Note_on_c, 1, 87, 0
6, 115920, Note_on_c, 1, 90, 84
6, 115920, Note_on_c, 1, 87, 84
6, 116024, Note_on_c, 1, 90, 0
6, 116024, Note_on_c, 1, 87, 0
6, 116040, Note_on_c, 1, 90, 84
6, 116040, Note_on_c, 1, 87, 84
6, 116144, Note_on_c, 1, 90, 0
6, 116144, Note_on_c, 1, 87, 0
6, 116160, Note_on_c, 1, 88, 92
6, 116160, Note_on_c, 1, 85, 92
6, 116264, Note_on_c, 1, 88, 0
6, 116264, Note_on_c, 1, 85, 0
6, 116280, Note_on_c, 1, 88, 84
6, 116280, Note_on_c, 1, 85, 84
6, 116384, Note_on_c, 1, 88, 0
6, 116384, Note_on_c, 1, 85, 0
6, 116400, Note_on_c, 1, 85, 84
6, 116400, Note_on_c, 1, 88, 84
6, 116504, Note_on_c, 1, 85, 0
6, 116504, Note_on_c, 1, 88, 0
6, 116520, Note_on_c, 1, 85, 84
6, 116520, Note_on_c, 1, 88, 84
6, 116624, Note_on_c, 1, 85, 0
6, 116624, Note_on_c, 1, 88, 0
6, 116640, Note_on_c, 1, 90, 92
6, 116640, Note_on_c, 1, 87, 92
6, 116744, Note_on_c, 1, 90, 0
6, 116744, Note_on_c, 1, 87, 0
6, 116760, Note_on_c, 1, 87, 84
6, 116760, Note_on_c, 1, 90, 84
6, 116864, Note_on_c, 1, 87, 0
6, 116864, Note_on_c, 1, 90, 0
6, 116880, Note_on_c, 1, 87, 84
6, 116880, Note_on_c, 1, 90, 84
6, 116984, Note_on_c, 1, 87, 0
6, 116984, Note_on_c, 1, 90, 0
6, 117000, Note_on_c, 1, 87, 84
6, 117000, Note_on_c, 1, 90, 84
6, 117104, Note_on_c, 1, 87, 0
6, 117104, Note_on_c, 1, 90, 0
6, 117120, Note_on_c, 1, 85, 92
6, 117120, Note_on_c, 1, 88, 92
6, 117224, Note_on_c, 1, 85, 0
6, 117224, Note_on_c, 1, 88, 0
6, 117240, Note_on_c, 1, 85, 84
6, 117240, Note_on_c, 1, 88, 84
6, 117344, Note_on_c, 1, 85, 0
6, 117344, Note_on_c, 1, 88, 0
6, 117360, Note_on_c, 1, 85, 84
6, 117360, Note_on_c, 1, 88, 84
6, 117464, Note_on_c, 1, 85, 0
6, 117464, Note_on_c, 1, 88, 0
6, 117480, Note_on_c, 1, 85, 84
6, 117480, Note_on_c, 1, 88, 84
6, 117584, Note_on_c, 1, 85, 0
6, 117584, Note_on_c, 1, 88, 0
6, 117600, Note_on_c, 1, 90, 92
6, 117600, Note_on_c, 1, 87, 92
6, 117704, Note_on_c, 1, 90, 0
6, 117704, Note_on_c, 1, 87, 0
6, 117720, Note_on_c, 1, 90, 84
6, 117720, Note_on_c, 1, 87, 84
6, 117824, Note_on_c, 1, 90, 0
6, 117824, Note_on_c, 1, 87, 0
6, 117840, Note_on_c, 1, 87, 84
6, 117840, Note_on_c, 1, 90, 84
6, 117944, Note_on_c, 1, 87, 0
6, 117944, Note_on_c, 1, 90, 0
6, 117960, Note_on_c, 1, 90, 84
6, 117960, Note_on_c, 1, 87, 84
6, 118064, Note_on_c, 1, 90, 0
6, 118064, Note_on_c, 1, 87, 0
6, 118080, Note_on_c, 1, 88, 92
6, 118080, Note_on_c, 1, 85, 92
6, 118184, Note_on_c, 1, 88, 0
6, 118184, Note_on_c, 1, 85, 0
6, 118200, Note_on_c, 1, 85, 84
6, 118200, Note_on_c, 1, 88, 84
6, 118304, Note_on_c, 1, 85, 0
6, 118304, Note_on_c, 1, 88, 0
6, 118320, Note_on_c, 1, 85, 84
6, 118320, Note_on_c, 1, 88, 84
6, 118424, Note_on_c, 1, 85, 0
6, 118424, Note_on_c, 1, 88, 0
6, 118440, Note_on_c, 1, 85, 84
6, 118440, Note_on_c, 1, 88, 84
6, 118544, Note_on_c, 1, 85, 0
6, 118544, Note_on_c, 1, 88, 0
6, 118560, Note_on_c, 1, 90, 92
6, 118560, Note_on_c, 1, 85, 92
6, 118664, Note_on_c, 1, 90, 0
6, 118664, Note_on_c, 1, 85, 0
6, 118680, Note_on_c, 1, 85, 84
6, 118680, Note_on_c, 1, 90, 84
6, 118784, Note_on_c, 1, 85, 0
6, 118784, Note_on_c, 1, 90, 0
6, 118800, Note_on_c, 1, 90, 84
6, 118800, Note_on_c, 1, 85, 84
6, 118904, Note_on_c, 1, 90, 0
6, 118904, Note_on_c, 1, 85, 0
6, 118920, Note_on_c, 1, 85, 84
6, 118920, Note_on_c, 1, 90, 84
6, 119024, Note_on_c, 1, 85, 0
6, 119024, Note_on_c, 1, 90, 0
6, 119040, Note_on_c, 1, 85, 92
6, 119040, Note_on_c, 1, 88, 92
6, 119144, Note_on_c, 1, 85, 0
6, 119144, Note_on_c, 1, 88, 0
6, 119160, Note_on_c, 1, 88, 84
6, 119160, Note_on_c, 1, 85, 84
6, 119264, Note_on_c, 1, 88, 0
6, 119264, Note_on_c, 1, 85, 0
6, 119280, Note_on_c, 1, 85, 84
6, 119280, Note_on_c, 1, 88, 84
6, 119384, Note_on_c, 1, 85, 0
6, 119384, Note_on_c, 1, 88, 0
6, 119400, Note_on_c, 1, 88, 84
6, 119400, Note_on_c, 1, 85, 84
6, 119504, Note_on_c, 1, 88, 0
6, 119504, Note_on_c, 1, 85, 0
6, 119520, Note_on_c, 1, 87, 92
6, 119520, Note_on_c, 1, 84, 92
6, 119624, Note_on_c, 1, 87, 0
6, 119624, Note_on_c, 1, 84, 0
6, 119640, Note_on_c, 1, 84, 84
6, 119640, Note_on_c, 1, 87, 84
6, 119744, Note_on_c, 1, 84, 0
6, 119744, Note_on_c, 1, 87, 0
6, 119760, Note_on_c, 1, 87, 84
6, 119760, Note_on_c, 1, 84, 84
6, 119864, Note_on_c, 1, 87, 0
6, 119864, Note_on_c, 1, 84, 0
6, 119880, Note_on_c, 1, 87, 84
6, 119880, Note_on_c, 1, 84, 84
6, 119984, Note_on_c, 1, 87, 0
6, 119984, Note_on_c, 1, 84, 0
6, 120000, Note_on_c, 1, 85, 84
6, 120000, Note_on_c, 1, 88, 84
6, 120104, Note_on_c, 1, 85, 0
6, 120104, Note_on_c, 1, 88, 0
6, 120120, Note_on_c, 1, 88, 84
6, 120120, Note_on_c, 1, 85, 84
6, 120224, Note_on_c, 1, 88, 0
6, 120224, Note_on_c, 1, 85, 0
6, 120240, Note_on_c, 1, 87, 92
6, 120240, Note_on_c, 1, 84, 92
6, 120344, Note_on_c, 1, 87, 0
6, 120344, Note_on_c, 1, 84, 0
6, 120360, Note_on_c, 1, 84, 84
6, 120360, Note_on_c, 1, 87, 84
6, 120464, Note_on_c, 1, 84, 0
6, 120464, Note_on_c, 1, 87, 0
6, 120480, Note_on_c, 1, 87, 92
6, 120480, Note_on_c, 1, 84, 92
6, 120584, Note_on_c, 1, 87, 0
6, 120584, Note_on_c, 1, 84, 0
6, 120600, Note_on_c, 1, 87, 84
6, 120600, Note_on_c, 1, 84, 84
6, 120704, Note_on_c, 1, 87, 0
6, 120704, Note_on_c, 1, 84, 0
6, 120720, Note_on_c, 1, 84, 84
6, 120720, Note_on_c, 1, 87, 84
6, 120824, Note_on_c, 1, 84, 0
6, 120824, Note_on_c, 1, 87, 0
6, 120840, Note_on_c, 1, 87, 84
6, 120840, Note_on_c, 1, 84, 84
6, 120944, Note_on_c, 1, 87, 0
6, 120944, Note_on_c, 1, 84, 0
6, 120960, Note_on_c, 1, 85, 84
6, 120960, Note_on_c, 1, 88, 84
6, 121064, Note_on_c, 1, 85, 0
6, 121064, Note_on_c, 1, 88, 0
6, 121080, Note_on_c, 1, 88, 84
6, 121080, Note_on_c, 1, 85, 84
6, 121184, Note_on_c, 1, 88, 0
6, 121184, Note_on_c, 1, 85, 0
6, 121200, Note_on_c, 1, 87, 92
6, 121200, Note_on_c, 1, 84, 92
6, 121304, Note_on_c, 1, 87, 0
6, 121304, Note_on_c, 1, 84, 0
6, 121320, Note_on_c, 1, 87, 84
6, 121320, Note_on_c, 1, 84, 84
6, 121424, Note_on_c, 1, 87, 0
6, 121424, Note_on_c, 1, 84, 0
6, 121440, Note_on_c, 1, 87, 92
6, 121440, Note_on_c, 1, 84, 92
6, 121544, Note_on_c, 1, 87, 0
6, 121544, Note_on_c, 1, 84, 0
6, 121560, Note_on_c, 1, 84, 84
6, 121560, Note_on_c, 1, 87, 84
6, 121664, Note_on_c, 1, 84, 0
6, 121664, Note_on_c, 1, 87, 0
6, 121680, Note_on_c, 1, 87, 84
6, 121680, Note_on_c, 1, 84, 84
6, 121784, Note_on_c, 1, 87, 0
6, 121784, Note_on_c, 1, 84, 0
6, 121800, Note_on_c, 1, 84, 84
6, 121800, Note_on_c, 1, 87, 84
6, 121904, Note_on_c, 1, 84, 0
6, 121904, Note_on_c, 1, 87, 0
6, 121920, Note_on_c, 1, 88, 84
6, 121920, Note_on_c, 1, 85, 84
6, 122024, Note_on_c, 1, 88, 0
6, 122024, Note_on_c, 1, 85, 0
6, 122040, Note_on_c, 1, 88, 84
6, 122040, Note_on_c, 1, 85, 84
6, 122144, Note_on_c, 1, 88, 0
6, 122144, Note_on_c, 1, 85, 0
6, 122160, Note_on_c, 1, 87, 92
6, 122160, Note_on_c, 1, 84, 92
6, 122264, Note_on_c, 1, 87, 0
6, 122264, Note_on_c, 1, 84, 0
6, 122280, Note_on_c, 1, 87, 84
6, 122280, Note_on_c, 1, 84, 84
6, 122384, Note_on_c, 1, 87, 0
6, 122384, Note_on_c, 1, 84, 0
6, 122400, Note_on_c, 1, 85, 84
6, 122400, Note_on_c, 1, 88, 84
6, 122504, Note_on_c, 1, 85, 0
6, 122504, Note_on_c, 1, 88, 0
6, 122520, Note_on_c, 1, 88, 84
6, 122520, Note_on_c, 1, 85, 84
6, 122624, Note_on_c, 1, 88, 0
6, 122624, Note_on_c, 1, 85, 0
6, 122640, Note_on_c, 1, 84, 92
6, 122640, Note_on_c, 1, 87, 92
6, 122744, Note_on_c, 1, 84, 0
6, 122744, Note_on_c, 1, 87, 0
6, 122760, Note_on_c, 1, 84, 84
6, 122760, Note_on_c, 1, 87, 84
6, 122864, Note_on_c, 1, 84, 0
6, 122864, Note_on_c, 1, 87, 0
6, 122880, Note_on_c, 1, 85, 84
6, 122880, Note_on_c, 1, 88, 84
6, 122984, Note_on_c, 1, 85, 0
6, 122984, Note_on_c, 1, 88, 0
6, 123000, Note_on_c, 1, 88, 84
6, 123000, Note_on_c, 1, 85, 84
6, 123104, Note_on_c, 1, 88, 0
6, 123104, Note_on_c, 1, 85, 0
6, 123120, Note_on_c, 1, 87, 92
6, 123120, Note_on_c, 1, 84, 92
6, 123224, Note_on_c, 1, 87, 0
6, 123224, Note_on_c, 1, 84, 0
6, 123240, Note_on_c, 1, 84, 84
6, 123240, Note_on_c, 1, 87, 84
6, 123344, Note_on_c, 1, 84, 0
6, 123344, Note_on_c, 1, 87, 0
6, 123360, Note_on_c, 1, 88, 84
6, 123464, Note_on_c, 1, 88, 0
6, 123480, Note_on_c, 1, 88, 84
6, 123584, Note_on_c, 1, 88, 0
6, 123600, Note_on_c, 1, 88, 84
6, 123704, Note_on_c, 1, 88, 0
6, 123720, Note_on_c, 1, 88, 84
6, 123824, Note_on_c, 1, 88, 0
6, 123840, Note_on_c, 1, 88, 84
6, 123944, Note_on_c, 1, 88, 0
6, 123960, Note_on_c, 1, 88, 84
6, 124011, Note_on_c, 1, 88, 0
6, 124020, Note_on_c, 1, 88, 84
6, 124071, Note_on_c, 1, 88, 0
6, 124080, Note_on_c, 1, 88, 84
6, 124199, Note_on_c, 1, 88, 0
6, 124920, Note_on_c, 1, 88, 84
6, 124971, Note_on_c, 1, 88, 0
6, 124980, Note_on_c, 1, 88, 84
6, 125031, Note_on_c, 1, 88, 0
6, 125040, Note_on_c, 1, 88, 84
6, 125159, Note_on_c, 1, 88, 0
6, 125760, Note_on_c, 1, 84, 84
6, 125879, Note_on_c, 1, 84, 0
6, 126120, Note_on_c, 1, 84, 92
6, 126239, Note_on_c, 1, 84, 0
6, 126240, Note_on_c, 1, 84, 84
6, 126359, Note_on_c, 1, 84, 0
6, 126600, Note_on_c, 1, 84, 92
6, 126719, Note_on_c, 1, 84, 0
6, 126720, Note_on_c, 1, 84, 84
6, 126839, Note_on_c, 1, 84, 0
6, 127080, Note_on_c, 1, 84, 92
6, 127199, Note_on_c, 1, 84, 0
6, 127200, Note_on_c, 1, 81, 84
6, 127319, Note_on_c, 1, 81, 0
6, 129120, Note_on_c, 1, 88, 84
6, 129239, Note_on_c, 1, 88, 0
6, 129480, Note_on_c, 1, 88, 92
6, 129599, Note_on_c, 1, 88, 0
6, 129600, Note_on_c, 1, 88, 84
6, 129719, Note_on_c, 1, 88, 0
6, 129960, Note_on_c, 1, 88, 92
6, 130079, Note_on_c, 1, 88, 0
6, 130080, Note_on_c, 1, 88, 84
6, 130199, Note_on_c, 1, 88, 0
6, 130440, Note_on_c, 1, 88, 92
6, 130559, Note_on_c, 1, 88, 0
6, 130560, Note_on_c, 1, 84, 84
6, 130679, Note_on_c, 1, 84, 0
6, 135360, Note_on_c, 1, 91, 76
6, 135360, Note_on_c, 1, 86, 76
6, 135479, Note_on_c, 1, 91, 0
6, 135479, Note_on_c, 1, 86, 0
6, 135720, Note_on_c, 1, 86, 84
6, 135720, Note_on_c, 1, 91, 84
6, 135839, Note_on_c, 1, 86, 0
6, 135839, Note_on_c, 1, 91, 0
6, 135840, Note_on_c, 1, 88, 76
6, 135840, Note_on_c, 1, 91, 76
6, 135959, Note_on_c, 1, 88, 0
6, 135959, Note_on_c, 1, 91, 0
6, 136200, Note_on_c, 1, 91, 84
6, 136200, Note_on_c, 1, 88, 84
6, 136319, Note_on_c, 1, 91, 0
6, 136319, Note_on_c, 1, 88, 0
6, 136320, Note_on_c, 1, 91, 76
6, 136320, Note_on_c, 1, 86, 76
6, 136439, Note_on_c, 1, 91, 0
6, 136439, Note_on_c, 1, 86, 0
6, 136680, Note_on_c, 1, 86, 84
6, 136680, Note_on_c, 1, 91, 84
6, 136799, Note_on_c, 1, 86, 0
6, 136799, Note_on_c, 1, 91, 0
6, 136800, Note_on_c, 1, 91, 76
6, 136800, Note_on_c, 1, 88, 76
6, 136919, Note_on_c, 1, 91, 0
6, 136919, Note_on_c, 1, 88, 0
6, 137160, Note_on_c, 1, 88, 84
6, 137160, Note_on_c, 1, 91, 84
6, 137279, Note_on_c, 1, 88, 0
6, 137279, Note_on_c, 1, 91, 0
6, 137280, Note_on_c, 1, 86, 76
6, 137280, Note_on_c, 1, 91, 76
6, 137399, Note_on_c, 1, 86, 0
6, 137399, Note_on_c, 1, 91, 0
6, 137640, Note_on_c, 1, 91, 84
6, 137640, Note_on_c, 1, 86, 84
6, 137759, Note_on_c, 1, 91, 0
6, 137759, Note_on_c, 1, 86, 0
6, 137760, Note_on_c, 1, 91, 76
6, 137760, Note_on_c, 1, 88, 76
6, 137879, Note_on_c, 1, 91, 0
6, 137879, Note_on_c, 1, 88, 0
6, 138120, Note_on_c, 1, 88, 84
6, 138120, Note_on_c, 1, 91, 84
6, 138239, Note_on_c, 1, 88, 0
6, 138239, Note_on_c, 1, 91, 0
6, 138240, Note_on_c, 1, 86, 76
6, 138240, Note_on_c, 1, 91, 76
6, 138359, Note_on_c, 1, 86, 0
6, 138359, Note_on_c, 1, 91, 0
6, 138600, Note_on_c, 1, 91, 84
6, 138600, Note_on_c, 1, 86, 84
6, 138719, Note_on_c, 1, 91, 0
6, 138719, Note_on_c, 1, 86, 0
6, 138720, Note_on_c, 1, 84, 76
6, 138720, Note_on_c, 1, 88, 76
6, 138824, Note_on_c, 1, 84, 0
6, 138824, Note_on_c, 1, 88, 0
6, 138840, Note_on_c, 1, 84, 76
6, 138840, Note_on_c, 1, 88, 76
6, 138891, Note_on_c, 1, 84, 0
6, 138891, Note_on_c, 1, 88, 0
6, 138900, Note_on_c, 1, 84, 76
6, 138900, Note_on_c, 1, 88, 76
6, 138951, Note_on_c, 1, 84, 0
6, 138951, Note_on_c, 1, 88, 0
6, 138960, Note_on_c, 1, 84, 76
6, 138960, Note_on_c, 1, 88, 76
6, 139079, Note_on_c, 1, 84, 0
6, 139079, Note_on_c, 1, 88, 0
6, 139200, Note_on_c, 1, 91, 76
6, 139200, Note_on_c, 1, 86, 76
6, 139439, Note_on_c, 1, 91, 0
6, 139439, Note_on_c, 1, 86, 0
6, 139560, Note_on_c, 1, 91, 84
6, 139560, Note_on_c, 1, 86, 84
6, 139679, Note_on_c, 1, 91, 0
6, 139679, Note_on_c, 1, 86, 0
6, 139680, Note_on_c, 1, 88, 76
6, 139680, Note_on_c, 1, 91, 76
6, 139799, Note_on_c, 1, 88, 0
6, 139799, Note_on_c, 1, 91, 0
6, 140040, Note_on_c, 1, 88, 84
6, 140040, Note_on_c, 1, 91, 84
6, 140159, Note_on_c, 1, 88, 0
6, 140159, Note_on_c, 1, 91, 0
6, 140160, Note_on_c, 1, 91, 76
6, 140160, Note_on_c, 1, 86, 76
6, 140279, Note_on_c, 1, 91, 0
6, 140279, Note_on_c, 1, 86, 0
6, 140520, Note_on_c, 1, 91, 84
6, 140520, Note_on_c, 1, 86, 84
6, 140639, Note_on_c, 1, 91, 0
6, 140639, Note_on_c, 1, 86, 0
6, 140640, Note_on_c, 1, 91, 76
6, 140640, Note_on_c, 1, 88, 76
6, 140759, Note_on_c, 1, 91, 0
6, 140759, Note_on_c, 1, 88, 0
6, 141000, Note_on_c, 1, 88, 84
6, 141000, Note_on_c, 1, 91, 84
6, 141119, Note_on_c, 1, 88, 0
6, 141119, Note_on_c, 1, 91, 0
6, 141120, Note_on_c, 1, 91, 76
6, 141120, Note_on_c, 1, 86, 76
6, 141239, Note_on_c, 1, 91, 0
6, 141239, Note_on_c, 1, 86, 0
6, 141480, Note_on_c, 1, 86, 84
6, 141480, Note_on_c, 1, 91, 84
6, 141599, Note_on_c, 1, 86, 0
6, 141599, Note_on_c, 1, 91, 0
6, 141600, Note_on_c, 1, 88, 76
6, 141600, Note_on_c, 1, 91, 76
6, 141719, Note_on_c, 1, 88, 0
6, 141719, Note_on_c, 1, 91, 0
6, 141960, Note_on_c, 1, 91, 84
6, 141960, Note_on_c, 1, 88, 84
6, 142079, Note_on_c, 1, 91, 0
6, 142079, Note_on_c, 1, 88, 0
6, 142080, Note_on_c, 1, 91, 76
6, 142080, Note_on_c, 1, 86, 76
6, 142199, Note_on_c, 1, 91, 0
6, 142199, Note_on_c, 1, 86, 0
6, 142440, Note_on_c, 1, 86, 84
6, 142440, Note_on_c, 1, 91, 84
6, 142559, Note_on_c, 1, 86, 0
6, 142559, Note_on_c, 1, 91, 0
6, 142560, Note_on_c, 1, 84, 76
6, 142560, Note_on_c, 1, 88, 76
6, 142664, Note_on_c, 1, 84, 0
6, 142664, Note_on_c, 1, 88, 0
6, 142680, Note_on_c, 1, 84, 76
6, 142680, Note_on_c, 1, 88, 76
6, 142731, Note_on_c, 1, 84, 0
6, 142731, Note_on_c, 1, 88, 0
6, 142740, Note_on_c, 1, 84, 76
6, 142740, Note_on_c, 1, 88, 76
6, 142791, Note_on_c, 1, 84, 0
6, 142791, Note_on_c, 1, 88, 0
6, 142800, Note_on_c, 1, 84, 76
6, 142800, Note_on_c, 1, 88, 76
6, 142919, Note_on_c, 1, 84, 0
6, 142919, Note_on_c, 1, 88, 0
6, 143040, Note_on_c, 1, 84, 84
6, 143040, Note_on_c, 1, 93, 84
6, 143279, Note_on_c, 1, 84, 0
6, 143279, Note_on_c, 1, 93, 0
6, 143400, Note_on_c, 1, 93, 92
6, 143400, Note_on_c, 1, 84, 92
6, 143519, Note_on_c, 1, 93, 0
6, 143519, Note_on_c, 1, 84, 0
6, 143520, Note_on_c, 1, 84, 84
6, 143520, Note_on_c, 1, 91, 84
6, 143759, Note_on_c, 1, 84, 0
6, 143759, Note_on_c, 1, 91, 0
6, 143880, Note_on_c, 1, 91, 92
6, 143880, Note_on_c, 1, 84, 92
6, 143999, Note_on_c, 1, 91, 0
6, 143999, Note_on_c, 1, 84, 0
6, 144000, Note_on_c, 1, 93, 84
6, 144000, Note_on_c, 1, 84, 84
6, 144239, Note_on_c, 1, 93, 0
6, 144239, Note_on_c, 1, 84, 0
6, 144360, Note_on_c, 1, 86, 92
6, 144360, Note_on_c, 1, 93, 92
6, 144479, Note_on_c, 1, 86, 0
6, 144479, Note_on_c, 1, 93, 0
6, 144480, Note_on_c, 1, 86, 84
6, 144480, Note_on_c, 1, 93, 84
6, 144599, Note_on_c, 1, 86, 0
6, 144599, Note_on_c, 1, 93, 0
6, 144600, Note_on_c, 1, 92, 84
6, 144719, Note_on_c, 1, 92, 0
6, 144840, Note_on_c, 1, 91, 92
6, 144840, Note_on_c, 1, 88, 92
6, 144959, Note_on_c, 1, 91, 0
6, 144959, Note_on_c, 1, 88, 0
6, 144960, Note_on_c, 1, 86, 84
6, 144960, Note_on_c, 1, 90, 84
6, 145079, Note_on_c, 1, 86, 0
6, 145079, Note_on_c, 1, 90, 0
6, 145320, Note_on_c, 1, 89, 92
6, 145320, Note_on_c, 1, 86, 92
6, 145379, Note_on_c, 1, 89, 0
6, 145380, Note_on_c, 1, 91, 84
6, 145431, Note_on_c, 1, 91, 0
6, 145439, Note_on_c, 1, 86, 0
6, 145440, Note_on_c, 1, 91, 84
6, 145440, Note_on_c, 1, 88, 84
6, 145559, Note_on_c, 1, 91, 0
6, 145559, Note_on_c, 1, 88, 0
6, 145800, Note_on_c, 1, 91, 92
6, 145800, Note_on_c, 1, 88, 92
6, 145919, Note_on_c, 1, 91, 0
6, 145919, Note_on_c, 1, 88, 0
6, 145920, Note_on_c, 1, 91, 84
6, 145920, Note_on_c, 1, 86, 84
6, 146039, Note_on_c, 1, 91, 0
6, 146039, Note_on_c, 1, 86, 0
6, 146280, Note_on_c, 1, 86, 92
6, 146280, Note_on_c, 1, 91, 92
6, 146399, Note_on_c, 1, 86, 0
6, 146399, Note_on_c, 1, 91, 0
6, 146400, Note_on_c, 1, 88, 84
6, 146400, Note_on_c, 1, 84, 84
6, 146504, Note_on_c, 1, 88, 0
6, 146504, Note_on_c, 1, 84, 0
6, 146520, Note_on_c, 1, 84, 84
6, 146520, Note_on_c, 1, 88, 84
6, 146571, Note_on_c, 1, 84, 0
6, 146571, Note_on_c, 1, 88, 0
6, 146580, Note_on_c, 1, 84, 84
6, 146580, Note_on_c, 1, 88, 84
6, 146631, Note_on_c, 1, 84, 0
6, 146631, Note_on_c, 1, 88, 0
6, 146640, Note_on_c, 1, 88, 84
6, 146640, Note_on_c, 1, 84, 84
6, 146759, Note_on_c, 1, 88, 0
6, 146759, Note_on_c, 1, 84, 0
6, 146880, Note_on_c, 1, 93, 84
6, 146880, Note_on_c, 1, 84, 84
6, 147119, Note_on_c, 1, 93, 0
6, 147119, Note_on_c, 1, 84, 0
6, 147240, Note_on_c, 1, 93, 92
6, 147240, Note_on_c, 1, 84, 92
6, 147359, Note_on_c, 1, 93, 0
6, 147359, Note_on_c, 1, 84, 0
6, 147360, Note_on_c, 1, 84, 84
6, 147360, Note_on_c, 1, 91, 84
6, 147599, Note_on_c, 1, 84, 0
6, 147599, Note_on_c, 1, 91, 0
6, 147720, Note_on_c, 1, 91, 92
6, 147720, Note_on_c, 1, 84, 92
6, 147839, Note_on_c, 1, 91, 0
6, 147839, Note_on_c, 1, 84, 0
6, 147840, Note_on_c, 1, 84, 84
6, 147840, Note_on_c, 1, 93, 84
6, 148079, Note_on_c, 1, 84, 0
6, 148079, Note_on_c, 1, 93, 0
6, 148200, Note_on_c, 1, 93, 92
6, 148200, Note_on_c, 1, 86, 92
6, 148319, Note_on_c, 1, 93, 0
6, 148319, Note_on_c, 1, 86, 0
6, 148320, Note_on_c, 1, 93, 84
6, 148320, Note_on_c, 1, 86, 84
6, 148439, Note_on_c, 1, 93, 0
6, 148439, Note_on_c, 1, 86, 0
6, 148440, Note_on_c, 1, 92, 84
6, 148559, Note_on_c, 1, 92, 0
6, 148680, Note_on_c, 1, 88, 92
6, 148680, Note_on_c, 1, 91, 92
6, 148799, Note_on_c, 1, 88, 0
6, 148799, Note_on_c, 1, 91, 0
6, 148800, Note_on_c, 1, 90, 84
6, 148800, Note_on_c, 1, 86, 84
6, 148919, Note_on_c, 1, 90, 0
6, 148919, Note_on_c, 1, 86, 0
6, 149160, Note_on_c, 1, 89, 92
6, 149160, Note_on_c, 1, 86, 92
6, 149219, Note_on_c, 1, 89, 0
6, 149220, Note_on_c, 1, 91, 84
6, 149271, Note_on_c, 1, 91, 0
6, 149279, Note_on_c, 1, 86, 0
6, 149280, Note_on_c, 1, 88, 84
6, 149280, Note_on_c, 1, 91, 84
6, 149399, Note_on_c, 1, 88, 0
6, 149399, Note_on_c, 1, 91, 0
6, 149640, Note_on_c, 1, 88, 92
6, 149640, Note_on_c, 1, 91, 92
6, 149759, Note_on_c, 1, 88, 0
6, 149759, Note_on_c, 1, 91, 0
6, 149760, Note_on_c, 1, 91, 84
6, 149760, Note_on_c, 1, 86, 84
6, 149879, Note_on_c, 1, 91, 0
6, 149879, Note_on_c, 1, 86, 0
6, 150120, Note_on_c, 1, 86, 92
6, 150120, Note_on_c, 1, 91, 92
6, 150239, Note_on_c, 1, 86, 0
6, 150239, Note_on_c, 1, 91, 0
6, 150240, Note_on_c, 1, 88, 84
6, 150240, Note_on_c, 1, 84, 84
6, 150344, Note_on_c, 1, 88, 0
6, 150344, Note_on_c, 1, 84, 0
6, 150360, Note_on_c, 1, 91, 84
6, 150360, Note_on_c, 1, 88, 84
6, 150411, Note_on_c, 1, 91, 0
6, 150411, Note_on_c, 1, 88, 0
6, 150420, Note_on_c, 1, 88, 84
6, 150420, Note_on_c, 1, 91, 84
6, 150471, Note_on_c, 1, 88, 0
6, 150471, Note_on_c, 1, 91, 0
6, 150480, Note_on_c, 1, 91, 84
6, 150480, Note_on_c, 1, 88, 84
6, 150599, Note_on_c, 1, 91, 0
6, 150599, Note_on_c, 1, 88, 0
6, 150840, Note_on_c, 1, 89, 84
6, 150840, Note_on_c, 1, 86, 84
6, 150891, Note_on_c, 1, 89, 0
6, 150891, Note_on_c, 1, 86, 0
6, 150900, Note_on_c, 1, 89, 84
6, 150900, Note_on_c, 1, 86, 84
6, 150951, Note_on_c, 1, 89, 0
6, 150951, Note_on_c, 1, 86, 0
6, 150960, Note_on_c, 1, 86, 84
6, 150960, Note_on_c, 1, 89, 84
6, 151079, Note_on_c, 1, 86, 0
6, 151079, Note_on_c, 1, 89, 0
6, 151320, Note_on_c, 1, 88, 84
6, 151320, Note_on_c, 1, 84, 84
6, 151371, Note_on_c, 1, 88, 0
6, 151371, Note_on_c, 1, 84, 0
6, 151380, Note_on_c, 1, 84, 84
6, 151380, Note_on_c, 1, 88, 84
6, 151431, Note_on_c, 1, 84, 0
6, 151431, Note_on_c, 1, 88, 0
6, 151440, Note_on_c, 1, 88, 84
6, 151440, Note_on_c, 1, 84, 84
6, 151559, Note_on_c, 1, 88, 0
6, 151559, Note_on_c, 1, 84, 0
6, 151800, Note_on_c, 1, 88, 84
6, 151800, Note_on_c, 1, 84, 84
6, 151851, Note_on_c, 1, 88, 0
6, 151851, Note_on_c, 1, 84, 0
6, 151860, Note_on_c, 1, 88, 84
6, 151860, Note_on_c, 1, 84, 84
6, 151911, Note_on_c, 1, 88, 0
6, 151911, Note_on_c, 1, 84, 0
6, 151920, Note_on_c, 1, 83, 84
6, 151920, Note_on_c, 1, 86, 84
6, 152039, Note_on_c, 1, 83, 0
6, 152039, Note_on_c, 1, 86, 0
6, 152400, Note_on_c, 1, 84, 92
6, 152639, Note_on_c, 1, 84, 0
6, 152640, Note_on_c, 1, 89, 84
6, 152759, Note_on_c, 1, 89, 0
6, 152880, Note_on_c, 1, 81, 92
6, 153119, Note_on_c, 1, 81, 0
6, 153120, Note_on_c, 1, 86, 84
6, 153239, Note_on_c, 1, 86, 0
6, 153360, Note_on_c, 1, 79, 92
6, 153599, Note_on_c, 1, 79, 0
6, 153600, Note_on_c, 1, 82, 84
6, 153719, Note_on_c, 1, 82, 0
6, 153840, Note_on_c, 1, 76, 92
6, 154079, Note_on_c, 1, 76, 0
6, 154080, Note_on_c, 1, 77, 84
6, 154184, Note_on_c, 1, 77, 0
6, 154200, Note_on_c, 1, 81, 84
6, 154200, Note_on_c, 1, 89, 84
6, 154251, Note_on_c, 1, 81, 0
6, 154251, Note_on_c, 1, 89, 0
6, 154260, Note_on_c, 1, 81, 84
6, 154260, Note_on_c, 1, 89, 84
6, 154311, Note_on_c, 1, 81, 0
6, 154311, Note_on_c, 1, 89, 0
6, 154320, Note_on_c, 1, 89, 84
6, 154320, Note_on_c, 1, 81, 84
6, 154439, Note_on_c, 1, 89, 0
6, 154439, Note_on_c, 1, 81, 0
6, 154680, Note_on_c, 1, 86, 84
6, 154680, Note_on_c, 1, 89, 84
6, 154731, Note_on_c, 1, 86, 0
6, 154731, Note_on_c, 1, 89, 0
6, 154740, Note_on_c, 1, 89, 84
6, 154740, Note_on_c, 1, 86, 84
6, 154791, Note_on_c, 1, 89, 0
6, 154791, Note_on_c, 1, 86, 0
6, 154800, Note_on_c, 1, 89, 84
6, 154800, Note_on_c, 1, 86, 84
6, 154919, Note_on_c, 1, 89, 0
6, 154919, Note_on_c, 1, 86, 0
6, 155160, Note_on_c, 1, 88, 84
6, 155211, Note_on_c, 1, 88, 0
6, 155220, Note_on_c, 1, 88, 84
6, 155271, Note_on_c, 1, 88, 0
6, 155280, Note_on_c, 1, 88, 84
6, 155399, Note_on_c, 1, 88, 0
6, 155640, Note_on_c, 1, 85, 84
6, 155640, Note_on_c, 1, 88, 84
6, 155691, Note_on_c, 1, 85, 0
6, 155691, Note_on_c, 1, 88, 0
6, 155700, Note_on_c, 1, 85, 84
6, 155700, Note_on_c, 1, 88, 84
6, 155751, Note_on_c, 1, 85, 0
6, 155751, Note_on_c, 1, 88, 0
6, 155760, Note_on_c, 1, 88, 84
6, 155760, Note_on_c, 1, 85, 84
6, 155879, Note_on_c, 1, 88, 0
6, 155879, Note_on_c, 1, 85, 0
6, 156000, Note_on_c, 1, 86, 84
6, 156000, Note_on_c, 1, 89, 84
6, 156119, Note_on_c, 1, 86, 0
6, 156119, Note_on_c, 1, 89, 0
6, 157200, Note_on_c, 1, 89, 92
6, 157200, Note_on_c, 1, 77, 92
6, 157439, Note_on_c, 1, 89, 0
6, 157439, Note_on_c, 1, 77, 0
6, 157440, Note_on_c, 1, 93, 84
6, 157440, Note_on_c, 1, 81, 84
6, 157559, Note_on_c, 1, 93, 0
6, 157559, Note_on_c, 1, 81, 0
6, 157680, Note_on_c, 1, 74, 92
6, 157680, Note_on_c, 1, 86, 92
6, 157919, Note_on_c, 1, 74, 0
6, 157919, Note_on_c, 1, 86, 0
6, 157920, Note_on_c, 1, 77, 84
6, 157920, Note_on_c, 1, 89, 84
6, 158039, Note_on_c, 1, 77, 0
6, 158039, Note_on_c, 1, 89, 0
6, 158160, Note_on_c, 1, 81, 92
6, 158399, Note_on_c, 1, 81, 0
6, 158400, Note_on_c, 1, 86, 84
6, 158519, Note_on_c, 1, 86, 0
6, 158640, Note_on_c, 1, 77, 84
6, 158879, Note_on_c, 1, 77, 0
6, 158880, Note_on_c, 1, 81, 84
6, 158999, Note_on_c, 1, 81, 0
6, 159120, Note_on_c, 1, 77, 84
6, 159359, Note_on_c, 1, 77, 0
6, 159360, Note_on_c, 1, 81, 84
6, 159479, Note_on_c, 1, 81, 0
6, 159600, Note_on_c, 1, 78, 84
6, 159839, Note_on_c, 1, 78, 0
6, 159840, Note_on_c, 1, 81, 84
6, 159959, Note_on_c, 1, 81, 0
6, 160080, Note_on_c, 1, 78, 84
6, 160319, Note_on_c, 1, 78, 0
6, 160320, Note_on_c, 1, 82, 84
6, 160439, Note_on_c, 1, 82, 0
6, 160560, Note_on_c, 1, 79, 84
6, 160799, Note_on_c, 1, 79, 0
6, 160800, Note_on_c, 1, 82, 84
6, 160919, Note_on_c, 1, 82, 0
6, 161040, Note_on_c, 1, 79, 84
6, 161279, Note_on_c, 1, 79, 0
6, 161280, Note_on_c, 1, 83, 84
6, 161399, Note_on_c, 1, 83, 0
6, 161520, Note_on_c, 1, 80, 84
6, 161759, Note_on_c, 1, 80, 0
6, 161760, Note_on_c, 1, 83, 84
6, 161879, Note_on_c, 1, 83, 0
6, 162000, Note_on_c, 1, 80, 84
6, 162239, Note_on_c, 1, 80, 0
6, 162240, Note_on_c, 1, 84, 84
6, 162359, Note_on_c, 1, 84, 0
6, 162480, Note_on_c, 1, 81, 84
6, 162719, Note_on_c, 1, 81, 0
6, 162720, Note_on_c, 1, 85, 84
6, 162839, Note_on_c, 1, 85, 0
6, 162960, Note_on_c, 1, 82, 84
6, 163199, Note_on_c, 1, 82, 0
6, 163200, Note_on_c, 1, 86, 84
6, 163319, Note_on_c, 1, 86, 0
6, 163440, Note_on_c, 1, 83, 84
6, 163440, Note_on_c, 1, 71, 84
6, 163679, Note_on_c, 1, 83, 0
6, 163679, Note_on_c, 1, 71, 0
6, 163680, Note_on_c, 1, 75, 84
6, 163680, Note_on_c, 1, 87, 84
6, 163799, Note_on_c, 1, 75, 0
6, 163799, Note_on_c, 1, 87, 0
6, 163920, Note_on_c, 1, 72, 84
6, 163920, Note_on_c, 1, 84, 84
6, 164159, Note_on_c, 1, 72, 0
6, 164159, Note_on_c, 1, 84, 0
6, 164160, Note_on_c, 1, 76, 84
6, 164160, Note_on_c, 1, 88, 84
6, 164279, Note_on_c, 1, 76, 0
6, 164279, Note_on_c, 1, 88, 0
6, 164400, Note_on_c, 1, 73, 84
6, 164400, Note_on_c, 1, 85, 84
6, 164639, Note_on_c, 1, 73, 0
6, 164639, Note_on_c, 1, 85, 0
6, 164640, Note_on_c, 1, 76, 84
6, 164640, Note_on_c, 1, 88, 84
6, 164759, Note_on_c, 1, 76, 0
6, 164759, Note_on_c, 1, 88, 0
6, 164880, Note_on_c, 1, 86, 84
6, 164880, Note_on_c, 1, 74, 84
6, 165119, Note_on_c, 1, 86, 0
6, 165119, Note_on_c, 1, 74, 0
6, 165120, Note_on_c, 1, 76, 84
6, 165120, Note_on_c, 1, 88, 84
6, 165239, Note_on_c, 1, 76, 0
6, 165239, Note_on_c, 1, 88, 0
6, 165360, Note_on_c, 1, 75, 84
6, 165360, Note_on_c, 1, 87, 84
6, 165599, Note_on_c, 1, 75, 0
6, 165599, Note_on_c, 1, 87, 0
6, 165600, Note_on_c, 1, 76, 84
6, 165600, Note_on_c, 1, 88, 84
6, 165719, Note_on_c, 1, 76, 0
6, 165719, Note_on_c, 1, 88, 0
6, 165840, Note_on_c, 1, 75, 84
6, 165840, Note_on_c, 1, 87, 84
6, 166079, Note_on_c, 1, 75, 0
6, 166079, Note_on_c, 1, 87, 0
6, 166080, Note_on_c, 1, 88, 84
6, 166080, Note_on_c, 1, 76, 84
6, 166199, Note_on_c, 1, 88, 0
6, 166199, Note_on_c, 1, 76, 0
6, 166320, Note_on_c, 1, 75, 84
6, 166320, Control_c, 1, 11, 127
6, 166365, Control_c, 1, 11, 125
6, 166410, Control_c, 1, 11, 124
6, 166455, Control_c, 1, 11, 122
6, 166500, Control_c, 1, 11, 120
6, 166545, Control_c, 1, 11, 119
6, 166559, Note_on_c, 1, 75, 0
6, 166560, Note_on_c, 1, 76, 84
6, 166590, Control_c, 1, 11, 117
6, 166635, Control_c, 1, 11, 115
6, 166679, Note_on_c, 1, 76, 0
6, 166680, Control_c, 1, 11, 114
6, 166725, Control_c, 1, 11, 112
6, 166770, Control_c, 1, 11, 111
6, 166800, Note_on_c, 1, 75, 84
6, 166815, Control_c, 1, 11, 109
6, 166860, Control_c, 1, 11, 107
6, 166905, Control_c, 1, 11, 106
6, 166950, Control_c, 1, 11, 104
6, 166995, Control_c, 1, 11, 102
6, 167039, Note_on_c, 1, 75, 0
6, 167040, Control_c, 1, 11, 101
6, 167040, Note_on_c, 1, 76, 84
6, 167085, Control_c, 1, 11, 99
6, 167130, Control_c, 1, 11, 97
6, 167159, Note_on_c, 1, 76, 0
6, 167175, Control_c, 1, 11, 96
6, 167220, Control_c, 1, 11, 94
6, 167265, Control_c, 1, 11, 92
6, 167280, Note_on_c, 1, 75, 84
6, 167310, Control_c, 1, 11, 91
6, 167355, Control_c, 1, 11, 89
6, 167400, Control_c, 1, 11, 88
6, 167445, Control_c, 1, 11, 86
6, 167490, Control_c, 1, 11, 84
6, 167519, Note_on_c, 1, 75, 0
6, 167520, Note_on_c, 1, 76, 84
6, 167535, Control_c, 1, 11, 83
6, 167580, Control_c, 1, 11, 81
6, 167625, Control_c, 1, 11, 79
6, 167639, Note_on_c, 1, 76, 0
6, 167670, Control_c, 1, 11, 78
6, 167715, Control_c, 1, 11, 76
6, 167760, Note_on_c, 1, 76, 84
6, 167760, Control_c, 1, 11, 74
6, 167805, Control_c, 1, 11, 73
6, 167850, Control_c, 1, 11, 71
6, 167895, Control_c, 1, 11, 69
6, 167940, Control_c, 1, 11, 68
6, 167985, Control_c, 1, 11, 66
6, 167999, Note_on_c, 1, 76, 0
6, 168000, Note_on_c, 1, 77, 84
6, 168030, Control_c, 1, 11, 64
6, 168075, Control_c, 1, 11, 63
6, 168119, Note_on_c, 1, 77, 0
6, 168120, Control_c, 1, 11, 61
6, 168435, Control_c, 1, 11, 127
6, 168480, Note_on_c, 1, 77, 44
6, 168584, Note_on_c, 1, 77, 0
6, 168600, Note_on_c, 1, 77, 44
6, 168651, Note_on_c, 1, 77, 0
6, 168660, Note_on_c, 1, 77, 44
6, 168711, Note_on_c, 1, 77, 0
6, 168720, Note_on_c, 1, 77, 44
6, 168839, Note_on_c, 1, 77, 0
6, 169440, Note_on_c, 1, 75, 44
6, 169544, Note_on_c, 1, 75, 0
6, 169560, Note_on_c, 1, 75, 44
6, 169611, Note_on_c, 1, 75, 0
6, 169620, Note_on_c, 1, 75, 44
6, 169671, Note_on_c, 1, 75, 0
6, 169680, Note_on_c, 1, 75, 44
6, 169799, Note_on_c, 1, 75, 0
6, 170040, Note_on_c, 1, 72, 44
6, 170099, Note_on_c, 1, 72, 0
6, 170100, Note_on_c, 1, 74, 44
6, 170159, Note_on_c, 1, 74, 0
6, 170160, Note_on_c, 1, 77, 44
6, 170219, Note_on_c, 1, 77, 0
6, 170220, Note_on_c, 1, 75, 44
6, 170279, Note_on_c, 1, 75, 0
6, 170280, Note_on_c, 1, 74, 44
6, 170339, Note_on_c, 1, 74, 0
6, 170340, Note_on_c, 1, 72, 44
6, 170391, Note_on_c, 1, 72, 0
6, 170400, Note_on_c, 1, 74, 44
6, 170489, Note_on_c, 1, 74, 0
6, 170520, Note_on_c, 1, 74, 44
6, 170579, Note_on_c, 1, 74, 0
6, 170580, Note_on_c, 1, 75, 44
6, 170639, Note_on_c, 1, 75, 0
6, 170640, Note_on_c, 1, 79, 44
6, 170699, Note_on_c, 1, 79, 0
6, 170700, Note_on_c, 1, 77, 44
6, 170759, Note_on_c, 1, 77, 0
6, 170760, Note_on_c, 1, 75, 44
6, 170819, Note_on_c, 1, 75, 0
6, 170820, Note_on_c, 1, 74, 44
6, 170871, Note_on_c, 1, 74, 0
6, 170880, Note_on_c, 1, 72, 44
6, 170969, Note_on_c, 1, 72, 0
6, 171000, Note_on_c, 1, 72, 44
6, 171059, Note_on_c, 1, 72, 0
6, 171060, Note_on_c, 1, 74, 44
6, 171119, Note_on_c, 1, 74, 0
6, 171120, Note_on_c, 1, 77, 44
6, 171179, Note_on_c, 1, 77, 0
6, 171180, Note_on_c, 1, 75, 44
6, 171239, Note_on_c, 1, 75, 0
6, 171240, Note_on_c, 1, 74, 44
6, 171299, Note_on_c, 1, 74, 0
6, 171300, Note_on_c, 1, 72, 44
6, 171351, Note_on_c, 1, 72, 0
6, 171360, Note_on_c, 1, 74, 44
6, 171539, Note_on_c, 1, 74, 0
6, 171540, Note_on_c, 1, 82, 44
6, 171591, Note_on_c, 1, 82, 0
6, 171600, Note_on_c, 1, 82, 44
6, 173279, Note_on_c, 1, 82, 0
6, 173280, Note_on_c, 1, 81, 44
6, 173399, Note_on_c, 1, 81, 0
6, 173760, Note_on_c, 1, 77, 44
6, 173864, Note_on_c, 1, 77, 0
6, 173880, Note_on_c, 1, 77, 44
6, 173931, Note_on_c, 1, 77, 0
6, 173940, Note_on_c, 1, 77, 44
6, 173991, Note_on_c, 1, 77, 0
6, 174000, Note_on_c, 1, 77, 44
6, 174119, Note_on_c, 1, 77, 0
6, 174720, Note_on_c, 1, 75, 44
6, 174824, Note_on_c, 1, 75, 0
6, 174840, Note_on_c, 1, 75, 44
6, 174891, Note_on_c, 1, 75, 0
6, 174900, Note_on_c, 1, 75, 44
6, 174951, Note_on_c, 1, 75, 0
6, 174960, Note_on_c, 1, 75, 44
6, 175079, Note_on_c, 1, 75, 0
6, 175200, Note_on_c, 1, 72, 44
6, 175289, Note_on_c, 1, 72, 0
6, 175320, Note_on_c, 1, 72, 44
6, 175379, Note_on_c, 1, 72, 0
6, 175380, Note_on_c, 1, 74, 44
6, 175439, Note_on_c, 1, 74, 0
6, 175440, Note_on_c, 1, 77, 44
6, 175499, Note_on_c, 1, 77, 0
6, 175500, Note_on_c, 1, 75, 44
6, 175559, Note_on_c, 1, 75, 0
6, 175560, Note_on_c, 1, 74, 44
6, 175619, Note_on_c, 1, 74, 0
6, 175620, Note_on_c, 1, 72, 44
6, 175671, Note_on_c, 1, 72, 0
6, 175680, Note_on_c, 1, 74, 44
6, 175769, Note_on_c, 1, 74, 0
6, 175800, Note_on_c, 1, 74, 44
6, 175859, Note_on_c, 1, 74, 0
6, 175860, Note_on_c, 1, 75, 44
6, 175919, Note_on_c, 1, 75, 0
6, 175920, Note_on_c, 1, 79, 44
6, 175979, Note_on_c, 1, 79, 0
6, 175980, Note_on_c, 1, 77, 44
6, 176039, Note_on_c, 1, 77, 0
6, 176040, Note_on_c, 1, 75, 44
6, 176099, Note_on_c, 1, 75, 0
6, 176100, Note_on_c, 1, 74, 44
6, 176151, Note_on_c, 1, 74, 0
6, 176160, Note_on_c, 1, 72, 44
6, 176249, Note_on_c, 1, 72, 0
6, 176280, Note_on_c, 1, 72, 44
6, 176339, Note_on_c, 1, 72, 0
6, 176340, Note_on_c, 1, 74, 44
6, 176399, Note_on_c, 1, 74, 0
6, 176400, Note_on_c, 1, 77, 44
6, 176459, Note_on_c, 1, 77, 0
6, 176460, Note_on_c, 1, 75, 44
6, 176519, Note_on_c, 1, 75, 0
6, 176520, Note_on_c, 1, 74, 44
6, 176579, Note_on_c, 1, 74, 0
6, 176580, Note_on_c, 1, 72, 44
6, 176631, Note_on_c, 1, 72, 0
6, 176638, Control_c, 1, 11, 48
6, 176640, Note_on_c, 1, 74, 84
6, 176819, Note_on_c, 1, 74, 0
6, 176820, Note_on_c, 1, 83, 84
6, 176871, Note_on_c, 1, 83, 0
6, 176880, Control_c, 1, 11, 48
6, 176880, Note_on_c, 1, 83, 84
6, 176915, Control_c, 1, 11, 50
6, 176950, Control_c, 1, 11, 51
6, 176985, Control_c, 1, 11, 53
6, 177020, Control_c, 1, 11, 55
6, 177055, Control_c, 1, 11, 56
6, 177090, Control_c, 1, 11, 58
6, 177125, Control_c, 1, 11, 60
6, 177160, Control_c, 1, 11, 61
6, 177195, Control_c, 1, 11, 63
6, 177230, Control_c, 1, 11, 64
6, 177265, Control_c, 1, 11, 66
6, 177300, Control_c, 1, 11, 68
6, 177335, Control_c, 1, 11, 69
6, 177370, Control_c, 1, 11, 71
6, 177405, Control_c, 1, 11, 73
6, 177440, Control_c, 1, 11, 74
6, 177475, Control_c, 1, 11, 76
6, 177510, Control_c, 1, 11, 78
6, 177545, Control_c, 1, 11, 79
6, 177580, Control_c, 1, 11, 81
6, 177615, Control_c, 1, 11, 83
6, 177650, Control_c, 1, 11, 84
6, 177685, Control_c, 1, 11, 86
6, 177720, Control_c, 1, 11, 88
6, 177755, Control_c, 1, 11, 89
6, 177790, Control_c, 1, 11, 91
6, 177825, Control_c, 1, 11, 92
6, 177860, Control_c, 1, 11, 94
6, 177895, Control_c, 1, 11, 96
6, 177930, Control_c, 1, 11, 97
6, 177965, Control_c, 1, 11, 99
6, 178000, Control_c, 1, 11, 101
6, 178035, Control_c, 1, 11, 102
6, 178070, Control_c, 1, 11, 104
6, 178105, Control_c, 1, 11, 106
6, 178140, Control_c, 1, 11, 107
6, 178175, Control_c, 1, 11, 109
6, 178210, Control_c, 1, 11, 111
6, 178245, Control_c, 1, 11, 112
6, 178280, Control_c, 1, 11, 114
6, 178315, Control_c, 1, 11, 115
6, 178350, Control_c, 1, 11, 117
6, 178385, Control_c, 1, 11, 119
6, 178420, Control_c, 1, 11, 120
6, 178455, Control_c, 1, 11, 122
6, 178490, Control_c, 1, 11, 124
6, 178525, Control_c, 1, 11, 127
6, 178664, Note_on_c, 1, 83, 0
6, 178680, Note_on_c, 1, 88, 84
6, 178680, Note_on_c, 1, 76, 84
6, 178731, Note_on_c, 1, 88, 0
6, 178731, Note_on_c, 1, 76, 0
6, 178740, Note_on_c, 1, 88, 84
6, 178740, Note_on_c, 1, 76, 84
6, 178791, Note_on_c, 1, 88, 0
6, 178791, Note_on_c, 1, 76, 0
6, 178800, Note_on_c, 1, 88, 84
6, 178800, Note_on_c, 1, 76, 84
6, 178919, Note_on_c, 1, 88, 0
6, 178919, Note_on_c, 1, 76, 0
6, 179520, Note_on_c, 1, 83, 84
6, 179520, Note_on_c, 1, 86, 84
6, 179624, Note_on_c, 1, 83, 0
6, 179624, Note_on_c, 1, 86, 0
6, 179640, Note_on_c, 1, 86, 84
6, 179640, Note_on_c, 1, 83, 84
6, 179691, Note_on_c, 1, 86, 0
6, 179691, Note_on_c, 1, 83, 0
6, 179700, Note_on_c, 1, 83, 84
6, 179700, Note_on_c, 1, 86, 84
6, 179751, Note_on_c, 1, 83, 0
6, 179751, Note_on_c, 1, 86, 0
6, 179760, Note_on_c, 1, 83, 84
6, 179760, Note_on_c, 1, 86, 84
6, 179879, Note_on_c, 1, 83, 0
6, 179879, Note_on_c, 1, 86, 0
6, 180480, Note_on_c, 1, 76, 84
6, 180480, Note_on_c, 1, 88, 84
6, 180599, Note_on_c, 1, 76, 0
6, 180599, Note_on_c, 1, 88, 0
6, 180840, Note_on_c, 1, 88, 92
6, 180840, Note_on_c, 1, 76, 92
6, 180959, Note_on_c, 1, 88, 0
6, 180959, Note_on_c, 1, 76, 0
6, 180960, Note_on_c, 1, 88, 84
6, 180960, Note_on_c, 1, 76, 84
6, 181079, Note_on_c, 1, 88, 0
6, 181079, Note_on_c, 1, 76, 0
6, 181320, Note_on_c, 1, 88, 92
6, 181320, Note_on_c, 1, 76, 92
6, 181439, Note_on_c, 1, 88, 0
6, 181439, Note_on_c, 1, 76, 0
6, 181440, Note_on_c, 1, 76, 84
6, 181440, Note_on_c, 1, 88, 84
6, 181559, Note_on_c, 1, 76, 0
6, 181559, Note_on_c, 1, 88, 0
6, 181800, Note_on_c, 1, 76, 92
6, 181800, Note_on_c, 1, 88, 92
6, 181919, Note_on_c, 1, 76, 0
6, 181919, Note_on_c, 1, 88, 0
6, 181920, Note_on_c, 1, 76, 84
6, 181920, Note_on_c, 1, 88, 84
6, 182039, Note_on_c, 1, 76, 0
6, 182039, Note_on_c, 1, 88, 0
6, 182280, Note_on_c, 1, 88, 92
6, 182280, Note_on_c, 1, 76, 92
6, 182399, Note_on_c, 1, 88, 0
6, 182399, Note_on_c, 1, 76, 0
6, 182400, Note_on_c, 1, 76, 84
6, 182400, Note_on_c, 1, 88, 84
6, 182519, Note_on_c, 1, 76, 0
6, 182519, Note_on_c, 1, 88, 0
6, 182760, Note_on_c, 1, 88, 92
6, 182760, Note_on_c, 1, 76, 92
6, 182879, Note_on_c, 1, 88, 0
6, 182879, Note_on_c, 1, 76, 0
6, 182880, Note_on_c, 1, 88, 84
6, 182880, Note_on_c, 1, 76, 84
6, 182999, Note_on_c, 1, 88, 0
6, 182999, Note_on_c, 1, 76, 0
6, 183240, Note_on_c, 1, 76, 92
6, 183240, Note_on_c, 1, 88, 92
6, 183359, Note_on_c, 1, 76, 0
6, 183359, Note_on_c, 1, 88, 0
6, 183360, Note_on_c, 1, 76, 84
6, 183360, Note_on_c, 1, 88, 84
6, 183479, Note_on_c, 1, 76, 0
6, 183479, Note_on_c, 1, 88, 0
6, 183720, Note_on_c, 1, 76, 92
6, 183720, Note_on_c, 1, 88, 92
6, 183839, Note_on_c, 1, 76, 0
6, 183839, Note_on_c, 1, 88, 0
6, 183840, Note_on_c, 1, 81, 84
6, 183840, Note_on_c, 1, 76, 84
6, 183944, Note_on_c, 1, 81, 0
6, 183944, Note_on_c, 1, 76, 0
6, 183960, Note_on_c, 1, 93, 84
6, 183960, Note_on_c, 1, 81, 84
6, 184011, Note_on_c, 1, 93, 0
6, 184011, Note_on_c, 1, 81, 0
6, 184020, Note_on_c, 1, 81, 84
6, 184020, Note_on_c, 1, 93, 84
6, 184071, Note_on_c, 1, 81, 0
6, 184071, Note_on_c, 1, 93, 0
6, 184080, Note_on_c, 1, 81, 84
6, 184080, Note_on_c, 1, 93, 84
6, 184199, Note_on_c, 1, 81, 0
6, 184199, Note_on_c, 1, 93, 0
6, 184320, Note_on_c, 1, 76, 84
6, 184320, Note_on_c, 1, 88, 84
6, 184439, Note_on_c, 1, 76, 0
6, 184439, Note_on_c, 1, 88, 0
6, 184680, Note_on_c, 1, 76, 92
6, 184680, Note_on_c, 1, 88, 92
6, 184799, Note_on_c, 1, 76, 0
6, 184799, Note_on_c, 1, 88, 0
6, 184800, Note_on_c, 1, 76, 84
6, 184800, Note_on_c, 1, 88, 84
6, 184919, Note_on_c, 1, 76, 0
6, 184919, Note_on_c, 1, 88, 0
6, 185160, Note_on_c, 1, 76, 92
6, 185160, Note_on_c, 1, 88, 92
6, 185279, Note_on_c, 1, 76, 0
6, 185279, Note_on_c, 1, 88, 0
6, 185280, Note_on_c, 1, 76, 84
6, 185280, Note_on_c, 1, 88, 84
6, 185399, Note_on_c, 1, 76, 0
6, 185399, Note_on_c, 1, 88, 0
6, 185640, Note_on_c, 1, 76, 92
6, 185640, Note_on_c, 1, 88, 92
6, 185759, Note_on_c, 1, 76, 0
6, 185759, Note_on_c, 1, 88, 0
6, 185760, Note_on_c, 1, 88, 84
6, 185760, Note_on_c, 1, 76, 84
6, 185879, Note_on_c, 1, 88, 0
6, 185879, Note_on_c, 1, 76, 0
6, 186120, Note_on_c, 1, 88, 92
6, 186120, Note_on_c, 1, 76, 92
6, 186239, Note_on_c, 1, 88, 0
6, 186239, Note_on_c, 1, 76, 0
6, 186240, Note_on_c, 1, 76, 84
6, 186240, Note_on_c, 1, 88, 84
6, 186359, Note_on_c, 1, 76, 0
6, 186359, Note_on_c, 1, 88, 0
6, 186600, Note_on_c, 1, 76, 92
6, 186600, Note_on_c, 1, 88, 92
6, 186719, Note_on_c, 1, 76, 0
6, 186719, Note_on_c, 1, 88, 0
6, 186720, Note_on_c, 1, 76, 84
6, 186720, Note_on_c, 1, 88, 84
6, 186839, Note_on_c, 1, 76, 0
6, 186839, Note_on_c, 1, 88, 0
6, 187080, Note_on_c, 1, 76, 92
6, 187080, Note_on_c, 1, 88, 92
6, 187199, Note_on_c, 1, 76, 0
6, 187199, Note_on_c, 1, 88, 0
6, 187200, Note_on_c, 1, 76, 84
6, 187200, Note_on_c, 1, 88, 84
6, 187319, Note_on_c, 1, 76, 0
6, 187319, Note_on_c, 1, 88, 0
6, 187560, Note_on_c, 1, 76, 92
6, 187560, Note_on_c, 1, 88, 92
6, 187679, Note_on_c, 1, 76, 0
6, 187679, Note_on_c, 1, 88, 0
6, 187680, Note_on_c, 1, 81, 84
6, 187784, Note_on_c, 1, 81, 0
6, 187800, Note_on_c, 1, 81, 84
6, 187851, Note_on_c, 1, 81, 0
6, 187860, Note_on_c, 1, 81, 84
6, 187911, Note_on_c, 1, 81, 0
6, 187920, Note_on_c, 1, 81, 84
6, 188039, Note_on_c, 1, 81, 0
6, 188280, Note_on_c, 1, 81, 84
6, 188331, Note_on_c, 1, 81, 0
6, 188340, Note_on_c, 1, 81, 84
6, 188391, Note_on_c, 1, 81, 0
6, 188400, Note_on_c, 1, 81, 84
6, 188519, Note_on_c, 1, 81, 0
6, 188760, Note_on_c, 1, 88, 84
6, 188811, Note_on_c, 1, 88, 0
6, 188820, Note_on_c, 1, 88, 84
6, 188871, Note_on_c, 1, 88, 0
6, 188880, Note_on_c, 1, 88, 84
6, 188999, Note_on_c, 1, 88, 0
6, 189240, Note_on_c, 1, 88, 84
6, 189291, Note_on_c, 1, 88, 0
6, 189300, Note_on_c, 1, 88, 84
6, 189351, Note_on_c, 1, 88, 0
6, 189360, Note_on_c, 1, 88, 84
6, 189479, Note_on_c, 1, 88, 0
6, 189600, Note_on_c, 1, 85, 84
6, 189600, Note_on_c, 1, 76, 84
6, 189944, Note_on_c, 1, 85, 0
6, 189944, Note_on_c, 1, 76, 0
6, 189960, Note_on_c, 1, 74, 84
6, 189960, Note_on_c, 1, 83, 84
6, 190049, Note_on_c, 1, 74, 0
6, 190049, Note_on_c, 1, 83, 0
6, 190080, Note_on_c, 1, 81, 84
6, 190080, Note_on_c, 1, 73, 84
6, 190169, Note_on_c, 1, 81, 0
6, 190169, Note_on_c, 1, 73, 0
6, 190200, Note_on_c, 1, 85, 84
6, 190200, Note_on_c, 1, 76, 84
6, 190289, Note_on_c, 1, 85, 0
6, 190289, Note_on_c, 1, 76, 0
6, 190320, Note_on_c, 1, 74, 84
6, 190320, Note_on_c, 1, 83, 84
6, 190409, Note_on_c, 1, 74, 0
6, 190409, Note_on_c, 1, 83, 0
6, 190440, Note_on_c, 1, 73, 84
6, 190440, Note_on_c, 1, 81, 84
6, 190529, Note_on_c, 1, 73, 0
6, 190529, Note_on_c, 1, 81, 0
6, 190560, Note_on_c, 1, 74, 84
6, 190560, Note_on_c, 1, 83, 84
6, 190649, Note_on_c, 1, 74, 0
6, 190649, Note_on_c, 1, 83, 0
6, 190680, Note_on_c, 1, 93, 84
6, 190680, Note_on_c, 1, 85, 84
6, 190769, Note_on_c, 1, 93, 0
6, 190769, Note_on_c, 1, 85, 0
6, 190800, Note_on_c, 1, 83, 84
6, 190800, Note_on_c, 1, 92, 84
6, 190889, Note_on_c, 1, 83, 0
6, 190889, Note_on_c, 1, 92, 0
6, 190920, Note_on_c, 1, 90, 84
6, 190920, Note_on_c, 1, 86, 84
6, 191009, Note_on_c, 1, 90, 0
6, 191009, Note_on_c, 1, 86, 0
6, 191040, Note_on_c, 1, 85, 84
6, 191040, Note_on_c, 1, 88, 84
6, 191129, Note_on_c, 1, 85, 0
6, 191129, Note_on_c, 1, 88, 0
6, 191160, Note_on_c, 1, 83, 84
6, 191160, Note_on_c, 1, 86, 84
6, 191249, Note_on_c, 1, 83, 0
6, 191249, Note_on_c, 1, 86, 0
6, 191280, Note_on_c, 1, 81, 84
6, 191280, Note_on_c, 1, 85, 84
6, 191369, Note_on_c, 1, 81, 0
6, 191369, Note_on_c, 1, 85, 0
6, 191400, Note_on_c, 1, 83, 84
6, 191400, Note_on_c, 1, 80, 84
6, 191489, Note_on_c, 1, 83, 0
6, 191489, Note_on_c, 1, 80, 0
6, 191520, Note_on_c, 1, 81, 84
6, 191624, Note_on_c, 1, 81, 0
6, 191640, Note_on_c, 1, 81, 84
6, 191691, Note_on_c, 1, 81, 0
6, 191700, Note_on_c, 1, 81, 84
6, 191751, Note_on_c, 1, 81, 0
6, 191760, Note_on_c, 1, 81, 84
6, 191879, Note_on_c, 1, 81, 0
6, 192120, Note_on_c, 1, 81, 84
6, 192171, Note_on_c, 1, 81, 0
6, 192180, Note_on_c, 1, 81, 84
6, 192231, Note_on_c, 1, 81, 0
6, 192240, Note_on_c, 1, 81, 84
6, 192359, Note_on_c, 1, 81, 0
6, 192600, Note_on_c, 1, 88, 84
6, 192651, Note_on_c, 1, 88, 0
6, 192660, Note_on_c, 1, 88, 84
6, 192711, Note_on_c, 1, 88, 0
6, 192720, Note_on_c, 1, 88, 84
6, 192839, Note_on_c, 1, 88, 0
6, 193080, Note_on_c, 1, 88, 84
6, 193131, Note_on_c, 1, 88, 0
6, 193140, Note_on_c, 1, 88, 84
6, 193191, Note_on_c, 1, 88, 0
6, 193200, Note_on_c, 1, 88, 84
6, 193319, Note_on_c, 1, 88, 0
6, 193440, Note_on_c, 1, 88, 84
6, 193559, Note_on_c, 1, 88, 0
6, 193680, Note_on_c, 1, 88, 84
6, 193799, Note_on_c, 1, 88, 0
6, 193920, Note_on_c, 1, 88, 84
6, 194039, Note_on_c, 1, 88, 0
6, 194160, Note_on_c, 1, 88, 84
6, 194279, Note_on_c, 1, 88, 0
6, 194400, Note_on_c, 1, 88, 84
6, 194519, Note_on_c, 1, 88, 0
6, 194640, Note_on_c, 1, 88, 84
6, 194759, Note_on_c, 1, 88, 0
6, 194880, Note_on_c, 1, 88, 84
6, 194999, Note_on_c, 1, 88, 0
6, 195120, Note_on_c, 1, 88, 84
6, 195239, Note_on_c, 1, 88, 0
6, 195360, Note_on_c, 1, 88, 84
6, 195479, Note_on_c, 1, 88, 0
6, 195840, Note_on_c, 1, 76, 84
6, 195840, Note_on_c, 1, 88, 84
6, 197399, Note_on_c, 1, 76, 0
6, 197399, Note_on_c, 1, 88, 0
6, 197760, Note_on_c, 1, 88, 84
6, 198000, Note_on_c, 1, 86, 84
6, 198239, Note_on_c, 1, 86, 0
6, 198240, Note_on_c, 1, 85, 84
6, 198479, Note_on_c, 1, 88, 0
6, 198479, Note_on_c, 1, 85, 0
6, 198480, Note_on_c, 1, 88, 84
6, 198480, Note_on_c, 1, 91, 84
6, 198959, Note_on_c, 1, 88, 0
6, 198959, Note_on_c, 1, 91, 0
6, 198960, Note_on_c, 1, 88, 84
6, 198960, Note_on_c, 1, 85, 84
6, 199199, Note_on_c, 1, 88, 0
6, 199199, Note_on_c, 1, 85, 0
6, 199200, Note_on_c, 1, 86, 84
6, 199200, Note_on_c, 1, 89, 84
6, 199319, Note_on_c, 1, 86, 0
6, 199319, Note_on_c, 1, 89, 0
6, 200760, Note_on_c, 1, 85, 84
6, 200819, Note_on_c, 1, 85, 0
6, 200820, Note_on_c, 1, 86, 84
6, 200879, Note_on_c, 1, 86, 0
6, 200880, Note_on_c, 1, 85, 84
6, 200880, Note_on_c, 1, 89, 84
6, 200939, Note_on_c, 1, 89, 0
6, 200940, Note_on_c, 1, 88, 84
6, 200999, Note_on_c, 1, 88, 0
6, 201000, Note_on_c, 1, 86, 84
6, 201059, Note_on_c, 1, 86, 0
6, 201060, Note_on_c, 1, 88, 84
6, 201111, Note_on_c, 1, 88, 0
6, 201119, Note_on_c, 1, 85, 0
6, 201120, Note_on_c, 1, 89, 84
6, 201120, Note_on_c, 1, 86, 84
6, 201239, Note_on_c, 1, 89, 0
6, 201239, Note_on_c, 1, 86, 0
6, 202680, Note_on_c, 1, 85, 84
6, 202739, Note_on_c, 1, 85, 0
6, 202740, Note_on_c, 1, 86, 84
6, 202799, Note_on_c, 1, 86, 0
6, 202800, Note_on_c, 1, 85, 84
6, 202800, Note_on_c, 1, 89, 84
6, 202859, Note_on_c, 1, 89, 0
6, 202860, Note_on_c, 1, 88, 84
6, 202919, Note_on_c, 1, 88, 0
6, 202920, Note_on_c, 1, 86, 84
6, 202979, Note_on_c, 1, 86, 0
6, 202980, Note_on_c, 1, 88, 84
6, 203031, Note_on_c, 1, 88, 0
6, 203039, Note_on_c, 1, 85, 0
6, 203040, Note_on_c, 1, 86, 84
6, 203040, Note_on_c, 1, 89, 84
6, 203159, Note_on_c, 1, 86, 0
6, 203159, Note_on_c, 1, 89, 0
6, 203280, Note_on_c, 1, 86, 84
6, 203280, Note_on_c, 1, 89, 84
6, 203399, Note_on_c, 1, 86, 0
6, 203399, Note_on_c, 1, 89, 0
6, 203520, Note_on_c, 1, 89, 84
6, 203520, Note_on_c, 1, 86, 84
6, 203639, Note_on_c, 1, 89, 0
6, 203639, Note_on_c, 1, 86, 0
6, 203760, Note_on_c, 1, 89, 84
6, 203760, Note_on_c, 1, 86, 84
6, 203879, Note_on_c, 1, 89, 0
6, 203879, Note_on_c, 1, 86, 0
6, 204000, Note_on_c, 1, 91, 84
6, 204000, Note_on_c, 1, 88, 84
6, 204119, Note_on_c, 1, 91, 0
6, 204119, Note_on_c, 1, 88, 0
6, 204240, Note_on_c, 1, 91, 84
6, 204240, Note_on_c, 1, 88, 84
6, 204359, Note_on_c, 1, 91, 0
6, 204359, Note_on_c, 1, 88, 0
6, 204480, Note_on_c, 1, 88, 84
6, 204480, Note_on_c, 1, 91, 84
6, 204599, Note_on_c, 1, 88, 0
6, 204599, Note_on_c, 1, 91, 0
6, 204720, Note_on_c, 1, 88, 84
6, 204720, Note_on_c, 1, 91, 84
6, 204839, Note_on_c, 1, 88, 0
6, 204839, Note_on_c, 1, 91, 0
6, 204960, Note_on_c, 1, 89, 84
6, 204960, Note_on_c, 1, 86, 84
6, 205079, Note_on_c, 1, 89, 0
6, 205079, Note_on_c, 1, 86, 0
6, 205200, Note_on_c, 1, 86, 84
6, 205200, Note_on_c, 1, 89, 84
6, 205319, Note_on_c, 1, 86, 0
6, 205319, Note_on_c, 1, 89, 0
6, 205440, Note_on_c, 1, 86, 84
6, 205440, Note_on_c, 1, 90, 84
6, 205559, Note_on_c, 1, 86, 0
6, 205559, Note_on_c, 1, 90, 0
6, 205680, Note_on_c, 1, 90, 84
6, 205680, Note_on_c, 1, 86, 84
6, 205799, Note_on_c, 1, 90, 0
6, 205799, Note_on_c, 1, 86, 0
6, 205920, Note_on_c, 1, 92, 84
6, 205920, Note_on_c, 1, 86, 84
6, 206039, Note_on_c, 1, 92, 0
6, 206039, Note_on_c, 1, 86, 0
6, 206160, Note_on_c, 1, 86, 84
6, 206279, Note_on_c, 1, 86, 0
6, 206400, Note_on_c, 1, 86, 84
6, 206400, Note_on_c, 1, 89, 84
6, 206519, Note_on_c, 1, 86, 0
6, 206519, Note_on_c, 1, 89, 0
6, 206640, Note_on_c, 1, 86, 84
6, 206640, Note_on_c, 1, 89, 84
6, 206759, Note_on_c, 1, 86, 0
6, 206759, Note_on_c, 1, 89, 0
6, 206880, Note_on_c, 1, 86, 84
6, 206999, Note_on_c, 1, 86, 0
6, 207120, Note_on_c, 1, 86, 84
6, 207239, Note_on_c, 1, 86, 0
6, 207360, Note_on_c, 1, 86, 84
6, 207479, Note_on_c, 1, 86, 0
6, 207600, Note_on_c, 1, 86, 84
6, 207719, Note_on_c, 1, 86, 0
6, 207840, Note_on_c, 1, 86, 84
6, 207929, Note_on_c, 1, 86, 0
6, 208080, Note_on_c, 1, 89, 76
6, 208080, Note_on_c, 1, 86, 76
6, 208169, Note_on_c, 1, 89, 0
6, 208169, Note_on_c, 1, 86, 0
6, 208320, Note_on_c, 1, 74, 52
6, 208320, Note_on_c, 1, 77, 52
6, 208439, Note_on_c, 1, 74, 0
6, 208439, Note_on_c, 1, 77, 0
6, 210000, Note_on_c, 1, 86, 76
6, 210000, Note_on_c, 1, 89, 76
6, 210089, Note_on_c, 1, 86, 0
6, 210089, Note_on_c, 1, 89, 0
6, 210240, Note_on_c, 1, 77, 52
6, 210240, Note_on_c, 1, 74, 52
6, 210359, Note_on_c, 1, 77, 0
6, 210359, Note_on_c, 1, 74, 0
6, 213300, Note_on_c, 1, 83, 52
6, 213359, Note_on_c, 1, 83, 0
6, 213360, Note_on_c, 1, 88, 52
6, 213479, Note_on_c, 1, 88, 0
6, 213540, Note_on_c, 1, 86, 52
6, 213599, Note_on_c, 1, 86, 0
6, 213600, Note_on_c, 1, 85, 52
6, 213771, Note_on_c, 1, 85, 0
6, 213780, Note_on_c, 1, 83, 52
6, 213824, Note_on_c, 1, 83, 0
6, 213840, Note_on_c, 1, 85, 76
6, 214071, Note_on_c, 1, 85, 0
6, 214080, Note_on_c, 1, 83, 52
6, 214251, Note_on_c, 1, 83, 0
6, 214260, Note_on_c, 1, 81, 52
6, 214304, Note_on_c, 1, 81, 0
6, 214320, Note_on_c, 1, 83, 76
6, 214551, Note_on_c, 1, 83, 0
6, 214560, Note_on_c, 1, 81, 52
6, 214731, Note_on_c, 1, 81, 0
6, 214740, Note_on_c, 1, 80, 52
6, 214784, Note_on_c, 1, 80, 0
6, 214800, Note_on_c, 1, 81, 76
6, 215031, Note_on_c, 1, 81, 0
6, 215040, Note_on_c, 1, 83, 52
6, 215211, Note_on_c, 1, 83, 0
6, 215220, Note_on_c, 1, 81, 52
6, 215264, Note_on_c, 1, 81, 0
6, 215280, Note_on_c, 1, 83, 76
6, 215511, Note_on_c, 1, 83, 0
6, 215520, Note_on_c, 1, 85, 52
6, 215639, Note_on_c, 1, 85, 0
6, 217920, Note_on_c, 1, 86, 48
6, 218039, Note_on_c, 1, 86, 0
6, 218100, Note_on_c, 1, 85, 48
6, 218159, Note_on_c, 1, 85, 0
6, 218160, Note_on_c, 1, 83, 48
6, 218279, Note_on_c, 1, 83, 0
6, 218340, Note_on_c, 1, 86, 48
6, 218399, Note_on_c, 1, 86, 0
6, 218400, Note_on_c, 1, 85, 52
6, 218571, Note_on_c, 1, 85, 0
6, 218580, Note_on_c, 1, 83, 52
6, 218624, Note_on_c, 1, 83, 0
6, 218640, Note_on_c, 1, 85, 76
6, 218871, Note_on_c, 1, 85, 0
6, 218880, Note_on_c, 1, 83, 52
6, 219051, Note_on_c, 1, 83, 0
6, 219060, Note_on_c, 1, 81, 52
6, 219104, Note_on_c, 1, 81, 0
6, 219120, Note_on_c, 1, 83, 76
6, 219351, Note_on_c, 1, 83, 0
6, 219360, Note_on_c, 1, 81, 52
6, 219531, Note_on_c, 1, 81, 0
6, 219540, Note_on_c, 1, 80, 52
6, 219584, Note_on_c, 1, 80, 0
6, 219600, Note_on_c, 1, 81, 76
6, 219831, Note_on_c, 1, 81, 0
6, 219840, Note_on_c, 1, 83, 52
6, 220011, Note_on_c, 1, 83, 0
6, 220020, Note_on_c, 1, 81, 52
6, 220064, Note_on_c, 1, 81, 0
6, 220080, Note_on_c, 1, 83, 76
6, 220311, Note_on_c, 1, 83, 0
6, 220320, Note_on_c, 1, 85, 52
6, 220439, Note_on_c, 1, 85, 0
6, 221760, Note_on_c, 1, 83, 48
6, 221879, Note_on_c, 1, 83, 0
6, 221940, Note_on_c, 1, 85, 48
6, 221999, Note_on_c, 1, 85, 0
6, 222000, Note_on_c, 1, 86, 48
6, 222119, Note_on_c, 1, 86, 0
6, 222180, Note_on_c, 1, 83, 48
6, 222239, Note_on_c, 1, 83, 0
6, 222240, Note_on_c, 1, 85, 48
6, 222359, Note_on_c, 1, 85, 0
6, 222420, Note_on_c, 1, 83, 48
6, 222479, Note_on_c, 1, 83, 0
6, 222480, Note_on_c, 1, 81, 48
6, 222599, Note_on_c, 1, 81, 0
6, 222660, Note_on_c, 1, 85, 48
6, 222719, Note_on_c, 1, 85, 0
6, 222720, Note_on_c, 1, 83, 48
6, 222839, Note_on_c, 1, 83, 0
6, 222900, Note_on_c, 1, 85, 48
6, 222959, Note_on_c, 1, 85, 0
6, 222960, Note_on_c, 1, 86, 48
6, 223079, Note_on_c, 1, 86, 0
6, 223140, Note_on_c, 1, 83, 48
6, 223199, Note_on_c, 1, 83, 0
6, 223200, Note_on_c, 1, 85, 48
6, 223319, Note_on_c, 1, 85, 0
6, 223380, Note_on_c, 1, 83, 48
6, 223439, Note_on_c, 1, 83, 0
6, 223440, Note_on_c, 1, 81, 48
6, 223559, Note_on_c, 1, 81, 0
6, 223620, Note_on_c, 1, 85, 48
6, 223679, Note_on_c, 1, 85, 0
6, 223680, Note_on_c, 1, 83, 48
6, 223799, Note_on_c, 1, 83, 0
6, 223860, Note_on_c, 1, 85, 48
6, 223919, Note_on_c, 1, 85, 0
6, 223920, Note_on_c, 1, 86, 48
6, 224039, Note_on_c, 1, 86, 0
6, 224100, Note_on_c, 1, 85, 48
6, 224159, Note_on_c, 1, 85, 0
6, 224160, Note_on_c, 1, 86, 48
6, 224279, Note_on_c, 1, 86, 0
6, 224398, Control_c, 1, 11, 64
6, 224400, Note_on_c, 1, 86, 84
6, 224400, Note_on_c, 1, 83, 84
6, 224488, Control_c, 1, 11, 65
6, 224575, Control_c, 1, 11, 66
6, 224663, Control_c, 1, 11, 67
6, 224750, Control_c, 1, 11, 68
6, 224838, Control_c, 1, 11, 69
6, 224926, Control_c, 1, 11, 70
6, 225013, Control_c, 1, 11, 71
6, 225101, Control_c, 1, 11, 72
6, 225189, Control_c, 1, 11, 73
6, 225276, Control_c, 1, 11, 74
6, 225364, Control_c, 1, 11, 75
6, 225451, Control_c, 1, 11, 76
6, 225539, Control_c, 1, 11, 77
6, 225627, Control_c, 1, 11, 78
6, 225714, Control_c, 1, 11, 79
6, 225802, Control_c, 1, 11, 80
6, 225890, Control_c, 1, 11, 81
6, 225977, Control_c, 1, 11, 82
6, 226065, Control_c, 1, 11, 83
6, 226152, Control_c, 1, 11, 84
6, 226240, Control_c, 1, 11, 85
6, 226328, Control_c, 1, 11, 86
6, 226415, Control_c, 1, 11, 87
6, 226503, Control_c, 1, 11, 88
6, 226544, Note_on_c, 1, 86, 0
6, 226544, Note_on_c, 1, 83, 0
6, 226560, Note_on_c, 1, 85, 84
6, 226560, Note_on_c, 1, 81, 84
6, 226590, Control_c, 1, 11, 89
6, 226678, Control_c, 1, 11, 90
6, 226766, Control_c, 1, 11, 91
6, 226853, Control_c, 1, 11, 92
6, 226941, Control_c, 1, 11, 93
6, 227024, Note_on_c, 1, 85, 0
6, 227024, Note_on_c, 1, 81, 0
6, 227029, Control_c, 1, 11, 94
6, 227040, Note_on_c, 1, 86, 84
6, 227040, Note_on_c, 1, 83, 84
6, 227116, Control_c, 1, 11, 95
6, 227204, Control_c, 1, 11, 96
6, 227291, Control_c, 1, 11, 97
6, 227379, Control_c, 1, 11, 98
6, 227467, Control_c, 1, 11, 99
6, 227554, Control_c, 1, 11, 100
6, 227642, Control_c, 1, 11, 101
6, 227730, Control_c, 1, 11, 102
6, 227817, Control_c, 1, 11, 103
6, 227905, Control_c, 1, 11, 104
6, 227992, Control_c, 1, 11, 105
6, 228080, Control_c, 1, 11, 106
6, 228168, Control_c, 1, 11, 107
6, 228255, Control_c, 1, 11, 108
6, 228343, Control_c, 1, 11, 109
6, 228430, Control_c, 1, 11, 110
6, 228518, Control_c, 1, 11, 111
6, 228606, Control_c, 1, 11, 112
6, 228693, Control_c, 1, 11, 113
6, 228781, Control_c, 1, 11, 114
6, 228869, Control_c, 1, 11, 115
6, 228956, Control_c, 1, 11, 116
6, 229044, Control_c, 1, 11, 117
6, 229131, Control_c, 1, 11, 118
6, 229219, Control_c, 1, 11, 119
6, 229307, Control_c, 1, 11, 120
6, 229394, Control_c, 1, 11, 121
6, 229424, Note_on_c, 1, 86, 0
6, 229424, Note_on_c, 1, 83, 0
6, 229440, Note_on_c, 1, 81, 84
6, 229440, Note_on_c, 1, 85, 84
6, 229482, Control_c, 1, 11, 122
6, 229570, Control_c, 1, 11, 123
6, 229657, Control_c, 1, 11, 124
6, 229679, Note_on_c, 1, 85, 0
6, 229680, Note_on_c, 1, 88, 84
6, 229745, Control_c, 1, 11, 125
6, 229832, Control_c, 1, 11, 127
6, 229904, Note_on_c, 1, 81, 0
6, 229904, Note_on_c, 1, 88, 0
6, 229920, Note_on_c, 1, 88, 84
6, 230024, Note_on_c, 1, 88, 0
6, 230040, Note_on_c, 1, 88, 84
6, 230144, Note_on_c, 1, 88, 0
6, 230160, Note_on_c, 1, 88, 84
6, 230264, Note_on_c, 1, 88, 0
6, 230280, Note_on_c, 1, 88, 84
6, 230384, Note_on_c, 1, 88, 0
6, 230400, Note_on_c, 1, 88, 84
6, 230504, Note_on_c, 1, 88, 0
6, 230520, Note_on_c, 1, 88, 84
6, 230624, Note_on_c, 1, 88, 0
6, 230640, Note_on_c, 1, 88, 84
6, 230744, Note_on_c, 1, 88, 0
6, 230760, Note_on_c, 1, 88, 84
6, 230864, Note_on_c, 1, 88, 0
6, 230880, Note_on_c, 1, 89, 92
6, 230984, Note_on_c, 1, 89, 0
6, 231000, Note_on_c, 1, 89, 84
6, 231104, Note_on_c, 1, 89, 0
6, 231120, Note_on_c, 1, 89, 84
6, 231224, Note_on_c, 1, 89, 0
6, 231240, Note_on_c, 1, 89, 84
6, 231344, Note_on_c, 1, 89, 0
6, 231360, Note_on_c, 1, 88, 92
6, 231464, Note_on_c, 1, 88, 0
6, 231480, Note_on_c, 1, 88, 84
6, 231584, Note_on_c, 1, 88, 0
6, 231600, Note_on_c, 1, 88, 84
6, 231704, Note_on_c, 1, 88, 0
6, 231720, Note_on_c, 1, 88, 84
6, 231824, Note_on_c, 1, 88, 0
6, 231840, Note_on_c, 1, 89, 92
6, 231944, Note_on_c, 1, 89, 0
6, 231960, Note_on_c, 1, 89, 84
6, 232064, Note_on_c, 1, 89, 0
6, 232080, Note_on_c, 1, 89, 84
6, 232184, Note_on_c, 1, 89, 0
6, 232200, Note_on_c, 1, 89, 84
6, 232304, Note_on_c, 1, 89, 0
6, 232320, Note_on_c, 1, 88, 92
6, 232424, Note_on_c, 1, 88, 0
6, 232440, Note_on_c, 1, 88, 84
6, 232544, Note_on_c, 1, 88, 0
6, 232560, Note_on_c, 1, 88, 84
6, 232664, Note_on_c, 1, 88, 0
6, 232680, Note_on_c, 1, 88, 84
6, 232784, Note_on_c, 1, 88, 0
6, 232800, Note_on_c, 1, 88, 92
6, 232904, Note_on_c, 1, 88, 0
6, 232920, Note_on_c, 1, 88, 84
6, 233024, Note_on_c, 1, 88, 0
6, 233040, Note_on_c, 1, 88, 84
6, 233144, Note_on_c, 1, 88, 0
6, 233160, Note_on_c, 1, 88, 84
6, 233264, Note_on_c, 1, 88, 0
6, 233280, Note_on_c, 1, 88, 84
6, 233384, Note_on_c, 1, 88, 0
6, 233400, Note_on_c, 1, 88, 84
6, 233504, Note_on_c, 1, 88, 0
6, 233520, Note_on_c, 1, 88, 84
6, 233624, Note_on_c, 1, 88, 0
6, 233640, Note_on_c, 1, 88, 84
6, 233744, Note_on_c, 1, 88, 0
6, 233760, Note_on_c, 1, 89, 92
6, 233864, Note_on_c, 1, 89, 0
6, 233880, Note_on_c, 1, 89, 84
6, 233984, Note_on_c, 1, 89, 0
6, 234000, Note_on_c, 1, 89, 84
6, 234104, Note_on_c, 1, 89, 0
6, 234120, Note_on_c, 1, 89, 84
6, 234224, Note_on_c, 1, 89, 0
6, 234240, Note_on_c, 1, 88, 92
6, 234344, Note_on_c, 1, 88, 0
6, 234360, Note_on_c, 1, 88, 84
6, 234464, Note_on_c, 1, 88, 0
6, 234480, Note_on_c, 1, 88, 84
6, 234584, Note_on_c, 1, 88, 0
6, 234600, Note_on_c, 1, 88, 84
6, 234704, Note_on_c, 1, 88, 0
6, 234720, Note_on_c, 1, 89, 92
6, 234824, Note_on_c, 1, 89, 0
6, 234840, Note_on_c, 1, 89, 84
6, 234944, Note_on_c, 1, 89, 0
6, 234960, Note_on_c, 1, 89, 84
6, 235064, Note_on_c, 1, 89, 0
6, 235080, Note_on_c, 1, 89, 84
6, 235184, Note_on_c, 1, 89, 0
6, 235200, Note_on_c, 1, 87, 92
6, 235304, Note_on_c, 1, 87, 0
6, 235320, Note_on_c, 1, 87, 84
6, 235424, Note_on_c, 1, 87, 0
6, 235440, Note_on_c, 1, 87, 84
6, 235544, Note_on_c, 1, 87, 0
6, 235560, Note_on_c, 1, 87, 84
6, 235664, Note_on_c, 1, 87, 0
6, 235680, Note_on_c, 1, 88, 92
6, 235784, Note_on_c, 1, 88, 0
6, 235800, Note_on_c, 1, 88, 84
6, 235904, Note_on_c, 1, 88, 0
6, 235920, Note_on_c, 1, 88, 84
6, 236024, Note_on_c, 1, 88, 0
6, 236040, Note_on_c, 1, 88, 84
6, 236144, Note_on_c, 1, 88, 0
6, 236160, Note_on_c, 1, 88, 92
6, 236264, Note_on_c, 1, 88, 0
6, 236280, Note_on_c, 1, 88, 84
6, 236384, Note_on_c, 1, 88, 0
6, 236400, Note_on_c, 1, 88, 84
6, 236504, Note_on_c, 1, 88, 0
6, 236520, Note_on_c, 1, 88, 84
6, 236624, Note_on_c, 1, 88, 0
6, 236640, Note_on_c, 1, 88, 84
6, 236744, Note_on_c, 1, 88, 0
6, 236760, Note_on_c, 1, 88, 84
6, 236864, Note_on_c, 1, 88, 0
6, 236880, Note_on_c, 1, 89, 92
6, 236984, Note_on_c, 1, 89, 0
6, 237000, Note_on_c, 1, 89, 84
6, 237104, Note_on_c, 1, 89, 0
6, 237120, Note_on_c, 1, 89, 84
6, 237224, Note_on_c, 1, 89, 0
6, 237240, Note_on_c, 1, 89, 84
6, 237344, Note_on_c, 1, 89, 0
6, 237360, Note_on_c, 1, 89, 84
6, 237464, Note_on_c, 1, 89, 0
6, 237480, Note_on_c, 1, 89, 84
6, 237584, Note_on_c, 1, 89, 0
6, 237600, Note_on_c, 1, 88, 84
6, 237704, Note_on_c, 1, 88, 0
6, 237720, Note_on_c, 1, 88, 84
6, 237824, Note_on_c, 1, 88, 0
6, 237840, Note_on_c, 1, 89, 92
6, 237944, Note_on_c, 1, 89, 0
6, 237960, Note_on_c, 1, 89, 84
6, 238064, Note_on_c, 1, 89, 0
6, 238080, Note_on_c, 1, 89, 84
6, 238184, Note_on_c, 1, 89, 0
6, 238200, Note_on_c, 1, 89, 84
6, 238304, Note_on_c, 1, 89, 0
6, 238320, Note_on_c, 1, 89, 84
6, 238424, Note_on_c, 1, 89, 0
6, 238440, Note_on_c, 1, 89, 84
6, 238544, Note_on_c, 1, 89, 0
6, 238560, Note_on_c, 1, 88, 84
6, 238664, Note_on_c, 1, 88, 0
6, 238680, Note_on_c, 1, 88, 84
6, 238784, Note_on_c, 1, 88, 0
6, 238800, Note_on_c, 1, 89, 92
6, 238904, Note_on_c, 1, 89, 0
6, 238920, Note_on_c, 1, 89, 84
6, 239024, Note_on_c, 1, 89, 0
6, 239040, Note_on_c, 1, 88, 84
6, 239144, Note_on_c, 1, 88, 0
6, 239160, Note_on_c, 1, 88, 84
6, 239264, Note_on_c, 1, 88, 0
6, 239280, Note_on_c, 1, 89, 92
6, 239384, Note_on_c, 1, 89, 0
6, 239400, Note_on_c, 1, 89, 84
6, 239504, Note_on_c, 1, 89, 0
6, 239520, Note_on_c, 1, 88, 84
6, 239624, Note_on_c, 1, 88, 0
6, 239640, Note_on_c, 1, 88, 84
6, 239744, Note_on_c, 1, 88, 0
6, 239760, Note_on_c, 1, 89, 92
6, 239864, Note_on_c, 1, 89, 0
6, 239880, Note_on_c, 1, 89, 84
6, 239984, Note_on_c, 1, 89, 0
6, 240000, Note_on_c, 1, 88, 84
6, 240104, Note_on_c, 1, 88, 0
6, 240120, Note_on_c, 1, 88, 84
6, 240224, Note_on_c, 1, 88, 0
6, 240240, Note_on_c, 1, 88, 84
6, 240344, Note_on_c, 1, 88, 0
6, 240360, Note_on_c, 1, 88, 84
6, 240464, Note_on_c, 1, 88, 0
6, 240480, Note_on_c, 1, 88, 84
6, 240584, Note_on_c, 1, 88, 0
6, 240600, Note_on_c, 1, 81, 84
6, 240600, Note_on_c, 1, 93, 84
6, 240651, Note_on_c, 1, 81, 0
6, 240651, Note_on_c, 1, 93, 0
6, 240660, Note_on_c, 1, 93, 84
6, 240660, Note_on_c, 1, 81, 84
6, 240711, Note_on_c, 1, 93, 0
6, 240711, Note_on_c, 1, 81, 0
6, 240720, Note_on_c, 1, 81, 84
6, 240720, Note_on_c, 1, 93, 84
6, 240839, Note_on_c, 1, 81, 0
6, 240839, Note_on_c, 1, 93, 0
6, 241560, Note_on_c, 1, 91, 84
6, 241560, Note_on_c, 1, 88, 84
6, 241611, Note_on_c, 1, 91, 0
6, 241611, Note_on_c, 1, 88, 0
6, 241620, Note_on_c, 1, 91, 84
6, 241620, Note_on_c, 1, 88, 84
6, 241671, Note_on_c, 1, 91, 0
6, 241671, Note_on_c, 1, 88, 0
6, 241680, Note_on_c, 1, 88, 84
6, 241680, Note_on_c, 1, 91, 84
6, 241799, Note_on_c, 1, 88, 0
6, 241799, Note_on_c, 1, 91, 0
6, 242520, Note_on_c, 1, 88, 84
6, 242520, Note_on_c, 1, 91, 84
6, 242571, Note_on_c, 1, 88, 0
6, 242571, Note_on_c, 1, 91, 0
6, 242580, Note_on_c, 1, 88, 84
6, 242580, Note_on_c, 1, 91, 84
6, 242631, Note_on_c, 1, 88, 0
6, 242631, Note_on_c, 1, 91, 0
6, 242640, Note_on_c, 1, 88, 84
6, 242640, Note_on_c, 1, 91, 84
6, 242759, Note_on_c, 1, 88, 0
6, 242759, Note_on_c, 1, 91, 0
6, 243000, Note_on_c, 1, 88, 84
6, 243000, Note_on_c, 1, 91, 84
6, 243051, Note_on_c, 1, 88, 0
6, 243051, Note_on_c, 1, 91, 0
6, 243060, Note_on_c, 1, 88, 84
6, 243060, Note_on_c, 1, 91, 84
6, 243111, Note_on_c, 1, 88, 0
6, 243111, Note_on_c, 1, 91, 0
6, 243120, Note_on_c, 1, 91, 84
6, 243120, Note_on_c, 1, 88, 84
6, 243239, Note_on_c, 1, 91, 0
6, 243239, Note_on_c, 1, 88, 0
6, 243480, Note_on_c, 1, 91, 84
6, 243480, Note_on_c, 1, 88, 84
6, 243531, Note_on_c, 1, 91, 0
6, 243531, Note_on_c, 1, 88, 0
6, 243540, Note_on_c, 1, 88, 84
6, 243540, Note_on_c, 1, 91, 84
6, 243591, Note_on_c, 1, 88, 0
6, 243591, Note_on_c, 1, 91, 0
6, 243600, Note_on_c, 1, 91, 84
6, 243600, Note_on_c, 1, 88, 84
6, 243719, Note_on_c, 1, 91, 0
6, 243719, Note_on_c, 1, 88, 0
6, 243960, Note_on_c, 1, 88, 84
6, 243960, Note_on_c, 1, 91, 84
6, 244011, Note_on_c, 1, 88, 0
6, 244011, Note_on_c, 1, 91, 0
6, 244020, Note_on_c, 1, 88, 84
6, 244020, Note_on_c, 1, 91, 84
6, 244071, Note_on_c, 1, 88, 0
6, 244071, Note_on_c, 1, 91, 0
6, 244080, Note_on_c, 1, 91, 84
6, 244080, Note_on_c, 1, 88, 84
6, 244199, Note_on_c, 1, 91, 0
6, 244199, Note_on_c, 1, 88, 0
6, 244320, Note_on_c, 1, 90, 84
6, 244320, Note_on_c, 1, 85, 84
6, 244439, Note_on_c, 1, 90, 0
6, 244439, Note_on_c, 1, 85, 0
6, 245880, Note_on_c, 1, 82, 76
6, 245939, Note_on_c, 1, 82, 0
6, 245940, Note_on_c, 1, 83, 76
6, 245999, Note_on_c, 1, 83, 0
6, 246000, Note_on_c, 1, 82, 76
6, 246000, Note_on_c, 1, 86, 76
6, 246059, Note_on_c, 1, 86, 0
6, 246060, Note_on_c, 1, 85, 76
6, 246119, Note_on_c, 1, 85, 0
6, 246120, Note_on_c, 1, 83, 76
6, 246179, Note_on_c, 1, 83, 0
6, 246180, Note_on_c, 1, 85, 76
6, 246231, Note_on_c, 1, 85, 0
6, 246239, Note_on_c, 1, 82, 0
6, 246240, Note_on_c, 1, 86, 76
6, 246240, Note_on_c, 1, 83, 76
6, 246359, Note_on_c, 1, 86, 0
6, 246359, Note_on_c, 1, 83, 0
6, 247800, Note_on_c, 1, 82, 76
6, 247859, Note_on_c, 1, 82, 0
6, 247860, Note_on_c, 1, 83, 76
6, 247919, Note_on_c, 1, 83, 0
6, 247920, Note_on_c, 1, 82, 76
6, 247920, Note_on_c, 1, 86, 76
6, 247979, Note_on_c, 1, 86, 0
6, 247980, Note_on_c, 1, 85, 76
6, 248039, Note_on_c, 1, 85, 0
6, 248040, Note_on_c, 1, 83, 76
6, 248099, Note_on_c, 1, 83, 0
6, 248100, Note_on_c, 1, 85, 76
6, 248151, Note_on_c, 1, 85, 0
6, 248159, Note_on_c, 1, 82, 0
6, 248160, Note_on_c, 1, 83, 76
6, 248160, Note_on_c, 1, 86, 76
6, 248279, Note_on_c, 1, 83, 0
6, 248279, Note_on_c, 1, 86, 0
6, 252480, Note_on_c, 1, 86, 76
6, 255104, Note_on_c, 1, 86, 0
6, 255120, Note_on_c, 1, 86, 76
6, 255120, Note_on_c, 1, 89, 76
6, 256064, Note_on_c, 1, 86, 0
6, 256064, Note_on_c, 1, 89, 0
6, 256080, Note_on_c, 1, 84, 76
6, 256080, Note_on_c, 1, 87, 76
6, 256799, Note_on_c, 1, 84, 0
6, 256799, Note_on_c, 1, 87, 0
6, 256800, Note_on_c, 1, 87, 76
6, 256800, Note_on_c, 1, 84, 76
6, 258239, Note_on_c, 1, 87, 0
6, 258239, Note_on_c, 1, 84, 0
6, 258240, Note_on_c, 1, 87, 76
6, 258240, Note_on_c, 1, 84, 76
6, 258944, Note_on_c, 1, 87, 0
6, 258944, Note_on_c, 1, 84, 0
6, 258960, Note_on_c, 1, 82, 76
6, 258960, Note_on_c, 1, 85, 76
6, 260864, Note_on_c, 1, 82, 0
6, 260864, Note_on_c, 1, 85, 0
6, 260880, Note_on_c, 1, 81, 76
6, 260880, Note_on_c, 1, 84, 76
6, 261599, Note_on_c, 1, 81, 0
6, 261599, Note_on_c, 1, 84, 0
6, 261600, Note_on_c, 1, 81, 76
6, 261600, Note_on_c, 1, 84, 76
6, 263519, Note_on_c, 1, 81, 0
6, 263519, Note_on_c, 1, 84, 0
6, 263520, Note_on_c, 1, 81, 76
6, 263520, Note_on_c, 1, 84, 76
6, 264464, Note_on_c, 1, 81, 0
6, 264464, Note_on_c, 1, 84, 0
6, 264480, Note_on_c, 1, 86, 77
6, 264480, Note_on_c, 1, 83, 77
6, 265424, Note_on_c, 1, 86, 0
6, 265424, Note_on_c, 1, 83, 0
6, 265440, Note_on_c, 1, 85, 78
6, 265440, Note_on_c, 1, 81, 78
6, 266384, Note_on_c, 1, 85, 0
6, 266384, Note_on_c, 1, 81, 0
6, 266400, Note_on_c, 1, 86, 79
6, 266400, Note_on_c, 1, 83, 79
6, 267344, Note_on_c, 1, 86, 0
6, 267344, Note_on_c, 1, 83, 0
6, 267360, Note_on_c, 1, 85, 80
6, 267360, Note_on_c, 1, 88, 80
6, 267599, Note_on_c, 1, 85, 0
6, 267600, Note_on_c, 1, 76, 80
6, 269279, Note_on_c, 1, 88, 0
6, 269279, Note_on_c, 1, 76, 0
6, 269280, Note_on_c, 1, 88, 82
6, 269280, Note_on_c, 1, 76, 82
6, 271184, Note_on_c, 1, 88, 0
6, 271184, Note_on_c, 1, 76, 0
6, 271200, Note_on_c, 1, 81, 84
6, 271200, Note_on_c, 1, 85, 84
6, 271304, Note_on_c, 1, 81, 0
6, 271304, Note_on_c, 1, 85, 0
6, 271320, Note_on_c, 1, 81, 84
6, 271371, Note_on_c, 1, 81, 0
6, 271380, Note_on_c, 1, 81, 84
6, 271431, Note_on_c, 1, 81, 0
6, 271440, Note_on_c, 1, 81, 84
6, 271559, Note_on_c, 1, 81, 0
6, 271800, Note_on_c, 1, 81, 84
6, 271851, Note_on_c, 1, 81, 0
6, 271860, Note_on_c, 1, 81, 84
6, 271911, Note_on_c, 1, 81, 0
6, 271920, Note_on_c, 1, 81, 84
6, 272039, Note_on_c, 1, 81, 0
6, 272280, Note_on_c, 1, 86, 84
6, 272280, Note_on_c, 1, 83, 84
6, 272331, Note_on_c, 1, 86, 0
6, 272331, Note_on_c, 1, 83, 0
6, 272340, Note_on_c, 1, 86, 84
6, 272340, Note_on_c, 1, 83, 84
6, 272391, Note_on_c, 1, 86, 0
6, 272391, Note_on_c, 1, 83, 0
6, 272400, Note_on_c, 1, 86, 84
6, 272400, Note_on_c, 1, 83, 84
6, 272519, Note_on_c, 1, 86, 0
6, 272519, Note_on_c, 1, 83, 0
6, 272760, Note_on_c, 1, 86, 84
6, 272760, Note_on_c, 1, 83, 84
6, 272811, Note_on_c, 1, 86, 0
6, 272811, Note_on_c, 1, 83, 0
6, 272820, Note_on_c, 1, 83, 84
6, 272820, Note_on_c, 1, 86, 84
6, 272871, Note_on_c, 1, 83, 0
6, 272871, Note_on_c, 1, 86, 0
6, 272880, Note_on_c, 1, 83, 84
6, 272880, Note_on_c, 1, 86, 84
6, 272999, Note_on_c, 1, 83, 0
6, 272999, Note_on_c, 1, 86, 0
6, 273120, Note_on_c, 1, 76, 92
6, 273120, Note_on_c, 1, 85, 92
6, 273464, Note_on_c, 1, 76, 0
6, 273464, Note_on_c, 1, 85, 0
6, 273480, Note_on_c, 1, 83, 84
6, 273480, Note_on_c, 1, 74, 84
6, 273584, Note_on_c, 1, 83, 0
6, 273584, Note_on_c, 1, 74, 0
6, 273600, Note_on_c, 1, 81, 84
6, 273600, Note_on_c, 1, 73, 84
6, 273704, Note_on_c, 1, 81, 0
6, 273704, Note_on_c, 1, 73, 0
6, 273720, Note_on_c, 1, 88, 84
6, 273824, Note_on_c, 1, 88, 0
6, 273840, Note_on_c, 1, 86, 84
6, 273840, Note_on_c, 1, 88, 84
6, 273944, Note_on_c, 1, 86, 0
6, 273944, Note_on_c, 1, 88, 0
6, 273960, Note_on_c, 1, 93, 84
6, 273960, Note_on_c, 1, 85, 84
6, 274064, Note_on_c, 1, 93, 0
6, 274064, Note_on_c, 1, 85, 0
6, 274080, Note_on_c, 1, 83, 84
6, 274080, Note_on_c, 1, 92, 84
6, 274184, Note_on_c, 1, 83, 0
6, 274184, Note_on_c, 1, 92, 0
6, 274200, Note_on_c, 1, 85, 84
6, 274200, Note_on_c, 1, 93, 84
6, 274304, Note_on_c, 1, 85, 0
6, 274304, Note_on_c, 1, 93, 0
6, 274320, Note_on_c, 1, 92, 84
6, 274320, Note_on_c, 1, 83, 84
6, 274424, Note_on_c, 1, 92, 0
6, 274424, Note_on_c, 1, 83, 0
6, 274440, Note_on_c, 1, 86, 84
6, 274440, Note_on_c, 1, 90, 84
6, 274544, Note_on_c, 1, 86, 0
6, 274544, Note_on_c, 1, 90, 0
6, 274560, Note_on_c, 1, 85, 84
6, 274560, Note_on_c, 1, 88, 84
6, 274664, Note_on_c, 1, 85, 0
6, 274664, Note_on_c, 1, 88, 0
6, 274680, Note_on_c, 1, 86, 84
6, 274680, Note_on_c, 1, 83, 84
6, 274784, Note_on_c, 1, 86, 0
6, 274784, Note_on_c, 1, 83, 0
6, 274800, Note_on_c, 1, 85, 84
6, 274800, Note_on_c, 1, 81, 84
6, 274904, Note_on_c, 1, 85, 0
6, 274904, Note_on_c, 1, 81, 0
6, 274920, Note_on_c, 1, 80, 84
6, 274920, Note_on_c, 1, 83, 84
6, 275024, Note_on_c, 1, 80, 0
6, 275024, Note_on_c, 1, 83, 0
6, 275040, Note_on_c, 1, 85, 84
6, 275040, Note_on_c, 1, 81, 84
6, 275144, Note_on_c, 1, 85, 0
6, 275144, Note_on_c, 1, 81, 0
6, 275160, Note_on_c, 1, 81, 84
6, 275211, Note_on_c, 1, 81, 0
6, 275220, Note_on_c, 1, 81, 84
6, 275271, Note_on_c, 1, 81, 0
6, 275280, Note_on_c, 1, 81, 84
6, 275399, Note_on_c, 1, 81, 0
6, 275640, Note_on_c, 1, 81, 84
6, 275691, Note_on_c, 1, 81, 0
6, 275700, Note_on_c, 1, 81, 84
6, 275751, Note_on_c, 1, 81, 0
6, 275760, Note_on_c, 1, 81, 84
6, 275879, Note_on_c, 1, 81, 0
6, 276120, Note_on_c, 1, 86, 84
6, 276120, Note_on_c, 1, 83, 84
6, 276171, Note_on_c, 1, 86, 0
6, 276171, Note_on_c, 1, 83, 0
6, 276180, Note_on_c, 1, 83, 84
6, 276180, Note_on_c, 1, 86, 84
6, 276231, Note_on_c, 1, 83, 0
6, 276231, Note_on_c, 1, 86, 0
6, 276240, Note_on_c, 1, 83, 84
6, 276240, Note_on_c, 1, 86, 84
6, 276359, Note_on_c, 1, 83, 0
6, 276359, Note_on_c, 1, 86, 0
6, 276600, Note_on_c, 1, 83, 84
6, 276600, Note_on_c, 1, 86, 84
6, 276651, Note_on_c, 1, 83, 0
6, 276651, Note_on_c, 1, 86, 0
6, 276660, Note_on_c, 1, 86, 84
6, 276660, Note_on_c, 1, 83, 84
6, 276711, Note_on_c, 1, 86, 0
6, 276711, Note_on_c, 1, 83, 0
6, 276720, Note_on_c, 1, 83, 84
6, 276720, Note_on_c, 1, 86, 84
6, 276839, Note_on_c, 1, 83, 0
6, 276839, Note_on_c, 1, 86, 0
6, 276960, Note_on_c, 1, 81, 84
6, 276960, Note_on_c, 1, 85, 84
6, 277079, Note_on_c, 1, 81, 0
6, 277079, Note_on_c, 1, 85, 0
6, 277200, Note_on_c, 1, 81, 84
6, 277200, Note_on_c, 1, 85, 84
6, 277319, Note_on_c, 1, 81, 0
6, 277319, Note_on_c, 1, 85, 0
6, 277440, Note_on_c, 1, 85, 84
6, 277440, Note_on_c, 1, 81, 84
6, 277559, Note_on_c, 1, 85, 0
6, 277559, Note_on_c, 1, 81, 0
6, 277680, Note_on_c, 1, 81, 84
6, 277680, Note_on_c, 1, 85, 84
6, 277799, Note_on_c, 1, 81, 0
6, 277799, Note_on_c, 1, 85, 0
6, 277920, Note_on_c, 1, 83, 84
6, 277920, Note_on_c, 1, 80, 84
6, 278039, Note_on_c, 1, 83, 0
6, 278039, Note_on_c, 1, 80, 0
6, 278160, Note_on_c, 1, 80, 84
6, 278160, Note_on_c, 1, 83, 84
6, 278279, Note_on_c, 1, 80, 0
6, 278279, Note_on_c, 1, 83, 0
6, 278400, Note_on_c, 1, 80, 84
6, 278400, Note_on_c, 1, 83, 84
6, 278519, Note_on_c, 1, 80, 0
6, 278519, Note_on_c, 1, 83, 0
6, 278640, Note_on_c, 1, 80, 84
6, 278640, Note_on_c, 1, 83, 84
6, 278759, Note_on_c, 1, 80, 0
6, 278759, Note_on_c, 1, 83, 0
6, 278880, Note_on_c, 1, 85, 84
6, 278880, Note_on_c, 1, 81, 84
6, 278999, Note_on_c, 1, 85, 0
6, 278999, Note_on_c, 1, 81, 0
6, 279120, Note_on_c, 1, 81, 84
6, 279120, Note_on_c, 1, 85, 84
6, 279239, Note_on_c, 1, 81, 0
6, 279239, Note_on_c, 1, 85, 0
6, 279360, Note_on_c, 1, 81, 84
6, 279360, Note_on_c, 1, 85, 84
6, 279479, Note_on_c, 1, 81, 0
6, 279479, Note_on_c, 1, 85, 0
6, 279600, Note_on_c, 1, 85, 84
6, 279600, Note_on_c, 1, 81, 84
6, 279719, Note_on_c, 1, 85, 0
6, 279719, Note_on_c, 1, 81, 0
6, 279840, Note_on_c, 1, 83, 84
6, 279840, Note_on_c, 1, 86, 84
6, 279959, Note_on_c, 1, 83, 0
6, 279959, Note_on_c, 1, 86, 0
6, 280080, Note_on_c, 1, 83, 84
6, 280080, Note_on_c, 1, 86, 84
6, 280199, Note_on_c, 1, 83, 0
6, 280199, Note_on_c, 1, 86, 0
6, 280320, Note_on_c, 1, 83, 84
6, 280320, Note_on_c, 1, 86, 84
6, 280439, Note_on_c, 1, 83, 0
6, 280439, Note_on_c, 1, 86, 0
6, 280560, Note_on_c, 1, 83, 84
6, 280560, Note_on_c, 1, 86, 84
6, 280679, Note_on_c, 1, 83, 0
6, 280679, Note_on_c, 1, 86, 0
6, 280800, Note_on_c, 1, 88, 84
6, 280919, Note_on_c, 1, 88, 0
6, 281040, Note_on_c, 1, 88, 84
6, 281159, Note_on_c, 1, 88, 0
6, 281280, Note_on_c, 1, 88, 84
6, 281399, Note_on_c, 1, 88, 0
6, 281520, Note_on_c, 1, 88, 84
6, 281639, Note_on_c, 1, 88, 0
6, 281760, Note_on_c, 1, 91, 92
6, 282704, Note_on_c, 1, 91, 0
6, 282720, Note_on_c, 1, 90, 92
6, 282824, Note_on_c, 1, 90, 0
6, 282840, Note_on_c, 1, 88, 92
6, 282944, Note_on_c, 1, 88, 0
6, 282960, Note_on_c, 1, 86, 92
6, 283064, Note_on_c, 1, 86, 0
6, 283080, Note_on_c, 1, 85, 92
6, 283184, Note_on_c, 1, 85, 0
6, 283200, Note_on_c, 1, 83, 92
6, 283304, Note_on_c, 1, 83, 0
6, 283320, Note_on_c, 1, 81, 92
6, 283424, Note_on_c, 1, 81, 0
6, 283440, Note_on_c, 1, 79, 92
6, 283544, Note_on_c, 1, 79, 0
6, 283560, Note_on_c, 1, 90, 92
6, 283664, Note_on_c, 1, 90, 0
6, 283680, Note_on_c, 1, 88, 92
6, 284129, Note_on_c, 1, 88, 0
6, 284160, Note_on_c, 1, 86, 92
6, 284160, Note_on_c, 1, 90, 92
6, 284609, Note_on_c, 1, 86, 0
6, 284609, Note_on_c, 1, 90, 0
6, 284640, Note_on_c, 1, 85, 92
6, 284640, Note_on_c, 1, 88, 92
6, 285089, Note_on_c, 1, 85, 0
6, 285089, Note_on_c, 1, 88, 0
6, 285120, Note_on_c, 1, 83, 92
6, 285120, Note_on_c, 1, 88, 92
6, 285569, Note_on_c, 1, 83, 0
6, 285569, Note_on_c, 1, 88, 0
6, 285600, Note_on_c, 1, 83, 52
6, 285704, Note_on_c, 1, 83, 0
6, 285720, Note_on_c, 1, 81, 52
6, 285824, Note_on_c, 1, 81, 0
6, 285840, Note_on_c, 1, 80, 52
6, 285944, Note_on_c, 1, 80, 0
6, 285960, Note_on_c, 1, 78, 52
6, 286064, Note_on_c, 1, 78, 0
6, 286080, Note_on_c, 1, 76, 52
6, 286184, Note_on_c, 1, 76, 0
6, 286200, Note_on_c, 1, 74, 53
6, 286304, Note_on_c, 1, 74, 0
6, 286320, Note_on_c, 1, 73, 54
6, 286424, Note_on_c, 1, 73, 0
6, 286440, Note_on_c, 1, 71, 56
6, 286544, Note_on_c, 1, 71, 0
6, 286560, Note_on_c, 1, 73, 57
6, 286664, Note_on_c, 1, 73, 0
6, 286680, Note_on_c, 1, 74, 59
6, 286784, Note_on_c, 1, 74, 0
6, 286800, Note_on_c, 1, 76, 60
6, 286904, Note_on_c, 1, 76, 0
6, 286920, Note_on_c, 1, 78, 62
6, 287024, Note_on_c, 1, 78, 0
6, 287040, Note_on_c, 1, 80, 63
6, 287144, Note_on_c, 1, 80, 0
6, 287160, Note_on_c, 1, 81, 64
6, 287264, Note_on_c, 1, 81, 0
6, 287280, Note_on_c, 1, 83, 66
6, 287384, Note_on_c, 1, 83, 0
6, 287400, Note_on_c, 1, 85, 67
6, 287504, Note_on_c, 1, 85, 0
6, 287520, Note_on_c, 1, 86, 69
6, 287624, Note_on_c, 1, 86, 0
6, 287640, Note_on_c, 1, 85, 70
6, 287744, Note_on_c, 1, 85, 0
6, 287760, Note_on_c, 1, 83, 72
6, 287864, Note_on_c, 1, 83, 0
6, 287880, Note_on_c, 1, 81, 73
6, 287984, Note_on_c, 1, 81, 0
6, 288000, Note_on_c, 1, 80, 74
6, 288104, Note_on_c, 1, 80, 0
6, 288120, Note_on_c, 1, 78, 76
6, 288224, Note_on_c, 1, 78, 0
6, 288240, Note_on_c, 1, 76, 77
6, 288344, Note_on_c, 1, 76, 0
6, 288360, Note_on_c, 1, 74, 79
6, 288464, Note_on_c, 1, 74, 0
6, 288480, Note_on_c, 1, 76, 80
6, 288584, Note_on_c, 1, 76, 0
6, 288600, Note_on_c, 1, 78, 82
6, 288704, Note_on_c, 1, 78, 0
6, 288720, Note_on_c, 1, 80, 83
6, 288824, Note_on_c, 1, 80, 0
6, 288840, Note_on_c, 1, 81, 84
6, 288944, Note_on_c, 1, 81, 0
6, 288960, Note_on_c, 1, 83, 86
6, 289064, Note_on_c, 1, 83, 0
6, 289080, Note_on_c, 1, 85, 87
6, 289184, Note_on_c, 1, 85, 0
6, 289200, Note_on_c, 1, 86, 89
6, 289304, Note_on_c, 1, 86, 0
6, 289320, Note_on_c, 1, 88, 90
6, 289424, Note_on_c, 1, 88, 0
6, 289440, Note_on_c, 1, 91, 92
6, 290384, Note_on_c, 1, 91, 0
6, 290400, Note_on_c, 1, 90, 92
6, 290504, Note_on_c, 1, 90, 0
6, 290520, Note_on_c, 1, 88, 92
6, 290624, Note_on_c, 1, 88, 0
6, 290640, Note_on_c, 1, 86, 92
6, 290744, Note_on_c, 1, 86, 0
6, 290760, Note_on_c, 1, 85, 92
6, 290864, Note_on_c, 1, 85, 0
6, 290880, Note_on_c, 1, 83, 92
6, 290984, Note_on_c, 1, 83, 0
6, 291000, Note_on_c, 1, 81, 92
6, 291104, Note_on_c, 1, 81, 0
6, 291120, Note_on_c, 1, 79, 92
6, 291224, Note_on_c, 1, 79, 0
6, 291240, Note_on_c, 1, 90, 92
6, 291344, Note_on_c, 1, 90, 0
6, 291360, Note_on_c, 1, 88, 92
6, 291809, Note_on_c, 1, 88, 0
6, 291840, Note_on_c, 1, 86, 92
6, 291840, Note_on_c, 1, 90, 92
6, 292289, Note_on_c, 1, 86, 0
6, 292289, Note_on_c, 1, 90, 0
6, 292320, Note_on_c, 1, 88, 92
6, 292320, Note_on_c, 1, 85, 92
6, 292769, Note_on_c, 1, 88, 0
6, 292769, Note_on_c, 1, 85, 0
6, 292800, Note_on_c, 1, 88, 92
6, 292800, Note_on_c, 1, 83, 92
6, 293249, Note_on_c, 1, 88, 0
6, 293249, Note_on_c, 1, 83, 0
6, 293280, Note_on_c, 1, 81, 84
6, 293399, Note_on_c, 1, 81, 0
6, 293760, Note_on_c, 1, 88, 92
6, 293999, Note_on_c, 1, 88, 0
6, 294000, Note_on_c, 1, 86, 84
6, 294239, Note_on_c, 1, 86, 0
6, 294240, Note_on_c, 1, 85, 84
6, 294479, Note_on_c, 1, 85, 0
6, 294480, Note_on_c, 1, 83, 84
6, 294719, Note_on_c, 1, 83, 0
6, 294720, Note_on_c, 1, 81, 84
6, 294959, Note_on_c, 1, 81, 0
6, 294960, Note_on_c, 1, 83, 84
6, 295199, Note_on_c, 1, 83, 0
6, 295200, Note_on_c, 1, 85, 84
6, 295319, Note_on_c, 1, 85, 0
6, 295680, Note_on_c, 1, 88, 92
6, 295919, Note_on_c, 1, 88, 0
6, 295920, Note_on_c, 1, 86, 84
6, 296159, Note_on_c, 1, 86, 0
6, 296160, Note_on_c, 1, 85, 84
6, 296399, Note_on_c, 1, 85, 0
6, 296400, Note_on_c, 1, 83, 84
6, 296639, Note_on_c, 1, 83, 0
6, 296640, Note_on_c, 1, 81, 84
6, 296879, Note_on_c, 1, 81, 0
6, 296880, Note_on_c, 1, 83, 84
6, 297104, Note_on_c, 1, 83, 0
6, 297120, Note_on_c, 1, 83, 84
6, 297224, Note_on_c, 1, 83, 0
6, 297240, Note_on_c, 1, 83, 84
6, 297344, Note_on_c, 1, 83, 0
6, 297360, Note_on_c, 1, 83, 92
6, 297464, Note_on_c, 1, 83, 0
6, 297480, Note_on_c, 1, 83, 84
6, 297584, Note_on_c, 1, 83, 0
6, 297600, Note_on_c, 1, 83, 92
6, 297704, Note_on_c, 1, 83, 0
6, 297720, Note_on_c, 1, 83, 84
6, 297824, Note_on_c, 1, 83, 0
6, 297840, Note_on_c, 1, 83, 92
6, 297944, Note_on_c, 1, 83, 0
6, 297960, Note_on_c, 1, 83, 84
6, 298064, Note_on_c, 1, 83, 0
6, 298080, Note_on_c, 1, 83, 84
6, 298184, Note_on_c, 1, 83, 0
6, 298200, Note_on_c, 1, 83, 84
6, 298304, Note_on_c, 1, 83, 0
6, 298320, Note_on_c, 1, 83, 84
6, 298424, Note_on_c, 1, 83, 0
6, 298440, Note_on_c, 1, 85, 84
6, 298544, Note_on_c, 1, 85, 0
6, 298560, Note_on_c, 1, 86, 84
6, 298664, Note_on_c, 1, 86, 0
6, 298680, Note_on_c, 1, 88, 84
6, 298784, Note_on_c, 1, 88, 0
6, 298800, Note_on_c, 1, 88, 84
6, 298800, Note_on_c, 1, 90, 84
6, 298904, Note_on_c, 1, 88, 0
6, 298904, Note_on_c, 1, 90, 0
6, 298920, Note_on_c, 1, 88, 84
6, 298920, Note_on_c, 1, 92, 84
6, 299024, Note_on_c, 1, 88, 0
6, 299024, Note_on_c, 1, 92, 0
6, 299040, Note_on_c, 1, 93, 84
6, 299040, Note_on_c, 1, 88, 84
6, 299159, Note_on_c, 1, 93, 0
6, 299159, Note_on_c, 1, 88, 0
6, 299400, Note_on_c, 1, 93, 84
6, 299400, Note_on_c, 1, 88, 84
6, 299451, Note_on_c, 1, 93, 0
6, 299451, Note_on_c, 1, 88, 0
6, 299460, Note_on_c, 1, 93, 84
6, 299460, Note_on_c, 1, 88, 84
6, 299511, Note_on_c, 1, 93, 0
6, 299511, Note_on_c, 1, 88, 0
6, 299520, Note_on_c, 1, 93, 84
6, 299520, Note_on_c, 1, 88, 84
6, 299639, Note_on_c, 1, 93, 0
6, 299639, Note_on_c, 1, 88, 0
6, 299880, Note_on_c, 1, 93, 84
6, 299880, Note_on_c, 1, 88, 84
6, 299931, Note_on_c, 1, 93, 0
6, 299931, Note_on_c, 1, 88, 0
6, 299940, Note_on_c, 1, 93, 84
6, 299940, Note_on_c, 1, 88, 84
6, 299991, Note_on_c, 1, 93, 0
6, 299991, Note_on_c, 1, 88, 0
6, 300000, Note_on_c, 1, 93, 84
6, 300000, Note_on_c, 1, 88, 84
6, 300119, Note_on_c, 1, 93, 0
6, 300119, Note_on_c, 1, 88, 0
6, 300119, End_track
7, 0, Start_track
7, 0, Title_t, "Oboe"
7, 0, MIDI_port, 0
7, 0, Program_c, 2, 68
7, 0, Control_c, 2, 7, 80
7, 0, Control_c, 2, 11, 127
7, 0, Control_c, 2, 10, 70
7, 120, Note_on_c, 2, 76, 84
7, 171, Note_on_c, 2, 76, 0
7, 180, Note_on_c, 2, 76, 84
7, 231, Note_on_c, 2, 76, 0
7, 240, Note_on_c, 2, 76, 84
7, 359, Note_on_c, 2, 76, 0
7, 1080, Note_on_c, 2, 86, 84
7, 1080, Note_on_c, 2, 83, 84
7, 1131, Note_on_c, 2, 86, 0
7, 1131, Note_on_c, 2, 83, 0
7, 1140, Note_on_c, 2, 86, 84
7, 1140, Note_on_c, 2, 83, 84
7, 1191, Note_on_c, 2, 86, 0
7, 1191, Note_on_c, 2, 83, 0
7, 1200, Note_on_c, 2, 83, 84
7, 1200, Note_on_c, 2, 86, 84
7, 1319, Note_on_c, 2, 83, 0
7, 1319, Note_on_c, 2, 86, 0
7, 1920, Note_on_c, 2, 83, 84
7, 1920, Note_on_c, 2, 80, 84
7, 2039, Note_on_c, 2, 83, 0
7, 2039, Note_on_c, 2, 80, 0
7, 2280, Note_on_c, 2, 83, 92
7, 2280, Note_on_c, 2, 80, 92
7, 2399, Note_on_c, 2, 83, 0
7, 2399, Note_on_c, 2, 80, 0
7, 2400, Note_on_c, 2, 85, 84
7, 2400, Note_on_c, 2, 81, 84
7, 2519, Note_on_c, 2, 85, 0
7, 2519, Note_on_c, 2, 81, 0
7, 2760, Note_on_c, 2, 81, 92
7, 2760, Note_on_c, 2, 85, 92
7, 2879, Note_on_c, 2, 81, 0
7, 2879, Note_on_c, 2, 85, 0
7, 2880, Note_on_c, 2, 80, 84
7, 2880, Note_on_c, 2, 83, 84
7, 2999, Note_on_c, 2, 80, 0
7, 2999, Note_on_c, 2, 83, 0
7, 3240, Note_on_c, 2, 80, 92
7, 3240, Note_on_c, 2, 83, 92
7, 3359, Note_on_c, 2, 80, 0
7, 3359, Note_on_c, 2, 83, 0
7, 3360, Note_on_c, 2, 85, 84
7, 3360, Note_on_c, 2, 81, 84
7, 3479, Note_on_c, 2, 85, 0
7, 3479, Note_on_c, 2, 81, 0
7, 3720, Note_on_c, 2, 81, 92
7, 3720, Note_on_c, 2, 85, 92
7, 3839, Note_on_c, 2, 81, 0
7, 3839, Note_on_c, 2, 85, 0
7, 3840, Note_on_c, 2, 83, 84
7, 3840, Note_on_c, 2, 80, 84
7, 3959, Note_on_c, 2, 83, 0
7, 3959, Note_on_c, 2, 80, 0
7, 4200, Note_on_c, 2, 83, 92
7, 4200, Note_on_c, 2, 80, 92
7, 4319, Note_on_c, 2, 83, 0
7, 4319, Note_on_c, 2, 80, 0
7, 4320, Note_on_c, 2, 81, 84
7, 4320, Note_on_c, 2, 85, 84
7, 4439, Note_on_c, 2, 81, 0
7, 4439, Note_on_c, 2, 85, 0
7, 4680, Note_on_c, 2, 85, 92
7, 4680, Note_on_c, 2, 81, 92
7, 4799, Note_on_c, 2, 85, 0
7, 4799, Note_on_c, 2, 81, 0
7, 4800, Note_on_c, 2, 80, 84
7, 4800, Note_on_c, 2, 83, 84
7, 4919, Note_on_c, 2, 80, 0
7, 4919, Note_on_c, 2, 83, 0
7, 5160, Note_on_c, 2, 74, 92
7, 5160, Note_on_c, 2, 83, 92
7, 5279, Note_on_c, 2, 74, 0
7, 5279, Note_on_c, 2, 83, 0
7, 5280, Note_on_c, 2, 73, 84
7, 5280, Note_on_c, 2, 81, 84
7, 5384, Note_on_c, 2, 73, 0
7, 5384, Note_on_c, 2, 81, 0
7, 5400, Note_on_c, 2, 81, 84
7, 5400, Note_on_c, 2, 69, 84
7, 5451, Note_on_c, 2, 81, 0
7, 5451, Note_on_c, 2, 69, 0
7, 5460, Note_on_c, 2, 81, 84
7, 5460, Note_on_c, 2, 69, 84
7, 5511, Note_on_c, 2, 81, 0
7, 5511, Note_on_c, 2, 69, 0
7, 5520, Note_on_c, 2, 69, 84
7, 5520, Note_on_c, 2, 81, 84
7, 5639, Note_on_c, 2, 69, 0
7, 5639, Note_on_c, 2, 81, 0
7, 5760, Note_on_c, 2, 80, 84
7, 5760, Note_on_c, 2, 83, 84
7, 5879, Note_on_c, 2, 80, 0
7, 5879, Note_on_c, 2, 83, 0
7, 6120, Note_on_c, 2, 83, 92
7, 6120, Note_on_c, 2, 80, 92
7, 6239, Note_on_c, 2, 83, 0
7, 6239, Note_on_c, 2, 80, 0
7, 6240, Note_on_c, 2, 85, 84
7, 6240, Note_on_c, 2, 81, 84
7, 6359, Note_on_c, 2, 85, 0
7, 6359, Note_on_c, 2, 81, 0
7, 6600, Note_on_c, 2, 85, 92
7, 6600, Note_on_c, 2, 81, 92
7, 6719, Note_on_c, 2, 85, 0
7, 6719, Note_on_c, 2, 81, 0
7, 6720, Note_on_c, 2, 83, 84
7, 6720, Note_on_c, 2, 80, 84
7, 6839, Note_on_c, 2, 83, 0
7, 6839, Note_on_c, 2, 80, 0
7, 7080, Note_on_c, 2, 83, 92
7, 7080, Note_on_c, 2, 80, 92
7, 7199, Note_on_c, 2, 83, 0
7, 7199, Note_on_c, 2, 80, 0
7, 7200, Note_on_c, 2, 85, 84
7, 7200, Note_on_c, 2, 81, 84
7, 7319, Note_on_c, 2, 85, 0
7, 7319, Note_on_c, 2, 81, 0
7, 7560, Note_on_c, 2, 85, 92
7, 7560, Note_on_c, 2, 81, 92
7, 7679, Note_on_c, 2, 85, 0
7, 7679, Note_on_c, 2, 81, 0
7, 7680, Note_on_c, 2, 80, 84
7, 7680, Note_on_c, 2, 83, 84
7, 7799, Note_on_c, 2, 80, 0
7, 7799, Note_on_c, 2, 83, 0
7, 8040, Note_on_c, 2, 83, 92
7, 8040, Note_on_c, 2, 80, 92
7, 8159, Note_on_c, 2, 83, 0
7, 8159, Note_on_c, 2, 80, 0
7, 8160, Note_on_c, 2, 81, 84
7, 8160, Note_on_c, 2, 85, 84
7, 8279, Note_on_c, 2, 81, 0
7, 8279, Note_on_c, 2, 85, 0
7, 8520, Note_on_c, 2, 85, 92
7, 8520, Note_on_c, 2, 81, 92
7, 8639, Note_on_c, 2, 85, 0
7, 8639, Note_on_c, 2, 81, 0
7, 8640, Note_on_c, 2, 83, 84
7, 8640, Note_on_c, 2, 80, 84
7, 8759, Note_on_c, 2, 83, 0
7, 8759, Note_on_c, 2, 80, 0
7, 9000, Note_on_c, 2, 83, 92
7, 9000, Note_on_c, 2, 74, 92
7, 9119, Note_on_c, 2, 83, 0
7, 9119, Note_on_c, 2, 74, 0
7, 9120, Note_on_c, 2, 81, 84
7, 9120, Note_on_c, 2, 73, 84
7, 9224, Note_on_c, 2, 81, 0
7, 9224, Note_on_c, 2, 73, 0
7, 9240, Note_on_c, 2, 81, 84
7, 9240, Note_on_c, 2, 69, 84
7, 9291, Note_on_c, 2, 81, 0
7, 9291, Note_on_c, 2, 69, 0
7, 9300, Note_on_c, 2, 81, 84
7, 9300, Note_on_c, 2, 69, 84
7, 9351, Note_on_c, 2, 81, 0
7, 9351, Note_on_c, 2, 69, 0
7, 9360, Note_on_c, 2, 81, 84
7, 9360, Note_on_c, 2, 69, 84
7, 9479, Note_on_c, 2, 81, 0
7, 9479, Note_on_c, 2, 69, 0
7, 9600, Note_on_c, 2, 78, 84
7, 9600, Note_on_c, 2, 81, 84
7, 9719, Note_on_c, 2, 78, 0
7, 9719, Note_on_c, 2, 81, 0
7, 9960, Note_on_c, 2, 78, 92
7, 9960, Note_on_c, 2, 81, 92
7, 10079, Note_on_c, 2, 78, 0
7, 10079, Note_on_c, 2, 81, 0
7, 10080, Note_on_c, 2, 76, 84
7, 10080, Note_on_c, 2, 81, 84
7, 10199, Note_on_c, 2, 76, 0
7, 10199, Note_on_c, 2, 81, 0
7, 10440, Note_on_c, 2, 76, 92
7, 10440, Note_on_c, 2, 81, 92
7, 10559, Note_on_c, 2, 76, 0
7, 10559, Note_on_c, 2, 81, 0
7, 10560, Note_on_c, 2, 81, 84
7, 10560, Note_on_c, 2, 78, 84
7, 10679, Note_on_c, 2, 81, 0
7, 10679, Note_on_c, 2, 78, 0
7, 10920, Note_on_c, 2, 78, 92
7, 10920, Note_on_c, 2, 81, 92
7, 11039, Note_on_c, 2, 78, 0
7, 11039, Note_on_c, 2, 81, 0
7, 11040, Note_on_c, 2, 81, 84
7, 11040, Note_on_c, 2, 78, 84
7, 11159, Note_on_c, 2, 81, 0
7, 11159, Note_on_c, 2, 78, 0
7, 11160, Note_on_c, 2, 77, 84
7, 11279, Note_on_c, 2, 77, 0
7, 11400, Note_on_c, 2, 76, 92
7, 11400, Note_on_c, 2, 85, 92
7, 11519, Note_on_c, 2, 76, 0
7, 11519, Note_on_c, 2, 85, 0
7, 11520, Note_on_c, 2, 83, 84
7, 11520, Note_on_c, 2, 75, 84
7, 11639, Note_on_c, 2, 83, 0
7, 11639, Note_on_c, 2, 75, 0
7, 11880, Note_on_c, 2, 83, 92
7, 11880, Note_on_c, 2, 74, 92
7, 11999, Note_on_c, 2, 83, 0
7, 11999, Note_on_c, 2, 74, 0
7, 12000, Note_on_c, 2, 73, 84
7, 12000, Note_on_c, 2, 81, 84
7, 12119, Note_on_c, 2, 73, 0
7, 12119, Note_on_c, 2, 81, 0
7, 12360, Note_on_c, 2, 76, 92
7, 12360, Note_on_c, 2, 81, 92
7, 12479, Note_on_c, 2, 76, 0
7, 12479, Note_on_c, 2, 81, 0
7, 12480, Note_on_c, 2, 76, 84
7, 12480, Note_on_c, 2, 80, 84
7, 12599, Note_on_c, 2, 76, 0
7, 12599, Note_on_c, 2, 80, 0
7, 12840, Note_on_c, 2, 80, 92
7, 12840, Note_on_c, 2, 76, 92
7, 12959, Note_on_c, 2, 80, 0
7, 12959, Note_on_c, 2, 76, 0
7, 12960, Note_on_c, 2, 76, 84
7, 12960, Note_on_c, 2, 81, 84
7, 13064, Note_on_c, 2, 76, 0
7, 13064, Note_on_c, 2, 81, 0
7, 13080, Note_on_c, 2, 69, 84
7, 13080, Note_on_c, 2, 81, 84
7, 13131, Note_on_c, 2, 69, 0
7, 13131, Note_on_c, 2, 81, 0
7, 13140, Note_on_c, 2, 81, 84
7, 13140, Note_on_c, 2, 69, 84
7, 13191, Note_on_c, 2, 81, 0
7, 13191, Note_on_c, 2, 69, 0
7, 13200, Note_on_c, 2, 81, 84
7, 13200, Note_on_c, 2, 69, 84
7, 13319, Note_on_c, 2, 81, 0
7, 13319, Note_on_c, 2, 69, 0
7, 13440, Note_on_c, 2, 81, 84
7, 13440, Note_on_c, 2, 78, 84
7, 13559, Note_on_c, 2, 81, 0
7, 13559, Note_on_c, 2, 78, 0
7, 13800, Note_on_c, 2, 81, 92
7, 13800, Note_on_c, 2, 78, 92
7, 13919, Note_on_c, 2, 81, 0
7, 13919, Note_on_c, 2, 78, 0
7, 13920, Note_on_c, 2, 81, 84
7, 13920, Note_on_c, 2, 76, 84
7, 14039, Note_on_c, 2, 81, 0
7, 14039, Note_on_c, 2, 76, 0
7, 14280, Note_on_c, 2, 76, 92
7, 14280, Note_on_c, 2, 81, 92
7, 14399, Note_on_c, 2, 76, 0
7, 14399, Note_on_c, 2, 81, 0
7, 14400, Note_on_c, 2, 78, 84
7, 14400, Note_on_c, 2, 81, 84
7, 14519, Note_on_c, 2, 78, 0
7, 14519, Note_on_c, 2, 81, 0
7, 14760, Note_on_c, 2, 81, 92
7, 14760, Note_on_c, 2, 78, 92
7, 14879, Note_on_c, 2, 81, 0
7, 14879, Note_on_c, 2, 78, 0
7, 14880, Note_on_c, 2, 78, 84
7, 14880, Note_on_c, 2, 81, 84
7, 14999, Note_on_c, 2, 78, 0
7, 14999, Note_on_c, 2, 81, 0
7, 15000, Note_on_c, 2, 77, 84
7, 15119, Note_on_c, 2, 77, 0
7, 15240, Note_on_c, 2, 85, 92
7, 15240, Note_on_c, 2, 76, 92
7, 15359, Note_on_c, 2, 85, 0
7, 15359, Note_on_c, 2, 76, 0
7, 15360, Note_on_c, 2, 75, 84
7, 15360, Note_on_c, 2, 83, 84
7, 15479, Note_on_c, 2, 75, 0
7, 15479, Note_on_c, 2, 83, 0
7, 15720, Note_on_c, 2, 74, 92
7, 15720, Note_on_c, 2, 83, 92
7, 15839, Note_on_c, 2, 74, 0
7, 15839, Note_on_c, 2, 83, 0
7, 15840, Note_on_c, 2, 73, 84
7, 15840, Note_on_c, 2, 81, 84
7, 15959, Note_on_c, 2, 73, 0
7, 15959, Note_on_c, 2, 81, 0
7, 16200, Note_on_c, 2, 81, 92
7, 16200, Note_on_c, 2, 76, 92
7, 16319, Note_on_c, 2, 81, 0
7, 16319, Note_on_c, 2, 76, 0
7, 16320, Note_on_c, 2, 76, 84
7, 16320, Note_on_c, 2, 80, 84
7, 16439, Note_on_c, 2, 76, 0
7, 16439, Note_on_c, 2, 80, 0
7, 16680, Note_on_c, 2, 76, 92
7, 16680, Note_on_c, 2, 80, 92
7, 16799, Note_on_c, 2, 76, 0
7, 16799, Note_on_c, 2, 80, 0
7, 16800, Note_on_c, 2, 81, 84
7, 16800, Note_on_c, 2, 76, 84
7, 16904, Note_on_c, 2, 81, 0
7, 16904, Note_on_c, 2, 76, 0
7, 16920, Note_on_c, 2, 69, 84
7, 16920, Note_on_c, 2, 81, 84
7, 16971, Note_on_c, 2, 69, 0
7, 16971, Note_on_c, 2, 81, 0
7, 16980, Note_on_c, 2, 69, 84
7, 16980, Note_on_c, 2, 81, 84
7, 17031, Note_on_c, 2, 69, 0
7, 17031, Note_on_c, 2, 81, 0
7, 17040, Note_on_c, 2, 81, 84
7, 17040, Note_on_c, 2, 69, 84
7, 17159, Note_on_c, 2, 81, 0
7, 17159, Note_on_c, 2, 69, 0
7, 17400, Note_on_c, 2, 81, 84
7, 17400, Note_on_c, 2, 69, 84
7, 17451, Note_on_c, 2, 81, 0
7, 17451, Note_on_c, 2, 69, 0
7, 17460, Note_on_c, 2, 81, 84
7, 17460, Note_on_c, 2, 69, 84
7, 17511, Note_on_c, 2, 81, 0
7, 17511, Note_on_c, 2, 69, 0
7, 17520, Note_on_c, 2, 81, 84
7, 17520, Note_on_c, 2, 69, 84
7, 17639, Note_on_c, 2, 81, 0
7, 17639, Note_on_c, 2, 69, 0
7, 17880, Note_on_c, 2, 80, 84
7, 17880, Note_on_c, 2, 83, 84
7, 17931, Note_on_c, 2, 80, 0
7, 17931, Note_on_c, 2, 83, 0
7, 17940, Note_on_c, 2, 80, 84
7, 17940, Note_on_c, 2, 83, 84
7, 17991, Note_on_c, 2, 80, 0
7, 17991, Note_on_c, 2, 83, 0
7, 18000, Note_on_c, 2, 83, 84
7, 18000, Note_on_c, 2, 80, 84
7, 18119, Note_on_c, 2, 83, 0
7, 18119, Note_on_c, 2, 80, 0
7, 18360, Note_on_c, 2, 83, 84
7, 18360, Note_on_c, 2, 80, 84
7, 18411, Note_on_c, 2, 83, 0
7, 18411, Note_on_c, 2, 80, 0
7, 18420, Note_on_c, 2, 80, 84
7, 18420, Note_on_c, 2, 83, 84
7, 18471, Note_on_c, 2, 80, 0
7, 18471, Note_on_c, 2, 83, 0
7, 18480, Note_on_c, 2, 80, 84
7, 18480, Note_on_c, 2, 83, 84
7, 18599, Note_on_c, 2, 80, 0
7, 18599, Note_on_c, 2, 83, 0
7, 18720, Note_on_c, 2, 85, 84
7, 18720, Note_on_c, 2, 76, 84
7, 19064, Note_on_c, 2, 85, 0
7, 19064, Note_on_c, 2, 76, 0
7, 19080, Note_on_c, 2, 74, 84
7, 19080, Note_on_c, 2, 83, 84
7, 19169, Note_on_c, 2, 74, 0
7, 19169, Note_on_c, 2, 83, 0
7, 19200, Note_on_c, 2, 73, 84
7, 19200, Note_on_c, 2, 81, 84
7, 19289, Note_on_c, 2, 73, 0
7, 19289, Note_on_c, 2, 81, 0
7, 19320, Note_on_c, 2, 85, 84
7, 19320, Note_on_c, 2, 76, 84
7, 19409, Note_on_c, 2, 85, 0
7, 19409, Note_on_c, 2, 76, 0
7, 19440, Note_on_c, 2, 83, 84
7, 19440, Note_on_c, 2, 74, 84
7, 19529, Note_on_c, 2, 83, 0
7, 19529, Note_on_c, 2, 74, 0
7, 19560, Note_on_c, 2, 81, 84
7, 19560, Note_on_c, 2, 73, 84
7, 19649, Note_on_c, 2, 81, 0
7, 19649, Note_on_c, 2, 73, 0
7, 19680, Note_on_c, 2, 74, 84
7, 19680, Note_on_c, 2, 83, 84
7, 19769, Note_on_c, 2, 74, 0
7, 19769, Note_on_c, 2, 83, 0
7, 19800, Note_on_c, 2, 81, 84
7, 19800, Note_on_c, 2, 73, 84
7, 19889, Note_on_c, 2, 81, 0
7, 19889, Note_on_c, 2, 73, 0
7, 19920, Note_on_c, 2, 80, 84
7, 19920, Note_on_c, 2, 71, 84
7, 20009, Note_on_c, 2, 80, 0
7, 20009, Note_on_c, 2, 71, 0
7, 20040, Note_on_c, 2, 78, 84
7, 20040, Note_on_c, 2, 74, 84
7, 20129, Note_on_c, 2, 78, 0
7, 20129, Note_on_c, 2, 74, 0
7, 20160, Note_on_c, 2, 73, 84
7, 20160, Note_on_c, 2, 76, 84
7, 20249, Note_on_c, 2, 73, 0
7, 20249, Note_on_c, 2, 76, 0
7, 20280, Note_on_c, 2, 71, 84
7, 20280, Note_on_c, 2, 74, 84
7, 20369, Note_on_c, 2, 71, 0
7, 20369, Note_on_c, 2, 74, 0
7, 20400, Note_on_c, 2, 73, 84
7, 20400, Note_on_c, 2, 69, 84
7, 20489, Note_on_c, 2, 73, 0
7, 20489, Note_on_c, 2, 69, 0
7, 20520, Note_on_c, 2, 71, 84
7, 20520, Note_on_c, 2, 68, 84
7, 20609, Note_on_c, 2, 71, 0
7, 20609, Note_on_c, 2, 68, 0
7, 20640, Note_on_c, 2, 69, 84
7, 20744, Note_on_c, 2, 69, 0
7, 20760, Note_on_c, 2, 81, 84
7, 20760, Note_on_c, 2, 69, 84
7, 20811, Note_on_c, 2, 81, 0
7, 20811, Note_on_c, 2, 69, 0
7, 20820, Note_on_c, 2, 81, 84
7, 20820, Note_on_c, 2, 69, 84
7, 20871, Note_on_c, 2, 81, 0
7, 20871, Note_on_c, 2, 69, 0
7, 20880, Note_on_c, 2, 81, 84
7, 20880, Note_on_c, 2, 69, 84
7, 20999, Note_on_c, 2, 81, 0
7, 20999, Note_on_c, 2, 69, 0
7, 21240, Note_on_c, 2, 81, 84
7, 21240, Note_on_c, 2, 69, 84
7, 21291, Note_on_c, 2, 81, 0
7, 21291, Note_on_c, 2, 69, 0
7, 21300, Note_on_c, 2, 81, 84
7, 21300, Note_on_c, 2, 69, 84
7, 21351, Note_on_c, 2, 81, 0
7, 21351, Note_on_c, 2, 69, 0
7, 21360, Note_on_c, 2, 69, 84
7, 21360, Note_on_c, 2, 81, 84
7, 21479, Note_on_c, 2, 69, 0
7, 21479, Note_on_c, 2, 81, 0
7, 21720, Note_on_c, 2, 83, 84
7, 21720, Note_on_c, 2, 80, 84
7, 21771, Note_on_c, 2, 83, 0
7, 21771, Note_on_c, 2, 80, 0
7, 21780, Note_on_c, 2, 83, 84
7, 21780, Note_on_c, 2, 80, 84
7, 21831, Note_on_c, 2, 83, 0
7, 21831, Note_on_c, 2, 80, 0
7, 21840, Note_on_c, 2, 83, 84
7, 21840, Note_on_c, 2, 80, 84
7, 21959, Note_on_c, 2, 83, 0
7, 21959, Note_on_c, 2, 80, 0
7, 22200, Note_on_c, 2, 83, 84
7, 22200, Note_on_c, 2, 80, 84
7, 22251, Note_on_c, 2, 83, 0
7, 22251, Note_on_c, 2, 80, 0
7, 22260, Note_on_c, 2, 80, 84
7, 22260, Note_on_c, 2, 83, 84
7, 22311, Note_on_c, 2, 80, 0
7, 22311, Note_on_c, 2, 83, 0
7, 22320, Note_on_c, 2, 80, 84
7, 22320, Note_on_c, 2, 83, 84
7, 22439, Note_on_c, 2, 80, 0
7, 22439, Note_on_c, 2, 83, 0
7, 22560, Note_on_c, 2, 81, 84
7, 22560, Note_on_c, 2, 85, 84
7, 22679, Note_on_c, 2, 81, 0
7, 22679, Note_on_c, 2, 85, 0
7, 22800, Note_on_c, 2, 81, 84
7, 22800, Note_on_c, 2, 85, 84
7, 22919, Note_on_c, 2, 81, 0
7, 22919, Note_on_c, 2, 85, 0
7, 23040, Note_on_c, 2, 81, 84
7, 23040, Note_on_c, 2, 85, 84
7, 23159, Note_on_c, 2, 81, 0
7, 23159, Note_on_c, 2, 85, 0
7, 23280, Note_on_c, 2, 81, 84
7, 23280, Note_on_c, 2, 85, 84
7, 23399, Note_on_c, 2, 81, 0
7, 23399, Note_on_c, 2, 85, 0
7, 23520, Note_on_c, 2, 83, 84
7, 23520, Note_on_c, 2, 86, 84
7, 23639, Note_on_c, 2, 83, 0
7, 23639, Note_on_c, 2, 86, 0
7, 23760, Note_on_c, 2, 86, 84
7, 23760, Note_on_c, 2, 83, 84
7, 23879, Note_on_c, 2, 86, 0
7, 23879, Note_on_c, 2, 83, 0
7, 24000, Note_on_c, 2, 86, 84
7, 24000, Note_on_c, 2, 83, 84
7, 24119, Note_on_c, 2, 86, 0
7, 24119, Note_on_c, 2, 83, 0
7, 24240, Note_on_c, 2, 86, 84
7, 24240, Note_on_c, 2, 83, 84
7, 24359, Note_on_c, 2, 86, 0
7, 24359, Note_on_c, 2, 83, 0
7, 24480, Note_on_c, 2, 81, 84
7, 24480, Note_on_c, 2, 85, 84
7, 24599, Note_on_c, 2, 81, 0
7, 24599, Note_on_c, 2, 85, 0
7, 24960, Note_on_c, 2, 64, 84
7, 24960, Note_on_c, 2, 76, 84
7, 26519, Note_on_c, 2, 64, 0
7, 26519, Note_on_c, 2, 76, 0
7, 26880, Note_on_c, 2, 76, 84
7, 26880, Note_on_c, 2, 64, 84
7, 28079, Note_on_c, 2, 76, 0
7, 28079, Note_on_c, 2, 64, 0
7, 28080, Note_on_c, 2, 77, 84
7, 28319, Note_on_c, 2, 77, 0
7, 28320, Note_on_c, 2, 78, 84
7, 28439, Note_on_c, 2, 78, 0
7, 28800, Note_on_c, 2, 73, 84
7, 28800, Note_on_c, 2, 85, 84
7, 30359, Note_on_c, 2, 73, 0
7, 30359, Note_on_c, 2, 85, 0
7, 30720, Note_on_c, 2, 85, 84
7, 30720, Note_on_c, 2, 73, 84
7, 31904, Note_on_c, 2, 85, 0
7, 31904, Note_on_c, 2, 73, 0
7, 31920, Note_on_c, 2, 77, 84
7, 31920, Note_on_c, 2, 73, 84
7, 32159, Note_on_c, 2, 77, 0
7, 32160, Note_on_c, 2, 78, 84
7, 32279, Note_on_c, 2, 73, 0
7, 32279, Note_on_c, 2, 78, 0
7, 32400, Note_on_c, 2, 81, 84
7, 32400, Note_on_c, 2, 73, 84
7, 32519, Note_on_c, 2, 81, 0
7, 32519, Note_on_c, 2, 73, 0
7, 32640, Note_on_c, 2, 73, 84
7, 32640, Note_on_c, 2, 81, 84
7, 32759, Note_on_c, 2, 73, 0
7, 32759, Note_on_c, 2, 81, 0
7, 32880, Note_on_c, 2, 73, 84
7, 32880, Note_on_c, 2, 81, 84
7, 32999, Note_on_c, 2, 73, 0
7, 32999, Note_on_c, 2, 81, 0
7, 33120, Note_on_c, 2, 73, 84
7, 33120, Note_on_c, 2, 83, 84
7, 33239, Note_on_c, 2, 73, 0
7, 33239, Note_on_c, 2, 83, 0
7, 33360, Note_on_c, 2, 73, 84
7, 33360, Note_on_c, 2, 83, 84
7, 33479, Note_on_c, 2, 73, 0
7, 33479, Note_on_c, 2, 83, 0
7, 33600, Note_on_c, 2, 83, 84
7, 33600, Note_on_c, 2, 73, 84
7, 33719, Note_on_c, 2, 83, 0
7, 33719, Note_on_c, 2, 73, 0
7, 33840, Note_on_c, 2, 73, 84
7, 33840, Note_on_c, 2, 83, 84
7, 33959, Note_on_c, 2, 73, 0
7, 33959, Note_on_c, 2, 83, 0
7, 34080, Note_on_c, 2, 81, 84
7, 34080, Note_on_c, 2, 73, 84
7, 34199, Note_on_c, 2, 81, 0
7, 34199, Note_on_c, 2, 73, 0
7, 34320, Note_on_c, 2, 73, 84
7, 34320, Note_on_c, 2, 81, 84
7, 34439, Note_on_c, 2, 73, 0
7, 34439, Note_on_c, 2, 81, 0
7, 34560, Note_on_c, 2, 73, 84
7, 34560, Note_on_c, 2, 82, 84
7, 34679, Note_on_c, 2, 73, 0
7, 34679, Note_on_c, 2, 82, 0
7, 34800, Note_on_c, 2, 82, 84
7, 34800, Note_on_c, 2, 73, 84
7, 34919, Note_on_c, 2, 82, 0
7, 34919, Note_on_c, 2, 73, 0
7, 35040, Note_on_c, 2, 84, 84
7, 35040, Note_on_c, 2, 75, 84
7, 35159, Note_on_c, 2, 84, 0
7, 35159, Note_on_c, 2, 75, 0
7, 35280, Note_on_c, 2, 75, 84
7, 35280, Note_on_c, 2, 84, 84
7, 35399, Note_on_c, 2, 75, 0
7, 35399, Note_on_c, 2, 84, 0
7, 35520, Note_on_c, 2, 76, 84
7, 35520, Note_on_c, 2, 85, 84
7, 35639, Note_on_c, 2, 76, 0
7, 35639, Note_on_c, 2, 85, 0
7, 35760, Note_on_c, 2, 76, 84
7, 35760, Note_on_c, 2, 85, 84
7, 35879, Note_on_c, 2, 76, 0
7, 35879, Note_on_c, 2, 85, 0
7, 36000, Note_on_c, 2, 75, 84
7, 36000, Note_on_c, 2, 78, 84
7, 36119, Note_on_c, 2, 75, 0
7, 36119, Note_on_c, 2, 78, 0
7, 36240, Note_on_c, 2, 75, 84
7, 36240, Note_on_c, 2, 78, 84
7, 36359, Note_on_c, 2, 75, 0
7, 36359, Note_on_c, 2, 78, 0
7, 36480, Note_on_c, 2, 78, 84
7, 36480, Note_on_c, 2, 75, 84
7, 36599, Note_on_c, 2, 78, 0
7, 36599, Note_on_c, 2, 75, 0
7, 36720, Note_on_c, 2, 75, 84
7, 36720, Note_on_c, 2, 78, 84
7, 36839, Note_on_c, 2, 75, 0
7, 36839, Note_on_c, 2, 78, 0
7, 36960, Note_on_c, 2, 78, 84
7, 36960, Note_on_c, 2, 75, 84
7, 37079, Note_on_c, 2, 78, 0
7, 37079, Note_on_c, 2, 75, 0
7, 37200, Note_on_c, 2, 78, 76
7, 37200, Note_on_c, 2, 75, 76
7, 37289, Note_on_c, 2, 78, 0
7, 37289, Note_on_c, 2, 75, 0
7, 39120, Note_on_c, 2, 78, 76
7, 39120, Note_on_c, 2, 75, 76
7, 39209, Note_on_c, 2, 78, 0
7, 39209, Note_on_c, 2, 75, 0
7, 42960, Note_on_c, 2, 80, 76
7, 43199, Note_on_c, 2, 80, 0
7, 43440, Note_on_c, 2, 80, 76
7, 43440, Note_on_c, 2, 78, 76
7, 43679, Note_on_c, 2, 80, 0
7, 43679, Note_on_c, 2, 78, 0
7, 43920, Note_on_c, 2, 76, 76
7, 43920, Note_on_c, 2, 80, 76
7, 44159, Note_on_c, 2, 76, 0
7, 44159, Note_on_c, 2, 80, 0
7, 44400, Note_on_c, 2, 78, 76
7, 44400, Note_on_c, 2, 80, 76
7, 44624, Note_on_c, 2, 78, 0
7, 44624, Note_on_c, 2, 80, 0
7, 44640, Note_on_c, 2, 76, 48
7, 45239, Note_on_c, 2, 76, 0
7, 45300, Note_on_c, 2, 78, 48
7, 45359, Note_on_c, 2, 78, 0
7, 45360, Note_on_c, 2, 79, 48
7, 45479, Note_on_c, 2, 79, 0
7, 45540, Note_on_c, 2, 76, 48
7, 45599, Note_on_c, 2, 76, 0
7, 45600, Note_on_c, 2, 78, 48
7, 45719, Note_on_c, 2, 78, 0
7, 45780, Note_on_c, 2, 76, 48
7, 45839, Note_on_c, 2, 76, 0
7, 45840, Note_on_c, 2, 74, 48
7, 45959, Note_on_c, 2, 74, 0
7, 46020, Note_on_c, 2, 78, 48
7, 46079, Note_on_c, 2, 78, 0
7, 46080, Note_on_c, 2, 76, 48
7, 46199, Note_on_c, 2, 76, 0
7, 46260, Note_on_c, 2, 78, 48
7, 46319, Note_on_c, 2, 78, 0
7, 46320, Note_on_c, 2, 79, 48
7, 46439, Note_on_c, 2, 79, 0
7, 46500, Note_on_c, 2, 76, 48
7, 46559, Note_on_c, 2, 76, 0
7, 46560, Note_on_c, 2, 78, 48
7, 46679, Note_on_c, 2, 78, 0
7, 46740, Note_on_c, 2, 76, 48
7, 46799, Note_on_c, 2, 76, 0
7, 46800, Note_on_c, 2, 74, 48
7, 46919, Note_on_c, 2, 74, 0
7, 46980, Note_on_c, 2, 78, 48
7, 47039, Note_on_c, 2, 78, 0
7, 47760, Note_on_c, 2, 80, 76
7, 47999, Note_on_c, 2, 80, 0
7, 48240, Note_on_c, 2, 78, 76
7, 48240, Note_on_c, 2, 80, 76
7, 48479, Note_on_c, 2, 78, 0
7, 48479, Note_on_c, 2, 80, 0
7, 48720, Note_on_c, 2, 80, 76
7, 48720, Note_on_c, 2, 76, 76
7, 48959, Note_on_c, 2, 80, 0
7, 48959, Note_on_c, 2, 76, 0
7, 49200, Note_on_c, 2, 78, 76
7, 49200, Note_on_c, 2, 80, 76
7, 49424, Note_on_c, 2, 78, 0
7, 49424, Note_on_c, 2, 80, 0
7, 49440, Note_on_c, 2, 76, 52
7, 50039, Note_on_c, 2, 76, 0
7, 50100, Note_on_c, 2, 78, 52
7, 50159, Note_on_c, 2, 78, 0
7, 50160, Note_on_c, 2, 79, 52
7, 50279, Note_on_c, 2, 79, 0
7, 50340, Note_on_c, 2, 76, 52
7, 50399, Note_on_c, 2, 76, 0
7, 50400, Note_on_c, 2, 78, 52
7, 50519, Note_on_c, 2, 78, 0
7, 50580, Note_on_c, 2, 76, 52
7, 50639, Note_on_c, 2, 76, 0
7, 50640, Note_on_c, 2, 74, 52
7, 50759, Note_on_c, 2, 74, 0
7, 50820, Note_on_c, 2, 78, 52
7, 50879, Note_on_c, 2, 78, 0
7, 50880, Note_on_c, 2, 76, 52
7, 50999, Note_on_c, 2, 76, 0
7, 51060, Note_on_c, 2, 78, 52
7, 51119, Note_on_c, 2, 78, 0
7, 51120, Note_on_c, 2, 79, 52
7, 51239, Note_on_c, 2, 79, 0
7, 51300, Note_on_c, 2, 78, 52
7, 51359, Note_on_c, 2, 78, 0
7, 51360, Note_on_c, 2, 79, 52
7, 51360, Note_on_c, 2, 76, 52
7, 51479, Note_on_c, 2, 79, 0
7, 51479, Note_on_c, 2, 76, 0
7, 51588, Control_c, 2, 11, 64
7, 51600, Note_on_c, 2, 76, 84
7, 51600, Control_c, 2, 11, 64
7, 51600, Note_on_c, 2, 79, 84
7, 51688, Control_c, 2, 11, 65
7, 51775, Control_c, 2, 11, 66
7, 51863, Control_c, 2, 11, 67
7, 51950, Control_c, 2, 11, 68
7, 52038, Control_c, 2, 11, 69
7, 52126, Control_c, 2, 11, 70
7, 52213, Control_c, 2, 11, 71
7, 52301, Control_c, 2, 11, 72
7, 52389, Control_c, 2, 11, 73
7, 52476, Control_c, 2, 11, 74
7, 52564, Control_c, 2, 11, 75
7, 52651, Control_c, 2, 11, 76
7, 52739, Control_c, 2, 11, 77
7, 52827, Control_c, 2, 11, 78
7, 52914, Control_c, 2, 11, 79
7, 53002, Control_c, 2, 11, 80
7, 53090, Control_c, 2, 11, 81
7, 53177, Control_c, 2, 11, 82
7, 53265, Control_c, 2, 11, 83
7, 53352, Control_c, 2, 11, 84
7, 53440, Control_c, 2, 11, 85
7, 53528, Control_c, 2, 11, 86
7, 53615, Control_c, 2, 11, 87
7, 53703, Control_c, 2, 11, 88
7, 53744, Note_on_c, 2, 76, 0
7, 53744, Note_on_c, 2, 79, 0
7, 53760, Note_on_c, 2, 78, 84
7, 53760, Note_on_c, 2, 74, 84
7, 53790, Control_c, 2, 11, 89
7, 53878, Control_c, 2, 11, 90
7, 53966, Control_c, 2, 11, 91
7, 54053, Control_c, 2, 11, 92
7, 54141, Control_c, 2, 11, 93
7, 54224, Note_on_c, 2, 78, 0
7, 54224, Note_on_c, 2, 74, 0
7, 54229, Control_c, 2, 11, 94
7, 54240, Note_on_c, 2, 76, 84
7, 54240, Note_on_c, 2, 79, 84
7, 54316, Control_c, 2, 11, 95
7, 54404, Control_c, 2, 11, 96
7, 54491, Control_c, 2, 11, 97
7, 54579, Control_c, 2, 11, 98
7, 54667, Control_c, 2, 11, 99
7, 54754, Control_c, 2, 11, 100
7, 54842, Control_c, 2, 11, 101
7, 54930, Control_c, 2, 11, 102
7, 55017, Control_c, 2, 11, 103
7, 55105, Control_c, 2, 11, 104
7, 55192, Control_c, 2, 11, 105
7, 55280, Control_c, 2, 11, 106
7, 55368, Control_c, 2, 11, 107
7, 55455, Control_c, 2, 11, 108
7, 55543, Control_c, 2, 11, 109
7, 55630, Control_c, 2, 11, 110
7, 55718, Control_c, 2, 11, 111
7, 55806, Control_c, 2, 11, 112
7, 55893, Control_c, 2, 11, 113
7, 55981, Control_c, 2, 11, 114
7, 56069, Control_c, 2, 11, 115
7, 56156, Control_c, 2, 11, 116
7, 56244, Control_c, 2, 11, 117
7, 56331, Control_c, 2, 11, 118
7, 56419, Control_c, 2, 11, 119
7, 56507, Control_c, 2, 11, 120
7, 56594, Control_c, 2, 11, 121
7, 56624, Note_on_c, 2, 76, 0
7, 56624, Note_on_c, 2, 79, 0
7, 56640, Note_on_c, 2, 74, 84
7, 56640, Note_on_c, 2, 78, 84
7, 56682, Control_c, 2, 11, 122
7, 56770, Control_c, 2, 11, 123
7, 56857, Control_c, 2, 11, 124
7, 56945, Control_c, 2, 11, 125
7, 57032, Control_c, 2, 11, 127
7, 57104, Note_on_c, 2, 74, 0
7, 57104, Note_on_c, 2, 78, 0
7, 57120, Note_on_c, 2, 81, 84
7, 57120, Note_on_c, 2, 78, 84
7, 57224, Note_on_c, 2, 81, 0
7, 57224, Note_on_c, 2, 78, 0
7, 57240, Note_on_c, 2, 78, 84
7, 57240, Note_on_c, 2, 81, 84
7, 57344, Note_on_c, 2, 78, 0
7, 57344, Note_on_c, 2, 81, 0
7, 57360, Note_on_c, 2, 81, 84
7, 57360, Note_on_c, 2, 78, 84
7, 57464, Note_on_c, 2, 81, 0
7, 57464, Note_on_c, 2, 78, 0
7, 57480, Note_on_c, 2, 81, 84
7, 57480, Note_on_c, 2, 78, 84
7, 57584, Note_on_c, 2, 81, 0
7, 57584, Note_on_c, 2, 78, 0
7, 57600, Note_on_c, 2, 78, 84
7, 57600, Note_on_c, 2, 81, 84
7, 57704, Note_on_c, 2, 78, 0
7, 57704, Note_on_c, 2, 81, 0
7, 57720, Note_on_c, 2, 78, 84
7, 57720, Note_on_c, 2, 81, 84
7, 57824, Note_on_c, 2, 78, 0
7, 57824, Note_on_c, 2, 81, 0
7, 57840, Note_on_c, 2, 81, 84
7, 57840, Note_on_c, 2, 78, 84
7, 57944, Note_on_c, 2, 81, 0
7, 57944, Note_on_c, 2, 78, 0
7, 57960, Note_on_c, 2, 81, 84
7, 57960, Note_on_c, 2, 78, 84
7, 58064, Note_on_c, 2, 81, 0
7, 58064, Note_on_c, 2, 78, 0
7, 58080, Note_on_c, 2, 80, 92
7, 58080, Note_on_c, 2, 76, 92
7, 58184, Note_on_c, 2, 80, 0
7, 58184, Note_on_c, 2, 76, 0
7, 58200, Note_on_c, 2, 80, 84
7, 58200, Note_on_c, 2, 76, 84
7, 58304, Note_on_c, 2, 80, 0
7, 58304, Note_on_c, 2, 76, 0
7, 58320, Note_on_c, 2, 76, 84
7, 58320, Note_on_c, 2, 80, 84
7, 58424, Note_on_c, 2, 76, 0
7, 58424, Note_on_c, 2, 80, 0
7, 58440, Note_on_c, 2, 80, 84
7, 58440, Note_on_c, 2, 76, 84
7, 58544, Note_on_c, 2, 80, 0
7, 58544, Note_on_c, 2, 76, 0
7, 58560, Note_on_c, 2, 78, 92
7, 58560, Note_on_c, 2, 81, 92
7, 58664, Note_on_c, 2, 78, 0
7, 58664, Note_on_c, 2, 81, 0
7, 58680, Note_on_c, 2, 81, 84
7, 58680, Note_on_c, 2, 78, 84
7, 58784, Note_on_c, 2, 81, 0
7, 58784, Note_on_c, 2, 78, 0
7, 58800, Note_on_c, 2, 81, 84
7, 58800, Note_on_c, 2, 78, 84
7, 58904, Note_on_c, 2, 81, 0
7, 58904, Note_on_c, 2, 78, 0
7, 58920, Note_on_c, 2, 81, 84
7, 58920, Note_on_c, 2, 78, 84
7, 59024, Note_on_c, 2, 81, 0
7, 59024, Note_on_c, 2, 78, 0
7, 59040, Note_on_c, 2, 80, 92
7, 59040, Note_on_c, 2, 76, 92
7, 59144, Note_on_c, 2, 80, 0
7, 59144, Note_on_c, 2, 76, 0
7, 59160, Note_on_c, 2, 76, 84
7, 59160, Note_on_c, 2, 80, 84
7, 59264, Note_on_c, 2, 76, 0
7, 59264, Note_on_c, 2, 80, 0
7, 59280, Note_on_c, 2, 76, 84
7, 59280, Note_on_c, 2, 80, 84
7, 59384, Note_on_c, 2, 76, 0
7, 59384, Note_on_c, 2, 80, 0
7, 59400, Note_on_c, 2, 80, 84
7, 59400, Note_on_c, 2, 76, 84
7, 59504, Note_on_c, 2, 80, 0
7, 59504, Note_on_c, 2, 76, 0
7, 59520, Note_on_c, 2, 81, 92
7, 59520, Note_on_c, 2, 78, 92
7, 59624, Note_on_c, 2, 81, 0
7, 59624, Note_on_c, 2, 78, 0
7, 59640, Note_on_c, 2, 78, 84
7, 59640, Note_on_c, 2, 81, 84
7, 59744, Note_on_c, 2, 78, 0
7, 59744, Note_on_c, 2, 81, 0
7, 59760, Note_on_c, 2, 78, 84
7, 59760, Note_on_c, 2, 81, 84
7, 59864, Note_on_c, 2, 78, 0
7, 59864, Note_on_c, 2, 81, 0
7, 59880, Note_on_c, 2, 81, 84
7, 59880, Note_on_c, 2, 78, 84
7, 59984, Note_on_c, 2, 81, 0
7, 59984, Note_on_c, 2, 78, 0
7, 60000, Note_on_c, 2, 80, 92
7, 60000, Note_on_c, 2, 76, 92
7, 60104, Note_on_c, 2, 80, 0
7, 60104, Note_on_c, 2, 76, 0
7, 60120, Note_on_c, 2, 76, 84
7, 60120, Note_on_c, 2, 80, 84
7, 60224, Note_on_c, 2, 76, 0
7, 60224, Note_on_c, 2, 80, 0
7, 60240, Note_on_c, 2, 80, 84
7, 60240, Note_on_c, 2, 76, 84
7, 60344, Note_on_c, 2, 80, 0
7, 60344, Note_on_c, 2, 76, 0
7, 60360, Note_on_c, 2, 76, 84
7, 60360, Note_on_c, 2, 80, 84
7, 60464, Note_on_c, 2, 76, 0
7, 60464, Note_on_c, 2, 80, 0
7, 60480, Note_on_c, 2, 81, 92
7, 60480, Note_on_c, 2, 78, 92
7, 60584, Note_on_c, 2, 81, 0
7, 60584, Note_on_c, 2, 78, 0
7, 60600, Note_on_c, 2, 78, 84
7, 60600, Note_on_c, 2, 81, 84
7, 60704, Note_on_c, 2, 78, 0
7, 60704, Note_on_c, 2, 81, 0
7, 60720, Note_on_c, 2, 81, 84
7, 60720, Note_on_c, 2, 78, 84
7, 60824, Note_on_c, 2, 81, 0
7, 60824, Note_on_c, 2, 78, 0
7, 60840, Note_on_c, 2, 78, 84
7, 60840, Note_on_c, 2, 81, 84
7, 60944, Note_on_c, 2, 78, 0
7, 60944, Note_on_c, 2, 81, 0
7, 60960, Note_on_c, 2, 80, 92
7, 60960, Note_on_c, 2, 76, 92
7, 61064, Note_on_c, 2, 80, 0
7, 61064, Note_on_c, 2, 76, 0
7, 61080, Note_on_c, 2, 76, 84
7, 61080, Note_on_c, 2, 80, 84
7, 61184, Note_on_c, 2, 76, 0
7, 61184, Note_on_c, 2, 80, 0
7, 61200, Note_on_c, 2, 80, 84
7, 61200, Note_on_c, 2, 76, 84
7, 61304, Note_on_c, 2, 80, 0
7, 61304, Note_on_c, 2, 76, 0
7, 61320, Note_on_c, 2, 76, 84
7, 61320, Note_on_c, 2, 80, 84
7, 61424, Note_on_c, 2, 76, 0
7, 61424, Note_on_c, 2, 80, 0
7, 61440, Note_on_c, 2, 80, 92
7, 61440, Note_on_c, 2, 78, 92
7, 61544, Note_on_c, 2, 80, 0
7, 61544, Note_on_c, 2, 78, 0
7, 61560, Note_on_c, 2, 80, 84
7, 61560, Note_on_c, 2, 78, 84
7, 61664, Note_on_c, 2, 80, 0
7, 61664, Note_on_c, 2, 78, 0
7, 61680, Note_on_c, 2, 78, 84
7, 61680, Note_on_c, 2, 80, 84
7, 61784, Note_on_c, 2, 78, 0
7, 61784, Note_on_c, 2, 80, 0
7, 61800, Note_on_c, 2, 80, 84
7, 61800, Note_on_c, 2, 78, 84
7, 61904, Note_on_c, 2, 80, 0
7, 61904, Note_on_c, 2, 78, 0
7, 61920, Note_on_c, 2, 76, 84
7, 61920, Note_on_c, 2, 80, 84
7, 62024, Note_on_c, 2, 76, 0
7, 62024, Note_on_c, 2, 80, 0
7, 62040, Note_on_c, 2, 76, 84
7, 62040, Note_on_c, 2, 80, 84
7, 62144, Note_on_c, 2, 76, 0
7, 62144, Note_on_c, 2, 80, 0
7, 62160, Note_on_c, 2, 78, 92
7, 62160, Note_on_c, 2, 81, 92
7, 62264, Note_on_c, 2, 78, 0
7, 62264, Note_on_c, 2, 81, 0
7, 62280, Note_on_c, 2, 81, 84
7, 62280, Note_on_c, 2, 78, 84
7, 62384, Note_on_c, 2, 81, 0
7, 62384, Note_on_c, 2, 78, 0
7, 62400, Note_on_c, 2, 81, 92
7, 62400, Note_on_c, 2, 78, 92
7, 62504, Note_on_c, 2, 81, 0
7, 62504, Note_on_c, 2, 78, 0
7, 62520, Note_on_c, 2, 78, 84
7, 62520, Note_on_c, 2, 81, 84
7, 62624, Note_on_c, 2, 78, 0
7, 62624, Note_on_c, 2, 81, 0
7, 62640, Note_on_c, 2, 78, 84
7, 62640, Note_on_c, 2, 81, 84
7, 62744, Note_on_c, 2, 78, 0
7, 62744, Note_on_c, 2, 81, 0
7, 62760, Note_on_c, 2, 81, 84
7, 62760, Note_on_c, 2, 78, 84
7, 62864, Note_on_c, 2, 81, 0
7, 62864, Note_on_c, 2, 78, 0
7, 62880, Note_on_c, 2, 80, 84
7, 62880, Note_on_c, 2, 76, 84
7, 62984, Note_on_c, 2, 80, 0
7, 62984, Note_on_c, 2, 76, 0
7, 63000, Note_on_c, 2, 80, 84
7, 63000, Note_on_c, 2, 76, 84
7, 63104, Note_on_c, 2, 80, 0
7, 63104, Note_on_c, 2, 76, 0
7, 63120, Note_on_c, 2, 81, 92
7, 63120, Note_on_c, 2, 78, 92
7, 63224, Note_on_c, 2, 81, 0
7, 63224, Note_on_c, 2, 78, 0
7, 63240, Note_on_c, 2, 81, 84
7, 63240, Note_on_c, 2, 78, 84
7, 63344, Note_on_c, 2, 81, 0
7, 63344, Note_on_c, 2, 78, 0
7, 63360, Note_on_c, 2, 78, 92
7, 63360, Note_on_c, 2, 81, 92
7, 63464, Note_on_c, 2, 78, 0
7, 63464, Note_on_c, 2, 81, 0
7, 63480, Note_on_c, 2, 78, 84
7, 63480, Note_on_c, 2, 81, 84
7, 63584, Note_on_c, 2, 78, 0
7, 63584, Note_on_c, 2, 81, 0
7, 63600, Note_on_c, 2, 81, 84
7, 63600, Note_on_c, 2, 78, 84
7, 63704, Note_on_c, 2, 81, 0
7, 63704, Note_on_c, 2, 78, 0
7, 63720, Note_on_c, 2, 81, 84
7, 63720, Note_on_c, 2, 78, 84
7, 63824, Note_on_c, 2, 81, 0
7, 63824, Note_on_c, 2, 78, 0
7, 63840, Note_on_c, 2, 76, 84
7, 63840, Note_on_c, 2, 80, 84
7, 63944, Note_on_c, 2, 76, 0
7, 63944, Note_on_c, 2, 80, 0
7, 63960, Note_on_c, 2, 76, 84
7, 63960, Note_on_c, 2, 80, 84
7, 64064, Note_on_c, 2, 76, 0
7, 64064, Note_on_c, 2, 80, 0
7, 64080, Note_on_c, 2, 78, 92
7, 64080, Note_on_c, 2, 81, 92
7, 64184, Note_on_c, 2, 78, 0
7, 64184, Note_on_c, 2, 81, 0
7, 64200, Note_on_c, 2, 78, 84
7, 64200, Note_on_c, 2, 81, 84
7, 64304, Note_on_c, 2, 78, 0
7, 64304, Note_on_c, 2, 81, 0
7, 64320, Note_on_c, 2, 80, 84
7, 64320, Note_on_c, 2, 76, 84
7, 64424, Note_on_c, 2, 80, 0
7, 64424, Note_on_c, 2, 76, 0
7, 64440, Note_on_c, 2, 76, 84
7, 64440, Note_on_c, 2, 80, 84
7, 64544, Note_on_c, 2, 76, 0
7, 64544, Note_on_c, 2, 80, 0
7, 64560, Note_on_c, 2, 81, 92
7, 64560, Note_on_c, 2, 78, 92
7, 64664, Note_on_c, 2, 81, 0
7, 64664, Note_on_c, 2, 78, 0
7, 64680, Note_on_c, 2, 78, 84
7, 64680, Note_on_c, 2, 81, 84
7, 64784, Note_on_c, 2, 78, 0
7, 64784, Note_on_c, 2, 81, 0
7, 64800, Note_on_c, 2, 80, 84
7, 64800, Note_on_c, 2, 76, 84
7, 64904, Note_on_c, 2, 80, 0
7, 64904, Note_on_c, 2, 76, 0
7, 64920, Note_on_c, 2, 76, 84
7, 64920, Note_on_c, 2, 80, 84
7, 65024, Note_on_c, 2, 76, 0
7, 65024, Note_on_c, 2, 80, 0
7, 65040, Note_on_c, 2, 78, 92
7, 65040, Note_on_c, 2, 81, 92
7, 65144, Note_on_c, 2, 78, 0
7, 65144, Note_on_c, 2, 81, 0
7, 65160, Note_on_c, 2, 78, 84
7, 65160, Note_on_c, 2, 81, 84
7, 65264, Note_on_c, 2, 78, 0
7, 65264, Note_on_c, 2, 81, 0
7, 65280, Note_on_c, 2, 76, 84
7, 65280, Note_on_c, 2, 80, 84
7, 65384, Note_on_c, 2, 76, 0
7, 65384, Note_on_c, 2, 80, 0
7, 65400, Note_on_c, 2, 76, 84
7, 65400, Note_on_c, 2, 81, 84
7, 65504, Note_on_c, 2, 76, 0
7, 65504, Note_on_c, 2, 81, 0
7, 65520, Note_on_c, 2, 81, 84
7, 65520, Note_on_c, 2, 78, 84
7, 65624, Note_on_c, 2, 81, 0
7, 65624, Note_on_c, 2, 78, 0
7, 65640, Note_on_c, 2, 78, 84
7, 65640, Note_on_c, 2, 81, 84
7, 65744, Note_on_c, 2, 78, 0
7, 65744, Note_on_c, 2, 81, 0
7, 65760, Note_on_c, 2, 80, 84
7, 65760, Note_on_c, 2, 76, 84
7, 65864, Note_on_c, 2, 80, 0
7, 65864, Note_on_c, 2, 76, 0
7, 65880, Note_on_c, 2, 76, 84
7, 65880, Note_on_c, 2, 64, 84
7, 65931, Note_on_c, 2, 76, 0
7, 65931, Note_on_c, 2, 64, 0
7, 65940, Note_on_c, 2, 64, 84
7, 65940, Note_on_c, 2, 76, 84
7, 65991, Note_on_c, 2, 64, 0
7, 65991, Note_on_c, 2, 76, 0
7, 66000, Note_on_c, 2, 76, 84
7, 66000, Note_on_c, 2, 64, 84
7, 66119, Note_on_c, 2, 76, 0
7, 66119, Note_on_c, 2, 64, 0
7, 66840, Note_on_c, 2, 74, 84
7, 66840, Note_on_c, 2, 71, 84
7, 66891, Note_on_c, 2, 74, 0
7, 66891, Note_on_c, 2, 71, 0
7, 66900, Note_on_c, 2, 71, 84
7, 66900, Note_on_c, 2, 74, 84
7, 66951, Note_on_c, 2, 71, 0
7, 66951, Note_on_c, 2, 74, 0
7, 66960, Note_on_c, 2, 74, 84
7, 66960, Note_on_c, 2, 71, 84
7, 67079, Note_on_c, 2, 74, 0
7, 67079, Note_on_c, 2, 71, 0
7, 67680, Note_on_c, 2, 78, 84
7, 67680, Note_on_c, 2, 81, 84
7, 67799, Note_on_c, 2, 78, 0
7, 67799, Note_on_c, 2, 81, 0
7, 68040, Note_on_c, 2, 81, 92
7, 68040, Note_on_c, 2, 78, 92
7, 68159, Note_on_c, 2, 81, 0
7, 68159, Note_on_c, 2, 78, 0
7, 68160, Note_on_c, 2, 81, 84
7, 68160, Note_on_c, 2, 76, 84
7, 68279, Note_on_c, 2, 81, 0
7, 68279, Note_on_c, 2, 76, 0
7, 68520, Note_on_c, 2, 81, 92
7, 68520, Note_on_c, 2, 76, 92
7, 68639, Note_on_c, 2, 81, 0
7, 68639, Note_on_c, 2, 76, 0
7, 68640, Note_on_c, 2, 78, 84
7, 68640, Note_on_c, 2, 81, 84
7, 68759, Note_on_c, 2, 78, 0
7, 68759, Note_on_c, 2, 81, 0
7, 69000, Note_on_c, 2, 78, 92
7, 69000, Note_on_c, 2, 81, 92
7, 69119, Note_on_c, 2, 78, 0
7, 69119, Note_on_c, 2, 81, 0
7, 69120, Note_on_c, 2, 78, 84
7, 69120, Note_on_c, 2, 81, 84
7, 69239, Note_on_c, 2, 78, 0
7, 69239, Note_on_c, 2, 81, 0
7, 69240, Note_on_c, 2, 77, 84
7, 69359, Note_on_c, 2, 77, 0
7, 69480, Note_on_c, 2, 76, 92
7, 69480, Note_on_c, 2, 85, 92
7, 69599, Note_on_c, 2, 76, 0
7, 69599, Note_on_c, 2, 85, 0
7, 69600, Note_on_c, 2, 83, 84
7, 69600, Note_on_c, 2, 75, 84
7, 69719, Note_on_c, 2, 83, 0
7, 69719, Note_on_c, 2, 75, 0
7, 69960, Note_on_c, 2, 83, 92
7, 69960, Note_on_c, 2, 74, 92
7, 70079, Note_on_c, 2, 83, 0
7, 70079, Note_on_c, 2, 74, 0
7, 70080, Note_on_c, 2, 73, 84
7, 70080, Note_on_c, 2, 81, 84
7, 70199, Note_on_c, 2, 73, 0
7, 70199, Note_on_c, 2, 81, 0
7, 70440, Note_on_c, 2, 81, 92
7, 70440, Note_on_c, 2, 76, 92
7, 70559, Note_on_c, 2, 81, 0
7, 70559, Note_on_c, 2, 76, 0
7, 70560, Note_on_c, 2, 76, 84
7, 70560, Note_on_c, 2, 80, 84
7, 70679, Note_on_c, 2, 76, 0
7, 70679, Note_on_c, 2, 80, 0
7, 70920, Note_on_c, 2, 80, 92
7, 70920, Note_on_c, 2, 76, 92
7, 71039, Note_on_c, 2, 80, 0
7, 71039, Note_on_c, 2, 76, 0
7, 71040, Note_on_c, 2, 81, 84
7, 71040, Note_on_c, 2, 76, 84
7, 71144, Note_on_c, 2, 81, 0
7, 71144, Note_on_c, 2, 76, 0
7, 71160, Note_on_c, 2, 81, 84
7, 71160, Note_on_c, 2, 69, 84
7, 71211, Note_on_c, 2, 81, 0
7, 71211, Note_on_c, 2, 69, 0
7, 71220, Note_on_c, 2, 81, 84
7, 71220, Note_on_c, 2, 69, 84
7, 71271, Note_on_c, 2, 81, 0
7, 71271, Note_on_c, 2, 69, 0
7, 71280, Note_on_c, 2, 69, 84
7, 71280, Note_on_c, 2, 81, 84
7, 71399, Note_on_c, 2, 69, 0
7, 71399, Note_on_c, 2, 81, 0
7, 71520, Note_on_c, 2, 81, 84
7, 71520, Note_on_c, 2, 78, 84
7, 71639, Note_on_c, 2, 81, 0
7, 71639, Note_on_c, 2, 78, 0
7, 71880, Note_on_c, 2, 78, 92
7, 71880, Note_on_c, 2, 81, 92
7, 71999, Note_on_c, 2, 78, 0
7, 71999, Note_on_c, 2, 81, 0
7, 72000, Note_on_c, 2, 76, 84
7, 72000, Note_on_c, 2, 81, 84
7, 72119, Note_on_c, 2, 76, 0
7, 72119, Note_on_c, 2, 81, 0
7, 72360, Note_on_c, 2, 81, 92
7, 72360, Note_on_c, 2, 76, 92
7, 72479, Note_on_c, 2, 81, 0
7, 72479, Note_on_c, 2, 76, 0
7, 72480, Note_on_c, 2, 81, 84
7, 72480, Note_on_c, 2, 78, 84
7, 72599, Note_on_c, 2, 81, 0
7, 72599, Note_on_c, 2, 78, 0
7, 72840, Note_on_c, 2, 81, 92
7, 72840, Note_on_c, 2, 78, 92
7, 72959, Note_on_c, 2, 81, 0
7, 72959, Note_on_c, 2, 78, 0
7, 72960, Note_on_c, 2, 78, 84
7, 72960, Note_on_c, 2, 81, 84
7, 73079, Note_on_c, 2, 78, 0
7, 73079, Note_on_c, 2, 81, 0
7, 73080, Note_on_c, 2, 77, 84
7, 73199, Note_on_c, 2, 77, 0
7, 73320, Note_on_c, 2, 85, 92
7, 73320, Note_on_c, 2, 76, 92
7, 73439, Note_on_c, 2, 85, 0
7, 73439, Note_on_c, 2, 76, 0
7, 73440, Note_on_c, 2, 83, 84
7, 73440, Note_on_c, 2, 75, 84
7, 73559, Note_on_c, 2, 83, 0
7, 73559, Note_on_c, 2, 75, 0
7, 73800, Note_on_c, 2, 74, 92
7, 73800, Note_on_c, 2, 83, 92
7, 73919, Note_on_c, 2, 74, 0
7, 73919, Note_on_c, 2, 83, 0
7, 73920, Note_on_c, 2, 81, 84
7, 73920, Note_on_c, 2, 73, 84
7, 74039, Note_on_c, 2, 81, 0
7, 74039, Note_on_c, 2, 73, 0
7, 74280, Note_on_c, 2, 81, 92
7, 74280, Note_on_c, 2, 76, 92
7, 74399, Note_on_c, 2, 81, 0
7, 74399, Note_on_c, 2, 76, 0
7, 74400, Note_on_c, 2, 80, 84
7, 74400, Note_on_c, 2, 76, 84
7, 74519, Note_on_c, 2, 80, 0
7, 74519, Note_on_c, 2, 76, 0
7, 74760, Note_on_c, 2, 80, 92
7, 74760, Note_on_c, 2, 76, 92
7, 74879, Note_on_c, 2, 80, 0
7, 74879, Note_on_c, 2, 76, 0
7, 74880, Note_on_c, 2, 76, 84
7, 74880, Note_on_c, 2, 81, 84
7, 74984, Note_on_c, 2, 76, 0
7, 74984, Note_on_c, 2, 81, 0
7, 75000, Note_on_c, 2, 81, 84
7, 75000, Note_on_c, 2, 69, 84
7, 75051, Note_on_c, 2, 81, 0
7, 75051, Note_on_c, 2, 69, 0
7, 75060, Note_on_c, 2, 81, 84
7, 75060, Note_on_c, 2, 69, 84
7, 75111, Note_on_c, 2, 81, 0
7, 75111, Note_on_c, 2, 69, 0
7, 75120, Note_on_c, 2, 81, 84
7, 75120, Note_on_c, 2, 69, 84
7, 75239, Note_on_c, 2, 81, 0
7, 75239, Note_on_c, 2, 69, 0
7, 75480, Note_on_c, 2, 69, 84
7, 75480, Note_on_c, 2, 81, 84
7, 75531, Note_on_c, 2, 69, 0
7, 75531, Note_on_c, 2, 81, 0
7, 75540, Note_on_c, 2, 81, 84
7, 75540, Note_on_c, 2, 69, 84
7, 75591, Note_on_c, 2, 81, 0
7, 75591, Note_on_c, 2, 69, 0
7, 75600, Note_on_c, 2, 69, 84
7, 75600, Note_on_c, 2, 81, 84
7, 75719, Note_on_c, 2, 69, 0
7, 75719, Note_on_c, 2, 81, 0
7, 75960, Note_on_c, 2, 80, 84
7, 75960, Note_on_c, 2, 83, 84
7, 76011, Note_on_c, 2, 80, 0
7, 76011, Note_on_c, 2, 83, 0
7, 76020, Note_on_c, 2, 80, 84
7, 76020, Note_on_c, 2, 83, 84
7, 76071, Note_on_c, 2, 80, 0
7, 76071, Note_on_c, 2, 83, 0
7, 76080, Note_on_c, 2, 80, 84
7, 76080, Note_on_c, 2, 83, 84
7, 76199, Note_on_c, 2, 80, 0
7, 76199, Note_on_c, 2, 83, 0
7, 76440, Note_on_c, 2, 83, 84
7, 76440, Note_on_c, 2, 80, 84
7, 76491, Note_on_c, 2, 83, 0
7, 76491, Note_on_c, 2, 80, 0
7, 76500, Note_on_c, 2, 80, 84
7, 76500, Note_on_c, 2, 83, 84
7, 76551, Note_on_c, 2, 80, 0
7, 76551, Note_on_c, 2, 83, 0
7, 76560, Note_on_c, 2, 80, 84
7, 76560, Note_on_c, 2, 83, 84
7, 76679, Note_on_c, 2, 80, 0
7, 76679, Note_on_c, 2, 83, 0
7, 76800, Note_on_c, 2, 85, 84
7, 76800, Note_on_c, 2, 76, 84
7, 77144, Note_on_c, 2, 85, 0
7, 77144, Note_on_c, 2, 76, 0
7, 77160, Note_on_c, 2, 74, 84
7, 77160, Note_on_c, 2, 83, 84
7, 77249, Note_on_c, 2, 74, 0
7, 77249, Note_on_c, 2, 83, 0
7, 77280, Note_on_c, 2, 81, 84
7, 77280, Note_on_c, 2, 73, 84
7, 77369, Note_on_c, 2, 81, 0
7, 77369, Note_on_c, 2, 73, 0
7, 77400, Note_on_c, 2, 76, 84
7, 77400, Note_on_c, 2, 85, 84
7, 77489, Note_on_c, 2, 76, 0
7, 77489, Note_on_c, 2, 85, 0
7, 77520, Note_on_c, 2, 74, 84
7, 77520, Note_on_c, 2, 83, 84
7, 77609, Note_on_c, 2, 74, 0
7, 77609, Note_on_c, 2, 83, 0
7, 77640, Note_on_c, 2, 81, 84
7, 77640, Note_on_c, 2, 73, 84
7, 77729, Note_on_c, 2, 81, 0
7, 77729, Note_on_c, 2, 73, 0
7, 77760, Note_on_c, 2, 83, 84
7, 77760, Note_on_c, 2, 74, 84
7, 77849, Note_on_c, 2, 83, 0
7, 77849, Note_on_c, 2, 74, 0
7, 77880, Note_on_c, 2, 73, 84
7, 77880, Note_on_c, 2, 81, 84
7, 77969, Note_on_c, 2, 73, 0
7, 77969, Note_on_c, 2, 81, 0
7, 78000, Note_on_c, 2, 71, 84
7, 78000, Note_on_c, 2, 80, 84
7, 78089, Note_on_c, 2, 71, 0
7, 78089, Note_on_c, 2, 80, 0
7, 78120, Note_on_c, 2, 78, 84
7, 78120, Note_on_c, 2, 74, 84
7, 78209, Note_on_c, 2, 78, 0
7, 78209, Note_on_c, 2, 74, 0
7, 78240, Note_on_c, 2, 76, 84
7, 78240, Note_on_c, 2, 73, 84
7, 78329, Note_on_c, 2, 76, 0
7, 78329, Note_on_c, 2, 73, 0
7, 78360, Note_on_c, 2, 74, 84
7, 78360, Note_on_c, 2, 71, 84
7, 78449, Note_on_c, 2, 74, 0
7, 78449, Note_on_c, 2, 71, 0
7, 78480, Note_on_c, 2, 69, 84
7, 78480, Note_on_c, 2, 73, 84
7, 78569, Note_on_c, 2, 69, 0
7, 78569, Note_on_c, 2, 73, 0
7, 78600, Note_on_c, 2, 68, 84
7, 78600, Note_on_c, 2, 71, 84
7, 78689, Note_on_c, 2, 68, 0
7, 78689, Note_on_c, 2, 71, 0
7, 78720, Note_on_c, 2, 69, 84
7, 78824, Note_on_c, 2, 69, 0
7, 78840, Note_on_c, 2, 69, 84
7, 78840, Note_on_c, 2, 81, 84
7, 78891, Note_on_c, 2, 69, 0
7, 78891, Note_on_c, 2, 81, 0
7, 78900, Note_on_c, 2, 69, 84
7, 78900, Note_on_c, 2, 81, 84
7, 78951, Note_on_c, 2, 69, 0
7, 78951, Note_on_c, 2, 81, 0
7, 78960, Note_on_c, 2, 81, 84
7, 78960, Note_on_c, 2, 69, 84
7, 79079, Note_on_c, 2, 81, 0
7, 79079, Note_on_c, 2, 69, 0
7, 79320, Note_on_c, 2, 81, 84
7, 79320, Note_on_c, 2, 69, 84
7, 79371, Note_on_c, 2, 81, 0
7, 79371, Note_on_c, 2, 69, 0
7, 79380, Note_on_c, 2, 69, 84
7, 79380, Note_on_c, 2, 81, 84
7, 79431, Note_on_c, 2, 69, 0
7, 79431, Note_on_c, 2, 81, 0
7, 79440, Note_on_c, 2, 81, 84
7, 79440, Note_on_c, 2, 69, 84
7, 79559, Note_on_c, 2, 81, 0
7, 79559, Note_on_c, 2, 69, 0
7, 79800, Note_on_c, 2, 80, 84
7, 79800, Note_on_c, 2, 83, 84
7, 79851, Note_on_c, 2, 80, 0
7, 79851, Note_on_c, 2, 83, 0
7, 79860, Note_on_c, 2, 80, 84
7, 79860, Note_on_c, 2, 83, 84
7, 79911, Note_on_c, 2, 80, 0
7, 79911, Note_on_c, 2, 83, 0
7, 79920, Note_on_c, 2, 80, 84
7, 79920, Note_on_c, 2, 83, 84
7, 80039, Note_on_c, 2, 80, 0
7, 80039, Note_on_c, 2, 83, 0
7, 80280, Note_on_c, 2, 83, 84
7, 80280, Note_on_c, 2, 80, 84
7, 80331, Note_on_c, 2, 83, 0
7, 80331, Note_on_c, 2, 80, 0
7, 80340, Note_on_c, 2, 83, 84
7, 80340, Note_on_c, 2, 80, 84
7, 80391, Note_on_c, 2, 83, 0
7, 80391, Note_on_c, 2, 80, 0
7, 80400, Note_on_c, 2, 83, 84
7, 80400, Note_on_c, 2, 80, 84
7, 80519, Note_on_c, 2, 83, 0
7, 80519, Note_on_c, 2, 80, 0
7, 80640, Note_on_c, 2, 81, 84
7, 80640, Note_on_c, 2, 85, 84
7, 80759, Note_on_c, 2, 81, 0
7, 80759, Note_on_c, 2, 85, 0
7, 80880, Note_on_c, 2, 85, 84
7, 80880, Note_on_c, 2, 81, 84
7, 80999, Note_on_c, 2, 85, 0
7, 80999, Note_on_c, 2, 81, 0
7, 81120, Note_on_c, 2, 81, 84
7, 81120, Note_on_c, 2, 85, 84
7, 81239, Note_on_c, 2, 81, 0
7, 81239, Note_on_c, 2, 85, 0
7, 81360, Note_on_c, 2, 85, 84
7, 81360, Note_on_c, 2, 81, 84
7, 81479, Note_on_c, 2, 85, 0
7, 81479, Note_on_c, 2, 81, 0
7, 81600, Note_on_c, 2, 86, 84
7, 81600, Note_on_c, 2, 83, 84
7, 81719, Note_on_c, 2, 86, 0
7, 81719, Note_on_c, 2, 83, 0
7, 81840, Note_on_c, 2, 83, 84
7, 81840, Note_on_c, 2, 86, 84
7, 81959, Note_on_c, 2, 83, 0
7, 81959, Note_on_c, 2, 86, 0
7, 82080, Note_on_c, 2, 83, 84
7, 82080, Note_on_c, 2, 86, 84
7, 82199, Note_on_c, 2, 83, 0
7, 82199, Note_on_c, 2, 86, 0
7, 82320, Note_on_c, 2, 86, 84
7, 82320, Note_on_c, 2, 83, 84
7, 82439, Note_on_c, 2, 86, 0
7, 82439, Note_on_c, 2, 83, 0
7, 82560, Note_on_c, 2, 81, 84
7, 82560, Note_on_c, 2, 85, 84
7, 82679, Note_on_c, 2, 81, 0
7, 82679, Note_on_c, 2, 85, 0
7, 83040, Note_on_c, 2, 76, 84
7, 83040, Note_on_c, 2, 64, 84
7, 84599, Note_on_c, 2, 76, 0
7, 84599, Note_on_c, 2, 64, 0
7, 84960, Note_on_c, 2, 64, 84
7, 84960, Note_on_c, 2, 76, 84
7, 86159, Note_on_c, 2, 64, 0
7, 86159, Note_on_c, 2, 76, 0
7, 86160, Note_on_c, 2, 77, 84
7, 86399, Note_on_c, 2, 77, 0
7, 86400, Note_on_c, 2, 78, 84
7, 86519, Note_on_c, 2, 78, 0
7, 86880, Note_on_c, 2, 73, 84
7, 86880, Note_on_c, 2, 85, 84
7, 88439, Note_on_c, 2, 73, 0
7, 88439, Note_on_c, 2, 85, 0
7, 88800, Note_on_c, 2, 85, 84
7, 88800, Note_on_c, 2, 73, 84
7, 89984, Note_on_c, 2, 85, 0
7, 89984, Note_on_c, 2, 73, 0
7, 90000, Note_on_c, 2, 77, 84
7, 90000, Note_on_c, 2, 73, 84
7, 90239, Note_on_c, 2, 77, 0
7, 90240, Note_on_c, 2, 78, 84
7, 90359, Note_on_c, 2, 73, 0
7, 90359, Note_on_c, 2, 78, 0
7, 90480, Note_on_c, 2, 73, 84
7, 90480, Note_on_c, 2, 81, 84
7, 90599, Note_on_c, 2, 73, 0
7, 90599, Note_on_c, 2, 81, 0
7, 90720, Note_on_c, 2, 73, 84
7, 90720, Note_on_c, 2, 81, 84
7, 90839, Note_on_c, 2, 73, 0
7, 90839, Note_on_c, 2, 81, 0
7, 90960, Note_on_c, 2, 81, 84
7, 90960, Note_on_c, 2, 73, 84
7, 91079, Note_on_c, 2, 81, 0
7, 91079, Note_on_c, 2, 73, 0
7, 91200, Note_on_c, 2, 83, 84
7, 91200, Note_on_c, 2, 73, 84
7, 91319, Note_on_c, 2, 83, 0
7, 91319, Note_on_c, 2, 73, 0
7, 91440, Note_on_c, 2, 83, 84
7, 91440, Note_on_c, 2, 73, 84
7, 91559, Note_on_c, 2, 83, 0
7, 91559, Note_on_c, 2, 73, 0
7, 91680, Note_on_c, 2, 83, 84
7, 91680, Note_on_c, 2, 73, 84
7, 91799, Note_on_c, 2, 83, 0
7, 91799, Note_on_c, 2, 73, 0
7, 91920, Note_on_c, 2, 83, 84
7, 91920, Note_on_c, 2, 73, 84
7, 92039, Note_on_c, 2, 83, 0
7, 92039, Note_on_c, 2, 73, 0
7, 92160, Note_on_c, 2, 81, 84
7, 92160, Note_on_c, 2, 73, 84
7, 92279, Note_on_c, 2, 81, 0
7, 92279, Note_on_c, 2, 73, 0
7, 92400, Note_on_c, 2, 73, 84
7, 92400, Note_on_c, 2, 81, 84
7, 92519, Note_on_c, 2, 73, 0
7, 92519, Note_on_c, 2, 81, 0
7, 92640, Note_on_c, 2, 73, 84
7, 92640, Note_on_c, 2, 82, 84
7, 92759, Note_on_c, 2, 73, 0
7, 92759, Note_on_c, 2, 82, 0
7, 92880, Note_on_c, 2, 82, 84
7, 92880, Note_on_c, 2, 73, 84
7, 92999, Note_on_c, 2, 82, 0
7, 92999, Note_on_c, 2, 73, 0
7, 93120, Note_on_c, 2, 75, 84
7, 93120, Note_on_c, 2, 84, 84
7, 93239, Note_on_c, 2, 75, 0
7, 93239, Note_on_c, 2, 84, 0
7, 93360, Note_on_c, 2, 75, 84
7, 93360, Note_on_c, 2, 84, 84
7, 93479, Note_on_c, 2, 75, 0
7, 93479, Note_on_c, 2, 84, 0
7, 93600, Note_on_c, 2, 76, 84
7, 93600, Note_on_c, 2, 85, 84
7, 93719, Note_on_c, 2, 76, 0
7, 93719, Note_on_c, 2, 85, 0
7, 93840, Note_on_c, 2, 85, 84
7, 93840, Note_on_c, 2, 76, 84
7, 93959, Note_on_c, 2, 85, 0
7, 93959, Note_on_c, 2, 76, 0
7, 94080, Note_on_c, 2, 78, 84
7, 94080, Note_on_c, 2, 75, 84
7, 94199, Note_on_c, 2, 78, 0
7, 94199, Note_on_c, 2, 75, 0
7, 94320, Note_on_c, 2, 78, 84
7, 94320, Note_on_c, 2, 75, 84
7, 94439, Note_on_c, 2, 78, 0
7, 94439, Note_on_c, 2, 75, 0
7, 94560, Note_on_c, 2, 75, 84
7, 94560, Note_on_c, 2, 78, 84
7, 94679, Note_on_c, 2, 75, 0
7, 94679, Note_on_c, 2, 78, 0
7, 94800, Note_on_c, 2, 78, 84
7, 94800, Note_on_c, 2, 75, 84
7, 94919, Note_on_c, 2, 78, 0
7, 94919, Note_on_c, 2, 75, 0
7, 95040, Note_on_c, 2, 75, 84
7, 95040, Note_on_c, 2, 78, 84
7, 95159, Note_on_c, 2, 75, 0
7, 95159, Note_on_c, 2, 78, 0
7, 95280, Note_on_c, 2, 75, 76
7, 95280, Note_on_c, 2, 78, 76
7, 95369, Note_on_c, 2, 75, 0
7, 95369, Note_on_c, 2, 78, 0
7, 97200, Note_on_c, 2, 75, 76
7, 97200, Note_on_c, 2, 78, 76
7, 97289, Note_on_c, 2, 75, 0
7, 97289, Note_on_c, 2, 78, 0
7, 101040, Note_on_c, 2, 80, 76
7, 101279, Note_on_c, 2, 80, 0
7, 101520, Note_on_c, 2, 80, 76
7, 101520, Note_on_c, 2, 78, 76
7, 101759, Note_on_c, 2, 80, 0
7, 101759, Note_on_c, 2, 78, 0
7, 102000, Note_on_c, 2, 80, 76
7, 102000, Note_on_c, 2, 76, 76
7, 102239, Note_on_c, 2, 80, 0
7, 102239, Note_on_c, 2, 76, 0
7, 102480, Note_on_c, 2, 80, 76
7, 102480, Note_on_c, 2, 78, 76
7, 102704, Note_on_c, 2, 80, 0
7, 102704, Note_on_c, 2, 78, 0
7, 102720, Note_on_c, 2, 76, 48
7, 103319, Note_on_c, 2, 76, 0
7, 103380, Note_on_c, 2, 78, 48
7, 103439, Note_on_c, 2, 78, 0
7, 103440, Note_on_c, 2, 79, 48
7, 103559, Note_on_c, 2, 79, 0
7, 103620, Note_on_c, 2, 76, 48
7, 103679, Note_on_c, 2, 76, 0
7, 103680, Note_on_c, 2, 78, 48
7, 103799, Note_on_c, 2, 78, 0
7, 103860, Note_on_c, 2, 76, 48
7, 103919, Note_on_c, 2, 76, 0
7, 103920, Note_on_c, 2, 74, 48
7, 104039, Note_on_c, 2, 74, 0
7, 104100, Note_on_c, 2, 78, 48
7, 104159, Note_on_c, 2, 78, 0
7, 104160, Note_on_c, 2, 76, 48
7, 104279, Note_on_c, 2, 76, 0
7, 104340, Note_on_c, 2, 78, 48
7, 104399, Note_on_c, 2, 78, 0
7, 104400, Note_on_c, 2, 79, 48
7, 104519, Note_on_c, 2, 79, 0
7, 104580, Note_on_c, 2, 76, 48
7, 104639, Note_on_c, 2, 76, 0
7, 104640, Note_on_c, 2, 78, 48
7, 104759, Note_on_c, 2, 78, 0
7, 104820, Note_on_c, 2, 76, 48
7, 104879, Note_on_c, 2, 76, 0
7, 104880, Note_on_c, 2, 74, 48
7, 104999, Note_on_c, 2, 74, 0
7, 105060, Note_on_c, 2, 78, 48
7, 105119, Note_on_c, 2, 78, 0
7, 105840, Note_on_c, 2, 80, 76
7, 106079, Note_on_c, 2, 80, 0
7, 106320, Note_on_c, 2, 80, 76
7, 106320, Note_on_c, 2, 78, 76
7, 106559, Note_on_c, 2, 80, 0
7, 106559, Note_on_c, 2, 78, 0
7, 106800, Note_on_c, 2, 76, 76
7, 106800, Note_on_c, 2, 80, 76
7, 107039, Note_on_c, 2, 76, 0
7, 107039, Note_on_c, 2, 80, 0
7, 107280, Note_on_c, 2, 80, 76
7, 107280, Note_on_c, 2, 78, 76
7, 107504, Note_on_c, 2, 80, 0
7, 107504, Note_on_c, 2, 78, 0
7, 107520, Note_on_c, 2, 76, 52
7, 108119, Note_on_c, 2, 76, 0
7, 108180, Note_on_c, 2, 78, 52
7, 108239, Note_on_c, 2, 78, 0
7, 108240, Note_on_c, 2, 79, 52
7, 108359, Note_on_c, 2, 79, 0
7, 108420, Note_on_c, 2, 76, 52
7, 108479, Note_on_c, 2, 76, 0
7, 108480, Note_on_c, 2, 78, 52
7, 108599, Note_on_c, 2, 78, 0
7, 108660, Note_on_c, 2, 76, 52
7, 108719, Note_on_c, 2, 76, 0
7, 108720, Note_on_c, 2, 74, 52
7, 108839, Note_on_c, 2, 74, 0
7, 108900, Note_on_c, 2, 78, 52
7, 108959, Note_on_c, 2, 78, 0
7, 108960, Note_on_c, 2, 76, 52
7, 109079, Note_on_c, 2, 76, 0
7, 109140, Note_on_c, 2, 78, 52
7, 109199, Note_on_c, 2, 78, 0
7, 109200, Note_on_c, 2, 79, 52
7, 109319, Note_on_c, 2, 79, 0
7, 109380, Note_on_c, 2, 78, 52
7, 109439, Note_on_c, 2, 78, 0
7, 109440, Note_on_c, 2, 79, 52
7, 109440, Note_on_c, 2, 76, 52
7, 109559, Note_on_c, 2, 79, 0
7, 109559, Note_on_c, 2, 76, 0
7, 109668, Control_c, 2, 11, 64
7, 109680, Control_c, 2, 11, 64
7, 109680, Note_on_c, 2, 76, 84
7, 109680, Note_on_c, 2, 79, 84
7, 109768, Control_c, 2, 11, 65
7, 109855, Control_c, 2, 11, 66
7, 109943, Control_c, 2, 11, 67
7, 110030, Control_c, 2, 11, 68
7, 110118, Control_c, 2, 11, 69
7, 110206, Control_c, 2, 11, 70
7, 110293, Control_c, 2, 11, 71
7, 110381, Control_c, 2, 11, 72
7, 110469, Control_c, 2, 11, 73
7, 110556, Control_c, 2, 11, 74
7, 110644, Control_c, 2, 11, 75
7, 110731, Control_c, 2, 11, 76
7, 110819, Control_c, 2, 11, 77
7, 110907, Control_c, 2, 11, 78
7, 110994, Control_c, 2, 11, 79
7, 111082, Control_c, 2, 11, 80
7, 111170, Control_c, 2, 11, 81
7, 111257, Control_c, 2, 11, 82
7, 111345, Control_c, 2, 11, 83
7, 111432, Control_c, 2, 11, 84
7, 111520, Control_c, 2, 11, 85
7, 111608, Control_c, 2, 11, 86
7, 111695, Control_c, 2, 11, 87
7, 111783, Control_c, 2, 11, 88
7, 111824, Note_on_c, 2, 76, 0
7, 111824, Note_on_c, 2, 79, 0
7, 111840, Note_on_c, 2, 78, 84
7, 111840, Note_on_c, 2, 74, 84
7, 111870, Control_c, 2, 11, 89
7, 111958, Control_c, 2, 11, 90
7, 112046, Control_c, 2, 11, 91
7, 112133, Control_c, 2, 11, 92
7, 112221, Control_c, 2, 11, 93
7, 112304, Note_on_c, 2, 78, 0
7, 112304, Note_on_c, 2, 74, 0
7, 112309, Control_c, 2, 11, 94
7, 112320, Note_on_c, 2, 76, 84
7, 112320, Note_on_c, 2, 79, 84
7, 112396, Control_c, 2, 11, 95
7, 112484, Control_c, 2, 11, 96
7, 112571, Control_c, 2, 11, 97
7, 112659, Control_c, 2, 11, 98
7, 112747, Control_c, 2, 11, 99
7, 112834, Control_c, 2, 11, 100
7, 112922, Control_c, 2, 11, 101
7, 113010, Control_c, 2, 11, 102
7, 113097, Control_c, 2, 11, 103
7, 113185, Control_c, 2, 11, 104
7, 113272, Control_c, 2, 11, 105
7, 113360, Control_c, 2, 11, 106
7, 113448, Control_c, 2, 11, 107
7, 113535, Control_c, 2, 11, 108
7, 113623, Control_c, 2, 11, 109
7, 113710, Control_c, 2, 11, 110
7, 113798, Control_c, 2, 11, 111
7, 113886, Control_c, 2, 11, 112
7, 113973, Control_c, 2, 11, 113
7, 114061, Control_c, 2, 11, 114
7, 114149, Control_c, 2, 11, 115
7, 114236, Control_c, 2, 11, 116
7, 114324, Control_c, 2, 11, 117
7, 114411, Control_c, 2, 11, 118
7, 114499, Control_c, 2, 11, 119
7, 114587, Control_c, 2, 11, 120
7, 114674, Control_c, 2, 11, 121
7, 114704, Note_on_c, 2, 76, 0
7, 114704, Note_on_c, 2, 79, 0
7, 114720, Note_on_c, 2, 74, 84
7, 114720, Note_on_c, 2, 78, 84
7, 114762, Control_c, 2, 11, 122
7, 114850, Control_c, 2, 11, 123
7, 114937, Control_c, 2, 11, 124
7, 115025, Control_c, 2, 11, 125
7, 115112, Control_c, 2, 11, 127
7, 115184, Note_on_c, 2, 74, 0
7, 115184, Note_on_c, 2, 78, 0
7, 115200, Note_on_c, 2, 78, 84
7, 115200, Note_on_c, 2, 81, 84
7, 115304, Note_on_c, 2, 78, 0
7, 115304, Note_on_c, 2, 81, 0
7, 115320, Note_on_c, 2, 81, 84
7, 115320, Note_on_c, 2, 78, 84
7, 115424, Note_on_c, 2, 81, 0
7, 115424, Note_on_c, 2, 78, 0
7, 115440, Note_on_c, 2, 78, 84
7, 115440, Note_on_c, 2, 81, 84
7, 115544, Note_on_c, 2, 78, 0
7, 115544, Note_on_c, 2, 81, 0
7, 115560, Note_on_c, 2, 78, 84
7, 115560, Note_on_c, 2, 81, 84
7, 115664, Note_on_c, 2, 78, 0
7, 115664, Note_on_c, 2, 81, 0
7, 115680, Note_on_c, 2, 81, 84
7, 115680, Note_on_c, 2, 78, 84
7, 115784, Note_on_c, 2, 81, 0
7, 115784, Note_on_c, 2, 78, 0
7, 115800, Note_on_c, 2, 78, 84
7, 115800, Note_on_c, 2, 81, 84
7, 115904, Note_on_c, 2, 78, 0
7, 115904, Note_on_c, 2, 81, 0
7, 115920, Note_on_c, 2, 78, 84
7, 115920, Note_on_c, 2, 81, 84
7, 116024, Note_on_c, 2, 78, 0
7, 116024, Note_on_c, 2, 81, 0
7, 116040, Note_on_c, 2, 78, 84
7, 116040, Note_on_c, 2, 81, 84
7, 116144, Note_on_c, 2, 78, 0
7, 116144, Note_on_c, 2, 81, 0
7, 116160, Note_on_c, 2, 80, 92
7, 116160, Note_on_c, 2, 76, 92
7, 116264, Note_on_c, 2, 80, 0
7, 116264, Note_on_c, 2, 76, 0
7, 116280, Note_on_c, 2, 76, 84
7, 116280, Note_on_c, 2, 80, 84
7, 116384, Note_on_c, 2, 76, 0
7, 116384, Note_on_c, 2, 80, 0
7, 116400, Note_on_c, 2, 76, 84
7, 116400, Note_on_c, 2, 80, 84
7, 116504, Note_on_c, 2, 76, 0
7, 116504, Note_on_c, 2, 80, 0
7, 116520, Note_on_c, 2, 80, 84
7, 116520, Note_on_c, 2, 76, 84
7, 116624, Note_on_c, 2, 80, 0
7, 116624, Note_on_c, 2, 76, 0
7, 116640, Note_on_c, 2, 81, 92
7, 116640, Note_on_c, 2, 78, 92
7, 116744, Note_on_c, 2, 81, 0
7, 116744, Note_on_c, 2, 78, 0
7, 116760, Note_on_c, 2, 78, 84
7, 116760, Note_on_c, 2, 81, 84
7, 116864, Note_on_c, 2, 78, 0
7, 116864, Note_on_c, 2, 81, 0
7, 116880, Note_on_c, 2, 81, 84
7, 116880, Note_on_c, 2, 78, 84
7, 116984, Note_on_c, 2, 81, 0
7, 116984, Note_on_c, 2, 78, 0
7, 117000, Note_on_c, 2, 78, 84
7, 117000, Note_on_c, 2, 81, 84
7, 117104, Note_on_c, 2, 78, 0
7, 117104, Note_on_c, 2, 81, 0
7, 117120, Note_on_c, 2, 76, 92
7, 117120, Note_on_c, 2, 80, 92
7, 117224, Note_on_c, 2, 76, 0
7, 117224, Note_on_c, 2, 80, 0
7, 117240, Note_on_c, 2, 76, 84
7, 117240, Note_on_c, 2, 80, 84
7, 117344, Note_on_c, 2, 76, 0
7, 117344, Note_on_c, 2, 80, 0
7, 117360, Note_on_c, 2, 80, 84
7, 117360, Note_on_c, 2, 76, 84
7, 117464, Note_on_c, 2, 80, 0
7, 117464, Note_on_c, 2, 76, 0
7, 117480, Note_on_c, 2, 80, 84
7, 117480, Note_on_c, 2, 76, 84
7, 117584, Note_on_c, 2, 80, 0
7, 117584, Note_on_c, 2, 76, 0
7, 117600, Note_on_c, 2, 78, 92
7, 117600, Note_on_c, 2, 81, 92
7, 117704, Note_on_c, 2, 78, 0
7, 117704, Note_on_c, 2, 81, 0
7, 117720, Note_on_c, 2, 81, 84
7, 117720, Note_on_c, 2, 78, 84
7, 117824, Note_on_c, 2, 81, 0
7, 117824, Note_on_c, 2, 78, 0
7, 117840, Note_on_c, 2, 78, 84
7, 117840, Note_on_c, 2, 81, 84
7, 117944, Note_on_c, 2, 78, 0
7, 117944, Note_on_c, 2, 81, 0
7, 117960, Note_on_c, 2, 81, 84
7, 117960, Note_on_c, 2, 78, 84
7, 118064, Note_on_c, 2, 81, 0
7, 118064, Note_on_c, 2, 78, 0
7, 118080, Note_on_c, 2, 76, 92
7, 118080, Note_on_c, 2, 80, 92
7, 118184, Note_on_c, 2, 76, 0
7, 118184, Note_on_c, 2, 80, 0
7, 118200, Note_on_c, 2, 76, 84
7, 118200, Note_on_c, 2, 80, 84
7, 118304, Note_on_c, 2, 76, 0
7, 118304, Note_on_c, 2, 80, 0
7, 118320, Note_on_c, 2, 76, 84
7, 118320, Note_on_c, 2, 80, 84
7, 118424, Note_on_c, 2, 76, 0
7, 118424, Note_on_c, 2, 80, 0
7, 118440, Note_on_c, 2, 80, 84
7, 118440, Note_on_c, 2, 76, 84
7, 118544, Note_on_c, 2, 80, 0
7, 118544, Note_on_c, 2, 76, 0
7, 118560, Note_on_c, 2, 78, 92
7, 118560, Note_on_c, 2, 81, 92
7, 118664, Note_on_c, 2, 78, 0
7, 118664, Note_on_c, 2, 81, 0
7, 118680, Note_on_c, 2, 81, 84
7, 118680, Note_on_c, 2, 78, 84
7, 118784, Note_on_c, 2, 81, 0
7, 118784, Note_on_c, 2, 78, 0
7, 118800, Note_on_c, 2, 78, 84
7, 118800, Note_on_c, 2, 81, 84
7, 118904, Note_on_c, 2, 78, 0
7, 118904, Note_on_c, 2, 81, 0
7, 118920, Note_on_c, 2, 78, 84
7, 118920, Note_on_c, 2, 81, 84
7, 119024, Note_on_c, 2, 78, 0
7, 119024, Note_on_c, 2, 81, 0
7, 119040, Note_on_c, 2, 80, 92
7, 119040, Note_on_c, 2, 76, 92
7, 119144, Note_on_c, 2, 80, 0
7, 119144, Note_on_c, 2, 76, 0
7, 119160, Note_on_c, 2, 80, 84
7, 119160, Note_on_c, 2, 76, 84
7, 119264, Note_on_c, 2, 80, 0
7, 119264, Note_on_c, 2, 76, 0
7, 119280, Note_on_c, 2, 76, 84
7, 119280, Note_on_c, 2, 80, 84
7, 119384, Note_on_c, 2, 76, 0
7, 119384, Note_on_c, 2, 80, 0
7, 119400, Note_on_c, 2, 76, 84
7, 119400, Note_on_c, 2, 80, 84
7, 119504, Note_on_c, 2, 76, 0
7, 119504, Note_on_c, 2, 80, 0
7, 119520, Note_on_c, 2, 80, 92
7, 119520, Note_on_c, 2, 78, 92
7, 119624, Note_on_c, 2, 80, 0
7, 119624, Note_on_c, 2, 78, 0
7, 119640, Note_on_c, 2, 78, 84
7, 119640, Note_on_c, 2, 80, 84
7, 119744, Note_on_c, 2, 78, 0
7, 119744, Note_on_c, 2, 80, 0
7, 119760, Note_on_c, 2, 78, 84
7, 119760, Note_on_c, 2, 80, 84
7, 119864, Note_on_c, 2, 78, 0
7, 119864, Note_on_c, 2, 80, 0
7, 119880, Note_on_c, 2, 78, 84
7, 119880, Note_on_c, 2, 80, 84
7, 119984, Note_on_c, 2, 78, 0
7, 119984, Note_on_c, 2, 80, 0
7, 120000, Note_on_c, 2, 80, 84
7, 120000, Note_on_c, 2, 76, 84
7, 120104, Note_on_c, 2, 80, 0
7, 120104, Note_on_c, 2, 76, 0
7, 120120, Note_on_c, 2, 76, 84
7, 120120, Note_on_c, 2, 80, 84
7, 120224, Note_on_c, 2, 76, 0
7, 120224, Note_on_c, 2, 80, 0
7, 120240, Note_on_c, 2, 81, 92
7, 120240, Note_on_c, 2, 78, 92
7, 120344, Note_on_c, 2, 81, 0
7, 120344, Note_on_c, 2, 78, 0
7, 120360, Note_on_c, 2, 81, 84
7, 120360, Note_on_c, 2, 78, 84
7, 120464, Note_on_c, 2, 81, 0
7, 120464, Note_on_c, 2, 78, 0
7, 120480, Note_on_c, 2, 81, 92
7, 120480, Note_on_c, 2, 78, 92
7, 120584, Note_on_c, 2, 81, 0
7, 120584, Note_on_c, 2, 78, 0
7, 120600, Note_on_c, 2, 78, 84
7, 120600, Note_on_c, 2, 81, 84
7, 120704, Note_on_c, 2, 78, 0
7, 120704, Note_on_c, 2, 81, 0
7, 120720, Note_on_c, 2, 78, 84
7, 120720, Note_on_c, 2, 81, 84
7, 120824, Note_on_c, 2, 78, 0
7, 120824, Note_on_c, 2, 81, 0
7, 120840, Note_on_c, 2, 81, 84
7, 120840, Note_on_c, 2, 78, 84
7, 120944, Note_on_c, 2, 81, 0
7, 120944, Note_on_c, 2, 78, 0
7, 120960, Note_on_c, 2, 76, 84
7, 120960, Note_on_c, 2, 80, 84
7, 121064, Note_on_c, 2, 76, 0
7, 121064, Note_on_c, 2, 80, 0
7, 121080, Note_on_c, 2, 76, 84
7, 121080, Note_on_c, 2, 80, 84
7, 121184, Note_on_c, 2, 76, 0
7, 121184, Note_on_c, 2, 80, 0
7, 121200, Note_on_c, 2, 81, 92
7, 121200, Note_on_c, 2, 78, 92
7, 121304, Note_on_c, 2, 81, 0
7, 121304, Note_on_c, 2, 78, 0
7, 121320, Note_on_c, 2, 81, 84
7, 121320, Note_on_c, 2, 78, 84
7, 121424, Note_on_c, 2, 81, 0
7, 121424, Note_on_c, 2, 78, 0
7, 121440, Note_on_c, 2, 81, 92
7, 121440, Note_on_c, 2, 78, 92
7, 121544, Note_on_c, 2, 81, 0
7, 121544, Note_on_c, 2, 78, 0
7, 121560, Note_on_c, 2, 78, 84
7, 121560, Note_on_c, 2, 81, 84
7, 121664, Note_on_c, 2, 78, 0
7, 121664, Note_on_c, 2, 81, 0
7, 121680, Note_on_c, 2, 81, 84
7, 121680, Note_on_c, 2, 78, 84
7, 121784, Note_on_c, 2, 81, 0
7, 121784, Note_on_c, 2, 78, 0
7, 121800, Note_on_c, 2, 81, 84
7, 121800, Note_on_c, 2, 78, 84
7, 121904, Note_on_c, 2, 81, 0
7, 121904, Note_on_c, 2, 78, 0
7, 121920, Note_on_c, 2, 80, 84
7, 121920, Note_on_c, 2, 76, 84
7, 122024, Note_on_c, 2, 80, 0
7, 122024, Note_on_c, 2, 76, 0
7, 122040, Note_on_c, 2, 80, 84
7, 122040, Note_on_c, 2, 76, 84
7, 122144, Note_on_c, 2, 80, 0
7, 122144, Note_on_c, 2, 76, 0
7, 122160, Note_on_c, 2, 78, 92
7, 122160, Note_on_c, 2, 81, 92
7, 122264, Note_on_c, 2, 78, 0
7, 122264, Note_on_c, 2, 81, 0
7, 122280, Note_on_c, 2, 81, 84
7, 122280, Note_on_c, 2, 78, 84
7, 122384, Note_on_c, 2, 81, 0
7, 122384, Note_on_c, 2, 78, 0
7, 122400, Note_on_c, 2, 80, 84
7, 122400, Note_on_c, 2, 76, 84
7, 122504, Note_on_c, 2, 80, 0
7, 122504, Note_on_c, 2, 76, 0
7, 122520, Note_on_c, 2, 80, 84
7, 122520, Note_on_c, 2, 76, 84
7, 122624, Note_on_c, 2, 80, 0
7, 122624, Note_on_c, 2, 76, 0
7, 122640, Note_on_c, 2, 78, 92
7, 122640, Note_on_c, 2, 81, 92
7, 122744, Note_on_c, 2, 78, 0
7, 122744, Note_on_c, 2, 81, 0
7, 122760, Note_on_c, 2, 78, 84
7, 122760, Note_on_c, 2, 81, 84
7, 122864, Note_on_c, 2, 78, 0
7, 122864, Note_on_c, 2, 81, 0
7, 122880, Note_on_c, 2, 76, 84
7, 122880, Note_on_c, 2, 80, 84
7, 122984, Note_on_c, 2, 76, 0
7, 122984, Note_on_c, 2, 80, 0
7, 123000, Note_on_c, 2, 76, 84
7, 123000, Note_on_c, 2, 80, 84
7, 123104, Note_on_c, 2, 76, 0
7, 123104, Note_on_c, 2, 80, 0
7, 123120, Note_on_c, 2, 78, 92
7, 123120, Note_on_c, 2, 81, 92
7, 123224, Note_on_c, 2, 78, 0
7, 123224, Note_on_c, 2, 81, 0
7, 123240, Note_on_c, 2, 81, 84
7, 123240, Note_on_c, 2, 78, 84
7, 123344, Note_on_c, 2, 81, 0
7, 123344, Note_on_c, 2, 78, 0
7, 123360, Note_on_c, 2, 80, 84
7, 123360, Note_on_c, 2, 76, 84
7, 123464, Note_on_c, 2, 80, 0
7, 123464, Note_on_c, 2, 76, 0
7, 123480, Note_on_c, 2, 69, 84
7, 123480, Note_on_c, 2, 81, 84
7, 123584, Note_on_c, 2, 69, 0
7, 123584, Note_on_c, 2, 81, 0
7, 123600, Note_on_c, 2, 70, 84
7, 123600, Note_on_c, 2, 82, 84
7, 123704, Note_on_c, 2, 70, 0
7, 123704, Note_on_c, 2, 82, 0
7, 123720, Note_on_c, 2, 70, 84
7, 123720, Note_on_c, 2, 82, 84
7, 123824, Note_on_c, 2, 70, 0
7, 123824, Note_on_c, 2, 82, 0
7, 123840, Note_on_c, 2, 70, 84
7, 123840, Note_on_c, 2, 82, 84
7, 123944, Note_on_c, 2, 70, 0
7, 123944, Note_on_c, 2, 82, 0
7, 123960, Note_on_c, 2, 76, 84
7, 124011, Note_on_c, 2, 76, 0
7, 124020, Note_on_c, 2, 76, 84
7, 124071, Note_on_c, 2, 76, 0
7, 124080, Note_on_c, 2, 76, 84
7, 124199, Note_on_c, 2, 76, 0
7, 124920, Note_on_c, 2, 82, 84
7, 124920, Note_on_c, 2, 79, 84
7, 124971, Note_on_c, 2, 82, 0
7, 124971, Note_on_c, 2, 79, 0
7, 124980, Note_on_c, 2, 79, 84
7, 124980, Note_on_c, 2, 82, 84
7, 125031, Note_on_c, 2, 79, 0
7, 125031, Note_on_c, 2, 82, 0
7, 125040, Note_on_c, 2, 79, 84
7, 125040, Note_on_c, 2, 82, 84
7, 125159, Note_on_c, 2, 79, 0
7, 125159, Note_on_c, 2, 82, 0
7, 125760, Note_on_c, 2, 79, 84
7, 125760, Note_on_c, 2, 76, 84
7, 125879, Note_on_c, 2, 79, 0
7, 125879, Note_on_c, 2, 76, 0
7, 126120, Note_on_c, 2, 79, 92
7, 126120, Note_on_c, 2, 76, 92
7, 126239, Note_on_c, 2, 79, 0
7, 126239, Note_on_c, 2, 76, 0
7, 126240, Note_on_c, 2, 77, 84
7, 126240, Note_on_c, 2, 81, 84
7, 126359, Note_on_c, 2, 77, 0
7, 126359, Note_on_c, 2, 81, 0
7, 126600, Note_on_c, 2, 77, 92
7, 126600, Note_on_c, 2, 81, 92
7, 126719, Note_on_c, 2, 77, 0
7, 126719, Note_on_c, 2, 81, 0
7, 126720, Note_on_c, 2, 76, 84
7, 126720, Note_on_c, 2, 79, 84
7, 126839, Note_on_c, 2, 76, 0
7, 126839, Note_on_c, 2, 79, 0
7, 127080, Note_on_c, 2, 79, 92
7, 127080, Note_on_c, 2, 76, 92
7, 127199, Note_on_c, 2, 79, 0
7, 127199, Note_on_c, 2, 76, 0
7, 127200, Note_on_c, 2, 77, 84
7, 127200, Note_on_c, 2, 81, 84
7, 127319, Note_on_c, 2, 77, 0
7, 127319, Note_on_c, 2, 81, 0
7, 129120, Note_on_c, 2, 80, 84
7, 129120, Note_on_c, 2, 83, 84
7, 129239, Note_on_c, 2, 80, 0
7, 129239, Note_on_c, 2, 83, 0
7, 129480, Note_on_c, 2, 80, 92
7, 129480, Note_on_c, 2, 83, 92
7, 129599, Note_on_c, 2, 80, 0
7, 129599, Note_on_c, 2, 83, 0
7, 129600, Note_on_c, 2, 84, 84
7, 129600, Note_on_c, 2, 81, 84
7, 129719, Note_on_c, 2, 84, 0
7, 129719, Note_on_c, 2, 81, 0
7, 129960, Note_on_c, 2, 81, 92
7, 129960, Note_on_c, 2, 84, 92
7, 130079, Note_on_c, 2, 81, 0
7, 130079, Note_on_c, 2, 84, 0
7, 130080, Note_on_c, 2, 83, 84
7, 130080, Note_on_c, 2, 80, 84
7, 130199, Note_on_c, 2, 83, 0
7, 130199, Note_on_c, 2, 80, 0
7, 130440, Note_on_c, 2, 80, 92
7, 130440, Note_on_c, 2, 83, 92
7, 130559, Note_on_c, 2, 80, 0
7, 130559, Note_on_c, 2, 83, 0
7, 130560, Note_on_c, 2, 81, 84
7, 130560, Note_on_c, 2, 84, 84
7, 130679, Note_on_c, 2, 81, 0
7, 130679, Note_on_c, 2, 84, 0
7, 135360, Note_on_c, 2, 83, 76
7, 135360, Note_on_c, 2, 79, 76
7, 135479, Note_on_c, 2, 83, 0
7, 135479, Note_on_c, 2, 79, 0
7, 135720, Note_on_c, 2, 83, 84
7, 135720, Note_on_c, 2, 79, 84
7, 135839, Note_on_c, 2, 83, 0
7, 135839, Note_on_c, 2, 79, 0
7, 135840, Note_on_c, 2, 79, 76
7, 135840, Note_on_c, 2, 84, 76
7, 135959, Note_on_c, 2, 79, 0
7, 135959, Note_on_c, 2, 84, 0
7, 136200, Note_on_c, 2, 79, 84
7, 136200, Note_on_c, 2, 84, 84
7, 136319, Note_on_c, 2, 79, 0
7, 136319, Note_on_c, 2, 84, 0
7, 136320, Note_on_c, 2, 83, 76
7, 136320, Note_on_c, 2, 79, 76
7, 136439, Note_on_c, 2, 83, 0
7, 136439, Note_on_c, 2, 79, 0
7, 136680, Note_on_c, 2, 79, 84
7, 136680, Note_on_c, 2, 83, 84
7, 136799, Note_on_c, 2, 79, 0
7, 136799, Note_on_c, 2, 83, 0
7, 136800, Note_on_c, 2, 79, 76
7, 136800, Note_on_c, 2, 84, 76
7, 136919, Note_on_c, 2, 79, 0
7, 136919, Note_on_c, 2, 84, 0
7, 137160, Note_on_c, 2, 84, 84
7, 137160, Note_on_c, 2, 79, 84
7, 137279, Note_on_c, 2, 84, 0
7, 137279, Note_on_c, 2, 79, 0
7, 137280, Note_on_c, 2, 83, 76
7, 137280, Note_on_c, 2, 79, 76
7, 137399, Note_on_c, 2, 83, 0
7, 137399, Note_on_c, 2, 79, 0
7, 137640, Note_on_c, 2, 83, 84
7, 137640, Note_on_c, 2, 79, 84
7, 137759, Note_on_c, 2, 83, 0
7, 137759, Note_on_c, 2, 79, 0
7, 137760, Note_on_c, 2, 79, 76
7, 137760, Note_on_c, 2, 84, 76
7, 137879, Note_on_c, 2, 79, 0
7, 137879, Note_on_c, 2, 84, 0
7, 138120, Note_on_c, 2, 84, 84
7, 138120, Note_on_c, 2, 79, 84
7, 138239, Note_on_c, 2, 84, 0
7, 138239, Note_on_c, 2, 79, 0
7, 138240, Note_on_c, 2, 83, 76
7, 138240, Note_on_c, 2, 79, 76
7, 138359, Note_on_c, 2, 83, 0
7, 138359, Note_on_c, 2, 79, 0
7, 138600, Note_on_c, 2, 79, 84
7, 138600, Note_on_c, 2, 83, 84
7, 138719, Note_on_c, 2, 79, 0
7, 138719, Note_on_c, 2, 83, 0
7, 138720, Note_on_c, 2, 79, 76
7, 138720, Note_on_c, 2, 84, 76
7, 138824, Note_on_c, 2, 79, 0
7, 138824, Note_on_c, 2, 84, 0
7, 138840, Note_on_c, 2, 72, 76
7, 138840, Note_on_c, 2, 84, 76
7, 138891, Note_on_c, 2, 72, 0
7, 138891, Note_on_c, 2, 84, 0
7, 138900, Note_on_c, 2, 84, 76
7, 138900, Note_on_c, 2, 72, 76
7, 138951, Note_on_c, 2, 84, 0
7, 138951, Note_on_c, 2, 72, 0
7, 138960, Note_on_c, 2, 84, 76
7, 138960, Note_on_c, 2, 72, 76
7, 139079, Note_on_c, 2, 84, 0
7, 139079, Note_on_c, 2, 72, 0
7, 139200, Note_on_c, 2, 83, 76
7, 139200, Note_on_c, 2, 79, 76
7, 139439, Note_on_c, 2, 83, 0
7, 139439, Note_on_c, 2, 79, 0
7, 139560, Note_on_c, 2, 79, 84
7, 139560, Note_on_c, 2, 83, 84
7, 139679, Note_on_c, 2, 79, 0
7, 139679, Note_on_c, 2, 83, 0
7, 139680, Note_on_c, 2, 84, 76
7, 139680, Note_on_c, 2, 79, 76
7, 139799, Note_on_c, 2, 84, 0
7, 139799, Note_on_c, 2, 79, 0
7, 140040, Note_on_c, 2, 79, 84
7, 140040, Note_on_c, 2, 84, 84
7, 140159, Note_on_c, 2, 79, 0
7, 140159, Note_on_c, 2, 84, 0
7, 140160, Note_on_c, 2, 79, 76
7, 140160, Note_on_c, 2, 83, 76
7, 140279, Note_on_c, 2, 79, 0
7, 140279, Note_on_c, 2, 83, 0
7, 140520, Note_on_c, 2, 83, 84
7, 140520, Note_on_c, 2, 79, 84
7, 140639, Note_on_c, 2, 83, 0
7, 140639, Note_on_c, 2, 79, 0
7, 140640, Note_on_c, 2, 84, 76
7, 140640, Note_on_c, 2, 79, 76
7, 140759, Note_on_c, 2, 84, 0
7, 140759, Note_on_c, 2, 79, 0
7, 141000, Note_on_c, 2, 84, 84
7, 141000, Note_on_c, 2, 79, 84
7, 141119, Note_on_c, 2, 84, 0
7, 141119, Note_on_c, 2, 79, 0
7, 141120, Note_on_c, 2, 83, 76
7, 141120, Note_on_c, 2, 79, 76
7, 141239, Note_on_c, 2, 83, 0
7, 141239, Note_on_c, 2, 79, 0
7, 141480, Note_on_c, 2, 83, 84
7, 141480, Note_on_c, 2, 79, 84
7, 141599, Note_on_c, 2, 83, 0
7, 141599, Note_on_c, 2, 79, 0
7, 141600, Note_on_c, 2, 84, 76
7, 141600, Note_on_c, 2, 79, 76
7, 141719, Note_on_c, 2, 84, 0
7, 141719, Note_on_c, 2, 79, 0
7, 141960, Note_on_c, 2, 79, 84
7, 141960, Note_on_c, 2, 84, 84
7, 142079, Note_on_c, 2, 79, 0
7, 142079, Note_on_c, 2, 84, 0
7, 142080, Note_on_c, 2, 79, 76
7, 142080, Note_on_c, 2, 83, 76
7, 142199, Note_on_c, 2, 79, 0
7, 142199, Note_on_c, 2, 83, 0
7, 142440, Note_on_c, 2, 79, 84
7, 142440, Note_on_c, 2, 83, 84
7, 142559, Note_on_c, 2, 79, 0
7, 142559, Note_on_c, 2, 83, 0
7, 142560, Note_on_c, 2, 84, 76
7, 142560, Note_on_c, 2, 79, 76
7, 142664, Note_on_c, 2, 84, 0
7, 142664, Note_on_c, 2, 79, 0
7, 142680, Note_on_c, 2, 84, 76
7, 142680, Note_on_c, 2, 72, 76
7, 142731, Note_on_c, 2, 84, 0
7, 142731, Note_on_c, 2, 72, 0
7, 142740, Note_on_c, 2, 72, 76
7, 142740, Note_on_c, 2, 84, 76
7, 142791, Note_on_c, 2, 72, 0
7, 142791, Note_on_c, 2, 84, 0
7, 142800, Note_on_c, 2, 72, 76
7, 142800, Note_on_c, 2, 84, 76
7, 142919, Note_on_c, 2, 72, 0
7, 142919, Note_on_c, 2, 84, 0
7, 143040, Note_on_c, 2, 84, 84
7, 143040, Note_on_c, 2, 81, 84
7, 143279, Note_on_c, 2, 84, 0
7, 143279, Note_on_c, 2, 81, 0
7, 143400, Note_on_c, 2, 81, 92
7, 143400, Note_on_c, 2, 84, 92
7, 143519, Note_on_c, 2, 81, 0
7, 143519, Note_on_c, 2, 84, 0
7, 143520, Note_on_c, 2, 84, 84
7, 143520, Note_on_c, 2, 79, 84
7, 143759, Note_on_c, 2, 84, 0
7, 143759, Note_on_c, 2, 79, 0
7, 143880, Note_on_c, 2, 84, 92
7, 143880, Note_on_c, 2, 79, 92
7, 143999, Note_on_c, 2, 84, 0
7, 143999, Note_on_c, 2, 79, 0
7, 144000, Note_on_c, 2, 81, 84
7, 144000, Note_on_c, 2, 84, 84
7, 144239, Note_on_c, 2, 81, 0
7, 144239, Note_on_c, 2, 84, 0
7, 144360, Note_on_c, 2, 81, 92
7, 144360, Note_on_c, 2, 74, 92
7, 144479, Note_on_c, 2, 81, 0
7, 144479, Note_on_c, 2, 74, 0
7, 144480, Note_on_c, 2, 74, 84
7, 144480, Note_on_c, 2, 81, 84
7, 144599, Note_on_c, 2, 74, 0
7, 144599, Note_on_c, 2, 81, 0
7, 144600, Note_on_c, 2, 80, 84
7, 144719, Note_on_c, 2, 80, 0
7, 144840, Note_on_c, 2, 79, 92
7, 144840, Note_on_c, 2, 76, 92
7, 144959, Note_on_c, 2, 79, 0
7, 144959, Note_on_c, 2, 76, 0
7, 144960, Note_on_c, 2, 74, 84
7, 144960, Note_on_c, 2, 78, 84
7, 145079, Note_on_c, 2, 74, 0
7, 145079, Note_on_c, 2, 78, 0
7, 145320, Note_on_c, 2, 74, 92
7, 145320, Note_on_c, 2, 77, 92
7, 145439, Note_on_c, 2, 74, 0
7, 145439, Note_on_c, 2, 77, 0
7, 145440, Note_on_c, 2, 72, 84
7, 145440, Note_on_c, 2, 76, 84
7, 145559, Note_on_c, 2, 72, 0
7, 145559, Note_on_c, 2, 76, 0
7, 145800, Note_on_c, 2, 84, 92
7, 145800, Note_on_c, 2, 79, 92
7, 145919, Note_on_c, 2, 84, 0
7, 145919, Note_on_c, 2, 79, 0
7, 145920, Note_on_c, 2, 83, 84
7, 145920, Note_on_c, 2, 79, 84
7, 146039, Note_on_c, 2, 83, 0
7, 146039, Note_on_c, 2, 79, 0
7, 146280, Note_on_c, 2, 83, 92
7, 146280, Note_on_c, 2, 79, 92
7, 146399, Note_on_c, 2, 83, 0
7, 146399, Note_on_c, 2, 79, 0
7, 146400, Note_on_c, 2, 84, 84
7, 146400, Note_on_c, 2, 79, 84
7, 146504, Note_on_c, 2, 84, 0
7, 146504, Note_on_c, 2, 79, 0
7, 146520, Note_on_c, 2, 72, 84
7, 146520, Note_on_c, 2, 84, 84
7, 146571, Note_on_c, 2, 72, 0
7, 146571, Note_on_c, 2, 84, 0
7, 146580, Note_on_c, 2, 84, 84
7, 146580, Note_on_c, 2, 72, 84
7, 146631, Note_on_c, 2, 84, 0
7, 146631, Note_on_c, 2, 72, 0
7, 146640, Note_on_c, 2, 84, 84
7, 146640, Note_on_c, 2, 72, 84
7, 146759, Note_on_c, 2, 84, 0
7, 146759, Note_on_c, 2, 72, 0
7, 146880, Note_on_c, 2, 84, 84
7, 146880, Note_on_c, 2, 81, 84
7, 147119, Note_on_c, 2, 84, 0
7, 147119, Note_on_c, 2, 81, 0
7, 147240, Note_on_c, 2, 81, 92
7, 147240, Note_on_c, 2, 84, 92
7, 147359, Note_on_c, 2, 81, 0
7, 147359, Note_on_c, 2, 84, 0
7, 147360, Note_on_c, 2, 79, 84
7, 147360, Note_on_c, 2, 84, 84
7, 147599, Note_on_c, 2, 79, 0
7, 147599, Note_on_c, 2, 84, 0
7, 147720, Note_on_c, 2, 84, 92
7, 147720, Note_on_c, 2, 79, 92
7, 147839, Note_on_c, 2, 84, 0
7, 147839, Note_on_c, 2, 79, 0
7, 147840, Note_on_c, 2, 84, 84
7, 147840, Note_on_c, 2, 81, 84
7, 148079, Note_on_c, 2, 84, 0
7, 148079, Note_on_c, 2, 81, 0
7, 148200, Note_on_c, 2, 74, 92
7, 148200, Note_on_c, 2, 81, 92
7, 148319, Note_on_c, 2, 74, 0
7, 148319, Note_on_c, 2, 81, 0
7, 148320, Note_on_c, 2, 74, 84
7, 148320, Note_on_c, 2, 81, 84
7, 148439, Note_on_c, 2, 74, 0
7, 148439, Note_on_c, 2, 81, 0
7, 148440, Note_on_c, 2, 80, 84
7, 148559, Note_on_c, 2, 80, 0
7, 148680, Note_on_c, 2, 79, 92
7, 148680, Note_on_c, 2, 76, 92
7, 148799, Note_on_c, 2, 79, 0
7, 148799, Note_on_c, 2, 76, 0
7, 148800, Note_on_c, 2, 78, 84
7, 148800, Note_on_c, 2, 74, 84
7, 148919, Note_on_c, 2, 78, 0
7, 148919, Note_on_c, 2, 74, 0
7, 149160, Note_on_c, 2, 77, 92
7, 149160, Note_on_c, 2, 74, 92
7, 149279, Note_on_c, 2, 77, 0
7, 149279, Note_on_c, 2, 74, 0
7, 149280, Note_on_c, 2, 72, 84
7, 149280, Note_on_c, 2, 76, 84
7, 149399, Note_on_c, 2, 72, 0
7, 149399, Note_on_c, 2, 76, 0
7, 149640, Note_on_c, 2, 79, 92
7, 149640, Note_on_c, 2, 84, 92
7, 149759, Note_on_c, 2, 79, 0
7, 149759, Note_on_c, 2, 84, 0
7, 149760, Note_on_c, 2, 79, 84
7, 149760, Note_on_c, 2, 83, 84
7, 149879, Note_on_c, 2, 79, 0
7, 149879, Note_on_c, 2, 83, 0
7, 150120, Note_on_c, 2, 83, 92
7, 150120, Note_on_c, 2, 79, 92
7, 150239, Note_on_c, 2, 83, 0
7, 150239, Note_on_c, 2, 79, 0
7, 150240, Note_on_c, 2, 84, 84
7, 150240, Note_on_c, 2, 79, 84
7, 150344, Note_on_c, 2, 84, 0
7, 150344, Note_on_c, 2, 79, 0
7, 150360, Note_on_c, 2, 76, 84
7, 150360, Note_on_c, 2, 79, 84
7, 150411, Note_on_c, 2, 76, 0
7, 150411, Note_on_c, 2, 79, 0
7, 150420, Note_on_c, 2, 79, 84
7, 150420, Note_on_c, 2, 76, 84
7, 150471, Note_on_c, 2, 79, 0
7, 150471, Note_on_c, 2, 76, 0
7, 150480, Note_on_c, 2, 76, 84
7, 150480, Note_on_c, 2, 79, 84
7, 150599, Note_on_c, 2, 76, 0
7, 150599, Note_on_c, 2, 79, 0
7, 150840, Note_on_c, 2, 74, 84
7, 150840, Note_on_c, 2, 77, 84
7, 150891, Note_on_c, 2, 74, 0
7, 150891, Note_on_c, 2, 77, 0
7, 150900, Note_on_c, 2, 77, 84
7, 150900, Note_on_c, 2, 74, 84
7, 150951, Note_on_c, 2, 77, 0
7, 150951, Note_on_c, 2, 74, 0
7, 150960, Note_on_c, 2, 74, 84
7, 150960, Note_on_c, 2, 77, 84
7, 151079, Note_on_c, 2, 74, 0
7, 151079, Note_on_c, 2, 77, 0
7, 151320, Note_on_c, 2, 76, 84
7, 151320, Note_on_c, 2, 72, 84
7, 151371, Note_on_c, 2, 76, 0
7, 151371, Note_on_c, 2, 72, 0
7, 151380, Note_on_c, 2, 76, 84
7, 151380, Note_on_c, 2, 72, 84
7, 151431, Note_on_c, 2, 76, 0
7, 151431, Note_on_c, 2, 72, 0
7, 151440, Note_on_c, 2, 72, 84
7, 151440, Note_on_c, 2, 76, 84
7, 151559, Note_on_c, 2, 72, 0
7, 151559, Note_on_c, 2, 76, 0
7, 151800, Note_on_c, 2, 72, 84
7, 151800, Note_on_c, 2, 76, 84
7, 151851, Note_on_c, 2, 72, 0
7, 151851, Note_on_c, 2, 76, 0
7, 151860, Note_on_c, 2, 76, 84
7, 151860, Note_on_c, 2, 72, 84
7, 151911, Note_on_c, 2, 76, 0
7, 151911, Note_on_c, 2, 72, 0
7, 151920, Note_on_c, 2, 74, 84
7, 151920, Note_on_c, 2, 71, 84
7, 152039, Note_on_c, 2, 74, 0
7, 152039, Note_on_c, 2, 71, 0
7, 152400, Note_on_c, 2, 72, 92
7, 152639, Note_on_c, 2, 72, 0
7, 152640, Note_on_c, 2, 77, 84
7, 152759, Note_on_c, 2, 77, 0
7, 152880, Note_on_c, 2, 69, 92
7, 153119, Note_on_c, 2, 69, 0
7, 153120, Note_on_c, 2, 74, 84
7, 153239, Note_on_c, 2, 74, 0
7, 153360, Note_on_c, 2, 67, 92
7, 153599, Note_on_c, 2, 67, 0
7, 153600, Note_on_c, 2, 70, 84
7, 153719, Note_on_c, 2, 70, 0
7, 153840, Note_on_c, 2, 64, 92
7, 154079, Note_on_c, 2, 64, 0
7, 154080, Note_on_c, 2, 65, 84
7, 154184, Note_on_c, 2, 65, 0
7, 154200, Note_on_c, 2, 69, 84
7, 154200, Note_on_c, 2, 77, 84
7, 154251, Note_on_c, 2, 69, 0
7, 154251, Note_on_c, 2, 77, 0
7, 154260, Note_on_c, 2, 77, 84
7, 154260, Note_on_c, 2, 69, 84
7, 154311, Note_on_c, 2, 77, 0
7, 154311, Note_on_c, 2, 69, 0
7, 154320, Note_on_c, 2, 69, 84
7, 154320, Note_on_c, 2, 77, 84
7, 154439, Note_on_c, 2, 69, 0
7, 154439, Note_on_c, 2, 77, 0
7, 154680, Note_on_c, 2, 81, 84
7, 154680, Note_on_c, 2, 77, 84
7, 154731, Note_on_c, 2, 81, 0
7, 154731, Note_on_c, 2, 77, 0
7, 154740, Note_on_c, 2, 77, 84
7, 154740, Note_on_c, 2, 81, 84
7, 154791, Note_on_c, 2, 77, 0
7, 154791, Note_on_c, 2, 81, 0
7, 154800, Note_on_c, 2, 77, 84
7, 154800, Note_on_c, 2, 81, 84
7, 154919, Note_on_c, 2, 77, 0
7, 154919, Note_on_c, 2, 81, 0
7, 155160, Note_on_c, 2, 79, 84
7, 155160, Note_on_c, 2, 82, 84
7, 155211, Note_on_c, 2, 79, 0
7, 155211, Note_on_c, 2, 82, 0
7, 155220, Note_on_c, 2, 82, 84
7, 155220, Note_on_c, 2, 79, 84
7, 155271, Note_on_c, 2, 82, 0
7, 155271, Note_on_c, 2, 79, 0
7, 155280, Note_on_c, 2, 82, 84
7, 155280, Note_on_c, 2, 79, 84
7, 155399, Note_on_c, 2, 82, 0
7, 155399, Note_on_c, 2, 79, 0
7, 155640, Note_on_c, 2, 76, 84
7, 155640, Note_on_c, 2, 81, 84
7, 155691, Note_on_c, 2, 76, 0
7, 155691, Note_on_c, 2, 81, 0
7, 155700, Note_on_c, 2, 76, 84
7, 155700, Note_on_c, 2, 81, 84
7, 155751, Note_on_c, 2, 76, 0
7, 155751, Note_on_c, 2, 81, 0
7, 155760, Note_on_c, 2, 81, 84
7, 155760, Note_on_c, 2, 76, 84
7, 155879, Note_on_c, 2, 81, 0
7, 155879, Note_on_c, 2, 76, 0
7, 156000, Note_on_c, 2, 77, 84
7, 156000, Note_on_c, 2, 81, 84
7, 156119, Note_on_c, 2, 77, 0
7, 156119, Note_on_c, 2, 81, 0
7, 156240, Note_on_c, 2, 74, 92
7, 156479, Note_on_c, 2, 74, 0
7, 156480, Note_on_c, 2, 77, 84
7, 156599, Note_on_c, 2, 77, 0
7, 156720, Note_on_c, 2, 81, 92
7, 156959, Note_on_c, 2, 81, 0
7, 156960, Note_on_c, 2, 86, 84
7, 157079, Note_on_c, 2, 86, 0
7, 157200, Note_on_c, 2, 77, 92
7, 157439, Note_on_c, 2, 77, 0
7, 157440, Note_on_c, 2, 81, 84
7, 157559, Note_on_c, 2, 81, 0
7, 157680, Note_on_c, 2, 74, 92
7, 157919, Note_on_c, 2, 74, 0
7, 157920, Note_on_c, 2, 77, 84
7, 158039, Note_on_c, 2, 77, 0
7, 158160, Note_on_c, 2, 69, 92
7, 158160, Note_on_c, 2, 81, 92
7, 158399, Note_on_c, 2, 69, 0
7, 158399, Note_on_c, 2, 81, 0
7, 158400, Note_on_c, 2, 74, 84
7, 158400, Note_on_c, 2, 86, 84
7, 158519, Note_on_c, 2, 74, 0
7, 158519, Note_on_c, 2, 86, 0
7, 158640, Note_on_c, 2, 65, 84
7, 158640, Note_on_c, 2, 77, 84
7, 158879, Note_on_c, 2, 65, 0
7, 158879, Note_on_c, 2, 77, 0
7, 158880, Note_on_c, 2, 69, 84
7, 158880, Note_on_c, 2, 81, 84
7, 158999, Note_on_c, 2, 69, 0
7, 158999, Note_on_c, 2, 81, 0
7, 159120, Note_on_c, 2, 77, 84
7, 159120, Note_on_c, 2, 65, 84
7, 159359, Note_on_c, 2, 77, 0
7, 159359, Note_on_c, 2, 65, 0
7, 159360, Note_on_c, 2, 69, 84
7, 159360, Note_on_c, 2, 81, 84
7, 159479, Note_on_c, 2, 69, 0
7, 159479, Note_on_c, 2, 81, 0
7, 159600, Note_on_c, 2, 78, 84
7, 159600, Note_on_c, 2, 66, 84
7, 159839, Note_on_c, 2, 78, 0
7, 159839, Note_on_c, 2, 66, 0
7, 159840, Note_on_c, 2, 81, 84
7, 159840, Note_on_c, 2, 69, 84
7, 159959, Note_on_c, 2, 81, 0
7, 159959, Note_on_c, 2, 69, 0
7, 160080, Note_on_c, 2, 66, 84
7, 160080, Note_on_c, 2, 78, 84
7, 160319, Note_on_c, 2, 66, 0
7, 160319, Note_on_c, 2, 78, 0
7, 160320, Note_on_c, 2, 82, 84
7, 160320, Note_on_c, 2, 70, 84
7, 160439, Note_on_c, 2, 82, 0
7, 160439, Note_on_c, 2, 70, 0
7, 160560, Note_on_c, 2, 79, 84
7, 160560, Note_on_c, 2, 67, 84
7, 160799, Note_on_c, 2, 79, 0
7, 160799, Note_on_c, 2, 67, 0
7, 160800, Note_on_c, 2, 82, 84
7, 160800, Note_on_c, 2, 70, 84
7, 160919, Note_on_c, 2, 82, 0
7, 160919, Note_on_c, 2, 70, 0
7, 161040, Note_on_c, 2, 67, 84
7, 161040, Note_on_c, 2, 79, 84
7, 161279, Note_on_c, 2, 67, 0
7, 161279, Note_on_c, 2, 79, 0
7, 161280, Note_on_c, 2, 83, 84
7, 161280, Note_on_c, 2, 71, 84
7, 161399, Note_on_c, 2, 83, 0
7, 161399, Note_on_c, 2, 71, 0
7, 161520, Note_on_c, 2, 80, 84
7, 161520, Note_on_c, 2, 68, 84
7, 161759, Note_on_c, 2, 80, 0
7, 161759, Note_on_c, 2, 68, 0
7, 161760, Note_on_c, 2, 71, 84
7, 161760, Note_on_c, 2, 83, 84
7, 161879, Note_on_c, 2, 71, 0
7, 161879, Note_on_c, 2, 83, 0
7, 162000, Note_on_c, 2, 68, 84
7, 162000, Note_on_c, 2, 80, 84
7, 162239, Note_on_c, 2, 68, 0
7, 162239, Note_on_c, 2, 80, 0
7, 162240, Note_on_c, 2, 72, 84
7, 162240, Note_on_c, 2, 84, 84
7, 162359, Note_on_c, 2, 72, 0
7, 162359, Note_on_c, 2, 84, 0
7, 162480, Note_on_c, 2, 69, 84
7, 162480, Note_on_c, 2, 81, 84
7, 162719, Note_on_c, 2, 69, 0
7, 162719, Note_on_c, 2, 81, 0
7, 162720, Note_on_c, 2, 73, 84
7, 162720, Note_on_c, 2, 85, 84
7, 162839, Note_on_c, 2, 73, 0
7, 162839, Note_on_c, 2, 85, 0
7, 162960, Note_on_c, 2, 82, 84
7, 162960, Note_on_c, 2, 70, 84
7, 163199, Note_on_c, 2, 82, 0
7, 163199, Note_on_c, 2, 70, 0
7, 163200, Note_on_c, 2, 86, 84
7, 163200, Note_on_c, 2, 74, 84
7, 163319, Note_on_c, 2, 86, 0
7, 163319, Note_on_c, 2, 74, 0
7, 163440, Note_on_c, 2, 83, 84
7, 163440, Note_on_c, 2, 71, 84
7, 163679, Note_on_c, 2, 83, 0
7, 163679, Note_on_c, 2, 71, 0
7, 163680, Note_on_c, 2, 87, 84
7, 163680, Note_on_c, 2, 75, 84
7, 163799, Note_on_c, 2, 87, 0
7, 163799, Note_on_c, 2, 75, 0
7, 163920, Note_on_c, 2, 84, 84
7, 163920, Note_on_c, 2, 72, 84
7, 164159, Note_on_c, 2, 84, 0
7, 164159, Note_on_c, 2, 72, 0
7, 164160, Note_on_c, 2, 76, 84
7, 164160, Note_on_c, 2, 88, 84
7, 164279, Note_on_c, 2, 76, 0
7, 164279, Note_on_c, 2, 88, 0
7, 164400, Note_on_c, 2, 73, 84
7, 164639, Note_on_c, 2, 73, 0
7, 164640, Note_on_c, 2, 76, 84
7, 164759, Note_on_c, 2, 76, 0
7, 164880, Note_on_c, 2, 74, 84
7, 165119, Note_on_c, 2, 74, 0
7, 165120, Note_on_c, 2, 76, 84
7, 165239, Note_on_c, 2, 76, 0
7, 165360, Note_on_c, 2, 75, 84
7, 165599, Note_on_c, 2, 75, 0
7, 165600, Note_on_c, 2, 76, 84
7, 165719, Note_on_c, 2, 76, 0
7, 165840, Note_on_c, 2, 75, 84
7, 166079, Note_on_c, 2, 75, 0
7, 166080, Note_on_c, 2, 76, 84
7, 166199, Note_on_c, 2, 76, 0
7, 168480, Note_on_c, 2, 69, 44
7, 168584, Note_on_c, 2, 69, 0
7, 168600, Note_on_c, 2, 69, 44
7, 168651, Note_on_c, 2, 69, 0
7, 168660, Note_on_c, 2, 69, 44
7, 168711, Note_on_c, 2, 69, 0
7, 168720, Note_on_c, 2, 69, 44
7, 168839, Note_on_c, 2, 69, 0
7, 169440, Note_on_c, 2, 69, 44
7, 169544, Note_on_c, 2, 69, 0
7, 169560, Note_on_c, 2, 69, 44
7, 169611, Note_on_c, 2, 69, 0
7, 169620, Note_on_c, 2, 69, 44
7, 169671, Note_on_c, 2, 69, 0
7, 169680, Note_on_c, 2, 69, 44
7, 169799, Note_on_c, 2, 69, 0
7, 169920, Note_on_c, 2, 69, 44
7, 170039, Note_on_c, 2, 69, 0
7, 170160, Note_on_c, 2, 69, 44
7, 170399, Note_on_c, 2, 69, 0
7, 170400, Note_on_c, 2, 70, 44
7, 170519, Note_on_c, 2, 70, 0
7, 170640, Note_on_c, 2, 70, 44
7, 170879, Note_on_c, 2, 70, 0
7, 170880, Note_on_c, 2, 69, 44
7, 170999, Note_on_c, 2, 69, 0
7, 171120, Note_on_c, 2, 69, 44
7, 171359, Note_on_c, 2, 69, 0
7, 171360, Note_on_c, 2, 70, 44
7, 171479, Note_on_c, 2, 70, 0
7, 171600, Note_on_c, 2, 70, 44
7, 173279, Note_on_c, 2, 70, 0
7, 173280, Note_on_c, 2, 69, 44
7, 173399, Note_on_c, 2, 69, 0
7, 173760, Note_on_c, 2, 69, 44
7, 173864, Note_on_c, 2, 69, 0
7, 173880, Note_on_c, 2, 69, 44
7, 173931, Note_on_c, 2, 69, 0
7, 173940, Note_on_c, 2, 69, 44
7, 173991, Note_on_c, 2, 69, 0
7, 174000, Note_on_c, 2, 69, 44
7, 174119, Note_on_c, 2, 69, 0
7, 174720, Note_on_c, 2, 69, 44
7, 174824, Note_on_c, 2, 69, 0
7, 174840, Note_on_c, 2, 69, 44
7, 174891, Note_on_c, 2, 69, 0
7, 174900, Note_on_c, 2, 69, 44
7, 174951, Note_on_c, 2, 69, 0
7, 174960, Note_on_c, 2, 69, 44
7, 175079, Note_on_c, 2, 69, 0
7, 175200, Note_on_c, 2, 69, 44
7, 175319, Note_on_c, 2, 69, 0
7, 175440, Note_on_c, 2, 69, 44
7, 175679, Note_on_c, 2, 69, 0
7, 175680, Note_on_c, 2, 70, 44
7, 175799, Note_on_c, 2, 70, 0
7, 175920, Note_on_c, 2, 70, 44
7, 176159, Note_on_c, 2, 70, 0
7, 176160, Note_on_c, 2, 69, 44
7, 176279, Note_on_c, 2, 69, 0
7, 176400, Note_on_c, 2, 72, 44
7, 176639, Note_on_c, 2, 72, 0
7, 176640, Note_on_c, 2, 74, 44
7, 176758, Control_c, 2, 11, 48
7, 176759, Note_on_c, 2, 74, 0
7, 176880, Note_on_c, 2, 74, 84
7, 176880, Note_on_c, 2, 80, 84
7, 176915, Control_c, 2, 11, 50
7, 176950, Control_c, 2, 11, 51
7, 176985, Control_c, 2, 11, 53
7, 177020, Control_c, 2, 11, 55
7, 177055, Control_c, 2, 11, 56
7, 177090, Control_c, 2, 11, 58
7, 177125, Control_c, 2, 11, 60
7, 177160, Control_c, 2, 11, 61
7, 177195, Control_c, 2, 11, 63
7, 177230, Control_c, 2, 11, 64
7, 177265, Control_c, 2, 11, 66
7, 177300, Control_c, 2, 11, 68
7, 177335, Control_c, 2, 11, 69
7, 177370, Control_c, 2, 11, 71
7, 177405, Control_c, 2, 11, 73
7, 177440, Control_c, 2, 11, 74
7, 177475, Control_c, 2, 11, 76
7, 177510, Control_c, 2, 11, 78
7, 177545, Control_c, 2, 11, 79
7, 177580, Control_c, 2, 11, 81
7, 177615, Control_c, 2, 11, 83
7, 177650, Control_c, 2, 11, 84
7, 177685, Control_c, 2, 11, 86
7, 177720, Control_c, 2, 11, 88
7, 177755, Control_c, 2, 11, 89
7, 177790, Control_c, 2, 11, 91
7, 177825, Control_c, 2, 11, 92
7, 177860, Control_c, 2, 11, 94
7, 177895, Control_c, 2, 11, 96
7, 177930, Control_c, 2, 11, 97
7, 177965, Control_c, 2, 11, 99
7, 178000, Control_c, 2, 11, 101
7, 178035, Control_c, 2, 11, 102
7, 178070, Control_c, 2, 11, 104
7, 178105, Control_c, 2, 11, 106
7, 178140, Control_c, 2, 11, 107
7, 178175, Control_c, 2, 11, 109
7, 178210, Control_c, 2, 11, 111
7, 178245, Control_c, 2, 11, 112
7, 178280, Control_c, 2, 11, 114
7, 178315, Control_c, 2, 11, 115
7, 178350, Control_c, 2, 11, 117
7, 178385, Control_c, 2, 11, 119
7, 178420, Control_c, 2, 11, 120
7, 178455, Control_c, 2, 11, 122
7, 178490, Control_c, 2, 11, 124
7, 178525, Control_c, 2, 11, 127
7, 178559, Note_on_c, 2, 74, 0
7, 178560, Note_on_c, 2, 76, 84
7, 178664, Note_on_c, 2, 80, 0
7, 178664, Note_on_c, 2, 76, 0
7, 178680, Note_on_c, 2, 76, 84
7, 178731, Note_on_c, 2, 76, 0
7, 178740, Note_on_c, 2, 76, 84
7, 178791, Note_on_c, 2, 76, 0
7, 178800, Note_on_c, 2, 76, 84
7, 178919, Note_on_c, 2, 76, 0
7, 179520, Note_on_c, 2, 86, 84
7, 179520, Note_on_c, 2, 83, 84
7, 179624, Note_on_c, 2, 86, 0
7, 179624, Note_on_c, 2, 83, 0
7, 179640, Note_on_c, 2, 83, 84
7, 179640, Note_on_c, 2, 86, 84
7, 179691, Note_on_c, 2, 83, 0
7, 179691, Note_on_c, 2, 86, 0
7, 179700, Note_on_c, 2, 86, 84
7, 179700, Note_on_c, 2, 83, 84
7, 179751, Note_on_c, 2, 86, 0
7, 179751, Note_on_c, 2, 83, 0
7, 179760, Note_on_c, 2, 83, 84
7, 179760, Note_on_c, 2, 86, 84
7, 179879, Note_on_c, 2, 83, 0
7, 179879, Note_on_c, 2, 86, 0
7, 180480, Note_on_c, 2, 83, 84
7, 180480, Note_on_c, 2, 80, 84
7, 180599, Note_on_c, 2, 83, 0
7, 180599, Note_on_c, 2, 80, 0
7, 180840, Note_on_c, 2, 80, 92
7, 180840, Note_on_c, 2, 83, 92
7, 180959, Note_on_c, 2, 80, 0
7, 180959, Note_on_c, 2, 83, 0
7, 180960, Note_on_c, 2, 81, 84
7, 180960, Note_on_c, 2, 85, 84
7, 181079, Note_on_c, 2, 81, 0
7, 181079, Note_on_c, 2, 85, 0
7, 181320, Note_on_c, 2, 81, 92
7, 181320, Note_on_c, 2, 85, 92
7, 181439, Note_on_c, 2, 81, 0
7, 181439, Note_on_c, 2, 85, 0
7, 181440, Note_on_c, 2, 83, 84
7, 181440, Note_on_c, 2, 80, 84
7, 181559, Note_on_c, 2, 83, 0
7, 181559, Note_on_c, 2, 80, 0
7, 181800, Note_on_c, 2, 83, 92
7, 181800, Note_on_c, 2, 80, 92
7, 181919, Note_on_c, 2, 83, 0
7, 181919, Note_on_c, 2, 80, 0
7, 181920, Note_on_c, 2, 81, 84
7, 181920, Note_on_c, 2, 85, 84
7, 182039, Note_on_c, 2, 81, 0
7, 182039, Note_on_c, 2, 85, 0
7, 182280, Note_on_c, 2, 85, 92
7, 182280, Note_on_c, 2, 81, 92
7, 182399, Note_on_c, 2, 85, 0
7, 182399, Note_on_c, 2, 81, 0
7, 182400, Note_on_c, 2, 83, 84
7, 182400, Note_on_c, 2, 80, 84
7, 182519, Note_on_c, 2, 83, 0
7, 182519, Note_on_c, 2, 80, 0
7, 182760, Note_on_c, 2, 83, 92
7, 182760, Note_on_c, 2, 80, 92
7, 182879, Note_on_c, 2, 83, 0
7, 182879, Note_on_c, 2, 80, 0
7, 182880, Note_on_c, 2, 85, 84
7, 182880, Note_on_c, 2, 81, 84
7, 182999, Note_on_c, 2, 85, 0
7, 182999, Note_on_c, 2, 81, 0
7, 183240, Note_on_c, 2, 81, 92
7, 183240, Note_on_c, 2, 85, 92
7, 183359, Note_on_c, 2, 81, 0
7, 183359, Note_on_c, 2, 85, 0
7, 183360, Note_on_c, 2, 80, 84
7, 183360, Note_on_c, 2, 83, 84
7, 183479, Note_on_c, 2, 80, 0
7, 183479, Note_on_c, 2, 83, 0
7, 183720, Note_on_c, 2, 74, 92
7, 183720, Note_on_c, 2, 83, 92
7, 183839, Note_on_c, 2, 74, 0
7, 183839, Note_on_c, 2, 83, 0
7, 183840, Note_on_c, 2, 73, 84
7, 183840, Note_on_c, 2, 81, 84
7, 183944, Note_on_c, 2, 73, 0
7, 183944, Note_on_c, 2, 81, 0
7, 183960, Note_on_c, 2, 81, 84
7, 183960, Note_on_c, 2, 69, 84
7, 184011, Note_on_c, 2, 81, 0
7, 184011, Note_on_c, 2, 69, 0
7, 184020, Note_on_c, 2, 81, 84
7, 184020, Note_on_c, 2, 69, 84
7, 184071, Note_on_c, 2, 81, 0
7, 184071, Note_on_c, 2, 69, 0
7, 184080, Note_on_c, 2, 69, 84
7, 184080, Note_on_c, 2, 81, 84
7, 184199, Note_on_c, 2, 69, 0
7, 184199, Note_on_c, 2, 81, 0
7, 184320, Note_on_c, 2, 80, 84
7, 184320, Note_on_c, 2, 83, 84
7, 184439, Note_on_c, 2, 80, 0
7, 184439, Note_on_c, 2, 83, 0
7, 184680, Note_on_c, 2, 80, 92
7, 184680, Note_on_c, 2, 83, 92
7, 184799, Note_on_c, 2, 80, 0
7, 184799, Note_on_c, 2, 83, 0
7, 184800, Note_on_c, 2, 81, 84
7, 184800, Note_on_c, 2, 85, 84
7, 184919, Note_on_c, 2, 81, 0
7, 184919, Note_on_c, 2, 85, 0
7, 185160, Note_on_c, 2, 85, 92
7, 185160, Note_on_c, 2, 81, 92
7, 185279, Note_on_c, 2, 85, 0
7, 185279, Note_on_c, 2, 81, 0
7, 185280, Note_on_c, 2, 83, 84
7, 185280, Note_on_c, 2, 80, 84
7, 185399, Note_on_c, 2, 83, 0
7, 185399, Note_on_c, 2, 80, 0
7, 185640, Note_on_c, 2, 83, 92
7, 185640, Note_on_c, 2, 80, 92
7, 185759, Note_on_c, 2, 83, 0
7, 185759, Note_on_c, 2, 80, 0
7, 185760, Note_on_c, 2, 81, 84
7, 185760, Note_on_c, 2, 85, 84
7, 185879, Note_on_c, 2, 81, 0
7, 185879, Note_on_c, 2, 85, 0
7, 186120, Note_on_c, 2, 85, 92
7, 186120, Note_on_c, 2, 81, 92
7, 186239, Note_on_c, 2, 85, 0
7, 186239, Note_on_c, 2, 81, 0
7, 186240, Note_on_c, 2, 83, 84
7, 186240, Note_on_c, 2, 80, 84
7, 186359, Note_on_c, 2, 83, 0
7, 186359, Note_on_c, 2, 80, 0
7, 186600, Note_on_c, 2, 83, 92
7, 186600, Note_on_c, 2, 80, 92
7, 186719, Note_on_c, 2, 83, 0
7, 186719, Note_on_c, 2, 80, 0
7, 186720, Note_on_c, 2, 85, 84
7, 186720, Note_on_c, 2, 81, 84
7, 186839, Note_on_c, 2, 85, 0
7, 186839, Note_on_c, 2, 81, 0
7, 187080, Note_on_c, 2, 81, 92
7, 187080, Note_on_c, 2, 85, 92
7, 187199, Note_on_c, 2, 81, 0
7, 187199, Note_on_c, 2, 85, 0
7, 187200, Note_on_c, 2, 80, 84
7, 187200, Note_on_c, 2, 83, 84
7, 187319, Note_on_c, 2, 80, 0
7, 187319, Note_on_c, 2, 83, 0
7, 187560, Note_on_c, 2, 83, 92
7, 187560, Note_on_c, 2, 74, 92
7, 187679, Note_on_c, 2, 83, 0
7, 187679, Note_on_c, 2, 74, 0
7, 187680, Note_on_c, 2, 73, 84
7, 187680, Note_on_c, 2, 81, 84
7, 187784, Note_on_c, 2, 73, 0
7, 187784, Note_on_c, 2, 81, 0
7, 187800, Note_on_c, 2, 69, 84
7, 187800, Note_on_c, 2, 81, 84
7, 187851, Note_on_c, 2, 69, 0
7, 187851, Note_on_c, 2, 81, 0
7, 187860, Note_on_c, 2, 69, 84
7, 187860, Note_on_c, 2, 81, 84
7, 187911, Note_on_c, 2, 69, 0
7, 187911, Note_on_c, 2, 81, 0
7, 187920, Note_on_c, 2, 69, 84
7, 187920, Note_on_c, 2, 81, 84
7, 188039, Note_on_c, 2, 69, 0
7, 188039, Note_on_c, 2, 81, 0
7, 188280, Note_on_c, 2, 69, 84
7, 188280, Note_on_c, 2, 81, 84
7, 188331, Note_on_c, 2, 69, 0
7, 188331, Note_on_c, 2, 81, 0
7, 188340, Note_on_c, 2, 81, 84
7, 188340, Note_on_c, 2, 69, 84
7, 188391, Note_on_c, 2, 81, 0
7, 188391, Note_on_c, 2, 69, 0
7, 188400, Note_on_c, 2, 81, 84
7, 188400, Note_on_c, 2, 69, 84
7, 188519, Note_on_c, 2, 81, 0
7, 188519, Note_on_c, 2, 69, 0
7, 188760, Note_on_c, 2, 83, 84
7, 188760, Note_on_c, 2, 80, 84
7, 188811, Note_on_c, 2, 83, 0
7, 188811, Note_on_c, 2, 80, 0
7, 188820, Note_on_c, 2, 83, 84
7, 188820, Note_on_c, 2, 80, 84
7, 188871, Note_on_c, 2, 83, 0
7, 188871, Note_on_c, 2, 80, 0
7, 188880, Note_on_c, 2, 80, 84
7, 188880, Note_on_c, 2, 83, 84
7, 188999, Note_on_c, 2, 80, 0
7, 188999, Note_on_c, 2, 83, 0
7, 189240, Note_on_c, 2, 80, 84
7, 189240, Note_on_c, 2, 83, 84
7, 189291, Note_on_c, 2, 80, 0
7, 189291, Note_on_c, 2, 83, 0
7, 189300, Note_on_c, 2, 83, 84
7, 189300, Note_on_c, 2, 80, 84
7, 189351, Note_on_c, 2, 83, 0
7, 189351, Note_on_c, 2, 80, 0
7, 189360, Note_on_c, 2, 83, 84
7, 189360, Note_on_c, 2, 80, 84
7, 189479, Note_on_c, 2, 83, 0
7, 189479, Note_on_c, 2, 80, 0
7, 189600, Note_on_c, 2, 85, 84
7, 189600, Note_on_c, 2, 76, 84
7, 189944, Note_on_c, 2, 85, 0
7, 189944, Note_on_c, 2, 76, 0
7, 189960, Note_on_c, 2, 83, 84
7, 189960, Note_on_c, 2, 74, 84
7, 190049, Note_on_c, 2, 83, 0
7, 190049, Note_on_c, 2, 74, 0
7, 190080, Note_on_c, 2, 81, 84
7, 190080, Note_on_c, 2, 73, 84
7, 190169, Note_on_c, 2, 81, 0
7, 190169, Note_on_c, 2, 73, 0
7, 190200, Note_on_c, 2, 76, 84
7, 190200, Note_on_c, 2, 85, 84
7, 190289, Note_on_c, 2, 76, 0
7, 190289, Note_on_c, 2, 85, 0
7, 190320, Note_on_c, 2, 83, 84
7, 190320, Note_on_c, 2, 74, 84
7, 190409, Note_on_c, 2, 83, 0
7, 190409, Note_on_c, 2, 74, 0
7, 190440, Note_on_c, 2, 81, 84
7, 190440, Note_on_c, 2, 73, 84
7, 190529, Note_on_c, 2, 81, 0
7, 190529, Note_on_c, 2, 73, 0
7, 190560, Note_on_c, 2, 74, 84
7, 190560, Note_on_c, 2, 83, 84
7, 190649, Note_on_c, 2, 74, 0
7, 190649, Note_on_c, 2, 83, 0
7, 190680, Note_on_c, 2, 85, 84
7, 190680, Note_on_c, 2, 73, 84
7, 190769, Note_on_c, 2, 85, 0
7, 190769, Note_on_c, 2, 73, 0
7, 190800, Note_on_c, 2, 83, 84
7, 190800, Note_on_c, 2, 71, 84
7, 190889, Note_on_c, 2, 83, 0
7, 190889, Note_on_c, 2, 71, 0
7, 190920, Note_on_c, 2, 74, 84
7, 190920, Note_on_c, 2, 78, 84
7, 191009, Note_on_c, 2, 74, 0
7, 191009, Note_on_c, 2, 78, 0
7, 191040, Note_on_c, 2, 73, 84
7, 191040, Note_on_c, 2, 76, 84
7, 191129, Note_on_c, 2, 73, 0
7, 191129, Note_on_c, 2, 76, 0
7, 191160, Note_on_c, 2, 71, 84
7, 191160, Note_on_c, 2, 74, 84
7, 191249, Note_on_c, 2, 71, 0
7, 191249, Note_on_c, 2, 74, 0
7, 191280, Note_on_c, 2, 73, 84
7, 191280, Note_on_c, 2, 69, 84
7, 191369, Note_on_c, 2, 73, 0
7, 191369, Note_on_c, 2, 69, 0
7, 191400, Note_on_c, 2, 68, 84
7, 191400, Note_on_c, 2, 71, 84
7, 191489, Note_on_c, 2, 68, 0
7, 191489, Note_on_c, 2, 71, 0
7, 191520, Note_on_c, 2, 69, 84
7, 191624, Note_on_c, 2, 69, 0
7, 191640, Note_on_c, 2, 81, 84
7, 191640, Note_on_c, 2, 69, 84
7, 191691, Note_on_c, 2, 81, 0
7, 191691, Note_on_c, 2, 69, 0
7, 191700, Note_on_c, 2, 69, 84
7, 191700, Note_on_c, 2, 81, 84
7, 191751, Note_on_c, 2, 69, 0
7, 191751, Note_on_c, 2, 81, 0
7, 191760, Note_on_c, 2, 81, 84
7, 191760, Note_on_c, 2, 69, 84
7, 191879, Note_on_c, 2, 81, 0
7, 191879, Note_on_c, 2, 69, 0
7, 192120, Note_on_c, 2, 69, 84
7, 192120, Note_on_c, 2, 81, 84
7, 192171, Note_on_c, 2, 69, 0
7, 192171, Note_on_c, 2, 81, 0
7, 192180, Note_on_c, 2, 69, 84
7, 192180, Note_on_c, 2, 81, 84
7, 192231, Note_on_c, 2, 69, 0
7, 192231, Note_on_c, 2, 81, 0
7, 192240, Note_on_c, 2, 69, 84
7, 192240, Note_on_c, 2, 81, 84
7, 192359, Note_on_c, 2, 69, 0
7, 192359, Note_on_c, 2, 81, 0
7, 192600, Note_on_c, 2, 80, 84
7, 192600, Note_on_c, 2, 83, 84
7, 192651, Note_on_c, 2, 80, 0
7, 192651, Note_on_c, 2, 83, 0
7, 192660, Note_on_c, 2, 83, 84
7, 192660, Note_on_c, 2, 80, 84
7, 192711, Note_on_c, 2, 83, 0
7, 192711, Note_on_c, 2, 80, 0
7, 192720, Note_on_c, 2, 83, 84
7, 192720, Note_on_c, 2, 80, 84
7, 192839, Note_on_c, 2, 83, 0
7, 192839, Note_on_c, 2, 80, 0
7, 193080, Note_on_c, 2, 80, 84
7, 193080, Note_on_c, 2, 83, 84
7, 193131, Note_on_c, 2, 80, 0
7, 193131, Note_on_c, 2, 83, 0
7, 193140, Note_on_c, 2, 80, 84
7, 193140, Note_on_c, 2, 83, 84
7, 193191, Note_on_c, 2, 80, 0
7, 193191, Note_on_c, 2, 83, 0
7, 193200, Note_on_c, 2, 80, 84
7, 193200, Note_on_c, 2, 83, 84
7, 193319, Note_on_c, 2, 80, 0
7, 193319, Note_on_c, 2, 83, 0
7, 193440, Note_on_c, 2, 85, 84
7, 193440, Note_on_c, 2, 81, 84
7, 193559, Note_on_c, 2, 85, 0
7, 193559, Note_on_c, 2, 81, 0
7, 193680, Note_on_c, 2, 81, 84
7, 193680, Note_on_c, 2, 85, 84
7, 193799, Note_on_c, 2, 81, 0
7, 193799, Note_on_c, 2, 85, 0
7, 193920, Note_on_c, 2, 85, 84
7, 193920, Note_on_c, 2, 81, 84
7, 194039, Note_on_c, 2, 85, 0
7, 194039, Note_on_c, 2, 81, 0
7, 194160, Note_on_c, 2, 81, 84
7, 194160, Note_on_c, 2, 85, 84
7, 194279, Note_on_c, 2, 81, 0
7, 194279, Note_on_c, 2, 85, 0
7, 194400, Note_on_c, 2, 83, 84
7, 194400, Note_on_c, 2, 86, 84
7, 194519, Note_on_c, 2, 83, 0
7, 194519, Note_on_c, 2, 86, 0
7, 194640, Note_on_c, 2, 83, 84
7, 194640, Note_on_c, 2, 86, 84
7, 194759, Note_on_c, 2, 83, 0
7, 194759, Note_on_c, 2, 86, 0
7, 194880, Note_on_c, 2, 86, 84
7, 194880, Note_on_c, 2, 83, 84
7, 194999, Note_on_c, 2, 86, 0
7, 194999, Note_on_c, 2, 83, 0
7, 195120, Note_on_c, 2, 86, 84
7, 195120, Note_on_c, 2, 83, 84
7, 195239, Note_on_c, 2, 86, 0
7, 195239, Note_on_c, 2, 83, 0
7, 195360, Note_on_c, 2, 85, 84
7, 195360, Note_on_c, 2, 81, 84
7, 195479, Note_on_c, 2, 85, 0
7, 195479, Note_on_c, 2, 81, 0
7, 195840, Note_on_c, 2, 64, 84
7, 195840, Note_on_c, 2, 76, 84
7, 197399, Note_on_c, 2, 64, 0
7, 197399, Note_on_c, 2, 76, 0
7, 197760, Note_on_c, 2, 64, 84
7, 197760, Note_on_c, 2, 76, 84
7, 198464, Note_on_c, 2, 64, 0
7, 198464, Note_on_c, 2, 76, 0
7, 198480, Note_on_c, 2, 82, 84
7, 198480, Note_on_c, 2, 79, 84
7, 198719, Note_on_c, 2, 82, 0
7, 198720, Note_on_c, 2, 81, 84
7, 198959, Note_on_c, 2, 79, 0
7, 198959, Note_on_c, 2, 81, 0
7, 198960, Note_on_c, 2, 79, 84
7, 198960, Note_on_c, 2, 81, 84
7, 199199, Note_on_c, 2, 79, 0
7, 199200, Note_on_c, 2, 77, 84
7, 199319, Note_on_c, 2, 81, 0
7, 199319, Note_on_c, 2, 77, 0
7, 200760, Note_on_c, 2, 73, 84
7, 200819, Note_on_c, 2, 73, 0
7, 200820, Note_on_c, 2, 74, 84
7, 200879, Note_on_c, 2, 74, 0
7, 200880, Note_on_c, 2, 73, 84
7, 200880, Note_on_c, 2, 77, 84
7, 200939, Note_on_c, 2, 77, 0
7, 200940, Note_on_c, 2, 76, 84
7, 200999, Note_on_c, 2, 76, 0
7, 201000, Note_on_c, 2, 74, 84
7, 201059, Note_on_c, 2, 74, 0
7, 201060, Note_on_c, 2, 76, 84
7, 201111, Note_on_c, 2, 76, 0
7, 201119, Note_on_c, 2, 73, 0
7, 201120, Note_on_c, 2, 77, 84
7, 201120, Note_on_c, 2, 74, 84
7, 201239, Note_on_c, 2, 77, 0
7, 201239, Note_on_c, 2, 74, 0
7, 202680, Note_on_c, 2, 73, 84
7, 202739, Note_on_c, 2, 73, 0
7, 202740, Note_on_c, 2, 74, 84
7, 202799, Note_on_c, 2, 74, 0
7, 202800, Note_on_c, 2, 77, 84
7, 202800, Note_on_c, 2, 73, 84
7, 202859, Note_on_c, 2, 77, 0
7, 202860, Note_on_c, 2, 76, 84
7, 202919, Note_on_c, 2, 76, 0
7, 202920, Note_on_c, 2, 74, 84
7, 202979, Note_on_c, 2, 74, 0
7, 202980, Note_on_c, 2, 76, 84
7, 203031, Note_on_c, 2, 76, 0
7, 203039, Note_on_c, 2, 73, 0
7, 203040, Note_on_c, 2, 77, 84
7, 203040, Note_on_c, 2, 74, 84
7, 203159, Note_on_c, 2, 77, 0
7, 203159, Note_on_c, 2, 74, 0
7, 203280, Note_on_c, 2, 77, 84
7, 203280, Note_on_c, 2, 74, 84
7, 203399, Note_on_c, 2, 77, 0
7, 203399, Note_on_c, 2, 74, 0
7, 203520, Note_on_c, 2, 77, 84
7, 203520, Note_on_c, 2, 74, 84
7, 203639, Note_on_c, 2, 77, 0
7, 203639, Note_on_c, 2, 74, 0
7, 203760, Note_on_c, 2, 77, 84
7, 203760, Note_on_c, 2, 74, 84
7, 203879, Note_on_c, 2, 77, 0
7, 203879, Note_on_c, 2, 74, 0
7, 204000, Note_on_c, 2, 76, 84
7, 204000, Note_on_c, 2, 79, 84
7, 204119, Note_on_c, 2, 76, 0
7, 204119, Note_on_c, 2, 79, 0
7, 204240, Note_on_c, 2, 79, 84
7, 204240, Note_on_c, 2, 76, 84
7, 204359, Note_on_c, 2, 79, 0
7, 204359, Note_on_c, 2, 76, 0
7, 204480, Note_on_c, 2, 76, 84
7, 204480, Note_on_c, 2, 79, 84
7, 204599, Note_on_c, 2, 76, 0
7, 204599, Note_on_c, 2, 79, 0
7, 204720, Note_on_c, 2, 76, 84
7, 204720, Note_on_c, 2, 79, 84
7, 204839, Note_on_c, 2, 76, 0
7, 204839, Note_on_c, 2, 79, 0
7, 204960, Note_on_c, 2, 77, 84
7, 204960, Note_on_c, 2, 74, 84
7, 205079, Note_on_c, 2, 77, 0
7, 205079, Note_on_c, 2, 74, 0
7, 205200, Note_on_c, 2, 77, 84
7, 205200, Note_on_c, 2, 74, 84
7, 205319, Note_on_c, 2, 77, 0
7, 205319, Note_on_c, 2, 74, 0
7, 205440, Note_on_c, 2, 74, 84
7, 205440, Note_on_c, 2, 78, 84
7, 205559, Note_on_c, 2, 74, 0
7, 205559, Note_on_c, 2, 78, 0
7, 205680, Note_on_c, 2, 74, 84
7, 205680, Note_on_c, 2, 78, 84
7, 205799, Note_on_c, 2, 74, 0
7, 205799, Note_on_c, 2, 78, 0
7, 205920, Note_on_c, 2, 80, 84
7, 205920, Note_on_c, 2, 74, 84
7, 206039, Note_on_c, 2, 80, 0
7, 206039, Note_on_c, 2, 74, 0
7, 206160, Note_on_c, 2, 80, 84
7, 206160, Note_on_c, 2, 74, 84
7, 206279, Note_on_c, 2, 80, 0
7, 206279, Note_on_c, 2, 74, 0
7, 206400, Note_on_c, 2, 81, 84
7, 206400, Note_on_c, 2, 77, 84
7, 206519, Note_on_c, 2, 81, 0
7, 206519, Note_on_c, 2, 77, 0
7, 206640, Note_on_c, 2, 81, 84
7, 206640, Note_on_c, 2, 77, 84
7, 206759, Note_on_c, 2, 81, 0
7, 206759, Note_on_c, 2, 77, 0
7, 206880, Note_on_c, 2, 83, 84
7, 206880, Note_on_c, 2, 76, 84
7, 206999, Note_on_c, 2, 83, 0
7, 206999, Note_on_c, 2, 76, 0
7, 207120, Note_on_c, 2, 69, 84
7, 207120, Note_on_c, 2, 81, 84
7, 207239, Note_on_c, 2, 69, 0
7, 207239, Note_on_c, 2, 81, 0
7, 207360, Note_on_c, 2, 81, 84
7, 207360, Note_on_c, 2, 69, 84
7, 207479, Note_on_c, 2, 81, 0
7, 207479, Note_on_c, 2, 69, 0
7, 207600, Note_on_c, 2, 81, 84
7, 207600, Note_on_c, 2, 69, 84
7, 207719, Note_on_c, 2, 81, 0
7, 207719, Note_on_c, 2, 69, 0
7, 207840, Note_on_c, 2, 80, 84
7, 207840, Note_on_c, 2, 71, 84
7, 207959, Note_on_c, 2, 80, 0
7, 207959, Note_on_c, 2, 71, 0
7, 208080, Note_on_c, 2, 77, 76
7, 208080, Note_on_c, 2, 74, 76
7, 208169, Note_on_c, 2, 77, 0
7, 208169, Note_on_c, 2, 74, 0
7, 210000, Note_on_c, 2, 77, 76
7, 210000, Note_on_c, 2, 74, 76
7, 210089, Note_on_c, 2, 77, 0
7, 210089, Note_on_c, 2, 74, 0
7, 213840, Note_on_c, 2, 76, 76
7, 213840, Note_on_c, 2, 85, 76
7, 214071, Note_on_c, 2, 76, 0
7, 214071, Note_on_c, 2, 85, 0
7, 214320, Note_on_c, 2, 74, 76
7, 214320, Note_on_c, 2, 83, 76
7, 214551, Note_on_c, 2, 74, 0
7, 214551, Note_on_c, 2, 83, 0
7, 214800, Note_on_c, 2, 81, 76
7, 214800, Note_on_c, 2, 73, 76
7, 215031, Note_on_c, 2, 81, 0
7, 215031, Note_on_c, 2, 73, 0
7, 215280, Note_on_c, 2, 74, 76
7, 215280, Note_on_c, 2, 83, 76
7, 215519, Note_on_c, 2, 74, 0
7, 215519, Note_on_c, 2, 83, 0
7, 215520, Note_on_c, 2, 85, 52
7, 215520, Note_on_c, 2, 73, 52
7, 215639, Note_on_c, 2, 85, 0
7, 215639, Note_on_c, 2, 73, 0
7, 218640, Note_on_c, 2, 76, 76
7, 218640, Note_on_c, 2, 85, 76
7, 218871, Note_on_c, 2, 76, 0
7, 218871, Note_on_c, 2, 85, 0
7, 219120, Note_on_c, 2, 83, 76
7, 219120, Note_on_c, 2, 74, 76
7, 219351, Note_on_c, 2, 83, 0
7, 219351, Note_on_c, 2, 74, 0
7, 219600, Note_on_c, 2, 81, 76
7, 219600, Note_on_c, 2, 73, 76
7, 219831, Note_on_c, 2, 81, 0
7, 219831, Note_on_c, 2, 73, 0
7, 220080, Note_on_c, 2, 83, 76
7, 220080, Note_on_c, 2, 74, 76
7, 220319, Note_on_c, 2, 83, 0
7, 220319, Note_on_c, 2, 74, 0
7, 220320, Note_on_c, 2, 85, 52
7, 220320, Note_on_c, 2, 73, 52
7, 220439, Note_on_c, 2, 85, 0
7, 220439, Note_on_c, 2, 73, 0
7, 229920, Note_on_c, 2, 79, 84
7, 229920, Note_on_c, 2, 82, 84
7, 230024, Note_on_c, 2, 79, 0
7, 230024, Note_on_c, 2, 82, 0
7, 230040, Note_on_c, 2, 82, 84
7, 230040, Note_on_c, 2, 79, 84
7, 230144, Note_on_c, 2, 82, 0
7, 230144, Note_on_c, 2, 79, 0
7, 230160, Note_on_c, 2, 82, 84
7, 230160, Note_on_c, 2, 79, 84
7, 230264, Note_on_c, 2, 82, 0
7, 230264, Note_on_c, 2, 79, 0
7, 230280, Note_on_c, 2, 82, 84
7, 230280, Note_on_c, 2, 79, 84
7, 230384, Note_on_c, 2, 82, 0
7, 230384, Note_on_c, 2, 79, 0
7, 230400, Note_on_c, 2, 79, 84
7, 230400, Note_on_c, 2, 82, 84
7, 230504, Note_on_c, 2, 79, 0
7, 230504, Note_on_c, 2, 82, 0
7, 230520, Note_on_c, 2, 79, 84
7, 230520, Note_on_c, 2, 82, 84
7, 230624, Note_on_c, 2, 79, 0
7, 230624, Note_on_c, 2, 82, 0
7, 230640, Note_on_c, 2, 82, 84
7, 230640, Note_on_c, 2, 79, 84
7, 230744, Note_on_c, 2, 82, 0
7, 230744, Note_on_c, 2, 79, 0
7, 230760, Note_on_c, 2, 79, 84
7, 230760, Note_on_c, 2, 82, 84
7, 230864, Note_on_c, 2, 79, 0
7, 230864, Note_on_c, 2, 82, 0
7, 230880, Note_on_c, 2, 77, 92
7, 230880, Note_on_c, 2, 81, 92
7, 230984, Note_on_c, 2, 77, 0
7, 230984, Note_on_c, 2, 81, 0
7, 231000, Note_on_c, 2, 77, 84
7, 231000, Note_on_c, 2, 81, 84
7, 231104, Note_on_c, 2, 77, 0
7, 231104, Note_on_c, 2, 81, 0
7, 231120, Note_on_c, 2, 77, 84
7, 231120, Note_on_c, 2, 81, 84
7, 231224, Note_on_c, 2, 77, 0
7, 231224, Note_on_c, 2, 81, 0
7, 231240, Note_on_c, 2, 81, 84
7, 231240, Note_on_c, 2, 77, 84
7, 231344, Note_on_c, 2, 81, 0
7, 231344, Note_on_c, 2, 77, 0
7, 231360, Note_on_c, 2, 82, 92
7, 231360, Note_on_c, 2, 79, 92
7, 231464, Note_on_c, 2, 82, 0
7, 231464, Note_on_c, 2, 79, 0
7, 231480, Note_on_c, 2, 82, 84
7, 231480, Note_on_c, 2, 79, 84
7, 231584, Note_on_c, 2, 82, 0
7, 231584, Note_on_c, 2, 79, 0
7, 231600, Note_on_c, 2, 82, 84
7, 231600, Note_on_c, 2, 79, 84
7, 231704, Note_on_c, 2, 82, 0
7, 231704, Note_on_c, 2, 79, 0
7, 231720, Note_on_c, 2, 82, 84
7, 231720, Note_on_c, 2, 79, 84
7, 231824, Note_on_c, 2, 82, 0
7, 231824, Note_on_c, 2, 79, 0
7, 231840, Note_on_c, 2, 81, 92
7, 231840, Note_on_c, 2, 77, 92
7, 231944, Note_on_c, 2, 81, 0
7, 231944, Note_on_c, 2, 77, 0
7, 231960, Note_on_c, 2, 81, 84
7, 231960, Note_on_c, 2, 77, 84
7, 232064, Note_on_c, 2, 81, 0
7, 232064, Note_on_c, 2, 77, 0
7, 232080, Note_on_c, 2, 77, 84
7, 232080, Note_on_c, 2, 81, 84
7, 232184, Note_on_c, 2, 77, 0
7, 232184, Note_on_c, 2, 81, 0
7, 232200, Note_on_c, 2, 81, 84
7, 232200, Note_on_c, 2, 77, 84
7, 232304, Note_on_c, 2, 81, 0
7, 232304, Note_on_c, 2, 77, 0
7, 232320, Note_on_c, 2, 79, 92
7, 232320, Note_on_c, 2, 82, 92
7, 232424, Note_on_c, 2, 79, 0
7, 232424, Note_on_c, 2, 82, 0
7, 232440, Note_on_c, 2, 79, 84
7, 232440, Note_on_c, 2, 82, 84
7, 232544, Note_on_c, 2, 79, 0
7, 232544, Note_on_c, 2, 82, 0
7, 232560, Note_on_c, 2, 82, 84
7, 232560, Note_on_c, 2, 79, 84
7, 232664, Note_on_c, 2, 82, 0
7, 232664, Note_on_c, 2, 79, 0
7, 232680, Note_on_c, 2, 79, 84
7, 232680, Note_on_c, 2, 82, 84
7, 232784, Note_on_c, 2, 79, 0
7, 232784, Note_on_c, 2, 82, 0
7, 232800, Note_on_c, 2, 82, 84
7, 232800, Note_on_c, 2, 79, 84
7, 232904, Note_on_c, 2, 82, 0
7, 232904, Note_on_c, 2, 79, 0
7, 232920, Note_on_c, 2, 82, 84
7, 232920, Note_on_c, 2, 79, 84
7, 233024, Note_on_c, 2, 82, 0
7, 233024, Note_on_c, 2, 79, 0
7, 233040, Note_on_c, 2, 79, 84
7, 233040, Note_on_c, 2, 82, 84
7, 233144, Note_on_c, 2, 79, 0
7, 233144, Note_on_c, 2, 82, 0
7, 233160, Note_on_c, 2, 82, 84
7, 233160, Note_on_c, 2, 79, 84
7, 233264, Note_on_c, 2, 82, 0
7, 233264, Note_on_c, 2, 79, 0
7, 233280, Note_on_c, 2, 79, 92
7, 233280, Note_on_c, 2, 82, 92
7, 233384, Note_on_c, 2, 79, 0
7, 233384, Note_on_c, 2, 82, 0
7, 233400, Note_on_c, 2, 79, 84
7, 233400, Note_on_c, 2, 82, 84
7, 233504, Note_on_c, 2, 79, 0
7, 233504, Note_on_c, 2, 82, 0
7, 233520, Note_on_c, 2, 79, 84
7, 233520, Note_on_c, 2, 82, 84
7, 233624, Note_on_c, 2, 79, 0
7, 233624, Note_on_c, 2, 82, 0
7, 233640, Note_on_c, 2, 82, 84
7, 233640, Note_on_c, 2, 79, 84
7, 233744, Note_on_c, 2, 82, 0
7, 233744, Note_on_c, 2, 79, 0
7, 233760, Note_on_c, 2, 77, 92
7, 233760, Note_on_c, 2, 81, 92
7, 233864, Note_on_c, 2, 77, 0
7, 233864, Note_on_c, 2, 81, 0
7, 233880, Note_on_c, 2, 77, 84
7, 233880, Note_on_c, 2, 81, 84
7, 233984, Note_on_c, 2, 77, 0
7, 233984, Note_on_c, 2, 81, 0
7, 234000, Note_on_c, 2, 81, 84
7, 234000, Note_on_c, 2, 77, 84
7, 234104, Note_on_c, 2, 81, 0
7, 234104, Note_on_c, 2, 77, 0
7, 234120, Note_on_c, 2, 77, 84
7, 234120, Note_on_c, 2, 81, 84
7, 234224, Note_on_c, 2, 77, 0
7, 234224, Note_on_c, 2, 81, 0
7, 234240, Note_on_c, 2, 82, 92
7, 234240, Note_on_c, 2, 79, 92
7, 234344, Note_on_c, 2, 82, 0
7, 234344, Note_on_c, 2, 79, 0
7, 234360, Note_on_c, 2, 79, 84
7, 234360, Note_on_c, 2, 82, 84
7, 234464, Note_on_c, 2, 79, 0
7, 234464, Note_on_c, 2, 82, 0
7, 234480, Note_on_c, 2, 82, 84
7, 234480, Note_on_c, 2, 79, 84
7, 234584, Note_on_c, 2, 82, 0
7, 234584, Note_on_c, 2, 79, 0
7, 234600, Note_on_c, 2, 79, 84
7, 234600, Note_on_c, 2, 82, 84
7, 234704, Note_on_c, 2, 79, 0
7, 234704, Note_on_c, 2, 82, 0
7, 234720, Note_on_c, 2, 77, 92
7, 234720, Note_on_c, 2, 81, 92
7, 234824, Note_on_c, 2, 77, 0
7, 234824, Note_on_c, 2, 81, 0
7, 234840, Note_on_c, 2, 77, 84
7, 234840, Note_on_c, 2, 81, 84
7, 234944, Note_on_c, 2, 77, 0
7, 234944, Note_on_c, 2, 81, 0
7, 234960, Note_on_c, 2, 77, 84
7, 234960, Note_on_c, 2, 81, 84
7, 235064, Note_on_c, 2, 77, 0
7, 235064, Note_on_c, 2, 81, 0
7, 235080, Note_on_c, 2, 77, 84
7, 235080, Note_on_c, 2, 81, 84
7, 235184, Note_on_c, 2, 77, 0
7, 235184, Note_on_c, 2, 81, 0
7, 235200, Note_on_c, 2, 84, 92
7, 235200, Note_on_c, 2, 81, 92
7, 235304, Note_on_c, 2, 84, 0
7, 235304, Note_on_c, 2, 81, 0
7, 235320, Note_on_c, 2, 84, 84
7, 235320, Note_on_c, 2, 81, 84
7, 235424, Note_on_c, 2, 84, 0
7, 235424, Note_on_c, 2, 81, 0
7, 235440, Note_on_c, 2, 84, 84
7, 235440, Note_on_c, 2, 81, 84
7, 235544, Note_on_c, 2, 84, 0
7, 235544, Note_on_c, 2, 81, 0
7, 235560, Note_on_c, 2, 84, 84
7, 235560, Note_on_c, 2, 81, 84
7, 235664, Note_on_c, 2, 84, 0
7, 235664, Note_on_c, 2, 81, 0
7, 235680, Note_on_c, 2, 85, 92
7, 235680, Note_on_c, 2, 81, 92
7, 235784, Note_on_c, 2, 85, 0
7, 235784, Note_on_c, 2, 81, 0
7, 235800, Note_on_c, 2, 81, 84
7, 235800, Note_on_c, 2, 85, 84
7, 235904, Note_on_c, 2, 81, 0
7, 235904, Note_on_c, 2, 85, 0
7, 235920, Note_on_c, 2, 81, 84
7, 235920, Note_on_c, 2, 85, 84
7, 236024, Note_on_c, 2, 81, 0
7, 236024, Note_on_c, 2, 85, 0
7, 236040, Note_on_c, 2, 81, 84
7, 236040, Note_on_c, 2, 85, 84
7, 236144, Note_on_c, 2, 81, 0
7, 236144, Note_on_c, 2, 85, 0
7, 236160, Note_on_c, 2, 83, 92
7, 236160, Note_on_c, 2, 80, 92
7, 236264, Note_on_c, 2, 83, 0
7, 236264, Note_on_c, 2, 80, 0
7, 236280, Note_on_c, 2, 80, 84
7, 236280, Note_on_c, 2, 83, 84
7, 236384, Note_on_c, 2, 80, 0
7, 236384, Note_on_c, 2, 83, 0
7, 236400, Note_on_c, 2, 83, 84
7, 236400, Note_on_c, 2, 80, 84
7, 236504, Note_on_c, 2, 83, 0
7, 236504, Note_on_c, 2, 80, 0
7, 236520, Note_on_c, 2, 80, 84
7, 236520, Note_on_c, 2, 83, 84
7, 236624, Note_on_c, 2, 80, 0
7, 236624, Note_on_c, 2, 83, 0
7, 236640, Note_on_c, 2, 85, 84
7, 236640, Note_on_c, 2, 81, 84
7, 236744, Note_on_c, 2, 85, 0
7, 236744, Note_on_c, 2, 81, 0
7, 236760, Note_on_c, 2, 81, 84
7, 236760, Note_on_c, 2, 85, 84
7, 236864, Note_on_c, 2, 81, 0
7, 236864, Note_on_c, 2, 85, 0
7, 236880, Note_on_c, 2, 86, 92
7, 236880, Note_on_c, 2, 80, 92
7, 236984, Note_on_c, 2, 86, 0
7, 236984, Note_on_c, 2, 80, 0
7, 237000, Note_on_c, 2, 86, 84
7, 237000, Note_on_c, 2, 80, 84
7, 237104, Note_on_c, 2, 86, 0
7, 237104, Note_on_c, 2, 80, 0
7, 237120, Note_on_c, 2, 80, 84
7, 237120, Note_on_c, 2, 86, 84
7, 237224, Note_on_c, 2, 80, 0
7, 237224, Note_on_c, 2, 86, 0
7, 237240, Note_on_c, 2, 80, 84
7, 237240, Note_on_c, 2, 86, 84
7, 237344, Note_on_c, 2, 80, 0
7, 237344, Note_on_c, 2, 86, 0
7, 237360, Note_on_c, 2, 80, 84
7, 237360, Note_on_c, 2, 86, 84
7, 237464, Note_on_c, 2, 80, 0
7, 237464, Note_on_c, 2, 86, 0
7, 237480, Note_on_c, 2, 80, 84
7, 237480, Note_on_c, 2, 86, 84
7, 237584, Note_on_c, 2, 80, 0
7, 237584, Note_on_c, 2, 86, 0
7, 237600, Note_on_c, 2, 81, 84
7, 237600, Note_on_c, 2, 85, 84
7, 237704, Note_on_c, 2, 81, 0
7, 237704, Note_on_c, 2, 85, 0
7, 237720, Note_on_c, 2, 85, 84
7, 237720, Note_on_c, 2, 81, 84
7, 237824, Note_on_c, 2, 85, 0
7, 237824, Note_on_c, 2, 81, 0
7, 237840, Note_on_c, 2, 86, 92
7, 237840, Note_on_c, 2, 80, 92
7, 237944, Note_on_c, 2, 86, 0
7, 237944, Note_on_c, 2, 80, 0
7, 237960, Note_on_c, 2, 80, 84
7, 237960, Note_on_c, 2, 86, 84
7, 238064, Note_on_c, 2, 80, 0
7, 238064, Note_on_c, 2, 86, 0
7, 238080, Note_on_c, 2, 80, 84
7, 238080, Note_on_c, 2, 86, 84
7, 238184, Note_on_c, 2, 80, 0
7, 238184, Note_on_c, 2, 86, 0
7, 238200, Note_on_c, 2, 86, 84
7, 238200, Note_on_c, 2, 80, 84
7, 238304, Note_on_c, 2, 86, 0
7, 238304, Note_on_c, 2, 80, 0
7, 238320, Note_on_c, 2, 86, 84
7, 238320, Note_on_c, 2, 80, 84
7, 238424, Note_on_c, 2, 86, 0
7, 238424, Note_on_c, 2, 80, 0
7, 238440, Note_on_c, 2, 80, 84
7, 238440, Note_on_c, 2, 86, 84
7, 238544, Note_on_c, 2, 80, 0
7, 238544, Note_on_c, 2, 86, 0
7, 238560, Note_on_c, 2, 85, 84
7, 238560, Note_on_c, 2, 81, 84
7, 238664, Note_on_c, 2, 85, 0
7, 238664, Note_on_c, 2, 81, 0
7, 238680, Note_on_c, 2, 85, 84
7, 238680, Note_on_c, 2, 81, 84
7, 238784, Note_on_c, 2, 85, 0
7, 238784, Note_on_c, 2, 81, 0
7, 238800, Note_on_c, 2, 80, 92
7, 238800, Note_on_c, 2, 86, 92
7, 238904, Note_on_c, 2, 80, 0
7, 238904, Note_on_c, 2, 86, 0
7, 238920, Note_on_c, 2, 86, 84
7, 238920, Note_on_c, 2, 80, 84
7, 239024, Note_on_c, 2, 86, 0
7, 239024, Note_on_c, 2, 80, 0
7, 239040, Note_on_c, 2, 81, 84
7, 239040, Note_on_c, 2, 85, 84
7, 239144, Note_on_c, 2, 81, 0
7, 239144, Note_on_c, 2, 85, 0
7, 239160, Note_on_c, 2, 85, 84
7, 239160, Note_on_c, 2, 81, 84
7, 239264, Note_on_c, 2, 85, 0
7, 239264, Note_on_c, 2, 81, 0
7, 239280, Note_on_c, 2, 86, 92
7, 239280, Note_on_c, 2, 80, 92
7, 239384, Note_on_c, 2, 86, 0
7, 239384, Note_on_c, 2, 80, 0
7, 239400, Note_on_c, 2, 86, 84
7, 239400, Note_on_c, 2, 80, 84
7, 239504, Note_on_c, 2, 86, 0
7, 239504, Note_on_c, 2, 80, 0
7, 239520, Note_on_c, 2, 81, 84
7, 239520, Note_on_c, 2, 85, 84
7, 239624, Note_on_c, 2, 81, 0
7, 239624, Note_on_c, 2, 85, 0
7, 239640, Note_on_c, 2, 81, 84
7, 239640, Note_on_c, 2, 85, 84
7, 239744, Note_on_c, 2, 81, 0
7, 239744, Note_on_c, 2, 85, 0
7, 239760, Note_on_c, 2, 80, 92
7, 239760, Note_on_c, 2, 86, 92
7, 239864, Note_on_c, 2, 80, 0
7, 239864, Note_on_c, 2, 86, 0
7, 239880, Note_on_c, 2, 86, 84
7, 239880, Note_on_c, 2, 80, 84
7, 239984, Note_on_c, 2, 86, 0
7, 239984, Note_on_c, 2, 80, 0
7, 240000, Note_on_c, 2, 85, 84
7, 240000, Note_on_c, 2, 81, 84
7, 240104, Note_on_c, 2, 85, 0
7, 240104, Note_on_c, 2, 81, 0
7, 240120, Note_on_c, 2, 85, 84
7, 240120, Note_on_c, 2, 81, 84
7, 240224, Note_on_c, 2, 85, 0
7, 240224, Note_on_c, 2, 81, 0
7, 240240, Note_on_c, 2, 81, 84
7, 240240, Note_on_c, 2, 85, 84
7, 240344, Note_on_c, 2, 81, 0
7, 240344, Note_on_c, 2, 85, 0
7, 240360, Note_on_c, 2, 81, 84
7, 240360, Note_on_c, 2, 85, 84
7, 240464, Note_on_c, 2, 81, 0
7, 240464, Note_on_c, 2, 85, 0
7, 240480, Note_on_c, 2, 81, 84
7, 240480, Note_on_c, 2, 85, 84
7, 240584, Note_on_c, 2, 81, 0
7, 240584, Note_on_c, 2, 85, 0
7, 240600, Note_on_c, 2, 81, 84
7, 240651, Note_on_c, 2, 81, 0
7, 240660, Note_on_c, 2, 81, 84
7, 240711, Note_on_c, 2, 81, 0
7, 240720, Note_on_c, 2, 81, 84
7, 240839, Note_on_c, 2, 81, 0
7, 241560, Note_on_c, 2, 79, 84
7, 241560, Note_on_c, 2, 76, 84
7, 241611, Note_on_c, 2, 79, 0
7, 241611, Note_on_c, 2, 76, 0
7, 241620, Note_on_c, 2, 79, 84
7, 241620, Note_on_c, 2, 76, 84
7, 241671, Note_on_c, 2, 79, 0
7, 241671, Note_on_c, 2, 76, 0
7, 241680, Note_on_c, 2, 79, 84
7, 241680, Note_on_c, 2, 76, 84
7, 241799, Note_on_c, 2, 79, 0
7, 241799, Note_on_c, 2, 76, 0
7, 242520, Note_on_c, 2, 79, 84
7, 242520, Note_on_c, 2, 76, 84
7, 242571, Note_on_c, 2, 79, 0
7, 242571, Note_on_c, 2, 76, 0
7, 242580, Note_on_c, 2, 79, 84
7, 242580, Note_on_c, 2, 76, 84
7, 242631, Note_on_c, 2, 79, 0
7, 242631, Note_on_c, 2, 76, 0
7, 242640, Note_on_c, 2, 79, 84
7, 242640, Note_on_c, 2, 76, 84
7, 242759, Note_on_c, 2, 79, 0
7, 242759, Note_on_c, 2, 76, 0
7, 243000, Note_on_c, 2, 76, 84
7, 243000, Note_on_c, 2, 79, 84
7, 243051, Note_on_c, 2, 76, 0
7, 243051, Note_on_c, 2, 79, 0
7, 243060, Note_on_c, 2, 76, 84
7, 243060, Note_on_c, 2, 79, 84
7, 243111, Note_on_c, 2, 76, 0
7, 243111, Note_on_c, 2, 79, 0
7, 243120, Note_on_c, 2, 76, 84
7, 243120, Note_on_c, 2, 79, 84
7, 243239, Note_on_c, 2, 76, 0
7, 243239, Note_on_c, 2, 79, 0
7, 243480, Note_on_c, 2, 79, 84
7, 243480, Note_on_c, 2, 76, 84
7, 243531, Note_on_c, 2, 79, 0
7, 243531, Note_on_c, 2, 76, 0
7, 243540, Note_on_c, 2, 76, 84
7, 243540, Note_on_c, 2, 79, 84
7, 243591, Note_on_c, 2, 76, 0
7, 243591, Note_on_c, 2, 79, 0
7, 243600, Note_on_c, 2, 76, 84
7, 243600, Note_on_c, 2, 79, 84
7, 243719, Note_on_c, 2, 76, 0
7, 243719, Note_on_c, 2, 79, 0
7, 243960, Note_on_c, 2, 76, 84
7, 243960, Note_on_c, 2, 79, 84
7, 244011, Note_on_c, 2, 76, 0
7, 244011, Note_on_c, 2, 79, 0
7, 244020, Note_on_c, 2, 76, 84
7, 244020, Note_on_c, 2, 79, 84
7, 244071, Note_on_c, 2, 76, 0
7, 244071, Note_on_c, 2, 79, 0
7, 244080, Note_on_c, 2, 79, 84
7, 244080, Note_on_c, 2, 76, 84
7, 244199, Note_on_c, 2, 79, 0
7, 244199, Note_on_c, 2, 76, 0
7, 244320, Note_on_c, 2, 78, 84
7, 244320, Note_on_c, 2, 73, 84
7, 244439, Note_on_c, 2, 78, 0
7, 244439, Note_on_c, 2, 73, 0
7, 246000, Note_on_c, 2, 73, 76
7, 246000, Note_on_c, 2, 82, 76
7, 246239, Note_on_c, 2, 73, 0
7, 246239, Note_on_c, 2, 82, 0
7, 246240, Note_on_c, 2, 74, 76
7, 246240, Note_on_c, 2, 83, 76
7, 246359, Note_on_c, 2, 74, 0
7, 246359, Note_on_c, 2, 83, 0
7, 247920, Note_on_c, 2, 73, 76
7, 247920, Note_on_c, 2, 82, 76
7, 248159, Note_on_c, 2, 73, 0
7, 248159, Note_on_c, 2, 82, 0
7, 248160, Note_on_c, 2, 74, 76
7, 248160, Note_on_c, 2, 83, 76
7, 248279, Note_on_c, 2, 74, 0
7, 248279, Note_on_c, 2, 83, 0
7, 248640, Note_on_c, 2, 76, 76
7, 250199, Note_on_c, 2, 76, 0
7, 250560, Note_on_c, 2, 76, 76
7, 251504, Note_on_c, 2, 76, 0
7, 251520, Note_on_c, 2, 81, 76
7, 252464, Note_on_c, 2, 81, 0
7, 252480, Note_on_c, 2, 74, 76
7, 252480, Note_on_c, 2, 86, 76
7, 255104, Note_on_c, 2, 74, 0
7, 255104, Note_on_c, 2, 86, 0
7, 255120, Note_on_c, 2, 74, 76
7, 255120, Note_on_c, 2, 77, 76
7, 256064, Note_on_c, 2, 74, 0
7, 256064, Note_on_c, 2, 77, 0
7, 256080, Note_on_c, 2, 72, 76
7, 256080, Note_on_c, 2, 75, 76
7, 256799, Note_on_c, 2, 72, 0
7, 256799, Note_on_c, 2, 75, 0
7, 256800, Note_on_c, 2, 75, 76
7, 256800, Note_on_c, 2, 72, 76
7, 258944, Note_on_c, 2, 75, 0
7, 258944, Note_on_c, 2, 72, 0
7, 258960, Note_on_c, 2, 73, 76
7, 258960, Note_on_c, 2, 70, 76
7, 260864, Note_on_c, 2, 73, 0
7, 260864, Note_on_c, 2, 70, 0
7, 260880, Note_on_c, 2, 72, 76
7, 260880, Note_on_c, 2, 69, 76
7, 261599, Note_on_c, 2, 72, 0
7, 261599, Note_on_c, 2, 69, 0
7, 261600, Note_on_c, 2, 69, 76
7, 261600, Note_on_c, 2, 72, 76
7, 263519, Note_on_c, 2, 69, 0
7, 263519, Note_on_c, 2, 72, 0
7, 263520, Note_on_c, 2, 69, 76
7, 263520, Note_on_c, 2, 72, 76
7, 264464, Note_on_c, 2, 69, 0
7, 264464, Note_on_c, 2, 72, 0
7, 264480, Note_on_c, 2, 71, 77
7, 264480, Note_on_c, 2, 74, 77
7, 265424, Note_on_c, 2, 71, 0
7, 265424, Note_on_c, 2, 74, 0
7, 265440, Note_on_c, 2, 69, 78
7, 265440, Note_on_c, 2, 73, 78
7, 266384, Note_on_c, 2, 69, 0
7, 266384, Note_on_c, 2, 73, 0
7, 266400, Note_on_c, 2, 74, 79
7, 266400, Note_on_c, 2, 71, 79
7, 267344, Note_on_c, 2, 74, 0
7, 267344, Note_on_c, 2, 71, 0
7, 267360, Note_on_c, 2, 76, 80
7, 267360, Note_on_c, 2, 73, 80
7, 267839, Note_on_c, 2, 76, 0
7, 267839, Note_on_c, 2, 73, 0
7, 267840, Note_on_c, 2, 78, 80
7, 267840, Note_on_c, 2, 74, 80
7, 268319, Note_on_c, 2, 78, 0
7, 268319, Note_on_c, 2, 74, 0
7, 268320, Note_on_c, 2, 80, 81
7, 268320, Note_on_c, 2, 76, 81
7, 268799, Note_on_c, 2, 80, 0
7, 268799, Note_on_c, 2, 76, 0
7, 268800, Note_on_c, 2, 78, 81
7, 268800, Note_on_c, 2, 81, 81
7, 269279, Note_on_c, 2, 78, 0
7, 269279, Note_on_c, 2, 81, 0
7, 269280, Note_on_c, 2, 80, 82
7, 269280, Note_on_c, 2, 83, 82
7, 269759, Note_on_c, 2, 80, 0
7, 269759, Note_on_c, 2, 83, 0
7, 269760, Note_on_c, 2, 85, 82
7, 269760, Note_on_c, 2, 81, 82
7, 270239, Note_on_c, 2, 85, 0
7, 270239, Note_on_c, 2, 81, 0
7, 270240, Note_on_c, 2, 86, 83
7, 270240, Note_on_c, 2, 83, 83
7, 271184, Note_on_c, 2, 86, 0
7, 271184, Note_on_c, 2, 83, 0
7, 271200, Note_on_c, 2, 81, 84
7, 271200, Note_on_c, 2, 85, 84
7, 271304, Note_on_c, 2, 81, 0
7, 271304, Note_on_c, 2, 85, 0
7, 271320, Note_on_c, 2, 69, 84
7, 271320, Note_on_c, 2, 81, 84
7, 271371, Note_on_c, 2, 69, 0
7, 271371, Note_on_c, 2, 81, 0
7, 271380, Note_on_c, 2, 69, 84
7, 271380, Note_on_c, 2, 81, 84
7, 271431, Note_on_c, 2, 69, 0
7, 271431, Note_on_c, 2, 81, 0
7, 271440, Note_on_c, 2, 81, 84
7, 271440, Note_on_c, 2, 69, 84
7, 271559, Note_on_c, 2, 81, 0
7, 271559, Note_on_c, 2, 69, 0
7, 271800, Note_on_c, 2, 81, 84
7, 271800, Note_on_c, 2, 69, 84
7, 271851, Note_on_c, 2, 81, 0
7, 271851, Note_on_c, 2, 69, 0
7, 271860, Note_on_c, 2, 69, 84
7, 271860, Note_on_c, 2, 81, 84
7, 271911, Note_on_c, 2, 69, 0
7, 271911, Note_on_c, 2, 81, 0
7, 271920, Note_on_c, 2, 69, 84
7, 271920, Note_on_c, 2, 81, 84
7, 272039, Note_on_c, 2, 69, 0
7, 272039, Note_on_c, 2, 81, 0
7, 272280, Note_on_c, 2, 83, 84
7, 272280, Note_on_c, 2, 86, 84
7, 272331, Note_on_c, 2, 83, 0
7, 272331, Note_on_c, 2, 86, 0
7, 272340, Note_on_c, 2, 83, 84
7, 272340, Note_on_c, 2, 86, 84
7, 272391, Note_on_c, 2, 83, 0
7, 272391, Note_on_c, 2, 86, 0
7, 272400, Note_on_c, 2, 86, 84
7, 272400, Note_on_c, 2, 83, 84
7, 272519, Note_on_c, 2, 86, 0
7, 272519, Note_on_c, 2, 83, 0
7, 272760, Note_on_c, 2, 86, 84
7, 272760, Note_on_c, 2, 83, 84
7, 272811, Note_on_c, 2, 86, 0
7, 272811, Note_on_c, 2, 83, 0
7, 272820, Note_on_c, 2, 83, 84
7, 272820, Note_on_c, 2, 86, 84
7, 272871, Note_on_c, 2, 83, 0
7, 272871, Note_on_c, 2, 86, 0
7, 272880, Note_on_c, 2, 86, 84
7, 272880, Note_on_c, 2, 83, 84
7, 272999, Note_on_c, 2, 86, 0
7, 272999, Note_on_c, 2, 83, 0
7, 273120, Note_on_c, 2, 76, 92
7, 273120, Note_on_c, 2, 85, 92
7, 273464, Note_on_c, 2, 76, 0
7, 273464, Note_on_c, 2, 85, 0
7, 273480, Note_on_c, 2, 83, 84
7, 273480, Note_on_c, 2, 74, 84
7, 273584, Note_on_c, 2, 83, 0
7, 273584, Note_on_c, 2, 74, 0
7, 273600, Note_on_c, 2, 81, 84
7, 273600, Note_on_c, 2, 73, 84
7, 273704, Note_on_c, 2, 81, 0
7, 273704, Note_on_c, 2, 73, 0
7, 273720, Note_on_c, 2, 85, 84
7, 273720, Note_on_c, 2, 76, 84
7, 273824, Note_on_c, 2, 85, 0
7, 273824, Note_on_c, 2, 76, 0
7, 273840, Note_on_c, 2, 83, 84
7, 273840, Note_on_c, 2, 74, 84
7, 273944, Note_on_c, 2, 83, 0
7, 273944, Note_on_c, 2, 74, 0
7, 273960, Note_on_c, 2, 81, 84
7, 273960, Note_on_c, 2, 73, 84
7, 274064, Note_on_c, 2, 81, 0
7, 274064, Note_on_c, 2, 73, 0
7, 274080, Note_on_c, 2, 83, 84
7, 274080, Note_on_c, 2, 74, 84
7, 274184, Note_on_c, 2, 83, 0
7, 274184, Note_on_c, 2, 74, 0
7, 274200, Note_on_c, 2, 73, 84
7, 274200, Note_on_c, 2, 81, 84
7, 274304, Note_on_c, 2, 73, 0
7, 274304, Note_on_c, 2, 81, 0
7, 274320, Note_on_c, 2, 71, 84
7, 274320, Note_on_c, 2, 80, 84
7, 274424, Note_on_c, 2, 71, 0
7, 274424, Note_on_c, 2, 80, 0
7, 274440, Note_on_c, 2, 74, 84
7, 274440, Note_on_c, 2, 78, 84
7, 274544, Note_on_c, 2, 74, 0
7, 274544, Note_on_c, 2, 78, 0
7, 274560, Note_on_c, 2, 73, 84
7, 274560, Note_on_c, 2, 76, 84
7, 274664, Note_on_c, 2, 73, 0
7, 274664, Note_on_c, 2, 76, 0
7, 274680, Note_on_c, 2, 74, 84
7, 274680, Note_on_c, 2, 71, 84
7, 274784, Note_on_c, 2, 74, 0
7, 274784, Note_on_c, 2, 71, 0
7, 274800, Note_on_c, 2, 73, 84
7, 274800, Note_on_c, 2, 69, 84
7, 274904, Note_on_c, 2, 73, 0
7, 274904, Note_on_c, 2, 69, 0
7, 274920, Note_on_c, 2, 68, 84
7, 274920, Note_on_c, 2, 71, 84
7, 275024, Note_on_c, 2, 68, 0
7, 275024, Note_on_c, 2, 71, 0
7, 275040, Note_on_c, 2, 69, 84
7, 275040, Note_on_c, 2, 73, 84
7, 275144, Note_on_c, 2, 69, 0
7, 275144, Note_on_c, 2, 73, 0
7, 275160, Note_on_c, 2, 81, 84
7, 275160, Note_on_c, 2, 69, 84
7, 275211, Note_on_c, 2, 81, 0
7, 275211, Note_on_c, 2, 69, 0
7, 275220, Note_on_c, 2, 81, 84
7, 275220, Note_on_c, 2, 69, 84
7, 275271, Note_on_c, 2, 81, 0
7, 275271, Note_on_c, 2, 69, 0
7, 275280, Note_on_c, 2, 69, 84
7, 275280, Note_on_c, 2, 81, 84
7, 275399, Note_on_c, 2, 69, 0
7, 275399, Note_on_c, 2, 81, 0
7, 275640, Note_on_c, 2, 81, 84
7, 275640, Note_on_c, 2, 69, 84
7, 275691, Note_on_c, 2, 81, 0
7, 275691, Note_on_c, 2, 69, 0
7, 275700, Note_on_c, 2, 81, 84
7, 275700, Note_on_c, 2, 69, 84
7, 275751, Note_on_c, 2, 81, 0
7, 275751, Note_on_c, 2, 69, 0
7, 275760, Note_on_c, 2, 69, 84
7, 275760, Note_on_c, 2, 81, 84
7, 275879, Note_on_c, 2, 69, 0
7, 275879, Note_on_c, 2, 81, 0
7, 276120, Note_on_c, 2, 86, 84
7, 276120, Note_on_c, 2, 83, 84
7, 276171, Note_on_c, 2, 86, 0
7, 276171, Note_on_c, 2, 83, 0
7, 276180, Note_on_c, 2, 83, 84
7, 276180, Note_on_c, 2, 86, 84
7, 276231, Note_on_c, 2, 83, 0
7, 276231, Note_on_c, 2, 86, 0
7, 276240, Note_on_c, 2, 83, 84
7, 276240, Note_on_c, 2, 86, 84
7, 276359, Note_on_c, 2, 83, 0
7, 276359, Note_on_c, 2, 86, 0
7, 276600, Note_on_c, 2, 83, 84
7, 276600, Note_on_c, 2, 86, 84
7, 276651, Note_on_c, 2, 83, 0
7, 276651, Note_on_c, 2, 86, 0
7, 276660, Note_on_c, 2, 86, 84
7, 276660, Note_on_c, 2, 83, 84
7, 276711, Note_on_c, 2, 86, 0
7, 276711, Note_on_c, 2, 83, 0
7, 276720, Note_on_c, 2, 83, 84
7, 276720, Note_on_c, 2, 86, 84
7, 276839, Note_on_c, 2, 83, 0
7, 276839, Note_on_c, 2, 86, 0
7, 276960, Note_on_c, 2, 81, 84
7, 276960, Note_on_c, 2, 85, 84
7, 277079, Note_on_c, 2, 81, 0
7, 277079, Note_on_c, 2, 85, 0
7, 277200, Note_on_c, 2, 85, 84
7, 277200, Note_on_c, 2, 81, 84
7, 277319, Note_on_c, 2, 85, 0
7, 277319, Note_on_c, 2, 81, 0
7, 277440, Note_on_c, 2, 85, 84
7, 277440, Note_on_c, 2, 81, 84
7, 277559, Note_on_c, 2, 85, 0
7, 277559, Note_on_c, 2, 81, 0
7, 277680, Note_on_c, 2, 85, 84
7, 277680, Note_on_c, 2, 81, 84
7, 277799, Note_on_c, 2, 85, 0
7, 277799, Note_on_c, 2, 81, 0
7, 277920, Note_on_c, 2, 83, 84
7, 277920, Note_on_c, 2, 80, 84
7, 278039, Note_on_c, 2, 83, 0
7, 278039, Note_on_c, 2, 80, 0
7, 278160, Note_on_c, 2, 83, 84
7, 278160, Note_on_c, 2, 80, 84
7, 278279, Note_on_c, 2, 83, 0
7, 278279, Note_on_c, 2, 80, 0
7, 278400, Note_on_c, 2, 80, 84
7, 278400, Note_on_c, 2, 83, 84
7, 278519, Note_on_c, 2, 80, 0
7, 278519, Note_on_c, 2, 83, 0
7, 278640, Note_on_c, 2, 83, 84
7, 278640, Note_on_c, 2, 80, 84
7, 278759, Note_on_c, 2, 83, 0
7, 278759, Note_on_c, 2, 80, 0
7, 278880, Note_on_c, 2, 85, 84
7, 278880, Note_on_c, 2, 81, 84
7, 278999, Note_on_c, 2, 85, 0
7, 278999, Note_on_c, 2, 81, 0
7, 279120, Note_on_c, 2, 85, 84
7, 279120, Note_on_c, 2, 81, 84
7, 279239, Note_on_c, 2, 85, 0
7, 279239, Note_on_c, 2, 81, 0
7, 279360, Note_on_c, 2, 81, 84
7, 279360, Note_on_c, 2, 85, 84
7, 279479, Note_on_c, 2, 81, 0
7, 279479, Note_on_c, 2, 85, 0
7, 279600, Note_on_c, 2, 81, 84
7, 279600, Note_on_c, 2, 85, 84
7, 279719, Note_on_c, 2, 81, 0
7, 279719, Note_on_c, 2, 85, 0
7, 279840, Note_on_c, 2, 86, 84
7, 279840, Note_on_c, 2, 83, 84
7, 279959, Note_on_c, 2, 86, 0
7, 279959, Note_on_c, 2, 83, 0
7, 280080, Note_on_c, 2, 83, 84
7, 280080, Note_on_c, 2, 86, 84
7, 280199, Note_on_c, 2, 83, 0
7, 280199, Note_on_c, 2, 86, 0
7, 280320, Note_on_c, 2, 86, 84
7, 280320, Note_on_c, 2, 83, 84
7, 280439, Note_on_c, 2, 86, 0
7, 280439, Note_on_c, 2, 83, 0
7, 280560, Note_on_c, 2, 83, 84
7, 280560, Note_on_c, 2, 86, 84
7, 280679, Note_on_c, 2, 83, 0
7, 280679, Note_on_c, 2, 86, 0
7, 280800, Note_on_c, 2, 76, 84
7, 280800, Note_on_c, 2, 85, 84
7, 280919, Note_on_c, 2, 76, 0
7, 280919, Note_on_c, 2, 85, 0
7, 281040, Note_on_c, 2, 85, 84
7, 281040, Note_on_c, 2, 76, 84
7, 281159, Note_on_c, 2, 85, 0
7, 281159, Note_on_c, 2, 76, 0
7, 281280, Note_on_c, 2, 76, 84
7, 281280, Note_on_c, 2, 85, 84
7, 281399, Note_on_c, 2, 76, 0
7, 281399, Note_on_c, 2, 85, 0
7, 281520, Note_on_c, 2, 76, 84
7, 281520, Note_on_c, 2, 85, 84
7, 281639, Note_on_c, 2, 76, 0
7, 281639, Note_on_c, 2, 85, 0
7, 281760, Note_on_c, 2, 79, 92
7, 282704, Note_on_c, 2, 79, 0
7, 282720, Note_on_c, 2, 78, 92
7, 282824, Note_on_c, 2, 78, 0
7, 282840, Note_on_c, 2, 76, 92
7, 282944, Note_on_c, 2, 76, 0
7, 282960, Note_on_c, 2, 86, 92
7, 283064, Note_on_c, 2, 86, 0
7, 283080, Note_on_c, 2, 85, 92
7, 283184, Note_on_c, 2, 85, 0
7, 283200, Note_on_c, 2, 83, 92
7, 283304, Note_on_c, 2, 83, 0
7, 283320, Note_on_c, 2, 81, 92
7, 283424, Note_on_c, 2, 81, 0
7, 283440, Note_on_c, 2, 79, 92
7, 283544, Note_on_c, 2, 79, 0
7, 283560, Note_on_c, 2, 78, 92
7, 283664, Note_on_c, 2, 78, 0
7, 283680, Note_on_c, 2, 76, 92
7, 284129, Note_on_c, 2, 76, 0
7, 284160, Note_on_c, 2, 78, 92
7, 284609, Note_on_c, 2, 78, 0
7, 284640, Note_on_c, 2, 73, 92
7, 284640, Note_on_c, 2, 85, 92
7, 285089, Note_on_c, 2, 73, 0
7, 285089, Note_on_c, 2, 85, 0
7, 285120, Note_on_c, 2, 80, 92
7, 285120, Note_on_c, 2, 71, 92
7, 285569, Note_on_c, 2, 80, 0
7, 285569, Note_on_c, 2, 71, 0
7, 285600, Note_on_c, 2, 64, 52
7, 285600, Note_on_c, 2, 76, 52
7, 285704, Note_on_c, 2, 64, 0
7, 285704, Note_on_c, 2, 76, 0
7, 285720, Note_on_c, 2, 64, 52
7, 285720, Note_on_c, 2, 76, 52
7, 285824, Note_on_c, 2, 64, 0
7, 285824, Note_on_c, 2, 76, 0
7, 285840, Note_on_c, 2, 76, 52
7, 285840, Note_on_c, 2, 64, 52
7, 285944, Note_on_c, 2, 76, 0
7, 285944, Note_on_c, 2, 64, 0
7, 285960, Note_on_c, 2, 64, 52
7, 285960, Note_on_c, 2, 76, 52
7, 286064, Note_on_c, 2, 64, 0
7, 286064, Note_on_c, 2, 76, 0
7, 286080, Note_on_c, 2, 64, 52
7, 286080, Note_on_c, 2, 76, 52
7, 286184, Note_on_c, 2, 64, 0
7, 286184, Note_on_c, 2, 76, 0
7, 286200, Note_on_c, 2, 64, 53
7, 286200, Note_on_c, 2, 76, 53
7, 286304, Note_on_c, 2, 64, 0
7, 286304, Note_on_c, 2, 76, 0
7, 286320, Note_on_c, 2, 64, 54
7, 286320, Note_on_c, 2, 76, 54
7, 286424, Note_on_c, 2, 64, 0
7, 286424, Note_on_c, 2, 76, 0
7, 286440, Note_on_c, 2, 76, 56
7, 286440, Note_on_c, 2, 64, 56
7, 286544, Note_on_c, 2, 76, 0
7, 286544, Note_on_c, 2, 64, 0
7, 286560, Note_on_c, 2, 76, 57
7, 286560, Note_on_c, 2, 64, 57
7, 286664, Note_on_c, 2, 76, 0
7, 286664, Note_on_c, 2, 64, 0
7, 286680, Note_on_c, 2, 76, 59
7, 286680, Note_on_c, 2, 64, 59
7, 286784, Note_on_c, 2, 76, 0
7, 286784, Note_on_c, 2, 64, 0
7, 286800, Note_on_c, 2, 76, 60
7, 286800, Note_on_c, 2, 64, 60
7, 286904, Note_on_c, 2, 76, 0
7, 286904, Note_on_c, 2, 64, 0
7, 286920, Note_on_c, 2, 64, 62
7, 286920, Note_on_c, 2, 76, 62
7, 287024, Note_on_c, 2, 64, 0
7, 287024, Note_on_c, 2, 76, 0
7, 287040, Note_on_c, 2, 64, 63
7, 287040, Note_on_c, 2, 76, 63
7, 287144, Note_on_c, 2, 64, 0
7, 287144, Note_on_c, 2, 76, 0
7, 287160, Note_on_c, 2, 76, 64
7, 287160, Note_on_c, 2, 64, 64
7, 287264, Note_on_c, 2, 76, 0
7, 287264, Note_on_c, 2, 64, 0
7, 287280, Note_on_c, 2, 76, 66
7, 287280, Note_on_c, 2, 64, 66
7, 287384, Note_on_c, 2, 76, 0
7, 287384, Note_on_c, 2, 64, 0
7, 287400, Note_on_c, 2, 64, 67
7, 287400, Note_on_c, 2, 76, 67
7, 287504, Note_on_c, 2, 64, 0
7, 287504, Note_on_c, 2, 76, 0
7, 287520, Note_on_c, 2, 76, 69
7, 287520, Note_on_c, 2, 64, 69
7, 287624, Note_on_c, 2, 76, 0
7, 287624, Note_on_c, 2, 64, 0
7, 287640, Note_on_c, 2, 64, 70
7, 287640, Note_on_c, 2, 76, 70
7, 287744, Note_on_c, 2, 64, 0
7, 287744, Note_on_c, 2, 76, 0
7, 287760, Note_on_c, 2, 76, 72
7, 287760, Note_on_c, 2, 64, 72
7, 287864, Note_on_c, 2, 76, 0
7, 287864, Note_on_c, 2, 64, 0
7, 287880, Note_on_c, 2, 76, 73
7, 287880, Note_on_c, 2, 64, 73
7, 287984, Note_on_c, 2, 76, 0
7, 287984, Note_on_c, 2, 64, 0
7, 288000, Note_on_c, 2, 76, 74
7, 288000, Note_on_c, 2, 64, 74
7, 288104, Note_on_c, 2, 76, 0
7, 288104, Note_on_c, 2, 64, 0
7, 288120, Note_on_c, 2, 64, 76
7, 288120, Note_on_c, 2, 76, 76
7, 288224, Note_on_c, 2, 64, 0
7, 288224, Note_on_c, 2, 76, 0
7, 288240, Note_on_c, 2, 76, 77
7, 288240, Note_on_c, 2, 64, 77
7, 288344, Note_on_c, 2, 76, 0
7, 288344, Note_on_c, 2, 64, 0
7, 288360, Note_on_c, 2, 76, 79
7, 288360, Note_on_c, 2, 64, 79
7, 288464, Note_on_c, 2, 76, 0
7, 288464, Note_on_c, 2, 64, 0
7, 288480, Note_on_c, 2, 76, 80
7, 288480, Note_on_c, 2, 64, 80
7, 288584, Note_on_c, 2, 76, 0
7, 288584, Note_on_c, 2, 64, 0
7, 288600, Note_on_c, 2, 76, 82
7, 288600, Note_on_c, 2, 64, 82
7, 288704, Note_on_c, 2, 76, 0
7, 288704, Note_on_c, 2, 64, 0
7, 288720, Note_on_c, 2, 64, 83
7, 288720, Note_on_c, 2, 76, 83
7, 288824, Note_on_c, 2, 64, 0
7, 288824, Note_on_c, 2, 76, 0
7, 288840, Note_on_c, 2, 64, 84
7, 288840, Note_on_c, 2, 76, 84
7, 288944, Note_on_c, 2, 64, 0
7, 288944, Note_on_c, 2, 76, 0
7, 288960, Note_on_c, 2, 64, 86
7, 288960, Note_on_c, 2, 76, 86
7, 289064, Note_on_c, 2, 64, 0
7, 289064, Note_on_c, 2, 76, 0
7, 289080, Note_on_c, 2, 64, 87
7, 289080, Note_on_c, 2, 76, 87
7, 289184, Note_on_c, 2, 64, 0
7, 289184, Note_on_c, 2, 76, 0
7, 289200, Note_on_c, 2, 76, 89
7, 289200, Note_on_c, 2, 64, 89
7, 289304, Note_on_c, 2, 76, 0
7, 289304, Note_on_c, 2, 64, 0
7, 289320, Note_on_c, 2, 64, 90
7, 289320, Note_on_c, 2, 76, 90
7, 289424, Note_on_c, 2, 64, 0
7, 289424, Note_on_c, 2, 76, 0
7, 289440, Note_on_c, 2, 79, 92
7, 290384, Note_on_c, 2, 79, 0
7, 290400, Note_on_c, 2, 78, 92
7, 290504, Note_on_c, 2, 78, 0
7, 290520, Note_on_c, 2, 76, 92
7, 290624, Note_on_c, 2, 76, 0
7, 290640, Note_on_c, 2, 86, 92
7, 290744, Note_on_c, 2, 86, 0
7, 290760, Note_on_c, 2, 85, 92
7, 290864, Note_on_c, 2, 85, 0
7, 290880, Note_on_c, 2, 83, 92
7, 290984, Note_on_c, 2, 83, 0
7, 291000, Note_on_c, 2, 81, 92
7, 291104, Note_on_c, 2, 81, 0
7, 291120, Note_on_c, 2, 79, 92
7, 291224, Note_on_c, 2, 79, 0
7, 291240, Note_on_c, 2, 78, 92
7, 291344, Note_on_c, 2, 78, 0
7, 291360, Note_on_c, 2, 76, 92
7, 291809, Note_on_c, 2, 76, 0
7, 291840, Note_on_c, 2, 78, 92
7, 292289, Note_on_c, 2, 78, 0
7, 292320, Note_on_c, 2, 85, 92
7, 292320, Note_on_c, 2, 73, 92
7, 292769, Note_on_c, 2, 85, 0
7, 292769, Note_on_c, 2, 73, 0
7, 292800, Note_on_c, 2, 71, 92
7, 292800, Note_on_c, 2, 80, 92
7, 293249, Note_on_c, 2, 71, 0
7, 293249, Note_on_c, 2, 80, 0
7, 293280, Note_on_c, 2, 69, 84
7, 293280, Note_on_c, 2, 81, 84
7, 293399, Note_on_c, 2, 69, 0
7, 293399, Note_on_c, 2, 81, 0
7, 293760, Note_on_c, 2, 76, 92
7, 293999, Note_on_c, 2, 76, 0
7, 294000, Note_on_c, 2, 86, 84
7, 294000, Note_on_c, 2, 83, 84
7, 294239, Note_on_c, 2, 86, 0
7, 294239, Note_on_c, 2, 83, 0
7, 294240, Note_on_c, 2, 85, 84
7, 294240, Note_on_c, 2, 81, 84
7, 294479, Note_on_c, 2, 85, 0
7, 294479, Note_on_c, 2, 81, 0
7, 294480, Note_on_c, 2, 83, 84
7, 294480, Note_on_c, 2, 74, 84
7, 294719, Note_on_c, 2, 83, 0
7, 294719, Note_on_c, 2, 74, 0
7, 294720, Note_on_c, 2, 73, 84
7, 294720, Note_on_c, 2, 81, 84
7, 294959, Note_on_c, 2, 73, 0
7, 294959, Note_on_c, 2, 81, 0
7, 294960, Note_on_c, 2, 80, 84
7, 294960, Note_on_c, 2, 83, 84
7, 295199, Note_on_c, 2, 80, 0
7, 295199, Note_on_c, 2, 83, 0
7, 295200, Note_on_c, 2, 81, 84
7, 295200, Note_on_c, 2, 85, 84
7, 295319, Note_on_c, 2, 81, 0
7, 295319, Note_on_c, 2, 85, 0
7, 295680, Note_on_c, 2, 76, 92
7, 295919, Note_on_c, 2, 76, 0
7, 295920, Note_on_c, 2, 83, 84
7, 295920, Note_on_c, 2, 86, 84
7, 296159, Note_on_c, 2, 83, 0
7, 296159, Note_on_c, 2, 86, 0
7, 296160, Note_on_c, 2, 81, 84
7, 296160, Note_on_c, 2, 85, 84
7, 296399, Note_on_c, 2, 81, 0
7, 296399, Note_on_c, 2, 85, 0
7, 296400, Note_on_c, 2, 83, 84
7, 296400, Note_on_c, 2, 74, 84
7, 296639, Note_on_c, 2, 83, 0
7, 296639, Note_on_c, 2, 74, 0
7, 296640, Note_on_c, 2, 73, 84
7, 296640, Note_on_c, 2, 81, 84
7, 296879, Note_on_c, 2, 73, 0
7, 296879, Note_on_c, 2, 81, 0
7, 296880, Note_on_c, 2, 80, 84
7, 296880, Note_on_c, 2, 83, 84
7, 297104, Note_on_c, 2, 80, 0
7, 297104, Note_on_c, 2, 83, 0
7, 297120, Note_on_c, 2, 80, 84
7, 297120, Note_on_c, 2, 83, 84
7, 297224, Note_on_c, 2, 80, 0
7, 297224, Note_on_c, 2, 83, 0
7, 297240, Note_on_c, 2, 80, 84
7, 297240, Note_on_c, 2, 83, 84
7, 297344, Note_on_c, 2, 80, 0
7, 297344, Note_on_c, 2, 83, 0
7, 297360, Note_on_c, 2, 80, 92
7, 297360, Note_on_c, 2, 83, 92
7, 297464, Note_on_c, 2, 80, 0
7, 297464, Note_on_c, 2, 83, 0
7, 297480, Note_on_c, 2, 80, 84
7, 297480, Note_on_c, 2, 83, 84
7, 297584, Note_on_c, 2, 80, 0
7, 297584, Note_on_c, 2, 83, 0
7, 297600, Note_on_c, 2, 80, 92
7, 297600, Note_on_c, 2, 83, 92
7, 297704, Note_on_c, 2, 80, 0
7, 297704, Note_on_c, 2, 83, 0
7, 297720, Note_on_c, 2, 80, 84
7, 297720, Note_on_c, 2, 83, 84
7, 297824, Note_on_c, 2, 80, 0
7, 297824, Note_on_c, 2, 83, 0
7, 297840, Note_on_c, 2, 80, 92
7, 297840, Note_on_c, 2, 83, 92
7, 297944, Note_on_c, 2, 80, 0
7, 297944, Note_on_c, 2, 83, 0
7, 297960, Note_on_c, 2, 80, 84
7, 297960, Note_on_c, 2, 83, 84
7, 298064, Note_on_c, 2, 80, 0
7, 298064, Note_on_c, 2, 83, 0
7, 298080, Note_on_c, 2, 80, 84
7, 298080, Note_on_c, 2, 83, 84
7, 298184, Note_on_c, 2, 80, 0
7, 298184, Note_on_c, 2, 83, 0
7, 298200, Note_on_c, 2, 80, 84
7, 298200, Note_on_c, 2, 83, 84
7, 298304, Note_on_c, 2, 80, 0
7, 298304, Note_on_c, 2, 83, 0
7, 298320, Note_on_c, 2, 83, 84
7, 298320, Note_on_c, 2, 80, 84
7, 298424, Note_on_c, 2, 83, 0
7, 298424, Note_on_c, 2, 80, 0
7, 298440, Note_on_c, 2, 83, 84
7, 298440, Note_on_c, 2, 80, 84
7, 298544, Note_on_c, 2, 83, 0
7, 298544, Note_on_c, 2, 80, 0
7, 298560, Note_on_c, 2, 86, 84
7, 298560, Note_on_c, 2, 83, 84
7, 298664, Note_on_c, 2, 86, 0
7, 298664, Note_on_c, 2, 83, 0
7, 298680, Note_on_c, 2, 86, 84
7, 298680, Note_on_c, 2, 83, 84
7, 298784, Note_on_c, 2, 86, 0
7, 298784, Note_on_c, 2, 83, 0
7, 298800, Note_on_c, 2, 83, 84
7, 298800, Note_on_c, 2, 86, 84
7, 298904, Note_on_c, 2, 83, 0
7, 298904, Note_on_c, 2, 86, 0
7, 298920, Note_on_c, 2, 86, 84
7, 298920, Note_on_c, 2, 83, 84
7, 299024, Note_on_c, 2, 86, 0
7, 299024, Note_on_c, 2, 83, 0
7, 299040, Note_on_c, 2, 81, 84
7, 299040, Note_on_c, 2, 85, 84
7, 299159, Note_on_c, 2, 81, 0
7, 299159, Note_on_c, 2, 85, 0
7, 299400, Note_on_c, 2, 81, 84
7, 299400, Note_on_c, 2, 85, 84
7, 299451, Note_on_c, 2, 81, 0
7, 299451, Note_on_c, 2, 85, 0
7, 299460, Note_on_c, 2, 81, 84
7, 299460, Note_on_c, 2, 85, 84
7, 299511, Note_on_c, 2, 81, 0
7, 299511, Note_on_c, 2, 85, 0
7, 299520, Note_on_c, 2, 81, 84
7, 299520, Note_on_c, 2, 85, 84
7, 299639, Note_on_c, 2, 81, 0
7, 299639, Note_on_c, 2, 85, 0
7, 299880, Note_on_c, 2, 81, 84
7, 299880, Note_on_c, 2, 85, 84
7, 299931, Note_on_c, 2, 81, 0
7, 299931, Note_on_c, 2, 85, 0
7, 299940, Note_on_c, 2, 85, 84
7, 299940, Note_on_c, 2, 81, 84
7, 299991, Note_on_c, 2, 85, 0
7, 299991, Note_on_c, 2, 81, 0
7, 300000, Note_on_c, 2, 85, 84
7, 300000, Note_on_c, 2, 81, 84
7, 300119, Note_on_c, 2, 85, 0
7, 300119, Note_on_c, 2, 81, 0
7, 300119, End_track
8, 0, Start_track
8, 0, Title_t, "Clarinet in A"
8, 0, MIDI_port, 0
8, 0, Program_c, 3, 71
8, 0, Control_c, 3, 7, 84
8, 0, Control_c, 3, 11, 127
8, 0, Control_c, 3, 10, 75
8, 120, Note_on_c, 3, 76, 84
8, 120, Note_on_c, 3, 64, 84
8, 171, Note_on_c, 3, 76, 0
8, 171, Note_on_c, 3, 64, 0
8, 180, Note_on_c, 3, 64, 84
8, 180, Note_on_c, 3, 76, 84
8, 231, Note_on_c, 3, 64, 0
8, 231, Note_on_c, 3, 76, 0
8, 240, Note_on_c, 3, 64, 84
8, 240, Note_on_c, 3, 76, 84
8, 359, Note_on_c, 3, 64, 0
8, 359, Note_on_c, 3, 76, 0
8, 1080, Note_on_c, 3, 71, 84
8, 1080, Note_on_c, 3, 74, 84
8, 1131, Note_on_c, 3, 71, 0
8, 1131, Note_on_c, 3, 74, 0
8, 1140, Note_on_c, 3, 74, 84
8, 1140, Note_on_c, 3, 71, 84
8, 1191, Note_on_c, 3, 74, 0
8, 1191, Note_on_c, 3, 71, 0
8, 1200, Note_on_c, 3, 71, 84
8, 1200, Note_on_c, 3, 74, 84
8, 1319, Note_on_c, 3, 71, 0
8, 1319, Note_on_c, 3, 74, 0
8, 1920, Note_on_c, 3, 71, 84
8, 1920, Note_on_c, 3, 68, 84
8, 2039, Note_on_c, 3, 71, 0
8, 2039, Note_on_c, 3, 68, 0
8, 2280, Note_on_c, 3, 68, 92
8, 2280, Note_on_c, 3, 71, 92
8, 2399, Note_on_c, 3, 68, 0
8, 2399, Note_on_c, 3, 71, 0
8, 2400, Note_on_c, 3, 69, 84
8, 2400, Note_on_c, 3, 73, 84
8, 2519, Note_on_c, 3, 69, 0
8, 2519, Note_on_c, 3, 73, 0
8, 2760, Note_on_c, 3, 73, 92
8, 2760, Note_on_c, 3, 69, 92
8, 2879, Note_on_c, 3, 73, 0
8, 2879, Note_on_c, 3, 69, 0
8, 2880, Note_on_c, 3, 71, 84
8, 2880, Note_on_c, 3, 68, 84
8, 2999, Note_on_c, 3, 71, 0
8, 2999, Note_on_c, 3, 68, 0
8, 3240, Note_on_c, 3, 71, 92
8, 3240, Note_on_c, 3, 68, 92
8, 3359, Note_on_c, 3, 71, 0
8, 3359, Note_on_c, 3, 68, 0
8, 3360, Note_on_c, 3, 69, 84
8, 3360, Note_on_c, 3, 73, 84
8, 3479, Note_on_c, 3, 69, 0
8, 3479, Note_on_c, 3, 73, 0
8, 3720, Note_on_c, 3, 69, 92
8, 3720, Note_on_c, 3, 73, 92
8, 3839, Note_on_c, 3, 69, 0
8, 3839, Note_on_c, 3, 73, 0
8, 3840, Note_on_c, 3, 68, 84
8, 3840, Note_on_c, 3, 71, 84
8, 3959, Note_on_c, 3, 68, 0
8, 3959, Note_on_c, 3, 71, 0
8, 4200, Note_on_c, 3, 71, 92
8, 4200, Note_on_c, 3, 68, 92
8, 4319, Note_on_c, 3, 71, 0
8, 4319, Note_on_c, 3, 68, 0
8, 4320, Note_on_c, 3, 69, 84
8, 4320, Note_on_c, 3, 73, 84
8, 4439, Note_on_c, 3, 69, 0
8, 4439, Note_on_c, 3, 73, 0
8, 4680, Note_on_c, 3, 69, 92
8, 4680, Note_on_c, 3, 73, 92
8, 4799, Note_on_c, 3, 69, 0
8, 4799, Note_on_c, 3, 73, 0
8, 4800, Note_on_c, 3, 71, 84
8, 4800, Note_on_c, 3, 68, 84
8, 4919, Note_on_c, 3, 71, 0
8, 4919, Note_on_c, 3, 68, 0
8, 5160, Note_on_c, 3, 62, 92
8, 5160, Note_on_c, 3, 71, 92
8, 5279, Note_on_c, 3, 62, 0
8, 5279, Note_on_c, 3, 71, 0
8, 5280, Note_on_c, 3, 61, 84
8, 5280, Note_on_c, 3, 69, 84
8, 5384, Note_on_c, 3, 61, 0
8, 5384, Note_on_c, 3, 69, 0
8, 5400, Note_on_c, 3, 81, 84
8, 5400, Note_on_c, 3, 69, 84
8, 5451, Note_on_c, 3, 81, 0
8, 5451, Note_on_c, 3, 69, 0
8, 5460, Note_on_c, 3, 69, 84
8, 5460, Note_on_c, 3, 81, 84
8, 5511, Note_on_c, 3, 69, 0
8, 5511, Note_on_c, 3, 81, 0
8, 5520, Note_on_c, 3, 69, 84
8, 5520, Note_on_c, 3, 81, 84
8, 5639, Note_on_c, 3, 69, 0
8, 5639, Note_on_c, 3, 81, 0
8, 5760, Note_on_c, 3, 71, 84
8, 5760, Note_on_c, 3, 68, 84
8, 5879, Note_on_c, 3, 71, 0
8, 5879, Note_on_c, 3, 68, 0
8, 6120, Note_on_c, 3, 68, 92
8, 6120, Note_on_c, 3, 71, 92
8, 6239, Note_on_c, 3, 68, 0
8, 6239, Note_on_c, 3, 71, 0
8, 6240, Note_on_c, 3, 69, 84
8, 6240, Note_on_c, 3, 73, 84
8, 6359, Note_on_c, 3, 69, 0
8, 6359, Note_on_c, 3, 73, 0
8, 6600, Note_on_c, 3, 73, 92
8, 6600, Note_on_c, 3, 69, 92
8, 6719, Note_on_c, 3, 73, 0
8, 6719, Note_on_c, 3, 69, 0
8, 6720, Note_on_c, 3, 68, 84
8, 6720, Note_on_c, 3, 71, 84
8, 6839, Note_on_c, 3, 68, 0
8, 6839, Note_on_c, 3, 71, 0
8, 7080, Note_on_c, 3, 71, 92
8, 7080, Note_on_c, 3, 68, 92
8, 7199, Note_on_c, 3, 71, 0
8, 7199, Note_on_c, 3, 68, 0
8, 7200, Note_on_c, 3, 69, 84
8, 7200, Note_on_c, 3, 73, 84
8, 7319, Note_on_c, 3, 69, 0
8, 7319, Note_on_c, 3, 73, 0
8, 7560, Note_on_c, 3, 69, 92
8, 7560, Note_on_c, 3, 73, 92
8, 7679, Note_on_c, 3, 69, 0
8, 7679, Note_on_c, 3, 73, 0
8, 7680, Note_on_c, 3, 68, 84
8, 7680, Note_on_c, 3, 71, 84
8, 7799, Note_on_c, 3, 68, 0
8, 7799, Note_on_c, 3, 71, 0
8, 8040, Note_on_c, 3, 71, 92
8, 8040, Note_on_c, 3, 68, 92
8, 8159, Note_on_c, 3, 71, 0
8, 8159, Note_on_c, 3, 68, 0
8, 8160, Note_on_c, 3, 69, 84
8, 8160, Note_on_c, 3, 73, 84
8, 8279, Note_on_c, 3, 69, 0
8, 8279, Note_on_c, 3, 73, 0
8, 8520, Note_on_c, 3, 69, 92
8, 8520, Note_on_c, 3, 73, 92
8, 8639, Note_on_c, 3, 69, 0
8, 8639, Note_on_c, 3, 73, 0
8, 8640, Note_on_c, 3, 71, 84
8, 8640, Note_on_c, 3, 68, 84
8, 8759, Note_on_c, 3, 71, 0
8, 8759, Note_on_c, 3, 68, 0
8, 9000, Note_on_c, 3, 62, 92
8, 9000, Note_on_c, 3, 71, 92
8, 9119, Note_on_c, 3, 62, 0
8, 9119, Note_on_c, 3, 71, 0
8, 9120, Note_on_c, 3, 61, 84
8, 9120, Note_on_c, 3, 69, 84
8, 9224, Note_on_c, 3, 61, 0
8, 9224, Note_on_c, 3, 69, 0
8, 9240, Note_on_c, 3, 81, 84
8, 9240, Note_on_c, 3, 69, 84
8, 9291, Note_on_c, 3, 81, 0
8, 9291, Note_on_c, 3, 69, 0
8, 9300, Note_on_c, 3, 81, 84
8, 9300, Note_on_c, 3, 69, 84
8, 9351, Note_on_c, 3, 81, 0
8, 9351, Note_on_c, 3, 69, 0
8, 9360, Note_on_c, 3, 81, 84
8, 9360, Note_on_c, 3, 69, 84
8, 9479, Note_on_c, 3, 81, 0
8, 9479, Note_on_c, 3, 69, 0
8, 9600, Note_on_c, 3, 78, 84
8, 9600, Note_on_c, 3, 69, 84
8, 9719, Note_on_c, 3, 78, 0
8, 9719, Note_on_c, 3, 69, 0
8, 9960, Note_on_c, 3, 69, 92
8, 9960, Note_on_c, 3, 78, 92
8, 10079, Note_on_c, 3, 69, 0
8, 10079, Note_on_c, 3, 78, 0
8, 10080, Note_on_c, 3, 76, 84
8, 10080, Note_on_c, 3, 69, 84
8, 10199, Note_on_c, 3, 76, 0
8, 10199, Note_on_c, 3, 69, 0
8, 10440, Note_on_c, 3, 76, 92
8, 10440, Note_on_c, 3, 69, 92
8, 10559, Note_on_c, 3, 76, 0
8, 10559, Note_on_c, 3, 69, 0
8, 10560, Note_on_c, 3, 78, 84
8, 10560, Note_on_c, 3, 69, 84
8, 10679, Note_on_c, 3, 78, 0
8, 10679, Note_on_c, 3, 69, 0
8, 10920, Note_on_c, 3, 78, 92
8, 10920, Note_on_c, 3, 69, 92
8, 11039, Note_on_c, 3, 78, 0
8, 11039, Note_on_c, 3, 69, 0
8, 11040, Note_on_c, 3, 69, 84
8, 11040, Note_on_c, 3, 78, 84
8, 11159, Note_on_c, 3, 69, 0
8, 11159, Note_on_c, 3, 78, 0
8, 11160, Note_on_c, 3, 77, 84
8, 11279, Note_on_c, 3, 77, 0
8, 11400, Note_on_c, 3, 73, 92
8, 11400, Note_on_c, 3, 76, 92
8, 11519, Note_on_c, 3, 73, 0
8, 11519, Note_on_c, 3, 76, 0
8, 11520, Note_on_c, 3, 69, 84
8, 11520, Note_on_c, 3, 75, 84
8, 11639, Note_on_c, 3, 69, 0
8, 11639, Note_on_c, 3, 75, 0
8, 11880, Note_on_c, 3, 74, 92
8, 11880, Note_on_c, 3, 71, 92
8, 11999, Note_on_c, 3, 74, 0
8, 11999, Note_on_c, 3, 71, 0
8, 12000, Note_on_c, 3, 73, 84
8, 12000, Note_on_c, 3, 69, 84
8, 12119, Note_on_c, 3, 73, 0
8, 12119, Note_on_c, 3, 69, 0
8, 12360, Note_on_c, 3, 73, 92
8, 12360, Note_on_c, 3, 69, 92
8, 12479, Note_on_c, 3, 73, 0
8, 12479, Note_on_c, 3, 69, 0
8, 12480, Note_on_c, 3, 71, 84
8, 12480, Note_on_c, 3, 68, 84
8, 12599, Note_on_c, 3, 71, 0
8, 12599, Note_on_c, 3, 68, 0
8, 12840, Note_on_c, 3, 71, 92
8, 12840, Note_on_c, 3, 68, 92
8, 12959, Note_on_c, 3, 71, 0
8, 12959, Note_on_c, 3, 68, 0
8, 12960, Note_on_c, 3, 69, 84
8, 13064, Note_on_c, 3, 69, 0
8, 13080, Note_on_c, 3, 69, 84
8, 13080, Note_on_c, 3, 81, 84
8, 13131, Note_on_c, 3, 69, 0
8, 13131, Note_on_c, 3, 81, 0
8, 13140, Note_on_c, 3, 81, 84
8, 13140, Note_on_c, 3, 69, 84
8, 13191, Note_on_c, 3, 81, 0
8, 13191, Note_on_c, 3, 69, 0
8, 13200, Note_on_c, 3, 69, 84
8, 13200, Note_on_c, 3, 81, 84
8, 13319, Note_on_c, 3, 69, 0
8, 13319, Note_on_c, 3, 81, 0
8, 13440, Note_on_c, 3, 69, 84
8, 13440, Note_on_c, 3, 78, 84
8, 13559, Note_on_c, 3, 69, 0
8, 13559, Note_on_c, 3, 78, 0
8, 13800, Note_on_c, 3, 69, 92
8, 13800, Note_on_c, 3, 78, 92
8, 13919, Note_on_c, 3, 69, 0
8, 13919, Note_on_c, 3, 78, 0
8, 13920, Note_on_c, 3, 76, 84
8, 13920, Note_on_c, 3, 69, 84
8, 14039, Note_on_c, 3, 76, 0
8, 14039, Note_on_c, 3, 69, 0
8, 14280, Note_on_c, 3, 69, 92
8, 14280, Note_on_c, 3, 76, 92
8, 14399, Note_on_c, 3, 69, 0
8, 14399, Note_on_c, 3, 76, 0
8, 14400, Note_on_c, 3, 69, 84
8, 14400, Note_on_c, 3, 78, 84
8, 14519, Note_on_c, 3, 69, 0
8, 14519, Note_on_c, 3, 78, 0
8, 14760, Note_on_c, 3, 69, 92
8, 14760, Note_on_c, 3, 78, 92
8, 14879, Note_on_c, 3, 69, 0
8, 14879, Note_on_c, 3, 78, 0
8, 14880, Note_on_c, 3, 69, 84
8, 14880, Note_on_c, 3, 78, 84
8, 14999, Note_on_c, 3, 69, 0
8, 14999, Note_on_c, 3, 78, 0
8, 15000, Note_on_c, 3, 77, 84
8, 15119, Note_on_c, 3, 77, 0
8, 15240, Note_on_c, 3, 73, 92
8, 15240, Note_on_c, 3, 76, 92
8, 15359, Note_on_c, 3, 73, 0
8, 15359, Note_on_c, 3, 76, 0
8, 15360, Note_on_c, 3, 75, 84
8, 15360, Note_on_c, 3, 69, 84
8, 15479, Note_on_c, 3, 75, 0
8, 15479, Note_on_c, 3, 69, 0
8, 15720, Note_on_c, 3, 71, 92
8, 15720, Note_on_c, 3, 74, 92
8, 15839, Note_on_c, 3, 71, 0
8, 15839, Note_on_c, 3, 74, 0
8, 15840, Note_on_c, 3, 73, 84
8, 15840, Note_on_c, 3, 69, 84
8, 15959, Note_on_c, 3, 73, 0
8, 15959, Note_on_c, 3, 69, 0
8, 16200, Note_on_c, 3, 73, 92
8, 16200, Note_on_c, 3, 69, 92
8, 16319, Note_on_c, 3, 73, 0
8, 16319, Note_on_c, 3, 69, 0
8, 16320, Note_on_c, 3, 71, 84
8, 16320, Note_on_c, 3, 68, 84
8, 16439, Note_on_c, 3, 71, 0
8, 16439, Note_on_c, 3, 68, 0
8, 16680, Note_on_c, 3, 68, 92
8, 16680, Note_on_c, 3, 71, 92
8, 16799, Note_on_c, 3, 68, 0
8, 16799, Note_on_c, 3, 71, 0
8, 16800, Note_on_c, 3, 69, 84
8, 16904, Note_on_c, 3, 69, 0
8, 16920, Note_on_c, 3, 69, 84
8, 16920, Note_on_c, 3, 81, 84
8, 16971, Note_on_c, 3, 69, 0
8, 16971, Note_on_c, 3, 81, 0
8, 16980, Note_on_c, 3, 69, 84
8, 16980, Note_on_c, 3, 81, 84
8, 17031, Note_on_c, 3, 69, 0
8, 17031, Note_on_c, 3, 81, 0
8, 17040, Note_on_c, 3, 69, 84
8, 17040, Note_on_c, 3, 81, 84
8, 17159, Note_on_c, 3, 69, 0
8, 17159, Note_on_c, 3, 81, 0
8, 17400, Note_on_c, 3, 81, 84
8, 17400, Note_on_c, 3, 69, 84
8, 17451, Note_on_c, 3, 81, 0
8, 17451, Note_on_c, 3, 69, 0
8, 17460, Note_on_c, 3, 81, 84
8, 17460, Note_on_c, 3, 69, 84
8, 17511, Note_on_c, 3, 81, 0
8, 17511, Note_on_c, 3, 69, 0
8, 17520, Note_on_c, 3, 81, 84
8, 17520, Note_on_c, 3, 69, 84
8, 17639, Note_on_c, 3, 81, 0
8, 17639, Note_on_c, 3, 69, 0
8, 17880, Note_on_c, 3, 68, 84
8, 17880, Note_on_c, 3, 71, 84
8, 17931, Note_on_c, 3, 68, 0
8, 17931, Note_on_c, 3, 71, 0
8, 17940, Note_on_c, 3, 68, 84
8, 17940, Note_on_c, 3, 71, 84
8, 17991, Note_on_c, 3, 68, 0
8, 17991, Note_on_c, 3, 71, 0
8, 18000, Note_on_c, 3, 71, 84
8, 18000, Note_on_c, 3, 68, 84
8, 18119, Note_on_c, 3, 71, 0
8, 18119, Note_on_c, 3, 68, 0
8, 18360, Note_on_c, 3, 71, 84
8, 18360, Note_on_c, 3, 68, 84
8, 18411, Note_on_c, 3, 71, 0
8, 18411, Note_on_c, 3, 68, 0
8, 18420, Note_on_c, 3, 71, 84
8, 18420, Note_on_c, 3, 68, 84
8, 18471, Note_on_c, 3, 71, 0
8, 18471, Note_on_c, 3, 68, 0
8, 18480, Note_on_c, 3, 68, 84
8, 18480, Note_on_c, 3, 71, 84
8, 18599, Note_on_c, 3, 68, 0
8, 18599, Note_on_c, 3, 71, 0
8, 18720, Note_on_c, 3, 73, 84
8, 18720, Note_on_c, 3, 76, 84
8, 19064, Note_on_c, 3, 73, 0
8, 19064, Note_on_c, 3, 76, 0
8, 19080, Note_on_c, 3, 71, 84
8, 19080, Note_on_c, 3, 74, 84
8, 19169, Note_on_c, 3, 71, 0
8, 19169, Note_on_c, 3, 74, 0
8, 19200, Note_on_c, 3, 69, 84
8, 19200, Note_on_c, 3, 73, 84
8, 19289, Note_on_c, 3, 69, 0
8, 19289, Note_on_c, 3, 73, 0
8, 19320, Note_on_c, 3, 73, 84
8, 19320, Note_on_c, 3, 76, 84
8, 19409, Note_on_c, 3, 73, 0
8, 19409, Note_on_c, 3, 76, 0
8, 19440, Note_on_c, 3, 71, 84
8, 19440, Note_on_c, 3, 74, 84
8, 19529, Note_on_c, 3, 71, 0
8, 19529, Note_on_c, 3, 74, 0
8, 19560, Note_on_c, 3, 73, 84
8, 19560, Note_on_c, 3, 69, 84
8, 19649, Note_on_c, 3, 73, 0
8, 19649, Note_on_c, 3, 69, 0
8, 19680, Note_on_c, 3, 71, 84
8, 19680, Note_on_c, 3, 74, 84
8, 19769, Note_on_c, 3, 71, 0
8, 19769, Note_on_c, 3, 74, 0
8, 19800, Note_on_c, 3, 73, 84
8, 19800, Note_on_c, 3, 69, 84
8, 19889, Note_on_c, 3, 73, 0
8, 19889, Note_on_c, 3, 69, 0
8, 19920, Note_on_c, 3, 71, 84
8, 19920, Note_on_c, 3, 68, 84
8, 20009, Note_on_c, 3, 71, 0
8, 20009, Note_on_c, 3, 68, 0
8, 20040, Note_on_c, 3, 74, 84
8, 20040, Note_on_c, 3, 78, 84
8, 20129, Note_on_c, 3, 74, 0
8, 20129, Note_on_c, 3, 78, 0
8, 20160, Note_on_c, 3, 76, 84
8, 20160, Note_on_c, 3, 73, 84
8, 20249, Note_on_c, 3, 76, 0
8, 20249, Note_on_c, 3, 73, 0
8, 20280, Note_on_c, 3, 74, 84
8, 20280, Note_on_c, 3, 71, 84
8, 20369, Note_on_c, 3, 74, 0
8, 20369, Note_on_c, 3, 71, 0
8, 20400, Note_on_c, 3, 69, 84
8, 20400, Note_on_c, 3, 73, 84
8, 20489, Note_on_c, 3, 69, 0
8, 20489, Note_on_c, 3, 73, 0
8, 20520, Note_on_c, 3, 68, 84
8, 20520, Note_on_c, 3, 71, 84
8, 20609, Note_on_c, 3, 68, 0
8, 20609, Note_on_c, 3, 71, 0
8, 20640, Note_on_c, 3, 69, 84
8, 20744, Note_on_c, 3, 69, 0
8, 20760, Note_on_c, 3, 81, 84
8, 20760, Note_on_c, 3, 69, 84
8, 20811, Note_on_c, 3, 81, 0
8, 20811, Note_on_c, 3, 69, 0
8, 20820, Note_on_c, 3, 81, 84
8, 20820, Note_on_c, 3, 69, 84
8, 20871, Note_on_c, 3, 81, 0
8, 20871, Note_on_c, 3, 69, 0
8, 20880, Note_on_c, 3, 81, 84
8, 20880, Note_on_c, 3, 69, 84
8, 20999, Note_on_c, 3, 81, 0
8, 20999, Note_on_c, 3, 69, 0
8, 21240, Note_on_c, 3, 69, 84
8, 21240, Note_on_c, 3, 81, 84
8, 21291, Note_on_c, 3, 69, 0
8, 21291, Note_on_c, 3, 81, 0
8, 21300, Note_on_c, 3, 69, 84
8, 21300, Note_on_c, 3, 81, 84
8, 21351, Note_on_c, 3, 69, 0
8, 21351, Note_on_c, 3, 81, 0
8, 21360, Note_on_c, 3, 81, 84
8, 21360, Note_on_c, 3, 69, 84
8, 21479, Note_on_c, 3, 81, 0
8, 21479, Note_on_c, 3, 69, 0
8, 21720, Note_on_c, 3, 71, 84
8, 21720, Note_on_c, 3, 68, 84
8, 21771, Note_on_c, 3, 71, 0
8, 21771, Note_on_c, 3, 68, 0
8, 21780, Note_on_c, 3, 68, 84
8, 21780, Note_on_c, 3, 71, 84
8, 21831, Note_on_c, 3, 68, 0
8, 21831, Note_on_c, 3, 71, 0
8, 21840, Note_on_c, 3, 71, 84
8, 21840, Note_on_c, 3, 68, 84
8, 21959, Note_on_c, 3, 71, 0
8, 21959, Note_on_c, 3, 68, 0
8, 22200, Note_on_c, 3, 68, 84
8, 22200, Note_on_c, 3, 71, 84
8, 22251, Note_on_c, 3, 68, 0
8, 22251, Note_on_c, 3, 71, 0
8, 22260, Note_on_c, 3, 68, 84
8, 22260, Note_on_c, 3, 71, 84
8, 22311, Note_on_c, 3, 68, 0
8, 22311, Note_on_c, 3, 71, 0
8, 22320, Note_on_c, 3, 71, 84
8, 22320, Note_on_c, 3, 68, 84
8, 22439, Note_on_c, 3, 71, 0
8, 22439, Note_on_c, 3, 68, 0
8, 22560, Note_on_c, 3, 69, 84
8, 22560, Note_on_c, 3, 73, 84
8, 22679, Note_on_c, 3, 69, 0
8, 22679, Note_on_c, 3, 73, 0
8, 22800, Note_on_c, 3, 69, 84
8, 22800, Note_on_c, 3, 73, 84
8, 22919, Note_on_c, 3, 69, 0
8, 22919, Note_on_c, 3, 73, 0
8, 23040, Note_on_c, 3, 73, 84
8, 23040, Note_on_c, 3, 69, 84
8, 23159, Note_on_c, 3, 73, 0
8, 23159, Note_on_c, 3, 69, 0
8, 23280, Note_on_c, 3, 69, 84
8, 23280, Note_on_c, 3, 73, 84
8, 23399, Note_on_c, 3, 69, 0
8, 23399, Note_on_c, 3, 73, 0
8, 23520, Note_on_c, 3, 71, 84
8, 23520, Note_on_c, 3, 74, 84
8, 23639, Note_on_c, 3, 71, 0
8, 23639, Note_on_c, 3, 74, 0
8, 23760, Note_on_c, 3, 74, 84
8, 23760, Note_on_c, 3, 71, 84
8, 23879, Note_on_c, 3, 74, 0
8, 23879, Note_on_c, 3, 71, 0
8, 24000, Note_on_c, 3, 74, 84
8, 24000, Note_on_c, 3, 71, 84
8, 24119, Note_on_c, 3, 74, 0
8, 24119, Note_on_c, 3, 71, 0
8, 24240, Note_on_c, 3, 71, 84
8, 24240, Note_on_c, 3, 74, 84
8, 24359, Note_on_c, 3, 71, 0
8, 24359, Note_on_c, 3, 74, 0
8, 24480, Note_on_c, 3, 73, 84
8, 24480, Note_on_c, 3, 69, 84
8, 24599, Note_on_c, 3, 73, 0
8, 24599, Note_on_c, 3, 69, 0
8, 28800, Note_on_c, 3, 61, 84
8, 28800, Note_on_c, 3, 73, 84
8, 30359, Note_on_c, 3, 61, 0
8, 30359, Note_on_c, 3, 73, 0
8, 30720, Note_on_c, 3, 73, 84
8, 30720, Note_on_c, 3, 61, 84
8, 31904, Note_on_c, 3, 73, 0
8, 31904, Note_on_c, 3, 61, 0
8, 31920, Note_on_c, 3, 68, 84
8, 31920, Note_on_c, 3, 73, 84
8, 32159, Note_on_c, 3, 68, 0
8, 32160, Note_on_c, 3, 69, 84
8, 32279, Note_on_c, 3, 73, 0
8, 32279, Note_on_c, 3, 69, 0
8, 32400, Note_on_c, 3, 69, 84
8, 32400, Note_on_c, 3, 66, 84
8, 32519, Note_on_c, 3, 69, 0
8, 32519, Note_on_c, 3, 66, 0
8, 32640, Note_on_c, 3, 66, 84
8, 32640, Note_on_c, 3, 69, 84
8, 32759, Note_on_c, 3, 66, 0
8, 32759, Note_on_c, 3, 69, 0
8, 32880, Note_on_c, 3, 69, 84
8, 32880, Note_on_c, 3, 66, 84
8, 32999, Note_on_c, 3, 69, 0
8, 32999, Note_on_c, 3, 66, 0
8, 33120, Note_on_c, 3, 71, 84
8, 33120, Note_on_c, 3, 68, 84
8, 33239, Note_on_c, 3, 71, 0
8, 33239, Note_on_c, 3, 68, 0
8, 33360, Note_on_c, 3, 68, 84
8, 33360, Note_on_c, 3, 71, 84
8, 33479, Note_on_c, 3, 68, 0
8, 33479, Note_on_c, 3, 71, 0
8, 33600, Note_on_c, 3, 68, 84
8, 33600, Note_on_c, 3, 71, 84
8, 33719, Note_on_c, 3, 68, 0
8, 33719, Note_on_c, 3, 71, 0
8, 33840, Note_on_c, 3, 68, 84
8, 33840, Note_on_c, 3, 71, 84
8, 33959, Note_on_c, 3, 68, 0
8, 33959, Note_on_c, 3, 71, 0
8, 34080, Note_on_c, 3, 66, 84
8, 34080, Note_on_c, 3, 69, 84
8, 34199, Note_on_c, 3, 66, 0
8, 34199, Note_on_c, 3, 69, 0
8, 34320, Note_on_c, 3, 69, 84
8, 34320, Note_on_c, 3, 66, 84
8, 34439, Note_on_c, 3, 69, 0
8, 34439, Note_on_c, 3, 66, 0
8, 34560, Note_on_c, 3, 66, 84
8, 34560, Note_on_c, 3, 70, 84
8, 34679, Note_on_c, 3, 66, 0
8, 34679, Note_on_c, 3, 70, 0
8, 34800, Note_on_c, 3, 66, 84
8, 34800, Note_on_c, 3, 70, 84
8, 34919, Note_on_c, 3, 66, 0
8, 34919, Note_on_c, 3, 70, 0
8, 35040, Note_on_c, 3, 72, 84
8, 35040, Note_on_c, 3, 66, 84
8, 35159, Note_on_c, 3, 72, 0
8, 35159, Note_on_c, 3, 66, 0
8, 35280, Note_on_c, 3, 72, 84
8, 35280, Note_on_c, 3, 66, 84
8, 35399, Note_on_c, 3, 72, 0
8, 35399, Note_on_c, 3, 66, 0
8, 35520, Note_on_c, 3, 73, 84
8, 35520, Note_on_c, 3, 66, 84
8, 35639, Note_on_c, 3, 73, 0
8, 35639, Note_on_c, 3, 66, 0
8, 35760, Note_on_c, 3, 73, 84
8, 35760, Note_on_c, 3, 66, 84
8, 35879, Note_on_c, 3, 73, 0
8, 35879, Note_on_c, 3, 66, 0
8, 36000, Note_on_c, 3, 66, 84
8, 36000, Note_on_c, 3, 75, 84
8, 36119, Note_on_c, 3, 66, 0
8, 36119, Note_on_c, 3, 75, 0
8, 36240, Note_on_c, 3, 75, 84
8, 36240, Note_on_c, 3, 72, 84
8, 36359, Note_on_c, 3, 75, 0
8, 36359, Note_on_c, 3, 72, 0
8, 36480, Note_on_c, 3, 72, 84
8, 36480, Note_on_c, 3, 75, 84
8, 36599, Note_on_c, 3, 72, 0
8, 36599, Note_on_c, 3, 75, 0
8, 36720, Note_on_c, 3, 75, 84
8, 36720, Note_on_c, 3, 72, 84
8, 36839, Note_on_c, 3, 75, 0
8, 36839, Note_on_c, 3, 72, 0
8, 36960, Note_on_c, 3, 75, 84
8, 36960, Note_on_c, 3, 72, 84
8, 37079, Note_on_c, 3, 75, 0
8, 37079, Note_on_c, 3, 72, 0
8, 37200, Note_on_c, 3, 66, 76
8, 37200, Note_on_c, 3, 75, 76
8, 37289, Note_on_c, 3, 66, 0
8, 37289, Note_on_c, 3, 75, 0
8, 39120, Note_on_c, 3, 75, 76
8, 39120, Note_on_c, 3, 66, 76
8, 39209, Note_on_c, 3, 75, 0
8, 39209, Note_on_c, 3, 66, 0
8, 42960, Note_on_c, 3, 68, 76
8, 43199, Note_on_c, 3, 68, 0
8, 43440, Note_on_c, 3, 68, 76
8, 43679, Note_on_c, 3, 68, 0
8, 43920, Note_on_c, 3, 68, 76
8, 44159, Note_on_c, 3, 68, 0
8, 44400, Note_on_c, 3, 68, 76
8, 44624, Note_on_c, 3, 68, 0
8, 45120, Note_on_c, 3, 67, 52
8, 45120, Note_on_c, 3, 64, 52
8, 45344, Note_on_c, 3, 67, 0
8, 45344, Note_on_c, 3, 64, 0
8, 45360, Note_on_c, 3, 67, 52
8, 45360, Note_on_c, 3, 64, 52
8, 45584, Note_on_c, 3, 67, 0
8, 45584, Note_on_c, 3, 64, 0
8, 45600, Note_on_c, 3, 66, 52
8, 45600, Note_on_c, 3, 62, 52
8, 45824, Note_on_c, 3, 66, 0
8, 45824, Note_on_c, 3, 62, 0
8, 45840, Note_on_c, 3, 66, 52
8, 45840, Note_on_c, 3, 62, 52
8, 46064, Note_on_c, 3, 66, 0
8, 46064, Note_on_c, 3, 62, 0
8, 46080, Note_on_c, 3, 64, 52
8, 46080, Note_on_c, 3, 67, 52
8, 46304, Note_on_c, 3, 64, 0
8, 46304, Note_on_c, 3, 67, 0
8, 46320, Note_on_c, 3, 64, 52
8, 46320, Note_on_c, 3, 67, 52
8, 46544, Note_on_c, 3, 64, 0
8, 46544, Note_on_c, 3, 67, 0
8, 46560, Note_on_c, 3, 62, 52
8, 46560, Note_on_c, 3, 66, 52
8, 46784, Note_on_c, 3, 62, 0
8, 46784, Note_on_c, 3, 66, 0
8, 46800, Note_on_c, 3, 66, 52
8, 46800, Note_on_c, 3, 62, 52
8, 47024, Note_on_c, 3, 66, 0
8, 47024, Note_on_c, 3, 62, 0
8, 47760, Note_on_c, 3, 68, 76
8, 47999, Note_on_c, 3, 68, 0
8, 48240, Note_on_c, 3, 68, 76
8, 48479, Note_on_c, 3, 68, 0
8, 48720, Note_on_c, 3, 68, 76
8, 48959, Note_on_c, 3, 68, 0
8, 49200, Note_on_c, 3, 68, 76
8, 49439, Note_on_c, 3, 68, 0
8, 49920, Note_on_c, 3, 67, 52
8, 49920, Note_on_c, 3, 64, 52
8, 50144, Note_on_c, 3, 67, 0
8, 50144, Note_on_c, 3, 64, 0
8, 50160, Note_on_c, 3, 64, 52
8, 50160, Note_on_c, 3, 67, 52
8, 50384, Note_on_c, 3, 64, 0
8, 50384, Note_on_c, 3, 67, 0
8, 50400, Note_on_c, 3, 66, 52
8, 50400, Note_on_c, 3, 62, 52
8, 50624, Note_on_c, 3, 66, 0
8, 50624, Note_on_c, 3, 62, 0
8, 50640, Note_on_c, 3, 66, 52
8, 50640, Note_on_c, 3, 62, 52
8, 50864, Note_on_c, 3, 66, 0
8, 50864, Note_on_c, 3, 62, 0
8, 50880, Note_on_c, 3, 64, 52
8, 50880, Note_on_c, 3, 67, 52
8, 51104, Note_on_c, 3, 64, 0
8, 51104, Note_on_c, 3, 67, 0
8, 51120, Note_on_c, 3, 67, 52
8, 51120, Note_on_c, 3, 64, 52
8, 51344, Note_on_c, 3, 67, 0
8, 51344, Note_on_c, 3, 64, 0
8, 51360, Note_on_c, 3, 67, 52
8, 51360, Note_on_c, 3, 64, 52
8, 51479, Note_on_c, 3, 67, 0
8, 51479, Note_on_c, 3, 64, 0
8, 51588, Control_c, 3, 11, 64
8, 51600, Control_c, 3, 11, 64
8, 51600, Note_on_c, 3, 67, 84
8, 51600, Note_on_c, 3, 64, 84
8, 51688, Control_c, 3, 11, 65
8, 51775, Control_c, 3, 11, 66
8, 51863, Control_c, 3, 11, 67
8, 51950, Control_c, 3, 11, 68
8, 52038, Control_c, 3, 11, 69
8, 52126, Control_c, 3, 11, 70
8, 52213, Control_c, 3, 11, 71
8, 52301, Control_c, 3, 11, 72
8, 52389, Control_c, 3, 11, 73
8, 52476, Control_c, 3, 11, 74
8, 52564, Control_c, 3, 11, 75
8, 52651, Control_c, 3, 11, 76
8, 52739, Control_c, 3, 11, 77
8, 52827, Control_c, 3, 11, 78
8, 52914, Control_c, 3, 11, 79
8, 53002, Control_c, 3, 11, 80
8, 53090, Control_c, 3, 11, 81
8, 53177, Control_c, 3, 11, 82
8, 53265, Control_c, 3, 11, 83
8, 53352, Control_c, 3, 11, 84
8, 53440, Control_c, 3, 11, 85
8, 53528, Control_c, 3, 11, 86
8, 53615, Control_c, 3, 11, 87
8, 53703, Control_c, 3, 11, 88
8, 53744, Note_on_c, 3, 67, 0
8, 53744, Note_on_c, 3, 64, 0
8, 53760, Note_on_c, 3, 66, 84
8, 53760, Note_on_c, 3, 62, 84
8, 53790, Control_c, 3, 11, 89
8, 53878, Control_c, 3, 11, 90
8, 53966, Control_c, 3, 11, 91
8, 54053, Control_c, 3, 11, 92
8, 54141, Control_c, 3, 11, 93
8, 54224, Note_on_c, 3, 66, 0
8, 54224, Note_on_c, 3, 62, 0
8, 54229, Control_c, 3, 11, 94
8, 54240, Note_on_c, 3, 67, 84
8, 54240, Note_on_c, 3, 64, 84
8, 54316, Control_c, 3, 11, 95
8, 54404, Control_c, 3, 11, 96
8, 54491, Control_c, 3, 11, 97
8, 54579, Control_c, 3, 11, 98
8, 54667, Control_c, 3, 11, 99
8, 54754, Control_c, 3, 11, 100
8, 54842, Control_c, 3, 11, 101
8, 54930, Control_c, 3, 11, 102
8, 55017, Control_c, 3, 11, 103
8, 55105, Control_c, 3, 11, 104
8, 55192, Control_c, 3, 11, 105
8, 55280, Control_c, 3, 11, 106
8, 55368, Control_c, 3, 11, 107
8, 55455, Control_c, 3, 11, 108
8, 55543, Control_c, 3, 11, 109
8, 55630, Control_c, 3, 11, 110
8, 55718, Control_c, 3, 11, 111
8, 55806, Control_c, 3, 11, 112
8, 55893, Control_c, 3, 11, 113
8, 55981, Control_c, 3, 11, 114
8, 56069, Control_c, 3, 11, 115
8, 56156, Control_c, 3, 11, 116
8, 56244, Control_c, 3, 11, 117
8, 56331, Control_c, 3, 11, 118
8, 56419, Control_c, 3, 11, 119
8, 56507, Control_c, 3, 11, 120
8, 56594, Control_c, 3, 11, 121
8, 56624, Note_on_c, 3, 67, 0
8, 56624, Note_on_c, 3, 64, 0
8, 56640, Note_on_c, 3, 66, 84
8, 56640, Note_on_c, 3, 62, 84
8, 56682, Control_c, 3, 11, 122
8, 56770, Control_c, 3, 11, 123
8, 56857, Control_c, 3, 11, 124
8, 56945, Control_c, 3, 11, 125
8, 57032, Control_c, 3, 11, 127
8, 57104, Note_on_c, 3, 66, 0
8, 57104, Note_on_c, 3, 62, 0
8, 57120, Note_on_c, 3, 66, 84
8, 57120, Note_on_c, 3, 69, 84
8, 57224, Note_on_c, 3, 66, 0
8, 57224, Note_on_c, 3, 69, 0
8, 57240, Note_on_c, 3, 66, 84
8, 57240, Note_on_c, 3, 69, 84
8, 57344, Note_on_c, 3, 66, 0
8, 57344, Note_on_c, 3, 69, 0
8, 57360, Note_on_c, 3, 66, 84
8, 57360, Note_on_c, 3, 69, 84
8, 57464, Note_on_c, 3, 66, 0
8, 57464, Note_on_c, 3, 69, 0
8, 57480, Note_on_c, 3, 66, 84
8, 57480, Note_on_c, 3, 69, 84
8, 57584, Note_on_c, 3, 66, 0
8, 57584, Note_on_c, 3, 69, 0
8, 57600, Note_on_c, 3, 66, 84
8, 57600, Note_on_c, 3, 69, 84
8, 57704, Note_on_c, 3, 66, 0
8, 57704, Note_on_c, 3, 69, 0
8, 57720, Note_on_c, 3, 69, 84
8, 57720, Note_on_c, 3, 66, 84
8, 57824, Note_on_c, 3, 69, 0
8, 57824, Note_on_c, 3, 66, 0
8, 57840, Note_on_c, 3, 66, 84
8, 57840, Note_on_c, 3, 69, 84
8, 57944, Note_on_c, 3, 66, 0
8, 57944, Note_on_c, 3, 69, 0
8, 57960, Note_on_c, 3, 69, 84
8, 57960, Note_on_c, 3, 66, 84
8, 58064, Note_on_c, 3, 69, 0
8, 58064, Note_on_c, 3, 66, 0
8, 58080, Note_on_c, 3, 64, 92
8, 58080, Note_on_c, 3, 68, 92
8, 58184, Note_on_c, 3, 64, 0
8, 58184, Note_on_c, 3, 68, 0
8, 58200, Note_on_c, 3, 64, 84
8, 58200, Note_on_c, 3, 68, 84
8, 58304, Note_on_c, 3, 64, 0
8, 58304, Note_on_c, 3, 68, 0
8, 58320, Note_on_c, 3, 64, 84
8, 58320, Note_on_c, 3, 68, 84
8, 58424, Note_on_c, 3, 64, 0
8, 58424, Note_on_c, 3, 68, 0
8, 58440, Note_on_c, 3, 64, 84
8, 58440, Note_on_c, 3, 68, 84
8, 58544, Note_on_c, 3, 64, 0
8, 58544, Note_on_c, 3, 68, 0
8, 58560, Note_on_c, 3, 66, 92
8, 58560, Note_on_c, 3, 69, 92
8, 58664, Note_on_c, 3, 66, 0
8, 58664, Note_on_c, 3, 69, 0
8, 58680, Note_on_c, 3, 69, 84
8, 58680, Note_on_c, 3, 66, 84
8, 58784, Note_on_c, 3, 69, 0
8, 58784, Note_on_c, 3, 66, 0
8, 58800, Note_on_c, 3, 66, 84
8, 58800, Note_on_c, 3, 69, 84
8, 58904, Note_on_c, 3, 66, 0
8, 58904, Note_on_c, 3, 69, 0
8, 58920, Note_on_c, 3, 69, 84
8, 58920, Note_on_c, 3, 66, 84
8, 59024, Note_on_c, 3, 69, 0
8, 59024, Note_on_c, 3, 66, 0
8, 59040, Note_on_c, 3, 64, 92
8, 59040, Note_on_c, 3, 68, 92
8, 59144, Note_on_c, 3, 64, 0
8, 59144, Note_on_c, 3, 68, 0
8, 59160, Note_on_c, 3, 64, 84
8, 59160, Note_on_c, 3, 68, 84
8, 59264, Note_on_c, 3, 64, 0
8, 59264, Note_on_c, 3, 68, 0
8, 59280, Note_on_c, 3, 68, 84
8, 59280, Note_on_c, 3, 64, 84
8, 59384, Note_on_c, 3, 68, 0
8, 59384, Note_on_c, 3, 64, 0
8, 59400, Note_on_c, 3, 64, 84
8, 59400, Note_on_c, 3, 68, 84
8, 59504, Note_on_c, 3, 64, 0
8, 59504, Note_on_c, 3, 68, 0
8, 59520, Note_on_c, 3, 69, 92
8, 59520, Note_on_c, 3, 66, 92
8, 59624, Note_on_c, 3, 69, 0
8, 59624, Note_on_c, 3, 66, 0
8, 59640, Note_on_c, 3, 69, 84
8, 59640, Note_on_c, 3, 66, 84
8, 59744, Note_on_c, 3, 69, 0
8, 59744, Note_on_c, 3, 66, 0
8, 59760, Note_on_c, 3, 69, 84
8, 59760, Note_on_c, 3, 66, 84
8, 59864, Note_on_c, 3, 69, 0
8, 59864, Note_on_c, 3, 66, 0
8, 59880, Note_on_c, 3, 66, 84
8, 59880, Note_on_c, 3, 69, 84
8, 59984, Note_on_c, 3, 66, 0
8, 59984, Note_on_c, 3, 69, 0
8, 60000, Note_on_c, 3, 64, 92
8, 60000, Note_on_c, 3, 68, 92
8, 60104, Note_on_c, 3, 64, 0
8, 60104, Note_on_c, 3, 68, 0
8, 60120, Note_on_c, 3, 68, 84
8, 60120, Note_on_c, 3, 64, 84
8, 60224, Note_on_c, 3, 68, 0
8, 60224, Note_on_c, 3, 64, 0
8, 60240, Note_on_c, 3, 68, 84
8, 60240, Note_on_c, 3, 64, 84
8, 60344, Note_on_c, 3, 68, 0
8, 60344, Note_on_c, 3, 64, 0
8, 60360, Note_on_c, 3, 64, 84
8, 60360, Note_on_c, 3, 68, 84
8, 60464, Note_on_c, 3, 64, 0
8, 60464, Note_on_c, 3, 68, 0
8, 60480, Note_on_c, 3, 66, 92
8, 60480, Note_on_c, 3, 69, 92
8, 60584, Note_on_c, 3, 66, 0
8, 60584, Note_on_c, 3, 69, 0
8, 60600, Note_on_c, 3, 66, 84
8, 60600, Note_on_c, 3, 69, 84
8, 60704, Note_on_c, 3, 66, 0
8, 60704, Note_on_c, 3, 69, 0
8, 60720, Note_on_c, 3, 69, 84
8, 60720, Note_on_c, 3, 66, 84
8, 60824, Note_on_c, 3, 69, 0
8, 60824, Note_on_c, 3, 66, 0
8, 60840, Note_on_c, 3, 69, 84
8, 60840, Note_on_c, 3, 66, 84
8, 60944, Note_on_c, 3, 69, 0
8, 60944, Note_on_c, 3, 66, 0
8, 60960, Note_on_c, 3, 64, 92
8, 60960, Note_on_c, 3, 68, 92
8, 61064, Note_on_c, 3, 64, 0
8, 61064, Note_on_c, 3, 68, 0
8, 61080, Note_on_c, 3, 64, 84
8, 61080, Note_on_c, 3, 68, 84
8, 61184, Note_on_c, 3, 64, 0
8, 61184, Note_on_c, 3, 68, 0
8, 61200, Note_on_c, 3, 68, 84
8, 61200, Note_on_c, 3, 64, 84
8, 61304, Note_on_c, 3, 68, 0
8, 61304, Note_on_c, 3, 64, 0
8, 61320, Note_on_c, 3, 68, 84
8, 61320, Note_on_c, 3, 64, 84
8, 61424, Note_on_c, 3, 68, 0
8, 61424, Note_on_c, 3, 64, 0
8, 61440, Note_on_c, 3, 68, 92
8, 61440, Note_on_c, 3, 66, 92
8, 61544, Note_on_c, 3, 68, 0
8, 61544, Note_on_c, 3, 66, 0
8, 61560, Note_on_c, 3, 66, 84
8, 61560, Note_on_c, 3, 68, 84
8, 61664, Note_on_c, 3, 66, 0
8, 61664, Note_on_c, 3, 68, 0
8, 61680, Note_on_c, 3, 66, 84
8, 61680, Note_on_c, 3, 68, 84
8, 61784, Note_on_c, 3, 66, 0
8, 61784, Note_on_c, 3, 68, 0
8, 61800, Note_on_c, 3, 68, 84
8, 61800, Note_on_c, 3, 66, 84
8, 61904, Note_on_c, 3, 68, 0
8, 61904, Note_on_c, 3, 66, 0
8, 61920, Note_on_c, 3, 68, 84
8, 61920, Note_on_c, 3, 64, 84
8, 62024, Note_on_c, 3, 68, 0
8, 62024, Note_on_c, 3, 64, 0
8, 62040, Note_on_c, 3, 64, 84
8, 62040, Note_on_c, 3, 68, 84
8, 62144, Note_on_c, 3, 64, 0
8, 62144, Note_on_c, 3, 68, 0
8, 62160, Note_on_c, 3, 69, 92
8, 62160, Note_on_c, 3, 66, 92
8, 62264, Note_on_c, 3, 69, 0
8, 62264, Note_on_c, 3, 66, 0
8, 62280, Note_on_c, 3, 69, 84
8, 62280, Note_on_c, 3, 66, 84
8, 62384, Note_on_c, 3, 69, 0
8, 62384, Note_on_c, 3, 66, 0
8, 62400, Note_on_c, 3, 69, 92
8, 62400, Note_on_c, 3, 66, 92
8, 62504, Note_on_c, 3, 69, 0
8, 62504, Note_on_c, 3, 66, 0
8, 62520, Note_on_c, 3, 69, 84
8, 62520, Note_on_c, 3, 66, 84
8, 62624, Note_on_c, 3, 69, 0
8, 62624, Note_on_c, 3, 66, 0
8, 62640, Note_on_c, 3, 69, 84
8, 62640, Note_on_c, 3, 66, 84
8, 62744, Note_on_c, 3, 69, 0
8, 62744, Note_on_c, 3, 66, 0
8, 62760, Note_on_c, 3, 69, 84
8, 62760, Note_on_c, 3, 66, 84
8, 62864, Note_on_c, 3, 69, 0
8, 62864, Note_on_c, 3, 66, 0
8, 62880, Note_on_c, 3, 68, 84
8, 62880, Note_on_c, 3, 64, 84
8, 62984, Note_on_c, 3, 68, 0
8, 62984, Note_on_c, 3, 64, 0
8, 63000, Note_on_c, 3, 68, 84
8, 63000, Note_on_c, 3, 64, 84
8, 63104, Note_on_c, 3, 68, 0
8, 63104, Note_on_c, 3, 64, 0
8, 63120, Note_on_c, 3, 66, 92
8, 63120, Note_on_c, 3, 69, 92
8, 63224, Note_on_c, 3, 66, 0
8, 63224, Note_on_c, 3, 69, 0
8, 63240, Note_on_c, 3, 69, 84
8, 63240, Note_on_c, 3, 66, 84
8, 63344, Note_on_c, 3, 69, 0
8, 63344, Note_on_c, 3, 66, 0
8, 63360, Note_on_c, 3, 69, 92
8, 63360, Note_on_c, 3, 66, 92
8, 63464, Note_on_c, 3, 69, 0
8, 63464, Note_on_c, 3, 66, 0
8, 63480, Note_on_c, 3, 69, 84
8, 63480, Note_on_c, 3, 66, 84
8, 63584, Note_on_c, 3, 69, 0
8, 63584, Note_on_c, 3, 66, 0
8, 63600, Note_on_c, 3, 66, 84
8, 63600, Note_on_c, 3, 69, 84
8, 63704, Note_on_c, 3, 66, 0
8, 63704, Note_on_c, 3, 69, 0
8, 63720, Note_on_c, 3, 66, 84
8, 63720, Note_on_c, 3, 69, 84
8, 63824, Note_on_c, 3, 66, 0
8, 63824, Note_on_c, 3, 69, 0
8, 63840, Note_on_c, 3, 64, 84
8, 63840, Note_on_c, 3, 68, 84
8, 63944, Note_on_c, 3, 64, 0
8, 63944, Note_on_c, 3, 68, 0
8, 63960, Note_on_c, 3, 68, 84
8, 63960, Note_on_c, 3, 64, 84
8, 64064, Note_on_c, 3, 68, 0
8, 64064, Note_on_c, 3, 64, 0
8, 64080, Note_on_c, 3, 66, 92
8, 64080, Note_on_c, 3, 69, 92
8, 64184, Note_on_c, 3, 66, 0
8, 64184, Note_on_c, 3, 69, 0
8, 64200, Note_on_c, 3, 69, 84
8, 64200, Note_on_c, 3, 66, 84
8, 64304, Note_on_c, 3, 69, 0
8, 64304, Note_on_c, 3, 66, 0
8, 64320, Note_on_c, 3, 68, 84
8, 64320, Note_on_c, 3, 64, 84
8, 64424, Note_on_c, 3, 68, 0
8, 64424, Note_on_c, 3, 64, 0
8, 64440, Note_on_c, 3, 64, 84
8, 64440, Note_on_c, 3, 68, 84
8, 64544, Note_on_c, 3, 64, 0
8, 64544, Note_on_c, 3, 68, 0
8, 64560, Note_on_c, 3, 66, 92
8, 64560, Note_on_c, 3, 69, 92
8, 64664, Note_on_c, 3, 66, 0
8, 64664, Note_on_c, 3, 69, 0
8, 64680, Note_on_c, 3, 66, 84
8, 64680, Note_on_c, 3, 69, 84
8, 64784, Note_on_c, 3, 66, 0
8, 64784, Note_on_c, 3, 69, 0
8, 64800, Note_on_c, 3, 64, 84
8, 64800, Note_on_c, 3, 68, 84
8, 64904, Note_on_c, 3, 64, 0
8, 64904, Note_on_c, 3, 68, 0
8, 64920, Note_on_c, 3, 68, 84
8, 64920, Note_on_c, 3, 64, 84
8, 65024, Note_on_c, 3, 68, 0
8, 65024, Note_on_c, 3, 64, 0
8, 65040, Note_on_c, 3, 69, 92
8, 65040, Note_on_c, 3, 66, 92
8, 65144, Note_on_c, 3, 69, 0
8, 65144, Note_on_c, 3, 66, 0
8, 65160, Note_on_c, 3, 66, 84
8, 65160, Note_on_c, 3, 69, 84
8, 65264, Note_on_c, 3, 66, 0
8, 65264, Note_on_c, 3, 69, 0
8, 65280, Note_on_c, 3, 64, 84
8, 65280, Note_on_c, 3, 68, 84
8, 65384, Note_on_c, 3, 64, 0
8, 65384, Note_on_c, 3, 68, 0
8, 65400, Note_on_c, 3, 69, 84
8, 65504, Note_on_c, 3, 69, 0
8, 65520, Note_on_c, 3, 66, 84
8, 65520, Note_on_c, 3, 69, 84
8, 65624, Note_on_c, 3, 66, 0
8, 65624, Note_on_c, 3, 69, 0
8, 65640, Note_on_c, 3, 69, 84
8, 65640, Note_on_c, 3, 66, 84
8, 65744, Note_on_c, 3, 69, 0
8, 65744, Note_on_c, 3, 66, 0
8, 65760, Note_on_c, 3, 68, 84
8, 65760, Note_on_c, 3, 64, 84
8, 65864, Note_on_c, 3, 68, 0
8, 65864, Note_on_c, 3, 64, 0
8, 65880, Note_on_c, 3, 64, 84
8, 65880, Note_on_c, 3, 76, 84
8, 65931, Note_on_c, 3, 64, 0
8, 65931, Note_on_c, 3, 76, 0
8, 65940, Note_on_c, 3, 76, 84
8, 65940, Note_on_c, 3, 64, 84
8, 65991, Note_on_c, 3, 76, 0
8, 65991, Note_on_c, 3, 64, 0
8, 66000, Note_on_c, 3, 64, 84
8, 66000, Note_on_c, 3, 76, 84
8, 66119, Note_on_c, 3, 64, 0
8, 66119, Note_on_c, 3, 76, 0
8, 66840, Note_on_c, 3, 71, 84
8, 66840, Note_on_c, 3, 74, 84
8, 66891, Note_on_c, 3, 71, 0
8, 66891, Note_on_c, 3, 74, 0
8, 66900, Note_on_c, 3, 74, 84
8, 66900, Note_on_c, 3, 71, 84
8, 66951, Note_on_c, 3, 74, 0
8, 66951, Note_on_c, 3, 71, 0
8, 66960, Note_on_c, 3, 71, 84
8, 66960, Note_on_c, 3, 74, 84
8, 67079, Note_on_c, 3, 71, 0
8, 67079, Note_on_c, 3, 74, 0
8, 67680, Note_on_c, 3, 69, 84
8, 67680, Note_on_c, 3, 78, 84
8, 67799, Note_on_c, 3, 69, 0
8, 67799, Note_on_c, 3, 78, 0
8, 68040, Note_on_c, 3, 69, 92
8, 68040, Note_on_c, 3, 78, 92
8, 68159, Note_on_c, 3, 69, 0
8, 68159, Note_on_c, 3, 78, 0
8, 68160, Note_on_c, 3, 69, 84
8, 68160, Note_on_c, 3, 76, 84
8, 68279, Note_on_c, 3, 69, 0
8, 68279, Note_on_c, 3, 76, 0
8, 68520, Note_on_c, 3, 76, 92
8, 68520, Note_on_c, 3, 69, 92
8, 68639, Note_on_c, 3, 76, 0
8, 68639, Note_on_c, 3, 69, 0
8, 68640, Note_on_c, 3, 78, 84
8, 68640, Note_on_c, 3, 69, 84
8, 68759, Note_on_c, 3, 78, 0
8, 68759, Note_on_c, 3, 69, 0
8, 69000, Note_on_c, 3, 69, 92
8, 69000, Note_on_c, 3, 78, 92
8, 69119, Note_on_c, 3, 69, 0
8, 69119, Note_on_c, 3, 78, 0
8, 69120, Note_on_c, 3, 78, 84
8, 69120, Note_on_c, 3, 69, 84
8, 69239, Note_on_c, 3, 78, 0
8, 69239, Note_on_c, 3, 69, 0
8, 69240, Note_on_c, 3, 77, 84
8, 69359, Note_on_c, 3, 77, 0
8, 69480, Note_on_c, 3, 73, 92
8, 69480, Note_on_c, 3, 76, 92
8, 69599, Note_on_c, 3, 73, 0
8, 69599, Note_on_c, 3, 76, 0
8, 69600, Note_on_c, 3, 69, 84
8, 69600, Note_on_c, 3, 75, 84
8, 69719, Note_on_c, 3, 69, 0
8, 69719, Note_on_c, 3, 75, 0
8, 69960, Note_on_c, 3, 74, 92
8, 69960, Note_on_c, 3, 71, 92
8, 70079, Note_on_c, 3, 74, 0
8, 70079, Note_on_c, 3, 71, 0
8, 70080, Note_on_c, 3, 69, 84
8, 70080, Note_on_c, 3, 73, 84
8, 70199, Note_on_c, 3, 69, 0
8, 70199, Note_on_c, 3, 73, 0
8, 70440, Note_on_c, 3, 73, 92
8, 70440, Note_on_c, 3, 69, 92
8, 70559, Note_on_c, 3, 73, 0
8, 70559, Note_on_c, 3, 69, 0
8, 70560, Note_on_c, 3, 71, 84
8, 70560, Note_on_c, 3, 68, 84
8, 70679, Note_on_c, 3, 71, 0
8, 70679, Note_on_c, 3, 68, 0
8, 70920, Note_on_c, 3, 71, 92
8, 70920, Note_on_c, 3, 68, 92
8, 71039, Note_on_c, 3, 71, 0
8, 71039, Note_on_c, 3, 68, 0
8, 71040, Note_on_c, 3, 69, 84
8, 71144, Note_on_c, 3, 69, 0
8, 71160, Note_on_c, 3, 69, 84
8, 71160, Note_on_c, 3, 81, 84
8, 71211, Note_on_c, 3, 69, 0
8, 71211, Note_on_c, 3, 81, 0
8, 71220, Note_on_c, 3, 81, 84
8, 71220, Note_on_c, 3, 69, 84
8, 71271, Note_on_c, 3, 81, 0
8, 71271, Note_on_c, 3, 69, 0
8, 71280, Note_on_c, 3, 81, 84
8, 71280, Note_on_c, 3, 69, 84
8, 71399, Note_on_c, 3, 81, 0
8, 71399, Note_on_c, 3, 69, 0
8, 71520, Note_on_c, 3, 78, 84
8, 71520, Note_on_c, 3, 69, 84
8, 71639, Note_on_c, 3, 78, 0
8, 71639, Note_on_c, 3, 69, 0
8, 71880, Note_on_c, 3, 69, 92
8, 71880, Note_on_c, 3, 78, 92
8, 71999, Note_on_c, 3, 69, 0
8, 71999, Note_on_c, 3, 78, 0
8, 72000, Note_on_c, 3, 76, 84
8, 72000, Note_on_c, 3, 69, 84
8, 72119, Note_on_c, 3, 76, 0
8, 72119, Note_on_c, 3, 69, 0
8, 72360, Note_on_c, 3, 69, 92
8, 72360, Note_on_c, 3, 76, 92
8, 72479, Note_on_c, 3, 69, 0
8, 72479, Note_on_c, 3, 76, 0
8, 72480, Note_on_c, 3, 69, 84
8, 72480, Note_on_c, 3, 78, 84
8, 72599, Note_on_c, 3, 69, 0
8, 72599, Note_on_c, 3, 78, 0
8, 72840, Note_on_c, 3, 69, 92
8, 72840, Note_on_c, 3, 78, 92
8, 72959, Note_on_c, 3, 69, 0
8, 72959, Note_on_c, 3, 78, 0
8, 72960, Note_on_c, 3, 78, 84
8, 72960, Note_on_c, 3, 69, 84
8, 73079, Note_on_c, 3, 78, 0
8, 73079, Note_on_c, 3, 69, 0
8, 73080, Note_on_c, 3, 77, 84
8, 73199, Note_on_c, 3, 77, 0
8, 73320, Note_on_c, 3, 73, 92
8, 73320, Note_on_c, 3, 76, 92
8, 73439, Note_on_c, 3, 73, 0
8, 73439, Note_on_c, 3, 76, 0
8, 73440, Note_on_c, 3, 69, 84
8, 73440, Note_on_c, 3, 75, 84
8, 73559, Note_on_c, 3, 69, 0
8, 73559, Note_on_c, 3, 75, 0
8, 73800, Note_on_c, 3, 71, 92
8, 73800, Note_on_c, 3, 74, 92
8, 73919, Note_on_c, 3, 71, 0
8, 73919, Note_on_c, 3, 74, 0
8, 73920, Note_on_c, 3, 69, 84
8, 73920, Note_on_c, 3, 73, 84
8, 74039, Note_on_c, 3, 69, 0
8, 74039, Note_on_c, 3, 73, 0
8, 74280, Note_on_c, 3, 69, 92
8, 74280, Note_on_c, 3, 73, 92
8, 74399, Note_on_c, 3, 69, 0
8, 74399, Note_on_c, 3, 73, 0
8, 74400, Note_on_c, 3, 68, 84
8, 74400, Note_on_c, 3, 71, 84
8, 74519, Note_on_c, 3, 68, 0
8, 74519, Note_on_c, 3, 71, 0
8, 74760, Note_on_c, 3, 68, 92
8, 74760, Note_on_c, 3, 71, 92
8, 74879, Note_on_c, 3, 68, 0
8, 74879, Note_on_c, 3, 71, 0
8, 74880, Note_on_c, 3, 69, 84
8, 74984, Note_on_c, 3, 69, 0
8, 75000, Note_on_c, 3, 69, 84
8, 75000, Note_on_c, 3, 81, 84
8, 75051, Note_on_c, 3, 69, 0
8, 75051, Note_on_c, 3, 81, 0
8, 75060, Note_on_c, 3, 69, 84
8, 75060, Note_on_c, 3, 81, 84
8, 75111, Note_on_c, 3, 69, 0
8, 75111, Note_on_c, 3, 81, 0
8, 75120, Note_on_c, 3, 69, 84
8, 75120, Note_on_c, 3, 81, 84
8, 75239, Note_on_c, 3, 69, 0
8, 75239, Note_on_c, 3, 81, 0
8, 75480, Note_on_c, 3, 81, 84
8, 75480, Note_on_c, 3, 69, 84
8, 75531, Note_on_c, 3, 81, 0
8, 75531, Note_on_c, 3, 69, 0
8, 75540, Note_on_c, 3, 69, 84
8, 75540, Note_on_c, 3, 81, 84
8, 75591, Note_on_c, 3, 69, 0
8, 75591, Note_on_c, 3, 81, 0
8, 75600, Note_on_c, 3, 69, 84
8, 75600, Note_on_c, 3, 81, 84
8, 75719, Note_on_c, 3, 69, 0
8, 75719, Note_on_c, 3, 81, 0
8, 75960, Note_on_c, 3, 71, 84
8, 75960, Note_on_c, 3, 68, 84
8, 76011, Note_on_c, 3, 71, 0
8, 76011, Note_on_c, 3, 68, 0
8, 76020, Note_on_c, 3, 68, 84
8, 76020, Note_on_c, 3, 71, 84
8, 76071, Note_on_c, 3, 68, 0
8, 76071, Note_on_c, 3, 71, 0
8, 76080, Note_on_c, 3, 68, 84
8, 76080, Note_on_c, 3, 71, 84
8, 76199, Note_on_c, 3, 68, 0
8, 76199, Note_on_c, 3, 71, 0
8, 76440, Note_on_c, 3, 68, 84
8, 76440, Note_on_c, 3, 71, 84
8, 76491, Note_on_c, 3, 68, 0
8, 76491, Note_on_c, 3, 71, 0
8, 76500, Note_on_c, 3, 71, 84
8, 76500, Note_on_c, 3, 68, 84
8, 76551, Note_on_c, 3, 71, 0
8, 76551, Note_on_c, 3, 68, 0
8, 76560, Note_on_c, 3, 71, 84
8, 76560, Note_on_c, 3, 68, 84
8, 76679, Note_on_c, 3, 71, 0
8, 76679, Note_on_c, 3, 68, 0
8, 76800, Note_on_c, 3, 73, 84
8, 76800, Note_on_c, 3, 76, 84
8, 77144, Note_on_c, 3, 73, 0
8, 77144, Note_on_c, 3, 76, 0
8, 77160, Note_on_c, 3, 74, 84
8, 77160, Note_on_c, 3, 71, 84
8, 77249, Note_on_c, 3, 74, 0
8, 77249, Note_on_c, 3, 71, 0
8, 77280, Note_on_c, 3, 73, 84
8, 77280, Note_on_c, 3, 69, 84
8, 77369, Note_on_c, 3, 73, 0
8, 77369, Note_on_c, 3, 69, 0
8, 77400, Note_on_c, 3, 73, 84
8, 77400, Note_on_c, 3, 76, 84
8, 77489, Note_on_c, 3, 73, 0
8, 77489, Note_on_c, 3, 76, 0
8, 77520, Note_on_c, 3, 71, 84
8, 77520, Note_on_c, 3, 74, 84
8, 77609, Note_on_c, 3, 71, 0
8, 77609, Note_on_c, 3, 74, 0
8, 77640, Note_on_c, 3, 73, 84
8, 77640, Note_on_c, 3, 69, 84
8, 77729, Note_on_c, 3, 73, 0
8, 77729, Note_on_c, 3, 69, 0
8, 77760, Note_on_c, 3, 71, 84
8, 77760, Note_on_c, 3, 74, 84
8, 77849, Note_on_c, 3, 71, 0
8, 77849, Note_on_c, 3, 74, 0
8, 77880, Note_on_c, 3, 73, 84
8, 77880, Note_on_c, 3, 69, 84
8, 77969, Note_on_c, 3, 73, 0
8, 77969, Note_on_c, 3, 69, 0
8, 78000, Note_on_c, 3, 68, 84
8, 78000, Note_on_c, 3, 71, 84
8, 78089, Note_on_c, 3, 68, 0
8, 78089, Note_on_c, 3, 71, 0
8, 78120, Note_on_c, 3, 74, 84
8, 78120, Note_on_c, 3, 78, 84
8, 78209, Note_on_c, 3, 74, 0
8, 78209, Note_on_c, 3, 78, 0
8, 78240, Note_on_c, 3, 73, 84
8, 78240, Note_on_c, 3, 76, 84
8, 78329, Note_on_c, 3, 73, 0
8, 78329, Note_on_c, 3, 76, 0
8, 78360, Note_on_c, 3, 71, 84
8, 78360, Note_on_c, 3, 74, 84
8, 78449, Note_on_c, 3, 71, 0
8, 78449, Note_on_c, 3, 74, 0
8, 78480, Note_on_c, 3, 73, 84
8, 78480, Note_on_c, 3, 69, 84
8, 78569, Note_on_c, 3, 73, 0
8, 78569, Note_on_c, 3, 69, 0
8, 78600, Note_on_c, 3, 68, 84
8, 78600, Note_on_c, 3, 71, 84
8, 78689, Note_on_c, 3, 68, 0
8, 78689, Note_on_c, 3, 71, 0
8, 78720, Note_on_c, 3, 69, 84
8, 78824, Note_on_c, 3, 69, 0
8, 78840, Note_on_c, 3, 81, 84
8, 78840, Note_on_c, 3, 69, 84
8, 78891, Note_on_c, 3, 81, 0
8, 78891, Note_on_c, 3, 69, 0
8, 78900, Note_on_c, 3, 69, 84
8, 78900, Note_on_c, 3, 81, 84
8, 78951, Note_on_c, 3, 69, 0
8, 78951, Note_on_c, 3, 81, 0
8, 78960, Note_on_c, 3, 69, 84
8, 78960, Note_on_c, 3, 81, 84
8, 79079, Note_on_c, 3, 69, 0
8, 79079, Note_on_c, 3, 81, 0
8, 79320, Note_on_c, 3, 69, 84
8, 79320, Note_on_c, 3, 81, 84
8, 79371, Note_on_c, 3, 69, 0
8, 79371, Note_on_c, 3, 81, 0
8, 79380, Note_on_c, 3, 69, 84
8, 79380, Note_on_c, 3, 81, 84
8, 79431, Note_on_c, 3, 69, 0
8, 79431, Note_on_c, 3, 81, 0
8, 79440, Note_on_c, 3, 81, 84
8, 79440, Note_on_c, 3, 69, 84
8, 79559, Note_on_c, 3, 81, 0
8, 79559, Note_on_c, 3, 69, 0
8, 79800, Note_on_c, 3, 71, 84
8, 79800, Note_on_c, 3, 68, 84
8, 79851, Note_on_c, 3, 71, 0
8, 79851, Note_on_c, 3, 68, 0
8, 79860, Note_on_c, 3, 71, 84
8, 79860, Note_on_c, 3, 68, 84
8, 79911, Note_on_c, 3, 71, 0
8, 79911, Note_on_c, 3, 68, 0
8, 79920, Note_on_c, 3, 71, 84
8, 79920, Note_on_c, 3, 68, 84
8, 80039, Note_on_c, 3, 71, 0
8, 80039, Note_on_c, 3, 68, 0
8, 80280, Note_on_c, 3, 71, 84
8, 80280, Note_on_c, 3, 68, 84
8, 80331, Note_on_c, 3, 71, 0
8, 80331, Note_on_c, 3, 68, 0
8, 80340, Note_on_c, 3, 68, 84
8, 80340, Note_on_c, 3, 71, 84
8, 80391, Note_on_c, 3, 68, 0
8, 80391, Note_on_c, 3, 71, 0
8, 80400, Note_on_c, 3, 71, 84
8, 80400, Note_on_c, 3, 68, 84
8, 80519, Note_on_c, 3, 71, 0
8, 80519, Note_on_c, 3, 68, 0
8, 80640, Note_on_c, 3, 73, 84
8, 80640, Note_on_c, 3, 69, 84
8, 80759, Note_on_c, 3, 73, 0
8, 80759, Note_on_c, 3, 69, 0
8, 80880, Note_on_c, 3, 69, 84
8, 80880, Note_on_c, 3, 73, 84
8, 80999, Note_on_c, 3, 69, 0
8, 80999, Note_on_c, 3, 73, 0
8, 81120, Note_on_c, 3, 73, 84
8, 81120, Note_on_c, 3, 69, 84
8, 81239, Note_on_c, 3, 73, 0
8, 81239, Note_on_c, 3, 69, 0
8, 81360, Note_on_c, 3, 69, 84
8, 81360, Note_on_c, 3, 73, 84
8, 81479, Note_on_c, 3, 69, 0
8, 81479, Note_on_c, 3, 73, 0
8, 81600, Note_on_c, 3, 71, 84
8, 81600, Note_on_c, 3, 74, 84
8, 81719, Note_on_c, 3, 71, 0
8, 81719, Note_on_c, 3, 74, 0
8, 81840, Note_on_c, 3, 74, 84
8, 81840, Note_on_c, 3, 71, 84
8, 81959, Note_on_c, 3, 74, 0
8, 81959, Note_on_c, 3, 71, 0
8, 82080, Note_on_c, 3, 71, 84
8, 82080, Note_on_c, 3, 74, 84
8, 82199, Note_on_c, 3, 71, 0
8, 82199, Note_on_c, 3, 74, 0
8, 82320, Note_on_c, 3, 74, 84
8, 82320, Note_on_c, 3, 71, 84
8, 82439, Note_on_c, 3, 74, 0
8, 82439, Note_on_c, 3, 71, 0
8, 82560, Note_on_c, 3, 73, 84
8, 82560, Note_on_c, 3, 69, 84
8, 82679, Note_on_c, 3, 73, 0
8, 82679, Note_on_c, 3, 69, 0
8, 86880, Note_on_c, 3, 61, 84
8, 86880, Note_on_c, 3, 73, 84
8, 88439, Note_on_c, 3, 61, 0
8, 88439, Note_on_c, 3, 73, 0
8, 88800, Note_on_c, 3, 61, 84
8, 88800, Note_on_c, 3, 73, 84
8, 89984, Note_on_c, 3, 61, 0
8, 89984, Note_on_c, 3, 73, 0
8, 90000, Note_on_c, 3, 68, 84
8, 90000, Note_on_c, 3, 73, 84
8, 90239, Note_on_c, 3, 68, 0
8, 90240, Note_on_c, 3, 69, 84
8, 90359, Note_on_c, 3, 73, 0
8, 90359, Note_on_c, 3, 69, 0
8, 90480, Note_on_c, 3, 69, 84
8, 90480, Note_on_c, 3, 66, 84
8, 90599, Note_on_c, 3, 69, 0
8, 90599, Note_on_c, 3, 66, 0
8, 90720, Note_on_c, 3, 69, 84
8, 90720, Note_on_c, 3, 66, 84
8, 90839, Note_on_c, 3, 69, 0
8, 90839, Note_on_c, 3, 66, 0
8, 90960, Note_on_c, 3, 69, 84
8, 90960, Note_on_c, 3, 66, 84
8, 91079, Note_on_c, 3, 69, 0
8, 91079, Note_on_c, 3, 66, 0
8, 91200, Note_on_c, 3, 68, 84
8, 91200, Note_on_c, 3, 71, 84
8, 91319, Note_on_c, 3, 68, 0
8, 91319, Note_on_c, 3, 71, 0
8, 91440, Note_on_c, 3, 68, 84
8, 91440, Note_on_c, 3, 71, 84
8, 91559, Note_on_c, 3, 68, 0
8, 91559, Note_on_c, 3, 71, 0
8, 91680, Note_on_c, 3, 71, 84
8, 91680, Note_on_c, 3, 68, 84
8, 91799, Note_on_c, 3, 71, 0
8, 91799, Note_on_c, 3, 68, 0
8, 91920, Note_on_c, 3, 71, 84
8, 91920, Note_on_c, 3, 68, 84
8, 92039, Note_on_c, 3, 71, 0
8, 92039, Note_on_c, 3, 68, 0
8, 92160, Note_on_c, 3, 66, 84
8, 92160, Note_on_c, 3, 69, 84
8, 92279, Note_on_c, 3, 66, 0
8, 92279, Note_on_c, 3, 69, 0
8, 92400, Note_on_c, 3, 66, 84
8, 92400, Note_on_c, 3, 69, 84
8, 92519, Note_on_c, 3, 66, 0
8, 92519, Note_on_c, 3, 69, 0
8, 92640, Note_on_c, 3, 70, 84
8, 92640, Note_on_c, 3, 66, 84
8, 92759, Note_on_c, 3, 70, 0
8, 92759, Note_on_c, 3, 66, 0
8, 92880, Note_on_c, 3, 70, 84
8, 92880, Note_on_c, 3, 66, 84
8, 92999, Note_on_c, 3, 70, 0
8, 92999, Note_on_c, 3, 66, 0
8, 93120, Note_on_c, 3, 66, 84
8, 93120, Note_on_c, 3, 72, 84
8, 93239, Note_on_c, 3, 66, 0
8, 93239, Note_on_c, 3, 72, 0
8, 93360, Note_on_c, 3, 66, 84
8, 93360, Note_on_c, 3, 72, 84
8, 93479, Note_on_c, 3, 66, 0
8, 93479, Note_on_c, 3, 72, 0
8, 93600, Note_on_c, 3, 73, 84
8, 93600, Note_on_c, 3, 66, 84
8, 93719, Note_on_c, 3, 73, 0
8, 93719, Note_on_c, 3, 66, 0
8, 93840, Note_on_c, 3, 66, 84
8, 93840, Note_on_c, 3, 73, 84
8, 93959, Note_on_c, 3, 66, 0
8, 93959, Note_on_c, 3, 73, 0
8, 94080, Note_on_c, 3, 75, 84
8, 94080, Note_on_c, 3, 66, 84
8, 94199, Note_on_c, 3, 75, 0
8, 94199, Note_on_c, 3, 66, 0
8, 94320, Note_on_c, 3, 72, 84
8, 94320, Note_on_c, 3, 75, 84
8, 94439, Note_on_c, 3, 72, 0
8, 94439, Note_on_c, 3, 75, 0
8, 94560, Note_on_c, 3, 72, 84
8, 94560, Note_on_c, 3, 75, 84
8, 94679, Note_on_c, 3, 72, 0
8, 94679, Note_on_c, 3, 75, 0
8, 94800, Note_on_c, 3, 75, 84
8, 94800, Note_on_c, 3, 72, 84
8, 94919, Note_on_c, 3, 75, 0
8, 94919, Note_on_c, 3, 72, 0
8, 95040, Note_on_c, 3, 72, 84
8, 95040, Note_on_c, 3, 75, 84
8, 95159, Note_on_c, 3, 72, 0
8, 95159, Note_on_c, 3, 75, 0
8, 95280, Note_on_c, 3, 66, 76
8, 95280, Note_on_c, 3, 75, 76
8, 95369, Note_on_c, 3, 66, 0
8, 95369, Note_on_c, 3, 75, 0
8, 97200, Note_on_c, 3, 75, 76
8, 97200, Note_on_c, 3, 66, 76
8, 97289, Note_on_c, 3, 75, 0
8, 97289, Note_on_c, 3, 66, 0
8, 101040, Note_on_c, 3, 68, 76
8, 101279, Note_on_c, 3, 68, 0
8, 101520, Note_on_c, 3, 68, 76
8, 101759, Note_on_c, 3, 68, 0
8, 102000, Note_on_c, 3, 68, 76
8, 102239, Note_on_c, 3, 68, 0
8, 102480, Note_on_c, 3, 68, 76
8, 102704, Note_on_c, 3, 68, 0
8, 103200, Note_on_c, 3, 67, 52
8, 103200, Note_on_c, 3, 64, 52
8, 103424, Note_on_c, 3, 67, 0
8, 103424, Note_on_c, 3, 64, 0
8, 103440, Note_on_c, 3, 64, 52
8, 103440, Note_on_c, 3, 67, 52
8, 103664, Note_on_c, 3, 64, 0
8, 103664, Note_on_c, 3, 67, 0
8, 103680, Note_on_c, 3, 66, 52
8, 103680, Note_on_c, 3, 62, 52
8, 103904, Note_on_c, 3, 66, 0
8, 103904, Note_on_c, 3, 62, 0
8, 103920, Note_on_c, 3, 62, 52
8, 103920, Note_on_c, 3, 66, 52
8, 104144, Note_on_c, 3, 62, 0
8, 104144, Note_on_c, 3, 66, 0
8, 104160, Note_on_c, 3, 67, 52
8, 104160, Note_on_c, 3, 64, 52
8, 104384, Note_on_c, 3, 67, 0
8, 104384, Note_on_c, 3, 64, 0
8, 104400, Note_on_c, 3, 64, 52
8, 104400, Note_on_c, 3, 67, 52
8, 104624, Note_on_c, 3, 64, 0
8, 104624, Note_on_c, 3, 67, 0
8, 104640, Note_on_c, 3, 62, 52
8, 104640, Note_on_c, 3, 66, 52
8, 104864, Note_on_c, 3, 62, 0
8, 104864, Note_on_c, 3, 66, 0
8, 104880, Note_on_c, 3, 62, 52
8, 104880, Note_on_c, 3, 66, 52
8, 105104, Note_on_c, 3, 62, 0
8, 105104, Note_on_c, 3, 66, 0
8, 105840, Note_on_c, 3, 68, 76
8, 106079, Note_on_c, 3, 68, 0
8, 106320, Note_on_c, 3, 68, 76
8, 106559, Note_on_c, 3, 68, 0
8, 106800, Note_on_c, 3, 68, 76
8, 107039, Note_on_c, 3, 68, 0
8, 107280, Note_on_c, 3, 68, 76
8, 107519, Note_on_c, 3, 68, 0
8, 108000, Note_on_c, 3, 67, 52
8, 108000, Note_on_c, 3, 64, 52
8, 108224, Note_on_c, 3, 67, 0
8, 108224, Note_on_c, 3, 64, 0
8, 108240, Note_on_c, 3, 64, 52
8, 108240, Note_on_c, 3, 67, 52
8, 108464, Note_on_c, 3, 64, 0
8, 108464, Note_on_c, 3, 67, 0
8, 108480, Note_on_c, 3, 62, 52
8, 108480, Note_on_c, 3, 66, 52
8, 108704, Note_on_c, 3, 62, 0
8, 108704, Note_on_c, 3, 66, 0
8, 108720, Note_on_c, 3, 62, 52
8, 108720, Note_on_c, 3, 66, 52
8, 108944, Note_on_c, 3, 62, 0
8, 108944, Note_on_c, 3, 66, 0
8, 108960, Note_on_c, 3, 64, 52
8, 108960, Note_on_c, 3, 67, 52
8, 109184, Note_on_c, 3, 64, 0
8, 109184, Note_on_c, 3, 67, 0
8, 109200, Note_on_c, 3, 67, 52
8, 109200, Note_on_c, 3, 64, 52
8, 109424, Note_on_c, 3, 67, 0
8, 109424, Note_on_c, 3, 64, 0
8, 109440, Note_on_c, 3, 64, 52
8, 109440, Note_on_c, 3, 67, 52
8, 109559, Note_on_c, 3, 64, 0
8, 109559, Note_on_c, 3, 67, 0
8, 109668, Control_c, 3, 11, 64
8, 109680, Control_c, 3, 11, 64
8, 109680, Note_on_c, 3, 67, 84
8, 109680, Note_on_c, 3, 64, 84
8, 109768, Control_c, 3, 11, 65
8, 109855, Control_c, 3, 11, 66
8, 109943, Control_c, 3, 11, 67
8, 110030, Control_c, 3, 11, 68
8, 110118, Control_c, 3, 11, 69
8, 110206, Control_c, 3, 11, 70
8, 110293, Control_c, 3, 11, 71
8, 110381, Control_c, 3, 11, 72
8, 110469, Control_c, 3, 11, 73
8, 110556, Control_c, 3, 11, 74
8, 110644, Control_c, 3, 11, 75
8, 110731, Control_c, 3, 11, 76
8, 110819, Control_c, 3, 11, 77
8, 110907, Control_c, 3, 11, 78
8, 110994, Control_c, 3, 11, 79
8, 111082, Control_c, 3, 11, 80
8, 111170, Control_c, 3, 11, 81
8, 111257, Control_c, 3, 11, 82
8, 111345, Control_c, 3, 11, 83
8, 111432, Control_c, 3, 11, 84
8, 111520, Control_c, 3, 11, 85
8, 111608, Control_c, 3, 11, 86
8, 111695, Control_c, 3, 11, 87
8, 111783, Control_c, 3, 11, 88
8, 111824, Note_on_c, 3, 67, 0
8, 111824, Note_on_c, 3, 64, 0
8, 111840, Note_on_c, 3, 66, 84
8, 111840, Note_on_c, 3, 62, 84
8, 111870, Control_c, 3, 11, 89
8, 111958, Control_c, 3, 11, 90
8, 112046, Control_c, 3, 11, 91
8, 112133, Control_c, 3, 11, 92
8, 112221, Control_c, 3, 11, 93
8, 112304, Note_on_c, 3, 66, 0
8, 112304, Note_on_c, 3, 62, 0
8, 112309, Control_c, 3, 11, 94
8, 112320, Note_on_c, 3, 67, 84
8, 112320, Note_on_c, 3, 64, 84
8, 112396, Control_c, 3, 11, 95
8, 112484, Control_c, 3, 11, 96
8, 112571, Control_c, 3, 11, 97
8, 112659, Control_c, 3, 11, 98
8, 112747, Control_c, 3, 11, 99
8, 112834, Control_c, 3, 11, 100
8, 112922, Control_c, 3, 11, 101
8, 113010, Control_c, 3, 11, 102
8, 113097, Control_c, 3, 11, 103
8, 113185, Control_c, 3, 11, 104
8, 113272, Control_c, 3, 11, 105
8, 113360, Control_c, 3, 11, 106
8, 113448, Control_c, 3, 11, 107
8, 113535, Control_c, 3, 11, 108
8, 113623, Control_c, 3, 11, 109
8, 113710, Control_c, 3, 11, 110
8, 113798, Control_c, 3, 11, 111
8, 113886, Control_c, 3, 11, 112
8, 113973, Control_c, 3, 11, 113
8, 114061, Control_c, 3, 11, 114
8, 114149, Control_c, 3, 11, 115
8, 114236, Control_c, 3, 11, 116
8, 114324, Control_c, 3, 11, 117
8, 114411, Control_c, 3, 11, 118
8, 114499, Control_c, 3, 11, 119
8, 114587, Control_c, 3, 11, 120
8, 114674, Control_c, 3, 11, 121
8, 114704, Note_on_c, 3, 67, 0
8, 114704, Note_on_c, 3, 64, 0
8, 114720, Note_on_c, 3, 66, 84
8, 114720, Note_on_c, 3, 62, 84
8, 114762, Control_c, 3, 11, 122
8, 114850, Control_c, 3, 11, 123
8, 114937, Control_c, 3, 11, 124
8, 115025, Control_c, 3, 11, 125
8, 115112, Control_c, 3, 11, 127
8, 115184, Note_on_c, 3, 66, 0
8, 115184, Note_on_c, 3, 62, 0
8, 115200, Note_on_c, 3, 66, 84
8, 115200, Note_on_c, 3, 69, 84
8, 115304, Note_on_c, 3, 66, 0
8, 115304, Note_on_c, 3, 69, 0
8, 115320, Note_on_c, 3, 66, 84
8, 115320, Note_on_c, 3, 69, 84
8, 115424, Note_on_c, 3, 66, 0
8, 115424, Note_on_c, 3, 69, 0
8, 115440, Note_on_c, 3, 69, 84
8, 115440, Note_on_c, 3, 66, 84
8, 115544, Note_on_c, 3, 69, 0
8, 115544, Note_on_c, 3, 66, 0
8, 115560, Note_on_c, 3, 69, 84
8, 115560, Note_on_c, 3, 66, 84
8, 115664, Note_on_c, 3, 69, 0
8, 115664, Note_on_c, 3, 66, 0
8, 115680, Note_on_c, 3, 69, 84
8, 115680, Note_on_c, 3, 66, 84
8, 115784, Note_on_c, 3, 69, 0
8, 115784, Note_on_c, 3, 66, 0
8, 115800, Note_on_c, 3, 66, 84
8, 115800, Note_on_c, 3, 69, 84
8, 115904, Note_on_c, 3, 66, 0
8, 115904, Note_on_c, 3, 69, 0
8, 115920, Note_on_c, 3, 69, 84
8, 115920, Note_on_c, 3, 66, 84
8, 116024, Note_on_c, 3, 69, 0
8, 116024, Note_on_c, 3, 66, 0
8, 116040, Note_on_c, 3, 66, 84
8, 116040, Note_on_c, 3, 69, 84
8, 116144, Note_on_c, 3, 66, 0
8, 116144, Note_on_c, 3, 69, 0
8, 116160, Note_on_c, 3, 68, 92
8, 116160, Note_on_c, 3, 64, 92
8, 116264, Note_on_c, 3, 68, 0
8, 116264, Note_on_c, 3, 64, 0
8, 116280, Note_on_c, 3, 68, 84
8, 116280, Note_on_c, 3, 64, 84
8, 116384, Note_on_c, 3, 68, 0
8, 116384, Note_on_c, 3, 64, 0
8, 116400, Note_on_c, 3, 68, 84
8, 116400, Note_on_c, 3, 64, 84
8, 116504, Note_on_c, 3, 68, 0
8, 116504, Note_on_c, 3, 64, 0
8, 116520, Note_on_c, 3, 64, 84
8, 116520, Note_on_c, 3, 68, 84
8, 116624, Note_on_c, 3, 64, 0
8, 116624, Note_on_c, 3, 68, 0
8, 116640, Note_on_c, 3, 69, 92
8, 116640, Note_on_c, 3, 66, 92
8, 116744, Note_on_c, 3, 69, 0
8, 116744, Note_on_c, 3, 66, 0
8, 116760, Note_on_c, 3, 69, 84
8, 116760, Note_on_c, 3, 66, 84
8, 116864, Note_on_c, 3, 69, 0
8, 116864, Note_on_c, 3, 66, 0
8, 116880, Note_on_c, 3, 69, 84
8, 116880, Note_on_c, 3, 66, 84
8, 116984, Note_on_c, 3, 69, 0
8, 116984, Note_on_c, 3, 66, 0
8, 117000, Note_on_c, 3, 69, 84
8, 117000, Note_on_c, 3, 66, 84
8, 117104, Note_on_c, 3, 69, 0
8, 117104, Note_on_c, 3, 66, 0
8, 117120, Note_on_c, 3, 68, 92
8, 117120, Note_on_c, 3, 64, 92
8, 117224, Note_on_c, 3, 68, 0
8, 117224, Note_on_c, 3, 64, 0
8, 117240, Note_on_c, 3, 64, 84
8, 117240, Note_on_c, 3, 68, 84
8, 117344, Note_on_c, 3, 64, 0
8, 117344, Note_on_c, 3, 68, 0
8, 117360, Note_on_c, 3, 64, 84
8, 117360, Note_on_c, 3, 68, 84
8, 117464, Note_on_c, 3, 64, 0
8, 117464, Note_on_c, 3, 68, 0
8, 117480, Note_on_c, 3, 68, 84
8, 117480, Note_on_c, 3, 64, 84
8, 117584, Note_on_c, 3, 68, 0
8, 117584, Note_on_c, 3, 64, 0
8, 117600, Note_on_c, 3, 69, 92
8, 117600, Note_on_c, 3, 66, 92
8, 117704, Note_on_c, 3, 69, 0
8, 117704, Note_on_c, 3, 66, 0
8, 117720, Note_on_c, 3, 66, 84
8, 117720, Note_on_c, 3, 69, 84
8, 117824, Note_on_c, 3, 66, 0
8, 117824, Note_on_c, 3, 69, 0
8, 117840, Note_on_c, 3, 66, 84
8, 117840, Note_on_c, 3, 69, 84
8, 117944, Note_on_c, 3, 66, 0
8, 117944, Note_on_c, 3, 69, 0
8, 117960, Note_on_c, 3, 69, 84
8, 117960, Note_on_c, 3, 66, 84
8, 118064, Note_on_c, 3, 69, 0
8, 118064, Note_on_c, 3, 66, 0
8, 118080, Note_on_c, 3, 68, 92
8, 118080, Note_on_c, 3, 64, 92
8, 118184, Note_on_c, 3, 68, 0
8, 118184, Note_on_c, 3, 64, 0
8, 118200, Note_on_c, 3, 68, 84
8, 118200, Note_on_c, 3, 64, 84
8, 118304, Note_on_c, 3, 68, 0
8, 118304, Note_on_c, 3, 64, 0
8, 118320, Note_on_c, 3, 64, 84
8, 118320, Note_on_c, 3, 68, 84
8, 118424, Note_on_c, 3, 64, 0
8, 118424, Note_on_c, 3, 68, 0
8, 118440, Note_on_c, 3, 64, 84
8, 118440, Note_on_c, 3, 68, 84
8, 118544, Note_on_c, 3, 64, 0
8, 118544, Note_on_c, 3, 68, 0
8, 118560, Note_on_c, 3, 69, 92
8, 118560, Note_on_c, 3, 66, 92
8, 118664, Note_on_c, 3, 69, 0
8, 118664, Note_on_c, 3, 66, 0
8, 118680, Note_on_c, 3, 66, 84
8, 118680, Note_on_c, 3, 69, 84
8, 118784, Note_on_c, 3, 66, 0
8, 118784, Note_on_c, 3, 69, 0
8, 118800, Note_on_c, 3, 69, 84
8, 118800, Note_on_c, 3, 66, 84
8, 118904, Note_on_c, 3, 69, 0
8, 118904, Note_on_c, 3, 66, 0
8, 118920, Note_on_c, 3, 69, 84
8, 118920, Note_on_c, 3, 66, 84
8, 119024, Note_on_c, 3, 69, 0
8, 119024, Note_on_c, 3, 66, 0
8, 119040, Note_on_c, 3, 64, 92
8, 119040, Note_on_c, 3, 68, 92
8, 119144, Note_on_c, 3, 64, 0
8, 119144, Note_on_c, 3, 68, 0
8, 119160, Note_on_c, 3, 64, 84
8, 119160, Note_on_c, 3, 68, 84
8, 119264, Note_on_c, 3, 64, 0
8, 119264, Note_on_c, 3, 68, 0
8, 119280, Note_on_c, 3, 68, 84
8, 119280, Note_on_c, 3, 64, 84
8, 119384, Note_on_c, 3, 68, 0
8, 119384, Note_on_c, 3, 64, 0
8, 119400, Note_on_c, 3, 68, 84
8, 119400, Note_on_c, 3, 64, 84
8, 119504, Note_on_c, 3, 68, 0
8, 119504, Note_on_c, 3, 64, 0
8, 119520, Note_on_c, 3, 68, 92
8, 119520, Note_on_c, 3, 66, 92
8, 119624, Note_on_c, 3, 68, 0
8, 119624, Note_on_c, 3, 66, 0
8, 119640, Note_on_c, 3, 66, 84
8, 119640, Note_on_c, 3, 68, 84
8, 119744, Note_on_c, 3, 66, 0
8, 119744, Note_on_c, 3, 68, 0
8, 119760, Note_on_c, 3, 66, 84
8, 119760, Note_on_c, 3, 68, 84
8, 119864, Note_on_c, 3, 66, 0
8, 119864, Note_on_c, 3, 68, 0
8, 119880, Note_on_c, 3, 66, 84
8, 119880, Note_on_c, 3, 68, 84
8, 119984, Note_on_c, 3, 66, 0
8, 119984, Note_on_c, 3, 68, 0
8, 120000, Note_on_c, 3, 68, 84
8, 120000, Note_on_c, 3, 64, 84
8, 120104, Note_on_c, 3, 68, 0
8, 120104, Note_on_c, 3, 64, 0
8, 120120, Note_on_c, 3, 68, 84
8, 120120, Note_on_c, 3, 64, 84
8, 120224, Note_on_c, 3, 68, 0
8, 120224, Note_on_c, 3, 64, 0
8, 120240, Note_on_c, 3, 69, 92
8, 120240, Note_on_c, 3, 66, 92
8, 120344, Note_on_c, 3, 69, 0
8, 120344, Note_on_c, 3, 66, 0
8, 120360, Note_on_c, 3, 66, 84
8, 120360, Note_on_c, 3, 69, 84
8, 120464, Note_on_c, 3, 66, 0
8, 120464, Note_on_c, 3, 69, 0
8, 120480, Note_on_c, 3, 69, 92
8, 120480, Note_on_c, 3, 66, 92
8, 120584, Note_on_c, 3, 69, 0
8, 120584, Note_on_c, 3, 66, 0
8, 120600, Note_on_c, 3, 69, 84
8, 120600, Note_on_c, 3, 66, 84
8, 120704, Note_on_c, 3, 69, 0
8, 120704, Note_on_c, 3, 66, 0
8, 120720, Note_on_c, 3, 69, 84
8, 120720, Note_on_c, 3, 66, 84
8, 120824, Note_on_c, 3, 69, 0
8, 120824, Note_on_c, 3, 66, 0
8, 120840, Note_on_c, 3, 69, 84
8, 120840, Note_on_c, 3, 66, 84
8, 120944, Note_on_c, 3, 69, 0
8, 120944, Note_on_c, 3, 66, 0
8, 120960, Note_on_c, 3, 68, 84
8, 120960, Note_on_c, 3, 64, 84
8, 121064, Note_on_c, 3, 68, 0
8, 121064, Note_on_c, 3, 64, 0
8, 121080, Note_on_c, 3, 64, 84
8, 121080, Note_on_c, 3, 68, 84
8, 121184, Note_on_c, 3, 64, 0
8, 121184, Note_on_c, 3, 68, 0
8, 121200, Note_on_c, 3, 69, 92
8, 121200, Note_on_c, 3, 66, 92
8, 121304, Note_on_c, 3, 69, 0
8, 121304, Note_on_c, 3, 66, 0
8, 121320, Note_on_c, 3, 66, 84
8, 121320, Note_on_c, 3, 69, 84
8, 121424, Note_on_c, 3, 66, 0
8, 121424, Note_on_c, 3, 69, 0
8, 121440, Note_on_c, 3, 66, 92
8, 121440, Note_on_c, 3, 69, 92
8, 121544, Note_on_c, 3, 66, 0
8, 121544, Note_on_c, 3, 69, 0
8, 121560, Note_on_c, 3, 69, 84
8, 121560, Note_on_c, 3, 66, 84
8, 121664, Note_on_c, 3, 69, 0
8, 121664, Note_on_c, 3, 66, 0
8, 121680, Note_on_c, 3, 66, 84
8, 121680, Note_on_c, 3, 69, 84
8, 121784, Note_on_c, 3, 66, 0
8, 121784, Note_on_c, 3, 69, 0
8, 121800, Note_on_c, 3, 69, 84
8, 121800, Note_on_c, 3, 66, 84
8, 121904, Note_on_c, 3, 69, 0
8, 121904, Note_on_c, 3, 66, 0
8, 121920, Note_on_c, 3, 68, 84
8, 121920, Note_on_c, 3, 64, 84
8, 122024, Note_on_c, 3, 68, 0
8, 122024, Note_on_c, 3, 64, 0
8, 122040, Note_on_c, 3, 68, 84
8, 122040, Note_on_c, 3, 64, 84
8, 122144, Note_on_c, 3, 68, 0
8, 122144, Note_on_c, 3, 64, 0
8, 122160, Note_on_c, 3, 69, 92
8, 122160, Note_on_c, 3, 66, 92
8, 122264, Note_on_c, 3, 69, 0
8, 122264, Note_on_c, 3, 66, 0
8, 122280, Note_on_c, 3, 66, 84
8, 122280, Note_on_c, 3, 69, 84
8, 122384, Note_on_c, 3, 66, 0
8, 122384, Note_on_c, 3, 69, 0
8, 122400, Note_on_c, 3, 68, 84
8, 122400, Note_on_c, 3, 64, 84
8, 122504, Note_on_c, 3, 68, 0
8, 122504, Note_on_c, 3, 64, 0
8, 122520, Note_on_c, 3, 68, 84
8, 122520, Note_on_c, 3, 64, 84
8, 122624, Note_on_c, 3, 68, 0
8, 122624, Note_on_c, 3, 64, 0
8, 122640, Note_on_c, 3, 69, 92
8, 122640, Note_on_c, 3, 66, 92
8, 122744, Note_on_c, 3, 69, 0
8, 122744, Note_on_c, 3, 66, 0
8, 122760, Note_on_c, 3, 69, 84
8, 122760, Note_on_c, 3, 66, 84
8, 122864, Note_on_c, 3, 69, 0
8, 122864, Note_on_c, 3, 66, 0
8, 122880, Note_on_c, 3, 64, 84
8, 122880, Note_on_c, 3, 68, 84
8, 122984, Note_on_c, 3, 64, 0
8, 122984, Note_on_c, 3, 68, 0
8, 123000, Note_on_c, 3, 68, 84
8, 123000, Note_on_c, 3, 64, 84
8, 123104, Note_on_c, 3, 68, 0
8, 123104, Note_on_c, 3, 64, 0
8, 123120, Note_on_c, 3, 69, 92
8, 123120, Note_on_c, 3, 66, 92
8, 123224, Note_on_c, 3, 69, 0
8, 123224, Note_on_c, 3, 66, 0
8, 123240, Note_on_c, 3, 69, 84
8, 123240, Note_on_c, 3, 66, 84
8, 123344, Note_on_c, 3, 69, 0
8, 123344, Note_on_c, 3, 66, 0
8, 123360, Note_on_c, 3, 68, 84
8, 123360, Note_on_c, 3, 64, 84
8, 123464, Note_on_c, 3, 68, 0
8, 123464, Note_on_c, 3, 64, 0
8, 123480, Note_on_c, 3, 69, 84
8, 123584, Note_on_c, 3, 69, 0
8, 123600, Note_on_c, 3, 70, 84
8, 123704, Note_on_c, 3, 70, 0
8, 123720, Note_on_c, 3, 70, 84
8, 123824, Note_on_c, 3, 70, 0
8, 123840, Note_on_c, 3, 70, 84
8, 123944, Note_on_c, 3, 70, 0
8, 123960, Note_on_c, 3, 76, 84
8, 123960, Note_on_c, 3, 64, 84
8, 124011, Note_on_c, 3, 76, 0
8, 124011, Note_on_c, 3, 64, 0
8, 124020, Note_on_c, 3, 76, 84
8, 124020, Note_on_c, 3, 64, 84
8, 124071, Note_on_c, 3, 76, 0
8, 124071, Note_on_c, 3, 64, 0
8, 124080, Note_on_c, 3, 64, 84
8, 124080, Note_on_c, 3, 76, 84
8, 124199, Note_on_c, 3, 64, 0
8, 124199, Note_on_c, 3, 76, 0
8, 124920, Note_on_c, 3, 67, 84
8, 124920, Note_on_c, 3, 70, 84
8, 124971, Note_on_c, 3, 67, 0
8, 124971, Note_on_c, 3, 70, 0
8, 124980, Note_on_c, 3, 70, 84
8, 124980, Note_on_c, 3, 67, 84
8, 125031, Note_on_c, 3, 70, 0
8, 125031, Note_on_c, 3, 67, 0
8, 125040, Note_on_c, 3, 67, 84
8, 125040, Note_on_c, 3, 70, 84
8, 125159, Note_on_c, 3, 67, 0
8, 125159, Note_on_c, 3, 70, 0
8, 125760, Note_on_c, 3, 67, 84
8, 125760, Note_on_c, 3, 64, 84
8, 125879, Note_on_c, 3, 67, 0
8, 125879, Note_on_c, 3, 64, 0
8, 126120, Note_on_c, 3, 64, 92
8, 126120, Note_on_c, 3, 67, 92
8, 126239, Note_on_c, 3, 64, 0
8, 126239, Note_on_c, 3, 67, 0
8, 126240, Note_on_c, 3, 65, 84
8, 126240, Note_on_c, 3, 69, 84
8, 126359, Note_on_c, 3, 65, 0
8, 126359, Note_on_c, 3, 69, 0
8, 126600, Note_on_c, 3, 65, 92
8, 126600, Note_on_c, 3, 69, 92
8, 126719, Note_on_c, 3, 65, 0
8, 126719, Note_on_c, 3, 69, 0
8, 126720, Note_on_c, 3, 64, 84
8, 126720, Note_on_c, 3, 67, 84
8, 126839, Note_on_c, 3, 64, 0
8, 126839, Note_on_c, 3, 67, 0
8, 127080, Note_on_c, 3, 64, 92
8, 127080, Note_on_c, 3, 67, 92
8, 127199, Note_on_c, 3, 64, 0
8, 127199, Note_on_c, 3, 67, 0
8, 127200, Note_on_c, 3, 69, 84
8, 127200, Note_on_c, 3, 65, 84
8, 127319, Note_on_c, 3, 69, 0
8, 127319, Note_on_c, 3, 65, 0
8, 129120, Note_on_c, 3, 71, 84
8, 129120, Note_on_c, 3, 68, 84
8, 129239, Note_on_c, 3, 71, 0
8, 129239, Note_on_c, 3, 68, 0
8, 129480, Note_on_c, 3, 71, 92
8, 129480, Note_on_c, 3, 68, 92
8, 129599, Note_on_c, 3, 71, 0
8, 129599, Note_on_c, 3, 68, 0
8, 129600, Note_on_c, 3, 69, 84
8, 129600, Note_on_c, 3, 72, 84
8, 129719, Note_on_c, 3, 69, 0
8, 129719, Note_on_c, 3, 72, 0
8, 129960, Note_on_c, 3, 69, 92
8, 129960, Note_on_c, 3, 72, 92
8, 130079, Note_on_c, 3, 69, 0
8, 130079, Note_on_c, 3, 72, 0
8, 130080, Note_on_c, 3, 71, 84
8, 130080, Note_on_c, 3, 68, 84
8, 130199, Note_on_c, 3, 71, 0
8, 130199, Note_on_c, 3, 68, 0
8, 130440, Note_on_c, 3, 71, 92
8, 130440, Note_on_c, 3, 68, 92
8, 130559, Note_on_c, 3, 71, 0
8, 130559, Note_on_c, 3, 68, 0
8, 130560, Note_on_c, 3, 69, 84
8, 130560, Note_on_c, 3, 72, 84
8, 130679, Note_on_c, 3, 69, 0
8, 130679, Note_on_c, 3, 72, 0
8, 135360, Note_on_c, 3, 74, 76
8, 135360, Note_on_c, 3, 71, 76
8, 135479, Note_on_c, 3, 74, 0
8, 135479, Note_on_c, 3, 71, 0
8, 135720, Note_on_c, 3, 71, 84
8, 135720, Note_on_c, 3, 74, 84
8, 135839, Note_on_c, 3, 71, 0
8, 135839, Note_on_c, 3, 74, 0
8, 135840, Note_on_c, 3, 72, 76
8, 135840, Note_on_c, 3, 76, 76
8, 135959, Note_on_c, 3, 72, 0
8, 135959, Note_on_c, 3, 76, 0
8, 136200, Note_on_c, 3, 76, 84
8, 136200, Note_on_c, 3, 72, 84
8, 136319, Note_on_c, 3, 76, 0
8, 136319, Note_on_c, 3, 72, 0
8, 136320, Note_on_c, 3, 71, 76
8, 136320, Note_on_c, 3, 74, 76
8, 136439, Note_on_c, 3, 71, 0
8, 136439, Note_on_c, 3, 74, 0
8, 136680, Note_on_c, 3, 71, 84
8, 136680, Note_on_c, 3, 74, 84
8, 136799, Note_on_c, 3, 71, 0
8, 136799, Note_on_c, 3, 74, 0
8, 136800, Note_on_c, 3, 72, 76
8, 136800, Note_on_c, 3, 76, 76
8, 136919, Note_on_c, 3, 72, 0
8, 136919, Note_on_c, 3, 76, 0
8, 137160, Note_on_c, 3, 76, 84
8, 137160, Note_on_c, 3, 72, 84
8, 137279, Note_on_c, 3, 76, 0
8, 137279, Note_on_c, 3, 72, 0
8, 137280, Note_on_c, 3, 71, 76
8, 137280, Note_on_c, 3, 74, 76
8, 137399, Note_on_c, 3, 71, 0
8, 137399, Note_on_c, 3, 74, 0
8, 137640, Note_on_c, 3, 71, 84
8, 137640, Note_on_c, 3, 74, 84
8, 137759, Note_on_c, 3, 71, 0
8, 137759, Note_on_c, 3, 74, 0
8, 137760, Note_on_c, 3, 72, 76
8, 137760, Note_on_c, 3, 76, 76
8, 137879, Note_on_c, 3, 72, 0
8, 137879, Note_on_c, 3, 76, 0
8, 138120, Note_on_c, 3, 72, 84
8, 138120, Note_on_c, 3, 76, 84
8, 138239, Note_on_c, 3, 72, 0
8, 138239, Note_on_c, 3, 76, 0
8, 138240, Note_on_c, 3, 74, 76
8, 138240, Note_on_c, 3, 71, 76
8, 138359, Note_on_c, 3, 74, 0
8, 138359, Note_on_c, 3, 71, 0
8, 138600, Note_on_c, 3, 74, 84
8, 138600, Note_on_c, 3, 71, 84
8, 138719, Note_on_c, 3, 74, 0
8, 138719, Note_on_c, 3, 71, 0
8, 138720, Note_on_c, 3, 76, 76
8, 138720, Note_on_c, 3, 72, 76
8, 138824, Note_on_c, 3, 76, 0
8, 138824, Note_on_c, 3, 72, 0
8, 138840, Note_on_c, 3, 72, 76
8, 138891, Note_on_c, 3, 72, 0
8, 138900, Note_on_c, 3, 72, 76
8, 138951, Note_on_c, 3, 72, 0
8, 138960, Note_on_c, 3, 72, 76
8, 139079, Note_on_c, 3, 72, 0
8, 139200, Note_on_c, 3, 74, 76
8, 139200, Note_on_c, 3, 71, 76
8, 139439, Note_on_c, 3, 74, 0
8, 139439, Note_on_c, 3, 71, 0
8, 139560, Note_on_c, 3, 71, 84
8, 139560, Note_on_c, 3, 74, 84
8, 139679, Note_on_c, 3, 71, 0
8, 139679, Note_on_c, 3, 74, 0
8, 139680, Note_on_c, 3, 76, 76
8, 139680, Note_on_c, 3, 72, 76
8, 139799, Note_on_c, 3, 76, 0
8, 139799, Note_on_c, 3, 72, 0
8, 140040, Note_on_c, 3, 76, 84
8, 140040, Note_on_c, 3, 72, 84
8, 140159, Note_on_c, 3, 76, 0
8, 140159, Note_on_c, 3, 72, 0
8, 140160, Note_on_c, 3, 74, 76
8, 140160, Note_on_c, 3, 71, 76
8, 140279, Note_on_c, 3, 74, 0
8, 140279, Note_on_c, 3, 71, 0
8, 140520, Note_on_c, 3, 71, 84
8, 140520, Note_on_c, 3, 74, 84
8, 140639, Note_on_c, 3, 71, 0
8, 140639, Note_on_c, 3, 74, 0
8, 140640, Note_on_c, 3, 72, 76
8, 140640, Note_on_c, 3, 76, 76
8, 140759, Note_on_c, 3, 72, 0
8, 140759, Note_on_c, 3, 76, 0
8, 141000, Note_on_c, 3, 76, 84
8, 141000, Note_on_c, 3, 72, 84
8, 141119, Note_on_c, 3, 76, 0
8, 141119, Note_on_c, 3, 72, 0
8, 141120, Note_on_c, 3, 74, 76
8, 141120, Note_on_c, 3, 71, 76
8, 141239, Note_on_c, 3, 74, 0
8, 141239, Note_on_c, 3, 71, 0
8, 141480, Note_on_c, 3, 71, 84
8, 141480, Note_on_c, 3, 74, 84
8, 141599, Note_on_c, 3, 71, 0
8, 141599, Note_on_c, 3, 74, 0
8, 141600, Note_on_c, 3, 76, 76
8, 141600, Note_on_c, 3, 72, 76
8, 141719, Note_on_c, 3, 76, 0
8, 141719, Note_on_c, 3, 72, 0
8, 141960, Note_on_c, 3, 76, 84
8, 141960, Note_on_c, 3, 72, 84
8, 142079, Note_on_c, 3, 76, 0
8, 142079, Note_on_c, 3, 72, 0
8, 142080, Note_on_c, 3, 74, 76
8, 142080, Note_on_c, 3, 71, 76
8, 142199, Note_on_c, 3, 74, 0
8, 142199, Note_on_c, 3, 71, 0
8, 142440, Note_on_c, 3, 74, 84
8, 142440, Note_on_c, 3, 71, 84
8, 142559, Note_on_c, 3, 74, 0
8, 142559, Note_on_c, 3, 71, 0
8, 142560, Note_on_c, 3, 72, 76
8, 142560, Note_on_c, 3, 76, 76
8, 142664, Note_on_c, 3, 72, 0
8, 142664, Note_on_c, 3, 76, 0
8, 142680, Note_on_c, 3, 72, 76
8, 142731, Note_on_c, 3, 72, 0
8, 142740, Note_on_c, 3, 72, 76
8, 142791, Note_on_c, 3, 72, 0
8, 142800, Note_on_c, 3, 72, 76
8, 142919, Note_on_c, 3, 72, 0
8, 143040, Note_on_c, 3, 69, 84
8, 143040, Note_on_c, 3, 60, 84
8, 143279, Note_on_c, 3, 69, 0
8, 143279, Note_on_c, 3, 60, 0
8, 143400, Note_on_c, 3, 60, 92
8, 143400, Note_on_c, 3, 69, 92
8, 143519, Note_on_c, 3, 60, 0
8, 143519, Note_on_c, 3, 69, 0
8, 143520, Note_on_c, 3, 67, 84
8, 143520, Note_on_c, 3, 60, 84
8, 143759, Note_on_c, 3, 67, 0
8, 143759, Note_on_c, 3, 60, 0
8, 143880, Note_on_c, 3, 67, 92
8, 143880, Note_on_c, 3, 60, 92
8, 143999, Note_on_c, 3, 67, 0
8, 143999, Note_on_c, 3, 60, 0
8, 144000, Note_on_c, 3, 69, 84
8, 144000, Note_on_c, 3, 60, 84
8, 144239, Note_on_c, 3, 69, 0
8, 144239, Note_on_c, 3, 60, 0
8, 144360, Note_on_c, 3, 69, 92
8, 144360, Note_on_c, 3, 62, 92
8, 144479, Note_on_c, 3, 69, 0
8, 144479, Note_on_c, 3, 62, 0
8, 144480, Note_on_c, 3, 62, 84
8, 144480, Note_on_c, 3, 71, 84
8, 144599, Note_on_c, 3, 62, 0
8, 144599, Note_on_c, 3, 71, 0
8, 144840, Note_on_c, 3, 73, 92
8, 144840, Note_on_c, 3, 64, 92
8, 144959, Note_on_c, 3, 73, 0
8, 144959, Note_on_c, 3, 64, 0
8, 144960, Note_on_c, 3, 74, 84
8, 144960, Note_on_c, 3, 66, 84
8, 145079, Note_on_c, 3, 74, 0
8, 145079, Note_on_c, 3, 66, 0
8, 145320, Note_on_c, 3, 67, 92
8, 145320, Note_on_c, 3, 74, 92
8, 145439, Note_on_c, 3, 67, 0
8, 145439, Note_on_c, 3, 74, 0
8, 145440, Note_on_c, 3, 64, 84
8, 145440, Note_on_c, 3, 72, 84
8, 145559, Note_on_c, 3, 64, 0
8, 145559, Note_on_c, 3, 72, 0
8, 145800, Note_on_c, 3, 76, 92
8, 145800, Note_on_c, 3, 72, 92
8, 145919, Note_on_c, 3, 76, 0
8, 145919, Note_on_c, 3, 72, 0
8, 145920, Note_on_c, 3, 74, 84
8, 145920, Note_on_c, 3, 71, 84
8, 146039, Note_on_c, 3, 74, 0
8, 146039, Note_on_c, 3, 71, 0
8, 146280, Note_on_c, 3, 74, 92
8, 146280, Note_on_c, 3, 71, 92
8, 146399, Note_on_c, 3, 74, 0
8, 146399, Note_on_c, 3, 71, 0
8, 146400, Note_on_c, 3, 72, 84
8, 146400, Note_on_c, 3, 76, 84
8, 146504, Note_on_c, 3, 72, 0
8, 146504, Note_on_c, 3, 76, 0
8, 146520, Note_on_c, 3, 72, 84
8, 146571, Note_on_c, 3, 72, 0
8, 146580, Note_on_c, 3, 72, 84
8, 146631, Note_on_c, 3, 72, 0
8, 146640, Note_on_c, 3, 72, 84
8, 146759, Note_on_c, 3, 72, 0
8, 146880, Note_on_c, 3, 69, 84
8, 146880, Note_on_c, 3, 60, 84
8, 147119, Note_on_c, 3, 69, 0
8, 147119, Note_on_c, 3, 60, 0
8, 147240, Note_on_c, 3, 60, 92
8, 147240, Note_on_c, 3, 69, 92
8, 147359, Note_on_c, 3, 60, 0
8, 147359, Note_on_c, 3, 69, 0
8, 147360, Note_on_c, 3, 60, 84
8, 147360, Note_on_c, 3, 67, 84
8, 147599, Note_on_c, 3, 60, 0
8, 147599, Note_on_c, 3, 67, 0
8, 147720, Note_on_c, 3, 60, 92
8, 147720, Note_on_c, 3, 67, 92
8, 147839, Note_on_c, 3, 60, 0
8, 147839, Note_on_c, 3, 67, 0
8, 147840, Note_on_c, 3, 60, 84
8, 147840, Note_on_c, 3, 69, 84
8, 148079, Note_on_c, 3, 60, 0
8, 148079, Note_on_c, 3, 69, 0
8, 148200, Note_on_c, 3, 69, 92
8, 148200, Note_on_c, 3, 62, 92
8, 148319, Note_on_c, 3, 69, 0
8, 148319, Note_on_c, 3, 62, 0
8, 148320, Note_on_c, 3, 71, 84
8, 148320, Note_on_c, 3, 62, 84
8, 148439, Note_on_c, 3, 71, 0
8, 148439, Note_on_c, 3, 62, 0
8, 148680, Note_on_c, 3, 64, 92
8, 148680, Note_on_c, 3, 73, 92
8, 148799, Note_on_c, 3, 64, 0
8, 148799, Note_on_c, 3, 73, 0
8, 148800, Note_on_c, 3, 74, 84
8, 148800, Note_on_c, 3, 66, 84
8, 148919, Note_on_c, 3, 74, 0
8, 148919, Note_on_c, 3, 66, 0
8, 149160, Note_on_c, 3, 67, 92
8, 149160, Note_on_c, 3, 74, 92
8, 149279, Note_on_c, 3, 67, 0
8, 149279, Note_on_c, 3, 74, 0
8, 149280, Note_on_c, 3, 64, 84
8, 149280, Note_on_c, 3, 72, 84
8, 149399, Note_on_c, 3, 64, 0
8, 149399, Note_on_c, 3, 72, 0
8, 149640, Note_on_c, 3, 76, 92
8, 149640, Note_on_c, 3, 72, 92
8, 149759, Note_on_c, 3, 76, 0
8, 149759, Note_on_c, 3, 72, 0
8, 149760, Note_on_c, 3, 74, 84
8, 149760, Note_on_c, 3, 71, 84
8, 149879, Note_on_c, 3, 74, 0
8, 149879, Note_on_c, 3, 71, 0
8, 150120, Note_on_c, 3, 71, 92
8, 150120, Note_on_c, 3, 74, 92
8, 150239, Note_on_c, 3, 71, 0
8, 150239, Note_on_c, 3, 74, 0
8, 150240, Note_on_c, 3, 76, 84
8, 150240, Note_on_c, 3, 72, 84
8, 150344, Note_on_c, 3, 76, 0
8, 150344, Note_on_c, 3, 72, 0
8, 150360, Note_on_c, 3, 79, 84
8, 150360, Note_on_c, 3, 76, 84
8, 150411, Note_on_c, 3, 79, 0
8, 150411, Note_on_c, 3, 76, 0
8, 150420, Note_on_c, 3, 79, 84
8, 150420, Note_on_c, 3, 76, 84
8, 150471, Note_on_c, 3, 79, 0
8, 150471, Note_on_c, 3, 76, 0
8, 150480, Note_on_c, 3, 79, 84
8, 150480, Note_on_c, 3, 76, 84
8, 150599, Note_on_c, 3, 79, 0
8, 150599, Note_on_c, 3, 76, 0
8, 150840, Note_on_c, 3, 74, 84
8, 150840, Note_on_c, 3, 77, 84
8, 150891, Note_on_c, 3, 74, 0
8, 150891, Note_on_c, 3, 77, 0
8, 150900, Note_on_c, 3, 77, 84
8, 150900, Note_on_c, 3, 74, 84
8, 150951, Note_on_c, 3, 77, 0
8, 150951, Note_on_c, 3, 74, 0
8, 150960, Note_on_c, 3, 77, 84
8, 150960, Note_on_c, 3, 74, 84
8, 151079, Note_on_c, 3, 77, 0
8, 151079, Note_on_c, 3, 74, 0
8, 151320, Note_on_c, 3, 76, 84
8, 151320, Note_on_c, 3, 72, 84
8, 151371, Note_on_c, 3, 76, 0
8, 151371, Note_on_c, 3, 72, 0
8, 151380, Note_on_c, 3, 76, 84
8, 151380, Note_on_c, 3, 72, 84
8, 151431, Note_on_c, 3, 76, 0
8, 151431, Note_on_c, 3, 72, 0
8, 151440, Note_on_c, 3, 72, 84
8, 151440, Note_on_c, 3, 76, 84
8, 151559, Note_on_c, 3, 72, 0
8, 151559, Note_on_c, 3, 76, 0
8, 151800, Note_on_c, 3, 72, 84
8, 151800, Note_on_c, 3, 76, 84
8, 151851, Note_on_c, 3, 72, 0
8, 151851, Note_on_c, 3, 76, 0
8, 151860, Note_on_c, 3, 72, 84
8, 151860, Note_on_c, 3, 76, 84
8, 151911, Note_on_c, 3, 72, 0
8, 151911, Note_on_c, 3, 76, 0
8, 151920, Note_on_c, 3, 71, 84
8, 151920, Note_on_c, 3, 74, 84
8, 152039, Note_on_c, 3, 71, 0
8, 152039, Note_on_c, 3, 74, 0
8, 154680, Note_on_c, 3, 77, 84
8, 154680, Note_on_c, 3, 74, 84
8, 154731, Note_on_c, 3, 77, 0
8, 154731, Note_on_c, 3, 74, 0
8, 154740, Note_on_c, 3, 77, 84
8, 154740, Note_on_c, 3, 74, 84
8, 154791, Note_on_c, 3, 77, 0
8, 154791, Note_on_c, 3, 74, 0
8, 154800, Note_on_c, 3, 77, 84
8, 154800, Note_on_c, 3, 74, 84
8, 154919, Note_on_c, 3, 77, 0
8, 154919, Note_on_c, 3, 74, 0
8, 155160, Note_on_c, 3, 76, 84
8, 155160, Note_on_c, 3, 70, 84
8, 155211, Note_on_c, 3, 76, 0
8, 155211, Note_on_c, 3, 70, 0
8, 155220, Note_on_c, 3, 70, 84
8, 155220, Note_on_c, 3, 76, 84
8, 155271, Note_on_c, 3, 70, 0
8, 155271, Note_on_c, 3, 76, 0
8, 155280, Note_on_c, 3, 76, 84
8, 155280, Note_on_c, 3, 70, 84
8, 155399, Note_on_c, 3, 76, 0
8, 155399, Note_on_c, 3, 70, 0
8, 155640, Note_on_c, 3, 73, 84
8, 155640, Note_on_c, 3, 76, 84
8, 155691, Note_on_c, 3, 73, 0
8, 155691, Note_on_c, 3, 76, 0
8, 155700, Note_on_c, 3, 76, 84
8, 155700, Note_on_c, 3, 73, 84
8, 155751, Note_on_c, 3, 76, 0
8, 155751, Note_on_c, 3, 73, 0
8, 155760, Note_on_c, 3, 73, 84
8, 155760, Note_on_c, 3, 76, 84
8, 155879, Note_on_c, 3, 73, 0
8, 155879, Note_on_c, 3, 76, 0
8, 156000, Note_on_c, 3, 74, 84
8, 156000, Note_on_c, 3, 77, 84
8, 156119, Note_on_c, 3, 74, 0
8, 156119, Note_on_c, 3, 77, 0
8, 156240, Note_on_c, 3, 74, 92
8, 156479, Note_on_c, 3, 74, 0
8, 156480, Note_on_c, 3, 77, 84
8, 156599, Note_on_c, 3, 77, 0
8, 156720, Note_on_c, 3, 69, 92
8, 156959, Note_on_c, 3, 69, 0
8, 156960, Note_on_c, 3, 74, 84
8, 157079, Note_on_c, 3, 74, 0
8, 157200, Note_on_c, 3, 65, 92
8, 157439, Note_on_c, 3, 65, 0
8, 157440, Note_on_c, 3, 69, 84
8, 157559, Note_on_c, 3, 69, 0
8, 157680, Note_on_c, 3, 62, 92
8, 157919, Note_on_c, 3, 62, 0
8, 157920, Note_on_c, 3, 65, 84
8, 158039, Note_on_c, 3, 65, 0
8, 158160, Note_on_c, 3, 69, 92
8, 158399, Note_on_c, 3, 69, 0
8, 158400, Note_on_c, 3, 74, 84
8, 158519, Note_on_c, 3, 74, 0
8, 158640, Note_on_c, 3, 65, 84
8, 158879, Note_on_c, 3, 65, 0
8, 158880, Note_on_c, 3, 69, 84
8, 158999, Note_on_c, 3, 69, 0
8, 159120, Note_on_c, 3, 65, 84
8, 159359, Note_on_c, 3, 65, 0
8, 159360, Note_on_c, 3, 69, 84
8, 159479, Note_on_c, 3, 69, 0
8, 159600, Note_on_c, 3, 66, 84
8, 159839, Note_on_c, 3, 66, 0
8, 159840, Note_on_c, 3, 69, 84
8, 159959, Note_on_c, 3, 69, 0
8, 160080, Note_on_c, 3, 66, 84
8, 160319, Note_on_c, 3, 66, 0
8, 160320, Note_on_c, 3, 70, 84
8, 160439, Note_on_c, 3, 70, 0
8, 160560, Note_on_c, 3, 67, 84
8, 160799, Note_on_c, 3, 67, 0
8, 160800, Note_on_c, 3, 70, 84
8, 160919, Note_on_c, 3, 70, 0
8, 161040, Note_on_c, 3, 67, 84
8, 161279, Note_on_c, 3, 67, 0
8, 161280, Note_on_c, 3, 71, 84
8, 161399, Note_on_c, 3, 71, 0
8, 161520, Note_on_c, 3, 68, 84
8, 161759, Note_on_c, 3, 68, 0
8, 161760, Note_on_c, 3, 71, 84
8, 161879, Note_on_c, 3, 71, 0
8, 162000, Note_on_c, 3, 68, 84
8, 162239, Note_on_c, 3, 68, 0
8, 162240, Note_on_c, 3, 72, 84
8, 162359, Note_on_c, 3, 72, 0
8, 162480, Note_on_c, 3, 69, 84
8, 162719, Note_on_c, 3, 69, 0
8, 162720, Note_on_c, 3, 73, 84
8, 162839, Note_on_c, 3, 73, 0
8, 162960, Note_on_c, 3, 70, 84
8, 163199, Note_on_c, 3, 70, 0
8, 163200, Note_on_c, 3, 74, 84
8, 163319, Note_on_c, 3, 74, 0
8, 163440, Note_on_c, 3, 59, 84
8, 163440, Note_on_c, 3, 71, 84
8, 163679, Note_on_c, 3, 59, 0
8, 163679, Note_on_c, 3, 71, 0
8, 163680, Note_on_c, 3, 63, 84
8, 163680, Note_on_c, 3, 75, 84
8, 163799, Note_on_c, 3, 63, 0
8, 163799, Note_on_c, 3, 75, 0
8, 163920, Note_on_c, 3, 72, 84
8, 163920, Note_on_c, 3, 60, 84
8, 164159, Note_on_c, 3, 72, 0
8, 164159, Note_on_c, 3, 60, 0
8, 164160, Note_on_c, 3, 76, 84
8, 164160, Note_on_c, 3, 64, 84
8, 164279, Note_on_c, 3, 76, 0
8, 164279, Note_on_c, 3, 64, 0
8, 164400, Note_on_c, 3, 61, 84
8, 164400, Note_on_c, 3, 73, 84
8, 164639, Note_on_c, 3, 61, 0
8, 164639, Note_on_c, 3, 73, 0
8, 164640, Note_on_c, 3, 76, 84
8, 164640, Note_on_c, 3, 64, 84
8, 164759, Note_on_c, 3, 76, 0
8, 164759, Note_on_c, 3, 64, 0
8, 164880, Note_on_c, 3, 74, 84
8, 164880, Note_on_c, 3, 62, 84
8, 165119, Note_on_c, 3, 74, 0
8, 165119, Note_on_c, 3, 62, 0
8, 165120, Note_on_c, 3, 64, 84
8, 165120, Note_on_c, 3, 76, 84
8, 165239, Note_on_c, 3, 64, 0
8, 165239, Note_on_c, 3, 76, 0
8, 165360, Note_on_c, 3, 75, 84
8, 165360, Note_on_c, 3, 63, 84
8, 165599, Note_on_c, 3, 75, 0
8, 165599, Note_on_c, 3, 63, 0
8, 165600, Note_on_c, 3, 64, 84
8, 165600, Note_on_c, 3, 76, 84
8, 165719, Note_on_c, 3, 64, 0
8, 165719, Note_on_c, 3, 76, 0
8, 165840, Note_on_c, 3, 63, 84
8, 165840, Note_on_c, 3, 75, 84
8, 166079, Note_on_c, 3, 63, 0
8, 166079, Note_on_c, 3, 75, 0
8, 166080, Note_on_c, 3, 64, 84
8, 166080, Note_on_c, 3, 76, 84
8, 166199, Note_on_c, 3, 64, 0
8, 166199, Note_on_c, 3, 76, 0
8, 166320, Note_on_c, 3, 63, 84
8, 166320, Control_c, 3, 11, 127
8, 166365, Control_c, 3, 11, 125
8, 166410, Control_c, 3, 11, 124
8, 166455, Control_c, 3, 11, 122
8, 166500, Control_c, 3, 11, 120
8, 166545, Control_c, 3, 11, 119
8, 166559, Note_on_c, 3, 63, 0
8, 166560, Note_on_c, 3, 64, 84
8, 166590, Control_c, 3, 11, 117
8, 166635, Control_c, 3, 11, 115
8, 166679, Note_on_c, 3, 64, 0
8, 166680, Control_c, 3, 11, 114
8, 166725, Control_c, 3, 11, 112
8, 166770, Control_c, 3, 11, 111
8, 166800, Note_on_c, 3, 63, 84
8, 166815, Control_c, 3, 11, 109
8, 166860, Control_c, 3, 11, 107
8, 166905, Control_c, 3, 11, 106
8, 166950, Control_c, 3, 11, 104
8, 166995, Control_c, 3, 11, 102
8, 167039, Note_on_c, 3, 63, 0
8, 167040, Note_on_c, 3, 64, 84
8, 167040, Control_c, 3, 11, 101
8, 167085, Control_c, 3, 11, 99
8, 167130, Control_c, 3, 11, 97
8, 167159, Note_on_c, 3, 64, 0
8, 167175, Control_c, 3, 11, 96
8, 167220, Control_c, 3, 11, 94
8, 167265, Control_c, 3, 11, 92
8, 167280, Note_on_c, 3, 63, 84
8, 167310, Control_c, 3, 11, 91
8, 167355, Control_c, 3, 11, 89
8, 167400, Control_c, 3, 11, 88
8, 167445, Control_c, 3, 11, 86
8, 167490, Control_c, 3, 11, 84
8, 167519, Note_on_c, 3, 63, 0
8, 167520, Note_on_c, 3, 64, 84
8, 167535, Control_c, 3, 11, 83
8, 167580, Control_c, 3, 11, 81
8, 167625, Control_c, 3, 11, 79
8, 167639, Note_on_c, 3, 64, 0
8, 167670, Control_c, 3, 11, 78
8, 167715, Control_c, 3, 11, 76
8, 167760, Note_on_c, 3, 64, 84
8, 167760, Control_c, 3, 11, 74
8, 167805, Control_c, 3, 11, 73
8, 167850, Control_c, 3, 11, 71
8, 167895, Control_c, 3, 11, 69
8, 167940, Control_c, 3, 11, 68
8, 167985, Control_c, 3, 11, 66
8, 167999, Note_on_c, 3, 64, 0
8, 168000, Note_on_c, 3, 65, 84
8, 168030, Control_c, 3, 11, 64
8, 168075, Control_c, 3, 11, 63
8, 168119, Note_on_c, 3, 65, 0
8, 168120, Control_c, 3, 11, 61
8, 168435, Control_c, 3, 11, 127
8, 168480, Note_on_c, 3, 72, 44
8, 168584, Note_on_c, 3, 72, 0
8, 168600, Note_on_c, 3, 72, 44
8, 168651, Note_on_c, 3, 72, 0
8, 168660, Note_on_c, 3, 72, 44
8, 168711, Note_on_c, 3, 72, 0
8, 168720, Note_on_c, 3, 72, 44
8, 168839, Note_on_c, 3, 72, 0
8, 169440, Note_on_c, 3, 72, 44
8, 169544, Note_on_c, 3, 72, 0
8, 169560, Note_on_c, 3, 72, 44
8, 169611, Note_on_c, 3, 72, 0
8, 169620, Note_on_c, 3, 72, 44
8, 169671, Note_on_c, 3, 72, 0
8, 169680, Note_on_c, 3, 72, 44
8, 169799, Note_on_c, 3, 72, 0
8, 169920, Note_on_c, 3, 72, 44
8, 170039, Note_on_c, 3, 72, 0
8, 170160, Note_on_c, 3, 72, 44
8, 170399, Note_on_c, 3, 72, 0
8, 170400, Note_on_c, 3, 74, 44
8, 170519, Note_on_c, 3, 74, 0
8, 170640, Note_on_c, 3, 74, 44
8, 170879, Note_on_c, 3, 74, 0
8, 170880, Note_on_c, 3, 72, 44
8, 170999, Note_on_c, 3, 72, 0
8, 171120, Note_on_c, 3, 72, 44
8, 171359, Note_on_c, 3, 72, 0
8, 171360, Note_on_c, 3, 74, 44
8, 171479, Note_on_c, 3, 74, 0
8, 171600, Note_on_c, 3, 74, 44
8, 173279, Note_on_c, 3, 74, 0
8, 173280, Note_on_c, 3, 72, 44
8, 173399, Note_on_c, 3, 72, 0
8, 173760, Note_on_c, 3, 72, 44
8, 173864, Note_on_c, 3, 72, 0
8, 173880, Note_on_c, 3, 72, 44
8, 173931, Note_on_c, 3, 72, 0
8, 173940, Note_on_c, 3, 72, 44
8, 173991, Note_on_c, 3, 72, 0
8, 174000, Note_on_c, 3, 72, 44
8, 174119, Note_on_c, 3, 72, 0
8, 174720, Note_on_c, 3, 72, 44
8, 174824, Note_on_c, 3, 72, 0
8, 174840, Note_on_c, 3, 72, 44
8, 174891, Note_on_c, 3, 72, 0
8, 174900, Note_on_c, 3, 72, 44
8, 174951, Note_on_c, 3, 72, 0
8, 174960, Note_on_c, 3, 72, 44
8, 175079, Note_on_c, 3, 72, 0
8, 175200, Note_on_c, 3, 72, 44
8, 175319, Note_on_c, 3, 72, 0
8, 175440, Note_on_c, 3, 72, 44
8, 175679, Note_on_c, 3, 72, 0
8, 175680, Note_on_c, 3, 74, 44
8, 175799, Note_on_c, 3, 74, 0
8, 175920, Note_on_c, 3, 74, 44
8, 176159, Note_on_c, 3, 74, 0
8, 176160, Note_on_c, 3, 72, 44
8, 176279, Note_on_c, 3, 72, 0
8, 176400, Note_on_c, 3, 69, 44
8, 176639, Note_on_c, 3, 69, 0
8, 176640, Note_on_c, 3, 68, 44
8, 176758, Control_c, 3, 11, 48
8, 176759, Note_on_c, 3, 68, 0
8, 176880, Note_on_c, 3, 71, 84
8, 176880, Note_on_c, 3, 68, 84
8, 176915, Control_c, 3, 11, 50
8, 176950, Control_c, 3, 11, 51
8, 176985, Control_c, 3, 11, 53
8, 177020, Control_c, 3, 11, 55
8, 177055, Control_c, 3, 11, 56
8, 177090, Control_c, 3, 11, 58
8, 177125, Control_c, 3, 11, 60
8, 177160, Control_c, 3, 11, 61
8, 177195, Control_c, 3, 11, 63
8, 177230, Control_c, 3, 11, 64
8, 177265, Control_c, 3, 11, 66
8, 177300, Control_c, 3, 11, 68
8, 177335, Control_c, 3, 11, 69
8, 177370, Control_c, 3, 11, 71
8, 177405, Control_c, 3, 11, 73
8, 177440, Control_c, 3, 11, 74
8, 177475, Control_c, 3, 11, 76
8, 177510, Control_c, 3, 11, 78
8, 177545, Control_c, 3, 11, 79
8, 177580, Control_c, 3, 11, 81
8, 177615, Control_c, 3, 11, 83
8, 177650, Control_c, 3, 11, 84
8, 177685, Control_c, 3, 11, 86
8, 177720, Control_c, 3, 11, 88
8, 177755, Control_c, 3, 11, 89
8, 177790, Control_c, 3, 11, 91
8, 177825, Control_c, 3, 11, 92
8, 177860, Control_c, 3, 11, 94
8, 177895, Control_c, 3, 11, 96
8, 177930, Control_c, 3, 11, 97
8, 177965, Control_c, 3, 11, 99
8, 178000, Control_c, 3, 11, 101
8, 178035, Control_c, 3, 11, 102
8, 178070, Control_c, 3, 11, 104
8, 178105, Control_c, 3, 11, 106
8, 178140, Control_c, 3, 11, 107
8, 178175, Control_c, 3, 11, 109
8, 178210, Control_c, 3, 11, 111
8, 178245, Control_c, 3, 11, 112
8, 178280, Control_c, 3, 11, 114
8, 178315, Control_c, 3, 11, 115
8, 178350, Control_c, 3, 11, 117
8, 178385, Control_c, 3, 11, 119
8, 178420, Control_c, 3, 11, 120
8, 178455, Control_c, 3, 11, 122
8, 178490, Control_c, 3, 11, 124
8, 178525, Control_c, 3, 11, 127
8, 178664, Note_on_c, 3, 71, 0
8, 178664, Note_on_c, 3, 68, 0
8, 178680, Note_on_c, 3, 64, 84
8, 178680, Note_on_c, 3, 76, 84
8, 178731, Note_on_c, 3, 64, 0
8, 178731, Note_on_c, 3, 76, 0
8, 178740, Note_on_c, 3, 64, 84
8, 178740, Note_on_c, 3, 76, 84
8, 178791, Note_on_c, 3, 64, 0
8, 178791, Note_on_c, 3, 76, 0
8, 178800, Note_on_c, 3, 76, 84
8, 178800, Note_on_c, 3, 64, 84
8, 178919, Note_on_c, 3, 76, 0
8, 178919, Note_on_c, 3, 64, 0
8, 179520, Note_on_c, 3, 71, 84
8, 179520, Note_on_c, 3, 74, 84
8, 179624, Note_on_c, 3, 71, 0
8, 179624, Note_on_c, 3, 74, 0
8, 179640, Note_on_c, 3, 71, 84
8, 179640, Note_on_c, 3, 74, 84
8, 179691, Note_on_c, 3, 71, 0
8, 179691, Note_on_c, 3, 74, 0
8, 179700, Note_on_c, 3, 71, 84
8, 179700, Note_on_c, 3, 74, 84
8, 179751, Note_on_c, 3, 71, 0
8, 179751, Note_on_c, 3, 74, 0
8, 179760, Note_on_c, 3, 71, 84
8, 179760, Note_on_c, 3, 74, 84
8, 179879, Note_on_c, 3, 71, 0
8, 179879, Note_on_c, 3, 74, 0
8, 180480, Note_on_c, 3, 68, 84
8, 180480, Note_on_c, 3, 71, 84
8, 180599, Note_on_c, 3, 68, 0
8, 180599, Note_on_c, 3, 71, 0
8, 180840, Note_on_c, 3, 68, 92
8, 180840, Note_on_c, 3, 71, 92
8, 180959, Note_on_c, 3, 68, 0
8, 180959, Note_on_c, 3, 71, 0
8, 180960, Note_on_c, 3, 69, 84
8, 180960, Note_on_c, 3, 73, 84
8, 181079, Note_on_c, 3, 69, 0
8, 181079, Note_on_c, 3, 73, 0
8, 181320, Note_on_c, 3, 73, 92
8, 181320, Note_on_c, 3, 69, 92
8, 181439, Note_on_c, 3, 73, 0
8, 181439, Note_on_c, 3, 69, 0
8, 181440, Note_on_c, 3, 71, 84
8, 181440, Note_on_c, 3, 68, 84
8, 181559, Note_on_c, 3, 71, 0
8, 181559, Note_on_c, 3, 68, 0
8, 181800, Note_on_c, 3, 71, 92
8, 181800, Note_on_c, 3, 68, 92
8, 181919, Note_on_c, 3, 71, 0
8, 181919, Note_on_c, 3, 68, 0
8, 181920, Note_on_c, 3, 69, 84
8, 181920, Note_on_c, 3, 73, 84
8, 182039, Note_on_c, 3, 69, 0
8, 182039, Note_on_c, 3, 73, 0
8, 182280, Note_on_c, 3, 73, 92
8, 182280, Note_on_c, 3, 69, 92
8, 182399, Note_on_c, 3, 73, 0
8, 182399, Note_on_c, 3, 69, 0
8, 182400, Note_on_c, 3, 71, 84
8, 182400, Note_on_c, 3, 68, 84
8, 182519, Note_on_c, 3, 71, 0
8, 182519, Note_on_c, 3, 68, 0
8, 182760, Note_on_c, 3, 71, 92
8, 182760, Note_on_c, 3, 68, 92
8, 182879, Note_on_c, 3, 71, 0
8, 182879, Note_on_c, 3, 68, 0
8, 182880, Note_on_c, 3, 73, 84
8, 182880, Note_on_c, 3, 69, 84
8, 182999, Note_on_c, 3, 73, 0
8, 182999, Note_on_c, 3, 69, 0
8, 183240, Note_on_c, 3, 69, 92
8, 183240, Note_on_c, 3, 73, 92
8, 183359, Note_on_c, 3, 69, 0
8, 183359, Note_on_c, 3, 73, 0
8, 183360, Note_on_c, 3, 71, 84
8, 183360, Note_on_c, 3, 68, 84
8, 183479, Note_on_c, 3, 71, 0
8, 183479, Note_on_c, 3, 68, 0
8, 183720, Note_on_c, 3, 62, 92
8, 183720, Note_on_c, 3, 71, 92
8, 183839, Note_on_c, 3, 62, 0
8, 183839, Note_on_c, 3, 71, 0
8, 183840, Note_on_c, 3, 61, 84
8, 183840, Note_on_c, 3, 69, 84
8, 183944, Note_on_c, 3, 61, 0
8, 183944, Note_on_c, 3, 69, 0
8, 183960, Note_on_c, 3, 69, 84
8, 183960, Note_on_c, 3, 81, 84
8, 184011, Note_on_c, 3, 69, 0
8, 184011, Note_on_c, 3, 81, 0
8, 184020, Note_on_c, 3, 69, 84
8, 184020, Note_on_c, 3, 81, 84
8, 184071, Note_on_c, 3, 69, 0
8, 184071, Note_on_c, 3, 81, 0
8, 184080, Note_on_c, 3, 69, 84
8, 184080, Note_on_c, 3, 81, 84
8, 184199, Note_on_c, 3, 69, 0
8, 184199, Note_on_c, 3, 81, 0
8, 184320, Note_on_c, 3, 68, 84
8, 184320, Note_on_c, 3, 71, 84
8, 184439, Note_on_c, 3, 68, 0
8, 184439, Note_on_c, 3, 71, 0
8, 184680, Note_on_c, 3, 71, 92
8, 184680, Note_on_c, 3, 68, 92
8, 184799, Note_on_c, 3, 71, 0
8, 184799, Note_on_c, 3, 68, 0
8, 184800, Note_on_c, 3, 69, 84
8, 184800, Note_on_c, 3, 73, 84
8, 184919, Note_on_c, 3, 69, 0
8, 184919, Note_on_c, 3, 73, 0
8, 185160, Note_on_c, 3, 73, 92
8, 185160, Note_on_c, 3, 69, 92
8, 185279, Note_on_c, 3, 73, 0
8, 185279, Note_on_c, 3, 69, 0
8, 185280, Note_on_c, 3, 68, 84
8, 185280, Note_on_c, 3, 71, 84
8, 185399, Note_on_c, 3, 68, 0
8, 185399, Note_on_c, 3, 71, 0
8, 185640, Note_on_c, 3, 68, 92
8, 185640, Note_on_c, 3, 71, 92
8, 185759, Note_on_c, 3, 68, 0
8, 185759, Note_on_c, 3, 71, 0
8, 185760, Note_on_c, 3, 73, 84
8, 185760, Note_on_c, 3, 69, 84
8, 185879, Note_on_c, 3, 73, 0
8, 185879, Note_on_c, 3, 69, 0
8, 186120, Note_on_c, 3, 69, 92
8, 186120, Note_on_c, 3, 73, 92
8, 186239, Note_on_c, 3, 69, 0
8, 186239, Note_on_c, 3, 73, 0
8, 186240, Note_on_c, 3, 71, 84
8, 186240, Note_on_c, 3, 68, 84
8, 186359, Note_on_c, 3, 71, 0
8, 186359, Note_on_c, 3, 68, 0
8, 186600, Note_on_c, 3, 68, 92
8, 186600, Note_on_c, 3, 71, 92
8, 186719, Note_on_c, 3, 68, 0
8, 186719, Note_on_c, 3, 71, 0
8, 186720, Note_on_c, 3, 73, 84
8, 186720, Note_on_c, 3, 69, 84
8, 186839, Note_on_c, 3, 73, 0
8, 186839, Note_on_c, 3, 69, 0
8, 187080, Note_on_c, 3, 69, 92
8, 187080, Note_on_c, 3, 73, 92
8, 187199, Note_on_c, 3, 69, 0
8, 187199, Note_on_c, 3, 73, 0
8, 187200, Note_on_c, 3, 71, 84
8, 187200, Note_on_c, 3, 68, 84
8, 187319, Note_on_c, 3, 71, 0
8, 187319, Note_on_c, 3, 68, 0
8, 187560, Note_on_c, 3, 71, 92
8, 187560, Note_on_c, 3, 62, 92
8, 187679, Note_on_c, 3, 71, 0
8, 187679, Note_on_c, 3, 62, 0
8, 187680, Note_on_c, 3, 61, 84
8, 187680, Note_on_c, 3, 69, 84
8, 187784, Note_on_c, 3, 61, 0
8, 187784, Note_on_c, 3, 69, 0
8, 187800, Note_on_c, 3, 69, 84
8, 187800, Note_on_c, 3, 81, 84
8, 187851, Note_on_c, 3, 69, 0
8, 187851, Note_on_c, 3, 81, 0
8, 187860, Note_on_c, 3, 81, 84
8, 187860, Note_on_c, 3, 69, 84
8, 187911, Note_on_c, 3, 81, 0
8, 187911, Note_on_c, 3, 69, 0
8, 187920, Note_on_c, 3, 69, 84
8, 187920, Note_on_c, 3, 81, 84
8, 188039, Note_on_c, 3, 69, 0
8, 188039, Note_on_c, 3, 81, 0
8, 188280, Note_on_c, 3, 69, 84
8, 188280, Note_on_c, 3, 81, 84
8, 188331, Note_on_c, 3, 69, 0
8, 188331, Note_on_c, 3, 81, 0
8, 188340, Note_on_c, 3, 81, 84
8, 188340, Note_on_c, 3, 69, 84
8, 188391, Note_on_c, 3, 81, 0
8, 188391, Note_on_c, 3, 69, 0
8, 188400, Note_on_c, 3, 81, 84
8, 188400, Note_on_c, 3, 69, 84
8, 188519, Note_on_c, 3, 81, 0
8, 188519, Note_on_c, 3, 69, 0
8, 188760, Note_on_c, 3, 71, 84
8, 188760, Note_on_c, 3, 68, 84
8, 188811, Note_on_c, 3, 71, 0
8, 188811, Note_on_c, 3, 68, 0
8, 188820, Note_on_c, 3, 68, 84
8, 188820, Note_on_c, 3, 71, 84
8, 188871, Note_on_c, 3, 68, 0
8, 188871, Note_on_c, 3, 71, 0
8, 188880, Note_on_c, 3, 68, 84
8, 188880, Note_on_c, 3, 71, 84
8, 188999, Note_on_c, 3, 68, 0
8, 188999, Note_on_c, 3, 71, 0
8, 189240, Note_on_c, 3, 71, 84
8, 189240, Note_on_c, 3, 68, 84
8, 189291, Note_on_c, 3, 71, 0
8, 189291, Note_on_c, 3, 68, 0
8, 189300, Note_on_c, 3, 71, 84
8, 189300, Note_on_c, 3, 68, 84
8, 189351, Note_on_c, 3, 71, 0
8, 189351, Note_on_c, 3, 68, 0
8, 189360, Note_on_c, 3, 71, 84
8, 189360, Note_on_c, 3, 68, 84
8, 189479, Note_on_c, 3, 71, 0
8, 189479, Note_on_c, 3, 68, 0
8, 189600, Note_on_c, 3, 73, 84
8, 189600, Note_on_c, 3, 76, 84
8, 189944, Note_on_c, 3, 73, 0
8, 189944, Note_on_c, 3, 76, 0
8, 189960, Note_on_c, 3, 71, 84
8, 189960, Note_on_c, 3, 74, 84
8, 190049, Note_on_c, 3, 71, 0
8, 190049, Note_on_c, 3, 74, 0
8, 190080, Note_on_c, 3, 69, 84
8, 190080, Note_on_c, 3, 73, 84
8, 190169, Note_on_c, 3, 69, 0
8, 190169, Note_on_c, 3, 73, 0
8, 190200, Note_on_c, 3, 73, 84
8, 190200, Note_on_c, 3, 76, 84
8, 190289, Note_on_c, 3, 73, 0
8, 190289, Note_on_c, 3, 76, 0
8, 190320, Note_on_c, 3, 74, 84
8, 190320, Note_on_c, 3, 71, 84
8, 190409, Note_on_c, 3, 74, 0
8, 190409, Note_on_c, 3, 71, 0
8, 190440, Note_on_c, 3, 73, 84
8, 190440, Note_on_c, 3, 69, 84
8, 190529, Note_on_c, 3, 73, 0
8, 190529, Note_on_c, 3, 69, 0
8, 190560, Note_on_c, 3, 71, 84
8, 190560, Note_on_c, 3, 74, 84
8, 190649, Note_on_c, 3, 71, 0
8, 190649, Note_on_c, 3, 74, 0
8, 190680, Note_on_c, 3, 73, 84
8, 190680, Note_on_c, 3, 69, 84
8, 190769, Note_on_c, 3, 73, 0
8, 190769, Note_on_c, 3, 69, 0
8, 190800, Note_on_c, 3, 68, 84
8, 190800, Note_on_c, 3, 71, 84
8, 190889, Note_on_c, 3, 68, 0
8, 190889, Note_on_c, 3, 71, 0
8, 190920, Note_on_c, 3, 78, 84
8, 190920, Note_on_c, 3, 74, 84
8, 191009, Note_on_c, 3, 78, 0
8, 191009, Note_on_c, 3, 74, 0
8, 191040, Note_on_c, 3, 73, 84
8, 191040, Note_on_c, 3, 76, 84
8, 191129, Note_on_c, 3, 73, 0
8, 191129, Note_on_c, 3, 76, 0
8, 191160, Note_on_c, 3, 71, 84
8, 191160, Note_on_c, 3, 74, 84
8, 191249, Note_on_c, 3, 71, 0
8, 191249, Note_on_c, 3, 74, 0
8, 191280, Note_on_c, 3, 73, 84
8, 191280, Note_on_c, 3, 69, 84
8, 191369, Note_on_c, 3, 73, 0
8, 191369, Note_on_c, 3, 69, 0
8, 191400, Note_on_c, 3, 68, 84
8, 191400, Note_on_c, 3, 71, 84
8, 191489, Note_on_c, 3, 68, 0
8, 191489, Note_on_c, 3, 71, 0
8, 191520, Note_on_c, 3, 69, 84
8, 191624, Note_on_c, 3, 69, 0
8, 191640, Note_on_c, 3, 69, 84
8, 191640, Note_on_c, 3, 81, 84
8, 191691, Note_on_c, 3, 69, 0
8, 191691, Note_on_c, 3, 81, 0
8, 191700, Note_on_c, 3, 69, 84
8, 191700, Note_on_c, 3, 81, 84
8, 191751, Note_on_c, 3, 69, 0
8, 191751, Note_on_c, 3, 81, 0
8, 191760, Note_on_c, 3, 69, 84
8, 191760, Note_on_c, 3, 81, 84
8, 191879, Note_on_c, 3, 69, 0
8, 191879, Note_on_c, 3, 81, 0
8, 192120, Note_on_c, 3, 69, 84
8, 192120, Note_on_c, 3, 81, 84
8, 192171, Note_on_c, 3, 69, 0
8, 192171, Note_on_c, 3, 81, 0
8, 192180, Note_on_c, 3, 81, 84
8, 192180, Note_on_c, 3, 69, 84
8, 192231, Note_on_c, 3, 81, 0
8, 192231, Note_on_c, 3, 69, 0
8, 192240, Note_on_c, 3, 69, 84
8, 192240, Note_on_c, 3, 81, 84
8, 192359, Note_on_c, 3, 69, 0
8, 192359, Note_on_c, 3, 81, 0
8, 192600, Note_on_c, 3, 71, 84
8, 192600, Note_on_c, 3, 68, 84
8, 192651, Note_on_c, 3, 71, 0
8, 192651, Note_on_c, 3, 68, 0
8, 192660, Note_on_c, 3, 71, 84
8, 192660, Note_on_c, 3, 68, 84
8, 192711, Note_on_c, 3, 71, 0
8, 192711, Note_on_c, 3, 68, 0
8, 192720, Note_on_c, 3, 68, 84
8, 192720, Note_on_c, 3, 71, 84
8, 192839, Note_on_c, 3, 68, 0
8, 192839, Note_on_c, 3, 71, 0
8, 193080, Note_on_c, 3, 68, 84
8, 193080, Note_on_c, 3, 71, 84
8, 193131, Note_on_c, 3, 68, 0
8, 193131, Note_on_c, 3, 71, 0
8, 193140, Note_on_c, 3, 68, 84
8, 193140, Note_on_c, 3, 71, 84
8, 193191, Note_on_c, 3, 68, 0
8, 193191, Note_on_c, 3, 71, 0
8, 193200, Note_on_c, 3, 71, 84
8, 193200, Note_on_c, 3, 68, 84
8, 193319, Note_on_c, 3, 71, 0
8, 193319, Note_on_c, 3, 68, 0
8, 193440, Note_on_c, 3, 69, 84
8, 193440, Note_on_c, 3, 73, 84
8, 193559, Note_on_c, 3, 69, 0
8, 193559, Note_on_c, 3, 73, 0
8, 193680, Note_on_c, 3, 73, 84
8, 193680, Note_on_c, 3, 69, 84
8, 193799, Note_on_c, 3, 73, 0
8, 193799, Note_on_c, 3, 69, 0
8, 193920, Note_on_c, 3, 73, 84
8, 193920, Note_on_c, 3, 69, 84
8, 194039, Note_on_c, 3, 73, 0
8, 194039, Note_on_c, 3, 69, 0
8, 194160, Note_on_c, 3, 69, 84
8, 194160, Note_on_c, 3, 73, 84
8, 194279, Note_on_c, 3, 69, 0
8, 194279, Note_on_c, 3, 73, 0
8, 194400, Note_on_c, 3, 71, 84
8, 194400, Note_on_c, 3, 74, 84
8, 194519, Note_on_c, 3, 71, 0
8, 194519, Note_on_c, 3, 74, 0
8, 194640, Note_on_c, 3, 74, 84
8, 194640, Note_on_c, 3, 71, 84
8, 194759, Note_on_c, 3, 74, 0
8, 194759, Note_on_c, 3, 71, 0
8, 194880, Note_on_c, 3, 74, 84
8, 194880, Note_on_c, 3, 71, 84
8, 194999, Note_on_c, 3, 74, 0
8, 194999, Note_on_c, 3, 71, 0
8, 195120, Note_on_c, 3, 71, 84
8, 195120, Note_on_c, 3, 74, 84
8, 195239, Note_on_c, 3, 71, 0
8, 195239, Note_on_c, 3, 74, 0
8, 195360, Note_on_c, 3, 69, 84
8, 195360, Note_on_c, 3, 73, 84
8, 195479, Note_on_c, 3, 69, 0
8, 195479, Note_on_c, 3, 73, 0
8, 197760, Note_on_c, 3, 64, 84
8, 197760, Note_on_c, 3, 76, 84
8, 198464, Note_on_c, 3, 64, 0
8, 198464, Note_on_c, 3, 76, 0
8, 198480, Note_on_c, 3, 67, 84
8, 198480, Note_on_c, 3, 70, 84
8, 198719, Note_on_c, 3, 70, 0
8, 198720, Note_on_c, 3, 69, 84
8, 198959, Note_on_c, 3, 67, 0
8, 198959, Note_on_c, 3, 69, 0
8, 198960, Note_on_c, 3, 73, 84
8, 198960, Note_on_c, 3, 76, 84
8, 199199, Note_on_c, 3, 73, 0
8, 199199, Note_on_c, 3, 76, 0
8, 199200, Note_on_c, 3, 74, 84
8, 199200, Note_on_c, 3, 77, 84
8, 199319, Note_on_c, 3, 74, 0
8, 199319, Note_on_c, 3, 77, 0
8, 200880, Note_on_c, 3, 79, 84
8, 200880, Note_on_c, 3, 76, 84
8, 201119, Note_on_c, 3, 79, 0
8, 201119, Note_on_c, 3, 76, 0
8, 201120, Note_on_c, 3, 77, 84
8, 201120, Note_on_c, 3, 74, 84
8, 201239, Note_on_c, 3, 77, 0
8, 201239, Note_on_c, 3, 74, 0
8, 202800, Note_on_c, 3, 79, 84
8, 202800, Note_on_c, 3, 76, 84
8, 203039, Note_on_c, 3, 79, 0
8, 203039, Note_on_c, 3, 76, 0
8, 203040, Note_on_c, 3, 77, 84
8, 203040, Note_on_c, 3, 74, 84
8, 203159, Note_on_c, 3, 77, 0
8, 203159, Note_on_c, 3, 74, 0
8, 203280, Note_on_c, 3, 65, 84
8, 203280, Note_on_c, 3, 62, 84
8, 203399, Note_on_c, 3, 65, 0
8, 203399, Note_on_c, 3, 62, 0
8, 203520, Note_on_c, 3, 65, 84
8, 203520, Note_on_c, 3, 62, 84
8, 203639, Note_on_c, 3, 65, 0
8, 203639, Note_on_c, 3, 62, 0
8, 203760, Note_on_c, 3, 62, 84
8, 203760, Note_on_c, 3, 65, 84
8, 203879, Note_on_c, 3, 62, 0
8, 203879, Note_on_c, 3, 65, 0
8, 204000, Note_on_c, 3, 67, 84
8, 204000, Note_on_c, 3, 64, 84
8, 204119, Note_on_c, 3, 67, 0
8, 204119, Note_on_c, 3, 64, 0
8, 204240, Note_on_c, 3, 67, 84
8, 204240, Note_on_c, 3, 64, 84
8, 204359, Note_on_c, 3, 67, 0
8, 204359, Note_on_c, 3, 64, 0
8, 204480, Note_on_c, 3, 67, 84
8, 204480, Note_on_c, 3, 64, 84
8, 204599, Note_on_c, 3, 67, 0
8, 204599, Note_on_c, 3, 64, 0
8, 204720, Note_on_c, 3, 64, 84
8, 204720, Note_on_c, 3, 67, 84
8, 204839, Note_on_c, 3, 64, 0
8, 204839, Note_on_c, 3, 67, 0
8, 204960, Note_on_c, 3, 65, 84
8, 204960, Note_on_c, 3, 62, 84
8, 205079, Note_on_c, 3, 65, 0
8, 205079, Note_on_c, 3, 62, 0
8, 205200, Note_on_c, 3, 65, 84
8, 205200, Note_on_c, 3, 62, 84
8, 205319, Note_on_c, 3, 65, 0
8, 205319, Note_on_c, 3, 62, 0
8, 205440, Note_on_c, 3, 62, 84
8, 205440, Note_on_c, 3, 66, 84
8, 205559, Note_on_c, 3, 62, 0
8, 205559, Note_on_c, 3, 66, 0
8, 205680, Note_on_c, 3, 62, 84
8, 205680, Note_on_c, 3, 66, 84
8, 205799, Note_on_c, 3, 62, 0
8, 205799, Note_on_c, 3, 66, 0
8, 205920, Note_on_c, 3, 62, 84
8, 205920, Note_on_c, 3, 68, 84
8, 206039, Note_on_c, 3, 62, 0
8, 206039, Note_on_c, 3, 68, 0
8, 206160, Note_on_c, 3, 68, 84
8, 206160, Note_on_c, 3, 62, 84
8, 206279, Note_on_c, 3, 68, 0
8, 206279, Note_on_c, 3, 62, 0
8, 206400, Note_on_c, 3, 65, 84
8, 206400, Note_on_c, 3, 77, 84
8, 206519, Note_on_c, 3, 65, 0
8, 206519, Note_on_c, 3, 77, 0
8, 206640, Note_on_c, 3, 65, 84
8, 206640, Note_on_c, 3, 77, 84
8, 206759, Note_on_c, 3, 65, 0
8, 206759, Note_on_c, 3, 77, 0
8, 206880, Note_on_c, 3, 64, 84
8, 206880, Note_on_c, 3, 76, 84
8, 206999, Note_on_c, 3, 64, 0
8, 206999, Note_on_c, 3, 76, 0
8, 207120, Note_on_c, 3, 81, 84
8, 207120, Note_on_c, 3, 69, 84
8, 207239, Note_on_c, 3, 81, 0
8, 207239, Note_on_c, 3, 69, 0
8, 207360, Note_on_c, 3, 69, 84
8, 207360, Note_on_c, 3, 81, 84
8, 207479, Note_on_c, 3, 69, 0
8, 207479, Note_on_c, 3, 81, 0
8, 207600, Note_on_c, 3, 81, 84
8, 207600, Note_on_c, 3, 69, 84
8, 207719, Note_on_c, 3, 81, 0
8, 207719, Note_on_c, 3, 69, 0
8, 207840, Note_on_c, 3, 68, 84
8, 207840, Note_on_c, 3, 71, 84
8, 207959, Note_on_c, 3, 68, 0
8, 207959, Note_on_c, 3, 71, 0
8, 208080, Note_on_c, 3, 74, 76
8, 208080, Note_on_c, 3, 77, 76
8, 208169, Note_on_c, 3, 74, 0
8, 208169, Note_on_c, 3, 77, 0
8, 210000, Note_on_c, 3, 77, 76
8, 210000, Note_on_c, 3, 74, 76
8, 210089, Note_on_c, 3, 77, 0
8, 210089, Note_on_c, 3, 74, 0
8, 213600, Note_on_c, 3, 73, 52
8, 213600, Note_on_c, 3, 76, 52
8, 213771, Note_on_c, 3, 73, 0
8, 213771, Note_on_c, 3, 76, 0
8, 213780, Note_on_c, 3, 71, 52
8, 213780, Note_on_c, 3, 74, 52
8, 213824, Note_on_c, 3, 71, 0
8, 213824, Note_on_c, 3, 74, 0
8, 213840, Note_on_c, 3, 73, 76
8, 213840, Note_on_c, 3, 76, 76
8, 214071, Note_on_c, 3, 73, 0
8, 214071, Note_on_c, 3, 76, 0
8, 214080, Note_on_c, 3, 71, 52
8, 214080, Note_on_c, 3, 74, 52
8, 214251, Note_on_c, 3, 71, 0
8, 214251, Note_on_c, 3, 74, 0
8, 214260, Note_on_c, 3, 69, 52
8, 214260, Note_on_c, 3, 73, 52
8, 214304, Note_on_c, 3, 69, 0
8, 214304, Note_on_c, 3, 73, 0
8, 214320, Note_on_c, 3, 74, 76
8, 214320, Note_on_c, 3, 71, 76
8, 214551, Note_on_c, 3, 74, 0
8, 214551, Note_on_c, 3, 71, 0
8, 214560, Note_on_c, 3, 69, 52
8, 214560, Note_on_c, 3, 73, 52
8, 214731, Note_on_c, 3, 69, 0
8, 214731, Note_on_c, 3, 73, 0
8, 214740, Note_on_c, 3, 71, 52
8, 214740, Note_on_c, 3, 68, 52
8, 214784, Note_on_c, 3, 71, 0
8, 214784, Note_on_c, 3, 68, 0
8, 214800, Note_on_c, 3, 69, 76
8, 214800, Note_on_c, 3, 73, 76
8, 215031, Note_on_c, 3, 69, 0
8, 215031, Note_on_c, 3, 73, 0
8, 215040, Note_on_c, 3, 74, 52
8, 215040, Note_on_c, 3, 71, 52
8, 215211, Note_on_c, 3, 74, 0
8, 215211, Note_on_c, 3, 71, 0
8, 215220, Note_on_c, 3, 73, 52
8, 215220, Note_on_c, 3, 69, 52
8, 215264, Note_on_c, 3, 73, 0
8, 215264, Note_on_c, 3, 69, 0
8, 215280, Note_on_c, 3, 74, 76
8, 215280, Note_on_c, 3, 71, 76
8, 215511, Note_on_c, 3, 74, 0
8, 215511, Note_on_c, 3, 71, 0
8, 215520, Note_on_c, 3, 73, 52
8, 215639, Note_on_c, 3, 73, 0
8, 217920, Note_on_c, 3, 74, 48
8, 217920, Note_on_c, 3, 62, 52
8, 218039, Note_on_c, 3, 74, 0
8, 218100, Note_on_c, 3, 73, 48
8, 218144, Note_on_c, 3, 62, 0
8, 218159, Note_on_c, 3, 73, 0
8, 218160, Note_on_c, 3, 62, 52
8, 218160, Note_on_c, 3, 71, 48
8, 218279, Note_on_c, 3, 71, 0
8, 218340, Note_on_c, 3, 74, 48
8, 218384, Note_on_c, 3, 62, 0
8, 218399, Note_on_c, 3, 74, 0
8, 218400, Note_on_c, 3, 73, 52
8, 218571, Note_on_c, 3, 73, 0
8, 218580, Note_on_c, 3, 71, 52
8, 218580, Note_on_c, 3, 74, 52
8, 218624, Note_on_c, 3, 71, 0
8, 218624, Note_on_c, 3, 74, 0
8, 218640, Note_on_c, 3, 76, 76
8, 218640, Note_on_c, 3, 73, 76
8, 218871, Note_on_c, 3, 76, 0
8, 218871, Note_on_c, 3, 73, 0
8, 218880, Note_on_c, 3, 74, 52
8, 218880, Note_on_c, 3, 71, 52
8, 219051, Note_on_c, 3, 74, 0
8, 219051, Note_on_c, 3, 71, 0
8, 219060, Note_on_c, 3, 73, 52
8, 219060, Note_on_c, 3, 69, 52
8, 219104, Note_on_c, 3, 73, 0
8, 219104, Note_on_c, 3, 69, 0
8, 219120, Note_on_c, 3, 71, 76
8, 219120, Note_on_c, 3, 74, 76
8, 219351, Note_on_c, 3, 71, 0
8, 219351, Note_on_c, 3, 74, 0
8, 219360, Note_on_c, 3, 69, 52
8, 219360, Note_on_c, 3, 73, 52
8, 219531, Note_on_c, 3, 69, 0
8, 219531, Note_on_c, 3, 73, 0
8, 219540, Note_on_c, 3, 68, 52
8, 219540, Note_on_c, 3, 71, 52
8, 219584, Note_on_c, 3, 68, 0
8, 219584, Note_on_c, 3, 71, 0
8, 219600, Note_on_c, 3, 73, 76
8, 219600, Note_on_c, 3, 69, 76
8, 219831, Note_on_c, 3, 73, 0
8, 219831, Note_on_c, 3, 69, 0
8, 219840, Note_on_c, 3, 74, 52
8, 219840, Note_on_c, 3, 71, 52
8, 220011, Note_on_c, 3, 74, 0
8, 220011, Note_on_c, 3, 71, 0
8, 220020, Note_on_c, 3, 69, 52
8, 220020, Note_on_c, 3, 73, 52
8, 220064, Note_on_c, 3, 69, 0
8, 220064, Note_on_c, 3, 73, 0
8, 220080, Note_on_c, 3, 71, 76
8, 220080, Note_on_c, 3, 74, 76
8, 220311, Note_on_c, 3, 71, 0
8, 220311, Note_on_c, 3, 74, 0
8, 220320, Note_on_c, 3, 73, 52
8, 220439, Note_on_c, 3, 73, 0
8, 221760, Note_on_c, 3, 62, 48
8, 221760, Note_on_c, 3, 71, 48
8, 221879, Note_on_c, 3, 71, 0
8, 221940, Note_on_c, 3, 73, 48
8, 221984, Note_on_c, 3, 62, 0
8, 221999, Note_on_c, 3, 73, 0
8, 222000, Note_on_c, 3, 62, 48
8, 222000, Note_on_c, 3, 74, 48
8, 222119, Note_on_c, 3, 74, 0
8, 222180, Note_on_c, 3, 71, 48
8, 222224, Note_on_c, 3, 62, 0
8, 222239, Note_on_c, 3, 71, 0
8, 222240, Note_on_c, 3, 61, 48
8, 222240, Note_on_c, 3, 73, 48
8, 222359, Note_on_c, 3, 73, 0
8, 222420, Note_on_c, 3, 71, 48
8, 222464, Note_on_c, 3, 61, 0
8, 222479, Note_on_c, 3, 71, 0
8, 222480, Note_on_c, 3, 61, 48
8, 222480, Note_on_c, 3, 69, 48
8, 222599, Note_on_c, 3, 69, 0
8, 222660, Note_on_c, 3, 73, 48
8, 222704, Note_on_c, 3, 61, 0
8, 222719, Note_on_c, 3, 73, 0
8, 222720, Note_on_c, 3, 71, 48
8, 222720, Note_on_c, 3, 62, 48
8, 222839, Note_on_c, 3, 71, 0
8, 222900, Note_on_c, 3, 73, 48
8, 222944, Note_on_c, 3, 62, 0
8, 222959, Note_on_c, 3, 73, 0
8, 222960, Note_on_c, 3, 62, 48
8, 222960, Note_on_c, 3, 74, 48
8, 223079, Note_on_c, 3, 74, 0
8, 223140, Note_on_c, 3, 71, 48
8, 223184, Note_on_c, 3, 62, 0
8, 223199, Note_on_c, 3, 71, 0
8, 223200, Note_on_c, 3, 73, 48
8, 223200, Note_on_c, 3, 61, 48
8, 223319, Note_on_c, 3, 73, 0
8, 223380, Note_on_c, 3, 71, 48
8, 223424, Note_on_c, 3, 61, 0
8, 223439, Note_on_c, 3, 71, 0
8, 223440, Note_on_c, 3, 69, 48
8, 223440, Note_on_c, 3, 61, 48
8, 223559, Note_on_c, 3, 69, 0
8, 223620, Note_on_c, 3, 73, 48
8, 223664, Note_on_c, 3, 61, 0
8, 223679, Note_on_c, 3, 73, 0
8, 223680, Note_on_c, 3, 71, 48
8, 223680, Note_on_c, 3, 62, 48
8, 223799, Note_on_c, 3, 71, 0
8, 223860, Note_on_c, 3, 73, 48
8, 223904, Note_on_c, 3, 62, 0
8, 223919, Note_on_c, 3, 73, 0
8, 223920, Note_on_c, 3, 74, 48
8, 223920, Note_on_c, 3, 62, 48
8, 224039, Note_on_c, 3, 74, 0
8, 224100, Note_on_c, 3, 73, 48
8, 224144, Note_on_c, 3, 62, 0
8, 224159, Note_on_c, 3, 73, 0
8, 224160, Note_on_c, 3, 62, 48
8, 224160, Note_on_c, 3, 74, 48
8, 224279, Note_on_c, 3, 62, 0
8, 224279, Note_on_c, 3, 74, 0
8, 224398, Control_c, 3, 11, 64
8, 224400, Note_on_c, 3, 74, 84
8, 224400, Note_on_c, 3, 71, 84
8, 224488, Control_c, 3, 11, 65
8, 224575, Control_c, 3, 11, 66
8, 224663, Control_c, 3, 11, 67
8, 224750, Control_c, 3, 11, 68
8, 224838, Control_c, 3, 11, 69
8, 224926, Control_c, 3, 11, 70
8, 225013, Control_c, 3, 11, 71
8, 225101, Control_c, 3, 11, 72
8, 225189, Control_c, 3, 11, 73
8, 225276, Control_c, 3, 11, 74
8, 225364, Control_c, 3, 11, 75
8, 225451, Control_c, 3, 11, 76
8, 225539, Control_c, 3, 11, 77
8, 225627, Control_c, 3, 11, 78
8, 225714, Control_c, 3, 11, 79
8, 225802, Control_c, 3, 11, 80
8, 225890, Control_c, 3, 11, 81
8, 225977, Control_c, 3, 11, 82
8, 226065, Control_c, 3, 11, 83
8, 226152, Control_c, 3, 11, 84
8, 226240, Control_c, 3, 11, 85
8, 226328, Control_c, 3, 11, 86
8, 226415, Control_c, 3, 11, 87
8, 226503, Control_c, 3, 11, 88
8, 226544, Note_on_c, 3, 74, 0
8, 226544, Note_on_c, 3, 71, 0
8, 226560, Note_on_c, 3, 69, 84
8, 226560, Note_on_c, 3, 73, 84
8, 226590, Control_c, 3, 11, 89
8, 226678, Control_c, 3, 11, 90
8, 226766, Control_c, 3, 11, 91
8, 226853, Control_c, 3, 11, 92
8, 226941, Control_c, 3, 11, 93
8, 227024, Note_on_c, 3, 69, 0
8, 227024, Note_on_c, 3, 73, 0
8, 227029, Control_c, 3, 11, 94
8, 227040, Note_on_c, 3, 71, 84
8, 227040, Note_on_c, 3, 74, 84
8, 227116, Control_c, 3, 11, 95
8, 227204, Control_c, 3, 11, 96
8, 227291, Control_c, 3, 11, 97
8, 227379, Control_c, 3, 11, 98
8, 227467, Control_c, 3, 11, 99
8, 227554, Control_c, 3, 11, 100
8, 227642, Control_c, 3, 11, 101
8, 227730, Control_c, 3, 11, 102
8, 227817, Control_c, 3, 11, 103
8, 227905, Control_c, 3, 11, 104
8, 227992, Control_c, 3, 11, 105
8, 228080, Control_c, 3, 11, 106
8, 228168, Control_c, 3, 11, 107
8, 228255, Control_c, 3, 11, 108
8, 228343, Control_c, 3, 11, 109
8, 228430, Control_c, 3, 11, 110
8, 228518, Control_c, 3, 11, 111
8, 228606, Control_c, 3, 11, 112
8, 228693, Control_c, 3, 11, 113
8, 228781, Control_c, 3, 11, 114
8, 228869, Control_c, 3, 11, 115
8, 228956, Control_c, 3, 11, 116
8, 229044, Control_c, 3, 11, 117
8, 229131, Control_c, 3, 11, 118
8, 229219, Control_c, 3, 11, 119
8, 229307, Control_c, 3, 11, 120
8, 229394, Control_c, 3, 11, 121
8, 229424, Note_on_c, 3, 71, 0
8, 229424, Note_on_c, 3, 74, 0
8, 229440, Note_on_c, 3, 69, 84
8, 229440, Note_on_c, 3, 73, 84
8, 229482, Control_c, 3, 11, 122
8, 229570, Control_c, 3, 11, 123
8, 229657, Control_c, 3, 11, 124
8, 229679, Note_on_c, 3, 73, 0
8, 229680, Note_on_c, 3, 76, 84
8, 229745, Control_c, 3, 11, 125
8, 229832, Control_c, 3, 11, 127
8, 229904, Note_on_c, 3, 69, 0
8, 229904, Note_on_c, 3, 76, 0
8, 229920, Note_on_c, 3, 64, 84
8, 229920, Note_on_c, 3, 70, 84
8, 230024, Note_on_c, 3, 64, 0
8, 230024, Note_on_c, 3, 70, 0
8, 230040, Note_on_c, 3, 64, 84
8, 230040, Note_on_c, 3, 70, 84
8, 230144, Note_on_c, 3, 64, 0
8, 230144, Note_on_c, 3, 70, 0
8, 230160, Note_on_c, 3, 64, 84
8, 230160, Note_on_c, 3, 70, 84
8, 230264, Note_on_c, 3, 64, 0
8, 230264, Note_on_c, 3, 70, 0
8, 230280, Note_on_c, 3, 64, 84
8, 230280, Note_on_c, 3, 70, 84
8, 230384, Note_on_c, 3, 64, 0
8, 230384, Note_on_c, 3, 70, 0
8, 230400, Note_on_c, 3, 70, 84
8, 230400, Note_on_c, 3, 64, 84
8, 230504, Note_on_c, 3, 70, 0
8, 230504, Note_on_c, 3, 64, 0
8, 230520, Note_on_c, 3, 70, 84
8, 230520, Note_on_c, 3, 64, 84
8, 230624, Note_on_c, 3, 70, 0
8, 230624, Note_on_c, 3, 64, 0
8, 230640, Note_on_c, 3, 70, 84
8, 230640, Note_on_c, 3, 64, 84
8, 230744, Note_on_c, 3, 70, 0
8, 230744, Note_on_c, 3, 64, 0
8, 230760, Note_on_c, 3, 70, 84
8, 230760, Note_on_c, 3, 64, 84
8, 230864, Note_on_c, 3, 70, 0
8, 230864, Note_on_c, 3, 64, 0
8, 230880, Note_on_c, 3, 65, 92
8, 230880, Note_on_c, 3, 69, 92
8, 230984, Note_on_c, 3, 65, 0
8, 230984, Note_on_c, 3, 69, 0
8, 231000, Note_on_c, 3, 69, 84
8, 231000, Note_on_c, 3, 65, 84
8, 231104, Note_on_c, 3, 69, 0
8, 231104, Note_on_c, 3, 65, 0
8, 231120, Note_on_c, 3, 69, 84
8, 231120, Note_on_c, 3, 65, 84
8, 231224, Note_on_c, 3, 69, 0
8, 231224, Note_on_c, 3, 65, 0
8, 231240, Note_on_c, 3, 69, 84
8, 231240, Note_on_c, 3, 65, 84
8, 231344, Note_on_c, 3, 69, 0
8, 231344, Note_on_c, 3, 65, 0
8, 231360, Note_on_c, 3, 64, 92
8, 231360, Note_on_c, 3, 70, 92
8, 231464, Note_on_c, 3, 64, 0
8, 231464, Note_on_c, 3, 70, 0
8, 231480, Note_on_c, 3, 64, 84
8, 231480, Note_on_c, 3, 70, 84
8, 231584, Note_on_c, 3, 64, 0
8, 231584, Note_on_c, 3, 70, 0
8, 231600, Note_on_c, 3, 64, 84
8, 231600, Note_on_c, 3, 70, 84
8, 231704, Note_on_c, 3, 64, 0
8, 231704, Note_on_c, 3, 70, 0
8, 231720, Note_on_c, 3, 64, 84
8, 231720, Note_on_c, 3, 70, 84
8, 231824, Note_on_c, 3, 64, 0
8, 231824, Note_on_c, 3, 70, 0
8, 231840, Note_on_c, 3, 65, 92
8, 231840, Note_on_c, 3, 69, 92
8, 231944, Note_on_c, 3, 65, 0
8, 231944, Note_on_c, 3, 69, 0
8, 231960, Note_on_c, 3, 69, 84
8, 231960, Note_on_c, 3, 65, 84
8, 232064, Note_on_c, 3, 69, 0
8, 232064, Note_on_c, 3, 65, 0
8, 232080, Note_on_c, 3, 65, 84
8, 232080, Note_on_c, 3, 69, 84
8, 232184, Note_on_c, 3, 65, 0
8, 232184, Note_on_c, 3, 69, 0
8, 232200, Note_on_c, 3, 65, 84
8, 232200, Note_on_c, 3, 69, 84
8, 232304, Note_on_c, 3, 65, 0
8, 232304, Note_on_c, 3, 69, 0
8, 232320, Note_on_c, 3, 64, 92
8, 232320, Note_on_c, 3, 70, 92
8, 232424, Note_on_c, 3, 64, 0
8, 232424, Note_on_c, 3, 70, 0
8, 232440, Note_on_c, 3, 64, 84
8, 232440, Note_on_c, 3, 70, 84
8, 232544, Note_on_c, 3, 64, 0
8, 232544, Note_on_c, 3, 70, 0
8, 232560, Note_on_c, 3, 70, 84
8, 232560, Note_on_c, 3, 64, 84
8, 232664, Note_on_c, 3, 70, 0
8, 232664, Note_on_c, 3, 64, 0
8, 232680, Note_on_c, 3, 70, 84
8, 232680, Note_on_c, 3, 64, 84
8, 232784, Note_on_c, 3, 70, 0
8, 232784, Note_on_c, 3, 64, 0
8, 232800, Note_on_c, 3, 79, 84
8, 232800, Note_on_c, 3, 67, 84
8, 232904, Note_on_c, 3, 79, 0
8, 232904, Note_on_c, 3, 67, 0
8, 232920, Note_on_c, 3, 67, 84
8, 232920, Note_on_c, 3, 79, 84
8, 233024, Note_on_c, 3, 67, 0
8, 233024, Note_on_c, 3, 79, 0
8, 233040, Note_on_c, 3, 79, 84
8, 233040, Note_on_c, 3, 67, 84
8, 233144, Note_on_c, 3, 79, 0
8, 233144, Note_on_c, 3, 67, 0
8, 233160, Note_on_c, 3, 67, 84
8, 233160, Note_on_c, 3, 79, 84
8, 233264, Note_on_c, 3, 67, 0
8, 233264, Note_on_c, 3, 79, 0
8, 233280, Note_on_c, 3, 67, 92
8, 233280, Note_on_c, 3, 79, 92
8, 233384, Note_on_c, 3, 67, 0
8, 233384, Note_on_c, 3, 79, 0
8, 233400, Note_on_c, 3, 79, 84
8, 233400, Note_on_c, 3, 67, 84
8, 233504, Note_on_c, 3, 79, 0
8, 233504, Note_on_c, 3, 67, 0
8, 233520, Note_on_c, 3, 79, 84
8, 233520, Note_on_c, 3, 67, 84
8, 233624, Note_on_c, 3, 79, 0
8, 233624, Note_on_c, 3, 67, 0
8, 233640, Note_on_c, 3, 79, 84
8, 233640, Note_on_c, 3, 67, 84
8, 233744, Note_on_c, 3, 79, 0
8, 233744, Note_on_c, 3, 67, 0
8, 233760, Note_on_c, 3, 77, 92
8, 233760, Note_on_c, 3, 65, 92
8, 233864, Note_on_c, 3, 77, 0
8, 233864, Note_on_c, 3, 65, 0
8, 233880, Note_on_c, 3, 77, 84
8, 233880, Note_on_c, 3, 65, 84
8, 233984, Note_on_c, 3, 77, 0
8, 233984, Note_on_c, 3, 65, 0
8, 234000, Note_on_c, 3, 65, 84
8, 234000, Note_on_c, 3, 77, 84
8, 234104, Note_on_c, 3, 65, 0
8, 234104, Note_on_c, 3, 77, 0
8, 234120, Note_on_c, 3, 65, 84
8, 234120, Note_on_c, 3, 77, 84
8, 234224, Note_on_c, 3, 65, 0
8, 234224, Note_on_c, 3, 77, 0
8, 234240, Note_on_c, 3, 79, 92
8, 234240, Note_on_c, 3, 67, 92
8, 234344, Note_on_c, 3, 79, 0
8, 234344, Note_on_c, 3, 67, 0
8, 234360, Note_on_c, 3, 67, 84
8, 234360, Note_on_c, 3, 79, 84
8, 234464, Note_on_c, 3, 67, 0
8, 234464, Note_on_c, 3, 79, 0
8, 234480, Note_on_c, 3, 79, 84
8, 234480, Note_on_c, 3, 67, 84
8, 234584, Note_on_c, 3, 79, 0
8, 234584, Note_on_c, 3, 67, 0
8, 234600, Note_on_c, 3, 67, 84
8, 234600, Note_on_c, 3, 79, 84
8, 234704, Note_on_c, 3, 67, 0
8, 234704, Note_on_c, 3, 79, 0
8, 234720, Note_on_c, 3, 65, 92
8, 234720, Note_on_c, 3, 77, 92
8, 234824, Note_on_c, 3, 65, 0
8, 234824, Note_on_c, 3, 77, 0
8, 234840, Note_on_c, 3, 77, 84
8, 234840, Note_on_c, 3, 65, 84
8, 234944, Note_on_c, 3, 77, 0
8, 234944, Note_on_c, 3, 65, 0
8, 234960, Note_on_c, 3, 65, 84
8, 234960, Note_on_c, 3, 77, 84
8, 235064, Note_on_c, 3, 65, 0
8, 235064, Note_on_c, 3, 77, 0
8, 235080, Note_on_c, 3, 77, 84
8, 235080, Note_on_c, 3, 65, 84
8, 235184, Note_on_c, 3, 77, 0
8, 235184, Note_on_c, 3, 65, 0
8, 235200, Note_on_c, 3, 69, 92
8, 235200, Note_on_c, 3, 72, 92
8, 235304, Note_on_c, 3, 69, 0
8, 235304, Note_on_c, 3, 72, 0
8, 235320, Note_on_c, 3, 69, 84
8, 235320, Note_on_c, 3, 72, 84
8, 235424, Note_on_c, 3, 69, 0
8, 235424, Note_on_c, 3, 72, 0
8, 235440, Note_on_c, 3, 69, 84
8, 235440, Note_on_c, 3, 72, 84
8, 235544, Note_on_c, 3, 69, 0
8, 235544, Note_on_c, 3, 72, 0
8, 235560, Note_on_c, 3, 72, 84
8, 235560, Note_on_c, 3, 69, 84
8, 235664, Note_on_c, 3, 72, 0
8, 235664, Note_on_c, 3, 69, 0
8, 235680, Note_on_c, 3, 73, 92
8, 235680, Note_on_c, 3, 69, 92
8, 235784, Note_on_c, 3, 73, 0
8, 235784, Note_on_c, 3, 69, 0
8, 235800, Note_on_c, 3, 69, 84
8, 235800, Note_on_c, 3, 73, 84
8, 235904, Note_on_c, 3, 69, 0
8, 235904, Note_on_c, 3, 73, 0
8, 235920, Note_on_c, 3, 73, 84
8, 235920, Note_on_c, 3, 69, 84
8, 236024, Note_on_c, 3, 73, 0
8, 236024, Note_on_c, 3, 69, 0
8, 236040, Note_on_c, 3, 73, 84
8, 236040, Note_on_c, 3, 69, 84
8, 236144, Note_on_c, 3, 73, 0
8, 236144, Note_on_c, 3, 69, 0
8, 236160, Note_on_c, 3, 68, 92
8, 236160, Note_on_c, 3, 71, 92
8, 236264, Note_on_c, 3, 68, 0
8, 236264, Note_on_c, 3, 71, 0
8, 236280, Note_on_c, 3, 71, 84
8, 236280, Note_on_c, 3, 68, 84
8, 236384, Note_on_c, 3, 71, 0
8, 236384, Note_on_c, 3, 68, 0
8, 236400, Note_on_c, 3, 71, 84
8, 236400, Note_on_c, 3, 68, 84
8, 236504, Note_on_c, 3, 71, 0
8, 236504, Note_on_c, 3, 68, 0
8, 236520, Note_on_c, 3, 71, 84
8, 236520, Note_on_c, 3, 68, 84
8, 236624, Note_on_c, 3, 71, 0
8, 236624, Note_on_c, 3, 68, 0
8, 236640, Note_on_c, 3, 69, 84
8, 236640, Note_on_c, 3, 73, 84
8, 236744, Note_on_c, 3, 69, 0
8, 236744, Note_on_c, 3, 73, 0
8, 236760, Note_on_c, 3, 73, 84
8, 236760, Note_on_c, 3, 76, 84
8, 236864, Note_on_c, 3, 73, 0
8, 236864, Note_on_c, 3, 76, 0
8, 236880, Note_on_c, 3, 68, 92
8, 236880, Note_on_c, 3, 77, 92
8, 236984, Note_on_c, 3, 68, 0
8, 236984, Note_on_c, 3, 77, 0
8, 237000, Note_on_c, 3, 77, 84
8, 237000, Note_on_c, 3, 68, 84
8, 237104, Note_on_c, 3, 77, 0
8, 237104, Note_on_c, 3, 68, 0
8, 237120, Note_on_c, 3, 77, 84
8, 237120, Note_on_c, 3, 68, 84
8, 237224, Note_on_c, 3, 77, 0
8, 237224, Note_on_c, 3, 68, 0
8, 237240, Note_on_c, 3, 77, 84
8, 237240, Note_on_c, 3, 68, 84
8, 237344, Note_on_c, 3, 77, 0
8, 237344, Note_on_c, 3, 68, 0
8, 237360, Note_on_c, 3, 77, 84
8, 237360, Note_on_c, 3, 68, 84
8, 237464, Note_on_c, 3, 77, 0
8, 237464, Note_on_c, 3, 68, 0
8, 237480, Note_on_c, 3, 77, 84
8, 237480, Note_on_c, 3, 68, 84
8, 237584, Note_on_c, 3, 77, 0
8, 237584, Note_on_c, 3, 68, 0
8, 237600, Note_on_c, 3, 69, 84
8, 237600, Note_on_c, 3, 76, 84
8, 237704, Note_on_c, 3, 69, 0
8, 237704, Note_on_c, 3, 76, 0
8, 237720, Note_on_c, 3, 76, 84
8, 237720, Note_on_c, 3, 69, 84
8, 237824, Note_on_c, 3, 76, 0
8, 237824, Note_on_c, 3, 69, 0
8, 237840, Note_on_c, 3, 68, 92
8, 237840, Note_on_c, 3, 77, 92
8, 237944, Note_on_c, 3, 68, 0
8, 237944, Note_on_c, 3, 77, 0
8, 237960, Note_on_c, 3, 77, 84
8, 237960, Note_on_c, 3, 68, 84
8, 238064, Note_on_c, 3, 77, 0
8, 238064, Note_on_c, 3, 68, 0
8, 238080, Note_on_c, 3, 77, 84
8, 238080, Note_on_c, 3, 68, 84
8, 238184, Note_on_c, 3, 77, 0
8, 238184, Note_on_c, 3, 68, 0
8, 238200, Note_on_c, 3, 77, 84
8, 238200, Note_on_c, 3, 68, 84
8, 238304, Note_on_c, 3, 77, 0
8, 238304, Note_on_c, 3, 68, 0
8, 238320, Note_on_c, 3, 68, 84
8, 238320, Note_on_c, 3, 77, 84
8, 238424, Note_on_c, 3, 68, 0
8, 238424, Note_on_c, 3, 77, 0
8, 238440, Note_on_c, 3, 68, 84
8, 238440, Note_on_c, 3, 77, 84
8, 238544, Note_on_c, 3, 68, 0
8, 238544, Note_on_c, 3, 77, 0
8, 238560, Note_on_c, 3, 69, 84
8, 238560, Note_on_c, 3, 76, 84
8, 238664, Note_on_c, 3, 69, 0
8, 238664, Note_on_c, 3, 76, 0
8, 238680, Note_on_c, 3, 76, 84
8, 238680, Note_on_c, 3, 69, 84
8, 238784, Note_on_c, 3, 76, 0
8, 238784, Note_on_c, 3, 69, 0
8, 238800, Note_on_c, 3, 77, 92
8, 238800, Note_on_c, 3, 68, 92
8, 238904, Note_on_c, 3, 77, 0
8, 238904, Note_on_c, 3, 68, 0
8, 238920, Note_on_c, 3, 68, 84
8, 238920, Note_on_c, 3, 77, 84
8, 239024, Note_on_c, 3, 68, 0
8, 239024, Note_on_c, 3, 77, 0
8, 239040, Note_on_c, 3, 69, 84
8, 239040, Note_on_c, 3, 76, 84
8, 239144, Note_on_c, 3, 69, 0
8, 239144, Note_on_c, 3, 76, 0
8, 239160, Note_on_c, 3, 76, 84
8, 239160, Note_on_c, 3, 69, 84
8, 239264, Note_on_c, 3, 76, 0
8, 239264, Note_on_c, 3, 69, 0
8, 239280, Note_on_c, 3, 68, 92
8, 239280, Note_on_c, 3, 77, 92
8, 239384, Note_on_c, 3, 68, 0
8, 239384, Note_on_c, 3, 77, 0
8, 239400, Note_on_c, 3, 68, 84
8, 239400, Note_on_c, 3, 77, 84
8, 239504, Note_on_c, 3, 68, 0
8, 239504, Note_on_c, 3, 77, 0
8, 239520, Note_on_c, 3, 69, 84
8, 239520, Note_on_c, 3, 76, 84
8, 239624, Note_on_c, 3, 69, 0
8, 239624, Note_on_c, 3, 76, 0
8, 239640, Note_on_c, 3, 69, 84
8, 239640, Note_on_c, 3, 76, 84
8, 239744, Note_on_c, 3, 69, 0
8, 239744, Note_on_c, 3, 76, 0
8, 239760, Note_on_c, 3, 77, 92
8, 239760, Note_on_c, 3, 68, 92
8, 239864, Note_on_c, 3, 77, 0
8, 239864, Note_on_c, 3, 68, 0
8, 239880, Note_on_c, 3, 68, 84
8, 239880, Note_on_c, 3, 77, 84
8, 239984, Note_on_c, 3, 68, 0
8, 239984, Note_on_c, 3, 77, 0
8, 240000, Note_on_c, 3, 76, 84
8, 240000, Note_on_c, 3, 69, 84
8, 240104, Note_on_c, 3, 76, 0
8, 240104, Note_on_c, 3, 69, 0
8, 240120, Note_on_c, 3, 73, 84
8, 240120, Note_on_c, 3, 76, 84
8, 240224, Note_on_c, 3, 73, 0
8, 240224, Note_on_c, 3, 76, 0
8, 240240, Note_on_c, 3, 73, 84
8, 240240, Note_on_c, 3, 76, 84
8, 240344, Note_on_c, 3, 73, 0
8, 240344, Note_on_c, 3, 76, 0
8, 240360, Note_on_c, 3, 73, 84
8, 240360, Note_on_c, 3, 76, 84
8, 240464, Note_on_c, 3, 73, 0
8, 240464, Note_on_c, 3, 76, 0
8, 240480, Note_on_c, 3, 73, 84
8, 240480, Note_on_c, 3, 76, 84
8, 240584, Note_on_c, 3, 73, 0
8, 240584, Note_on_c, 3, 76, 0
8, 240600, Note_on_c, 3, 81, 84
8, 240600, Note_on_c, 3, 69, 84
8, 240651, Note_on_c, 3, 81, 0
8, 240651, Note_on_c, 3, 69, 0
8, 240660, Note_on_c, 3, 69, 84
8, 240660, Note_on_c, 3, 81, 84
8, 240711, Note_on_c, 3, 69, 0
8, 240711, Note_on_c, 3, 81, 0
8, 240720, Note_on_c, 3, 69, 84
8, 240720, Note_on_c, 3, 81, 84
8, 240839, Note_on_c, 3, 69, 0
8, 240839, Note_on_c, 3, 81, 0
8, 241560, Note_on_c, 3, 76, 84
8, 241560, Note_on_c, 3, 79, 84
8, 241611, Note_on_c, 3, 76, 0
8, 241611, Note_on_c, 3, 79, 0
8, 241620, Note_on_c, 3, 79, 84
8, 241620, Note_on_c, 3, 76, 84
8, 241671, Note_on_c, 3, 79, 0
8, 241671, Note_on_c, 3, 76, 0
8, 241680, Note_on_c, 3, 76, 84
8, 241680, Note_on_c, 3, 79, 84
8, 241799, Note_on_c, 3, 76, 0
8, 241799, Note_on_c, 3, 79, 0
8, 242520, Note_on_c, 3, 79, 84
8, 242520, Note_on_c, 3, 76, 84
8, 242571, Note_on_c, 3, 79, 0
8, 242571, Note_on_c, 3, 76, 0
8, 242580, Note_on_c, 3, 76, 84
8, 242580, Note_on_c, 3, 79, 84
8, 242631, Note_on_c, 3, 76, 0
8, 242631, Note_on_c, 3, 79, 0
8, 242640, Note_on_c, 3, 76, 84
8, 242640, Note_on_c, 3, 79, 84
8, 242759, Note_on_c, 3, 76, 0
8, 242759, Note_on_c, 3, 79, 0
8, 243000, Note_on_c, 3, 79, 84
8, 243000, Note_on_c, 3, 76, 84
8, 243051, Note_on_c, 3, 79, 0
8, 243051, Note_on_c, 3, 76, 0
8, 243060, Note_on_c, 3, 79, 84
8, 243060, Note_on_c, 3, 76, 84
8, 243111, Note_on_c, 3, 79, 0
8, 243111, Note_on_c, 3, 76, 0
8, 243120, Note_on_c, 3, 79, 84
8, 243120, Note_on_c, 3, 76, 84
8, 243239, Note_on_c, 3, 79, 0
8, 243239, Note_on_c, 3, 76, 0
8, 243480, Note_on_c, 3, 79, 84
8, 243480, Note_on_c, 3, 76, 84
8, 243531, Note_on_c, 3, 79, 0
8, 243531, Note_on_c, 3, 76, 0
8, 243540, Note_on_c, 3, 79, 84
8, 243540, Note_on_c, 3, 76, 84
8, 243591, Note_on_c, 3, 79, 0
8, 243591, Note_on_c, 3, 76, 0
8, 243600, Note_on_c, 3, 79, 84
8, 243600, Note_on_c, 3, 76, 84
8, 243719, Note_on_c, 3, 79, 0
8, 243719, Note_on_c, 3, 76, 0
8, 243960, Note_on_c, 3, 79, 84
8, 243960, Note_on_c, 3, 76, 84
8, 244011, Note_on_c, 3, 79, 0
8, 244011, Note_on_c, 3, 76, 0
8, 244020, Note_on_c, 3, 79, 84
8, 244020, Note_on_c, 3, 76, 84
8, 244071, Note_on_c, 3, 79, 0
8, 244071, Note_on_c, 3, 76, 0
8, 244080, Note_on_c, 3, 76, 84
8, 244080, Note_on_c, 3, 79, 84
8, 244199, Note_on_c, 3, 76, 0
8, 244199, Note_on_c, 3, 79, 0
8, 244320, Note_on_c, 3, 73, 84
8, 244320, Note_on_c, 3, 78, 84
8, 244439, Note_on_c, 3, 73, 0
8, 244439, Note_on_c, 3, 78, 0
8, 245880, Note_on_c, 3, 70, 76
8, 245939, Note_on_c, 3, 70, 0
8, 245940, Note_on_c, 3, 71, 76
8, 245999, Note_on_c, 3, 71, 0
8, 246000, Note_on_c, 3, 74, 76
8, 246000, Note_on_c, 3, 70, 76
8, 246059, Note_on_c, 3, 74, 0
8, 246060, Note_on_c, 3, 73, 76
8, 246119, Note_on_c, 3, 73, 0
8, 246120, Note_on_c, 3, 71, 76
8, 246179, Note_on_c, 3, 71, 0
8, 246180, Note_on_c, 3, 73, 76
8, 246231, Note_on_c, 3, 73, 0
8, 246239, Note_on_c, 3, 70, 0
8, 246240, Note_on_c, 3, 71, 76
8, 246240, Note_on_c, 3, 74, 76
8, 246359, Note_on_c, 3, 71, 0
8, 246359, Note_on_c, 3, 74, 0
8, 247800, Note_on_c, 3, 70, 76
8, 247859, Note_on_c, 3, 70, 0
8, 247860, Note_on_c, 3, 71, 76
8, 247919, Note_on_c, 3, 71, 0
8, 247920, Note_on_c, 3, 74, 76
8, 247920, Note_on_c, 3, 70, 76
8, 247979, Note_on_c, 3, 74, 0
8, 247980, Note_on_c, 3, 73, 76
8, 248039, Note_on_c, 3, 73, 0
8, 248040, Note_on_c, 3, 71, 76
8, 248099, Note_on_c, 3, 71, 0
8, 248100, Note_on_c, 3, 73, 76
8, 248151, Note_on_c, 3, 73, 0
8, 248159, Note_on_c, 3, 70, 0
8, 248160, Note_on_c, 3, 74, 76
8, 248160, Note_on_c, 3, 71, 76
8, 248279, Note_on_c, 3, 74, 0
8, 248279, Note_on_c, 3, 71, 0
8, 248640, Note_on_c, 3, 76, 76
8, 248640, Note_on_c, 3, 64, 76
8, 250199, Note_on_c, 3, 76, 0
8, 250199, Note_on_c, 3, 64, 0
8, 250560, Note_on_c, 3, 64, 76
8, 250560, Note_on_c, 3, 76, 76
8, 251504, Note_on_c, 3, 64, 0
8, 251504, Note_on_c, 3, 76, 0
8, 251520, Note_on_c, 3, 69, 76
8, 251520, Note_on_c, 3, 81, 76
8, 252464, Note_on_c, 3, 69, 0
8, 252464, Note_on_c, 3, 81, 0
8, 252480, Note_on_c, 3, 74, 76
8, 255119, Note_on_c, 3, 74, 0
8, 265440, Note_on_c, 3, 69, 78
8, 265440, Note_on_c, 3, 73, 78
8, 266384, Note_on_c, 3, 69, 0
8, 266384, Note_on_c, 3, 73, 0
8, 266400, Note_on_c, 3, 74, 79
8, 266400, Note_on_c, 3, 71, 79
8, 267344, Note_on_c, 3, 74, 0
8, 267344, Note_on_c, 3, 71, 0
8, 267360, Note_on_c, 3, 73, 80
8, 267360, Note_on_c, 3, 76, 80
8, 267599, Note_on_c, 3, 73, 0
8, 267599, Note_on_c, 3, 76, 0
8, 267600, Note_on_c, 3, 64, 80
8, 267600, Note_on_c, 3, 61, 80
8, 267839, Note_on_c, 3, 64, 0
8, 267839, Note_on_c, 3, 61, 0
8, 267840, Note_on_c, 3, 66, 80
8, 267840, Note_on_c, 3, 62, 80
8, 268319, Note_on_c, 3, 66, 0
8, 268319, Note_on_c, 3, 62, 0
8, 268320, Note_on_c, 3, 64, 81
8, 268320, Note_on_c, 3, 68, 81
8, 268799, Note_on_c, 3, 64, 0
8, 268799, Note_on_c, 3, 68, 0
8, 268800, Note_on_c, 3, 69, 81
8, 268800, Note_on_c, 3, 66, 81
8, 269279, Note_on_c, 3, 69, 0
8, 269279, Note_on_c, 3, 66, 0
8, 269280, Note_on_c, 3, 71, 82
8, 269280, Note_on_c, 3, 68, 82
8, 269759, Note_on_c, 3, 71, 0
8, 269759, Note_on_c, 3, 68, 0
8, 269760, Note_on_c, 3, 73, 82
8, 269760, Note_on_c, 3, 69, 82
8, 270239, Note_on_c, 3, 73, 0
8, 270239, Note_on_c, 3, 69, 0
8, 270240, Note_on_c, 3, 74, 83
8, 270240, Note_on_c, 3, 71, 83
8, 271184, Note_on_c, 3, 74, 0
8, 271184, Note_on_c, 3, 71, 0
8, 271200, Note_on_c, 3, 69, 84
8, 271200, Note_on_c, 3, 73, 84
8, 271304, Note_on_c, 3, 69, 0
8, 271304, Note_on_c, 3, 73, 0
8, 271320, Note_on_c, 3, 69, 84
8, 271371, Note_on_c, 3, 69, 0
8, 271380, Note_on_c, 3, 69, 84
8, 271431, Note_on_c, 3, 69, 0
8, 271440, Note_on_c, 3, 69, 84
8, 271559, Note_on_c, 3, 69, 0
8, 271800, Note_on_c, 3, 69, 84
8, 271851, Note_on_c, 3, 69, 0
8, 271860, Note_on_c, 3, 69, 84
8, 271911, Note_on_c, 3, 69, 0
8, 271920, Note_on_c, 3, 69, 84
8, 272039, Note_on_c, 3, 69, 0
8, 272280, Note_on_c, 3, 71, 84
8, 272280, Note_on_c, 3, 74, 84
8, 272331, Note_on_c, 3, 71, 0
8, 272331, Note_on_c, 3, 74, 0
8, 272340, Note_on_c, 3, 74, 84
8, 272340, Note_on_c, 3, 71, 84
8, 272391, Note_on_c, 3, 74, 0
8, 272391, Note_on_c, 3, 71, 0
8, 272400, Note_on_c, 3, 74, 84
8, 272400, Note_on_c, 3, 71, 84
8, 272519, Note_on_c, 3, 74, 0
8, 272519, Note_on_c, 3, 71, 0
8, 272760, Note_on_c, 3, 71, 84
8, 272760, Note_on_c, 3, 74, 84
8, 272811, Note_on_c, 3, 71, 0
8, 272811, Note_on_c, 3, 74, 0
8, 272820, Note_on_c, 3, 71, 84
8, 272820, Note_on_c, 3, 74, 84
8, 272871, Note_on_c, 3, 71, 0
8, 272871, Note_on_c, 3, 74, 0
8, 272880, Note_on_c, 3, 74, 84
8, 272880, Note_on_c, 3, 71, 84
8, 272999, Note_on_c, 3, 74, 0
8, 272999, Note_on_c, 3, 71, 0
8, 273120, Note_on_c, 3, 73, 92
8, 273120, Note_on_c, 3, 76, 92
8, 273464, Note_on_c, 3, 73, 0
8, 273464, Note_on_c, 3, 76, 0
8, 273480, Note_on_c, 3, 74, 84
8, 273480, Note_on_c, 3, 71, 84
8, 273584, Note_on_c, 3, 74, 0
8, 273584, Note_on_c, 3, 71, 0
8, 273600, Note_on_c, 3, 69, 84
8, 273600, Note_on_c, 3, 73, 84
8, 273704, Note_on_c, 3, 69, 0
8, 273704, Note_on_c, 3, 73, 0
8, 273720, Note_on_c, 3, 73, 84
8, 273720, Note_on_c, 3, 76, 84
8, 273824, Note_on_c, 3, 73, 0
8, 273824, Note_on_c, 3, 76, 0
8, 273840, Note_on_c, 3, 74, 84
8, 273840, Note_on_c, 3, 71, 84
8, 273944, Note_on_c, 3, 74, 0
8, 273944, Note_on_c, 3, 71, 0
8, 273960, Note_on_c, 3, 69, 84
8, 273960, Note_on_c, 3, 73, 84
8, 274064, Note_on_c, 3, 69, 0
8, 274064, Note_on_c, 3, 73, 0
8, 274080, Note_on_c, 3, 74, 84
8, 274080, Note_on_c, 3, 71, 84
8, 274184, Note_on_c, 3, 74, 0
8, 274184, Note_on_c, 3, 71, 0
8, 274200, Note_on_c, 3, 69, 84
8, 274200, Note_on_c, 3, 73, 84
8, 274304, Note_on_c, 3, 69, 0
8, 274304, Note_on_c, 3, 73, 0
8, 274320, Note_on_c, 3, 68, 84
8, 274320, Note_on_c, 3, 71, 84
8, 274424, Note_on_c, 3, 68, 0
8, 274424, Note_on_c, 3, 71, 0
8, 274440, Note_on_c, 3, 78, 84
8, 274440, Note_on_c, 3, 74, 84
8, 274544, Note_on_c, 3, 78, 0
8, 274544, Note_on_c, 3, 74, 0
8, 274560, Note_on_c, 3, 76, 84
8, 274560, Note_on_c, 3, 73, 84
8, 274664, Note_on_c, 3, 76, 0
8, 274664, Note_on_c, 3, 73, 0
8, 274680, Note_on_c, 3, 74, 84
8, 274680, Note_on_c, 3, 71, 84
8, 274784, Note_on_c, 3, 74, 0
8, 274784, Note_on_c, 3, 71, 0
8, 274800, Note_on_c, 3, 69, 84
8, 274800, Note_on_c, 3, 73, 84
8, 274904, Note_on_c, 3, 69, 0
8, 274904, Note_on_c, 3, 73, 0
8, 274920, Note_on_c, 3, 71, 84
8, 274920, Note_on_c, 3, 68, 84
8, 275024, Note_on_c, 3, 71, 0
8, 275024, Note_on_c, 3, 68, 0
8, 275040, Note_on_c, 3, 73, 84
8, 275040, Note_on_c, 3, 69, 84
8, 275144, Note_on_c, 3, 73, 0
8, 275144, Note_on_c, 3, 69, 0
8, 275160, Note_on_c, 3, 81, 84
8, 275160, Note_on_c, 3, 69, 84
8, 275211, Note_on_c, 3, 81, 0
8, 275211, Note_on_c, 3, 69, 0
8, 275220, Note_on_c, 3, 81, 84
8, 275220, Note_on_c, 3, 69, 84
8, 275271, Note_on_c, 3, 81, 0
8, 275271, Note_on_c, 3, 69, 0
8, 275280, Note_on_c, 3, 81, 84
8, 275280, Note_on_c, 3, 69, 84
8, 275399, Note_on_c, 3, 81, 0
8, 275399, Note_on_c, 3, 69, 0
8, 275640, Note_on_c, 3, 81, 84
8, 275640, Note_on_c, 3, 69, 84
8, 275691, Note_on_c, 3, 81, 0
8, 275691, Note_on_c, 3, 69, 0
8, 275700, Note_on_c, 3, 81, 84
8, 275700, Note_on_c, 3, 69, 84
8, 275751, Note_on_c, 3, 81, 0
8, 275751, Note_on_c, 3, 69, 0
8, 275760, Note_on_c, 3, 81, 84
8, 275760, Note_on_c, 3, 69, 84
8, 275879, Note_on_c, 3, 81, 0
8, 275879, Note_on_c, 3, 69, 0
8, 276120, Note_on_c, 3, 71, 84
8, 276120, Note_on_c, 3, 74, 84
8, 276171, Note_on_c, 3, 71, 0
8, 276171, Note_on_c, 3, 74, 0
8, 276180, Note_on_c, 3, 71, 84
8, 276180, Note_on_c, 3, 74, 84
8, 276231, Note_on_c, 3, 71, 0
8, 276231, Note_on_c, 3, 74, 0
8, 276240, Note_on_c, 3, 74, 84
8, 276240, Note_on_c, 3, 71, 84
8, 276359, Note_on_c, 3, 74, 0
8, 276359, Note_on_c, 3, 71, 0
8, 276600, Note_on_c, 3, 71, 84
8, 276600, Note_on_c, 3, 74, 84
8, 276651, Note_on_c, 3, 71, 0
8, 276651, Note_on_c, 3, 74, 0
8, 276660, Note_on_c, 3, 71, 84
8, 276660, Note_on_c, 3, 74, 84
8, 276711, Note_on_c, 3, 71, 0
8, 276711, Note_on_c, 3, 74, 0
8, 276720, Note_on_c, 3, 71, 84
8, 276720, Note_on_c, 3, 74, 84
8, 276839, Note_on_c, 3, 71, 0
8, 276839, Note_on_c, 3, 74, 0
8, 276960, Note_on_c, 3, 69, 84
8, 276960, Note_on_c, 3, 73, 84
8, 277079, Note_on_c, 3, 69, 0
8, 277079, Note_on_c, 3, 73, 0
8, 277200, Note_on_c, 3, 73, 84
8, 277200, Note_on_c, 3, 69, 84
8, 277319, Note_on_c, 3, 73, 0
8, 277319, Note_on_c, 3, 69, 0
8, 277440, Note_on_c, 3, 69, 84
8, 277440, Note_on_c, 3, 73, 84
8, 277559, Note_on_c, 3, 69, 0
8, 277559, Note_on_c, 3, 73, 0
8, 277680, Note_on_c, 3, 69, 84
8, 277680, Note_on_c, 3, 73, 84
8, 277799, Note_on_c, 3, 69, 0
8, 277799, Note_on_c, 3, 73, 0
8, 277920, Note_on_c, 3, 68, 84
8, 277920, Note_on_c, 3, 71, 84
8, 278039, Note_on_c, 3, 68, 0
8, 278039, Note_on_c, 3, 71, 0
8, 278160, Note_on_c, 3, 71, 84
8, 278160, Note_on_c, 3, 68, 84
8, 278279, Note_on_c, 3, 71, 0
8, 278279, Note_on_c, 3, 68, 0
8, 278400, Note_on_c, 3, 71, 84
8, 278400, Note_on_c, 3, 68, 84
8, 278519, Note_on_c, 3, 71, 0
8, 278519, Note_on_c, 3, 68, 0
8, 278640, Note_on_c, 3, 68, 84
8, 278640, Note_on_c, 3, 71, 84
8, 278759, Note_on_c, 3, 68, 0
8, 278759, Note_on_c, 3, 71, 0
8, 278880, Note_on_c, 3, 73, 84
8, 278880, Note_on_c, 3, 69, 84
8, 278999, Note_on_c, 3, 73, 0
8, 278999, Note_on_c, 3, 69, 0
8, 279120, Note_on_c, 3, 73, 84
8, 279120, Note_on_c, 3, 69, 84
8, 279239, Note_on_c, 3, 73, 0
8, 279239, Note_on_c, 3, 69, 0
8, 279360, Note_on_c, 3, 73, 84
8, 279360, Note_on_c, 3, 69, 84
8, 279479, Note_on_c, 3, 73, 0
8, 279479, Note_on_c, 3, 69, 0
8, 279600, Note_on_c, 3, 69, 84
8, 279600, Note_on_c, 3, 73, 84
8, 279719, Note_on_c, 3, 69, 0
8, 279719, Note_on_c, 3, 73, 0
8, 279840, Note_on_c, 3, 71, 84
8, 279840, Note_on_c, 3, 74, 84
8, 279959, Note_on_c, 3, 71, 0
8, 279959, Note_on_c, 3, 74, 0
8, 280080, Note_on_c, 3, 74, 84
8, 280080, Note_on_c, 3, 71, 84
8, 280199, Note_on_c, 3, 74, 0
8, 280199, Note_on_c, 3, 71, 0
8, 280320, Note_on_c, 3, 74, 84
8, 280320, Note_on_c, 3, 71, 84
8, 280439, Note_on_c, 3, 74, 0
8, 280439, Note_on_c, 3, 71, 0
8, 280560, Note_on_c, 3, 71, 84
8, 280560, Note_on_c, 3, 74, 84
8, 280679, Note_on_c, 3, 71, 0
8, 280679, Note_on_c, 3, 74, 0
8, 280800, Note_on_c, 3, 73, 84
8, 280800, Note_on_c, 3, 76, 84
8, 280919, Note_on_c, 3, 73, 0
8, 280919, Note_on_c, 3, 76, 0
8, 281040, Note_on_c, 3, 73, 84
8, 281040, Note_on_c, 3, 76, 84
8, 281159, Note_on_c, 3, 73, 0
8, 281159, Note_on_c, 3, 76, 0
8, 281280, Note_on_c, 3, 73, 84
8, 281280, Note_on_c, 3, 76, 84
8, 281399, Note_on_c, 3, 73, 0
8, 281399, Note_on_c, 3, 76, 0
8, 281520, Note_on_c, 3, 73, 84
8, 281520, Note_on_c, 3, 76, 84
8, 281639, Note_on_c, 3, 73, 0
8, 281639, Note_on_c, 3, 76, 0
8, 281760, Note_on_c, 3, 79, 92
8, 282704, Note_on_c, 3, 79, 0
8, 282720, Note_on_c, 3, 78, 92
8, 282824, Note_on_c, 3, 78, 0
8, 282840, Note_on_c, 3, 76, 92
8, 282944, Note_on_c, 3, 76, 0
8, 282960, Note_on_c, 3, 74, 92
8, 283064, Note_on_c, 3, 74, 0
8, 283080, Note_on_c, 3, 73, 92
8, 283184, Note_on_c, 3, 73, 0
8, 283200, Note_on_c, 3, 71, 92
8, 283304, Note_on_c, 3, 71, 0
8, 283320, Note_on_c, 3, 69, 92
8, 283424, Note_on_c, 3, 69, 0
8, 283440, Note_on_c, 3, 67, 92
8, 283544, Note_on_c, 3, 67, 0
8, 283560, Note_on_c, 3, 66, 92
8, 283664, Note_on_c, 3, 66, 0
8, 283680, Note_on_c, 3, 76, 92
8, 283680, Note_on_c, 3, 64, 92
8, 284129, Note_on_c, 3, 76, 0
8, 284129, Note_on_c, 3, 64, 0
8, 284160, Note_on_c, 3, 66, 92
8, 284160, Note_on_c, 3, 78, 92
8, 284609, Note_on_c, 3, 66, 0
8, 284609, Note_on_c, 3, 78, 0
8, 284640, Note_on_c, 3, 69, 92
8, 284640, Note_on_c, 3, 73, 92
8, 285089, Note_on_c, 3, 69, 0
8, 285089, Note_on_c, 3, 73, 0
8, 285120, Note_on_c, 3, 68, 92
8, 285120, Note_on_c, 3, 71, 92
8, 285569, Note_on_c, 3, 68, 0
8, 285569, Note_on_c, 3, 71, 0
8, 285600, Note_on_c, 3, 71, 52
8, 285704, Note_on_c, 3, 71, 0
8, 285720, Note_on_c, 3, 69, 52
8, 285824, Note_on_c, 3, 69, 0
8, 285840, Note_on_c, 3, 68, 52
8, 285944, Note_on_c, 3, 68, 0
8, 285960, Note_on_c, 3, 66, 52
8, 286064, Note_on_c, 3, 66, 0
8, 286080, Note_on_c, 3, 64, 52
8, 286184, Note_on_c, 3, 64, 0
8, 286200, Note_on_c, 3, 62, 53
8, 286304, Note_on_c, 3, 62, 0
8, 286320, Note_on_c, 3, 61, 54
8, 286424, Note_on_c, 3, 61, 0
8, 286440, Note_on_c, 3, 59, 56
8, 286544, Note_on_c, 3, 59, 0
8, 286560, Note_on_c, 3, 61, 57
8, 286664, Note_on_c, 3, 61, 0
8, 286680, Note_on_c, 3, 62, 59
8, 286784, Note_on_c, 3, 62, 0
8, 286800, Note_on_c, 3, 64, 60
8, 286904, Note_on_c, 3, 64, 0
8, 286920, Note_on_c, 3, 66, 62
8, 287024, Note_on_c, 3, 66, 0
8, 287040, Note_on_c, 3, 68, 63
8, 287144, Note_on_c, 3, 68, 0
8, 287160, Note_on_c, 3, 69, 64
8, 287264, Note_on_c, 3, 69, 0
8, 287280, Note_on_c, 3, 71, 66
8, 287384, Note_on_c, 3, 71, 0
8, 287400, Note_on_c, 3, 73, 67
8, 287504, Note_on_c, 3, 73, 0
8, 287520, Note_on_c, 3, 74, 69
8, 287624, Note_on_c, 3, 74, 0
8, 287640, Note_on_c, 3, 73, 70
8, 287744, Note_on_c, 3, 73, 0
8, 287760, Note_on_c, 3, 71, 72
8, 287864, Note_on_c, 3, 71, 0
8, 287880, Note_on_c, 3, 69, 73
8, 287984, Note_on_c, 3, 69, 0
8, 288000, Note_on_c, 3, 68, 74
8, 288104, Note_on_c, 3, 68, 0
8, 288120, Note_on_c, 3, 66, 76
8, 288224, Note_on_c, 3, 66, 0
8, 288240, Note_on_c, 3, 64, 77
8, 288344, Note_on_c, 3, 64, 0
8, 288360, Note_on_c, 3, 62, 79
8, 288464, Note_on_c, 3, 62, 0
8, 288480, Note_on_c, 3, 64, 80
8, 288584, Note_on_c, 3, 64, 0
8, 288600, Note_on_c, 3, 66, 82
8, 288704, Note_on_c, 3, 66, 0
8, 288720, Note_on_c, 3, 68, 83
8, 288824, Note_on_c, 3, 68, 0
8, 288840, Note_on_c, 3, 69, 84
8, 288944, Note_on_c, 3, 69, 0
8, 288960, Note_on_c, 3, 71, 86
8, 289064, Note_on_c, 3, 71, 0
8, 289080, Note_on_c, 3, 73, 87
8, 289184, Note_on_c, 3, 73, 0
8, 289200, Note_on_c, 3, 74, 89
8, 289304, Note_on_c, 3, 74, 0
8, 289320, Note_on_c, 3, 76, 90
8, 289424, Note_on_c, 3, 76, 0
8, 289440, Note_on_c, 3, 79, 92
8, 290384, Note_on_c, 3, 79, 0
8, 290400, Note_on_c, 3, 78, 92
8, 290504, Note_on_c, 3, 78, 0
8, 290520, Note_on_c, 3, 76, 92
8, 290624, Note_on_c, 3, 76, 0
8, 290640, Note_on_c, 3, 74, 92
8, 290744, Note_on_c, 3, 74, 0
8, 290760, Note_on_c, 3, 73, 92
8, 290864, Note_on_c, 3, 73, 0
8, 290880, Note_on_c, 3, 71, 92
8, 290984, Note_on_c, 3, 71, 0
8, 291000, Note_on_c, 3, 69, 92
8, 291104, Note_on_c, 3, 69, 0
8, 291120, Note_on_c, 3, 67, 92
8, 291224, Note_on_c, 3, 67, 0
8, 291240, Note_on_c, 3, 66, 92
8, 291344, Note_on_c, 3, 66, 0
8, 291360, Note_on_c, 3, 64, 92
8, 291360, Note_on_c, 3, 76, 92
8, 291809, Note_on_c, 3, 64, 0
8, 291809, Note_on_c, 3, 76, 0
8, 291840, Note_on_c, 3, 78, 92
8, 291840, Note_on_c, 3, 66, 92
8, 292289, Note_on_c, 3, 78, 0
8, 292289, Note_on_c, 3, 66, 0
8, 292320, Note_on_c, 3, 73, 92
8, 292320, Note_on_c, 3, 69, 92
8, 292769, Note_on_c, 3, 73, 0
8, 292769, Note_on_c, 3, 69, 0
8, 292800, Note_on_c, 3, 71, 92
8, 292800, Note_on_c, 3, 68, 92
8, 293249, Note_on_c, 3, 71, 0
8, 293249, Note_on_c, 3, 68, 0
8, 293280, Note_on_c, 3, 69, 84
8, 293399, Note_on_c, 3, 69, 0
8, 293760, Note_on_c, 3, 76, 92
8, 293999, Note_on_c, 3, 76, 0
8, 294000, Note_on_c, 3, 71, 84
8, 294000, Note_on_c, 3, 74, 84
8, 294239, Note_on_c, 3, 71, 0
8, 294239, Note_on_c, 3, 74, 0
8, 294240, Note_on_c, 3, 69, 84
8, 294240, Note_on_c, 3, 73, 84
8, 294479, Note_on_c, 3, 69, 0
8, 294479, Note_on_c, 3, 73, 0
8, 294480, Note_on_c, 3, 71, 84
8, 294480, Note_on_c, 3, 80, 84
8, 294719, Note_on_c, 3, 71, 0
8, 294719, Note_on_c, 3, 80, 0
8, 294720, Note_on_c, 3, 81, 84
8, 294720, Note_on_c, 3, 73, 84
8, 294959, Note_on_c, 3, 81, 0
8, 294959, Note_on_c, 3, 73, 0
8, 294960, Note_on_c, 3, 71, 84
8, 294960, Note_on_c, 3, 80, 84
8, 295199, Note_on_c, 3, 71, 0
8, 295199, Note_on_c, 3, 80, 0
8, 295200, Note_on_c, 3, 73, 84
8, 295200, Note_on_c, 3, 81, 84
8, 295319, Note_on_c, 3, 73, 0
8, 295319, Note_on_c, 3, 81, 0
8, 295680, Note_on_c, 3, 76, 92
8, 295919, Note_on_c, 3, 76, 0
8, 295920, Note_on_c, 3, 71, 84
8, 295920, Note_on_c, 3, 74, 84
8, 296159, Note_on_c, 3, 71, 0
8, 296159, Note_on_c, 3, 74, 0
8, 296160, Note_on_c, 3, 69, 84
8, 296160, Note_on_c, 3, 73, 84
8, 296399, Note_on_c, 3, 69, 0
8, 296399, Note_on_c, 3, 73, 0
8, 296400, Note_on_c, 3, 80, 84
8, 296400, Note_on_c, 3, 71, 84
8, 296639, Note_on_c, 3, 80, 0
8, 296639, Note_on_c, 3, 71, 0
8, 296640, Note_on_c, 3, 73, 84
8, 296640, Note_on_c, 3, 81, 84
8, 296879, Note_on_c, 3, 73, 0
8, 296879, Note_on_c, 3, 81, 0
8, 296880, Note_on_c, 3, 80, 84
8, 296880, Note_on_c, 3, 71, 84
8, 297104, Note_on_c, 3, 80, 0
8, 297104, Note_on_c, 3, 71, 0
8, 297120, Note_on_c, 3, 80, 84
8, 297120, Note_on_c, 3, 71, 84
8, 297224, Note_on_c, 3, 80, 0
8, 297224, Note_on_c, 3, 71, 0
8, 297240, Note_on_c, 3, 80, 84
8, 297240, Note_on_c, 3, 71, 84
8, 297344, Note_on_c, 3, 80, 0
8, 297344, Note_on_c, 3, 71, 0
8, 297360, Note_on_c, 3, 80, 92
8, 297360, Note_on_c, 3, 71, 92
8, 297464, Note_on_c, 3, 80, 0
8, 297464, Note_on_c, 3, 71, 0
8, 297480, Note_on_c, 3, 71, 84
8, 297480, Note_on_c, 3, 80, 84
8, 297584, Note_on_c, 3, 71, 0
8, 297584, Note_on_c, 3, 80, 0
8, 297600, Note_on_c, 3, 71, 92
8, 297600, Note_on_c, 3, 80, 92
8, 297704, Note_on_c, 3, 71, 0
8, 297704, Note_on_c, 3, 80, 0
8, 297720, Note_on_c, 3, 71, 84
8, 297720, Note_on_c, 3, 80, 84
8, 297824, Note_on_c, 3, 71, 0
8, 297824, Note_on_c, 3, 80, 0
8, 297840, Note_on_c, 3, 71, 92
8, 297840, Note_on_c, 3, 80, 92
8, 297944, Note_on_c, 3, 71, 0
8, 297944, Note_on_c, 3, 80, 0
8, 297960, Note_on_c, 3, 71, 84
8, 297960, Note_on_c, 3, 80, 84
8, 298064, Note_on_c, 3, 71, 0
8, 298064, Note_on_c, 3, 80, 0
8, 298080, Note_on_c, 3, 71, 84
8, 298080, Note_on_c, 3, 80, 84
8, 298184, Note_on_c, 3, 71, 0
8, 298184, Note_on_c, 3, 80, 0
8, 298200, Note_on_c, 3, 71, 84
8, 298200, Note_on_c, 3, 80, 84
8, 298304, Note_on_c, 3, 71, 0
8, 298304, Note_on_c, 3, 80, 0
8, 298320, Note_on_c, 3, 71, 84
8, 298320, Note_on_c, 3, 80, 84
8, 298424, Note_on_c, 3, 71, 0
8, 298424, Note_on_c, 3, 80, 0
8, 298440, Note_on_c, 3, 71, 84
8, 298440, Note_on_c, 3, 80, 84
8, 298544, Note_on_c, 3, 71, 0
8, 298544, Note_on_c, 3, 80, 0
8, 298560, Note_on_c, 3, 80, 84
8, 298560, Note_on_c, 3, 71, 84
8, 298664, Note_on_c, 3, 80, 0
8, 298664, Note_on_c, 3, 71, 0
8, 298680, Note_on_c, 3, 80, 84
8, 298680, Note_on_c, 3, 71, 84
8, 298784, Note_on_c, 3, 80, 0
8, 298784, Note_on_c, 3, 71, 0
8, 298800, Note_on_c, 3, 71, 84
8, 298800, Note_on_c, 3, 80, 84
8, 298904, Note_on_c, 3, 71, 0
8, 298904, Note_on_c, 3, 80, 0
8, 298920, Note_on_c, 3, 71, 84
8, 298920, Note_on_c, 3, 80, 84
8, 299024, Note_on_c, 3, 71, 0
8, 299024, Note_on_c, 3, 80, 0
8, 299040, Note_on_c, 3, 73, 84
8, 299040, Note_on_c, 3, 81, 84
8, 299159, Note_on_c, 3, 73, 0
8, 299159, Note_on_c, 3, 81, 0
8, 299400, Note_on_c, 3, 81, 84
8, 299400, Note_on_c, 3, 73, 84
8, 299451, Note_on_c, 3, 81, 0
8, 299451, Note_on_c, 3, 73, 0
8, 299460, Note_on_c, 3, 73, 84
8, 299460, Note_on_c, 3, 81, 84
8, 299511, Note_on_c, 3, 73, 0
8, 299511, Note_on_c, 3, 81, 0
8, 299520, Note_on_c, 3, 73, 84
8, 299520, Note_on_c, 3, 81, 84
8, 299639, Note_on_c, 3, 73, 0
8, 299639, Note_on_c, 3, 81, 0
8, 299880, Note_on_c, 3, 73, 84
8, 299880, Note_on_c, 3, 81, 84
8, 299931, Note_on_c, 3, 73, 0
8, 299931, Note_on_c, 3, 81, 0
8, 299940, Note_on_c, 3, 81, 84
8, 299940, Note_on_c, 3, 73, 84
8, 299991, Note_on_c, 3, 81, 0
8, 299991, Note_on_c, 3, 73, 0
8, 300000, Note_on_c, 3, 73, 84
8, 300000, Note_on_c, 3, 81, 84
8, 300119, Note_on_c, 3, 73, 0
8, 300119, Note_on_c, 3, 81, 0
8, 300119, End_track
9, 0, Start_track
9, 0, Title_t, "Bassoon"
9, 0, MIDI_port, 0
9, 0, Program_c, 4, 70
9, 0, Control_c, 4, 7, 96
9, 0, Control_c, 4, 11, 127
9, 0, Control_c, 4, 10, 65
9, 120, Note_on_c, 4, 52, 84
9, 120, Note_on_c, 4, 64, 84
9, 171, Note_on_c, 4, 52, 0
9, 171, Note_on_c, 4, 64, 0
9, 180, Note_on_c, 4, 64, 84
9, 180, Note_on_c, 4, 52, 84
9, 231, Note_on_c, 4, 64, 0
9, 231, Note_on_c, 4, 52, 0
9, 240, Note_on_c, 4, 52, 84
9, 240, Note_on_c, 4, 64, 84
9, 359, Note_on_c, 4, 52, 0
9, 359, Note_on_c, 4, 64, 0
9, 1080, Note_on_c, 4, 62, 84
9, 1080, Note_on_c, 4, 59, 84
9, 1131, Note_on_c, 4, 62, 0
9, 1131, Note_on_c, 4, 59, 0
9, 1140, Note_on_c, 4, 59, 84
9, 1140, Note_on_c, 4, 62, 84
9, 1191, Note_on_c, 4, 59, 0
9, 1191, Note_on_c, 4, 62, 0
9, 1200, Note_on_c, 4, 62, 84
9, 1200, Note_on_c, 4, 59, 84
9, 1319, Note_on_c, 4, 62, 0
9, 1319, Note_on_c, 4, 59, 0
9, 1920, Note_on_c, 4, 59, 84
9, 1920, Note_on_c, 4, 56, 84
9, 2039, Note_on_c, 4, 59, 0
9, 2039, Note_on_c, 4, 56, 0
9, 2280, Note_on_c, 4, 59, 92
9, 2280, Note_on_c, 4, 56, 92
9, 2399, Note_on_c, 4, 59, 0
9, 2399, Note_on_c, 4, 56, 0
9, 2400, Note_on_c, 4, 61, 84
9, 2400, Note_on_c, 4, 57, 84
9, 2519, Note_on_c, 4, 61, 0
9, 2519, Note_on_c, 4, 57, 0
9, 2760, Note_on_c, 4, 61, 92
9, 2760, Note_on_c, 4, 57, 92
9, 2879, Note_on_c, 4, 61, 0
9, 2879, Note_on_c, 4, 57, 0
9, 2880, Note_on_c, 4, 56, 84
9, 2880, Note_on_c, 4, 59, 84
9, 2999, Note_on_c, 4, 56, 0
9, 2999, Note_on_c, 4, 59, 0
9, 3240, Note_on_c, 4, 59, 92
9, 3240, Note_on_c, 4, 56, 92
9, 3359, Note_on_c, 4, 59, 0
9, 3359, Note_on_c, 4, 56, 0
9, 3360, Note_on_c, 4, 57, 84
9, 3360, Note_on_c, 4, 61, 84
9, 3479, Note_on_c, 4, 57, 0
9, 3479, Note_on_c, 4, 61, 0
9, 3720, Note_on_c, 4, 57, 92
9, 3720, Note_on_c, 4, 61, 92
9, 3839, Note_on_c, 4, 57, 0
9, 3839, Note_on_c, 4, 61, 0
9, 3840, Note_on_c, 4, 59, 84
9, 3840, Note_on_c, 4, 56, 84
9, 3959, Note_on_c, 4, 59, 0
9, 3959, Note_on_c, 4, 56, 0
9, 4200, Note_on_c, 4, 56, 92
9, 4200, Note_on_c, 4, 59, 92
9, 4319, Note_on_c, 4, 56, 0
9, 4319, Note_on_c, 4, 59, 0
9, 4320, Note_on_c, 4, 57, 84
9, 4320, Note_on_c, 4, 61, 84
9, 4439, Note_on_c, 4, 57, 0
9, 4439, Note_on_c, 4, 61, 0
9, 4680, Note_on_c, 4, 57, 92
9, 4680, Note_on_c, 4, 61, 92
9, 4799, Note_on_c, 4, 57, 0
9, 4799, Note_on_c, 4, 61, 0
9, 4800, Note_on_c, 4, 56, 84
9, 4800, Note_on_c, 4, 59, 84
9, 4919, Note_on_c, 4, 56, 0
9, 4919, Note_on_c, 4, 59, 0
9, 5160, Note_on_c, 4, 59, 92
9, 5160, Note_on_c, 4, 56, 92
9, 5279, Note_on_c, 4, 59, 0
9, 5279, Note_on_c, 4, 56, 0
9, 5280, Note_on_c, 4, 57, 84
9, 5399, Note_on_c, 4, 57, 0
9, 5760, Note_on_c, 4, 59, 84
9, 5760, Note_on_c, 4, 56, 84
9, 5879, Note_on_c, 4, 59, 0
9, 5879, Note_on_c, 4, 56, 0
9, 6120, Note_on_c, 4, 59, 92
9, 6120, Note_on_c, 4, 56, 92
9, 6239, Note_on_c, 4, 59, 0
9, 6239, Note_on_c, 4, 56, 0
9, 6240, Note_on_c, 4, 61, 84
9, 6240, Note_on_c, 4, 57, 84
9, 6359, Note_on_c, 4, 61, 0
9, 6359, Note_on_c, 4, 57, 0
9, 6600, Note_on_c, 4, 57, 92
9, 6600, Note_on_c, 4, 61, 92
9, 6719, Note_on_c, 4, 57, 0
9, 6719, Note_on_c, 4, 61, 0
9, 6720, Note_on_c, 4, 59, 84
9, 6720, Note_on_c, 4, 56, 84
9, 6839, Note_on_c, 4, 59, 0
9, 6839, Note_on_c, 4, 56, 0
9, 7080, Note_on_c, 4, 56, 92
9, 7080, Note_on_c, 4, 59, 92
9, 7199, Note_on_c, 4, 56, 0
9, 7199, Note_on_c, 4, 59, 0
9, 7200, Note_on_c, 4, 61, 84
9, 7200, Note_on_c, 4, 57, 84
9, 7319, Note_on_c, 4, 61, 0
9, 7319, Note_on_c, 4, 57, 0
9, 7560, Note_on_c, 4, 57, 92
9, 7560, Note_on_c, 4, 61, 92
9, 7679, Note_on_c, 4, 57, 0
9, 7679, Note_on_c, 4, 61, 0
9, 7680, Note_on_c, 4, 59, 84
9, 7680, Note_on_c, 4, 56, 84
9, 7799, Note_on_c, 4, 59, 0
9, 7799, Note_on_c, 4, 56, 0
9, 8040, Note_on_c, 4, 59, 92
9, 8040, Note_on_c, 4, 56, 92
9, 8159, Note_on_c, 4, 59, 0
9, 8159, Note_on_c, 4, 56, 0
9, 8160, Note_on_c, 4, 61, 84
9, 8160, Note_on_c, 4, 57, 84
9, 8279, Note_on_c, 4, 61, 0
9, 8279, Note_on_c, 4, 57, 0
9, 8520, Note_on_c, 4, 57, 92
9, 8520, Note_on_c, 4, 61, 92
9, 8639, Note_on_c, 4, 57, 0
9, 8639, Note_on_c, 4, 61, 0
9, 8640, Note_on_c, 4, 59, 84
9, 8640, Note_on_c, 4, 56, 84
9, 8759, Note_on_c, 4, 59, 0
9, 8759, Note_on_c, 4, 56, 0
9, 9000, Note_on_c, 4, 56, 92
9, 9000, Note_on_c, 4, 59, 92
9, 9119, Note_on_c, 4, 56, 0
9, 9119, Note_on_c, 4, 59, 0
9, 9120, Note_on_c, 4, 57, 84
9, 9239, Note_on_c, 4, 57, 0
9, 9600, Note_on_c, 4, 66, 84
9, 9600, Note_on_c, 4, 62, 84
9, 9719, Note_on_c, 4, 66, 0
9, 9719, Note_on_c, 4, 62, 0
9, 9960, Note_on_c, 4, 66, 92
9, 9960, Note_on_c, 4, 62, 92
9, 10079, Note_on_c, 4, 66, 0
9, 10079, Note_on_c, 4, 62, 0
9, 10080, Note_on_c, 4, 61, 84
9, 10080, Note_on_c, 4, 64, 84
9, 10199, Note_on_c, 4, 61, 0
9, 10199, Note_on_c, 4, 64, 0
9, 10440, Note_on_c, 4, 61, 92
9, 10440, Note_on_c, 4, 64, 92
9, 10559, Note_on_c, 4, 61, 0
9, 10559, Note_on_c, 4, 64, 0
9, 10560, Note_on_c, 4, 62, 84
9, 10560, Note_on_c, 4, 66, 84
9, 10679, Note_on_c, 4, 62, 0
9, 10679, Note_on_c, 4, 66, 0
9, 10920, Note_on_c, 4, 66, 92
9, 10920, Note_on_c, 4, 62, 92
9, 11039, Note_on_c, 4, 66, 0
9, 11039, Note_on_c, 4, 62, 0
9, 11040, Note_on_c, 4, 61, 84
9, 11040, Note_on_c, 4, 66, 84
9, 11159, Note_on_c, 4, 61, 0
9, 11159, Note_on_c, 4, 66, 0
9, 11160, Note_on_c, 4, 65, 84
9, 11279, Note_on_c, 4, 65, 0
9, 11400, Note_on_c, 4, 61, 92
9, 11400, Note_on_c, 4, 64, 92
9, 11519, Note_on_c, 4, 61, 0
9, 11519, Note_on_c, 4, 64, 0
9, 11520, Note_on_c, 4, 57, 84
9, 11520, Note_on_c, 4, 63, 84
9, 11639, Note_on_c, 4, 57, 0
9, 11639, Note_on_c, 4, 63, 0
9, 11880, Note_on_c, 4, 59, 92
9, 11880, Note_on_c, 4, 62, 92
9, 11999, Note_on_c, 4, 59, 0
9, 11999, Note_on_c, 4, 62, 0
9, 12000, Note_on_c, 4, 57, 84
9, 12000, Note_on_c, 4, 61, 84
9, 12119, Note_on_c, 4, 57, 0
9, 12119, Note_on_c, 4, 61, 0
9, 12360, Note_on_c, 4, 57, 92
9, 12360, Note_on_c, 4, 61, 92
9, 12479, Note_on_c, 4, 57, 0
9, 12479, Note_on_c, 4, 61, 0
9, 12480, Note_on_c, 4, 56, 84
9, 12480, Note_on_c, 4, 59, 84
9, 12599, Note_on_c, 4, 56, 0
9, 12599, Note_on_c, 4, 59, 0
9, 12840, Note_on_c, 4, 59, 92
9, 12840, Note_on_c, 4, 56, 92
9, 12959, Note_on_c, 4, 59, 0
9, 12959, Note_on_c, 4, 56, 0
9, 12960, Note_on_c, 4, 57, 84
9, 13079, Note_on_c, 4, 57, 0
9, 13440, Note_on_c, 4, 62, 84
9, 13440, Note_on_c, 4, 66, 84
9, 13559, Note_on_c, 4, 62, 0
9, 13559, Note_on_c, 4, 66, 0
9, 13800, Note_on_c, 4, 62, 92
9, 13800, Note_on_c, 4, 66, 92
9, 13919, Note_on_c, 4, 62, 0
9, 13919, Note_on_c, 4, 66, 0
9, 13920, Note_on_c, 4, 61, 84
9, 13920, Note_on_c, 4, 64, 84
9, 14039, Note_on_c, 4, 61, 0
9, 14039, Note_on_c, 4, 64, 0
9, 14280, Note_on_c, 4, 64, 92
9, 14280, Note_on_c, 4, 61, 92
9, 14399, Note_on_c, 4, 64, 0
9, 14399, Note_on_c, 4, 61, 0
9, 14400, Note_on_c, 4, 66, 84
9, 14400, Note_on_c, 4, 62, 84
9, 14519, Note_on_c, 4, 66, 0
9, 14519, Note_on_c, 4, 62, 0
9, 14760, Note_on_c, 4, 62, 92
9, 14760, Note_on_c, 4, 66, 92
9, 14879, Note_on_c, 4, 62, 0
9, 14879, Note_on_c, 4, 66, 0
9, 14880, Note_on_c, 4, 61, 84
9, 14880, Note_on_c, 4, 66, 84
9, 14999, Note_on_c, 4, 61, 0
9, 14999, Note_on_c, 4, 66, 0
9, 15000, Note_on_c, 4, 65, 84
9, 15119, Note_on_c, 4, 65, 0
9, 15240, Note_on_c, 4, 64, 92
9, 15240, Note_on_c, 4, 61, 92
9, 15359, Note_on_c, 4, 64, 0
9, 15359, Note_on_c, 4, 61, 0
9, 15360, Note_on_c, 4, 63, 84
9, 15360, Note_on_c, 4, 57, 84
9, 15479, Note_on_c, 4, 63, 0
9, 15479, Note_on_c, 4, 57, 0
9, 15720, Note_on_c, 4, 62, 92
9, 15720, Note_on_c, 4, 59, 92
9, 15839, Note_on_c, 4, 62, 0
9, 15839, Note_on_c, 4, 59, 0
9, 15840, Note_on_c, 4, 57, 84
9, 15840, Note_on_c, 4, 61, 84
9, 15959, Note_on_c, 4, 57, 0
9, 15959, Note_on_c, 4, 61, 0
9, 16200, Note_on_c, 4, 57, 92
9, 16200, Note_on_c, 4, 61, 92
9, 16319, Note_on_c, 4, 57, 0
9, 16319, Note_on_c, 4, 61, 0
9, 16320, Note_on_c, 4, 59, 84
9, 16320, Note_on_c, 4, 56, 84
9, 16439, Note_on_c, 4, 59, 0
9, 16439, Note_on_c, 4, 56, 0
9, 16680, Note_on_c, 4, 56, 92
9, 16680, Note_on_c, 4, 59, 92
9, 16799, Note_on_c, 4, 56, 0
9, 16799, Note_on_c, 4, 59, 0
9, 16800, Note_on_c, 4, 57, 84
9, 16919, Note_on_c, 4, 57, 0
9, 17280, Note_on_c, 4, 57, 84
9, 17280, Note_on_c, 4, 45, 84
9, 17399, Note_on_c, 4, 57, 0
9, 17399, Note_on_c, 4, 45, 0
9, 17880, Note_on_c, 4, 59, 84
9, 17880, Note_on_c, 4, 56, 84
9, 17931, Note_on_c, 4, 59, 0
9, 17931, Note_on_c, 4, 56, 0
9, 17940, Note_on_c, 4, 59, 84
9, 17940, Note_on_c, 4, 56, 84
9, 17991, Note_on_c, 4, 59, 0
9, 17991, Note_on_c, 4, 56, 0
9, 18000, Note_on_c, 4, 56, 84
9, 18000, Note_on_c, 4, 59, 84
9, 18119, Note_on_c, 4, 56, 0
9, 18119, Note_on_c, 4, 59, 0
9, 18360, Note_on_c, 4, 56, 84
9, 18360, Note_on_c, 4, 59, 84
9, 18411, Note_on_c, 4, 56, 0
9, 18411, Note_on_c, 4, 59, 0
9, 18420, Note_on_c, 4, 56, 84
9, 18420, Note_on_c, 4, 59, 84
9, 18471, Note_on_c, 4, 56, 0
9, 18471, Note_on_c, 4, 59, 0
9, 18480, Note_on_c, 4, 56, 84
9, 18480, Note_on_c, 4, 59, 84
9, 18599, Note_on_c, 4, 56, 0
9, 18599, Note_on_c, 4, 59, 0
9, 18720, Note_on_c, 4, 61, 84
9, 18720, Note_on_c, 4, 64, 84
9, 19064, Note_on_c, 4, 61, 0
9, 19064, Note_on_c, 4, 64, 0
9, 19080, Note_on_c, 4, 59, 84
9, 19080, Note_on_c, 4, 62, 84
9, 19169, Note_on_c, 4, 59, 0
9, 19169, Note_on_c, 4, 62, 0
9, 19200, Note_on_c, 4, 61, 84
9, 19200, Note_on_c, 4, 57, 84
9, 19289, Note_on_c, 4, 61, 0
9, 19289, Note_on_c, 4, 57, 0
9, 19320, Note_on_c, 4, 64, 84
9, 19320, Note_on_c, 4, 61, 84
9, 19409, Note_on_c, 4, 64, 0
9, 19409, Note_on_c, 4, 61, 0
9, 19440, Note_on_c, 4, 59, 84
9, 19440, Note_on_c, 4, 62, 84
9, 19529, Note_on_c, 4, 59, 0
9, 19529, Note_on_c, 4, 62, 0
9, 19560, Note_on_c, 4, 61, 84
9, 19560, Note_on_c, 4, 57, 84
9, 19649, Note_on_c, 4, 61, 0
9, 19649, Note_on_c, 4, 57, 0
9, 19680, Note_on_c, 4, 59, 84
9, 19680, Note_on_c, 4, 62, 84
9, 19769, Note_on_c, 4, 59, 0
9, 19769, Note_on_c, 4, 62, 0
9, 19800, Note_on_c, 4, 57, 84
9, 19800, Note_on_c, 4, 61, 84
9, 19889, Note_on_c, 4, 57, 0
9, 19889, Note_on_c, 4, 61, 0
9, 19920, Note_on_c, 4, 56, 84
9, 19920, Note_on_c, 4, 59, 84
9, 20009, Note_on_c, 4, 56, 0
9, 20009, Note_on_c, 4, 59, 0
9, 20040, Note_on_c, 4, 66, 84
9, 20040, Note_on_c, 4, 62, 84
9, 20129, Note_on_c, 4, 66, 0
9, 20129, Note_on_c, 4, 62, 0
9, 20160, Note_on_c, 4, 61, 84
9, 20160, Note_on_c, 4, 64, 84
9, 20249, Note_on_c, 4, 61, 0
9, 20249, Note_on_c, 4, 64, 0
9, 20280, Note_on_c, 4, 59, 84
9, 20280, Note_on_c, 4, 62, 84
9, 20369, Note_on_c, 4, 59, 0
9, 20369, Note_on_c, 4, 62, 0
9, 20400, Note_on_c, 4, 57, 84
9, 20400, Note_on_c, 4, 61, 84
9, 20489, Note_on_c, 4, 57, 0
9, 20489, Note_on_c, 4, 61, 0
9, 20520, Note_on_c, 4, 59, 84
9, 20520, Note_on_c, 4, 56, 84
9, 20609, Note_on_c, 4, 59, 0
9, 20609, Note_on_c, 4, 56, 0
9, 20640, Note_on_c, 4, 57, 84
9, 20759, Note_on_c, 4, 57, 0
9, 21120, Note_on_c, 4, 45, 84
9, 21120, Note_on_c, 4, 57, 84
9, 21239, Note_on_c, 4, 45, 0
9, 21239, Note_on_c, 4, 57, 0
9, 21720, Note_on_c, 4, 56, 84
9, 21720, Note_on_c, 4, 59, 84
9, 21771, Note_on_c, 4, 56, 0
9, 21771, Note_on_c, 4, 59, 0
9, 21780, Note_on_c, 4, 59, 84
9, 21780, Note_on_c, 4, 56, 84
9, 21831, Note_on_c, 4, 59, 0
9, 21831, Note_on_c, 4, 56, 0
9, 21840, Note_on_c, 4, 56, 84
9, 21840, Note_on_c, 4, 59, 84
9, 21959, Note_on_c, 4, 56, 0
9, 21959, Note_on_c, 4, 59, 0
9, 22200, Note_on_c, 4, 56, 84
9, 22200, Note_on_c, 4, 59, 84
9, 22251, Note_on_c, 4, 56, 0
9, 22251, Note_on_c, 4, 59, 0
9, 22260, Note_on_c, 4, 56, 84
9, 22260, Note_on_c, 4, 59, 84
9, 22311, Note_on_c, 4, 56, 0
9, 22311, Note_on_c, 4, 59, 0
9, 22320, Note_on_c, 4, 59, 84
9, 22320, Note_on_c, 4, 56, 84
9, 22439, Note_on_c, 4, 59, 0
9, 22439, Note_on_c, 4, 56, 0
9, 22560, Note_on_c, 4, 57, 84
9, 22560, Note_on_c, 4, 61, 84
9, 22679, Note_on_c, 4, 57, 0
9, 22679, Note_on_c, 4, 61, 0
9, 22800, Note_on_c, 4, 61, 84
9, 22800, Note_on_c, 4, 57, 84
9, 22919, Note_on_c, 4, 61, 0
9, 22919, Note_on_c, 4, 57, 0
9, 23040, Note_on_c, 4, 61, 84
9, 23040, Note_on_c, 4, 57, 84
9, 23159, Note_on_c, 4, 61, 0
9, 23159, Note_on_c, 4, 57, 0
9, 23280, Note_on_c, 4, 57, 84
9, 23280, Note_on_c, 4, 61, 84
9, 23399, Note_on_c, 4, 57, 0
9, 23399, Note_on_c, 4, 61, 0
9, 23520, Note_on_c, 4, 62, 84
9, 23520, Note_on_c, 4, 59, 84
9, 23639, Note_on_c, 4, 62, 0
9, 23639, Note_on_c, 4, 59, 0
9, 23760, Note_on_c, 4, 59, 84
9, 23760, Note_on_c, 4, 62, 84
9, 23879, Note_on_c, 4, 59, 0
9, 23879, Note_on_c, 4, 62, 0
9, 24000, Note_on_c, 4, 62, 84
9, 24000, Note_on_c, 4, 59, 84
9, 24119, Note_on_c, 4, 62, 0
9, 24119, Note_on_c, 4, 59, 0
9, 24240, Note_on_c, 4, 62, 84
9, 24240, Note_on_c, 4, 59, 84
9, 24359, Note_on_c, 4, 62, 0
9, 24359, Note_on_c, 4, 59, 0
9, 24480, Note_on_c, 4, 57, 84
9, 24480, Note_on_c, 4, 61, 84
9, 24599, Note_on_c, 4, 57, 0
9, 24599, Note_on_c, 4, 61, 0
9, 26880, Note_on_c, 4, 64, 84
9, 28079, Note_on_c, 4, 64, 0
9, 28080, Note_on_c, 4, 65, 84
9, 28319, Note_on_c, 4, 65, 0
9, 28320, Note_on_c, 4, 66, 84
9, 28439, Note_on_c, 4, 66, 0
9, 28800, Note_on_c, 4, 49, 84
9, 28800, Note_on_c, 4, 61, 84
9, 30359, Note_on_c, 4, 49, 0
9, 30359, Note_on_c, 4, 61, 0
9, 30720, Note_on_c, 4, 61, 84
9, 30720, Note_on_c, 4, 49, 84
9, 31904, Note_on_c, 4, 61, 0
9, 31904, Note_on_c, 4, 49, 0
9, 31920, Note_on_c, 4, 49, 84
9, 31920, Note_on_c, 4, 65, 84
9, 32159, Note_on_c, 4, 65, 0
9, 32160, Note_on_c, 4, 66, 84
9, 32279, Note_on_c, 4, 49, 0
9, 32279, Note_on_c, 4, 66, 0
9, 32400, Note_on_c, 4, 54, 84
9, 32400, Note_on_c, 4, 57, 84
9, 32519, Note_on_c, 4, 54, 0
9, 32519, Note_on_c, 4, 57, 0
9, 32640, Note_on_c, 4, 54, 84
9, 32640, Note_on_c, 4, 57, 84
9, 32759, Note_on_c, 4, 54, 0
9, 32759, Note_on_c, 4, 57, 0
9, 32880, Note_on_c, 4, 54, 84
9, 32880, Note_on_c, 4, 57, 84
9, 32999, Note_on_c, 4, 54, 0
9, 32999, Note_on_c, 4, 57, 0
9, 33120, Note_on_c, 4, 59, 84
9, 33120, Note_on_c, 4, 56, 84
9, 33239, Note_on_c, 4, 59, 0
9, 33239, Note_on_c, 4, 56, 0
9, 33360, Note_on_c, 4, 59, 84
9, 33360, Note_on_c, 4, 56, 84
9, 33479, Note_on_c, 4, 59, 0
9, 33479, Note_on_c, 4, 56, 0
9, 33600, Note_on_c, 4, 56, 84
9, 33600, Note_on_c, 4, 59, 84
9, 33719, Note_on_c, 4, 56, 0
9, 33719, Note_on_c, 4, 59, 0
9, 33840, Note_on_c, 4, 59, 84
9, 33840, Note_on_c, 4, 56, 84
9, 33959, Note_on_c, 4, 59, 0
9, 33959, Note_on_c, 4, 56, 0
9, 34080, Note_on_c, 4, 57, 84
9, 34080, Note_on_c, 4, 54, 84
9, 34199, Note_on_c, 4, 57, 0
9, 34199, Note_on_c, 4, 54, 0
9, 34320, Note_on_c, 4, 54, 84
9, 34320, Note_on_c, 4, 57, 84
9, 34439, Note_on_c, 4, 54, 0
9, 34439, Note_on_c, 4, 57, 0
9, 34560, Note_on_c, 4, 58, 84
9, 34560, Note_on_c, 4, 54, 84
9, 34679, Note_on_c, 4, 58, 0
9, 34679, Note_on_c, 4, 54, 0
9, 34800, Note_on_c, 4, 54, 84
9, 34800, Note_on_c, 4, 58, 84
9, 34919, Note_on_c, 4, 54, 0
9, 34919, Note_on_c, 4, 58, 0
9, 35040, Note_on_c, 4, 60, 84
9, 35040, Note_on_c, 4, 54, 84
9, 35159, Note_on_c, 4, 60, 0
9, 35159, Note_on_c, 4, 54, 0
9, 35280, Note_on_c, 4, 54, 84
9, 35280, Note_on_c, 4, 60, 84
9, 35399, Note_on_c, 4, 54, 0
9, 35399, Note_on_c, 4, 60, 0
9, 35520, Note_on_c, 4, 54, 84
9, 35520, Note_on_c, 4, 61, 84
9, 35639, Note_on_c, 4, 54, 0
9, 35639, Note_on_c, 4, 61, 0
9, 35760, Note_on_c, 4, 61, 84
9, 35760, Note_on_c, 4, 54, 84
9, 35879, Note_on_c, 4, 61, 0
9, 35879, Note_on_c, 4, 54, 0
9, 36000, Note_on_c, 4, 63, 84
9, 36000, Note_on_c, 4, 54, 84
9, 36119, Note_on_c, 4, 63, 0
9, 36119, Note_on_c, 4, 54, 0
9, 36240, Note_on_c, 4, 63, 84
9, 36240, Note_on_c, 4, 60, 84
9, 36359, Note_on_c, 4, 63, 0
9, 36359, Note_on_c, 4, 60, 0
9, 36480, Note_on_c, 4, 63, 84
9, 36480, Note_on_c, 4, 60, 84
9, 36599, Note_on_c, 4, 63, 0
9, 36599, Note_on_c, 4, 60, 0
9, 36720, Note_on_c, 4, 63, 84
9, 36720, Note_on_c, 4, 60, 84
9, 36839, Note_on_c, 4, 63, 0
9, 36839, Note_on_c, 4, 60, 0
9, 36960, Note_on_c, 4, 60, 84
9, 36960, Note_on_c, 4, 63, 84
9, 37079, Note_on_c, 4, 60, 0
9, 37079, Note_on_c, 4, 63, 0
9, 37200, Note_on_c, 4, 66, 76
9, 37200, Note_on_c, 4, 63, 76
9, 37289, Note_on_c, 4, 66, 0
9, 37289, Note_on_c, 4, 63, 0
9, 37680, Note_on_c, 4, 68, 52
9, 37799, Note_on_c, 4, 68, 0
9, 37920, Note_on_c, 4, 56, 52
9, 38039, Note_on_c, 4, 56, 0
9, 39120, Note_on_c, 4, 63, 76
9, 39120, Note_on_c, 4, 66, 76
9, 39209, Note_on_c, 4, 63, 0
9, 39209, Note_on_c, 4, 66, 0
9, 39600, Note_on_c, 4, 68, 52
9, 39719, Note_on_c, 4, 68, 0
9, 39840, Note_on_c, 4, 56, 52
9, 39959, Note_on_c, 4, 56, 0
9, 40560, Note_on_c, 4, 68, 52
9, 40679, Note_on_c, 4, 68, 0
9, 40800, Note_on_c, 4, 56, 52
9, 40919, Note_on_c, 4, 56, 0
9, 41520, Note_on_c, 4, 68, 52
9, 41639, Note_on_c, 4, 68, 0
9, 41760, Note_on_c, 4, 56, 52
9, 41879, Note_on_c, 4, 56, 0
9, 42960, Note_on_c, 4, 49, 76
9, 42960, Note_on_c, 4, 61, 76
9, 43199, Note_on_c, 4, 49, 0
9, 43199, Note_on_c, 4, 61, 0
9, 43440, Note_on_c, 4, 44, 76
9, 43440, Note_on_c, 4, 56, 76
9, 43679, Note_on_c, 4, 44, 0
9, 43679, Note_on_c, 4, 56, 0
9, 43920, Note_on_c, 4, 61, 76
9, 43920, Note_on_c, 4, 49, 76
9, 44159, Note_on_c, 4, 61, 0
9, 44159, Note_on_c, 4, 49, 0
9, 44400, Note_on_c, 4, 44, 76
9, 44400, Note_on_c, 4, 56, 76
9, 44624, Note_on_c, 4, 44, 0
9, 44624, Note_on_c, 4, 56, 0
9, 45120, Note_on_c, 4, 57, 52
9, 45120, Note_on_c, 4, 61, 52
9, 45344, Note_on_c, 4, 57, 0
9, 45344, Note_on_c, 4, 61, 0
9, 45360, Note_on_c, 4, 57, 52
9, 45360, Note_on_c, 4, 61, 52
9, 45584, Note_on_c, 4, 57, 0
9, 45584, Note_on_c, 4, 61, 0
9, 45600, Note_on_c, 4, 57, 52
9, 45600, Note_on_c, 4, 62, 52
9, 45824, Note_on_c, 4, 57, 0
9, 45824, Note_on_c, 4, 62, 0
9, 45840, Note_on_c, 4, 57, 52
9, 45840, Note_on_c, 4, 62, 52
9, 46064, Note_on_c, 4, 57, 0
9, 46064, Note_on_c, 4, 62, 0
9, 46080, Note_on_c, 4, 61, 52
9, 46080, Note_on_c, 4, 57, 52
9, 46304, Note_on_c, 4, 61, 0
9, 46304, Note_on_c, 4, 57, 0
9, 46320, Note_on_c, 4, 57, 52
9, 46320, Note_on_c, 4, 61, 52
9, 46544, Note_on_c, 4, 57, 0
9, 46544, Note_on_c, 4, 61, 0
9, 46560, Note_on_c, 4, 57, 52
9, 46560, Note_on_c, 4, 62, 52
9, 46784, Note_on_c, 4, 57, 0
9, 46784, Note_on_c, 4, 62, 0
9, 46800, Note_on_c, 4, 62, 52
9, 46800, Note_on_c, 4, 57, 52
9, 47024, Note_on_c, 4, 62, 0
9, 47024, Note_on_c, 4, 57, 0
9, 47760, Note_on_c, 4, 49, 76
9, 47760, Note_on_c, 4, 61, 76
9, 47999, Note_on_c, 4, 49, 0
9, 47999, Note_on_c, 4, 61, 0
9, 48240, Note_on_c, 4, 44, 76
9, 48240, Note_on_c, 4, 56, 76
9, 48479, Note_on_c, 4, 44, 0
9, 48479, Note_on_c, 4, 56, 0
9, 48720, Note_on_c, 4, 61, 76
9, 48720, Note_on_c, 4, 49, 76
9, 48959, Note_on_c, 4, 61, 0
9, 48959, Note_on_c, 4, 49, 0
9, 49200, Note_on_c, 4, 56, 76
9, 49200, Note_on_c, 4, 44, 76
9, 49439, Note_on_c, 4, 56, 0
9, 49439, Note_on_c, 4, 44, 0
9, 49920, Note_on_c, 4, 61, 52
9, 49920, Note_on_c, 4, 57, 52
9, 50144, Note_on_c, 4, 61, 0
9, 50144, Note_on_c, 4, 57, 0
9, 50160, Note_on_c, 4, 61, 52
9, 50160, Note_on_c, 4, 57, 52
9, 50384, Note_on_c, 4, 61, 0
9, 50384, Note_on_c, 4, 57, 0
9, 50400, Note_on_c, 4, 62, 52
9, 50400, Note_on_c, 4, 57, 52
9, 50624, Note_on_c, 4, 62, 0
9, 50624, Note_on_c, 4, 57, 0
9, 50640, Note_on_c, 4, 57, 52
9, 50640, Note_on_c, 4, 62, 52
9, 50864, Note_on_c, 4, 57, 0
9, 50864, Note_on_c, 4, 62, 0
9, 50880, Note_on_c, 4, 57, 52
9, 50880, Note_on_c, 4, 61, 52
9, 51104, Note_on_c, 4, 57, 0
9, 51104, Note_on_c, 4, 61, 0
9, 51120, Note_on_c, 4, 57, 52
9, 51120, Note_on_c, 4, 61, 52
9, 51344, Note_on_c, 4, 57, 0
9, 51344, Note_on_c, 4, 61, 0
9, 51360, Note_on_c, 4, 61, 52
9, 51360, Note_on_c, 4, 57, 52
9, 51479, Note_on_c, 4, 61, 0
9, 51479, Note_on_c, 4, 57, 0
9, 51588, Control_c, 4, 11, 64
9, 51600, Note_on_c, 4, 52, 84
9, 51600, Note_on_c, 4, 55, 84
9, 51600, Control_c, 4, 11, 64
9, 51688, Control_c, 4, 11, 65
9, 51775, Control_c, 4, 11, 66
9, 51863, Control_c, 4, 11, 67
9, 51950, Control_c, 4, 11, 68
9, 52038, Control_c, 4, 11, 69
9, 52126, Control_c, 4, 11, 70
9, 52213, Control_c, 4, 11, 71
9, 52301, Control_c, 4, 11, 72
9, 52389, Control_c, 4, 11, 73
9, 52476, Control_c, 4, 11, 74
9, 52564, Control_c, 4, 11, 75
9, 52651, Control_c, 4, 11, 76
9, 52739, Control_c, 4, 11, 77
9, 52827, Control_c, 4, 11, 78
9, 52914, Control_c, 4, 11, 79
9, 53002, Control_c, 4, 11, 80
9, 53090, Control_c, 4, 11, 81
9, 53177, Control_c, 4, 11, 82
9, 53265, Control_c, 4, 11, 83
9, 53352, Control_c, 4, 11, 84
9, 53440, Control_c, 4, 11, 85
9, 53528, Control_c, 4, 11, 86
9, 53615, Control_c, 4, 11, 87
9, 53703, Control_c, 4, 11, 88
9, 53744, Note_on_c, 4, 52, 0
9, 53744, Note_on_c, 4, 55, 0
9, 53760, Note_on_c, 4, 54, 84
9, 53760, Note_on_c, 4, 50, 84
9, 53790, Control_c, 4, 11, 89
9, 53878, Control_c, 4, 11, 90
9, 53966, Control_c, 4, 11, 91
9, 54053, Control_c, 4, 11, 92
9, 54141, Control_c, 4, 11, 93
9, 54224, Note_on_c, 4, 54, 0
9, 54224, Note_on_c, 4, 50, 0
9, 54229, Control_c, 4, 11, 94
9, 54240, Note_on_c, 4, 52, 84
9, 54240, Note_on_c, 4, 55, 84
9, 54316, Control_c, 4, 11, 95
9, 54404, Control_c, 4, 11, 96
9, 54491, Control_c, 4, 11, 97
9, 54579, Control_c, 4, 11, 98
9, 54667, Control_c, 4, 11, 99
9, 54754, Control_c, 4, 11, 100
9, 54842, Control_c, 4, 11, 101
9, 54930, Control_c, 4, 11, 102
9, 55017, Control_c, 4, 11, 103
9, 55105, Control_c, 4, 11, 104
9, 55192, Control_c, 4, 11, 105
9, 55280, Control_c, 4, 11, 106
9, 55368, Control_c, 4, 11, 107
9, 55455, Control_c, 4, 11, 108
9, 55543, Control_c, 4, 11, 109
9, 55630, Control_c, 4, 11, 110
9, 55718, Control_c, 4, 11, 111
9, 55806, Control_c, 4, 11, 112
9, 55893, Control_c, 4, 11, 113
9, 55981, Control_c, 4, 11, 114
9, 56069, Control_c, 4, 11, 115
9, 56156, Control_c, 4, 11, 116
9, 56244, Control_c, 4, 11, 117
9, 56331, Control_c, 4, 11, 118
9, 56419, Control_c, 4, 11, 119
9, 56507, Control_c, 4, 11, 120
9, 56594, Control_c, 4, 11, 121
9, 56624, Note_on_c, 4, 52, 0
9, 56624, Note_on_c, 4, 55, 0
9, 56640, Note_on_c, 4, 50, 84
9, 56640, Note_on_c, 4, 54, 84
9, 56682, Control_c, 4, 11, 122
9, 56770, Control_c, 4, 11, 123
9, 56857, Control_c, 4, 11, 124
9, 56945, Control_c, 4, 11, 125
9, 57032, Control_c, 4, 11, 127
9, 57104, Note_on_c, 4, 50, 0
9, 57104, Note_on_c, 4, 54, 0
9, 57120, Note_on_c, 4, 36, 84
9, 57120, Note_on_c, 4, 48, 84
9, 57224, Note_on_c, 4, 36, 0
9, 57224, Note_on_c, 4, 48, 0
9, 57240, Note_on_c, 4, 36, 84
9, 57240, Note_on_c, 4, 48, 84
9, 57344, Note_on_c, 4, 36, 0
9, 57344, Note_on_c, 4, 48, 0
9, 57360, Note_on_c, 4, 48, 84
9, 57360, Note_on_c, 4, 36, 84
9, 57464, Note_on_c, 4, 48, 0
9, 57464, Note_on_c, 4, 36, 0
9, 57480, Note_on_c, 4, 48, 84
9, 57480, Note_on_c, 4, 36, 84
9, 57584, Note_on_c, 4, 48, 0
9, 57584, Note_on_c, 4, 36, 0
9, 57600, Note_on_c, 4, 48, 84
9, 57600, Note_on_c, 4, 36, 84
9, 57704, Note_on_c, 4, 48, 0
9, 57704, Note_on_c, 4, 36, 0
9, 57720, Note_on_c, 4, 36, 84
9, 57720, Note_on_c, 4, 48, 84
9, 57824, Note_on_c, 4, 36, 0
9, 57824, Note_on_c, 4, 48, 0
9, 57840, Note_on_c, 4, 48, 84
9, 57840, Note_on_c, 4, 36, 84
9, 57944, Note_on_c, 4, 48, 0
9, 57944, Note_on_c, 4, 36, 0
9, 57960, Note_on_c, 4, 48, 84
9, 57960, Note_on_c, 4, 36, 84
9, 58064, Note_on_c, 4, 48, 0
9, 58064, Note_on_c, 4, 36, 0
9, 58080, Note_on_c, 4, 49, 92
9, 58184, Note_on_c, 4, 49, 0
9, 58200, Note_on_c, 4, 49, 84
9, 58304, Note_on_c, 4, 49, 0
9, 58320, Note_on_c, 4, 49, 84
9, 58424, Note_on_c, 4, 49, 0
9, 58440, Note_on_c, 4, 49, 84
9, 58544, Note_on_c, 4, 49, 0
9, 58560, Note_on_c, 4, 48, 92
9, 58560, Note_on_c, 4, 36, 92
9, 58664, Note_on_c, 4, 48, 0
9, 58664, Note_on_c, 4, 36, 0
9, 58680, Note_on_c, 4, 48, 84
9, 58680, Note_on_c, 4, 36, 84
9, 58784, Note_on_c, 4, 48, 0
9, 58784, Note_on_c, 4, 36, 0
9, 58800, Note_on_c, 4, 36, 84
9, 58800, Note_on_c, 4, 48, 84
9, 58904, Note_on_c, 4, 36, 0
9, 58904, Note_on_c, 4, 48, 0
9, 58920, Note_on_c, 4, 36, 84
9, 58920, Note_on_c, 4, 48, 84
9, 59024, Note_on_c, 4, 36, 0
9, 59024, Note_on_c, 4, 48, 0
9, 59040, Note_on_c, 4, 49, 92
9, 59144, Note_on_c, 4, 49, 0
9, 59160, Note_on_c, 4, 49, 84
9, 59264, Note_on_c, 4, 49, 0
9, 59280, Note_on_c, 4, 49, 84
9, 59384, Note_on_c, 4, 49, 0
9, 59400, Note_on_c, 4, 49, 84
9, 59504, Note_on_c, 4, 49, 0
9, 59520, Note_on_c, 4, 48, 92
9, 59520, Note_on_c, 4, 36, 92
9, 59624, Note_on_c, 4, 48, 0
9, 59624, Note_on_c, 4, 36, 0
9, 59640, Note_on_c, 4, 36, 84
9, 59640, Note_on_c, 4, 48, 84
9, 59744, Note_on_c, 4, 36, 0
9, 59744, Note_on_c, 4, 48, 0
9, 59760, Note_on_c, 4, 36, 84
9, 59760, Note_on_c, 4, 48, 84
9, 59864, Note_on_c, 4, 36, 0
9, 59864, Note_on_c, 4, 48, 0
9, 59880, Note_on_c, 4, 48, 84
9, 59880, Note_on_c, 4, 36, 84
9, 59984, Note_on_c, 4, 48, 0
9, 59984, Note_on_c, 4, 36, 0
9, 60000, Note_on_c, 4, 49, 92
9, 60104, Note_on_c, 4, 49, 0
9, 60120, Note_on_c, 4, 49, 84
9, 60224, Note_on_c, 4, 49, 0
9, 60240, Note_on_c, 4, 49, 84
9, 60344, Note_on_c, 4, 49, 0
9, 60360, Note_on_c, 4, 49, 84
9, 60464, Note_on_c, 4, 49, 0
9, 60480, Note_on_c, 4, 42, 92
9, 60584, Note_on_c, 4, 42, 0
9, 60600, Note_on_c, 4, 42, 84
9, 60704, Note_on_c, 4, 42, 0
9, 60720, Note_on_c, 4, 42, 84
9, 60824, Note_on_c, 4, 42, 0
9, 60840, Note_on_c, 4, 42, 84
9, 60944, Note_on_c, 4, 42, 0
9, 60960, Note_on_c, 4, 44, 92
9, 61064, Note_on_c, 4, 44, 0
9, 61080, Note_on_c, 4, 44, 84
9, 61184, Note_on_c, 4, 44, 0
9, 61200, Note_on_c, 4, 44, 84
9, 61304, Note_on_c, 4, 44, 0
9, 61320, Note_on_c, 4, 44, 84
9, 61424, Note_on_c, 4, 44, 0
9, 61440, Note_on_c, 4, 44, 92
9, 61544, Note_on_c, 4, 44, 0
9, 61560, Note_on_c, 4, 44, 84
9, 61664, Note_on_c, 4, 44, 0
9, 61680, Note_on_c, 4, 44, 84
9, 61784, Note_on_c, 4, 44, 0
9, 61800, Note_on_c, 4, 44, 84
9, 61904, Note_on_c, 4, 44, 0
9, 61920, Note_on_c, 4, 49, 84
9, 62024, Note_on_c, 4, 49, 0
9, 62040, Note_on_c, 4, 49, 84
9, 62144, Note_on_c, 4, 49, 0
9, 62160, Note_on_c, 4, 49, 92
9, 62264, Note_on_c, 4, 49, 0
9, 62280, Note_on_c, 4, 49, 84
9, 62384, Note_on_c, 4, 49, 0
9, 62400, Note_on_c, 4, 49, 92
9, 62504, Note_on_c, 4, 49, 0
9, 62520, Note_on_c, 4, 49, 84
9, 62624, Note_on_c, 4, 49, 0
9, 62640, Note_on_c, 4, 49, 84
9, 62744, Note_on_c, 4, 49, 0
9, 62760, Note_on_c, 4, 49, 84
9, 62864, Note_on_c, 4, 49, 0
9, 62880, Note_on_c, 4, 49, 84
9, 62984, Note_on_c, 4, 49, 0
9, 63000, Note_on_c, 4, 49, 84
9, 63104, Note_on_c, 4, 49, 0
9, 63120, Note_on_c, 4, 49, 92
9, 63224, Note_on_c, 4, 49, 0
9, 63240, Note_on_c, 4, 49, 84
9, 63344, Note_on_c, 4, 49, 0
9, 63360, Note_on_c, 4, 49, 92
9, 63464, Note_on_c, 4, 49, 0
9, 63480, Note_on_c, 4, 49, 84
9, 63584, Note_on_c, 4, 49, 0
9, 63600, Note_on_c, 4, 49, 84
9, 63704, Note_on_c, 4, 49, 0
9, 63720, Note_on_c, 4, 49, 84
9, 63824, Note_on_c, 4, 49, 0
9, 63840, Note_on_c, 4, 49, 84
9, 63944, Note_on_c, 4, 49, 0
9, 63960, Note_on_c, 4, 49, 84
9, 64064, Note_on_c, 4, 49, 0
9, 64080, Note_on_c, 4, 49, 92
9, 64184, Note_on_c, 4, 49, 0
9, 64200, Note_on_c, 4, 49, 84
9, 64304, Note_on_c, 4, 49, 0
9, 64320, Note_on_c, 4, 49, 84
9, 64424, Note_on_c, 4, 49, 0
9, 64440, Note_on_c, 4, 49, 84
9, 64544, Note_on_c, 4, 49, 0
9, 64560, Note_on_c, 4, 49, 92
9, 64664, Note_on_c, 4, 49, 0
9, 64680, Note_on_c, 4, 49, 84
9, 64784, Note_on_c, 4, 49, 0
9, 64800, Note_on_c, 4, 49, 84
9, 64904, Note_on_c, 4, 49, 0
9, 64920, Note_on_c, 4, 49, 84
9, 65024, Note_on_c, 4, 49, 0
9, 65040, Note_on_c, 4, 49, 92
9, 65144, Note_on_c, 4, 49, 0
9, 65160, Note_on_c, 4, 49, 84
9, 65264, Note_on_c, 4, 49, 0
9, 65280, Note_on_c, 4, 49, 84
9, 65384, Note_on_c, 4, 49, 0
9, 65400, Note_on_c, 4, 49, 84
9, 65400, Note_on_c, 4, 57, 84
9, 65504, Note_on_c, 4, 49, 0
9, 65504, Note_on_c, 4, 57, 0
9, 65520, Note_on_c, 4, 57, 84
9, 65520, Note_on_c, 4, 54, 84
9, 65624, Note_on_c, 4, 57, 0
9, 65624, Note_on_c, 4, 54, 0
9, 65640, Note_on_c, 4, 54, 84
9, 65640, Note_on_c, 4, 57, 84
9, 65744, Note_on_c, 4, 54, 0
9, 65744, Note_on_c, 4, 57, 0
9, 65760, Note_on_c, 4, 52, 84
9, 65760, Note_on_c, 4, 56, 84
9, 65864, Note_on_c, 4, 52, 0
9, 65864, Note_on_c, 4, 56, 0
9, 66840, Note_on_c, 4, 62, 84
9, 66840, Note_on_c, 4, 59, 84
9, 66891, Note_on_c, 4, 62, 0
9, 66891, Note_on_c, 4, 59, 0
9, 66900, Note_on_c, 4, 59, 84
9, 66900, Note_on_c, 4, 62, 84
9, 66951, Note_on_c, 4, 59, 0
9, 66951, Note_on_c, 4, 62, 0
9, 66960, Note_on_c, 4, 62, 84
9, 66960, Note_on_c, 4, 59, 84
9, 67079, Note_on_c, 4, 62, 0
9, 67079, Note_on_c, 4, 59, 0
9, 67680, Note_on_c, 4, 62, 84
9, 67680, Note_on_c, 4, 66, 84
9, 67799, Note_on_c, 4, 62, 0
9, 67799, Note_on_c, 4, 66, 0
9, 68040, Note_on_c, 4, 62, 92
9, 68040, Note_on_c, 4, 66, 92
9, 68159, Note_on_c, 4, 62, 0
9, 68159, Note_on_c, 4, 66, 0
9, 68160, Note_on_c, 4, 64, 84
9, 68160, Note_on_c, 4, 61, 84
9, 68279, Note_on_c, 4, 64, 0
9, 68279, Note_on_c, 4, 61, 0
9, 68520, Note_on_c, 4, 61, 92
9, 68520, Note_on_c, 4, 64, 92
9, 68639, Note_on_c, 4, 61, 0
9, 68639, Note_on_c, 4, 64, 0
9, 68640, Note_on_c, 4, 62, 84
9, 68640, Note_on_c, 4, 66, 84
9, 68759, Note_on_c, 4, 62, 0
9, 68759, Note_on_c, 4, 66, 0
9, 69000, Note_on_c, 4, 66, 92
9, 69000, Note_on_c, 4, 62, 92
9, 69119, Note_on_c, 4, 66, 0
9, 69119, Note_on_c, 4, 62, 0
9, 69120, Note_on_c, 4, 61, 84
9, 69120, Note_on_c, 4, 66, 84
9, 69239, Note_on_c, 4, 61, 0
9, 69239, Note_on_c, 4, 66, 0
9, 69240, Note_on_c, 4, 65, 84
9, 69359, Note_on_c, 4, 65, 0
9, 69480, Note_on_c, 4, 64, 92
9, 69480, Note_on_c, 4, 61, 92
9, 69599, Note_on_c, 4, 64, 0
9, 69599, Note_on_c, 4, 61, 0
9, 69600, Note_on_c, 4, 57, 84
9, 69600, Note_on_c, 4, 63, 84
9, 69719, Note_on_c, 4, 57, 0
9, 69719, Note_on_c, 4, 63, 0
9, 69960, Note_on_c, 4, 62, 92
9, 69960, Note_on_c, 4, 59, 92
9, 70079, Note_on_c, 4, 62, 0
9, 70079, Note_on_c, 4, 59, 0
9, 70080, Note_on_c, 4, 61, 84
9, 70080, Note_on_c, 4, 57, 84
9, 70199, Note_on_c, 4, 61, 0
9, 70199, Note_on_c, 4, 57, 0
9, 70440, Note_on_c, 4, 61, 92
9, 70440, Note_on_c, 4, 57, 92
9, 70559, Note_on_c, 4, 61, 0
9, 70559, Note_on_c, 4, 57, 0
9, 70560, Note_on_c, 4, 59, 84
9, 70560, Note_on_c, 4, 56, 84
9, 70679, Note_on_c, 4, 59, 0
9, 70679, Note_on_c, 4, 56, 0
9, 70920, Note_on_c, 4, 56, 92
9, 70920, Note_on_c, 4, 59, 92
9, 71039, Note_on_c, 4, 56, 0
9, 71039, Note_on_c, 4, 59, 0
9, 71040, Note_on_c, 4, 57, 84
9, 71159, Note_on_c, 4, 57, 0
9, 71520, Note_on_c, 4, 62, 84
9, 71520, Note_on_c, 4, 66, 84
9, 71639, Note_on_c, 4, 62, 0
9, 71639, Note_on_c, 4, 66, 0
9, 71880, Note_on_c, 4, 62, 92
9, 71880, Note_on_c, 4, 66, 92
9, 71999, Note_on_c, 4, 62, 0
9, 71999, Note_on_c, 4, 66, 0
9, 72000, Note_on_c, 4, 64, 84
9, 72000, Note_on_c, 4, 61, 84
9, 72119, Note_on_c, 4, 64, 0
9, 72119, Note_on_c, 4, 61, 0
9, 72360, Note_on_c, 4, 64, 92
9, 72360, Note_on_c, 4, 61, 92
9, 72479, Note_on_c, 4, 64, 0
9, 72479, Note_on_c, 4, 61, 0
9, 72480, Note_on_c, 4, 66, 84
9, 72480, Note_on_c, 4, 62, 84
9, 72599, Note_on_c, 4, 66, 0
9, 72599, Note_on_c, 4, 62, 0
9, 72840, Note_on_c, 4, 62, 92
9, 72840, Note_on_c, 4, 66, 92
9, 72959, Note_on_c, 4, 62, 0
9, 72959, Note_on_c, 4, 66, 0
9, 72960, Note_on_c, 4, 66, 84
9, 72960, Note_on_c, 4, 61, 84
9, 73079, Note_on_c, 4, 66, 0
9, 73079, Note_on_c, 4, 61, 0
9, 73080, Note_on_c, 4, 65, 84
9, 73199, Note_on_c, 4, 65, 0
9, 73320, Note_on_c, 4, 61, 92
9, 73320, Note_on_c, 4, 64, 92
9, 73439, Note_on_c, 4, 61, 0
9, 73439, Note_on_c, 4, 64, 0
9, 73440, Note_on_c, 4, 57, 84
9, 73440, Note_on_c, 4, 63, 84
9, 73559, Note_on_c, 4, 57, 0
9, 73559, Note_on_c, 4, 63, 0
9, 73800, Note_on_c, 4, 62, 92
9, 73800, Note_on_c, 4, 59, 92
9, 73919, Note_on_c, 4, 62, 0
9, 73919, Note_on_c, 4, 59, 0
9, 73920, Note_on_c, 4, 57, 84
9, 73920, Note_on_c, 4, 61, 84
9, 74039, Note_on_c, 4, 57, 0
9, 74039, Note_on_c, 4, 61, 0
9, 74280, Note_on_c, 4, 57, 92
9, 74280, Note_on_c, 4, 61, 92
9, 74399, Note_on_c, 4, 57, 0
9, 74399, Note_on_c, 4, 61, 0
9, 74400, Note_on_c, 4, 56, 84
9, 74400, Note_on_c, 4, 59, 84
9, 74519, Note_on_c, 4, 56, 0
9, 74519, Note_on_c, 4, 59, 0
9, 74760, Note_on_c, 4, 59, 92
9, 74760, Note_on_c, 4, 56, 92
9, 74879, Note_on_c, 4, 59, 0
9, 74879, Note_on_c, 4, 56, 0
9, 74880, Note_on_c, 4, 57, 84
9, 74999, Note_on_c, 4, 57, 0
9, 75360, Note_on_c, 4, 45, 84
9, 75360, Note_on_c, 4, 57, 84
9, 75479, Note_on_c, 4, 45, 0
9, 75479, Note_on_c, 4, 57, 0
9, 75960, Note_on_c, 4, 59, 84
9, 75960, Note_on_c, 4, 56, 84
9, 76011, Note_on_c, 4, 59, 0
9, 76011, Note_on_c, 4, 56, 0
9, 76020, Note_on_c, 4, 56, 84
9, 76020, Note_on_c, 4, 59, 84
9, 76071, Note_on_c, 4, 56, 0
9, 76071, Note_on_c, 4, 59, 0
9, 76080, Note_on_c, 4, 56, 84
9, 76080, Note_on_c, 4, 59, 84
9, 76199, Note_on_c, 4, 56, 0
9, 76199, Note_on_c, 4, 59, 0
9, 76440, Note_on_c, 4, 59, 84
9, 76440, Note_on_c, 4, 56, 84
9, 76491, Note_on_c, 4, 59, 0
9, 76491, Note_on_c, 4, 56, 0
9, 76500, Note_on_c, 4, 56, 84
9, 76500, Note_on_c, 4, 59, 84
9, 76551, Note_on_c, 4, 56, 0
9, 76551, Note_on_c, 4, 59, 0
9, 76560, Note_on_c, 4, 59, 84
9, 76560, Note_on_c, 4, 56, 84
9, 76679, Note_on_c, 4, 59, 0
9, 76679, Note_on_c, 4, 56, 0
9, 76800, Note_on_c, 4, 64, 84
9, 76800, Note_on_c, 4, 61, 84
9, 77144, Note_on_c, 4, 64, 0
9, 77144, Note_on_c, 4, 61, 0
9, 77160, Note_on_c, 4, 59, 84
9, 77160, Note_on_c, 4, 62, 84
9, 77249, Note_on_c, 4, 59, 0
9, 77249, Note_on_c, 4, 62, 0
9, 77280, Note_on_c, 4, 57, 84
9, 77280, Note_on_c, 4, 61, 84
9, 77369, Note_on_c, 4, 57, 0
9, 77369, Note_on_c, 4, 61, 0
9, 77400, Note_on_c, 4, 61, 84
9, 77400, Note_on_c, 4, 64, 84
9, 77489, Note_on_c, 4, 61, 0
9, 77489, Note_on_c, 4, 64, 0
9, 77520, Note_on_c, 4, 59, 84
9, 77520, Note_on_c, 4, 62, 84
9, 77609, Note_on_c, 4, 59, 0
9, 77609, Note_on_c, 4, 62, 0
9, 77640, Note_on_c, 4, 61, 84
9, 77640, Note_on_c, 4, 57, 84
9, 77729, Note_on_c, 4, 61, 0
9, 77729, Note_on_c, 4, 57, 0
9, 77760, Note_on_c, 4, 59, 84
9, 77760, Note_on_c, 4, 62, 84
9, 77849, Note_on_c, 4, 59, 0
9, 77849, Note_on_c, 4, 62, 0
9, 77880, Note_on_c, 4, 61, 84
9, 77880, Note_on_c, 4, 57, 84
9, 77969, Note_on_c, 4, 61, 0
9, 77969, Note_on_c, 4, 57, 0
9, 78000, Note_on_c, 4, 59, 84
9, 78000, Note_on_c, 4, 56, 84
9, 78089, Note_on_c, 4, 59, 0
9, 78089, Note_on_c, 4, 56, 0
9, 78120, Note_on_c, 4, 62, 84
9, 78120, Note_on_c, 4, 66, 84
9, 78209, Note_on_c, 4, 62, 0
9, 78209, Note_on_c, 4, 66, 0
9, 78240, Note_on_c, 4, 64, 84
9, 78240, Note_on_c, 4, 61, 84
9, 78329, Note_on_c, 4, 64, 0
9, 78329, Note_on_c, 4, 61, 0
9, 78360, Note_on_c, 4, 59, 84
9, 78360, Note_on_c, 4, 62, 84
9, 78449, Note_on_c, 4, 59, 0
9, 78449, Note_on_c, 4, 62, 0
9, 78480, Note_on_c, 4, 57, 84
9, 78480, Note_on_c, 4, 61, 84
9, 78569, Note_on_c, 4, 57, 0
9, 78569, Note_on_c, 4, 61, 0
9, 78600, Note_on_c, 4, 56, 84
9, 78600, Note_on_c, 4, 59, 84
9, 78689, Note_on_c, 4, 56, 0
9, 78689, Note_on_c, 4, 59, 0
9, 78720, Note_on_c, 4, 57, 84
9, 78839, Note_on_c, 4, 57, 0
9, 79200, Note_on_c, 4, 45, 84
9, 79200, Note_on_c, 4, 57, 84
9, 79319, Note_on_c, 4, 45, 0
9, 79319, Note_on_c, 4, 57, 0
9, 79800, Note_on_c, 4, 59, 84
9, 79800, Note_on_c, 4, 56, 84
9, 79851, Note_on_c, 4, 59, 0
9, 79851, Note_on_c, 4, 56, 0
9, 79860, Note_on_c, 4, 56, 84
9, 79860, Note_on_c, 4, 59, 84
9, 79911, Note_on_c, 4, 56, 0
9, 79911, Note_on_c, 4, 59, 0
9, 79920, Note_on_c, 4, 59, 84
9, 79920, Note_on_c, 4, 56, 84
9, 80039, Note_on_c, 4, 59, 0
9, 80039, Note_on_c, 4, 56, 0
9, 80280, Note_on_c, 4, 59, 84
9, 80280, Note_on_c, 4, 56, 84
9, 80331, Note_on_c, 4, 59, 0
9, 80331, Note_on_c, 4, 56, 0
9, 80340, Note_on_c, 4, 59, 84
9, 80340, Note_on_c, 4, 56, 84
9, 80391, Note_on_c, 4, 59, 0
9, 80391, Note_on_c, 4, 56, 0
9, 80400, Note_on_c, 4, 56, 84
9, 80400, Note_on_c, 4, 59, 84
9, 80519, Note_on_c, 4, 56, 0
9, 80519, Note_on_c, 4, 59, 0
9, 80640, Note_on_c, 4, 57, 84
9, 80640, Note_on_c, 4, 61, 84
9, 80759, Note_on_c, 4, 57, 0
9, 80759, Note_on_c, 4, 61, 0
9, 80880, Note_on_c, 4, 61, 84
9, 80880, Note_on_c, 4, 57, 84
9, 80999, Note_on_c, 4, 61, 0
9, 80999, Note_on_c, 4, 57, 0
9, 81120, Note_on_c, 4, 57, 84
9, 81120, Note_on_c, 4, 61, 84
9, 81239, Note_on_c, 4, 57, 0
9, 81239, Note_on_c, 4, 61, 0
9, 81360, Note_on_c, 4, 57, 84
9, 81360, Note_on_c, 4, 61, 84
9, 81479, Note_on_c, 4, 57, 0
9, 81479, Note_on_c, 4, 61, 0
9, 81600, Note_on_c, 4, 59, 84
9, 81600, Note_on_c, 4, 62, 84
9, 81719, Note_on_c, 4, 59, 0
9, 81719, Note_on_c, 4, 62, 0
9, 81840, Note_on_c, 4, 62, 84
9, 81840, Note_on_c, 4, 59, 84
9, 81959, Note_on_c, 4, 62, 0
9, 81959, Note_on_c, 4, 59, 0
9, 82080, Note_on_c, 4, 62, 84
9, 82080, Note_on_c, 4, 59, 84
9, 82199, Note_on_c, 4, 62, 0
9, 82199, Note_on_c, 4, 59, 0
9, 82320, Note_on_c, 4, 62, 84
9, 82320, Note_on_c, 4, 59, 84
9, 82439, Note_on_c, 4, 62, 0
9, 82439, Note_on_c, 4, 59, 0
9, 82560, Note_on_c, 4, 61, 84
9, 82560, Note_on_c, 4, 57, 84
9, 82679, Note_on_c, 4, 61, 0
9, 82679, Note_on_c, 4, 57, 0
9, 84960, Note_on_c, 4, 64, 84
9, 86159, Note_on_c, 4, 64, 0
9, 86160, Note_on_c, 4, 65, 84
9, 86399, Note_on_c, 4, 65, 0
9, 86400, Note_on_c, 4, 66, 84
9, 86519, Note_on_c, 4, 66, 0
9, 86880, Note_on_c, 4, 49, 84
9, 86880, Note_on_c, 4, 61, 84
9, 88439, Note_on_c, 4, 49, 0
9, 88439, Note_on_c, 4, 61, 0
9, 88800, Note_on_c, 4, 61, 84
9, 88800, Note_on_c, 4, 49, 84
9, 89984, Note_on_c, 4, 61, 0
9, 89984, Note_on_c, 4, 49, 0
9, 90000, Note_on_c, 4, 49, 84
9, 90000, Note_on_c, 4, 65, 84
9, 90239, Note_on_c, 4, 65, 0
9, 90240, Note_on_c, 4, 66, 84
9, 90359, Note_on_c, 4, 49, 0
9, 90359, Note_on_c, 4, 66, 0
9, 90480, Note_on_c, 4, 54, 84
9, 90480, Note_on_c, 4, 57, 84
9, 90599, Note_on_c, 4, 54, 0
9, 90599, Note_on_c, 4, 57, 0
9, 90720, Note_on_c, 4, 54, 84
9, 90720, Note_on_c, 4, 57, 84
9, 90839, Note_on_c, 4, 54, 0
9, 90839, Note_on_c, 4, 57, 0
9, 90960, Note_on_c, 4, 54, 84
9, 90960, Note_on_c, 4, 57, 84
9, 91079, Note_on_c, 4, 54, 0
9, 91079, Note_on_c, 4, 57, 0
9, 91200, Note_on_c, 4, 56, 84
9, 91200, Note_on_c, 4, 59, 84
9, 91319, Note_on_c, 4, 56, 0
9, 91319, Note_on_c, 4, 59, 0
9, 91440, Note_on_c, 4, 59, 84
9, 91440, Note_on_c, 4, 56, 84
9, 91559, Note_on_c, 4, 59, 0
9, 91559, Note_on_c, 4, 56, 0
9, 91680, Note_on_c, 4, 59, 84
9, 91680, Note_on_c, 4, 56, 84
9, 91799, Note_on_c, 4, 59, 0
9, 91799, Note_on_c, 4, 56, 0
9, 91920, Note_on_c, 4, 59, 84
9, 91920, Note_on_c, 4, 56, 84
9, 92039, Note_on_c, 4, 59, 0
9, 92039, Note_on_c, 4, 56, 0
9, 92160, Note_on_c, 4, 57, 84
9, 92160, Note_on_c, 4, 54, 84
9, 92279, Note_on_c, 4, 57, 0
9, 92279, Note_on_c, 4, 54, 0
9, 92400, Note_on_c, 4, 57, 84
9, 92400, Note_on_c, 4, 54, 84
9, 92519, Note_on_c, 4, 57, 0
9, 92519, Note_on_c, 4, 54, 0
9, 92640, Note_on_c, 4, 58, 84
9, 92640, Note_on_c, 4, 54, 84
9, 92759, Note_on_c, 4, 58, 0
9, 92759, Note_on_c, 4, 54, 0
9, 92880, Note_on_c, 4, 54, 84
9, 92880, Note_on_c, 4, 58, 84
9, 92999, Note_on_c, 4, 54, 0
9, 92999, Note_on_c, 4, 58, 0
9, 93120, Note_on_c, 4, 54, 84
9, 93120, Note_on_c, 4, 60, 84
9, 93239, Note_on_c, 4, 54, 0
9, 93239, Note_on_c, 4, 60, 0
9, 93360, Note_on_c, 4, 54, 84
9, 93360, Note_on_c, 4, 60, 84
9, 93479, Note_on_c, 4, 54, 0
9, 93479, Note_on_c, 4, 60, 0
9, 93600, Note_on_c, 4, 61, 84
9, 93600, Note_on_c, 4, 54, 84
9, 93719, Note_on_c, 4, 61, 0
9, 93719, Note_on_c, 4, 54, 0
9, 93840, Note_on_c, 4, 61, 84
9, 93840, Note_on_c, 4, 54, 84
9, 93959, Note_on_c, 4, 61, 0
9, 93959, Note_on_c, 4, 54, 0
9, 94080, Note_on_c, 4, 54, 84
9, 94080, Note_on_c, 4, 63, 84
9, 94199, Note_on_c, 4, 54, 0
9, 94199, Note_on_c, 4, 63, 0
9, 94320, Note_on_c, 4, 60, 84
9, 94320, Note_on_c, 4, 63, 84
9, 94439, Note_on_c, 4, 60, 0
9, 94439, Note_on_c, 4, 63, 0
9, 94560, Note_on_c, 4, 60, 84
9, 94560, Note_on_c, 4, 63, 84
9, 94679, Note_on_c, 4, 60, 0
9, 94679, Note_on_c, 4, 63, 0
9, 94800, Note_on_c, 4, 60, 84
9, 94800, Note_on_c, 4, 63, 84
9, 94919, Note_on_c, 4, 60, 0
9, 94919, Note_on_c, 4, 63, 0
9, 95040, Note_on_c, 4, 60, 84
9, 95040, Note_on_c, 4, 63, 84
9, 95159, Note_on_c, 4, 60, 0
9, 95159, Note_on_c, 4, 63, 0
9, 95280, Note_on_c, 4, 66, 76
9, 95280, Note_on_c, 4, 63, 76
9, 95369, Note_on_c, 4, 66, 0
9, 95369, Note_on_c, 4, 63, 0
9, 95760, Note_on_c, 4, 68, 52
9, 95879, Note_on_c, 4, 68, 0
9, 96000, Note_on_c, 4, 56, 52
9, 96119, Note_on_c, 4, 56, 0
9, 97200, Note_on_c, 4, 63, 76
9, 97200, Note_on_c, 4, 66, 76
9, 97289, Note_on_c, 4, 63, 0
9, 97289, Note_on_c, 4, 66, 0
9, 97680, Note_on_c, 4, 68, 52
9, 97799, Note_on_c, 4, 68, 0
9, 97920, Note_on_c, 4, 56, 52
9, 98039, Note_on_c, 4, 56, 0
9, 98640, Note_on_c, 4, 68, 52
9, 98759, Note_on_c, 4, 68, 0
9, 98880, Note_on_c, 4, 56, 52
9, 98999, Note_on_c, 4, 56, 0
9, 99600, Note_on_c, 4, 68, 52
9, 99719, Note_on_c, 4, 68, 0
9, 99840, Note_on_c, 4, 56, 52
9, 99959, Note_on_c, 4, 56, 0
9, 101040, Note_on_c, 4, 49, 76
9, 101040, Note_on_c, 4, 61, 76
9, 101279, Note_on_c, 4, 49, 0
9, 101279, Note_on_c, 4, 61, 0
9, 101520, Note_on_c, 4, 44, 76
9, 101520, Note_on_c, 4, 56, 76
9, 101759, Note_on_c, 4, 44, 0
9, 101759, Note_on_c, 4, 56, 0
9, 102000, Note_on_c, 4, 61, 76
9, 102000, Note_on_c, 4, 49, 76
9, 102239, Note_on_c, 4, 61, 0
9, 102239, Note_on_c, 4, 49, 0
9, 102480, Note_on_c, 4, 56, 76
9, 102480, Note_on_c, 4, 44, 76
9, 102704, Note_on_c, 4, 56, 0
9, 102704, Note_on_c, 4, 44, 0
9, 103200, Note_on_c, 4, 57, 52
9, 103200, Note_on_c, 4, 61, 52
9, 103424, Note_on_c, 4, 57, 0
9, 103424, Note_on_c, 4, 61, 0
9, 103440, Note_on_c, 4, 57, 52
9, 103440, Note_on_c, 4, 61, 52
9, 103664, Note_on_c, 4, 57, 0
9, 103664, Note_on_c, 4, 61, 0
9, 103680, Note_on_c, 4, 57, 52
9, 103680, Note_on_c, 4, 62, 52
9, 103904, Note_on_c, 4, 57, 0
9, 103904, Note_on_c, 4, 62, 0
9, 103920, Note_on_c, 4, 62, 52
9, 103920, Note_on_c, 4, 57, 52
9, 104144, Note_on_c, 4, 62, 0
9, 104144, Note_on_c, 4, 57, 0
9, 104160, Note_on_c, 4, 57, 52
9, 104160, Note_on_c, 4, 61, 52
9, 104384, Note_on_c, 4, 57, 0
9, 104384, Note_on_c, 4, 61, 0
9, 104400, Note_on_c, 4, 57, 52
9, 104400, Note_on_c, 4, 61, 52
9, 104624, Note_on_c, 4, 57, 0
9, 104624, Note_on_c, 4, 61, 0
9, 104640, Note_on_c, 4, 57, 52
9, 104640, Note_on_c, 4, 62, 52
9, 104864, Note_on_c, 4, 57, 0
9, 104864, Note_on_c, 4, 62, 0
9, 104880, Note_on_c, 4, 62, 52
9, 104880, Note_on_c, 4, 57, 52
9, 105104, Note_on_c, 4, 62, 0
9, 105104, Note_on_c, 4, 57, 0
9, 105840, Note_on_c, 4, 49, 76
9, 105840, Note_on_c, 4, 61, 76
9, 106079, Note_on_c, 4, 49, 0
9, 106079, Note_on_c, 4, 61, 0
9, 106320, Note_on_c, 4, 56, 76
9, 106320, Note_on_c, 4, 44, 76
9, 106559, Note_on_c, 4, 56, 0
9, 106559, Note_on_c, 4, 44, 0
9, 106800, Note_on_c, 4, 61, 76
9, 106800, Note_on_c, 4, 49, 76
9, 107039, Note_on_c, 4, 61, 0
9, 107039, Note_on_c, 4, 49, 0
9, 107280, Note_on_c, 4, 44, 76
9, 107280, Note_on_c, 4, 56, 76
9, 107519, Note_on_c, 4, 44, 0
9, 107519, Note_on_c, 4, 56, 0
9, 108000, Note_on_c, 4, 61, 52
9, 108000, Note_on_c, 4, 57, 52
9, 108224, Note_on_c, 4, 61, 0
9, 108224, Note_on_c, 4, 57, 0
9, 108240, Note_on_c, 4, 61, 52
9, 108240, Note_on_c, 4, 57, 52
9, 108464, Note_on_c, 4, 61, 0
9, 108464, Note_on_c, 4, 57, 0
9, 108480, Note_on_c, 4, 57, 52
9, 108480, Note_on_c, 4, 62, 52
9, 108704, Note_on_c, 4, 57, 0
9, 108704, Note_on_c, 4, 62, 0
9, 108720, Note_on_c, 4, 62, 52
9, 108720, Note_on_c, 4, 57, 52
9, 108944, Note_on_c, 4, 62, 0
9, 108944, Note_on_c, 4, 57, 0
9, 108960, Note_on_c, 4, 61, 52
9, 108960, Note_on_c, 4, 57, 52
9, 109184, Note_on_c, 4, 61, 0
9, 109184, Note_on_c, 4, 57, 0
9, 109200, Note_on_c, 4, 61, 52
9, 109200, Note_on_c, 4, 57, 52
9, 109424, Note_on_c, 4, 61, 0
9, 109424, Note_on_c, 4, 57, 0
9, 109440, Note_on_c, 4, 61, 52
9, 109440, Note_on_c, 4, 57, 52
9, 109559, Note_on_c, 4, 61, 0
9, 109559, Note_on_c, 4, 57, 0
9, 109668, Control_c, 4, 11, 64
9, 109680, Note_on_c, 4, 52, 84
9, 109680, Control_c, 4, 11, 64
9, 109680, Note_on_c, 4, 55, 84
9, 109768, Control_c, 4, 11, 65
9, 109855, Control_c, 4, 11, 66
9, 109943, Control_c, 4, 11, 67
9, 110030, Control_c, 4, 11, 68
9, 110118, Control_c, 4, 11, 69
9, 110206, Control_c, 4, 11, 70
9, 110293, Control_c, 4, 11, 71
9, 110381, Control_c, 4, 11, 72
9, 110469, Control_c, 4, 11, 73
9, 110556, Control_c, 4, 11, 74
9, 110644, Control_c, 4, 11, 75
9, 110731, Control_c, 4, 11, 76
9, 110819, Control_c, 4, 11, 77
9, 110907, Control_c, 4, 11, 78
9, 110994, Control_c, 4, 11, 79
9, 111082, Control_c, 4, 11, 80
9, 111170, Control_c, 4, 11, 81
9, 111257, Control_c, 4, 11, 82
9, 111345, Control_c, 4, 11, 83
9, 111432, Control_c, 4, 11, 84
9, 111520, Control_c, 4, 11, 85
9, 111608, Control_c, 4, 11, 86
9, 111695, Control_c, 4, 11, 87
9, 111783, Control_c, 4, 11, 88
9, 111824, Note_on_c, 4, 52, 0
9, 111824, Note_on_c, 4, 55, 0
9, 111840, Note_on_c, 4, 54, 84
9, 111840, Note_on_c, 4, 50, 84
9, 111870, Control_c, 4, 11, 89
9, 111958, Control_c, 4, 11, 90
9, 112046, Control_c, 4, 11, 91
9, 112133, Control_c, 4, 11, 92
9, 112221, Control_c, 4, 11, 93
9, 112304, Note_on_c, 4, 54, 0
9, 112304, Note_on_c, 4, 50, 0
9, 112309, Control_c, 4, 11, 94
9, 112320, Note_on_c, 4, 55, 84
9, 112320, Note_on_c, 4, 52, 84
9, 112396, Control_c, 4, 11, 95
9, 112484, Control_c, 4, 11, 96
9, 112571, Control_c, 4, 11, 97
9, 112659, Control_c, 4, 11, 98
9, 112747, Control_c, 4, 11, 99
9, 112834, Control_c, 4, 11, 100
9, 112922, Control_c, 4, 11, 101
9, 113010, Control_c, 4, 11, 102
9, 113097, Control_c, 4, 11, 103
9, 113185, Control_c, 4, 11, 104
9, 113272, Control_c, 4, 11, 105
9, 113360, Control_c, 4, 11, 106
9, 113448, Control_c, 4, 11, 107
9, 113535, Control_c, 4, 11, 108
9, 113623, Control_c, 4, 11, 109
9, 113710, Control_c, 4, 11, 110
9, 113798, Control_c, 4, 11, 111
9, 113886, Control_c, 4, 11, 112
9, 113973, Control_c, 4, 11, 113
9, 114061, Control_c, 4, 11, 114
9, 114149, Control_c, 4, 11, 115
9, 114236, Control_c, 4, 11, 116
9, 114324, Control_c, 4, 11, 117
9, 114411, Control_c, 4, 11, 118
9, 114499, Control_c, 4, 11, 119
9, 114587, Control_c, 4, 11, 120
9, 114674, Control_c, 4, 11, 121
9, 114704, Note_on_c, 4, 55, 0
9, 114704, Note_on_c, 4, 52, 0
9, 114720, Note_on_c, 4, 50, 84
9, 114720, Note_on_c, 4, 54, 84
9, 114762, Control_c, 4, 11, 122
9, 114850, Control_c, 4, 11, 123
9, 114937, Control_c, 4, 11, 124
9, 115025, Control_c, 4, 11, 125
9, 115112, Control_c, 4, 11, 127
9, 115184, Note_on_c, 4, 50, 0
9, 115184, Note_on_c, 4, 54, 0
9, 115200, Note_on_c, 4, 36, 84
9, 115200, Note_on_c, 4, 48, 84
9, 115304, Note_on_c, 4, 36, 0
9, 115304, Note_on_c, 4, 48, 0
9, 115320, Note_on_c, 4, 48, 84
9, 115320, Note_on_c, 4, 36, 84
9, 115424, Note_on_c, 4, 48, 0
9, 115424, Note_on_c, 4, 36, 0
9, 115440, Note_on_c, 4, 36, 84
9, 115440, Note_on_c, 4, 48, 84
9, 115544, Note_on_c, 4, 36, 0
9, 115544, Note_on_c, 4, 48, 0
9, 115560, Note_on_c, 4, 48, 84
9, 115560, Note_on_c, 4, 36, 84
9, 115664, Note_on_c, 4, 48, 0
9, 115664, Note_on_c, 4, 36, 0
9, 115680, Note_on_c, 4, 36, 84
9, 115680, Note_on_c, 4, 48, 84
9, 115784, Note_on_c, 4, 36, 0
9, 115784, Note_on_c, 4, 48, 0
9, 115800, Note_on_c, 4, 36, 84
9, 115800, Note_on_c, 4, 48, 84
9, 115904, Note_on_c, 4, 36, 0
9, 115904, Note_on_c, 4, 48, 0
9, 115920, Note_on_c, 4, 36, 84
9, 115920, Note_on_c, 4, 48, 84
9, 116024, Note_on_c, 4, 36, 0
9, 116024, Note_on_c, 4, 48, 0
9, 116040, Note_on_c, 4, 48, 84
9, 116040, Note_on_c, 4, 36, 84
9, 116144, Note_on_c, 4, 48, 0
9, 116144, Note_on_c, 4, 36, 0
9, 116160, Note_on_c, 4, 49, 92
9, 116264, Note_on_c, 4, 49, 0
9, 116280, Note_on_c, 4, 49, 84
9, 116384, Note_on_c, 4, 49, 0
9, 116400, Note_on_c, 4, 49, 84
9, 116504, Note_on_c, 4, 49, 0
9, 116520, Note_on_c, 4, 49, 84
9, 116624, Note_on_c, 4, 49, 0
9, 116640, Note_on_c, 4, 36, 92
9, 116640, Note_on_c, 4, 48, 92
9, 116744, Note_on_c, 4, 36, 0
9, 116744, Note_on_c, 4, 48, 0
9, 116760, Note_on_c, 4, 36, 84
9, 116760, Note_on_c, 4, 48, 84
9, 116864, Note_on_c, 4, 36, 0
9, 116864, Note_on_c, 4, 48, 0
9, 116880, Note_on_c, 4, 48, 84
9, 116880, Note_on_c, 4, 36, 84
9, 116984, Note_on_c, 4, 48, 0
9, 116984, Note_on_c, 4, 36, 0
9, 117000, Note_on_c, 4, 48, 84
9, 117000, Note_on_c, 4, 36, 84
9, 117104, Note_on_c, 4, 48, 0
9, 117104, Note_on_c, 4, 36, 0
9, 117120, Note_on_c, 4, 49, 92
9, 117224, Note_on_c, 4, 49, 0
9, 117240, Note_on_c, 4, 49, 84
9, 117344, Note_on_c, 4, 49, 0
9, 117360, Note_on_c, 4, 49, 84
9, 117464, Note_on_c, 4, 49, 0
9, 117480, Note_on_c, 4, 49, 84
9, 117584, Note_on_c, 4, 49, 0
9, 117600, Note_on_c, 4, 48, 92
9, 117600, Note_on_c, 4, 36, 92
9, 117704, Note_on_c, 4, 48, 0
9, 117704, Note_on_c, 4, 36, 0
9, 117720, Note_on_c, 4, 48, 84
9, 117720, Note_on_c, 4, 36, 84
9, 117824, Note_on_c, 4, 48, 0
9, 117824, Note_on_c, 4, 36, 0
9, 117840, Note_on_c, 4, 36, 84
9, 117840, Note_on_c, 4, 48, 84
9, 117944, Note_on_c, 4, 36, 0
9, 117944, Note_on_c, 4, 48, 0
9, 117960, Note_on_c, 4, 48, 84
9, 117960, Note_on_c, 4, 36, 84
9, 118064, Note_on_c, 4, 48, 0
9, 118064, Note_on_c, 4, 36, 0
9, 118080, Note_on_c, 4, 49, 92
9, 118184, Note_on_c, 4, 49, 0
9, 118200, Note_on_c, 4, 49, 84
9, 118304, Note_on_c, 4, 49, 0
9, 118320, Note_on_c, 4, 49, 84
9, 118424, Note_on_c, 4, 49, 0
9, 118440, Note_on_c, 4, 49, 84
9, 118544, Note_on_c, 4, 49, 0
9, 118560, Note_on_c, 4, 42, 92
9, 118664, Note_on_c, 4, 42, 0
9, 118680, Note_on_c, 4, 42, 84
9, 118784, Note_on_c, 4, 42, 0
9, 118800, Note_on_c, 4, 42, 84
9, 118904, Note_on_c, 4, 42, 0
9, 118920, Note_on_c, 4, 42, 84
9, 119024, Note_on_c, 4, 42, 0
9, 119040, Note_on_c, 4, 44, 92
9, 119144, Note_on_c, 4, 44, 0
9, 119160, Note_on_c, 4, 44, 84
9, 119264, Note_on_c, 4, 44, 0
9, 119280, Note_on_c, 4, 44, 84
9, 119384, Note_on_c, 4, 44, 0
9, 119400, Note_on_c, 4, 44, 84
9, 119504, Note_on_c, 4, 44, 0
9, 119520, Note_on_c, 4, 44, 92
9, 119624, Note_on_c, 4, 44, 0
9, 119640, Note_on_c, 4, 44, 84
9, 119744, Note_on_c, 4, 44, 0
9, 119760, Note_on_c, 4, 44, 84
9, 119864, Note_on_c, 4, 44, 0
9, 119880, Note_on_c, 4, 44, 84
9, 119984, Note_on_c, 4, 44, 0
9, 120000, Note_on_c, 4, 49, 84
9, 120104, Note_on_c, 4, 49, 0
9, 120120, Note_on_c, 4, 49, 84
9, 120224, Note_on_c, 4, 49, 0
9, 120240, Note_on_c, 4, 49, 92
9, 120344, Note_on_c, 4, 49, 0
9, 120360, Note_on_c, 4, 49, 84
9, 120464, Note_on_c, 4, 49, 0
9, 120480, Note_on_c, 4, 49, 92
9, 120584, Note_on_c, 4, 49, 0
9, 120600, Note_on_c, 4, 49, 84
9, 120704, Note_on_c, 4, 49, 0
9, 120720, Note_on_c, 4, 49, 84
9, 120824, Note_on_c, 4, 49, 0
9, 120840, Note_on_c, 4, 49, 84
9, 120944, Note_on_c, 4, 49, 0
9, 120960, Note_on_c, 4, 49, 84
9, 121064, Note_on_c, 4, 49, 0
9, 121080, Note_on_c, 4, 49, 84
9, 121184, Note_on_c, 4, 49, 0
9, 121200, Note_on_c, 4, 49, 92
9, 121304, Note_on_c, 4, 49, 0
9, 121320, Note_on_c, 4, 49, 84
9, 121424, Note_on_c, 4, 49, 0
9, 121440, Note_on_c, 4, 49, 92
9, 121544, Note_on_c, 4, 49, 0
9, 121560, Note_on_c, 4, 49, 84
9, 121664, Note_on_c, 4, 49, 0
9, 121680, Note_on_c, 4, 49, 84
9, 121784, Note_on_c, 4, 49, 0
9, 121800, Note_on_c, 4, 49, 84
9, 121904, Note_on_c, 4, 49, 0
9, 121920, Note_on_c, 4, 49, 84
9, 122024, Note_on_c, 4, 49, 0
9, 122040, Note_on_c, 4, 49, 84
9, 122144, Note_on_c, 4, 49, 0
9, 122160, Note_on_c, 4, 49, 92
9, 122264, Note_on_c, 4, 49, 0
9, 122280, Note_on_c, 4, 49, 84
9, 122384, Note_on_c, 4, 49, 0
9, 122400, Note_on_c, 4, 49, 84
9, 122504, Note_on_c, 4, 49, 0
9, 122520, Note_on_c, 4, 49, 84
9, 122624, Note_on_c, 4, 49, 0
9, 122640, Note_on_c, 4, 49, 92
9, 122744, Note_on_c, 4, 49, 0
9, 122760, Note_on_c, 4, 49, 84
9, 122864, Note_on_c, 4, 49, 0
9, 122880, Note_on_c, 4, 49, 84
9, 122984, Note_on_c, 4, 49, 0
9, 123000, Note_on_c, 4, 49, 84
9, 123104, Note_on_c, 4, 49, 0
9, 123120, Note_on_c, 4, 49, 92
9, 123224, Note_on_c, 4, 49, 0
9, 123240, Note_on_c, 4, 49, 84
9, 123344, Note_on_c, 4, 49, 0
9, 123360, Note_on_c, 4, 56, 84
9, 123360, Note_on_c, 4, 52, 84
9, 123464, Note_on_c, 4, 56, 0
9, 123464, Note_on_c, 4, 52, 0
9, 123480, Note_on_c, 4, 57, 84
9, 123584, Note_on_c, 4, 57, 0
9, 123600, Note_on_c, 4, 58, 84
9, 123704, Note_on_c, 4, 58, 0
9, 123720, Note_on_c, 4, 58, 84
9, 123824, Note_on_c, 4, 58, 0
9, 123840, Note_on_c, 4, 58, 84
9, 123944, Note_on_c, 4, 58, 0
9, 124920, Note_on_c, 4, 58, 84
9, 124920, Note_on_c, 4, 55, 84
9, 124971, Note_on_c, 4, 58, 0
9, 124971, Note_on_c, 4, 55, 0
9, 124980, Note_on_c, 4, 55, 84
9, 124980, Note_on_c, 4, 58, 84
9, 125031, Note_on_c, 4, 55, 0
9, 125031, Note_on_c, 4, 58, 0
9, 125040, Note_on_c, 4, 55, 84
9, 125040, Note_on_c, 4, 58, 84
9, 125159, Note_on_c, 4, 55, 0
9, 125159, Note_on_c, 4, 58, 0
9, 125760, Note_on_c, 4, 55, 84
9, 125760, Note_on_c, 4, 52, 84
9, 125879, Note_on_c, 4, 55, 0
9, 125879, Note_on_c, 4, 52, 0
9, 126120, Note_on_c, 4, 52, 92
9, 126120, Note_on_c, 4, 55, 92
9, 126239, Note_on_c, 4, 52, 0
9, 126239, Note_on_c, 4, 55, 0
9, 126240, Note_on_c, 4, 57, 84
9, 126240, Note_on_c, 4, 53, 84
9, 126359, Note_on_c, 4, 57, 0
9, 126359, Note_on_c, 4, 53, 0
9, 126600, Note_on_c, 4, 53, 92
9, 126600, Note_on_c, 4, 57, 92
9, 126719, Note_on_c, 4, 53, 0
9, 126719, Note_on_c, 4, 57, 0
9, 126720, Note_on_c, 4, 55, 84
9, 126720, Note_on_c, 4, 52, 84
9, 126839, Note_on_c, 4, 55, 0
9, 126839, Note_on_c, 4, 52, 0
9, 127080, Note_on_c, 4, 52, 92
9, 127080, Note_on_c, 4, 55, 92
9, 127199, Note_on_c, 4, 52, 0
9, 127199, Note_on_c, 4, 55, 0
9, 127200, Note_on_c, 4, 53, 84
9, 127200, Note_on_c, 4, 57, 84
9, 127319, Note_on_c, 4, 53, 0
9, 127319, Note_on_c, 4, 57, 0
9, 129120, Note_on_c, 4, 56, 84
9, 129120, Note_on_c, 4, 59, 84
9, 129239, Note_on_c, 4, 56, 0
9, 129239, Note_on_c, 4, 59, 0
9, 129480, Note_on_c, 4, 56, 92
9, 129480, Note_on_c, 4, 59, 92
9, 129599, Note_on_c, 4, 56, 0
9, 129599, Note_on_c, 4, 59, 0
9, 129600, Note_on_c, 4, 60, 84
9, 129600, Note_on_c, 4, 57, 84
9, 129719, Note_on_c, 4, 60, 0
9, 129719, Note_on_c, 4, 57, 0
9, 129960, Note_on_c, 4, 57, 92
9, 129960, Note_on_c, 4, 60, 92
9, 130079, Note_on_c, 4, 57, 0
9, 130079, Note_on_c, 4, 60, 0
9, 130080, Note_on_c, 4, 59, 84
9, 130080, Note_on_c, 4, 56, 84
9, 130199, Note_on_c, 4, 59, 0
9, 130199, Note_on_c, 4, 56, 0
9, 130440, Note_on_c, 4, 59, 92
9, 130440, Note_on_c, 4, 56, 92
9, 130559, Note_on_c, 4, 59, 0
9, 130559, Note_on_c, 4, 56, 0
9, 130560, Note_on_c, 4, 60, 84
9, 130560, Note_on_c, 4, 57, 84
9, 130679, Note_on_c, 4, 60, 0
9, 130679, Note_on_c, 4, 57, 0
9, 135360, Note_on_c, 4, 62, 76
9, 135360, Note_on_c, 4, 59, 76
9, 135479, Note_on_c, 4, 62, 0
9, 135479, Note_on_c, 4, 59, 0
9, 135720, Note_on_c, 4, 62, 84
9, 135720, Note_on_c, 4, 59, 84
9, 135839, Note_on_c, 4, 62, 0
9, 135839, Note_on_c, 4, 59, 0
9, 135840, Note_on_c, 4, 60, 76
9, 135840, Note_on_c, 4, 64, 76
9, 135959, Note_on_c, 4, 60, 0
9, 135959, Note_on_c, 4, 64, 0
9, 136200, Note_on_c, 4, 64, 84
9, 136200, Note_on_c, 4, 60, 84
9, 136319, Note_on_c, 4, 64, 0
9, 136319, Note_on_c, 4, 60, 0
9, 136320, Note_on_c, 4, 59, 76
9, 136320, Note_on_c, 4, 62, 76
9, 136439, Note_on_c, 4, 59, 0
9, 136439, Note_on_c, 4, 62, 0
9, 136680, Note_on_c, 4, 62, 84
9, 136680, Note_on_c, 4, 59, 84
9, 136799, Note_on_c, 4, 62, 0
9, 136799, Note_on_c, 4, 59, 0
9, 136800, Note_on_c, 4, 60, 76
9, 136800, Note_on_c, 4, 64, 76
9, 136919, Note_on_c, 4, 60, 0
9, 136919, Note_on_c, 4, 64, 0
9, 137160, Note_on_c, 4, 64, 84
9, 137160, Note_on_c, 4, 60, 84
9, 137279, Note_on_c, 4, 64, 0
9, 137279, Note_on_c, 4, 60, 0
9, 137280, Note_on_c, 4, 62, 76
9, 137280, Note_on_c, 4, 59, 76
9, 137399, Note_on_c, 4, 62, 0
9, 137399, Note_on_c, 4, 59, 0
9, 137640, Note_on_c, 4, 59, 84
9, 137640, Note_on_c, 4, 62, 84
9, 137759, Note_on_c, 4, 59, 0
9, 137759, Note_on_c, 4, 62, 0
9, 137760, Note_on_c, 4, 64, 76
9, 137760, Note_on_c, 4, 60, 76
9, 137879, Note_on_c, 4, 64, 0
9, 137879, Note_on_c, 4, 60, 0
9, 138120, Note_on_c, 4, 64, 84
9, 138120, Note_on_c, 4, 60, 84
9, 138239, Note_on_c, 4, 64, 0
9, 138239, Note_on_c, 4, 60, 0
9, 138240, Note_on_c, 4, 59, 76
9, 138240, Note_on_c, 4, 62, 76
9, 138359, Note_on_c, 4, 59, 0
9, 138359, Note_on_c, 4, 62, 0
9, 138600, Note_on_c, 4, 62, 84
9, 138600, Note_on_c, 4, 59, 84
9, 138719, Note_on_c, 4, 62, 0
9, 138719, Note_on_c, 4, 59, 0
9, 138720, Note_on_c, 4, 60, 76
9, 138720, Note_on_c, 4, 48, 76
9, 138824, Note_on_c, 4, 60, 0
9, 138824, Note_on_c, 4, 48, 0
9, 138840, Note_on_c, 4, 48, 76
9, 138840, Note_on_c, 4, 60, 76
9, 138891, Note_on_c, 4, 48, 0
9, 138891, Note_on_c, 4, 60, 0
9, 138900, Note_on_c, 4, 48, 76
9, 138900, Note_on_c, 4, 60, 76
9, 138951, Note_on_c, 4, 48, 0
9, 138951, Note_on_c, 4, 60, 0
9, 138960, Note_on_c, 4, 48, 76
9, 138960, Note_on_c, 4, 60, 76
9, 139079, Note_on_c, 4, 48, 0
9, 139079, Note_on_c, 4, 60, 0
9, 139200, Note_on_c, 4, 62, 76
9, 139200, Note_on_c, 4, 59, 76
9, 139439, Note_on_c, 4, 62, 0
9, 139439, Note_on_c, 4, 59, 0
9, 139560, Note_on_c, 4, 62, 84
9, 139560, Note_on_c, 4, 59, 84
9, 139679, Note_on_c, 4, 62, 0
9, 139679, Note_on_c, 4, 59, 0
9, 139680, Note_on_c, 4, 60, 76
9, 139680, Note_on_c, 4, 64, 76
9, 139799, Note_on_c, 4, 60, 0
9, 139799, Note_on_c, 4, 64, 0
9, 140040, Note_on_c, 4, 64, 84
9, 140040, Note_on_c, 4, 60, 84
9, 140159, Note_on_c, 4, 64, 0
9, 140159, Note_on_c, 4, 60, 0
9, 140160, Note_on_c, 4, 59, 76
9, 140160, Note_on_c, 4, 62, 76
9, 140279, Note_on_c, 4, 59, 0
9, 140279, Note_on_c, 4, 62, 0
9, 140520, Note_on_c, 4, 62, 84
9, 140520, Note_on_c, 4, 59, 84
9, 140639, Note_on_c, 4, 62, 0
9, 140639, Note_on_c, 4, 59, 0
9, 140640, Note_on_c, 4, 64, 76
9, 140640, Note_on_c, 4, 60, 76
9, 140759, Note_on_c, 4, 64, 0
9, 140759, Note_on_c, 4, 60, 0
9, 141000, Note_on_c, 4, 64, 84
9, 141000, Note_on_c, 4, 60, 84
9, 141119, Note_on_c, 4, 64, 0
9, 141119, Note_on_c, 4, 60, 0
9, 141120, Note_on_c, 4, 62, 76
9, 141120, Note_on_c, 4, 59, 76
9, 141239, Note_on_c, 4, 62, 0
9, 141239, Note_on_c, 4, 59, 0
9, 141480, Note_on_c, 4, 59, 84
9, 141480, Note_on_c, 4, 62, 84
9, 141599, Note_on_c, 4, 59, 0
9, 141599, Note_on_c, 4, 62, 0
9, 141600, Note_on_c, 4, 60, 76
9, 141600, Note_on_c, 4, 64, 76
9, 141719, Note_on_c, 4, 60, 0
9, 141719, Note_on_c, 4, 64, 0
9, 141960, Note_on_c, 4, 64, 84
9, 141960, Note_on_c, 4, 60, 84
9, 142079, Note_on_c, 4, 64, 0
9, 142079, Note_on_c, 4, 60, 0
9, 142080, Note_on_c, 4, 59, 76
9, 142080, Note_on_c, 4, 62, 76
9, 142199, Note_on_c, 4, 59, 0
9, 142199, Note_on_c, 4, 62, 0
9, 142440, Note_on_c, 4, 59, 84
9, 142440, Note_on_c, 4, 62, 84
9, 142559, Note_on_c, 4, 59, 0
9, 142559, Note_on_c, 4, 62, 0
9, 142560, Note_on_c, 4, 60, 76
9, 142560, Note_on_c, 4, 48, 76
9, 142664, Note_on_c, 4, 60, 0
9, 142664, Note_on_c, 4, 48, 0
9, 142680, Note_on_c, 4, 60, 76
9, 142680, Note_on_c, 4, 48, 76
9, 142731, Note_on_c, 4, 60, 0
9, 142731, Note_on_c, 4, 48, 0
9, 142740, Note_on_c, 4, 60, 76
9, 142740, Note_on_c, 4, 48, 76
9, 142791, Note_on_c, 4, 60, 0
9, 142791, Note_on_c, 4, 48, 0
9, 142800, Note_on_c, 4, 60, 76
9, 142800, Note_on_c, 4, 48, 76
9, 142919, Note_on_c, 4, 60, 0
9, 142919, Note_on_c, 4, 48, 0
9, 143040, Note_on_c, 4, 53, 84
9, 143040, Note_on_c, 4, 57, 84
9, 143279, Note_on_c, 4, 53, 0
9, 143279, Note_on_c, 4, 57, 0
9, 143400, Note_on_c, 4, 57, 92
9, 143400, Note_on_c, 4, 53, 92
9, 143519, Note_on_c, 4, 57, 0
9, 143519, Note_on_c, 4, 53, 0
9, 143520, Note_on_c, 4, 52, 84
9, 143520, Note_on_c, 4, 55, 84
9, 143759, Note_on_c, 4, 52, 0
9, 143759, Note_on_c, 4, 55, 0
9, 143880, Note_on_c, 4, 55, 92
9, 143880, Note_on_c, 4, 52, 92
9, 143999, Note_on_c, 4, 55, 0
9, 143999, Note_on_c, 4, 52, 0
9, 144000, Note_on_c, 4, 53, 84
9, 144000, Note_on_c, 4, 57, 84
9, 144239, Note_on_c, 4, 53, 0
9, 144239, Note_on_c, 4, 57, 0
9, 144360, Note_on_c, 4, 57, 92
9, 144360, Note_on_c, 4, 53, 92
9, 144479, Note_on_c, 4, 57, 0
9, 144479, Note_on_c, 4, 53, 0
9, 144480, Note_on_c, 4, 59, 84
9, 144480, Note_on_c, 4, 62, 84
9, 144599, Note_on_c, 4, 59, 0
9, 144599, Note_on_c, 4, 62, 0
9, 144840, Note_on_c, 4, 61, 92
9, 144840, Note_on_c, 4, 52, 92
9, 144959, Note_on_c, 4, 61, 0
9, 144959, Note_on_c, 4, 52, 0
9, 144960, Note_on_c, 4, 54, 84
9, 144960, Note_on_c, 4, 62, 84
9, 145079, Note_on_c, 4, 54, 0
9, 145079, Note_on_c, 4, 62, 0
9, 145320, Note_on_c, 4, 59, 92
9, 145320, Note_on_c, 4, 62, 92
9, 145439, Note_on_c, 4, 59, 0
9, 145439, Note_on_c, 4, 62, 0
9, 145440, Note_on_c, 4, 60, 84
9, 145440, Note_on_c, 4, 64, 84
9, 145559, Note_on_c, 4, 60, 0
9, 145559, Note_on_c, 4, 64, 0
9, 145800, Note_on_c, 4, 64, 92
9, 145800, Note_on_c, 4, 60, 92
9, 145919, Note_on_c, 4, 64, 0
9, 145919, Note_on_c, 4, 60, 0
9, 145920, Note_on_c, 4, 62, 84
9, 145920, Note_on_c, 4, 59, 84
9, 146039, Note_on_c, 4, 62, 0
9, 146039, Note_on_c, 4, 59, 0
9, 146280, Note_on_c, 4, 55, 92
9, 146280, Note_on_c, 4, 62, 92
9, 146399, Note_on_c, 4, 55, 0
9, 146399, Note_on_c, 4, 62, 0
9, 146400, Note_on_c, 4, 48, 84
9, 146400, Note_on_c, 4, 60, 84
9, 146504, Note_on_c, 4, 48, 0
9, 146504, Note_on_c, 4, 60, 0
9, 146520, Note_on_c, 4, 60, 84
9, 146520, Note_on_c, 4, 48, 84
9, 146571, Note_on_c, 4, 60, 0
9, 146571, Note_on_c, 4, 48, 0
9, 146580, Note_on_c, 4, 60, 84
9, 146580, Note_on_c, 4, 48, 84
9, 146631, Note_on_c, 4, 60, 0
9, 146631, Note_on_c, 4, 48, 0
9, 146640, Note_on_c, 4, 60, 84
9, 146640, Note_on_c, 4, 48, 84
9, 146759, Note_on_c, 4, 60, 0
9, 146759, Note_on_c, 4, 48, 0
9, 146880, Note_on_c, 4, 57, 84
9, 146880, Note_on_c, 4, 53, 84
9, 147119, Note_on_c, 4, 57, 0
9, 147119, Note_on_c, 4, 53, 0
9, 147240, Note_on_c, 4, 57, 92
9, 147240, Note_on_c, 4, 53, 92
9, 147359, Note_on_c, 4, 57, 0
9, 147359, Note_on_c, 4, 53, 0
9, 147360, Note_on_c, 4, 52, 84
9, 147360, Note_on_c, 4, 55, 84
9, 147599, Note_on_c, 4, 52, 0
9, 147599, Note_on_c, 4, 55, 0
9, 147720, Note_on_c, 4, 52, 92
9, 147720, Note_on_c, 4, 55, 92
9, 147839, Note_on_c, 4, 52, 0
9, 147839, Note_on_c, 4, 55, 0
9, 147840, Note_on_c, 4, 57, 84
9, 147840, Note_on_c, 4, 53, 84
9, 148079, Note_on_c, 4, 57, 0
9, 148079, Note_on_c, 4, 53, 0
9, 148200, Note_on_c, 4, 57, 92
9, 148200, Note_on_c, 4, 53, 92
9, 148319, Note_on_c, 4, 57, 0
9, 148319, Note_on_c, 4, 53, 0
9, 148320, Note_on_c, 4, 62, 84
9, 148320, Note_on_c, 4, 59, 84
9, 148439, Note_on_c, 4, 62, 0
9, 148439, Note_on_c, 4, 59, 0
9, 148680, Note_on_c, 4, 52, 92
9, 148680, Note_on_c, 4, 61, 92
9, 148799, Note_on_c, 4, 52, 0
9, 148799, Note_on_c, 4, 61, 0
9, 148800, Note_on_c, 4, 62, 84
9, 148800, Note_on_c, 4, 54, 84
9, 148919, Note_on_c, 4, 62, 0
9, 148919, Note_on_c, 4, 54, 0
9, 149160, Note_on_c, 4, 59, 92
9, 149160, Note_on_c, 4, 62, 92
9, 149279, Note_on_c, 4, 59, 0
9, 149279, Note_on_c, 4, 62, 0
9, 149280, Note_on_c, 4, 64, 84
9, 149280, Note_on_c, 4, 60, 84
9, 149399, Note_on_c, 4, 64, 0
9, 149399, Note_on_c, 4, 60, 0
9, 149640, Note_on_c, 4, 60, 92
9, 149640, Note_on_c, 4, 64, 92
9, 149759, Note_on_c, 4, 60, 0
9, 149759, Note_on_c, 4, 64, 0
9, 149760, Note_on_c, 4, 59, 84
9, 149760, Note_on_c, 4, 62, 84
9, 149879, Note_on_c, 4, 59, 0
9, 149879, Note_on_c, 4, 62, 0
9, 150120, Note_on_c, 4, 62, 92
9, 150120, Note_on_c, 4, 55, 92
9, 150239, Note_on_c, 4, 62, 0
9, 150239, Note_on_c, 4, 55, 0
9, 150240, Note_on_c, 4, 60, 84
9, 150240, Note_on_c, 4, 48, 84
9, 150344, Note_on_c, 4, 60, 0
9, 150344, Note_on_c, 4, 48, 0
9, 150360, Note_on_c, 4, 64, 84
9, 150360, Note_on_c, 4, 67, 84
9, 150411, Note_on_c, 4, 64, 0
9, 150411, Note_on_c, 4, 67, 0
9, 150420, Note_on_c, 4, 67, 84
9, 150420, Note_on_c, 4, 64, 84
9, 150471, Note_on_c, 4, 67, 0
9, 150471, Note_on_c, 4, 64, 0
9, 150480, Note_on_c, 4, 67, 84
9, 150480, Note_on_c, 4, 64, 84
9, 150599, Note_on_c, 4, 67, 0
9, 150599, Note_on_c, 4, 64, 0
9, 150840, Note_on_c, 4, 62, 84
9, 150840, Note_on_c, 4, 65, 84
9, 150891, Note_on_c, 4, 62, 0
9, 150891, Note_on_c, 4, 65, 0
9, 150900, Note_on_c, 4, 65, 84
9, 150900, Note_on_c, 4, 62, 84
9, 150951, Note_on_c, 4, 65, 0
9, 150951, Note_on_c, 4, 62, 0
9, 150960, Note_on_c, 4, 65, 84
9, 150960, Note_on_c, 4, 62, 84
9, 151079, Note_on_c, 4, 65, 0
9, 151079, Note_on_c, 4, 62, 0
9, 151320, Note_on_c, 4, 64, 84
9, 151320, Note_on_c, 4, 60, 84
9, 151371, Note_on_c, 4, 64, 0
9, 151371, Note_on_c, 4, 60, 0
9, 151380, Note_on_c, 4, 64, 84
9, 151380, Note_on_c, 4, 60, 84
9, 151431, Note_on_c, 4, 64, 0
9, 151431, Note_on_c, 4, 60, 0
9, 151440, Note_on_c, 4, 60, 84
9, 151440, Note_on_c, 4, 64, 84
9, 151559, Note_on_c, 4, 60, 0
9, 151559, Note_on_c, 4, 64, 0
9, 151800, Note_on_c, 4, 60, 84
9, 151800, Note_on_c, 4, 64, 84
9, 151851, Note_on_c, 4, 60, 0
9, 151851, Note_on_c, 4, 64, 0
9, 151860, Note_on_c, 4, 64, 84
9, 151860, Note_on_c, 4, 60, 84
9, 151911, Note_on_c, 4, 64, 0
9, 151911, Note_on_c, 4, 60, 0
9, 151920, Note_on_c, 4, 62, 84
9, 151920, Note_on_c, 4, 59, 84
9, 152039, Note_on_c, 4, 62, 0
9, 152039, Note_on_c, 4, 59, 0
9, 152400, Note_on_c, 4, 60, 92
9, 152639, Note_on_c, 4, 60, 0
9, 152640, Note_on_c, 4, 65, 84
9, 152759, Note_on_c, 4, 65, 0
9, 152880, Note_on_c, 4, 57, 92
9, 153119, Note_on_c, 4, 57, 0
9, 153120, Note_on_c, 4, 62, 84
9, 153239, Note_on_c, 4, 62, 0
9, 153360, Note_on_c, 4, 55, 92
9, 153599, Note_on_c, 4, 55, 0
9, 153600, Note_on_c, 4, 58, 84
9, 153719, Note_on_c, 4, 58, 0
9, 153840, Note_on_c, 4, 52, 92
9, 154079, Note_on_c, 4, 52, 0
9, 154080, Note_on_c, 4, 53, 84
9, 154184, Note_on_c, 4, 53, 0
9, 154200, Note_on_c, 4, 53, 84
9, 154200, Note_on_c, 4, 65, 84
9, 154251, Note_on_c, 4, 53, 0
9, 154251, Note_on_c, 4, 65, 0
9, 154260, Note_on_c, 4, 53, 84
9, 154260, Note_on_c, 4, 65, 84
9, 154311, Note_on_c, 4, 53, 0
9, 154311, Note_on_c, 4, 65, 0
9, 154320, Note_on_c, 4, 65, 84
9, 154320, Note_on_c, 4, 53, 84
9, 154439, Note_on_c, 4, 65, 0
9, 154439, Note_on_c, 4, 53, 0
9, 154680, Note_on_c, 4, 50, 84
9, 154680, Note_on_c, 4, 62, 84
9, 154731, Note_on_c, 4, 50, 0
9, 154731, Note_on_c, 4, 62, 0
9, 154740, Note_on_c, 4, 62, 84
9, 154740, Note_on_c, 4, 50, 84
9, 154791, Note_on_c, 4, 62, 0
9, 154791, Note_on_c, 4, 50, 0
9, 154800, Note_on_c, 4, 50, 84
9, 154800, Note_on_c, 4, 62, 84
9, 154919, Note_on_c, 4, 50, 0
9, 154919, Note_on_c, 4, 62, 0
9, 155160, Note_on_c, 4, 55, 84
9, 155160, Note_on_c, 4, 43, 84
9, 155211, Note_on_c, 4, 55, 0
9, 155211, Note_on_c, 4, 43, 0
9, 155220, Note_on_c, 4, 55, 84
9, 155220, Note_on_c, 4, 43, 84
9, 155271, Note_on_c, 4, 55, 0
9, 155271, Note_on_c, 4, 43, 0
9, 155280, Note_on_c, 4, 43, 84
9, 155280, Note_on_c, 4, 55, 84
9, 155399, Note_on_c, 4, 43, 0
9, 155399, Note_on_c, 4, 55, 0
9, 155640, Note_on_c, 4, 64, 84
9, 155640, Note_on_c, 4, 61, 84
9, 155691, Note_on_c, 4, 64, 0
9, 155691, Note_on_c, 4, 61, 0
9, 155700, Note_on_c, 4, 64, 84
9, 155700, Note_on_c, 4, 61, 84
9, 155751, Note_on_c, 4, 64, 0
9, 155751, Note_on_c, 4, 61, 0
9, 155760, Note_on_c, 4, 61, 84
9, 155760, Note_on_c, 4, 64, 84
9, 155879, Note_on_c, 4, 61, 0
9, 155879, Note_on_c, 4, 64, 0
9, 156000, Note_on_c, 4, 65, 84
9, 156000, Note_on_c, 4, 62, 84
9, 156119, Note_on_c, 4, 65, 0
9, 156119, Note_on_c, 4, 62, 0
9, 156240, Note_on_c, 4, 62, 92
9, 156479, Note_on_c, 4, 62, 0
9, 156480, Note_on_c, 4, 65, 84
9, 156599, Note_on_c, 4, 65, 0
9, 156720, Note_on_c, 4, 57, 92
9, 156959, Note_on_c, 4, 57, 0
9, 156960, Note_on_c, 4, 62, 84
9, 157079, Note_on_c, 4, 62, 0
9, 157200, Note_on_c, 4, 53, 92
9, 157439, Note_on_c, 4, 53, 0
9, 157440, Note_on_c, 4, 57, 84
9, 157559, Note_on_c, 4, 57, 0
9, 157680, Note_on_c, 4, 50, 92
9, 157919, Note_on_c, 4, 50, 0
9, 157920, Note_on_c, 4, 53, 84
9, 158039, Note_on_c, 4, 53, 0
9, 158160, Note_on_c, 4, 57, 92
9, 158160, Note_on_c, 4, 45, 92
9, 158399, Note_on_c, 4, 57, 0
9, 158399, Note_on_c, 4, 45, 0
9, 158400, Note_on_c, 4, 50, 84
9, 158400, Note_on_c, 4, 62, 84
9, 158519, Note_on_c, 4, 50, 0
9, 158519, Note_on_c, 4, 62, 0
9, 158640, Note_on_c, 4, 41, 84
9, 158640, Note_on_c, 4, 53, 84
9, 158879, Note_on_c, 4, 41, 0
9, 158879, Note_on_c, 4, 53, 0
9, 158880, Note_on_c, 4, 45, 84
9, 158880, Note_on_c, 4, 57, 84
9, 158999, Note_on_c, 4, 45, 0
9, 158999, Note_on_c, 4, 57, 0
9, 159120, Note_on_c, 4, 41, 84
9, 159120, Note_on_c, 4, 53, 84
9, 159359, Note_on_c, 4, 41, 0
9, 159359, Note_on_c, 4, 53, 0
9, 159360, Note_on_c, 4, 45, 84
9, 159360, Note_on_c, 4, 57, 84
9, 159479, Note_on_c, 4, 45, 0
9, 159479, Note_on_c, 4, 57, 0
9, 159600, Note_on_c, 4, 42, 84
9, 159600, Note_on_c, 4, 54, 84
9, 159839, Note_on_c, 4, 42, 0
9, 159839, Note_on_c, 4, 54, 0
9, 159840, Note_on_c, 4, 57, 84
9, 159840, Note_on_c, 4, 45, 84
9, 159959, Note_on_c, 4, 57, 0
9, 159959, Note_on_c, 4, 45, 0
9, 160080, Note_on_c, 4, 54, 84
9, 160080, Note_on_c, 4, 42, 84
9, 160319, Note_on_c, 4, 54, 0
9, 160319, Note_on_c, 4, 42, 0
9, 160320, Note_on_c, 4, 46, 84
9, 160320, Note_on_c, 4, 58, 84
9, 160439, Note_on_c, 4, 46, 0
9, 160439, Note_on_c, 4, 58, 0
9, 160560, Note_on_c, 4, 43, 84
9, 160560, Note_on_c, 4, 55, 84
9, 160799, Note_on_c, 4, 43, 0
9, 160799, Note_on_c, 4, 55, 0
9, 160800, Note_on_c, 4, 46, 84
9, 160800, Note_on_c, 4, 58, 84
9, 160919, Note_on_c, 4, 46, 0
9, 160919, Note_on_c, 4, 58, 0
9, 161040, Note_on_c, 4, 43, 84
9, 161040, Note_on_c, 4, 55, 84
9, 161279, Note_on_c, 4, 43, 0
9, 161279, Note_on_c, 4, 55, 0
9, 161280, Note_on_c, 4, 47, 84
9, 161280, Note_on_c, 4, 59, 84
9, 161399, Note_on_c, 4, 47, 0
9, 161399, Note_on_c, 4, 59, 0
9, 161520, Note_on_c, 4, 44, 84
9, 161520, Note_on_c, 4, 56, 84
9, 161759, Note_on_c, 4, 44, 0
9, 161759, Note_on_c, 4, 56, 0
9, 161760, Note_on_c, 4, 47, 84
9, 161760, Note_on_c, 4, 59, 84
9, 161879, Note_on_c, 4, 47, 0
9, 161879, Note_on_c, 4, 59, 0
9, 162000, Note_on_c, 4, 44, 84
9, 162000, Note_on_c, 4, 56, 84
9, 162239, Note_on_c, 4, 44, 0
9, 162239, Note_on_c, 4, 56, 0
9, 162240, Note_on_c, 4, 60, 84
9, 162240, Note_on_c, 4, 48, 84
9, 162359, Note_on_c, 4, 60, 0
9, 162359, Note_on_c, 4, 48, 0
9, 162480, Note_on_c, 4, 57, 84
9, 162480, Note_on_c, 4, 45, 84
9, 162719, Note_on_c, 4, 57, 0
9, 162719, Note_on_c, 4, 45, 0
9, 162720, Note_on_c, 4, 61, 84
9, 162720, Note_on_c, 4, 49, 84
9, 162839, Note_on_c, 4, 61, 0
9, 162839, Note_on_c, 4, 49, 0
9, 162960, Note_on_c, 4, 46, 84
9, 162960, Note_on_c, 4, 58, 84
9, 163199, Note_on_c, 4, 46, 0
9, 163199, Note_on_c, 4, 58, 0
9, 163200, Note_on_c, 4, 50, 84
9, 163200, Note_on_c, 4, 62, 84
9, 163319, Note_on_c, 4, 50, 0
9, 163319, Note_on_c, 4, 62, 0
9, 163440, Note_on_c, 4, 59, 84
9, 163440, Note_on_c, 4, 47, 84
9, 163679, Note_on_c, 4, 59, 0
9, 163679, Note_on_c, 4, 47, 0
9, 163680, Note_on_c, 4, 51, 84
9, 163680, Note_on_c, 4, 63, 84
9, 163799, Note_on_c, 4, 51, 0
9, 163799, Note_on_c, 4, 63, 0
9, 163920, Note_on_c, 4, 48, 84
9, 163920, Note_on_c, 4, 60, 84
9, 164159, Note_on_c, 4, 48, 0
9, 164159, Note_on_c, 4, 60, 0
9, 164160, Note_on_c, 4, 64, 84
9, 164160, Note_on_c, 4, 52, 84
9, 164279, Note_on_c, 4, 64, 0
9, 164279, Note_on_c, 4, 52, 0
9, 164400, Note_on_c, 4, 61, 84
9, 164400, Note_on_c, 4, 49, 84
9, 164639, Note_on_c, 4, 61, 0
9, 164639, Note_on_c, 4, 49, 0
9, 164640, Note_on_c, 4, 52, 84
9, 164640, Note_on_c, 4, 64, 84
9, 164759, Note_on_c, 4, 52, 0
9, 164759, Note_on_c, 4, 64, 0
9, 164880, Note_on_c, 4, 50, 84
9, 164880, Note_on_c, 4, 62, 84
9, 165119, Note_on_c, 4, 50, 0
9, 165119, Note_on_c, 4, 62, 0
9, 165120, Note_on_c, 4, 52, 84
9, 165120, Note_on_c, 4, 64, 84
9, 165239, Note_on_c, 4, 52, 0
9, 165239, Note_on_c, 4, 64, 0
9, 165360, Note_on_c, 4, 51, 84
9, 165360, Note_on_c, 4, 63, 84
9, 165599, Note_on_c, 4, 51, 0
9, 165599, Note_on_c, 4, 63, 0
9, 165600, Note_on_c, 4, 64, 84
9, 165600, Note_on_c, 4, 52, 84
9, 165719, Note_on_c, 4, 64, 0
9, 165719, Note_on_c, 4, 52, 0
9, 165840, Note_on_c, 4, 63, 84
9, 165840, Note_on_c, 4, 51, 84
9, 166079, Note_on_c, 4, 63, 0
9, 166079, Note_on_c, 4, 51, 0
9, 166080, Note_on_c, 4, 52, 84
9, 166080, Note_on_c, 4, 64, 84
9, 166199, Note_on_c, 4, 52, 0
9, 166199, Note_on_c, 4, 64, 0
9, 166320, Note_on_c, 4, 51, 84
9, 166320, Control_c, 4, 11, 127
9, 166365, Control_c, 4, 11, 125
9, 166410, Control_c, 4, 11, 124
9, 166455, Control_c, 4, 11, 122
9, 166500, Control_c, 4, 11, 120
9, 166545, Control_c, 4, 11, 119
9, 166559, Note_on_c, 4, 51, 0
9, 166560, Note_on_c, 4, 52, 84
9, 166590, Control_c, 4, 11, 117
9, 166635, Control_c, 4, 11, 115
9, 166679, Note_on_c, 4, 52, 0
9, 166680, Control_c, 4, 11, 114
9, 166725, Control_c, 4, 11, 112
9, 166770, Control_c, 4, 11, 111
9, 166800, Note_on_c, 4, 51, 84
9, 166815, Control_c, 4, 11, 109
9, 166860, Control_c, 4, 11, 107
9, 166905, Control_c, 4, 11, 106
9, 166950, Control_c, 4, 11, 104
9, 166995, Control_c, 4, 11, 102
9, 167039, Note_on_c, 4, 51, 0
9, 167040, Note_on_c, 4, 52, 84
9, 167040, Control_c, 4, 11, 101
9, 167085, Control_c, 4, 11, 99
9, 167130, Control_c, 4, 11, 97
9, 167159, Note_on_c, 4, 52, 0
9, 167175, Control_c, 4, 11, 96
9, 167220, Control_c, 4, 11, 94
9, 167265, Control_c, 4, 11, 92
9, 167280, Note_on_c, 4, 51, 84
9, 167310, Control_c, 4, 11, 91
9, 167355, Control_c, 4, 11, 89
9, 167400, Control_c, 4, 11, 88
9, 167445, Control_c, 4, 11, 86
9, 167490, Control_c, 4, 11, 84
9, 167519, Note_on_c, 4, 51, 0
9, 167520, Note_on_c, 4, 52, 84
9, 167535, Control_c, 4, 11, 83
9, 167580, Control_c, 4, 11, 81
9, 167625, Control_c, 4, 11, 79
9, 167639, Note_on_c, 4, 52, 0
9, 167670, Control_c, 4, 11, 78
9, 167715, Control_c, 4, 11, 76
9, 167760, Note_on_c, 4, 52, 84
9, 167760, Control_c, 4, 11, 74
9, 167805, Control_c, 4, 11, 73
9, 167850, Control_c, 4, 11, 71
9, 167895, Control_c, 4, 11, 69
9, 167940, Control_c, 4, 11, 68
9, 167985, Control_c, 4, 11, 66
9, 167999, Note_on_c, 4, 52, 0
9, 168000, Note_on_c, 4, 53, 84
9, 168030, Control_c, 4, 11, 64
9, 168075, Control_c, 4, 11, 63
9, 168119, Note_on_c, 4, 53, 0
9, 168120, Control_c, 4, 11, 61
9, 168435, Control_c, 4, 11, 127
9, 168480, Note_on_c, 4, 65, 44
9, 168584, Note_on_c, 4, 65, 0
9, 168600, Note_on_c, 4, 65, 44
9, 168651, Note_on_c, 4, 65, 0
9, 168660, Note_on_c, 4, 65, 44
9, 168711, Note_on_c, 4, 65, 0
9, 168720, Note_on_c, 4, 65, 44
9, 168839, Note_on_c, 4, 65, 0
9, 169440, Note_on_c, 4, 65, 44
9, 169544, Note_on_c, 4, 65, 0
9, 169560, Note_on_c, 4, 65, 44
9, 169611, Note_on_c, 4, 65, 0
9, 169620, Note_on_c, 4, 65, 44
9, 169671, Note_on_c, 4, 65, 0
9, 169680, Note_on_c, 4, 65, 44
9, 169799, Note_on_c, 4, 65, 0
9, 169920, Note_on_c, 4, 65, 44
9, 170039, Note_on_c, 4, 65, 0
9, 170160, Note_on_c, 4, 65, 44
9, 170519, Note_on_c, 4, 65, 0
9, 170640, Note_on_c, 4, 65, 44
9, 170999, Note_on_c, 4, 65, 0
9, 171120, Note_on_c, 4, 65, 44
9, 171479, Note_on_c, 4, 65, 0
9, 171600, Note_on_c, 4, 65, 44
9, 173399, Note_on_c, 4, 65, 0
9, 173760, Note_on_c, 4, 65, 44
9, 173864, Note_on_c, 4, 65, 0
9, 173880, Note_on_c, 4, 65, 44
9, 173931, Note_on_c, 4, 65, 0
9, 173940, Note_on_c, 4, 65, 44
9, 173991, Note_on_c, 4, 65, 0
9, 174000, Note_on_c, 4, 65, 44
9, 174119, Note_on_c, 4, 65, 0
9, 174720, Note_on_c, 4, 65, 44
9, 174824, Note_on_c, 4, 65, 0
9, 174840, Note_on_c, 4, 65, 44
9, 174891, Note_on_c, 4, 65, 0
9, 174900, Note_on_c, 4, 65, 44
9, 174951, Note_on_c, 4, 65, 0
9, 174960, Note_on_c, 4, 65, 44
9, 175079, Note_on_c, 4, 65, 0
9, 175200, Note_on_c, 4, 65, 44
9, 175319, Note_on_c, 4, 65, 0
9, 175440, Note_on_c, 4, 65, 44
9, 175799, Note_on_c, 4, 65, 0
9, 175920, Note_on_c, 4, 65, 44
9, 176279, Note_on_c, 4, 65, 0
9, 176400, Note_on_c, 4, 65, 44
9, 176758, Control_c, 4, 11, 48
9, 176759, Note_on_c, 4, 65, 0
9, 176880, Note_on_c, 4, 65, 84
9, 176915, Control_c, 4, 11, 50
9, 176950, Control_c, 4, 11, 51
9, 176985, Control_c, 4, 11, 53
9, 177020, Control_c, 4, 11, 55
9, 177055, Control_c, 4, 11, 56
9, 177090, Control_c, 4, 11, 58
9, 177125, Control_c, 4, 11, 60
9, 177160, Control_c, 4, 11, 61
9, 177195, Control_c, 4, 11, 63
9, 177230, Control_c, 4, 11, 64
9, 177265, Control_c, 4, 11, 66
9, 177300, Control_c, 4, 11, 68
9, 177335, Control_c, 4, 11, 69
9, 177370, Control_c, 4, 11, 71
9, 177405, Control_c, 4, 11, 73
9, 177440, Control_c, 4, 11, 74
9, 177475, Control_c, 4, 11, 76
9, 177510, Control_c, 4, 11, 78
9, 177545, Control_c, 4, 11, 79
9, 177580, Control_c, 4, 11, 81
9, 177615, Control_c, 4, 11, 83
9, 177650, Control_c, 4, 11, 84
9, 177685, Control_c, 4, 11, 86
9, 177720, Control_c, 4, 11, 88
9, 177755, Control_c, 4, 11, 89
9, 177790, Control_c, 4, 11, 91
9, 177825, Control_c, 4, 11, 92
9, 177860, Control_c, 4, 11, 94
9, 177895, Control_c, 4, 11, 96
9, 177930, Control_c, 4, 11, 97
9, 177965, Control_c, 4, 11, 99
9, 178000, Control_c, 4, 11, 101
9, 178035, Control_c, 4, 11, 102
9, 178070, Control_c, 4, 11, 104
9, 178105, Control_c, 4, 11, 106
9, 178140, Control_c, 4, 11, 107
9, 178175, Control_c, 4, 11, 109
9, 178210, Control_c, 4, 11, 111
9, 178245, Control_c, 4, 11, 112
9, 178280, Control_c, 4, 11, 114
9, 178315, Control_c, 4, 11, 115
9, 178350, Control_c, 4, 11, 117
9, 178385, Control_c, 4, 11, 119
9, 178420, Control_c, 4, 11, 120
9, 178455, Control_c, 4, 11, 122
9, 178490, Control_c, 4, 11, 124
9, 178525, Control_c, 4, 11, 127
9, 178559, Note_on_c, 4, 65, 0
9, 178560, Note_on_c, 4, 64, 84
9, 178664, Note_on_c, 4, 64, 0
9, 178680, Note_on_c, 4, 64, 84
9, 178680, Note_on_c, 4, 52, 84
9, 178731, Note_on_c, 4, 64, 0
9, 178731, Note_on_c, 4, 52, 0
9, 178740, Note_on_c, 4, 52, 84
9, 178740, Note_on_c, 4, 64, 84
9, 178791, Note_on_c, 4, 52, 0
9, 178791, Note_on_c, 4, 64, 0
9, 178800, Note_on_c, 4, 52, 84
9, 178800, Note_on_c, 4, 64, 84
9, 178919, Note_on_c, 4, 52, 0
9, 178919, Note_on_c, 4, 64, 0
9, 179520, Note_on_c, 4, 59, 84
9, 179520, Note_on_c, 4, 62, 84
9, 179624, Note_on_c, 4, 59, 0
9, 179624, Note_on_c, 4, 62, 0
9, 179640, Note_on_c, 4, 59, 84
9, 179640, Note_on_c, 4, 62, 84
9, 179691, Note_on_c, 4, 59, 0
9, 179691, Note_on_c, 4, 62, 0
9, 179700, Note_on_c, 4, 59, 84
9, 179700, Note_on_c, 4, 62, 84
9, 179751, Note_on_c, 4, 59, 0
9, 179751, Note_on_c, 4, 62, 0
9, 179760, Note_on_c, 4, 59, 84
9, 179760, Note_on_c, 4, 62, 84
9, 179879, Note_on_c, 4, 59, 0
9, 179879, Note_on_c, 4, 62, 0
9, 180480, Note_on_c, 4, 56, 84
9, 180480, Note_on_c, 4, 59, 84
9, 180599, Note_on_c, 4, 56, 0
9, 180599, Note_on_c, 4, 59, 0
9, 180840, Note_on_c, 4, 59, 92
9, 180840, Note_on_c, 4, 56, 92
9, 180959, Note_on_c, 4, 59, 0
9, 180959, Note_on_c, 4, 56, 0
9, 180960, Note_on_c, 4, 61, 84
9, 180960, Note_on_c, 4, 57, 84
9, 181079, Note_on_c, 4, 61, 0
9, 181079, Note_on_c, 4, 57, 0
9, 181320, Note_on_c, 4, 61, 92
9, 181320, Note_on_c, 4, 57, 92
9, 181439, Note_on_c, 4, 61, 0
9, 181439, Note_on_c, 4, 57, 0
9, 181440, Note_on_c, 4, 56, 84
9, 181440, Note_on_c, 4, 59, 84
9, 181559, Note_on_c, 4, 56, 0
9, 181559, Note_on_c, 4, 59, 0
9, 181800, Note_on_c, 4, 59, 92
9, 181800, Note_on_c, 4, 56, 92
9, 181919, Note_on_c, 4, 59, 0
9, 181919, Note_on_c, 4, 56, 0
9, 181920, Note_on_c, 4, 57, 84
9, 181920, Note_on_c, 4, 61, 84
9, 182039, Note_on_c, 4, 57, 0
9, 182039, Note_on_c, 4, 61, 0
9, 182280, Note_on_c, 4, 57, 92
9, 182280, Note_on_c, 4, 61, 92
9, 182399, Note_on_c, 4, 57, 0
9, 182399, Note_on_c, 4, 61, 0
9, 182400, Note_on_c, 4, 59, 84
9, 182400, Note_on_c, 4, 56, 84
9, 182519, Note_on_c, 4, 59, 0
9, 182519, Note_on_c, 4, 56, 0
9, 182760, Note_on_c, 4, 59, 92
9, 182760, Note_on_c, 4, 56, 92
9, 182879, Note_on_c, 4, 59, 0
9, 182879, Note_on_c, 4, 56, 0
9, 182880, Note_on_c, 4, 61, 84
9, 182880, Note_on_c, 4, 57, 84
9, 182999, Note_on_c, 4, 61, 0
9, 182999, Note_on_c, 4, 57, 0
9, 183240, Note_on_c, 4, 61, 92
9, 183240, Note_on_c, 4, 57, 92
9, 183359, Note_on_c, 4, 61, 0
9, 183359, Note_on_c, 4, 57, 0
9, 183360, Note_on_c, 4, 59, 84
9, 183360, Note_on_c, 4, 56, 84
9, 183479, Note_on_c, 4, 59, 0
9, 183479, Note_on_c, 4, 56, 0
9, 183720, Note_on_c, 4, 59, 92
9, 183720, Note_on_c, 4, 56, 92
9, 183839, Note_on_c, 4, 59, 0
9, 183839, Note_on_c, 4, 56, 0
9, 183840, Note_on_c, 4, 57, 84
9, 183944, Note_on_c, 4, 57, 0
9, 184320, Note_on_c, 4, 56, 84
9, 184320, Note_on_c, 4, 59, 84
9, 184439, Note_on_c, 4, 56, 0
9, 184439, Note_on_c, 4, 59, 0
9, 184680, Note_on_c, 4, 59, 92
9, 184680, Note_on_c, 4, 56, 92
9, 184799, Note_on_c, 4, 59, 0
9, 184799, Note_on_c, 4, 56, 0
9, 184800, Note_on_c, 4, 61, 84
9, 184800, Note_on_c, 4, 57, 84
9, 184919, Note_on_c, 4, 61, 0
9, 184919, Note_on_c, 4, 57, 0
9, 185160, Note_on_c, 4, 61, 92
9, 185160, Note_on_c, 4, 57, 92
9, 185279, Note_on_c, 4, 61, 0
9, 185279, Note_on_c, 4, 57, 0
9, 185280, Note_on_c, 4, 59, 84
9, 185280, Note_on_c, 4, 56, 84
9, 185399, Note_on_c, 4, 59, 0
9, 185399, Note_on_c, 4, 56, 0
9, 185640, Note_on_c, 4, 56, 92
9, 185640, Note_on_c, 4, 59, 92
9, 185759, Note_on_c, 4, 56, 0
9, 185759, Note_on_c, 4, 59, 0
9, 185760, Note_on_c, 4, 57, 84
9, 185760, Note_on_c, 4, 61, 84
9, 185879, Note_on_c, 4, 57, 0
9, 185879, Note_on_c, 4, 61, 0
9, 186120, Note_on_c, 4, 61, 92
9, 186120, Note_on_c, 4, 57, 92
9, 186239, Note_on_c, 4, 61, 0
9, 186239, Note_on_c, 4, 57, 0
9, 186240, Note_on_c, 4, 59, 84
9, 186240, Note_on_c, 4, 56, 84
9, 186359, Note_on_c, 4, 59, 0
9, 186359, Note_on_c, 4, 56, 0
9, 186600, Note_on_c, 4, 56, 92
9, 186600, Note_on_c, 4, 59, 92
9, 186719, Note_on_c, 4, 56, 0
9, 186719, Note_on_c, 4, 59, 0
9, 186720, Note_on_c, 4, 61, 84
9, 186720, Note_on_c, 4, 57, 84
9, 186839, Note_on_c, 4, 61, 0
9, 186839, Note_on_c, 4, 57, 0
9, 187080, Note_on_c, 4, 57, 92
9, 187080, Note_on_c, 4, 61, 92
9, 187199, Note_on_c, 4, 57, 0
9, 187199, Note_on_c, 4, 61, 0
9, 187200, Note_on_c, 4, 59, 84
9, 187200, Note_on_c, 4, 56, 84
9, 187319, Note_on_c, 4, 59, 0
9, 187319, Note_on_c, 4, 56, 0
9, 187560, Note_on_c, 4, 56, 92
9, 187560, Note_on_c, 4, 59, 92
9, 187679, Note_on_c, 4, 56, 0
9, 187679, Note_on_c, 4, 59, 0
9, 187680, Note_on_c, 4, 57, 84
9, 187784, Note_on_c, 4, 57, 0
9, 188160, Note_on_c, 4, 45, 84
9, 188160, Note_on_c, 4, 57, 84
9, 188279, Note_on_c, 4, 45, 0
9, 188279, Note_on_c, 4, 57, 0
9, 188760, Note_on_c, 4, 59, 84
9, 188760, Note_on_c, 4, 56, 84
9, 188811, Note_on_c, 4, 59, 0
9, 188811, Note_on_c, 4, 56, 0
9, 188820, Note_on_c, 4, 56, 84
9, 188820, Note_on_c, 4, 59, 84
9, 188871, Note_on_c, 4, 56, 0
9, 188871, Note_on_c, 4, 59, 0
9, 188880, Note_on_c, 4, 56, 84
9, 188880, Note_on_c, 4, 59, 84
9, 188999, Note_on_c, 4, 56, 0
9, 188999, Note_on_c, 4, 59, 0
9, 189240, Note_on_c, 4, 59, 84
9, 189240, Note_on_c, 4, 56, 84
9, 189291, Note_on_c, 4, 59, 0
9, 189291, Note_on_c, 4, 56, 0
9, 189300, Note_on_c, 4, 59, 84
9, 189300, Note_on_c, 4, 56, 84
9, 189351, Note_on_c, 4, 59, 0
9, 189351, Note_on_c, 4, 56, 0
9, 189360, Note_on_c, 4, 59, 84
9, 189360, Note_on_c, 4, 56, 84
9, 189479, Note_on_c, 4, 59, 0
9, 189479, Note_on_c, 4, 56, 0
9, 189600, Note_on_c, 4, 64, 84
9, 189600, Note_on_c, 4, 61, 84
9, 189944, Note_on_c, 4, 64, 0
9, 189944, Note_on_c, 4, 61, 0
9, 189960, Note_on_c, 4, 62, 84
9, 189960, Note_on_c, 4, 59, 84
9, 190049, Note_on_c, 4, 62, 0
9, 190049, Note_on_c, 4, 59, 0
9, 190080, Note_on_c, 4, 57, 84
9, 190080, Note_on_c, 4, 61, 84
9, 190169, Note_on_c, 4, 57, 0
9, 190169, Note_on_c, 4, 61, 0
9, 190200, Note_on_c, 4, 61, 84
9, 190200, Note_on_c, 4, 64, 84
9, 190289, Note_on_c, 4, 61, 0
9, 190289, Note_on_c, 4, 64, 0
9, 190320, Note_on_c, 4, 59, 84
9, 190320, Note_on_c, 4, 62, 84
9, 190409, Note_on_c, 4, 59, 0
9, 190409, Note_on_c, 4, 62, 0
9, 190440, Note_on_c, 4, 61, 84
9, 190440, Note_on_c, 4, 57, 84
9, 190529, Note_on_c, 4, 61, 0
9, 190529, Note_on_c, 4, 57, 0
9, 190560, Note_on_c, 4, 62, 84
9, 190560, Note_on_c, 4, 59, 84
9, 190649, Note_on_c, 4, 62, 0
9, 190649, Note_on_c, 4, 59, 0
9, 190680, Note_on_c, 4, 57, 84
9, 190680, Note_on_c, 4, 61, 84
9, 190769, Note_on_c, 4, 57, 0
9, 190769, Note_on_c, 4, 61, 0
9, 190800, Note_on_c, 4, 59, 84
9, 190800, Note_on_c, 4, 56, 84
9, 190889, Note_on_c, 4, 59, 0
9, 190889, Note_on_c, 4, 56, 0
9, 190920, Note_on_c, 4, 62, 84
9, 190920, Note_on_c, 4, 66, 84
9, 191009, Note_on_c, 4, 62, 0
9, 191009, Note_on_c, 4, 66, 0
9, 191040, Note_on_c, 4, 61, 84
9, 191040, Note_on_c, 4, 64, 84
9, 191129, Note_on_c, 4, 61, 0
9, 191129, Note_on_c, 4, 64, 0
9, 191160, Note_on_c, 4, 59, 84
9, 191160, Note_on_c, 4, 62, 84
9, 191249, Note_on_c, 4, 59, 0
9, 191249, Note_on_c, 4, 62, 0
9, 191280, Note_on_c, 4, 61, 84
9, 191280, Note_on_c, 4, 57, 84
9, 191369, Note_on_c, 4, 61, 0
9, 191369, Note_on_c, 4, 57, 0
9, 191400, Note_on_c, 4, 59, 84
9, 191400, Note_on_c, 4, 56, 84
9, 191489, Note_on_c, 4, 59, 0
9, 191489, Note_on_c, 4, 56, 0
9, 191520, Note_on_c, 4, 57, 84
9, 191639, Note_on_c, 4, 57, 0
9, 192000, Note_on_c, 4, 57, 84
9, 192000, Note_on_c, 4, 45, 84
9, 192119, Note_on_c, 4, 57, 0
9, 192119, Note_on_c, 4, 45, 0
9, 192600, Note_on_c, 4, 59, 84
9, 192600, Note_on_c, 4, 56, 84
9, 192651, Note_on_c, 4, 59, 0
9, 192651, Note_on_c, 4, 56, 0
9, 192660, Note_on_c, 4, 56, 84
9, 192660, Note_on_c, 4, 59, 84
9, 192711, Note_on_c, 4, 56, 0
9, 192711, Note_on_c, 4, 59, 0
9, 192720, Note_on_c, 4, 56, 84
9, 192720, Note_on_c, 4, 59, 84
9, 192839, Note_on_c, 4, 56, 0
9, 192839, Note_on_c, 4, 59, 0
9, 193080, Note_on_c, 4, 56, 84
9, 193080, Note_on_c, 4, 59, 84
9, 193131, Note_on_c, 4, 56, 0
9, 193131, Note_on_c, 4, 59, 0
9, 193140, Note_on_c, 4, 59, 84
9, 193140, Note_on_c, 4, 56, 84
9, 193191, Note_on_c, 4, 59, 0
9, 193191, Note_on_c, 4, 56, 0
9, 193200, Note_on_c, 4, 56, 84
9, 193200, Note_on_c, 4, 59, 84
9, 193319, Note_on_c, 4, 56, 0
9, 193319, Note_on_c, 4, 59, 0
9, 193440, Note_on_c, 4, 57, 84
9, 193440, Note_on_c, 4, 61, 84
9, 193559, Note_on_c, 4, 57, 0
9, 193559, Note_on_c, 4, 61, 0
9, 193680, Note_on_c, 4, 61, 84
9, 193680, Note_on_c, 4, 57, 84
9, 193799, Note_on_c, 4, 61, 0
9, 193799, Note_on_c, 4, 57, 0
9, 193920, Note_on_c, 4, 61, 84
9, 193920, Note_on_c, 4, 57, 84
9, 194039, Note_on_c, 4, 61, 0
9, 194039, Note_on_c, 4, 57, 0
9, 194160, Note_on_c, 4, 57, 84
9, 194160, Note_on_c, 4, 61, 84
9, 194279, Note_on_c, 4, 57, 0
9, 194279, Note_on_c, 4, 61, 0
9, 194400, Note_on_c, 4, 59, 84
9, 194400, Note_on_c, 4, 62, 84
9, 194519, Note_on_c, 4, 59, 0
9, 194519, Note_on_c, 4, 62, 0
9, 194640, Note_on_c, 4, 59, 84
9, 194640, Note_on_c, 4, 62, 84
9, 194759, Note_on_c, 4, 59, 0
9, 194759, Note_on_c, 4, 62, 0
9, 194880, Note_on_c, 4, 62, 84
9, 194880, Note_on_c, 4, 59, 84
9, 194999, Note_on_c, 4, 62, 0
9, 194999, Note_on_c, 4, 59, 0
9, 195120, Note_on_c, 4, 59, 84
9, 195120, Note_on_c, 4, 62, 84
9, 195239, Note_on_c, 4, 59, 0
9, 195239, Note_on_c, 4, 62, 0
9, 195360, Note_on_c, 4, 57, 84
9, 195360, Note_on_c, 4, 61, 84
9, 195479, Note_on_c, 4, 57, 0
9, 195479, Note_on_c, 4, 61, 0
9, 198480, Note_on_c, 4, 58, 84
9, 198480, Note_on_c, 4, 55, 84
9, 198719, Note_on_c, 4, 58, 0
9, 198720, Note_on_c, 4, 57, 84
9, 198959, Note_on_c, 4, 55, 0
9, 198959, Note_on_c, 4, 57, 0
9, 198960, Note_on_c, 4, 55, 84
9, 198960, Note_on_c, 4, 52, 84
9, 199199, Note_on_c, 4, 55, 0
9, 199199, Note_on_c, 4, 52, 0
9, 199200, Note_on_c, 4, 50, 84
9, 199200, Note_on_c, 4, 53, 84
9, 199319, Note_on_c, 4, 50, 0
9, 199319, Note_on_c, 4, 53, 0
9, 200760, Note_on_c, 4, 61, 84
9, 200819, Note_on_c, 4, 61, 0
9, 200820, Note_on_c, 4, 62, 84
9, 200879, Note_on_c, 4, 62, 0
9, 200880, Note_on_c, 4, 61, 84
9, 200880, Note_on_c, 4, 65, 84
9, 200939, Note_on_c, 4, 65, 0
9, 200940, Note_on_c, 4, 64, 84
9, 200999, Note_on_c, 4, 64, 0
9, 201000, Note_on_c, 4, 62, 84
9, 201059, Note_on_c, 4, 62, 0
9, 201060, Note_on_c, 4, 64, 84
9, 201111, Note_on_c, 4, 64, 0
9, 201119, Note_on_c, 4, 61, 0
9, 201120, Note_on_c, 4, 62, 84
9, 201120, Note_on_c, 4, 65, 84
9, 201239, Note_on_c, 4, 62, 0
9, 201239, Note_on_c, 4, 65, 0
9, 202680, Note_on_c, 4, 61, 84
9, 202739, Note_on_c, 4, 61, 0
9, 202740, Note_on_c, 4, 62, 84
9, 202799, Note_on_c, 4, 62, 0
9, 202800, Note_on_c, 4, 65, 84
9, 202800, Note_on_c, 4, 61, 84
9, 202859, Note_on_c, 4, 65, 0
9, 202860, Note_on_c, 4, 64, 84
9, 202919, Note_on_c, 4, 64, 0
9, 202920, Note_on_c, 4, 62, 84
9, 202979, Note_on_c, 4, 62, 0
9, 202980, Note_on_c, 4, 64, 84
9, 203031, Note_on_c, 4, 64, 0
9, 203039, Note_on_c, 4, 61, 0
9, 203040, Note_on_c, 4, 65, 84
9, 203040, Note_on_c, 4, 62, 84
9, 203159, Note_on_c, 4, 65, 0
9, 203159, Note_on_c, 4, 62, 0
9, 203280, Note_on_c, 4, 50, 84
9, 203280, Note_on_c, 4, 53, 84
9, 203399, Note_on_c, 4, 50, 0
9, 203399, Note_on_c, 4, 53, 0
9, 203520, Note_on_c, 4, 53, 84
9, 203520, Note_on_c, 4, 50, 84
9, 203639, Note_on_c, 4, 53, 0
9, 203639, Note_on_c, 4, 50, 0
9, 203760, Note_on_c, 4, 53, 84
9, 203760, Note_on_c, 4, 50, 84
9, 203879, Note_on_c, 4, 53, 0
9, 203879, Note_on_c, 4, 50, 0
9, 204000, Note_on_c, 4, 55, 84
9, 204000, Note_on_c, 4, 52, 84
9, 204119, Note_on_c, 4, 55, 0
9, 204119, Note_on_c, 4, 52, 0
9, 204240, Note_on_c, 4, 55, 84
9, 204240, Note_on_c, 4, 52, 84
9, 204359, Note_on_c, 4, 55, 0
9, 204359, Note_on_c, 4, 52, 0
9, 204480, Note_on_c, 4, 52, 84
9, 204480, Note_on_c, 4, 55, 84
9, 204599, Note_on_c, 4, 52, 0
9, 204599, Note_on_c, 4, 55, 0
9, 204720, Note_on_c, 4, 52, 84
9, 204720, Note_on_c, 4, 55, 84
9, 204839, Note_on_c, 4, 52, 0
9, 204839, Note_on_c, 4, 55, 0
9, 204960, Note_on_c, 4, 53, 84
9, 204960, Note_on_c, 4, 50, 84
9, 205079, Note_on_c, 4, 53, 0
9, 205079, Note_on_c, 4, 50, 0
9, 205200, Note_on_c, 4, 50, 84
9, 205200, Note_on_c, 4, 53, 84
9, 205319, Note_on_c, 4, 50, 0
9, 205319, Note_on_c, 4, 53, 0
9, 205440, Note_on_c, 4, 50, 84
9, 205440, Note_on_c, 4, 54, 84
9, 205559, Note_on_c, 4, 50, 0
9, 205559, Note_on_c, 4, 54, 0
9, 205680, Note_on_c, 4, 54, 84
9, 205680, Note_on_c, 4, 50, 84
9, 205799, Note_on_c, 4, 54, 0
9, 205799, Note_on_c, 4, 50, 0
9, 205920, Note_on_c, 4, 50, 84
9, 205920, Note_on_c, 4, 56, 84
9, 206039, Note_on_c, 4, 50, 0
9, 206039, Note_on_c, 4, 56, 0
9, 206160, Note_on_c, 4, 56, 84
9, 206160, Note_on_c, 4, 50, 84
9, 206279, Note_on_c, 4, 56, 0
9, 206279, Note_on_c, 4, 50, 0
9, 206400, Note_on_c, 4, 45, 84
9, 206400, Note_on_c, 4, 57, 84
9, 206519, Note_on_c, 4, 45, 0
9, 206519, Note_on_c, 4, 57, 0
9, 206640, Note_on_c, 4, 45, 84
9, 206640, Note_on_c, 4, 57, 84
9, 206759, Note_on_c, 4, 45, 0
9, 206759, Note_on_c, 4, 57, 0
9, 206880, Note_on_c, 4, 56, 84
9, 206880, Note_on_c, 4, 44, 84
9, 206999, Note_on_c, 4, 56, 0
9, 206999, Note_on_c, 4, 44, 0
9, 207120, Note_on_c, 4, 41, 84
9, 207120, Note_on_c, 4, 53, 84
9, 207239, Note_on_c, 4, 41, 0
9, 207239, Note_on_c, 4, 53, 0
9, 207360, Note_on_c, 4, 53, 84
9, 207360, Note_on_c, 4, 41, 84
9, 207479, Note_on_c, 4, 53, 0
9, 207479, Note_on_c, 4, 41, 0
9, 207600, Note_on_c, 4, 41, 84
9, 207600, Note_on_c, 4, 53, 84
9, 207719, Note_on_c, 4, 41, 0
9, 207719, Note_on_c, 4, 53, 0
9, 207840, Note_on_c, 4, 40, 84
9, 207840, Note_on_c, 4, 52, 84
9, 207959, Note_on_c, 4, 40, 0
9, 207959, Note_on_c, 4, 52, 0
9, 208080, Note_on_c, 4, 62, 76
9, 208080, Note_on_c, 4, 65, 76
9, 208169, Note_on_c, 4, 62, 0
9, 208169, Note_on_c, 4, 65, 0
9, 210000, Note_on_c, 4, 62, 76
9, 210000, Note_on_c, 4, 65, 76
9, 210089, Note_on_c, 4, 62, 0
9, 210089, Note_on_c, 4, 65, 0
9, 213300, Note_on_c, 4, 59, 52
9, 213359, Note_on_c, 4, 59, 0
9, 213360, Note_on_c, 4, 64, 52
9, 213479, Note_on_c, 4, 64, 0
9, 213540, Note_on_c, 4, 62, 52
9, 213599, Note_on_c, 4, 62, 0
9, 213600, Note_on_c, 4, 61, 52
9, 213771, Note_on_c, 4, 61, 0
9, 213780, Note_on_c, 4, 59, 52
9, 213780, Note_on_c, 4, 62, 52
9, 213824, Note_on_c, 4, 59, 0
9, 213824, Note_on_c, 4, 62, 0
9, 213840, Note_on_c, 4, 61, 76
9, 213840, Note_on_c, 4, 64, 76
9, 214071, Note_on_c, 4, 61, 0
9, 214071, Note_on_c, 4, 64, 0
9, 214080, Note_on_c, 4, 62, 52
9, 214080, Note_on_c, 4, 59, 52
9, 214251, Note_on_c, 4, 62, 0
9, 214251, Note_on_c, 4, 59, 0
9, 214260, Note_on_c, 4, 57, 52
9, 214260, Note_on_c, 4, 61, 52
9, 214304, Note_on_c, 4, 57, 0
9, 214304, Note_on_c, 4, 61, 0
9, 214320, Note_on_c, 4, 62, 76
9, 214320, Note_on_c, 4, 59, 76
9, 214551, Note_on_c, 4, 62, 0
9, 214551, Note_on_c, 4, 59, 0
9, 214560, Note_on_c, 4, 57, 52
9, 214560, Note_on_c, 4, 61, 52
9, 214731, Note_on_c, 4, 57, 0
9, 214731, Note_on_c, 4, 61, 0
9, 214740, Note_on_c, 4, 56, 52
9, 214740, Note_on_c, 4, 59, 52
9, 214784, Note_on_c, 4, 56, 0
9, 214784, Note_on_c, 4, 59, 0
9, 214800, Note_on_c, 4, 57, 76
9, 214800, Note_on_c, 4, 61, 76
9, 215031, Note_on_c, 4, 57, 0
9, 215031, Note_on_c, 4, 61, 0
9, 215040, Note_on_c, 4, 62, 52
9, 215040, Note_on_c, 4, 59, 52
9, 215211, Note_on_c, 4, 62, 0
9, 215211, Note_on_c, 4, 59, 0
9, 215220, Note_on_c, 4, 61, 52
9, 215220, Note_on_c, 4, 57, 52
9, 215264, Note_on_c, 4, 61, 0
9, 215264, Note_on_c, 4, 57, 0
9, 215280, Note_on_c, 4, 59, 76
9, 215280, Note_on_c, 4, 62, 76
9, 215511, Note_on_c, 4, 59, 0
9, 215511, Note_on_c, 4, 62, 0
9, 215520, Note_on_c, 4, 61, 52
9, 215639, Note_on_c, 4, 61, 0
9, 217920, Note_on_c, 4, 59, 52
9, 217920, Note_on_c, 4, 56, 52
9, 218144, Note_on_c, 4, 59, 0
9, 218144, Note_on_c, 4, 56, 0
9, 218160, Note_on_c, 4, 56, 52
9, 218160, Note_on_c, 4, 59, 52
9, 218384, Note_on_c, 4, 56, 0
9, 218384, Note_on_c, 4, 59, 0
9, 218400, Note_on_c, 4, 61, 52
9, 218571, Note_on_c, 4, 61, 0
9, 218580, Note_on_c, 4, 59, 52
9, 218580, Note_on_c, 4, 62, 52
9, 218624, Note_on_c, 4, 59, 0
9, 218624, Note_on_c, 4, 62, 0
9, 218640, Note_on_c, 4, 61, 76
9, 218640, Note_on_c, 4, 64, 76
9, 218871, Note_on_c, 4, 61, 0
9, 218871, Note_on_c, 4, 64, 0
9, 218880, Note_on_c, 4, 59, 52
9, 218880, Note_on_c, 4, 62, 52
9, 219051, Note_on_c, 4, 59, 0
9, 219051, Note_on_c, 4, 62, 0
9, 219060, Note_on_c, 4, 61, 52
9, 219060, Note_on_c, 4, 57, 52
9, 219104, Note_on_c, 4, 61, 0
9, 219104, Note_on_c, 4, 57, 0
9, 219120, Note_on_c, 4, 59, 76
9, 219120, Note_on_c, 4, 62, 76
9, 219351, Note_on_c, 4, 59, 0
9, 219351, Note_on_c, 4, 62, 0
9, 219360, Note_on_c, 4, 57, 52
9, 219360, Note_on_c, 4, 61, 52
9, 219531, Note_on_c, 4, 57, 0
9, 219531, Note_on_c, 4, 61, 0
9, 219540, Note_on_c, 4, 59, 52
9, 219540, Note_on_c, 4, 56, 52
9, 219584, Note_on_c, 4, 59, 0
9, 219584, Note_on_c, 4, 56, 0
9, 219600, Note_on_c, 4, 57, 76
9, 219600, Note_on_c, 4, 61, 76
9, 219831, Note_on_c, 4, 57, 0
9, 219831, Note_on_c, 4, 61, 0
9, 219840, Note_on_c, 4, 62, 52
9, 219840, Note_on_c, 4, 59, 52
9, 220011, Note_on_c, 4, 62, 0
9, 220011, Note_on_c, 4, 59, 0
9, 220020, Note_on_c, 4, 57, 52
9, 220020, Note_on_c, 4, 61, 52
9, 220064, Note_on_c, 4, 57, 0
9, 220064, Note_on_c, 4, 61, 0
9, 220080, Note_on_c, 4, 59, 76
9, 220080, Note_on_c, 4, 62, 76
9, 220311, Note_on_c, 4, 59, 0
9, 220311, Note_on_c, 4, 62, 0
9, 220320, Note_on_c, 4, 61, 52
9, 220439, Note_on_c, 4, 61, 0
9, 221760, Note_on_c, 4, 59, 48
9, 221760, Note_on_c, 4, 56, 48
9, 221984, Note_on_c, 4, 59, 0
9, 221984, Note_on_c, 4, 56, 0
9, 222000, Note_on_c, 4, 59, 48
9, 222000, Note_on_c, 4, 56, 48
9, 222224, Note_on_c, 4, 59, 0
9, 222224, Note_on_c, 4, 56, 0
9, 222240, Note_on_c, 4, 61, 48
9, 222240, Note_on_c, 4, 57, 48
9, 222464, Note_on_c, 4, 61, 0
9, 222464, Note_on_c, 4, 57, 0
9, 222480, Note_on_c, 4, 57, 48
9, 222480, Note_on_c, 4, 61, 48
9, 222704, Note_on_c, 4, 57, 0
9, 222704, Note_on_c, 4, 61, 0
9, 222720, Note_on_c, 4, 59, 48
9, 222720, Note_on_c, 4, 56, 48
9, 222944, Note_on_c, 4, 59, 0
9, 222944, Note_on_c, 4, 56, 0
9, 222960, Note_on_c, 4, 59, 48
9, 222960, Note_on_c, 4, 56, 48
9, 223184, Note_on_c, 4, 59, 0
9, 223184, Note_on_c, 4, 56, 0
9, 223200, Note_on_c, 4, 61, 48
9, 223200, Note_on_c, 4, 57, 48
9, 223424, Note_on_c, 4, 61, 0
9, 223424, Note_on_c, 4, 57, 0
9, 223440, Note_on_c, 4, 61, 48
9, 223440, Note_on_c, 4, 57, 48
9, 223664, Note_on_c, 4, 61, 0
9, 223664, Note_on_c, 4, 57, 0
9, 223680, Note_on_c, 4, 59, 48
9, 223680, Note_on_c, 4, 56, 48
9, 223904, Note_on_c, 4, 59, 0
9, 223904, Note_on_c, 4, 56, 0
9, 223920, Note_on_c, 4, 59, 48
9, 223920, Note_on_c, 4, 56, 48
9, 224144, Note_on_c, 4, 59, 0
9, 224144, Note_on_c, 4, 56, 0
9, 224160, Note_on_c, 4, 59, 48
9, 224160, Note_on_c, 4, 56, 48
9, 224279, Note_on_c, 4, 59, 0
9, 224279, Note_on_c, 4, 56, 0
9, 224398, Control_c, 4, 11, 64
9, 224400, Note_on_c, 4, 59, 84
9, 224400, Note_on_c, 4, 62, 84
9, 224488, Control_c, 4, 11, 65
9, 224575, Control_c, 4, 11, 66
9, 224663, Control_c, 4, 11, 67
9, 224750, Control_c, 4, 11, 68
9, 224838, Control_c, 4, 11, 69
9, 224926, Control_c, 4, 11, 70
9, 225013, Control_c, 4, 11, 71
9, 225101, Control_c, 4, 11, 72
9, 225189, Control_c, 4, 11, 73
9, 225276, Control_c, 4, 11, 74
9, 225364, Control_c, 4, 11, 75
9, 225451, Control_c, 4, 11, 76
9, 225539, Control_c, 4, 11, 77
9, 225627, Control_c, 4, 11, 78
9, 225714, Control_c, 4, 11, 79
9, 225802, Control_c, 4, 11, 80
9, 225890, Control_c, 4, 11, 81
9, 225977, Control_c, 4, 11, 82
9, 226065, Control_c, 4, 11, 83
9, 226152, Control_c, 4, 11, 84
9, 226240, Control_c, 4, 11, 85
9, 226328, Control_c, 4, 11, 86
9, 226415, Control_c, 4, 11, 87
9, 226503, Control_c, 4, 11, 88
9, 226544, Note_on_c, 4, 59, 0
9, 226544, Note_on_c, 4, 62, 0
9, 226560, Note_on_c, 4, 61, 84
9, 226560, Note_on_c, 4, 57, 84
9, 226590, Control_c, 4, 11, 89
9, 226678, Control_c, 4, 11, 90
9, 226766, Control_c, 4, 11, 91
9, 226853, Control_c, 4, 11, 92
9, 226941, Control_c, 4, 11, 93
9, 227024, Note_on_c, 4, 61, 0
9, 227024, Note_on_c, 4, 57, 0
9, 227029, Control_c, 4, 11, 94
9, 227040, Note_on_c, 4, 62, 84
9, 227040, Note_on_c, 4, 59, 84
9, 227116, Control_c, 4, 11, 95
9, 227204, Control_c, 4, 11, 96
9, 227291, Control_c, 4, 11, 97
9, 227379, Control_c, 4, 11, 98
9, 227467, Control_c, 4, 11, 99
9, 227554, Control_c, 4, 11, 100
9, 227642, Control_c, 4, 11, 101
9, 227730, Control_c, 4, 11, 102
9, 227817, Control_c, 4, 11, 103
9, 227905, Control_c, 4, 11, 104
9, 227992, Control_c, 4, 11, 105
9, 228080, Control_c, 4, 11, 106
9, 228168, Control_c, 4, 11, 107
9, 228255, Control_c, 4, 11, 108
9, 228343, Control_c, 4, 11, 109
9, 228430, Control_c, 4, 11, 110
9, 228518, Control_c, 4, 11, 111
9, 228606, Control_c, 4, 11, 112
9, 228693, Control_c, 4, 11, 113
9, 228781, Control_c, 4, 11, 114
9, 228869, Control_c, 4, 11, 115
9, 228956, Control_c, 4, 11, 116
9, 229044, Control_c, 4, 11, 117
9, 229131, Control_c, 4, 11, 118
9, 229219, Control_c, 4, 11, 119
9, 229307, Control_c, 4, 11, 120
9, 229394, Control_c, 4, 11, 121
9, 229424, Note_on_c, 4, 62, 0
9, 229424, Note_on_c, 4, 59, 0
9, 229440, Note_on_c, 4, 57, 84
9, 229440, Note_on_c, 4, 61, 84
9, 229482, Control_c, 4, 11, 122
9, 229570, Control_c, 4, 11, 123
9, 229657, Control_c, 4, 11, 124
9, 229679, Note_on_c, 4, 57, 0
9, 229679, Note_on_c, 4, 61, 0
9, 229680, Note_on_c, 4, 49, 84
9, 229680, Note_on_c, 4, 64, 84
9, 229745, Control_c, 4, 11, 125
9, 229832, Control_c, 4, 11, 127
9, 229904, Note_on_c, 4, 64, 0
9, 229919, Note_on_c, 4, 49, 0
9, 229920, Note_on_c, 4, 48, 84
9, 229920, Note_on_c, 4, 58, 84
9, 230024, Note_on_c, 4, 48, 0
9, 230024, Note_on_c, 4, 58, 0
9, 230040, Note_on_c, 4, 55, 84
9, 230040, Note_on_c, 4, 58, 84
9, 230144, Note_on_c, 4, 55, 0
9, 230144, Note_on_c, 4, 58, 0
9, 230160, Note_on_c, 4, 55, 84
9, 230160, Note_on_c, 4, 58, 84
9, 230264, Note_on_c, 4, 55, 0
9, 230264, Note_on_c, 4, 58, 0
9, 230280, Note_on_c, 4, 55, 84
9, 230280, Note_on_c, 4, 58, 84
9, 230384, Note_on_c, 4, 55, 0
9, 230384, Note_on_c, 4, 58, 0
9, 230400, Note_on_c, 4, 58, 84
9, 230400, Note_on_c, 4, 55, 84
9, 230504, Note_on_c, 4, 58, 0
9, 230504, Note_on_c, 4, 55, 0
9, 230520, Note_on_c, 4, 55, 84
9, 230520, Note_on_c, 4, 58, 84
9, 230624, Note_on_c, 4, 55, 0
9, 230624, Note_on_c, 4, 58, 0
9, 230640, Note_on_c, 4, 58, 84
9, 230640, Note_on_c, 4, 55, 84
9, 230744, Note_on_c, 4, 58, 0
9, 230744, Note_on_c, 4, 55, 0
9, 230760, Note_on_c, 4, 58, 84
9, 230760, Note_on_c, 4, 55, 84
9, 230864, Note_on_c, 4, 58, 0
9, 230864, Note_on_c, 4, 55, 0
9, 230880, Note_on_c, 4, 53, 92
9, 230880, Note_on_c, 4, 57, 92
9, 230984, Note_on_c, 4, 53, 0
9, 230984, Note_on_c, 4, 57, 0
9, 231000, Note_on_c, 4, 57, 84
9, 231000, Note_on_c, 4, 53, 84
9, 231104, Note_on_c, 4, 57, 0
9, 231104, Note_on_c, 4, 53, 0
9, 231120, Note_on_c, 4, 53, 84
9, 231120, Note_on_c, 4, 57, 84
9, 231224, Note_on_c, 4, 53, 0
9, 231224, Note_on_c, 4, 57, 0
9, 231240, Note_on_c, 4, 57, 84
9, 231240, Note_on_c, 4, 53, 84
9, 231344, Note_on_c, 4, 57, 0
9, 231344, Note_on_c, 4, 53, 0
9, 231360, Note_on_c, 4, 55, 92
9, 231360, Note_on_c, 4, 58, 92
9, 231464, Note_on_c, 4, 55, 0
9, 231464, Note_on_c, 4, 58, 0
9, 231480, Note_on_c, 4, 55, 84
9, 231480, Note_on_c, 4, 58, 84
9, 231584, Note_on_c, 4, 55, 0
9, 231584, Note_on_c, 4, 58, 0
9, 231600, Note_on_c, 4, 55, 84
9, 231600, Note_on_c, 4, 58, 84
9, 231704, Note_on_c, 4, 55, 0
9, 231704, Note_on_c, 4, 58, 0
9, 231720, Note_on_c, 4, 58, 84
9, 231720, Note_on_c, 4, 55, 84
9, 231824, Note_on_c, 4, 58, 0
9, 231824, Note_on_c, 4, 55, 0
9, 231840, Note_on_c, 4, 53, 92
9, 231840, Note_on_c, 4, 57, 92
9, 231944, Note_on_c, 4, 53, 0
9, 231944, Note_on_c, 4, 57, 0
9, 231960, Note_on_c, 4, 57, 84
9, 231960, Note_on_c, 4, 53, 84
9, 232064, Note_on_c, 4, 57, 0
9, 232064, Note_on_c, 4, 53, 0
9, 232080, Note_on_c, 4, 57, 84
9, 232080, Note_on_c, 4, 53, 84
9, 232184, Note_on_c, 4, 57, 0
9, 232184, Note_on_c, 4, 53, 0
9, 232200, Note_on_c, 4, 57, 84
9, 232200, Note_on_c, 4, 53, 84
9, 232304, Note_on_c, 4, 57, 0
9, 232304, Note_on_c, 4, 53, 0
9, 232320, Note_on_c, 4, 55, 92
9, 232320, Note_on_c, 4, 58, 92
9, 232424, Note_on_c, 4, 55, 0
9, 232424, Note_on_c, 4, 58, 0
9, 232440, Note_on_c, 4, 58, 84
9, 232440, Note_on_c, 4, 55, 84
9, 232544, Note_on_c, 4, 58, 0
9, 232544, Note_on_c, 4, 55, 0
9, 232560, Note_on_c, 4, 55, 84
9, 232560, Note_on_c, 4, 58, 84
9, 232664, Note_on_c, 4, 55, 0
9, 232664, Note_on_c, 4, 58, 0
9, 232680, Note_on_c, 4, 58, 84
9, 232680, Note_on_c, 4, 55, 84
9, 232784, Note_on_c, 4, 58, 0
9, 232784, Note_on_c, 4, 55, 0
9, 232800, Note_on_c, 4, 58, 84
9, 232800, Note_on_c, 4, 55, 84
9, 232904, Note_on_c, 4, 58, 0
9, 232904, Note_on_c, 4, 55, 0
9, 232920, Note_on_c, 4, 55, 84
9, 232920, Note_on_c, 4, 58, 84
9, 233024, Note_on_c, 4, 55, 0
9, 233024, Note_on_c, 4, 58, 0
9, 233040, Note_on_c, 4, 55, 84
9, 233040, Note_on_c, 4, 58, 84
9, 233144, Note_on_c, 4, 55, 0
9, 233144, Note_on_c, 4, 58, 0
9, 233160, Note_on_c, 4, 55, 84
9, 233160, Note_on_c, 4, 58, 84
9, 233264, Note_on_c, 4, 55, 0
9, 233264, Note_on_c, 4, 58, 0
9, 233280, Note_on_c, 4, 58, 92
9, 233280, Note_on_c, 4, 55, 92
9, 233384, Note_on_c, 4, 58, 0
9, 233384, Note_on_c, 4, 55, 0
9, 233400, Note_on_c, 4, 58, 84
9, 233400, Note_on_c, 4, 55, 84
9, 233504, Note_on_c, 4, 58, 0
9, 233504, Note_on_c, 4, 55, 0
9, 233520, Note_on_c, 4, 55, 84
9, 233520, Note_on_c, 4, 58, 84
9, 233624, Note_on_c, 4, 55, 0
9, 233624, Note_on_c, 4, 58, 0
9, 233640, Note_on_c, 4, 58, 84
9, 233640, Note_on_c, 4, 55, 84
9, 233744, Note_on_c, 4, 58, 0
9, 233744, Note_on_c, 4, 55, 0
9, 233760, Note_on_c, 4, 57, 92
9, 233760, Note_on_c, 4, 53, 92
9, 233864, Note_on_c, 4, 57, 0
9, 233864, Note_on_c, 4, 53, 0
9, 233880, Note_on_c, 4, 53, 84
9, 233880, Note_on_c, 4, 57, 84
9, 233984, Note_on_c, 4, 53, 0
9, 233984, Note_on_c, 4, 57, 0
9, 234000, Note_on_c, 4, 53, 84
9, 234000, Note_on_c, 4, 57, 84
9, 234104, Note_on_c, 4, 53, 0
9, 234104, Note_on_c, 4, 57, 0
9, 234120, Note_on_c, 4, 53, 84
9, 234120, Note_on_c, 4, 57, 84
9, 234224, Note_on_c, 4, 53, 0
9, 234224, Note_on_c, 4, 57, 0
9, 234240, Note_on_c, 4, 55, 92
9, 234240, Note_on_c, 4, 58, 92
9, 234344, Note_on_c, 4, 55, 0
9, 234344, Note_on_c, 4, 58, 0
9, 234360, Note_on_c, 4, 58, 84
9, 234360, Note_on_c, 4, 55, 84
9, 234464, Note_on_c, 4, 58, 0
9, 234464, Note_on_c, 4, 55, 0
9, 234480, Note_on_c, 4, 55, 84
9, 234480, Note_on_c, 4, 58, 84
9, 234584, Note_on_c, 4, 55, 0
9, 234584, Note_on_c, 4, 58, 0
9, 234600, Note_on_c, 4, 55, 84
9, 234600, Note_on_c, 4, 58, 84
9, 234704, Note_on_c, 4, 55, 0
9, 234704, Note_on_c, 4, 58, 0
9, 234720, Note_on_c, 4, 57, 92
9, 234720, Note_on_c, 4, 53, 92
9, 234824, Note_on_c, 4, 57, 0
9, 234824, Note_on_c, 4, 53, 0
9, 234840, Note_on_c, 4, 53, 84
9, 234840, Note_on_c, 4, 57, 84
9, 234944, Note_on_c, 4, 53, 0
9, 234944, Note_on_c, 4, 57, 0
9, 234960, Note_on_c, 4, 53, 84
9, 234960, Note_on_c, 4, 57, 84
9, 235064, Note_on_c, 4, 53, 0
9, 235064, Note_on_c, 4, 57, 0
9, 235080, Note_on_c, 4, 57, 84
9, 235080, Note_on_c, 4, 53, 84
9, 235184, Note_on_c, 4, 57, 0
9, 235184, Note_on_c, 4, 53, 0
9, 235200, Note_on_c, 4, 53, 92
9, 235200, Note_on_c, 4, 57, 92
9, 235304, Note_on_c, 4, 53, 0
9, 235304, Note_on_c, 4, 57, 0
9, 235320, Note_on_c, 4, 53, 84
9, 235320, Note_on_c, 4, 57, 84
9, 235424, Note_on_c, 4, 53, 0
9, 235424, Note_on_c, 4, 57, 0
9, 235440, Note_on_c, 4, 60, 84
9, 235440, Note_on_c, 4, 57, 84
9, 235544, Note_on_c, 4, 60, 0
9, 235544, Note_on_c, 4, 57, 0
9, 235560, Note_on_c, 4, 57, 84
9, 235560, Note_on_c, 4, 60, 84
9, 235664, Note_on_c, 4, 57, 0
9, 235664, Note_on_c, 4, 60, 0
9, 235680, Note_on_c, 4, 57, 92
9, 235680, Note_on_c, 4, 61, 92
9, 235784, Note_on_c, 4, 57, 0
9, 235784, Note_on_c, 4, 61, 0
9, 235800, Note_on_c, 4, 57, 84
9, 235800, Note_on_c, 4, 61, 84
9, 235904, Note_on_c, 4, 57, 0
9, 235904, Note_on_c, 4, 61, 0
9, 235920, Note_on_c, 4, 61, 84
9, 235920, Note_on_c, 4, 57, 84
9, 236024, Note_on_c, 4, 61, 0
9, 236024, Note_on_c, 4, 57, 0
9, 236040, Note_on_c, 4, 57, 84
9, 236040, Note_on_c, 4, 61, 84
9, 236144, Note_on_c, 4, 57, 0
9, 236144, Note_on_c, 4, 61, 0
9, 236160, Note_on_c, 4, 56, 92
9, 236160, Note_on_c, 4, 59, 92
9, 236264, Note_on_c, 4, 56, 0
9, 236264, Note_on_c, 4, 59, 0
9, 236280, Note_on_c, 4, 56, 84
9, 236280, Note_on_c, 4, 59, 84
9, 236384, Note_on_c, 4, 56, 0
9, 236384, Note_on_c, 4, 59, 0
9, 236400, Note_on_c, 4, 59, 84
9, 236400, Note_on_c, 4, 56, 84
9, 236504, Note_on_c, 4, 59, 0
9, 236504, Note_on_c, 4, 56, 0
9, 236520, Note_on_c, 4, 59, 84
9, 236520, Note_on_c, 4, 56, 84
9, 236624, Note_on_c, 4, 59, 0
9, 236624, Note_on_c, 4, 56, 0
9, 236640, Note_on_c, 4, 61, 84
9, 236640, Note_on_c, 4, 57, 84
9, 236744, Note_on_c, 4, 61, 0
9, 236744, Note_on_c, 4, 57, 0
9, 236760, Note_on_c, 4, 61, 84
9, 236760, Note_on_c, 4, 64, 84
9, 236864, Note_on_c, 4, 61, 0
9, 236864, Note_on_c, 4, 64, 0
9, 236880, Note_on_c, 4, 65, 92
9, 236880, Note_on_c, 4, 62, 92
9, 236984, Note_on_c, 4, 65, 0
9, 236984, Note_on_c, 4, 62, 0
9, 237000, Note_on_c, 4, 65, 84
9, 237000, Note_on_c, 4, 62, 84
9, 237104, Note_on_c, 4, 65, 0
9, 237104, Note_on_c, 4, 62, 0
9, 237120, Note_on_c, 4, 62, 84
9, 237120, Note_on_c, 4, 65, 84
9, 237224, Note_on_c, 4, 62, 0
9, 237224, Note_on_c, 4, 65, 0
9, 237240, Note_on_c, 4, 65, 84
9, 237240, Note_on_c, 4, 62, 84
9, 237344, Note_on_c, 4, 65, 0
9, 237344, Note_on_c, 4, 62, 0
9, 237360, Note_on_c, 4, 62, 84
9, 237360, Note_on_c, 4, 65, 84
9, 237464, Note_on_c, 4, 62, 0
9, 237464, Note_on_c, 4, 65, 0
9, 237480, Note_on_c, 4, 65, 84
9, 237480, Note_on_c, 4, 62, 84
9, 237584, Note_on_c, 4, 65, 0
9, 237584, Note_on_c, 4, 62, 0
9, 237600, Note_on_c, 4, 64, 84
9, 237600, Note_on_c, 4, 61, 84
9, 237704, Note_on_c, 4, 64, 0
9, 237704, Note_on_c, 4, 61, 0
9, 237720, Note_on_c, 4, 61, 84
9, 237720, Note_on_c, 4, 57, 84
9, 237824, Note_on_c, 4, 61, 0
9, 237824, Note_on_c, 4, 57, 0
9, 237840, Note_on_c, 4, 62, 92
9, 237840, Note_on_c, 4, 65, 92
9, 237944, Note_on_c, 4, 62, 0
9, 237944, Note_on_c, 4, 65, 0
9, 237960, Note_on_c, 4, 65, 84
9, 237960, Note_on_c, 4, 62, 84
9, 238064, Note_on_c, 4, 65, 0
9, 238064, Note_on_c, 4, 62, 0
9, 238080, Note_on_c, 4, 65, 84
9, 238080, Note_on_c, 4, 62, 84
9, 238184, Note_on_c, 4, 65, 0
9, 238184, Note_on_c, 4, 62, 0
9, 238200, Note_on_c, 4, 62, 84
9, 238200, Note_on_c, 4, 65, 84
9, 238304, Note_on_c, 4, 62, 0
9, 238304, Note_on_c, 4, 65, 0
9, 238320, Note_on_c, 4, 62, 84
9, 238320, Note_on_c, 4, 65, 84
9, 238424, Note_on_c, 4, 62, 0
9, 238424, Note_on_c, 4, 65, 0
9, 238440, Note_on_c, 4, 65, 84
9, 238440, Note_on_c, 4, 62, 84
9, 238544, Note_on_c, 4, 65, 0
9, 238544, Note_on_c, 4, 62, 0
9, 238560, Note_on_c, 4, 61, 84
9, 238560, Note_on_c, 4, 64, 84
9, 238664, Note_on_c, 4, 61, 0
9, 238664, Note_on_c, 4, 64, 0
9, 238680, Note_on_c, 4, 64, 84
9, 238680, Note_on_c, 4, 61, 84
9, 238784, Note_on_c, 4, 64, 0
9, 238784, Note_on_c, 4, 61, 0
9, 238800, Note_on_c, 4, 65, 92
9, 238800, Note_on_c, 4, 62, 92
9, 238904, Note_on_c, 4, 65, 0
9, 238904, Note_on_c, 4, 62, 0
9, 238920, Note_on_c, 4, 65, 84
9, 238920, Note_on_c, 4, 62, 84
9, 239024, Note_on_c, 4, 65, 0
9, 239024, Note_on_c, 4, 62, 0
9, 239040, Note_on_c, 4, 64, 84
9, 239040, Note_on_c, 4, 61, 84
9, 239144, Note_on_c, 4, 64, 0
9, 239144, Note_on_c, 4, 61, 0
9, 239160, Note_on_c, 4, 61, 84
9, 239160, Note_on_c, 4, 64, 84
9, 239264, Note_on_c, 4, 61, 0
9, 239264, Note_on_c, 4, 64, 0
9, 239280, Note_on_c, 4, 65, 92
9, 239280, Note_on_c, 4, 62, 92
9, 239384, Note_on_c, 4, 65, 0
9, 239384, Note_on_c, 4, 62, 0
9, 239400, Note_on_c, 4, 65, 84
9, 239400, Note_on_c, 4, 62, 84
9, 239504, Note_on_c, 4, 65, 0
9, 239504, Note_on_c, 4, 62, 0
9, 239520, Note_on_c, 4, 64, 84
9, 239520, Note_on_c, 4, 61, 84
9, 239624, Note_on_c, 4, 64, 0
9, 239624, Note_on_c, 4, 61, 0
9, 239640, Note_on_c, 4, 61, 84
9, 239640, Note_on_c, 4, 64, 84
9, 239744, Note_on_c, 4, 61, 0
9, 239744, Note_on_c, 4, 64, 0
9, 239760, Note_on_c, 4, 65, 92
9, 239760, Note_on_c, 4, 62, 92
9, 239864, Note_on_c, 4, 65, 0
9, 239864, Note_on_c, 4, 62, 0
9, 239880, Note_on_c, 4, 62, 84
9, 239880, Note_on_c, 4, 65, 84
9, 239984, Note_on_c, 4, 62, 0
9, 239984, Note_on_c, 4, 65, 0
9, 240000, Note_on_c, 4, 64, 84
9, 240000, Note_on_c, 4, 61, 84
9, 240104, Note_on_c, 4, 64, 0
9, 240104, Note_on_c, 4, 61, 0
9, 240120, Note_on_c, 4, 64, 84
9, 240120, Note_on_c, 4, 61, 84
9, 240224, Note_on_c, 4, 64, 0
9, 240224, Note_on_c, 4, 61, 0
9, 240240, Note_on_c, 4, 61, 84
9, 240240, Note_on_c, 4, 64, 84
9, 240344, Note_on_c, 4, 61, 0
9, 240344, Note_on_c, 4, 64, 0
9, 240360, Note_on_c, 4, 64, 84
9, 240360, Note_on_c, 4, 61, 84
9, 240464, Note_on_c, 4, 64, 0
9, 240464, Note_on_c, 4, 61, 0
9, 240480, Note_on_c, 4, 61, 84
9, 240480, Note_on_c, 4, 64, 84
9, 240584, Note_on_c, 4, 61, 0
9, 240584, Note_on_c, 4, 64, 0
9, 241560, Note_on_c, 4, 64, 84
9, 241560, Note_on_c, 4, 67, 84
9, 241611, Note_on_c, 4, 64, 0
9, 241611, Note_on_c, 4, 67, 0
9, 241620, Note_on_c, 4, 67, 84
9, 241620, Note_on_c, 4, 64, 84
9, 241671, Note_on_c, 4, 67, 0
9, 241671, Note_on_c, 4, 64, 0
9, 241680, Note_on_c, 4, 64, 84
9, 241680, Note_on_c, 4, 67, 84
9, 241799, Note_on_c, 4, 64, 0
9, 241799, Note_on_c, 4, 67, 0
9, 242520, Note_on_c, 4, 67, 84
9, 242520, Note_on_c, 4, 64, 84
9, 242571, Note_on_c, 4, 67, 0
9, 242571, Note_on_c, 4, 64, 0
9, 242580, Note_on_c, 4, 67, 84
9, 242580, Note_on_c, 4, 64, 84
9, 242631, Note_on_c, 4, 67, 0
9, 242631, Note_on_c, 4, 64, 0
9, 242640, Note_on_c, 4, 67, 84
9, 242640, Note_on_c, 4, 64, 84
9, 242759, Note_on_c, 4, 67, 0
9, 242759, Note_on_c, 4, 64, 0
9, 243000, Note_on_c, 4, 67, 84
9, 243000, Note_on_c, 4, 64, 84
9, 243051, Note_on_c, 4, 67, 0
9, 243051, Note_on_c, 4, 64, 0
9, 243060, Note_on_c, 4, 64, 84
9, 243060, Note_on_c, 4, 67, 84
9, 243111, Note_on_c, 4, 64, 0
9, 243111, Note_on_c, 4, 67, 0
9, 243120, Note_on_c, 4, 67, 84
9, 243120, Note_on_c, 4, 64, 84
9, 243239, Note_on_c, 4, 67, 0
9, 243239, Note_on_c, 4, 64, 0
9, 243480, Note_on_c, 4, 67, 84
9, 243480, Note_on_c, 4, 64, 84
9, 243531, Note_on_c, 4, 67, 0
9, 243531, Note_on_c, 4, 64, 0
9, 243540, Note_on_c, 4, 67, 84
9, 243540, Note_on_c, 4, 64, 84
9, 243591, Note_on_c, 4, 67, 0
9, 243591, Note_on_c, 4, 64, 0
9, 243600, Note_on_c, 4, 64, 84
9, 243600, Note_on_c, 4, 67, 84
9, 243719, Note_on_c, 4, 64, 0
9, 243719, Note_on_c, 4, 67, 0
9, 243960, Note_on_c, 4, 67, 84
9, 243960, Note_on_c, 4, 64, 84
9, 244011, Note_on_c, 4, 67, 0
9, 244011, Note_on_c, 4, 64, 0
9, 244020, Note_on_c, 4, 64, 84
9, 244020, Note_on_c, 4, 67, 84
9, 244071, Note_on_c, 4, 64, 0
9, 244071, Note_on_c, 4, 67, 0
9, 244080, Note_on_c, 4, 64, 84
9, 244080, Note_on_c, 4, 67, 84
9, 244199, Note_on_c, 4, 64, 0
9, 244199, Note_on_c, 4, 67, 0
9, 244320, Note_on_c, 4, 61, 84
9, 244320, Note_on_c, 4, 58, 84
9, 244439, Note_on_c, 4, 61, 0
9, 244439, Note_on_c, 4, 58, 0
9, 244800, Note_on_c, 4, 54, 76
9, 244800, Note_on_c, 4, 66, 76
9, 245864, Note_on_c, 4, 66, 0
9, 245879, Note_on_c, 4, 54, 0
9, 245880, Note_on_c, 4, 58, 76
9, 245939, Note_on_c, 4, 58, 0
9, 245940, Note_on_c, 4, 59, 76
9, 245999, Note_on_c, 4, 59, 0
9, 246000, Note_on_c, 4, 62, 76
9, 246000, Note_on_c, 4, 58, 76
9, 246059, Note_on_c, 4, 62, 0
9, 246060, Note_on_c, 4, 61, 76
9, 246119, Note_on_c, 4, 61, 0
9, 246120, Note_on_c, 4, 59, 76
9, 246179, Note_on_c, 4, 59, 0
9, 246180, Note_on_c, 4, 61, 76
9, 246231, Note_on_c, 4, 61, 0
9, 246239, Note_on_c, 4, 58, 0
9, 246240, Note_on_c, 4, 62, 76
9, 246240, Note_on_c, 4, 59, 76
9, 246359, Note_on_c, 4, 62, 0
9, 246359, Note_on_c, 4, 59, 0
9, 246720, Note_on_c, 4, 66, 76
9, 246720, Note_on_c, 4, 54, 76
9, 247784, Note_on_c, 4, 66, 0
9, 247799, Note_on_c, 4, 54, 0
9, 247800, Note_on_c, 4, 58, 76
9, 247859, Note_on_c, 4, 58, 0
9, 247860, Note_on_c, 4, 59, 76
9, 247919, Note_on_c, 4, 59, 0
9, 247920, Note_on_c, 4, 62, 76
9, 247920, Note_on_c, 4, 58, 76
9, 247979, Note_on_c, 4, 62, 0
9, 247980, Note_on_c, 4, 61, 76
9, 248039, Note_on_c, 4, 61, 0
9, 248040, Note_on_c, 4, 59, 76
9, 248099, Note_on_c, 4, 59, 0
9, 248100, Note_on_c, 4, 61, 76
9, 248151, Note_on_c, 4, 61, 0
9, 248159, Note_on_c, 4, 58, 0
9, 248160, Note_on_c, 4, 59, 76
9, 248160, Note_on_c, 4, 62, 76
9, 248279, Note_on_c, 4, 59, 0
9, 248279, Note_on_c, 4, 62, 0
9, 251520, Note_on_c, 4, 57, 76
9, 251520, Note_on_c, 4, 45, 76
9, 252464, Note_on_c, 4, 57, 0
9, 252464, Note_on_c, 4, 45, 0
9, 252480, Note_on_c, 4, 62, 76
9, 252480, Note_on_c, 4, 50, 76
9, 255104, Note_on_c, 4, 62, 0
9, 255104, Note_on_c, 4, 50, 0
9, 255120, Note_on_c, 4, 62, 76
9, 255120, Note_on_c, 4, 65, 76
9, 256064, Note_on_c, 4, 62, 0
9, 256064, Note_on_c, 4, 65, 0
9, 256080, Note_on_c, 4, 63, 76
9, 256080, Note_on_c, 4, 60, 76
9, 256799, Note_on_c, 4, 63, 0
9, 256799, Note_on_c, 4, 60, 0
9, 256800, Note_on_c, 4, 63, 76
9, 256800, Note_on_c, 4, 60, 76
9, 258944, Note_on_c, 4, 63, 0
9, 258944, Note_on_c, 4, 60, 0
9, 258960, Note_on_c, 4, 61, 76
9, 258960, Note_on_c, 4, 58, 76
9, 260864, Note_on_c, 4, 61, 0
9, 260864, Note_on_c, 4, 58, 0
9, 260880, Note_on_c, 4, 57, 76
9, 260880, Note_on_c, 4, 60, 76
9, 261599, Note_on_c, 4, 57, 0
9, 261599, Note_on_c, 4, 60, 0
9, 261600, Note_on_c, 4, 60, 76
9, 261600, Note_on_c, 4, 57, 76
9, 263519, Note_on_c, 4, 60, 0
9, 263519, Note_on_c, 4, 57, 0
9, 263520, Note_on_c, 4, 57, 76
9, 263520, Note_on_c, 4, 60, 76
9, 264464, Note_on_c, 4, 57, 0
9, 264464, Note_on_c, 4, 60, 0
9, 264480, Note_on_c, 4, 62, 77
9, 264480, Note_on_c, 4, 59, 77
9, 265424, Note_on_c, 4, 62, 0
9, 265424, Note_on_c, 4, 59, 0
9, 265440, Note_on_c, 4, 61, 78
9, 265440, Note_on_c, 4, 57, 78
9, 266384, Note_on_c, 4, 61, 0
9, 266384, Note_on_c, 4, 57, 0
9, 266400, Note_on_c, 4, 59, 79
9, 266400, Note_on_c, 4, 62, 79
9, 267344, Note_on_c, 4, 59, 0
9, 267344, Note_on_c, 4, 62, 0
9, 267360, Note_on_c, 4, 64, 80
9, 267360, Note_on_c, 4, 61, 80
9, 267599, Note_on_c, 4, 64, 0
9, 267599, Note_on_c, 4, 61, 0
9, 267600, Note_on_c, 4, 52, 80
9, 267600, Note_on_c, 4, 49, 80
9, 267839, Note_on_c, 4, 52, 0
9, 267839, Note_on_c, 4, 49, 0
9, 267840, Note_on_c, 4, 54, 80
9, 267840, Note_on_c, 4, 50, 80
9, 268319, Note_on_c, 4, 54, 0
9, 268319, Note_on_c, 4, 50, 0
9, 268320, Note_on_c, 4, 52, 81
9, 268320, Note_on_c, 4, 56, 81
9, 268799, Note_on_c, 4, 52, 0
9, 268799, Note_on_c, 4, 56, 0
9, 268800, Note_on_c, 4, 57, 81
9, 268800, Note_on_c, 4, 54, 81
9, 269279, Note_on_c, 4, 57, 0
9, 269279, Note_on_c, 4, 54, 0
9, 269280, Note_on_c, 4, 59, 82
9, 269280, Note_on_c, 4, 56, 82
9, 269759, Note_on_c, 4, 59, 0
9, 269759, Note_on_c, 4, 56, 0
9, 269760, Note_on_c, 4, 57, 82
9, 269760, Note_on_c, 4, 61, 82
9, 270239, Note_on_c, 4, 57, 0
9, 270239, Note_on_c, 4, 61, 0
9, 270240, Note_on_c, 4, 59, 83
9, 270240, Note_on_c, 4, 62, 83
9, 271184, Note_on_c, 4, 59, 0
9, 271184, Note_on_c, 4, 62, 0
9, 271200, Note_on_c, 4, 57, 84
9, 271200, Note_on_c, 4, 61, 84
9, 271319, Note_on_c, 4, 57, 0
9, 271319, Note_on_c, 4, 61, 0
9, 272280, Note_on_c, 4, 59, 84
9, 272280, Note_on_c, 4, 62, 84
9, 272331, Note_on_c, 4, 59, 0
9, 272331, Note_on_c, 4, 62, 0
9, 272340, Note_on_c, 4, 62, 84
9, 272340, Note_on_c, 4, 59, 84
9, 272391, Note_on_c, 4, 62, 0
9, 272391, Note_on_c, 4, 59, 0
9, 272400, Note_on_c, 4, 62, 84
9, 272400, Note_on_c, 4, 59, 84
9, 272519, Note_on_c, 4, 62, 0
9, 272519, Note_on_c, 4, 59, 0
9, 272760, Note_on_c, 4, 59, 84
9, 272760, Note_on_c, 4, 62, 84
9, 272811, Note_on_c, 4, 59, 0
9, 272811, Note_on_c, 4, 62, 0
9, 272820, Note_on_c, 4, 59, 84
9, 272820, Note_on_c, 4, 62, 84
9, 272871, Note_on_c, 4, 59, 0
9, 272871, Note_on_c, 4, 62, 0
9, 272880, Note_on_c, 4, 62, 84
9, 272880, Note_on_c, 4, 59, 84
9, 272999, Note_on_c, 4, 62, 0
9, 272999, Note_on_c, 4, 59, 0
9, 273120, Note_on_c, 4, 64, 92
9, 273120, Note_on_c, 4, 61, 92
9, 273464, Note_on_c, 4, 64, 0
9, 273464, Note_on_c, 4, 61, 0
9, 273480, Note_on_c, 4, 59, 84
9, 273480, Note_on_c, 4, 62, 84
9, 273584, Note_on_c, 4, 59, 0
9, 273584, Note_on_c, 4, 62, 0
9, 273600, Note_on_c, 4, 61, 84
9, 273600, Note_on_c, 4, 57, 84
9, 273704, Note_on_c, 4, 61, 0
9, 273704, Note_on_c, 4, 57, 0
9, 273720, Note_on_c, 4, 64, 84
9, 273720, Note_on_c, 4, 61, 84
9, 273824, Note_on_c, 4, 64, 0
9, 273824, Note_on_c, 4, 61, 0
9, 273840, Note_on_c, 4, 62, 84
9, 273840, Note_on_c, 4, 59, 84
9, 273944, Note_on_c, 4, 62, 0
9, 273944, Note_on_c, 4, 59, 0
9, 273960, Note_on_c, 4, 57, 84
9, 273960, Note_on_c, 4, 61, 84
9, 274064, Note_on_c, 4, 57, 0
9, 274064, Note_on_c, 4, 61, 0
9, 274080, Note_on_c, 4, 59, 84
9, 274080, Note_on_c, 4, 62, 84
9, 274184, Note_on_c, 4, 59, 0
9, 274184, Note_on_c, 4, 62, 0
9, 274200, Note_on_c, 4, 61, 84
9, 274200, Note_on_c, 4, 57, 84
9, 274304, Note_on_c, 4, 61, 0
9, 274304, Note_on_c, 4, 57, 0
9, 274320, Note_on_c, 4, 56, 84
9, 274320, Note_on_c, 4, 59, 84
9, 274424, Note_on_c, 4, 56, 0
9, 274424, Note_on_c, 4, 59, 0
9, 274440, Note_on_c, 4, 62, 84
9, 274440, Note_on_c, 4, 66, 84
9, 274544, Note_on_c, 4, 62, 0
9, 274544, Note_on_c, 4, 66, 0
9, 274560, Note_on_c, 4, 64, 84
9, 274560, Note_on_c, 4, 61, 84
9, 274664, Note_on_c, 4, 64, 0
9, 274664, Note_on_c, 4, 61, 0
9, 274680, Note_on_c, 4, 59, 84
9, 274680, Note_on_c, 4, 62, 84
9, 274784, Note_on_c, 4, 59, 0
9, 274784, Note_on_c, 4, 62, 0
9, 274800, Note_on_c, 4, 61, 84
9, 274800, Note_on_c, 4, 57, 84
9, 274904, Note_on_c, 4, 61, 0
9, 274904, Note_on_c, 4, 57, 0
9, 274920, Note_on_c, 4, 56, 84
9, 274920, Note_on_c, 4, 59, 84
9, 275024, Note_on_c, 4, 56, 0
9, 275024, Note_on_c, 4, 59, 0
9, 275040, Note_on_c, 4, 61, 84
9, 275040, Note_on_c, 4, 57, 84
9, 275159, Note_on_c, 4, 61, 0
9, 275159, Note_on_c, 4, 57, 0
9, 276120, Note_on_c, 4, 62, 84
9, 276120, Note_on_c, 4, 59, 84
9, 276171, Note_on_c, 4, 62, 0
9, 276171, Note_on_c, 4, 59, 0
9, 276180, Note_on_c, 4, 59, 84
9, 276180, Note_on_c, 4, 62, 84
9, 276231, Note_on_c, 4, 59, 0
9, 276231, Note_on_c, 4, 62, 0
9, 276240, Note_on_c, 4, 62, 84
9, 276240, Note_on_c, 4, 59, 84
9, 276359, Note_on_c, 4, 62, 0
9, 276359, Note_on_c, 4, 59, 0
9, 276600, Note_on_c, 4, 62, 84
9, 276600, Note_on_c, 4, 59, 84
9, 276651, Note_on_c, 4, 62, 0
9, 276651, Note_on_c, 4, 59, 0
9, 276660, Note_on_c, 4, 62, 84
9, 276660, Note_on_c, 4, 59, 84
9, 276711, Note_on_c, 4, 62, 0
9, 276711, Note_on_c, 4, 59, 0
9, 276720, Note_on_c, 4, 59, 84
9, 276720, Note_on_c, 4, 62, 84
9, 276839, Note_on_c, 4, 59, 0
9, 276839, Note_on_c, 4, 62, 0
9, 276960, Note_on_c, 4, 61, 84
9, 276960, Note_on_c, 4, 57, 84
9, 277064, Note_on_c, 4, 61, 0
9, 277064, Note_on_c, 4, 57, 0
9, 277080, Note_on_c, 4, 45, 84
9, 277080, Note_on_c, 4, 49, 84
9, 277184, Note_on_c, 4, 45, 0
9, 277184, Note_on_c, 4, 49, 0
9, 277200, Note_on_c, 4, 49, 84
9, 277200, Note_on_c, 4, 45, 84
9, 277304, Note_on_c, 4, 49, 0
9, 277304, Note_on_c, 4, 45, 0
9, 277320, Note_on_c, 4, 50, 84
9, 277320, Note_on_c, 4, 47, 84
9, 277424, Note_on_c, 4, 50, 0
9, 277424, Note_on_c, 4, 47, 0
9, 277440, Note_on_c, 4, 49, 84
9, 277440, Note_on_c, 4, 52, 84
9, 277544, Note_on_c, 4, 49, 0
9, 277544, Note_on_c, 4, 52, 0
9, 277560, Note_on_c, 4, 45, 84
9, 277560, Note_on_c, 4, 49, 84
9, 277664, Note_on_c, 4, 45, 0
9, 277664, Note_on_c, 4, 49, 0
9, 277680, Note_on_c, 4, 50, 84
9, 277680, Note_on_c, 4, 47, 84
9, 277784, Note_on_c, 4, 50, 0
9, 277784, Note_on_c, 4, 47, 0
9, 277800, Note_on_c, 4, 49, 84
9, 277800, Note_on_c, 4, 52, 84
9, 277904, Note_on_c, 4, 49, 0
9, 277904, Note_on_c, 4, 52, 0
9, 277920, Note_on_c, 4, 47, 84
9, 277920, Note_on_c, 4, 44, 84
9, 278024, Note_on_c, 4, 47, 0
9, 278024, Note_on_c, 4, 44, 0
9, 278040, Note_on_c, 4, 45, 84
9, 278040, Note_on_c, 4, 49, 84
9, 278144, Note_on_c, 4, 45, 0
9, 278144, Note_on_c, 4, 49, 0
9, 278160, Note_on_c, 4, 50, 84
9, 278160, Note_on_c, 4, 47, 84
9, 278264, Note_on_c, 4, 50, 0
9, 278264, Note_on_c, 4, 47, 0
9, 278280, Note_on_c, 4, 52, 84
9, 278280, Note_on_c, 4, 49, 84
9, 278384, Note_on_c, 4, 52, 0
9, 278384, Note_on_c, 4, 49, 0
9, 278400, Note_on_c, 4, 54, 84
9, 278400, Note_on_c, 4, 50, 84
9, 278504, Note_on_c, 4, 54, 0
9, 278504, Note_on_c, 4, 50, 0
9, 278520, Note_on_c, 4, 52, 84
9, 278520, Note_on_c, 4, 56, 84
9, 278624, Note_on_c, 4, 52, 0
9, 278624, Note_on_c, 4, 56, 0
9, 278640, Note_on_c, 4, 57, 84
9, 278640, Note_on_c, 4, 54, 84
9, 278744, Note_on_c, 4, 57, 0
9, 278744, Note_on_c, 4, 54, 0
9, 278760, Note_on_c, 4, 59, 84
9, 278760, Note_on_c, 4, 56, 84
9, 278864, Note_on_c, 4, 59, 0
9, 278864, Note_on_c, 4, 56, 0
9, 278880, Note_on_c, 4, 49, 84
9, 278880, Note_on_c, 4, 45, 84
9, 278984, Note_on_c, 4, 49, 0
9, 278984, Note_on_c, 4, 45, 0
9, 279000, Note_on_c, 4, 47, 84
9, 279000, Note_on_c, 4, 50, 84
9, 279104, Note_on_c, 4, 47, 0
9, 279104, Note_on_c, 4, 50, 0
9, 279120, Note_on_c, 4, 52, 84
9, 279120, Note_on_c, 4, 49, 84
9, 279224, Note_on_c, 4, 52, 0
9, 279224, Note_on_c, 4, 49, 0
9, 279240, Note_on_c, 4, 50, 84
9, 279240, Note_on_c, 4, 54, 84
9, 279344, Note_on_c, 4, 50, 0
9, 279344, Note_on_c, 4, 54, 0
9, 279360, Note_on_c, 4, 52, 84
9, 279360, Note_on_c, 4, 56, 84
9, 279464, Note_on_c, 4, 52, 0
9, 279464, Note_on_c, 4, 56, 0
9, 279480, Note_on_c, 4, 54, 84
9, 279480, Note_on_c, 4, 57, 84
9, 279584, Note_on_c, 4, 54, 0
9, 279584, Note_on_c, 4, 57, 0
9, 279600, Note_on_c, 4, 59, 84
9, 279600, Note_on_c, 4, 56, 84
9, 279704, Note_on_c, 4, 59, 0
9, 279704, Note_on_c, 4, 56, 0
9, 279720, Note_on_c, 4, 61, 84
9, 279720, Note_on_c, 4, 57, 84
9, 279824, Note_on_c, 4, 61, 0
9, 279824, Note_on_c, 4, 57, 0
9, 279840, Note_on_c, 4, 50, 84
9, 279840, Note_on_c, 4, 47, 84
9, 279944, Note_on_c, 4, 50, 0
9, 279944, Note_on_c, 4, 47, 0
9, 279960, Note_on_c, 4, 52, 84
9, 279960, Note_on_c, 4, 49, 84
9, 280064, Note_on_c, 4, 52, 0
9, 280064, Note_on_c, 4, 49, 0
9, 280080, Note_on_c, 4, 54, 84
9, 280080, Note_on_c, 4, 50, 84
9, 280184, Note_on_c, 4, 54, 0
9, 280184, Note_on_c, 4, 50, 0
9, 280200, Note_on_c, 4, 56, 84
9, 280200, Note_on_c, 4, 52, 84
9, 280304, Note_on_c, 4, 56, 0
9, 280304, Note_on_c, 4, 52, 0
9, 280320, Note_on_c, 4, 57, 84
9, 280320, Note_on_c, 4, 54, 84
9, 280424, Note_on_c, 4, 57, 0
9, 280424, Note_on_c, 4, 54, 0
9, 280440, Note_on_c, 4, 56, 84
9, 280440, Note_on_c, 4, 59, 84
9, 280544, Note_on_c, 4, 56, 0
9, 280544, Note_on_c, 4, 59, 0
9, 280560, Note_on_c, 4, 61, 84
9, 280560, Note_on_c, 4, 57, 84
9, 280664, Note_on_c, 4, 61, 0
9, 280664, Note_on_c, 4, 57, 0
9, 280680, Note_on_c, 4, 59, 84
9, 280680, Note_on_c, 4, 62, 84
9, 280784, Note_on_c, 4, 59, 0
9, 280784, Note_on_c, 4, 62, 0
9, 280800, Note_on_c, 4, 49, 84
9, 280800, Note_on_c, 4, 52, 84
9, 280904, Note_on_c, 4, 49, 0
9, 280904, Note_on_c, 4, 52, 0
9, 280920, Note_on_c, 4, 50, 84
9, 280920, Note_on_c, 4, 54, 84
9, 281024, Note_on_c, 4, 50, 0
9, 281024, Note_on_c, 4, 54, 0
9, 281040, Note_on_c, 4, 52, 84
9, 281040, Note_on_c, 4, 56, 84
9, 281144, Note_on_c, 4, 52, 0
9, 281144, Note_on_c, 4, 56, 0
9, 281160, Note_on_c, 4, 54, 84
9, 281160, Note_on_c, 4, 57, 84
9, 281264, Note_on_c, 4, 54, 0
9, 281264, Note_on_c, 4, 57, 0
9, 281280, Note_on_c, 4, 56, 84
9, 281280, Note_on_c, 4, 59, 84
9, 281384, Note_on_c, 4, 56, 0
9, 281384, Note_on_c, 4, 59, 0
9, 281400, Note_on_c, 4, 57, 84
9, 281400, Note_on_c, 4, 61, 84
9, 281504, Note_on_c, 4, 57, 0
9, 281504, Note_on_c, 4, 61, 0
9, 281520, Note_on_c, 4, 59, 84
9, 281520, Note_on_c, 4, 62, 84
9, 281624, Note_on_c, 4, 59, 0
9, 281624, Note_on_c, 4, 62, 0
9, 281640, Note_on_c, 4, 61, 84
9, 281640, Note_on_c, 4, 64, 84
9, 281744, Note_on_c, 4, 61, 0
9, 281744, Note_on_c, 4, 64, 0
9, 281760, Note_on_c, 4, 67, 92
9, 282704, Note_on_c, 4, 67, 0
9, 282720, Note_on_c, 4, 66, 92
9, 282824, Note_on_c, 4, 66, 0
9, 282840, Note_on_c, 4, 64, 92
9, 282944, Note_on_c, 4, 64, 0
9, 282960, Note_on_c, 4, 62, 92
9, 283064, Note_on_c, 4, 62, 0
9, 283080, Note_on_c, 4, 61, 92
9, 283184, Note_on_c, 4, 61, 0
9, 283200, Note_on_c, 4, 59, 92
9, 283304, Note_on_c, 4, 59, 0
9, 283320, Note_on_c, 4, 57, 92
9, 283424, Note_on_c, 4, 57, 0
9, 283440, Note_on_c, 4, 55, 92
9, 283544, Note_on_c, 4, 55, 0
9, 283560, Note_on_c, 4, 54, 92
9, 283664, Note_on_c, 4, 54, 0
9, 283680, Note_on_c, 4, 64, 92
9, 283680, Note_on_c, 4, 61, 92
9, 284129, Note_on_c, 4, 64, 0
9, 284129, Note_on_c, 4, 61, 0
9, 284160, Note_on_c, 4, 66, 92
9, 284160, Note_on_c, 4, 62, 92
9, 284609, Note_on_c, 4, 66, 0
9, 284609, Note_on_c, 4, 62, 0
9, 284640, Note_on_c, 4, 57, 92
9, 284640, Note_on_c, 4, 61, 92
9, 285089, Note_on_c, 4, 57, 0
9, 285089, Note_on_c, 4, 61, 0
9, 285120, Note_on_c, 4, 59, 92
9, 285120, Note_on_c, 4, 56, 92
9, 285569, Note_on_c, 4, 59, 0
9, 285569, Note_on_c, 4, 56, 0
9, 285600, Note_on_c, 4, 59, 52
9, 285600, Note_on_c, 4, 56, 52
9, 285704, Note_on_c, 4, 59, 0
9, 285704, Note_on_c, 4, 56, 0
9, 285720, Note_on_c, 4, 57, 52
9, 285720, Note_on_c, 4, 54, 52
9, 285824, Note_on_c, 4, 57, 0
9, 285824, Note_on_c, 4, 54, 0
9, 285840, Note_on_c, 4, 56, 52
9, 285840, Note_on_c, 4, 52, 52
9, 285944, Note_on_c, 4, 56, 0
9, 285944, Note_on_c, 4, 52, 0
9, 285960, Note_on_c, 4, 54, 52
9, 285960, Note_on_c, 4, 50, 52
9, 286064, Note_on_c, 4, 54, 0
9, 286064, Note_on_c, 4, 50, 0
9, 286080, Note_on_c, 4, 49, 52
9, 286080, Note_on_c, 4, 52, 52
9, 286184, Note_on_c, 4, 49, 0
9, 286184, Note_on_c, 4, 52, 0
9, 286200, Note_on_c, 4, 47, 53
9, 286200, Note_on_c, 4, 50, 53
9, 286304, Note_on_c, 4, 47, 0
9, 286304, Note_on_c, 4, 50, 0
9, 286320, Note_on_c, 4, 49, 54
9, 286320, Note_on_c, 4, 45, 54
9, 286424, Note_on_c, 4, 49, 0
9, 286424, Note_on_c, 4, 45, 0
9, 286440, Note_on_c, 4, 44, 56
9, 286440, Note_on_c, 4, 47, 56
9, 286544, Note_on_c, 4, 44, 0
9, 286544, Note_on_c, 4, 47, 0
9, 286560, Note_on_c, 4, 45, 57
9, 286560, Note_on_c, 4, 49, 57
9, 286664, Note_on_c, 4, 45, 0
9, 286664, Note_on_c, 4, 49, 0
9, 286680, Note_on_c, 4, 47, 59
9, 286680, Note_on_c, 4, 50, 59
9, 286784, Note_on_c, 4, 47, 0
9, 286784, Note_on_c, 4, 50, 0
9, 286800, Note_on_c, 4, 52, 60
9, 286800, Note_on_c, 4, 49, 60
9, 286904, Note_on_c, 4, 52, 0
9, 286904, Note_on_c, 4, 49, 0
9, 286920, Note_on_c, 4, 50, 62
9, 286920, Note_on_c, 4, 54, 62
9, 287024, Note_on_c, 4, 50, 0
9, 287024, Note_on_c, 4, 54, 0
9, 287040, Note_on_c, 4, 56, 63
9, 287040, Note_on_c, 4, 52, 63
9, 287144, Note_on_c, 4, 56, 0
9, 287144, Note_on_c, 4, 52, 0
9, 287160, Note_on_c, 4, 57, 64
9, 287160, Note_on_c, 4, 54, 64
9, 287264, Note_on_c, 4, 57, 0
9, 287264, Note_on_c, 4, 54, 0
9, 287280, Note_on_c, 4, 59, 66
9, 287280, Note_on_c, 4, 56, 66
9, 287384, Note_on_c, 4, 59, 0
9, 287384, Note_on_c, 4, 56, 0
9, 287400, Note_on_c, 4, 57, 67
9, 287400, Note_on_c, 4, 61, 67
9, 287504, Note_on_c, 4, 57, 0
9, 287504, Note_on_c, 4, 61, 0
9, 287520, Note_on_c, 4, 59, 69
9, 287520, Note_on_c, 4, 62, 69
9, 287624, Note_on_c, 4, 59, 0
9, 287624, Note_on_c, 4, 62, 0
9, 287640, Note_on_c, 4, 61, 70
9, 287640, Note_on_c, 4, 57, 70
9, 287744, Note_on_c, 4, 61, 0
9, 287744, Note_on_c, 4, 57, 0
9, 287760, Note_on_c, 4, 56, 72
9, 287760, Note_on_c, 4, 59, 72
9, 287864, Note_on_c, 4, 56, 0
9, 287864, Note_on_c, 4, 59, 0
9, 287880, Note_on_c, 4, 57, 73
9, 287880, Note_on_c, 4, 54, 73
9, 287984, Note_on_c, 4, 57, 0
9, 287984, Note_on_c, 4, 54, 0
9, 288000, Note_on_c, 4, 56, 74
9, 288000, Note_on_c, 4, 52, 74
9, 288104, Note_on_c, 4, 56, 0
9, 288104, Note_on_c, 4, 52, 0
9, 288120, Note_on_c, 4, 54, 76
9, 288120, Note_on_c, 4, 50, 76
9, 288224, Note_on_c, 4, 54, 0
9, 288224, Note_on_c, 4, 50, 0
9, 288240, Note_on_c, 4, 49, 77
9, 288240, Note_on_c, 4, 52, 77
9, 288344, Note_on_c, 4, 49, 0
9, 288344, Note_on_c, 4, 52, 0
9, 288360, Note_on_c, 4, 50, 79
9, 288360, Note_on_c, 4, 47, 79
9, 288464, Note_on_c, 4, 50, 0
9, 288464, Note_on_c, 4, 47, 0
9, 288480, Note_on_c, 4, 52, 80
9, 288480, Note_on_c, 4, 49, 80
9, 288584, Note_on_c, 4, 52, 0
9, 288584, Note_on_c, 4, 49, 0
9, 288600, Note_on_c, 4, 54, 82
9, 288600, Note_on_c, 4, 50, 82
9, 288704, Note_on_c, 4, 54, 0
9, 288704, Note_on_c, 4, 50, 0
9, 288720, Note_on_c, 4, 56, 83
9, 288720, Note_on_c, 4, 52, 83
9, 288824, Note_on_c, 4, 56, 0
9, 288824, Note_on_c, 4, 52, 0
9, 288840, Note_on_c, 4, 57, 84
9, 288840, Note_on_c, 4, 54, 84
9, 288944, Note_on_c, 4, 57, 0
9, 288944, Note_on_c, 4, 54, 0
9, 288960, Note_on_c, 4, 56, 86
9, 288960, Note_on_c, 4, 59, 86
9, 289064, Note_on_c, 4, 56, 0
9, 289064, Note_on_c, 4, 59, 0
9, 289080, Note_on_c, 4, 61, 87
9, 289080, Note_on_c, 4, 57, 87
9, 289184, Note_on_c, 4, 61, 0
9, 289184, Note_on_c, 4, 57, 0
9, 289200, Note_on_c, 4, 62, 89
9, 289200, Note_on_c, 4, 59, 89
9, 289304, Note_on_c, 4, 62, 0
9, 289304, Note_on_c, 4, 59, 0
9, 289320, Note_on_c, 4, 64, 90
9, 289320, Note_on_c, 4, 61, 90
9, 289424, Note_on_c, 4, 64, 0
9, 289424, Note_on_c, 4, 61, 0
9, 289440, Note_on_c, 4, 67, 92
9, 290384, Note_on_c, 4, 67, 0
9, 290400, Note_on_c, 4, 66, 92
9, 290504, Note_on_c, 4, 66, 0
9, 290520, Note_on_c, 4, 64, 92
9, 290624, Note_on_c, 4, 64, 0
9, 290640, Note_on_c, 4, 62, 92
9, 290744, Note_on_c, 4, 62, 0
9, 290760, Note_on_c, 4, 61, 92
9, 290864, Note_on_c, 4, 61, 0
9, 290880, Note_on_c, 4, 59, 92
9, 290984, Note_on_c, 4, 59, 0
9, 291000, Note_on_c, 4, 57, 92
9, 291104, Note_on_c, 4, 57, 0
9, 291120, Note_on_c, 4, 55, 92
9, 291224, Note_on_c, 4, 55, 0
9, 291240, Note_on_c, 4, 54, 92
9, 291344, Note_on_c, 4, 54, 0
9, 291360, Note_on_c, 4, 64, 92
9, 291360, Note_on_c, 4, 61, 92
9, 291809, Note_on_c, 4, 64, 0
9, 291809, Note_on_c, 4, 61, 0
9, 291840, Note_on_c, 4, 62, 92
9, 291840, Note_on_c, 4, 66, 92
9, 292289, Note_on_c, 4, 62, 0
9, 292289, Note_on_c, 4, 66, 0
9, 292320, Note_on_c, 4, 61, 92
9, 292320, Note_on_c, 4, 57, 92
9, 292769, Note_on_c, 4, 61, 0
9, 292769, Note_on_c, 4, 57, 0
9, 292800, Note_on_c, 4, 59, 92
9, 292800, Note_on_c, 4, 56, 92
9, 293249, Note_on_c, 4, 59, 0
9, 293249, Note_on_c, 4, 56, 0
9, 293280, Note_on_c, 4, 45, 84
9, 293399, Note_on_c, 4, 45, 0
9, 293760, Note_on_c, 4, 64, 92
9, 293999, Note_on_c, 4, 64, 0
9, 294000, Note_on_c, 4, 59, 84
9, 294000, Note_on_c, 4, 62, 84
9, 294239, Note_on_c, 4, 59, 0
9, 294239, Note_on_c, 4, 62, 0
9, 294240, Note_on_c, 4, 57, 84
9, 294240, Note_on_c, 4, 61, 84
9, 294479, Note_on_c, 4, 57, 0
9, 294479, Note_on_c, 4, 61, 0
9, 294480, Note_on_c, 4, 59, 84
9, 294480, Note_on_c, 4, 52, 84
9, 294719, Note_on_c, 4, 59, 0
9, 294719, Note_on_c, 4, 52, 0
9, 294720, Note_on_c, 4, 49, 84
9, 294720, Note_on_c, 4, 57, 84
9, 294959, Note_on_c, 4, 49, 0
9, 294959, Note_on_c, 4, 57, 0
9, 294960, Note_on_c, 4, 52, 84
9, 294960, Note_on_c, 4, 59, 84
9, 295199, Note_on_c, 4, 52, 0
9, 295199, Note_on_c, 4, 59, 0
9, 295200, Note_on_c, 4, 61, 84
9, 295200, Note_on_c, 4, 57, 84
9, 295319, Note_on_c, 4, 61, 0
9, 295319, Note_on_c, 4, 57, 0
9, 295680, Note_on_c, 4, 64, 92
9, 295919, Note_on_c, 4, 64, 0
9, 295920, Note_on_c, 4, 59, 84
9, 295920, Note_on_c, 4, 62, 84
9, 296159, Note_on_c, 4, 59, 0
9, 296159, Note_on_c, 4, 62, 0
9, 296160, Note_on_c, 4, 61, 84
9, 296160, Note_on_c, 4, 57, 84
9, 296399, Note_on_c, 4, 61, 0
9, 296399, Note_on_c, 4, 57, 0
9, 296400, Note_on_c, 4, 52, 84
9, 296400, Note_on_c, 4, 59, 84
9, 296639, Note_on_c, 4, 52, 0
9, 296639, Note_on_c, 4, 59, 0
9, 296640, Note_on_c, 4, 49, 84
9, 296640, Note_on_c, 4, 57, 84
9, 296879, Note_on_c, 4, 49, 0
9, 296879, Note_on_c, 4, 57, 0
9, 296880, Note_on_c, 4, 59, 84
9, 296880, Note_on_c, 4, 52, 84
9, 297104, Note_on_c, 4, 59, 0
9, 297104, Note_on_c, 4, 52, 0
9, 297120, Note_on_c, 4, 59, 84
9, 297120, Note_on_c, 4, 52, 84
9, 297224, Note_on_c, 4, 59, 0
9, 297224, Note_on_c, 4, 52, 0
9, 297240, Note_on_c, 4, 59, 84
9, 297240, Note_on_c, 4, 52, 84
9, 297344, Note_on_c, 4, 59, 0
9, 297344, Note_on_c, 4, 52, 0
9, 297360, Note_on_c, 4, 59, 92
9, 297360, Note_on_c, 4, 52, 92
9, 297464, Note_on_c, 4, 59, 0
9, 297464, Note_on_c, 4, 52, 0
9, 297480, Note_on_c, 4, 59, 84
9, 297480, Note_on_c, 4, 52, 84
9, 297584, Note_on_c, 4, 59, 0
9, 297584, Note_on_c, 4, 52, 0
9, 297600, Note_on_c, 4, 52, 92
9, 297600, Note_on_c, 4, 59, 92
9, 297704, Note_on_c, 4, 52, 0
9, 297704, Note_on_c, 4, 59, 0
9, 297720, Note_on_c, 4, 59, 84
9, 297720, Note_on_c, 4, 52, 84
9, 297824, Note_on_c, 4, 59, 0
9, 297824, Note_on_c, 4, 52, 0
9, 297840, Note_on_c, 4, 52, 92
9, 297840, Note_on_c, 4, 59, 92
9, 297944, Note_on_c, 4, 52, 0
9, 297944, Note_on_c, 4, 59, 0
9, 297960, Note_on_c, 4, 52, 84
9, 297960, Note_on_c, 4, 59, 84
9, 298064, Note_on_c, 4, 52, 0
9, 298064, Note_on_c, 4, 59, 0
9, 298080, Note_on_c, 4, 59, 84
9, 298080, Note_on_c, 4, 52, 84
9, 298184, Note_on_c, 4, 59, 0
9, 298184, Note_on_c, 4, 52, 0
9, 298200, Note_on_c, 4, 52, 84
9, 298200, Note_on_c, 4, 59, 84
9, 298304, Note_on_c, 4, 52, 0
9, 298304, Note_on_c, 4, 59, 0
9, 298320, Note_on_c, 4, 59, 84
9, 298320, Note_on_c, 4, 52, 84
9, 298424, Note_on_c, 4, 59, 0
9, 298424, Note_on_c, 4, 52, 0
9, 298440, Note_on_c, 4, 59, 84
9, 298440, Note_on_c, 4, 52, 84
9, 298544, Note_on_c, 4, 59, 0
9, 298544, Note_on_c, 4, 52, 0
9, 298560, Note_on_c, 4, 52, 84
9, 298560, Note_on_c, 4, 59, 84
9, 298664, Note_on_c, 4, 52, 0
9, 298664, Note_on_c, 4, 59, 0
9, 298680, Note_on_c, 4, 59, 84
9, 298680, Note_on_c, 4, 52, 84
9, 298784, Note_on_c, 4, 59, 0
9, 298784, Note_on_c, 4, 52, 0
9, 298800, Note_on_c, 4, 52, 84
9, 298800, Note_on_c, 4, 59, 84
9, 298904, Note_on_c, 4, 52, 0
9, 298904, Note_on_c, 4, 59, 0
9, 298920, Note_on_c, 4, 52, 84
9, 298920, Note_on_c, 4, 59, 84
9, 299024, Note_on_c, 4, 52, 0
9, 299024, Note_on_c, 4, 59, 0
9, 299040, Note_on_c, 4, 57, 84
9, 299040, Note_on_c, 4, 45, 84
9, 299159, Note_on_c, 4, 57, 0
9, 299159, Note_on_c, 4, 45, 0
9, 299520, Note_on_c, 4, 45, 84
9, 299639, Note_on_c, 4, 45, 0
9, 300000, Note_on_c, 4, 45, 84
9, 300119, Note_on_c, 4, 45, 0
9, 300119, End_track
10, 0, Start_track
10, 0, Title_t, "French Horn in A"
10, 0, MIDI_port, 0
10, 0, Program_c, 5, 60
10, 0, Control_c, 5, 7, 104
10, 0, Control_c, 5, 11, 127
10, 0, Control_c, 5, 10, 45
10, 120, Note_on_c, 5, 52, 84
10, 120, Note_on_c, 5, 64, 84
10, 171, Note_on_c, 5, 52, 0
10, 171, Note_on_c, 5, 64, 0
10, 180, Note_on_c, 5, 52, 84
10, 180, Note_on_c, 5, 64, 84
10, 231, Note_on_c, 5, 52, 0
10, 231, Note_on_c, 5, 64, 0
10, 240, Note_on_c, 5, 64, 84
10, 240, Note_on_c, 5, 52, 84
10, 359, Note_on_c, 5, 64, 0
10, 359, Note_on_c, 5, 52, 0
10, 1080, Note_on_c, 5, 64, 84
10, 1080, Note_on_c, 5, 52, 84
10, 1131, Note_on_c, 5, 64, 0
10, 1131, Note_on_c, 5, 52, 0
10, 1140, Note_on_c, 5, 64, 84
10, 1140, Note_on_c, 5, 52, 84
10, 1191, Note_on_c, 5, 64, 0
10, 1191, Note_on_c, 5, 52, 0
10, 1200, Note_on_c, 5, 64, 84
10, 1200, Note_on_c, 5, 52, 84
10, 1319, Note_on_c, 5, 64, 0
10, 1319, Note_on_c, 5, 52, 0
10, 1920, Note_on_c, 5, 64, 84
10, 1920, Note_on_c, 5, 52, 84
10, 2039, Note_on_c, 5, 64, 0
10, 2039, Note_on_c, 5, 52, 0
10, 2160, Note_on_c, 5, 52, 92
10, 2160, Note_on_c, 5, 64, 92
10, 2519, Note_on_c, 5, 52, 0
10, 2519, Note_on_c, 5, 64, 0
10, 2640, Note_on_c, 5, 52, 92
10, 2640, Note_on_c, 5, 64, 92
10, 2999, Note_on_c, 5, 52, 0
10, 2999, Note_on_c, 5, 64, 0
10, 3120, Note_on_c, 5, 64, 92
10, 3120, Note_on_c, 5, 52, 92
10, 3479, Note_on_c, 5, 64, 0
10, 3479, Note_on_c, 5, 52, 0
10, 3600, Note_on_c, 5, 52, 92
10, 3600, Note_on_c, 5, 64, 92
10, 3959, Note_on_c, 5, 52, 0
10, 3959, Note_on_c, 5, 64, 0
10, 4080, Note_on_c, 5, 52, 92
10, 4080, Note_on_c, 5, 64, 92
10, 4439, Note_on_c, 5, 52, 0
10, 4439, Note_on_c, 5, 64, 0
10, 4560, Note_on_c, 5, 52, 92
10, 4560, Note_on_c, 5, 64, 92
10, 4919, Note_on_c, 5, 52, 0
10, 4919, Note_on_c, 5, 64, 0
10, 5040, Note_on_c, 5, 64, 92
10, 5040, Note_on_c, 5, 52, 92
10, 5279, Note_on_c, 5, 52, 0
10, 5280, Note_on_c, 5, 57, 84
10, 5384, Note_on_c, 5, 64, 0
10, 5384, Note_on_c, 5, 57, 0
10, 5400, Note_on_c, 5, 69, 84
10, 5400, Note_on_c, 5, 57, 84
10, 5451, Note_on_c, 5, 69, 0
10, 5451, Note_on_c, 5, 57, 0
10, 5460, Note_on_c, 5, 57, 84
10, 5460, Note_on_c, 5, 69, 84
10, 5511, Note_on_c, 5, 57, 0
10, 5511, Note_on_c, 5, 69, 0
10, 5520, Note_on_c, 5, 69, 84
10, 5520, Note_on_c, 5, 57, 84
10, 5639, Note_on_c, 5, 69, 0
10, 5639, Note_on_c, 5, 57, 0
10, 5760, Note_on_c, 5, 52, 84
10, 5760, Note_on_c, 5, 64, 84
10, 5879, Note_on_c, 5, 52, 0
10, 5879, Note_on_c, 5, 64, 0
10, 6000, Note_on_c, 5, 64, 92
10, 6000, Note_on_c, 5, 52, 92
10, 6359, Note_on_c, 5, 64, 0
10, 6359, Note_on_c, 5, 52, 0
10, 6480, Note_on_c, 5, 64, 92
10, 6480, Note_on_c, 5, 52, 92
10, 6839, Note_on_c, 5, 64, 0
10, 6839, Note_on_c, 5, 52, 0
10, 6960, Note_on_c, 5, 64, 92
10, 6960, Note_on_c, 5, 52, 92
10, 7319, Note_on_c, 5, 64, 0
10, 7319, Note_on_c, 5, 52, 0
10, 7440, Note_on_c, 5, 64, 92
10, 7440, Note_on_c, 5, 52, 92
10, 7799, Note_on_c, 5, 64, 0
10, 7799, Note_on_c, 5, 52, 0
10, 7920, Note_on_c, 5, 52, 92
10, 7920, Note_on_c, 5, 64, 92
10, 8279, Note_on_c, 5, 52, 0
10, 8279, Note_on_c, 5, 64, 0
10, 8400, Note_on_c, 5, 64, 92
10, 8400, Note_on_c, 5, 52, 92
10, 8759, Note_on_c, 5, 64, 0
10, 8759, Note_on_c, 5, 52, 0
10, 8880, Note_on_c, 5, 64, 92
10, 8880, Note_on_c, 5, 52, 92
10, 9119, Note_on_c, 5, 52, 0
10, 9120, Note_on_c, 5, 57, 84
10, 9224, Note_on_c, 5, 64, 0
10, 9224, Note_on_c, 5, 57, 0
10, 9240, Note_on_c, 5, 69, 84
10, 9240, Note_on_c, 5, 57, 84
10, 9291, Note_on_c, 5, 69, 0
10, 9291, Note_on_c, 5, 57, 0
10, 9300, Note_on_c, 5, 57, 84
10, 9300, Note_on_c, 5, 69, 84
10, 9351, Note_on_c, 5, 57, 0
10, 9351, Note_on_c, 5, 69, 0
10, 9360, Note_on_c, 5, 57, 84
10, 9360, Note_on_c, 5, 69, 84
10, 9479, Note_on_c, 5, 57, 0
10, 9479, Note_on_c, 5, 69, 0
10, 9600, Note_on_c, 5, 45, 84
10, 9600, Note_on_c, 5, 57, 84
10, 9719, Note_on_c, 5, 45, 0
10, 9719, Note_on_c, 5, 57, 0
10, 9840, Note_on_c, 5, 57, 92
10, 9840, Note_on_c, 5, 45, 92
10, 10199, Note_on_c, 5, 57, 0
10, 10199, Note_on_c, 5, 45, 0
10, 10320, Note_on_c, 5, 45, 92
10, 10320, Note_on_c, 5, 57, 92
10, 10679, Note_on_c, 5, 45, 0
10, 10679, Note_on_c, 5, 57, 0
10, 10800, Note_on_c, 5, 57, 92
10, 10800, Note_on_c, 5, 45, 92
10, 11159, Note_on_c, 5, 57, 0
10, 11159, Note_on_c, 5, 45, 0
10, 11520, Note_on_c, 5, 71, 84
10, 11639, Note_on_c, 5, 71, 0
10, 11760, Note_on_c, 5, 64, 92
10, 11760, Note_on_c, 5, 52, 92
10, 11999, Note_on_c, 5, 64, 0
10, 12000, Note_on_c, 5, 69, 84
10, 12119, Note_on_c, 5, 52, 0
10, 12119, Note_on_c, 5, 69, 0
10, 12240, Note_on_c, 5, 61, 92
10, 12240, Note_on_c, 5, 52, 92
10, 12479, Note_on_c, 5, 61, 0
10, 12480, Note_on_c, 5, 64, 84
10, 12599, Note_on_c, 5, 52, 0
10, 12599, Note_on_c, 5, 64, 0
10, 12720, Note_on_c, 5, 64, 92
10, 12720, Note_on_c, 5, 52, 92
10, 12959, Note_on_c, 5, 64, 0
10, 12959, Note_on_c, 5, 52, 0
10, 12960, Note_on_c, 5, 57, 84
10, 12960, Note_on_c, 5, 45, 84
10, 13064, Note_on_c, 5, 57, 0
10, 13064, Note_on_c, 5, 45, 0
10, 13080, Note_on_c, 5, 69, 84
10, 13080, Note_on_c, 5, 57, 84
10, 13131, Note_on_c, 5, 69, 0
10, 13131, Note_on_c, 5, 57, 0
10, 13140, Note_on_c, 5, 57, 84
10, 13140, Note_on_c, 5, 69, 84
10, 13191, Note_on_c, 5, 57, 0
10, 13191, Note_on_c, 5, 69, 0
10, 13200, Note_on_c, 5, 69, 84
10, 13200, Note_on_c, 5, 57, 84
10, 13319, Note_on_c, 5, 69, 0
10, 13319, Note_on_c, 5, 57, 0
10, 13440, Note_on_c, 5, 45, 84
10, 13440, Note_on_c, 5, 57, 84
10, 13559, Note_on_c, 5, 45, 0
10, 13559, Note_on_c, 5, 57, 0
10, 13680, Note_on_c, 5, 57, 92
10, 13680, Note_on_c, 5, 45, 92
10, 14039, Note_on_c, 5, 57, 0
10, 14039, Note_on_c, 5, 45, 0
10, 14160, Note_on_c, 5, 57, 92
10, 14160, Note_on_c, 5, 45, 92
10, 14519, Note_on_c, 5, 57, 0
10, 14519, Note_on_c, 5, 45, 0
10, 14640, Note_on_c, 5, 57, 92
10, 14640, Note_on_c, 5, 45, 92
10, 14999, Note_on_c, 5, 57, 0
10, 14999, Note_on_c, 5, 45, 0
10, 15360, Note_on_c, 5, 71, 84
10, 15479, Note_on_c, 5, 71, 0
10, 15600, Note_on_c, 5, 64, 92
10, 15600, Note_on_c, 5, 52, 92
10, 15839, Note_on_c, 5, 64, 0
10, 15840, Note_on_c, 5, 69, 84
10, 15959, Note_on_c, 5, 52, 0
10, 15959, Note_on_c, 5, 69, 0
10, 16080, Note_on_c, 5, 61, 92
10, 16080, Note_on_c, 5, 52, 92
10, 16319, Note_on_c, 5, 61, 0
10, 16320, Note_on_c, 5, 64, 84
10, 16439, Note_on_c, 5, 52, 0
10, 16439, Note_on_c, 5, 64, 0
10, 16560, Note_on_c, 5, 52, 92
10, 16560, Note_on_c, 5, 64, 92
10, 16799, Note_on_c, 5, 52, 0
10, 16799, Note_on_c, 5, 64, 0
10, 16800, Note_on_c, 5, 57, 84
10, 16800, Note_on_c, 5, 45, 84
10, 16904, Note_on_c, 5, 57, 0
10, 16904, Note_on_c, 5, 45, 0
10, 16920, Note_on_c, 5, 57, 84
10, 16920, Note_on_c, 5, 69, 84
10, 16971, Note_on_c, 5, 57, 0
10, 16971, Note_on_c, 5, 69, 0
10, 16980, Note_on_c, 5, 57, 84
10, 16980, Note_on_c, 5, 69, 84
10, 17031, Note_on_c, 5, 57, 0
10, 17031, Note_on_c, 5, 69, 0
10, 17040, Note_on_c, 5, 57, 84
10, 17040, Note_on_c, 5, 69, 84
10, 17159, Note_on_c, 5, 57, 0
10, 17159, Note_on_c, 5, 69, 0
10, 17400, Note_on_c, 5, 57, 84
10, 17400, Note_on_c, 5, 69, 84
10, 17451, Note_on_c, 5, 57, 0
10, 17451, Note_on_c, 5, 69, 0
10, 17460, Note_on_c, 5, 69, 84
10, 17460, Note_on_c, 5, 57, 84
10, 17511, Note_on_c, 5, 69, 0
10, 17511, Note_on_c, 5, 57, 0
10, 17520, Note_on_c, 5, 69, 84
10, 17520, Note_on_c, 5, 57, 84
10, 17639, Note_on_c, 5, 69, 0
10, 17639, Note_on_c, 5, 57, 0
10, 17880, Note_on_c, 5, 64, 84
10, 17880, Note_on_c, 5, 52, 84
10, 17931, Note_on_c, 5, 64, 0
10, 17931, Note_on_c, 5, 52, 0
10, 17940, Note_on_c, 5, 64, 84
10, 17940, Note_on_c, 5, 52, 84
10, 17991, Note_on_c, 5, 64, 0
10, 17991, Note_on_c, 5, 52, 0
10, 18000, Note_on_c, 5, 52, 84
10, 18000, Note_on_c, 5, 64, 84
10, 18119, Note_on_c, 5, 52, 0
10, 18119, Note_on_c, 5, 64, 0
10, 18360, Note_on_c, 5, 52, 84
10, 18360, Note_on_c, 5, 64, 84
10, 18411, Note_on_c, 5, 52, 0
10, 18411, Note_on_c, 5, 64, 0
10, 18420, Note_on_c, 5, 52, 84
10, 18420, Note_on_c, 5, 64, 84
10, 18471, Note_on_c, 5, 52, 0
10, 18471, Note_on_c, 5, 64, 0
10, 18480, Note_on_c, 5, 52, 84
10, 18480, Note_on_c, 5, 64, 84
10, 18599, Note_on_c, 5, 52, 0
10, 18599, Note_on_c, 5, 64, 0
10, 18720, Note_on_c, 5, 73, 84
10, 18720, Note_on_c, 5, 69, 84
10, 19064, Note_on_c, 5, 73, 0
10, 19064, Note_on_c, 5, 69, 0
10, 19080, Note_on_c, 5, 71, 84
10, 19080, Note_on_c, 5, 64, 84
10, 19169, Note_on_c, 5, 71, 0
10, 19169, Note_on_c, 5, 64, 0
10, 19200, Note_on_c, 5, 61, 84
10, 19200, Note_on_c, 5, 69, 84
10, 19289, Note_on_c, 5, 61, 0
10, 19289, Note_on_c, 5, 69, 0
10, 19320, Note_on_c, 5, 69, 84
10, 19320, Note_on_c, 5, 73, 84
10, 19409, Note_on_c, 5, 69, 0
10, 19409, Note_on_c, 5, 73, 0
10, 19440, Note_on_c, 5, 64, 84
10, 19440, Note_on_c, 5, 71, 84
10, 19529, Note_on_c, 5, 64, 0
10, 19529, Note_on_c, 5, 71, 0
10, 19560, Note_on_c, 5, 61, 84
10, 19560, Note_on_c, 5, 69, 84
10, 19649, Note_on_c, 5, 61, 0
10, 19649, Note_on_c, 5, 69, 0
10, 19680, Note_on_c, 5, 64, 84
10, 19680, Note_on_c, 5, 71, 84
10, 19769, Note_on_c, 5, 64, 0
10, 19769, Note_on_c, 5, 71, 0
10, 19800, Note_on_c, 5, 61, 84
10, 19800, Note_on_c, 5, 69, 84
10, 19889, Note_on_c, 5, 61, 0
10, 19889, Note_on_c, 5, 69, 0
10, 19920, Note_on_c, 5, 64, 84
10, 19920, Note_on_c, 5, 76, 84
10, 20009, Note_on_c, 5, 64, 0
10, 20009, Note_on_c, 5, 76, 0
10, 20040, Note_on_c, 5, 64, 84
10, 20040, Note_on_c, 5, 76, 84
10, 20129, Note_on_c, 5, 64, 0
10, 20129, Note_on_c, 5, 76, 0
10, 20160, Note_on_c, 5, 64, 84
10, 20160, Note_on_c, 5, 76, 84
10, 20249, Note_on_c, 5, 64, 0
10, 20249, Note_on_c, 5, 76, 0
10, 20280, Note_on_c, 5, 76, 84
10, 20280, Note_on_c, 5, 64, 84
10, 20369, Note_on_c, 5, 76, 0
10, 20369, Note_on_c, 5, 64, 0
10, 20400, Note_on_c, 5, 64, 84
10, 20400, Note_on_c, 5, 76, 84
10, 20489, Note_on_c, 5, 64, 0
10, 20489, Note_on_c, 5, 76, 0
10, 20520, Note_on_c, 5, 64, 84
10, 20520, Note_on_c, 5, 76, 84
10, 20609, Note_on_c, 5, 64, 0
10, 20609, Note_on_c, 5, 76, 0
10, 20640, Note_on_c, 5, 69, 84
10, 20640, Note_on_c, 5, 57, 84
10, 20744, Note_on_c, 5, 69, 0
10, 20744, Note_on_c, 5, 57, 0
10, 20760, Note_on_c, 5, 57, 84
10, 20760, Note_on_c, 5, 69, 84
10, 20811, Note_on_c, 5, 57, 0
10, 20811, Note_on_c, 5, 69, 0
10, 20820, Note_on_c, 5, 69, 84
10, 20820, Note_on_c, 5, 57, 84
10, 20871, Note_on_c, 5, 69, 0
10, 20871, Note_on_c, 5, 57, 0
10, 20880, Note_on_c, 5, 69, 84
10, 20880, Note_on_c, 5, 57, 84
10, 20999, Note_on_c, 5, 69, 0
10, 20999, Note_on_c, 5, 57, 0
10, 21240, Note_on_c, 5, 57, 84
10, 21240, Note_on_c, 5, 69, 84
10, 21291, Note_on_c, 5, 57, 0
10, 21291, Note_on_c, 5, 69, 0
10, 21300, Note_on_c, 5, 69, 84
10, 21300, Note_on_c, 5, 57, 84
10, 21351, Note_on_c, 5, 69, 0
10, 21351, Note_on_c, 5, 57, 0
10, 21360, Note_on_c, 5, 69, 84
10, 21360, Note_on_c, 5, 57, 84
10, 21479, Note_on_c, 5, 69, 0
10, 21479, Note_on_c, 5, 57, 0
10, 21720, Note_on_c, 5, 64, 84
10, 21720, Note_on_c, 5, 52, 84
10, 21771, Note_on_c, 5, 64, 0
10, 21771, Note_on_c, 5, 52, 0
10, 21780, Note_on_c, 5, 52, 84
10, 21780, Note_on_c, 5, 64, 84
10, 21831, Note_on_c, 5, 52, 0
10, 21831, Note_on_c, 5, 64, 0
10, 21840, Note_on_c, 5, 52, 84
10, 21840, Note_on_c, 5, 64, 84
10, 21959, Note_on_c, 5, 52, 0
10, 21959, Note_on_c, 5, 64, 0
10, 22200, Note_on_c, 5, 52, 84
10, 22200, Note_on_c, 5, 64, 84
10, 22251, Note_on_c, 5, 52, 0
10, 22251, Note_on_c, 5, 64, 0
10, 22260, Note_on_c, 5, 52, 84
10, 22260, Note_on_c, 5, 64, 84
10, 22311, Note_on_c, 5, 52, 0
10, 22311, Note_on_c, 5, 64, 0
10, 22320, Note_on_c, 5, 52, 84
10, 22320, Note_on_c, 5, 64, 84
10, 22439, Note_on_c, 5, 52, 0
10, 22439, Note_on_c, 5, 64, 0
10, 22560, Note_on_c, 5, 73, 84
10, 22560, Note_on_c, 5, 69, 84
10, 22679, Note_on_c, 5, 73, 0
10, 22679, Note_on_c, 5, 69, 0
10, 22800, Note_on_c, 5, 73, 84
10, 22800, Note_on_c, 5, 69, 84
10, 22919, Note_on_c, 5, 73, 0
10, 22919, Note_on_c, 5, 69, 0
10, 23040, Note_on_c, 5, 73, 84
10, 23040, Note_on_c, 5, 69, 84
10, 23159, Note_on_c, 5, 73, 0
10, 23159, Note_on_c, 5, 69, 0
10, 23280, Note_on_c, 5, 73, 84
10, 23280, Note_on_c, 5, 69, 84
10, 23399, Note_on_c, 5, 73, 0
10, 23399, Note_on_c, 5, 69, 0
10, 23520, Note_on_c, 5, 71, 84
10, 23520, Note_on_c, 5, 64, 84
10, 23639, Note_on_c, 5, 71, 0
10, 23639, Note_on_c, 5, 64, 0
10, 23760, Note_on_c, 5, 71, 84
10, 23760, Note_on_c, 5, 64, 84
10, 23879, Note_on_c, 5, 71, 0
10, 23879, Note_on_c, 5, 64, 0
10, 24000, Note_on_c, 5, 71, 84
10, 24000, Note_on_c, 5, 64, 84
10, 24119, Note_on_c, 5, 71, 0
10, 24119, Note_on_c, 5, 64, 0
10, 24240, Note_on_c, 5, 71, 84
10, 24240, Note_on_c, 5, 64, 84
10, 24359, Note_on_c, 5, 71, 0
10, 24359, Note_on_c, 5, 64, 0
10, 24480, Note_on_c, 5, 61, 84
10, 24480, Note_on_c, 5, 69, 84
10, 24599, Note_on_c, 5, 61, 0
10, 24599, Note_on_c, 5, 69, 0
10, 24960, Note_on_c, 5, 52, 84
10, 24960, Note_on_c, 5, 64, 84
10, 26519, Note_on_c, 5, 52, 0
10, 26519, Note_on_c, 5, 64, 0
10, 26880, Note_on_c, 5, 64, 84
10, 26880, Note_on_c, 5, 52, 84
10, 27959, Note_on_c, 5, 64, 0
10, 27959, Note_on_c, 5, 52, 0
10, 32160, Note_on_c, 5, 73, 84
10, 32160, Note_on_c, 5, 61, 84
10, 32279, Note_on_c, 5, 73, 0
10, 32279, Note_on_c, 5, 61, 0
10, 32400, Note_on_c, 5, 61, 84
10, 32400, Note_on_c, 5, 73, 84
10, 32519, Note_on_c, 5, 61, 0
10, 32519, Note_on_c, 5, 73, 0
10, 32640, Note_on_c, 5, 61, 84
10, 32640, Note_on_c, 5, 73, 84
10, 32759, Note_on_c, 5, 61, 0
10, 32759, Note_on_c, 5, 73, 0
10, 32880, Note_on_c, 5, 73, 84
10, 32880, Note_on_c, 5, 61, 84
10, 32999, Note_on_c, 5, 73, 0
10, 32999, Note_on_c, 5, 61, 0
10, 33120, Note_on_c, 5, 73, 84
10, 33120, Note_on_c, 5, 61, 84
10, 33239, Note_on_c, 5, 73, 0
10, 33239, Note_on_c, 5, 61, 0
10, 33360, Note_on_c, 5, 73, 84
10, 33360, Note_on_c, 5, 61, 84
10, 33479, Note_on_c, 5, 73, 0
10, 33479, Note_on_c, 5, 61, 0
10, 33600, Note_on_c, 5, 73, 84
10, 33600, Note_on_c, 5, 61, 84
10, 33719, Note_on_c, 5, 73, 0
10, 33719, Note_on_c, 5, 61, 0
10, 33840, Note_on_c, 5, 73, 84
10, 33840, Note_on_c, 5, 61, 84
10, 33959, Note_on_c, 5, 73, 0
10, 33959, Note_on_c, 5, 61, 0
10, 34080, Note_on_c, 5, 73, 84
10, 34080, Note_on_c, 5, 61, 84
10, 34199, Note_on_c, 5, 73, 0
10, 34199, Note_on_c, 5, 61, 0
10, 34320, Note_on_c, 5, 73, 84
10, 34320, Note_on_c, 5, 61, 84
10, 34439, Note_on_c, 5, 73, 0
10, 34439, Note_on_c, 5, 61, 0
10, 34560, Note_on_c, 5, 73, 84
10, 34560, Note_on_c, 5, 61, 84
10, 34679, Note_on_c, 5, 73, 0
10, 34679, Note_on_c, 5, 61, 0
10, 34800, Note_on_c, 5, 61, 84
10, 34800, Note_on_c, 5, 73, 84
10, 34919, Note_on_c, 5, 61, 0
10, 34919, Note_on_c, 5, 73, 0
10, 35040, Note_on_c, 5, 69, 84
10, 35040, Note_on_c, 5, 57, 84
10, 35159, Note_on_c, 5, 69, 0
10, 35159, Note_on_c, 5, 57, 0
10, 35280, Note_on_c, 5, 57, 84
10, 35280, Note_on_c, 5, 69, 84
10, 35399, Note_on_c, 5, 57, 0
10, 35399, Note_on_c, 5, 69, 0
10, 35520, Note_on_c, 5, 57, 84
10, 35520, Note_on_c, 5, 69, 84
10, 35639, Note_on_c, 5, 57, 0
10, 35639, Note_on_c, 5, 69, 0
10, 35760, Note_on_c, 5, 57, 84
10, 35760, Note_on_c, 5, 69, 84
10, 35879, Note_on_c, 5, 57, 0
10, 35879, Note_on_c, 5, 69, 0
10, 36000, Note_on_c, 5, 69, 84
10, 36000, Note_on_c, 5, 57, 84
10, 36119, Note_on_c, 5, 69, 0
10, 36119, Note_on_c, 5, 57, 0
10, 36240, Note_on_c, 5, 69, 84
10, 36240, Note_on_c, 5, 57, 84
10, 36359, Note_on_c, 5, 69, 0
10, 36359, Note_on_c, 5, 57, 0
10, 36480, Note_on_c, 5, 69, 84
10, 36480, Note_on_c, 5, 57, 84
10, 36599, Note_on_c, 5, 69, 0
10, 36599, Note_on_c, 5, 57, 0
10, 36720, Note_on_c, 5, 69, 84
10, 36720, Note_on_c, 5, 57, 84
10, 36839, Note_on_c, 5, 69, 0
10, 36839, Note_on_c, 5, 57, 0
10, 36960, Note_on_c, 5, 69, 84
10, 36960, Note_on_c, 5, 57, 84
10, 37079, Note_on_c, 5, 69, 0
10, 37079, Note_on_c, 5, 57, 0
10, 37200, Note_on_c, 5, 69, 76
10, 37319, Note_on_c, 5, 69, 0
10, 39120, Note_on_c, 5, 69, 76
10, 39239, Note_on_c, 5, 69, 0
10, 42960, Note_on_c, 5, 64, 76
10, 42960, Note_on_c, 5, 52, 76
10, 43199, Note_on_c, 5, 64, 0
10, 43199, Note_on_c, 5, 52, 0
10, 43920, Note_on_c, 5, 64, 76
10, 43920, Note_on_c, 5, 52, 76
10, 44159, Note_on_c, 5, 64, 0
10, 44159, Note_on_c, 5, 52, 0
10, 47760, Note_on_c, 5, 64, 76
10, 47999, Note_on_c, 5, 64, 0
10, 48720, Note_on_c, 5, 64, 76
10, 48959, Note_on_c, 5, 64, 0
10, 57120, Note_on_c, 5, 57, 84
10, 57120, Note_on_c, 5, 69, 84
10, 57224, Note_on_c, 5, 57, 0
10, 57224, Note_on_c, 5, 69, 0
10, 57240, Note_on_c, 5, 69, 84
10, 57240, Note_on_c, 5, 57, 84
10, 57344, Note_on_c, 5, 69, 0
10, 57344, Note_on_c, 5, 57, 0
10, 57360, Note_on_c, 5, 69, 84
10, 57360, Note_on_c, 5, 57, 84
10, 57464, Note_on_c, 5, 69, 0
10, 57464, Note_on_c, 5, 57, 0
10, 57480, Note_on_c, 5, 69, 84
10, 57480, Note_on_c, 5, 57, 84
10, 57584, Note_on_c, 5, 69, 0
10, 57584, Note_on_c, 5, 57, 0
10, 57600, Note_on_c, 5, 69, 84
10, 57600, Note_on_c, 5, 57, 84
10, 57704, Note_on_c, 5, 69, 0
10, 57704, Note_on_c, 5, 57, 0
10, 57720, Note_on_c, 5, 69, 84
10, 57720, Note_on_c, 5, 57, 84
10, 57824, Note_on_c, 5, 69, 0
10, 57824, Note_on_c, 5, 57, 0
10, 57840, Note_on_c, 5, 69, 84
10, 57840, Note_on_c, 5, 57, 84
10, 57944, Note_on_c, 5, 69, 0
10, 57944, Note_on_c, 5, 57, 0
10, 57960, Note_on_c, 5, 57, 84
10, 57960, Note_on_c, 5, 69, 84
10, 58064, Note_on_c, 5, 57, 0
10, 58064, Note_on_c, 5, 69, 0
10, 58080, Note_on_c, 5, 52, 92
10, 58080, Note_on_c, 5, 64, 92
10, 58184, Note_on_c, 5, 52, 0
10, 58184, Note_on_c, 5, 64, 0
10, 58200, Note_on_c, 5, 64, 84
10, 58200, Note_on_c, 5, 52, 84
10, 58304, Note_on_c, 5, 64, 0
10, 58304, Note_on_c, 5, 52, 0
10, 58320, Note_on_c, 5, 52, 84
10, 58320, Note_on_c, 5, 64, 84
10, 58424, Note_on_c, 5, 52, 0
10, 58424, Note_on_c, 5, 64, 0
10, 58440, Note_on_c, 5, 52, 84
10, 58440, Note_on_c, 5, 64, 84
10, 58544, Note_on_c, 5, 52, 0
10, 58544, Note_on_c, 5, 64, 0
10, 58560, Note_on_c, 5, 57, 92
10, 58560, Note_on_c, 5, 69, 92
10, 58664, Note_on_c, 5, 57, 0
10, 58664, Note_on_c, 5, 69, 0
10, 58680, Note_on_c, 5, 57, 84
10, 58680, Note_on_c, 5, 69, 84
10, 58784, Note_on_c, 5, 57, 0
10, 58784, Note_on_c, 5, 69, 0
10, 58800, Note_on_c, 5, 57, 84
10, 58800, Note_on_c, 5, 69, 84
10, 58904, Note_on_c, 5, 57, 0
10, 58904, Note_on_c, 5, 69, 0
10, 58920, Note_on_c, 5, 57, 84
10, 58920, Note_on_c, 5, 69, 84
10, 59024, Note_on_c, 5, 57, 0
10, 59024, Note_on_c, 5, 69, 0
10, 59040, Note_on_c, 5, 64, 92
10, 59040, Note_on_c, 5, 52, 92
10, 59144, Note_on_c, 5, 64, 0
10, 59144, Note_on_c, 5, 52, 0
10, 59160, Note_on_c, 5, 64, 84
10, 59160, Note_on_c, 5, 52, 84
10, 59264, Note_on_c, 5, 64, 0
10, 59264, Note_on_c, 5, 52, 0
10, 59280, Note_on_c, 5, 52, 84
10, 59280, Note_on_c, 5, 64, 84
10, 59384, Note_on_c, 5, 52, 0
10, 59384, Note_on_c, 5, 64, 0
10, 59400, Note_on_c, 5, 64, 84
10, 59400, Note_on_c, 5, 52, 84
10, 59504, Note_on_c, 5, 64, 0
10, 59504, Note_on_c, 5, 52, 0
10, 59520, Note_on_c, 5, 57, 92
10, 59520, Note_on_c, 5, 69, 92
10, 59624, Note_on_c, 5, 57, 0
10, 59624, Note_on_c, 5, 69, 0
10, 59640, Note_on_c, 5, 69, 84
10, 59640, Note_on_c, 5, 57, 84
10, 59744, Note_on_c, 5, 69, 0
10, 59744, Note_on_c, 5, 57, 0
10, 59760, Note_on_c, 5, 69, 84
10, 59760, Note_on_c, 5, 57, 84
10, 59864, Note_on_c, 5, 69, 0
10, 59864, Note_on_c, 5, 57, 0
10, 59880, Note_on_c, 5, 57, 84
10, 59880, Note_on_c, 5, 69, 84
10, 59984, Note_on_c, 5, 57, 0
10, 59984, Note_on_c, 5, 69, 0
10, 60000, Note_on_c, 5, 52, 92
10, 60000, Note_on_c, 5, 64, 92
10, 60104, Note_on_c, 5, 52, 0
10, 60104, Note_on_c, 5, 64, 0
10, 60120, Note_on_c, 5, 52, 84
10, 60120, Note_on_c, 5, 64, 84
10, 60224, Note_on_c, 5, 52, 0
10, 60224, Note_on_c, 5, 64, 0
10, 60240, Note_on_c, 5, 64, 84
10, 60240, Note_on_c, 5, 52, 84
10, 60344, Note_on_c, 5, 64, 0
10, 60344, Note_on_c, 5, 52, 0
10, 60360, Note_on_c, 5, 52, 84
10, 60360, Note_on_c, 5, 64, 84
10, 60464, Note_on_c, 5, 52, 0
10, 60464, Note_on_c, 5, 64, 0
10, 60480, Note_on_c, 5, 69, 92
10, 60480, Note_on_c, 5, 57, 92
10, 60584, Note_on_c, 5, 69, 0
10, 60584, Note_on_c, 5, 57, 0
10, 60600, Note_on_c, 5, 57, 84
10, 60600, Note_on_c, 5, 69, 84
10, 60704, Note_on_c, 5, 57, 0
10, 60704, Note_on_c, 5, 69, 0
10, 60720, Note_on_c, 5, 69, 84
10, 60720, Note_on_c, 5, 57, 84
10, 60824, Note_on_c, 5, 69, 0
10, 60824, Note_on_c, 5, 57, 0
10, 60840, Note_on_c, 5, 69, 84
10, 60840, Note_on_c, 5, 57, 84
10, 60944, Note_on_c, 5, 69, 0
10, 60944, Note_on_c, 5, 57, 0
10, 60960, Note_on_c, 5, 52, 92
10, 60960, Note_on_c, 5, 64, 92
10, 61064, Note_on_c, 5, 52, 0
10, 61064, Note_on_c, 5, 64, 0
10, 61080, Note_on_c, 5, 64, 84
10, 61080, Note_on_c, 5, 52, 84
10, 61184, Note_on_c, 5, 64, 0
10, 61184, Note_on_c, 5, 52, 0
10, 61200, Note_on_c, 5, 64, 84
10, 61200, Note_on_c, 5, 52, 84
10, 61304, Note_on_c, 5, 64, 0
10, 61304, Note_on_c, 5, 52, 0
10, 61320, Note_on_c, 5, 52, 84
10, 61320, Note_on_c, 5, 64, 84
10, 61424, Note_on_c, 5, 52, 0
10, 61424, Note_on_c, 5, 64, 0
10, 61920, Note_on_c, 5, 73, 84
10, 62024, Note_on_c, 5, 73, 0
10, 62040, Note_on_c, 5, 73, 84
10, 62144, Note_on_c, 5, 73, 0
10, 62160, Note_on_c, 5, 73, 92
10, 62264, Note_on_c, 5, 73, 0
10, 62280, Note_on_c, 5, 73, 84
10, 62384, Note_on_c, 5, 73, 0
10, 62400, Note_on_c, 5, 73, 92
10, 62504, Note_on_c, 5, 73, 0
10, 62520, Note_on_c, 5, 73, 84
10, 62624, Note_on_c, 5, 73, 0
10, 62640, Note_on_c, 5, 73, 84
10, 62744, Note_on_c, 5, 73, 0
10, 62760, Note_on_c, 5, 73, 84
10, 62864, Note_on_c, 5, 73, 0
10, 62880, Note_on_c, 5, 73, 84
10, 62984, Note_on_c, 5, 73, 0
10, 63000, Note_on_c, 5, 73, 84
10, 63104, Note_on_c, 5, 73, 0
10, 63120, Note_on_c, 5, 73, 92
10, 63224, Note_on_c, 5, 73, 0
10, 63240, Note_on_c, 5, 73, 84
10, 63344, Note_on_c, 5, 73, 0
10, 63360, Note_on_c, 5, 73, 92
10, 63464, Note_on_c, 5, 73, 0
10, 63480, Note_on_c, 5, 73, 84
10, 63584, Note_on_c, 5, 73, 0
10, 63600, Note_on_c, 5, 73, 84
10, 63704, Note_on_c, 5, 73, 0
10, 63720, Note_on_c, 5, 73, 84
10, 63824, Note_on_c, 5, 73, 0
10, 63840, Note_on_c, 5, 73, 84
10, 63944, Note_on_c, 5, 73, 0
10, 63960, Note_on_c, 5, 73, 84
10, 64064, Note_on_c, 5, 73, 0
10, 64080, Note_on_c, 5, 73, 92
10, 64184, Note_on_c, 5, 73, 0
10, 64200, Note_on_c, 5, 73, 84
10, 64304, Note_on_c, 5, 73, 0
10, 64320, Note_on_c, 5, 73, 84
10, 64424, Note_on_c, 5, 73, 0
10, 64440, Note_on_c, 5, 73, 84
10, 64544, Note_on_c, 5, 73, 0
10, 64560, Note_on_c, 5, 73, 92
10, 64664, Note_on_c, 5, 73, 0
10, 64680, Note_on_c, 5, 73, 84
10, 64784, Note_on_c, 5, 73, 0
10, 64800, Note_on_c, 5, 73, 84
10, 64904, Note_on_c, 5, 73, 0
10, 64920, Note_on_c, 5, 73, 84
10, 65024, Note_on_c, 5, 73, 0
10, 65040, Note_on_c, 5, 73, 92
10, 65144, Note_on_c, 5, 73, 0
10, 65160, Note_on_c, 5, 73, 84
10, 65264, Note_on_c, 5, 73, 0
10, 65280, Note_on_c, 5, 73, 84
10, 65384, Note_on_c, 5, 73, 0
10, 65400, Note_on_c, 5, 73, 84
10, 65504, Note_on_c, 5, 73, 0
10, 65520, Note_on_c, 5, 71, 84
10, 65624, Note_on_c, 5, 71, 0
10, 65640, Note_on_c, 5, 71, 84
10, 65744, Note_on_c, 5, 71, 0
10, 65760, Note_on_c, 5, 64, 84
10, 65760, Note_on_c, 5, 52, 84
10, 65864, Note_on_c, 5, 64, 0
10, 65864, Note_on_c, 5, 52, 0
10, 65880, Note_on_c, 5, 64, 84
10, 65880, Note_on_c, 5, 52, 84
10, 65931, Note_on_c, 5, 64, 0
10, 65931, Note_on_c, 5, 52, 0
10, 65940, Note_on_c, 5, 64, 84
10, 65940, Note_on_c, 5, 52, 84
10, 65991, Note_on_c, 5, 64, 0
10, 65991, Note_on_c, 5, 52, 0
10, 66000, Note_on_c, 5, 52, 84
10, 66000, Note_on_c, 5, 64, 84
10, 66119, Note_on_c, 5, 52, 0
10, 66119, Note_on_c, 5, 64, 0
10, 66840, Note_on_c, 5, 64, 84
10, 66840, Note_on_c, 5, 52, 84
10, 66891, Note_on_c, 5, 64, 0
10, 66891, Note_on_c, 5, 52, 0
10, 66900, Note_on_c, 5, 52, 84
10, 66900, Note_on_c, 5, 64, 84
10, 66951, Note_on_c, 5, 52, 0
10, 66951, Note_on_c, 5, 64, 0
10, 66960, Note_on_c, 5, 64, 84
10, 66960, Note_on_c, 5, 52, 84
10, 67079, Note_on_c, 5, 64, 0
10, 67079, Note_on_c, 5, 52, 0
10, 67680, Note_on_c, 5, 57, 84
10, 67680, Note_on_c, 5, 45, 84
10, 67799, Note_on_c, 5, 57, 0
10, 67799, Note_on_c, 5, 45, 0
10, 67920, Note_on_c, 5, 57, 92
10, 67920, Note_on_c, 5, 45, 92
10, 68279, Note_on_c, 5, 57, 0
10, 68279, Note_on_c, 5, 45, 0
10, 68400, Note_on_c, 5, 45, 92
10, 68400, Note_on_c, 5, 57, 92
10, 68759, Note_on_c, 5, 45, 0
10, 68759, Note_on_c, 5, 57, 0
10, 68880, Note_on_c, 5, 45, 92
10, 68880, Note_on_c, 5, 57, 92
10, 69239, Note_on_c, 5, 45, 0
10, 69239, Note_on_c, 5, 57, 0
10, 69600, Note_on_c, 5, 71, 84
10, 69719, Note_on_c, 5, 71, 0
10, 69840, Note_on_c, 5, 52, 92
10, 69840, Note_on_c, 5, 64, 92
10, 70079, Note_on_c, 5, 64, 0
10, 70080, Note_on_c, 5, 69, 84
10, 70199, Note_on_c, 5, 52, 0
10, 70199, Note_on_c, 5, 69, 0
10, 70320, Note_on_c, 5, 52, 92
10, 70320, Note_on_c, 5, 61, 92
10, 70559, Note_on_c, 5, 61, 0
10, 70560, Note_on_c, 5, 64, 84
10, 70679, Note_on_c, 5, 52, 0
10, 70679, Note_on_c, 5, 64, 0
10, 70800, Note_on_c, 5, 52, 92
10, 70800, Note_on_c, 5, 64, 92
10, 71039, Note_on_c, 5, 52, 0
10, 71039, Note_on_c, 5, 64, 0
10, 71040, Note_on_c, 5, 57, 84
10, 71040, Note_on_c, 5, 45, 84
10, 71144, Note_on_c, 5, 57, 0
10, 71144, Note_on_c, 5, 45, 0
10, 71160, Note_on_c, 5, 57, 84
10, 71160, Note_on_c, 5, 69, 84
10, 71211, Note_on_c, 5, 57, 0
10, 71211, Note_on_c, 5, 69, 0
10, 71220, Note_on_c, 5, 57, 84
10, 71220, Note_on_c, 5, 69, 84
10, 71271, Note_on_c, 5, 57, 0
10, 71271, Note_on_c, 5, 69, 0
10, 71280, Note_on_c, 5, 69, 84
10, 71280, Note_on_c, 5, 57, 84
10, 71399, Note_on_c, 5, 69, 0
10, 71399, Note_on_c, 5, 57, 0
10, 71520, Note_on_c, 5, 57, 84
10, 71520, Note_on_c, 5, 45, 84
10, 71639, Note_on_c, 5, 57, 0
10, 71639, Note_on_c, 5, 45, 0
10, 71760, Note_on_c, 5, 45, 92
10, 71760, Note_on_c, 5, 57, 92
10, 72119, Note_on_c, 5, 45, 0
10, 72119, Note_on_c, 5, 57, 0
10, 72240, Note_on_c, 5, 45, 92
10, 72240, Note_on_c, 5, 57, 92
10, 72599, Note_on_c, 5, 45, 0
10, 72599, Note_on_c, 5, 57, 0
10, 72720, Note_on_c, 5, 45, 92
10, 72720, Note_on_c, 5, 57, 92
10, 73079, Note_on_c, 5, 45, 0
10, 73079, Note_on_c, 5, 57, 0
10, 73440, Note_on_c, 5, 71, 84
10, 73559, Note_on_c, 5, 71, 0
10, 73680, Note_on_c, 5, 64, 92
10, 73680, Note_on_c, 5, 52, 92
10, 73919, Note_on_c, 5, 64, 0
10, 73920, Note_on_c, 5, 69, 84
10, 74039, Note_on_c, 5, 52, 0
10, 74039, Note_on_c, 5, 69, 0
10, 74160, Note_on_c, 5, 52, 92
10, 74160, Note_on_c, 5, 61, 92
10, 74399, Note_on_c, 5, 61, 0
10, 74400, Note_on_c, 5, 64, 84
10, 74519, Note_on_c, 5, 52, 0
10, 74519, Note_on_c, 5, 64, 0
10, 74640, Note_on_c, 5, 52, 92
10, 74640, Note_on_c, 5, 64, 92
10, 74879, Note_on_c, 5, 52, 0
10, 74879, Note_on_c, 5, 64, 0
10, 74880, Note_on_c, 5, 57, 84
10, 74880, Note_on_c, 5, 45, 84
10, 74984, Note_on_c, 5, 57, 0
10, 74984, Note_on_c, 5, 45, 0
10, 75000, Note_on_c, 5, 69, 84
10, 75000, Note_on_c, 5, 57, 84
10, 75051, Note_on_c, 5, 69, 0
10, 75051, Note_on_c, 5, 57, 0
10, 75060, Note_on_c, 5, 57, 84
10, 75060, Note_on_c, 5, 69, 84
10, 75111, Note_on_c, 5, 57, 0
10, 75111, Note_on_c, 5, 69, 0
10, 75120, Note_on_c, 5, 57, 84
10, 75120, Note_on_c, 5, 69, 84
10, 75239, Note_on_c, 5, 57, 0
10, 75239, Note_on_c, 5, 69, 0
10, 75480, Note_on_c, 5, 69, 84
10, 75480, Note_on_c, 5, 57, 84
10, 75531, Note_on_c, 5, 69, 0
10, 75531, Note_on_c, 5, 57, 0
10, 75540, Note_on_c, 5, 69, 84
10, 75540, Note_on_c, 5, 57, 84
10, 75591, Note_on_c, 5, 69, 0
10, 75591, Note_on_c, 5, 57, 0
10, 75600, Note_on_c, 5, 57, 84
10, 75600, Note_on_c, 5, 69, 84
10, 75719, Note_on_c, 5, 57, 0
10, 75719, Note_on_c, 5, 69, 0
10, 75960, Note_on_c, 5, 64, 84
10, 75960, Note_on_c, 5, 52, 84
10, 76011, Note_on_c, 5, 64, 0
10, 76011, Note_on_c, 5, 52, 0
10, 76020, Note_on_c, 5, 52, 84
10, 76020, Note_on_c, 5, 64, 84
10, 76071, Note_on_c, 5, 52, 0
10, 76071, Note_on_c, 5, 64, 0
10, 76080, Note_on_c, 5, 52, 84
10, 76080, Note_on_c, 5, 64, 84
10, 76199, Note_on_c, 5, 52, 0
10, 76199, Note_on_c, 5, 64, 0
10, 76440, Note_on_c, 5, 64, 84
10, 76440, Note_on_c, 5, 52, 84
10, 76491, Note_on_c, 5, 64, 0
10, 76491, Note_on_c, 5, 52, 0
10, 76500, Note_on_c, 5, 52, 84
10, 76500, Note_on_c, 5, 64, 84
10, 76551, Note_on_c, 5, 52, 0
10, 76551, Note_on_c, 5, 64, 0
10, 76560, Note_on_c, 5, 64, 84
10, 76560, Note_on_c, 5, 52, 84
10, 76679, Note_on_c, 5, 64, 0
10, 76679, Note_on_c, 5, 52, 0
10, 76800, Note_on_c, 5, 73, 84
10, 76800, Note_on_c, 5, 69, 84
10, 77144, Note_on_c, 5, 73, 0
10, 77144, Note_on_c, 5, 69, 0
10, 77160, Note_on_c, 5, 71, 84
10, 77160, Note_on_c, 5, 64, 84
10, 77249, Note_on_c, 5, 71, 0
10, 77249, Note_on_c, 5, 64, 0
10, 77280, Note_on_c, 5, 61, 84
10, 77280, Note_on_c, 5, 69, 84
10, 77369, Note_on_c, 5, 61, 0
10, 77369, Note_on_c, 5, 69, 0
10, 77400, Note_on_c, 5, 73, 84
10, 77400, Note_on_c, 5, 69, 84
10, 77489, Note_on_c, 5, 73, 0
10, 77489, Note_on_c, 5, 69, 0
10, 77520, Note_on_c, 5, 64, 84
10, 77520, Note_on_c, 5, 71, 84
10, 77609, Note_on_c, 5, 64, 0
10, 77609, Note_on_c, 5, 71, 0
10, 77640, Note_on_c, 5, 69, 84
10, 77640, Note_on_c, 5, 61, 84
10, 77729, Note_on_c, 5, 69, 0
10, 77729, Note_on_c, 5, 61, 0
10, 77760, Note_on_c, 5, 64, 84
10, 77760, Note_on_c, 5, 71, 84
10, 77849, Note_on_c, 5, 64, 0
10, 77849, Note_on_c, 5, 71, 0
10, 77880, Note_on_c, 5, 69, 84
10, 77880, Note_on_c, 5, 61, 84
10, 77969, Note_on_c, 5, 69, 0
10, 77969, Note_on_c, 5, 61, 0
10, 78000, Note_on_c, 5, 76, 84
10, 78000, Note_on_c, 5, 64, 84
10, 78089, Note_on_c, 5, 76, 0
10, 78089, Note_on_c, 5, 64, 0
10, 78120, Note_on_c, 5, 64, 84
10, 78120, Note_on_c, 5, 76, 84
10, 78209, Note_on_c, 5, 64, 0
10, 78209, Note_on_c, 5, 76, 0
10, 78240, Note_on_c, 5, 64, 84
10, 78240, Note_on_c, 5, 76, 84
10, 78329, Note_on_c, 5, 64, 0
10, 78329, Note_on_c, 5, 76, 0
10, 78360, Note_on_c, 5, 76, 84
10, 78360, Note_on_c, 5, 64, 84
10, 78449, Note_on_c, 5, 76, 0
10, 78449, Note_on_c, 5, 64, 0
10, 78480, Note_on_c, 5, 64, 84
10, 78480, Note_on_c, 5, 76, 84
10, 78569, Note_on_c, 5, 64, 0
10, 78569, Note_on_c, 5, 76, 0
10, 78600, Note_on_c, 5, 64, 84
10, 78600, Note_on_c, 5, 76, 84
10, 78689, Note_on_c, 5, 64, 0
10, 78689, Note_on_c, 5, 76, 0
10, 78720, Note_on_c, 5, 57, 84
10, 78720, Note_on_c, 5, 69, 84
10, 78824, Note_on_c, 5, 57, 0
10, 78824, Note_on_c, 5, 69, 0
10, 78840, Note_on_c, 5, 57, 84
10, 78840, Note_on_c, 5, 69, 84
10, 78891, Note_on_c, 5, 57, 0
10, 78891, Note_on_c, 5, 69, 0
10, 78900, Note_on_c, 5, 57, 84
10, 78900, Note_on_c, 5, 69, 84
10, 78951, Note_on_c, 5, 57, 0
10, 78951, Note_on_c, 5, 69, 0
10, 78960, Note_on_c, 5, 69, 84
10, 78960, Note_on_c, 5, 57, 84
10, 79079, Note_on_c, 5, 69, 0
10, 79079, Note_on_c, 5, 57, 0
10, 79320, Note_on_c, 5, 57, 84
10, 79320, Note_on_c, 5, 69, 84
10, 79371, Note_on_c, 5, 57, 0
10, 79371, Note_on_c, 5, 69, 0
10, 79380, Note_on_c, 5, 69, 84
10, 79380, Note_on_c, 5, 57, 84
10, 79431, Note_on_c, 5, 69, 0
10, 79431, Note_on_c, 5, 57, 0
10, 79440, Note_on_c, 5, 69, 84
10, 79440, Note_on_c, 5, 57, 84
10, 79559, Note_on_c, 5, 69, 0
10, 79559, Note_on_c, 5, 57, 0
10, 79800, Note_on_c, 5, 64, 84
10, 79800, Note_on_c, 5, 52, 84
10, 79851, Note_on_c, 5, 64, 0
10, 79851, Note_on_c, 5, 52, 0
10, 79860, Note_on_c, 5, 64, 84
10, 79860, Note_on_c, 5, 52, 84
10, 79911, Note_on_c, 5, 64, 0
10, 79911, Note_on_c, 5, 52, 0
10, 79920, Note_on_c, 5, 52, 84
10, 79920, Note_on_c, 5, 64, 84
10, 80039, Note_on_c, 5, 52, 0
10, 80039, Note_on_c, 5, 64, 0
10, 80280, Note_on_c, 5, 64, 84
10, 80280, Note_on_c, 5, 52, 84
10, 80331, Note_on_c, 5, 64, 0
10, 80331, Note_on_c, 5, 52, 0
10, 80340, Note_on_c, 5, 52, 84
10, 80340, Note_on_c, 5, 64, 84
10, 80391, Note_on_c, 5, 52, 0
10, 80391, Note_on_c, 5, 64, 0
10, 80400, Note_on_c, 5, 52, 84
10, 80400, Note_on_c, 5, 64, 84
10, 80519, Note_on_c, 5, 52, 0
10, 80519, Note_on_c, 5, 64, 0
10, 80640, Note_on_c, 5, 69, 84
10, 80640, Note_on_c, 5, 73, 84
10, 80759, Note_on_c, 5, 69, 0
10, 80759, Note_on_c, 5, 73, 0
10, 80880, Note_on_c, 5, 69, 84
10, 80880, Note_on_c, 5, 73, 84
10, 80999, Note_on_c, 5, 69, 0
10, 80999, Note_on_c, 5, 73, 0
10, 81120, Note_on_c, 5, 69, 84
10, 81120, Note_on_c, 5, 73, 84
10, 81239, Note_on_c, 5, 69, 0
10, 81239, Note_on_c, 5, 73, 0
10, 81360, Note_on_c, 5, 73, 84
10, 81360, Note_on_c, 5, 69, 84
10, 81479, Note_on_c, 5, 73, 0
10, 81479, Note_on_c, 5, 69, 0
10, 81600, Note_on_c, 5, 64, 84
10, 81600, Note_on_c, 5, 71, 84
10, 81719, Note_on_c, 5, 64, 0
10, 81719, Note_on_c, 5, 71, 0
10, 81840, Note_on_c, 5, 71, 84
10, 81840, Note_on_c, 5, 64, 84
10, 81959, Note_on_c, 5, 71, 0
10, 81959, Note_on_c, 5, 64, 0
10, 82080, Note_on_c, 5, 71, 84
10, 82080, Note_on_c, 5, 64, 84
10, 82199, Note_on_c, 5, 71, 0
10, 82199, Note_on_c, 5, 64, 0
10, 82320, Note_on_c, 5, 64, 84
10, 82320, Note_on_c, 5, 71, 84
10, 82439, Note_on_c, 5, 64, 0
10, 82439, Note_on_c, 5, 71, 0
10, 82560, Note_on_c, 5, 69, 84
10, 82560, Note_on_c, 5, 61, 84
10, 82679, Note_on_c, 5, 69, 0
10, 82679, Note_on_c, 5, 61, 0
10, 83040, Note_on_c, 5, 52, 84
10, 83040, Note_on_c, 5, 64, 84
10, 84599, Note_on_c, 5, 52, 0
10, 84599, Note_on_c, 5, 64, 0
10, 84960, Note_on_c, 5, 64, 84
10, 84960, Note_on_c, 5, 52, 84
10, 86039, Note_on_c, 5, 64, 0
10, 86039, Note_on_c, 5, 52, 0
10, 90240, Note_on_c, 5, 73, 84
10, 90240, Note_on_c, 5, 61, 84
10, 90359, Note_on_c, 5, 73, 0
10, 90359, Note_on_c, 5, 61, 0
10, 90480, Note_on_c, 5, 73, 84
10, 90480, Note_on_c, 5, 61, 84
10, 90599, Note_on_c, 5, 73, 0
10, 90599, Note_on_c, 5, 61, 0
10, 90720, Note_on_c, 5, 73, 84
10, 90720, Note_on_c, 5, 61, 84
10, 90839, Note_on_c, 5, 73, 0
10, 90839, Note_on_c, 5, 61, 0
10, 90960, Note_on_c, 5, 73, 84
10, 90960, Note_on_c, 5, 61, 84
10, 91079, Note_on_c, 5, 73, 0
10, 91079, Note_on_c, 5, 61, 0
10, 91200, Note_on_c, 5, 73, 84
10, 91200, Note_on_c, 5, 61, 84
10, 91319, Note_on_c, 5, 73, 0
10, 91319, Note_on_c, 5, 61, 0
10, 91440, Note_on_c, 5, 73, 84
10, 91440, Note_on_c, 5, 61, 84
10, 91559, Note_on_c, 5, 73, 0
10, 91559, Note_on_c, 5, 61, 0
10, 91680, Note_on_c, 5, 73, 84
10, 91680, Note_on_c, 5, 61, 84
10, 91799, Note_on_c, 5, 73, 0
10, 91799, Note_on_c, 5, 61, 0
10, 91920, Note_on_c, 5, 61, 84
10, 91920, Note_on_c, 5, 73, 84
10, 92039, Note_on_c, 5, 61, 0
10, 92039, Note_on_c, 5, 73, 0
10, 92160, Note_on_c, 5, 61, 84
10, 92160, Note_on_c, 5, 73, 84
10, 92279, Note_on_c, 5, 61, 0
10, 92279, Note_on_c, 5, 73, 0
10, 92400, Note_on_c, 5, 61, 84
10, 92400, Note_on_c, 5, 73, 84
10, 92519, Note_on_c, 5, 61, 0
10, 92519, Note_on_c, 5, 73, 0
10, 92640, Note_on_c, 5, 73, 84
10, 92640, Note_on_c, 5, 61, 84
10, 92759, Note_on_c, 5, 73, 0
10, 92759, Note_on_c, 5, 61, 0
10, 92880, Note_on_c, 5, 61, 84
10, 92880, Note_on_c, 5, 73, 84
10, 92999, Note_on_c, 5, 61, 0
10, 92999, Note_on_c, 5, 73, 0
10, 93120, Note_on_c, 5, 57, 84
10, 93120, Note_on_c, 5, 69, 84
10, 93239, Note_on_c, 5, 57, 0
10, 93239, Note_on_c, 5, 69, 0
10, 93360, Note_on_c, 5, 57, 84
10, 93360, Note_on_c, 5, 69, 84
10, 93479, Note_on_c, 5, 57, 0
10, 93479, Note_on_c, 5, 69, 0
10, 93600, Note_on_c, 5, 57, 84
10, 93600, Note_on_c, 5, 69, 84
10, 93719, Note_on_c, 5, 57, 0
10, 93719, Note_on_c, 5, 69, 0
10, 93840, Note_on_c, 5, 57, 84
10, 93840, Note_on_c, 5, 69, 84
10, 93959, Note_on_c, 5, 57, 0
10, 93959, Note_on_c, 5, 69, 0
10, 94080, Note_on_c, 5, 69, 84
10, 94080, Note_on_c, 5, 57, 84
10, 94199, Note_on_c, 5, 69, 0
10, 94199, Note_on_c, 5, 57, 0
10, 94320, Note_on_c, 5, 57, 84
10, 94320, Note_on_c, 5, 69, 84
10, 94439, Note_on_c, 5, 57, 0
10, 94439, Note_on_c, 5, 69, 0
10, 94560, Note_on_c, 5, 57, 84
10, 94560, Note_on_c, 5, 69, 84
10, 94679, Note_on_c, 5, 57, 0
10, 94679, Note_on_c, 5, 69, 0
10, 94800, Note_on_c, 5, 57, 84
10, 94800, Note_on_c, 5, 69, 84
10, 94919, Note_on_c, 5, 57, 0
10, 94919, Note_on_c, 5, 69, 0
10, 95040, Note_on_c, 5, 57, 84
10, 95040, Note_on_c, 5, 69, 84
10, 95159, Note_on_c, 5, 57, 0
10, 95159, Note_on_c, 5, 69, 0
10, 95280, Note_on_c, 5, 69, 76
10, 95399, Note_on_c, 5, 69, 0
10, 97200, Note_on_c, 5, 69, 76
10, 97319, Note_on_c, 5, 69, 0
10, 101040, Note_on_c, 5, 64, 76
10, 101040, Note_on_c, 5, 52, 76
10, 101279, Note_on_c, 5, 64, 0
10, 101279, Note_on_c, 5, 52, 0
10, 102000, Note_on_c, 5, 52, 76
10, 102000, Note_on_c, 5, 64, 76
10, 102239, Note_on_c, 5, 52, 0
10, 102239, Note_on_c, 5, 64, 0
10, 105840, Note_on_c, 5, 64, 76
10, 106079, Note_on_c, 5, 64, 0
10, 106800, Note_on_c, 5, 64, 76
10, 107039, Note_on_c, 5, 64, 0
10, 115200, Note_on_c, 5, 69, 84
10, 115200, Note_on_c, 5, 57, 84
10, 115304, Note_on_c, 5, 69, 0
10, 115304, Note_on_c, 5, 57, 0
10, 115320, Note_on_c, 5, 69, 84
10, 115320, Note_on_c, 5, 57, 84
10, 115424, Note_on_c, 5, 69, 0
10, 115424, Note_on_c, 5, 57, 0
10, 115440, Note_on_c, 5, 69, 84
10, 115440, Note_on_c, 5, 57, 84
10, 115544, Note_on_c, 5, 69, 0
10, 115544, Note_on_c, 5, 57, 0
10, 115560, Note_on_c, 5, 57, 84
10, 115560, Note_on_c, 5, 69, 84
10, 115664, Note_on_c, 5, 57, 0
10, 115664, Note_on_c, 5, 69, 0
10, 115680, Note_on_c, 5, 69, 84
10, 115680, Note_on_c, 5, 57, 84
10, 115784, Note_on_c, 5, 69, 0
10, 115784, Note_on_c, 5, 57, 0
10, 115800, Note_on_c, 5, 57, 84
10, 115800, Note_on_c, 5, 69, 84
10, 115904, Note_on_c, 5, 57, 0
10, 115904, Note_on_c, 5, 69, 0
10, 115920, Note_on_c, 5, 57, 84
10, 115920, Note_on_c, 5, 69, 84
10, 116024, Note_on_c, 5, 57, 0
10, 116024, Note_on_c, 5, 69, 0
10, 116040, Note_on_c, 5, 69, 84
10, 116040, Note_on_c, 5, 57, 84
10, 116144, Note_on_c, 5, 69, 0
10, 116144, Note_on_c, 5, 57, 0
10, 116160, Note_on_c, 5, 52, 92
10, 116160, Note_on_c, 5, 64, 92
10, 116264, Note_on_c, 5, 52, 0
10, 116264, Note_on_c, 5, 64, 0
10, 116280, Note_on_c, 5, 64, 84
10, 116280, Note_on_c, 5, 52, 84
10, 116384, Note_on_c, 5, 64, 0
10, 116384, Note_on_c, 5, 52, 0
10, 116400, Note_on_c, 5, 52, 84
10, 116400, Note_on_c, 5, 64, 84
10, 116504, Note_on_c, 5, 52, 0
10, 116504, Note_on_c, 5, 64, 0
10, 116520, Note_on_c, 5, 64, 84
10, 116520, Note_on_c, 5, 52, 84
10, 116624, Note_on_c, 5, 64, 0
10, 116624, Note_on_c, 5, 52, 0
10, 116640, Note_on_c, 5, 57, 92
10, 116640, Note_on_c, 5, 69, 92
10, 116744, Note_on_c, 5, 57, 0
10, 116744, Note_on_c, 5, 69, 0
10, 116760, Note_on_c, 5, 69, 84
10, 116760, Note_on_c, 5, 57, 84
10, 116864, Note_on_c, 5, 69, 0
10, 116864, Note_on_c, 5, 57, 0
10, 116880, Note_on_c, 5, 69, 84
10, 116880, Note_on_c, 5, 57, 84
10, 116984, Note_on_c, 5, 69, 0
10, 116984, Note_on_c, 5, 57, 0
10, 117000, Note_on_c, 5, 69, 84
10, 117000, Note_on_c, 5, 57, 84
10, 117104, Note_on_c, 5, 69, 0
10, 117104, Note_on_c, 5, 57, 0
10, 117120, Note_on_c, 5, 52, 92
10, 117120, Note_on_c, 5, 64, 92
10, 117224, Note_on_c, 5, 52, 0
10, 117224, Note_on_c, 5, 64, 0
10, 117240, Note_on_c, 5, 52, 84
10, 117240, Note_on_c, 5, 64, 84
10, 117344, Note_on_c, 5, 52, 0
10, 117344, Note_on_c, 5, 64, 0
10, 117360, Note_on_c, 5, 52, 84
10, 117360, Note_on_c, 5, 64, 84
10, 117464, Note_on_c, 5, 52, 0
10, 117464, Note_on_c, 5, 64, 0
10, 117480, Note_on_c, 5, 64, 84
10, 117480, Note_on_c, 5, 52, 84
10, 117584, Note_on_c, 5, 64, 0
10, 117584, Note_on_c, 5, 52, 0
10, 117600, Note_on_c, 5, 57, 92
10, 117600, Note_on_c, 5, 69, 92
10, 117704, Note_on_c, 5, 57, 0
10, 117704, Note_on_c, 5, 69, 0
10, 117720, Note_on_c, 5, 57, 84
10, 117720, Note_on_c, 5, 69, 84
10, 117824, Note_on_c, 5, 57, 0
10, 117824, Note_on_c, 5, 69, 0
10, 117840, Note_on_c, 5, 69, 84
10, 117840, Note_on_c, 5, 57, 84
10, 117944, Note_on_c, 5, 69, 0
10, 117944, Note_on_c, 5, 57, 0
10, 117960, Note_on_c, 5, 57, 84
10, 117960, Note_on_c, 5, 69, 84
10, 118064, Note_on_c, 5, 57, 0
10, 118064, Note_on_c, 5, 69, 0
10, 118080, Note_on_c, 5, 64, 92
10, 118080, Note_on_c, 5, 52, 92
10, 118184, Note_on_c, 5, 64, 0
10, 118184, Note_on_c, 5, 52, 0
10, 118200, Note_on_c, 5, 52, 84
10, 118200, Note_on_c, 5, 64, 84
10, 118304, Note_on_c, 5, 52, 0
10, 118304, Note_on_c, 5, 64, 0
10, 118320, Note_on_c, 5, 64, 84
10, 118320, Note_on_c, 5, 52, 84
10, 118424, Note_on_c, 5, 64, 0
10, 118424, Note_on_c, 5, 52, 0
10, 118440, Note_on_c, 5, 52, 84
10, 118440, Note_on_c, 5, 64, 84
10, 118544, Note_on_c, 5, 52, 0
10, 118544, Note_on_c, 5, 64, 0
10, 118560, Note_on_c, 5, 57, 92
10, 118560, Note_on_c, 5, 69, 92
10, 118664, Note_on_c, 5, 57, 0
10, 118664, Note_on_c, 5, 69, 0
10, 118680, Note_on_c, 5, 69, 84
10, 118680, Note_on_c, 5, 57, 84
10, 118784, Note_on_c, 5, 69, 0
10, 118784, Note_on_c, 5, 57, 0
10, 118800, Note_on_c, 5, 57, 84
10, 118800, Note_on_c, 5, 69, 84
10, 118904, Note_on_c, 5, 57, 0
10, 118904, Note_on_c, 5, 69, 0
10, 118920, Note_on_c, 5, 69, 84
10, 118920, Note_on_c, 5, 57, 84
10, 119024, Note_on_c, 5, 69, 0
10, 119024, Note_on_c, 5, 57, 0
10, 119040, Note_on_c, 5, 64, 92
10, 119040, Note_on_c, 5, 52, 92
10, 119144, Note_on_c, 5, 64, 0
10, 119144, Note_on_c, 5, 52, 0
10, 119160, Note_on_c, 5, 64, 84
10, 119160, Note_on_c, 5, 52, 84
10, 119264, Note_on_c, 5, 64, 0
10, 119264, Note_on_c, 5, 52, 0
10, 119280, Note_on_c, 5, 64, 84
10, 119280, Note_on_c, 5, 52, 84
10, 119384, Note_on_c, 5, 64, 0
10, 119384, Note_on_c, 5, 52, 0
10, 119400, Note_on_c, 5, 64, 84
10, 119400, Note_on_c, 5, 52, 84
10, 119504, Note_on_c, 5, 64, 0
10, 119504, Note_on_c, 5, 52, 0
10, 120000, Note_on_c, 5, 73, 84
10, 120104, Note_on_c, 5, 73, 0
10, 120120, Note_on_c, 5, 73, 84
10, 120224, Note_on_c, 5, 73, 0
10, 120240, Note_on_c, 5, 73, 92
10, 120344, Note_on_c, 5, 73, 0
10, 120360, Note_on_c, 5, 73, 84
10, 120464, Note_on_c, 5, 73, 0
10, 120480, Note_on_c, 5, 73, 92
10, 120584, Note_on_c, 5, 73, 0
10, 120600, Note_on_c, 5, 73, 84
10, 120704, Note_on_c, 5, 73, 0
10, 120720, Note_on_c, 5, 73, 84
10, 120824, Note_on_c, 5, 73, 0
10, 120840, Note_on_c, 5, 73, 84
10, 120944, Note_on_c, 5, 73, 0
10, 120960, Note_on_c, 5, 73, 84
10, 121064, Note_on_c, 5, 73, 0
10, 121080, Note_on_c, 5, 73, 84
10, 121184, Note_on_c, 5, 73, 0
10, 121200, Note_on_c, 5, 73, 92
10, 121304, Note_on_c, 5, 73, 0
10, 121320, Note_on_c, 5, 73, 84
10, 121424, Note_on_c, 5, 73, 0
10, 121440, Note_on_c, 5, 73, 92
10, 121544, Note_on_c, 5, 73, 0
10, 121560, Note_on_c, 5, 73, 84
10, 121664, Note_on_c, 5, 73, 0
10, 121680, Note_on_c, 5, 73, 84
10, 121784, Note_on_c, 5, 73, 0
10, 121800, Note_on_c, 5, 73, 84
10, 121904, Note_on_c, 5, 73, 0
10, 121920, Note_on_c, 5, 73, 84
10, 122024, Note_on_c, 5, 73, 0
10, 122040, Note_on_c, 5, 73, 84
10, 122144, Note_on_c, 5, 73, 0
10, 122160, Note_on_c, 5, 73, 92
10, 122264, Note_on_c, 5, 73, 0
10, 122280, Note_on_c, 5, 73, 84
10, 122384, Note_on_c, 5, 73, 0
10, 122400, Note_on_c, 5, 73, 84
10, 122504, Note_on_c, 5, 73, 0
10, 122520, Note_on_c, 5, 73, 84
10, 122624, Note_on_c, 5, 73, 0
10, 122640, Note_on_c, 5, 73, 92
10, 122744, Note_on_c, 5, 73, 0
10, 122760, Note_on_c, 5, 73, 84
10, 122864, Note_on_c, 5, 73, 0
10, 122880, Note_on_c, 5, 73, 84
10, 122984, Note_on_c, 5, 73, 0
10, 123000, Note_on_c, 5, 73, 84
10, 123104, Note_on_c, 5, 73, 0
10, 123120, Note_on_c, 5, 73, 92
10, 123224, Note_on_c, 5, 73, 0
10, 123240, Note_on_c, 5, 73, 84
10, 123344, Note_on_c, 5, 73, 0
10, 123360, Note_on_c, 5, 73, 84
10, 123464, Note_on_c, 5, 73, 0
10, 123480, Note_on_c, 5, 52, 84
10, 123480, Note_on_c, 5, 64, 84
10, 123584, Note_on_c, 5, 52, 0
10, 123584, Note_on_c, 5, 64, 0
10, 123600, Note_on_c, 5, 52, 84
10, 123600, Note_on_c, 5, 64, 84
10, 123704, Note_on_c, 5, 52, 0
10, 123704, Note_on_c, 5, 64, 0
10, 123720, Note_on_c, 5, 64, 84
10, 123720, Note_on_c, 5, 52, 84
10, 123824, Note_on_c, 5, 64, 0
10, 123824, Note_on_c, 5, 52, 0
10, 123840, Note_on_c, 5, 52, 84
10, 123840, Note_on_c, 5, 64, 84
10, 123944, Note_on_c, 5, 52, 0
10, 123944, Note_on_c, 5, 64, 0
10, 123960, Note_on_c, 5, 52, 84
10, 123960, Note_on_c, 5, 64, 84
10, 124011, Note_on_c, 5, 52, 0
10, 124011, Note_on_c, 5, 64, 0
10, 124020, Note_on_c, 5, 64, 84
10, 124020, Note_on_c, 5, 52, 84
10, 124071, Note_on_c, 5, 64, 0
10, 124071, Note_on_c, 5, 52, 0
10, 124080, Note_on_c, 5, 64, 84
10, 124080, Note_on_c, 5, 52, 84
10, 124199, Note_on_c, 5, 64, 0
10, 124199, Note_on_c, 5, 52, 0
10, 124920, Note_on_c, 5, 64, 84
10, 124920, Note_on_c, 5, 52, 84
10, 124971, Note_on_c, 5, 64, 0
10, 124971, Note_on_c, 5, 52, 0
10, 124980, Note_on_c, 5, 64, 84
10, 124980, Note_on_c, 5, 52, 84
10, 125031, Note_on_c, 5, 64, 0
10, 125031, Note_on_c, 5, 52, 0
10, 125040, Note_on_c, 5, 64, 84
10, 125040, Note_on_c, 5, 52, 84
10, 125159, Note_on_c, 5, 64, 0
10, 125159, Note_on_c, 5, 52, 0
10, 129120, Note_on_c, 5, 52, 84
10, 129120, Note_on_c, 5, 64, 84
10, 129239, Note_on_c, 5, 52, 0
10, 129239, Note_on_c, 5, 64, 0
10, 129360, Note_on_c, 5, 52, 92
10, 129360, Note_on_c, 5, 64, 92
10, 129719, Note_on_c, 5, 52, 0
10, 129719, Note_on_c, 5, 64, 0
10, 129840, Note_on_c, 5, 64, 92
10, 129840, Note_on_c, 5, 52, 92
10, 130199, Note_on_c, 5, 64, 0
10, 130199, Note_on_c, 5, 52, 0
10, 130320, Note_on_c, 5, 64, 92
10, 130320, Note_on_c, 5, 52, 92
10, 130559, Note_on_c, 5, 64, 0
10, 130559, Note_on_c, 5, 52, 0
10, 130560, Note_on_c, 5, 57, 84
10, 130679, Note_on_c, 5, 57, 0
10, 135360, Note_on_c, 5, 67, 76
10, 135479, Note_on_c, 5, 67, 0
10, 135600, Note_on_c, 5, 67, 76
10, 135959, Note_on_c, 5, 67, 0
10, 136080, Note_on_c, 5, 67, 84
10, 136439, Note_on_c, 5, 67, 0
10, 136560, Note_on_c, 5, 67, 84
10, 136919, Note_on_c, 5, 67, 0
10, 137040, Note_on_c, 5, 67, 84
10, 137399, Note_on_c, 5, 67, 0
10, 137520, Note_on_c, 5, 67, 84
10, 137879, Note_on_c, 5, 67, 0
10, 138000, Note_on_c, 5, 67, 84
10, 138359, Note_on_c, 5, 67, 0
10, 138480, Note_on_c, 5, 67, 84
10, 138719, Note_on_c, 5, 67, 0
10, 138720, Note_on_c, 5, 64, 76
10, 138824, Note_on_c, 5, 64, 0
10, 138840, Note_on_c, 5, 64, 76
10, 138891, Note_on_c, 5, 64, 0
10, 138900, Note_on_c, 5, 64, 76
10, 138951, Note_on_c, 5, 64, 0
10, 138960, Note_on_c, 5, 64, 76
10, 139079, Note_on_c, 5, 64, 0
10, 139200, Note_on_c, 5, 67, 76
10, 139319, Note_on_c, 5, 67, 0
10, 139440, Note_on_c, 5, 67, 76
10, 139799, Note_on_c, 5, 67, 0
10, 139920, Note_on_c, 5, 67, 84
10, 140279, Note_on_c, 5, 67, 0
10, 140400, Note_on_c, 5, 67, 84
10, 140759, Note_on_c, 5, 67, 0
10, 140880, Note_on_c, 5, 67, 84
10, 141239, Note_on_c, 5, 67, 0
10, 141360, Note_on_c, 5, 67, 84
10, 141719, Note_on_c, 5, 67, 0
10, 141840, Note_on_c, 5, 67, 84
10, 142199, Note_on_c, 5, 67, 0
10, 142320, Note_on_c, 5, 67, 84
10, 142559, Note_on_c, 5, 67, 0
10, 142560, Note_on_c, 5, 64, 76
10, 142664, Note_on_c, 5, 64, 0
10, 142680, Note_on_c, 5, 64, 76
10, 142731, Note_on_c, 5, 64, 0
10, 142740, Note_on_c, 5, 64, 76
10, 142791, Note_on_c, 5, 64, 0
10, 142800, Note_on_c, 5, 64, 76
10, 142919, Note_on_c, 5, 64, 0
10, 143040, Note_on_c, 5, 57, 76
10, 143040, Note_on_c, 5, 69, 76
10, 143159, Note_on_c, 5, 57, 0
10, 143159, Note_on_c, 5, 69, 0
10, 143280, Note_on_c, 5, 57, 84
10, 143280, Note_on_c, 5, 69, 84
10, 143519, Note_on_c, 5, 57, 0
10, 143519, Note_on_c, 5, 69, 0
10, 143520, Note_on_c, 5, 64, 76
10, 143520, Note_on_c, 5, 52, 76
10, 143639, Note_on_c, 5, 64, 0
10, 143639, Note_on_c, 5, 52, 0
10, 143760, Note_on_c, 5, 64, 84
10, 143760, Note_on_c, 5, 52, 84
10, 143999, Note_on_c, 5, 64, 0
10, 143999, Note_on_c, 5, 52, 0
10, 144000, Note_on_c, 5, 69, 76
10, 144000, Note_on_c, 5, 57, 76
10, 144119, Note_on_c, 5, 69, 0
10, 144119, Note_on_c, 5, 57, 0
10, 144240, Note_on_c, 5, 57, 84
10, 144240, Note_on_c, 5, 69, 84
10, 144479, Note_on_c, 5, 57, 0
10, 144479, Note_on_c, 5, 69, 0
10, 144480, Note_on_c, 5, 52, 76
10, 144480, Note_on_c, 5, 64, 76
10, 144599, Note_on_c, 5, 52, 0
10, 144599, Note_on_c, 5, 64, 0
10, 144720, Note_on_c, 5, 69, 84
10, 144720, Note_on_c, 5, 57, 84
10, 145079, Note_on_c, 5, 69, 0
10, 145079, Note_on_c, 5, 57, 0
10, 145200, Note_on_c, 5, 67, 84
10, 145559, Note_on_c, 5, 67, 0
10, 145680, Note_on_c, 5, 67, 84
10, 146039, Note_on_c, 5, 67, 0
10, 146160, Note_on_c, 5, 67, 84
10, 146504, Note_on_c, 5, 67, 0
10, 146520, Note_on_c, 5, 52, 76
10, 146520, Note_on_c, 5, 64, 76
10, 146571, Note_on_c, 5, 52, 0
10, 146571, Note_on_c, 5, 64, 0
10, 146580, Note_on_c, 5, 64, 76
10, 146580, Note_on_c, 5, 52, 76
10, 146631, Note_on_c, 5, 64, 0
10, 146631, Note_on_c, 5, 52, 0
10, 146640, Note_on_c, 5, 52, 76
10, 146640, Note_on_c, 5, 64, 76
10, 146759, Note_on_c, 5, 52, 0
10, 146759, Note_on_c, 5, 64, 0
10, 146880, Note_on_c, 5, 57, 76
10, 146880, Note_on_c, 5, 69, 76
10, 146999, Note_on_c, 5, 57, 0
10, 146999, Note_on_c, 5, 69, 0
10, 147120, Note_on_c, 5, 69, 84
10, 147120, Note_on_c, 5, 57, 84
10, 147359, Note_on_c, 5, 69, 0
10, 147359, Note_on_c, 5, 57, 0
10, 147360, Note_on_c, 5, 52, 76
10, 147360, Note_on_c, 5, 64, 76
10, 147479, Note_on_c, 5, 52, 0
10, 147479, Note_on_c, 5, 64, 0
10, 147600, Note_on_c, 5, 64, 84
10, 147600, Note_on_c, 5, 52, 84
10, 147839, Note_on_c, 5, 64, 0
10, 147839, Note_on_c, 5, 52, 0
10, 147840, Note_on_c, 5, 69, 76
10, 147840, Note_on_c, 5, 57, 76
10, 147959, Note_on_c, 5, 69, 0
10, 147959, Note_on_c, 5, 57, 0
10, 148080, Note_on_c, 5, 69, 84
10, 148080, Note_on_c, 5, 57, 84
10, 148319, Note_on_c, 5, 69, 0
10, 148319, Note_on_c, 5, 57, 0
10, 148320, Note_on_c, 5, 52, 76
10, 148320, Note_on_c, 5, 64, 76
10, 148439, Note_on_c, 5, 52, 0
10, 148439, Note_on_c, 5, 64, 0
10, 148560, Note_on_c, 5, 69, 84
10, 148560, Note_on_c, 5, 57, 84
10, 148919, Note_on_c, 5, 69, 0
10, 148919, Note_on_c, 5, 57, 0
10, 149040, Note_on_c, 5, 67, 84
10, 149399, Note_on_c, 5, 67, 0
10, 149520, Note_on_c, 5, 67, 84
10, 149879, Note_on_c, 5, 67, 0
10, 150000, Note_on_c, 5, 67, 84
10, 150344, Note_on_c, 5, 67, 0
10, 150360, Note_on_c, 5, 52, 76
10, 150360, Note_on_c, 5, 64, 76
10, 150411, Note_on_c, 5, 52, 0
10, 150411, Note_on_c, 5, 64, 0
10, 150420, Note_on_c, 5, 64, 76
10, 150420, Note_on_c, 5, 52, 76
10, 150471, Note_on_c, 5, 64, 0
10, 150471, Note_on_c, 5, 52, 0
10, 150480, Note_on_c, 5, 64, 76
10, 150480, Note_on_c, 5, 52, 76
10, 150599, Note_on_c, 5, 64, 0
10, 150599, Note_on_c, 5, 52, 0
10, 161520, Note_on_c, 5, 52, 84
10, 161520, Note_on_c, 5, 64, 84
10, 161879, Note_on_c, 5, 52, 0
10, 161879, Note_on_c, 5, 64, 0
10, 162000, Note_on_c, 5, 52, 84
10, 162000, Note_on_c, 5, 64, 84
10, 162359, Note_on_c, 5, 52, 0
10, 162359, Note_on_c, 5, 64, 0
10, 162480, Note_on_c, 5, 52, 76
10, 162480, Note_on_c, 5, 64, 76
10, 162839, Note_on_c, 5, 52, 0
10, 162839, Note_on_c, 5, 64, 0
10, 162960, Note_on_c, 5, 52, 76
10, 162960, Note_on_c, 5, 64, 76
10, 163319, Note_on_c, 5, 52, 0
10, 163319, Note_on_c, 5, 64, 0
10, 163440, Note_on_c, 5, 64, 76
10, 163440, Note_on_c, 5, 52, 76
10, 163799, Note_on_c, 5, 64, 0
10, 163799, Note_on_c, 5, 52, 0
10, 163920, Note_on_c, 5, 52, 76
10, 163920, Note_on_c, 5, 64, 76
10, 164279, Note_on_c, 5, 52, 0
10, 164279, Note_on_c, 5, 64, 0
10, 164400, Note_on_c, 5, 52, 76
10, 164400, Note_on_c, 5, 64, 76
10, 164759, Note_on_c, 5, 52, 0
10, 164759, Note_on_c, 5, 64, 0
10, 164880, Note_on_c, 5, 64, 76
10, 164880, Note_on_c, 5, 52, 76
10, 165239, Note_on_c, 5, 64, 0
10, 165239, Note_on_c, 5, 52, 0
10, 165360, Note_on_c, 5, 52, 76
10, 165360, Note_on_c, 5, 64, 76
10, 165719, Note_on_c, 5, 52, 0
10, 165719, Note_on_c, 5, 64, 0
10, 165840, Note_on_c, 5, 52, 76
10, 165840, Note_on_c, 5, 64, 76
10, 166199, Note_on_c, 5, 52, 0
10, 166199, Note_on_c, 5, 64, 0
10, 166320, Control_c, 5, 11, 127
10, 166320, Note_on_c, 5, 52, 76
10, 166354, Control_c, 5, 11, 126
10, 166389, Control_c, 5, 11, 125
10, 166423, Control_c, 5, 11, 124
10, 166457, Control_c, 5, 11, 123
10, 166491, Control_c, 5, 11, 122
10, 166526, Control_c, 5, 11, 121
10, 166560, Control_c, 5, 11, 120
10, 166594, Control_c, 5, 11, 119
10, 166629, Control_c, 5, 11, 118
10, 166663, Control_c, 5, 11, 117
10, 166679, Note_on_c, 5, 52, 0
10, 166697, Control_c, 5, 11, 116
10, 166731, Control_c, 5, 11, 115
10, 166766, Control_c, 5, 11, 114
10, 166800, Control_c, 5, 11, 113
10, 166800, Note_on_c, 5, 52, 76
10, 166834, Control_c, 5, 11, 112
10, 166869, Control_c, 5, 11, 111
10, 166903, Control_c, 5, 11, 110
10, 166937, Control_c, 5, 11, 109
10, 166971, Control_c, 5, 11, 108
10, 167006, Control_c, 5, 11, 107
10, 167040, Control_c, 5, 11, 106
10, 167074, Control_c, 5, 11, 105
10, 167109, Control_c, 5, 11, 104
10, 167143, Control_c, 5, 11, 103
10, 167159, Note_on_c, 5, 52, 0
10, 167177, Control_c, 5, 11, 102
10, 178080, Control_c, 5, 11, 127
10, 178560, Note_on_c, 5, 52, 84
10, 178560, Note_on_c, 5, 64, 84
10, 178664, Note_on_c, 5, 52, 0
10, 178664, Note_on_c, 5, 64, 0
10, 178680, Note_on_c, 5, 52, 84
10, 178680, Note_on_c, 5, 64, 84
10, 178731, Note_on_c, 5, 52, 0
10, 178731, Note_on_c, 5, 64, 0
10, 178740, Note_on_c, 5, 52, 84
10, 178740, Note_on_c, 5, 64, 84
10, 178791, Note_on_c, 5, 52, 0
10, 178791, Note_on_c, 5, 64, 0
10, 178800, Note_on_c, 5, 64, 84
10, 178800, Note_on_c, 5, 52, 84
10, 178919, Note_on_c, 5, 64, 0
10, 178919, Note_on_c, 5, 52, 0
10, 179520, Note_on_c, 5, 64, 84
10, 179520, Note_on_c, 5, 52, 84
10, 179624, Note_on_c, 5, 64, 0
10, 179624, Note_on_c, 5, 52, 0
10, 179640, Note_on_c, 5, 64, 84
10, 179640, Note_on_c, 5, 52, 84
10, 179691, Note_on_c, 5, 64, 0
10, 179691, Note_on_c, 5, 52, 0
10, 179700, Note_on_c, 5, 52, 84
10, 179700, Note_on_c, 5, 64, 84
10, 179751, Note_on_c, 5, 52, 0
10, 179751, Note_on_c, 5, 64, 0
10, 179760, Note_on_c, 5, 64, 84
10, 179760, Note_on_c, 5, 52, 84
10, 179879, Note_on_c, 5, 64, 0
10, 179879, Note_on_c, 5, 52, 0
10, 180480, Note_on_c, 5, 64, 84
10, 180480, Note_on_c, 5, 52, 84
10, 180599, Note_on_c, 5, 64, 0
10, 180599, Note_on_c, 5, 52, 0
10, 180720, Note_on_c, 5, 64, 92
10, 180720, Note_on_c, 5, 52, 92
10, 181079, Note_on_c, 5, 64, 0
10, 181079, Note_on_c, 5, 52, 0
10, 181200, Note_on_c, 5, 52, 92
10, 181200, Note_on_c, 5, 64, 92
10, 181559, Note_on_c, 5, 52, 0
10, 181559, Note_on_c, 5, 64, 0
10, 181680, Note_on_c, 5, 52, 92
10, 181680, Note_on_c, 5, 64, 92
10, 182039, Note_on_c, 5, 52, 0
10, 182039, Note_on_c, 5, 64, 0
10, 182160, Note_on_c, 5, 52, 92
10, 182160, Note_on_c, 5, 64, 92
10, 182519, Note_on_c, 5, 52, 0
10, 182519, Note_on_c, 5, 64, 0
10, 182640, Note_on_c, 5, 52, 92
10, 182640, Note_on_c, 5, 64, 92
10, 182999, Note_on_c, 5, 52, 0
10, 182999, Note_on_c, 5, 64, 0
10, 183120, Note_on_c, 5, 64, 92
10, 183120, Note_on_c, 5, 52, 92
10, 183479, Note_on_c, 5, 64, 0
10, 183479, Note_on_c, 5, 52, 0
10, 183600, Note_on_c, 5, 64, 92
10, 183600, Note_on_c, 5, 52, 92
10, 183839, Note_on_c, 5, 52, 0
10, 183840, Note_on_c, 5, 57, 84
10, 183944, Note_on_c, 5, 64, 0
10, 183944, Note_on_c, 5, 57, 0
10, 183960, Note_on_c, 5, 57, 84
10, 183960, Note_on_c, 5, 69, 84
10, 184011, Note_on_c, 5, 57, 0
10, 184011, Note_on_c, 5, 69, 0
10, 184020, Note_on_c, 5, 57, 84
10, 184020, Note_on_c, 5, 69, 84
10, 184071, Note_on_c, 5, 57, 0
10, 184071, Note_on_c, 5, 69, 0
10, 184080, Note_on_c, 5, 69, 84
10, 184080, Note_on_c, 5, 57, 84
10, 184199, Note_on_c, 5, 69, 0
10, 184199, Note_on_c, 5, 57, 0
10, 184320, Note_on_c, 5, 64, 84
10, 184320, Note_on_c, 5, 52, 84
10, 184439, Note_on_c, 5, 64, 0
10, 184439, Note_on_c, 5, 52, 0
10, 184560, Note_on_c, 5, 64, 92
10, 184560, Note_on_c, 5, 52, 92
10, 184919, Note_on_c, 5, 64, 0
10, 184919, Note_on_c, 5, 52, 0
10, 185040, Note_on_c, 5, 52, 92
10, 185040, Note_on_c, 5, 64, 92
10, 185399, Note_on_c, 5, 52, 0
10, 185399, Note_on_c, 5, 64, 0
10, 185520, Note_on_c, 5, 64, 92
10, 185520, Note_on_c, 5, 52, 92
10, 185879, Note_on_c, 5, 64, 0
10, 185879, Note_on_c, 5, 52, 0
10, 186000, Note_on_c, 5, 52, 92
10, 186000, Note_on_c, 5, 64, 92
10, 186359, Note_on_c, 5, 52, 0
10, 186359, Note_on_c, 5, 64, 0
10, 186480, Note_on_c, 5, 52, 92
10, 186480, Note_on_c, 5, 64, 92
10, 186839, Note_on_c, 5, 52, 0
10, 186839, Note_on_c, 5, 64, 0
10, 186960, Note_on_c, 5, 52, 92
10, 186960, Note_on_c, 5, 64, 92
10, 187319, Note_on_c, 5, 52, 0
10, 187319, Note_on_c, 5, 64, 0
10, 187440, Note_on_c, 5, 64, 92
10, 187440, Note_on_c, 5, 52, 92
10, 187679, Note_on_c, 5, 52, 0
10, 187680, Note_on_c, 5, 57, 84
10, 187784, Note_on_c, 5, 64, 0
10, 187784, Note_on_c, 5, 57, 0
10, 187800, Note_on_c, 5, 69, 84
10, 187800, Note_on_c, 5, 57, 84
10, 187851, Note_on_c, 5, 69, 0
10, 187851, Note_on_c, 5, 57, 0
10, 187860, Note_on_c, 5, 69, 84
10, 187860, Note_on_c, 5, 57, 84
10, 187911, Note_on_c, 5, 69, 0
10, 187911, Note_on_c, 5, 57, 0
10, 187920, Note_on_c, 5, 57, 84
10, 187920, Note_on_c, 5, 69, 84
10, 188039, Note_on_c, 5, 57, 0
10, 188039, Note_on_c, 5, 69, 0
10, 188280, Note_on_c, 5, 57, 84
10, 188280, Note_on_c, 5, 69, 84
10, 188331, Note_on_c, 5, 57, 0
10, 188331, Note_on_c, 5, 69, 0
10, 188340, Note_on_c, 5, 69, 84
10, 188340, Note_on_c, 5, 57, 84
10, 188391, Note_on_c, 5, 69, 0
10, 188391, Note_on_c, 5, 57, 0
10, 188400, Note_on_c, 5, 57, 84
10, 188400, Note_on_c, 5, 69, 84
10, 188519, Note_on_c, 5, 57, 0
10, 188519, Note_on_c, 5, 69, 0
10, 188760, Note_on_c, 5, 52, 84
10, 188760, Note_on_c, 5, 64, 84
10, 188811, Note_on_c, 5, 52, 0
10, 188811, Note_on_c, 5, 64, 0
10, 188820, Note_on_c, 5, 52, 84
10, 188820, Note_on_c, 5, 64, 84
10, 188871, Note_on_c, 5, 52, 0
10, 188871, Note_on_c, 5, 64, 0
10, 188880, Note_on_c, 5, 52, 84
10, 188880, Note_on_c, 5, 64, 84
10, 188999, Note_on_c, 5, 52, 0
10, 188999, Note_on_c, 5, 64, 0
10, 189240, Note_on_c, 5, 64, 84
10, 189240, Note_on_c, 5, 52, 84
10, 189291, Note_on_c, 5, 64, 0
10, 189291, Note_on_c, 5, 52, 0
10, 189300, Note_on_c, 5, 64, 84
10, 189300, Note_on_c, 5, 52, 84
10, 189351, Note_on_c, 5, 64, 0
10, 189351, Note_on_c, 5, 52, 0
10, 189360, Note_on_c, 5, 64, 84
10, 189360, Note_on_c, 5, 52, 84
10, 189479, Note_on_c, 5, 64, 0
10, 189479, Note_on_c, 5, 52, 0
10, 189600, Note_on_c, 5, 73, 84
10, 189600, Note_on_c, 5, 69, 84
10, 189944, Note_on_c, 5, 73, 0
10, 189944, Note_on_c, 5, 69, 0
10, 189960, Note_on_c, 5, 71, 84
10, 189960, Note_on_c, 5, 64, 84
10, 190049, Note_on_c, 5, 71, 0
10, 190049, Note_on_c, 5, 64, 0
10, 190080, Note_on_c, 5, 69, 84
10, 190080, Note_on_c, 5, 61, 84
10, 190169, Note_on_c, 5, 69, 0
10, 190169, Note_on_c, 5, 61, 0
10, 190200, Note_on_c, 5, 73, 84
10, 190200, Note_on_c, 5, 69, 84
10, 190289, Note_on_c, 5, 73, 0
10, 190289, Note_on_c, 5, 69, 0
10, 190320, Note_on_c, 5, 71, 84
10, 190320, Note_on_c, 5, 64, 84
10, 190409, Note_on_c, 5, 71, 0
10, 190409, Note_on_c, 5, 64, 0
10, 190440, Note_on_c, 5, 61, 84
10, 190440, Note_on_c, 5, 69, 84
10, 190529, Note_on_c, 5, 61, 0
10, 190529, Note_on_c, 5, 69, 0
10, 190560, Note_on_c, 5, 71, 84
10, 190560, Note_on_c, 5, 64, 84
10, 190649, Note_on_c, 5, 71, 0
10, 190649, Note_on_c, 5, 64, 0
10, 190680, Note_on_c, 5, 61, 84
10, 190680, Note_on_c, 5, 69, 84
10, 190769, Note_on_c, 5, 61, 0
10, 190769, Note_on_c, 5, 69, 0
10, 190800, Note_on_c, 5, 64, 84
10, 190800, Note_on_c, 5, 76, 84
10, 190889, Note_on_c, 5, 64, 0
10, 190889, Note_on_c, 5, 76, 0
10, 190920, Note_on_c, 5, 64, 84
10, 190920, Note_on_c, 5, 76, 84
10, 191009, Note_on_c, 5, 64, 0
10, 191009, Note_on_c, 5, 76, 0
10, 191040, Note_on_c, 5, 64, 84
10, 191040, Note_on_c, 5, 76, 84
10, 191129, Note_on_c, 5, 64, 0
10, 191129, Note_on_c, 5, 76, 0
10, 191160, Note_on_c, 5, 76, 84
10, 191160, Note_on_c, 5, 64, 84
10, 191249, Note_on_c, 5, 76, 0
10, 191249, Note_on_c, 5, 64, 0
10, 191280, Note_on_c, 5, 76, 84
10, 191280, Note_on_c, 5, 64, 84
10, 191369, Note_on_c, 5, 76, 0
10, 191369, Note_on_c, 5, 64, 0
10, 191400, Note_on_c, 5, 64, 84
10, 191400, Note_on_c, 5, 76, 84
10, 191489, Note_on_c, 5, 64, 0
10, 191489, Note_on_c, 5, 76, 0
10, 191520, Note_on_c, 5, 69, 84
10, 191520, Note_on_c, 5, 57, 84
10, 191624, Note_on_c, 5, 69, 0
10, 191624, Note_on_c, 5, 57, 0
10, 191640, Note_on_c, 5, 57, 84
10, 191640, Note_on_c, 5, 69, 84
10, 191691, Note_on_c, 5, 57, 0
10, 191691, Note_on_c, 5, 69, 0
10, 191700, Note_on_c, 5, 69, 84
10, 191700, Note_on_c, 5, 57, 84
10, 191751, Note_on_c, 5, 69, 0
10, 191751, Note_on_c, 5, 57, 0
10, 191760, Note_on_c, 5, 69, 84
10, 191760, Note_on_c, 5, 57, 84
10, 191879, Note_on_c, 5, 69, 0
10, 191879, Note_on_c, 5, 57, 0
10, 192120, Note_on_c, 5, 57, 84
10, 192120, Note_on_c, 5, 69, 84
10, 192171, Note_on_c, 5, 57, 0
10, 192171, Note_on_c, 5, 69, 0
10, 192180, Note_on_c, 5, 57, 84
10, 192180, Note_on_c, 5, 69, 84
10, 192231, Note_on_c, 5, 57, 0
10, 192231, Note_on_c, 5, 69, 0
10, 192240, Note_on_c, 5, 57, 84
10, 192240, Note_on_c, 5, 69, 84
10, 192359, Note_on_c, 5, 57, 0
10, 192359, Note_on_c, 5, 69, 0
10, 192600, Note_on_c, 5, 64, 84
10, 192600, Note_on_c, 5, 52, 84
10, 192651, Note_on_c, 5, 64, 0
10, 192651, Note_on_c, 5, 52, 0
10, 192660, Note_on_c, 5, 52, 84
10, 192660, Note_on_c, 5, 64, 84
10, 192711, Note_on_c, 5, 52, 0
10, 192711, Note_on_c, 5, 64, 0
10, 192720, Note_on_c, 5, 64, 84
10, 192720, Note_on_c, 5, 52, 84
10, 192839, Note_on_c, 5, 64, 0
10, 192839, Note_on_c, 5, 52, 0
10, 193080, Note_on_c, 5, 64, 84
10, 193080, Note_on_c, 5, 52, 84
10, 193131, Note_on_c, 5, 64, 0
10, 193131, Note_on_c, 5, 52, 0
10, 193140, Note_on_c, 5, 52, 84
10, 193140, Note_on_c, 5, 64, 84
10, 193191, Note_on_c, 5, 52, 0
10, 193191, Note_on_c, 5, 64, 0
10, 193200, Note_on_c, 5, 52, 84
10, 193200, Note_on_c, 5, 64, 84
10, 193319, Note_on_c, 5, 52, 0
10, 193319, Note_on_c, 5, 64, 0
10, 193440, Note_on_c, 5, 73, 84
10, 193440, Note_on_c, 5, 69, 84
10, 193559, Note_on_c, 5, 73, 0
10, 193559, Note_on_c, 5, 69, 0
10, 193680, Note_on_c, 5, 73, 84
10, 193680, Note_on_c, 5, 69, 84
10, 193799, Note_on_c, 5, 73, 0
10, 193799, Note_on_c, 5, 69, 0
10, 193920, Note_on_c, 5, 69, 84
10, 193920, Note_on_c, 5, 73, 84
10, 194039, Note_on_c, 5, 69, 0
10, 194039, Note_on_c, 5, 73, 0
10, 194160, Note_on_c, 5, 69, 84
10, 194160, Note_on_c, 5, 73, 84
10, 194279, Note_on_c, 5, 69, 0
10, 194279, Note_on_c, 5, 73, 0
10, 194400, Note_on_c, 5, 71, 84
10, 194400, Note_on_c, 5, 64, 84
10, 194519, Note_on_c, 5, 71, 0
10, 194519, Note_on_c, 5, 64, 0
10, 194640, Note_on_c, 5, 71, 84
10, 194640, Note_on_c, 5, 64, 84
10, 194759, Note_on_c, 5, 71, 0
10, 194759, Note_on_c, 5, 64, 0
10, 194880, Note_on_c, 5, 64, 84
10, 194880, Note_on_c, 5, 71, 84
10, 194999, Note_on_c, 5, 64, 0
10, 194999, Note_on_c, 5, 71, 0
10, 195120, Note_on_c, 5, 71, 84
10, 195120, Note_on_c, 5, 64, 84
10, 195239, Note_on_c, 5, 71, 0
10, 195239, Note_on_c, 5, 64, 0
10, 195360, Note_on_c, 5, 61, 84
10, 195360, Note_on_c, 5, 69, 84
10, 195479, Note_on_c, 5, 61, 0
10, 195479, Note_on_c, 5, 69, 0
10, 195840, Note_on_c, 5, 52, 84
10, 195840, Note_on_c, 5, 64, 84
10, 197399, Note_on_c, 5, 52, 0
10, 197399, Note_on_c, 5, 64, 0
10, 197760, Note_on_c, 5, 64, 84
10, 197760, Note_on_c, 5, 52, 84
10, 198704, Note_on_c, 5, 64, 0
10, 198704, Note_on_c, 5, 52, 0
10, 198720, Note_on_c, 5, 69, 84
10, 198720, Note_on_c, 5, 57, 84
10, 199184, Note_on_c, 5, 69, 0
10, 199184, Note_on_c, 5, 57, 0
10, 199200, Note_on_c, 5, 57, 84
10, 199200, Note_on_c, 5, 69, 84
10, 199319, Note_on_c, 5, 57, 0
10, 199319, Note_on_c, 5, 69, 0
10, 199680, Note_on_c, 5, 57, 84
10, 199680, Note_on_c, 5, 45, 84
10, 201239, Note_on_c, 5, 57, 0
10, 201239, Note_on_c, 5, 45, 0
10, 201600, Note_on_c, 5, 45, 84
10, 201600, Note_on_c, 5, 57, 84
10, 203159, Note_on_c, 5, 45, 0
10, 203159, Note_on_c, 5, 57, 0
10, 203280, Note_on_c, 5, 69, 84
10, 203280, Note_on_c, 5, 57, 84
10, 203399, Note_on_c, 5, 69, 0
10, 203399, Note_on_c, 5, 57, 0
10, 203520, Note_on_c, 5, 57, 84
10, 203520, Note_on_c, 5, 69, 84
10, 203639, Note_on_c, 5, 57, 0
10, 203639, Note_on_c, 5, 69, 0
10, 203760, Note_on_c, 5, 57, 84
10, 203760, Note_on_c, 5, 69, 84
10, 203879, Note_on_c, 5, 57, 0
10, 203879, Note_on_c, 5, 69, 0
10, 204000, Note_on_c, 5, 69, 84
10, 204000, Note_on_c, 5, 57, 84
10, 204119, Note_on_c, 5, 69, 0
10, 204119, Note_on_c, 5, 57, 0
10, 204240, Note_on_c, 5, 69, 84
10, 204240, Note_on_c, 5, 57, 84
10, 204359, Note_on_c, 5, 69, 0
10, 204359, Note_on_c, 5, 57, 0
10, 204480, Note_on_c, 5, 69, 84
10, 204480, Note_on_c, 5, 57, 84
10, 204599, Note_on_c, 5, 69, 0
10, 204599, Note_on_c, 5, 57, 0
10, 204720, Note_on_c, 5, 69, 84
10, 204720, Note_on_c, 5, 57, 84
10, 204839, Note_on_c, 5, 69, 0
10, 204839, Note_on_c, 5, 57, 0
10, 204960, Note_on_c, 5, 57, 84
10, 204960, Note_on_c, 5, 69, 84
10, 205079, Note_on_c, 5, 57, 0
10, 205079, Note_on_c, 5, 69, 0
10, 205200, Note_on_c, 5, 57, 84
10, 205200, Note_on_c, 5, 69, 84
10, 205319, Note_on_c, 5, 57, 0
10, 205319, Note_on_c, 5, 69, 0
10, 205440, Note_on_c, 5, 57, 84
10, 205440, Note_on_c, 5, 69, 84
10, 205559, Note_on_c, 5, 57, 0
10, 205559, Note_on_c, 5, 69, 0
10, 205680, Note_on_c, 5, 57, 84
10, 205680, Note_on_c, 5, 69, 84
10, 205799, Note_on_c, 5, 57, 0
10, 205799, Note_on_c, 5, 69, 0
10, 205920, Note_on_c, 5, 71, 84
10, 206039, Note_on_c, 5, 71, 0
10, 206160, Note_on_c, 5, 71, 84
10, 206279, Note_on_c, 5, 71, 0
10, 206400, Note_on_c, 5, 69, 84
10, 206400, Note_on_c, 5, 57, 84
10, 206519, Note_on_c, 5, 69, 0
10, 206519, Note_on_c, 5, 57, 0
10, 206640, Note_on_c, 5, 57, 84
10, 206640, Note_on_c, 5, 69, 84
10, 206759, Note_on_c, 5, 57, 0
10, 206759, Note_on_c, 5, 69, 0
10, 206880, Note_on_c, 5, 52, 84
10, 206880, Note_on_c, 5, 64, 84
10, 206999, Note_on_c, 5, 52, 0
10, 206999, Note_on_c, 5, 64, 0
10, 207120, Note_on_c, 5, 57, 84
10, 207120, Note_on_c, 5, 69, 84
10, 207239, Note_on_c, 5, 57, 0
10, 207239, Note_on_c, 5, 69, 0
10, 207360, Note_on_c, 5, 69, 84
10, 207360, Note_on_c, 5, 57, 84
10, 207479, Note_on_c, 5, 69, 0
10, 207479, Note_on_c, 5, 57, 0
10, 207600, Note_on_c, 5, 57, 84
10, 207600, Note_on_c, 5, 69, 84
10, 207719, Note_on_c, 5, 57, 0
10, 207719, Note_on_c, 5, 69, 0
10, 207840, Note_on_c, 5, 52, 84
10, 207840, Note_on_c, 5, 64, 84
10, 207959, Note_on_c, 5, 52, 0
10, 207959, Note_on_c, 5, 64, 0
10, 208080, Note_on_c, 5, 64, 76
10, 208169, Note_on_c, 5, 64, 0
10, 208560, Note_on_c, 5, 64, 52
10, 208679, Note_on_c, 5, 64, 0
10, 208800, Note_on_c, 5, 52, 52
10, 208919, Note_on_c, 5, 52, 0
10, 210000, Note_on_c, 5, 64, 76
10, 210089, Note_on_c, 5, 64, 0
10, 210480, Note_on_c, 5, 64, 52
10, 210599, Note_on_c, 5, 64, 0
10, 210720, Note_on_c, 5, 52, 52
10, 210839, Note_on_c, 5, 52, 0
10, 211440, Note_on_c, 5, 64, 52
10, 211559, Note_on_c, 5, 64, 0
10, 211680, Note_on_c, 5, 52, 52
10, 211799, Note_on_c, 5, 52, 0
10, 212400, Note_on_c, 5, 64, 52
10, 212519, Note_on_c, 5, 64, 0
10, 212640, Note_on_c, 5, 52, 52
10, 212759, Note_on_c, 5, 52, 0
10, 212880, Note_on_c, 5, 52, 52
10, 212880, Note_on_c, 5, 64, 52
10, 213584, Note_on_c, 5, 52, 0
10, 213584, Note_on_c, 5, 64, 0
10, 213600, Note_on_c, 5, 57, 52
10, 213600, Note_on_c, 5, 64, 52
10, 213771, Note_on_c, 5, 57, 0
10, 213771, Note_on_c, 5, 64, 0
10, 213780, Note_on_c, 5, 57, 52
10, 213780, Note_on_c, 5, 64, 52
10, 213824, Note_on_c, 5, 57, 0
10, 213824, Note_on_c, 5, 64, 0
10, 213840, Note_on_c, 5, 64, 76
10, 213840, Note_on_c, 5, 57, 76
10, 214071, Note_on_c, 5, 64, 0
10, 214071, Note_on_c, 5, 57, 0
10, 214080, Note_on_c, 5, 52, 52
10, 214080, Note_on_c, 5, 64, 52
10, 214251, Note_on_c, 5, 52, 0
10, 214251, Note_on_c, 5, 64, 0
10, 214260, Note_on_c, 5, 64, 52
10, 214260, Note_on_c, 5, 52, 52
10, 214304, Note_on_c, 5, 64, 0
10, 214304, Note_on_c, 5, 52, 0
10, 214320, Note_on_c, 5, 64, 76
10, 214320, Note_on_c, 5, 52, 76
10, 214551, Note_on_c, 5, 64, 0
10, 214551, Note_on_c, 5, 52, 0
10, 214560, Note_on_c, 5, 57, 52
10, 214560, Note_on_c, 5, 64, 52
10, 214731, Note_on_c, 5, 57, 0
10, 214731, Note_on_c, 5, 64, 0
10, 214740, Note_on_c, 5, 57, 52
10, 214740, Note_on_c, 5, 64, 52
10, 214784, Note_on_c, 5, 57, 0
10, 214784, Note_on_c, 5, 64, 0
10, 214800, Note_on_c, 5, 57, 76
10, 214800, Note_on_c, 5, 64, 76
10, 215031, Note_on_c, 5, 57, 0
10, 215031, Note_on_c, 5, 64, 0
10, 215040, Note_on_c, 5, 52, 52
10, 215040, Note_on_c, 5, 64, 52
10, 215211, Note_on_c, 5, 52, 0
10, 215211, Note_on_c, 5, 64, 0
10, 215220, Note_on_c, 5, 64, 52
10, 215220, Note_on_c, 5, 52, 52
10, 215264, Note_on_c, 5, 64, 0
10, 215264, Note_on_c, 5, 52, 0
10, 215280, Note_on_c, 5, 64, 76
10, 215280, Note_on_c, 5, 52, 76
10, 215511, Note_on_c, 5, 64, 0
10, 215511, Note_on_c, 5, 52, 0
10, 215520, Note_on_c, 5, 61, 52
10, 215520, Note_on_c, 5, 57, 52
10, 215639, Note_on_c, 5, 61, 0
10, 215639, Note_on_c, 5, 57, 0
10, 217920, Note_on_c, 5, 52, 52
10, 217920, Note_on_c, 5, 64, 52
10, 218144, Note_on_c, 5, 64, 0
10, 218160, Note_on_c, 5, 64, 52
10, 218384, Note_on_c, 5, 52, 0
10, 218384, Note_on_c, 5, 64, 0
10, 218400, Note_on_c, 5, 57, 52
10, 218400, Note_on_c, 5, 64, 52
10, 218571, Note_on_c, 5, 57, 0
10, 218571, Note_on_c, 5, 64, 0
10, 218580, Note_on_c, 5, 64, 52
10, 218580, Note_on_c, 5, 57, 52
10, 218624, Note_on_c, 5, 64, 0
10, 218624, Note_on_c, 5, 57, 0
10, 218640, Note_on_c, 5, 57, 76
10, 218640, Note_on_c, 5, 64, 76
10, 218871, Note_on_c, 5, 57, 0
10, 218871, Note_on_c, 5, 64, 0
10, 218880, Note_on_c, 5, 64, 52
10, 218880, Note_on_c, 5, 52, 52
10, 219051, Note_on_c, 5, 64, 0
10, 219051, Note_on_c, 5, 52, 0
10, 219060, Note_on_c, 5, 64, 52
10, 219060, Note_on_c, 5, 52, 52
10, 219104, Note_on_c, 5, 64, 0
10, 219104, Note_on_c, 5, 52, 0
10, 219120, Note_on_c, 5, 52, 76
10, 219120, Note_on_c, 5, 64, 76
10, 219351, Note_on_c, 5, 52, 0
10, 219351, Note_on_c, 5, 64, 0
10, 219360, Note_on_c, 5, 64, 52
10, 219360, Note_on_c, 5, 57, 52
10, 219531, Note_on_c, 5, 64, 0
10, 219531, Note_on_c, 5, 57, 0
10, 219540, Note_on_c, 5, 64, 52
10, 219540, Note_on_c, 5, 57, 52
10, 219584, Note_on_c, 5, 64, 0
10, 219584, Note_on_c, 5, 57, 0
10, 219600, Note_on_c, 5, 57, 76
10, 219600, Note_on_c, 5, 64, 76
10, 219831, Note_on_c, 5, 57, 0
10, 219831, Note_on_c, 5, 64, 0
10, 219840, Note_on_c, 5, 52, 52
10, 219840, Note_on_c, 5, 64, 52
10, 220011, Note_on_c, 5, 52, 0
10, 220011, Note_on_c, 5, 64, 0
10, 220020, Note_on_c, 5, 52, 52
10, 220020, Note_on_c, 5, 64, 52
10, 220064, Note_on_c, 5, 52, 0
10, 220064, Note_on_c, 5, 64, 0
10, 220080, Note_on_c, 5, 64, 76
10, 220080, Note_on_c, 5, 52, 76
10, 220311, Note_on_c, 5, 64, 0
10, 220311, Note_on_c, 5, 52, 0
10, 220320, Note_on_c, 5, 57, 52
10, 220320, Note_on_c, 5, 61, 52
10, 220439, Note_on_c, 5, 57, 0
10, 220439, Note_on_c, 5, 61, 0
10, 221760, Note_on_c, 5, 52, 48
10, 221760, Note_on_c, 5, 64, 48
10, 221984, Note_on_c, 5, 64, 0
10, 222000, Note_on_c, 5, 64, 48
10, 222224, Note_on_c, 5, 52, 0
10, 222224, Note_on_c, 5, 64, 0
10, 222240, Note_on_c, 5, 57, 48
10, 222240, Note_on_c, 5, 64, 48
10, 222464, Note_on_c, 5, 64, 0
10, 222480, Note_on_c, 5, 64, 48
10, 222704, Note_on_c, 5, 57, 0
10, 222704, Note_on_c, 5, 64, 0
10, 222720, Note_on_c, 5, 64, 48
10, 222720, Note_on_c, 5, 52, 48
10, 222944, Note_on_c, 5, 64, 0
10, 222960, Note_on_c, 5, 64, 48
10, 223184, Note_on_c, 5, 52, 0
10, 223184, Note_on_c, 5, 64, 0
10, 223200, Note_on_c, 5, 64, 48
10, 223200, Note_on_c, 5, 57, 48
10, 223424, Note_on_c, 5, 64, 0
10, 223440, Note_on_c, 5, 64, 48
10, 223664, Note_on_c, 5, 57, 0
10, 223664, Note_on_c, 5, 64, 0
10, 223680, Note_on_c, 5, 64, 48
10, 223680, Note_on_c, 5, 52, 48
10, 223904, Note_on_c, 5, 64, 0
10, 223920, Note_on_c, 5, 64, 48
10, 224144, Note_on_c, 5, 52, 0
10, 224144, Note_on_c, 5, 64, 0
10, 224160, Note_on_c, 5, 52, 48
10, 224160, Note_on_c, 5, 64, 48
10, 224279, Note_on_c, 5, 52, 0
10, 224279, Note_on_c, 5, 64, 0
10, 224398, Control_c, 5, 11, 64
10, 224400, Note_on_c, 5, 64, 84
10, 224400, Control_c, 5, 11, 64
10, 224400, Note_on_c, 5, 40, 84
10, 224488, Control_c, 5, 11, 65
10, 224575, Control_c, 5, 11, 66
10, 224663, Control_c, 5, 11, 67
10, 224750, Control_c, 5, 11, 68
10, 224838, Control_c, 5, 11, 69
10, 224926, Control_c, 5, 11, 70
10, 225013, Control_c, 5, 11, 71
10, 225101, Control_c, 5, 11, 72
10, 225189, Control_c, 5, 11, 73
10, 225276, Control_c, 5, 11, 74
10, 225364, Control_c, 5, 11, 75
10, 225451, Control_c, 5, 11, 76
10, 225539, Control_c, 5, 11, 77
10, 225627, Control_c, 5, 11, 78
10, 225714, Control_c, 5, 11, 79
10, 225802, Control_c, 5, 11, 80
10, 225890, Control_c, 5, 11, 81
10, 225977, Control_c, 5, 11, 82
10, 226065, Control_c, 5, 11, 83
10, 226152, Control_c, 5, 11, 84
10, 226240, Control_c, 5, 11, 85
10, 226328, Control_c, 5, 11, 86
10, 226415, Control_c, 5, 11, 87
10, 226503, Control_c, 5, 11, 88
10, 226559, Note_on_c, 5, 64, 0
10, 226559, Note_on_c, 5, 40, 0
10, 226560, Note_on_c, 5, 40, 84
10, 226560, Note_on_c, 5, 64, 84
10, 226590, Control_c, 5, 11, 89
10, 226678, Control_c, 5, 11, 90
10, 226766, Control_c, 5, 11, 91
10, 226853, Control_c, 5, 11, 92
10, 226941, Control_c, 5, 11, 93
10, 227029, Control_c, 5, 11, 94
10, 227116, Control_c, 5, 11, 95
10, 227204, Control_c, 5, 11, 96
10, 227291, Control_c, 5, 11, 97
10, 227379, Control_c, 5, 11, 98
10, 227467, Control_c, 5, 11, 99
10, 227554, Control_c, 5, 11, 100
10, 227642, Control_c, 5, 11, 101
10, 227730, Control_c, 5, 11, 102
10, 227817, Control_c, 5, 11, 103
10, 227905, Control_c, 5, 11, 104
10, 227992, Control_c, 5, 11, 105
10, 228080, Control_c, 5, 11, 106
10, 228168, Control_c, 5, 11, 107
10, 228255, Control_c, 5, 11, 108
10, 228343, Control_c, 5, 11, 109
10, 228430, Control_c, 5, 11, 110
10, 228479, Note_on_c, 5, 40, 0
10, 228479, Note_on_c, 5, 64, 0
10, 228480, Note_on_c, 5, 40, 84
10, 228480, Note_on_c, 5, 64, 84
10, 228518, Control_c, 5, 11, 111
10, 228606, Control_c, 5, 11, 112
10, 228693, Control_c, 5, 11, 113
10, 228781, Control_c, 5, 11, 114
10, 228869, Control_c, 5, 11, 115
10, 228956, Control_c, 5, 11, 116
10, 229044, Control_c, 5, 11, 117
10, 229131, Control_c, 5, 11, 118
10, 229219, Control_c, 5, 11, 119
10, 229307, Control_c, 5, 11, 120
10, 229394, Control_c, 5, 11, 121
10, 229482, Control_c, 5, 11, 122
10, 229570, Control_c, 5, 11, 123
10, 229657, Control_c, 5, 11, 124
10, 229745, Control_c, 5, 11, 125
10, 229832, Control_c, 5, 11, 127
10, 229904, Note_on_c, 5, 40, 0
10, 229904, Note_on_c, 5, 64, 0
10, 229920, Note_on_c, 5, 64, 84
10, 230864, Note_on_c, 5, 64, 0
10, 230880, Note_on_c, 5, 69, 92
10, 230880, Note_on_c, 5, 57, 92
10, 231329, Note_on_c, 5, 69, 0
10, 231329, Note_on_c, 5, 57, 0
10, 231360, Note_on_c, 5, 64, 92
10, 231809, Note_on_c, 5, 64, 0
10, 231840, Note_on_c, 5, 69, 92
10, 231840, Note_on_c, 5, 57, 92
10, 232289, Note_on_c, 5, 69, 0
10, 232289, Note_on_c, 5, 57, 0
10, 232320, Note_on_c, 5, 64, 92
10, 232769, Note_on_c, 5, 64, 0
10, 232800, Note_on_c, 5, 64, 84
10, 233744, Note_on_c, 5, 64, 0
10, 233760, Note_on_c, 5, 69, 92
10, 233760, Note_on_c, 5, 57, 92
10, 234209, Note_on_c, 5, 69, 0
10, 234209, Note_on_c, 5, 57, 0
10, 234240, Note_on_c, 5, 64, 92
10, 234689, Note_on_c, 5, 64, 0
10, 234720, Note_on_c, 5, 69, 92
10, 234720, Note_on_c, 5, 57, 92
10, 235169, Note_on_c, 5, 69, 0
10, 235169, Note_on_c, 5, 57, 0
10, 235200, Note_on_c, 5, 57, 92
10, 235200, Note_on_c, 5, 69, 92
10, 235649, Note_on_c, 5, 57, 0
10, 235649, Note_on_c, 5, 69, 0
10, 235680, Note_on_c, 5, 69, 92
10, 235680, Note_on_c, 5, 73, 92
10, 235769, Note_on_c, 5, 69, 0
10, 235769, Note_on_c, 5, 73, 0
10, 235800, Note_on_c, 5, 73, 84
10, 235800, Note_on_c, 5, 69, 84
10, 235889, Note_on_c, 5, 73, 0
10, 235889, Note_on_c, 5, 69, 0
10, 235920, Note_on_c, 5, 73, 84
10, 235920, Note_on_c, 5, 69, 84
10, 236009, Note_on_c, 5, 73, 0
10, 236009, Note_on_c, 5, 69, 0
10, 236040, Note_on_c, 5, 73, 84
10, 236040, Note_on_c, 5, 69, 84
10, 236129, Note_on_c, 5, 73, 0
10, 236129, Note_on_c, 5, 69, 0
10, 236160, Note_on_c, 5, 64, 92
10, 236160, Note_on_c, 5, 71, 92
10, 236249, Note_on_c, 5, 64, 0
10, 236249, Note_on_c, 5, 71, 0
10, 236280, Note_on_c, 5, 64, 84
10, 236280, Note_on_c, 5, 71, 84
10, 236369, Note_on_c, 5, 64, 0
10, 236369, Note_on_c, 5, 71, 0
10, 236400, Note_on_c, 5, 64, 84
10, 236400, Note_on_c, 5, 71, 84
10, 236489, Note_on_c, 5, 64, 0
10, 236489, Note_on_c, 5, 71, 0
10, 236520, Note_on_c, 5, 64, 84
10, 236520, Note_on_c, 5, 71, 84
10, 236609, Note_on_c, 5, 64, 0
10, 236609, Note_on_c, 5, 71, 0
10, 236640, Note_on_c, 5, 57, 84
10, 236744, Note_on_c, 5, 57, 0
10, 236760, Note_on_c, 5, 57, 84
10, 236864, Note_on_c, 5, 57, 0
10, 236880, Note_on_c, 5, 57, 92
10, 236984, Note_on_c, 5, 57, 0
10, 237000, Note_on_c, 5, 57, 84
10, 237104, Note_on_c, 5, 57, 0
10, 237120, Note_on_c, 5, 57, 84
10, 237224, Note_on_c, 5, 57, 0
10, 237240, Note_on_c, 5, 57, 84
10, 237344, Note_on_c, 5, 57, 0
10, 237360, Note_on_c, 5, 57, 84
10, 237464, Note_on_c, 5, 57, 0
10, 237480, Note_on_c, 5, 57, 84
10, 237584, Note_on_c, 5, 57, 0
10, 237600, Note_on_c, 5, 57, 84
10, 237704, Note_on_c, 5, 57, 0
10, 237720, Note_on_c, 5, 57, 84
10, 237824, Note_on_c, 5, 57, 0
10, 237840, Note_on_c, 5, 57, 92
10, 237944, Note_on_c, 5, 57, 0
10, 237960, Note_on_c, 5, 57, 84
10, 238064, Note_on_c, 5, 57, 0
10, 238080, Note_on_c, 5, 57, 84
10, 238184, Note_on_c, 5, 57, 0
10, 238200, Note_on_c, 5, 57, 84
10, 238304, Note_on_c, 5, 57, 0
10, 238320, Note_on_c, 5, 57, 84
10, 238424, Note_on_c, 5, 57, 0
10, 238440, Note_on_c, 5, 57, 84
10, 238544, Note_on_c, 5, 57, 0
10, 238560, Note_on_c, 5, 57, 84
10, 238664, Note_on_c, 5, 57, 0
10, 238680, Note_on_c, 5, 57, 84
10, 238784, Note_on_c, 5, 57, 0
10, 238800, Note_on_c, 5, 57, 92
10, 238904, Note_on_c, 5, 57, 0
10, 238920, Note_on_c, 5, 57, 84
10, 239024, Note_on_c, 5, 57, 0
10, 239040, Note_on_c, 5, 57, 84
10, 239144, Note_on_c, 5, 57, 0
10, 239160, Note_on_c, 5, 57, 84
10, 239264, Note_on_c, 5, 57, 0
10, 239280, Note_on_c, 5, 57, 92
10, 239384, Note_on_c, 5, 57, 0
10, 239400, Note_on_c, 5, 57, 84
10, 239504, Note_on_c, 5, 57, 0
10, 239520, Note_on_c, 5, 57, 84
10, 239624, Note_on_c, 5, 57, 0
10, 239640, Note_on_c, 5, 57, 84
10, 239744, Note_on_c, 5, 57, 0
10, 239760, Note_on_c, 5, 57, 92
10, 239864, Note_on_c, 5, 57, 0
10, 239880, Note_on_c, 5, 57, 84
10, 239984, Note_on_c, 5, 57, 0
10, 240000, Note_on_c, 5, 57, 84
10, 240104, Note_on_c, 5, 57, 0
10, 240120, Note_on_c, 5, 57, 84
10, 240224, Note_on_c, 5, 57, 0
10, 240240, Note_on_c, 5, 57, 84
10, 240344, Note_on_c, 5, 57, 0
10, 240360, Note_on_c, 5, 57, 84
10, 240464, Note_on_c, 5, 57, 0
10, 240480, Note_on_c, 5, 57, 84
10, 240584, Note_on_c, 5, 57, 0
10, 240600, Note_on_c, 5, 57, 84
10, 240651, Note_on_c, 5, 57, 0
10, 240660, Note_on_c, 5, 57, 84
10, 240711, Note_on_c, 5, 57, 0
10, 240720, Note_on_c, 5, 57, 84
10, 240839, Note_on_c, 5, 57, 0
10, 241560, Note_on_c, 5, 57, 84
10, 241611, Note_on_c, 5, 57, 0
10, 241620, Note_on_c, 5, 57, 84
10, 241671, Note_on_c, 5, 57, 0
10, 241680, Note_on_c, 5, 57, 84
10, 241799, Note_on_c, 5, 57, 0
10, 242520, Note_on_c, 5, 57, 84
10, 242571, Note_on_c, 5, 57, 0
10, 242580, Note_on_c, 5, 57, 84
10, 242631, Note_on_c, 5, 57, 0
10, 242640, Note_on_c, 5, 57, 84
10, 242759, Note_on_c, 5, 57, 0
10, 243000, Note_on_c, 5, 57, 84
10, 243051, Note_on_c, 5, 57, 0
10, 243060, Note_on_c, 5, 57, 84
10, 243111, Note_on_c, 5, 57, 0
10, 243120, Note_on_c, 5, 57, 84
10, 243239, Note_on_c, 5, 57, 0
10, 243480, Note_on_c, 5, 57, 84
10, 243531, Note_on_c, 5, 57, 0
10, 243540, Note_on_c, 5, 57, 84
10, 243591, Note_on_c, 5, 57, 0
10, 243600, Note_on_c, 5, 57, 84
10, 243719, Note_on_c, 5, 57, 0
10, 243960, Note_on_c, 5, 57, 84
10, 244011, Note_on_c, 5, 57, 0
10, 244020, Note_on_c, 5, 57, 84
10, 244071, Note_on_c, 5, 57, 0
10, 244080, Note_on_c, 5, 57, 84
10, 244199, Note_on_c, 5, 57, 0
10, 248640, Note_on_c, 5, 64, 76
10, 248640, Note_on_c, 5, 52, 76
10, 250199, Note_on_c, 5, 64, 0
10, 250199, Note_on_c, 5, 52, 0
10, 250560, Note_on_c, 5, 52, 76
10, 250560, Note_on_c, 5, 64, 76
10, 251504, Note_on_c, 5, 52, 0
10, 251504, Note_on_c, 5, 64, 0
10, 251520, Note_on_c, 5, 57, 76
10, 251520, Note_on_c, 5, 69, 76
10, 252479, Note_on_c, 5, 57, 0
10, 252479, Note_on_c, 5, 69, 0
10, 263520, Note_on_c, 5, 64, 76
10, 263520, Note_on_c, 5, 52, 76
10, 265424, Note_on_c, 5, 64, 0
10, 265424, Note_on_c, 5, 52, 0
10, 265440, Note_on_c, 5, 64, 78
10, 265440, Note_on_c, 5, 52, 78
10, 266384, Note_on_c, 5, 64, 0
10, 266384, Note_on_c, 5, 52, 0
10, 266400, Note_on_c, 5, 64, 79
10, 266400, Note_on_c, 5, 52, 79
10, 267344, Note_on_c, 5, 64, 0
10, 267344, Note_on_c, 5, 52, 0
10, 267360, Note_on_c, 5, 52, 80
10, 267360, Note_on_c, 5, 64, 80
10, 269279, Note_on_c, 5, 52, 0
10, 269279, Note_on_c, 5, 64, 0
10, 269280, Note_on_c, 5, 64, 82
10, 269280, Note_on_c, 5, 52, 82
10, 271184, Note_on_c, 5, 64, 0
10, 271184, Note_on_c, 5, 52, 0
10, 271200, Note_on_c, 5, 57, 84
10, 271200, Note_on_c, 5, 61, 84
10, 271304, Note_on_c, 5, 57, 0
10, 271304, Note_on_c, 5, 61, 0
10, 271320, Note_on_c, 5, 57, 84
10, 271371, Note_on_c, 5, 57, 0
10, 271380, Note_on_c, 5, 57, 84
10, 271431, Note_on_c, 5, 57, 0
10, 271440, Note_on_c, 5, 57, 84
10, 271559, Note_on_c, 5, 57, 0
10, 271800, Note_on_c, 5, 57, 84
10, 271851, Note_on_c, 5, 57, 0
10, 271860, Note_on_c, 5, 57, 84
10, 271911, Note_on_c, 5, 57, 0
10, 271920, Note_on_c, 5, 57, 84
10, 272039, Note_on_c, 5, 57, 0
10, 272280, Note_on_c, 5, 64, 84
10, 272280, Note_on_c, 5, 52, 84
10, 272331, Note_on_c, 5, 64, 0
10, 272331, Note_on_c, 5, 52, 0
10, 272340, Note_on_c, 5, 64, 84
10, 272340, Note_on_c, 5, 52, 84
10, 272391, Note_on_c, 5, 64, 0
10, 272391, Note_on_c, 5, 52, 0
10, 272400, Note_on_c, 5, 52, 84
10, 272400, Note_on_c, 5, 64, 84
10, 272519, Note_on_c, 5, 52, 0
10, 272519, Note_on_c, 5, 64, 0
10, 272760, Note_on_c, 5, 52, 84
10, 272760, Note_on_c, 5, 64, 84
10, 272811, Note_on_c, 5, 52, 0
10, 272811, Note_on_c, 5, 64, 0
10, 272820, Note_on_c, 5, 52, 84
10, 272820, Note_on_c, 5, 64, 84
10, 272871, Note_on_c, 5, 52, 0
10, 272871, Note_on_c, 5, 64, 0
10, 272880, Note_on_c, 5, 64, 84
10, 272880, Note_on_c, 5, 52, 84
10, 272999, Note_on_c, 5, 64, 0
10, 272999, Note_on_c, 5, 52, 0
10, 273120, Note_on_c, 5, 73, 92
10, 273120, Note_on_c, 5, 69, 92
10, 273464, Note_on_c, 5, 73, 0
10, 273464, Note_on_c, 5, 69, 0
10, 273480, Note_on_c, 5, 64, 84
10, 273480, Note_on_c, 5, 71, 84
10, 273584, Note_on_c, 5, 64, 0
10, 273584, Note_on_c, 5, 71, 0
10, 273600, Note_on_c, 5, 69, 84
10, 273600, Note_on_c, 5, 61, 84
10, 273704, Note_on_c, 5, 69, 0
10, 273704, Note_on_c, 5, 61, 0
10, 273720, Note_on_c, 5, 69, 84
10, 273720, Note_on_c, 5, 73, 84
10, 273824, Note_on_c, 5, 69, 0
10, 273824, Note_on_c, 5, 73, 0
10, 273840, Note_on_c, 5, 64, 84
10, 273840, Note_on_c, 5, 71, 84
10, 273944, Note_on_c, 5, 64, 0
10, 273944, Note_on_c, 5, 71, 0
10, 273960, Note_on_c, 5, 69, 84
10, 273960, Note_on_c, 5, 61, 84
10, 274064, Note_on_c, 5, 69, 0
10, 274064, Note_on_c, 5, 61, 0
10, 274080, Note_on_c, 5, 64, 84
10, 274080, Note_on_c, 5, 71, 84
10, 274184, Note_on_c, 5, 64, 0
10, 274184, Note_on_c, 5, 71, 0
10, 274200, Note_on_c, 5, 76, 84
10, 274200, Note_on_c, 5, 64, 84
10, 274304, Note_on_c, 5, 76, 0
10, 274304, Note_on_c, 5, 64, 0
10, 274320, Note_on_c, 5, 64, 84
10, 274320, Note_on_c, 5, 76, 84
10, 274424, Note_on_c, 5, 64, 0
10, 274424, Note_on_c, 5, 76, 0
10, 274440, Note_on_c, 5, 64, 84
10, 274440, Note_on_c, 5, 76, 84
10, 274544, Note_on_c, 5, 64, 0
10, 274544, Note_on_c, 5, 76, 0
10, 274560, Note_on_c, 5, 76, 84
10, 274560, Note_on_c, 5, 64, 84
10, 274664, Note_on_c, 5, 76, 0
10, 274664, Note_on_c, 5, 64, 0
10, 274680, Note_on_c, 5, 76, 84
10, 274680, Note_on_c, 5, 64, 84
10, 274784, Note_on_c, 5, 76, 0
10, 274784, Note_on_c, 5, 64, 0
10, 274800, Note_on_c, 5, 64, 84
10, 274800, Note_on_c, 5, 76, 84
10, 274904, Note_on_c, 5, 64, 0
10, 274904, Note_on_c, 5, 76, 0
10, 274920, Note_on_c, 5, 76, 84
10, 274920, Note_on_c, 5, 64, 84
10, 275024, Note_on_c, 5, 76, 0
10, 275024, Note_on_c, 5, 64, 0
10, 275040, Note_on_c, 5, 69, 84
10, 275040, Note_on_c, 5, 57, 84
10, 275144, Note_on_c, 5, 69, 0
10, 275144, Note_on_c, 5, 57, 0
10, 275160, Note_on_c, 5, 57, 84
10, 275211, Note_on_c, 5, 57, 0
10, 275220, Note_on_c, 5, 57, 84
10, 275271, Note_on_c, 5, 57, 0
10, 275280, Note_on_c, 5, 57, 84
10, 275399, Note_on_c, 5, 57, 0
10, 275640, Note_on_c, 5, 57, 84
10, 275691, Note_on_c, 5, 57, 0
10, 275700, Note_on_c, 5, 57, 84
10, 275751, Note_on_c, 5, 57, 0
10, 275760, Note_on_c, 5, 57, 84
10, 275879, Note_on_c, 5, 57, 0
10, 276120, Note_on_c, 5, 52, 84
10, 276120, Note_on_c, 5, 64, 84
10, 276171, Note_on_c, 5, 52, 0
10, 276171, Note_on_c, 5, 64, 0
10, 276180, Note_on_c, 5, 52, 84
10, 276180, Note_on_c, 5, 64, 84
10, 276231, Note_on_c, 5, 52, 0
10, 276231, Note_on_c, 5, 64, 0
10, 276240, Note_on_c, 5, 64, 84
10, 276240, Note_on_c, 5, 52, 84
10, 276359, Note_on_c, 5, 64, 0
10, 276359, Note_on_c, 5, 52, 0
10, 276600, Note_on_c, 5, 52, 84
10, 276600, Note_on_c, 5, 64, 84
10, 276651, Note_on_c, 5, 52, 0
10, 276651, Note_on_c, 5, 64, 0
10, 276660, Note_on_c, 5, 52, 84
10, 276660, Note_on_c, 5, 64, 84
10, 276711, Note_on_c, 5, 52, 0
10, 276711, Note_on_c, 5, 64, 0
10, 276720, Note_on_c, 5, 52, 84
10, 276720, Note_on_c, 5, 64, 84
10, 276839, Note_on_c, 5, 52, 0
10, 276839, Note_on_c, 5, 64, 0
10, 276960, Note_on_c, 5, 61, 84
10, 276960, Note_on_c, 5, 69, 84
10, 277079, Note_on_c, 5, 61, 0
10, 277079, Note_on_c, 5, 69, 0
10, 277200, Note_on_c, 5, 61, 84
10, 277200, Note_on_c, 5, 69, 84
10, 277319, Note_on_c, 5, 61, 0
10, 277319, Note_on_c, 5, 69, 0
10, 277440, Note_on_c, 5, 69, 84
10, 277440, Note_on_c, 5, 61, 84
10, 277559, Note_on_c, 5, 69, 0
10, 277559, Note_on_c, 5, 61, 0
10, 277680, Note_on_c, 5, 61, 84
10, 277680, Note_on_c, 5, 69, 84
10, 277799, Note_on_c, 5, 61, 0
10, 277799, Note_on_c, 5, 69, 0
10, 277920, Note_on_c, 5, 64, 84
10, 277920, Note_on_c, 5, 71, 84
10, 278039, Note_on_c, 5, 64, 0
10, 278039, Note_on_c, 5, 71, 0
10, 278160, Note_on_c, 5, 64, 84
10, 278160, Note_on_c, 5, 71, 84
10, 278279, Note_on_c, 5, 64, 0
10, 278279, Note_on_c, 5, 71, 0
10, 278400, Note_on_c, 5, 64, 84
10, 278400, Note_on_c, 5, 71, 84
10, 278519, Note_on_c, 5, 64, 0
10, 278519, Note_on_c, 5, 71, 0
10, 278640, Note_on_c, 5, 71, 84
10, 278640, Note_on_c, 5, 64, 84
10, 278759, Note_on_c, 5, 71, 0
10, 278759, Note_on_c, 5, 64, 0
10, 278880, Note_on_c, 5, 69, 84
10, 278880, Note_on_c, 5, 73, 84
10, 278999, Note_on_c, 5, 69, 0
10, 278999, Note_on_c, 5, 73, 0
10, 279120, Note_on_c, 5, 64, 84
10, 279120, Note_on_c, 5, 52, 84
10, 279239, Note_on_c, 5, 64, 0
10, 279239, Note_on_c, 5, 52, 0
10, 279360, Note_on_c, 5, 52, 84
10, 279360, Note_on_c, 5, 64, 84
10, 279479, Note_on_c, 5, 52, 0
10, 279479, Note_on_c, 5, 64, 0
10, 279600, Note_on_c, 5, 64, 84
10, 279600, Note_on_c, 5, 52, 84
10, 279719, Note_on_c, 5, 64, 0
10, 279719, Note_on_c, 5, 52, 0
10, 279840, Note_on_c, 5, 52, 84
10, 279840, Note_on_c, 5, 64, 84
10, 279959, Note_on_c, 5, 52, 0
10, 279959, Note_on_c, 5, 64, 0
10, 280080, Note_on_c, 5, 52, 84
10, 280080, Note_on_c, 5, 64, 84
10, 280199, Note_on_c, 5, 52, 0
10, 280199, Note_on_c, 5, 64, 0
10, 280320, Note_on_c, 5, 64, 84
10, 280320, Note_on_c, 5, 52, 84
10, 280439, Note_on_c, 5, 64, 0
10, 280439, Note_on_c, 5, 52, 0
10, 280560, Note_on_c, 5, 52, 84
10, 280560, Note_on_c, 5, 64, 84
10, 280679, Note_on_c, 5, 52, 0
10, 280679, Note_on_c, 5, 64, 0
10, 280800, Note_on_c, 5, 52, 84
10, 280800, Note_on_c, 5, 64, 84
10, 280919, Note_on_c, 5, 52, 0
10, 280919, Note_on_c, 5, 64, 0
10, 281040, Note_on_c, 5, 52, 84
10, 281040, Note_on_c, 5, 64, 84
10, 281159, Note_on_c, 5, 52, 0
10, 281159, Note_on_c, 5, 64, 0
10, 281280, Note_on_c, 5, 64, 84
10, 281280, Note_on_c, 5, 52, 84
10, 281399, Note_on_c, 5, 64, 0
10, 281399, Note_on_c, 5, 52, 0
10, 281520, Note_on_c, 5, 52, 84
10, 281520, Note_on_c, 5, 64, 84
10, 281639, Note_on_c, 5, 52, 0
10, 281639, Note_on_c, 5, 64, 0
10, 281760, Note_on_c, 5, 69, 92
10, 282704, Note_on_c, 5, 69, 0
10, 282720, Note_on_c, 5, 69, 92
10, 283664, Note_on_c, 5, 69, 0
10, 283680, Note_on_c, 5, 76, 92
10, 283680, Note_on_c, 5, 69, 92
10, 284129, Note_on_c, 5, 76, 0
10, 284129, Note_on_c, 5, 69, 0
10, 284160, Note_on_c, 5, 69, 92
10, 284160, Note_on_c, 5, 74, 92
10, 284609, Note_on_c, 5, 69, 0
10, 284609, Note_on_c, 5, 74, 0
10, 284640, Note_on_c, 5, 69, 92
10, 284640, Note_on_c, 5, 73, 92
10, 285089, Note_on_c, 5, 69, 0
10, 285089, Note_on_c, 5, 73, 0
10, 285120, Note_on_c, 5, 71, 92
10, 285120, Note_on_c, 5, 64, 92
10, 285569, Note_on_c, 5, 71, 0
10, 285569, Note_on_c, 5, 64, 0
10, 285600, Note_on_c, 5, 64, 52
10, 285600, Note_on_c, 5, 52, 52
10, 285719, Note_on_c, 5, 64, 0
10, 285719, Note_on_c, 5, 52, 0
10, 285840, Note_on_c, 5, 52, 52
10, 285840, Note_on_c, 5, 64, 52
10, 285959, Note_on_c, 5, 52, 0
10, 285959, Note_on_c, 5, 64, 0
10, 286080, Note_on_c, 5, 52, 52
10, 286080, Note_on_c, 5, 64, 52
10, 286199, Note_on_c, 5, 52, 0
10, 286199, Note_on_c, 5, 64, 0
10, 286320, Note_on_c, 5, 64, 54
10, 286320, Note_on_c, 5, 52, 54
10, 286439, Note_on_c, 5, 64, 0
10, 286439, Note_on_c, 5, 52, 0
10, 286560, Note_on_c, 5, 52, 57
10, 286560, Note_on_c, 5, 64, 57
10, 286679, Note_on_c, 5, 52, 0
10, 286679, Note_on_c, 5, 64, 0
10, 286800, Note_on_c, 5, 52, 60
10, 286800, Note_on_c, 5, 64, 60
10, 286919, Note_on_c, 5, 52, 0
10, 286919, Note_on_c, 5, 64, 0
10, 287040, Note_on_c, 5, 52, 63
10, 287040, Note_on_c, 5, 64, 63
10, 287159, Note_on_c, 5, 52, 0
10, 287159, Note_on_c, 5, 64, 0
10, 287280, Note_on_c, 5, 52, 66
10, 287280, Note_on_c, 5, 64, 66
10, 287399, Note_on_c, 5, 52, 0
10, 287399, Note_on_c, 5, 64, 0
10, 287520, Note_on_c, 5, 64, 69
10, 287520, Note_on_c, 5, 52, 69
10, 287639, Note_on_c, 5, 64, 0
10, 287639, Note_on_c, 5, 52, 0
10, 287760, Note_on_c, 5, 52, 72
10, 287760, Note_on_c, 5, 64, 72
10, 287879, Note_on_c, 5, 52, 0
10, 287879, Note_on_c, 5, 64, 0
10, 288000, Note_on_c, 5, 52, 74
10, 288000, Note_on_c, 5, 64, 74
10, 288119, Note_on_c, 5, 52, 0
10, 288119, Note_on_c, 5, 64, 0
10, 288240, Note_on_c, 5, 52, 77
10, 288240, Note_on_c, 5, 64, 77
10, 288359, Note_on_c, 5, 52, 0
10, 288359, Note_on_c, 5, 64, 0
10, 288480, Note_on_c, 5, 52, 80
10, 288480, Note_on_c, 5, 64, 80
10, 288599, Note_on_c, 5, 52, 0
10, 288599, Note_on_c, 5, 64, 0
10, 288720, Note_on_c, 5, 52, 83
10, 288720, Note_on_c, 5, 64, 83
10, 288839, Note_on_c, 5, 52, 0
10, 288839, Note_on_c, 5, 64, 0
10, 288960, Note_on_c, 5, 64, 86
10, 288960, Note_on_c, 5, 52, 86
10, 289079, Note_on_c, 5, 64, 0
10, 289079, Note_on_c, 5, 52, 0
10, 289200, Note_on_c, 5, 52, 89
10, 289200, Note_on_c, 5, 64, 89
10, 289319, Note_on_c, 5, 52, 0
10, 289319, Note_on_c, 5, 64, 0
10, 289440, Note_on_c, 5, 69, 92
10, 289440, Note_on_c, 5, 57, 92
10, 290384, Note_on_c, 5, 69, 0
10, 290384, Note_on_c, 5, 57, 0
10, 290400, Note_on_c, 5, 57, 92
10, 290400, Note_on_c, 5, 69, 92
10, 291344, Note_on_c, 5, 57, 0
10, 291344, Note_on_c, 5, 69, 0
10, 291360, Note_on_c, 5, 76, 92
10, 291360, Note_on_c, 5, 69, 92
10, 291809, Note_on_c, 5, 76, 0
10, 291809, Note_on_c, 5, 69, 0
10, 291840, Note_on_c, 5, 69, 92
10, 291840, Note_on_c, 5, 74, 92
10, 292289, Note_on_c, 5, 69, 0
10, 292289, Note_on_c, 5, 74, 0
10, 292320, Note_on_c, 5, 73, 92
10, 292320, Note_on_c, 5, 69, 92
10, 292769, Note_on_c, 5, 73, 0
10, 292769, Note_on_c, 5, 69, 0
10, 292800, Note_on_c, 5, 71, 92
10, 292800, Note_on_c, 5, 64, 92
10, 293249, Note_on_c, 5, 71, 0
10, 293249, Note_on_c, 5, 64, 0
10, 293280, Note_on_c, 5, 61, 84
10, 293280, Note_on_c, 5, 69, 84
10, 293399, Note_on_c, 5, 61, 0
10, 293399, Note_on_c, 5, 69, 0
10, 293760, Note_on_c, 5, 64, 92
10, 293760, Note_on_c, 5, 76, 92
10, 293999, Note_on_c, 5, 64, 0
10, 293999, Note_on_c, 5, 76, 0
10, 294000, Note_on_c, 5, 74, 84
10, 294000, Note_on_c, 5, 71, 84
10, 294239, Note_on_c, 5, 74, 0
10, 294239, Note_on_c, 5, 71, 0
10, 294240, Note_on_c, 5, 69, 84
10, 294240, Note_on_c, 5, 73, 84
10, 294479, Note_on_c, 5, 69, 0
10, 294479, Note_on_c, 5, 73, 0
10, 294480, Note_on_c, 5, 71, 84
10, 294480, Note_on_c, 5, 64, 84
10, 294719, Note_on_c, 5, 71, 0
10, 294719, Note_on_c, 5, 64, 0
10, 294720, Note_on_c, 5, 69, 84
10, 294720, Note_on_c, 5, 61, 84
10, 294959, Note_on_c, 5, 69, 0
10, 294959, Note_on_c, 5, 61, 0
10, 294960, Note_on_c, 5, 71, 84
10, 294960, Note_on_c, 5, 64, 84
10, 295199, Note_on_c, 5, 71, 0
10, 295199, Note_on_c, 5, 64, 0
10, 295200, Note_on_c, 5, 69, 84
10, 295200, Note_on_c, 5, 73, 84
10, 295319, Note_on_c, 5, 69, 0
10, 295319, Note_on_c, 5, 73, 0
10, 295680, Note_on_c, 5, 64, 92
10, 295680, Note_on_c, 5, 76, 92
10, 295919, Note_on_c, 5, 64, 0
10, 295919, Note_on_c, 5, 76, 0
10, 295920, Note_on_c, 5, 71, 84
10, 295920, Note_on_c, 5, 74, 84
10, 296159, Note_on_c, 5, 71, 0
10, 296159, Note_on_c, 5, 74, 0
10, 296160, Note_on_c, 5, 69, 84
10, 296160, Note_on_c, 5, 73, 84
10, 296399, Note_on_c, 5, 69, 0
10, 296399, Note_on_c, 5, 73, 0
10, 296400, Note_on_c, 5, 71, 84
10, 296400, Note_on_c, 5, 64, 84
10, 296639, Note_on_c, 5, 71, 0
10, 296639, Note_on_c, 5, 64, 0
10, 296640, Note_on_c, 5, 61, 84
10, 296640, Note_on_c, 5, 69, 84
10, 296879, Note_on_c, 5, 61, 0
10, 296879, Note_on_c, 5, 69, 0
10, 296880, Note_on_c, 5, 64, 84
10, 296880, Note_on_c, 5, 71, 84
10, 297104, Note_on_c, 5, 64, 0
10, 297104, Note_on_c, 5, 71, 0
10, 297120, Note_on_c, 5, 71, 84
10, 297120, Note_on_c, 5, 64, 84
10, 297224, Note_on_c, 5, 71, 0
10, 297224, Note_on_c, 5, 64, 0
10, 297240, Note_on_c, 5, 71, 84
10, 297240, Note_on_c, 5, 64, 84
10, 297344, Note_on_c, 5, 71, 0
10, 297344, Note_on_c, 5, 64, 0
10, 297360, Note_on_c, 5, 71, 92
10, 297360, Note_on_c, 5, 64, 92
10, 297464, Note_on_c, 5, 71, 0
10, 297464, Note_on_c, 5, 64, 0
10, 297480, Note_on_c, 5, 64, 84
10, 297480, Note_on_c, 5, 71, 84
10, 297584, Note_on_c, 5, 64, 0
10, 297584, Note_on_c, 5, 71, 0
10, 297600, Note_on_c, 5, 64, 92
10, 297600, Note_on_c, 5, 71, 92
10, 297704, Note_on_c, 5, 64, 0
10, 297704, Note_on_c, 5, 71, 0
10, 297720, Note_on_c, 5, 71, 84
10, 297720, Note_on_c, 5, 64, 84
10, 297824, Note_on_c, 5, 71, 0
10, 297824, Note_on_c, 5, 64, 0
10, 297840, Note_on_c, 5, 71, 92
10, 297840, Note_on_c, 5, 64, 92
10, 297944, Note_on_c, 5, 71, 0
10, 297944, Note_on_c, 5, 64, 0
10, 297960, Note_on_c, 5, 71, 84
10, 297960, Note_on_c, 5, 64, 84
10, 298064, Note_on_c, 5, 71, 0
10, 298064, Note_on_c, 5, 64, 0
10, 298080, Note_on_c, 5, 64, 84
10, 298080, Note_on_c, 5, 71, 84
10, 298184, Note_on_c, 5, 64, 0
10, 298184, Note_on_c, 5, 71, 0
10, 298200, Note_on_c, 5, 64, 84
10, 298200, Note_on_c, 5, 71, 84
10, 298304, Note_on_c, 5, 64, 0
10, 298304, Note_on_c, 5, 71, 0
10, 298320, Note_on_c, 5, 64, 84
10, 298320, Note_on_c, 5, 71, 84
10, 298424, Note_on_c, 5, 64, 0
10, 298424, Note_on_c, 5, 71, 0
10, 298440, Note_on_c, 5, 71, 84
10, 298440, Note_on_c, 5, 64, 84
10, 298544, Note_on_c, 5, 71, 0
10, 298544, Note_on_c, 5, 64, 0
10, 298560, Note_on_c, 5, 64, 84
10, 298560, Note_on_c, 5, 71, 84
10, 298664, Note_on_c, 5, 64, 0
10, 298664, Note_on_c, 5, 71, 0
10, 298680, Note_on_c, 5, 71, 84
10, 298680, Note_on_c, 5, 64, 84
10, 298784, Note_on_c, 5, 71, 0
10, 298784, Note_on_c, 5, 64, 0
10, 298800, Note_on_c, 5, 64, 84
10, 298800, Note_on_c, 5, 71, 84
10, 298904, Note_on_c, 5, 64, 0
10, 298904, Note_on_c, 5, 71, 0
10, 298920, Note_on_c, 5, 64, 84
10, 298920, Note_on_c, 5, 71, 84
10, 299024, Note_on_c, 5, 64, 0
10, 299024, Note_on_c, 5, 71, 0
10, 299040, Note_on_c, 5, 61, 84
10, 299040, Note_on_c, 5, 69, 84
10, 299159, Note_on_c, 5, 61, 0
10, 299159, Note_on_c, 5, 69, 0
10, 299400, Note_on_c, 5, 69, 84
10, 299400, Note_on_c, 5, 61, 84
10, 299451, Note_on_c, 5, 69, 0
10, 299451, Note_on_c, 5, 61, 0
10, 299460, Note_on_c, 5, 69, 84
10, 299460, Note_on_c, 5, 61, 84
10, 299511, Note_on_c, 5, 69, 0
10, 299511, Note_on_c, 5, 61, 0
10, 299520, Note_on_c, 5, 61, 84
10, 299520, Note_on_c, 5, 69, 84
10, 299639, Note_on_c, 5, 61, 0
10, 299639, Note_on_c, 5, 69, 0
10, 299880, Note_on_c, 5, 69, 84
10, 299880, Note_on_c, 5, 61, 84
10, 299931, Note_on_c, 5, 69, 0
10, 299931, Note_on_c, 5, 61, 0
10, 299940, Note_on_c, 5, 69, 84
10, 299940, Note_on_c, 5, 61, 84
10, 299991, Note_on_c, 5, 69, 0
10, 299991, Note_on_c, 5, 61, 0
10, 300000, Note_on_c, 5, 61, 84
10, 300000, Note_on_c, 5, 69, 84
10, 300119, Note_on_c, 5, 61, 0
10, 300119, Note_on_c, 5, 69, 0
10, 300119, End_track
11, 0, Start_track
11, 0, Title_t, "Trumpet in D"
11, 0, MIDI_port, 0
11, 0, Program_c, 6, 56
11, 0, Control_c, 6, 7, 112
11, 0, Control_c, 6, 10, 60
11, 0, Control_c, 6, 11, 127
11, 120, Note_on_c, 6, 76, 84
11, 171, Note_on_c, 6, 76, 0
11, 180, Note_on_c, 6, 76, 84
11, 231, Note_on_c, 6, 76, 0
11, 240, Note_on_c, 6, 76, 84
11, 359, Note_on_c, 6, 76, 0
11, 1080, Note_on_c, 6, 76, 84
11, 1131, Note_on_c, 6, 76, 0
11, 1140, Note_on_c, 6, 76, 84
11, 1191, Note_on_c, 6, 76, 0
11, 1200, Note_on_c, 6, 76, 84
11, 1319, Note_on_c, 6, 76, 0
11, 1920, Note_on_c, 6, 76, 84
11, 2039, Note_on_c, 6, 76, 0
11, 2160, Note_on_c, 6, 76, 92
11, 2519, Note_on_c, 6, 76, 0
11, 2640, Note_on_c, 6, 76, 92
11, 2999, Note_on_c, 6, 76, 0
11, 3120, Note_on_c, 6, 76, 92
11, 3479, Note_on_c, 6, 76, 0
11, 3600, Note_on_c, 6, 76, 92
11, 3959, Note_on_c, 6, 76, 0
11, 4080, Note_on_c, 6, 76, 92
11, 4439, Note_on_c, 6, 76, 0
11, 4560, Note_on_c, 6, 76, 92
11, 4919, Note_on_c, 6, 76, 0
11, 5040, Note_on_c, 6, 76, 92
11, 5279, Note_on_c, 6, 76, 0
11, 5280, Note_on_c, 6, 69, 84
11, 5384, Note_on_c, 6, 69, 0
11, 5400, Note_on_c, 6, 69, 84
11, 5451, Note_on_c, 6, 69, 0
11, 5460, Note_on_c, 6, 69, 84
11, 5511, Note_on_c, 6, 69, 0
11, 5520, Note_on_c, 6, 69, 84
11, 5639, Note_on_c, 6, 69, 0
11, 5760, Note_on_c, 6, 76, 84
11, 5879, Note_on_c, 6, 76, 0
11, 6000, Note_on_c, 6, 76, 92
11, 6359, Note_on_c, 6, 76, 0
11, 6480, Note_on_c, 6, 76, 92
11, 6839, Note_on_c, 6, 76, 0
11, 6960, Note_on_c, 6, 76, 92
11, 7319, Note_on_c, 6, 76, 0
11, 7440, Note_on_c, 6, 76, 92
11, 7799, Note_on_c, 6, 76, 0
11, 7920, Note_on_c, 6, 76, 92
11, 8279, Note_on_c, 6, 76, 0
11, 8400, Note_on_c, 6, 76, 92
11, 8759, Note_on_c, 6, 76, 0
11, 8880, Note_on_c, 6, 76, 92
11, 9119, Note_on_c, 6, 76, 0
11, 9120, Note_on_c, 6, 69, 84
11, 9224, Note_on_c, 6, 69, 0
11, 9240, Note_on_c, 6, 69, 84
11, 9291, Note_on_c, 6, 69, 0
11, 9300, Note_on_c, 6, 69, 84
11, 9351, Note_on_c, 6, 69, 0
11, 9360, Note_on_c, 6, 69, 84
11, 9479, Note_on_c, 6, 69, 0
11, 9600, Note_on_c, 6, 69, 84
11, 9719, Note_on_c, 6, 69, 0
11, 9840, Note_on_c, 6, 69, 92
11, 10199, Note_on_c, 6, 69, 0
11, 10320, Note_on_c, 6, 69, 92
11, 10679, Note_on_c, 6, 69, 0
11, 10800, Note_on_c, 6, 69, 92
11, 11159, Note_on_c, 6, 69, 0
11, 11760, Note_on_c, 6, 76, 92
11, 12119, Note_on_c, 6, 76, 0
11, 12240, Note_on_c, 6, 76, 92
11, 12599, Note_on_c, 6, 76, 0
11, 12720, Note_on_c, 6, 76, 92
11, 12959, Note_on_c, 6, 76, 0
11, 12960, Note_on_c, 6, 69, 84
11, 13064, Note_on_c, 6, 69, 0
11, 13080, Note_on_c, 6, 69, 84
11, 13131, Note_on_c, 6, 69, 0
11, 13140, Note_on_c, 6, 69, 84
11, 13191, Note_on_c, 6, 69, 0
11, 13200, Note_on_c, 6, 69, 84
11, 13319, Note_on_c, 6, 69, 0
11, 13440, Note_on_c, 6, 69, 84
11, 13559, Note_on_c, 6, 69, 0
11, 13680, Note_on_c, 6, 69, 92
11, 14039, Note_on_c, 6, 69, 0
11, 14160, Note_on_c, 6, 69, 92
11, 14519, Note_on_c, 6, 69, 0
11, 14640, Note_on_c, 6, 69, 92
11, 14999, Note_on_c, 6, 69, 0
11, 15600, Note_on_c, 6, 76, 92
11, 15959, Note_on_c, 6, 76, 0
11, 16080, Note_on_c, 6, 76, 92
11, 16439, Note_on_c, 6, 76, 0
11, 16560, Note_on_c, 6, 76, 92
11, 16799, Note_on_c, 6, 76, 0
11, 16800, Note_on_c, 6, 69, 84
11, 16904, Note_on_c, 6, 69, 0
11, 16920, Note_on_c, 6, 69, 84
11, 16971, Note_on_c, 6, 69, 0
11, 16980, Note_on_c, 6, 69, 84
11, 17031, Note_on_c, 6, 69, 0
11, 17040, Note_on_c, 6, 69, 84
11, 17159, Note_on_c, 6, 69, 0
11, 17400, Note_on_c, 6, 69, 84
11, 17451, Note_on_c, 6, 69, 0
11, 17460, Note_on_c, 6, 69, 84
11, 17511, Note_on_c, 6, 69, 0
11, 17520, Note_on_c, 6, 69, 84
11, 17639, Note_on_c, 6, 69, 0
11, 17880, Note_on_c, 6, 76, 84
11, 17931, Note_on_c, 6, 76, 0
11, 17940, Note_on_c, 6, 76, 84
11, 17991, Note_on_c, 6, 76, 0
11, 18000, Note_on_c, 6, 76, 84
11, 18119, Note_on_c, 6, 76, 0
11, 18360, Note_on_c, 6, 76, 84
11, 18411, Note_on_c, 6, 76, 0
11, 18420, Note_on_c, 6, 76, 84
11, 18471, Note_on_c, 6, 76, 0
11, 18480, Note_on_c, 6, 76, 84
11, 18599, Note_on_c, 6, 76, 0
11, 18720, Note_on_c, 6, 69, 84
11, 18720, Note_on_c, 6, 57, 84
11, 18839, Note_on_c, 6, 69, 0
11, 18839, Note_on_c, 6, 57, 0
11, 18960, Note_on_c, 6, 57, 84
11, 18960, Note_on_c, 6, 69, 84
11, 19079, Note_on_c, 6, 57, 0
11, 19079, Note_on_c, 6, 69, 0
11, 19200, Note_on_c, 6, 69, 84
11, 19200, Note_on_c, 6, 57, 84
11, 19319, Note_on_c, 6, 69, 0
11, 19319, Note_on_c, 6, 57, 0
11, 19440, Note_on_c, 6, 57, 84
11, 19440, Note_on_c, 6, 69, 84
11, 19559, Note_on_c, 6, 57, 0
11, 19559, Note_on_c, 6, 69, 0
11, 19680, Note_on_c, 6, 76, 84
11, 19799, Note_on_c, 6, 76, 0
11, 19920, Note_on_c, 6, 76, 84
11, 20039, Note_on_c, 6, 76, 0
11, 20160, Note_on_c, 6, 76, 84
11, 20279, Note_on_c, 6, 76, 0
11, 20400, Note_on_c, 6, 76, 84
11, 20519, Note_on_c, 6, 76, 0
11, 20640, Note_on_c, 6, 69, 84
11, 20744, Note_on_c, 6, 69, 0
11, 20760, Note_on_c, 6, 69, 84
11, 20811, Note_on_c, 6, 69, 0
11, 20820, Note_on_c, 6, 69, 84
11, 20871, Note_on_c, 6, 69, 0
11, 20880, Note_on_c, 6, 69, 84
11, 20999, Note_on_c, 6, 69, 0
11, 21240, Note_on_c, 6, 69, 84
11, 21291, Note_on_c, 6, 69, 0
11, 21300, Note_on_c, 6, 69, 84
11, 21351, Note_on_c, 6, 69, 0
11, 21360, Note_on_c, 6, 69, 84
11, 21479, Note_on_c, 6, 69, 0
11, 21720, Note_on_c, 6, 76, 84
11, 21771, Note_on_c, 6, 76, 0
11, 21780, Note_on_c, 6, 76, 84
11, 21831, Note_on_c, 6, 76, 0
11, 21840, Note_on_c, 6, 76, 84
11, 21959, Note_on_c, 6, 76, 0
11, 22200, Note_on_c, 6, 76, 84
11, 22251, Note_on_c, 6, 76, 0
11, 22260, Note_on_c, 6, 76, 84
11, 22311, Note_on_c, 6, 76, 0
11, 22320, Note_on_c, 6, 76, 84
11, 22439, Note_on_c, 6, 76, 0
11, 22560, Note_on_c, 6, 69, 84
11, 22560, Note_on_c, 6, 57, 84
11, 22679, Note_on_c, 6, 69, 0
11, 22679, Note_on_c, 6, 57, 0
11, 22800, Note_on_c, 6, 57, 84
11, 22800, Note_on_c, 6, 69, 84
11, 22919, Note_on_c, 6, 57, 0
11, 22919, Note_on_c, 6, 69, 0
11, 23040, Note_on_c, 6, 69, 84
11, 23040, Note_on_c, 6, 57, 84
11, 23159, Note_on_c, 6, 69, 0
11, 23159, Note_on_c, 6, 57, 0
11, 23280, Note_on_c, 6, 69, 84
11, 23280, Note_on_c, 6, 57, 84
11, 23399, Note_on_c, 6, 69, 0
11, 23399, Note_on_c, 6, 57, 0
11, 23520, Note_on_c, 6, 76, 84
11, 23639, Note_on_c, 6, 76, 0
11, 23760, Note_on_c, 6, 76, 84
11, 23879, Note_on_c, 6, 76, 0
11, 24000, Note_on_c, 6, 76, 84
11, 24119, Note_on_c, 6, 76, 0
11, 24240, Note_on_c, 6, 76, 84
11, 24359, Note_on_c, 6, 76, 0
11, 24480, Note_on_c, 6, 57, 84
11, 24480, Note_on_c, 6, 69, 84
11, 24599, Note_on_c, 6, 57, 0
11, 24599, Note_on_c, 6, 69, 0
11, 25200, Note_on_c, 6, 76, 84
11, 25319, Note_on_c, 6, 76, 0
11, 25440, Note_on_c, 6, 69, 84
11, 25440, Note_on_c, 6, 57, 84
11, 25559, Note_on_c, 6, 69, 0
11, 25559, Note_on_c, 6, 57, 0
11, 25680, Note_on_c, 6, 76, 84
11, 25799, Note_on_c, 6, 76, 0
11, 25920, Note_on_c, 6, 57, 84
11, 25920, Note_on_c, 6, 69, 84
11, 26039, Note_on_c, 6, 57, 0
11, 26039, Note_on_c, 6, 69, 0
11, 26160, Note_on_c, 6, 76, 84
11, 26279, Note_on_c, 6, 76, 0
11, 26400, Note_on_c, 6, 69, 84
11, 26400, Note_on_c, 6, 57, 84
11, 26519, Note_on_c, 6, 69, 0
11, 26519, Note_on_c, 6, 57, 0
11, 27120, Note_on_c, 6, 76, 84
11, 27239, Note_on_c, 6, 76, 0
11, 27360, Note_on_c, 6, 69, 84
11, 27360, Note_on_c, 6, 57, 84
11, 27479, Note_on_c, 6, 69, 0
11, 27479, Note_on_c, 6, 57, 0
11, 27600, Note_on_c, 6, 76, 84
11, 27719, Note_on_c, 6, 76, 0
11, 27840, Note_on_c, 6, 69, 84
11, 27840, Note_on_c, 6, 57, 84
11, 27959, Note_on_c, 6, 69, 0
11, 27959, Note_on_c, 6, 57, 0
11, 32160, Note_on_c, 6, 69, 84
11, 32160, Note_on_c, 6, 57, 84
11, 32279, Note_on_c, 6, 69, 0
11, 32279, Note_on_c, 6, 57, 0
11, 32400, Note_on_c, 6, 57, 84
11, 32400, Note_on_c, 6, 69, 84
11, 32519, Note_on_c, 6, 57, 0
11, 32519, Note_on_c, 6, 69, 0
11, 32640, Note_on_c, 6, 57, 84
11, 32640, Note_on_c, 6, 69, 84
11, 32759, Note_on_c, 6, 57, 0
11, 32759, Note_on_c, 6, 69, 0
11, 32880, Note_on_c, 6, 57, 84
11, 32880, Note_on_c, 6, 69, 84
11, 32999, Note_on_c, 6, 57, 0
11, 32999, Note_on_c, 6, 69, 0
11, 34080, Note_on_c, 6, 57, 84
11, 34080, Note_on_c, 6, 69, 84
11, 34199, Note_on_c, 6, 57, 0
11, 34199, Note_on_c, 6, 69, 0
11, 34320, Note_on_c, 6, 69, 84
11, 34320, Note_on_c, 6, 57, 84
11, 34439, Note_on_c, 6, 69, 0
11, 34439, Note_on_c, 6, 57, 0
11, 34560, Note_on_c, 6, 78, 84
11, 34560, Note_on_c, 6, 66, 84
11, 34679, Note_on_c, 6, 78, 0
11, 34679, Note_on_c, 6, 66, 0
11, 34800, Note_on_c, 6, 78, 84
11, 34800, Note_on_c, 6, 66, 84
11, 34919, Note_on_c, 6, 78, 0
11, 34919, Note_on_c, 6, 66, 0
11, 35040, Note_on_c, 6, 78, 84
11, 35040, Note_on_c, 6, 66, 84
11, 35159, Note_on_c, 6, 78, 0
11, 35159, Note_on_c, 6, 66, 0
11, 35280, Note_on_c, 6, 78, 84
11, 35280, Note_on_c, 6, 66, 84
11, 35399, Note_on_c, 6, 78, 0
11, 35399, Note_on_c, 6, 66, 0
11, 35520, Note_on_c, 6, 66, 84
11, 35520, Note_on_c, 6, 78, 84
11, 35639, Note_on_c, 6, 66, 0
11, 35639, Note_on_c, 6, 78, 0
11, 35760, Note_on_c, 6, 78, 84
11, 35760, Note_on_c, 6, 66, 84
11, 35879, Note_on_c, 6, 78, 0
11, 35879, Note_on_c, 6, 66, 0
11, 36000, Note_on_c, 6, 66, 84
11, 36000, Note_on_c, 6, 78, 84
11, 36119, Note_on_c, 6, 66, 0
11, 36119, Note_on_c, 6, 78, 0
11, 36240, Note_on_c, 6, 78, 84
11, 36240, Note_on_c, 6, 66, 84
11, 36359, Note_on_c, 6, 78, 0
11, 36359, Note_on_c, 6, 66, 0
11, 36480, Note_on_c, 6, 78, 84
11, 36480, Note_on_c, 6, 66, 84
11, 36599, Note_on_c, 6, 78, 0
11, 36599, Note_on_c, 6, 66, 0
11, 36720, Note_on_c, 6, 66, 84
11, 36720, Note_on_c, 6, 78, 84
11, 36839, Note_on_c, 6, 66, 0
11, 36839, Note_on_c, 6, 78, 0
11, 36960, Note_on_c, 6, 66, 84
11, 36960, Note_on_c, 6, 78, 84
11, 37079, Note_on_c, 6, 66, 0
11, 37079, Note_on_c, 6, 78, 0
11, 37200, Note_on_c, 6, 66, 76
11, 37319, Note_on_c, 6, 66, 0
11, 39120, Note_on_c, 6, 66, 76
11, 39239, Note_on_c, 6, 66, 0
11, 42960, Note_on_c, 6, 76, 76
11, 43199, Note_on_c, 6, 76, 0
11, 43920, Note_on_c, 6, 76, 76
11, 44159, Note_on_c, 6, 76, 0
11, 45120, Note_on_c, 6, 69, 52
11, 45120, Note_on_c, 6, 57, 52
11, 45344, Note_on_c, 6, 69, 0
11, 45344, Note_on_c, 6, 57, 0
11, 45360, Note_on_c, 6, 57, 52
11, 45360, Note_on_c, 6, 69, 52
11, 45584, Note_on_c, 6, 57, 0
11, 45584, Note_on_c, 6, 69, 0
11, 45600, Note_on_c, 6, 69, 52
11, 45600, Note_on_c, 6, 62, 52
11, 45824, Note_on_c, 6, 69, 0
11, 45824, Note_on_c, 6, 62, 0
11, 45840, Note_on_c, 6, 69, 52
11, 45840, Note_on_c, 6, 62, 52
11, 46064, Note_on_c, 6, 69, 0
11, 46064, Note_on_c, 6, 62, 0
11, 46080, Note_on_c, 6, 57, 52
11, 46080, Note_on_c, 6, 69, 52
11, 46304, Note_on_c, 6, 57, 0
11, 46304, Note_on_c, 6, 69, 0
11, 46320, Note_on_c, 6, 57, 52
11, 46320, Note_on_c, 6, 69, 52
11, 46544, Note_on_c, 6, 57, 0
11, 46544, Note_on_c, 6, 69, 0
11, 46560, Note_on_c, 6, 62, 52
11, 46560, Note_on_c, 6, 69, 52
11, 46784, Note_on_c, 6, 62, 0
11, 46784, Note_on_c, 6, 69, 0
11, 46800, Note_on_c, 6, 69, 52
11, 46800, Note_on_c, 6, 62, 52
11, 47039, Note_on_c, 6, 69, 0
11, 47039, Note_on_c, 6, 62, 0
11, 47760, Note_on_c, 6, 76, 76
11, 47999, Note_on_c, 6, 76, 0
11, 48720, Note_on_c, 6, 76, 76
11, 48959, Note_on_c, 6, 76, 0
11, 49920, Note_on_c, 6, 69, 52
11, 49920, Note_on_c, 6, 57, 52
11, 50144, Note_on_c, 6, 69, 0
11, 50144, Note_on_c, 6, 57, 0
11, 50160, Note_on_c, 6, 57, 52
11, 50160, Note_on_c, 6, 69, 52
11, 50384, Note_on_c, 6, 57, 0
11, 50384, Note_on_c, 6, 69, 0
11, 50400, Note_on_c, 6, 62, 52
11, 50400, Note_on_c, 6, 69, 52
11, 50624, Note_on_c, 6, 62, 0
11, 50624, Note_on_c, 6, 69, 0
11, 50640, Note_on_c, 6, 62, 52
11, 50640, Note_on_c, 6, 69, 52
11, 50864, Note_on_c, 6, 62, 0
11, 50864, Note_on_c, 6, 69, 0
11, 50880, Note_on_c, 6, 69, 52
11, 50880, Note_on_c, 6, 57, 52
11, 51104, Note_on_c, 6, 69, 0
11, 51104, Note_on_c, 6, 57, 0
11, 51120, Note_on_c, 6, 57, 52
11, 51120, Note_on_c, 6, 69, 52
11, 51344, Note_on_c, 6, 57, 0
11, 51344, Note_on_c, 6, 69, 0
11, 57120, Note_on_c, 6, 81, 84
11, 57120, Note_on_c, 6, 69, 84
11, 57224, Note_on_c, 6, 81, 0
11, 57224, Note_on_c, 6, 69, 0
11, 57240, Note_on_c, 6, 69, 84
11, 57240, Note_on_c, 6, 81, 84
11, 57344, Note_on_c, 6, 69, 0
11, 57344, Note_on_c, 6, 81, 0
11, 57360, Note_on_c, 6, 69, 84
11, 57360, Note_on_c, 6, 81, 84
11, 57464, Note_on_c, 6, 69, 0
11, 57464, Note_on_c, 6, 81, 0
11, 57480, Note_on_c, 6, 81, 84
11, 57480, Note_on_c, 6, 69, 84
11, 57584, Note_on_c, 6, 81, 0
11, 57584, Note_on_c, 6, 69, 0
11, 57600, Note_on_c, 6, 81, 84
11, 57600, Note_on_c, 6, 69, 84
11, 57704, Note_on_c, 6, 81, 0
11, 57704, Note_on_c, 6, 69, 0
11, 57720, Note_on_c, 6, 81, 84
11, 57720, Note_on_c, 6, 69, 84
11, 57824, Note_on_c, 6, 81, 0
11, 57824, Note_on_c, 6, 69, 0
11, 57840, Note_on_c, 6, 69, 84
11, 57840, Note_on_c, 6, 81, 84
11, 57944, Note_on_c, 6, 69, 0
11, 57944, Note_on_c, 6, 81, 0
11, 57960, Note_on_c, 6, 81, 84
11, 57960, Note_on_c, 6, 69, 84
11, 58064, Note_on_c, 6, 81, 0
11, 58064, Note_on_c, 6, 69, 0
11, 58080, Note_on_c, 6, 76, 92
11, 58184, Note_on_c, 6, 76, 0
11, 58200, Note_on_c, 6, 76, 84
11, 58304, Note_on_c, 6, 76, 0
11, 58320, Note_on_c, 6, 76, 84
11, 58424, Note_on_c, 6, 76, 0
11, 58440, Note_on_c, 6, 76, 84
11, 58544, Note_on_c, 6, 76, 0
11, 58560, Note_on_c, 6, 81, 92
11, 58560, Note_on_c, 6, 69, 92
11, 58664, Note_on_c, 6, 81, 0
11, 58664, Note_on_c, 6, 69, 0
11, 58680, Note_on_c, 6, 81, 84
11, 58680, Note_on_c, 6, 69, 84
11, 58784, Note_on_c, 6, 81, 0
11, 58784, Note_on_c, 6, 69, 0
11, 58800, Note_on_c, 6, 81, 84
11, 58800, Note_on_c, 6, 69, 84
11, 58904, Note_on_c, 6, 81, 0
11, 58904, Note_on_c, 6, 69, 0
11, 58920, Note_on_c, 6, 81, 84
11, 58920, Note_on_c, 6, 69, 84
11, 59024, Note_on_c, 6, 81, 0
11, 59024, Note_on_c, 6, 69, 0
11, 59040, Note_on_c, 6, 76, 92
11, 59144, Note_on_c, 6, 76, 0
11, 59160, Note_on_c, 6, 76, 84
11, 59264, Note_on_c, 6, 76, 0
11, 59280, Note_on_c, 6, 76, 84
11, 59384, Note_on_c, 6, 76, 0
11, 59400, Note_on_c, 6, 76, 84
11, 59504, Note_on_c, 6, 76, 0
11, 59520, Note_on_c, 6, 69, 92
11, 59520, Note_on_c, 6, 81, 92
11, 59624, Note_on_c, 6, 69, 0
11, 59624, Note_on_c, 6, 81, 0
11, 59640, Note_on_c, 6, 81, 84
11, 59640, Note_on_c, 6, 69, 84
11, 59744, Note_on_c, 6, 81, 0
11, 59744, Note_on_c, 6, 69, 0
11, 59760, Note_on_c, 6, 81, 84
11, 59760, Note_on_c, 6, 69, 84
11, 59864, Note_on_c, 6, 81, 0
11, 59864, Note_on_c, 6, 69, 0
11, 59880, Note_on_c, 6, 69, 84
11, 59880, Note_on_c, 6, 81, 84
11, 59984, Note_on_c, 6, 69, 0
11, 59984, Note_on_c, 6, 81, 0
11, 60000, Note_on_c, 6, 76, 92
11, 60104, Note_on_c, 6, 76, 0
11, 60120, Note_on_c, 6, 76, 84
11, 60224, Note_on_c, 6, 76, 0
11, 60240, Note_on_c, 6, 76, 84
11, 60344, Note_on_c, 6, 76, 0
11, 60360, Note_on_c, 6, 76, 84
11, 60464, Note_on_c, 6, 76, 0
11, 60480, Note_on_c, 6, 69, 92
11, 60480, Note_on_c, 6, 81, 92
11, 60584, Note_on_c, 6, 69, 0
11, 60584, Note_on_c, 6, 81, 0
11, 60600, Note_on_c, 6, 69, 84
11, 60600, Note_on_c, 6, 81, 84
11, 60704, Note_on_c, 6, 69, 0
11, 60704, Note_on_c, 6, 81, 0
11, 60720, Note_on_c, 6, 81, 84
11, 60720, Note_on_c, 6, 69, 84
11, 60824, Note_on_c, 6, 81, 0
11, 60824, Note_on_c, 6, 69, 0
11, 60840, Note_on_c, 6, 81, 84
11, 60840, Note_on_c, 6, 69, 84
11, 60944, Note_on_c, 6, 81, 0
11, 60944, Note_on_c, 6, 69, 0
11, 60960, Note_on_c, 6, 76, 92
11, 61064, Note_on_c, 6, 76, 0
11, 61080, Note_on_c, 6, 76, 84
11, 61184, Note_on_c, 6, 76, 0
11, 61200, Note_on_c, 6, 76, 84
11, 61304, Note_on_c, 6, 76, 0
11, 61320, Note_on_c, 6, 76, 84
11, 61424, Note_on_c, 6, 76, 0
11, 61920, Note_on_c, 6, 76, 84
11, 62024, Note_on_c, 6, 76, 0
11, 62040, Note_on_c, 6, 76, 84
11, 62144, Note_on_c, 6, 76, 0
11, 62160, Note_on_c, 6, 81, 92
11, 62160, Note_on_c, 6, 69, 92
11, 62264, Note_on_c, 6, 81, 0
11, 62264, Note_on_c, 6, 69, 0
11, 62280, Note_on_c, 6, 81, 84
11, 62280, Note_on_c, 6, 69, 84
11, 62384, Note_on_c, 6, 81, 0
11, 62384, Note_on_c, 6, 69, 0
11, 62400, Note_on_c, 6, 81, 92
11, 62400, Note_on_c, 6, 69, 92
11, 62504, Note_on_c, 6, 81, 0
11, 62504, Note_on_c, 6, 69, 0
11, 62520, Note_on_c, 6, 69, 84
11, 62520, Note_on_c, 6, 81, 84
11, 62624, Note_on_c, 6, 69, 0
11, 62624, Note_on_c, 6, 81, 0
11, 62640, Note_on_c, 6, 69, 84
11, 62640, Note_on_c, 6, 81, 84
11, 62744, Note_on_c, 6, 69, 0
11, 62744, Note_on_c, 6, 81, 0
11, 62760, Note_on_c, 6, 81, 84
11, 62760, Note_on_c, 6, 69, 84
11, 62864, Note_on_c, 6, 81, 0
11, 62864, Note_on_c, 6, 69, 0
11, 62880, Note_on_c, 6, 76, 84
11, 62984, Note_on_c, 6, 76, 0
11, 63000, Note_on_c, 6, 76, 84
11, 63104, Note_on_c, 6, 76, 0
11, 63120, Note_on_c, 6, 69, 92
11, 63120, Note_on_c, 6, 81, 92
11, 63224, Note_on_c, 6, 69, 0
11, 63224, Note_on_c, 6, 81, 0
11, 63240, Note_on_c, 6, 69, 84
11, 63240, Note_on_c, 6, 81, 84
11, 63344, Note_on_c, 6, 69, 0
11, 63344, Note_on_c, 6, 81, 0
11, 63360, Note_on_c, 6, 81, 92
11, 63360, Note_on_c, 6, 69, 92
11, 63464, Note_on_c, 6, 81, 0
11, 63464, Note_on_c, 6, 69, 0
11, 63480, Note_on_c, 6, 81, 84
11, 63480, Note_on_c, 6, 69, 84
11, 63584, Note_on_c, 6, 81, 0
11, 63584, Note_on_c, 6, 69, 0
11, 63600, Note_on_c, 6, 69, 84
11, 63600, Note_on_c, 6, 81, 84
11, 63704, Note_on_c, 6, 69, 0
11, 63704, Note_on_c, 6, 81, 0
11, 63720, Note_on_c, 6, 81, 84
11, 63720, Note_on_c, 6, 69, 84
11, 63824, Note_on_c, 6, 81, 0
11, 63824, Note_on_c, 6, 69, 0
11, 63840, Note_on_c, 6, 76, 84
11, 63944, Note_on_c, 6, 76, 0
11, 63960, Note_on_c, 6, 76, 84
11, 64064, Note_on_c, 6, 76, 0
11, 64080, Note_on_c, 6, 81, 92
11, 64080, Note_on_c, 6, 69, 92
11, 64184, Note_on_c, 6, 81, 0
11, 64184, Note_on_c, 6, 69, 0
11, 64200, Note_on_c, 6, 69, 84
11, 64200, Note_on_c, 6, 81, 84
11, 64304, Note_on_c, 6, 69, 0
11, 64304, Note_on_c, 6, 81, 0
11, 64320, Note_on_c, 6, 76, 84
11, 64424, Note_on_c, 6, 76, 0
11, 64440, Note_on_c, 6, 76, 84
11, 64544, Note_on_c, 6, 76, 0
11, 64560, Note_on_c, 6, 69, 92
11, 64560, Note_on_c, 6, 81, 92
11, 64664, Note_on_c, 6, 69, 0
11, 64664, Note_on_c, 6, 81, 0
11, 64680, Note_on_c, 6, 69, 84
11, 64680, Note_on_c, 6, 81, 84
11, 64784, Note_on_c, 6, 69, 0
11, 64784, Note_on_c, 6, 81, 0
11, 64800, Note_on_c, 6, 76, 84
11, 64904, Note_on_c, 6, 76, 0
11, 64920, Note_on_c, 6, 76, 84
11, 65024, Note_on_c, 6, 76, 0
11, 65040, Note_on_c, 6, 69, 92
11, 65040, Note_on_c, 6, 81, 92
11, 65144, Note_on_c, 6, 69, 0
11, 65144, Note_on_c, 6, 81, 0
11, 65160, Note_on_c, 6, 69, 84
11, 65160, Note_on_c, 6, 81, 84
11, 65264, Note_on_c, 6, 69, 0
11, 65264, Note_on_c, 6, 81, 0
11, 65280, Note_on_c, 6, 76, 84
11, 65384, Note_on_c, 6, 76, 0
11, 65400, Note_on_c, 6, 76, 84
11, 65504, Note_on_c, 6, 76, 0
11, 65520, Note_on_c, 6, 81, 84
11, 65520, Note_on_c, 6, 69, 84
11, 65624, Note_on_c, 6, 81, 0
11, 65624, Note_on_c, 6, 69, 0
11, 65640, Note_on_c, 6, 81, 84
11, 65640, Note_on_c, 6, 69, 84
11, 65744, Note_on_c, 6, 81, 0
11, 65744, Note_on_c, 6, 69, 0
11, 65760, Note_on_c, 6, 76, 84
11, 65864, Note_on_c, 6, 76, 0
11, 65880, Note_on_c, 6, 76, 84
11, 65931, Note_on_c, 6, 76, 0
11, 65940, Note_on_c, 6, 76, 84
11, 65991, Note_on_c, 6, 76, 0
11, 66000, Note_on_c, 6, 76, 84
11, 66119, Note_on_c, 6, 76, 0
11, 66840, Note_on_c, 6, 76, 84
11, 66891, Note_on_c, 6, 76, 0
11, 66900, Note_on_c, 6, 76, 84
11, 66951, Note_on_c, 6, 76, 0
11, 66960, Note_on_c, 6, 76, 84
11, 67079, Note_on_c, 6, 76, 0
11, 67680, Note_on_c, 6, 69, 84
11, 67799, Note_on_c, 6, 69, 0
11, 67920, Note_on_c, 6, 69, 92
11, 68279, Note_on_c, 6, 69, 0
11, 68400, Note_on_c, 6, 69, 92
11, 68759, Note_on_c, 6, 69, 0
11, 68880, Note_on_c, 6, 69, 92
11, 69239, Note_on_c, 6, 69, 0
11, 69840, Note_on_c, 6, 76, 92
11, 70199, Note_on_c, 6, 76, 0
11, 70320, Note_on_c, 6, 76, 92
11, 70679, Note_on_c, 6, 76, 0
11, 70800, Note_on_c, 6, 76, 92
11, 71039, Note_on_c, 6, 76, 0
11, 71040, Note_on_c, 6, 69, 84
11, 71144, Note_on_c, 6, 69, 0
11, 71160, Note_on_c, 6, 69, 84
11, 71211, Note_on_c, 6, 69, 0
11, 71220, Note_on_c, 6, 69, 84
11, 71271, Note_on_c, 6, 69, 0
11, 71280, Note_on_c, 6, 69, 84
11, 71399, Note_on_c, 6, 69, 0
11, 71520, Note_on_c, 6, 69, 84
11, 71639, Note_on_c, 6, 69, 0
11, 71760, Note_on_c, 6, 69, 92
11, 72119, Note_on_c, 6, 69, 0
11, 72240, Note_on_c, 6, 69, 92
11, 72599, Note_on_c, 6, 69, 0
11, 72720, Note_on_c, 6, 69, 92
11, 73079, Note_on_c, 6, 69, 0
11, 73680, Note_on_c, 6, 76, 92
11, 74039, Note_on_c, 6, 76, 0
11, 74160, Note_on_c, 6, 76, 92
11, 74519, Note_on_c, 6, 76, 0
11, 74640, Note_on_c, 6, 76, 92
11, 74879, Note_on_c, 6, 76, 0
11, 74880, Note_on_c, 6, 69, 84
11, 74984, Note_on_c, 6, 69, 0
11, 75000, Note_on_c, 6, 69, 84
11, 75051, Note_on_c, 6, 69, 0
11, 75060, Note_on_c, 6, 69, 84
11, 75111, Note_on_c, 6, 69, 0
11, 75120, Note_on_c, 6, 69, 84
11, 75239, Note_on_c, 6, 69, 0
11, 75480, Note_on_c, 6, 69, 84
11, 75531, Note_on_c, 6, 69, 0
11, 75540, Note_on_c, 6, 69, 84
11, 75591, Note_on_c, 6, 69, 0
11, 75600, Note_on_c, 6, 69, 84
11, 75719, Note_on_c, 6, 69, 0
11, 75960, Note_on_c, 6, 76, 84
11, 76011, Note_on_c, 6, 76, 0
11, 76020, Note_on_c, 6, 76, 84
11, 76071, Note_on_c, 6, 76, 0
11, 76080, Note_on_c, 6, 76, 84
11, 76199, Note_on_c, 6, 76, 0
11, 76440, Note_on_c, 6, 76, 84
11, 76491, Note_on_c, 6, 76, 0
11, 76500, Note_on_c, 6, 76, 84
11, 76551, Note_on_c, 6, 76, 0
11, 76560, Note_on_c, 6, 76, 84
11, 76679, Note_on_c, 6, 76, 0
11, 76800, Note_on_c, 6, 69, 84
11, 76800, Note_on_c, 6, 57, 84
11, 76919, Note_on_c, 6, 69, 0
11, 76919, Note_on_c, 6, 57, 0
11, 77040, Note_on_c, 6, 57, 84
11, 77040, Note_on_c, 6, 69, 84
11, 77159, Note_on_c, 6, 57, 0
11, 77159, Note_on_c, 6, 69, 0
11, 77280, Note_on_c, 6, 57, 84
11, 77280, Note_on_c, 6, 69, 84
11, 77399, Note_on_c, 6, 57, 0
11, 77399, Note_on_c, 6, 69, 0
11, 77520, Note_on_c, 6, 57, 84
11, 77520, Note_on_c, 6, 69, 84
11, 77639, Note_on_c, 6, 57, 0
11, 77639, Note_on_c, 6, 69, 0
11, 77760, Note_on_c, 6, 76, 84
11, 77879, Note_on_c, 6, 76, 0
11, 78000, Note_on_c, 6, 76, 84
11, 78119, Note_on_c, 6, 76, 0
11, 78240, Note_on_c, 6, 76, 84
11, 78359, Note_on_c, 6, 76, 0
11, 78480, Note_on_c, 6, 76, 84
11, 78599, Note_on_c, 6, 76, 0
11, 78720, Note_on_c, 6, 69, 84
11, 78824, Note_on_c, 6, 69, 0
11, 78840, Note_on_c, 6, 69, 84
11, 78891, Note_on_c, 6, 69, 0
11, 78900, Note_on_c, 6, 69, 84
11, 78951, Note_on_c, 6, 69, 0
11, 78960, Note_on_c, 6, 69, 84
11, 79079, Note_on_c, 6, 69, 0
11, 79320, Note_on_c, 6, 69, 84
11, 79371, Note_on_c, 6, 69, 0
11, 79380, Note_on_c, 6, 69, 84
11, 79431, Note_on_c, 6, 69, 0
11, 79440, Note_on_c, 6, 69, 84
11, 79559, Note_on_c, 6, 69, 0
11, 79800, Note_on_c, 6, 76, 84
11, 79851, Note_on_c, 6, 76, 0
11, 79860, Note_on_c, 6, 76, 84
11, 79911, Note_on_c, 6, 76, 0
11, 79920, Note_on_c, 6, 76, 84
11, 80039, Note_on_c, 6, 76, 0
11, 80280, Note_on_c, 6, 76, 84
11, 80331, Note_on_c, 6, 76, 0
11, 80340, Note_on_c, 6, 76, 84
11, 80391, Note_on_c, 6, 76, 0
11, 80400, Note_on_c, 6, 76, 84
11, 80519, Note_on_c, 6, 76, 0
11, 80640, Note_on_c, 6, 69, 84
11, 80640, Note_on_c, 6, 57, 84
11, 80759, Note_on_c, 6, 69, 0
11, 80759, Note_on_c, 6, 57, 0
11, 80880, Note_on_c, 6, 57, 84
11, 80880, Note_on_c, 6, 69, 84
11, 80999, Note_on_c, 6, 57, 0
11, 80999, Note_on_c, 6, 69, 0
11, 81120, Note_on_c, 6, 57, 84
11, 81120, Note_on_c, 6, 69, 84
11, 81239, Note_on_c, 6, 57, 0
11, 81239, Note_on_c, 6, 69, 0
11, 81360, Note_on_c, 6, 57, 84
11, 81360, Note_on_c, 6, 69, 84
11, 81479, Note_on_c, 6, 57, 0
11, 81479, Note_on_c, 6, 69, 0
11, 81600, Note_on_c, 6, 76, 84
11, 81719, Note_on_c, 6, 76, 0
11, 81840, Note_on_c, 6, 76, 84
11, 81959, Note_on_c, 6, 76, 0
11, 82080, Note_on_c, 6, 76, 84
11, 82199, Note_on_c, 6, 76, 0
11, 82320, Note_on_c, 6, 76, 84
11, 82439, Note_on_c, 6, 76, 0
11, 82560, Note_on_c, 6, 57, 84
11, 82560, Note_on_c, 6, 69, 84
11, 82679, Note_on_c, 6, 57, 0
11, 82679, Note_on_c, 6, 69, 0
11, 83280, Note_on_c, 6, 76, 84
11, 83399, Note_on_c, 6, 76, 0
11, 83520, Note_on_c, 6, 57, 84
11, 83520, Note_on_c, 6, 69, 84
11, 83639, Note_on_c, 6, 57, 0
11, 83639, Note_on_c, 6, 69, 0
11, 83760, Note_on_c, 6, 76, 84
11, 83879, Note_on_c, 6, 76, 0
11, 84000, Note_on_c, 6, 69, 84
11, 84000, Note_on_c, 6, 57, 84
11, 84119, Note_on_c, 6, 69, 0
11, 84119, Note_on_c, 6, 57, 0
11, 84240, Note_on_c, 6, 76, 84
11, 84359, Note_on_c, 6, 76, 0
11, 84480, Note_on_c, 6, 69, 84
11, 84480, Note_on_c, 6, 57, 84
11, 84599, Note_on_c, 6, 69, 0
11, 84599, Note_on_c, 6, 57, 0
11, 85200, Note_on_c, 6, 76, 84
11, 85319, Note_on_c, 6, 76, 0
11, 85440, Note_on_c, 6, 69, 84
11, 85440, Note_on_c, 6, 57, 84
11, 85559, Note_on_c, 6, 69, 0
11, 85559, Note_on_c, 6, 57, 0
11, 85680, Note_on_c, 6, 76, 84
11, 85799, Note_on_c, 6, 76, 0
11, 85920, Note_on_c, 6, 69, 84
11, 85920, Note_on_c, 6, 57, 84
11, 86039, Note_on_c, 6, 69, 0
11, 86039, Note_on_c, 6, 57, 0
11, 90240, Note_on_c, 6, 69, 84
11, 90240, Note_on_c, 6, 57, 84
11, 90359, Note_on_c, 6, 69, 0
11, 90359, Note_on_c, 6, 57, 0
11, 90480, Note_on_c, 6, 57, 84
11, 90480, Note_on_c, 6, 69, 84
11, 90599, Note_on_c, 6, 57, 0
11, 90599, Note_on_c, 6, 69, 0
11, 90720, Note_on_c, 6, 69, 84
11, 90720, Note_on_c, 6, 57, 84
11, 90839, Note_on_c, 6, 69, 0
11, 90839, Note_on_c, 6, 57, 0
11, 90960, Note_on_c, 6, 57, 84
11, 90960, Note_on_c, 6, 69, 84
11, 91079, Note_on_c, 6, 57, 0
11, 91079, Note_on_c, 6, 69, 0
11, 92160, Note_on_c, 6, 57, 84
11, 92160, Note_on_c, 6, 69, 84
11, 92279, Note_on_c, 6, 57, 0
11, 92279, Note_on_c, 6, 69, 0
11, 92400, Note_on_c, 6, 69, 84
11, 92400, Note_on_c, 6, 57, 84
11, 92519, Note_on_c, 6, 69, 0
11, 92519, Note_on_c, 6, 57, 0
11, 92640, Note_on_c, 6, 66, 84
11, 92640, Note_on_c, 6, 78, 84
11, 92759, Note_on_c, 6, 66, 0
11, 92759, Note_on_c, 6, 78, 0
11, 92880, Note_on_c, 6, 78, 84
11, 92880, Note_on_c, 6, 66, 84
11, 92999, Note_on_c, 6, 78, 0
11, 92999, Note_on_c, 6, 66, 0
11, 93120, Note_on_c, 6, 66, 84
11, 93120, Note_on_c, 6, 78, 84
11, 93239, Note_on_c, 6, 66, 0
11, 93239, Note_on_c, 6, 78, 0
11, 93360, Note_on_c, 6, 66, 84
11, 93360, Note_on_c, 6, 78, 84
11, 93479, Note_on_c, 6, 66, 0
11, 93479, Note_on_c, 6, 78, 0
11, 93600, Note_on_c, 6, 78, 84
11, 93600, Note_on_c, 6, 66, 84
11, 93719, Note_on_c, 6, 78, 0
11, 93719, Note_on_c, 6, 66, 0
11, 93840, Note_on_c, 6, 66, 84
11, 93840, Note_on_c, 6, 78, 84
11, 93959, Note_on_c, 6, 66, 0
11, 93959, Note_on_c, 6, 78, 0
11, 94080, Note_on_c, 6, 66, 84
11, 94080, Note_on_c, 6, 78, 84
11, 94199, Note_on_c, 6, 66, 0
11, 94199, Note_on_c, 6, 78, 0
11, 94320, Note_on_c, 6, 66, 84
11, 94320, Note_on_c, 6, 78, 84
11, 94439, Note_on_c, 6, 66, 0
11, 94439, Note_on_c, 6, 78, 0
11, 94560, Note_on_c, 6, 78, 84
11, 94560, Note_on_c, 6, 66, 84
11, 94679, Note_on_c, 6, 78, 0
11, 94679, Note_on_c, 6, 66, 0
11, 94800, Note_on_c, 6, 66, 84
11, 94800, Note_on_c, 6, 78, 84
11, 94919, Note_on_c, 6, 66, 0
11, 94919, Note_on_c, 6, 78, 0
11, 95040, Note_on_c, 6, 66, 84
11, 95040, Note_on_c, 6, 78, 84
11, 95159, Note_on_c, 6, 66, 0
11, 95159, Note_on_c, 6, 78, 0
11, 95280, Note_on_c, 6, 66, 76
11, 95399, Note_on_c, 6, 66, 0
11, 97200, Note_on_c, 6, 66, 76
11, 97319, Note_on_c, 6, 66, 0
11, 101040, Note_on_c, 6, 76, 76
11, 101279, Note_on_c, 6, 76, 0
11, 102000, Note_on_c, 6, 76, 76
11, 102239, Note_on_c, 6, 76, 0
11, 103200, Note_on_c, 6, 57, 52
11, 103200, Note_on_c, 6, 69, 52
11, 103424, Note_on_c, 6, 57, 0
11, 103424, Note_on_c, 6, 69, 0
11, 103440, Note_on_c, 6, 57, 52
11, 103440, Note_on_c, 6, 69, 52
11, 103664, Note_on_c, 6, 57, 0
11, 103664, Note_on_c, 6, 69, 0
11, 103680, Note_on_c, 6, 62, 52
11, 103680, Note_on_c, 6, 69, 52
11, 103904, Note_on_c, 6, 62, 0
11, 103904, Note_on_c, 6, 69, 0
11, 103920, Note_on_c, 6, 62, 52
11, 103920, Note_on_c, 6, 69, 52
11, 104144, Note_on_c, 6, 62, 0
11, 104144, Note_on_c, 6, 69, 0
11, 104160, Note_on_c, 6, 69, 52
11, 104160, Note_on_c, 6, 57, 52
11, 104384, Note_on_c, 6, 69, 0
11, 104384, Note_on_c, 6, 57, 0
11, 104400, Note_on_c, 6, 69, 52
11, 104400, Note_on_c, 6, 57, 52
11, 104624, Note_on_c, 6, 69, 0
11, 104624, Note_on_c, 6, 57, 0
11, 104640, Note_on_c, 6, 69, 52
11, 104640, Note_on_c, 6, 62, 52
11, 104864, Note_on_c, 6, 69, 0
11, 104864, Note_on_c, 6, 62, 0
11, 104880, Note_on_c, 6, 69, 52
11, 104880, Note_on_c, 6, 62, 52
11, 105119, Note_on_c, 6, 69, 0
11, 105119, Note_on_c, 6, 62, 0
11, 105840, Note_on_c, 6, 76, 76
11, 106079, Note_on_c, 6, 76, 0
11, 106800, Note_on_c, 6, 76, 76
11, 107039, Note_on_c, 6, 76, 0
11, 108000, Note_on_c, 6, 69, 52
11, 108000, Note_on_c, 6, 57, 52
11, 108224, Note_on_c, 6, 69, 0
11, 108224, Note_on_c, 6, 57, 0
11, 108240, Note_on_c, 6, 57, 52
11, 108240, Note_on_c, 6, 69, 52
11, 108464, Note_on_c, 6, 57, 0
11, 108464, Note_on_c, 6, 69, 0
11, 108480, Note_on_c, 6, 62, 52
11, 108480, Note_on_c, 6, 69, 52
11, 108704, Note_on_c, 6, 62, 0
11, 108704, Note_on_c, 6, 69, 0
11, 108720, Note_on_c, 6, 62, 52
11, 108720, Note_on_c, 6, 69, 52
11, 108944, Note_on_c, 6, 62, 0
11, 108944, Note_on_c, 6, 69, 0
11, 108960, Note_on_c, 6, 69, 52
11, 108960, Note_on_c, 6, 57, 52
11, 109184, Note_on_c, 6, 69, 0
11, 109184, Note_on_c, 6, 57, 0
11, 109200, Note_on_c, 6, 69, 52
11, 109200, Note_on_c, 6, 57, 52
11, 109424, Note_on_c, 6, 69, 0
11, 109424, Note_on_c, 6, 57, 0
11, 115200, Note_on_c, 6, 81, 84
11, 115200, Note_on_c, 6, 69, 84
11, 115304, Note_on_c, 6, 81, 0
11, 115304, Note_on_c, 6, 69, 0
11, 115320, Note_on_c, 6, 69, 84
11, 115320, Note_on_c, 6, 81, 84
11, 115424, Note_on_c, 6, 69, 0
11, 115424, Note_on_c, 6, 81, 0
11, 115440, Note_on_c, 6, 81, 84
11, 115440, Note_on_c, 6, 69, 84
11, 115544, Note_on_c, 6, 81, 0
11, 115544, Note_on_c, 6, 69, 0
11, 115560, Note_on_c, 6, 69, 84
11, 115560, Note_on_c, 6, 81, 84
11, 115664, Note_on_c, 6, 69, 0
11, 115664, Note_on_c, 6, 81, 0
11, 115680, Note_on_c, 6, 81, 84
11, 115680, Note_on_c, 6, 69, 84
11, 115784, Note_on_c, 6, 81, 0
11, 115784, Note_on_c, 6, 69, 0
11, 115800, Note_on_c, 6, 69, 84
11, 115800, Note_on_c, 6, 81, 84
11, 115904, Note_on_c, 6, 69, 0
11, 115904, Note_on_c, 6, 81, 0
11, 115920, Note_on_c, 6, 69, 84
11, 115920, Note_on_c, 6, 81, 84
11, 116024, Note_on_c, 6, 69, 0
11, 116024, Note_on_c, 6, 81, 0
11, 116040, Note_on_c, 6, 69, 84
11, 116040, Note_on_c, 6, 81, 84
11, 116144, Note_on_c, 6, 69, 0
11, 116144, Note_on_c, 6, 81, 0
11, 116160, Note_on_c, 6, 76, 92
11, 116264, Note_on_c, 6, 76, 0
11, 116280, Note_on_c, 6, 76, 84
11, 116384, Note_on_c, 6, 76, 0
11, 116400, Note_on_c, 6, 76, 84
11, 116504, Note_on_c, 6, 76, 0
11, 116520, Note_on_c, 6, 76, 84
11, 116624, Note_on_c, 6, 76, 0
11, 116640, Note_on_c, 6, 81, 92
11, 116640, Note_on_c, 6, 69, 92
11, 116744, Note_on_c, 6, 81, 0
11, 116744, Note_on_c, 6, 69, 0
11, 116760, Note_on_c, 6, 69, 84
11, 116760, Note_on_c, 6, 81, 84
11, 116864, Note_on_c, 6, 69, 0
11, 116864, Note_on_c, 6, 81, 0
11, 116880, Note_on_c, 6, 69, 84
11, 116880, Note_on_c, 6, 81, 84
11, 116984, Note_on_c, 6, 69, 0
11, 116984, Note_on_c, 6, 81, 0
11, 117000, Note_on_c, 6, 69, 84
11, 117000, Note_on_c, 6, 81, 84
11, 117104, Note_on_c, 6, 69, 0
11, 117104, Note_on_c, 6, 81, 0
11, 117120, Note_on_c, 6, 76, 92
11, 117224, Note_on_c, 6, 76, 0
11, 117240, Note_on_c, 6, 76, 84
11, 117344, Note_on_c, 6, 76, 0
11, 117360, Note_on_c, 6, 76, 84
11, 117464, Note_on_c, 6, 76, 0
11, 117480, Note_on_c, 6, 76, 84
11, 117584, Note_on_c, 6, 76, 0
11, 117600, Note_on_c, 6, 69, 92
11, 117600, Note_on_c, 6, 81, 92
11, 117704, Note_on_c, 6, 69, 0
11, 117704, Note_on_c, 6, 81, 0
11, 117720, Note_on_c, 6, 69, 84
11, 117720, Note_on_c, 6, 81, 84
11, 117824, Note_on_c, 6, 69, 0
11, 117824, Note_on_c, 6, 81, 0
11, 117840, Note_on_c, 6, 81, 84
11, 117840, Note_on_c, 6, 69, 84
11, 117944, Note_on_c, 6, 81, 0
11, 117944, Note_on_c, 6, 69, 0
11, 117960, Note_on_c, 6, 69, 84
11, 117960, Note_on_c, 6, 81, 84
11, 118064, Note_on_c, 6, 69, 0
11, 118064, Note_on_c, 6, 81, 0
11, 118080, Note_on_c, 6, 76, 92
11, 118184, Note_on_c, 6, 76, 0
11, 118200, Note_on_c, 6, 76, 84
11, 118304, Note_on_c, 6, 76, 0
11, 118320, Note_on_c, 6, 76, 84
11, 118424, Note_on_c, 6, 76, 0
11, 118440, Note_on_c, 6, 76, 84
11, 118544, Note_on_c, 6, 76, 0
11, 118560, Note_on_c, 6, 69, 92
11, 118560, Note_on_c, 6, 81, 92
11, 118664, Note_on_c, 6, 69, 0
11, 118664, Note_on_c, 6, 81, 0
11, 118680, Note_on_c, 6, 69, 84
11, 118680, Note_on_c, 6, 81, 84
11, 118784, Note_on_c, 6, 69, 0
11, 118784, Note_on_c, 6, 81, 0
11, 118800, Note_on_c, 6, 81, 84
11, 118800, Note_on_c, 6, 69, 84
11, 118904, Note_on_c, 6, 81, 0
11, 118904, Note_on_c, 6, 69, 0
11, 118920, Note_on_c, 6, 69, 84
11, 118920, Note_on_c, 6, 81, 84
11, 119024, Note_on_c, 6, 69, 0
11, 119024, Note_on_c, 6, 81, 0
11, 119040, Note_on_c, 6, 76, 92
11, 119144, Note_on_c, 6, 76, 0
11, 119160, Note_on_c, 6, 76, 84
11, 119264, Note_on_c, 6, 76, 0
11, 119280, Note_on_c, 6, 76, 84
11, 119384, Note_on_c, 6, 76, 0
11, 119400, Note_on_c, 6, 76, 84
11, 119504, Note_on_c, 6, 76, 0
11, 120000, Note_on_c, 6, 76, 84
11, 120104, Note_on_c, 6, 76, 0
11, 120120, Note_on_c, 6, 76, 84
11, 120224, Note_on_c, 6, 76, 0
11, 120240, Note_on_c, 6, 81, 92
11, 120240, Note_on_c, 6, 69, 92
11, 120344, Note_on_c, 6, 81, 0
11, 120344, Note_on_c, 6, 69, 0
11, 120360, Note_on_c, 6, 69, 84
11, 120360, Note_on_c, 6, 81, 84
11, 120464, Note_on_c, 6, 69, 0
11, 120464, Note_on_c, 6, 81, 0
11, 120480, Note_on_c, 6, 81, 92
11, 120480, Note_on_c, 6, 69, 92
11, 120584, Note_on_c, 6, 81, 0
11, 120584, Note_on_c, 6, 69, 0
11, 120600, Note_on_c, 6, 69, 84
11, 120600, Note_on_c, 6, 81, 84
11, 120704, Note_on_c, 6, 69, 0
11, 120704, Note_on_c, 6, 81, 0
11, 120720, Note_on_c, 6, 81, 84
11, 120720, Note_on_c, 6, 69, 84
11, 120824, Note_on_c, 6, 81, 0
11, 120824, Note_on_c, 6, 69, 0
11, 120840, Note_on_c, 6, 69, 84
11, 120840, Note_on_c, 6, 81, 84
11, 120944, Note_on_c, 6, 69, 0
11, 120944, Note_on_c, 6, 81, 0
11, 120960, Note_on_c, 6, 76, 84
11, 121064, Note_on_c, 6, 76, 0
11, 121080, Note_on_c, 6, 76, 84
11, 121184, Note_on_c, 6, 76, 0
11, 121200, Note_on_c, 6, 81, 92
11, 121200, Note_on_c, 6, 69, 92
11, 121304, Note_on_c, 6, 81, 0
11, 121304, Note_on_c, 6, 69, 0
11, 121320, Note_on_c, 6, 69, 84
11, 121320, Note_on_c, 6, 81, 84
11, 121424, Note_on_c, 6, 69, 0
11, 121424, Note_on_c, 6, 81, 0
11, 121440, Note_on_c, 6, 81, 92
11, 121440, Note_on_c, 6, 69, 92
11, 121544, Note_on_c, 6, 81, 0
11, 121544, Note_on_c, 6, 69, 0
11, 121560, Note_on_c, 6, 81, 84
11, 121560, Note_on_c, 6, 69, 84
11, 121664, Note_on_c, 6, 81, 0
11, 121664, Note_on_c, 6, 69, 0
11, 121680, Note_on_c, 6, 69, 84
11, 121680, Note_on_c, 6, 81, 84
11, 121784, Note_on_c, 6, 69, 0
11, 121784, Note_on_c, 6, 81, 0
11, 121800, Note_on_c, 6, 81, 84
11, 121800, Note_on_c, 6, 69, 84
11, 121904, Note_on_c, 6, 81, 0
11, 121904, Note_on_c, 6, 69, 0
11, 121920, Note_on_c, 6, 76, 84
11, 122024, Note_on_c, 6, 76, 0
11, 122040, Note_on_c, 6, 76, 84
11, 122144, Note_on_c, 6, 76, 0
11, 122160, Note_on_c, 6, 69, 92
11, 122160, Note_on_c, 6, 81, 92
11, 122264, Note_on_c, 6, 69, 0
11, 122264, Note_on_c, 6, 81, 0
11, 122280, Note_on_c, 6, 69, 84
11, 122280, Note_on_c, 6, 81, 84
11, 122384, Note_on_c, 6, 69, 0
11, 122384, Note_on_c, 6, 81, 0
11, 122400, Note_on_c, 6, 76, 84
11, 122504, Note_on_c, 6, 76, 0
11, 122520, Note_on_c, 6, 76, 84
11, 122624, Note_on_c, 6, 76, 0
11, 122640, Note_on_c, 6, 69, 92
11, 122640, Note_on_c, 6, 81, 92
11, 122744, Note_on_c, 6, 69, 0
11, 122744, Note_on_c, 6, 81, 0
11, 122760, Note_on_c, 6, 69, 84
11, 122760, Note_on_c, 6, 81, 84
11, 122864, Note_on_c, 6, 69, 0
11, 122864, Note_on_c, 6, 81, 0
11, 122880, Note_on_c, 6, 76, 84
11, 122984, Note_on_c, 6, 76, 0
11, 123000, Note_on_c, 6, 76, 84
11, 123104, Note_on_c, 6, 76, 0
11, 123120, Note_on_c, 6, 81, 92
11, 123120, Note_on_c, 6, 69, 92
11, 123224, Note_on_c, 6, 81, 0
11, 123224, Note_on_c, 6, 69, 0
11, 123240, Note_on_c, 6, 69, 84
11, 123240, Note_on_c, 6, 81, 84
11, 123344, Note_on_c, 6, 69, 0
11, 123344, Note_on_c, 6, 81, 0
11, 123360, Note_on_c, 6, 76, 84
11, 123464, Note_on_c, 6, 76, 0
11, 123480, Note_on_c, 6, 76, 84
11, 123584, Note_on_c, 6, 76, 0
11, 123600, Note_on_c, 6, 76, 84
11, 123704, Note_on_c, 6, 76, 0
11, 123720, Note_on_c, 6, 76, 84
11, 123824, Note_on_c, 6, 76, 0
11, 123840, Note_on_c, 6, 76, 84
11, 123944, Note_on_c, 6, 76, 0
11, 123960, Note_on_c, 6, 76, 84
11, 124011, Note_on_c, 6, 76, 0
11, 124020, Note_on_c, 6, 76, 84
11, 124071, Note_on_c, 6, 76, 0
11, 124080, Note_on_c, 6, 76, 84
11, 124199, Note_on_c, 6, 76, 0
11, 124920, Note_on_c, 6, 76, 84
11, 124971, Note_on_c, 6, 76, 0
11, 124980, Note_on_c, 6, 76, 84
11, 125031, Note_on_c, 6, 76, 0
11, 125040, Note_on_c, 6, 76, 84
11, 125159, Note_on_c, 6, 76, 0
11, 125760, Note_on_c, 6, 72, 84
11, 125879, Note_on_c, 6, 72, 0
11, 126000, Note_on_c, 6, 72, 92
11, 126359, Note_on_c, 6, 72, 0
11, 126480, Note_on_c, 6, 72, 92
11, 126839, Note_on_c, 6, 72, 0
11, 126960, Note_on_c, 6, 72, 92
11, 127199, Note_on_c, 6, 72, 0
11, 127200, Note_on_c, 6, 69, 84
11, 127319, Note_on_c, 6, 69, 0
11, 129120, Note_on_c, 6, 76, 84
11, 129239, Note_on_c, 6, 76, 0
11, 129360, Note_on_c, 6, 76, 92
11, 129719, Note_on_c, 6, 76, 0
11, 129840, Note_on_c, 6, 76, 92
11, 130199, Note_on_c, 6, 76, 0
11, 130320, Note_on_c, 6, 76, 92
11, 130559, Note_on_c, 6, 76, 0
11, 130560, Note_on_c, 6, 69, 84
11, 130560, Note_on_c, 6, 57, 84
11, 130679, Note_on_c, 6, 69, 0
11, 130679, Note_on_c, 6, 57, 0
11, 135360, Note_on_c, 6, 74, 76
11, 135360, Note_on_c, 6, 79, 76
11, 135479, Note_on_c, 6, 74, 0
11, 135479, Note_on_c, 6, 79, 0
11, 135600, Note_on_c, 6, 74, 84
11, 135600, Note_on_c, 6, 79, 84
11, 135839, Note_on_c, 6, 74, 0
11, 135840, Note_on_c, 6, 76, 76
11, 135959, Note_on_c, 6, 79, 0
11, 135959, Note_on_c, 6, 76, 0
11, 136080, Note_on_c, 6, 76, 84
11, 136080, Note_on_c, 6, 79, 84
11, 136319, Note_on_c, 6, 76, 0
11, 136320, Note_on_c, 6, 74, 76
11, 136439, Note_on_c, 6, 79, 0
11, 136439, Note_on_c, 6, 74, 0
11, 136560, Note_on_c, 6, 74, 84
11, 136560, Note_on_c, 6, 79, 84
11, 136799, Note_on_c, 6, 74, 0
11, 136800, Note_on_c, 6, 76, 76
11, 136919, Note_on_c, 6, 79, 0
11, 136919, Note_on_c, 6, 76, 0
11, 137040, Note_on_c, 6, 79, 84
11, 137040, Note_on_c, 6, 76, 84
11, 137279, Note_on_c, 6, 76, 0
11, 137280, Note_on_c, 6, 74, 76
11, 137399, Note_on_c, 6, 79, 0
11, 137399, Note_on_c, 6, 74, 0
11, 137520, Note_on_c, 6, 74, 84
11, 137520, Note_on_c, 6, 79, 84
11, 137759, Note_on_c, 6, 74, 0
11, 137760, Note_on_c, 6, 76, 76
11, 137879, Note_on_c, 6, 79, 0
11, 137879, Note_on_c, 6, 76, 0
11, 138000, Note_on_c, 6, 76, 84
11, 138000, Note_on_c, 6, 79, 84
11, 138239, Note_on_c, 6, 76, 0
11, 138240, Note_on_c, 6, 74, 76
11, 138359, Note_on_c, 6, 79, 0
11, 138359, Note_on_c, 6, 74, 0
11, 138480, Note_on_c, 6, 79, 84
11, 138480, Note_on_c, 6, 74, 84
11, 138719, Note_on_c, 6, 79, 0
11, 138719, Note_on_c, 6, 74, 0
11, 138720, Note_on_c, 6, 76, 76
11, 138824, Note_on_c, 6, 76, 0
11, 138840, Note_on_c, 6, 76, 76
11, 138891, Note_on_c, 6, 76, 0
11, 138900, Note_on_c, 6, 76, 76
11, 138951, Note_on_c, 6, 76, 0
11, 138960, Note_on_c, 6, 76, 76
11, 139079, Note_on_c, 6, 76, 0
11, 139200, Note_on_c, 6, 79, 76
11, 139200, Note_on_c, 6, 74, 76
11, 139319, Note_on_c, 6, 79, 0
11, 139319, Note_on_c, 6, 74, 0
11, 139440, Note_on_c, 6, 74, 84
11, 139440, Note_on_c, 6, 79, 84
11, 139679, Note_on_c, 6, 74, 0
11, 139680, Note_on_c, 6, 76, 76
11, 139799, Note_on_c, 6, 79, 0
11, 139799, Note_on_c, 6, 76, 0
11, 139920, Note_on_c, 6, 79, 84
11, 139920, Note_on_c, 6, 76, 84
11, 140159, Note_on_c, 6, 76, 0
11, 140160, Note_on_c, 6, 74, 76
11, 140279, Note_on_c, 6, 79, 0
11, 140279, Note_on_c, 6, 74, 0
11, 140400, Note_on_c, 6, 74, 84
11, 140400, Note_on_c, 6, 79, 84
11, 140639, Note_on_c, 6, 74, 0
11, 140640, Note_on_c, 6, 76, 76
11, 140759, Note_on_c, 6, 79, 0
11, 140759, Note_on_c, 6, 76, 0
11, 140880, Note_on_c, 6, 79, 84
11, 140880, Note_on_c, 6, 76, 84
11, 141119, Note_on_c, 6, 76, 0
11, 141120, Note_on_c, 6, 74, 76
11, 141239, Note_on_c, 6, 79, 0
11, 141239, Note_on_c, 6, 74, 0
11, 141360, Note_on_c, 6, 74, 84
11, 141360, Note_on_c, 6, 79, 84
11, 141599, Note_on_c, 6, 74, 0
11, 141600, Note_on_c, 6, 76, 76
11, 141719, Note_on_c, 6, 79, 0
11, 141719, Note_on_c, 6, 76, 0
11, 141840, Note_on_c, 6, 79, 84
11, 141840, Note_on_c, 6, 76, 84
11, 142079, Note_on_c, 6, 76, 0
11, 142080, Note_on_c, 6, 74, 76
11, 142199, Note_on_c, 6, 79, 0
11, 142199, Note_on_c, 6, 74, 0
11, 142320, Note_on_c, 6, 79, 84
11, 142320, Note_on_c, 6, 74, 84
11, 142559, Note_on_c, 6, 79, 0
11, 142559, Note_on_c, 6, 74, 0
11, 142560, Note_on_c, 6, 76, 76
11, 142664, Note_on_c, 6, 76, 0
11, 142680, Note_on_c, 6, 76, 76
11, 142731, Note_on_c, 6, 76, 0
11, 142740, Note_on_c, 6, 76, 76
11, 142791, Note_on_c, 6, 76, 0
11, 142800, Note_on_c, 6, 76, 76
11, 142919, Note_on_c, 6, 76, 0
11, 143040, Note_on_c, 6, 72, 76
11, 143159, Note_on_c, 6, 72, 0
11, 143280, Note_on_c, 6, 72, 84
11, 143519, Note_on_c, 6, 72, 0
11, 143520, Note_on_c, 6, 72, 76
11, 143639, Note_on_c, 6, 72, 0
11, 143760, Note_on_c, 6, 72, 84
11, 143999, Note_on_c, 6, 72, 0
11, 144000, Note_on_c, 6, 72, 76
11, 144119, Note_on_c, 6, 72, 0
11, 144240, Note_on_c, 6, 72, 84
11, 144479, Note_on_c, 6, 72, 0
11, 144480, Note_on_c, 6, 72, 76
11, 144599, Note_on_c, 6, 72, 0
11, 144720, Note_on_c, 6, 69, 84
11, 144720, Note_on_c, 6, 57, 84
11, 144959, Note_on_c, 6, 69, 0
11, 144959, Note_on_c, 6, 57, 0
11, 144960, Note_on_c, 6, 74, 76
11, 144960, Note_on_c, 6, 62, 76
11, 145079, Note_on_c, 6, 74, 0
11, 145079, Note_on_c, 6, 62, 0
11, 145200, Note_on_c, 6, 74, 84
11, 145200, Note_on_c, 6, 79, 84
11, 145439, Note_on_c, 6, 74, 0
11, 145440, Note_on_c, 6, 76, 76
11, 145559, Note_on_c, 6, 79, 0
11, 145559, Note_on_c, 6, 76, 0
11, 145680, Note_on_c, 6, 76, 84
11, 145680, Note_on_c, 6, 79, 84
11, 145919, Note_on_c, 6, 76, 0
11, 145920, Note_on_c, 6, 74, 76
11, 146039, Note_on_c, 6, 79, 0
11, 146039, Note_on_c, 6, 74, 0
11, 146160, Note_on_c, 6, 74, 84
11, 146160, Note_on_c, 6, 79, 84
11, 146399, Note_on_c, 6, 74, 0
11, 146399, Note_on_c, 6, 79, 0
11, 146400, Note_on_c, 6, 76, 76
11, 146504, Note_on_c, 6, 76, 0
11, 146520, Note_on_c, 6, 76, 76
11, 146571, Note_on_c, 6, 76, 0
11, 146580, Note_on_c, 6, 76, 76
11, 146631, Note_on_c, 6, 76, 0
11, 146640, Note_on_c, 6, 76, 76
11, 146759, Note_on_c, 6, 76, 0
11, 146880, Note_on_c, 6, 72, 76
11, 146999, Note_on_c, 6, 72, 0
11, 147120, Note_on_c, 6, 72, 84
11, 147359, Note_on_c, 6, 72, 0
11, 147360, Note_on_c, 6, 72, 76
11, 147479, Note_on_c, 6, 72, 0
11, 147600, Note_on_c, 6, 72, 84
11, 147839, Note_on_c, 6, 72, 0
11, 147840, Note_on_c, 6, 72, 76
11, 147959, Note_on_c, 6, 72, 0
11, 148080, Note_on_c, 6, 72, 84
11, 148319, Note_on_c, 6, 72, 0
11, 148320, Note_on_c, 6, 72, 76
11, 148439, Note_on_c, 6, 72, 0
11, 148560, Note_on_c, 6, 69, 84
11, 148560, Note_on_c, 6, 57, 84
11, 148799, Note_on_c, 6, 69, 0
11, 148799, Note_on_c, 6, 57, 0
11, 148800, Note_on_c, 6, 62, 76
11, 148800, Note_on_c, 6, 74, 76
11, 148919, Note_on_c, 6, 62, 0
11, 148919, Note_on_c, 6, 74, 0
11, 149040, Note_on_c, 6, 74, 84
11, 149040, Note_on_c, 6, 79, 84
11, 149279, Note_on_c, 6, 74, 0
11, 149280, Note_on_c, 6, 76, 76
11, 149399, Note_on_c, 6, 79, 0
11, 149399, Note_on_c, 6, 76, 0
11, 149520, Note_on_c, 6, 76, 84
11, 149520, Note_on_c, 6, 79, 84
11, 149759, Note_on_c, 6, 76, 0
11, 149760, Note_on_c, 6, 74, 76
11, 149879, Note_on_c, 6, 79, 0
11, 149879, Note_on_c, 6, 74, 0
11, 150000, Note_on_c, 6, 74, 84
11, 150000, Note_on_c, 6, 79, 84
11, 150239, Note_on_c, 6, 74, 0
11, 150239, Note_on_c, 6, 79, 0
11, 150240, Note_on_c, 6, 76, 76
11, 150344, Note_on_c, 6, 76, 0
11, 150360, Note_on_c, 6, 76, 76
11, 150411, Note_on_c, 6, 76, 0
11, 150420, Note_on_c, 6, 76, 76
11, 150471, Note_on_c, 6, 76, 0
11, 150480, Note_on_c, 6, 76, 76
11, 150599, Note_on_c, 6, 76, 0
11, 150840, Note_on_c, 6, 62, 76
11, 150840, Note_on_c, 6, 74, 76
11, 150891, Note_on_c, 6, 62, 0
11, 150891, Note_on_c, 6, 74, 0
11, 150900, Note_on_c, 6, 62, 76
11, 150900, Note_on_c, 6, 74, 76
11, 150951, Note_on_c, 6, 62, 0
11, 150951, Note_on_c, 6, 74, 0
11, 150960, Note_on_c, 6, 62, 76
11, 150960, Note_on_c, 6, 74, 76
11, 151079, Note_on_c, 6, 62, 0
11, 151079, Note_on_c, 6, 74, 0
11, 151320, Note_on_c, 6, 76, 76
11, 151371, Note_on_c, 6, 76, 0
11, 151380, Note_on_c, 6, 76, 76
11, 151431, Note_on_c, 6, 76, 0
11, 151440, Note_on_c, 6, 76, 76
11, 151559, Note_on_c, 6, 76, 0
11, 154680, Note_on_c, 6, 62, 76
11, 154680, Note_on_c, 6, 74, 76
11, 154731, Note_on_c, 6, 62, 0
11, 154731, Note_on_c, 6, 74, 0
11, 154740, Note_on_c, 6, 62, 76
11, 154740, Note_on_c, 6, 74, 76
11, 154791, Note_on_c, 6, 62, 0
11, 154791, Note_on_c, 6, 74, 0
11, 154800, Note_on_c, 6, 62, 76
11, 154800, Note_on_c, 6, 74, 76
11, 154919, Note_on_c, 6, 62, 0
11, 154919, Note_on_c, 6, 74, 0
11, 155160, Note_on_c, 6, 62, 76
11, 155160, Note_on_c, 6, 74, 76
11, 155211, Note_on_c, 6, 62, 0
11, 155211, Note_on_c, 6, 74, 0
11, 155220, Note_on_c, 6, 62, 76
11, 155220, Note_on_c, 6, 74, 76
11, 155271, Note_on_c, 6, 62, 0
11, 155271, Note_on_c, 6, 74, 0
11, 155280, Note_on_c, 6, 62, 76
11, 155280, Note_on_c, 6, 74, 76
11, 155399, Note_on_c, 6, 62, 0
11, 155399, Note_on_c, 6, 74, 0
11, 155640, Note_on_c, 6, 69, 76
11, 155640, Note_on_c, 6, 57, 76
11, 155691, Note_on_c, 6, 69, 0
11, 155691, Note_on_c, 6, 57, 0
11, 155700, Note_on_c, 6, 57, 76
11, 155700, Note_on_c, 6, 69, 76
11, 155751, Note_on_c, 6, 57, 0
11, 155751, Note_on_c, 6, 69, 0
11, 155760, Note_on_c, 6, 69, 76
11, 155760, Note_on_c, 6, 57, 76
11, 155879, Note_on_c, 6, 69, 0
11, 155879, Note_on_c, 6, 57, 0
11, 156000, Note_on_c, 6, 62, 76
11, 156000, Note_on_c, 6, 74, 76
11, 156119, Note_on_c, 6, 62, 0
11, 156119, Note_on_c, 6, 74, 0
11, 156240, Note_on_c, 6, 74, 84
11, 156240, Note_on_c, 6, 62, 84
11, 156599, Note_on_c, 6, 74, 0
11, 156599, Note_on_c, 6, 62, 0
11, 156720, Note_on_c, 6, 74, 84
11, 156720, Note_on_c, 6, 62, 84
11, 157079, Note_on_c, 6, 74, 0
11, 157079, Note_on_c, 6, 62, 0
11, 157200, Note_on_c, 6, 74, 84
11, 157200, Note_on_c, 6, 62, 84
11, 157559, Note_on_c, 6, 74, 0
11, 157559, Note_on_c, 6, 62, 0
11, 157680, Note_on_c, 6, 62, 84
11, 157680, Note_on_c, 6, 74, 84
11, 158039, Note_on_c, 6, 62, 0
11, 158039, Note_on_c, 6, 74, 0
11, 158160, Note_on_c, 6, 62, 84
11, 158160, Note_on_c, 6, 74, 84
11, 158519, Note_on_c, 6, 62, 0
11, 158519, Note_on_c, 6, 74, 0
11, 158640, Note_on_c, 6, 74, 76
11, 158640, Note_on_c, 6, 62, 76
11, 158999, Note_on_c, 6, 74, 0
11, 158999, Note_on_c, 6, 62, 0
11, 159120, Note_on_c, 6, 62, 76
11, 159120, Note_on_c, 6, 74, 76
11, 159479, Note_on_c, 6, 62, 0
11, 159479, Note_on_c, 6, 74, 0
11, 159600, Note_on_c, 6, 62, 76
11, 159600, Note_on_c, 6, 74, 76
11, 159959, Note_on_c, 6, 62, 0
11, 159959, Note_on_c, 6, 74, 0
11, 160080, Note_on_c, 6, 74, 76
11, 160080, Note_on_c, 6, 62, 76
11, 160439, Note_on_c, 6, 74, 0
11, 160439, Note_on_c, 6, 62, 0
11, 160560, Note_on_c, 6, 62, 76
11, 160560, Note_on_c, 6, 74, 76
11, 160919, Note_on_c, 6, 62, 0
11, 160919, Note_on_c, 6, 74, 0
11, 161040, Note_on_c, 6, 62, 76
11, 161040, Note_on_c, 6, 74, 76
11, 161399, Note_on_c, 6, 62, 0
11, 161399, Note_on_c, 6, 74, 0
11, 161520, Note_on_c, 6, 76, 84
11, 161879, Note_on_c, 6, 76, 0
11, 162000, Note_on_c, 6, 76, 84
11, 162359, Note_on_c, 6, 76, 0
11, 162480, Note_on_c, 6, 76, 76
11, 162839, Note_on_c, 6, 76, 0
11, 162960, Note_on_c, 6, 76, 76
11, 163319, Note_on_c, 6, 76, 0
11, 163440, Note_on_c, 6, 76, 76
11, 163799, Note_on_c, 6, 76, 0
11, 163920, Note_on_c, 6, 76, 76
11, 164279, Note_on_c, 6, 76, 0
11, 164400, Note_on_c, 6, 76, 76
11, 164759, Note_on_c, 6, 76, 0
11, 164880, Note_on_c, 6, 76, 76
11, 165239, Note_on_c, 6, 76, 0
11, 165360, Note_on_c, 6, 76, 76
11, 165719, Note_on_c, 6, 76, 0
11, 165840, Note_on_c, 6, 76, 76
11, 166199, Note_on_c, 6, 76, 0
11, 178560, Note_on_c, 6, 76, 84
11, 178664, Note_on_c, 6, 76, 0
11, 178680, Note_on_c, 6, 76, 84
11, 178731, Note_on_c, 6, 76, 0
11, 178740, Note_on_c, 6, 76, 84
11, 178791, Note_on_c, 6, 76, 0
11, 178800, Note_on_c, 6, 76, 84
11, 178919, Note_on_c, 6, 76, 0
11, 179520, Note_on_c, 6, 76, 84
11, 179624, Note_on_c, 6, 76, 0
11, 179640, Note_on_c, 6, 76, 84
11, 179691, Note_on_c, 6, 76, 0
11, 179700, Note_on_c, 6, 76, 84
11, 179751, Note_on_c, 6, 76, 0
11, 179760, Note_on_c, 6, 76, 84
11, 179879, Note_on_c, 6, 76, 0
11, 180480, Note_on_c, 6, 76, 84
11, 180599, Note_on_c, 6, 76, 0
11, 180720, Note_on_c, 6, 76, 92
11, 181079, Note_on_c, 6, 76, 0
11, 181200, Note_on_c, 6, 76, 92
11, 181559, Note_on_c, 6, 76, 0
11, 181680, Note_on_c, 6, 76, 92
11, 182039, Note_on_c, 6, 76, 0
11, 182160, Note_on_c, 6, 76, 92
11, 182519, Note_on_c, 6, 76, 0
11, 182640, Note_on_c, 6, 76, 92
11, 182999, Note_on_c, 6, 76, 0
11, 183120, Note_on_c, 6, 76, 92
11, 183479, Note_on_c, 6, 76, 0
11, 183600, Note_on_c, 6, 76, 92
11, 183839, Note_on_c, 6, 76, 0
11, 183840, Note_on_c, 6, 69, 84
11, 183944, Note_on_c, 6, 69, 0
11, 183960, Note_on_c, 6, 69, 84
11, 184011, Note_on_c, 6, 69, 0
11, 184020, Note_on_c, 6, 69, 84
11, 184071, Note_on_c, 6, 69, 0
11, 184080, Note_on_c, 6, 69, 84
11, 184199, Note_on_c, 6, 69, 0
11, 184320, Note_on_c, 6, 76, 84
11, 184439, Note_on_c, 6, 76, 0
11, 184560, Note_on_c, 6, 76, 92
11, 184919, Note_on_c, 6, 76, 0
11, 185040, Note_on_c, 6, 76, 92
11, 185399, Note_on_c, 6, 76, 0
11, 185520, Note_on_c, 6, 76, 92
11, 185879, Note_on_c, 6, 76, 0
11, 186000, Note_on_c, 6, 76, 92
11, 186359, Note_on_c, 6, 76, 0
11, 186480, Note_on_c, 6, 76, 92
11, 186839, Note_on_c, 6, 76, 0
11, 186960, Note_on_c, 6, 76, 92
11, 187319, Note_on_c, 6, 76, 0
11, 187440, Note_on_c, 6, 76, 92
11, 187679, Note_on_c, 6, 76, 0
11, 187680, Note_on_c, 6, 69, 84
11, 187784, Note_on_c, 6, 69, 0
11, 187800, Note_on_c, 6, 69, 84
11, 187851, Note_on_c, 6, 69, 0
11, 187860, Note_on_c, 6, 69, 84
11, 187911, Note_on_c, 6, 69, 0
11, 187920, Note_on_c, 6, 69, 84
11, 188039, Note_on_c, 6, 69, 0
11, 188280, Note_on_c, 6, 69, 84
11, 188331, Note_on_c, 6, 69, 0
11, 188340, Note_on_c, 6, 69, 84
11, 188391, Note_on_c, 6, 69, 0
11, 188400, Note_on_c, 6, 69, 84
11, 188519, Note_on_c, 6, 69, 0
11, 188760, Note_on_c, 6, 76, 84
11, 188811, Note_on_c, 6, 76, 0
11, 188820, Note_on_c, 6, 76, 84
11, 188871, Note_on_c, 6, 76, 0
11, 188880, Note_on_c, 6, 76, 84
11, 188999, Note_on_c, 6, 76, 0
11, 189240, Note_on_c, 6, 76, 84
11, 189291, Note_on_c, 6, 76, 0
11, 189300, Note_on_c, 6, 76, 84
11, 189351, Note_on_c, 6, 76, 0
11, 189360, Note_on_c, 6, 76, 84
11, 189479, Note_on_c, 6, 76, 0
11, 189600, Note_on_c, 6, 69, 84
11, 189600, Note_on_c, 6, 57, 84
11, 189719, Note_on_c, 6, 69, 0
11, 189719, Note_on_c, 6, 57, 0
11, 189840, Note_on_c, 6, 69, 84
11, 189840, Note_on_c, 6, 57, 84
11, 189959, Note_on_c, 6, 69, 0
11, 189959, Note_on_c, 6, 57, 0
11, 190080, Note_on_c, 6, 69, 84
11, 190080, Note_on_c, 6, 57, 84
11, 190199, Note_on_c, 6, 69, 0
11, 190199, Note_on_c, 6, 57, 0
11, 190320, Note_on_c, 6, 69, 84
11, 190320, Note_on_c, 6, 57, 84
11, 190439, Note_on_c, 6, 69, 0
11, 190439, Note_on_c, 6, 57, 0
11, 190560, Note_on_c, 6, 76, 84
11, 190679, Note_on_c, 6, 76, 0
11, 190800, Note_on_c, 6, 76, 84
11, 190919, Note_on_c, 6, 76, 0
11, 191040, Note_on_c, 6, 76, 84
11, 191159, Note_on_c, 6, 76, 0
11, 191280, Note_on_c, 6, 76, 84
11, 191399, Note_on_c, 6, 76, 0
11, 191520, Note_on_c, 6, 69, 84
11, 191624, Note_on_c, 6, 69, 0
11, 191640, Note_on_c, 6, 69, 84
11, 191691, Note_on_c, 6, 69, 0
11, 191700, Note_on_c, 6, 69, 84
11, 191751, Note_on_c, 6, 69, 0
11, 191760, Note_on_c, 6, 69, 84
11, 191879, Note_on_c, 6, 69, 0
11, 192120, Note_on_c, 6, 69, 84
11, 192171, Note_on_c, 6, 69, 0
11, 192180, Note_on_c, 6, 69, 84
11, 192231, Note_on_c, 6, 69, 0
11, 192240, Note_on_c, 6, 69, 84
11, 192359, Note_on_c, 6, 69, 0
11, 192600, Note_on_c, 6, 76, 84
11, 192651, Note_on_c, 6, 76, 0
11, 192660, Note_on_c, 6, 76, 84
11, 192711, Note_on_c, 6, 76, 0
11, 192720, Note_on_c, 6, 76, 84
11, 192839, Note_on_c, 6, 76, 0
11, 193080, Note_on_c, 6, 76, 84
11, 193131, Note_on_c, 6, 76, 0
11, 193140, Note_on_c, 6, 76, 84
11, 193191, Note_on_c, 6, 76, 0
11, 193200, Note_on_c, 6, 76, 84
11, 193319, Note_on_c, 6, 76, 0
11, 193440, Note_on_c, 6, 57, 84
11, 193440, Note_on_c, 6, 69, 84
11, 193559, Note_on_c, 6, 57, 0
11, 193559, Note_on_c, 6, 69, 0
11, 193680, Note_on_c, 6, 69, 84
11, 193680, Note_on_c, 6, 57, 84
11, 193799, Note_on_c, 6, 69, 0
11, 193799, Note_on_c, 6, 57, 0
11, 193920, Note_on_c, 6, 69, 84
11, 193920, Note_on_c, 6, 57, 84
11, 194039, Note_on_c, 6, 69, 0
11, 194039, Note_on_c, 6, 57, 0
11, 194160, Note_on_c, 6, 57, 84
11, 194160, Note_on_c, 6, 69, 84
11, 194279, Note_on_c, 6, 57, 0
11, 194279, Note_on_c, 6, 69, 0
11, 194400, Note_on_c, 6, 76, 84
11, 194519, Note_on_c, 6, 76, 0
11, 194640, Note_on_c, 6, 76, 84
11, 194759, Note_on_c, 6, 76, 0
11, 194880, Note_on_c, 6, 76, 84
11, 194999, Note_on_c, 6, 76, 0
11, 195120, Note_on_c, 6, 76, 84
11, 195239, Note_on_c, 6, 76, 0
11, 195360, Note_on_c, 6, 69, 84
11, 195360, Note_on_c, 6, 57, 84
11, 195479, Note_on_c, 6, 69, 0
11, 195479, Note_on_c, 6, 57, 0
11, 196080, Note_on_c, 6, 76, 84
11, 196199, Note_on_c, 6, 76, 0
11, 196320, Note_on_c, 6, 57, 84
11, 196320, Note_on_c, 6, 69, 84
11, 196439, Note_on_c, 6, 57, 0
11, 196439, Note_on_c, 6, 69, 0
11, 196560, Note_on_c, 6, 76, 84
11, 196679, Note_on_c, 6, 76, 0
11, 196800, Note_on_c, 6, 69, 84
11, 196800, Note_on_c, 6, 57, 84
11, 196919, Note_on_c, 6, 69, 0
11, 196919, Note_on_c, 6, 57, 0
11, 197040, Note_on_c, 6, 76, 84
11, 197159, Note_on_c, 6, 76, 0
11, 197280, Note_on_c, 6, 69, 84
11, 197280, Note_on_c, 6, 57, 84
11, 197399, Note_on_c, 6, 69, 0
11, 197399, Note_on_c, 6, 57, 0
11, 198720, Note_on_c, 6, 76, 84
11, 198720, Note_on_c, 6, 69, 84
11, 198944, Note_on_c, 6, 76, 0
11, 198944, Note_on_c, 6, 69, 0
11, 198960, Note_on_c, 6, 76, 84
11, 198960, Note_on_c, 6, 69, 84
11, 199184, Note_on_c, 6, 76, 0
11, 199184, Note_on_c, 6, 69, 0
11, 199200, Note_on_c, 6, 74, 84
11, 199200, Note_on_c, 6, 62, 84
11, 199319, Note_on_c, 6, 74, 0
11, 199319, Note_on_c, 6, 62, 0
11, 199680, Note_on_c, 6, 69, 84
11, 199680, Note_on_c, 6, 81, 84
11, 201239, Note_on_c, 6, 69, 0
11, 201239, Note_on_c, 6, 81, 0
11, 201600, Note_on_c, 6, 81, 84
11, 201600, Note_on_c, 6, 69, 84
11, 203159, Note_on_c, 6, 81, 0
11, 203159, Note_on_c, 6, 69, 0
11, 203280, Note_on_c, 6, 74, 84
11, 203280, Note_on_c, 6, 62, 84
11, 203399, Note_on_c, 6, 74, 0
11, 203399, Note_on_c, 6, 62, 0
11, 203520, Note_on_c, 6, 62, 84
11, 203520, Note_on_c, 6, 74, 84
11, 203639, Note_on_c, 6, 62, 0
11, 203639, Note_on_c, 6, 74, 0
11, 203760, Note_on_c, 6, 62, 84
11, 203760, Note_on_c, 6, 74, 84
11, 203879, Note_on_c, 6, 62, 0
11, 203879, Note_on_c, 6, 74, 0
11, 204000, Note_on_c, 6, 69, 84
11, 204000, Note_on_c, 6, 76, 84
11, 204119, Note_on_c, 6, 69, 0
11, 204119, Note_on_c, 6, 76, 0
11, 204240, Note_on_c, 6, 76, 84
11, 204240, Note_on_c, 6, 69, 84
11, 204359, Note_on_c, 6, 76, 0
11, 204359, Note_on_c, 6, 69, 0
11, 204480, Note_on_c, 6, 69, 84
11, 204480, Note_on_c, 6, 76, 84
11, 204599, Note_on_c, 6, 69, 0
11, 204599, Note_on_c, 6, 76, 0
11, 204720, Note_on_c, 6, 76, 84
11, 204720, Note_on_c, 6, 69, 84
11, 204839, Note_on_c, 6, 76, 0
11, 204839, Note_on_c, 6, 69, 0
11, 204960, Note_on_c, 6, 62, 84
11, 204960, Note_on_c, 6, 74, 84
11, 205079, Note_on_c, 6, 62, 0
11, 205079, Note_on_c, 6, 74, 0
11, 205200, Note_on_c, 6, 74, 84
11, 205200, Note_on_c, 6, 62, 84
11, 205319, Note_on_c, 6, 74, 0
11, 205319, Note_on_c, 6, 62, 0
11, 205440, Note_on_c, 6, 62, 84
11, 205440, Note_on_c, 6, 74, 84
11, 205559, Note_on_c, 6, 62, 0
11, 205559, Note_on_c, 6, 74, 0
11, 205680, Note_on_c, 6, 74, 84
11, 205680, Note_on_c, 6, 62, 84
11, 205799, Note_on_c, 6, 74, 0
11, 205799, Note_on_c, 6, 62, 0
11, 205920, Note_on_c, 6, 74, 84
11, 205920, Note_on_c, 6, 62, 84
11, 206039, Note_on_c, 6, 74, 0
11, 206039, Note_on_c, 6, 62, 0
11, 206160, Note_on_c, 6, 62, 84
11, 206160, Note_on_c, 6, 74, 84
11, 206279, Note_on_c, 6, 62, 0
11, 206279, Note_on_c, 6, 74, 0
11, 206400, Note_on_c, 6, 62, 84
11, 206400, Note_on_c, 6, 74, 84
11, 206519, Note_on_c, 6, 62, 0
11, 206519, Note_on_c, 6, 74, 0
11, 206640, Note_on_c, 6, 62, 84
11, 206640, Note_on_c, 6, 74, 84
11, 206759, Note_on_c, 6, 62, 0
11, 206759, Note_on_c, 6, 74, 0
11, 206880, Note_on_c, 6, 62, 84
11, 206880, Note_on_c, 6, 74, 84
11, 206999, Note_on_c, 6, 62, 0
11, 206999, Note_on_c, 6, 74, 0
11, 207120, Note_on_c, 6, 74, 84
11, 207120, Note_on_c, 6, 62, 84
11, 207239, Note_on_c, 6, 74, 0
11, 207239, Note_on_c, 6, 62, 0
11, 207360, Note_on_c, 6, 62, 84
11, 207360, Note_on_c, 6, 74, 84
11, 207479, Note_on_c, 6, 62, 0
11, 207479, Note_on_c, 6, 74, 0
11, 207600, Note_on_c, 6, 62, 84
11, 207600, Note_on_c, 6, 74, 84
11, 207719, Note_on_c, 6, 62, 0
11, 207719, Note_on_c, 6, 74, 0
11, 207840, Note_on_c, 6, 62, 84
11, 207840, Note_on_c, 6, 74, 84
11, 207959, Note_on_c, 6, 62, 0
11, 207959, Note_on_c, 6, 74, 0
11, 208080, Note_on_c, 6, 62, 76
11, 208080, Note_on_c, 6, 74, 76
11, 208169, Note_on_c, 6, 62, 0
11, 208169, Note_on_c, 6, 74, 0
11, 210000, Note_on_c, 6, 74, 76
11, 210000, Note_on_c, 6, 62, 76
11, 210089, Note_on_c, 6, 74, 0
11, 210089, Note_on_c, 6, 62, 0
11, 213840, Note_on_c, 6, 57, 76
11, 213840, Note_on_c, 6, 69, 76
11, 214079, Note_on_c, 6, 57, 0
11, 214079, Note_on_c, 6, 69, 0
11, 214320, Note_on_c, 6, 76, 76
11, 214559, Note_on_c, 6, 76, 0
11, 214800, Note_on_c, 6, 57, 76
11, 214800, Note_on_c, 6, 69, 76
11, 215039, Note_on_c, 6, 57, 0
11, 215039, Note_on_c, 6, 69, 0
11, 215280, Note_on_c, 6, 76, 76
11, 215519, Note_on_c, 6, 76, 0
11, 218640, Note_on_c, 6, 69, 76
11, 218640, Note_on_c, 6, 57, 76
11, 218879, Note_on_c, 6, 69, 0
11, 218879, Note_on_c, 6, 57, 0
11, 219120, Note_on_c, 6, 76, 76
11, 219359, Note_on_c, 6, 76, 0
11, 219600, Note_on_c, 6, 69, 76
11, 219600, Note_on_c, 6, 57, 76
11, 219839, Note_on_c, 6, 69, 0
11, 219839, Note_on_c, 6, 57, 0
11, 220080, Note_on_c, 6, 76, 76
11, 220319, Note_on_c, 6, 76, 0
11, 229920, Note_on_c, 6, 76, 84
11, 230864, Note_on_c, 6, 76, 0
11, 230880, Note_on_c, 6, 69, 92
11, 230880, Note_on_c, 6, 81, 92
11, 231329, Note_on_c, 6, 69, 0
11, 231329, Note_on_c, 6, 81, 0
11, 231360, Note_on_c, 6, 76, 92
11, 231809, Note_on_c, 6, 76, 0
11, 231840, Note_on_c, 6, 69, 92
11, 232289, Note_on_c, 6, 69, 0
11, 232320, Note_on_c, 6, 76, 92
11, 232769, Note_on_c, 6, 76, 0
11, 232800, Note_on_c, 6, 76, 84
11, 233744, Note_on_c, 6, 76, 0
11, 233760, Note_on_c, 6, 81, 92
11, 233760, Note_on_c, 6, 69, 92
11, 234209, Note_on_c, 6, 81, 0
11, 234209, Note_on_c, 6, 69, 0
11, 234240, Note_on_c, 6, 76, 92
11, 234689, Note_on_c, 6, 76, 0
11, 234720, Note_on_c, 6, 81, 92
11, 234720, Note_on_c, 6, 69, 92
11, 235169, Note_on_c, 6, 81, 0
11, 235169, Note_on_c, 6, 69, 0
11, 235200, Note_on_c, 6, 81, 92
11, 235200, Note_on_c, 6, 69, 92
11, 235649, Note_on_c, 6, 81, 0
11, 235649, Note_on_c, 6, 69, 0
11, 235680, Note_on_c, 6, 76, 92
11, 235769, Note_on_c, 6, 76, 0
11, 235800, Note_on_c, 6, 76, 84
11, 235889, Note_on_c, 6, 76, 0
11, 235920, Note_on_c, 6, 76, 84
11, 236009, Note_on_c, 6, 76, 0
11, 236040, Note_on_c, 6, 76, 84
11, 236129, Note_on_c, 6, 76, 0
11, 236160, Note_on_c, 6, 76, 92
11, 236249, Note_on_c, 6, 76, 0
11, 236280, Note_on_c, 6, 76, 84
11, 236369, Note_on_c, 6, 76, 0
11, 236400, Note_on_c, 6, 76, 84
11, 236489, Note_on_c, 6, 76, 0
11, 236520, Note_on_c, 6, 76, 84
11, 236609, Note_on_c, 6, 76, 0
11, 236640, Note_on_c, 6, 69, 84
11, 236744, Note_on_c, 6, 69, 0
11, 236760, Note_on_c, 6, 69, 84
11, 236864, Note_on_c, 6, 69, 0
11, 236880, Note_on_c, 6, 69, 92
11, 236984, Note_on_c, 6, 69, 0
11, 237000, Note_on_c, 6, 69, 84
11, 237104, Note_on_c, 6, 69, 0
11, 237120, Note_on_c, 6, 69, 84
11, 237224, Note_on_c, 6, 69, 0
11, 237240, Note_on_c, 6, 69, 84
11, 237344, Note_on_c, 6, 69, 0
11, 237360, Note_on_c, 6, 69, 84
11, 237464, Note_on_c, 6, 69, 0
11, 237480, Note_on_c, 6, 69, 84
11, 237584, Note_on_c, 6, 69, 0
11, 237600, Note_on_c, 6, 69, 84
11, 237704, Note_on_c, 6, 69, 0
11, 237720, Note_on_c, 6, 69, 84
11, 237824, Note_on_c, 6, 69, 0
11, 237840, Note_on_c, 6, 69, 92
11, 237944, Note_on_c, 6, 69, 0
11, 237960, Note_on_c, 6, 69, 84
11, 238064, Note_on_c, 6, 69, 0
11, 238080, Note_on_c, 6, 69, 84
11, 238184, Note_on_c, 6, 69, 0
11, 238200, Note_on_c, 6, 69, 84
11, 238304, Note_on_c, 6, 69, 0
11, 238320, Note_on_c, 6, 69, 84
11, 238424, Note_on_c, 6, 69, 0
11, 238440, Note_on_c, 6, 69, 84
11, 238544, Note_on_c, 6, 69, 0
11, 238560, Note_on_c, 6, 69, 84
11, 238664, Note_on_c, 6, 69, 0
11, 238680, Note_on_c, 6, 69, 84
11, 238784, Note_on_c, 6, 69, 0
11, 238800, Note_on_c, 6, 69, 92
11, 238904, Note_on_c, 6, 69, 0
11, 238920, Note_on_c, 6, 69, 84
11, 239024, Note_on_c, 6, 69, 0
11, 239040, Note_on_c, 6, 69, 84
11, 239144, Note_on_c, 6, 69, 0
11, 239160, Note_on_c, 6, 69, 84
11, 239264, Note_on_c, 6, 69, 0
11, 239280, Note_on_c, 6, 69, 92
11, 239384, Note_on_c, 6, 69, 0
11, 239400, Note_on_c, 6, 69, 84
11, 239504, Note_on_c, 6, 69, 0
11, 239520, Note_on_c, 6, 69, 84
11, 239624, Note_on_c, 6, 69, 0
11, 239640, Note_on_c, 6, 69, 84
11, 239744, Note_on_c, 6, 69, 0
11, 239760, Note_on_c, 6, 69, 92
11, 239864, Note_on_c, 6, 69, 0
11, 239880, Note_on_c, 6, 69, 84
11, 239984, Note_on_c, 6, 69, 0
11, 240000, Note_on_c, 6, 69, 84
11, 240104, Note_on_c, 6, 69, 0
11, 240120, Note_on_c, 6, 69, 84
11, 240224, Note_on_c, 6, 69, 0
11, 240240, Note_on_c, 6, 69, 84
11, 240344, Note_on_c, 6, 69, 0
11, 240360, Note_on_c, 6, 69, 84
11, 240464, Note_on_c, 6, 69, 0
11, 240480, Note_on_c, 6, 69, 84
11, 240584, Note_on_c, 6, 69, 0
11, 240600, Note_on_c, 6, 69, 84
11, 240651, Note_on_c, 6, 69, 0
11, 240660, Note_on_c, 6, 69, 84
11, 240711, Note_on_c, 6, 69, 0
11, 240720, Note_on_c, 6, 69, 84
11, 240839, Note_on_c, 6, 69, 0
11, 241560, Note_on_c, 6, 69, 84
11, 241611, Note_on_c, 6, 69, 0
11, 241620, Note_on_c, 6, 69, 84
11, 241671, Note_on_c, 6, 69, 0
11, 241680, Note_on_c, 6, 69, 84
11, 241799, Note_on_c, 6, 69, 0
11, 242520, Note_on_c, 6, 69, 84
11, 242571, Note_on_c, 6, 69, 0
11, 242580, Note_on_c, 6, 69, 84
11, 242631, Note_on_c, 6, 69, 0
11, 242640, Note_on_c, 6, 69, 84
11, 242759, Note_on_c, 6, 69, 0
11, 243000, Note_on_c, 6, 69, 84
11, 243051, Note_on_c, 6, 69, 0
11, 243060, Note_on_c, 6, 69, 84
11, 243111, Note_on_c, 6, 69, 0
11, 243120, Note_on_c, 6, 69, 84
11, 243239, Note_on_c, 6, 69, 0
11, 243480, Note_on_c, 6, 69, 84
11, 243531, Note_on_c, 6, 69, 0
11, 243540, Note_on_c, 6, 69, 84
11, 243591, Note_on_c, 6, 69, 0
11, 243600, Note_on_c, 6, 69, 84
11, 243719, Note_on_c, 6, 69, 0
11, 243960, Note_on_c, 6, 69, 84
11, 244011, Note_on_c, 6, 69, 0
11, 244020, Note_on_c, 6, 69, 84
11, 244071, Note_on_c, 6, 69, 0
11, 244080, Note_on_c, 6, 69, 84
11, 244199, Note_on_c, 6, 69, 0
11, 244320, Note_on_c, 6, 66, 84
11, 244320, Note_on_c, 6, 78, 84
11, 244439, Note_on_c, 6, 66, 0
11, 244439, Note_on_c, 6, 78, 0
11, 244800, Note_on_c, 6, 66, 84
11, 244800, Note_on_c, 6, 78, 84
11, 246359, Note_on_c, 6, 66, 0
11, 246359, Note_on_c, 6, 78, 0
11, 246720, Note_on_c, 6, 66, 84
11, 246720, Note_on_c, 6, 78, 84
11, 248279, Note_on_c, 6, 66, 0
11, 248279, Note_on_c, 6, 78, 0
11, 250080, Note_on_c, 6, 57, 76
11, 250080, Note_on_c, 6, 69, 76
11, 250199, Note_on_c, 6, 57, 0
11, 250199, Note_on_c, 6, 69, 0
11, 251520, Note_on_c, 6, 69, 84
11, 251520, Note_on_c, 6, 57, 84
11, 251639, Note_on_c, 6, 69, 0
11, 251639, Note_on_c, 6, 57, 0
11, 252480, Note_on_c, 6, 62, 76
11, 252480, Note_on_c, 6, 74, 76
11, 252599, Note_on_c, 6, 62, 0
11, 252599, Note_on_c, 6, 74, 0
11, 253440, Note_on_c, 6, 74, 76
11, 253440, Note_on_c, 6, 62, 76
11, 253559, Note_on_c, 6, 74, 0
11, 253559, Note_on_c, 6, 62, 0
11, 254400, Note_on_c, 6, 62, 76
11, 254400, Note_on_c, 6, 74, 76
11, 254519, Note_on_c, 6, 62, 0
11, 254519, Note_on_c, 6, 74, 0
11, 255360, Note_on_c, 6, 62, 76
11, 255360, Note_on_c, 6, 74, 76
11, 255479, Note_on_c, 6, 62, 0
11, 255479, Note_on_c, 6, 74, 0
11, 256320, Note_on_c, 6, 72, 76
11, 256439, Note_on_c, 6, 72, 0
11, 257280, Note_on_c, 6, 72, 76
11, 257399, Note_on_c, 6, 72, 0
11, 258240, Note_on_c, 6, 57, 76
11, 258240, Note_on_c, 6, 69, 76
11, 258359, Note_on_c, 6, 57, 0
11, 258359, Note_on_c, 6, 69, 0
11, 261120, Note_on_c, 6, 69, 76
11, 261120, Note_on_c, 6, 57, 76
11, 261239, Note_on_c, 6, 69, 0
11, 261239, Note_on_c, 6, 57, 0
11, 262080, Note_on_c, 6, 76, 76
11, 262199, Note_on_c, 6, 76, 0
11, 263040, Note_on_c, 6, 76, 76
11, 263159, Note_on_c, 6, 76, 0
11, 264000, Note_on_c, 6, 76, 76
11, 264119, Note_on_c, 6, 76, 0
11, 264960, Note_on_c, 6, 76, 76
11, 265079, Note_on_c, 6, 76, 0
11, 265920, Note_on_c, 6, 76, 76
11, 266039, Note_on_c, 6, 76, 0
11, 266880, Note_on_c, 6, 76, 76
11, 266999, Note_on_c, 6, 76, 0
11, 267840, Note_on_c, 6, 76, 76
11, 267959, Note_on_c, 6, 76, 0
11, 268800, Note_on_c, 6, 76, 76
11, 268919, Note_on_c, 6, 76, 0
11, 269280, Control_c, 6, 11, 112
11, 269760, Note_on_c, 6, 76, 84
11, 269760, Control_c, 6, 11, 112
11, 269856, Control_c, 6, 11, 113
11, 269952, Control_c, 6, 11, 114
11, 270048, Control_c, 6, 11, 115
11, 270144, Control_c, 6, 11, 116
11, 270240, Control_c, 6, 11, 117
11, 270336, Control_c, 6, 11, 118
11, 270432, Control_c, 6, 11, 119
11, 270528, Control_c, 6, 11, 120
11, 270624, Control_c, 6, 11, 121
11, 270720, Control_c, 6, 11, 122
11, 270816, Control_c, 6, 11, 123
11, 270912, Control_c, 6, 11, 124
11, 271008, Control_c, 6, 11, 125
11, 271104, Control_c, 6, 11, 127
11, 271184, Note_on_c, 6, 76, 0
11, 271200, Note_on_c, 6, 69, 84
11, 271304, Note_on_c, 6, 69, 0
11, 271320, Note_on_c, 6, 69, 84
11, 271371, Note_on_c, 6, 69, 0
11, 271380, Note_on_c, 6, 69, 84
11, 271431, Note_on_c, 6, 69, 0
11, 271440, Note_on_c, 6, 69, 84
11, 271559, Note_on_c, 6, 69, 0
11, 271800, Note_on_c, 6, 69, 84
11, 271851, Note_on_c, 6, 69, 0
11, 271860, Note_on_c, 6, 69, 84
11, 271911, Note_on_c, 6, 69, 0
11, 271920, Note_on_c, 6, 69, 84
11, 272039, Note_on_c, 6, 69, 0
11, 272280, Note_on_c, 6, 76, 84
11, 272331, Note_on_c, 6, 76, 0
11, 272340, Note_on_c, 6, 76, 84
11, 272391, Note_on_c, 6, 76, 0
11, 272400, Note_on_c, 6, 76, 84
11, 272519, Note_on_c, 6, 76, 0
11, 272760, Note_on_c, 6, 76, 84
11, 272811, Note_on_c, 6, 76, 0
11, 272820, Note_on_c, 6, 76, 84
11, 272871, Note_on_c, 6, 76, 0
11, 272880, Note_on_c, 6, 76, 84
11, 272999, Note_on_c, 6, 76, 0
11, 273120, Note_on_c, 6, 69, 84
11, 273120, Note_on_c, 6, 57, 84
11, 273239, Note_on_c, 6, 69, 0
11, 273239, Note_on_c, 6, 57, 0
11, 273360, Note_on_c, 6, 57, 84
11, 273360, Note_on_c, 6, 69, 84
11, 273479, Note_on_c, 6, 57, 0
11, 273479, Note_on_c, 6, 69, 0
11, 273600, Note_on_c, 6, 57, 84
11, 273600, Note_on_c, 6, 69, 84
11, 273719, Note_on_c, 6, 57, 0
11, 273719, Note_on_c, 6, 69, 0
11, 273840, Note_on_c, 6, 57, 84
11, 273840, Note_on_c, 6, 69, 84
11, 273959, Note_on_c, 6, 57, 0
11, 273959, Note_on_c, 6, 69, 0
11, 274080, Note_on_c, 6, 76, 84
11, 274199, Note_on_c, 6, 76, 0
11, 274320, Note_on_c, 6, 76, 84
11, 274439, Note_on_c, 6, 76, 0
11, 274560, Note_on_c, 6, 76, 84
11, 274679, Note_on_c, 6, 76, 0
11, 274800, Note_on_c, 6, 76, 84
11, 274919, Note_on_c, 6, 76, 0
11, 275040, Note_on_c, 6, 69, 84
11, 275040, Note_on_c, 6, 57, 84
11, 275144, Note_on_c, 6, 69, 0
11, 275144, Note_on_c, 6, 57, 0
11, 275160, Note_on_c, 6, 69, 84
11, 275211, Note_on_c, 6, 69, 0
11, 275220, Note_on_c, 6, 69, 84
11, 275271, Note_on_c, 6, 69, 0
11, 275280, Note_on_c, 6, 69, 84
11, 275399, Note_on_c, 6, 69, 0
11, 275640, Note_on_c, 6, 69, 84
11, 275691, Note_on_c, 6, 69, 0
11, 275700, Note_on_c, 6, 69, 84
11, 275751, Note_on_c, 6, 69, 0
11, 275760, Note_on_c, 6, 69, 84
11, 275879, Note_on_c, 6, 69, 0
11, 276120, Note_on_c, 6, 76, 84
11, 276171, Note_on_c, 6, 76, 0
11, 276180, Note_on_c, 6, 76, 84
11, 276231, Note_on_c, 6, 76, 0
11, 276240, Note_on_c, 6, 76, 84
11, 276359, Note_on_c, 6, 76, 0
11, 276600, Note_on_c, 6, 76, 84
11, 276651, Note_on_c, 6, 76, 0
11, 276660, Note_on_c, 6, 76, 84
11, 276711, Note_on_c, 6, 76, 0
11, 276720, Note_on_c, 6, 76, 84
11, 276839, Note_on_c, 6, 76, 0
11, 276960, Note_on_c, 6, 69, 84
11, 276960, Note_on_c, 6, 57, 84
11, 277079, Note_on_c, 6, 69, 0
11, 277079, Note_on_c, 6, 57, 0
11, 277200, Note_on_c, 6, 57, 84
11, 277200, Note_on_c, 6, 69, 84
11, 277319, Note_on_c, 6, 57, 0
11, 277319, Note_on_c, 6, 69, 0
11, 277440, Note_on_c, 6, 57, 84
11, 277440, Note_on_c, 6, 69, 84
11, 277559, Note_on_c, 6, 57, 0
11, 277559, Note_on_c, 6, 69, 0
11, 277680, Note_on_c, 6, 57, 84
11, 277680, Note_on_c, 6, 69, 84
11, 277799, Note_on_c, 6, 57, 0
11, 277799, Note_on_c, 6, 69, 0
11, 277920, Note_on_c, 6, 76, 84
11, 278039, Note_on_c, 6, 76, 0
11, 278160, Note_on_c, 6, 76, 84
11, 278279, Note_on_c, 6, 76, 0
11, 278400, Note_on_c, 6, 76, 84
11, 278519, Note_on_c, 6, 76, 0
11, 278640, Note_on_c, 6, 76, 84
11, 278759, Note_on_c, 6, 76, 0
11, 278880, Note_on_c, 6, 76, 84
11, 278999, Note_on_c, 6, 76, 0
11, 279120, Note_on_c, 6, 76, 84
11, 279239, Note_on_c, 6, 76, 0
11, 279360, Note_on_c, 6, 76, 84
11, 279479, Note_on_c, 6, 76, 0
11, 279600, Note_on_c, 6, 76, 84
11, 279719, Note_on_c, 6, 76, 0
11, 279840, Note_on_c, 6, 76, 84
11, 279959, Note_on_c, 6, 76, 0
11, 280080, Note_on_c, 6, 76, 84
11, 280199, Note_on_c, 6, 76, 0
11, 280320, Note_on_c, 6, 76, 84
11, 280439, Note_on_c, 6, 76, 0
11, 280560, Note_on_c, 6, 76, 84
11, 280679, Note_on_c, 6, 76, 0
11, 280800, Note_on_c, 6, 76, 84
11, 280919, Note_on_c, 6, 76, 0
11, 281040, Note_on_c, 6, 76, 84
11, 281159, Note_on_c, 6, 76, 0
11, 281280, Note_on_c, 6, 76, 84
11, 281399, Note_on_c, 6, 76, 0
11, 281520, Note_on_c, 6, 76, 84
11, 281639, Note_on_c, 6, 76, 0
11, 281760, Note_on_c, 6, 79, 92
11, 282704, Note_on_c, 6, 79, 0
11, 282720, Note_on_c, 6, 74, 92
11, 282720, Note_on_c, 6, 62, 92
11, 283664, Note_on_c, 6, 74, 0
11, 283664, Note_on_c, 6, 62, 0
11, 283680, Note_on_c, 6, 81, 92
11, 283680, Note_on_c, 6, 69, 92
11, 284129, Note_on_c, 6, 81, 0
11, 284129, Note_on_c, 6, 69, 0
11, 284160, Note_on_c, 6, 81, 92
11, 284160, Note_on_c, 6, 69, 92
11, 284609, Note_on_c, 6, 81, 0
11, 284609, Note_on_c, 6, 69, 0
11, 284640, Note_on_c, 6, 69, 92
11, 284640, Note_on_c, 6, 81, 92
11, 285089, Note_on_c, 6, 69, 0
11, 285089, Note_on_c, 6, 81, 0
11, 285120, Note_on_c, 6, 76, 92
11, 285569, Note_on_c, 6, 76, 0
11, 285600, Note_on_c, 6, 76, 52
11, 285719, Note_on_c, 6, 76, 0
11, 285840, Note_on_c, 6, 76, 52
11, 285959, Note_on_c, 6, 76, 0
11, 286080, Note_on_c, 6, 76, 52
11, 286199, Note_on_c, 6, 76, 0
11, 286320, Note_on_c, 6, 76, 54
11, 286439, Note_on_c, 6, 76, 0
11, 286560, Note_on_c, 6, 76, 57
11, 286679, Note_on_c, 6, 76, 0
11, 286800, Note_on_c, 6, 76, 60
11, 286919, Note_on_c, 6, 76, 0
11, 287040, Note_on_c, 6, 76, 63
11, 287159, Note_on_c, 6, 76, 0
11, 287280, Note_on_c, 6, 76, 66
11, 287399, Note_on_c, 6, 76, 0
11, 287520, Note_on_c, 6, 76, 69
11, 287639, Note_on_c, 6, 76, 0
11, 287760, Note_on_c, 6, 76, 72
11, 287879, Note_on_c, 6, 76, 0
11, 288000, Note_on_c, 6, 76, 74
11, 288119, Note_on_c, 6, 76, 0
11, 288240, Note_on_c, 6, 76, 77
11, 288359, Note_on_c, 6, 76, 0
11, 288480, Note_on_c, 6, 76, 80
11, 288599, Note_on_c, 6, 76, 0
11, 288720, Note_on_c, 6, 76, 83
11, 288839, Note_on_c, 6, 76, 0
11, 288960, Note_on_c, 6, 76, 86
11, 289079, Note_on_c, 6, 76, 0
11, 289200, Note_on_c, 6, 76, 89
11, 289319, Note_on_c, 6, 76, 0
11, 289440, Note_on_c, 6, 79, 92
11, 290384, Note_on_c, 6, 79, 0
11, 290400, Note_on_c, 6, 74, 92
11, 290400, Note_on_c, 6, 62, 92
11, 291344, Note_on_c, 6, 74, 0
11, 291344, Note_on_c, 6, 62, 0
11, 291360, Note_on_c, 6, 81, 92
11, 291360, Note_on_c, 6, 69, 92
11, 291809, Note_on_c, 6, 81, 0
11, 291809, Note_on_c, 6, 69, 0
11, 291840, Note_on_c, 6, 69, 92
11, 291840, Note_on_c, 6, 81, 92
11, 292289, Note_on_c, 6, 69, 0
11, 292289, Note_on_c, 6, 81, 0
11, 292320, Note_on_c, 6, 69, 92
11, 292320, Note_on_c, 6, 81, 92
11, 292769, Note_on_c, 6, 69, 0
11, 292769, Note_on_c, 6, 81, 0
11, 292800, Note_on_c, 6, 76, 92
11, 293249, Note_on_c, 6, 76, 0
11, 293280, Note_on_c, 6, 57, 84
11, 293280, Note_on_c, 6, 69, 84
11, 293399, Note_on_c, 6, 57, 0
11, 293399, Note_on_c, 6, 69, 0
11, 293760, Note_on_c, 6, 76, 92
11, 294944, Note_on_c, 6, 76, 0
11, 294960, Note_on_c, 6, 76, 84
11, 295184, Note_on_c, 6, 76, 0
11, 295200, Note_on_c, 6, 69, 84
11, 295200, Note_on_c, 6, 57, 84
11, 295319, Note_on_c, 6, 69, 0
11, 295319, Note_on_c, 6, 57, 0
11, 295680, Note_on_c, 6, 76, 92
11, 296864, Note_on_c, 6, 76, 0
11, 296880, Note_on_c, 6, 76, 84
11, 297104, Note_on_c, 6, 76, 0
11, 297120, Note_on_c, 6, 76, 84
11, 297224, Note_on_c, 6, 76, 0
11, 297240, Note_on_c, 6, 76, 84
11, 297344, Note_on_c, 6, 76, 0
11, 297360, Note_on_c, 6, 76, 92
11, 297464, Note_on_c, 6, 76, 0
11, 297480, Note_on_c, 6, 76, 84
11, 297584, Note_on_c, 6, 76, 0
11, 297600, Note_on_c, 6, 76, 92
11, 297704, Note_on_c, 6, 76, 0
11, 297720, Note_on_c, 6, 76, 84
11, 297824, Note_on_c, 6, 76, 0
11, 297840, Note_on_c, 6, 76, 92
11, 297944, Note_on_c, 6, 76, 0
11, 297960, Note_on_c, 6, 76, 84
11, 298064, Note_on_c, 6, 76, 0
11, 298080, Note_on_c, 6, 76, 84
11, 298184, Note_on_c, 6, 76, 0
11, 298200, Note_on_c, 6, 76, 84
11, 298304, Note_on_c, 6, 76, 0
11, 298320, Note_on_c, 6, 76, 84
11, 298424, Note_on_c, 6, 76, 0
11, 298440, Note_on_c, 6, 76, 84
11, 298544, Note_on_c, 6, 76, 0
11, 298560, Note_on_c, 6, 76, 84
11, 298664, Note_on_c, 6, 76, 0
11, 298680, Note_on_c, 6, 76, 84
11, 298784, Note_on_c, 6, 76, 0
11, 298800, Note_on_c, 6, 76, 84
11, 298904, Note_on_c, 6, 76, 0
11, 298920, Note_on_c, 6, 76, 84
11, 299024, Note_on_c, 6, 76, 0
11, 299040, Note_on_c, 6, 69, 84
11, 299159, Note_on_c, 6, 69, 0
11, 299400, Note_on_c, 6, 69, 84
11, 299451, Note_on_c, 6, 69, 0
11, 299460, Note_on_c, 6, 69, 84
11, 299511, Note_on_c, 6, 69, 0
11, 299520, Note_on_c, 6, 69, 84
11, 299639, Note_on_c, 6, 69, 0
11, 299880, Note_on_c, 6, 69, 84
11, 299931, Note_on_c, 6, 69, 0
11, 299940, Note_on_c, 6, 69, 84
11, 299991, Note_on_c, 6, 69, 0
11, 300000, Note_on_c, 6, 69, 84
11, 300119, Note_on_c, 6, 69, 0
11, 300119, End_track
12, 0, Start_track
12, 0, Title_t, "Timpani"
12, 0, MIDI_port, 0
12, 0, Program_c, 8, 47
12, 0, Control_c, 8, 7, 96
12, 0, Control_c, 8, 10, 25
12, 0, Control_c, 8, 11, 127
12, 120, Note_on_c, 8, 52, 84
12, 179, Note_on_c, 8, 52, 0
12, 180, Note_on_c, 8, 52, 84
12, 239, Note_on_c, 8, 52, 0
12, 240, Note_on_c, 8, 52, 84
12, 359, Note_on_c, 8, 52, 0
12, 1080, Note_on_c, 8, 52, 84
12, 1139, Note_on_c, 8, 52, 0
12, 1140, Note_on_c, 8, 52, 84
12, 1199, Note_on_c, 8, 52, 0
12, 1200, Note_on_c, 8, 52, 84
12, 1319, Note_on_c, 8, 52, 0
12, 1920, Note_on_c, 8, 52, 84
12, 2039, Note_on_c, 8, 52, 0
12, 2160, Note_on_c, 8, 52, 92
12, 2279, Note_on_c, 8, 52, 0
12, 2640, Note_on_c, 8, 52, 92
12, 2759, Note_on_c, 8, 52, 0
12, 3120, Note_on_c, 8, 52, 92
12, 3239, Note_on_c, 8, 52, 0
12, 3600, Note_on_c, 8, 52, 92
12, 3719, Note_on_c, 8, 52, 0
12, 4080, Note_on_c, 8, 52, 92
12, 4199, Note_on_c, 8, 52, 0
12, 4560, Note_on_c, 8, 52, 92
12, 4679, Note_on_c, 8, 52, 0
12, 5040, Note_on_c, 8, 52, 92
12, 5159, Note_on_c, 8, 52, 0
12, 5280, Note_on_c, 8, 45, 84
12, 5399, Note_on_c, 8, 45, 0
12, 5400, Note_on_c, 8, 45, 84
12, 5459, Note_on_c, 8, 45, 0
12, 5460, Note_on_c, 8, 45, 84
12, 5519, Note_on_c, 8, 45, 0
12, 5520, Note_on_c, 8, 45, 84
12, 5639, Note_on_c, 8, 45, 0
12, 5760, Note_on_c, 8, 52, 84
12, 5879, Note_on_c, 8, 52, 0
12, 6000, Note_on_c, 8, 52, 92
12, 6119, Note_on_c, 8, 52, 0
12, 6480, Note_on_c, 8, 52, 92
12, 6599, Note_on_c, 8, 52, 0
12, 6960, Note_on_c, 8, 52, 92
12, 7079, Note_on_c, 8, 52, 0
12, 7440, Note_on_c, 8, 52, 92
12, 7559, Note_on_c, 8, 52, 0
12, 7920, Note_on_c, 8, 52, 92
12, 8039, Note_on_c, 8, 52, 0
12, 8400, Note_on_c, 8, 52, 92
12, 8519, Note_on_c, 8, 52, 0
12, 8880, Note_on_c, 8, 52, 92
12, 8999, Note_on_c, 8, 52, 0
12, 9120, Note_on_c, 8, 45, 84
12, 9239, Note_on_c, 8, 45, 0
12, 9240, Note_on_c, 8, 45, 84
12, 9299, Note_on_c, 8, 45, 0
12, 9300, Note_on_c, 8, 45, 84
12, 9359, Note_on_c, 8, 45, 0
12, 9360, Note_on_c, 8, 45, 84
12, 9479, Note_on_c, 8, 45, 0
12, 9600, Note_on_c, 8, 45, 84
12, 9719, Note_on_c, 8, 45, 0
12, 9840, Note_on_c, 8, 45, 92
12, 9959, Note_on_c, 8, 45, 0
12, 10320, Note_on_c, 8, 45, 92
12, 10439, Note_on_c, 8, 45, 0
12, 10800, Note_on_c, 8, 45, 92
12, 10919, Note_on_c, 8, 45, 0
12, 11760, Note_on_c, 8, 52, 92
12, 11879, Note_on_c, 8, 52, 0
12, 12240, Note_on_c, 8, 45, 92
12, 12359, Note_on_c, 8, 45, 0
12, 12720, Note_on_c, 8, 52, 92
12, 12839, Note_on_c, 8, 52, 0
12, 12960, Note_on_c, 8, 45, 84
12, 13079, Note_on_c, 8, 45, 0
12, 13080, Note_on_c, 8, 45, 84
12, 13139, Note_on_c, 8, 45, 0
12, 13140, Note_on_c, 8, 45, 84
12, 13199, Note_on_c, 8, 45, 0
12, 13200, Note_on_c, 8, 45, 84
12, 13319, Note_on_c, 8, 45, 0
12, 13440, Note_on_c, 8, 45, 84
12, 13559, Note_on_c, 8, 45, 0
12, 13680, Note_on_c, 8, 45, 92
12, 13799, Note_on_c, 8, 45, 0
12, 14160, Note_on_c, 8, 45, 92
12, 14279, Note_on_c, 8, 45, 0
12, 14640, Note_on_c, 8, 45, 92
12, 14759, Note_on_c, 8, 45, 0
12, 15600, Note_on_c, 8, 52, 92
12, 15719, Note_on_c, 8, 52, 0
12, 16080, Note_on_c, 8, 45, 92
12, 16199, Note_on_c, 8, 45, 0
12, 16560, Note_on_c, 8, 52, 92
12, 16679, Note_on_c, 8, 52, 0
12, 16800, Note_on_c, 8, 45, 84
12, 16919, Note_on_c, 8, 45, 0
12, 16920, Note_on_c, 8, 45, 84
12, 16979, Note_on_c, 8, 45, 0
12, 16980, Note_on_c, 8, 45, 84
12, 17039, Note_on_c, 8, 45, 0
12, 17040, Note_on_c, 8, 45, 84
12, 17159, Note_on_c, 8, 45, 0
12, 17400, Note_on_c, 8, 45, 84
12, 17459, Note_on_c, 8, 45, 0
12, 17460, Note_on_c, 8, 45, 84
12, 17519, Note_on_c, 8, 45, 0
12, 17520, Note_on_c, 8, 45, 84
12, 17639, Note_on_c, 8, 45, 0
12, 17880, Note_on_c, 8, 52, 84
12, 17939, Note_on_c, 8, 52, 0
12, 17940, Note_on_c, 8, 52, 84
12, 17999, Note_on_c, 8, 52, 0
12, 18000, Note_on_c, 8, 52, 84
12, 18119, Note_on_c, 8, 52, 0
12, 18360, Note_on_c, 8, 52, 84
12, 18419, Note_on_c, 8, 52, 0
12, 18420, Note_on_c, 8, 52, 84
12, 18479, Note_on_c, 8, 52, 0
12, 18480, Note_on_c, 8, 52, 84
12, 18599, Note_on_c, 8, 52, 0
12, 18720, Note_on_c, 8, 45, 84
12, 18839, Note_on_c, 8, 45, 0
12, 18960, Note_on_c, 8, 45, 84
12, 19079, Note_on_c, 8, 45, 0
12, 19200, Note_on_c, 8, 45, 84
12, 19319, Note_on_c, 8, 45, 0
12, 19440, Note_on_c, 8, 45, 84
12, 19559, Note_on_c, 8, 45, 0
12, 19680, Note_on_c, 8, 52, 84
12, 19799, Note_on_c, 8, 52, 0
12, 19920, Note_on_c, 8, 52, 84
12, 20039, Note_on_c, 8, 52, 0
12, 20160, Note_on_c, 8, 52, 84
12, 20279, Note_on_c, 8, 52, 0
12, 20400, Note_on_c, 8, 52, 84
12, 20519, Note_on_c, 8, 52, 0
12, 20640, Note_on_c, 8, 45, 84
12, 20759, Note_on_c, 8, 45, 0
12, 20760, Note_on_c, 8, 45, 84
12, 20819, Note_on_c, 8, 45, 0
12, 20820, Note_on_c, 8, 45, 84
12, 20879, Note_on_c, 8, 45, 0
12, 20880, Note_on_c, 8, 45, 84
12, 20999, Note_on_c, 8, 45, 0
12, 21240, Note_on_c, 8, 45, 84
12, 21299, Note_on_c, 8, 45, 0
12, 21300, Note_on_c, 8, 45, 84
12, 21359, Note_on_c, 8, 45, 0
12, 21360, Note_on_c, 8, 45, 84
12, 21479, Note_on_c, 8, 45, 0
12, 21720, Note_on_c, 8, 52, 84
12, 21779, Note_on_c, 8, 52, 0
12, 21780, Note_on_c, 8, 52, 84
12, 21839, Note_on_c, 8, 52, 0
12, 21840, Note_on_c, 8, 52, 84
12, 21959, Note_on_c, 8, 52, 0
12, 22200, Note_on_c, 8, 52, 84
12, 22259, Note_on_c, 8, 52, 0
12, 22260, Note_on_c, 8, 52, 84
12, 22319, Note_on_c, 8, 52, 0
12, 22320, Note_on_c, 8, 52, 84
12, 22439, Note_on_c, 8, 52, 0
12, 22560, Note_on_c, 8, 45, 84
12, 22679, Note_on_c, 8, 45, 0
12, 22800, Note_on_c, 8, 45, 84
12, 22919, Note_on_c, 8, 45, 0
12, 23040, Note_on_c, 8, 45, 84
12, 23159, Note_on_c, 8, 45, 0
12, 23280, Note_on_c, 8, 45, 84
12, 23399, Note_on_c, 8, 45, 0
12, 23520, Note_on_c, 8, 52, 84
12, 23639, Note_on_c, 8, 52, 0
12, 23760, Note_on_c, 8, 52, 84
12, 23879, Note_on_c, 8, 52, 0
12, 24000, Note_on_c, 8, 52, 84
12, 24119, Note_on_c, 8, 52, 0
12, 24240, Note_on_c, 8, 52, 84
12, 24359, Note_on_c, 8, 52, 0
12, 24480, Note_on_c, 8, 45, 84
12, 24599, Note_on_c, 8, 45, 0
12, 25200, Note_on_c, 8, 52, 84
12, 25319, Note_on_c, 8, 52, 0
12, 25440, Note_on_c, 8, 45, 84
12, 25559, Note_on_c, 8, 45, 0
12, 25680, Note_on_c, 8, 52, 84
12, 25799, Note_on_c, 8, 52, 0
12, 25920, Note_on_c, 8, 45, 84
12, 26039, Note_on_c, 8, 45, 0
12, 26160, Note_on_c, 8, 52, 84
12, 26279, Note_on_c, 8, 52, 0
12, 26400, Note_on_c, 8, 45, 84
12, 26519, Note_on_c, 8, 45, 0
12, 27120, Note_on_c, 8, 52, 84
12, 27239, Note_on_c, 8, 52, 0
12, 27360, Note_on_c, 8, 45, 84
12, 27479, Note_on_c, 8, 45, 0
12, 27600, Note_on_c, 8, 52, 84
12, 27719, Note_on_c, 8, 52, 0
12, 27840, Note_on_c, 8, 45, 84
12, 27959, Note_on_c, 8, 45, 0
12, 32160, Note_on_c, 8, 45, 84
12, 32279, Note_on_c, 8, 45, 0
12, 32400, Note_on_c, 8, 45, 84
12, 32519, Note_on_c, 8, 45, 0
12, 32640, Note_on_c, 8, 45, 84
12, 32759, Note_on_c, 8, 45, 0
12, 32880, Note_on_c, 8, 45, 84
12, 32999, Note_on_c, 8, 45, 0
12, 34080, Note_on_c, 8, 45, 84
12, 34199, Note_on_c, 8, 45, 0
12, 34320, Note_on_c, 8, 45, 84
12, 34439, Note_on_c, 8, 45, 0
12, 34560, Note_on_c, 8, 52, 84
12, 34679, Note_on_c, 8, 52, 0
12, 34800, Note_on_c, 8, 52, 84
12, 34919, Note_on_c, 8, 52, 0
12, 35040, Note_on_c, 8, 45, 84
12, 35159, Note_on_c, 8, 45, 0
12, 35280, Note_on_c, 8, 45, 84
12, 35399, Note_on_c, 8, 45, 0
12, 35520, Note_on_c, 8, 45, 84
12, 35639, Note_on_c, 8, 45, 0
12, 35760, Note_on_c, 8, 45, 84
12, 35879, Note_on_c, 8, 45, 0
12, 36000, Note_on_c, 8, 45, 84
12, 36119, Note_on_c, 8, 45, 0
12, 36240, Note_on_c, 8, 45, 84
12, 36359, Note_on_c, 8, 45, 0
12, 36480, Note_on_c, 8, 45, 84
12, 36599, Note_on_c, 8, 45, 0
12, 36720, Note_on_c, 8, 45, 84
12, 36839, Note_on_c, 8, 45, 0
12, 37200, Note_on_c, 8, 45, 76
12, 37319, Note_on_c, 8, 45, 0
12, 39120, Note_on_c, 8, 45, 76
12, 39239, Note_on_c, 8, 45, 0
12, 42960, Note_on_c, 8, 52, 76
12, 43199, Note_on_c, 8, 52, 0
12, 43920, Note_on_c, 8, 52, 76
12, 44159, Note_on_c, 8, 52, 0
12, 47760, Note_on_c, 8, 52, 76
12, 47999, Note_on_c, 8, 52, 0
12, 48720, Note_on_c, 8, 52, 76
12, 48959, Note_on_c, 8, 52, 0
12, 51360, Note_on_c, 8, 45, 52
12, 51419, Note_on_c, 8, 45, 0
12, 51420, Note_on_c, 8, 45, 52
12, 51479, Note_on_c, 8, 45, 0
12, 51480, Note_on_c, 8, 45, 52
12, 51539, Note_on_c, 8, 45, 0
12, 51540, Note_on_c, 8, 45, 53
12, 51599, Note_on_c, 8, 45, 0
12, 51600, Note_on_c, 8, 45, 53
12, 51659, Note_on_c, 8, 45, 0
12, 51660, Note_on_c, 8, 45, 53
12, 51719, Note_on_c, 8, 45, 0
12, 51720, Note_on_c, 8, 45, 54
12, 51779, Note_on_c, 8, 45, 0
12, 51780, Note_on_c, 8, 45, 54
12, 51839, Note_on_c, 8, 45, 0
12, 51840, Note_on_c, 8, 45, 54
12, 51899, Note_on_c, 8, 45, 0
12, 51900, Note_on_c, 8, 45, 55
12, 51959, Note_on_c, 8, 45, 0
12, 51960, Note_on_c, 8, 45, 55
12, 52019, Note_on_c, 8, 45, 0
12, 52020, Note_on_c, 8, 45, 55
12, 52079, Note_on_c, 8, 45, 0
12, 52080, Note_on_c, 8, 45, 56
12, 52139, Note_on_c, 8, 45, 0
12, 52140, Note_on_c, 8, 45, 56
12, 52199, Note_on_c, 8, 45, 0
12, 52200, Note_on_c, 8, 45, 56
12, 52259, Note_on_c, 8, 45, 0
12, 52260, Note_on_c, 8, 45, 57
12, 52319, Note_on_c, 8, 45, 0
12, 52320, Note_on_c, 8, 45, 57
12, 52379, Note_on_c, 8, 45, 0
12, 52380, Note_on_c, 8, 45, 57
12, 52439, Note_on_c, 8, 45, 0
12, 52440, Note_on_c, 8, 45, 58
12, 52499, Note_on_c, 8, 45, 0
12, 52500, Note_on_c, 8, 45, 58
12, 52559, Note_on_c, 8, 45, 0
12, 52560, Note_on_c, 8, 45, 58
12, 52619, Note_on_c, 8, 45, 0
12, 52620, Note_on_c, 8, 45, 59
12, 52679, Note_on_c, 8, 45, 0
12, 52680, Note_on_c, 8, 45, 59
12, 52739, Note_on_c, 8, 45, 0
12, 52740, Note_on_c, 8, 45, 59
12, 52799, Note_on_c, 8, 45, 0
12, 52800, Note_on_c, 8, 45, 60
12, 52859, Note_on_c, 8, 45, 0
12, 52860, Note_on_c, 8, 45, 60
12, 52919, Note_on_c, 8, 45, 0
12, 52920, Note_on_c, 8, 45, 60
12, 52979, Note_on_c, 8, 45, 0
12, 52980, Note_on_c, 8, 45, 61
12, 53039, Note_on_c, 8, 45, 0
12, 53040, Note_on_c, 8, 45, 61
12, 53099, Note_on_c, 8, 45, 0
12, 53100, Note_on_c, 8, 45, 61
12, 53159, Note_on_c, 8, 45, 0
12, 53160, Note_on_c, 8, 45, 62
12, 53219, Note_on_c, 8, 45, 0
12, 53220, Note_on_c, 8, 45, 62
12, 53279, Note_on_c, 8, 45, 0
12, 53280, Note_on_c, 8, 45, 62
12, 53339, Note_on_c, 8, 45, 0
12, 53340, Note_on_c, 8, 45, 63
12, 53399, Note_on_c, 8, 45, 0
12, 53400, Note_on_c, 8, 45, 63
12, 53459, Note_on_c, 8, 45, 0
12, 53460, Note_on_c, 8, 45, 63
12, 53519, Note_on_c, 8, 45, 0
12, 53520, Note_on_c, 8, 45, 64
12, 53579, Note_on_c, 8, 45, 0
12, 53580, Note_on_c, 8, 45, 64
12, 53639, Note_on_c, 8, 45, 0
12, 53640, Note_on_c, 8, 45, 64
12, 53699, Note_on_c, 8, 45, 0
12, 53700, Note_on_c, 8, 45, 65
12, 53759, Note_on_c, 8, 45, 0
12, 53760, Note_on_c, 8, 45, 65
12, 53819, Note_on_c, 8, 45, 0
12, 53820, Note_on_c, 8, 45, 65
12, 53879, Note_on_c, 8, 45, 0
12, 53880, Note_on_c, 8, 45, 66
12, 53939, Note_on_c, 8, 45, 0
12, 53940, Note_on_c, 8, 45, 66
12, 53999, Note_on_c, 8, 45, 0
12, 54000, Note_on_c, 8, 45, 66
12, 54059, Note_on_c, 8, 45, 0
12, 54060, Note_on_c, 8, 45, 67
12, 54119, Note_on_c, 8, 45, 0
12, 54120, Note_on_c, 8, 45, 67
12, 54179, Note_on_c, 8, 45, 0
12, 54180, Note_on_c, 8, 45, 67
12, 54239, Note_on_c, 8, 45, 0
12, 54240, Note_on_c, 8, 45, 68
12, 54299, Note_on_c, 8, 45, 0
12, 54300, Note_on_c, 8, 45, 68
12, 54359, Note_on_c, 8, 45, 0
12, 54360, Note_on_c, 8, 45, 68
12, 54419, Note_on_c, 8, 45, 0
12, 54420, Note_on_c, 8, 45, 69
12, 54479, Note_on_c, 8, 45, 0
12, 54480, Note_on_c, 8, 45, 69
12, 54539, Note_on_c, 8, 45, 0
12, 54540, Note_on_c, 8, 45, 69
12, 54599, Note_on_c, 8, 45, 0
12, 54600, Note_on_c, 8, 45, 70
12, 54659, Note_on_c, 8, 45, 0
12, 54660, Note_on_c, 8, 45, 70
12, 54719, Note_on_c, 8, 45, 0
12, 54720, Note_on_c, 8, 45, 70
12, 54779, Note_on_c, 8, 45, 0
12, 54780, Note_on_c, 8, 45, 71
12, 54839, Note_on_c, 8, 45, 0
12, 54840, Note_on_c, 8, 45, 71
12, 54899, Note_on_c, 8, 45, 0
12, 54900, Note_on_c, 8, 45, 71
12, 54959, Note_on_c, 8, 45, 0
12, 54960, Note_on_c, 8, 45, 72
12, 55019, Note_on_c, 8, 45, 0
12, 55020, Note_on_c, 8, 45, 72
12, 55079, Note_on_c, 8, 45, 0
12, 55080, Note_on_c, 8, 45, 72
12, 55139, Note_on_c, 8, 45, 0
12, 55140, Note_on_c, 8, 45, 73
12, 55199, Note_on_c, 8, 45, 0
12, 55200, Note_on_c, 8, 45, 73
12, 55259, Note_on_c, 8, 45, 0
12, 55260, Note_on_c, 8, 45, 73
12, 55319, Note_on_c, 8, 45, 0
12, 55320, Note_on_c, 8, 45, 74
12, 55379, Note_on_c, 8, 45, 0
12, 55380, Note_on_c, 8, 45, 74
12, 55439, Note_on_c, 8, 45, 0
12, 55440, Note_on_c, 8, 45, 74
12, 55499, Note_on_c, 8, 45, 0
12, 55500, Note_on_c, 8, 45, 75
12, 55559, Note_on_c, 8, 45, 0
12, 55560, Note_on_c, 8, 45, 75
12, 55619, Note_on_c, 8, 45, 0
12, 55620, Note_on_c, 8, 45, 75
12, 55679, Note_on_c, 8, 45, 0
12, 55680, Note_on_c, 8, 45, 76
12, 55739, Note_on_c, 8, 45, 0
12, 55740, Note_on_c, 8, 45, 76
12, 55799, Note_on_c, 8, 45, 0
12, 55800, Note_on_c, 8, 45, 76
12, 55859, Note_on_c, 8, 45, 0
12, 55860, Note_on_c, 8, 45, 77
12, 55919, Note_on_c, 8, 45, 0
12, 55920, Note_on_c, 8, 45, 77
12, 55979, Note_on_c, 8, 45, 0
12, 55980, Note_on_c, 8, 45, 77
12, 56039, Note_on_c, 8, 45, 0
12, 56040, Note_on_c, 8, 45, 78
12, 56099, Note_on_c, 8, 45, 0
12, 56100, Note_on_c, 8, 45, 78
12, 56159, Note_on_c, 8, 45, 0
12, 56160, Note_on_c, 8, 45, 78
12, 56219, Note_on_c, 8, 45, 0
12, 56220, Note_on_c, 8, 45, 79
12, 56279, Note_on_c, 8, 45, 0
12, 56280, Note_on_c, 8, 45, 79
12, 56339, Note_on_c, 8, 45, 0
12, 56340, Note_on_c, 8, 45, 79
12, 56399, Note_on_c, 8, 45, 0
12, 56400, Note_on_c, 8, 45, 80
12, 56459, Note_on_c, 8, 45, 0
12, 56460, Note_on_c, 8, 45, 80
12, 56519, Note_on_c, 8, 45, 0
12, 56520, Note_on_c, 8, 45, 80
12, 56579, Note_on_c, 8, 45, 0
12, 56580, Note_on_c, 8, 45, 81
12, 56639, Note_on_c, 8, 45, 0
12, 56640, Note_on_c, 8, 45, 81
12, 56699, Note_on_c, 8, 45, 0
12, 56700, Note_on_c, 8, 45, 81
12, 56759, Note_on_c, 8, 45, 0
12, 56760, Note_on_c, 8, 45, 82
12, 56819, Note_on_c, 8, 45, 0
12, 56820, Note_on_c, 8, 45, 82
12, 56879, Note_on_c, 8, 45, 0
12, 56880, Note_on_c, 8, 45, 82
12, 56939, Note_on_c, 8, 45, 0
12, 56940, Note_on_c, 8, 45, 83
12, 56999, Note_on_c, 8, 45, 0
12, 57000, Note_on_c, 8, 45, 83
12, 57059, Note_on_c, 8, 45, 0
12, 57060, Note_on_c, 8, 45, 83
12, 57119, Note_on_c, 8, 45, 0
12, 57120, Note_on_c, 8, 45, 84
12, 57179, Note_on_c, 8, 45, 0
12, 57180, Note_on_c, 8, 45, 84
12, 57239, Note_on_c, 8, 45, 0
12, 57240, Note_on_c, 8, 45, 84
12, 57299, Note_on_c, 8, 45, 0
12, 57300, Note_on_c, 8, 45, 84
12, 57359, Note_on_c, 8, 45, 0
12, 57360, Note_on_c, 8, 45, 84
12, 57419, Note_on_c, 8, 45, 0
12, 57420, Note_on_c, 8, 45, 84
12, 57479, Note_on_c, 8, 45, 0
12, 57480, Note_on_c, 8, 45, 84
12, 57539, Note_on_c, 8, 45, 0
12, 57540, Note_on_c, 8, 45, 84
12, 57599, Note_on_c, 8, 45, 0
12, 57600, Note_on_c, 8, 45, 84
12, 57659, Note_on_c, 8, 45, 0
12, 57660, Note_on_c, 8, 45, 84
12, 57719, Note_on_c, 8, 45, 0
12, 57720, Note_on_c, 8, 45, 84
12, 57779, Note_on_c, 8, 45, 0
12, 57780, Note_on_c, 8, 45, 84
12, 57839, Note_on_c, 8, 45, 0
12, 57840, Note_on_c, 8, 45, 84
12, 57899, Note_on_c, 8, 45, 0
12, 57900, Note_on_c, 8, 45, 84
12, 57959, Note_on_c, 8, 45, 0
12, 57960, Note_on_c, 8, 45, 84
12, 58019, Note_on_c, 8, 45, 0
12, 58020, Note_on_c, 8, 45, 84
12, 58079, Note_on_c, 8, 45, 0
12, 58080, Note_on_c, 8, 52, 92
12, 58139, Note_on_c, 8, 52, 0
12, 58140, Note_on_c, 8, 52, 84
12, 58199, Note_on_c, 8, 52, 0
12, 58200, Note_on_c, 8, 52, 84
12, 58259, Note_on_c, 8, 52, 0
12, 58260, Note_on_c, 8, 52, 84
12, 58319, Note_on_c, 8, 52, 0
12, 58320, Note_on_c, 8, 52, 84
12, 58379, Note_on_c, 8, 52, 0
12, 58380, Note_on_c, 8, 52, 84
12, 58439, Note_on_c, 8, 52, 0
12, 58440, Note_on_c, 8, 52, 84
12, 58499, Note_on_c, 8, 52, 0
12, 58500, Note_on_c, 8, 52, 84
12, 58559, Note_on_c, 8, 52, 0
12, 58560, Note_on_c, 8, 45, 92
12, 58619, Note_on_c, 8, 45, 0
12, 58620, Note_on_c, 8, 45, 84
12, 58679, Note_on_c, 8, 45, 0
12, 58680, Note_on_c, 8, 45, 84
12, 58739, Note_on_c, 8, 45, 0
12, 58740, Note_on_c, 8, 45, 84
12, 58799, Note_on_c, 8, 45, 0
12, 58800, Note_on_c, 8, 45, 84
12, 58859, Note_on_c, 8, 45, 0
12, 58860, Note_on_c, 8, 45, 84
12, 58919, Note_on_c, 8, 45, 0
12, 58920, Note_on_c, 8, 45, 84
12, 58979, Note_on_c, 8, 45, 0
12, 58980, Note_on_c, 8, 45, 84
12, 59039, Note_on_c, 8, 45, 0
12, 59040, Note_on_c, 8, 52, 92
12, 59099, Note_on_c, 8, 52, 0
12, 59100, Note_on_c, 8, 52, 84
12, 59159, Note_on_c, 8, 52, 0
12, 59160, Note_on_c, 8, 52, 84
12, 59219, Note_on_c, 8, 52, 0
12, 59220, Note_on_c, 8, 52, 84
12, 59279, Note_on_c, 8, 52, 0
12, 59280, Note_on_c, 8, 52, 84
12, 59339, Note_on_c, 8, 52, 0
12, 59340, Note_on_c, 8, 52, 84
12, 59399, Note_on_c, 8, 52, 0
12, 59400, Note_on_c, 8, 52, 84
12, 59459, Note_on_c, 8, 52, 0
12, 59460, Note_on_c, 8, 52, 84
12, 59519, Note_on_c, 8, 52, 0
12, 59520, Note_on_c, 8, 45, 92
12, 59579, Note_on_c, 8, 45, 0
12, 59580, Note_on_c, 8, 45, 84
12, 59639, Note_on_c, 8, 45, 0
12, 59640, Note_on_c, 8, 45, 84
12, 59699, Note_on_c, 8, 45, 0
12, 59700, Note_on_c, 8, 45, 84
12, 59759, Note_on_c, 8, 45, 0
12, 59760, Note_on_c, 8, 45, 84
12, 59819, Note_on_c, 8, 45, 0
12, 59820, Note_on_c, 8, 45, 84
12, 59879, Note_on_c, 8, 45, 0
12, 59880, Note_on_c, 8, 45, 84
12, 59939, Note_on_c, 8, 45, 0
12, 59940, Note_on_c, 8, 45, 84
12, 59999, Note_on_c, 8, 45, 0
12, 60000, Note_on_c, 8, 52, 92
12, 60059, Note_on_c, 8, 52, 0
12, 60060, Note_on_c, 8, 52, 84
12, 60119, Note_on_c, 8, 52, 0
12, 60120, Note_on_c, 8, 52, 84
12, 60179, Note_on_c, 8, 52, 0
12, 60180, Note_on_c, 8, 52, 84
12, 60239, Note_on_c, 8, 52, 0
12, 60240, Note_on_c, 8, 52, 84
12, 60299, Note_on_c, 8, 52, 0
12, 60300, Note_on_c, 8, 52, 84
12, 60359, Note_on_c, 8, 52, 0
12, 60360, Note_on_c, 8, 52, 84
12, 60419, Note_on_c, 8, 52, 0
12, 60420, Note_on_c, 8, 52, 84
12, 60479, Note_on_c, 8, 52, 0
12, 60480, Note_on_c, 8, 45, 92
12, 60539, Note_on_c, 8, 45, 0
12, 60540, Note_on_c, 8, 45, 84
12, 60599, Note_on_c, 8, 45, 0
12, 60600, Note_on_c, 8, 45, 84
12, 60659, Note_on_c, 8, 45, 0
12, 60660, Note_on_c, 8, 45, 84
12, 60719, Note_on_c, 8, 45, 0
12, 60720, Note_on_c, 8, 45, 84
12, 60779, Note_on_c, 8, 45, 0
12, 60780, Note_on_c, 8, 45, 84
12, 60839, Note_on_c, 8, 45, 0
12, 60840, Note_on_c, 8, 45, 84
12, 60899, Note_on_c, 8, 45, 0
12, 60900, Note_on_c, 8, 45, 84
12, 60959, Note_on_c, 8, 45, 0
12, 60960, Note_on_c, 8, 52, 92
12, 61019, Note_on_c, 8, 52, 0
12, 61020, Note_on_c, 8, 52, 84
12, 61079, Note_on_c, 8, 52, 0
12, 61080, Note_on_c, 8, 52, 84
12, 61139, Note_on_c, 8, 52, 0
12, 61140, Note_on_c, 8, 52, 84
12, 61199, Note_on_c, 8, 52, 0
12, 61200, Note_on_c, 8, 52, 84
12, 61259, Note_on_c, 8, 52, 0
12, 61260, Note_on_c, 8, 52, 84
12, 61319, Note_on_c, 8, 52, 0
12, 61320, Note_on_c, 8, 52, 84
12, 61379, Note_on_c, 8, 52, 0
12, 61380, Note_on_c, 8, 52, 84
12, 61439, Note_on_c, 8, 52, 0
12, 61920, Note_on_c, 8, 52, 84
12, 61979, Note_on_c, 8, 52, 0
12, 61980, Note_on_c, 8, 52, 84
12, 62039, Note_on_c, 8, 52, 0
12, 62040, Note_on_c, 8, 52, 84
12, 62099, Note_on_c, 8, 52, 0
12, 62100, Note_on_c, 8, 52, 84
12, 62159, Note_on_c, 8, 52, 0
12, 62160, Note_on_c, 8, 45, 92
12, 62219, Note_on_c, 8, 45, 0
12, 62220, Note_on_c, 8, 45, 84
12, 62279, Note_on_c, 8, 45, 0
12, 62280, Note_on_c, 8, 45, 84
12, 62339, Note_on_c, 8, 45, 0
12, 62340, Note_on_c, 8, 45, 84
12, 62399, Note_on_c, 8, 45, 0
12, 62400, Note_on_c, 8, 45, 92
12, 62459, Note_on_c, 8, 45, 0
12, 62460, Note_on_c, 8, 45, 84
12, 62519, Note_on_c, 8, 45, 0
12, 62520, Note_on_c, 8, 45, 84
12, 62579, Note_on_c, 8, 45, 0
12, 62580, Note_on_c, 8, 45, 84
12, 62639, Note_on_c, 8, 45, 0
12, 62640, Note_on_c, 8, 45, 84
12, 62699, Note_on_c, 8, 45, 0
12, 62700, Note_on_c, 8, 45, 84
12, 62759, Note_on_c, 8, 45, 0
12, 62760, Note_on_c, 8, 45, 84
12, 62819, Note_on_c, 8, 45, 0
12, 62820, Note_on_c, 8, 45, 84
12, 62879, Note_on_c, 8, 45, 0
12, 62880, Note_on_c, 8, 52, 84
12, 62939, Note_on_c, 8, 52, 0
12, 62940, Note_on_c, 8, 52, 84
12, 62999, Note_on_c, 8, 52, 0
12, 63000, Note_on_c, 8, 52, 84
12, 63059, Note_on_c, 8, 52, 0
12, 63060, Note_on_c, 8, 52, 84
12, 63119, Note_on_c, 8, 52, 0
12, 63120, Note_on_c, 8, 45, 92
12, 63179, Note_on_c, 8, 45, 0
12, 63180, Note_on_c, 8, 45, 84
12, 63239, Note_on_c, 8, 45, 0
12, 63240, Note_on_c, 8, 45, 84
12, 63299, Note_on_c, 8, 45, 0
12, 63300, Note_on_c, 8, 45, 84
12, 63359, Note_on_c, 8, 45, 0
12, 63360, Note_on_c, 8, 45, 92
12, 63419, Note_on_c, 8, 45, 0
12, 63420, Note_on_c, 8, 45, 84
12, 63479, Note_on_c, 8, 45, 0
12, 63480, Note_on_c, 8, 45, 84
12, 63539, Note_on_c, 8, 45, 0
12, 63540, Note_on_c, 8, 45, 84
12, 63599, Note_on_c, 8, 45, 0
12, 63600, Note_on_c, 8, 45, 84
12, 63659, Note_on_c, 8, 45, 0
12, 63660, Note_on_c, 8, 45, 84
12, 63719, Note_on_c, 8, 45, 0
12, 63720, Note_on_c, 8, 45, 84
12, 63779, Note_on_c, 8, 45, 0
12, 63780, Note_on_c, 8, 45, 84
12, 63839, Note_on_c, 8, 45, 0
12, 63840, Note_on_c, 8, 52, 84
12, 63899, Note_on_c, 8, 52, 0
12, 63900, Note_on_c, 8, 52, 84
12, 63959, Note_on_c, 8, 52, 0
12, 63960, Note_on_c, 8, 52, 84
12, 64019, Note_on_c, 8, 52, 0
12, 64020, Note_on_c, 8, 52, 84
12, 64079, Note_on_c, 8, 52, 0
12, 64080, Note_on_c, 8, 45, 92
12, 64139, Note_on_c, 8, 45, 0
12, 64140, Note_on_c, 8, 45, 84
12, 64199, Note_on_c, 8, 45, 0
12, 64200, Note_on_c, 8, 45, 84
12, 64259, Note_on_c, 8, 45, 0
12, 64260, Note_on_c, 8, 45, 84
12, 64319, Note_on_c, 8, 45, 0
12, 64320, Note_on_c, 8, 52, 84
12, 64379, Note_on_c, 8, 52, 0
12, 64380, Note_on_c, 8, 52, 84
12, 64439, Note_on_c, 8, 52, 0
12, 64440, Note_on_c, 8, 52, 84
12, 64499, Note_on_c, 8, 52, 0
12, 64500, Note_on_c, 8, 52, 84
12, 64559, Note_on_c, 8, 52, 0
12, 64560, Note_on_c, 8, 45, 92
12, 64619, Note_on_c, 8, 45, 0
12, 64620, Note_on_c, 8, 45, 84
12, 64679, Note_on_c, 8, 45, 0
12, 64680, Note_on_c, 8, 45, 84
12, 64739, Note_on_c, 8, 45, 0
12, 64740, Note_on_c, 8, 45, 84
12, 64799, Note_on_c, 8, 45, 0
12, 64800, Note_on_c, 8, 52, 84
12, 64859, Note_on_c, 8, 52, 0
12, 64860, Note_on_c, 8, 52, 84
12, 64919, Note_on_c, 8, 52, 0
12, 64920, Note_on_c, 8, 52, 84
12, 64979, Note_on_c, 8, 52, 0
12, 64980, Note_on_c, 8, 52, 84
12, 65039, Note_on_c, 8, 52, 0
12, 65040, Note_on_c, 8, 45, 92
12, 65099, Note_on_c, 8, 45, 0
12, 65100, Note_on_c, 8, 45, 84
12, 65159, Note_on_c, 8, 45, 0
12, 65160, Note_on_c, 8, 45, 84
12, 65219, Note_on_c, 8, 45, 0
12, 65220, Note_on_c, 8, 45, 84
12, 65279, Note_on_c, 8, 45, 0
12, 65280, Note_on_c, 8, 52, 84
12, 65339, Note_on_c, 8, 52, 0
12, 65340, Note_on_c, 8, 52, 84
12, 65399, Note_on_c, 8, 52, 0
12, 65400, Note_on_c, 8, 52, 84
12, 65459, Note_on_c, 8, 52, 0
12, 65460, Note_on_c, 8, 52, 84
12, 65519, Note_on_c, 8, 52, 0
12, 65520, Note_on_c, 8, 45, 84
12, 65579, Note_on_c, 8, 45, 0
12, 65580, Note_on_c, 8, 45, 84
12, 65639, Note_on_c, 8, 45, 0
12, 65640, Note_on_c, 8, 45, 84
12, 65699, Note_on_c, 8, 45, 0
12, 65700, Note_on_c, 8, 45, 84
12, 65759, Note_on_c, 8, 45, 0
12, 65760, Note_on_c, 8, 52, 84
12, 65879, Note_on_c, 8, 52, 0
12, 65880, Note_on_c, 8, 52, 84
12, 65939, Note_on_c, 8, 52, 0
12, 65940, Note_on_c, 8, 52, 84
12, 65999, Note_on_c, 8, 52, 0
12, 66000, Note_on_c, 8, 52, 84
12, 66119, Note_on_c, 8, 52, 0
12, 66840, Note_on_c, 8, 52, 84
12, 66899, Note_on_c, 8, 52, 0
12, 66900, Note_on_c, 8, 52, 84
12, 66959, Note_on_c, 8, 52, 0
12, 66960, Note_on_c, 8, 52, 84
12, 67079, Note_on_c, 8, 52, 0
12, 67680, Note_on_c, 8, 45, 84
12, 67799, Note_on_c, 8, 45, 0
12, 67920, Note_on_c, 8, 45, 92
12, 68039, Note_on_c, 8, 45, 0
12, 68400, Note_on_c, 8, 45, 92
12, 68519, Note_on_c, 8, 45, 0
12, 68880, Note_on_c, 8, 45, 92
12, 68999, Note_on_c, 8, 45, 0
12, 69840, Note_on_c, 8, 52, 92
12, 69959, Note_on_c, 8, 52, 0
12, 70320, Note_on_c, 8, 45, 92
12, 70439, Note_on_c, 8, 45, 0
12, 70800, Note_on_c, 8, 52, 92
12, 70919, Note_on_c, 8, 52, 0
12, 71040, Note_on_c, 8, 45, 84
12, 71159, Note_on_c, 8, 45, 0
12, 71160, Note_on_c, 8, 45, 84
12, 71219, Note_on_c, 8, 45, 0
12, 71220, Note_on_c, 8, 45, 84
12, 71279, Note_on_c, 8, 45, 0
12, 71280, Note_on_c, 8, 45, 84
12, 71399, Note_on_c, 8, 45, 0
12, 71520, Note_on_c, 8, 45, 84
12, 71639, Note_on_c, 8, 45, 0
12, 71760, Note_on_c, 8, 45, 92
12, 71879, Note_on_c, 8, 45, 0
12, 72240, Note_on_c, 8, 45, 92
12, 72359, Note_on_c, 8, 45, 0
12, 72720, Note_on_c, 8, 45, 92
12, 72839, Note_on_c, 8, 45, 0
12, 73680, Note_on_c, 8, 52, 92
12, 73799, Note_on_c, 8, 52, 0
12, 74160, Note_on_c, 8, 45, 92
12, 74279, Note_on_c, 8, 45, 0
12, 74640, Note_on_c, 8, 52, 92
12, 74759, Note_on_c, 8, 52, 0
12, 74880, Note_on_c, 8, 45, 84
12, 74999, Note_on_c, 8, 45, 0
12, 75000, Note_on_c, 8, 45, 84
12, 75059, Note_on_c, 8, 45, 0
12, 75060, Note_on_c, 8, 45, 84
12, 75119, Note_on_c, 8, 45, 0
12, 75120, Note_on_c, 8, 45, 84
12, 75239, Note_on_c, 8, 45, 0
12, 75480, Note_on_c, 8, 45, 84
12, 75539, Note_on_c, 8, 45, 0
12, 75540, Note_on_c, 8, 45, 84
12, 75599, Note_on_c, 8, 45, 0
12, 75600, Note_on_c, 8, 45, 84
12, 75719, Note_on_c, 8, 45, 0
12, 75960, Note_on_c, 8, 52, 84
12, 76019, Note_on_c, 8, 52, 0
12, 76020, Note_on_c, 8, 52, 84
12, 76079, Note_on_c, 8, 52, 0
12, 76080, Note_on_c, 8, 52, 84
12, 76199, Note_on_c, 8, 52, 0
12, 76440, Note_on_c, 8, 52, 84
12, 76499, Note_on_c, 8, 52, 0
12, 76500, Note_on_c, 8, 52, 84
12, 76559, Note_on_c, 8, 52, 0
12, 76560, Note_on_c, 8, 52, 84
12, 76679, Note_on_c, 8, 52, 0
12, 76800, Note_on_c, 8, 45, 84
12, 76919, Note_on_c, 8, 45, 0
12, 77040, Note_on_c, 8, 45, 84
12, 77159, Note_on_c, 8, 45, 0
12, 77280, Note_on_c, 8, 45, 84
12, 77399, Note_on_c, 8, 45, 0
12, 77520, Note_on_c, 8, 45, 84
12, 77639, Note_on_c, 8, 45, 0
12, 77760, Note_on_c, 8, 52, 84
12, 77879, Note_on_c, 8, 52, 0
12, 78000, Note_on_c, 8, 52, 84
12, 78119, Note_on_c, 8, 52, 0
12, 78240, Note_on_c, 8, 52, 84
12, 78359, Note_on_c, 8, 52, 0
12, 78480, Note_on_c, 8, 52, 84
12, 78599, Note_on_c, 8, 52, 0
12, 78720, Note_on_c, 8, 45, 84
12, 78839, Note_on_c, 8, 45, 0
12, 78840, Note_on_c, 8, 45, 84
12, 78899, Note_on_c, 8, 45, 0
12, 78900, Note_on_c, 8, 45, 84
12, 78959, Note_on_c, 8, 45, 0
12, 78960, Note_on_c, 8, 45, 84
12, 79079, Note_on_c, 8, 45, 0
12, 79320, Note_on_c, 8, 45, 84
12, 79379, Note_on_c, 8, 45, 0
12, 79380, Note_on_c, 8, 45, 84
12, 79439, Note_on_c, 8, 45, 0
12, 79440, Note_on_c, 8, 45, 84
12, 79559, Note_on_c, 8, 45, 0
12, 79800, Note_on_c, 8, 52, 84
12, 79859, Note_on_c, 8, 52, 0
12, 79860, Note_on_c, 8, 52, 84
12, 79919, Note_on_c, 8, 52, 0
12, 79920, Note_on_c, 8, 52, 84
12, 80039, Note_on_c, 8, 52, 0
12, 80280, Note_on_c, 8, 52, 84
12, 80339, Note_on_c, 8, 52, 0
12, 80340, Note_on_c, 8, 52, 84
12, 80399, Note_on_c, 8, 52, 0
12, 80400, Note_on_c, 8, 52, 84
12, 80519, Note_on_c, 8, 52, 0
12, 80640, Note_on_c, 8, 45, 84
12, 80759, Note_on_c, 8, 45, 0
12, 80880, Note_on_c, 8, 45, 84
12, 80999, Note_on_c, 8, 45, 0
12, 81120, Note_on_c, 8, 45, 84
12, 81239, Note_on_c, 8, 45, 0
12, 81360, Note_on_c, 8, 45, 84
12, 81479, Note_on_c, 8, 45, 0
12, 81600, Note_on_c, 8, 52, 84
12, 81719, Note_on_c, 8, 52, 0
12, 81840, Note_on_c, 8, 52, 84
12, 81959, Note_on_c, 8, 52, 0
12, 82080, Note_on_c, 8, 52, 84
12, 82199, Note_on_c, 8, 52, 0
12, 82320, Note_on_c, 8, 52, 84
12, 82439, Note_on_c, 8, 52, 0
12, 82560, Note_on_c, 8, 45, 84
12, 82679, Note_on_c, 8, 45, 0
12, 83280, Note_on_c, 8, 52, 84
12, 83399, Note_on_c, 8, 52, 0
12, 83520, Note_on_c, 8, 45, 84
12, 83639, Note_on_c, 8, 45, 0
12, 83760, Note_on_c, 8, 52, 84
12, 83879, Note_on_c, 8, 52, 0
12, 84000, Note_on_c, 8, 45, 84
12, 84119, Note_on_c, 8, 45, 0
12, 84240, Note_on_c, 8, 52, 84
12, 84359, Note_on_c, 8, 52, 0
12, 84480, Note_on_c, 8, 45, 84
12, 84599, Note_on_c, 8, 45, 0
12, 85200, Note_on_c, 8, 52, 84
12, 85319, Note_on_c, 8, 52, 0
12, 85440, Note_on_c, 8, 45, 84
12, 85559, Note_on_c, 8, 45, 0
12, 85680, Note_on_c, 8, 52, 84
12, 85799, Note_on_c, 8, 52, 0
12, 85920, Note_on_c, 8, 45, 84
12, 86039, Note_on_c, 8, 45, 0
12, 90240, Note_on_c, 8, 45, 84
12, 90359, Note_on_c, 8, 45, 0
12, 90480, Note_on_c, 8, 45, 84
12, 90599, Note_on_c, 8, 45, 0
12, 90720, Note_on_c, 8, 45, 84
12, 90839, Note_on_c, 8, 45, 0
12, 90960, Note_on_c, 8, 45, 84
12, 91079, Note_on_c, 8, 45, 0
12, 92160, Note_on_c, 8, 45, 84
12, 92279, Note_on_c, 8, 45, 0
12, 92400, Note_on_c, 8, 45, 84
12, 92519, Note_on_c, 8, 45, 0
12, 92640, Note_on_c, 8, 52, 84
12, 92759, Note_on_c, 8, 52, 0
12, 92880, Note_on_c, 8, 52, 84
12, 92999, Note_on_c, 8, 52, 0
12, 93120, Note_on_c, 8, 45, 84
12, 93239, Note_on_c, 8, 45, 0
12, 93360, Note_on_c, 8, 45, 84
12, 93479, Note_on_c, 8, 45, 0
12, 93600, Note_on_c, 8, 45, 84
12, 93719, Note_on_c, 8, 45, 0
12, 93840, Note_on_c, 8, 45, 84
12, 93959, Note_on_c, 8, 45, 0
12, 94080, Note_on_c, 8, 45, 84
12, 94199, Note_on_c, 8, 45, 0
12, 94320, Note_on_c, 8, 45, 84
12, 94439, Note_on_c, 8, 45, 0
12, 94560, Note_on_c, 8, 45, 84
12, 94679, Note_on_c, 8, 45, 0
12, 94800, Note_on_c, 8, 45, 84
12, 94919, Note_on_c, 8, 45, 0
12, 95280, Note_on_c, 8, 45, 76
12, 95399, Note_on_c, 8, 45, 0
12, 97200, Note_on_c, 8, 45, 76
12, 97319, Note_on_c, 8, 45, 0
12, 101040, Note_on_c, 8, 52, 76
12, 101279, Note_on_c, 8, 52, 0
12, 102000, Note_on_c, 8, 52, 76
12, 102239, Note_on_c, 8, 52, 0
12, 105840, Note_on_c, 8, 52, 76
12, 106079, Note_on_c, 8, 52, 0
12, 106800, Note_on_c, 8, 52, 76
12, 107039, Note_on_c, 8, 52, 0
12, 109440, Note_on_c, 8, 45, 52
12, 109499, Note_on_c, 8, 45, 0
12, 109500, Note_on_c, 8, 45, 52
12, 109559, Note_on_c, 8, 45, 0
12, 109560, Note_on_c, 8, 45, 52
12, 109619, Note_on_c, 8, 45, 0
12, 109620, Note_on_c, 8, 45, 53
12, 109679, Note_on_c, 8, 45, 0
12, 109680, Note_on_c, 8, 45, 53
12, 109739, Note_on_c, 8, 45, 0
12, 109740, Note_on_c, 8, 45, 53
12, 109799, Note_on_c, 8, 45, 0
12, 109800, Note_on_c, 8, 45, 54
12, 109859, Note_on_c, 8, 45, 0
12, 109860, Note_on_c, 8, 45, 54
12, 109919, Note_on_c, 8, 45, 0
12, 109920, Note_on_c, 8, 45, 54
12, 109979, Note_on_c, 8, 45, 0
12, 109980, Note_on_c, 8, 45, 55
12, 110039, Note_on_c, 8, 45, 0
12, 110040, Note_on_c, 8, 45, 55
12, 110099, Note_on_c, 8, 45, 0
12, 110100, Note_on_c, 8, 45, 55
12, 110159, Note_on_c, 8, 45, 0
12, 110160, Note_on_c, 8, 45, 56
12, 110219, Note_on_c, 8, 45, 0
12, 110220, Note_on_c, 8, 45, 56
12, 110279, Note_on_c, 8, 45, 0
12, 110280, Note_on_c, 8, 45, 56
12, 110339, Note_on_c, 8, 45, 0
12, 110340, Note_on_c, 8, 45, 57
12, 110399, Note_on_c, 8, 45, 0
12, 110400, Note_on_c, 8, 45, 57
12, 110459, Note_on_c, 8, 45, 0
12, 110460, Note_on_c, 8, 45, 57
12, 110519, Note_on_c, 8, 45, 0
12, 110520, Note_on_c, 8, 45, 58
12, 110579, Note_on_c, 8, 45, 0
12, 110580, Note_on_c, 8, 45, 58
12, 110639, Note_on_c, 8, 45, 0
12, 110640, Note_on_c, 8, 45, 58
12, 110699, Note_on_c, 8, 45, 0
12, 110700, Note_on_c, 8, 45, 59
12, 110759, Note_on_c, 8, 45, 0
12, 110760, Note_on_c, 8, 45, 59
12, 110819, Note_on_c, 8, 45, 0
12, 110820, Note_on_c, 8, 45, 59
12, 110879, Note_on_c, 8, 45, 0
12, 110880, Note_on_c, 8, 45, 60
12, 110939, Note_on_c, 8, 45, 0
12, 110940, Note_on_c, 8, 45, 60
12, 110999, Note_on_c, 8, 45, 0
12, 111000, Note_on_c, 8, 45, 60
12, 111059, Note_on_c, 8, 45, 0
12, 111060, Note_on_c, 8, 45, 61
12, 111119, Note_on_c, 8, 45, 0
12, 111120, Note_on_c, 8, 45, 61
12, 111179, Note_on_c, 8, 45, 0
12, 111180, Note_on_c, 8, 45, 61
12, 111239, Note_on_c, 8, 45, 0
12, 111240, Note_on_c, 8, 45, 62
12, 111299, Note_on_c, 8, 45, 0
12, 111300, Note_on_c, 8, 45, 62
12, 111359, Note_on_c, 8, 45, 0
12, 111360, Note_on_c, 8, 45, 62
12, 111419, Note_on_c, 8, 45, 0
12, 111420, Note_on_c, 8, 45, 63
12, 111479, Note_on_c, 8, 45, 0
12, 111480, Note_on_c, 8, 45, 63
12, 111539, Note_on_c, 8, 45, 0
12, 111540, Note_on_c, 8, 45, 63
12, 111599, Note_on_c, 8, 45, 0
12, 111600, Note_on_c, 8, 45, 64
12, 111659, Note_on_c, 8, 45, 0
12, 111660, Note_on_c, 8, 45, 64
12, 111719, Note_on_c, 8, 45, 0
12, 111720, Note_on_c, 8, 45, 64
12, 111779, Note_on_c, 8, 45, 0
12, 111780, Note_on_c, 8, 45, 65
12, 111839, Note_on_c, 8, 45, 0
12, 111840, Note_on_c, 8, 45, 65
12, 111899, Note_on_c, 8, 45, 0
12, 111900, Note_on_c, 8, 45, 65
12, 111959, Note_on_c, 8, 45, 0
12, 111960, Note_on_c, 8, 45, 66
12, 112019, Note_on_c, 8, 45, 0
12, 112020, Note_on_c, 8, 45, 66
12, 112079, Note_on_c, 8, 45, 0
12, 112080, Note_on_c, 8, 45, 66
12, 112139, Note_on_c, 8, 45, 0
12, 112140, Note_on_c, 8, 45, 67
12, 112199, Note_on_c, 8, 45, 0
12, 112200, Note_on_c, 8, 45, 67
12, 112259, Note_on_c, 8, 45, 0
12, 112260, Note_on_c, 8, 45, 67
12, 112319, Note_on_c, 8, 45, 0
12, 112320, Note_on_c, 8, 45, 68
12, 112379, Note_on_c, 8, 45, 0
12, 112380, Note_on_c, 8, 45, 68
12, 112439, Note_on_c, 8, 45, 0
12, 112440, Note_on_c, 8, 45, 68
12, 112499, Note_on_c, 8, 45, 0
12, 112500, Note_on_c, 8, 45, 69
12, 112559, Note_on_c, 8, 45, 0
12, 112560, Note_on_c, 8, 45, 69
12, 112619, Note_on_c, 8, 45, 0
12, 112620, Note_on_c, 8, 45, 69
12, 112679, Note_on_c, 8, 45, 0
12, 112680, Note_on_c, 8, 45, 70
12, 112739, Note_on_c, 8, 45, 0
12, 112740, Note_on_c, 8, 45, 70
12, 112799, Note_on_c, 8, 45, 0
12, 112800, Note_on_c, 8, 45, 70
12, 112859, Note_on_c, 8, 45, 0
12, 112860, Note_on_c, 8, 45, 71
12, 112919, Note_on_c, 8, 45, 0
12, 112920, Note_on_c, 8, 45, 71
12, 112979, Note_on_c, 8, 45, 0
12, 112980, Note_on_c, 8, 45, 71
12, 113039, Note_on_c, 8, 45, 0
12, 113040, Note_on_c, 8, 45, 72
12, 113099, Note_on_c, 8, 45, 0
12, 113100, Note_on_c, 8, 45, 72
12, 113159, Note_on_c, 8, 45, 0
12, 113160, Note_on_c, 8, 45, 72
12, 113219, Note_on_c, 8, 45, 0
12, 113220, Note_on_c, 8, 45, 73
12, 113279, Note_on_c, 8, 45, 0
12, 113280, Note_on_c, 8, 45, 73
12, 113339, Note_on_c, 8, 45, 0
12, 113340, Note_on_c, 8, 45, 73
12, 113399, Note_on_c, 8, 45, 0
12, 113400, Note_on_c, 8, 45, 74
12, 113459, Note_on_c, 8, 45, 0
12, 113460, Note_on_c, 8, 45, 74
12, 113519, Note_on_c, 8, 45, 0
12, 113520, Note_on_c, 8, 45, 74
12, 113579, Note_on_c, 8, 45, 0
12, 113580, Note_on_c, 8, 45, 75
12, 113639, Note_on_c, 8, 45, 0
12, 113640, Note_on_c, 8, 45, 75
12, 113699, Note_on_c, 8, 45, 0
12, 113700, Note_on_c, 8, 45, 75
12, 113759, Note_on_c, 8, 45, 0
12, 113760, Note_on_c, 8, 45, 76
12, 113819, Note_on_c, 8, 45, 0
12, 113820, Note_on_c, 8, 45, 76
12, 113879, Note_on_c, 8, 45, 0
12, 113880, Note_on_c, 8, 45, 76
12, 113939, Note_on_c, 8, 45, 0
12, 113940, Note_on_c, 8, 45, 77
12, 113999, Note_on_c, 8, 45, 0
12, 114000, Note_on_c, 8, 45, 77
12, 114059, Note_on_c, 8, 45, 0
12, 114060, Note_on_c, 8, 45, 77
12, 114119, Note_on_c, 8, 45, 0
12, 114120, Note_on_c, 8, 45, 78
12, 114179, Note_on_c, 8, 45, 0
12, 114180, Note_on_c, 8, 45, 78
12, 114239, Note_on_c, 8, 45, 0
12, 114240, Note_on_c, 8, 45, 78
12, 114299, Note_on_c, 8, 45, 0
12, 114300, Note_on_c, 8, 45, 79
12, 114359, Note_on_c, 8, 45, 0
12, 114360, Note_on_c, 8, 45, 79
12, 114419, Note_on_c, 8, 45, 0
12, 114420, Note_on_c, 8, 45, 79
12, 114479, Note_on_c, 8, 45, 0
12, 114480, Note_on_c, 8, 45, 80
12, 114539, Note_on_c, 8, 45, 0
12, 114540, Note_on_c, 8, 45, 80
12, 114599, Note_on_c, 8, 45, 0
12, 114600, Note_on_c, 8, 45, 80
12, 114659, Note_on_c, 8, 45, 0
12, 114660, Note_on_c, 8, 45, 81
12, 114719, Note_on_c, 8, 45, 0
12, 114720, Note_on_c, 8, 45, 81
12, 114779, Note_on_c, 8, 45, 0
12, 114780, Note_on_c, 8, 45, 81
12, 114839, Note_on_c, 8, 45, 0
12, 114840, Note_on_c, 8, 45, 82
12, 114899, Note_on_c, 8, 45, 0
12, 114900, Note_on_c, 8, 45, 82
12, 114959, Note_on_c, 8, 45, 0
12, 114960, Note_on_c, 8, 45, 82
12, 115019, Note_on_c, 8, 45, 0
12, 115020, Note_on_c, 8, 45, 83
12, 115079, Note_on_c, 8, 45, 0
12, 115080, Note_on_c, 8, 45, 83
12, 115139, Note_on_c, 8, 45, 0
12, 115140, Note_on_c, 8, 45, 83
12, 115199, Note_on_c, 8, 45, 0
12, 115200, Note_on_c, 8, 45, 84
12, 115259, Note_on_c, 8, 45, 0
12, 115260, Note_on_c, 8, 45, 84
12, 115319, Note_on_c, 8, 45, 0
12, 115320, Note_on_c, 8, 45, 84
12, 115379, Note_on_c, 8, 45, 0
12, 115380, Note_on_c, 8, 45, 84
12, 115439, Note_on_c, 8, 45, 0
12, 115440, Note_on_c, 8, 45, 84
12, 115499, Note_on_c, 8, 45, 0
12, 115500, Note_on_c, 8, 45, 84
12, 115559, Note_on_c, 8, 45, 0
12, 115560, Note_on_c, 8, 45, 84
12, 115619, Note_on_c, 8, 45, 0
12, 115620, Note_on_c, 8, 45, 84
12, 115679, Note_on_c, 8, 45, 0
12, 115680, Note_on_c, 8, 45, 84
12, 115739, Note_on_c, 8, 45, 0
12, 115740, Note_on_c, 8, 45, 84
12, 115799, Note_on_c, 8, 45, 0
12, 115800, Note_on_c, 8, 45, 84
12, 115859, Note_on_c, 8, 45, 0
12, 115860, Note_on_c, 8, 45, 84
12, 115919, Note_on_c, 8, 45, 0
12, 115920, Note_on_c, 8, 45, 84
12, 115979, Note_on_c, 8, 45, 0
12, 115980, Note_on_c, 8, 45, 84
12, 116039, Note_on_c, 8, 45, 0
12, 116040, Note_on_c, 8, 45, 84
12, 116099, Note_on_c, 8, 45, 0
12, 116100, Note_on_c, 8, 45, 84
12, 116159, Note_on_c, 8, 45, 0
12, 116160, Note_on_c, 8, 52, 92
12, 116219, Note_on_c, 8, 52, 0
12, 116220, Note_on_c, 8, 52, 84
12, 116279, Note_on_c, 8, 52, 0
12, 116280, Note_on_c, 8, 52, 84
12, 116339, Note_on_c, 8, 52, 0
12, 116340, Note_on_c, 8, 52, 84
12, 116399, Note_on_c, 8, 52, 0
12, 116400, Note_on_c, 8, 52, 84
12, 116459, Note_on_c, 8, 52, 0
12, 116460, Note_on_c, 8, 52, 84
12, 116519, Note_on_c, 8, 52, 0
12, 116520, Note_on_c, 8, 52, 84
12, 116579, Note_on_c, 8, 52, 0
12, 116580, Note_on_c, 8, 52, 84
12, 116639, Note_on_c, 8, 52, 0
12, 116640, Note_on_c, 8, 45, 92
12, 116699, Note_on_c, 8, 45, 0
12, 116700, Note_on_c, 8, 45, 84
12, 116759, Note_on_c, 8, 45, 0
12, 116760, Note_on_c, 8, 45, 84
12, 116819, Note_on_c, 8, 45, 0
12, 116820, Note_on_c, 8, 45, 84
12, 116879, Note_on_c, 8, 45, 0
12, 116880, Note_on_c, 8, 45, 84
12, 116939, Note_on_c, 8, 45, 0
12, 116940, Note_on_c, 8, 45, 84
12, 116999, Note_on_c, 8, 45, 0
12, 117000, Note_on_c, 8, 45, 84
12, 117059, Note_on_c, 8, 45, 0
12, 117060, Note_on_c, 8, 45, 84
12, 117119, Note_on_c, 8, 45, 0
12, 117120, Note_on_c, 8, 52, 92
12, 117179, Note_on_c, 8, 52, 0
12, 117180, Note_on_c, 8, 52, 84
12, 117239, Note_on_c, 8, 52, 0
12, 117240, Note_on_c, 8, 52, 84
12, 117299, Note_on_c, 8, 52, 0
12, 117300, Note_on_c, 8, 52, 84
12, 117359, Note_on_c, 8, 52, 0
12, 117360, Note_on_c, 8, 52, 84
12, 117419, Note_on_c, 8, 52, 0
12, 117420, Note_on_c, 8, 52, 84
12, 117479, Note_on_c, 8, 52, 0
12, 117480, Note_on_c, 8, 52, 84
12, 117539, Note_on_c, 8, 52, 0
12, 117540, Note_on_c, 8, 52, 84
12, 117599, Note_on_c, 8, 52, 0
12, 117600, Note_on_c, 8, 45, 92
12, 117659, Note_on_c, 8, 45, 0
12, 117660, Note_on_c, 8, 45, 84
12, 117719, Note_on_c, 8, 45, 0
12, 117720, Note_on_c, 8, 45, 84
12, 117779, Note_on_c, 8, 45, 0
12, 117780, Note_on_c, 8, 45, 84
12, 117839, Note_on_c, 8, 45, 0
12, 117840, Note_on_c, 8, 45, 84
12, 117899, Note_on_c, 8, 45, 0
12, 117900, Note_on_c, 8, 45, 84
12, 117959, Note_on_c, 8, 45, 0
12, 117960, Note_on_c, 8, 45, 84
12, 118019, Note_on_c, 8, 45, 0
12, 118020, Note_on_c, 8, 45, 84
12, 118079, Note_on_c, 8, 45, 0
12, 118080, Note_on_c, 8, 52, 92
12, 118139, Note_on_c, 8, 52, 0
12, 118140, Note_on_c, 8, 52, 84
12, 118199, Note_on_c, 8, 52, 0
12, 118200, Note_on_c, 8, 52, 84
12, 118259, Note_on_c, 8, 52, 0
12, 118260, Note_on_c, 8, 52, 84
12, 118319, Note_on_c, 8, 52, 0
12, 118320, Note_on_c, 8, 52, 84
12, 118379, Note_on_c, 8, 52, 0
12, 118380, Note_on_c, 8, 52, 84
12, 118439, Note_on_c, 8, 52, 0
12, 118440, Note_on_c, 8, 52, 84
12, 118499, Note_on_c, 8, 52, 0
12, 118500, Note_on_c, 8, 52, 84
12, 118559, Note_on_c, 8, 52, 0
12, 118560, Note_on_c, 8, 45, 92
12, 118619, Note_on_c, 8, 45, 0
12, 118620, Note_on_c, 8, 45, 84
12, 118679, Note_on_c, 8, 45, 0
12, 118680, Note_on_c, 8, 45, 84
12, 118739, Note_on_c, 8, 45, 0
12, 118740, Note_on_c, 8, 45, 84
12, 118799, Note_on_c, 8, 45, 0
12, 118800, Note_on_c, 8, 45, 84
12, 118859, Note_on_c, 8, 45, 0
12, 118860, Note_on_c, 8, 45, 84
12, 118919, Note_on_c, 8, 45, 0
12, 118920, Note_on_c, 8, 45, 84
12, 118979, Note_on_c, 8, 45, 0
12, 118980, Note_on_c, 8, 45, 84
12, 119039, Note_on_c, 8, 45, 0
12, 119040, Note_on_c, 8, 52, 92
12, 119099, Note_on_c, 8, 52, 0
12, 119100, Note_on_c, 8, 52, 84
12, 119159, Note_on_c, 8, 52, 0
12, 119160, Note_on_c, 8, 52, 84
12, 119219, Note_on_c, 8, 52, 0
12, 119220, Note_on_c, 8, 52, 84
12, 119279, Note_on_c, 8, 52, 0
12, 119280, Note_on_c, 8, 52, 84
12, 119339, Note_on_c, 8, 52, 0
12, 119340, Note_on_c, 8, 52, 84
12, 119399, Note_on_c, 8, 52, 0
12, 119400, Note_on_c, 8, 52, 84
12, 119459, Note_on_c, 8, 52, 0
12, 119460, Note_on_c, 8, 52, 84
12, 119519, Note_on_c, 8, 52, 0
12, 120000, Note_on_c, 8, 52, 84
12, 120059, Note_on_c, 8, 52, 0
12, 120060, Note_on_c, 8, 52, 84
12, 120119, Note_on_c, 8, 52, 0
12, 120120, Note_on_c, 8, 52, 84
12, 120179, Note_on_c, 8, 52, 0
12, 120180, Note_on_c, 8, 52, 84
12, 120239, Note_on_c, 8, 52, 0
12, 120240, Note_on_c, 8, 45, 92
12, 120299, Note_on_c, 8, 45, 0
12, 120300, Note_on_c, 8, 45, 84
12, 120359, Note_on_c, 8, 45, 0
12, 120360, Note_on_c, 8, 45, 84
12, 120419, Note_on_c, 8, 45, 0
12, 120420, Note_on_c, 8, 45, 84
12, 120479, Note_on_c, 8, 45, 0
12, 120480, Note_on_c, 8, 45, 92
12, 120539, Note_on_c, 8, 45, 0
12, 120540, Note_on_c, 8, 45, 84
12, 120599, Note_on_c, 8, 45, 0
12, 120600, Note_on_c, 8, 45, 84
12, 120659, Note_on_c, 8, 45, 0
12, 120660, Note_on_c, 8, 45, 84
12, 120719, Note_on_c, 8, 45, 0
12, 120720, Note_on_c, 8, 45, 84
12, 120779, Note_on_c, 8, 45, 0
12, 120780, Note_on_c, 8, 45, 84
12, 120839, Note_on_c, 8, 45, 0
12, 120840, Note_on_c, 8, 45, 84
12, 120899, Note_on_c, 8, 45, 0
12, 120900, Note_on_c, 8, 45, 84
12, 120959, Note_on_c, 8, 45, 0
12, 120960, Note_on_c, 8, 52, 84
12, 121019, Note_on_c, 8, 52, 0
12, 121020, Note_on_c, 8, 52, 84
12, 121079, Note_on_c, 8, 52, 0
12, 121080, Note_on_c, 8, 52, 84
12, 121139, Note_on_c, 8, 52, 0
12, 121140, Note_on_c, 8, 52, 84
12, 121199, Note_on_c, 8, 52, 0
12, 121200, Note_on_c, 8, 45, 92
12, 121259, Note_on_c, 8, 45, 0
12, 121260, Note_on_c, 8, 45, 84
12, 121319, Note_on_c, 8, 45, 0
12, 121320, Note_on_c, 8, 45, 84
12, 121379, Note_on_c, 8, 45, 0
12, 121380, Note_on_c, 8, 45, 84
12, 121439, Note_on_c, 8, 45, 0
12, 121440, Note_on_c, 8, 45, 92
12, 121499, Note_on_c, 8, 45, 0
12, 121500, Note_on_c, 8, 45, 84
12, 121559, Note_on_c, 8, 45, 0
12, 121560, Note_on_c, 8, 45, 84
12, 121619, Note_on_c, 8, 45, 0
12, 121620, Note_on_c, 8, 45, 84
12, 121679, Note_on_c, 8, 45, 0
12, 121680, Note_on_c, 8, 45, 84
12, 121739, Note_on_c, 8, 45, 0
12, 121740, Note_on_c, 8, 45, 84
12, 121799, Note_on_c, 8, 45, 0
12, 121800, Note_on_c, 8, 45, 84
12, 121859, Note_on_c, 8, 45, 0
12, 121860, Note_on_c, 8, 45, 84
12, 121919, Note_on_c, 8, 45, 0
12, 121920, Note_on_c, 8, 52, 84
12, 121979, Note_on_c, 8, 52, 0
12, 121980, Note_on_c, 8, 52, 84
12, 122039, Note_on_c, 8, 52, 0
12, 122040, Note_on_c, 8, 52, 84
12, 122099, Note_on_c, 8, 52, 0
12, 122100, Note_on_c, 8, 52, 84
12, 122159, Note_on_c, 8, 52, 0
12, 122160, Note_on_c, 8, 45, 92
12, 122219, Note_on_c, 8, 45, 0
12, 122220, Note_on_c, 8, 45, 84
12, 122279, Note_on_c, 8, 45, 0
12, 122280, Note_on_c, 8, 45, 84
12, 122339, Note_on_c, 8, 45, 0
12, 122340, Note_on_c, 8, 45, 84
12, 122399, Note_on_c, 8, 45, 0
12, 122400, Note_on_c, 8, 52, 84
12, 122459, Note_on_c, 8, 52, 0
12, 122460, Note_on_c, 8, 52, 84
12, 122519, Note_on_c, 8, 52, 0
12, 122520, Note_on_c, 8, 52, 84
12, 122579, Note_on_c, 8, 52, 0
12, 122580, Note_on_c, 8, 52, 84
12, 122639, Note_on_c, 8, 52, 0
12, 122640, Note_on_c, 8, 45, 92
12, 122699, Note_on_c, 8, 45, 0
12, 122700, Note_on_c, 8, 45, 84
12, 122759, Note_on_c, 8, 45, 0
12, 122760, Note_on_c, 8, 45, 84
12, 122819, Note_on_c, 8, 45, 0
12, 122820, Note_on_c, 8, 45, 84
12, 122879, Note_on_c, 8, 45, 0
12, 122880, Note_on_c, 8, 52, 84
12, 122939, Note_on_c, 8, 52, 0
12, 122940, Note_on_c, 8, 52, 84
12, 122999, Note_on_c, 8, 52, 0
12, 123000, Note_on_c, 8, 52, 84
12, 123059, Note_on_c, 8, 52, 0
12, 123060, Note_on_c, 8, 52, 84
12, 123119, Note_on_c, 8, 52, 0
12, 123120, Note_on_c, 8, 45, 92
12, 123179, Note_on_c, 8, 45, 0
12, 123180, Note_on_c, 8, 45, 84
12, 123239, Note_on_c, 8, 45, 0
12, 123240, Note_on_c, 8, 45, 84
12, 123299, Note_on_c, 8, 45, 0
12, 123300, Note_on_c, 8, 45, 84
12, 123359, Note_on_c, 8, 45, 0
12, 123360, Note_on_c, 8, 52, 84
12, 123419, Note_on_c, 8, 52, 0
12, 123420, Note_on_c, 8, 52, 84
12, 123479, Note_on_c, 8, 52, 0
12, 123480, Note_on_c, 8, 52, 84
12, 123539, Note_on_c, 8, 52, 0
12, 123540, Note_on_c, 8, 52, 84
12, 123599, Note_on_c, 8, 52, 0
12, 123600, Note_on_c, 8, 52, 84
12, 123659, Note_on_c, 8, 52, 0
12, 123660, Note_on_c, 8, 52, 84
12, 123719, Note_on_c, 8, 52, 0
12, 123720, Note_on_c, 8, 52, 84
12, 123779, Note_on_c, 8, 52, 0
12, 123780, Note_on_c, 8, 52, 84
12, 123839, Note_on_c, 8, 52, 0
12, 123840, Note_on_c, 8, 52, 84
12, 123959, Note_on_c, 8, 52, 0
12, 123960, Note_on_c, 8, 52, 84
12, 124019, Note_on_c, 8, 52, 0
12, 124020, Note_on_c, 8, 52, 84
12, 124079, Note_on_c, 8, 52, 0
12, 124080, Note_on_c, 8, 52, 84
12, 124199, Note_on_c, 8, 52, 0
12, 129120, Note_on_c, 8, 52, 84
12, 129239, Note_on_c, 8, 52, 0
12, 129360, Note_on_c, 8, 52, 92
12, 129479, Note_on_c, 8, 52, 0
12, 129840, Note_on_c, 8, 52, 92
12, 129959, Note_on_c, 8, 52, 0
12, 130320, Note_on_c, 8, 52, 92
12, 130439, Note_on_c, 8, 52, 0
12, 130560, Note_on_c, 8, 45, 84
12, 130679, Note_on_c, 8, 45, 0
12, 136080, Note_on_c, 8, 52, 84
12, 136199, Note_on_c, 8, 52, 0
12, 137040, Note_on_c, 8, 52, 84
12, 137159, Note_on_c, 8, 52, 0
12, 138000, Note_on_c, 8, 52, 84
12, 138119, Note_on_c, 8, 52, 0
12, 138720, Note_on_c, 8, 52, 76
12, 138839, Note_on_c, 8, 52, 0
12, 138840, Note_on_c, 8, 52, 76
12, 138899, Note_on_c, 8, 52, 0
12, 138900, Note_on_c, 8, 52, 76
12, 138959, Note_on_c, 8, 52, 0
12, 138960, Note_on_c, 8, 52, 76
12, 139079, Note_on_c, 8, 52, 0
12, 139920, Note_on_c, 8, 52, 84
12, 140039, Note_on_c, 8, 52, 0
12, 140880, Note_on_c, 8, 52, 84
12, 140999, Note_on_c, 8, 52, 0
12, 141840, Note_on_c, 8, 52, 84
12, 141959, Note_on_c, 8, 52, 0
12, 142560, Note_on_c, 8, 52, 76
12, 142679, Note_on_c, 8, 52, 0
12, 142680, Note_on_c, 8, 52, 76
12, 142739, Note_on_c, 8, 52, 0
12, 142740, Note_on_c, 8, 52, 76
12, 142799, Note_on_c, 8, 52, 0
12, 142800, Note_on_c, 8, 52, 76
12, 142919, Note_on_c, 8, 52, 0
12, 143040, Note_on_c, 8, 45, 76
12, 143159, Note_on_c, 8, 45, 0
12, 143280, Note_on_c, 8, 45, 84
12, 143399, Note_on_c, 8, 45, 0
12, 143760, Note_on_c, 8, 52, 84
12, 143879, Note_on_c, 8, 52, 0
12, 144240, Note_on_c, 8, 45, 84
12, 144359, Note_on_c, 8, 45, 0
12, 144720, Note_on_c, 8, 52, 84
12, 144839, Note_on_c, 8, 52, 0
12, 145680, Note_on_c, 8, 52, 84
12, 145799, Note_on_c, 8, 52, 0
12, 146400, Note_on_c, 8, 52, 76
12, 146519, Note_on_c, 8, 52, 0
12, 146520, Note_on_c, 8, 52, 76
12, 146579, Note_on_c, 8, 52, 0
12, 146580, Note_on_c, 8, 52, 76
12, 146639, Note_on_c, 8, 52, 0
12, 146640, Note_on_c, 8, 52, 76
12, 146759, Note_on_c, 8, 52, 0
12, 146880, Note_on_c, 8, 45, 76
12, 146999, Note_on_c, 8, 45, 0
12, 147120, Note_on_c, 8, 45, 84
12, 147239, Note_on_c, 8, 45, 0
12, 147600, Note_on_c, 8, 52, 84
12, 147719, Note_on_c, 8, 52, 0
12, 148080, Note_on_c, 8, 45, 84
12, 148199, Note_on_c, 8, 45, 0
12, 148560, Note_on_c, 8, 52, 84
12, 148679, Note_on_c, 8, 52, 0
12, 149520, Note_on_c, 8, 52, 84
12, 149639, Note_on_c, 8, 52, 0
12, 150240, Note_on_c, 8, 52, 76
12, 150359, Note_on_c, 8, 52, 0
12, 150360, Note_on_c, 8, 52, 76
12, 150419, Note_on_c, 8, 52, 0
12, 150420, Note_on_c, 8, 52, 76
12, 150479, Note_on_c, 8, 52, 0
12, 150480, Note_on_c, 8, 52, 76
12, 150599, Note_on_c, 8, 52, 0
12, 151320, Note_on_c, 8, 52, 76
12, 151379, Note_on_c, 8, 52, 0
12, 151380, Note_on_c, 8, 52, 76
12, 151439, Note_on_c, 8, 52, 0
12, 151440, Note_on_c, 8, 52, 76
12, 151559, Note_on_c, 8, 52, 0
12, 155640, Note_on_c, 8, 45, 76
12, 155699, Note_on_c, 8, 45, 0
12, 155700, Note_on_c, 8, 45, 76
12, 155759, Note_on_c, 8, 45, 0
12, 155760, Note_on_c, 8, 45, 76
12, 155879, Note_on_c, 8, 45, 0
12, 161520, Note_on_c, 8, 52, 84
12, 161639, Note_on_c, 8, 52, 0
12, 162000, Note_on_c, 8, 52, 84
12, 162119, Note_on_c, 8, 52, 0
12, 162480, Note_on_c, 8, 52, 76
12, 162599, Note_on_c, 8, 52, 0
12, 162960, Note_on_c, 8, 52, 76
12, 163079, Note_on_c, 8, 52, 0
12, 163440, Note_on_c, 8, 52, 76
12, 163559, Note_on_c, 8, 52, 0
12, 163920, Note_on_c, 8, 52, 76
12, 164039, Note_on_c, 8, 52, 0
12, 164400, Note_on_c, 8, 52, 76
12, 164519, Note_on_c, 8, 52, 0
12, 164880, Note_on_c, 8, 52, 76
12, 164999, Note_on_c, 8, 52, 0
12, 165360, Note_on_c, 8, 52, 76
12, 165479, Note_on_c, 8, 52, 0
12, 165840, Note_on_c, 8, 52, 76
12, 165959, Note_on_c, 8, 52, 0
12, 168000, Note_on_c, 8, 45, 44
12, 168119, Note_on_c, 8, 45, 0
12, 168960, Note_on_c, 8, 45, 44
12, 169079, Note_on_c, 8, 45, 0
12, 173280, Note_on_c, 8, 45, 44
12, 173399, Note_on_c, 8, 45, 0
12, 174240, Note_on_c, 8, 45, 44
12, 174359, Note_on_c, 8, 45, 0
12, 178560, Note_on_c, 8, 52, 84
12, 178679, Note_on_c, 8, 52, 0
12, 178680, Note_on_c, 8, 52, 84
12, 178739, Note_on_c, 8, 52, 0
12, 178740, Note_on_c, 8, 52, 84
12, 178799, Note_on_c, 8, 52, 0
12, 178800, Note_on_c, 8, 52, 84
12, 178919, Note_on_c, 8, 52, 0
12, 179520, Note_on_c, 8, 52, 84
12, 179639, Note_on_c, 8, 52, 0
12, 179640, Note_on_c, 8, 52, 84
12, 179699, Note_on_c, 8, 52, 0
12, 179700, Note_on_c, 8, 52, 84
12, 179759, Note_on_c, 8, 52, 0
12, 179760, Note_on_c, 8, 52, 84
12, 179879, Note_on_c, 8, 52, 0
12, 180480, Note_on_c, 8, 52, 84
12, 180599, Note_on_c, 8, 52, 0
12, 180720, Note_on_c, 8, 52, 92
12, 180839, Note_on_c, 8, 52, 0
12, 181200, Note_on_c, 8, 52, 92
12, 181319, Note_on_c, 8, 52, 0
12, 181680, Note_on_c, 8, 52, 92
12, 181799, Note_on_c, 8, 52, 0
12, 182160, Note_on_c, 8, 52, 92
12, 182279, Note_on_c, 8, 52, 0
12, 182640, Note_on_c, 8, 52, 92
12, 182759, Note_on_c, 8, 52, 0
12, 183120, Note_on_c, 8, 52, 92
12, 183239, Note_on_c, 8, 52, 0
12, 183600, Note_on_c, 8, 52, 92
12, 183719, Note_on_c, 8, 52, 0
12, 183840, Note_on_c, 8, 45, 84
12, 183959, Note_on_c, 8, 45, 0
12, 183960, Note_on_c, 8, 45, 84
12, 184019, Note_on_c, 8, 45, 0
12, 184020, Note_on_c, 8, 45, 84
12, 184079, Note_on_c, 8, 45, 0
12, 184080, Note_on_c, 8, 45, 84
12, 184199, Note_on_c, 8, 45, 0
12, 184320, Note_on_c, 8, 52, 84
12, 184439, Note_on_c, 8, 52, 0
12, 184560, Note_on_c, 8, 52, 92
12, 184679, Note_on_c, 8, 52, 0
12, 185040, Note_on_c, 8, 52, 92
12, 185159, Note_on_c, 8, 52, 0
12, 185520, Note_on_c, 8, 52, 92
12, 185639, Note_on_c, 8, 52, 0
12, 186000, Note_on_c, 8, 52, 92
12, 186119, Note_on_c, 8, 52, 0
12, 186480, Note_on_c, 8, 52, 92
12, 186599, Note_on_c, 8, 52, 0
12, 186960, Note_on_c, 8, 52, 92
12, 187079, Note_on_c, 8, 52, 0
12, 187440, Note_on_c, 8, 52, 92
12, 187559, Note_on_c, 8, 52, 0
12, 187680, Note_on_c, 8, 45, 84
12, 187799, Note_on_c, 8, 45, 0
12, 187800, Note_on_c, 8, 45, 84
12, 187859, Note_on_c, 8, 45, 0
12, 187860, Note_on_c, 8, 45, 84
12, 187919, Note_on_c, 8, 45, 0
12, 187920, Note_on_c, 8, 45, 84
12, 188039, Note_on_c, 8, 45, 0
12, 188280, Note_on_c, 8, 45, 84
12, 188339, Note_on_c, 8, 45, 0
12, 188340, Note_on_c, 8, 45, 84
12, 188399, Note_on_c, 8, 45, 0
12, 188400, Note_on_c, 8, 45, 84
12, 188519, Note_on_c, 8, 45, 0
12, 188760, Note_on_c, 8, 52, 84
12, 188819, Note_on_c, 8, 52, 0
12, 188820, Note_on_c, 8, 52, 84
12, 188879, Note_on_c, 8, 52, 0
12, 188880, Note_on_c, 8, 52, 84
12, 188999, Note_on_c, 8, 52, 0
12, 189240, Note_on_c, 8, 52, 84
12, 189299, Note_on_c, 8, 52, 0
12, 189300, Note_on_c, 8, 52, 84
12, 189359, Note_on_c, 8, 52, 0
12, 189360, Note_on_c, 8, 52, 84
12, 189479, Note_on_c, 8, 52, 0
12, 189600, Note_on_c, 8, 45, 84
12, 189719, Note_on_c, 8, 45, 0
12, 189840, Note_on_c, 8, 45, 84
12, 189959, Note_on_c, 8, 45, 0
12, 190080, Note_on_c, 8, 45, 84
12, 190199, Note_on_c, 8, 45, 0
12, 190320, Note_on_c, 8, 45, 84
12, 190439, Note_on_c, 8, 45, 0
12, 190560, Note_on_c, 8, 52, 84
12, 190679, Note_on_c, 8, 52, 0
12, 190800, Note_on_c, 8, 52, 84
12, 190919, Note_on_c, 8, 52, 0
12, 191040, Note_on_c, 8, 52, 84
12, 191159, Note_on_c, 8, 52, 0
12, 191280, Note_on_c, 8, 52, 84
12, 191399, Note_on_c, 8, 52, 0
12, 191520, Note_on_c, 8, 45, 84
12, 191639, Note_on_c, 8, 45, 0
12, 191640, Note_on_c, 8, 45, 84
12, 191699, Note_on_c, 8, 45, 0
12, 191700, Note_on_c, 8, 45, 84
12, 191759, Note_on_c, 8, 45, 0
12, 191760, Note_on_c, 8, 45, 84
12, 191879, Note_on_c, 8, 45, 0
12, 192120, Note_on_c, 8, 45, 84
12, 192179, Note_on_c, 8, 45, 0
12, 192180, Note_on_c, 8, 45, 84
12, 192239, Note_on_c, 8, 45, 0
12, 192240, Note_on_c, 8, 45, 84
12, 192359, Note_on_c, 8, 45, 0
12, 192600, Note_on_c, 8, 52, 84
12, 192659, Note_on_c, 8, 52, 0
12, 192660, Note_on_c, 8, 52, 84
12, 192719, Note_on_c, 8, 52, 0
12, 192720, Note_on_c, 8, 52, 84
12, 192839, Note_on_c, 8, 52, 0
12, 193080, Note_on_c, 8, 52, 84
12, 193139, Note_on_c, 8, 52, 0
12, 193140, Note_on_c, 8, 52, 84
12, 193199, Note_on_c, 8, 52, 0
12, 193200, Note_on_c, 8, 52, 84
12, 193319, Note_on_c, 8, 52, 0
12, 193440, Note_on_c, 8, 45, 84
12, 193559, Note_on_c, 8, 45, 0
12, 193680, Note_on_c, 8, 45, 84
12, 193799, Note_on_c, 8, 45, 0
12, 193920, Note_on_c, 8, 45, 84
12, 194039, Note_on_c, 8, 45, 0
12, 194160, Note_on_c, 8, 45, 84
12, 194279, Note_on_c, 8, 45, 0
12, 194400, Note_on_c, 8, 52, 84
12, 194519, Note_on_c, 8, 52, 0
12, 194640, Note_on_c, 8, 52, 84
12, 194759, Note_on_c, 8, 52, 0
12, 194880, Note_on_c, 8, 52, 84
12, 194999, Note_on_c, 8, 52, 0
12, 195120, Note_on_c, 8, 52, 84
12, 195239, Note_on_c, 8, 52, 0
12, 195360, Note_on_c, 8, 45, 84
12, 195479, Note_on_c, 8, 45, 0
12, 196080, Note_on_c, 8, 52, 84
12, 196199, Note_on_c, 8, 52, 0
12, 196320, Note_on_c, 8, 45, 84
12, 196439, Note_on_c, 8, 45, 0
12, 196560, Note_on_c, 8, 52, 84
12, 196679, Note_on_c, 8, 52, 0
12, 196800, Note_on_c, 8, 45, 84
12, 196919, Note_on_c, 8, 45, 0
12, 197040, Note_on_c, 8, 52, 84
12, 197159, Note_on_c, 8, 52, 0
12, 197280, Note_on_c, 8, 45, 84
12, 197399, Note_on_c, 8, 45, 0
12, 198000, Note_on_c, 8, 52, 84
12, 198119, Note_on_c, 8, 52, 0
12, 198240, Note_on_c, 8, 45, 84
12, 198479, Note_on_c, 8, 45, 0
12, 198480, Note_on_c, 8, 45, 84
12, 198719, Note_on_c, 8, 45, 0
12, 198720, Note_on_c, 8, 45, 84
12, 198959, Note_on_c, 8, 45, 0
12, 198960, Note_on_c, 8, 45, 84
12, 199199, Note_on_c, 8, 45, 0
12, 199200, Note_on_c, 8, 45, 84
12, 199319, Note_on_c, 8, 45, 0
12, 199920, Note_on_c, 8, 45, 84
12, 200039, Note_on_c, 8, 45, 0
12, 200160, Note_on_c, 8, 45, 84
12, 200279, Note_on_c, 8, 45, 0
12, 200400, Note_on_c, 8, 45, 84
12, 200519, Note_on_c, 8, 45, 0
12, 200640, Note_on_c, 8, 45, 84
12, 200759, Note_on_c, 8, 45, 0
12, 200880, Note_on_c, 8, 45, 84
12, 200999, Note_on_c, 8, 45, 0
12, 201120, Note_on_c, 8, 45, 84
12, 201239, Note_on_c, 8, 45, 0
12, 201840, Note_on_c, 8, 45, 84
12, 202079, Note_on_c, 8, 45, 0
12, 202080, Note_on_c, 8, 45, 84
12, 202319, Note_on_c, 8, 45, 0
12, 202320, Note_on_c, 8, 45, 84
12, 202559, Note_on_c, 8, 45, 0
12, 202560, Note_on_c, 8, 45, 84
12, 202799, Note_on_c, 8, 45, 0
12, 202800, Note_on_c, 8, 45, 84
12, 203039, Note_on_c, 8, 45, 0
12, 203040, Note_on_c, 8, 45, 84
12, 203159, Note_on_c, 8, 45, 0
12, 203280, Note_on_c, 8, 45, 84
12, 203399, Note_on_c, 8, 45, 0
12, 203520, Note_on_c, 8, 45, 84
12, 203639, Note_on_c, 8, 45, 0
12, 203760, Note_on_c, 8, 45, 84
12, 203879, Note_on_c, 8, 45, 0
12, 204000, Note_on_c, 8, 45, 84
12, 204119, Note_on_c, 8, 45, 0
12, 204240, Note_on_c, 8, 45, 84
12, 204359, Note_on_c, 8, 45, 0
12, 204480, Note_on_c, 8, 45, 84
12, 204599, Note_on_c, 8, 45, 0
12, 204720, Note_on_c, 8, 45, 84
12, 204839, Note_on_c, 8, 45, 0
12, 204960, Note_on_c, 8, 45, 84
12, 205079, Note_on_c, 8, 45, 0
12, 205200, Note_on_c, 8, 45, 84
12, 205319, Note_on_c, 8, 45, 0
12, 205440, Note_on_c, 8, 45, 84
12, 205559, Note_on_c, 8, 45, 0
12, 205680, Note_on_c, 8, 45, 84
12, 205799, Note_on_c, 8, 45, 0
12, 205920, Note_on_c, 8, 52, 84
12, 206039, Note_on_c, 8, 52, 0
12, 206160, Note_on_c, 8, 52, 84
12, 206279, Note_on_c, 8, 52, 0
12, 206400, Note_on_c, 8, 45, 84
12, 206519, Note_on_c, 8, 45, 0
12, 206640, Note_on_c, 8, 45, 84
12, 206759, Note_on_c, 8, 45, 0
12, 207120, Note_on_c, 8, 45, 84
12, 207239, Note_on_c, 8, 45, 0
12, 207360, Note_on_c, 8, 45, 84
12, 207479, Note_on_c, 8, 45, 0
12, 207600, Note_on_c, 8, 45, 84
12, 207719, Note_on_c, 8, 45, 0
12, 207840, Note_on_c, 8, 52, 84
12, 207959, Note_on_c, 8, 52, 0
12, 208080, Note_on_c, 8, 52, 76
12, 208169, Note_on_c, 8, 52, 0
12, 210000, Note_on_c, 8, 52, 76
12, 210089, Note_on_c, 8, 52, 0
12, 213840, Note_on_c, 8, 45, 76
12, 213959, Note_on_c, 8, 45, 0
12, 214320, Note_on_c, 8, 52, 76
12, 214439, Note_on_c, 8, 52, 0
12, 214800, Note_on_c, 8, 45, 76
12, 214919, Note_on_c, 8, 45, 0
12, 215280, Note_on_c, 8, 52, 76
12, 215399, Note_on_c, 8, 52, 0
12, 218640, Note_on_c, 8, 45, 76
12, 218759, Note_on_c, 8, 45, 0
12, 219120, Note_on_c, 8, 52, 76
12, 219239, Note_on_c, 8, 52, 0
12, 219600, Note_on_c, 8, 45, 76
12, 219719, Note_on_c, 8, 45, 0
12, 220080, Note_on_c, 8, 52, 76
12, 220199, Note_on_c, 8, 52, 0
12, 224160, Note_on_c, 8, 52, 52
12, 224219, Note_on_c, 8, 52, 0
12, 224220, Note_on_c, 8, 52, 52
12, 224279, Note_on_c, 8, 52, 0
12, 224280, Note_on_c, 8, 52, 52
12, 224339, Note_on_c, 8, 52, 0
12, 224340, Note_on_c, 8, 52, 53
12, 224399, Note_on_c, 8, 52, 0
12, 224400, Note_on_c, 8, 52, 53
12, 224459, Note_on_c, 8, 52, 0
12, 224460, Note_on_c, 8, 52, 53
12, 224519, Note_on_c, 8, 52, 0
12, 224520, Note_on_c, 8, 52, 54
12, 224579, Note_on_c, 8, 52, 0
12, 224580, Note_on_c, 8, 52, 54
12, 224639, Note_on_c, 8, 52, 0
12, 224640, Note_on_c, 8, 52, 54
12, 224699, Note_on_c, 8, 52, 0
12, 224700, Note_on_c, 8, 52, 55
12, 224759, Note_on_c, 8, 52, 0
12, 224760, Note_on_c, 8, 52, 55
12, 224819, Note_on_c, 8, 52, 0
12, 224820, Note_on_c, 8, 52, 55
12, 224879, Note_on_c, 8, 52, 0
12, 224880, Note_on_c, 8, 52, 56
12, 224939, Note_on_c, 8, 52, 0
12, 224940, Note_on_c, 8, 52, 56
12, 224999, Note_on_c, 8, 52, 0
12, 225000, Note_on_c, 8, 52, 56
12, 225059, Note_on_c, 8, 52, 0
12, 225060, Note_on_c, 8, 52, 57
12, 225119, Note_on_c, 8, 52, 0
12, 225120, Note_on_c, 8, 52, 57
12, 225179, Note_on_c, 8, 52, 0
12, 225180, Note_on_c, 8, 52, 57
12, 225239, Note_on_c, 8, 52, 0
12, 225240, Note_on_c, 8, 52, 58
12, 225299, Note_on_c, 8, 52, 0
12, 225300, Note_on_c, 8, 52, 58
12, 225359, Note_on_c, 8, 52, 0
12, 225360, Note_on_c, 8, 52, 58
12, 225419, Note_on_c, 8, 52, 0
12, 225420, Note_on_c, 8, 52, 59
12, 225479, Note_on_c, 8, 52, 0
12, 225480, Note_on_c, 8, 52, 59
12, 225539, Note_on_c, 8, 52, 0
12, 225540, Note_on_c, 8, 52, 59
12, 225599, Note_on_c, 8, 52, 0
12, 225600, Note_on_c, 8, 52, 60
12, 225659, Note_on_c, 8, 52, 0
12, 225660, Note_on_c, 8, 52, 60
12, 225719, Note_on_c, 8, 52, 0
12, 225720, Note_on_c, 8, 52, 60
12, 225779, Note_on_c, 8, 52, 0
12, 225780, Note_on_c, 8, 52, 61
12, 225839, Note_on_c, 8, 52, 0
12, 225840, Note_on_c, 8, 52, 61
12, 225899, Note_on_c, 8, 52, 0
12, 225900, Note_on_c, 8, 52, 61
12, 225959, Note_on_c, 8, 52, 0
12, 225960, Note_on_c, 8, 52, 62
12, 226019, Note_on_c, 8, 52, 0
12, 226020, Note_on_c, 8, 52, 62
12, 226079, Note_on_c, 8, 52, 0
12, 226080, Note_on_c, 8, 52, 62
12, 226139, Note_on_c, 8, 52, 0
12, 226140, Note_on_c, 8, 52, 63
12, 226199, Note_on_c, 8, 52, 0
12, 226200, Note_on_c, 8, 52, 63
12, 226259, Note_on_c, 8, 52, 0
12, 226260, Note_on_c, 8, 52, 63
12, 226319, Note_on_c, 8, 52, 0
12, 226320, Note_on_c, 8, 52, 64
12, 226379, Note_on_c, 8, 52, 0
12, 226380, Note_on_c, 8, 52, 64
12, 226439, Note_on_c, 8, 52, 0
12, 226440, Note_on_c, 8, 52, 64
12, 226499, Note_on_c, 8, 52, 0
12, 226500, Note_on_c, 8, 52, 65
12, 226559, Note_on_c, 8, 52, 0
12, 226560, Note_on_c, 8, 52, 65
12, 226619, Note_on_c, 8, 52, 0
12, 226620, Note_on_c, 8, 52, 65
12, 226679, Note_on_c, 8, 52, 0
12, 226680, Note_on_c, 8, 52, 66
12, 226739, Note_on_c, 8, 52, 0
12, 226740, Note_on_c, 8, 52, 66
12, 226799, Note_on_c, 8, 52, 0
12, 226800, Note_on_c, 8, 52, 66
12, 226859, Note_on_c, 8, 52, 0
12, 226860, Note_on_c, 8, 52, 67
12, 226919, Note_on_c, 8, 52, 0
12, 226920, Note_on_c, 8, 52, 67
12, 226979, Note_on_c, 8, 52, 0
12, 226980, Note_on_c, 8, 52, 67
12, 227039, Note_on_c, 8, 52, 0
12, 227040, Note_on_c, 8, 52, 68
12, 227099, Note_on_c, 8, 52, 0
12, 227100, Note_on_c, 8, 52, 68
12, 227159, Note_on_c, 8, 52, 0
12, 227160, Note_on_c, 8, 52, 68
12, 227219, Note_on_c, 8, 52, 0
12, 227220, Note_on_c, 8, 52, 69
12, 227279, Note_on_c, 8, 52, 0
12, 227280, Note_on_c, 8, 52, 69
12, 227339, Note_on_c, 8, 52, 0
12, 227340, Note_on_c, 8, 52, 69
12, 227399, Note_on_c, 8, 52, 0
12, 227400, Note_on_c, 8, 52, 70
12, 227459, Note_on_c, 8, 52, 0
12, 227460, Note_on_c, 8, 52, 70
12, 227519, Note_on_c, 8, 52, 0
12, 227520, Note_on_c, 8, 52, 70
12, 227579, Note_on_c, 8, 52, 0
12, 227580, Note_on_c, 8, 52, 71
12, 227639, Note_on_c, 8, 52, 0
12, 227640, Note_on_c, 8, 52, 71
12, 227699, Note_on_c, 8, 52, 0
12, 227700, Note_on_c, 8, 52, 71
12, 227759, Note_on_c, 8, 52, 0
12, 227760, Note_on_c, 8, 52, 72
12, 227819, Note_on_c, 8, 52, 0
12, 227820, Note_on_c, 8, 52, 72
12, 227879, Note_on_c, 8, 52, 0
12, 227880, Note_on_c, 8, 52, 72
12, 227939, Note_on_c, 8, 52, 0
12, 227940, Note_on_c, 8, 52, 73
12, 227999, Note_on_c, 8, 52, 0
12, 228000, Note_on_c, 8, 52, 73
12, 228059, Note_on_c, 8, 52, 0
12, 228060, Note_on_c, 8, 52, 73
12, 228119, Note_on_c, 8, 52, 0
12, 228120, Note_on_c, 8, 52, 74
12, 228179, Note_on_c, 8, 52, 0
12, 228180, Note_on_c, 8, 52, 74
12, 228239, Note_on_c, 8, 52, 0
12, 228240, Note_on_c, 8, 52, 74
12, 228299, Note_on_c, 8, 52, 0
12, 228300, Note_on_c, 8, 52, 75
12, 228359, Note_on_c, 8, 52, 0
12, 228360, Note_on_c, 8, 52, 75
12, 228419, Note_on_c, 8, 52, 0
12, 228420, Note_on_c, 8, 52, 75
12, 228479, Note_on_c, 8, 52, 0
12, 228480, Note_on_c, 8, 52, 76
12, 228539, Note_on_c, 8, 52, 0
12, 228540, Note_on_c, 8, 52, 76
12, 228599, Note_on_c, 8, 52, 0
12, 228600, Note_on_c, 8, 52, 76
12, 228659, Note_on_c, 8, 52, 0
12, 228660, Note_on_c, 8, 52, 77
12, 228719, Note_on_c, 8, 52, 0
12, 228720, Note_on_c, 8, 52, 77
12, 228779, Note_on_c, 8, 52, 0
12, 228780, Note_on_c, 8, 52, 77
12, 228839, Note_on_c, 8, 52, 0
12, 228840, Note_on_c, 8, 52, 78
12, 228899, Note_on_c, 8, 52, 0
12, 228900, Note_on_c, 8, 52, 78
12, 228959, Note_on_c, 8, 52, 0
12, 228960, Note_on_c, 8, 52, 78
12, 229019, Note_on_c, 8, 52, 0
12, 229020, Note_on_c, 8, 52, 79
12, 229079, Note_on_c, 8, 52, 0
12, 229080, Note_on_c, 8, 52, 79
12, 229139, Note_on_c, 8, 52, 0
12, 229140, Note_on_c, 8, 52, 79
12, 229199, Note_on_c, 8, 52, 0
12, 229200, Note_on_c, 8, 52, 80
12, 229259, Note_on_c, 8, 52, 0
12, 229260, Note_on_c, 8, 52, 80
12, 229319, Note_on_c, 8, 52, 0
12, 229320, Note_on_c, 8, 52, 80
12, 229379, Note_on_c, 8, 52, 0
12, 229380, Note_on_c, 8, 52, 81
12, 229439, Note_on_c, 8, 52, 0
12, 229440, Note_on_c, 8, 52, 81
12, 229499, Note_on_c, 8, 52, 0
12, 229500, Note_on_c, 8, 52, 81
12, 229559, Note_on_c, 8, 52, 0
12, 229560, Note_on_c, 8, 52, 82
12, 229619, Note_on_c, 8, 52, 0
12, 229620, Note_on_c, 8, 52, 82
12, 229679, Note_on_c, 8, 52, 0
12, 229680, Note_on_c, 8, 52, 82
12, 229739, Note_on_c, 8, 52, 0
12, 229740, Note_on_c, 8, 52, 83
12, 229799, Note_on_c, 8, 52, 0
12, 229800, Note_on_c, 8, 52, 83
12, 229859, Note_on_c, 8, 52, 0
12, 229860, Note_on_c, 8, 52, 83
12, 229919, Note_on_c, 8, 52, 0
12, 229920, Note_on_c, 8, 52, 84
12, 229979, Note_on_c, 8, 52, 0
12, 229980, Note_on_c, 8, 52, 84
12, 230039, Note_on_c, 8, 52, 0
12, 230040, Note_on_c, 8, 52, 84
12, 230099, Note_on_c, 8, 52, 0
12, 230100, Note_on_c, 8, 52, 84
12, 230159, Note_on_c, 8, 52, 0
12, 230160, Note_on_c, 8, 52, 84
12, 230219, Note_on_c, 8, 52, 0
12, 230220, Note_on_c, 8, 52, 84
12, 230279, Note_on_c, 8, 52, 0
12, 230280, Note_on_c, 8, 52, 84
12, 230339, Note_on_c, 8, 52, 0
12, 230340, Note_on_c, 8, 52, 84
12, 230399, Note_on_c, 8, 52, 0
12, 230400, Note_on_c, 8, 52, 84
12, 230459, Note_on_c, 8, 52, 0
12, 230460, Note_on_c, 8, 52, 84
12, 230519, Note_on_c, 8, 52, 0
12, 230520, Note_on_c, 8, 52, 84
12, 230579, Note_on_c, 8, 52, 0
12, 230580, Note_on_c, 8, 52, 84
12, 230639, Note_on_c, 8, 52, 0
12, 230640, Note_on_c, 8, 52, 84
12, 230699, Note_on_c, 8, 52, 0
12, 230700, Note_on_c, 8, 52, 84
12, 230759, Note_on_c, 8, 52, 0
12, 230760, Note_on_c, 8, 52, 84
12, 230819, Note_on_c, 8, 52, 0
12, 230820, Note_on_c, 8, 52, 84
12, 230879, Note_on_c, 8, 52, 0
12, 230880, Note_on_c, 8, 45, 92
12, 230939, Note_on_c, 8, 45, 0
12, 230940, Note_on_c, 8, 45, 84
12, 230999, Note_on_c, 8, 45, 0
12, 231000, Note_on_c, 8, 45, 84
12, 231059, Note_on_c, 8, 45, 0
12, 231060, Note_on_c, 8, 45, 84
12, 231119, Note_on_c, 8, 45, 0
12, 231120, Note_on_c, 8, 45, 84
12, 231179, Note_on_c, 8, 45, 0
12, 231180, Note_on_c, 8, 45, 84
12, 231239, Note_on_c, 8, 45, 0
12, 231240, Note_on_c, 8, 45, 84
12, 231299, Note_on_c, 8, 45, 0
12, 231300, Note_on_c, 8, 45, 84
12, 231359, Note_on_c, 8, 45, 0
12, 231360, Note_on_c, 8, 52, 92
12, 231419, Note_on_c, 8, 52, 0
12, 231420, Note_on_c, 8, 52, 84
12, 231479, Note_on_c, 8, 52, 0
12, 231480, Note_on_c, 8, 52, 84
12, 231539, Note_on_c, 8, 52, 0
12, 231540, Note_on_c, 8, 52, 84
12, 231599, Note_on_c, 8, 52, 0
12, 231600, Note_on_c, 8, 52, 84
12, 231659, Note_on_c, 8, 52, 0
12, 231660, Note_on_c, 8, 52, 84
12, 231719, Note_on_c, 8, 52, 0
12, 231720, Note_on_c, 8, 52, 84
12, 231779, Note_on_c, 8, 52, 0
12, 231780, Note_on_c, 8, 52, 84
12, 231839, Note_on_c, 8, 52, 0
12, 231840, Note_on_c, 8, 45, 92
12, 231899, Note_on_c, 8, 45, 0
12, 231900, Note_on_c, 8, 45, 84
12, 231959, Note_on_c, 8, 45, 0
12, 231960, Note_on_c, 8, 45, 84
12, 232019, Note_on_c, 8, 45, 0
12, 232020, Note_on_c, 8, 45, 84
12, 232079, Note_on_c, 8, 45, 0
12, 232080, Note_on_c, 8, 45, 84
12, 232139, Note_on_c, 8, 45, 0
12, 232140, Note_on_c, 8, 45, 84
12, 232199, Note_on_c, 8, 45, 0
12, 232200, Note_on_c, 8, 45, 84
12, 232259, Note_on_c, 8, 45, 0
12, 232260, Note_on_c, 8, 45, 84
12, 232319, Note_on_c, 8, 45, 0
12, 232320, Note_on_c, 8, 52, 92
12, 232379, Note_on_c, 8, 52, 0
12, 232380, Note_on_c, 8, 52, 84
12, 232439, Note_on_c, 8, 52, 0
12, 232440, Note_on_c, 8, 52, 84
12, 232499, Note_on_c, 8, 52, 0
12, 232500, Note_on_c, 8, 52, 84
12, 232559, Note_on_c, 8, 52, 0
12, 232560, Note_on_c, 8, 52, 84
12, 232619, Note_on_c, 8, 52, 0
12, 232620, Note_on_c, 8, 52, 84
12, 232679, Note_on_c, 8, 52, 0
12, 232680, Note_on_c, 8, 52, 84
12, 232739, Note_on_c, 8, 52, 0
12, 232740, Note_on_c, 8, 52, 84
12, 232799, Note_on_c, 8, 52, 0
12, 232800, Note_on_c, 8, 52, 84
12, 232859, Note_on_c, 8, 52, 0
12, 232860, Note_on_c, 8, 52, 84
12, 232919, Note_on_c, 8, 52, 0
12, 232920, Note_on_c, 8, 52, 84
12, 232979, Note_on_c, 8, 52, 0
12, 232980, Note_on_c, 8, 52, 84
12, 233039, Note_on_c, 8, 52, 0
12, 233040, Note_on_c, 8, 52, 84
12, 233099, Note_on_c, 8, 52, 0
12, 233100, Note_on_c, 8, 52, 84
12, 233159, Note_on_c, 8, 52, 0
12, 233160, Note_on_c, 8, 52, 84
12, 233219, Note_on_c, 8, 52, 0
12, 233220, Note_on_c, 8, 52, 84
12, 233279, Note_on_c, 8, 52, 0
12, 233280, Note_on_c, 8, 52, 84
12, 233339, Note_on_c, 8, 52, 0
12, 233340, Note_on_c, 8, 52, 84
12, 233399, Note_on_c, 8, 52, 0
12, 233400, Note_on_c, 8, 52, 84
12, 233459, Note_on_c, 8, 52, 0
12, 233460, Note_on_c, 8, 52, 84
12, 233519, Note_on_c, 8, 52, 0
12, 233520, Note_on_c, 8, 52, 84
12, 233579, Note_on_c, 8, 52, 0
12, 233580, Note_on_c, 8, 52, 84
12, 233639, Note_on_c, 8, 52, 0
12, 233640, Note_on_c, 8, 52, 84
12, 233699, Note_on_c, 8, 52, 0
12, 233700, Note_on_c, 8, 52, 84
12, 233759, Note_on_c, 8, 52, 0
12, 233760, Note_on_c, 8, 45, 92
12, 233819, Note_on_c, 8, 45, 0
12, 233820, Note_on_c, 8, 45, 84
12, 233879, Note_on_c, 8, 45, 0
12, 233880, Note_on_c, 8, 45, 84
12, 233939, Note_on_c, 8, 45, 0
12, 233940, Note_on_c, 8, 45, 84
12, 233999, Note_on_c, 8, 45, 0
12, 234000, Note_on_c, 8, 45, 84
12, 234059, Note_on_c, 8, 45, 0
12, 234060, Note_on_c, 8, 45, 84
12, 234119, Note_on_c, 8, 45, 0
12, 234120, Note_on_c, 8, 45, 84
12, 234179, Note_on_c, 8, 45, 0
12, 234180, Note_on_c, 8, 45, 84
12, 234239, Note_on_c, 8, 45, 0
12, 234240, Note_on_c, 8, 52, 92
12, 234299, Note_on_c, 8, 52, 0
12, 234300, Note_on_c, 8, 52, 84
12, 234359, Note_on_c, 8, 52, 0
12, 234360, Note_on_c, 8, 52, 84
12, 234419, Note_on_c, 8, 52, 0
12, 234420, Note_on_c, 8, 52, 84
12, 234479, Note_on_c, 8, 52, 0
12, 234480, Note_on_c, 8, 52, 84
12, 234539, Note_on_c, 8, 52, 0
12, 234540, Note_on_c, 8, 52, 84
12, 234599, Note_on_c, 8, 52, 0
12, 234600, Note_on_c, 8, 52, 84
12, 234659, Note_on_c, 8, 52, 0
12, 234660, Note_on_c, 8, 52, 84
12, 234719, Note_on_c, 8, 52, 0
12, 234720, Note_on_c, 8, 45, 92
12, 234779, Note_on_c, 8, 45, 0
12, 234780, Note_on_c, 8, 45, 84
12, 234839, Note_on_c, 8, 45, 0
12, 234840, Note_on_c, 8, 45, 84
12, 234899, Note_on_c, 8, 45, 0
12, 234900, Note_on_c, 8, 45, 84
12, 234959, Note_on_c, 8, 45, 0
12, 234960, Note_on_c, 8, 45, 84
12, 235019, Note_on_c, 8, 45, 0
12, 235020, Note_on_c, 8, 45, 84
12, 235079, Note_on_c, 8, 45, 0
12, 235080, Note_on_c, 8, 45, 84
12, 235139, Note_on_c, 8, 45, 0
12, 235140, Note_on_c, 8, 45, 84
12, 235199, Note_on_c, 8, 45, 0
12, 235200, Note_on_c, 8, 45, 92
12, 235259, Note_on_c, 8, 45, 0
12, 235260, Note_on_c, 8, 45, 84
12, 235319, Note_on_c, 8, 45, 0
12, 235320, Note_on_c, 8, 45, 84
12, 235379, Note_on_c, 8, 45, 0
12, 235380, Note_on_c, 8, 45, 84
12, 235439, Note_on_c, 8, 45, 0
12, 235440, Note_on_c, 8, 45, 84
12, 235499, Note_on_c, 8, 45, 0
12, 235500, Note_on_c, 8, 45, 84
12, 235559, Note_on_c, 8, 45, 0
12, 235560, Note_on_c, 8, 45, 84
12, 235619, Note_on_c, 8, 45, 0
12, 235620, Note_on_c, 8, 45, 84
12, 235679, Note_on_c, 8, 45, 0
12, 235680, Note_on_c, 8, 52, 92
12, 235739, Note_on_c, 8, 52, 0
12, 235740, Note_on_c, 8, 52, 84
12, 235799, Note_on_c, 8, 52, 0
12, 235800, Note_on_c, 8, 52, 84
12, 235859, Note_on_c, 8, 52, 0
12, 235860, Note_on_c, 8, 52, 84
12, 235919, Note_on_c, 8, 52, 0
12, 235920, Note_on_c, 8, 52, 84
12, 235979, Note_on_c, 8, 52, 0
12, 235980, Note_on_c, 8, 52, 84
12, 236039, Note_on_c, 8, 52, 0
12, 236040, Note_on_c, 8, 52, 84
12, 236099, Note_on_c, 8, 52, 0
12, 236100, Note_on_c, 8, 52, 84
12, 236159, Note_on_c, 8, 52, 0
12, 236160, Note_on_c, 8, 52, 92
12, 236219, Note_on_c, 8, 52, 0
12, 236220, Note_on_c, 8, 52, 84
12, 236279, Note_on_c, 8, 52, 0
12, 236280, Note_on_c, 8, 52, 84
12, 236339, Note_on_c, 8, 52, 0
12, 236340, Note_on_c, 8, 52, 84
12, 236399, Note_on_c, 8, 52, 0
12, 236400, Note_on_c, 8, 52, 84
12, 236459, Note_on_c, 8, 52, 0
12, 236460, Note_on_c, 8, 52, 84
12, 236519, Note_on_c, 8, 52, 0
12, 236520, Note_on_c, 8, 52, 84
12, 236579, Note_on_c, 8, 52, 0
12, 236580, Note_on_c, 8, 52, 84
12, 236639, Note_on_c, 8, 52, 0
12, 236640, Note_on_c, 8, 45, 84
12, 236699, Note_on_c, 8, 45, 0
12, 236700, Note_on_c, 8, 45, 84
12, 236759, Note_on_c, 8, 45, 0
12, 236760, Note_on_c, 8, 45, 84
12, 236819, Note_on_c, 8, 45, 0
12, 236820, Note_on_c, 8, 45, 84
12, 236879, Note_on_c, 8, 45, 0
12, 236880, Note_on_c, 8, 45, 92
12, 236939, Note_on_c, 8, 45, 0
12, 236940, Note_on_c, 8, 45, 84
12, 236999, Note_on_c, 8, 45, 0
12, 237000, Note_on_c, 8, 45, 84
12, 237059, Note_on_c, 8, 45, 0
12, 237060, Note_on_c, 8, 45, 84
12, 237119, Note_on_c, 8, 45, 0
12, 237120, Note_on_c, 8, 45, 84
12, 237179, Note_on_c, 8, 45, 0
12, 237180, Note_on_c, 8, 45, 84
12, 237239, Note_on_c, 8, 45, 0
12, 237240, Note_on_c, 8, 45, 84
12, 237299, Note_on_c, 8, 45, 0
12, 237300, Note_on_c, 8, 45, 84
12, 237359, Note_on_c, 8, 45, 0
12, 237360, Note_on_c, 8, 45, 84
12, 237419, Note_on_c, 8, 45, 0
12, 237420, Note_on_c, 8, 45, 84
12, 237479, Note_on_c, 8, 45, 0
12, 237480, Note_on_c, 8, 45, 84
12, 237539, Note_on_c, 8, 45, 0
12, 237540, Note_on_c, 8, 45, 84
12, 237599, Note_on_c, 8, 45, 0
12, 237600, Note_on_c, 8, 45, 84
12, 237659, Note_on_c, 8, 45, 0
12, 237660, Note_on_c, 8, 45, 84
12, 237719, Note_on_c, 8, 45, 0
12, 237720, Note_on_c, 8, 45, 84
12, 237779, Note_on_c, 8, 45, 0
12, 237780, Note_on_c, 8, 45, 84
12, 237839, Note_on_c, 8, 45, 0
12, 237840, Note_on_c, 8, 45, 92
12, 237899, Note_on_c, 8, 45, 0
12, 237900, Note_on_c, 8, 45, 84
12, 237959, Note_on_c, 8, 45, 0
12, 237960, Note_on_c, 8, 45, 84
12, 238019, Note_on_c, 8, 45, 0
12, 238020, Note_on_c, 8, 45, 84
12, 238079, Note_on_c, 8, 45, 0
12, 238080, Note_on_c, 8, 45, 84
12, 238139, Note_on_c, 8, 45, 0
12, 238140, Note_on_c, 8, 45, 84
12, 238199, Note_on_c, 8, 45, 0
12, 238200, Note_on_c, 8, 45, 84
12, 238259, Note_on_c, 8, 45, 0
12, 238260, Note_on_c, 8, 45, 84
12, 238319, Note_on_c, 8, 45, 0
12, 238320, Note_on_c, 8, 45, 84
12, 238379, Note_on_c, 8, 45, 0
12, 238380, Note_on_c, 8, 45, 84
12, 238439, Note_on_c, 8, 45, 0
12, 238440, Note_on_c, 8, 45, 84
12, 238499, Note_on_c, 8, 45, 0
12, 238500, Note_on_c, 8, 45, 84
12, 238559, Note_on_c, 8, 45, 0
12, 238560, Note_on_c, 8, 45, 84
12, 238619, Note_on_c, 8, 45, 0
12, 238620, Note_on_c, 8, 45, 84
12, 238679, Note_on_c, 8, 45, 0
12, 238680, Note_on_c, 8, 45, 84
12, 238739, Note_on_c, 8, 45, 0
12, 238740, Note_on_c, 8, 45, 84
12, 238799, Note_on_c, 8, 45, 0
12, 238800, Note_on_c, 8, 45, 92
12, 238859, Note_on_c, 8, 45, 0
12, 238860, Note_on_c, 8, 45, 84
12, 238919, Note_on_c, 8, 45, 0
12, 238920, Note_on_c, 8, 45, 84
12, 238979, Note_on_c, 8, 45, 0
12, 238980, Note_on_c, 8, 45, 84
12, 239039, Note_on_c, 8, 45, 0
12, 239040, Note_on_c, 8, 45, 84
12, 239099, Note_on_c, 8, 45, 0
12, 239100, Note_on_c, 8, 45, 84
12, 239159, Note_on_c, 8, 45, 0
12, 239160, Note_on_c, 8, 45, 84
12, 239219, Note_on_c, 8, 45, 0
12, 239220, Note_on_c, 8, 45, 84
12, 239279, Note_on_c, 8, 45, 0
12, 239280, Note_on_c, 8, 45, 92
12, 239339, Note_on_c, 8, 45, 0
12, 239340, Note_on_c, 8, 45, 84
12, 239399, Note_on_c, 8, 45, 0
12, 239400, Note_on_c, 8, 45, 84
12, 239459, Note_on_c, 8, 45, 0
12, 239460, Note_on_c, 8, 45, 84
12, 239519, Note_on_c, 8, 45, 0
12, 239520, Note_on_c, 8, 45, 84
12, 239579, Note_on_c, 8, 45, 0
12, 239580, Note_on_c, 8, 45, 84
12, 239639, Note_on_c, 8, 45, 0
12, 239640, Note_on_c, 8, 45, 84
12, 239699, Note_on_c, 8, 45, 0
12, 239700, Note_on_c, 8, 45, 84
12, 239759, Note_on_c, 8, 45, 0
12, 239760, Note_on_c, 8, 45, 92
12, 239819, Note_on_c, 8, 45, 0
12, 239820, Note_on_c, 8, 45, 84
12, 239879, Note_on_c, 8, 45, 0
12, 239880, Note_on_c, 8, 45, 84
12, 239939, Note_on_c, 8, 45, 0
12, 239940, Note_on_c, 8, 45, 84
12, 239999, Note_on_c, 8, 45, 0
12, 240000, Note_on_c, 8, 45, 84
12, 240059, Note_on_c, 8, 45, 0
12, 240060, Note_on_c, 8, 45, 84
12, 240119, Note_on_c, 8, 45, 0
12, 240120, Note_on_c, 8, 45, 84
12, 240179, Note_on_c, 8, 45, 0
12, 240180, Note_on_c, 8, 45, 84
12, 240239, Note_on_c, 8, 45, 0
12, 240240, Note_on_c, 8, 45, 84
12, 240299, Note_on_c, 8, 45, 0
12, 240300, Note_on_c, 8, 45, 84
12, 240359, Note_on_c, 8, 45, 0
12, 240360, Note_on_c, 8, 45, 84
12, 240419, Note_on_c, 8, 45, 0
12, 240420, Note_on_c, 8, 45, 84
12, 240479, Note_on_c, 8, 45, 0
12, 240480, Note_on_c, 8, 45, 84
12, 240599, Note_on_c, 8, 45, 0
12, 240600, Note_on_c, 8, 45, 84
12, 240659, Note_on_c, 8, 45, 0
12, 240660, Note_on_c, 8, 45, 84
12, 240719, Note_on_c, 8, 45, 0
12, 240720, Note_on_c, 8, 45, 84
12, 240839, Note_on_c, 8, 45, 0
12, 241560, Note_on_c, 8, 45, 84
12, 241619, Note_on_c, 8, 45, 0
12, 241620, Note_on_c, 8, 45, 84
12, 241679, Note_on_c, 8, 45, 0
12, 241680, Note_on_c, 8, 45, 84
12, 241799, Note_on_c, 8, 45, 0
12, 242520, Note_on_c, 8, 45, 84
12, 242579, Note_on_c, 8, 45, 0
12, 242580, Note_on_c, 8, 45, 84
12, 242639, Note_on_c, 8, 45, 0
12, 242640, Note_on_c, 8, 45, 84
12, 242759, Note_on_c, 8, 45, 0
12, 243000, Note_on_c, 8, 45, 84
12, 243059, Note_on_c, 8, 45, 0
12, 243060, Note_on_c, 8, 45, 84
12, 243119, Note_on_c, 8, 45, 0
12, 243120, Note_on_c, 8, 45, 84
12, 243239, Note_on_c, 8, 45, 0
12, 243480, Note_on_c, 8, 45, 84
12, 243539, Note_on_c, 8, 45, 0
12, 243540, Note_on_c, 8, 45, 84
12, 243599, Note_on_c, 8, 45, 0
12, 243600, Note_on_c, 8, 45, 84
12, 243719, Note_on_c, 8, 45, 0
12, 243960, Note_on_c, 8, 45, 84
12, 244019, Note_on_c, 8, 45, 0
12, 244020, Note_on_c, 8, 45, 84
12, 244079, Note_on_c, 8, 45, 0
12, 244080, Note_on_c, 8, 45, 84
12, 244199, Note_on_c, 8, 45, 0
12, 250080, Note_on_c, 8, 45, 76
12, 250199, Note_on_c, 8, 45, 0
12, 251520, Note_on_c, 8, 45, 84
12, 251639, Note_on_c, 8, 45, 0
12, 258240, Note_on_c, 8, 45, 76
12, 258359, Note_on_c, 8, 45, 0
12, 261120, Note_on_c, 8, 45, 76
12, 261239, Note_on_c, 8, 45, 0
12, 262080, Note_on_c, 8, 52, 76
12, 262199, Note_on_c, 8, 52, 0
12, 263040, Note_on_c, 8, 52, 76
12, 263159, Note_on_c, 8, 52, 0
12, 264000, Note_on_c, 8, 52, 76
12, 264119, Note_on_c, 8, 52, 0
12, 264960, Note_on_c, 8, 52, 76
12, 265079, Note_on_c, 8, 52, 0
12, 265920, Note_on_c, 8, 52, 76
12, 266039, Note_on_c, 8, 52, 0
12, 266880, Note_on_c, 8, 52, 76
12, 266999, Note_on_c, 8, 52, 0
12, 267840, Note_on_c, 8, 52, 76
12, 267959, Note_on_c, 8, 52, 0
12, 268800, Note_on_c, 8, 52, 76
12, 268919, Note_on_c, 8, 52, 0
12, 269760, Note_on_c, 8, 52, 76
12, 269819, Note_on_c, 8, 52, 0
12, 269820, Note_on_c, 8, 52, 76
12, 269879, Note_on_c, 8, 52, 0
12, 269880, Note_on_c, 8, 52, 76
12, 269939, Note_on_c, 8, 52, 0
12, 269940, Note_on_c, 8, 52, 77
12, 269999, Note_on_c, 8, 52, 0
12, 270000, Note_on_c, 8, 52, 77
12, 270059, Note_on_c, 8, 52, 0
12, 270060, Note_on_c, 8, 52, 77
12, 270119, Note_on_c, 8, 52, 0
12, 270120, Note_on_c, 8, 52, 78
12, 270179, Note_on_c, 8, 52, 0
12, 270180, Note_on_c, 8, 52, 78
12, 270239, Note_on_c, 8, 52, 0
12, 270240, Note_on_c, 8, 52, 78
12, 270299, Note_on_c, 8, 52, 0
12, 270300, Note_on_c, 8, 52, 79
12, 270359, Note_on_c, 8, 52, 0
12, 270360, Note_on_c, 8, 52, 79
12, 270419, Note_on_c, 8, 52, 0
12, 270420, Note_on_c, 8, 52, 79
12, 270479, Note_on_c, 8, 52, 0
12, 270480, Note_on_c, 8, 52, 80
12, 270539, Note_on_c, 8, 52, 0
12, 270540, Note_on_c, 8, 52, 80
12, 270599, Note_on_c, 8, 52, 0
12, 270600, Note_on_c, 8, 52, 80
12, 270659, Note_on_c, 8, 52, 0
12, 270660, Note_on_c, 8, 52, 81
12, 270719, Note_on_c, 8, 52, 0
12, 270720, Note_on_c, 8, 52, 81
12, 270779, Note_on_c, 8, 52, 0
12, 270780, Note_on_c, 8, 52, 81
12, 270839, Note_on_c, 8, 52, 0
12, 270840, Note_on_c, 8, 52, 82
12, 270899, Note_on_c, 8, 52, 0
12, 270900, Note_on_c, 8, 52, 82
12, 270959, Note_on_c, 8, 52, 0
12, 270960, Note_on_c, 8, 52, 82
12, 271019, Note_on_c, 8, 52, 0
12, 271020, Note_on_c, 8, 52, 83
12, 271079, Note_on_c, 8, 52, 0
12, 271080, Note_on_c, 8, 52, 83
12, 271139, Note_on_c, 8, 52, 0
12, 271140, Note_on_c, 8, 52, 83
12, 271199, Note_on_c, 8, 52, 0
12, 271200, Note_on_c, 8, 45, 84
12, 271319, Note_on_c, 8, 45, 0
12, 271320, Note_on_c, 8, 45, 84
12, 271379, Note_on_c, 8, 45, 0
12, 271380, Note_on_c, 8, 45, 84
12, 271439, Note_on_c, 8, 45, 0
12, 271440, Note_on_c, 8, 45, 84
12, 271559, Note_on_c, 8, 45, 0
12, 271800, Note_on_c, 8, 45, 84
12, 271859, Note_on_c, 8, 45, 0
12, 271860, Note_on_c, 8, 45, 84
12, 271919, Note_on_c, 8, 45, 0
12, 271920, Note_on_c, 8, 45, 84
12, 272039, Note_on_c, 8, 45, 0
12, 272280, Note_on_c, 8, 52, 84
12, 272339, Note_on_c, 8, 52, 0
12, 272340, Note_on_c, 8, 52, 84
12, 272399, Note_on_c, 8, 52, 0
12, 272400, Note_on_c, 8, 52, 84
12, 272519, Note_on_c, 8, 52, 0
12, 272760, Note_on_c, 8, 52, 84
12, 272819, Note_on_c, 8, 52, 0
12, 272820, Note_on_c, 8, 52, 84
12, 272879, Note_on_c, 8, 52, 0
12, 272880, Note_on_c, 8, 52, 84
12, 272999, Note_on_c, 8, 52, 0
12, 273120, Note_on_c, 8, 45, 84
12, 273239, Note_on_c, 8, 45, 0
12, 273360, Note_on_c, 8, 45, 84
12, 273479, Note_on_c, 8, 45, 0
12, 273600, Note_on_c, 8, 45, 84
12, 273719, Note_on_c, 8, 45, 0
12, 273840, Note_on_c, 8, 45, 84
12, 273959, Note_on_c, 8, 45, 0
12, 274080, Note_on_c, 8, 52, 84
12, 274199, Note_on_c, 8, 52, 0
12, 274320, Note_on_c, 8, 52, 84
12, 274439, Note_on_c, 8, 52, 0
12, 274560, Note_on_c, 8, 52, 84
12, 274679, Note_on_c, 8, 52, 0
12, 274800, Note_on_c, 8, 52, 84
12, 274919, Note_on_c, 8, 52, 0
12, 275040, Note_on_c, 8, 45, 84
12, 275159, Note_on_c, 8, 45, 0
12, 275160, Note_on_c, 8, 45, 84
12, 275219, Note_on_c, 8, 45, 0
12, 275220, Note_on_c, 8, 45, 84
12, 275279, Note_on_c, 8, 45, 0
12, 275280, Note_on_c, 8, 45, 84
12, 275399, Note_on_c, 8, 45, 0
12, 275640, Note_on_c, 8, 45, 84
12, 275699, Note_on_c, 8, 45, 0
12, 275700, Note_on_c, 8, 45, 84
12, 275759, Note_on_c, 8, 45, 0
12, 275760, Note_on_c, 8, 45, 84
12, 275879, Note_on_c, 8, 45, 0
12, 276120, Note_on_c, 8, 52, 84
12, 276179, Note_on_c, 8, 52, 0
12, 276180, Note_on_c, 8, 52, 84
12, 276239, Note_on_c, 8, 52, 0
12, 276240, Note_on_c, 8, 52, 84
12, 276359, Note_on_c, 8, 52, 0
12, 276600, Note_on_c, 8, 52, 84
12, 276659, Note_on_c, 8, 52, 0
12, 276660, Note_on_c, 8, 52, 84
12, 276719, Note_on_c, 8, 52, 0
12, 276720, Note_on_c, 8, 52, 84
12, 276839, Note_on_c, 8, 52, 0
12, 276960, Note_on_c, 8, 45, 84
12, 277079, Note_on_c, 8, 45, 0
12, 277200, Note_on_c, 8, 45, 84
12, 277319, Note_on_c, 8, 45, 0
12, 277440, Note_on_c, 8, 45, 84
12, 277559, Note_on_c, 8, 45, 0
12, 277680, Note_on_c, 8, 45, 84
12, 277799, Note_on_c, 8, 45, 0
12, 277920, Note_on_c, 8, 52, 84
12, 278039, Note_on_c, 8, 52, 0
12, 278160, Note_on_c, 8, 52, 84
12, 278279, Note_on_c, 8, 52, 0
12, 278400, Note_on_c, 8, 52, 84
12, 278519, Note_on_c, 8, 52, 0
12, 278640, Note_on_c, 8, 52, 84
12, 278759, Note_on_c, 8, 52, 0
12, 278880, Note_on_c, 8, 52, 84
12, 278999, Note_on_c, 8, 52, 0
12, 279120, Note_on_c, 8, 52, 84
12, 279239, Note_on_c, 8, 52, 0
12, 279360, Note_on_c, 8, 52, 84
12, 279479, Note_on_c, 8, 52, 0
12, 279600, Note_on_c, 8, 52, 84
12, 279719, Note_on_c, 8, 52, 0
12, 279840, Note_on_c, 8, 52, 84
12, 279959, Note_on_c, 8, 52, 0
12, 280080, Note_on_c, 8, 52, 84
12, 280199, Note_on_c, 8, 52, 0
12, 280320, Note_on_c, 8, 52, 84
12, 280439, Note_on_c, 8, 52, 0
12, 280560, Note_on_c, 8, 52, 84
12, 280679, Note_on_c, 8, 52, 0
12, 280800, Note_on_c, 8, 52, 84
12, 280919, Note_on_c, 8, 52, 0
12, 281040, Note_on_c, 8, 52, 84
12, 281159, Note_on_c, 8, 52, 0
12, 281280, Note_on_c, 8, 52, 84
12, 281399, Note_on_c, 8, 52, 0
12, 281520, Note_on_c, 8, 52, 84
12, 281639, Note_on_c, 8, 52, 0
12, 281760, Note_on_c, 8, 45, 92
12, 281819, Note_on_c, 8, 45, 0
12, 281820, Note_on_c, 8, 45, 92
12, 281879, Note_on_c, 8, 45, 0
12, 281880, Note_on_c, 8, 45, 92
12, 281939, Note_on_c, 8, 45, 0
12, 281940, Note_on_c, 8, 45, 92
12, 281999, Note_on_c, 8, 45, 0
12, 282000, Note_on_c, 8, 45, 92
12, 282059, Note_on_c, 8, 45, 0
12, 282060, Note_on_c, 8, 45, 92
12, 282119, Note_on_c, 8, 45, 0
12, 282120, Note_on_c, 8, 45, 92
12, 282179, Note_on_c, 8, 45, 0
12, 282180, Note_on_c, 8, 45, 92
12, 282239, Note_on_c, 8, 45, 0
12, 282240, Note_on_c, 8, 45, 92
12, 282299, Note_on_c, 8, 45, 0
12, 282300, Note_on_c, 8, 45, 92
12, 282359, Note_on_c, 8, 45, 0
12, 282360, Note_on_c, 8, 45, 92
12, 282419, Note_on_c, 8, 45, 0
12, 282420, Note_on_c, 8, 45, 92
12, 282479, Note_on_c, 8, 45, 0
12, 282480, Note_on_c, 8, 45, 92
12, 282539, Note_on_c, 8, 45, 0
12, 282540, Note_on_c, 8, 45, 92
12, 282599, Note_on_c, 8, 45, 0
12, 282600, Note_on_c, 8, 45, 92
12, 282659, Note_on_c, 8, 45, 0
12, 282660, Note_on_c, 8, 45, 92
12, 282719, Note_on_c, 8, 45, 0
12, 282720, Note_on_c, 8, 45, 92
12, 282779, Note_on_c, 8, 45, 0
12, 282780, Note_on_c, 8, 45, 92
12, 282839, Note_on_c, 8, 45, 0
12, 282840, Note_on_c, 8, 45, 92
12, 282899, Note_on_c, 8, 45, 0
12, 282900, Note_on_c, 8, 45, 92
12, 282959, Note_on_c, 8, 45, 0
12, 282960, Note_on_c, 8, 45, 92
12, 283019, Note_on_c, 8, 45, 0
12, 283020, Note_on_c, 8, 45, 92
12, 283079, Note_on_c, 8, 45, 0
12, 283080, Note_on_c, 8, 45, 92
12, 283139, Note_on_c, 8, 45, 0
12, 283140, Note_on_c, 8, 45, 92
12, 283199, Note_on_c, 8, 45, 0
12, 283200, Note_on_c, 8, 45, 92
12, 283259, Note_on_c, 8, 45, 0
12, 283260, Note_on_c, 8, 45, 92
12, 283319, Note_on_c, 8, 45, 0
12, 283320, Note_on_c, 8, 45, 92
12, 283379, Note_on_c, 8, 45, 0
12, 283380, Note_on_c, 8, 45, 92
12, 283439, Note_on_c, 8, 45, 0
12, 283440, Note_on_c, 8, 45, 92
12, 283499, Note_on_c, 8, 45, 0
12, 283500, Note_on_c, 8, 45, 92
12, 283559, Note_on_c, 8, 45, 0
12, 283560, Note_on_c, 8, 45, 92
12, 283619, Note_on_c, 8, 45, 0
12, 283620, Note_on_c, 8, 45, 92
12, 283679, Note_on_c, 8, 45, 0
12, 283680, Note_on_c, 8, 45, 92
12, 283739, Note_on_c, 8, 45, 0
12, 283740, Note_on_c, 8, 45, 84
12, 283799, Note_on_c, 8, 45, 0
12, 283800, Note_on_c, 8, 45, 84
12, 283859, Note_on_c, 8, 45, 0
12, 283860, Note_on_c, 8, 45, 84
12, 283919, Note_on_c, 8, 45, 0
12, 283920, Note_on_c, 8, 45, 84
12, 283979, Note_on_c, 8, 45, 0
12, 283980, Note_on_c, 8, 45, 84
12, 284039, Note_on_c, 8, 45, 0
12, 284040, Note_on_c, 8, 45, 84
12, 284099, Note_on_c, 8, 45, 0
12, 284100, Note_on_c, 8, 45, 84
12, 284159, Note_on_c, 8, 45, 0
12, 284160, Note_on_c, 8, 45, 92
12, 284219, Note_on_c, 8, 45, 0
12, 284220, Note_on_c, 8, 45, 84
12, 284279, Note_on_c, 8, 45, 0
12, 284280, Note_on_c, 8, 45, 84
12, 284339, Note_on_c, 8, 45, 0
12, 284340, Note_on_c, 8, 45, 84
12, 284399, Note_on_c, 8, 45, 0
12, 284400, Note_on_c, 8, 45, 84
12, 284459, Note_on_c, 8, 45, 0
12, 284460, Note_on_c, 8, 45, 84
12, 284519, Note_on_c, 8, 45, 0
12, 284520, Note_on_c, 8, 45, 84
12, 284579, Note_on_c, 8, 45, 0
12, 284580, Note_on_c, 8, 45, 84
12, 284639, Note_on_c, 8, 45, 0
12, 284640, Note_on_c, 8, 52, 92
12, 284699, Note_on_c, 8, 52, 0
12, 284700, Note_on_c, 8, 52, 84
12, 284759, Note_on_c, 8, 52, 0
12, 284760, Note_on_c, 8, 52, 84
12, 284819, Note_on_c, 8, 52, 0
12, 284820, Note_on_c, 8, 52, 84
12, 284879, Note_on_c, 8, 52, 0
12, 284880, Note_on_c, 8, 52, 84
12, 284939, Note_on_c, 8, 52, 0
12, 284940, Note_on_c, 8, 52, 84
12, 284999, Note_on_c, 8, 52, 0
12, 285000, Note_on_c, 8, 52, 84
12, 285059, Note_on_c, 8, 52, 0
12, 285060, Note_on_c, 8, 52, 84
12, 285119, Note_on_c, 8, 52, 0
12, 285120, Note_on_c, 8, 52, 92
12, 285179, Note_on_c, 8, 52, 0
12, 285180, Note_on_c, 8, 52, 84
12, 285239, Note_on_c, 8, 52, 0
12, 285240, Note_on_c, 8, 52, 84
12, 285299, Note_on_c, 8, 52, 0
12, 285300, Note_on_c, 8, 52, 84
12, 285359, Note_on_c, 8, 52, 0
12, 285360, Note_on_c, 8, 52, 84
12, 285419, Note_on_c, 8, 52, 0
12, 285420, Note_on_c, 8, 52, 84
12, 285479, Note_on_c, 8, 52, 0
12, 285480, Note_on_c, 8, 52, 84
12, 285539, Note_on_c, 8, 52, 0
12, 285540, Note_on_c, 8, 52, 84
12, 285599, Note_on_c, 8, 52, 0
12, 285600, Note_on_c, 8, 52, 52
12, 285719, Note_on_c, 8, 52, 0
12, 285840, Note_on_c, 8, 52, 52
12, 285959, Note_on_c, 8, 52, 0
12, 286080, Note_on_c, 8, 52, 52
12, 286199, Note_on_c, 8, 52, 0
12, 286320, Note_on_c, 8, 52, 54
12, 286439, Note_on_c, 8, 52, 0
12, 286560, Note_on_c, 8, 52, 57
12, 286679, Note_on_c, 8, 52, 0
12, 286800, Note_on_c, 8, 52, 60
12, 286919, Note_on_c, 8, 52, 0
12, 287040, Note_on_c, 8, 52, 63
12, 287159, Note_on_c, 8, 52, 0
12, 287280, Note_on_c, 8, 52, 66
12, 287399, Note_on_c, 8, 52, 0
12, 287520, Note_on_c, 8, 52, 69
12, 287639, Note_on_c, 8, 52, 0
12, 287760, Note_on_c, 8, 52, 72
12, 287879, Note_on_c, 8, 52, 0
12, 288000, Note_on_c, 8, 52, 74
12, 288119, Note_on_c, 8, 52, 0
12, 288240, Note_on_c, 8, 52, 77
12, 288359, Note_on_c, 8, 52, 0
12, 288480, Note_on_c, 8, 52, 80
12, 288599, Note_on_c, 8, 52, 0
12, 288720, Note_on_c, 8, 52, 83
12, 288839, Note_on_c, 8, 52, 0
12, 288960, Note_on_c, 8, 52, 86
12, 289079, Note_on_c, 8, 52, 0
12, 289200, Note_on_c, 8, 52, 89
12, 289319, Note_on_c, 8, 52, 0
12, 289440, Note_on_c, 8, 45, 92
12, 289499, Note_on_c, 8, 45, 0
12, 289500, Note_on_c, 8, 45, 92
12, 289559, Note_on_c, 8, 45, 0
12, 289560, Note_on_c, 8, 45, 92
12, 289619, Note_on_c, 8, 45, 0
12, 289620, Note_on_c, 8, 45, 92
12, 289679, Note_on_c, 8, 45, 0
12, 289680, Note_on_c, 8, 45, 92
12, 289739, Note_on_c, 8, 45, 0
12, 289740, Note_on_c, 8, 45, 92
12, 289799, Note_on_c, 8, 45, 0
12, 289800, Note_on_c, 8, 45, 92
12, 289859, Note_on_c, 8, 45, 0
12, 289860, Note_on_c, 8, 45, 92
12, 289919, Note_on_c, 8, 45, 0
12, 289920, Note_on_c, 8, 45, 92
12, 289979, Note_on_c, 8, 45, 0
12, 289980, Note_on_c, 8, 45, 92
12, 290039, Note_on_c, 8, 45, 0
12, 290040, Note_on_c, 8, 45, 92
12, 290099, Note_on_c, 8, 45, 0
12, 290100, Note_on_c, 8, 45, 92
12, 290159, Note_on_c, 8, 45, 0
12, 290160, Note_on_c, 8, 45, 92
12, 290219, Note_on_c, 8, 45, 0
12, 290220, Note_on_c, 8, 45, 92
12, 290279, Note_on_c, 8, 45, 0
12, 290280, Note_on_c, 8, 45, 92
12, 290339, Note_on_c, 8, 45, 0
12, 290340, Note_on_c, 8, 45, 92
12, 290399, Note_on_c, 8, 45, 0
12, 290400, Note_on_c, 8, 45, 92
12, 290459, Note_on_c, 8, 45, 0
12, 290460, Note_on_c, 8, 45, 92
12, 290519, Note_on_c, 8, 45, 0
12, 290520, Note_on_c, 8, 45, 92
12, 290579, Note_on_c, 8, 45, 0
12, 290580, Note_on_c, 8, 45, 92
12, 290639, Note_on_c, 8, 45, 0
12, 290640, Note_on_c, 8, 45, 92
12, 290699, Note_on_c, 8, 45, 0
12, 290700, Note_on_c, 8, 45, 92
12, 290759, Note_on_c, 8, 45, 0
12, 290760, Note_on_c, 8, 45, 92
12, 290819, Note_on_c, 8, 45, 0
12, 290820, Note_on_c, 8, 45, 92
12, 290879, Note_on_c, 8, 45, 0
12, 290880, Note_on_c, 8, 45, 92
12, 290939, Note_on_c, 8, 45, 0
12, 290940, Note_on_c, 8, 45, 92
12, 290999, Note_on_c, 8, 45, 0
12, 291000, Note_on_c, 8, 45, 92
12, 291059, Note_on_c, 8, 45, 0
12, 291060, Note_on_c, 8, 45, 92
12, 291119, Note_on_c, 8, 45, 0
12, 291120, Note_on_c, 8, 45, 92
12, 291179, Note_on_c, 8, 45, 0
12, 291180, Note_on_c, 8, 45, 92
12, 291239, Note_on_c, 8, 45, 0
12, 291240, Note_on_c, 8, 45, 92
12, 291299, Note_on_c, 8, 45, 0
12, 291300, Note_on_c, 8, 45, 92
12, 291359, Note_on_c, 8, 45, 0
12, 291360, Note_on_c, 8, 45, 92
12, 291419, Note_on_c, 8, 45, 0
12, 291420, Note_on_c, 8, 45, 84
12, 291479, Note_on_c, 8, 45, 0
12, 291480, Note_on_c, 8, 45, 84
12, 291539, Note_on_c, 8, 45, 0
12, 291540, Note_on_c, 8, 45, 84
12, 291599, Note_on_c, 8, 45, 0
12, 291600, Note_on_c, 8, 45, 84
12, 291659, Note_on_c, 8, 45, 0
12, 291660, Note_on_c, 8, 45, 84
12, 291719, Note_on_c, 8, 45, 0
12, 291720, Note_on_c, 8, 45, 84
12, 291779, Note_on_c, 8, 45, 0
12, 291780, Note_on_c, 8, 45, 84
12, 291839, Note_on_c, 8, 45, 0
12, 291840, Note_on_c, 8, 45, 92
12, 291899, Note_on_c, 8, 45, 0
12, 291900, Note_on_c, 8, 45, 84
12, 291959, Note_on_c, 8, 45, 0
12, 291960, Note_on_c, 8, 45, 84
12, 292019, Note_on_c, 8, 45, 0
12, 292020, Note_on_c, 8, 45, 84
12, 292079, Note_on_c, 8, 45, 0
12, 292080, Note_on_c, 8, 45, 84
12, 292139, Note_on_c, 8, 45, 0
12, 292140, Note_on_c, 8, 45, 84
12, 292199, Note_on_c, 8, 45, 0
12, 292200, Note_on_c, 8, 45, 84
12, 292259, Note_on_c, 8, 45, 0
12, 292260, Note_on_c, 8, 45, 84
12, 292319, Note_on_c, 8, 45, 0
12, 292320, Note_on_c, 8, 52, 92
12, 292379, Note_on_c, 8, 52, 0
12, 292380, Note_on_c, 8, 52, 84
12, 292439, Note_on_c, 8, 52, 0
12, 292440, Note_on_c, 8, 52, 84
12, 292499, Note_on_c, 8, 52, 0
12, 292500, Note_on_c, 8, 52, 84
12, 292559, Note_on_c, 8, 52, 0
12, 292560, Note_on_c, 8, 52, 84
12, 292619, Note_on_c, 8, 52, 0
12, 292620, Note_on_c, 8, 52, 84
12, 292679, Note_on_c, 8, 52, 0
12, 292680, Note_on_c, 8, 52, 84
12, 292739, Note_on_c, 8, 52, 0
12, 292740, Note_on_c, 8, 52, 84
12, 292799, Note_on_c, 8, 52, 0
12, 292800, Note_on_c, 8, 52, 92
12, 292859, Note_on_c, 8, 52, 0
12, 292860, Note_on_c, 8, 52, 84
12, 292919, Note_on_c, 8, 52, 0
12, 292920, Note_on_c, 8, 52, 84
12, 292979, Note_on_c, 8, 52, 0
12, 292980, Note_on_c, 8, 52, 84
12, 293039, Note_on_c, 8, 52, 0
12, 293040, Note_on_c, 8, 52, 84
12, 293099, Note_on_c, 8, 52, 0
12, 293100, Note_on_c, 8, 52, 84
12, 293159, Note_on_c, 8, 52, 0
12, 293160, Note_on_c, 8, 52, 84
12, 293219, Note_on_c, 8, 52, 0
12, 293220, Note_on_c, 8, 52, 84
12, 293279, Note_on_c, 8, 52, 0
12, 293280, Note_on_c, 8, 45, 84
12, 293399, Note_on_c, 8, 45, 0
12, 294000, Note_on_c, 8, 52, 92
12, 294059, Note_on_c, 8, 52, 0
12, 294060, Note_on_c, 8, 52, 84
12, 294119, Note_on_c, 8, 52, 0
12, 294120, Note_on_c, 8, 52, 84
12, 294179, Note_on_c, 8, 52, 0
12, 294180, Note_on_c, 8, 52, 84
12, 294239, Note_on_c, 8, 52, 0
12, 294240, Note_on_c, 8, 45, 84
12, 294479, Note_on_c, 8, 45, 0
12, 294480, Note_on_c, 8, 52, 84
12, 294539, Note_on_c, 8, 52, 0
12, 294540, Note_on_c, 8, 52, 84
12, 294599, Note_on_c, 8, 52, 0
12, 294600, Note_on_c, 8, 52, 84
12, 294659, Note_on_c, 8, 52, 0
12, 294660, Note_on_c, 8, 52, 84
12, 294719, Note_on_c, 8, 52, 0
12, 294720, Note_on_c, 8, 45, 84
12, 294959, Note_on_c, 8, 45, 0
12, 294960, Note_on_c, 8, 52, 84
12, 295019, Note_on_c, 8, 52, 0
12, 295020, Note_on_c, 8, 52, 84
12, 295079, Note_on_c, 8, 52, 0
12, 295080, Note_on_c, 8, 52, 84
12, 295139, Note_on_c, 8, 52, 0
12, 295140, Note_on_c, 8, 52, 84
12, 295199, Note_on_c, 8, 52, 0
12, 295200, Note_on_c, 8, 45, 84
12, 295319, Note_on_c, 8, 45, 0
12, 295920, Note_on_c, 8, 52, 92
12, 295979, Note_on_c, 8, 52, 0
12, 295980, Note_on_c, 8, 52, 84
12, 296039, Note_on_c, 8, 52, 0
12, 296040, Note_on_c, 8, 52, 84
12, 296099, Note_on_c, 8, 52, 0
12, 296100, Note_on_c, 8, 52, 84
12, 296159, Note_on_c, 8, 52, 0
12, 296160, Note_on_c, 8, 45, 84
12, 296399, Note_on_c, 8, 45, 0
12, 296400, Note_on_c, 8, 52, 84
12, 296459, Note_on_c, 8, 52, 0
12, 296460, Note_on_c, 8, 52, 84
12, 296519, Note_on_c, 8, 52, 0
12, 296520, Note_on_c, 8, 52, 84
12, 296579, Note_on_c, 8, 52, 0
12, 296580, Note_on_c, 8, 52, 84
12, 296639, Note_on_c, 8, 52, 0
12, 296640, Note_on_c, 8, 45, 84
12, 296879, Note_on_c, 8, 45, 0
12, 296880, Note_on_c, 8, 52, 84
12, 296939, Note_on_c, 8, 52, 0
12, 296940, Note_on_c, 8, 52, 84
12, 296999, Note_on_c, 8, 52, 0
12, 297000, Note_on_c, 8, 52, 84
12, 297059, Note_on_c, 8, 52, 0
12, 297060, Note_on_c, 8, 52, 84
12, 297119, Note_on_c, 8, 52, 0
12, 297120, Note_on_c, 8, 52, 84
12, 297179, Note_on_c, 8, 52, 0
12, 297180, Note_on_c, 8, 52, 84
12, 297239, Note_on_c, 8, 52, 0
12, 297240, Note_on_c, 8, 52, 84
12, 297299, Note_on_c, 8, 52, 0
12, 297300, Note_on_c, 8, 52, 84
12, 297359, Note_on_c, 8, 52, 0
12, 297360, Note_on_c, 8, 52, 92
12, 297419, Note_on_c, 8, 52, 0
12, 297420, Note_on_c, 8, 52, 84
12, 297479, Note_on_c, 8, 52, 0
12, 297480, Note_on_c, 8, 52, 84
12, 297539, Note_on_c, 8, 52, 0
12, 297540, Note_on_c, 8, 52, 84
12, 297599, Note_on_c, 8, 52, 0
12, 297600, Note_on_c, 8, 52, 92
12, 297659, Note_on_c, 8, 52, 0
12, 297660, Note_on_c, 8, 52, 84
12, 297719, Note_on_c, 8, 52, 0
12, 297720, Note_on_c, 8, 52, 84
12, 297779, Note_on_c, 8, 52, 0
12, 297780, Note_on_c, 8, 52, 84
12, 297839, Note_on_c, 8, 52, 0
12, 297840, Note_on_c, 8, 52, 92
12, 297899, Note_on_c, 8, 52, 0
12, 297900, Note_on_c, 8, 52, 84
12, 297959, Note_on_c, 8, 52, 0
12, 297960, Note_on_c, 8, 52, 84
12, 298019, Note_on_c, 8, 52, 0
12, 298020, Note_on_c, 8, 52, 84
12, 298079, Note_on_c, 8, 52, 0
12, 298080, Note_on_c, 8, 52, 84
12, 298139, Note_on_c, 8, 52, 0
12, 298140, Note_on_c, 8, 52, 84
12, 298199, Note_on_c, 8, 52, 0
12, 298200, Note_on_c, 8, 52, 84
12, 298259, Note_on_c, 8, 52, 0
12, 298260, Note_on_c, 8, 52, 84
12, 298319, Note_on_c, 8, 52, 0
12, 298320, Note_on_c, 8, 52, 84
12, 298379, Note_on_c, 8, 52, 0
12, 298380, Note_on_c, 8, 52, 84
12, 298439, Note_on_c, 8, 52, 0
12, 298440, Note_on_c, 8, 52, 84
12, 298499, Note_on_c, 8, 52, 0
12, 298500, Note_on_c, 8, 52, 84
12, 298559, Note_on_c, 8, 52, 0
12, 298560, Note_on_c, 8, 52, 84
12, 298619, Note_on_c, 8, 52, 0
12, 298620, Note_on_c, 8, 52, 84
12, 298679, Note_on_c, 8, 52, 0
12, 298680, Note_on_c, 8, 52, 84
12, 298739, Note_on_c, 8, 52, 0
12, 298740, Note_on_c, 8, 52, 84
12, 298799, Note_on_c, 8, 52, 0
12, 298800, Note_on_c, 8, 52, 84
12, 298859, Note_on_c, 8, 52, 0
12, 298860, Note_on_c, 8, 52, 84
12, 298919, Note_on_c, 8, 52, 0
12, 298920, Note_on_c, 8, 52, 84
12, 298979, Note_on_c, 8, 52, 0
12, 298980, Note_on_c, 8, 52, 84
12, 299039, Note_on_c, 8, 52, 0
12, 299040, Note_on_c, 8, 45, 84
12, 299159, Note_on_c, 8, 45, 0
12, 299400, Note_on_c, 8, 45, 84
12, 299459, Note_on_c, 8, 45, 0
12, 299460, Note_on_c, 8, 45, 84
12, 299519, Note_on_c, 8, 45, 0
12, 299520, Note_on_c, 8, 45, 84
12, 299639, Note_on_c, 8, 45, 0
12, 299880, Note_on_c, 8, 45, 84
12, 299939, Note_on_c, 8, 45, 0
12, 299940, Note_on_c, 8, 45, 84
12, 299999, Note_on_c, 8, 45, 0
12, 300000, Note_on_c, 8, 45, 84
12, 300119, Note_on_c, 8, 45, 0
12, 300119, End_track
13, 0, Start_track
13, 0, Title_t, "Violin I"
13, 0, MIDI_port, 0
13, 0, Program_c, 10, 48
13, 0, Control_c, 10, 7, 96
13, 0, Control_c, 10, 10, 48
13, 0, Control_c, 10, 11, 127
13, 0, Note_on_c, 10, 88, 84
13, 0, Note_on_c, 10, 76, 84
13, 89, Note_on_c, 10, 88, 0
13, 89, Note_on_c, 10, 76, 0
13, 960, Note_on_c, 10, 76, 84
13, 960, Note_on_c, 10, 86, 84
13, 1049, Note_on_c, 10, 76, 0
13, 1049, Note_on_c, 10, 86, 0
13, 1920, Note_on_c, 10, 71, 84
13, 2009, Note_on_c, 10, 71, 0
13, 2040, Note_on_c, 10, 71, 84
13, 2099, Note_on_c, 10, 71, 0
13, 2100, Note_on_c, 10, 73, 84
13, 2159, Note_on_c, 10, 73, 0
13, 2160, Note_on_c, 10, 76, 92
13, 2219, Note_on_c, 10, 76, 0
13, 2220, Note_on_c, 10, 74, 84
13, 2279, Note_on_c, 10, 74, 0
13, 2280, Note_on_c, 10, 73, 84
13, 2339, Note_on_c, 10, 73, 0
13, 2340, Note_on_c, 10, 71, 84
13, 2391, Note_on_c, 10, 71, 0
13, 2400, Note_on_c, 10, 73, 84
13, 2489, Note_on_c, 10, 73, 0
13, 2520, Note_on_c, 10, 73, 84
13, 2579, Note_on_c, 10, 73, 0
13, 2580, Note_on_c, 10, 74, 84
13, 2639, Note_on_c, 10, 74, 0
13, 2640, Note_on_c, 10, 78, 92
13, 2699, Note_on_c, 10, 78, 0
13, 2700, Note_on_c, 10, 76, 84
13, 2759, Note_on_c, 10, 76, 0
13, 2760, Note_on_c, 10, 74, 84
13, 2819, Note_on_c, 10, 74, 0
13, 2820, Note_on_c, 10, 73, 84
13, 2871, Note_on_c, 10, 73, 0
13, 2880, Note_on_c, 10, 71, 84
13, 2969, Note_on_c, 10, 71, 0
13, 3000, Note_on_c, 10, 71, 84
13, 3059, Note_on_c, 10, 71, 0
13, 3060, Note_on_c, 10, 73, 84
13, 3119, Note_on_c, 10, 73, 0
13, 3120, Note_on_c, 10, 76, 92
13, 3179, Note_on_c, 10, 76, 0
13, 3180, Note_on_c, 10, 74, 84
13, 3239, Note_on_c, 10, 74, 0
13, 3240, Note_on_c, 10, 73, 84
13, 3299, Note_on_c, 10, 73, 0
13, 3300, Note_on_c, 10, 71, 84
13, 3351, Note_on_c, 10, 71, 0
13, 3360, Note_on_c, 10, 73, 84
13, 3539, Note_on_c, 10, 73, 0
13, 3540, Note_on_c, 10, 81, 84
13, 3591, Note_on_c, 10, 81, 0
13, 3600, Note_on_c, 10, 81, 92
13, 3659, Note_on_c, 10, 81, 0
13, 3660, Note_on_c, 10, 81, 84
13, 3944, Note_on_c, 10, 81, 0
13, 3960, Note_on_c, 10, 71, 84
13, 4019, Note_on_c, 10, 71, 0
13, 4020, Note_on_c, 10, 73, 84
13, 4079, Note_on_c, 10, 73, 0
13, 4080, Note_on_c, 10, 76, 92
13, 4139, Note_on_c, 10, 76, 0
13, 4140, Note_on_c, 10, 74, 84
13, 4199, Note_on_c, 10, 74, 0
13, 4200, Note_on_c, 10, 73, 84
13, 4259, Note_on_c, 10, 73, 0
13, 4260, Note_on_c, 10, 71, 84
13, 4311, Note_on_c, 10, 71, 0
13, 4320, Note_on_c, 10, 73, 84
13, 4409, Note_on_c, 10, 73, 0
13, 4440, Note_on_c, 10, 73, 84
13, 4499, Note_on_c, 10, 73, 0
13, 4500, Note_on_c, 10, 74, 84
13, 4559, Note_on_c, 10, 74, 0
13, 4560, Note_on_c, 10, 78, 92
13, 4619, Note_on_c, 10, 78, 0
13, 4620, Note_on_c, 10, 76, 84
13, 4679, Note_on_c, 10, 76, 0
13, 4680, Note_on_c, 10, 74, 84
13, 4739, Note_on_c, 10, 74, 0
13, 4740, Note_on_c, 10, 73, 84
13, 4791, Note_on_c, 10, 73, 0
13, 4800, Note_on_c, 10, 71, 84
13, 4889, Note_on_c, 10, 71, 0
13, 4920, Note_on_c, 10, 71, 84
13, 4979, Note_on_c, 10, 71, 0
13, 4980, Note_on_c, 10, 73, 84
13, 5039, Note_on_c, 10, 73, 0
13, 5040, Note_on_c, 10, 76, 92
13, 5099, Note_on_c, 10, 76, 0
13, 5100, Note_on_c, 10, 74, 84
13, 5159, Note_on_c, 10, 74, 0
13, 5160, Note_on_c, 10, 73, 84
13, 5219, Note_on_c, 10, 73, 0
13, 5220, Note_on_c, 10, 71, 84
13, 5271, Note_on_c, 10, 71, 0
13, 5280, Note_on_c, 10, 81, 84
13, 5280, Note_on_c, 10, 64, 84
13, 5280, Note_on_c, 10, 73, 84
13, 5399, Note_on_c, 10, 81, 0
13, 5399, Note_on_c, 10, 64, 0
13, 5399, Note_on_c, 10, 73, 0
13, 5760, Note_on_c, 10, 71, 84
13, 5849, Note_on_c, 10, 71, 0
13, 5880, Note_on_c, 10, 71, 84
13, 5939, Note_on_c, 10, 71, 0
13, 5940, Note_on_c, 10, 73, 84
13, 5999, Note_on_c, 10, 73, 0
13, 6000, Note_on_c, 10, 76, 92
13, 6059, Note_on_c, 10, 76, 0
13, 6060, Note_on_c, 10, 74, 84
13, 6119, Note_on_c, 10, 74, 0
13, 6120, Note_on_c, 10, 73, 84
13, 6179, Note_on_c, 10, 73, 0
13, 6180, Note_on_c, 10, 71, 84
13, 6231, Note_on_c, 10, 71, 0
13, 6240, Note_on_c, 10, 73, 84
13, 6329, Note_on_c, 10, 73, 0
13, 6360, Note_on_c, 10, 73, 84
13, 6419, Note_on_c, 10, 73, 0
13, 6420, Note_on_c, 10, 74, 84
13, 6479, Note_on_c, 10, 74, 0
13, 6480, Note_on_c, 10, 78, 92
13, 6539, Note_on_c, 10, 78, 0
13, 6540, Note_on_c, 10, 76, 84
13, 6599, Note_on_c, 10, 76, 0
13, 6600, Note_on_c, 10, 74, 84
13, 6659, Note_on_c, 10, 74, 0
13, 6660, Note_on_c, 10, 73, 84
13, 6711, Note_on_c, 10, 73, 0
13, 6720, Note_on_c, 10, 71, 84
13, 6809, Note_on_c, 10, 71, 0
13, 6840, Note_on_c, 10, 71, 84
13, 6899, Note_on_c, 10, 71, 0
13, 6900, Note_on_c, 10, 73, 84
13, 6959, Note_on_c, 10, 73, 0
13, 6960, Note_on_c, 10, 76, 92
13, 7019, Note_on_c, 10, 76, 0
13, 7020, Note_on_c, 10, 74, 84
13, 7079, Note_on_c, 10, 74, 0
13, 7080, Note_on_c, 10, 73, 84
13, 7139, Note_on_c, 10, 73, 0
13, 7140, Note_on_c, 10, 71, 84
13, 7191, Note_on_c, 10, 71, 0
13, 7200, Note_on_c, 10, 73, 84
13, 7379, Note_on_c, 10, 73, 0
13, 7380, Note_on_c, 10, 81, 84
13, 7431, Note_on_c, 10, 81, 0
13, 7440, Note_on_c, 10, 81, 92
13, 7499, Note_on_c, 10, 81, 0
13, 7500, Note_on_c, 10, 81, 84
13, 7784, Note_on_c, 10, 81, 0
13, 7800, Note_on_c, 10, 71, 84
13, 7859, Note_on_c, 10, 71, 0
13, 7860, Note_on_c, 10, 73, 84
13, 7919, Note_on_c, 10, 73, 0
13, 7920, Note_on_c, 10, 76, 92
13, 7979, Note_on_c, 10, 76, 0
13, 7980, Note_on_c, 10, 74, 84
13, 8039, Note_on_c, 10, 74, 0
13, 8040, Note_on_c, 10, 73, 84
13, 8099, Note_on_c, 10, 73, 0
13, 8100, Note_on_c, 10, 71, 84
13, 8151, Note_on_c, 10, 71, 0
13, 8160, Note_on_c, 10, 73, 84
13, 8249, Note_on_c, 10, 73, 0
13, 8280, Note_on_c, 10, 73, 84
13, 8339, Note_on_c, 10, 73, 0
13, 8340, Note_on_c, 10, 74, 84
13, 8399, Note_on_c, 10, 74, 0
13, 8400, Note_on_c, 10, 78, 92
13, 8459, Note_on_c, 10, 78, 0
13, 8460, Note_on_c, 10, 76, 84
13, 8519, Note_on_c, 10, 76, 0
13, 8520, Note_on_c, 10, 74, 84
13, 8579, Note_on_c, 10, 74, 0
13, 8580, Note_on_c, 10, 73, 84
13, 8631, Note_on_c, 10, 73, 0
13, 8640, Note_on_c, 10, 71, 84
13, 8729, Note_on_c, 10, 71, 0
13, 8760, Note_on_c, 10, 71, 84
13, 8819, Note_on_c, 10, 71, 0
13, 8820, Note_on_c, 10, 73, 84
13, 8879, Note_on_c, 10, 73, 0
13, 8880, Note_on_c, 10, 76, 92
13, 8939, Note_on_c, 10, 76, 0
13, 8940, Note_on_c, 10, 74, 84
13, 8999, Note_on_c, 10, 74, 0
13, 9000, Note_on_c, 10, 73, 84
13, 9059, Note_on_c, 10, 73, 0
13, 9060, Note_on_c, 10, 71, 84
13, 9111, Note_on_c, 10, 71, 0
13, 9120, Note_on_c, 10, 64, 84
13, 9120, Note_on_c, 10, 73, 84
13, 9120, Note_on_c, 10, 81, 84
13, 9239, Note_on_c, 10, 64, 0
13, 9239, Note_on_c, 10, 73, 0
13, 9239, Note_on_c, 10, 81, 0
13, 9600, Note_on_c, 10, 78, 84
13, 9689, Note_on_c, 10, 78, 0
13, 9720, Note_on_c, 10, 78, 84
13, 9779, Note_on_c, 10, 78, 0
13, 9780, Note_on_c, 10, 79, 84
13, 9839, Note_on_c, 10, 79, 0
13, 9840, Note_on_c, 10, 83, 92
13, 9899, Note_on_c, 10, 83, 0
13, 9900, Note_on_c, 10, 81, 84
13, 9959, Note_on_c, 10, 81, 0
13, 9960, Note_on_c, 10, 80, 84
13, 10019, Note_on_c, 10, 80, 0
13, 10020, Note_on_c, 10, 78, 84
13, 10071, Note_on_c, 10, 78, 0
13, 10080, Note_on_c, 10, 76, 84
13, 10169, Note_on_c, 10, 76, 0
13, 10200, Note_on_c, 10, 76, 84
13, 10259, Note_on_c, 10, 76, 0
13, 10260, Note_on_c, 10, 78, 84
13, 10319, Note_on_c, 10, 78, 0
13, 10320, Note_on_c, 10, 81, 92
13, 10379, Note_on_c, 10, 81, 0
13, 10380, Note_on_c, 10, 80, 84
13, 10439, Note_on_c, 10, 80, 0
13, 10440, Note_on_c, 10, 78, 84
13, 10499, Note_on_c, 10, 78, 0
13, 10500, Note_on_c, 10, 76, 84
13, 10551, Note_on_c, 10, 76, 0
13, 10560, Note_on_c, 10, 78, 84
13, 10649, Note_on_c, 10, 78, 0
13, 10680, Note_on_c, 10, 78, 84
13, 10739, Note_on_c, 10, 78, 0
13, 10740, Note_on_c, 10, 79, 84
13, 10799, Note_on_c, 10, 79, 0
13, 10800, Note_on_c, 10, 83, 92
13, 10859, Note_on_c, 10, 83, 0
13, 10860, Note_on_c, 10, 81, 84
13, 10919, Note_on_c, 10, 81, 0
13, 10920, Note_on_c, 10, 80, 84
13, 10979, Note_on_c, 10, 80, 0
13, 10980, Note_on_c, 10, 78, 84
13, 11031, Note_on_c, 10, 78, 0
13, 11040, Note_on_c, 10, 78, 84
13, 11159, Note_on_c, 10, 78, 0
13, 11160, Note_on_c, 10, 77, 84
13, 11264, Note_on_c, 10, 77, 0
13, 11280, Note_on_c, 10, 76, 92
13, 11339, Note_on_c, 10, 76, 0
13, 11340, Note_on_c, 10, 76, 84
13, 11519, Note_on_c, 10, 76, 0
13, 11520, Note_on_c, 10, 75, 84
13, 11609, Note_on_c, 10, 75, 0
13, 11640, Note_on_c, 10, 74, 84
13, 11699, Note_on_c, 10, 74, 0
13, 11700, Note_on_c, 10, 76, 84
13, 11759, Note_on_c, 10, 76, 0
13, 11760, Note_on_c, 10, 80, 92
13, 11819, Note_on_c, 10, 80, 0
13, 11820, Note_on_c, 10, 78, 84
13, 11879, Note_on_c, 10, 78, 0
13, 11880, Note_on_c, 10, 76, 84
13, 11939, Note_on_c, 10, 76, 0
13, 11940, Note_on_c, 10, 74, 84
13, 11991, Note_on_c, 10, 74, 0
13, 12000, Note_on_c, 10, 73, 84
13, 12089, Note_on_c, 10, 73, 0
13, 12120, Note_on_c, 10, 73, 84
13, 12179, Note_on_c, 10, 73, 0
13, 12180, Note_on_c, 10, 74, 84
13, 12239, Note_on_c, 10, 74, 0
13, 12240, Note_on_c, 10, 78, 92
13, 12299, Note_on_c, 10, 78, 0
13, 12300, Note_on_c, 10, 76, 84
13, 12359, Note_on_c, 10, 76, 0
13, 12360, Note_on_c, 10, 74, 84
13, 12419, Note_on_c, 10, 74, 0
13, 12420, Note_on_c, 10, 73, 84
13, 12471, Note_on_c, 10, 73, 0
13, 12480, Note_on_c, 10, 71, 84
13, 12569, Note_on_c, 10, 71, 0
13, 12600, Note_on_c, 10, 71, 84
13, 12659, Note_on_c, 10, 71, 0
13, 12660, Note_on_c, 10, 73, 84
13, 12719, Note_on_c, 10, 73, 0
13, 12720, Note_on_c, 10, 76, 92
13, 12779, Note_on_c, 10, 76, 0
13, 12780, Note_on_c, 10, 74, 84
13, 12839, Note_on_c, 10, 74, 0
13, 12840, Note_on_c, 10, 73, 84
13, 12899, Note_on_c, 10, 73, 0
13, 12900, Note_on_c, 10, 71, 84
13, 12951, Note_on_c, 10, 71, 0
13, 12960, Note_on_c, 10, 64, 84
13, 12960, Note_on_c, 10, 73, 84
13, 12960, Note_on_c, 10, 81, 84
13, 13079, Note_on_c, 10, 64, 0
13, 13079, Note_on_c, 10, 73, 0
13, 13079, Note_on_c, 10, 81, 0
13, 13440, Note_on_c, 10, 78, 84
13, 13529, Note_on_c, 10, 78, 0
13, 13560, Note_on_c, 10, 78, 84
13, 13619, Note_on_c, 10, 78, 0
13, 13620, Note_on_c, 10, 79, 84
13, 13679, Note_on_c, 10, 79, 0
13, 13680, Note_on_c, 10, 83, 92
13, 13739, Note_on_c, 10, 83, 0
13, 13740, Note_on_c, 10, 81, 84
13, 13799, Note_on_c, 10, 81, 0
13, 13800, Note_on_c, 10, 80, 84
13, 13859, Note_on_c, 10, 80, 0
13, 13860, Note_on_c, 10, 78, 84
13, 13911, Note_on_c, 10, 78, 0
13, 13920, Note_on_c, 10, 76, 84
13, 14009, Note_on_c, 10, 76, 0
13, 14040, Note_on_c, 10, 76, 84
13, 14099, Note_on_c, 10, 76, 0
13, 14100, Note_on_c, 10, 78, 84
13, 14159, Note_on_c, 10, 78, 0
13, 14160, Note_on_c, 10, 81, 92
13, 14219, Note_on_c, 10, 81, 0
13, 14220, Note_on_c, 10, 80, 84
13, 14279, Note_on_c, 10, 80, 0
13, 14280, Note_on_c, 10, 78, 84
13, 14339, Note_on_c, 10, 78, 0
13, 14340, Note_on_c, 10, 76, 84
13, 14391, Note_on_c, 10, 76, 0
13, 14400, Note_on_c, 10, 78, 84
13, 14489, Note_on_c, 10, 78, 0
13, 14520, Note_on_c, 10, 78, 84
13, 14579, Note_on_c, 10, 78, 0
13, 14580, Note_on_c, 10, 79, 84
13, 14639, Note_on_c, 10, 79, 0
13, 14640, Note_on_c, 10, 83, 92
13, 14699, Note_on_c, 10, 83, 0
13, 14700, Note_on_c, 10, 81, 84
13, 14759, Note_on_c, 10, 81, 0
13, 14760, Note_on_c, 10, 80, 84
13, 14819, Note_on_c, 10, 80, 0
13, 14820, Note_on_c, 10, 78, 84
13, 14871, Note_on_c, 10, 78, 0
13, 14880, Note_on_c, 10, 78, 84
13, 14999, Note_on_c, 10, 78, 0
13, 15000, Note_on_c, 10, 77, 84
13, 15104, Note_on_c, 10, 77, 0
13, 15120, Note_on_c, 10, 76, 92
13, 15179, Note_on_c, 10, 76, 0
13, 15180, Note_on_c, 10, 76, 84
13, 15359, Note_on_c, 10, 76, 0
13, 15360, Note_on_c, 10, 75, 84
13, 15449, Note_on_c, 10, 75, 0
13, 15480, Note_on_c, 10, 74, 84
13, 15539, Note_on_c, 10, 74, 0
13, 15540, Note_on_c, 10, 76, 84
13, 15599, Note_on_c, 10, 76, 0
13, 15600, Note_on_c, 10, 80, 92
13, 15659, Note_on_c, 10, 80, 0
13, 15660, Note_on_c, 10, 78, 84
13, 15719, Note_on_c, 10, 78, 0
13, 15720, Note_on_c, 10, 76, 84
13, 15779, Note_on_c, 10, 76, 0
13, 15780, Note_on_c, 10, 74, 84
13, 15831, Note_on_c, 10, 74, 0
13, 15840, Note_on_c, 10, 73, 84
13, 15929, Note_on_c, 10, 73, 0
13, 15960, Note_on_c, 10, 73, 84
13, 16019, Note_on_c, 10, 73, 0
13, 16020, Note_on_c, 10, 74, 84
13, 16079, Note_on_c, 10, 74, 0
13, 16080, Note_on_c, 10, 78, 92
13, 16139, Note_on_c, 10, 78, 0
13, 16140, Note_on_c, 10, 76, 84
13, 16199, Note_on_c, 10, 76, 0
13, 16200, Note_on_c, 10, 74, 84
13, 16259, Note_on_c, 10, 74, 0
13, 16260, Note_on_c, 10, 73, 84
13, 16311, Note_on_c, 10, 73, 0
13, 16320, Note_on_c, 10, 71, 84
13, 16409, Note_on_c, 10, 71, 0
13, 16440, Note_on_c, 10, 71, 84
13, 16499, Note_on_c, 10, 71, 0
13, 16500, Note_on_c, 10, 73, 84
13, 16559, Note_on_c, 10, 73, 0
13, 16560, Note_on_c, 10, 76, 92
13, 16619, Note_on_c, 10, 76, 0
13, 16620, Note_on_c, 10, 74, 84
13, 16679, Note_on_c, 10, 74, 0
13, 16680, Note_on_c, 10, 73, 84
13, 16739, Note_on_c, 10, 73, 0
13, 16740, Note_on_c, 10, 71, 84
13, 16791, Note_on_c, 10, 71, 0
13, 16800, Note_on_c, 10, 73, 84
13, 16800, Note_on_c, 10, 64, 84
13, 16800, Note_on_c, 10, 81, 84
13, 16919, Note_on_c, 10, 73, 0
13, 16919, Note_on_c, 10, 64, 0
13, 16919, Note_on_c, 10, 81, 0
13, 17280, Note_on_c, 10, 73, 84
13, 17280, Note_on_c, 10, 64, 84
13, 17280, Note_on_c, 10, 81, 84
13, 17399, Note_on_c, 10, 73, 0
13, 17399, Note_on_c, 10, 64, 0
13, 17399, Note_on_c, 10, 81, 0
13, 17760, Note_on_c, 10, 88, 84
13, 17760, Note_on_c, 10, 76, 84
13, 17879, Note_on_c, 10, 88, 0
13, 17879, Note_on_c, 10, 76, 0
13, 18240, Note_on_c, 10, 76, 84
13, 18240, Note_on_c, 10, 88, 84
13, 18359, Note_on_c, 10, 76, 0
13, 18359, Note_on_c, 10, 88, 0
13, 18720, Note_on_c, 10, 85, 84
13, 18720, Note_on_c, 10, 76, 84
13, 18720, Note_on_c, 10, 69, 84
13, 18839, Note_on_c, 10, 85, 0
13, 18839, Note_on_c, 10, 76, 0
13, 18839, Note_on_c, 10, 69, 0
13, 18960, Note_on_c, 10, 69, 84
13, 18960, Note_on_c, 10, 76, 84
13, 18960, Note_on_c, 10, 85, 84
13, 19079, Note_on_c, 10, 69, 0
13, 19079, Note_on_c, 10, 76, 0
13, 19079, Note_on_c, 10, 85, 0
13, 19200, Note_on_c, 10, 76, 84
13, 19200, Note_on_c, 10, 85, 84
13, 19200, Note_on_c, 10, 69, 84
13, 19319, Note_on_c, 10, 76, 0
13, 19319, Note_on_c, 10, 85, 0
13, 19319, Note_on_c, 10, 69, 0
13, 19440, Note_on_c, 10, 69, 84
13, 19440, Note_on_c, 10, 76, 84
13, 19440, Note_on_c, 10, 85, 84
13, 19559, Note_on_c, 10, 69, 0
13, 19559, Note_on_c, 10, 76, 0
13, 19559, Note_on_c, 10, 85, 0
13, 19680, Note_on_c, 10, 68, 84
13, 19680, Note_on_c, 10, 76, 84
13, 19680, Note_on_c, 10, 83, 84
13, 19799, Note_on_c, 10, 68, 0
13, 19799, Note_on_c, 10, 76, 0
13, 19799, Note_on_c, 10, 83, 0
13, 19920, Note_on_c, 10, 76, 84
13, 19920, Note_on_c, 10, 83, 84
13, 19920, Note_on_c, 10, 68, 84
13, 20039, Note_on_c, 10, 76, 0
13, 20039, Note_on_c, 10, 83, 0
13, 20039, Note_on_c, 10, 68, 0
13, 20160, Note_on_c, 10, 68, 84
13, 20160, Note_on_c, 10, 76, 84
13, 20160, Note_on_c, 10, 83, 84
13, 20279, Note_on_c, 10, 68, 0
13, 20279, Note_on_c, 10, 76, 0
13, 20279, Note_on_c, 10, 83, 0
13, 20400, Note_on_c, 10, 83, 84
13, 20400, Note_on_c, 10, 76, 84
13, 20400, Note_on_c, 10, 68, 84
13, 20519, Note_on_c, 10, 83, 0
13, 20519, Note_on_c, 10, 76, 0
13, 20519, Note_on_c, 10, 68, 0
13, 20640, Note_on_c, 10, 81, 84
13, 20640, Note_on_c, 10, 57, 84
13, 20640, Note_on_c, 10, 73, 84
13, 20640, Note_on_c, 10, 64, 84
13, 20759, Note_on_c, 10, 81, 0
13, 20759, Note_on_c, 10, 57, 0
13, 20759, Note_on_c, 10, 73, 0
13, 20759, Note_on_c, 10, 64, 0
13, 21120, Note_on_c, 10, 64, 84
13, 21120, Note_on_c, 10, 73, 84
13, 21120, Note_on_c, 10, 57, 84
13, 21120, Note_on_c, 10, 81, 84
13, 21239, Note_on_c, 10, 64, 0
13, 21239, Note_on_c, 10, 73, 0
13, 21239, Note_on_c, 10, 57, 0
13, 21239, Note_on_c, 10, 81, 0
13, 21600, Note_on_c, 10, 88, 84
13, 21600, Note_on_c, 10, 76, 84
13, 21719, Note_on_c, 10, 88, 0
13, 21719, Note_on_c, 10, 76, 0
13, 22080, Note_on_c, 10, 76, 84
13, 22080, Note_on_c, 10, 88, 84
13, 22199, Note_on_c, 10, 76, 0
13, 22199, Note_on_c, 10, 88, 0
13, 22560, Note_on_c, 10, 85, 84
13, 22611, Note_on_c, 10, 85, 0
13, 22620, Note_on_c, 10, 85, 84
13, 22671, Note_on_c, 10, 85, 0
13, 22680, Note_on_c, 10, 85, 84
13, 22731, Note_on_c, 10, 85, 0
13, 22740, Note_on_c, 10, 85, 84
13, 22791, Note_on_c, 10, 85, 0
13, 22800, Note_on_c, 10, 85, 84
13, 22851, Note_on_c, 10, 85, 0
13, 22860, Note_on_c, 10, 85, 84
13, 22911, Note_on_c, 10, 85, 0
13, 22920, Note_on_c, 10, 83, 84
13, 22971, Note_on_c, 10, 83, 0
13, 22980, Note_on_c, 10, 83, 84
13, 23031, Note_on_c, 10, 83, 0
13, 23040, Note_on_c, 10, 81, 84
13, 23091, Note_on_c, 10, 81, 0
13, 23100, Note_on_c, 10, 81, 84
13, 23151, Note_on_c, 10, 81, 0
13, 23160, Note_on_c, 10, 85, 84
13, 23211, Note_on_c, 10, 85, 0
13, 23220, Note_on_c, 10, 85, 84
13, 23271, Note_on_c, 10, 85, 0
13, 23280, Note_on_c, 10, 83, 84
13, 23331, Note_on_c, 10, 83, 0
13, 23340, Note_on_c, 10, 83, 84
13, 23391, Note_on_c, 10, 83, 0
13, 23400, Note_on_c, 10, 81, 84
13, 23451, Note_on_c, 10, 81, 0
13, 23460, Note_on_c, 10, 81, 84
13, 23511, Note_on_c, 10, 81, 0
13, 23520, Note_on_c, 10, 83, 84
13, 23571, Note_on_c, 10, 83, 0
13, 23580, Note_on_c, 10, 83, 84
13, 23631, Note_on_c, 10, 83, 0
13, 23640, Note_on_c, 10, 81, 84
13, 23691, Note_on_c, 10, 81, 0
13, 23700, Note_on_c, 10, 81, 84
13, 23751, Note_on_c, 10, 81, 0
13, 23760, Note_on_c, 10, 80, 84
13, 23811, Note_on_c, 10, 80, 0
13, 23820, Note_on_c, 10, 80, 84
13, 23871, Note_on_c, 10, 80, 0
13, 23880, Note_on_c, 10, 78, 84
13, 23931, Note_on_c, 10, 78, 0
13, 23940, Note_on_c, 10, 78, 84
13, 23991, Note_on_c, 10, 78, 0
13, 24000, Note_on_c, 10, 76, 84
13, 24051, Note_on_c, 10, 76, 0
13, 24060, Note_on_c, 10, 76, 84
13, 24111, Note_on_c, 10, 76, 0
13, 24120, Note_on_c, 10, 74, 84
13, 24171, Note_on_c, 10, 74, 0
13, 24180, Note_on_c, 10, 74, 84
13, 24231, Note_on_c, 10, 74, 0
13, 24240, Note_on_c, 10, 73, 84
13, 24291, Note_on_c, 10, 73, 0
13, 24300, Note_on_c, 10, 73, 84
13, 24351, Note_on_c, 10, 73, 0
13, 24360, Note_on_c, 10, 71, 84
13, 24411, Note_on_c, 10, 71, 0
13, 24420, Note_on_c, 10, 71, 84
13, 24471, Note_on_c, 10, 71, 0
13, 24480, Note_on_c, 10, 69, 84
13, 24569, Note_on_c, 10, 69, 0
13, 24600, Note_on_c, 10, 69, 84
13, 24659, Note_on_c, 10, 69, 0
13, 24660, Note_on_c, 10, 71, 84
13, 24719, Note_on_c, 10, 71, 0
13, 24720, Note_on_c, 10, 74, 84
13, 24779, Note_on_c, 10, 74, 0
13, 24780, Note_on_c, 10, 73, 84
13, 24839, Note_on_c, 10, 73, 0
13, 24840, Note_on_c, 10, 71, 84
13, 24899, Note_on_c, 10, 71, 0
13, 24900, Note_on_c, 10, 69, 84
13, 24951, Note_on_c, 10, 69, 0
13, 24960, Note_on_c, 10, 76, 84
13, 25199, Note_on_c, 10, 76, 0
13, 25200, Note_on_c, 10, 74, 84
13, 25439, Note_on_c, 10, 74, 0
13, 25440, Note_on_c, 10, 73, 84
13, 25679, Note_on_c, 10, 73, 0
13, 25680, Note_on_c, 10, 71, 84
13, 25919, Note_on_c, 10, 71, 0
13, 25920, Note_on_c, 10, 69, 84
13, 26159, Note_on_c, 10, 69, 0
13, 26160, Note_on_c, 10, 71, 84
13, 26384, Note_on_c, 10, 71, 0
13, 26400, Note_on_c, 10, 73, 84
13, 26489, Note_on_c, 10, 73, 0
13, 26520, Note_on_c, 10, 69, 84
13, 26579, Note_on_c, 10, 69, 0
13, 26580, Note_on_c, 10, 71, 84
13, 26639, Note_on_c, 10, 71, 0
13, 26640, Note_on_c, 10, 74, 84
13, 26699, Note_on_c, 10, 74, 0
13, 26700, Note_on_c, 10, 73, 84
13, 26759, Note_on_c, 10, 73, 0
13, 26760, Note_on_c, 10, 71, 84
13, 26819, Note_on_c, 10, 71, 0
13, 26820, Note_on_c, 10, 69, 84
13, 26871, Note_on_c, 10, 69, 0
13, 26880, Note_on_c, 10, 76, 84
13, 27119, Note_on_c, 10, 76, 0
13, 27120, Note_on_c, 10, 74, 84
13, 27359, Note_on_c, 10, 74, 0
13, 27360, Note_on_c, 10, 73, 84
13, 27599, Note_on_c, 10, 73, 0
13, 27600, Note_on_c, 10, 71, 84
13, 27839, Note_on_c, 10, 71, 0
13, 27840, Note_on_c, 10, 69, 84
13, 28079, Note_on_c, 10, 69, 0
13, 28080, Note_on_c, 10, 68, 84
13, 28304, Note_on_c, 10, 68, 0
13, 28320, Note_on_c, 10, 69, 84
13, 28409, Note_on_c, 10, 69, 0
13, 28440, Note_on_c, 10, 78, 84
13, 28499, Note_on_c, 10, 78, 0
13, 28500, Note_on_c, 10, 80, 84
13, 28559, Note_on_c, 10, 80, 0
13, 28560, Note_on_c, 10, 83, 84
13, 28619, Note_on_c, 10, 83, 0
13, 28620, Note_on_c, 10, 81, 84
13, 28679, Note_on_c, 10, 81, 0
13, 28680, Note_on_c, 10, 80, 84
13, 28739, Note_on_c, 10, 80, 0
13, 28740, Note_on_c, 10, 78, 84
13, 28791, Note_on_c, 10, 78, 0
13, 28800, Note_on_c, 10, 85, 84
13, 29039, Note_on_c, 10, 85, 0
13, 29040, Note_on_c, 10, 83, 84
13, 29279, Note_on_c, 10, 83, 0
13, 29280, Note_on_c, 10, 81, 84
13, 29519, Note_on_c, 10, 81, 0
13, 29520, Note_on_c, 10, 80, 84
13, 29759, Note_on_c, 10, 80, 0
13, 29760, Note_on_c, 10, 78, 84
13, 29999, Note_on_c, 10, 78, 0
13, 30000, Note_on_c, 10, 80, 84
13, 30224, Note_on_c, 10, 80, 0
13, 30240, Note_on_c, 10, 81, 84
13, 30329, Note_on_c, 10, 81, 0
13, 30360, Note_on_c, 10, 78, 84
13, 30419, Note_on_c, 10, 78, 0
13, 30420, Note_on_c, 10, 80, 84
13, 30479, Note_on_c, 10, 80, 0
13, 30480, Note_on_c, 10, 83, 84
13, 30539, Note_on_c, 10, 83, 0
13, 30540, Note_on_c, 10, 81, 84
13, 30599, Note_on_c, 10, 81, 0
13, 30600, Note_on_c, 10, 80, 84
13, 30659, Note_on_c, 10, 80, 0
13, 30660, Note_on_c, 10, 78, 84
13, 30711, Note_on_c, 10, 78, 0
13, 30720, Note_on_c, 10, 85, 84
13, 30959, Note_on_c, 10, 85, 0
13, 30960, Note_on_c, 10, 83, 84
13, 31199, Note_on_c, 10, 83, 0
13, 31200, Note_on_c, 10, 81, 84
13, 31439, Note_on_c, 10, 81, 0
13, 31440, Note_on_c, 10, 80, 84
13, 31679, Note_on_c, 10, 80, 0
13, 31680, Note_on_c, 10, 78, 84
13, 31919, Note_on_c, 10, 78, 0
13, 31920, Note_on_c, 10, 80, 84
13, 32144, Note_on_c, 10, 80, 0
13, 32160, Note_on_c, 10, 69, 84
13, 32160, Note_on_c, 10, 81, 84
13, 32331, Note_on_c, 10, 69, 0
13, 32331, Note_on_c, 10, 81, 0
13, 32340, Note_on_c, 10, 69, 84
13, 32340, Note_on_c, 10, 81, 84
13, 32391, Note_on_c, 10, 69, 0
13, 32391, Note_on_c, 10, 81, 0
13, 32400, Note_on_c, 10, 81, 84
13, 32400, Note_on_c, 10, 69, 84
13, 32571, Note_on_c, 10, 81, 0
13, 32571, Note_on_c, 10, 69, 0
13, 32580, Note_on_c, 10, 69, 84
13, 32580, Note_on_c, 10, 81, 84
13, 32631, Note_on_c, 10, 69, 0
13, 32631, Note_on_c, 10, 81, 0
13, 32640, Note_on_c, 10, 81, 84
13, 32640, Note_on_c, 10, 69, 84
13, 32811, Note_on_c, 10, 81, 0
13, 32811, Note_on_c, 10, 69, 0
13, 32820, Note_on_c, 10, 69, 84
13, 32820, Note_on_c, 10, 81, 84
13, 32871, Note_on_c, 10, 69, 0
13, 32871, Note_on_c, 10, 81, 0
13, 32880, Note_on_c, 10, 69, 84
13, 32880, Note_on_c, 10, 81, 84
13, 33051, Note_on_c, 10, 69, 0
13, 33051, Note_on_c, 10, 81, 0
13, 33060, Note_on_c, 10, 81, 84
13, 33060, Note_on_c, 10, 69, 84
13, 33111, Note_on_c, 10, 81, 0
13, 33111, Note_on_c, 10, 69, 0
13, 33120, Note_on_c, 10, 83, 84
13, 33120, Note_on_c, 10, 71, 84
13, 33291, Note_on_c, 10, 83, 0
13, 33291, Note_on_c, 10, 71, 0
13, 33300, Note_on_c, 10, 71, 84
13, 33300, Note_on_c, 10, 83, 84
13, 33351, Note_on_c, 10, 71, 0
13, 33351, Note_on_c, 10, 83, 0
13, 33360, Note_on_c, 10, 83, 84
13, 33360, Note_on_c, 10, 71, 84
13, 33531, Note_on_c, 10, 83, 0
13, 33531, Note_on_c, 10, 71, 0
13, 33540, Note_on_c, 10, 83, 84
13, 33540, Note_on_c, 10, 71, 84
13, 33591, Note_on_c, 10, 83, 0
13, 33591, Note_on_c, 10, 71, 0
13, 33600, Note_on_c, 10, 83, 84
13, 33600, Note_on_c, 10, 71, 84
13, 33771, Note_on_c, 10, 83, 0
13, 33771, Note_on_c, 10, 71, 0
13, 33780, Note_on_c, 10, 71, 84
13, 33780, Note_on_c, 10, 83, 84
13, 33831, Note_on_c, 10, 71, 0
13, 33831, Note_on_c, 10, 83, 0
13, 33840, Note_on_c, 10, 83, 84
13, 33840, Note_on_c, 10, 71, 84
13, 34011, Note_on_c, 10, 83, 0
13, 34011, Note_on_c, 10, 71, 0
13, 34020, Note_on_c, 10, 83, 84
13, 34020, Note_on_c, 10, 71, 84
13, 34071, Note_on_c, 10, 83, 0
13, 34071, Note_on_c, 10, 71, 0
13, 34080, Note_on_c, 10, 69, 84
13, 34080, Note_on_c, 10, 81, 84
13, 34251, Note_on_c, 10, 69, 0
13, 34251, Note_on_c, 10, 81, 0
13, 34260, Note_on_c, 10, 69, 84
13, 34260, Note_on_c, 10, 81, 84
13, 34311, Note_on_c, 10, 69, 0
13, 34311, Note_on_c, 10, 81, 0
13, 34320, Note_on_c, 10, 81, 84
13, 34320, Note_on_c, 10, 69, 84
13, 34491, Note_on_c, 10, 81, 0
13, 34491, Note_on_c, 10, 69, 0
13, 34500, Note_on_c, 10, 81, 84
13, 34500, Note_on_c, 10, 69, 84
13, 34551, Note_on_c, 10, 81, 0
13, 34551, Note_on_c, 10, 69, 0
13, 34560, Note_on_c, 10, 82, 84
13, 34731, Note_on_c, 10, 82, 0
13, 34740, Note_on_c, 10, 82, 84
13, 34791, Note_on_c, 10, 82, 0
13, 34800, Note_on_c, 10, 82, 84
13, 34971, Note_on_c, 10, 82, 0
13, 34980, Note_on_c, 10, 82, 84
13, 35031, Note_on_c, 10, 82, 0
13, 35040, Note_on_c, 10, 84, 84
13, 35211, Note_on_c, 10, 84, 0
13, 35220, Note_on_c, 10, 84, 84
13, 35271, Note_on_c, 10, 84, 0
13, 35280, Note_on_c, 10, 84, 84
13, 35451, Note_on_c, 10, 84, 0
13, 35460, Note_on_c, 10, 84, 84
13, 35511, Note_on_c, 10, 84, 0
13, 35520, Note_on_c, 10, 85, 84
13, 35691, Note_on_c, 10, 85, 0
13, 35700, Note_on_c, 10, 85, 84
13, 35751, Note_on_c, 10, 85, 0
13, 35760, Note_on_c, 10, 85, 84
13, 35931, Note_on_c, 10, 85, 0
13, 35940, Note_on_c, 10, 85, 84
13, 35991, Note_on_c, 10, 85, 0
13, 36000, Note_on_c, 10, 87, 84
13, 36171, Note_on_c, 10, 87, 0
13, 36180, Note_on_c, 10, 88, 84
13, 36231, Note_on_c, 10, 88, 0
13, 36240, Note_on_c, 10, 90, 84
13, 36411, Note_on_c, 10, 90, 0
13, 36420, Note_on_c, 10, 90, 84
13, 36471, Note_on_c, 10, 90, 0
13, 36480, Note_on_c, 10, 90, 84
13, 36651, Note_on_c, 10, 90, 0
13, 36660, Note_on_c, 10, 90, 84
13, 36711, Note_on_c, 10, 90, 0
13, 36720, Note_on_c, 10, 90, 84
13, 36891, Note_on_c, 10, 90, 0
13, 36900, Note_on_c, 10, 90, 84
13, 36951, Note_on_c, 10, 90, 0
13, 36960, Note_on_c, 10, 90, 84
13, 37199, Note_on_c, 10, 90, 0
13, 37620, Note_on_c, 10, 78, 52
13, 37679, Note_on_c, 10, 78, 0
13, 37680, Note_on_c, 10, 81, 52
13, 37799, Note_on_c, 10, 81, 0
13, 37860, Note_on_c, 10, 78, 52
13, 37919, Note_on_c, 10, 78, 0
13, 37920, Note_on_c, 10, 75, 52
13, 38039, Note_on_c, 10, 75, 0
13, 38100, Note_on_c, 10, 75, 52
13, 38159, Note_on_c, 10, 75, 0
13, 38160, Note_on_c, 10, 78, 52
13, 38279, Note_on_c, 10, 78, 0
13, 38340, Note_on_c, 10, 75, 52
13, 38399, Note_on_c, 10, 75, 0
13, 38400, Note_on_c, 10, 72, 52
13, 38519, Note_on_c, 10, 72, 0
13, 38580, Note_on_c, 10, 75, 52
13, 38639, Note_on_c, 10, 75, 0
13, 38640, Note_on_c, 10, 76, 52
13, 38759, Note_on_c, 10, 76, 0
13, 38820, Note_on_c, 10, 73, 52
13, 38879, Note_on_c, 10, 73, 0
13, 38880, Note_on_c, 10, 72, 52
13, 38999, Note_on_c, 10, 72, 0
13, 39540, Note_on_c, 10, 78, 52
13, 39599, Note_on_c, 10, 78, 0
13, 39600, Note_on_c, 10, 81, 52
13, 39719, Note_on_c, 10, 81, 0
13, 39780, Note_on_c, 10, 78, 52
13, 39839, Note_on_c, 10, 78, 0
13, 39840, Note_on_c, 10, 75, 52
13, 39959, Note_on_c, 10, 75, 0
13, 40020, Note_on_c, 10, 75, 52
13, 40079, Note_on_c, 10, 75, 0
13, 40080, Note_on_c, 10, 78, 52
13, 40199, Note_on_c, 10, 78, 0
13, 40260, Note_on_c, 10, 75, 52
13, 40319, Note_on_c, 10, 75, 0
13, 40320, Note_on_c, 10, 72, 52
13, 40439, Note_on_c, 10, 72, 0
13, 40500, Note_on_c, 10, 75, 52
13, 40559, Note_on_c, 10, 75, 0
13, 40560, Note_on_c, 10, 76, 52
13, 40679, Note_on_c, 10, 76, 0
13, 40740, Note_on_c, 10, 73, 51
13, 40799, Note_on_c, 10, 73, 0
13, 40800, Note_on_c, 10, 72, 51
13, 40919, Note_on_c, 10, 72, 0
13, 40980, Note_on_c, 10, 75, 50
13, 41039, Note_on_c, 10, 75, 0
13, 41040, Note_on_c, 10, 78, 50
13, 41159, Note_on_c, 10, 78, 0
13, 41220, Note_on_c, 10, 75, 49
13, 41279, Note_on_c, 10, 75, 0
13, 41280, Note_on_c, 10, 72, 49
13, 41399, Note_on_c, 10, 72, 0
13, 41460, Note_on_c, 10, 75, 49
13, 41519, Note_on_c, 10, 75, 0
13, 41520, Note_on_c, 10, 76, 48
13, 41639, Note_on_c, 10, 76, 0
13, 41700, Note_on_c, 10, 73, 48
13, 41759, Note_on_c, 10, 73, 0
13, 41760, Note_on_c, 10, 72, 48
13, 41879, Note_on_c, 10, 72, 0
13, 41940, Note_on_c, 10, 75, 47
13, 41999, Note_on_c, 10, 75, 0
13, 42000, Note_on_c, 10, 78, 47
13, 42119, Note_on_c, 10, 78, 0
13, 42180, Note_on_c, 10, 75, 46
13, 42239, Note_on_c, 10, 75, 0
13, 42240, Note_on_c, 10, 72, 46
13, 42359, Note_on_c, 10, 72, 0
13, 42420, Note_on_c, 10, 75, 45
13, 42479, Note_on_c, 10, 75, 0
13, 42480, Note_on_c, 10, 80, 45
13, 42599, Note_on_c, 10, 80, 0
13, 42660, Note_on_c, 10, 78, 45
13, 42719, Note_on_c, 10, 78, 0
13, 42720, Note_on_c, 10, 76, 52
13, 42891, Note_on_c, 10, 76, 0
13, 42900, Note_on_c, 10, 75, 52
13, 42944, Note_on_c, 10, 75, 0
13, 42960, Note_on_c, 10, 76, 76
13, 43191, Note_on_c, 10, 76, 0
13, 43200, Note_on_c, 10, 75, 52
13, 43371, Note_on_c, 10, 75, 0
13, 43380, Note_on_c, 10, 73, 52
13, 43424, Note_on_c, 10, 73, 0
13, 43440, Note_on_c, 10, 75, 76
13, 43671, Note_on_c, 10, 75, 0
13, 43680, Note_on_c, 10, 73, 52
13, 43851, Note_on_c, 10, 73, 0
13, 43860, Note_on_c, 10, 72, 52
13, 43904, Note_on_c, 10, 72, 0
13, 43920, Note_on_c, 10, 73, 76
13, 44151, Note_on_c, 10, 73, 0
13, 44160, Note_on_c, 10, 75, 52
13, 44331, Note_on_c, 10, 75, 0
13, 44340, Note_on_c, 10, 73, 52
13, 44384, Note_on_c, 10, 73, 0
13, 44400, Note_on_c, 10, 75, 76
13, 44631, Note_on_c, 10, 75, 0
13, 44640, Note_on_c, 10, 76, 52
13, 44759, Note_on_c, 10, 76, 0
13, 47040, Note_on_c, 10, 75, 52
13, 47159, Note_on_c, 10, 75, 0
13, 47220, Note_on_c, 10, 76, 52
13, 47279, Note_on_c, 10, 76, 0
13, 47280, Note_on_c, 10, 78, 52
13, 47399, Note_on_c, 10, 78, 0
13, 47460, Note_on_c, 10, 75, 52
13, 47519, Note_on_c, 10, 75, 0
13, 47520, Note_on_c, 10, 76, 52
13, 47691, Note_on_c, 10, 76, 0
13, 47700, Note_on_c, 10, 75, 52
13, 47744, Note_on_c, 10, 75, 0
13, 47760, Note_on_c, 10, 76, 76
13, 47991, Note_on_c, 10, 76, 0
13, 48000, Note_on_c, 10, 75, 52
13, 48171, Note_on_c, 10, 75, 0
13, 48180, Note_on_c, 10, 73, 52
13, 48224, Note_on_c, 10, 73, 0
13, 48240, Note_on_c, 10, 75, 76
13, 48471, Note_on_c, 10, 75, 0
13, 48480, Note_on_c, 10, 73, 52
13, 48651, Note_on_c, 10, 73, 0
13, 48660, Note_on_c, 10, 72, 52
13, 48704, Note_on_c, 10, 72, 0
13, 48720, Note_on_c, 10, 73, 76
13, 48951, Note_on_c, 10, 73, 0
13, 48960, Note_on_c, 10, 75, 52
13, 49131, Note_on_c, 10, 75, 0
13, 49140, Note_on_c, 10, 73, 52
13, 49184, Note_on_c, 10, 73, 0
13, 49200, Note_on_c, 10, 75, 76
13, 49431, Note_on_c, 10, 75, 0
13, 49440, Note_on_c, 10, 76, 52
13, 49559, Note_on_c, 10, 76, 0
13, 51540, Note_on_c, 10, 79, 53
13, 51599, Note_on_c, 10, 79, 0
13, 51600, Note_on_c, 10, 76, 53
13, 51719, Note_on_c, 10, 76, 0
13, 51780, Note_on_c, 10, 73, 54
13, 51839, Note_on_c, 10, 73, 0
13, 51840, Note_on_c, 10, 69, 54
13, 51959, Note_on_c, 10, 69, 0
13, 53760, Note_on_c, 10, 78, 65
13, 53879, Note_on_c, 10, 78, 0
13, 53940, Note_on_c, 10, 81, 66
13, 53999, Note_on_c, 10, 81, 0
13, 54000, Note_on_c, 10, 86, 66
13, 54119, Note_on_c, 10, 86, 0
13, 54180, Note_on_c, 10, 81, 67
13, 54239, Note_on_c, 10, 81, 0
13, 54240, Note_on_c, 10, 79, 68
13, 54359, Note_on_c, 10, 79, 0
13, 54420, Note_on_c, 10, 79, 69
13, 54479, Note_on_c, 10, 79, 0
13, 54480, Note_on_c, 10, 76, 69
13, 54599, Note_on_c, 10, 76, 0
13, 54660, Note_on_c, 10, 73, 70
13, 54719, Note_on_c, 10, 73, 0
13, 54720, Note_on_c, 10, 69, 70
13, 54839, Note_on_c, 10, 69, 0
13, 56640, Note_on_c, 10, 78, 81
13, 56759, Note_on_c, 10, 78, 0
13, 56820, Note_on_c, 10, 81, 82
13, 56879, Note_on_c, 10, 81, 0
13, 56880, Note_on_c, 10, 86, 82
13, 56999, Note_on_c, 10, 86, 0
13, 57060, Note_on_c, 10, 90, 83
13, 57111, Note_on_c, 10, 90, 0
13, 57120, Note_on_c, 10, 90, 84
13, 57171, Note_on_c, 10, 90, 0
13, 57180, Note_on_c, 10, 90, 84
13, 57231, Note_on_c, 10, 90, 0
13, 57240, Note_on_c, 10, 90, 84
13, 57291, Note_on_c, 10, 90, 0
13, 57300, Note_on_c, 10, 90, 84
13, 57351, Note_on_c, 10, 90, 0
13, 57360, Note_on_c, 10, 90, 84
13, 57411, Note_on_c, 10, 90, 0
13, 57420, Note_on_c, 10, 90, 84
13, 57471, Note_on_c, 10, 90, 0
13, 57480, Note_on_c, 10, 90, 84
13, 57531, Note_on_c, 10, 90, 0
13, 57540, Note_on_c, 10, 90, 84
13, 57591, Note_on_c, 10, 90, 0
13, 57600, Note_on_c, 10, 90, 84
13, 57651, Note_on_c, 10, 90, 0
13, 57660, Note_on_c, 10, 90, 84
13, 57711, Note_on_c, 10, 90, 0
13, 57720, Note_on_c, 10, 90, 84
13, 57771, Note_on_c, 10, 90, 0
13, 57780, Note_on_c, 10, 90, 84
13, 57831, Note_on_c, 10, 90, 0
13, 57840, Note_on_c, 10, 90, 84
13, 57891, Note_on_c, 10, 90, 0
13, 57900, Note_on_c, 10, 90, 84
13, 57951, Note_on_c, 10, 90, 0
13, 57960, Note_on_c, 10, 90, 84
13, 58011, Note_on_c, 10, 90, 0
13, 58020, Note_on_c, 10, 90, 84
13, 58071, Note_on_c, 10, 90, 0
13, 58080, Note_on_c, 10, 88, 92
13, 58131, Note_on_c, 10, 88, 0
13, 58140, Note_on_c, 10, 88, 84
13, 58191, Note_on_c, 10, 88, 0
13, 58200, Note_on_c, 10, 88, 84
13, 58251, Note_on_c, 10, 88, 0
13, 58260, Note_on_c, 10, 88, 84
13, 58311, Note_on_c, 10, 88, 0
13, 58320, Note_on_c, 10, 88, 84
13, 58371, Note_on_c, 10, 88, 0
13, 58380, Note_on_c, 10, 88, 84
13, 58431, Note_on_c, 10, 88, 0
13, 58440, Note_on_c, 10, 88, 84
13, 58491, Note_on_c, 10, 88, 0
13, 58500, Note_on_c, 10, 88, 84
13, 58551, Note_on_c, 10, 88, 0
13, 58560, Note_on_c, 10, 90, 92
13, 58611, Note_on_c, 10, 90, 0
13, 58620, Note_on_c, 10, 90, 84
13, 58671, Note_on_c, 10, 90, 0
13, 58680, Note_on_c, 10, 90, 84
13, 58731, Note_on_c, 10, 90, 0
13, 58740, Note_on_c, 10, 90, 84
13, 58791, Note_on_c, 10, 90, 0
13, 58800, Note_on_c, 10, 90, 84
13, 58851, Note_on_c, 10, 90, 0
13, 58860, Note_on_c, 10, 90, 84
13, 58911, Note_on_c, 10, 90, 0
13, 58920, Note_on_c, 10, 90, 84
13, 58971, Note_on_c, 10, 90, 0
13, 58980, Note_on_c, 10, 90, 84
13, 59031, Note_on_c, 10, 90, 0
13, 59040, Note_on_c, 10, 88, 92
13, 59091, Note_on_c, 10, 88, 0
13, 59100, Note_on_c, 10, 88, 84
13, 59151, Note_on_c, 10, 88, 0
13, 59160, Note_on_c, 10, 88, 84
13, 59211, Note_on_c, 10, 88, 0
13, 59220, Note_on_c, 10, 88, 84
13, 59271, Note_on_c, 10, 88, 0
13, 59280, Note_on_c, 10, 88, 84
13, 59331, Note_on_c, 10, 88, 0
13, 59340, Note_on_c, 10, 88, 84
13, 59391, Note_on_c, 10, 88, 0
13, 59400, Note_on_c, 10, 88, 84
13, 59451, Note_on_c, 10, 88, 0
13, 59460, Note_on_c, 10, 88, 84
13, 59511, Note_on_c, 10, 88, 0
13, 59520, Note_on_c, 10, 90, 92
13, 59571, Note_on_c, 10, 90, 0
13, 59580, Note_on_c, 10, 90, 84
13, 59631, Note_on_c, 10, 90, 0
13, 59640, Note_on_c, 10, 90, 84
13, 59691, Note_on_c, 10, 90, 0
13, 59700, Note_on_c, 10, 90, 84
13, 59751, Note_on_c, 10, 90, 0
13, 59760, Note_on_c, 10, 90, 84
13, 59811, Note_on_c, 10, 90, 0
13, 59820, Note_on_c, 10, 90, 84
13, 59871, Note_on_c, 10, 90, 0
13, 59880, Note_on_c, 10, 90, 84
13, 59931, Note_on_c, 10, 90, 0
13, 59940, Note_on_c, 10, 90, 84
13, 59991, Note_on_c, 10, 90, 0
13, 60000, Note_on_c, 10, 88, 92
13, 60051, Note_on_c, 10, 88, 0
13, 60060, Note_on_c, 10, 88, 84
13, 60111, Note_on_c, 10, 88, 0
13, 60120, Note_on_c, 10, 88, 84
13, 60171, Note_on_c, 10, 88, 0
13, 60180, Note_on_c, 10, 88, 84
13, 60231, Note_on_c, 10, 88, 0
13, 60240, Note_on_c, 10, 88, 84
13, 60291, Note_on_c, 10, 88, 0
13, 60300, Note_on_c, 10, 88, 84
13, 60351, Note_on_c, 10, 88, 0
13, 60360, Note_on_c, 10, 88, 84
13, 60411, Note_on_c, 10, 88, 0
13, 60420, Note_on_c, 10, 88, 84
13, 60471, Note_on_c, 10, 88, 0
13, 60480, Note_on_c, 10, 90, 92
13, 60531, Note_on_c, 10, 90, 0
13, 60540, Note_on_c, 10, 90, 84
13, 60591, Note_on_c, 10, 90, 0
13, 60600, Note_on_c, 10, 90, 84
13, 60651, Note_on_c, 10, 90, 0
13, 60660, Note_on_c, 10, 90, 84
13, 60711, Note_on_c, 10, 90, 0
13, 60720, Note_on_c, 10, 90, 84
13, 60771, Note_on_c, 10, 90, 0
13, 60780, Note_on_c, 10, 90, 84
13, 60831, Note_on_c, 10, 90, 0
13, 60840, Note_on_c, 10, 90, 84
13, 60891, Note_on_c, 10, 90, 0
13, 60900, Note_on_c, 10, 90, 84
13, 60951, Note_on_c, 10, 90, 0
13, 60960, Note_on_c, 10, 88, 92
13, 61011, Note_on_c, 10, 88, 0
13, 61020, Note_on_c, 10, 88, 84
13, 61071, Note_on_c, 10, 88, 0
13, 61080, Note_on_c, 10, 88, 84
13, 61131, Note_on_c, 10, 88, 0
13, 61140, Note_on_c, 10, 88, 84
13, 61191, Note_on_c, 10, 88, 0
13, 61200, Note_on_c, 10, 88, 84
13, 61251, Note_on_c, 10, 88, 0
13, 61260, Note_on_c, 10, 88, 84
13, 61311, Note_on_c, 10, 88, 0
13, 61320, Note_on_c, 10, 88, 84
13, 61371, Note_on_c, 10, 88, 0
13, 61380, Note_on_c, 10, 88, 84
13, 61431, Note_on_c, 10, 88, 0
13, 61440, Note_on_c, 10, 87, 92
13, 61491, Note_on_c, 10, 87, 0
13, 61500, Note_on_c, 10, 87, 84
13, 61551, Note_on_c, 10, 87, 0
13, 61560, Note_on_c, 10, 87, 84
13, 61611, Note_on_c, 10, 87, 0
13, 61620, Note_on_c, 10, 87, 84
13, 61671, Note_on_c, 10, 87, 0
13, 61680, Note_on_c, 10, 87, 84
13, 61731, Note_on_c, 10, 87, 0
13, 61740, Note_on_c, 10, 87, 84
13, 61791, Note_on_c, 10, 87, 0
13, 61800, Note_on_c, 10, 87, 84
13, 61851, Note_on_c, 10, 87, 0
13, 61860, Note_on_c, 10, 87, 84
13, 61911, Note_on_c, 10, 87, 0
13, 61920, Note_on_c, 10, 88, 84
13, 61971, Note_on_c, 10, 88, 0
13, 61980, Note_on_c, 10, 88, 84
13, 62031, Note_on_c, 10, 88, 0
13, 62040, Note_on_c, 10, 88, 84
13, 62091, Note_on_c, 10, 88, 0
13, 62100, Note_on_c, 10, 88, 84
13, 62151, Note_on_c, 10, 88, 0
13, 62160, Note_on_c, 10, 87, 92
13, 62211, Note_on_c, 10, 87, 0
13, 62220, Note_on_c, 10, 87, 84
13, 62271, Note_on_c, 10, 87, 0
13, 62280, Note_on_c, 10, 87, 84
13, 62331, Note_on_c, 10, 87, 0
13, 62340, Note_on_c, 10, 87, 84
13, 62391, Note_on_c, 10, 87, 0
13, 62400, Note_on_c, 10, 87, 84
13, 62451, Note_on_c, 10, 87, 0
13, 62460, Note_on_c, 10, 87, 84
13, 62511, Note_on_c, 10, 87, 0
13, 62520, Note_on_c, 10, 87, 84
13, 62571, Note_on_c, 10, 87, 0
13, 62580, Note_on_c, 10, 87, 84
13, 62631, Note_on_c, 10, 87, 0
13, 62640, Note_on_c, 10, 87, 84
13, 62691, Note_on_c, 10, 87, 0
13, 62700, Note_on_c, 10, 87, 84
13, 62751, Note_on_c, 10, 87, 0
13, 62760, Note_on_c, 10, 87, 84
13, 62811, Note_on_c, 10, 87, 0
13, 62820, Note_on_c, 10, 87, 84
13, 62871, Note_on_c, 10, 87, 0
13, 62880, Note_on_c, 10, 88, 84
13, 62931, Note_on_c, 10, 88, 0
13, 62940, Note_on_c, 10, 88, 84
13, 62991, Note_on_c, 10, 88, 0
13, 63000, Note_on_c, 10, 88, 84
13, 63051, Note_on_c, 10, 88, 0
13, 63060, Note_on_c, 10, 88, 84
13, 63111, Note_on_c, 10, 88, 0
13, 63120, Note_on_c, 10, 87, 92
13, 63171, Note_on_c, 10, 87, 0
13, 63180, Note_on_c, 10, 87, 84
13, 63231, Note_on_c, 10, 87, 0
13, 63240, Note_on_c, 10, 87, 84
13, 63291, Note_on_c, 10, 87, 0
13, 63300, Note_on_c, 10, 87, 84
13, 63351, Note_on_c, 10, 87, 0
13, 63360, Note_on_c, 10, 87, 84
13, 63411, Note_on_c, 10, 87, 0
13, 63420, Note_on_c, 10, 87, 84
13, 63471, Note_on_c, 10, 87, 0
13, 63480, Note_on_c, 10, 87, 84
13, 63531, Note_on_c, 10, 87, 0
13, 63540, Note_on_c, 10, 87, 84
13, 63591, Note_on_c, 10, 87, 0
13, 63600, Note_on_c, 10, 87, 84
13, 63651, Note_on_c, 10, 87, 0
13, 63660, Note_on_c, 10, 87, 84
13, 63711, Note_on_c, 10, 87, 0
13, 63720, Note_on_c, 10, 87, 84
13, 63771, Note_on_c, 10, 87, 0
13, 63780, Note_on_c, 10, 87, 84
13, 63831, Note_on_c, 10, 87, 0
13, 63840, Note_on_c, 10, 88, 84
13, 63891, Note_on_c, 10, 88, 0
13, 63900, Note_on_c, 10, 88, 84
13, 63951, Note_on_c, 10, 88, 0
13, 63960, Note_on_c, 10, 88, 84
13, 64011, Note_on_c, 10, 88, 0
13, 64020, Note_on_c, 10, 88, 84
13, 64071, Note_on_c, 10, 88, 0
13, 64080, Note_on_c, 10, 87, 92
13, 64131, Note_on_c, 10, 87, 0
13, 64140, Note_on_c, 10, 87, 84
13, 64191, Note_on_c, 10, 87, 0
13, 64200, Note_on_c, 10, 87, 84
13, 64251, Note_on_c, 10, 87, 0
13, 64260, Note_on_c, 10, 87, 84
13, 64311, Note_on_c, 10, 87, 0
13, 64320, Note_on_c, 10, 88, 84
13, 64371, Note_on_c, 10, 88, 0
13, 64380, Note_on_c, 10, 88, 84
13, 64431, Note_on_c, 10, 88, 0
13, 64440, Note_on_c, 10, 88, 84
13, 64491, Note_on_c, 10, 88, 0
13, 64500, Note_on_c, 10, 88, 84
13, 64551, Note_on_c, 10, 88, 0
13, 64560, Note_on_c, 10, 87, 92
13, 64611, Note_on_c, 10, 87, 0
13, 64620, Note_on_c, 10, 87, 84
13, 64671, Note_on_c, 10, 87, 0
13, 64680, Note_on_c, 10, 87, 84
13, 64731, Note_on_c, 10, 87, 0
13, 64740, Note_on_c, 10, 87, 84
13, 64791, Note_on_c, 10, 87, 0
13, 64800, Note_on_c, 10, 88, 84
13, 64851, Note_on_c, 10, 88, 0
13, 64860, Note_on_c, 10, 88, 84
13, 64911, Note_on_c, 10, 88, 0
13, 64920, Note_on_c, 10, 88, 84
13, 64971, Note_on_c, 10, 88, 0
13, 64980, Note_on_c, 10, 88, 84
13, 65031, Note_on_c, 10, 88, 0
13, 65040, Note_on_c, 10, 87, 92
13, 65091, Note_on_c, 10, 87, 0
13, 65100, Note_on_c, 10, 87, 84
13, 65151, Note_on_c, 10, 87, 0
13, 65160, Note_on_c, 10, 87, 84
13, 65211, Note_on_c, 10, 87, 0
13, 65220, Note_on_c, 10, 87, 84
13, 65271, Note_on_c, 10, 87, 0
13, 65280, Note_on_c, 10, 88, 84
13, 65331, Note_on_c, 10, 88, 0
13, 65340, Note_on_c, 10, 88, 84
13, 65391, Note_on_c, 10, 88, 0
13, 65400, Note_on_c, 10, 88, 84
13, 65451, Note_on_c, 10, 88, 0
13, 65460, Note_on_c, 10, 88, 84
13, 65511, Note_on_c, 10, 88, 0
13, 65520, Note_on_c, 10, 90, 84
13, 65571, Note_on_c, 10, 90, 0
13, 65580, Note_on_c, 10, 90, 84
13, 65631, Note_on_c, 10, 90, 0
13, 65640, Note_on_c, 10, 90, 84
13, 65691, Note_on_c, 10, 90, 0
13, 65700, Note_on_c, 10, 90, 84
13, 65751, Note_on_c, 10, 90, 0
13, 65760, Note_on_c, 10, 76, 84
13, 65760, Note_on_c, 10, 88, 84
13, 65879, Note_on_c, 10, 76, 0
13, 65879, Note_on_c, 10, 88, 0
13, 66720, Note_on_c, 10, 76, 84
13, 66720, Note_on_c, 10, 86, 84
13, 66839, Note_on_c, 10, 76, 0
13, 66839, Note_on_c, 10, 86, 0
13, 67680, Note_on_c, 10, 78, 84
13, 67769, Note_on_c, 10, 78, 0
13, 67800, Note_on_c, 10, 78, 84
13, 67859, Note_on_c, 10, 78, 0
13, 67860, Note_on_c, 10, 79, 84
13, 67919, Note_on_c, 10, 79, 0
13, 67920, Note_on_c, 10, 83, 92
13, 67979, Note_on_c, 10, 83, 0
13, 67980, Note_on_c, 10, 81, 84
13, 68039, Note_on_c, 10, 81, 0
13, 68040, Note_on_c, 10, 80, 84
13, 68099, Note_on_c, 10, 80, 0
13, 68100, Note_on_c, 10, 78, 84
13, 68151, Note_on_c, 10, 78, 0
13, 68160, Note_on_c, 10, 76, 84
13, 68249, Note_on_c, 10, 76, 0
13, 68280, Note_on_c, 10, 76, 84
13, 68339, Note_on_c, 10, 76, 0
13, 68340, Note_on_c, 10, 78, 84
13, 68399, Note_on_c, 10, 78, 0
13, 68400, Note_on_c, 10, 81, 92
13, 68459, Note_on_c, 10, 81, 0
13, 68460, Note_on_c, 10, 80, 84
13, 68519, Note_on_c, 10, 80, 0
13, 68520, Note_on_c, 10, 78, 84
13, 68579, Note_on_c, 10, 78, 0
13, 68580, Note_on_c, 10, 76, 84
13, 68631, Note_on_c, 10, 76, 0
13, 68640, Note_on_c, 10, 78, 84
13, 68729, Note_on_c, 10, 78, 0
13, 68760, Note_on_c, 10, 78, 84
13, 68819, Note_on_c, 10, 78, 0
13, 68820, Note_on_c, 10, 79, 84
13, 68879, Note_on_c, 10, 79, 0
13, 68880, Note_on_c, 10, 83, 92
13, 68939, Note_on_c, 10, 83, 0
13, 68940, Note_on_c, 10, 81, 84
13, 68999, Note_on_c, 10, 81, 0
13, 69000, Note_on_c, 10, 80, 84
13, 69059, Note_on_c, 10, 80, 0
13, 69060, Note_on_c, 10, 78, 84
13, 69111, Note_on_c, 10, 78, 0
13, 69120, Note_on_c, 10, 78, 84
13, 69239, Note_on_c, 10, 78, 0
13, 69240, Note_on_c, 10, 77, 84
13, 69344, Note_on_c, 10, 77, 0
13, 69360, Note_on_c, 10, 76, 92
13, 69419, Note_on_c, 10, 76, 0
13, 69420, Note_on_c, 10, 76, 84
13, 69599, Note_on_c, 10, 76, 0
13, 69600, Note_on_c, 10, 75, 84
13, 69689, Note_on_c, 10, 75, 0
13, 69720, Note_on_c, 10, 74, 84
13, 69779, Note_on_c, 10, 74, 0
13, 69780, Note_on_c, 10, 76, 84
13, 69839, Note_on_c, 10, 76, 0
13, 69840, Note_on_c, 10, 80, 92
13, 69899, Note_on_c, 10, 80, 0
13, 69900, Note_on_c, 10, 78, 84
13, 69959, Note_on_c, 10, 78, 0
13, 69960, Note_on_c, 10, 76, 84
13, 70019, Note_on_c, 10, 76, 0
13, 70020, Note_on_c, 10, 74, 84
13, 70071, Note_on_c, 10, 74, 0
13, 70080, Note_on_c, 10, 73, 84
13, 70169, Note_on_c, 10, 73, 0
13, 70200, Note_on_c, 10, 73, 84
13, 70259, Note_on_c, 10, 73, 0
13, 70260, Note_on_c, 10, 74, 84
13, 70319, Note_on_c, 10, 74, 0
13, 70320, Note_on_c, 10, 78, 92
13, 70379, Note_on_c, 10, 78, 0
13, 70380, Note_on_c, 10, 76, 84
13, 70439, Note_on_c, 10, 76, 0
13, 70440, Note_on_c, 10, 74, 84
13, 70499, Note_on_c, 10, 74, 0
13, 70500, Note_on_c, 10, 73, 84
13, 70551, Note_on_c, 10, 73, 0
13, 70560, Note_on_c, 10, 71, 84
13, 70649, Note_on_c, 10, 71, 0
13, 70680, Note_on_c, 10, 71, 84
13, 70739, Note_on_c, 10, 71, 0
13, 70740, Note_on_c, 10, 73, 84
13, 70799, Note_on_c, 10, 73, 0
13, 70800, Note_on_c, 10, 76, 92
13, 70859, Note_on_c, 10, 76, 0
13, 70860, Note_on_c, 10, 74, 84
13, 70919, Note_on_c, 10, 74, 0
13, 70920, Note_on_c, 10, 73, 84
13, 70979, Note_on_c, 10, 73, 0
13, 70980, Note_on_c, 10, 71, 84
13, 71031, Note_on_c, 10, 71, 0
13, 71040, Note_on_c, 10, 64, 84
13, 71040, Note_on_c, 10, 81, 84
13, 71040, Note_on_c, 10, 73, 84
13, 71159, Note_on_c, 10, 64, 0
13, 71159, Note_on_c, 10, 81, 0
13, 71159, Note_on_c, 10, 73, 0
13, 71520, Note_on_c, 10, 78, 84
13, 71609, Note_on_c, 10, 78, 0
13, 71640, Note_on_c, 10, 78, 84
13, 71699, Note_on_c, 10, 78, 0
13, 71700, Note_on_c, 10, 79, 84
13, 71759, Note_on_c, 10, 79, 0
13, 71760, Note_on_c, 10, 83, 92
13, 71819, Note_on_c, 10, 83, 0
13, 71820, Note_on_c, 10, 81, 84
13, 71879, Note_on_c, 10, 81, 0
13, 71880, Note_on_c, 10, 80, 84
13, 71939, Note_on_c, 10, 80, 0
13, 71940, Note_on_c, 10, 78, 84
13, 71991, Note_on_c, 10, 78, 0
13, 72000, Note_on_c, 10, 76, 84
13, 72089, Note_on_c, 10, 76, 0
13, 72120, Note_on_c, 10, 76, 84
13, 72179, Note_on_c, 10, 76, 0
13, 72180, Note_on_c, 10, 78, 84
13, 72239, Note_on_c, 10, 78, 0
13, 72240, Note_on_c, 10, 81, 92
13, 72299, Note_on_c, 10, 81, 0
13, 72300, Note_on_c, 10, 80, 84
13, 72359, Note_on_c, 10, 80, 0
13, 72360, Note_on_c, 10, 78, 84
13, 72419, Note_on_c, 10, 78, 0
13, 72420, Note_on_c, 10, 76, 84
13, 72471, Note_on_c, 10, 76, 0
13, 72480, Note_on_c, 10, 78, 84
13, 72569, Note_on_c, 10, 78, 0
13, 72600, Note_on_c, 10, 78, 84
13, 72659, Note_on_c, 10, 78, 0
13, 72660, Note_on_c, 10, 79, 84
13, 72719, Note_on_c, 10, 79, 0
13, 72720, Note_on_c, 10, 83, 92
13, 72779, Note_on_c, 10, 83, 0
13, 72780, Note_on_c, 10, 81, 84
13, 72839, Note_on_c, 10, 81, 0
13, 72840, Note_on_c, 10, 80, 84
13, 72899, Note_on_c, 10, 80, 0
13, 72900, Note_on_c, 10, 78, 84
13, 72951, Note_on_c, 10, 78, 0
13, 72960, Note_on_c, 10, 78, 84
13, 73079, Note_on_c, 10, 78, 0
13, 73080, Note_on_c, 10, 77, 84
13, 73184, Note_on_c, 10, 77, 0
13, 73200, Note_on_c, 10, 76, 92
13, 73259, Note_on_c, 10, 76, 0
13, 73260, Note_on_c, 10, 76, 84
13, 73439, Note_on_c, 10, 76, 0
13, 73440, Note_on_c, 10, 75, 84
13, 73529, Note_on_c, 10, 75, 0
13, 73560, Note_on_c, 10, 74, 84
13, 73619, Note_on_c, 10, 74, 0
13, 73620, Note_on_c, 10, 76, 84
13, 73679, Note_on_c, 10, 76, 0
13, 73680, Note_on_c, 10, 80, 92
13, 73739, Note_on_c, 10, 80, 0
13, 73740, Note_on_c, 10, 78, 84
13, 73799, Note_on_c, 10, 78, 0
13, 73800, Note_on_c, 10, 76, 84
13, 73859, Note_on_c, 10, 76, 0
13, 73860, Note_on_c, 10, 74, 84
13, 73911, Note_on_c, 10, 74, 0
13, 73920, Note_on_c, 10, 73, 84
13, 74009, Note_on_c, 10, 73, 0
13, 74040, Note_on_c, 10, 73, 84
13, 74099, Note_on_c, 10, 73, 0
13, 74100, Note_on_c, 10, 74, 84
13, 74159, Note_on_c, 10, 74, 0
13, 74160, Note_on_c, 10, 78, 92
13, 74219, Note_on_c, 10, 78, 0
13, 74220, Note_on_c, 10, 76, 84
13, 74279, Note_on_c, 10, 76, 0
13, 74280, Note_on_c, 10, 74, 84
13, 74339, Note_on_c, 10, 74, 0
13, 74340, Note_on_c, 10, 73, 84
13, 74391, Note_on_c, 10, 73, 0
13, 74400, Note_on_c, 10, 71, 84
13, 74489, Note_on_c, 10, 71, 0
13, 74520, Note_on_c, 10, 71, 84
13, 74579, Note_on_c, 10, 71, 0
13, 74580, Note_on_c, 10, 73, 84
13, 74639, Note_on_c, 10, 73, 0
13, 74640, Note_on_c, 10, 76, 92
13, 74699, Note_on_c, 10, 76, 0
13, 74700, Note_on_c, 10, 74, 84
13, 74759, Note_on_c, 10, 74, 0
13, 74760, Note_on_c, 10, 73, 84
13, 74819, Note_on_c, 10, 73, 0
13, 74820, Note_on_c, 10, 71, 84
13, 74871, Note_on_c, 10, 71, 0
13, 74880, Note_on_c, 10, 73, 84
13, 74880, Note_on_c, 10, 64, 84
13, 74880, Note_on_c, 10, 81, 84
13, 74999, Note_on_c, 10, 73, 0
13, 74999, Note_on_c, 10, 64, 0
13, 74999, Note_on_c, 10, 81, 0
13, 75360, Note_on_c, 10, 81, 84
13, 75360, Note_on_c, 10, 73, 84
13, 75360, Note_on_c, 10, 64, 84
13, 75479, Note_on_c, 10, 81, 0
13, 75479, Note_on_c, 10, 73, 0
13, 75479, Note_on_c, 10, 64, 0
13, 75840, Note_on_c, 10, 88, 84
13, 75840, Note_on_c, 10, 76, 84
13, 75959, Note_on_c, 10, 88, 0
13, 75959, Note_on_c, 10, 76, 0
13, 76320, Note_on_c, 10, 76, 84
13, 76320, Note_on_c, 10, 88, 84
13, 76439, Note_on_c, 10, 76, 0
13, 76439, Note_on_c, 10, 88, 0
13, 76800, Note_on_c, 10, 69, 84
13, 76800, Note_on_c, 10, 85, 84
13, 76800, Note_on_c, 10, 76, 84
13, 76919, Note_on_c, 10, 69, 0
13, 76919, Note_on_c, 10, 85, 0
13, 76919, Note_on_c, 10, 76, 0
13, 77040, Note_on_c, 10, 76, 84
13, 77040, Note_on_c, 10, 69, 84
13, 77040, Note_on_c, 10, 85, 84
13, 77159, Note_on_c, 10, 76, 0
13, 77159, Note_on_c, 10, 69, 0
13, 77159, Note_on_c, 10, 85, 0
13, 77280, Note_on_c, 10, 69, 84
13, 77280, Note_on_c, 10, 76, 84
13, 77280, Note_on_c, 10, 85, 84
13, 77399, Note_on_c, 10, 69, 0
13, 77399, Note_on_c, 10, 76, 0
13, 77399, Note_on_c, 10, 85, 0
13, 77520, Note_on_c, 10, 85, 84
13, 77520, Note_on_c, 10, 69, 84
13, 77520, Note_on_c, 10, 76, 84
13, 77639, Note_on_c, 10, 85, 0
13, 77639, Note_on_c, 10, 69, 0
13, 77639, Note_on_c, 10, 76, 0
13, 77760, Note_on_c, 10, 83, 84
13, 77760, Note_on_c, 10, 68, 84
13, 77760, Note_on_c, 10, 76, 84
13, 77879, Note_on_c, 10, 83, 0
13, 77879, Note_on_c, 10, 68, 0
13, 77879, Note_on_c, 10, 76, 0
13, 78000, Note_on_c, 10, 76, 84
13, 78000, Note_on_c, 10, 83, 84
13, 78000, Note_on_c, 10, 68, 84
13, 78119, Note_on_c, 10, 76, 0
13, 78119, Note_on_c, 10, 83, 0
13, 78119, Note_on_c, 10, 68, 0
13, 78240, Note_on_c, 10, 68, 84
13, 78240, Note_on_c, 10, 76, 84
13, 78240, Note_on_c, 10, 83, 84
13, 78359, Note_on_c, 10, 68, 0
13, 78359, Note_on_c, 10, 76, 0
13, 78359, Note_on_c, 10, 83, 0
13, 78480, Note_on_c, 10, 83, 84
13, 78480, Note_on_c, 10, 76, 84
13, 78480, Note_on_c, 10, 68, 84
13, 78599, Note_on_c, 10, 83, 0
13, 78599, Note_on_c, 10, 76, 0
13, 78599, Note_on_c, 10, 68, 0
13, 78720, Note_on_c, 10, 73, 84
13, 78720, Note_on_c, 10, 81, 84
13, 78720, Note_on_c, 10, 64, 84
13, 78720, Note_on_c, 10, 57, 84
13, 78839, Note_on_c, 10, 73, 0
13, 78839, Note_on_c, 10, 81, 0
13, 78839, Note_on_c, 10, 64, 0
13, 78839, Note_on_c, 10, 57, 0
13, 79200, Note_on_c, 10, 81, 84
13, 79200, Note_on_c, 10, 64, 84
13, 79200, Note_on_c, 10, 73, 84
13, 79200, Note_on_c, 10, 57, 84
13, 79319, Note_on_c, 10, 81, 0
13, 79319, Note_on_c, 10, 64, 0
13, 79319, Note_on_c, 10, 73, 0
13, 79319, Note_on_c, 10, 57, 0
13, 79680, Note_on_c, 10, 76, 84
13, 79680, Note_on_c, 10, 88, 84
13, 79799, Note_on_c, 10, 76, 0
13, 79799, Note_on_c, 10, 88, 0
13, 80160, Note_on_c, 10, 88, 84
13, 80160, Note_on_c, 10, 76, 84
13, 80279, Note_on_c, 10, 88, 0
13, 80279, Note_on_c, 10, 76, 0
13, 80640, Note_on_c, 10, 85, 84
13, 80691, Note_on_c, 10, 85, 0
13, 80700, Note_on_c, 10, 85, 84
13, 80751, Note_on_c, 10, 85, 0
13, 80760, Note_on_c, 10, 85, 84
13, 80811, Note_on_c, 10, 85, 0
13, 80820, Note_on_c, 10, 85, 84
13, 80871, Note_on_c, 10, 85, 0
13, 80880, Note_on_c, 10, 85, 84
13, 80931, Note_on_c, 10, 85, 0
13, 80940, Note_on_c, 10, 85, 84
13, 80991, Note_on_c, 10, 85, 0
13, 81000, Note_on_c, 10, 83, 84
13, 81051, Note_on_c, 10, 83, 0
13, 81060, Note_on_c, 10, 83, 84
13, 81111, Note_on_c, 10, 83, 0
13, 81120, Note_on_c, 10, 81, 84
13, 81171, Note_on_c, 10, 81, 0
13, 81180, Note_on_c, 10, 81, 84
13, 81231, Note_on_c, 10, 81, 0
13, 81240, Note_on_c, 10, 85, 84
13, 81291, Note_on_c, 10, 85, 0
13, 81300, Note_on_c, 10, 85, 84
13, 81351, Note_on_c, 10, 85, 0
13, 81360, Note_on_c, 10, 83, 84
13, 81411, Note_on_c, 10, 83, 0
13, 81420, Note_on_c, 10, 83, 84
13, 81471, Note_on_c, 10, 83, 0
13, 81480, Note_on_c, 10, 81, 84
13, 81531, Note_on_c, 10, 81, 0
13, 81540, Note_on_c, 10, 81, 84
13, 81591, Note_on_c, 10, 81, 0
13, 81600, Note_on_c, 10, 83, 84
13, 81651, Note_on_c, 10, 83, 0
13, 81660, Note_on_c, 10, 83, 84
13, 81711, Note_on_c, 10, 83, 0
13, 81720, Note_on_c, 10, 81, 84
13, 81771, Note_on_c, 10, 81, 0
13, 81780, Note_on_c, 10, 81, 84
13, 81831, Note_on_c, 10, 81, 0
13, 81840, Note_on_c, 10, 80, 84
13, 81891, Note_on_c, 10, 80, 0
13, 81900, Note_on_c, 10, 80, 84
13, 81951, Note_on_c, 10, 80, 0
13, 81960, Note_on_c, 10, 78, 84
13, 82011, Note_on_c, 10, 78, 0
13, 82020, Note_on_c, 10, 78, 84
13, 82071, Note_on_c, 10, 78, 0
13, 82080, Note_on_c, 10, 76, 84
13, 82131, Note_on_c, 10, 76, 0
13, 82140, Note_on_c, 10, 76, 84
13, 82191, Note_on_c, 10, 76, 0
13, 82200, Note_on_c, 10, 74, 84
13, 82251, Note_on_c, 10, 74, 0
13, 82260, Note_on_c, 10, 74, 84
13, 82311, Note_on_c, 10, 74, 0
13, 82320, Note_on_c, 10, 73, 84
13, 82371, Note_on_c, 10, 73, 0
13, 82380, Note_on_c, 10, 73, 84
13, 82431, Note_on_c, 10, 73, 0
13, 82440, Note_on_c, 10, 71, 84
13, 82491, Note_on_c, 10, 71, 0
13, 82500, Note_on_c, 10, 71, 84
13, 82551, Note_on_c, 10, 71, 0
13, 82560, Note_on_c, 10, 69, 84
13, 82649, Note_on_c, 10, 69, 0
13, 82680, Note_on_c, 10, 69, 84
13, 82739, Note_on_c, 10, 69, 0
13, 82740, Note_on_c, 10, 71, 84
13, 82799, Note_on_c, 10, 71, 0
13, 82800, Note_on_c, 10, 74, 84
13, 82859, Note_on_c, 10, 74, 0
13, 82860, Note_on_c, 10, 73, 84
13, 82919, Note_on_c, 10, 73, 0
13, 82920, Note_on_c, 10, 71, 84
13, 82979, Note_on_c, 10, 71, 0
13, 82980, Note_on_c, 10, 69, 84
13, 83031, Note_on_c, 10, 69, 0
13, 83040, Note_on_c, 10, 76, 84
13, 83279, Note_on_c, 10, 76, 0
13, 83280, Note_on_c, 10, 74, 84
13, 83519, Note_on_c, 10, 74, 0
13, 83520, Note_on_c, 10, 73, 84
13, 83759, Note_on_c, 10, 73, 0
13, 83760, Note_on_c, 10, 71, 84
13, 83999, Note_on_c, 10, 71, 0
13, 84000, Note_on_c, 10, 69, 84
13, 84239, Note_on_c, 10, 69, 0
13, 84240, Note_on_c, 10, 71, 84
13, 84464, Note_on_c, 10, 71, 0
13, 84480, Note_on_c, 10, 73, 84
13, 84569, Note_on_c, 10, 73, 0
13, 84600, Note_on_c, 10, 69, 84
13, 84659, Note_on_c, 10, 69, 0
13, 84660, Note_on_c, 10, 71, 84
13, 84719, Note_on_c, 10, 71, 0
13, 84720, Note_on_c, 10, 74, 84
13, 84779, Note_on_c, 10, 74, 0
13, 84780, Note_on_c, 10, 73, 84
13, 84839, Note_on_c, 10, 73, 0
13, 84840, Note_on_c, 10, 71, 84
13, 84899, Note_on_c, 10, 71, 0
13, 84900, Note_on_c, 10, 69, 84
13, 84951, Note_on_c, 10, 69, 0
13, 84960, Note_on_c, 10, 76, 84
13, 85199, Note_on_c, 10, 76, 0
13, 85200, Note_on_c, 10, 74, 84
13, 85439, Note_on_c, 10, 74, 0
13, 85440, Note_on_c, 10, 73, 84
13, 85679, Note_on_c, 10, 73, 0
13, 85680, Note_on_c, 10, 71, 84
13, 85919, Note_on_c, 10, 71, 0
13, 85920, Note_on_c, 10, 69, 84
13, 86159, Note_on_c, 10, 69, 0
13, 86160, Note_on_c, 10, 68, 84
13, 86384, Note_on_c, 10, 68, 0
13, 86400, Note_on_c, 10, 69, 84
13, 86489, Note_on_c, 10, 69, 0
13, 86520, Note_on_c, 10, 78, 84
13, 86579, Note_on_c, 10, 78, 0
13, 86580, Note_on_c, 10, 80, 84
13, 86639, Note_on_c, 10, 80, 0
13, 86640, Note_on_c, 10, 83, 84
13, 86699, Note_on_c, 10, 83, 0
13, 86700, Note_on_c, 10, 81, 84
13, 86759, Note_on_c, 10, 81, 0
13, 86760, Note_on_c, 10, 80, 84
13, 86819, Note_on_c, 10, 80, 0
13, 86820, Note_on_c, 10, 78, 84
13, 86871, Note_on_c, 10, 78, 0
13, 86880, Note_on_c, 10, 85, 84
13, 87119, Note_on_c, 10, 85, 0
13, 87120, Note_on_c, 10, 83, 84
13, 87359, Note_on_c, 10, 83, 0
13, 87360, Note_on_c, 10, 81, 84
13, 87599, Note_on_c, 10, 81, 0
13, 87600, Note_on_c, 10, 80, 84
13, 87839, Note_on_c, 10, 80, 0
13, 87840, Note_on_c, 10, 78, 84
13, 88079, Note_on_c, 10, 78, 0
13, 88080, Note_on_c, 10, 80, 84
13, 88304, Note_on_c, 10, 80, 0
13, 88320, Note_on_c, 10, 81, 84
13, 88409, Note_on_c, 10, 81, 0
13, 88440, Note_on_c, 10, 78, 84
13, 88499, Note_on_c, 10, 78, 0
13, 88500, Note_on_c, 10, 80, 84
13, 88559, Note_on_c, 10, 80, 0
13, 88560, Note_on_c, 10, 83, 84
13, 88619, Note_on_c, 10, 83, 0
13, 88620, Note_on_c, 10, 81, 84
13, 88679, Note_on_c, 10, 81, 0
13, 88680, Note_on_c, 10, 80, 84
13, 88739, Note_on_c, 10, 80, 0
13, 88740, Note_on_c, 10, 78, 84
13, 88791, Note_on_c, 10, 78, 0
13, 88800, Note_on_c, 10, 85, 84
13, 89039, Note_on_c, 10, 85, 0
13, 89040, Note_on_c, 10, 83, 84
13, 89279, Note_on_c, 10, 83, 0
13, 89280, Note_on_c, 10, 81, 84
13, 89519, Note_on_c, 10, 81, 0
13, 89520, Note_on_c, 10, 80, 84
13, 89759, Note_on_c, 10, 80, 0
13, 89760, Note_on_c, 10, 78, 84
13, 89999, Note_on_c, 10, 78, 0
13, 90000, Note_on_c, 10, 80, 84
13, 90224, Note_on_c, 10, 80, 0
13, 90240, Note_on_c, 10, 81, 84
13, 90240, Note_on_c, 10, 69, 84
13, 90411, Note_on_c, 10, 81, 0
13, 90411, Note_on_c, 10, 69, 0
13, 90420, Note_on_c, 10, 69, 84
13, 90420, Note_on_c, 10, 81, 84
13, 90471, Note_on_c, 10, 69, 0
13, 90471, Note_on_c, 10, 81, 0
13, 90480, Note_on_c, 10, 69, 84
13, 90480, Note_on_c, 10, 81, 84
13, 90651, Note_on_c, 10, 69, 0
13, 90651, Note_on_c, 10, 81, 0
13, 90660, Note_on_c, 10, 69, 84
13, 90660, Note_on_c, 10, 81, 84
13, 90711, Note_on_c, 10, 69, 0
13, 90711, Note_on_c, 10, 81, 0
13, 90720, Note_on_c, 10, 81, 84
13, 90720, Note_on_c, 10, 69, 84
13, 90891, Note_on_c, 10, 81, 0
13, 90891, Note_on_c, 10, 69, 0
13, 90900, Note_on_c, 10, 81, 84
13, 90900, Note_on_c, 10, 69, 84
13, 90951, Note_on_c, 10, 81, 0
13, 90951, Note_on_c, 10, 69, 0
13, 90960, Note_on_c, 10, 81, 84
13, 90960, Note_on_c, 10, 69, 84
13, 91131, Note_on_c, 10, 81, 0
13, 91131, Note_on_c, 10, 69, 0
13, 91140, Note_on_c, 10, 81, 84
13, 91140, Note_on_c, 10, 69, 84
13, 91191, Note_on_c, 10, 81, 0
13, 91191, Note_on_c, 10, 69, 0
13, 91200, Note_on_c, 10, 83, 84
13, 91200, Note_on_c, 10, 71, 84
13, 91371, Note_on_c, 10, 83, 0
13, 91371, Note_on_c, 10, 71, 0
13, 91380, Note_on_c, 10, 83, 84
13, 91380, Note_on_c, 10, 71, 84
13, 91431, Note_on_c, 10, 83, 0
13, 91431, Note_on_c, 10, 71, 0
13, 91440, Note_on_c, 10, 71, 84
13, 91440, Note_on_c, 10, 83, 84
13, 91611, Note_on_c, 10, 71, 0
13, 91611, Note_on_c, 10, 83, 0
13, 91620, Note_on_c, 10, 71, 84
13, 91620, Note_on_c, 10, 83, 84
13, 91671, Note_on_c, 10, 71, 0
13, 91671, Note_on_c, 10, 83, 0
13, 91680, Note_on_c, 10, 71, 84
13, 91680, Note_on_c, 10, 83, 84
13, 91851, Note_on_c, 10, 71, 0
13, 91851, Note_on_c, 10, 83, 0
13, 91860, Note_on_c, 10, 83, 84
13, 91860, Note_on_c, 10, 71, 84
13, 91911, Note_on_c, 10, 83, 0
13, 91911, Note_on_c, 10, 71, 0
13, 91920, Note_on_c, 10, 71, 84
13, 91920, Note_on_c, 10, 83, 84
13, 92091, Note_on_c, 10, 71, 0
13, 92091, Note_on_c, 10, 83, 0
13, 92100, Note_on_c, 10, 83, 84
13, 92100, Note_on_c, 10, 71, 84
13, 92151, Note_on_c, 10, 83, 0
13, 92151, Note_on_c, 10, 71, 0
13, 92160, Note_on_c, 10, 69, 84
13, 92160, Note_on_c, 10, 81, 84
13, 92331, Note_on_c, 10, 69, 0
13, 92331, Note_on_c, 10, 81, 0
13, 92340, Note_on_c, 10, 81, 84
13, 92340, Note_on_c, 10, 69, 84
13, 92391, Note_on_c, 10, 81, 0
13, 92391, Note_on_c, 10, 69, 0
13, 92400, Note_on_c, 10, 81, 84
13, 92400, Note_on_c, 10, 69, 84
13, 92571, Note_on_c, 10, 81, 0
13, 92571, Note_on_c, 10, 69, 0
13, 92580, Note_on_c, 10, 81, 84
13, 92580, Note_on_c, 10, 69, 84
13, 92631, Note_on_c, 10, 81, 0
13, 92631, Note_on_c, 10, 69, 0
13, 92640, Note_on_c, 10, 82, 84
13, 92811, Note_on_c, 10, 82, 0
13, 92820, Note_on_c, 10, 82, 84
13, 92871, Note_on_c, 10, 82, 0
13, 92880, Note_on_c, 10, 82, 84
13, 93051, Note_on_c, 10, 82, 0
13, 93060, Note_on_c, 10, 82, 84
13, 93111, Note_on_c, 10, 82, 0
13, 93120, Note_on_c, 10, 84, 84
13, 93291, Note_on_c, 10, 84, 0
13, 93300, Note_on_c, 10, 84, 84
13, 93351, Note_on_c, 10, 84, 0
13, 93360, Note_on_c, 10, 84, 84
13, 93531, Note_on_c, 10, 84, 0
13, 93540, Note_on_c, 10, 84, 84
13, 93591, Note_on_c, 10, 84, 0
13, 93600, Note_on_c, 10, 85, 84
13, 93771, Note_on_c, 10, 85, 0
13, 93780, Note_on_c, 10, 85, 84
13, 93831, Note_on_c, 10, 85, 0
13, 93840, Note_on_c, 10, 85, 84
13, 94011, Note_on_c, 10, 85, 0
13, 94020, Note_on_c, 10, 85, 84
13, 94071, Note_on_c, 10, 85, 0
13, 94080, Note_on_c, 10, 87, 84
13, 94251, Note_on_c, 10, 87, 0
13, 94260, Note_on_c, 10, 88, 84
13, 94311, Note_on_c, 10, 88, 0
13, 94320, Note_on_c, 10, 90, 84
13, 94491, Note_on_c, 10, 90, 0
13, 94500, Note_on_c, 10, 90, 84
13, 94551, Note_on_c, 10, 90, 0
13, 94560, Note_on_c, 10, 90, 84
13, 94731, Note_on_c, 10, 90, 0
13, 94740, Note_on_c, 10, 90, 84
13, 94791, Note_on_c, 10, 90, 0
13, 94800, Note_on_c, 10, 90, 84
13, 94971, Note_on_c, 10, 90, 0
13, 94980, Note_on_c, 10, 90, 84
13, 95031, Note_on_c, 10, 90, 0
13, 95040, Note_on_c, 10, 90, 84
13, 95279, Note_on_c, 10, 90, 0
13, 95700, Note_on_c, 10, 78, 52
13, 95759, Note_on_c, 10, 78, 0
13, 95760, Note_on_c, 10, 81, 52
13, 95879, Note_on_c, 10, 81, 0
13, 95940, Note_on_c, 10, 78, 52
13, 95999, Note_on_c, 10, 78, 0
13, 96000, Note_on_c, 10, 75, 52
13, 96119, Note_on_c, 10, 75, 0
13, 96180, Note_on_c, 10, 75, 52
13, 96239, Note_on_c, 10, 75, 0
13, 96240, Note_on_c, 10, 78, 52
13, 96359, Note_on_c, 10, 78, 0
13, 96420, Note_on_c, 10, 75, 52
13, 96479, Note_on_c, 10, 75, 0
13, 96480, Note_on_c, 10, 72, 52
13, 96599, Note_on_c, 10, 72, 0
13, 96660, Note_on_c, 10, 75, 52
13, 96719, Note_on_c, 10, 75, 0
13, 96720, Note_on_c, 10, 76, 52
13, 96839, Note_on_c, 10, 76, 0
13, 96900, Note_on_c, 10, 73, 52
13, 96959, Note_on_c, 10, 73, 0
13, 96960, Note_on_c, 10, 72, 52
13, 97079, Note_on_c, 10, 72, 0
13, 97620, Note_on_c, 10, 78, 52
13, 97679, Note_on_c, 10, 78, 0
13, 97680, Note_on_c, 10, 81, 52
13, 97799, Note_on_c, 10, 81, 0
13, 97860, Note_on_c, 10, 78, 52
13, 97919, Note_on_c, 10, 78, 0
13, 97920, Note_on_c, 10, 75, 52
13, 98039, Note_on_c, 10, 75, 0
13, 98100, Note_on_c, 10, 75, 52
13, 98159, Note_on_c, 10, 75, 0
13, 98160, Note_on_c, 10, 78, 52
13, 98279, Note_on_c, 10, 78, 0
13, 98340, Note_on_c, 10, 75, 52
13, 98399, Note_on_c, 10, 75, 0
13, 98400, Note_on_c, 10, 72, 52
13, 98519, Note_on_c, 10, 72, 0
13, 98580, Note_on_c, 10, 75, 52
13, 98639, Note_on_c, 10, 75, 0
13, 98640, Note_on_c, 10, 76, 52
13, 98759, Note_on_c, 10, 76, 0
13, 98820, Note_on_c, 10, 73, 51
13, 98879, Note_on_c, 10, 73, 0
13, 98880, Note_on_c, 10, 72, 51
13, 98999, Note_on_c, 10, 72, 0
13, 99060, Note_on_c, 10, 75, 50
13, 99119, Note_on_c, 10, 75, 0
13, 99120, Note_on_c, 10, 78, 50
13, 99239, Note_on_c, 10, 78, 0
13, 99300, Note_on_c, 10, 75, 49
13, 99359, Note_on_c, 10, 75, 0
13, 99360, Note_on_c, 10, 72, 49
13, 99479, Note_on_c, 10, 72, 0
13, 99540, Note_on_c, 10, 75, 49
13, 99599, Note_on_c, 10, 75, 0
13, 99600, Note_on_c, 10, 76, 48
13, 99719, Note_on_c, 10, 76, 0
13, 99780, Note_on_c, 10, 73, 48
13, 99839, Note_on_c, 10, 73, 0
13, 99840, Note_on_c, 10, 72, 48
13, 99959, Note_on_c, 10, 72, 0
13, 100020, Note_on_c, 10, 75, 47
13, 100079, Note_on_c, 10, 75, 0
13, 100080, Note_on_c, 10, 78, 47
13, 100199, Note_on_c, 10, 78, 0
13, 100260, Note_on_c, 10, 75, 46
13, 100319, Note_on_c, 10, 75, 0
13, 100320, Note_on_c, 10, 72, 46
13, 100439, Note_on_c, 10, 72, 0
13, 100500, Note_on_c, 10, 75, 45
13, 100559, Note_on_c, 10, 75, 0
13, 100560, Note_on_c, 10, 80, 45
13, 100679, Note_on_c, 10, 80, 0
13, 100740, Note_on_c, 10, 78, 45
13, 100799, Note_on_c, 10, 78, 0
13, 100800, Note_on_c, 10, 76, 52
13, 100971, Note_on_c, 10, 76, 0
13, 100980, Note_on_c, 10, 75, 52
13, 101024, Note_on_c, 10, 75, 0
13, 101040, Note_on_c, 10, 76, 76
13, 101271, Note_on_c, 10, 76, 0
13, 101280, Note_on_c, 10, 75, 52
13, 101451, Note_on_c, 10, 75, 0
13, 101460, Note_on_c, 10, 73, 52
13, 101504, Note_on_c, 10, 73, 0
13, 101520, Note_on_c, 10, 75, 76
13, 101751, Note_on_c, 10, 75, 0
13, 101760, Note_on_c, 10, 73, 52
13, 101931, Note_on_c, 10, 73, 0
13, 101940, Note_on_c, 10, 72, 52
13, 101984, Note_on_c, 10, 72, 0
13, 102000, Note_on_c, 10, 73, 76
13, 102231, Note_on_c, 10, 73, 0
13, 102240, Note_on_c, 10, 75, 52
13, 102411, Note_on_c, 10, 75, 0
13, 102420, Note_on_c, 10, 73, 52
13, 102464, Note_on_c, 10, 73, 0
13, 102480, Note_on_c, 10, 75, 76
13, 102711, Note_on_c, 10, 75, 0
13, 102720, Note_on_c, 10, 76, 52
13, 102839, Note_on_c, 10, 76, 0
13, 105120, Note_on_c, 10, 75, 52
13, 105239, Note_on_c, 10, 75, 0
13, 105300, Note_on_c, 10, 76, 52
13, 105359, Note_on_c, 10, 76, 0
13, 105360, Note_on_c, 10, 78, 52
13, 105479, Note_on_c, 10, 78, 0
13, 105540, Note_on_c, 10, 75, 52
13, 105599, Note_on_c, 10, 75, 0
13, 105600, Note_on_c, 10, 76, 52
13, 105771, Note_on_c, 10, 76, 0
13, 105780, Note_on_c, 10, 75, 52
13, 105824, Note_on_c, 10, 75, 0
13, 105840, Note_on_c, 10, 76, 76
13, 106071, Note_on_c, 10, 76, 0
13, 106080, Note_on_c, 10, 75, 52
13, 106251, Note_on_c, 10, 75, 0
13, 106260, Note_on_c, 10, 73, 52
13, 106304, Note_on_c, 10, 73, 0
13, 106320, Note_on_c, 10, 75, 76
13, 106551, Note_on_c, 10, 75, 0
13, 106560, Note_on_c, 10, 73, 52
13, 106731, Note_on_c, 10, 73, 0
13, 106740, Note_on_c, 10, 72, 52
13, 106784, Note_on_c, 10, 72, 0
13, 106800, Note_on_c, 10, 73, 76
13, 107031, Note_on_c, 10, 73, 0
13, 107040, Note_on_c, 10, 75, 52
13, 107211, Note_on_c, 10, 75, 0
13, 107220, Note_on_c, 10, 73, 52
13, 107264, Note_on_c, 10, 73, 0
13, 107280, Note_on_c, 10, 75, 76
13, 107511, Note_on_c, 10, 75, 0
13, 107520, Note_on_c, 10, 76, 52
13, 107639, Note_on_c, 10, 76, 0
13, 109620, Note_on_c, 10, 79, 53
13, 109679, Note_on_c, 10, 79, 0
13, 109680, Note_on_c, 10, 76, 53
13, 109799, Note_on_c, 10, 76, 0
13, 109860, Note_on_c, 10, 73, 54
13, 109919, Note_on_c, 10, 73, 0
13, 109920, Note_on_c, 10, 69, 54
13, 110039, Note_on_c, 10, 69, 0
13, 111840, Note_on_c, 10, 78, 65
13, 111959, Note_on_c, 10, 78, 0
13, 112020, Note_on_c, 10, 81, 66
13, 112079, Note_on_c, 10, 81, 0
13, 112080, Note_on_c, 10, 86, 66
13, 112199, Note_on_c, 10, 86, 0
13, 112260, Note_on_c, 10, 81, 67
13, 112319, Note_on_c, 10, 81, 0
13, 112320, Note_on_c, 10, 79, 68
13, 112439, Note_on_c, 10, 79, 0
13, 112500, Note_on_c, 10, 79, 69
13, 112559, Note_on_c, 10, 79, 0
13, 112560, Note_on_c, 10, 76, 69
13, 112679, Note_on_c, 10, 76, 0
13, 112740, Note_on_c, 10, 73, 70
13, 112799, Note_on_c, 10, 73, 0
13, 112800, Note_on_c, 10, 69, 70
13, 112919, Note_on_c, 10, 69, 0
13, 114720, Note_on_c, 10, 78, 81
13, 114839, Note_on_c, 10, 78, 0
13, 114900, Note_on_c, 10, 81, 82
13, 114959, Note_on_c, 10, 81, 0
13, 114960, Note_on_c, 10, 86, 82
13, 115079, Note_on_c, 10, 86, 0
13, 115140, Note_on_c, 10, 90, 83
13, 115191, Note_on_c, 10, 90, 0
13, 115200, Note_on_c, 10, 90, 84
13, 115251, Note_on_c, 10, 90, 0
13, 115260, Note_on_c, 10, 90, 84
13, 115311, Note_on_c, 10, 90, 0
13, 115320, Note_on_c, 10, 90, 84
13, 115371, Note_on_c, 10, 90, 0
13, 115380, Note_on_c, 10, 90, 84
13, 115431, Note_on_c, 10, 90, 0
13, 115440, Note_on_c, 10, 90, 84
13, 115491, Note_on_c, 10, 90, 0
13, 115500, Note_on_c, 10, 90, 84
13, 115551, Note_on_c, 10, 90, 0
13, 115560, Note_on_c, 10, 90, 84
13, 115611, Note_on_c, 10, 90, 0
13, 115620, Note_on_c, 10, 90, 84
13, 115671, Note_on_c, 10, 90, 0
13, 115680, Note_on_c, 10, 90, 84
13, 115731, Note_on_c, 10, 90, 0
13, 115740, Note_on_c, 10, 90, 84
13, 115791, Note_on_c, 10, 90, 0
13, 115800, Note_on_c, 10, 90, 84
13, 115851, Note_on_c, 10, 90, 0
13, 115860, Note_on_c, 10, 90, 84
13, 115911, Note_on_c, 10, 90, 0
13, 115920, Note_on_c, 10, 90, 84
13, 115971, Note_on_c, 10, 90, 0
13, 115980, Note_on_c, 10, 90, 84
13, 116031, Note_on_c, 10, 90, 0
13, 116040, Note_on_c, 10, 90, 84
13, 116091, Note_on_c, 10, 90, 0
13, 116100, Note_on_c, 10, 90, 84
13, 116151, Note_on_c, 10, 90, 0
13, 116160, Note_on_c, 10, 88, 92
13, 116211, Note_on_c, 10, 88, 0
13, 116220, Note_on_c, 10, 88, 84
13, 116271, Note_on_c, 10, 88, 0
13, 116280, Note_on_c, 10, 88, 84
13, 116331, Note_on_c, 10, 88, 0
13, 116340, Note_on_c, 10, 88, 84
13, 116391, Note_on_c, 10, 88, 0
13, 116400, Note_on_c, 10, 88, 84
13, 116451, Note_on_c, 10, 88, 0
13, 116460, Note_on_c, 10, 88, 84
13, 116511, Note_on_c, 10, 88, 0
13, 116520, Note_on_c, 10, 88, 84
13, 116571, Note_on_c, 10, 88, 0
13, 116580, Note_on_c, 10, 88, 84
13, 116631, Note_on_c, 10, 88, 0
13, 116640, Note_on_c, 10, 90, 92
13, 116691, Note_on_c, 10, 90, 0
13, 116700, Note_on_c, 10, 90, 84
13, 116751, Note_on_c, 10, 90, 0
13, 116760, Note_on_c, 10, 90, 84
13, 116811, Note_on_c, 10, 90, 0
13, 116820, Note_on_c, 10, 90, 84
13, 116871, Note_on_c, 10, 90, 0
13, 116880, Note_on_c, 10, 90, 84
13, 116931, Note_on_c, 10, 90, 0
13, 116940, Note_on_c, 10, 90, 84
13, 116991, Note_on_c, 10, 90, 0
13, 117000, Note_on_c, 10, 90, 84
13, 117051, Note_on_c, 10, 90, 0
13, 117060, Note_on_c, 10, 90, 84
13, 117111, Note_on_c, 10, 90, 0
13, 117120, Note_on_c, 10, 88, 92
13, 117171, Note_on_c, 10, 88, 0
13, 117180, Note_on_c, 10, 88, 84
13, 117231, Note_on_c, 10, 88, 0
13, 117240, Note_on_c, 10, 88, 84
13, 117291, Note_on_c, 10, 88, 0
13, 117300, Note_on_c, 10, 88, 84
13, 117351, Note_on_c, 10, 88, 0
13, 117360, Note_on_c, 10, 88, 84
13, 117411, Note_on_c, 10, 88, 0
13, 117420, Note_on_c, 10, 88, 84
13, 117471, Note_on_c, 10, 88, 0
13, 117480, Note_on_c, 10, 88, 84
13, 117531, Note_on_c, 10, 88, 0
13, 117540, Note_on_c, 10, 88, 84
13, 117591, Note_on_c, 10, 88, 0
13, 117600, Note_on_c, 10, 90, 92
13, 117651, Note_on_c, 10, 90, 0
13, 117660, Note_on_c, 10, 90, 84
13, 117711, Note_on_c, 10, 90, 0
13, 117720, Note_on_c, 10, 90, 84
13, 117771, Note_on_c, 10, 90, 0
13, 117780, Note_on_c, 10, 90, 84
13, 117831, Note_on_c, 10, 90, 0
13, 117840, Note_on_c, 10, 90, 84
13, 117891, Note_on_c, 10, 90, 0
13, 117900, Note_on_c, 10, 90, 84
13, 117951, Note_on_c, 10, 90, 0
13, 117960, Note_on_c, 10, 90, 84
13, 118011, Note_on_c, 10, 90, 0
13, 118020, Note_on_c, 10, 90, 84
13, 118071, Note_on_c, 10, 90, 0
13, 118080, Note_on_c, 10, 88, 92
13, 118131, Note_on_c, 10, 88, 0
13, 118140, Note_on_c, 10, 88, 84
13, 118191, Note_on_c, 10, 88, 0
13, 118200, Note_on_c, 10, 88, 84
13, 118251, Note_on_c, 10, 88, 0
13, 118260, Note_on_c, 10, 88, 84
13, 118311, Note_on_c, 10, 88, 0
13, 118320, Note_on_c, 10, 88, 84
13, 118371, Note_on_c, 10, 88, 0
13, 118380, Note_on_c, 10, 88, 84
13, 118431, Note_on_c, 10, 88, 0
13, 118440, Note_on_c, 10, 88, 84
13, 118491, Note_on_c, 10, 88, 0
13, 118500, Note_on_c, 10, 88, 84
13, 118551, Note_on_c, 10, 88, 0
13, 118560, Note_on_c, 10, 90, 92
13, 118611, Note_on_c, 10, 90, 0
13, 118620, Note_on_c, 10, 90, 84
13, 118671, Note_on_c, 10, 90, 0
13, 118680, Note_on_c, 10, 90, 84
13, 118731, Note_on_c, 10, 90, 0
13, 118740, Note_on_c, 10, 90, 84
13, 118791, Note_on_c, 10, 90, 0
13, 118800, Note_on_c, 10, 90, 84
13, 118851, Note_on_c, 10, 90, 0
13, 118860, Note_on_c, 10, 90, 84
13, 118911, Note_on_c, 10, 90, 0
13, 118920, Note_on_c, 10, 90, 84
13, 118971, Note_on_c, 10, 90, 0
13, 118980, Note_on_c, 10, 90, 84
13, 119031, Note_on_c, 10, 90, 0
13, 119040, Note_on_c, 10, 88, 92
13, 119091, Note_on_c, 10, 88, 0
13, 119100, Note_on_c, 10, 88, 84
13, 119151, Note_on_c, 10, 88, 0
13, 119160, Note_on_c, 10, 88, 84
13, 119211, Note_on_c, 10, 88, 0
13, 119220, Note_on_c, 10, 88, 84
13, 119271, Note_on_c, 10, 88, 0
13, 119280, Note_on_c, 10, 88, 84
13, 119331, Note_on_c, 10, 88, 0
13, 119340, Note_on_c, 10, 88, 84
13, 119391, Note_on_c, 10, 88, 0
13, 119400, Note_on_c, 10, 88, 84
13, 119451, Note_on_c, 10, 88, 0
13, 119460, Note_on_c, 10, 88, 84
13, 119511, Note_on_c, 10, 88, 0
13, 119520, Note_on_c, 10, 87, 92
13, 119571, Note_on_c, 10, 87, 0
13, 119580, Note_on_c, 10, 87, 84
13, 119631, Note_on_c, 10, 87, 0
13, 119640, Note_on_c, 10, 87, 84
13, 119691, Note_on_c, 10, 87, 0
13, 119700, Note_on_c, 10, 87, 84
13, 119751, Note_on_c, 10, 87, 0
13, 119760, Note_on_c, 10, 87, 84
13, 119811, Note_on_c, 10, 87, 0
13, 119820, Note_on_c, 10, 87, 84
13, 119871, Note_on_c, 10, 87, 0
13, 119880, Note_on_c, 10, 87, 84
13, 119931, Note_on_c, 10, 87, 0
13, 119940, Note_on_c, 10, 87, 84
13, 119991, Note_on_c, 10, 87, 0
13, 120000, Note_on_c, 10, 88, 84
13, 120051, Note_on_c, 10, 88, 0
13, 120060, Note_on_c, 10, 88, 84
13, 120111, Note_on_c, 10, 88, 0
13, 120120, Note_on_c, 10, 88, 84
13, 120171, Note_on_c, 10, 88, 0
13, 120180, Note_on_c, 10, 88, 84
13, 120231, Note_on_c, 10, 88, 0
13, 120240, Note_on_c, 10, 87, 92
13, 120291, Note_on_c, 10, 87, 0
13, 120300, Note_on_c, 10, 87, 84
13, 120351, Note_on_c, 10, 87, 0
13, 120360, Note_on_c, 10, 87, 84
13, 120411, Note_on_c, 10, 87, 0
13, 120420, Note_on_c, 10, 87, 84
13, 120471, Note_on_c, 10, 87, 0
13, 120480, Note_on_c, 10, 87, 84
13, 120531, Note_on_c, 10, 87, 0
13, 120540, Note_on_c, 10, 87, 84
13, 120591, Note_on_c, 10, 87, 0
13, 120600, Note_on_c, 10, 87, 84
13, 120651, Note_on_c, 10, 87, 0
13, 120660, Note_on_c, 10, 87, 84
13, 120711, Note_on_c, 10, 87, 0
13, 120720, Note_on_c, 10, 87, 84
13, 120771, Note_on_c, 10, 87, 0
13, 120780, Note_on_c, 10, 87, 84
13, 120831, Note_on_c, 10, 87, 0
13, 120840, Note_on_c, 10, 87, 84
13, 120891, Note_on_c, 10, 87, 0
13, 120900, Note_on_c, 10, 87, 84
13, 120951, Note_on_c, 10, 87, 0
13, 120960, Note_on_c, 10, 88, 84
13, 121011, Note_on_c, 10, 88, 0
13, 121020, Note_on_c, 10, 88, 84
13, 121071, Note_on_c, 10, 88, 0
13, 121080, Note_on_c, 10, 88, 84
13, 121131, Note_on_c, 10, 88, 0
13, 121140, Note_on_c, 10, 88, 84
13, 121191, Note_on_c, 10, 88, 0
13, 121200, Note_on_c, 10, 87, 92
13, 121251, Note_on_c, 10, 87, 0
13, 121260, Note_on_c, 10, 87, 84
13, 121311, Note_on_c, 10, 87, 0
13, 121320, Note_on_c, 10, 87, 84
13, 121371, Note_on_c, 10, 87, 0
13, 121380, Note_on_c, 10, 87, 84
13, 121431, Note_on_c, 10, 87, 0
13, 121440, Note_on_c, 10, 87, 84
13, 121491, Note_on_c, 10, 87, 0
13, 121500, Note_on_c, 10, 87, 84
13, 121551, Note_on_c, 10, 87, 0
13, 121560, Note_on_c, 10, 87, 84
13, 121611, Note_on_c, 10, 87, 0
13, 121620, Note_on_c, 10, 87, 84
13, 121671, Note_on_c, 10, 87, 0
13, 121680, Note_on_c, 10, 87, 84
13, 121731, Note_on_c, 10, 87, 0
13, 121740, Note_on_c, 10, 87, 84
13, 121791, Note_on_c, 10, 87, 0
13, 121800, Note_on_c, 10, 87, 84
13, 121851, Note_on_c, 10, 87, 0
13, 121860, Note_on_c, 10, 87, 84
13, 121911, Note_on_c, 10, 87, 0
13, 121920, Note_on_c, 10, 88, 84
13, 121971, Note_on_c, 10, 88, 0
13, 121980, Note_on_c, 10, 88, 84
13, 122031, Note_on_c, 10, 88, 0
13, 122040, Note_on_c, 10, 88, 84
13, 122091, Note_on_c, 10, 88, 0
13, 122100, Note_on_c, 10, 88, 84
13, 122151, Note_on_c, 10, 88, 0
13, 122160, Note_on_c, 10, 87, 92
13, 122211, Note_on_c, 10, 87, 0
13, 122220, Note_on_c, 10, 87, 84
13, 122271, Note_on_c, 10, 87, 0
13, 122280, Note_on_c, 10, 87, 84
13, 122331, Note_on_c, 10, 87, 0
13, 122340, Note_on_c, 10, 87, 84
13, 122391, Note_on_c, 10, 87, 0
13, 122400, Note_on_c, 10, 88, 84
13, 122451, Note_on_c, 10, 88, 0
13, 122460, Note_on_c, 10, 88, 84
13, 122511, Note_on_c, 10, 88, 0
13, 122520, Note_on_c, 10, 88, 84
13, 122571, Note_on_c, 10, 88, 0
13, 122580, Note_on_c, 10, 88, 84
13, 122631, Note_on_c, 10, 88, 0
13, 122640, Note_on_c, 10, 87, 92
13, 122691, Note_on_c, 10, 87, 0
13, 122700, Note_on_c, 10, 87, 84
13, 122751, Note_on_c, 10, 87, 0
13, 122760, Note_on_c, 10, 87, 84
13, 122811, Note_on_c, 10, 87, 0
13, 122820, Note_on_c, 10, 87, 84
13, 122871, Note_on_c, 10, 87, 0
13, 122880, Note_on_c, 10, 88, 84
13, 122931, Note_on_c, 10, 88, 0
13, 122940, Note_on_c, 10, 88, 84
13, 122991, Note_on_c, 10, 88, 0
13, 123000, Note_on_c, 10, 88, 84
13, 123051, Note_on_c, 10, 88, 0
13, 123060, Note_on_c, 10, 88, 84
13, 123111, Note_on_c, 10, 88, 0
13, 123120, Note_on_c, 10, 87, 92
13, 123171, Note_on_c, 10, 87, 0
13, 123180, Note_on_c, 10, 87, 84
13, 123231, Note_on_c, 10, 87, 0
13, 123240, Note_on_c, 10, 87, 84
13, 123291, Note_on_c, 10, 87, 0
13, 123300, Note_on_c, 10, 87, 84
13, 123351, Note_on_c, 10, 87, 0
13, 123360, Note_on_c, 10, 88, 84
13, 123411, Note_on_c, 10, 88, 0
13, 123420, Note_on_c, 10, 88, 84
13, 123471, Note_on_c, 10, 88, 0
13, 123480, Note_on_c, 10, 88, 84
13, 123531, Note_on_c, 10, 88, 0
13, 123540, Note_on_c, 10, 88, 84
13, 123591, Note_on_c, 10, 88, 0
13, 123600, Note_on_c, 10, 88, 84
13, 123651, Note_on_c, 10, 88, 0
13, 123660, Note_on_c, 10, 88, 84
13, 123711, Note_on_c, 10, 88, 0
13, 123720, Note_on_c, 10, 88, 84
13, 123771, Note_on_c, 10, 88, 0
13, 123780, Note_on_c, 10, 88, 84
13, 123831, Note_on_c, 10, 88, 0
13, 123840, Note_on_c, 10, 88, 84
13, 123840, Note_on_c, 10, 76, 84
13, 123959, Note_on_c, 10, 88, 0
13, 123959, Note_on_c, 10, 76, 0
13, 124800, Note_on_c, 10, 88, 84
13, 124800, Note_on_c, 10, 76, 84
13, 124919, Note_on_c, 10, 88, 0
13, 124919, Note_on_c, 10, 76, 0
13, 125760, Note_on_c, 10, 67, 84
13, 125849, Note_on_c, 10, 67, 0
13, 125880, Note_on_c, 10, 67, 84
13, 125939, Note_on_c, 10, 67, 0
13, 125940, Note_on_c, 10, 69, 84
13, 125999, Note_on_c, 10, 69, 0
13, 126000, Note_on_c, 10, 72, 92
13, 126059, Note_on_c, 10, 72, 0
13, 126060, Note_on_c, 10, 70, 84
13, 126119, Note_on_c, 10, 70, 0
13, 126120, Note_on_c, 10, 69, 84
13, 126179, Note_on_c, 10, 69, 0
13, 126180, Note_on_c, 10, 67, 84
13, 126231, Note_on_c, 10, 67, 0
13, 126240, Note_on_c, 10, 69, 84
13, 126329, Note_on_c, 10, 69, 0
13, 126360, Note_on_c, 10, 69, 84
13, 126419, Note_on_c, 10, 69, 0
13, 126420, Note_on_c, 10, 70, 84
13, 126479, Note_on_c, 10, 70, 0
13, 126480, Note_on_c, 10, 74, 92
13, 126539, Note_on_c, 10, 74, 0
13, 126540, Note_on_c, 10, 72, 84
13, 126599, Note_on_c, 10, 72, 0
13, 126600, Note_on_c, 10, 70, 84
13, 126659, Note_on_c, 10, 70, 0
13, 126660, Note_on_c, 10, 69, 84
13, 126711, Note_on_c, 10, 69, 0
13, 126720, Note_on_c, 10, 67, 84
13, 126809, Note_on_c, 10, 67, 0
13, 126840, Note_on_c, 10, 67, 84
13, 126899, Note_on_c, 10, 67, 0
13, 126900, Note_on_c, 10, 69, 84
13, 126959, Note_on_c, 10, 69, 0
13, 126960, Note_on_c, 10, 72, 92
13, 127019, Note_on_c, 10, 72, 0
13, 127020, Note_on_c, 10, 70, 84
13, 127079, Note_on_c, 10, 70, 0
13, 127080, Note_on_c, 10, 69, 84
13, 127139, Note_on_c, 10, 69, 0
13, 127140, Note_on_c, 10, 67, 84
13, 127191, Note_on_c, 10, 67, 0
13, 127200, Note_on_c, 10, 69, 84
13, 127379, Note_on_c, 10, 69, 0
13, 127380, Note_on_c, 10, 77, 84
13, 127431, Note_on_c, 10, 77, 0
13, 127440, Note_on_c, 10, 77, 92
13, 127679, Note_on_c, 10, 77, 0
13, 127680, Note_on_c, 10, 77, 84
13, 128144, Note_on_c, 10, 77, 0
13, 128160, Note_on_c, 10, 76, 84
13, 128279, Note_on_c, 10, 76, 0
13, 129120, Note_on_c, 10, 71, 84
13, 129209, Note_on_c, 10, 71, 0
13, 129240, Note_on_c, 10, 71, 84
13, 129299, Note_on_c, 10, 71, 0
13, 129300, Note_on_c, 10, 72, 84
13, 129359, Note_on_c, 10, 72, 0
13, 129360, Note_on_c, 10, 76, 92
13, 129419, Note_on_c, 10, 76, 0
13, 129420, Note_on_c, 10, 74, 84
13, 129479, Note_on_c, 10, 74, 0
13, 129480, Note_on_c, 10, 72, 84
13, 129539, Note_on_c, 10, 72, 0
13, 129540, Note_on_c, 10, 71, 84
13, 129591, Note_on_c, 10, 71, 0
13, 129600, Note_on_c, 10, 72, 84
13, 129689, Note_on_c, 10, 72, 0
13, 129720, Note_on_c, 10, 72, 84
13, 129779, Note_on_c, 10, 72, 0
13, 129780, Note_on_c, 10, 74, 84
13, 129839, Note_on_c, 10, 74, 0
13, 129840, Note_on_c, 10, 77, 92
13, 129899, Note_on_c, 10, 77, 0
13, 129900, Note_on_c, 10, 76, 84
13, 129959, Note_on_c, 10, 76, 0
13, 129960, Note_on_c, 10, 74, 84
13, 130019, Note_on_c, 10, 74, 0
13, 130020, Note_on_c, 10, 72, 84
13, 130071, Note_on_c, 10, 72, 0
13, 130080, Note_on_c, 10, 71, 84
13, 130169, Note_on_c, 10, 71, 0
13, 130200, Note_on_c, 10, 71, 84
13, 130259, Note_on_c, 10, 71, 0
13, 130260, Note_on_c, 10, 72, 84
13, 130319, Note_on_c, 10, 72, 0
13, 130320, Note_on_c, 10, 76, 92
13, 130379, Note_on_c, 10, 76, 0
13, 130380, Note_on_c, 10, 74, 84
13, 130439, Note_on_c, 10, 74, 0
13, 130440, Note_on_c, 10, 72, 84
13, 130499, Note_on_c, 10, 72, 0
13, 130500, Note_on_c, 10, 71, 84
13, 130551, Note_on_c, 10, 71, 0
13, 130560, Note_on_c, 10, 72, 84
13, 130739, Note_on_c, 10, 72, 0
13, 130740, Note_on_c, 10, 81, 84
13, 130791, Note_on_c, 10, 81, 0
13, 130800, Note_on_c, 10, 81, 92
13, 131039, Note_on_c, 10, 81, 0
13, 131040, Note_on_c, 10, 81, 84
13, 131504, Note_on_c, 10, 81, 0
13, 131520, Note_on_c, 10, 78, 84
13, 131639, Note_on_c, 10, 78, 0
13, 132480, Note_on_c, 10, 70, 84
13, 132659, Note_on_c, 10, 70, 0
13, 132660, Note_on_c, 10, 79, 84
13, 132711, Note_on_c, 10, 79, 0
13, 132720, Note_on_c, 10, 79, 92
13, 132959, Note_on_c, 10, 79, 0
13, 132960, Note_on_c, 10, 79, 84
13, 133424, Note_on_c, 10, 79, 0
13, 133440, Note_on_c, 10, 76, 84
13, 133559, Note_on_c, 10, 76, 0
13, 134400, Note_on_c, 10, 68, 84
13, 134579, Note_on_c, 10, 68, 0
13, 134580, Note_on_c, 10, 77, 84
13, 134631, Note_on_c, 10, 77, 0
13, 134640, Note_on_c, 10, 77, 92
13, 134879, Note_on_c, 10, 77, 0
13, 134880, Note_on_c, 10, 77, 84
13, 135464, Note_on_c, 10, 77, 0
13, 135480, Note_on_c, 10, 74, 84
13, 135539, Note_on_c, 10, 74, 0
13, 135540, Note_on_c, 10, 76, 84
13, 135599, Note_on_c, 10, 76, 0
13, 135600, Note_on_c, 10, 79, 92
13, 135659, Note_on_c, 10, 79, 0
13, 135660, Note_on_c, 10, 77, 84
13, 135719, Note_on_c, 10, 77, 0
13, 135720, Note_on_c, 10, 76, 84
13, 135779, Note_on_c, 10, 76, 0
13, 135780, Note_on_c, 10, 74, 84
13, 135831, Note_on_c, 10, 74, 0
13, 135840, Note_on_c, 10, 76, 84
13, 135929, Note_on_c, 10, 76, 0
13, 135960, Note_on_c, 10, 76, 84
13, 136019, Note_on_c, 10, 76, 0
13, 136020, Note_on_c, 10, 77, 84
13, 136079, Note_on_c, 10, 77, 0
13, 136080, Note_on_c, 10, 81, 92
13, 136139, Note_on_c, 10, 81, 0
13, 136140, Note_on_c, 10, 79, 84
13, 136199, Note_on_c, 10, 79, 0
13, 136200, Note_on_c, 10, 77, 84
13, 136259, Note_on_c, 10, 77, 0
13, 136260, Note_on_c, 10, 76, 84
13, 136311, Note_on_c, 10, 76, 0
13, 136320, Note_on_c, 10, 74, 84
13, 136409, Note_on_c, 10, 74, 0
13, 136440, Note_on_c, 10, 74, 84
13, 136499, Note_on_c, 10, 74, 0
13, 136500, Note_on_c, 10, 76, 84
13, 136559, Note_on_c, 10, 76, 0
13, 136560, Note_on_c, 10, 79, 92
13, 136619, Note_on_c, 10, 79, 0
13, 136620, Note_on_c, 10, 77, 84
13, 136679, Note_on_c, 10, 77, 0
13, 136680, Note_on_c, 10, 76, 84
13, 136739, Note_on_c, 10, 76, 0
13, 136740, Note_on_c, 10, 74, 84
13, 136791, Note_on_c, 10, 74, 0
13, 136800, Note_on_c, 10, 76, 84
13, 136979, Note_on_c, 10, 76, 0
13, 136980, Note_on_c, 10, 84, 84
13, 137031, Note_on_c, 10, 84, 0
13, 137040, Note_on_c, 10, 84, 92
13, 137099, Note_on_c, 10, 84, 0
13, 137100, Note_on_c, 10, 84, 84
13, 137384, Note_on_c, 10, 84, 0
13, 137400, Note_on_c, 10, 74, 84
13, 137459, Note_on_c, 10, 74, 0
13, 137460, Note_on_c, 10, 76, 84
13, 137519, Note_on_c, 10, 76, 0
13, 137520, Note_on_c, 10, 79, 92
13, 137579, Note_on_c, 10, 79, 0
13, 137580, Note_on_c, 10, 77, 84
13, 137639, Note_on_c, 10, 77, 0
13, 137640, Note_on_c, 10, 76, 84
13, 137699, Note_on_c, 10, 76, 0
13, 137700, Note_on_c, 10, 74, 84
13, 137751, Note_on_c, 10, 74, 0
13, 137760, Note_on_c, 10, 76, 84
13, 137849, Note_on_c, 10, 76, 0
13, 137880, Note_on_c, 10, 76, 84
13, 137939, Note_on_c, 10, 76, 0
13, 137940, Note_on_c, 10, 77, 84
13, 137999, Note_on_c, 10, 77, 0
13, 138000, Note_on_c, 10, 81, 92
13, 138059, Note_on_c, 10, 81, 0
13, 138060, Note_on_c, 10, 79, 84
13, 138119, Note_on_c, 10, 79, 0
13, 138120, Note_on_c, 10, 77, 84
13, 138179, Note_on_c, 10, 77, 0
13, 138180, Note_on_c, 10, 76, 84
13, 138231, Note_on_c, 10, 76, 0
13, 138240, Note_on_c, 10, 74, 84
13, 138329, Note_on_c, 10, 74, 0
13, 138360, Note_on_c, 10, 74, 84
13, 138419, Note_on_c, 10, 74, 0
13, 138420, Note_on_c, 10, 76, 84
13, 138479, Note_on_c, 10, 76, 0
13, 138480, Note_on_c, 10, 79, 92
13, 138539, Note_on_c, 10, 79, 0
13, 138540, Note_on_c, 10, 77, 84
13, 138599, Note_on_c, 10, 77, 0
13, 138600, Note_on_c, 10, 76, 84
13, 138659, Note_on_c, 10, 76, 0
13, 138660, Note_on_c, 10, 74, 84
13, 138711, Note_on_c, 10, 74, 0
13, 138720, Note_on_c, 10, 72, 84
13, 138720, Note_on_c, 10, 64, 84
13, 138720, Note_on_c, 10, 55, 84
13, 138839, Note_on_c, 10, 72, 0
13, 138839, Note_on_c, 10, 64, 0
13, 138839, Note_on_c, 10, 55, 0
13, 139200, Note_on_c, 10, 74, 84
13, 139289, Note_on_c, 10, 74, 0
13, 139320, Note_on_c, 10, 74, 84
13, 139379, Note_on_c, 10, 74, 0
13, 139380, Note_on_c, 10, 76, 84
13, 139439, Note_on_c, 10, 76, 0
13, 139440, Note_on_c, 10, 79, 92
13, 139499, Note_on_c, 10, 79, 0
13, 139500, Note_on_c, 10, 77, 84
13, 139559, Note_on_c, 10, 77, 0
13, 139560, Note_on_c, 10, 76, 84
13, 139619, Note_on_c, 10, 76, 0
13, 139620, Note_on_c, 10, 74, 84
13, 139671, Note_on_c, 10, 74, 0
13, 139680, Note_on_c, 10, 76, 84
13, 139769, Note_on_c, 10, 76, 0
13, 139800, Note_on_c, 10, 76, 84
13, 139859, Note_on_c, 10, 76, 0
13, 139860, Note_on_c, 10, 77, 84
13, 139919, Note_on_c, 10, 77, 0
13, 139920, Note_on_c, 10, 81, 92
13, 139979, Note_on_c, 10, 81, 0
13, 139980, Note_on_c, 10, 79, 84
13, 140039, Note_on_c, 10, 79, 0
13, 140040, Note_on_c, 10, 77, 84
13, 140099, Note_on_c, 10, 77, 0
13, 140100, Note_on_c, 10, 76, 84
13, 140151, Note_on_c, 10, 76, 0
13, 140160, Note_on_c, 10, 74, 84
13, 140249, Note_on_c, 10, 74, 0
13, 140280, Note_on_c, 10, 74, 84
13, 140339, Note_on_c, 10, 74, 0
13, 140340, Note_on_c, 10, 76, 84
13, 140399, Note_on_c, 10, 76, 0
13, 140400, Note_on_c, 10, 79, 92
13, 140459, Note_on_c, 10, 79, 0
13, 140460, Note_on_c, 10, 77, 84
13, 140519, Note_on_c, 10, 77, 0
13, 140520, Note_on_c, 10, 76, 84
13, 140579, Note_on_c, 10, 76, 0
13, 140580, Note_on_c, 10, 74, 84
13, 140631, Note_on_c, 10, 74, 0
13, 140640, Note_on_c, 10, 76, 84
13, 140819, Note_on_c, 10, 76, 0
13, 140820, Note_on_c, 10, 84, 84
13, 140871, Note_on_c, 10, 84, 0
13, 140880, Note_on_c, 10, 84, 92
13, 140939, Note_on_c, 10, 84, 0
13, 140940, Note_on_c, 10, 84, 84
13, 141224, Note_on_c, 10, 84, 0
13, 141240, Note_on_c, 10, 74, 84
13, 141299, Note_on_c, 10, 74, 0
13, 141300, Note_on_c, 10, 76, 84
13, 141359, Note_on_c, 10, 76, 0
13, 141360, Note_on_c, 10, 79, 92
13, 141419, Note_on_c, 10, 79, 0
13, 141420, Note_on_c, 10, 77, 84
13, 141479, Note_on_c, 10, 77, 0
13, 141480, Note_on_c, 10, 76, 84
13, 141539, Note_on_c, 10, 76, 0
13, 141540, Note_on_c, 10, 74, 84
13, 141591, Note_on_c, 10, 74, 0
13, 141600, Note_on_c, 10, 76, 84
13, 141689, Note_on_c, 10, 76, 0
13, 141720, Note_on_c, 10, 76, 84
13, 141779, Note_on_c, 10, 76, 0
13, 141780, Note_on_c, 10, 77, 84
13, 141839, Note_on_c, 10, 77, 0
13, 141840, Note_on_c, 10, 81, 92
13, 141899, Note_on_c, 10, 81, 0
13, 141900, Note_on_c, 10, 79, 84
13, 141959, Note_on_c, 10, 79, 0
13, 141960, Note_on_c, 10, 77, 84
13, 142019, Note_on_c, 10, 77, 0
13, 142020, Note_on_c, 10, 76, 84
13, 142071, Note_on_c, 10, 76, 0
13, 142080, Note_on_c, 10, 74, 84
13, 142169, Note_on_c, 10, 74, 0
13, 142200, Note_on_c, 10, 74, 84
13, 142259, Note_on_c, 10, 74, 0
13, 142260, Note_on_c, 10, 76, 84
13, 142319, Note_on_c, 10, 76, 0
13, 142320, Note_on_c, 10, 79, 92
13, 142379, Note_on_c, 10, 79, 0
13, 142380, Note_on_c, 10, 77, 84
13, 142439, Note_on_c, 10, 77, 0
13, 142440, Note_on_c, 10, 76, 84
13, 142499, Note_on_c, 10, 76, 0
13, 142500, Note_on_c, 10, 74, 84
13, 142551, Note_on_c, 10, 74, 0
13, 142560, Note_on_c, 10, 72, 84
13, 142560, Note_on_c, 10, 55, 84
13, 142560, Note_on_c, 10, 64, 84
13, 142679, Note_on_c, 10, 72, 0
13, 142679, Note_on_c, 10, 55, 0
13, 142679, Note_on_c, 10, 64, 0
13, 143040, Note_on_c, 10, 81, 84
13, 143129, Note_on_c, 10, 81, 0
13, 143160, Note_on_c, 10, 81, 84
13, 143219, Note_on_c, 10, 81, 0
13, 143220, Note_on_c, 10, 83, 84
13, 143279, Note_on_c, 10, 83, 0
13, 143280, Note_on_c, 10, 86, 92
13, 143339, Note_on_c, 10, 86, 0
13, 143340, Note_on_c, 10, 84, 84
13, 143399, Note_on_c, 10, 84, 0
13, 143400, Note_on_c, 10, 83, 84
13, 143459, Note_on_c, 10, 83, 0
13, 143460, Note_on_c, 10, 81, 84
13, 143511, Note_on_c, 10, 81, 0
13, 143520, Note_on_c, 10, 79, 84
13, 143609, Note_on_c, 10, 79, 0
13, 143640, Note_on_c, 10, 79, 84
13, 143699, Note_on_c, 10, 79, 0
13, 143700, Note_on_c, 10, 81, 84
13, 143759, Note_on_c, 10, 81, 0
13, 143760, Note_on_c, 10, 84, 92
13, 143819, Note_on_c, 10, 84, 0
13, 143820, Note_on_c, 10, 83, 84
13, 143879, Note_on_c, 10, 83, 0
13, 143880, Note_on_c, 10, 81, 84
13, 143939, Note_on_c, 10, 81, 0
13, 143940, Note_on_c, 10, 79, 84
13, 143991, Note_on_c, 10, 79, 0
13, 144000, Note_on_c, 10, 81, 84
13, 144089, Note_on_c, 10, 81, 0
13, 144120, Note_on_c, 10, 81, 84
13, 144179, Note_on_c, 10, 81, 0
13, 144180, Note_on_c, 10, 83, 84
13, 144239, Note_on_c, 10, 83, 0
13, 144240, Note_on_c, 10, 86, 92
13, 144299, Note_on_c, 10, 86, 0
13, 144300, Note_on_c, 10, 84, 84
13, 144359, Note_on_c, 10, 84, 0
13, 144360, Note_on_c, 10, 82, 84
13, 144419, Note_on_c, 10, 82, 0
13, 144420, Note_on_c, 10, 81, 84
13, 144471, Note_on_c, 10, 81, 0
13, 144480, Note_on_c, 10, 81, 84
13, 144599, Note_on_c, 10, 81, 0
13, 144600, Note_on_c, 10, 80, 84
13, 144704, Note_on_c, 10, 80, 0
13, 144720, Note_on_c, 10, 79, 92
13, 144779, Note_on_c, 10, 79, 0
13, 144780, Note_on_c, 10, 79, 84
13, 144959, Note_on_c, 10, 79, 0
13, 144960, Note_on_c, 10, 78, 84
13, 145064, Note_on_c, 10, 78, 0
13, 145080, Note_on_c, 10, 77, 84
13, 145139, Note_on_c, 10, 77, 0
13, 145140, Note_on_c, 10, 79, 84
13, 145199, Note_on_c, 10, 79, 0
13, 145200, Note_on_c, 10, 83, 92
13, 145259, Note_on_c, 10, 83, 0
13, 145260, Note_on_c, 10, 81, 84
13, 145319, Note_on_c, 10, 81, 0
13, 145320, Note_on_c, 10, 79, 84
13, 145379, Note_on_c, 10, 79, 0
13, 145380, Note_on_c, 10, 77, 84
13, 145439, Note_on_c, 10, 77, 0
13, 145440, Note_on_c, 10, 76, 84
13, 145529, Note_on_c, 10, 76, 0
13, 145560, Note_on_c, 10, 76, 84
13, 145619, Note_on_c, 10, 76, 0
13, 145620, Note_on_c, 10, 77, 84
13, 145679, Note_on_c, 10, 77, 0
13, 145680, Note_on_c, 10, 81, 92
13, 145739, Note_on_c, 10, 81, 0
13, 145740, Note_on_c, 10, 79, 84
13, 145799, Note_on_c, 10, 79, 0
13, 145800, Note_on_c, 10, 77, 84
13, 145859, Note_on_c, 10, 77, 0
13, 145860, Note_on_c, 10, 76, 84
13, 145911, Note_on_c, 10, 76, 0
13, 145920, Note_on_c, 10, 74, 84
13, 146009, Note_on_c, 10, 74, 0
13, 146040, Note_on_c, 10, 74, 84
13, 146099, Note_on_c, 10, 74, 0
13, 146100, Note_on_c, 10, 76, 84
13, 146159, Note_on_c, 10, 76, 0
13, 146160, Note_on_c, 10, 79, 92
13, 146219, Note_on_c, 10, 79, 0
13, 146220, Note_on_c, 10, 77, 84
13, 146279, Note_on_c, 10, 77, 0
13, 146280, Note_on_c, 10, 76, 84
13, 146339, Note_on_c, 10, 76, 0
13, 146340, Note_on_c, 10, 74, 84
13, 146391, Note_on_c, 10, 74, 0
13, 146400, Note_on_c, 10, 67, 84
13, 146400, Note_on_c, 10, 76, 84
13, 146400, Note_on_c, 10, 84, 84
13, 146519, Note_on_c, 10, 67, 0
13, 146519, Note_on_c, 10, 76, 0
13, 146519, Note_on_c, 10, 84, 0
13, 146880, Note_on_c, 10, 81, 84
13, 146969, Note_on_c, 10, 81, 0
13, 147000, Note_on_c, 10, 81, 84
13, 147059, Note_on_c, 10, 81, 0
13, 147060, Note_on_c, 10, 83, 84
13, 147119, Note_on_c, 10, 83, 0
13, 147120, Note_on_c, 10, 86, 92
13, 147179, Note_on_c, 10, 86, 0
13, 147180, Note_on_c, 10, 84, 84
13, 147239, Note_on_c, 10, 84, 0
13, 147240, Note_on_c, 10, 83, 84
13, 147299, Note_on_c, 10, 83, 0
13, 147300, Note_on_c, 10, 81, 84
13, 147351, Note_on_c, 10, 81, 0
13, 147360, Note_on_c, 10, 79, 84
13, 147449, Note_on_c, 10, 79, 0
13, 147480, Note_on_c, 10, 79, 84
13, 147539, Note_on_c, 10, 79, 0
13, 147540, Note_on_c, 10, 81, 84
13, 147599, Note_on_c, 10, 81, 0
13, 147600, Note_on_c, 10, 84, 92
13, 147659, Note_on_c, 10, 84, 0
13, 147660, Note_on_c, 10, 83, 84
13, 147719, Note_on_c, 10, 83, 0
13, 147720, Note_on_c, 10, 81, 84
13, 147779, Note_on_c, 10, 81, 0
13, 147780, Note_on_c, 10, 79, 84
13, 147831, Note_on_c, 10, 79, 0
13, 147840, Note_on_c, 10, 81, 84
13, 147929, Note_on_c, 10, 81, 0
13, 147960, Note_on_c, 10, 81, 84
13, 148019, Note_on_c, 10, 81, 0
13, 148020, Note_on_c, 10, 83, 84
13, 148079, Note_on_c, 10, 83, 0
13, 148080, Note_on_c, 10, 86, 92
13, 148139, Note_on_c, 10, 86, 0
13, 148140, Note_on_c, 10, 84, 84
13, 148199, Note_on_c, 10, 84, 0
13, 148200, Note_on_c, 10, 82, 84
13, 148259, Note_on_c, 10, 82, 0
13, 148260, Note_on_c, 10, 81, 84
13, 148311, Note_on_c, 10, 81, 0
13, 148320, Note_on_c, 10, 81, 84
13, 148439, Note_on_c, 10, 81, 0
13, 148440, Note_on_c, 10, 80, 84
13, 148544, Note_on_c, 10, 80, 0
13, 148560, Note_on_c, 10, 79, 92
13, 148619, Note_on_c, 10, 79, 0
13, 148620, Note_on_c, 10, 79, 84
13, 148799, Note_on_c, 10, 79, 0
13, 148800, Note_on_c, 10, 78, 84
13, 148904, Note_on_c, 10, 78, 0
13, 148920, Note_on_c, 10, 77, 84
13, 148979, Note_on_c, 10, 77, 0
13, 148980, Note_on_c, 10, 79, 84
13, 149039, Note_on_c, 10, 79, 0
13, 149040, Note_on_c, 10, 83, 92
13, 149099, Note_on_c, 10, 83, 0
13, 149100, Note_on_c, 10, 81, 84
13, 149159, Note_on_c, 10, 81, 0
13, 149160, Note_on_c, 10, 79, 84
13, 149219, Note_on_c, 10, 79, 0
13, 149220, Note_on_c, 10, 77, 84
13, 149279, Note_on_c, 10, 77, 0
13, 149280, Note_on_c, 10, 76, 84
13, 149369, Note_on_c, 10, 76, 0
13, 149400, Note_on_c, 10, 76, 84
13, 149459, Note_on_c, 10, 76, 0
13, 149460, Note_on_c, 10, 77, 84
13, 149519, Note_on_c, 10, 77, 0
13, 149520, Note_on_c, 10, 81, 92
13, 149579, Note_on_c, 10, 81, 0
13, 149580, Note_on_c, 10, 79, 84
13, 149639, Note_on_c, 10, 79, 0
13, 149640, Note_on_c, 10, 77, 84
13, 149699, Note_on_c, 10, 77, 0
13, 149700, Note_on_c, 10, 76, 84
13, 149751, Note_on_c, 10, 76, 0
13, 149760, Note_on_c, 10, 74, 84
13, 149849, Note_on_c, 10, 74, 0
13, 149880, Note_on_c, 10, 74, 84
13, 149939, Note_on_c, 10, 74, 0
13, 149940, Note_on_c, 10, 76, 84
13, 149999, Note_on_c, 10, 76, 0
13, 150000, Note_on_c, 10, 79, 92
13, 150059, Note_on_c, 10, 79, 0
13, 150060, Note_on_c, 10, 77, 84
13, 150119, Note_on_c, 10, 77, 0
13, 150120, Note_on_c, 10, 76, 84
13, 150179, Note_on_c, 10, 76, 0
13, 150180, Note_on_c, 10, 74, 84
13, 150231, Note_on_c, 10, 74, 0
13, 150240, Note_on_c, 10, 67, 84
13, 150240, Note_on_c, 10, 76, 84
13, 150240, Note_on_c, 10, 84, 84
13, 150359, Note_on_c, 10, 67, 0
13, 150359, Note_on_c, 10, 76, 0
13, 150359, Note_on_c, 10, 84, 0
13, 150480, Note_on_c, 10, 81, 92
13, 150539, Note_on_c, 10, 81, 0
13, 150540, Note_on_c, 10, 81, 84
13, 150719, Note_on_c, 10, 81, 0
13, 150720, Note_on_c, 10, 86, 84
13, 150839, Note_on_c, 10, 86, 0
13, 150960, Note_on_c, 10, 79, 92
13, 151019, Note_on_c, 10, 79, 0
13, 151020, Note_on_c, 10, 79, 84
13, 151199, Note_on_c, 10, 79, 0
13, 151200, Note_on_c, 10, 84, 84
13, 151319, Note_on_c, 10, 84, 0
13, 151440, Note_on_c, 10, 76, 92
13, 151499, Note_on_c, 10, 76, 0
13, 151500, Note_on_c, 10, 76, 84
13, 151679, Note_on_c, 10, 76, 0
13, 151680, Note_on_c, 10, 79, 84
13, 151799, Note_on_c, 10, 79, 0
13, 151920, Note_on_c, 10, 71, 92
13, 151979, Note_on_c, 10, 71, 0
13, 151980, Note_on_c, 10, 71, 84
13, 152159, Note_on_c, 10, 71, 0
13, 152160, Note_on_c, 10, 72, 84
13, 152264, Note_on_c, 10, 72, 0
13, 152280, Note_on_c, 10, 84, 84
13, 152331, Note_on_c, 10, 84, 0
13, 152340, Note_on_c, 10, 84, 84
13, 152391, Note_on_c, 10, 84, 0
13, 152400, Note_on_c, 10, 84, 84
13, 152519, Note_on_c, 10, 84, 0
13, 152760, Note_on_c, 10, 77, 84
13, 152811, Note_on_c, 10, 77, 0
13, 152820, Note_on_c, 10, 77, 84
13, 152871, Note_on_c, 10, 77, 0
13, 152880, Note_on_c, 10, 77, 84
13, 152999, Note_on_c, 10, 77, 0
13, 153240, Note_on_c, 10, 74, 84
13, 153291, Note_on_c, 10, 74, 0
13, 153300, Note_on_c, 10, 74, 84
13, 153351, Note_on_c, 10, 74, 0
13, 153360, Note_on_c, 10, 74, 84
13, 153479, Note_on_c, 10, 74, 0
13, 153720, Note_on_c, 10, 72, 84
13, 153771, Note_on_c, 10, 72, 0
13, 153780, Note_on_c, 10, 72, 84
13, 153831, Note_on_c, 10, 72, 0
13, 153840, Note_on_c, 10, 72, 84
13, 153959, Note_on_c, 10, 72, 0
13, 154080, Note_on_c, 10, 69, 84
13, 154199, Note_on_c, 10, 69, 0
13, 154320, Note_on_c, 10, 81, 92
13, 154379, Note_on_c, 10, 81, 0
13, 154380, Note_on_c, 10, 81, 84
13, 154559, Note_on_c, 10, 81, 0
13, 154560, Note_on_c, 10, 86, 84
13, 154679, Note_on_c, 10, 86, 0
13, 154800, Note_on_c, 10, 77, 92
13, 154859, Note_on_c, 10, 77, 0
13, 154860, Note_on_c, 10, 77, 84
13, 155039, Note_on_c, 10, 77, 0
13, 155040, Note_on_c, 10, 82, 84
13, 155159, Note_on_c, 10, 82, 0
13, 155280, Note_on_c, 10, 76, 92
13, 155339, Note_on_c, 10, 76, 0
13, 155340, Note_on_c, 10, 76, 84
13, 155519, Note_on_c, 10, 76, 0
13, 155520, Note_on_c, 10, 79, 84
13, 155639, Note_on_c, 10, 79, 0
13, 155760, Note_on_c, 10, 73, 92
13, 155819, Note_on_c, 10, 73, 0
13, 155820, Note_on_c, 10, 73, 84
13, 155999, Note_on_c, 10, 73, 0
13, 156000, Note_on_c, 10, 74, 84
13, 156104, Note_on_c, 10, 74, 0
13, 156120, Note_on_c, 10, 74, 84
13, 156120, Note_on_c, 10, 86, 84
13, 156171, Note_on_c, 10, 74, 0
13, 156171, Note_on_c, 10, 86, 0
13, 156180, Note_on_c, 10, 74, 84
13, 156180, Note_on_c, 10, 86, 84
13, 156231, Note_on_c, 10, 74, 0
13, 156231, Note_on_c, 10, 86, 0
13, 156240, Note_on_c, 10, 74, 84
13, 156240, Note_on_c, 10, 86, 84
13, 156359, Note_on_c, 10, 74, 0
13, 156359, Note_on_c, 10, 86, 0
13, 156600, Note_on_c, 10, 86, 84
13, 156600, Note_on_c, 10, 74, 84
13, 156651, Note_on_c, 10, 86, 0
13, 156651, Note_on_c, 10, 74, 0
13, 156660, Note_on_c, 10, 86, 84
13, 156660, Note_on_c, 10, 74, 84
13, 156711, Note_on_c, 10, 86, 0
13, 156711, Note_on_c, 10, 74, 0
13, 156720, Note_on_c, 10, 86, 84
13, 156720, Note_on_c, 10, 74, 84
13, 156839, Note_on_c, 10, 86, 0
13, 156839, Note_on_c, 10, 74, 0
13, 157080, Note_on_c, 10, 74, 84
13, 157080, Note_on_c, 10, 86, 84
13, 157131, Note_on_c, 10, 74, 0
13, 157131, Note_on_c, 10, 86, 0
13, 157140, Note_on_c, 10, 74, 84
13, 157140, Note_on_c, 10, 86, 84
13, 157191, Note_on_c, 10, 74, 0
13, 157191, Note_on_c, 10, 86, 0
13, 157200, Note_on_c, 10, 86, 84
13, 157200, Note_on_c, 10, 74, 84
13, 157319, Note_on_c, 10, 86, 0
13, 157319, Note_on_c, 10, 74, 0
13, 157560, Note_on_c, 10, 86, 84
13, 157560, Note_on_c, 10, 74, 84
13, 157611, Note_on_c, 10, 86, 0
13, 157611, Note_on_c, 10, 74, 0
13, 157620, Note_on_c, 10, 74, 84
13, 157620, Note_on_c, 10, 86, 84
13, 157671, Note_on_c, 10, 74, 0
13, 157671, Note_on_c, 10, 86, 0
13, 157680, Note_on_c, 10, 74, 84
13, 157680, Note_on_c, 10, 86, 84
13, 157799, Note_on_c, 10, 74, 0
13, 157799, Note_on_c, 10, 86, 0
13, 158040, Note_on_c, 10, 86, 84
13, 158040, Note_on_c, 10, 74, 84
13, 158091, Note_on_c, 10, 86, 0
13, 158091, Note_on_c, 10, 74, 0
13, 158100, Note_on_c, 10, 86, 84
13, 158100, Note_on_c, 10, 74, 84
13, 158151, Note_on_c, 10, 86, 0
13, 158151, Note_on_c, 10, 74, 0
13, 158160, Note_on_c, 10, 74, 84
13, 158160, Note_on_c, 10, 86, 84
13, 158279, Note_on_c, 10, 74, 0
13, 158279, Note_on_c, 10, 86, 0
13, 158520, Note_on_c, 10, 86, 84
13, 158520, Note_on_c, 10, 74, 84
13, 158571, Note_on_c, 10, 86, 0
13, 158571, Note_on_c, 10, 74, 0
13, 158580, Note_on_c, 10, 86, 84
13, 158580, Note_on_c, 10, 74, 84
13, 158631, Note_on_c, 10, 86, 0
13, 158631, Note_on_c, 10, 74, 0
13, 158640, Note_on_c, 10, 74, 84
13, 158640, Note_on_c, 10, 86, 84
13, 158759, Note_on_c, 10, 74, 0
13, 158759, Note_on_c, 10, 86, 0
13, 159000, Note_on_c, 10, 86, 84
13, 159000, Note_on_c, 10, 74, 84
13, 159051, Note_on_c, 10, 86, 0
13, 159051, Note_on_c, 10, 74, 0
13, 159060, Note_on_c, 10, 86, 84
13, 159060, Note_on_c, 10, 74, 84
13, 159111, Note_on_c, 10, 86, 0
13, 159111, Note_on_c, 10, 74, 0
13, 159120, Note_on_c, 10, 86, 84
13, 159120, Note_on_c, 10, 74, 84
13, 159239, Note_on_c, 10, 86, 0
13, 159239, Note_on_c, 10, 74, 0
13, 159480, Note_on_c, 10, 74, 84
13, 159480, Note_on_c, 10, 86, 84
13, 159531, Note_on_c, 10, 74, 0
13, 159531, Note_on_c, 10, 86, 0
13, 159540, Note_on_c, 10, 74, 84
13, 159540, Note_on_c, 10, 86, 84
13, 159591, Note_on_c, 10, 74, 0
13, 159591, Note_on_c, 10, 86, 0
13, 159600, Note_on_c, 10, 74, 84
13, 159600, Note_on_c, 10, 86, 84
13, 159719, Note_on_c, 10, 74, 0
13, 159719, Note_on_c, 10, 86, 0
13, 159960, Note_on_c, 10, 86, 84
13, 159960, Note_on_c, 10, 74, 84
13, 160011, Note_on_c, 10, 86, 0
13, 160011, Note_on_c, 10, 74, 0
13, 160020, Note_on_c, 10, 74, 84
13, 160020, Note_on_c, 10, 86, 84
13, 160071, Note_on_c, 10, 74, 0
13, 160071, Note_on_c, 10, 86, 0
13, 160080, Note_on_c, 10, 74, 84
13, 160080, Note_on_c, 10, 86, 84
13, 160199, Note_on_c, 10, 74, 0
13, 160199, Note_on_c, 10, 86, 0
13, 160440, Note_on_c, 10, 86, 84
13, 160440, Note_on_c, 10, 74, 84
13, 160491, Note_on_c, 10, 86, 0
13, 160491, Note_on_c, 10, 74, 0
13, 160500, Note_on_c, 10, 86, 84
13, 160500, Note_on_c, 10, 74, 84
13, 160551, Note_on_c, 10, 86, 0
13, 160551, Note_on_c, 10, 74, 0
13, 160560, Note_on_c, 10, 74, 84
13, 160560, Note_on_c, 10, 86, 84
13, 160679, Note_on_c, 10, 74, 0
13, 160679, Note_on_c, 10, 86, 0
13, 160920, Note_on_c, 10, 74, 84
13, 160920, Note_on_c, 10, 86, 84
13, 160971, Note_on_c, 10, 74, 0
13, 160971, Note_on_c, 10, 86, 0
13, 160980, Note_on_c, 10, 86, 84
13, 160980, Note_on_c, 10, 74, 84
13, 161031, Note_on_c, 10, 86, 0
13, 161031, Note_on_c, 10, 74, 0
13, 161040, Note_on_c, 10, 86, 84
13, 161040, Note_on_c, 10, 74, 84
13, 161159, Note_on_c, 10, 86, 0
13, 161159, Note_on_c, 10, 74, 0
13, 161400, Note_on_c, 10, 74, 84
13, 161451, Note_on_c, 10, 74, 0
13, 161460, Note_on_c, 10, 74, 84
13, 161511, Note_on_c, 10, 74, 0
13, 161520, Note_on_c, 10, 76, 84
13, 161520, Note_on_c, 10, 64, 84
13, 161639, Note_on_c, 10, 76, 0
13, 161639, Note_on_c, 10, 64, 0
13, 161880, Note_on_c, 10, 76, 84
13, 161880, Note_on_c, 10, 64, 84
13, 161931, Note_on_c, 10, 76, 0
13, 161931, Note_on_c, 10, 64, 0
13, 161940, Note_on_c, 10, 76, 84
13, 161940, Note_on_c, 10, 64, 84
13, 161991, Note_on_c, 10, 76, 0
13, 161991, Note_on_c, 10, 64, 0
13, 162000, Note_on_c, 10, 76, 84
13, 162000, Note_on_c, 10, 64, 84
13, 162119, Note_on_c, 10, 76, 0
13, 162119, Note_on_c, 10, 64, 0
13, 162360, Note_on_c, 10, 76, 84
13, 162360, Note_on_c, 10, 64, 84
13, 162411, Note_on_c, 10, 76, 0
13, 162411, Note_on_c, 10, 64, 0
13, 162420, Note_on_c, 10, 76, 84
13, 162420, Note_on_c, 10, 64, 84
13, 162471, Note_on_c, 10, 76, 0
13, 162471, Note_on_c, 10, 64, 0
13, 162480, Note_on_c, 10, 76, 84
13, 162480, Note_on_c, 10, 64, 84
13, 162599, Note_on_c, 10, 76, 0
13, 162599, Note_on_c, 10, 64, 0
13, 162840, Note_on_c, 10, 64, 84
13, 162840, Note_on_c, 10, 76, 84
13, 162891, Note_on_c, 10, 64, 0
13, 162891, Note_on_c, 10, 76, 0
13, 162900, Note_on_c, 10, 64, 84
13, 162900, Note_on_c, 10, 76, 84
13, 162951, Note_on_c, 10, 64, 0
13, 162951, Note_on_c, 10, 76, 0
13, 162960, Note_on_c, 10, 76, 84
13, 162960, Note_on_c, 10, 64, 84
13, 163079, Note_on_c, 10, 76, 0
13, 163079, Note_on_c, 10, 64, 0
13, 163320, Note_on_c, 10, 76, 84
13, 163320, Note_on_c, 10, 64, 84
13, 163371, Note_on_c, 10, 76, 0
13, 163371, Note_on_c, 10, 64, 0
13, 163380, Note_on_c, 10, 76, 84
13, 163380, Note_on_c, 10, 64, 84
13, 163431, Note_on_c, 10, 76, 0
13, 163431, Note_on_c, 10, 64, 0
13, 163440, Note_on_c, 10, 76, 84
13, 163440, Note_on_c, 10, 64, 84
13, 163559, Note_on_c, 10, 76, 0
13, 163559, Note_on_c, 10, 64, 0
13, 163800, Note_on_c, 10, 64, 84
13, 163800, Note_on_c, 10, 76, 84
13, 163851, Note_on_c, 10, 64, 0
13, 163851, Note_on_c, 10, 76, 0
13, 163860, Note_on_c, 10, 76, 84
13, 163860, Note_on_c, 10, 64, 84
13, 163911, Note_on_c, 10, 76, 0
13, 163911, Note_on_c, 10, 64, 0
13, 163920, Note_on_c, 10, 64, 84
13, 163920, Note_on_c, 10, 76, 84
13, 164039, Note_on_c, 10, 64, 0
13, 164039, Note_on_c, 10, 76, 0
13, 164280, Note_on_c, 10, 64, 84
13, 164280, Note_on_c, 10, 76, 84
13, 164331, Note_on_c, 10, 64, 0
13, 164331, Note_on_c, 10, 76, 0
13, 164340, Note_on_c, 10, 76, 84
13, 164340, Note_on_c, 10, 64, 84
13, 164391, Note_on_c, 10, 76, 0
13, 164391, Note_on_c, 10, 64, 0
13, 164400, Note_on_c, 10, 64, 84
13, 164400, Note_on_c, 10, 76, 84
13, 164519, Note_on_c, 10, 64, 0
13, 164519, Note_on_c, 10, 76, 0
13, 164760, Note_on_c, 10, 76, 84
13, 164760, Note_on_c, 10, 64, 84
13, 164811, Note_on_c, 10, 76, 0
13, 164811, Note_on_c, 10, 64, 0
13, 164820, Note_on_c, 10, 64, 84
13, 164820, Note_on_c, 10, 76, 84
13, 164871, Note_on_c, 10, 64, 0
13, 164871, Note_on_c, 10, 76, 0
13, 164880, Note_on_c, 10, 64, 84
13, 164880, Note_on_c, 10, 76, 84
13, 164999, Note_on_c, 10, 64, 0
13, 164999, Note_on_c, 10, 76, 0
13, 165240, Note_on_c, 10, 64, 84
13, 165240, Note_on_c, 10, 76, 84
13, 165291, Note_on_c, 10, 64, 0
13, 165291, Note_on_c, 10, 76, 0
13, 165300, Note_on_c, 10, 76, 84
13, 165300, Note_on_c, 10, 64, 84
13, 165351, Note_on_c, 10, 76, 0
13, 165351, Note_on_c, 10, 64, 0
13, 165360, Note_on_c, 10, 76, 84
13, 165360, Note_on_c, 10, 64, 84
13, 165479, Note_on_c, 10, 76, 0
13, 165479, Note_on_c, 10, 64, 0
13, 165720, Note_on_c, 10, 64, 84
13, 165720, Note_on_c, 10, 76, 84
13, 165771, Note_on_c, 10, 64, 0
13, 165771, Note_on_c, 10, 76, 0
13, 165780, Note_on_c, 10, 76, 84
13, 165780, Note_on_c, 10, 64, 84
13, 165831, Note_on_c, 10, 76, 0
13, 165831, Note_on_c, 10, 64, 0
13, 165840, Note_on_c, 10, 76, 84
13, 165840, Note_on_c, 10, 64, 84
13, 165959, Note_on_c, 10, 76, 0
13, 165959, Note_on_c, 10, 64, 0
13, 166200, Note_on_c, 10, 64, 82
13, 166251, Note_on_c, 10, 64, 0
13, 166260, Note_on_c, 10, 64, 81
13, 166311, Note_on_c, 10, 64, 0
13, 166320, Note_on_c, 10, 64, 79
13, 166439, Note_on_c, 10, 64, 0
13, 166680, Note_on_c, 10, 64, 72
13, 166731, Note_on_c, 10, 64, 0
13, 166740, Note_on_c, 10, 64, 71
13, 166791, Note_on_c, 10, 64, 0
13, 166800, Note_on_c, 10, 64, 69
13, 166919, Note_on_c, 10, 64, 0
13, 167160, Note_on_c, 10, 64, 62
13, 167211, Note_on_c, 10, 64, 0
13, 167220, Note_on_c, 10, 64, 61
13, 167271, Note_on_c, 10, 64, 0
13, 167280, Note_on_c, 10, 64, 59
13, 167399, Note_on_c, 10, 64, 0
13, 167640, Note_on_c, 10, 64, 52
13, 167691, Note_on_c, 10, 64, 0
13, 167700, Note_on_c, 10, 64, 51
13, 167751, Note_on_c, 10, 64, 0
13, 167760, Note_on_c, 10, 64, 49
13, 167879, Note_on_c, 10, 64, 0
13, 168000, Note_on_c, 10, 65, 44
13, 168104, Note_on_c, 10, 65, 0
13, 168120, Note_on_c, 10, 65, 44
13, 168171, Note_on_c, 10, 65, 0
13, 168180, Note_on_c, 10, 65, 44
13, 168231, Note_on_c, 10, 65, 0
13, 168240, Note_on_c, 10, 65, 44
13, 168359, Note_on_c, 10, 65, 0
13, 169080, Note_on_c, 10, 63, 44
13, 169184, Note_on_c, 10, 63, 0
13, 169200, Note_on_c, 10, 63, 44
13, 169251, Note_on_c, 10, 63, 0
13, 169260, Note_on_c, 10, 63, 44
13, 169311, Note_on_c, 10, 63, 0
13, 169320, Note_on_c, 10, 63, 44
13, 169439, Note_on_c, 10, 63, 0
13, 172080, Note_on_c, 10, 74, 44
13, 172259, Note_on_c, 10, 74, 0
13, 172260, Note_on_c, 10, 82, 44
13, 172311, Note_on_c, 10, 82, 0
13, 172320, Note_on_c, 10, 74, 44
13, 172499, Note_on_c, 10, 74, 0
13, 172500, Note_on_c, 10, 82, 44
13, 172551, Note_on_c, 10, 82, 0
13, 173280, Note_on_c, 10, 65, 44
13, 173384, Note_on_c, 10, 65, 0
13, 173400, Note_on_c, 10, 65, 44
13, 173451, Note_on_c, 10, 65, 0
13, 173460, Note_on_c, 10, 65, 44
13, 173511, Note_on_c, 10, 65, 0
13, 173520, Note_on_c, 10, 65, 44
13, 173639, Note_on_c, 10, 65, 0
13, 174360, Note_on_c, 10, 63, 44
13, 174464, Note_on_c, 10, 63, 0
13, 174480, Note_on_c, 10, 63, 44
13, 174531, Note_on_c, 10, 63, 0
13, 174540, Note_on_c, 10, 63, 44
13, 174591, Note_on_c, 10, 63, 0
13, 174600, Note_on_c, 10, 63, 44
13, 174719, Note_on_c, 10, 63, 0
13, 177360, Note_on_c, 10, 74, 55
13, 177539, Note_on_c, 10, 74, 0
13, 177540, Note_on_c, 10, 83, 59
13, 177591, Note_on_c, 10, 83, 0
13, 177600, Note_on_c, 10, 74, 61
13, 177779, Note_on_c, 10, 74, 0
13, 177780, Note_on_c, 10, 83, 65
13, 177831, Note_on_c, 10, 83, 0
13, 178560, Note_on_c, 10, 76, 84
13, 178560, Note_on_c, 10, 88, 84
13, 178679, Note_on_c, 10, 76, 0
13, 178679, Note_on_c, 10, 88, 0
13, 179520, Note_on_c, 10, 62, 84
13, 179520, Note_on_c, 10, 74, 84
13, 179520, Note_on_c, 10, 86, 84
13, 179639, Note_on_c, 10, 62, 0
13, 179639, Note_on_c, 10, 74, 0
13, 179639, Note_on_c, 10, 86, 0
13, 180480, Note_on_c, 10, 71, 84
13, 180569, Note_on_c, 10, 71, 0
13, 180600, Note_on_c, 10, 71, 84
13, 180659, Note_on_c, 10, 71, 0
13, 180660, Note_on_c, 10, 73, 84
13, 180719, Note_on_c, 10, 73, 0
13, 180720, Note_on_c, 10, 76, 92
13, 180779, Note_on_c, 10, 76, 0
13, 180780, Note_on_c, 10, 74, 84
13, 180839, Note_on_c, 10, 74, 0
13, 180840, Note_on_c, 10, 73, 84
13, 180899, Note_on_c, 10, 73, 0
13, 180900, Note_on_c, 10, 71, 84
13, 180951, Note_on_c, 10, 71, 0
13, 180960, Note_on_c, 10, 73, 84
13, 181049, Note_on_c, 10, 73, 0
13, 181080, Note_on_c, 10, 73, 84
13, 181139, Note_on_c, 10, 73, 0
13, 181140, Note_on_c, 10, 74, 84
13, 181199, Note_on_c, 10, 74, 0
13, 181200, Note_on_c, 10, 78, 92
13, 181259, Note_on_c, 10, 78, 0
13, 181260, Note_on_c, 10, 76, 84
13, 181319, Note_on_c, 10, 76, 0
13, 181320, Note_on_c, 10, 74, 84
13, 181379, Note_on_c, 10, 74, 0
13, 181380, Note_on_c, 10, 73, 84
13, 181431, Note_on_c, 10, 73, 0
13, 181440, Note_on_c, 10, 71, 84
13, 181529, Note_on_c, 10, 71, 0
13, 181560, Note_on_c, 10, 71, 84
13, 181619, Note_on_c, 10, 71, 0
13, 181620, Note_on_c, 10, 73, 84
13, 181679, Note_on_c, 10, 73, 0
13, 181680, Note_on_c, 10, 76, 92
13, 181739, Note_on_c, 10, 76, 0
13, 181740, Note_on_c, 10, 74, 84
13, 181799, Note_on_c, 10, 74, 0
13, 181800, Note_on_c, 10, 73, 84
13, 181859, Note_on_c, 10, 73, 0
13, 181860, Note_on_c, 10, 71, 84
13, 181911, Note_on_c, 10, 71, 0
13, 181920, Note_on_c, 10, 73, 84
13, 182099, Note_on_c, 10, 73, 0
13, 182100, Note_on_c, 10, 81, 84
13, 182151, Note_on_c, 10, 81, 0
13, 182160, Note_on_c, 10, 81, 92
13, 182219, Note_on_c, 10, 81, 0
13, 182220, Note_on_c, 10, 81, 84
13, 182399, Note_on_c, 10, 81, 0
13, 182400, Note_on_c, 10, 81, 84
13, 182504, Note_on_c, 10, 81, 0
13, 182520, Note_on_c, 10, 71, 84
13, 182579, Note_on_c, 10, 71, 0
13, 182580, Note_on_c, 10, 73, 84
13, 182639, Note_on_c, 10, 73, 0
13, 182640, Note_on_c, 10, 76, 92
13, 182699, Note_on_c, 10, 76, 0
13, 182700, Note_on_c, 10, 74, 84
13, 182759, Note_on_c, 10, 74, 0
13, 182760, Note_on_c, 10, 73, 84
13, 182819, Note_on_c, 10, 73, 0
13, 182820, Note_on_c, 10, 71, 84
13, 182871, Note_on_c, 10, 71, 0
13, 182880, Note_on_c, 10, 73, 84
13, 182969, Note_on_c, 10, 73, 0
13, 183000, Note_on_c, 10, 73, 84
13, 183059, Note_on_c, 10, 73, 0
13, 183060, Note_on_c, 10, 74, 84
13, 183119, Note_on_c, 10, 74, 0
13, 183120, Note_on_c, 10, 78, 92
13, 183179, Note_on_c, 10, 78, 0
13, 183180, Note_on_c, 10, 76, 84
13, 183239, Note_on_c, 10, 76, 0
13, 183240, Note_on_c, 10, 74, 84
13, 183299, Note_on_c, 10, 74, 0
13, 183300, Note_on_c, 10, 73, 84
13, 183351, Note_on_c, 10, 73, 0
13, 183360, Note_on_c, 10, 71, 84
13, 183449, Note_on_c, 10, 71, 0
13, 183480, Note_on_c, 10, 71, 84
13, 183539, Note_on_c, 10, 71, 0
13, 183540, Note_on_c, 10, 73, 84
13, 183599, Note_on_c, 10, 73, 0
13, 183600, Note_on_c, 10, 76, 92
13, 183659, Note_on_c, 10, 76, 0
13, 183660, Note_on_c, 10, 74, 84
13, 183719, Note_on_c, 10, 74, 0
13, 183720, Note_on_c, 10, 73, 84
13, 183779, Note_on_c, 10, 73, 0
13, 183780, Note_on_c, 10, 71, 84
13, 183831, Note_on_c, 10, 71, 0
13, 183840, Note_on_c, 10, 73, 84
13, 183840, Note_on_c, 10, 64, 84
13, 183840, Note_on_c, 10, 81, 84
13, 183959, Note_on_c, 10, 73, 0
13, 183959, Note_on_c, 10, 64, 0
13, 183959, Note_on_c, 10, 81, 0
13, 184320, Note_on_c, 10, 71, 84
13, 184409, Note_on_c, 10, 71, 0
13, 184440, Note_on_c, 10, 71, 84
13, 184499, Note_on_c, 10, 71, 0
13, 184500, Note_on_c, 10, 73, 84
13, 184559, Note_on_c, 10, 73, 0
13, 184560, Note_on_c, 10, 76, 92
13, 184619, Note_on_c, 10, 76, 0
13, 184620, Note_on_c, 10, 74, 84
13, 184679, Note_on_c, 10, 74, 0
13, 184680, Note_on_c, 10, 73, 84
13, 184739, Note_on_c, 10, 73, 0
13, 184740, Note_on_c, 10, 71, 84
13, 184791, Note_on_c, 10, 71, 0
13, 184800, Note_on_c, 10, 73, 84
13, 184889, Note_on_c, 10, 73, 0
13, 184920, Note_on_c, 10, 73, 84
13, 184979, Note_on_c, 10, 73, 0
13, 184980, Note_on_c, 10, 74, 84
13, 185039, Note_on_c, 10, 74, 0
13, 185040, Note_on_c, 10, 78, 92
13, 185099, Note_on_c, 10, 78, 0
13, 185100, Note_on_c, 10, 76, 84
13, 185159, Note_on_c, 10, 76, 0
13, 185160, Note_on_c, 10, 74, 84
13, 185219, Note_on_c, 10, 74, 0
13, 185220, Note_on_c, 10, 73, 84
13, 185271, Note_on_c, 10, 73, 0
13, 185280, Note_on_c, 10, 71, 84
13, 185369, Note_on_c, 10, 71, 0
13, 185400, Note_on_c, 10, 71, 84
13, 185459, Note_on_c, 10, 71, 0
13, 185460, Note_on_c, 10, 73, 84
13, 185519, Note_on_c, 10, 73, 0
13, 185520, Note_on_c, 10, 76, 92
13, 185579, Note_on_c, 10, 76, 0
13, 185580, Note_on_c, 10, 74, 84
13, 185639, Note_on_c, 10, 74, 0
13, 185640, Note_on_c, 10, 73, 84
13, 185699, Note_on_c, 10, 73, 0
13, 185700, Note_on_c, 10, 71, 84
13, 185751, Note_on_c, 10, 71, 0
13, 185760, Note_on_c, 10, 73, 84
13, 185939, Note_on_c, 10, 73, 0
13, 185940, Note_on_c, 10, 81, 84
13, 185991, Note_on_c, 10, 81, 0
13, 186000, Note_on_c, 10, 81, 92
13, 186059, Note_on_c, 10, 81, 0
13, 186060, Note_on_c, 10, 81, 84
13, 186239, Note_on_c, 10, 81, 0
13, 186240, Note_on_c, 10, 81, 84
13, 186344, Note_on_c, 10, 81, 0
13, 186360, Note_on_c, 10, 71, 84
13, 186419, Note_on_c, 10, 71, 0
13, 186420, Note_on_c, 10, 73, 84
13, 186479, Note_on_c, 10, 73, 0
13, 186480, Note_on_c, 10, 76, 92
13, 186539, Note_on_c, 10, 76, 0
13, 186540, Note_on_c, 10, 74, 84
13, 186599, Note_on_c, 10, 74, 0
13, 186600, Note_on_c, 10, 73, 84
13, 186659, Note_on_c, 10, 73, 0
13, 186660, Note_on_c, 10, 71, 84
13, 186711, Note_on_c, 10, 71, 0
13, 186720, Note_on_c, 10, 73, 84
13, 186809, Note_on_c, 10, 73, 0
13, 186840, Note_on_c, 10, 73, 84
13, 186899, Note_on_c, 10, 73, 0
13, 186900, Note_on_c, 10, 74, 84
13, 186959, Note_on_c, 10, 74, 0
13, 186960, Note_on_c, 10, 78, 92
13, 187019, Note_on_c, 10, 78, 0
13, 187020, Note_on_c, 10, 76, 84
13, 187079, Note_on_c, 10, 76, 0
13, 187080, Note_on_c, 10, 74, 84
13, 187139, Note_on_c, 10, 74, 0
13, 187140, Note_on_c, 10, 73, 84
13, 187191, Note_on_c, 10, 73, 0
13, 187200, Note_on_c, 10, 71, 84
13, 187289, Note_on_c, 10, 71, 0
13, 187320, Note_on_c, 10, 71, 84
13, 187379, Note_on_c, 10, 71, 0
13, 187380, Note_on_c, 10, 73, 84
13, 187439, Note_on_c, 10, 73, 0
13, 187440, Note_on_c, 10, 76, 92
13, 187499, Note_on_c, 10, 76, 0
13, 187500, Note_on_c, 10, 74, 84
13, 187559, Note_on_c, 10, 74, 0
13, 187560, Note_on_c, 10, 73, 84
13, 187619, Note_on_c, 10, 73, 0
13, 187620, Note_on_c, 10, 71, 84
13, 187671, Note_on_c, 10, 71, 0
13, 187680, Note_on_c, 10, 73, 84
13, 187680, Note_on_c, 10, 57, 84
13, 187680, Note_on_c, 10, 64, 84
13, 187680, Note_on_c, 10, 81, 84
13, 187799, Note_on_c, 10, 73, 0
13, 187799, Note_on_c, 10, 57, 0
13, 187799, Note_on_c, 10, 64, 0
13, 187799, Note_on_c, 10, 81, 0
13, 188160, Note_on_c, 10, 73, 84
13, 188160, Note_on_c, 10, 81, 84
13, 188160, Note_on_c, 10, 64, 84
13, 188160, Note_on_c, 10, 57, 84
13, 188279, Note_on_c, 10, 73, 0
13, 188279, Note_on_c, 10, 81, 0
13, 188279, Note_on_c, 10, 64, 0
13, 188279, Note_on_c, 10, 57, 0
13, 188640, Note_on_c, 10, 88, 84
13, 188640, Note_on_c, 10, 76, 84
13, 188759, Note_on_c, 10, 88, 0
13, 188759, Note_on_c, 10, 76, 0
13, 189120, Note_on_c, 10, 88, 84
13, 189120, Note_on_c, 10, 76, 84
13, 189239, Note_on_c, 10, 88, 0
13, 189239, Note_on_c, 10, 76, 0
13, 189600, Note_on_c, 10, 85, 84
13, 189600, Note_on_c, 10, 69, 84
13, 189600, Note_on_c, 10, 76, 84
13, 189719, Note_on_c, 10, 85, 0
13, 189719, Note_on_c, 10, 69, 0
13, 189719, Note_on_c, 10, 76, 0
13, 189840, Note_on_c, 10, 85, 84
13, 189840, Note_on_c, 10, 69, 84
13, 189840, Note_on_c, 10, 76, 84
13, 189959, Note_on_c, 10, 85, 0
13, 189959, Note_on_c, 10, 69, 0
13, 189959, Note_on_c, 10, 76, 0
13, 190080, Note_on_c, 10, 76, 84
13, 190080, Note_on_c, 10, 85, 84
13, 190080, Note_on_c, 10, 69, 84
13, 190199, Note_on_c, 10, 76, 0
13, 190199, Note_on_c, 10, 85, 0
13, 190199, Note_on_c, 10, 69, 0
13, 190320, Note_on_c, 10, 69, 84
13, 190320, Note_on_c, 10, 85, 84
13, 190320, Note_on_c, 10, 76, 84
13, 190439, Note_on_c, 10, 69, 0
13, 190439, Note_on_c, 10, 85, 0
13, 190439, Note_on_c, 10, 76, 0
13, 190560, Note_on_c, 10, 68, 84
13, 190560, Note_on_c, 10, 76, 84
13, 190560, Note_on_c, 10, 83, 84
13, 190679, Note_on_c, 10, 68, 0
13, 190679, Note_on_c, 10, 76, 0
13, 190679, Note_on_c, 10, 83, 0
13, 190800, Note_on_c, 10, 83, 84
13, 190800, Note_on_c, 10, 68, 84
13, 190800, Note_on_c, 10, 76, 84
13, 190919, Note_on_c, 10, 83, 0
13, 190919, Note_on_c, 10, 68, 0
13, 190919, Note_on_c, 10, 76, 0
13, 191040, Note_on_c, 10, 68, 84
13, 191040, Note_on_c, 10, 76, 84
13, 191040, Note_on_c, 10, 83, 84
13, 191159, Note_on_c, 10, 68, 0
13, 191159, Note_on_c, 10, 76, 0
13, 191159, Note_on_c, 10, 83, 0
13, 191280, Note_on_c, 10, 83, 84
13, 191280, Note_on_c, 10, 76, 84
13, 191280, Note_on_c, 10, 68, 84
13, 191399, Note_on_c, 10, 83, 0
13, 191399, Note_on_c, 10, 76, 0
13, 191399, Note_on_c, 10, 68, 0
13, 191520, Note_on_c, 10, 73, 84
13, 191520, Note_on_c, 10, 81, 84
13, 191520, Note_on_c, 10, 64, 84
13, 191520, Note_on_c, 10, 57, 84
13, 191639, Note_on_c, 10, 73, 0
13, 191639, Note_on_c, 10, 81, 0
13, 191639, Note_on_c, 10, 64, 0
13, 191639, Note_on_c, 10, 57, 0
13, 192000, Note_on_c, 10, 57, 84
13, 192000, Note_on_c, 10, 64, 84
13, 192000, Note_on_c, 10, 81, 84
13, 192000, Note_on_c, 10, 73, 84
13, 192119, Note_on_c, 10, 57, 0
13, 192119, Note_on_c, 10, 64, 0
13, 192119, Note_on_c, 10, 81, 0
13, 192119, Note_on_c, 10, 73, 0
13, 192480, Note_on_c, 10, 88, 84
13, 192480, Note_on_c, 10, 76, 84
13, 192599, Note_on_c, 10, 88, 0
13, 192599, Note_on_c, 10, 76, 0
13, 192960, Note_on_c, 10, 76, 84
13, 192960, Note_on_c, 10, 88, 84
13, 193079, Note_on_c, 10, 76, 0
13, 193079, Note_on_c, 10, 88, 0
13, 193440, Note_on_c, 10, 85, 84
13, 193491, Note_on_c, 10, 85, 0
13, 193500, Note_on_c, 10, 85, 84
13, 193551, Note_on_c, 10, 85, 0
13, 193560, Note_on_c, 10, 85, 84
13, 193611, Note_on_c, 10, 85, 0
13, 193620, Note_on_c, 10, 85, 84
13, 193671, Note_on_c, 10, 85, 0
13, 193680, Note_on_c, 10, 85, 84
13, 193731, Note_on_c, 10, 85, 0
13, 193740, Note_on_c, 10, 85, 84
13, 193791, Note_on_c, 10, 85, 0
13, 193800, Note_on_c, 10, 83, 84
13, 193851, Note_on_c, 10, 83, 0
13, 193860, Note_on_c, 10, 83, 84
13, 193911, Note_on_c, 10, 83, 0
13, 193920, Note_on_c, 10, 81, 84
13, 193971, Note_on_c, 10, 81, 0
13, 193980, Note_on_c, 10, 81, 84
13, 194031, Note_on_c, 10, 81, 0
13, 194040, Note_on_c, 10, 85, 84
13, 194091, Note_on_c, 10, 85, 0
13, 194100, Note_on_c, 10, 85, 84
13, 194151, Note_on_c, 10, 85, 0
13, 194160, Note_on_c, 10, 83, 84
13, 194211, Note_on_c, 10, 83, 0
13, 194220, Note_on_c, 10, 83, 84
13, 194271, Note_on_c, 10, 83, 0
13, 194280, Note_on_c, 10, 81, 84
13, 194331, Note_on_c, 10, 81, 0
13, 194340, Note_on_c, 10, 81, 84
13, 194391, Note_on_c, 10, 81, 0
13, 194400, Note_on_c, 10, 83, 84
13, 194451, Note_on_c, 10, 83, 0
13, 194460, Note_on_c, 10, 83, 84
13, 194511, Note_on_c, 10, 83, 0
13, 194520, Note_on_c, 10, 81, 84
13, 194571, Note_on_c, 10, 81, 0
13, 194580, Note_on_c, 10, 81, 84
13, 194631, Note_on_c, 10, 81, 0
13, 194640, Note_on_c, 10, 80, 84
13, 194691, Note_on_c, 10, 80, 0
13, 194700, Note_on_c, 10, 80, 84
13, 194751, Note_on_c, 10, 80, 0
13, 194760, Note_on_c, 10, 78, 84
13, 194811, Note_on_c, 10, 78, 0
13, 194820, Note_on_c, 10, 78, 84
13, 194871, Note_on_c, 10, 78, 0
13, 194880, Note_on_c, 10, 76, 84
13, 194931, Note_on_c, 10, 76, 0
13, 194940, Note_on_c, 10, 76, 84
13, 194991, Note_on_c, 10, 76, 0
13, 195000, Note_on_c, 10, 74, 84
13, 195051, Note_on_c, 10, 74, 0
13, 195060, Note_on_c, 10, 74, 84
13, 195111, Note_on_c, 10, 74, 0
13, 195120, Note_on_c, 10, 73, 84
13, 195171, Note_on_c, 10, 73, 0
13, 195180, Note_on_c, 10, 73, 84
13, 195231, Note_on_c, 10, 73, 0
13, 195240, Note_on_c, 10, 71, 84
13, 195291, Note_on_c, 10, 71, 0
13, 195300, Note_on_c, 10, 71, 84
13, 195351, Note_on_c, 10, 71, 0
13, 195360, Note_on_c, 10, 69, 84
13, 195449, Note_on_c, 10, 69, 0
13, 195480, Note_on_c, 10, 69, 84
13, 195539, Note_on_c, 10, 69, 0
13, 195540, Note_on_c, 10, 71, 84
13, 195599, Note_on_c, 10, 71, 0
13, 195600, Note_on_c, 10, 74, 84
13, 195659, Note_on_c, 10, 74, 0
13, 195660, Note_on_c, 10, 73, 84
13, 195719, Note_on_c, 10, 73, 0
13, 195720, Note_on_c, 10, 71, 84
13, 195779, Note_on_c, 10, 71, 0
13, 195780, Note_on_c, 10, 69, 84
13, 195831, Note_on_c, 10, 69, 0
13, 195840, Note_on_c, 10, 76, 84
13, 196079, Note_on_c, 10, 76, 0
13, 196080, Note_on_c, 10, 74, 84
13, 196319, Note_on_c, 10, 74, 0
13, 196320, Note_on_c, 10, 73, 84
13, 196559, Note_on_c, 10, 73, 0
13, 196560, Note_on_c, 10, 71, 84
13, 196799, Note_on_c, 10, 71, 0
13, 196800, Note_on_c, 10, 69, 84
13, 197039, Note_on_c, 10, 69, 0
13, 197040, Note_on_c, 10, 71, 84
13, 197264, Note_on_c, 10, 71, 0
13, 197280, Note_on_c, 10, 73, 84
13, 197369, Note_on_c, 10, 73, 0
13, 197400, Note_on_c, 10, 69, 84
13, 197459, Note_on_c, 10, 69, 0
13, 197460, Note_on_c, 10, 71, 84
13, 197519, Note_on_c, 10, 71, 0
13, 197520, Note_on_c, 10, 74, 84
13, 197579, Note_on_c, 10, 74, 0
13, 197580, Note_on_c, 10, 73, 84
13, 197639, Note_on_c, 10, 73, 0
13, 197640, Note_on_c, 10, 71, 84
13, 197699, Note_on_c, 10, 71, 0
13, 197700, Note_on_c, 10, 69, 84
13, 197751, Note_on_c, 10, 69, 0
13, 197760, Note_on_c, 10, 76, 84
13, 197999, Note_on_c, 10, 76, 0
13, 198000, Note_on_c, 10, 74, 84
13, 198239, Note_on_c, 10, 74, 0
13, 198240, Note_on_c, 10, 73, 84
13, 198479, Note_on_c, 10, 73, 0
13, 198480, Note_on_c, 10, 70, 84
13, 198719, Note_on_c, 10, 70, 0
13, 198720, Note_on_c, 10, 69, 84
13, 198959, Note_on_c, 10, 69, 0
13, 198960, Note_on_c, 10, 73, 84
13, 199184, Note_on_c, 10, 73, 0
13, 199200, Note_on_c, 10, 62, 84
13, 199200, Note_on_c, 10, 74, 84
13, 199289, Note_on_c, 10, 62, 0
13, 199289, Note_on_c, 10, 74, 0
13, 199320, Note_on_c, 10, 74, 84
13, 199379, Note_on_c, 10, 74, 0
13, 199380, Note_on_c, 10, 76, 84
13, 199439, Note_on_c, 10, 76, 0
13, 199440, Note_on_c, 10, 79, 84
13, 199499, Note_on_c, 10, 79, 0
13, 199500, Note_on_c, 10, 77, 84
13, 199559, Note_on_c, 10, 77, 0
13, 199560, Note_on_c, 10, 76, 84
13, 199619, Note_on_c, 10, 76, 0
13, 199620, Note_on_c, 10, 74, 84
13, 199671, Note_on_c, 10, 74, 0
13, 199680, Note_on_c, 10, 81, 84
13, 199919, Note_on_c, 10, 81, 0
13, 199920, Note_on_c, 10, 79, 84
13, 200159, Note_on_c, 10, 79, 0
13, 200160, Note_on_c, 10, 77, 84
13, 200399, Note_on_c, 10, 77, 0
13, 200400, Note_on_c, 10, 76, 84
13, 200639, Note_on_c, 10, 76, 0
13, 200640, Note_on_c, 10, 74, 84
13, 200879, Note_on_c, 10, 74, 0
13, 200880, Note_on_c, 10, 76, 84
13, 201104, Note_on_c, 10, 76, 0
13, 201120, Note_on_c, 10, 77, 84
13, 201209, Note_on_c, 10, 77, 0
13, 201240, Note_on_c, 10, 74, 84
13, 201299, Note_on_c, 10, 74, 0
13, 201300, Note_on_c, 10, 76, 84
13, 201359, Note_on_c, 10, 76, 0
13, 201360, Note_on_c, 10, 79, 84
13, 201419, Note_on_c, 10, 79, 0
13, 201420, Note_on_c, 10, 77, 84
13, 201479, Note_on_c, 10, 77, 0
13, 201480, Note_on_c, 10, 76, 84
13, 201539, Note_on_c, 10, 76, 0
13, 201540, Note_on_c, 10, 74, 84
13, 201591, Note_on_c, 10, 74, 0
13, 201600, Note_on_c, 10, 81, 84
13, 201839, Note_on_c, 10, 81, 0
13, 201840, Note_on_c, 10, 79, 84
13, 202079, Note_on_c, 10, 79, 0
13, 202080, Note_on_c, 10, 77, 84
13, 202319, Note_on_c, 10, 77, 0
13, 202320, Note_on_c, 10, 76, 84
13, 202559, Note_on_c, 10, 76, 0
13, 202560, Note_on_c, 10, 74, 84
13, 202799, Note_on_c, 10, 74, 0
13, 202800, Note_on_c, 10, 76, 84
13, 203024, Note_on_c, 10, 76, 0
13, 203040, Note_on_c, 10, 77, 84
13, 203211, Note_on_c, 10, 77, 0
13, 203220, Note_on_c, 10, 77, 84
13, 203271, Note_on_c, 10, 77, 0
13, 203280, Note_on_c, 10, 77, 84
13, 203451, Note_on_c, 10, 77, 0
13, 203460, Note_on_c, 10, 77, 84
13, 203511, Note_on_c, 10, 77, 0
13, 203520, Note_on_c, 10, 77, 84
13, 203691, Note_on_c, 10, 77, 0
13, 203700, Note_on_c, 10, 77, 84
13, 203751, Note_on_c, 10, 77, 0
13, 203760, Note_on_c, 10, 77, 84
13, 203931, Note_on_c, 10, 77, 0
13, 203940, Note_on_c, 10, 77, 84
13, 203991, Note_on_c, 10, 77, 0
13, 204000, Note_on_c, 10, 79, 84
13, 204171, Note_on_c, 10, 79, 0
13, 204180, Note_on_c, 10, 79, 84
13, 204231, Note_on_c, 10, 79, 0
13, 204240, Note_on_c, 10, 79, 84
13, 204411, Note_on_c, 10, 79, 0
13, 204420, Note_on_c, 10, 79, 84
13, 204471, Note_on_c, 10, 79, 0
13, 204480, Note_on_c, 10, 79, 84
13, 204651, Note_on_c, 10, 79, 0
13, 204660, Note_on_c, 10, 79, 84
13, 204711, Note_on_c, 10, 79, 0
13, 204720, Note_on_c, 10, 79, 84
13, 204891, Note_on_c, 10, 79, 0
13, 204900, Note_on_c, 10, 79, 84
13, 204951, Note_on_c, 10, 79, 0
13, 204960, Note_on_c, 10, 77, 84
13, 205131, Note_on_c, 10, 77, 0
13, 205140, Note_on_c, 10, 77, 84
13, 205191, Note_on_c, 10, 77, 0
13, 205200, Note_on_c, 10, 77, 84
13, 205371, Note_on_c, 10, 77, 0
13, 205380, Note_on_c, 10, 77, 84
13, 205431, Note_on_c, 10, 77, 0
13, 205440, Note_on_c, 10, 78, 84
13, 205611, Note_on_c, 10, 78, 0
13, 205620, Note_on_c, 10, 78, 84
13, 205671, Note_on_c, 10, 78, 0
13, 205680, Note_on_c, 10, 78, 84
13, 205851, Note_on_c, 10, 78, 0
13, 205860, Note_on_c, 10, 78, 84
13, 205911, Note_on_c, 10, 78, 0
13, 205920, Note_on_c, 10, 80, 84
13, 206091, Note_on_c, 10, 80, 0
13, 206100, Note_on_c, 10, 80, 84
13, 206151, Note_on_c, 10, 80, 0
13, 206160, Note_on_c, 10, 80, 84
13, 206331, Note_on_c, 10, 80, 0
13, 206340, Note_on_c, 10, 80, 84
13, 206391, Note_on_c, 10, 80, 0
13, 206400, Note_on_c, 10, 81, 84
13, 206571, Note_on_c, 10, 81, 0
13, 206580, Note_on_c, 10, 81, 84
13, 206631, Note_on_c, 10, 81, 0
13, 206640, Note_on_c, 10, 81, 84
13, 206811, Note_on_c, 10, 81, 0
13, 206820, Note_on_c, 10, 81, 84
13, 206871, Note_on_c, 10, 81, 0
13, 206880, Note_on_c, 10, 83, 84
13, 207051, Note_on_c, 10, 83, 0
13, 207060, Note_on_c, 10, 84, 84
13, 207111, Note_on_c, 10, 84, 0
13, 207120, Note_on_c, 10, 86, 84
13, 207291, Note_on_c, 10, 86, 0
13, 207300, Note_on_c, 10, 86, 84
13, 207351, Note_on_c, 10, 86, 0
13, 207360, Note_on_c, 10, 86, 84
13, 207531, Note_on_c, 10, 86, 0
13, 207540, Note_on_c, 10, 86, 84
13, 207591, Note_on_c, 10, 86, 0
13, 207600, Note_on_c, 10, 86, 84
13, 207771, Note_on_c, 10, 86, 0
13, 207780, Note_on_c, 10, 86, 84
13, 207831, Note_on_c, 10, 86, 0
13, 207840, Note_on_c, 10, 86, 84
13, 207959, Note_on_c, 10, 86, 0
13, 208500, Note_on_c, 10, 74, 52
13, 208559, Note_on_c, 10, 74, 0
13, 208560, Note_on_c, 10, 77, 52
13, 208679, Note_on_c, 10, 77, 0
13, 208740, Note_on_c, 10, 74, 52
13, 208799, Note_on_c, 10, 74, 0
13, 208800, Note_on_c, 10, 71, 52
13, 208919, Note_on_c, 10, 71, 0
13, 208980, Note_on_c, 10, 71, 52
13, 209039, Note_on_c, 10, 71, 0
13, 209040, Note_on_c, 10, 74, 52
13, 209159, Note_on_c, 10, 74, 0
13, 209220, Note_on_c, 10, 71, 52
13, 209279, Note_on_c, 10, 71, 0
13, 209280, Note_on_c, 10, 68, 52
13, 209399, Note_on_c, 10, 68, 0
13, 209460, Note_on_c, 10, 71, 52
13, 209519, Note_on_c, 10, 71, 0
13, 209520, Note_on_c, 10, 72, 52
13, 209639, Note_on_c, 10, 72, 0
13, 209700, Note_on_c, 10, 69, 52
13, 209759, Note_on_c, 10, 69, 0
13, 209760, Note_on_c, 10, 68, 52
13, 209879, Note_on_c, 10, 68, 0
13, 210420, Note_on_c, 10, 74, 52
13, 210479, Note_on_c, 10, 74, 0
13, 210480, Note_on_c, 10, 77, 52
13, 210599, Note_on_c, 10, 77, 0
13, 210660, Note_on_c, 10, 74, 52
13, 210719, Note_on_c, 10, 74, 0
13, 210720, Note_on_c, 10, 71, 52
13, 210839, Note_on_c, 10, 71, 0
13, 210900, Note_on_c, 10, 71, 52
13, 210959, Note_on_c, 10, 71, 0
13, 210960, Note_on_c, 10, 74, 52
13, 211079, Note_on_c, 10, 74, 0
13, 211140, Note_on_c, 10, 71, 52
13, 211199, Note_on_c, 10, 71, 0
13, 211200, Note_on_c, 10, 68, 52
13, 211319, Note_on_c, 10, 68, 0
13, 211380, Note_on_c, 10, 71, 52
13, 211439, Note_on_c, 10, 71, 0
13, 211440, Note_on_c, 10, 72, 52
13, 211559, Note_on_c, 10, 72, 0
13, 211620, Note_on_c, 10, 69, 52
13, 211679, Note_on_c, 10, 69, 0
13, 211680, Note_on_c, 10, 68, 52
13, 211799, Note_on_c, 10, 68, 0
13, 211860, Note_on_c, 10, 71, 52
13, 211919, Note_on_c, 10, 71, 0
13, 211920, Note_on_c, 10, 74, 51
13, 212039, Note_on_c, 10, 74, 0
13, 212100, Note_on_c, 10, 71, 51
13, 212159, Note_on_c, 10, 71, 0
13, 212160, Note_on_c, 10, 68, 50
13, 212279, Note_on_c, 10, 68, 0
13, 212340, Note_on_c, 10, 71, 50
13, 212399, Note_on_c, 10, 71, 0
13, 212400, Note_on_c, 10, 72, 49
13, 212519, Note_on_c, 10, 72, 0
13, 212580, Note_on_c, 10, 69, 49
13, 212639, Note_on_c, 10, 69, 0
13, 212640, Note_on_c, 10, 68, 48
13, 212759, Note_on_c, 10, 68, 0
13, 212820, Note_on_c, 10, 71, 48
13, 212879, Note_on_c, 10, 71, 0
13, 212880, Note_on_c, 10, 74, 47
13, 212999, Note_on_c, 10, 74, 0
13, 213060, Note_on_c, 10, 71, 47
13, 213119, Note_on_c, 10, 71, 0
13, 213120, Note_on_c, 10, 68, 46
13, 213239, Note_on_c, 10, 68, 0
13, 213300, Note_on_c, 10, 71, 46
13, 213359, Note_on_c, 10, 71, 0
13, 213360, Note_on_c, 10, 76, 45
13, 213479, Note_on_c, 10, 76, 0
13, 213540, Note_on_c, 10, 74, 45
13, 213599, Note_on_c, 10, 74, 0
13, 213600, Note_on_c, 10, 73, 52
13, 213771, Note_on_c, 10, 73, 0
13, 213780, Note_on_c, 10, 71, 52
13, 213824, Note_on_c, 10, 71, 0
13, 213840, Note_on_c, 10, 73, 76
13, 214071, Note_on_c, 10, 73, 0
13, 214080, Note_on_c, 10, 71, 52
13, 214251, Note_on_c, 10, 71, 0
13, 214260, Note_on_c, 10, 69, 52
13, 214304, Note_on_c, 10, 69, 0
13, 214320, Note_on_c, 10, 71, 76
13, 214551, Note_on_c, 10, 71, 0
13, 214560, Note_on_c, 10, 69, 52
13, 214731, Note_on_c, 10, 69, 0
13, 214740, Note_on_c, 10, 68, 52
13, 214784, Note_on_c, 10, 68, 0
13, 214800, Note_on_c, 10, 69, 76
13, 215031, Note_on_c, 10, 69, 0
13, 215040, Note_on_c, 10, 71, 52
13, 215211, Note_on_c, 10, 71, 0
13, 215220, Note_on_c, 10, 69, 52
13, 215264, Note_on_c, 10, 69, 0
13, 215280, Note_on_c, 10, 71, 76
13, 215511, Note_on_c, 10, 71, 0
13, 215520, Note_on_c, 10, 73, 52
13, 215984, Note_on_c, 10, 73, 0
13, 216000, Note_on_c, 10, 75, 52
13, 216119, Note_on_c, 10, 75, 0
13, 216180, Note_on_c, 10, 76, 52
13, 216239, Note_on_c, 10, 76, 0
13, 216240, Note_on_c, 10, 78, 52
13, 216359, Note_on_c, 10, 78, 0
13, 216420, Note_on_c, 10, 75, 52
13, 216479, Note_on_c, 10, 75, 0
13, 216480, Note_on_c, 10, 76, 52
13, 216599, Note_on_c, 10, 76, 0
13, 216660, Note_on_c, 10, 75, 52
13, 216719, Note_on_c, 10, 75, 0
13, 216720, Note_on_c, 10, 73, 52
13, 216839, Note_on_c, 10, 73, 0
13, 216900, Note_on_c, 10, 76, 52
13, 216959, Note_on_c, 10, 76, 0
13, 216960, Note_on_c, 10, 75, 52
13, 217079, Note_on_c, 10, 75, 0
13, 217140, Note_on_c, 10, 76, 52
13, 217199, Note_on_c, 10, 76, 0
13, 217200, Note_on_c, 10, 78, 52
13, 217319, Note_on_c, 10, 78, 0
13, 217380, Note_on_c, 10, 75, 52
13, 217439, Note_on_c, 10, 75, 0
13, 217440, Note_on_c, 10, 76, 52
13, 217559, Note_on_c, 10, 76, 0
13, 217620, Note_on_c, 10, 75, 52
13, 217679, Note_on_c, 10, 75, 0
13, 217680, Note_on_c, 10, 73, 52
13, 217799, Note_on_c, 10, 73, 0
13, 217860, Note_on_c, 10, 76, 52
13, 217919, Note_on_c, 10, 76, 0
13, 217920, Note_on_c, 10, 74, 52
13, 218039, Note_on_c, 10, 74, 0
13, 218640, Note_on_c, 10, 73, 76
13, 218879, Note_on_c, 10, 73, 0
13, 219120, Note_on_c, 10, 71, 76
13, 219359, Note_on_c, 10, 71, 0
13, 219600, Note_on_c, 10, 69, 76
13, 219839, Note_on_c, 10, 69, 0
13, 220080, Note_on_c, 10, 71, 76
13, 220304, Note_on_c, 10, 71, 0
13, 220320, Note_on_c, 10, 73, 52
13, 220784, Note_on_c, 10, 73, 0
13, 220800, Note_on_c, 10, 75, 52
13, 220919, Note_on_c, 10, 75, 0
13, 220980, Note_on_c, 10, 76, 52
13, 221039, Note_on_c, 10, 76, 0
13, 221040, Note_on_c, 10, 78, 52
13, 221159, Note_on_c, 10, 78, 0
13, 221220, Note_on_c, 10, 75, 52
13, 221279, Note_on_c, 10, 75, 0
13, 221280, Note_on_c, 10, 76, 52
13, 221399, Note_on_c, 10, 76, 0
13, 221460, Note_on_c, 10, 75, 52
13, 221519, Note_on_c, 10, 75, 0
13, 221520, Note_on_c, 10, 73, 52
13, 221639, Note_on_c, 10, 73, 0
13, 221700, Note_on_c, 10, 76, 52
13, 221759, Note_on_c, 10, 76, 0
13, 221760, Note_on_c, 10, 74, 52
13, 221879, Note_on_c, 10, 74, 0
13, 222240, Note_on_c, 10, 73, 52
13, 222359, Note_on_c, 10, 73, 0
13, 222720, Note_on_c, 10, 74, 52
13, 222839, Note_on_c, 10, 74, 0
13, 223200, Note_on_c, 10, 73, 52
13, 223319, Note_on_c, 10, 73, 0
13, 223680, Note_on_c, 10, 74, 52
13, 223799, Note_on_c, 10, 74, 0
13, 224160, Note_on_c, 10, 74, 52
13, 224279, Note_on_c, 10, 74, 0
13, 224340, Note_on_c, 10, 86, 53
13, 224399, Note_on_c, 10, 86, 0
13, 224400, Note_on_c, 10, 83, 53
13, 224519, Note_on_c, 10, 83, 0
13, 224580, Note_on_c, 10, 80, 54
13, 224639, Note_on_c, 10, 80, 0
13, 224640, Note_on_c, 10, 76, 54
13, 224759, Note_on_c, 10, 76, 0
13, 226560, Note_on_c, 10, 73, 65
13, 226679, Note_on_c, 10, 73, 0
13, 226740, Note_on_c, 10, 76, 66
13, 226799, Note_on_c, 10, 76, 0
13, 226800, Note_on_c, 10, 81, 66
13, 226919, Note_on_c, 10, 81, 0
13, 226980, Note_on_c, 10, 76, 67
13, 227039, Note_on_c, 10, 76, 0
13, 227040, Note_on_c, 10, 74, 68
13, 227159, Note_on_c, 10, 74, 0
13, 227220, Note_on_c, 10, 86, 69
13, 227279, Note_on_c, 10, 86, 0
13, 227280, Note_on_c, 10, 83, 69
13, 227399, Note_on_c, 10, 83, 0
13, 227460, Note_on_c, 10, 80, 70
13, 227519, Note_on_c, 10, 80, 0
13, 227520, Note_on_c, 10, 76, 70
13, 227639, Note_on_c, 10, 76, 0
13, 229440, Note_on_c, 10, 73, 81
13, 229559, Note_on_c, 10, 73, 0
13, 229620, Note_on_c, 10, 76, 82
13, 229679, Note_on_c, 10, 76, 0
13, 229680, Note_on_c, 10, 81, 82
13, 229799, Note_on_c, 10, 81, 0
13, 229860, Note_on_c, 10, 88, 83
13, 229911, Note_on_c, 10, 88, 0
13, 229920, Note_on_c, 10, 88, 84
13, 229971, Note_on_c, 10, 88, 0
13, 229980, Note_on_c, 10, 88, 84
13, 230031, Note_on_c, 10, 88, 0
13, 230040, Note_on_c, 10, 88, 84
13, 230091, Note_on_c, 10, 88, 0
13, 230100, Note_on_c, 10, 88, 84
13, 230151, Note_on_c, 10, 88, 0
13, 230160, Note_on_c, 10, 88, 84
13, 230211, Note_on_c, 10, 88, 0
13, 230220, Note_on_c, 10, 88, 84
13, 230271, Note_on_c, 10, 88, 0
13, 230280, Note_on_c, 10, 88, 84
13, 230331, Note_on_c, 10, 88, 0
13, 230340, Note_on_c, 10, 88, 84
13, 230391, Note_on_c, 10, 88, 0
13, 230400, Note_on_c, 10, 88, 84
13, 230451, Note_on_c, 10, 88, 0
13, 230460, Note_on_c, 10, 88, 84
13, 230511, Note_on_c, 10, 88, 0
13, 230520, Note_on_c, 10, 88, 84
13, 230571, Note_on_c, 10, 88, 0
13, 230580, Note_on_c, 10, 88, 84
13, 230631, Note_on_c, 10, 88, 0
13, 230640, Note_on_c, 10, 88, 84
13, 230691, Note_on_c, 10, 88, 0
13, 230700, Note_on_c, 10, 88, 84
13, 230751, Note_on_c, 10, 88, 0
13, 230760, Note_on_c, 10, 88, 84
13, 230811, Note_on_c, 10, 88, 0
13, 230820, Note_on_c, 10, 88, 84
13, 230871, Note_on_c, 10, 88, 0
13, 230880, Note_on_c, 10, 89, 92
13, 230931, Note_on_c, 10, 89, 0
13, 230940, Note_on_c, 10, 89, 84
13, 230991, Note_on_c, 10, 89, 0
13, 231000, Note_on_c, 10, 89, 84
13, 231051, Note_on_c, 10, 89, 0
13, 231060, Note_on_c, 10, 89, 84
13, 231111, Note_on_c, 10, 89, 0
13, 231120, Note_on_c, 10, 89, 84
13, 231171, Note_on_c, 10, 89, 0
13, 231180, Note_on_c, 10, 89, 84
13, 231231, Note_on_c, 10, 89, 0
13, 231240, Note_on_c, 10, 89, 84
13, 231291, Note_on_c, 10, 89, 0
13, 231300, Note_on_c, 10, 89, 84
13, 231351, Note_on_c, 10, 89, 0
13, 231360, Note_on_c, 10, 88, 92
13, 231411, Note_on_c, 10, 88, 0
13, 231420, Note_on_c, 10, 88, 84
13, 231471, Note_on_c, 10, 88, 0
13, 231480, Note_on_c, 10, 88, 84
13, 231531, Note_on_c, 10, 88, 0
13, 231540, Note_on_c, 10, 88, 84
13, 231591, Note_on_c, 10, 88, 0
13, 231600, Note_on_c, 10, 88, 84
13, 231651, Note_on_c, 10, 88, 0
13, 231660, Note_on_c, 10, 88, 84
13, 231711, Note_on_c, 10, 88, 0
13, 231720, Note_on_c, 10, 88, 84
13, 231771, Note_on_c, 10, 88, 0
13, 231780, Note_on_c, 10, 88, 84
13, 231831, Note_on_c, 10, 88, 0
13, 231840, Note_on_c, 10, 89, 92
13, 231891, Note_on_c, 10, 89, 0
13, 231900, Note_on_c, 10, 89, 84
13, 231951, Note_on_c, 10, 89, 0
13, 231960, Note_on_c, 10, 89, 84
13, 232011, Note_on_c, 10, 89, 0
13, 232020, Note_on_c, 10, 89, 84
13, 232071, Note_on_c, 10, 89, 0
13, 232080, Note_on_c, 10, 89, 84
13, 232131, Note_on_c, 10, 89, 0
13, 232140, Note_on_c, 10, 89, 84
13, 232191, Note_on_c, 10, 89, 0
13, 232200, Note_on_c, 10, 89, 84
13, 232251, Note_on_c, 10, 89, 0
13, 232260, Note_on_c, 10, 89, 84
13, 232311, Note_on_c, 10, 89, 0
13, 232320, Note_on_c, 10, 88, 92
13, 232371, Note_on_c, 10, 88, 0
13, 232380, Note_on_c, 10, 88, 84
13, 232431, Note_on_c, 10, 88, 0
13, 232440, Note_on_c, 10, 88, 84
13, 232491, Note_on_c, 10, 88, 0
13, 232500, Note_on_c, 10, 88, 84
13, 232551, Note_on_c, 10, 88, 0
13, 232560, Note_on_c, 10, 88, 84
13, 232611, Note_on_c, 10, 88, 0
13, 232620, Note_on_c, 10, 88, 84
13, 232671, Note_on_c, 10, 88, 0
13, 232680, Note_on_c, 10, 88, 84
13, 232731, Note_on_c, 10, 88, 0
13, 232740, Note_on_c, 10, 88, 84
13, 232791, Note_on_c, 10, 88, 0
13, 232800, Note_on_c, 10, 88, 84
13, 232851, Note_on_c, 10, 88, 0
13, 232860, Note_on_c, 10, 88, 84
13, 232911, Note_on_c, 10, 88, 0
13, 232920, Note_on_c, 10, 88, 84
13, 232971, Note_on_c, 10, 88, 0
13, 232980, Note_on_c, 10, 88, 84
13, 233031, Note_on_c, 10, 88, 0
13, 233040, Note_on_c, 10, 88, 84
13, 233091, Note_on_c, 10, 88, 0
13, 233100, Note_on_c, 10, 88, 84
13, 233151, Note_on_c, 10, 88, 0
13, 233160, Note_on_c, 10, 88, 84
13, 233211, Note_on_c, 10, 88, 0
13, 233220, Note_on_c, 10, 88, 84
13, 233271, Note_on_c, 10, 88, 0
13, 233280, Note_on_c, 10, 88, 84
13, 233331, Note_on_c, 10, 88, 0
13, 233340, Note_on_c, 10, 88, 84
13, 233391, Note_on_c, 10, 88, 0
13, 233400, Note_on_c, 10, 88, 84
13, 233451, Note_on_c, 10, 88, 0
13, 233460, Note_on_c, 10, 88, 84
13, 233511, Note_on_c, 10, 88, 0
13, 233520, Note_on_c, 10, 88, 84
13, 233571, Note_on_c, 10, 88, 0
13, 233580, Note_on_c, 10, 88, 84
13, 233631, Note_on_c, 10, 88, 0
13, 233640, Note_on_c, 10, 88, 84
13, 233691, Note_on_c, 10, 88, 0
13, 233700, Note_on_c, 10, 88, 84
13, 233751, Note_on_c, 10, 88, 0
13, 233760, Note_on_c, 10, 89, 92
13, 233811, Note_on_c, 10, 89, 0
13, 233820, Note_on_c, 10, 89, 84
13, 233871, Note_on_c, 10, 89, 0
13, 233880, Note_on_c, 10, 89, 84
13, 233931, Note_on_c, 10, 89, 0
13, 233940, Note_on_c, 10, 89, 84
13, 233991, Note_on_c, 10, 89, 0
13, 234000, Note_on_c, 10, 89, 84
13, 234051, Note_on_c, 10, 89, 0
13, 234060, Note_on_c, 10, 89, 84
13, 234111, Note_on_c, 10, 89, 0
13, 234120, Note_on_c, 10, 89, 84
13, 234171, Note_on_c, 10, 89, 0
13, 234180, Note_on_c, 10, 89, 84
13, 234231, Note_on_c, 10, 89, 0
13, 234240, Note_on_c, 10, 88, 92
13, 234291, Note_on_c, 10, 88, 0
13, 234300, Note_on_c, 10, 88, 84
13, 234351, Note_on_c, 10, 88, 0
13, 234360, Note_on_c, 10, 88, 84
13, 234411, Note_on_c, 10, 88, 0
13, 234420, Note_on_c, 10, 88, 84
13, 234471, Note_on_c, 10, 88, 0
13, 234480, Note_on_c, 10, 88, 84
13, 234531, Note_on_c, 10, 88, 0
13, 234540, Note_on_c, 10, 88, 84
13, 234591, Note_on_c, 10, 88, 0
13, 234600, Note_on_c, 10, 88, 84
13, 234651, Note_on_c, 10, 88, 0
13, 234660, Note_on_c, 10, 88, 84
13, 234711, Note_on_c, 10, 88, 0
13, 234720, Note_on_c, 10, 89, 92
13, 234771, Note_on_c, 10, 89, 0
13, 234780, Note_on_c, 10, 89, 84
13, 234831, Note_on_c, 10, 89, 0
13, 234840, Note_on_c, 10, 89, 84
13, 234891, Note_on_c, 10, 89, 0
13, 234900, Note_on_c, 10, 89, 84
13, 234951, Note_on_c, 10, 89, 0
13, 234960, Note_on_c, 10, 89, 84
13, 235011, Note_on_c, 10, 89, 0
13, 235020, Note_on_c, 10, 89, 84
13, 235071, Note_on_c, 10, 89, 0
13, 235080, Note_on_c, 10, 89, 84
13, 235131, Note_on_c, 10, 89, 0
13, 235140, Note_on_c, 10, 89, 84
13, 235191, Note_on_c, 10, 89, 0
13, 235200, Note_on_c, 10, 87, 92
13, 235251, Note_on_c, 10, 87, 0
13, 235260, Note_on_c, 10, 87, 84
13, 235311, Note_on_c, 10, 87, 0
13, 235320, Note_on_c, 10, 87, 84
13, 235371, Note_on_c, 10, 87, 0
13, 235380, Note_on_c, 10, 87, 84
13, 235431, Note_on_c, 10, 87, 0
13, 235440, Note_on_c, 10, 87, 84
13, 235491, Note_on_c, 10, 87, 0
13, 235500, Note_on_c, 10, 87, 84
13, 235551, Note_on_c, 10, 87, 0
13, 235560, Note_on_c, 10, 87, 84
13, 235611, Note_on_c, 10, 87, 0
13, 235620, Note_on_c, 10, 87, 84
13, 235671, Note_on_c, 10, 87, 0
13, 235680, Note_on_c, 10, 88, 92
13, 235680, Note_on_c, 10, 76, 92
13, 235731, Note_on_c, 10, 88, 0
13, 235731, Note_on_c, 10, 76, 0
13, 235740, Note_on_c, 10, 88, 84
13, 235740, Note_on_c, 10, 76, 84
13, 235791, Note_on_c, 10, 88, 0
13, 235791, Note_on_c, 10, 76, 0
13, 235800, Note_on_c, 10, 88, 84
13, 235800, Note_on_c, 10, 76, 84
13, 235851, Note_on_c, 10, 88, 0
13, 235851, Note_on_c, 10, 76, 0
13, 235860, Note_on_c, 10, 76, 84
13, 235860, Note_on_c, 10, 88, 84
13, 235911, Note_on_c, 10, 76, 0
13, 235911, Note_on_c, 10, 88, 0
13, 235920, Note_on_c, 10, 88, 84
13, 235920, Note_on_c, 10, 76, 84
13, 235971, Note_on_c, 10, 88, 0
13, 235971, Note_on_c, 10, 76, 0
13, 235980, Note_on_c, 10, 76, 84
13, 235980, Note_on_c, 10, 88, 84
13, 236031, Note_on_c, 10, 76, 0
13, 236031, Note_on_c, 10, 88, 0
13, 236040, Note_on_c, 10, 76, 84
13, 236040, Note_on_c, 10, 88, 84
13, 236091, Note_on_c, 10, 76, 0
13, 236091, Note_on_c, 10, 88, 0
13, 236100, Note_on_c, 10, 76, 84
13, 236100, Note_on_c, 10, 88, 84
13, 236151, Note_on_c, 10, 76, 0
13, 236151, Note_on_c, 10, 88, 0
13, 236160, Note_on_c, 10, 88, 92
13, 236160, Note_on_c, 10, 76, 92
13, 236211, Note_on_c, 10, 88, 0
13, 236211, Note_on_c, 10, 76, 0
13, 236220, Note_on_c, 10, 76, 84
13, 236220, Note_on_c, 10, 88, 84
13, 236271, Note_on_c, 10, 76, 0
13, 236271, Note_on_c, 10, 88, 0
13, 236280, Note_on_c, 10, 76, 84
13, 236280, Note_on_c, 10, 88, 84
13, 236331, Note_on_c, 10, 76, 0
13, 236331, Note_on_c, 10, 88, 0
13, 236340, Note_on_c, 10, 88, 84
13, 236340, Note_on_c, 10, 76, 84
13, 236391, Note_on_c, 10, 88, 0
13, 236391, Note_on_c, 10, 76, 0
13, 236400, Note_on_c, 10, 76, 84
13, 236400, Note_on_c, 10, 88, 84
13, 236451, Note_on_c, 10, 76, 0
13, 236451, Note_on_c, 10, 88, 0
13, 236460, Note_on_c, 10, 76, 84
13, 236460, Note_on_c, 10, 88, 84
13, 236511, Note_on_c, 10, 76, 0
13, 236511, Note_on_c, 10, 88, 0
13, 236520, Note_on_c, 10, 88, 84
13, 236520, Note_on_c, 10, 76, 84
13, 236571, Note_on_c, 10, 88, 0
13, 236571, Note_on_c, 10, 76, 0
13, 236580, Note_on_c, 10, 88, 84
13, 236580, Note_on_c, 10, 76, 84
13, 236631, Note_on_c, 10, 88, 0
13, 236631, Note_on_c, 10, 76, 0
13, 236640, Note_on_c, 10, 69, 84
13, 236640, Note_on_c, 10, 88, 84
13, 236691, Note_on_c, 10, 69, 0
13, 236691, Note_on_c, 10, 88, 0
13, 236700, Note_on_c, 10, 69, 84
13, 236700, Note_on_c, 10, 88, 84
13, 236751, Note_on_c, 10, 69, 0
13, 236751, Note_on_c, 10, 88, 0
13, 236760, Note_on_c, 10, 88, 84
13, 236760, Note_on_c, 10, 69, 84
13, 236811, Note_on_c, 10, 88, 0
13, 236811, Note_on_c, 10, 69, 0
13, 236820, Note_on_c, 10, 69, 84
13, 236820, Note_on_c, 10, 88, 84
13, 236871, Note_on_c, 10, 69, 0
13, 236871, Note_on_c, 10, 88, 0
13, 236880, Note_on_c, 10, 89, 92
13, 236880, Note_on_c, 10, 69, 92
13, 236931, Note_on_c, 10, 89, 0
13, 236931, Note_on_c, 10, 69, 0
13, 236940, Note_on_c, 10, 69, 84
13, 236940, Note_on_c, 10, 89, 84
13, 236991, Note_on_c, 10, 69, 0
13, 236991, Note_on_c, 10, 89, 0
13, 237000, Note_on_c, 10, 69, 84
13, 237000, Note_on_c, 10, 89, 84
13, 237051, Note_on_c, 10, 69, 0
13, 237051, Note_on_c, 10, 89, 0
13, 237060, Note_on_c, 10, 89, 84
13, 237060, Note_on_c, 10, 69, 84
13, 237111, Note_on_c, 10, 89, 0
13, 237111, Note_on_c, 10, 69, 0
13, 237120, Note_on_c, 10, 69, 84
13, 237120, Note_on_c, 10, 89, 84
13, 237171, Note_on_c, 10, 69, 0
13, 237171, Note_on_c, 10, 89, 0
13, 237180, Note_on_c, 10, 89, 84
13, 237180, Note_on_c, 10, 69, 84
13, 237231, Note_on_c, 10, 89, 0
13, 237231, Note_on_c, 10, 69, 0
13, 237240, Note_on_c, 10, 69, 84
13, 237240, Note_on_c, 10, 89, 84
13, 237291, Note_on_c, 10, 69, 0
13, 237291, Note_on_c, 10, 89, 0
13, 237300, Note_on_c, 10, 89, 84
13, 237300, Note_on_c, 10, 69, 84
13, 237351, Note_on_c, 10, 89, 0
13, 237351, Note_on_c, 10, 69, 0
13, 237360, Note_on_c, 10, 69, 84
13, 237360, Note_on_c, 10, 89, 84
13, 237411, Note_on_c, 10, 69, 0
13, 237411, Note_on_c, 10, 89, 0
13, 237420, Note_on_c, 10, 69, 84
13, 237420, Note_on_c, 10, 89, 84
13, 237471, Note_on_c, 10, 69, 0
13, 237471, Note_on_c, 10, 89, 0
13, 237480, Note_on_c, 10, 69, 84
13, 237480, Note_on_c, 10, 89, 84
13, 237531, Note_on_c, 10, 69, 0
13, 237531, Note_on_c, 10, 89, 0
13, 237540, Note_on_c, 10, 89, 84
13, 237540, Note_on_c, 10, 69, 84
13, 237591, Note_on_c, 10, 89, 0
13, 237591, Note_on_c, 10, 69, 0
13, 237600, Note_on_c, 10, 69, 84
13, 237600, Note_on_c, 10, 88, 84
13, 237651, Note_on_c, 10, 69, 0
13, 237651, Note_on_c, 10, 88, 0
13, 237660, Note_on_c, 10, 69, 84
13, 237660, Note_on_c, 10, 88, 84
13, 237711, Note_on_c, 10, 69, 0
13, 237711, Note_on_c, 10, 88, 0
13, 237720, Note_on_c, 10, 69, 84
13, 237720, Note_on_c, 10, 88, 84
13, 237771, Note_on_c, 10, 69, 0
13, 237771, Note_on_c, 10, 88, 0
13, 237780, Note_on_c, 10, 88, 84
13, 237780, Note_on_c, 10, 69, 84
13, 237831, Note_on_c, 10, 88, 0
13, 237831, Note_on_c, 10, 69, 0
13, 237840, Note_on_c, 10, 89, 92
13, 237840, Note_on_c, 10, 69, 92
13, 237891, Note_on_c, 10, 89, 0
13, 237891, Note_on_c, 10, 69, 0
13, 237900, Note_on_c, 10, 89, 84
13, 237900, Note_on_c, 10, 69, 84
13, 237951, Note_on_c, 10, 89, 0
13, 237951, Note_on_c, 10, 69, 0
13, 237960, Note_on_c, 10, 69, 84
13, 237960, Note_on_c, 10, 89, 84
13, 238011, Note_on_c, 10, 69, 0
13, 238011, Note_on_c, 10, 89, 0
13, 238020, Note_on_c, 10, 69, 84
13, 238020, Note_on_c, 10, 89, 84
13, 238071, Note_on_c, 10, 69, 0
13, 238071, Note_on_c, 10, 89, 0
13, 238080, Note_on_c, 10, 89, 84
13, 238080, Note_on_c, 10, 69, 84
13, 238131, Note_on_c, 10, 89, 0
13, 238131, Note_on_c, 10, 69, 0
13, 238140, Note_on_c, 10, 89, 84
13, 238140, Note_on_c, 10, 69, 84
13, 238191, Note_on_c, 10, 89, 0
13, 238191, Note_on_c, 10, 69, 0
13, 238200, Note_on_c, 10, 89, 84
13, 238200, Note_on_c, 10, 69, 84
13, 238251, Note_on_c, 10, 89, 0
13, 238251, Note_on_c, 10, 69, 0
13, 238260, Note_on_c, 10, 89, 84
13, 238260, Note_on_c, 10, 69, 84
13, 238311, Note_on_c, 10, 89, 0
13, 238311, Note_on_c, 10, 69, 0
13, 238320, Note_on_c, 10, 69, 84
13, 238320, Note_on_c, 10, 89, 84
13, 238371, Note_on_c, 10, 69, 0
13, 238371, Note_on_c, 10, 89, 0
13, 238380, Note_on_c, 10, 89, 84
13, 238380, Note_on_c, 10, 69, 84
13, 238431, Note_on_c, 10, 89, 0
13, 238431, Note_on_c, 10, 69, 0
13, 238440, Note_on_c, 10, 69, 84
13, 238440, Note_on_c, 10, 89, 84
13, 238491, Note_on_c, 10, 69, 0
13, 238491, Note_on_c, 10, 89, 0
13, 238500, Note_on_c, 10, 89, 84
13, 238500, Note_on_c, 10, 69, 84
13, 238551, Note_on_c, 10, 89, 0
13, 238551, Note_on_c, 10, 69, 0
13, 238560, Note_on_c, 10, 88, 84
13, 238560, Note_on_c, 10, 69, 84
13, 238611, Note_on_c, 10, 88, 0
13, 238611, Note_on_c, 10, 69, 0
13, 238620, Note_on_c, 10, 69, 84
13, 238620, Note_on_c, 10, 88, 84
13, 238671, Note_on_c, 10, 69, 0
13, 238671, Note_on_c, 10, 88, 0
13, 238680, Note_on_c, 10, 69, 84
13, 238680, Note_on_c, 10, 88, 84
13, 238731, Note_on_c, 10, 69, 0
13, 238731, Note_on_c, 10, 88, 0
13, 238740, Note_on_c, 10, 69, 84
13, 238740, Note_on_c, 10, 88, 84
13, 238791, Note_on_c, 10, 69, 0
13, 238791, Note_on_c, 10, 88, 0
13, 238800, Note_on_c, 10, 89, 92
13, 238800, Note_on_c, 10, 69, 92
13, 238851, Note_on_c, 10, 89, 0
13, 238851, Note_on_c, 10, 69, 0
13, 238860, Note_on_c, 10, 89, 84
13, 238860, Note_on_c, 10, 69, 84
13, 238911, Note_on_c, 10, 89, 0
13, 238911, Note_on_c, 10, 69, 0
13, 238920, Note_on_c, 10, 89, 84
13, 238920, Note_on_c, 10, 69, 84
13, 238971, Note_on_c, 10, 89, 0
13, 238971, Note_on_c, 10, 69, 0
13, 238980, Note_on_c, 10, 69, 84
13, 238980, Note_on_c, 10, 89, 84
13, 239031, Note_on_c, 10, 69, 0
13, 239031, Note_on_c, 10, 89, 0
13, 239040, Note_on_c, 10, 88, 84
13, 239040, Note_on_c, 10, 69, 84
13, 239091, Note_on_c, 10, 88, 0
13, 239091, Note_on_c, 10, 69, 0
13, 239100, Note_on_c, 10, 69, 84
13, 239100, Note_on_c, 10, 88, 84
13, 239151, Note_on_c, 10, 69, 0
13, 239151, Note_on_c, 10, 88, 0
13, 239160, Note_on_c, 10, 88, 84
13, 239160, Note_on_c, 10, 69, 84
13, 239211, Note_on_c, 10, 88, 0
13, 239211, Note_on_c, 10, 69, 0
13, 239220, Note_on_c, 10, 69, 84
13, 239220, Note_on_c, 10, 88, 84
13, 239271, Note_on_c, 10, 69, 0
13, 239271, Note_on_c, 10, 88, 0
13, 239280, Note_on_c, 10, 89, 92
13, 239280, Note_on_c, 10, 69, 92
13, 239331, Note_on_c, 10, 89, 0
13, 239331, Note_on_c, 10, 69, 0
13, 239340, Note_on_c, 10, 89, 84
13, 239340, Note_on_c, 10, 69, 84
13, 239391, Note_on_c, 10, 89, 0
13, 239391, Note_on_c, 10, 69, 0
13, 239400, Note_on_c, 10, 89, 84
13, 239400, Note_on_c, 10, 69, 84
13, 239451, Note_on_c, 10, 89, 0
13, 239451, Note_on_c, 10, 69, 0
13, 239460, Note_on_c, 10, 69, 84
13, 239460, Note_on_c, 10, 89, 84
13, 239511, Note_on_c, 10, 69, 0
13, 239511, Note_on_c, 10, 89, 0
13, 239520, Note_on_c, 10, 88, 84
13, 239520, Note_on_c, 10, 69, 84
13, 239571, Note_on_c, 10, 88, 0
13, 239571, Note_on_c, 10, 69, 0
13, 239580, Note_on_c, 10, 88, 84
13, 239580, Note_on_c, 10, 69, 84
13, 239631, Note_on_c, 10, 88, 0
13, 239631, Note_on_c, 10, 69, 0
13, 239640, Note_on_c, 10, 69, 84
13, 239640, Note_on_c, 10, 88, 84
13, 239691, Note_on_c, 10, 69, 0
13, 239691, Note_on_c, 10, 88, 0
13, 239700, Note_on_c, 10, 88, 84
13, 239700, Note_on_c, 10, 69, 84
13, 239751, Note_on_c, 10, 88, 0
13, 239751, Note_on_c, 10, 69, 0
13, 239760, Note_on_c, 10, 89, 92
13, 239760, Note_on_c, 10, 69, 92
13, 239811, Note_on_c, 10, 89, 0
13, 239811, Note_on_c, 10, 69, 0
13, 239820, Note_on_c, 10, 89, 84
13, 239820, Note_on_c, 10, 69, 84
13, 239871, Note_on_c, 10, 89, 0
13, 239871, Note_on_c, 10, 69, 0
13, 239880, Note_on_c, 10, 89, 84
13, 239880, Note_on_c, 10, 69, 84
13, 239931, Note_on_c, 10, 89, 0
13, 239931, Note_on_c, 10, 69, 0
13, 239940, Note_on_c, 10, 69, 84
13, 239940, Note_on_c, 10, 89, 84
13, 239991, Note_on_c, 10, 69, 0
13, 239991, Note_on_c, 10, 89, 0
13, 240000, Note_on_c, 10, 88, 84
13, 240000, Note_on_c, 10, 69, 84
13, 240051, Note_on_c, 10, 88, 0
13, 240051, Note_on_c, 10, 69, 0
13, 240060, Note_on_c, 10, 69, 84
13, 240060, Note_on_c, 10, 88, 84
13, 240111, Note_on_c, 10, 69, 0
13, 240111, Note_on_c, 10, 88, 0
13, 240120, Note_on_c, 10, 88, 84
13, 240120, Note_on_c, 10, 69, 84
13, 240171, Note_on_c, 10, 88, 0
13, 240171, Note_on_c, 10, 69, 0
13, 240180, Note_on_c, 10, 69, 84
13, 240180, Note_on_c, 10, 88, 84
13, 240231, Note_on_c, 10, 69, 0
13, 240231, Note_on_c, 10, 88, 0
13, 240240, Note_on_c, 10, 88, 84
13, 240240, Note_on_c, 10, 69, 84
13, 240291, Note_on_c, 10, 88, 0
13, 240291, Note_on_c, 10, 69, 0
13, 240300, Note_on_c, 10, 88, 84
13, 240300, Note_on_c, 10, 69, 84
13, 240351, Note_on_c, 10, 88, 0
13, 240351, Note_on_c, 10, 69, 0
13, 240360, Note_on_c, 10, 69, 84
13, 240360, Note_on_c, 10, 88, 84
13, 240411, Note_on_c, 10, 69, 0
13, 240411, Note_on_c, 10, 88, 0
13, 240420, Note_on_c, 10, 88, 84
13, 240420, Note_on_c, 10, 69, 84
13, 240471, Note_on_c, 10, 88, 0
13, 240471, Note_on_c, 10, 69, 0
13, 240480, Note_on_c, 10, 69, 84
13, 240480, Note_on_c, 10, 88, 84
13, 240599, Note_on_c, 10, 69, 0
13, 240599, Note_on_c, 10, 88, 0
13, 241440, Note_on_c, 10, 91, 84
13, 241440, Note_on_c, 10, 69, 84
13, 241559, Note_on_c, 10, 91, 0
13, 241559, Note_on_c, 10, 69, 0
13, 242400, Note_on_c, 10, 91, 84
13, 242400, Note_on_c, 10, 69, 84
13, 242519, Note_on_c, 10, 91, 0
13, 242519, Note_on_c, 10, 69, 0
13, 242880, Note_on_c, 10, 69, 84
13, 242880, Note_on_c, 10, 91, 84
13, 242999, Note_on_c, 10, 69, 0
13, 242999, Note_on_c, 10, 91, 0
13, 243360, Note_on_c, 10, 69, 84
13, 243360, Note_on_c, 10, 91, 84
13, 243479, Note_on_c, 10, 69, 0
13, 243479, Note_on_c, 10, 91, 0
13, 243840, Note_on_c, 10, 91, 84
13, 243840, Note_on_c, 10, 69, 84
13, 243959, Note_on_c, 10, 91, 0
13, 243959, Note_on_c, 10, 69, 0
13, 244320, Note_on_c, 10, 78, 76
13, 244320, Note_on_c, 10, 66, 76
13, 244320, Note_on_c, 10, 73, 76
13, 244409, Note_on_c, 10, 78, 0
13, 244409, Note_on_c, 10, 66, 0
13, 244409, Note_on_c, 10, 73, 0
13, 244440, Note_on_c, 10, 73, 76
13, 244499, Note_on_c, 10, 73, 0
13, 244500, Note_on_c, 10, 74, 76
13, 244559, Note_on_c, 10, 74, 0
13, 244560, Note_on_c, 10, 78, 76
13, 244619, Note_on_c, 10, 78, 0
13, 244620, Note_on_c, 10, 76, 76
13, 244679, Note_on_c, 10, 76, 0
13, 244680, Note_on_c, 10, 74, 76
13, 244739, Note_on_c, 10, 74, 0
13, 244740, Note_on_c, 10, 73, 76
13, 244791, Note_on_c, 10, 73, 0
13, 244800, Note_on_c, 10, 78, 76
13, 245039, Note_on_c, 10, 78, 0
13, 245040, Note_on_c, 10, 76, 76
13, 245279, Note_on_c, 10, 76, 0
13, 245280, Note_on_c, 10, 74, 76
13, 245519, Note_on_c, 10, 74, 0
13, 245520, Note_on_c, 10, 73, 76
13, 245759, Note_on_c, 10, 73, 0
13, 245760, Note_on_c, 10, 71, 76
13, 245999, Note_on_c, 10, 71, 0
13, 246000, Note_on_c, 10, 73, 76
13, 246224, Note_on_c, 10, 73, 0
13, 246240, Note_on_c, 10, 74, 76
13, 246329, Note_on_c, 10, 74, 0
13, 246360, Note_on_c, 10, 71, 76
13, 246419, Note_on_c, 10, 71, 0
13, 246420, Note_on_c, 10, 73, 76
13, 246479, Note_on_c, 10, 73, 0
13, 246480, Note_on_c, 10, 76, 76
13, 246539, Note_on_c, 10, 76, 0
13, 246540, Note_on_c, 10, 74, 76
13, 246599, Note_on_c, 10, 74, 0
13, 246600, Note_on_c, 10, 73, 76
13, 246659, Note_on_c, 10, 73, 0
13, 246660, Note_on_c, 10, 71, 76
13, 246711, Note_on_c, 10, 71, 0
13, 246720, Note_on_c, 10, 78, 76
13, 246959, Note_on_c, 10, 78, 0
13, 246960, Note_on_c, 10, 76, 76
13, 247199, Note_on_c, 10, 76, 0
13, 247200, Note_on_c, 10, 74, 76
13, 247439, Note_on_c, 10, 74, 0
13, 247440, Note_on_c, 10, 73, 76
13, 247679, Note_on_c, 10, 73, 0
13, 247680, Note_on_c, 10, 71, 76
13, 247919, Note_on_c, 10, 71, 0
13, 247920, Note_on_c, 10, 73, 76
13, 248159, Note_on_c, 10, 73, 0
13, 248160, Note_on_c, 10, 74, 76
13, 248279, Note_on_c, 10, 74, 0
13, 249720, Note_on_c, 10, 76, 76
13, 249779, Note_on_c, 10, 76, 0
13, 249780, Note_on_c, 10, 78, 76
13, 249839, Note_on_c, 10, 78, 0
13, 249840, Note_on_c, 10, 81, 76
13, 249899, Note_on_c, 10, 81, 0
13, 249900, Note_on_c, 10, 80, 76
13, 249959, Note_on_c, 10, 80, 0
13, 249960, Note_on_c, 10, 78, 76
13, 250019, Note_on_c, 10, 78, 0
13, 250020, Note_on_c, 10, 76, 76
13, 250071, Note_on_c, 10, 76, 0
13, 250080, Note_on_c, 10, 81, 76
13, 250199, Note_on_c, 10, 81, 0
13, 251640, Note_on_c, 10, 76, 76
13, 251699, Note_on_c, 10, 76, 0
13, 251700, Note_on_c, 10, 78, 76
13, 251759, Note_on_c, 10, 78, 0
13, 251760, Note_on_c, 10, 81, 76
13, 251819, Note_on_c, 10, 81, 0
13, 251820, Note_on_c, 10, 79, 76
13, 251879, Note_on_c, 10, 79, 0
13, 251880, Note_on_c, 10, 78, 76
13, 251939, Note_on_c, 10, 78, 0
13, 251940, Note_on_c, 10, 76, 76
13, 251991, Note_on_c, 10, 76, 0
13, 252000, Note_on_c, 10, 81, 76
13, 252239, Note_on_c, 10, 81, 0
13, 252240, Note_on_c, 10, 79, 76
13, 252479, Note_on_c, 10, 79, 0
13, 252480, Note_on_c, 10, 78, 76
13, 252719, Note_on_c, 10, 78, 0
13, 252720, Note_on_c, 10, 76, 76
13, 252959, Note_on_c, 10, 76, 0
13, 252960, Note_on_c, 10, 74, 76
13, 253049, Note_on_c, 10, 74, 0
13, 253080, Note_on_c, 10, 74, 76
13, 253139, Note_on_c, 10, 74, 0
13, 253140, Note_on_c, 10, 76, 76
13, 253199, Note_on_c, 10, 76, 0
13, 253200, Note_on_c, 10, 78, 76
13, 253259, Note_on_c, 10, 78, 0
13, 253260, Note_on_c, 10, 76, 76
13, 253319, Note_on_c, 10, 76, 0
13, 253320, Note_on_c, 10, 74, 76
13, 253379, Note_on_c, 10, 74, 0
13, 253380, Note_on_c, 10, 73, 76
13, 253439, Note_on_c, 10, 73, 0
13, 253440, Note_on_c, 10, 71, 76
13, 253529, Note_on_c, 10, 71, 0
13, 254040, Note_on_c, 10, 74, 76
13, 254099, Note_on_c, 10, 74, 0
13, 254100, Note_on_c, 10, 76, 76
13, 254159, Note_on_c, 10, 76, 0
13, 254160, Note_on_c, 10, 78, 76
13, 254219, Note_on_c, 10, 78, 0
13, 254220, Note_on_c, 10, 76, 76
13, 254279, Note_on_c, 10, 76, 0
13, 254280, Note_on_c, 10, 74, 76
13, 254339, Note_on_c, 10, 74, 0
13, 254340, Note_on_c, 10, 73, 76
13, 254399, Note_on_c, 10, 73, 0
13, 254400, Note_on_c, 10, 71, 76
13, 254489, Note_on_c, 10, 71, 0
13, 255000, Note_on_c, 10, 74, 76
13, 255059, Note_on_c, 10, 74, 0
13, 255060, Note_on_c, 10, 76, 76
13, 255119, Note_on_c, 10, 76, 0
13, 255120, Note_on_c, 10, 77, 76
13, 255179, Note_on_c, 10, 77, 0
13, 255180, Note_on_c, 10, 76, 76
13, 255239, Note_on_c, 10, 76, 0
13, 255240, Note_on_c, 10, 74, 76
13, 255299, Note_on_c, 10, 74, 0
13, 255300, Note_on_c, 10, 72, 76
13, 255359, Note_on_c, 10, 72, 0
13, 255360, Note_on_c, 10, 71, 76
13, 255449, Note_on_c, 10, 71, 0
13, 257400, Note_on_c, 10, 72, 76
13, 257459, Note_on_c, 10, 72, 0
13, 257460, Note_on_c, 10, 74, 76
13, 257519, Note_on_c, 10, 74, 0
13, 257520, Note_on_c, 10, 77, 76
13, 257579, Note_on_c, 10, 77, 0
13, 257580, Note_on_c, 10, 75, 76
13, 257639, Note_on_c, 10, 75, 0
13, 257640, Note_on_c, 10, 74, 76
13, 257699, Note_on_c, 10, 74, 0
13, 257700, Note_on_c, 10, 72, 76
13, 257759, Note_on_c, 10, 72, 0
13, 257760, Note_on_c, 10, 79, 76
13, 257849, Note_on_c, 10, 79, 0
13, 258360, Note_on_c, 10, 72, 76
13, 258419, Note_on_c, 10, 72, 0
13, 258420, Note_on_c, 10, 74, 76
13, 258479, Note_on_c, 10, 74, 0
13, 258480, Note_on_c, 10, 75, 76
13, 258539, Note_on_c, 10, 75, 0
13, 258540, Note_on_c, 10, 74, 76
13, 258599, Note_on_c, 10, 74, 0
13, 258600, Note_on_c, 10, 72, 76
13, 258659, Note_on_c, 10, 72, 0
13, 258660, Note_on_c, 10, 70, 76
13, 258719, Note_on_c, 10, 70, 0
13, 258720, Note_on_c, 10, 69, 76
13, 258809, Note_on_c, 10, 69, 0
13, 260280, Note_on_c, 10, 70, 76
13, 260339, Note_on_c, 10, 70, 0
13, 260340, Note_on_c, 10, 72, 76
13, 260399, Note_on_c, 10, 72, 0
13, 260400, Note_on_c, 10, 75, 76
13, 260459, Note_on_c, 10, 75, 0
13, 260460, Note_on_c, 10, 73, 76
13, 260519, Note_on_c, 10, 73, 0
13, 260520, Note_on_c, 10, 72, 76
13, 260579, Note_on_c, 10, 72, 0
13, 260580, Note_on_c, 10, 70, 76
13, 260639, Note_on_c, 10, 70, 0
13, 260640, Note_on_c, 10, 77, 76
13, 260729, Note_on_c, 10, 77, 0
13, 261240, Note_on_c, 10, 69, 76
13, 261299, Note_on_c, 10, 69, 0
13, 261300, Note_on_c, 10, 70, 76
13, 261359, Note_on_c, 10, 70, 0
13, 261360, Note_on_c, 10, 74, 76
13, 261419, Note_on_c, 10, 74, 0
13, 261420, Note_on_c, 10, 72, 76
13, 261479, Note_on_c, 10, 72, 0
13, 261480, Note_on_c, 10, 70, 76
13, 261539, Note_on_c, 10, 70, 0
13, 261540, Note_on_c, 10, 69, 76
13, 261591, Note_on_c, 10, 69, 0
13, 261600, Note_on_c, 10, 69, 76
13, 261689, Note_on_c, 10, 69, 0
13, 263160, Note_on_c, 10, 69, 76
13, 263219, Note_on_c, 10, 69, 0
13, 263220, Note_on_c, 10, 71, 76
13, 263279, Note_on_c, 10, 71, 0
13, 263280, Note_on_c, 10, 74, 76
13, 263339, Note_on_c, 10, 74, 0
13, 263340, Note_on_c, 10, 72, 76
13, 263399, Note_on_c, 10, 72, 0
13, 263400, Note_on_c, 10, 71, 76
13, 263459, Note_on_c, 10, 71, 0
13, 263460, Note_on_c, 10, 69, 76
13, 263519, Note_on_c, 10, 69, 0
13, 263520, Note_on_c, 10, 76, 76
13, 263609, Note_on_c, 10, 76, 0
13, 263640, Note_on_c, 10, 69, 76
13, 263699, Note_on_c, 10, 69, 0
13, 263700, Note_on_c, 10, 71, 76
13, 263759, Note_on_c, 10, 71, 0
13, 263760, Note_on_c, 10, 74, 76
13, 263819, Note_on_c, 10, 74, 0
13, 263820, Note_on_c, 10, 72, 76
13, 263879, Note_on_c, 10, 72, 0
13, 263880, Note_on_c, 10, 71, 76
13, 263939, Note_on_c, 10, 71, 0
13, 263940, Note_on_c, 10, 69, 76
13, 263999, Note_on_c, 10, 69, 0
13, 264000, Note_on_c, 10, 76, 76
13, 264089, Note_on_c, 10, 76, 0
13, 264120, Note_on_c, 10, 69, 76
13, 264179, Note_on_c, 10, 69, 0
13, 264180, Note_on_c, 10, 71, 76
13, 264239, Note_on_c, 10, 71, 0
13, 264240, Note_on_c, 10, 74, 76
13, 264299, Note_on_c, 10, 74, 0
13, 264300, Note_on_c, 10, 72, 76
13, 264359, Note_on_c, 10, 72, 0
13, 264360, Note_on_c, 10, 71, 76
13, 264419, Note_on_c, 10, 71, 0
13, 264420, Note_on_c, 10, 69, 76
13, 264479, Note_on_c, 10, 69, 0
13, 264480, Note_on_c, 10, 76, 77
13, 264569, Note_on_c, 10, 76, 0
13, 264600, Note_on_c, 10, 71, 77
13, 264659, Note_on_c, 10, 71, 0
13, 264660, Note_on_c, 10, 72, 77
13, 264719, Note_on_c, 10, 72, 0
13, 264720, Note_on_c, 10, 76, 77
13, 264779, Note_on_c, 10, 76, 0
13, 264780, Note_on_c, 10, 74, 77
13, 264839, Note_on_c, 10, 74, 0
13, 264840, Note_on_c, 10, 72, 77
13, 264899, Note_on_c, 10, 72, 0
13, 264900, Note_on_c, 10, 71, 77
13, 264959, Note_on_c, 10, 71, 0
13, 264960, Note_on_c, 10, 76, 77
13, 265049, Note_on_c, 10, 76, 0
13, 265080, Note_on_c, 10, 71, 77
13, 265139, Note_on_c, 10, 71, 0
13, 265140, Note_on_c, 10, 72, 77
13, 265199, Note_on_c, 10, 72, 0
13, 265200, Note_on_c, 10, 76, 77
13, 265259, Note_on_c, 10, 76, 0
13, 265260, Note_on_c, 10, 74, 77
13, 265319, Note_on_c, 10, 74, 0
13, 265320, Note_on_c, 10, 72, 77
13, 265379, Note_on_c, 10, 72, 0
13, 265380, Note_on_c, 10, 71, 77
13, 265439, Note_on_c, 10, 71, 0
13, 265440, Note_on_c, 10, 76, 78
13, 265529, Note_on_c, 10, 76, 0
13, 267480, Note_on_c, 10, 73, 80
13, 267539, Note_on_c, 10, 73, 0
13, 267540, Note_on_c, 10, 74, 80
13, 267599, Note_on_c, 10, 74, 0
13, 267600, Note_on_c, 10, 78, 80
13, 267659, Note_on_c, 10, 78, 0
13, 267660, Note_on_c, 10, 76, 80
13, 267719, Note_on_c, 10, 76, 0
13, 267720, Note_on_c, 10, 74, 80
13, 267779, Note_on_c, 10, 74, 0
13, 267780, Note_on_c, 10, 73, 80
13, 267839, Note_on_c, 10, 73, 0
13, 267840, Note_on_c, 10, 78, 80
13, 267929, Note_on_c, 10, 78, 0
13, 268440, Note_on_c, 10, 76, 81
13, 268499, Note_on_c, 10, 76, 0
13, 268500, Note_on_c, 10, 78, 81
13, 268559, Note_on_c, 10, 78, 0
13, 268560, Note_on_c, 10, 81, 81
13, 268619, Note_on_c, 10, 81, 0
13, 268620, Note_on_c, 10, 80, 81
13, 268679, Note_on_c, 10, 80, 0
13, 268680, Note_on_c, 10, 78, 81
13, 268739, Note_on_c, 10, 78, 0
13, 268740, Note_on_c, 10, 76, 81
13, 268799, Note_on_c, 10, 76, 0
13, 268800, Note_on_c, 10, 81, 81
13, 268889, Note_on_c, 10, 81, 0
13, 269400, Note_on_c, 10, 80, 82
13, 269459, Note_on_c, 10, 80, 0
13, 269460, Note_on_c, 10, 81, 82
13, 269519, Note_on_c, 10, 81, 0
13, 269520, Note_on_c, 10, 85, 82
13, 269579, Note_on_c, 10, 85, 0
13, 269580, Note_on_c, 10, 83, 82
13, 269639, Note_on_c, 10, 83, 0
13, 269640, Note_on_c, 10, 81, 82
13, 269699, Note_on_c, 10, 81, 0
13, 269700, Note_on_c, 10, 80, 82
13, 269759, Note_on_c, 10, 80, 0
13, 269760, Note_on_c, 10, 85, 82
13, 269849, Note_on_c, 10, 85, 0
13, 270360, Note_on_c, 10, 83, 83
13, 270419, Note_on_c, 10, 83, 0
13, 270420, Note_on_c, 10, 85, 83
13, 270479, Note_on_c, 10, 85, 0
13, 270480, Note_on_c, 10, 88, 83
13, 270539, Note_on_c, 10, 88, 0
13, 270540, Note_on_c, 10, 86, 83
13, 270599, Note_on_c, 10, 86, 0
13, 270600, Note_on_c, 10, 85, 83
13, 270659, Note_on_c, 10, 85, 0
13, 270660, Note_on_c, 10, 83, 83
13, 270719, Note_on_c, 10, 83, 0
13, 270720, Note_on_c, 10, 86, 83
13, 270809, Note_on_c, 10, 86, 0
13, 270840, Note_on_c, 10, 83, 83
13, 270899, Note_on_c, 10, 83, 0
13, 270900, Note_on_c, 10, 85, 83
13, 270959, Note_on_c, 10, 85, 0
13, 270960, Note_on_c, 10, 88, 83
13, 271019, Note_on_c, 10, 88, 0
13, 271020, Note_on_c, 10, 86, 83
13, 271079, Note_on_c, 10, 86, 0
13, 271080, Note_on_c, 10, 85, 83
13, 271139, Note_on_c, 10, 85, 0
13, 271140, Note_on_c, 10, 83, 83
13, 271199, Note_on_c, 10, 83, 0
13, 271200, Note_on_c, 10, 69, 84
13, 271200, Note_on_c, 10, 76, 84
13, 271200, Note_on_c, 10, 85, 84
13, 271319, Note_on_c, 10, 69, 0
13, 271319, Note_on_c, 10, 76, 0
13, 271319, Note_on_c, 10, 85, 0
13, 271680, Note_on_c, 10, 76, 84
13, 271680, Note_on_c, 10, 85, 84
13, 271680, Note_on_c, 10, 69, 84
13, 271799, Note_on_c, 10, 76, 0
13, 271799, Note_on_c, 10, 85, 0
13, 271799, Note_on_c, 10, 69, 0
13, 272160, Note_on_c, 10, 86, 84
13, 272160, Note_on_c, 10, 76, 84
13, 272279, Note_on_c, 10, 86, 0
13, 272279, Note_on_c, 10, 76, 0
13, 272640, Note_on_c, 10, 86, 84
13, 272640, Note_on_c, 10, 76, 84
13, 272759, Note_on_c, 10, 86, 0
13, 272759, Note_on_c, 10, 76, 0
13, 273120, Note_on_c, 10, 85, 84
13, 273120, Note_on_c, 10, 76, 84
13, 273120, Note_on_c, 10, 69, 84
13, 273239, Note_on_c, 10, 85, 0
13, 273239, Note_on_c, 10, 76, 0
13, 273239, Note_on_c, 10, 69, 0
13, 273360, Note_on_c, 10, 69, 84
13, 273360, Note_on_c, 10, 85, 84
13, 273360, Note_on_c, 10, 76, 84
13, 273479, Note_on_c, 10, 69, 0
13, 273479, Note_on_c, 10, 85, 0
13, 273479, Note_on_c, 10, 76, 0
13, 273600, Note_on_c, 10, 69, 84
13, 273600, Note_on_c, 10, 76, 84
13, 273600, Note_on_c, 10, 85, 84
13, 273719, Note_on_c, 10, 69, 0
13, 273719, Note_on_c, 10, 76, 0
13, 273719, Note_on_c, 10, 85, 0
13, 273840, Note_on_c, 10, 76, 84
13, 273840, Note_on_c, 10, 69, 84
13, 273840, Note_on_c, 10, 85, 84
13, 273959, Note_on_c, 10, 76, 0
13, 273959, Note_on_c, 10, 69, 0
13, 273959, Note_on_c, 10, 85, 0
13, 274080, Note_on_c, 10, 76, 84
13, 274080, Note_on_c, 10, 83, 84
13, 274080, Note_on_c, 10, 68, 84
13, 274199, Note_on_c, 10, 76, 0
13, 274199, Note_on_c, 10, 83, 0
13, 274199, Note_on_c, 10, 68, 0
13, 274320, Note_on_c, 10, 76, 84
13, 274320, Note_on_c, 10, 68, 84
13, 274320, Note_on_c, 10, 83, 84
13, 274439, Note_on_c, 10, 76, 0
13, 274439, Note_on_c, 10, 68, 0
13, 274439, Note_on_c, 10, 83, 0
13, 274560, Note_on_c, 10, 68, 84
13, 274560, Note_on_c, 10, 83, 84
13, 274560, Note_on_c, 10, 76, 84
13, 274679, Note_on_c, 10, 68, 0
13, 274679, Note_on_c, 10, 83, 0
13, 274679, Note_on_c, 10, 76, 0
13, 274800, Note_on_c, 10, 83, 84
13, 274800, Note_on_c, 10, 76, 84
13, 274800, Note_on_c, 10, 68, 84
13, 274919, Note_on_c, 10, 83, 0
13, 274919, Note_on_c, 10, 76, 0
13, 274919, Note_on_c, 10, 68, 0
13, 275040, Note_on_c, 10, 76, 84
13, 275040, Note_on_c, 10, 69, 84
13, 275040, Note_on_c, 10, 85, 84
13, 275159, Note_on_c, 10, 76, 0
13, 275159, Note_on_c, 10, 69, 0
13, 275159, Note_on_c, 10, 85, 0
13, 275520, Note_on_c, 10, 85, 84
13, 275520, Note_on_c, 10, 76, 84
13, 275520, Note_on_c, 10, 69, 84
13, 275639, Note_on_c, 10, 85, 0
13, 275639, Note_on_c, 10, 76, 0
13, 275639, Note_on_c, 10, 69, 0
13, 276000, Note_on_c, 10, 86, 84
13, 276000, Note_on_c, 10, 76, 84
13, 276119, Note_on_c, 10, 86, 0
13, 276119, Note_on_c, 10, 76, 0
13, 276480, Note_on_c, 10, 86, 84
13, 276480, Note_on_c, 10, 76, 84
13, 276599, Note_on_c, 10, 86, 0
13, 276599, Note_on_c, 10, 76, 0
13, 276960, Note_on_c, 10, 85, 92
13, 277011, Note_on_c, 10, 85, 0
13, 277020, Note_on_c, 10, 85, 84
13, 277071, Note_on_c, 10, 85, 0
13, 277080, Note_on_c, 10, 85, 84
13, 277131, Note_on_c, 10, 85, 0
13, 277140, Note_on_c, 10, 85, 84
13, 277191, Note_on_c, 10, 85, 0
13, 277200, Note_on_c, 10, 85, 84
13, 277251, Note_on_c, 10, 85, 0
13, 277260, Note_on_c, 10, 85, 84
13, 277311, Note_on_c, 10, 85, 0
13, 277320, Note_on_c, 10, 83, 84
13, 277371, Note_on_c, 10, 83, 0
13, 277380, Note_on_c, 10, 83, 84
13, 277431, Note_on_c, 10, 83, 0
13, 277440, Note_on_c, 10, 81, 84
13, 277491, Note_on_c, 10, 81, 0
13, 277500, Note_on_c, 10, 81, 84
13, 277551, Note_on_c, 10, 81, 0
13, 277560, Note_on_c, 10, 85, 84
13, 277611, Note_on_c, 10, 85, 0
13, 277620, Note_on_c, 10, 85, 84
13, 277671, Note_on_c, 10, 85, 0
13, 277680, Note_on_c, 10, 83, 84
13, 277731, Note_on_c, 10, 83, 0
13, 277740, Note_on_c, 10, 83, 84
13, 277791, Note_on_c, 10, 83, 0
13, 277800, Note_on_c, 10, 81, 84
13, 277851, Note_on_c, 10, 81, 0
13, 277860, Note_on_c, 10, 81, 84
13, 277911, Note_on_c, 10, 81, 0
13, 277920, Note_on_c, 10, 83, 84
13, 277971, Note_on_c, 10, 83, 0
13, 277980, Note_on_c, 10, 83, 84
13, 278031, Note_on_c, 10, 83, 0
13, 278040, Note_on_c, 10, 81, 84
13, 278091, Note_on_c, 10, 81, 0
13, 278100, Note_on_c, 10, 81, 84
13, 278151, Note_on_c, 10, 81, 0
13, 278160, Note_on_c, 10, 80, 84
13, 278211, Note_on_c, 10, 80, 0
13, 278220, Note_on_c, 10, 80, 84
13, 278271, Note_on_c, 10, 80, 0
13, 278280, Note_on_c, 10, 78, 84
13, 278331, Note_on_c, 10, 78, 0
13, 278340, Note_on_c, 10, 78, 84
13, 278391, Note_on_c, 10, 78, 0
13, 278400, Note_on_c, 10, 76, 84
13, 278451, Note_on_c, 10, 76, 0
13, 278460, Note_on_c, 10, 76, 84
13, 278511, Note_on_c, 10, 76, 0
13, 278520, Note_on_c, 10, 74, 84
13, 278571, Note_on_c, 10, 74, 0
13, 278580, Note_on_c, 10, 74, 84
13, 278631, Note_on_c, 10, 74, 0
13, 278640, Note_on_c, 10, 73, 84
13, 278691, Note_on_c, 10, 73, 0
13, 278700, Note_on_c, 10, 73, 84
13, 278751, Note_on_c, 10, 73, 0
13, 278760, Note_on_c, 10, 71, 84
13, 278811, Note_on_c, 10, 71, 0
13, 278820, Note_on_c, 10, 71, 84
13, 278871, Note_on_c, 10, 71, 0
13, 278880, Note_on_c, 10, 85, 84
13, 278931, Note_on_c, 10, 85, 0
13, 278940, Note_on_c, 10, 85, 84
13, 278991, Note_on_c, 10, 85, 0
13, 279000, Note_on_c, 10, 83, 84
13, 279051, Note_on_c, 10, 83, 0
13, 279060, Note_on_c, 10, 83, 84
13, 279111, Note_on_c, 10, 83, 0
13, 279120, Note_on_c, 10, 81, 84
13, 279171, Note_on_c, 10, 81, 0
13, 279180, Note_on_c, 10, 81, 84
13, 279231, Note_on_c, 10, 81, 0
13, 279240, Note_on_c, 10, 80, 84
13, 279291, Note_on_c, 10, 80, 0
13, 279300, Note_on_c, 10, 80, 84
13, 279351, Note_on_c, 10, 80, 0
13, 279360, Note_on_c, 10, 78, 84
13, 279411, Note_on_c, 10, 78, 0
13, 279420, Note_on_c, 10, 78, 84
13, 279471, Note_on_c, 10, 78, 0
13, 279480, Note_on_c, 10, 76, 84
13, 279531, Note_on_c, 10, 76, 0
13, 279540, Note_on_c, 10, 76, 84
13, 279591, Note_on_c, 10, 76, 0
13, 279600, Note_on_c, 10, 74, 84
13, 279651, Note_on_c, 10, 74, 0
13, 279660, Note_on_c, 10, 74, 84
13, 279711, Note_on_c, 10, 74, 0
13, 279720, Note_on_c, 10, 73, 84
13, 279771, Note_on_c, 10, 73, 0
13, 279780, Note_on_c, 10, 73, 84
13, 279831, Note_on_c, 10, 73, 0
13, 279840, Note_on_c, 10, 86, 84
13, 279891, Note_on_c, 10, 86, 0
13, 279900, Note_on_c, 10, 86, 84
13, 279951, Note_on_c, 10, 86, 0
13, 279960, Note_on_c, 10, 85, 84
13, 280011, Note_on_c, 10, 85, 0
13, 280020, Note_on_c, 10, 85, 84
13, 280071, Note_on_c, 10, 85, 0
13, 280080, Note_on_c, 10, 83, 84
13, 280131, Note_on_c, 10, 83, 0
13, 280140, Note_on_c, 10, 83, 84
13, 280191, Note_on_c, 10, 83, 0
13, 280200, Note_on_c, 10, 81, 84
13, 280251, Note_on_c, 10, 81, 0
13, 280260, Note_on_c, 10, 81, 84
13, 280311, Note_on_c, 10, 81, 0
13, 280320, Note_on_c, 10, 80, 84
13, 280371, Note_on_c, 10, 80, 0
13, 280380, Note_on_c, 10, 80, 84
13, 280431, Note_on_c, 10, 80, 0
13, 280440, Note_on_c, 10, 78, 84
13, 280491, Note_on_c, 10, 78, 0
13, 280500, Note_on_c, 10, 78, 84
13, 280551, Note_on_c, 10, 78, 0
13, 280560, Note_on_c, 10, 76, 84
13, 280611, Note_on_c, 10, 76, 0
13, 280620, Note_on_c, 10, 76, 84
13, 280671, Note_on_c, 10, 76, 0
13, 280680, Note_on_c, 10, 74, 84
13, 280731, Note_on_c, 10, 74, 0
13, 280740, Note_on_c, 10, 74, 84
13, 280791, Note_on_c, 10, 74, 0
13, 280800, Note_on_c, 10, 88, 84
13, 280851, Note_on_c, 10, 88, 0
13, 280860, Note_on_c, 10, 88, 84
13, 280911, Note_on_c, 10, 88, 0
13, 280920, Note_on_c, 10, 86, 84
13, 280971, Note_on_c, 10, 86, 0
13, 280980, Note_on_c, 10, 86, 84
13, 281031, Note_on_c, 10, 86, 0
13, 281040, Note_on_c, 10, 85, 84
13, 281091, Note_on_c, 10, 85, 0
13, 281100, Note_on_c, 10, 85, 84
13, 281151, Note_on_c, 10, 85, 0
13, 281160, Note_on_c, 10, 83, 84
13, 281211, Note_on_c, 10, 83, 0
13, 281220, Note_on_c, 10, 83, 84
13, 281271, Note_on_c, 10, 83, 0
13, 281280, Note_on_c, 10, 81, 84
13, 281331, Note_on_c, 10, 81, 0
13, 281340, Note_on_c, 10, 81, 84
13, 281391, Note_on_c, 10, 81, 0
13, 281400, Note_on_c, 10, 80, 84
13, 281451, Note_on_c, 10, 80, 0
13, 281460, Note_on_c, 10, 80, 84
13, 281511, Note_on_c, 10, 80, 0
13, 281520, Note_on_c, 10, 78, 84
13, 281571, Note_on_c, 10, 78, 0
13, 281580, Note_on_c, 10, 78, 84
13, 281631, Note_on_c, 10, 78, 0
13, 281640, Note_on_c, 10, 76, 84
13, 281691, Note_on_c, 10, 76, 0
13, 281700, Note_on_c, 10, 76, 84
13, 281751, Note_on_c, 10, 76, 0
13, 281760, Note_on_c, 10, 64, 92
13, 281811, Note_on_c, 10, 64, 0
13, 281820, Note_on_c, 10, 64, 92
13, 281871, Note_on_c, 10, 64, 0
13, 281880, Note_on_c, 10, 66, 92
13, 281931, Note_on_c, 10, 66, 0
13, 281940, Note_on_c, 10, 66, 92
13, 281991, Note_on_c, 10, 66, 0
13, 282000, Note_on_c, 10, 67, 92
13, 282051, Note_on_c, 10, 67, 0
13, 282060, Note_on_c, 10, 67, 92
13, 282111, Note_on_c, 10, 67, 0
13, 282120, Note_on_c, 10, 69, 92
13, 282171, Note_on_c, 10, 69, 0
13, 282180, Note_on_c, 10, 69, 92
13, 282231, Note_on_c, 10, 69, 0
13, 282240, Note_on_c, 10, 71, 92
13, 282291, Note_on_c, 10, 71, 0
13, 282300, Note_on_c, 10, 71, 92
13, 282351, Note_on_c, 10, 71, 0
13, 282360, Note_on_c, 10, 73, 92
13, 282411, Note_on_c, 10, 73, 0
13, 282420, Note_on_c, 10, 73, 92
13, 282471, Note_on_c, 10, 73, 0
13, 282480, Note_on_c, 10, 74, 92
13, 282531, Note_on_c, 10, 74, 0
13, 282540, Note_on_c, 10, 74, 92
13, 282591, Note_on_c, 10, 74, 0
13, 282600, Note_on_c, 10, 76, 92
13, 282651, Note_on_c, 10, 76, 0
13, 282660, Note_on_c, 10, 76, 92
13, 282711, Note_on_c, 10, 76, 0
13, 282720, Note_on_c, 10, 78, 92
13, 282771, Note_on_c, 10, 78, 0
13, 282780, Note_on_c, 10, 78, 92
13, 282831, Note_on_c, 10, 78, 0
13, 282840, Note_on_c, 10, 79, 92
13, 282891, Note_on_c, 10, 79, 0
13, 282900, Note_on_c, 10, 79, 92
13, 282951, Note_on_c, 10, 79, 0
13, 282960, Note_on_c, 10, 81, 92
13, 283011, Note_on_c, 10, 81, 0
13, 283020, Note_on_c, 10, 81, 92
13, 283071, Note_on_c, 10, 81, 0
13, 283080, Note_on_c, 10, 83, 92
13, 283131, Note_on_c, 10, 83, 0
13, 283140, Note_on_c, 10, 83, 92
13, 283191, Note_on_c, 10, 83, 0
13, 283200, Note_on_c, 10, 85, 92
13, 283251, Note_on_c, 10, 85, 0
13, 283260, Note_on_c, 10, 85, 92
13, 283311, Note_on_c, 10, 85, 0
13, 283320, Note_on_c, 10, 86, 92
13, 283371, Note_on_c, 10, 86, 0
13, 283380, Note_on_c, 10, 86, 92
13, 283431, Note_on_c, 10, 86, 0
13, 283440, Note_on_c, 10, 88, 92
13, 283491, Note_on_c, 10, 88, 0
13, 283500, Note_on_c, 10, 88, 92
13, 283551, Note_on_c, 10, 88, 0
13, 283560, Note_on_c, 10, 90, 92
13, 283611, Note_on_c, 10, 90, 0
13, 283620, Note_on_c, 10, 90, 92
13, 283671, Note_on_c, 10, 90, 0
13, 283680, Note_on_c, 10, 88, 100
13, 283731, Note_on_c, 10, 88, 0
13, 283740, Note_on_c, 10, 88, 92
13, 283791, Note_on_c, 10, 88, 0
13, 283800, Note_on_c, 10, 76, 92
13, 283851, Note_on_c, 10, 76, 0
13, 283860, Note_on_c, 10, 76, 92
13, 283911, Note_on_c, 10, 76, 0
13, 283920, Note_on_c, 10, 88, 92
13, 283971, Note_on_c, 10, 88, 0
13, 283980, Note_on_c, 10, 88, 92
13, 284031, Note_on_c, 10, 88, 0
13, 284040, Note_on_c, 10, 88, 92
13, 284091, Note_on_c, 10, 88, 0
13, 284100, Note_on_c, 10, 88, 92
13, 284151, Note_on_c, 10, 88, 0
13, 284160, Note_on_c, 10, 90, 100
13, 284211, Note_on_c, 10, 90, 0
13, 284220, Note_on_c, 10, 90, 92
13, 284271, Note_on_c, 10, 90, 0
13, 284280, Note_on_c, 10, 78, 92
13, 284331, Note_on_c, 10, 78, 0
13, 284340, Note_on_c, 10, 78, 92
13, 284391, Note_on_c, 10, 78, 0
13, 284400, Note_on_c, 10, 90, 92
13, 284451, Note_on_c, 10, 90, 0
13, 284460, Note_on_c, 10, 90, 92
13, 284511, Note_on_c, 10, 90, 0
13, 284520, Note_on_c, 10, 90, 92
13, 284571, Note_on_c, 10, 90, 0
13, 284580, Note_on_c, 10, 90, 92
13, 284631, Note_on_c, 10, 90, 0
13, 284640, Note_on_c, 10, 88, 100
13, 284691, Note_on_c, 10, 88, 0
13, 284700, Note_on_c, 10, 88, 92
13, 284751, Note_on_c, 10, 88, 0
13, 284760, Note_on_c, 10, 76, 92
13, 284811, Note_on_c, 10, 76, 0
13, 284820, Note_on_c, 10, 76, 92
13, 284871, Note_on_c, 10, 76, 0
13, 284880, Note_on_c, 10, 88, 92
13, 284931, Note_on_c, 10, 88, 0
13, 284940, Note_on_c, 10, 88, 92
13, 284991, Note_on_c, 10, 88, 0
13, 285000, Note_on_c, 10, 88, 92
13, 285051, Note_on_c, 10, 88, 0
13, 285060, Note_on_c, 10, 88, 92
13, 285111, Note_on_c, 10, 88, 0
13, 285120, Note_on_c, 10, 88, 100
13, 285171, Note_on_c, 10, 88, 0
13, 285180, Note_on_c, 10, 88, 92
13, 285231, Note_on_c, 10, 88, 0
13, 285240, Note_on_c, 10, 76, 92
13, 285291, Note_on_c, 10, 76, 0
13, 285300, Note_on_c, 10, 76, 92
13, 285351, Note_on_c, 10, 76, 0
13, 285360, Note_on_c, 10, 88, 92
13, 285411, Note_on_c, 10, 88, 0
13, 285420, Note_on_c, 10, 88, 92
13, 285471, Note_on_c, 10, 88, 0
13, 285480, Note_on_c, 10, 88, 92
13, 285531, Note_on_c, 10, 88, 0
13, 285540, Note_on_c, 10, 88, 92
13, 285591, Note_on_c, 10, 88, 0
13, 286560, Note_on_c, 10, 85, 52
13, 286611, Note_on_c, 10, 85, 0
13, 286620, Note_on_c, 10, 85, 52
13, 286671, Note_on_c, 10, 85, 0
13, 286680, Note_on_c, 10, 83, 53
13, 286731, Note_on_c, 10, 83, 0
13, 286740, Note_on_c, 10, 83, 54
13, 286791, Note_on_c, 10, 83, 0
13, 286800, Note_on_c, 10, 81, 55
13, 286851, Note_on_c, 10, 81, 0
13, 286860, Note_on_c, 10, 81, 56
13, 286911, Note_on_c, 10, 81, 0
13, 286920, Note_on_c, 10, 80, 57
13, 286971, Note_on_c, 10, 80, 0
13, 286980, Note_on_c, 10, 80, 57
13, 287031, Note_on_c, 10, 80, 0
13, 287040, Note_on_c, 10, 78, 58
13, 287091, Note_on_c, 10, 78, 0
13, 287100, Note_on_c, 10, 78, 59
13, 287151, Note_on_c, 10, 78, 0
13, 287160, Note_on_c, 10, 76, 60
13, 287211, Note_on_c, 10, 76, 0
13, 287220, Note_on_c, 10, 76, 61
13, 287271, Note_on_c, 10, 76, 0
13, 287280, Note_on_c, 10, 74, 62
13, 287331, Note_on_c, 10, 74, 0
13, 287340, Note_on_c, 10, 74, 62
13, 287391, Note_on_c, 10, 74, 0
13, 287400, Note_on_c, 10, 73, 63
13, 287451, Note_on_c, 10, 73, 0
13, 287460, Note_on_c, 10, 73, 64
13, 287511, Note_on_c, 10, 73, 0
13, 287520, Note_on_c, 10, 74, 65
13, 287571, Note_on_c, 10, 74, 0
13, 287580, Note_on_c, 10, 74, 66
13, 287631, Note_on_c, 10, 74, 0
13, 287640, Note_on_c, 10, 76, 67
13, 287691, Note_on_c, 10, 76, 0
13, 287700, Note_on_c, 10, 76, 67
13, 287751, Note_on_c, 10, 76, 0
13, 287760, Note_on_c, 10, 78, 68
13, 287811, Note_on_c, 10, 78, 0
13, 287820, Note_on_c, 10, 78, 69
13, 287871, Note_on_c, 10, 78, 0
13, 287880, Note_on_c, 10, 80, 70
13, 287931, Note_on_c, 10, 80, 0
13, 287940, Note_on_c, 10, 80, 71
13, 287991, Note_on_c, 10, 80, 0
13, 288000, Note_on_c, 10, 81, 72
13, 288051, Note_on_c, 10, 81, 0
13, 288060, Note_on_c, 10, 81, 72
13, 288111, Note_on_c, 10, 81, 0
13, 288120, Note_on_c, 10, 83, 73
13, 288171, Note_on_c, 10, 83, 0
13, 288180, Note_on_c, 10, 83, 74
13, 288231, Note_on_c, 10, 83, 0
13, 288240, Note_on_c, 10, 85, 75
13, 288291, Note_on_c, 10, 85, 0
13, 288300, Note_on_c, 10, 85, 76
13, 288351, Note_on_c, 10, 85, 0
13, 288360, Note_on_c, 10, 86, 77
13, 288411, Note_on_c, 10, 86, 0
13, 288420, Note_on_c, 10, 86, 77
13, 288471, Note_on_c, 10, 86, 0
13, 288480, Note_on_c, 10, 88, 78
13, 288531, Note_on_c, 10, 88, 0
13, 288540, Note_on_c, 10, 88, 79
13, 288591, Note_on_c, 10, 88, 0
13, 288600, Note_on_c, 10, 86, 80
13, 288651, Note_on_c, 10, 86, 0
13, 288660, Note_on_c, 10, 86, 81
13, 288711, Note_on_c, 10, 86, 0
13, 288720, Note_on_c, 10, 85, 82
13, 288771, Note_on_c, 10, 85, 0
13, 288780, Note_on_c, 10, 85, 82
13, 288831, Note_on_c, 10, 85, 0
13, 288840, Note_on_c, 10, 83, 83
13, 288891, Note_on_c, 10, 83, 0
13, 288900, Note_on_c, 10, 83, 84
13, 288951, Note_on_c, 10, 83, 0
13, 288960, Note_on_c, 10, 81, 85
13, 289011, Note_on_c, 10, 81, 0
13, 289020, Note_on_c, 10, 81, 86
13, 289071, Note_on_c, 10, 81, 0
13, 289080, Note_on_c, 10, 80, 87
13, 289131, Note_on_c, 10, 80, 0
13, 289140, Note_on_c, 10, 80, 87
13, 289191, Note_on_c, 10, 80, 0
13, 289200, Note_on_c, 10, 78, 88
13, 289251, Note_on_c, 10, 78, 0
13, 289260, Note_on_c, 10, 78, 89
13, 289311, Note_on_c, 10, 78, 0
13, 289320, Note_on_c, 10, 76, 90
13, 289371, Note_on_c, 10, 76, 0
13, 289380, Note_on_c, 10, 76, 91
13, 289431, Note_on_c, 10, 76, 0
13, 289440, Note_on_c, 10, 64, 92
13, 289491, Note_on_c, 10, 64, 0
13, 289500, Note_on_c, 10, 64, 92
13, 289551, Note_on_c, 10, 64, 0
13, 289560, Note_on_c, 10, 66, 92
13, 289611, Note_on_c, 10, 66, 0
13, 289620, Note_on_c, 10, 66, 92
13, 289671, Note_on_c, 10, 66, 0
13, 289680, Note_on_c, 10, 67, 92
13, 289731, Note_on_c, 10, 67, 0
13, 289740, Note_on_c, 10, 67, 92
13, 289791, Note_on_c, 10, 67, 0
13, 289800, Note_on_c, 10, 69, 92
13, 289851, Note_on_c, 10, 69, 0
13, 289860, Note_on_c, 10, 69, 92
13, 289911, Note_on_c, 10, 69, 0
13, 289920, Note_on_c, 10, 71, 92
13, 289971, Note_on_c, 10, 71, 0
13, 289980, Note_on_c, 10, 71, 92
13, 290031, Note_on_c, 10, 71, 0
13, 290040, Note_on_c, 10, 73, 92
13, 290091, Note_on_c, 10, 73, 0
13, 290100, Note_on_c, 10, 73, 92
13, 290151, Note_on_c, 10, 73, 0
13, 290160, Note_on_c, 10, 74, 92
13, 290211, Note_on_c, 10, 74, 0
13, 290220, Note_on_c, 10, 74, 92
13, 290271, Note_on_c, 10, 74, 0
13, 290280, Note_on_c, 10, 76, 92
13, 290331, Note_on_c, 10, 76, 0
13, 290340, Note_on_c, 10, 76, 92
13, 290391, Note_on_c, 10, 76, 0
13, 290400, Note_on_c, 10, 78, 92
13, 290451, Note_on_c, 10, 78, 0
13, 290460, Note_on_c, 10, 78, 92
13, 290511, Note_on_c, 10, 78, 0
13, 290520, Note_on_c, 10, 79, 92
13, 290571, Note_on_c, 10, 79, 0
13, 290580, Note_on_c, 10, 79, 92
13, 290631, Note_on_c, 10, 79, 0
13, 290640, Note_on_c, 10, 81, 92
13, 290691, Note_on_c, 10, 81, 0
13, 290700, Note_on_c, 10, 81, 92
13, 290751, Note_on_c, 10, 81, 0
13, 290760, Note_on_c, 10, 83, 92
13, 290811, Note_on_c, 10, 83, 0
13, 290820, Note_on_c, 10, 83, 92
13, 290871, Note_on_c, 10, 83, 0
13, 290880, Note_on_c, 10, 85, 92
13, 290931, Note_on_c, 10, 85, 0
13, 290940, Note_on_c, 10, 85, 92
13, 290991, Note_on_c, 10, 85, 0
13, 291000, Note_on_c, 10, 86, 92
13, 291051, Note_on_c, 10, 86, 0
13, 291060, Note_on_c, 10, 86, 92
13, 291111, Note_on_c, 10, 86, 0
13, 291120, Note_on_c, 10, 88, 92
13, 291171, Note_on_c, 10, 88, 0
13, 291180, Note_on_c, 10, 88, 92
13, 291231, Note_on_c, 10, 88, 0
13, 291240, Note_on_c, 10, 90, 92
13, 291291, Note_on_c, 10, 90, 0
13, 291300, Note_on_c, 10, 90, 92
13, 291351, Note_on_c, 10, 90, 0
13, 291360, Note_on_c, 10, 88, 100
13, 291411, Note_on_c, 10, 88, 0
13, 291420, Note_on_c, 10, 88, 92
13, 291471, Note_on_c, 10, 88, 0
13, 291480, Note_on_c, 10, 76, 92
13, 291531, Note_on_c, 10, 76, 0
13, 291540, Note_on_c, 10, 76, 92
13, 291591, Note_on_c, 10, 76, 0
13, 291600, Note_on_c, 10, 88, 92
13, 291651, Note_on_c, 10, 88, 0
13, 291660, Note_on_c, 10, 88, 92
13, 291711, Note_on_c, 10, 88, 0
13, 291720, Note_on_c, 10, 88, 92
13, 291771, Note_on_c, 10, 88, 0
13, 291780, Note_on_c, 10, 88, 92
13, 291831, Note_on_c, 10, 88, 0
13, 291840, Note_on_c, 10, 90, 100
13, 291891, Note_on_c, 10, 90, 0
13, 291900, Note_on_c, 10, 90, 92
13, 291951, Note_on_c, 10, 90, 0
13, 291960, Note_on_c, 10, 78, 92
13, 292011, Note_on_c, 10, 78, 0
13, 292020, Note_on_c, 10, 78, 92
13, 292071, Note_on_c, 10, 78, 0
13, 292080, Note_on_c, 10, 90, 92
13, 292131, Note_on_c, 10, 90, 0
13, 292140, Note_on_c, 10, 90, 92
13, 292191, Note_on_c, 10, 90, 0
13, 292200, Note_on_c, 10, 90, 92
13, 292251, Note_on_c, 10, 90, 0
13, 292260, Note_on_c, 10, 90, 92
13, 292311, Note_on_c, 10, 90, 0
13, 292320, Note_on_c, 10, 88, 100
13, 292371, Note_on_c, 10, 88, 0
13, 292380, Note_on_c, 10, 88, 92
13, 292431, Note_on_c, 10, 88, 0
13, 292440, Note_on_c, 10, 76, 92
13, 292491, Note_on_c, 10, 76, 0
13, 292500, Note_on_c, 10, 76, 92
13, 292551, Note_on_c, 10, 76, 0
13, 292560, Note_on_c, 10, 88, 92
13, 292611, Note_on_c, 10, 88, 0
13, 292620, Note_on_c, 10, 88, 92
13, 292671, Note_on_c, 10, 88, 0
13, 292680, Note_on_c, 10, 88, 92
13, 292731, Note_on_c, 10, 88, 0
13, 292740, Note_on_c, 10, 88, 92
13, 292791, Note_on_c, 10, 88, 0
13, 292800, Note_on_c, 10, 88, 100
13, 292851, Note_on_c, 10, 88, 0
13, 292860, Note_on_c, 10, 88, 92
13, 292911, Note_on_c, 10, 88, 0
13, 292920, Note_on_c, 10, 76, 92
13, 292971, Note_on_c, 10, 76, 0
13, 292980, Note_on_c, 10, 76, 92
13, 293031, Note_on_c, 10, 76, 0
13, 293040, Note_on_c, 10, 88, 92
13, 293091, Note_on_c, 10, 88, 0
13, 293100, Note_on_c, 10, 88, 92
13, 293151, Note_on_c, 10, 88, 0
13, 293160, Note_on_c, 10, 88, 92
13, 293211, Note_on_c, 10, 88, 0
13, 293220, Note_on_c, 10, 88, 92
13, 293271, Note_on_c, 10, 88, 0
13, 293280, Note_on_c, 10, 69, 92
13, 293280, Note_on_c, 10, 81, 92
13, 293369, Note_on_c, 10, 69, 0
13, 293369, Note_on_c, 10, 81, 0
13, 293400, Note_on_c, 10, 81, 92
13, 293459, Note_on_c, 10, 81, 0
13, 293460, Note_on_c, 10, 83, 92
13, 293519, Note_on_c, 10, 83, 0
13, 293520, Note_on_c, 10, 86, 92
13, 293579, Note_on_c, 10, 86, 0
13, 293580, Note_on_c, 10, 85, 92
13, 293639, Note_on_c, 10, 85, 0
13, 293640, Note_on_c, 10, 83, 92
13, 293699, Note_on_c, 10, 83, 0
13, 293700, Note_on_c, 10, 81, 92
13, 293751, Note_on_c, 10, 81, 0
13, 293760, Note_on_c, 10, 88, 100
13, 293819, Note_on_c, 10, 88, 0
13, 293820, Note_on_c, 10, 88, 92
13, 294344, Note_on_c, 10, 88, 0
13, 294360, Note_on_c, 10, 83, 92
13, 294419, Note_on_c, 10, 83, 0
13, 294420, Note_on_c, 10, 85, 92
13, 294479, Note_on_c, 10, 85, 0
13, 294480, Note_on_c, 10, 88, 92
13, 294539, Note_on_c, 10, 88, 0
13, 294540, Note_on_c, 10, 86, 92
13, 294599, Note_on_c, 10, 86, 0
13, 294600, Note_on_c, 10, 85, 92
13, 294659, Note_on_c, 10, 85, 0
13, 294660, Note_on_c, 10, 83, 92
13, 294711, Note_on_c, 10, 83, 0
13, 294720, Note_on_c, 10, 81, 92
13, 294809, Note_on_c, 10, 81, 0
13, 294840, Note_on_c, 10, 83, 92
13, 294899, Note_on_c, 10, 83, 0
13, 294900, Note_on_c, 10, 85, 92
13, 294959, Note_on_c, 10, 85, 0
13, 294960, Note_on_c, 10, 88, 92
13, 295019, Note_on_c, 10, 88, 0
13, 295020, Note_on_c, 10, 86, 92
13, 295079, Note_on_c, 10, 86, 0
13, 295080, Note_on_c, 10, 85, 92
13, 295139, Note_on_c, 10, 85, 0
13, 295140, Note_on_c, 10, 83, 92
13, 295191, Note_on_c, 10, 83, 0
13, 295200, Note_on_c, 10, 85, 92
13, 295289, Note_on_c, 10, 85, 0
13, 295320, Note_on_c, 10, 81, 92
13, 295379, Note_on_c, 10, 81, 0
13, 295380, Note_on_c, 10, 83, 92
13, 295439, Note_on_c, 10, 83, 0
13, 295440, Note_on_c, 10, 86, 92
13, 295499, Note_on_c, 10, 86, 0
13, 295500, Note_on_c, 10, 85, 92
13, 295559, Note_on_c, 10, 85, 0
13, 295560, Note_on_c, 10, 83, 92
13, 295619, Note_on_c, 10, 83, 0
13, 295620, Note_on_c, 10, 81, 92
13, 295671, Note_on_c, 10, 81, 0
13, 295680, Note_on_c, 10, 88, 100
13, 295739, Note_on_c, 10, 88, 0
13, 295740, Note_on_c, 10, 88, 92
13, 296264, Note_on_c, 10, 88, 0
13, 296280, Note_on_c, 10, 83, 92
13, 296339, Note_on_c, 10, 83, 0
13, 296340, Note_on_c, 10, 85, 92
13, 296399, Note_on_c, 10, 85, 0
13, 296400, Note_on_c, 10, 88, 92
13, 296459, Note_on_c, 10, 88, 0
13, 296460, Note_on_c, 10, 86, 92
13, 296519, Note_on_c, 10, 86, 0
13, 296520, Note_on_c, 10, 85, 92
13, 296579, Note_on_c, 10, 85, 0
13, 296580, Note_on_c, 10, 83, 92
13, 296631, Note_on_c, 10, 83, 0
13, 296640, Note_on_c, 10, 81, 92
13, 296729, Note_on_c, 10, 81, 0
13, 296760, Note_on_c, 10, 83, 92
13, 296819, Note_on_c, 10, 83, 0
13, 296820, Note_on_c, 10, 85, 92
13, 296879, Note_on_c, 10, 85, 0
13, 296880, Note_on_c, 10, 88, 92
13, 296939, Note_on_c, 10, 88, 0
13, 296940, Note_on_c, 10, 86, 92
13, 296999, Note_on_c, 10, 86, 0
13, 297000, Note_on_c, 10, 85, 92
13, 297059, Note_on_c, 10, 85, 0
13, 297060, Note_on_c, 10, 83, 92
13, 297111, Note_on_c, 10, 83, 0
13, 297120, Note_on_c, 10, 88, 84
13, 297179, Note_on_c, 10, 88, 0
13, 297180, Note_on_c, 10, 86, 84
13, 297239, Note_on_c, 10, 86, 0
13, 297240, Note_on_c, 10, 85, 84
13, 297299, Note_on_c, 10, 85, 0
13, 297300, Note_on_c, 10, 83, 84
13, 297351, Note_on_c, 10, 83, 0
13, 297360, Note_on_c, 10, 88, 92
13, 297419, Note_on_c, 10, 88, 0
13, 297420, Note_on_c, 10, 86, 84
13, 297479, Note_on_c, 10, 86, 0
13, 297480, Note_on_c, 10, 85, 84
13, 297539, Note_on_c, 10, 85, 0
13, 297540, Note_on_c, 10, 83, 84
13, 297591, Note_on_c, 10, 83, 0
13, 297600, Note_on_c, 10, 88, 92
13, 297659, Note_on_c, 10, 88, 0
13, 297660, Note_on_c, 10, 86, 84
13, 297719, Note_on_c, 10, 86, 0
13, 297720, Note_on_c, 10, 85, 84
13, 297779, Note_on_c, 10, 85, 0
13, 297780, Note_on_c, 10, 83, 84
13, 297831, Note_on_c, 10, 83, 0
13, 297840, Note_on_c, 10, 88, 92
13, 297899, Note_on_c, 10, 88, 0
13, 297900, Note_on_c, 10, 86, 84
13, 297959, Note_on_c, 10, 86, 0
13, 297960, Note_on_c, 10, 85, 84
13, 298019, Note_on_c, 10, 85, 0
13, 298020, Note_on_c, 10, 83, 84
13, 298071, Note_on_c, 10, 83, 0
13, 298080, Note_on_c, 10, 88, 84
13, 298139, Note_on_c, 10, 88, 0
13, 298140, Note_on_c, 10, 86, 84
13, 298199, Note_on_c, 10, 86, 0
13, 298200, Note_on_c, 10, 85, 84
13, 298259, Note_on_c, 10, 85, 0
13, 298260, Note_on_c, 10, 83, 84
13, 298319, Note_on_c, 10, 83, 0
13, 298320, Note_on_c, 10, 81, 84
13, 298379, Note_on_c, 10, 81, 0
13, 298380, Note_on_c, 10, 80, 84
13, 298439, Note_on_c, 10, 80, 0
13, 298440, Note_on_c, 10, 78, 84
13, 298499, Note_on_c, 10, 78, 0
13, 298500, Note_on_c, 10, 76, 84
13, 298551, Note_on_c, 10, 76, 0
13, 298560, Note_on_c, 10, 74, 84
13, 298619, Note_on_c, 10, 74, 0
13, 298620, Note_on_c, 10, 73, 84
13, 298679, Note_on_c, 10, 73, 0
13, 298680, Note_on_c, 10, 71, 84
13, 298739, Note_on_c, 10, 71, 0
13, 298740, Note_on_c, 10, 69, 84
13, 298799, Note_on_c, 10, 69, 0
13, 298800, Note_on_c, 10, 68, 84
13, 298839, Note_on_c, 10, 68, 0
13, 298840, Note_on_c, 10, 66, 84
13, 298879, Note_on_c, 10, 66, 0
13, 298880, Note_on_c, 10, 64, 84
13, 298919, Note_on_c, 10, 64, 0
13, 298920, Note_on_c, 10, 62, 84
13, 298959, Note_on_c, 10, 62, 0
13, 298960, Note_on_c, 10, 61, 84
13, 298999, Note_on_c, 10, 61, 0
13, 299000, Note_on_c, 10, 59, 84
13, 299031, Note_on_c, 10, 59, 0
13, 299040, Note_on_c, 10, 57, 84
13, 299159, Note_on_c, 10, 57, 0
13, 299520, Note_on_c, 10, 81, 84
13, 299520, Note_on_c, 10, 73, 84
13, 299520, Note_on_c, 10, 64, 84
13, 299520, Note_on_c, 10, 57, 84
13, 299639, Note_on_c, 10, 81, 0
13, 299639, Note_on_c, 10, 73, 0
13, 299639, Note_on_c, 10, 64, 0
13, 299639, Note_on_c, 10, 57, 0
13, 300000, Note_on_c, 10, 57, 84
13, 300119, Note_on_c, 10, 57, 0
13, 300119, End_track
14, 0, Start_track
14, 0, Title_t, "Violin II"
14, 0, MIDI_port, 0
14, 0, Program_c, 11, 48
14, 0, Control_c, 11, 7, 96
14, 0, Control_c, 11, 10, 24
14, 0, Control_c, 11, 11, 127
14, 0, Note_on_c, 11, 80, 84
14, 0, Note_on_c, 11, 71, 84
14, 0, Note_on_c, 11, 64, 84
14, 89, Note_on_c, 11, 80, 0
14, 89, Note_on_c, 11, 71, 0
14, 89, Note_on_c, 11, 64, 0
14, 960, Note_on_c, 11, 83, 84
14, 960, Note_on_c, 11, 64, 84
14, 960, Note_on_c, 11, 74, 84
14, 1049, Note_on_c, 11, 83, 0
14, 1049, Note_on_c, 11, 64, 0
14, 1049, Note_on_c, 11, 74, 0
14, 1920, Note_on_c, 11, 64, 84
14, 1920, Note_on_c, 11, 59, 84
14, 1971, Note_on_c, 11, 64, 0
14, 1971, Note_on_c, 11, 59, 0
14, 1980, Note_on_c, 11, 64, 84
14, 1980, Note_on_c, 11, 59, 84
14, 2031, Note_on_c, 11, 64, 0
14, 2031, Note_on_c, 11, 59, 0
14, 2040, Note_on_c, 11, 59, 84
14, 2040, Note_on_c, 11, 64, 84
14, 2091, Note_on_c, 11, 59, 0
14, 2091, Note_on_c, 11, 64, 0
14, 2100, Note_on_c, 11, 59, 84
14, 2100, Note_on_c, 11, 64, 84
14, 2151, Note_on_c, 11, 59, 0
14, 2151, Note_on_c, 11, 64, 0
14, 2160, Note_on_c, 11, 64, 92
14, 2160, Note_on_c, 11, 57, 92
14, 2211, Note_on_c, 11, 64, 0
14, 2211, Note_on_c, 11, 57, 0
14, 2220, Note_on_c, 11, 64, 84
14, 2220, Note_on_c, 11, 57, 84
14, 2271, Note_on_c, 11, 64, 0
14, 2271, Note_on_c, 11, 57, 0
14, 2280, Note_on_c, 11, 64, 84
14, 2280, Note_on_c, 11, 59, 84
14, 2331, Note_on_c, 11, 64, 0
14, 2331, Note_on_c, 11, 59, 0
14, 2340, Note_on_c, 11, 59, 84
14, 2340, Note_on_c, 11, 64, 84
14, 2391, Note_on_c, 11, 59, 0
14, 2391, Note_on_c, 11, 64, 0
14, 2400, Note_on_c, 11, 64, 84
14, 2400, Note_on_c, 11, 61, 84
14, 2451, Note_on_c, 11, 64, 0
14, 2451, Note_on_c, 11, 61, 0
14, 2460, Note_on_c, 11, 61, 84
14, 2460, Note_on_c, 11, 64, 84
14, 2511, Note_on_c, 11, 61, 0
14, 2511, Note_on_c, 11, 64, 0
14, 2520, Note_on_c, 11, 64, 84
14, 2520, Note_on_c, 11, 61, 84
14, 2571, Note_on_c, 11, 64, 0
14, 2571, Note_on_c, 11, 61, 0
14, 2580, Note_on_c, 11, 64, 84
14, 2580, Note_on_c, 11, 61, 84
14, 2631, Note_on_c, 11, 64, 0
14, 2631, Note_on_c, 11, 61, 0
14, 2640, Note_on_c, 11, 59, 92
14, 2640, Note_on_c, 11, 64, 92
14, 2691, Note_on_c, 11, 59, 0
14, 2691, Note_on_c, 11, 64, 0
14, 2700, Note_on_c, 11, 64, 84
14, 2700, Note_on_c, 11, 59, 84
14, 2751, Note_on_c, 11, 64, 0
14, 2751, Note_on_c, 11, 59, 0
14, 2760, Note_on_c, 11, 61, 84
14, 2760, Note_on_c, 11, 64, 84
14, 2811, Note_on_c, 11, 61, 0
14, 2811, Note_on_c, 11, 64, 0
14, 2820, Note_on_c, 11, 61, 84
14, 2820, Note_on_c, 11, 64, 84
14, 2871, Note_on_c, 11, 61, 0
14, 2871, Note_on_c, 11, 64, 0
14, 2880, Note_on_c, 11, 59, 84
14, 2880, Note_on_c, 11, 64, 84
14, 2931, Note_on_c, 11, 59, 0
14, 2931, Note_on_c, 11, 64, 0
14, 2940, Note_on_c, 11, 59, 84
14, 2940, Note_on_c, 11, 64, 84
14, 2991, Note_on_c, 11, 59, 0
14, 2991, Note_on_c, 11, 64, 0
14, 3000, Note_on_c, 11, 64, 84
14, 3000, Note_on_c, 11, 59, 84
14, 3051, Note_on_c, 11, 64, 0
14, 3051, Note_on_c, 11, 59, 0
14, 3060, Note_on_c, 11, 59, 84
14, 3060, Note_on_c, 11, 64, 84
14, 3111, Note_on_c, 11, 59, 0
14, 3111, Note_on_c, 11, 64, 0
14, 3120, Note_on_c, 11, 57, 92
14, 3120, Note_on_c, 11, 64, 92
14, 3171, Note_on_c, 11, 57, 0
14, 3171, Note_on_c, 11, 64, 0
14, 3180, Note_on_c, 11, 64, 84
14, 3180, Note_on_c, 11, 57, 84
14, 3231, Note_on_c, 11, 64, 0
14, 3231, Note_on_c, 11, 57, 0
14, 3240, Note_on_c, 11, 64, 84
14, 3240, Note_on_c, 11, 59, 84
14, 3291, Note_on_c, 11, 64, 0
14, 3291, Note_on_c, 11, 59, 0
14, 3300, Note_on_c, 11, 59, 84
14, 3300, Note_on_c, 11, 64, 84
14, 3351, Note_on_c, 11, 59, 0
14, 3351, Note_on_c, 11, 64, 0
14, 3360, Note_on_c, 11, 61, 84
14, 3404, Note_on_c, 11, 61, 0
14, 3420, Note_on_c, 11, 61, 84
14, 3479, Note_on_c, 11, 61, 0
14, 3480, Note_on_c, 11, 62, 84
14, 3539, Note_on_c, 11, 62, 0
14, 3540, Note_on_c, 11, 64, 84
14, 3599, Note_on_c, 11, 64, 0
14, 3600, Note_on_c, 11, 66, 92
14, 3659, Note_on_c, 11, 66, 0
14, 3660, Note_on_c, 11, 64, 84
14, 3719, Note_on_c, 11, 64, 0
14, 3720, Note_on_c, 11, 62, 84
14, 3779, Note_on_c, 11, 62, 0
14, 3780, Note_on_c, 11, 61, 84
14, 3831, Note_on_c, 11, 61, 0
14, 3840, Note_on_c, 11, 59, 84
14, 3891, Note_on_c, 11, 59, 0
14, 3900, Note_on_c, 11, 59, 84
14, 3900, Note_on_c, 11, 64, 84
14, 3951, Note_on_c, 11, 59, 0
14, 3951, Note_on_c, 11, 64, 0
14, 3960, Note_on_c, 11, 59, 84
14, 3960, Note_on_c, 11, 64, 84
14, 4011, Note_on_c, 11, 59, 0
14, 4011, Note_on_c, 11, 64, 0
14, 4020, Note_on_c, 11, 64, 84
14, 4020, Note_on_c, 11, 59, 84
14, 4071, Note_on_c, 11, 64, 0
14, 4071, Note_on_c, 11, 59, 0
14, 4080, Note_on_c, 11, 57, 92
14, 4080, Note_on_c, 11, 64, 92
14, 4131, Note_on_c, 11, 57, 0
14, 4131, Note_on_c, 11, 64, 0
14, 4140, Note_on_c, 11, 64, 84
14, 4140, Note_on_c, 11, 57, 84
14, 4191, Note_on_c, 11, 64, 0
14, 4191, Note_on_c, 11, 57, 0
14, 4200, Note_on_c, 11, 64, 84
14, 4200, Note_on_c, 11, 59, 84
14, 4251, Note_on_c, 11, 64, 0
14, 4251, Note_on_c, 11, 59, 0
14, 4260, Note_on_c, 11, 64, 84
14, 4260, Note_on_c, 11, 59, 84
14, 4311, Note_on_c, 11, 64, 0
14, 4311, Note_on_c, 11, 59, 0
14, 4320, Note_on_c, 11, 61, 84
14, 4320, Note_on_c, 11, 64, 84
14, 4371, Note_on_c, 11, 61, 0
14, 4371, Note_on_c, 11, 64, 0
14, 4380, Note_on_c, 11, 61, 84
14, 4380, Note_on_c, 11, 64, 84
14, 4431, Note_on_c, 11, 61, 0
14, 4431, Note_on_c, 11, 64, 0
14, 4440, Note_on_c, 11, 64, 84
14, 4440, Note_on_c, 11, 61, 84
14, 4491, Note_on_c, 11, 64, 0
14, 4491, Note_on_c, 11, 61, 0
14, 4500, Note_on_c, 11, 61, 84
14, 4500, Note_on_c, 11, 64, 84
14, 4551, Note_on_c, 11, 61, 0
14, 4551, Note_on_c, 11, 64, 0
14, 4560, Note_on_c, 11, 59, 92
14, 4560, Note_on_c, 11, 64, 92
14, 4611, Note_on_c, 11, 59, 0
14, 4611, Note_on_c, 11, 64, 0
14, 4620, Note_on_c, 11, 64, 84
14, 4620, Note_on_c, 11, 59, 84
14, 4671, Note_on_c, 11, 64, 0
14, 4671, Note_on_c, 11, 59, 0
14, 4680, Note_on_c, 11, 61, 84
14, 4680, Note_on_c, 11, 64, 84
14, 4731, Note_on_c, 11, 61, 0
14, 4731, Note_on_c, 11, 64, 0
14, 4740, Note_on_c, 11, 64, 84
14, 4740, Note_on_c, 11, 61, 84
14, 4791, Note_on_c, 11, 64, 0
14, 4791, Note_on_c, 11, 61, 0
14, 4800, Note_on_c, 11, 64, 84
14, 4800, Note_on_c, 11, 59, 84
14, 4851, Note_on_c, 11, 64, 0
14, 4851, Note_on_c, 11, 59, 0
14, 4860, Note_on_c, 11, 64, 84
14, 4860, Note_on_c, 11, 59, 84
14, 4911, Note_on_c, 11, 64, 0
14, 4911, Note_on_c, 11, 59, 0
14, 4920, Note_on_c, 11, 64, 84
14, 4920, Note_on_c, 11, 59, 84
14, 4971, Note_on_c, 11, 64, 0
14, 4971, Note_on_c, 11, 59, 0
14, 4980, Note_on_c, 11, 64, 84
14, 4980, Note_on_c, 11, 59, 84
14, 5031, Note_on_c, 11, 64, 0
14, 5031, Note_on_c, 11, 59, 0
14, 5040, Note_on_c, 11, 64, 92
14, 5040, Note_on_c, 11, 57, 92
14, 5091, Note_on_c, 11, 64, 0
14, 5091, Note_on_c, 11, 57, 0
14, 5100, Note_on_c, 11, 64, 84
14, 5100, Note_on_c, 11, 57, 84
14, 5151, Note_on_c, 11, 64, 0
14, 5151, Note_on_c, 11, 57, 0
14, 5160, Note_on_c, 11, 64, 84
14, 5160, Note_on_c, 11, 59, 84
14, 5211, Note_on_c, 11, 64, 0
14, 5211, Note_on_c, 11, 59, 0
14, 5220, Note_on_c, 11, 64, 84
14, 5220, Note_on_c, 11, 59, 84
14, 5271, Note_on_c, 11, 64, 0
14, 5271, Note_on_c, 11, 59, 0
14, 5280, Note_on_c, 11, 61, 84
14, 5339, Note_on_c, 11, 61, 0
14, 5340, Note_on_c, 11, 62, 84
14, 5399, Note_on_c, 11, 62, 0
14, 5400, Note_on_c, 11, 64, 84
14, 5459, Note_on_c, 11, 64, 0
14, 5460, Note_on_c, 11, 66, 84
14, 5519, Note_on_c, 11, 66, 0
14, 5520, Note_on_c, 11, 68, 84
14, 5579, Note_on_c, 11, 68, 0
14, 5580, Note_on_c, 11, 69, 84
14, 5639, Note_on_c, 11, 69, 0
14, 5640, Note_on_c, 11, 71, 84
14, 5699, Note_on_c, 11, 71, 0
14, 5700, Note_on_c, 11, 73, 84
14, 5751, Note_on_c, 11, 73, 0
14, 5760, Note_on_c, 11, 64, 84
14, 5760, Note_on_c, 11, 59, 84
14, 5811, Note_on_c, 11, 64, 0
14, 5811, Note_on_c, 11, 59, 0
14, 5820, Note_on_c, 11, 59, 84
14, 5820, Note_on_c, 11, 64, 84
14, 5871, Note_on_c, 11, 59, 0
14, 5871, Note_on_c, 11, 64, 0
14, 5880, Note_on_c, 11, 64, 84
14, 5880, Note_on_c, 11, 59, 84
14, 5931, Note_on_c, 11, 64, 0
14, 5931, Note_on_c, 11, 59, 0
14, 5940, Note_on_c, 11, 59, 84
14, 5940, Note_on_c, 11, 64, 84
14, 5991, Note_on_c, 11, 59, 0
14, 5991, Note_on_c, 11, 64, 0
14, 6000, Note_on_c, 11, 64, 92
14, 6000, Note_on_c, 11, 57, 92
14, 6051, Note_on_c, 11, 64, 0
14, 6051, Note_on_c, 11, 57, 0
14, 6060, Note_on_c, 11, 64, 84
14, 6060, Note_on_c, 11, 57, 84
14, 6111, Note_on_c, 11, 64, 0
14, 6111, Note_on_c, 11, 57, 0
14, 6120, Note_on_c, 11, 64, 84
14, 6120, Note_on_c, 11, 59, 84
14, 6171, Note_on_c, 11, 64, 0
14, 6171, Note_on_c, 11, 59, 0
14, 6180, Note_on_c, 11, 64, 84
14, 6180, Note_on_c, 11, 59, 84
14, 6231, Note_on_c, 11, 64, 0
14, 6231, Note_on_c, 11, 59, 0
14, 6240, Note_on_c, 11, 64, 84
14, 6240, Note_on_c, 11, 61, 84
14, 6291, Note_on_c, 11, 64, 0
14, 6291, Note_on_c, 11, 61, 0
14, 6300, Note_on_c, 11, 61, 84
14, 6300, Note_on_c, 11, 64, 84
14, 6351, Note_on_c, 11, 61, 0
14, 6351, Note_on_c, 11, 64, 0
14, 6360, Note_on_c, 11, 64, 84
14, 6360, Note_on_c, 11, 61, 84
14, 6411, Note_on_c, 11, 64, 0
14, 6411, Note_on_c, 11, 61, 0
14, 6420, Note_on_c, 11, 61, 84
14, 6420, Note_on_c, 11, 64, 84
14, 6471, Note_on_c, 11, 61, 0
14, 6471, Note_on_c, 11, 64, 0
14, 6480, Note_on_c, 11, 59, 92
14, 6480, Note_on_c, 11, 64, 92
14, 6531, Note_on_c, 11, 59, 0
14, 6531, Note_on_c, 11, 64, 0
14, 6540, Note_on_c, 11, 59, 84
14, 6540, Note_on_c, 11, 64, 84
14, 6591, Note_on_c, 11, 59, 0
14, 6591, Note_on_c, 11, 64, 0
14, 6600, Note_on_c, 11, 61, 84
14, 6600, Note_on_c, 11, 64, 84
14, 6651, Note_on_c, 11, 61, 0
14, 6651, Note_on_c, 11, 64, 0
14, 6660, Note_on_c, 11, 61, 84
14, 6660, Note_on_c, 11, 64, 84
14, 6711, Note_on_c, 11, 61, 0
14, 6711, Note_on_c, 11, 64, 0
14, 6720, Note_on_c, 11, 59, 84
14, 6720, Note_on_c, 11, 64, 84
14, 6771, Note_on_c, 11, 59, 0
14, 6771, Note_on_c, 11, 64, 0
14, 6780, Note_on_c, 11, 64, 84
14, 6780, Note_on_c, 11, 59, 84
14, 6831, Note_on_c, 11, 64, 0
14, 6831, Note_on_c, 11, 59, 0
14, 6840, Note_on_c, 11, 64, 84
14, 6840, Note_on_c, 11, 59, 84
14, 6891, Note_on_c, 11, 64, 0
14, 6891, Note_on_c, 11, 59, 0
14, 6900, Note_on_c, 11, 64, 84
14, 6900, Note_on_c, 11, 59, 84
14, 6951, Note_on_c, 11, 64, 0
14, 6951, Note_on_c, 11, 59, 0
14, 6960, Note_on_c, 11, 57, 92
14, 6960, Note_on_c, 11, 64, 92
14, 7011, Note_on_c, 11, 57, 0
14, 7011, Note_on_c, 11, 64, 0
14, 7020, Note_on_c, 11, 64, 84
14, 7020, Note_on_c, 11, 57, 84
14, 7071, Note_on_c, 11, 64, 0
14, 7071, Note_on_c, 11, 57, 0
14, 7080, Note_on_c, 11, 59, 84
14, 7080, Note_on_c, 11, 64, 84
14, 7131, Note_on_c, 11, 59, 0
14, 7131, Note_on_c, 11, 64, 0
14, 7140, Note_on_c, 11, 64, 84
14, 7140, Note_on_c, 11, 59, 84
14, 7191, Note_on_c, 11, 64, 0
14, 7191, Note_on_c, 11, 59, 0
14, 7200, Note_on_c, 11, 61, 84
14, 7244, Note_on_c, 11, 61, 0
14, 7260, Note_on_c, 11, 61, 84
14, 7319, Note_on_c, 11, 61, 0
14, 7320, Note_on_c, 11, 62, 84
14, 7379, Note_on_c, 11, 62, 0
14, 7380, Note_on_c, 11, 64, 84
14, 7439, Note_on_c, 11, 64, 0
14, 7440, Note_on_c, 11, 66, 92
14, 7499, Note_on_c, 11, 66, 0
14, 7500, Note_on_c, 11, 64, 84
14, 7559, Note_on_c, 11, 64, 0
14, 7560, Note_on_c, 11, 62, 84
14, 7619, Note_on_c, 11, 62, 0
14, 7620, Note_on_c, 11, 61, 84
14, 7671, Note_on_c, 11, 61, 0
14, 7680, Note_on_c, 11, 59, 84
14, 7731, Note_on_c, 11, 59, 0
14, 7740, Note_on_c, 11, 64, 84
14, 7740, Note_on_c, 11, 59, 84
14, 7791, Note_on_c, 11, 64, 0
14, 7791, Note_on_c, 11, 59, 0
14, 7800, Note_on_c, 11, 64, 84
14, 7800, Note_on_c, 11, 59, 84
14, 7851, Note_on_c, 11, 64, 0
14, 7851, Note_on_c, 11, 59, 0
14, 7860, Note_on_c, 11, 59, 84
14, 7860, Note_on_c, 11, 64, 84
14, 7911, Note_on_c, 11, 59, 0
14, 7911, Note_on_c, 11, 64, 0
14, 7920, Note_on_c, 11, 64, 92
14, 7920, Note_on_c, 11, 57, 92
14, 7971, Note_on_c, 11, 64, 0
14, 7971, Note_on_c, 11, 57, 0
14, 7980, Note_on_c, 11, 64, 84
14, 7980, Note_on_c, 11, 57, 84
14, 8031, Note_on_c, 11, 64, 0
14, 8031, Note_on_c, 11, 57, 0
14, 8040, Note_on_c, 11, 59, 84
14, 8040, Note_on_c, 11, 64, 84
14, 8091, Note_on_c, 11, 59, 0
14, 8091, Note_on_c, 11, 64, 0
14, 8100, Note_on_c, 11, 64, 84
14, 8100, Note_on_c, 11, 59, 84
14, 8151, Note_on_c, 11, 64, 0
14, 8151, Note_on_c, 11, 59, 0
14, 8160, Note_on_c, 11, 61, 84
14, 8160, Note_on_c, 11, 64, 84
14, 8211, Note_on_c, 11, 61, 0
14, 8211, Note_on_c, 11, 64, 0
14, 8220, Note_on_c, 11, 64, 84
14, 8220, Note_on_c, 11, 61, 84
14, 8271, Note_on_c, 11, 64, 0
14, 8271, Note_on_c, 11, 61, 0
14, 8280, Note_on_c, 11, 61, 84
14, 8280, Note_on_c, 11, 64, 84
14, 8331, Note_on_c, 11, 61, 0
14, 8331, Note_on_c, 11, 64, 0
14, 8340, Note_on_c, 11, 61, 84
14, 8340, Note_on_c, 11, 64, 84
14, 8391, Note_on_c, 11, 61, 0
14, 8391, Note_on_c, 11, 64, 0
14, 8400, Note_on_c, 11, 59, 92
14, 8400, Note_on_c, 11, 64, 92
14, 8451, Note_on_c, 11, 59, 0
14, 8451, Note_on_c, 11, 64, 0
14, 8460, Note_on_c, 11, 64, 84
14, 8460, Note_on_c, 11, 59, 84
14, 8511, Note_on_c, 11, 64, 0
14, 8511, Note_on_c, 11, 59, 0
14, 8520, Note_on_c, 11, 64, 84
14, 8520, Note_on_c, 11, 61, 84
14, 8571, Note_on_c, 11, 64, 0
14, 8571, Note_on_c, 11, 61, 0
14, 8580, Note_on_c, 11, 64, 84
14, 8580, Note_on_c, 11, 61, 84
14, 8631, Note_on_c, 11, 64, 0
14, 8631, Note_on_c, 11, 61, 0
14, 8640, Note_on_c, 11, 64, 84
14, 8640, Note_on_c, 11, 59, 84
14, 8691, Note_on_c, 11, 64, 0
14, 8691, Note_on_c, 11, 59, 0
14, 8700, Note_on_c, 11, 59, 84
14, 8700, Note_on_c, 11, 64, 84
14, 8751, Note_on_c, 11, 59, 0
14, 8751, Note_on_c, 11, 64, 0
14, 8760, Note_on_c, 11, 64, 84
14, 8760, Note_on_c, 11, 59, 84
14, 8811, Note_on_c, 11, 64, 0
14, 8811, Note_on_c, 11, 59, 0
14, 8820, Note_on_c, 11, 59, 84
14, 8820, Note_on_c, 11, 64, 84
14, 8871, Note_on_c, 11, 59, 0
14, 8871, Note_on_c, 11, 64, 0
14, 8880, Note_on_c, 11, 57, 92
14, 8880, Note_on_c, 11, 64, 92
14, 8931, Note_on_c, 11, 57, 0
14, 8931, Note_on_c, 11, 64, 0
14, 8940, Note_on_c, 11, 57, 84
14, 8940, Note_on_c, 11, 64, 84
14, 8991, Note_on_c, 11, 57, 0
14, 8991, Note_on_c, 11, 64, 0
14, 9000, Note_on_c, 11, 59, 84
14, 9000, Note_on_c, 11, 64, 84
14, 9051, Note_on_c, 11, 59, 0
14, 9051, Note_on_c, 11, 64, 0
14, 9060, Note_on_c, 11, 59, 84
14, 9060, Note_on_c, 11, 64, 84
14, 9111, Note_on_c, 11, 59, 0
14, 9111, Note_on_c, 11, 64, 0
14, 9120, Note_on_c, 11, 61, 84
14, 9179, Note_on_c, 11, 61, 0
14, 9180, Note_on_c, 11, 62, 84
14, 9239, Note_on_c, 11, 62, 0
14, 9240, Note_on_c, 11, 64, 84
14, 9299, Note_on_c, 11, 64, 0
14, 9300, Note_on_c, 11, 66, 84
14, 9359, Note_on_c, 11, 66, 0
14, 9360, Note_on_c, 11, 67, 84
14, 9419, Note_on_c, 11, 67, 0
14, 9420, Note_on_c, 11, 66, 84
14, 9479, Note_on_c, 11, 66, 0
14, 9480, Note_on_c, 11, 67, 84
14, 9539, Note_on_c, 11, 67, 0
14, 9540, Note_on_c, 11, 64, 84
14, 9591, Note_on_c, 11, 64, 0
14, 9600, Note_on_c, 11, 66, 84
14, 9651, Note_on_c, 11, 66, 0
14, 9660, Note_on_c, 11, 57, 84
14, 9711, Note_on_c, 11, 57, 0
14, 9720, Note_on_c, 11, 57, 84
14, 9771, Note_on_c, 11, 57, 0
14, 9780, Note_on_c, 11, 57, 84
14, 9831, Note_on_c, 11, 57, 0
14, 9840, Note_on_c, 11, 57, 92
14, 9891, Note_on_c, 11, 57, 0
14, 9900, Note_on_c, 11, 57, 84
14, 9951, Note_on_c, 11, 57, 0
14, 9960, Note_on_c, 11, 57, 84
14, 10011, Note_on_c, 11, 57, 0
14, 10020, Note_on_c, 11, 57, 84
14, 10071, Note_on_c, 11, 57, 0
14, 10080, Note_on_c, 11, 57, 84
14, 10131, Note_on_c, 11, 57, 0
14, 10140, Note_on_c, 11, 64, 84
14, 10191, Note_on_c, 11, 64, 0
14, 10200, Note_on_c, 11, 64, 84
14, 10251, Note_on_c, 11, 64, 0
14, 10260, Note_on_c, 11, 64, 84
14, 10311, Note_on_c, 11, 64, 0
14, 10320, Note_on_c, 11, 63, 92
14, 10371, Note_on_c, 11, 63, 0
14, 10380, Note_on_c, 11, 63, 84
14, 10431, Note_on_c, 11, 63, 0
14, 10440, Note_on_c, 11, 64, 84
14, 10491, Note_on_c, 11, 64, 0
14, 10500, Note_on_c, 11, 64, 84
14, 10551, Note_on_c, 11, 64, 0
14, 10560, Note_on_c, 11, 66, 84
14, 10611, Note_on_c, 11, 66, 0
14, 10620, Note_on_c, 11, 57, 84
14, 10671, Note_on_c, 11, 57, 0
14, 10680, Note_on_c, 11, 57, 84
14, 10731, Note_on_c, 11, 57, 0
14, 10740, Note_on_c, 11, 57, 84
14, 10791, Note_on_c, 11, 57, 0
14, 10800, Note_on_c, 11, 57, 92
14, 10851, Note_on_c, 11, 57, 0
14, 10860, Note_on_c, 11, 57, 84
14, 10911, Note_on_c, 11, 57, 0
14, 10920, Note_on_c, 11, 57, 84
14, 10971, Note_on_c, 11, 57, 0
14, 10980, Note_on_c, 11, 57, 84
14, 11031, Note_on_c, 11, 57, 0
14, 11040, Note_on_c, 11, 57, 84
14, 11091, Note_on_c, 11, 57, 0
14, 11100, Note_on_c, 11, 61, 84
14, 11151, Note_on_c, 11, 61, 0
14, 11160, Note_on_c, 11, 61, 84
14, 11211, Note_on_c, 11, 61, 0
14, 11220, Note_on_c, 11, 61, 84
14, 11271, Note_on_c, 11, 61, 0
14, 11280, Note_on_c, 11, 58, 92
14, 11331, Note_on_c, 11, 58, 0
14, 11340, Note_on_c, 11, 61, 84
14, 11391, Note_on_c, 11, 61, 0
14, 11400, Note_on_c, 11, 61, 84
14, 11451, Note_on_c, 11, 61, 0
14, 11460, Note_on_c, 11, 61, 84
14, 11511, Note_on_c, 11, 61, 0
14, 11520, Note_on_c, 11, 57, 84
14, 11571, Note_on_c, 11, 57, 0
14, 11580, Note_on_c, 11, 59, 84
14, 11631, Note_on_c, 11, 59, 0
14, 11640, Note_on_c, 11, 59, 84
14, 11691, Note_on_c, 11, 59, 0
14, 11700, Note_on_c, 11, 59, 84
14, 11751, Note_on_c, 11, 59, 0
14, 11760, Note_on_c, 11, 56, 92
14, 11811, Note_on_c, 11, 56, 0
14, 11820, Note_on_c, 11, 59, 84
14, 11871, Note_on_c, 11, 59, 0
14, 11880, Note_on_c, 11, 59, 84
14, 11931, Note_on_c, 11, 59, 0
14, 11940, Note_on_c, 11, 59, 84
14, 11991, Note_on_c, 11, 59, 0
14, 12000, Note_on_c, 11, 57, 84
14, 12051, Note_on_c, 11, 57, 0
14, 12060, Note_on_c, 11, 61, 84
14, 12111, Note_on_c, 11, 61, 0
14, 12120, Note_on_c, 11, 61, 84
14, 12171, Note_on_c, 11, 61, 0
14, 12180, Note_on_c, 11, 61, 84
14, 12231, Note_on_c, 11, 61, 0
14, 12240, Note_on_c, 11, 57, 92
14, 12291, Note_on_c, 11, 57, 0
14, 12300, Note_on_c, 11, 61, 84
14, 12351, Note_on_c, 11, 61, 0
14, 12360, Note_on_c, 11, 61, 84
14, 12411, Note_on_c, 11, 61, 0
14, 12420, Note_on_c, 11, 61, 84
14, 12471, Note_on_c, 11, 61, 0
14, 12480, Note_on_c, 11, 56, 84
14, 12531, Note_on_c, 11, 56, 0
14, 12540, Note_on_c, 11, 59, 84
14, 12591, Note_on_c, 11, 59, 0
14, 12600, Note_on_c, 11, 59, 84
14, 12651, Note_on_c, 11, 59, 0
14, 12660, Note_on_c, 11, 59, 84
14, 12711, Note_on_c, 11, 59, 0
14, 12720, Note_on_c, 11, 59, 92
14, 12771, Note_on_c, 11, 59, 0
14, 12780, Note_on_c, 11, 68, 84
14, 12831, Note_on_c, 11, 68, 0
14, 12840, Note_on_c, 11, 68, 84
14, 12891, Note_on_c, 11, 68, 0
14, 12900, Note_on_c, 11, 68, 84
14, 12951, Note_on_c, 11, 68, 0
14, 12960, Note_on_c, 11, 69, 84
14, 13019, Note_on_c, 11, 69, 0
14, 13020, Note_on_c, 11, 61, 84
14, 13079, Note_on_c, 11, 61, 0
14, 13080, Note_on_c, 11, 62, 84
14, 13139, Note_on_c, 11, 62, 0
14, 13140, Note_on_c, 11, 64, 84
14, 13199, Note_on_c, 11, 64, 0
14, 13200, Note_on_c, 11, 66, 84
14, 13259, Note_on_c, 11, 66, 0
14, 13260, Note_on_c, 11, 67, 84
14, 13319, Note_on_c, 11, 67, 0
14, 13320, Note_on_c, 11, 69, 84
14, 13379, Note_on_c, 11, 69, 0
14, 13380, Note_on_c, 11, 67, 84
14, 13431, Note_on_c, 11, 67, 0
14, 13440, Note_on_c, 11, 66, 84
14, 13491, Note_on_c, 11, 66, 0
14, 13500, Note_on_c, 11, 57, 84
14, 13551, Note_on_c, 11, 57, 0
14, 13560, Note_on_c, 11, 57, 84
14, 13611, Note_on_c, 11, 57, 0
14, 13620, Note_on_c, 11, 57, 84
14, 13671, Note_on_c, 11, 57, 0
14, 13680, Note_on_c, 11, 57, 92
14, 13731, Note_on_c, 11, 57, 0
14, 13740, Note_on_c, 11, 57, 84
14, 13791, Note_on_c, 11, 57, 0
14, 13800, Note_on_c, 11, 57, 84
14, 13851, Note_on_c, 11, 57, 0
14, 13860, Note_on_c, 11, 57, 84
14, 13911, Note_on_c, 11, 57, 0
14, 13920, Note_on_c, 11, 57, 84
14, 13971, Note_on_c, 11, 57, 0
14, 13980, Note_on_c, 11, 64, 84
14, 14031, Note_on_c, 11, 64, 0
14, 14040, Note_on_c, 11, 64, 84
14, 14091, Note_on_c, 11, 64, 0
14, 14100, Note_on_c, 11, 64, 84
14, 14151, Note_on_c, 11, 64, 0
14, 14160, Note_on_c, 11, 63, 92
14, 14211, Note_on_c, 11, 63, 0
14, 14220, Note_on_c, 11, 63, 84
14, 14271, Note_on_c, 11, 63, 0
14, 14280, Note_on_c, 11, 64, 84
14, 14331, Note_on_c, 11, 64, 0
14, 14340, Note_on_c, 11, 64, 84
14, 14391, Note_on_c, 11, 64, 0
14, 14400, Note_on_c, 11, 66, 84
14, 14451, Note_on_c, 11, 66, 0
14, 14460, Note_on_c, 11, 57, 84
14, 14511, Note_on_c, 11, 57, 0
14, 14520, Note_on_c, 11, 57, 84
14, 14571, Note_on_c, 11, 57, 0
14, 14580, Note_on_c, 11, 57, 84
14, 14631, Note_on_c, 11, 57, 0
14, 14640, Note_on_c, 11, 57, 92
14, 14691, Note_on_c, 11, 57, 0
14, 14700, Note_on_c, 11, 57, 84
14, 14751, Note_on_c, 11, 57, 0
14, 14760, Note_on_c, 11, 57, 84
14, 14811, Note_on_c, 11, 57, 0
14, 14820, Note_on_c, 11, 57, 84
14, 14871, Note_on_c, 11, 57, 0
14, 14880, Note_on_c, 11, 57, 84
14, 14931, Note_on_c, 11, 57, 0
14, 14940, Note_on_c, 11, 61, 84
14, 14991, Note_on_c, 11, 61, 0
14, 15000, Note_on_c, 11, 61, 84
14, 15051, Note_on_c, 11, 61, 0
14, 15060, Note_on_c, 11, 61, 84
14, 15111, Note_on_c, 11, 61, 0
14, 15120, Note_on_c, 11, 58, 92
14, 15171, Note_on_c, 11, 58, 0
14, 15180, Note_on_c, 11, 61, 84
14, 15231, Note_on_c, 11, 61, 0
14, 15240, Note_on_c, 11, 61, 84
14, 15291, Note_on_c, 11, 61, 0
14, 15300, Note_on_c, 11, 61, 84
14, 15351, Note_on_c, 11, 61, 0
14, 15360, Note_on_c, 11, 57, 84
14, 15411, Note_on_c, 11, 57, 0
14, 15420, Note_on_c, 11, 59, 84
14, 15471, Note_on_c, 11, 59, 0
14, 15480, Note_on_c, 11, 59, 84
14, 15531, Note_on_c, 11, 59, 0
14, 15540, Note_on_c, 11, 59, 84
14, 15591, Note_on_c, 11, 59, 0
14, 15600, Note_on_c, 11, 56, 92
14, 15651, Note_on_c, 11, 56, 0
14, 15660, Note_on_c, 11, 59, 84
14, 15711, Note_on_c, 11, 59, 0
14, 15720, Note_on_c, 11, 59, 84
14, 15771, Note_on_c, 11, 59, 0
14, 15780, Note_on_c, 11, 59, 84
14, 15831, Note_on_c, 11, 59, 0
14, 15840, Note_on_c, 11, 57, 84
14, 15891, Note_on_c, 11, 57, 0
14, 15900, Note_on_c, 11, 61, 84
14, 15951, Note_on_c, 11, 61, 0
14, 15960, Note_on_c, 11, 61, 84
14, 16011, Note_on_c, 11, 61, 0
14, 16020, Note_on_c, 11, 61, 84
14, 16071, Note_on_c, 11, 61, 0
14, 16080, Note_on_c, 11, 57, 92
14, 16131, Note_on_c, 11, 57, 0
14, 16140, Note_on_c, 11, 61, 84
14, 16191, Note_on_c, 11, 61, 0
14, 16200, Note_on_c, 11, 61, 84
14, 16251, Note_on_c, 11, 61, 0
14, 16260, Note_on_c, 11, 61, 84
14, 16311, Note_on_c, 11, 61, 0
14, 16320, Note_on_c, 11, 56, 84
14, 16371, Note_on_c, 11, 56, 0
14, 16380, Note_on_c, 11, 59, 84
14, 16431, Note_on_c, 11, 59, 0
14, 16440, Note_on_c, 11, 59, 84
14, 16491, Note_on_c, 11, 59, 0
14, 16500, Note_on_c, 11, 59, 84
14, 16551, Note_on_c, 11, 59, 0
14, 16560, Note_on_c, 11, 59, 92
14, 16611, Note_on_c, 11, 59, 0
14, 16620, Note_on_c, 11, 68, 84
14, 16671, Note_on_c, 11, 68, 0
14, 16680, Note_on_c, 11, 68, 84
14, 16731, Note_on_c, 11, 68, 0
14, 16740, Note_on_c, 11, 68, 84
14, 16791, Note_on_c, 11, 68, 0
14, 16800, Note_on_c, 11, 69, 84
14, 16800, Note_on_c, 11, 61, 84
14, 16919, Note_on_c, 11, 69, 0
14, 16919, Note_on_c, 11, 61, 0
14, 17280, Note_on_c, 11, 81, 84
14, 17280, Note_on_c, 11, 73, 84
14, 17280, Note_on_c, 11, 64, 84
14, 17399, Note_on_c, 11, 81, 0
14, 17399, Note_on_c, 11, 73, 0
14, 17399, Note_on_c, 11, 64, 0
14, 17760, Note_on_c, 11, 80, 84
14, 17760, Note_on_c, 11, 71, 84
14, 17760, Note_on_c, 11, 64, 84
14, 17879, Note_on_c, 11, 80, 0
14, 17879, Note_on_c, 11, 71, 0
14, 17879, Note_on_c, 11, 64, 0
14, 18240, Note_on_c, 11, 71, 84
14, 18240, Note_on_c, 11, 64, 84
14, 18240, Note_on_c, 11, 80, 84
14, 18359, Note_on_c, 11, 71, 0
14, 18359, Note_on_c, 11, 64, 0
14, 18359, Note_on_c, 11, 80, 0
14, 18720, Note_on_c, 11, 81, 84
14, 18720, Note_on_c, 11, 73, 84
14, 18720, Note_on_c, 11, 64, 84
14, 18839, Note_on_c, 11, 81, 0
14, 18839, Note_on_c, 11, 73, 0
14, 18839, Note_on_c, 11, 64, 0
14, 18960, Note_on_c, 11, 64, 84
14, 18960, Note_on_c, 11, 81, 84
14, 18960, Note_on_c, 11, 73, 84
14, 19079, Note_on_c, 11, 64, 0
14, 19079, Note_on_c, 11, 81, 0
14, 19079, Note_on_c, 11, 73, 0
14, 19200, Note_on_c, 11, 64, 84
14, 19200, Note_on_c, 11, 73, 84
14, 19200, Note_on_c, 11, 81, 84
14, 19319, Note_on_c, 11, 64, 0
14, 19319, Note_on_c, 11, 73, 0
14, 19319, Note_on_c, 11, 81, 0
14, 19440, Note_on_c, 11, 64, 84
14, 19440, Note_on_c, 11, 81, 84
14, 19440, Note_on_c, 11, 73, 84
14, 19559, Note_on_c, 11, 64, 0
14, 19559, Note_on_c, 11, 81, 0
14, 19559, Note_on_c, 11, 73, 0
14, 19680, Note_on_c, 11, 80, 84
14, 19680, Note_on_c, 11, 64, 84
14, 19680, Note_on_c, 11, 71, 84
14, 19799, Note_on_c, 11, 80, 0
14, 19799, Note_on_c, 11, 64, 0
14, 19799, Note_on_c, 11, 71, 0
14, 19920, Note_on_c, 11, 64, 84
14, 19920, Note_on_c, 11, 71, 84
14, 19920, Note_on_c, 11, 80, 84
14, 20039, Note_on_c, 11, 64, 0
14, 20039, Note_on_c, 11, 71, 0
14, 20039, Note_on_c, 11, 80, 0
14, 20160, Note_on_c, 11, 64, 84
14, 20160, Note_on_c, 11, 71, 84
14, 20160, Note_on_c, 11, 80, 84
14, 20279, Note_on_c, 11, 64, 0
14, 20279, Note_on_c, 11, 71, 0
14, 20279, Note_on_c, 11, 80, 0
14, 20400, Note_on_c, 11, 80, 84
14, 20400, Note_on_c, 11, 71, 84
14, 20400, Note_on_c, 11, 64, 84
14, 20519, Note_on_c, 11, 80, 0
14, 20519, Note_on_c, 11, 71, 0
14, 20519, Note_on_c, 11, 64, 0
14, 20640, Note_on_c, 11, 73, 84
14, 20640, Note_on_c, 11, 64, 84
14, 20640, Note_on_c, 11, 57, 84
14, 20640, Note_on_c, 11, 81, 84
14, 20759, Note_on_c, 11, 73, 0
14, 20759, Note_on_c, 11, 64, 0
14, 20759, Note_on_c, 11, 57, 0
14, 20759, Note_on_c, 11, 81, 0
14, 21120, Note_on_c, 11, 57, 84
14, 21120, Note_on_c, 11, 73, 84
14, 21120, Note_on_c, 11, 81, 84
14, 21120, Note_on_c, 11, 64, 84
14, 21239, Note_on_c, 11, 57, 0
14, 21239, Note_on_c, 11, 73, 0
14, 21239, Note_on_c, 11, 81, 0
14, 21239, Note_on_c, 11, 64, 0
14, 21600, Note_on_c, 11, 64, 84
14, 21600, Note_on_c, 11, 71, 84
14, 21600, Note_on_c, 11, 80, 84
14, 21719, Note_on_c, 11, 64, 0
14, 21719, Note_on_c, 11, 71, 0
14, 21719, Note_on_c, 11, 80, 0
14, 22080, Note_on_c, 11, 80, 84
14, 22080, Note_on_c, 11, 71, 84
14, 22080, Note_on_c, 11, 64, 84
14, 22199, Note_on_c, 11, 80, 0
14, 22199, Note_on_c, 11, 71, 0
14, 22199, Note_on_c, 11, 64, 0
14, 22560, Note_on_c, 11, 76, 84
14, 22611, Note_on_c, 11, 76, 0
14, 22620, Note_on_c, 11, 76, 84
14, 22671, Note_on_c, 11, 76, 0
14, 22680, Note_on_c, 11, 76, 84
14, 22731, Note_on_c, 11, 76, 0
14, 22740, Note_on_c, 11, 76, 84
14, 22791, Note_on_c, 11, 76, 0
14, 22800, Note_on_c, 11, 76, 84
14, 22851, Note_on_c, 11, 76, 0
14, 22860, Note_on_c, 11, 76, 84
14, 22911, Note_on_c, 11, 76, 0
14, 22920, Note_on_c, 11, 74, 84
14, 22971, Note_on_c, 11, 74, 0
14, 22980, Note_on_c, 11, 74, 84
14, 23031, Note_on_c, 11, 74, 0
14, 23040, Note_on_c, 11, 73, 84
14, 23091, Note_on_c, 11, 73, 0
14, 23100, Note_on_c, 11, 73, 84
14, 23151, Note_on_c, 11, 73, 0
14, 23160, Note_on_c, 11, 76, 84
14, 23211, Note_on_c, 11, 76, 0
14, 23220, Note_on_c, 11, 76, 84
14, 23271, Note_on_c, 11, 76, 0
14, 23280, Note_on_c, 11, 74, 84
14, 23331, Note_on_c, 11, 74, 0
14, 23340, Note_on_c, 11, 74, 84
14, 23391, Note_on_c, 11, 74, 0
14, 23400, Note_on_c, 11, 73, 84
14, 23451, Note_on_c, 11, 73, 0
14, 23460, Note_on_c, 11, 73, 84
14, 23511, Note_on_c, 11, 73, 0
14, 23520, Note_on_c, 11, 74, 84
14, 23571, Note_on_c, 11, 74, 0
14, 23580, Note_on_c, 11, 74, 84
14, 23631, Note_on_c, 11, 74, 0
14, 23640, Note_on_c, 11, 73, 84
14, 23691, Note_on_c, 11, 73, 0
14, 23700, Note_on_c, 11, 73, 84
14, 23751, Note_on_c, 11, 73, 0
14, 23760, Note_on_c, 11, 71, 84
14, 23811, Note_on_c, 11, 71, 0
14, 23820, Note_on_c, 11, 71, 84
14, 23871, Note_on_c, 11, 71, 0
14, 23880, Note_on_c, 11, 69, 84
14, 23931, Note_on_c, 11, 69, 0
14, 23940, Note_on_c, 11, 69, 84
14, 23991, Note_on_c, 11, 69, 0
14, 24000, Note_on_c, 11, 68, 84
14, 24051, Note_on_c, 11, 68, 0
14, 24060, Note_on_c, 11, 68, 84
14, 24111, Note_on_c, 11, 68, 0
14, 24120, Note_on_c, 11, 66, 84
14, 24171, Note_on_c, 11, 66, 0
14, 24180, Note_on_c, 11, 66, 84
14, 24231, Note_on_c, 11, 66, 0
14, 24240, Note_on_c, 11, 64, 84
14, 24291, Note_on_c, 11, 64, 0
14, 24300, Note_on_c, 11, 64, 84
14, 24351, Note_on_c, 11, 64, 0
14, 24360, Note_on_c, 11, 62, 84
14, 24411, Note_on_c, 11, 62, 0
14, 24420, Note_on_c, 11, 62, 84
14, 24471, Note_on_c, 11, 62, 0
14, 24480, Note_on_c, 11, 61, 84
14, 24599, Note_on_c, 11, 61, 0
14, 25080, Note_on_c, 11, 64, 84
14, 25139, Note_on_c, 11, 64, 0
14, 25140, Note_on_c, 11, 66, 84
14, 25199, Note_on_c, 11, 66, 0
14, 25200, Note_on_c, 11, 69, 84
14, 25259, Note_on_c, 11, 69, 0
14, 25260, Note_on_c, 11, 68, 84
14, 25319, Note_on_c, 11, 68, 0
14, 25320, Note_on_c, 11, 66, 84
14, 25379, Note_on_c, 11, 66, 0
14, 25380, Note_on_c, 11, 68, 84
14, 25431, Note_on_c, 11, 68, 0
14, 25440, Note_on_c, 11, 69, 84
14, 25679, Note_on_c, 11, 69, 0
14, 25680, Note_on_c, 11, 62, 84
14, 25919, Note_on_c, 11, 62, 0
14, 25920, Note_on_c, 11, 61, 84
14, 26159, Note_on_c, 11, 61, 0
14, 26160, Note_on_c, 11, 62, 84
14, 26399, Note_on_c, 11, 62, 0
14, 26400, Note_on_c, 11, 61, 84
14, 26639, Note_on_c, 11, 61, 0
14, 27000, Note_on_c, 11, 64, 84
14, 27059, Note_on_c, 11, 64, 0
14, 27060, Note_on_c, 11, 66, 84
14, 27119, Note_on_c, 11, 66, 0
14, 27120, Note_on_c, 11, 69, 84
14, 27179, Note_on_c, 11, 69, 0
14, 27180, Note_on_c, 11, 68, 84
14, 27239, Note_on_c, 11, 68, 0
14, 27240, Note_on_c, 11, 66, 84
14, 27299, Note_on_c, 11, 66, 0
14, 27300, Note_on_c, 11, 68, 84
14, 27351, Note_on_c, 11, 68, 0
14, 27360, Note_on_c, 11, 69, 84
14, 27599, Note_on_c, 11, 69, 0
14, 27600, Note_on_c, 11, 62, 84
14, 27839, Note_on_c, 11, 62, 0
14, 27840, Note_on_c, 11, 61, 84
14, 28064, Note_on_c, 11, 61, 0
14, 28080, Note_on_c, 11, 61, 84
14, 28304, Note_on_c, 11, 61, 0
14, 28320, Note_on_c, 11, 61, 84
14, 28409, Note_on_c, 11, 61, 0
14, 28440, Note_on_c, 11, 66, 84
14, 28499, Note_on_c, 11, 66, 0
14, 28500, Note_on_c, 11, 68, 84
14, 28559, Note_on_c, 11, 68, 0
14, 28560, Note_on_c, 11, 71, 84
14, 28619, Note_on_c, 11, 71, 0
14, 28620, Note_on_c, 11, 69, 84
14, 28679, Note_on_c, 11, 69, 0
14, 28680, Note_on_c, 11, 68, 84
14, 28739, Note_on_c, 11, 68, 0
14, 28740, Note_on_c, 11, 66, 84
14, 28791, Note_on_c, 11, 66, 0
14, 28800, Note_on_c, 11, 73, 84
14, 29039, Note_on_c, 11, 73, 0
14, 29040, Note_on_c, 11, 71, 84
14, 29279, Note_on_c, 11, 71, 0
14, 29280, Note_on_c, 11, 69, 84
14, 29519, Note_on_c, 11, 69, 0
14, 29520, Note_on_c, 11, 68, 84
14, 29744, Note_on_c, 11, 68, 0
14, 29760, Note_on_c, 11, 69, 84
14, 29999, Note_on_c, 11, 69, 0
14, 30000, Note_on_c, 11, 71, 84
14, 30224, Note_on_c, 11, 71, 0
14, 30240, Note_on_c, 11, 69, 84
14, 30329, Note_on_c, 11, 69, 0
14, 30360, Note_on_c, 11, 66, 84
14, 30419, Note_on_c, 11, 66, 0
14, 30420, Note_on_c, 11, 68, 84
14, 30479, Note_on_c, 11, 68, 0
14, 30480, Note_on_c, 11, 71, 84
14, 30539, Note_on_c, 11, 71, 0
14, 30540, Note_on_c, 11, 69, 84
14, 30599, Note_on_c, 11, 69, 0
14, 30600, Note_on_c, 11, 68, 84
14, 30659, Note_on_c, 11, 68, 0
14, 30660, Note_on_c, 11, 66, 84
14, 30711, Note_on_c, 11, 66, 0
14, 30720, Note_on_c, 11, 73, 84
14, 30959, Note_on_c, 11, 73, 0
14, 30960, Note_on_c, 11, 71, 84
14, 31199, Note_on_c, 11, 71, 0
14, 31200, Note_on_c, 11, 69, 84
14, 31439, Note_on_c, 11, 69, 0
14, 31440, Note_on_c, 11, 68, 84
14, 31679, Note_on_c, 11, 68, 0
14, 31680, Note_on_c, 11, 69, 84
14, 31919, Note_on_c, 11, 69, 0
14, 31920, Note_on_c, 11, 65, 84
14, 32144, Note_on_c, 11, 65, 0
14, 32160, Note_on_c, 11, 66, 84
14, 32331, Note_on_c, 11, 66, 0
14, 32340, Note_on_c, 11, 66, 84
14, 32391, Note_on_c, 11, 66, 0
14, 32400, Note_on_c, 11, 66, 84
14, 32571, Note_on_c, 11, 66, 0
14, 32580, Note_on_c, 11, 66, 84
14, 32631, Note_on_c, 11, 66, 0
14, 32640, Note_on_c, 11, 66, 84
14, 32811, Note_on_c, 11, 66, 0
14, 32820, Note_on_c, 11, 66, 84
14, 32871, Note_on_c, 11, 66, 0
14, 32880, Note_on_c, 11, 66, 84
14, 33051, Note_on_c, 11, 66, 0
14, 33060, Note_on_c, 11, 66, 84
14, 33111, Note_on_c, 11, 66, 0
14, 33120, Note_on_c, 11, 68, 84
14, 33291, Note_on_c, 11, 68, 0
14, 33300, Note_on_c, 11, 68, 84
14, 33351, Note_on_c, 11, 68, 0
14, 33360, Note_on_c, 11, 68, 84
14, 33531, Note_on_c, 11, 68, 0
14, 33540, Note_on_c, 11, 68, 84
14, 33591, Note_on_c, 11, 68, 0
14, 33600, Note_on_c, 11, 68, 84
14, 33771, Note_on_c, 11, 68, 0
14, 33780, Note_on_c, 11, 68, 84
14, 33831, Note_on_c, 11, 68, 0
14, 33840, Note_on_c, 11, 68, 84
14, 34011, Note_on_c, 11, 68, 0
14, 34020, Note_on_c, 11, 68, 84
14, 34071, Note_on_c, 11, 68, 0
14, 34080, Note_on_c, 11, 66, 84
14, 34251, Note_on_c, 11, 66, 0
14, 34260, Note_on_c, 11, 66, 84
14, 34311, Note_on_c, 11, 66, 0
14, 34320, Note_on_c, 11, 66, 84
14, 34491, Note_on_c, 11, 66, 0
14, 34500, Note_on_c, 11, 66, 84
14, 34551, Note_on_c, 11, 66, 0
14, 34560, Note_on_c, 11, 70, 84
14, 34731, Note_on_c, 11, 70, 0
14, 34740, Note_on_c, 11, 70, 84
14, 34791, Note_on_c, 11, 70, 0
14, 34800, Note_on_c, 11, 70, 84
14, 34971, Note_on_c, 11, 70, 0
14, 34980, Note_on_c, 11, 70, 84
14, 35031, Note_on_c, 11, 70, 0
14, 35040, Note_on_c, 11, 72, 84
14, 35211, Note_on_c, 11, 72, 0
14, 35220, Note_on_c, 11, 72, 84
14, 35271, Note_on_c, 11, 72, 0
14, 35280, Note_on_c, 11, 72, 84
14, 35451, Note_on_c, 11, 72, 0
14, 35460, Note_on_c, 11, 72, 84
14, 35511, Note_on_c, 11, 72, 0
14, 35520, Note_on_c, 11, 73, 84
14, 35691, Note_on_c, 11, 73, 0
14, 35700, Note_on_c, 11, 73, 84
14, 35751, Note_on_c, 11, 73, 0
14, 35760, Note_on_c, 11, 73, 84
14, 35931, Note_on_c, 11, 73, 0
14, 35940, Note_on_c, 11, 73, 84
14, 35991, Note_on_c, 11, 73, 0
14, 36000, Note_on_c, 11, 75, 84
14, 36171, Note_on_c, 11, 75, 0
14, 36180, Note_on_c, 11, 76, 84
14, 36231, Note_on_c, 11, 76, 0
14, 36240, Note_on_c, 11, 78, 84
14, 36411, Note_on_c, 11, 78, 0
14, 36420, Note_on_c, 11, 78, 84
14, 36471, Note_on_c, 11, 78, 0
14, 36480, Note_on_c, 11, 78, 84
14, 36651, Note_on_c, 11, 78, 0
14, 36660, Note_on_c, 11, 78, 84
14, 36711, Note_on_c, 11, 78, 0
14, 36720, Note_on_c, 11, 78, 84
14, 36891, Note_on_c, 11, 78, 0
14, 36900, Note_on_c, 11, 78, 84
14, 36951, Note_on_c, 11, 78, 0
14, 36960, Note_on_c, 11, 78, 84
14, 37011, Note_on_c, 11, 78, 0
14, 37020, Note_on_c, 11, 68, 84
14, 37071, Note_on_c, 11, 68, 0
14, 37080, Note_on_c, 11, 68, 84
14, 37131, Note_on_c, 11, 68, 0
14, 37140, Note_on_c, 11, 68, 84
14, 37191, Note_on_c, 11, 68, 0
14, 37200, Note_on_c, 11, 68, 76
14, 37251, Note_on_c, 11, 68, 0
14, 37260, Note_on_c, 11, 68, 76
14, 37311, Note_on_c, 11, 68, 0
14, 37320, Note_on_c, 11, 68, 76
14, 37371, Note_on_c, 11, 68, 0
14, 37380, Note_on_c, 11, 68, 76
14, 37431, Note_on_c, 11, 68, 0
14, 37440, Note_on_c, 11, 66, 52
14, 37491, Note_on_c, 11, 66, 0
14, 37500, Note_on_c, 11, 66, 52
14, 37551, Note_on_c, 11, 66, 0
14, 37560, Note_on_c, 11, 66, 52
14, 37611, Note_on_c, 11, 66, 0
14, 37620, Note_on_c, 11, 66, 52
14, 37671, Note_on_c, 11, 66, 0
14, 37680, Note_on_c, 11, 66, 52
14, 37731, Note_on_c, 11, 66, 0
14, 37740, Note_on_c, 11, 66, 52
14, 37791, Note_on_c, 11, 66, 0
14, 37800, Note_on_c, 11, 66, 52
14, 37851, Note_on_c, 11, 66, 0
14, 37860, Note_on_c, 11, 66, 52
14, 37911, Note_on_c, 11, 66, 0
14, 37920, Note_on_c, 11, 66, 52
14, 37971, Note_on_c, 11, 66, 0
14, 37980, Note_on_c, 11, 68, 52
14, 38031, Note_on_c, 11, 68, 0
14, 38040, Note_on_c, 11, 68, 52
14, 38091, Note_on_c, 11, 68, 0
14, 38100, Note_on_c, 11, 68, 52
14, 38151, Note_on_c, 11, 68, 0
14, 38160, Note_on_c, 11, 68, 52
14, 38211, Note_on_c, 11, 68, 0
14, 38220, Note_on_c, 11, 68, 52
14, 38271, Note_on_c, 11, 68, 0
14, 38280, Note_on_c, 11, 68, 52
14, 38331, Note_on_c, 11, 68, 0
14, 38340, Note_on_c, 11, 68, 52
14, 38391, Note_on_c, 11, 68, 0
14, 38400, Note_on_c, 11, 68, 52
14, 38451, Note_on_c, 11, 68, 0
14, 38460, Note_on_c, 11, 68, 52
14, 38511, Note_on_c, 11, 68, 0
14, 38520, Note_on_c, 11, 68, 52
14, 38571, Note_on_c, 11, 68, 0
14, 38580, Note_on_c, 11, 68, 52
14, 38631, Note_on_c, 11, 68, 0
14, 38640, Note_on_c, 11, 68, 52
14, 38691, Note_on_c, 11, 68, 0
14, 38700, Note_on_c, 11, 68, 52
14, 38751, Note_on_c, 11, 68, 0
14, 38760, Note_on_c, 11, 68, 52
14, 38811, Note_on_c, 11, 68, 0
14, 38820, Note_on_c, 11, 68, 52
14, 38871, Note_on_c, 11, 68, 0
14, 38880, Note_on_c, 11, 68, 52
14, 38931, Note_on_c, 11, 68, 0
14, 38940, Note_on_c, 11, 68, 52
14, 38991, Note_on_c, 11, 68, 0
14, 39000, Note_on_c, 11, 68, 52
14, 39051, Note_on_c, 11, 68, 0
14, 39060, Note_on_c, 11, 68, 52
14, 39111, Note_on_c, 11, 68, 0
14, 39120, Note_on_c, 11, 68, 76
14, 39171, Note_on_c, 11, 68, 0
14, 39180, Note_on_c, 11, 68, 76
14, 39231, Note_on_c, 11, 68, 0
14, 39240, Note_on_c, 11, 68, 76
14, 39291, Note_on_c, 11, 68, 0
14, 39300, Note_on_c, 11, 68, 76
14, 39351, Note_on_c, 11, 68, 0
14, 39360, Note_on_c, 11, 66, 52
14, 39411, Note_on_c, 11, 66, 0
14, 39420, Note_on_c, 11, 66, 52
14, 39471, Note_on_c, 11, 66, 0
14, 39480, Note_on_c, 11, 66, 52
14, 39531, Note_on_c, 11, 66, 0
14, 39540, Note_on_c, 11, 66, 52
14, 39591, Note_on_c, 11, 66, 0
14, 39600, Note_on_c, 11, 66, 52
14, 39651, Note_on_c, 11, 66, 0
14, 39660, Note_on_c, 11, 66, 52
14, 39711, Note_on_c, 11, 66, 0
14, 39720, Note_on_c, 11, 66, 52
14, 39771, Note_on_c, 11, 66, 0
14, 39780, Note_on_c, 11, 66, 52
14, 39831, Note_on_c, 11, 66, 0
14, 39840, Note_on_c, 11, 66, 52
14, 39891, Note_on_c, 11, 66, 0
14, 39900, Note_on_c, 11, 68, 52
14, 39951, Note_on_c, 11, 68, 0
14, 39960, Note_on_c, 11, 68, 52
14, 40011, Note_on_c, 11, 68, 0
14, 40020, Note_on_c, 11, 68, 52
14, 40071, Note_on_c, 11, 68, 0
14, 40080, Note_on_c, 11, 68, 52
14, 40131, Note_on_c, 11, 68, 0
14, 40140, Note_on_c, 11, 68, 52
14, 40191, Note_on_c, 11, 68, 0
14, 40200, Note_on_c, 11, 68, 52
14, 40251, Note_on_c, 11, 68, 0
14, 40260, Note_on_c, 11, 68, 52
14, 40311, Note_on_c, 11, 68, 0
14, 40320, Note_on_c, 11, 68, 52
14, 40371, Note_on_c, 11, 68, 0
14, 40380, Note_on_c, 11, 68, 52
14, 40431, Note_on_c, 11, 68, 0
14, 40440, Note_on_c, 11, 68, 52
14, 40491, Note_on_c, 11, 68, 0
14, 40500, Note_on_c, 11, 68, 52
14, 40551, Note_on_c, 11, 68, 0
14, 40560, Note_on_c, 11, 68, 52
14, 40611, Note_on_c, 11, 68, 0
14, 40620, Note_on_c, 11, 68, 52
14, 40671, Note_on_c, 11, 68, 0
14, 40680, Note_on_c, 11, 68, 52
14, 40731, Note_on_c, 11, 68, 0
14, 40740, Note_on_c, 11, 68, 52
14, 40791, Note_on_c, 11, 68, 0
14, 40800, Note_on_c, 11, 68, 52
14, 40851, Note_on_c, 11, 68, 0
14, 40860, Note_on_c, 11, 68, 52
14, 40911, Note_on_c, 11, 68, 0
14, 40920, Note_on_c, 11, 68, 52
14, 40971, Note_on_c, 11, 68, 0
14, 40980, Note_on_c, 11, 68, 52
14, 41031, Note_on_c, 11, 68, 0
14, 41040, Note_on_c, 11, 68, 51
14, 41091, Note_on_c, 11, 68, 0
14, 41100, Note_on_c, 11, 68, 51
14, 41151, Note_on_c, 11, 68, 0
14, 41160, Note_on_c, 11, 68, 51
14, 41211, Note_on_c, 11, 68, 0
14, 41220, Note_on_c, 11, 68, 51
14, 41271, Note_on_c, 11, 68, 0
14, 41280, Note_on_c, 11, 68, 50
14, 41331, Note_on_c, 11, 68, 0
14, 41340, Note_on_c, 11, 68, 50
14, 41391, Note_on_c, 11, 68, 0
14, 41400, Note_on_c, 11, 68, 50
14, 41451, Note_on_c, 11, 68, 0
14, 41460, Note_on_c, 11, 68, 50
14, 41511, Note_on_c, 11, 68, 0
14, 41520, Note_on_c, 11, 68, 49
14, 41571, Note_on_c, 11, 68, 0
14, 41580, Note_on_c, 11, 68, 49
14, 41631, Note_on_c, 11, 68, 0
14, 41640, Note_on_c, 11, 68, 49
14, 41691, Note_on_c, 11, 68, 0
14, 41700, Note_on_c, 11, 68, 49
14, 41751, Note_on_c, 11, 68, 0
14, 41760, Note_on_c, 11, 68, 48
14, 41811, Note_on_c, 11, 68, 0
14, 41820, Note_on_c, 11, 68, 48
14, 41871, Note_on_c, 11, 68, 0
14, 41880, Note_on_c, 11, 68, 48
14, 41931, Note_on_c, 11, 68, 0
14, 41940, Note_on_c, 11, 68, 48
14, 41991, Note_on_c, 11, 68, 0
14, 42000, Note_on_c, 11, 68, 47
14, 42051, Note_on_c, 11, 68, 0
14, 42060, Note_on_c, 11, 68, 47
14, 42111, Note_on_c, 11, 68, 0
14, 42120, Note_on_c, 11, 68, 47
14, 42171, Note_on_c, 11, 68, 0
14, 42180, Note_on_c, 11, 68, 47
14, 42231, Note_on_c, 11, 68, 0
14, 42240, Note_on_c, 11, 68, 46
14, 42291, Note_on_c, 11, 68, 0
14, 42300, Note_on_c, 11, 63, 46
14, 42351, Note_on_c, 11, 63, 0
14, 42360, Note_on_c, 11, 63, 46
14, 42411, Note_on_c, 11, 63, 0
14, 42420, Note_on_c, 11, 63, 46
14, 42471, Note_on_c, 11, 63, 0
14, 42480, Note_on_c, 11, 63, 45
14, 42531, Note_on_c, 11, 63, 0
14, 42540, Note_on_c, 11, 63, 45
14, 42591, Note_on_c, 11, 63, 0
14, 42600, Note_on_c, 11, 63, 45
14, 42651, Note_on_c, 11, 63, 0
14, 42660, Note_on_c, 11, 63, 45
14, 42711, Note_on_c, 11, 63, 0
14, 42720, Note_on_c, 11, 64, 52
14, 42891, Note_on_c, 11, 64, 0
14, 42900, Note_on_c, 11, 66, 52
14, 42944, Note_on_c, 11, 66, 0
14, 42960, Note_on_c, 11, 68, 76
14, 43191, Note_on_c, 11, 68, 0
14, 43200, Note_on_c, 11, 66, 52
14, 43371, Note_on_c, 11, 66, 0
14, 43380, Note_on_c, 11, 64, 52
14, 43424, Note_on_c, 11, 64, 0
14, 43440, Note_on_c, 11, 66, 76
14, 43671, Note_on_c, 11, 66, 0
14, 43680, Note_on_c, 11, 64, 52
14, 43851, Note_on_c, 11, 64, 0
14, 43860, Note_on_c, 11, 63, 52
14, 43904, Note_on_c, 11, 63, 0
14, 43920, Note_on_c, 11, 64, 76
14, 44151, Note_on_c, 11, 64, 0
14, 44160, Note_on_c, 11, 66, 52
14, 44331, Note_on_c, 11, 66, 0
14, 44340, Note_on_c, 11, 64, 52
14, 44384, Note_on_c, 11, 64, 0
14, 44400, Note_on_c, 11, 66, 76
14, 44631, Note_on_c, 11, 66, 0
14, 44640, Note_on_c, 11, 64, 52
14, 44759, Note_on_c, 11, 64, 0
14, 47040, Note_on_c, 11, 56, 52
14, 47040, Note_on_c, 11, 66, 52
14, 47264, Note_on_c, 11, 56, 0
14, 47264, Note_on_c, 11, 66, 0
14, 47280, Note_on_c, 11, 56, 52
14, 47280, Note_on_c, 11, 66, 52
14, 47504, Note_on_c, 11, 56, 0
14, 47504, Note_on_c, 11, 66, 0
14, 47520, Note_on_c, 11, 68, 52
14, 47691, Note_on_c, 11, 68, 0
14, 47700, Note_on_c, 11, 66, 52
14, 47744, Note_on_c, 11, 66, 0
14, 47760, Note_on_c, 11, 68, 76
14, 47991, Note_on_c, 11, 68, 0
14, 48000, Note_on_c, 11, 66, 52
14, 48171, Note_on_c, 11, 66, 0
14, 48180, Note_on_c, 11, 64, 52
14, 48224, Note_on_c, 11, 64, 0
14, 48240, Note_on_c, 11, 66, 76
14, 48471, Note_on_c, 11, 66, 0
14, 48480, Note_on_c, 11, 64, 52
14, 48651, Note_on_c, 11, 64, 0
14, 48660, Note_on_c, 11, 63, 52
14, 48704, Note_on_c, 11, 63, 0
14, 48720, Note_on_c, 11, 64, 76
14, 48951, Note_on_c, 11, 64, 0
14, 48960, Note_on_c, 11, 66, 52
14, 49131, Note_on_c, 11, 66, 0
14, 49140, Note_on_c, 11, 64, 52
14, 49184, Note_on_c, 11, 64, 0
14, 49200, Note_on_c, 11, 66, 76
14, 49431, Note_on_c, 11, 66, 0
14, 49440, Note_on_c, 11, 64, 52
14, 49559, Note_on_c, 11, 64, 0
14, 52020, Note_on_c, 11, 67, 55
14, 52079, Note_on_c, 11, 67, 0
14, 52080, Note_on_c, 11, 64, 56
14, 52199, Note_on_c, 11, 64, 0
14, 52260, Note_on_c, 11, 61, 57
14, 52319, Note_on_c, 11, 61, 0
14, 52320, Note_on_c, 11, 57, 57
14, 52439, Note_on_c, 11, 57, 0
14, 53280, Note_on_c, 11, 67, 62
14, 53399, Note_on_c, 11, 67, 0
14, 53460, Note_on_c, 11, 69, 63
14, 53519, Note_on_c, 11, 69, 0
14, 53520, Note_on_c, 11, 73, 64
14, 53639, Note_on_c, 11, 73, 0
14, 53700, Note_on_c, 11, 76, 65
14, 53759, Note_on_c, 11, 76, 0
14, 53760, Note_on_c, 11, 78, 65
14, 53879, Note_on_c, 11, 78, 0
14, 54900, Note_on_c, 11, 67, 71
14, 54959, Note_on_c, 11, 67, 0
14, 54960, Note_on_c, 11, 64, 72
14, 55079, Note_on_c, 11, 64, 0
14, 55140, Note_on_c, 11, 61, 73
14, 55199, Note_on_c, 11, 61, 0
14, 55200, Note_on_c, 11, 57, 73
14, 55319, Note_on_c, 11, 57, 0
14, 56160, Note_on_c, 11, 67, 78
14, 56279, Note_on_c, 11, 67, 0
14, 56340, Note_on_c, 11, 69, 79
14, 56399, Note_on_c, 11, 69, 0
14, 56400, Note_on_c, 11, 73, 80
14, 56519, Note_on_c, 11, 73, 0
14, 56580, Note_on_c, 11, 76, 81
14, 56639, Note_on_c, 11, 76, 0
14, 56640, Note_on_c, 11, 78, 81
14, 56759, Note_on_c, 11, 78, 0
14, 57120, Note_on_c, 11, 69, 84
14, 57120, Note_on_c, 11, 81, 84
14, 57171, Note_on_c, 11, 69, 0
14, 57171, Note_on_c, 11, 81, 0
14, 57180, Note_on_c, 11, 81, 84
14, 57180, Note_on_c, 11, 69, 84
14, 57231, Note_on_c, 11, 81, 0
14, 57231, Note_on_c, 11, 69, 0
14, 57240, Note_on_c, 11, 69, 84
14, 57240, Note_on_c, 11, 81, 84
14, 57291, Note_on_c, 11, 69, 0
14, 57291, Note_on_c, 11, 81, 0
14, 57300, Note_on_c, 11, 69, 84
14, 57300, Note_on_c, 11, 81, 84
14, 57351, Note_on_c, 11, 69, 0
14, 57351, Note_on_c, 11, 81, 0
14, 57360, Note_on_c, 11, 69, 84
14, 57360, Note_on_c, 11, 81, 84
14, 57411, Note_on_c, 11, 69, 0
14, 57411, Note_on_c, 11, 81, 0
14, 57420, Note_on_c, 11, 81, 84
14, 57420, Note_on_c, 11, 69, 84
14, 57471, Note_on_c, 11, 81, 0
14, 57471, Note_on_c, 11, 69, 0
14, 57480, Note_on_c, 11, 81, 84
14, 57480, Note_on_c, 11, 69, 84
14, 57531, Note_on_c, 11, 81, 0
14, 57531, Note_on_c, 11, 69, 0
14, 57540, Note_on_c, 11, 81, 84
14, 57540, Note_on_c, 11, 69, 84
14, 57591, Note_on_c, 11, 81, 0
14, 57591, Note_on_c, 11, 69, 0
14, 57600, Note_on_c, 11, 81, 84
14, 57600, Note_on_c, 11, 69, 84
14, 57651, Note_on_c, 11, 81, 0
14, 57651, Note_on_c, 11, 69, 0
14, 57660, Note_on_c, 11, 81, 84
14, 57660, Note_on_c, 11, 69, 84
14, 57711, Note_on_c, 11, 81, 0
14, 57711, Note_on_c, 11, 69, 0
14, 57720, Note_on_c, 11, 69, 84
14, 57720, Note_on_c, 11, 81, 84
14, 57771, Note_on_c, 11, 69, 0
14, 57771, Note_on_c, 11, 81, 0
14, 57780, Note_on_c, 11, 69, 84
14, 57780, Note_on_c, 11, 81, 84
14, 57831, Note_on_c, 11, 69, 0
14, 57831, Note_on_c, 11, 81, 0
14, 57840, Note_on_c, 11, 69, 84
14, 57840, Note_on_c, 11, 81, 84
14, 57891, Note_on_c, 11, 69, 0
14, 57891, Note_on_c, 11, 81, 0
14, 57900, Note_on_c, 11, 69, 84
14, 57900, Note_on_c, 11, 81, 84
14, 57951, Note_on_c, 11, 69, 0
14, 57951, Note_on_c, 11, 81, 0
14, 57960, Note_on_c, 11, 81, 84
14, 57960, Note_on_c, 11, 69, 84
14, 58011, Note_on_c, 11, 81, 0
14, 58011, Note_on_c, 11, 69, 0
14, 58020, Note_on_c, 11, 69, 84
14, 58020, Note_on_c, 11, 81, 84
14, 58071, Note_on_c, 11, 69, 0
14, 58071, Note_on_c, 11, 81, 0
14, 58080, Note_on_c, 11, 80, 92
14, 58131, Note_on_c, 11, 80, 0
14, 58140, Note_on_c, 11, 80, 84
14, 58191, Note_on_c, 11, 80, 0
14, 58200, Note_on_c, 11, 80, 84
14, 58251, Note_on_c, 11, 80, 0
14, 58260, Note_on_c, 11, 80, 84
14, 58311, Note_on_c, 11, 80, 0
14, 58320, Note_on_c, 11, 80, 84
14, 58371, Note_on_c, 11, 80, 0
14, 58380, Note_on_c, 11, 80, 84
14, 58431, Note_on_c, 11, 80, 0
14, 58440, Note_on_c, 11, 80, 84
14, 58491, Note_on_c, 11, 80, 0
14, 58500, Note_on_c, 11, 80, 84
14, 58551, Note_on_c, 11, 80, 0
14, 58560, Note_on_c, 11, 81, 92
14, 58611, Note_on_c, 11, 81, 0
14, 58620, Note_on_c, 11, 81, 84
14, 58671, Note_on_c, 11, 81, 0
14, 58680, Note_on_c, 11, 81, 84
14, 58731, Note_on_c, 11, 81, 0
14, 58740, Note_on_c, 11, 81, 84
14, 58791, Note_on_c, 11, 81, 0
14, 58800, Note_on_c, 11, 81, 84
14, 58851, Note_on_c, 11, 81, 0
14, 58860, Note_on_c, 11, 81, 84
14, 58911, Note_on_c, 11, 81, 0
14, 58920, Note_on_c, 11, 81, 84
14, 58971, Note_on_c, 11, 81, 0
14, 58980, Note_on_c, 11, 81, 84
14, 59031, Note_on_c, 11, 81, 0
14, 59040, Note_on_c, 11, 80, 92
14, 59091, Note_on_c, 11, 80, 0
14, 59100, Note_on_c, 11, 80, 84
14, 59151, Note_on_c, 11, 80, 0
14, 59160, Note_on_c, 11, 80, 84
14, 59211, Note_on_c, 11, 80, 0
14, 59220, Note_on_c, 11, 80, 84
14, 59271, Note_on_c, 11, 80, 0
14, 59280, Note_on_c, 11, 80, 84
14, 59331, Note_on_c, 11, 80, 0
14, 59340, Note_on_c, 11, 80, 84
14, 59391, Note_on_c, 11, 80, 0
14, 59400, Note_on_c, 11, 80, 84
14, 59451, Note_on_c, 11, 80, 0
14, 59460, Note_on_c, 11, 80, 84
14, 59511, Note_on_c, 11, 80, 0
14, 59520, Note_on_c, 11, 81, 92
14, 59571, Note_on_c, 11, 81, 0
14, 59580, Note_on_c, 11, 81, 84
14, 59631, Note_on_c, 11, 81, 0
14, 59640, Note_on_c, 11, 81, 84
14, 59691, Note_on_c, 11, 81, 0
14, 59700, Note_on_c, 11, 81, 84
14, 59751, Note_on_c, 11, 81, 0
14, 59760, Note_on_c, 11, 81, 84
14, 59811, Note_on_c, 11, 81, 0
14, 59820, Note_on_c, 11, 81, 84
14, 59871, Note_on_c, 11, 81, 0
14, 59880, Note_on_c, 11, 81, 84
14, 59931, Note_on_c, 11, 81, 0
14, 59940, Note_on_c, 11, 81, 84
14, 59991, Note_on_c, 11, 81, 0
14, 60000, Note_on_c, 11, 80, 92
14, 60051, Note_on_c, 11, 80, 0
14, 60060, Note_on_c, 11, 80, 84
14, 60111, Note_on_c, 11, 80, 0
14, 60120, Note_on_c, 11, 80, 84
14, 60171, Note_on_c, 11, 80, 0
14, 60180, Note_on_c, 11, 80, 84
14, 60231, Note_on_c, 11, 80, 0
14, 60240, Note_on_c, 11, 80, 84
14, 60291, Note_on_c, 11, 80, 0
14, 60300, Note_on_c, 11, 80, 84
14, 60351, Note_on_c, 11, 80, 0
14, 60360, Note_on_c, 11, 80, 84
14, 60411, Note_on_c, 11, 80, 0
14, 60420, Note_on_c, 11, 80, 84
14, 60471, Note_on_c, 11, 80, 0
14, 60480, Note_on_c, 11, 81, 92
14, 60480, Note_on_c, 11, 69, 92
14, 60531, Note_on_c, 11, 81, 0
14, 60531, Note_on_c, 11, 69, 0
14, 60540, Note_on_c, 11, 81, 84
14, 60540, Note_on_c, 11, 69, 84
14, 60591, Note_on_c, 11, 81, 0
14, 60591, Note_on_c, 11, 69, 0
14, 60600, Note_on_c, 11, 81, 84
14, 60600, Note_on_c, 11, 69, 84
14, 60651, Note_on_c, 11, 81, 0
14, 60651, Note_on_c, 11, 69, 0
14, 60660, Note_on_c, 11, 81, 84
14, 60660, Note_on_c, 11, 69, 84
14, 60711, Note_on_c, 11, 81, 0
14, 60711, Note_on_c, 11, 69, 0
14, 60720, Note_on_c, 11, 69, 84
14, 60720, Note_on_c, 11, 81, 84
14, 60771, Note_on_c, 11, 69, 0
14, 60771, Note_on_c, 11, 81, 0
14, 60780, Note_on_c, 11, 81, 84
14, 60780, Note_on_c, 11, 69, 84
14, 60831, Note_on_c, 11, 81, 0
14, 60831, Note_on_c, 11, 69, 0
14, 60840, Note_on_c, 11, 69, 84
14, 60840, Note_on_c, 11, 81, 84
14, 60891, Note_on_c, 11, 69, 0
14, 60891, Note_on_c, 11, 81, 0
14, 60900, Note_on_c, 11, 81, 84
14, 60900, Note_on_c, 11, 69, 84
14, 60951, Note_on_c, 11, 81, 0
14, 60951, Note_on_c, 11, 69, 0
14, 60960, Note_on_c, 11, 80, 92
14, 61011, Note_on_c, 11, 80, 0
14, 61020, Note_on_c, 11, 80, 84
14, 61071, Note_on_c, 11, 80, 0
14, 61080, Note_on_c, 11, 80, 84
14, 61131, Note_on_c, 11, 80, 0
14, 61140, Note_on_c, 11, 80, 84
14, 61191, Note_on_c, 11, 80, 0
14, 61200, Note_on_c, 11, 80, 84
14, 61251, Note_on_c, 11, 80, 0
14, 61260, Note_on_c, 11, 80, 84
14, 61311, Note_on_c, 11, 80, 0
14, 61320, Note_on_c, 11, 80, 84
14, 61371, Note_on_c, 11, 80, 0
14, 61380, Note_on_c, 11, 80, 84
14, 61431, Note_on_c, 11, 80, 0
14, 61440, Note_on_c, 11, 80, 92
14, 61491, Note_on_c, 11, 80, 0
14, 61500, Note_on_c, 11, 80, 84
14, 61551, Note_on_c, 11, 80, 0
14, 61560, Note_on_c, 11, 80, 84
14, 61611, Note_on_c, 11, 80, 0
14, 61620, Note_on_c, 11, 80, 84
14, 61671, Note_on_c, 11, 80, 0
14, 61680, Note_on_c, 11, 80, 84
14, 61731, Note_on_c, 11, 80, 0
14, 61740, Note_on_c, 11, 80, 84
14, 61791, Note_on_c, 11, 80, 0
14, 61800, Note_on_c, 11, 80, 84
14, 61851, Note_on_c, 11, 80, 0
14, 61860, Note_on_c, 11, 80, 84
14, 61911, Note_on_c, 11, 80, 0
14, 61920, Note_on_c, 11, 80, 84
14, 61979, Note_on_c, 11, 80, 0
14, 61980, Note_on_c, 11, 76, 84
14, 62039, Note_on_c, 11, 76, 0
14, 62040, Note_on_c, 11, 78, 84
14, 62099, Note_on_c, 11, 78, 0
14, 62100, Note_on_c, 11, 80, 84
14, 62151, Note_on_c, 11, 80, 0
14, 62160, Note_on_c, 11, 83, 92
14, 62219, Note_on_c, 11, 83, 0
14, 62220, Note_on_c, 11, 81, 84
14, 62279, Note_on_c, 11, 81, 0
14, 62280, Note_on_c, 11, 80, 84
14, 62339, Note_on_c, 11, 80, 0
14, 62340, Note_on_c, 11, 78, 84
14, 62399, Note_on_c, 11, 78, 0
14, 62400, Note_on_c, 11, 83, 84
14, 62459, Note_on_c, 11, 83, 0
14, 62460, Note_on_c, 11, 81, 84
14, 62519, Note_on_c, 11, 81, 0
14, 62520, Note_on_c, 11, 80, 84
14, 62579, Note_on_c, 11, 80, 0
14, 62580, Note_on_c, 11, 78, 84
14, 62639, Note_on_c, 11, 78, 0
14, 62640, Note_on_c, 11, 83, 84
14, 62699, Note_on_c, 11, 83, 0
14, 62700, Note_on_c, 11, 81, 84
14, 62759, Note_on_c, 11, 81, 0
14, 62760, Note_on_c, 11, 80, 84
14, 62819, Note_on_c, 11, 80, 0
14, 62820, Note_on_c, 11, 78, 84
14, 62871, Note_on_c, 11, 78, 0
14, 62880, Note_on_c, 11, 80, 84
14, 62939, Note_on_c, 11, 80, 0
14, 62940, Note_on_c, 11, 76, 84
14, 62999, Note_on_c, 11, 76, 0
14, 63000, Note_on_c, 11, 78, 84
14, 63059, Note_on_c, 11, 78, 0
14, 63060, Note_on_c, 11, 80, 84
14, 63111, Note_on_c, 11, 80, 0
14, 63120, Note_on_c, 11, 83, 92
14, 63179, Note_on_c, 11, 83, 0
14, 63180, Note_on_c, 11, 81, 84
14, 63239, Note_on_c, 11, 81, 0
14, 63240, Note_on_c, 11, 80, 84
14, 63299, Note_on_c, 11, 80, 0
14, 63300, Note_on_c, 11, 78, 84
14, 63359, Note_on_c, 11, 78, 0
14, 63360, Note_on_c, 11, 83, 84
14, 63419, Note_on_c, 11, 83, 0
14, 63420, Note_on_c, 11, 81, 84
14, 63479, Note_on_c, 11, 81, 0
14, 63480, Note_on_c, 11, 80, 84
14, 63539, Note_on_c, 11, 80, 0
14, 63540, Note_on_c, 11, 78, 84
14, 63599, Note_on_c, 11, 78, 0
14, 63600, Note_on_c, 11, 83, 84
14, 63659, Note_on_c, 11, 83, 0
14, 63660, Note_on_c, 11, 81, 84
14, 63719, Note_on_c, 11, 81, 0
14, 63720, Note_on_c, 11, 80, 84
14, 63779, Note_on_c, 11, 80, 0
14, 63780, Note_on_c, 11, 78, 84
14, 63831, Note_on_c, 11, 78, 0
14, 63840, Note_on_c, 11, 80, 84
14, 63899, Note_on_c, 11, 80, 0
14, 63900, Note_on_c, 11, 76, 84
14, 63959, Note_on_c, 11, 76, 0
14, 63960, Note_on_c, 11, 78, 84
14, 64019, Note_on_c, 11, 78, 0
14, 64020, Note_on_c, 11, 80, 84
14, 64071, Note_on_c, 11, 80, 0
14, 64080, Note_on_c, 11, 83, 92
14, 64139, Note_on_c, 11, 83, 0
14, 64140, Note_on_c, 11, 81, 84
14, 64199, Note_on_c, 11, 81, 0
14, 64200, Note_on_c, 11, 80, 84
14, 64259, Note_on_c, 11, 80, 0
14, 64260, Note_on_c, 11, 78, 84
14, 64311, Note_on_c, 11, 78, 0
14, 64320, Note_on_c, 11, 76, 84
14, 64364, Note_on_c, 11, 76, 0
14, 64380, Note_on_c, 11, 76, 84
14, 64439, Note_on_c, 11, 76, 0
14, 64440, Note_on_c, 11, 78, 84
14, 64499, Note_on_c, 11, 78, 0
14, 64500, Note_on_c, 11, 80, 84
14, 64559, Note_on_c, 11, 80, 0
14, 64560, Note_on_c, 11, 83, 92
14, 64619, Note_on_c, 11, 83, 0
14, 64620, Note_on_c, 11, 81, 84
14, 64679, Note_on_c, 11, 81, 0
14, 64680, Note_on_c, 11, 80, 84
14, 64739, Note_on_c, 11, 80, 0
14, 64740, Note_on_c, 11, 78, 84
14, 64791, Note_on_c, 11, 78, 0
14, 64800, Note_on_c, 11, 76, 84
14, 64844, Note_on_c, 11, 76, 0
14, 64860, Note_on_c, 11, 76, 84
14, 64919, Note_on_c, 11, 76, 0
14, 64920, Note_on_c, 11, 78, 84
14, 64979, Note_on_c, 11, 78, 0
14, 64980, Note_on_c, 11, 80, 84
14, 65039, Note_on_c, 11, 80, 0
14, 65040, Note_on_c, 11, 83, 92
14, 65099, Note_on_c, 11, 83, 0
14, 65100, Note_on_c, 11, 81, 84
14, 65159, Note_on_c, 11, 81, 0
14, 65160, Note_on_c, 11, 80, 84
14, 65219, Note_on_c, 11, 80, 0
14, 65220, Note_on_c, 11, 78, 84
14, 65271, Note_on_c, 11, 78, 0
14, 65280, Note_on_c, 11, 76, 84
14, 65331, Note_on_c, 11, 76, 0
14, 65340, Note_on_c, 11, 81, 84
14, 65391, Note_on_c, 11, 81, 0
14, 65400, Note_on_c, 11, 81, 84
14, 65451, Note_on_c, 11, 81, 0
14, 65460, Note_on_c, 11, 81, 84
14, 65511, Note_on_c, 11, 81, 0
14, 65520, Note_on_c, 11, 81, 84
14, 65571, Note_on_c, 11, 81, 0
14, 65580, Note_on_c, 11, 81, 84
14, 65631, Note_on_c, 11, 81, 0
14, 65640, Note_on_c, 11, 81, 84
14, 65691, Note_on_c, 11, 81, 0
14, 65700, Note_on_c, 11, 81, 84
14, 65751, Note_on_c, 11, 81, 0
14, 65760, Note_on_c, 11, 64, 84
14, 65760, Note_on_c, 11, 71, 84
14, 65760, Note_on_c, 11, 80, 84
14, 65879, Note_on_c, 11, 64, 0
14, 65879, Note_on_c, 11, 71, 0
14, 65879, Note_on_c, 11, 80, 0
14, 66720, Note_on_c, 11, 64, 84
14, 66720, Note_on_c, 11, 83, 84
14, 66720, Note_on_c, 11, 74, 84
14, 66839, Note_on_c, 11, 64, 0
14, 66839, Note_on_c, 11, 83, 0
14, 66839, Note_on_c, 11, 74, 0
14, 67680, Note_on_c, 11, 66, 84
14, 67731, Note_on_c, 11, 66, 0
14, 67740, Note_on_c, 11, 57, 84
14, 67791, Note_on_c, 11, 57, 0
14, 67800, Note_on_c, 11, 57, 84
14, 67851, Note_on_c, 11, 57, 0
14, 67860, Note_on_c, 11, 57, 84
14, 67911, Note_on_c, 11, 57, 0
14, 67920, Note_on_c, 11, 57, 92
14, 67971, Note_on_c, 11, 57, 0
14, 67980, Note_on_c, 11, 57, 84
14, 68031, Note_on_c, 11, 57, 0
14, 68040, Note_on_c, 11, 57, 84
14, 68091, Note_on_c, 11, 57, 0
14, 68100, Note_on_c, 11, 57, 84
14, 68151, Note_on_c, 11, 57, 0
14, 68160, Note_on_c, 11, 57, 84
14, 68211, Note_on_c, 11, 57, 0
14, 68220, Note_on_c, 11, 64, 84
14, 68271, Note_on_c, 11, 64, 0
14, 68280, Note_on_c, 11, 64, 84
14, 68331, Note_on_c, 11, 64, 0
14, 68340, Note_on_c, 11, 64, 84
14, 68391, Note_on_c, 11, 64, 0
14, 68400, Note_on_c, 11, 63, 92
14, 68451, Note_on_c, 11, 63, 0
14, 68460, Note_on_c, 11, 63, 84
14, 68511, Note_on_c, 11, 63, 0
14, 68520, Note_on_c, 11, 64, 84
14, 68571, Note_on_c, 11, 64, 0
14, 68580, Note_on_c, 11, 64, 84
14, 68631, Note_on_c, 11, 64, 0
14, 68640, Note_on_c, 11, 66, 84
14, 68691, Note_on_c, 11, 66, 0
14, 68700, Note_on_c, 11, 57, 84
14, 68751, Note_on_c, 11, 57, 0
14, 68760, Note_on_c, 11, 57, 84
14, 68811, Note_on_c, 11, 57, 0
14, 68820, Note_on_c, 11, 57, 84
14, 68871, Note_on_c, 11, 57, 0
14, 68880, Note_on_c, 11, 57, 92
14, 68931, Note_on_c, 11, 57, 0
14, 68940, Note_on_c, 11, 57, 84
14, 68991, Note_on_c, 11, 57, 0
14, 69000, Note_on_c, 11, 57, 84
14, 69051, Note_on_c, 11, 57, 0
14, 69060, Note_on_c, 11, 57, 84
14, 69111, Note_on_c, 11, 57, 0
14, 69120, Note_on_c, 11, 57, 84
14, 69171, Note_on_c, 11, 57, 0
14, 69180, Note_on_c, 11, 61, 84
14, 69231, Note_on_c, 11, 61, 0
14, 69240, Note_on_c, 11, 61, 84
14, 69291, Note_on_c, 11, 61, 0
14, 69300, Note_on_c, 11, 61, 84
14, 69351, Note_on_c, 11, 61, 0
14, 69360, Note_on_c, 11, 58, 92
14, 69411, Note_on_c, 11, 58, 0
14, 69420, Note_on_c, 11, 61, 84
14, 69471, Note_on_c, 11, 61, 0
14, 69480, Note_on_c, 11, 61, 84
14, 69531, Note_on_c, 11, 61, 0
14, 69540, Note_on_c, 11, 61, 84
14, 69591, Note_on_c, 11, 61, 0
14, 69600, Note_on_c, 11, 57, 84
14, 69651, Note_on_c, 11, 57, 0
14, 69660, Note_on_c, 11, 59, 84
14, 69711, Note_on_c, 11, 59, 0
14, 69720, Note_on_c, 11, 59, 84
14, 69771, Note_on_c, 11, 59, 0
14, 69780, Note_on_c, 11, 59, 84
14, 69831, Note_on_c, 11, 59, 0
14, 69840, Note_on_c, 11, 56, 92
14, 69891, Note_on_c, 11, 56, 0
14, 69900, Note_on_c, 11, 59, 84
14, 69951, Note_on_c, 11, 59, 0
14, 69960, Note_on_c, 11, 59, 84
14, 70011, Note_on_c, 11, 59, 0
14, 70020, Note_on_c, 11, 59, 84
14, 70071, Note_on_c, 11, 59, 0
14, 70080, Note_on_c, 11, 57, 84
14, 70131, Note_on_c, 11, 57, 0
14, 70140, Note_on_c, 11, 61, 84
14, 70191, Note_on_c, 11, 61, 0
14, 70200, Note_on_c, 11, 61, 84
14, 70251, Note_on_c, 11, 61, 0
14, 70260, Note_on_c, 11, 61, 84
14, 70311, Note_on_c, 11, 61, 0
14, 70320, Note_on_c, 11, 57, 92
14, 70371, Note_on_c, 11, 57, 0
14, 70380, Note_on_c, 11, 61, 84
14, 70431, Note_on_c, 11, 61, 0
14, 70440, Note_on_c, 11, 61, 84
14, 70491, Note_on_c, 11, 61, 0
14, 70500, Note_on_c, 11, 61, 84
14, 70551, Note_on_c, 11, 61, 0
14, 70560, Note_on_c, 11, 56, 84
14, 70611, Note_on_c, 11, 56, 0
14, 70620, Note_on_c, 11, 59, 84
14, 70671, Note_on_c, 11, 59, 0
14, 70680, Note_on_c, 11, 59, 84
14, 70731, Note_on_c, 11, 59, 0
14, 70740, Note_on_c, 11, 59, 84
14, 70791, Note_on_c, 11, 59, 0
14, 70800, Note_on_c, 11, 59, 92
14, 70851, Note_on_c, 11, 59, 0
14, 70860, Note_on_c, 11, 68, 84
14, 70911, Note_on_c, 11, 68, 0
14, 70920, Note_on_c, 11, 68, 84
14, 70971, Note_on_c, 11, 68, 0
14, 70980, Note_on_c, 11, 68, 84
14, 71031, Note_on_c, 11, 68, 0
14, 71040, Note_on_c, 11, 69, 84
14, 71099, Note_on_c, 11, 69, 0
14, 71100, Note_on_c, 11, 61, 84
14, 71159, Note_on_c, 11, 61, 0
14, 71160, Note_on_c, 11, 62, 84
14, 71219, Note_on_c, 11, 62, 0
14, 71220, Note_on_c, 11, 64, 84
14, 71279, Note_on_c, 11, 64, 0
14, 71280, Note_on_c, 11, 66, 84
14, 71339, Note_on_c, 11, 66, 0
14, 71340, Note_on_c, 11, 67, 84
14, 71399, Note_on_c, 11, 67, 0
14, 71400, Note_on_c, 11, 69, 84
14, 71459, Note_on_c, 11, 69, 0
14, 71460, Note_on_c, 11, 67, 84
14, 71511, Note_on_c, 11, 67, 0
14, 71520, Note_on_c, 11, 66, 84
14, 71571, Note_on_c, 11, 66, 0
14, 71580, Note_on_c, 11, 57, 84
14, 71631, Note_on_c, 11, 57, 0
14, 71640, Note_on_c, 11, 57, 84
14, 71691, Note_on_c, 11, 57, 0
14, 71700, Note_on_c, 11, 57, 84
14, 71751, Note_on_c, 11, 57, 0
14, 71760, Note_on_c, 11, 57, 92
14, 71811, Note_on_c, 11, 57, 0
14, 71820, Note_on_c, 11, 57, 84
14, 71871, Note_on_c, 11, 57, 0
14, 71880, Note_on_c, 11, 57, 84
14, 71931, Note_on_c, 11, 57, 0
14, 71940, Note_on_c, 11, 57, 84
14, 71991, Note_on_c, 11, 57, 0
14, 72000, Note_on_c, 11, 57, 84
14, 72051, Note_on_c, 11, 57, 0
14, 72060, Note_on_c, 11, 64, 84
14, 72111, Note_on_c, 11, 64, 0
14, 72120, Note_on_c, 11, 64, 84
14, 72171, Note_on_c, 11, 64, 0
14, 72180, Note_on_c, 11, 64, 84
14, 72231, Note_on_c, 11, 64, 0
14, 72240, Note_on_c, 11, 63, 92
14, 72291, Note_on_c, 11, 63, 0
14, 72300, Note_on_c, 11, 63, 84
14, 72351, Note_on_c, 11, 63, 0
14, 72360, Note_on_c, 11, 64, 84
14, 72411, Note_on_c, 11, 64, 0
14, 72420, Note_on_c, 11, 64, 84
14, 72471, Note_on_c, 11, 64, 0
14, 72480, Note_on_c, 11, 66, 84
14, 72531, Note_on_c, 11, 66, 0
14, 72540, Note_on_c, 11, 57, 84
14, 72591, Note_on_c, 11, 57, 0
14, 72600, Note_on_c, 11, 57, 84
14, 72651, Note_on_c, 11, 57, 0
14, 72660, Note_on_c, 11, 57, 84
14, 72711, Note_on_c, 11, 57, 0
14, 72720, Note_on_c, 11, 57, 92
14, 72771, Note_on_c, 11, 57, 0
14, 72780, Note_on_c, 11, 57, 84
14, 72831, Note_on_c, 11, 57, 0
14, 72840, Note_on_c, 11, 57, 84
14, 72891, Note_on_c, 11, 57, 0
14, 72900, Note_on_c, 11, 57, 84
14, 72951, Note_on_c, 11, 57, 0
14, 72960, Note_on_c, 11, 57, 84
14, 73011, Note_on_c, 11, 57, 0
14, 73020, Note_on_c, 11, 61, 84
14, 73071, Note_on_c, 11, 61, 0
14, 73080, Note_on_c, 11, 61, 84
14, 73131, Note_on_c, 11, 61, 0
14, 73140, Note_on_c, 11, 61, 84
14, 73191, Note_on_c, 11, 61, 0
14, 73200, Note_on_c, 11, 58, 92
14, 73251, Note_on_c, 11, 58, 0
14, 73260, Note_on_c, 11, 61, 84
14, 73311, Note_on_c, 11, 61, 0
14, 73320, Note_on_c, 11, 61, 84
14, 73371, Note_on_c, 11, 61, 0
14, 73380, Note_on_c, 11, 61, 84
14, 73431, Note_on_c, 11, 61, 0
14, 73440, Note_on_c, 11, 57, 84
14, 73491, Note_on_c, 11, 57, 0
14, 73500, Note_on_c, 11, 59, 84
14, 73551, Note_on_c, 11, 59, 0
14, 73560, Note_on_c, 11, 59, 84
14, 73611, Note_on_c, 11, 59, 0
14, 73620, Note_on_c, 11, 59, 84
14, 73671, Note_on_c, 11, 59, 0
14, 73680, Note_on_c, 11, 56, 92
14, 73731, Note_on_c, 11, 56, 0
14, 73740, Note_on_c, 11, 59, 84
14, 73791, Note_on_c, 11, 59, 0
14, 73800, Note_on_c, 11, 59, 84
14, 73851, Note_on_c, 11, 59, 0
14, 73860, Note_on_c, 11, 59, 84
14, 73911, Note_on_c, 11, 59, 0
14, 73920, Note_on_c, 11, 57, 84
14, 73971, Note_on_c, 11, 57, 0
14, 73980, Note_on_c, 11, 61, 84
14, 74031, Note_on_c, 11, 61, 0
14, 74040, Note_on_c, 11, 61, 84
14, 74091, Note_on_c, 11, 61, 0
14, 74100, Note_on_c, 11, 61, 84
14, 74151, Note_on_c, 11, 61, 0
14, 74160, Note_on_c, 11, 57, 92
14, 74211, Note_on_c, 11, 57, 0
14, 74220, Note_on_c, 11, 61, 84
14, 74271, Note_on_c, 11, 61, 0
14, 74280, Note_on_c, 11, 61, 84
14, 74331, Note_on_c, 11, 61, 0
14, 74340, Note_on_c, 11, 61, 84
14, 74391, Note_on_c, 11, 61, 0
14, 74400, Note_on_c, 11, 56, 84
14, 74451, Note_on_c, 11, 56, 0
14, 74460, Note_on_c, 11, 59, 84
14, 74511, Note_on_c, 11, 59, 0
14, 74520, Note_on_c, 11, 59, 84
14, 74571, Note_on_c, 11, 59, 0
14, 74580, Note_on_c, 11, 59, 84
14, 74631, Note_on_c, 11, 59, 0
14, 74640, Note_on_c, 11, 59, 92
14, 74691, Note_on_c, 11, 59, 0
14, 74700, Note_on_c, 11, 68, 84
14, 74751, Note_on_c, 11, 68, 0
14, 74760, Note_on_c, 11, 68, 84
14, 74811, Note_on_c, 11, 68, 0
14, 74820, Note_on_c, 11, 68, 84
14, 74871, Note_on_c, 11, 68, 0
14, 74880, Note_on_c, 11, 69, 84
14, 74880, Note_on_c, 11, 61, 84
14, 74999, Note_on_c, 11, 69, 0
14, 74999, Note_on_c, 11, 61, 0
14, 75360, Note_on_c, 11, 81, 84
14, 75360, Note_on_c, 11, 64, 84
14, 75360, Note_on_c, 11, 73, 84
14, 75479, Note_on_c, 11, 81, 0
14, 75479, Note_on_c, 11, 64, 0
14, 75479, Note_on_c, 11, 73, 0
14, 75840, Note_on_c, 11, 71, 84
14, 75840, Note_on_c, 11, 64, 84
14, 75840, Note_on_c, 11, 80, 84
14, 75959, Note_on_c, 11, 71, 0
14, 75959, Note_on_c, 11, 64, 0
14, 75959, Note_on_c, 11, 80, 0
14, 76320, Note_on_c, 11, 71, 84
14, 76320, Note_on_c, 11, 64, 84
14, 76320, Note_on_c, 11, 80, 84
14, 76439, Note_on_c, 11, 71, 0
14, 76439, Note_on_c, 11, 64, 0
14, 76439, Note_on_c, 11, 80, 0
14, 76800, Note_on_c, 11, 73, 84
14, 76800, Note_on_c, 11, 81, 84
14, 76800, Note_on_c, 11, 64, 84
14, 76919, Note_on_c, 11, 73, 0
14, 76919, Note_on_c, 11, 81, 0
14, 76919, Note_on_c, 11, 64, 0
14, 77040, Note_on_c, 11, 81, 84
14, 77040, Note_on_c, 11, 73, 84
14, 77040, Note_on_c, 11, 64, 84
14, 77159, Note_on_c, 11, 81, 0
14, 77159, Note_on_c, 11, 73, 0
14, 77159, Note_on_c, 11, 64, 0
14, 77280, Note_on_c, 11, 64, 84
14, 77280, Note_on_c, 11, 73, 84
14, 77280, Note_on_c, 11, 81, 84
14, 77399, Note_on_c, 11, 64, 0
14, 77399, Note_on_c, 11, 73, 0
14, 77399, Note_on_c, 11, 81, 0
14, 77520, Note_on_c, 11, 73, 84
14, 77520, Note_on_c, 11, 81, 84
14, 77520, Note_on_c, 11, 64, 84
14, 77639, Note_on_c, 11, 73, 0
14, 77639, Note_on_c, 11, 81, 0
14, 77639, Note_on_c, 11, 64, 0
14, 77760, Note_on_c, 11, 71, 84
14, 77760, Note_on_c, 11, 64, 84
14, 77760, Note_on_c, 11, 80, 84
14, 77879, Note_on_c, 11, 71, 0
14, 77879, Note_on_c, 11, 64, 0
14, 77879, Note_on_c, 11, 80, 0
14, 78000, Note_on_c, 11, 80, 84
14, 78000, Note_on_c, 11, 71, 84
14, 78000, Note_on_c, 11, 64, 84
14, 78119, Note_on_c, 11, 80, 0
14, 78119, Note_on_c, 11, 71, 0
14, 78119, Note_on_c, 11, 64, 0
14, 78240, Note_on_c, 11, 64, 84
14, 78240, Note_on_c, 11, 71, 84
14, 78240, Note_on_c, 11, 80, 84
14, 78359, Note_on_c, 11, 64, 0
14, 78359, Note_on_c, 11, 71, 0
14, 78359, Note_on_c, 11, 80, 0
14, 78480, Note_on_c, 11, 64, 84
14, 78480, Note_on_c, 11, 71, 84
14, 78480, Note_on_c, 11, 80, 84
14, 78599, Note_on_c, 11, 64, 0
14, 78599, Note_on_c, 11, 71, 0
14, 78599, Note_on_c, 11, 80, 0
14, 78720, Note_on_c, 11, 64, 84
14, 78720, Note_on_c, 11, 81, 84
14, 78720, Note_on_c, 11, 73, 84
14, 78720, Note_on_c, 11, 57, 84
14, 78839, Note_on_c, 11, 64, 0
14, 78839, Note_on_c, 11, 81, 0
14, 78839, Note_on_c, 11, 73, 0
14, 78839, Note_on_c, 11, 57, 0
14, 79200, Note_on_c, 11, 57, 84
14, 79200, Note_on_c, 11, 64, 84
14, 79200, Note_on_c, 11, 81, 84
14, 79200, Note_on_c, 11, 73, 84
14, 79319, Note_on_c, 11, 57, 0
14, 79319, Note_on_c, 11, 64, 0
14, 79319, Note_on_c, 11, 81, 0
14, 79319, Note_on_c, 11, 73, 0
14, 79680, Note_on_c, 11, 80, 84
14, 79680, Note_on_c, 11, 71, 84
14, 79680, Note_on_c, 11, 64, 84
14, 79799, Note_on_c, 11, 80, 0
14, 79799, Note_on_c, 11, 71, 0
14, 79799, Note_on_c, 11, 64, 0
14, 80160, Note_on_c, 11, 71, 84
14, 80160, Note_on_c, 11, 64, 84
14, 80160, Note_on_c, 11, 80, 84
14, 80279, Note_on_c, 11, 71, 0
14, 80279, Note_on_c, 11, 64, 0
14, 80279, Note_on_c, 11, 80, 0
14, 80640, Note_on_c, 11, 76, 84
14, 80691, Note_on_c, 11, 76, 0
14, 80700, Note_on_c, 11, 76, 84
14, 80751, Note_on_c, 11, 76, 0
14, 80760, Note_on_c, 11, 76, 84
14, 80811, Note_on_c, 11, 76, 0
14, 80820, Note_on_c, 11, 76, 84
14, 80871, Note_on_c, 11, 76, 0
14, 80880, Note_on_c, 11, 76, 84
14, 80931, Note_on_c, 11, 76, 0
14, 80940, Note_on_c, 11, 76, 84
14, 80991, Note_on_c, 11, 76, 0
14, 81000, Note_on_c, 11, 74, 84
14, 81051, Note_on_c, 11, 74, 0
14, 81060, Note_on_c, 11, 74, 84
14, 81111, Note_on_c, 11, 74, 0
14, 81120, Note_on_c, 11, 73, 84
14, 81171, Note_on_c, 11, 73, 0
14, 81180, Note_on_c, 11, 73, 84
14, 81231, Note_on_c, 11, 73, 0
14, 81240, Note_on_c, 11, 76, 84
14, 81291, Note_on_c, 11, 76, 0
14, 81300, Note_on_c, 11, 76, 84
14, 81351, Note_on_c, 11, 76, 0
14, 81360, Note_on_c, 11, 74, 84
14, 81411, Note_on_c, 11, 74, 0
14, 81420, Note_on_c, 11, 74, 84
14, 81471, Note_on_c, 11, 74, 0
14, 81480, Note_on_c, 11, 73, 84
14, 81531, Note_on_c, 11, 73, 0
14, 81540, Note_on_c, 11, 73, 84
14, 81591, Note_on_c, 11, 73, 0
14, 81600, Note_on_c, 11, 74, 84
14, 81651, Note_on_c, 11, 74, 0
14, 81660, Note_on_c, 11, 74, 84
14, 81711, Note_on_c, 11, 74, 0
14, 81720, Note_on_c, 11, 73, 84
14, 81771, Note_on_c, 11, 73, 0
14, 81780, Note_on_c, 11, 73, 84
14, 81831, Note_on_c, 11, 73, 0
14, 81840, Note_on_c, 11, 71, 84
14, 81891, Note_on_c, 11, 71, 0
14, 81900, Note_on_c, 11, 71, 84
14, 81951, Note_on_c, 11, 71, 0
14, 81960, Note_on_c, 11, 69, 84
14, 82011, Note_on_c, 11, 69, 0
14, 82020, Note_on_c, 11, 69, 84
14, 82071, Note_on_c, 11, 69, 0
14, 82080, Note_on_c, 11, 68, 84
14, 82131, Note_on_c, 11, 68, 0
14, 82140, Note_on_c, 11, 68, 84
14, 82191, Note_on_c, 11, 68, 0
14, 82200, Note_on_c, 11, 66, 84
14, 82251, Note_on_c, 11, 66, 0
14, 82260, Note_on_c, 11, 66, 84
14, 82311, Note_on_c, 11, 66, 0
14, 82320, Note_on_c, 11, 64, 84
14, 82371, Note_on_c, 11, 64, 0
14, 82380, Note_on_c, 11, 64, 84
14, 82431, Note_on_c, 11, 64, 0
14, 82440, Note_on_c, 11, 62, 84
14, 82491, Note_on_c, 11, 62, 0
14, 82500, Note_on_c, 11, 62, 84
14, 82551, Note_on_c, 11, 62, 0
14, 82560, Note_on_c, 11, 61, 84
14, 82679, Note_on_c, 11, 61, 0
14, 83160, Note_on_c, 11, 64, 84
14, 83219, Note_on_c, 11, 64, 0
14, 83220, Note_on_c, 11, 66, 84
14, 83279, Note_on_c, 11, 66, 0
14, 83280, Note_on_c, 11, 69, 84
14, 83339, Note_on_c, 11, 69, 0
14, 83340, Note_on_c, 11, 68, 84
14, 83399, Note_on_c, 11, 68, 0
14, 83400, Note_on_c, 11, 66, 84
14, 83459, Note_on_c, 11, 66, 0
14, 83460, Note_on_c, 11, 68, 84
14, 83511, Note_on_c, 11, 68, 0
14, 83520, Note_on_c, 11, 69, 84
14, 83759, Note_on_c, 11, 69, 0
14, 83760, Note_on_c, 11, 62, 84
14, 83999, Note_on_c, 11, 62, 0
14, 84000, Note_on_c, 11, 61, 84
14, 84239, Note_on_c, 11, 61, 0
14, 84240, Note_on_c, 11, 62, 84
14, 84479, Note_on_c, 11, 62, 0
14, 84480, Note_on_c, 11, 61, 84
14, 84719, Note_on_c, 11, 61, 0
14, 85080, Note_on_c, 11, 64, 84
14, 85139, Note_on_c, 11, 64, 0
14, 85140, Note_on_c, 11, 66, 84
14, 85199, Note_on_c, 11, 66, 0
14, 85200, Note_on_c, 11, 69, 84
14, 85259, Note_on_c, 11, 69, 0
14, 85260, Note_on_c, 11, 68, 84
14, 85319, Note_on_c, 11, 68, 0
14, 85320, Note_on_c, 11, 66, 84
14, 85379, Note_on_c, 11, 66, 0
14, 85380, Note_on_c, 11, 68, 84
14, 85431, Note_on_c, 11, 68, 0
14, 85440, Note_on_c, 11, 69, 84
14, 85679, Note_on_c, 11, 69, 0
14, 85680, Note_on_c, 11, 62, 84
14, 85919, Note_on_c, 11, 62, 0
14, 85920, Note_on_c, 11, 61, 84
14, 86144, Note_on_c, 11, 61, 0
14, 86160, Note_on_c, 11, 61, 84
14, 86384, Note_on_c, 11, 61, 0
14, 86400, Note_on_c, 11, 61, 84
14, 86489, Note_on_c, 11, 61, 0
14, 86520, Note_on_c, 11, 66, 84
14, 86579, Note_on_c, 11, 66, 0
14, 86580, Note_on_c, 11, 68, 84
14, 86639, Note_on_c, 11, 68, 0
14, 86640, Note_on_c, 11, 71, 84
14, 86699, Note_on_c, 11, 71, 0
14, 86700, Note_on_c, 11, 69, 84
14, 86759, Note_on_c, 11, 69, 0
14, 86760, Note_on_c, 11, 68, 84
14, 86819, Note_on_c, 11, 68, 0
14, 86820, Note_on_c, 11, 66, 84
14, 86871, Note_on_c, 11, 66, 0
14, 86880, Note_on_c, 11, 73, 84
14, 87119, Note_on_c, 11, 73, 0
14, 87120, Note_on_c, 11, 71, 84
14, 87359, Note_on_c, 11, 71, 0
14, 87360, Note_on_c, 11, 69, 84
14, 87599, Note_on_c, 11, 69, 0
14, 87600, Note_on_c, 11, 68, 84
14, 87824, Note_on_c, 11, 68, 0
14, 87840, Note_on_c, 11, 69, 84
14, 88079, Note_on_c, 11, 69, 0
14, 88080, Note_on_c, 11, 71, 84
14, 88304, Note_on_c, 11, 71, 0
14, 88320, Note_on_c, 11, 69, 84
14, 88409, Note_on_c, 11, 69, 0
14, 88440, Note_on_c, 11, 66, 84
14, 88499, Note_on_c, 11, 66, 0
14, 88500, Note_on_c, 11, 68, 84
14, 88559, Note_on_c, 11, 68, 0
14, 88560, Note_on_c, 11, 71, 84
14, 88619, Note_on_c, 11, 71, 0
14, 88620, Note_on_c, 11, 69, 84
14, 88679, Note_on_c, 11, 69, 0
14, 88680, Note_on_c, 11, 68, 84
14, 88739, Note_on_c, 11, 68, 0
14, 88740, Note_on_c, 11, 66, 84
14, 88791, Note_on_c, 11, 66, 0
14, 88800, Note_on_c, 11, 73, 84
14, 89039, Note_on_c, 11, 73, 0
14, 89040, Note_on_c, 11, 71, 84
14, 89279, Note_on_c, 11, 71, 0
14, 89280, Note_on_c, 11, 69, 84
14, 89519, Note_on_c, 11, 69, 0
14, 89520, Note_on_c, 11, 68, 84
14, 89759, Note_on_c, 11, 68, 0
14, 89760, Note_on_c, 11, 69, 84
14, 89999, Note_on_c, 11, 69, 0
14, 90000, Note_on_c, 11, 65, 84
14, 90224, Note_on_c, 11, 65, 0
14, 90240, Note_on_c, 11, 66, 84
14, 90411, Note_on_c, 11, 66, 0
14, 90420, Note_on_c, 11, 66, 84
14, 90471, Note_on_c, 11, 66, 0
14, 90480, Note_on_c, 11, 66, 84
14, 90651, Note_on_c, 11, 66, 0
14, 90660, Note_on_c, 11, 66, 84
14, 90711, Note_on_c, 11, 66, 0
14, 90720, Note_on_c, 11, 66, 84
14, 90891, Note_on_c, 11, 66, 0
14, 90900, Note_on_c, 11, 66, 84
14, 90951, Note_on_c, 11, 66, 0
14, 90960, Note_on_c, 11, 66, 84
14, 91131, Note_on_c, 11, 66, 0
14, 91140, Note_on_c, 11, 66, 84
14, 91191, Note_on_c, 11, 66, 0
14, 91200, Note_on_c, 11, 68, 84
14, 91371, Note_on_c, 11, 68, 0
14, 91380, Note_on_c, 11, 68, 84
14, 91431, Note_on_c, 11, 68, 0
14, 91440, Note_on_c, 11, 68, 84
14, 91611, Note_on_c, 11, 68, 0
14, 91620, Note_on_c, 11, 68, 84
14, 91671, Note_on_c, 11, 68, 0
14, 91680, Note_on_c, 11, 68, 84
14, 91851, Note_on_c, 11, 68, 0
14, 91860, Note_on_c, 11, 68, 84
14, 91911, Note_on_c, 11, 68, 0
14, 91920, Note_on_c, 11, 68, 84
14, 92091, Note_on_c, 11, 68, 0
14, 92100, Note_on_c, 11, 68, 84
14, 92151, Note_on_c, 11, 68, 0
14, 92160, Note_on_c, 11, 66, 84
14, 92331, Note_on_c, 11, 66, 0
14, 92340, Note_on_c, 11, 66, 84
14, 92391, Note_on_c, 11, 66, 0
14, 92400, Note_on_c, 11, 66, 84
14, 92571, Note_on_c, 11, 66, 0
14, 92580, Note_on_c, 11, 66, 84
14, 92631, Note_on_c, 11, 66, 0
14, 92640, Note_on_c, 11, 70, 84
14, 92811, Note_on_c, 11, 70, 0
14, 92820, Note_on_c, 11, 70, 84
14, 92871, Note_on_c, 11, 70, 0
14, 92880, Note_on_c, 11, 70, 84
14, 93051, Note_on_c, 11, 70, 0
14, 93060, Note_on_c, 11, 70, 84
14, 93111, Note_on_c, 11, 70, 0
14, 93120, Note_on_c, 11, 72, 84
14, 93291, Note_on_c, 11, 72, 0
14, 93300, Note_on_c, 11, 72, 84
14, 93351, Note_on_c, 11, 72, 0
14, 93360, Note_on_c, 11, 72, 84
14, 93531, Note_on_c, 11, 72, 0
14, 93540, Note_on_c, 11, 72, 84
14, 93591, Note_on_c, 11, 72, 0
14, 93600, Note_on_c, 11, 73, 84
14, 93771, Note_on_c, 11, 73, 0
14, 93780, Note_on_c, 11, 73, 84
14, 93831, Note_on_c, 11, 73, 0
14, 93840, Note_on_c, 11, 73, 84
14, 94011, Note_on_c, 11, 73, 0
14, 94020, Note_on_c, 11, 73, 84
14, 94071, Note_on_c, 11, 73, 0
14, 94080, Note_on_c, 11, 75, 84
14, 94251, Note_on_c, 11, 75, 0
14, 94260, Note_on_c, 11, 76, 84
14, 94311, Note_on_c, 11, 76, 0
14, 94320, Note_on_c, 11, 78, 84
14, 94491, Note_on_c, 11, 78, 0
14, 94500, Note_on_c, 11, 78, 84
14, 94551, Note_on_c, 11, 78, 0
14, 94560, Note_on_c, 11, 78, 84
14, 94731, Note_on_c, 11, 78, 0
14, 94740, Note_on_c, 11, 78, 84
14, 94791, Note_on_c, 11, 78, 0
14, 94800, Note_on_c, 11, 78, 84
14, 94971, Note_on_c, 11, 78, 0
14, 94980, Note_on_c, 11, 78, 84
14, 95031, Note_on_c, 11, 78, 0
14, 95040, Note_on_c, 11, 78, 84
14, 95091, Note_on_c, 11, 78, 0
14, 95100, Note_on_c, 11, 68, 84
14, 95151, Note_on_c, 11, 68, 0
14, 95160, Note_on_c, 11, 68, 84
14, 95211, Note_on_c, 11, 68, 0
14, 95220, Note_on_c, 11, 68, 84
14, 95271, Note_on_c, 11, 68, 0
14, 95280, Note_on_c, 11, 68, 76
14, 95331, Note_on_c, 11, 68, 0
14, 95340, Note_on_c, 11, 68, 76
14, 95391, Note_on_c, 11, 68, 0
14, 95400, Note_on_c, 11, 68, 76
14, 95451, Note_on_c, 11, 68, 0
14, 95460, Note_on_c, 11, 68, 76
14, 95511, Note_on_c, 11, 68, 0
14, 95520, Note_on_c, 11, 66, 52
14, 95571, Note_on_c, 11, 66, 0
14, 95580, Note_on_c, 11, 66, 52
14, 95631, Note_on_c, 11, 66, 0
14, 95640, Note_on_c, 11, 66, 52
14, 95691, Note_on_c, 11, 66, 0
14, 95700, Note_on_c, 11, 66, 52
14, 95751, Note_on_c, 11, 66, 0
14, 95760, Note_on_c, 11, 66, 52
14, 95811, Note_on_c, 11, 66, 0
14, 95820, Note_on_c, 11, 66, 52
14, 95871, Note_on_c, 11, 66, 0
14, 95880, Note_on_c, 11, 66, 52
14, 95931, Note_on_c, 11, 66, 0
14, 95940, Note_on_c, 11, 66, 52
14, 95991, Note_on_c, 11, 66, 0
14, 96000, Note_on_c, 11, 66, 52
14, 96051, Note_on_c, 11, 66, 0
14, 96060, Note_on_c, 11, 68, 52
14, 96111, Note_on_c, 11, 68, 0
14, 96120, Note_on_c, 11, 68, 52
14, 96171, Note_on_c, 11, 68, 0
14, 96180, Note_on_c, 11, 68, 52
14, 96231, Note_on_c, 11, 68, 0
14, 96240, Note_on_c, 11, 68, 52
14, 96291, Note_on_c, 11, 68, 0
14, 96300, Note_on_c, 11, 68, 52
14, 96351, Note_on_c, 11, 68, 0
14, 96360, Note_on_c, 11, 68, 52
14, 96411, Note_on_c, 11, 68, 0
14, 96420, Note_on_c, 11, 68, 52
14, 96471, Note_on_c, 11, 68, 0
14, 96480, Note_on_c, 11, 68, 52
14, 96531, Note_on_c, 11, 68, 0
14, 96540, Note_on_c, 11, 68, 52
14, 96591, Note_on_c, 11, 68, 0
14, 96600, Note_on_c, 11, 68, 52
14, 96651, Note_on_c, 11, 68, 0
14, 96660, Note_on_c, 11, 68, 52
14, 96711, Note_on_c, 11, 68, 0
14, 96720, Note_on_c, 11, 68, 52
14, 96771, Note_on_c, 11, 68, 0
14, 96780, Note_on_c, 11, 68, 52
14, 96831, Note_on_c, 11, 68, 0
14, 96840, Note_on_c, 11, 68, 52
14, 96891, Note_on_c, 11, 68, 0
14, 96900, Note_on_c, 11, 68, 52
14, 96951, Note_on_c, 11, 68, 0
14, 96960, Note_on_c, 11, 68, 52
14, 97011, Note_on_c, 11, 68, 0
14, 97020, Note_on_c, 11, 68, 52
14, 97071, Note_on_c, 11, 68, 0
14, 97080, Note_on_c, 11, 68, 52
14, 97131, Note_on_c, 11, 68, 0
14, 97140, Note_on_c, 11, 68, 52
14, 97191, Note_on_c, 11, 68, 0
14, 97200, Note_on_c, 11, 68, 76
14, 97251, Note_on_c, 11, 68, 0
14, 97260, Note_on_c, 11, 68, 76
14, 97311, Note_on_c, 11, 68, 0
14, 97320, Note_on_c, 11, 68, 76
14, 97371, Note_on_c, 11, 68, 0
14, 97380, Note_on_c, 11, 68, 76
14, 97431, Note_on_c, 11, 68, 0
14, 97440, Note_on_c, 11, 66, 52
14, 97491, Note_on_c, 11, 66, 0
14, 97500, Note_on_c, 11, 66, 52
14, 97551, Note_on_c, 11, 66, 0
14, 97560, Note_on_c, 11, 66, 52
14, 97611, Note_on_c, 11, 66, 0
14, 97620, Note_on_c, 11, 66, 52
14, 97671, Note_on_c, 11, 66, 0
14, 97680, Note_on_c, 11, 66, 52
14, 97731, Note_on_c, 11, 66, 0
14, 97740, Note_on_c, 11, 66, 52
14, 97791, Note_on_c, 11, 66, 0
14, 97800, Note_on_c, 11, 66, 52
14, 97851, Note_on_c, 11, 66, 0
14, 97860, Note_on_c, 11, 66, 52
14, 97911, Note_on_c, 11, 66, 0
14, 97920, Note_on_c, 11, 66, 52
14, 97971, Note_on_c, 11, 66, 0
14, 97980, Note_on_c, 11, 68, 52
14, 98031, Note_on_c, 11, 68, 0
14, 98040, Note_on_c, 11, 68, 52
14, 98091, Note_on_c, 11, 68, 0
14, 98100, Note_on_c, 11, 68, 52
14, 98151, Note_on_c, 11, 68, 0
14, 98160, Note_on_c, 11, 68, 52
14, 98211, Note_on_c, 11, 68, 0
14, 98220, Note_on_c, 11, 68, 52
14, 98271, Note_on_c, 11, 68, 0
14, 98280, Note_on_c, 11, 68, 52
14, 98331, Note_on_c, 11, 68, 0
14, 98340, Note_on_c, 11, 68, 52
14, 98391, Note_on_c, 11, 68, 0
14, 98400, Note_on_c, 11, 68, 52
14, 98451, Note_on_c, 11, 68, 0
14, 98460, Note_on_c, 11, 68, 52
14, 98511, Note_on_c, 11, 68, 0
14, 98520, Note_on_c, 11, 68, 52
14, 98571, Note_on_c, 11, 68, 0
14, 98580, Note_on_c, 11, 68, 52
14, 98631, Note_on_c, 11, 68, 0
14, 98640, Note_on_c, 11, 68, 52
14, 98691, Note_on_c, 11, 68, 0
14, 98700, Note_on_c, 11, 68, 52
14, 98751, Note_on_c, 11, 68, 0
14, 98760, Note_on_c, 11, 68, 52
14, 98811, Note_on_c, 11, 68, 0
14, 98820, Note_on_c, 11, 68, 52
14, 98871, Note_on_c, 11, 68, 0
14, 98880, Note_on_c, 11, 68, 52
14, 98931, Note_on_c, 11, 68, 0
14, 98940, Note_on_c, 11, 68, 52
14, 98991, Note_on_c, 11, 68, 0
14, 99000, Note_on_c, 11, 68, 52
14, 99051, Note_on_c, 11, 68, 0
14, 99060, Note_on_c, 11, 68, 52
14, 99111, Note_on_c, 11, 68, 0
14, 99120, Note_on_c, 11, 68, 51
14, 99171, Note_on_c, 11, 68, 0
14, 99180, Note_on_c, 11, 68, 51
14, 99231, Note_on_c, 11, 68, 0
14, 99240, Note_on_c, 11, 68, 51
14, 99291, Note_on_c, 11, 68, 0
14, 99300, Note_on_c, 11, 68, 51
14, 99351, Note_on_c, 11, 68, 0
14, 99360, Note_on_c, 11, 68, 50
14, 99411, Note_on_c, 11, 68, 0
14, 99420, Note_on_c, 11, 68, 50
14, 99471, Note_on_c, 11, 68, 0
14, 99480, Note_on_c, 11, 68, 50
14, 99531, Note_on_c, 11, 68, 0
14, 99540, Note_on_c, 11, 68, 50
14, 99591, Note_on_c, 11, 68, 0
14, 99600, Note_on_c, 11, 68, 49
14, 99651, Note_on_c, 11, 68, 0
14, 99660, Note_on_c, 11, 68, 49
14, 99711, Note_on_c, 11, 68, 0
14, 99720, Note_on_c, 11, 68, 49
14, 99771, Note_on_c, 11, 68, 0
14, 99780, Note_on_c, 11, 68, 49
14, 99831, Note_on_c, 11, 68, 0
14, 99840, Note_on_c, 11, 68, 48
14, 99891, Note_on_c, 11, 68, 0
14, 99900, Note_on_c, 11, 68, 48
14, 99951, Note_on_c, 11, 68, 0
14, 99960, Note_on_c, 11, 68, 48
14, 100011, Note_on_c, 11, 68, 0
14, 100020, Note_on_c, 11, 68, 48
14, 100071, Note_on_c, 11, 68, 0
14, 100080, Note_on_c, 11, 68, 47
14, 100131, Note_on_c, 11, 68, 0
14, 100140, Note_on_c, 11, 68, 47
14, 100191, Note_on_c, 11, 68, 0
14, 100200, Note_on_c, 11, 68, 47
14, 100251, Note_on_c, 11, 68, 0
14, 100260, Note_on_c, 11, 68, 47
14, 100311, Note_on_c, 11, 68, 0
14, 100320, Note_on_c, 11, 68, 46
14, 100371, Note_on_c, 11, 68, 0
14, 100380, Note_on_c, 11, 63, 46
14, 100431, Note_on_c, 11, 63, 0
14, 100440, Note_on_c, 11, 63, 46
14, 100491, Note_on_c, 11, 63, 0
14, 100500, Note_on_c, 11, 63, 46
14, 100551, Note_on_c, 11, 63, 0
14, 100560, Note_on_c, 11, 63, 45
14, 100611, Note_on_c, 11, 63, 0
14, 100620, Note_on_c, 11, 63, 45
14, 100671, Note_on_c, 11, 63, 0
14, 100680, Note_on_c, 11, 63, 45
14, 100731, Note_on_c, 11, 63, 0
14, 100740, Note_on_c, 11, 63, 45
14, 100791, Note_on_c, 11, 63, 0
14, 100800, Note_on_c, 11, 64, 52
14, 100971, Note_on_c, 11, 64, 0
14, 100980, Note_on_c, 11, 66, 52
14, 101024, Note_on_c, 11, 66, 0
14, 101040, Note_on_c, 11, 68, 76
14, 101271, Note_on_c, 11, 68, 0
14, 101280, Note_on_c, 11, 66, 52
14, 101451, Note_on_c, 11, 66, 0
14, 101460, Note_on_c, 11, 64, 52
14, 101504, Note_on_c, 11, 64, 0
14, 101520, Note_on_c, 11, 66, 76
14, 101751, Note_on_c, 11, 66, 0
14, 101760, Note_on_c, 11, 64, 52
14, 101931, Note_on_c, 11, 64, 0
14, 101940, Note_on_c, 11, 63, 52
14, 101984, Note_on_c, 11, 63, 0
14, 102000, Note_on_c, 11, 64, 76
14, 102231, Note_on_c, 11, 64, 0
14, 102240, Note_on_c, 11, 66, 52
14, 102411, Note_on_c, 11, 66, 0
14, 102420, Note_on_c, 11, 64, 52
14, 102464, Note_on_c, 11, 64, 0
14, 102480, Note_on_c, 11, 66, 76
14, 102711, Note_on_c, 11, 66, 0
14, 102720, Note_on_c, 11, 64, 52
14, 102839, Note_on_c, 11, 64, 0
14, 105120, Note_on_c, 11, 66, 52
14, 105120, Note_on_c, 11, 56, 52
14, 105344, Note_on_c, 11, 66, 0
14, 105344, Note_on_c, 11, 56, 0
14, 105360, Note_on_c, 11, 56, 52
14, 105360, Note_on_c, 11, 66, 52
14, 105584, Note_on_c, 11, 56, 0
14, 105584, Note_on_c, 11, 66, 0
14, 105600, Note_on_c, 11, 68, 52
14, 105771, Note_on_c, 11, 68, 0
14, 105780, Note_on_c, 11, 66, 52
14, 105824, Note_on_c, 11, 66, 0
14, 105840, Note_on_c, 11, 68, 76
14, 106071, Note_on_c, 11, 68, 0
14, 106080, Note_on_c, 11, 66, 52
14, 106251, Note_on_c, 11, 66, 0
14, 106260, Note_on_c, 11, 64, 52
14, 106304, Note_on_c, 11, 64, 0
14, 106320, Note_on_c, 11, 66, 76
14, 106551, Note_on_c, 11, 66, 0
14, 106560, Note_on_c, 11, 64, 52
14, 106731, Note_on_c, 11, 64, 0
14, 106740, Note_on_c, 11, 63, 52
14, 106784, Note_on_c, 11, 63, 0
14, 106800, Note_on_c, 11, 64, 76
14, 107031, Note_on_c, 11, 64, 0
14, 107040, Note_on_c, 11, 66, 52
14, 107211, Note_on_c, 11, 66, 0
14, 107220, Note_on_c, 11, 64, 52
14, 107264, Note_on_c, 11, 64, 0
14, 107280, Note_on_c, 11, 66, 76
14, 107511, Note_on_c, 11, 66, 0
14, 107520, Note_on_c, 11, 64, 52
14, 107639, Note_on_c, 11, 64, 0
14, 110100, Note_on_c, 11, 67, 55
14, 110159, Note_on_c, 11, 67, 0
14, 110160, Note_on_c, 11, 64, 56
14, 110279, Note_on_c, 11, 64, 0
14, 110340, Note_on_c, 11, 61, 57
14, 110399, Note_on_c, 11, 61, 0
14, 110400, Note_on_c, 11, 57, 57
14, 110519, Note_on_c, 11, 57, 0
14, 111360, Note_on_c, 11, 67, 62
14, 111479, Note_on_c, 11, 67, 0
14, 111540, Note_on_c, 11, 69, 63
14, 111599, Note_on_c, 11, 69, 0
14, 111600, Note_on_c, 11, 73, 64
14, 111719, Note_on_c, 11, 73, 0
14, 111780, Note_on_c, 11, 76, 65
14, 111839, Note_on_c, 11, 76, 0
14, 111840, Note_on_c, 11, 78, 65
14, 111959, Note_on_c, 11, 78, 0
14, 112980, Note_on_c, 11, 67, 71
14, 113039, Note_on_c, 11, 67, 0
14, 113040, Note_on_c, 11, 64, 72
14, 113159, Note_on_c, 11, 64, 0
14, 113220, Note_on_c, 11, 61, 73
14, 113279, Note_on_c, 11, 61, 0
14, 113280, Note_on_c, 11, 57, 73
14, 113399, Note_on_c, 11, 57, 0
14, 114240, Note_on_c, 11, 67, 78
14, 114359, Note_on_c, 11, 67, 0
14, 114420, Note_on_c, 11, 69, 79
14, 114479, Note_on_c, 11, 69, 0
14, 114480, Note_on_c, 11, 73, 80
14, 114599, Note_on_c, 11, 73, 0
14, 114660, Note_on_c, 11, 76, 81
14, 114719, Note_on_c, 11, 76, 0
14, 114720, Note_on_c, 11, 78, 81
14, 114839, Note_on_c, 11, 78, 0
14, 115200, Note_on_c, 11, 81, 84
14, 115200, Note_on_c, 11, 69, 84
14, 115251, Note_on_c, 11, 81, 0
14, 115251, Note_on_c, 11, 69, 0
14, 115260, Note_on_c, 11, 81, 84
14, 115260, Note_on_c, 11, 69, 84
14, 115311, Note_on_c, 11, 81, 0
14, 115311, Note_on_c, 11, 69, 0
14, 115320, Note_on_c, 11, 81, 84
14, 115320, Note_on_c, 11, 69, 84
14, 115371, Note_on_c, 11, 81, 0
14, 115371, Note_on_c, 11, 69, 0
14, 115380, Note_on_c, 11, 81, 84
14, 115380, Note_on_c, 11, 69, 84
14, 115431, Note_on_c, 11, 81, 0
14, 115431, Note_on_c, 11, 69, 0
14, 115440, Note_on_c, 11, 81, 84
14, 115440, Note_on_c, 11, 69, 84
14, 115491, Note_on_c, 11, 81, 0
14, 115491, Note_on_c, 11, 69, 0
14, 115500, Note_on_c, 11, 69, 84
14, 115500, Note_on_c, 11, 81, 84
14, 115551, Note_on_c, 11, 69, 0
14, 115551, Note_on_c, 11, 81, 0
14, 115560, Note_on_c, 11, 69, 84
14, 115560, Note_on_c, 11, 81, 84
14, 115611, Note_on_c, 11, 69, 0
14, 115611, Note_on_c, 11, 81, 0
14, 115620, Note_on_c, 11, 69, 84
14, 115620, Note_on_c, 11, 81, 84
14, 115671, Note_on_c, 11, 69, 0
14, 115671, Note_on_c, 11, 81, 0
14, 115680, Note_on_c, 11, 69, 84
14, 115680, Note_on_c, 11, 81, 84
14, 115731, Note_on_c, 11, 69, 0
14, 115731, Note_on_c, 11, 81, 0
14, 115740, Note_on_c, 11, 81, 84
14, 115740, Note_on_c, 11, 69, 84
14, 115791, Note_on_c, 11, 81, 0
14, 115791, Note_on_c, 11, 69, 0
14, 115800, Note_on_c, 11, 81, 84
14, 115800, Note_on_c, 11, 69, 84
14, 115851, Note_on_c, 11, 81, 0
14, 115851, Note_on_c, 11, 69, 0
14, 115860, Note_on_c, 11, 69, 84
14, 115860, Note_on_c, 11, 81, 84
14, 115911, Note_on_c, 11, 69, 0
14, 115911, Note_on_c, 11, 81, 0
14, 115920, Note_on_c, 11, 81, 84
14, 115920, Note_on_c, 11, 69, 84
14, 115971, Note_on_c, 11, 81, 0
14, 115971, Note_on_c, 11, 69, 0
14, 115980, Note_on_c, 11, 81, 84
14, 115980, Note_on_c, 11, 69, 84
14, 116031, Note_on_c, 11, 81, 0
14, 116031, Note_on_c, 11, 69, 0
14, 116040, Note_on_c, 11, 81, 84
14, 116040, Note_on_c, 11, 69, 84
14, 116091, Note_on_c, 11, 81, 0
14, 116091, Note_on_c, 11, 69, 0
14, 116100, Note_on_c, 11, 69, 84
14, 116100, Note_on_c, 11, 81, 84
14, 116151, Note_on_c, 11, 69, 0
14, 116151, Note_on_c, 11, 81, 0
14, 116160, Note_on_c, 11, 80, 92
14, 116211, Note_on_c, 11, 80, 0
14, 116220, Note_on_c, 11, 80, 84
14, 116271, Note_on_c, 11, 80, 0
14, 116280, Note_on_c, 11, 80, 84
14, 116331, Note_on_c, 11, 80, 0
14, 116340, Note_on_c, 11, 80, 84
14, 116391, Note_on_c, 11, 80, 0
14, 116400, Note_on_c, 11, 80, 84
14, 116451, Note_on_c, 11, 80, 0
14, 116460, Note_on_c, 11, 80, 84
14, 116511, Note_on_c, 11, 80, 0
14, 116520, Note_on_c, 11, 80, 84
14, 116571, Note_on_c, 11, 80, 0
14, 116580, Note_on_c, 11, 80, 84
14, 116631, Note_on_c, 11, 80, 0
14, 116640, Note_on_c, 11, 81, 92
14, 116691, Note_on_c, 11, 81, 0
14, 116700, Note_on_c, 11, 81, 84
14, 116751, Note_on_c, 11, 81, 0
14, 116760, Note_on_c, 11, 81, 84
14, 116811, Note_on_c, 11, 81, 0
14, 116820, Note_on_c, 11, 81, 84
14, 116871, Note_on_c, 11, 81, 0
14, 116880, Note_on_c, 11, 81, 84
14, 116931, Note_on_c, 11, 81, 0
14, 116940, Note_on_c, 11, 81, 84
14, 116991, Note_on_c, 11, 81, 0
14, 117000, Note_on_c, 11, 81, 84
14, 117051, Note_on_c, 11, 81, 0
14, 117060, Note_on_c, 11, 81, 84
14, 117111, Note_on_c, 11, 81, 0
14, 117120, Note_on_c, 11, 80, 92
14, 117171, Note_on_c, 11, 80, 0
14, 117180, Note_on_c, 11, 80, 84
14, 117231, Note_on_c, 11, 80, 0
14, 117240, Note_on_c, 11, 80, 84
14, 117291, Note_on_c, 11, 80, 0
14, 117300, Note_on_c, 11, 80, 84
14, 117351, Note_on_c, 11, 80, 0
14, 117360, Note_on_c, 11, 80, 84
14, 117411, Note_on_c, 11, 80, 0
14, 117420, Note_on_c, 11, 80, 84
14, 117471, Note_on_c, 11, 80, 0
14, 117480, Note_on_c, 11, 80, 84
14, 117531, Note_on_c, 11, 80, 0
14, 117540, Note_on_c, 11, 80, 84
14, 117591, Note_on_c, 11, 80, 0
14, 117600, Note_on_c, 11, 81, 92
14, 117651, Note_on_c, 11, 81, 0
14, 117660, Note_on_c, 11, 81, 84
14, 117711, Note_on_c, 11, 81, 0
14, 117720, Note_on_c, 11, 81, 84
14, 117771, Note_on_c, 11, 81, 0
14, 117780, Note_on_c, 11, 81, 84
14, 117831, Note_on_c, 11, 81, 0
14, 117840, Note_on_c, 11, 81, 84
14, 117891, Note_on_c, 11, 81, 0
14, 117900, Note_on_c, 11, 81, 84
14, 117951, Note_on_c, 11, 81, 0
14, 117960, Note_on_c, 11, 81, 84
14, 118011, Note_on_c, 11, 81, 0
14, 118020, Note_on_c, 11, 81, 84
14, 118071, Note_on_c, 11, 81, 0
14, 118080, Note_on_c, 11, 80, 92
14, 118131, Note_on_c, 11, 80, 0
14, 118140, Note_on_c, 11, 80, 84
14, 118191, Note_on_c, 11, 80, 0
14, 118200, Note_on_c, 11, 80, 84
14, 118251, Note_on_c, 11, 80, 0
14, 118260, Note_on_c, 11, 80, 84
14, 118311, Note_on_c, 11, 80, 0
14, 118320, Note_on_c, 11, 80, 84
14, 118371, Note_on_c, 11, 80, 0
14, 118380, Note_on_c, 11, 80, 84
14, 118431, Note_on_c, 11, 80, 0
14, 118440, Note_on_c, 11, 80, 84
14, 118491, Note_on_c, 11, 80, 0
14, 118500, Note_on_c, 11, 80, 84
14, 118551, Note_on_c, 11, 80, 0
14, 118560, Note_on_c, 11, 69, 92
14, 118560, Note_on_c, 11, 81, 92
14, 118611, Note_on_c, 11, 69, 0
14, 118611, Note_on_c, 11, 81, 0
14, 118620, Note_on_c, 11, 69, 84
14, 118620, Note_on_c, 11, 81, 84
14, 118671, Note_on_c, 11, 69, 0
14, 118671, Note_on_c, 11, 81, 0
14, 118680, Note_on_c, 11, 69, 84
14, 118680, Note_on_c, 11, 81, 84
14, 118731, Note_on_c, 11, 69, 0
14, 118731, Note_on_c, 11, 81, 0
14, 118740, Note_on_c, 11, 81, 84
14, 118740, Note_on_c, 11, 69, 84
14, 118791, Note_on_c, 11, 81, 0
14, 118791, Note_on_c, 11, 69, 0
14, 118800, Note_on_c, 11, 69, 84
14, 118800, Note_on_c, 11, 81, 84
14, 118851, Note_on_c, 11, 69, 0
14, 118851, Note_on_c, 11, 81, 0
14, 118860, Note_on_c, 11, 69, 84
14, 118860, Note_on_c, 11, 81, 84
14, 118911, Note_on_c, 11, 69, 0
14, 118911, Note_on_c, 11, 81, 0
14, 118920, Note_on_c, 11, 69, 84
14, 118920, Note_on_c, 11, 81, 84
14, 118971, Note_on_c, 11, 69, 0
14, 118971, Note_on_c, 11, 81, 0
14, 118980, Note_on_c, 11, 69, 84
14, 118980, Note_on_c, 11, 81, 84
14, 119031, Note_on_c, 11, 69, 0
14, 119031, Note_on_c, 11, 81, 0
14, 119040, Note_on_c, 11, 80, 92
14, 119091, Note_on_c, 11, 80, 0
14, 119100, Note_on_c, 11, 80, 84
14, 119151, Note_on_c, 11, 80, 0
14, 119160, Note_on_c, 11, 80, 84
14, 119211, Note_on_c, 11, 80, 0
14, 119220, Note_on_c, 11, 80, 84
14, 119271, Note_on_c, 11, 80, 0
14, 119280, Note_on_c, 11, 80, 84
14, 119331, Note_on_c, 11, 80, 0
14, 119340, Note_on_c, 11, 80, 84
14, 119391, Note_on_c, 11, 80, 0
14, 119400, Note_on_c, 11, 80, 84
14, 119451, Note_on_c, 11, 80, 0
14, 119460, Note_on_c, 11, 80, 84
14, 119511, Note_on_c, 11, 80, 0
14, 119520, Note_on_c, 11, 80, 92
14, 119571, Note_on_c, 11, 80, 0
14, 119580, Note_on_c, 11, 80, 84
14, 119631, Note_on_c, 11, 80, 0
14, 119640, Note_on_c, 11, 80, 84
14, 119691, Note_on_c, 11, 80, 0
14, 119700, Note_on_c, 11, 80, 84
14, 119751, Note_on_c, 11, 80, 0
14, 119760, Note_on_c, 11, 80, 84
14, 119811, Note_on_c, 11, 80, 0
14, 119820, Note_on_c, 11, 80, 84
14, 119871, Note_on_c, 11, 80, 0
14, 119880, Note_on_c, 11, 80, 84
14, 119931, Note_on_c, 11, 80, 0
14, 119940, Note_on_c, 11, 80, 84
14, 119991, Note_on_c, 11, 80, 0
14, 120000, Note_on_c, 11, 80, 84
14, 120059, Note_on_c, 11, 80, 0
14, 120060, Note_on_c, 11, 76, 84
14, 120119, Note_on_c, 11, 76, 0
14, 120120, Note_on_c, 11, 78, 84
14, 120179, Note_on_c, 11, 78, 0
14, 120180, Note_on_c, 11, 80, 84
14, 120231, Note_on_c, 11, 80, 0
14, 120240, Note_on_c, 11, 83, 92
14, 120299, Note_on_c, 11, 83, 0
14, 120300, Note_on_c, 11, 81, 84
14, 120359, Note_on_c, 11, 81, 0
14, 120360, Note_on_c, 11, 80, 84
14, 120419, Note_on_c, 11, 80, 0
14, 120420, Note_on_c, 11, 78, 84
14, 120479, Note_on_c, 11, 78, 0
14, 120480, Note_on_c, 11, 83, 84
14, 120539, Note_on_c, 11, 83, 0
14, 120540, Note_on_c, 11, 81, 84
14, 120599, Note_on_c, 11, 81, 0
14, 120600, Note_on_c, 11, 80, 84
14, 120659, Note_on_c, 11, 80, 0
14, 120660, Note_on_c, 11, 78, 84
14, 120719, Note_on_c, 11, 78, 0
14, 120720, Note_on_c, 11, 83, 84
14, 120779, Note_on_c, 11, 83, 0
14, 120780, Note_on_c, 11, 81, 84
14, 120839, Note_on_c, 11, 81, 0
14, 120840, Note_on_c, 11, 80, 84
14, 120899, Note_on_c, 11, 80, 0
14, 120900, Note_on_c, 11, 78, 84
14, 120951, Note_on_c, 11, 78, 0
14, 120960, Note_on_c, 11, 80, 84
14, 121019, Note_on_c, 11, 80, 0
14, 121020, Note_on_c, 11, 76, 84
14, 121079, Note_on_c, 11, 76, 0
14, 121080, Note_on_c, 11, 78, 84
14, 121139, Note_on_c, 11, 78, 0
14, 121140, Note_on_c, 11, 80, 84
14, 121191, Note_on_c, 11, 80, 0
14, 121200, Note_on_c, 11, 83, 92
14, 121259, Note_on_c, 11, 83, 0
14, 121260, Note_on_c, 11, 81, 84
14, 121319, Note_on_c, 11, 81, 0
14, 121320, Note_on_c, 11, 80, 84
14, 121379, Note_on_c, 11, 80, 0
14, 121380, Note_on_c, 11, 78, 84
14, 121439, Note_on_c, 11, 78, 0
14, 121440, Note_on_c, 11, 83, 84
14, 121499, Note_on_c, 11, 83, 0
14, 121500, Note_on_c, 11, 81, 84
14, 121559, Note_on_c, 11, 81, 0
14, 121560, Note_on_c, 11, 80, 84
14, 121619, Note_on_c, 11, 80, 0
14, 121620, Note_on_c, 11, 78, 84
14, 121679, Note_on_c, 11, 78, 0
14, 121680, Note_on_c, 11, 83, 84
14, 121739, Note_on_c, 11, 83, 0
14, 121740, Note_on_c, 11, 81, 84
14, 121799, Note_on_c, 11, 81, 0
14, 121800, Note_on_c, 11, 80, 84
14, 121859, Note_on_c, 11, 80, 0
14, 121860, Note_on_c, 11, 78, 84
14, 121911, Note_on_c, 11, 78, 0
14, 121920, Note_on_c, 11, 80, 84
14, 121979, Note_on_c, 11, 80, 0
14, 121980, Note_on_c, 11, 76, 84
14, 122039, Note_on_c, 11, 76, 0
14, 122040, Note_on_c, 11, 78, 84
14, 122099, Note_on_c, 11, 78, 0
14, 122100, Note_on_c, 11, 80, 84
14, 122151, Note_on_c, 11, 80, 0
14, 122160, Note_on_c, 11, 83, 92
14, 122219, Note_on_c, 11, 83, 0
14, 122220, Note_on_c, 11, 81, 84
14, 122279, Note_on_c, 11, 81, 0
14, 122280, Note_on_c, 11, 80, 84
14, 122339, Note_on_c, 11, 80, 0
14, 122340, Note_on_c, 11, 78, 84
14, 122391, Note_on_c, 11, 78, 0
14, 122400, Note_on_c, 11, 76, 84
14, 122444, Note_on_c, 11, 76, 0
14, 122460, Note_on_c, 11, 76, 84
14, 122519, Note_on_c, 11, 76, 0
14, 122520, Note_on_c, 11, 78, 84
14, 122579, Note_on_c, 11, 78, 0
14, 122580, Note_on_c, 11, 80, 84
14, 122639, Note_on_c, 11, 80, 0
14, 122640, Note_on_c, 11, 83, 92
14, 122699, Note_on_c, 11, 83, 0
14, 122700, Note_on_c, 11, 81, 84
14, 122759, Note_on_c, 11, 81, 0
14, 122760, Note_on_c, 11, 80, 84
14, 122819, Note_on_c, 11, 80, 0
14, 122820, Note_on_c, 11, 78, 84
14, 122871, Note_on_c, 11, 78, 0
14, 122880, Note_on_c, 11, 76, 84
14, 122924, Note_on_c, 11, 76, 0
14, 122940, Note_on_c, 11, 76, 84
14, 122999, Note_on_c, 11, 76, 0
14, 123000, Note_on_c, 11, 78, 84
14, 123059, Note_on_c, 11, 78, 0
14, 123060, Note_on_c, 11, 80, 84
14, 123119, Note_on_c, 11, 80, 0
14, 123120, Note_on_c, 11, 83, 92
14, 123179, Note_on_c, 11, 83, 0
14, 123180, Note_on_c, 11, 81, 84
14, 123239, Note_on_c, 11, 81, 0
14, 123240, Note_on_c, 11, 80, 84
14, 123299, Note_on_c, 11, 80, 0
14, 123300, Note_on_c, 11, 78, 84
14, 123351, Note_on_c, 11, 78, 0
14, 123360, Note_on_c, 11, 76, 84
14, 123411, Note_on_c, 11, 76, 0
14, 123420, Note_on_c, 11, 81, 84
14, 123471, Note_on_c, 11, 81, 0
14, 123480, Note_on_c, 11, 81, 84
14, 123531, Note_on_c, 11, 81, 0
14, 123540, Note_on_c, 11, 81, 84
14, 123591, Note_on_c, 11, 81, 0
14, 123600, Note_on_c, 11, 82, 84
14, 123651, Note_on_c, 11, 82, 0
14, 123660, Note_on_c, 11, 82, 84
14, 123711, Note_on_c, 11, 82, 0
14, 123720, Note_on_c, 11, 82, 84
14, 123771, Note_on_c, 11, 82, 0
14, 123780, Note_on_c, 11, 82, 84
14, 123831, Note_on_c, 11, 82, 0
14, 123840, Note_on_c, 11, 82, 84
14, 123840, Note_on_c, 11, 70, 84
14, 123959, Note_on_c, 11, 82, 0
14, 123959, Note_on_c, 11, 70, 0
14, 124800, Note_on_c, 11, 70, 84
14, 124800, Note_on_c, 11, 82, 84
14, 124919, Note_on_c, 11, 70, 0
14, 124919, Note_on_c, 11, 82, 0
14, 125760, Note_on_c, 11, 60, 84
14, 125760, Note_on_c, 11, 67, 84
14, 125811, Note_on_c, 11, 60, 0
14, 125811, Note_on_c, 11, 67, 0
14, 125820, Note_on_c, 11, 60, 84
14, 125820, Note_on_c, 11, 67, 84
14, 125871, Note_on_c, 11, 60, 0
14, 125871, Note_on_c, 11, 67, 0
14, 125880, Note_on_c, 11, 67, 84
14, 125880, Note_on_c, 11, 60, 84
14, 125931, Note_on_c, 11, 67, 0
14, 125931, Note_on_c, 11, 60, 0
14, 125940, Note_on_c, 11, 67, 84
14, 125940, Note_on_c, 11, 60, 84
14, 125991, Note_on_c, 11, 67, 0
14, 125991, Note_on_c, 11, 60, 0
14, 126000, Note_on_c, 11, 65, 92
14, 126000, Note_on_c, 11, 60, 92
14, 126051, Note_on_c, 11, 65, 0
14, 126051, Note_on_c, 11, 60, 0
14, 126060, Note_on_c, 11, 65, 84
14, 126060, Note_on_c, 11, 60, 84
14, 126111, Note_on_c, 11, 65, 0
14, 126111, Note_on_c, 11, 60, 0
14, 126120, Note_on_c, 11, 60, 84
14, 126120, Note_on_c, 11, 67, 84
14, 126171, Note_on_c, 11, 60, 0
14, 126171, Note_on_c, 11, 67, 0
14, 126180, Note_on_c, 11, 67, 84
14, 126180, Note_on_c, 11, 60, 84
14, 126231, Note_on_c, 11, 67, 0
14, 126231, Note_on_c, 11, 60, 0
14, 126240, Note_on_c, 11, 60, 84
14, 126240, Note_on_c, 11, 69, 84
14, 126291, Note_on_c, 11, 60, 0
14, 126291, Note_on_c, 11, 69, 0
14, 126300, Note_on_c, 11, 69, 84
14, 126300, Note_on_c, 11, 60, 84
14, 126351, Note_on_c, 11, 69, 0
14, 126351, Note_on_c, 11, 60, 0
14, 126360, Note_on_c, 11, 69, 84
14, 126360, Note_on_c, 11, 60, 84
14, 126411, Note_on_c, 11, 69, 0
14, 126411, Note_on_c, 11, 60, 0
14, 126420, Note_on_c, 11, 69, 84
14, 126420, Note_on_c, 11, 60, 84
14, 126471, Note_on_c, 11, 69, 0
14, 126471, Note_on_c, 11, 60, 0
14, 126480, Note_on_c, 11, 60, 92
14, 126480, Note_on_c, 11, 67, 92
14, 126531, Note_on_c, 11, 60, 0
14, 126531, Note_on_c, 11, 67, 0
14, 126540, Note_on_c, 11, 67, 84
14, 126540, Note_on_c, 11, 60, 84
14, 126591, Note_on_c, 11, 67, 0
14, 126591, Note_on_c, 11, 60, 0
14, 126600, Note_on_c, 11, 69, 84
14, 126600, Note_on_c, 11, 60, 84
14, 126651, Note_on_c, 11, 69, 0
14, 126651, Note_on_c, 11, 60, 0
14, 126660, Note_on_c, 11, 69, 84
14, 126660, Note_on_c, 11, 60, 84
14, 126711, Note_on_c, 11, 69, 0
14, 126711, Note_on_c, 11, 60, 0
14, 126720, Note_on_c, 11, 67, 84
14, 126720, Note_on_c, 11, 60, 84
14, 126771, Note_on_c, 11, 67, 0
14, 126771, Note_on_c, 11, 60, 0
14, 126780, Note_on_c, 11, 60, 84
14, 126831, Note_on_c, 11, 60, 0
14, 126840, Note_on_c, 11, 60, 84
14, 126891, Note_on_c, 11, 60, 0
14, 126900, Note_on_c, 11, 60, 84
14, 126951, Note_on_c, 11, 60, 0
14, 126960, Note_on_c, 11, 60, 92
14, 127011, Note_on_c, 11, 60, 0
14, 127020, Note_on_c, 11, 60, 84
14, 127071, Note_on_c, 11, 60, 0
14, 127080, Note_on_c, 11, 60, 84
14, 127131, Note_on_c, 11, 60, 0
14, 127140, Note_on_c, 11, 60, 84
14, 127191, Note_on_c, 11, 60, 0
14, 127200, Note_on_c, 11, 57, 84
14, 127379, Note_on_c, 11, 57, 0
14, 127380, Note_on_c, 11, 65, 84
14, 127431, Note_on_c, 11, 65, 0
14, 127440, Note_on_c, 11, 65, 92
14, 127679, Note_on_c, 11, 65, 0
14, 127680, Note_on_c, 11, 65, 84
14, 128144, Note_on_c, 11, 65, 0
14, 128160, Note_on_c, 11, 64, 84
14, 128279, Note_on_c, 11, 64, 0
14, 129120, Note_on_c, 11, 64, 84
14, 129120, Note_on_c, 11, 71, 84
14, 129171, Note_on_c, 11, 64, 0
14, 129171, Note_on_c, 11, 71, 0
14, 129180, Note_on_c, 11, 64, 84
14, 129180, Note_on_c, 11, 71, 84
14, 129231, Note_on_c, 11, 64, 0
14, 129231, Note_on_c, 11, 71, 0
14, 129240, Note_on_c, 11, 64, 84
14, 129240, Note_on_c, 11, 71, 84
14, 129291, Note_on_c, 11, 64, 0
14, 129291, Note_on_c, 11, 71, 0
14, 129300, Note_on_c, 11, 71, 84
14, 129300, Note_on_c, 11, 64, 84
14, 129351, Note_on_c, 11, 71, 0
14, 129351, Note_on_c, 11, 64, 0
14, 129360, Note_on_c, 11, 69, 92
14, 129360, Note_on_c, 11, 64, 92
14, 129411, Note_on_c, 11, 69, 0
14, 129411, Note_on_c, 11, 64, 0
14, 129420, Note_on_c, 11, 64, 84
14, 129420, Note_on_c, 11, 69, 84
14, 129471, Note_on_c, 11, 64, 0
14, 129471, Note_on_c, 11, 69, 0
14, 129480, Note_on_c, 11, 71, 84
14, 129480, Note_on_c, 11, 64, 84
14, 129531, Note_on_c, 11, 71, 0
14, 129531, Note_on_c, 11, 64, 0
14, 129540, Note_on_c, 11, 64, 84
14, 129540, Note_on_c, 11, 71, 84
14, 129591, Note_on_c, 11, 64, 0
14, 129591, Note_on_c, 11, 71, 0
14, 129600, Note_on_c, 11, 64, 84
14, 129600, Note_on_c, 11, 72, 84
14, 129651, Note_on_c, 11, 64, 0
14, 129651, Note_on_c, 11, 72, 0
14, 129660, Note_on_c, 11, 64, 84
14, 129660, Note_on_c, 11, 72, 84
14, 129711, Note_on_c, 11, 64, 0
14, 129711, Note_on_c, 11, 72, 0
14, 129720, Note_on_c, 11, 72, 84
14, 129720, Note_on_c, 11, 64, 84
14, 129771, Note_on_c, 11, 72, 0
14, 129771, Note_on_c, 11, 64, 0
14, 129780, Note_on_c, 11, 72, 84
14, 129780, Note_on_c, 11, 64, 84
14, 129831, Note_on_c, 11, 72, 0
14, 129831, Note_on_c, 11, 64, 0
14, 129840, Note_on_c, 11, 71, 92
14, 129840, Note_on_c, 11, 64, 92
14, 129891, Note_on_c, 11, 71, 0
14, 129891, Note_on_c, 11, 64, 0
14, 129900, Note_on_c, 11, 71, 84
14, 129900, Note_on_c, 11, 64, 84
14, 129951, Note_on_c, 11, 71, 0
14, 129951, Note_on_c, 11, 64, 0
14, 129960, Note_on_c, 11, 72, 84
14, 129960, Note_on_c, 11, 64, 84
14, 130011, Note_on_c, 11, 72, 0
14, 130011, Note_on_c, 11, 64, 0
14, 130020, Note_on_c, 11, 64, 84
14, 130020, Note_on_c, 11, 72, 84
14, 130071, Note_on_c, 11, 64, 0
14, 130071, Note_on_c, 11, 72, 0
14, 130080, Note_on_c, 11, 64, 84
14, 130080, Note_on_c, 11, 71, 84
14, 130131, Note_on_c, 11, 64, 0
14, 130131, Note_on_c, 11, 71, 0
14, 130140, Note_on_c, 11, 64, 84
14, 130191, Note_on_c, 11, 64, 0
14, 130200, Note_on_c, 11, 64, 84
14, 130251, Note_on_c, 11, 64, 0
14, 130260, Note_on_c, 11, 64, 84
14, 130311, Note_on_c, 11, 64, 0
14, 130320, Note_on_c, 11, 64, 92
14, 130371, Note_on_c, 11, 64, 0
14, 130380, Note_on_c, 11, 64, 84
14, 130431, Note_on_c, 11, 64, 0
14, 130440, Note_on_c, 11, 64, 84
14, 130491, Note_on_c, 11, 64, 0
14, 130500, Note_on_c, 11, 64, 84
14, 130551, Note_on_c, 11, 64, 0
14, 130560, Note_on_c, 11, 60, 84
14, 130739, Note_on_c, 11, 60, 0
14, 130740, Note_on_c, 11, 69, 84
14, 130791, Note_on_c, 11, 69, 0
14, 130800, Note_on_c, 11, 69, 92
14, 131039, Note_on_c, 11, 69, 0
14, 131040, Note_on_c, 11, 69, 84
14, 131504, Note_on_c, 11, 69, 0
14, 131520, Note_on_c, 11, 66, 84
14, 131639, Note_on_c, 11, 66, 0
14, 132480, Note_on_c, 11, 58, 84
14, 132659, Note_on_c, 11, 58, 0
14, 132660, Note_on_c, 11, 67, 84
14, 132711, Note_on_c, 11, 67, 0
14, 132720, Note_on_c, 11, 67, 92
14, 132959, Note_on_c, 11, 67, 0
14, 132960, Note_on_c, 11, 67, 84
14, 133424, Note_on_c, 11, 67, 0
14, 133440, Note_on_c, 11, 64, 84
14, 133559, Note_on_c, 11, 64, 0
14, 134400, Note_on_c, 11, 56, 84
14, 134579, Note_on_c, 11, 56, 0
14, 134580, Note_on_c, 11, 65, 84
14, 134631, Note_on_c, 11, 65, 0
14, 134640, Note_on_c, 11, 65, 92
14, 134879, Note_on_c, 11, 65, 0
14, 134880, Note_on_c, 11, 65, 84
14, 135411, Note_on_c, 11, 65, 0
14, 135420, Note_on_c, 11, 62, 84
14, 135471, Note_on_c, 11, 62, 0
14, 135480, Note_on_c, 11, 62, 84
14, 135531, Note_on_c, 11, 62, 0
14, 135540, Note_on_c, 11, 62, 84
14, 135591, Note_on_c, 11, 62, 0
14, 135600, Note_on_c, 11, 60, 92
14, 135651, Note_on_c, 11, 60, 0
14, 135660, Note_on_c, 11, 60, 84
14, 135711, Note_on_c, 11, 60, 0
14, 135720, Note_on_c, 11, 62, 84
14, 135771, Note_on_c, 11, 62, 0
14, 135780, Note_on_c, 11, 62, 84
14, 135831, Note_on_c, 11, 62, 0
14, 135840, Note_on_c, 11, 64, 84
14, 135891, Note_on_c, 11, 64, 0
14, 135900, Note_on_c, 11, 64, 84
14, 135951, Note_on_c, 11, 64, 0
14, 135960, Note_on_c, 11, 64, 84
14, 136011, Note_on_c, 11, 64, 0
14, 136020, Note_on_c, 11, 64, 84
14, 136071, Note_on_c, 11, 64, 0
14, 136080, Note_on_c, 11, 62, 92
14, 136131, Note_on_c, 11, 62, 0
14, 136140, Note_on_c, 11, 62, 84
14, 136191, Note_on_c, 11, 62, 0
14, 136200, Note_on_c, 11, 64, 84
14, 136251, Note_on_c, 11, 64, 0
14, 136260, Note_on_c, 11, 64, 84
14, 136311, Note_on_c, 11, 64, 0
14, 136320, Note_on_c, 11, 62, 84
14, 136371, Note_on_c, 11, 62, 0
14, 136380, Note_on_c, 11, 62, 84
14, 136431, Note_on_c, 11, 62, 0
14, 136440, Note_on_c, 11, 62, 84
14, 136491, Note_on_c, 11, 62, 0
14, 136500, Note_on_c, 11, 62, 84
14, 136551, Note_on_c, 11, 62, 0
14, 136560, Note_on_c, 11, 60, 92
14, 136611, Note_on_c, 11, 60, 0
14, 136620, Note_on_c, 11, 60, 84
14, 136671, Note_on_c, 11, 60, 0
14, 136680, Note_on_c, 11, 62, 84
14, 136731, Note_on_c, 11, 62, 0
14, 136740, Note_on_c, 11, 62, 84
14, 136791, Note_on_c, 11, 62, 0
14, 136800, Note_on_c, 11, 64, 84
14, 136844, Note_on_c, 11, 64, 0
14, 136860, Note_on_c, 11, 64, 84
14, 136919, Note_on_c, 11, 64, 0
14, 136920, Note_on_c, 11, 65, 84
14, 136979, Note_on_c, 11, 65, 0
14, 136980, Note_on_c, 11, 67, 84
14, 137039, Note_on_c, 11, 67, 0
14, 137040, Note_on_c, 11, 69, 92
14, 137099, Note_on_c, 11, 69, 0
14, 137100, Note_on_c, 11, 67, 84
14, 137159, Note_on_c, 11, 67, 0
14, 137160, Note_on_c, 11, 65, 84
14, 137219, Note_on_c, 11, 65, 0
14, 137220, Note_on_c, 11, 64, 84
14, 137271, Note_on_c, 11, 64, 0
14, 137280, Note_on_c, 11, 62, 84
14, 137331, Note_on_c, 11, 62, 0
14, 137340, Note_on_c, 11, 62, 84
14, 137391, Note_on_c, 11, 62, 0
14, 137400, Note_on_c, 11, 62, 84
14, 137451, Note_on_c, 11, 62, 0
14, 137460, Note_on_c, 11, 62, 84
14, 137511, Note_on_c, 11, 62, 0
14, 137520, Note_on_c, 11, 60, 92
14, 137571, Note_on_c, 11, 60, 0
14, 137580, Note_on_c, 11, 60, 84
14, 137631, Note_on_c, 11, 60, 0
14, 137640, Note_on_c, 11, 62, 84
14, 137691, Note_on_c, 11, 62, 0
14, 137700, Note_on_c, 11, 62, 84
14, 137751, Note_on_c, 11, 62, 0
14, 137760, Note_on_c, 11, 64, 84
14, 137811, Note_on_c, 11, 64, 0
14, 137820, Note_on_c, 11, 64, 84
14, 137871, Note_on_c, 11, 64, 0
14, 137880, Note_on_c, 11, 64, 84
14, 137931, Note_on_c, 11, 64, 0
14, 137940, Note_on_c, 11, 64, 84
14, 137991, Note_on_c, 11, 64, 0
14, 138000, Note_on_c, 11, 62, 92
14, 138051, Note_on_c, 11, 62, 0
14, 138060, Note_on_c, 11, 62, 84
14, 138111, Note_on_c, 11, 62, 0
14, 138120, Note_on_c, 11, 64, 84
14, 138171, Note_on_c, 11, 64, 0
14, 138180, Note_on_c, 11, 64, 84
14, 138231, Note_on_c, 11, 64, 0
14, 138240, Note_on_c, 11, 62, 84
14, 138291, Note_on_c, 11, 62, 0
14, 138300, Note_on_c, 11, 62, 84
14, 138351, Note_on_c, 11, 62, 0
14, 138360, Note_on_c, 11, 62, 84
14, 138411, Note_on_c, 11, 62, 0
14, 138420, Note_on_c, 11, 62, 84
14, 138471, Note_on_c, 11, 62, 0
14, 138480, Note_on_c, 11, 60, 92
14, 138531, Note_on_c, 11, 60, 0
14, 138540, Note_on_c, 11, 60, 84
14, 138591, Note_on_c, 11, 60, 0
14, 138600, Note_on_c, 11, 62, 84
14, 138651, Note_on_c, 11, 62, 0
14, 138660, Note_on_c, 11, 62, 84
14, 138711, Note_on_c, 11, 62, 0
14, 138720, Note_on_c, 11, 64, 84
14, 138779, Note_on_c, 11, 64, 0
14, 138780, Note_on_c, 11, 65, 84
14, 138839, Note_on_c, 11, 65, 0
14, 138840, Note_on_c, 11, 67, 84
14, 138899, Note_on_c, 11, 67, 0
14, 138900, Note_on_c, 11, 69, 84
14, 138959, Note_on_c, 11, 69, 0
14, 138960, Note_on_c, 11, 71, 84
14, 139019, Note_on_c, 11, 71, 0
14, 139020, Note_on_c, 11, 72, 84
14, 139079, Note_on_c, 11, 72, 0
14, 139080, Note_on_c, 11, 74, 84
14, 139139, Note_on_c, 11, 74, 0
14, 139140, Note_on_c, 11, 76, 84
14, 139191, Note_on_c, 11, 76, 0
14, 139200, Note_on_c, 11, 62, 84
14, 139251, Note_on_c, 11, 62, 0
14, 139260, Note_on_c, 11, 62, 84
14, 139311, Note_on_c, 11, 62, 0
14, 139320, Note_on_c, 11, 62, 84
14, 139371, Note_on_c, 11, 62, 0
14, 139380, Note_on_c, 11, 62, 84
14, 139431, Note_on_c, 11, 62, 0
14, 139440, Note_on_c, 11, 60, 92
14, 139491, Note_on_c, 11, 60, 0
14, 139500, Note_on_c, 11, 60, 84
14, 139551, Note_on_c, 11, 60, 0
14, 139560, Note_on_c, 11, 62, 84
14, 139611, Note_on_c, 11, 62, 0
14, 139620, Note_on_c, 11, 62, 84
14, 139671, Note_on_c, 11, 62, 0
14, 139680, Note_on_c, 11, 64, 84
14, 139731, Note_on_c, 11, 64, 0
14, 139740, Note_on_c, 11, 64, 84
14, 139791, Note_on_c, 11, 64, 0
14, 139800, Note_on_c, 11, 64, 84
14, 139851, Note_on_c, 11, 64, 0
14, 139860, Note_on_c, 11, 64, 84
14, 139911, Note_on_c, 11, 64, 0
14, 139920, Note_on_c, 11, 62, 92
14, 139971, Note_on_c, 11, 62, 0
14, 139980, Note_on_c, 11, 62, 84
14, 140031, Note_on_c, 11, 62, 0
14, 140040, Note_on_c, 11, 64, 84
14, 140091, Note_on_c, 11, 64, 0
14, 140100, Note_on_c, 11, 64, 84
14, 140151, Note_on_c, 11, 64, 0
14, 140160, Note_on_c, 11, 62, 84
14, 140211, Note_on_c, 11, 62, 0
14, 140220, Note_on_c, 11, 62, 84
14, 140271, Note_on_c, 11, 62, 0
14, 140280, Note_on_c, 11, 62, 84
14, 140331, Note_on_c, 11, 62, 0
14, 140340, Note_on_c, 11, 62, 84
14, 140391, Note_on_c, 11, 62, 0
14, 140400, Note_on_c, 11, 60, 92
14, 140451, Note_on_c, 11, 60, 0
14, 140460, Note_on_c, 11, 60, 84
14, 140511, Note_on_c, 11, 60, 0
14, 140520, Note_on_c, 11, 62, 84
14, 140571, Note_on_c, 11, 62, 0
14, 140580, Note_on_c, 11, 62, 84
14, 140631, Note_on_c, 11, 62, 0
14, 140640, Note_on_c, 11, 64, 84
14, 140684, Note_on_c, 11, 64, 0
14, 140700, Note_on_c, 11, 64, 84
14, 140759, Note_on_c, 11, 64, 0
14, 140760, Note_on_c, 11, 65, 84
14, 140819, Note_on_c, 11, 65, 0
14, 140820, Note_on_c, 11, 67, 84
14, 140879, Note_on_c, 11, 67, 0
14, 140880, Note_on_c, 11, 69, 92
14, 140939, Note_on_c, 11, 69, 0
14, 140940, Note_on_c, 11, 67, 84
14, 140999, Note_on_c, 11, 67, 0
14, 141000, Note_on_c, 11, 65, 84
14, 141059, Note_on_c, 11, 65, 0
14, 141060, Note_on_c, 11, 64, 84
14, 141111, Note_on_c, 11, 64, 0
14, 141120, Note_on_c, 11, 62, 84
14, 141171, Note_on_c, 11, 62, 0
14, 141180, Note_on_c, 11, 62, 84
14, 141231, Note_on_c, 11, 62, 0
14, 141240, Note_on_c, 11, 62, 84
14, 141291, Note_on_c, 11, 62, 0
14, 141300, Note_on_c, 11, 62, 84
14, 141351, Note_on_c, 11, 62, 0
14, 141360, Note_on_c, 11, 60, 92
14, 141411, Note_on_c, 11, 60, 0
14, 141420, Note_on_c, 11, 60, 84
14, 141471, Note_on_c, 11, 60, 0
14, 141480, Note_on_c, 11, 62, 84
14, 141531, Note_on_c, 11, 62, 0
14, 141540, Note_on_c, 11, 62, 84
14, 141591, Note_on_c, 11, 62, 0
14, 141600, Note_on_c, 11, 64, 84
14, 141651, Note_on_c, 11, 64, 0
14, 141660, Note_on_c, 11, 64, 84
14, 141711, Note_on_c, 11, 64, 0
14, 141720, Note_on_c, 11, 64, 84
14, 141771, Note_on_c, 11, 64, 0
14, 141780, Note_on_c, 11, 64, 84
14, 141831, Note_on_c, 11, 64, 0
14, 141840, Note_on_c, 11, 62, 92
14, 141891, Note_on_c, 11, 62, 0
14, 141900, Note_on_c, 11, 62, 84
14, 141951, Note_on_c, 11, 62, 0
14, 141960, Note_on_c, 11, 64, 84
14, 142011, Note_on_c, 11, 64, 0
14, 142020, Note_on_c, 11, 64, 84
14, 142071, Note_on_c, 11, 64, 0
14, 142080, Note_on_c, 11, 62, 84
14, 142131, Note_on_c, 11, 62, 0
14, 142140, Note_on_c, 11, 62, 84
14, 142191, Note_on_c, 11, 62, 0
14, 142200, Note_on_c, 11, 62, 84
14, 142251, Note_on_c, 11, 62, 0
14, 142260, Note_on_c, 11, 62, 84
14, 142311, Note_on_c, 11, 62, 0
14, 142320, Note_on_c, 11, 60, 92
14, 142371, Note_on_c, 11, 60, 0
14, 142380, Note_on_c, 11, 60, 84
14, 142431, Note_on_c, 11, 60, 0
14, 142440, Note_on_c, 11, 62, 84
14, 142491, Note_on_c, 11, 62, 0
14, 142500, Note_on_c, 11, 62, 84
14, 142551, Note_on_c, 11, 62, 0
14, 142560, Note_on_c, 11, 64, 84
14, 142619, Note_on_c, 11, 64, 0
14, 142620, Note_on_c, 11, 65, 84
14, 142679, Note_on_c, 11, 65, 0
14, 142680, Note_on_c, 11, 67, 84
14, 142739, Note_on_c, 11, 67, 0
14, 142740, Note_on_c, 11, 65, 84
14, 142799, Note_on_c, 11, 65, 0
14, 142800, Note_on_c, 11, 64, 84
14, 142859, Note_on_c, 11, 64, 0
14, 142860, Note_on_c, 11, 62, 84
14, 142919, Note_on_c, 11, 62, 0
14, 142920, Note_on_c, 11, 60, 84
14, 142979, Note_on_c, 11, 60, 0
14, 142980, Note_on_c, 11, 58, 84
14, 143031, Note_on_c, 11, 58, 0
14, 143040, Note_on_c, 11, 57, 84
14, 143091, Note_on_c, 11, 57, 0
14, 143100, Note_on_c, 11, 69, 84
14, 143151, Note_on_c, 11, 69, 0
14, 143160, Note_on_c, 11, 69, 84
14, 143211, Note_on_c, 11, 69, 0
14, 143220, Note_on_c, 11, 69, 84
14, 143271, Note_on_c, 11, 69, 0
14, 143280, Note_on_c, 11, 68, 92
14, 143331, Note_on_c, 11, 68, 0
14, 143340, Note_on_c, 11, 68, 84
14, 143391, Note_on_c, 11, 68, 0
14, 143400, Note_on_c, 11, 69, 84
14, 143451, Note_on_c, 11, 69, 0
14, 143460, Note_on_c, 11, 69, 84
14, 143511, Note_on_c, 11, 69, 0
14, 143520, Note_on_c, 11, 67, 84
14, 143571, Note_on_c, 11, 67, 0
14, 143580, Note_on_c, 11, 67, 84
14, 143631, Note_on_c, 11, 67, 0
14, 143640, Note_on_c, 11, 67, 84
14, 143691, Note_on_c, 11, 67, 0
14, 143700, Note_on_c, 11, 67, 84
14, 143751, Note_on_c, 11, 67, 0
14, 143760, Note_on_c, 11, 66, 92
14, 143811, Note_on_c, 11, 66, 0
14, 143820, Note_on_c, 11, 66, 84
14, 143871, Note_on_c, 11, 66, 0
14, 143880, Note_on_c, 11, 67, 84
14, 143931, Note_on_c, 11, 67, 0
14, 143940, Note_on_c, 11, 67, 84
14, 143991, Note_on_c, 11, 67, 0
14, 144000, Note_on_c, 11, 69, 84
14, 144051, Note_on_c, 11, 69, 0
14, 144060, Note_on_c, 11, 69, 84
14, 144111, Note_on_c, 11, 69, 0
14, 144120, Note_on_c, 11, 69, 84
14, 144171, Note_on_c, 11, 69, 0
14, 144180, Note_on_c, 11, 69, 84
14, 144231, Note_on_c, 11, 69, 0
14, 144240, Note_on_c, 11, 68, 92
14, 144291, Note_on_c, 11, 68, 0
14, 144300, Note_on_c, 11, 68, 84
14, 144351, Note_on_c, 11, 68, 0
14, 144360, Note_on_c, 11, 69, 84
14, 144411, Note_on_c, 11, 69, 0
14, 144420, Note_on_c, 11, 69, 84
14, 144471, Note_on_c, 11, 69, 0
14, 144480, Note_on_c, 11, 62, 84
14, 144531, Note_on_c, 11, 62, 0
14, 144540, Note_on_c, 11, 62, 84
14, 144591, Note_on_c, 11, 62, 0
14, 144600, Note_on_c, 11, 64, 84
14, 144651, Note_on_c, 11, 64, 0
14, 144660, Note_on_c, 11, 64, 84
14, 144711, Note_on_c, 11, 64, 0
14, 144720, Note_on_c, 11, 61, 92
14, 144771, Note_on_c, 11, 61, 0
14, 144780, Note_on_c, 11, 61, 84
14, 144831, Note_on_c, 11, 61, 0
14, 144840, Note_on_c, 11, 64, 84
14, 144891, Note_on_c, 11, 64, 0
14, 144900, Note_on_c, 11, 64, 84
14, 144951, Note_on_c, 11, 64, 0
14, 144960, Note_on_c, 11, 60, 84
14, 145011, Note_on_c, 11, 60, 0
14, 145020, Note_on_c, 11, 60, 84
14, 145071, Note_on_c, 11, 60, 0
14, 145080, Note_on_c, 11, 62, 84
14, 145080, Note_on_c, 11, 60, 84
14, 145131, Note_on_c, 11, 62, 0
14, 145131, Note_on_c, 11, 60, 0
14, 145140, Note_on_c, 11, 62, 84
14, 145140, Note_on_c, 11, 60, 84
14, 145191, Note_on_c, 11, 62, 0
14, 145191, Note_on_c, 11, 60, 0
14, 145200, Note_on_c, 11, 59, 92
14, 145251, Note_on_c, 11, 59, 0
14, 145260, Note_on_c, 11, 59, 84
14, 145311, Note_on_c, 11, 59, 0
14, 145320, Note_on_c, 11, 62, 84
14, 145371, Note_on_c, 11, 62, 0
14, 145380, Note_on_c, 11, 62, 84
14, 145431, Note_on_c, 11, 62, 0
14, 145440, Note_on_c, 11, 60, 84
14, 145491, Note_on_c, 11, 60, 0
14, 145500, Note_on_c, 11, 60, 84
14, 145551, Note_on_c, 11, 60, 0
14, 145560, Note_on_c, 11, 64, 84
14, 145611, Note_on_c, 11, 64, 0
14, 145620, Note_on_c, 11, 64, 84
14, 145671, Note_on_c, 11, 64, 0
14, 145680, Note_on_c, 11, 60, 92
14, 145731, Note_on_c, 11, 60, 0
14, 145740, Note_on_c, 11, 60, 84
14, 145791, Note_on_c, 11, 60, 0
14, 145800, Note_on_c, 11, 64, 84
14, 145851, Note_on_c, 11, 64, 0
14, 145860, Note_on_c, 11, 64, 84
14, 145911, Note_on_c, 11, 64, 0
14, 145920, Note_on_c, 11, 59, 84
14, 145971, Note_on_c, 11, 59, 0
14, 145980, Note_on_c, 11, 59, 84
14, 146031, Note_on_c, 11, 59, 0
14, 146040, Note_on_c, 11, 62, 84
14, 146091, Note_on_c, 11, 62, 0
14, 146100, Note_on_c, 11, 62, 84
14, 146151, Note_on_c, 11, 62, 0
14, 146160, Note_on_c, 11, 59, 92
14, 146211, Note_on_c, 11, 59, 0
14, 146220, Note_on_c, 11, 59, 84
14, 146271, Note_on_c, 11, 59, 0
14, 146280, Note_on_c, 11, 62, 84
14, 146331, Note_on_c, 11, 62, 0
14, 146340, Note_on_c, 11, 62, 84
14, 146391, Note_on_c, 11, 62, 0
14, 146400, Note_on_c, 11, 60, 84
14, 146459, Note_on_c, 11, 60, 0
14, 146460, Note_on_c, 11, 64, 84
14, 146519, Note_on_c, 11, 64, 0
14, 146520, Note_on_c, 11, 67, 84
14, 146579, Note_on_c, 11, 67, 0
14, 146580, Note_on_c, 11, 65, 84
14, 146639, Note_on_c, 11, 65, 0
14, 146640, Note_on_c, 11, 64, 84
14, 146699, Note_on_c, 11, 64, 0
14, 146700, Note_on_c, 11, 62, 84
14, 146759, Note_on_c, 11, 62, 0
14, 146760, Note_on_c, 11, 60, 84
14, 146819, Note_on_c, 11, 60, 0
14, 146820, Note_on_c, 11, 58, 84
14, 146871, Note_on_c, 11, 58, 0
14, 146880, Note_on_c, 11, 57, 84
14, 146931, Note_on_c, 11, 57, 0
14, 146940, Note_on_c, 11, 69, 84
14, 146991, Note_on_c, 11, 69, 0
14, 147000, Note_on_c, 11, 69, 84
14, 147051, Note_on_c, 11, 69, 0
14, 147060, Note_on_c, 11, 69, 84
14, 147111, Note_on_c, 11, 69, 0
14, 147120, Note_on_c, 11, 68, 92
14, 147171, Note_on_c, 11, 68, 0
14, 147180, Note_on_c, 11, 68, 84
14, 147231, Note_on_c, 11, 68, 0
14, 147240, Note_on_c, 11, 69, 84
14, 147291, Note_on_c, 11, 69, 0
14, 147300, Note_on_c, 11, 69, 84
14, 147351, Note_on_c, 11, 69, 0
14, 147360, Note_on_c, 11, 67, 84
14, 147411, Note_on_c, 11, 67, 0
14, 147420, Note_on_c, 11, 67, 84
14, 147471, Note_on_c, 11, 67, 0
14, 147480, Note_on_c, 11, 67, 84
14, 147531, Note_on_c, 11, 67, 0
14, 147540, Note_on_c, 11, 67, 84
14, 147591, Note_on_c, 11, 67, 0
14, 147600, Note_on_c, 11, 66, 92
14, 147651, Note_on_c, 11, 66, 0
14, 147660, Note_on_c, 11, 66, 84
14, 147711, Note_on_c, 11, 66, 0
14, 147720, Note_on_c, 11, 67, 84
14, 147771, Note_on_c, 11, 67, 0
14, 147780, Note_on_c, 11, 67, 84
14, 147831, Note_on_c, 11, 67, 0
14, 147840, Note_on_c, 11, 69, 84
14, 147891, Note_on_c, 11, 69, 0
14, 147900, Note_on_c, 11, 69, 84
14, 147951, Note_on_c, 11, 69, 0
14, 147960, Note_on_c, 11, 69, 84
14, 148011, Note_on_c, 11, 69, 0
14, 148020, Note_on_c, 11, 69, 84
14, 148071, Note_on_c, 11, 69, 0
14, 148080, Note_on_c, 11, 68, 92
14, 148131, Note_on_c, 11, 68, 0
14, 148140, Note_on_c, 11, 68, 84
14, 148191, Note_on_c, 11, 68, 0
14, 148200, Note_on_c, 11, 69, 84
14, 148251, Note_on_c, 11, 69, 0
14, 148260, Note_on_c, 11, 69, 84
14, 148311, Note_on_c, 11, 69, 0
14, 148320, Note_on_c, 11, 62, 84
14, 148371, Note_on_c, 11, 62, 0
14, 148380, Note_on_c, 11, 62, 84
14, 148431, Note_on_c, 11, 62, 0
14, 148440, Note_on_c, 11, 64, 84
14, 148491, Note_on_c, 11, 64, 0
14, 148500, Note_on_c, 11, 64, 84
14, 148551, Note_on_c, 11, 64, 0
14, 148560, Note_on_c, 11, 61, 92
14, 148611, Note_on_c, 11, 61, 0
14, 148620, Note_on_c, 11, 61, 84
14, 148671, Note_on_c, 11, 61, 0
14, 148680, Note_on_c, 11, 64, 84
14, 148731, Note_on_c, 11, 64, 0
14, 148740, Note_on_c, 11, 64, 84
14, 148791, Note_on_c, 11, 64, 0
14, 148800, Note_on_c, 11, 60, 84
14, 148851, Note_on_c, 11, 60, 0
14, 148860, Note_on_c, 11, 60, 84
14, 148911, Note_on_c, 11, 60, 0
14, 148920, Note_on_c, 11, 62, 84
14, 148920, Note_on_c, 11, 60, 84
14, 148971, Note_on_c, 11, 62, 0
14, 148971, Note_on_c, 11, 60, 0
14, 148980, Note_on_c, 11, 62, 84
14, 148980, Note_on_c, 11, 60, 84
14, 149031, Note_on_c, 11, 62, 0
14, 149031, Note_on_c, 11, 60, 0
14, 149040, Note_on_c, 11, 59, 92
14, 149091, Note_on_c, 11, 59, 0
14, 149100, Note_on_c, 11, 59, 84
14, 149151, Note_on_c, 11, 59, 0
14, 149160, Note_on_c, 11, 62, 84
14, 149211, Note_on_c, 11, 62, 0
14, 149220, Note_on_c, 11, 62, 84
14, 149271, Note_on_c, 11, 62, 0
14, 149280, Note_on_c, 11, 60, 84
14, 149331, Note_on_c, 11, 60, 0
14, 149340, Note_on_c, 11, 60, 84
14, 149391, Note_on_c, 11, 60, 0
14, 149400, Note_on_c, 11, 64, 84
14, 149451, Note_on_c, 11, 64, 0
14, 149460, Note_on_c, 11, 64, 84
14, 149511, Note_on_c, 11, 64, 0
14, 149520, Note_on_c, 11, 60, 92
14, 149571, Note_on_c, 11, 60, 0
14, 149580, Note_on_c, 11, 60, 84
14, 149631, Note_on_c, 11, 60, 0
14, 149640, Note_on_c, 11, 64, 84
14, 149691, Note_on_c, 11, 64, 0
14, 149700, Note_on_c, 11, 64, 84
14, 149751, Note_on_c, 11, 64, 0
14, 149760, Note_on_c, 11, 59, 84
14, 149811, Note_on_c, 11, 59, 0
14, 149820, Note_on_c, 11, 59, 84
14, 149871, Note_on_c, 11, 59, 0
14, 149880, Note_on_c, 11, 62, 84
14, 149931, Note_on_c, 11, 62, 0
14, 149940, Note_on_c, 11, 62, 84
14, 149991, Note_on_c, 11, 62, 0
14, 150000, Note_on_c, 11, 59, 92
14, 150051, Note_on_c, 11, 59, 0
14, 150060, Note_on_c, 11, 59, 84
14, 150111, Note_on_c, 11, 59, 0
14, 150120, Note_on_c, 11, 62, 84
14, 150171, Note_on_c, 11, 62, 0
14, 150180, Note_on_c, 11, 62, 84
14, 150231, Note_on_c, 11, 62, 0
14, 150240, Note_on_c, 11, 60, 84
14, 150291, Note_on_c, 11, 60, 0
14, 150300, Note_on_c, 11, 64, 84
14, 150351, Note_on_c, 11, 64, 0
14, 150360, Note_on_c, 11, 67, 84
14, 150411, Note_on_c, 11, 67, 0
14, 150420, Note_on_c, 11, 67, 84
14, 150471, Note_on_c, 11, 67, 0
14, 150480, Note_on_c, 11, 64, 84
14, 150531, Note_on_c, 11, 64, 0
14, 150540, Note_on_c, 11, 64, 84
14, 150591, Note_on_c, 11, 64, 0
14, 150600, Note_on_c, 11, 69, 84
14, 150651, Note_on_c, 11, 69, 0
14, 150660, Note_on_c, 11, 69, 84
14, 150711, Note_on_c, 11, 69, 0
14, 150720, Note_on_c, 11, 65, 84
14, 150771, Note_on_c, 11, 65, 0
14, 150780, Note_on_c, 11, 65, 84
14, 150831, Note_on_c, 11, 65, 0
14, 150840, Note_on_c, 11, 69, 84
14, 150891, Note_on_c, 11, 69, 0
14, 150900, Note_on_c, 11, 69, 84
14, 150951, Note_on_c, 11, 69, 0
14, 150960, Note_on_c, 11, 62, 84
14, 151011, Note_on_c, 11, 62, 0
14, 151020, Note_on_c, 11, 62, 84
14, 151071, Note_on_c, 11, 62, 0
14, 151080, Note_on_c, 11, 67, 84
14, 151131, Note_on_c, 11, 67, 0
14, 151140, Note_on_c, 11, 67, 84
14, 151191, Note_on_c, 11, 67, 0
14, 151200, Note_on_c, 11, 64, 84
14, 151251, Note_on_c, 11, 64, 0
14, 151260, Note_on_c, 11, 64, 84
14, 151311, Note_on_c, 11, 64, 0
14, 151320, Note_on_c, 11, 67, 84
14, 151371, Note_on_c, 11, 67, 0
14, 151380, Note_on_c, 11, 67, 84
14, 151431, Note_on_c, 11, 67, 0
14, 151440, Note_on_c, 11, 64, 84
14, 151491, Note_on_c, 11, 64, 0
14, 151500, Note_on_c, 11, 64, 84
14, 151551, Note_on_c, 11, 64, 0
14, 151560, Note_on_c, 11, 72, 84
14, 151611, Note_on_c, 11, 72, 0
14, 151620, Note_on_c, 11, 72, 84
14, 151671, Note_on_c, 11, 72, 0
14, 151680, Note_on_c, 11, 64, 84
14, 151731, Note_on_c, 11, 64, 0
14, 151740, Note_on_c, 11, 64, 84
14, 151791, Note_on_c, 11, 64, 0
14, 151800, Note_on_c, 11, 67, 84
14, 151851, Note_on_c, 11, 67, 0
14, 151860, Note_on_c, 11, 67, 84
14, 151911, Note_on_c, 11, 67, 0
14, 151920, Note_on_c, 11, 65, 84
14, 151971, Note_on_c, 11, 65, 0
14, 151980, Note_on_c, 11, 65, 84
14, 152031, Note_on_c, 11, 65, 0
14, 152040, Note_on_c, 11, 67, 84
14, 152091, Note_on_c, 11, 67, 0
14, 152100, Note_on_c, 11, 67, 84
14, 152151, Note_on_c, 11, 67, 0
14, 152160, Note_on_c, 11, 64, 84
14, 152211, Note_on_c, 11, 64, 0
14, 152220, Note_on_c, 11, 64, 84
14, 152271, Note_on_c, 11, 64, 0
14, 152280, Note_on_c, 11, 67, 84
14, 152331, Note_on_c, 11, 67, 0
14, 152340, Note_on_c, 11, 67, 84
14, 152391, Note_on_c, 11, 67, 0
14, 152400, Note_on_c, 11, 64, 84
14, 152451, Note_on_c, 11, 64, 0
14, 152460, Note_on_c, 11, 64, 84
14, 152511, Note_on_c, 11, 64, 0
14, 152520, Note_on_c, 11, 67, 84
14, 152571, Note_on_c, 11, 67, 0
14, 152580, Note_on_c, 11, 67, 84
14, 152631, Note_on_c, 11, 67, 0
14, 152640, Note_on_c, 11, 65, 84
14, 152691, Note_on_c, 11, 65, 0
14, 152700, Note_on_c, 11, 65, 84
14, 152751, Note_on_c, 11, 65, 0
14, 152760, Note_on_c, 11, 69, 84
14, 152811, Note_on_c, 11, 69, 0
14, 152820, Note_on_c, 11, 69, 84
14, 152871, Note_on_c, 11, 69, 0
14, 152880, Note_on_c, 11, 65, 84
14, 152931, Note_on_c, 11, 65, 0
14, 152940, Note_on_c, 11, 65, 84
14, 152991, Note_on_c, 11, 65, 0
14, 153000, Note_on_c, 11, 69, 84
14, 153051, Note_on_c, 11, 69, 0
14, 153060, Note_on_c, 11, 69, 84
14, 153111, Note_on_c, 11, 69, 0
14, 153120, Note_on_c, 11, 65, 84
14, 153171, Note_on_c, 11, 65, 0
14, 153180, Note_on_c, 11, 65, 84
14, 153231, Note_on_c, 11, 65, 0
14, 153240, Note_on_c, 11, 67, 84
14, 153291, Note_on_c, 11, 67, 0
14, 153300, Note_on_c, 11, 67, 84
14, 153351, Note_on_c, 11, 67, 0
14, 153360, Note_on_c, 11, 62, 84
14, 153411, Note_on_c, 11, 62, 0
14, 153420, Note_on_c, 11, 62, 84
14, 153471, Note_on_c, 11, 62, 0
14, 153480, Note_on_c, 11, 67, 84
14, 153531, Note_on_c, 11, 67, 0
14, 153540, Note_on_c, 11, 67, 84
14, 153591, Note_on_c, 11, 67, 0
14, 153600, Note_on_c, 11, 64, 84
14, 153651, Note_on_c, 11, 64, 0
14, 153660, Note_on_c, 11, 64, 84
14, 153711, Note_on_c, 11, 64, 0
14, 153720, Note_on_c, 11, 67, 84
14, 153771, Note_on_c, 11, 67, 0
14, 153780, Note_on_c, 11, 67, 84
14, 153831, Note_on_c, 11, 67, 0
14, 153840, Note_on_c, 11, 64, 84
14, 153891, Note_on_c, 11, 64, 0
14, 153900, Note_on_c, 11, 64, 84
14, 153951, Note_on_c, 11, 64, 0
14, 153960, Note_on_c, 11, 67, 84
14, 154011, Note_on_c, 11, 67, 0
14, 154020, Note_on_c, 11, 67, 84
14, 154071, Note_on_c, 11, 67, 0
14, 154080, Note_on_c, 11, 65, 84
14, 154131, Note_on_c, 11, 65, 0
14, 154140, Note_on_c, 11, 65, 84
14, 154191, Note_on_c, 11, 65, 0
14, 154200, Note_on_c, 11, 69, 84
14, 154251, Note_on_c, 11, 69, 0
14, 154260, Note_on_c, 11, 69, 84
14, 154311, Note_on_c, 11, 69, 0
14, 154320, Note_on_c, 11, 65, 84
14, 154371, Note_on_c, 11, 65, 0
14, 154380, Note_on_c, 11, 65, 84
14, 154431, Note_on_c, 11, 65, 0
14, 154440, Note_on_c, 11, 69, 84
14, 154491, Note_on_c, 11, 69, 0
14, 154500, Note_on_c, 11, 69, 84
14, 154551, Note_on_c, 11, 69, 0
14, 154560, Note_on_c, 11, 65, 84
14, 154611, Note_on_c, 11, 65, 0
14, 154620, Note_on_c, 11, 65, 84
14, 154671, Note_on_c, 11, 65, 0
14, 154680, Note_on_c, 11, 69, 84
14, 154731, Note_on_c, 11, 69, 0
14, 154740, Note_on_c, 11, 69, 84
14, 154791, Note_on_c, 11, 69, 0
14, 154800, Note_on_c, 11, 65, 84
14, 154851, Note_on_c, 11, 65, 0
14, 154860, Note_on_c, 11, 65, 84
14, 154911, Note_on_c, 11, 65, 0
14, 154920, Note_on_c, 11, 69, 84
14, 154971, Note_on_c, 11, 69, 0
14, 154980, Note_on_c, 11, 69, 84
14, 155031, Note_on_c, 11, 69, 0
14, 155040, Note_on_c, 11, 64, 84
14, 155091, Note_on_c, 11, 64, 0
14, 155100, Note_on_c, 11, 64, 84
14, 155151, Note_on_c, 11, 64, 0
14, 155160, Note_on_c, 11, 70, 84
14, 155211, Note_on_c, 11, 70, 0
14, 155220, Note_on_c, 11, 70, 84
14, 155271, Note_on_c, 11, 70, 0
14, 155280, Note_on_c, 11, 58, 84
14, 155331, Note_on_c, 11, 58, 0
14, 155340, Note_on_c, 11, 58, 84
14, 155391, Note_on_c, 11, 58, 0
14, 155400, Note_on_c, 11, 64, 84
14, 155451, Note_on_c, 11, 64, 0
14, 155460, Note_on_c, 11, 64, 84
14, 155511, Note_on_c, 11, 64, 0
14, 155520, Note_on_c, 11, 61, 84
14, 155571, Note_on_c, 11, 61, 0
14, 155580, Note_on_c, 11, 61, 84
14, 155631, Note_on_c, 11, 61, 0
14, 155640, Note_on_c, 11, 64, 84
14, 155691, Note_on_c, 11, 64, 0
14, 155700, Note_on_c, 11, 64, 84
14, 155751, Note_on_c, 11, 64, 0
14, 155760, Note_on_c, 11, 64, 84
14, 155811, Note_on_c, 11, 64, 0
14, 155820, Note_on_c, 11, 64, 84
14, 155871, Note_on_c, 11, 64, 0
14, 155880, Note_on_c, 11, 67, 84
14, 155931, Note_on_c, 11, 67, 0
14, 155940, Note_on_c, 11, 67, 84
14, 155991, Note_on_c, 11, 67, 0
14, 156000, Note_on_c, 11, 62, 84
14, 156051, Note_on_c, 11, 62, 0
14, 156060, Note_on_c, 11, 62, 84
14, 156111, Note_on_c, 11, 62, 0
14, 156120, Note_on_c, 11, 65, 84
14, 156171, Note_on_c, 11, 65, 0
14, 156180, Note_on_c, 11, 65, 84
14, 156231, Note_on_c, 11, 65, 0
14, 156240, Note_on_c, 11, 62, 84
14, 156291, Note_on_c, 11, 62, 0
14, 156300, Note_on_c, 11, 62, 84
14, 156351, Note_on_c, 11, 62, 0
14, 156360, Note_on_c, 11, 65, 84
14, 156411, Note_on_c, 11, 65, 0
14, 156420, Note_on_c, 11, 65, 84
14, 156471, Note_on_c, 11, 65, 0
14, 156480, Note_on_c, 11, 62, 84
14, 156531, Note_on_c, 11, 62, 0
14, 156540, Note_on_c, 11, 62, 84
14, 156591, Note_on_c, 11, 62, 0
14, 156600, Note_on_c, 11, 65, 84
14, 156651, Note_on_c, 11, 65, 0
14, 156660, Note_on_c, 11, 65, 84
14, 156711, Note_on_c, 11, 65, 0
14, 156720, Note_on_c, 11, 62, 84
14, 156771, Note_on_c, 11, 62, 0
14, 156780, Note_on_c, 11, 62, 84
14, 156831, Note_on_c, 11, 62, 0
14, 156840, Note_on_c, 11, 65, 84
14, 156891, Note_on_c, 11, 65, 0
14, 156900, Note_on_c, 11, 65, 84
14, 156951, Note_on_c, 11, 65, 0
14, 156960, Note_on_c, 11, 62, 84
14, 157011, Note_on_c, 11, 62, 0
14, 157020, Note_on_c, 11, 62, 84
14, 157071, Note_on_c, 11, 62, 0
14, 157080, Note_on_c, 11, 65, 84
14, 157131, Note_on_c, 11, 65, 0
14, 157140, Note_on_c, 11, 65, 84
14, 157191, Note_on_c, 11, 65, 0
14, 157200, Note_on_c, 11, 62, 84
14, 157251, Note_on_c, 11, 62, 0
14, 157260, Note_on_c, 11, 62, 84
14, 157311, Note_on_c, 11, 62, 0
14, 157320, Note_on_c, 11, 65, 84
14, 157371, Note_on_c, 11, 65, 0
14, 157380, Note_on_c, 11, 65, 84
14, 157431, Note_on_c, 11, 65, 0
14, 157440, Note_on_c, 11, 62, 84
14, 157491, Note_on_c, 11, 62, 0
14, 157500, Note_on_c, 11, 62, 84
14, 157551, Note_on_c, 11, 62, 0
14, 157560, Note_on_c, 11, 65, 84
14, 157611, Note_on_c, 11, 65, 0
14, 157620, Note_on_c, 11, 65, 84
14, 157671, Note_on_c, 11, 65, 0
14, 157680, Note_on_c, 11, 62, 84
14, 157731, Note_on_c, 11, 62, 0
14, 157740, Note_on_c, 11, 62, 84
14, 157791, Note_on_c, 11, 62, 0
14, 157800, Note_on_c, 11, 65, 84
14, 157851, Note_on_c, 11, 65, 0
14, 157860, Note_on_c, 11, 65, 84
14, 157911, Note_on_c, 11, 65, 0
14, 157920, Note_on_c, 11, 62, 84
14, 157971, Note_on_c, 11, 62, 0
14, 157980, Note_on_c, 11, 62, 84
14, 158031, Note_on_c, 11, 62, 0
14, 158040, Note_on_c, 11, 65, 84
14, 158091, Note_on_c, 11, 65, 0
14, 158100, Note_on_c, 11, 65, 84
14, 158151, Note_on_c, 11, 65, 0
14, 158160, Note_on_c, 11, 62, 84
14, 158211, Note_on_c, 11, 62, 0
14, 158220, Note_on_c, 11, 62, 84
14, 158271, Note_on_c, 11, 62, 0
14, 158280, Note_on_c, 11, 65, 84
14, 158331, Note_on_c, 11, 65, 0
14, 158340, Note_on_c, 11, 65, 84
14, 158391, Note_on_c, 11, 65, 0
14, 158400, Note_on_c, 11, 62, 84
14, 158451, Note_on_c, 11, 62, 0
14, 158460, Note_on_c, 11, 62, 84
14, 158511, Note_on_c, 11, 62, 0
14, 158520, Note_on_c, 11, 65, 84
14, 158571, Note_on_c, 11, 65, 0
14, 158580, Note_on_c, 11, 65, 84
14, 158631, Note_on_c, 11, 65, 0
14, 158640, Note_on_c, 11, 65, 84
14, 158691, Note_on_c, 11, 65, 0
14, 158700, Note_on_c, 11, 65, 84
14, 158751, Note_on_c, 11, 65, 0
14, 158760, Note_on_c, 11, 69, 84
14, 158811, Note_on_c, 11, 69, 0
14, 158820, Note_on_c, 11, 69, 84
14, 158871, Note_on_c, 11, 69, 0
14, 158880, Note_on_c, 11, 69, 84
14, 158931, Note_on_c, 11, 69, 0
14, 158940, Note_on_c, 11, 69, 84
14, 158991, Note_on_c, 11, 69, 0
14, 159000, Note_on_c, 11, 69, 84
14, 159051, Note_on_c, 11, 69, 0
14, 159060, Note_on_c, 11, 69, 84
14, 159111, Note_on_c, 11, 69, 0
14, 159120, Note_on_c, 11, 65, 84
14, 159171, Note_on_c, 11, 65, 0
14, 159180, Note_on_c, 11, 65, 84
14, 159231, Note_on_c, 11, 65, 0
14, 159240, Note_on_c, 11, 69, 84
14, 159291, Note_on_c, 11, 69, 0
14, 159300, Note_on_c, 11, 69, 84
14, 159351, Note_on_c, 11, 69, 0
14, 159360, Note_on_c, 11, 69, 84
14, 159411, Note_on_c, 11, 69, 0
14, 159420, Note_on_c, 11, 69, 84
14, 159471, Note_on_c, 11, 69, 0
14, 159480, Note_on_c, 11, 69, 84
14, 159531, Note_on_c, 11, 69, 0
14, 159540, Note_on_c, 11, 69, 84
14, 159591, Note_on_c, 11, 69, 0
14, 159600, Note_on_c, 11, 66, 84
14, 159651, Note_on_c, 11, 66, 0
14, 159660, Note_on_c, 11, 66, 84
14, 159711, Note_on_c, 11, 66, 0
14, 159720, Note_on_c, 11, 69, 84
14, 159771, Note_on_c, 11, 69, 0
14, 159780, Note_on_c, 11, 69, 84
14, 159831, Note_on_c, 11, 69, 0
14, 159840, Note_on_c, 11, 69, 84
14, 159891, Note_on_c, 11, 69, 0
14, 159900, Note_on_c, 11, 69, 84
14, 159951, Note_on_c, 11, 69, 0
14, 159960, Note_on_c, 11, 69, 84
14, 160011, Note_on_c, 11, 69, 0
14, 160020, Note_on_c, 11, 69, 84
14, 160071, Note_on_c, 11, 69, 0
14, 160080, Note_on_c, 11, 66, 84
14, 160131, Note_on_c, 11, 66, 0
14, 160140, Note_on_c, 11, 66, 84
14, 160191, Note_on_c, 11, 66, 0
14, 160200, Note_on_c, 11, 70, 84
14, 160251, Note_on_c, 11, 70, 0
14, 160260, Note_on_c, 11, 70, 84
14, 160311, Note_on_c, 11, 70, 0
14, 160320, Note_on_c, 11, 70, 84
14, 160371, Note_on_c, 11, 70, 0
14, 160380, Note_on_c, 11, 70, 84
14, 160431, Note_on_c, 11, 70, 0
14, 160440, Note_on_c, 11, 70, 84
14, 160491, Note_on_c, 11, 70, 0
14, 160500, Note_on_c, 11, 70, 84
14, 160551, Note_on_c, 11, 70, 0
14, 160560, Note_on_c, 11, 67, 84
14, 160611, Note_on_c, 11, 67, 0
14, 160620, Note_on_c, 11, 67, 84
14, 160671, Note_on_c, 11, 67, 0
14, 160680, Note_on_c, 11, 70, 84
14, 160731, Note_on_c, 11, 70, 0
14, 160740, Note_on_c, 11, 70, 84
14, 160791, Note_on_c, 11, 70, 0
14, 160800, Note_on_c, 11, 70, 84
14, 160851, Note_on_c, 11, 70, 0
14, 160860, Note_on_c, 11, 70, 84
14, 160911, Note_on_c, 11, 70, 0
14, 160920, Note_on_c, 11, 70, 84
14, 160971, Note_on_c, 11, 70, 0
14, 160980, Note_on_c, 11, 70, 84
14, 161031, Note_on_c, 11, 70, 0
14, 161040, Note_on_c, 11, 67, 84
14, 161091, Note_on_c, 11, 67, 0
14, 161100, Note_on_c, 11, 67, 84
14, 161151, Note_on_c, 11, 67, 0
14, 161160, Note_on_c, 11, 71, 84
14, 161211, Note_on_c, 11, 71, 0
14, 161220, Note_on_c, 11, 71, 84
14, 161271, Note_on_c, 11, 71, 0
14, 161280, Note_on_c, 11, 71, 84
14, 161331, Note_on_c, 11, 71, 0
14, 161340, Note_on_c, 11, 71, 84
14, 161391, Note_on_c, 11, 71, 0
14, 161400, Note_on_c, 11, 71, 84
14, 161451, Note_on_c, 11, 71, 0
14, 161460, Note_on_c, 11, 71, 84
14, 161511, Note_on_c, 11, 71, 0
14, 161520, Note_on_c, 11, 68, 84
14, 161571, Note_on_c, 11, 68, 0
14, 161580, Note_on_c, 11, 68, 84
14, 161631, Note_on_c, 11, 68, 0
14, 161640, Note_on_c, 11, 71, 84
14, 161691, Note_on_c, 11, 71, 0
14, 161700, Note_on_c, 11, 71, 84
14, 161751, Note_on_c, 11, 71, 0
14, 161760, Note_on_c, 11, 71, 84
14, 161811, Note_on_c, 11, 71, 0
14, 161820, Note_on_c, 11, 71, 84
14, 161871, Note_on_c, 11, 71, 0
14, 161880, Note_on_c, 11, 71, 84
14, 161931, Note_on_c, 11, 71, 0
14, 161940, Note_on_c, 11, 71, 84
14, 161991, Note_on_c, 11, 71, 0
14, 162000, Note_on_c, 11, 68, 84
14, 162051, Note_on_c, 11, 68, 0
14, 162060, Note_on_c, 11, 68, 84
14, 162111, Note_on_c, 11, 68, 0
14, 162120, Note_on_c, 11, 72, 84
14, 162171, Note_on_c, 11, 72, 0
14, 162180, Note_on_c, 11, 72, 84
14, 162231, Note_on_c, 11, 72, 0
14, 162240, Note_on_c, 11, 72, 84
14, 162291, Note_on_c, 11, 72, 0
14, 162300, Note_on_c, 11, 72, 84
14, 162351, Note_on_c, 11, 72, 0
14, 162360, Note_on_c, 11, 72, 84
14, 162411, Note_on_c, 11, 72, 0
14, 162420, Note_on_c, 11, 72, 84
14, 162471, Note_on_c, 11, 72, 0
14, 162480, Note_on_c, 11, 69, 84
14, 162531, Note_on_c, 11, 69, 0
14, 162540, Note_on_c, 11, 69, 84
14, 162591, Note_on_c, 11, 69, 0
14, 162600, Note_on_c, 11, 73, 84
14, 162651, Note_on_c, 11, 73, 0
14, 162660, Note_on_c, 11, 73, 84
14, 162711, Note_on_c, 11, 73, 0
14, 162720, Note_on_c, 11, 73, 84
14, 162771, Note_on_c, 11, 73, 0
14, 162780, Note_on_c, 11, 73, 84
14, 162831, Note_on_c, 11, 73, 0
14, 162840, Note_on_c, 11, 73, 84
14, 162891, Note_on_c, 11, 73, 0
14, 162900, Note_on_c, 11, 73, 84
14, 162951, Note_on_c, 11, 73, 0
14, 162960, Note_on_c, 11, 70, 84
14, 163011, Note_on_c, 11, 70, 0
14, 163020, Note_on_c, 11, 70, 84
14, 163071, Note_on_c, 11, 70, 0
14, 163080, Note_on_c, 11, 74, 84
14, 163131, Note_on_c, 11, 74, 0
14, 163140, Note_on_c, 11, 74, 84
14, 163191, Note_on_c, 11, 74, 0
14, 163200, Note_on_c, 11, 74, 84
14, 163251, Note_on_c, 11, 74, 0
14, 163260, Note_on_c, 11, 74, 84
14, 163311, Note_on_c, 11, 74, 0
14, 163320, Note_on_c, 11, 74, 84
14, 163371, Note_on_c, 11, 74, 0
14, 163380, Note_on_c, 11, 74, 84
14, 163431, Note_on_c, 11, 74, 0
14, 163440, Note_on_c, 11, 71, 84
14, 163491, Note_on_c, 11, 71, 0
14, 163500, Note_on_c, 11, 71, 84
14, 163551, Note_on_c, 11, 71, 0
14, 163560, Note_on_c, 11, 75, 84
14, 163611, Note_on_c, 11, 75, 0
14, 163620, Note_on_c, 11, 75, 84
14, 163671, Note_on_c, 11, 75, 0
14, 163680, Note_on_c, 11, 75, 84
14, 163731, Note_on_c, 11, 75, 0
14, 163740, Note_on_c, 11, 75, 84
14, 163791, Note_on_c, 11, 75, 0
14, 163800, Note_on_c, 11, 75, 84
14, 163851, Note_on_c, 11, 75, 0
14, 163860, Note_on_c, 11, 75, 84
14, 163911, Note_on_c, 11, 75, 0
14, 163920, Note_on_c, 11, 72, 84
14, 163971, Note_on_c, 11, 72, 0
14, 163980, Note_on_c, 11, 72, 84
14, 164031, Note_on_c, 11, 72, 0
14, 164040, Note_on_c, 11, 76, 84
14, 164091, Note_on_c, 11, 76, 0
14, 164100, Note_on_c, 11, 76, 84
14, 164151, Note_on_c, 11, 76, 0
14, 164160, Note_on_c, 11, 76, 84
14, 164211, Note_on_c, 11, 76, 0
14, 164220, Note_on_c, 11, 76, 84
14, 164271, Note_on_c, 11, 76, 0
14, 164280, Note_on_c, 11, 76, 84
14, 164331, Note_on_c, 11, 76, 0
14, 164340, Note_on_c, 11, 76, 84
14, 164391, Note_on_c, 11, 76, 0
14, 164400, Note_on_c, 11, 73, 84
14, 164451, Note_on_c, 11, 73, 0
14, 164460, Note_on_c, 11, 73, 84
14, 164511, Note_on_c, 11, 73, 0
14, 164520, Note_on_c, 11, 76, 84
14, 164571, Note_on_c, 11, 76, 0
14, 164580, Note_on_c, 11, 76, 84
14, 164631, Note_on_c, 11, 76, 0
14, 164640, Note_on_c, 11, 76, 84
14, 164691, Note_on_c, 11, 76, 0
14, 164700, Note_on_c, 11, 76, 84
14, 164751, Note_on_c, 11, 76, 0
14, 164760, Note_on_c, 11, 76, 84
14, 164811, Note_on_c, 11, 76, 0
14, 164820, Note_on_c, 11, 76, 84
14, 164871, Note_on_c, 11, 76, 0
14, 164880, Note_on_c, 11, 74, 84
14, 164931, Note_on_c, 11, 74, 0
14, 164940, Note_on_c, 11, 74, 84
14, 164991, Note_on_c, 11, 74, 0
14, 165000, Note_on_c, 11, 76, 84
14, 165051, Note_on_c, 11, 76, 0
14, 165060, Note_on_c, 11, 76, 84
14, 165111, Note_on_c, 11, 76, 0
14, 165120, Note_on_c, 11, 76, 84
14, 165171, Note_on_c, 11, 76, 0
14, 165180, Note_on_c, 11, 76, 84
14, 165231, Note_on_c, 11, 76, 0
14, 165240, Note_on_c, 11, 76, 84
14, 165291, Note_on_c, 11, 76, 0
14, 165300, Note_on_c, 11, 76, 84
14, 165351, Note_on_c, 11, 76, 0
14, 165360, Note_on_c, 11, 75, 84
14, 165411, Note_on_c, 11, 75, 0
14, 165420, Note_on_c, 11, 75, 84
14, 165471, Note_on_c, 11, 75, 0
14, 165480, Note_on_c, 11, 76, 84
14, 165531, Note_on_c, 11, 76, 0
14, 165540, Note_on_c, 11, 76, 84
14, 165591, Note_on_c, 11, 76, 0
14, 165600, Note_on_c, 11, 76, 84
14, 165651, Note_on_c, 11, 76, 0
14, 165660, Note_on_c, 11, 76, 84
14, 165711, Note_on_c, 11, 76, 0
14, 165720, Note_on_c, 11, 76, 84
14, 165771, Note_on_c, 11, 76, 0
14, 165780, Note_on_c, 11, 76, 84
14, 165831, Note_on_c, 11, 76, 0
14, 165840, Note_on_c, 11, 75, 84
14, 165891, Note_on_c, 11, 75, 0
14, 165900, Note_on_c, 11, 75, 84
14, 165951, Note_on_c, 11, 75, 0
14, 165960, Note_on_c, 11, 76, 84
14, 166011, Note_on_c, 11, 76, 0
14, 166020, Note_on_c, 11, 76, 84
14, 166071, Note_on_c, 11, 76, 0
14, 166080, Note_on_c, 11, 76, 84
14, 166131, Note_on_c, 11, 76, 0
14, 166140, Note_on_c, 11, 64, 83
14, 166191, Note_on_c, 11, 64, 0
14, 166200, Note_on_c, 11, 64, 82
14, 166251, Note_on_c, 11, 64, 0
14, 166260, Note_on_c, 11, 64, 81
14, 166311, Note_on_c, 11, 64, 0
14, 166320, Note_on_c, 11, 63, 79
14, 166371, Note_on_c, 11, 63, 0
14, 166380, Note_on_c, 11, 63, 78
14, 166431, Note_on_c, 11, 63, 0
14, 166440, Note_on_c, 11, 64, 77
14, 166491, Note_on_c, 11, 64, 0
14, 166500, Note_on_c, 11, 64, 76
14, 166551, Note_on_c, 11, 64, 0
14, 166560, Note_on_c, 11, 64, 74
14, 166611, Note_on_c, 11, 64, 0
14, 166620, Note_on_c, 11, 64, 73
14, 166671, Note_on_c, 11, 64, 0
14, 166680, Note_on_c, 11, 64, 72
14, 166731, Note_on_c, 11, 64, 0
14, 166740, Note_on_c, 11, 64, 71
14, 166791, Note_on_c, 11, 64, 0
14, 166800, Note_on_c, 11, 63, 69
14, 166851, Note_on_c, 11, 63, 0
14, 166860, Note_on_c, 11, 63, 68
14, 166911, Note_on_c, 11, 63, 0
14, 166920, Note_on_c, 11, 64, 67
14, 166971, Note_on_c, 11, 64, 0
14, 166980, Note_on_c, 11, 64, 66
14, 167031, Note_on_c, 11, 64, 0
14, 167040, Note_on_c, 11, 64, 64
14, 167091, Note_on_c, 11, 64, 0
14, 167100, Note_on_c, 11, 64, 63
14, 167151, Note_on_c, 11, 64, 0
14, 167160, Note_on_c, 11, 64, 62
14, 167211, Note_on_c, 11, 64, 0
14, 167220, Note_on_c, 11, 64, 61
14, 167271, Note_on_c, 11, 64, 0
14, 167280, Note_on_c, 11, 63, 59
14, 167331, Note_on_c, 11, 63, 0
14, 167340, Note_on_c, 11, 63, 58
14, 167391, Note_on_c, 11, 63, 0
14, 167400, Note_on_c, 11, 64, 57
14, 167451, Note_on_c, 11, 64, 0
14, 167460, Note_on_c, 11, 64, 56
14, 167511, Note_on_c, 11, 64, 0
14, 167520, Note_on_c, 11, 64, 54
14, 167571, Note_on_c, 11, 64, 0
14, 167580, Note_on_c, 11, 64, 53
14, 167631, Note_on_c, 11, 64, 0
14, 167640, Note_on_c, 11, 64, 52
14, 167691, Note_on_c, 11, 64, 0
14, 167700, Note_on_c, 11, 64, 51
14, 167751, Note_on_c, 11, 64, 0
14, 167760, Note_on_c, 11, 63, 49
14, 167811, Note_on_c, 11, 63, 0
14, 167820, Note_on_c, 11, 63, 48
14, 167871, Note_on_c, 11, 63, 0
14, 167880, Note_on_c, 11, 64, 47
14, 167931, Note_on_c, 11, 64, 0
14, 167940, Note_on_c, 11, 64, 46
14, 167991, Note_on_c, 11, 64, 0
14, 168000, Note_on_c, 11, 65, 44
14, 168104, Note_on_c, 11, 65, 0
14, 168120, Note_on_c, 11, 57, 44
14, 168171, Note_on_c, 11, 57, 0
14, 168180, Note_on_c, 11, 57, 44
14, 168231, Note_on_c, 11, 57, 0
14, 168240, Note_on_c, 11, 57, 44
14, 168359, Note_on_c, 11, 57, 0
14, 169080, Note_on_c, 11, 57, 44
14, 169184, Note_on_c, 11, 57, 0
14, 169200, Note_on_c, 11, 57, 44
14, 169251, Note_on_c, 11, 57, 0
14, 169260, Note_on_c, 11, 57, 44
14, 169311, Note_on_c, 11, 57, 0
14, 169320, Note_on_c, 11, 57, 44
14, 169439, Note_on_c, 11, 57, 0
14, 172560, Note_on_c, 11, 62, 44
14, 172739, Note_on_c, 11, 62, 0
14, 172740, Note_on_c, 11, 70, 44
14, 172791, Note_on_c, 11, 70, 0
14, 172800, Note_on_c, 11, 62, 44
14, 172979, Note_on_c, 11, 62, 0
14, 172980, Note_on_c, 11, 70, 44
14, 173031, Note_on_c, 11, 70, 0
14, 173280, Note_on_c, 11, 57, 44
14, 173384, Note_on_c, 11, 57, 0
14, 173400, Note_on_c, 11, 60, 44
14, 173451, Note_on_c, 11, 60, 0
14, 173460, Note_on_c, 11, 60, 44
14, 173511, Note_on_c, 11, 60, 0
14, 173520, Note_on_c, 11, 60, 44
14, 173639, Note_on_c, 11, 60, 0
14, 174360, Note_on_c, 11, 60, 44
14, 174464, Note_on_c, 11, 60, 0
14, 174480, Note_on_c, 11, 60, 44
14, 174531, Note_on_c, 11, 60, 0
14, 174540, Note_on_c, 11, 60, 44
14, 174591, Note_on_c, 11, 60, 0
14, 174600, Note_on_c, 11, 60, 44
14, 174719, Note_on_c, 11, 60, 0
14, 177840, Note_on_c, 11, 62, 66
14, 178019, Note_on_c, 11, 62, 0
14, 178020, Note_on_c, 11, 71, 71
14, 178071, Note_on_c, 11, 71, 0
14, 178080, Note_on_c, 11, 62, 72
14, 178259, Note_on_c, 11, 62, 0
14, 178260, Note_on_c, 11, 71, 76
14, 178311, Note_on_c, 11, 71, 0
14, 178560, Note_on_c, 11, 76, 84
14, 178560, Note_on_c, 11, 64, 84
14, 178679, Note_on_c, 11, 76, 0
14, 178679, Note_on_c, 11, 64, 0
14, 179520, Note_on_c, 11, 74, 84
14, 179520, Note_on_c, 11, 64, 84
14, 179520, Note_on_c, 11, 83, 84
14, 179639, Note_on_c, 11, 74, 0
14, 179639, Note_on_c, 11, 64, 0
14, 179639, Note_on_c, 11, 83, 0
14, 180480, Note_on_c, 11, 64, 84
14, 180480, Note_on_c, 11, 59, 84
14, 180531, Note_on_c, 11, 64, 0
14, 180531, Note_on_c, 11, 59, 0
14, 180540, Note_on_c, 11, 64, 84
14, 180540, Note_on_c, 11, 59, 84
14, 180591, Note_on_c, 11, 64, 0
14, 180591, Note_on_c, 11, 59, 0
14, 180600, Note_on_c, 11, 59, 84
14, 180600, Note_on_c, 11, 64, 84
14, 180651, Note_on_c, 11, 59, 0
14, 180651, Note_on_c, 11, 64, 0
14, 180660, Note_on_c, 11, 59, 84
14, 180660, Note_on_c, 11, 64, 84
14, 180711, Note_on_c, 11, 59, 0
14, 180711, Note_on_c, 11, 64, 0
14, 180720, Note_on_c, 11, 64, 92
14, 180720, Note_on_c, 11, 57, 92
14, 180771, Note_on_c, 11, 64, 0
14, 180771, Note_on_c, 11, 57, 0
14, 180780, Note_on_c, 11, 64, 84
14, 180780, Note_on_c, 11, 57, 84
14, 180831, Note_on_c, 11, 64, 0
14, 180831, Note_on_c, 11, 57, 0
14, 180840, Note_on_c, 11, 59, 84
14, 180840, Note_on_c, 11, 64, 84
14, 180891, Note_on_c, 11, 59, 0
14, 180891, Note_on_c, 11, 64, 0
14, 180900, Note_on_c, 11, 64, 84
14, 180900, Note_on_c, 11, 59, 84
14, 180951, Note_on_c, 11, 64, 0
14, 180951, Note_on_c, 11, 59, 0
14, 180960, Note_on_c, 11, 64, 84
14, 180960, Note_on_c, 11, 61, 84
14, 181011, Note_on_c, 11, 64, 0
14, 181011, Note_on_c, 11, 61, 0
14, 181020, Note_on_c, 11, 61, 84
14, 181020, Note_on_c, 11, 64, 84
14, 181071, Note_on_c, 11, 61, 0
14, 181071, Note_on_c, 11, 64, 0
14, 181080, Note_on_c, 11, 61, 84
14, 181080, Note_on_c, 11, 64, 84
14, 181131, Note_on_c, 11, 61, 0
14, 181131, Note_on_c, 11, 64, 0
14, 181140, Note_on_c, 11, 61, 84
14, 181140, Note_on_c, 11, 64, 84
14, 181191, Note_on_c, 11, 61, 0
14, 181191, Note_on_c, 11, 64, 0
14, 181200, Note_on_c, 11, 64, 92
14, 181200, Note_on_c, 11, 59, 92
14, 181251, Note_on_c, 11, 64, 0
14, 181251, Note_on_c, 11, 59, 0
14, 181260, Note_on_c, 11, 59, 84
14, 181260, Note_on_c, 11, 64, 84
14, 181311, Note_on_c, 11, 59, 0
14, 181311, Note_on_c, 11, 64, 0
14, 181320, Note_on_c, 11, 64, 84
14, 181320, Note_on_c, 11, 61, 84
14, 181371, Note_on_c, 11, 64, 0
14, 181371, Note_on_c, 11, 61, 0
14, 181380, Note_on_c, 11, 64, 84
14, 181380, Note_on_c, 11, 61, 84
14, 181431, Note_on_c, 11, 64, 0
14, 181431, Note_on_c, 11, 61, 0
14, 181440, Note_on_c, 11, 59, 84
14, 181440, Note_on_c, 11, 64, 84
14, 181491, Note_on_c, 11, 59, 0
14, 181491, Note_on_c, 11, 64, 0
14, 181500, Note_on_c, 11, 59, 84
14, 181500, Note_on_c, 11, 64, 84
14, 181551, Note_on_c, 11, 59, 0
14, 181551, Note_on_c, 11, 64, 0
14, 181560, Note_on_c, 11, 64, 84
14, 181560, Note_on_c, 11, 59, 84
14, 181611, Note_on_c, 11, 64, 0
14, 181611, Note_on_c, 11, 59, 0
14, 181620, Note_on_c, 11, 59, 84
14, 181620, Note_on_c, 11, 64, 84
14, 181671, Note_on_c, 11, 59, 0
14, 181671, Note_on_c, 11, 64, 0
14, 181680, Note_on_c, 11, 64, 92
14, 181680, Note_on_c, 11, 57, 92
14, 181731, Note_on_c, 11, 64, 0
14, 181731, Note_on_c, 11, 57, 0
14, 181740, Note_on_c, 11, 57, 84
14, 181740, Note_on_c, 11, 64, 84
14, 181791, Note_on_c, 11, 57, 0
14, 181791, Note_on_c, 11, 64, 0
14, 181800, Note_on_c, 11, 64, 84
14, 181800, Note_on_c, 11, 59, 84
14, 181851, Note_on_c, 11, 64, 0
14, 181851, Note_on_c, 11, 59, 0
14, 181860, Note_on_c, 11, 64, 84
14, 181860, Note_on_c, 11, 59, 84
14, 181911, Note_on_c, 11, 64, 0
14, 181911, Note_on_c, 11, 59, 0
14, 181920, Note_on_c, 11, 61, 84
14, 181964, Note_on_c, 11, 61, 0
14, 181980, Note_on_c, 11, 61, 84
14, 182039, Note_on_c, 11, 61, 0
14, 182040, Note_on_c, 11, 62, 84
14, 182099, Note_on_c, 11, 62, 0
14, 182100, Note_on_c, 11, 64, 84
14, 182159, Note_on_c, 11, 64, 0
14, 182160, Note_on_c, 11, 66, 92
14, 182219, Note_on_c, 11, 66, 0
14, 182220, Note_on_c, 11, 64, 84
14, 182279, Note_on_c, 11, 64, 0
14, 182280, Note_on_c, 11, 62, 84
14, 182339, Note_on_c, 11, 62, 0
14, 182340, Note_on_c, 11, 61, 84
14, 182391, Note_on_c, 11, 61, 0
14, 182400, Note_on_c, 11, 59, 84
14, 182451, Note_on_c, 11, 59, 0
14, 182460, Note_on_c, 11, 59, 84
14, 182460, Note_on_c, 11, 64, 84
14, 182511, Note_on_c, 11, 59, 0
14, 182511, Note_on_c, 11, 64, 0
14, 182520, Note_on_c, 11, 64, 84
14, 182520, Note_on_c, 11, 59, 84
14, 182571, Note_on_c, 11, 64, 0
14, 182571, Note_on_c, 11, 59, 0
14, 182580, Note_on_c, 11, 59, 84
14, 182580, Note_on_c, 11, 64, 84
14, 182631, Note_on_c, 11, 59, 0
14, 182631, Note_on_c, 11, 64, 0
14, 182640, Note_on_c, 11, 57, 92
14, 182640, Note_on_c, 11, 64, 92
14, 182691, Note_on_c, 11, 57, 0
14, 182691, Note_on_c, 11, 64, 0
14, 182700, Note_on_c, 11, 57, 84
14, 182700, Note_on_c, 11, 64, 84
14, 182751, Note_on_c, 11, 57, 0
14, 182751, Note_on_c, 11, 64, 0
14, 182760, Note_on_c, 11, 59, 84
14, 182760, Note_on_c, 11, 64, 84
14, 182811, Note_on_c, 11, 59, 0
14, 182811, Note_on_c, 11, 64, 0
14, 182820, Note_on_c, 11, 59, 84
14, 182820, Note_on_c, 11, 64, 84
14, 182871, Note_on_c, 11, 59, 0
14, 182871, Note_on_c, 11, 64, 0
14, 182880, Note_on_c, 11, 64, 84
14, 182880, Note_on_c, 11, 61, 84
14, 182931, Note_on_c, 11, 64, 0
14, 182931, Note_on_c, 11, 61, 0
14, 182940, Note_on_c, 11, 61, 84
14, 182940, Note_on_c, 11, 64, 84
14, 182991, Note_on_c, 11, 61, 0
14, 182991, Note_on_c, 11, 64, 0
14, 183000, Note_on_c, 11, 64, 84
14, 183000, Note_on_c, 11, 61, 84
14, 183051, Note_on_c, 11, 64, 0
14, 183051, Note_on_c, 11, 61, 0
14, 183060, Note_on_c, 11, 64, 84
14, 183060, Note_on_c, 11, 61, 84
14, 183111, Note_on_c, 11, 64, 0
14, 183111, Note_on_c, 11, 61, 0
14, 183120, Note_on_c, 11, 59, 92
14, 183120, Note_on_c, 11, 64, 92
14, 183171, Note_on_c, 11, 59, 0
14, 183171, Note_on_c, 11, 64, 0
14, 183180, Note_on_c, 11, 64, 84
14, 183180, Note_on_c, 11, 59, 84
14, 183231, Note_on_c, 11, 64, 0
14, 183231, Note_on_c, 11, 59, 0
14, 183240, Note_on_c, 11, 64, 84
14, 183240, Note_on_c, 11, 61, 84
14, 183291, Note_on_c, 11, 64, 0
14, 183291, Note_on_c, 11, 61, 0
14, 183300, Note_on_c, 11, 64, 84
14, 183300, Note_on_c, 11, 61, 84
14, 183351, Note_on_c, 11, 64, 0
14, 183351, Note_on_c, 11, 61, 0
14, 183360, Note_on_c, 11, 59, 84
14, 183360, Note_on_c, 11, 64, 84
14, 183411, Note_on_c, 11, 59, 0
14, 183411, Note_on_c, 11, 64, 0
14, 183420, Note_on_c, 11, 59, 84
14, 183420, Note_on_c, 11, 64, 84
14, 183471, Note_on_c, 11, 59, 0
14, 183471, Note_on_c, 11, 64, 0
14, 183480, Note_on_c, 11, 64, 84
14, 183480, Note_on_c, 11, 59, 84
14, 183531, Note_on_c, 11, 64, 0
14, 183531, Note_on_c, 11, 59, 0
14, 183540, Note_on_c, 11, 59, 84
14, 183540, Note_on_c, 11, 64, 84
14, 183591, Note_on_c, 11, 59, 0
14, 183591, Note_on_c, 11, 64, 0
14, 183600, Note_on_c, 11, 57, 92
14, 183600, Note_on_c, 11, 64, 92
14, 183651, Note_on_c, 11, 57, 0
14, 183651, Note_on_c, 11, 64, 0
14, 183660, Note_on_c, 11, 64, 84
14, 183660, Note_on_c, 11, 57, 84
14, 183711, Note_on_c, 11, 64, 0
14, 183711, Note_on_c, 11, 57, 0
14, 183720, Note_on_c, 11, 64, 84
14, 183720, Note_on_c, 11, 59, 84
14, 183771, Note_on_c, 11, 64, 0
14, 183771, Note_on_c, 11, 59, 0
14, 183780, Note_on_c, 11, 59, 84
14, 183780, Note_on_c, 11, 64, 84
14, 183831, Note_on_c, 11, 59, 0
14, 183831, Note_on_c, 11, 64, 0
14, 183840, Note_on_c, 11, 61, 84
14, 183899, Note_on_c, 11, 61, 0
14, 183900, Note_on_c, 11, 62, 84
14, 183959, Note_on_c, 11, 62, 0
14, 183960, Note_on_c, 11, 64, 84
14, 184019, Note_on_c, 11, 64, 0
14, 184020, Note_on_c, 11, 66, 84
14, 184079, Note_on_c, 11, 66, 0
14, 184080, Note_on_c, 11, 68, 84
14, 184139, Note_on_c, 11, 68, 0
14, 184140, Note_on_c, 11, 69, 84
14, 184199, Note_on_c, 11, 69, 0
14, 184200, Note_on_c, 11, 71, 84
14, 184259, Note_on_c, 11, 71, 0
14, 184260, Note_on_c, 11, 73, 84
14, 184311, Note_on_c, 11, 73, 0
14, 184320, Note_on_c, 11, 59, 84
14, 184320, Note_on_c, 11, 64, 84
14, 184371, Note_on_c, 11, 59, 0
14, 184371, Note_on_c, 11, 64, 0
14, 184380, Note_on_c, 11, 59, 84
14, 184380, Note_on_c, 11, 64, 84
14, 184431, Note_on_c, 11, 59, 0
14, 184431, Note_on_c, 11, 64, 0
14, 184440, Note_on_c, 11, 59, 84
14, 184440, Note_on_c, 11, 64, 84
14, 184491, Note_on_c, 11, 59, 0
14, 184491, Note_on_c, 11, 64, 0
14, 184500, Note_on_c, 11, 64, 84
14, 184500, Note_on_c, 11, 59, 84
14, 184551, Note_on_c, 11, 64, 0
14, 184551, Note_on_c, 11, 59, 0
14, 184560, Note_on_c, 11, 57, 92
14, 184560, Note_on_c, 11, 64, 92
14, 184611, Note_on_c, 11, 57, 0
14, 184611, Note_on_c, 11, 64, 0
14, 184620, Note_on_c, 11, 57, 84
14, 184620, Note_on_c, 11, 64, 84
14, 184671, Note_on_c, 11, 57, 0
14, 184671, Note_on_c, 11, 64, 0
14, 184680, Note_on_c, 11, 59, 84
14, 184680, Note_on_c, 11, 64, 84
14, 184731, Note_on_c, 11, 59, 0
14, 184731, Note_on_c, 11, 64, 0
14, 184740, Note_on_c, 11, 64, 84
14, 184740, Note_on_c, 11, 59, 84
14, 184791, Note_on_c, 11, 64, 0
14, 184791, Note_on_c, 11, 59, 0
14, 184800, Note_on_c, 11, 61, 84
14, 184800, Note_on_c, 11, 64, 84
14, 184851, Note_on_c, 11, 61, 0
14, 184851, Note_on_c, 11, 64, 0
14, 184860, Note_on_c, 11, 61, 84
14, 184860, Note_on_c, 11, 64, 84
14, 184911, Note_on_c, 11, 61, 0
14, 184911, Note_on_c, 11, 64, 0
14, 184920, Note_on_c, 11, 61, 84
14, 184920, Note_on_c, 11, 64, 84
14, 184971, Note_on_c, 11, 61, 0
14, 184971, Note_on_c, 11, 64, 0
14, 184980, Note_on_c, 11, 64, 84
14, 184980, Note_on_c, 11, 61, 84
14, 185031, Note_on_c, 11, 64, 0
14, 185031, Note_on_c, 11, 61, 0
14, 185040, Note_on_c, 11, 59, 92
14, 185040, Note_on_c, 11, 64, 92
14, 185091, Note_on_c, 11, 59, 0
14, 185091, Note_on_c, 11, 64, 0
14, 185100, Note_on_c, 11, 59, 84
14, 185100, Note_on_c, 11, 64, 84
14, 185151, Note_on_c, 11, 59, 0
14, 185151, Note_on_c, 11, 64, 0
14, 185160, Note_on_c, 11, 64, 84
14, 185160, Note_on_c, 11, 61, 84
14, 185211, Note_on_c, 11, 64, 0
14, 185211, Note_on_c, 11, 61, 0
14, 185220, Note_on_c, 11, 64, 84
14, 185220, Note_on_c, 11, 61, 84
14, 185271, Note_on_c, 11, 64, 0
14, 185271, Note_on_c, 11, 61, 0
14, 185280, Note_on_c, 11, 64, 84
14, 185280, Note_on_c, 11, 59, 84
14, 185331, Note_on_c, 11, 64, 0
14, 185331, Note_on_c, 11, 59, 0
14, 185340, Note_on_c, 11, 64, 84
14, 185340, Note_on_c, 11, 59, 84
14, 185391, Note_on_c, 11, 64, 0
14, 185391, Note_on_c, 11, 59, 0
14, 185400, Note_on_c, 11, 59, 84
14, 185400, Note_on_c, 11, 64, 84
14, 185451, Note_on_c, 11, 59, 0
14, 185451, Note_on_c, 11, 64, 0
14, 185460, Note_on_c, 11, 59, 84
14, 185460, Note_on_c, 11, 64, 84
14, 185511, Note_on_c, 11, 59, 0
14, 185511, Note_on_c, 11, 64, 0
14, 185520, Note_on_c, 11, 57, 92
14, 185520, Note_on_c, 11, 64, 92
14, 185571, Note_on_c, 11, 57, 0
14, 185571, Note_on_c, 11, 64, 0
14, 185580, Note_on_c, 11, 57, 84
14, 185580, Note_on_c, 11, 64, 84
14, 185631, Note_on_c, 11, 57, 0
14, 185631, Note_on_c, 11, 64, 0
14, 185640, Note_on_c, 11, 64, 84
14, 185640, Note_on_c, 11, 59, 84
14, 185691, Note_on_c, 11, 64, 0
14, 185691, Note_on_c, 11, 59, 0
14, 185700, Note_on_c, 11, 64, 84
14, 185700, Note_on_c, 11, 59, 84
14, 185751, Note_on_c, 11, 64, 0
14, 185751, Note_on_c, 11, 59, 0
14, 185760, Note_on_c, 11, 61, 84
14, 185804, Note_on_c, 11, 61, 0
14, 185820, Note_on_c, 11, 61, 84
14, 185879, Note_on_c, 11, 61, 0
14, 185880, Note_on_c, 11, 62, 84
14, 185939, Note_on_c, 11, 62, 0
14, 185940, Note_on_c, 11, 64, 84
14, 185999, Note_on_c, 11, 64, 0
14, 186000, Note_on_c, 11, 66, 92
14, 186059, Note_on_c, 11, 66, 0
14, 186060, Note_on_c, 11, 64, 84
14, 186119, Note_on_c, 11, 64, 0
14, 186120, Note_on_c, 11, 62, 84
14, 186179, Note_on_c, 11, 62, 0
14, 186180, Note_on_c, 11, 61, 84
14, 186231, Note_on_c, 11, 61, 0
14, 186240, Note_on_c, 11, 59, 84
14, 186291, Note_on_c, 11, 59, 0
14, 186300, Note_on_c, 11, 64, 84
14, 186300, Note_on_c, 11, 59, 84
14, 186351, Note_on_c, 11, 64, 0
14, 186351, Note_on_c, 11, 59, 0
14, 186360, Note_on_c, 11, 64, 84
14, 186360, Note_on_c, 11, 59, 84
14, 186411, Note_on_c, 11, 64, 0
14, 186411, Note_on_c, 11, 59, 0
14, 186420, Note_on_c, 11, 59, 84
14, 186420, Note_on_c, 11, 64, 84
14, 186471, Note_on_c, 11, 59, 0
14, 186471, Note_on_c, 11, 64, 0
14, 186480, Note_on_c, 11, 64, 92
14, 186480, Note_on_c, 11, 57, 92
14, 186531, Note_on_c, 11, 64, 0
14, 186531, Note_on_c, 11, 57, 0
14, 186540, Note_on_c, 11, 57, 84
14, 186540, Note_on_c, 11, 64, 84
14, 186591, Note_on_c, 11, 57, 0
14, 186591, Note_on_c, 11, 64, 0
14, 186600, Note_on_c, 11, 64, 84
14, 186600, Note_on_c, 11, 59, 84
14, 186651, Note_on_c, 11, 64, 0
14, 186651, Note_on_c, 11, 59, 0
14, 186660, Note_on_c, 11, 64, 84
14, 186660, Note_on_c, 11, 59, 84
14, 186711, Note_on_c, 11, 64, 0
14, 186711, Note_on_c, 11, 59, 0
14, 186720, Note_on_c, 11, 61, 84
14, 186720, Note_on_c, 11, 64, 84
14, 186771, Note_on_c, 11, 61, 0
14, 186771, Note_on_c, 11, 64, 0
14, 186780, Note_on_c, 11, 64, 84
14, 186780, Note_on_c, 11, 61, 84
14, 186831, Note_on_c, 11, 64, 0
14, 186831, Note_on_c, 11, 61, 0
14, 186840, Note_on_c, 11, 64, 84
14, 186840, Note_on_c, 11, 61, 84
14, 186891, Note_on_c, 11, 64, 0
14, 186891, Note_on_c, 11, 61, 0
14, 186900, Note_on_c, 11, 61, 84
14, 186900, Note_on_c, 11, 64, 84
14, 186951, Note_on_c, 11, 61, 0
14, 186951, Note_on_c, 11, 64, 0
14, 186960, Note_on_c, 11, 64, 92
14, 186960, Note_on_c, 11, 59, 92
14, 187011, Note_on_c, 11, 64, 0
14, 187011, Note_on_c, 11, 59, 0
14, 187020, Note_on_c, 11, 59, 84
14, 187020, Note_on_c, 11, 64, 84
14, 187071, Note_on_c, 11, 59, 0
14, 187071, Note_on_c, 11, 64, 0
14, 187080, Note_on_c, 11, 61, 84
14, 187080, Note_on_c, 11, 64, 84
14, 187131, Note_on_c, 11, 61, 0
14, 187131, Note_on_c, 11, 64, 0
14, 187140, Note_on_c, 11, 61, 84
14, 187140, Note_on_c, 11, 64, 84
14, 187191, Note_on_c, 11, 61, 0
14, 187191, Note_on_c, 11, 64, 0
14, 187200, Note_on_c, 11, 59, 84
14, 187200, Note_on_c, 11, 64, 84
14, 187251, Note_on_c, 11, 59, 0
14, 187251, Note_on_c, 11, 64, 0
14, 187260, Note_on_c, 11, 59, 84
14, 187260, Note_on_c, 11, 64, 84
14, 187311, Note_on_c, 11, 59, 0
14, 187311, Note_on_c, 11, 64, 0
14, 187320, Note_on_c, 11, 59, 84
14, 187320, Note_on_c, 11, 64, 84
14, 187371, Note_on_c, 11, 59, 0
14, 187371, Note_on_c, 11, 64, 0
14, 187380, Note_on_c, 11, 59, 84
14, 187380, Note_on_c, 11, 64, 84
14, 187431, Note_on_c, 11, 59, 0
14, 187431, Note_on_c, 11, 64, 0
14, 187440, Note_on_c, 11, 57, 92
14, 187440, Note_on_c, 11, 64, 92
14, 187491, Note_on_c, 11, 57, 0
14, 187491, Note_on_c, 11, 64, 0
14, 187500, Note_on_c, 11, 64, 84
14, 187500, Note_on_c, 11, 57, 84
14, 187551, Note_on_c, 11, 64, 0
14, 187551, Note_on_c, 11, 57, 0
14, 187560, Note_on_c, 11, 59, 84
14, 187560, Note_on_c, 11, 64, 84
14, 187611, Note_on_c, 11, 59, 0
14, 187611, Note_on_c, 11, 64, 0
14, 187620, Note_on_c, 11, 59, 84
14, 187620, Note_on_c, 11, 64, 84
14, 187671, Note_on_c, 11, 59, 0
14, 187671, Note_on_c, 11, 64, 0
14, 187680, Note_on_c, 11, 61, 84
14, 187680, Note_on_c, 11, 64, 84
14, 187799, Note_on_c, 11, 61, 0
14, 187799, Note_on_c, 11, 64, 0
14, 188160, Note_on_c, 11, 81, 84
14, 188160, Note_on_c, 11, 73, 84
14, 188160, Note_on_c, 11, 64, 84
14, 188279, Note_on_c, 11, 81, 0
14, 188279, Note_on_c, 11, 73, 0
14, 188279, Note_on_c, 11, 64, 0
14, 188640, Note_on_c, 11, 71, 84
14, 188640, Note_on_c, 11, 64, 84
14, 188640, Note_on_c, 11, 80, 84
14, 188759, Note_on_c, 11, 71, 0
14, 188759, Note_on_c, 11, 64, 0
14, 188759, Note_on_c, 11, 80, 0
14, 189120, Note_on_c, 11, 80, 84
14, 189120, Note_on_c, 11, 71, 84
14, 189120, Note_on_c, 11, 64, 84
14, 189239, Note_on_c, 11, 80, 0
14, 189239, Note_on_c, 11, 71, 0
14, 189239, Note_on_c, 11, 64, 0
14, 189600, Note_on_c, 11, 81, 84
14, 189600, Note_on_c, 11, 73, 84
14, 189600, Note_on_c, 11, 64, 84
14, 189719, Note_on_c, 11, 81, 0
14, 189719, Note_on_c, 11, 73, 0
14, 189719, Note_on_c, 11, 64, 0
14, 189840, Note_on_c, 11, 81, 84
14, 189840, Note_on_c, 11, 73, 84
14, 189840, Note_on_c, 11, 64, 84
14, 189959, Note_on_c, 11, 81, 0
14, 189959, Note_on_c, 11, 73, 0
14, 189959, Note_on_c, 11, 64, 0
14, 190080, Note_on_c, 11, 64, 84
14, 190080, Note_on_c, 11, 73, 84
14, 190080, Note_on_c, 11, 81, 84
14, 190199, Note_on_c, 11, 64, 0
14, 190199, Note_on_c, 11, 73, 0
14, 190199, Note_on_c, 11, 81, 0
14, 190320, Note_on_c, 11, 81, 84
14, 190320, Note_on_c, 11, 64, 84
14, 190320, Note_on_c, 11, 73, 84
14, 190439, Note_on_c, 11, 81, 0
14, 190439, Note_on_c, 11, 64, 0
14, 190439, Note_on_c, 11, 73, 0
14, 190560, Note_on_c, 11, 80, 84
14, 190560, Note_on_c, 11, 64, 84
14, 190560, Note_on_c, 11, 71, 84
14, 190679, Note_on_c, 11, 80, 0
14, 190679, Note_on_c, 11, 64, 0
14, 190679, Note_on_c, 11, 71, 0
14, 190800, Note_on_c, 11, 80, 84
14, 190800, Note_on_c, 11, 64, 84
14, 190800, Note_on_c, 11, 71, 84
14, 190919, Note_on_c, 11, 80, 0
14, 190919, Note_on_c, 11, 64, 0
14, 190919, Note_on_c, 11, 71, 0
14, 191040, Note_on_c, 11, 80, 84
14, 191040, Note_on_c, 11, 71, 84
14, 191040, Note_on_c, 11, 64, 84
14, 191159, Note_on_c, 11, 80, 0
14, 191159, Note_on_c, 11, 71, 0
14, 191159, Note_on_c, 11, 64, 0
14, 191280, Note_on_c, 11, 71, 84
14, 191280, Note_on_c, 11, 80, 84
14, 191280, Note_on_c, 11, 64, 84
14, 191399, Note_on_c, 11, 71, 0
14, 191399, Note_on_c, 11, 80, 0
14, 191399, Note_on_c, 11, 64, 0
14, 191520, Note_on_c, 11, 64, 84
14, 191520, Note_on_c, 11, 81, 84
14, 191520, Note_on_c, 11, 57, 84
14, 191520, Note_on_c, 11, 73, 84
14, 191639, Note_on_c, 11, 64, 0
14, 191639, Note_on_c, 11, 81, 0
14, 191639, Note_on_c, 11, 57, 0
14, 191639, Note_on_c, 11, 73, 0
14, 192000, Note_on_c, 11, 73, 84
14, 192000, Note_on_c, 11, 57, 84
14, 192000, Note_on_c, 11, 64, 84
14, 192000, Note_on_c, 11, 81, 84
14, 192119, Note_on_c, 11, 73, 0
14, 192119, Note_on_c, 11, 57, 0
14, 192119, Note_on_c, 11, 64, 0
14, 192119, Note_on_c, 11, 81, 0
14, 192480, Note_on_c, 11, 80, 84
14, 192480, Note_on_c, 11, 64, 84
14, 192480, Note_on_c, 11, 71, 84
14, 192599, Note_on_c, 11, 80, 0
14, 192599, Note_on_c, 11, 64, 0
14, 192599, Note_on_c, 11, 71, 0
14, 192960, Note_on_c, 11, 71, 84
14, 192960, Note_on_c, 11, 64, 84
14, 192960, Note_on_c, 11, 80, 84
14, 193079, Note_on_c, 11, 71, 0
14, 193079, Note_on_c, 11, 64, 0
14, 193079, Note_on_c, 11, 80, 0
14, 193440, Note_on_c, 11, 76, 84
14, 193491, Note_on_c, 11, 76, 0
14, 193500, Note_on_c, 11, 76, 84
14, 193551, Note_on_c, 11, 76, 0
14, 193560, Note_on_c, 11, 76, 84
14, 193611, Note_on_c, 11, 76, 0
14, 193620, Note_on_c, 11, 76, 84
14, 193671, Note_on_c, 11, 76, 0
14, 193680, Note_on_c, 11, 76, 84
14, 193731, Note_on_c, 11, 76, 0
14, 193740, Note_on_c, 11, 76, 84
14, 193791, Note_on_c, 11, 76, 0
14, 193800, Note_on_c, 11, 74, 84
14, 193851, Note_on_c, 11, 74, 0
14, 193860, Note_on_c, 11, 74, 84
14, 193911, Note_on_c, 11, 74, 0
14, 193920, Note_on_c, 11, 73, 84
14, 193971, Note_on_c, 11, 73, 0
14, 193980, Note_on_c, 11, 73, 84
14, 194031, Note_on_c, 11, 73, 0
14, 194040, Note_on_c, 11, 76, 84
14, 194091, Note_on_c, 11, 76, 0
14, 194100, Note_on_c, 11, 76, 84
14, 194151, Note_on_c, 11, 76, 0
14, 194160, Note_on_c, 11, 74, 84
14, 194211, Note_on_c, 11, 74, 0
14, 194220, Note_on_c, 11, 74, 84
14, 194271, Note_on_c, 11, 74, 0
14, 194280, Note_on_c, 11, 73, 84
14, 194331, Note_on_c, 11, 73, 0
14, 194340, Note_on_c, 11, 73, 84
14, 194391, Note_on_c, 11, 73, 0
14, 194400, Note_on_c, 11, 74, 84
14, 194451, Note_on_c, 11, 74, 0
14, 194460, Note_on_c, 11, 74, 84
14, 194511, Note_on_c, 11, 74, 0
14, 194520, Note_on_c, 11, 73, 84
14, 194571, Note_on_c, 11, 73, 0
14, 194580, Note_on_c, 11, 73, 84
14, 194631, Note_on_c, 11, 73, 0
14, 194640, Note_on_c, 11, 71, 84
14, 194691, Note_on_c, 11, 71, 0
14, 194700, Note_on_c, 11, 71, 84
14, 194751, Note_on_c, 11, 71, 0
14, 194760, Note_on_c, 11, 69, 84
14, 194811, Note_on_c, 11, 69, 0
14, 194820, Note_on_c, 11, 69, 84
14, 194871, Note_on_c, 11, 69, 0
14, 194880, Note_on_c, 11, 68, 84
14, 194931, Note_on_c, 11, 68, 0
14, 194940, Note_on_c, 11, 68, 84
14, 194991, Note_on_c, 11, 68, 0
14, 195000, Note_on_c, 11, 66, 84
14, 195051, Note_on_c, 11, 66, 0
14, 195060, Note_on_c, 11, 66, 84
14, 195111, Note_on_c, 11, 66, 0
14, 195120, Note_on_c, 11, 64, 84
14, 195171, Note_on_c, 11, 64, 0
14, 195180, Note_on_c, 11, 64, 84
14, 195231, Note_on_c, 11, 64, 0
14, 195240, Note_on_c, 11, 62, 84
14, 195291, Note_on_c, 11, 62, 0
14, 195300, Note_on_c, 11, 62, 84
14, 195351, Note_on_c, 11, 62, 0
14, 195360, Note_on_c, 11, 61, 84
14, 195479, Note_on_c, 11, 61, 0
14, 195960, Note_on_c, 11, 64, 84
14, 196019, Note_on_c, 11, 64, 0
14, 196020, Note_on_c, 11, 66, 84
14, 196079, Note_on_c, 11, 66, 0
14, 196080, Note_on_c, 11, 69, 84
14, 196139, Note_on_c, 11, 69, 0
14, 196140, Note_on_c, 11, 68, 84
14, 196199, Note_on_c, 11, 68, 0
14, 196200, Note_on_c, 11, 66, 84
14, 196259, Note_on_c, 11, 66, 0
14, 196260, Note_on_c, 11, 68, 84
14, 196311, Note_on_c, 11, 68, 0
14, 196320, Note_on_c, 11, 69, 84
14, 196559, Note_on_c, 11, 69, 0
14, 196560, Note_on_c, 11, 62, 84
14, 196799, Note_on_c, 11, 62, 0
14, 196800, Note_on_c, 11, 61, 84
14, 197039, Note_on_c, 11, 61, 0
14, 197040, Note_on_c, 11, 62, 84
14, 197279, Note_on_c, 11, 62, 0
14, 197280, Note_on_c, 11, 61, 84
14, 197519, Note_on_c, 11, 61, 0
14, 197880, Note_on_c, 11, 64, 84
14, 197939, Note_on_c, 11, 64, 0
14, 197940, Note_on_c, 11, 66, 84
14, 197999, Note_on_c, 11, 66, 0
14, 198000, Note_on_c, 11, 69, 84
14, 198059, Note_on_c, 11, 69, 0
14, 198060, Note_on_c, 11, 68, 84
14, 198119, Note_on_c, 11, 68, 0
14, 198120, Note_on_c, 11, 66, 84
14, 198179, Note_on_c, 11, 66, 0
14, 198180, Note_on_c, 11, 68, 84
14, 198231, Note_on_c, 11, 68, 0
14, 198240, Note_on_c, 11, 69, 84
14, 198479, Note_on_c, 11, 69, 0
14, 198480, Note_on_c, 11, 62, 84
14, 198719, Note_on_c, 11, 62, 0
14, 198720, Note_on_c, 11, 61, 84
14, 198959, Note_on_c, 11, 61, 0
14, 198960, Note_on_c, 11, 64, 84
14, 199199, Note_on_c, 11, 64, 0
14, 199200, Note_on_c, 11, 65, 84
14, 199319, Note_on_c, 11, 65, 0
14, 199800, Note_on_c, 11, 69, 84
14, 199859, Note_on_c, 11, 69, 0
14, 199860, Note_on_c, 11, 71, 84
14, 199919, Note_on_c, 11, 71, 0
14, 199920, Note_on_c, 11, 74, 84
14, 199979, Note_on_c, 11, 74, 0
14, 199980, Note_on_c, 11, 73, 84
14, 200039, Note_on_c, 11, 73, 0
14, 200040, Note_on_c, 11, 71, 84
14, 200099, Note_on_c, 11, 71, 0
14, 200100, Note_on_c, 11, 73, 84
14, 200151, Note_on_c, 11, 73, 0
14, 200160, Note_on_c, 11, 74, 84
14, 200399, Note_on_c, 11, 74, 0
14, 200400, Note_on_c, 11, 67, 84
14, 200639, Note_on_c, 11, 67, 0
14, 200640, Note_on_c, 11, 65, 84
14, 200879, Note_on_c, 11, 65, 0
14, 200880, Note_on_c, 11, 67, 84
14, 201119, Note_on_c, 11, 67, 0
14, 201120, Note_on_c, 11, 65, 84
14, 201239, Note_on_c, 11, 65, 0
14, 201720, Note_on_c, 11, 69, 84
14, 201779, Note_on_c, 11, 69, 0
14, 201780, Note_on_c, 11, 71, 84
14, 201839, Note_on_c, 11, 71, 0
14, 201840, Note_on_c, 11, 74, 84
14, 201899, Note_on_c, 11, 74, 0
14, 201900, Note_on_c, 11, 73, 84
14, 201959, Note_on_c, 11, 73, 0
14, 201960, Note_on_c, 11, 71, 84
14, 202019, Note_on_c, 11, 71, 0
14, 202020, Note_on_c, 11, 73, 84
14, 202071, Note_on_c, 11, 73, 0
14, 202080, Note_on_c, 11, 74, 84
14, 202319, Note_on_c, 11, 74, 0
14, 202320, Note_on_c, 11, 67, 84
14, 202559, Note_on_c, 11, 67, 0
14, 202560, Note_on_c, 11, 65, 84
14, 202799, Note_on_c, 11, 65, 0
14, 202800, Note_on_c, 11, 67, 84
14, 203024, Note_on_c, 11, 67, 0
14, 203040, Note_on_c, 11, 65, 84
14, 203211, Note_on_c, 11, 65, 0
14, 203220, Note_on_c, 11, 74, 84
14, 203220, Note_on_c, 11, 65, 84
14, 203271, Note_on_c, 11, 74, 0
14, 203271, Note_on_c, 11, 65, 0
14, 203280, Note_on_c, 11, 65, 84
14, 203280, Note_on_c, 11, 74, 84
14, 203451, Note_on_c, 11, 65, 0
14, 203451, Note_on_c, 11, 74, 0
14, 203460, Note_on_c, 11, 74, 84
14, 203460, Note_on_c, 11, 65, 84
14, 203511, Note_on_c, 11, 74, 0
14, 203511, Note_on_c, 11, 65, 0
14, 203520, Note_on_c, 11, 74, 84
14, 203520, Note_on_c, 11, 65, 84
14, 203691, Note_on_c, 11, 74, 0
14, 203691, Note_on_c, 11, 65, 0
14, 203700, Note_on_c, 11, 74, 84
14, 203700, Note_on_c, 11, 65, 84
14, 203751, Note_on_c, 11, 74, 0
14, 203751, Note_on_c, 11, 65, 0
14, 203760, Note_on_c, 11, 65, 84
14, 203760, Note_on_c, 11, 74, 84
14, 203931, Note_on_c, 11, 65, 0
14, 203931, Note_on_c, 11, 74, 0
14, 203940, Note_on_c, 11, 65, 84
14, 203940, Note_on_c, 11, 74, 84
14, 203991, Note_on_c, 11, 65, 0
14, 203991, Note_on_c, 11, 74, 0
14, 204000, Note_on_c, 11, 67, 84
14, 204000, Note_on_c, 11, 76, 84
14, 204171, Note_on_c, 11, 67, 0
14, 204171, Note_on_c, 11, 76, 0
14, 204180, Note_on_c, 11, 67, 84
14, 204180, Note_on_c, 11, 76, 84
14, 204231, Note_on_c, 11, 67, 0
14, 204231, Note_on_c, 11, 76, 0
14, 204240, Note_on_c, 11, 76, 84
14, 204240, Note_on_c, 11, 67, 84
14, 204411, Note_on_c, 11, 76, 0
14, 204411, Note_on_c, 11, 67, 0
14, 204420, Note_on_c, 11, 67, 84
14, 204420, Note_on_c, 11, 76, 84
14, 204471, Note_on_c, 11, 67, 0
14, 204471, Note_on_c, 11, 76, 0
14, 204480, Note_on_c, 11, 67, 84
14, 204480, Note_on_c, 11, 76, 84
14, 204651, Note_on_c, 11, 67, 0
14, 204651, Note_on_c, 11, 76, 0
14, 204660, Note_on_c, 11, 76, 84
14, 204660, Note_on_c, 11, 67, 84
14, 204711, Note_on_c, 11, 76, 0
14, 204711, Note_on_c, 11, 67, 0
14, 204720, Note_on_c, 11, 67, 84
14, 204720, Note_on_c, 11, 76, 84
14, 204891, Note_on_c, 11, 67, 0
14, 204891, Note_on_c, 11, 76, 0
14, 204900, Note_on_c, 11, 67, 84
14, 204900, Note_on_c, 11, 76, 84
14, 204951, Note_on_c, 11, 67, 0
14, 204951, Note_on_c, 11, 76, 0
14, 204960, Note_on_c, 11, 65, 84
14, 204960, Note_on_c, 11, 74, 84
14, 205131, Note_on_c, 11, 65, 0
14, 205131, Note_on_c, 11, 74, 0
14, 205140, Note_on_c, 11, 74, 84
14, 205140, Note_on_c, 11, 65, 84
14, 205191, Note_on_c, 11, 74, 0
14, 205191, Note_on_c, 11, 65, 0
14, 205200, Note_on_c, 11, 74, 84
14, 205200, Note_on_c, 11, 65, 84
14, 205371, Note_on_c, 11, 74, 0
14, 205371, Note_on_c, 11, 65, 0
14, 205380, Note_on_c, 11, 74, 84
14, 205380, Note_on_c, 11, 65, 84
14, 205431, Note_on_c, 11, 74, 0
14, 205431, Note_on_c, 11, 65, 0
14, 205440, Note_on_c, 11, 66, 84
14, 205611, Note_on_c, 11, 66, 0
14, 205620, Note_on_c, 11, 66, 84
14, 205671, Note_on_c, 11, 66, 0
14, 205680, Note_on_c, 11, 66, 84
14, 205851, Note_on_c, 11, 66, 0
14, 205860, Note_on_c, 11, 66, 84
14, 205911, Note_on_c, 11, 66, 0
14, 205920, Note_on_c, 11, 68, 84
14, 206091, Note_on_c, 11, 68, 0
14, 206100, Note_on_c, 11, 68, 84
14, 206151, Note_on_c, 11, 68, 0
14, 206160, Note_on_c, 11, 68, 84
14, 206331, Note_on_c, 11, 68, 0
14, 206340, Note_on_c, 11, 68, 84
14, 206391, Note_on_c, 11, 68, 0
14, 206400, Note_on_c, 11, 69, 84
14, 206571, Note_on_c, 11, 69, 0
14, 206580, Note_on_c, 11, 69, 84
14, 206631, Note_on_c, 11, 69, 0
14, 206640, Note_on_c, 11, 69, 84
14, 206811, Note_on_c, 11, 69, 0
14, 206820, Note_on_c, 11, 69, 84
14, 206871, Note_on_c, 11, 69, 0
14, 206880, Note_on_c, 11, 71, 84
14, 207051, Note_on_c, 11, 71, 0
14, 207060, Note_on_c, 11, 72, 84
14, 207111, Note_on_c, 11, 72, 0
14, 207120, Note_on_c, 11, 74, 84
14, 207291, Note_on_c, 11, 74, 0
14, 207300, Note_on_c, 11, 74, 84
14, 207351, Note_on_c, 11, 74, 0
14, 207360, Note_on_c, 11, 74, 84
14, 207531, Note_on_c, 11, 74, 0
14, 207540, Note_on_c, 11, 74, 84
14, 207591, Note_on_c, 11, 74, 0
14, 207600, Note_on_c, 11, 74, 84
14, 207771, Note_on_c, 11, 74, 0
14, 207780, Note_on_c, 11, 74, 84
14, 207831, Note_on_c, 11, 74, 0
14, 207840, Note_on_c, 11, 74, 84
14, 207891, Note_on_c, 11, 74, 0
14, 207900, Note_on_c, 11, 64, 84
14, 207951, Note_on_c, 11, 64, 0
14, 207960, Note_on_c, 11, 64, 84
14, 208011, Note_on_c, 11, 64, 0
14, 208020, Note_on_c, 11, 64, 84
14, 208071, Note_on_c, 11, 64, 0
14, 208080, Note_on_c, 11, 64, 76
14, 208131, Note_on_c, 11, 64, 0
14, 208140, Note_on_c, 11, 64, 76
14, 208191, Note_on_c, 11, 64, 0
14, 208200, Note_on_c, 11, 64, 76
14, 208251, Note_on_c, 11, 64, 0
14, 208260, Note_on_c, 11, 64, 76
14, 208311, Note_on_c, 11, 64, 0
14, 208320, Note_on_c, 11, 62, 52
14, 208371, Note_on_c, 11, 62, 0
14, 208380, Note_on_c, 11, 62, 52
14, 208431, Note_on_c, 11, 62, 0
14, 208440, Note_on_c, 11, 62, 52
14, 208491, Note_on_c, 11, 62, 0
14, 208500, Note_on_c, 11, 62, 52
14, 208551, Note_on_c, 11, 62, 0
14, 208560, Note_on_c, 11, 62, 52
14, 208611, Note_on_c, 11, 62, 0
14, 208620, Note_on_c, 11, 64, 52
14, 208671, Note_on_c, 11, 64, 0
14, 208680, Note_on_c, 11, 64, 52
14, 208731, Note_on_c, 11, 64, 0
14, 208740, Note_on_c, 11, 64, 52
14, 208791, Note_on_c, 11, 64, 0
14, 208800, Note_on_c, 11, 64, 52
14, 208851, Note_on_c, 11, 64, 0
14, 208860, Note_on_c, 11, 64, 52
14, 208911, Note_on_c, 11, 64, 0
14, 208920, Note_on_c, 11, 64, 52
14, 208971, Note_on_c, 11, 64, 0
14, 208980, Note_on_c, 11, 64, 52
14, 209031, Note_on_c, 11, 64, 0
14, 209040, Note_on_c, 11, 64, 52
14, 209091, Note_on_c, 11, 64, 0
14, 209100, Note_on_c, 11, 64, 52
14, 209151, Note_on_c, 11, 64, 0
14, 209160, Note_on_c, 11, 64, 52
14, 209211, Note_on_c, 11, 64, 0
14, 209220, Note_on_c, 11, 64, 52
14, 209271, Note_on_c, 11, 64, 0
14, 209280, Note_on_c, 11, 64, 52
14, 209331, Note_on_c, 11, 64, 0
14, 209340, Note_on_c, 11, 64, 52
14, 209391, Note_on_c, 11, 64, 0
14, 209400, Note_on_c, 11, 64, 52
14, 209451, Note_on_c, 11, 64, 0
14, 209460, Note_on_c, 11, 64, 52
14, 209511, Note_on_c, 11, 64, 0
14, 209520, Note_on_c, 11, 64, 52
14, 209571, Note_on_c, 11, 64, 0
14, 209580, Note_on_c, 11, 64, 52
14, 209631, Note_on_c, 11, 64, 0
14, 209640, Note_on_c, 11, 64, 52
14, 209691, Note_on_c, 11, 64, 0
14, 209700, Note_on_c, 11, 64, 52
14, 209751, Note_on_c, 11, 64, 0
14, 209760, Note_on_c, 11, 64, 52
14, 209811, Note_on_c, 11, 64, 0
14, 209820, Note_on_c, 11, 64, 52
14, 209871, Note_on_c, 11, 64, 0
14, 209880, Note_on_c, 11, 64, 52
14, 209931, Note_on_c, 11, 64, 0
14, 209940, Note_on_c, 11, 64, 52
14, 209991, Note_on_c, 11, 64, 0
14, 210000, Note_on_c, 11, 64, 76
14, 210051, Note_on_c, 11, 64, 0
14, 210060, Note_on_c, 11, 64, 76
14, 210111, Note_on_c, 11, 64, 0
14, 210120, Note_on_c, 11, 64, 76
14, 210171, Note_on_c, 11, 64, 0
14, 210180, Note_on_c, 11, 64, 76
14, 210231, Note_on_c, 11, 64, 0
14, 210240, Note_on_c, 11, 62, 52
14, 210291, Note_on_c, 11, 62, 0
14, 210300, Note_on_c, 11, 62, 52
14, 210351, Note_on_c, 11, 62, 0
14, 210360, Note_on_c, 11, 62, 52
14, 210411, Note_on_c, 11, 62, 0
14, 210420, Note_on_c, 11, 62, 52
14, 210471, Note_on_c, 11, 62, 0
14, 210480, Note_on_c, 11, 62, 52
14, 210531, Note_on_c, 11, 62, 0
14, 210540, Note_on_c, 11, 64, 52
14, 210591, Note_on_c, 11, 64, 0
14, 210600, Note_on_c, 11, 64, 52
14, 210651, Note_on_c, 11, 64, 0
14, 210660, Note_on_c, 11, 64, 52
14, 210711, Note_on_c, 11, 64, 0
14, 210720, Note_on_c, 11, 64, 52
14, 210771, Note_on_c, 11, 64, 0
14, 210780, Note_on_c, 11, 64, 52
14, 210831, Note_on_c, 11, 64, 0
14, 210840, Note_on_c, 11, 64, 52
14, 210891, Note_on_c, 11, 64, 0
14, 210900, Note_on_c, 11, 64, 52
14, 210951, Note_on_c, 11, 64, 0
14, 210960, Note_on_c, 11, 64, 52
14, 211011, Note_on_c, 11, 64, 0
14, 211020, Note_on_c, 11, 64, 52
14, 211071, Note_on_c, 11, 64, 0
14, 211080, Note_on_c, 11, 64, 52
14, 211131, Note_on_c, 11, 64, 0
14, 211140, Note_on_c, 11, 64, 52
14, 211191, Note_on_c, 11, 64, 0
14, 211200, Note_on_c, 11, 64, 52
14, 211251, Note_on_c, 11, 64, 0
14, 211260, Note_on_c, 11, 64, 52
14, 211311, Note_on_c, 11, 64, 0
14, 211320, Note_on_c, 11, 64, 52
14, 211371, Note_on_c, 11, 64, 0
14, 211380, Note_on_c, 11, 64, 52
14, 211431, Note_on_c, 11, 64, 0
14, 211440, Note_on_c, 11, 64, 52
14, 211491, Note_on_c, 11, 64, 0
14, 211500, Note_on_c, 11, 64, 52
14, 211551, Note_on_c, 11, 64, 0
14, 211560, Note_on_c, 11, 64, 52
14, 211611, Note_on_c, 11, 64, 0
14, 211620, Note_on_c, 11, 64, 52
14, 211671, Note_on_c, 11, 64, 0
14, 211680, Note_on_c, 11, 65, 52
14, 211731, Note_on_c, 11, 65, 0
14, 211740, Note_on_c, 11, 65, 52
14, 211791, Note_on_c, 11, 65, 0
14, 211800, Note_on_c, 11, 65, 52
14, 211851, Note_on_c, 11, 65, 0
14, 211860, Note_on_c, 11, 65, 52
14, 211911, Note_on_c, 11, 65, 0
14, 211920, Note_on_c, 11, 64, 51
14, 211971, Note_on_c, 11, 64, 0
14, 211980, Note_on_c, 11, 64, 51
14, 212031, Note_on_c, 11, 64, 0
14, 212040, Note_on_c, 11, 64, 51
14, 212091, Note_on_c, 11, 64, 0
14, 212100, Note_on_c, 11, 64, 51
14, 212151, Note_on_c, 11, 64, 0
14, 212160, Note_on_c, 11, 64, 50
14, 212211, Note_on_c, 11, 64, 0
14, 212220, Note_on_c, 11, 64, 50
14, 212271, Note_on_c, 11, 64, 0
14, 212280, Note_on_c, 11, 64, 50
14, 212331, Note_on_c, 11, 64, 0
14, 212340, Note_on_c, 11, 64, 50
14, 212391, Note_on_c, 11, 64, 0
14, 212400, Note_on_c, 11, 64, 49
14, 212451, Note_on_c, 11, 64, 0
14, 212460, Note_on_c, 11, 64, 49
14, 212511, Note_on_c, 11, 64, 0
14, 212520, Note_on_c, 11, 64, 49
14, 212571, Note_on_c, 11, 64, 0
14, 212580, Note_on_c, 11, 64, 49
14, 212631, Note_on_c, 11, 64, 0
14, 212640, Note_on_c, 11, 64, 48
14, 212691, Note_on_c, 11, 64, 0
14, 212700, Note_on_c, 11, 64, 48
14, 212751, Note_on_c, 11, 64, 0
14, 212760, Note_on_c, 11, 64, 48
14, 212811, Note_on_c, 11, 64, 0
14, 212820, Note_on_c, 11, 64, 48
14, 212871, Note_on_c, 11, 64, 0
14, 212880, Note_on_c, 11, 64, 47
14, 212931, Note_on_c, 11, 64, 0
14, 212940, Note_on_c, 11, 64, 47
14, 212991, Note_on_c, 11, 64, 0
14, 213000, Note_on_c, 11, 64, 47
14, 213051, Note_on_c, 11, 64, 0
14, 213060, Note_on_c, 11, 64, 47
14, 213111, Note_on_c, 11, 64, 0
14, 213120, Note_on_c, 11, 64, 46
14, 213171, Note_on_c, 11, 64, 0
14, 213180, Note_on_c, 11, 64, 46
14, 213231, Note_on_c, 11, 64, 0
14, 213240, Note_on_c, 11, 59, 46
14, 213291, Note_on_c, 11, 59, 0
14, 213300, Note_on_c, 11, 59, 46
14, 213351, Note_on_c, 11, 59, 0
14, 213360, Note_on_c, 11, 62, 45
14, 213411, Note_on_c, 11, 62, 0
14, 213420, Note_on_c, 11, 62, 45
14, 213471, Note_on_c, 11, 62, 0
14, 213480, Note_on_c, 11, 59, 45
14, 213531, Note_on_c, 11, 59, 0
14, 213540, Note_on_c, 11, 59, 45
14, 213591, Note_on_c, 11, 59, 0
14, 213600, Note_on_c, 11, 61, 44
14, 213719, Note_on_c, 11, 61, 0
14, 213840, Note_on_c, 11, 64, 76
14, 214079, Note_on_c, 11, 64, 0
14, 214320, Note_on_c, 11, 62, 76
14, 214559, Note_on_c, 11, 62, 0
14, 214800, Note_on_c, 11, 61, 76
14, 215039, Note_on_c, 11, 61, 0
14, 215280, Note_on_c, 11, 62, 76
14, 215504, Note_on_c, 11, 62, 0
14, 215520, Note_on_c, 11, 61, 52
14, 215759, Note_on_c, 11, 61, 0
14, 215760, Note_on_c, 11, 64, 52
14, 215984, Note_on_c, 11, 64, 0
14, 216000, Note_on_c, 11, 56, 52
14, 216000, Note_on_c, 11, 66, 52
14, 216224, Note_on_c, 11, 56, 0
14, 216224, Note_on_c, 11, 66, 0
14, 216240, Note_on_c, 11, 56, 52
14, 216240, Note_on_c, 11, 66, 52
14, 216464, Note_on_c, 11, 56, 0
14, 216464, Note_on_c, 11, 66, 0
14, 216480, Note_on_c, 11, 56, 52
14, 216480, Note_on_c, 11, 64, 52
14, 216704, Note_on_c, 11, 56, 0
14, 216704, Note_on_c, 11, 64, 0
14, 216720, Note_on_c, 11, 64, 52
14, 216720, Note_on_c, 11, 56, 52
14, 216944, Note_on_c, 11, 64, 0
14, 216944, Note_on_c, 11, 56, 0
14, 216960, Note_on_c, 11, 66, 52
14, 216960, Note_on_c, 11, 56, 52
14, 217184, Note_on_c, 11, 66, 0
14, 217184, Note_on_c, 11, 56, 0
14, 217200, Note_on_c, 11, 66, 52
14, 217200, Note_on_c, 11, 56, 52
14, 217424, Note_on_c, 11, 66, 0
14, 217424, Note_on_c, 11, 56, 0
14, 217440, Note_on_c, 11, 64, 52
14, 217440, Note_on_c, 11, 56, 52
14, 217664, Note_on_c, 11, 64, 0
14, 217664, Note_on_c, 11, 56, 0
14, 217680, Note_on_c, 11, 56, 52
14, 217680, Note_on_c, 11, 64, 52
14, 217904, Note_on_c, 11, 56, 0
14, 217904, Note_on_c, 11, 64, 0
14, 217920, Note_on_c, 11, 62, 52
14, 218039, Note_on_c, 11, 62, 0
14, 218640, Note_on_c, 11, 61, 76
14, 218879, Note_on_c, 11, 61, 0
14, 219120, Note_on_c, 11, 62, 76
14, 219359, Note_on_c, 11, 62, 0
14, 219600, Note_on_c, 11, 61, 76
14, 219839, Note_on_c, 11, 61, 0
14, 220080, Note_on_c, 11, 62, 76
14, 220304, Note_on_c, 11, 62, 0
14, 220320, Note_on_c, 11, 61, 52
14, 220559, Note_on_c, 11, 61, 0
14, 220560, Note_on_c, 11, 64, 52
14, 220784, Note_on_c, 11, 64, 0
14, 220800, Note_on_c, 11, 56, 52
14, 220800, Note_on_c, 11, 66, 52
14, 221024, Note_on_c, 11, 56, 0
14, 221024, Note_on_c, 11, 66, 0
14, 221040, Note_on_c, 11, 56, 52
14, 221040, Note_on_c, 11, 66, 52
14, 221264, Note_on_c, 11, 56, 0
14, 221264, Note_on_c, 11, 66, 0
14, 221280, Note_on_c, 11, 64, 52
14, 221280, Note_on_c, 11, 56, 52
14, 221504, Note_on_c, 11, 64, 0
14, 221504, Note_on_c, 11, 56, 0
14, 221520, Note_on_c, 11, 64, 52
14, 221520, Note_on_c, 11, 56, 52
14, 221744, Note_on_c, 11, 64, 0
14, 221744, Note_on_c, 11, 56, 0
14, 221760, Note_on_c, 11, 62, 52
14, 221879, Note_on_c, 11, 62, 0
14, 222240, Note_on_c, 11, 61, 52
14, 222359, Note_on_c, 11, 61, 0
14, 222720, Note_on_c, 11, 62, 52
14, 222839, Note_on_c, 11, 62, 0
14, 223200, Note_on_c, 11, 61, 52
14, 223319, Note_on_c, 11, 61, 0
14, 223680, Note_on_c, 11, 62, 52
14, 223799, Note_on_c, 11, 62, 0
14, 224160, Note_on_c, 11, 62, 52
14, 224279, Note_on_c, 11, 62, 0
14, 224820, Note_on_c, 11, 74, 55
14, 224879, Note_on_c, 11, 74, 0
14, 224880, Note_on_c, 11, 71, 56
14, 224999, Note_on_c, 11, 71, 0
14, 225060, Note_on_c, 11, 68, 57
14, 225119, Note_on_c, 11, 68, 0
14, 225120, Note_on_c, 11, 64, 57
14, 225239, Note_on_c, 11, 64, 0
14, 226080, Note_on_c, 11, 74, 62
14, 226199, Note_on_c, 11, 74, 0
14, 226260, Note_on_c, 11, 76, 63
14, 226319, Note_on_c, 11, 76, 0
14, 226320, Note_on_c, 11, 80, 64
14, 226439, Note_on_c, 11, 80, 0
14, 226500, Note_on_c, 11, 83, 65
14, 226559, Note_on_c, 11, 83, 0
14, 226560, Note_on_c, 11, 85, 65
14, 226679, Note_on_c, 11, 85, 0
14, 227700, Note_on_c, 11, 74, 71
14, 227759, Note_on_c, 11, 74, 0
14, 227760, Note_on_c, 11, 71, 72
14, 227879, Note_on_c, 11, 71, 0
14, 227940, Note_on_c, 11, 68, 73
14, 227999, Note_on_c, 11, 68, 0
14, 228000, Note_on_c, 11, 64, 73
14, 228119, Note_on_c, 11, 64, 0
14, 228960, Note_on_c, 11, 74, 78
14, 229079, Note_on_c, 11, 74, 0
14, 229140, Note_on_c, 11, 76, 79
14, 229199, Note_on_c, 11, 76, 0
14, 229200, Note_on_c, 11, 80, 80
14, 229319, Note_on_c, 11, 80, 0
14, 229380, Note_on_c, 11, 83, 81
14, 229439, Note_on_c, 11, 83, 0
14, 229440, Note_on_c, 11, 85, 81
14, 229559, Note_on_c, 11, 85, 0
14, 229680, Note_on_c, 11, 81, 82
14, 229799, Note_on_c, 11, 81, 0
14, 229920, Note_on_c, 11, 82, 84
14, 229920, Note_on_c, 11, 70, 84
14, 229971, Note_on_c, 11, 82, 0
14, 229971, Note_on_c, 11, 70, 0
14, 229980, Note_on_c, 11, 82, 84
14, 229980, Note_on_c, 11, 70, 84
14, 230031, Note_on_c, 11, 82, 0
14, 230031, Note_on_c, 11, 70, 0
14, 230040, Note_on_c, 11, 82, 84
14, 230040, Note_on_c, 11, 70, 84
14, 230091, Note_on_c, 11, 82, 0
14, 230091, Note_on_c, 11, 70, 0
14, 230100, Note_on_c, 11, 82, 84
14, 230100, Note_on_c, 11, 70, 84
14, 230151, Note_on_c, 11, 82, 0
14, 230151, Note_on_c, 11, 70, 0
14, 230160, Note_on_c, 11, 70, 84
14, 230160, Note_on_c, 11, 82, 84
14, 230211, Note_on_c, 11, 70, 0
14, 230211, Note_on_c, 11, 82, 0
14, 230220, Note_on_c, 11, 70, 84
14, 230220, Note_on_c, 11, 82, 84
14, 230271, Note_on_c, 11, 70, 0
14, 230271, Note_on_c, 11, 82, 0
14, 230280, Note_on_c, 11, 82, 84
14, 230280, Note_on_c, 11, 70, 84
14, 230331, Note_on_c, 11, 82, 0
14, 230331, Note_on_c, 11, 70, 0
14, 230340, Note_on_c, 11, 70, 84
14, 230340, Note_on_c, 11, 82, 84
14, 230391, Note_on_c, 11, 70, 0
14, 230391, Note_on_c, 11, 82, 0
14, 230400, Note_on_c, 11, 82, 84
14, 230400, Note_on_c, 11, 70, 84
14, 230451, Note_on_c, 11, 82, 0
14, 230451, Note_on_c, 11, 70, 0
14, 230460, Note_on_c, 11, 70, 84
14, 230460, Note_on_c, 11, 82, 84
14, 230511, Note_on_c, 11, 70, 0
14, 230511, Note_on_c, 11, 82, 0
14, 230520, Note_on_c, 11, 70, 84
14, 230520, Note_on_c, 11, 82, 84
14, 230571, Note_on_c, 11, 70, 0
14, 230571, Note_on_c, 11, 82, 0
14, 230580, Note_on_c, 11, 70, 84
14, 230580, Note_on_c, 11, 82, 84
14, 230631, Note_on_c, 11, 70, 0
14, 230631, Note_on_c, 11, 82, 0
14, 230640, Note_on_c, 11, 70, 84
14, 230640, Note_on_c, 11, 82, 84
14, 230691, Note_on_c, 11, 70, 0
14, 230691, Note_on_c, 11, 82, 0
14, 230700, Note_on_c, 11, 82, 84
14, 230700, Note_on_c, 11, 70, 84
14, 230751, Note_on_c, 11, 82, 0
14, 230751, Note_on_c, 11, 70, 0
14, 230760, Note_on_c, 11, 70, 84
14, 230760, Note_on_c, 11, 82, 84
14, 230811, Note_on_c, 11, 70, 0
14, 230811, Note_on_c, 11, 82, 0
14, 230820, Note_on_c, 11, 70, 84
14, 230820, Note_on_c, 11, 82, 84
14, 230871, Note_on_c, 11, 70, 0
14, 230871, Note_on_c, 11, 82, 0
14, 230880, Note_on_c, 11, 81, 92
14, 230880, Note_on_c, 11, 69, 92
14, 230931, Note_on_c, 11, 81, 0
14, 230931, Note_on_c, 11, 69, 0
14, 230940, Note_on_c, 11, 69, 84
14, 230940, Note_on_c, 11, 81, 84
14, 230991, Note_on_c, 11, 69, 0
14, 230991, Note_on_c, 11, 81, 0
14, 231000, Note_on_c, 11, 69, 84
14, 231000, Note_on_c, 11, 81, 84
14, 231051, Note_on_c, 11, 69, 0
14, 231051, Note_on_c, 11, 81, 0
14, 231060, Note_on_c, 11, 81, 84
14, 231060, Note_on_c, 11, 69, 84
14, 231111, Note_on_c, 11, 81, 0
14, 231111, Note_on_c, 11, 69, 0
14, 231120, Note_on_c, 11, 69, 84
14, 231120, Note_on_c, 11, 81, 84
14, 231171, Note_on_c, 11, 69, 0
14, 231171, Note_on_c, 11, 81, 0
14, 231180, Note_on_c, 11, 81, 84
14, 231180, Note_on_c, 11, 69, 84
14, 231231, Note_on_c, 11, 81, 0
14, 231231, Note_on_c, 11, 69, 0
14, 231240, Note_on_c, 11, 69, 84
14, 231240, Note_on_c, 11, 81, 84
14, 231291, Note_on_c, 11, 69, 0
14, 231291, Note_on_c, 11, 81, 0
14, 231300, Note_on_c, 11, 81, 84
14, 231300, Note_on_c, 11, 69, 84
14, 231351, Note_on_c, 11, 81, 0
14, 231351, Note_on_c, 11, 69, 0
14, 231360, Note_on_c, 11, 70, 92
14, 231360, Note_on_c, 11, 82, 92
14, 231411, Note_on_c, 11, 70, 0
14, 231411, Note_on_c, 11, 82, 0
14, 231420, Note_on_c, 11, 70, 84
14, 231420, Note_on_c, 11, 82, 84
14, 231471, Note_on_c, 11, 70, 0
14, 231471, Note_on_c, 11, 82, 0
14, 231480, Note_on_c, 11, 70, 84
14, 231480, Note_on_c, 11, 82, 84
14, 231531, Note_on_c, 11, 70, 0
14, 231531, Note_on_c, 11, 82, 0
14, 231540, Note_on_c, 11, 82, 84
14, 231540, Note_on_c, 11, 70, 84
14, 231591, Note_on_c, 11, 82, 0
14, 231591, Note_on_c, 11, 70, 0
14, 231600, Note_on_c, 11, 82, 84
14, 231600, Note_on_c, 11, 70, 84
14, 231651, Note_on_c, 11, 82, 0
14, 231651, Note_on_c, 11, 70, 0
14, 231660, Note_on_c, 11, 82, 84
14, 231660, Note_on_c, 11, 70, 84
14, 231711, Note_on_c, 11, 82, 0
14, 231711, Note_on_c, 11, 70, 0
14, 231720, Note_on_c, 11, 70, 84
14, 231720, Note_on_c, 11, 82, 84
14, 231771, Note_on_c, 11, 70, 0
14, 231771, Note_on_c, 11, 82, 0
14, 231780, Note_on_c, 11, 70, 84
14, 231780, Note_on_c, 11, 82, 84
14, 231831, Note_on_c, 11, 70, 0
14, 231831, Note_on_c, 11, 82, 0
14, 231840, Note_on_c, 11, 81, 92
14, 231840, Note_on_c, 11, 69, 92
14, 231891, Note_on_c, 11, 81, 0
14, 231891, Note_on_c, 11, 69, 0
14, 231900, Note_on_c, 11, 69, 84
14, 231900, Note_on_c, 11, 81, 84
14, 231951, Note_on_c, 11, 69, 0
14, 231951, Note_on_c, 11, 81, 0
14, 231960, Note_on_c, 11, 81, 84
14, 231960, Note_on_c, 11, 69, 84
14, 232011, Note_on_c, 11, 81, 0
14, 232011, Note_on_c, 11, 69, 0
14, 232020, Note_on_c, 11, 81, 84
14, 232020, Note_on_c, 11, 69, 84
14, 232071, Note_on_c, 11, 81, 0
14, 232071, Note_on_c, 11, 69, 0
14, 232080, Note_on_c, 11, 69, 84
14, 232080, Note_on_c, 11, 81, 84
14, 232131, Note_on_c, 11, 69, 0
14, 232131, Note_on_c, 11, 81, 0
14, 232140, Note_on_c, 11, 69, 84
14, 232140, Note_on_c, 11, 81, 84
14, 232191, Note_on_c, 11, 69, 0
14, 232191, Note_on_c, 11, 81, 0
14, 232200, Note_on_c, 11, 69, 84
14, 232200, Note_on_c, 11, 81, 84
14, 232251, Note_on_c, 11, 69, 0
14, 232251, Note_on_c, 11, 81, 0
14, 232260, Note_on_c, 11, 69, 84
14, 232260, Note_on_c, 11, 81, 84
14, 232311, Note_on_c, 11, 69, 0
14, 232311, Note_on_c, 11, 81, 0
14, 232320, Note_on_c, 11, 82, 92
14, 232320, Note_on_c, 11, 70, 92
14, 232371, Note_on_c, 11, 82, 0
14, 232371, Note_on_c, 11, 70, 0
14, 232380, Note_on_c, 11, 70, 84
14, 232380, Note_on_c, 11, 82, 84
14, 232431, Note_on_c, 11, 70, 0
14, 232431, Note_on_c, 11, 82, 0
14, 232440, Note_on_c, 11, 82, 84
14, 232440, Note_on_c, 11, 70, 84
14, 232491, Note_on_c, 11, 82, 0
14, 232491, Note_on_c, 11, 70, 0
14, 232500, Note_on_c, 11, 70, 84
14, 232500, Note_on_c, 11, 82, 84
14, 232551, Note_on_c, 11, 70, 0
14, 232551, Note_on_c, 11, 82, 0
14, 232560, Note_on_c, 11, 70, 84
14, 232560, Note_on_c, 11, 82, 84
14, 232611, Note_on_c, 11, 70, 0
14, 232611, Note_on_c, 11, 82, 0
14, 232620, Note_on_c, 11, 70, 84
14, 232620, Note_on_c, 11, 82, 84
14, 232671, Note_on_c, 11, 70, 0
14, 232671, Note_on_c, 11, 82, 0
14, 232680, Note_on_c, 11, 70, 84
14, 232680, Note_on_c, 11, 82, 84
14, 232731, Note_on_c, 11, 70, 0
14, 232731, Note_on_c, 11, 82, 0
14, 232740, Note_on_c, 11, 70, 84
14, 232740, Note_on_c, 11, 82, 84
14, 232791, Note_on_c, 11, 70, 0
14, 232791, Note_on_c, 11, 82, 0
14, 232800, Note_on_c, 11, 82, 84
14, 232800, Note_on_c, 11, 70, 84
14, 232851, Note_on_c, 11, 82, 0
14, 232851, Note_on_c, 11, 70, 0
14, 232860, Note_on_c, 11, 82, 84
14, 232860, Note_on_c, 11, 70, 84
14, 232911, Note_on_c, 11, 82, 0
14, 232911, Note_on_c, 11, 70, 0
14, 232920, Note_on_c, 11, 70, 84
14, 232920, Note_on_c, 11, 82, 84
14, 232971, Note_on_c, 11, 70, 0
14, 232971, Note_on_c, 11, 82, 0
14, 232980, Note_on_c, 11, 82, 84
14, 232980, Note_on_c, 11, 70, 84
14, 233031, Note_on_c, 11, 82, 0
14, 233031, Note_on_c, 11, 70, 0
14, 233040, Note_on_c, 11, 70, 84
14, 233040, Note_on_c, 11, 82, 84
14, 233091, Note_on_c, 11, 70, 0
14, 233091, Note_on_c, 11, 82, 0
14, 233100, Note_on_c, 11, 82, 84
14, 233100, Note_on_c, 11, 70, 84
14, 233151, Note_on_c, 11, 82, 0
14, 233151, Note_on_c, 11, 70, 0
14, 233160, Note_on_c, 11, 82, 84
14, 233160, Note_on_c, 11, 70, 84
14, 233211, Note_on_c, 11, 82, 0
14, 233211, Note_on_c, 11, 70, 0
14, 233220, Note_on_c, 11, 70, 84
14, 233220, Note_on_c, 11, 82, 84
14, 233271, Note_on_c, 11, 70, 0
14, 233271, Note_on_c, 11, 82, 0
14, 233280, Note_on_c, 11, 82, 84
14, 233280, Note_on_c, 11, 70, 84
14, 233331, Note_on_c, 11, 82, 0
14, 233331, Note_on_c, 11, 70, 0
14, 233340, Note_on_c, 11, 82, 84
14, 233340, Note_on_c, 11, 70, 84
14, 233391, Note_on_c, 11, 82, 0
14, 233391, Note_on_c, 11, 70, 0
14, 233400, Note_on_c, 11, 70, 84
14, 233400, Note_on_c, 11, 82, 84
14, 233451, Note_on_c, 11, 70, 0
14, 233451, Note_on_c, 11, 82, 0
14, 233460, Note_on_c, 11, 70, 84
14, 233460, Note_on_c, 11, 82, 84
14, 233511, Note_on_c, 11, 70, 0
14, 233511, Note_on_c, 11, 82, 0
14, 233520, Note_on_c, 11, 70, 84
14, 233520, Note_on_c, 11, 82, 84
14, 233571, Note_on_c, 11, 70, 0
14, 233571, Note_on_c, 11, 82, 0
14, 233580, Note_on_c, 11, 70, 84
14, 233580, Note_on_c, 11, 82, 84
14, 233631, Note_on_c, 11, 70, 0
14, 233631, Note_on_c, 11, 82, 0
14, 233640, Note_on_c, 11, 82, 84
14, 233640, Note_on_c, 11, 70, 84
14, 233691, Note_on_c, 11, 82, 0
14, 233691, Note_on_c, 11, 70, 0
14, 233700, Note_on_c, 11, 82, 84
14, 233700, Note_on_c, 11, 70, 84
14, 233751, Note_on_c, 11, 82, 0
14, 233751, Note_on_c, 11, 70, 0
14, 233760, Note_on_c, 11, 81, 92
14, 233760, Note_on_c, 11, 69, 92
14, 233811, Note_on_c, 11, 81, 0
14, 233811, Note_on_c, 11, 69, 0
14, 233820, Note_on_c, 11, 69, 84
14, 233820, Note_on_c, 11, 81, 84
14, 233871, Note_on_c, 11, 69, 0
14, 233871, Note_on_c, 11, 81, 0
14, 233880, Note_on_c, 11, 81, 84
14, 233880, Note_on_c, 11, 69, 84
14, 233931, Note_on_c, 11, 81, 0
14, 233931, Note_on_c, 11, 69, 0
14, 233940, Note_on_c, 11, 81, 84
14, 233940, Note_on_c, 11, 69, 84
14, 233991, Note_on_c, 11, 81, 0
14, 233991, Note_on_c, 11, 69, 0
14, 234000, Note_on_c, 11, 69, 84
14, 234000, Note_on_c, 11, 81, 84
14, 234051, Note_on_c, 11, 69, 0
14, 234051, Note_on_c, 11, 81, 0
14, 234060, Note_on_c, 11, 69, 84
14, 234060, Note_on_c, 11, 81, 84
14, 234111, Note_on_c, 11, 69, 0
14, 234111, Note_on_c, 11, 81, 0
14, 234120, Note_on_c, 11, 81, 84
14, 234120, Note_on_c, 11, 69, 84
14, 234171, Note_on_c, 11, 81, 0
14, 234171, Note_on_c, 11, 69, 0
14, 234180, Note_on_c, 11, 69, 84
14, 234180, Note_on_c, 11, 81, 84
14, 234231, Note_on_c, 11, 69, 0
14, 234231, Note_on_c, 11, 81, 0
14, 234240, Note_on_c, 11, 70, 92
14, 234240, Note_on_c, 11, 82, 92
14, 234291, Note_on_c, 11, 70, 0
14, 234291, Note_on_c, 11, 82, 0
14, 234300, Note_on_c, 11, 70, 84
14, 234300, Note_on_c, 11, 82, 84
14, 234351, Note_on_c, 11, 70, 0
14, 234351, Note_on_c, 11, 82, 0
14, 234360, Note_on_c, 11, 82, 84
14, 234360, Note_on_c, 11, 70, 84
14, 234411, Note_on_c, 11, 82, 0
14, 234411, Note_on_c, 11, 70, 0
14, 234420, Note_on_c, 11, 70, 84
14, 234420, Note_on_c, 11, 82, 84
14, 234471, Note_on_c, 11, 70, 0
14, 234471, Note_on_c, 11, 82, 0
14, 234480, Note_on_c, 11, 82, 84
14, 234480, Note_on_c, 11, 70, 84
14, 234531, Note_on_c, 11, 82, 0
14, 234531, Note_on_c, 11, 70, 0
14, 234540, Note_on_c, 11, 82, 84
14, 234540, Note_on_c, 11, 70, 84
14, 234591, Note_on_c, 11, 82, 0
14, 234591, Note_on_c, 11, 70, 0
14, 234600, Note_on_c, 11, 82, 84
14, 234600, Note_on_c, 11, 70, 84
14, 234651, Note_on_c, 11, 82, 0
14, 234651, Note_on_c, 11, 70, 0
14, 234660, Note_on_c, 11, 82, 84
14, 234660, Note_on_c, 11, 70, 84
14, 234711, Note_on_c, 11, 82, 0
14, 234711, Note_on_c, 11, 70, 0
14, 234720, Note_on_c, 11, 69, 92
14, 234720, Note_on_c, 11, 81, 92
14, 234771, Note_on_c, 11, 69, 0
14, 234771, Note_on_c, 11, 81, 0
14, 234780, Note_on_c, 11, 69, 84
14, 234780, Note_on_c, 11, 81, 84
14, 234831, Note_on_c, 11, 69, 0
14, 234831, Note_on_c, 11, 81, 0
14, 234840, Note_on_c, 11, 81, 84
14, 234840, Note_on_c, 11, 69, 84
14, 234891, Note_on_c, 11, 81, 0
14, 234891, Note_on_c, 11, 69, 0
14, 234900, Note_on_c, 11, 69, 84
14, 234900, Note_on_c, 11, 81, 84
14, 234951, Note_on_c, 11, 69, 0
14, 234951, Note_on_c, 11, 81, 0
14, 234960, Note_on_c, 11, 81, 84
14, 234960, Note_on_c, 11, 69, 84
14, 235011, Note_on_c, 11, 81, 0
14, 235011, Note_on_c, 11, 69, 0
14, 235020, Note_on_c, 11, 69, 84
14, 235020, Note_on_c, 11, 81, 84
14, 235071, Note_on_c, 11, 69, 0
14, 235071, Note_on_c, 11, 81, 0
14, 235080, Note_on_c, 11, 69, 84
14, 235080, Note_on_c, 11, 81, 84
14, 235131, Note_on_c, 11, 69, 0
14, 235131, Note_on_c, 11, 81, 0
14, 235140, Note_on_c, 11, 81, 84
14, 235140, Note_on_c, 11, 69, 84
14, 235191, Note_on_c, 11, 81, 0
14, 235191, Note_on_c, 11, 69, 0
14, 235200, Note_on_c, 11, 69, 92
14, 235200, Note_on_c, 11, 81, 92
14, 235251, Note_on_c, 11, 69, 0
14, 235251, Note_on_c, 11, 81, 0
14, 235260, Note_on_c, 11, 69, 84
14, 235260, Note_on_c, 11, 81, 84
14, 235311, Note_on_c, 11, 69, 0
14, 235311, Note_on_c, 11, 81, 0
14, 235320, Note_on_c, 11, 81, 84
14, 235320, Note_on_c, 11, 69, 84
14, 235371, Note_on_c, 11, 81, 0
14, 235371, Note_on_c, 11, 69, 0
14, 235380, Note_on_c, 11, 69, 84
14, 235380, Note_on_c, 11, 81, 84
14, 235431, Note_on_c, 11, 69, 0
14, 235431, Note_on_c, 11, 81, 0
14, 235440, Note_on_c, 11, 69, 84
14, 235440, Note_on_c, 11, 81, 84
14, 235491, Note_on_c, 11, 69, 0
14, 235491, Note_on_c, 11, 81, 0
14, 235500, Note_on_c, 11, 81, 84
14, 235500, Note_on_c, 11, 69, 84
14, 235551, Note_on_c, 11, 81, 0
14, 235551, Note_on_c, 11, 69, 0
14, 235560, Note_on_c, 11, 81, 84
14, 235560, Note_on_c, 11, 69, 84
14, 235611, Note_on_c, 11, 81, 0
14, 235611, Note_on_c, 11, 69, 0
14, 235620, Note_on_c, 11, 81, 84
14, 235620, Note_on_c, 11, 69, 84
14, 235671, Note_on_c, 11, 81, 0
14, 235671, Note_on_c, 11, 69, 0
14, 235680, Note_on_c, 11, 81, 92
14, 235680, Note_on_c, 11, 69, 92
14, 235731, Note_on_c, 11, 81, 0
14, 235731, Note_on_c, 11, 69, 0
14, 235740, Note_on_c, 11, 73, 84
14, 235740, Note_on_c, 11, 81, 84
14, 235791, Note_on_c, 11, 73, 0
14, 235791, Note_on_c, 11, 81, 0
14, 235800, Note_on_c, 11, 73, 84
14, 235800, Note_on_c, 11, 81, 84
14, 235851, Note_on_c, 11, 73, 0
14, 235851, Note_on_c, 11, 81, 0
14, 235860, Note_on_c, 11, 81, 84
14, 235860, Note_on_c, 11, 73, 84
14, 235911, Note_on_c, 11, 81, 0
14, 235911, Note_on_c, 11, 73, 0
14, 235920, Note_on_c, 11, 81, 84
14, 235920, Note_on_c, 11, 73, 84
14, 235971, Note_on_c, 11, 81, 0
14, 235971, Note_on_c, 11, 73, 0
14, 235980, Note_on_c, 11, 73, 84
14, 235980, Note_on_c, 11, 81, 84
14, 236031, Note_on_c, 11, 73, 0
14, 236031, Note_on_c, 11, 81, 0
14, 236040, Note_on_c, 11, 73, 84
14, 236040, Note_on_c, 11, 81, 84
14, 236091, Note_on_c, 11, 73, 0
14, 236091, Note_on_c, 11, 81, 0
14, 236100, Note_on_c, 11, 73, 84
14, 236100, Note_on_c, 11, 81, 84
14, 236151, Note_on_c, 11, 73, 0
14, 236151, Note_on_c, 11, 81, 0
14, 236160, Note_on_c, 11, 80, 92
14, 236160, Note_on_c, 11, 71, 92
14, 236211, Note_on_c, 11, 80, 0
14, 236211, Note_on_c, 11, 71, 0
14, 236220, Note_on_c, 11, 80, 84
14, 236220, Note_on_c, 11, 71, 84
14, 236271, Note_on_c, 11, 80, 0
14, 236271, Note_on_c, 11, 71, 0
14, 236280, Note_on_c, 11, 80, 84
14, 236280, Note_on_c, 11, 71, 84
14, 236331, Note_on_c, 11, 80, 0
14, 236331, Note_on_c, 11, 71, 0
14, 236340, Note_on_c, 11, 80, 84
14, 236340, Note_on_c, 11, 71, 84
14, 236391, Note_on_c, 11, 80, 0
14, 236391, Note_on_c, 11, 71, 0
14, 236400, Note_on_c, 11, 80, 84
14, 236400, Note_on_c, 11, 71, 84
14, 236451, Note_on_c, 11, 80, 0
14, 236451, Note_on_c, 11, 71, 0
14, 236460, Note_on_c, 11, 71, 84
14, 236460, Note_on_c, 11, 80, 84
14, 236511, Note_on_c, 11, 71, 0
14, 236511, Note_on_c, 11, 80, 0
14, 236520, Note_on_c, 11, 80, 84
14, 236520, Note_on_c, 11, 71, 84
14, 236571, Note_on_c, 11, 80, 0
14, 236571, Note_on_c, 11, 71, 0
14, 236580, Note_on_c, 11, 80, 84
14, 236580, Note_on_c, 11, 71, 84
14, 236631, Note_on_c, 11, 80, 0
14, 236631, Note_on_c, 11, 71, 0
14, 236640, Note_on_c, 11, 81, 84
14, 236640, Note_on_c, 11, 73, 84
14, 236684, Note_on_c, 11, 81, 0
14, 236684, Note_on_c, 11, 73, 0
14, 236700, Note_on_c, 11, 73, 84
14, 236759, Note_on_c, 11, 73, 0
14, 236760, Note_on_c, 11, 74, 84
14, 236819, Note_on_c, 11, 74, 0
14, 236820, Note_on_c, 11, 76, 84
14, 236879, Note_on_c, 11, 76, 0
14, 236880, Note_on_c, 11, 79, 92
14, 236939, Note_on_c, 11, 79, 0
14, 236940, Note_on_c, 11, 77, 84
14, 236999, Note_on_c, 11, 77, 0
14, 237000, Note_on_c, 11, 76, 84
14, 237059, Note_on_c, 11, 76, 0
14, 237060, Note_on_c, 11, 74, 84
14, 237111, Note_on_c, 11, 74, 0
14, 237120, Note_on_c, 11, 79, 84
14, 237179, Note_on_c, 11, 79, 0
14, 237180, Note_on_c, 11, 77, 84
14, 237239, Note_on_c, 11, 77, 0
14, 237240, Note_on_c, 11, 76, 84
14, 237299, Note_on_c, 11, 76, 0
14, 237300, Note_on_c, 11, 74, 84
14, 237351, Note_on_c, 11, 74, 0
14, 237360, Note_on_c, 11, 79, 84
14, 237419, Note_on_c, 11, 79, 0
14, 237420, Note_on_c, 11, 77, 84
14, 237479, Note_on_c, 11, 77, 0
14, 237480, Note_on_c, 11, 76, 84
14, 237539, Note_on_c, 11, 76, 0
14, 237540, Note_on_c, 11, 74, 84
14, 237591, Note_on_c, 11, 74, 0
14, 237600, Note_on_c, 11, 73, 84
14, 237644, Note_on_c, 11, 73, 0
14, 237660, Note_on_c, 11, 73, 84
14, 237719, Note_on_c, 11, 73, 0
14, 237720, Note_on_c, 11, 74, 84
14, 237779, Note_on_c, 11, 74, 0
14, 237780, Note_on_c, 11, 76, 84
14, 237839, Note_on_c, 11, 76, 0
14, 237840, Note_on_c, 11, 79, 92
14, 237899, Note_on_c, 11, 79, 0
14, 237900, Note_on_c, 11, 77, 84
14, 237959, Note_on_c, 11, 77, 0
14, 237960, Note_on_c, 11, 76, 84
14, 238019, Note_on_c, 11, 76, 0
14, 238020, Note_on_c, 11, 74, 84
14, 238071, Note_on_c, 11, 74, 0
14, 238080, Note_on_c, 11, 79, 84
14, 238139, Note_on_c, 11, 79, 0
14, 238140, Note_on_c, 11, 77, 84
14, 238199, Note_on_c, 11, 77, 0
14, 238200, Note_on_c, 11, 76, 84
14, 238259, Note_on_c, 11, 76, 0
14, 238260, Note_on_c, 11, 74, 84
14, 238311, Note_on_c, 11, 74, 0
14, 238320, Note_on_c, 11, 79, 84
14, 238379, Note_on_c, 11, 79, 0
14, 238380, Note_on_c, 11, 77, 84
14, 238439, Note_on_c, 11, 77, 0
14, 238440, Note_on_c, 11, 76, 84
14, 238499, Note_on_c, 11, 76, 0
14, 238500, Note_on_c, 11, 74, 84
14, 238551, Note_on_c, 11, 74, 0
14, 238560, Note_on_c, 11, 73, 84
14, 238604, Note_on_c, 11, 73, 0
14, 238620, Note_on_c, 11, 73, 84
14, 238679, Note_on_c, 11, 73, 0
14, 238680, Note_on_c, 11, 74, 84
14, 238739, Note_on_c, 11, 74, 0
14, 238740, Note_on_c, 11, 76, 84
14, 238799, Note_on_c, 11, 76, 0
14, 238800, Note_on_c, 11, 79, 92
14, 238859, Note_on_c, 11, 79, 0
14, 238860, Note_on_c, 11, 77, 84
14, 238919, Note_on_c, 11, 77, 0
14, 238920, Note_on_c, 11, 76, 84
14, 238979, Note_on_c, 11, 76, 0
14, 238980, Note_on_c, 11, 74, 84
14, 239031, Note_on_c, 11, 74, 0
14, 239040, Note_on_c, 11, 73, 84
14, 239084, Note_on_c, 11, 73, 0
14, 239100, Note_on_c, 11, 73, 84
14, 239159, Note_on_c, 11, 73, 0
14, 239160, Note_on_c, 11, 74, 84
14, 239219, Note_on_c, 11, 74, 0
14, 239220, Note_on_c, 11, 76, 84
14, 239279, Note_on_c, 11, 76, 0
14, 239280, Note_on_c, 11, 79, 92
14, 239339, Note_on_c, 11, 79, 0
14, 239340, Note_on_c, 11, 77, 84
14, 239399, Note_on_c, 11, 77, 0
14, 239400, Note_on_c, 11, 76, 84
14, 239459, Note_on_c, 11, 76, 0
14, 239460, Note_on_c, 11, 74, 84
14, 239511, Note_on_c, 11, 74, 0
14, 239520, Note_on_c, 11, 73, 84
14, 239564, Note_on_c, 11, 73, 0
14, 239580, Note_on_c, 11, 73, 84
14, 239639, Note_on_c, 11, 73, 0
14, 239640, Note_on_c, 11, 74, 84
14, 239699, Note_on_c, 11, 74, 0
14, 239700, Note_on_c, 11, 76, 84
14, 239759, Note_on_c, 11, 76, 0
14, 239760, Note_on_c, 11, 79, 92
14, 239819, Note_on_c, 11, 79, 0
14, 239820, Note_on_c, 11, 77, 84
14, 239879, Note_on_c, 11, 77, 0
14, 239880, Note_on_c, 11, 76, 84
14, 239939, Note_on_c, 11, 76, 0
14, 239940, Note_on_c, 11, 74, 84
14, 239991, Note_on_c, 11, 74, 0
14, 240000, Note_on_c, 11, 73, 84
14, 240051, Note_on_c, 11, 73, 0
14, 240060, Note_on_c, 11, 73, 84
14, 240060, Note_on_c, 11, 76, 84
14, 240111, Note_on_c, 11, 73, 0
14, 240111, Note_on_c, 11, 76, 0
14, 240120, Note_on_c, 11, 73, 84
14, 240120, Note_on_c, 11, 76, 84
14, 240171, Note_on_c, 11, 73, 0
14, 240171, Note_on_c, 11, 76, 0
14, 240180, Note_on_c, 11, 73, 84
14, 240180, Note_on_c, 11, 76, 84
14, 240231, Note_on_c, 11, 73, 0
14, 240231, Note_on_c, 11, 76, 0
14, 240240, Note_on_c, 11, 76, 84
14, 240240, Note_on_c, 11, 73, 84
14, 240291, Note_on_c, 11, 76, 0
14, 240291, Note_on_c, 11, 73, 0
14, 240300, Note_on_c, 11, 76, 84
14, 240300, Note_on_c, 11, 73, 84
14, 240351, Note_on_c, 11, 76, 0
14, 240351, Note_on_c, 11, 73, 0
14, 240360, Note_on_c, 11, 73, 84
14, 240360, Note_on_c, 11, 76, 84
14, 240411, Note_on_c, 11, 73, 0
14, 240411, Note_on_c, 11, 76, 0
14, 240420, Note_on_c, 11, 73, 84
14, 240420, Note_on_c, 11, 76, 84
14, 240471, Note_on_c, 11, 73, 0
14, 240471, Note_on_c, 11, 76, 0
14, 240480, Note_on_c, 11, 76, 84
14, 240480, Note_on_c, 11, 73, 84
14, 240599, Note_on_c, 11, 76, 0
14, 240599, Note_on_c, 11, 73, 0
14, 241440, Note_on_c, 11, 79, 84
14, 241440, Note_on_c, 11, 69, 84
14, 241559, Note_on_c, 11, 79, 0
14, 241559, Note_on_c, 11, 69, 0
14, 242400, Note_on_c, 11, 79, 84
14, 242400, Note_on_c, 11, 69, 84
14, 242519, Note_on_c, 11, 79, 0
14, 242519, Note_on_c, 11, 69, 0
14, 242880, Note_on_c, 11, 69, 84
14, 242880, Note_on_c, 11, 79, 84
14, 242999, Note_on_c, 11, 69, 0
14, 242999, Note_on_c, 11, 79, 0
14, 243360, Note_on_c, 11, 69, 84
14, 243360, Note_on_c, 11, 79, 84
14, 243479, Note_on_c, 11, 69, 0
14, 243479, Note_on_c, 11, 79, 0
14, 243840, Note_on_c, 11, 79, 84
14, 243840, Note_on_c, 11, 69, 84
14, 243959, Note_on_c, 11, 79, 0
14, 243959, Note_on_c, 11, 69, 0
14, 244320, Note_on_c, 11, 73, 84
14, 244320, Note_on_c, 11, 66, 84
14, 244320, Note_on_c, 11, 78, 84
14, 244439, Note_on_c, 11, 73, 0
14, 244439, Note_on_c, 11, 66, 0
14, 244439, Note_on_c, 11, 78, 0
14, 244920, Note_on_c, 11, 66, 76
14, 244979, Note_on_c, 11, 66, 0
14, 244980, Note_on_c, 11, 68, 76
14, 245039, Note_on_c, 11, 68, 0
14, 245040, Note_on_c, 11, 71, 76
14, 245099, Note_on_c, 11, 71, 0
14, 245100, Note_on_c, 11, 70, 76
14, 245159, Note_on_c, 11, 70, 0
14, 245160, Note_on_c, 11, 68, 76
14, 245219, Note_on_c, 11, 68, 0
14, 245220, Note_on_c, 11, 70, 76
14, 245271, Note_on_c, 11, 70, 0
14, 245280, Note_on_c, 11, 71, 76
14, 245519, Note_on_c, 11, 71, 0
14, 245520, Note_on_c, 11, 64, 76
14, 245759, Note_on_c, 11, 64, 0
14, 245760, Note_on_c, 11, 62, 76
14, 245999, Note_on_c, 11, 62, 0
14, 246000, Note_on_c, 11, 66, 76
14, 246239, Note_on_c, 11, 66, 0
14, 246240, Note_on_c, 11, 66, 76
14, 246359, Note_on_c, 11, 66, 0
14, 246840, Note_on_c, 11, 66, 76
14, 246899, Note_on_c, 11, 66, 0
14, 246900, Note_on_c, 11, 68, 76
14, 246959, Note_on_c, 11, 68, 0
14, 246960, Note_on_c, 11, 71, 76
14, 247019, Note_on_c, 11, 71, 0
14, 247020, Note_on_c, 11, 70, 76
14, 247079, Note_on_c, 11, 70, 0
14, 247080, Note_on_c, 11, 68, 76
14, 247139, Note_on_c, 11, 68, 0
14, 247140, Note_on_c, 11, 70, 76
14, 247191, Note_on_c, 11, 70, 0
14, 247200, Note_on_c, 11, 71, 76
14, 247439, Note_on_c, 11, 71, 0
14, 247440, Note_on_c, 11, 64, 76
14, 247679, Note_on_c, 11, 64, 0
14, 247680, Note_on_c, 11, 62, 76
14, 247919, Note_on_c, 11, 62, 0
14, 247920, Note_on_c, 11, 66, 76
14, 248159, Note_on_c, 11, 66, 0
14, 248160, Note_on_c, 11, 66, 76
14, 248279, Note_on_c, 11, 66, 0
14, 249240, Note_on_c, 11, 71, 76
14, 249299, Note_on_c, 11, 71, 0
14, 249300, Note_on_c, 11, 73, 76
14, 249359, Note_on_c, 11, 73, 0
14, 249360, Note_on_c, 11, 76, 76
14, 249419, Note_on_c, 11, 76, 0
14, 249420, Note_on_c, 11, 74, 76
14, 249479, Note_on_c, 11, 74, 0
14, 249480, Note_on_c, 11, 73, 76
14, 249539, Note_on_c, 11, 73, 0
14, 249540, Note_on_c, 11, 71, 76
14, 249591, Note_on_c, 11, 71, 0
14, 249600, Note_on_c, 11, 76, 76
14, 249839, Note_on_c, 11, 76, 0
14, 249840, Note_on_c, 11, 74, 76
14, 250079, Note_on_c, 11, 74, 0
14, 250080, Note_on_c, 11, 73, 76
14, 250199, Note_on_c, 11, 73, 0
14, 251160, Note_on_c, 11, 71, 76
14, 251219, Note_on_c, 11, 71, 0
14, 251220, Note_on_c, 11, 73, 76
14, 251279, Note_on_c, 11, 73, 0
14, 251280, Note_on_c, 11, 76, 76
14, 251339, Note_on_c, 11, 76, 0
14, 251340, Note_on_c, 11, 74, 76
14, 251399, Note_on_c, 11, 74, 0
14, 251400, Note_on_c, 11, 73, 76
14, 251459, Note_on_c, 11, 73, 0
14, 251460, Note_on_c, 11, 71, 76
14, 251511, Note_on_c, 11, 71, 0
14, 251520, Note_on_c, 11, 76, 76
14, 251759, Note_on_c, 11, 76, 0
14, 251760, Note_on_c, 11, 73, 76
14, 251999, Note_on_c, 11, 73, 0
14, 252000, Note_on_c, 11, 74, 76
14, 252239, Note_on_c, 11, 74, 0
14, 252240, Note_on_c, 11, 76, 76
14, 252479, Note_on_c, 11, 76, 0
14, 252480, Note_on_c, 11, 78, 76
14, 252569, Note_on_c, 11, 78, 0
14, 252600, Note_on_c, 11, 66, 76
14, 252659, Note_on_c, 11, 66, 0
14, 252660, Note_on_c, 11, 67, 76
14, 252719, Note_on_c, 11, 67, 0
14, 252720, Note_on_c, 11, 69, 76
14, 252779, Note_on_c, 11, 69, 0
14, 252780, Note_on_c, 11, 67, 76
14, 252839, Note_on_c, 11, 67, 0
14, 252840, Note_on_c, 11, 66, 76
14, 252899, Note_on_c, 11, 66, 0
14, 252900, Note_on_c, 11, 64, 76
14, 252959, Note_on_c, 11, 64, 0
14, 252960, Note_on_c, 11, 62, 76
14, 253049, Note_on_c, 11, 62, 0
14, 253560, Note_on_c, 11, 62, 76
14, 253619, Note_on_c, 11, 62, 0
14, 253620, Note_on_c, 11, 64, 76
14, 253679, Note_on_c, 11, 64, 0
14, 253680, Note_on_c, 11, 66, 76
14, 253739, Note_on_c, 11, 66, 0
14, 253740, Note_on_c, 11, 64, 76
14, 253799, Note_on_c, 11, 64, 0
14, 253800, Note_on_c, 11, 62, 76
14, 253859, Note_on_c, 11, 62, 0
14, 253860, Note_on_c, 11, 61, 76
14, 253919, Note_on_c, 11, 61, 0
14, 253920, Note_on_c, 11, 59, 76
14, 254009, Note_on_c, 11, 59, 0
14, 254520, Note_on_c, 11, 62, 76
14, 254579, Note_on_c, 11, 62, 0
14, 254580, Note_on_c, 11, 64, 76
14, 254639, Note_on_c, 11, 64, 0
14, 254640, Note_on_c, 11, 66, 76
14, 254699, Note_on_c, 11, 66, 0
14, 254700, Note_on_c, 11, 64, 76
14, 254759, Note_on_c, 11, 64, 0
14, 254760, Note_on_c, 11, 62, 76
14, 254819, Note_on_c, 11, 62, 0
14, 254820, Note_on_c, 11, 61, 76
14, 254879, Note_on_c, 11, 61, 0
14, 254880, Note_on_c, 11, 59, 76
14, 254969, Note_on_c, 11, 59, 0
14, 255480, Note_on_c, 11, 62, 76
14, 255539, Note_on_c, 11, 62, 0
14, 255540, Note_on_c, 11, 64, 76
14, 255599, Note_on_c, 11, 64, 0
14, 255600, Note_on_c, 11, 65, 76
14, 255659, Note_on_c, 11, 65, 0
14, 255660, Note_on_c, 11, 64, 76
14, 255719, Note_on_c, 11, 64, 0
14, 255720, Note_on_c, 11, 62, 76
14, 255779, Note_on_c, 11, 62, 0
14, 255780, Note_on_c, 11, 60, 76
14, 255839, Note_on_c, 11, 60, 0
14, 255840, Note_on_c, 11, 59, 76
14, 255929, Note_on_c, 11, 59, 0
14, 256440, Note_on_c, 11, 60, 76
14, 256499, Note_on_c, 11, 60, 0
14, 256500, Note_on_c, 11, 62, 76
14, 256559, Note_on_c, 11, 62, 0
14, 256560, Note_on_c, 11, 65, 76
14, 256619, Note_on_c, 11, 65, 0
14, 256620, Note_on_c, 11, 63, 76
14, 256679, Note_on_c, 11, 63, 0
14, 256680, Note_on_c, 11, 62, 76
14, 256739, Note_on_c, 11, 62, 0
14, 256740, Note_on_c, 11, 60, 76
14, 256799, Note_on_c, 11, 60, 0
14, 256800, Note_on_c, 11, 67, 76
14, 256889, Note_on_c, 11, 67, 0
14, 257880, Note_on_c, 11, 60, 76
14, 257939, Note_on_c, 11, 60, 0
14, 257940, Note_on_c, 11, 62, 76
14, 257999, Note_on_c, 11, 62, 0
14, 258000, Note_on_c, 11, 63, 76
14, 258059, Note_on_c, 11, 63, 0
14, 258060, Note_on_c, 11, 62, 76
14, 258119, Note_on_c, 11, 62, 0
14, 258120, Note_on_c, 11, 60, 76
14, 258179, Note_on_c, 11, 60, 0
14, 258180, Note_on_c, 11, 58, 76
14, 258239, Note_on_c, 11, 58, 0
14, 258240, Note_on_c, 11, 57, 76
14, 258329, Note_on_c, 11, 57, 0
14, 259320, Note_on_c, 11, 58, 76
14, 259379, Note_on_c, 11, 58, 0
14, 259380, Note_on_c, 11, 60, 76
14, 259439, Note_on_c, 11, 60, 0
14, 259440, Note_on_c, 11, 63, 76
14, 259499, Note_on_c, 11, 63, 0
14, 259500, Note_on_c, 11, 61, 76
14, 259559, Note_on_c, 11, 61, 0
14, 259560, Note_on_c, 11, 60, 76
14, 259619, Note_on_c, 11, 60, 0
14, 259620, Note_on_c, 11, 58, 76
14, 259679, Note_on_c, 11, 58, 0
14, 259680, Note_on_c, 11, 65, 76
14, 259769, Note_on_c, 11, 65, 0
14, 260760, Note_on_c, 11, 57, 76
14, 260819, Note_on_c, 11, 57, 0
14, 260820, Note_on_c, 11, 58, 76
14, 260879, Note_on_c, 11, 58, 0
14, 260880, Note_on_c, 11, 62, 76
14, 260939, Note_on_c, 11, 62, 0
14, 260940, Note_on_c, 11, 60, 76
14, 260999, Note_on_c, 11, 60, 0
14, 261000, Note_on_c, 11, 58, 76
14, 261059, Note_on_c, 11, 58, 0
14, 261060, Note_on_c, 11, 57, 76
14, 261119, Note_on_c, 11, 57, 0
14, 261120, Note_on_c, 11, 57, 76
14, 261209, Note_on_c, 11, 57, 0
14, 262200, Note_on_c, 11, 57, 76
14, 262259, Note_on_c, 11, 57, 0
14, 262260, Note_on_c, 11, 59, 76
14, 262319, Note_on_c, 11, 59, 0
14, 262320, Note_on_c, 11, 62, 76
14, 262379, Note_on_c, 11, 62, 0
14, 262380, Note_on_c, 11, 60, 76
14, 262439, Note_on_c, 11, 60, 0
14, 262440, Note_on_c, 11, 59, 76
14, 262499, Note_on_c, 11, 59, 0
14, 262500, Note_on_c, 11, 57, 76
14, 262559, Note_on_c, 11, 57, 0
14, 262560, Note_on_c, 11, 64, 76
14, 262649, Note_on_c, 11, 64, 0
14, 265560, Note_on_c, 11, 69, 60
14, 265619, Note_on_c, 11, 69, 0
14, 265620, Note_on_c, 11, 71, 60
14, 265679, Note_on_c, 11, 71, 0
14, 265680, Note_on_c, 11, 74, 61
14, 265739, Note_on_c, 11, 74, 0
14, 265740, Note_on_c, 11, 73, 61
14, 265799, Note_on_c, 11, 73, 0
14, 265800, Note_on_c, 11, 71, 61
14, 265859, Note_on_c, 11, 71, 0
14, 265860, Note_on_c, 11, 69, 61
14, 265919, Note_on_c, 11, 69, 0
14, 265920, Note_on_c, 11, 76, 62
14, 266009, Note_on_c, 11, 76, 0
14, 266040, Note_on_c, 11, 69, 62
14, 266099, Note_on_c, 11, 69, 0
14, 266100, Note_on_c, 11, 71, 62
14, 266159, Note_on_c, 11, 71, 0
14, 266160, Note_on_c, 11, 74, 63
14, 266219, Note_on_c, 11, 74, 0
14, 266220, Note_on_c, 11, 73, 63
14, 266279, Note_on_c, 11, 73, 0
14, 266280, Note_on_c, 11, 71, 63
14, 266339, Note_on_c, 11, 71, 0
14, 266340, Note_on_c, 11, 69, 63
14, 266399, Note_on_c, 11, 69, 0
14, 266400, Note_on_c, 11, 76, 64
14, 266489, Note_on_c, 11, 76, 0
14, 266520, Note_on_c, 11, 71, 64
14, 266579, Note_on_c, 11, 71, 0
14, 266580, Note_on_c, 11, 73, 64
14, 266639, Note_on_c, 11, 73, 0
14, 266640, Note_on_c, 11, 76, 65
14, 266699, Note_on_c, 11, 76, 0
14, 266700, Note_on_c, 11, 74, 65
14, 266759, Note_on_c, 11, 74, 0
14, 266760, Note_on_c, 11, 73, 65
14, 266819, Note_on_c, 11, 73, 0
14, 266820, Note_on_c, 11, 71, 65
14, 266879, Note_on_c, 11, 71, 0
14, 266880, Note_on_c, 11, 76, 66
14, 266969, Note_on_c, 11, 76, 0
14, 267000, Note_on_c, 11, 71, 66
14, 267059, Note_on_c, 11, 71, 0
14, 267060, Note_on_c, 11, 73, 66
14, 267119, Note_on_c, 11, 73, 0
14, 267120, Note_on_c, 11, 76, 67
14, 267179, Note_on_c, 11, 76, 0
14, 267180, Note_on_c, 11, 74, 67
14, 267239, Note_on_c, 11, 74, 0
14, 267240, Note_on_c, 11, 73, 67
14, 267299, Note_on_c, 11, 73, 0
14, 267300, Note_on_c, 11, 71, 67
14, 267359, Note_on_c, 11, 71, 0
14, 267360, Note_on_c, 11, 76, 68
14, 267449, Note_on_c, 11, 76, 0
14, 267960, Note_on_c, 11, 74, 70
14, 268019, Note_on_c, 11, 74, 0
14, 268020, Note_on_c, 11, 76, 70
14, 268079, Note_on_c, 11, 76, 0
14, 268080, Note_on_c, 11, 80, 71
14, 268139, Note_on_c, 11, 80, 0
14, 268140, Note_on_c, 11, 78, 71
14, 268199, Note_on_c, 11, 78, 0
14, 268200, Note_on_c, 11, 76, 71
14, 268259, Note_on_c, 11, 76, 0
14, 268260, Note_on_c, 11, 74, 71
14, 268319, Note_on_c, 11, 74, 0
14, 268320, Note_on_c, 11, 80, 72
14, 268409, Note_on_c, 11, 80, 0
14, 268920, Note_on_c, 11, 78, 74
14, 268979, Note_on_c, 11, 78, 0
14, 268980, Note_on_c, 11, 80, 74
14, 269039, Note_on_c, 11, 80, 0
14, 269040, Note_on_c, 11, 83, 75
14, 269099, Note_on_c, 11, 83, 0
14, 269100, Note_on_c, 11, 81, 75
14, 269159, Note_on_c, 11, 81, 0
14, 269160, Note_on_c, 11, 80, 75
14, 269219, Note_on_c, 11, 80, 0
14, 269220, Note_on_c, 11, 78, 75
14, 269279, Note_on_c, 11, 78, 0
14, 269280, Note_on_c, 11, 83, 76
14, 269369, Note_on_c, 11, 83, 0
14, 269880, Note_on_c, 11, 81, 78
14, 269939, Note_on_c, 11, 81, 0
14, 269940, Note_on_c, 11, 83, 78
14, 269999, Note_on_c, 11, 83, 0
14, 270000, Note_on_c, 11, 86, 79
14, 270059, Note_on_c, 11, 86, 0
14, 270060, Note_on_c, 11, 85, 79
14, 270119, Note_on_c, 11, 85, 0
14, 270120, Note_on_c, 11, 83, 79
14, 270179, Note_on_c, 11, 83, 0
14, 270180, Note_on_c, 11, 81, 79
14, 270239, Note_on_c, 11, 81, 0
14, 270240, Note_on_c, 11, 86, 80
14, 270329, Note_on_c, 11, 86, 0
14, 270840, Note_on_c, 11, 80, 82
14, 270899, Note_on_c, 11, 80, 0
14, 270900, Note_on_c, 11, 81, 82
14, 270959, Note_on_c, 11, 81, 0
14, 270960, Note_on_c, 11, 85, 83
14, 271019, Note_on_c, 11, 85, 0
14, 271020, Note_on_c, 11, 83, 83
14, 271079, Note_on_c, 11, 83, 0
14, 271080, Note_on_c, 11, 81, 83
14, 271139, Note_on_c, 11, 81, 0
14, 271140, Note_on_c, 11, 80, 83
14, 271191, Note_on_c, 11, 80, 0
14, 271200, Note_on_c, 11, 64, 84
14, 271200, Note_on_c, 11, 73, 84
14, 271200, Note_on_c, 11, 81, 84
14, 271319, Note_on_c, 11, 64, 0
14, 271319, Note_on_c, 11, 73, 0
14, 271319, Note_on_c, 11, 81, 0
14, 271680, Note_on_c, 11, 73, 84
14, 271680, Note_on_c, 11, 81, 84
14, 271680, Note_on_c, 11, 64, 84
14, 271799, Note_on_c, 11, 73, 0
14, 271799, Note_on_c, 11, 81, 0
14, 271799, Note_on_c, 11, 64, 0
14, 272160, Note_on_c, 11, 64, 84
14, 272160, Note_on_c, 11, 83, 84
14, 272160, Note_on_c, 11, 74, 84
14, 272279, Note_on_c, 11, 64, 0
14, 272279, Note_on_c, 11, 83, 0
14, 272279, Note_on_c, 11, 74, 0
14, 272640, Note_on_c, 11, 64, 84
14, 272640, Note_on_c, 11, 74, 84
14, 272640, Note_on_c, 11, 83, 84
14, 272759, Note_on_c, 11, 64, 0
14, 272759, Note_on_c, 11, 74, 0
14, 272759, Note_on_c, 11, 83, 0
14, 273120, Note_on_c, 11, 64, 84
14, 273120, Note_on_c, 11, 81, 84
14, 273120, Note_on_c, 11, 73, 84
14, 273239, Note_on_c, 11, 64, 0
14, 273239, Note_on_c, 11, 81, 0
14, 273239, Note_on_c, 11, 73, 0
14, 273360, Note_on_c, 11, 64, 84
14, 273360, Note_on_c, 11, 81, 84
14, 273360, Note_on_c, 11, 73, 84
14, 273479, Note_on_c, 11, 64, 0
14, 273479, Note_on_c, 11, 81, 0
14, 273479, Note_on_c, 11, 73, 0
14, 273600, Note_on_c, 11, 64, 84
14, 273600, Note_on_c, 11, 81, 84
14, 273600, Note_on_c, 11, 73, 84
14, 273719, Note_on_c, 11, 64, 0
14, 273719, Note_on_c, 11, 81, 0
14, 273719, Note_on_c, 11, 73, 0
14, 273840, Note_on_c, 11, 73, 84
14, 273840, Note_on_c, 11, 64, 84
14, 273840, Note_on_c, 11, 81, 84
14, 273959, Note_on_c, 11, 73, 0
14, 273959, Note_on_c, 11, 64, 0
14, 273959, Note_on_c, 11, 81, 0
14, 274080, Note_on_c, 11, 64, 84
14, 274080, Note_on_c, 11, 71, 84
14, 274080, Note_on_c, 11, 80, 84
14, 274199, Note_on_c, 11, 64, 0
14, 274199, Note_on_c, 11, 71, 0
14, 274199, Note_on_c, 11, 80, 0
14, 274320, Note_on_c, 11, 64, 84
14, 274320, Note_on_c, 11, 71, 84
14, 274320, Note_on_c, 11, 80, 84
14, 274439, Note_on_c, 11, 64, 0
14, 274439, Note_on_c, 11, 71, 0
14, 274439, Note_on_c, 11, 80, 0
14, 274560, Note_on_c, 11, 71, 84
14, 274560, Note_on_c, 11, 64, 84
14, 274560, Note_on_c, 11, 80, 84
14, 274679, Note_on_c, 11, 71, 0
14, 274679, Note_on_c, 11, 64, 0
14, 274679, Note_on_c, 11, 80, 0
14, 274800, Note_on_c, 11, 64, 84
14, 274800, Note_on_c, 11, 80, 84
14, 274800, Note_on_c, 11, 71, 84
14, 274919, Note_on_c, 11, 64, 0
14, 274919, Note_on_c, 11, 80, 0
14, 274919, Note_on_c, 11, 71, 0
14, 275040, Note_on_c, 11, 73, 84
14, 275040, Note_on_c, 11, 64, 84
14, 275040, Note_on_c, 11, 81, 84
14, 275159, Note_on_c, 11, 73, 0
14, 275159, Note_on_c, 11, 64, 0
14, 275159, Note_on_c, 11, 81, 0
14, 275520, Note_on_c, 11, 73, 84
14, 275520, Note_on_c, 11, 81, 84
14, 275520, Note_on_c, 11, 64, 84
14, 275639, Note_on_c, 11, 73, 0
14, 275639, Note_on_c, 11, 81, 0
14, 275639, Note_on_c, 11, 64, 0
14, 276000, Note_on_c, 11, 83, 84
14, 276000, Note_on_c, 11, 74, 84
14, 276000, Note_on_c, 11, 64, 84
14, 276119, Note_on_c, 11, 83, 0
14, 276119, Note_on_c, 11, 74, 0
14, 276119, Note_on_c, 11, 64, 0
14, 276480, Note_on_c, 11, 74, 84
14, 276480, Note_on_c, 11, 64, 84
14, 276480, Note_on_c, 11, 83, 84
14, 276599, Note_on_c, 11, 74, 0
14, 276599, Note_on_c, 11, 64, 0
14, 276599, Note_on_c, 11, 83, 0
14, 276960, Note_on_c, 11, 76, 92
14, 277011, Note_on_c, 11, 76, 0
14, 277020, Note_on_c, 11, 76, 84
14, 277071, Note_on_c, 11, 76, 0
14, 277080, Note_on_c, 11, 76, 84
14, 277131, Note_on_c, 11, 76, 0
14, 277140, Note_on_c, 11, 76, 84
14, 277191, Note_on_c, 11, 76, 0
14, 277200, Note_on_c, 11, 76, 84
14, 277251, Note_on_c, 11, 76, 0
14, 277260, Note_on_c, 11, 76, 84
14, 277311, Note_on_c, 11, 76, 0
14, 277320, Note_on_c, 11, 74, 84
14, 277371, Note_on_c, 11, 74, 0
14, 277380, Note_on_c, 11, 74, 84
14, 277431, Note_on_c, 11, 74, 0
14, 277440, Note_on_c, 11, 73, 84
14, 277491, Note_on_c, 11, 73, 0
14, 277500, Note_on_c, 11, 73, 84
14, 277551, Note_on_c, 11, 73, 0
14, 277560, Note_on_c, 11, 76, 84
14, 277611, Note_on_c, 11, 76, 0
14, 277620, Note_on_c, 11, 76, 84
14, 277671, Note_on_c, 11, 76, 0
14, 277680, Note_on_c, 11, 74, 84
14, 277731, Note_on_c, 11, 74, 0
14, 277740, Note_on_c, 11, 74, 84
14, 277791, Note_on_c, 11, 74, 0
14, 277800, Note_on_c, 11, 73, 84
14, 277851, Note_on_c, 11, 73, 0
14, 277860, Note_on_c, 11, 73, 84
14, 277911, Note_on_c, 11, 73, 0
14, 277920, Note_on_c, 11, 80, 84
14, 277971, Note_on_c, 11, 80, 0
14, 277980, Note_on_c, 11, 80, 84
14, 278031, Note_on_c, 11, 80, 0
14, 278040, Note_on_c, 11, 78, 84
14, 278091, Note_on_c, 11, 78, 0
14, 278100, Note_on_c, 11, 78, 84
14, 278151, Note_on_c, 11, 78, 0
14, 278160, Note_on_c, 11, 76, 84
14, 278211, Note_on_c, 11, 76, 0
14, 278220, Note_on_c, 11, 76, 84
14, 278271, Note_on_c, 11, 76, 0
14, 278280, Note_on_c, 11, 74, 84
14, 278331, Note_on_c, 11, 74, 0
14, 278340, Note_on_c, 11, 74, 84
14, 278391, Note_on_c, 11, 74, 0
14, 278400, Note_on_c, 11, 73, 84
14, 278451, Note_on_c, 11, 73, 0
14, 278460, Note_on_c, 11, 73, 84
14, 278511, Note_on_c, 11, 73, 0
14, 278520, Note_on_c, 11, 71, 84
14, 278571, Note_on_c, 11, 71, 0
14, 278580, Note_on_c, 11, 71, 84
14, 278631, Note_on_c, 11, 71, 0
14, 278640, Note_on_c, 11, 69, 84
14, 278691, Note_on_c, 11, 69, 0
14, 278700, Note_on_c, 11, 69, 84
14, 278751, Note_on_c, 11, 69, 0
14, 278760, Note_on_c, 11, 68, 84
14, 278811, Note_on_c, 11, 68, 0
14, 278820, Note_on_c, 11, 68, 84
14, 278871, Note_on_c, 11, 68, 0
14, 278880, Note_on_c, 11, 81, 84
14, 278931, Note_on_c, 11, 81, 0
14, 278940, Note_on_c, 11, 81, 84
14, 278991, Note_on_c, 11, 81, 0
14, 279000, Note_on_c, 11, 80, 84
14, 279051, Note_on_c, 11, 80, 0
14, 279060, Note_on_c, 11, 80, 84
14, 279111, Note_on_c, 11, 80, 0
14, 279120, Note_on_c, 11, 78, 84
14, 279171, Note_on_c, 11, 78, 0
14, 279180, Note_on_c, 11, 78, 84
14, 279231, Note_on_c, 11, 78, 0
14, 279240, Note_on_c, 11, 76, 84
14, 279291, Note_on_c, 11, 76, 0
14, 279300, Note_on_c, 11, 76, 84
14, 279351, Note_on_c, 11, 76, 0
14, 279360, Note_on_c, 11, 74, 84
14, 279411, Note_on_c, 11, 74, 0
14, 279420, Note_on_c, 11, 74, 84
14, 279471, Note_on_c, 11, 74, 0
14, 279480, Note_on_c, 11, 73, 84
14, 279531, Note_on_c, 11, 73, 0
14, 279540, Note_on_c, 11, 73, 84
14, 279591, Note_on_c, 11, 73, 0
14, 279600, Note_on_c, 11, 71, 84
14, 279651, Note_on_c, 11, 71, 0
14, 279660, Note_on_c, 11, 71, 84
14, 279711, Note_on_c, 11, 71, 0
14, 279720, Note_on_c, 11, 69, 84
14, 279771, Note_on_c, 11, 69, 0
14, 279780, Note_on_c, 11, 69, 84
14, 279831, Note_on_c, 11, 69, 0
14, 279840, Note_on_c, 11, 83, 84
14, 279891, Note_on_c, 11, 83, 0
14, 279900, Note_on_c, 11, 83, 84
14, 279951, Note_on_c, 11, 83, 0
14, 279960, Note_on_c, 11, 81, 84
14, 280011, Note_on_c, 11, 81, 0
14, 280020, Note_on_c, 11, 81, 84
14, 280071, Note_on_c, 11, 81, 0
14, 280080, Note_on_c, 11, 80, 84
14, 280131, Note_on_c, 11, 80, 0
14, 280140, Note_on_c, 11, 80, 84
14, 280191, Note_on_c, 11, 80, 0
14, 280200, Note_on_c, 11, 78, 84
14, 280251, Note_on_c, 11, 78, 0
14, 280260, Note_on_c, 11, 78, 84
14, 280311, Note_on_c, 11, 78, 0
14, 280320, Note_on_c, 11, 76, 84
14, 280371, Note_on_c, 11, 76, 0
14, 280380, Note_on_c, 11, 76, 84
14, 280431, Note_on_c, 11, 76, 0
14, 280440, Note_on_c, 11, 74, 84
14, 280491, Note_on_c, 11, 74, 0
14, 280500, Note_on_c, 11, 74, 84
14, 280551, Note_on_c, 11, 74, 0
14, 280560, Note_on_c, 11, 73, 84
14, 280611, Note_on_c, 11, 73, 0
14, 280620, Note_on_c, 11, 73, 84
14, 280671, Note_on_c, 11, 73, 0
14, 280680, Note_on_c, 11, 71, 84
14, 280731, Note_on_c, 11, 71, 0
14, 280740, Note_on_c, 11, 71, 84
14, 280791, Note_on_c, 11, 71, 0
14, 280800, Note_on_c, 11, 85, 84
14, 280851, Note_on_c, 11, 85, 0
14, 280860, Note_on_c, 11, 85, 84
14, 280911, Note_on_c, 11, 85, 0
14, 280920, Note_on_c, 11, 83, 84
14, 280971, Note_on_c, 11, 83, 0
14, 280980, Note_on_c, 11, 83, 84
14, 281031, Note_on_c, 11, 83, 0
14, 281040, Note_on_c, 11, 81, 84
14, 281091, Note_on_c, 11, 81, 0
14, 281100, Note_on_c, 11, 81, 84
14, 281151, Note_on_c, 11, 81, 0
14, 281160, Note_on_c, 11, 80, 84
14, 281211, Note_on_c, 11, 80, 0
14, 281220, Note_on_c, 11, 80, 84
14, 281271, Note_on_c, 11, 80, 0
14, 281280, Note_on_c, 11, 78, 84
14, 281331, Note_on_c, 11, 78, 0
14, 281340, Note_on_c, 11, 78, 84
14, 281391, Note_on_c, 11, 78, 0
14, 281400, Note_on_c, 11, 76, 84
14, 281451, Note_on_c, 11, 76, 0
14, 281460, Note_on_c, 11, 76, 84
14, 281511, Note_on_c, 11, 76, 0
14, 281520, Note_on_c, 11, 74, 84
14, 281571, Note_on_c, 11, 74, 0
14, 281580, Note_on_c, 11, 74, 84
14, 281631, Note_on_c, 11, 74, 0
14, 281640, Note_on_c, 11, 73, 84
14, 281691, Note_on_c, 11, 73, 0
14, 281700, Note_on_c, 11, 73, 84
14, 281751, Note_on_c, 11, 73, 0
14, 281760, Note_on_c, 11, 61, 92
14, 281811, Note_on_c, 11, 61, 0
14, 281820, Note_on_c, 11, 61, 92
14, 281871, Note_on_c, 11, 61, 0
14, 281880, Note_on_c, 11, 62, 92
14, 281931, Note_on_c, 11, 62, 0
14, 281940, Note_on_c, 11, 62, 92
14, 281991, Note_on_c, 11, 62, 0
14, 282000, Note_on_c, 11, 64, 92
14, 282051, Note_on_c, 11, 64, 0
14, 282060, Note_on_c, 11, 64, 92
14, 282111, Note_on_c, 11, 64, 0
14, 282120, Note_on_c, 11, 66, 92
14, 282171, Note_on_c, 11, 66, 0
14, 282180, Note_on_c, 11, 66, 92
14, 282231, Note_on_c, 11, 66, 0
14, 282240, Note_on_c, 11, 67, 92
14, 282291, Note_on_c, 11, 67, 0
14, 282300, Note_on_c, 11, 67, 92
14, 282351, Note_on_c, 11, 67, 0
14, 282360, Note_on_c, 11, 69, 92
14, 282411, Note_on_c, 11, 69, 0
14, 282420, Note_on_c, 11, 69, 92
14, 282471, Note_on_c, 11, 69, 0
14, 282480, Note_on_c, 11, 71, 92
14, 282531, Note_on_c, 11, 71, 0
14, 282540, Note_on_c, 11, 71, 92
14, 282591, Note_on_c, 11, 71, 0
14, 282600, Note_on_c, 11, 73, 92
14, 282651, Note_on_c, 11, 73, 0
14, 282660, Note_on_c, 11, 73, 92
14, 282711, Note_on_c, 11, 73, 0
14, 282720, Note_on_c, 11, 74, 92
14, 282771, Note_on_c, 11, 74, 0
14, 282780, Note_on_c, 11, 74, 92
14, 282831, Note_on_c, 11, 74, 0
14, 282840, Note_on_c, 11, 76, 92
14, 282891, Note_on_c, 11, 76, 0
14, 282900, Note_on_c, 11, 76, 92
14, 282951, Note_on_c, 11, 76, 0
14, 282960, Note_on_c, 11, 78, 92
14, 283011, Note_on_c, 11, 78, 0
14, 283020, Note_on_c, 11, 78, 92
14, 283071, Note_on_c, 11, 78, 0
14, 283080, Note_on_c, 11, 79, 92
14, 283131, Note_on_c, 11, 79, 0
14, 283140, Note_on_c, 11, 79, 92
14, 283191, Note_on_c, 11, 79, 0
14, 283200, Note_on_c, 11, 81, 92
14, 283251, Note_on_c, 11, 81, 0
14, 283260, Note_on_c, 11, 81, 92
14, 283311, Note_on_c, 11, 81, 0
14, 283320, Note_on_c, 11, 83, 92
14, 283371, Note_on_c, 11, 83, 0
14, 283380, Note_on_c, 11, 83, 92
14, 283431, Note_on_c, 11, 83, 0
14, 283440, Note_on_c, 11, 85, 92
14, 283491, Note_on_c, 11, 85, 0
14, 283500, Note_on_c, 11, 85, 92
14, 283551, Note_on_c, 11, 85, 0
14, 283560, Note_on_c, 11, 86, 92
14, 283611, Note_on_c, 11, 86, 0
14, 283620, Note_on_c, 11, 86, 92
14, 283671, Note_on_c, 11, 86, 0
14, 283680, Note_on_c, 11, 88, 100
14, 283731, Note_on_c, 11, 88, 0
14, 283740, Note_on_c, 11, 69, 92
14, 283791, Note_on_c, 11, 69, 0
14, 283800, Note_on_c, 11, 81, 92
14, 283851, Note_on_c, 11, 81, 0
14, 283860, Note_on_c, 11, 81, 92
14, 283911, Note_on_c, 11, 81, 0
14, 283920, Note_on_c, 11, 81, 92
14, 283971, Note_on_c, 11, 81, 0
14, 283980, Note_on_c, 11, 81, 92
14, 284031, Note_on_c, 11, 81, 0
14, 284040, Note_on_c, 11, 81, 92
14, 284091, Note_on_c, 11, 81, 0
14, 284100, Note_on_c, 11, 81, 92
14, 284151, Note_on_c, 11, 81, 0
14, 284160, Note_on_c, 11, 81, 100
14, 284211, Note_on_c, 11, 81, 0
14, 284220, Note_on_c, 11, 81, 92
14, 284271, Note_on_c, 11, 81, 0
14, 284280, Note_on_c, 11, 69, 92
14, 284331, Note_on_c, 11, 69, 0
14, 284340, Note_on_c, 11, 69, 92
14, 284391, Note_on_c, 11, 69, 0
14, 284400, Note_on_c, 11, 81, 92
14, 284451, Note_on_c, 11, 81, 0
14, 284460, Note_on_c, 11, 81, 92
14, 284511, Note_on_c, 11, 81, 0
14, 284520, Note_on_c, 11, 81, 92
14, 284571, Note_on_c, 11, 81, 0
14, 284580, Note_on_c, 11, 81, 92
14, 284631, Note_on_c, 11, 81, 0
14, 284640, Note_on_c, 11, 81, 100
14, 284691, Note_on_c, 11, 81, 0
14, 284700, Note_on_c, 11, 81, 92
14, 284751, Note_on_c, 11, 81, 0
14, 284760, Note_on_c, 11, 69, 92
14, 284811, Note_on_c, 11, 69, 0
14, 284820, Note_on_c, 11, 69, 92
14, 284871, Note_on_c, 11, 69, 0
14, 284880, Note_on_c, 11, 81, 92
14, 284931, Note_on_c, 11, 81, 0
14, 284940, Note_on_c, 11, 81, 92
14, 284991, Note_on_c, 11, 81, 0
14, 285000, Note_on_c, 11, 81, 92
14, 285051, Note_on_c, 11, 81, 0
14, 285060, Note_on_c, 11, 81, 92
14, 285111, Note_on_c, 11, 81, 0
14, 285120, Note_on_c, 11, 80, 100
14, 285171, Note_on_c, 11, 80, 0
14, 285180, Note_on_c, 11, 80, 92
14, 285231, Note_on_c, 11, 80, 0
14, 285240, Note_on_c, 11, 68, 92
14, 285291, Note_on_c, 11, 68, 0
14, 285300, Note_on_c, 11, 68, 92
14, 285351, Note_on_c, 11, 68, 0
14, 285360, Note_on_c, 11, 80, 92
14, 285411, Note_on_c, 11, 80, 0
14, 285420, Note_on_c, 11, 80, 92
14, 285471, Note_on_c, 11, 80, 0
14, 285480, Note_on_c, 11, 80, 92
14, 285531, Note_on_c, 11, 80, 0
14, 285540, Note_on_c, 11, 80, 92
14, 285591, Note_on_c, 11, 80, 0
14, 286560, Note_on_c, 11, 73, 52
14, 286611, Note_on_c, 11, 73, 0
14, 286620, Note_on_c, 11, 73, 52
14, 286671, Note_on_c, 11, 73, 0
14, 286680, Note_on_c, 11, 71, 53
14, 286731, Note_on_c, 11, 71, 0
14, 286740, Note_on_c, 11, 71, 54
14, 286791, Note_on_c, 11, 71, 0
14, 286800, Note_on_c, 11, 69, 55
14, 286851, Note_on_c, 11, 69, 0
14, 286860, Note_on_c, 11, 69, 56
14, 286911, Note_on_c, 11, 69, 0
14, 286920, Note_on_c, 11, 68, 57
14, 286971, Note_on_c, 11, 68, 0
14, 286980, Note_on_c, 11, 68, 57
14, 287031, Note_on_c, 11, 68, 0
14, 287040, Note_on_c, 11, 66, 58
14, 287091, Note_on_c, 11, 66, 0
14, 287100, Note_on_c, 11, 66, 59
14, 287151, Note_on_c, 11, 66, 0
14, 287160, Note_on_c, 11, 64, 60
14, 287211, Note_on_c, 11, 64, 0
14, 287220, Note_on_c, 11, 64, 61
14, 287271, Note_on_c, 11, 64, 0
14, 287280, Note_on_c, 11, 62, 62
14, 287331, Note_on_c, 11, 62, 0
14, 287340, Note_on_c, 11, 62, 62
14, 287391, Note_on_c, 11, 62, 0
14, 287400, Note_on_c, 11, 61, 63
14, 287451, Note_on_c, 11, 61, 0
14, 287460, Note_on_c, 11, 61, 64
14, 287511, Note_on_c, 11, 61, 0
14, 287520, Note_on_c, 11, 62, 65
14, 287571, Note_on_c, 11, 62, 0
14, 287580, Note_on_c, 11, 62, 66
14, 287631, Note_on_c, 11, 62, 0
14, 287640, Note_on_c, 11, 64, 67
14, 287691, Note_on_c, 11, 64, 0
14, 287700, Note_on_c, 11, 64, 67
14, 287751, Note_on_c, 11, 64, 0
14, 287760, Note_on_c, 11, 66, 68
14, 287811, Note_on_c, 11, 66, 0
14, 287820, Note_on_c, 11, 66, 69
14, 287871, Note_on_c, 11, 66, 0
14, 287880, Note_on_c, 11, 68, 70
14, 287931, Note_on_c, 11, 68, 0
14, 287940, Note_on_c, 11, 68, 71
14, 287991, Note_on_c, 11, 68, 0
14, 288000, Note_on_c, 11, 69, 72
14, 288051, Note_on_c, 11, 69, 0
14, 288060, Note_on_c, 11, 69, 72
14, 288111, Note_on_c, 11, 69, 0
14, 288120, Note_on_c, 11, 71, 73
14, 288171, Note_on_c, 11, 71, 0
14, 288180, Note_on_c, 11, 71, 74
14, 288231, Note_on_c, 11, 71, 0
14, 288240, Note_on_c, 11, 73, 75
14, 288291, Note_on_c, 11, 73, 0
14, 288300, Note_on_c, 11, 73, 76
14, 288351, Note_on_c, 11, 73, 0
14, 288360, Note_on_c, 11, 74, 77
14, 288411, Note_on_c, 11, 74, 0
14, 288420, Note_on_c, 11, 74, 77
14, 288471, Note_on_c, 11, 74, 0
14, 288480, Note_on_c, 11, 76, 78
14, 288531, Note_on_c, 11, 76, 0
14, 288540, Note_on_c, 11, 76, 79
14, 288591, Note_on_c, 11, 76, 0
14, 288600, Note_on_c, 11, 74, 80
14, 288651, Note_on_c, 11, 74, 0
14, 288660, Note_on_c, 11, 74, 81
14, 288711, Note_on_c, 11, 74, 0
14, 288720, Note_on_c, 11, 73, 82
14, 288771, Note_on_c, 11, 73, 0
14, 288780, Note_on_c, 11, 73, 82
14, 288831, Note_on_c, 11, 73, 0
14, 288840, Note_on_c, 11, 71, 83
14, 288891, Note_on_c, 11, 71, 0
14, 288900, Note_on_c, 11, 71, 84
14, 288951, Note_on_c, 11, 71, 0
14, 288960, Note_on_c, 11, 69, 85
14, 289011, Note_on_c, 11, 69, 0
14, 289020, Note_on_c, 11, 69, 86
14, 289071, Note_on_c, 11, 69, 0
14, 289080, Note_on_c, 11, 68, 87
14, 289131, Note_on_c, 11, 68, 0
14, 289140, Note_on_c, 11, 68, 87
14, 289191, Note_on_c, 11, 68, 0
14, 289200, Note_on_c, 11, 66, 88
14, 289251, Note_on_c, 11, 66, 0
14, 289260, Note_on_c, 11, 66, 89
14, 289311, Note_on_c, 11, 66, 0
14, 289320, Note_on_c, 11, 64, 90
14, 289371, Note_on_c, 11, 64, 0
14, 289380, Note_on_c, 11, 64, 91
14, 289431, Note_on_c, 11, 64, 0
14, 289440, Note_on_c, 11, 61, 92
14, 289491, Note_on_c, 11, 61, 0
14, 289500, Note_on_c, 11, 61, 92
14, 289551, Note_on_c, 11, 61, 0
14, 289560, Note_on_c, 11, 62, 92
14, 289611, Note_on_c, 11, 62, 0
14, 289620, Note_on_c, 11, 62, 92
14, 289671, Note_on_c, 11, 62, 0
14, 289680, Note_on_c, 11, 64, 92
14, 289731, Note_on_c, 11, 64, 0
14, 289740, Note_on_c, 11, 64, 92
14, 289791, Note_on_c, 11, 64, 0
14, 289800, Note_on_c, 11, 66, 92
14, 289851, Note_on_c, 11, 66, 0
14, 289860, Note_on_c, 11, 66, 92
14, 289911, Note_on_c, 11, 66, 0
14, 289920, Note_on_c, 11, 67, 92
14, 289971, Note_on_c, 11, 67, 0
14, 289980, Note_on_c, 11, 67, 92
14, 290031, Note_on_c, 11, 67, 0
14, 290040, Note_on_c, 11, 69, 92
14, 290091, Note_on_c, 11, 69, 0
14, 290100, Note_on_c, 11, 69, 92
14, 290151, Note_on_c, 11, 69, 0
14, 290160, Note_on_c, 11, 71, 92
14, 290211, Note_on_c, 11, 71, 0
14, 290220, Note_on_c, 11, 71, 92
14, 290271, Note_on_c, 11, 71, 0
14, 290280, Note_on_c, 11, 73, 92
14, 290331, Note_on_c, 11, 73, 0
14, 290340, Note_on_c, 11, 73, 92
14, 290391, Note_on_c, 11, 73, 0
14, 290400, Note_on_c, 11, 74, 92
14, 290451, Note_on_c, 11, 74, 0
14, 290460, Note_on_c, 11, 74, 92
14, 290511, Note_on_c, 11, 74, 0
14, 290520, Note_on_c, 11, 76, 92
14, 290571, Note_on_c, 11, 76, 0
14, 290580, Note_on_c, 11, 76, 92
14, 290631, Note_on_c, 11, 76, 0
14, 290640, Note_on_c, 11, 78, 92
14, 290691, Note_on_c, 11, 78, 0
14, 290700, Note_on_c, 11, 78, 92
14, 290751, Note_on_c, 11, 78, 0
14, 290760, Note_on_c, 11, 79, 92
14, 290811, Note_on_c, 11, 79, 0
14, 290820, Note_on_c, 11, 79, 92
14, 290871, Note_on_c, 11, 79, 0
14, 290880, Note_on_c, 11, 81, 92
14, 290931, Note_on_c, 11, 81, 0
14, 290940, Note_on_c, 11, 81, 92
14, 290991, Note_on_c, 11, 81, 0
14, 291000, Note_on_c, 11, 83, 92
14, 291051, Note_on_c, 11, 83, 0
14, 291060, Note_on_c, 11, 83, 92
14, 291111, Note_on_c, 11, 83, 0
14, 291120, Note_on_c, 11, 85, 92
14, 291171, Note_on_c, 11, 85, 0
14, 291180, Note_on_c, 11, 85, 92
14, 291231, Note_on_c, 11, 85, 0
14, 291240, Note_on_c, 11, 86, 92
14, 291291, Note_on_c, 11, 86, 0
14, 291300, Note_on_c, 11, 86, 92
14, 291351, Note_on_c, 11, 86, 0
14, 291360, Note_on_c, 11, 88, 100
14, 291411, Note_on_c, 11, 88, 0
14, 291420, Note_on_c, 11, 69, 92
14, 291471, Note_on_c, 11, 69, 0
14, 291480, Note_on_c, 11, 81, 92
14, 291531, Note_on_c, 11, 81, 0
14, 291540, Note_on_c, 11, 81, 92
14, 291591, Note_on_c, 11, 81, 0
14, 291600, Note_on_c, 11, 81, 92
14, 291651, Note_on_c, 11, 81, 0
14, 291660, Note_on_c, 11, 81, 92
14, 291711, Note_on_c, 11, 81, 0
14, 291720, Note_on_c, 11, 81, 92
14, 291771, Note_on_c, 11, 81, 0
14, 291780, Note_on_c, 11, 81, 92
14, 291831, Note_on_c, 11, 81, 0
14, 291840, Note_on_c, 11, 81, 100
14, 291891, Note_on_c, 11, 81, 0
14, 291900, Note_on_c, 11, 81, 92
14, 291951, Note_on_c, 11, 81, 0
14, 291960, Note_on_c, 11, 69, 92
14, 292011, Note_on_c, 11, 69, 0
14, 292020, Note_on_c, 11, 69, 92
14, 292071, Note_on_c, 11, 69, 0
14, 292080, Note_on_c, 11, 81, 92
14, 292131, Note_on_c, 11, 81, 0
14, 292140, Note_on_c, 11, 81, 92
14, 292191, Note_on_c, 11, 81, 0
14, 292200, Note_on_c, 11, 81, 92
14, 292251, Note_on_c, 11, 81, 0
14, 292260, Note_on_c, 11, 81, 92
14, 292311, Note_on_c, 11, 81, 0
14, 292320, Note_on_c, 11, 81, 100
14, 292371, Note_on_c, 11, 81, 0
14, 292380, Note_on_c, 11, 81, 92
14, 292431, Note_on_c, 11, 81, 0
14, 292440, Note_on_c, 11, 69, 92
14, 292491, Note_on_c, 11, 69, 0
14, 292500, Note_on_c, 11, 69, 92
14, 292551, Note_on_c, 11, 69, 0
14, 292560, Note_on_c, 11, 81, 92
14, 292611, Note_on_c, 11, 81, 0
14, 292620, Note_on_c, 11, 81, 92
14, 292671, Note_on_c, 11, 81, 0
14, 292680, Note_on_c, 11, 81, 92
14, 292731, Note_on_c, 11, 81, 0
14, 292740, Note_on_c, 11, 81, 92
14, 292791, Note_on_c, 11, 81, 0
14, 292800, Note_on_c, 11, 80, 100
14, 292851, Note_on_c, 11, 80, 0
14, 292860, Note_on_c, 11, 68, 92
14, 292911, Note_on_c, 11, 68, 0
14, 292920, Note_on_c, 11, 80, 92
14, 292971, Note_on_c, 11, 80, 0
14, 292980, Note_on_c, 11, 80, 92
14, 293031, Note_on_c, 11, 80, 0
14, 293040, Note_on_c, 11, 80, 92
14, 293091, Note_on_c, 11, 80, 0
14, 293100, Note_on_c, 11, 80, 92
14, 293151, Note_on_c, 11, 80, 0
14, 293160, Note_on_c, 11, 80, 92
14, 293211, Note_on_c, 11, 80, 0
14, 293220, Note_on_c, 11, 80, 92
14, 293271, Note_on_c, 11, 80, 0
14, 293280, Note_on_c, 11, 81, 92
14, 293280, Note_on_c, 11, 64, 92
14, 293280, Note_on_c, 11, 73, 92
14, 293369, Note_on_c, 11, 81, 0
14, 293369, Note_on_c, 11, 64, 0
14, 293369, Note_on_c, 11, 73, 0
14, 293400, Note_on_c, 11, 69, 92
14, 293459, Note_on_c, 11, 69, 0
14, 293460, Note_on_c, 11, 71, 92
14, 293519, Note_on_c, 11, 71, 0
14, 293520, Note_on_c, 11, 74, 92
14, 293579, Note_on_c, 11, 74, 0
14, 293580, Note_on_c, 11, 73, 92
14, 293639, Note_on_c, 11, 73, 0
14, 293640, Note_on_c, 11, 71, 92
14, 293699, Note_on_c, 11, 71, 0
14, 293700, Note_on_c, 11, 69, 92
14, 293751, Note_on_c, 11, 69, 0
14, 293760, Note_on_c, 11, 76, 100
14, 293819, Note_on_c, 11, 76, 0
14, 293820, Note_on_c, 11, 76, 92
14, 294344, Note_on_c, 11, 76, 0
14, 294360, Note_on_c, 11, 71, 92
14, 294419, Note_on_c, 11, 71, 0
14, 294420, Note_on_c, 11, 73, 92
14, 294479, Note_on_c, 11, 73, 0
14, 294480, Note_on_c, 11, 76, 92
14, 294539, Note_on_c, 11, 76, 0
14, 294540, Note_on_c, 11, 74, 92
14, 294599, Note_on_c, 11, 74, 0
14, 294600, Note_on_c, 11, 73, 92
14, 294659, Note_on_c, 11, 73, 0
14, 294660, Note_on_c, 11, 71, 92
14, 294711, Note_on_c, 11, 71, 0
14, 294720, Note_on_c, 11, 69, 92
14, 294809, Note_on_c, 11, 69, 0
14, 294840, Note_on_c, 11, 71, 92
14, 294899, Note_on_c, 11, 71, 0
14, 294900, Note_on_c, 11, 73, 92
14, 294959, Note_on_c, 11, 73, 0
14, 294960, Note_on_c, 11, 76, 92
14, 295019, Note_on_c, 11, 76, 0
14, 295020, Note_on_c, 11, 74, 92
14, 295079, Note_on_c, 11, 74, 0
14, 295080, Note_on_c, 11, 73, 92
14, 295139, Note_on_c, 11, 73, 0
14, 295140, Note_on_c, 11, 71, 92
14, 295191, Note_on_c, 11, 71, 0
14, 295200, Note_on_c, 11, 73, 92
14, 295289, Note_on_c, 11, 73, 0
14, 295320, Note_on_c, 11, 69, 92
14, 295379, Note_on_c, 11, 69, 0
14, 295380, Note_on_c, 11, 71, 92
14, 295439, Note_on_c, 11, 71, 0
14, 295440, Note_on_c, 11, 74, 92
14, 295499, Note_on_c, 11, 74, 0
14, 295500, Note_on_c, 11, 73, 92
14, 295559, Note_on_c, 11, 73, 0
14, 295560, Note_on_c, 11, 71, 92
14, 295619, Note_on_c, 11, 71, 0
14, 295620, Note_on_c, 11, 69, 92
14, 295671, Note_on_c, 11, 69, 0
14, 295680, Note_on_c, 11, 76, 100
14, 295739, Note_on_c, 11, 76, 0
14, 295740, Note_on_c, 11, 76, 92
14, 296264, Note_on_c, 11, 76, 0
14, 296280, Note_on_c, 11, 71, 92
14, 296339, Note_on_c, 11, 71, 0
14, 296340, Note_on_c, 11, 73, 92
14, 296399, Note_on_c, 11, 73, 0
14, 296400, Note_on_c, 11, 76, 92
14, 296459, Note_on_c, 11, 76, 0
14, 296460, Note_on_c, 11, 74, 92
14, 296519, Note_on_c, 11, 74, 0
14, 296520, Note_on_c, 11, 73, 92
14, 296579, Note_on_c, 11, 73, 0
14, 296580, Note_on_c, 11, 71, 92
14, 296631, Note_on_c, 11, 71, 0
14, 296640, Note_on_c, 11, 69, 92
14, 296729, Note_on_c, 11, 69, 0
14, 296760, Note_on_c, 11, 71, 92
14, 296819, Note_on_c, 11, 71, 0
14, 296820, Note_on_c, 11, 73, 92
14, 296879, Note_on_c, 11, 73, 0
14, 296880, Note_on_c, 11, 76, 92
14, 296939, Note_on_c, 11, 76, 0
14, 296940, Note_on_c, 11, 74, 92
14, 296999, Note_on_c, 11, 74, 0
14, 297000, Note_on_c, 11, 73, 92
14, 297059, Note_on_c, 11, 73, 0
14, 297060, Note_on_c, 11, 71, 92
14, 297111, Note_on_c, 11, 71, 0
14, 297120, Note_on_c, 11, 76, 84
14, 297179, Note_on_c, 11, 76, 0
14, 297180, Note_on_c, 11, 74, 84
14, 297239, Note_on_c, 11, 74, 0
14, 297240, Note_on_c, 11, 73, 84
14, 297299, Note_on_c, 11, 73, 0
14, 297300, Note_on_c, 11, 71, 84
14, 297351, Note_on_c, 11, 71, 0
14, 297360, Note_on_c, 11, 76, 92
14, 297419, Note_on_c, 11, 76, 0
14, 297420, Note_on_c, 11, 74, 84
14, 297479, Note_on_c, 11, 74, 0
14, 297480, Note_on_c, 11, 73, 84
14, 297539, Note_on_c, 11, 73, 0
14, 297540, Note_on_c, 11, 71, 84
14, 297591, Note_on_c, 11, 71, 0
14, 297600, Note_on_c, 11, 76, 92
14, 297659, Note_on_c, 11, 76, 0
14, 297660, Note_on_c, 11, 74, 84
14, 297719, Note_on_c, 11, 74, 0
14, 297720, Note_on_c, 11, 73, 84
14, 297779, Note_on_c, 11, 73, 0
14, 297780, Note_on_c, 11, 71, 84
14, 297831, Note_on_c, 11, 71, 0
14, 297840, Note_on_c, 11, 76, 92
14, 297899, Note_on_c, 11, 76, 0
14, 297900, Note_on_c, 11, 74, 84
14, 297959, Note_on_c, 11, 74, 0
14, 297960, Note_on_c, 11, 73, 84
14, 298019, Note_on_c, 11, 73, 0
14, 298020, Note_on_c, 11, 71, 84
14, 298071, Note_on_c, 11, 71, 0
14, 298080, Note_on_c, 11, 76, 84
14, 298139, Note_on_c, 11, 76, 0
14, 298140, Note_on_c, 11, 74, 84
14, 298199, Note_on_c, 11, 74, 0
14, 298200, Note_on_c, 11, 73, 84
14, 298259, Note_on_c, 11, 73, 0
14, 298260, Note_on_c, 11, 71, 84
14, 298319, Note_on_c, 11, 71, 0
14, 298320, Note_on_c, 11, 69, 84
14, 298379, Note_on_c, 11, 69, 0
14, 298380, Note_on_c, 11, 68, 84
14, 298439, Note_on_c, 11, 68, 0
14, 298440, Note_on_c, 11, 66, 84
14, 298499, Note_on_c, 11, 66, 0
14, 298500, Note_on_c, 11, 64, 84
14, 298551, Note_on_c, 11, 64, 0
14, 298560, Note_on_c, 11, 74, 84
14, 298619, Note_on_c, 11, 74, 0
14, 298620, Note_on_c, 11, 73, 84
14, 298679, Note_on_c, 11, 73, 0
14, 298680, Note_on_c, 11, 71, 84
14, 298739, Note_on_c, 11, 71, 0
14, 298740, Note_on_c, 11, 69, 84
14, 298799, Note_on_c, 11, 69, 0
14, 298800, Note_on_c, 11, 68, 84
14, 298839, Note_on_c, 11, 68, 0
14, 298840, Note_on_c, 11, 66, 84
14, 298879, Note_on_c, 11, 66, 0
14, 298880, Note_on_c, 11, 64, 84
14, 298919, Note_on_c, 11, 64, 0
14, 298920, Note_on_c, 11, 62, 84
14, 298959, Note_on_c, 11, 62, 0
14, 298960, Note_on_c, 11, 61, 84
14, 298999, Note_on_c, 11, 61, 0
14, 299000, Note_on_c, 11, 59, 84
14, 299031, Note_on_c, 11, 59, 0
14, 299040, Note_on_c, 11, 57, 84
14, 299159, Note_on_c, 11, 57, 0
14, 299520, Note_on_c, 11, 57, 84
14, 299520, Note_on_c, 11, 81, 84
14, 299520, Note_on_c, 11, 73, 84
14, 299520, Note_on_c, 11, 64, 84
14, 299639, Note_on_c, 11, 57, 0
14, 299639, Note_on_c, 11, 81, 0
14, 299639, Note_on_c, 11, 73, 0
14, 299639, Note_on_c, 11, 64, 0
14, 300000, Note_on_c, 11, 57, 84
14, 300119, Note_on_c, 11, 57, 0
14, 300119, End_track
15, 0, Start_track
15, 0, Title_t, "Viola "
15, 0, MIDI_port, 0
15, 0, Program_c, 12, 48
15, 0, Control_c, 12, 11, 127
15, 0, Control_c, 12, 10, 70
15, 0, Control_c, 12, 7, 96
15, 0, Note_on_c, 12, 64, 84
15, 0, Note_on_c, 12, 59, 84
15, 0, Note_on_c, 12, 52, 84
15, 89, Note_on_c, 12, 64, 0
15, 89, Note_on_c, 12, 59, 0
15, 89, Note_on_c, 12, 52, 0
15, 960, Note_on_c, 12, 59, 84
15, 960, Note_on_c, 12, 52, 84
15, 960, Note_on_c, 12, 62, 84
15, 1049, Note_on_c, 12, 59, 0
15, 1049, Note_on_c, 12, 52, 0
15, 1049, Note_on_c, 12, 62, 0
15, 1920, Note_on_c, 12, 56, 84
15, 1971, Note_on_c, 12, 56, 0
15, 1980, Note_on_c, 12, 56, 84
15, 2031, Note_on_c, 12, 56, 0
15, 2040, Note_on_c, 12, 56, 84
15, 2091, Note_on_c, 12, 56, 0
15, 2100, Note_on_c, 12, 56, 84
15, 2151, Note_on_c, 12, 56, 0
15, 2160, Note_on_c, 12, 54, 92
15, 2211, Note_on_c, 12, 54, 0
15, 2220, Note_on_c, 12, 54, 84
15, 2271, Note_on_c, 12, 54, 0
15, 2280, Note_on_c, 12, 56, 84
15, 2331, Note_on_c, 12, 56, 0
15, 2340, Note_on_c, 12, 56, 84
15, 2391, Note_on_c, 12, 56, 0
15, 2400, Note_on_c, 12, 57, 84
15, 2451, Note_on_c, 12, 57, 0
15, 2460, Note_on_c, 12, 57, 84
15, 2511, Note_on_c, 12, 57, 0
15, 2520, Note_on_c, 12, 57, 84
15, 2571, Note_on_c, 12, 57, 0
15, 2580, Note_on_c, 12, 57, 84
15, 2631, Note_on_c, 12, 57, 0
15, 2640, Note_on_c, 12, 56, 92
15, 2691, Note_on_c, 12, 56, 0
15, 2700, Note_on_c, 12, 56, 84
15, 2751, Note_on_c, 12, 56, 0
15, 2760, Note_on_c, 12, 57, 84
15, 2811, Note_on_c, 12, 57, 0
15, 2820, Note_on_c, 12, 57, 84
15, 2871, Note_on_c, 12, 57, 0
15, 2880, Note_on_c, 12, 56, 84
15, 2931, Note_on_c, 12, 56, 0
15, 2940, Note_on_c, 12, 56, 84
15, 2991, Note_on_c, 12, 56, 0
15, 3000, Note_on_c, 12, 56, 84
15, 3051, Note_on_c, 12, 56, 0
15, 3060, Note_on_c, 12, 56, 84
15, 3111, Note_on_c, 12, 56, 0
15, 3120, Note_on_c, 12, 54, 92
15, 3171, Note_on_c, 12, 54, 0
15, 3180, Note_on_c, 12, 54, 84
15, 3231, Note_on_c, 12, 54, 0
15, 3240, Note_on_c, 12, 56, 84
15, 3291, Note_on_c, 12, 56, 0
15, 3300, Note_on_c, 12, 56, 84
15, 3351, Note_on_c, 12, 56, 0
15, 3360, Note_on_c, 12, 57, 84
15, 3404, Note_on_c, 12, 57, 0
15, 3420, Note_on_c, 12, 57, 84
15, 3479, Note_on_c, 12, 57, 0
15, 3480, Note_on_c, 12, 59, 84
15, 3539, Note_on_c, 12, 59, 0
15, 3540, Note_on_c, 12, 61, 84
15, 3599, Note_on_c, 12, 61, 0
15, 3600, Note_on_c, 12, 62, 92
15, 3659, Note_on_c, 12, 62, 0
15, 3660, Note_on_c, 12, 61, 84
15, 3719, Note_on_c, 12, 61, 0
15, 3720, Note_on_c, 12, 59, 84
15, 3779, Note_on_c, 12, 59, 0
15, 3780, Note_on_c, 12, 57, 84
15, 3831, Note_on_c, 12, 57, 0
15, 3840, Note_on_c, 12, 56, 84
15, 3891, Note_on_c, 12, 56, 0
15, 3900, Note_on_c, 12, 56, 84
15, 3951, Note_on_c, 12, 56, 0
15, 3960, Note_on_c, 12, 56, 84
15, 4011, Note_on_c, 12, 56, 0
15, 4020, Note_on_c, 12, 56, 84
15, 4071, Note_on_c, 12, 56, 0
15, 4080, Note_on_c, 12, 54, 92
15, 4131, Note_on_c, 12, 54, 0
15, 4140, Note_on_c, 12, 54, 84
15, 4191, Note_on_c, 12, 54, 0
15, 4200, Note_on_c, 12, 56, 84
15, 4251, Note_on_c, 12, 56, 0
15, 4260, Note_on_c, 12, 56, 84
15, 4311, Note_on_c, 12, 56, 0
15, 4320, Note_on_c, 12, 57, 84
15, 4371, Note_on_c, 12, 57, 0
15, 4380, Note_on_c, 12, 57, 84
15, 4431, Note_on_c, 12, 57, 0
15, 4440, Note_on_c, 12, 57, 84
15, 4491, Note_on_c, 12, 57, 0
15, 4500, Note_on_c, 12, 57, 84
15, 4551, Note_on_c, 12, 57, 0
15, 4560, Note_on_c, 12, 56, 92
15, 4611, Note_on_c, 12, 56, 0
15, 4620, Note_on_c, 12, 56, 84
15, 4671, Note_on_c, 12, 56, 0
15, 4680, Note_on_c, 12, 57, 84
15, 4731, Note_on_c, 12, 57, 0
15, 4740, Note_on_c, 12, 57, 84
15, 4791, Note_on_c, 12, 57, 0
15, 4800, Note_on_c, 12, 56, 84
15, 4851, Note_on_c, 12, 56, 0
15, 4860, Note_on_c, 12, 56, 84
15, 4911, Note_on_c, 12, 56, 0
15, 4920, Note_on_c, 12, 56, 84
15, 4971, Note_on_c, 12, 56, 0
15, 4980, Note_on_c, 12, 56, 84
15, 5031, Note_on_c, 12, 56, 0
15, 5040, Note_on_c, 12, 54, 92
15, 5091, Note_on_c, 12, 54, 0
15, 5100, Note_on_c, 12, 54, 84
15, 5151, Note_on_c, 12, 54, 0
15, 5160, Note_on_c, 12, 56, 84
15, 5211, Note_on_c, 12, 56, 0
15, 5220, Note_on_c, 12, 56, 84
15, 5271, Note_on_c, 12, 56, 0
15, 5280, Note_on_c, 12, 57, 84
15, 5339, Note_on_c, 12, 57, 0
15, 5340, Note_on_c, 12, 59, 84
15, 5399, Note_on_c, 12, 59, 0
15, 5400, Note_on_c, 12, 61, 84
15, 5459, Note_on_c, 12, 61, 0
15, 5460, Note_on_c, 12, 62, 84
15, 5519, Note_on_c, 12, 62, 0
15, 5520, Note_on_c, 12, 64, 84
15, 5579, Note_on_c, 12, 64, 0
15, 5580, Note_on_c, 12, 66, 84
15, 5639, Note_on_c, 12, 66, 0
15, 5640, Note_on_c, 12, 68, 84
15, 5699, Note_on_c, 12, 68, 0
15, 5700, Note_on_c, 12, 69, 84
15, 5751, Note_on_c, 12, 69, 0
15, 5760, Note_on_c, 12, 56, 84
15, 5811, Note_on_c, 12, 56, 0
15, 5820, Note_on_c, 12, 56, 84
15, 5871, Note_on_c, 12, 56, 0
15, 5880, Note_on_c, 12, 56, 84
15, 5931, Note_on_c, 12, 56, 0
15, 5940, Note_on_c, 12, 56, 84
15, 5991, Note_on_c, 12, 56, 0
15, 6000, Note_on_c, 12, 54, 92
15, 6051, Note_on_c, 12, 54, 0
15, 6060, Note_on_c, 12, 54, 84
15, 6111, Note_on_c, 12, 54, 0
15, 6120, Note_on_c, 12, 56, 84
15, 6171, Note_on_c, 12, 56, 0
15, 6180, Note_on_c, 12, 56, 84
15, 6231, Note_on_c, 12, 56, 0
15, 6240, Note_on_c, 12, 57, 84
15, 6291, Note_on_c, 12, 57, 0
15, 6300, Note_on_c, 12, 57, 84
15, 6351, Note_on_c, 12, 57, 0
15, 6360, Note_on_c, 12, 57, 84
15, 6411, Note_on_c, 12, 57, 0
15, 6420, Note_on_c, 12, 57, 84
15, 6471, Note_on_c, 12, 57, 0
15, 6480, Note_on_c, 12, 56, 92
15, 6531, Note_on_c, 12, 56, 0
15, 6540, Note_on_c, 12, 56, 84
15, 6591, Note_on_c, 12, 56, 0
15, 6600, Note_on_c, 12, 57, 84
15, 6651, Note_on_c, 12, 57, 0
15, 6660, Note_on_c, 12, 57, 84
15, 6711, Note_on_c, 12, 57, 0
15, 6720, Note_on_c, 12, 56, 84
15, 6771, Note_on_c, 12, 56, 0
15, 6780, Note_on_c, 12, 56, 84
15, 6831, Note_on_c, 12, 56, 0
15, 6840, Note_on_c, 12, 56, 84
15, 6891, Note_on_c, 12, 56, 0
15, 6900, Note_on_c, 12, 56, 84
15, 6951, Note_on_c, 12, 56, 0
15, 6960, Note_on_c, 12, 54, 92
15, 7011, Note_on_c, 12, 54, 0
15, 7020, Note_on_c, 12, 54, 84
15, 7071, Note_on_c, 12, 54, 0
15, 7080, Note_on_c, 12, 56, 84
15, 7131, Note_on_c, 12, 56, 0
15, 7140, Note_on_c, 12, 56, 84
15, 7191, Note_on_c, 12, 56, 0
15, 7200, Note_on_c, 12, 57, 84
15, 7244, Note_on_c, 12, 57, 0
15, 7260, Note_on_c, 12, 57, 84
15, 7319, Note_on_c, 12, 57, 0
15, 7320, Note_on_c, 12, 59, 84
15, 7379, Note_on_c, 12, 59, 0
15, 7380, Note_on_c, 12, 61, 84
15, 7439, Note_on_c, 12, 61, 0
15, 7440, Note_on_c, 12, 62, 92
15, 7499, Note_on_c, 12, 62, 0
15, 7500, Note_on_c, 12, 61, 84
15, 7559, Note_on_c, 12, 61, 0
15, 7560, Note_on_c, 12, 59, 84
15, 7619, Note_on_c, 12, 59, 0
15, 7620, Note_on_c, 12, 57, 84
15, 7671, Note_on_c, 12, 57, 0
15, 7680, Note_on_c, 12, 56, 84
15, 7731, Note_on_c, 12, 56, 0
15, 7740, Note_on_c, 12, 56, 84
15, 7791, Note_on_c, 12, 56, 0
15, 7800, Note_on_c, 12, 56, 84
15, 7851, Note_on_c, 12, 56, 0
15, 7860, Note_on_c, 12, 56, 84
15, 7911, Note_on_c, 12, 56, 0
15, 7920, Note_on_c, 12, 54, 92
15, 7971, Note_on_c, 12, 54, 0
15, 7980, Note_on_c, 12, 54, 84
15, 8031, Note_on_c, 12, 54, 0
15, 8040, Note_on_c, 12, 56, 84
15, 8091, Note_on_c, 12, 56, 0
15, 8100, Note_on_c, 12, 56, 84
15, 8151, Note_on_c, 12, 56, 0
15, 8160, Note_on_c, 12, 57, 84
15, 8211, Note_on_c, 12, 57, 0
15, 8220, Note_on_c, 12, 57, 84
15, 8271, Note_on_c, 12, 57, 0
15, 8280, Note_on_c, 12, 57, 84
15, 8331, Note_on_c, 12, 57, 0
15, 8340, Note_on_c, 12, 57, 84
15, 8391, Note_on_c, 12, 57, 0
15, 8400, Note_on_c, 12, 56, 92
15, 8451, Note_on_c, 12, 56, 0
15, 8460, Note_on_c, 12, 56, 84
15, 8511, Note_on_c, 12, 56, 0
15, 8520, Note_on_c, 12, 57, 84
15, 8571, Note_on_c, 12, 57, 0
15, 8580, Note_on_c, 12, 57, 84
15, 8631, Note_on_c, 12, 57, 0
15, 8640, Note_on_c, 12, 56, 84
15, 8691, Note_on_c, 12, 56, 0
15, 8700, Note_on_c, 12, 56, 84
15, 8751, Note_on_c, 12, 56, 0
15, 8760, Note_on_c, 12, 56, 84
15, 8811, Note_on_c, 12, 56, 0
15, 8820, Note_on_c, 12, 56, 84
15, 8871, Note_on_c, 12, 56, 0
15, 8880, Note_on_c, 12, 54, 92
15, 8931, Note_on_c, 12, 54, 0
15, 8940, Note_on_c, 12, 54, 84
15, 8991, Note_on_c, 12, 54, 0
15, 9000, Note_on_c, 12, 56, 84
15, 9051, Note_on_c, 12, 56, 0
15, 9060, Note_on_c, 12, 56, 84
15, 9111, Note_on_c, 12, 56, 0
15, 9120, Note_on_c, 12, 57, 84
15, 9179, Note_on_c, 12, 57, 0
15, 9180, Note_on_c, 12, 59, 84
15, 9239, Note_on_c, 12, 59, 0
15, 9240, Note_on_c, 12, 61, 84
15, 9299, Note_on_c, 12, 61, 0
15, 9300, Note_on_c, 12, 62, 84
15, 9359, Note_on_c, 12, 62, 0
15, 9360, Note_on_c, 12, 64, 84
15, 9419, Note_on_c, 12, 64, 0
15, 9420, Note_on_c, 12, 62, 84
15, 9479, Note_on_c, 12, 62, 0
15, 9480, Note_on_c, 12, 64, 84
15, 9539, Note_on_c, 12, 64, 0
15, 9540, Note_on_c, 12, 61, 84
15, 9591, Note_on_c, 12, 61, 0
15, 9600, Note_on_c, 12, 57, 84
15, 9651, Note_on_c, 12, 57, 0
15, 9660, Note_on_c, 12, 54, 84
15, 9711, Note_on_c, 12, 54, 0
15, 9720, Note_on_c, 12, 54, 84
15, 9771, Note_on_c, 12, 54, 0
15, 9780, Note_on_c, 12, 54, 84
15, 9831, Note_on_c, 12, 54, 0
15, 9840, Note_on_c, 12, 53, 92
15, 9891, Note_on_c, 12, 53, 0
15, 9900, Note_on_c, 12, 53, 84
15, 9951, Note_on_c, 12, 53, 0
15, 9960, Note_on_c, 12, 54, 84
15, 10011, Note_on_c, 12, 54, 0
15, 10020, Note_on_c, 12, 54, 84
15, 10071, Note_on_c, 12, 54, 0
15, 10080, Note_on_c, 12, 52, 84
15, 10131, Note_on_c, 12, 52, 0
15, 10140, Note_on_c, 12, 57, 84
15, 10191, Note_on_c, 12, 57, 0
15, 10200, Note_on_c, 12, 57, 84
15, 10251, Note_on_c, 12, 57, 0
15, 10260, Note_on_c, 12, 57, 84
15, 10311, Note_on_c, 12, 57, 0
15, 10320, Note_on_c, 12, 57, 92
15, 10371, Note_on_c, 12, 57, 0
15, 10380, Note_on_c, 12, 57, 84
15, 10431, Note_on_c, 12, 57, 0
15, 10440, Note_on_c, 12, 57, 84
15, 10491, Note_on_c, 12, 57, 0
15, 10500, Note_on_c, 12, 57, 84
15, 10551, Note_on_c, 12, 57, 0
15, 10560, Note_on_c, 12, 57, 84
15, 10611, Note_on_c, 12, 57, 0
15, 10620, Note_on_c, 12, 54, 84
15, 10671, Note_on_c, 12, 54, 0
15, 10680, Note_on_c, 12, 54, 84
15, 10731, Note_on_c, 12, 54, 0
15, 10740, Note_on_c, 12, 54, 84
15, 10791, Note_on_c, 12, 54, 0
15, 10800, Note_on_c, 12, 53, 92
15, 10851, Note_on_c, 12, 53, 0
15, 10860, Note_on_c, 12, 53, 84
15, 10911, Note_on_c, 12, 53, 0
15, 10920, Note_on_c, 12, 54, 84
15, 10971, Note_on_c, 12, 54, 0
15, 10980, Note_on_c, 12, 54, 84
15, 11031, Note_on_c, 12, 54, 0
15, 11040, Note_on_c, 12, 52, 84
15, 11091, Note_on_c, 12, 52, 0
15, 11100, Note_on_c, 12, 57, 84
15, 11151, Note_on_c, 12, 57, 0
15, 11160, Note_on_c, 12, 57, 84
15, 11211, Note_on_c, 12, 57, 0
15, 11220, Note_on_c, 12, 57, 84
15, 11271, Note_on_c, 12, 57, 0
15, 11280, Note_on_c, 12, 54, 92
15, 11331, Note_on_c, 12, 54, 0
15, 11340, Note_on_c, 12, 58, 84
15, 11391, Note_on_c, 12, 58, 0
15, 11400, Note_on_c, 12, 58, 84
15, 11451, Note_on_c, 12, 58, 0
15, 11460, Note_on_c, 12, 58, 84
15, 11511, Note_on_c, 12, 58, 0
15, 11520, Note_on_c, 12, 54, 84
15, 11571, Note_on_c, 12, 54, 0
15, 11580, Note_on_c, 12, 57, 84
15, 11631, Note_on_c, 12, 57, 0
15, 11640, Note_on_c, 12, 57, 84
15, 11691, Note_on_c, 12, 57, 0
15, 11700, Note_on_c, 12, 57, 84
15, 11751, Note_on_c, 12, 57, 0
15, 11760, Note_on_c, 12, 52, 92
15, 11811, Note_on_c, 12, 52, 0
15, 11820, Note_on_c, 12, 56, 84
15, 11871, Note_on_c, 12, 56, 0
15, 11880, Note_on_c, 12, 56, 84
15, 11931, Note_on_c, 12, 56, 0
15, 11940, Note_on_c, 12, 56, 84
15, 11991, Note_on_c, 12, 56, 0
15, 12000, Note_on_c, 12, 52, 84
15, 12051, Note_on_c, 12, 52, 0
15, 12060, Note_on_c, 12, 57, 84
15, 12111, Note_on_c, 12, 57, 0
15, 12120, Note_on_c, 12, 57, 84
15, 12171, Note_on_c, 12, 57, 0
15, 12180, Note_on_c, 12, 57, 84
15, 12231, Note_on_c, 12, 57, 0
15, 12240, Note_on_c, 12, 52, 92
15, 12291, Note_on_c, 12, 52, 0
15, 12300, Note_on_c, 12, 57, 84
15, 12351, Note_on_c, 12, 57, 0
15, 12360, Note_on_c, 12, 57, 84
15, 12411, Note_on_c, 12, 57, 0
15, 12420, Note_on_c, 12, 57, 84
15, 12471, Note_on_c, 12, 57, 0
15, 12480, Note_on_c, 12, 56, 84
15, 12531, Note_on_c, 12, 56, 0
15, 12540, Note_on_c, 12, 59, 84
15, 12591, Note_on_c, 12, 59, 0
15, 12600, Note_on_c, 12, 59, 84
15, 12651, Note_on_c, 12, 59, 0
15, 12660, Note_on_c, 12, 59, 84
15, 12711, Note_on_c, 12, 59, 0
15, 12720, Note_on_c, 12, 52, 92
15, 12771, Note_on_c, 12, 52, 0
15, 12780, Note_on_c, 12, 59, 84
15, 12831, Note_on_c, 12, 59, 0
15, 12840, Note_on_c, 12, 59, 84
15, 12891, Note_on_c, 12, 59, 0
15, 12900, Note_on_c, 12, 59, 84
15, 12951, Note_on_c, 12, 59, 0
15, 12960, Note_on_c, 12, 61, 84
15, 13019, Note_on_c, 12, 61, 0
15, 13020, Note_on_c, 12, 57, 84
15, 13079, Note_on_c, 12, 57, 0
15, 13080, Note_on_c, 12, 59, 84
15, 13139, Note_on_c, 12, 59, 0
15, 13140, Note_on_c, 12, 61, 84
15, 13199, Note_on_c, 12, 61, 0
15, 13200, Note_on_c, 12, 62, 84
15, 13259, Note_on_c, 12, 62, 0
15, 13260, Note_on_c, 12, 64, 84
15, 13319, Note_on_c, 12, 64, 0
15, 13320, Note_on_c, 12, 66, 84
15, 13379, Note_on_c, 12, 66, 0
15, 13380, Note_on_c, 12, 64, 84
15, 13431, Note_on_c, 12, 64, 0
15, 13440, Note_on_c, 12, 57, 84
15, 13491, Note_on_c, 12, 57, 0
15, 13500, Note_on_c, 12, 54, 84
15, 13551, Note_on_c, 12, 54, 0
15, 13560, Note_on_c, 12, 54, 84
15, 13611, Note_on_c, 12, 54, 0
15, 13620, Note_on_c, 12, 54, 84
15, 13671, Note_on_c, 12, 54, 0
15, 13680, Note_on_c, 12, 53, 92
15, 13731, Note_on_c, 12, 53, 0
15, 13740, Note_on_c, 12, 53, 84
15, 13791, Note_on_c, 12, 53, 0
15, 13800, Note_on_c, 12, 54, 84
15, 13851, Note_on_c, 12, 54, 0
15, 13860, Note_on_c, 12, 54, 84
15, 13911, Note_on_c, 12, 54, 0
15, 13920, Note_on_c, 12, 52, 84
15, 13971, Note_on_c, 12, 52, 0
15, 13980, Note_on_c, 12, 57, 84
15, 14031, Note_on_c, 12, 57, 0
15, 14040, Note_on_c, 12, 57, 84
15, 14091, Note_on_c, 12, 57, 0
15, 14100, Note_on_c, 12, 57, 84
15, 14151, Note_on_c, 12, 57, 0
15, 14160, Note_on_c, 12, 57, 92
15, 14211, Note_on_c, 12, 57, 0
15, 14220, Note_on_c, 12, 57, 84
15, 14271, Note_on_c, 12, 57, 0
15, 14280, Note_on_c, 12, 57, 84
15, 14331, Note_on_c, 12, 57, 0
15, 14340, Note_on_c, 12, 57, 84
15, 14391, Note_on_c, 12, 57, 0
15, 14400, Note_on_c, 12, 57, 84
15, 14451, Note_on_c, 12, 57, 0
15, 14460, Note_on_c, 12, 54, 84
15, 14511, Note_on_c, 12, 54, 0
15, 14520, Note_on_c, 12, 54, 84
15, 14571, Note_on_c, 12, 54, 0
15, 14580, Note_on_c, 12, 54, 84
15, 14631, Note_on_c, 12, 54, 0
15, 14640, Note_on_c, 12, 53, 92
15, 14691, Note_on_c, 12, 53, 0
15, 14700, Note_on_c, 12, 53, 84
15, 14751, Note_on_c, 12, 53, 0
15, 14760, Note_on_c, 12, 54, 84
15, 14811, Note_on_c, 12, 54, 0
15, 14820, Note_on_c, 12, 54, 84
15, 14871, Note_on_c, 12, 54, 0
15, 14880, Note_on_c, 12, 52, 84
15, 14931, Note_on_c, 12, 52, 0
15, 14940, Note_on_c, 12, 57, 84
15, 14991, Note_on_c, 12, 57, 0
15, 15000, Note_on_c, 12, 57, 84
15, 15051, Note_on_c, 12, 57, 0
15, 15060, Note_on_c, 12, 57, 84
15, 15111, Note_on_c, 12, 57, 0
15, 15120, Note_on_c, 12, 54, 92
15, 15171, Note_on_c, 12, 54, 0
15, 15180, Note_on_c, 12, 58, 84
15, 15231, Note_on_c, 12, 58, 0
15, 15240, Note_on_c, 12, 58, 84
15, 15291, Note_on_c, 12, 58, 0
15, 15300, Note_on_c, 12, 58, 84
15, 15351, Note_on_c, 12, 58, 0
15, 15360, Note_on_c, 12, 54, 84
15, 15411, Note_on_c, 12, 54, 0
15, 15420, Note_on_c, 12, 57, 84
15, 15471, Note_on_c, 12, 57, 0
15, 15480, Note_on_c, 12, 57, 84
15, 15531, Note_on_c, 12, 57, 0
15, 15540, Note_on_c, 12, 57, 84
15, 15591, Note_on_c, 12, 57, 0
15, 15600, Note_on_c, 12, 52, 92
15, 15651, Note_on_c, 12, 52, 0
15, 15660, Note_on_c, 12, 56, 84
15, 15711, Note_on_c, 12, 56, 0
15, 15720, Note_on_c, 12, 56, 84
15, 15771, Note_on_c, 12, 56, 0
15, 15780, Note_on_c, 12, 56, 84
15, 15831, Note_on_c, 12, 56, 0
15, 15840, Note_on_c, 12, 52, 84
15, 15891, Note_on_c, 12, 52, 0
15, 15900, Note_on_c, 12, 57, 84
15, 15951, Note_on_c, 12, 57, 0
15, 15960, Note_on_c, 12, 57, 84
15, 16011, Note_on_c, 12, 57, 0
15, 16020, Note_on_c, 12, 57, 84
15, 16071, Note_on_c, 12, 57, 0
15, 16080, Note_on_c, 12, 52, 92
15, 16131, Note_on_c, 12, 52, 0
15, 16140, Note_on_c, 12, 57, 84
15, 16191, Note_on_c, 12, 57, 0
15, 16200, Note_on_c, 12, 57, 84
15, 16251, Note_on_c, 12, 57, 0
15, 16260, Note_on_c, 12, 57, 84
15, 16311, Note_on_c, 12, 57, 0
15, 16320, Note_on_c, 12, 56, 84
15, 16371, Note_on_c, 12, 56, 0
15, 16380, Note_on_c, 12, 59, 84
15, 16431, Note_on_c, 12, 59, 0
15, 16440, Note_on_c, 12, 59, 84
15, 16491, Note_on_c, 12, 59, 0
15, 16500, Note_on_c, 12, 59, 84
15, 16551, Note_on_c, 12, 59, 0
15, 16560, Note_on_c, 12, 52, 92
15, 16611, Note_on_c, 12, 52, 0
15, 16620, Note_on_c, 12, 59, 84
15, 16671, Note_on_c, 12, 59, 0
15, 16680, Note_on_c, 12, 59, 84
15, 16731, Note_on_c, 12, 59, 0
15, 16740, Note_on_c, 12, 59, 84
15, 16791, Note_on_c, 12, 59, 0
15, 16800, Note_on_c, 12, 52, 84
15, 16800, Note_on_c, 12, 57, 84
15, 16919, Note_on_c, 12, 52, 0
15, 16919, Note_on_c, 12, 57, 0
15, 17280, Note_on_c, 12, 57, 84
15, 17280, Note_on_c, 12, 64, 84
15, 17280, Note_on_c, 12, 69, 84
15, 17399, Note_on_c, 12, 57, 0
15, 17399, Note_on_c, 12, 64, 0
15, 17399, Note_on_c, 12, 69, 0
15, 17760, Note_on_c, 12, 59, 84
15, 17760, Note_on_c, 12, 68, 84
15, 17760, Note_on_c, 12, 52, 84
15, 17879, Note_on_c, 12, 59, 0
15, 17879, Note_on_c, 12, 68, 0
15, 17879, Note_on_c, 12, 52, 0
15, 18240, Note_on_c, 12, 59, 84
15, 18240, Note_on_c, 12, 64, 84
15, 18240, Note_on_c, 12, 52, 84
15, 18359, Note_on_c, 12, 59, 0
15, 18359, Note_on_c, 12, 64, 0
15, 18359, Note_on_c, 12, 52, 0
15, 18720, Note_on_c, 12, 57, 84
15, 18839, Note_on_c, 12, 57, 0
15, 18960, Note_on_c, 12, 57, 84
15, 19079, Note_on_c, 12, 57, 0
15, 19200, Note_on_c, 12, 57, 84
15, 19319, Note_on_c, 12, 57, 0
15, 19440, Note_on_c, 12, 57, 84
15, 19559, Note_on_c, 12, 57, 0
15, 19680, Note_on_c, 12, 64, 84
15, 19680, Note_on_c, 12, 52, 84
15, 19680, Note_on_c, 12, 59, 84
15, 19799, Note_on_c, 12, 64, 0
15, 19799, Note_on_c, 12, 52, 0
15, 19799, Note_on_c, 12, 59, 0
15, 19920, Note_on_c, 12, 59, 84
15, 19920, Note_on_c, 12, 64, 84
15, 19920, Note_on_c, 12, 52, 84
15, 20039, Note_on_c, 12, 59, 0
15, 20039, Note_on_c, 12, 64, 0
15, 20039, Note_on_c, 12, 52, 0
15, 20160, Note_on_c, 12, 64, 84
15, 20160, Note_on_c, 12, 52, 84
15, 20160, Note_on_c, 12, 59, 84
15, 20279, Note_on_c, 12, 64, 0
15, 20279, Note_on_c, 12, 52, 0
15, 20279, Note_on_c, 12, 59, 0
15, 20400, Note_on_c, 12, 59, 84
15, 20400, Note_on_c, 12, 52, 84
15, 20400, Note_on_c, 12, 64, 84
15, 20519, Note_on_c, 12, 59, 0
15, 20519, Note_on_c, 12, 52, 0
15, 20519, Note_on_c, 12, 64, 0
15, 20640, Note_on_c, 12, 57, 84
15, 20759, Note_on_c, 12, 57, 0
15, 21120, Note_on_c, 12, 64, 84
15, 21120, Note_on_c, 12, 57, 84
15, 21120, Note_on_c, 12, 69, 84
15, 21239, Note_on_c, 12, 64, 0
15, 21239, Note_on_c, 12, 57, 0
15, 21239, Note_on_c, 12, 69, 0
15, 21600, Note_on_c, 12, 64, 84
15, 21600, Note_on_c, 12, 59, 84
15, 21600, Note_on_c, 12, 52, 84
15, 21719, Note_on_c, 12, 64, 0
15, 21719, Note_on_c, 12, 59, 0
15, 21719, Note_on_c, 12, 52, 0
15, 22080, Note_on_c, 12, 52, 84
15, 22080, Note_on_c, 12, 59, 84
15, 22080, Note_on_c, 12, 64, 84
15, 22199, Note_on_c, 12, 52, 0
15, 22199, Note_on_c, 12, 59, 0
15, 22199, Note_on_c, 12, 64, 0
15, 22560, Note_on_c, 12, 57, 84
15, 22611, Note_on_c, 12, 57, 0
15, 22620, Note_on_c, 12, 57, 84
15, 22671, Note_on_c, 12, 57, 0
15, 22680, Note_on_c, 12, 57, 84
15, 22731, Note_on_c, 12, 57, 0
15, 22740, Note_on_c, 12, 57, 84
15, 22791, Note_on_c, 12, 57, 0
15, 22800, Note_on_c, 12, 57, 84
15, 22851, Note_on_c, 12, 57, 0
15, 22860, Note_on_c, 12, 57, 84
15, 22911, Note_on_c, 12, 57, 0
15, 22920, Note_on_c, 12, 59, 84
15, 22971, Note_on_c, 12, 59, 0
15, 22980, Note_on_c, 12, 59, 84
15, 23031, Note_on_c, 12, 59, 0
15, 23040, Note_on_c, 12, 61, 84
15, 23091, Note_on_c, 12, 61, 0
15, 23100, Note_on_c, 12, 61, 84
15, 23151, Note_on_c, 12, 61, 0
15, 23160, Note_on_c, 12, 57, 84
15, 23211, Note_on_c, 12, 57, 0
15, 23220, Note_on_c, 12, 57, 84
15, 23271, Note_on_c, 12, 57, 0
15, 23280, Note_on_c, 12, 59, 84
15, 23331, Note_on_c, 12, 59, 0
15, 23340, Note_on_c, 12, 59, 84
15, 23391, Note_on_c, 12, 59, 0
15, 23400, Note_on_c, 12, 61, 84
15, 23451, Note_on_c, 12, 61, 0
15, 23460, Note_on_c, 12, 61, 84
15, 23511, Note_on_c, 12, 61, 0
15, 23520, Note_on_c, 12, 59, 84
15, 23571, Note_on_c, 12, 59, 0
15, 23580, Note_on_c, 12, 59, 84
15, 23631, Note_on_c, 12, 59, 0
15, 23640, Note_on_c, 12, 61, 84
15, 23691, Note_on_c, 12, 61, 0
15, 23700, Note_on_c, 12, 61, 84
15, 23751, Note_on_c, 12, 61, 0
15, 23760, Note_on_c, 12, 62, 84
15, 23811, Note_on_c, 12, 62, 0
15, 23820, Note_on_c, 12, 62, 84
15, 23871, Note_on_c, 12, 62, 0
15, 23880, Note_on_c, 12, 63, 84
15, 23931, Note_on_c, 12, 63, 0
15, 23940, Note_on_c, 12, 63, 84
15, 23991, Note_on_c, 12, 63, 0
15, 24000, Note_on_c, 12, 64, 84
15, 24051, Note_on_c, 12, 64, 0
15, 24060, Note_on_c, 12, 64, 84
15, 24111, Note_on_c, 12, 64, 0
15, 24120, Note_on_c, 12, 66, 84
15, 24171, Note_on_c, 12, 66, 0
15, 24180, Note_on_c, 12, 66, 84
15, 24231, Note_on_c, 12, 66, 0
15, 24240, Note_on_c, 12, 67, 84
15, 24291, Note_on_c, 12, 67, 0
15, 24300, Note_on_c, 12, 67, 84
15, 24351, Note_on_c, 12, 67, 0
15, 24360, Note_on_c, 12, 68, 84
15, 24411, Note_on_c, 12, 68, 0
15, 24420, Note_on_c, 12, 68, 84
15, 24471, Note_on_c, 12, 68, 0
15, 24480, Note_on_c, 12, 69, 84
15, 24599, Note_on_c, 12, 69, 0
15, 25560, Note_on_c, 12, 52, 84
15, 25619, Note_on_c, 12, 52, 0
15, 25620, Note_on_c, 12, 54, 84
15, 25679, Note_on_c, 12, 54, 0
15, 25680, Note_on_c, 12, 57, 84
15, 25739, Note_on_c, 12, 57, 0
15, 25740, Note_on_c, 12, 56, 84
15, 25799, Note_on_c, 12, 56, 0
15, 25800, Note_on_c, 12, 54, 84
15, 25859, Note_on_c, 12, 54, 0
15, 25860, Note_on_c, 12, 56, 84
15, 25911, Note_on_c, 12, 56, 0
15, 25920, Note_on_c, 12, 57, 84
15, 26159, Note_on_c, 12, 57, 0
15, 26160, Note_on_c, 12, 56, 84
15, 26399, Note_on_c, 12, 56, 0
15, 26400, Note_on_c, 12, 57, 84
15, 26639, Note_on_c, 12, 57, 0
15, 27480, Note_on_c, 12, 52, 84
15, 27539, Note_on_c, 12, 52, 0
15, 27540, Note_on_c, 12, 54, 84
15, 27599, Note_on_c, 12, 54, 0
15, 27600, Note_on_c, 12, 57, 84
15, 27659, Note_on_c, 12, 57, 0
15, 27660, Note_on_c, 12, 56, 84
15, 27719, Note_on_c, 12, 56, 0
15, 27720, Note_on_c, 12, 54, 84
15, 27779, Note_on_c, 12, 54, 0
15, 27780, Note_on_c, 12, 56, 84
15, 27831, Note_on_c, 12, 56, 0
15, 27840, Note_on_c, 12, 57, 84
15, 28079, Note_on_c, 12, 57, 0
15, 28080, Note_on_c, 12, 61, 84
15, 28319, Note_on_c, 12, 61, 0
15, 28320, Note_on_c, 12, 54, 84
15, 28439, Note_on_c, 12, 54, 0
15, 28920, Note_on_c, 12, 61, 84
15, 28979, Note_on_c, 12, 61, 0
15, 28980, Note_on_c, 12, 63, 84
15, 29039, Note_on_c, 12, 63, 0
15, 29040, Note_on_c, 12, 66, 84
15, 29099, Note_on_c, 12, 66, 0
15, 29100, Note_on_c, 12, 65, 84
15, 29159, Note_on_c, 12, 65, 0
15, 29160, Note_on_c, 12, 63, 84
15, 29219, Note_on_c, 12, 63, 0
15, 29220, Note_on_c, 12, 65, 84
15, 29271, Note_on_c, 12, 65, 0
15, 29280, Note_on_c, 12, 66, 84
15, 29519, Note_on_c, 12, 66, 0
15, 29520, Note_on_c, 12, 65, 84
15, 29759, Note_on_c, 12, 65, 0
15, 29760, Note_on_c, 12, 66, 84
15, 29999, Note_on_c, 12, 66, 0
15, 30000, Note_on_c, 12, 65, 84
15, 30239, Note_on_c, 12, 65, 0
15, 30240, Note_on_c, 12, 66, 84
15, 30479, Note_on_c, 12, 66, 0
15, 30840, Note_on_c, 12, 61, 84
15, 30899, Note_on_c, 12, 61, 0
15, 30900, Note_on_c, 12, 63, 84
15, 30959, Note_on_c, 12, 63, 0
15, 30960, Note_on_c, 12, 66, 84
15, 31019, Note_on_c, 12, 66, 0
15, 31020, Note_on_c, 12, 65, 84
15, 31079, Note_on_c, 12, 65, 0
15, 31080, Note_on_c, 12, 63, 84
15, 31139, Note_on_c, 12, 63, 0
15, 31140, Note_on_c, 12, 65, 84
15, 31191, Note_on_c, 12, 65, 0
15, 31200, Note_on_c, 12, 66, 84
15, 31439, Note_on_c, 12, 66, 0
15, 31440, Note_on_c, 12, 65, 84
15, 31679, Note_on_c, 12, 65, 0
15, 31680, Note_on_c, 12, 66, 84
15, 31919, Note_on_c, 12, 66, 0
15, 31920, Note_on_c, 12, 61, 84
15, 32144, Note_on_c, 12, 61, 0
15, 32160, Note_on_c, 12, 61, 84
15, 32331, Note_on_c, 12, 61, 0
15, 32340, Note_on_c, 12, 61, 84
15, 32391, Note_on_c, 12, 61, 0
15, 32400, Note_on_c, 12, 61, 84
15, 32571, Note_on_c, 12, 61, 0
15, 32580, Note_on_c, 12, 61, 84
15, 32631, Note_on_c, 12, 61, 0
15, 32640, Note_on_c, 12, 61, 84
15, 32811, Note_on_c, 12, 61, 0
15, 32820, Note_on_c, 12, 61, 84
15, 32871, Note_on_c, 12, 61, 0
15, 32880, Note_on_c, 12, 61, 84
15, 33051, Note_on_c, 12, 61, 0
15, 33060, Note_on_c, 12, 61, 84
15, 33111, Note_on_c, 12, 61, 0
15, 33120, Note_on_c, 12, 61, 84
15, 33291, Note_on_c, 12, 61, 0
15, 33300, Note_on_c, 12, 61, 84
15, 33351, Note_on_c, 12, 61, 0
15, 33360, Note_on_c, 12, 61, 84
15, 33531, Note_on_c, 12, 61, 0
15, 33540, Note_on_c, 12, 61, 84
15, 33591, Note_on_c, 12, 61, 0
15, 33600, Note_on_c, 12, 61, 84
15, 33771, Note_on_c, 12, 61, 0
15, 33780, Note_on_c, 12, 61, 84
15, 33831, Note_on_c, 12, 61, 0
15, 33840, Note_on_c, 12, 61, 84
15, 34011, Note_on_c, 12, 61, 0
15, 34020, Note_on_c, 12, 61, 84
15, 34071, Note_on_c, 12, 61, 0
15, 34080, Note_on_c, 12, 61, 84
15, 34251, Note_on_c, 12, 61, 0
15, 34260, Note_on_c, 12, 61, 84
15, 34311, Note_on_c, 12, 61, 0
15, 34320, Note_on_c, 12, 61, 84
15, 34491, Note_on_c, 12, 61, 0
15, 34500, Note_on_c, 12, 61, 84
15, 34551, Note_on_c, 12, 61, 0
15, 34560, Note_on_c, 12, 66, 84
15, 34731, Note_on_c, 12, 66, 0
15, 34740, Note_on_c, 12, 66, 84
15, 34791, Note_on_c, 12, 66, 0
15, 34800, Note_on_c, 12, 66, 84
15, 34971, Note_on_c, 12, 66, 0
15, 34980, Note_on_c, 12, 66, 84
15, 35031, Note_on_c, 12, 66, 0
15, 35040, Note_on_c, 12, 66, 84
15, 35211, Note_on_c, 12, 66, 0
15, 35220, Note_on_c, 12, 69, 84
15, 35220, Note_on_c, 12, 66, 84
15, 35271, Note_on_c, 12, 69, 0
15, 35271, Note_on_c, 12, 66, 0
15, 35280, Note_on_c, 12, 66, 84
15, 35280, Note_on_c, 12, 69, 84
15, 35451, Note_on_c, 12, 66, 0
15, 35451, Note_on_c, 12, 69, 0
15, 35460, Note_on_c, 12, 69, 84
15, 35460, Note_on_c, 12, 66, 84
15, 35511, Note_on_c, 12, 69, 0
15, 35511, Note_on_c, 12, 66, 0
15, 35520, Note_on_c, 12, 69, 84
15, 35520, Note_on_c, 12, 66, 84
15, 35691, Note_on_c, 12, 69, 0
15, 35691, Note_on_c, 12, 66, 0
15, 35700, Note_on_c, 12, 66, 84
15, 35700, Note_on_c, 12, 69, 84
15, 35751, Note_on_c, 12, 66, 0
15, 35751, Note_on_c, 12, 69, 0
15, 35760, Note_on_c, 12, 69, 84
15, 35760, Note_on_c, 12, 66, 84
15, 35931, Note_on_c, 12, 69, 0
15, 35931, Note_on_c, 12, 66, 0
15, 35940, Note_on_c, 12, 66, 84
15, 35940, Note_on_c, 12, 69, 84
15, 35991, Note_on_c, 12, 66, 0
15, 35991, Note_on_c, 12, 69, 0
15, 36000, Note_on_c, 12, 66, 84
15, 36000, Note_on_c, 12, 69, 84
15, 36171, Note_on_c, 12, 66, 0
15, 36171, Note_on_c, 12, 69, 0
15, 36180, Note_on_c, 12, 60, 84
15, 36231, Note_on_c, 12, 60, 0
15, 36240, Note_on_c, 12, 60, 84
15, 36411, Note_on_c, 12, 60, 0
15, 36420, Note_on_c, 12, 60, 84
15, 36471, Note_on_c, 12, 60, 0
15, 36480, Note_on_c, 12, 60, 84
15, 36651, Note_on_c, 12, 60, 0
15, 36660, Note_on_c, 12, 60, 84
15, 36711, Note_on_c, 12, 60, 0
15, 36720, Note_on_c, 12, 60, 84
15, 36891, Note_on_c, 12, 60, 0
15, 36900, Note_on_c, 12, 60, 84
15, 36951, Note_on_c, 12, 60, 0
15, 36960, Note_on_c, 12, 60, 84
15, 37079, Note_on_c, 12, 60, 0
15, 37200, Note_on_c, 12, 69, 76
15, 37251, Note_on_c, 12, 69, 0
15, 37260, Note_on_c, 12, 69, 76
15, 37311, Note_on_c, 12, 69, 0
15, 37320, Note_on_c, 12, 69, 76
15, 37371, Note_on_c, 12, 69, 0
15, 37380, Note_on_c, 12, 69, 76
15, 37431, Note_on_c, 12, 69, 0
15, 37440, Note_on_c, 12, 69, 52
15, 37491, Note_on_c, 12, 69, 0
15, 37500, Note_on_c, 12, 69, 52
15, 37551, Note_on_c, 12, 69, 0
15, 37560, Note_on_c, 12, 69, 52
15, 37611, Note_on_c, 12, 69, 0
15, 37620, Note_on_c, 12, 69, 52
15, 37671, Note_on_c, 12, 69, 0
15, 37680, Note_on_c, 12, 68, 52
15, 37731, Note_on_c, 12, 68, 0
15, 37740, Note_on_c, 12, 68, 52
15, 37791, Note_on_c, 12, 68, 0
15, 37800, Note_on_c, 12, 68, 52
15, 37851, Note_on_c, 12, 68, 0
15, 37860, Note_on_c, 12, 68, 52
15, 37911, Note_on_c, 12, 68, 0
15, 37920, Note_on_c, 12, 68, 52
15, 37971, Note_on_c, 12, 68, 0
15, 37980, Note_on_c, 12, 66, 52
15, 38031, Note_on_c, 12, 66, 0
15, 38040, Note_on_c, 12, 66, 52
15, 38091, Note_on_c, 12, 66, 0
15, 38100, Note_on_c, 12, 66, 52
15, 38151, Note_on_c, 12, 66, 0
15, 38160, Note_on_c, 12, 66, 52
15, 38211, Note_on_c, 12, 66, 0
15, 38220, Note_on_c, 12, 66, 52
15, 38271, Note_on_c, 12, 66, 0
15, 38280, Note_on_c, 12, 66, 52
15, 38331, Note_on_c, 12, 66, 0
15, 38340, Note_on_c, 12, 66, 52
15, 38391, Note_on_c, 12, 66, 0
15, 38400, Note_on_c, 12, 66, 52
15, 38451, Note_on_c, 12, 66, 0
15, 38460, Note_on_c, 12, 66, 52
15, 38511, Note_on_c, 12, 66, 0
15, 38520, Note_on_c, 12, 66, 52
15, 38571, Note_on_c, 12, 66, 0
15, 38580, Note_on_c, 12, 66, 52
15, 38631, Note_on_c, 12, 66, 0
15, 38640, Note_on_c, 12, 64, 52
15, 38691, Note_on_c, 12, 64, 0
15, 38700, Note_on_c, 12, 64, 52
15, 38751, Note_on_c, 12, 64, 0
15, 38760, Note_on_c, 12, 64, 52
15, 38811, Note_on_c, 12, 64, 0
15, 38820, Note_on_c, 12, 64, 52
15, 38871, Note_on_c, 12, 64, 0
15, 38880, Note_on_c, 12, 56, 52
15, 38999, Note_on_c, 12, 56, 0
15, 39120, Note_on_c, 12, 69, 76
15, 39171, Note_on_c, 12, 69, 0
15, 39180, Note_on_c, 12, 69, 76
15, 39231, Note_on_c, 12, 69, 0
15, 39240, Note_on_c, 12, 69, 76
15, 39291, Note_on_c, 12, 69, 0
15, 39300, Note_on_c, 12, 69, 76
15, 39351, Note_on_c, 12, 69, 0
15, 39360, Note_on_c, 12, 69, 52
15, 39411, Note_on_c, 12, 69, 0
15, 39420, Note_on_c, 12, 69, 52
15, 39471, Note_on_c, 12, 69, 0
15, 39480, Note_on_c, 12, 69, 52
15, 39531, Note_on_c, 12, 69, 0
15, 39540, Note_on_c, 12, 69, 52
15, 39591, Note_on_c, 12, 69, 0
15, 39600, Note_on_c, 12, 68, 52
15, 39651, Note_on_c, 12, 68, 0
15, 39660, Note_on_c, 12, 68, 52
15, 39711, Note_on_c, 12, 68, 0
15, 39720, Note_on_c, 12, 68, 52
15, 39771, Note_on_c, 12, 68, 0
15, 39780, Note_on_c, 12, 68, 52
15, 39831, Note_on_c, 12, 68, 0
15, 39840, Note_on_c, 12, 68, 52
15, 39891, Note_on_c, 12, 68, 0
15, 39900, Note_on_c, 12, 66, 52
15, 39951, Note_on_c, 12, 66, 0
15, 39960, Note_on_c, 12, 66, 52
15, 40011, Note_on_c, 12, 66, 0
15, 40020, Note_on_c, 12, 66, 52
15, 40071, Note_on_c, 12, 66, 0
15, 40080, Note_on_c, 12, 66, 52
15, 40131, Note_on_c, 12, 66, 0
15, 40140, Note_on_c, 12, 66, 52
15, 40191, Note_on_c, 12, 66, 0
15, 40200, Note_on_c, 12, 66, 52
15, 40251, Note_on_c, 12, 66, 0
15, 40260, Note_on_c, 12, 66, 52
15, 40311, Note_on_c, 12, 66, 0
15, 40320, Note_on_c, 12, 66, 52
15, 40371, Note_on_c, 12, 66, 0
15, 40380, Note_on_c, 12, 66, 52
15, 40431, Note_on_c, 12, 66, 0
15, 40440, Note_on_c, 12, 66, 52
15, 40491, Note_on_c, 12, 66, 0
15, 40500, Note_on_c, 12, 66, 52
15, 40551, Note_on_c, 12, 66, 0
15, 40560, Note_on_c, 12, 64, 52
15, 40611, Note_on_c, 12, 64, 0
15, 40620, Note_on_c, 12, 64, 52
15, 40671, Note_on_c, 12, 64, 0
15, 40680, Note_on_c, 12, 64, 52
15, 40731, Note_on_c, 12, 64, 0
15, 40740, Note_on_c, 12, 64, 52
15, 40791, Note_on_c, 12, 64, 0
15, 40800, Note_on_c, 12, 66, 52
15, 40851, Note_on_c, 12, 66, 0
15, 40860, Note_on_c, 12, 66, 52
15, 40911, Note_on_c, 12, 66, 0
15, 40920, Note_on_c, 12, 66, 52
15, 40971, Note_on_c, 12, 66, 0
15, 40980, Note_on_c, 12, 66, 52
15, 41031, Note_on_c, 12, 66, 0
15, 41040, Note_on_c, 12, 66, 51
15, 41091, Note_on_c, 12, 66, 0
15, 41100, Note_on_c, 12, 66, 51
15, 41151, Note_on_c, 12, 66, 0
15, 41160, Note_on_c, 12, 66, 51
15, 41211, Note_on_c, 12, 66, 0
15, 41220, Note_on_c, 12, 66, 51
15, 41271, Note_on_c, 12, 66, 0
15, 41280, Note_on_c, 12, 66, 50
15, 41331, Note_on_c, 12, 66, 0
15, 41340, Note_on_c, 12, 66, 50
15, 41391, Note_on_c, 12, 66, 0
15, 41400, Note_on_c, 12, 66, 50
15, 41451, Note_on_c, 12, 66, 0
15, 41460, Note_on_c, 12, 66, 50
15, 41511, Note_on_c, 12, 66, 0
15, 41520, Note_on_c, 12, 64, 49
15, 41571, Note_on_c, 12, 64, 0
15, 41580, Note_on_c, 12, 64, 49
15, 41631, Note_on_c, 12, 64, 0
15, 41640, Note_on_c, 12, 64, 49
15, 41691, Note_on_c, 12, 64, 0
15, 41700, Note_on_c, 12, 64, 49
15, 41751, Note_on_c, 12, 64, 0
15, 41760, Note_on_c, 12, 66, 48
15, 41811, Note_on_c, 12, 66, 0
15, 41820, Note_on_c, 12, 66, 48
15, 41871, Note_on_c, 12, 66, 0
15, 41880, Note_on_c, 12, 66, 48
15, 41931, Note_on_c, 12, 66, 0
15, 41940, Note_on_c, 12, 66, 48
15, 41991, Note_on_c, 12, 66, 0
15, 42000, Note_on_c, 12, 66, 47
15, 42051, Note_on_c, 12, 66, 0
15, 42060, Note_on_c, 12, 66, 47
15, 42111, Note_on_c, 12, 66, 0
15, 42120, Note_on_c, 12, 66, 47
15, 42171, Note_on_c, 12, 66, 0
15, 42180, Note_on_c, 12, 66, 47
15, 42231, Note_on_c, 12, 66, 0
15, 42240, Note_on_c, 12, 66, 46
15, 42291, Note_on_c, 12, 66, 0
15, 42300, Note_on_c, 12, 60, 46
15, 42351, Note_on_c, 12, 60, 0
15, 42360, Note_on_c, 12, 60, 46
15, 42411, Note_on_c, 12, 60, 0
15, 42420, Note_on_c, 12, 60, 46
15, 42471, Note_on_c, 12, 60, 0
15, 42480, Note_on_c, 12, 60, 45
15, 42531, Note_on_c, 12, 60, 0
15, 42540, Note_on_c, 12, 60, 45
15, 42591, Note_on_c, 12, 60, 0
15, 42600, Note_on_c, 12, 60, 45
15, 42651, Note_on_c, 12, 60, 0
15, 42660, Note_on_c, 12, 60, 45
15, 42711, Note_on_c, 12, 60, 0
15, 42720, Note_on_c, 12, 61, 52
15, 42891, Note_on_c, 12, 61, 0
15, 42900, Note_on_c, 12, 56, 52
15, 42944, Note_on_c, 12, 56, 0
15, 42960, Note_on_c, 12, 56, 76
15, 43191, Note_on_c, 12, 56, 0
15, 43200, Note_on_c, 12, 56, 52
15, 43371, Note_on_c, 12, 56, 0
15, 43380, Note_on_c, 12, 56, 52
15, 43424, Note_on_c, 12, 56, 0
15, 43440, Note_on_c, 12, 56, 76
15, 43671, Note_on_c, 12, 56, 0
15, 43680, Note_on_c, 12, 56, 52
15, 43851, Note_on_c, 12, 56, 0
15, 43860, Note_on_c, 12, 56, 52
15, 43904, Note_on_c, 12, 56, 0
15, 43920, Note_on_c, 12, 56, 76
15, 44151, Note_on_c, 12, 56, 0
15, 44160, Note_on_c, 12, 56, 52
15, 44331, Note_on_c, 12, 56, 0
15, 44340, Note_on_c, 12, 56, 52
15, 44384, Note_on_c, 12, 56, 0
15, 44400, Note_on_c, 12, 56, 76
15, 44631, Note_on_c, 12, 56, 0
15, 44640, Note_on_c, 12, 61, 52
15, 44759, Note_on_c, 12, 61, 0
15, 47040, Note_on_c, 12, 60, 52
15, 47264, Note_on_c, 12, 60, 0
15, 47280, Note_on_c, 12, 60, 52
15, 47504, Note_on_c, 12, 60, 0
15, 47520, Note_on_c, 12, 61, 52
15, 47691, Note_on_c, 12, 61, 0
15, 47700, Note_on_c, 12, 56, 52
15, 47744, Note_on_c, 12, 56, 0
15, 47760, Note_on_c, 12, 56, 76
15, 47991, Note_on_c, 12, 56, 0
15, 48000, Note_on_c, 12, 56, 52
15, 48171, Note_on_c, 12, 56, 0
15, 48180, Note_on_c, 12, 56, 52
15, 48224, Note_on_c, 12, 56, 0
15, 48240, Note_on_c, 12, 56, 76
15, 48471, Note_on_c, 12, 56, 0
15, 48480, Note_on_c, 12, 56, 52
15, 48651, Note_on_c, 12, 56, 0
15, 48660, Note_on_c, 12, 56, 52
15, 48704, Note_on_c, 12, 56, 0
15, 48720, Note_on_c, 12, 56, 76
15, 48951, Note_on_c, 12, 56, 0
15, 48960, Note_on_c, 12, 56, 52
15, 49131, Note_on_c, 12, 56, 0
15, 49140, Note_on_c, 12, 56, 52
15, 49184, Note_on_c, 12, 56, 0
15, 49200, Note_on_c, 12, 56, 76
15, 49431, Note_on_c, 12, 56, 0
15, 49440, Note_on_c, 12, 61, 52
15, 49559, Note_on_c, 12, 61, 0
15, 52500, Note_on_c, 12, 55, 58
15, 52559, Note_on_c, 12, 55, 0
15, 52560, Note_on_c, 12, 52, 58
15, 52679, Note_on_c, 12, 52, 0
15, 52740, Note_on_c, 12, 49, 59
15, 52799, Note_on_c, 12, 49, 0
15, 52800, Note_on_c, 12, 52, 60
15, 52919, Note_on_c, 12, 52, 0
15, 52980, Note_on_c, 12, 55, 61
15, 53039, Note_on_c, 12, 55, 0
15, 53040, Note_on_c, 12, 57, 61
15, 53159, Note_on_c, 12, 57, 0
15, 53220, Note_on_c, 12, 61, 62
15, 53279, Note_on_c, 12, 61, 0
15, 53280, Note_on_c, 12, 64, 62
15, 53399, Note_on_c, 12, 64, 0
15, 55380, Note_on_c, 12, 55, 74
15, 55439, Note_on_c, 12, 55, 0
15, 55440, Note_on_c, 12, 52, 74
15, 55559, Note_on_c, 12, 52, 0
15, 55620, Note_on_c, 12, 49, 75
15, 55679, Note_on_c, 12, 49, 0
15, 55680, Note_on_c, 12, 52, 76
15, 55799, Note_on_c, 12, 52, 0
15, 55860, Note_on_c, 12, 55, 77
15, 55919, Note_on_c, 12, 55, 0
15, 55920, Note_on_c, 12, 57, 77
15, 56039, Note_on_c, 12, 57, 0
15, 56100, Note_on_c, 12, 61, 78
15, 56159, Note_on_c, 12, 61, 0
15, 56160, Note_on_c, 12, 64, 78
15, 56279, Note_on_c, 12, 64, 0
15, 57120, Note_on_c, 12, 63, 84
15, 57171, Note_on_c, 12, 63, 0
15, 57180, Note_on_c, 12, 63, 84
15, 57231, Note_on_c, 12, 63, 0
15, 57240, Note_on_c, 12, 63, 84
15, 57291, Note_on_c, 12, 63, 0
15, 57300, Note_on_c, 12, 63, 84
15, 57351, Note_on_c, 12, 63, 0
15, 57360, Note_on_c, 12, 63, 84
15, 57411, Note_on_c, 12, 63, 0
15, 57420, Note_on_c, 12, 63, 84
15, 57471, Note_on_c, 12, 63, 0
15, 57480, Note_on_c, 12, 63, 84
15, 57531, Note_on_c, 12, 63, 0
15, 57540, Note_on_c, 12, 63, 84
15, 57591, Note_on_c, 12, 63, 0
15, 57600, Note_on_c, 12, 63, 84
15, 57651, Note_on_c, 12, 63, 0
15, 57660, Note_on_c, 12, 63, 84
15, 57711, Note_on_c, 12, 63, 0
15, 57720, Note_on_c, 12, 63, 84
15, 57771, Note_on_c, 12, 63, 0
15, 57780, Note_on_c, 12, 63, 84
15, 57831, Note_on_c, 12, 63, 0
15, 57840, Note_on_c, 12, 63, 84
15, 57891, Note_on_c, 12, 63, 0
15, 57900, Note_on_c, 12, 63, 84
15, 57951, Note_on_c, 12, 63, 0
15, 57960, Note_on_c, 12, 63, 84
15, 58011, Note_on_c, 12, 63, 0
15, 58020, Note_on_c, 12, 63, 84
15, 58071, Note_on_c, 12, 63, 0
15, 58080, Note_on_c, 12, 64, 92
15, 58131, Note_on_c, 12, 64, 0
15, 58140, Note_on_c, 12, 64, 84
15, 58191, Note_on_c, 12, 64, 0
15, 58200, Note_on_c, 12, 64, 84
15, 58251, Note_on_c, 12, 64, 0
15, 58260, Note_on_c, 12, 64, 84
15, 58311, Note_on_c, 12, 64, 0
15, 58320, Note_on_c, 12, 64, 84
15, 58371, Note_on_c, 12, 64, 0
15, 58380, Note_on_c, 12, 64, 84
15, 58431, Note_on_c, 12, 64, 0
15, 58440, Note_on_c, 12, 64, 84
15, 58491, Note_on_c, 12, 64, 0
15, 58500, Note_on_c, 12, 64, 84
15, 58551, Note_on_c, 12, 64, 0
15, 58560, Note_on_c, 12, 63, 92
15, 58611, Note_on_c, 12, 63, 0
15, 58620, Note_on_c, 12, 63, 84
15, 58671, Note_on_c, 12, 63, 0
15, 58680, Note_on_c, 12, 63, 84
15, 58731, Note_on_c, 12, 63, 0
15, 58740, Note_on_c, 12, 63, 84
15, 58791, Note_on_c, 12, 63, 0
15, 58800, Note_on_c, 12, 63, 84
15, 58851, Note_on_c, 12, 63, 0
15, 58860, Note_on_c, 12, 63, 84
15, 58911, Note_on_c, 12, 63, 0
15, 58920, Note_on_c, 12, 63, 84
15, 58971, Note_on_c, 12, 63, 0
15, 58980, Note_on_c, 12, 63, 84
15, 59031, Note_on_c, 12, 63, 0
15, 59040, Note_on_c, 12, 64, 92
15, 59091, Note_on_c, 12, 64, 0
15, 59100, Note_on_c, 12, 64, 84
15, 59151, Note_on_c, 12, 64, 0
15, 59160, Note_on_c, 12, 64, 84
15, 59211, Note_on_c, 12, 64, 0
15, 59220, Note_on_c, 12, 64, 84
15, 59271, Note_on_c, 12, 64, 0
15, 59280, Note_on_c, 12, 64, 84
15, 59331, Note_on_c, 12, 64, 0
15, 59340, Note_on_c, 12, 64, 84
15, 59391, Note_on_c, 12, 64, 0
15, 59400, Note_on_c, 12, 64, 84
15, 59451, Note_on_c, 12, 64, 0
15, 59460, Note_on_c, 12, 64, 84
15, 59511, Note_on_c, 12, 64, 0
15, 59520, Note_on_c, 12, 63, 92
15, 59571, Note_on_c, 12, 63, 0
15, 59580, Note_on_c, 12, 63, 84
15, 59631, Note_on_c, 12, 63, 0
15, 59640, Note_on_c, 12, 63, 84
15, 59691, Note_on_c, 12, 63, 0
15, 59700, Note_on_c, 12, 63, 84
15, 59751, Note_on_c, 12, 63, 0
15, 59760, Note_on_c, 12, 63, 84
15, 59811, Note_on_c, 12, 63, 0
15, 59820, Note_on_c, 12, 63, 84
15, 59871, Note_on_c, 12, 63, 0
15, 59880, Note_on_c, 12, 63, 84
15, 59931, Note_on_c, 12, 63, 0
15, 59940, Note_on_c, 12, 63, 84
15, 59991, Note_on_c, 12, 63, 0
15, 60000, Note_on_c, 12, 64, 92
15, 60051, Note_on_c, 12, 64, 0
15, 60060, Note_on_c, 12, 61, 84
15, 60111, Note_on_c, 12, 61, 0
15, 60120, Note_on_c, 12, 73, 84
15, 60171, Note_on_c, 12, 73, 0
15, 60180, Note_on_c, 12, 73, 84
15, 60231, Note_on_c, 12, 73, 0
15, 60240, Note_on_c, 12, 73, 84
15, 60291, Note_on_c, 12, 73, 0
15, 60300, Note_on_c, 12, 73, 84
15, 60351, Note_on_c, 12, 73, 0
15, 60360, Note_on_c, 12, 73, 84
15, 60411, Note_on_c, 12, 73, 0
15, 60420, Note_on_c, 12, 73, 84
15, 60471, Note_on_c, 12, 73, 0
15, 60480, Note_on_c, 12, 73, 92
15, 60531, Note_on_c, 12, 73, 0
15, 60540, Note_on_c, 12, 73, 84
15, 60591, Note_on_c, 12, 73, 0
15, 60600, Note_on_c, 12, 73, 84
15, 60651, Note_on_c, 12, 73, 0
15, 60660, Note_on_c, 12, 73, 84
15, 60711, Note_on_c, 12, 73, 0
15, 60720, Note_on_c, 12, 73, 84
15, 60771, Note_on_c, 12, 73, 0
15, 60780, Note_on_c, 12, 73, 84
15, 60831, Note_on_c, 12, 73, 0
15, 60840, Note_on_c, 12, 73, 84
15, 60891, Note_on_c, 12, 73, 0
15, 60900, Note_on_c, 12, 73, 84
15, 60951, Note_on_c, 12, 73, 0
15, 60960, Note_on_c, 12, 73, 92
15, 61011, Note_on_c, 12, 73, 0
15, 61020, Note_on_c, 12, 61, 84
15, 61071, Note_on_c, 12, 61, 0
15, 61080, Note_on_c, 12, 61, 84
15, 61131, Note_on_c, 12, 61, 0
15, 61140, Note_on_c, 12, 61, 84
15, 61191, Note_on_c, 12, 61, 0
15, 61200, Note_on_c, 12, 61, 84
15, 61251, Note_on_c, 12, 61, 0
15, 61260, Note_on_c, 12, 61, 84
15, 61311, Note_on_c, 12, 61, 0
15, 61320, Note_on_c, 12, 61, 84
15, 61371, Note_on_c, 12, 61, 0
15, 61380, Note_on_c, 12, 61, 84
15, 61431, Note_on_c, 12, 61, 0
15, 61440, Note_on_c, 12, 60, 92
15, 61491, Note_on_c, 12, 60, 0
15, 61500, Note_on_c, 12, 60, 84
15, 61551, Note_on_c, 12, 60, 0
15, 61560, Note_on_c, 12, 60, 84
15, 61611, Note_on_c, 12, 60, 0
15, 61620, Note_on_c, 12, 60, 84
15, 61671, Note_on_c, 12, 60, 0
15, 61680, Note_on_c, 12, 60, 84
15, 61731, Note_on_c, 12, 60, 0
15, 61740, Note_on_c, 12, 60, 84
15, 61791, Note_on_c, 12, 60, 0
15, 61800, Note_on_c, 12, 60, 84
15, 61851, Note_on_c, 12, 60, 0
15, 61860, Note_on_c, 12, 60, 84
15, 61911, Note_on_c, 12, 60, 0
15, 61920, Note_on_c, 12, 61, 84
15, 61979, Note_on_c, 12, 61, 0
15, 61980, Note_on_c, 12, 64, 84
15, 62039, Note_on_c, 12, 64, 0
15, 62040, Note_on_c, 12, 66, 84
15, 62099, Note_on_c, 12, 66, 0
15, 62100, Note_on_c, 12, 68, 84
15, 62151, Note_on_c, 12, 68, 0
15, 62160, Note_on_c, 12, 71, 92
15, 62219, Note_on_c, 12, 71, 0
15, 62220, Note_on_c, 12, 69, 84
15, 62279, Note_on_c, 12, 69, 0
15, 62280, Note_on_c, 12, 68, 84
15, 62339, Note_on_c, 12, 68, 0
15, 62340, Note_on_c, 12, 66, 84
15, 62399, Note_on_c, 12, 66, 0
15, 62400, Note_on_c, 12, 71, 84
15, 62459, Note_on_c, 12, 71, 0
15, 62460, Note_on_c, 12, 69, 84
15, 62519, Note_on_c, 12, 69, 0
15, 62520, Note_on_c, 12, 68, 84
15, 62579, Note_on_c, 12, 68, 0
15, 62580, Note_on_c, 12, 66, 84
15, 62639, Note_on_c, 12, 66, 0
15, 62640, Note_on_c, 12, 71, 84
15, 62699, Note_on_c, 12, 71, 0
15, 62700, Note_on_c, 12, 69, 84
15, 62759, Note_on_c, 12, 69, 0
15, 62760, Note_on_c, 12, 68, 84
15, 62819, Note_on_c, 12, 68, 0
15, 62820, Note_on_c, 12, 66, 84
15, 62871, Note_on_c, 12, 66, 0
15, 62880, Note_on_c, 12, 68, 84
15, 62939, Note_on_c, 12, 68, 0
15, 62940, Note_on_c, 12, 64, 84
15, 62999, Note_on_c, 12, 64, 0
15, 63000, Note_on_c, 12, 66, 84
15, 63059, Note_on_c, 12, 66, 0
15, 63060, Note_on_c, 12, 68, 84
15, 63111, Note_on_c, 12, 68, 0
15, 63120, Note_on_c, 12, 71, 92
15, 63179, Note_on_c, 12, 71, 0
15, 63180, Note_on_c, 12, 69, 84
15, 63239, Note_on_c, 12, 69, 0
15, 63240, Note_on_c, 12, 68, 84
15, 63299, Note_on_c, 12, 68, 0
15, 63300, Note_on_c, 12, 66, 84
15, 63359, Note_on_c, 12, 66, 0
15, 63360, Note_on_c, 12, 71, 84
15, 63419, Note_on_c, 12, 71, 0
15, 63420, Note_on_c, 12, 69, 84
15, 63479, Note_on_c, 12, 69, 0
15, 63480, Note_on_c, 12, 68, 84
15, 63539, Note_on_c, 12, 68, 0
15, 63540, Note_on_c, 12, 66, 84
15, 63599, Note_on_c, 12, 66, 0
15, 63600, Note_on_c, 12, 71, 84
15, 63659, Note_on_c, 12, 71, 0
15, 63660, Note_on_c, 12, 69, 84
15, 63719, Note_on_c, 12, 69, 0
15, 63720, Note_on_c, 12, 68, 84
15, 63779, Note_on_c, 12, 68, 0
15, 63780, Note_on_c, 12, 66, 84
15, 63831, Note_on_c, 12, 66, 0
15, 63840, Note_on_c, 12, 68, 84
15, 63899, Note_on_c, 12, 68, 0
15, 63900, Note_on_c, 12, 64, 84
15, 63959, Note_on_c, 12, 64, 0
15, 63960, Note_on_c, 12, 66, 84
15, 64019, Note_on_c, 12, 66, 0
15, 64020, Note_on_c, 12, 68, 84
15, 64071, Note_on_c, 12, 68, 0
15, 64080, Note_on_c, 12, 71, 92
15, 64139, Note_on_c, 12, 71, 0
15, 64140, Note_on_c, 12, 69, 84
15, 64199, Note_on_c, 12, 69, 0
15, 64200, Note_on_c, 12, 68, 84
15, 64259, Note_on_c, 12, 68, 0
15, 64260, Note_on_c, 12, 66, 84
15, 64311, Note_on_c, 12, 66, 0
15, 64320, Note_on_c, 12, 64, 84
15, 64364, Note_on_c, 12, 64, 0
15, 64380, Note_on_c, 12, 64, 84
15, 64439, Note_on_c, 12, 64, 0
15, 64440, Note_on_c, 12, 66, 84
15, 64499, Note_on_c, 12, 66, 0
15, 64500, Note_on_c, 12, 68, 84
15, 64559, Note_on_c, 12, 68, 0
15, 64560, Note_on_c, 12, 71, 92
15, 64619, Note_on_c, 12, 71, 0
15, 64620, Note_on_c, 12, 69, 84
15, 64679, Note_on_c, 12, 69, 0
15, 64680, Note_on_c, 12, 68, 84
15, 64739, Note_on_c, 12, 68, 0
15, 64740, Note_on_c, 12, 66, 84
15, 64791, Note_on_c, 12, 66, 0
15, 64800, Note_on_c, 12, 64, 84
15, 64844, Note_on_c, 12, 64, 0
15, 64860, Note_on_c, 12, 64, 84
15, 64919, Note_on_c, 12, 64, 0
15, 64920, Note_on_c, 12, 66, 84
15, 64979, Note_on_c, 12, 66, 0
15, 64980, Note_on_c, 12, 68, 84
15, 65039, Note_on_c, 12, 68, 0
15, 65040, Note_on_c, 12, 71, 92
15, 65099, Note_on_c, 12, 71, 0
15, 65100, Note_on_c, 12, 69, 84
15, 65159, Note_on_c, 12, 69, 0
15, 65160, Note_on_c, 12, 68, 84
15, 65219, Note_on_c, 12, 68, 0
15, 65220, Note_on_c, 12, 66, 84
15, 65271, Note_on_c, 12, 66, 0
15, 65280, Note_on_c, 12, 64, 84
15, 65331, Note_on_c, 12, 64, 0
15, 65340, Note_on_c, 12, 49, 84
15, 65391, Note_on_c, 12, 49, 0
15, 65400, Note_on_c, 12, 61, 84
15, 65451, Note_on_c, 12, 61, 0
15, 65460, Note_on_c, 12, 61, 84
15, 65511, Note_on_c, 12, 61, 0
15, 65520, Note_on_c, 12, 59, 84
15, 65571, Note_on_c, 12, 59, 0
15, 65580, Note_on_c, 12, 59, 84
15, 65631, Note_on_c, 12, 59, 0
15, 65640, Note_on_c, 12, 59, 84
15, 65691, Note_on_c, 12, 59, 0
15, 65700, Note_on_c, 12, 59, 84
15, 65751, Note_on_c, 12, 59, 0
15, 65760, Note_on_c, 12, 64, 84
15, 65760, Note_on_c, 12, 52, 84
15, 65760, Note_on_c, 12, 59, 84
15, 65879, Note_on_c, 12, 64, 0
15, 65879, Note_on_c, 12, 52, 0
15, 65879, Note_on_c, 12, 59, 0
15, 66720, Note_on_c, 12, 52, 84
15, 66720, Note_on_c, 12, 59, 84
15, 66720, Note_on_c, 12, 62, 84
15, 66839, Note_on_c, 12, 52, 0
15, 66839, Note_on_c, 12, 59, 0
15, 66839, Note_on_c, 12, 62, 0
15, 67680, Note_on_c, 12, 57, 84
15, 67731, Note_on_c, 12, 57, 0
15, 67740, Note_on_c, 12, 54, 84
15, 67791, Note_on_c, 12, 54, 0
15, 67800, Note_on_c, 12, 54, 84
15, 67851, Note_on_c, 12, 54, 0
15, 67860, Note_on_c, 12, 54, 84
15, 67911, Note_on_c, 12, 54, 0
15, 67920, Note_on_c, 12, 53, 92
15, 67971, Note_on_c, 12, 53, 0
15, 67980, Note_on_c, 12, 53, 84
15, 68031, Note_on_c, 12, 53, 0
15, 68040, Note_on_c, 12, 54, 84
15, 68091, Note_on_c, 12, 54, 0
15, 68100, Note_on_c, 12, 54, 84
15, 68151, Note_on_c, 12, 54, 0
15, 68160, Note_on_c, 12, 52, 84
15, 68211, Note_on_c, 12, 52, 0
15, 68220, Note_on_c, 12, 57, 84
15, 68271, Note_on_c, 12, 57, 0
15, 68280, Note_on_c, 12, 57, 84
15, 68331, Note_on_c, 12, 57, 0
15, 68340, Note_on_c, 12, 57, 84
15, 68391, Note_on_c, 12, 57, 0
15, 68400, Note_on_c, 12, 57, 92
15, 68451, Note_on_c, 12, 57, 0
15, 68460, Note_on_c, 12, 57, 84
15, 68511, Note_on_c, 12, 57, 0
15, 68520, Note_on_c, 12, 57, 84
15, 68571, Note_on_c, 12, 57, 0
15, 68580, Note_on_c, 12, 57, 84
15, 68631, Note_on_c, 12, 57, 0
15, 68640, Note_on_c, 12, 57, 84
15, 68691, Note_on_c, 12, 57, 0
15, 68700, Note_on_c, 12, 54, 84
15, 68751, Note_on_c, 12, 54, 0
15, 68760, Note_on_c, 12, 54, 84
15, 68811, Note_on_c, 12, 54, 0
15, 68820, Note_on_c, 12, 54, 84
15, 68871, Note_on_c, 12, 54, 0
15, 68880, Note_on_c, 12, 53, 92
15, 68931, Note_on_c, 12, 53, 0
15, 68940, Note_on_c, 12, 53, 84
15, 68991, Note_on_c, 12, 53, 0
15, 69000, Note_on_c, 12, 54, 84
15, 69051, Note_on_c, 12, 54, 0
15, 69060, Note_on_c, 12, 54, 84
15, 69111, Note_on_c, 12, 54, 0
15, 69120, Note_on_c, 12, 52, 84
15, 69171, Note_on_c, 12, 52, 0
15, 69180, Note_on_c, 12, 57, 84
15, 69231, Note_on_c, 12, 57, 0
15, 69240, Note_on_c, 12, 57, 84
15, 69291, Note_on_c, 12, 57, 0
15, 69300, Note_on_c, 12, 57, 84
15, 69351, Note_on_c, 12, 57, 0
15, 69360, Note_on_c, 12, 54, 92
15, 69411, Note_on_c, 12, 54, 0
15, 69420, Note_on_c, 12, 58, 84
15, 69471, Note_on_c, 12, 58, 0
15, 69480, Note_on_c, 12, 58, 84
15, 69531, Note_on_c, 12, 58, 0
15, 69540, Note_on_c, 12, 58, 84
15, 69591, Note_on_c, 12, 58, 0
15, 69600, Note_on_c, 12, 54, 84
15, 69651, Note_on_c, 12, 54, 0
15, 69660, Note_on_c, 12, 57, 84
15, 69711, Note_on_c, 12, 57, 0
15, 69720, Note_on_c, 12, 57, 84
15, 69771, Note_on_c, 12, 57, 0
15, 69780, Note_on_c, 12, 57, 84
15, 69831, Note_on_c, 12, 57, 0
15, 69840, Note_on_c, 12, 52, 92
15, 69891, Note_on_c, 12, 52, 0
15, 69900, Note_on_c, 12, 56, 84
15, 69951, Note_on_c, 12, 56, 0
15, 69960, Note_on_c, 12, 56, 84
15, 70011, Note_on_c, 12, 56, 0
15, 70020, Note_on_c, 12, 56, 84
15, 70071, Note_on_c, 12, 56, 0
15, 70080, Note_on_c, 12, 52, 84
15, 70131, Note_on_c, 12, 52, 0
15, 70140, Note_on_c, 12, 57, 84
15, 70191, Note_on_c, 12, 57, 0
15, 70200, Note_on_c, 12, 57, 84
15, 70251, Note_on_c, 12, 57, 0
15, 70260, Note_on_c, 12, 57, 84
15, 70311, Note_on_c, 12, 57, 0
15, 70320, Note_on_c, 12, 52, 92
15, 70371, Note_on_c, 12, 52, 0
15, 70380, Note_on_c, 12, 57, 84
15, 70431, Note_on_c, 12, 57, 0
15, 70440, Note_on_c, 12, 57, 84
15, 70491, Note_on_c, 12, 57, 0
15, 70500, Note_on_c, 12, 57, 84
15, 70551, Note_on_c, 12, 57, 0
15, 70560, Note_on_c, 12, 56, 84
15, 70611, Note_on_c, 12, 56, 0
15, 70620, Note_on_c, 12, 59, 84
15, 70671, Note_on_c, 12, 59, 0
15, 70680, Note_on_c, 12, 59, 84
15, 70731, Note_on_c, 12, 59, 0
15, 70740, Note_on_c, 12, 59, 84
15, 70791, Note_on_c, 12, 59, 0
15, 70800, Note_on_c, 12, 52, 92
15, 70851, Note_on_c, 12, 52, 0
15, 70860, Note_on_c, 12, 59, 84
15, 70911, Note_on_c, 12, 59, 0
15, 70920, Note_on_c, 12, 59, 84
15, 70971, Note_on_c, 12, 59, 0
15, 70980, Note_on_c, 12, 59, 84
15, 71031, Note_on_c, 12, 59, 0
15, 71040, Note_on_c, 12, 61, 84
15, 71099, Note_on_c, 12, 61, 0
15, 71100, Note_on_c, 12, 57, 84
15, 71159, Note_on_c, 12, 57, 0
15, 71160, Note_on_c, 12, 59, 84
15, 71219, Note_on_c, 12, 59, 0
15, 71220, Note_on_c, 12, 61, 84
15, 71279, Note_on_c, 12, 61, 0
15, 71280, Note_on_c, 12, 62, 84
15, 71339, Note_on_c, 12, 62, 0
15, 71340, Note_on_c, 12, 64, 84
15, 71399, Note_on_c, 12, 64, 0
15, 71400, Note_on_c, 12, 66, 84
15, 71459, Note_on_c, 12, 66, 0
15, 71460, Note_on_c, 12, 64, 84
15, 71511, Note_on_c, 12, 64, 0
15, 71520, Note_on_c, 12, 57, 84
15, 71571, Note_on_c, 12, 57, 0
15, 71580, Note_on_c, 12, 54, 84
15, 71631, Note_on_c, 12, 54, 0
15, 71640, Note_on_c, 12, 54, 84
15, 71691, Note_on_c, 12, 54, 0
15, 71700, Note_on_c, 12, 54, 84
15, 71751, Note_on_c, 12, 54, 0
15, 71760, Note_on_c, 12, 53, 92
15, 71811, Note_on_c, 12, 53, 0
15, 71820, Note_on_c, 12, 53, 84
15, 71871, Note_on_c, 12, 53, 0
15, 71880, Note_on_c, 12, 54, 84
15, 71931, Note_on_c, 12, 54, 0
15, 71940, Note_on_c, 12, 54, 84
15, 71991, Note_on_c, 12, 54, 0
15, 72000, Note_on_c, 12, 52, 84
15, 72051, Note_on_c, 12, 52, 0
15, 72060, Note_on_c, 12, 57, 84
15, 72111, Note_on_c, 12, 57, 0
15, 72120, Note_on_c, 12, 57, 84
15, 72171, Note_on_c, 12, 57, 0
15, 72180, Note_on_c, 12, 57, 84
15, 72231, Note_on_c, 12, 57, 0
15, 72240, Note_on_c, 12, 57, 92
15, 72291, Note_on_c, 12, 57, 0
15, 72300, Note_on_c, 12, 57, 84
15, 72351, Note_on_c, 12, 57, 0
15, 72360, Note_on_c, 12, 57, 84
15, 72411, Note_on_c, 12, 57, 0
15, 72420, Note_on_c, 12, 57, 84
15, 72471, Note_on_c, 12, 57, 0
15, 72480, Note_on_c, 12, 57, 84
15, 72531, Note_on_c, 12, 57, 0
15, 72540, Note_on_c, 12, 54, 84
15, 72591, Note_on_c, 12, 54, 0
15, 72600, Note_on_c, 12, 54, 84
15, 72651, Note_on_c, 12, 54, 0
15, 72660, Note_on_c, 12, 54, 84
15, 72711, Note_on_c, 12, 54, 0
15, 72720, Note_on_c, 12, 53, 92
15, 72771, Note_on_c, 12, 53, 0
15, 72780, Note_on_c, 12, 53, 84
15, 72831, Note_on_c, 12, 53, 0
15, 72840, Note_on_c, 12, 54, 84
15, 72891, Note_on_c, 12, 54, 0
15, 72900, Note_on_c, 12, 54, 84
15, 72951, Note_on_c, 12, 54, 0
15, 72960, Note_on_c, 12, 52, 84
15, 73011, Note_on_c, 12, 52, 0
15, 73020, Note_on_c, 12, 57, 84
15, 73071, Note_on_c, 12, 57, 0
15, 73080, Note_on_c, 12, 57, 84
15, 73131, Note_on_c, 12, 57, 0
15, 73140, Note_on_c, 12, 57, 84
15, 73191, Note_on_c, 12, 57, 0
15, 73200, Note_on_c, 12, 54, 92
15, 73251, Note_on_c, 12, 54, 0
15, 73260, Note_on_c, 12, 58, 84
15, 73311, Note_on_c, 12, 58, 0
15, 73320, Note_on_c, 12, 58, 84
15, 73371, Note_on_c, 12, 58, 0
15, 73380, Note_on_c, 12, 58, 84
15, 73431, Note_on_c, 12, 58, 0
15, 73440, Note_on_c, 12, 54, 84
15, 73491, Note_on_c, 12, 54, 0
15, 73500, Note_on_c, 12, 57, 84
15, 73551, Note_on_c, 12, 57, 0
15, 73560, Note_on_c, 12, 57, 84
15, 73611, Note_on_c, 12, 57, 0
15, 73620, Note_on_c, 12, 57, 84
15, 73671, Note_on_c, 12, 57, 0
15, 73680, Note_on_c, 12, 52, 92
15, 73731, Note_on_c, 12, 52, 0
15, 73740, Note_on_c, 12, 56, 84
15, 73791, Note_on_c, 12, 56, 0
15, 73800, Note_on_c, 12, 56, 84
15, 73851, Note_on_c, 12, 56, 0
15, 73860, Note_on_c, 12, 56, 84
15, 73911, Note_on_c, 12, 56, 0
15, 73920, Note_on_c, 12, 52, 84
15, 73971, Note_on_c, 12, 52, 0
15, 73980, Note_on_c, 12, 57, 84
15, 74031, Note_on_c, 12, 57, 0
15, 74040, Note_on_c, 12, 57, 84
15, 74091, Note_on_c, 12, 57, 0
15, 74100, Note_on_c, 12, 57, 84
15, 74151, Note_on_c, 12, 57, 0
15, 74160, Note_on_c, 12, 52, 92
15, 74211, Note_on_c, 12, 52, 0
15, 74220, Note_on_c, 12, 57, 84
15, 74271, Note_on_c, 12, 57, 0
15, 74280, Note_on_c, 12, 57, 84
15, 74331, Note_on_c, 12, 57, 0
15, 74340, Note_on_c, 12, 57, 84
15, 74391, Note_on_c, 12, 57, 0
15, 74400, Note_on_c, 12, 56, 84
15, 74451, Note_on_c, 12, 56, 0
15, 74460, Note_on_c, 12, 59, 84
15, 74511, Note_on_c, 12, 59, 0
15, 74520, Note_on_c, 12, 59, 84
15, 74571, Note_on_c, 12, 59, 0
15, 74580, Note_on_c, 12, 59, 84
15, 74631, Note_on_c, 12, 59, 0
15, 74640, Note_on_c, 12, 52, 92
15, 74691, Note_on_c, 12, 52, 0
15, 74700, Note_on_c, 12, 59, 84
15, 74751, Note_on_c, 12, 59, 0
15, 74760, Note_on_c, 12, 59, 84
15, 74811, Note_on_c, 12, 59, 0
15, 74820, Note_on_c, 12, 59, 84
15, 74871, Note_on_c, 12, 59, 0
15, 74880, Note_on_c, 12, 52, 84
15, 74880, Note_on_c, 12, 57, 84
15, 74999, Note_on_c, 12, 52, 0
15, 74999, Note_on_c, 12, 57, 0
15, 75360, Note_on_c, 12, 64, 84
15, 75360, Note_on_c, 12, 69, 84
15, 75360, Note_on_c, 12, 57, 84
15, 75479, Note_on_c, 12, 64, 0
15, 75479, Note_on_c, 12, 69, 0
15, 75479, Note_on_c, 12, 57, 0
15, 75840, Note_on_c, 12, 59, 84
15, 75840, Note_on_c, 12, 52, 84
15, 75840, Note_on_c, 12, 68, 84
15, 75959, Note_on_c, 12, 59, 0
15, 75959, Note_on_c, 12, 52, 0
15, 75959, Note_on_c, 12, 68, 0
15, 76320, Note_on_c, 12, 52, 84
15, 76320, Note_on_c, 12, 59, 84
15, 76320, Note_on_c, 12, 64, 84
15, 76439, Note_on_c, 12, 52, 0
15, 76439, Note_on_c, 12, 59, 0
15, 76439, Note_on_c, 12, 64, 0
15, 76800, Note_on_c, 12, 57, 84
15, 76919, Note_on_c, 12, 57, 0
15, 77040, Note_on_c, 12, 57, 84
15, 77159, Note_on_c, 12, 57, 0
15, 77280, Note_on_c, 12, 57, 84
15, 77399, Note_on_c, 12, 57, 0
15, 77520, Note_on_c, 12, 57, 84
15, 77639, Note_on_c, 12, 57, 0
15, 77760, Note_on_c, 12, 59, 84
15, 77760, Note_on_c, 12, 52, 84
15, 77760, Note_on_c, 12, 64, 84
15, 77879, Note_on_c, 12, 59, 0
15, 77879, Note_on_c, 12, 52, 0
15, 77879, Note_on_c, 12, 64, 0
15, 78000, Note_on_c, 12, 64, 84
15, 78000, Note_on_c, 12, 59, 84
15, 78000, Note_on_c, 12, 52, 84
15, 78119, Note_on_c, 12, 64, 0
15, 78119, Note_on_c, 12, 59, 0
15, 78119, Note_on_c, 12, 52, 0
15, 78240, Note_on_c, 12, 59, 84
15, 78240, Note_on_c, 12, 64, 84
15, 78240, Note_on_c, 12, 52, 84
15, 78359, Note_on_c, 12, 59, 0
15, 78359, Note_on_c, 12, 64, 0
15, 78359, Note_on_c, 12, 52, 0
15, 78480, Note_on_c, 12, 64, 84
15, 78480, Note_on_c, 12, 59, 84
15, 78480, Note_on_c, 12, 52, 84
15, 78599, Note_on_c, 12, 64, 0
15, 78599, Note_on_c, 12, 59, 0
15, 78599, Note_on_c, 12, 52, 0
15, 78720, Note_on_c, 12, 57, 84
15, 78839, Note_on_c, 12, 57, 0
15, 79200, Note_on_c, 12, 57, 84
15, 79200, Note_on_c, 12, 69, 84
15, 79200, Note_on_c, 12, 64, 84
15, 79319, Note_on_c, 12, 57, 0
15, 79319, Note_on_c, 12, 69, 0
15, 79319, Note_on_c, 12, 64, 0
15, 79680, Note_on_c, 12, 64, 84
15, 79680, Note_on_c, 12, 59, 84
15, 79680, Note_on_c, 12, 52, 84
15, 79799, Note_on_c, 12, 64, 0
15, 79799, Note_on_c, 12, 59, 0
15, 79799, Note_on_c, 12, 52, 0
15, 80160, Note_on_c, 12, 64, 84
15, 80160, Note_on_c, 12, 59, 84
15, 80160, Note_on_c, 12, 52, 84
15, 80279, Note_on_c, 12, 64, 0
15, 80279, Note_on_c, 12, 59, 0
15, 80279, Note_on_c, 12, 52, 0
15, 80640, Note_on_c, 12, 57, 84
15, 80691, Note_on_c, 12, 57, 0
15, 80700, Note_on_c, 12, 57, 84
15, 80751, Note_on_c, 12, 57, 0
15, 80760, Note_on_c, 12, 57, 84
15, 80811, Note_on_c, 12, 57, 0
15, 80820, Note_on_c, 12, 57, 84
15, 80871, Note_on_c, 12, 57, 0
15, 80880, Note_on_c, 12, 57, 84
15, 80931, Note_on_c, 12, 57, 0
15, 80940, Note_on_c, 12, 57, 84
15, 80991, Note_on_c, 12, 57, 0
15, 81000, Note_on_c, 12, 59, 84
15, 81051, Note_on_c, 12, 59, 0
15, 81060, Note_on_c, 12, 59, 84
15, 81111, Note_on_c, 12, 59, 0
15, 81120, Note_on_c, 12, 61, 84
15, 81171, Note_on_c, 12, 61, 0
15, 81180, Note_on_c, 12, 61, 84
15, 81231, Note_on_c, 12, 61, 0
15, 81240, Note_on_c, 12, 57, 84
15, 81291, Note_on_c, 12, 57, 0
15, 81300, Note_on_c, 12, 57, 84
15, 81351, Note_on_c, 12, 57, 0
15, 81360, Note_on_c, 12, 59, 84
15, 81411, Note_on_c, 12, 59, 0
15, 81420, Note_on_c, 12, 59, 84
15, 81471, Note_on_c, 12, 59, 0
15, 81480, Note_on_c, 12, 61, 84
15, 81531, Note_on_c, 12, 61, 0
15, 81540, Note_on_c, 12, 61, 84
15, 81591, Note_on_c, 12, 61, 0
15, 81600, Note_on_c, 12, 59, 84
15, 81651, Note_on_c, 12, 59, 0
15, 81660, Note_on_c, 12, 59, 84
15, 81711, Note_on_c, 12, 59, 0
15, 81720, Note_on_c, 12, 61, 84
15, 81771, Note_on_c, 12, 61, 0
15, 81780, Note_on_c, 12, 61, 84
15, 81831, Note_on_c, 12, 61, 0
15, 81840, Note_on_c, 12, 62, 84
15, 81891, Note_on_c, 12, 62, 0
15, 81900, Note_on_c, 12, 62, 84
15, 81951, Note_on_c, 12, 62, 0
15, 81960, Note_on_c, 12, 63, 84
15, 82011, Note_on_c, 12, 63, 0
15, 82020, Note_on_c, 12, 63, 84
15, 82071, Note_on_c, 12, 63, 0
15, 82080, Note_on_c, 12, 64, 84
15, 82131, Note_on_c, 12, 64, 0
15, 82140, Note_on_c, 12, 64, 84
15, 82191, Note_on_c, 12, 64, 0
15, 82200, Note_on_c, 12, 66, 84
15, 82251, Note_on_c, 12, 66, 0
15, 82260, Note_on_c, 12, 66, 84
15, 82311, Note_on_c, 12, 66, 0
15, 82320, Note_on_c, 12, 67, 84
15, 82371, Note_on_c, 12, 67, 0
15, 82380, Note_on_c, 12, 67, 84
15, 82431, Note_on_c, 12, 67, 0
15, 82440, Note_on_c, 12, 68, 84
15, 82491, Note_on_c, 12, 68, 0
15, 82500, Note_on_c, 12, 68, 84
15, 82551, Note_on_c, 12, 68, 0
15, 82560, Note_on_c, 12, 69, 84
15, 82679, Note_on_c, 12, 69, 0
15, 83640, Note_on_c, 12, 52, 84
15, 83699, Note_on_c, 12, 52, 0
15, 83700, Note_on_c, 12, 54, 84
15, 83759, Note_on_c, 12, 54, 0
15, 83760, Note_on_c, 12, 57, 84
15, 83819, Note_on_c, 12, 57, 0
15, 83820, Note_on_c, 12, 56, 84
15, 83879, Note_on_c, 12, 56, 0
15, 83880, Note_on_c, 12, 54, 84
15, 83939, Note_on_c, 12, 54, 0
15, 83940, Note_on_c, 12, 56, 84
15, 83991, Note_on_c, 12, 56, 0
15, 84000, Note_on_c, 12, 57, 84
15, 84239, Note_on_c, 12, 57, 0
15, 84240, Note_on_c, 12, 56, 84
15, 84479, Note_on_c, 12, 56, 0
15, 84480, Note_on_c, 12, 57, 84
15, 84719, Note_on_c, 12, 57, 0
15, 85560, Note_on_c, 12, 52, 84
15, 85619, Note_on_c, 12, 52, 0
15, 85620, Note_on_c, 12, 54, 84
15, 85679, Note_on_c, 12, 54, 0
15, 85680, Note_on_c, 12, 57, 84
15, 85739, Note_on_c, 12, 57, 0
15, 85740, Note_on_c, 12, 56, 84
15, 85799, Note_on_c, 12, 56, 0
15, 85800, Note_on_c, 12, 54, 84
15, 85859, Note_on_c, 12, 54, 0
15, 85860, Note_on_c, 12, 56, 84
15, 85911, Note_on_c, 12, 56, 0
15, 85920, Note_on_c, 12, 57, 84
15, 86159, Note_on_c, 12, 57, 0
15, 86160, Note_on_c, 12, 61, 84
15, 86399, Note_on_c, 12, 61, 0
15, 86400, Note_on_c, 12, 54, 84
15, 86519, Note_on_c, 12, 54, 0
15, 87000, Note_on_c, 12, 61, 84
15, 87059, Note_on_c, 12, 61, 0
15, 87060, Note_on_c, 12, 63, 84
15, 87119, Note_on_c, 12, 63, 0
15, 87120, Note_on_c, 12, 66, 84
15, 87179, Note_on_c, 12, 66, 0
15, 87180, Note_on_c, 12, 65, 84
15, 87239, Note_on_c, 12, 65, 0
15, 87240, Note_on_c, 12, 63, 84
15, 87299, Note_on_c, 12, 63, 0
15, 87300, Note_on_c, 12, 65, 84
15, 87351, Note_on_c, 12, 65, 0
15, 87360, Note_on_c, 12, 66, 84
15, 87599, Note_on_c, 12, 66, 0
15, 87600, Note_on_c, 12, 65, 84
15, 87839, Note_on_c, 12, 65, 0
15, 87840, Note_on_c, 12, 66, 84
15, 88079, Note_on_c, 12, 66, 0
15, 88080, Note_on_c, 12, 65, 84
15, 88319, Note_on_c, 12, 65, 0
15, 88320, Note_on_c, 12, 66, 84
15, 88559, Note_on_c, 12, 66, 0
15, 88920, Note_on_c, 12, 61, 84
15, 88979, Note_on_c, 12, 61, 0
15, 88980, Note_on_c, 12, 63, 84
15, 89039, Note_on_c, 12, 63, 0
15, 89040, Note_on_c, 12, 66, 84
15, 89099, Note_on_c, 12, 66, 0
15, 89100, Note_on_c, 12, 65, 84
15, 89159, Note_on_c, 12, 65, 0
15, 89160, Note_on_c, 12, 63, 84
15, 89219, Note_on_c, 12, 63, 0
15, 89220, Note_on_c, 12, 65, 84
15, 89271, Note_on_c, 12, 65, 0
15, 89280, Note_on_c, 12, 66, 84
15, 89519, Note_on_c, 12, 66, 0
15, 89520, Note_on_c, 12, 65, 84
15, 89759, Note_on_c, 12, 65, 0
15, 89760, Note_on_c, 12, 66, 84
15, 89999, Note_on_c, 12, 66, 0
15, 90000, Note_on_c, 12, 61, 84
15, 90224, Note_on_c, 12, 61, 0
15, 90240, Note_on_c, 12, 61, 84
15, 90411, Note_on_c, 12, 61, 0
15, 90420, Note_on_c, 12, 61, 84
15, 90471, Note_on_c, 12, 61, 0
15, 90480, Note_on_c, 12, 61, 84
15, 90651, Note_on_c, 12, 61, 0
15, 90660, Note_on_c, 12, 61, 84
15, 90711, Note_on_c, 12, 61, 0
15, 90720, Note_on_c, 12, 61, 84
15, 90891, Note_on_c, 12, 61, 0
15, 90900, Note_on_c, 12, 61, 84
15, 90951, Note_on_c, 12, 61, 0
15, 90960, Note_on_c, 12, 61, 84
15, 91131, Note_on_c, 12, 61, 0
15, 91140, Note_on_c, 12, 61, 84
15, 91191, Note_on_c, 12, 61, 0
15, 91200, Note_on_c, 12, 61, 84
15, 91371, Note_on_c, 12, 61, 0
15, 91380, Note_on_c, 12, 61, 84
15, 91431, Note_on_c, 12, 61, 0
15, 91440, Note_on_c, 12, 61, 84
15, 91611, Note_on_c, 12, 61, 0
15, 91620, Note_on_c, 12, 61, 84
15, 91671, Note_on_c, 12, 61, 0
15, 91680, Note_on_c, 12, 61, 84
15, 91851, Note_on_c, 12, 61, 0
15, 91860, Note_on_c, 12, 61, 84
15, 91911, Note_on_c, 12, 61, 0
15, 91920, Note_on_c, 12, 61, 84
15, 92091, Note_on_c, 12, 61, 0
15, 92100, Note_on_c, 12, 61, 84
15, 92151, Note_on_c, 12, 61, 0
15, 92160, Note_on_c, 12, 61, 84
15, 92331, Note_on_c, 12, 61, 0
15, 92340, Note_on_c, 12, 61, 84
15, 92391, Note_on_c, 12, 61, 0
15, 92400, Note_on_c, 12, 61, 84
15, 92571, Note_on_c, 12, 61, 0
15, 92580, Note_on_c, 12, 61, 84
15, 92631, Note_on_c, 12, 61, 0
15, 92640, Note_on_c, 12, 66, 84
15, 92811, Note_on_c, 12, 66, 0
15, 92820, Note_on_c, 12, 66, 84
15, 92871, Note_on_c, 12, 66, 0
15, 92880, Note_on_c, 12, 66, 84
15, 93051, Note_on_c, 12, 66, 0
15, 93060, Note_on_c, 12, 66, 84
15, 93111, Note_on_c, 12, 66, 0
15, 93120, Note_on_c, 12, 66, 84
15, 93291, Note_on_c, 12, 66, 0
15, 93300, Note_on_c, 12, 69, 84
15, 93300, Note_on_c, 12, 66, 84
15, 93351, Note_on_c, 12, 69, 0
15, 93351, Note_on_c, 12, 66, 0
15, 93360, Note_on_c, 12, 69, 84
15, 93360, Note_on_c, 12, 66, 84
15, 93531, Note_on_c, 12, 69, 0
15, 93531, Note_on_c, 12, 66, 0
15, 93540, Note_on_c, 12, 69, 84
15, 93540, Note_on_c, 12, 66, 84
15, 93591, Note_on_c, 12, 69, 0
15, 93591, Note_on_c, 12, 66, 0
15, 93600, Note_on_c, 12, 69, 84
15, 93600, Note_on_c, 12, 66, 84
15, 93771, Note_on_c, 12, 69, 0
15, 93771, Note_on_c, 12, 66, 0
15, 93780, Note_on_c, 12, 66, 84
15, 93780, Note_on_c, 12, 69, 84
15, 93831, Note_on_c, 12, 66, 0
15, 93831, Note_on_c, 12, 69, 0
15, 93840, Note_on_c, 12, 69, 84
15, 93840, Note_on_c, 12, 66, 84
15, 94011, Note_on_c, 12, 69, 0
15, 94011, Note_on_c, 12, 66, 0
15, 94020, Note_on_c, 12, 69, 84
15, 94020, Note_on_c, 12, 66, 84
15, 94071, Note_on_c, 12, 69, 0
15, 94071, Note_on_c, 12, 66, 0
15, 94080, Note_on_c, 12, 66, 84
15, 94080, Note_on_c, 12, 69, 84
15, 94251, Note_on_c, 12, 66, 0
15, 94251, Note_on_c, 12, 69, 0
15, 94260, Note_on_c, 12, 60, 84
15, 94311, Note_on_c, 12, 60, 0
15, 94320, Note_on_c, 12, 60, 84
15, 94491, Note_on_c, 12, 60, 0
15, 94500, Note_on_c, 12, 60, 84
15, 94551, Note_on_c, 12, 60, 0
15, 94560, Note_on_c, 12, 60, 84
15, 94731, Note_on_c, 12, 60, 0
15, 94740, Note_on_c, 12, 60, 84
15, 94791, Note_on_c, 12, 60, 0
15, 94800, Note_on_c, 12, 60, 84
15, 94971, Note_on_c, 12, 60, 0
15, 94980, Note_on_c, 12, 60, 84
15, 95031, Note_on_c, 12, 60, 0
15, 95040, Note_on_c, 12, 60, 84
15, 95159, Note_on_c, 12, 60, 0
15, 95280, Note_on_c, 12, 69, 76
15, 95331, Note_on_c, 12, 69, 0
15, 95340, Note_on_c, 12, 69, 76
15, 95391, Note_on_c, 12, 69, 0
15, 95400, Note_on_c, 12, 69, 76
15, 95451, Note_on_c, 12, 69, 0
15, 95460, Note_on_c, 12, 69, 76
15, 95511, Note_on_c, 12, 69, 0
15, 95520, Note_on_c, 12, 69, 52
15, 95571, Note_on_c, 12, 69, 0
15, 95580, Note_on_c, 12, 69, 52
15, 95631, Note_on_c, 12, 69, 0
15, 95640, Note_on_c, 12, 69, 52
15, 95691, Note_on_c, 12, 69, 0
15, 95700, Note_on_c, 12, 69, 52
15, 95751, Note_on_c, 12, 69, 0
15, 95760, Note_on_c, 12, 68, 52
15, 95811, Note_on_c, 12, 68, 0
15, 95820, Note_on_c, 12, 68, 52
15, 95871, Note_on_c, 12, 68, 0
15, 95880, Note_on_c, 12, 68, 52
15, 95931, Note_on_c, 12, 68, 0
15, 95940, Note_on_c, 12, 68, 52
15, 95991, Note_on_c, 12, 68, 0
15, 96000, Note_on_c, 12, 68, 52
15, 96051, Note_on_c, 12, 68, 0
15, 96060, Note_on_c, 12, 66, 52
15, 96111, Note_on_c, 12, 66, 0
15, 96120, Note_on_c, 12, 66, 52
15, 96171, Note_on_c, 12, 66, 0
15, 96180, Note_on_c, 12, 66, 52
15, 96231, Note_on_c, 12, 66, 0
15, 96240, Note_on_c, 12, 66, 52
15, 96291, Note_on_c, 12, 66, 0
15, 96300, Note_on_c, 12, 66, 52
15, 96351, Note_on_c, 12, 66, 0
15, 96360, Note_on_c, 12, 66, 52
15, 96411, Note_on_c, 12, 66, 0
15, 96420, Note_on_c, 12, 66, 52
15, 96471, Note_on_c, 12, 66, 0
15, 96480, Note_on_c, 12, 66, 52
15, 96531, Note_on_c, 12, 66, 0
15, 96540, Note_on_c, 12, 66, 52
15, 96591, Note_on_c, 12, 66, 0
15, 96600, Note_on_c, 12, 66, 52
15, 96651, Note_on_c, 12, 66, 0
15, 96660, Note_on_c, 12, 66, 52
15, 96711, Note_on_c, 12, 66, 0
15, 96720, Note_on_c, 12, 64, 52
15, 96771, Note_on_c, 12, 64, 0
15, 96780, Note_on_c, 12, 64, 52
15, 96831, Note_on_c, 12, 64, 0
15, 96840, Note_on_c, 12, 64, 52
15, 96891, Note_on_c, 12, 64, 0
15, 96900, Note_on_c, 12, 64, 52
15, 96951, Note_on_c, 12, 64, 0
15, 96960, Note_on_c, 12, 56, 52
15, 97079, Note_on_c, 12, 56, 0
15, 97200, Note_on_c, 12, 69, 76
15, 97251, Note_on_c, 12, 69, 0
15, 97260, Note_on_c, 12, 69, 76
15, 97311, Note_on_c, 12, 69, 0
15, 97320, Note_on_c, 12, 69, 76
15, 97371, Note_on_c, 12, 69, 0
15, 97380, Note_on_c, 12, 69, 76
15, 97431, Note_on_c, 12, 69, 0
15, 97440, Note_on_c, 12, 69, 52
15, 97491, Note_on_c, 12, 69, 0
15, 97500, Note_on_c, 12, 69, 52
15, 97551, Note_on_c, 12, 69, 0
15, 97560, Note_on_c, 12, 69, 52
15, 97611, Note_on_c, 12, 69, 0
15, 97620, Note_on_c, 12, 69, 52
15, 97671, Note_on_c, 12, 69, 0
15, 97680, Note_on_c, 12, 68, 52
15, 97731, Note_on_c, 12, 68, 0
15, 97740, Note_on_c, 12, 68, 52
15, 97791, Note_on_c, 12, 68, 0
15, 97800, Note_on_c, 12, 68, 52
15, 97851, Note_on_c, 12, 68, 0
15, 97860, Note_on_c, 12, 68, 52
15, 97911, Note_on_c, 12, 68, 0
15, 97920, Note_on_c, 12, 68, 52
15, 97971, Note_on_c, 12, 68, 0
15, 97980, Note_on_c, 12, 66, 52
15, 98031, Note_on_c, 12, 66, 0
15, 98040, Note_on_c, 12, 66, 52
15, 98091, Note_on_c, 12, 66, 0
15, 98100, Note_on_c, 12, 66, 52
15, 98151, Note_on_c, 12, 66, 0
15, 98160, Note_on_c, 12, 66, 52
15, 98211, Note_on_c, 12, 66, 0
15, 98220, Note_on_c, 12, 66, 52
15, 98271, Note_on_c, 12, 66, 0
15, 98280, Note_on_c, 12, 66, 52
15, 98331, Note_on_c, 12, 66, 0
15, 98340, Note_on_c, 12, 66, 52
15, 98391, Note_on_c, 12, 66, 0
15, 98400, Note_on_c, 12, 66, 52
15, 98451, Note_on_c, 12, 66, 0
15, 98460, Note_on_c, 12, 66, 52
15, 98511, Note_on_c, 12, 66, 0
15, 98520, Note_on_c, 12, 66, 52
15, 98571, Note_on_c, 12, 66, 0
15, 98580, Note_on_c, 12, 66, 52
15, 98631, Note_on_c, 12, 66, 0
15, 98640, Note_on_c, 12, 64, 52
15, 98691, Note_on_c, 12, 64, 0
15, 98700, Note_on_c, 12, 64, 52
15, 98751, Note_on_c, 12, 64, 0
15, 98760, Note_on_c, 12, 64, 52
15, 98811, Note_on_c, 12, 64, 0
15, 98820, Note_on_c, 12, 64, 52
15, 98871, Note_on_c, 12, 64, 0
15, 98880, Note_on_c, 12, 66, 52
15, 98931, Note_on_c, 12, 66, 0
15, 98940, Note_on_c, 12, 66, 52
15, 98991, Note_on_c, 12, 66, 0
15, 99000, Note_on_c, 12, 66, 52
15, 99051, Note_on_c, 12, 66, 0
15, 99060, Note_on_c, 12, 66, 52
15, 99111, Note_on_c, 12, 66, 0
15, 99120, Note_on_c, 12, 66, 51
15, 99171, Note_on_c, 12, 66, 0
15, 99180, Note_on_c, 12, 66, 51
15, 99231, Note_on_c, 12, 66, 0
15, 99240, Note_on_c, 12, 66, 51
15, 99291, Note_on_c, 12, 66, 0
15, 99300, Note_on_c, 12, 66, 51
15, 99351, Note_on_c, 12, 66, 0
15, 99360, Note_on_c, 12, 66, 50
15, 99411, Note_on_c, 12, 66, 0
15, 99420, Note_on_c, 12, 66, 50
15, 99471, Note_on_c, 12, 66, 0
15, 99480, Note_on_c, 12, 66, 50
15, 99531, Note_on_c, 12, 66, 0
15, 99540, Note_on_c, 12, 66, 50
15, 99591, Note_on_c, 12, 66, 0
15, 99600, Note_on_c, 12, 64, 49
15, 99651, Note_on_c, 12, 64, 0
15, 99660, Note_on_c, 12, 64, 49
15, 99711, Note_on_c, 12, 64, 0
15, 99720, Note_on_c, 12, 64, 49
15, 99771, Note_on_c, 12, 64, 0
15, 99780, Note_on_c, 12, 64, 49
15, 99831, Note_on_c, 12, 64, 0
15, 99840, Note_on_c, 12, 66, 48
15, 99891, Note_on_c, 12, 66, 0
15, 99900, Note_on_c, 12, 66, 48
15, 99951, Note_on_c, 12, 66, 0
15, 99960, Note_on_c, 12, 66, 48
15, 100011, Note_on_c, 12, 66, 0
15, 100020, Note_on_c, 12, 66, 48
15, 100071, Note_on_c, 12, 66, 0
15, 100080, Note_on_c, 12, 66, 47
15, 100131, Note_on_c, 12, 66, 0
15, 100140, Note_on_c, 12, 66, 47
15, 100191, Note_on_c, 12, 66, 0
15, 100200, Note_on_c, 12, 66, 47
15, 100251, Note_on_c, 12, 66, 0
15, 100260, Note_on_c, 12, 66, 47
15, 100311, Note_on_c, 12, 66, 0
15, 100320, Note_on_c, 12, 66, 46
15, 100371, Note_on_c, 12, 66, 0
15, 100380, Note_on_c, 12, 60, 46
15, 100431, Note_on_c, 12, 60, 0
15, 100440, Note_on_c, 12, 60, 46
15, 100491, Note_on_c, 12, 60, 0
15, 100500, Note_on_c, 12, 60, 46
15, 100551, Note_on_c, 12, 60, 0
15, 100560, Note_on_c, 12, 60, 45
15, 100611, Note_on_c, 12, 60, 0
15, 100620, Note_on_c, 12, 60, 45
15, 100671, Note_on_c, 12, 60, 0
15, 100680, Note_on_c, 12, 60, 45
15, 100731, Note_on_c, 12, 60, 0
15, 100740, Note_on_c, 12, 60, 45
15, 100791, Note_on_c, 12, 60, 0
15, 100800, Note_on_c, 12, 61, 52
15, 100971, Note_on_c, 12, 61, 0
15, 100980, Note_on_c, 12, 56, 52
15, 101024, Note_on_c, 12, 56, 0
15, 101040, Note_on_c, 12, 56, 76
15, 101271, Note_on_c, 12, 56, 0
15, 101280, Note_on_c, 12, 56, 52
15, 101451, Note_on_c, 12, 56, 0
15, 101460, Note_on_c, 12, 56, 52
15, 101504, Note_on_c, 12, 56, 0
15, 101520, Note_on_c, 12, 56, 76
15, 101751, Note_on_c, 12, 56, 0
15, 101760, Note_on_c, 12, 56, 52
15, 101931, Note_on_c, 12, 56, 0
15, 101940, Note_on_c, 12, 56, 52
15, 101984, Note_on_c, 12, 56, 0
15, 102000, Note_on_c, 12, 56, 76
15, 102231, Note_on_c, 12, 56, 0
15, 102240, Note_on_c, 12, 56, 52
15, 102411, Note_on_c, 12, 56, 0
15, 102420, Note_on_c, 12, 56, 52
15, 102464, Note_on_c, 12, 56, 0
15, 102480, Note_on_c, 12, 56, 76
15, 102711, Note_on_c, 12, 56, 0
15, 102720, Note_on_c, 12, 61, 52
15, 102839, Note_on_c, 12, 61, 0
15, 105120, Note_on_c, 12, 60, 52
15, 105344, Note_on_c, 12, 60, 0
15, 105360, Note_on_c, 12, 60, 52
15, 105584, Note_on_c, 12, 60, 0
15, 105600, Note_on_c, 12, 61, 52
15, 105771, Note_on_c, 12, 61, 0
15, 105780, Note_on_c, 12, 56, 52
15, 105824, Note_on_c, 12, 56, 0
15, 105840, Note_on_c, 12, 56, 76
15, 106071, Note_on_c, 12, 56, 0
15, 106080, Note_on_c, 12, 56, 52
15, 106251, Note_on_c, 12, 56, 0
15, 106260, Note_on_c, 12, 56, 52
15, 106304, Note_on_c, 12, 56, 0
15, 106320, Note_on_c, 12, 56, 76
15, 106551, Note_on_c, 12, 56, 0
15, 106560, Note_on_c, 12, 56, 52
15, 106731, Note_on_c, 12, 56, 0
15, 106740, Note_on_c, 12, 56, 52
15, 106784, Note_on_c, 12, 56, 0
15, 106800, Note_on_c, 12, 56, 76
15, 107031, Note_on_c, 12, 56, 0
15, 107040, Note_on_c, 12, 56, 52
15, 107211, Note_on_c, 12, 56, 0
15, 107220, Note_on_c, 12, 56, 52
15, 107264, Note_on_c, 12, 56, 0
15, 107280, Note_on_c, 12, 56, 76
15, 107511, Note_on_c, 12, 56, 0
15, 107520, Note_on_c, 12, 61, 52
15, 107639, Note_on_c, 12, 61, 0
15, 110580, Note_on_c, 12, 55, 58
15, 110639, Note_on_c, 12, 55, 0
15, 110640, Note_on_c, 12, 52, 58
15, 110759, Note_on_c, 12, 52, 0
15, 110820, Note_on_c, 12, 49, 59
15, 110879, Note_on_c, 12, 49, 0
15, 110880, Note_on_c, 12, 52, 60
15, 110999, Note_on_c, 12, 52, 0
15, 111060, Note_on_c, 12, 55, 61
15, 111119, Note_on_c, 12, 55, 0
15, 111120, Note_on_c, 12, 57, 61
15, 111239, Note_on_c, 12, 57, 0
15, 111300, Note_on_c, 12, 61, 62
15, 111359, Note_on_c, 12, 61, 0
15, 111360, Note_on_c, 12, 64, 62
15, 111479, Note_on_c, 12, 64, 0
15, 113460, Note_on_c, 12, 55, 74
15, 113519, Note_on_c, 12, 55, 0
15, 113520, Note_on_c, 12, 52, 74
15, 113639, Note_on_c, 12, 52, 0
15, 113700, Note_on_c, 12, 49, 75
15, 113759, Note_on_c, 12, 49, 0
15, 113760, Note_on_c, 12, 52, 76
15, 113879, Note_on_c, 12, 52, 0
15, 113940, Note_on_c, 12, 55, 77
15, 113999, Note_on_c, 12, 55, 0
15, 114000, Note_on_c, 12, 57, 77
15, 114119, Note_on_c, 12, 57, 0
15, 114180, Note_on_c, 12, 61, 78
15, 114239, Note_on_c, 12, 61, 0
15, 114240, Note_on_c, 12, 64, 78
15, 114359, Note_on_c, 12, 64, 0
15, 115200, Note_on_c, 12, 63, 84
15, 115251, Note_on_c, 12, 63, 0
15, 115260, Note_on_c, 12, 63, 84
15, 115311, Note_on_c, 12, 63, 0
15, 115320, Note_on_c, 12, 63, 84
15, 115371, Note_on_c, 12, 63, 0
15, 115380, Note_on_c, 12, 63, 84
15, 115431, Note_on_c, 12, 63, 0
15, 115440, Note_on_c, 12, 63, 84
15, 115491, Note_on_c, 12, 63, 0
15, 115500, Note_on_c, 12, 63, 84
15, 115551, Note_on_c, 12, 63, 0
15, 115560, Note_on_c, 12, 63, 84
15, 115611, Note_on_c, 12, 63, 0
15, 115620, Note_on_c, 12, 63, 84
15, 115671, Note_on_c, 12, 63, 0
15, 115680, Note_on_c, 12, 63, 84
15, 115731, Note_on_c, 12, 63, 0
15, 115740, Note_on_c, 12, 63, 84
15, 115791, Note_on_c, 12, 63, 0
15, 115800, Note_on_c, 12, 63, 84
15, 115851, Note_on_c, 12, 63, 0
15, 115860, Note_on_c, 12, 63, 84
15, 115911, Note_on_c, 12, 63, 0
15, 115920, Note_on_c, 12, 63, 84
15, 115971, Note_on_c, 12, 63, 0
15, 115980, Note_on_c, 12, 63, 84
15, 116031, Note_on_c, 12, 63, 0
15, 116040, Note_on_c, 12, 63, 84
15, 116091, Note_on_c, 12, 63, 0
15, 116100, Note_on_c, 12, 63, 84
15, 116151, Note_on_c, 12, 63, 0
15, 116160, Note_on_c, 12, 64, 92
15, 116211, Note_on_c, 12, 64, 0
15, 116220, Note_on_c, 12, 64, 84
15, 116271, Note_on_c, 12, 64, 0
15, 116280, Note_on_c, 12, 64, 84
15, 116331, Note_on_c, 12, 64, 0
15, 116340, Note_on_c, 12, 64, 84
15, 116391, Note_on_c, 12, 64, 0
15, 116400, Note_on_c, 12, 64, 84
15, 116451, Note_on_c, 12, 64, 0
15, 116460, Note_on_c, 12, 64, 84
15, 116511, Note_on_c, 12, 64, 0
15, 116520, Note_on_c, 12, 64, 84
15, 116571, Note_on_c, 12, 64, 0
15, 116580, Note_on_c, 12, 64, 84
15, 116631, Note_on_c, 12, 64, 0
15, 116640, Note_on_c, 12, 63, 92
15, 116691, Note_on_c, 12, 63, 0
15, 116700, Note_on_c, 12, 63, 84
15, 116751, Note_on_c, 12, 63, 0
15, 116760, Note_on_c, 12, 63, 84
15, 116811, Note_on_c, 12, 63, 0
15, 116820, Note_on_c, 12, 63, 84
15, 116871, Note_on_c, 12, 63, 0
15, 116880, Note_on_c, 12, 63, 84
15, 116931, Note_on_c, 12, 63, 0
15, 116940, Note_on_c, 12, 63, 84
15, 116991, Note_on_c, 12, 63, 0
15, 117000, Note_on_c, 12, 63, 84
15, 117051, Note_on_c, 12, 63, 0
15, 117060, Note_on_c, 12, 63, 84
15, 117111, Note_on_c, 12, 63, 0
15, 117120, Note_on_c, 12, 64, 92
15, 117171, Note_on_c, 12, 64, 0
15, 117180, Note_on_c, 12, 64, 84
15, 117231, Note_on_c, 12, 64, 0
15, 117240, Note_on_c, 12, 64, 84
15, 117291, Note_on_c, 12, 64, 0
15, 117300, Note_on_c, 12, 64, 84
15, 117351, Note_on_c, 12, 64, 0
15, 117360, Note_on_c, 12, 64, 84
15, 117411, Note_on_c, 12, 64, 0
15, 117420, Note_on_c, 12, 64, 84
15, 117471, Note_on_c, 12, 64, 0
15, 117480, Note_on_c, 12, 64, 84
15, 117531, Note_on_c, 12, 64, 0
15, 117540, Note_on_c, 12, 64, 84
15, 117591, Note_on_c, 12, 64, 0
15, 117600, Note_on_c, 12, 63, 92
15, 117651, Note_on_c, 12, 63, 0
15, 117660, Note_on_c, 12, 63, 84
15, 117711, Note_on_c, 12, 63, 0
15, 117720, Note_on_c, 12, 63, 84
15, 117771, Note_on_c, 12, 63, 0
15, 117780, Note_on_c, 12, 63, 84
15, 117831, Note_on_c, 12, 63, 0
15, 117840, Note_on_c, 12, 63, 84
15, 117891, Note_on_c, 12, 63, 0
15, 117900, Note_on_c, 12, 63, 84
15, 117951, Note_on_c, 12, 63, 0
15, 117960, Note_on_c, 12, 63, 84
15, 118011, Note_on_c, 12, 63, 0
15, 118020, Note_on_c, 12, 63, 84
15, 118071, Note_on_c, 12, 63, 0
15, 118080, Note_on_c, 12, 64, 92
15, 118131, Note_on_c, 12, 64, 0
15, 118140, Note_on_c, 12, 61, 84
15, 118191, Note_on_c, 12, 61, 0
15, 118200, Note_on_c, 12, 73, 84
15, 118251, Note_on_c, 12, 73, 0
15, 118260, Note_on_c, 12, 73, 84
15, 118311, Note_on_c, 12, 73, 0
15, 118320, Note_on_c, 12, 73, 84
15, 118371, Note_on_c, 12, 73, 0
15, 118380, Note_on_c, 12, 73, 84
15, 118431, Note_on_c, 12, 73, 0
15, 118440, Note_on_c, 12, 73, 84
15, 118491, Note_on_c, 12, 73, 0
15, 118500, Note_on_c, 12, 73, 84
15, 118551, Note_on_c, 12, 73, 0
15, 118560, Note_on_c, 12, 73, 92
15, 118611, Note_on_c, 12, 73, 0
15, 118620, Note_on_c, 12, 73, 84
15, 118671, Note_on_c, 12, 73, 0
15, 118680, Note_on_c, 12, 73, 84
15, 118731, Note_on_c, 12, 73, 0
15, 118740, Note_on_c, 12, 73, 84
15, 118791, Note_on_c, 12, 73, 0
15, 118800, Note_on_c, 12, 73, 84
15, 118851, Note_on_c, 12, 73, 0
15, 118860, Note_on_c, 12, 73, 84
15, 118911, Note_on_c, 12, 73, 0
15, 118920, Note_on_c, 12, 73, 84
15, 118971, Note_on_c, 12, 73, 0
15, 118980, Note_on_c, 12, 73, 84
15, 119031, Note_on_c, 12, 73, 0
15, 119040, Note_on_c, 12, 73, 92
15, 119091, Note_on_c, 12, 73, 0
15, 119100, Note_on_c, 12, 61, 84
15, 119151, Note_on_c, 12, 61, 0
15, 119160, Note_on_c, 12, 61, 84
15, 119211, Note_on_c, 12, 61, 0
15, 119220, Note_on_c, 12, 61, 84
15, 119271, Note_on_c, 12, 61, 0
15, 119280, Note_on_c, 12, 61, 84
15, 119331, Note_on_c, 12, 61, 0
15, 119340, Note_on_c, 12, 61, 84
15, 119391, Note_on_c, 12, 61, 0
15, 119400, Note_on_c, 12, 61, 84
15, 119451, Note_on_c, 12, 61, 0
15, 119460, Note_on_c, 12, 61, 84
15, 119511, Note_on_c, 12, 61, 0
15, 119520, Note_on_c, 12, 60, 92
15, 119571, Note_on_c, 12, 60, 0
15, 119580, Note_on_c, 12, 60, 84
15, 119631, Note_on_c, 12, 60, 0
15, 119640, Note_on_c, 12, 60, 84
15, 119691, Note_on_c, 12, 60, 0
15, 119700, Note_on_c, 12, 60, 84
15, 119751, Note_on_c, 12, 60, 0
15, 119760, Note_on_c, 12, 60, 84
15, 119811, Note_on_c, 12, 60, 0
15, 119820, Note_on_c, 12, 60, 84
15, 119871, Note_on_c, 12, 60, 0
15, 119880, Note_on_c, 12, 60, 84
15, 119931, Note_on_c, 12, 60, 0
15, 119940, Note_on_c, 12, 60, 84
15, 119991, Note_on_c, 12, 60, 0
15, 120000, Note_on_c, 12, 61, 84
15, 120059, Note_on_c, 12, 61, 0
15, 120060, Note_on_c, 12, 64, 84
15, 120119, Note_on_c, 12, 64, 0
15, 120120, Note_on_c, 12, 66, 84
15, 120179, Note_on_c, 12, 66, 0
15, 120180, Note_on_c, 12, 68, 84
15, 120231, Note_on_c, 12, 68, 0
15, 120240, Note_on_c, 12, 71, 92
15, 120299, Note_on_c, 12, 71, 0
15, 120300, Note_on_c, 12, 69, 84
15, 120359, Note_on_c, 12, 69, 0
15, 120360, Note_on_c, 12, 68, 84
15, 120419, Note_on_c, 12, 68, 0
15, 120420, Note_on_c, 12, 66, 84
15, 120479, Note_on_c, 12, 66, 0
15, 120480, Note_on_c, 12, 71, 84
15, 120539, Note_on_c, 12, 71, 0
15, 120540, Note_on_c, 12, 69, 84
15, 120599, Note_on_c, 12, 69, 0
15, 120600, Note_on_c, 12, 68, 84
15, 120659, Note_on_c, 12, 68, 0
15, 120660, Note_on_c, 12, 66, 84
15, 120719, Note_on_c, 12, 66, 0
15, 120720, Note_on_c, 12, 71, 84
15, 120779, Note_on_c, 12, 71, 0
15, 120780, Note_on_c, 12, 69, 84
15, 120839, Note_on_c, 12, 69, 0
15, 120840, Note_on_c, 12, 68, 84
15, 120899, Note_on_c, 12, 68, 0
15, 120900, Note_on_c, 12, 66, 84
15, 120951, Note_on_c, 12, 66, 0
15, 120960, Note_on_c, 12, 68, 84
15, 121019, Note_on_c, 12, 68, 0
15, 121020, Note_on_c, 12, 64, 84
15, 121079, Note_on_c, 12, 64, 0
15, 121080, Note_on_c, 12, 66, 84
15, 121139, Note_on_c, 12, 66, 0
15, 121140, Note_on_c, 12, 68, 84
15, 121191, Note_on_c, 12, 68, 0
15, 121200, Note_on_c, 12, 71, 92
15, 121259, Note_on_c, 12, 71, 0
15, 121260, Note_on_c, 12, 69, 84
15, 121319, Note_on_c, 12, 69, 0
15, 121320, Note_on_c, 12, 68, 84
15, 121379, Note_on_c, 12, 68, 0
15, 121380, Note_on_c, 12, 66, 84
15, 121439, Note_on_c, 12, 66, 0
15, 121440, Note_on_c, 12, 71, 84
15, 121499, Note_on_c, 12, 71, 0
15, 121500, Note_on_c, 12, 69, 84
15, 121559, Note_on_c, 12, 69, 0
15, 121560, Note_on_c, 12, 68, 84
15, 121619, Note_on_c, 12, 68, 0
15, 121620, Note_on_c, 12, 66, 84
15, 121679, Note_on_c, 12, 66, 0
15, 121680, Note_on_c, 12, 71, 84
15, 121739, Note_on_c, 12, 71, 0
15, 121740, Note_on_c, 12, 69, 84
15, 121799, Note_on_c, 12, 69, 0
15, 121800, Note_on_c, 12, 68, 84
15, 121859, Note_on_c, 12, 68, 0
15, 121860, Note_on_c, 12, 66, 84
15, 121911, Note_on_c, 12, 66, 0
15, 121920, Note_on_c, 12, 68, 84
15, 121979, Note_on_c, 12, 68, 0
15, 121980, Note_on_c, 12, 64, 84
15, 122039, Note_on_c, 12, 64, 0
15, 122040, Note_on_c, 12, 66, 84
15, 122099, Note_on_c, 12, 66, 0
15, 122100, Note_on_c, 12, 68, 84
15, 122151, Note_on_c, 12, 68, 0
15, 122160, Note_on_c, 12, 71, 92
15, 122219, Note_on_c, 12, 71, 0
15, 122220, Note_on_c, 12, 69, 84
15, 122279, Note_on_c, 12, 69, 0
15, 122280, Note_on_c, 12, 68, 84
15, 122339, Note_on_c, 12, 68, 0
15, 122340, Note_on_c, 12, 66, 84
15, 122391, Note_on_c, 12, 66, 0
15, 122400, Note_on_c, 12, 64, 84
15, 122444, Note_on_c, 12, 64, 0
15, 122460, Note_on_c, 12, 64, 84
15, 122519, Note_on_c, 12, 64, 0
15, 122520, Note_on_c, 12, 66, 84
15, 122579, Note_on_c, 12, 66, 0
15, 122580, Note_on_c, 12, 68, 84
15, 122639, Note_on_c, 12, 68, 0
15, 122640, Note_on_c, 12, 71, 92
15, 122699, Note_on_c, 12, 71, 0
15, 122700, Note_on_c, 12, 69, 84
15, 122759, Note_on_c, 12, 69, 0
15, 122760, Note_on_c, 12, 68, 84
15, 122819, Note_on_c, 12, 68, 0
15, 122820, Note_on_c, 12, 66, 84
15, 122871, Note_on_c, 12, 66, 0
15, 122880, Note_on_c, 12, 64, 84
15, 122924, Note_on_c, 12, 64, 0
15, 122940, Note_on_c, 12, 64, 84
15, 122999, Note_on_c, 12, 64, 0
15, 123000, Note_on_c, 12, 66, 84
15, 123059, Note_on_c, 12, 66, 0
15, 123060, Note_on_c, 12, 68, 84
15, 123119, Note_on_c, 12, 68, 0
15, 123120, Note_on_c, 12, 71, 92
15, 123179, Note_on_c, 12, 71, 0
15, 123180, Note_on_c, 12, 69, 84
15, 123239, Note_on_c, 12, 69, 0
15, 123240, Note_on_c, 12, 68, 84
15, 123299, Note_on_c, 12, 68, 0
15, 123300, Note_on_c, 12, 66, 84
15, 123351, Note_on_c, 12, 66, 0
15, 123360, Note_on_c, 12, 64, 84
15, 123411, Note_on_c, 12, 64, 0
15, 123420, Note_on_c, 12, 57, 84
15, 123471, Note_on_c, 12, 57, 0
15, 123480, Note_on_c, 12, 57, 84
15, 123531, Note_on_c, 12, 57, 0
15, 123540, Note_on_c, 12, 57, 84
15, 123591, Note_on_c, 12, 57, 0
15, 123600, Note_on_c, 12, 58, 84
15, 123651, Note_on_c, 12, 58, 0
15, 123660, Note_on_c, 12, 58, 84
15, 123711, Note_on_c, 12, 58, 0
15, 123720, Note_on_c, 12, 58, 84
15, 123771, Note_on_c, 12, 58, 0
15, 123780, Note_on_c, 12, 58, 84
15, 123831, Note_on_c, 12, 58, 0
15, 123840, Note_on_c, 12, 58, 84
15, 123959, Note_on_c, 12, 58, 0
15, 124800, Note_on_c, 12, 58, 84
15, 124800, Note_on_c, 12, 48, 84
15, 124919, Note_on_c, 12, 58, 0
15, 124919, Note_on_c, 12, 48, 0
15, 125760, Note_on_c, 12, 52, 84
15, 125760, Note_on_c, 12, 55, 84
15, 125811, Note_on_c, 12, 52, 0
15, 125811, Note_on_c, 12, 55, 0
15, 125820, Note_on_c, 12, 52, 84
15, 125820, Note_on_c, 12, 55, 84
15, 125871, Note_on_c, 12, 52, 0
15, 125871, Note_on_c, 12, 55, 0
15, 125880, Note_on_c, 12, 55, 84
15, 125880, Note_on_c, 12, 52, 84
15, 125931, Note_on_c, 12, 55, 0
15, 125931, Note_on_c, 12, 52, 0
15, 125940, Note_on_c, 12, 52, 84
15, 125940, Note_on_c, 12, 55, 84
15, 125991, Note_on_c, 12, 52, 0
15, 125991, Note_on_c, 12, 55, 0
15, 126000, Note_on_c, 12, 50, 92
15, 126000, Note_on_c, 12, 53, 92
15, 126051, Note_on_c, 12, 50, 0
15, 126051, Note_on_c, 12, 53, 0
15, 126060, Note_on_c, 12, 53, 84
15, 126060, Note_on_c, 12, 50, 84
15, 126111, Note_on_c, 12, 53, 0
15, 126111, Note_on_c, 12, 50, 0
15, 126120, Note_on_c, 12, 55, 84
15, 126120, Note_on_c, 12, 52, 84
15, 126171, Note_on_c, 12, 55, 0
15, 126171, Note_on_c, 12, 52, 0
15, 126180, Note_on_c, 12, 55, 84
15, 126180, Note_on_c, 12, 52, 84
15, 126231, Note_on_c, 12, 55, 0
15, 126231, Note_on_c, 12, 52, 0
15, 126240, Note_on_c, 12, 57, 84
15, 126240, Note_on_c, 12, 53, 84
15, 126291, Note_on_c, 12, 57, 0
15, 126291, Note_on_c, 12, 53, 0
15, 126300, Note_on_c, 12, 53, 84
15, 126300, Note_on_c, 12, 57, 84
15, 126351, Note_on_c, 12, 53, 0
15, 126351, Note_on_c, 12, 57, 0
15, 126360, Note_on_c, 12, 53, 84
15, 126360, Note_on_c, 12, 57, 84
15, 126411, Note_on_c, 12, 53, 0
15, 126411, Note_on_c, 12, 57, 0
15, 126420, Note_on_c, 12, 53, 84
15, 126420, Note_on_c, 12, 57, 84
15, 126471, Note_on_c, 12, 53, 0
15, 126471, Note_on_c, 12, 57, 0
15, 126480, Note_on_c, 12, 52, 92
15, 126480, Note_on_c, 12, 55, 92
15, 126531, Note_on_c, 12, 52, 0
15, 126531, Note_on_c, 12, 55, 0
15, 126540, Note_on_c, 12, 55, 84
15, 126540, Note_on_c, 12, 52, 84
15, 126591, Note_on_c, 12, 55, 0
15, 126591, Note_on_c, 12, 52, 0
15, 126600, Note_on_c, 12, 53, 84
15, 126600, Note_on_c, 12, 57, 84
15, 126651, Note_on_c, 12, 53, 0
15, 126651, Note_on_c, 12, 57, 0
15, 126660, Note_on_c, 12, 53, 84
15, 126660, Note_on_c, 12, 57, 84
15, 126711, Note_on_c, 12, 53, 0
15, 126711, Note_on_c, 12, 57, 0
15, 126720, Note_on_c, 12, 52, 84
15, 126720, Note_on_c, 12, 55, 84
15, 126771, Note_on_c, 12, 52, 0
15, 126771, Note_on_c, 12, 55, 0
15, 126780, Note_on_c, 12, 55, 84
15, 126780, Note_on_c, 12, 52, 84
15, 126831, Note_on_c, 12, 55, 0
15, 126831, Note_on_c, 12, 52, 0
15, 126840, Note_on_c, 12, 55, 84
15, 126840, Note_on_c, 12, 52, 84
15, 126891, Note_on_c, 12, 55, 0
15, 126891, Note_on_c, 12, 52, 0
15, 126900, Note_on_c, 12, 55, 84
15, 126900, Note_on_c, 12, 52, 84
15, 126951, Note_on_c, 12, 55, 0
15, 126951, Note_on_c, 12, 52, 0
15, 126960, Note_on_c, 12, 53, 92
15, 126960, Note_on_c, 12, 50, 92
15, 127011, Note_on_c, 12, 53, 0
15, 127011, Note_on_c, 12, 50, 0
15, 127020, Note_on_c, 12, 50, 84
15, 127020, Note_on_c, 12, 53, 84
15, 127071, Note_on_c, 12, 50, 0
15, 127071, Note_on_c, 12, 53, 0
15, 127080, Note_on_c, 12, 55, 84
15, 127080, Note_on_c, 12, 52, 84
15, 127131, Note_on_c, 12, 55, 0
15, 127131, Note_on_c, 12, 52, 0
15, 127140, Note_on_c, 12, 55, 84
15, 127140, Note_on_c, 12, 52, 84
15, 127191, Note_on_c, 12, 55, 0
15, 127191, Note_on_c, 12, 52, 0
15, 127200, Note_on_c, 12, 53, 84
15, 127319, Note_on_c, 12, 53, 0
15, 128160, Note_on_c, 12, 56, 84
15, 128339, Note_on_c, 12, 56, 0
15, 128340, Note_on_c, 12, 64, 84
15, 128391, Note_on_c, 12, 64, 0
15, 128400, Note_on_c, 12, 64, 92
15, 128639, Note_on_c, 12, 64, 0
15, 128640, Note_on_c, 12, 64, 84
15, 129104, Note_on_c, 12, 64, 0
15, 129120, Note_on_c, 12, 56, 84
15, 129120, Note_on_c, 12, 59, 84
15, 129171, Note_on_c, 12, 56, 0
15, 129171, Note_on_c, 12, 59, 0
15, 129180, Note_on_c, 12, 56, 84
15, 129180, Note_on_c, 12, 59, 84
15, 129231, Note_on_c, 12, 56, 0
15, 129231, Note_on_c, 12, 59, 0
15, 129240, Note_on_c, 12, 59, 84
15, 129240, Note_on_c, 12, 56, 84
15, 129291, Note_on_c, 12, 59, 0
15, 129291, Note_on_c, 12, 56, 0
15, 129300, Note_on_c, 12, 59, 84
15, 129300, Note_on_c, 12, 56, 84
15, 129351, Note_on_c, 12, 59, 0
15, 129351, Note_on_c, 12, 56, 0
15, 129360, Note_on_c, 12, 54, 92
15, 129360, Note_on_c, 12, 57, 92
15, 129411, Note_on_c, 12, 54, 0
15, 129411, Note_on_c, 12, 57, 0
15, 129420, Note_on_c, 12, 54, 84
15, 129420, Note_on_c, 12, 57, 84
15, 129471, Note_on_c, 12, 54, 0
15, 129471, Note_on_c, 12, 57, 0
15, 129480, Note_on_c, 12, 59, 84
15, 129480, Note_on_c, 12, 56, 84
15, 129531, Note_on_c, 12, 59, 0
15, 129531, Note_on_c, 12, 56, 0
15, 129540, Note_on_c, 12, 56, 84
15, 129540, Note_on_c, 12, 59, 84
15, 129591, Note_on_c, 12, 56, 0
15, 129591, Note_on_c, 12, 59, 0
15, 129600, Note_on_c, 12, 60, 84
15, 129600, Note_on_c, 12, 57, 84
15, 129651, Note_on_c, 12, 60, 0
15, 129651, Note_on_c, 12, 57, 0
15, 129660, Note_on_c, 12, 57, 84
15, 129660, Note_on_c, 12, 60, 84
15, 129711, Note_on_c, 12, 57, 0
15, 129711, Note_on_c, 12, 60, 0
15, 129720, Note_on_c, 12, 60, 84
15, 129720, Note_on_c, 12, 57, 84
15, 129771, Note_on_c, 12, 60, 0
15, 129771, Note_on_c, 12, 57, 0
15, 129780, Note_on_c, 12, 60, 84
15, 129780, Note_on_c, 12, 57, 84
15, 129831, Note_on_c, 12, 60, 0
15, 129831, Note_on_c, 12, 57, 0
15, 129840, Note_on_c, 12, 59, 92
15, 129840, Note_on_c, 12, 56, 92
15, 129891, Note_on_c, 12, 59, 0
15, 129891, Note_on_c, 12, 56, 0
15, 129900, Note_on_c, 12, 56, 84
15, 129900, Note_on_c, 12, 59, 84
15, 129951, Note_on_c, 12, 56, 0
15, 129951, Note_on_c, 12, 59, 0
15, 129960, Note_on_c, 12, 57, 84
15, 129960, Note_on_c, 12, 60, 84
15, 130011, Note_on_c, 12, 57, 0
15, 130011, Note_on_c, 12, 60, 0
15, 130020, Note_on_c, 12, 57, 84
15, 130020, Note_on_c, 12, 60, 84
15, 130071, Note_on_c, 12, 57, 0
15, 130071, Note_on_c, 12, 60, 0
15, 130080, Note_on_c, 12, 56, 84
15, 130080, Note_on_c, 12, 59, 84
15, 130131, Note_on_c, 12, 56, 0
15, 130131, Note_on_c, 12, 59, 0
15, 130140, Note_on_c, 12, 56, 84
15, 130140, Note_on_c, 12, 59, 84
15, 130191, Note_on_c, 12, 56, 0
15, 130191, Note_on_c, 12, 59, 0
15, 130200, Note_on_c, 12, 56, 84
15, 130200, Note_on_c, 12, 59, 84
15, 130251, Note_on_c, 12, 56, 0
15, 130251, Note_on_c, 12, 59, 0
15, 130260, Note_on_c, 12, 56, 84
15, 130260, Note_on_c, 12, 59, 84
15, 130311, Note_on_c, 12, 56, 0
15, 130311, Note_on_c, 12, 59, 0
15, 130320, Note_on_c, 12, 57, 92
15, 130320, Note_on_c, 12, 54, 92
15, 130371, Note_on_c, 12, 57, 0
15, 130371, Note_on_c, 12, 54, 0
15, 130380, Note_on_c, 12, 57, 84
15, 130380, Note_on_c, 12, 54, 84
15, 130431, Note_on_c, 12, 57, 0
15, 130431, Note_on_c, 12, 54, 0
15, 130440, Note_on_c, 12, 56, 84
15, 130440, Note_on_c, 12, 59, 84
15, 130491, Note_on_c, 12, 56, 0
15, 130491, Note_on_c, 12, 59, 0
15, 130500, Note_on_c, 12, 59, 84
15, 130500, Note_on_c, 12, 56, 84
15, 130551, Note_on_c, 12, 59, 0
15, 130551, Note_on_c, 12, 56, 0
15, 130560, Note_on_c, 12, 57, 84
15, 130679, Note_on_c, 12, 57, 0
15, 131520, Note_on_c, 12, 51, 84
15, 131699, Note_on_c, 12, 51, 0
15, 131700, Note_on_c, 12, 59, 84
15, 131751, Note_on_c, 12, 59, 0
15, 131760, Note_on_c, 12, 59, 92
15, 131999, Note_on_c, 12, 59, 0
15, 132000, Note_on_c, 12, 59, 84
15, 132464, Note_on_c, 12, 59, 0
15, 132480, Note_on_c, 12, 50, 84
15, 132599, Note_on_c, 12, 50, 0
15, 133440, Note_on_c, 12, 49, 84
15, 133619, Note_on_c, 12, 49, 0
15, 133620, Note_on_c, 12, 57, 84
15, 133671, Note_on_c, 12, 57, 0
15, 133680, Note_on_c, 12, 57, 92
15, 133919, Note_on_c, 12, 57, 0
15, 133920, Note_on_c, 12, 57, 84
15, 134384, Note_on_c, 12, 57, 0
15, 134400, Note_on_c, 12, 48, 84
15, 134519, Note_on_c, 12, 48, 0
15, 134880, Note_on_c, 12, 48, 84
15, 135059, Note_on_c, 12, 48, 0
15, 135060, Note_on_c, 12, 56, 84
15, 135111, Note_on_c, 12, 56, 0
15, 135120, Note_on_c, 12, 56, 92
15, 135344, Note_on_c, 12, 56, 0
15, 135360, Note_on_c, 12, 55, 84
15, 135411, Note_on_c, 12, 55, 0
15, 135420, Note_on_c, 12, 59, 84
15, 135471, Note_on_c, 12, 59, 0
15, 135480, Note_on_c, 12, 59, 84
15, 135531, Note_on_c, 12, 59, 0
15, 135540, Note_on_c, 12, 59, 84
15, 135591, Note_on_c, 12, 59, 0
15, 135600, Note_on_c, 12, 57, 92
15, 135651, Note_on_c, 12, 57, 0
15, 135660, Note_on_c, 12, 57, 84
15, 135711, Note_on_c, 12, 57, 0
15, 135720, Note_on_c, 12, 59, 84
15, 135771, Note_on_c, 12, 59, 0
15, 135780, Note_on_c, 12, 59, 84
15, 135831, Note_on_c, 12, 59, 0
15, 135840, Note_on_c, 12, 60, 84
15, 135891, Note_on_c, 12, 60, 0
15, 135900, Note_on_c, 12, 60, 84
15, 135951, Note_on_c, 12, 60, 0
15, 135960, Note_on_c, 12, 60, 84
15, 136011, Note_on_c, 12, 60, 0
15, 136020, Note_on_c, 12, 60, 84
15, 136071, Note_on_c, 12, 60, 0
15, 136080, Note_on_c, 12, 59, 92
15, 136131, Note_on_c, 12, 59, 0
15, 136140, Note_on_c, 12, 59, 84
15, 136191, Note_on_c, 12, 59, 0
15, 136200, Note_on_c, 12, 60, 84
15, 136251, Note_on_c, 12, 60, 0
15, 136260, Note_on_c, 12, 60, 84
15, 136311, Note_on_c, 12, 60, 0
15, 136320, Note_on_c, 12, 59, 84
15, 136371, Note_on_c, 12, 59, 0
15, 136380, Note_on_c, 12, 59, 84
15, 136431, Note_on_c, 12, 59, 0
15, 136440, Note_on_c, 12, 59, 84
15, 136491, Note_on_c, 12, 59, 0
15, 136500, Note_on_c, 12, 59, 84
15, 136551, Note_on_c, 12, 59, 0
15, 136560, Note_on_c, 12, 57, 92
15, 136611, Note_on_c, 12, 57, 0
15, 136620, Note_on_c, 12, 57, 84
15, 136671, Note_on_c, 12, 57, 0
15, 136680, Note_on_c, 12, 59, 84
15, 136731, Note_on_c, 12, 59, 0
15, 136740, Note_on_c, 12, 59, 84
15, 136791, Note_on_c, 12, 59, 0
15, 136800, Note_on_c, 12, 60, 84
15, 136844, Note_on_c, 12, 60, 0
15, 136860, Note_on_c, 12, 60, 84
15, 136919, Note_on_c, 12, 60, 0
15, 136920, Note_on_c, 12, 62, 84
15, 136979, Note_on_c, 12, 62, 0
15, 136980, Note_on_c, 12, 64, 84
15, 137039, Note_on_c, 12, 64, 0
15, 137040, Note_on_c, 12, 65, 92
15, 137099, Note_on_c, 12, 65, 0
15, 137100, Note_on_c, 12, 64, 84
15, 137159, Note_on_c, 12, 64, 0
15, 137160, Note_on_c, 12, 62, 84
15, 137219, Note_on_c, 12, 62, 0
15, 137220, Note_on_c, 12, 60, 84
15, 137271, Note_on_c, 12, 60, 0
15, 137280, Note_on_c, 12, 59, 84
15, 137331, Note_on_c, 12, 59, 0
15, 137340, Note_on_c, 12, 59, 84
15, 137391, Note_on_c, 12, 59, 0
15, 137400, Note_on_c, 12, 59, 84
15, 137451, Note_on_c, 12, 59, 0
15, 137460, Note_on_c, 12, 59, 84
15, 137511, Note_on_c, 12, 59, 0
15, 137520, Note_on_c, 12, 57, 92
15, 137571, Note_on_c, 12, 57, 0
15, 137580, Note_on_c, 12, 57, 84
15, 137631, Note_on_c, 12, 57, 0
15, 137640, Note_on_c, 12, 59, 84
15, 137691, Note_on_c, 12, 59, 0
15, 137700, Note_on_c, 12, 59, 84
15, 137751, Note_on_c, 12, 59, 0
15, 137760, Note_on_c, 12, 60, 84
15, 137811, Note_on_c, 12, 60, 0
15, 137820, Note_on_c, 12, 60, 84
15, 137871, Note_on_c, 12, 60, 0
15, 137880, Note_on_c, 12, 60, 84
15, 137931, Note_on_c, 12, 60, 0
15, 137940, Note_on_c, 12, 60, 84
15, 137991, Note_on_c, 12, 60, 0
15, 138000, Note_on_c, 12, 59, 92
15, 138051, Note_on_c, 12, 59, 0
15, 138060, Note_on_c, 12, 59, 84
15, 138111, Note_on_c, 12, 59, 0
15, 138120, Note_on_c, 12, 60, 84
15, 138171, Note_on_c, 12, 60, 0
15, 138180, Note_on_c, 12, 60, 84
15, 138231, Note_on_c, 12, 60, 0
15, 138240, Note_on_c, 12, 59, 84
15, 138291, Note_on_c, 12, 59, 0
15, 138300, Note_on_c, 12, 59, 84
15, 138351, Note_on_c, 12, 59, 0
15, 138360, Note_on_c, 12, 59, 84
15, 138411, Note_on_c, 12, 59, 0
15, 138420, Note_on_c, 12, 59, 84
15, 138471, Note_on_c, 12, 59, 0
15, 138480, Note_on_c, 12, 57, 92
15, 138531, Note_on_c, 12, 57, 0
15, 138540, Note_on_c, 12, 57, 84
15, 138591, Note_on_c, 12, 57, 0
15, 138600, Note_on_c, 12, 59, 84
15, 138651, Note_on_c, 12, 59, 0
15, 138660, Note_on_c, 12, 59, 84
15, 138711, Note_on_c, 12, 59, 0
15, 138720, Note_on_c, 12, 60, 84
15, 138779, Note_on_c, 12, 60, 0
15, 138780, Note_on_c, 12, 62, 84
15, 138839, Note_on_c, 12, 62, 0
15, 138840, Note_on_c, 12, 64, 84
15, 138899, Note_on_c, 12, 64, 0
15, 138900, Note_on_c, 12, 65, 84
15, 138959, Note_on_c, 12, 65, 0
15, 138960, Note_on_c, 12, 67, 84
15, 139019, Note_on_c, 12, 67, 0
15, 139020, Note_on_c, 12, 69, 84
15, 139079, Note_on_c, 12, 69, 0
15, 139080, Note_on_c, 12, 71, 84
15, 139139, Note_on_c, 12, 71, 0
15, 139140, Note_on_c, 12, 72, 84
15, 139191, Note_on_c, 12, 72, 0
15, 139200, Note_on_c, 12, 59, 84
15, 139251, Note_on_c, 12, 59, 0
15, 139260, Note_on_c, 12, 59, 84
15, 139311, Note_on_c, 12, 59, 0
15, 139320, Note_on_c, 12, 59, 84
15, 139371, Note_on_c, 12, 59, 0
15, 139380, Note_on_c, 12, 59, 84
15, 139431, Note_on_c, 12, 59, 0
15, 139440, Note_on_c, 12, 57, 92
15, 139491, Note_on_c, 12, 57, 0
15, 139500, Note_on_c, 12, 57, 84
15, 139551, Note_on_c, 12, 57, 0
15, 139560, Note_on_c, 12, 59, 84
15, 139611, Note_on_c, 12, 59, 0
15, 139620, Note_on_c, 12, 59, 84
15, 139671, Note_on_c, 12, 59, 0
15, 139680, Note_on_c, 12, 60, 84
15, 139731, Note_on_c, 12, 60, 0
15, 139740, Note_on_c, 12, 60, 84
15, 139791, Note_on_c, 12, 60, 0
15, 139800, Note_on_c, 12, 60, 84
15, 139851, Note_on_c, 12, 60, 0
15, 139860, Note_on_c, 12, 60, 84
15, 139911, Note_on_c, 12, 60, 0
15, 139920, Note_on_c, 12, 59, 92
15, 139971, Note_on_c, 12, 59, 0
15, 139980, Note_on_c, 12, 59, 84
15, 140031, Note_on_c, 12, 59, 0
15, 140040, Note_on_c, 12, 60, 84
15, 140091, Note_on_c, 12, 60, 0
15, 140100, Note_on_c, 12, 60, 84
15, 140151, Note_on_c, 12, 60, 0
15, 140160, Note_on_c, 12, 59, 84
15, 140211, Note_on_c, 12, 59, 0
15, 140220, Note_on_c, 12, 59, 84
15, 140271, Note_on_c, 12, 59, 0
15, 140280, Note_on_c, 12, 59, 84
15, 140331, Note_on_c, 12, 59, 0
15, 140340, Note_on_c, 12, 59, 84
15, 140391, Note_on_c, 12, 59, 0
15, 140400, Note_on_c, 12, 57, 92
15, 140451, Note_on_c, 12, 57, 0
15, 140460, Note_on_c, 12, 57, 84
15, 140511, Note_on_c, 12, 57, 0
15, 140520, Note_on_c, 12, 59, 84
15, 140571, Note_on_c, 12, 59, 0
15, 140580, Note_on_c, 12, 59, 84
15, 140631, Note_on_c, 12, 59, 0
15, 140640, Note_on_c, 12, 60, 84
15, 140684, Note_on_c, 12, 60, 0
15, 140700, Note_on_c, 12, 60, 84
15, 140759, Note_on_c, 12, 60, 0
15, 140760, Note_on_c, 12, 62, 84
15, 140819, Note_on_c, 12, 62, 0
15, 140820, Note_on_c, 12, 64, 84
15, 140879, Note_on_c, 12, 64, 0
15, 140880, Note_on_c, 12, 65, 92
15, 140939, Note_on_c, 12, 65, 0
15, 140940, Note_on_c, 12, 64, 84
15, 140999, Note_on_c, 12, 64, 0
15, 141000, Note_on_c, 12, 62, 84
15, 141059, Note_on_c, 12, 62, 0
15, 141060, Note_on_c, 12, 60, 84
15, 141111, Note_on_c, 12, 60, 0
15, 141120, Note_on_c, 12, 59, 84
15, 141171, Note_on_c, 12, 59, 0
15, 141180, Note_on_c, 12, 59, 84
15, 141231, Note_on_c, 12, 59, 0
15, 141240, Note_on_c, 12, 59, 84
15, 141291, Note_on_c, 12, 59, 0
15, 141300, Note_on_c, 12, 59, 84
15, 141351, Note_on_c, 12, 59, 0
15, 141360, Note_on_c, 12, 57, 92
15, 141411, Note_on_c, 12, 57, 0
15, 141420, Note_on_c, 12, 57, 84
15, 141471, Note_on_c, 12, 57, 0
15, 141480, Note_on_c, 12, 59, 84
15, 141531, Note_on_c, 12, 59, 0
15, 141540, Note_on_c, 12, 59, 84
15, 141591, Note_on_c, 12, 59, 0
15, 141600, Note_on_c, 12, 60, 84
15, 141651, Note_on_c, 12, 60, 0
15, 141660, Note_on_c, 12, 60, 84
15, 141711, Note_on_c, 12, 60, 0
15, 141720, Note_on_c, 12, 60, 84
15, 141771, Note_on_c, 12, 60, 0
15, 141780, Note_on_c, 12, 60, 84
15, 141831, Note_on_c, 12, 60, 0
15, 141840, Note_on_c, 12, 59, 92
15, 141891, Note_on_c, 12, 59, 0
15, 141900, Note_on_c, 12, 59, 84
15, 141951, Note_on_c, 12, 59, 0
15, 141960, Note_on_c, 12, 60, 84
15, 142011, Note_on_c, 12, 60, 0
15, 142020, Note_on_c, 12, 60, 84
15, 142071, Note_on_c, 12, 60, 0
15, 142080, Note_on_c, 12, 59, 84
15, 142131, Note_on_c, 12, 59, 0
15, 142140, Note_on_c, 12, 59, 84
15, 142191, Note_on_c, 12, 59, 0
15, 142200, Note_on_c, 12, 59, 84
15, 142251, Note_on_c, 12, 59, 0
15, 142260, Note_on_c, 12, 59, 84
15, 142311, Note_on_c, 12, 59, 0
15, 142320, Note_on_c, 12, 57, 92
15, 142371, Note_on_c, 12, 57, 0
15, 142380, Note_on_c, 12, 57, 84
15, 142431, Note_on_c, 12, 57, 0
15, 142440, Note_on_c, 12, 59, 84
15, 142491, Note_on_c, 12, 59, 0
15, 142500, Note_on_c, 12, 59, 84
15, 142551, Note_on_c, 12, 59, 0
15, 142560, Note_on_c, 12, 60, 84
15, 142619, Note_on_c, 12, 60, 0
15, 142620, Note_on_c, 12, 62, 84
15, 142679, Note_on_c, 12, 62, 0
15, 142680, Note_on_c, 12, 64, 84
15, 142739, Note_on_c, 12, 64, 0
15, 142740, Note_on_c, 12, 62, 84
15, 142799, Note_on_c, 12, 62, 0
15, 142800, Note_on_c, 12, 60, 84
15, 142859, Note_on_c, 12, 60, 0
15, 142860, Note_on_c, 12, 58, 84
15, 142919, Note_on_c, 12, 58, 0
15, 142920, Note_on_c, 12, 57, 84
15, 142979, Note_on_c, 12, 57, 0
15, 142980, Note_on_c, 12, 55, 84
15, 143031, Note_on_c, 12, 55, 0
15, 143040, Note_on_c, 12, 53, 84
15, 143091, Note_on_c, 12, 53, 0
15, 143100, Note_on_c, 12, 57, 84
15, 143151, Note_on_c, 12, 57, 0
15, 143160, Note_on_c, 12, 57, 84
15, 143211, Note_on_c, 12, 57, 0
15, 143220, Note_on_c, 12, 57, 84
15, 143271, Note_on_c, 12, 57, 0
15, 143280, Note_on_c, 12, 56, 92
15, 143331, Note_on_c, 12, 56, 0
15, 143340, Note_on_c, 12, 56, 84
15, 143391, Note_on_c, 12, 56, 0
15, 143400, Note_on_c, 12, 57, 84
15, 143451, Note_on_c, 12, 57, 0
15, 143460, Note_on_c, 12, 57, 84
15, 143511, Note_on_c, 12, 57, 0
15, 143520, Note_on_c, 12, 55, 84
15, 143571, Note_on_c, 12, 55, 0
15, 143580, Note_on_c, 12, 55, 84
15, 143631, Note_on_c, 12, 55, 0
15, 143640, Note_on_c, 12, 55, 84
15, 143691, Note_on_c, 12, 55, 0
15, 143700, Note_on_c, 12, 55, 84
15, 143751, Note_on_c, 12, 55, 0
15, 143760, Note_on_c, 12, 54, 92
15, 143811, Note_on_c, 12, 54, 0
15, 143820, Note_on_c, 12, 54, 84
15, 143871, Note_on_c, 12, 54, 0
15, 143880, Note_on_c, 12, 55, 84
15, 143931, Note_on_c, 12, 55, 0
15, 143940, Note_on_c, 12, 55, 84
15, 143991, Note_on_c, 12, 55, 0
15, 144000, Note_on_c, 12, 57, 84
15, 144051, Note_on_c, 12, 57, 0
15, 144060, Note_on_c, 12, 57, 84
15, 144111, Note_on_c, 12, 57, 0
15, 144120, Note_on_c, 12, 57, 84
15, 144171, Note_on_c, 12, 57, 0
15, 144180, Note_on_c, 12, 57, 84
15, 144231, Note_on_c, 12, 57, 0
15, 144240, Note_on_c, 12, 56, 92
15, 144291, Note_on_c, 12, 56, 0
15, 144300, Note_on_c, 12, 56, 84
15, 144351, Note_on_c, 12, 56, 0
15, 144360, Note_on_c, 12, 57, 84
15, 144411, Note_on_c, 12, 57, 0
15, 144420, Note_on_c, 12, 57, 84
15, 144471, Note_on_c, 12, 57, 0
15, 144480, Note_on_c, 12, 59, 84
15, 144531, Note_on_c, 12, 59, 0
15, 144540, Note_on_c, 12, 59, 84
15, 144591, Note_on_c, 12, 59, 0
15, 144600, Note_on_c, 12, 62, 84
15, 144651, Note_on_c, 12, 62, 0
15, 144660, Note_on_c, 12, 62, 84
15, 144711, Note_on_c, 12, 62, 0
15, 144720, Note_on_c, 12, 57, 92
15, 144771, Note_on_c, 12, 57, 0
15, 144780, Note_on_c, 12, 57, 84
15, 144831, Note_on_c, 12, 57, 0
15, 144840, Note_on_c, 12, 61, 84
15, 144891, Note_on_c, 12, 61, 0
15, 144900, Note_on_c, 12, 61, 84
15, 144951, Note_on_c, 12, 61, 0
15, 144960, Note_on_c, 12, 57, 84
15, 145011, Note_on_c, 12, 57, 0
15, 145020, Note_on_c, 12, 57, 84
15, 145071, Note_on_c, 12, 57, 0
15, 145080, Note_on_c, 12, 56, 84
15, 145131, Note_on_c, 12, 56, 0
15, 145140, Note_on_c, 12, 56, 84
15, 145191, Note_on_c, 12, 56, 0
15, 145200, Note_on_c, 12, 55, 92
15, 145251, Note_on_c, 12, 55, 0
15, 145260, Note_on_c, 12, 55, 84
15, 145311, Note_on_c, 12, 55, 0
15, 145320, Note_on_c, 12, 59, 84
15, 145371, Note_on_c, 12, 59, 0
15, 145380, Note_on_c, 12, 59, 84
15, 145431, Note_on_c, 12, 59, 0
15, 145440, Note_on_c, 12, 55, 84
15, 145491, Note_on_c, 12, 55, 0
15, 145500, Note_on_c, 12, 55, 84
15, 145551, Note_on_c, 12, 55, 0
15, 145560, Note_on_c, 12, 60, 84
15, 145611, Note_on_c, 12, 60, 0
15, 145620, Note_on_c, 12, 60, 84
15, 145671, Note_on_c, 12, 60, 0
15, 145680, Note_on_c, 12, 55, 92
15, 145731, Note_on_c, 12, 55, 0
15, 145740, Note_on_c, 12, 55, 84
15, 145791, Note_on_c, 12, 55, 0
15, 145800, Note_on_c, 12, 60, 84
15, 145851, Note_on_c, 12, 60, 0
15, 145860, Note_on_c, 12, 60, 84
15, 145911, Note_on_c, 12, 60, 0
15, 145920, Note_on_c, 12, 53, 84
15, 145971, Note_on_c, 12, 53, 0
15, 145980, Note_on_c, 12, 53, 84
15, 146031, Note_on_c, 12, 53, 0
15, 146040, Note_on_c, 12, 59, 84
15, 146091, Note_on_c, 12, 59, 0
15, 146100, Note_on_c, 12, 59, 84
15, 146151, Note_on_c, 12, 59, 0
15, 146160, Note_on_c, 12, 53, 92
15, 146211, Note_on_c, 12, 53, 0
15, 146220, Note_on_c, 12, 53, 84
15, 146271, Note_on_c, 12, 53, 0
15, 146280, Note_on_c, 12, 59, 84
15, 146331, Note_on_c, 12, 59, 0
15, 146340, Note_on_c, 12, 59, 84
15, 146391, Note_on_c, 12, 59, 0
15, 146400, Note_on_c, 12, 52, 84
15, 146459, Note_on_c, 12, 52, 0
15, 146460, Note_on_c, 12, 60, 84
15, 146519, Note_on_c, 12, 60, 0
15, 146520, Note_on_c, 12, 64, 84
15, 146579, Note_on_c, 12, 64, 0
15, 146580, Note_on_c, 12, 62, 84
15, 146639, Note_on_c, 12, 62, 0
15, 146640, Note_on_c, 12, 60, 84
15, 146699, Note_on_c, 12, 60, 0
15, 146700, Note_on_c, 12, 58, 84
15, 146759, Note_on_c, 12, 58, 0
15, 146760, Note_on_c, 12, 57, 84
15, 146819, Note_on_c, 12, 57, 0
15, 146820, Note_on_c, 12, 55, 84
15, 146871, Note_on_c, 12, 55, 0
15, 146880, Note_on_c, 12, 53, 84
15, 146931, Note_on_c, 12, 53, 0
15, 146940, Note_on_c, 12, 57, 84
15, 146991, Note_on_c, 12, 57, 0
15, 147000, Note_on_c, 12, 57, 84
15, 147051, Note_on_c, 12, 57, 0
15, 147060, Note_on_c, 12, 57, 84
15, 147111, Note_on_c, 12, 57, 0
15, 147120, Note_on_c, 12, 56, 92
15, 147171, Note_on_c, 12, 56, 0
15, 147180, Note_on_c, 12, 56, 84
15, 147231, Note_on_c, 12, 56, 0
15, 147240, Note_on_c, 12, 57, 84
15, 147291, Note_on_c, 12, 57, 0
15, 147300, Note_on_c, 12, 57, 84
15, 147351, Note_on_c, 12, 57, 0
15, 147360, Note_on_c, 12, 55, 84
15, 147411, Note_on_c, 12, 55, 0
15, 147420, Note_on_c, 12, 55, 84
15, 147471, Note_on_c, 12, 55, 0
15, 147480, Note_on_c, 12, 55, 84
15, 147531, Note_on_c, 12, 55, 0
15, 147540, Note_on_c, 12, 55, 84
15, 147591, Note_on_c, 12, 55, 0
15, 147600, Note_on_c, 12, 54, 92
15, 147651, Note_on_c, 12, 54, 0
15, 147660, Note_on_c, 12, 54, 84
15, 147711, Note_on_c, 12, 54, 0
15, 147720, Note_on_c, 12, 55, 84
15, 147771, Note_on_c, 12, 55, 0
15, 147780, Note_on_c, 12, 55, 84
15, 147831, Note_on_c, 12, 55, 0
15, 147840, Note_on_c, 12, 57, 84
15, 147891, Note_on_c, 12, 57, 0
15, 147900, Note_on_c, 12, 57, 84
15, 147951, Note_on_c, 12, 57, 0
15, 147960, Note_on_c, 12, 57, 84
15, 148011, Note_on_c, 12, 57, 0
15, 148020, Note_on_c, 12, 57, 84
15, 148071, Note_on_c, 12, 57, 0
15, 148080, Note_on_c, 12, 56, 92
15, 148131, Note_on_c, 12, 56, 0
15, 148140, Note_on_c, 12, 56, 84
15, 148191, Note_on_c, 12, 56, 0
15, 148200, Note_on_c, 12, 57, 84
15, 148251, Note_on_c, 12, 57, 0
15, 148260, Note_on_c, 12, 57, 84
15, 148311, Note_on_c, 12, 57, 0
15, 148320, Note_on_c, 12, 59, 84
15, 148371, Note_on_c, 12, 59, 0
15, 148380, Note_on_c, 12, 59, 84
15, 148431, Note_on_c, 12, 59, 0
15, 148440, Note_on_c, 12, 62, 84
15, 148491, Note_on_c, 12, 62, 0
15, 148500, Note_on_c, 12, 62, 84
15, 148551, Note_on_c, 12, 62, 0
15, 148560, Note_on_c, 12, 57, 92
15, 148611, Note_on_c, 12, 57, 0
15, 148620, Note_on_c, 12, 57, 84
15, 148671, Note_on_c, 12, 57, 0
15, 148680, Note_on_c, 12, 61, 84
15, 148731, Note_on_c, 12, 61, 0
15, 148740, Note_on_c, 12, 61, 84
15, 148791, Note_on_c, 12, 61, 0
15, 148800, Note_on_c, 12, 57, 84
15, 148851, Note_on_c, 12, 57, 0
15, 148860, Note_on_c, 12, 57, 84
15, 148911, Note_on_c, 12, 57, 0
15, 148920, Note_on_c, 12, 56, 84
15, 148971, Note_on_c, 12, 56, 0
15, 148980, Note_on_c, 12, 56, 84
15, 149031, Note_on_c, 12, 56, 0
15, 149040, Note_on_c, 12, 55, 92
15, 149091, Note_on_c, 12, 55, 0
15, 149100, Note_on_c, 12, 55, 84
15, 149151, Note_on_c, 12, 55, 0
15, 149160, Note_on_c, 12, 59, 84
15, 149211, Note_on_c, 12, 59, 0
15, 149220, Note_on_c, 12, 59, 84
15, 149271, Note_on_c, 12, 59, 0
15, 149280, Note_on_c, 12, 55, 84
15, 149331, Note_on_c, 12, 55, 0
15, 149340, Note_on_c, 12, 55, 84
15, 149391, Note_on_c, 12, 55, 0
15, 149400, Note_on_c, 12, 60, 84
15, 149451, Note_on_c, 12, 60, 0
15, 149460, Note_on_c, 12, 60, 84
15, 149511, Note_on_c, 12, 60, 0
15, 149520, Note_on_c, 12, 55, 92
15, 149571, Note_on_c, 12, 55, 0
15, 149580, Note_on_c, 12, 55, 84
15, 149631, Note_on_c, 12, 55, 0
15, 149640, Note_on_c, 12, 60, 84
15, 149691, Note_on_c, 12, 60, 0
15, 149700, Note_on_c, 12, 60, 84
15, 149751, Note_on_c, 12, 60, 0
15, 149760, Note_on_c, 12, 53, 84
15, 149811, Note_on_c, 12, 53, 0
15, 149820, Note_on_c, 12, 53, 84
15, 149871, Note_on_c, 12, 53, 0
15, 149880, Note_on_c, 12, 59, 84
15, 149931, Note_on_c, 12, 59, 0
15, 149940, Note_on_c, 12, 59, 84
15, 149991, Note_on_c, 12, 59, 0
15, 150000, Note_on_c, 12, 53, 92
15, 150051, Note_on_c, 12, 53, 0
15, 150060, Note_on_c, 12, 53, 84
15, 150111, Note_on_c, 12, 53, 0
15, 150120, Note_on_c, 12, 59, 84
15, 150171, Note_on_c, 12, 59, 0
15, 150180, Note_on_c, 12, 59, 84
15, 150231, Note_on_c, 12, 59, 0
15, 150240, Note_on_c, 12, 52, 84
15, 150291, Note_on_c, 12, 52, 0
15, 150300, Note_on_c, 12, 60, 84
15, 150351, Note_on_c, 12, 60, 0
15, 150360, Note_on_c, 12, 64, 84
15, 150411, Note_on_c, 12, 64, 0
15, 150420, Note_on_c, 12, 64, 84
15, 150471, Note_on_c, 12, 64, 0
15, 150480, Note_on_c, 12, 61, 84
15, 150531, Note_on_c, 12, 61, 0
15, 150540, Note_on_c, 12, 61, 84
15, 150591, Note_on_c, 12, 61, 0
15, 150600, Note_on_c, 12, 64, 84
15, 150651, Note_on_c, 12, 64, 0
15, 150660, Note_on_c, 12, 64, 84
15, 150711, Note_on_c, 12, 64, 0
15, 150720, Note_on_c, 12, 62, 84
15, 150771, Note_on_c, 12, 62, 0
15, 150780, Note_on_c, 12, 62, 84
15, 150831, Note_on_c, 12, 62, 0
15, 150840, Note_on_c, 12, 65, 84
15, 150891, Note_on_c, 12, 65, 0
15, 150900, Note_on_c, 12, 65, 84
15, 150951, Note_on_c, 12, 65, 0
15, 150960, Note_on_c, 12, 59, 84
15, 151011, Note_on_c, 12, 59, 0
15, 151020, Note_on_c, 12, 59, 84
15, 151071, Note_on_c, 12, 59, 0
15, 151080, Note_on_c, 12, 62, 84
15, 151131, Note_on_c, 12, 62, 0
15, 151140, Note_on_c, 12, 62, 84
15, 151191, Note_on_c, 12, 62, 0
15, 151200, Note_on_c, 12, 60, 84
15, 151251, Note_on_c, 12, 60, 0
15, 151260, Note_on_c, 12, 60, 84
15, 151311, Note_on_c, 12, 60, 0
15, 151320, Note_on_c, 12, 64, 84
15, 151371, Note_on_c, 12, 64, 0
15, 151380, Note_on_c, 12, 64, 84
15, 151431, Note_on_c, 12, 64, 0
15, 151440, Note_on_c, 12, 60, 84
15, 151491, Note_on_c, 12, 60, 0
15, 151500, Note_on_c, 12, 60, 84
15, 151551, Note_on_c, 12, 60, 0
15, 151560, Note_on_c, 12, 64, 84
15, 151611, Note_on_c, 12, 64, 0
15, 151620, Note_on_c, 12, 64, 84
15, 151671, Note_on_c, 12, 64, 0
15, 151680, Note_on_c, 12, 60, 84
15, 151731, Note_on_c, 12, 60, 0
15, 151740, Note_on_c, 12, 60, 84
15, 151791, Note_on_c, 12, 60, 0
15, 151800, Note_on_c, 12, 64, 84
15, 151851, Note_on_c, 12, 64, 0
15, 151860, Note_on_c, 12, 64, 84
15, 151911, Note_on_c, 12, 64, 0
15, 151920, Note_on_c, 12, 62, 84
15, 151971, Note_on_c, 12, 62, 0
15, 151980, Note_on_c, 12, 62, 84
15, 152031, Note_on_c, 12, 62, 0
15, 152040, Note_on_c, 12, 65, 84
15, 152091, Note_on_c, 12, 65, 0
15, 152100, Note_on_c, 12, 65, 84
15, 152151, Note_on_c, 12, 65, 0
15, 152160, Note_on_c, 12, 60, 84
15, 152211, Note_on_c, 12, 60, 0
15, 152220, Note_on_c, 12, 60, 84
15, 152271, Note_on_c, 12, 60, 0
15, 152280, Note_on_c, 12, 64, 84
15, 152331, Note_on_c, 12, 64, 0
15, 152340, Note_on_c, 12, 64, 84
15, 152391, Note_on_c, 12, 64, 0
15, 152400, Note_on_c, 12, 58, 84
15, 152451, Note_on_c, 12, 58, 0
15, 152460, Note_on_c, 12, 58, 84
15, 152511, Note_on_c, 12, 58, 0
15, 152520, Note_on_c, 12, 64, 84
15, 152571, Note_on_c, 12, 64, 0
15, 152580, Note_on_c, 12, 64, 84
15, 152631, Note_on_c, 12, 64, 0
15, 152640, Note_on_c, 12, 57, 84
15, 152691, Note_on_c, 12, 57, 0
15, 152700, Note_on_c, 12, 57, 84
15, 152751, Note_on_c, 12, 57, 0
15, 152760, Note_on_c, 12, 65, 84
15, 152811, Note_on_c, 12, 65, 0
15, 152820, Note_on_c, 12, 65, 84
15, 152871, Note_on_c, 12, 65, 0
15, 152880, Note_on_c, 12, 62, 84
15, 152931, Note_on_c, 12, 62, 0
15, 152940, Note_on_c, 12, 62, 84
15, 152991, Note_on_c, 12, 62, 0
15, 153000, Note_on_c, 12, 65, 84
15, 153051, Note_on_c, 12, 65, 0
15, 153060, Note_on_c, 12, 65, 84
15, 153111, Note_on_c, 12, 65, 0
15, 153120, Note_on_c, 12, 62, 84
15, 153171, Note_on_c, 12, 62, 0
15, 153180, Note_on_c, 12, 62, 84
15, 153231, Note_on_c, 12, 62, 0
15, 153240, Note_on_c, 12, 65, 84
15, 153291, Note_on_c, 12, 65, 0
15, 153300, Note_on_c, 12, 65, 84
15, 153351, Note_on_c, 12, 65, 0
15, 153360, Note_on_c, 12, 58, 84
15, 153411, Note_on_c, 12, 58, 0
15, 153420, Note_on_c, 12, 58, 84
15, 153471, Note_on_c, 12, 58, 0
15, 153480, Note_on_c, 12, 62, 84
15, 153531, Note_on_c, 12, 62, 0
15, 153540, Note_on_c, 12, 62, 84
15, 153591, Note_on_c, 12, 62, 0
15, 153600, Note_on_c, 12, 58, 84
15, 153651, Note_on_c, 12, 58, 0
15, 153660, Note_on_c, 12, 58, 84
15, 153711, Note_on_c, 12, 58, 0
15, 153720, Note_on_c, 12, 64, 84
15, 153771, Note_on_c, 12, 64, 0
15, 153780, Note_on_c, 12, 64, 84
15, 153831, Note_on_c, 12, 64, 0
15, 153840, Note_on_c, 12, 60, 84
15, 153891, Note_on_c, 12, 60, 0
15, 153900, Note_on_c, 12, 60, 84
15, 153951, Note_on_c, 12, 60, 0
15, 153960, Note_on_c, 12, 64, 84
15, 154011, Note_on_c, 12, 64, 0
15, 154020, Note_on_c, 12, 64, 84
15, 154071, Note_on_c, 12, 64, 0
15, 154080, Note_on_c, 12, 60, 84
15, 154131, Note_on_c, 12, 60, 0
15, 154140, Note_on_c, 12, 60, 84
15, 154191, Note_on_c, 12, 60, 0
15, 154200, Note_on_c, 12, 65, 84
15, 154251, Note_on_c, 12, 65, 0
15, 154260, Note_on_c, 12, 65, 84
15, 154311, Note_on_c, 12, 65, 0
15, 154320, Note_on_c, 12, 60, 84
15, 154371, Note_on_c, 12, 60, 0
15, 154380, Note_on_c, 12, 60, 84
15, 154431, Note_on_c, 12, 60, 0
15, 154440, Note_on_c, 12, 65, 84
15, 154491, Note_on_c, 12, 65, 0
15, 154500, Note_on_c, 12, 65, 84
15, 154551, Note_on_c, 12, 65, 0
15, 154560, Note_on_c, 12, 62, 84
15, 154611, Note_on_c, 12, 62, 0
15, 154620, Note_on_c, 12, 62, 84
15, 154671, Note_on_c, 12, 62, 0
15, 154680, Note_on_c, 12, 65, 84
15, 154731, Note_on_c, 12, 65, 0
15, 154740, Note_on_c, 12, 65, 84
15, 154791, Note_on_c, 12, 65, 0
15, 154800, Note_on_c, 12, 62, 84
15, 154851, Note_on_c, 12, 62, 0
15, 154860, Note_on_c, 12, 62, 84
15, 154911, Note_on_c, 12, 62, 0
15, 154920, Note_on_c, 12, 65, 84
15, 154971, Note_on_c, 12, 65, 0
15, 154980, Note_on_c, 12, 65, 84
15, 155031, Note_on_c, 12, 65, 0
15, 155040, Note_on_c, 12, 62, 84
15, 155091, Note_on_c, 12, 62, 0
15, 155100, Note_on_c, 12, 62, 84
15, 155151, Note_on_c, 12, 62, 0
15, 155160, Note_on_c, 12, 64, 84
15, 155211, Note_on_c, 12, 64, 0
15, 155220, Note_on_c, 12, 64, 84
15, 155271, Note_on_c, 12, 64, 0
15, 155280, Note_on_c, 12, 55, 84
15, 155331, Note_on_c, 12, 55, 0
15, 155340, Note_on_c, 12, 55, 84
15, 155391, Note_on_c, 12, 55, 0
15, 155400, Note_on_c, 12, 58, 84
15, 155451, Note_on_c, 12, 58, 0
15, 155460, Note_on_c, 12, 58, 84
15, 155511, Note_on_c, 12, 58, 0
15, 155520, Note_on_c, 12, 57, 84
15, 155571, Note_on_c, 12, 57, 0
15, 155580, Note_on_c, 12, 57, 84
15, 155631, Note_on_c, 12, 57, 0
15, 155640, Note_on_c, 12, 61, 84
15, 155691, Note_on_c, 12, 61, 0
15, 155700, Note_on_c, 12, 61, 84
15, 155751, Note_on_c, 12, 61, 0
15, 155760, Note_on_c, 12, 57, 84
15, 155811, Note_on_c, 12, 57, 0
15, 155820, Note_on_c, 12, 57, 84
15, 155871, Note_on_c, 12, 57, 0
15, 155880, Note_on_c, 12, 64, 84
15, 155931, Note_on_c, 12, 64, 0
15, 155940, Note_on_c, 12, 64, 84
15, 155991, Note_on_c, 12, 64, 0
15, 156000, Note_on_c, 12, 57, 84
15, 156051, Note_on_c, 12, 57, 0
15, 156060, Note_on_c, 12, 57, 84
15, 156111, Note_on_c, 12, 57, 0
15, 156120, Note_on_c, 12, 62, 84
15, 156171, Note_on_c, 12, 62, 0
15, 156180, Note_on_c, 12, 62, 84
15, 156231, Note_on_c, 12, 62, 0
15, 156240, Note_on_c, 12, 57, 84
15, 156291, Note_on_c, 12, 57, 0
15, 156300, Note_on_c, 12, 57, 84
15, 156351, Note_on_c, 12, 57, 0
15, 156360, Note_on_c, 12, 62, 84
15, 156411, Note_on_c, 12, 62, 0
15, 156420, Note_on_c, 12, 62, 84
15, 156471, Note_on_c, 12, 62, 0
15, 156480, Note_on_c, 12, 57, 84
15, 156531, Note_on_c, 12, 57, 0
15, 156540, Note_on_c, 12, 57, 84
15, 156591, Note_on_c, 12, 57, 0
15, 156600, Note_on_c, 12, 62, 84
15, 156651, Note_on_c, 12, 62, 0
15, 156660, Note_on_c, 12, 62, 84
15, 156711, Note_on_c, 12, 62, 0
15, 156720, Note_on_c, 12, 57, 84
15, 156771, Note_on_c, 12, 57, 0
15, 156780, Note_on_c, 12, 57, 84
15, 156831, Note_on_c, 12, 57, 0
15, 156840, Note_on_c, 12, 62, 84
15, 156891, Note_on_c, 12, 62, 0
15, 156900, Note_on_c, 12, 62, 84
15, 156951, Note_on_c, 12, 62, 0
15, 156960, Note_on_c, 12, 57, 84
15, 157011, Note_on_c, 12, 57, 0
15, 157020, Note_on_c, 12, 57, 84
15, 157071, Note_on_c, 12, 57, 0
15, 157080, Note_on_c, 12, 62, 84
15, 157131, Note_on_c, 12, 62, 0
15, 157140, Note_on_c, 12, 62, 84
15, 157191, Note_on_c, 12, 62, 0
15, 157200, Note_on_c, 12, 57, 84
15, 157251, Note_on_c, 12, 57, 0
15, 157260, Note_on_c, 12, 57, 84
15, 157311, Note_on_c, 12, 57, 0
15, 157320, Note_on_c, 12, 62, 84
15, 157371, Note_on_c, 12, 62, 0
15, 157380, Note_on_c, 12, 62, 84
15, 157431, Note_on_c, 12, 62, 0
15, 157440, Note_on_c, 12, 57, 84
15, 157491, Note_on_c, 12, 57, 0
15, 157500, Note_on_c, 12, 57, 84
15, 157551, Note_on_c, 12, 57, 0
15, 157560, Note_on_c, 12, 62, 84
15, 157611, Note_on_c, 12, 62, 0
15, 157620, Note_on_c, 12, 62, 84
15, 157671, Note_on_c, 12, 62, 0
15, 157680, Note_on_c, 12, 57, 84
15, 157731, Note_on_c, 12, 57, 0
15, 157740, Note_on_c, 12, 57, 84
15, 157791, Note_on_c, 12, 57, 0
15, 157800, Note_on_c, 12, 62, 84
15, 157851, Note_on_c, 12, 62, 0
15, 157860, Note_on_c, 12, 62, 84
15, 157911, Note_on_c, 12, 62, 0
15, 157920, Note_on_c, 12, 57, 84
15, 157971, Note_on_c, 12, 57, 0
15, 157980, Note_on_c, 12, 57, 84
15, 158031, Note_on_c, 12, 57, 0
15, 158040, Note_on_c, 12, 62, 84
15, 158091, Note_on_c, 12, 62, 0
15, 158100, Note_on_c, 12, 62, 84
15, 158151, Note_on_c, 12, 62, 0
15, 158160, Note_on_c, 12, 57, 84
15, 158211, Note_on_c, 12, 57, 0
15, 158220, Note_on_c, 12, 57, 84
15, 158271, Note_on_c, 12, 57, 0
15, 158280, Note_on_c, 12, 62, 84
15, 158331, Note_on_c, 12, 62, 0
15, 158340, Note_on_c, 12, 62, 84
15, 158391, Note_on_c, 12, 62, 0
15, 158400, Note_on_c, 12, 57, 84
15, 158451, Note_on_c, 12, 57, 0
15, 158460, Note_on_c, 12, 57, 84
15, 158511, Note_on_c, 12, 57, 0
15, 158520, Note_on_c, 12, 62, 84
15, 158571, Note_on_c, 12, 62, 0
15, 158580, Note_on_c, 12, 62, 84
15, 158631, Note_on_c, 12, 62, 0
15, 158640, Note_on_c, 12, 53, 84
15, 158691, Note_on_c, 12, 53, 0
15, 158700, Note_on_c, 12, 53, 84
15, 158751, Note_on_c, 12, 53, 0
15, 158760, Note_on_c, 12, 57, 84
15, 158811, Note_on_c, 12, 57, 0
15, 158820, Note_on_c, 12, 57, 84
15, 158871, Note_on_c, 12, 57, 0
15, 158880, Note_on_c, 12, 57, 84
15, 158931, Note_on_c, 12, 57, 0
15, 158940, Note_on_c, 12, 57, 84
15, 158991, Note_on_c, 12, 57, 0
15, 159000, Note_on_c, 12, 57, 84
15, 159051, Note_on_c, 12, 57, 0
15, 159060, Note_on_c, 12, 57, 84
15, 159111, Note_on_c, 12, 57, 0
15, 159120, Note_on_c, 12, 53, 84
15, 159171, Note_on_c, 12, 53, 0
15, 159180, Note_on_c, 12, 53, 84
15, 159231, Note_on_c, 12, 53, 0
15, 159240, Note_on_c, 12, 57, 84
15, 159291, Note_on_c, 12, 57, 0
15, 159300, Note_on_c, 12, 57, 84
15, 159351, Note_on_c, 12, 57, 0
15, 159360, Note_on_c, 12, 57, 84
15, 159411, Note_on_c, 12, 57, 0
15, 159420, Note_on_c, 12, 57, 84
15, 159471, Note_on_c, 12, 57, 0
15, 159480, Note_on_c, 12, 57, 84
15, 159531, Note_on_c, 12, 57, 0
15, 159540, Note_on_c, 12, 57, 84
15, 159591, Note_on_c, 12, 57, 0
15, 159600, Note_on_c, 12, 54, 84
15, 159651, Note_on_c, 12, 54, 0
15, 159660, Note_on_c, 12, 54, 84
15, 159711, Note_on_c, 12, 54, 0
15, 159720, Note_on_c, 12, 57, 84
15, 159771, Note_on_c, 12, 57, 0
15, 159780, Note_on_c, 12, 57, 84
15, 159831, Note_on_c, 12, 57, 0
15, 159840, Note_on_c, 12, 57, 84
15, 159891, Note_on_c, 12, 57, 0
15, 159900, Note_on_c, 12, 57, 84
15, 159951, Note_on_c, 12, 57, 0
15, 159960, Note_on_c, 12, 57, 84
15, 160011, Note_on_c, 12, 57, 0
15, 160020, Note_on_c, 12, 57, 84
15, 160071, Note_on_c, 12, 57, 0
15, 160080, Note_on_c, 12, 54, 84
15, 160131, Note_on_c, 12, 54, 0
15, 160140, Note_on_c, 12, 54, 84
15, 160191, Note_on_c, 12, 54, 0
15, 160200, Note_on_c, 12, 58, 84
15, 160251, Note_on_c, 12, 58, 0
15, 160260, Note_on_c, 12, 58, 84
15, 160311, Note_on_c, 12, 58, 0
15, 160320, Note_on_c, 12, 58, 84
15, 160371, Note_on_c, 12, 58, 0
15, 160380, Note_on_c, 12, 58, 84
15, 160431, Note_on_c, 12, 58, 0
15, 160440, Note_on_c, 12, 58, 84
15, 160491, Note_on_c, 12, 58, 0
15, 160500, Note_on_c, 12, 58, 84
15, 160551, Note_on_c, 12, 58, 0
15, 160560, Note_on_c, 12, 55, 84
15, 160611, Note_on_c, 12, 55, 0
15, 160620, Note_on_c, 12, 55, 84
15, 160671, Note_on_c, 12, 55, 0
15, 160680, Note_on_c, 12, 58, 84
15, 160731, Note_on_c, 12, 58, 0
15, 160740, Note_on_c, 12, 58, 84
15, 160791, Note_on_c, 12, 58, 0
15, 160800, Note_on_c, 12, 58, 84
15, 160851, Note_on_c, 12, 58, 0
15, 160860, Note_on_c, 12, 58, 84
15, 160911, Note_on_c, 12, 58, 0
15, 160920, Note_on_c, 12, 58, 84
15, 160971, Note_on_c, 12, 58, 0
15, 160980, Note_on_c, 12, 58, 84
15, 161031, Note_on_c, 12, 58, 0
15, 161040, Note_on_c, 12, 55, 84
15, 161091, Note_on_c, 12, 55, 0
15, 161100, Note_on_c, 12, 55, 84
15, 161151, Note_on_c, 12, 55, 0
15, 161160, Note_on_c, 12, 59, 84
15, 161211, Note_on_c, 12, 59, 0
15, 161220, Note_on_c, 12, 59, 84
15, 161271, Note_on_c, 12, 59, 0
15, 161280, Note_on_c, 12, 59, 84
15, 161331, Note_on_c, 12, 59, 0
15, 161340, Note_on_c, 12, 59, 84
15, 161391, Note_on_c, 12, 59, 0
15, 161400, Note_on_c, 12, 59, 84
15, 161451, Note_on_c, 12, 59, 0
15, 161460, Note_on_c, 12, 59, 84
15, 161511, Note_on_c, 12, 59, 0
15, 161520, Note_on_c, 12, 56, 84
15, 161571, Note_on_c, 12, 56, 0
15, 161580, Note_on_c, 12, 56, 84
15, 161631, Note_on_c, 12, 56, 0
15, 161640, Note_on_c, 12, 59, 84
15, 161691, Note_on_c, 12, 59, 0
15, 161700, Note_on_c, 12, 59, 84
15, 161751, Note_on_c, 12, 59, 0
15, 161760, Note_on_c, 12, 59, 84
15, 161811, Note_on_c, 12, 59, 0
15, 161820, Note_on_c, 12, 59, 84
15, 161871, Note_on_c, 12, 59, 0
15, 161880, Note_on_c, 12, 59, 84
15, 161931, Note_on_c, 12, 59, 0
15, 161940, Note_on_c, 12, 59, 84
15, 161991, Note_on_c, 12, 59, 0
15, 162000, Note_on_c, 12, 56, 84
15, 162051, Note_on_c, 12, 56, 0
15, 162060, Note_on_c, 12, 56, 84
15, 162111, Note_on_c, 12, 56, 0
15, 162120, Note_on_c, 12, 60, 84
15, 162171, Note_on_c, 12, 60, 0
15, 162180, Note_on_c, 12, 60, 84
15, 162231, Note_on_c, 12, 60, 0
15, 162240, Note_on_c, 12, 60, 84
15, 162291, Note_on_c, 12, 60, 0
15, 162300, Note_on_c, 12, 60, 84
15, 162351, Note_on_c, 12, 60, 0
15, 162360, Note_on_c, 12, 60, 84
15, 162411, Note_on_c, 12, 60, 0
15, 162420, Note_on_c, 12, 60, 84
15, 162471, Note_on_c, 12, 60, 0
15, 162480, Note_on_c, 12, 57, 84
15, 162531, Note_on_c, 12, 57, 0
15, 162540, Note_on_c, 12, 57, 84
15, 162591, Note_on_c, 12, 57, 0
15, 162600, Note_on_c, 12, 61, 84
15, 162651, Note_on_c, 12, 61, 0
15, 162660, Note_on_c, 12, 61, 84
15, 162711, Note_on_c, 12, 61, 0
15, 162720, Note_on_c, 12, 61, 84
15, 162771, Note_on_c, 12, 61, 0
15, 162780, Note_on_c, 12, 61, 84
15, 162831, Note_on_c, 12, 61, 0
15, 162840, Note_on_c, 12, 61, 84
15, 162891, Note_on_c, 12, 61, 0
15, 162900, Note_on_c, 12, 61, 84
15, 162951, Note_on_c, 12, 61, 0
15, 162960, Note_on_c, 12, 58, 84
15, 163011, Note_on_c, 12, 58, 0
15, 163020, Note_on_c, 12, 58, 84
15, 163071, Note_on_c, 12, 58, 0
15, 163080, Note_on_c, 12, 62, 84
15, 163131, Note_on_c, 12, 62, 0
15, 163140, Note_on_c, 12, 62, 84
15, 163191, Note_on_c, 12, 62, 0
15, 163200, Note_on_c, 12, 62, 84
15, 163251, Note_on_c, 12, 62, 0
15, 163260, Note_on_c, 12, 62, 84
15, 163311, Note_on_c, 12, 62, 0
15, 163320, Note_on_c, 12, 62, 84
15, 163371, Note_on_c, 12, 62, 0
15, 163380, Note_on_c, 12, 62, 84
15, 163431, Note_on_c, 12, 62, 0
15, 163440, Note_on_c, 12, 59, 84
15, 163491, Note_on_c, 12, 59, 0
15, 163500, Note_on_c, 12, 59, 84
15, 163551, Note_on_c, 12, 59, 0
15, 163560, Note_on_c, 12, 63, 84
15, 163611, Note_on_c, 12, 63, 0
15, 163620, Note_on_c, 12, 63, 84
15, 163671, Note_on_c, 12, 63, 0
15, 163680, Note_on_c, 12, 63, 84
15, 163731, Note_on_c, 12, 63, 0
15, 163740, Note_on_c, 12, 63, 84
15, 163791, Note_on_c, 12, 63, 0
15, 163800, Note_on_c, 12, 63, 84
15, 163851, Note_on_c, 12, 63, 0
15, 163860, Note_on_c, 12, 63, 84
15, 163911, Note_on_c, 12, 63, 0
15, 163920, Note_on_c, 12, 60, 84
15, 163971, Note_on_c, 12, 60, 0
15, 163980, Note_on_c, 12, 60, 84
15, 164031, Note_on_c, 12, 60, 0
15, 164040, Note_on_c, 12, 64, 84
15, 164091, Note_on_c, 12, 64, 0
15, 164100, Note_on_c, 12, 64, 84
15, 164151, Note_on_c, 12, 64, 0
15, 164160, Note_on_c, 12, 64, 84
15, 164211, Note_on_c, 12, 64, 0
15, 164220, Note_on_c, 12, 64, 84
15, 164271, Note_on_c, 12, 64, 0
15, 164280, Note_on_c, 12, 64, 84
15, 164331, Note_on_c, 12, 64, 0
15, 164340, Note_on_c, 12, 64, 84
15, 164391, Note_on_c, 12, 64, 0
15, 164400, Note_on_c, 12, 61, 84
15, 164451, Note_on_c, 12, 61, 0
15, 164460, Note_on_c, 12, 61, 84
15, 164511, Note_on_c, 12, 61, 0
15, 164520, Note_on_c, 12, 64, 84
15, 164571, Note_on_c, 12, 64, 0
15, 164580, Note_on_c, 12, 64, 84
15, 164631, Note_on_c, 12, 64, 0
15, 164640, Note_on_c, 12, 64, 84
15, 164691, Note_on_c, 12, 64, 0
15, 164700, Note_on_c, 12, 64, 84
15, 164751, Note_on_c, 12, 64, 0
15, 164760, Note_on_c, 12, 64, 84
15, 164811, Note_on_c, 12, 64, 0
15, 164820, Note_on_c, 12, 64, 84
15, 164871, Note_on_c, 12, 64, 0
15, 164880, Note_on_c, 12, 62, 84
15, 164931, Note_on_c, 12, 62, 0
15, 164940, Note_on_c, 12, 62, 84
15, 164991, Note_on_c, 12, 62, 0
15, 165000, Note_on_c, 12, 64, 84
15, 165051, Note_on_c, 12, 64, 0
15, 165060, Note_on_c, 12, 64, 84
15, 165111, Note_on_c, 12, 64, 0
15, 165120, Note_on_c, 12, 64, 84
15, 165171, Note_on_c, 12, 64, 0
15, 165180, Note_on_c, 12, 64, 84
15, 165231, Note_on_c, 12, 64, 0
15, 165240, Note_on_c, 12, 64, 84
15, 165291, Note_on_c, 12, 64, 0
15, 165300, Note_on_c, 12, 64, 84
15, 165351, Note_on_c, 12, 64, 0
15, 165360, Note_on_c, 12, 63, 84
15, 165411, Note_on_c, 12, 63, 0
15, 165420, Note_on_c, 12, 63, 84
15, 165471, Note_on_c, 12, 63, 0
15, 165480, Note_on_c, 12, 64, 84
15, 165531, Note_on_c, 12, 64, 0
15, 165540, Note_on_c, 12, 64, 84
15, 165591, Note_on_c, 12, 64, 0
15, 165600, Note_on_c, 12, 64, 84
15, 165651, Note_on_c, 12, 64, 0
15, 165660, Note_on_c, 12, 64, 84
15, 165711, Note_on_c, 12, 64, 0
15, 165720, Note_on_c, 12, 64, 84
15, 165771, Note_on_c, 12, 64, 0
15, 165780, Note_on_c, 12, 64, 84
15, 165831, Note_on_c, 12, 64, 0
15, 165840, Note_on_c, 12, 63, 84
15, 165891, Note_on_c, 12, 63, 0
15, 165900, Note_on_c, 12, 63, 84
15, 165951, Note_on_c, 12, 63, 0
15, 165960, Note_on_c, 12, 64, 84
15, 166011, Note_on_c, 12, 64, 0
15, 166020, Note_on_c, 12, 64, 84
15, 166071, Note_on_c, 12, 64, 0
15, 166080, Note_on_c, 12, 64, 84
15, 166131, Note_on_c, 12, 64, 0
15, 166140, Note_on_c, 12, 52, 83
15, 166191, Note_on_c, 12, 52, 0
15, 166200, Note_on_c, 12, 52, 82
15, 166251, Note_on_c, 12, 52, 0
15, 166260, Note_on_c, 12, 52, 81
15, 166311, Note_on_c, 12, 52, 0
15, 166320, Note_on_c, 12, 51, 79
15, 166371, Note_on_c, 12, 51, 0
15, 166380, Note_on_c, 12, 51, 78
15, 166431, Note_on_c, 12, 51, 0
15, 166440, Note_on_c, 12, 52, 77
15, 166491, Note_on_c, 12, 52, 0
15, 166500, Note_on_c, 12, 52, 76
15, 166551, Note_on_c, 12, 52, 0
15, 166560, Note_on_c, 12, 52, 74
15, 166611, Note_on_c, 12, 52, 0
15, 166620, Note_on_c, 12, 52, 73
15, 166671, Note_on_c, 12, 52, 0
15, 166680, Note_on_c, 12, 52, 72
15, 166731, Note_on_c, 12, 52, 0
15, 166740, Note_on_c, 12, 52, 71
15, 166791, Note_on_c, 12, 52, 0
15, 166800, Note_on_c, 12, 51, 69
15, 166851, Note_on_c, 12, 51, 0
15, 166860, Note_on_c, 12, 51, 68
15, 166911, Note_on_c, 12, 51, 0
15, 166920, Note_on_c, 12, 52, 67
15, 166971, Note_on_c, 12, 52, 0
15, 166980, Note_on_c, 12, 52, 66
15, 167031, Note_on_c, 12, 52, 0
15, 167040, Note_on_c, 12, 52, 64
15, 167091, Note_on_c, 12, 52, 0
15, 167100, Note_on_c, 12, 52, 63
15, 167151, Note_on_c, 12, 52, 0
15, 167160, Note_on_c, 12, 52, 62
15, 167211, Note_on_c, 12, 52, 0
15, 167220, Note_on_c, 12, 52, 61
15, 167271, Note_on_c, 12, 52, 0
15, 167280, Note_on_c, 12, 51, 59
15, 167331, Note_on_c, 12, 51, 0
15, 167340, Note_on_c, 12, 51, 58
15, 167391, Note_on_c, 12, 51, 0
15, 167400, Note_on_c, 12, 52, 57
15, 167451, Note_on_c, 12, 52, 0
15, 167460, Note_on_c, 12, 52, 56
15, 167511, Note_on_c, 12, 52, 0
15, 167520, Note_on_c, 12, 52, 54
15, 167571, Note_on_c, 12, 52, 0
15, 167580, Note_on_c, 12, 52, 53
15, 167631, Note_on_c, 12, 52, 0
15, 167640, Note_on_c, 12, 52, 52
15, 167691, Note_on_c, 12, 52, 0
15, 167700, Note_on_c, 12, 52, 51
15, 167751, Note_on_c, 12, 52, 0
15, 167760, Note_on_c, 12, 51, 49
15, 167811, Note_on_c, 12, 51, 0
15, 167820, Note_on_c, 12, 51, 48
15, 167871, Note_on_c, 12, 51, 0
15, 167880, Note_on_c, 12, 52, 47
15, 167931, Note_on_c, 12, 52, 0
15, 167940, Note_on_c, 12, 52, 46
15, 167991, Note_on_c, 12, 52, 0
15, 168000, Note_on_c, 12, 53, 44
15, 168104, Note_on_c, 12, 53, 0
15, 168120, Note_on_c, 12, 60, 44
15, 168171, Note_on_c, 12, 60, 0
15, 168180, Note_on_c, 12, 60, 44
15, 168231, Note_on_c, 12, 60, 0
15, 168240, Note_on_c, 12, 60, 44
15, 168359, Note_on_c, 12, 60, 0
15, 169080, Note_on_c, 12, 60, 44
15, 169184, Note_on_c, 12, 60, 0
15, 169200, Note_on_c, 12, 60, 44
15, 169251, Note_on_c, 12, 60, 0
15, 169260, Note_on_c, 12, 60, 44
15, 169311, Note_on_c, 12, 60, 0
15, 169320, Note_on_c, 12, 60, 44
15, 169439, Note_on_c, 12, 60, 0
15, 172800, Note_on_c, 12, 50, 44
15, 172979, Note_on_c, 12, 50, 0
15, 172980, Note_on_c, 12, 58, 44
15, 173031, Note_on_c, 12, 58, 0
15, 173040, Note_on_c, 12, 50, 44
15, 173219, Note_on_c, 12, 50, 0
15, 173220, Note_on_c, 12, 58, 44
15, 173271, Note_on_c, 12, 58, 0
15, 173280, Note_on_c, 12, 60, 44
15, 173384, Note_on_c, 12, 60, 0
15, 173400, Note_on_c, 12, 57, 44
15, 173451, Note_on_c, 12, 57, 0
15, 173460, Note_on_c, 12, 57, 44
15, 173511, Note_on_c, 12, 57, 0
15, 173520, Note_on_c, 12, 57, 44
15, 173639, Note_on_c, 12, 57, 0
15, 174360, Note_on_c, 12, 57, 44
15, 174464, Note_on_c, 12, 57, 0
15, 174480, Note_on_c, 12, 57, 44
15, 174531, Note_on_c, 12, 57, 0
15, 174540, Note_on_c, 12, 57, 44
15, 174591, Note_on_c, 12, 57, 0
15, 174600, Note_on_c, 12, 57, 44
15, 174719, Note_on_c, 12, 57, 0
15, 178080, Note_on_c, 12, 50, 72
15, 178259, Note_on_c, 12, 50, 0
15, 178260, Note_on_c, 12, 59, 76
15, 178311, Note_on_c, 12, 59, 0
15, 178320, Note_on_c, 12, 50, 78
15, 178499, Note_on_c, 12, 50, 0
15, 178500, Note_on_c, 12, 59, 82
15, 178551, Note_on_c, 12, 59, 0
15, 178560, Note_on_c, 12, 52, 84
15, 178679, Note_on_c, 12, 52, 0
15, 179520, Note_on_c, 12, 52, 84
15, 179520, Note_on_c, 12, 59, 84
15, 179520, Note_on_c, 12, 64, 84
15, 179639, Note_on_c, 12, 52, 0
15, 179639, Note_on_c, 12, 59, 0
15, 179639, Note_on_c, 12, 64, 0
15, 180480, Note_on_c, 12, 56, 84
15, 180531, Note_on_c, 12, 56, 0
15, 180540, Note_on_c, 12, 56, 84
15, 180591, Note_on_c, 12, 56, 0
15, 180600, Note_on_c, 12, 56, 84
15, 180651, Note_on_c, 12, 56, 0
15, 180660, Note_on_c, 12, 56, 84
15, 180711, Note_on_c, 12, 56, 0
15, 180720, Note_on_c, 12, 54, 92
15, 180771, Note_on_c, 12, 54, 0
15, 180780, Note_on_c, 12, 54, 84
15, 180831, Note_on_c, 12, 54, 0
15, 180840, Note_on_c, 12, 56, 84
15, 180891, Note_on_c, 12, 56, 0
15, 180900, Note_on_c, 12, 56, 84
15, 180951, Note_on_c, 12, 56, 0
15, 180960, Note_on_c, 12, 57, 84
15, 181011, Note_on_c, 12, 57, 0
15, 181020, Note_on_c, 12, 57, 84
15, 181071, Note_on_c, 12, 57, 0
15, 181080, Note_on_c, 12, 57, 84
15, 181131, Note_on_c, 12, 57, 0
15, 181140, Note_on_c, 12, 57, 84
15, 181191, Note_on_c, 12, 57, 0
15, 181200, Note_on_c, 12, 56, 92
15, 181251, Note_on_c, 12, 56, 0
15, 181260, Note_on_c, 12, 56, 84
15, 181311, Note_on_c, 12, 56, 0
15, 181320, Note_on_c, 12, 57, 84
15, 181371, Note_on_c, 12, 57, 0
15, 181380, Note_on_c, 12, 57, 84
15, 181431, Note_on_c, 12, 57, 0
15, 181440, Note_on_c, 12, 56, 84
15, 181491, Note_on_c, 12, 56, 0
15, 181500, Note_on_c, 12, 56, 84
15, 181551, Note_on_c, 12, 56, 0
15, 181560, Note_on_c, 12, 56, 84
15, 181611, Note_on_c, 12, 56, 0
15, 181620, Note_on_c, 12, 56, 84
15, 181671, Note_on_c, 12, 56, 0
15, 181680, Note_on_c, 12, 54, 92
15, 181731, Note_on_c, 12, 54, 0
15, 181740, Note_on_c, 12, 54, 84
15, 181791, Note_on_c, 12, 54, 0
15, 181800, Note_on_c, 12, 56, 84
15, 181851, Note_on_c, 12, 56, 0
15, 181860, Note_on_c, 12, 56, 84
15, 181911, Note_on_c, 12, 56, 0
15, 181920, Note_on_c, 12, 57, 84
15, 181964, Note_on_c, 12, 57, 0
15, 181980, Note_on_c, 12, 57, 84
15, 182039, Note_on_c, 12, 57, 0
15, 182040, Note_on_c, 12, 59, 84
15, 182099, Note_on_c, 12, 59, 0
15, 182100, Note_on_c, 12, 61, 84
15, 182159, Note_on_c, 12, 61, 0
15, 182160, Note_on_c, 12, 62, 92
15, 182219, Note_on_c, 12, 62, 0
15, 182220, Note_on_c, 12, 61, 84
15, 182279, Note_on_c, 12, 61, 0
15, 182280, Note_on_c, 12, 59, 84
15, 182339, Note_on_c, 12, 59, 0
15, 182340, Note_on_c, 12, 57, 84
15, 182391, Note_on_c, 12, 57, 0
15, 182400, Note_on_c, 12, 56, 84
15, 182451, Note_on_c, 12, 56, 0
15, 182460, Note_on_c, 12, 56, 84
15, 182511, Note_on_c, 12, 56, 0
15, 182520, Note_on_c, 12, 56, 84
15, 182571, Note_on_c, 12, 56, 0
15, 182580, Note_on_c, 12, 56, 84
15, 182631, Note_on_c, 12, 56, 0
15, 182640, Note_on_c, 12, 54, 92
15, 182691, Note_on_c, 12, 54, 0
15, 182700, Note_on_c, 12, 54, 84
15, 182751, Note_on_c, 12, 54, 0
15, 182760, Note_on_c, 12, 56, 84
15, 182811, Note_on_c, 12, 56, 0
15, 182820, Note_on_c, 12, 56, 84
15, 182871, Note_on_c, 12, 56, 0
15, 182880, Note_on_c, 12, 57, 84
15, 182931, Note_on_c, 12, 57, 0
15, 182940, Note_on_c, 12, 57, 84
15, 182991, Note_on_c, 12, 57, 0
15, 183000, Note_on_c, 12, 57, 84
15, 183051, Note_on_c, 12, 57, 0
15, 183060, Note_on_c, 12, 57, 84
15, 183111, Note_on_c, 12, 57, 0
15, 183120, Note_on_c, 12, 56, 92
15, 183171, Note_on_c, 12, 56, 0
15, 183180, Note_on_c, 12, 56, 84
15, 183231, Note_on_c, 12, 56, 0
15, 183240, Note_on_c, 12, 57, 84
15, 183291, Note_on_c, 12, 57, 0
15, 183300, Note_on_c, 12, 57, 84
15, 183351, Note_on_c, 12, 57, 0
15, 183360, Note_on_c, 12, 56, 84
15, 183411, Note_on_c, 12, 56, 0
15, 183420, Note_on_c, 12, 56, 84
15, 183471, Note_on_c, 12, 56, 0
15, 183480, Note_on_c, 12, 56, 84
15, 183531, Note_on_c, 12, 56, 0
15, 183540, Note_on_c, 12, 56, 84
15, 183591, Note_on_c, 12, 56, 0
15, 183600, Note_on_c, 12, 54, 92
15, 183651, Note_on_c, 12, 54, 0
15, 183660, Note_on_c, 12, 54, 84
15, 183711, Note_on_c, 12, 54, 0
15, 183720, Note_on_c, 12, 56, 84
15, 183771, Note_on_c, 12, 56, 0
15, 183780, Note_on_c, 12, 56, 84
15, 183831, Note_on_c, 12, 56, 0
15, 183840, Note_on_c, 12, 57, 84
15, 183899, Note_on_c, 12, 57, 0
15, 183900, Note_on_c, 12, 59, 84
15, 183959, Note_on_c, 12, 59, 0
15, 183960, Note_on_c, 12, 61, 84
15, 184019, Note_on_c, 12, 61, 0
15, 184020, Note_on_c, 12, 62, 84
15, 184079, Note_on_c, 12, 62, 0
15, 184080, Note_on_c, 12, 64, 84
15, 184139, Note_on_c, 12, 64, 0
15, 184140, Note_on_c, 12, 66, 84
15, 184199, Note_on_c, 12, 66, 0
15, 184200, Note_on_c, 12, 68, 84
15, 184259, Note_on_c, 12, 68, 0
15, 184260, Note_on_c, 12, 69, 84
15, 184311, Note_on_c, 12, 69, 0
15, 184320, Note_on_c, 12, 56, 84
15, 184371, Note_on_c, 12, 56, 0
15, 184380, Note_on_c, 12, 56, 84
15, 184431, Note_on_c, 12, 56, 0
15, 184440, Note_on_c, 12, 56, 84
15, 184491, Note_on_c, 12, 56, 0
15, 184500, Note_on_c, 12, 56, 84
15, 184551, Note_on_c, 12, 56, 0
15, 184560, Note_on_c, 12, 54, 92
15, 184611, Note_on_c, 12, 54, 0
15, 184620, Note_on_c, 12, 54, 84
15, 184671, Note_on_c, 12, 54, 0
15, 184680, Note_on_c, 12, 56, 84
15, 184731, Note_on_c, 12, 56, 0
15, 184740, Note_on_c, 12, 56, 84
15, 184791, Note_on_c, 12, 56, 0
15, 184800, Note_on_c, 12, 57, 84
15, 184851, Note_on_c, 12, 57, 0
15, 184860, Note_on_c, 12, 57, 84
15, 184911, Note_on_c, 12, 57, 0
15, 184920, Note_on_c, 12, 57, 84
15, 184971, Note_on_c, 12, 57, 0
15, 184980, Note_on_c, 12, 57, 84
15, 185031, Note_on_c, 12, 57, 0
15, 185040, Note_on_c, 12, 56, 92
15, 185091, Note_on_c, 12, 56, 0
15, 185100, Note_on_c, 12, 56, 84
15, 185151, Note_on_c, 12, 56, 0
15, 185160, Note_on_c, 12, 57, 84
15, 185211, Note_on_c, 12, 57, 0
15, 185220, Note_on_c, 12, 57, 84
15, 185271, Note_on_c, 12, 57, 0
15, 185280, Note_on_c, 12, 56, 84
15, 185331, Note_on_c, 12, 56, 0
15, 185340, Note_on_c, 12, 56, 84
15, 185391, Note_on_c, 12, 56, 0
15, 185400, Note_on_c, 12, 56, 84
15, 185451, Note_on_c, 12, 56, 0
15, 185460, Note_on_c, 12, 56, 84
15, 185511, Note_on_c, 12, 56, 0
15, 185520, Note_on_c, 12, 54, 92
15, 185571, Note_on_c, 12, 54, 0
15, 185580, Note_on_c, 12, 54, 84
15, 185631, Note_on_c, 12, 54, 0
15, 185640, Note_on_c, 12, 56, 84
15, 185691, Note_on_c, 12, 56, 0
15, 185700, Note_on_c, 12, 56, 84
15, 185751, Note_on_c, 12, 56, 0
15, 185760, Note_on_c, 12, 57, 84
15, 185804, Note_on_c, 12, 57, 0
15, 185820, Note_on_c, 12, 57, 84
15, 185879, Note_on_c, 12, 57, 0
15, 185880, Note_on_c, 12, 59, 84
15, 185939, Note_on_c, 12, 59, 0
15, 185940, Note_on_c, 12, 61, 84
15, 185999, Note_on_c, 12, 61, 0
15, 186000, Note_on_c, 12, 62, 92
15, 186059, Note_on_c, 12, 62, 0
15, 186060, Note_on_c, 12, 61, 84
15, 186119, Note_on_c, 12, 61, 0
15, 186120, Note_on_c, 12, 59, 84
15, 186179, Note_on_c, 12, 59, 0
15, 186180, Note_on_c, 12, 57, 84
15, 186231, Note_on_c, 12, 57, 0
15, 186240, Note_on_c, 12, 56, 84
15, 186291, Note_on_c, 12, 56, 0
15, 186300, Note_on_c, 12, 56, 84
15, 186351, Note_on_c, 12, 56, 0
15, 186360, Note_on_c, 12, 56, 84
15, 186411, Note_on_c, 12, 56, 0
15, 186420, Note_on_c, 12, 56, 84
15, 186471, Note_on_c, 12, 56, 0
15, 186480, Note_on_c, 12, 54, 92
15, 186531, Note_on_c, 12, 54, 0
15, 186540, Note_on_c, 12, 54, 84
15, 186591, Note_on_c, 12, 54, 0
15, 186600, Note_on_c, 12, 56, 84
15, 186651, Note_on_c, 12, 56, 0
15, 186660, Note_on_c, 12, 56, 84
15, 186711, Note_on_c, 12, 56, 0
15, 186720, Note_on_c, 12, 57, 84
15, 186771, Note_on_c, 12, 57, 0
15, 186780, Note_on_c, 12, 57, 84
15, 186831, Note_on_c, 12, 57, 0
15, 186840, Note_on_c, 12, 57, 84
15, 186891, Note_on_c, 12, 57, 0
15, 186900, Note_on_c, 12, 57, 84
15, 186951, Note_on_c, 12, 57, 0
15, 186960, Note_on_c, 12, 56, 92
15, 187011, Note_on_c, 12, 56, 0
15, 187020, Note_on_c, 12, 56, 84
15, 187071, Note_on_c, 12, 56, 0
15, 187080, Note_on_c, 12, 57, 84
15, 187131, Note_on_c, 12, 57, 0
15, 187140, Note_on_c, 12, 57, 84
15, 187191, Note_on_c, 12, 57, 0
15, 187200, Note_on_c, 12, 56, 84
15, 187251, Note_on_c, 12, 56, 0
15, 187260, Note_on_c, 12, 56, 84
15, 187311, Note_on_c, 12, 56, 0
15, 187320, Note_on_c, 12, 56, 84
15, 187371, Note_on_c, 12, 56, 0
15, 187380, Note_on_c, 12, 56, 84
15, 187431, Note_on_c, 12, 56, 0
15, 187440, Note_on_c, 12, 54, 92
15, 187491, Note_on_c, 12, 54, 0
15, 187500, Note_on_c, 12, 54, 84
15, 187551, Note_on_c, 12, 54, 0
15, 187560, Note_on_c, 12, 56, 84
15, 187611, Note_on_c, 12, 56, 0
15, 187620, Note_on_c, 12, 56, 84
15, 187671, Note_on_c, 12, 56, 0
15, 187680, Note_on_c, 12, 52, 84
15, 187680, Note_on_c, 12, 57, 84
15, 187799, Note_on_c, 12, 52, 0
15, 187799, Note_on_c, 12, 57, 0
15, 188160, Note_on_c, 12, 57, 84
15, 188160, Note_on_c, 12, 64, 84
15, 188160, Note_on_c, 12, 69, 84
15, 188279, Note_on_c, 12, 57, 0
15, 188279, Note_on_c, 12, 64, 0
15, 188279, Note_on_c, 12, 69, 0
15, 188640, Note_on_c, 12, 52, 84
15, 188640, Note_on_c, 12, 68, 84
15, 188640, Note_on_c, 12, 59, 84
15, 188759, Note_on_c, 12, 52, 0
15, 188759, Note_on_c, 12, 68, 0
15, 188759, Note_on_c, 12, 59, 0
15, 189120, Note_on_c, 12, 64, 84
15, 189120, Note_on_c, 12, 52, 84
15, 189120, Note_on_c, 12, 59, 84
15, 189239, Note_on_c, 12, 64, 0
15, 189239, Note_on_c, 12, 52, 0
15, 189239, Note_on_c, 12, 59, 0
15, 189600, Note_on_c, 12, 57, 84
15, 189719, Note_on_c, 12, 57, 0
15, 189840, Note_on_c, 12, 57, 84
15, 189959, Note_on_c, 12, 57, 0
15, 190080, Note_on_c, 12, 57, 84
15, 190199, Note_on_c, 12, 57, 0
15, 190320, Note_on_c, 12, 57, 84
15, 190439, Note_on_c, 12, 57, 0
15, 190560, Note_on_c, 12, 59, 84
15, 190560, Note_on_c, 12, 64, 84
15, 190560, Note_on_c, 12, 52, 84
15, 190679, Note_on_c, 12, 59, 0
15, 190679, Note_on_c, 12, 64, 0
15, 190679, Note_on_c, 12, 52, 0
15, 190800, Note_on_c, 12, 59, 84
15, 190800, Note_on_c, 12, 64, 84
15, 190800, Note_on_c, 12, 52, 84
15, 190919, Note_on_c, 12, 59, 0
15, 190919, Note_on_c, 12, 64, 0
15, 190919, Note_on_c, 12, 52, 0
15, 191040, Note_on_c, 12, 52, 84
15, 191040, Note_on_c, 12, 59, 84
15, 191040, Note_on_c, 12, 64, 84
15, 191159, Note_on_c, 12, 52, 0
15, 191159, Note_on_c, 12, 59, 0
15, 191159, Note_on_c, 12, 64, 0
15, 191280, Note_on_c, 12, 52, 84
15, 191280, Note_on_c, 12, 59, 84
15, 191280, Note_on_c, 12, 64, 84
15, 191399, Note_on_c, 12, 52, 0
15, 191399, Note_on_c, 12, 59, 0
15, 191399, Note_on_c, 12, 64, 0
15, 191520, Note_on_c, 12, 57, 84
15, 191639, Note_on_c, 12, 57, 0
15, 192000, Note_on_c, 12, 57, 84
15, 192000, Note_on_c, 12, 69, 84
15, 192000, Note_on_c, 12, 64, 84
15, 192119, Note_on_c, 12, 57, 0
15, 192119, Note_on_c, 12, 69, 0
15, 192119, Note_on_c, 12, 64, 0
15, 192480, Note_on_c, 12, 52, 84
15, 192480, Note_on_c, 12, 64, 84
15, 192480, Note_on_c, 12, 59, 84
15, 192599, Note_on_c, 12, 52, 0
15, 192599, Note_on_c, 12, 64, 0
15, 192599, Note_on_c, 12, 59, 0
15, 192960, Note_on_c, 12, 59, 84
15, 192960, Note_on_c, 12, 64, 84
15, 192960, Note_on_c, 12, 52, 84
15, 193079, Note_on_c, 12, 59, 0
15, 193079, Note_on_c, 12, 64, 0
15, 193079, Note_on_c, 12, 52, 0
15, 193440, Note_on_c, 12, 57, 84
15, 193491, Note_on_c, 12, 57, 0
15, 193500, Note_on_c, 12, 57, 84
15, 193551, Note_on_c, 12, 57, 0
15, 193560, Note_on_c, 12, 57, 84
15, 193611, Note_on_c, 12, 57, 0
15, 193620, Note_on_c, 12, 57, 84
15, 193671, Note_on_c, 12, 57, 0
15, 193680, Note_on_c, 12, 57, 84
15, 193731, Note_on_c, 12, 57, 0
15, 193740, Note_on_c, 12, 57, 84
15, 193791, Note_on_c, 12, 57, 0
15, 193800, Note_on_c, 12, 59, 84
15, 193851, Note_on_c, 12, 59, 0
15, 193860, Note_on_c, 12, 59, 84
15, 193911, Note_on_c, 12, 59, 0
15, 193920, Note_on_c, 12, 61, 84
15, 193971, Note_on_c, 12, 61, 0
15, 193980, Note_on_c, 12, 61, 84
15, 194031, Note_on_c, 12, 61, 0
15, 194040, Note_on_c, 12, 57, 84
15, 194091, Note_on_c, 12, 57, 0
15, 194100, Note_on_c, 12, 57, 84
15, 194151, Note_on_c, 12, 57, 0
15, 194160, Note_on_c, 12, 59, 84
15, 194211, Note_on_c, 12, 59, 0
15, 194220, Note_on_c, 12, 59, 84
15, 194271, Note_on_c, 12, 59, 0
15, 194280, Note_on_c, 12, 61, 84
15, 194331, Note_on_c, 12, 61, 0
15, 194340, Note_on_c, 12, 61, 84
15, 194391, Note_on_c, 12, 61, 0
15, 194400, Note_on_c, 12, 59, 84
15, 194451, Note_on_c, 12, 59, 0
15, 194460, Note_on_c, 12, 59, 84
15, 194511, Note_on_c, 12, 59, 0
15, 194520, Note_on_c, 12, 61, 84
15, 194571, Note_on_c, 12, 61, 0
15, 194580, Note_on_c, 12, 61, 84
15, 194631, Note_on_c, 12, 61, 0
15, 194640, Note_on_c, 12, 62, 84
15, 194691, Note_on_c, 12, 62, 0
15, 194700, Note_on_c, 12, 62, 84
15, 194751, Note_on_c, 12, 62, 0
15, 194760, Note_on_c, 12, 63, 84
15, 194811, Note_on_c, 12, 63, 0
15, 194820, Note_on_c, 12, 63, 84
15, 194871, Note_on_c, 12, 63, 0
15, 194880, Note_on_c, 12, 64, 84
15, 194931, Note_on_c, 12, 64, 0
15, 194940, Note_on_c, 12, 64, 84
15, 194991, Note_on_c, 12, 64, 0
15, 195000, Note_on_c, 12, 66, 84
15, 195051, Note_on_c, 12, 66, 0
15, 195060, Note_on_c, 12, 66, 84
15, 195111, Note_on_c, 12, 66, 0
15, 195120, Note_on_c, 12, 67, 84
15, 195171, Note_on_c, 12, 67, 0
15, 195180, Note_on_c, 12, 67, 84
15, 195231, Note_on_c, 12, 67, 0
15, 195240, Note_on_c, 12, 68, 84
15, 195291, Note_on_c, 12, 68, 0
15, 195300, Note_on_c, 12, 68, 84
15, 195351, Note_on_c, 12, 68, 0
15, 195360, Note_on_c, 12, 69, 84
15, 195479, Note_on_c, 12, 69, 0
15, 196440, Note_on_c, 12, 52, 84
15, 196499, Note_on_c, 12, 52, 0
15, 196500, Note_on_c, 12, 54, 84
15, 196559, Note_on_c, 12, 54, 0
15, 196560, Note_on_c, 12, 57, 84
15, 196619, Note_on_c, 12, 57, 0
15, 196620, Note_on_c, 12, 56, 84
15, 196679, Note_on_c, 12, 56, 0
15, 196680, Note_on_c, 12, 54, 84
15, 196739, Note_on_c, 12, 54, 0
15, 196740, Note_on_c, 12, 56, 84
15, 196791, Note_on_c, 12, 56, 0
15, 196800, Note_on_c, 12, 57, 84
15, 197039, Note_on_c, 12, 57, 0
15, 197040, Note_on_c, 12, 56, 84
15, 197279, Note_on_c, 12, 56, 0
15, 197280, Note_on_c, 12, 57, 84
15, 197519, Note_on_c, 12, 57, 0
15, 198360, Note_on_c, 12, 52, 84
15, 198419, Note_on_c, 12, 52, 0
15, 198420, Note_on_c, 12, 53, 84
15, 198479, Note_on_c, 12, 53, 0
15, 198480, Note_on_c, 12, 57, 84
15, 198539, Note_on_c, 12, 57, 0
15, 198540, Note_on_c, 12, 55, 84
15, 198599, Note_on_c, 12, 55, 0
15, 198600, Note_on_c, 12, 53, 84
15, 198659, Note_on_c, 12, 53, 0
15, 198660, Note_on_c, 12, 55, 84
15, 198711, Note_on_c, 12, 55, 0
15, 198720, Note_on_c, 12, 57, 84
15, 198959, Note_on_c, 12, 57, 0
15, 198960, Note_on_c, 12, 55, 84
15, 199199, Note_on_c, 12, 55, 0
15, 199200, Note_on_c, 12, 53, 84
15, 199319, Note_on_c, 12, 53, 0
15, 200280, Note_on_c, 12, 57, 84
15, 200339, Note_on_c, 12, 57, 0
15, 200340, Note_on_c, 12, 59, 84
15, 200399, Note_on_c, 12, 59, 0
15, 200400, Note_on_c, 12, 62, 84
15, 200459, Note_on_c, 12, 62, 0
15, 200460, Note_on_c, 12, 61, 84
15, 200519, Note_on_c, 12, 61, 0
15, 200520, Note_on_c, 12, 59, 84
15, 200579, Note_on_c, 12, 59, 0
15, 200580, Note_on_c, 12, 61, 84
15, 200631, Note_on_c, 12, 61, 0
15, 200640, Note_on_c, 12, 62, 84
15, 200879, Note_on_c, 12, 62, 0
15, 200880, Note_on_c, 12, 57, 84
15, 201119, Note_on_c, 12, 57, 0
15, 201120, Note_on_c, 12, 50, 84
15, 201239, Note_on_c, 12, 50, 0
15, 202200, Note_on_c, 12, 57, 84
15, 202259, Note_on_c, 12, 57, 0
15, 202260, Note_on_c, 12, 59, 84
15, 202319, Note_on_c, 12, 59, 0
15, 202320, Note_on_c, 12, 62, 84
15, 202379, Note_on_c, 12, 62, 0
15, 202380, Note_on_c, 12, 61, 84
15, 202439, Note_on_c, 12, 61, 0
15, 202440, Note_on_c, 12, 59, 84
15, 202499, Note_on_c, 12, 59, 0
15, 202500, Note_on_c, 12, 61, 84
15, 202551, Note_on_c, 12, 61, 0
15, 202560, Note_on_c, 12, 62, 84
15, 202799, Note_on_c, 12, 62, 0
15, 202800, Note_on_c, 12, 61, 84
15, 203024, Note_on_c, 12, 61, 0
15, 203040, Note_on_c, 12, 62, 84
15, 203211, Note_on_c, 12, 62, 0
15, 203220, Note_on_c, 12, 57, 84
15, 203271, Note_on_c, 12, 57, 0
15, 203280, Note_on_c, 12, 57, 84
15, 203451, Note_on_c, 12, 57, 0
15, 203460, Note_on_c, 12, 57, 84
15, 203511, Note_on_c, 12, 57, 0
15, 203520, Note_on_c, 12, 57, 84
15, 203691, Note_on_c, 12, 57, 0
15, 203700, Note_on_c, 12, 57, 84
15, 203751, Note_on_c, 12, 57, 0
15, 203760, Note_on_c, 12, 57, 84
15, 203931, Note_on_c, 12, 57, 0
15, 203940, Note_on_c, 12, 57, 84
15, 203991, Note_on_c, 12, 57, 0
15, 204000, Note_on_c, 12, 57, 84
15, 204171, Note_on_c, 12, 57, 0
15, 204180, Note_on_c, 12, 57, 84
15, 204231, Note_on_c, 12, 57, 0
15, 204240, Note_on_c, 12, 57, 84
15, 204411, Note_on_c, 12, 57, 0
15, 204420, Note_on_c, 12, 57, 84
15, 204471, Note_on_c, 12, 57, 0
15, 204480, Note_on_c, 12, 57, 84
15, 204651, Note_on_c, 12, 57, 0
15, 204660, Note_on_c, 12, 57, 84
15, 204711, Note_on_c, 12, 57, 0
15, 204720, Note_on_c, 12, 57, 84
15, 204891, Note_on_c, 12, 57, 0
15, 204900, Note_on_c, 12, 57, 84
15, 204951, Note_on_c, 12, 57, 0
15, 204960, Note_on_c, 12, 57, 84
15, 205131, Note_on_c, 12, 57, 0
15, 205140, Note_on_c, 12, 57, 84
15, 205191, Note_on_c, 12, 57, 0
15, 205200, Note_on_c, 12, 57, 84
15, 205371, Note_on_c, 12, 57, 0
15, 205380, Note_on_c, 12, 57, 84
15, 205431, Note_on_c, 12, 57, 0
15, 205440, Note_on_c, 12, 57, 84
15, 205611, Note_on_c, 12, 57, 0
15, 205620, Note_on_c, 12, 57, 84
15, 205671, Note_on_c, 12, 57, 0
15, 205680, Note_on_c, 12, 57, 84
15, 205851, Note_on_c, 12, 57, 0
15, 205860, Note_on_c, 12, 57, 84
15, 205911, Note_on_c, 12, 57, 0
15, 205920, Note_on_c, 12, 62, 84
15, 206091, Note_on_c, 12, 62, 0
15, 206100, Note_on_c, 12, 62, 84
15, 206151, Note_on_c, 12, 62, 0
15, 206160, Note_on_c, 12, 62, 84
15, 206331, Note_on_c, 12, 62, 0
15, 206340, Note_on_c, 12, 62, 84
15, 206391, Note_on_c, 12, 62, 0
15, 206400, Note_on_c, 12, 65, 84
15, 206571, Note_on_c, 12, 65, 0
15, 206580, Note_on_c, 12, 53, 84
15, 206631, Note_on_c, 12, 53, 0
15, 206640, Note_on_c, 12, 53, 84
15, 206811, Note_on_c, 12, 53, 0
15, 206820, Note_on_c, 12, 53, 84
15, 206871, Note_on_c, 12, 53, 0
15, 206880, Note_on_c, 12, 52, 84
15, 207051, Note_on_c, 12, 52, 0
15, 207060, Note_on_c, 12, 57, 84
15, 207111, Note_on_c, 12, 57, 0
15, 207120, Note_on_c, 12, 57, 84
15, 207291, Note_on_c, 12, 57, 0
15, 207300, Note_on_c, 12, 57, 84
15, 207351, Note_on_c, 12, 57, 0
15, 207360, Note_on_c, 12, 57, 84
15, 207531, Note_on_c, 12, 57, 0
15, 207540, Note_on_c, 12, 57, 84
15, 207591, Note_on_c, 12, 57, 0
15, 207600, Note_on_c, 12, 57, 84
15, 207771, Note_on_c, 12, 57, 0
15, 207780, Note_on_c, 12, 57, 84
15, 207831, Note_on_c, 12, 57, 0
15, 207840, Note_on_c, 12, 56, 84
15, 207959, Note_on_c, 12, 56, 0
15, 208080, Note_on_c, 12, 65, 76
15, 208131, Note_on_c, 12, 65, 0
15, 208140, Note_on_c, 12, 65, 76
15, 208191, Note_on_c, 12, 65, 0
15, 208200, Note_on_c, 12, 65, 76
15, 208251, Note_on_c, 12, 65, 0
15, 208260, Note_on_c, 12, 65, 76
15, 208311, Note_on_c, 12, 65, 0
15, 208320, Note_on_c, 12, 65, 52
15, 208371, Note_on_c, 12, 65, 0
15, 208380, Note_on_c, 12, 65, 52
15, 208431, Note_on_c, 12, 65, 0
15, 208440, Note_on_c, 12, 65, 52
15, 208491, Note_on_c, 12, 65, 0
15, 208500, Note_on_c, 12, 65, 52
15, 208551, Note_on_c, 12, 65, 0
15, 208560, Note_on_c, 12, 64, 52
15, 208611, Note_on_c, 12, 64, 0
15, 208620, Note_on_c, 12, 62, 52
15, 208671, Note_on_c, 12, 62, 0
15, 208680, Note_on_c, 12, 62, 52
15, 208731, Note_on_c, 12, 62, 0
15, 208740, Note_on_c, 12, 62, 52
15, 208791, Note_on_c, 12, 62, 0
15, 208800, Note_on_c, 12, 62, 52
15, 208851, Note_on_c, 12, 62, 0
15, 208860, Note_on_c, 12, 62, 52
15, 208911, Note_on_c, 12, 62, 0
15, 208920, Note_on_c, 12, 62, 52
15, 208971, Note_on_c, 12, 62, 0
15, 208980, Note_on_c, 12, 62, 52
15, 209031, Note_on_c, 12, 62, 0
15, 209040, Note_on_c, 12, 62, 52
15, 209091, Note_on_c, 12, 62, 0
15, 209100, Note_on_c, 12, 62, 52
15, 209151, Note_on_c, 12, 62, 0
15, 209160, Note_on_c, 12, 62, 52
15, 209211, Note_on_c, 12, 62, 0
15, 209220, Note_on_c, 12, 62, 52
15, 209271, Note_on_c, 12, 62, 0
15, 209280, Note_on_c, 12, 62, 52
15, 209331, Note_on_c, 12, 62, 0
15, 209340, Note_on_c, 12, 62, 52
15, 209391, Note_on_c, 12, 62, 0
15, 209400, Note_on_c, 12, 62, 52
15, 209451, Note_on_c, 12, 62, 0
15, 209460, Note_on_c, 12, 62, 52
15, 209511, Note_on_c, 12, 62, 0
15, 209520, Note_on_c, 12, 60, 52
15, 209571, Note_on_c, 12, 60, 0
15, 209580, Note_on_c, 12, 60, 52
15, 209631, Note_on_c, 12, 60, 0
15, 209640, Note_on_c, 12, 60, 52
15, 209691, Note_on_c, 12, 60, 0
15, 209700, Note_on_c, 12, 60, 52
15, 209751, Note_on_c, 12, 60, 0
15, 209760, Note_on_c, 12, 52, 52
15, 209879, Note_on_c, 12, 52, 0
15, 210000, Note_on_c, 12, 65, 76
15, 210051, Note_on_c, 12, 65, 0
15, 210060, Note_on_c, 12, 65, 76
15, 210111, Note_on_c, 12, 65, 0
15, 210120, Note_on_c, 12, 65, 76
15, 210171, Note_on_c, 12, 65, 0
15, 210180, Note_on_c, 12, 65, 76
15, 210231, Note_on_c, 12, 65, 0
15, 210240, Note_on_c, 12, 65, 52
15, 210291, Note_on_c, 12, 65, 0
15, 210300, Note_on_c, 12, 65, 52
15, 210351, Note_on_c, 12, 65, 0
15, 210360, Note_on_c, 12, 65, 52
15, 210411, Note_on_c, 12, 65, 0
15, 210420, Note_on_c, 12, 65, 52
15, 210471, Note_on_c, 12, 65, 0
15, 210480, Note_on_c, 12, 64, 52
15, 210531, Note_on_c, 12, 64, 0
15, 210540, Note_on_c, 12, 62, 52
15, 210591, Note_on_c, 12, 62, 0
15, 210600, Note_on_c, 12, 62, 52
15, 210651, Note_on_c, 12, 62, 0
15, 210660, Note_on_c, 12, 62, 52
15, 210711, Note_on_c, 12, 62, 0
15, 210720, Note_on_c, 12, 62, 52
15, 210771, Note_on_c, 12, 62, 0
15, 210780, Note_on_c, 12, 62, 52
15, 210831, Note_on_c, 12, 62, 0
15, 210840, Note_on_c, 12, 62, 52
15, 210891, Note_on_c, 12, 62, 0
15, 210900, Note_on_c, 12, 62, 52
15, 210951, Note_on_c, 12, 62, 0
15, 210960, Note_on_c, 12, 62, 52
15, 211011, Note_on_c, 12, 62, 0
15, 211020, Note_on_c, 12, 62, 52
15, 211071, Note_on_c, 12, 62, 0
15, 211080, Note_on_c, 12, 62, 52
15, 211131, Note_on_c, 12, 62, 0
15, 211140, Note_on_c, 12, 62, 52
15, 211191, Note_on_c, 12, 62, 0
15, 211200, Note_on_c, 12, 62, 52
15, 211251, Note_on_c, 12, 62, 0
15, 211260, Note_on_c, 12, 62, 52
15, 211311, Note_on_c, 12, 62, 0
15, 211320, Note_on_c, 12, 62, 52
15, 211371, Note_on_c, 12, 62, 0
15, 211380, Note_on_c, 12, 62, 52
15, 211431, Note_on_c, 12, 62, 0
15, 211440, Note_on_c, 12, 60, 52
15, 211491, Note_on_c, 12, 60, 0
15, 211500, Note_on_c, 12, 60, 52
15, 211551, Note_on_c, 12, 60, 0
15, 211560, Note_on_c, 12, 60, 52
15, 211611, Note_on_c, 12, 60, 0
15, 211620, Note_on_c, 12, 60, 52
15, 211671, Note_on_c, 12, 60, 0
15, 211680, Note_on_c, 12, 62, 52
15, 211731, Note_on_c, 12, 62, 0
15, 211740, Note_on_c, 12, 62, 52
15, 211791, Note_on_c, 12, 62, 0
15, 211800, Note_on_c, 12, 62, 52
15, 211851, Note_on_c, 12, 62, 0
15, 211860, Note_on_c, 12, 62, 52
15, 211911, Note_on_c, 12, 62, 0
15, 211920, Note_on_c, 12, 62, 51
15, 211971, Note_on_c, 12, 62, 0
15, 211980, Note_on_c, 12, 62, 51
15, 212031, Note_on_c, 12, 62, 0
15, 212040, Note_on_c, 12, 62, 51
15, 212091, Note_on_c, 12, 62, 0
15, 212100, Note_on_c, 12, 62, 51
15, 212151, Note_on_c, 12, 62, 0
15, 212160, Note_on_c, 12, 62, 50
15, 212211, Note_on_c, 12, 62, 0
15, 212220, Note_on_c, 12, 62, 50
15, 212271, Note_on_c, 12, 62, 0
15, 212280, Note_on_c, 12, 62, 50
15, 212331, Note_on_c, 12, 62, 0
15, 212340, Note_on_c, 12, 62, 50
15, 212391, Note_on_c, 12, 62, 0
15, 212400, Note_on_c, 12, 60, 49
15, 212451, Note_on_c, 12, 60, 0
15, 212460, Note_on_c, 12, 60, 49
15, 212511, Note_on_c, 12, 60, 0
15, 212520, Note_on_c, 12, 60, 49
15, 212571, Note_on_c, 12, 60, 0
15, 212580, Note_on_c, 12, 60, 49
15, 212631, Note_on_c, 12, 60, 0
15, 212640, Note_on_c, 12, 62, 48
15, 212691, Note_on_c, 12, 62, 0
15, 212700, Note_on_c, 12, 62, 48
15, 212751, Note_on_c, 12, 62, 0
15, 212760, Note_on_c, 12, 62, 48
15, 212811, Note_on_c, 12, 62, 0
15, 212820, Note_on_c, 12, 62, 48
15, 212871, Note_on_c, 12, 62, 0
15, 212880, Note_on_c, 12, 62, 47
15, 212931, Note_on_c, 12, 62, 0
15, 212940, Note_on_c, 12, 62, 47
15, 212991, Note_on_c, 12, 62, 0
15, 213000, Note_on_c, 12, 62, 47
15, 213051, Note_on_c, 12, 62, 0
15, 213060, Note_on_c, 12, 62, 47
15, 213111, Note_on_c, 12, 62, 0
15, 213120, Note_on_c, 12, 62, 46
15, 213171, Note_on_c, 12, 62, 0
15, 213180, Note_on_c, 12, 62, 46
15, 213231, Note_on_c, 12, 62, 0
15, 213240, Note_on_c, 12, 56, 46
15, 213291, Note_on_c, 12, 56, 0
15, 213300, Note_on_c, 12, 56, 46
15, 213351, Note_on_c, 12, 56, 0
15, 213360, Note_on_c, 12, 59, 45
15, 213411, Note_on_c, 12, 59, 0
15, 213420, Note_on_c, 12, 59, 45
15, 213471, Note_on_c, 12, 59, 0
15, 213480, Note_on_c, 12, 56, 45
15, 213531, Note_on_c, 12, 56, 0
15, 213540, Note_on_c, 12, 56, 45
15, 213591, Note_on_c, 12, 56, 0
15, 213600, Note_on_c, 12, 57, 44
15, 213719, Note_on_c, 12, 57, 0
15, 213840, Note_on_c, 12, 57, 76
15, 214079, Note_on_c, 12, 57, 0
15, 214320, Note_on_c, 12, 56, 76
15, 214559, Note_on_c, 12, 56, 0
15, 214800, Note_on_c, 12, 57, 76
15, 215039, Note_on_c, 12, 57, 0
15, 215280, Note_on_c, 12, 56, 76
15, 215504, Note_on_c, 12, 56, 0
15, 215520, Note_on_c, 12, 57, 52
15, 215759, Note_on_c, 12, 57, 0
15, 215760, Note_on_c, 12, 61, 52
15, 215984, Note_on_c, 12, 61, 0
15, 216000, Note_on_c, 12, 60, 52
15, 216224, Note_on_c, 12, 60, 0
15, 216240, Note_on_c, 12, 60, 52
15, 216464, Note_on_c, 12, 60, 0
15, 216480, Note_on_c, 12, 61, 52
15, 216704, Note_on_c, 12, 61, 0
15, 216720, Note_on_c, 12, 61, 52
15, 216944, Note_on_c, 12, 61, 0
15, 216960, Note_on_c, 12, 60, 52
15, 217184, Note_on_c, 12, 60, 0
15, 217200, Note_on_c, 12, 60, 52
15, 217424, Note_on_c, 12, 60, 0
15, 217440, Note_on_c, 12, 61, 52
15, 217664, Note_on_c, 12, 61, 0
15, 217680, Note_on_c, 12, 61, 52
15, 217904, Note_on_c, 12, 61, 0
15, 217920, Note_on_c, 12, 59, 52
15, 218039, Note_on_c, 12, 59, 0
15, 218640, Note_on_c, 12, 57, 76
15, 218879, Note_on_c, 12, 57, 0
15, 219120, Note_on_c, 12, 56, 76
15, 219359, Note_on_c, 12, 56, 0
15, 219600, Note_on_c, 12, 57, 76
15, 219839, Note_on_c, 12, 57, 0
15, 220080, Note_on_c, 12, 56, 76
15, 220304, Note_on_c, 12, 56, 0
15, 220320, Note_on_c, 12, 57, 52
15, 220559, Note_on_c, 12, 57, 0
15, 220560, Note_on_c, 12, 61, 52
15, 220784, Note_on_c, 12, 61, 0
15, 220800, Note_on_c, 12, 60, 52
15, 221024, Note_on_c, 12, 60, 0
15, 221040, Note_on_c, 12, 60, 52
15, 221264, Note_on_c, 12, 60, 0
15, 221280, Note_on_c, 12, 61, 52
15, 221504, Note_on_c, 12, 61, 0
15, 221520, Note_on_c, 12, 61, 52
15, 221744, Note_on_c, 12, 61, 0
15, 221760, Note_on_c, 12, 59, 52
15, 221879, Note_on_c, 12, 59, 0
15, 222240, Note_on_c, 12, 61, 52
15, 222359, Note_on_c, 12, 61, 0
15, 222720, Note_on_c, 12, 59, 52
15, 222839, Note_on_c, 12, 59, 0
15, 223200, Note_on_c, 12, 61, 52
15, 223319, Note_on_c, 12, 61, 0
15, 223680, Note_on_c, 12, 59, 52
15, 223799, Note_on_c, 12, 59, 0
15, 224160, Note_on_c, 12, 59, 52
15, 224279, Note_on_c, 12, 59, 0
15, 225300, Note_on_c, 12, 62, 58
15, 225359, Note_on_c, 12, 62, 0
15, 225360, Note_on_c, 12, 59, 58
15, 225479, Note_on_c, 12, 59, 0
15, 225540, Note_on_c, 12, 56, 59
15, 225599, Note_on_c, 12, 56, 0
15, 225600, Note_on_c, 12, 59, 60
15, 225719, Note_on_c, 12, 59, 0
15, 225780, Note_on_c, 12, 62, 61
15, 225839, Note_on_c, 12, 62, 0
15, 225840, Note_on_c, 12, 64, 61
15, 225959, Note_on_c, 12, 64, 0
15, 226020, Note_on_c, 12, 68, 62
15, 226079, Note_on_c, 12, 68, 0
15, 226080, Note_on_c, 12, 71, 62
15, 226199, Note_on_c, 12, 71, 0
15, 228180, Note_on_c, 12, 62, 74
15, 228239, Note_on_c, 12, 62, 0
15, 228240, Note_on_c, 12, 59, 74
15, 228359, Note_on_c, 12, 59, 0
15, 228420, Note_on_c, 12, 56, 75
15, 228479, Note_on_c, 12, 56, 0
15, 228480, Note_on_c, 12, 59, 76
15, 228599, Note_on_c, 12, 59, 0
15, 228660, Note_on_c, 12, 62, 77
15, 228719, Note_on_c, 12, 62, 0
15, 228720, Note_on_c, 12, 64, 77
15, 228839, Note_on_c, 12, 64, 0
15, 228900, Note_on_c, 12, 68, 78
15, 228959, Note_on_c, 12, 68, 0
15, 228960, Note_on_c, 12, 71, 78
15, 229079, Note_on_c, 12, 71, 0
15, 229680, Note_on_c, 12, 64, 82
15, 229799, Note_on_c, 12, 64, 0
15, 229920, Note_on_c, 12, 67, 84
15, 229920, Note_on_c, 12, 55, 84
15, 229971, Note_on_c, 12, 67, 0
15, 229971, Note_on_c, 12, 55, 0
15, 229980, Note_on_c, 12, 67, 84
15, 229980, Note_on_c, 12, 55, 84
15, 230031, Note_on_c, 12, 67, 0
15, 230031, Note_on_c, 12, 55, 0
15, 230040, Note_on_c, 12, 55, 84
15, 230040, Note_on_c, 12, 67, 84
15, 230091, Note_on_c, 12, 55, 0
15, 230091, Note_on_c, 12, 67, 0
15, 230100, Note_on_c, 12, 67, 84
15, 230100, Note_on_c, 12, 55, 84
15, 230151, Note_on_c, 12, 67, 0
15, 230151, Note_on_c, 12, 55, 0
15, 230160, Note_on_c, 12, 55, 84
15, 230160, Note_on_c, 12, 67, 84
15, 230211, Note_on_c, 12, 55, 0
15, 230211, Note_on_c, 12, 67, 0
15, 230220, Note_on_c, 12, 67, 84
15, 230220, Note_on_c, 12, 55, 84
15, 230271, Note_on_c, 12, 67, 0
15, 230271, Note_on_c, 12, 55, 0
15, 230280, Note_on_c, 12, 55, 84
15, 230280, Note_on_c, 12, 67, 84
15, 230331, Note_on_c, 12, 55, 0
15, 230331, Note_on_c, 12, 67, 0
15, 230340, Note_on_c, 12, 55, 84
15, 230340, Note_on_c, 12, 67, 84
15, 230391, Note_on_c, 12, 55, 0
15, 230391, Note_on_c, 12, 67, 0
15, 230400, Note_on_c, 12, 67, 84
15, 230400, Note_on_c, 12, 55, 84
15, 230451, Note_on_c, 12, 67, 0
15, 230451, Note_on_c, 12, 55, 0
15, 230460, Note_on_c, 12, 55, 84
15, 230460, Note_on_c, 12, 67, 84
15, 230511, Note_on_c, 12, 55, 0
15, 230511, Note_on_c, 12, 67, 0
15, 230520, Note_on_c, 12, 67, 84
15, 230520, Note_on_c, 12, 55, 84
15, 230571, Note_on_c, 12, 67, 0
15, 230571, Note_on_c, 12, 55, 0
15, 230580, Note_on_c, 12, 67, 84
15, 230580, Note_on_c, 12, 55, 84
15, 230631, Note_on_c, 12, 67, 0
15, 230631, Note_on_c, 12, 55, 0
15, 230640, Note_on_c, 12, 55, 84
15, 230640, Note_on_c, 12, 67, 84
15, 230691, Note_on_c, 12, 55, 0
15, 230691, Note_on_c, 12, 67, 0
15, 230700, Note_on_c, 12, 55, 84
15, 230700, Note_on_c, 12, 67, 84
15, 230751, Note_on_c, 12, 55, 0
15, 230751, Note_on_c, 12, 67, 0
15, 230760, Note_on_c, 12, 55, 84
15, 230760, Note_on_c, 12, 67, 84
15, 230811, Note_on_c, 12, 55, 0
15, 230811, Note_on_c, 12, 67, 0
15, 230820, Note_on_c, 12, 55, 84
15, 230820, Note_on_c, 12, 67, 84
15, 230871, Note_on_c, 12, 55, 0
15, 230871, Note_on_c, 12, 67, 0
15, 230880, Note_on_c, 12, 60, 92
15, 230931, Note_on_c, 12, 60, 0
15, 230940, Note_on_c, 12, 60, 84
15, 230991, Note_on_c, 12, 60, 0
15, 231000, Note_on_c, 12, 60, 84
15, 231051, Note_on_c, 12, 60, 0
15, 231060, Note_on_c, 12, 60, 84
15, 231111, Note_on_c, 12, 60, 0
15, 231120, Note_on_c, 12, 60, 84
15, 231171, Note_on_c, 12, 60, 0
15, 231180, Note_on_c, 12, 60, 84
15, 231231, Note_on_c, 12, 60, 0
15, 231240, Note_on_c, 12, 60, 84
15, 231291, Note_on_c, 12, 60, 0
15, 231300, Note_on_c, 12, 60, 84
15, 231351, Note_on_c, 12, 60, 0
15, 231360, Note_on_c, 12, 55, 92
15, 231360, Note_on_c, 12, 67, 92
15, 231411, Note_on_c, 12, 55, 0
15, 231411, Note_on_c, 12, 67, 0
15, 231420, Note_on_c, 12, 67, 84
15, 231420, Note_on_c, 12, 55, 84
15, 231471, Note_on_c, 12, 67, 0
15, 231471, Note_on_c, 12, 55, 0
15, 231480, Note_on_c, 12, 67, 84
15, 231480, Note_on_c, 12, 55, 84
15, 231531, Note_on_c, 12, 67, 0
15, 231531, Note_on_c, 12, 55, 0
15, 231540, Note_on_c, 12, 55, 84
15, 231540, Note_on_c, 12, 67, 84
15, 231591, Note_on_c, 12, 55, 0
15, 231591, Note_on_c, 12, 67, 0
15, 231600, Note_on_c, 12, 67, 84
15, 231600, Note_on_c, 12, 55, 84
15, 231651, Note_on_c, 12, 67, 0
15, 231651, Note_on_c, 12, 55, 0
15, 231660, Note_on_c, 12, 55, 84
15, 231660, Note_on_c, 12, 67, 84
15, 231711, Note_on_c, 12, 55, 0
15, 231711, Note_on_c, 12, 67, 0
15, 231720, Note_on_c, 12, 55, 84
15, 231720, Note_on_c, 12, 67, 84
15, 231771, Note_on_c, 12, 55, 0
15, 231771, Note_on_c, 12, 67, 0
15, 231780, Note_on_c, 12, 67, 84
15, 231780, Note_on_c, 12, 55, 84
15, 231831, Note_on_c, 12, 67, 0
15, 231831, Note_on_c, 12, 55, 0
15, 231840, Note_on_c, 12, 60, 92
15, 231891, Note_on_c, 12, 60, 0
15, 231900, Note_on_c, 12, 60, 84
15, 231951, Note_on_c, 12, 60, 0
15, 231960, Note_on_c, 12, 60, 84
15, 232011, Note_on_c, 12, 60, 0
15, 232020, Note_on_c, 12, 60, 84
15, 232071, Note_on_c, 12, 60, 0
15, 232080, Note_on_c, 12, 60, 84
15, 232131, Note_on_c, 12, 60, 0
15, 232140, Note_on_c, 12, 60, 84
15, 232191, Note_on_c, 12, 60, 0
15, 232200, Note_on_c, 12, 60, 84
15, 232251, Note_on_c, 12, 60, 0
15, 232260, Note_on_c, 12, 60, 84
15, 232311, Note_on_c, 12, 60, 0
15, 232320, Note_on_c, 12, 55, 92
15, 232320, Note_on_c, 12, 67, 92
15, 232371, Note_on_c, 12, 55, 0
15, 232371, Note_on_c, 12, 67, 0
15, 232380, Note_on_c, 12, 55, 84
15, 232380, Note_on_c, 12, 67, 84
15, 232431, Note_on_c, 12, 55, 0
15, 232431, Note_on_c, 12, 67, 0
15, 232440, Note_on_c, 12, 67, 84
15, 232440, Note_on_c, 12, 55, 84
15, 232491, Note_on_c, 12, 67, 0
15, 232491, Note_on_c, 12, 55, 0
15, 232500, Note_on_c, 12, 67, 84
15, 232500, Note_on_c, 12, 55, 84
15, 232551, Note_on_c, 12, 67, 0
15, 232551, Note_on_c, 12, 55, 0
15, 232560, Note_on_c, 12, 55, 84
15, 232560, Note_on_c, 12, 67, 84
15, 232611, Note_on_c, 12, 55, 0
15, 232611, Note_on_c, 12, 67, 0
15, 232620, Note_on_c, 12, 67, 84
15, 232620, Note_on_c, 12, 55, 84
15, 232671, Note_on_c, 12, 67, 0
15, 232671, Note_on_c, 12, 55, 0
15, 232680, Note_on_c, 12, 55, 84
15, 232680, Note_on_c, 12, 67, 84
15, 232731, Note_on_c, 12, 55, 0
15, 232731, Note_on_c, 12, 67, 0
15, 232740, Note_on_c, 12, 55, 84
15, 232740, Note_on_c, 12, 67, 84
15, 232791, Note_on_c, 12, 55, 0
15, 232791, Note_on_c, 12, 67, 0
15, 232800, Note_on_c, 12, 67, 84
15, 232800, Note_on_c, 12, 55, 84
15, 232851, Note_on_c, 12, 67, 0
15, 232851, Note_on_c, 12, 55, 0
15, 232860, Note_on_c, 12, 67, 84
15, 232860, Note_on_c, 12, 55, 84
15, 232911, Note_on_c, 12, 67, 0
15, 232911, Note_on_c, 12, 55, 0
15, 232920, Note_on_c, 12, 55, 84
15, 232920, Note_on_c, 12, 67, 84
15, 232971, Note_on_c, 12, 55, 0
15, 232971, Note_on_c, 12, 67, 0
15, 232980, Note_on_c, 12, 55, 84
15, 232980, Note_on_c, 12, 67, 84
15, 233031, Note_on_c, 12, 55, 0
15, 233031, Note_on_c, 12, 67, 0
15, 233040, Note_on_c, 12, 67, 84
15, 233040, Note_on_c, 12, 55, 84
15, 233091, Note_on_c, 12, 67, 0
15, 233091, Note_on_c, 12, 55, 0
15, 233100, Note_on_c, 12, 67, 84
15, 233100, Note_on_c, 12, 55, 84
15, 233151, Note_on_c, 12, 67, 0
15, 233151, Note_on_c, 12, 55, 0
15, 233160, Note_on_c, 12, 55, 84
15, 233160, Note_on_c, 12, 67, 84
15, 233211, Note_on_c, 12, 55, 0
15, 233211, Note_on_c, 12, 67, 0
15, 233220, Note_on_c, 12, 67, 84
15, 233220, Note_on_c, 12, 55, 84
15, 233271, Note_on_c, 12, 67, 0
15, 233271, Note_on_c, 12, 55, 0
15, 233280, Note_on_c, 12, 55, 84
15, 233280, Note_on_c, 12, 67, 84
15, 233331, Note_on_c, 12, 55, 0
15, 233331, Note_on_c, 12, 67, 0
15, 233340, Note_on_c, 12, 55, 84
15, 233340, Note_on_c, 12, 67, 84
15, 233391, Note_on_c, 12, 55, 0
15, 233391, Note_on_c, 12, 67, 0
15, 233400, Note_on_c, 12, 55, 84
15, 233400, Note_on_c, 12, 67, 84
15, 233451, Note_on_c, 12, 55, 0
15, 233451, Note_on_c, 12, 67, 0
15, 233460, Note_on_c, 12, 55, 84
15, 233460, Note_on_c, 12, 67, 84
15, 233511, Note_on_c, 12, 55, 0
15, 233511, Note_on_c, 12, 67, 0
15, 233520, Note_on_c, 12, 67, 84
15, 233520, Note_on_c, 12, 55, 84
15, 233571, Note_on_c, 12, 67, 0
15, 233571, Note_on_c, 12, 55, 0
15, 233580, Note_on_c, 12, 55, 84
15, 233580, Note_on_c, 12, 67, 84
15, 233631, Note_on_c, 12, 55, 0
15, 233631, Note_on_c, 12, 67, 0
15, 233640, Note_on_c, 12, 67, 84
15, 233640, Note_on_c, 12, 55, 84
15, 233691, Note_on_c, 12, 67, 0
15, 233691, Note_on_c, 12, 55, 0
15, 233700, Note_on_c, 12, 55, 84
15, 233700, Note_on_c, 12, 67, 84
15, 233751, Note_on_c, 12, 55, 0
15, 233751, Note_on_c, 12, 67, 0
15, 233760, Note_on_c, 12, 60, 92
15, 233811, Note_on_c, 12, 60, 0
15, 233820, Note_on_c, 12, 60, 84
15, 233871, Note_on_c, 12, 60, 0
15, 233880, Note_on_c, 12, 60, 84
15, 233931, Note_on_c, 12, 60, 0
15, 233940, Note_on_c, 12, 60, 84
15, 233991, Note_on_c, 12, 60, 0
15, 234000, Note_on_c, 12, 60, 84
15, 234051, Note_on_c, 12, 60, 0
15, 234060, Note_on_c, 12, 60, 84
15, 234111, Note_on_c, 12, 60, 0
15, 234120, Note_on_c, 12, 60, 84
15, 234171, Note_on_c, 12, 60, 0
15, 234180, Note_on_c, 12, 60, 84
15, 234231, Note_on_c, 12, 60, 0
15, 234240, Note_on_c, 12, 55, 92
15, 234240, Note_on_c, 12, 67, 92
15, 234291, Note_on_c, 12, 55, 0
15, 234291, Note_on_c, 12, 67, 0
15, 234300, Note_on_c, 12, 55, 84
15, 234300, Note_on_c, 12, 67, 84
15, 234351, Note_on_c, 12, 55, 0
15, 234351, Note_on_c, 12, 67, 0
15, 234360, Note_on_c, 12, 67, 84
15, 234360, Note_on_c, 12, 55, 84
15, 234411, Note_on_c, 12, 67, 0
15, 234411, Note_on_c, 12, 55, 0
15, 234420, Note_on_c, 12, 67, 84
15, 234420, Note_on_c, 12, 55, 84
15, 234471, Note_on_c, 12, 67, 0
15, 234471, Note_on_c, 12, 55, 0
15, 234480, Note_on_c, 12, 55, 84
15, 234480, Note_on_c, 12, 67, 84
15, 234531, Note_on_c, 12, 55, 0
15, 234531, Note_on_c, 12, 67, 0
15, 234540, Note_on_c, 12, 67, 84
15, 234540, Note_on_c, 12, 55, 84
15, 234591, Note_on_c, 12, 67, 0
15, 234591, Note_on_c, 12, 55, 0
15, 234600, Note_on_c, 12, 67, 84
15, 234600, Note_on_c, 12, 55, 84
15, 234651, Note_on_c, 12, 67, 0
15, 234651, Note_on_c, 12, 55, 0
15, 234660, Note_on_c, 12, 67, 84
15, 234660, Note_on_c, 12, 55, 84
15, 234711, Note_on_c, 12, 67, 0
15, 234711, Note_on_c, 12, 55, 0
15, 234720, Note_on_c, 12, 48, 92
15, 234720, Note_on_c, 12, 60, 92
15, 234771, Note_on_c, 12, 48, 0
15, 234771, Note_on_c, 12, 60, 0
15, 234780, Note_on_c, 12, 60, 84
15, 234780, Note_on_c, 12, 48, 84
15, 234831, Note_on_c, 12, 60, 0
15, 234831, Note_on_c, 12, 48, 0
15, 234840, Note_on_c, 12, 60, 84
15, 234840, Note_on_c, 12, 48, 84
15, 234891, Note_on_c, 12, 60, 0
15, 234891, Note_on_c, 12, 48, 0
15, 234900, Note_on_c, 12, 60, 84
15, 234900, Note_on_c, 12, 48, 84
15, 234951, Note_on_c, 12, 60, 0
15, 234951, Note_on_c, 12, 48, 0
15, 234960, Note_on_c, 12, 60, 84
15, 234960, Note_on_c, 12, 48, 84
15, 235011, Note_on_c, 12, 60, 0
15, 235011, Note_on_c, 12, 48, 0
15, 235020, Note_on_c, 12, 48, 84
15, 235020, Note_on_c, 12, 60, 84
15, 235071, Note_on_c, 12, 48, 0
15, 235071, Note_on_c, 12, 60, 0
15, 235080, Note_on_c, 12, 60, 84
15, 235080, Note_on_c, 12, 48, 84
15, 235131, Note_on_c, 12, 60, 0
15, 235131, Note_on_c, 12, 48, 0
15, 235140, Note_on_c, 12, 48, 84
15, 235140, Note_on_c, 12, 60, 84
15, 235191, Note_on_c, 12, 48, 0
15, 235191, Note_on_c, 12, 60, 0
15, 235200, Note_on_c, 12, 60, 92
15, 235200, Note_on_c, 12, 48, 92
15, 235251, Note_on_c, 12, 60, 0
15, 235251, Note_on_c, 12, 48, 0
15, 235260, Note_on_c, 12, 60, 84
15, 235260, Note_on_c, 12, 48, 84
15, 235311, Note_on_c, 12, 60, 0
15, 235311, Note_on_c, 12, 48, 0
15, 235320, Note_on_c, 12, 48, 84
15, 235320, Note_on_c, 12, 60, 84
15, 235371, Note_on_c, 12, 48, 0
15, 235371, Note_on_c, 12, 60, 0
15, 235380, Note_on_c, 12, 60, 84
15, 235380, Note_on_c, 12, 48, 84
15, 235431, Note_on_c, 12, 60, 0
15, 235431, Note_on_c, 12, 48, 0
15, 235440, Note_on_c, 12, 48, 84
15, 235440, Note_on_c, 12, 60, 84
15, 235491, Note_on_c, 12, 48, 0
15, 235491, Note_on_c, 12, 60, 0
15, 235500, Note_on_c, 12, 60, 84
15, 235500, Note_on_c, 12, 48, 84
15, 235551, Note_on_c, 12, 60, 0
15, 235551, Note_on_c, 12, 48, 0
15, 235560, Note_on_c, 12, 60, 84
15, 235560, Note_on_c, 12, 48, 84
15, 235611, Note_on_c, 12, 60, 0
15, 235611, Note_on_c, 12, 48, 0
15, 235620, Note_on_c, 12, 60, 84
15, 235620, Note_on_c, 12, 48, 84
15, 235671, Note_on_c, 12, 60, 0
15, 235671, Note_on_c, 12, 48, 0
15, 235680, Note_on_c, 12, 61, 92
15, 235731, Note_on_c, 12, 61, 0
15, 235740, Note_on_c, 12, 64, 84
15, 235791, Note_on_c, 12, 64, 0
15, 235800, Note_on_c, 12, 64, 84
15, 235851, Note_on_c, 12, 64, 0
15, 235860, Note_on_c, 12, 64, 84
15, 235911, Note_on_c, 12, 64, 0
15, 235920, Note_on_c, 12, 64, 84
15, 235971, Note_on_c, 12, 64, 0
15, 235980, Note_on_c, 12, 64, 84
15, 236031, Note_on_c, 12, 64, 0
15, 236040, Note_on_c, 12, 64, 84
15, 236091, Note_on_c, 12, 64, 0
15, 236100, Note_on_c, 12, 64, 84
15, 236151, Note_on_c, 12, 64, 0
15, 236160, Note_on_c, 12, 64, 92
15, 236211, Note_on_c, 12, 64, 0
15, 236220, Note_on_c, 12, 64, 84
15, 236271, Note_on_c, 12, 64, 0
15, 236280, Note_on_c, 12, 64, 84
15, 236331, Note_on_c, 12, 64, 0
15, 236340, Note_on_c, 12, 64, 84
15, 236391, Note_on_c, 12, 64, 0
15, 236400, Note_on_c, 12, 64, 84
15, 236451, Note_on_c, 12, 64, 0
15, 236460, Note_on_c, 12, 64, 84
15, 236511, Note_on_c, 12, 64, 0
15, 236520, Note_on_c, 12, 64, 84
15, 236571, Note_on_c, 12, 64, 0
15, 236580, Note_on_c, 12, 64, 84
15, 236631, Note_on_c, 12, 64, 0
15, 236640, Note_on_c, 12, 61, 84
15, 236684, Note_on_c, 12, 61, 0
15, 236700, Note_on_c, 12, 61, 84
15, 236759, Note_on_c, 12, 61, 0
15, 236760, Note_on_c, 12, 62, 84
15, 236819, Note_on_c, 12, 62, 0
15, 236820, Note_on_c, 12, 64, 84
15, 236879, Note_on_c, 12, 64, 0
15, 236880, Note_on_c, 12, 67, 92
15, 236939, Note_on_c, 12, 67, 0
15, 236940, Note_on_c, 12, 65, 84
15, 236999, Note_on_c, 12, 65, 0
15, 237000, Note_on_c, 12, 64, 84
15, 237059, Note_on_c, 12, 64, 0
15, 237060, Note_on_c, 12, 62, 84
15, 237111, Note_on_c, 12, 62, 0
15, 237120, Note_on_c, 12, 67, 84
15, 237179, Note_on_c, 12, 67, 0
15, 237180, Note_on_c, 12, 65, 84
15, 237239, Note_on_c, 12, 65, 0
15, 237240, Note_on_c, 12, 64, 84
15, 237299, Note_on_c, 12, 64, 0
15, 237300, Note_on_c, 12, 62, 84
15, 237351, Note_on_c, 12, 62, 0
15, 237360, Note_on_c, 12, 67, 84
15, 237419, Note_on_c, 12, 67, 0
15, 237420, Note_on_c, 12, 65, 84
15, 237479, Note_on_c, 12, 65, 0
15, 237480, Note_on_c, 12, 64, 84
15, 237539, Note_on_c, 12, 64, 0
15, 237540, Note_on_c, 12, 62, 84
15, 237591, Note_on_c, 12, 62, 0
15, 237600, Note_on_c, 12, 61, 84
15, 237644, Note_on_c, 12, 61, 0
15, 237660, Note_on_c, 12, 61, 84
15, 237719, Note_on_c, 12, 61, 0
15, 237720, Note_on_c, 12, 62, 84
15, 237779, Note_on_c, 12, 62, 0
15, 237780, Note_on_c, 12, 64, 84
15, 237839, Note_on_c, 12, 64, 0
15, 237840, Note_on_c, 12, 67, 92
15, 237899, Note_on_c, 12, 67, 0
15, 237900, Note_on_c, 12, 65, 84
15, 237959, Note_on_c, 12, 65, 0
15, 237960, Note_on_c, 12, 64, 84
15, 238019, Note_on_c, 12, 64, 0
15, 238020, Note_on_c, 12, 62, 84
15, 238071, Note_on_c, 12, 62, 0
15, 238080, Note_on_c, 12, 67, 84
15, 238139, Note_on_c, 12, 67, 0
15, 238140, Note_on_c, 12, 65, 84
15, 238199, Note_on_c, 12, 65, 0
15, 238200, Note_on_c, 12, 64, 84
15, 238259, Note_on_c, 12, 64, 0
15, 238260, Note_on_c, 12, 62, 84
15, 238311, Note_on_c, 12, 62, 0
15, 238320, Note_on_c, 12, 67, 84
15, 238379, Note_on_c, 12, 67, 0
15, 238380, Note_on_c, 12, 65, 84
15, 238439, Note_on_c, 12, 65, 0
15, 238440, Note_on_c, 12, 64, 84
15, 238499, Note_on_c, 12, 64, 0
15, 238500, Note_on_c, 12, 62, 84
15, 238551, Note_on_c, 12, 62, 0
15, 238560, Note_on_c, 12, 61, 84
15, 238604, Note_on_c, 12, 61, 0
15, 238620, Note_on_c, 12, 61, 84
15, 238679, Note_on_c, 12, 61, 0
15, 238680, Note_on_c, 12, 62, 84
15, 238739, Note_on_c, 12, 62, 0
15, 238740, Note_on_c, 12, 64, 84
15, 238799, Note_on_c, 12, 64, 0
15, 238800, Note_on_c, 12, 67, 92
15, 238859, Note_on_c, 12, 67, 0
15, 238860, Note_on_c, 12, 65, 84
15, 238919, Note_on_c, 12, 65, 0
15, 238920, Note_on_c, 12, 64, 84
15, 238979, Note_on_c, 12, 64, 0
15, 238980, Note_on_c, 12, 62, 84
15, 239031, Note_on_c, 12, 62, 0
15, 239040, Note_on_c, 12, 61, 84
15, 239084, Note_on_c, 12, 61, 0
15, 239100, Note_on_c, 12, 61, 84
15, 239159, Note_on_c, 12, 61, 0
15, 239160, Note_on_c, 12, 62, 84
15, 239219, Note_on_c, 12, 62, 0
15, 239220, Note_on_c, 12, 64, 84
15, 239279, Note_on_c, 12, 64, 0
15, 239280, Note_on_c, 12, 67, 92
15, 239339, Note_on_c, 12, 67, 0
15, 239340, Note_on_c, 12, 65, 84
15, 239399, Note_on_c, 12, 65, 0
15, 239400, Note_on_c, 12, 64, 84
15, 239459, Note_on_c, 12, 64, 0
15, 239460, Note_on_c, 12, 62, 84
15, 239511, Note_on_c, 12, 62, 0
15, 239520, Note_on_c, 12, 61, 84
15, 239564, Note_on_c, 12, 61, 0
15, 239580, Note_on_c, 12, 61, 84
15, 239639, Note_on_c, 12, 61, 0
15, 239640, Note_on_c, 12, 62, 84
15, 239699, Note_on_c, 12, 62, 0
15, 239700, Note_on_c, 12, 64, 84
15, 239759, Note_on_c, 12, 64, 0
15, 239760, Note_on_c, 12, 67, 92
15, 239819, Note_on_c, 12, 67, 0
15, 239820, Note_on_c, 12, 65, 84
15, 239879, Note_on_c, 12, 65, 0
15, 239880, Note_on_c, 12, 64, 84
15, 239939, Note_on_c, 12, 64, 0
15, 239940, Note_on_c, 12, 62, 84
15, 239991, Note_on_c, 12, 62, 0
15, 240000, Note_on_c, 12, 61, 84
15, 240051, Note_on_c, 12, 61, 0
15, 240060, Note_on_c, 12, 61, 84
15, 240060, Note_on_c, 12, 64, 84
15, 240111, Note_on_c, 12, 61, 0
15, 240111, Note_on_c, 12, 64, 0
15, 240120, Note_on_c, 12, 64, 84
15, 240120, Note_on_c, 12, 61, 84
15, 240171, Note_on_c, 12, 64, 0
15, 240171, Note_on_c, 12, 61, 0
15, 240180, Note_on_c, 12, 64, 84
15, 240180, Note_on_c, 12, 61, 84
15, 240231, Note_on_c, 12, 64, 0
15, 240231, Note_on_c, 12, 61, 0
15, 240240, Note_on_c, 12, 64, 84
15, 240240, Note_on_c, 12, 61, 84
15, 240291, Note_on_c, 12, 64, 0
15, 240291, Note_on_c, 12, 61, 0
15, 240300, Note_on_c, 12, 64, 84
15, 240300, Note_on_c, 12, 61, 84
15, 240351, Note_on_c, 12, 64, 0
15, 240351, Note_on_c, 12, 61, 0
15, 240360, Note_on_c, 12, 61, 84
15, 240360, Note_on_c, 12, 64, 84
15, 240411, Note_on_c, 12, 61, 0
15, 240411, Note_on_c, 12, 64, 0
15, 240420, Note_on_c, 12, 61, 84
15, 240420, Note_on_c, 12, 64, 84
15, 240471, Note_on_c, 12, 61, 0
15, 240471, Note_on_c, 12, 64, 0
15, 240480, Note_on_c, 12, 64, 84
15, 240480, Note_on_c, 12, 61, 84
15, 240599, Note_on_c, 12, 64, 0
15, 240599, Note_on_c, 12, 61, 0
15, 241440, Note_on_c, 12, 57, 84
15, 241440, Note_on_c, 12, 73, 84
15, 241440, Note_on_c, 12, 64, 84
15, 241559, Note_on_c, 12, 57, 0
15, 241559, Note_on_c, 12, 73, 0
15, 241559, Note_on_c, 12, 64, 0
15, 242400, Note_on_c, 12, 73, 84
15, 242400, Note_on_c, 12, 57, 84
15, 242400, Note_on_c, 12, 64, 84
15, 242519, Note_on_c, 12, 73, 0
15, 242519, Note_on_c, 12, 57, 0
15, 242519, Note_on_c, 12, 64, 0
15, 242880, Note_on_c, 12, 57, 84
15, 242880, Note_on_c, 12, 64, 84
15, 242880, Note_on_c, 12, 73, 84
15, 242999, Note_on_c, 12, 57, 0
15, 242999, Note_on_c, 12, 64, 0
15, 242999, Note_on_c, 12, 73, 0
15, 243360, Note_on_c, 12, 57, 84
15, 243360, Note_on_c, 12, 64, 84
15, 243360, Note_on_c, 12, 73, 84
15, 243479, Note_on_c, 12, 57, 0
15, 243479, Note_on_c, 12, 64, 0
15, 243479, Note_on_c, 12, 73, 0
15, 243840, Note_on_c, 12, 64, 84
15, 243840, Note_on_c, 12, 57, 84
15, 243840, Note_on_c, 12, 73, 84
15, 243959, Note_on_c, 12, 64, 0
15, 243959, Note_on_c, 12, 57, 0
15, 243959, Note_on_c, 12, 73, 0
15, 244320, Note_on_c, 12, 58, 84
15, 244439, Note_on_c, 12, 58, 0
15, 245400, Note_on_c, 12, 54, 76
15, 245459, Note_on_c, 12, 54, 0
15, 245460, Note_on_c, 12, 56, 76
15, 245519, Note_on_c, 12, 56, 0
15, 245520, Note_on_c, 12, 59, 76
15, 245579, Note_on_c, 12, 59, 0
15, 245580, Note_on_c, 12, 58, 76
15, 245639, Note_on_c, 12, 58, 0
15, 245640, Note_on_c, 12, 56, 76
15, 245699, Note_on_c, 12, 56, 0
15, 245700, Note_on_c, 12, 58, 76
15, 245751, Note_on_c, 12, 58, 0
15, 245760, Note_on_c, 12, 59, 76
15, 245999, Note_on_c, 12, 59, 0
15, 246000, Note_on_c, 12, 54, 76
15, 246239, Note_on_c, 12, 54, 0
15, 246240, Note_on_c, 12, 54, 76
15, 246359, Note_on_c, 12, 54, 0
15, 247320, Note_on_c, 12, 54, 76
15, 247379, Note_on_c, 12, 54, 0
15, 247380, Note_on_c, 12, 56, 76
15, 247439, Note_on_c, 12, 56, 0
15, 247440, Note_on_c, 12, 59, 76
15, 247499, Note_on_c, 12, 59, 0
15, 247500, Note_on_c, 12, 58, 76
15, 247559, Note_on_c, 12, 58, 0
15, 247560, Note_on_c, 12, 56, 76
15, 247619, Note_on_c, 12, 56, 0
15, 247620, Note_on_c, 12, 58, 76
15, 247671, Note_on_c, 12, 58, 0
15, 247680, Note_on_c, 12, 59, 76
15, 247919, Note_on_c, 12, 59, 0
15, 247920, Note_on_c, 12, 54, 76
15, 248159, Note_on_c, 12, 54, 0
15, 248160, Note_on_c, 12, 54, 76
15, 248279, Note_on_c, 12, 54, 0
15, 248760, Note_on_c, 12, 59, 76
15, 248819, Note_on_c, 12, 59, 0
15, 248820, Note_on_c, 12, 61, 76
15, 248879, Note_on_c, 12, 61, 0
15, 248880, Note_on_c, 12, 64, 76
15, 248939, Note_on_c, 12, 64, 0
15, 248940, Note_on_c, 12, 62, 76
15, 248999, Note_on_c, 12, 62, 0
15, 249000, Note_on_c, 12, 61, 76
15, 249059, Note_on_c, 12, 61, 0
15, 249060, Note_on_c, 12, 59, 76
15, 249111, Note_on_c, 12, 59, 0
15, 249120, Note_on_c, 12, 64, 76
15, 249359, Note_on_c, 12, 64, 0
15, 249360, Note_on_c, 12, 62, 76
15, 249599, Note_on_c, 12, 62, 0
15, 249600, Note_on_c, 12, 61, 76
15, 249839, Note_on_c, 12, 61, 0
15, 249840, Note_on_c, 12, 62, 76
15, 250079, Note_on_c, 12, 62, 0
15, 250080, Note_on_c, 12, 64, 76
15, 250199, Note_on_c, 12, 64, 0
15, 250680, Note_on_c, 12, 59, 76
15, 250739, Note_on_c, 12, 59, 0
15, 250740, Note_on_c, 12, 61, 76
15, 250799, Note_on_c, 12, 61, 0
15, 250800, Note_on_c, 12, 64, 76
15, 250859, Note_on_c, 12, 64, 0
15, 250860, Note_on_c, 12, 62, 76
15, 250919, Note_on_c, 12, 62, 0
15, 250920, Note_on_c, 12, 61, 76
15, 250979, Note_on_c, 12, 61, 0
15, 250980, Note_on_c, 12, 59, 76
15, 251031, Note_on_c, 12, 59, 0
15, 251040, Note_on_c, 12, 64, 76
15, 251279, Note_on_c, 12, 64, 0
15, 251280, Note_on_c, 12, 62, 76
15, 251519, Note_on_c, 12, 62, 0
15, 251520, Note_on_c, 12, 61, 76
15, 251759, Note_on_c, 12, 61, 0
15, 251760, Note_on_c, 12, 64, 76
15, 251984, Note_on_c, 12, 64, 0
15, 252000, Note_on_c, 12, 69, 76
15, 252089, Note_on_c, 12, 69, 0
15, 252120, Note_on_c, 12, 57, 76
15, 252179, Note_on_c, 12, 57, 0
15, 252180, Note_on_c, 12, 59, 76
15, 252239, Note_on_c, 12, 59, 0
15, 252240, Note_on_c, 12, 62, 76
15, 252299, Note_on_c, 12, 62, 0
15, 252300, Note_on_c, 12, 61, 76
15, 252359, Note_on_c, 12, 61, 0
15, 252360, Note_on_c, 12, 59, 76
15, 252419, Note_on_c, 12, 59, 0
15, 252420, Note_on_c, 12, 57, 76
15, 252471, Note_on_c, 12, 57, 0
15, 252480, Note_on_c, 12, 62, 76
15, 252599, Note_on_c, 12, 62, 0
15, 255960, Note_on_c, 12, 48, 76
15, 256019, Note_on_c, 12, 48, 0
15, 256020, Note_on_c, 12, 50, 76
15, 256079, Note_on_c, 12, 50, 0
15, 256080, Note_on_c, 12, 53, 76
15, 256139, Note_on_c, 12, 53, 0
15, 256140, Note_on_c, 12, 51, 76
15, 256199, Note_on_c, 12, 51, 0
15, 256200, Note_on_c, 12, 50, 76
15, 256259, Note_on_c, 12, 50, 0
15, 256260, Note_on_c, 12, 48, 76
15, 256319, Note_on_c, 12, 48, 0
15, 256320, Note_on_c, 12, 55, 76
15, 256409, Note_on_c, 12, 55, 0
15, 256920, Note_on_c, 12, 48, 76
15, 256979, Note_on_c, 12, 48, 0
15, 256980, Note_on_c, 12, 50, 76
15, 257039, Note_on_c, 12, 50, 0
15, 257040, Note_on_c, 12, 53, 76
15, 257099, Note_on_c, 12, 53, 0
15, 257100, Note_on_c, 12, 51, 76
15, 257159, Note_on_c, 12, 51, 0
15, 257160, Note_on_c, 12, 50, 76
15, 257219, Note_on_c, 12, 50, 0
15, 257220, Note_on_c, 12, 48, 76
15, 257279, Note_on_c, 12, 48, 0
15, 257280, Note_on_c, 12, 55, 76
15, 257369, Note_on_c, 12, 55, 0
15, 258840, Note_on_c, 12, 58, 76
15, 258899, Note_on_c, 12, 58, 0
15, 258900, Note_on_c, 12, 60, 76
15, 258959, Note_on_c, 12, 60, 0
15, 258960, Note_on_c, 12, 63, 76
15, 259019, Note_on_c, 12, 63, 0
15, 259020, Note_on_c, 12, 61, 76
15, 259079, Note_on_c, 12, 61, 0
15, 259080, Note_on_c, 12, 60, 76
15, 259139, Note_on_c, 12, 60, 0
15, 259140, Note_on_c, 12, 58, 76
15, 259199, Note_on_c, 12, 58, 0
15, 259200, Note_on_c, 12, 53, 76
15, 259289, Note_on_c, 12, 53, 0
15, 259800, Note_on_c, 12, 58, 76
15, 259859, Note_on_c, 12, 58, 0
15, 259860, Note_on_c, 12, 60, 76
15, 259919, Note_on_c, 12, 60, 0
15, 259920, Note_on_c, 12, 63, 76
15, 259979, Note_on_c, 12, 63, 0
15, 259980, Note_on_c, 12, 61, 76
15, 260039, Note_on_c, 12, 61, 0
15, 260040, Note_on_c, 12, 60, 76
15, 260099, Note_on_c, 12, 60, 0
15, 260100, Note_on_c, 12, 58, 76
15, 260159, Note_on_c, 12, 58, 0
15, 260160, Note_on_c, 12, 53, 76
15, 260249, Note_on_c, 12, 53, 0
15, 261720, Note_on_c, 12, 57, 76
15, 261779, Note_on_c, 12, 57, 0
15, 261780, Note_on_c, 12, 59, 76
15, 261839, Note_on_c, 12, 59, 0
15, 261840, Note_on_c, 12, 62, 76
15, 261899, Note_on_c, 12, 62, 0
15, 261900, Note_on_c, 12, 60, 76
15, 261959, Note_on_c, 12, 60, 0
15, 261960, Note_on_c, 12, 59, 76
15, 262019, Note_on_c, 12, 59, 0
15, 262020, Note_on_c, 12, 57, 76
15, 262079, Note_on_c, 12, 57, 0
15, 262080, Note_on_c, 12, 52, 76
15, 262169, Note_on_c, 12, 52, 0
15, 262680, Note_on_c, 12, 57, 76
15, 262739, Note_on_c, 12, 57, 0
15, 262740, Note_on_c, 12, 59, 76
15, 262799, Note_on_c, 12, 59, 0
15, 262800, Note_on_c, 12, 62, 76
15, 262859, Note_on_c, 12, 62, 0
15, 262860, Note_on_c, 12, 60, 76
15, 262919, Note_on_c, 12, 60, 0
15, 262920, Note_on_c, 12, 59, 76
15, 262979, Note_on_c, 12, 59, 0
15, 262980, Note_on_c, 12, 57, 76
15, 263039, Note_on_c, 12, 57, 0
15, 263040, Note_on_c, 12, 52, 76
15, 263129, Note_on_c, 12, 52, 0
15, 263520, Note_on_c, 12, 52, 76
15, 263759, Note_on_c, 12, 52, 0
15, 263760, Note_on_c, 12, 51, 76
15, 263999, Note_on_c, 12, 51, 0
15, 264000, Note_on_c, 12, 52, 76
15, 264239, Note_on_c, 12, 52, 0
15, 264240, Note_on_c, 12, 51, 76
15, 264464, Note_on_c, 12, 51, 0
15, 264480, Note_on_c, 12, 52, 77
15, 264719, Note_on_c, 12, 52, 0
15, 264720, Note_on_c, 12, 51, 77
15, 264959, Note_on_c, 12, 51, 0
15, 264960, Note_on_c, 12, 52, 77
15, 265199, Note_on_c, 12, 52, 0
15, 265200, Note_on_c, 12, 51, 77
15, 265424, Note_on_c, 12, 51, 0
15, 265440, Note_on_c, 12, 52, 78
15, 265679, Note_on_c, 12, 52, 0
15, 265680, Note_on_c, 12, 51, 78
15, 265919, Note_on_c, 12, 51, 0
15, 265920, Note_on_c, 12, 52, 78
15, 266159, Note_on_c, 12, 52, 0
15, 266160, Note_on_c, 12, 51, 78
15, 266384, Note_on_c, 12, 51, 0
15, 266400, Note_on_c, 12, 52, 79
15, 266639, Note_on_c, 12, 52, 0
15, 266640, Note_on_c, 12, 51, 79
15, 266879, Note_on_c, 12, 51, 0
15, 266880, Note_on_c, 12, 52, 79
15, 267119, Note_on_c, 12, 52, 0
15, 267120, Note_on_c, 12, 51, 79
15, 267344, Note_on_c, 12, 51, 0
15, 267360, Note_on_c, 12, 52, 80
15, 267599, Note_on_c, 12, 52, 0
15, 267600, Note_on_c, 12, 51, 80
15, 267839, Note_on_c, 12, 51, 0
15, 267840, Note_on_c, 12, 52, 80
15, 268079, Note_on_c, 12, 52, 0
15, 268080, Note_on_c, 12, 51, 80
15, 268304, Note_on_c, 12, 51, 0
15, 268320, Note_on_c, 12, 52, 81
15, 268559, Note_on_c, 12, 52, 0
15, 268560, Note_on_c, 12, 51, 81
15, 268799, Note_on_c, 12, 51, 0
15, 268800, Note_on_c, 12, 52, 81
15, 269039, Note_on_c, 12, 52, 0
15, 269040, Note_on_c, 12, 51, 81
15, 269264, Note_on_c, 12, 51, 0
15, 269280, Note_on_c, 12, 52, 82
15, 269519, Note_on_c, 12, 52, 0
15, 269520, Note_on_c, 12, 51, 82
15, 269759, Note_on_c, 12, 51, 0
15, 269760, Note_on_c, 12, 52, 82
15, 269999, Note_on_c, 12, 52, 0
15, 270000, Note_on_c, 12, 51, 82
15, 270224, Note_on_c, 12, 51, 0
15, 270240, Note_on_c, 12, 52, 83
15, 270479, Note_on_c, 12, 52, 0
15, 270480, Note_on_c, 12, 51, 83
15, 270719, Note_on_c, 12, 51, 0
15, 270720, Note_on_c, 12, 52, 83
15, 270959, Note_on_c, 12, 52, 0
15, 270960, Note_on_c, 12, 51, 83
15, 271184, Note_on_c, 12, 51, 0
15, 271200, Note_on_c, 12, 52, 84
15, 271439, Note_on_c, 12, 52, 0
15, 271440, Note_on_c, 12, 51, 84
15, 271679, Note_on_c, 12, 51, 0
15, 271680, Note_on_c, 12, 52, 84
15, 271919, Note_on_c, 12, 52, 0
15, 271920, Note_on_c, 12, 51, 84
15, 272144, Note_on_c, 12, 51, 0
15, 272160, Note_on_c, 12, 52, 84
15, 272399, Note_on_c, 12, 52, 0
15, 272400, Note_on_c, 12, 51, 84
15, 272639, Note_on_c, 12, 51, 0
15, 272640, Note_on_c, 12, 52, 84
15, 272879, Note_on_c, 12, 52, 0
15, 272880, Note_on_c, 12, 51, 84
15, 273104, Note_on_c, 12, 51, 0
15, 273120, Note_on_c, 12, 52, 84
15, 273344, Note_on_c, 12, 52, 0
15, 273360, Note_on_c, 12, 52, 84
15, 273599, Note_on_c, 12, 52, 0
15, 273600, Note_on_c, 12, 64, 84
15, 273839, Note_on_c, 12, 64, 0
15, 273840, Note_on_c, 12, 52, 84
15, 274064, Note_on_c, 12, 52, 0
15, 274080, Note_on_c, 12, 64, 84
15, 274319, Note_on_c, 12, 64, 0
15, 274320, Note_on_c, 12, 52, 84
15, 274559, Note_on_c, 12, 52, 0
15, 274560, Note_on_c, 12, 64, 84
15, 274799, Note_on_c, 12, 64, 0
15, 274800, Note_on_c, 12, 52, 84
15, 275024, Note_on_c, 12, 52, 0
15, 275040, Note_on_c, 12, 52, 84
15, 275279, Note_on_c, 12, 52, 0
15, 275280, Note_on_c, 12, 51, 84
15, 275519, Note_on_c, 12, 51, 0
15, 275520, Note_on_c, 12, 52, 84
15, 275759, Note_on_c, 12, 52, 0
15, 275760, Note_on_c, 12, 51, 84
15, 275984, Note_on_c, 12, 51, 0
15, 276000, Note_on_c, 12, 52, 84
15, 276239, Note_on_c, 12, 52, 0
15, 276240, Note_on_c, 12, 51, 84
15, 276479, Note_on_c, 12, 51, 0
15, 276480, Note_on_c, 12, 52, 84
15, 276719, Note_on_c, 12, 52, 0
15, 276720, Note_on_c, 12, 51, 84
15, 276944, Note_on_c, 12, 51, 0
15, 276960, Note_on_c, 12, 52, 92
15, 277011, Note_on_c, 12, 52, 0
15, 277020, Note_on_c, 12, 57, 84
15, 277020, Note_on_c, 12, 61, 84
15, 277071, Note_on_c, 12, 57, 0
15, 277071, Note_on_c, 12, 61, 0
15, 277080, Note_on_c, 12, 61, 84
15, 277080, Note_on_c, 12, 57, 84
15, 277131, Note_on_c, 12, 61, 0
15, 277131, Note_on_c, 12, 57, 0
15, 277140, Note_on_c, 12, 57, 84
15, 277140, Note_on_c, 12, 61, 84
15, 277191, Note_on_c, 12, 57, 0
15, 277191, Note_on_c, 12, 61, 0
15, 277200, Note_on_c, 12, 57, 84
15, 277200, Note_on_c, 12, 61, 84
15, 277251, Note_on_c, 12, 57, 0
15, 277251, Note_on_c, 12, 61, 0
15, 277260, Note_on_c, 12, 57, 84
15, 277260, Note_on_c, 12, 61, 84
15, 277311, Note_on_c, 12, 57, 0
15, 277311, Note_on_c, 12, 61, 0
15, 277320, Note_on_c, 12, 59, 84
15, 277320, Note_on_c, 12, 62, 84
15, 277371, Note_on_c, 12, 59, 0
15, 277371, Note_on_c, 12, 62, 0
15, 277380, Note_on_c, 12, 59, 84
15, 277380, Note_on_c, 12, 62, 84
15, 277431, Note_on_c, 12, 59, 0
15, 277431, Note_on_c, 12, 62, 0
15, 277440, Note_on_c, 12, 61, 84
15, 277440, Note_on_c, 12, 64, 84
15, 277491, Note_on_c, 12, 61, 0
15, 277491, Note_on_c, 12, 64, 0
15, 277500, Note_on_c, 12, 64, 84
15, 277500, Note_on_c, 12, 61, 84
15, 277551, Note_on_c, 12, 64, 0
15, 277551, Note_on_c, 12, 61, 0
15, 277560, Note_on_c, 12, 61, 84
15, 277560, Note_on_c, 12, 57, 84
15, 277611, Note_on_c, 12, 61, 0
15, 277611, Note_on_c, 12, 57, 0
15, 277620, Note_on_c, 12, 61, 84
15, 277620, Note_on_c, 12, 57, 84
15, 277671, Note_on_c, 12, 61, 0
15, 277671, Note_on_c, 12, 57, 0
15, 277680, Note_on_c, 12, 59, 84
15, 277680, Note_on_c, 12, 62, 84
15, 277731, Note_on_c, 12, 59, 0
15, 277731, Note_on_c, 12, 62, 0
15, 277740, Note_on_c, 12, 62, 84
15, 277740, Note_on_c, 12, 59, 84
15, 277791, Note_on_c, 12, 62, 0
15, 277791, Note_on_c, 12, 59, 0
15, 277800, Note_on_c, 12, 61, 84
15, 277800, Note_on_c, 12, 64, 84
15, 277851, Note_on_c, 12, 61, 0
15, 277851, Note_on_c, 12, 64, 0
15, 277860, Note_on_c, 12, 64, 84
15, 277860, Note_on_c, 12, 61, 84
15, 277911, Note_on_c, 12, 64, 0
15, 277911, Note_on_c, 12, 61, 0
15, 277920, Note_on_c, 12, 56, 84
15, 277920, Note_on_c, 12, 59, 84
15, 277971, Note_on_c, 12, 56, 0
15, 277971, Note_on_c, 12, 59, 0
15, 277980, Note_on_c, 12, 59, 84
15, 277980, Note_on_c, 12, 56, 84
15, 278031, Note_on_c, 12, 59, 0
15, 278031, Note_on_c, 12, 56, 0
15, 278040, Note_on_c, 12, 57, 84
15, 278040, Note_on_c, 12, 61, 84
15, 278091, Note_on_c, 12, 57, 0
15, 278091, Note_on_c, 12, 61, 0
15, 278100, Note_on_c, 12, 61, 84
15, 278100, Note_on_c, 12, 57, 84
15, 278151, Note_on_c, 12, 61, 0
15, 278151, Note_on_c, 12, 57, 0
15, 278160, Note_on_c, 12, 62, 84
15, 278160, Note_on_c, 12, 59, 84
15, 278211, Note_on_c, 12, 62, 0
15, 278211, Note_on_c, 12, 59, 0
15, 278220, Note_on_c, 12, 62, 84
15, 278220, Note_on_c, 12, 59, 84
15, 278271, Note_on_c, 12, 62, 0
15, 278271, Note_on_c, 12, 59, 0
15, 278280, Note_on_c, 12, 61, 84
15, 278280, Note_on_c, 12, 64, 84
15, 278331, Note_on_c, 12, 61, 0
15, 278331, Note_on_c, 12, 64, 0
15, 278340, Note_on_c, 12, 64, 84
15, 278340, Note_on_c, 12, 61, 84
15, 278391, Note_on_c, 12, 64, 0
15, 278391, Note_on_c, 12, 61, 0
15, 278400, Note_on_c, 12, 66, 84
15, 278400, Note_on_c, 12, 62, 84
15, 278451, Note_on_c, 12, 66, 0
15, 278451, Note_on_c, 12, 62, 0
15, 278460, Note_on_c, 12, 66, 84
15, 278460, Note_on_c, 12, 62, 84
15, 278511, Note_on_c, 12, 66, 0
15, 278511, Note_on_c, 12, 62, 0
15, 278520, Note_on_c, 12, 68, 84
15, 278520, Note_on_c, 12, 64, 84
15, 278571, Note_on_c, 12, 68, 0
15, 278571, Note_on_c, 12, 64, 0
15, 278580, Note_on_c, 12, 68, 84
15, 278580, Note_on_c, 12, 64, 84
15, 278631, Note_on_c, 12, 68, 0
15, 278631, Note_on_c, 12, 64, 0
15, 278640, Note_on_c, 12, 69, 84
15, 278640, Note_on_c, 12, 66, 84
15, 278691, Note_on_c, 12, 69, 0
15, 278691, Note_on_c, 12, 66, 0
15, 278700, Note_on_c, 12, 69, 84
15, 278700, Note_on_c, 12, 66, 84
15, 278751, Note_on_c, 12, 69, 0
15, 278751, Note_on_c, 12, 66, 0
15, 278760, Note_on_c, 12, 71, 84
15, 278760, Note_on_c, 12, 68, 84
15, 278811, Note_on_c, 12, 71, 0
15, 278811, Note_on_c, 12, 68, 0
15, 278820, Note_on_c, 12, 71, 84
15, 278820, Note_on_c, 12, 68, 84
15, 278871, Note_on_c, 12, 71, 0
15, 278871, Note_on_c, 12, 68, 0
15, 278880, Note_on_c, 12, 57, 84
15, 278880, Note_on_c, 12, 61, 84
15, 278931, Note_on_c, 12, 57, 0
15, 278931, Note_on_c, 12, 61, 0
15, 278940, Note_on_c, 12, 61, 84
15, 278940, Note_on_c, 12, 57, 84
15, 278991, Note_on_c, 12, 61, 0
15, 278991, Note_on_c, 12, 57, 0
15, 279000, Note_on_c, 12, 62, 84
15, 279000, Note_on_c, 12, 59, 84
15, 279051, Note_on_c, 12, 62, 0
15, 279051, Note_on_c, 12, 59, 0
15, 279060, Note_on_c, 12, 62, 84
15, 279060, Note_on_c, 12, 59, 84
15, 279111, Note_on_c, 12, 62, 0
15, 279111, Note_on_c, 12, 59, 0
15, 279120, Note_on_c, 12, 64, 84
15, 279120, Note_on_c, 12, 61, 84
15, 279171, Note_on_c, 12, 64, 0
15, 279171, Note_on_c, 12, 61, 0
15, 279180, Note_on_c, 12, 61, 84
15, 279180, Note_on_c, 12, 64, 84
15, 279231, Note_on_c, 12, 61, 0
15, 279231, Note_on_c, 12, 64, 0
15, 279240, Note_on_c, 12, 62, 84
15, 279240, Note_on_c, 12, 66, 84
15, 279291, Note_on_c, 12, 62, 0
15, 279291, Note_on_c, 12, 66, 0
15, 279300, Note_on_c, 12, 66, 84
15, 279300, Note_on_c, 12, 62, 84
15, 279351, Note_on_c, 12, 66, 0
15, 279351, Note_on_c, 12, 62, 0
15, 279360, Note_on_c, 12, 64, 84
15, 279360, Note_on_c, 12, 68, 84
15, 279411, Note_on_c, 12, 64, 0
15, 279411, Note_on_c, 12, 68, 0
15, 279420, Note_on_c, 12, 64, 84
15, 279420, Note_on_c, 12, 68, 84
15, 279471, Note_on_c, 12, 64, 0
15, 279471, Note_on_c, 12, 68, 0
15, 279480, Note_on_c, 12, 66, 84
15, 279480, Note_on_c, 12, 69, 84
15, 279531, Note_on_c, 12, 66, 0
15, 279531, Note_on_c, 12, 69, 0
15, 279540, Note_on_c, 12, 69, 84
15, 279540, Note_on_c, 12, 66, 84
15, 279591, Note_on_c, 12, 69, 0
15, 279591, Note_on_c, 12, 66, 0
15, 279600, Note_on_c, 12, 68, 84
15, 279600, Note_on_c, 12, 71, 84
15, 279651, Note_on_c, 12, 68, 0
15, 279651, Note_on_c, 12, 71, 0
15, 279660, Note_on_c, 12, 71, 84
15, 279660, Note_on_c, 12, 68, 84
15, 279711, Note_on_c, 12, 71, 0
15, 279711, Note_on_c, 12, 68, 0
15, 279720, Note_on_c, 12, 73, 84
15, 279720, Note_on_c, 12, 69, 84
15, 279771, Note_on_c, 12, 73, 0
15, 279771, Note_on_c, 12, 69, 0
15, 279780, Note_on_c, 12, 69, 84
15, 279780, Note_on_c, 12, 73, 84
15, 279831, Note_on_c, 12, 69, 0
15, 279831, Note_on_c, 12, 73, 0
15, 279840, Note_on_c, 12, 62, 84
15, 279840, Note_on_c, 12, 59, 84
15, 279891, Note_on_c, 12, 62, 0
15, 279891, Note_on_c, 12, 59, 0
15, 279900, Note_on_c, 12, 62, 84
15, 279900, Note_on_c, 12, 59, 84
15, 279951, Note_on_c, 12, 62, 0
15, 279951, Note_on_c, 12, 59, 0
15, 279960, Note_on_c, 12, 64, 84
15, 279960, Note_on_c, 12, 61, 84
15, 280011, Note_on_c, 12, 64, 0
15, 280011, Note_on_c, 12, 61, 0
15, 280020, Note_on_c, 12, 61, 84
15, 280020, Note_on_c, 12, 64, 84
15, 280071, Note_on_c, 12, 61, 0
15, 280071, Note_on_c, 12, 64, 0
15, 280080, Note_on_c, 12, 66, 84
15, 280080, Note_on_c, 12, 62, 84
15, 280131, Note_on_c, 12, 66, 0
15, 280131, Note_on_c, 12, 62, 0
15, 280140, Note_on_c, 12, 62, 84
15, 280140, Note_on_c, 12, 66, 84
15, 280191, Note_on_c, 12, 62, 0
15, 280191, Note_on_c, 12, 66, 0
15, 280200, Note_on_c, 12, 64, 84
15, 280200, Note_on_c, 12, 68, 84
15, 280251, Note_on_c, 12, 64, 0
15, 280251, Note_on_c, 12, 68, 0
15, 280260, Note_on_c, 12, 68, 84
15, 280260, Note_on_c, 12, 64, 84
15, 280311, Note_on_c, 12, 68, 0
15, 280311, Note_on_c, 12, 64, 0
15, 280320, Note_on_c, 12, 69, 84
15, 280320, Note_on_c, 12, 66, 84
15, 280371, Note_on_c, 12, 69, 0
15, 280371, Note_on_c, 12, 66, 0
15, 280380, Note_on_c, 12, 69, 84
15, 280380, Note_on_c, 12, 66, 84
15, 280431, Note_on_c, 12, 69, 0
15, 280431, Note_on_c, 12, 66, 0
15, 280440, Note_on_c, 12, 71, 84
15, 280440, Note_on_c, 12, 68, 84
15, 280491, Note_on_c, 12, 71, 0
15, 280491, Note_on_c, 12, 68, 0
15, 280500, Note_on_c, 12, 68, 84
15, 280500, Note_on_c, 12, 71, 84
15, 280551, Note_on_c, 12, 68, 0
15, 280551, Note_on_c, 12, 71, 0
15, 280560, Note_on_c, 12, 73, 84
15, 280560, Note_on_c, 12, 69, 84
15, 280611, Note_on_c, 12, 73, 0
15, 280611, Note_on_c, 12, 69, 0
15, 280620, Note_on_c, 12, 73, 84
15, 280620, Note_on_c, 12, 69, 84
15, 280671, Note_on_c, 12, 73, 0
15, 280671, Note_on_c, 12, 69, 0
15, 280680, Note_on_c, 12, 71, 84
15, 280680, Note_on_c, 12, 74, 84
15, 280731, Note_on_c, 12, 71, 0
15, 280731, Note_on_c, 12, 74, 0
15, 280740, Note_on_c, 12, 74, 84
15, 280740, Note_on_c, 12, 71, 84
15, 280791, Note_on_c, 12, 74, 0
15, 280791, Note_on_c, 12, 71, 0
15, 280800, Note_on_c, 12, 61, 84
15, 280800, Note_on_c, 12, 64, 84
15, 280851, Note_on_c, 12, 61, 0
15, 280851, Note_on_c, 12, 64, 0
15, 280860, Note_on_c, 12, 64, 84
15, 280860, Note_on_c, 12, 61, 84
15, 280911, Note_on_c, 12, 64, 0
15, 280911, Note_on_c, 12, 61, 0
15, 280920, Note_on_c, 12, 66, 84
15, 280920, Note_on_c, 12, 62, 84
15, 280971, Note_on_c, 12, 66, 0
15, 280971, Note_on_c, 12, 62, 0
15, 280980, Note_on_c, 12, 66, 84
15, 280980, Note_on_c, 12, 62, 84
15, 281031, Note_on_c, 12, 66, 0
15, 281031, Note_on_c, 12, 62, 0
15, 281040, Note_on_c, 12, 64, 84
15, 281040, Note_on_c, 12, 68, 84
15, 281091, Note_on_c, 12, 64, 0
15, 281091, Note_on_c, 12, 68, 0
15, 281100, Note_on_c, 12, 68, 84
15, 281100, Note_on_c, 12, 64, 84
15, 281151, Note_on_c, 12, 68, 0
15, 281151, Note_on_c, 12, 64, 0
15, 281160, Note_on_c, 12, 66, 84
15, 281160, Note_on_c, 12, 69, 84
15, 281211, Note_on_c, 12, 66, 0
15, 281211, Note_on_c, 12, 69, 0
15, 281220, Note_on_c, 12, 69, 84
15, 281220, Note_on_c, 12, 66, 84
15, 281271, Note_on_c, 12, 69, 0
15, 281271, Note_on_c, 12, 66, 0
15, 281280, Note_on_c, 12, 68, 84
15, 281280, Note_on_c, 12, 71, 84
15, 281331, Note_on_c, 12, 68, 0
15, 281331, Note_on_c, 12, 71, 0
15, 281340, Note_on_c, 12, 68, 84
15, 281340, Note_on_c, 12, 71, 84
15, 281391, Note_on_c, 12, 68, 0
15, 281391, Note_on_c, 12, 71, 0
15, 281400, Note_on_c, 12, 69, 84
15, 281400, Note_on_c, 12, 73, 84
15, 281451, Note_on_c, 12, 69, 0
15, 281451, Note_on_c, 12, 73, 0
15, 281460, Note_on_c, 12, 73, 84
15, 281460, Note_on_c, 12, 69, 84
15, 281511, Note_on_c, 12, 73, 0
15, 281511, Note_on_c, 12, 69, 0
15, 281520, Note_on_c, 12, 71, 84
15, 281520, Note_on_c, 12, 74, 84
15, 281571, Note_on_c, 12, 71, 0
15, 281571, Note_on_c, 12, 74, 0
15, 281580, Note_on_c, 12, 71, 84
15, 281580, Note_on_c, 12, 74, 84
15, 281631, Note_on_c, 12, 71, 0
15, 281631, Note_on_c, 12, 74, 0
15, 281640, Note_on_c, 12, 76, 84
15, 281640, Note_on_c, 12, 73, 84
15, 281691, Note_on_c, 12, 76, 0
15, 281691, Note_on_c, 12, 73, 0
15, 281700, Note_on_c, 12, 76, 84
15, 281700, Note_on_c, 12, 73, 84
15, 281751, Note_on_c, 12, 76, 0
15, 281751, Note_on_c, 12, 73, 0
15, 281760, Note_on_c, 12, 76, 92
15, 281811, Note_on_c, 12, 76, 0
15, 281820, Note_on_c, 12, 76, 92
15, 281871, Note_on_c, 12, 76, 0
15, 281880, Note_on_c, 12, 74, 92
15, 281931, Note_on_c, 12, 74, 0
15, 281940, Note_on_c, 12, 74, 92
15, 281991, Note_on_c, 12, 74, 0
15, 282000, Note_on_c, 12, 73, 92
15, 282051, Note_on_c, 12, 73, 0
15, 282060, Note_on_c, 12, 73, 92
15, 282111, Note_on_c, 12, 73, 0
15, 282120, Note_on_c, 12, 71, 92
15, 282171, Note_on_c, 12, 71, 0
15, 282180, Note_on_c, 12, 71, 92
15, 282231, Note_on_c, 12, 71, 0
15, 282240, Note_on_c, 12, 69, 92
15, 282291, Note_on_c, 12, 69, 0
15, 282300, Note_on_c, 12, 69, 92
15, 282351, Note_on_c, 12, 69, 0
15, 282360, Note_on_c, 12, 67, 92
15, 282411, Note_on_c, 12, 67, 0
15, 282420, Note_on_c, 12, 67, 92
15, 282471, Note_on_c, 12, 67, 0
15, 282480, Note_on_c, 12, 66, 92
15, 282531, Note_on_c, 12, 66, 0
15, 282540, Note_on_c, 12, 66, 92
15, 282591, Note_on_c, 12, 66, 0
15, 282600, Note_on_c, 12, 64, 92
15, 282651, Note_on_c, 12, 64, 0
15, 282660, Note_on_c, 12, 64, 92
15, 282711, Note_on_c, 12, 64, 0
15, 282720, Note_on_c, 12, 62, 92
15, 282771, Note_on_c, 12, 62, 0
15, 282780, Note_on_c, 12, 62, 92
15, 282831, Note_on_c, 12, 62, 0
15, 282840, Note_on_c, 12, 61, 92
15, 282891, Note_on_c, 12, 61, 0
15, 282900, Note_on_c, 12, 61, 92
15, 282951, Note_on_c, 12, 61, 0
15, 282960, Note_on_c, 12, 59, 92
15, 283011, Note_on_c, 12, 59, 0
15, 283020, Note_on_c, 12, 59, 92
15, 283071, Note_on_c, 12, 59, 0
15, 283080, Note_on_c, 12, 57, 92
15, 283131, Note_on_c, 12, 57, 0
15, 283140, Note_on_c, 12, 57, 92
15, 283191, Note_on_c, 12, 57, 0
15, 283200, Note_on_c, 12, 55, 92
15, 283251, Note_on_c, 12, 55, 0
15, 283260, Note_on_c, 12, 55, 92
15, 283311, Note_on_c, 12, 55, 0
15, 283320, Note_on_c, 12, 54, 92
15, 283371, Note_on_c, 12, 54, 0
15, 283380, Note_on_c, 12, 54, 92
15, 283431, Note_on_c, 12, 54, 0
15, 283440, Note_on_c, 12, 52, 92
15, 283491, Note_on_c, 12, 52, 0
15, 283500, Note_on_c, 12, 52, 92
15, 283551, Note_on_c, 12, 52, 0
15, 283560, Note_on_c, 12, 50, 92
15, 283611, Note_on_c, 12, 50, 0
15, 283620, Note_on_c, 12, 50, 92
15, 283671, Note_on_c, 12, 50, 0
15, 283680, Note_on_c, 12, 49, 100
15, 283731, Note_on_c, 12, 49, 0
15, 283740, Note_on_c, 12, 49, 92
15, 283791, Note_on_c, 12, 49, 0
15, 283800, Note_on_c, 12, 61, 92
15, 283851, Note_on_c, 12, 61, 0
15, 283860, Note_on_c, 12, 61, 92
15, 283911, Note_on_c, 12, 61, 0
15, 283920, Note_on_c, 12, 61, 92
15, 283971, Note_on_c, 12, 61, 0
15, 283980, Note_on_c, 12, 61, 92
15, 284031, Note_on_c, 12, 61, 0
15, 284040, Note_on_c, 12, 61, 92
15, 284091, Note_on_c, 12, 61, 0
15, 284100, Note_on_c, 12, 61, 92
15, 284151, Note_on_c, 12, 61, 0
15, 284160, Note_on_c, 12, 62, 100
15, 284211, Note_on_c, 12, 62, 0
15, 284220, Note_on_c, 12, 62, 92
15, 284271, Note_on_c, 12, 62, 0
15, 284280, Note_on_c, 12, 50, 92
15, 284331, Note_on_c, 12, 50, 0
15, 284340, Note_on_c, 12, 50, 92
15, 284391, Note_on_c, 12, 50, 0
15, 284400, Note_on_c, 12, 62, 92
15, 284451, Note_on_c, 12, 62, 0
15, 284460, Note_on_c, 12, 62, 92
15, 284511, Note_on_c, 12, 62, 0
15, 284520, Note_on_c, 12, 62, 92
15, 284571, Note_on_c, 12, 62, 0
15, 284580, Note_on_c, 12, 62, 92
15, 284631, Note_on_c, 12, 62, 0
15, 284640, Note_on_c, 12, 61, 100
15, 284691, Note_on_c, 12, 61, 0
15, 284700, Note_on_c, 12, 61, 92
15, 284751, Note_on_c, 12, 61, 0
15, 284760, Note_on_c, 12, 73, 92
15, 284811, Note_on_c, 12, 73, 0
15, 284820, Note_on_c, 12, 73, 92
15, 284871, Note_on_c, 12, 73, 0
15, 284880, Note_on_c, 12, 73, 92
15, 284931, Note_on_c, 12, 73, 0
15, 284940, Note_on_c, 12, 73, 92
15, 284991, Note_on_c, 12, 73, 0
15, 285000, Note_on_c, 12, 73, 92
15, 285051, Note_on_c, 12, 73, 0
15, 285060, Note_on_c, 12, 73, 92
15, 285111, Note_on_c, 12, 73, 0
15, 285120, Note_on_c, 12, 71, 100
15, 285171, Note_on_c, 12, 71, 0
15, 285180, Note_on_c, 12, 71, 92
15, 285231, Note_on_c, 12, 71, 0
15, 285240, Note_on_c, 12, 59, 92
15, 285291, Note_on_c, 12, 59, 0
15, 285300, Note_on_c, 12, 59, 92
15, 285351, Note_on_c, 12, 59, 0
15, 285360, Note_on_c, 12, 71, 92
15, 285411, Note_on_c, 12, 71, 0
15, 285420, Note_on_c, 12, 71, 92
15, 285471, Note_on_c, 12, 71, 0
15, 285480, Note_on_c, 12, 71, 92
15, 285531, Note_on_c, 12, 71, 0
15, 285540, Note_on_c, 12, 71, 92
15, 285591, Note_on_c, 12, 71, 0
15, 285600, Note_on_c, 12, 64, 52
15, 285651, Note_on_c, 12, 64, 0
15, 285660, Note_on_c, 12, 64, 52
15, 285711, Note_on_c, 12, 64, 0
15, 285720, Note_on_c, 12, 52, 52
15, 285771, Note_on_c, 12, 52, 0
15, 285780, Note_on_c, 12, 52, 52
15, 285831, Note_on_c, 12, 52, 0
15, 285840, Note_on_c, 12, 64, 52
15, 285891, Note_on_c, 12, 64, 0
15, 285900, Note_on_c, 12, 64, 52
15, 285951, Note_on_c, 12, 64, 0
15, 285960, Note_on_c, 12, 52, 52
15, 286011, Note_on_c, 12, 52, 0
15, 286020, Note_on_c, 12, 52, 52
15, 286071, Note_on_c, 12, 52, 0
15, 286080, Note_on_c, 12, 64, 52
15, 286131, Note_on_c, 12, 64, 0
15, 286140, Note_on_c, 12, 64, 52
15, 286191, Note_on_c, 12, 64, 0
15, 286200, Note_on_c, 12, 52, 53
15, 286251, Note_on_c, 12, 52, 0
15, 286260, Note_on_c, 12, 52, 54
15, 286311, Note_on_c, 12, 52, 0
15, 286320, Note_on_c, 12, 64, 54
15, 286371, Note_on_c, 12, 64, 0
15, 286380, Note_on_c, 12, 64, 55
15, 286431, Note_on_c, 12, 64, 0
15, 286440, Note_on_c, 12, 52, 56
15, 286491, Note_on_c, 12, 52, 0
15, 286500, Note_on_c, 12, 52, 57
15, 286551, Note_on_c, 12, 52, 0
15, 286560, Note_on_c, 12, 64, 57
15, 286611, Note_on_c, 12, 64, 0
15, 286620, Note_on_c, 12, 64, 58
15, 286671, Note_on_c, 12, 64, 0
15, 286680, Note_on_c, 12, 52, 59
15, 286731, Note_on_c, 12, 52, 0
15, 286740, Note_on_c, 12, 52, 59
15, 286791, Note_on_c, 12, 52, 0
15, 286800, Note_on_c, 12, 64, 60
15, 286851, Note_on_c, 12, 64, 0
15, 286860, Note_on_c, 12, 64, 61
15, 286911, Note_on_c, 12, 64, 0
15, 286920, Note_on_c, 12, 52, 62
15, 286971, Note_on_c, 12, 52, 0
15, 286980, Note_on_c, 12, 52, 62
15, 287031, Note_on_c, 12, 52, 0
15, 287040, Note_on_c, 12, 64, 63
15, 287091, Note_on_c, 12, 64, 0
15, 287100, Note_on_c, 12, 64, 64
15, 287151, Note_on_c, 12, 64, 0
15, 287160, Note_on_c, 12, 52, 64
15, 287211, Note_on_c, 12, 52, 0
15, 287220, Note_on_c, 12, 52, 65
15, 287271, Note_on_c, 12, 52, 0
15, 287280, Note_on_c, 12, 64, 66
15, 287331, Note_on_c, 12, 64, 0
15, 287340, Note_on_c, 12, 64, 67
15, 287391, Note_on_c, 12, 64, 0
15, 287400, Note_on_c, 12, 52, 67
15, 287451, Note_on_c, 12, 52, 0
15, 287460, Note_on_c, 12, 52, 68
15, 287511, Note_on_c, 12, 52, 0
15, 287520, Note_on_c, 12, 64, 69
15, 287571, Note_on_c, 12, 64, 0
15, 287580, Note_on_c, 12, 64, 69
15, 287631, Note_on_c, 12, 64, 0
15, 287640, Note_on_c, 12, 52, 70
15, 287691, Note_on_c, 12, 52, 0
15, 287700, Note_on_c, 12, 52, 71
15, 287751, Note_on_c, 12, 52, 0
15, 287760, Note_on_c, 12, 64, 72
15, 287811, Note_on_c, 12, 64, 0
15, 287820, Note_on_c, 12, 64, 72
15, 287871, Note_on_c, 12, 64, 0
15, 287880, Note_on_c, 12, 52, 73
15, 287931, Note_on_c, 12, 52, 0
15, 287940, Note_on_c, 12, 52, 74
15, 287991, Note_on_c, 12, 52, 0
15, 288000, Note_on_c, 12, 64, 74
15, 288051, Note_on_c, 12, 64, 0
15, 288060, Note_on_c, 12, 64, 75
15, 288111, Note_on_c, 12, 64, 0
15, 288120, Note_on_c, 12, 52, 76
15, 288171, Note_on_c, 12, 52, 0
15, 288180, Note_on_c, 12, 52, 77
15, 288231, Note_on_c, 12, 52, 0
15, 288240, Note_on_c, 12, 64, 77
15, 288291, Note_on_c, 12, 64, 0
15, 288300, Note_on_c, 12, 64, 78
15, 288351, Note_on_c, 12, 64, 0
15, 288360, Note_on_c, 12, 52, 79
15, 288411, Note_on_c, 12, 52, 0
15, 288420, Note_on_c, 12, 52, 79
15, 288471, Note_on_c, 12, 52, 0
15, 288480, Note_on_c, 12, 64, 80
15, 288531, Note_on_c, 12, 64, 0
15, 288540, Note_on_c, 12, 64, 81
15, 288591, Note_on_c, 12, 64, 0
15, 288600, Note_on_c, 12, 52, 82
15, 288651, Note_on_c, 12, 52, 0
15, 288660, Note_on_c, 12, 52, 82
15, 288711, Note_on_c, 12, 52, 0
15, 288720, Note_on_c, 12, 64, 83
15, 288771, Note_on_c, 12, 64, 0
15, 288780, Note_on_c, 12, 64, 84
15, 288831, Note_on_c, 12, 64, 0
15, 288840, Note_on_c, 12, 52, 84
15, 288891, Note_on_c, 12, 52, 0
15, 288900, Note_on_c, 12, 52, 85
15, 288951, Note_on_c, 12, 52, 0
15, 288960, Note_on_c, 12, 64, 86
15, 289011, Note_on_c, 12, 64, 0
15, 289020, Note_on_c, 12, 64, 87
15, 289071, Note_on_c, 12, 64, 0
15, 289080, Note_on_c, 12, 52, 87
15, 289131, Note_on_c, 12, 52, 0
15, 289140, Note_on_c, 12, 52, 88
15, 289191, Note_on_c, 12, 52, 0
15, 289200, Note_on_c, 12, 64, 89
15, 289251, Note_on_c, 12, 64, 0
15, 289260, Note_on_c, 12, 64, 89
15, 289311, Note_on_c, 12, 64, 0
15, 289320, Note_on_c, 12, 52, 90
15, 289371, Note_on_c, 12, 52, 0
15, 289380, Note_on_c, 12, 52, 91
15, 289431, Note_on_c, 12, 52, 0
15, 289440, Note_on_c, 12, 76, 92
15, 289491, Note_on_c, 12, 76, 0
15, 289500, Note_on_c, 12, 76, 92
15, 289551, Note_on_c, 12, 76, 0
15, 289560, Note_on_c, 12, 74, 92
15, 289611, Note_on_c, 12, 74, 0
15, 289620, Note_on_c, 12, 74, 92
15, 289671, Note_on_c, 12, 74, 0
15, 289680, Note_on_c, 12, 73, 92
15, 289731, Note_on_c, 12, 73, 0
15, 289740, Note_on_c, 12, 73, 92
15, 289791, Note_on_c, 12, 73, 0
15, 289800, Note_on_c, 12, 71, 92
15, 289851, Note_on_c, 12, 71, 0
15, 289860, Note_on_c, 12, 71, 92
15, 289911, Note_on_c, 12, 71, 0
15, 289920, Note_on_c, 12, 69, 92
15, 289971, Note_on_c, 12, 69, 0
15, 289980, Note_on_c, 12, 69, 92
15, 290031, Note_on_c, 12, 69, 0
15, 290040, Note_on_c, 12, 67, 92
15, 290091, Note_on_c, 12, 67, 0
15, 290100, Note_on_c, 12, 67, 92
15, 290151, Note_on_c, 12, 67, 0
15, 290160, Note_on_c, 12, 66, 92
15, 290211, Note_on_c, 12, 66, 0
15, 290220, Note_on_c, 12, 66, 92
15, 290271, Note_on_c, 12, 66, 0
15, 290280, Note_on_c, 12, 64, 92
15, 290331, Note_on_c, 12, 64, 0
15, 290340, Note_on_c, 12, 64, 92
15, 290391, Note_on_c, 12, 64, 0
15, 290400, Note_on_c, 12, 62, 92
15, 290451, Note_on_c, 12, 62, 0
15, 290460, Note_on_c, 12, 62, 92
15, 290511, Note_on_c, 12, 62, 0
15, 290520, Note_on_c, 12, 61, 92
15, 290571, Note_on_c, 12, 61, 0
15, 290580, Note_on_c, 12, 61, 92
15, 290631, Note_on_c, 12, 61, 0
15, 290640, Note_on_c, 12, 59, 92
15, 290691, Note_on_c, 12, 59, 0
15, 290700, Note_on_c, 12, 59, 92
15, 290751, Note_on_c, 12, 59, 0
15, 290760, Note_on_c, 12, 57, 92
15, 290811, Note_on_c, 12, 57, 0
15, 290820, Note_on_c, 12, 57, 92
15, 290871, Note_on_c, 12, 57, 0
15, 290880, Note_on_c, 12, 55, 92
15, 290931, Note_on_c, 12, 55, 0
15, 290940, Note_on_c, 12, 55, 92
15, 290991, Note_on_c, 12, 55, 0
15, 291000, Note_on_c, 12, 54, 92
15, 291051, Note_on_c, 12, 54, 0
15, 291060, Note_on_c, 12, 54, 92
15, 291111, Note_on_c, 12, 54, 0
15, 291120, Note_on_c, 12, 52, 92
15, 291171, Note_on_c, 12, 52, 0
15, 291180, Note_on_c, 12, 52, 92
15, 291231, Note_on_c, 12, 52, 0
15, 291240, Note_on_c, 12, 50, 92
15, 291291, Note_on_c, 12, 50, 0
15, 291300, Note_on_c, 12, 50, 92
15, 291351, Note_on_c, 12, 50, 0
15, 291360, Note_on_c, 12, 49, 100
15, 291411, Note_on_c, 12, 49, 0
15, 291420, Note_on_c, 12, 49, 92
15, 291471, Note_on_c, 12, 49, 0
15, 291480, Note_on_c, 12, 61, 92
15, 291531, Note_on_c, 12, 61, 0
15, 291540, Note_on_c, 12, 61, 92
15, 291591, Note_on_c, 12, 61, 0
15, 291600, Note_on_c, 12, 61, 92
15, 291651, Note_on_c, 12, 61, 0
15, 291660, Note_on_c, 12, 61, 92
15, 291711, Note_on_c, 12, 61, 0
15, 291720, Note_on_c, 12, 61, 92
15, 291771, Note_on_c, 12, 61, 0
15, 291780, Note_on_c, 12, 61, 92
15, 291831, Note_on_c, 12, 61, 0
15, 291840, Note_on_c, 12, 62, 100
15, 291891, Note_on_c, 12, 62, 0
15, 291900, Note_on_c, 12, 62, 92
15, 291951, Note_on_c, 12, 62, 0
15, 291960, Note_on_c, 12, 50, 92
15, 292011, Note_on_c, 12, 50, 0
15, 292020, Note_on_c, 12, 50, 92
15, 292071, Note_on_c, 12, 50, 0
15, 292080, Note_on_c, 12, 62, 92
15, 292131, Note_on_c, 12, 62, 0
15, 292140, Note_on_c, 12, 62, 92
15, 292191, Note_on_c, 12, 62, 0
15, 292200, Note_on_c, 12, 62, 92
15, 292251, Note_on_c, 12, 62, 0
15, 292260, Note_on_c, 12, 62, 92
15, 292311, Note_on_c, 12, 62, 0
15, 292320, Note_on_c, 12, 61, 100
15, 292371, Note_on_c, 12, 61, 0
15, 292380, Note_on_c, 12, 61, 92
15, 292431, Note_on_c, 12, 61, 0
15, 292440, Note_on_c, 12, 73, 92
15, 292491, Note_on_c, 12, 73, 0
15, 292500, Note_on_c, 12, 73, 92
15, 292551, Note_on_c, 12, 73, 0
15, 292560, Note_on_c, 12, 73, 92
15, 292611, Note_on_c, 12, 73, 0
15, 292620, Note_on_c, 12, 73, 92
15, 292671, Note_on_c, 12, 73, 0
15, 292680, Note_on_c, 12, 73, 92
15, 292731, Note_on_c, 12, 73, 0
15, 292740, Note_on_c, 12, 73, 92
15, 292791, Note_on_c, 12, 73, 0
15, 292800, Note_on_c, 12, 71, 100
15, 292851, Note_on_c, 12, 71, 0
15, 292860, Note_on_c, 12, 59, 92
15, 292911, Note_on_c, 12, 59, 0
15, 292920, Note_on_c, 12, 71, 92
15, 292971, Note_on_c, 12, 71, 0
15, 292980, Note_on_c, 12, 71, 92
15, 293031, Note_on_c, 12, 71, 0
15, 293040, Note_on_c, 12, 71, 92
15, 293091, Note_on_c, 12, 71, 0
15, 293100, Note_on_c, 12, 71, 92
15, 293151, Note_on_c, 12, 71, 0
15, 293160, Note_on_c, 12, 71, 92
15, 293211, Note_on_c, 12, 71, 0
15, 293220, Note_on_c, 12, 71, 92
15, 293271, Note_on_c, 12, 71, 0
15, 293280, Note_on_c, 12, 69, 92
15, 293331, Note_on_c, 12, 69, 0
15, 293340, Note_on_c, 12, 57, 92
15, 293391, Note_on_c, 12, 57, 0
15, 293400, Note_on_c, 12, 57, 92
15, 293451, Note_on_c, 12, 57, 0
15, 293460, Note_on_c, 12, 57, 92
15, 293511, Note_on_c, 12, 57, 0
15, 293520, Note_on_c, 12, 57, 92
15, 293571, Note_on_c, 12, 57, 0
15, 293580, Note_on_c, 12, 57, 92
15, 293631, Note_on_c, 12, 57, 0
15, 293640, Note_on_c, 12, 57, 92
15, 293691, Note_on_c, 12, 57, 0
15, 293700, Note_on_c, 12, 57, 92
15, 293751, Note_on_c, 12, 57, 0
15, 293760, Note_on_c, 12, 56, 100
15, 293819, Note_on_c, 12, 56, 0
15, 293820, Note_on_c, 12, 57, 92
15, 293879, Note_on_c, 12, 57, 0
15, 293880, Note_on_c, 12, 59, 92
15, 293939, Note_on_c, 12, 59, 0
15, 293940, Note_on_c, 12, 61, 92
15, 293999, Note_on_c, 12, 61, 0
15, 294000, Note_on_c, 12, 62, 92
15, 294059, Note_on_c, 12, 62, 0
15, 294060, Note_on_c, 12, 64, 92
15, 294119, Note_on_c, 12, 64, 0
15, 294120, Note_on_c, 12, 66, 92
15, 294179, Note_on_c, 12, 66, 0
15, 294180, Note_on_c, 12, 68, 92
15, 294231, Note_on_c, 12, 68, 0
15, 294240, Note_on_c, 12, 69, 92
15, 294291, Note_on_c, 12, 69, 0
15, 294300, Note_on_c, 12, 64, 92
15, 294351, Note_on_c, 12, 64, 0
15, 294360, Note_on_c, 12, 64, 92
15, 294411, Note_on_c, 12, 64, 0
15, 294420, Note_on_c, 12, 64, 92
15, 294471, Note_on_c, 12, 64, 0
15, 294480, Note_on_c, 12, 68, 92
15, 294531, Note_on_c, 12, 68, 0
15, 294540, Note_on_c, 12, 64, 92
15, 294591, Note_on_c, 12, 64, 0
15, 294600, Note_on_c, 12, 64, 92
15, 294651, Note_on_c, 12, 64, 0
15, 294660, Note_on_c, 12, 64, 92
15, 294711, Note_on_c, 12, 64, 0
15, 294720, Note_on_c, 12, 69, 92
15, 294771, Note_on_c, 12, 69, 0
15, 294780, Note_on_c, 12, 64, 92
15, 294831, Note_on_c, 12, 64, 0
15, 294840, Note_on_c, 12, 64, 92
15, 294891, Note_on_c, 12, 64, 0
15, 294900, Note_on_c, 12, 64, 92
15, 294951, Note_on_c, 12, 64, 0
15, 294960, Note_on_c, 12, 68, 92
15, 295011, Note_on_c, 12, 68, 0
15, 295020, Note_on_c, 12, 64, 92
15, 295071, Note_on_c, 12, 64, 0
15, 295080, Note_on_c, 12, 64, 92
15, 295131, Note_on_c, 12, 64, 0
15, 295140, Note_on_c, 12, 64, 92
15, 295191, Note_on_c, 12, 64, 0
15, 295200, Note_on_c, 12, 69, 92
15, 295251, Note_on_c, 12, 69, 0
15, 295260, Note_on_c, 12, 57, 92
15, 295311, Note_on_c, 12, 57, 0
15, 295320, Note_on_c, 12, 57, 92
15, 295371, Note_on_c, 12, 57, 0
15, 295380, Note_on_c, 12, 57, 92
15, 295431, Note_on_c, 12, 57, 0
15, 295440, Note_on_c, 12, 57, 92
15, 295491, Note_on_c, 12, 57, 0
15, 295500, Note_on_c, 12, 57, 92
15, 295551, Note_on_c, 12, 57, 0
15, 295560, Note_on_c, 12, 57, 92
15, 295611, Note_on_c, 12, 57, 0
15, 295620, Note_on_c, 12, 57, 92
15, 295671, Note_on_c, 12, 57, 0
15, 295680, Note_on_c, 12, 56, 100
15, 295739, Note_on_c, 12, 56, 0
15, 295740, Note_on_c, 12, 57, 92
15, 295799, Note_on_c, 12, 57, 0
15, 295800, Note_on_c, 12, 59, 92
15, 295859, Note_on_c, 12, 59, 0
15, 295860, Note_on_c, 12, 61, 92
15, 295919, Note_on_c, 12, 61, 0
15, 295920, Note_on_c, 12, 62, 92
15, 295979, Note_on_c, 12, 62, 0
15, 295980, Note_on_c, 12, 64, 92
15, 296039, Note_on_c, 12, 64, 0
15, 296040, Note_on_c, 12, 66, 92
15, 296099, Note_on_c, 12, 66, 0
15, 296100, Note_on_c, 12, 68, 92
15, 296151, Note_on_c, 12, 68, 0
15, 296160, Note_on_c, 12, 69, 92
15, 296211, Note_on_c, 12, 69, 0
15, 296220, Note_on_c, 12, 64, 92
15, 296271, Note_on_c, 12, 64, 0
15, 296280, Note_on_c, 12, 64, 92
15, 296331, Note_on_c, 12, 64, 0
15, 296340, Note_on_c, 12, 64, 92
15, 296391, Note_on_c, 12, 64, 0
15, 296400, Note_on_c, 12, 68, 92
15, 296451, Note_on_c, 12, 68, 0
15, 296460, Note_on_c, 12, 64, 92
15, 296511, Note_on_c, 12, 64, 0
15, 296520, Note_on_c, 12, 64, 92
15, 296571, Note_on_c, 12, 64, 0
15, 296580, Note_on_c, 12, 64, 92
15, 296631, Note_on_c, 12, 64, 0
15, 296640, Note_on_c, 12, 69, 92
15, 296691, Note_on_c, 12, 69, 0
15, 296700, Note_on_c, 12, 64, 92
15, 296751, Note_on_c, 12, 64, 0
15, 296760, Note_on_c, 12, 64, 92
15, 296811, Note_on_c, 12, 64, 0
15, 296820, Note_on_c, 12, 64, 92
15, 296871, Note_on_c, 12, 64, 0
15, 296880, Note_on_c, 12, 68, 92
15, 296931, Note_on_c, 12, 68, 0
15, 296940, Note_on_c, 12, 64, 92
15, 296991, Note_on_c, 12, 64, 0
15, 297000, Note_on_c, 12, 64, 92
15, 297051, Note_on_c, 12, 64, 0
15, 297060, Note_on_c, 12, 64, 92
15, 297111, Note_on_c, 12, 64, 0
15, 297120, Note_on_c, 12, 68, 84
15, 297171, Note_on_c, 12, 68, 0
15, 297180, Note_on_c, 12, 52, 84
15, 297231, Note_on_c, 12, 52, 0
15, 297240, Note_on_c, 12, 52, 84
15, 297291, Note_on_c, 12, 52, 0
15, 297300, Note_on_c, 12, 52, 84
15, 297351, Note_on_c, 12, 52, 0
15, 297360, Note_on_c, 12, 52, 92
15, 297411, Note_on_c, 12, 52, 0
15, 297420, Note_on_c, 12, 52, 84
15, 297471, Note_on_c, 12, 52, 0
15, 297480, Note_on_c, 12, 52, 84
15, 297531, Note_on_c, 12, 52, 0
15, 297540, Note_on_c, 12, 52, 84
15, 297591, Note_on_c, 12, 52, 0
15, 297600, Note_on_c, 12, 52, 92
15, 297651, Note_on_c, 12, 52, 0
15, 297660, Note_on_c, 12, 52, 84
15, 297711, Note_on_c, 12, 52, 0
15, 297720, Note_on_c, 12, 52, 84
15, 297771, Note_on_c, 12, 52, 0
15, 297780, Note_on_c, 12, 52, 84
15, 297831, Note_on_c, 12, 52, 0
15, 297840, Note_on_c, 12, 52, 92
15, 297891, Note_on_c, 12, 52, 0
15, 297900, Note_on_c, 12, 52, 84
15, 297951, Note_on_c, 12, 52, 0
15, 297960, Note_on_c, 12, 52, 84
15, 298011, Note_on_c, 12, 52, 0
15, 298020, Note_on_c, 12, 52, 84
15, 298071, Note_on_c, 12, 52, 0
15, 298080, Note_on_c, 12, 52, 84
15, 298131, Note_on_c, 12, 52, 0
15, 298140, Note_on_c, 12, 52, 84
15, 298191, Note_on_c, 12, 52, 0
15, 298200, Note_on_c, 12, 52, 84
15, 298251, Note_on_c, 12, 52, 0
15, 298260, Note_on_c, 12, 52, 84
15, 298311, Note_on_c, 12, 52, 0
15, 298320, Note_on_c, 12, 52, 84
15, 298371, Note_on_c, 12, 52, 0
15, 298380, Note_on_c, 12, 52, 84
15, 298431, Note_on_c, 12, 52, 0
15, 298440, Note_on_c, 12, 52, 84
15, 298491, Note_on_c, 12, 52, 0
15, 298500, Note_on_c, 12, 52, 84
15, 298551, Note_on_c, 12, 52, 0
15, 298560, Note_on_c, 12, 52, 84
15, 298611, Note_on_c, 12, 52, 0
15, 298620, Note_on_c, 12, 52, 84
15, 298671, Note_on_c, 12, 52, 0
15, 298680, Note_on_c, 12, 52, 84
15, 298731, Note_on_c, 12, 52, 0
15, 298740, Note_on_c, 12, 52, 84
15, 298791, Note_on_c, 12, 52, 0
15, 298800, Note_on_c, 12, 52, 84
15, 298851, Note_on_c, 12, 52, 0
15, 298860, Note_on_c, 12, 52, 84
15, 298911, Note_on_c, 12, 52, 0
15, 298920, Note_on_c, 12, 52, 84
15, 298971, Note_on_c, 12, 52, 0
15, 298980, Note_on_c, 12, 52, 84
15, 299031, Note_on_c, 12, 52, 0
15, 299040, Note_on_c, 12, 57, 84
15, 299159, Note_on_c, 12, 57, 0
15, 299520, Note_on_c, 12, 69, 84
15, 299520, Note_on_c, 12, 64, 84
15, 299520, Note_on_c, 12, 57, 84
15, 299639, Note_on_c, 12, 69, 0
15, 299639, Note_on_c, 12, 64, 0
15, 299639, Note_on_c, 12, 57, 0
15, 300000, Note_on_c, 12, 57, 84
15, 300119, Note_on_c, 12, 57, 0
15, 300119, End_track
16, 0, Start_track
16, 0, Title_t, "Cello"
16, 0, MIDI_port, 0
16, 0, Control_c, 14, 7, 96
16, 0, Control_c, 14, 10, 94
16, 0, Program_c, 14, 48
16, 0, Control_c, 14, 11, 127
16, 0, Note_on_c, 14, 40, 84
16, 89, Note_on_c, 14, 40, 0
16, 960, Note_on_c, 14, 40, 84
16, 1049, Note_on_c, 14, 40, 0
16, 1920, Note_on_c, 14, 40, 84
16, 2009, Note_on_c, 14, 40, 0
16, 2160, Note_on_c, 14, 40, 92
16, 2399, Note_on_c, 14, 40, 0
16, 2400, Note_on_c, 14, 40, 84
16, 2519, Note_on_c, 14, 40, 0
16, 2640, Note_on_c, 14, 40, 92
16, 2879, Note_on_c, 14, 40, 0
16, 2880, Note_on_c, 14, 40, 84
16, 2999, Note_on_c, 14, 40, 0
16, 3120, Note_on_c, 14, 40, 92
16, 3359, Note_on_c, 14, 40, 0
16, 3360, Note_on_c, 14, 40, 84
16, 3479, Note_on_c, 14, 40, 0
16, 3600, Note_on_c, 14, 40, 92
16, 3839, Note_on_c, 14, 40, 0
16, 3840, Note_on_c, 14, 40, 84
16, 3959, Note_on_c, 14, 40, 0
16, 4080, Note_on_c, 14, 40, 92
16, 4319, Note_on_c, 14, 40, 0
16, 4320, Note_on_c, 14, 40, 84
16, 4439, Note_on_c, 14, 40, 0
16, 4560, Note_on_c, 14, 40, 92
16, 4799, Note_on_c, 14, 40, 0
16, 4800, Note_on_c, 14, 40, 84
16, 4919, Note_on_c, 14, 40, 0
16, 5040, Note_on_c, 14, 40, 92
16, 5279, Note_on_c, 14, 40, 0
16, 5280, Note_on_c, 14, 45, 84
16, 5399, Note_on_c, 14, 45, 0
16, 5760, Note_on_c, 14, 40, 84
16, 5849, Note_on_c, 14, 40, 0
16, 6000, Note_on_c, 14, 40, 92
16, 6239, Note_on_c, 14, 40, 0
16, 6240, Note_on_c, 14, 40, 84
16, 6359, Note_on_c, 14, 40, 0
16, 6480, Note_on_c, 14, 40, 92
16, 6719, Note_on_c, 14, 40, 0
16, 6720, Note_on_c, 14, 40, 84
16, 6839, Note_on_c, 14, 40, 0
16, 6960, Note_on_c, 14, 40, 92
16, 7199, Note_on_c, 14, 40, 0
16, 7200, Note_on_c, 14, 40, 84
16, 7319, Note_on_c, 14, 40, 0
16, 7440, Note_on_c, 14, 40, 92
16, 7679, Note_on_c, 14, 40, 0
16, 7680, Note_on_c, 14, 40, 84
16, 7799, Note_on_c, 14, 40, 0
16, 7920, Note_on_c, 14, 40, 92
16, 8159, Note_on_c, 14, 40, 0
16, 8160, Note_on_c, 14, 40, 84
16, 8279, Note_on_c, 14, 40, 0
16, 8400, Note_on_c, 14, 40, 92
16, 8639, Note_on_c, 14, 40, 0
16, 8640, Note_on_c, 14, 40, 84
16, 8759, Note_on_c, 14, 40, 0
16, 8880, Note_on_c, 14, 40, 92
16, 9119, Note_on_c, 14, 40, 0
16, 9120, Note_on_c, 14, 45, 84
16, 9239, Note_on_c, 14, 45, 0
16, 9600, Note_on_c, 14, 38, 84
16, 9719, Note_on_c, 14, 38, 0
16, 9840, Note_on_c, 14, 38, 92
16, 10079, Note_on_c, 14, 38, 0
16, 10080, Note_on_c, 14, 37, 84
16, 10199, Note_on_c, 14, 37, 0
16, 10320, Note_on_c, 14, 37, 92
16, 10559, Note_on_c, 14, 37, 0
16, 10560, Note_on_c, 14, 38, 84
16, 10679, Note_on_c, 14, 38, 0
16, 10800, Note_on_c, 14, 38, 92
16, 11039, Note_on_c, 14, 38, 0
16, 11040, Note_on_c, 14, 37, 84
16, 11159, Note_on_c, 14, 37, 0
16, 11280, Note_on_c, 14, 42, 92
16, 11519, Note_on_c, 14, 42, 0
16, 11520, Note_on_c, 14, 47, 84
16, 11639, Note_on_c, 14, 47, 0
16, 11760, Note_on_c, 14, 40, 92
16, 11999, Note_on_c, 14, 40, 0
16, 12000, Note_on_c, 14, 45, 84
16, 12119, Note_on_c, 14, 45, 0
16, 12240, Note_on_c, 14, 37, 92
16, 12479, Note_on_c, 14, 37, 0
16, 12480, Note_on_c, 14, 40, 84
16, 12599, Note_on_c, 14, 40, 0
16, 12720, Note_on_c, 14, 40, 92
16, 12959, Note_on_c, 14, 40, 0
16, 12960, Note_on_c, 14, 45, 84
16, 13079, Note_on_c, 14, 45, 0
16, 13440, Note_on_c, 14, 38, 84
16, 13559, Note_on_c, 14, 38, 0
16, 13680, Note_on_c, 14, 38, 92
16, 13919, Note_on_c, 14, 38, 0
16, 13920, Note_on_c, 14, 37, 84
16, 14039, Note_on_c, 14, 37, 0
16, 14160, Note_on_c, 14, 37, 92
16, 14399, Note_on_c, 14, 37, 0
16, 14400, Note_on_c, 14, 38, 84
16, 14519, Note_on_c, 14, 38, 0
16, 14640, Note_on_c, 14, 38, 92
16, 14879, Note_on_c, 14, 38, 0
16, 14880, Note_on_c, 14, 37, 84
16, 14999, Note_on_c, 14, 37, 0
16, 15120, Note_on_c, 14, 42, 92
16, 15359, Note_on_c, 14, 42, 0
16, 15360, Note_on_c, 14, 47, 84
16, 15479, Note_on_c, 14, 47, 0
16, 15600, Note_on_c, 14, 40, 92
16, 15839, Note_on_c, 14, 40, 0
16, 15840, Note_on_c, 14, 45, 84
16, 15959, Note_on_c, 14, 45, 0
16, 16080, Note_on_c, 14, 37, 92
16, 16319, Note_on_c, 14, 37, 0
16, 16320, Note_on_c, 14, 40, 84
16, 16439, Note_on_c, 14, 40, 0
16, 16560, Note_on_c, 14, 40, 92
16, 16799, Note_on_c, 14, 40, 0
16, 16800, Note_on_c, 14, 45, 84
16, 16919, Note_on_c, 14, 45, 0
16, 17280, Note_on_c, 14, 45, 84
16, 17399, Note_on_c, 14, 45, 0
16, 17760, Note_on_c, 14, 40, 84
16, 17879, Note_on_c, 14, 40, 0
16, 18240, Note_on_c, 14, 40, 84
16, 18359, Note_on_c, 14, 40, 0
16, 18720, Note_on_c, 14, 45, 84
16, 18839, Note_on_c, 14, 45, 0
16, 18960, Note_on_c, 14, 45, 84
16, 19079, Note_on_c, 14, 45, 0
16, 19200, Note_on_c, 14, 45, 84
16, 19319, Note_on_c, 14, 45, 0
16, 19440, Note_on_c, 14, 45, 84
16, 19559, Note_on_c, 14, 45, 0
16, 19680, Note_on_c, 14, 40, 84
16, 19799, Note_on_c, 14, 40, 0
16, 19920, Note_on_c, 14, 40, 84
16, 20039, Note_on_c, 14, 40, 0
16, 20160, Note_on_c, 14, 40, 84
16, 20279, Note_on_c, 14, 40, 0
16, 20400, Note_on_c, 14, 40, 84
16, 20519, Note_on_c, 14, 40, 0
16, 20640, Note_on_c, 14, 45, 84
16, 20759, Note_on_c, 14, 45, 0
16, 21120, Note_on_c, 14, 45, 84
16, 21239, Note_on_c, 14, 45, 0
16, 21600, Note_on_c, 14, 40, 84
16, 21719, Note_on_c, 14, 40, 0
16, 22080, Note_on_c, 14, 40, 84
16, 22199, Note_on_c, 14, 40, 0
16, 22560, Note_on_c, 14, 45, 84
16, 22664, Note_on_c, 14, 45, 0
16, 22680, Note_on_c, 14, 45, 84
16, 22784, Note_on_c, 14, 45, 0
16, 22800, Note_on_c, 14, 45, 84
16, 22904, Note_on_c, 14, 45, 0
16, 22920, Note_on_c, 14, 45, 84
16, 23024, Note_on_c, 14, 45, 0
16, 23040, Note_on_c, 14, 45, 84
16, 23144, Note_on_c, 14, 45, 0
16, 23160, Note_on_c, 14, 45, 84
16, 23264, Note_on_c, 14, 45, 0
16, 23280, Note_on_c, 14, 45, 84
16, 23384, Note_on_c, 14, 45, 0
16, 23400, Note_on_c, 14, 45, 84
16, 23504, Note_on_c, 14, 45, 0
16, 23520, Note_on_c, 14, 40, 84
16, 23624, Note_on_c, 14, 40, 0
16, 23640, Note_on_c, 14, 40, 84
16, 23744, Note_on_c, 14, 40, 0
16, 23760, Note_on_c, 14, 40, 84
16, 23864, Note_on_c, 14, 40, 0
16, 23880, Note_on_c, 14, 40, 84
16, 23984, Note_on_c, 14, 40, 0
16, 24000, Note_on_c, 14, 40, 84
16, 24104, Note_on_c, 14, 40, 0
16, 24120, Note_on_c, 14, 40, 84
16, 24224, Note_on_c, 14, 40, 0
16, 24240, Note_on_c, 14, 40, 84
16, 24344, Note_on_c, 14, 40, 0
16, 24360, Note_on_c, 14, 40, 84
16, 24464, Note_on_c, 14, 40, 0
16, 24480, Note_on_c, 14, 45, 84
16, 24599, Note_on_c, 14, 45, 0
16, 25200, Note_on_c, 14, 64, 84
16, 25439, Note_on_c, 14, 64, 0
16, 25440, Note_on_c, 14, 57, 84
16, 25679, Note_on_c, 14, 57, 0
16, 25680, Note_on_c, 14, 52, 84
16, 25919, Note_on_c, 14, 52, 0
16, 25920, Note_on_c, 14, 45, 84
16, 26159, Note_on_c, 14, 45, 0
16, 26160, Note_on_c, 14, 40, 84
16, 26399, Note_on_c, 14, 40, 0
16, 26400, Note_on_c, 14, 45, 84
16, 26639, Note_on_c, 14, 45, 0
16, 27120, Note_on_c, 14, 64, 84
16, 27359, Note_on_c, 14, 64, 0
16, 27360, Note_on_c, 14, 57, 84
16, 27599, Note_on_c, 14, 57, 0
16, 27600, Note_on_c, 14, 52, 84
16, 27839, Note_on_c, 14, 52, 0
16, 27840, Note_on_c, 14, 45, 84
16, 28079, Note_on_c, 14, 45, 0
16, 28080, Note_on_c, 14, 49, 84
16, 28319, Note_on_c, 14, 49, 0
16, 28320, Note_on_c, 14, 42, 84
16, 28559, Note_on_c, 14, 42, 0
16, 29040, Note_on_c, 14, 61, 84
16, 29279, Note_on_c, 14, 61, 0
16, 29280, Note_on_c, 14, 66, 84
16, 29519, Note_on_c, 14, 66, 0
16, 29520, Note_on_c, 14, 61, 84
16, 29759, Note_on_c, 14, 61, 0
16, 29760, Note_on_c, 14, 54, 84
16, 29999, Note_on_c, 14, 54, 0
16, 30000, Note_on_c, 14, 49, 84
16, 30239, Note_on_c, 14, 49, 0
16, 30240, Note_on_c, 14, 42, 84
16, 30479, Note_on_c, 14, 42, 0
16, 30960, Note_on_c, 14, 61, 84
16, 31199, Note_on_c, 14, 61, 0
16, 31200, Note_on_c, 14, 66, 84
16, 31439, Note_on_c, 14, 66, 0
16, 31440, Note_on_c, 14, 61, 84
16, 31679, Note_on_c, 14, 61, 0
16, 31680, Note_on_c, 14, 54, 84
16, 31919, Note_on_c, 14, 54, 0
16, 31920, Note_on_c, 14, 49, 84
16, 32144, Note_on_c, 14, 49, 0
16, 32160, Note_on_c, 14, 42, 84
16, 32331, Note_on_c, 14, 42, 0
16, 32340, Note_on_c, 14, 54, 84
16, 32391, Note_on_c, 14, 54, 0
16, 32400, Note_on_c, 14, 54, 84
16, 32571, Note_on_c, 14, 54, 0
16, 32580, Note_on_c, 14, 54, 84
16, 32631, Note_on_c, 14, 54, 0
16, 32640, Note_on_c, 14, 54, 84
16, 32811, Note_on_c, 14, 54, 0
16, 32820, Note_on_c, 14, 54, 84
16, 32871, Note_on_c, 14, 54, 0
16, 32880, Note_on_c, 14, 54, 84
16, 33051, Note_on_c, 14, 54, 0
16, 33060, Note_on_c, 14, 54, 84
16, 33111, Note_on_c, 14, 54, 0
16, 33120, Note_on_c, 14, 53, 84
16, 33291, Note_on_c, 14, 53, 0
16, 33300, Note_on_c, 14, 53, 84
16, 33351, Note_on_c, 14, 53, 0
16, 33360, Note_on_c, 14, 53, 84
16, 33531, Note_on_c, 14, 53, 0
16, 33540, Note_on_c, 14, 53, 84
16, 33591, Note_on_c, 14, 53, 0
16, 33600, Note_on_c, 14, 53, 84
16, 33771, Note_on_c, 14, 53, 0
16, 33780, Note_on_c, 14, 53, 84
16, 33831, Note_on_c, 14, 53, 0
16, 33840, Note_on_c, 14, 53, 84
16, 34011, Note_on_c, 14, 53, 0
16, 34020, Note_on_c, 14, 53, 84
16, 34071, Note_on_c, 14, 53, 0
16, 34080, Note_on_c, 14, 54, 84
16, 34251, Note_on_c, 14, 54, 0
16, 34260, Note_on_c, 14, 54, 84
16, 34311, Note_on_c, 14, 54, 0
16, 34320, Note_on_c, 14, 54, 84
16, 34491, Note_on_c, 14, 54, 0
16, 34500, Note_on_c, 14, 54, 84
16, 34551, Note_on_c, 14, 54, 0
16, 34560, Note_on_c, 14, 52, 84
16, 34731, Note_on_c, 14, 52, 0
16, 34740, Note_on_c, 14, 52, 84
16, 34791, Note_on_c, 14, 52, 0
16, 34800, Note_on_c, 14, 52, 84
16, 34971, Note_on_c, 14, 52, 0
16, 34980, Note_on_c, 14, 52, 84
16, 35031, Note_on_c, 14, 52, 0
16, 35040, Note_on_c, 14, 51, 84
16, 35211, Note_on_c, 14, 51, 0
16, 35220, Note_on_c, 14, 51, 84
16, 35271, Note_on_c, 14, 51, 0
16, 35280, Note_on_c, 14, 51, 84
16, 35451, Note_on_c, 14, 51, 0
16, 35460, Note_on_c, 14, 51, 84
16, 35511, Note_on_c, 14, 51, 0
16, 35520, Note_on_c, 14, 49, 84
16, 35691, Note_on_c, 14, 49, 0
16, 35700, Note_on_c, 14, 49, 84
16, 35751, Note_on_c, 14, 49, 0
16, 35760, Note_on_c, 14, 49, 84
16, 35931, Note_on_c, 14, 49, 0
16, 35940, Note_on_c, 14, 49, 84
16, 35991, Note_on_c, 14, 49, 0
16, 36000, Note_on_c, 14, 48, 84
16, 36171, Note_on_c, 14, 48, 0
16, 36180, Note_on_c, 14, 45, 84
16, 36231, Note_on_c, 14, 45, 0
16, 36240, Note_on_c, 14, 45, 84
16, 36411, Note_on_c, 14, 45, 0
16, 36420, Note_on_c, 14, 45, 84
16, 36471, Note_on_c, 14, 45, 0
16, 36480, Note_on_c, 14, 45, 84
16, 36651, Note_on_c, 14, 45, 0
16, 36660, Note_on_c, 14, 45, 84
16, 36711, Note_on_c, 14, 45, 0
16, 36720, Note_on_c, 14, 45, 84
16, 36891, Note_on_c, 14, 45, 0
16, 36900, Note_on_c, 14, 45, 84
16, 36951, Note_on_c, 14, 45, 0
16, 36960, Note_on_c, 14, 44, 84
16, 37079, Note_on_c, 14, 44, 0
16, 37200, Note_on_c, 14, 44, 76
16, 37289, Note_on_c, 14, 44, 0
16, 37920, Program_c, 14, 45
16, 38160, Note_on_c, 14, 56, 44
16, 38279, Note_on_c, 14, 56, 0
16, 38400, Note_on_c, 14, 44, 44
16, 38519, Note_on_c, 14, 44, 0
16, 38640, Note_on_c, 14, 49, 44
16, 38759, Note_on_c, 14, 49, 0
16, 38880, Note_on_c, 14, 44, 44
16, 38998, Program_c, 14, 48
16, 38999, Note_on_c, 14, 44, 0
16, 39120, Note_on_c, 14, 44, 76
16, 39209, Note_on_c, 14, 44, 0
16, 39840, Program_c, 14, 45
16, 40080, Note_on_c, 14, 56, 44
16, 40199, Note_on_c, 14, 56, 0
16, 40320, Note_on_c, 14, 44, 44
16, 40439, Note_on_c, 14, 44, 0
16, 40560, Note_on_c, 14, 49, 44
16, 40679, Note_on_c, 14, 49, 0
16, 41040, Note_on_c, 14, 56, 44
16, 41159, Note_on_c, 14, 56, 0
16, 41280, Note_on_c, 14, 44, 44
16, 41399, Note_on_c, 14, 44, 0
16, 41520, Note_on_c, 14, 49, 44
16, 41639, Note_on_c, 14, 49, 0
16, 42000, Note_on_c, 14, 56, 44
16, 42119, Note_on_c, 14, 56, 0
16, 42240, Note_on_c, 14, 44, 44
16, 42359, Note_on_c, 14, 44, 0
16, 42480, Note_on_c, 14, 56, 44
16, 42598, Program_c, 14, 48
16, 42599, Note_on_c, 14, 56, 0
16, 42720, Note_on_c, 14, 49, 52
16, 42891, Note_on_c, 14, 49, 0
16, 42900, Note_on_c, 14, 61, 52
16, 42944, Note_on_c, 14, 61, 0
16, 42960, Note_on_c, 14, 61, 76
16, 43191, Note_on_c, 14, 61, 0
16, 43200, Note_on_c, 14, 44, 52
16, 43371, Note_on_c, 14, 44, 0
16, 43380, Note_on_c, 14, 56, 52
16, 43424, Note_on_c, 14, 56, 0
16, 43440, Note_on_c, 14, 56, 76
16, 43671, Note_on_c, 14, 56, 0
16, 43680, Note_on_c, 14, 49, 52
16, 43851, Note_on_c, 14, 49, 0
16, 43860, Note_on_c, 14, 61, 52
16, 43904, Note_on_c, 14, 61, 0
16, 43920, Note_on_c, 14, 61, 76
16, 44151, Note_on_c, 14, 61, 0
16, 44160, Note_on_c, 14, 44, 52
16, 44331, Note_on_c, 14, 44, 0
16, 44340, Note_on_c, 14, 56, 52
16, 44384, Note_on_c, 14, 56, 0
16, 44400, Note_on_c, 14, 56, 76
16, 44631, Note_on_c, 14, 56, 0
16, 44640, Note_on_c, 14, 49, 52
16, 44759, Note_on_c, 14, 49, 0
16, 45120, Note_on_c, 14, 45, 52
16, 45599, Note_on_c, 14, 45, 0
16, 45600, Note_on_c, 14, 50, 52
16, 46079, Note_on_c, 14, 50, 0
16, 46080, Note_on_c, 14, 45, 52
16, 46559, Note_on_c, 14, 45, 0
16, 46560, Note_on_c, 14, 50, 52
16, 47024, Note_on_c, 14, 50, 0
16, 47040, Note_on_c, 14, 44, 52
16, 47504, Note_on_c, 14, 44, 0
16, 47520, Note_on_c, 14, 49, 52
16, 47691, Note_on_c, 14, 49, 0
16, 47700, Note_on_c, 14, 61, 52
16, 47744, Note_on_c, 14, 61, 0
16, 47760, Note_on_c, 14, 61, 76
16, 47991, Note_on_c, 14, 61, 0
16, 48000, Note_on_c, 14, 44, 52
16, 48171, Note_on_c, 14, 44, 0
16, 48180, Note_on_c, 14, 56, 52
16, 48224, Note_on_c, 14, 56, 0
16, 48240, Note_on_c, 14, 56, 76
16, 48471, Note_on_c, 14, 56, 0
16, 48480, Note_on_c, 14, 49, 52
16, 48651, Note_on_c, 14, 49, 0
16, 48660, Note_on_c, 14, 61, 52
16, 48704, Note_on_c, 14, 61, 0
16, 48720, Note_on_c, 14, 61, 76
16, 48951, Note_on_c, 14, 61, 0
16, 48960, Note_on_c, 14, 44, 52
16, 49131, Note_on_c, 14, 44, 0
16, 49140, Note_on_c, 14, 56, 52
16, 49184, Note_on_c, 14, 56, 0
16, 49200, Note_on_c, 14, 56, 76
16, 49431, Note_on_c, 14, 56, 0
16, 49440, Note_on_c, 14, 49, 52
16, 49559, Note_on_c, 14, 49, 0
16, 49920, Note_on_c, 14, 45, 52
16, 50399, Note_on_c, 14, 45, 0
16, 50400, Note_on_c, 14, 50, 52
16, 50879, Note_on_c, 14, 50, 0
16, 50880, Note_on_c, 14, 45, 52
16, 51359, Note_on_c, 14, 45, 0
16, 52500, Note_on_c, 14, 55, 58
16, 52559, Note_on_c, 14, 55, 0
16, 52560, Note_on_c, 14, 52, 58
16, 52679, Note_on_c, 14, 52, 0
16, 52740, Note_on_c, 14, 49, 59
16, 52799, Note_on_c, 14, 49, 0
16, 52800, Note_on_c, 14, 52, 60
16, 52919, Note_on_c, 14, 52, 0
16, 52980, Note_on_c, 14, 55, 61
16, 53039, Note_on_c, 14, 55, 0
16, 53040, Note_on_c, 14, 57, 61
16, 53159, Note_on_c, 14, 57, 0
16, 53220, Note_on_c, 14, 61, 62
16, 53279, Note_on_c, 14, 61, 0
16, 53280, Note_on_c, 14, 64, 62
16, 53399, Note_on_c, 14, 64, 0
16, 53520, Note_on_c, 14, 49, 64
16, 53639, Note_on_c, 14, 49, 0
16, 54000, Note_on_c, 14, 50, 66
16, 54119, Note_on_c, 14, 50, 0
16, 54480, Note_on_c, 14, 45, 69
16, 54599, Note_on_c, 14, 45, 0
16, 54960, Note_on_c, 14, 45, 72
16, 55079, Note_on_c, 14, 45, 0
16, 55380, Note_on_c, 14, 55, 74
16, 55439, Note_on_c, 14, 55, 0
16, 55440, Note_on_c, 14, 52, 74
16, 55559, Note_on_c, 14, 52, 0
16, 55620, Note_on_c, 14, 49, 75
16, 55679, Note_on_c, 14, 49, 0
16, 55680, Note_on_c, 14, 52, 76
16, 55799, Note_on_c, 14, 52, 0
16, 55860, Note_on_c, 14, 55, 77
16, 55919, Note_on_c, 14, 55, 0
16, 55920, Note_on_c, 14, 57, 77
16, 56039, Note_on_c, 14, 57, 0
16, 56100, Note_on_c, 14, 61, 78
16, 56159, Note_on_c, 14, 61, 0
16, 56160, Note_on_c, 14, 64, 78
16, 56279, Note_on_c, 14, 64, 0
16, 56400, Note_on_c, 14, 49, 80
16, 56519, Note_on_c, 14, 49, 0
16, 56880, Note_on_c, 14, 50, 82
16, 56999, Note_on_c, 14, 50, 0
16, 57120, Note_on_c, 14, 36, 84
16, 57171, Note_on_c, 14, 36, 0
16, 57180, Note_on_c, 14, 36, 84
16, 57231, Note_on_c, 14, 36, 0
16, 57240, Note_on_c, 14, 36, 84
16, 57291, Note_on_c, 14, 36, 0
16, 57300, Note_on_c, 14, 36, 84
16, 57351, Note_on_c, 14, 36, 0
16, 57360, Note_on_c, 14, 36, 84
16, 57411, Note_on_c, 14, 36, 0
16, 57420, Note_on_c, 14, 36, 84
16, 57471, Note_on_c, 14, 36, 0
16, 57480, Note_on_c, 14, 36, 84
16, 57531, Note_on_c, 14, 36, 0
16, 57540, Note_on_c, 14, 36, 84
16, 57591, Note_on_c, 14, 36, 0
16, 57600, Note_on_c, 14, 36, 84
16, 57651, Note_on_c, 14, 36, 0
16, 57660, Note_on_c, 14, 36, 84
16, 57711, Note_on_c, 14, 36, 0
16, 57720, Note_on_c, 14, 36, 84
16, 57771, Note_on_c, 14, 36, 0
16, 57780, Note_on_c, 14, 36, 84
16, 57831, Note_on_c, 14, 36, 0
16, 57840, Note_on_c, 14, 36, 84
16, 57891, Note_on_c, 14, 36, 0
16, 57900, Note_on_c, 14, 36, 84
16, 57951, Note_on_c, 14, 36, 0
16, 57960, Note_on_c, 14, 36, 84
16, 58011, Note_on_c, 14, 36, 0
16, 58020, Note_on_c, 14, 36, 84
16, 58071, Note_on_c, 14, 36, 0
16, 58080, Note_on_c, 14, 37, 92
16, 58131, Note_on_c, 14, 37, 0
16, 58140, Note_on_c, 14, 37, 84
16, 58191, Note_on_c, 14, 37, 0
16, 58200, Note_on_c, 14, 37, 84
16, 58251, Note_on_c, 14, 37, 0
16, 58260, Note_on_c, 14, 37, 84
16, 58311, Note_on_c, 14, 37, 0
16, 58320, Note_on_c, 14, 37, 84
16, 58371, Note_on_c, 14, 37, 0
16, 58380, Note_on_c, 14, 37, 84
16, 58431, Note_on_c, 14, 37, 0
16, 58440, Note_on_c, 14, 37, 84
16, 58491, Note_on_c, 14, 37, 0
16, 58500, Note_on_c, 14, 37, 84
16, 58551, Note_on_c, 14, 37, 0
16, 58560, Note_on_c, 14, 36, 92
16, 58611, Note_on_c, 14, 36, 0
16, 58620, Note_on_c, 14, 36, 84
16, 58671, Note_on_c, 14, 36, 0
16, 58680, Note_on_c, 14, 36, 84
16, 58731, Note_on_c, 14, 36, 0
16, 58740, Note_on_c, 14, 36, 84
16, 58791, Note_on_c, 14, 36, 0
16, 58800, Note_on_c, 14, 36, 84
16, 58851, Note_on_c, 14, 36, 0
16, 58860, Note_on_c, 14, 36, 84
16, 58911, Note_on_c, 14, 36, 0
16, 58920, Note_on_c, 14, 36, 84
16, 58971, Note_on_c, 14, 36, 0
16, 58980, Note_on_c, 14, 36, 84
16, 59031, Note_on_c, 14, 36, 0
16, 59040, Note_on_c, 14, 37, 92
16, 59091, Note_on_c, 14, 37, 0
16, 59100, Note_on_c, 14, 37, 84
16, 59151, Note_on_c, 14, 37, 0
16, 59160, Note_on_c, 14, 37, 84
16, 59211, Note_on_c, 14, 37, 0
16, 59220, Note_on_c, 14, 37, 84
16, 59271, Note_on_c, 14, 37, 0
16, 59280, Note_on_c, 14, 37, 84
16, 59331, Note_on_c, 14, 37, 0
16, 59340, Note_on_c, 14, 37, 84
16, 59391, Note_on_c, 14, 37, 0
16, 59400, Note_on_c, 14, 37, 84
16, 59451, Note_on_c, 14, 37, 0
16, 59460, Note_on_c, 14, 37, 84
16, 59511, Note_on_c, 14, 37, 0
16, 59520, Note_on_c, 14, 36, 92
16, 59571, Note_on_c, 14, 36, 0
16, 59580, Note_on_c, 14, 36, 84
16, 59631, Note_on_c, 14, 36, 0
16, 59640, Note_on_c, 14, 36, 84
16, 59691, Note_on_c, 14, 36, 0
16, 59700, Note_on_c, 14, 36, 84
16, 59751, Note_on_c, 14, 36, 0
16, 59760, Note_on_c, 14, 36, 84
16, 59811, Note_on_c, 14, 36, 0
16, 59820, Note_on_c, 14, 36, 84
16, 59871, Note_on_c, 14, 36, 0
16, 59880, Note_on_c, 14, 36, 84
16, 59931, Note_on_c, 14, 36, 0
16, 59940, Note_on_c, 14, 36, 84
16, 59991, Note_on_c, 14, 36, 0
16, 60000, Note_on_c, 14, 37, 92
16, 60051, Note_on_c, 14, 37, 0
16, 60060, Note_on_c, 14, 37, 84
16, 60111, Note_on_c, 14, 37, 0
16, 60120, Note_on_c, 14, 37, 84
16, 60171, Note_on_c, 14, 37, 0
16, 60180, Note_on_c, 14, 37, 84
16, 60231, Note_on_c, 14, 37, 0
16, 60240, Note_on_c, 14, 37, 84
16, 60291, Note_on_c, 14, 37, 0
16, 60300, Note_on_c, 14, 37, 84
16, 60351, Note_on_c, 14, 37, 0
16, 60360, Note_on_c, 14, 37, 84
16, 60411, Note_on_c, 14, 37, 0
16, 60420, Note_on_c, 14, 37, 84
16, 60471, Note_on_c, 14, 37, 0
16, 60480, Note_on_c, 14, 42, 92
16, 60531, Note_on_c, 14, 42, 0
16, 60540, Note_on_c, 14, 42, 84
16, 60591, Note_on_c, 14, 42, 0
16, 60600, Note_on_c, 14, 42, 84
16, 60651, Note_on_c, 14, 42, 0
16, 60660, Note_on_c, 14, 42, 84
16, 60711, Note_on_c, 14, 42, 0
16, 60720, Note_on_c, 14, 42, 84
16, 60771, Note_on_c, 14, 42, 0
16, 60780, Note_on_c, 14, 42, 84
16, 60831, Note_on_c, 14, 42, 0
16, 60840, Note_on_c, 14, 42, 84
16, 60891, Note_on_c, 14, 42, 0
16, 60900, Note_on_c, 14, 42, 84
16, 60951, Note_on_c, 14, 42, 0
16, 60960, Note_on_c, 14, 44, 92
16, 61011, Note_on_c, 14, 44, 0
16, 61020, Note_on_c, 14, 44, 84
16, 61071, Note_on_c, 14, 44, 0
16, 61080, Note_on_c, 14, 44, 84
16, 61131, Note_on_c, 14, 44, 0
16, 61140, Note_on_c, 14, 44, 84
16, 61191, Note_on_c, 14, 44, 0
16, 61200, Note_on_c, 14, 44, 84
16, 61251, Note_on_c, 14, 44, 0
16, 61260, Note_on_c, 14, 44, 84
16, 61311, Note_on_c, 14, 44, 0
16, 61320, Note_on_c, 14, 44, 84
16, 61371, Note_on_c, 14, 44, 0
16, 61380, Note_on_c, 14, 44, 84
16, 61431, Note_on_c, 14, 44, 0
16, 61440, Note_on_c, 14, 44, 92
16, 61491, Note_on_c, 14, 44, 0
16, 61500, Note_on_c, 14, 44, 84
16, 61551, Note_on_c, 14, 44, 0
16, 61560, Note_on_c, 14, 44, 84
16, 61611, Note_on_c, 14, 44, 0
16, 61620, Note_on_c, 14, 44, 84
16, 61671, Note_on_c, 14, 44, 0
16, 61680, Note_on_c, 14, 44, 84
16, 61731, Note_on_c, 14, 44, 0
16, 61740, Note_on_c, 14, 44, 84
16, 61791, Note_on_c, 14, 44, 0
16, 61800, Note_on_c, 14, 44, 84
16, 61851, Note_on_c, 14, 44, 0
16, 61860, Note_on_c, 14, 44, 84
16, 61911, Note_on_c, 14, 44, 0
16, 61920, Note_on_c, 14, 37, 84
16, 61971, Note_on_c, 14, 37, 0
16, 61980, Note_on_c, 14, 37, 84
16, 62031, Note_on_c, 14, 37, 0
16, 62040, Note_on_c, 14, 37, 84
16, 62091, Note_on_c, 14, 37, 0
16, 62100, Note_on_c, 14, 37, 84
16, 62151, Note_on_c, 14, 37, 0
16, 62160, Note_on_c, 14, 37, 92
16, 62211, Note_on_c, 14, 37, 0
16, 62220, Note_on_c, 14, 37, 84
16, 62271, Note_on_c, 14, 37, 0
16, 62280, Note_on_c, 14, 37, 84
16, 62331, Note_on_c, 14, 37, 0
16, 62340, Note_on_c, 14, 37, 84
16, 62391, Note_on_c, 14, 37, 0
16, 62400, Note_on_c, 14, 37, 84
16, 62451, Note_on_c, 14, 37, 0
16, 62460, Note_on_c, 14, 37, 84
16, 62511, Note_on_c, 14, 37, 0
16, 62520, Note_on_c, 14, 37, 84
16, 62571, Note_on_c, 14, 37, 0
16, 62580, Note_on_c, 14, 37, 84
16, 62631, Note_on_c, 14, 37, 0
16, 62640, Note_on_c, 14, 37, 84
16, 62691, Note_on_c, 14, 37, 0
16, 62700, Note_on_c, 14, 37, 84
16, 62751, Note_on_c, 14, 37, 0
16, 62760, Note_on_c, 14, 37, 84
16, 62811, Note_on_c, 14, 37, 0
16, 62820, Note_on_c, 14, 37, 84
16, 62871, Note_on_c, 14, 37, 0
16, 62880, Note_on_c, 14, 37, 84
16, 62931, Note_on_c, 14, 37, 0
16, 62940, Note_on_c, 14, 37, 84
16, 62991, Note_on_c, 14, 37, 0
16, 63000, Note_on_c, 14, 37, 84
16, 63051, Note_on_c, 14, 37, 0
16, 63060, Note_on_c, 14, 37, 84
16, 63111, Note_on_c, 14, 37, 0
16, 63120, Note_on_c, 14, 37, 92
16, 63171, Note_on_c, 14, 37, 0
16, 63180, Note_on_c, 14, 37, 84
16, 63231, Note_on_c, 14, 37, 0
16, 63240, Note_on_c, 14, 37, 84
16, 63291, Note_on_c, 14, 37, 0
16, 63300, Note_on_c, 14, 37, 84
16, 63351, Note_on_c, 14, 37, 0
16, 63360, Note_on_c, 14, 37, 84
16, 63411, Note_on_c, 14, 37, 0
16, 63420, Note_on_c, 14, 37, 84
16, 63471, Note_on_c, 14, 37, 0
16, 63480, Note_on_c, 14, 37, 84
16, 63531, Note_on_c, 14, 37, 0
16, 63540, Note_on_c, 14, 37, 84
16, 63591, Note_on_c, 14, 37, 0
16, 63600, Note_on_c, 14, 37, 84
16, 63651, Note_on_c, 14, 37, 0
16, 63660, Note_on_c, 14, 37, 84
16, 63711, Note_on_c, 14, 37, 0
16, 63720, Note_on_c, 14, 37, 84
16, 63771, Note_on_c, 14, 37, 0
16, 63780, Note_on_c, 14, 37, 84
16, 63831, Note_on_c, 14, 37, 0
16, 63840, Note_on_c, 14, 37, 84
16, 63891, Note_on_c, 14, 37, 0
16, 63900, Note_on_c, 14, 37, 84
16, 63951, Note_on_c, 14, 37, 0
16, 63960, Note_on_c, 14, 37, 84
16, 64011, Note_on_c, 14, 37, 0
16, 64020, Note_on_c, 14, 37, 84
16, 64071, Note_on_c, 14, 37, 0
16, 64080, Note_on_c, 14, 37, 92
16, 64131, Note_on_c, 14, 37, 0
16, 64140, Note_on_c, 14, 37, 84
16, 64191, Note_on_c, 14, 37, 0
16, 64200, Note_on_c, 14, 37, 84
16, 64251, Note_on_c, 14, 37, 0
16, 64260, Note_on_c, 14, 37, 84
16, 64311, Note_on_c, 14, 37, 0
16, 64320, Note_on_c, 14, 37, 84
16, 64371, Note_on_c, 14, 37, 0
16, 64380, Note_on_c, 14, 37, 84
16, 64431, Note_on_c, 14, 37, 0
16, 64440, Note_on_c, 14, 37, 84
16, 64491, Note_on_c, 14, 37, 0
16, 64500, Note_on_c, 14, 37, 84
16, 64551, Note_on_c, 14, 37, 0
16, 64560, Note_on_c, 14, 37, 92
16, 64611, Note_on_c, 14, 37, 0
16, 64620, Note_on_c, 14, 37, 84
16, 64671, Note_on_c, 14, 37, 0
16, 64680, Note_on_c, 14, 37, 84
16, 64731, Note_on_c, 14, 37, 0
16, 64740, Note_on_c, 14, 37, 84
16, 64791, Note_on_c, 14, 37, 0
16, 64800, Note_on_c, 14, 37, 84
16, 64851, Note_on_c, 14, 37, 0
16, 64860, Note_on_c, 14, 37, 84
16, 64911, Note_on_c, 14, 37, 0
16, 64920, Note_on_c, 14, 37, 84
16, 64971, Note_on_c, 14, 37, 0
16, 64980, Note_on_c, 14, 37, 84
16, 65031, Note_on_c, 14, 37, 0
16, 65040, Note_on_c, 14, 37, 92
16, 65091, Note_on_c, 14, 37, 0
16, 65100, Note_on_c, 14, 37, 84
16, 65151, Note_on_c, 14, 37, 0
16, 65160, Note_on_c, 14, 37, 84
16, 65211, Note_on_c, 14, 37, 0
16, 65220, Note_on_c, 14, 37, 84
16, 65271, Note_on_c, 14, 37, 0
16, 65280, Note_on_c, 14, 37, 84
16, 65331, Note_on_c, 14, 37, 0
16, 65340, Note_on_c, 14, 37, 84
16, 65391, Note_on_c, 14, 37, 0
16, 65400, Note_on_c, 14, 37, 84
16, 65451, Note_on_c, 14, 37, 0
16, 65460, Note_on_c, 14, 37, 84
16, 65511, Note_on_c, 14, 37, 0
16, 65520, Note_on_c, 14, 39, 84
16, 65571, Note_on_c, 14, 39, 0
16, 65580, Note_on_c, 14, 39, 84
16, 65631, Note_on_c, 14, 39, 0
16, 65640, Note_on_c, 14, 39, 84
16, 65691, Note_on_c, 14, 39, 0
16, 65700, Note_on_c, 14, 39, 84
16, 65751, Note_on_c, 14, 39, 0
16, 65760, Note_on_c, 14, 40, 84
16, 65879, Note_on_c, 14, 40, 0
16, 66720, Note_on_c, 14, 40, 84
16, 66839, Note_on_c, 14, 40, 0
16, 67680, Note_on_c, 14, 38, 84
16, 67799, Note_on_c, 14, 38, 0
16, 67920, Note_on_c, 14, 38, 92
16, 68159, Note_on_c, 14, 38, 0
16, 68160, Note_on_c, 14, 37, 84
16, 68279, Note_on_c, 14, 37, 0
16, 68400, Note_on_c, 14, 37, 92
16, 68639, Note_on_c, 14, 37, 0
16, 68640, Note_on_c, 14, 38, 84
16, 68759, Note_on_c, 14, 38, 0
16, 68880, Note_on_c, 14, 38, 92
16, 69119, Note_on_c, 14, 38, 0
16, 69120, Note_on_c, 14, 37, 84
16, 69239, Note_on_c, 14, 37, 0
16, 69360, Note_on_c, 14, 42, 92
16, 69599, Note_on_c, 14, 42, 0
16, 69600, Note_on_c, 14, 47, 84
16, 69719, Note_on_c, 14, 47, 0
16, 69840, Note_on_c, 14, 40, 92
16, 70079, Note_on_c, 14, 40, 0
16, 70080, Note_on_c, 14, 45, 84
16, 70199, Note_on_c, 14, 45, 0
16, 70320, Note_on_c, 14, 37, 92
16, 70559, Note_on_c, 14, 37, 0
16, 70560, Note_on_c, 14, 40, 84
16, 70679, Note_on_c, 14, 40, 0
16, 70800, Note_on_c, 14, 40, 92
16, 71039, Note_on_c, 14, 40, 0
16, 71040, Note_on_c, 14, 45, 84
16, 71159, Note_on_c, 14, 45, 0
16, 71520, Note_on_c, 14, 38, 84
16, 71639, Note_on_c, 14, 38, 0
16, 71760, Note_on_c, 14, 38, 92
16, 71999, Note_on_c, 14, 38, 0
16, 72000, Note_on_c, 14, 37, 84
16, 72119, Note_on_c, 14, 37, 0
16, 72240, Note_on_c, 14, 37, 92
16, 72479, Note_on_c, 14, 37, 0
16, 72480, Note_on_c, 14, 38, 84
16, 72599, Note_on_c, 14, 38, 0
16, 72720, Note_on_c, 14, 38, 92
16, 72959, Note_on_c, 14, 38, 0
16, 72960, Note_on_c, 14, 37, 84
16, 73079, Note_on_c, 14, 37, 0
16, 73200, Note_on_c, 14, 42, 92
16, 73439, Note_on_c, 14, 42, 0
16, 73440, Note_on_c, 14, 47, 84
16, 73559, Note_on_c, 14, 47, 0
16, 73680, Note_on_c, 14, 40, 92
16, 73919, Note_on_c, 14, 40, 0
16, 73920, Note_on_c, 14, 45, 84
16, 74039, Note_on_c, 14, 45, 0
16, 74160, Note_on_c, 14, 37, 92
16, 74399, Note_on_c, 14, 37, 0
16, 74400, Note_on_c, 14, 40, 84
16, 74519, Note_on_c, 14, 40, 0
16, 74640, Note_on_c, 14, 40, 92
16, 74879, Note_on_c, 14, 40, 0
16, 74880, Note_on_c, 14, 45, 84
16, 74999, Note_on_c, 14, 45, 0
16, 75360, Note_on_c, 14, 45, 84
16, 75479, Note_on_c, 14, 45, 0
16, 75840, Note_on_c, 14, 40, 84
16, 75959, Note_on_c, 14, 40, 0
16, 76320, Note_on_c, 14, 40, 84
16, 76439, Note_on_c, 14, 40, 0
16, 76800, Note_on_c, 14, 45, 84
16, 76919, Note_on_c, 14, 45, 0
16, 77040, Note_on_c, 14, 45, 84
16, 77159, Note_on_c, 14, 45, 0
16, 77280, Note_on_c, 14, 45, 84
16, 77399, Note_on_c, 14, 45, 0
16, 77520, Note_on_c, 14, 45, 84
16, 77639, Note_on_c, 14, 45, 0
16, 77760, Note_on_c, 14, 40, 84
16, 77879, Note_on_c, 14, 40, 0
16, 78000, Note_on_c, 14, 40, 84
16, 78119, Note_on_c, 14, 40, 0
16, 78240, Note_on_c, 14, 40, 84
16, 78359, Note_on_c, 14, 40, 0
16, 78480, Note_on_c, 14, 40, 84
16, 78599, Note_on_c, 14, 40, 0
16, 78720, Note_on_c, 14, 45, 84
16, 78839, Note_on_c, 14, 45, 0
16, 79200, Note_on_c, 14, 45, 84
16, 79319, Note_on_c, 14, 45, 0
16, 79680, Note_on_c, 14, 40, 84
16, 79799, Note_on_c, 14, 40, 0
16, 80160, Note_on_c, 14, 40, 84
16, 80279, Note_on_c, 14, 40, 0
16, 80640, Note_on_c, 14, 45, 84
16, 80744, Note_on_c, 14, 45, 0
16, 80760, Note_on_c, 14, 45, 84
16, 80864, Note_on_c, 14, 45, 0
16, 80880, Note_on_c, 14, 45, 84
16, 80984, Note_on_c, 14, 45, 0
16, 81000, Note_on_c, 14, 45, 84
16, 81104, Note_on_c, 14, 45, 0
16, 81120, Note_on_c, 14, 45, 84
16, 81224, Note_on_c, 14, 45, 0
16, 81240, Note_on_c, 14, 45, 84
16, 81344, Note_on_c, 14, 45, 0
16, 81360, Note_on_c, 14, 45, 84
16, 81464, Note_on_c, 14, 45, 0
16, 81480, Note_on_c, 14, 45, 84
16, 81584, Note_on_c, 14, 45, 0
16, 81600, Note_on_c, 14, 40, 84
16, 81704, Note_on_c, 14, 40, 0
16, 81720, Note_on_c, 14, 40, 84
16, 81824, Note_on_c, 14, 40, 0
16, 81840, Note_on_c, 14, 40, 84
16, 81944, Note_on_c, 14, 40, 0
16, 81960, Note_on_c, 14, 40, 84
16, 82064, Note_on_c, 14, 40, 0
16, 82080, Note_on_c, 14, 40, 84
16, 82184, Note_on_c, 14, 40, 0
16, 82200, Note_on_c, 14, 40, 84
16, 82304, Note_on_c, 14, 40, 0
16, 82320, Note_on_c, 14, 40, 84
16, 82424, Note_on_c, 14, 40, 0
16, 82440, Note_on_c, 14, 40, 84
16, 82544, Note_on_c, 14, 40, 0
16, 82560, Note_on_c, 14, 45, 84
16, 82679, Note_on_c, 14, 45, 0
16, 83280, Note_on_c, 14, 64, 84
16, 83519, Note_on_c, 14, 64, 0
16, 83520, Note_on_c, 14, 57, 84
16, 83759, Note_on_c, 14, 57, 0
16, 83760, Note_on_c, 14, 52, 84
16, 83999, Note_on_c, 14, 52, 0
16, 84000, Note_on_c, 14, 45, 84
16, 84239, Note_on_c, 14, 45, 0
16, 84240, Note_on_c, 14, 40, 84
16, 84479, Note_on_c, 14, 40, 0
16, 84480, Note_on_c, 14, 45, 84
16, 84719, Note_on_c, 14, 45, 0
16, 85200, Note_on_c, 14, 64, 84
16, 85439, Note_on_c, 14, 64, 0
16, 85440, Note_on_c, 14, 57, 84
16, 85679, Note_on_c, 14, 57, 0
16, 85680, Note_on_c, 14, 52, 84
16, 85919, Note_on_c, 14, 52, 0
16, 85920, Note_on_c, 14, 45, 84
16, 86159, Note_on_c, 14, 45, 0
16, 86160, Note_on_c, 14, 49, 84
16, 86399, Note_on_c, 14, 49, 0
16, 86400, Note_on_c, 14, 42, 84
16, 86639, Note_on_c, 14, 42, 0
16, 87120, Note_on_c, 14, 61, 84
16, 87359, Note_on_c, 14, 61, 0
16, 87360, Note_on_c, 14, 66, 84
16, 87599, Note_on_c, 14, 66, 0
16, 87600, Note_on_c, 14, 61, 84
16, 87839, Note_on_c, 14, 61, 0
16, 87840, Note_on_c, 14, 54, 84
16, 88079, Note_on_c, 14, 54, 0
16, 88080, Note_on_c, 14, 49, 84
16, 88319, Note_on_c, 14, 49, 0
16, 88320, Note_on_c, 14, 42, 84
16, 88559, Note_on_c, 14, 42, 0
16, 89040, Note_on_c, 14, 61, 84
16, 89279, Note_on_c, 14, 61, 0
16, 89280, Note_on_c, 14, 66, 84
16, 89519, Note_on_c, 14, 66, 0
16, 89520, Note_on_c, 14, 61, 84
16, 89759, Note_on_c, 14, 61, 0
16, 89760, Note_on_c, 14, 54, 84
16, 89999, Note_on_c, 14, 54, 0
16, 90000, Note_on_c, 14, 49, 84
16, 90224, Note_on_c, 14, 49, 0
16, 90240, Note_on_c, 14, 42, 84
16, 90411, Note_on_c, 14, 42, 0
16, 90420, Note_on_c, 14, 54, 84
16, 90471, Note_on_c, 14, 54, 0
16, 90480, Note_on_c, 14, 54, 84
16, 90651, Note_on_c, 14, 54, 0
16, 90660, Note_on_c, 14, 54, 84
16, 90711, Note_on_c, 14, 54, 0
16, 90720, Note_on_c, 14, 54, 84
16, 90891, Note_on_c, 14, 54, 0
16, 90900, Note_on_c, 14, 54, 84
16, 90951, Note_on_c, 14, 54, 0
16, 90960, Note_on_c, 14, 54, 84
16, 91131, Note_on_c, 14, 54, 0
16, 91140, Note_on_c, 14, 54, 84
16, 91191, Note_on_c, 14, 54, 0
16, 91200, Note_on_c, 14, 53, 84
16, 91371, Note_on_c, 14, 53, 0
16, 91380, Note_on_c, 14, 53, 84
16, 91431, Note_on_c, 14, 53, 0
16, 91440, Note_on_c, 14, 53, 84
16, 91611, Note_on_c, 14, 53, 0
16, 91620, Note_on_c, 14, 53, 84
16, 91671, Note_on_c, 14, 53, 0
16, 91680, Note_on_c, 14, 53, 84
16, 91851, Note_on_c, 14, 53, 0
16, 91860, Note_on_c, 14, 53, 84
16, 91911, Note_on_c, 14, 53, 0
16, 91920, Note_on_c, 14, 53, 84
16, 92091, Note_on_c, 14, 53, 0
16, 92100, Note_on_c, 14, 53, 84
16, 92151, Note_on_c, 14, 53, 0
16, 92160, Note_on_c, 14, 54, 84
16, 92331, Note_on_c, 14, 54, 0
16, 92340, Note_on_c, 14, 54, 84
16, 92391, Note_on_c, 14, 54, 0
16, 92400, Note_on_c, 14, 54, 84
16, 92571, Note_on_c, 14, 54, 0
16, 92580, Note_on_c, 14, 54, 84
16, 92631, Note_on_c, 14, 54, 0
16, 92640, Note_on_c, 14, 52, 84
16, 92811, Note_on_c, 14, 52, 0
16, 92820, Note_on_c, 14, 52, 84
16, 92871, Note_on_c, 14, 52, 0
16, 92880, Note_on_c, 14, 52, 84
16, 93051, Note_on_c, 14, 52, 0
16, 93060, Note_on_c, 14, 52, 84
16, 93111, Note_on_c, 14, 52, 0
16, 93120, Note_on_c, 14, 51, 84
16, 93291, Note_on_c, 14, 51, 0
16, 93300, Note_on_c, 14, 51, 84
16, 93351, Note_on_c, 14, 51, 0
16, 93360, Note_on_c, 14, 51, 84
16, 93531, Note_on_c, 14, 51, 0
16, 93540, Note_on_c, 14, 51, 84
16, 93591, Note_on_c, 14, 51, 0
16, 93600, Note_on_c, 14, 49, 84
16, 93771, Note_on_c, 14, 49, 0
16, 93780, Note_on_c, 14, 49, 84
16, 93831, Note_on_c, 14, 49, 0
16, 93840, Note_on_c, 14, 49, 84
16, 94011, Note_on_c, 14, 49, 0
16, 94020, Note_on_c, 14, 49, 84
16, 94071, Note_on_c, 14, 49, 0
16, 94080, Note_on_c, 14, 48, 84
16, 94251, Note_on_c, 14, 48, 0
16, 94260, Note_on_c, 14, 45, 84
16, 94311, Note_on_c, 14, 45, 0
16, 94320, Note_on_c, 14, 45, 84
16, 94491, Note_on_c, 14, 45, 0
16, 94500, Note_on_c, 14, 45, 84
16, 94551, Note_on_c, 14, 45, 0
16, 94560, Note_on_c, 14, 45, 84
16, 94731, Note_on_c, 14, 45, 0
16, 94740, Note_on_c, 14, 45, 84
16, 94791, Note_on_c, 14, 45, 0
16, 94800, Note_on_c, 14, 45, 84
16, 94971, Note_on_c, 14, 45, 0
16, 94980, Note_on_c, 14, 45, 84
16, 95031, Note_on_c, 14, 45, 0
16, 95040, Note_on_c, 14, 44, 84
16, 95159, Note_on_c, 14, 44, 0
16, 95280, Note_on_c, 14, 44, 76
16, 95369, Note_on_c, 14, 44, 0
16, 96000, Program_c, 14, 45
16, 96240, Note_on_c, 14, 56, 44
16, 96359, Note_on_c, 14, 56, 0
16, 96480, Note_on_c, 14, 44, 44
16, 96599, Note_on_c, 14, 44, 0
16, 96720, Note_on_c, 14, 49, 44
16, 96839, Note_on_c, 14, 49, 0
16, 96960, Note_on_c, 14, 44, 44
16, 97078, Program_c, 14, 48
16, 97079, Note_on_c, 14, 44, 0
16, 97200, Note_on_c, 14, 44, 76
16, 97289, Note_on_c, 14, 44, 0
16, 97920, Program_c, 14, 45
16, 98160, Note_on_c, 14, 56, 44
16, 98279, Note_on_c, 14, 56, 0
16, 98400, Note_on_c, 14, 44, 44
16, 98519, Note_on_c, 14, 44, 0
16, 98640, Note_on_c, 14, 49, 44
16, 98759, Note_on_c, 14, 49, 0
16, 99120, Note_on_c, 14, 56, 44
16, 99239, Note_on_c, 14, 56, 0
16, 99360, Note_on_c, 14, 44, 44
16, 99479, Note_on_c, 14, 44, 0
16, 99600, Note_on_c, 14, 49, 44
16, 99719, Note_on_c, 14, 49, 0
16, 100080, Note_on_c, 14, 56, 44
16, 100199, Note_on_c, 14, 56, 0
16, 100320, Note_on_c, 14, 44, 44
16, 100439, Note_on_c, 14, 44, 0
16, 100560, Note_on_c, 14, 56, 44
16, 100678, Program_c, 14, 48
16, 100679, Note_on_c, 14, 56, 0
16, 100800, Note_on_c, 14, 49, 52
16, 100971, Note_on_c, 14, 49, 0
16, 100980, Note_on_c, 14, 61, 52
16, 101024, Note_on_c, 14, 61, 0
16, 101040, Note_on_c, 14, 61, 76
16, 101271, Note_on_c, 14, 61, 0
16, 101280, Note_on_c, 14, 44, 52
16, 101451, Note_on_c, 14, 44, 0
16, 101460, Note_on_c, 14, 56, 52
16, 101504, Note_on_c, 14, 56, 0
16, 101520, Note_on_c, 14, 56, 76
16, 101751, Note_on_c, 14, 56, 0
16, 101760, Note_on_c, 14, 49, 52
16, 101931, Note_on_c, 14, 49, 0
16, 101940, Note_on_c, 14, 61, 52
16, 101984, Note_on_c, 14, 61, 0
16, 102000, Note_on_c, 14, 61, 76
16, 102231, Note_on_c, 14, 61, 0
16, 102240, Note_on_c, 14, 44, 52
16, 102411, Note_on_c, 14, 44, 0
16, 102420, Note_on_c, 14, 56, 52
16, 102464, Note_on_c, 14, 56, 0
16, 102480, Note_on_c, 14, 56, 76
16, 102711, Note_on_c, 14, 56, 0
16, 102720, Note_on_c, 14, 49, 52
16, 102839, Note_on_c, 14, 49, 0
16, 103200, Note_on_c, 14, 45, 52
16, 103679, Note_on_c, 14, 45, 0
16, 103680, Note_on_c, 14, 50, 52
16, 104159, Note_on_c, 14, 50, 0
16, 104160, Note_on_c, 14, 45, 52
16, 104639, Note_on_c, 14, 45, 0
16, 104640, Note_on_c, 14, 50, 52
16, 105104, Note_on_c, 14, 50, 0
16, 105120, Note_on_c, 14, 44, 52
16, 105584, Note_on_c, 14, 44, 0
16, 105600, Note_on_c, 14, 49, 52
16, 105771, Note_on_c, 14, 49, 0
16, 105780, Note_on_c, 14, 61, 52
16, 105824, Note_on_c, 14, 61, 0
16, 105840, Note_on_c, 14, 61, 76
16, 106071, Note_on_c, 14, 61, 0
16, 106080, Note_on_c, 14, 44, 52
16, 106251, Note_on_c, 14, 44, 0
16, 106260, Note_on_c, 14, 56, 52
16, 106304, Note_on_c, 14, 56, 0
16, 106320, Note_on_c, 14, 56, 76
16, 106551, Note_on_c, 14, 56, 0
16, 106560, Note_on_c, 14, 49, 52
16, 106731, Note_on_c, 14, 49, 0
16, 106740, Note_on_c, 14, 61, 52
16, 106784, Note_on_c, 14, 61, 0
16, 106800, Note_on_c, 14, 61, 76
16, 107031, Note_on_c, 14, 61, 0
16, 107040, Note_on_c, 14, 44, 52
16, 107211, Note_on_c, 14, 44, 0
16, 107220, Note_on_c, 14, 56, 52
16, 107264, Note_on_c, 14, 56, 0
16, 107280, Note_on_c, 14, 56, 76
16, 107511, Note_on_c, 14, 56, 0
16, 107520, Note_on_c, 14, 49, 52
16, 107639, Note_on_c, 14, 49, 0
16, 108000, Note_on_c, 14, 45, 52
16, 108479, Note_on_c, 14, 45, 0
16, 108480, Note_on_c, 14, 50, 52
16, 108959, Note_on_c, 14, 50, 0
16, 108960, Note_on_c, 14, 45, 52
16, 109439, Note_on_c, 14, 45, 0
16, 110580, Note_on_c, 14, 55, 58
16, 110639, Note_on_c, 14, 55, 0
16, 110640, Note_on_c, 14, 52, 58
16, 110759, Note_on_c, 14, 52, 0
16, 110820, Note_on_c, 14, 49, 59
16, 110879, Note_on_c, 14, 49, 0
16, 110880, Note_on_c, 14, 52, 60
16, 110999, Note_on_c, 14, 52, 0
16, 111060, Note_on_c, 14, 55, 61
16, 111119, Note_on_c, 14, 55, 0
16, 111120, Note_on_c, 14, 57, 61
16, 111239, Note_on_c, 14, 57, 0
16, 111300, Note_on_c, 14, 61, 62
16, 111359, Note_on_c, 14, 61, 0
16, 111360, Note_on_c, 14, 64, 62
16, 111479, Note_on_c, 14, 64, 0
16, 111600, Note_on_c, 14, 49, 64
16, 111719, Note_on_c, 14, 49, 0
16, 112080, Note_on_c, 14, 50, 66
16, 112199, Note_on_c, 14, 50, 0
16, 112560, Note_on_c, 14, 45, 69
16, 112679, Note_on_c, 14, 45, 0
16, 113040, Note_on_c, 14, 45, 72
16, 113159, Note_on_c, 14, 45, 0
16, 113460, Note_on_c, 14, 55, 74
16, 113519, Note_on_c, 14, 55, 0
16, 113520, Note_on_c, 14, 52, 74
16, 113639, Note_on_c, 14, 52, 0
16, 113700, Note_on_c, 14, 49, 75
16, 113759, Note_on_c, 14, 49, 0
16, 113760, Note_on_c, 14, 52, 76
16, 113879, Note_on_c, 14, 52, 0
16, 113940, Note_on_c, 14, 55, 77
16, 113999, Note_on_c, 14, 55, 0
16, 114000, Note_on_c, 14, 57, 77
16, 114119, Note_on_c, 14, 57, 0
16, 114180, Note_on_c, 14, 61, 78
16, 114239, Note_on_c, 14, 61, 0
16, 114240, Note_on_c, 14, 64, 78
16, 114359, Note_on_c, 14, 64, 0
16, 114480, Note_on_c, 14, 49, 80
16, 114599, Note_on_c, 14, 49, 0
16, 114960, Note_on_c, 14, 50, 82
16, 115079, Note_on_c, 14, 50, 0
16, 115200, Note_on_c, 14, 36, 84
16, 115251, Note_on_c, 14, 36, 0
16, 115260, Note_on_c, 14, 36, 84
16, 115311, Note_on_c, 14, 36, 0
16, 115320, Note_on_c, 14, 36, 84
16, 115371, Note_on_c, 14, 36, 0
16, 115380, Note_on_c, 14, 36, 84
16, 115431, Note_on_c, 14, 36, 0
16, 115440, Note_on_c, 14, 36, 84
16, 115491, Note_on_c, 14, 36, 0
16, 115500, Note_on_c, 14, 36, 84
16, 115551, Note_on_c, 14, 36, 0
16, 115560, Note_on_c, 14, 36, 84
16, 115611, Note_on_c, 14, 36, 0
16, 115620, Note_on_c, 14, 36, 84
16, 115671, Note_on_c, 14, 36, 0
16, 115680, Note_on_c, 14, 36, 84
16, 115731, Note_on_c, 14, 36, 0
16, 115740, Note_on_c, 14, 36, 84
16, 115791, Note_on_c, 14, 36, 0
16, 115800, Note_on_c, 14, 36, 84
16, 115851, Note_on_c, 14, 36, 0
16, 115860, Note_on_c, 14, 36, 84
16, 115911, Note_on_c, 14, 36, 0
16, 115920, Note_on_c, 14, 36, 84
16, 115971, Note_on_c, 14, 36, 0
16, 115980, Note_on_c, 14, 36, 84
16, 116031, Note_on_c, 14, 36, 0
16, 116040, Note_on_c, 14, 36, 84
16, 116091, Note_on_c, 14, 36, 0
16, 116100, Note_on_c, 14, 36, 84
16, 116151, Note_on_c, 14, 36, 0
16, 116160, Note_on_c, 14, 37, 92
16, 116211, Note_on_c, 14, 37, 0
16, 116220, Note_on_c, 14, 37, 84
16, 116271, Note_on_c, 14, 37, 0
16, 116280, Note_on_c, 14, 37, 84
16, 116331, Note_on_c, 14, 37, 0
16, 116340, Note_on_c, 14, 37, 84
16, 116391, Note_on_c, 14, 37, 0
16, 116400, Note_on_c, 14, 37, 84
16, 116451, Note_on_c, 14, 37, 0
16, 116460, Note_on_c, 14, 37, 84
16, 116511, Note_on_c, 14, 37, 0
16, 116520, Note_on_c, 14, 37, 84
16, 116571, Note_on_c, 14, 37, 0
16, 116580, Note_on_c, 14, 37, 84
16, 116631, Note_on_c, 14, 37, 0
16, 116640, Note_on_c, 14, 36, 92
16, 116691, Note_on_c, 14, 36, 0
16, 116700, Note_on_c, 14, 36, 84
16, 116751, Note_on_c, 14, 36, 0
16, 116760, Note_on_c, 14, 36, 84
16, 116811, Note_on_c, 14, 36, 0
16, 116820, Note_on_c, 14, 36, 84
16, 116871, Note_on_c, 14, 36, 0
16, 116880, Note_on_c, 14, 36, 84
16, 116931, Note_on_c, 14, 36, 0
16, 116940, Note_on_c, 14, 36, 84
16, 116991, Note_on_c, 14, 36, 0
16, 117000, Note_on_c, 14, 36, 84
16, 117051, Note_on_c, 14, 36, 0
16, 117060, Note_on_c, 14, 36, 84
16, 117111, Note_on_c, 14, 36, 0
16, 117120, Note_on_c, 14, 37, 92
16, 117171, Note_on_c, 14, 37, 0
16, 117180, Note_on_c, 14, 37, 84
16, 117231, Note_on_c, 14, 37, 0
16, 117240, Note_on_c, 14, 37, 84
16, 117291, Note_on_c, 14, 37, 0
16, 117300, Note_on_c, 14, 37, 84
16, 117351, Note_on_c, 14, 37, 0
16, 117360, Note_on_c, 14, 37, 84
16, 117411, Note_on_c, 14, 37, 0
16, 117420, Note_on_c, 14, 37, 84
16, 117471, Note_on_c, 14, 37, 0
16, 117480, Note_on_c, 14, 37, 84
16, 117531, Note_on_c, 14, 37, 0
16, 117540, Note_on_c, 14, 37, 84
16, 117591, Note_on_c, 14, 37, 0
16, 117600, Note_on_c, 14, 36, 92
16, 117651, Note_on_c, 14, 36, 0
16, 117660, Note_on_c, 14, 36, 84
16, 117711, Note_on_c, 14, 36, 0
16, 117720, Note_on_c, 14, 36, 84
16, 117771, Note_on_c, 14, 36, 0
16, 117780, Note_on_c, 14, 36, 84
16, 117831, Note_on_c, 14, 36, 0
16, 117840, Note_on_c, 14, 36, 84
16, 117891, Note_on_c, 14, 36, 0
16, 117900, Note_on_c, 14, 36, 84
16, 117951, Note_on_c, 14, 36, 0
16, 117960, Note_on_c, 14, 36, 84
16, 118011, Note_on_c, 14, 36, 0
16, 118020, Note_on_c, 14, 36, 84
16, 118071, Note_on_c, 14, 36, 0
16, 118080, Note_on_c, 14, 37, 92
16, 118131, Note_on_c, 14, 37, 0
16, 118140, Note_on_c, 14, 37, 84
16, 118191, Note_on_c, 14, 37, 0
16, 118200, Note_on_c, 14, 37, 84
16, 118251, Note_on_c, 14, 37, 0
16, 118260, Note_on_c, 14, 37, 84
16, 118311, Note_on_c, 14, 37, 0
16, 118320, Note_on_c, 14, 37, 84
16, 118371, Note_on_c, 14, 37, 0
16, 118380, Note_on_c, 14, 37, 84
16, 118431, Note_on_c, 14, 37, 0
16, 118440, Note_on_c, 14, 37, 84
16, 118491, Note_on_c, 14, 37, 0
16, 118500, Note_on_c, 14, 37, 84
16, 118551, Note_on_c, 14, 37, 0
16, 118560, Note_on_c, 14, 42, 92
16, 118611, Note_on_c, 14, 42, 0
16, 118620, Note_on_c, 14, 42, 84
16, 118671, Note_on_c, 14, 42, 0
16, 118680, Note_on_c, 14, 42, 84
16, 118731, Note_on_c, 14, 42, 0
16, 118740, Note_on_c, 14, 42, 84
16, 118791, Note_on_c, 14, 42, 0
16, 118800, Note_on_c, 14, 42, 84
16, 118851, Note_on_c, 14, 42, 0
16, 118860, Note_on_c, 14, 42, 84
16, 118911, Note_on_c, 14, 42, 0
16, 118920, Note_on_c, 14, 42, 84
16, 118971, Note_on_c, 14, 42, 0
16, 118980, Note_on_c, 14, 42, 84
16, 119031, Note_on_c, 14, 42, 0
16, 119040, Note_on_c, 14, 44, 92
16, 119091, Note_on_c, 14, 44, 0
16, 119100, Note_on_c, 14, 44, 84
16, 119151, Note_on_c, 14, 44, 0
16, 119160, Note_on_c, 14, 44, 84
16, 119211, Note_on_c, 14, 44, 0
16, 119220, Note_on_c, 14, 44, 84
16, 119271, Note_on_c, 14, 44, 0
16, 119280, Note_on_c, 14, 44, 84
16, 119331, Note_on_c, 14, 44, 0
16, 119340, Note_on_c, 14, 44, 84
16, 119391, Note_on_c, 14, 44, 0
16, 119400, Note_on_c, 14, 44, 84
16, 119451, Note_on_c, 14, 44, 0
16, 119460, Note_on_c, 14, 44, 84
16, 119511, Note_on_c, 14, 44, 0
16, 119520, Note_on_c, 14, 44, 92
16, 119571, Note_on_c, 14, 44, 0
16, 119580, Note_on_c, 14, 44, 84
16, 119631, Note_on_c, 14, 44, 0
16, 119640, Note_on_c, 14, 44, 84
16, 119691, Note_on_c, 14, 44, 0
16, 119700, Note_on_c, 14, 44, 84
16, 119751, Note_on_c, 14, 44, 0
16, 119760, Note_on_c, 14, 44, 84
16, 119811, Note_on_c, 14, 44, 0
16, 119820, Note_on_c, 14, 44, 84
16, 119871, Note_on_c, 14, 44, 0
16, 119880, Note_on_c, 14, 44, 84
16, 119931, Note_on_c, 14, 44, 0
16, 119940, Note_on_c, 14, 44, 84
16, 119991, Note_on_c, 14, 44, 0
16, 120000, Note_on_c, 14, 37, 84
16, 120051, Note_on_c, 14, 37, 0
16, 120060, Note_on_c, 14, 37, 84
16, 120111, Note_on_c, 14, 37, 0
16, 120120, Note_on_c, 14, 37, 84
16, 120171, Note_on_c, 14, 37, 0
16, 120180, Note_on_c, 14, 37, 84
16, 120231, Note_on_c, 14, 37, 0
16, 120240, Note_on_c, 14, 37, 92
16, 120291, Note_on_c, 14, 37, 0
16, 120300, Note_on_c, 14, 37, 84
16, 120351, Note_on_c, 14, 37, 0
16, 120360, Note_on_c, 14, 37, 84
16, 120411, Note_on_c, 14, 37, 0
16, 120420, Note_on_c, 14, 37, 84
16, 120471, Note_on_c, 14, 37, 0
16, 120480, Note_on_c, 14, 37, 84
16, 120531, Note_on_c, 14, 37, 0
16, 120540, Note_on_c, 14, 37, 84
16, 120591, Note_on_c, 14, 37, 0
16, 120600, Note_on_c, 14, 37, 84
16, 120651, Note_on_c, 14, 37, 0
16, 120660, Note_on_c, 14, 37, 84
16, 120711, Note_on_c, 14, 37, 0
16, 120720, Note_on_c, 14, 37, 84
16, 120771, Note_on_c, 14, 37, 0
16, 120780, Note_on_c, 14, 37, 84
16, 120831, Note_on_c, 14, 37, 0
16, 120840, Note_on_c, 14, 37, 84
16, 120891, Note_on_c, 14, 37, 0
16, 120900, Note_on_c, 14, 37, 84
16, 120951, Note_on_c, 14, 37, 0
16, 120960, Note_on_c, 14, 37, 84
16, 121011, Note_on_c, 14, 37, 0
16, 121020, Note_on_c, 14, 37, 84
16, 121071, Note_on_c, 14, 37, 0
16, 121080, Note_on_c, 14, 37, 84
16, 121131, Note_on_c, 14, 37, 0
16, 121140, Note_on_c, 14, 37, 84
16, 121191, Note_on_c, 14, 37, 0
16, 121200, Note_on_c, 14, 37, 92
16, 121251, Note_on_c, 14, 37, 0
16, 121260, Note_on_c, 14, 37, 84
16, 121311, Note_on_c, 14, 37, 0
16, 121320, Note_on_c, 14, 37, 84
16, 121371, Note_on_c, 14, 37, 0
16, 121380, Note_on_c, 14, 37, 84
16, 121431, Note_on_c, 14, 37, 0
16, 121440, Note_on_c, 14, 37, 84
16, 121491, Note_on_c, 14, 37, 0
16, 121500, Note_on_c, 14, 37, 84
16, 121551, Note_on_c, 14, 37, 0
16, 121560, Note_on_c, 14, 37, 84
16, 121611, Note_on_c, 14, 37, 0
16, 121620, Note_on_c, 14, 37, 84
16, 121671, Note_on_c, 14, 37, 0
16, 121680, Note_on_c, 14, 37, 84
16, 121731, Note_on_c, 14, 37, 0
16, 121740, Note_on_c, 14, 37, 84
16, 121791, Note_on_c, 14, 37, 0
16, 121800, Note_on_c, 14, 37, 84
16, 121851, Note_on_c, 14, 37, 0
16, 121860, Note_on_c, 14, 37, 84
16, 121911, Note_on_c, 14, 37, 0
16, 121920, Note_on_c, 14, 37, 84
16, 121971, Note_on_c, 14, 37, 0
16, 121980, Note_on_c, 14, 37, 84
16, 122031, Note_on_c, 14, 37, 0
16, 122040, Note_on_c, 14, 37, 84
16, 122091, Note_on_c, 14, 37, 0
16, 122100, Note_on_c, 14, 37, 84
16, 122151, Note_on_c, 14, 37, 0
16, 122160, Note_on_c, 14, 37, 92
16, 122211, Note_on_c, 14, 37, 0
16, 122220, Note_on_c, 14, 37, 84
16, 122271, Note_on_c, 14, 37, 0
16, 122280, Note_on_c, 14, 37, 84
16, 122331, Note_on_c, 14, 37, 0
16, 122340, Note_on_c, 14, 37, 84
16, 122391, Note_on_c, 14, 37, 0
16, 122400, Note_on_c, 14, 37, 84
16, 122451, Note_on_c, 14, 37, 0
16, 122460, Note_on_c, 14, 37, 84
16, 122511, Note_on_c, 14, 37, 0
16, 122520, Note_on_c, 14, 37, 84
16, 122571, Note_on_c, 14, 37, 0
16, 122580, Note_on_c, 14, 37, 84
16, 122631, Note_on_c, 14, 37, 0
16, 122640, Note_on_c, 14, 37, 92
16, 122691, Note_on_c, 14, 37, 0
16, 122700, Note_on_c, 14, 37, 84
16, 122751, Note_on_c, 14, 37, 0
16, 122760, Note_on_c, 14, 37, 84
16, 122811, Note_on_c, 14, 37, 0
16, 122820, Note_on_c, 14, 37, 84
16, 122871, Note_on_c, 14, 37, 0
16, 122880, Note_on_c, 14, 37, 84
16, 122931, Note_on_c, 14, 37, 0
16, 122940, Note_on_c, 14, 37, 84
16, 122991, Note_on_c, 14, 37, 0
16, 123000, Note_on_c, 14, 37, 84
16, 123051, Note_on_c, 14, 37, 0
16, 123060, Note_on_c, 14, 37, 84
16, 123111, Note_on_c, 14, 37, 0
16, 123120, Note_on_c, 14, 37, 92
16, 123171, Note_on_c, 14, 37, 0
16, 123180, Note_on_c, 14, 37, 84
16, 123231, Note_on_c, 14, 37, 0
16, 123240, Note_on_c, 14, 37, 84
16, 123291, Note_on_c, 14, 37, 0
16, 123300, Note_on_c, 14, 37, 84
16, 123351, Note_on_c, 14, 37, 0
16, 123360, Note_on_c, 14, 37, 84
16, 123411, Note_on_c, 14, 37, 0
16, 123420, Note_on_c, 14, 37, 84
16, 123471, Note_on_c, 14, 37, 0
16, 123480, Note_on_c, 14, 37, 84
16, 123531, Note_on_c, 14, 37, 0
16, 123540, Note_on_c, 14, 37, 84
16, 123591, Note_on_c, 14, 37, 0
16, 123600, Note_on_c, 14, 37, 84
16, 123651, Note_on_c, 14, 37, 0
16, 123660, Note_on_c, 14, 37, 84
16, 123711, Note_on_c, 14, 37, 0
16, 123720, Note_on_c, 14, 37, 84
16, 123771, Note_on_c, 14, 37, 0
16, 123780, Note_on_c, 14, 37, 84
16, 123831, Note_on_c, 14, 37, 0
16, 123840, Note_on_c, 14, 37, 84
16, 123959, Note_on_c, 14, 37, 0
16, 124800, Note_on_c, 14, 36, 84
16, 124919, Note_on_c, 14, 36, 0
16, 125760, Note_on_c, 14, 36, 84
16, 125879, Note_on_c, 14, 36, 0
16, 126000, Note_on_c, 14, 36, 92
16, 126239, Note_on_c, 14, 36, 0
16, 126240, Note_on_c, 14, 36, 84
16, 126359, Note_on_c, 14, 36, 0
16, 126480, Note_on_c, 14, 36, 92
16, 126719, Note_on_c, 14, 36, 0
16, 126720, Note_on_c, 14, 36, 84
16, 126839, Note_on_c, 14, 36, 0
16, 126960, Note_on_c, 14, 36, 92
16, 127199, Note_on_c, 14, 36, 0
16, 127200, Note_on_c, 14, 41, 84
16, 127319, Note_on_c, 14, 41, 0
16, 128160, Note_on_c, 14, 44, 76
16, 128339, Note_on_c, 14, 44, 0
16, 128340, Note_on_c, 14, 52, 76
16, 128391, Note_on_c, 14, 52, 0
16, 128400, Note_on_c, 14, 52, 84
16, 128639, Note_on_c, 14, 52, 0
16, 128640, Note_on_c, 14, 52, 76
16, 129104, Note_on_c, 14, 52, 0
16, 129120, Note_on_c, 14, 40, 76
16, 129239, Note_on_c, 14, 40, 0
16, 129360, Note_on_c, 14, 40, 84
16, 129599, Note_on_c, 14, 40, 0
16, 129600, Note_on_c, 14, 40, 76
16, 129719, Note_on_c, 14, 40, 0
16, 129840, Note_on_c, 14, 40, 84
16, 130079, Note_on_c, 14, 40, 0
16, 130080, Note_on_c, 14, 40, 76
16, 130199, Note_on_c, 14, 40, 0
16, 130320, Note_on_c, 14, 40, 84
16, 130559, Note_on_c, 14, 40, 0
16, 130560, Note_on_c, 14, 45, 76
16, 130679, Note_on_c, 14, 45, 0
16, 131520, Note_on_c, 14, 39, 76
16, 131699, Note_on_c, 14, 39, 0
16, 131700, Note_on_c, 14, 47, 76
16, 131751, Note_on_c, 14, 47, 0
16, 131760, Note_on_c, 14, 47, 84
16, 131999, Note_on_c, 14, 47, 0
16, 132000, Note_on_c, 14, 47, 76
16, 132464, Note_on_c, 14, 47, 0
16, 132480, Note_on_c, 14, 38, 76
16, 132599, Note_on_c, 14, 38, 0
16, 133440, Note_on_c, 14, 37, 76
16, 133619, Note_on_c, 14, 37, 0
16, 133620, Note_on_c, 14, 45, 76
16, 133671, Note_on_c, 14, 45, 0
16, 133680, Note_on_c, 14, 45, 84
16, 133919, Note_on_c, 14, 45, 0
16, 133920, Note_on_c, 14, 45, 76
16, 134384, Note_on_c, 14, 45, 0
16, 134400, Note_on_c, 14, 36, 76
16, 134519, Note_on_c, 14, 36, 0
16, 134880, Note_on_c, 14, 36, 76
16, 135059, Note_on_c, 14, 36, 0
16, 135060, Note_on_c, 14, 44, 76
16, 135111, Note_on_c, 14, 44, 0
16, 135120, Note_on_c, 14, 44, 84
16, 135344, Note_on_c, 14, 44, 0
16, 135360, Note_on_c, 14, 43, 76
16, 135479, Note_on_c, 14, 43, 0
16, 135600, Note_on_c, 14, 43, 84
16, 135839, Note_on_c, 14, 43, 0
16, 135840, Note_on_c, 14, 43, 76
16, 135959, Note_on_c, 14, 43, 0
16, 136080, Note_on_c, 14, 43, 84
16, 136319, Note_on_c, 14, 43, 0
16, 136320, Note_on_c, 14, 43, 76
16, 136439, Note_on_c, 14, 43, 0
16, 136560, Note_on_c, 14, 43, 84
16, 136799, Note_on_c, 14, 43, 0
16, 136800, Note_on_c, 14, 43, 76
16, 136919, Note_on_c, 14, 43, 0
16, 137040, Note_on_c, 14, 43, 84
16, 137279, Note_on_c, 14, 43, 0
16, 137280, Note_on_c, 14, 43, 76
16, 137399, Note_on_c, 14, 43, 0
16, 137520, Note_on_c, 14, 43, 84
16, 137759, Note_on_c, 14, 43, 0
16, 137760, Note_on_c, 14, 43, 76
16, 137879, Note_on_c, 14, 43, 0
16, 138000, Note_on_c, 14, 43, 84
16, 138239, Note_on_c, 14, 43, 0
16, 138240, Note_on_c, 14, 43, 76
16, 138359, Note_on_c, 14, 43, 0
16, 138480, Note_on_c, 14, 43, 84
16, 138719, Note_on_c, 14, 43, 0
16, 138720, Note_on_c, 14, 48, 76
16, 138839, Note_on_c, 14, 48, 0
16, 139200, Note_on_c, 14, 43, 76
16, 139319, Note_on_c, 14, 43, 0
16, 139440, Note_on_c, 14, 43, 84
16, 139679, Note_on_c, 14, 43, 0
16, 139680, Note_on_c, 14, 43, 76
16, 139799, Note_on_c, 14, 43, 0
16, 139920, Note_on_c, 14, 43, 84
16, 140159, Note_on_c, 14, 43, 0
16, 140160, Note_on_c, 14, 43, 76
16, 140279, Note_on_c, 14, 43, 0
16, 140400, Note_on_c, 14, 43, 84
16, 140639, Note_on_c, 14, 43, 0
16, 140640, Note_on_c, 14, 43, 76
16, 140759, Note_on_c, 14, 43, 0
16, 140880, Note_on_c, 14, 43, 84
16, 141119, Note_on_c, 14, 43, 0
16, 141120, Note_on_c, 14, 43, 76
16, 141239, Note_on_c, 14, 43, 0
16, 141360, Note_on_c, 14, 43, 84
16, 141599, Note_on_c, 14, 43, 0
16, 141600, Note_on_c, 14, 43, 76
16, 141719, Note_on_c, 14, 43, 0
16, 141840, Note_on_c, 14, 43, 84
16, 142079, Note_on_c, 14, 43, 0
16, 142080, Note_on_c, 14, 43, 76
16, 142199, Note_on_c, 14, 43, 0
16, 142320, Note_on_c, 14, 43, 84
16, 142559, Note_on_c, 14, 43, 0
16, 142560, Note_on_c, 14, 48, 76
16, 142679, Note_on_c, 14, 48, 0
16, 143040, Note_on_c, 14, 41, 76
16, 143159, Note_on_c, 14, 41, 0
16, 143280, Note_on_c, 14, 41, 84
16, 143519, Note_on_c, 14, 41, 0
16, 143520, Note_on_c, 14, 40, 76
16, 143639, Note_on_c, 14, 40, 0
16, 143760, Note_on_c, 14, 40, 84
16, 143999, Note_on_c, 14, 40, 0
16, 144000, Note_on_c, 14, 41, 76
16, 144119, Note_on_c, 14, 41, 0
16, 144240, Note_on_c, 14, 41, 84
16, 144479, Note_on_c, 14, 41, 0
16, 144480, Note_on_c, 14, 40, 76
16, 144599, Note_on_c, 14, 40, 0
16, 144720, Note_on_c, 14, 41, 84
16, 144959, Note_on_c, 14, 41, 0
16, 144960, Note_on_c, 14, 50, 76
16, 145079, Note_on_c, 14, 50, 0
16, 145200, Note_on_c, 14, 43, 84
16, 145439, Note_on_c, 14, 43, 0
16, 145440, Note_on_c, 14, 48, 76
16, 145559, Note_on_c, 14, 48, 0
16, 145680, Note_on_c, 14, 40, 84
16, 145919, Note_on_c, 14, 40, 0
16, 145920, Note_on_c, 14, 43, 76
16, 146039, Note_on_c, 14, 43, 0
16, 146160, Note_on_c, 14, 43, 84
16, 146399, Note_on_c, 14, 43, 0
16, 146400, Note_on_c, 14, 48, 76
16, 146519, Note_on_c, 14, 48, 0
16, 146880, Note_on_c, 14, 41, 76
16, 146999, Note_on_c, 14, 41, 0
16, 147120, Note_on_c, 14, 41, 84
16, 147359, Note_on_c, 14, 41, 0
16, 147360, Note_on_c, 14, 40, 76
16, 147479, Note_on_c, 14, 40, 0
16, 147600, Note_on_c, 14, 40, 84
16, 147839, Note_on_c, 14, 40, 0
16, 147840, Note_on_c, 14, 41, 76
16, 147959, Note_on_c, 14, 41, 0
16, 148080, Note_on_c, 14, 41, 84
16, 148319, Note_on_c, 14, 41, 0
16, 148320, Note_on_c, 14, 40, 76
16, 148439, Note_on_c, 14, 40, 0
16, 148560, Note_on_c, 14, 41, 84
16, 148799, Note_on_c, 14, 41, 0
16, 148800, Note_on_c, 14, 50, 76
16, 148919, Note_on_c, 14, 50, 0
16, 149040, Note_on_c, 14, 43, 84
16, 149279, Note_on_c, 14, 43, 0
16, 149280, Note_on_c, 14, 48, 76
16, 149399, Note_on_c, 14, 48, 0
16, 149520, Note_on_c, 14, 40, 84
16, 149759, Note_on_c, 14, 40, 0
16, 149760, Note_on_c, 14, 43, 76
16, 149879, Note_on_c, 14, 43, 0
16, 150000, Note_on_c, 14, 43, 84
16, 150239, Note_on_c, 14, 43, 0
16, 150240, Note_on_c, 14, 48, 76
16, 150359, Note_on_c, 14, 48, 0
16, 150600, Note_on_c, 14, 61, 84
16, 150719, Note_on_c, 14, 61, 0
16, 150720, Note_on_c, 14, 62, 76
16, 150959, Note_on_c, 14, 62, 0
16, 151080, Note_on_c, 14, 59, 84
16, 151199, Note_on_c, 14, 59, 0
16, 151200, Note_on_c, 14, 60, 76
16, 151439, Note_on_c, 14, 60, 0
16, 151560, Note_on_c, 14, 57, 76
16, 151679, Note_on_c, 14, 57, 0
16, 151680, Note_on_c, 14, 55, 76
16, 151919, Note_on_c, 14, 55, 0
16, 152040, Note_on_c, 14, 55, 76
16, 152159, Note_on_c, 14, 55, 0
16, 152160, Note_on_c, 14, 48, 76
16, 152399, Note_on_c, 14, 48, 0
16, 152520, Note_on_c, 14, 58, 76
16, 152639, Note_on_c, 14, 58, 0
16, 152640, Note_on_c, 14, 57, 76
16, 152879, Note_on_c, 14, 57, 0
16, 153000, Note_on_c, 14, 62, 76
16, 153119, Note_on_c, 14, 62, 0
16, 153120, Note_on_c, 14, 58, 76
16, 153359, Note_on_c, 14, 58, 0
16, 153480, Note_on_c, 14, 58, 76
16, 153599, Note_on_c, 14, 58, 0
16, 153600, Note_on_c, 14, 60, 76
16, 153839, Note_on_c, 14, 60, 0
16, 153960, Note_on_c, 14, 60, 76
16, 154079, Note_on_c, 14, 60, 0
16, 154080, Note_on_c, 14, 53, 76
16, 154319, Note_on_c, 14, 53, 0
16, 154440, Note_on_c, 14, 65, 76
16, 154559, Note_on_c, 14, 65, 0
16, 154560, Note_on_c, 14, 62, 76
16, 154799, Note_on_c, 14, 62, 0
16, 154920, Note_on_c, 14, 62, 76
16, 155039, Note_on_c, 14, 62, 0
16, 155040, Note_on_c, 14, 55, 76
16, 155279, Note_on_c, 14, 55, 0
16, 155400, Note_on_c, 14, 55, 76
16, 155519, Note_on_c, 14, 55, 0
16, 155520, Note_on_c, 14, 57, 76
16, 155759, Note_on_c, 14, 57, 0
16, 155880, Note_on_c, 14, 57, 76
16, 155999, Note_on_c, 14, 57, 0
16, 156000, Note_on_c, 14, 50, 76
16, 156119, Note_on_c, 14, 50, 0
16, 156240, Note_on_c, 14, 62, 84
16, 156479, Note_on_c, 14, 62, 0
16, 156480, Note_on_c, 14, 65, 76
16, 156599, Note_on_c, 14, 65, 0
16, 156720, Note_on_c, 14, 57, 84
16, 156959, Note_on_c, 14, 57, 0
16, 156960, Note_on_c, 14, 62, 76
16, 157079, Note_on_c, 14, 62, 0
16, 157200, Note_on_c, 14, 53, 84
16, 157439, Note_on_c, 14, 53, 0
16, 157440, Note_on_c, 14, 57, 84
16, 157559, Note_on_c, 14, 57, 0
16, 157680, Note_on_c, 14, 50, 84
16, 157919, Note_on_c, 14, 50, 0
16, 157920, Note_on_c, 14, 53, 76
16, 158039, Note_on_c, 14, 53, 0
16, 158160, Note_on_c, 14, 45, 84
16, 158399, Note_on_c, 14, 45, 0
16, 158400, Note_on_c, 14, 50, 76
16, 158519, Note_on_c, 14, 50, 0
16, 158640, Note_on_c, 14, 41, 76
16, 158879, Note_on_c, 14, 41, 0
16, 158880, Note_on_c, 14, 45, 76
16, 158999, Note_on_c, 14, 45, 0
16, 159120, Note_on_c, 14, 41, 76
16, 159359, Note_on_c, 14, 41, 0
16, 159360, Note_on_c, 14, 45, 76
16, 159479, Note_on_c, 14, 45, 0
16, 159600, Note_on_c, 14, 42, 76
16, 159839, Note_on_c, 14, 42, 0
16, 159840, Note_on_c, 14, 45, 76
16, 159959, Note_on_c, 14, 45, 0
16, 160080, Note_on_c, 14, 42, 76
16, 160319, Note_on_c, 14, 42, 0
16, 160320, Note_on_c, 14, 46, 76
16, 160439, Note_on_c, 14, 46, 0
16, 160560, Note_on_c, 14, 43, 76
16, 160799, Note_on_c, 14, 43, 0
16, 160800, Note_on_c, 14, 46, 76
16, 160919, Note_on_c, 14, 46, 0
16, 161040, Note_on_c, 14, 43, 76
16, 161279, Note_on_c, 14, 43, 0
16, 161280, Note_on_c, 14, 47, 76
16, 161399, Note_on_c, 14, 47, 0
16, 161520, Note_on_c, 14, 44, 76
16, 161759, Note_on_c, 14, 44, 0
16, 161760, Note_on_c, 14, 47, 76
16, 161879, Note_on_c, 14, 47, 0
16, 162000, Note_on_c, 14, 44, 76
16, 162239, Note_on_c, 14, 44, 0
16, 162240, Note_on_c, 14, 48, 76
16, 162359, Note_on_c, 14, 48, 0
16, 162480, Note_on_c, 14, 45, 76
16, 162719, Note_on_c, 14, 45, 0
16, 162720, Note_on_c, 14, 49, 76
16, 162839, Note_on_c, 14, 49, 0
16, 162960, Note_on_c, 14, 46, 76
16, 163199, Note_on_c, 14, 46, 0
16, 163200, Note_on_c, 14, 50, 76
16, 163319, Note_on_c, 14, 50, 0
16, 163440, Note_on_c, 14, 47, 76
16, 163679, Note_on_c, 14, 47, 0
16, 163680, Note_on_c, 14, 51, 76
16, 163799, Note_on_c, 14, 51, 0
16, 163920, Note_on_c, 14, 48, 76
16, 164159, Note_on_c, 14, 48, 0
16, 164160, Note_on_c, 14, 52, 76
16, 164279, Note_on_c, 14, 52, 0
16, 164400, Note_on_c, 14, 49, 76
16, 164639, Note_on_c, 14, 49, 0
16, 164640, Note_on_c, 14, 52, 76
16, 164759, Note_on_c, 14, 52, 0
16, 164880, Note_on_c, 14, 50, 76
16, 165119, Note_on_c, 14, 50, 0
16, 165120, Note_on_c, 14, 52, 76
16, 165239, Note_on_c, 14, 52, 0
16, 165360, Note_on_c, 14, 51, 76
16, 165599, Note_on_c, 14, 51, 0
16, 165600, Note_on_c, 14, 52, 76
16, 165719, Note_on_c, 14, 52, 0
16, 165840, Note_on_c, 14, 51, 76
16, 166079, Note_on_c, 14, 51, 0
16, 166080, Note_on_c, 14, 52, 76
16, 166080, Control_c, 14, 11, 127
16, 166120, Control_c, 14, 11, 126
16, 166160, Control_c, 14, 11, 124
16, 166199, Note_on_c, 14, 52, 0
16, 166200, Control_c, 14, 11, 123
16, 166240, Control_c, 14, 11, 122
16, 166280, Control_c, 14, 11, 120
16, 166320, Note_on_c, 14, 51, 76
16, 166320, Control_c, 14, 11, 119
16, 166360, Control_c, 14, 11, 118
16, 166400, Control_c, 14, 11, 117
16, 166440, Control_c, 14, 11, 115
16, 166480, Control_c, 14, 11, 114
16, 166520, Control_c, 14, 11, 113
16, 166559, Note_on_c, 14, 51, 0
16, 166560, Control_c, 14, 11, 111
16, 166560, Note_on_c, 14, 52, 76
16, 166600, Control_c, 14, 11, 110
16, 166640, Control_c, 14, 11, 109
16, 166679, Note_on_c, 14, 52, 0
16, 166680, Control_c, 14, 11, 107
16, 166720, Control_c, 14, 11, 106
16, 166760, Control_c, 14, 11, 105
16, 166800, Note_on_c, 14, 51, 76
16, 166800, Control_c, 14, 11, 103
16, 166840, Control_c, 14, 11, 102
16, 166880, Control_c, 14, 11, 101
16, 166920, Control_c, 14, 11, 99
16, 166960, Control_c, 14, 11, 98
16, 167000, Control_c, 14, 11, 97
16, 167039, Note_on_c, 14, 51, 0
16, 167040, Note_on_c, 14, 52, 76
16, 167040, Control_c, 14, 11, 96
16, 167080, Control_c, 14, 11, 94
16, 167120, Control_c, 14, 11, 93
16, 167159, Note_on_c, 14, 52, 0
16, 167160, Control_c, 14, 11, 92
16, 167200, Control_c, 14, 11, 90
16, 167240, Control_c, 14, 11, 89
16, 167280, Control_c, 14, 11, 88
16, 167280, Note_on_c, 14, 51, 76
16, 167320, Control_c, 14, 11, 86
16, 167360, Control_c, 14, 11, 85
16, 167400, Control_c, 14, 11, 84
16, 167440, Control_c, 14, 11, 82
16, 167480, Control_c, 14, 11, 81
16, 167519, Note_on_c, 14, 51, 0
16, 167520, Control_c, 14, 11, 80
16, 167520, Note_on_c, 14, 52, 76
16, 167560, Control_c, 14, 11, 78
16, 167600, Control_c, 14, 11, 77
16, 167639, Note_on_c, 14, 52, 0
16, 167640, Control_c, 14, 11, 76
16, 167680, Control_c, 14, 11, 75
16, 167720, Control_c, 14, 11, 73
16, 167760, Note_on_c, 14, 52, 76
16, 167760, Control_c, 14, 11, 72
16, 167800, Control_c, 14, 11, 71
16, 167840, Control_c, 14, 11, 69
16, 167880, Control_c, 14, 11, 68
16, 167920, Control_c, 14, 11, 67
16, 167960, Control_c, 14, 11, 64
16, 167999, Note_on_c, 14, 52, 0
16, 168000, Note_on_c, 14, 53, 76
16, 168104, Note_on_c, 14, 53, 0
16, 168120, Note_on_c, 14, 53, 76
16, 168171, Note_on_c, 14, 53, 0
16, 168180, Note_on_c, 14, 53, 76
16, 168231, Note_on_c, 14, 53, 0
16, 168240, Note_on_c, 14, 53, 76
16, 168359, Note_on_c, 14, 53, 0
16, 168960, Note_on_c, 14, 53, 76
16, 169064, Note_on_c, 14, 53, 0
16, 169080, Note_on_c, 14, 53, 76
16, 169131, Note_on_c, 14, 53, 0
16, 169140, Note_on_c, 14, 53, 76
16, 169191, Note_on_c, 14, 53, 0
16, 169200, Note_on_c, 14, 53, 76
16, 169319, Note_on_c, 14, 53, 0
16, 172800, Control_c, 14, 11, 127
16, 173040, Note_on_c, 14, 38, 44
16, 173219, Note_on_c, 14, 38, 0
16, 173220, Note_on_c, 14, 46, 44
16, 173271, Note_on_c, 14, 46, 0
16, 173280, Note_on_c, 14, 41, 44
16, 173384, Note_on_c, 14, 41, 0
16, 173400, Note_on_c, 14, 53, 44
16, 173451, Note_on_c, 14, 53, 0
16, 173460, Note_on_c, 14, 53, 44
16, 173511, Note_on_c, 14, 53, 0
16, 173520, Note_on_c, 14, 53, 44
16, 173639, Note_on_c, 14, 53, 0
16, 174240, Note_on_c, 14, 53, 44
16, 174344, Note_on_c, 14, 53, 0
16, 174360, Note_on_c, 14, 53, 44
16, 174411, Note_on_c, 14, 53, 0
16, 174420, Note_on_c, 14, 53, 44
16, 174471, Note_on_c, 14, 53, 0
16, 174480, Note_on_c, 14, 53, 44
16, 174599, Note_on_c, 14, 53, 0
16, 178320, Note_on_c, 14, 38, 78
16, 178499, Note_on_c, 14, 38, 0
16, 178500, Note_on_c, 14, 47, 82
16, 178551, Note_on_c, 14, 47, 0
16, 178560, Note_on_c, 14, 40, 84
16, 178679, Note_on_c, 14, 40, 0
16, 179520, Note_on_c, 14, 40, 84
16, 179639, Note_on_c, 14, 40, 0
16, 180480, Note_on_c, 14, 40, 84
16, 180599, Note_on_c, 14, 40, 0
16, 180720, Note_on_c, 14, 40, 92
16, 180959, Note_on_c, 14, 40, 0
16, 180960, Note_on_c, 14, 40, 84
16, 181079, Note_on_c, 14, 40, 0
16, 181200, Note_on_c, 14, 40, 92
16, 181439, Note_on_c, 14, 40, 0
16, 181440, Note_on_c, 14, 40, 84
16, 181559, Note_on_c, 14, 40, 0
16, 181680, Note_on_c, 14, 40, 92
16, 181919, Note_on_c, 14, 40, 0
16, 181920, Note_on_c, 14, 40, 84
16, 182039, Note_on_c, 14, 40, 0
16, 182160, Note_on_c, 14, 40, 92
16, 182399, Note_on_c, 14, 40, 0
16, 182400, Note_on_c, 14, 40, 84
16, 182519, Note_on_c, 14, 40, 0
16, 182640, Note_on_c, 14, 40, 92
16, 182879, Note_on_c, 14, 40, 0
16, 182880, Note_on_c, 14, 40, 84
16, 182999, Note_on_c, 14, 40, 0
16, 183120, Note_on_c, 14, 40, 92
16, 183359, Note_on_c, 14, 40, 0
16, 183360, Note_on_c, 14, 40, 84
16, 183479, Note_on_c, 14, 40, 0
16, 183600, Note_on_c, 14, 40, 92
16, 183839, Note_on_c, 14, 40, 0
16, 183840, Note_on_c, 14, 45, 84
16, 183959, Note_on_c, 14, 45, 0
16, 184320, Note_on_c, 14, 40, 84
16, 184439, Note_on_c, 14, 40, 0
16, 184560, Note_on_c, 14, 40, 92
16, 184799, Note_on_c, 14, 40, 0
16, 184800, Note_on_c, 14, 40, 84
16, 184919, Note_on_c, 14, 40, 0
16, 185040, Note_on_c, 14, 40, 92
16, 185279, Note_on_c, 14, 40, 0
16, 185280, Note_on_c, 14, 40, 84
16, 185399, Note_on_c, 14, 40, 0
16, 185520, Note_on_c, 14, 40, 92
16, 185759, Note_on_c, 14, 40, 0
16, 185760, Note_on_c, 14, 40, 84
16, 185879, Note_on_c, 14, 40, 0
16, 186000, Note_on_c, 14, 40, 92
16, 186239, Note_on_c, 14, 40, 0
16, 186240, Note_on_c, 14, 40, 84
16, 186359, Note_on_c, 14, 40, 0
16, 186480, Note_on_c, 14, 40, 92
16, 186719, Note_on_c, 14, 40, 0
16, 186720, Note_on_c, 14, 40, 84
16, 186839, Note_on_c, 14, 40, 0
16, 186960, Note_on_c, 14, 40, 92
16, 187199, Note_on_c, 14, 40, 0
16, 187200, Note_on_c, 14, 40, 84
16, 187319, Note_on_c, 14, 40, 0
16, 187440, Note_on_c, 14, 40, 92
16, 187679, Note_on_c, 14, 40, 0
16, 187680, Note_on_c, 14, 45, 84
16, 187799, Note_on_c, 14, 45, 0
16, 188160, Note_on_c, 14, 45, 84
16, 188279, Note_on_c, 14, 45, 0
16, 188640, Note_on_c, 14, 40, 84
16, 188759, Note_on_c, 14, 40, 0
16, 189120, Note_on_c, 14, 40, 84
16, 189239, Note_on_c, 14, 40, 0
16, 189600, Note_on_c, 14, 45, 84
16, 189719, Note_on_c, 14, 45, 0
16, 189840, Note_on_c, 14, 45, 84
16, 189959, Note_on_c, 14, 45, 0
16, 190080, Note_on_c, 14, 45, 84
16, 190199, Note_on_c, 14, 45, 0
16, 190320, Note_on_c, 14, 45, 84
16, 190439, Note_on_c, 14, 45, 0
16, 190560, Note_on_c, 14, 40, 84
16, 190679, Note_on_c, 14, 40, 0
16, 190800, Note_on_c, 14, 40, 84
16, 190919, Note_on_c, 14, 40, 0
16, 191040, Note_on_c, 14, 40, 84
16, 191159, Note_on_c, 14, 40, 0
16, 191280, Note_on_c, 14, 40, 84
16, 191399, Note_on_c, 14, 40, 0
16, 191520, Note_on_c, 14, 45, 84
16, 191639, Note_on_c, 14, 45, 0
16, 192000, Note_on_c, 14, 45, 84
16, 192119, Note_on_c, 14, 45, 0
16, 192480, Note_on_c, 14, 40, 84
16, 192599, Note_on_c, 14, 40, 0
16, 192960, Note_on_c, 14, 40, 84
16, 193079, Note_on_c, 14, 40, 0
16, 193440, Note_on_c, 14, 45, 84
16, 193544, Note_on_c, 14, 45, 0
16, 193560, Note_on_c, 14, 45, 84
16, 193664, Note_on_c, 14, 45, 0
16, 193680, Note_on_c, 14, 45, 84
16, 193784, Note_on_c, 14, 45, 0
16, 193800, Note_on_c, 14, 45, 84
16, 193904, Note_on_c, 14, 45, 0
16, 193920, Note_on_c, 14, 45, 84
16, 194024, Note_on_c, 14, 45, 0
16, 194040, Note_on_c, 14, 45, 84
16, 194144, Note_on_c, 14, 45, 0
16, 194160, Note_on_c, 14, 45, 84
16, 194264, Note_on_c, 14, 45, 0
16, 194280, Note_on_c, 14, 45, 84
16, 194384, Note_on_c, 14, 45, 0
16, 194400, Note_on_c, 14, 40, 84
16, 194504, Note_on_c, 14, 40, 0
16, 194520, Note_on_c, 14, 40, 84
16, 194624, Note_on_c, 14, 40, 0
16, 194640, Note_on_c, 14, 40, 84
16, 194744, Note_on_c, 14, 40, 0
16, 194760, Note_on_c, 14, 40, 84
16, 194864, Note_on_c, 14, 40, 0
16, 194880, Note_on_c, 14, 40, 84
16, 194984, Note_on_c, 14, 40, 0
16, 195000, Note_on_c, 14, 40, 84
16, 195104, Note_on_c, 14, 40, 0
16, 195120, Note_on_c, 14, 40, 84
16, 195224, Note_on_c, 14, 40, 0
16, 195240, Note_on_c, 14, 40, 84
16, 195344, Note_on_c, 14, 40, 0
16, 195360, Note_on_c, 14, 45, 84
16, 195479, Note_on_c, 14, 45, 0
16, 196080, Note_on_c, 14, 64, 84
16, 196319, Note_on_c, 14, 64, 0
16, 196320, Note_on_c, 14, 57, 84
16, 196559, Note_on_c, 14, 57, 0
16, 196560, Note_on_c, 14, 52, 84
16, 196799, Note_on_c, 14, 52, 0
16, 196800, Note_on_c, 14, 45, 84
16, 197039, Note_on_c, 14, 45, 0
16, 197040, Note_on_c, 14, 40, 84
16, 197279, Note_on_c, 14, 40, 0
16, 197280, Note_on_c, 14, 45, 84
16, 197519, Note_on_c, 14, 45, 0
16, 198000, Note_on_c, 14, 64, 84
16, 198239, Note_on_c, 14, 64, 0
16, 198240, Note_on_c, 14, 57, 84
16, 198479, Note_on_c, 14, 57, 0
16, 198480, Note_on_c, 14, 45, 84
16, 198719, Note_on_c, 14, 45, 0
16, 198720, Note_on_c, 14, 57, 84
16, 198959, Note_on_c, 14, 57, 0
16, 198960, Note_on_c, 14, 45, 84
16, 199199, Note_on_c, 14, 45, 0
16, 199200, Note_on_c, 14, 50, 84
16, 199319, Note_on_c, 14, 50, 0
16, 199920, Note_on_c, 14, 57, 84
16, 200159, Note_on_c, 14, 57, 0
16, 200160, Note_on_c, 14, 62, 84
16, 200399, Note_on_c, 14, 62, 0
16, 200400, Note_on_c, 14, 57, 84
16, 200639, Note_on_c, 14, 57, 0
16, 200640, Note_on_c, 14, 50, 84
16, 200879, Note_on_c, 14, 50, 0
16, 200880, Note_on_c, 14, 45, 84
16, 201119, Note_on_c, 14, 45, 0
16, 201120, Note_on_c, 14, 38, 84
16, 201239, Note_on_c, 14, 38, 0
16, 201840, Note_on_c, 14, 57, 84
16, 202079, Note_on_c, 14, 57, 0
16, 202080, Note_on_c, 14, 62, 84
16, 202319, Note_on_c, 14, 62, 0
16, 202320, Note_on_c, 14, 57, 84
16, 202559, Note_on_c, 14, 57, 0
16, 202560, Note_on_c, 14, 50, 84
16, 202799, Note_on_c, 14, 50, 0
16, 202800, Note_on_c, 14, 45, 84
16, 203024, Note_on_c, 14, 45, 0
16, 203040, Note_on_c, 14, 50, 84
16, 203211, Note_on_c, 14, 50, 0
16, 203220, Note_on_c, 14, 50, 84
16, 203271, Note_on_c, 14, 50, 0
16, 203280, Note_on_c, 14, 50, 84
16, 203451, Note_on_c, 14, 50, 0
16, 203460, Note_on_c, 14, 50, 84
16, 203511, Note_on_c, 14, 50, 0
16, 203520, Note_on_c, 14, 50, 84
16, 203691, Note_on_c, 14, 50, 0
16, 203700, Note_on_c, 14, 50, 84
16, 203751, Note_on_c, 14, 50, 0
16, 203760, Note_on_c, 14, 50, 84
16, 203931, Note_on_c, 14, 50, 0
16, 203940, Note_on_c, 14, 50, 84
16, 203991, Note_on_c, 14, 50, 0
16, 204000, Note_on_c, 14, 49, 84
16, 204171, Note_on_c, 14, 49, 0
16, 204180, Note_on_c, 14, 49, 84
16, 204231, Note_on_c, 14, 49, 0
16, 204240, Note_on_c, 14, 49, 84
16, 204411, Note_on_c, 14, 49, 0
16, 204420, Note_on_c, 14, 49, 84
16, 204471, Note_on_c, 14, 49, 0
16, 204480, Note_on_c, 14, 49, 84
16, 204651, Note_on_c, 14, 49, 0
16, 204660, Note_on_c, 14, 49, 84
16, 204711, Note_on_c, 14, 49, 0
16, 204720, Note_on_c, 14, 49, 84
16, 204891, Note_on_c, 14, 49, 0
16, 204900, Note_on_c, 14, 49, 84
16, 204951, Note_on_c, 14, 49, 0
16, 204960, Note_on_c, 14, 50, 84
16, 205131, Note_on_c, 14, 50, 0
16, 205140, Note_on_c, 14, 50, 84
16, 205191, Note_on_c, 14, 50, 0
16, 205200, Note_on_c, 14, 50, 84
16, 205371, Note_on_c, 14, 50, 0
16, 205380, Note_on_c, 14, 50, 84
16, 205431, Note_on_c, 14, 50, 0
16, 205440, Note_on_c, 14, 48, 84
16, 205611, Note_on_c, 14, 48, 0
16, 205620, Note_on_c, 14, 48, 84
16, 205671, Note_on_c, 14, 48, 0
16, 205680, Note_on_c, 14, 48, 84
16, 205851, Note_on_c, 14, 48, 0
16, 205860, Note_on_c, 14, 48, 84
16, 205911, Note_on_c, 14, 48, 0
16, 205920, Note_on_c, 14, 47, 84
16, 206091, Note_on_c, 14, 47, 0
16, 206100, Note_on_c, 14, 47, 84
16, 206151, Note_on_c, 14, 47, 0
16, 206160, Note_on_c, 14, 47, 84
16, 206331, Note_on_c, 14, 47, 0
16, 206340, Note_on_c, 14, 47, 84
16, 206391, Note_on_c, 14, 47, 0
16, 206400, Note_on_c, 14, 45, 84
16, 206571, Note_on_c, 14, 45, 0
16, 206580, Note_on_c, 14, 45, 84
16, 206631, Note_on_c, 14, 45, 0
16, 206640, Note_on_c, 14, 45, 84
16, 206811, Note_on_c, 14, 45, 0
16, 206820, Note_on_c, 14, 45, 84
16, 206871, Note_on_c, 14, 45, 0
16, 206880, Note_on_c, 14, 44, 84
16, 207051, Note_on_c, 14, 44, 0
16, 207060, Note_on_c, 14, 41, 84
16, 207111, Note_on_c, 14, 41, 0
16, 207120, Note_on_c, 14, 41, 84
16, 207291, Note_on_c, 14, 41, 0
16, 207300, Note_on_c, 14, 41, 84
16, 207351, Note_on_c, 14, 41, 0
16, 207360, Note_on_c, 14, 41, 84
16, 207531, Note_on_c, 14, 41, 0
16, 207540, Note_on_c, 14, 41, 84
16, 207591, Note_on_c, 14, 41, 0
16, 207600, Note_on_c, 14, 41, 84
16, 207771, Note_on_c, 14, 41, 0
16, 207780, Note_on_c, 14, 41, 84
16, 207831, Note_on_c, 14, 41, 0
16, 207840, Note_on_c, 14, 40, 84
16, 207959, Note_on_c, 14, 40, 0
16, 208080, Note_on_c, 14, 40, 76
16, 208169, Note_on_c, 14, 40, 0
16, 208800, Program_c, 14, 45
16, 209040, Note_on_c, 14, 64, 48
16, 209159, Note_on_c, 14, 64, 0
16, 209280, Note_on_c, 14, 52, 48
16, 209399, Note_on_c, 14, 52, 0
16, 209520, Note_on_c, 14, 57, 48
16, 209639, Note_on_c, 14, 57, 0
16, 209760, Note_on_c, 14, 52, 48
16, 209879, Note_on_c, 14, 52, 0
16, 210960, Note_on_c, 14, 64, 48
16, 211079, Note_on_c, 14, 64, 0
16, 211200, Note_on_c, 14, 52, 48
16, 211319, Note_on_c, 14, 52, 0
16, 211440, Note_on_c, 14, 57, 48
16, 211559, Note_on_c, 14, 57, 0
16, 211920, Note_on_c, 14, 64, 48
16, 212039, Note_on_c, 14, 64, 0
16, 212160, Note_on_c, 14, 52, 48
16, 212279, Note_on_c, 14, 52, 0
16, 212400, Note_on_c, 14, 57, 48
16, 212519, Note_on_c, 14, 57, 0
16, 212640, Note_on_c, 14, 52, 48
16, 212759, Note_on_c, 14, 52, 0
16, 212880, Note_on_c, 14, 64, 48
16, 213119, Note_on_c, 14, 64, 0
16, 213120, Note_on_c, 14, 52, 48
16, 213359, Note_on_c, 14, 52, 0
16, 213360, Note_on_c, 14, 52, 48
16, 213599, Note_on_c, 14, 52, 0
16, 213600, Note_on_c, 14, 45, 48
16, 213719, Note_on_c, 14, 45, 0
16, 213838, Program_c, 14, 48
16, 213840, Note_on_c, 14, 57, 76
16, 214079, Note_on_c, 14, 57, 0
16, 214320, Note_on_c, 14, 52, 76
16, 214559, Note_on_c, 14, 52, 0
16, 214800, Note_on_c, 14, 45, 76
16, 215039, Note_on_c, 14, 45, 0
16, 215280, Note_on_c, 14, 52, 76
16, 215511, Note_on_c, 14, 52, 0
16, 215520, Note_on_c, 14, 57, 52
16, 215759, Note_on_c, 14, 57, 0
16, 215760, Note_on_c, 14, 45, 52
16, 215984, Note_on_c, 14, 45, 0
16, 216000, Note_on_c, 14, 44, 52
16, 216479, Note_on_c, 14, 44, 0
16, 216480, Note_on_c, 14, 49, 52
16, 216959, Note_on_c, 14, 49, 0
16, 216960, Note_on_c, 14, 44, 52
16, 217439, Note_on_c, 14, 44, 0
16, 217440, Note_on_c, 14, 49, 52
16, 217904, Note_on_c, 14, 49, 0
16, 217920, Note_on_c, 14, 52, 52
16, 218039, Note_on_c, 14, 52, 0
16, 218640, Note_on_c, 14, 57, 76
16, 218879, Note_on_c, 14, 57, 0
16, 219120, Note_on_c, 14, 52, 76
16, 219359, Note_on_c, 14, 52, 0
16, 219600, Note_on_c, 14, 45, 76
16, 219839, Note_on_c, 14, 45, 0
16, 220080, Note_on_c, 14, 52, 76
16, 220304, Note_on_c, 14, 52, 0
16, 220320, Note_on_c, 14, 57, 52
16, 220559, Note_on_c, 14, 57, 0
16, 220560, Note_on_c, 14, 45, 52
16, 220784, Note_on_c, 14, 45, 0
16, 220800, Note_on_c, 14, 44, 52
16, 221279, Note_on_c, 14, 44, 0
16, 221280, Note_on_c, 14, 49, 52
16, 221744, Note_on_c, 14, 49, 0
16, 221760, Note_on_c, 14, 52, 52
16, 221879, Note_on_c, 14, 52, 0
16, 222240, Note_on_c, 14, 57, 52
16, 222359, Note_on_c, 14, 57, 0
16, 222720, Note_on_c, 14, 52, 52
16, 222839, Note_on_c, 14, 52, 0
16, 223200, Note_on_c, 14, 57, 52
16, 223319, Note_on_c, 14, 57, 0
16, 223680, Note_on_c, 14, 52, 52
16, 223799, Note_on_c, 14, 52, 0
16, 224160, Note_on_c, 14, 52, 52
16, 224279, Note_on_c, 14, 52, 0
16, 225300, Note_on_c, 14, 50, 58
16, 225359, Note_on_c, 14, 50, 0
16, 225360, Note_on_c, 14, 47, 58
16, 225479, Note_on_c, 14, 47, 0
16, 225540, Note_on_c, 14, 44, 59
16, 225599, Note_on_c, 14, 44, 0
16, 225600, Note_on_c, 14, 47, 60
16, 225719, Note_on_c, 14, 47, 0
16, 225780, Note_on_c, 14, 50, 61
16, 225839, Note_on_c, 14, 50, 0
16, 225840, Note_on_c, 14, 52, 61
16, 225959, Note_on_c, 14, 52, 0
16, 226020, Note_on_c, 14, 56, 62
16, 226079, Note_on_c, 14, 56, 0
16, 226080, Note_on_c, 14, 59, 62
16, 226199, Note_on_c, 14, 59, 0
16, 226320, Note_on_c, 14, 44, 64
16, 226439, Note_on_c, 14, 44, 0
16, 226800, Note_on_c, 14, 45, 66
16, 226919, Note_on_c, 14, 45, 0
16, 227280, Note_on_c, 14, 40, 69
16, 227399, Note_on_c, 14, 40, 0
16, 227760, Note_on_c, 14, 40, 72
16, 227879, Note_on_c, 14, 40, 0
16, 228180, Note_on_c, 14, 50, 74
16, 228239, Note_on_c, 14, 50, 0
16, 228240, Note_on_c, 14, 47, 74
16, 228359, Note_on_c, 14, 47, 0
16, 228420, Note_on_c, 14, 44, 75
16, 228479, Note_on_c, 14, 44, 0
16, 228480, Note_on_c, 14, 47, 76
16, 228599, Note_on_c, 14, 47, 0
16, 228660, Note_on_c, 14, 50, 77
16, 228719, Note_on_c, 14, 50, 0
16, 228720, Note_on_c, 14, 52, 77
16, 228839, Note_on_c, 14, 52, 0
16, 228900, Note_on_c, 14, 56, 78
16, 228959, Note_on_c, 14, 56, 0
16, 228960, Note_on_c, 14, 59, 78
16, 229079, Note_on_c, 14, 59, 0
16, 229200, Note_on_c, 14, 44, 80
16, 229319, Note_on_c, 14, 44, 0
16, 229440, Note_on_c, 14, 45, 81
16, 229559, Note_on_c, 14, 45, 0
16, 229680, Note_on_c, 14, 37, 82
16, 229799, Note_on_c, 14, 37, 0
16, 229920, Note_on_c, 14, 36, 84
16, 229971, Note_on_c, 14, 36, 0
16, 229980, Note_on_c, 14, 36, 84
16, 230031, Note_on_c, 14, 36, 0
16, 230040, Note_on_c, 14, 36, 84
16, 230091, Note_on_c, 14, 36, 0
16, 230100, Note_on_c, 14, 36, 84
16, 230151, Note_on_c, 14, 36, 0
16, 230160, Note_on_c, 14, 36, 84
16, 230211, Note_on_c, 14, 36, 0
16, 230220, Note_on_c, 14, 36, 84
16, 230271, Note_on_c, 14, 36, 0
16, 230280, Note_on_c, 14, 36, 84
16, 230331, Note_on_c, 14, 36, 0
16, 230340, Note_on_c, 14, 36, 84
16, 230391, Note_on_c, 14, 36, 0
16, 230400, Note_on_c, 14, 36, 84
16, 230451, Note_on_c, 14, 36, 0
16, 230460, Note_on_c, 14, 36, 84
16, 230511, Note_on_c, 14, 36, 0
16, 230520, Note_on_c, 14, 36, 84
16, 230571, Note_on_c, 14, 36, 0
16, 230580, Note_on_c, 14, 36, 84
16, 230631, Note_on_c, 14, 36, 0
16, 230640, Note_on_c, 14, 36, 84
16, 230691, Note_on_c, 14, 36, 0
16, 230700, Note_on_c, 14, 36, 84
16, 230751, Note_on_c, 14, 36, 0
16, 230760, Note_on_c, 14, 36, 84
16, 230811, Note_on_c, 14, 36, 0
16, 230820, Note_on_c, 14, 36, 84
16, 230871, Note_on_c, 14, 36, 0
16, 230880, Note_on_c, 14, 41, 92
16, 230931, Note_on_c, 14, 41, 0
16, 230940, Note_on_c, 14, 41, 84
16, 230991, Note_on_c, 14, 41, 0
16, 231000, Note_on_c, 14, 41, 84
16, 231051, Note_on_c, 14, 41, 0
16, 231060, Note_on_c, 14, 41, 84
16, 231111, Note_on_c, 14, 41, 0
16, 231120, Note_on_c, 14, 41, 84
16, 231171, Note_on_c, 14, 41, 0
16, 231180, Note_on_c, 14, 41, 84
16, 231231, Note_on_c, 14, 41, 0
16, 231240, Note_on_c, 14, 41, 84
16, 231291, Note_on_c, 14, 41, 0
16, 231300, Note_on_c, 14, 41, 84
16, 231351, Note_on_c, 14, 41, 0
16, 231360, Note_on_c, 14, 36, 92
16, 231411, Note_on_c, 14, 36, 0
16, 231420, Note_on_c, 14, 36, 84
16, 231471, Note_on_c, 14, 36, 0
16, 231480, Note_on_c, 14, 36, 84
16, 231531, Note_on_c, 14, 36, 0
16, 231540, Note_on_c, 14, 36, 84
16, 231591, Note_on_c, 14, 36, 0
16, 231600, Note_on_c, 14, 36, 84
16, 231651, Note_on_c, 14, 36, 0
16, 231660, Note_on_c, 14, 36, 84
16, 231711, Note_on_c, 14, 36, 0
16, 231720, Note_on_c, 14, 36, 84
16, 231771, Note_on_c, 14, 36, 0
16, 231780, Note_on_c, 14, 36, 84
16, 231831, Note_on_c, 14, 36, 0
16, 231840, Note_on_c, 14, 41, 92
16, 231891, Note_on_c, 14, 41, 0
16, 231900, Note_on_c, 14, 41, 84
16, 231951, Note_on_c, 14, 41, 0
16, 231960, Note_on_c, 14, 41, 84
16, 232011, Note_on_c, 14, 41, 0
16, 232020, Note_on_c, 14, 41, 84
16, 232071, Note_on_c, 14, 41, 0
16, 232080, Note_on_c, 14, 41, 84
16, 232131, Note_on_c, 14, 41, 0
16, 232140, Note_on_c, 14, 41, 84
16, 232191, Note_on_c, 14, 41, 0
16, 232200, Note_on_c, 14, 41, 84
16, 232251, Note_on_c, 14, 41, 0
16, 232260, Note_on_c, 14, 41, 84
16, 232311, Note_on_c, 14, 41, 0
16, 232320, Note_on_c, 14, 36, 92
16, 232371, Note_on_c, 14, 36, 0
16, 232380, Note_on_c, 14, 36, 84
16, 232431, Note_on_c, 14, 36, 0
16, 232440, Note_on_c, 14, 36, 84
16, 232491, Note_on_c, 14, 36, 0
16, 232500, Note_on_c, 14, 36, 84
16, 232551, Note_on_c, 14, 36, 0
16, 232560, Note_on_c, 14, 36, 84
16, 232611, Note_on_c, 14, 36, 0
16, 232620, Note_on_c, 14, 36, 84
16, 232671, Note_on_c, 14, 36, 0
16, 232680, Note_on_c, 14, 36, 84
16, 232731, Note_on_c, 14, 36, 0
16, 232740, Note_on_c, 14, 36, 84
16, 232791, Note_on_c, 14, 36, 0
16, 232800, Note_on_c, 14, 36, 84
16, 232851, Note_on_c, 14, 36, 0
16, 232860, Note_on_c, 14, 36, 84
16, 232911, Note_on_c, 14, 36, 0
16, 232920, Note_on_c, 14, 36, 84
16, 232971, Note_on_c, 14, 36, 0
16, 232980, Note_on_c, 14, 36, 84
16, 233031, Note_on_c, 14, 36, 0
16, 233040, Note_on_c, 14, 36, 84
16, 233091, Note_on_c, 14, 36, 0
16, 233100, Note_on_c, 14, 36, 84
16, 233151, Note_on_c, 14, 36, 0
16, 233160, Note_on_c, 14, 36, 84
16, 233211, Note_on_c, 14, 36, 0
16, 233220, Note_on_c, 14, 36, 84
16, 233271, Note_on_c, 14, 36, 0
16, 233280, Note_on_c, 14, 36, 84
16, 233331, Note_on_c, 14, 36, 0
16, 233340, Note_on_c, 14, 36, 84
16, 233391, Note_on_c, 14, 36, 0
16, 233400, Note_on_c, 14, 36, 84
16, 233451, Note_on_c, 14, 36, 0
16, 233460, Note_on_c, 14, 36, 84
16, 233511, Note_on_c, 14, 36, 0
16, 233520, Note_on_c, 14, 36, 84
16, 233571, Note_on_c, 14, 36, 0
16, 233580, Note_on_c, 14, 36, 84
16, 233631, Note_on_c, 14, 36, 0
16, 233640, Note_on_c, 14, 36, 84
16, 233691, Note_on_c, 14, 36, 0
16, 233700, Note_on_c, 14, 36, 84
16, 233751, Note_on_c, 14, 36, 0
16, 233760, Note_on_c, 14, 41, 92
16, 233811, Note_on_c, 14, 41, 0
16, 233820, Note_on_c, 14, 41, 84
16, 233871, Note_on_c, 14, 41, 0
16, 233880, Note_on_c, 14, 41, 84
16, 233931, Note_on_c, 14, 41, 0
16, 233940, Note_on_c, 14, 41, 84
16, 233991, Note_on_c, 14, 41, 0
16, 234000, Note_on_c, 14, 41, 84
16, 234051, Note_on_c, 14, 41, 0
16, 234060, Note_on_c, 14, 41, 84
16, 234111, Note_on_c, 14, 41, 0
16, 234120, Note_on_c, 14, 41, 84
16, 234171, Note_on_c, 14, 41, 0
16, 234180, Note_on_c, 14, 41, 84
16, 234231, Note_on_c, 14, 41, 0
16, 234240, Note_on_c, 14, 36, 92
16, 234291, Note_on_c, 14, 36, 0
16, 234300, Note_on_c, 14, 36, 84
16, 234351, Note_on_c, 14, 36, 0
16, 234360, Note_on_c, 14, 36, 84
16, 234411, Note_on_c, 14, 36, 0
16, 234420, Note_on_c, 14, 36, 84
16, 234471, Note_on_c, 14, 36, 0
16, 234480, Note_on_c, 14, 36, 84
16, 234531, Note_on_c, 14, 36, 0
16, 234540, Note_on_c, 14, 36, 84
16, 234591, Note_on_c, 14, 36, 0
16, 234600, Note_on_c, 14, 36, 84
16, 234651, Note_on_c, 14, 36, 0
16, 234660, Note_on_c, 14, 36, 84
16, 234711, Note_on_c, 14, 36, 0
16, 234720, Note_on_c, 14, 41, 92
16, 234771, Note_on_c, 14, 41, 0
16, 234780, Note_on_c, 14, 41, 84
16, 234831, Note_on_c, 14, 41, 0
16, 234840, Note_on_c, 14, 41, 84
16, 234891, Note_on_c, 14, 41, 0
16, 234900, Note_on_c, 14, 41, 84
16, 234951, Note_on_c, 14, 41, 0
16, 234960, Note_on_c, 14, 41, 84
16, 235011, Note_on_c, 14, 41, 0
16, 235020, Note_on_c, 14, 41, 84
16, 235071, Note_on_c, 14, 41, 0
16, 235080, Note_on_c, 14, 41, 84
16, 235131, Note_on_c, 14, 41, 0
16, 235140, Note_on_c, 14, 41, 84
16, 235191, Note_on_c, 14, 41, 0
16, 235200, Note_on_c, 14, 41, 92
16, 235251, Note_on_c, 14, 41, 0
16, 235260, Note_on_c, 14, 41, 84
16, 235311, Note_on_c, 14, 41, 0
16, 235320, Note_on_c, 14, 41, 84
16, 235371, Note_on_c, 14, 41, 0
16, 235380, Note_on_c, 14, 41, 84
16, 235431, Note_on_c, 14, 41, 0
16, 235440, Note_on_c, 14, 41, 84
16, 235491, Note_on_c, 14, 41, 0
16, 235500, Note_on_c, 14, 41, 84
16, 235551, Note_on_c, 14, 41, 0
16, 235560, Note_on_c, 14, 41, 84
16, 235611, Note_on_c, 14, 41, 0
16, 235620, Note_on_c, 14, 41, 84
16, 235671, Note_on_c, 14, 41, 0
16, 235680, Note_on_c, 14, 40, 92
16, 235731, Note_on_c, 14, 40, 0
16, 235740, Note_on_c, 14, 40, 84
16, 235791, Note_on_c, 14, 40, 0
16, 235800, Note_on_c, 14, 40, 84
16, 235851, Note_on_c, 14, 40, 0
16, 235860, Note_on_c, 14, 40, 84
16, 235911, Note_on_c, 14, 40, 0
16, 235920, Note_on_c, 14, 40, 84
16, 235971, Note_on_c, 14, 40, 0
16, 235980, Note_on_c, 14, 40, 84
16, 236031, Note_on_c, 14, 40, 0
16, 236040, Note_on_c, 14, 40, 84
16, 236091, Note_on_c, 14, 40, 0
16, 236100, Note_on_c, 14, 40, 84
16, 236151, Note_on_c, 14, 40, 0
16, 236160, Note_on_c, 14, 40, 92
16, 236211, Note_on_c, 14, 40, 0
16, 236220, Note_on_c, 14, 40, 84
16, 236271, Note_on_c, 14, 40, 0
16, 236280, Note_on_c, 14, 40, 84
16, 236331, Note_on_c, 14, 40, 0
16, 236340, Note_on_c, 14, 40, 84
16, 236391, Note_on_c, 14, 40, 0
16, 236400, Note_on_c, 14, 40, 84
16, 236451, Note_on_c, 14, 40, 0
16, 236460, Note_on_c, 14, 40, 84
16, 236511, Note_on_c, 14, 40, 0
16, 236520, Note_on_c, 14, 40, 84
16, 236571, Note_on_c, 14, 40, 0
16, 236580, Note_on_c, 14, 40, 84
16, 236631, Note_on_c, 14, 40, 0
16, 236640, Note_on_c, 14, 61, 84
16, 236684, Note_on_c, 14, 61, 0
16, 236700, Note_on_c, 14, 61, 84
16, 236759, Note_on_c, 14, 61, 0
16, 236760, Note_on_c, 14, 62, 84
16, 236819, Note_on_c, 14, 62, 0
16, 236820, Note_on_c, 14, 64, 84
16, 236879, Note_on_c, 14, 64, 0
16, 236880, Note_on_c, 14, 67, 92
16, 236939, Note_on_c, 14, 67, 0
16, 236940, Note_on_c, 14, 65, 84
16, 236999, Note_on_c, 14, 65, 0
16, 237000, Note_on_c, 14, 64, 84
16, 237059, Note_on_c, 14, 64, 0
16, 237060, Note_on_c, 14, 62, 84
16, 237111, Note_on_c, 14, 62, 0
16, 237120, Note_on_c, 14, 67, 84
16, 237179, Note_on_c, 14, 67, 0
16, 237180, Note_on_c, 14, 65, 84
16, 237239, Note_on_c, 14, 65, 0
16, 237240, Note_on_c, 14, 64, 84
16, 237299, Note_on_c, 14, 64, 0
16, 237300, Note_on_c, 14, 62, 84
16, 237351, Note_on_c, 14, 62, 0
16, 237360, Note_on_c, 14, 67, 84
16, 237419, Note_on_c, 14, 67, 0
16, 237420, Note_on_c, 14, 65, 84
16, 237479, Note_on_c, 14, 65, 0
16, 237480, Note_on_c, 14, 64, 84
16, 237539, Note_on_c, 14, 64, 0
16, 237540, Note_on_c, 14, 62, 84
16, 237591, Note_on_c, 14, 62, 0
16, 237600, Note_on_c, 14, 61, 84
16, 237644, Note_on_c, 14, 61, 0
16, 237660, Note_on_c, 14, 61, 84
16, 237719, Note_on_c, 14, 61, 0
16, 237720, Note_on_c, 14, 62, 84
16, 237779, Note_on_c, 14, 62, 0
16, 237780, Note_on_c, 14, 64, 84
16, 237839, Note_on_c, 14, 64, 0
16, 237840, Note_on_c, 14, 67, 92
16, 237899, Note_on_c, 14, 67, 0
16, 237900, Note_on_c, 14, 65, 84
16, 237959, Note_on_c, 14, 65, 0
16, 237960, Note_on_c, 14, 64, 84
16, 238019, Note_on_c, 14, 64, 0
16, 238020, Note_on_c, 14, 62, 84
16, 238071, Note_on_c, 14, 62, 0
16, 238080, Note_on_c, 14, 67, 84
16, 238139, Note_on_c, 14, 67, 0
16, 238140, Note_on_c, 14, 65, 84
16, 238199, Note_on_c, 14, 65, 0
16, 238200, Note_on_c, 14, 64, 84
16, 238259, Note_on_c, 14, 64, 0
16, 238260, Note_on_c, 14, 62, 84
16, 238311, Note_on_c, 14, 62, 0
16, 238320, Note_on_c, 14, 67, 84
16, 238379, Note_on_c, 14, 67, 0
16, 238380, Note_on_c, 14, 65, 84
16, 238439, Note_on_c, 14, 65, 0
16, 238440, Note_on_c, 14, 64, 84
16, 238499, Note_on_c, 14, 64, 0
16, 238500, Note_on_c, 14, 62, 84
16, 238551, Note_on_c, 14, 62, 0
16, 238560, Note_on_c, 14, 61, 84
16, 238604, Note_on_c, 14, 61, 0
16, 238620, Note_on_c, 14, 61, 84
16, 238679, Note_on_c, 14, 61, 0
16, 238680, Note_on_c, 14, 62, 84
16, 238739, Note_on_c, 14, 62, 0
16, 238740, Note_on_c, 14, 64, 84
16, 238799, Note_on_c, 14, 64, 0
16, 238800, Note_on_c, 14, 67, 92
16, 238859, Note_on_c, 14, 67, 0
16, 238860, Note_on_c, 14, 65, 84
16, 238919, Note_on_c, 14, 65, 0
16, 238920, Note_on_c, 14, 64, 84
16, 238979, Note_on_c, 14, 64, 0
16, 238980, Note_on_c, 14, 62, 84
16, 239031, Note_on_c, 14, 62, 0
16, 239040, Note_on_c, 14, 61, 84
16, 239084, Note_on_c, 14, 61, 0
16, 239100, Note_on_c, 14, 61, 84
16, 239159, Note_on_c, 14, 61, 0
16, 239160, Note_on_c, 14, 62, 84
16, 239219, Note_on_c, 14, 62, 0
16, 239220, Note_on_c, 14, 64, 84
16, 239279, Note_on_c, 14, 64, 0
16, 239280, Note_on_c, 14, 67, 92
16, 239339, Note_on_c, 14, 67, 0
16, 239340, Note_on_c, 14, 65, 84
16, 239399, Note_on_c, 14, 65, 0
16, 239400, Note_on_c, 14, 64, 84
16, 239459, Note_on_c, 14, 64, 0
16, 239460, Note_on_c, 14, 62, 84
16, 239511, Note_on_c, 14, 62, 0
16, 239520, Note_on_c, 14, 61, 84
16, 239564, Note_on_c, 14, 61, 0
16, 239580, Note_on_c, 14, 61, 84
16, 239639, Note_on_c, 14, 61, 0
16, 239640, Note_on_c, 14, 62, 84
16, 239699, Note_on_c, 14, 62, 0
16, 239700, Note_on_c, 14, 64, 84
16, 239759, Note_on_c, 14, 64, 0
16, 239760, Note_on_c, 14, 67, 92
16, 239819, Note_on_c, 14, 67, 0
16, 239820, Note_on_c, 14, 65, 84
16, 239879, Note_on_c, 14, 65, 0
16, 239880, Note_on_c, 14, 64, 84
16, 239939, Note_on_c, 14, 64, 0
16, 239940, Note_on_c, 14, 62, 84
16, 239991, Note_on_c, 14, 62, 0
16, 240000, Note_on_c, 14, 61, 84
16, 240051, Note_on_c, 14, 61, 0
16, 240060, Note_on_c, 14, 45, 84
16, 240111, Note_on_c, 14, 45, 0
16, 240120, Note_on_c, 14, 45, 84
16, 240171, Note_on_c, 14, 45, 0
16, 240180, Note_on_c, 14, 45, 84
16, 240231, Note_on_c, 14, 45, 0
16, 240240, Note_on_c, 14, 45, 84
16, 240291, Note_on_c, 14, 45, 0
16, 240300, Note_on_c, 14, 45, 84
16, 240351, Note_on_c, 14, 45, 0
16, 240360, Note_on_c, 14, 45, 84
16, 240411, Note_on_c, 14, 45, 0
16, 240420, Note_on_c, 14, 45, 84
16, 240471, Note_on_c, 14, 45, 0
16, 240480, Note_on_c, 14, 45, 84
16, 240599, Note_on_c, 14, 45, 0
16, 241440, Note_on_c, 14, 45, 84
16, 241559, Note_on_c, 14, 45, 0
16, 242400, Note_on_c, 14, 45, 84
16, 242519, Note_on_c, 14, 45, 0
16, 242880, Note_on_c, 14, 45, 84
16, 242999, Note_on_c, 14, 45, 0
16, 243360, Note_on_c, 14, 45, 84
16, 243479, Note_on_c, 14, 45, 0
16, 243840, Note_on_c, 14, 45, 84
16, 243959, Note_on_c, 14, 45, 0
16, 244320, Note_on_c, 14, 46, 84
16, 244439, Note_on_c, 14, 46, 0
16, 245040, Note_on_c, 14, 66, 76
16, 245279, Note_on_c, 14, 66, 0
16, 245280, Note_on_c, 14, 59, 76
16, 245519, Note_on_c, 14, 59, 0
16, 245520, Note_on_c, 14, 54, 76
16, 245759, Note_on_c, 14, 54, 0
16, 245760, Note_on_c, 14, 47, 76
16, 245999, Note_on_c, 14, 47, 0
16, 246000, Note_on_c, 14, 42, 76
16, 246239, Note_on_c, 14, 42, 0
16, 246240, Note_on_c, 14, 47, 76
16, 246359, Note_on_c, 14, 47, 0
16, 246960, Note_on_c, 14, 66, 76
16, 247199, Note_on_c, 14, 66, 0
16, 247200, Note_on_c, 14, 59, 76
16, 247439, Note_on_c, 14, 59, 0
16, 247440, Note_on_c, 14, 54, 76
16, 247679, Note_on_c, 14, 54, 0
16, 247680, Note_on_c, 14, 47, 76
16, 247919, Note_on_c, 14, 47, 0
16, 247920, Note_on_c, 14, 42, 76
16, 248159, Note_on_c, 14, 42, 0
16, 248160, Note_on_c, 14, 47, 76
16, 248264, Note_on_c, 14, 47, 0
16, 248280, Note_on_c, 14, 59, 76
16, 248339, Note_on_c, 14, 59, 0
16, 248340, Note_on_c, 14, 61, 76
16, 248399, Note_on_c, 14, 61, 0
16, 248400, Note_on_c, 14, 64, 76
16, 248459, Note_on_c, 14, 64, 0
16, 248460, Note_on_c, 14, 62, 76
16, 248519, Note_on_c, 14, 62, 0
16, 248520, Note_on_c, 14, 61, 76
16, 248579, Note_on_c, 14, 61, 0
16, 248580, Note_on_c, 14, 59, 76
16, 248631, Note_on_c, 14, 59, 0
16, 248640, Note_on_c, 14, 64, 76
16, 248879, Note_on_c, 14, 64, 0
16, 248880, Note_on_c, 14, 62, 76
16, 249119, Note_on_c, 14, 62, 0
16, 249120, Note_on_c, 14, 61, 76
16, 249359, Note_on_c, 14, 61, 0
16, 249360, Note_on_c, 14, 59, 76
16, 249599, Note_on_c, 14, 59, 0
16, 249600, Note_on_c, 14, 57, 76
16, 249839, Note_on_c, 14, 57, 0
16, 249840, Note_on_c, 14, 59, 76
16, 250079, Note_on_c, 14, 59, 0
16, 250080, Note_on_c, 14, 61, 76
16, 250169, Note_on_c, 14, 61, 0
16, 250200, Note_on_c, 14, 59, 76
16, 250259, Note_on_c, 14, 59, 0
16, 250260, Note_on_c, 14, 61, 76
16, 250319, Note_on_c, 14, 61, 0
16, 250320, Note_on_c, 14, 64, 76
16, 250379, Note_on_c, 14, 64, 0
16, 250380, Note_on_c, 14, 62, 76
16, 250439, Note_on_c, 14, 62, 0
16, 250440, Note_on_c, 14, 61, 76
16, 250499, Note_on_c, 14, 61, 0
16, 250500, Note_on_c, 14, 59, 76
16, 250551, Note_on_c, 14, 59, 0
16, 250560, Note_on_c, 14, 64, 76
16, 250799, Note_on_c, 14, 64, 0
16, 250800, Note_on_c, 14, 62, 76
16, 251039, Note_on_c, 14, 62, 0
16, 251040, Note_on_c, 14, 61, 76
16, 251279, Note_on_c, 14, 61, 0
16, 251280, Note_on_c, 14, 59, 76
16, 251519, Note_on_c, 14, 59, 0
16, 251520, Note_on_c, 14, 57, 76
16, 251759, Note_on_c, 14, 57, 0
16, 251760, Note_on_c, 14, 55, 76
16, 251984, Note_on_c, 14, 55, 0
16, 252000, Note_on_c, 14, 54, 76
16, 252239, Note_on_c, 14, 54, 0
16, 252240, Note_on_c, 14, 52, 76
16, 252479, Note_on_c, 14, 52, 0
16, 252480, Note_on_c, 14, 50, 76
16, 252719, Note_on_c, 14, 50, 0
16, 252720, Note_on_c, 14, 49, 76
16, 252944, Note_on_c, 14, 49, 0
16, 252960, Note_on_c, 14, 47, 76
16, 253199, Note_on_c, 14, 47, 0
16, 253200, Note_on_c, 14, 45, 76
16, 253439, Note_on_c, 14, 45, 0
16, 253440, Note_on_c, 14, 44, 76
16, 253679, Note_on_c, 14, 44, 0
16, 253680, Note_on_c, 14, 45, 76
16, 253919, Note_on_c, 14, 45, 0
16, 253920, Note_on_c, 14, 44, 76
16, 254159, Note_on_c, 14, 44, 0
16, 254160, Note_on_c, 14, 45, 76
16, 254399, Note_on_c, 14, 45, 0
16, 254400, Note_on_c, 14, 44, 76
16, 254639, Note_on_c, 14, 44, 0
16, 254640, Note_on_c, 14, 45, 76
16, 254879, Note_on_c, 14, 45, 0
16, 254880, Note_on_c, 14, 44, 76
16, 255104, Note_on_c, 14, 44, 0
16, 255120, Note_on_c, 14, 44, 76
16, 255359, Note_on_c, 14, 44, 0
16, 255360, Note_on_c, 14, 43, 76
16, 255599, Note_on_c, 14, 43, 0
16, 255600, Note_on_c, 14, 44, 76
16, 255839, Note_on_c, 14, 44, 0
16, 255840, Note_on_c, 14, 43, 76
16, 256079, Note_on_c, 14, 43, 0
16, 256080, Note_on_c, 14, 44, 76
16, 256319, Note_on_c, 14, 44, 0
16, 256320, Note_on_c, 14, 43, 76
16, 256559, Note_on_c, 14, 43, 0
16, 256560, Note_on_c, 14, 42, 76
16, 256784, Note_on_c, 14, 42, 0
16, 256800, Note_on_c, 14, 43, 76
16, 257039, Note_on_c, 14, 43, 0
16, 257040, Note_on_c, 14, 44, 76
16, 257279, Note_on_c, 14, 44, 0
16, 257280, Note_on_c, 14, 43, 76
16, 257519, Note_on_c, 14, 43, 0
16, 257520, Note_on_c, 14, 42, 76
16, 257744, Note_on_c, 14, 42, 0
16, 257760, Note_on_c, 14, 43, 76
16, 257999, Note_on_c, 14, 43, 0
16, 258000, Note_on_c, 14, 42, 76
16, 258239, Note_on_c, 14, 42, 0
16, 258240, Note_on_c, 14, 41, 76
16, 258479, Note_on_c, 14, 41, 0
16, 258480, Note_on_c, 14, 42, 76
16, 258704, Note_on_c, 14, 42, 0
16, 258720, Note_on_c, 14, 41, 76
16, 258959, Note_on_c, 14, 41, 0
16, 258960, Note_on_c, 14, 42, 76
16, 259199, Note_on_c, 14, 42, 0
16, 259200, Note_on_c, 14, 41, 76
16, 259439, Note_on_c, 14, 41, 0
16, 259440, Note_on_c, 14, 40, 76
16, 259664, Note_on_c, 14, 40, 0
16, 259680, Note_on_c, 14, 41, 76
16, 259919, Note_on_c, 14, 41, 0
16, 259920, Note_on_c, 14, 42, 76
16, 260159, Note_on_c, 14, 42, 0
16, 260160, Note_on_c, 14, 41, 76
16, 260399, Note_on_c, 14, 41, 0
16, 260400, Note_on_c, 14, 40, 76
16, 260639, Note_on_c, 14, 40, 0
16, 260640, Note_on_c, 14, 41, 76
16, 260864, Note_on_c, 14, 41, 0
16, 260880, Note_on_c, 14, 41, 76
16, 261119, Note_on_c, 14, 41, 0
16, 261120, Note_on_c, 14, 40, 76
16, 261359, Note_on_c, 14, 40, 0
16, 261360, Note_on_c, 14, 41, 76
16, 261584, Note_on_c, 14, 41, 0
16, 261600, Note_on_c, 14, 40, 76
16, 261839, Note_on_c, 14, 40, 0
16, 261840, Note_on_c, 14, 41, 76
16, 262079, Note_on_c, 14, 41, 0
16, 262080, Note_on_c, 14, 40, 76
16, 262319, Note_on_c, 14, 40, 0
16, 262320, Note_on_c, 14, 39, 76
16, 262544, Note_on_c, 14, 39, 0
16, 262560, Note_on_c, 14, 40, 76
16, 262799, Note_on_c, 14, 40, 0
16, 262800, Note_on_c, 14, 41, 76
16, 263039, Note_on_c, 14, 41, 0
16, 263040, Note_on_c, 14, 40, 76
16, 263279, Note_on_c, 14, 40, 0
16, 263280, Note_on_c, 14, 39, 76
16, 263504, Note_on_c, 14, 39, 0
16, 263520, Note_on_c, 14, 40, 76
16, 263759, Note_on_c, 14, 40, 0
16, 263760, Note_on_c, 14, 39, 76
16, 263999, Note_on_c, 14, 39, 0
16, 264000, Note_on_c, 14, 40, 76
16, 264239, Note_on_c, 14, 40, 0
16, 264240, Note_on_c, 14, 39, 76
16, 264464, Note_on_c, 14, 39, 0
16, 264480, Note_on_c, 14, 40, 77
16, 264719, Note_on_c, 14, 40, 0
16, 264720, Note_on_c, 14, 39, 77
16, 264959, Note_on_c, 14, 39, 0
16, 264960, Note_on_c, 14, 40, 77
16, 265199, Note_on_c, 14, 40, 0
16, 265200, Note_on_c, 14, 39, 77
16, 265424, Note_on_c, 14, 39, 0
16, 265440, Note_on_c, 14, 40, 78
16, 265679, Note_on_c, 14, 40, 0
16, 265680, Note_on_c, 14, 39, 78
16, 265919, Note_on_c, 14, 39, 0
16, 265920, Note_on_c, 14, 40, 78
16, 266159, Note_on_c, 14, 40, 0
16, 266160, Note_on_c, 14, 39, 78
16, 266384, Note_on_c, 14, 39, 0
16, 266400, Note_on_c, 14, 40, 79
16, 266639, Note_on_c, 14, 40, 0
16, 266640, Note_on_c, 14, 39, 79
16, 266879, Note_on_c, 14, 39, 0
16, 266880, Note_on_c, 14, 40, 79
16, 267119, Note_on_c, 14, 40, 0
16, 267120, Note_on_c, 14, 39, 79
16, 267344, Note_on_c, 14, 39, 0
16, 267360, Note_on_c, 14, 40, 80
16, 267599, Note_on_c, 14, 40, 0
16, 267600, Note_on_c, 14, 39, 80
16, 267839, Note_on_c, 14, 39, 0
16, 267840, Note_on_c, 14, 40, 80
16, 268079, Note_on_c, 14, 40, 0
16, 268080, Note_on_c, 14, 39, 80
16, 268304, Note_on_c, 14, 39, 0
16, 268320, Note_on_c, 14, 40, 81
16, 268559, Note_on_c, 14, 40, 0
16, 268560, Note_on_c, 14, 39, 81
16, 268799, Note_on_c, 14, 39, 0
16, 268800, Note_on_c, 14, 40, 81
16, 269039, Note_on_c, 14, 40, 0
16, 269040, Note_on_c, 14, 39, 81
16, 269264, Note_on_c, 14, 39, 0
16, 269280, Note_on_c, 14, 40, 82
16, 269519, Note_on_c, 14, 40, 0
16, 269520, Note_on_c, 14, 39, 82
16, 269759, Note_on_c, 14, 39, 0
16, 269760, Note_on_c, 14, 40, 82
16, 269999, Note_on_c, 14, 40, 0
16, 270000, Note_on_c, 14, 39, 82
16, 270224, Note_on_c, 14, 39, 0
16, 270240, Note_on_c, 14, 40, 83
16, 270479, Note_on_c, 14, 40, 0
16, 270480, Note_on_c, 14, 39, 83
16, 270719, Note_on_c, 14, 39, 0
16, 270720, Note_on_c, 14, 40, 83
16, 270959, Note_on_c, 14, 40, 0
16, 270960, Note_on_c, 14, 39, 83
16, 271184, Note_on_c, 14, 39, 0
16, 271200, Note_on_c, 14, 40, 84
16, 271439, Note_on_c, 14, 40, 0
16, 271440, Note_on_c, 14, 39, 84
16, 271679, Note_on_c, 14, 39, 0
16, 271680, Note_on_c, 14, 40, 84
16, 271919, Note_on_c, 14, 40, 0
16, 271920, Note_on_c, 14, 39, 84
16, 272144, Note_on_c, 14, 39, 0
16, 272160, Note_on_c, 14, 40, 84
16, 272399, Note_on_c, 14, 40, 0
16, 272400, Note_on_c, 14, 39, 84
16, 272639, Note_on_c, 14, 39, 0
16, 272640, Note_on_c, 14, 40, 84
16, 272879, Note_on_c, 14, 40, 0
16, 272880, Note_on_c, 14, 39, 84
16, 273104, Note_on_c, 14, 39, 0
16, 273120, Note_on_c, 14, 40, 84
16, 273344, Note_on_c, 14, 40, 0
16, 273360, Note_on_c, 14, 40, 84
16, 273599, Note_on_c, 14, 40, 0
16, 273600, Note_on_c, 14, 52, 84
16, 273839, Note_on_c, 14, 52, 0
16, 273840, Note_on_c, 14, 40, 84
16, 274064, Note_on_c, 14, 40, 0
16, 274080, Note_on_c, 14, 52, 84
16, 274319, Note_on_c, 14, 52, 0
16, 274320, Note_on_c, 14, 40, 84
16, 274559, Note_on_c, 14, 40, 0
16, 274560, Note_on_c, 14, 52, 84
16, 274799, Note_on_c, 14, 52, 0
16, 274800, Note_on_c, 14, 40, 84
16, 275024, Note_on_c, 14, 40, 0
16, 275040, Note_on_c, 14, 40, 84
16, 275279, Note_on_c, 14, 40, 0
16, 275280, Note_on_c, 14, 39, 84
16, 275519, Note_on_c, 14, 39, 0
16, 275520, Note_on_c, 14, 40, 84
16, 275759, Note_on_c, 14, 40, 0
16, 275760, Note_on_c, 14, 39, 84
16, 275984, Note_on_c, 14, 39, 0
16, 276000, Note_on_c, 14, 40, 84
16, 276239, Note_on_c, 14, 40, 0
16, 276240, Note_on_c, 14, 39, 84
16, 276479, Note_on_c, 14, 39, 0
16, 276480, Note_on_c, 14, 40, 84
16, 276719, Note_on_c, 14, 40, 0
16, 276720, Note_on_c, 14, 39, 84
16, 276944, Note_on_c, 14, 39, 0
16, 276960, Note_on_c, 14, 40, 84
16, 277184, Note_on_c, 14, 40, 0
16, 277200, Note_on_c, 14, 40, 84
16, 277439, Note_on_c, 14, 40, 0
16, 277440, Note_on_c, 14, 52, 84
16, 277679, Note_on_c, 14, 52, 0
16, 277680, Note_on_c, 14, 40, 84
16, 277904, Note_on_c, 14, 40, 0
16, 277920, Note_on_c, 14, 52, 84
16, 278159, Note_on_c, 14, 52, 0
16, 278160, Note_on_c, 14, 40, 84
16, 278399, Note_on_c, 14, 40, 0
16, 278400, Note_on_c, 14, 52, 84
16, 278639, Note_on_c, 14, 52, 0
16, 278640, Note_on_c, 14, 40, 84
16, 278864, Note_on_c, 14, 40, 0
16, 278880, Note_on_c, 14, 52, 84
16, 279119, Note_on_c, 14, 52, 0
16, 279120, Note_on_c, 14, 40, 84
16, 279359, Note_on_c, 14, 40, 0
16, 279360, Note_on_c, 14, 52, 84
16, 279599, Note_on_c, 14, 52, 0
16, 279600, Note_on_c, 14, 40, 84
16, 279824, Note_on_c, 14, 40, 0
16, 279840, Note_on_c, 14, 52, 84
16, 280079, Note_on_c, 14, 52, 0
16, 280080, Note_on_c, 14, 40, 84
16, 280319, Note_on_c, 14, 40, 0
16, 280320, Note_on_c, 14, 52, 84
16, 280559, Note_on_c, 14, 52, 0
16, 280560, Note_on_c, 14, 40, 84
16, 280784, Note_on_c, 14, 40, 0
16, 280800, Note_on_c, 14, 52, 84
16, 281039, Note_on_c, 14, 52, 0
16, 281040, Note_on_c, 14, 40, 84
16, 281279, Note_on_c, 14, 40, 0
16, 281280, Note_on_c, 14, 52, 84
16, 281519, Note_on_c, 14, 52, 0
16, 281520, Note_on_c, 14, 40, 84
16, 281744, Note_on_c, 14, 40, 0
16, 281760, Note_on_c, 14, 64, 92
16, 281849, Note_on_c, 14, 64, 0
16, 281880, Note_on_c, 14, 62, 92
16, 281969, Note_on_c, 14, 62, 0
16, 282000, Note_on_c, 14, 61, 92
16, 282089, Note_on_c, 14, 61, 0
16, 282120, Note_on_c, 14, 59, 92
16, 282209, Note_on_c, 14, 59, 0
16, 282240, Note_on_c, 14, 57, 92
16, 282329, Note_on_c, 14, 57, 0
16, 282360, Note_on_c, 14, 55, 92
16, 282449, Note_on_c, 14, 55, 0
16, 282480, Note_on_c, 14, 54, 92
16, 282569, Note_on_c, 14, 54, 0
16, 282600, Note_on_c, 14, 52, 92
16, 282689, Note_on_c, 14, 52, 0
16, 282720, Note_on_c, 14, 50, 92
16, 282809, Note_on_c, 14, 50, 0
16, 282840, Note_on_c, 14, 49, 92
16, 282929, Note_on_c, 14, 49, 0
16, 282960, Note_on_c, 14, 47, 92
16, 283049, Note_on_c, 14, 47, 0
16, 283080, Note_on_c, 14, 45, 92
16, 283169, Note_on_c, 14, 45, 0
16, 283200, Note_on_c, 14, 43, 92
16, 283289, Note_on_c, 14, 43, 0
16, 283320, Note_on_c, 14, 42, 92
16, 283409, Note_on_c, 14, 42, 0
16, 283440, Note_on_c, 14, 40, 92
16, 283529, Note_on_c, 14, 40, 0
16, 283560, Note_on_c, 14, 38, 92
16, 283649, Note_on_c, 14, 38, 0
16, 283680, Note_on_c, 14, 37, 100
16, 283731, Note_on_c, 14, 37, 0
16, 283740, Note_on_c, 14, 37, 92
16, 283791, Note_on_c, 14, 37, 0
16, 283800, Note_on_c, 14, 37, 92
16, 283851, Note_on_c, 14, 37, 0
16, 283860, Note_on_c, 14, 37, 92
16, 283911, Note_on_c, 14, 37, 0
16, 283920, Note_on_c, 14, 37, 92
16, 283971, Note_on_c, 14, 37, 0
16, 283980, Note_on_c, 14, 37, 92
16, 284031, Note_on_c, 14, 37, 0
16, 284040, Note_on_c, 14, 37, 92
16, 284091, Note_on_c, 14, 37, 0
16, 284100, Note_on_c, 14, 37, 92
16, 284151, Note_on_c, 14, 37, 0
16, 284160, Note_on_c, 14, 38, 100
16, 284211, Note_on_c, 14, 38, 0
16, 284220, Note_on_c, 14, 38, 92
16, 284271, Note_on_c, 14, 38, 0
16, 284280, Note_on_c, 14, 38, 92
16, 284331, Note_on_c, 14, 38, 0
16, 284340, Note_on_c, 14, 38, 92
16, 284391, Note_on_c, 14, 38, 0
16, 284400, Note_on_c, 14, 38, 92
16, 284451, Note_on_c, 14, 38, 0
16, 284460, Note_on_c, 14, 38, 92
16, 284511, Note_on_c, 14, 38, 0
16, 284520, Note_on_c, 14, 38, 92
16, 284571, Note_on_c, 14, 38, 0
16, 284580, Note_on_c, 14, 38, 92
16, 284631, Note_on_c, 14, 38, 0
16, 284640, Note_on_c, 14, 40, 100
16, 284691, Note_on_c, 14, 40, 0
16, 284700, Note_on_c, 14, 40, 92
16, 284751, Note_on_c, 14, 40, 0
16, 284760, Note_on_c, 14, 40, 92
16, 284811, Note_on_c, 14, 40, 0
16, 284820, Note_on_c, 14, 40, 92
16, 284871, Note_on_c, 14, 40, 0
16, 284880, Note_on_c, 14, 40, 92
16, 284931, Note_on_c, 14, 40, 0
16, 284940, Note_on_c, 14, 40, 92
16, 284991, Note_on_c, 14, 40, 0
16, 285000, Note_on_c, 14, 40, 92
16, 285051, Note_on_c, 14, 40, 0
16, 285060, Note_on_c, 14, 40, 92
16, 285111, Note_on_c, 14, 40, 0
16, 285120, Note_on_c, 14, 40, 100
16, 285171, Note_on_c, 14, 40, 0
16, 285180, Note_on_c, 14, 40, 92
16, 285231, Note_on_c, 14, 40, 0
16, 285240, Note_on_c, 14, 40, 92
16, 285291, Note_on_c, 14, 40, 0
16, 285300, Note_on_c, 14, 40, 92
16, 285351, Note_on_c, 14, 40, 0
16, 285360, Note_on_c, 14, 40, 92
16, 285411, Note_on_c, 14, 40, 0
16, 285420, Note_on_c, 14, 40, 92
16, 285471, Note_on_c, 14, 40, 0
16, 285480, Note_on_c, 14, 40, 92
16, 285531, Note_on_c, 14, 40, 0
16, 285540, Note_on_c, 14, 40, 92
16, 285591, Note_on_c, 14, 40, 0
16, 285600, Note_on_c, 14, 56, 52
16, 285689, Note_on_c, 14, 56, 0
16, 285720, Note_on_c, 14, 54, 52
16, 285809, Note_on_c, 14, 54, 0
16, 285840, Note_on_c, 14, 52, 52
16, 285929, Note_on_c, 14, 52, 0
16, 285960, Note_on_c, 14, 50, 52
16, 286049, Note_on_c, 14, 50, 0
16, 286080, Note_on_c, 14, 49, 52
16, 286169, Note_on_c, 14, 49, 0
16, 286200, Note_on_c, 14, 47, 53
16, 286289, Note_on_c, 14, 47, 0
16, 286320, Note_on_c, 14, 45, 54
16, 286409, Note_on_c, 14, 45, 0
16, 286440, Note_on_c, 14, 44, 56
16, 286529, Note_on_c, 14, 44, 0
16, 286560, Note_on_c, 14, 45, 57
16, 286649, Note_on_c, 14, 45, 0
16, 286680, Note_on_c, 14, 47, 59
16, 286769, Note_on_c, 14, 47, 0
16, 286800, Note_on_c, 14, 49, 60
16, 286889, Note_on_c, 14, 49, 0
16, 286920, Note_on_c, 14, 50, 62
16, 287009, Note_on_c, 14, 50, 0
16, 287040, Note_on_c, 14, 52, 63
16, 287129, Note_on_c, 14, 52, 0
16, 287160, Note_on_c, 14, 54, 64
16, 287249, Note_on_c, 14, 54, 0
16, 287280, Note_on_c, 14, 56, 66
16, 287369, Note_on_c, 14, 56, 0
16, 287400, Note_on_c, 14, 57, 67
16, 287489, Note_on_c, 14, 57, 0
16, 287520, Note_on_c, 14, 59, 69
16, 287609, Note_on_c, 14, 59, 0
16, 287640, Note_on_c, 14, 57, 70
16, 287729, Note_on_c, 14, 57, 0
16, 287760, Note_on_c, 14, 56, 72
16, 287849, Note_on_c, 14, 56, 0
16, 287880, Note_on_c, 14, 54, 73
16, 287969, Note_on_c, 14, 54, 0
16, 288000, Note_on_c, 14, 52, 74
16, 288089, Note_on_c, 14, 52, 0
16, 288120, Note_on_c, 14, 50, 76
16, 288209, Note_on_c, 14, 50, 0
16, 288240, Note_on_c, 14, 49, 77
16, 288329, Note_on_c, 14, 49, 0
16, 288360, Note_on_c, 14, 47, 79
16, 288449, Note_on_c, 14, 47, 0
16, 288480, Note_on_c, 14, 49, 80
16, 288569, Note_on_c, 14, 49, 0
16, 288600, Note_on_c, 14, 50, 82
16, 288689, Note_on_c, 14, 50, 0
16, 288720, Note_on_c, 14, 52, 83
16, 288809, Note_on_c, 14, 52, 0
16, 288840, Note_on_c, 14, 54, 84
16, 288929, Note_on_c, 14, 54, 0
16, 288960, Note_on_c, 14, 56, 86
16, 289049, Note_on_c, 14, 56, 0
16, 289080, Note_on_c, 14, 57, 87
16, 289169, Note_on_c, 14, 57, 0
16, 289200, Note_on_c, 14, 59, 89
16, 289289, Note_on_c, 14, 59, 0
16, 289320, Note_on_c, 14, 61, 90
16, 289409, Note_on_c, 14, 61, 0
16, 289440, Note_on_c, 14, 64, 92
16, 289529, Note_on_c, 14, 64, 0
16, 289560, Note_on_c, 14, 62, 92
16, 289649, Note_on_c, 14, 62, 0
16, 289680, Note_on_c, 14, 61, 92
16, 289769, Note_on_c, 14, 61, 0
16, 289800, Note_on_c, 14, 59, 92
16, 289889, Note_on_c, 14, 59, 0
16, 289920, Note_on_c, 14, 57, 92
16, 290009, Note_on_c, 14, 57, 0
16, 290040, Note_on_c, 14, 55, 92
16, 290129, Note_on_c, 14, 55, 0
16, 290160, Note_on_c, 14, 54, 92
16, 290249, Note_on_c, 14, 54, 0
16, 290280, Note_on_c, 14, 52, 92
16, 290369, Note_on_c, 14, 52, 0
16, 290400, Note_on_c, 14, 50, 92
16, 290489, Note_on_c, 14, 50, 0
16, 290520, Note_on_c, 14, 49, 92
16, 290609, Note_on_c, 14, 49, 0
16, 290640, Note_on_c, 14, 47, 92
16, 290729, Note_on_c, 14, 47, 0
16, 290760, Note_on_c, 14, 45, 92
16, 290849, Note_on_c, 14, 45, 0
16, 290880, Note_on_c, 14, 43, 92
16, 290969, Note_on_c, 14, 43, 0
16, 291000, Note_on_c, 14, 42, 92
16, 291089, Note_on_c, 14, 42, 0
16, 291120, Note_on_c, 14, 40, 92
16, 291209, Note_on_c, 14, 40, 0
16, 291240, Note_on_c, 14, 38, 92
16, 291329, Note_on_c, 14, 38, 0
16, 291360, Note_on_c, 14, 37, 100
16, 291411, Note_on_c, 14, 37, 0
16, 291420, Note_on_c, 14, 37, 92
16, 291471, Note_on_c, 14, 37, 0
16, 291480, Note_on_c, 14, 37, 92
16, 291531, Note_on_c, 14, 37, 0
16, 291540, Note_on_c, 14, 37, 92
16, 291591, Note_on_c, 14, 37, 0
16, 291600, Note_on_c, 14, 37, 92
16, 291651, Note_on_c, 14, 37, 0
16, 291660, Note_on_c, 14, 37, 92
16, 291711, Note_on_c, 14, 37, 0
16, 291720, Note_on_c, 14, 37, 92
16, 291771, Note_on_c, 14, 37, 0
16, 291780, Note_on_c, 14, 37, 92
16, 291831, Note_on_c, 14, 37, 0
16, 291840, Note_on_c, 14, 38, 100
16, 291891, Note_on_c, 14, 38, 0
16, 291900, Note_on_c, 14, 38, 92
16, 291951, Note_on_c, 14, 38, 0
16, 291960, Note_on_c, 14, 38, 92
16, 292011, Note_on_c, 14, 38, 0
16, 292020, Note_on_c, 14, 38, 92
16, 292071, Note_on_c, 14, 38, 0
16, 292080, Note_on_c, 14, 38, 92
16, 292131, Note_on_c, 14, 38, 0
16, 292140, Note_on_c, 14, 38, 92
16, 292191, Note_on_c, 14, 38, 0
16, 292200, Note_on_c, 14, 38, 92
16, 292251, Note_on_c, 14, 38, 0
16, 292260, Note_on_c, 14, 38, 92
16, 292311, Note_on_c, 14, 38, 0
16, 292320, Note_on_c, 14, 40, 100
16, 292371, Note_on_c, 14, 40, 0
16, 292380, Note_on_c, 14, 40, 92
16, 292431, Note_on_c, 14, 40, 0
16, 292440, Note_on_c, 14, 40, 92
16, 292491, Note_on_c, 14, 40, 0
16, 292500, Note_on_c, 14, 40, 92
16, 292551, Note_on_c, 14, 40, 0
16, 292560, Note_on_c, 14, 40, 92
16, 292611, Note_on_c, 14, 40, 0
16, 292620, Note_on_c, 14, 40, 92
16, 292671, Note_on_c, 14, 40, 0
16, 292680, Note_on_c, 14, 40, 92
16, 292731, Note_on_c, 14, 40, 0
16, 292740, Note_on_c, 14, 40, 92
16, 292791, Note_on_c, 14, 40, 0
16, 292800, Note_on_c, 14, 40, 100
16, 292851, Note_on_c, 14, 40, 0
16, 292860, Note_on_c, 14, 40, 92
16, 292911, Note_on_c, 14, 40, 0
16, 292920, Note_on_c, 14, 40, 92
16, 292971, Note_on_c, 14, 40, 0
16, 292980, Note_on_c, 14, 40, 92
16, 293031, Note_on_c, 14, 40, 0
16, 293040, Note_on_c, 14, 40, 92
16, 293091, Note_on_c, 14, 40, 0
16, 293100, Note_on_c, 14, 40, 92
16, 293151, Note_on_c, 14, 40, 0
16, 293160, Note_on_c, 14, 40, 92
16, 293211, Note_on_c, 14, 40, 0
16, 293220, Note_on_c, 14, 40, 92
16, 293271, Note_on_c, 14, 40, 0
16, 293280, Note_on_c, 14, 45, 92
16, 293399, Note_on_c, 14, 45, 0
16, 294000, Note_on_c, 14, 64, 100
16, 294059, Note_on_c, 14, 64, 0
16, 294060, Note_on_c, 14, 64, 92
16, 294239, Note_on_c, 14, 64, 0
16, 294240, Note_on_c, 14, 57, 92
16, 294479, Note_on_c, 14, 57, 0
16, 294480, Note_on_c, 14, 52, 92
16, 294719, Note_on_c, 14, 52, 0
16, 294720, Note_on_c, 14, 45, 92
16, 294959, Note_on_c, 14, 45, 0
16, 294960, Note_on_c, 14, 40, 92
16, 295199, Note_on_c, 14, 40, 0
16, 295200, Note_on_c, 14, 45, 92
16, 295319, Note_on_c, 14, 45, 0
16, 295920, Note_on_c, 14, 64, 100
16, 295979, Note_on_c, 14, 64, 0
16, 295980, Note_on_c, 14, 64, 92
16, 296159, Note_on_c, 14, 64, 0
16, 296160, Note_on_c, 14, 57, 92
16, 296399, Note_on_c, 14, 57, 0
16, 296400, Note_on_c, 14, 52, 92
16, 296639, Note_on_c, 14, 52, 0
16, 296640, Note_on_c, 14, 45, 92
16, 296879, Note_on_c, 14, 45, 0
16, 296880, Note_on_c, 14, 40, 92
16, 297119, Note_on_c, 14, 40, 0
16, 297120, Note_on_c, 14, 40, 84
16, 297171, Note_on_c, 14, 40, 0
16, 297180, Note_on_c, 14, 40, 84
16, 297231, Note_on_c, 14, 40, 0
16, 297240, Note_on_c, 14, 40, 84
16, 297291, Note_on_c, 14, 40, 0
16, 297300, Note_on_c, 14, 40, 84
16, 297351, Note_on_c, 14, 40, 0
16, 297360, Note_on_c, 14, 40, 92
16, 297411, Note_on_c, 14, 40, 0
16, 297420, Note_on_c, 14, 40, 84
16, 297471, Note_on_c, 14, 40, 0
16, 297480, Note_on_c, 14, 40, 84
16, 297531, Note_on_c, 14, 40, 0
16, 297540, Note_on_c, 14, 40, 84
16, 297591, Note_on_c, 14, 40, 0
16, 297600, Note_on_c, 14, 40, 92
16, 297651, Note_on_c, 14, 40, 0
16, 297660, Note_on_c, 14, 40, 84
16, 297711, Note_on_c, 14, 40, 0
16, 297720, Note_on_c, 14, 40, 84
16, 297771, Note_on_c, 14, 40, 0
16, 297780, Note_on_c, 14, 40, 84
16, 297831, Note_on_c, 14, 40, 0
16, 297840, Note_on_c, 14, 40, 92
16, 297891, Note_on_c, 14, 40, 0
16, 297900, Note_on_c, 14, 40, 84
16, 297951, Note_on_c, 14, 40, 0
16, 297960, Note_on_c, 14, 40, 84
16, 298011, Note_on_c, 14, 40, 0
16, 298020, Note_on_c, 14, 40, 84
16, 298071, Note_on_c, 14, 40, 0
16, 298080, Note_on_c, 14, 40, 84
16, 298131, Note_on_c, 14, 40, 0
16, 298140, Note_on_c, 14, 40, 84
16, 298191, Note_on_c, 14, 40, 0
16, 298200, Note_on_c, 14, 40, 84
16, 298251, Note_on_c, 14, 40, 0
16, 298260, Note_on_c, 14, 40, 84
16, 298311, Note_on_c, 14, 40, 0
16, 298320, Note_on_c, 14, 40, 84
16, 298371, Note_on_c, 14, 40, 0
16, 298380, Note_on_c, 14, 40, 84
16, 298431, Note_on_c, 14, 40, 0
16, 298440, Note_on_c, 14, 40, 84
16, 298491, Note_on_c, 14, 40, 0
16, 298500, Note_on_c, 14, 40, 84
16, 298551, Note_on_c, 14, 40, 0
16, 298560, Note_on_c, 14, 40, 84
16, 298611, Note_on_c, 14, 40, 0
16, 298620, Note_on_c, 14, 40, 84
16, 298671, Note_on_c, 14, 40, 0
16, 298680, Note_on_c, 14, 40, 84
16, 298731, Note_on_c, 14, 40, 0
16, 298740, Note_on_c, 14, 40, 84
16, 298791, Note_on_c, 14, 40, 0
16, 298800, Note_on_c, 14, 40, 84
16, 298851, Note_on_c, 14, 40, 0
16, 298860, Note_on_c, 14, 40, 84
16, 298911, Note_on_c, 14, 40, 0
16, 298920, Note_on_c, 14, 40, 84
16, 298971, Note_on_c, 14, 40, 0
16, 298980, Note_on_c, 14, 40, 84
16, 299031, Note_on_c, 14, 40, 0
16, 299040, Note_on_c, 14, 45, 84
16, 299159, Note_on_c, 14, 45, 0
16, 299520, Note_on_c, 14, 45, 84
16, 299639, Note_on_c, 14, 45, 0
16, 300000, Note_on_c, 14, 45, 84
16, 300119, Note_on_c, 14, 45, 0
16, 300119, End_track
17, 0, Start_track
17, 0, Title_t, "Contrabass"
17, 0, MIDI_port, 0
17, 0, Control_c, 15, 7, 96
17, 0, Control_c, 15, 10, 100
17, 0, Program_c, 15, 48
17, 0, Control_c, 15, 11, 127
17, 0, Note_on_c, 15, 28, 84
17, 89, Note_on_c, 15, 28, 0
17, 960, Note_on_c, 15, 28, 84
17, 1049, Note_on_c, 15, 28, 0
17, 1920, Note_on_c, 15, 28, 84
17, 2009, Note_on_c, 15, 28, 0
17, 2160, Note_on_c, 15, 28, 92
17, 2399, Note_on_c, 15, 28, 0
17, 2400, Note_on_c, 15, 28, 84
17, 2519, Note_on_c, 15, 28, 0
17, 2640, Note_on_c, 15, 28, 92
17, 2879, Note_on_c, 15, 28, 0
17, 2880, Note_on_c, 15, 28, 84
17, 2999, Note_on_c, 15, 28, 0
17, 3120, Note_on_c, 15, 28, 92
17, 3359, Note_on_c, 15, 28, 0
17, 3360, Note_on_c, 15, 28, 84
17, 3479, Note_on_c, 15, 28, 0
17, 3600, Note_on_c, 15, 28, 92
17, 3839, Note_on_c, 15, 28, 0
17, 3840, Note_on_c, 15, 28, 84
17, 3959, Note_on_c, 15, 28, 0
17, 4080, Note_on_c, 15, 28, 92
17, 4319, Note_on_c, 15, 28, 0
17, 4320, Note_on_c, 15, 28, 84
17, 4439, Note_on_c, 15, 28, 0
17, 4560, Note_on_c, 15, 28, 92
17, 4799, Note_on_c, 15, 28, 0
17, 4800, Note_on_c, 15, 28, 84
17, 4919, Note_on_c, 15, 28, 0
17, 5040, Note_on_c, 15, 28, 92
17, 5279, Note_on_c, 15, 28, 0
17, 5280, Note_on_c, 15, 33, 84
17, 5399, Note_on_c, 15, 33, 0
17, 5760, Note_on_c, 15, 28, 84
17, 5849, Note_on_c, 15, 28, 0
17, 6000, Note_on_c, 15, 28, 92
17, 6239, Note_on_c, 15, 28, 0
17, 6240, Note_on_c, 15, 28, 84
17, 6359, Note_on_c, 15, 28, 0
17, 6480, Note_on_c, 15, 28, 92
17, 6719, Note_on_c, 15, 28, 0
17, 6720, Note_on_c, 15, 28, 84
17, 6839, Note_on_c, 15, 28, 0
17, 6960, Note_on_c, 15, 28, 92
17, 7199, Note_on_c, 15, 28, 0
17, 7200, Note_on_c, 15, 28, 84
17, 7319, Note_on_c, 15, 28, 0
17, 7440, Note_on_c, 15, 28, 92
17, 7679, Note_on_c, 15, 28, 0
17, 7680, Note_on_c, 15, 28, 84
17, 7799, Note_on_c, 15, 28, 0
17, 7920, Note_on_c, 15, 28, 92
17, 8159, Note_on_c, 15, 28, 0
17, 8160, Note_on_c, 15, 28, 84
17, 8279, Note_on_c, 15, 28, 0
17, 8400, Note_on_c, 15, 28, 92
17, 8639, Note_on_c, 15, 28, 0
17, 8640, Note_on_c, 15, 28, 84
17, 8759, Note_on_c, 15, 28, 0
17, 8880, Note_on_c, 15, 28, 92
17, 9119, Note_on_c, 15, 28, 0
17, 9120, Note_on_c, 15, 33, 84
17, 9239, Note_on_c, 15, 33, 0
17, 9600, Note_on_c, 15, 26, 84
17, 9719, Note_on_c, 15, 26, 0
17, 9840, Note_on_c, 15, 26, 92
17, 10079, Note_on_c, 15, 26, 0
17, 10080, Note_on_c, 15, 25, 84
17, 10199, Note_on_c, 15, 25, 0
17, 10320, Note_on_c, 15, 25, 92
17, 10559, Note_on_c, 15, 25, 0
17, 10560, Note_on_c, 15, 26, 84
17, 10679, Note_on_c, 15, 26, 0
17, 10800, Note_on_c, 15, 26, 92
17, 11039, Note_on_c, 15, 26, 0
17, 11040, Note_on_c, 15, 25, 84
17, 11159, Note_on_c, 15, 25, 0
17, 11280, Note_on_c, 15, 30, 92
17, 11519, Note_on_c, 15, 30, 0
17, 11520, Note_on_c, 15, 35, 84
17, 11639, Note_on_c, 15, 35, 0
17, 11760, Note_on_c, 15, 28, 92
17, 11999, Note_on_c, 15, 28, 0
17, 12000, Note_on_c, 15, 33, 84
17, 12119, Note_on_c, 15, 33, 0
17, 12240, Note_on_c, 15, 25, 92
17, 12479, Note_on_c, 15, 25, 0
17, 12480, Note_on_c, 15, 28, 84
17, 12599, Note_on_c, 15, 28, 0
17, 12720, Note_on_c, 15, 28, 92
17, 12959, Note_on_c, 15, 28, 0
17, 12960, Note_on_c, 15, 33, 84
17, 13079, Note_on_c, 15, 33, 0
17, 13440, Note_on_c, 15, 26, 84
17, 13559, Note_on_c, 15, 26, 0
17, 13680, Note_on_c, 15, 26, 92
17, 13919, Note_on_c, 15, 26, 0
17, 13920, Note_on_c, 15, 25, 84
17, 14039, Note_on_c, 15, 25, 0
17, 14160, Note_on_c, 15, 25, 92
17, 14399, Note_on_c, 15, 25, 0
17, 14400, Note_on_c, 15, 26, 84
17, 14519, Note_on_c, 15, 26, 0
17, 14640, Note_on_c, 15, 26, 92
17, 14879, Note_on_c, 15, 26, 0
17, 14880, Note_on_c, 15, 25, 84
17, 14999, Note_on_c, 15, 25, 0
17, 15120, Note_on_c, 15, 30, 92
17, 15359, Note_on_c, 15, 30, 0
17, 15360, Note_on_c, 15, 35, 84
17, 15479, Note_on_c, 15, 35, 0
17, 15600, Note_on_c, 15, 28, 92
17, 15839, Note_on_c, 15, 28, 0
17, 15840, Note_on_c, 15, 33, 84
17, 15959, Note_on_c, 15, 33, 0
17, 16080, Note_on_c, 15, 25, 92
17, 16319, Note_on_c, 15, 25, 0
17, 16320, Note_on_c, 15, 28, 84
17, 16439, Note_on_c, 15, 28, 0
17, 16560, Note_on_c, 15, 28, 92
17, 16799, Note_on_c, 15, 28, 0
17, 16800, Note_on_c, 15, 33, 84
17, 16919, Note_on_c, 15, 33, 0
17, 17280, Note_on_c, 15, 33, 84
17, 17399, Note_on_c, 15, 33, 0
17, 17760, Note_on_c, 15, 28, 84
17, 17879, Note_on_c, 15, 28, 0
17, 18240, Note_on_c, 15, 28, 84
17, 18359, Note_on_c, 15, 28, 0
17, 18720, Note_on_c, 15, 33, 84
17, 18839, Note_on_c, 15, 33, 0
17, 18960, Note_on_c, 15, 33, 84
17, 19079, Note_on_c, 15, 33, 0
17, 19200, Note_on_c, 15, 33, 84
17, 19319, Note_on_c, 15, 33, 0
17, 19440, Note_on_c, 15, 33, 84
17, 19559, Note_on_c, 15, 33, 0
17, 19680, Note_on_c, 15, 28, 84
17, 19799, Note_on_c, 15, 28, 0
17, 19920, Note_on_c, 15, 28, 84
17, 20039, Note_on_c, 15, 28, 0
17, 20160, Note_on_c, 15, 28, 84
17, 20279, Note_on_c, 15, 28, 0
17, 20400, Note_on_c, 15, 28, 84
17, 20519, Note_on_c, 15, 28, 0
17, 20640, Note_on_c, 15, 33, 84
17, 20759, Note_on_c, 15, 33, 0
17, 21120, Note_on_c, 15, 33, 84
17, 21239, Note_on_c, 15, 33, 0
17, 21600, Note_on_c, 15, 28, 84
17, 21719, Note_on_c, 15, 28, 0
17, 22080, Note_on_c, 15, 28, 84
17, 22199, Note_on_c, 15, 28, 0
17, 22560, Note_on_c, 15, 33, 84
17, 22664, Note_on_c, 15, 33, 0
17, 22680, Note_on_c, 15, 33, 84
17, 22784, Note_on_c, 15, 33, 0
17, 22800, Note_on_c, 15, 33, 84
17, 22904, Note_on_c, 15, 33, 0
17, 22920, Note_on_c, 15, 33, 84
17, 23024, Note_on_c, 15, 33, 0
17, 23040, Note_on_c, 15, 33, 84
17, 23144, Note_on_c, 15, 33, 0
17, 23160, Note_on_c, 15, 33, 84
17, 23264, Note_on_c, 15, 33, 0
17, 23280, Note_on_c, 15, 33, 84
17, 23384, Note_on_c, 15, 33, 0
17, 23400, Note_on_c, 15, 33, 84
17, 23504, Note_on_c, 15, 33, 0
17, 23520, Note_on_c, 15, 28, 84
17, 23624, Note_on_c, 15, 28, 0
17, 23640, Note_on_c, 15, 28, 84
17, 23744, Note_on_c, 15, 28, 0
17, 23760, Note_on_c, 15, 28, 84
17, 23864, Note_on_c, 15, 28, 0
17, 23880, Note_on_c, 15, 28, 84
17, 23984, Note_on_c, 15, 28, 0
17, 24000, Note_on_c, 15, 28, 84
17, 24104, Note_on_c, 15, 28, 0
17, 24120, Note_on_c, 15, 28, 84
17, 24224, Note_on_c, 15, 28, 0
17, 24240, Note_on_c, 15, 28, 84
17, 24344, Note_on_c, 15, 28, 0
17, 24360, Note_on_c, 15, 28, 84
17, 24464, Note_on_c, 15, 28, 0
17, 24480, Note_on_c, 15, 33, 84
17, 24599, Note_on_c, 15, 33, 0
17, 25200, Note_on_c, 15, 52, 84
17, 25439, Note_on_c, 15, 52, 0
17, 25440, Note_on_c, 15, 45, 84
17, 25679, Note_on_c, 15, 45, 0
17, 25680, Note_on_c, 15, 40, 84
17, 25919, Note_on_c, 15, 40, 0
17, 25920, Note_on_c, 15, 33, 84
17, 26159, Note_on_c, 15, 33, 0
17, 26160, Note_on_c, 15, 28, 84
17, 26399, Note_on_c, 15, 28, 0
17, 26400, Note_on_c, 15, 33, 84
17, 26639, Note_on_c, 15, 33, 0
17, 27120, Note_on_c, 15, 52, 84
17, 27359, Note_on_c, 15, 52, 0
17, 27360, Note_on_c, 15, 45, 84
17, 27599, Note_on_c, 15, 45, 0
17, 27600, Note_on_c, 15, 40, 84
17, 27839, Note_on_c, 15, 40, 0
17, 27840, Note_on_c, 15, 33, 84
17, 28079, Note_on_c, 15, 33, 0
17, 28080, Note_on_c, 15, 37, 84
17, 28319, Note_on_c, 15, 37, 0
17, 28320, Note_on_c, 15, 30, 84
17, 28559, Note_on_c, 15, 30, 0
17, 29040, Note_on_c, 15, 49, 84
17, 29279, Note_on_c, 15, 49, 0
17, 29280, Note_on_c, 15, 54, 84
17, 29519, Note_on_c, 15, 54, 0
17, 29520, Note_on_c, 15, 49, 84
17, 29759, Note_on_c, 15, 49, 0
17, 29760, Note_on_c, 15, 42, 84
17, 29999, Note_on_c, 15, 42, 0
17, 30000, Note_on_c, 15, 37, 84
17, 30239, Note_on_c, 15, 37, 0
17, 30240, Note_on_c, 15, 30, 84
17, 30479, Note_on_c, 15, 30, 0
17, 30960, Note_on_c, 15, 49, 84
17, 31199, Note_on_c, 15, 49, 0
17, 31200, Note_on_c, 15, 54, 84
17, 31439, Note_on_c, 15, 54, 0
17, 31440, Note_on_c, 15, 49, 84
17, 31679, Note_on_c, 15, 49, 0
17, 31680, Note_on_c, 15, 42, 84
17, 31919, Note_on_c, 15, 42, 0
17, 31920, Note_on_c, 15, 37, 84
17, 32144, Note_on_c, 15, 37, 0
17, 32160, Note_on_c, 15, 30, 84
17, 32331, Note_on_c, 15, 30, 0
17, 32340, Note_on_c, 15, 42, 84
17, 32391, Note_on_c, 15, 42, 0
17, 32400, Note_on_c, 15, 42, 84
17, 32571, Note_on_c, 15, 42, 0
17, 32580, Note_on_c, 15, 42, 84
17, 32631, Note_on_c, 15, 42, 0
17, 32640, Note_on_c, 15, 42, 84
17, 32811, Note_on_c, 15, 42, 0
17, 32820, Note_on_c, 15, 42, 84
17, 32871, Note_on_c, 15, 42, 0
17, 32880, Note_on_c, 15, 42, 84
17, 33051, Note_on_c, 15, 42, 0
17, 33060, Note_on_c, 15, 42, 84
17, 33111, Note_on_c, 15, 42, 0
17, 33120, Note_on_c, 15, 41, 84
17, 33291, Note_on_c, 15, 41, 0
17, 33300, Note_on_c, 15, 41, 84
17, 33351, Note_on_c, 15, 41, 0
17, 33360, Note_on_c, 15, 41, 84
17, 33531, Note_on_c, 15, 41, 0
17, 33540, Note_on_c, 15, 41, 84
17, 33591, Note_on_c, 15, 41, 0
17, 33600, Note_on_c, 15, 41, 84
17, 33771, Note_on_c, 15, 41, 0
17, 33780, Note_on_c, 15, 41, 84
17, 33831, Note_on_c, 15, 41, 0
17, 33840, Note_on_c, 15, 41, 84
17, 34011, Note_on_c, 15, 41, 0
17, 34020, Note_on_c, 15, 41, 84
17, 34071, Note_on_c, 15, 41, 0
17, 34080, Note_on_c, 15, 42, 84
17, 34251, Note_on_c, 15, 42, 0
17, 34260, Note_on_c, 15, 42, 84
17, 34311, Note_on_c, 15, 42, 0
17, 34320, Note_on_c, 15, 42, 84
17, 34491, Note_on_c, 15, 42, 0
17, 34500, Note_on_c, 15, 42, 84
17, 34551, Note_on_c, 15, 42, 0
17, 34560, Note_on_c, 15, 40, 84
17, 34731, Note_on_c, 15, 40, 0
17, 34740, Note_on_c, 15, 40, 84
17, 34791, Note_on_c, 15, 40, 0
17, 34800, Note_on_c, 15, 40, 84
17, 34971, Note_on_c, 15, 40, 0
17, 34980, Note_on_c, 15, 40, 84
17, 35031, Note_on_c, 15, 40, 0
17, 35040, Note_on_c, 15, 39, 84
17, 35211, Note_on_c, 15, 39, 0
17, 35220, Note_on_c, 15, 39, 84
17, 35271, Note_on_c, 15, 39, 0
17, 35280, Note_on_c, 15, 39, 84
17, 35451, Note_on_c, 15, 39, 0
17, 35460, Note_on_c, 15, 39, 84
17, 35511, Note_on_c, 15, 39, 0
17, 35520, Note_on_c, 15, 37, 84
17, 35691, Note_on_c, 15, 37, 0
17, 35700, Note_on_c, 15, 37, 84
17, 35751, Note_on_c, 15, 37, 0
17, 35760, Note_on_c, 15, 37, 84
17, 35931, Note_on_c, 15, 37, 0
17, 35940, Note_on_c, 15, 37, 84
17, 35991, Note_on_c, 15, 37, 0
17, 36000, Note_on_c, 15, 36, 84
17, 36171, Note_on_c, 15, 36, 0
17, 36180, Note_on_c, 15, 33, 84
17, 36231, Note_on_c, 15, 33, 0
17, 36240, Note_on_c, 15, 33, 84
17, 36411, Note_on_c, 15, 33, 0
17, 36420, Note_on_c, 15, 33, 84
17, 36471, Note_on_c, 15, 33, 0
17, 36480, Note_on_c, 15, 33, 84
17, 36651, Note_on_c, 15, 33, 0
17, 36660, Note_on_c, 15, 33, 84
17, 36711, Note_on_c, 15, 33, 0
17, 36720, Note_on_c, 15, 33, 84
17, 36891, Note_on_c, 15, 33, 0
17, 36900, Note_on_c, 15, 33, 84
17, 36951, Note_on_c, 15, 33, 0
17, 36960, Note_on_c, 15, 32, 84
17, 37079, Note_on_c, 15, 32, 0
17, 37200, Note_on_c, 15, 32, 76
17, 37289, Note_on_c, 15, 32, 0
17, 37920, Program_c, 15, 45
17, 38160, Note_on_c, 15, 44, 44
17, 38279, Note_on_c, 15, 44, 0
17, 38400, Note_on_c, 15, 32, 44
17, 38519, Note_on_c, 15, 32, 0
17, 38640, Note_on_c, 15, 37, 44
17, 38759, Note_on_c, 15, 37, 0
17, 38880, Note_on_c, 15, 32, 44
17, 38998, Program_c, 15, 48
17, 38999, Note_on_c, 15, 32, 0
17, 39120, Note_on_c, 15, 32, 76
17, 39209, Note_on_c, 15, 32, 0
17, 39840, Program_c, 15, 45
17, 40080, Note_on_c, 15, 44, 44
17, 40199, Note_on_c, 15, 44, 0
17, 40320, Note_on_c, 15, 32, 44
17, 40439, Note_on_c, 15, 32, 0
17, 40560, Note_on_c, 15, 37, 44
17, 40679, Note_on_c, 15, 37, 0
17, 41040, Note_on_c, 15, 44, 44
17, 41159, Note_on_c, 15, 44, 0
17, 41280, Note_on_c, 15, 32, 44
17, 41399, Note_on_c, 15, 32, 0
17, 41520, Note_on_c, 15, 37, 44
17, 41639, Note_on_c, 15, 37, 0
17, 42000, Note_on_c, 15, 44, 44
17, 42119, Note_on_c, 15, 44, 0
17, 42240, Note_on_c, 15, 32, 44
17, 42359, Note_on_c, 15, 32, 0
17, 42480, Note_on_c, 15, 44, 44
17, 42598, Program_c, 15, 48
17, 42599, Note_on_c, 15, 44, 0
17, 42720, Note_on_c, 15, 37, 52
17, 42891, Note_on_c, 15, 37, 0
17, 42900, Note_on_c, 15, 49, 52
17, 42944, Note_on_c, 15, 49, 0
17, 42960, Note_on_c, 15, 49, 76
17, 43191, Note_on_c, 15, 49, 0
17, 43200, Note_on_c, 15, 32, 52
17, 43371, Note_on_c, 15, 32, 0
17, 43380, Note_on_c, 15, 44, 52
17, 43424, Note_on_c, 15, 44, 0
17, 43440, Note_on_c, 15, 44, 76
17, 43671, Note_on_c, 15, 44, 0
17, 43680, Note_on_c, 15, 37, 52
17, 43851, Note_on_c, 15, 37, 0
17, 43860, Note_on_c, 15, 49, 52
17, 43904, Note_on_c, 15, 49, 0
17, 43920, Note_on_c, 15, 49, 76
17, 44151, Note_on_c, 15, 49, 0
17, 44160, Note_on_c, 15, 32, 52
17, 44331, Note_on_c, 15, 32, 0
17, 44340, Note_on_c, 15, 44, 52
17, 44384, Note_on_c, 15, 44, 0
17, 44400, Note_on_c, 15, 44, 76
17, 44631, Note_on_c, 15, 44, 0
17, 44640, Note_on_c, 15, 37, 52
17, 44759, Note_on_c, 15, 37, 0
17, 47040, Note_on_c, 15, 32, 52
17, 47504, Note_on_c, 15, 32, 0
17, 47520, Note_on_c, 15, 37, 52
17, 47691, Note_on_c, 15, 37, 0
17, 47700, Note_on_c, 15, 49, 52
17, 47744, Note_on_c, 15, 49, 0
17, 47760, Note_on_c, 15, 49, 76
17, 47991, Note_on_c, 15, 49, 0
17, 48000, Note_on_c, 15, 32, 52
17, 48171, Note_on_c, 15, 32, 0
17, 48180, Note_on_c, 15, 44, 52
17, 48224, Note_on_c, 15, 44, 0
17, 48240, Note_on_c, 15, 44, 76
17, 48471, Note_on_c, 15, 44, 0
17, 48480, Note_on_c, 15, 37, 52
17, 48651, Note_on_c, 15, 37, 0
17, 48660, Note_on_c, 15, 49, 52
17, 48704, Note_on_c, 15, 49, 0
17, 48720, Note_on_c, 15, 49, 76
17, 48951, Note_on_c, 15, 49, 0
17, 48960, Note_on_c, 15, 32, 52
17, 49131, Note_on_c, 15, 32, 0
17, 49140, Note_on_c, 15, 44, 52
17, 49184, Note_on_c, 15, 44, 0
17, 49200, Note_on_c, 15, 44, 76
17, 49431, Note_on_c, 15, 44, 0
17, 49440, Note_on_c, 15, 37, 52
17, 49559, Note_on_c, 15, 37, 0
17, 53520, Note_on_c, 15, 37, 64
17, 53639, Note_on_c, 15, 37, 0
17, 54000, Note_on_c, 15, 38, 66
17, 54119, Note_on_c, 15, 38, 0
17, 54480, Note_on_c, 15, 33, 69
17, 54599, Note_on_c, 15, 33, 0
17, 54960, Note_on_c, 15, 33, 72
17, 55079, Note_on_c, 15, 33, 0
17, 55440, Note_on_c, 15, 33, 74
17, 55559, Note_on_c, 15, 33, 0
17, 55920, Note_on_c, 15, 33, 77
17, 56039, Note_on_c, 15, 33, 0
17, 56400, Note_on_c, 15, 37, 80
17, 56519, Note_on_c, 15, 37, 0
17, 56880, Note_on_c, 15, 38, 82
17, 56999, Note_on_c, 15, 38, 0
17, 57120, Note_on_c, 15, 36, 84
17, 57171, Note_on_c, 15, 36, 0
17, 57180, Note_on_c, 15, 36, 84
17, 57231, Note_on_c, 15, 36, 0
17, 57240, Note_on_c, 15, 36, 84
17, 57291, Note_on_c, 15, 36, 0
17, 57300, Note_on_c, 15, 36, 84
17, 57351, Note_on_c, 15, 36, 0
17, 57360, Note_on_c, 15, 36, 84
17, 57411, Note_on_c, 15, 36, 0
17, 57420, Note_on_c, 15, 36, 84
17, 57471, Note_on_c, 15, 36, 0
17, 57480, Note_on_c, 15, 36, 84
17, 57531, Note_on_c, 15, 36, 0
17, 57540, Note_on_c, 15, 36, 84
17, 57591, Note_on_c, 15, 36, 0
17, 57600, Note_on_c, 15, 36, 84
17, 57651, Note_on_c, 15, 36, 0
17, 57660, Note_on_c, 15, 36, 84
17, 57711, Note_on_c, 15, 36, 0
17, 57720, Note_on_c, 15, 36, 84
17, 57771, Note_on_c, 15, 36, 0
17, 57780, Note_on_c, 15, 36, 84
17, 57831, Note_on_c, 15, 36, 0
17, 57840, Note_on_c, 15, 36, 84
17, 57891, Note_on_c, 15, 36, 0
17, 57900, Note_on_c, 15, 36, 84
17, 57951, Note_on_c, 15, 36, 0
17, 57960, Note_on_c, 15, 36, 84
17, 58011, Note_on_c, 15, 36, 0
17, 58020, Note_on_c, 15, 36, 84
17, 58071, Note_on_c, 15, 36, 0
17, 58080, Note_on_c, 15, 37, 92
17, 58131, Note_on_c, 15, 37, 0
17, 58140, Note_on_c, 15, 37, 84
17, 58191, Note_on_c, 15, 37, 0
17, 58200, Note_on_c, 15, 37, 84
17, 58251, Note_on_c, 15, 37, 0
17, 58260, Note_on_c, 15, 37, 84
17, 58311, Note_on_c, 15, 37, 0
17, 58320, Note_on_c, 15, 37, 84
17, 58371, Note_on_c, 15, 37, 0
17, 58380, Note_on_c, 15, 37, 84
17, 58431, Note_on_c, 15, 37, 0
17, 58440, Note_on_c, 15, 37, 84
17, 58491, Note_on_c, 15, 37, 0
17, 58500, Note_on_c, 15, 37, 84
17, 58551, Note_on_c, 15, 37, 0
17, 58560, Note_on_c, 15, 36, 92
17, 58611, Note_on_c, 15, 36, 0
17, 58620, Note_on_c, 15, 36, 84
17, 58671, Note_on_c, 15, 36, 0
17, 58680, Note_on_c, 15, 36, 84
17, 58731, Note_on_c, 15, 36, 0
17, 58740, Note_on_c, 15, 36, 84
17, 58791, Note_on_c, 15, 36, 0
17, 58800, Note_on_c, 15, 36, 84
17, 58851, Note_on_c, 15, 36, 0
17, 58860, Note_on_c, 15, 36, 84
17, 58911, Note_on_c, 15, 36, 0
17, 58920, Note_on_c, 15, 36, 84
17, 58971, Note_on_c, 15, 36, 0
17, 58980, Note_on_c, 15, 36, 84
17, 59031, Note_on_c, 15, 36, 0
17, 59040, Note_on_c, 15, 37, 92
17, 59091, Note_on_c, 15, 37, 0
17, 59100, Note_on_c, 15, 37, 84
17, 59151, Note_on_c, 15, 37, 0
17, 59160, Note_on_c, 15, 37, 84
17, 59211, Note_on_c, 15, 37, 0
17, 59220, Note_on_c, 15, 37, 84
17, 59271, Note_on_c, 15, 37, 0
17, 59280, Note_on_c, 15, 37, 84
17, 59331, Note_on_c, 15, 37, 0
17, 59340, Note_on_c, 15, 37, 84
17, 59391, Note_on_c, 15, 37, 0
17, 59400, Note_on_c, 15, 37, 84
17, 59451, Note_on_c, 15, 37, 0
17, 59460, Note_on_c, 15, 37, 84
17, 59511, Note_on_c, 15, 37, 0
17, 59520, Note_on_c, 15, 36, 92
17, 59571, Note_on_c, 15, 36, 0
17, 59580, Note_on_c, 15, 36, 84
17, 59631, Note_on_c, 15, 36, 0
17, 59640, Note_on_c, 15, 36, 84
17, 59691, Note_on_c, 15, 36, 0
17, 59700, Note_on_c, 15, 36, 84
17, 59751, Note_on_c, 15, 36, 0
17, 59760, Note_on_c, 15, 36, 84
17, 59811, Note_on_c, 15, 36, 0
17, 59820, Note_on_c, 15, 36, 84
17, 59871, Note_on_c, 15, 36, 0
17, 59880, Note_on_c, 15, 36, 84
17, 59931, Note_on_c, 15, 36, 0
17, 59940, Note_on_c, 15, 36, 84
17, 59991, Note_on_c, 15, 36, 0
17, 60000, Note_on_c, 15, 37, 92
17, 60051, Note_on_c, 15, 37, 0
17, 60060, Note_on_c, 15, 37, 84
17, 60111, Note_on_c, 15, 37, 0
17, 60120, Note_on_c, 15, 37, 84
17, 60171, Note_on_c, 15, 37, 0
17, 60180, Note_on_c, 15, 37, 84
17, 60231, Note_on_c, 15, 37, 0
17, 60240, Note_on_c, 15, 37, 84
17, 60291, Note_on_c, 15, 37, 0
17, 60300, Note_on_c, 15, 37, 84
17, 60351, Note_on_c, 15, 37, 0
17, 60360, Note_on_c, 15, 37, 84
17, 60411, Note_on_c, 15, 37, 0
17, 60420, Note_on_c, 15, 37, 84
17, 60471, Note_on_c, 15, 37, 0
17, 60480, Note_on_c, 15, 30, 92
17, 60531, Note_on_c, 15, 30, 0
17, 60540, Note_on_c, 15, 30, 84
17, 60591, Note_on_c, 15, 30, 0
17, 60600, Note_on_c, 15, 30, 84
17, 60651, Note_on_c, 15, 30, 0
17, 60660, Note_on_c, 15, 30, 84
17, 60711, Note_on_c, 15, 30, 0
17, 60720, Note_on_c, 15, 30, 84
17, 60771, Note_on_c, 15, 30, 0
17, 60780, Note_on_c, 15, 30, 84
17, 60831, Note_on_c, 15, 30, 0
17, 60840, Note_on_c, 15, 30, 84
17, 60891, Note_on_c, 15, 30, 0
17, 60900, Note_on_c, 15, 30, 84
17, 60951, Note_on_c, 15, 30, 0
17, 60960, Note_on_c, 15, 32, 92
17, 61011, Note_on_c, 15, 32, 0
17, 61020, Note_on_c, 15, 32, 84
17, 61071, Note_on_c, 15, 32, 0
17, 61080, Note_on_c, 15, 32, 84
17, 61131, Note_on_c, 15, 32, 0
17, 61140, Note_on_c, 15, 32, 84
17, 61191, Note_on_c, 15, 32, 0
17, 61200, Note_on_c, 15, 32, 84
17, 61251, Note_on_c, 15, 32, 0
17, 61260, Note_on_c, 15, 32, 84
17, 61311, Note_on_c, 15, 32, 0
17, 61320, Note_on_c, 15, 32, 84
17, 61371, Note_on_c, 15, 32, 0
17, 61380, Note_on_c, 15, 32, 84
17, 61431, Note_on_c, 15, 32, 0
17, 61440, Note_on_c, 15, 32, 92
17, 61491, Note_on_c, 15, 32, 0
17, 61500, Note_on_c, 15, 32, 84
17, 61551, Note_on_c, 15, 32, 0
17, 61560, Note_on_c, 15, 32, 84
17, 61611, Note_on_c, 15, 32, 0
17, 61620, Note_on_c, 15, 32, 84
17, 61671, Note_on_c, 15, 32, 0
17, 61680, Note_on_c, 15, 32, 84
17, 61731, Note_on_c, 15, 32, 0
17, 61740, Note_on_c, 15, 32, 84
17, 61791, Note_on_c, 15, 32, 0
17, 61800, Note_on_c, 15, 32, 84
17, 61851, Note_on_c, 15, 32, 0
17, 61860, Note_on_c, 15, 32, 84
17, 61911, Note_on_c, 15, 32, 0
17, 61920, Note_on_c, 15, 37, 84
17, 61971, Note_on_c, 15, 37, 0
17, 61980, Note_on_c, 15, 37, 84
17, 62031, Note_on_c, 15, 37, 0
17, 62040, Note_on_c, 15, 37, 84
17, 62091, Note_on_c, 15, 37, 0
17, 62100, Note_on_c, 15, 37, 84
17, 62151, Note_on_c, 15, 37, 0
17, 62160, Note_on_c, 15, 37, 92
17, 62211, Note_on_c, 15, 37, 0
17, 62220, Note_on_c, 15, 37, 84
17, 62271, Note_on_c, 15, 37, 0
17, 62280, Note_on_c, 15, 37, 84
17, 62331, Note_on_c, 15, 37, 0
17, 62340, Note_on_c, 15, 37, 84
17, 62391, Note_on_c, 15, 37, 0
17, 62400, Note_on_c, 15, 37, 84
17, 62451, Note_on_c, 15, 37, 0
17, 62460, Note_on_c, 15, 37, 84
17, 62511, Note_on_c, 15, 37, 0
17, 62520, Note_on_c, 15, 37, 84
17, 62571, Note_on_c, 15, 37, 0
17, 62580, Note_on_c, 15, 37, 84
17, 62631, Note_on_c, 15, 37, 0
17, 62640, Note_on_c, 15, 37, 84
17, 62691, Note_on_c, 15, 37, 0
17, 62700, Note_on_c, 15, 37, 84
17, 62751, Note_on_c, 15, 37, 0
17, 62760, Note_on_c, 15, 37, 84
17, 62811, Note_on_c, 15, 37, 0
17, 62820, Note_on_c, 15, 37, 84
17, 62871, Note_on_c, 15, 37, 0
17, 62880, Note_on_c, 15, 37, 84
17, 62931, Note_on_c, 15, 37, 0
17, 62940, Note_on_c, 15, 37, 84
17, 62991, Note_on_c, 15, 37, 0
17, 63000, Note_on_c, 15, 37, 84
17, 63051, Note_on_c, 15, 37, 0
17, 63060, Note_on_c, 15, 37, 84
17, 63111, Note_on_c, 15, 37, 0
17, 63120, Note_on_c, 15, 37, 92
17, 63171, Note_on_c, 15, 37, 0
17, 63180, Note_on_c, 15, 37, 84
17, 63231, Note_on_c, 15, 37, 0
17, 63240, Note_on_c, 15, 37, 84
17, 63291, Note_on_c, 15, 37, 0
17, 63300, Note_on_c, 15, 37, 84
17, 63351, Note_on_c, 15, 37, 0
17, 63360, Note_on_c, 15, 37, 84
17, 63411, Note_on_c, 15, 37, 0
17, 63420, Note_on_c, 15, 37, 84
17, 63471, Note_on_c, 15, 37, 0
17, 63480, Note_on_c, 15, 37, 84
17, 63531, Note_on_c, 15, 37, 0
17, 63540, Note_on_c, 15, 37, 84
17, 63591, Note_on_c, 15, 37, 0
17, 63600, Note_on_c, 15, 37, 84
17, 63651, Note_on_c, 15, 37, 0
17, 63660, Note_on_c, 15, 37, 84
17, 63711, Note_on_c, 15, 37, 0
17, 63720, Note_on_c, 15, 37, 84
17, 63771, Note_on_c, 15, 37, 0
17, 63780, Note_on_c, 15, 37, 84
17, 63831, Note_on_c, 15, 37, 0
17, 63840, Note_on_c, 15, 37, 84
17, 63891, Note_on_c, 15, 37, 0
17, 63900, Note_on_c, 15, 37, 84
17, 63951, Note_on_c, 15, 37, 0
17, 63960, Note_on_c, 15, 37, 84
17, 64011, Note_on_c, 15, 37, 0
17, 64020, Note_on_c, 15, 37, 84
17, 64071, Note_on_c, 15, 37, 0
17, 64080, Note_on_c, 15, 37, 92
17, 64131, Note_on_c, 15, 37, 0
17, 64140, Note_on_c, 15, 37, 84
17, 64191, Note_on_c, 15, 37, 0
17, 64200, Note_on_c, 15, 37, 84
17, 64251, Note_on_c, 15, 37, 0
17, 64260, Note_on_c, 15, 37, 84
17, 64311, Note_on_c, 15, 37, 0
17, 64320, Note_on_c, 15, 37, 84
17, 64371, Note_on_c, 15, 37, 0
17, 64380, Note_on_c, 15, 37, 84
17, 64431, Note_on_c, 15, 37, 0
17, 64440, Note_on_c, 15, 37, 84
17, 64491, Note_on_c, 15, 37, 0
17, 64500, Note_on_c, 15, 37, 84
17, 64551, Note_on_c, 15, 37, 0
17, 64560, Note_on_c, 15, 37, 92
17, 64611, Note_on_c, 15, 37, 0
17, 64620, Note_on_c, 15, 37, 84
17, 64671, Note_on_c, 15, 37, 0
17, 64680, Note_on_c, 15, 37, 84
17, 64731, Note_on_c, 15, 37, 0
17, 64740, Note_on_c, 15, 37, 84
17, 64791, Note_on_c, 15, 37, 0
17, 64800, Note_on_c, 15, 37, 84
17, 64851, Note_on_c, 15, 37, 0
17, 64860, Note_on_c, 15, 37, 84
17, 64911, Note_on_c, 15, 37, 0
17, 64920, Note_on_c, 15, 37, 84
17, 64971, Note_on_c, 15, 37, 0
17, 64980, Note_on_c, 15, 37, 84
17, 65031, Note_on_c, 15, 37, 0
17, 65040, Note_on_c, 15, 37, 92
17, 65091, Note_on_c, 15, 37, 0
17, 65100, Note_on_c, 15, 37, 84
17, 65151, Note_on_c, 15, 37, 0
17, 65160, Note_on_c, 15, 37, 84
17, 65211, Note_on_c, 15, 37, 0
17, 65220, Note_on_c, 15, 37, 84
17, 65271, Note_on_c, 15, 37, 0
17, 65280, Note_on_c, 15, 37, 84
17, 65331, Note_on_c, 15, 37, 0
17, 65340, Note_on_c, 15, 37, 84
17, 65391, Note_on_c, 15, 37, 0
17, 65400, Note_on_c, 15, 37, 84
17, 65451, Note_on_c, 15, 37, 0
17, 65460, Note_on_c, 15, 37, 84
17, 65511, Note_on_c, 15, 37, 0
17, 65520, Note_on_c, 15, 39, 84
17, 65571, Note_on_c, 15, 39, 0
17, 65580, Note_on_c, 15, 39, 84
17, 65631, Note_on_c, 15, 39, 0
17, 65640, Note_on_c, 15, 39, 84
17, 65691, Note_on_c, 15, 39, 0
17, 65700, Note_on_c, 15, 39, 84
17, 65751, Note_on_c, 15, 39, 0
17, 65760, Note_on_c, 15, 40, 84
17, 65879, Note_on_c, 15, 40, 0
17, 66720, Note_on_c, 15, 40, 84
17, 66839, Note_on_c, 15, 40, 0
17, 67680, Note_on_c, 15, 26, 84
17, 67799, Note_on_c, 15, 26, 0
17, 67920, Note_on_c, 15, 26, 92
17, 68159, Note_on_c, 15, 26, 0
17, 68160, Note_on_c, 15, 25, 84
17, 68279, Note_on_c, 15, 25, 0
17, 68400, Note_on_c, 15, 25, 92
17, 68639, Note_on_c, 15, 25, 0
17, 68640, Note_on_c, 15, 26, 84
17, 68759, Note_on_c, 15, 26, 0
17, 68880, Note_on_c, 15, 26, 92
17, 69119, Note_on_c, 15, 26, 0
17, 69120, Note_on_c, 15, 25, 84
17, 69239, Note_on_c, 15, 25, 0
17, 69360, Note_on_c, 15, 30, 92
17, 69599, Note_on_c, 15, 30, 0
17, 69600, Note_on_c, 15, 35, 84
17, 69719, Note_on_c, 15, 35, 0
17, 69840, Note_on_c, 15, 28, 92
17, 70079, Note_on_c, 15, 28, 0
17, 70080, Note_on_c, 15, 33, 84
17, 70199, Note_on_c, 15, 33, 0
17, 70320, Note_on_c, 15, 25, 92
17, 70559, Note_on_c, 15, 25, 0
17, 70560, Note_on_c, 15, 28, 84
17, 70679, Note_on_c, 15, 28, 0
17, 70800, Note_on_c, 15, 28, 92
17, 71039, Note_on_c, 15, 28, 0
17, 71040, Note_on_c, 15, 33, 84
17, 71159, Note_on_c, 15, 33, 0
17, 71520, Note_on_c, 15, 26, 84
17, 71639, Note_on_c, 15, 26, 0
17, 71760, Note_on_c, 15, 26, 92
17, 71999, Note_on_c, 15, 26, 0
17, 72000, Note_on_c, 15, 25, 84
17, 72119, Note_on_c, 15, 25, 0
17, 72240, Note_on_c, 15, 25, 92
17, 72479, Note_on_c, 15, 25, 0
17, 72480, Note_on_c, 15, 26, 84
17, 72599, Note_on_c, 15, 26, 0
17, 72720, Note_on_c, 15, 26, 92
17, 72959, Note_on_c, 15, 26, 0
17, 72960, Note_on_c, 15, 25, 84
17, 73079, Note_on_c, 15, 25, 0
17, 73200, Note_on_c, 15, 30, 92
17, 73439, Note_on_c, 15, 30, 0
17, 73440, Note_on_c, 15, 35, 84
17, 73559, Note_on_c, 15, 35, 0
17, 73680, Note_on_c, 15, 28, 92
17, 73919, Note_on_c, 15, 28, 0
17, 73920, Note_on_c, 15, 33, 84
17, 74039, Note_on_c, 15, 33, 0
17, 74160, Note_on_c, 15, 25, 92
17, 74399, Note_on_c, 15, 25, 0
17, 74400, Note_on_c, 15, 28, 84
17, 74519, Note_on_c, 15, 28, 0
17, 74640, Note_on_c, 15, 28, 92
17, 74879, Note_on_c, 15, 28, 0
17, 74880, Note_on_c, 15, 33, 84
17, 74999, Note_on_c, 15, 33, 0
17, 75360, Note_on_c, 15, 33, 84
17, 75479, Note_on_c, 15, 33, 0
17, 75840, Note_on_c, 15, 28, 84
17, 75959, Note_on_c, 15, 28, 0
17, 76320, Note_on_c, 15, 28, 84
17, 76439, Note_on_c, 15, 28, 0
17, 76800, Note_on_c, 15, 33, 84
17, 76919, Note_on_c, 15, 33, 0
17, 77040, Note_on_c, 15, 33, 84
17, 77159, Note_on_c, 15, 33, 0
17, 77280, Note_on_c, 15, 33, 84
17, 77399, Note_on_c, 15, 33, 0
17, 77520, Note_on_c, 15, 33, 84
17, 77639, Note_on_c, 15, 33, 0
17, 77760, Note_on_c, 15, 28, 84
17, 77879, Note_on_c, 15, 28, 0
17, 78000, Note_on_c, 15, 28, 84
17, 78119, Note_on_c, 15, 28, 0
17, 78240, Note_on_c, 15, 28, 84
17, 78359, Note_on_c, 15, 28, 0
17, 78480, Note_on_c, 15, 28, 84
17, 78599, Note_on_c, 15, 28, 0
17, 78720, Note_on_c, 15, 33, 84
17, 78839, Note_on_c, 15, 33, 0
17, 79200, Note_on_c, 15, 33, 84
17, 79319, Note_on_c, 15, 33, 0
17, 79680, Note_on_c, 15, 28, 84
17, 79799, Note_on_c, 15, 28, 0
17, 80160, Note_on_c, 15, 28, 84
17, 80279, Note_on_c, 15, 28, 0
17, 80640, Note_on_c, 15, 33, 84
17, 80744, Note_on_c, 15, 33, 0
17, 80760, Note_on_c, 15, 33, 84
17, 80864, Note_on_c, 15, 33, 0
17, 80880, Note_on_c, 15, 33, 84
17, 80984, Note_on_c, 15, 33, 0
17, 81000, Note_on_c, 15, 33, 84
17, 81104, Note_on_c, 15, 33, 0
17, 81120, Note_on_c, 15, 33, 84
17, 81224, Note_on_c, 15, 33, 0
17, 81240, Note_on_c, 15, 33, 84
17, 81344, Note_on_c, 15, 33, 0
17, 81360, Note_on_c, 15, 33, 84
17, 81464, Note_on_c, 15, 33, 0
17, 81480, Note_on_c, 15, 33, 84
17, 81584, Note_on_c, 15, 33, 0
17, 81600, Note_on_c, 15, 28, 84
17, 81704, Note_on_c, 15, 28, 0
17, 81720, Note_on_c, 15, 28, 84
17, 81824, Note_on_c, 15, 28, 0
17, 81840, Note_on_c, 15, 28, 84
17, 81944, Note_on_c, 15, 28, 0
17, 81960, Note_on_c, 15, 28, 84
17, 82064, Note_on_c, 15, 28, 0
17, 82080, Note_on_c, 15, 28, 84
17, 82184, Note_on_c, 15, 28, 0
17, 82200, Note_on_c, 15, 28, 84
17, 82304, Note_on_c, 15, 28, 0
17, 82320, Note_on_c, 15, 28, 84
17, 82424, Note_on_c, 15, 28, 0
17, 82440, Note_on_c, 15, 28, 84
17, 82544, Note_on_c, 15, 28, 0
17, 82560, Note_on_c, 15, 33, 84
17, 82679, Note_on_c, 15, 33, 0
17, 83280, Note_on_c, 15, 52, 84
17, 83519, Note_on_c, 15, 52, 0
17, 83520, Note_on_c, 15, 45, 84
17, 83759, Note_on_c, 15, 45, 0
17, 83760, Note_on_c, 15, 40, 84
17, 83999, Note_on_c, 15, 40, 0
17, 84000, Note_on_c, 15, 33, 84
17, 84239, Note_on_c, 15, 33, 0
17, 84240, Note_on_c, 15, 28, 84
17, 84479, Note_on_c, 15, 28, 0
17, 84480, Note_on_c, 15, 33, 84
17, 84719, Note_on_c, 15, 33, 0
17, 85200, Note_on_c, 15, 52, 84
17, 85439, Note_on_c, 15, 52, 0
17, 85440, Note_on_c, 15, 45, 84
17, 85679, Note_on_c, 15, 45, 0
17, 85680, Note_on_c, 15, 40, 84
17, 85919, Note_on_c, 15, 40, 0
17, 85920, Note_on_c, 15, 33, 84
17, 86159, Note_on_c, 15, 33, 0
17, 86160, Note_on_c, 15, 37, 84
17, 86399, Note_on_c, 15, 37, 0
17, 86400, Note_on_c, 15, 30, 84
17, 86639, Note_on_c, 15, 30, 0
17, 87120, Note_on_c, 15, 49, 84
17, 87359, Note_on_c, 15, 49, 0
17, 87360, Note_on_c, 15, 54, 84
17, 87599, Note_on_c, 15, 54, 0
17, 87600, Note_on_c, 15, 49, 84
17, 87839, Note_on_c, 15, 49, 0
17, 87840, Note_on_c, 15, 42, 84
17, 88079, Note_on_c, 15, 42, 0
17, 88080, Note_on_c, 15, 37, 84
17, 88319, Note_on_c, 15, 37, 0
17, 88320, Note_on_c, 15, 30, 84
17, 88559, Note_on_c, 15, 30, 0
17, 89040, Note_on_c, 15, 49, 84
17, 89279, Note_on_c, 15, 49, 0
17, 89280, Note_on_c, 15, 54, 84
17, 89519, Note_on_c, 15, 54, 0
17, 89520, Note_on_c, 15, 49, 84
17, 89759, Note_on_c, 15, 49, 0
17, 89760, Note_on_c, 15, 42, 84
17, 89999, Note_on_c, 15, 42, 0
17, 90000, Note_on_c, 15, 37, 84
17, 90224, Note_on_c, 15, 37, 0
17, 90240, Note_on_c, 15, 30, 84
17, 90411, Note_on_c, 15, 30, 0
17, 90420, Note_on_c, 15, 42, 84
17, 90471, Note_on_c, 15, 42, 0
17, 90480, Note_on_c, 15, 42, 84
17, 90651, Note_on_c, 15, 42, 0
17, 90660, Note_on_c, 15, 42, 84
17, 90711, Note_on_c, 15, 42, 0
17, 90720, Note_on_c, 15, 42, 84
17, 90891, Note_on_c, 15, 42, 0
17, 90900, Note_on_c, 15, 42, 84
17, 90951, Note_on_c, 15, 42, 0
17, 90960, Note_on_c, 15, 42, 84
17, 91131, Note_on_c, 15, 42, 0
17, 91140, Note_on_c, 15, 42, 84
17, 91191, Note_on_c, 15, 42, 0
17, 91200, Note_on_c, 15, 41, 84
17, 91371, Note_on_c, 15, 41, 0
17, 91380, Note_on_c, 15, 41, 84
17, 91431, Note_on_c, 15, 41, 0
17, 91440, Note_on_c, 15, 41, 84
17, 91611, Note_on_c, 15, 41, 0
17, 91620, Note_on_c, 15, 41, 84
17, 91671, Note_on_c, 15, 41, 0
17, 91680, Note_on_c, 15, 41, 84
17, 91851, Note_on_c, 15, 41, 0
17, 91860, Note_on_c, 15, 41, 84
17, 91911, Note_on_c, 15, 41, 0
17, 91920, Note_on_c, 15, 41, 84
17, 92091, Note_on_c, 15, 41, 0
17, 92100, Note_on_c, 15, 41, 84
17, 92151, Note_on_c, 15, 41, 0
17, 92160, Note_on_c, 15, 42, 84
17, 92331, Note_on_c, 15, 42, 0
17, 92340, Note_on_c, 15, 42, 84
17, 92391, Note_on_c, 15, 42, 0
17, 92400, Note_on_c, 15, 42, 84
17, 92571, Note_on_c, 15, 42, 0
17, 92580, Note_on_c, 15, 42, 84
17, 92631, Note_on_c, 15, 42, 0
17, 92640, Note_on_c, 15, 40, 84
17, 92811, Note_on_c, 15, 40, 0
17, 92820, Note_on_c, 15, 40, 84
17, 92871, Note_on_c, 15, 40, 0
17, 92880, Note_on_c, 15, 40, 84
17, 93051, Note_on_c, 15, 40, 0
17, 93060, Note_on_c, 15, 40, 84
17, 93111, Note_on_c, 15, 40, 0
17, 93120, Note_on_c, 15, 39, 84
17, 93291, Note_on_c, 15, 39, 0
17, 93300, Note_on_c, 15, 39, 84
17, 93351, Note_on_c, 15, 39, 0
17, 93360, Note_on_c, 15, 39, 84
17, 93531, Note_on_c, 15, 39, 0
17, 93540, Note_on_c, 15, 39, 84
17, 93591, Note_on_c, 15, 39, 0
17, 93600, Note_on_c, 15, 37, 84
17, 93771, Note_on_c, 15, 37, 0
17, 93780, Note_on_c, 15, 37, 84
17, 93831, Note_on_c, 15, 37, 0
17, 93840, Note_on_c, 15, 37, 84
17, 94011, Note_on_c, 15, 37, 0
17, 94020, Note_on_c, 15, 37, 84
17, 94071, Note_on_c, 15, 37, 0
17, 94080, Note_on_c, 15, 36, 84
17, 94251, Note_on_c, 15, 36, 0
17, 94260, Note_on_c, 15, 33, 84
17, 94311, Note_on_c, 15, 33, 0
17, 94320, Note_on_c, 15, 33, 84
17, 94491, Note_on_c, 15, 33, 0
17, 94500, Note_on_c, 15, 33, 84
17, 94551, Note_on_c, 15, 33, 0
17, 94560, Note_on_c, 15, 33, 84
17, 94731, Note_on_c, 15, 33, 0
17, 94740, Note_on_c, 15, 33, 84
17, 94791, Note_on_c, 15, 33, 0
17, 94800, Note_on_c, 15, 33, 84
17, 94971, Note_on_c, 15, 33, 0
17, 94980, Note_on_c, 15, 33, 84
17, 95031, Note_on_c, 15, 33, 0
17, 95040, Note_on_c, 15, 32, 84
17, 95159, Note_on_c, 15, 32, 0
17, 95280, Note_on_c, 15, 32, 76
17, 95369, Note_on_c, 15, 32, 0
17, 96000, Program_c, 15, 45
17, 96240, Note_on_c, 15, 44, 44
17, 96359, Note_on_c, 15, 44, 0
17, 96480, Note_on_c, 15, 32, 44
17, 96599, Note_on_c, 15, 32, 0
17, 96720, Note_on_c, 15, 37, 44
17, 96839, Note_on_c, 15, 37, 0
17, 96960, Note_on_c, 15, 32, 44
17, 97078, Program_c, 15, 48
17, 97079, Note_on_c, 15, 32, 0
17, 97200, Note_on_c, 15, 32, 76
17, 97289, Note_on_c, 15, 32, 0
17, 97920, Program_c, 15, 45
17, 98160, Note_on_c, 15, 44, 44
17, 98279, Note_on_c, 15, 44, 0
17, 98400, Note_on_c, 15, 32, 44
17, 98519, Note_on_c, 15, 32, 0
17, 98640, Note_on_c, 15, 37, 44
17, 98759, Note_on_c, 15, 37, 0
17, 99120, Note_on_c, 15, 44, 44
17, 99239, Note_on_c, 15, 44, 0
17, 99360, Note_on_c, 15, 32, 44
17, 99479, Note_on_c, 15, 32, 0
17, 99600, Note_on_c, 15, 37, 44
17, 99719, Note_on_c, 15, 37, 0
17, 100080, Note_on_c, 15, 44, 44
17, 100199, Note_on_c, 15, 44, 0
17, 100320, Note_on_c, 15, 32, 44
17, 100439, Note_on_c, 15, 32, 0
17, 100560, Note_on_c, 15, 44, 44
17, 100678, Program_c, 15, 48
17, 100679, Note_on_c, 15, 44, 0
17, 100800, Note_on_c, 15, 37, 52
17, 100971, Note_on_c, 15, 37, 0
17, 100980, Note_on_c, 15, 49, 52
17, 101024, Note_on_c, 15, 49, 0
17, 101040, Note_on_c, 15, 49, 76
17, 101271, Note_on_c, 15, 49, 0
17, 101280, Note_on_c, 15, 32, 52
17, 101451, Note_on_c, 15, 32, 0
17, 101460, Note_on_c, 15, 44, 52
17, 101504, Note_on_c, 15, 44, 0
17, 101520, Note_on_c, 15, 44, 76
17, 101751, Note_on_c, 15, 44, 0
17, 101760, Note_on_c, 15, 37, 52
17, 101931, Note_on_c, 15, 37, 0
17, 101940, Note_on_c, 15, 49, 52
17, 101984, Note_on_c, 15, 49, 0
17, 102000, Note_on_c, 15, 49, 76
17, 102231, Note_on_c, 15, 49, 0
17, 102240, Note_on_c, 15, 32, 52
17, 102411, Note_on_c, 15, 32, 0
17, 102420, Note_on_c, 15, 44, 52
17, 102464, Note_on_c, 15, 44, 0
17, 102480, Note_on_c, 15, 44, 76
17, 102711, Note_on_c, 15, 44, 0
17, 102720, Note_on_c, 15, 37, 52
17, 102839, Note_on_c, 15, 37, 0
17, 105120, Note_on_c, 15, 32, 52
17, 105584, Note_on_c, 15, 32, 0
17, 105600, Note_on_c, 15, 37, 52
17, 105771, Note_on_c, 15, 37, 0
17, 105780, Note_on_c, 15, 49, 52
17, 105824, Note_on_c, 15, 49, 0
17, 105840, Note_on_c, 15, 49, 76
17, 106071, Note_on_c, 15, 49, 0
17, 106080, Note_on_c, 15, 32, 52
17, 106251, Note_on_c, 15, 32, 0
17, 106260, Note_on_c, 15, 44, 52
17, 106304, Note_on_c, 15, 44, 0
17, 106320, Note_on_c, 15, 44, 76
17, 106551, Note_on_c, 15, 44, 0
17, 106560, Note_on_c, 15, 37, 52
17, 106731, Note_on_c, 15, 37, 0
17, 106740, Note_on_c, 15, 49, 52
17, 106784, Note_on_c, 15, 49, 0
17, 106800, Note_on_c, 15, 49, 76
17, 107031, Note_on_c, 15, 49, 0
17, 107040, Note_on_c, 15, 32, 52
17, 107211, Note_on_c, 15, 32, 0
17, 107220, Note_on_c, 15, 44, 52
17, 107264, Note_on_c, 15, 44, 0
17, 107280, Note_on_c, 15, 44, 76
17, 107511, Note_on_c, 15, 44, 0
17, 107520, Note_on_c, 15, 37, 52
17, 107639, Note_on_c, 15, 37, 0
17, 111600, Note_on_c, 15, 37, 64
17, 111719, Note_on_c, 15, 37, 0
17, 112080, Note_on_c, 15, 38, 66
17, 112199, Note_on_c, 15, 38, 0
17, 112560, Note_on_c, 15, 33, 69
17, 112679, Note_on_c, 15, 33, 0
17, 113040, Note_on_c, 15, 33, 72
17, 113159, Note_on_c, 15, 33, 0
17, 113520, Note_on_c, 15, 33, 74
17, 113639, Note_on_c, 15, 33, 0
17, 114000, Note_on_c, 15, 33, 77
17, 114119, Note_on_c, 15, 33, 0
17, 114480, Note_on_c, 15, 37, 80
17, 114599, Note_on_c, 15, 37, 0
17, 114960, Note_on_c, 15, 38, 82
17, 115079, Note_on_c, 15, 38, 0
17, 115200, Note_on_c, 15, 36, 84
17, 115251, Note_on_c, 15, 36, 0
17, 115260, Note_on_c, 15, 36, 84
17, 115311, Note_on_c, 15, 36, 0
17, 115320, Note_on_c, 15, 36, 84
17, 115371, Note_on_c, 15, 36, 0
17, 115380, Note_on_c, 15, 36, 84
17, 115431, Note_on_c, 15, 36, 0
17, 115440, Note_on_c, 15, 36, 84
17, 115491, Note_on_c, 15, 36, 0
17, 115500, Note_on_c, 15, 36, 84
17, 115551, Note_on_c, 15, 36, 0
17, 115560, Note_on_c, 15, 36, 84
17, 115611, Note_on_c, 15, 36, 0
17, 115620, Note_on_c, 15, 36, 84
17, 115671, Note_on_c, 15, 36, 0
17, 115680, Note_on_c, 15, 36, 84
17, 115731, Note_on_c, 15, 36, 0
17, 115740, Note_on_c, 15, 36, 84
17, 115791, Note_on_c, 15, 36, 0
17, 115800, Note_on_c, 15, 36, 84
17, 115851, Note_on_c, 15, 36, 0
17, 115860, Note_on_c, 15, 36, 84
17, 115911, Note_on_c, 15, 36, 0
17, 115920, Note_on_c, 15, 36, 84
17, 115971, Note_on_c, 15, 36, 0
17, 115980, Note_on_c, 15, 36, 84
17, 116031, Note_on_c, 15, 36, 0
17, 116040, Note_on_c, 15, 36, 84
17, 116091, Note_on_c, 15, 36, 0
17, 116100, Note_on_c, 15, 36, 84
17, 116151, Note_on_c, 15, 36, 0
17, 116160, Note_on_c, 15, 37, 92
17, 116211, Note_on_c, 15, 37, 0
17, 116220, Note_on_c, 15, 37, 84
17, 116271, Note_on_c, 15, 37, 0
17, 116280, Note_on_c, 15, 37, 84
17, 116331, Note_on_c, 15, 37, 0
17, 116340, Note_on_c, 15, 37, 84
17, 116391, Note_on_c, 15, 37, 0
17, 116400, Note_on_c, 15, 37, 84
17, 116451, Note_on_c, 15, 37, 0
17, 116460, Note_on_c, 15, 37, 84
17, 116511, Note_on_c, 15, 37, 0
17, 116520, Note_on_c, 15, 37, 84
17, 116571, Note_on_c, 15, 37, 0
17, 116580, Note_on_c, 15, 37, 84
17, 116631, Note_on_c, 15, 37, 0
17, 116640, Note_on_c, 15, 36, 92
17, 116691, Note_on_c, 15, 36, 0
17, 116700, Note_on_c, 15, 36, 84
17, 116751, Note_on_c, 15, 36, 0
17, 116760, Note_on_c, 15, 36, 84
17, 116811, Note_on_c, 15, 36, 0
17, 116820, Note_on_c, 15, 36, 84
17, 116871, Note_on_c, 15, 36, 0
17, 116880, Note_on_c, 15, 36, 84
17, 116931, Note_on_c, 15, 36, 0
17, 116940, Note_on_c, 15, 36, 84
17, 116991, Note_on_c, 15, 36, 0
17, 117000, Note_on_c, 15, 36, 84
17, 117051, Note_on_c, 15, 36, 0
17, 117060, Note_on_c, 15, 36, 84
17, 117111, Note_on_c, 15, 36, 0
17, 117120, Note_on_c, 15, 37, 92
17, 117171, Note_on_c, 15, 37, 0
17, 117180, Note_on_c, 15, 37, 84
17, 117231, Note_on_c, 15, 37, 0
17, 117240, Note_on_c, 15, 37, 84
17, 117291, Note_on_c, 15, 37, 0
17, 117300, Note_on_c, 15, 37, 84
17, 117351, Note_on_c, 15, 37, 0
17, 117360, Note_on_c, 15, 37, 84
17, 117411, Note_on_c, 15, 37, 0
17, 117420, Note_on_c, 15, 37, 84
17, 117471, Note_on_c, 15, 37, 0
17, 117480, Note_on_c, 15, 37, 84
17, 117531, Note_on_c, 15, 37, 0
17, 117540, Note_on_c, 15, 37, 84
17, 117591, Note_on_c, 15, 37, 0
17, 117600, Note_on_c, 15, 36, 92
17, 117651, Note_on_c, 15, 36, 0
17, 117660, Note_on_c, 15, 36, 84
17, 117711, Note_on_c, 15, 36, 0
17, 117720, Note_on_c, 15, 36, 84
17, 117771, Note_on_c, 15, 36, 0
17, 117780, Note_on_c, 15, 36, 84
17, 117831, Note_on_c, 15, 36, 0
17, 117840, Note_on_c, 15, 36, 84
17, 117891, Note_on_c, 15, 36, 0
17, 117900, Note_on_c, 15, 36, 84
17, 117951, Note_on_c, 15, 36, 0
17, 117960, Note_on_c, 15, 36, 84
17, 118011, Note_on_c, 15, 36, 0
17, 118020, Note_on_c, 15, 36, 84
17, 118071, Note_on_c, 15, 36, 0
17, 118080, Note_on_c, 15, 37, 92
17, 118131, Note_on_c, 15, 37, 0
17, 118140, Note_on_c, 15, 37, 84
17, 118191, Note_on_c, 15, 37, 0
17, 118200, Note_on_c, 15, 37, 84
17, 118251, Note_on_c, 15, 37, 0
17, 118260, Note_on_c, 15, 37, 84
17, 118311, Note_on_c, 15, 37, 0
17, 118320, Note_on_c, 15, 37, 84
17, 118371, Note_on_c, 15, 37, 0
17, 118380, Note_on_c, 15, 37, 84
17, 118431, Note_on_c, 15, 37, 0
17, 118440, Note_on_c, 15, 37, 84
17, 118491, Note_on_c, 15, 37, 0
17, 118500, Note_on_c, 15, 37, 84
17, 118551, Note_on_c, 15, 37, 0
17, 118560, Note_on_c, 15, 30, 92
17, 118611, Note_on_c, 15, 30, 0
17, 118620, Note_on_c, 15, 30, 84
17, 118671, Note_on_c, 15, 30, 0
17, 118680, Note_on_c, 15, 30, 84
17, 118731, Note_on_c, 15, 30, 0
17, 118740, Note_on_c, 15, 30, 84
17, 118791, Note_on_c, 15, 30, 0
17, 118800, Note_on_c, 15, 30, 84
17, 118851, Note_on_c, 15, 30, 0
17, 118860, Note_on_c, 15, 30, 84
17, 118911, Note_on_c, 15, 30, 0
17, 118920, Note_on_c, 15, 30, 84
17, 118971, Note_on_c, 15, 30, 0
17, 118980, Note_on_c, 15, 30, 84
17, 119031, Note_on_c, 15, 30, 0
17, 119040, Note_on_c, 15, 32, 92
17, 119091, Note_on_c, 15, 32, 0
17, 119100, Note_on_c, 15, 32, 84
17, 119151, Note_on_c, 15, 32, 0
17, 119160, Note_on_c, 15, 32, 84
17, 119211, Note_on_c, 15, 32, 0
17, 119220, Note_on_c, 15, 32, 84
17, 119271, Note_on_c, 15, 32, 0
17, 119280, Note_on_c, 15, 32, 84
17, 119331, Note_on_c, 15, 32, 0
17, 119340, Note_on_c, 15, 32, 84
17, 119391, Note_on_c, 15, 32, 0
17, 119400, Note_on_c, 15, 32, 84
17, 119451, Note_on_c, 15, 32, 0
17, 119460, Note_on_c, 15, 32, 84
17, 119511, Note_on_c, 15, 32, 0
17, 119520, Note_on_c, 15, 32, 92
17, 119571, Note_on_c, 15, 32, 0
17, 119580, Note_on_c, 15, 32, 84
17, 119631, Note_on_c, 15, 32, 0
17, 119640, Note_on_c, 15, 32, 84
17, 119691, Note_on_c, 15, 32, 0
17, 119700, Note_on_c, 15, 32, 84
17, 119751, Note_on_c, 15, 32, 0
17, 119760, Note_on_c, 15, 32, 84
17, 119811, Note_on_c, 15, 32, 0
17, 119820, Note_on_c, 15, 32, 84
17, 119871, Note_on_c, 15, 32, 0
17, 119880, Note_on_c, 15, 32, 84
17, 119931, Note_on_c, 15, 32, 0
17, 119940, Note_on_c, 15, 32, 84
17, 119991, Note_on_c, 15, 32, 0
17, 120000, Note_on_c, 15, 37, 84
17, 120051, Note_on_c, 15, 37, 0
17, 120060, Note_on_c, 15, 37, 84
17, 120111, Note_on_c, 15, 37, 0
17, 120120, Note_on_c, 15, 37, 84
17, 120171, Note_on_c, 15, 37, 0
17, 120180, Note_on_c, 15, 37, 84
17, 120231, Note_on_c, 15, 37, 0
17, 120240, Note_on_c, 15, 37, 92
17, 120291, Note_on_c, 15, 37, 0
17, 120300, Note_on_c, 15, 37, 84
17, 120351, Note_on_c, 15, 37, 0
17, 120360, Note_on_c, 15, 37, 84
17, 120411, Note_on_c, 15, 37, 0
17, 120420, Note_on_c, 15, 37, 84
17, 120471, Note_on_c, 15, 37, 0
17, 120480, Note_on_c, 15, 37, 84
17, 120531, Note_on_c, 15, 37, 0
17, 120540, Note_on_c, 15, 37, 84
17, 120591, Note_on_c, 15, 37, 0
17, 120600, Note_on_c, 15, 37, 84
17, 120651, Note_on_c, 15, 37, 0
17, 120660, Note_on_c, 15, 37, 84
17, 120711, Note_on_c, 15, 37, 0
17, 120720, Note_on_c, 15, 37, 84
17, 120771, Note_on_c, 15, 37, 0
17, 120780, Note_on_c, 15, 37, 84
17, 120831, Note_on_c, 15, 37, 0
17, 120840, Note_on_c, 15, 37, 84
17, 120891, Note_on_c, 15, 37, 0
17, 120900, Note_on_c, 15, 37, 84
17, 120951, Note_on_c, 15, 37, 0
17, 120960, Note_on_c, 15, 37, 84
17, 121011, Note_on_c, 15, 37, 0
17, 121020, Note_on_c, 15, 37, 84
17, 121071, Note_on_c, 15, 37, 0
17, 121080, Note_on_c, 15, 37, 84
17, 121131, Note_on_c, 15, 37, 0
17, 121140, Note_on_c, 15, 37, 84
17, 121191, Note_on_c, 15, 37, 0
17, 121200, Note_on_c, 15, 37, 92
17, 121251, Note_on_c, 15, 37, 0
17, 121260, Note_on_c, 15, 37, 84
17, 121311, Note_on_c, 15, 37, 0
17, 121320, Note_on_c, 15, 37, 84
17, 121371, Note_on_c, 15, 37, 0
17, 121380, Note_on_c, 15, 37, 84
17, 121431, Note_on_c, 15, 37, 0
17, 121440, Note_on_c, 15, 37, 84
17, 121491, Note_on_c, 15, 37, 0
17, 121500, Note_on_c, 15, 37, 84
17, 121551, Note_on_c, 15, 37, 0
17, 121560, Note_on_c, 15, 37, 84
17, 121611, Note_on_c, 15, 37, 0
17, 121620, Note_on_c, 15, 37, 84
17, 121671, Note_on_c, 15, 37, 0
17, 121680, Note_on_c, 15, 37, 84
17, 121731, Note_on_c, 15, 37, 0
17, 121740, Note_on_c, 15, 37, 84
17, 121791, Note_on_c, 15, 37, 0
17, 121800, Note_on_c, 15, 37, 84
17, 121851, Note_on_c, 15, 37, 0
17, 121860, Note_on_c, 15, 37, 84
17, 121911, Note_on_c, 15, 37, 0
17, 121920, Note_on_c, 15, 37, 84
17, 121971, Note_on_c, 15, 37, 0
17, 121980, Note_on_c, 15, 37, 84
17, 122031, Note_on_c, 15, 37, 0
17, 122040, Note_on_c, 15, 37, 84
17, 122091, Note_on_c, 15, 37, 0
17, 122100, Note_on_c, 15, 37, 84
17, 122151, Note_on_c, 15, 37, 0
17, 122160, Note_on_c, 15, 37, 92
17, 122211, Note_on_c, 15, 37, 0
17, 122220, Note_on_c, 15, 37, 84
17, 122271, Note_on_c, 15, 37, 0
17, 122280, Note_on_c, 15, 37, 84
17, 122331, Note_on_c, 15, 37, 0
17, 122340, Note_on_c, 15, 37, 84
17, 122391, Note_on_c, 15, 37, 0
17, 122400, Note_on_c, 15, 37, 84
17, 122451, Note_on_c, 15, 37, 0
17, 122460, Note_on_c, 15, 37, 84
17, 122511, Note_on_c, 15, 37, 0
17, 122520, Note_on_c, 15, 37, 84
17, 122571, Note_on_c, 15, 37, 0
17, 122580, Note_on_c, 15, 37, 84
17, 122631, Note_on_c, 15, 37, 0
17, 122640, Note_on_c, 15, 37, 92
17, 122691, Note_on_c, 15, 37, 0
17, 122700, Note_on_c, 15, 37, 84
17, 122751, Note_on_c, 15, 37, 0
17, 122760, Note_on_c, 15, 37, 84
17, 122811, Note_on_c, 15, 37, 0
17, 122820, Note_on_c, 15, 37, 84
17, 122871, Note_on_c, 15, 37, 0
17, 122880, Note_on_c, 15, 37, 84
17, 122931, Note_on_c, 15, 37, 0
17, 122940, Note_on_c, 15, 37, 84
17, 122991, Note_on_c, 15, 37, 0
17, 123000, Note_on_c, 15, 37, 84
17, 123051, Note_on_c, 15, 37, 0
17, 123060, Note_on_c, 15, 37, 84
17, 123111, Note_on_c, 15, 37, 0
17, 123120, Note_on_c, 15, 37, 92
17, 123171, Note_on_c, 15, 37, 0
17, 123180, Note_on_c, 15, 37, 84
17, 123231, Note_on_c, 15, 37, 0
17, 123240, Note_on_c, 15, 37, 84
17, 123291, Note_on_c, 15, 37, 0
17, 123300, Note_on_c, 15, 37, 84
17, 123351, Note_on_c, 15, 37, 0
17, 123360, Note_on_c, 15, 37, 84
17, 123411, Note_on_c, 15, 37, 0
17, 123420, Note_on_c, 15, 37, 84
17, 123471, Note_on_c, 15, 37, 0
17, 123480, Note_on_c, 15, 37, 84
17, 123531, Note_on_c, 15, 37, 0
17, 123540, Note_on_c, 15, 37, 84
17, 123591, Note_on_c, 15, 37, 0
17, 123600, Note_on_c, 15, 37, 84
17, 123651, Note_on_c, 15, 37, 0
17, 123660, Note_on_c, 15, 37, 84
17, 123711, Note_on_c, 15, 37, 0
17, 123720, Note_on_c, 15, 37, 84
17, 123771, Note_on_c, 15, 37, 0
17, 123780, Note_on_c, 15, 37, 84
17, 123831, Note_on_c, 15, 37, 0
17, 123840, Note_on_c, 15, 37, 84
17, 123959, Note_on_c, 15, 37, 0
17, 124800, Note_on_c, 15, 36, 84
17, 124919, Note_on_c, 15, 36, 0
17, 125760, Note_on_c, 15, 36, 84
17, 125879, Note_on_c, 15, 36, 0
17, 126000, Note_on_c, 15, 36, 92
17, 126239, Note_on_c, 15, 36, 0
17, 126240, Note_on_c, 15, 36, 84
17, 126359, Note_on_c, 15, 36, 0
17, 126480, Note_on_c, 15, 36, 92
17, 126719, Note_on_c, 15, 36, 0
17, 126720, Note_on_c, 15, 36, 84
17, 126839, Note_on_c, 15, 36, 0
17, 126960, Note_on_c, 15, 36, 92
17, 127199, Note_on_c, 15, 36, 0
17, 127200, Note_on_c, 15, 41, 84
17, 127319, Note_on_c, 15, 41, 0
17, 128160, Note_on_c, 15, 32, 76
17, 128339, Note_on_c, 15, 32, 0
17, 128340, Note_on_c, 15, 40, 76
17, 128391, Note_on_c, 15, 40, 0
17, 128400, Note_on_c, 15, 40, 84
17, 128639, Note_on_c, 15, 40, 0
17, 128640, Note_on_c, 15, 40, 76
17, 129104, Note_on_c, 15, 40, 0
17, 129120, Note_on_c, 15, 28, 76
17, 129239, Note_on_c, 15, 28, 0
17, 129360, Note_on_c, 15, 28, 84
17, 129599, Note_on_c, 15, 28, 0
17, 129600, Note_on_c, 15, 28, 76
17, 129719, Note_on_c, 15, 28, 0
17, 129840, Note_on_c, 15, 28, 84
17, 130079, Note_on_c, 15, 28, 0
17, 130080, Note_on_c, 15, 28, 76
17, 130199, Note_on_c, 15, 28, 0
17, 130320, Note_on_c, 15, 28, 84
17, 130559, Note_on_c, 15, 28, 0
17, 130560, Note_on_c, 15, 33, 76
17, 130679, Note_on_c, 15, 33, 0
17, 131520, Note_on_c, 15, 27, 76
17, 131699, Note_on_c, 15, 27, 0
17, 131700, Note_on_c, 15, 35, 76
17, 131751, Note_on_c, 15, 35, 0
17, 131760, Note_on_c, 15, 35, 84
17, 131999, Note_on_c, 15, 35, 0
17, 132000, Note_on_c, 15, 35, 76
17, 132464, Note_on_c, 15, 35, 0
17, 132480, Note_on_c, 15, 26, 76
17, 132599, Note_on_c, 15, 26, 0
17, 133440, Note_on_c, 15, 25, 76
17, 133619, Note_on_c, 15, 25, 0
17, 133620, Note_on_c, 15, 33, 76
17, 133671, Note_on_c, 15, 33, 0
17, 133680, Note_on_c, 15, 33, 84
17, 133919, Note_on_c, 15, 33, 0
17, 133920, Note_on_c, 15, 33, 76
17, 134384, Note_on_c, 15, 33, 0
17, 134400, Note_on_c, 15, 24, 76
17, 134519, Note_on_c, 15, 24, 0
17, 134880, Note_on_c, 15, 24, 76
17, 135059, Note_on_c, 15, 24, 0
17, 135060, Note_on_c, 15, 32, 76
17, 135111, Note_on_c, 15, 32, 0
17, 135120, Note_on_c, 15, 32, 84
17, 135344, Note_on_c, 15, 32, 0
17, 135360, Note_on_c, 15, 31, 76
17, 135479, Note_on_c, 15, 31, 0
17, 135600, Note_on_c, 15, 31, 84
17, 135839, Note_on_c, 15, 31, 0
17, 135840, Note_on_c, 15, 31, 76
17, 135959, Note_on_c, 15, 31, 0
17, 136080, Note_on_c, 15, 31, 84
17, 136319, Note_on_c, 15, 31, 0
17, 136320, Note_on_c, 15, 31, 76
17, 136439, Note_on_c, 15, 31, 0
17, 136560, Note_on_c, 15, 31, 84
17, 136799, Note_on_c, 15, 31, 0
17, 136800, Note_on_c, 15, 31, 76
17, 136919, Note_on_c, 15, 31, 0
17, 137040, Note_on_c, 15, 31, 84
17, 137279, Note_on_c, 15, 31, 0
17, 137280, Note_on_c, 15, 31, 76
17, 137399, Note_on_c, 15, 31, 0
17, 137520, Note_on_c, 15, 31, 84
17, 137759, Note_on_c, 15, 31, 0
17, 137760, Note_on_c, 15, 31, 76
17, 137879, Note_on_c, 15, 31, 0
17, 138000, Note_on_c, 15, 31, 84
17, 138239, Note_on_c, 15, 31, 0
17, 138240, Note_on_c, 15, 31, 76
17, 138359, Note_on_c, 15, 31, 0
17, 138480, Note_on_c, 15, 31, 84
17, 138719, Note_on_c, 15, 31, 0
17, 138720, Note_on_c, 15, 36, 76
17, 138839, Note_on_c, 15, 36, 0
17, 139200, Note_on_c, 15, 31, 76
17, 139319, Note_on_c, 15, 31, 0
17, 139440, Note_on_c, 15, 31, 84
17, 139679, Note_on_c, 15, 31, 0
17, 139680, Note_on_c, 15, 31, 76
17, 139799, Note_on_c, 15, 31, 0
17, 139920, Note_on_c, 15, 31, 84
17, 140159, Note_on_c, 15, 31, 0
17, 140160, Note_on_c, 15, 31, 76
17, 140279, Note_on_c, 15, 31, 0
17, 140400, Note_on_c, 15, 31, 84
17, 140639, Note_on_c, 15, 31, 0
17, 140640, Note_on_c, 15, 31, 76
17, 140759, Note_on_c, 15, 31, 0
17, 140880, Note_on_c, 15, 31, 84
17, 141119, Note_on_c, 15, 31, 0
17, 141120, Note_on_c, 15, 31, 76
17, 141239, Note_on_c, 15, 31, 0
17, 141360, Note_on_c, 15, 31, 84
17, 141599, Note_on_c, 15, 31, 0
17, 141600, Note_on_c, 15, 31, 76
17, 141719, Note_on_c, 15, 31, 0
17, 141840, Note_on_c, 15, 31, 84
17, 142079, Note_on_c, 15, 31, 0
17, 142080, Note_on_c, 15, 31, 76
17, 142199, Note_on_c, 15, 31, 0
17, 142320, Note_on_c, 15, 31, 84
17, 142559, Note_on_c, 15, 31, 0
17, 142560, Note_on_c, 15, 36, 76
17, 142679, Note_on_c, 15, 36, 0
17, 143040, Note_on_c, 15, 29, 76
17, 143159, Note_on_c, 15, 29, 0
17, 143280, Note_on_c, 15, 29, 84
17, 143519, Note_on_c, 15, 29, 0
17, 143520, Note_on_c, 15, 28, 76
17, 143639, Note_on_c, 15, 28, 0
17, 143760, Note_on_c, 15, 28, 84
17, 143999, Note_on_c, 15, 28, 0
17, 144000, Note_on_c, 15, 29, 76
17, 144119, Note_on_c, 15, 29, 0
17, 144240, Note_on_c, 15, 29, 84
17, 144479, Note_on_c, 15, 29, 0
17, 144480, Note_on_c, 15, 28, 76
17, 144599, Note_on_c, 15, 28, 0
17, 144720, Note_on_c, 15, 29, 84
17, 144959, Note_on_c, 15, 29, 0
17, 144960, Note_on_c, 15, 38, 76
17, 145079, Note_on_c, 15, 38, 0
17, 145200, Note_on_c, 15, 31, 84
17, 145439, Note_on_c, 15, 31, 0
17, 145440, Note_on_c, 15, 36, 76
17, 145559, Note_on_c, 15, 36, 0
17, 145680, Note_on_c, 15, 28, 84
17, 145919, Note_on_c, 15, 28, 0
17, 145920, Note_on_c, 15, 31, 76
17, 146039, Note_on_c, 15, 31, 0
17, 146160, Note_on_c, 15, 31, 84
17, 146399, Note_on_c, 15, 31, 0
17, 146400, Note_on_c, 15, 36, 76
17, 146519, Note_on_c, 15, 36, 0
17, 146880, Note_on_c, 15, 29, 76
17, 146999, Note_on_c, 15, 29, 0
17, 147120, Note_on_c, 15, 29, 84
17, 147359, Note_on_c, 15, 29, 0
17, 147360, Note_on_c, 15, 28, 76
17, 147479, Note_on_c, 15, 28, 0
17, 147600, Note_on_c, 15, 28, 84
17, 147839, Note_on_c, 15, 28, 0
17, 147840, Note_on_c, 15, 29, 76
17, 147959, Note_on_c, 15, 29, 0
17, 148080, Note_on_c, 15, 29, 84
17, 148319, Note_on_c, 15, 29, 0
17, 148320, Note_on_c, 15, 28, 76
17, 148439, Note_on_c, 15, 28, 0
17, 148560, Note_on_c, 15, 29, 84
17, 148799, Note_on_c, 15, 29, 0
17, 148800, Note_on_c, 15, 38, 76
17, 148919, Note_on_c, 15, 38, 0
17, 149040, Note_on_c, 15, 31, 84
17, 149279, Note_on_c, 15, 31, 0
17, 149280, Note_on_c, 15, 36, 76
17, 149399, Note_on_c, 15, 36, 0
17, 149520, Note_on_c, 15, 28, 84
17, 149759, Note_on_c, 15, 28, 0
17, 149760, Note_on_c, 15, 31, 76
17, 149879, Note_on_c, 15, 31, 0
17, 150000, Note_on_c, 15, 31, 84
17, 150239, Note_on_c, 15, 31, 0
17, 150240, Note_on_c, 15, 36, 76
17, 150359, Note_on_c, 15, 36, 0
17, 150600, Note_on_c, 15, 49, 84
17, 150719, Note_on_c, 15, 49, 0
17, 150720, Note_on_c, 15, 50, 76
17, 150959, Note_on_c, 15, 50, 0
17, 151080, Note_on_c, 15, 47, 84
17, 151199, Note_on_c, 15, 47, 0
17, 151200, Note_on_c, 15, 48, 76
17, 151439, Note_on_c, 15, 48, 0
17, 151560, Note_on_c, 15, 45, 76
17, 151679, Note_on_c, 15, 45, 0
17, 151680, Note_on_c, 15, 43, 76
17, 151919, Note_on_c, 15, 43, 0
17, 152040, Note_on_c, 15, 43, 76
17, 152159, Note_on_c, 15, 43, 0
17, 152160, Note_on_c, 15, 36, 76
17, 152399, Note_on_c, 15, 36, 0
17, 152520, Note_on_c, 15, 46, 76
17, 152639, Note_on_c, 15, 46, 0
17, 152640, Note_on_c, 15, 45, 76
17, 152879, Note_on_c, 15, 45, 0
17, 153000, Note_on_c, 15, 50, 76
17, 153119, Note_on_c, 15, 50, 0
17, 153120, Note_on_c, 15, 46, 76
17, 153359, Note_on_c, 15, 46, 0
17, 153480, Note_on_c, 15, 46, 76
17, 153599, Note_on_c, 15, 46, 0
17, 153600, Note_on_c, 15, 48, 76
17, 153839, Note_on_c, 15, 48, 0
17, 153960, Note_on_c, 15, 48, 76
17, 154079, Note_on_c, 15, 48, 0
17, 154080, Note_on_c, 15, 41, 76
17, 154319, Note_on_c, 15, 41, 0
17, 154440, Note_on_c, 15, 53, 76
17, 154559, Note_on_c, 15, 53, 0
17, 154560, Note_on_c, 15, 50, 76
17, 154799, Note_on_c, 15, 50, 0
17, 154920, Note_on_c, 15, 50, 76
17, 155039, Note_on_c, 15, 50, 0
17, 155040, Note_on_c, 15, 43, 76
17, 155279, Note_on_c, 15, 43, 0
17, 155400, Note_on_c, 15, 43, 76
17, 155519, Note_on_c, 15, 43, 0
17, 155520, Note_on_c, 15, 45, 76
17, 155759, Note_on_c, 15, 45, 0
17, 155880, Note_on_c, 15, 45, 76
17, 155999, Note_on_c, 15, 45, 0
17, 156000, Note_on_c, 15, 38, 76
17, 156119, Note_on_c, 15, 38, 0
17, 156240, Note_on_c, 15, 50, 84
17, 156479, Note_on_c, 15, 50, 0
17, 156480, Note_on_c, 15, 53, 76
17, 156599, Note_on_c, 15, 53, 0
17, 156720, Note_on_c, 15, 45, 84
17, 156959, Note_on_c, 15, 45, 0
17, 156960, Note_on_c, 15, 50, 76
17, 157079, Note_on_c, 15, 50, 0
17, 157200, Note_on_c, 15, 41, 84
17, 157439, Note_on_c, 15, 41, 0
17, 157440, Note_on_c, 15, 45, 84
17, 157559, Note_on_c, 15, 45, 0
17, 157680, Note_on_c, 15, 38, 84
17, 157919, Note_on_c, 15, 38, 0
17, 157920, Note_on_c, 15, 41, 76
17, 158039, Note_on_c, 15, 41, 0
17, 158160, Note_on_c, 15, 33, 84
17, 158399, Note_on_c, 15, 33, 0
17, 158400, Note_on_c, 15, 38, 76
17, 158519, Note_on_c, 15, 38, 0
17, 158640, Note_on_c, 15, 29, 76
17, 158879, Note_on_c, 15, 29, 0
17, 158880, Note_on_c, 15, 33, 76
17, 158999, Note_on_c, 15, 33, 0
17, 159120, Note_on_c, 15, 29, 76
17, 159359, Note_on_c, 15, 29, 0
17, 159360, Note_on_c, 15, 33, 76
17, 159479, Note_on_c, 15, 33, 0
17, 159600, Note_on_c, 15, 30, 76
17, 159839, Note_on_c, 15, 30, 0
17, 159840, Note_on_c, 15, 33, 76
17, 159959, Note_on_c, 15, 33, 0
17, 160080, Note_on_c, 15, 30, 76
17, 160319, Note_on_c, 15, 30, 0
17, 160320, Note_on_c, 15, 34, 76
17, 160439, Note_on_c, 15, 34, 0
17, 160560, Note_on_c, 15, 31, 76
17, 160799, Note_on_c, 15, 31, 0
17, 160800, Note_on_c, 15, 34, 76
17, 160919, Note_on_c, 15, 34, 0
17, 161040, Note_on_c, 15, 31, 76
17, 161279, Note_on_c, 15, 31, 0
17, 161280, Note_on_c, 15, 35, 76
17, 161399, Note_on_c, 15, 35, 0
17, 161520, Note_on_c, 15, 32, 76
17, 161759, Note_on_c, 15, 32, 0
17, 161760, Note_on_c, 15, 35, 76
17, 161879, Note_on_c, 15, 35, 0
17, 162000, Note_on_c, 15, 32, 76
17, 162239, Note_on_c, 15, 32, 0
17, 162240, Note_on_c, 15, 36, 76
17, 162359, Note_on_c, 15, 36, 0
17, 162480, Note_on_c, 15, 33, 76
17, 162719, Note_on_c, 15, 33, 0
17, 162720, Note_on_c, 15, 37, 76
17, 162839, Note_on_c, 15, 37, 0
17, 162960, Note_on_c, 15, 34, 76
17, 163199, Note_on_c, 15, 34, 0
17, 163200, Note_on_c, 15, 38, 76
17, 163319, Note_on_c, 15, 38, 0
17, 163440, Note_on_c, 15, 35, 76
17, 163679, Note_on_c, 15, 35, 0
17, 163680, Note_on_c, 15, 39, 76
17, 163799, Note_on_c, 15, 39, 0
17, 163920, Note_on_c, 15, 36, 76
17, 164159, Note_on_c, 15, 36, 0
17, 164160, Note_on_c, 15, 40, 76
17, 164279, Note_on_c, 15, 40, 0
17, 164400, Note_on_c, 15, 37, 76
17, 164639, Note_on_c, 15, 37, 0
17, 164640, Note_on_c, 15, 40, 76
17, 164759, Note_on_c, 15, 40, 0
17, 164880, Note_on_c, 15, 38, 76
17, 165119, Note_on_c, 15, 38, 0
17, 165120, Note_on_c, 15, 40, 76
17, 165239, Note_on_c, 15, 40, 0
17, 165360, Note_on_c, 15, 39, 76
17, 165599, Note_on_c, 15, 39, 0
17, 165600, Note_on_c, 15, 40, 76
17, 165719, Note_on_c, 15, 40, 0
17, 165840, Note_on_c, 15, 39, 76
17, 166079, Note_on_c, 15, 39, 0
17, 166080, Control_c, 15, 11, 127
17, 166080, Note_on_c, 15, 40, 76
17, 166120, Control_c, 15, 11, 126
17, 166160, Control_c, 15, 11, 124
17, 166199, Note_on_c, 15, 40, 0
17, 166200, Control_c, 15, 11, 123
17, 166240, Control_c, 15, 11, 122
17, 166280, Control_c, 15, 11, 120
17, 166320, Control_c, 15, 11, 119
17, 166320, Note_on_c, 15, 39, 76
17, 166360, Control_c, 15, 11, 118
17, 166400, Control_c, 15, 11, 117
17, 166440, Control_c, 15, 11, 115
17, 166480, Control_c, 15, 11, 114
17, 166520, Control_c, 15, 11, 113
17, 166559, Note_on_c, 15, 39, 0
17, 166560, Control_c, 15, 11, 111
17, 166560, Note_on_c, 15, 40, 76
17, 166600, Control_c, 15, 11, 110
17, 166640, Control_c, 15, 11, 109
17, 166679, Note_on_c, 15, 40, 0
17, 166680, Control_c, 15, 11, 107
17, 166720, Control_c, 15, 11, 106
17, 166760, Control_c, 15, 11, 105
17, 166800, Control_c, 15, 11, 103
17, 166800, Note_on_c, 15, 39, 76
17, 166840, Control_c, 15, 11, 102
17, 166880, Control_c, 15, 11, 101
17, 166920, Control_c, 15, 11, 99
17, 166960, Control_c, 15, 11, 98
17, 167000, Control_c, 15, 11, 97
17, 167039, Note_on_c, 15, 39, 0
17, 167040, Note_on_c, 15, 40, 76
17, 167040, Control_c, 15, 11, 96
17, 167080, Control_c, 15, 11, 94
17, 167120, Control_c, 15, 11, 93
17, 167159, Note_on_c, 15, 40, 0
17, 167160, Control_c, 15, 11, 92
17, 167200, Control_c, 15, 11, 90
17, 167240, Control_c, 15, 11, 89
17, 167280, Note_on_c, 15, 39, 76
17, 167280, Control_c, 15, 11, 88
17, 167320, Control_c, 15, 11, 86
17, 167360, Control_c, 15, 11, 85
17, 167400, Control_c, 15, 11, 84
17, 167440, Control_c, 15, 11, 82
17, 167480, Control_c, 15, 11, 81
17, 167519, Note_on_c, 15, 39, 0
17, 167520, Note_on_c, 15, 40, 76
17, 167520, Control_c, 15, 11, 80
17, 167560, Control_c, 15, 11, 78
17, 167600, Control_c, 15, 11, 77
17, 167639, Note_on_c, 15, 40, 0
17, 167640, Control_c, 15, 11, 76
17, 167680, Control_c, 15, 11, 75
17, 167720, Control_c, 15, 11, 73
17, 167760, Control_c, 15, 11, 72
17, 167760, Note_on_c, 15, 40, 76
17, 167800, Control_c, 15, 11, 71
17, 167840, Control_c, 15, 11, 69
17, 167880, Control_c, 15, 11, 68
17, 167920, Control_c, 15, 11, 67
17, 167960, Control_c, 15, 11, 64
17, 167999, Note_on_c, 15, 40, 0
17, 168000, Note_on_c, 15, 41, 76
17, 168104, Note_on_c, 15, 41, 0
17, 168120, Note_on_c, 15, 41, 76
17, 168171, Note_on_c, 15, 41, 0
17, 168180, Note_on_c, 15, 41, 76
17, 168231, Note_on_c, 15, 41, 0
17, 168240, Note_on_c, 15, 41, 76
17, 168359, Note_on_c, 15, 41, 0
17, 168960, Note_on_c, 15, 41, 76
17, 169064, Note_on_c, 15, 41, 0
17, 169080, Note_on_c, 15, 41, 76
17, 169131, Note_on_c, 15, 41, 0
17, 169140, Note_on_c, 15, 41, 76
17, 169191, Note_on_c, 15, 41, 0
17, 169200, Note_on_c, 15, 41, 76
17, 169319, Note_on_c, 15, 41, 0
17, 172800, Control_c, 15, 11, 127
17, 173280, Note_on_c, 15, 41, 44
17, 173384, Note_on_c, 15, 41, 0
17, 173400, Note_on_c, 15, 41, 44
17, 173451, Note_on_c, 15, 41, 0
17, 173460, Note_on_c, 15, 41, 44
17, 173511, Note_on_c, 15, 41, 0
17, 173520, Note_on_c, 15, 41, 44
17, 173639, Note_on_c, 15, 41, 0
17, 174240, Note_on_c, 15, 41, 44
17, 174344, Note_on_c, 15, 41, 0
17, 174360, Note_on_c, 15, 41, 44
17, 174411, Note_on_c, 15, 41, 0
17, 174420, Note_on_c, 15, 41, 44
17, 174471, Note_on_c, 15, 41, 0
17, 174480, Note_on_c, 15, 41, 44
17, 174599, Note_on_c, 15, 41, 0
17, 178560, Note_on_c, 15, 28, 84
17, 178679, Note_on_c, 15, 28, 0
17, 179520, Note_on_c, 15, 28, 84
17, 179639, Note_on_c, 15, 28, 0
17, 180480, Note_on_c, 15, 28, 84
17, 180599, Note_on_c, 15, 28, 0
17, 180720, Note_on_c, 15, 28, 92
17, 180959, Note_on_c, 15, 28, 0
17, 180960, Note_on_c, 15, 28, 84
17, 181079, Note_on_c, 15, 28, 0
17, 181200, Note_on_c, 15, 28, 92
17, 181439, Note_on_c, 15, 28, 0
17, 181440, Note_on_c, 15, 28, 84
17, 181559, Note_on_c, 15, 28, 0
17, 181680, Note_on_c, 15, 28, 92
17, 181919, Note_on_c, 15, 28, 0
17, 181920, Note_on_c, 15, 28, 84
17, 182039, Note_on_c, 15, 28, 0
17, 182160, Note_on_c, 15, 28, 92
17, 182399, Note_on_c, 15, 28, 0
17, 182400, Note_on_c, 15, 28, 84
17, 182519, Note_on_c, 15, 28, 0
17, 182640, Note_on_c, 15, 28, 92
17, 182879, Note_on_c, 15, 28, 0
17, 182880, Note_on_c, 15, 28, 84
17, 182999, Note_on_c, 15, 28, 0
17, 183120, Note_on_c, 15, 28, 92
17, 183359, Note_on_c, 15, 28, 0
17, 183360, Note_on_c, 15, 28, 84
17, 183479, Note_on_c, 15, 28, 0
17, 183600, Note_on_c, 15, 28, 92
17, 183839, Note_on_c, 15, 28, 0
17, 183840, Note_on_c, 15, 33, 84
17, 183959, Note_on_c, 15, 33, 0
17, 184320, Note_on_c, 15, 28, 84
17, 184439, Note_on_c, 15, 28, 0
17, 184560, Note_on_c, 15, 28, 92
17, 184799, Note_on_c, 15, 28, 0
17, 184800, Note_on_c, 15, 28, 84
17, 184919, Note_on_c, 15, 28, 0
17, 185040, Note_on_c, 15, 28, 92
17, 185279, Note_on_c, 15, 28, 0
17, 185280, Note_on_c, 15, 28, 84
17, 185399, Note_on_c, 15, 28, 0
17, 185520, Note_on_c, 15, 28, 92
17, 185759, Note_on_c, 15, 28, 0
17, 185760, Note_on_c, 15, 28, 84
17, 185879, Note_on_c, 15, 28, 0
17, 186000, Note_on_c, 15, 28, 92
17, 186239, Note_on_c, 15, 28, 0
17, 186240, Note_on_c, 15, 28, 84
17, 186359, Note_on_c, 15, 28, 0
17, 186480, Note_on_c, 15, 28, 92
17, 186719, Note_on_c, 15, 28, 0
17, 186720, Note_on_c, 15, 28, 84
17, 186839, Note_on_c, 15, 28, 0
17, 186960, Note_on_c, 15, 28, 92
17, 187199, Note_on_c, 15, 28, 0
17, 187200, Note_on_c, 15, 28, 84
17, 187319, Note_on_c, 15, 28, 0
17, 187440, Note_on_c, 15, 28, 92
17, 187679, Note_on_c, 15, 28, 0
17, 187680, Note_on_c, 15, 33, 84
17, 187799, Note_on_c, 15, 33, 0
17, 188160, Note_on_c, 15, 33, 84
17, 188279, Note_on_c, 15, 33, 0
17, 188640, Note_on_c, 15, 28, 84
17, 188759, Note_on_c, 15, 28, 0
17, 189120, Note_on_c, 15, 28, 84
17, 189239, Note_on_c, 15, 28, 0
17, 189600, Note_on_c, 15, 33, 84
17, 189719, Note_on_c, 15, 33, 0
17, 189840, Note_on_c, 15, 33, 84
17, 189959, Note_on_c, 15, 33, 0
17, 190080, Note_on_c, 15, 33, 84
17, 190199, Note_on_c, 15, 33, 0
17, 190320, Note_on_c, 15, 33, 84
17, 190439, Note_on_c, 15, 33, 0
17, 190560, Note_on_c, 15, 28, 84
17, 190679, Note_on_c, 15, 28, 0
17, 190800, Note_on_c, 15, 28, 84
17, 190919, Note_on_c, 15, 28, 0
17, 191040, Note_on_c, 15, 28, 84
17, 191159, Note_on_c, 15, 28, 0
17, 191280, Note_on_c, 15, 28, 84
17, 191399, Note_on_c, 15, 28, 0
17, 191520, Note_on_c, 15, 33, 84
17, 191639, Note_on_c, 15, 33, 0
17, 192000, Note_on_c, 15, 33, 84
17, 192119, Note_on_c, 15, 33, 0
17, 192480, Note_on_c, 15, 28, 84
17, 192599, Note_on_c, 15, 28, 0
17, 192960, Note_on_c, 15, 28, 84
17, 193079, Note_on_c, 15, 28, 0
17, 193440, Note_on_c, 15, 33, 84
17, 193544, Note_on_c, 15, 33, 0
17, 193560, Note_on_c, 15, 33, 84
17, 193664, Note_on_c, 15, 33, 0
17, 193680, Note_on_c, 15, 33, 84
17, 193784, Note_on_c, 15, 33, 0
17, 193800, Note_on_c, 15, 33, 84
17, 193904, Note_on_c, 15, 33, 0
17, 193920, Note_on_c, 15, 33, 84
17, 194024, Note_on_c, 15, 33, 0
17, 194040, Note_on_c, 15, 33, 84
17, 194144, Note_on_c, 15, 33, 0
17, 194160, Note_on_c, 15, 33, 84
17, 194264, Note_on_c, 15, 33, 0
17, 194280, Note_on_c, 15, 33, 84
17, 194384, Note_on_c, 15, 33, 0
17, 194400, Note_on_c, 15, 28, 84
17, 194504, Note_on_c, 15, 28, 0
17, 194520, Note_on_c, 15, 28, 84
17, 194624, Note_on_c, 15, 28, 0
17, 194640, Note_on_c, 15, 28, 84
17, 194744, Note_on_c, 15, 28, 0
17, 194760, Note_on_c, 15, 28, 84
17, 194864, Note_on_c, 15, 28, 0
17, 194880, Note_on_c, 15, 28, 84
17, 194984, Note_on_c, 15, 28, 0
17, 195000, Note_on_c, 15, 28, 84
17, 195104, Note_on_c, 15, 28, 0
17, 195120, Note_on_c, 15, 28, 84
17, 195224, Note_on_c, 15, 28, 0
17, 195240, Note_on_c, 15, 28, 84
17, 195344, Note_on_c, 15, 28, 0
17, 195360, Note_on_c, 15, 33, 84
17, 195479, Note_on_c, 15, 33, 0
17, 196080, Note_on_c, 15, 52, 84
17, 196319, Note_on_c, 15, 52, 0
17, 196320, Note_on_c, 15, 45, 84
17, 196559, Note_on_c, 15, 45, 0
17, 196560, Note_on_c, 15, 40, 84
17, 196799, Note_on_c, 15, 40, 0
17, 196800, Note_on_c, 15, 33, 84
17, 197039, Note_on_c, 15, 33, 0
17, 197040, Note_on_c, 15, 28, 84
17, 197279, Note_on_c, 15, 28, 0
17, 197280, Note_on_c, 15, 33, 84
17, 197519, Note_on_c, 15, 33, 0
17, 198000, Note_on_c, 15, 52, 84
17, 198239, Note_on_c, 15, 52, 0
17, 198240, Note_on_c, 15, 45, 84
17, 198479, Note_on_c, 15, 45, 0
17, 198480, Note_on_c, 15, 33, 84
17, 198719, Note_on_c, 15, 33, 0
17, 198720, Note_on_c, 15, 45, 84
17, 198959, Note_on_c, 15, 45, 0
17, 198960, Note_on_c, 15, 33, 84
17, 199199, Note_on_c, 15, 33, 0
17, 199200, Note_on_c, 15, 38, 84
17, 199319, Note_on_c, 15, 38, 0
17, 199920, Note_on_c, 15, 45, 84
17, 200159, Note_on_c, 15, 45, 0
17, 200160, Note_on_c, 15, 50, 84
17, 200399, Note_on_c, 15, 50, 0
17, 200400, Note_on_c, 15, 45, 84
17, 200639, Note_on_c, 15, 45, 0
17, 200640, Note_on_c, 15, 38, 84
17, 200879, Note_on_c, 15, 38, 0
17, 200880, Note_on_c, 15, 33, 84
17, 201119, Note_on_c, 15, 33, 0
17, 201120, Note_on_c, 15, 26, 84
17, 201239, Note_on_c, 15, 26, 0
17, 201840, Note_on_c, 15, 45, 84
17, 202079, Note_on_c, 15, 45, 0
17, 202080, Note_on_c, 15, 50, 84
17, 202319, Note_on_c, 15, 50, 0
17, 202320, Note_on_c, 15, 45, 84
17, 202559, Note_on_c, 15, 45, 0
17, 202560, Note_on_c, 15, 38, 84
17, 202799, Note_on_c, 15, 38, 0
17, 202800, Note_on_c, 15, 33, 84
17, 203024, Note_on_c, 15, 33, 0
17, 203040, Note_on_c, 15, 38, 84
17, 203211, Note_on_c, 15, 38, 0
17, 203220, Note_on_c, 15, 38, 84
17, 203271, Note_on_c, 15, 38, 0
17, 203280, Note_on_c, 15, 38, 84
17, 203451, Note_on_c, 15, 38, 0
17, 203460, Note_on_c, 15, 38, 84
17, 203511, Note_on_c, 15, 38, 0
17, 203520, Note_on_c, 15, 38, 84
17, 203691, Note_on_c, 15, 38, 0
17, 203700, Note_on_c, 15, 38, 84
17, 203751, Note_on_c, 15, 38, 0
17, 203760, Note_on_c, 15, 38, 84
17, 203931, Note_on_c, 15, 38, 0
17, 203940, Note_on_c, 15, 38, 84
17, 203991, Note_on_c, 15, 38, 0
17, 204000, Note_on_c, 15, 37, 84
17, 204171, Note_on_c, 15, 37, 0
17, 204180, Note_on_c, 15, 37, 84
17, 204231, Note_on_c, 15, 37, 0
17, 204240, Note_on_c, 15, 37, 84
17, 204411, Note_on_c, 15, 37, 0
17, 204420, Note_on_c, 15, 37, 84
17, 204471, Note_on_c, 15, 37, 0
17, 204480, Note_on_c, 15, 37, 84
17, 204651, Note_on_c, 15, 37, 0
17, 204660, Note_on_c, 15, 37, 84
17, 204711, Note_on_c, 15, 37, 0
17, 204720, Note_on_c, 15, 37, 84
17, 204891, Note_on_c, 15, 37, 0
17, 204900, Note_on_c, 15, 37, 84
17, 204951, Note_on_c, 15, 37, 0
17, 204960, Note_on_c, 15, 38, 84
17, 205131, Note_on_c, 15, 38, 0
17, 205140, Note_on_c, 15, 38, 84
17, 205191, Note_on_c, 15, 38, 0
17, 205200, Note_on_c, 15, 38, 84
17, 205371, Note_on_c, 15, 38, 0
17, 205380, Note_on_c, 15, 38, 84
17, 205431, Note_on_c, 15, 38, 0
17, 205440, Note_on_c, 15, 36, 84
17, 205611, Note_on_c, 15, 36, 0
17, 205620, Note_on_c, 15, 36, 84
17, 205671, Note_on_c, 15, 36, 0
17, 205680, Note_on_c, 15, 36, 84
17, 205851, Note_on_c, 15, 36, 0
17, 205860, Note_on_c, 15, 36, 84
17, 205911, Note_on_c, 15, 36, 0
17, 205920, Note_on_c, 15, 35, 84
17, 206091, Note_on_c, 15, 35, 0
17, 206100, Note_on_c, 15, 35, 84
17, 206151, Note_on_c, 15, 35, 0
17, 206160, Note_on_c, 15, 35, 84
17, 206331, Note_on_c, 15, 35, 0
17, 206340, Note_on_c, 15, 35, 84
17, 206391, Note_on_c, 15, 35, 0
17, 206400, Note_on_c, 15, 33, 84
17, 206571, Note_on_c, 15, 33, 0
17, 206580, Note_on_c, 15, 33, 84
17, 206631, Note_on_c, 15, 33, 0
17, 206640, Note_on_c, 15, 33, 84
17, 206811, Note_on_c, 15, 33, 0
17, 206820, Note_on_c, 15, 33, 84
17, 206871, Note_on_c, 15, 33, 0
17, 206880, Note_on_c, 15, 32, 84
17, 207051, Note_on_c, 15, 32, 0
17, 207060, Note_on_c, 15, 29, 84
17, 207111, Note_on_c, 15, 29, 0
17, 207120, Note_on_c, 15, 29, 84
17, 207291, Note_on_c, 15, 29, 0
17, 207300, Note_on_c, 15, 29, 84
17, 207351, Note_on_c, 15, 29, 0
17, 207360, Note_on_c, 15, 29, 84
17, 207531, Note_on_c, 15, 29, 0
17, 207540, Note_on_c, 15, 29, 84
17, 207591, Note_on_c, 15, 29, 0
17, 207600, Note_on_c, 15, 29, 84
17, 207771, Note_on_c, 15, 29, 0
17, 207780, Note_on_c, 15, 29, 84
17, 207831, Note_on_c, 15, 29, 0
17, 207840, Note_on_c, 15, 28, 84
17, 207959, Note_on_c, 15, 28, 0
17, 208080, Note_on_c, 15, 28, 76
17, 208169, Note_on_c, 15, 28, 0
17, 208800, Program_c, 15, 45
17, 209040, Note_on_c, 15, 52, 48
17, 209159, Note_on_c, 15, 52, 0
17, 209280, Note_on_c, 15, 40, 48
17, 209399, Note_on_c, 15, 40, 0
17, 209520, Note_on_c, 15, 45, 48
17, 209639, Note_on_c, 15, 45, 0
17, 209760, Note_on_c, 15, 40, 48
17, 209879, Note_on_c, 15, 40, 0
17, 210960, Note_on_c, 15, 52, 48
17, 211079, Note_on_c, 15, 52, 0
17, 211200, Note_on_c, 15, 40, 48
17, 211319, Note_on_c, 15, 40, 0
17, 211440, Note_on_c, 15, 45, 48
17, 211559, Note_on_c, 15, 45, 0
17, 211920, Note_on_c, 15, 52, 48
17, 212039, Note_on_c, 15, 52, 0
17, 212160, Note_on_c, 15, 40, 48
17, 212279, Note_on_c, 15, 40, 0
17, 212400, Note_on_c, 15, 45, 48
17, 212519, Note_on_c, 15, 45, 0
17, 212640, Note_on_c, 15, 40, 48
17, 212759, Note_on_c, 15, 40, 0
17, 212880, Note_on_c, 15, 52, 48
17, 213119, Note_on_c, 15, 52, 0
17, 213120, Note_on_c, 15, 40, 48
17, 213359, Note_on_c, 15, 40, 0
17, 213360, Note_on_c, 15, 40, 48
17, 213599, Note_on_c, 15, 40, 0
17, 213600, Note_on_c, 15, 33, 48
17, 213719, Note_on_c, 15, 33, 0
17, 213838, Program_c, 15, 48
17, 213840, Note_on_c, 15, 45, 76
17, 214079, Note_on_c, 15, 45, 0
17, 214320, Note_on_c, 15, 40, 76
17, 214559, Note_on_c, 15, 40, 0
17, 214800, Note_on_c, 15, 33, 76
17, 215039, Note_on_c, 15, 33, 0
17, 215280, Note_on_c, 15, 40, 76
17, 215511, Note_on_c, 15, 40, 0
17, 215520, Note_on_c, 15, 45, 52
17, 215759, Note_on_c, 15, 45, 0
17, 218640, Note_on_c, 15, 45, 76
17, 218879, Note_on_c, 15, 45, 0
17, 219120, Note_on_c, 15, 40, 76
17, 219359, Note_on_c, 15, 40, 0
17, 219600, Note_on_c, 15, 33, 76
17, 219839, Note_on_c, 15, 33, 0
17, 220080, Note_on_c, 15, 40, 76
17, 220304, Note_on_c, 15, 40, 0
17, 220320, Note_on_c, 15, 45, 52
17, 220559, Note_on_c, 15, 45, 0
17, 226320, Note_on_c, 15, 32, 64
17, 226439, Note_on_c, 15, 32, 0
17, 226800, Note_on_c, 15, 33, 66
17, 226919, Note_on_c, 15, 33, 0
17, 227280, Note_on_c, 15, 28, 69
17, 227399, Note_on_c, 15, 28, 0
17, 227760, Note_on_c, 15, 28, 72
17, 227879, Note_on_c, 15, 28, 0
17, 228240, Note_on_c, 15, 28, 74
17, 228359, Note_on_c, 15, 28, 0
17, 228720, Note_on_c, 15, 28, 77
17, 228839, Note_on_c, 15, 28, 0
17, 229200, Note_on_c, 15, 32, 80
17, 229319, Note_on_c, 15, 32, 0
17, 229440, Note_on_c, 15, 33, 81
17, 229559, Note_on_c, 15, 33, 0
17, 229680, Note_on_c, 15, 37, 82
17, 229799, Note_on_c, 15, 37, 0
17, 229920, Note_on_c, 15, 36, 84
17, 229971, Note_on_c, 15, 36, 0
17, 229980, Note_on_c, 15, 36, 84
17, 230031, Note_on_c, 15, 36, 0
17, 230040, Note_on_c, 15, 36, 84
17, 230091, Note_on_c, 15, 36, 0
17, 230100, Note_on_c, 15, 36, 84
17, 230151, Note_on_c, 15, 36, 0
17, 230160, Note_on_c, 15, 36, 84
17, 230211, Note_on_c, 15, 36, 0
17, 230220, Note_on_c, 15, 36, 84
17, 230271, Note_on_c, 15, 36, 0
17, 230280, Note_on_c, 15, 36, 84
17, 230331, Note_on_c, 15, 36, 0
17, 230340, Note_on_c, 15, 36, 84
17, 230391, Note_on_c, 15, 36, 0
17, 230400, Note_on_c, 15, 36, 84
17, 230451, Note_on_c, 15, 36, 0
17, 230460, Note_on_c, 15, 36, 84
17, 230511, Note_on_c, 15, 36, 0
17, 230520, Note_on_c, 15, 36, 84
17, 230571, Note_on_c, 15, 36, 0
17, 230580, Note_on_c, 15, 36, 84
17, 230631, Note_on_c, 15, 36, 0
17, 230640, Note_on_c, 15, 36, 84
17, 230691, Note_on_c, 15, 36, 0
17, 230700, Note_on_c, 15, 36, 84
17, 230751, Note_on_c, 15, 36, 0
17, 230760, Note_on_c, 15, 36, 84
17, 230811, Note_on_c, 15, 36, 0
17, 230820, Note_on_c, 15, 36, 84
17, 230871, Note_on_c, 15, 36, 0
17, 230880, Note_on_c, 15, 41, 92
17, 230931, Note_on_c, 15, 41, 0
17, 230940, Note_on_c, 15, 41, 84
17, 230991, Note_on_c, 15, 41, 0
17, 231000, Note_on_c, 15, 41, 84
17, 231051, Note_on_c, 15, 41, 0
17, 231060, Note_on_c, 15, 41, 84
17, 231111, Note_on_c, 15, 41, 0
17, 231120, Note_on_c, 15, 41, 84
17, 231171, Note_on_c, 15, 41, 0
17, 231180, Note_on_c, 15, 41, 84
17, 231231, Note_on_c, 15, 41, 0
17, 231240, Note_on_c, 15, 41, 84
17, 231291, Note_on_c, 15, 41, 0
17, 231300, Note_on_c, 15, 41, 84
17, 231351, Note_on_c, 15, 41, 0
17, 231360, Note_on_c, 15, 36, 92
17, 231411, Note_on_c, 15, 36, 0
17, 231420, Note_on_c, 15, 36, 84
17, 231471, Note_on_c, 15, 36, 0
17, 231480, Note_on_c, 15, 36, 84
17, 231531, Note_on_c, 15, 36, 0
17, 231540, Note_on_c, 15, 36, 84
17, 231591, Note_on_c, 15, 36, 0
17, 231600, Note_on_c, 15, 36, 84
17, 231651, Note_on_c, 15, 36, 0
17, 231660, Note_on_c, 15, 36, 84
17, 231711, Note_on_c, 15, 36, 0
17, 231720, Note_on_c, 15, 36, 84
17, 231771, Note_on_c, 15, 36, 0
17, 231780, Note_on_c, 15, 36, 84
17, 231831, Note_on_c, 15, 36, 0
17, 231840, Note_on_c, 15, 41, 92
17, 231891, Note_on_c, 15, 41, 0
17, 231900, Note_on_c, 15, 41, 84
17, 231951, Note_on_c, 15, 41, 0
17, 231960, Note_on_c, 15, 41, 84
17, 232011, Note_on_c, 15, 41, 0
17, 232020, Note_on_c, 15, 41, 84
17, 232071, Note_on_c, 15, 41, 0
17, 232080, Note_on_c, 15, 41, 84
17, 232131, Note_on_c, 15, 41, 0
17, 232140, Note_on_c, 15, 41, 84
17, 232191, Note_on_c, 15, 41, 0
17, 232200, Note_on_c, 15, 41, 84
17, 232251, Note_on_c, 15, 41, 0
17, 232260, Note_on_c, 15, 41, 84
17, 232311, Note_on_c, 15, 41, 0
17, 232320, Note_on_c, 15, 36, 92
17, 232371, Note_on_c, 15, 36, 0
17, 232380, Note_on_c, 15, 36, 84
17, 232431, Note_on_c, 15, 36, 0
17, 232440, Note_on_c, 15, 36, 84
17, 232491, Note_on_c, 15, 36, 0
17, 232500, Note_on_c, 15, 36, 84
17, 232551, Note_on_c, 15, 36, 0
17, 232560, Note_on_c, 15, 36, 84
17, 232611, Note_on_c, 15, 36, 0
17, 232620, Note_on_c, 15, 36, 84
17, 232671, Note_on_c, 15, 36, 0
17, 232680, Note_on_c, 15, 36, 84
17, 232731, Note_on_c, 15, 36, 0
17, 232740, Note_on_c, 15, 36, 84
17, 232791, Note_on_c, 15, 36, 0
17, 232800, Note_on_c, 15, 36, 84
17, 232851, Note_on_c, 15, 36, 0
17, 232860, Note_on_c, 15, 36, 84
17, 232911, Note_on_c, 15, 36, 0
17, 232920, Note_on_c, 15, 36, 84
17, 232971, Note_on_c, 15, 36, 0
17, 232980, Note_on_c, 15, 36, 84
17, 233031, Note_on_c, 15, 36, 0
17, 233040, Note_on_c, 15, 36, 84
17, 233091, Note_on_c, 15, 36, 0
17, 233100, Note_on_c, 15, 36, 84
17, 233151, Note_on_c, 15, 36, 0
17, 233160, Note_on_c, 15, 36, 84
17, 233211, Note_on_c, 15, 36, 0
17, 233220, Note_on_c, 15, 36, 84
17, 233271, Note_on_c, 15, 36, 0
17, 233280, Note_on_c, 15, 36, 84
17, 233331, Note_on_c, 15, 36, 0
17, 233340, Note_on_c, 15, 36, 84
17, 233391, Note_on_c, 15, 36, 0
17, 233400, Note_on_c, 15, 36, 84
17, 233451, Note_on_c, 15, 36, 0
17, 233460, Note_on_c, 15, 36, 84
17, 233511, Note_on_c, 15, 36, 0
17, 233520, Note_on_c, 15, 36, 84
17, 233571, Note_on_c, 15, 36, 0
17, 233580, Note_on_c, 15, 36, 84
17, 233631, Note_on_c, 15, 36, 0
17, 233640, Note_on_c, 15, 36, 84
17, 233691, Note_on_c, 15, 36, 0
17, 233700, Note_on_c, 15, 36, 84
17, 233751, Note_on_c, 15, 36, 0
17, 233760, Note_on_c, 15, 41, 92
17, 233811, Note_on_c, 15, 41, 0
17, 233820, Note_on_c, 15, 41, 84
17, 233871, Note_on_c, 15, 41, 0
17, 233880, Note_on_c, 15, 41, 84
17, 233931, Note_on_c, 15, 41, 0
17, 233940, Note_on_c, 15, 41, 84
17, 233991, Note_on_c, 15, 41, 0
17, 234000, Note_on_c, 15, 41, 84
17, 234051, Note_on_c, 15, 41, 0
17, 234060, Note_on_c, 15, 41, 84
17, 234111, Note_on_c, 15, 41, 0
17, 234120, Note_on_c, 15, 41, 84
17, 234171, Note_on_c, 15, 41, 0
17, 234180, Note_on_c, 15, 41, 84
17, 234231, Note_on_c, 15, 41, 0
17, 234240, Note_on_c, 15, 36, 92
17, 234291, Note_on_c, 15, 36, 0
17, 234300, Note_on_c, 15, 36, 84
17, 234351, Note_on_c, 15, 36, 0
17, 234360, Note_on_c, 15, 36, 84
17, 234411, Note_on_c, 15, 36, 0
17, 234420, Note_on_c, 15, 36, 84
17, 234471, Note_on_c, 15, 36, 0
17, 234480, Note_on_c, 15, 36, 84
17, 234531, Note_on_c, 15, 36, 0
17, 234540, Note_on_c, 15, 36, 84
17, 234591, Note_on_c, 15, 36, 0
17, 234600, Note_on_c, 15, 36, 84
17, 234651, Note_on_c, 15, 36, 0
17, 234660, Note_on_c, 15, 36, 84
17, 234711, Note_on_c, 15, 36, 0
17, 234720, Note_on_c, 15, 41, 92
17, 234771, Note_on_c, 15, 41, 0
17, 234780, Note_on_c, 15, 41, 84
17, 234831, Note_on_c, 15, 41, 0
17, 234840, Note_on_c, 15, 41, 84
17, 234891, Note_on_c, 15, 41, 0
17, 234900, Note_on_c, 15, 41, 84
17, 234951, Note_on_c, 15, 41, 0
17, 234960, Note_on_c, 15, 41, 84
17, 235011, Note_on_c, 15, 41, 0
17, 235020, Note_on_c, 15, 41, 84
17, 235071, Note_on_c, 15, 41, 0
17, 235080, Note_on_c, 15, 41, 84
17, 235131, Note_on_c, 15, 41, 0
17, 235140, Note_on_c, 15, 41, 84
17, 235191, Note_on_c, 15, 41, 0
17, 235200, Note_on_c, 15, 41, 92
17, 235251, Note_on_c, 15, 41, 0
17, 235260, Note_on_c, 15, 41, 84
17, 235311, Note_on_c, 15, 41, 0
17, 235320, Note_on_c, 15, 41, 84
17, 235371, Note_on_c, 15, 41, 0
17, 235380, Note_on_c, 15, 41, 84
17, 235431, Note_on_c, 15, 41, 0
17, 235440, Note_on_c, 15, 41, 84
17, 235491, Note_on_c, 15, 41, 0
17, 235500, Note_on_c, 15, 41, 84
17, 235551, Note_on_c, 15, 41, 0
17, 235560, Note_on_c, 15, 41, 84
17, 235611, Note_on_c, 15, 41, 0
17, 235620, Note_on_c, 15, 41, 84
17, 235671, Note_on_c, 15, 41, 0
17, 235680, Note_on_c, 15, 40, 92
17, 235731, Note_on_c, 15, 40, 0
17, 235740, Note_on_c, 15, 40, 84
17, 235791, Note_on_c, 15, 40, 0
17, 235800, Note_on_c, 15, 40, 84
17, 235851, Note_on_c, 15, 40, 0
17, 235860, Note_on_c, 15, 40, 84
17, 235911, Note_on_c, 15, 40, 0
17, 235920, Note_on_c, 15, 40, 84
17, 235971, Note_on_c, 15, 40, 0
17, 235980, Note_on_c, 15, 40, 84
17, 236031, Note_on_c, 15, 40, 0
17, 236040, Note_on_c, 15, 40, 84
17, 236091, Note_on_c, 15, 40, 0
17, 236100, Note_on_c, 15, 40, 84
17, 236151, Note_on_c, 15, 40, 0
17, 236160, Note_on_c, 15, 40, 92
17, 236211, Note_on_c, 15, 40, 0
17, 236220, Note_on_c, 15, 40, 84
17, 236271, Note_on_c, 15, 40, 0
17, 236280, Note_on_c, 15, 40, 84
17, 236331, Note_on_c, 15, 40, 0
17, 236340, Note_on_c, 15, 40, 84
17, 236391, Note_on_c, 15, 40, 0
17, 236400, Note_on_c, 15, 40, 84
17, 236451, Note_on_c, 15, 40, 0
17, 236460, Note_on_c, 15, 40, 84
17, 236511, Note_on_c, 15, 40, 0
17, 236520, Note_on_c, 15, 40, 84
17, 236571, Note_on_c, 15, 40, 0
17, 236580, Note_on_c, 15, 40, 84
17, 236631, Note_on_c, 15, 40, 0
17, 236640, Note_on_c, 15, 33, 84
17, 236691, Note_on_c, 15, 33, 0
17, 236700, Note_on_c, 15, 33, 84
17, 236751, Note_on_c, 15, 33, 0
17, 236760, Note_on_c, 15, 33, 84
17, 236811, Note_on_c, 15, 33, 0
17, 236820, Note_on_c, 15, 33, 84
17, 236871, Note_on_c, 15, 33, 0
17, 236880, Note_on_c, 15, 33, 92
17, 236931, Note_on_c, 15, 33, 0
17, 236940, Note_on_c, 15, 33, 84
17, 236991, Note_on_c, 15, 33, 0
17, 237000, Note_on_c, 15, 33, 84
17, 237051, Note_on_c, 15, 33, 0
17, 237060, Note_on_c, 15, 33, 84
17, 237111, Note_on_c, 15, 33, 0
17, 237120, Note_on_c, 15, 33, 84
17, 237171, Note_on_c, 15, 33, 0
17, 237180, Note_on_c, 15, 33, 84
17, 237231, Note_on_c, 15, 33, 0
17, 237240, Note_on_c, 15, 33, 84
17, 237291, Note_on_c, 15, 33, 0
17, 237300, Note_on_c, 15, 33, 84
17, 237351, Note_on_c, 15, 33, 0
17, 237360, Note_on_c, 15, 33, 84
17, 237411, Note_on_c, 15, 33, 0
17, 237420, Note_on_c, 15, 33, 84
17, 237471, Note_on_c, 15, 33, 0
17, 237480, Note_on_c, 15, 33, 84
17, 237531, Note_on_c, 15, 33, 0
17, 237540, Note_on_c, 15, 33, 84
17, 237591, Note_on_c, 15, 33, 0
17, 237600, Note_on_c, 15, 33, 84
17, 237651, Note_on_c, 15, 33, 0
17, 237660, Note_on_c, 15, 33, 84
17, 237711, Note_on_c, 15, 33, 0
17, 237720, Note_on_c, 15, 33, 84
17, 237771, Note_on_c, 15, 33, 0
17, 237780, Note_on_c, 15, 33, 84
17, 237831, Note_on_c, 15, 33, 0
17, 237840, Note_on_c, 15, 33, 92
17, 237891, Note_on_c, 15, 33, 0
17, 237900, Note_on_c, 15, 33, 84
17, 237951, Note_on_c, 15, 33, 0
17, 237960, Note_on_c, 15, 33, 84
17, 238011, Note_on_c, 15, 33, 0
17, 238020, Note_on_c, 15, 33, 84
17, 238071, Note_on_c, 15, 33, 0
17, 238080, Note_on_c, 15, 33, 84
17, 238131, Note_on_c, 15, 33, 0
17, 238140, Note_on_c, 15, 33, 84
17, 238191, Note_on_c, 15, 33, 0
17, 238200, Note_on_c, 15, 33, 84
17, 238251, Note_on_c, 15, 33, 0
17, 238260, Note_on_c, 15, 33, 84
17, 238311, Note_on_c, 15, 33, 0
17, 238320, Note_on_c, 15, 33, 84
17, 238371, Note_on_c, 15, 33, 0
17, 238380, Note_on_c, 15, 33, 84
17, 238431, Note_on_c, 15, 33, 0
17, 238440, Note_on_c, 15, 33, 84
17, 238491, Note_on_c, 15, 33, 0
17, 238500, Note_on_c, 15, 33, 84
17, 238551, Note_on_c, 15, 33, 0
17, 238560, Note_on_c, 15, 33, 84
17, 238611, Note_on_c, 15, 33, 0
17, 238620, Note_on_c, 15, 33, 84
17, 238671, Note_on_c, 15, 33, 0
17, 238680, Note_on_c, 15, 33, 84
17, 238731, Note_on_c, 15, 33, 0
17, 238740, Note_on_c, 15, 33, 84
17, 238791, Note_on_c, 15, 33, 0
17, 238800, Note_on_c, 15, 33, 92
17, 238851, Note_on_c, 15, 33, 0
17, 238860, Note_on_c, 15, 33, 84
17, 238911, Note_on_c, 15, 33, 0
17, 238920, Note_on_c, 15, 33, 84
17, 238971, Note_on_c, 15, 33, 0
17, 238980, Note_on_c, 15, 33, 84
17, 239031, Note_on_c, 15, 33, 0
17, 239040, Note_on_c, 15, 33, 84
17, 239091, Note_on_c, 15, 33, 0
17, 239100, Note_on_c, 15, 33, 84
17, 239151, Note_on_c, 15, 33, 0
17, 239160, Note_on_c, 15, 33, 84
17, 239211, Note_on_c, 15, 33, 0
17, 239220, Note_on_c, 15, 33, 84
17, 239271, Note_on_c, 15, 33, 0
17, 239280, Note_on_c, 15, 33, 92
17, 239331, Note_on_c, 15, 33, 0
17, 239340, Note_on_c, 15, 33, 84
17, 239391, Note_on_c, 15, 33, 0
17, 239400, Note_on_c, 15, 33, 84
17, 239451, Note_on_c, 15, 33, 0
17, 239460, Note_on_c, 15, 33, 84
17, 239511, Note_on_c, 15, 33, 0
17, 239520, Note_on_c, 15, 33, 84
17, 239571, Note_on_c, 15, 33, 0
17, 239580, Note_on_c, 15, 33, 84
17, 239631, Note_on_c, 15, 33, 0
17, 239640, Note_on_c, 15, 33, 84
17, 239691, Note_on_c, 15, 33, 0
17, 239700, Note_on_c, 15, 33, 84
17, 239751, Note_on_c, 15, 33, 0
17, 239760, Note_on_c, 15, 33, 92
17, 239811, Note_on_c, 15, 33, 0
17, 239820, Note_on_c, 15, 33, 84
17, 239871, Note_on_c, 15, 33, 0
17, 239880, Note_on_c, 15, 33, 84
17, 239931, Note_on_c, 15, 33, 0
17, 239940, Note_on_c, 15, 33, 84
17, 239991, Note_on_c, 15, 33, 0
17, 240000, Note_on_c, 15, 33, 84
17, 240051, Note_on_c, 15, 33, 0
17, 240060, Note_on_c, 15, 33, 84
17, 240111, Note_on_c, 15, 33, 0
17, 240120, Note_on_c, 15, 33, 84
17, 240171, Note_on_c, 15, 33, 0
17, 240180, Note_on_c, 15, 33, 84
17, 240231, Note_on_c, 15, 33, 0
17, 240240, Note_on_c, 15, 33, 84
17, 240291, Note_on_c, 15, 33, 0
17, 240300, Note_on_c, 15, 33, 84
17, 240351, Note_on_c, 15, 33, 0
17, 240360, Note_on_c, 15, 33, 84
17, 240411, Note_on_c, 15, 33, 0
17, 240420, Note_on_c, 15, 33, 84
17, 240471, Note_on_c, 15, 33, 0
17, 240480, Note_on_c, 15, 33, 84
17, 240599, Note_on_c, 15, 33, 0
17, 241440, Note_on_c, 15, 33, 84
17, 241559, Note_on_c, 15, 33, 0
17, 242400, Note_on_c, 15, 33, 84
17, 242519, Note_on_c, 15, 33, 0
17, 242880, Note_on_c, 15, 33, 84
17, 242999, Note_on_c, 15, 33, 0
17, 243360, Note_on_c, 15, 33, 84
17, 243479, Note_on_c, 15, 33, 0
17, 243840, Note_on_c, 15, 33, 84
17, 243959, Note_on_c, 15, 33, 0
17, 244320, Note_on_c, 15, 34, 84
17, 244439, Note_on_c, 15, 34, 0
17, 245040, Note_on_c, 15, 54, 76
17, 245279, Note_on_c, 15, 54, 0
17, 245280, Note_on_c, 15, 47, 76
17, 245519, Note_on_c, 15, 47, 0
17, 245520, Note_on_c, 15, 42, 76
17, 245759, Note_on_c, 15, 42, 0
17, 245760, Note_on_c, 15, 35, 76
17, 245999, Note_on_c, 15, 35, 0
17, 246000, Note_on_c, 15, 30, 76
17, 246239, Note_on_c, 15, 30, 0
17, 246240, Note_on_c, 15, 35, 76
17, 246359, Note_on_c, 15, 35, 0
17, 246960, Note_on_c, 15, 54, 76
17, 247199, Note_on_c, 15, 54, 0
17, 247200, Note_on_c, 15, 47, 76
17, 247439, Note_on_c, 15, 47, 0
17, 247440, Note_on_c, 15, 42, 76
17, 247679, Note_on_c, 15, 42, 0
17, 247680, Note_on_c, 15, 35, 76
17, 247919, Note_on_c, 15, 35, 0
17, 247920, Note_on_c, 15, 30, 76
17, 248159, Note_on_c, 15, 30, 0
17, 248160, Note_on_c, 15, 35, 76
17, 248264, Note_on_c, 15, 35, 0
17, 248280, Note_on_c, 15, 47, 76
17, 248339, Note_on_c, 15, 47, 0
17, 248340, Note_on_c, 15, 49, 76
17, 248399, Note_on_c, 15, 49, 0
17, 248400, Note_on_c, 15, 52, 76
17, 248459, Note_on_c, 15, 52, 0
17, 248460, Note_on_c, 15, 50, 76
17, 248519, Note_on_c, 15, 50, 0
17, 248520, Note_on_c, 15, 49, 76
17, 248579, Note_on_c, 15, 49, 0
17, 248580, Note_on_c, 15, 47, 76
17, 248631, Note_on_c, 15, 47, 0
17, 248640, Note_on_c, 15, 52, 76
17, 248879, Note_on_c, 15, 52, 0
17, 248880, Note_on_c, 15, 50, 76
17, 249119, Note_on_c, 15, 50, 0
17, 249120, Note_on_c, 15, 49, 76
17, 249359, Note_on_c, 15, 49, 0
17, 249360, Note_on_c, 15, 47, 76
17, 249599, Note_on_c, 15, 47, 0
17, 249600, Note_on_c, 15, 45, 76
17, 249839, Note_on_c, 15, 45, 0
17, 249840, Note_on_c, 15, 47, 76
17, 250079, Note_on_c, 15, 47, 0
17, 250080, Note_on_c, 15, 49, 76
17, 250169, Note_on_c, 15, 49, 0
17, 250200, Note_on_c, 15, 47, 76
17, 250259, Note_on_c, 15, 47, 0
17, 250260, Note_on_c, 15, 49, 76
17, 250319, Note_on_c, 15, 49, 0
17, 250320, Note_on_c, 15, 52, 76
17, 250379, Note_on_c, 15, 52, 0
17, 250380, Note_on_c, 15, 50, 76
17, 250439, Note_on_c, 15, 50, 0
17, 250440, Note_on_c, 15, 49, 76
17, 250499, Note_on_c, 15, 49, 0
17, 250500, Note_on_c, 15, 47, 76
17, 250551, Note_on_c, 15, 47, 0
17, 250560, Note_on_c, 15, 52, 76
17, 250799, Note_on_c, 15, 52, 0
17, 250800, Note_on_c, 15, 50, 76
17, 251039, Note_on_c, 15, 50, 0
17, 251040, Note_on_c, 15, 49, 76
17, 251279, Note_on_c, 15, 49, 0
17, 251280, Note_on_c, 15, 47, 76
17, 251519, Note_on_c, 15, 47, 0
17, 251520, Note_on_c, 15, 45, 76
17, 251759, Note_on_c, 15, 45, 0
17, 251760, Note_on_c, 15, 43, 76
17, 251984, Note_on_c, 15, 43, 0
17, 252000, Note_on_c, 15, 42, 76
17, 252239, Note_on_c, 15, 42, 0
17, 252240, Note_on_c, 15, 40, 76
17, 252479, Note_on_c, 15, 40, 0
17, 252480, Note_on_c, 15, 38, 76
17, 252719, Note_on_c, 15, 38, 0
17, 252720, Note_on_c, 15, 37, 76
17, 252944, Note_on_c, 15, 37, 0
17, 252960, Note_on_c, 15, 35, 76
17, 253199, Note_on_c, 15, 35, 0
17, 253200, Note_on_c, 15, 33, 76
17, 253439, Note_on_c, 15, 33, 0
17, 253440, Note_on_c, 15, 32, 76
17, 253679, Note_on_c, 15, 32, 0
17, 253680, Note_on_c, 15, 33, 76
17, 253919, Note_on_c, 15, 33, 0
17, 253920, Note_on_c, 15, 32, 76
17, 254159, Note_on_c, 15, 32, 0
17, 254160, Note_on_c, 15, 33, 76
17, 254399, Note_on_c, 15, 33, 0
17, 254400, Note_on_c, 15, 32, 76
17, 254639, Note_on_c, 15, 32, 0
17, 254640, Note_on_c, 15, 33, 76
17, 254879, Note_on_c, 15, 33, 0
17, 254880, Note_on_c, 15, 32, 76
17, 255104, Note_on_c, 15, 32, 0
17, 255120, Note_on_c, 15, 32, 76
17, 255359, Note_on_c, 15, 32, 0
17, 255360, Note_on_c, 15, 31, 76
17, 255599, Note_on_c, 15, 31, 0
17, 255600, Note_on_c, 15, 32, 76
17, 255839, Note_on_c, 15, 32, 0
17, 255840, Note_on_c, 15, 31, 76
17, 256079, Note_on_c, 15, 31, 0
17, 256080, Note_on_c, 15, 32, 76
17, 256319, Note_on_c, 15, 32, 0
17, 256320, Note_on_c, 15, 31, 76
17, 256559, Note_on_c, 15, 31, 0
17, 256560, Note_on_c, 15, 30, 76
17, 256784, Note_on_c, 15, 30, 0
17, 256800, Note_on_c, 15, 31, 76
17, 257039, Note_on_c, 15, 31, 0
17, 257040, Note_on_c, 15, 32, 76
17, 257279, Note_on_c, 15, 32, 0
17, 257280, Note_on_c, 15, 31, 76
17, 257519, Note_on_c, 15, 31, 0
17, 257520, Note_on_c, 15, 30, 76
17, 257744, Note_on_c, 15, 30, 0
17, 257760, Note_on_c, 15, 31, 76
17, 257999, Note_on_c, 15, 31, 0
17, 258000, Note_on_c, 15, 30, 76
17, 258239, Note_on_c, 15, 30, 0
17, 258240, Note_on_c, 15, 29, 76
17, 258479, Note_on_c, 15, 29, 0
17, 258480, Note_on_c, 15, 30, 76
17, 258704, Note_on_c, 15, 30, 0
17, 258720, Note_on_c, 15, 29, 76
17, 258959, Note_on_c, 15, 29, 0
17, 258960, Note_on_c, 15, 30, 76
17, 259199, Note_on_c, 15, 30, 0
17, 259200, Note_on_c, 15, 29, 76
17, 259439, Note_on_c, 15, 29, 0
17, 259440, Note_on_c, 15, 28, 76
17, 259664, Note_on_c, 15, 28, 0
17, 259680, Note_on_c, 15, 29, 76
17, 259919, Note_on_c, 15, 29, 0
17, 259920, Note_on_c, 15, 30, 76
17, 260159, Note_on_c, 15, 30, 0
17, 260160, Note_on_c, 15, 29, 76
17, 260399, Note_on_c, 15, 29, 0
17, 260400, Note_on_c, 15, 28, 76
17, 260639, Note_on_c, 15, 28, 0
17, 260640, Note_on_c, 15, 29, 76
17, 260864, Note_on_c, 15, 29, 0
17, 260880, Note_on_c, 15, 29, 76
17, 261119, Note_on_c, 15, 29, 0
17, 261120, Note_on_c, 15, 28, 76
17, 261359, Note_on_c, 15, 28, 0
17, 261360, Note_on_c, 15, 29, 76
17, 261584, Note_on_c, 15, 29, 0
17, 261600, Note_on_c, 15, 28, 76
17, 261839, Note_on_c, 15, 28, 0
17, 261840, Note_on_c, 15, 29, 76
17, 262079, Note_on_c, 15, 29, 0
17, 262080, Note_on_c, 15, 28, 76
17, 262319, Note_on_c, 15, 28, 0
17, 262320, Note_on_c, 15, 27, 76
17, 262544, Note_on_c, 15, 27, 0
17, 262560, Note_on_c, 15, 28, 76
17, 262799, Note_on_c, 15, 28, 0
17, 262800, Note_on_c, 15, 29, 76
17, 263039, Note_on_c, 15, 29, 0
17, 263040, Note_on_c, 15, 28, 76
17, 263279, Note_on_c, 15, 28, 0
17, 263280, Note_on_c, 15, 27, 76
17, 263504, Note_on_c, 15, 27, 0
17, 263520, Note_on_c, 15, 28, 76
17, 263759, Note_on_c, 15, 28, 0
17, 263760, Note_on_c, 15, 27, 76
17, 263999, Note_on_c, 15, 27, 0
17, 264000, Note_on_c, 15, 28, 76
17, 264239, Note_on_c, 15, 28, 0
17, 264240, Note_on_c, 15, 27, 76
17, 264464, Note_on_c, 15, 27, 0
17, 264480, Note_on_c, 15, 28, 77
17, 264719, Note_on_c, 15, 28, 0
17, 264720, Note_on_c, 15, 27, 77
17, 264959, Note_on_c, 15, 27, 0
17, 264960, Note_on_c, 15, 28, 77
17, 265199, Note_on_c, 15, 28, 0
17, 265200, Note_on_c, 15, 27, 77
17, 265424, Note_on_c, 15, 27, 0
17, 265440, Note_on_c, 15, 28, 78
17, 265679, Note_on_c, 15, 28, 0
17, 265680, Note_on_c, 15, 27, 78
17, 265919, Note_on_c, 15, 27, 0
17, 265920, Note_on_c, 15, 28, 78
17, 266159, Note_on_c, 15, 28, 0
17, 266160, Note_on_c, 15, 27, 78
17, 266384, Note_on_c, 15, 27, 0
17, 266400, Note_on_c, 15, 28, 79
17, 266639, Note_on_c, 15, 28, 0
17, 266640, Note_on_c, 15, 27, 79
17, 266879, Note_on_c, 15, 27, 0
17, 266880, Note_on_c, 15, 28, 79
17, 267119, Note_on_c, 15, 28, 0
17, 267120, Note_on_c, 15, 27, 79
17, 267344, Note_on_c, 15, 27, 0
17, 267360, Note_on_c, 15, 28, 80
17, 267599, Note_on_c, 15, 28, 0
17, 267600, Note_on_c, 15, 27, 80
17, 267839, Note_on_c, 15, 27, 0
17, 267840, Note_on_c, 15, 28, 80
17, 268079, Note_on_c, 15, 28, 0
17, 268080, Note_on_c, 15, 27, 80
17, 268304, Note_on_c, 15, 27, 0
17, 268320, Note_on_c, 15, 28, 81
17, 268559, Note_on_c, 15, 28, 0
17, 268560, Note_on_c, 15, 27, 81
17, 268799, Note_on_c, 15, 27, 0
17, 268800, Note_on_c, 15, 28, 81
17, 269039, Note_on_c, 15, 28, 0
17, 269040, Note_on_c, 15, 27, 81
17, 269264, Note_on_c, 15, 27, 0
17, 269280, Note_on_c, 15, 28, 82
17, 269519, Note_on_c, 15, 28, 0
17, 269520, Note_on_c, 15, 27, 82
17, 269759, Note_on_c, 15, 27, 0
17, 269760, Note_on_c, 15, 28, 82
17, 269999, Note_on_c, 15, 28, 0
17, 270000, Note_on_c, 15, 27, 82
17, 270224, Note_on_c, 15, 27, 0
17, 270240, Note_on_c, 15, 28, 83
17, 270479, Note_on_c, 15, 28, 0
17, 270480, Note_on_c, 15, 27, 83
17, 270719, Note_on_c, 15, 27, 0
17, 270720, Note_on_c, 15, 28, 83
17, 270959, Note_on_c, 15, 28, 0
17, 270960, Note_on_c, 15, 27, 83
17, 271184, Note_on_c, 15, 27, 0
17, 271200, Note_on_c, 15, 28, 84
17, 271439, Note_on_c, 15, 28, 0
17, 271440, Note_on_c, 15, 27, 84
17, 271679, Note_on_c, 15, 27, 0
17, 271680, Note_on_c, 15, 28, 84
17, 271919, Note_on_c, 15, 28, 0
17, 271920, Note_on_c, 15, 27, 84
17, 272144, Note_on_c, 15, 27, 0
17, 272160, Note_on_c, 15, 28, 84
17, 272399, Note_on_c, 15, 28, 0
17, 272400, Note_on_c, 15, 27, 84
17, 272639, Note_on_c, 15, 27, 0
17, 272640, Note_on_c, 15, 28, 84
17, 272879, Note_on_c, 15, 28, 0
17, 272880, Note_on_c, 15, 27, 84
17, 273104, Note_on_c, 15, 27, 0
17, 273120, Note_on_c, 15, 28, 84
17, 273344, Note_on_c, 15, 28, 0
17, 273360, Note_on_c, 15, 28, 84
17, 273599, Note_on_c, 15, 28, 0
17, 273600, Note_on_c, 15, 40, 84
17, 273839, Note_on_c, 15, 40, 0
17, 273840, Note_on_c, 15, 28, 84
17, 274064, Note_on_c, 15, 28, 0
17, 274080, Note_on_c, 15, 40, 84
17, 274319, Note_on_c, 15, 40, 0
17, 274320, Note_on_c, 15, 28, 84
17, 274559, Note_on_c, 15, 28, 0
17, 274560, Note_on_c, 15, 40, 84
17, 274799, Note_on_c, 15, 40, 0
17, 274800, Note_on_c, 15, 28, 84
17, 275024, Note_on_c, 15, 28, 0
17, 275040, Note_on_c, 15, 28, 84
17, 275279, Note_on_c, 15, 28, 0
17, 275280, Note_on_c, 15, 27, 84
17, 275519, Note_on_c, 15, 27, 0
17, 275520, Note_on_c, 15, 28, 84
17, 275759, Note_on_c, 15, 28, 0
17, 275760, Note_on_c, 15, 27, 84
17, 275984, Note_on_c, 15, 27, 0
17, 276000, Note_on_c, 15, 28, 84
17, 276239, Note_on_c, 15, 28, 0
17, 276240, Note_on_c, 15, 27, 84
17, 276479, Note_on_c, 15, 27, 0
17, 276480, Note_on_c, 15, 28, 84
17, 276719, Note_on_c, 15, 28, 0
17, 276720, Note_on_c, 15, 27, 84
17, 276944, Note_on_c, 15, 27, 0
17, 276960, Note_on_c, 15, 28, 84
17, 277184, Note_on_c, 15, 28, 0
17, 277200, Note_on_c, 15, 28, 84
17, 277439, Note_on_c, 15, 28, 0
17, 277440, Note_on_c, 15, 40, 84
17, 277679, Note_on_c, 15, 40, 0
17, 277680, Note_on_c, 15, 28, 84
17, 277904, Note_on_c, 15, 28, 0
17, 277920, Note_on_c, 15, 40, 84
17, 278159, Note_on_c, 15, 40, 0
17, 278160, Note_on_c, 15, 28, 84
17, 278399, Note_on_c, 15, 28, 0
17, 278400, Note_on_c, 15, 40, 84
17, 278639, Note_on_c, 15, 40, 0
17, 278640, Note_on_c, 15, 28, 84
17, 278864, Note_on_c, 15, 28, 0
17, 278880, Note_on_c, 15, 40, 84
17, 279119, Note_on_c, 15, 40, 0
17, 279120, Note_on_c, 15, 28, 84
17, 279359, Note_on_c, 15, 28, 0
17, 279360, Note_on_c, 15, 40, 84
17, 279599, Note_on_c, 15, 40, 0
17, 279600, Note_on_c, 15, 28, 84
17, 279824, Note_on_c, 15, 28, 0
17, 279840, Note_on_c, 15, 40, 84
17, 280079, Note_on_c, 15, 40, 0
17, 280080, Note_on_c, 15, 28, 84
17, 280319, Note_on_c, 15, 28, 0
17, 280320, Note_on_c, 15, 40, 84
17, 280559, Note_on_c, 15, 40, 0
17, 280560, Note_on_c, 15, 28, 84
17, 280784, Note_on_c, 15, 28, 0
17, 280800, Note_on_c, 15, 40, 84
17, 281039, Note_on_c, 15, 40, 0
17, 281040, Note_on_c, 15, 28, 84
17, 281279, Note_on_c, 15, 28, 0
17, 281280, Note_on_c, 15, 40, 84
17, 281519, Note_on_c, 15, 40, 0
17, 281520, Note_on_c, 15, 28, 84
17, 281744, Note_on_c, 15, 28, 0
17, 281760, Note_on_c, 15, 52, 92
17, 281849, Note_on_c, 15, 52, 0
17, 281880, Note_on_c, 15, 50, 92
17, 281969, Note_on_c, 15, 50, 0
17, 282000, Note_on_c, 15, 49, 92
17, 282089, Note_on_c, 15, 49, 0
17, 282120, Note_on_c, 15, 47, 92
17, 282209, Note_on_c, 15, 47, 0
17, 282240, Note_on_c, 15, 45, 92
17, 282329, Note_on_c, 15, 45, 0
17, 282360, Note_on_c, 15, 43, 92
17, 282449, Note_on_c, 15, 43, 0
17, 282480, Note_on_c, 15, 42, 92
17, 282569, Note_on_c, 15, 42, 0
17, 282600, Note_on_c, 15, 40, 92
17, 282689, Note_on_c, 15, 40, 0
17, 282720, Note_on_c, 15, 38, 92
17, 282809, Note_on_c, 15, 38, 0
17, 282840, Note_on_c, 15, 37, 92
17, 282929, Note_on_c, 15, 37, 0
17, 282960, Note_on_c, 15, 35, 92
17, 283049, Note_on_c, 15, 35, 0
17, 283080, Note_on_c, 15, 33, 92
17, 283169, Note_on_c, 15, 33, 0
17, 283200, Note_on_c, 15, 31, 92
17, 283289, Note_on_c, 15, 31, 0
17, 283320, Note_on_c, 15, 30, 92
17, 283409, Note_on_c, 15, 30, 0
17, 283440, Note_on_c, 15, 28, 92
17, 283529, Note_on_c, 15, 28, 0
17, 283560, Note_on_c, 15, 26, 92
17, 283649, Note_on_c, 15, 26, 0
17, 283680, Note_on_c, 15, 37, 100
17, 283731, Note_on_c, 15, 37, 0
17, 283740, Note_on_c, 15, 37, 92
17, 283791, Note_on_c, 15, 37, 0
17, 283800, Note_on_c, 15, 37, 92
17, 283851, Note_on_c, 15, 37, 0
17, 283860, Note_on_c, 15, 37, 92
17, 283911, Note_on_c, 15, 37, 0
17, 283920, Note_on_c, 15, 37, 92
17, 283971, Note_on_c, 15, 37, 0
17, 283980, Note_on_c, 15, 37, 92
17, 284031, Note_on_c, 15, 37, 0
17, 284040, Note_on_c, 15, 37, 92
17, 284091, Note_on_c, 15, 37, 0
17, 284100, Note_on_c, 15, 37, 92
17, 284151, Note_on_c, 15, 37, 0
17, 284160, Note_on_c, 15, 38, 100
17, 284211, Note_on_c, 15, 38, 0
17, 284220, Note_on_c, 15, 38, 92
17, 284271, Note_on_c, 15, 38, 0
17, 284280, Note_on_c, 15, 38, 92
17, 284331, Note_on_c, 15, 38, 0
17, 284340, Note_on_c, 15, 38, 92
17, 284391, Note_on_c, 15, 38, 0
17, 284400, Note_on_c, 15, 38, 92
17, 284451, Note_on_c, 15, 38, 0
17, 284460, Note_on_c, 15, 38, 92
17, 284511, Note_on_c, 15, 38, 0
17, 284520, Note_on_c, 15, 38, 92
17, 284571, Note_on_c, 15, 38, 0
17, 284580, Note_on_c, 15, 38, 92
17, 284631, Note_on_c, 15, 38, 0
17, 284640, Note_on_c, 15, 40, 100
17, 284691, Note_on_c, 15, 40, 0
17, 284700, Note_on_c, 15, 40, 92
17, 284751, Note_on_c, 15, 40, 0
17, 284760, Note_on_c, 15, 40, 92
17, 284811, Note_on_c, 15, 40, 0
17, 284820, Note_on_c, 15, 40, 92
17, 284871, Note_on_c, 15, 40, 0
17, 284880, Note_on_c, 15, 40, 92
17, 284931, Note_on_c, 15, 40, 0
17, 284940, Note_on_c, 15, 40, 92
17, 284991, Note_on_c, 15, 40, 0
17, 285000, Note_on_c, 15, 40, 92
17, 285051, Note_on_c, 15, 40, 0
17, 285060, Note_on_c, 15, 40, 92
17, 285111, Note_on_c, 15, 40, 0
17, 285120, Note_on_c, 15, 40, 100
17, 285171, Note_on_c, 15, 40, 0
17, 285180, Note_on_c, 15, 40, 92
17, 285231, Note_on_c, 15, 40, 0
17, 285240, Note_on_c, 15, 40, 92
17, 285291, Note_on_c, 15, 40, 0
17, 285300, Note_on_c, 15, 40, 92
17, 285351, Note_on_c, 15, 40, 0
17, 285360, Note_on_c, 15, 40, 92
17, 285411, Note_on_c, 15, 40, 0
17, 285420, Note_on_c, 15, 40, 92
17, 285471, Note_on_c, 15, 40, 0
17, 285480, Note_on_c, 15, 40, 92
17, 285531, Note_on_c, 15, 40, 0
17, 285540, Note_on_c, 15, 40, 92
17, 285591, Note_on_c, 15, 40, 0
17, 285600, Note_on_c, 15, 44, 52
17, 285689, Note_on_c, 15, 44, 0
17, 285720, Note_on_c, 15, 42, 52
17, 285809, Note_on_c, 15, 42, 0
17, 285840, Note_on_c, 15, 40, 52
17, 285929, Note_on_c, 15, 40, 0
17, 285960, Note_on_c, 15, 38, 52
17, 286049, Note_on_c, 15, 38, 0
17, 286080, Note_on_c, 15, 37, 52
17, 286169, Note_on_c, 15, 37, 0
17, 286200, Note_on_c, 15, 35, 53
17, 286289, Note_on_c, 15, 35, 0
17, 286320, Note_on_c, 15, 33, 54
17, 286409, Note_on_c, 15, 33, 0
17, 286440, Note_on_c, 15, 32, 56
17, 286529, Note_on_c, 15, 32, 0
17, 286560, Note_on_c, 15, 33, 57
17, 286649, Note_on_c, 15, 33, 0
17, 286680, Note_on_c, 15, 35, 59
17, 286769, Note_on_c, 15, 35, 0
17, 286800, Note_on_c, 15, 37, 60
17, 286889, Note_on_c, 15, 37, 0
17, 286920, Note_on_c, 15, 38, 62
17, 287009, Note_on_c, 15, 38, 0
17, 287040, Note_on_c, 15, 40, 63
17, 287129, Note_on_c, 15, 40, 0
17, 287160, Note_on_c, 15, 42, 64
17, 287249, Note_on_c, 15, 42, 0
17, 287280, Note_on_c, 15, 44, 66
17, 287369, Note_on_c, 15, 44, 0
17, 287400, Note_on_c, 15, 45, 67
17, 287489, Note_on_c, 15, 45, 0
17, 287520, Note_on_c, 15, 47, 69
17, 287609, Note_on_c, 15, 47, 0
17, 287640, Note_on_c, 15, 45, 70
17, 287729, Note_on_c, 15, 45, 0
17, 287760, Note_on_c, 15, 44, 72
17, 287849, Note_on_c, 15, 44, 0
17, 287880, Note_on_c, 15, 42, 73
17, 287969, Note_on_c, 15, 42, 0
17, 288000, Note_on_c, 15, 40, 74
17, 288089, Note_on_c, 15, 40, 0
17, 288120, Note_on_c, 15, 38, 76
17, 288209, Note_on_c, 15, 38, 0
17, 288240, Note_on_c, 15, 37, 77
17, 288329, Note_on_c, 15, 37, 0
17, 288360, Note_on_c, 15, 35, 79
17, 288449, Note_on_c, 15, 35, 0
17, 288480, Note_on_c, 15, 37, 80
17, 288569, Note_on_c, 15, 37, 0
17, 288600, Note_on_c, 15, 38, 82
17, 288689, Note_on_c, 15, 38, 0
17, 288720, Note_on_c, 15, 40, 83
17, 288809, Note_on_c, 15, 40, 0
17, 288840, Note_on_c, 15, 42, 84
17, 288929, Note_on_c, 15, 42, 0
17, 288960, Note_on_c, 15, 44, 86
17, 289049, Note_on_c, 15, 44, 0
17, 289080, Note_on_c, 15, 45, 87
17, 289169, Note_on_c, 15, 45, 0
17, 289200, Note_on_c, 15, 47, 89
17, 289289, Note_on_c, 15, 47, 0
17, 289320, Note_on_c, 15, 49, 90
17, 289409, Note_on_c, 15, 49, 0
17, 289440, Note_on_c, 15, 52, 92
17, 289529, Note_on_c, 15, 52, 0
17, 289560, Note_on_c, 15, 50, 92
17, 289649, Note_on_c, 15, 50, 0
17, 289680, Note_on_c, 15, 49, 92
17, 289769, Note_on_c, 15, 49, 0
17, 289800, Note_on_c, 15, 47, 92
17, 289889, Note_on_c, 15, 47, 0
17, 289920, Note_on_c, 15, 45, 92
17, 290009, Note_on_c, 15, 45, 0
17, 290040, Note_on_c, 15, 43, 92
17, 290129, Note_on_c, 15, 43, 0
17, 290160, Note_on_c, 15, 42, 92
17, 290249, Note_on_c, 15, 42, 0
17, 290280, Note_on_c, 15, 40, 92
17, 290369, Note_on_c, 15, 40, 0
17, 290400, Note_on_c, 15, 38, 92
17, 290489, Note_on_c, 15, 38, 0
17, 290520, Note_on_c, 15, 37, 92
17, 290609, Note_on_c, 15, 37, 0
17, 290640, Note_on_c, 15, 35, 92
17, 290729, Note_on_c, 15, 35, 0
17, 290760, Note_on_c, 15, 33, 92
17, 290849, Note_on_c, 15, 33, 0
17, 290880, Note_on_c, 15, 31, 92
17, 290969, Note_on_c, 15, 31, 0
17, 291000, Note_on_c, 15, 30, 92
17, 291089, Note_on_c, 15, 30, 0
17, 291120, Note_on_c, 15, 28, 92
17, 291209, Note_on_c, 15, 28, 0
17, 291240, Note_on_c, 15, 26, 92
17, 291329, Note_on_c, 15, 26, 0
17, 291360, Note_on_c, 15, 37, 100
17, 291411, Note_on_c, 15, 37, 0
17, 291420, Note_on_c, 15, 37, 92
17, 291471, Note_on_c, 15, 37, 0
17, 291480, Note_on_c, 15, 37, 92
17, 291531, Note_on_c, 15, 37, 0
17, 291540, Note_on_c, 15, 37, 92
17, 291591, Note_on_c, 15, 37, 0
17, 291600, Note_on_c, 15, 37, 92
17, 291651, Note_on_c, 15, 37, 0
17, 291660, Note_on_c, 15, 37, 92
17, 291711, Note_on_c, 15, 37, 0
17, 291720, Note_on_c, 15, 37, 92
17, 291771, Note_on_c, 15, 37, 0
17, 291780, Note_on_c, 15, 37, 92
17, 291831, Note_on_c, 15, 37, 0
17, 291840, Note_on_c, 15, 38, 100
17, 291891, Note_on_c, 15, 38, 0
17, 291900, Note_on_c, 15, 38, 92
17, 291951, Note_on_c, 15, 38, 0
17, 291960, Note_on_c, 15, 38, 92
17, 292011, Note_on_c, 15, 38, 0
17, 292020, Note_on_c, 15, 38, 92
17, 292071, Note_on_c, 15, 38, 0
17, 292080, Note_on_c, 15, 38, 92
17, 292131, Note_on_c, 15, 38, 0
17, 292140, Note_on_c, 15, 38, 92
17, 292191, Note_on_c, 15, 38, 0
17, 292200, Note_on_c, 15, 38, 92
17, 292251, Note_on_c, 15, 38, 0
17, 292260, Note_on_c, 15, 38, 92
17, 292311, Note_on_c, 15, 38, 0
17, 292320, Note_on_c, 15, 40, 100
17, 292371, Note_on_c, 15, 40, 0
17, 292380, Note_on_c, 15, 40, 92
17, 292431, Note_on_c, 15, 40, 0
17, 292440, Note_on_c, 15, 40, 92
17, 292491, Note_on_c, 15, 40, 0
17, 292500, Note_on_c, 15, 40, 92
17, 292551, Note_on_c, 15, 40, 0
17, 292560, Note_on_c, 15, 40, 92
17, 292611, Note_on_c, 15, 40, 0
17, 292620, Note_on_c, 15, 40, 92
17, 292671, Note_on_c, 15, 40, 0
17, 292680, Note_on_c, 15, 40, 92
17, 292731, Note_on_c, 15, 40, 0
17, 292740, Note_on_c, 15, 40, 92
17, 292791, Note_on_c, 15, 40, 0
17, 292800, Note_on_c, 15, 40, 100
17, 292851, Note_on_c, 15, 40, 0
17, 292860, Note_on_c, 15, 40, 92
17, 292911, Note_on_c, 15, 40, 0
17, 292920, Note_on_c, 15, 40, 92
17, 292971, Note_on_c, 15, 40, 0
17, 292980, Note_on_c, 15, 40, 92
17, 293031, Note_on_c, 15, 40, 0
17, 293040, Note_on_c, 15, 40, 92
17, 293091, Note_on_c, 15, 40, 0
17, 293100, Note_on_c, 15, 40, 92
17, 293151, Note_on_c, 15, 40, 0
17, 293160, Note_on_c, 15, 40, 92
17, 293211, Note_on_c, 15, 40, 0
17, 293220, Note_on_c, 15, 40, 92
17, 293271, Note_on_c, 15, 40, 0
17, 293280, Note_on_c, 15, 33, 92
17, 293399, Note_on_c, 15, 33, 0
17, 294000, Note_on_c, 15, 52, 100
17, 294059, Note_on_c, 15, 52, 0
17, 294060, Note_on_c, 15, 52, 92
17, 294239, Note_on_c, 15, 52, 0
17, 294240, Note_on_c, 15, 45, 92
17, 294479, Note_on_c, 15, 45, 0
17, 294480, Note_on_c, 15, 40, 92
17, 294719, Note_on_c, 15, 40, 0
17, 294720, Note_on_c, 15, 33, 92
17, 294959, Note_on_c, 15, 33, 0
17, 294960, Note_on_c, 15, 28, 92
17, 295199, Note_on_c, 15, 28, 0
17, 295200, Note_on_c, 15, 33, 92
17, 295319, Note_on_c, 15, 33, 0
17, 295920, Note_on_c, 15, 52, 100
17, 295979, Note_on_c, 15, 52, 0
17, 295980, Note_on_c, 15, 52, 92
17, 296159, Note_on_c, 15, 52, 0
17, 296160, Note_on_c, 15, 45, 92
17, 296399, Note_on_c, 15, 45, 0
17, 296400, Note_on_c, 15, 40, 92
17, 296639, Note_on_c, 15, 40, 0
17, 296640, Note_on_c, 15, 33, 92
17, 296879, Note_on_c, 15, 33, 0
17, 296880, Note_on_c, 15, 28, 92
17, 297119, Note_on_c, 15, 28, 0
17, 297120, Note_on_c, 15, 28, 84
17, 297171, Note_on_c, 15, 28, 0
17, 297180, Note_on_c, 15, 28, 84
17, 297231, Note_on_c, 15, 28, 0
17, 297240, Note_on_c, 15, 28, 84
17, 297291, Note_on_c, 15, 28, 0
17, 297300, Note_on_c, 15, 28, 84
17, 297351, Note_on_c, 15, 28, 0
17, 297360, Note_on_c, 15, 28, 92
17, 297411, Note_on_c, 15, 28, 0
17, 297420, Note_on_c, 15, 28, 84
17, 297471, Note_on_c, 15, 28, 0
17, 297480, Note_on_c, 15, 28, 84
17, 297531, Note_on_c, 15, 28, 0
17, 297540, Note_on_c, 15, 28, 84
17, 297591, Note_on_c, 15, 28, 0
17, 297600, Note_on_c, 15, 28, 92
17, 297651, Note_on_c, 15, 28, 0
17, 297660, Note_on_c, 15, 28, 84
17, 297711, Note_on_c, 15, 28, 0
17, 297720, Note_on_c, 15, 28, 84
17, 297771, Note_on_c, 15, 28, 0
17, 297780, Note_on_c, 15, 28, 84
17, 297831, Note_on_c, 15, 28, 0
17, 297840, Note_on_c, 15, 28, 92
17, 297891, Note_on_c, 15, 28, 0
17, 297900, Note_on_c, 15, 28, 84
17, 297951, Note_on_c, 15, 28, 0
17, 297960, Note_on_c, 15, 28, 84
17, 298011, Note_on_c, 15, 28, 0
17, 298020, Note_on_c, 15, 28, 84
17, 298071, Note_on_c, 15, 28, 0
17, 298080, Note_on_c, 15, 28, 84
17, 298131, Note_on_c, 15, 28, 0
17, 298140, Note_on_c, 15, 28, 84
17, 298191, Note_on_c, 15, 28, 0
17, 298200, Note_on_c, 15, 28, 84
17, 298251, Note_on_c, 15, 28, 0
17, 298260, Note_on_c, 15, 28, 84
17, 298311, Note_on_c, 15, 28, 0
17, 298320, Note_on_c, 15, 28, 84
17, 298371, Note_on_c, 15, 28, 0
17, 298380, Note_on_c, 15, 28, 84
17, 298431, Note_on_c, 15, 28, 0
17, 298440, Note_on_c, 15, 28, 84
17, 298491, Note_on_c, 15, 28, 0
17, 298500, Note_on_c, 15, 28, 84
17, 298551, Note_on_c, 15, 28, 0
17, 298560, Note_on_c, 15, 28, 84
17, 298611, Note_on_c, 15, 28, 0
17, 298620, Note_on_c, 15, 28, 84
17, 298671, Note_on_c, 15, 28, 0
17, 298680, Note_on_c, 15, 28, 84
17, 298731, Note_on_c, 15, 28, 0
17, 298740, Note_on_c, 15, 28, 84
17, 298791, Note_on_c, 15, 28, 0
17, 298800, Note_on_c, 15, 28, 84
17, 298851, Note_on_c, 15, 28, 0
17, 298860, Note_on_c, 15, 28, 84
17, 298911, Note_on_c, 15, 28, 0
17, 298920, Note_on_c, 15, 28, 84
17, 298971, Note_on_c, 15, 28, 0
17, 298980, Note_on_c, 15, 28, 84
17, 299031, Note_on_c, 15, 28, 0
17, 299040, Note_on_c, 15, 33, 84
17, 299159, Note_on_c, 15, 33, 0
17, 299520, Note_on_c, 15, 33, 84
17, 299639, Note_on_c, 15, 33, 0
17, 300000, Note_on_c, 15, 33, 84
17, 300119, Note_on_c, 15, 33, 0
17, 300119, End_track
18, 0, Start_track
18, 0, Title_t, "Ludwig van Beethoven - Symphony No. 7 in A Major, Op.92 - 4. Allegro con brio"
18, 0, MIDI_port, 0
18, 0, End_track
0, 0, End_of_file
