0, 0, Header, 1, 18, 240
1, 0, Start_track
1, 0, Sequencer_specific, 10, 0, 0, 91, 35, 1, 0, 5, 6, 42, 0
1, 0, Title_t, "Ludwig van Beethoven - Symphony No. 2 in D Major, Op.36"
1, 0, Instrument_name_t, "Conductor Track"
1, 0, SMPTE_offset, 96, 0, 3, 0, 0
1, 0, MIDI_port, 0
1, 0, Marker_t, "Originally Sequenced 3 Oct 1998"
1, 0, Key_signature, 2, "major"
1, 0, Tempo, 197368
1, 0, Time_signature, 2, 2, 24, 8
1, 480, Time_signature, 4, 2, 24, 8
1, 321120, Time_signature, 12, 2, 72, 8
1, 324000, Time_signature, 4, 2, 24, 8
1, 324960, Tempo, 600000
1, 325920, Tempo, 197368
1, 399840, Tempo, 600000
1, 400800, Tempo, 197368
1, 426960, Tempo, 197368
1, 426960, End_track
2, 0, Start_track
2, 0, Title_t, "4th Movement - Allegro molto"
2, 0, MIDI_port, 0
2, 0, End_track
3, 0, Start_track
3, 0, Title_t, "Sequenced by D. L. Viens 3 Mar 2000"
3, 0, MIDI_port, 0
3, 0, End_track
4, 0, Start_track
4, 0, Title_t, "dlviens@empire.net"
4, 0, MIDI_port, 0
4, 0, End_track
5, 0, Start_track
5, 0, MIDI_port, 0
5, 0, End_track
6, 0, Start_track
6, 0, Title_t, "Flute"
6, 0, MIDI_port, 0
6, 0, Program_c, 0, 73
6, 0, Control_c, 0, 7, 88
6, 0, Control_c, 0, 10, 60
6, 0, Control_c, 0, 11, 127
6, 360, Note_on_c, 0, 90, 76
6, 479, Note_on_c, 0, 90, 0
6, 480, Note_on_c, 0, 91, 76
6, 659, Note_on_c, 0, 91, 0
6, 840, Note_on_c, 0, 73, 76
6, 929, Note_on_c, 0, 73, 0
6, 960, Note_on_c, 0, 73, 84
6, 1019, Note_on_c, 0, 73, 0
6, 1020, Note_on_c, 0, 74, 76
6, 1079, Note_on_c, 0, 74, 0
6, 1080, Note_on_c, 0, 73, 76
6, 1139, Note_on_c, 0, 73, 0
6, 1140, Note_on_c, 0, 74, 76
6, 1199, Note_on_c, 0, 74, 0
6, 1200, Note_on_c, 0, 73, 76
6, 1259, Note_on_c, 0, 73, 0
6, 1260, Note_on_c, 0, 74, 76
6, 1319, Note_on_c, 0, 74, 0
6, 1320, Note_on_c, 0, 71, 76
6, 1379, Note_on_c, 0, 71, 0
6, 1380, Note_on_c, 0, 73, 76
6, 1424, Note_on_c, 0, 73, 0
6, 1440, Note_on_c, 0, 76, 76
6, 1619, Note_on_c, 0, 76, 0
6, 1680, Note_on_c, 0, 69, 76
6, 1859, Note_on_c, 0, 69, 0
6, 5280, Note_on_c, 0, 86, 76
6, 5459, Note_on_c, 0, 86, 0
6, 5520, Note_on_c, 0, 88, 76
6, 5520, Note_on_c, 0, 85, 76
6, 5699, Note_on_c, 0, 88, 0
6, 5699, Note_on_c, 0, 85, 0
6, 6120, Note_on_c, 0, 90, 84
6, 6239, Note_on_c, 0, 90, 0
6, 6240, Note_on_c, 0, 91, 84
6, 6419, Note_on_c, 0, 91, 0
6, 6600, Note_on_c, 0, 73, 84
6, 6689, Note_on_c, 0, 73, 0
6, 6720, Note_on_c, 0, 73, 92
6, 6779, Note_on_c, 0, 73, 0
6, 6780, Note_on_c, 0, 74, 84
6, 6839, Note_on_c, 0, 74, 0
6, 6840, Note_on_c, 0, 73, 84
6, 6899, Note_on_c, 0, 73, 0
6, 6900, Note_on_c, 0, 74, 84
6, 6959, Note_on_c, 0, 74, 0
6, 6960, Note_on_c, 0, 73, 84
6, 7019, Note_on_c, 0, 73, 0
6, 7020, Note_on_c, 0, 74, 84
6, 7079, Note_on_c, 0, 74, 0
6, 7080, Note_on_c, 0, 71, 84
6, 7139, Note_on_c, 0, 71, 0
6, 7140, Note_on_c, 0, 73, 84
6, 7191, Note_on_c, 0, 73, 0
6, 7200, Note_on_c, 0, 76, 84
6, 7379, Note_on_c, 0, 76, 0
6, 7440, Note_on_c, 0, 69, 84
6, 7619, Note_on_c, 0, 69, 0
6, 11400, Note_on_c, 0, 85, 76
6, 11519, Note_on_c, 0, 85, 0
6, 11520, Note_on_c, 0, 86, 76
6, 11699, Note_on_c, 0, 86, 0
6, 13320, Note_on_c, 0, 85, 76
6, 13439, Note_on_c, 0, 85, 0
6, 13440, Note_on_c, 0, 86, 76
6, 13619, Note_on_c, 0, 86, 0
6, 14880, Note_on_c, 0, 86, 84
6, 14999, Note_on_c, 0, 86, 0
6, 15000, Note_on_c, 0, 85, 76
6, 15119, Note_on_c, 0, 85, 0
6, 15120, Note_on_c, 0, 86, 76
6, 15239, Note_on_c, 0, 86, 0
6, 15240, Note_on_c, 0, 85, 76
6, 15329, Note_on_c, 0, 85, 0
6, 15360, Note_on_c, 0, 86, 76
6, 15539, Note_on_c, 0, 86, 0
6, 16800, Note_on_c, 0, 86, 84
6, 16919, Note_on_c, 0, 86, 0
6, 16920, Note_on_c, 0, 85, 76
6, 17039, Note_on_c, 0, 85, 0
6, 17040, Note_on_c, 0, 86, 76
6, 17159, Note_on_c, 0, 86, 0
6, 17160, Note_on_c, 0, 85, 76
6, 17249, Note_on_c, 0, 85, 0
6, 17280, Note_on_c, 0, 86, 76
6, 17459, Note_on_c, 0, 86, 0
6, 17520, Note_on_c, 0, 86, 76
6, 17520, Note_on_c, 0, 78, 76
6, 17699, Note_on_c, 0, 86, 0
6, 17699, Note_on_c, 0, 78, 0
6, 17760, Note_on_c, 0, 86, 76
6, 17760, Note_on_c, 0, 79, 76
6, 17939, Note_on_c, 0, 86, 0
6, 17939, Note_on_c, 0, 79, 0
6, 18000, Note_on_c, 0, 86, 76
6, 18000, Note_on_c, 0, 78, 76
6, 18179, Note_on_c, 0, 86, 0
6, 18179, Note_on_c, 0, 78, 0
6, 18240, Note_on_c, 0, 86, 76
6, 18240, Note_on_c, 0, 79, 76
6, 18419, Note_on_c, 0, 86, 0
6, 18419, Note_on_c, 0, 79, 0
6, 18480, Note_on_c, 0, 80, 76
6, 18480, Note_on_c, 0, 86, 76
6, 18659, Note_on_c, 0, 80, 0
6, 18659, Note_on_c, 0, 86, 0
6, 18720, Note_on_c, 0, 85, 84
6, 18720, Note_on_c, 0, 81, 84
6, 18959, Note_on_c, 0, 85, 0
6, 18959, Note_on_c, 0, 81, 0
6, 21120, Note_on_c, 0, 85, 84
6, 21120, Note_on_c, 0, 81, 84
6, 21599, Note_on_c, 0, 85, 0
6, 21600, Note_on_c, 0, 86, 84
6, 22049, Note_on_c, 0, 86, 0
6, 22079, Note_on_c, 0, 81, 0
6, 22080, Note_on_c, 0, 86, 84
6, 22080, Note_on_c, 0, 80, 84
6, 22529, Note_on_c, 0, 86, 0
6, 22529, Note_on_c, 0, 80, 0
6, 22560, Note_on_c, 0, 85, 84
6, 22560, Note_on_c, 0, 81, 84
6, 22769, Note_on_c, 0, 85, 0
6, 22769, Note_on_c, 0, 81, 0
6, 22800, Note_on_c, 0, 81, 84
6, 22800, Note_on_c, 0, 69, 84
6, 23009, Note_on_c, 0, 81, 0
6, 23009, Note_on_c, 0, 69, 0
6, 23040, Note_on_c, 0, 81, 84
6, 23040, Note_on_c, 0, 69, 84
6, 23249, Note_on_c, 0, 81, 0
6, 23249, Note_on_c, 0, 69, 0
6, 23280, Note_on_c, 0, 81, 84
6, 23280, Note_on_c, 0, 69, 84
6, 23489, Note_on_c, 0, 81, 0
6, 23489, Note_on_c, 0, 69, 0
6, 23520, Note_on_c, 0, 81, 84
6, 23520, Note_on_c, 0, 69, 84
6, 23759, Note_on_c, 0, 81, 0
6, 23759, Note_on_c, 0, 69, 0
6, 35520, Note_on_c, 0, 81, 52
6, 37439, Note_on_c, 0, 81, 0
6, 37440, Note_on_c, 0, 83, 52
6, 37679, Note_on_c, 0, 83, 0
6, 37680, Note_on_c, 0, 85, 52
6, 37889, Note_on_c, 0, 85, 0
6, 37920, Note_on_c, 0, 86, 52
6, 38159, Note_on_c, 0, 86, 0
6, 38640, Control_c, 0, 11, 80
6, 38880, Note_on_c, 0, 81, 76
6, 39359, Note_on_c, 0, 81, 0
6, 39360, Note_on_c, 0, 83, 76
6, 39599, Note_on_c, 0, 83, 0
6, 39600, Note_on_c, 0, 85, 76
6, 39839, Note_on_c, 0, 85, 0
6, 39840, Note_on_c, 0, 86, 76
6, 39840, Control_c, 0, 11, 80
6, 40000, Control_c, 0, 11, 84
6, 40079, Note_on_c, 0, 86, 0
6, 40080, Note_on_c, 0, 88, 76
6, 40160, Control_c, 0, 11, 88
6, 40319, Note_on_c, 0, 88, 0
6, 40320, Control_c, 0, 11, 92
6, 40320, Note_on_c, 0, 90, 76
6, 40480, Control_c, 0, 11, 96
6, 40559, Note_on_c, 0, 90, 0
6, 40560, Note_on_c, 0, 88, 76
6, 40640, Control_c, 0, 11, 100
6, 40799, Note_on_c, 0, 88, 0
6, 40800, Control_c, 0, 11, 104
6, 40800, Note_on_c, 0, 86, 76
6, 40960, Control_c, 0, 11, 107
6, 41039, Note_on_c, 0, 86, 0
6, 41040, Note_on_c, 0, 85, 76
6, 41040, Note_on_c, 0, 82, 76
6, 41120, Control_c, 0, 11, 111
6, 41279, Note_on_c, 0, 85, 0
6, 41279, Note_on_c, 0, 82, 0
6, 41280, Control_c, 0, 11, 115
6, 41280, Note_on_c, 0, 83, 76
6, 41440, Control_c, 0, 11, 119
6, 41519, Note_on_c, 0, 83, 0
6, 41520, Note_on_c, 0, 81, 76
6, 41520, Note_on_c, 0, 78, 76
6, 41600, Control_c, 0, 11, 123
6, 41729, Note_on_c, 0, 81, 0
6, 41729, Note_on_c, 0, 78, 0
6, 41760, Control_c, 0, 11, 127
6, 41760, Note_on_c, 0, 80, 76
6, 41760, Note_on_c, 0, 76, 76
6, 41999, Note_on_c, 0, 80, 0
6, 41999, Note_on_c, 0, 76, 0
6, 42720, Note_on_c, 0, 80, 84
6, 43679, Note_on_c, 0, 80, 0
6, 44640, Note_on_c, 0, 81, 84
6, 45599, Note_on_c, 0, 81, 0
6, 46080, Note_on_c, 0, 83, 84
6, 46559, Note_on_c, 0, 83, 0
6, 47040, Note_on_c, 0, 85, 84
6, 47489, Note_on_c, 0, 85, 0
6, 47520, Note_on_c, 0, 86, 76
6, 47759, Note_on_c, 0, 86, 0
6, 52320, Note_on_c, 0, 88, 84
6, 53249, Note_on_c, 0, 88, 0
6, 53280, Note_on_c, 0, 85, 76
6, 53519, Note_on_c, 0, 85, 0
6, 56160, Note_on_c, 0, 88, 84
6, 57089, Note_on_c, 0, 88, 0
6, 57120, Note_on_c, 0, 85, 76
6, 57359, Note_on_c, 0, 85, 0
6, 64800, Note_on_c, 0, 88, 68
6, 65759, Note_on_c, 0, 88, 0
6, 65760, Note_on_c, 0, 84, 52
6, 66239, Note_on_c, 0, 84, 0
6, 66240, Note_on_c, 0, 81, 52
6, 66689, Note_on_c, 0, 81, 0
6, 66720, Note_on_c, 0, 76, 52
6, 66959, Note_on_c, 0, 76, 0
6, 67680, Note_on_c, 0, 88, 68
6, 68609, Note_on_c, 0, 88, 0
6, 68640, Note_on_c, 0, 84, 52
6, 68879, Note_on_c, 0, 84, 0
6, 76080, Control_c, 0, 11, 80
6, 76320, Note_on_c, 0, 88, 76
6, 76320, Control_c, 0, 11, 80
6, 76640, Control_c, 0, 11, 84
6, 76960, Control_c, 0, 11, 88
6, 77279, Note_on_c, 0, 88, 0
6, 77280, Control_c, 0, 11, 92
6, 77280, Note_on_c, 0, 86, 76
6, 77600, Control_c, 0, 11, 96
6, 77759, Note_on_c, 0, 86, 0
6, 77760, Note_on_c, 0, 88, 76
6, 77920, Control_c, 0, 11, 100
6, 77999, Note_on_c, 0, 88, 0
6, 78000, Note_on_c, 0, 89, 76
6, 78209, Note_on_c, 0, 89, 0
6, 78240, Control_c, 0, 11, 104
6, 78240, Note_on_c, 0, 81, 76
6, 78560, Control_c, 0, 11, 107
6, 78880, Control_c, 0, 11, 111
6, 79199, Note_on_c, 0, 81, 0
6, 79200, Control_c, 0, 11, 115
6, 79200, Note_on_c, 0, 80, 76
6, 79520, Control_c, 0, 11, 119
6, 79840, Control_c, 0, 11, 123
6, 80129, Note_on_c, 0, 80, 0
6, 80160, Control_c, 0, 11, 127
6, 80160, Note_on_c, 0, 81, 76
6, 82049, Note_on_c, 0, 81, 0
6, 82080, Note_on_c, 0, 83, 84
6, 82080, Note_on_c, 0, 81, 84
6, 83969, Note_on_c, 0, 83, 0
6, 83969, Note_on_c, 0, 81, 0
6, 84000, Note_on_c, 0, 85, 84
6, 84000, Note_on_c, 0, 81, 84
6, 84929, Note_on_c, 0, 85, 0
6, 84929, Note_on_c, 0, 81, 0
6, 84960, Note_on_c, 0, 83, 84
6, 84960, Note_on_c, 0, 80, 84
6, 85889, Note_on_c, 0, 83, 0
6, 85889, Note_on_c, 0, 80, 0
6, 85920, Note_on_c, 0, 88, 76
6, 85920, Note_on_c, 0, 81, 76
6, 86849, Note_on_c, 0, 88, 0
6, 86880, Note_on_c, 0, 85, 84
6, 87569, Note_on_c, 0, 85, 0
6, 87809, Note_on_c, 0, 81, 0
6, 87840, Note_on_c, 0, 81, 76
6, 87840, Note_on_c, 0, 90, 76
6, 88769, Note_on_c, 0, 90, 0
6, 88800, Note_on_c, 0, 86, 84
6, 89489, Note_on_c, 0, 86, 0
6, 89729, Note_on_c, 0, 81, 0
6, 89760, Note_on_c, 0, 81, 84
6, 89760, Note_on_c, 0, 91, 84
6, 90689, Note_on_c, 0, 81, 0
6, 90689, Note_on_c, 0, 91, 0
6, 90720, Note_on_c, 0, 76, 84
6, 90899, Note_on_c, 0, 76, 0
6, 90960, Note_on_c, 0, 79, 84
6, 91139, Note_on_c, 0, 79, 0
6, 91200, Note_on_c, 0, 85, 84
6, 91379, Note_on_c, 0, 85, 0
6, 91440, Note_on_c, 0, 88, 84
6, 91619, Note_on_c, 0, 88, 0
6, 91680, Note_on_c, 0, 91, 84
6, 91859, Note_on_c, 0, 91, 0
6, 91920, Note_on_c, 0, 88, 84
6, 92099, Note_on_c, 0, 88, 0
6, 92160, Note_on_c, 0, 85, 84
6, 92339, Note_on_c, 0, 85, 0
6, 92400, Note_on_c, 0, 79, 84
6, 92579, Note_on_c, 0, 79, 0
6, 92640, Note_on_c, 0, 76, 84
6, 92819, Note_on_c, 0, 76, 0
6, 92880, Note_on_c, 0, 79, 84
6, 93059, Note_on_c, 0, 79, 0
6, 93120, Note_on_c, 0, 85, 84
6, 93299, Note_on_c, 0, 85, 0
6, 93360, Note_on_c, 0, 88, 84
6, 93539, Note_on_c, 0, 88, 0
6, 93600, Note_on_c, 0, 91, 84
6, 93779, Note_on_c, 0, 91, 0
6, 103080, Note_on_c, 0, 90, 76
6, 103199, Note_on_c, 0, 90, 0
6, 103200, Note_on_c, 0, 91, 76
6, 103379, Note_on_c, 0, 91, 0
6, 103560, Note_on_c, 0, 73, 76
6, 103649, Note_on_c, 0, 73, 0
6, 103680, Note_on_c, 0, 73, 84
6, 103739, Note_on_c, 0, 73, 0
6, 103740, Note_on_c, 0, 74, 76
6, 103799, Note_on_c, 0, 74, 0
6, 103800, Note_on_c, 0, 73, 76
6, 103859, Note_on_c, 0, 73, 0
6, 103860, Note_on_c, 0, 74, 76
6, 103919, Note_on_c, 0, 74, 0
6, 103920, Note_on_c, 0, 73, 76
6, 103979, Note_on_c, 0, 73, 0
6, 103980, Note_on_c, 0, 74, 76
6, 104039, Note_on_c, 0, 74, 0
6, 104040, Note_on_c, 0, 71, 76
6, 104099, Note_on_c, 0, 71, 0
6, 104100, Note_on_c, 0, 73, 76
6, 104144, Note_on_c, 0, 73, 0
6, 104160, Note_on_c, 0, 76, 76
6, 104339, Note_on_c, 0, 76, 0
6, 104400, Note_on_c, 0, 69, 76
6, 104579, Note_on_c, 0, 69, 0
6, 108000, Note_on_c, 0, 86, 76
6, 108179, Note_on_c, 0, 86, 0
6, 108240, Note_on_c, 0, 88, 76
6, 108240, Note_on_c, 0, 85, 76
6, 108419, Note_on_c, 0, 88, 0
6, 108419, Note_on_c, 0, 85, 0
6, 108840, Note_on_c, 0, 90, 84
6, 108959, Note_on_c, 0, 90, 0
6, 108960, Note_on_c, 0, 91, 84
6, 109139, Note_on_c, 0, 91, 0
6, 109320, Note_on_c, 0, 73, 84
6, 109409, Note_on_c, 0, 73, 0
6, 109440, Note_on_c, 0, 73, 92
6, 109499, Note_on_c, 0, 73, 0
6, 109500, Note_on_c, 0, 74, 84
6, 109559, Note_on_c, 0, 74, 0
6, 109560, Note_on_c, 0, 73, 84
6, 109619, Note_on_c, 0, 73, 0
6, 109620, Note_on_c, 0, 74, 84
6, 109679, Note_on_c, 0, 74, 0
6, 109680, Note_on_c, 0, 73, 84
6, 109739, Note_on_c, 0, 73, 0
6, 109740, Note_on_c, 0, 74, 84
6, 109799, Note_on_c, 0, 74, 0
6, 109800, Note_on_c, 0, 71, 84
6, 109859, Note_on_c, 0, 71, 0
6, 109860, Note_on_c, 0, 73, 84
6, 109904, Note_on_c, 0, 73, 0
6, 109920, Note_on_c, 0, 76, 84
6, 110099, Note_on_c, 0, 76, 0
6, 110160, Note_on_c, 0, 69, 84
6, 110339, Note_on_c, 0, 69, 0
6, 115200, Note_on_c, 0, 86, 84
6, 115200, Note_on_c, 0, 81, 84
6, 115679, Note_on_c, 0, 86, 0
6, 115679, Note_on_c, 0, 81, 0
6, 115680, Note_on_c, 0, 85, 76
6, 115680, Note_on_c, 0, 82, 76
6, 115919, Note_on_c, 0, 85, 0
6, 115919, Note_on_c, 0, 82, 0
6, 117120, Note_on_c, 0, 85, 84
6, 117120, Note_on_c, 0, 82, 84
6, 117599, Note_on_c, 0, 85, 0
6, 117599, Note_on_c, 0, 82, 0
6, 117600, Note_on_c, 0, 86, 76
6, 117600, Note_on_c, 0, 81, 76
6, 117839, Note_on_c, 0, 86, 0
6, 117839, Note_on_c, 0, 81, 0
6, 119040, Note_on_c, 0, 86, 76
6, 119040, Note_on_c, 0, 81, 76
6, 119219, Note_on_c, 0, 86, 0
6, 119219, Note_on_c, 0, 81, 0
6, 119280, Note_on_c, 0, 86, 76
6, 119280, Note_on_c, 0, 81, 76
6, 119459, Note_on_c, 0, 86, 0
6, 119459, Note_on_c, 0, 81, 0
6, 120960, Note_on_c, 0, 85, 76
6, 120960, Note_on_c, 0, 82, 76
6, 121139, Note_on_c, 0, 85, 0
6, 121139, Note_on_c, 0, 82, 0
6, 121200, Note_on_c, 0, 82, 76
6, 121200, Note_on_c, 0, 85, 76
6, 121379, Note_on_c, 0, 82, 0
6, 121379, Note_on_c, 0, 85, 0
6, 121920, Note_on_c, 0, 86, 76
6, 121920, Note_on_c, 0, 81, 76
6, 122099, Note_on_c, 0, 86, 0
6, 122099, Note_on_c, 0, 81, 0
6, 122160, Note_on_c, 0, 86, 76
6, 122160, Note_on_c, 0, 81, 76
6, 122339, Note_on_c, 0, 86, 0
6, 122339, Note_on_c, 0, 81, 0
6, 122880, Note_on_c, 0, 85, 76
6, 122880, Note_on_c, 0, 82, 76
6, 123059, Note_on_c, 0, 85, 0
6, 123059, Note_on_c, 0, 82, 0
6, 123120, Note_on_c, 0, 85, 76
6, 123120, Note_on_c, 0, 82, 76
6, 123299, Note_on_c, 0, 85, 0
6, 123299, Note_on_c, 0, 82, 0
6, 123840, Note_on_c, 0, 86, 76
6, 123840, Note_on_c, 0, 81, 76
6, 124019, Note_on_c, 0, 86, 0
6, 124019, Note_on_c, 0, 81, 0
6, 124080, Note_on_c, 0, 86, 76
6, 124080, Note_on_c, 0, 81, 76
6, 124259, Note_on_c, 0, 86, 0
6, 124259, Note_on_c, 0, 81, 0
6, 124800, Note_on_c, 0, 85, 76
6, 124800, Note_on_c, 0, 82, 76
6, 124979, Note_on_c, 0, 85, 0
6, 124979, Note_on_c, 0, 82, 0
6, 125040, Note_on_c, 0, 85, 76
6, 125040, Note_on_c, 0, 82, 76
6, 125219, Note_on_c, 0, 85, 0
6, 125219, Note_on_c, 0, 82, 0
6, 125280, Note_on_c, 0, 86, 76
6, 125280, Note_on_c, 0, 81, 76
6, 125519, Note_on_c, 0, 86, 0
6, 125519, Note_on_c, 0, 81, 0
6, 133920, Note_on_c, 0, 82, 76
6, 134099, Note_on_c, 0, 82, 0
6, 134160, Note_on_c, 0, 86, 76
6, 134339, Note_on_c, 0, 86, 0
6, 134400, Note_on_c, 0, 89, 76
6, 134579, Note_on_c, 0, 89, 0
6, 134640, Note_on_c, 0, 82, 76
6, 134819, Note_on_c, 0, 82, 0
6, 135840, Note_on_c, 0, 81, 76
6, 136019, Note_on_c, 0, 81, 0
6, 136080, Note_on_c, 0, 86, 76
6, 136259, Note_on_c, 0, 86, 0
6, 136320, Note_on_c, 0, 89, 76
6, 136499, Note_on_c, 0, 89, 0
6, 136560, Note_on_c, 0, 81, 76
6, 136739, Note_on_c, 0, 81, 0
6, 137520, Note_on_c, 0, 86, 52
6, 137699, Note_on_c, 0, 86, 0
6, 137760, Note_on_c, 0, 89, 52
6, 137939, Note_on_c, 0, 89, 0
6, 138000, Note_on_c, 0, 79, 52
6, 138179, Note_on_c, 0, 79, 0
6, 138480, Note_on_c, 0, 79, 52
6, 138659, Note_on_c, 0, 79, 0
6, 138720, Note_on_c, 0, 84, 68
6, 138959, Note_on_c, 0, 84, 0
6, 139680, Note_on_c, 0, 84, 76
6, 139859, Note_on_c, 0, 84, 0
6, 139920, Note_on_c, 0, 88, 76
6, 140099, Note_on_c, 0, 88, 0
6, 140160, Note_on_c, 0, 91, 76
6, 140339, Note_on_c, 0, 91, 0
6, 140400, Note_on_c, 0, 84, 76
6, 140579, Note_on_c, 0, 84, 0
6, 141600, Note_on_c, 0, 83, 76
6, 141779, Note_on_c, 0, 83, 0
6, 141840, Note_on_c, 0, 88, 76
6, 142019, Note_on_c, 0, 88, 0
6, 142080, Note_on_c, 0, 91, 76
6, 142259, Note_on_c, 0, 91, 0
6, 142320, Note_on_c, 0, 83, 76
6, 142499, Note_on_c, 0, 83, 0
6, 143280, Note_on_c, 0, 88, 52
6, 143459, Note_on_c, 0, 88, 0
6, 143520, Note_on_c, 0, 91, 52
6, 143699, Note_on_c, 0, 91, 0
6, 143760, Note_on_c, 0, 81, 52
6, 143939, Note_on_c, 0, 81, 0
6, 144000, Control_c, 0, 11, 80
6, 144240, Note_on_c, 0, 81, 76
6, 144419, Note_on_c, 0, 81, 0
6, 144480, Note_on_c, 0, 86, 76
6, 144480, Control_c, 0, 11, 80
6, 144659, Note_on_c, 0, 86, 0
6, 144720, Control_c, 0, 11, 82
6, 144720, Note_on_c, 0, 74, 76
6, 144899, Note_on_c, 0, 74, 0
6, 144960, Control_c, 0, 11, 84
6, 145200, Control_c, 0, 11, 86
6, 145200, Note_on_c, 0, 86, 76
6, 145379, Note_on_c, 0, 86, 0
6, 145440, Note_on_c, 0, 87, 76
6, 145440, Control_c, 0, 11, 88
6, 145619, Note_on_c, 0, 87, 0
6, 145680, Control_c, 0, 11, 90
6, 145680, Note_on_c, 0, 83, 76
6, 145859, Note_on_c, 0, 83, 0
6, 145920, Control_c, 0, 11, 92
6, 146160, Control_c, 0, 11, 94
6, 146160, Note_on_c, 0, 87, 76
6, 146339, Note_on_c, 0, 87, 0
6, 146400, Control_c, 0, 11, 96
6, 146400, Note_on_c, 0, 88, 76
6, 146579, Note_on_c, 0, 88, 0
6, 146640, Control_c, 0, 11, 98
6, 146640, Note_on_c, 0, 76, 76
6, 146819, Note_on_c, 0, 76, 0
6, 146880, Control_c, 0, 11, 100
6, 147120, Note_on_c, 0, 83, 76
6, 147120, Control_c, 0, 11, 102
6, 147299, Note_on_c, 0, 83, 0
6, 147360, Control_c, 0, 11, 104
6, 147360, Note_on_c, 0, 86, 76
6, 147539, Note_on_c, 0, 86, 0
6, 147600, Note_on_c, 0, 83, 76
6, 147600, Control_c, 0, 11, 105
6, 147779, Note_on_c, 0, 83, 0
6, 147840, Control_c, 0, 11, 107
6, 148080, Note_on_c, 0, 83, 76
6, 148080, Control_c, 0, 11, 109
6, 148259, Note_on_c, 0, 83, 0
6, 148320, Note_on_c, 0, 81, 76
6, 148320, Control_c, 0, 11, 111
6, 148499, Note_on_c, 0, 81, 0
6, 148560, Control_c, 0, 11, 113
6, 148560, Note_on_c, 0, 85, 76
6, 148739, Note_on_c, 0, 85, 0
6, 148800, Control_c, 0, 11, 115
6, 149040, Note_on_c, 0, 85, 76
6, 149040, Control_c, 0, 11, 117
6, 149219, Note_on_c, 0, 85, 0
6, 149280, Control_c, 0, 11, 119
6, 149280, Note_on_c, 0, 90, 76
6, 149459, Note_on_c, 0, 90, 0
6, 149520, Note_on_c, 0, 78, 76
6, 149520, Control_c, 0, 11, 121
6, 149699, Note_on_c, 0, 78, 0
6, 149760, Control_c, 0, 11, 123
6, 150000, Note_on_c, 0, 90, 76
6, 150000, Control_c, 0, 11, 125
6, 150179, Note_on_c, 0, 90, 0
6, 150240, Control_c, 0, 11, 127
6, 150240, Note_on_c, 0, 89, 76
6, 150479, Note_on_c, 0, 89, 0
6, 154080, Note_on_c, 0, 85, 84
6, 154799, Note_on_c, 0, 85, 0
6, 154800, Note_on_c, 0, 84, 84
6, 155039, Note_on_c, 0, 84, 0
6, 155040, Note_on_c, 0, 85, 84
6, 155279, Note_on_c, 0, 85, 0
6, 155280, Note_on_c, 0, 86, 84
6, 155519, Note_on_c, 0, 86, 0
6, 155520, Note_on_c, 0, 85, 84
6, 155759, Note_on_c, 0, 85, 0
6, 155760, Note_on_c, 0, 83, 84
6, 155969, Note_on_c, 0, 83, 0
6, 156000, Note_on_c, 0, 81, 84
6, 156239, Note_on_c, 0, 81, 0
6, 156240, Note_on_c, 0, 80, 84
6, 156479, Note_on_c, 0, 80, 0
6, 156480, Note_on_c, 0, 78, 84
6, 156719, Note_on_c, 0, 78, 0
6, 156720, Note_on_c, 0, 77, 84
6, 156929, Note_on_c, 0, 77, 0
6, 156960, Note_on_c, 0, 78, 84
6, 157199, Note_on_c, 0, 78, 0
6, 157200, Note_on_c, 0, 86, 84
6, 157439, Note_on_c, 0, 86, 0
6, 157440, Note_on_c, 0, 85, 84
6, 157679, Note_on_c, 0, 85, 0
6, 157680, Note_on_c, 0, 83, 84
6, 157889, Note_on_c, 0, 83, 0
6, 157920, Note_on_c, 0, 81, 84
6, 158159, Note_on_c, 0, 81, 0
6, 158280, Note_on_c, 0, 89, 84
6, 158399, Note_on_c, 0, 89, 0
6, 158400, Note_on_c, 0, 90, 84
6, 158579, Note_on_c, 0, 90, 0
6, 159240, Note_on_c, 0, 89, 84
6, 159359, Note_on_c, 0, 89, 0
6, 159360, Note_on_c, 0, 90, 84
6, 159539, Note_on_c, 0, 90, 0
6, 160200, Note_on_c, 0, 89, 84
6, 160319, Note_on_c, 0, 89, 0
6, 160320, Note_on_c, 0, 90, 84
6, 160499, Note_on_c, 0, 90, 0
6, 161040, Note_on_c, 0, 90, 84
6, 161489, Note_on_c, 0, 90, 0
6, 161520, Note_on_c, 0, 90, 84
6, 161999, Note_on_c, 0, 90, 0
6, 163680, Note_on_c, 0, 81, 84
6, 163919, Note_on_c, 0, 81, 0
6, 164040, Note_on_c, 0, 89, 84
6, 164159, Note_on_c, 0, 89, 0
6, 164160, Note_on_c, 0, 90, 84
6, 164339, Note_on_c, 0, 90, 0
6, 164520, Note_on_c, 0, 81, 84
6, 164639, Note_on_c, 0, 81, 0
6, 164640, Note_on_c, 0, 83, 84
6, 164819, Note_on_c, 0, 83, 0
6, 165000, Note_on_c, 0, 89, 84
6, 165119, Note_on_c, 0, 89, 0
6, 165120, Note_on_c, 0, 90, 84
6, 165299, Note_on_c, 0, 90, 0
6, 165480, Note_on_c, 0, 83, 84
6, 165599, Note_on_c, 0, 83, 0
6, 165600, Note_on_c, 0, 85, 84
6, 165779, Note_on_c, 0, 85, 0
6, 165960, Note_on_c, 0, 89, 84
6, 166079, Note_on_c, 0, 89, 0
6, 166080, Note_on_c, 0, 90, 84
6, 166259, Note_on_c, 0, 90, 0
6, 166440, Note_on_c, 0, 85, 84
6, 166559, Note_on_c, 0, 85, 0
6, 166560, Note_on_c, 0, 86, 84
6, 166739, Note_on_c, 0, 86, 0
6, 166920, Note_on_c, 0, 86, 84
6, 167039, Note_on_c, 0, 86, 0
6, 167040, Note_on_c, 0, 84, 84
6, 167219, Note_on_c, 0, 84, 0
6, 167400, Note_on_c, 0, 84, 84
6, 167519, Note_on_c, 0, 84, 0
6, 167520, Note_on_c, 0, 85, 92
6, 167699, Note_on_c, 0, 85, 0
6, 167880, Note_on_c, 0, 89, 84
6, 167999, Note_on_c, 0, 89, 0
6, 168000, Note_on_c, 0, 90, 84
6, 168179, Note_on_c, 0, 90, 0
6, 168360, Note_on_c, 0, 85, 84
6, 168479, Note_on_c, 0, 85, 0
6, 168480, Note_on_c, 0, 86, 84
6, 168659, Note_on_c, 0, 86, 0
6, 168840, Note_on_c, 0, 86, 84
6, 168959, Note_on_c, 0, 86, 0
6, 168960, Note_on_c, 0, 84, 84
6, 169139, Note_on_c, 0, 84, 0
6, 169320, Note_on_c, 0, 84, 84
6, 169439, Note_on_c, 0, 84, 0
6, 169440, Note_on_c, 0, 85, 84
6, 169619, Note_on_c, 0, 85, 0
6, 169680, Note_on_c, 0, 90, 84
6, 169800, Note_on_c, 0, 85, 84
6, 169919, Note_on_c, 0, 85, 0
6, 169920, Note_on_c, 0, 86, 84
6, 170099, Note_on_c, 0, 86, 0
6, 170129, Note_on_c, 0, 90, 0
6, 170160, Note_on_c, 0, 90, 84
6, 170280, Note_on_c, 0, 84, 84
6, 170399, Note_on_c, 0, 84, 0
6, 170400, Note_on_c, 0, 85, 92
6, 170579, Note_on_c, 0, 85, 0
6, 170609, Note_on_c, 0, 90, 0
6, 170640, Note_on_c, 0, 90, 84
6, 170760, Note_on_c, 0, 85, 84
6, 170879, Note_on_c, 0, 85, 0
6, 170880, Note_on_c, 0, 86, 84
6, 171059, Note_on_c, 0, 86, 0
6, 171089, Note_on_c, 0, 90, 0
6, 171120, Note_on_c, 0, 90, 84
6, 171240, Note_on_c, 0, 84, 84
6, 171359, Note_on_c, 0, 84, 0
6, 171360, Note_on_c, 0, 85, 92
6, 171539, Note_on_c, 0, 85, 0
6, 171569, Note_on_c, 0, 90, 0
6, 171600, Note_on_c, 0, 93, 84
6, 171600, Note_on_c, 0, 90, 84
6, 172049, Note_on_c, 0, 93, 0
6, 172049, Note_on_c, 0, 90, 0
6, 172080, Note_on_c, 0, 93, 84
6, 172080, Note_on_c, 0, 90, 84
6, 172529, Note_on_c, 0, 93, 0
6, 172529, Note_on_c, 0, 90, 0
6, 172560, Note_on_c, 0, 93, 84
6, 172560, Note_on_c, 0, 90, 84
6, 173009, Note_on_c, 0, 93, 0
6, 173009, Note_on_c, 0, 90, 0
6, 173040, Note_on_c, 0, 93, 84
6, 173040, Note_on_c, 0, 90, 84
6, 173519, Note_on_c, 0, 93, 0
6, 173519, Note_on_c, 0, 90, 0
6, 177000, Note_on_c, 0, 90, 76
6, 177119, Note_on_c, 0, 90, 0
6, 177120, Note_on_c, 0, 91, 76
6, 177299, Note_on_c, 0, 91, 0
6, 177480, Note_on_c, 0, 73, 76
6, 177569, Note_on_c, 0, 73, 0
6, 177600, Note_on_c, 0, 73, 84
6, 177659, Note_on_c, 0, 73, 0
6, 177660, Note_on_c, 0, 74, 76
6, 177719, Note_on_c, 0, 74, 0
6, 177720, Note_on_c, 0, 73, 76
6, 177779, Note_on_c, 0, 73, 0
6, 177780, Note_on_c, 0, 74, 76
6, 177839, Note_on_c, 0, 74, 0
6, 177840, Note_on_c, 0, 73, 76
6, 177899, Note_on_c, 0, 73, 0
6, 177900, Note_on_c, 0, 74, 76
6, 177959, Note_on_c, 0, 74, 0
6, 177960, Note_on_c, 0, 71, 76
6, 178019, Note_on_c, 0, 71, 0
6, 178020, Note_on_c, 0, 73, 76
6, 178064, Note_on_c, 0, 73, 0
6, 178080, Note_on_c, 0, 76, 76
6, 178259, Note_on_c, 0, 76, 0
6, 178320, Note_on_c, 0, 69, 76
6, 178499, Note_on_c, 0, 69, 0
6, 181920, Note_on_c, 0, 86, 76
6, 182099, Note_on_c, 0, 86, 0
6, 182160, Note_on_c, 0, 88, 76
6, 182160, Note_on_c, 0, 85, 76
6, 182339, Note_on_c, 0, 88, 0
6, 182339, Note_on_c, 0, 85, 0
6, 182760, Note_on_c, 0, 90, 84
6, 182879, Note_on_c, 0, 90, 0
6, 182880, Note_on_c, 0, 91, 84
6, 183059, Note_on_c, 0, 91, 0
6, 183240, Note_on_c, 0, 73, 84
6, 183329, Note_on_c, 0, 73, 0
6, 183360, Note_on_c, 0, 73, 92
6, 183419, Note_on_c, 0, 73, 0
6, 183420, Note_on_c, 0, 74, 84
6, 183479, Note_on_c, 0, 74, 0
6, 183480, Note_on_c, 0, 73, 84
6, 183539, Note_on_c, 0, 73, 0
6, 183540, Note_on_c, 0, 74, 84
6, 183599, Note_on_c, 0, 74, 0
6, 183600, Note_on_c, 0, 73, 84
6, 183659, Note_on_c, 0, 73, 0
6, 183660, Note_on_c, 0, 74, 84
6, 183719, Note_on_c, 0, 74, 0
6, 183720, Note_on_c, 0, 71, 84
6, 183779, Note_on_c, 0, 71, 0
6, 183780, Note_on_c, 0, 73, 84
6, 183824, Note_on_c, 0, 73, 0
6, 183840, Note_on_c, 0, 76, 84
6, 184019, Note_on_c, 0, 76, 0
6, 184080, Note_on_c, 0, 69, 84
6, 184259, Note_on_c, 0, 69, 0
6, 188040, Note_on_c, 0, 85, 76
6, 188159, Note_on_c, 0, 85, 0
6, 188160, Note_on_c, 0, 86, 76
6, 188339, Note_on_c, 0, 86, 0
6, 189960, Note_on_c, 0, 85, 76
6, 190079, Note_on_c, 0, 85, 0
6, 190080, Note_on_c, 0, 86, 76
6, 190259, Note_on_c, 0, 86, 0
6, 191520, Note_on_c, 0, 86, 84
6, 191639, Note_on_c, 0, 86, 0
6, 191640, Note_on_c, 0, 85, 76
6, 191759, Note_on_c, 0, 85, 0
6, 191760, Note_on_c, 0, 86, 76
6, 191879, Note_on_c, 0, 86, 0
6, 191880, Note_on_c, 0, 85, 76
6, 191969, Note_on_c, 0, 85, 0
6, 192000, Note_on_c, 0, 86, 76
6, 192239, Note_on_c, 0, 86, 0
6, 193440, Note_on_c, 0, 86, 84
6, 193559, Note_on_c, 0, 86, 0
6, 193560, Note_on_c, 0, 85, 76
6, 193679, Note_on_c, 0, 85, 0
6, 193680, Note_on_c, 0, 86, 76
6, 193799, Note_on_c, 0, 86, 0
6, 193800, Note_on_c, 0, 85, 76
6, 193889, Note_on_c, 0, 85, 0
6, 193920, Note_on_c, 0, 86, 76
6, 194129, Note_on_c, 0, 86, 0
6, 194160, Note_on_c, 0, 78, 76
6, 194160, Note_on_c, 0, 86, 76
6, 194339, Note_on_c, 0, 86, 0
6, 194369, Note_on_c, 0, 78, 0
6, 194400, Note_on_c, 0, 86, 76
6, 194400, Note_on_c, 0, 79, 76
6, 194579, Note_on_c, 0, 86, 0
6, 194579, Note_on_c, 0, 79, 0
6, 194640, Note_on_c, 0, 86, 76
6, 194640, Note_on_c, 0, 78, 76
6, 194819, Note_on_c, 0, 86, 0
6, 194819, Note_on_c, 0, 78, 0
6, 194880, Note_on_c, 0, 86, 76
6, 194880, Note_on_c, 0, 79, 76
6, 195059, Note_on_c, 0, 86, 0
6, 195059, Note_on_c, 0, 79, 0
6, 195120, Note_on_c, 0, 86, 76
6, 195120, Note_on_c, 0, 80, 76
6, 195299, Note_on_c, 0, 86, 0
6, 195299, Note_on_c, 0, 80, 0
6, 195360, Note_on_c, 0, 85, 84
6, 195360, Note_on_c, 0, 81, 84
6, 195599, Note_on_c, 0, 85, 0
6, 195599, Note_on_c, 0, 81, 0
6, 197760, Note_on_c, 0, 85, 84
6, 197760, Note_on_c, 0, 81, 84
6, 198239, Note_on_c, 0, 85, 0
6, 198240, Note_on_c, 0, 86, 84
6, 198689, Note_on_c, 0, 86, 0
6, 198719, Note_on_c, 0, 81, 0
6, 198720, Note_on_c, 0, 86, 84
6, 198720, Note_on_c, 0, 80, 84
6, 199169, Note_on_c, 0, 86, 0
6, 199169, Note_on_c, 0, 80, 0
6, 199200, Note_on_c, 0, 85, 84
6, 199200, Note_on_c, 0, 81, 84
6, 199409, Note_on_c, 0, 85, 0
6, 199409, Note_on_c, 0, 81, 0
6, 199440, Note_on_c, 0, 81, 84
6, 199440, Note_on_c, 0, 69, 84
6, 199649, Note_on_c, 0, 81, 0
6, 199649, Note_on_c, 0, 69, 0
6, 199680, Note_on_c, 0, 81, 84
6, 199680, Note_on_c, 0, 69, 84
6, 199889, Note_on_c, 0, 81, 0
6, 199889, Note_on_c, 0, 69, 0
6, 199920, Note_on_c, 0, 81, 84
6, 199920, Note_on_c, 0, 69, 84
6, 200129, Note_on_c, 0, 81, 0
6, 200129, Note_on_c, 0, 69, 0
6, 200160, Note_on_c, 0, 81, 84
6, 200160, Note_on_c, 0, 69, 84
6, 200399, Note_on_c, 0, 81, 0
6, 200399, Note_on_c, 0, 69, 0
6, 212000, Control_c, 0, 11, 117
6, 212160, Note_on_c, 0, 74, 68
6, 212160, Note_on_c, 0, 86, 68
6, 212160, Control_c, 0, 11, 119
6, 212320, Control_c, 0, 11, 122
6, 212480, Control_c, 0, 11, 124
6, 213569, Note_on_c, 0, 74, 0
6, 213569, Note_on_c, 0, 86, 0
6, 213585, Control_c, 0, 11, 96
6, 213600, Note_on_c, 0, 86, 68
6, 213600, Note_on_c, 0, 74, 68
6, 214079, Note_on_c, 0, 86, 0
6, 214079, Note_on_c, 0, 74, 0
6, 214080, Note_on_c, 0, 88, 68
6, 214080, Note_on_c, 0, 76, 68
6, 214319, Note_on_c, 0, 88, 0
6, 214319, Note_on_c, 0, 76, 0
6, 214320, Note_on_c, 0, 90, 68
6, 214320, Note_on_c, 0, 78, 68
6, 214529, Note_on_c, 0, 90, 0
6, 214529, Note_on_c, 0, 78, 0
6, 214560, Note_on_c, 0, 91, 68
6, 214560, Note_on_c, 0, 79, 68
6, 214799, Note_on_c, 0, 91, 0
6, 214799, Note_on_c, 0, 79, 0
6, 215280, Control_c, 0, 11, 80
6, 215520, Note_on_c, 0, 86, 76
6, 215520, Note_on_c, 0, 74, 76
6, 215999, Note_on_c, 0, 86, 0
6, 215999, Note_on_c, 0, 74, 0
6, 216000, Note_on_c, 0, 88, 76
6, 216000, Note_on_c, 0, 76, 76
6, 216239, Note_on_c, 0, 88, 0
6, 216239, Note_on_c, 0, 76, 0
6, 216240, Note_on_c, 0, 90, 76
6, 216240, Note_on_c, 0, 78, 76
6, 216449, Note_on_c, 0, 90, 0
6, 216449, Note_on_c, 0, 78, 0
6, 216480, Note_on_c, 0, 91, 76
6, 216480, Note_on_c, 0, 79, 76
6, 216719, Note_on_c, 0, 91, 0
6, 216719, Note_on_c, 0, 79, 0
6, 217560, Control_c, 0, 11, 104
6, 217680, Note_on_c, 0, 90, 76
6, 217680, Note_on_c, 0, 78, 76
6, 217700, Control_c, 0, 11, 107
6, 217840, Control_c, 0, 11, 111
6, 217919, Note_on_c, 0, 90, 0
6, 217919, Note_on_c, 0, 78, 0
6, 217920, Note_on_c, 0, 88, 76
6, 217920, Note_on_c, 0, 76, 76
6, 217980, Control_c, 0, 11, 115
6, 218120, Control_c, 0, 11, 119
6, 218159, Note_on_c, 0, 88, 0
6, 218159, Note_on_c, 0, 76, 0
6, 218160, Note_on_c, 0, 86, 76
6, 218160, Note_on_c, 0, 74, 76
6, 218260, Control_c, 0, 11, 123
6, 218369, Note_on_c, 0, 86, 0
6, 218369, Note_on_c, 0, 74, 0
6, 218400, Control_c, 0, 11, 127
6, 218400, Note_on_c, 0, 85, 76
6, 218400, Note_on_c, 0, 73, 76
6, 218639, Note_on_c, 0, 85, 0
6, 218639, Note_on_c, 0, 73, 0
6, 219360, Note_on_c, 0, 85, 84
6, 219360, Note_on_c, 0, 81, 84
6, 220319, Note_on_c, 0, 85, 0
6, 220319, Note_on_c, 0, 81, 0
6, 221280, Note_on_c, 0, 86, 84
6, 221280, Note_on_c, 0, 83, 84
6, 222239, Note_on_c, 0, 86, 0
6, 222239, Note_on_c, 0, 83, 0
6, 222720, Note_on_c, 0, 85, 84
6, 222720, Note_on_c, 0, 88, 84
6, 223199, Note_on_c, 0, 85, 0
6, 223199, Note_on_c, 0, 88, 0
6, 223680, Note_on_c, 0, 90, 84
6, 223680, Note_on_c, 0, 86, 84
6, 224129, Note_on_c, 0, 90, 0
6, 224129, Note_on_c, 0, 86, 0
6, 224160, Note_on_c, 0, 85, 76
6, 224160, Note_on_c, 0, 91, 76
6, 224399, Note_on_c, 0, 85, 0
6, 224399, Note_on_c, 0, 91, 0
6, 229200, Note_on_c, 0, 88, 68
6, 229319, Note_on_c, 0, 88, 0
6, 229320, Note_on_c, 0, 86, 52
6, 229439, Note_on_c, 0, 86, 0
6, 229440, Note_on_c, 0, 85, 52
6, 229559, Note_on_c, 0, 85, 0
6, 229560, Note_on_c, 0, 83, 52
6, 229679, Note_on_c, 0, 83, 0
6, 229680, Note_on_c, 0, 81, 52
6, 229799, Note_on_c, 0, 81, 0
6, 229800, Note_on_c, 0, 85, 52
6, 229889, Note_on_c, 0, 85, 0
6, 229920, Note_on_c, 0, 86, 52
6, 230159, Note_on_c, 0, 86, 0
6, 233040, Note_on_c, 0, 88, 68
6, 233159, Note_on_c, 0, 88, 0
6, 233160, Note_on_c, 0, 86, 52
6, 233279, Note_on_c, 0, 86, 0
6, 233280, Note_on_c, 0, 85, 52
6, 233399, Note_on_c, 0, 85, 0
6, 233400, Note_on_c, 0, 83, 52
6, 233519, Note_on_c, 0, 83, 0
6, 233520, Note_on_c, 0, 81, 52
6, 233639, Note_on_c, 0, 81, 0
6, 233640, Note_on_c, 0, 85, 52
6, 233729, Note_on_c, 0, 85, 0
6, 233760, Note_on_c, 0, 86, 52
6, 233999, Note_on_c, 0, 86, 0
6, 244560, Note_on_c, 0, 88, 68
6, 244679, Note_on_c, 0, 88, 0
6, 244680, Note_on_c, 0, 86, 52
6, 244799, Note_on_c, 0, 86, 0
6, 244800, Note_on_c, 0, 85, 52
6, 244919, Note_on_c, 0, 85, 0
6, 244920, Note_on_c, 0, 83, 52
6, 245039, Note_on_c, 0, 83, 0
6, 245040, Note_on_c, 0, 81, 52
6, 245159, Note_on_c, 0, 81, 0
6, 245160, Note_on_c, 0, 85, 52
6, 245249, Note_on_c, 0, 85, 0
6, 245280, Note_on_c, 0, 86, 52
6, 245519, Note_on_c, 0, 86, 0
6, 251760, Control_c, 0, 11, 80
6, 252000, Note_on_c, 0, 81, 76
6, 252960, Control_c, 0, 11, 80
6, 253280, Control_c, 0, 11, 84
6, 253600, Control_c, 0, 11, 88
6, 253889, Note_on_c, 0, 81, 0
6, 253920, Control_c, 0, 11, 92
6, 253920, Note_on_c, 0, 79, 76
6, 254240, Control_c, 0, 11, 96
6, 254399, Note_on_c, 0, 79, 0
6, 254400, Note_on_c, 0, 81, 76
6, 254560, Control_c, 0, 11, 100
6, 254639, Note_on_c, 0, 81, 0
6, 254640, Note_on_c, 0, 82, 76
6, 254849, Note_on_c, 0, 82, 0
6, 254880, Note_on_c, 0, 74, 76
6, 254880, Control_c, 0, 11, 104
6, 255200, Control_c, 0, 11, 107
6, 255520, Control_c, 0, 11, 111
6, 255839, Note_on_c, 0, 74, 0
6, 255840, Control_c, 0, 11, 115
6, 255840, Note_on_c, 0, 73, 76
6, 256160, Control_c, 0, 11, 119
6, 256480, Control_c, 0, 11, 123
6, 256769, Note_on_c, 0, 73, 0
6, 256800, Control_c, 0, 11, 127
6, 256800, Note_on_c, 0, 81, 76
6, 256800, Note_on_c, 0, 86, 76
6, 257729, Note_on_c, 0, 81, 0
6, 257760, Note_on_c, 0, 78, 84
6, 258449, Note_on_c, 0, 78, 0
6, 258480, Note_on_c, 0, 74, 76
6, 258689, Note_on_c, 0, 86, 0
6, 258689, Note_on_c, 0, 74, 0
6, 258720, Note_on_c, 0, 86, 76
6, 258720, Note_on_c, 0, 83, 76
6, 259649, Note_on_c, 0, 83, 0
6, 259680, Note_on_c, 0, 79, 76
6, 260369, Note_on_c, 0, 79, 0
6, 260400, Note_on_c, 0, 76, 76
6, 260609, Note_on_c, 0, 86, 0
6, 260609, Note_on_c, 0, 76, 0
6, 260640, Note_on_c, 0, 86, 84
6, 260640, Note_on_c, 0, 81, 84
6, 261119, Note_on_c, 0, 81, 0
6, 261120, Note_on_c, 0, 78, 76
6, 261359, Note_on_c, 0, 78, 0
6, 261360, Note_on_c, 0, 74, 76
6, 261569, Note_on_c, 0, 86, 0
6, 261569, Note_on_c, 0, 74, 0
6, 261600, Note_on_c, 0, 85, 84
6, 261600, Note_on_c, 0, 81, 84
6, 262079, Note_on_c, 0, 81, 0
6, 262080, Note_on_c, 0, 76, 76
6, 262319, Note_on_c, 0, 76, 0
6, 262320, Note_on_c, 0, 73, 76
6, 262529, Note_on_c, 0, 85, 0
6, 262529, Note_on_c, 0, 73, 0
6, 262560, Note_on_c, 0, 86, 76
6, 262560, Note_on_c, 0, 81, 76
6, 264449, Note_on_c, 0, 86, 0
6, 264449, Note_on_c, 0, 81, 0
6, 264480, Note_on_c, 0, 86, 84
6, 264480, Note_on_c, 0, 83, 84
6, 266369, Note_on_c, 0, 86, 0
6, 266369, Note_on_c, 0, 83, 0
6, 266400, Note_on_c, 0, 86, 84
6, 266400, Note_on_c, 0, 84, 84
6, 270479, Note_on_c, 0, 86, 0
6, 270479, Note_on_c, 0, 84, 0
6, 281640, Note_on_c, 0, 90, 76
6, 281759, Note_on_c, 0, 90, 0
6, 281760, Note_on_c, 0, 91, 76
6, 281939, Note_on_c, 0, 91, 0
6, 282120, Note_on_c, 0, 73, 76
6, 282209, Note_on_c, 0, 73, 0
6, 282240, Note_on_c, 0, 73, 84
6, 282299, Note_on_c, 0, 73, 0
6, 282300, Note_on_c, 0, 74, 76
6, 282359, Note_on_c, 0, 74, 0
6, 282360, Note_on_c, 0, 73, 76
6, 282419, Note_on_c, 0, 73, 0
6, 282420, Note_on_c, 0, 74, 76
6, 282479, Note_on_c, 0, 74, 0
6, 282480, Note_on_c, 0, 73, 76
6, 282539, Note_on_c, 0, 73, 0
6, 282540, Note_on_c, 0, 74, 76
6, 282599, Note_on_c, 0, 74, 0
6, 282600, Note_on_c, 0, 71, 76
6, 282659, Note_on_c, 0, 71, 0
6, 282660, Note_on_c, 0, 73, 76
6, 282704, Note_on_c, 0, 73, 0
6, 282720, Note_on_c, 0, 76, 76
6, 282899, Note_on_c, 0, 76, 0
6, 282960, Note_on_c, 0, 69, 76
6, 283139, Note_on_c, 0, 69, 0
6, 286560, Note_on_c, 0, 86, 76
6, 286739, Note_on_c, 0, 86, 0
6, 286800, Note_on_c, 0, 88, 76
6, 286800, Note_on_c, 0, 85, 76
6, 286979, Note_on_c, 0, 88, 0
6, 286979, Note_on_c, 0, 85, 0
6, 287400, Note_on_c, 0, 90, 76
6, 287519, Note_on_c, 0, 90, 0
6, 287520, Note_on_c, 0, 91, 76
6, 287699, Note_on_c, 0, 91, 0
6, 289320, Note_on_c, 0, 90, 76
6, 289439, Note_on_c, 0, 90, 0
6, 289440, Note_on_c, 0, 91, 76
6, 289619, Note_on_c, 0, 91, 0
6, 291240, Note_on_c, 0, 90, 76
6, 291359, Note_on_c, 0, 90, 0
6, 291360, Note_on_c, 0, 91, 76
6, 291539, Note_on_c, 0, 91, 0
6, 292200, Note_on_c, 0, 90, 76
6, 292319, Note_on_c, 0, 90, 0
6, 292320, Note_on_c, 0, 91, 76
6, 292499, Note_on_c, 0, 91, 0
6, 293160, Note_on_c, 0, 90, 76
6, 293279, Note_on_c, 0, 90, 0
6, 293280, Note_on_c, 0, 91, 76
6, 295649, Note_on_c, 0, 91, 0
6, 295680, Note_on_c, 0, 89, 76
6, 296399, Note_on_c, 0, 89, 0
6, 296400, Note_on_c, 0, 88, 76
6, 296639, Note_on_c, 0, 88, 0
6, 296640, Note_on_c, 0, 86, 76
6, 296879, Note_on_c, 0, 86, 0
6, 296880, Note_on_c, 0, 84, 76
6, 297089, Note_on_c, 0, 84, 0
6, 297120, Note_on_c, 0, 82, 76
6, 297839, Note_on_c, 0, 82, 0
6, 297840, Note_on_c, 0, 81, 76
6, 298079, Note_on_c, 0, 81, 0
6, 298080, Note_on_c, 0, 79, 76
6, 298319, Note_on_c, 0, 79, 0
6, 298320, Note_on_c, 0, 77, 76
6, 298559, Note_on_c, 0, 77, 0
6, 298560, Note_on_c, 0, 76, 76
6, 298799, Note_on_c, 0, 76, 0
6, 298800, Note_on_c, 0, 74, 76
6, 299009, Note_on_c, 0, 74, 0
6, 299040, Note_on_c, 0, 81, 76
6, 299279, Note_on_c, 0, 81, 0
6, 303840, Note_on_c, 0, 86, 84
6, 303840, Note_on_c, 0, 83, 84
6, 304319, Note_on_c, 0, 86, 0
6, 304319, Note_on_c, 0, 83, 0
6, 304320, Note_on_c, 0, 88, 76
6, 304320, Note_on_c, 0, 85, 76
6, 304559, Note_on_c, 0, 88, 0
6, 304559, Note_on_c, 0, 85, 0
6, 304560, Note_on_c, 0, 89, 76
6, 304560, Note_on_c, 0, 86, 76
6, 304769, Note_on_c, 0, 89, 0
6, 304769, Note_on_c, 0, 86, 0
6, 304800, Note_on_c, 0, 88, 76
6, 304800, Note_on_c, 0, 85, 76
6, 305039, Note_on_c, 0, 88, 0
6, 305039, Note_on_c, 0, 85, 0
6, 305760, Note_on_c, 0, 86, 84
6, 305760, Note_on_c, 0, 83, 84
6, 306239, Note_on_c, 0, 86, 0
6, 306239, Note_on_c, 0, 83, 0
6, 306240, Note_on_c, 0, 88, 76
6, 306240, Note_on_c, 0, 85, 76
6, 306479, Note_on_c, 0, 88, 0
6, 306479, Note_on_c, 0, 85, 0
6, 306480, Note_on_c, 0, 86, 76
6, 306480, Note_on_c, 0, 89, 76
6, 306689, Note_on_c, 0, 86, 0
6, 306689, Note_on_c, 0, 89, 0
6, 306720, Note_on_c, 0, 88, 76
6, 306720, Note_on_c, 0, 85, 76
6, 306959, Note_on_c, 0, 88, 0
6, 306959, Note_on_c, 0, 85, 0
6, 307680, Control_c, 0, 11, 80
6, 307760, Control_c, 0, 11, 84
6, 307840, Control_c, 0, 11, 88
6, 307920, Control_c, 0, 11, 92
6, 307920, Note_on_c, 0, 81, 76
6, 308000, Control_c, 0, 11, 96
6, 308080, Control_c, 0, 11, 100
6, 308159, Note_on_c, 0, 81, 0
6, 308160, Note_on_c, 0, 82, 76
6, 308160, Control_c, 0, 11, 104
6, 308240, Control_c, 0, 11, 107
6, 308320, Control_c, 0, 11, 111
6, 308399, Note_on_c, 0, 82, 0
6, 308400, Note_on_c, 0, 81, 76
6, 308400, Control_c, 0, 11, 115
6, 308480, Control_c, 0, 11, 119
6, 308560, Control_c, 0, 11, 123
6, 308609, Note_on_c, 0, 81, 0
6, 308640, Control_c, 0, 11, 127
6, 308640, Note_on_c, 0, 86, 76
6, 308879, Note_on_c, 0, 86, 0
6, 313440, Note_on_c, 0, 85, 76
6, 313440, Note_on_c, 0, 88, 76
6, 313919, Note_on_c, 0, 85, 0
6, 313919, Note_on_c, 0, 88, 0
6, 313920, Note_on_c, 0, 90, 52
6, 313920, Note_on_c, 0, 86, 52
6, 314159, Note_on_c, 0, 90, 0
6, 314159, Note_on_c, 0, 86, 0
6, 314160, Note_on_c, 0, 91, 52
6, 314160, Note_on_c, 0, 88, 52
6, 314369, Note_on_c, 0, 91, 0
6, 314369, Note_on_c, 0, 88, 0
6, 314400, Note_on_c, 0, 90, 52
6, 314400, Note_on_c, 0, 86, 52
6, 314639, Note_on_c, 0, 90, 0
6, 314639, Note_on_c, 0, 86, 0
6, 315360, Note_on_c, 0, 88, 76
6, 315360, Note_on_c, 0, 85, 76
6, 315839, Note_on_c, 0, 88, 0
6, 315839, Note_on_c, 0, 85, 0
6, 315840, Note_on_c, 0, 90, 52
6, 315840, Note_on_c, 0, 86, 52
6, 316079, Note_on_c, 0, 90, 0
6, 316079, Note_on_c, 0, 86, 0
6, 316080, Note_on_c, 0, 88, 52
6, 316080, Note_on_c, 0, 91, 52
6, 316289, Note_on_c, 0, 88, 0
6, 316289, Note_on_c, 0, 91, 0
6, 316320, Note_on_c, 0, 90, 76
6, 316320, Note_on_c, 0, 86, 76
6, 316559, Note_on_c, 0, 90, 0
6, 316559, Note_on_c, 0, 86, 0
6, 316560, Note_on_c, 0, 78, 76
6, 316799, Note_on_c, 0, 78, 0
6, 316800, Note_on_c, 0, 86, 84
6, 316800, Note_on_c, 0, 79, 84
6, 317039, Note_on_c, 0, 79, 0
6, 317040, Note_on_c, 0, 81, 76
6, 317249, Note_on_c, 0, 81, 0
6, 317280, Note_on_c, 0, 83, 84
6, 317489, Note_on_c, 0, 86, 0
6, 317520, Note_on_c, 0, 83, 76
6, 317759, Note_on_c, 0, 83, 0
6, 317759, Note_on_c, 0, 83, 0
6, 317760, Note_on_c, 0, 81, 84
6, 317760, Note_on_c, 0, 88, 84
6, 317999, Note_on_c, 0, 81, 0
6, 318000, Note_on_c, 0, 79, 76
6, 318209, Note_on_c, 0, 79, 0
6, 318240, Note_on_c, 0, 85, 84
6, 318449, Note_on_c, 0, 88, 0
6, 318480, Note_on_c, 0, 85, 76
6, 318719, Note_on_c, 0, 85, 0
6, 318719, Note_on_c, 0, 85, 0
6, 318720, Note_on_c, 0, 83, 84
6, 318720, Note_on_c, 0, 90, 84
6, 318959, Note_on_c, 0, 83, 0
6, 318960, Note_on_c, 0, 81, 76
6, 319169, Note_on_c, 0, 81, 0
6, 319200, Note_on_c, 0, 86, 84
6, 319409, Note_on_c, 0, 90, 0
6, 319440, Note_on_c, 0, 86, 76
6, 319679, Note_on_c, 0, 86, 0
6, 319679, Note_on_c, 0, 86, 0
6, 319680, Note_on_c, 0, 85, 84
6, 319680, Note_on_c, 0, 91, 84
6, 319919, Note_on_c, 0, 85, 0
6, 319920, Note_on_c, 0, 83, 76
6, 320129, Note_on_c, 0, 83, 0
6, 320160, Note_on_c, 0, 88, 84
6, 323999, Note_on_c, 0, 91, 0
6, 323999, Note_on_c, 0, 88, 0
6, 335880, Note_on_c, 0, 82, 44
6, 335999, Note_on_c, 0, 82, 0
6, 336000, Note_on_c, 0, 83, 44
6, 336239, Note_on_c, 0, 83, 0
6, 336360, Note_on_c, 0, 82, 44
6, 336479, Note_on_c, 0, 82, 0
6, 336480, Note_on_c, 0, 83, 44
6, 336719, Note_on_c, 0, 83, 0
6, 336840, Note_on_c, 0, 82, 44
6, 336959, Note_on_c, 0, 82, 0
6, 336960, Note_on_c, 0, 83, 44
6, 337199, Note_on_c, 0, 83, 0
6, 337320, Note_on_c, 0, 82, 44
6, 337439, Note_on_c, 0, 82, 0
6, 337440, Note_on_c, 0, 83, 44
6, 337679, Note_on_c, 0, 83, 0
6, 339720, Note_on_c, 0, 80, 44
6, 339839, Note_on_c, 0, 80, 0
6, 339840, Note_on_c, 0, 81, 44
6, 340079, Note_on_c, 0, 81, 0
6, 340200, Note_on_c, 0, 80, 44
6, 340319, Note_on_c, 0, 80, 0
6, 340320, Note_on_c, 0, 81, 44
6, 340559, Note_on_c, 0, 81, 0
6, 340680, Note_on_c, 0, 80, 44
6, 340799, Note_on_c, 0, 80, 0
6, 340800, Note_on_c, 0, 81, 44
6, 341039, Note_on_c, 0, 81, 0
6, 341160, Note_on_c, 0, 80, 44
6, 341279, Note_on_c, 0, 80, 0
6, 341280, Note_on_c, 0, 81, 44
6, 341519, Note_on_c, 0, 81, 0
6, 345120, Note_on_c, 0, 83, 44
6, 345120, Control_c, 0, 11, 127
6, 345359, Note_on_c, 0, 83, 0
6, 345440, Control_c, 0, 11, 126
6, 345600, Note_on_c, 0, 78, 44
6, 345760, Control_c, 0, 11, 125
6, 346079, Note_on_c, 0, 78, 0
6, 346080, Control_c, 0, 11, 123
6, 346080, Note_on_c, 0, 79, 44
6, 346400, Control_c, 0, 11, 122
6, 346559, Note_on_c, 0, 79, 0
6, 346560, Note_on_c, 0, 81, 44
6, 346720, Control_c, 0, 11, 121
6, 347009, Note_on_c, 0, 81, 0
6, 347040, Note_on_c, 0, 83, 44
6, 347040, Control_c, 0, 11, 120
6, 347360, Control_c, 0, 11, 118
6, 347519, Note_on_c, 0, 83, 0
6, 347520, Note_on_c, 0, 78, 44
6, 347680, Control_c, 0, 11, 117
6, 347999, Note_on_c, 0, 78, 0
6, 348000, Note_on_c, 0, 79, 44
6, 348000, Control_c, 0, 11, 116
6, 348320, Control_c, 0, 11, 115
6, 348479, Note_on_c, 0, 79, 0
6, 348480, Note_on_c, 0, 81, 44
6, 348640, Control_c, 0, 11, 113
6, 348929, Note_on_c, 0, 81, 0
6, 348945, Control_c, 0, 11, 127
6, 348960, Note_on_c, 0, 83, 44
6, 349919, Note_on_c, 0, 83, 0
6, 349920, Note_on_c, 0, 78, 44
6, 350879, Note_on_c, 0, 78, 0
6, 350880, Note_on_c, 0, 79, 44
6, 351839, Note_on_c, 0, 79, 0
6, 351840, Note_on_c, 0, 81, 44
6, 352799, Note_on_c, 0, 81, 0
6, 352800, Note_on_c, 0, 83, 44
6, 353039, Note_on_c, 0, 83, 0
6, 358560, Note_on_c, 0, 89, 84
6, 358560, Note_on_c, 0, 86, 84
6, 360449, Note_on_c, 0, 89, 0
6, 360449, Note_on_c, 0, 86, 0
6, 360480, Note_on_c, 0, 90, 84
6, 360480, Note_on_c, 0, 86, 84
6, 362369, Note_on_c, 0, 90, 0
6, 362369, Note_on_c, 0, 86, 0
6, 362400, Note_on_c, 0, 81, 92
6, 362400, Note_on_c, 0, 93, 92
6, 363569, Note_on_c, 0, 81, 0
6, 363569, Note_on_c, 0, 93, 0
6, 363600, Note_on_c, 0, 91, 84
6, 363600, Note_on_c, 0, 79, 84
6, 363689, Note_on_c, 0, 91, 0
6, 363689, Note_on_c, 0, 79, 0
6, 363720, Note_on_c, 0, 90, 84
6, 363720, Note_on_c, 0, 78, 84
6, 363809, Note_on_c, 0, 90, 0
6, 363809, Note_on_c, 0, 78, 0
6, 363840, Note_on_c, 0, 76, 84
6, 363840, Note_on_c, 0, 88, 84
6, 363929, Note_on_c, 0, 76, 0
6, 363929, Note_on_c, 0, 88, 0
6, 363960, Note_on_c, 0, 86, 84
6, 363960, Note_on_c, 0, 74, 84
6, 364049, Note_on_c, 0, 86, 0
6, 364049, Note_on_c, 0, 74, 0
6, 364080, Note_on_c, 0, 73, 84
6, 364080, Note_on_c, 0, 85, 84
6, 364169, Note_on_c, 0, 73, 0
6, 364169, Note_on_c, 0, 85, 0
6, 364200, Note_on_c, 0, 83, 84
6, 364200, Note_on_c, 0, 71, 84
6, 364289, Note_on_c, 0, 83, 0
6, 364289, Note_on_c, 0, 71, 0
6, 364320, Note_on_c, 0, 81, 84
6, 364320, Note_on_c, 0, 69, 84
6, 364559, Note_on_c, 0, 81, 0
6, 364559, Note_on_c, 0, 69, 0
6, 366240, Note_on_c, 0, 81, 92
6, 366240, Note_on_c, 0, 93, 92
6, 367289, Note_on_c, 0, 81, 0
6, 367289, Note_on_c, 0, 93, 0
6, 367320, Note_on_c, 0, 91, 84
6, 367320, Note_on_c, 0, 79, 84
6, 367409, Note_on_c, 0, 91, 0
6, 367409, Note_on_c, 0, 79, 0
6, 367440, Note_on_c, 0, 90, 84
6, 367440, Note_on_c, 0, 78, 84
6, 367529, Note_on_c, 0, 90, 0
6, 367529, Note_on_c, 0, 78, 0
6, 367560, Note_on_c, 0, 76, 84
6, 367560, Note_on_c, 0, 88, 84
6, 367649, Note_on_c, 0, 76, 0
6, 367649, Note_on_c, 0, 88, 0
6, 367680, Note_on_c, 0, 86, 84
6, 367680, Note_on_c, 0, 74, 84
6, 367769, Note_on_c, 0, 86, 0
6, 367769, Note_on_c, 0, 74, 0
6, 367800, Note_on_c, 0, 73, 84
6, 367800, Note_on_c, 0, 85, 84
6, 367889, Note_on_c, 0, 73, 0
6, 367889, Note_on_c, 0, 85, 0
6, 367920, Note_on_c, 0, 83, 84
6, 367920, Note_on_c, 0, 71, 84
6, 368009, Note_on_c, 0, 83, 0
6, 368009, Note_on_c, 0, 71, 0
6, 368040, Note_on_c, 0, 81, 84
6, 368040, Note_on_c, 0, 69, 84
6, 368129, Note_on_c, 0, 81, 0
6, 368129, Note_on_c, 0, 69, 0
6, 368160, Note_on_c, 0, 74, 84
6, 368160, Note_on_c, 0, 86, 84
6, 368399, Note_on_c, 0, 74, 0
6, 368399, Note_on_c, 0, 86, 0
6, 368880, Control_c, 0, 11, 112
6, 369000, Note_on_c, 0, 78, 84
6, 369119, Note_on_c, 0, 78, 0
6, 369120, Note_on_c, 0, 79, 84
6, 369140, Control_c, 0, 11, 113
6, 369359, Note_on_c, 0, 79, 0
6, 369400, Control_c, 0, 11, 115
6, 369660, Control_c, 0, 11, 116
6, 369920, Control_c, 0, 11, 117
6, 369960, Note_on_c, 0, 80, 84
6, 370079, Note_on_c, 0, 80, 0
6, 370080, Note_on_c, 0, 81, 84
6, 370180, Control_c, 0, 11, 118
6, 370319, Note_on_c, 0, 81, 0
6, 370440, Control_c, 0, 11, 120
6, 370700, Control_c, 0, 11, 121
6, 370920, Note_on_c, 0, 82, 84
6, 370960, Control_c, 0, 11, 122
6, 371039, Note_on_c, 0, 82, 0
6, 371040, Note_on_c, 0, 83, 84
6, 371220, Control_c, 0, 11, 123
6, 371279, Note_on_c, 0, 83, 0
6, 371480, Control_c, 0, 11, 125
6, 371740, Control_c, 0, 11, 126
6, 371880, Note_on_c, 0, 83, 84
6, 371999, Note_on_c, 0, 83, 0
6, 372000, Control_c, 0, 11, 127
6, 372000, Note_on_c, 0, 84, 84
6, 372089, Note_on_c, 0, 84, 0
6, 372120, Note_on_c, 0, 83, 84
6, 372209, Note_on_c, 0, 83, 0
6, 372240, Note_on_c, 0, 81, 84
6, 372329, Note_on_c, 0, 81, 0
6, 372360, Note_on_c, 0, 83, 84
6, 372449, Note_on_c, 0, 83, 0
6, 372480, Note_on_c, 0, 84, 84
6, 372569, Note_on_c, 0, 84, 0
6, 372600, Note_on_c, 0, 83, 84
6, 372689, Note_on_c, 0, 83, 0
6, 372720, Note_on_c, 0, 84, 84
6, 372809, Note_on_c, 0, 84, 0
6, 372840, Note_on_c, 0, 83, 84
6, 372929, Note_on_c, 0, 83, 0
6, 372960, Note_on_c, 0, 84, 84
6, 373049, Note_on_c, 0, 84, 0
6, 373080, Note_on_c, 0, 83, 84
6, 373169, Note_on_c, 0, 83, 0
6, 373200, Note_on_c, 0, 81, 84
6, 373289, Note_on_c, 0, 81, 0
6, 373320, Note_on_c, 0, 83, 84
6, 373409, Note_on_c, 0, 83, 0
6, 373440, Note_on_c, 0, 84, 84
6, 373529, Note_on_c, 0, 84, 0
6, 373560, Note_on_c, 0, 83, 84
6, 373649, Note_on_c, 0, 83, 0
6, 373680, Note_on_c, 0, 84, 84
6, 373769, Note_on_c, 0, 84, 0
6, 373800, Note_on_c, 0, 83, 84
6, 373889, Note_on_c, 0, 83, 0
6, 373920, Note_on_c, 0, 84, 84
6, 374009, Note_on_c, 0, 84, 0
6, 374040, Note_on_c, 0, 83, 84
6, 374129, Note_on_c, 0, 83, 0
6, 374160, Note_on_c, 0, 84, 84
6, 374249, Note_on_c, 0, 84, 0
6, 374280, Note_on_c, 0, 83, 84
6, 374369, Note_on_c, 0, 83, 0
6, 374400, Note_on_c, 0, 84, 84
6, 374489, Note_on_c, 0, 84, 0
6, 374520, Note_on_c, 0, 83, 84
6, 374609, Note_on_c, 0, 83, 0
6, 374640, Note_on_c, 0, 84, 84
6, 374729, Note_on_c, 0, 84, 0
6, 374760, Note_on_c, 0, 83, 84
6, 374849, Note_on_c, 0, 83, 0
6, 374880, Note_on_c, 0, 84, 84
6, 374969, Note_on_c, 0, 84, 0
6, 375000, Note_on_c, 0, 83, 84
6, 375089, Note_on_c, 0, 83, 0
6, 375120, Note_on_c, 0, 81, 84
6, 375209, Note_on_c, 0, 81, 0
6, 375240, Note_on_c, 0, 79, 84
6, 375329, Note_on_c, 0, 79, 0
6, 375360, Note_on_c, 0, 78, 84
6, 375449, Note_on_c, 0, 78, 0
6, 375480, Note_on_c, 0, 76, 84
6, 375569, Note_on_c, 0, 76, 0
6, 375600, Note_on_c, 0, 74, 84
6, 375689, Note_on_c, 0, 74, 0
6, 375720, Note_on_c, 0, 72, 84
6, 375809, Note_on_c, 0, 72, 0
6, 375840, Note_on_c, 0, 71, 84
6, 376079, Note_on_c, 0, 71, 0
6, 376320, Note_on_c, 0, 91, 84
6, 376320, Note_on_c, 0, 86, 84
6, 377249, Note_on_c, 0, 91, 0
6, 377280, Note_on_c, 0, 91, 84
6, 377729, Note_on_c, 0, 86, 0
6, 377729, Note_on_c, 0, 91, 0
6, 377760, Note_on_c, 0, 90, 92
6, 377760, Note_on_c, 0, 86, 92
6, 378689, Note_on_c, 0, 90, 0
6, 378689, Note_on_c, 0, 86, 0
6, 378720, Note_on_c, 0, 88, 92
6, 378720, Note_on_c, 0, 85, 92
6, 379649, Note_on_c, 0, 88, 0
6, 379649, Note_on_c, 0, 85, 0
6, 379680, Note_on_c, 0, 84, 84
6, 379769, Note_on_c, 0, 84, 0
6, 379800, Note_on_c, 0, 83, 84
6, 379889, Note_on_c, 0, 83, 0
6, 379920, Note_on_c, 0, 81, 84
6, 380009, Note_on_c, 0, 81, 0
6, 380040, Note_on_c, 0, 83, 84
6, 380129, Note_on_c, 0, 83, 0
6, 380160, Note_on_c, 0, 84, 84
6, 380249, Note_on_c, 0, 84, 0
6, 380280, Note_on_c, 0, 83, 84
6, 380369, Note_on_c, 0, 83, 0
6, 380400, Note_on_c, 0, 84, 84
6, 380489, Note_on_c, 0, 84, 0
6, 380520, Note_on_c, 0, 83, 84
6, 380609, Note_on_c, 0, 83, 0
6, 380640, Note_on_c, 0, 84, 84
6, 380729, Note_on_c, 0, 84, 0
6, 380760, Note_on_c, 0, 83, 84
6, 380849, Note_on_c, 0, 83, 0
6, 380880, Note_on_c, 0, 81, 84
6, 380969, Note_on_c, 0, 81, 0
6, 381000, Note_on_c, 0, 83, 84
6, 381089, Note_on_c, 0, 83, 0
6, 381120, Note_on_c, 0, 84, 84
6, 381209, Note_on_c, 0, 84, 0
6, 381240, Note_on_c, 0, 83, 84
6, 381329, Note_on_c, 0, 83, 0
6, 381360, Note_on_c, 0, 84, 84
6, 381449, Note_on_c, 0, 84, 0
6, 381480, Note_on_c, 0, 83, 84
6, 381569, Note_on_c, 0, 83, 0
6, 381600, Note_on_c, 0, 84, 84
6, 381689, Note_on_c, 0, 84, 0
6, 381720, Note_on_c, 0, 83, 84
6, 381809, Note_on_c, 0, 83, 0
6, 381840, Note_on_c, 0, 84, 84
6, 381929, Note_on_c, 0, 84, 0
6, 381960, Note_on_c, 0, 83, 84
6, 382049, Note_on_c, 0, 83, 0
6, 382080, Note_on_c, 0, 84, 84
6, 382169, Note_on_c, 0, 84, 0
6, 382200, Note_on_c, 0, 83, 84
6, 382289, Note_on_c, 0, 83, 0
6, 382320, Note_on_c, 0, 84, 84
6, 382409, Note_on_c, 0, 84, 0
6, 382440, Note_on_c, 0, 83, 84
6, 382529, Note_on_c, 0, 83, 0
6, 382560, Note_on_c, 0, 84, 84
6, 382649, Note_on_c, 0, 84, 0
6, 382680, Note_on_c, 0, 83, 84
6, 382769, Note_on_c, 0, 83, 0
6, 382800, Note_on_c, 0, 81, 84
6, 382889, Note_on_c, 0, 81, 0
6, 382920, Note_on_c, 0, 79, 84
6, 383009, Note_on_c, 0, 79, 0
6, 383040, Note_on_c, 0, 78, 84
6, 383129, Note_on_c, 0, 78, 0
6, 383160, Note_on_c, 0, 76, 84
6, 383249, Note_on_c, 0, 76, 0
6, 383280, Note_on_c, 0, 74, 84
6, 383369, Note_on_c, 0, 74, 0
6, 383400, Note_on_c, 0, 72, 84
6, 383489, Note_on_c, 0, 72, 0
6, 383520, Note_on_c, 0, 71, 84
6, 383759, Note_on_c, 0, 71, 0
6, 384000, Note_on_c, 0, 90, 92
6, 384000, Note_on_c, 0, 87, 92
6, 384929, Note_on_c, 0, 90, 0
6, 384929, Note_on_c, 0, 87, 0
6, 384960, Note_on_c, 0, 90, 84
6, 384960, Note_on_c, 0, 87, 84
6, 385409, Note_on_c, 0, 90, 0
6, 385409, Note_on_c, 0, 87, 0
6, 385440, Note_on_c, 0, 91, 84
6, 385440, Note_on_c, 0, 88, 84
6, 386369, Note_on_c, 0, 91, 0
6, 386369, Note_on_c, 0, 88, 0
6, 386400, Note_on_c, 0, 90, 84
6, 386400, Note_on_c, 0, 86, 84
6, 386849, Note_on_c, 0, 90, 0
6, 386849, Note_on_c, 0, 86, 0
6, 386880, Note_on_c, 0, 88, 84
6, 386880, Note_on_c, 0, 85, 84
6, 387329, Note_on_c, 0, 88, 0
6, 387329, Note_on_c, 0, 85, 0
6, 387360, Note_on_c, 0, 86, 84
6, 387599, Note_on_c, 0, 86, 0
6, 387720, Note_on_c, 0, 92, 52
6, 387839, Note_on_c, 0, 92, 0
6, 387840, Note_on_c, 0, 93, 52
6, 388079, Note_on_c, 0, 93, 0
6, 389640, Note_on_c, 0, 92, 52
6, 389759, Note_on_c, 0, 92, 0
6, 389760, Note_on_c, 0, 93, 52
6, 389999, Note_on_c, 0, 93, 0
6, 391560, Note_on_c, 0, 92, 52
6, 391679, Note_on_c, 0, 92, 0
6, 391680, Note_on_c, 0, 93, 52
6, 391919, Note_on_c, 0, 93, 0
6, 393480, Note_on_c, 0, 92, 52
6, 393599, Note_on_c, 0, 92, 0
6, 393600, Note_on_c, 0, 93, 52
6, 393839, Note_on_c, 0, 93, 0
6, 394920, Note_on_c, 0, 92, 76
6, 395039, Note_on_c, 0, 92, 0
6, 395040, Note_on_c, 0, 93, 76
6, 395040, Control_c, 0, 11, 80
6, 395279, Note_on_c, 0, 93, 0
6, 395360, Control_c, 0, 11, 84
6, 395680, Control_c, 0, 11, 88
6, 395880, Note_on_c, 0, 92, 76
6, 395999, Note_on_c, 0, 92, 0
6, 396000, Note_on_c, 0, 93, 76
6, 396000, Control_c, 0, 11, 92
6, 396239, Note_on_c, 0, 93, 0
6, 396320, Control_c, 0, 11, 96
6, 396640, Control_c, 0, 11, 100
6, 396840, Note_on_c, 0, 92, 76
6, 396959, Note_on_c, 0, 92, 0
6, 396960, Note_on_c, 0, 93, 76
6, 396960, Control_c, 0, 11, 104
6, 397199, Note_on_c, 0, 93, 0
6, 397280, Control_c, 0, 11, 107
6, 397600, Control_c, 0, 11, 111
6, 397800, Note_on_c, 0, 92, 76
6, 397919, Note_on_c, 0, 92, 0
6, 397920, Note_on_c, 0, 93, 76
6, 397920, Control_c, 0, 11, 115
6, 398159, Note_on_c, 0, 93, 0
6, 398240, Control_c, 0, 11, 119
6, 398560, Control_c, 0, 11, 123
6, 398880, Control_c, 0, 11, 127
6, 398880, Note_on_c, 0, 78, 76
6, 398880, Note_on_c, 0, 86, 76
6, 399119, Note_on_c, 0, 78, 0
6, 399119, Note_on_c, 0, 86, 0
6, 399360, Note_on_c, 0, 78, 84
6, 400739, Note_on_c, 0, 78, 0
6, 408360, Note_on_c, 0, 85, 84
6, 408479, Note_on_c, 0, 85, 0
6, 408480, Note_on_c, 0, 86, 84
6, 408659, Note_on_c, 0, 86, 0
6, 410280, Note_on_c, 0, 85, 84
6, 410399, Note_on_c, 0, 85, 0
6, 410400, Note_on_c, 0, 86, 84
6, 410579, Note_on_c, 0, 86, 0
6, 412200, Note_on_c, 0, 85, 84
6, 412319, Note_on_c, 0, 85, 0
6, 412320, Note_on_c, 0, 86, 84
6, 412499, Note_on_c, 0, 86, 0
6, 413280, Note_on_c, 0, 86, 84
6, 413519, Note_on_c, 0, 86, 0
6, 414240, Note_on_c, 0, 86, 84
6, 414479, Note_on_c, 0, 86, 0
6, 414960, Note_on_c, 0, 81, 84
6, 415139, Note_on_c, 0, 81, 0
6, 415200, Note_on_c, 0, 86, 84
6, 415379, Note_on_c, 0, 86, 0
6, 415440, Note_on_c, 0, 81, 84
6, 415619, Note_on_c, 0, 81, 0
6, 415680, Note_on_c, 0, 86, 84
6, 415859, Note_on_c, 0, 86, 0
6, 415920, Note_on_c, 0, 81, 84
6, 416099, Note_on_c, 0, 81, 0
6, 416160, Note_on_c, 0, 86, 84
6, 416339, Note_on_c, 0, 86, 0
6, 416400, Note_on_c, 0, 88, 84
6, 416400, Note_on_c, 0, 85, 84
6, 416579, Note_on_c, 0, 88, 0
6, 416579, Note_on_c, 0, 85, 0
6, 416640, Note_on_c, 0, 90, 84
6, 416640, Note_on_c, 0, 86, 84
6, 416819, Note_on_c, 0, 90, 0
6, 416819, Note_on_c, 0, 86, 0
6, 416880, Note_on_c, 0, 88, 84
6, 416880, Note_on_c, 0, 85, 84
6, 417059, Note_on_c, 0, 88, 0
6, 417059, Note_on_c, 0, 85, 0
6, 417120, Note_on_c, 0, 86, 84
6, 417120, Note_on_c, 0, 90, 84
6, 417299, Note_on_c, 0, 86, 0
6, 417299, Note_on_c, 0, 90, 0
6, 417360, Note_on_c, 0, 88, 84
6, 417360, Note_on_c, 0, 85, 84
6, 417539, Note_on_c, 0, 88, 0
6, 417539, Note_on_c, 0, 85, 0
6, 417600, Note_on_c, 0, 90, 84
6, 417600, Note_on_c, 0, 86, 84
6, 417779, Note_on_c, 0, 90, 0
6, 417779, Note_on_c, 0, 86, 0
6, 417840, Note_on_c, 0, 88, 84
6, 417840, Note_on_c, 0, 85, 84
6, 418019, Note_on_c, 0, 88, 0
6, 418019, Note_on_c, 0, 85, 0
6, 418080, Note_on_c, 0, 90, 84
6, 418080, Note_on_c, 0, 86, 84
6, 418259, Note_on_c, 0, 90, 0
6, 418259, Note_on_c, 0, 86, 0
6, 419040, Note_on_c, 0, 86, 84
6, 419219, Note_on_c, 0, 86, 0
6, 419280, Note_on_c, 0, 85, 84
6, 419399, Note_on_c, 0, 85, 0
6, 419400, Note_on_c, 0, 83, 84
6, 419519, Note_on_c, 0, 83, 0
6, 419520, Note_on_c, 0, 81, 84
6, 419639, Note_on_c, 0, 81, 0
6, 419640, Note_on_c, 0, 79, 84
6, 419759, Note_on_c, 0, 79, 0
6, 419760, Note_on_c, 0, 78, 84
6, 419879, Note_on_c, 0, 78, 0
6, 419880, Note_on_c, 0, 76, 84
6, 419969, Note_on_c, 0, 76, 0
6, 420000, Note_on_c, 0, 74, 84
6, 420119, Note_on_c, 0, 74, 0
6, 420120, Note_on_c, 0, 73, 84
6, 420239, Note_on_c, 0, 73, 0
6, 420240, Note_on_c, 0, 74, 84
6, 420359, Note_on_c, 0, 74, 0
6, 420360, Note_on_c, 0, 73, 84
6, 420479, Note_on_c, 0, 73, 0
6, 420480, Note_on_c, 0, 74, 84
6, 420599, Note_on_c, 0, 74, 0
6, 420600, Note_on_c, 0, 73, 84
6, 420719, Note_on_c, 0, 73, 0
6, 420720, Note_on_c, 0, 74, 84
6, 420839, Note_on_c, 0, 74, 0
6, 420840, Note_on_c, 0, 73, 84
6, 420929, Note_on_c, 0, 73, 0
6, 420960, Note_on_c, 0, 74, 84
6, 421079, Note_on_c, 0, 74, 0
6, 421080, Note_on_c, 0, 73, 84
6, 421199, Note_on_c, 0, 73, 0
6, 421200, Note_on_c, 0, 74, 84
6, 421319, Note_on_c, 0, 74, 0
6, 421320, Note_on_c, 0, 73, 84
6, 421439, Note_on_c, 0, 73, 0
6, 421440, Note_on_c, 0, 74, 84
6, 421559, Note_on_c, 0, 74, 0
6, 421560, Note_on_c, 0, 73, 84
6, 421679, Note_on_c, 0, 73, 0
6, 421680, Note_on_c, 0, 74, 84
6, 421799, Note_on_c, 0, 74, 0
6, 421800, Note_on_c, 0, 73, 84
6, 421889, Note_on_c, 0, 73, 0
6, 421920, Note_on_c, 0, 74, 84
6, 422159, Note_on_c, 0, 74, 0
6, 422880, Note_on_c, 0, 86, 84
6, 423119, Note_on_c, 0, 86, 0
6, 423360, Note_on_c, 0, 86, 84
6, 423599, Note_on_c, 0, 86, 0
6, 423840, Note_on_c, 0, 86, 84
6, 424079, Note_on_c, 0, 86, 0
6, 424800, Note_on_c, 0, 86, 84
6, 425039, Note_on_c, 0, 86, 0
6, 425760, Note_on_c, 0, 74, 84
6, 425999, Note_on_c, 0, 74, 0
6, 425999, End_track
7, 0, Start_track
7, 0, Title_t, "Oboe"
7, 0, MIDI_port, 0
7, 0, Program_c, 1, 68
7, 0, Control_c, 1, 7, 80
7, 0, Control_c, 1, 10, 70
7, 0, Control_c, 1, 11, 127
7, 360, Note_on_c, 1, 78, 76
7, 479, Note_on_c, 1, 78, 0
7, 480, Note_on_c, 1, 79, 76
7, 659, Note_on_c, 1, 79, 0
7, 840, Note_on_c, 1, 73, 76
7, 929, Note_on_c, 1, 73, 0
7, 960, Note_on_c, 1, 73, 84
7, 1019, Note_on_c, 1, 73, 0
7, 1020, Note_on_c, 1, 74, 76
7, 1079, Note_on_c, 1, 74, 0
7, 1080, Note_on_c, 1, 73, 76
7, 1139, Note_on_c, 1, 73, 0
7, 1140, Note_on_c, 1, 74, 76
7, 1199, Note_on_c, 1, 74, 0
7, 1200, Note_on_c, 1, 73, 76
7, 1259, Note_on_c, 1, 73, 0
7, 1260, Note_on_c, 1, 74, 76
7, 1319, Note_on_c, 1, 74, 0
7, 1320, Note_on_c, 1, 71, 76
7, 1379, Note_on_c, 1, 71, 0
7, 1380, Note_on_c, 1, 73, 76
7, 1424, Note_on_c, 1, 73, 0
7, 1440, Note_on_c, 1, 76, 76
7, 1619, Note_on_c, 1, 76, 0
7, 1680, Note_on_c, 1, 69, 76
7, 1859, Note_on_c, 1, 69, 0
7, 5280, Note_on_c, 1, 74, 76
7, 5280, Note_on_c, 1, 66, 76
7, 5459, Note_on_c, 1, 74, 0
7, 5459, Note_on_c, 1, 66, 0
7, 5520, Note_on_c, 1, 69, 76
7, 5520, Note_on_c, 1, 76, 76
7, 5699, Note_on_c, 1, 69, 0
7, 5699, Note_on_c, 1, 76, 0
7, 6120, Note_on_c, 1, 78, 84
7, 6239, Note_on_c, 1, 78, 0
7, 6240, Note_on_c, 1, 79, 84
7, 6419, Note_on_c, 1, 79, 0
7, 6600, Note_on_c, 1, 73, 84
7, 6689, Note_on_c, 1, 73, 0
7, 6720, Note_on_c, 1, 73, 92
7, 6779, Note_on_c, 1, 73, 0
7, 6780, Note_on_c, 1, 74, 84
7, 6839, Note_on_c, 1, 74, 0
7, 6840, Note_on_c, 1, 73, 84
7, 6899, Note_on_c, 1, 73, 0
7, 6900, Note_on_c, 1, 74, 84
7, 6959, Note_on_c, 1, 74, 0
7, 6960, Note_on_c, 1, 73, 84
7, 7019, Note_on_c, 1, 73, 0
7, 7020, Note_on_c, 1, 74, 84
7, 7079, Note_on_c, 1, 74, 0
7, 7080, Note_on_c, 1, 71, 84
7, 7139, Note_on_c, 1, 71, 0
7, 7140, Note_on_c, 1, 73, 84
7, 7184, Note_on_c, 1, 73, 0
7, 7200, Note_on_c, 1, 76, 84
7, 7379, Note_on_c, 1, 76, 0
7, 7440, Note_on_c, 1, 69, 84
7, 7619, Note_on_c, 1, 69, 0
7, 11400, Note_on_c, 1, 73, 76
7, 11519, Note_on_c, 1, 73, 0
7, 11520, Note_on_c, 1, 74, 76
7, 11699, Note_on_c, 1, 74, 0
7, 13320, Note_on_c, 1, 73, 76
7, 13439, Note_on_c, 1, 73, 0
7, 13440, Note_on_c, 1, 74, 76
7, 13619, Note_on_c, 1, 74, 0
7, 14880, Note_on_c, 1, 74, 84
7, 14999, Note_on_c, 1, 74, 0
7, 15000, Note_on_c, 1, 73, 76
7, 15119, Note_on_c, 1, 73, 0
7, 15120, Note_on_c, 1, 74, 76
7, 15239, Note_on_c, 1, 74, 0
7, 15240, Note_on_c, 1, 73, 76
7, 15329, Note_on_c, 1, 73, 0
7, 15360, Note_on_c, 1, 74, 76
7, 15539, Note_on_c, 1, 74, 0
7, 16800, Note_on_c, 1, 74, 84
7, 16919, Note_on_c, 1, 74, 0
7, 16920, Note_on_c, 1, 73, 76
7, 17039, Note_on_c, 1, 73, 0
7, 17040, Note_on_c, 1, 74, 76
7, 17159, Note_on_c, 1, 74, 0
7, 17160, Note_on_c, 1, 73, 76
7, 17249, Note_on_c, 1, 73, 0
7, 17280, Note_on_c, 1, 74, 76
7, 17459, Note_on_c, 1, 74, 0
7, 17520, Note_on_c, 1, 78, 76
7, 17520, Note_on_c, 1, 74, 76
7, 17699, Note_on_c, 1, 78, 0
7, 17699, Note_on_c, 1, 74, 0
7, 17760, Note_on_c, 1, 79, 76
7, 17760, Note_on_c, 1, 74, 76
7, 17939, Note_on_c, 1, 79, 0
7, 17939, Note_on_c, 1, 74, 0
7, 18000, Note_on_c, 1, 78, 76
7, 18000, Note_on_c, 1, 74, 76
7, 18179, Note_on_c, 1, 78, 0
7, 18179, Note_on_c, 1, 74, 0
7, 18240, Note_on_c, 1, 74, 76
7, 18240, Note_on_c, 1, 79, 76
7, 18419, Note_on_c, 1, 74, 0
7, 18419, Note_on_c, 1, 79, 0
7, 18480, Note_on_c, 1, 74, 76
7, 18480, Note_on_c, 1, 80, 76
7, 18659, Note_on_c, 1, 74, 0
7, 18659, Note_on_c, 1, 80, 0
7, 18720, Note_on_c, 1, 81, 84
7, 18720, Note_on_c, 1, 73, 84
7, 18959, Note_on_c, 1, 81, 0
7, 18959, Note_on_c, 1, 73, 0
7, 19200, Note_on_c, 1, 76, 84
7, 19200, Note_on_c, 1, 79, 84
7, 19679, Note_on_c, 1, 76, 0
7, 19679, Note_on_c, 1, 79, 0
7, 19680, Note_on_c, 1, 78, 84
7, 19680, Note_on_c, 1, 74, 84
7, 20129, Note_on_c, 1, 74, 0
7, 20159, Note_on_c, 1, 78, 0
7, 20160, Note_on_c, 1, 77, 84
7, 20160, Note_on_c, 1, 74, 84
7, 20609, Note_on_c, 1, 77, 0
7, 20609, Note_on_c, 1, 74, 0
7, 20640, Note_on_c, 1, 76, 84
7, 20640, Note_on_c, 1, 73, 84
7, 21119, Note_on_c, 1, 76, 0
7, 21119, Note_on_c, 1, 73, 0
7, 21120, Note_on_c, 1, 76, 84
7, 21120, Note_on_c, 1, 79, 84
7, 21599, Note_on_c, 1, 76, 0
7, 21599, Note_on_c, 1, 79, 0
7, 21600, Note_on_c, 1, 78, 84
7, 21600, Note_on_c, 1, 74, 84
7, 22049, Note_on_c, 1, 74, 0
7, 22079, Note_on_c, 1, 78, 0
7, 22080, Note_on_c, 1, 77, 84
7, 22080, Note_on_c, 1, 74, 84
7, 22529, Note_on_c, 1, 77, 0
7, 22529, Note_on_c, 1, 74, 0
7, 22560, Note_on_c, 1, 76, 84
7, 22560, Note_on_c, 1, 73, 84
7, 22769, Note_on_c, 1, 76, 0
7, 22769, Note_on_c, 1, 73, 0
7, 22800, Note_on_c, 1, 69, 84
7, 23009, Note_on_c, 1, 69, 0
7, 23040, Note_on_c, 1, 69, 84
7, 23249, Note_on_c, 1, 69, 0
7, 23280, Note_on_c, 1, 69, 84
7, 23489, Note_on_c, 1, 69, 0
7, 23520, Note_on_c, 1, 69, 84
7, 23759, Note_on_c, 1, 69, 0
7, 36000, Note_on_c, 1, 74, 52
7, 36000, Note_on_c, 1, 66, 52
7, 36479, Note_on_c, 1, 74, 0
7, 36479, Note_on_c, 1, 66, 0
7, 36480, Note_on_c, 1, 69, 52
7, 36480, Note_on_c, 1, 76, 52
7, 36719, Note_on_c, 1, 69, 0
7, 36719, Note_on_c, 1, 76, 0
7, 36720, Note_on_c, 1, 74, 52
7, 36720, Note_on_c, 1, 78, 52
7, 36929, Note_on_c, 1, 74, 0
7, 36929, Note_on_c, 1, 78, 0
7, 36960, Note_on_c, 1, 79, 52
7, 36960, Note_on_c, 1, 76, 52
7, 37649, Note_on_c, 1, 79, 0
7, 37649, Note_on_c, 1, 76, 0
7, 37680, Note_on_c, 1, 79, 52
7, 37680, Note_on_c, 1, 76, 52
7, 37889, Note_on_c, 1, 79, 0
7, 37889, Note_on_c, 1, 76, 0
7, 37920, Note_on_c, 1, 76, 52
7, 37920, Note_on_c, 1, 79, 52
7, 38159, Note_on_c, 1, 76, 0
7, 38159, Note_on_c, 1, 79, 0
7, 38160, Note_on_c, 1, 74, 52
7, 38160, Note_on_c, 1, 78, 52
7, 38399, Note_on_c, 1, 74, 0
7, 38399, Note_on_c, 1, 78, 0
7, 38400, Note_on_c, 1, 76, 52
7, 38400, Note_on_c, 1, 69, 52
7, 38639, Note_on_c, 1, 76, 0
7, 38639, Note_on_c, 1, 69, 0
7, 38640, Note_on_c, 1, 74, 52
7, 38640, Note_on_c, 1, 66, 52
7, 38849, Note_on_c, 1, 74, 0
7, 38849, Note_on_c, 1, 66, 0
7, 38880, Note_on_c, 1, 76, 52
7, 38880, Note_on_c, 1, 79, 52
7, 39569, Note_on_c, 1, 76, 0
7, 39569, Note_on_c, 1, 79, 0
7, 39600, Note_on_c, 1, 79, 52
7, 39600, Note_on_c, 1, 76, 52
7, 39809, Note_on_c, 1, 79, 0
7, 39809, Note_on_c, 1, 76, 0
7, 39825, Control_c, 1, 11, 80
7, 39840, Note_on_c, 1, 78, 76
7, 39840, Note_on_c, 1, 74, 76
7, 40000, Control_c, 1, 11, 84
7, 40079, Note_on_c, 1, 74, 0
7, 40160, Control_c, 1, 11, 88
7, 40320, Control_c, 1, 11, 92
7, 40480, Control_c, 1, 11, 96
7, 40559, Note_on_c, 1, 78, 0
7, 40560, Note_on_c, 1, 76, 76
7, 40640, Control_c, 1, 11, 100
7, 40799, Note_on_c, 1, 76, 0
7, 40800, Control_c, 1, 11, 104
7, 40800, Note_on_c, 1, 74, 76
7, 40960, Control_c, 1, 11, 107
7, 41039, Note_on_c, 1, 74, 0
7, 41040, Note_on_c, 1, 73, 76
7, 41120, Control_c, 1, 11, 111
7, 41279, Note_on_c, 1, 73, 0
7, 41280, Note_on_c, 1, 71, 76
7, 41280, Control_c, 1, 11, 115
7, 41440, Control_c, 1, 11, 119
7, 41519, Note_on_c, 1, 71, 0
7, 41520, Note_on_c, 1, 69, 76
7, 41520, Note_on_c, 1, 71, 76
7, 41600, Control_c, 1, 11, 123
7, 41729, Note_on_c, 1, 69, 0
7, 41759, Note_on_c, 1, 71, 0
7, 41760, Control_c, 1, 11, 127
7, 41760, Note_on_c, 1, 71, 76
7, 41760, Note_on_c, 1, 68, 76
7, 41999, Note_on_c, 1, 71, 0
7, 41999, Note_on_c, 1, 68, 0
7, 42720, Note_on_c, 1, 76, 84
7, 42720, Note_on_c, 1, 71, 84
7, 43679, Note_on_c, 1, 76, 0
7, 43679, Note_on_c, 1, 71, 0
7, 44640, Note_on_c, 1, 72, 84
7, 44640, Note_on_c, 1, 78, 84
7, 45599, Note_on_c, 1, 72, 0
7, 45599, Note_on_c, 1, 78, 0
7, 46080, Note_on_c, 1, 71, 84
7, 46080, Note_on_c, 1, 80, 84
7, 46559, Note_on_c, 1, 71, 0
7, 46559, Note_on_c, 1, 80, 0
7, 47040, Note_on_c, 1, 81, 84
7, 47040, Note_on_c, 1, 73, 84
7, 47489, Note_on_c, 1, 81, 0
7, 47489, Note_on_c, 1, 73, 0
7, 47520, Note_on_c, 1, 74, 76
7, 47520, Note_on_c, 1, 83, 76
7, 47759, Note_on_c, 1, 74, 0
7, 47759, Note_on_c, 1, 83, 0
7, 51360, Note_on_c, 1, 76, 52
7, 52319, Note_on_c, 1, 76, 0
7, 52320, Note_on_c, 1, 74, 52
7, 52799, Note_on_c, 1, 74, 0
7, 52800, Note_on_c, 1, 71, 52
7, 53249, Note_on_c, 1, 71, 0
7, 53280, Note_on_c, 1, 73, 52
7, 53519, Note_on_c, 1, 73, 0
7, 54960, Control_c, 1, 11, 96
7, 55200, Note_on_c, 1, 76, 68
7, 56159, Note_on_c, 1, 76, 0
7, 56160, Note_on_c, 1, 74, 68
7, 56639, Note_on_c, 1, 74, 0
7, 56640, Note_on_c, 1, 71, 68
7, 56879, Note_on_c, 1, 71, 0
7, 56880, Note_on_c, 1, 76, 68
7, 57089, Note_on_c, 1, 76, 0
7, 57120, Note_on_c, 1, 76, 68
7, 57120, Control_c, 1, 11, 96
7, 57360, Control_c, 1, 11, 99
7, 57600, Control_c, 1, 11, 101
7, 57840, Control_c, 1, 11, 104
7, 58079, Note_on_c, 1, 76, 0
7, 58080, Control_c, 1, 11, 106
7, 58080, Note_on_c, 1, 78, 68
7, 58320, Control_c, 1, 11, 109
7, 58560, Control_c, 1, 11, 112
7, 58800, Control_c, 1, 11, 114
7, 59040, Control_c, 1, 11, 117
7, 59280, Control_c, 1, 11, 119
7, 59520, Control_c, 1, 11, 122
7, 59760, Control_c, 1, 11, 124
7, 59969, Note_on_c, 1, 78, 0
7, 60000, Note_on_c, 1, 81, 76
7, 60000, Control_c, 1, 11, 127
7, 60160, Control_c, 1, 11, 123
7, 60320, Control_c, 1, 11, 119
7, 60480, Control_c, 1, 11, 115
7, 60640, Control_c, 1, 11, 111
7, 60800, Control_c, 1, 11, 107
7, 60960, Control_c, 1, 11, 104
7, 61120, Control_c, 1, 11, 100
7, 61280, Control_c, 1, 11, 96
7, 61440, Control_c, 1, 11, 92
7, 61600, Control_c, 1, 11, 88
7, 61760, Control_c, 1, 11, 84
7, 61889, Note_on_c, 1, 81, 0
7, 61920, Note_on_c, 1, 81, 76
7, 61920, Control_c, 1, 11, 80
7, 62399, Note_on_c, 1, 81, 0
7, 62400, Note_on_c, 1, 78, 76
7, 62759, Note_on_c, 1, 78, 0
7, 62760, Note_on_c, 1, 74, 76
7, 62849, Note_on_c, 1, 74, 0
7, 62880, Note_on_c, 1, 73, 76
7, 62880, Control_c, 1, 11, 80
7, 62960, Control_c, 1, 11, 84
7, 63040, Control_c, 1, 11, 88
7, 63120, Control_c, 1, 11, 92
7, 63200, Control_c, 1, 11, 96
7, 63280, Control_c, 1, 11, 100
7, 63359, Note_on_c, 1, 73, 0
7, 63360, Control_c, 1, 11, 104
7, 63360, Note_on_c, 1, 76, 84
7, 63440, Control_c, 1, 11, 107
7, 63520, Control_c, 1, 11, 111
7, 63600, Control_c, 1, 11, 115
7, 63680, Control_c, 1, 11, 119
7, 63760, Control_c, 1, 11, 123
7, 63840, Control_c, 1, 11, 127
7, 63920, Control_c, 1, 11, 123
7, 64000, Control_c, 1, 11, 119
7, 64080, Control_c, 1, 11, 115
7, 64160, Control_c, 1, 11, 111
7, 64240, Control_c, 1, 11, 107
7, 64319, Note_on_c, 1, 76, 0
7, 64320, Control_c, 1, 11, 104
7, 64320, Note_on_c, 1, 74, 76
7, 64400, Control_c, 1, 11, 100
7, 64480, Control_c, 1, 11, 96
7, 64560, Control_c, 1, 11, 92
7, 64640, Control_c, 1, 11, 88
7, 64679, Note_on_c, 1, 74, 0
7, 64680, Note_on_c, 1, 71, 76
7, 64720, Control_c, 1, 11, 84
7, 64769, Note_on_c, 1, 71, 0
7, 64800, Note_on_c, 1, 69, 76
7, 64800, Control_c, 1, 11, 80
7, 65039, Note_on_c, 1, 69, 0
7, 66480, Control_c, 1, 11, 127
7, 66720, Note_on_c, 1, 76, 52
7, 67679, Note_on_c, 1, 76, 0
7, 67680, Note_on_c, 1, 74, 52
7, 68159, Note_on_c, 1, 74, 0
7, 68160, Note_on_c, 1, 71, 52
7, 68609, Note_on_c, 1, 71, 0
7, 68640, Note_on_c, 1, 72, 52
7, 68879, Note_on_c, 1, 72, 0
7, 71520, Note_on_c, 1, 79, 84
7, 72480, Control_c, 1, 11, 127
7, 72560, Control_c, 1, 11, 123
7, 72640, Control_c, 1, 11, 119
7, 72720, Control_c, 1, 11, 115
7, 72800, Control_c, 1, 11, 111
7, 72880, Control_c, 1, 11, 107
7, 72960, Control_c, 1, 11, 104
7, 73040, Control_c, 1, 11, 100
7, 73120, Control_c, 1, 11, 96
7, 73200, Control_c, 1, 11, 92
7, 73280, Control_c, 1, 11, 88
7, 73360, Control_c, 1, 11, 84
7, 73409, Note_on_c, 1, 79, 0
7, 73440, Note_on_c, 1, 77, 76
7, 73440, Control_c, 1, 11, 80
7, 73919, Note_on_c, 1, 77, 0
7, 73920, Note_on_c, 1, 79, 76
7, 74159, Note_on_c, 1, 79, 0
7, 74160, Note_on_c, 1, 81, 76
7, 74369, Note_on_c, 1, 81, 0
7, 74400, Note_on_c, 1, 72, 76
7, 75359, Note_on_c, 1, 72, 0
7, 75360, Note_on_c, 1, 71, 76
7, 76289, Note_on_c, 1, 71, 0
7, 76320, Note_on_c, 1, 76, 76
7, 76320, Control_c, 1, 11, 80
7, 76640, Control_c, 1, 11, 84
7, 76960, Control_c, 1, 11, 88
7, 77279, Note_on_c, 1, 76, 0
7, 77280, Control_c, 1, 11, 92
7, 77280, Note_on_c, 1, 74, 76
7, 77600, Control_c, 1, 11, 96
7, 77759, Note_on_c, 1, 74, 0
7, 77760, Note_on_c, 1, 76, 76
7, 77920, Control_c, 1, 11, 100
7, 77999, Note_on_c, 1, 76, 0
7, 78000, Note_on_c, 1, 77, 76
7, 78209, Note_on_c, 1, 77, 0
7, 78240, Note_on_c, 1, 69, 76
7, 78240, Control_c, 1, 11, 104
7, 78560, Control_c, 1, 11, 107
7, 78880, Control_c, 1, 11, 111
7, 79199, Note_on_c, 1, 69, 0
7, 79200, Control_c, 1, 11, 115
7, 79200, Note_on_c, 1, 68, 76
7, 79520, Control_c, 1, 11, 119
7, 79840, Control_c, 1, 11, 123
7, 80129, Note_on_c, 1, 68, 0
7, 80160, Note_on_c, 1, 76, 76
7, 80160, Control_c, 1, 11, 127
7, 81089, Note_on_c, 1, 76, 0
7, 81120, Note_on_c, 1, 73, 76
7, 81809, Note_on_c, 1, 73, 0
7, 81840, Note_on_c, 1, 69, 76
7, 82049, Note_on_c, 1, 69, 0
7, 82080, Note_on_c, 1, 78, 84
7, 83009, Note_on_c, 1, 78, 0
7, 83040, Note_on_c, 1, 74, 76
7, 83729, Note_on_c, 1, 74, 0
7, 83760, Note_on_c, 1, 71, 76
7, 83969, Note_on_c, 1, 71, 0
7, 84000, Note_on_c, 1, 76, 84
7, 84000, Note_on_c, 1, 73, 84
7, 84929, Note_on_c, 1, 76, 0
7, 84929, Note_on_c, 1, 73, 0
7, 84960, Note_on_c, 1, 76, 84
7, 84960, Note_on_c, 1, 71, 84
7, 85889, Note_on_c, 1, 76, 0
7, 85889, Note_on_c, 1, 71, 0
7, 85920, Note_on_c, 1, 76, 76
7, 86849, Note_on_c, 1, 76, 0
7, 86880, Note_on_c, 1, 73, 84
7, 87569, Note_on_c, 1, 73, 0
7, 87600, Note_on_c, 1, 69, 76
7, 87809, Note_on_c, 1, 69, 0
7, 87840, Note_on_c, 1, 78, 76
7, 88769, Note_on_c, 1, 78, 0
7, 88800, Note_on_c, 1, 74, 84
7, 89489, Note_on_c, 1, 74, 0
7, 89520, Note_on_c, 1, 69, 76
7, 89729, Note_on_c, 1, 69, 0
7, 89760, Note_on_c, 1, 69, 84
7, 89760, Note_on_c, 1, 79, 84
7, 90689, Note_on_c, 1, 69, 0
7, 90689, Note_on_c, 1, 79, 0
7, 90720, Note_on_c, 1, 64, 84
7, 90899, Note_on_c, 1, 64, 0
7, 90960, Note_on_c, 1, 67, 84
7, 91139, Note_on_c, 1, 67, 0
7, 91200, Note_on_c, 1, 73, 84
7, 91379, Note_on_c, 1, 73, 0
7, 91440, Note_on_c, 1, 76, 84
7, 91619, Note_on_c, 1, 76, 0
7, 91680, Note_on_c, 1, 79, 84
7, 91859, Note_on_c, 1, 79, 0
7, 91920, Note_on_c, 1, 76, 84
7, 92099, Note_on_c, 1, 76, 0
7, 92160, Note_on_c, 1, 73, 84
7, 92339, Note_on_c, 1, 73, 0
7, 92400, Note_on_c, 1, 67, 84
7, 92579, Note_on_c, 1, 67, 0
7, 92640, Note_on_c, 1, 64, 84
7, 92819, Note_on_c, 1, 64, 0
7, 92880, Note_on_c, 1, 67, 84
7, 93059, Note_on_c, 1, 67, 0
7, 93120, Note_on_c, 1, 73, 84
7, 93299, Note_on_c, 1, 73, 0
7, 93360, Note_on_c, 1, 76, 84
7, 93539, Note_on_c, 1, 76, 0
7, 93600, Note_on_c, 1, 79, 84
7, 93779, Note_on_c, 1, 79, 0
7, 103080, Note_on_c, 1, 78, 76
7, 103199, Note_on_c, 1, 78, 0
7, 103200, Note_on_c, 1, 79, 76
7, 103379, Note_on_c, 1, 79, 0
7, 103560, Note_on_c, 1, 73, 76
7, 103649, Note_on_c, 1, 73, 0
7, 103680, Note_on_c, 1, 73, 84
7, 103739, Note_on_c, 1, 73, 0
7, 103740, Note_on_c, 1, 74, 76
7, 103799, Note_on_c, 1, 74, 0
7, 103800, Note_on_c, 1, 73, 76
7, 103859, Note_on_c, 1, 73, 0
7, 103860, Note_on_c, 1, 74, 76
7, 103919, Note_on_c, 1, 74, 0
7, 103920, Note_on_c, 1, 73, 76
7, 103979, Note_on_c, 1, 73, 0
7, 103980, Note_on_c, 1, 74, 76
7, 104039, Note_on_c, 1, 74, 0
7, 104040, Note_on_c, 1, 71, 76
7, 104099, Note_on_c, 1, 71, 0
7, 104100, Note_on_c, 1, 73, 76
7, 104144, Note_on_c, 1, 73, 0
7, 104160, Note_on_c, 1, 76, 76
7, 104339, Note_on_c, 1, 76, 0
7, 104400, Note_on_c, 1, 69, 76
7, 104579, Note_on_c, 1, 69, 0
7, 108000, Note_on_c, 1, 74, 76
7, 108000, Note_on_c, 1, 66, 76
7, 108179, Note_on_c, 1, 74, 0
7, 108179, Note_on_c, 1, 66, 0
7, 108240, Note_on_c, 1, 69, 76
7, 108240, Note_on_c, 1, 76, 76
7, 108419, Note_on_c, 1, 69, 0
7, 108419, Note_on_c, 1, 76, 0
7, 108840, Note_on_c, 1, 78, 84
7, 108959, Note_on_c, 1, 78, 0
7, 108960, Note_on_c, 1, 79, 84
7, 109139, Note_on_c, 1, 79, 0
7, 109320, Note_on_c, 1, 73, 84
7, 109409, Note_on_c, 1, 73, 0
7, 109440, Note_on_c, 1, 73, 92
7, 109499, Note_on_c, 1, 73, 0
7, 109500, Note_on_c, 1, 74, 84
7, 109559, Note_on_c, 1, 74, 0
7, 109560, Note_on_c, 1, 73, 84
7, 109619, Note_on_c, 1, 73, 0
7, 109620, Note_on_c, 1, 74, 84
7, 109679, Note_on_c, 1, 74, 0
7, 109680, Note_on_c, 1, 73, 84
7, 109739, Note_on_c, 1, 73, 0
7, 109740, Note_on_c, 1, 74, 84
7, 109799, Note_on_c, 1, 74, 0
7, 109800, Note_on_c, 1, 71, 84
7, 109859, Note_on_c, 1, 71, 0
7, 109860, Note_on_c, 1, 73, 84
7, 109904, Note_on_c, 1, 73, 0
7, 109920, Note_on_c, 1, 76, 84
7, 110099, Note_on_c, 1, 76, 0
7, 110160, Note_on_c, 1, 69, 84
7, 110339, Note_on_c, 1, 69, 0
7, 115200, Note_on_c, 1, 74, 84
7, 115200, Note_on_c, 1, 77, 84
7, 115679, Note_on_c, 1, 74, 0
7, 115679, Note_on_c, 1, 77, 0
7, 115680, Note_on_c, 1, 73, 76
7, 115680, Note_on_c, 1, 79, 76
7, 115919, Note_on_c, 1, 73, 0
7, 115919, Note_on_c, 1, 79, 0
7, 117120, Note_on_c, 1, 73, 84
7, 117120, Note_on_c, 1, 79, 84
7, 117599, Note_on_c, 1, 73, 0
7, 117599, Note_on_c, 1, 79, 0
7, 117600, Note_on_c, 1, 77, 76
7, 117600, Note_on_c, 1, 74, 76
7, 117839, Note_on_c, 1, 77, 0
7, 117839, Note_on_c, 1, 74, 0
7, 119040, Note_on_c, 1, 77, 76
7, 119040, Note_on_c, 1, 74, 76
7, 119219, Note_on_c, 1, 77, 0
7, 119219, Note_on_c, 1, 74, 0
7, 119280, Note_on_c, 1, 77, 76
7, 119280, Note_on_c, 1, 74, 76
7, 119459, Note_on_c, 1, 77, 0
7, 119459, Note_on_c, 1, 74, 0
7, 120960, Note_on_c, 1, 79, 76
7, 120960, Note_on_c, 1, 73, 76
7, 121139, Note_on_c, 1, 79, 0
7, 121139, Note_on_c, 1, 73, 0
7, 121200, Note_on_c, 1, 73, 76
7, 121200, Note_on_c, 1, 79, 76
7, 121379, Note_on_c, 1, 73, 0
7, 121379, Note_on_c, 1, 79, 0
7, 121920, Note_on_c, 1, 77, 76
7, 121920, Note_on_c, 1, 74, 76
7, 122099, Note_on_c, 1, 77, 0
7, 122099, Note_on_c, 1, 74, 0
7, 122160, Note_on_c, 1, 77, 76
7, 122160, Note_on_c, 1, 74, 76
7, 122339, Note_on_c, 1, 77, 0
7, 122339, Note_on_c, 1, 74, 0
7, 122880, Note_on_c, 1, 73, 76
7, 122880, Note_on_c, 1, 79, 76
7, 123059, Note_on_c, 1, 73, 0
7, 123059, Note_on_c, 1, 79, 0
7, 123120, Note_on_c, 1, 79, 76
7, 123120, Note_on_c, 1, 73, 76
7, 123299, Note_on_c, 1, 79, 0
7, 123299, Note_on_c, 1, 73, 0
7, 123840, Note_on_c, 1, 77, 76
7, 123840, Note_on_c, 1, 74, 76
7, 124019, Note_on_c, 1, 77, 0
7, 124019, Note_on_c, 1, 74, 0
7, 124080, Note_on_c, 1, 74, 76
7, 124080, Note_on_c, 1, 77, 76
7, 124259, Note_on_c, 1, 74, 0
7, 124259, Note_on_c, 1, 77, 0
7, 124800, Note_on_c, 1, 79, 76
7, 124800, Note_on_c, 1, 73, 76
7, 124979, Note_on_c, 1, 79, 0
7, 124979, Note_on_c, 1, 73, 0
7, 125040, Note_on_c, 1, 73, 76
7, 125040, Note_on_c, 1, 79, 76
7, 125219, Note_on_c, 1, 73, 0
7, 125219, Note_on_c, 1, 79, 0
7, 125280, Note_on_c, 1, 74, 76
7, 125280, Note_on_c, 1, 77, 76
7, 125519, Note_on_c, 1, 74, 0
7, 125519, Note_on_c, 1, 77, 0
7, 127200, Note_on_c, 1, 79, 76
7, 127320, Control_c, 1, 11, 80
7, 127679, Note_on_c, 1, 79, 0
7, 127680, Note_on_c, 1, 77, 76
7, 128159, Note_on_c, 1, 77, 0
7, 128160, Note_on_c, 1, 75, 76
7, 128639, Note_on_c, 1, 75, 0
7, 128640, Note_on_c, 1, 71, 76
7, 129089, Note_on_c, 1, 71, 0
7, 129120, Note_on_c, 1, 72, 76
7, 129359, Note_on_c, 1, 72, 0
7, 130800, Control_c, 1, 11, 127
7, 131040, Note_on_c, 1, 77, 76
7, 131160, Control_c, 1, 11, 80
7, 131519, Note_on_c, 1, 77, 0
7, 131520, Note_on_c, 1, 75, 76
7, 131999, Note_on_c, 1, 75, 0
7, 132000, Note_on_c, 1, 74, 76
7, 132479, Note_on_c, 1, 74, 0
7, 132480, Note_on_c, 1, 69, 76
7, 132929, Note_on_c, 1, 69, 0
7, 132945, Control_c, 1, 11, 127
7, 132960, Note_on_c, 1, 70, 76
7, 133199, Note_on_c, 1, 70, 0
7, 133920, Note_on_c, 1, 70, 76
7, 134099, Note_on_c, 1, 70, 0
7, 134160, Note_on_c, 1, 74, 76
7, 134339, Note_on_c, 1, 74, 0
7, 134400, Note_on_c, 1, 77, 76
7, 134579, Note_on_c, 1, 77, 0
7, 134640, Note_on_c, 1, 70, 76
7, 134819, Note_on_c, 1, 70, 0
7, 135840, Note_on_c, 1, 69, 76
7, 136019, Note_on_c, 1, 69, 0
7, 136080, Note_on_c, 1, 74, 76
7, 136259, Note_on_c, 1, 74, 0
7, 136320, Note_on_c, 1, 77, 76
7, 136499, Note_on_c, 1, 77, 0
7, 136560, Note_on_c, 1, 69, 76
7, 136739, Note_on_c, 1, 69, 0
7, 137040, Note_on_c, 1, 74, 52
7, 137219, Note_on_c, 1, 74, 0
7, 137280, Note_on_c, 1, 77, 52
7, 137459, Note_on_c, 1, 77, 0
7, 137520, Note_on_c, 1, 68, 52
7, 137699, Note_on_c, 1, 68, 0
7, 138000, Note_on_c, 1, 74, 52
7, 138179, Note_on_c, 1, 74, 0
7, 138240, Note_on_c, 1, 77, 52
7, 138419, Note_on_c, 1, 77, 0
7, 138480, Note_on_c, 1, 67, 52
7, 138659, Note_on_c, 1, 67, 0
7, 139680, Note_on_c, 1, 72, 76
7, 139859, Note_on_c, 1, 72, 0
7, 139920, Note_on_c, 1, 76, 76
7, 140099, Note_on_c, 1, 76, 0
7, 140160, Note_on_c, 1, 79, 76
7, 140339, Note_on_c, 1, 79, 0
7, 140400, Note_on_c, 1, 72, 76
7, 140579, Note_on_c, 1, 72, 0
7, 141600, Note_on_c, 1, 71, 76
7, 141779, Note_on_c, 1, 71, 0
7, 141840, Note_on_c, 1, 76, 76
7, 142019, Note_on_c, 1, 76, 0
7, 142080, Note_on_c, 1, 79, 76
7, 142259, Note_on_c, 1, 79, 0
7, 142320, Note_on_c, 1, 71, 76
7, 142499, Note_on_c, 1, 71, 0
7, 142800, Note_on_c, 1, 76, 52
7, 142979, Note_on_c, 1, 76, 0
7, 143040, Note_on_c, 1, 79, 52
7, 143219, Note_on_c, 1, 79, 0
7, 143280, Note_on_c, 1, 70, 52
7, 143459, Note_on_c, 1, 70, 0
7, 143760, Note_on_c, 1, 76, 52
7, 143939, Note_on_c, 1, 76, 0
7, 144000, Note_on_c, 1, 79, 52
7, 144179, Note_on_c, 1, 79, 0
7, 144240, Note_on_c, 1, 69, 52
7, 144419, Note_on_c, 1, 69, 0
7, 144480, Control_c, 1, 11, 80
7, 144720, Note_on_c, 1, 74, 76
7, 144720, Control_c, 1, 11, 82
7, 144899, Note_on_c, 1, 74, 0
7, 144960, Control_c, 1, 11, 84
7, 144960, Note_on_c, 1, 77, 76
7, 145139, Note_on_c, 1, 77, 0
7, 145200, Control_c, 1, 11, 86
7, 145200, Note_on_c, 1, 69, 76
7, 145379, Note_on_c, 1, 69, 0
7, 145440, Control_c, 1, 11, 88
7, 145680, Note_on_c, 1, 75, 76
7, 145680, Control_c, 1, 11, 90
7, 145859, Note_on_c, 1, 75, 0
7, 145920, Note_on_c, 1, 78, 76
7, 145920, Control_c, 1, 11, 92
7, 146099, Note_on_c, 1, 78, 0
7, 146160, Control_c, 1, 11, 94
7, 146160, Note_on_c, 1, 71, 76
7, 146339, Note_on_c, 1, 71, 0
7, 146400, Control_c, 1, 11, 96
7, 146640, Note_on_c, 1, 76, 76
7, 146640, Control_c, 1, 11, 98
7, 146819, Note_on_c, 1, 76, 0
7, 146880, Control_c, 1, 11, 100
7, 146880, Note_on_c, 1, 79, 76
7, 147059, Note_on_c, 1, 79, 0
7, 147120, Control_c, 1, 11, 102
7, 147120, Note_on_c, 1, 71, 76
7, 147299, Note_on_c, 1, 71, 0
7, 147360, Control_c, 1, 11, 104
7, 147600, Note_on_c, 1, 71, 76
7, 147600, Control_c, 1, 11, 105
7, 147779, Note_on_c, 1, 71, 0
7, 147840, Control_c, 1, 11, 107
7, 147840, Note_on_c, 1, 73, 76
7, 148019, Note_on_c, 1, 73, 0
7, 148080, Control_c, 1, 11, 109
7, 148080, Note_on_c, 1, 71, 76
7, 148259, Note_on_c, 1, 71, 0
7, 148320, Control_c, 1, 11, 111
7, 148560, Control_c, 1, 11, 113
7, 148560, Note_on_c, 1, 69, 76
7, 148739, Note_on_c, 1, 69, 0
7, 148800, Note_on_c, 1, 73, 76
7, 148800, Control_c, 1, 11, 115
7, 148979, Note_on_c, 1, 73, 0
7, 149040, Note_on_c, 1, 69, 76
7, 149040, Control_c, 1, 11, 117
7, 149219, Note_on_c, 1, 69, 0
7, 149280, Control_c, 1, 11, 119
7, 149520, Control_c, 1, 11, 121
7, 149520, Note_on_c, 1, 66, 76
7, 149699, Note_on_c, 1, 66, 0
7, 149760, Note_on_c, 1, 78, 76
7, 149760, Control_c, 1, 11, 123
7, 149939, Note_on_c, 1, 78, 0
7, 150000, Note_on_c, 1, 78, 76
7, 150000, Control_c, 1, 11, 127
7, 150179, Note_on_c, 1, 78, 0
7, 150240, Note_on_c, 1, 77, 76
7, 150479, Note_on_c, 1, 77, 0
7, 154080, Note_on_c, 1, 73, 84
7, 154799, Note_on_c, 1, 73, 0
7, 154800, Note_on_c, 1, 72, 84
7, 155039, Note_on_c, 1, 72, 0
7, 155040, Note_on_c, 1, 73, 84
7, 155279, Note_on_c, 1, 73, 0
7, 155280, Note_on_c, 1, 74, 84
7, 155519, Note_on_c, 1, 74, 0
7, 155520, Note_on_c, 1, 73, 84
7, 155759, Note_on_c, 1, 73, 0
7, 155760, Note_on_c, 1, 71, 84
7, 155969, Note_on_c, 1, 71, 0
7, 156000, Note_on_c, 1, 69, 84
7, 156239, Note_on_c, 1, 69, 0
7, 156240, Note_on_c, 1, 80, 84
7, 156479, Note_on_c, 1, 80, 0
7, 156480, Note_on_c, 1, 78, 84
7, 156719, Note_on_c, 1, 78, 0
7, 156720, Note_on_c, 1, 77, 84
7, 156959, Note_on_c, 1, 77, 0
7, 156960, Note_on_c, 1, 78, 84
7, 157199, Note_on_c, 1, 78, 0
7, 157200, Note_on_c, 1, 74, 84
7, 157439, Note_on_c, 1, 74, 0
7, 157440, Note_on_c, 1, 73, 84
7, 157679, Note_on_c, 1, 73, 0
7, 157680, Note_on_c, 1, 71, 84
7, 157889, Note_on_c, 1, 71, 0
7, 157920, Note_on_c, 1, 69, 84
7, 158159, Note_on_c, 1, 69, 0
7, 158280, Note_on_c, 1, 77, 84
7, 158399, Note_on_c, 1, 77, 0
7, 158400, Note_on_c, 1, 78, 84
7, 158579, Note_on_c, 1, 78, 0
7, 159240, Note_on_c, 1, 77, 84
7, 159359, Note_on_c, 1, 77, 0
7, 159360, Note_on_c, 1, 78, 84
7, 159539, Note_on_c, 1, 78, 0
7, 160200, Note_on_c, 1, 77, 84
7, 160319, Note_on_c, 1, 77, 0
7, 160320, Note_on_c, 1, 78, 84
7, 160499, Note_on_c, 1, 78, 0
7, 161040, Note_on_c, 1, 78, 84
7, 161489, Note_on_c, 1, 78, 0
7, 161520, Note_on_c, 1, 78, 84
7, 161999, Note_on_c, 1, 78, 0
7, 163680, Note_on_c, 1, 69, 84
7, 163919, Note_on_c, 1, 69, 0
7, 164040, Note_on_c, 1, 77, 84
7, 164159, Note_on_c, 1, 77, 0
7, 164160, Note_on_c, 1, 78, 84
7, 164339, Note_on_c, 1, 78, 0
7, 164520, Note_on_c, 1, 69, 84
7, 164639, Note_on_c, 1, 69, 0
7, 164640, Note_on_c, 1, 71, 84
7, 164819, Note_on_c, 1, 71, 0
7, 165000, Note_on_c, 1, 77, 84
7, 165119, Note_on_c, 1, 77, 0
7, 165120, Note_on_c, 1, 78, 84
7, 165299, Note_on_c, 1, 78, 0
7, 165480, Note_on_c, 1, 71, 84
7, 165599, Note_on_c, 1, 71, 0
7, 165600, Note_on_c, 1, 73, 84
7, 165779, Note_on_c, 1, 73, 0
7, 165960, Note_on_c, 1, 77, 84
7, 166079, Note_on_c, 1, 77, 0
7, 166080, Note_on_c, 1, 78, 84
7, 166259, Note_on_c, 1, 78, 0
7, 166440, Note_on_c, 1, 73, 84
7, 166559, Note_on_c, 1, 73, 0
7, 166560, Note_on_c, 1, 74, 84
7, 166739, Note_on_c, 1, 74, 0
7, 166920, Note_on_c, 1, 74, 84
7, 167039, Note_on_c, 1, 74, 0
7, 167040, Note_on_c, 1, 72, 84
7, 167219, Note_on_c, 1, 72, 0
7, 167400, Note_on_c, 1, 72, 84
7, 167519, Note_on_c, 1, 72, 0
7, 167520, Note_on_c, 1, 73, 92
7, 167699, Note_on_c, 1, 73, 0
7, 167880, Note_on_c, 1, 77, 84
7, 167999, Note_on_c, 1, 77, 0
7, 168000, Note_on_c, 1, 78, 84
7, 168179, Note_on_c, 1, 78, 0
7, 168360, Note_on_c, 1, 73, 84
7, 168479, Note_on_c, 1, 73, 0
7, 168480, Note_on_c, 1, 74, 84
7, 168659, Note_on_c, 1, 74, 0
7, 168840, Note_on_c, 1, 74, 84
7, 168959, Note_on_c, 1, 74, 0
7, 168960, Note_on_c, 1, 72, 84
7, 169139, Note_on_c, 1, 72, 0
7, 169320, Note_on_c, 1, 72, 84
7, 169439, Note_on_c, 1, 72, 0
7, 169440, Note_on_c, 1, 73, 84
7, 169619, Note_on_c, 1, 73, 0
7, 169680, Note_on_c, 1, 78, 84
7, 169800, Note_on_c, 1, 73, 84
7, 169919, Note_on_c, 1, 73, 0
7, 169920, Note_on_c, 1, 74, 84
7, 170099, Note_on_c, 1, 74, 0
7, 170129, Note_on_c, 1, 78, 0
7, 170160, Note_on_c, 1, 78, 84
7, 170280, Note_on_c, 1, 72, 84
7, 170399, Note_on_c, 1, 72, 0
7, 170400, Note_on_c, 1, 73, 92
7, 170579, Note_on_c, 1, 73, 0
7, 170609, Note_on_c, 1, 78, 0
7, 170640, Note_on_c, 1, 78, 84
7, 170760, Note_on_c, 1, 73, 84
7, 170879, Note_on_c, 1, 73, 0
7, 170880, Note_on_c, 1, 74, 84
7, 171059, Note_on_c, 1, 74, 0
7, 171089, Note_on_c, 1, 78, 0
7, 171120, Note_on_c, 1, 78, 84
7, 171240, Note_on_c, 1, 72, 84
7, 171359, Note_on_c, 1, 72, 0
7, 171360, Note_on_c, 1, 73, 92
7, 171539, Note_on_c, 1, 73, 0
7, 171569, Note_on_c, 1, 78, 0
7, 171600, Note_on_c, 1, 78, 84
7, 171600, Note_on_c, 1, 81, 84
7, 172049, Note_on_c, 1, 78, 0
7, 172049, Note_on_c, 1, 81, 0
7, 172080, Note_on_c, 1, 81, 84
7, 172080, Note_on_c, 1, 78, 84
7, 172529, Note_on_c, 1, 81, 0
7, 172529, Note_on_c, 1, 78, 0
7, 172560, Note_on_c, 1, 81, 84
7, 172560, Note_on_c, 1, 78, 84
7, 173009, Note_on_c, 1, 81, 0
7, 173009, Note_on_c, 1, 78, 0
7, 173040, Note_on_c, 1, 81, 84
7, 173040, Note_on_c, 1, 78, 84
7, 173519, Note_on_c, 1, 81, 0
7, 173519, Note_on_c, 1, 78, 0
7, 177000, Note_on_c, 1, 78, 76
7, 177119, Note_on_c, 1, 78, 0
7, 177120, Note_on_c, 1, 79, 76
7, 177299, Note_on_c, 1, 79, 0
7, 177480, Note_on_c, 1, 73, 76
7, 177569, Note_on_c, 1, 73, 0
7, 177600, Note_on_c, 1, 73, 84
7, 177659, Note_on_c, 1, 73, 0
7, 177660, Note_on_c, 1, 74, 76
7, 177719, Note_on_c, 1, 74, 0
7, 177720, Note_on_c, 1, 73, 76
7, 177779, Note_on_c, 1, 73, 0
7, 177780, Note_on_c, 1, 74, 76
7, 177839, Note_on_c, 1, 74, 0
7, 177840, Note_on_c, 1, 73, 76
7, 177899, Note_on_c, 1, 73, 0
7, 177900, Note_on_c, 1, 74, 76
7, 177959, Note_on_c, 1, 74, 0
7, 177960, Note_on_c, 1, 71, 76
7, 178019, Note_on_c, 1, 71, 0
7, 178020, Note_on_c, 1, 73, 76
7, 178064, Note_on_c, 1, 73, 0
7, 178080, Note_on_c, 1, 76, 76
7, 178259, Note_on_c, 1, 76, 0
7, 178320, Note_on_c, 1, 69, 76
7, 178499, Note_on_c, 1, 69, 0
7, 181920, Note_on_c, 1, 66, 76
7, 181920, Note_on_c, 1, 74, 76
7, 182099, Note_on_c, 1, 66, 0
7, 182099, Note_on_c, 1, 74, 0
7, 182160, Note_on_c, 1, 76, 76
7, 182160, Note_on_c, 1, 69, 76
7, 182339, Note_on_c, 1, 76, 0
7, 182339, Note_on_c, 1, 69, 0
7, 182760, Note_on_c, 1, 78, 84
7, 182879, Note_on_c, 1, 78, 0
7, 182880, Note_on_c, 1, 79, 84
7, 183059, Note_on_c, 1, 79, 0
7, 183240, Note_on_c, 1, 73, 84
7, 183329, Note_on_c, 1, 73, 0
7, 183360, Note_on_c, 1, 73, 92
7, 183419, Note_on_c, 1, 73, 0
7, 183420, Note_on_c, 1, 74, 84
7, 183479, Note_on_c, 1, 74, 0
7, 183480, Note_on_c, 1, 73, 84
7, 183539, Note_on_c, 1, 73, 0
7, 183540, Note_on_c, 1, 74, 84
7, 183599, Note_on_c, 1, 74, 0
7, 183600, Note_on_c, 1, 73, 84
7, 183659, Note_on_c, 1, 73, 0
7, 183660, Note_on_c, 1, 74, 84
7, 183719, Note_on_c, 1, 74, 0
7, 183720, Note_on_c, 1, 71, 84
7, 183779, Note_on_c, 1, 71, 0
7, 183780, Note_on_c, 1, 73, 84
7, 183824, Note_on_c, 1, 73, 0
7, 183840, Note_on_c, 1, 76, 84
7, 184019, Note_on_c, 1, 76, 0
7, 184080, Note_on_c, 1, 69, 84
7, 184259, Note_on_c, 1, 69, 0
7, 188040, Note_on_c, 1, 73, 76
7, 188159, Note_on_c, 1, 73, 0
7, 188160, Note_on_c, 1, 74, 76
7, 188339, Note_on_c, 1, 74, 0
7, 189960, Note_on_c, 1, 73, 76
7, 190079, Note_on_c, 1, 73, 0
7, 190080, Note_on_c, 1, 74, 76
7, 190259, Note_on_c, 1, 74, 0
7, 191520, Note_on_c, 1, 74, 84
7, 191639, Note_on_c, 1, 74, 0
7, 191640, Note_on_c, 1, 73, 76
7, 191759, Note_on_c, 1, 73, 0
7, 191760, Note_on_c, 1, 74, 76
7, 191879, Note_on_c, 1, 74, 0
7, 191880, Note_on_c, 1, 73, 76
7, 191969, Note_on_c, 1, 73, 0
7, 192000, Note_on_c, 1, 74, 76
7, 192239, Note_on_c, 1, 74, 0
7, 193440, Note_on_c, 1, 74, 84
7, 193559, Note_on_c, 1, 74, 0
7, 193560, Note_on_c, 1, 73, 76
7, 193679, Note_on_c, 1, 73, 0
7, 193680, Note_on_c, 1, 74, 76
7, 193799, Note_on_c, 1, 74, 0
7, 193800, Note_on_c, 1, 73, 76
7, 193889, Note_on_c, 1, 73, 0
7, 193920, Note_on_c, 1, 74, 76
7, 194129, Note_on_c, 1, 74, 0
7, 194160, Note_on_c, 1, 78, 76
7, 194160, Note_on_c, 1, 74, 76
7, 194339, Note_on_c, 1, 78, 0
7, 194339, Note_on_c, 1, 74, 0
7, 194400, Note_on_c, 1, 79, 76
7, 194400, Note_on_c, 1, 74, 76
7, 194579, Note_on_c, 1, 79, 0
7, 194579, Note_on_c, 1, 74, 0
7, 194640, Note_on_c, 1, 74, 76
7, 194640, Note_on_c, 1, 78, 76
7, 194819, Note_on_c, 1, 74, 0
7, 194819, Note_on_c, 1, 78, 0
7, 194880, Note_on_c, 1, 74, 76
7, 194880, Note_on_c, 1, 79, 76
7, 195059, Note_on_c, 1, 74, 0
7, 195059, Note_on_c, 1, 79, 0
7, 195120, Note_on_c, 1, 74, 76
7, 195120, Note_on_c, 1, 80, 76
7, 195299, Note_on_c, 1, 74, 0
7, 195299, Note_on_c, 1, 80, 0
7, 195360, Note_on_c, 1, 73, 84
7, 195360, Note_on_c, 1, 81, 84
7, 195599, Note_on_c, 1, 73, 0
7, 195599, Note_on_c, 1, 81, 0
7, 195840, Note_on_c, 1, 76, 84
7, 195840, Note_on_c, 1, 79, 84
7, 196319, Note_on_c, 1, 76, 0
7, 196319, Note_on_c, 1, 79, 0
7, 196320, Note_on_c, 1, 78, 84
7, 196320, Note_on_c, 1, 74, 84
7, 196769, Note_on_c, 1, 74, 0
7, 196799, Note_on_c, 1, 78, 0
7, 196800, Note_on_c, 1, 74, 84
7, 196800, Note_on_c, 1, 77, 84
7, 197249, Note_on_c, 1, 74, 0
7, 197249, Note_on_c, 1, 77, 0
7, 197280, Note_on_c, 1, 73, 84
7, 197280, Note_on_c, 1, 76, 84
7, 197759, Note_on_c, 1, 73, 0
7, 197759, Note_on_c, 1, 76, 0
7, 197760, Note_on_c, 1, 76, 84
7, 197760, Note_on_c, 1, 79, 84
7, 198239, Note_on_c, 1, 76, 0
7, 198239, Note_on_c, 1, 79, 0
7, 198240, Note_on_c, 1, 78, 84
7, 198240, Note_on_c, 1, 74, 84
7, 198689, Note_on_c, 1, 74, 0
7, 198719, Note_on_c, 1, 78, 0
7, 198720, Note_on_c, 1, 77, 84
7, 198720, Note_on_c, 1, 74, 84
7, 199169, Note_on_c, 1, 77, 0
7, 199169, Note_on_c, 1, 74, 0
7, 199200, Note_on_c, 1, 76, 84
7, 199200, Note_on_c, 1, 73, 84
7, 199409, Note_on_c, 1, 76, 0
7, 199409, Note_on_c, 1, 73, 0
7, 199440, Note_on_c, 1, 69, 84
7, 199649, Note_on_c, 1, 69, 0
7, 199680, Note_on_c, 1, 69, 84
7, 199889, Note_on_c, 1, 69, 0
7, 199920, Note_on_c, 1, 69, 84
7, 200129, Note_on_c, 1, 69, 0
7, 200160, Note_on_c, 1, 69, 84
7, 200399, Note_on_c, 1, 69, 0
7, 210480, Control_c, 1, 11, 80
7, 210720, Note_on_c, 1, 81, 76
7, 211200, Note_on_c, 1, 69, 76
7, 211439, Note_on_c, 1, 81, 0
7, 211439, Note_on_c, 1, 69, 0
7, 211440, Note_on_c, 1, 79, 76
7, 211440, Control_c, 1, 11, 80
7, 211440, Note_on_c, 1, 71, 76
7, 211540, Control_c, 1, 11, 83
7, 211640, Control_c, 1, 11, 85
7, 211679, Note_on_c, 1, 79, 0
7, 211679, Note_on_c, 1, 71, 0
7, 211680, Note_on_c, 1, 78, 76
7, 211680, Note_on_c, 1, 72, 76
7, 211740, Control_c, 1, 11, 88
7, 211840, Control_c, 1, 11, 91
7, 211919, Note_on_c, 1, 78, 0
7, 211919, Note_on_c, 1, 72, 0
7, 211920, Note_on_c, 1, 76, 76
7, 211920, Note_on_c, 1, 73, 76
7, 211940, Control_c, 1, 11, 93
7, 212040, Control_c, 1, 11, 96
7, 212140, Control_c, 1, 11, 99
7, 212159, Note_on_c, 1, 76, 0
7, 212159, Note_on_c, 1, 73, 0
7, 212160, Note_on_c, 1, 74, 76
7, 212240, Control_c, 1, 11, 101
7, 212340, Control_c, 1, 11, 104
7, 212399, Note_on_c, 1, 74, 0
7, 212400, Note_on_c, 1, 74, 76
7, 212400, Note_on_c, 1, 72, 76
7, 212440, Control_c, 1, 11, 107
7, 212540, Control_c, 1, 11, 109
7, 212609, Note_on_c, 1, 74, 0
7, 212609, Note_on_c, 1, 72, 0
7, 212640, Control_c, 1, 11, 80
7, 212640, Note_on_c, 1, 71, 76
7, 212640, Note_on_c, 1, 74, 76
7, 212879, Note_on_c, 1, 71, 0
7, 212879, Note_on_c, 1, 74, 0
7, 212880, Note_on_c, 1, 79, 76
7, 212880, Note_on_c, 1, 67, 76
7, 213119, Note_on_c, 1, 79, 0
7, 213119, Note_on_c, 1, 67, 0
7, 213120, Note_on_c, 1, 69, 76
7, 213120, Note_on_c, 1, 81, 76
7, 213359, Note_on_c, 1, 69, 0
7, 213359, Note_on_c, 1, 81, 0
7, 213360, Note_on_c, 1, 71, 76
7, 213360, Note_on_c, 1, 83, 76
7, 213569, Note_on_c, 1, 71, 0
7, 213569, Note_on_c, 1, 83, 0
7, 213600, Note_on_c, 1, 72, 76
7, 213600, Note_on_c, 1, 84, 76
7, 214289, Note_on_c, 1, 72, 0
7, 214289, Note_on_c, 1, 84, 0
7, 214320, Note_on_c, 1, 84, 76
7, 214320, Note_on_c, 1, 72, 76
7, 214529, Note_on_c, 1, 84, 0
7, 214529, Note_on_c, 1, 72, 0
7, 214560, Note_on_c, 1, 84, 76
7, 214560, Note_on_c, 1, 72, 76
7, 214799, Note_on_c, 1, 84, 0
7, 214799, Note_on_c, 1, 72, 0
7, 214800, Note_on_c, 1, 83, 76
7, 214800, Note_on_c, 1, 71, 76
7, 215039, Note_on_c, 1, 83, 0
7, 215039, Note_on_c, 1, 71, 0
7, 215040, Note_on_c, 1, 81, 76
7, 215040, Note_on_c, 1, 69, 76
7, 215279, Note_on_c, 1, 81, 0
7, 215279, Note_on_c, 1, 69, 0
7, 215280, Note_on_c, 1, 79, 76
7, 215280, Note_on_c, 1, 67, 76
7, 215489, Note_on_c, 1, 79, 0
7, 215489, Note_on_c, 1, 67, 0
7, 215520, Note_on_c, 1, 72, 76
7, 215520, Note_on_c, 1, 84, 76
7, 216209, Note_on_c, 1, 72, 0
7, 216209, Note_on_c, 1, 84, 0
7, 216240, Note_on_c, 1, 72, 76
7, 216240, Note_on_c, 1, 84, 76
7, 216449, Note_on_c, 1, 72, 0
7, 216449, Note_on_c, 1, 84, 0
7, 216480, Note_on_c, 1, 71, 76
7, 216480, Control_c, 1, 11, 80
7, 216480, Note_on_c, 1, 83, 76
7, 216640, Control_c, 1, 11, 84
7, 216719, Note_on_c, 1, 71, 0
7, 216719, Note_on_c, 1, 83, 0
7, 216720, Note_on_c, 1, 84, 76
7, 216720, Note_on_c, 1, 72, 76
7, 216800, Control_c, 1, 11, 88
7, 216959, Note_on_c, 1, 84, 0
7, 216959, Note_on_c, 1, 72, 0
7, 216960, Note_on_c, 1, 83, 76
7, 216960, Control_c, 1, 11, 92
7, 216960, Note_on_c, 1, 71, 76
7, 217120, Control_c, 1, 11, 96
7, 217199, Note_on_c, 1, 83, 0
7, 217199, Note_on_c, 1, 71, 0
7, 217200, Note_on_c, 1, 81, 76
7, 217200, Note_on_c, 1, 69, 76
7, 217280, Control_c, 1, 11, 100
7, 217439, Note_on_c, 1, 81, 0
7, 217439, Note_on_c, 1, 69, 0
7, 217440, Note_on_c, 1, 79, 76
7, 217440, Note_on_c, 1, 67, 76
7, 217440, Control_c, 1, 11, 104
7, 217600, Control_c, 1, 11, 107
7, 217679, Note_on_c, 1, 79, 0
7, 217679, Note_on_c, 1, 67, 0
7, 217680, Note_on_c, 1, 75, 76
7, 217680, Note_on_c, 1, 78, 76
7, 217760, Control_c, 1, 11, 111
7, 217919, Note_on_c, 1, 75, 0
7, 217919, Note_on_c, 1, 78, 0
7, 217920, Control_c, 1, 11, 115
7, 217920, Note_on_c, 1, 76, 76
7, 218080, Control_c, 1, 11, 119
7, 218129, Note_on_c, 1, 76, 0
7, 218160, Note_on_c, 1, 76, 76
7, 218160, Note_on_c, 1, 74, 76
7, 218240, Control_c, 1, 11, 123
7, 218369, Note_on_c, 1, 76, 0
7, 218369, Note_on_c, 1, 74, 0
7, 218400, Control_c, 1, 11, 127
7, 218400, Note_on_c, 1, 73, 76
7, 218400, Note_on_c, 1, 76, 76
7, 218639, Note_on_c, 1, 73, 0
7, 218639, Note_on_c, 1, 76, 0
7, 219360, Note_on_c, 1, 73, 84
7, 219360, Note_on_c, 1, 81, 84
7, 220319, Note_on_c, 1, 73, 0
7, 220319, Note_on_c, 1, 81, 0
7, 221280, Note_on_c, 1, 80, 84
7, 221280, Note_on_c, 1, 74, 84
7, 222239, Note_on_c, 1, 80, 0
7, 222239, Note_on_c, 1, 74, 0
7, 222720, Note_on_c, 1, 73, 84
7, 222720, Note_on_c, 1, 79, 84
7, 223199, Note_on_c, 1, 73, 0
7, 223199, Note_on_c, 1, 79, 0
7, 223680, Note_on_c, 1, 74, 84
7, 223680, Note_on_c, 1, 78, 84
7, 224129, Note_on_c, 1, 74, 0
7, 224129, Note_on_c, 1, 78, 0
7, 224160, Note_on_c, 1, 79, 76
7, 224160, Note_on_c, 1, 73, 76
7, 224399, Note_on_c, 1, 79, 0
7, 224399, Note_on_c, 1, 73, 0
7, 228000, Note_on_c, 1, 81, 52
7, 228959, Note_on_c, 1, 81, 0
7, 228960, Note_on_c, 1, 79, 52
7, 229439, Note_on_c, 1, 79, 0
7, 229440, Note_on_c, 1, 76, 52
7, 229889, Note_on_c, 1, 76, 0
7, 229920, Note_on_c, 1, 78, 52
7, 230159, Note_on_c, 1, 78, 0
7, 231600, Control_c, 1, 11, 96
7, 231840, Note_on_c, 1, 81, 68
7, 232799, Note_on_c, 1, 81, 0
7, 232800, Note_on_c, 1, 79, 68
7, 233279, Note_on_c, 1, 79, 0
7, 233280, Note_on_c, 1, 76, 68
7, 233729, Note_on_c, 1, 76, 0
7, 233760, Control_c, 1, 11, 96
7, 233760, Note_on_c, 1, 78, 68
7, 234000, Control_c, 1, 11, 99
7, 234240, Control_c, 1, 11, 101
7, 234480, Control_c, 1, 11, 104
7, 234720, Control_c, 1, 11, 106
7, 234960, Control_c, 1, 11, 109
7, 235200, Control_c, 1, 11, 112
7, 235440, Control_c, 1, 11, 114
7, 235680, Control_c, 1, 11, 117
7, 235920, Control_c, 1, 11, 119
7, 236160, Control_c, 1, 11, 122
7, 236400, Control_c, 1, 11, 124
7, 236609, Note_on_c, 1, 78, 0
7, 236640, Note_on_c, 1, 81, 76
7, 236640, Control_c, 1, 11, 127
7, 236730, Control_c, 1, 11, 112
7, 236883, Control_c, 1, 11, 109
7, 237035, Control_c, 1, 11, 107
7, 237188, Control_c, 1, 11, 104
7, 237340, Control_c, 1, 11, 101
7, 237493, Control_c, 1, 11, 99
7, 237645, Control_c, 1, 11, 96
7, 237798, Control_c, 1, 11, 93
7, 237950, Control_c, 1, 11, 91
7, 238103, Control_c, 1, 11, 88
7, 238255, Control_c, 1, 11, 85
7, 238408, Control_c, 1, 11, 83
7, 238560, Control_c, 1, 11, 80
7, 239039, Note_on_c, 1, 81, 0
7, 239040, Note_on_c, 1, 79, 76
7, 239279, Note_on_c, 1, 79, 0
7, 239280, Note_on_c, 1, 76, 76
7, 239489, Note_on_c, 1, 76, 0
7, 239520, Note_on_c, 1, 76, 76
7, 239999, Note_on_c, 1, 76, 0
7, 240000, Note_on_c, 1, 74, 76
7, 240959, Note_on_c, 1, 74, 0
7, 240960, Note_on_c, 1, 76, 76
7, 241319, Note_on_c, 1, 76, 0
7, 241320, Note_on_c, 1, 73, 76
7, 241409, Note_on_c, 1, 73, 0
7, 241440, Note_on_c, 1, 74, 76
7, 241679, Note_on_c, 1, 74, 0
7, 243120, Control_c, 1, 11, 127
7, 243360, Note_on_c, 1, 81, 52
7, 244319, Note_on_c, 1, 81, 0
7, 244320, Note_on_c, 1, 79, 52
7, 244799, Note_on_c, 1, 79, 0
7, 244800, Note_on_c, 1, 76, 52
7, 245249, Note_on_c, 1, 76, 0
7, 245280, Note_on_c, 1, 77, 52
7, 245519, Note_on_c, 1, 77, 0
7, 248160, Note_on_c, 1, 72, 76
7, 248280, Control_c, 1, 11, 112
7, 248403, Control_c, 1, 11, 109
7, 248555, Control_c, 1, 11, 107
7, 248708, Control_c, 1, 11, 104
7, 248860, Control_c, 1, 11, 101
7, 249013, Control_c, 1, 11, 99
7, 249165, Control_c, 1, 11, 96
7, 249318, Control_c, 1, 11, 93
7, 249470, Control_c, 1, 11, 91
7, 249623, Control_c, 1, 11, 88
7, 249775, Control_c, 1, 11, 85
7, 249928, Control_c, 1, 11, 83
7, 250049, Note_on_c, 1, 72, 0
7, 250080, Control_c, 1, 11, 80
7, 250080, Note_on_c, 1, 70, 76
7, 250559, Note_on_c, 1, 70, 0
7, 250560, Note_on_c, 1, 72, 76
7, 250799, Note_on_c, 1, 72, 0
7, 250800, Note_on_c, 1, 74, 76
7, 251009, Note_on_c, 1, 74, 0
7, 251040, Note_on_c, 1, 65, 76
7, 251999, Note_on_c, 1, 65, 0
7, 252000, Note_on_c, 1, 64, 76
7, 252929, Note_on_c, 1, 64, 0
7, 252960, Note_on_c, 1, 69, 76
7, 252960, Control_c, 1, 11, 80
7, 253280, Control_c, 1, 11, 84
7, 253600, Control_c, 1, 11, 88
7, 253919, Note_on_c, 1, 69, 0
7, 253920, Note_on_c, 1, 67, 76
7, 253920, Control_c, 1, 11, 92
7, 254240, Control_c, 1, 11, 96
7, 254399, Note_on_c, 1, 67, 0
7, 254400, Note_on_c, 1, 69, 76
7, 254560, Control_c, 1, 11, 100
7, 254639, Note_on_c, 1, 69, 0
7, 254640, Note_on_c, 1, 70, 76
7, 254849, Note_on_c, 1, 70, 0
7, 254880, Control_c, 1, 11, 104
7, 254880, Note_on_c, 1, 62, 76
7, 255200, Control_c, 1, 11, 107
7, 255520, Control_c, 1, 11, 111
7, 255839, Note_on_c, 1, 62, 0
7, 255840, Control_c, 1, 11, 115
7, 255840, Note_on_c, 1, 61, 76
7, 256160, Control_c, 1, 11, 119
7, 256480, Control_c, 1, 11, 123
7, 256769, Note_on_c, 1, 61, 0
7, 256800, Note_on_c, 1, 81, 76
7, 256800, Note_on_c, 1, 74, 76
7, 256800, Control_c, 1, 11, 127
7, 257729, Note_on_c, 1, 81, 0
7, 257760, Note_on_c, 1, 78, 84
7, 258449, Note_on_c, 1, 78, 0
7, 258480, Note_on_c, 1, 74, 76
7, 258689, Note_on_c, 1, 74, 0
7, 258689, Note_on_c, 1, 74, 0
7, 258720, Note_on_c, 1, 83, 76
7, 258720, Note_on_c, 1, 74, 76
7, 259649, Note_on_c, 1, 83, 0
7, 259680, Note_on_c, 1, 79, 84
7, 260369, Note_on_c, 1, 79, 0
7, 260400, Note_on_c, 1, 76, 76
7, 260609, Note_on_c, 1, 74, 0
7, 260609, Note_on_c, 1, 76, 0
7, 260640, Note_on_c, 1, 81, 84
7, 260640, Note_on_c, 1, 74, 84
7, 261119, Note_on_c, 1, 81, 0
7, 261120, Note_on_c, 1, 78, 76
7, 261359, Note_on_c, 1, 78, 0
7, 261360, Note_on_c, 1, 74, 76
7, 261569, Note_on_c, 1, 74, 0
7, 261569, Note_on_c, 1, 74, 0
7, 261600, Note_on_c, 1, 81, 84
7, 261600, Note_on_c, 1, 73, 84
7, 262079, Note_on_c, 1, 81, 0
7, 262080, Note_on_c, 1, 76, 76
7, 262319, Note_on_c, 1, 76, 0
7, 262320, Note_on_c, 1, 73, 76
7, 262529, Note_on_c, 1, 73, 0
7, 262529, Note_on_c, 1, 73, 0
7, 262560, Note_on_c, 1, 69, 76
7, 262560, Note_on_c, 1, 81, 76
7, 263489, Note_on_c, 1, 69, 0
7, 263489, Note_on_c, 1, 81, 0
7, 263520, Note_on_c, 1, 78, 84
7, 263520, Note_on_c, 1, 66, 84
7, 264209, Note_on_c, 1, 78, 0
7, 264209, Note_on_c, 1, 66, 0
7, 264240, Note_on_c, 1, 62, 76
7, 264240, Note_on_c, 1, 74, 76
7, 264449, Note_on_c, 1, 62, 0
7, 264449, Note_on_c, 1, 74, 0
7, 264480, Note_on_c, 1, 83, 84
7, 264480, Note_on_c, 1, 71, 84
7, 265409, Note_on_c, 1, 83, 0
7, 265409, Note_on_c, 1, 71, 0
7, 265440, Note_on_c, 1, 67, 84
7, 265440, Note_on_c, 1, 79, 84
7, 266129, Note_on_c, 1, 67, 0
7, 266129, Note_on_c, 1, 79, 0
7, 266160, Note_on_c, 1, 74, 76
7, 266160, Note_on_c, 1, 62, 76
7, 266369, Note_on_c, 1, 74, 0
7, 266369, Note_on_c, 1, 62, 0
7, 266400, Note_on_c, 1, 84, 84
7, 266400, Note_on_c, 1, 74, 84
7, 267329, Note_on_c, 1, 84, 0
7, 267329, Note_on_c, 1, 74, 0
7, 267360, Note_on_c, 1, 69, 84
7, 267539, Note_on_c, 1, 69, 0
7, 267600, Note_on_c, 1, 72, 84
7, 267779, Note_on_c, 1, 72, 0
7, 267840, Note_on_c, 1, 78, 84
7, 268019, Note_on_c, 1, 78, 0
7, 268080, Note_on_c, 1, 81, 84
7, 268259, Note_on_c, 1, 81, 0
7, 268320, Note_on_c, 1, 84, 84
7, 268499, Note_on_c, 1, 84, 0
7, 268560, Note_on_c, 1, 81, 84
7, 268739, Note_on_c, 1, 81, 0
7, 268800, Note_on_c, 1, 78, 84
7, 268979, Note_on_c, 1, 78, 0
7, 269040, Note_on_c, 1, 72, 84
7, 269219, Note_on_c, 1, 72, 0
7, 269280, Note_on_c, 1, 69, 84
7, 269459, Note_on_c, 1, 69, 0
7, 269520, Note_on_c, 1, 72, 84
7, 269699, Note_on_c, 1, 72, 0
7, 269760, Note_on_c, 1, 78, 84
7, 269939, Note_on_c, 1, 78, 0
7, 270000, Note_on_c, 1, 81, 84
7, 270179, Note_on_c, 1, 81, 0
7, 270240, Note_on_c, 1, 84, 84
7, 270419, Note_on_c, 1, 84, 0
7, 278880, Note_on_c, 1, 81, 44
7, 278880, Note_on_c, 1, 78, 44
7, 279119, Note_on_c, 1, 81, 0
7, 279119, Note_on_c, 1, 78, 0
7, 280800, Note_on_c, 1, 83, 44
7, 280800, Note_on_c, 1, 79, 44
7, 281039, Note_on_c, 1, 83, 0
7, 281039, Note_on_c, 1, 79, 0
7, 281640, Note_on_c, 1, 78, 76
7, 281759, Note_on_c, 1, 78, 0
7, 281760, Note_on_c, 1, 79, 76
7, 281939, Note_on_c, 1, 79, 0
7, 282120, Note_on_c, 1, 73, 76
7, 282209, Note_on_c, 1, 73, 0
7, 282240, Note_on_c, 1, 73, 84
7, 282299, Note_on_c, 1, 73, 0
7, 282300, Note_on_c, 1, 74, 76
7, 282359, Note_on_c, 1, 74, 0
7, 282360, Note_on_c, 1, 73, 76
7, 282419, Note_on_c, 1, 73, 0
7, 282420, Note_on_c, 1, 74, 76
7, 282479, Note_on_c, 1, 74, 0
7, 282480, Note_on_c, 1, 73, 76
7, 282539, Note_on_c, 1, 73, 0
7, 282540, Note_on_c, 1, 74, 76
7, 282599, Note_on_c, 1, 74, 0
7, 282600, Note_on_c, 1, 71, 76
7, 282659, Note_on_c, 1, 71, 0
7, 282660, Note_on_c, 1, 73, 76
7, 282704, Note_on_c, 1, 73, 0
7, 282720, Note_on_c, 1, 76, 76
7, 282899, Note_on_c, 1, 76, 0
7, 282960, Note_on_c, 1, 69, 76
7, 283139, Note_on_c, 1, 69, 0
7, 286560, Note_on_c, 1, 66, 76
7, 286560, Note_on_c, 1, 74, 76
7, 286739, Note_on_c, 1, 66, 0
7, 286739, Note_on_c, 1, 74, 0
7, 286800, Note_on_c, 1, 69, 76
7, 286800, Note_on_c, 1, 76, 76
7, 286979, Note_on_c, 1, 69, 0
7, 286979, Note_on_c, 1, 76, 0
7, 287400, Note_on_c, 1, 78, 76
7, 287519, Note_on_c, 1, 78, 0
7, 287520, Note_on_c, 1, 79, 76
7, 287699, Note_on_c, 1, 79, 0
7, 289320, Note_on_c, 1, 78, 76
7, 289439, Note_on_c, 1, 78, 0
7, 289440, Note_on_c, 1, 79, 76
7, 289619, Note_on_c, 1, 79, 0
7, 291240, Note_on_c, 1, 78, 76
7, 291359, Note_on_c, 1, 78, 0
7, 291360, Note_on_c, 1, 79, 76
7, 291539, Note_on_c, 1, 79, 0
7, 292200, Note_on_c, 1, 78, 76
7, 292319, Note_on_c, 1, 78, 0
7, 292320, Note_on_c, 1, 79, 76
7, 292499, Note_on_c, 1, 79, 0
7, 293160, Note_on_c, 1, 78, 76
7, 293279, Note_on_c, 1, 78, 0
7, 293280, Note_on_c, 1, 79, 76
7, 295649, Note_on_c, 1, 79, 0
7, 295680, Note_on_c, 1, 77, 76
7, 296399, Note_on_c, 1, 77, 0
7, 296400, Note_on_c, 1, 76, 76
7, 296639, Note_on_c, 1, 76, 0
7, 296640, Note_on_c, 1, 74, 76
7, 296879, Note_on_c, 1, 74, 0
7, 296880, Note_on_c, 1, 72, 76
7, 297089, Note_on_c, 1, 72, 0
7, 297120, Note_on_c, 1, 70, 76
7, 297839, Note_on_c, 1, 70, 0
7, 297840, Note_on_c, 1, 69, 76
7, 298079, Note_on_c, 1, 69, 0
7, 298080, Note_on_c, 1, 67, 76
7, 298319, Note_on_c, 1, 67, 0
7, 298320, Note_on_c, 1, 65, 76
7, 298559, Note_on_c, 1, 65, 0
7, 298560, Note_on_c, 1, 64, 76
7, 298799, Note_on_c, 1, 64, 0
7, 298800, Note_on_c, 1, 62, 76
7, 299009, Note_on_c, 1, 62, 0
7, 299040, Note_on_c, 1, 69, 76
7, 299279, Note_on_c, 1, 69, 0
7, 300960, Note_on_c, 1, 73, 76
7, 300960, Note_on_c, 1, 69, 76
7, 301080, Control_c, 1, 11, 80
7, 301439, Note_on_c, 1, 73, 0
7, 301439, Note_on_c, 1, 69, 0
7, 301440, Note_on_c, 1, 74, 76
7, 301440, Note_on_c, 1, 71, 76
7, 301679, Note_on_c, 1, 74, 0
7, 301679, Note_on_c, 1, 71, 0
7, 301680, Note_on_c, 1, 76, 76
7, 301680, Note_on_c, 1, 73, 76
7, 301889, Note_on_c, 1, 76, 0
7, 301889, Note_on_c, 1, 73, 0
7, 301920, Note_on_c, 1, 74, 76
7, 301920, Note_on_c, 1, 77, 76
7, 302609, Note_on_c, 1, 74, 0
7, 302609, Note_on_c, 1, 77, 0
7, 302640, Note_on_c, 1, 77, 76
7, 302640, Note_on_c, 1, 74, 76
7, 302849, Note_on_c, 1, 77, 0
7, 302849, Note_on_c, 1, 74, 0
7, 302865, Control_c, 1, 11, 127
7, 302880, Note_on_c, 1, 76, 76
7, 302880, Note_on_c, 1, 73, 76
7, 303359, Note_on_c, 1, 76, 0
7, 303359, Note_on_c, 1, 73, 0
7, 303360, Note_on_c, 1, 74, 52
7, 303360, Note_on_c, 1, 71, 52
7, 303599, Note_on_c, 1, 74, 0
7, 303599, Note_on_c, 1, 71, 0
7, 303600, Note_on_c, 1, 73, 52
7, 303600, Note_on_c, 1, 69, 52
7, 303809, Note_on_c, 1, 73, 0
7, 303809, Note_on_c, 1, 69, 0
7, 303840, Note_on_c, 1, 77, 76
7, 303840, Note_on_c, 1, 74, 76
7, 304319, Note_on_c, 1, 77, 0
7, 304319, Note_on_c, 1, 74, 0
7, 304320, Note_on_c, 1, 76, 52
7, 304320, Note_on_c, 1, 73, 52
7, 304559, Note_on_c, 1, 76, 0
7, 304559, Note_on_c, 1, 73, 0
7, 304560, Note_on_c, 1, 74, 52
7, 304560, Note_on_c, 1, 71, 52
7, 304769, Note_on_c, 1, 74, 0
7, 304769, Note_on_c, 1, 71, 0
7, 304800, Note_on_c, 1, 73, 76
7, 304800, Note_on_c, 1, 76, 76
7, 305279, Note_on_c, 1, 73, 0
7, 305279, Note_on_c, 1, 76, 0
7, 305280, Note_on_c, 1, 74, 52
7, 305280, Note_on_c, 1, 71, 52
7, 305519, Note_on_c, 1, 74, 0
7, 305519, Note_on_c, 1, 71, 0
7, 305520, Note_on_c, 1, 73, 52
7, 305520, Note_on_c, 1, 69, 52
7, 305729, Note_on_c, 1, 73, 0
7, 305729, Note_on_c, 1, 69, 0
7, 305760, Note_on_c, 1, 74, 76
7, 305760, Note_on_c, 1, 77, 76
7, 306239, Note_on_c, 1, 74, 0
7, 306239, Note_on_c, 1, 77, 0
7, 306240, Note_on_c, 1, 73, 52
7, 306240, Note_on_c, 1, 76, 52
7, 306479, Note_on_c, 1, 73, 0
7, 306479, Note_on_c, 1, 76, 0
7, 306480, Note_on_c, 1, 74, 52
7, 306480, Note_on_c, 1, 71, 52
7, 306689, Note_on_c, 1, 74, 0
7, 306689, Note_on_c, 1, 71, 0
7, 306720, Note_on_c, 1, 73, 76
7, 306720, Note_on_c, 1, 76, 76
7, 306959, Note_on_c, 1, 73, 0
7, 306959, Note_on_c, 1, 76, 0
7, 307920, Note_on_c, 1, 69, 52
7, 308159, Note_on_c, 1, 69, 0
7, 308160, Note_on_c, 1, 70, 52
7, 308399, Note_on_c, 1, 70, 0
7, 308400, Note_on_c, 1, 69, 52
7, 308609, Note_on_c, 1, 69, 0
7, 308640, Note_on_c, 1, 74, 76
7, 308879, Note_on_c, 1, 74, 0
7, 313440, Note_on_c, 1, 73, 76
7, 313440, Note_on_c, 1, 76, 76
7, 313919, Note_on_c, 1, 73, 0
7, 313919, Note_on_c, 1, 76, 0
7, 313920, Note_on_c, 1, 78, 52
7, 313920, Note_on_c, 1, 74, 52
7, 314159, Note_on_c, 1, 78, 0
7, 314159, Note_on_c, 1, 74, 0
7, 314160, Note_on_c, 1, 79, 52
7, 314160, Note_on_c, 1, 76, 52
7, 314369, Note_on_c, 1, 79, 0
7, 314369, Note_on_c, 1, 76, 0
7, 314400, Note_on_c, 1, 74, 52
7, 314400, Note_on_c, 1, 78, 52
7, 314639, Note_on_c, 1, 74, 0
7, 314639, Note_on_c, 1, 78, 0
7, 315360, Note_on_c, 1, 73, 76
7, 315360, Note_on_c, 1, 76, 76
7, 315839, Note_on_c, 1, 73, 0
7, 315839, Note_on_c, 1, 76, 0
7, 315840, Note_on_c, 1, 74, 52
7, 315840, Note_on_c, 1, 78, 52
7, 316079, Note_on_c, 1, 74, 0
7, 316079, Note_on_c, 1, 78, 0
7, 316080, Note_on_c, 1, 76, 52
7, 316080, Note_on_c, 1, 79, 52
7, 316289, Note_on_c, 1, 76, 0
7, 316289, Note_on_c, 1, 79, 0
7, 316320, Note_on_c, 1, 78, 76
7, 316320, Note_on_c, 1, 74, 76
7, 316559, Note_on_c, 1, 78, 0
7, 316559, Note_on_c, 1, 74, 0
7, 316560, Note_on_c, 1, 66, 76
7, 316799, Note_on_c, 1, 66, 0
7, 316800, Note_on_c, 1, 67, 84
7, 316800, Note_on_c, 1, 74, 84
7, 317039, Note_on_c, 1, 67, 0
7, 317040, Note_on_c, 1, 69, 76
7, 317249, Note_on_c, 1, 69, 0
7, 317280, Note_on_c, 1, 71, 84
7, 317489, Note_on_c, 1, 74, 0
7, 317520, Note_on_c, 1, 71, 76
7, 317699, Note_on_c, 1, 71, 0
7, 317759, Note_on_c, 1, 71, 0
7, 317760, Note_on_c, 1, 76, 84
7, 317760, Note_on_c, 1, 69, 84
7, 317999, Note_on_c, 1, 69, 0
7, 318000, Note_on_c, 1, 67, 76
7, 318209, Note_on_c, 1, 67, 0
7, 318240, Note_on_c, 1, 73, 84
7, 318449, Note_on_c, 1, 76, 0
7, 318480, Note_on_c, 1, 73, 76
7, 318659, Note_on_c, 1, 73, 0
7, 318719, Note_on_c, 1, 73, 0
7, 318720, Note_on_c, 1, 71, 84
7, 318720, Note_on_c, 1, 78, 84
7, 318959, Note_on_c, 1, 71, 0
7, 318960, Note_on_c, 1, 69, 76
7, 319169, Note_on_c, 1, 69, 0
7, 319200, Note_on_c, 1, 74, 84
7, 319409, Note_on_c, 1, 78, 0
7, 319440, Note_on_c, 1, 74, 76
7, 319619, Note_on_c, 1, 74, 0
7, 319679, Note_on_c, 1, 74, 0
7, 319680, Note_on_c, 1, 79, 84
7, 319680, Note_on_c, 1, 73, 84
7, 319919, Note_on_c, 1, 73, 0
7, 319920, Note_on_c, 1, 71, 76
7, 320129, Note_on_c, 1, 71, 0
7, 320160, Note_on_c, 1, 76, 84
7, 323999, Note_on_c, 1, 79, 0
7, 323999, Note_on_c, 1, 76, 0
7, 329760, Note_on_c, 1, 76, 44
7, 331649, Note_on_c, 1, 76, 0
7, 331665, Control_c, 1, 11, 96
7, 331680, Note_on_c, 1, 73, 60
7, 331680, Note_on_c, 1, 76, 60
7, 331680, Control_c, 1, 11, 96
7, 331840, Control_c, 1, 11, 99
7, 332000, Control_c, 1, 11, 101
7, 332159, Note_on_c, 1, 73, 0
7, 332159, Note_on_c, 1, 76, 0
7, 332160, Control_c, 1, 11, 104
7, 332160, Note_on_c, 1, 74, 60
7, 332160, Note_on_c, 1, 78, 60
7, 332320, Control_c, 1, 11, 106
7, 332480, Control_c, 1, 11, 109
7, 332639, Note_on_c, 1, 74, 0
7, 332639, Note_on_c, 1, 78, 0
7, 332640, Note_on_c, 1, 76, 60
7, 332640, Control_c, 1, 11, 112
7, 332640, Note_on_c, 1, 79, 60
7, 332800, Control_c, 1, 11, 114
7, 332960, Control_c, 1, 11, 117
7, 333119, Note_on_c, 1, 76, 0
7, 333119, Note_on_c, 1, 79, 0
7, 333120, Note_on_c, 1, 76, 60
7, 333120, Control_c, 1, 11, 119
7, 333120, Note_on_c, 1, 73, 60
7, 333280, Control_c, 1, 11, 122
7, 333440, Control_c, 1, 11, 124
7, 333599, Note_on_c, 1, 76, 0
7, 333599, Note_on_c, 1, 73, 0
7, 335760, Control_c, 1, 11, 127
7, 336000, Note_on_c, 1, 75, 44
7, 336179, Note_on_c, 1, 75, 0
7, 336480, Note_on_c, 1, 76, 44
7, 336659, Note_on_c, 1, 76, 0
7, 336960, Note_on_c, 1, 78, 44
7, 337139, Note_on_c, 1, 78, 0
7, 337440, Note_on_c, 1, 79, 44
7, 337619, Note_on_c, 1, 79, 0
7, 339840, Note_on_c, 1, 73, 44
7, 340019, Note_on_c, 1, 73, 0
7, 340320, Note_on_c, 1, 74, 44
7, 340499, Note_on_c, 1, 74, 0
7, 340800, Note_on_c, 1, 76, 44
7, 340979, Note_on_c, 1, 76, 0
7, 341280, Note_on_c, 1, 78, 44
7, 341459, Note_on_c, 1, 78, 0
7, 343680, Note_on_c, 1, 66, 44
7, 343859, Note_on_c, 1, 66, 0
7, 344160, Note_on_c, 1, 67, 44
7, 344339, Note_on_c, 1, 67, 0
7, 344640, Note_on_c, 1, 69, 44
7, 344819, Note_on_c, 1, 69, 0
7, 345120, Note_on_c, 1, 71, 44
7, 345120, Control_c, 1, 11, 127
7, 345299, Note_on_c, 1, 71, 0
7, 345440, Control_c, 1, 11, 126
7, 345600, Note_on_c, 1, 66, 44
7, 345760, Control_c, 1, 11, 125
7, 346079, Note_on_c, 1, 66, 0
7, 346080, Control_c, 1, 11, 123
7, 346080, Note_on_c, 1, 67, 44
7, 346400, Control_c, 1, 11, 122
7, 346559, Note_on_c, 1, 67, 0
7, 346560, Note_on_c, 1, 69, 44
7, 346720, Control_c, 1, 11, 121
7, 347009, Note_on_c, 1, 69, 0
7, 347040, Note_on_c, 1, 71, 44
7, 347040, Control_c, 1, 11, 120
7, 347360, Control_c, 1, 11, 118
7, 347519, Note_on_c, 1, 71, 0
7, 347520, Note_on_c, 1, 66, 44
7, 347680, Control_c, 1, 11, 117
7, 347999, Note_on_c, 1, 66, 0
7, 348000, Note_on_c, 1, 67, 44
7, 348000, Control_c, 1, 11, 116
7, 348320, Control_c, 1, 11, 115
7, 348479, Note_on_c, 1, 67, 0
7, 348480, Note_on_c, 1, 69, 44
7, 348640, Control_c, 1, 11, 113
7, 348929, Note_on_c, 1, 69, 0
7, 348945, Control_c, 1, 11, 127
7, 348960, Note_on_c, 1, 71, 44
7, 349919, Note_on_c, 1, 71, 0
7, 349920, Note_on_c, 1, 66, 44
7, 350879, Note_on_c, 1, 66, 0
7, 350880, Note_on_c, 1, 67, 44
7, 351839, Note_on_c, 1, 67, 0
7, 351840, Note_on_c, 1, 69, 44
7, 352799, Note_on_c, 1, 69, 0
7, 352800, Note_on_c, 1, 71, 44
7, 353039, Note_on_c, 1, 71, 0
7, 358560, Note_on_c, 1, 70, 84
7, 358560, Note_on_c, 1, 77, 84
7, 360449, Note_on_c, 1, 70, 0
7, 360449, Note_on_c, 1, 77, 0
7, 360480, Note_on_c, 1, 74, 84
7, 360480, Note_on_c, 1, 78, 84
7, 362369, Note_on_c, 1, 74, 0
7, 362369, Note_on_c, 1, 78, 0
7, 362400, Note_on_c, 1, 78, 92
7, 362400, Note_on_c, 1, 74, 92
7, 364289, Note_on_c, 1, 78, 0
7, 364289, Note_on_c, 1, 74, 0
7, 364320, Note_on_c, 1, 73, 92
7, 364320, Note_on_c, 1, 79, 92
7, 366209, Note_on_c, 1, 73, 0
7, 366209, Note_on_c, 1, 79, 0
7, 366240, Note_on_c, 1, 79, 92
7, 366240, Note_on_c, 1, 73, 92
7, 368129, Note_on_c, 1, 79, 0
7, 368129, Note_on_c, 1, 73, 0
7, 368160, Note_on_c, 1, 74, 84
7, 368160, Note_on_c, 1, 78, 84
7, 368399, Note_on_c, 1, 74, 0
7, 368399, Note_on_c, 1, 78, 0
7, 368880, Control_c, 1, 11, 112
7, 369000, Note_on_c, 1, 66, 84
7, 369000, Note_on_c, 1, 78, 84
7, 369119, Note_on_c, 1, 66, 0
7, 369119, Note_on_c, 1, 78, 0
7, 369120, Note_on_c, 1, 79, 84
7, 369120, Note_on_c, 1, 67, 84
7, 369140, Control_c, 1, 11, 113
7, 369359, Note_on_c, 1, 79, 0
7, 369359, Note_on_c, 1, 67, 0
7, 369400, Control_c, 1, 11, 115
7, 369660, Control_c, 1, 11, 116
7, 369920, Control_c, 1, 11, 117
7, 369960, Note_on_c, 1, 80, 84
7, 369960, Note_on_c, 1, 68, 84
7, 370079, Note_on_c, 1, 80, 0
7, 370079, Note_on_c, 1, 68, 0
7, 370080, Note_on_c, 1, 69, 84
7, 370080, Note_on_c, 1, 81, 84
7, 370180, Control_c, 1, 11, 118
7, 370319, Note_on_c, 1, 69, 0
7, 370319, Note_on_c, 1, 81, 0
7, 370440, Control_c, 1, 11, 120
7, 370700, Control_c, 1, 11, 121
7, 370920, Note_on_c, 1, 70, 84
7, 370920, Note_on_c, 1, 82, 84
7, 370960, Control_c, 1, 11, 122
7, 371039, Note_on_c, 1, 70, 0
7, 371039, Note_on_c, 1, 82, 0
7, 371040, Note_on_c, 1, 71, 84
7, 371040, Note_on_c, 1, 83, 84
7, 371220, Control_c, 1, 11, 123
7, 371279, Note_on_c, 1, 71, 0
7, 371279, Note_on_c, 1, 83, 0
7, 371480, Control_c, 1, 11, 125
7, 371740, Control_c, 1, 11, 126
7, 371880, Note_on_c, 1, 83, 84
7, 371880, Note_on_c, 1, 71, 84
7, 371969, Note_on_c, 1, 83, 0
7, 371969, Note_on_c, 1, 71, 0
7, 372000, Control_c, 1, 11, 127
7, 372000, Note_on_c, 1, 84, 84
7, 372000, Note_on_c, 1, 72, 84
7, 372089, Note_on_c, 1, 84, 0
7, 372089, Note_on_c, 1, 72, 0
7, 372120, Note_on_c, 1, 83, 84
7, 372120, Note_on_c, 1, 71, 84
7, 372209, Note_on_c, 1, 83, 0
7, 372209, Note_on_c, 1, 71, 0
7, 372240, Note_on_c, 1, 81, 84
7, 372240, Note_on_c, 1, 69, 84
7, 372329, Note_on_c, 1, 81, 0
7, 372329, Note_on_c, 1, 69, 0
7, 372360, Note_on_c, 1, 71, 84
7, 372360, Note_on_c, 1, 83, 84
7, 372449, Note_on_c, 1, 71, 0
7, 372449, Note_on_c, 1, 83, 0
7, 372480, Note_on_c, 1, 72, 84
7, 372480, Note_on_c, 1, 84, 84
7, 372569, Note_on_c, 1, 72, 0
7, 372569, Note_on_c, 1, 84, 0
7, 372600, Note_on_c, 1, 71, 84
7, 372600, Note_on_c, 1, 83, 84
7, 372689, Note_on_c, 1, 71, 0
7, 372689, Note_on_c, 1, 83, 0
7, 372720, Note_on_c, 1, 84, 84
7, 372720, Note_on_c, 1, 72, 84
7, 372809, Note_on_c, 1, 84, 0
7, 372809, Note_on_c, 1, 72, 0
7, 372840, Note_on_c, 1, 71, 84
7, 372840, Note_on_c, 1, 83, 84
7, 372929, Note_on_c, 1, 71, 0
7, 372929, Note_on_c, 1, 83, 0
7, 372960, Note_on_c, 1, 84, 84
7, 372960, Note_on_c, 1, 72, 84
7, 373049, Note_on_c, 1, 84, 0
7, 373049, Note_on_c, 1, 72, 0
7, 373080, Note_on_c, 1, 83, 84
7, 373080, Note_on_c, 1, 71, 84
7, 373169, Note_on_c, 1, 83, 0
7, 373169, Note_on_c, 1, 71, 0
7, 373200, Note_on_c, 1, 81, 84
7, 373200, Note_on_c, 1, 69, 84
7, 373289, Note_on_c, 1, 81, 0
7, 373289, Note_on_c, 1, 69, 0
7, 373320, Note_on_c, 1, 83, 84
7, 373320, Note_on_c, 1, 71, 84
7, 373409, Note_on_c, 1, 83, 0
7, 373409, Note_on_c, 1, 71, 0
7, 373440, Note_on_c, 1, 84, 84
7, 373440, Note_on_c, 1, 72, 84
7, 373529, Note_on_c, 1, 84, 0
7, 373529, Note_on_c, 1, 72, 0
7, 373560, Note_on_c, 1, 83, 84
7, 373560, Note_on_c, 1, 71, 84
7, 373649, Note_on_c, 1, 83, 0
7, 373649, Note_on_c, 1, 71, 0
7, 373680, Note_on_c, 1, 84, 84
7, 373680, Note_on_c, 1, 72, 84
7, 373769, Note_on_c, 1, 84, 0
7, 373769, Note_on_c, 1, 72, 0
7, 373800, Note_on_c, 1, 83, 84
7, 373800, Note_on_c, 1, 71, 84
7, 373889, Note_on_c, 1, 83, 0
7, 373889, Note_on_c, 1, 71, 0
7, 373920, Note_on_c, 1, 72, 84
7, 373920, Note_on_c, 1, 84, 84
7, 374009, Note_on_c, 1, 72, 0
7, 374009, Note_on_c, 1, 84, 0
7, 374040, Note_on_c, 1, 71, 84
7, 374040, Note_on_c, 1, 83, 84
7, 374129, Note_on_c, 1, 71, 0
7, 374129, Note_on_c, 1, 83, 0
7, 374160, Note_on_c, 1, 84, 84
7, 374160, Note_on_c, 1, 72, 84
7, 374249, Note_on_c, 1, 84, 0
7, 374249, Note_on_c, 1, 72, 0
7, 374280, Note_on_c, 1, 83, 84
7, 374280, Note_on_c, 1, 71, 84
7, 374369, Note_on_c, 1, 83, 0
7, 374369, Note_on_c, 1, 71, 0
7, 374400, Note_on_c, 1, 72, 84
7, 374400, Note_on_c, 1, 84, 84
7, 374489, Note_on_c, 1, 72, 0
7, 374489, Note_on_c, 1, 84, 0
7, 374520, Note_on_c, 1, 83, 84
7, 374520, Note_on_c, 1, 71, 84
7, 374609, Note_on_c, 1, 83, 0
7, 374609, Note_on_c, 1, 71, 0
7, 374640, Note_on_c, 1, 84, 84
7, 374640, Note_on_c, 1, 72, 84
7, 374729, Note_on_c, 1, 84, 0
7, 374729, Note_on_c, 1, 72, 0
7, 374760, Note_on_c, 1, 71, 84
7, 374760, Note_on_c, 1, 83, 84
7, 374849, Note_on_c, 1, 71, 0
7, 374849, Note_on_c, 1, 83, 0
7, 374880, Note_on_c, 1, 84, 84
7, 374880, Note_on_c, 1, 72, 84
7, 374969, Note_on_c, 1, 84, 0
7, 374969, Note_on_c, 1, 72, 0
7, 375000, Note_on_c, 1, 83, 84
7, 375089, Note_on_c, 1, 83, 0
7, 375120, Note_on_c, 1, 81, 84
7, 375209, Note_on_c, 1, 81, 0
7, 375240, Note_on_c, 1, 79, 84
7, 375329, Note_on_c, 1, 79, 0
7, 375360, Note_on_c, 1, 78, 84
7, 375449, Note_on_c, 1, 78, 0
7, 375480, Note_on_c, 1, 76, 84
7, 375569, Note_on_c, 1, 76, 0
7, 375600, Note_on_c, 1, 74, 84
7, 375689, Note_on_c, 1, 74, 0
7, 375720, Note_on_c, 1, 72, 84
7, 375809, Note_on_c, 1, 72, 0
7, 375840, Note_on_c, 1, 74, 84
7, 375840, Note_on_c, 1, 86, 84
7, 376799, Note_on_c, 1, 86, 0
7, 376800, Note_on_c, 1, 79, 84
7, 377729, Note_on_c, 1, 74, 0
7, 377729, Note_on_c, 1, 79, 0
7, 377760, Note_on_c, 1, 74, 92
7, 377760, Note_on_c, 1, 78, 92
7, 378689, Note_on_c, 1, 74, 0
7, 378689, Note_on_c, 1, 78, 0
7, 378720, Note_on_c, 1, 73, 92
7, 378720, Note_on_c, 1, 76, 92
7, 379649, Note_on_c, 1, 73, 0
7, 379649, Note_on_c, 1, 76, 0
7, 379680, Note_on_c, 1, 72, 84
7, 379680, Note_on_c, 1, 84, 84
7, 379769, Note_on_c, 1, 72, 0
7, 379769, Note_on_c, 1, 84, 0
7, 379800, Note_on_c, 1, 83, 84
7, 379800, Note_on_c, 1, 71, 84
7, 379889, Note_on_c, 1, 83, 0
7, 379889, Note_on_c, 1, 71, 0
7, 379920, Note_on_c, 1, 69, 84
7, 379920, Note_on_c, 1, 81, 84
7, 380009, Note_on_c, 1, 69, 0
7, 380009, Note_on_c, 1, 81, 0
7, 380040, Note_on_c, 1, 71, 84
7, 380040, Note_on_c, 1, 83, 84
7, 380129, Note_on_c, 1, 71, 0
7, 380129, Note_on_c, 1, 83, 0
7, 380160, Note_on_c, 1, 84, 84
7, 380160, Note_on_c, 1, 72, 84
7, 380249, Note_on_c, 1, 84, 0
7, 380249, Note_on_c, 1, 72, 0
7, 380280, Note_on_c, 1, 83, 84
7, 380280, Note_on_c, 1, 71, 84
7, 380369, Note_on_c, 1, 83, 0
7, 380369, Note_on_c, 1, 71, 0
7, 380400, Note_on_c, 1, 72, 84
7, 380400, Note_on_c, 1, 84, 84
7, 380489, Note_on_c, 1, 72, 0
7, 380489, Note_on_c, 1, 84, 0
7, 380520, Note_on_c, 1, 71, 84
7, 380520, Note_on_c, 1, 83, 84
7, 380609, Note_on_c, 1, 71, 0
7, 380609, Note_on_c, 1, 83, 0
7, 380640, Note_on_c, 1, 72, 84
7, 380640, Note_on_c, 1, 84, 84
7, 380729, Note_on_c, 1, 72, 0
7, 380729, Note_on_c, 1, 84, 0
7, 380760, Note_on_c, 1, 71, 84
7, 380760, Note_on_c, 1, 83, 84
7, 380849, Note_on_c, 1, 71, 0
7, 380849, Note_on_c, 1, 83, 0
7, 380880, Note_on_c, 1, 81, 84
7, 380880, Note_on_c, 1, 69, 84
7, 380969, Note_on_c, 1, 81, 0
7, 380969, Note_on_c, 1, 69, 0
7, 381000, Note_on_c, 1, 83, 84
7, 381000, Note_on_c, 1, 71, 84
7, 381089, Note_on_c, 1, 83, 0
7, 381089, Note_on_c, 1, 71, 0
7, 381120, Note_on_c, 1, 72, 84
7, 381120, Note_on_c, 1, 84, 84
7, 381209, Note_on_c, 1, 72, 0
7, 381209, Note_on_c, 1, 84, 0
7, 381240, Note_on_c, 1, 83, 84
7, 381240, Note_on_c, 1, 71, 84
7, 381329, Note_on_c, 1, 83, 0
7, 381329, Note_on_c, 1, 71, 0
7, 381360, Note_on_c, 1, 84, 84
7, 381360, Note_on_c, 1, 72, 84
7, 381449, Note_on_c, 1, 84, 0
7, 381449, Note_on_c, 1, 72, 0
7, 381480, Note_on_c, 1, 83, 84
7, 381480, Note_on_c, 1, 71, 84
7, 381569, Note_on_c, 1, 83, 0
7, 381569, Note_on_c, 1, 71, 0
7, 381600, Note_on_c, 1, 84, 84
7, 381600, Note_on_c, 1, 72, 84
7, 381689, Note_on_c, 1, 84, 0
7, 381689, Note_on_c, 1, 72, 0
7, 381720, Note_on_c, 1, 71, 84
7, 381720, Note_on_c, 1, 83, 84
7, 381809, Note_on_c, 1, 71, 0
7, 381809, Note_on_c, 1, 83, 0
7, 381840, Note_on_c, 1, 72, 84
7, 381840, Note_on_c, 1, 84, 84
7, 381929, Note_on_c, 1, 72, 0
7, 381929, Note_on_c, 1, 84, 0
7, 381960, Note_on_c, 1, 83, 84
7, 381960, Note_on_c, 1, 71, 84
7, 382049, Note_on_c, 1, 83, 0
7, 382049, Note_on_c, 1, 71, 0
7, 382080, Note_on_c, 1, 84, 84
7, 382080, Note_on_c, 1, 72, 84
7, 382169, Note_on_c, 1, 84, 0
7, 382169, Note_on_c, 1, 72, 0
7, 382200, Note_on_c, 1, 83, 84
7, 382200, Note_on_c, 1, 71, 84
7, 382289, Note_on_c, 1, 83, 0
7, 382289, Note_on_c, 1, 71, 0
7, 382320, Note_on_c, 1, 84, 84
7, 382320, Note_on_c, 1, 72, 84
7, 382409, Note_on_c, 1, 84, 0
7, 382409, Note_on_c, 1, 72, 0
7, 382440, Note_on_c, 1, 83, 84
7, 382440, Note_on_c, 1, 71, 84
7, 382529, Note_on_c, 1, 83, 0
7, 382529, Note_on_c, 1, 71, 0
7, 382560, Note_on_c, 1, 72, 84
7, 382560, Note_on_c, 1, 84, 84
7, 382649, Note_on_c, 1, 72, 0
7, 382649, Note_on_c, 1, 84, 0
7, 382680, Note_on_c, 1, 83, 84
7, 382769, Note_on_c, 1, 83, 0
7, 382800, Note_on_c, 1, 81, 84
7, 382889, Note_on_c, 1, 81, 0
7, 382920, Note_on_c, 1, 79, 84
7, 383009, Note_on_c, 1, 79, 0
7, 383040, Note_on_c, 1, 78, 84
7, 383129, Note_on_c, 1, 78, 0
7, 383160, Note_on_c, 1, 76, 84
7, 383249, Note_on_c, 1, 76, 0
7, 383280, Note_on_c, 1, 74, 84
7, 383369, Note_on_c, 1, 74, 0
7, 383400, Note_on_c, 1, 72, 84
7, 383489, Note_on_c, 1, 72, 0
7, 383520, Note_on_c, 1, 75, 92
7, 383520, Note_on_c, 1, 78, 92
7, 385409, Note_on_c, 1, 75, 0
7, 385409, Note_on_c, 1, 78, 0
7, 385440, Note_on_c, 1, 79, 84
7, 385440, Note_on_c, 1, 76, 84
7, 386369, Note_on_c, 1, 79, 0
7, 386369, Note_on_c, 1, 76, 0
7, 386400, Note_on_c, 1, 74, 84
7, 386400, Note_on_c, 1, 78, 84
7, 386849, Note_on_c, 1, 74, 0
7, 386849, Note_on_c, 1, 78, 0
7, 386880, Note_on_c, 1, 73, 84
7, 386880, Note_on_c, 1, 76, 84
7, 387329, Note_on_c, 1, 73, 0
7, 387329, Note_on_c, 1, 76, 0
7, 387360, Note_on_c, 1, 74, 84
7, 387599, Note_on_c, 1, 74, 0
7, 387720, Note_on_c, 1, 68, 52
7, 387720, Note_on_c, 1, 80, 52
7, 387839, Note_on_c, 1, 68, 0
7, 387839, Note_on_c, 1, 80, 0
7, 387840, Note_on_c, 1, 69, 52
7, 387840, Note_on_c, 1, 81, 52
7, 388079, Note_on_c, 1, 69, 0
7, 388079, Note_on_c, 1, 81, 0
7, 389640, Note_on_c, 1, 68, 52
7, 389640, Note_on_c, 1, 80, 52
7, 389759, Note_on_c, 1, 68, 0
7, 389759, Note_on_c, 1, 80, 0
7, 389760, Note_on_c, 1, 81, 52
7, 389760, Note_on_c, 1, 69, 52
7, 389999, Note_on_c, 1, 81, 0
7, 389999, Note_on_c, 1, 69, 0
7, 391560, Note_on_c, 1, 68, 52
7, 391560, Note_on_c, 1, 80, 52
7, 391679, Note_on_c, 1, 68, 0
7, 391679, Note_on_c, 1, 80, 0
7, 391680, Note_on_c, 1, 81, 52
7, 391680, Note_on_c, 1, 69, 52
7, 391919, Note_on_c, 1, 81, 0
7, 391919, Note_on_c, 1, 69, 0
7, 393480, Note_on_c, 1, 68, 52
7, 393480, Note_on_c, 1, 80, 52
7, 393599, Note_on_c, 1, 68, 0
7, 393599, Note_on_c, 1, 80, 0
7, 393600, Note_on_c, 1, 81, 52
7, 393600, Note_on_c, 1, 69, 52
7, 393839, Note_on_c, 1, 81, 0
7, 393839, Note_on_c, 1, 69, 0
7, 394800, Control_c, 1, 11, 80
7, 394920, Note_on_c, 1, 80, 76
7, 394920, Note_on_c, 1, 68, 76
7, 395039, Note_on_c, 1, 80, 0
7, 395039, Note_on_c, 1, 68, 0
7, 395040, Note_on_c, 1, 69, 76
7, 395040, Note_on_c, 1, 81, 76
7, 395140, Control_c, 1, 11, 84
7, 395279, Note_on_c, 1, 69, 0
7, 395279, Note_on_c, 1, 81, 0
7, 395480, Control_c, 1, 11, 88
7, 395820, Control_c, 1, 11, 92
7, 395880, Note_on_c, 1, 80, 76
7, 395880, Note_on_c, 1, 68, 76
7, 395999, Note_on_c, 1, 80, 0
7, 395999, Note_on_c, 1, 68, 0
7, 396000, Note_on_c, 1, 81, 76
7, 396000, Note_on_c, 1, 69, 76
7, 396160, Control_c, 1, 11, 96
7, 396239, Note_on_c, 1, 81, 0
7, 396239, Note_on_c, 1, 69, 0
7, 396500, Control_c, 1, 11, 100
7, 396840, Note_on_c, 1, 68, 76
7, 396840, Note_on_c, 1, 80, 76
7, 396840, Control_c, 1, 11, 104
7, 396959, Note_on_c, 1, 68, 0
7, 396959, Note_on_c, 1, 80, 0
7, 396960, Note_on_c, 1, 81, 76
7, 396960, Note_on_c, 1, 69, 76
7, 397180, Control_c, 1, 11, 107
7, 397199, Note_on_c, 1, 81, 0
7, 397199, Note_on_c, 1, 69, 0
7, 397520, Control_c, 1, 11, 111
7, 397800, Note_on_c, 1, 68, 76
7, 397800, Note_on_c, 1, 80, 76
7, 397860, Control_c, 1, 11, 115
7, 397919, Note_on_c, 1, 68, 0
7, 397919, Note_on_c, 1, 80, 0
7, 397920, Note_on_c, 1, 69, 76
7, 397920, Note_on_c, 1, 81, 76
7, 398159, Note_on_c, 1, 69, 0
7, 398159, Note_on_c, 1, 81, 0
7, 398200, Control_c, 1, 11, 119
7, 398540, Control_c, 1, 11, 123
7, 398880, Control_c, 1, 11, 127
7, 398880, Note_on_c, 1, 74, 76
7, 399119, Note_on_c, 1, 74, 0
7, 399360, Note_on_c, 1, 66, 84
7, 399360, Note_on_c, 1, 78, 84
7, 400739, Note_on_c, 1, 66, 0
7, 400739, Note_on_c, 1, 78, 0
7, 404640, Note_on_c, 1, 79, 44
7, 406799, Note_on_c, 1, 79, 0
7, 408360, Note_on_c, 1, 73, 84
7, 408479, Note_on_c, 1, 73, 0
7, 408480, Note_on_c, 1, 74, 84
7, 408659, Note_on_c, 1, 74, 0
7, 410280, Note_on_c, 1, 73, 84
7, 410399, Note_on_c, 1, 73, 0
7, 410400, Note_on_c, 1, 74, 84
7, 410579, Note_on_c, 1, 74, 0
7, 412200, Note_on_c, 1, 73, 84
7, 412319, Note_on_c, 1, 73, 0
7, 412320, Note_on_c, 1, 74, 84
7, 412499, Note_on_c, 1, 74, 0
7, 413280, Note_on_c, 1, 74, 84
7, 413459, Note_on_c, 1, 74, 0
7, 414240, Note_on_c, 1, 74, 84
7, 414419, Note_on_c, 1, 74, 0
7, 414960, Note_on_c, 1, 69, 84
7, 415139, Note_on_c, 1, 69, 0
7, 415200, Note_on_c, 1, 74, 84
7, 415379, Note_on_c, 1, 74, 0
7, 415440, Note_on_c, 1, 69, 84
7, 415619, Note_on_c, 1, 69, 0
7, 415680, Note_on_c, 1, 74, 84
7, 415859, Note_on_c, 1, 74, 0
7, 415920, Note_on_c, 1, 69, 84
7, 416099, Note_on_c, 1, 69, 0
7, 416160, Note_on_c, 1, 74, 84
7, 416339, Note_on_c, 1, 74, 0
7, 416400, Note_on_c, 1, 76, 84
7, 416400, Note_on_c, 1, 73, 84
7, 416579, Note_on_c, 1, 76, 0
7, 416579, Note_on_c, 1, 73, 0
7, 416640, Note_on_c, 1, 78, 84
7, 416640, Note_on_c, 1, 74, 84
7, 416819, Note_on_c, 1, 78, 0
7, 416819, Note_on_c, 1, 74, 0
7, 416880, Note_on_c, 1, 76, 84
7, 416880, Note_on_c, 1, 73, 84
7, 417059, Note_on_c, 1, 76, 0
7, 417059, Note_on_c, 1, 73, 0
7, 417120, Note_on_c, 1, 78, 84
7, 417120, Note_on_c, 1, 74, 84
7, 417299, Note_on_c, 1, 78, 0
7, 417299, Note_on_c, 1, 74, 0
7, 417360, Note_on_c, 1, 76, 84
7, 417360, Note_on_c, 1, 73, 84
7, 417539, Note_on_c, 1, 76, 0
7, 417539, Note_on_c, 1, 73, 0
7, 417600, Note_on_c, 1, 78, 84
7, 417600, Note_on_c, 1, 74, 84
7, 417779, Note_on_c, 1, 78, 0
7, 417779, Note_on_c, 1, 74, 0
7, 417840, Note_on_c, 1, 76, 84
7, 417840, Note_on_c, 1, 73, 84
7, 418019, Note_on_c, 1, 76, 0
7, 418019, Note_on_c, 1, 73, 0
7, 418080, Note_on_c, 1, 78, 84
7, 418080, Note_on_c, 1, 74, 84
7, 418259, Note_on_c, 1, 78, 0
7, 418259, Note_on_c, 1, 74, 0
7, 419040, Note_on_c, 1, 86, 84
7, 419040, Note_on_c, 1, 74, 84
7, 419219, Note_on_c, 1, 86, 0
7, 419219, Note_on_c, 1, 74, 0
7, 419280, Note_on_c, 1, 85, 84
7, 419280, Note_on_c, 1, 73, 84
7, 419399, Note_on_c, 1, 85, 0
7, 419399, Note_on_c, 1, 73, 0
7, 419400, Note_on_c, 1, 83, 84
7, 419400, Note_on_c, 1, 71, 84
7, 419519, Note_on_c, 1, 83, 0
7, 419519, Note_on_c, 1, 71, 0
7, 419520, Note_on_c, 1, 81, 84
7, 419520, Note_on_c, 1, 69, 84
7, 419639, Note_on_c, 1, 81, 0
7, 419639, Note_on_c, 1, 69, 0
7, 419640, Note_on_c, 1, 79, 84
7, 419640, Note_on_c, 1, 67, 84
7, 419759, Note_on_c, 1, 79, 0
7, 419759, Note_on_c, 1, 67, 0
7, 419760, Note_on_c, 1, 78, 84
7, 419760, Note_on_c, 1, 66, 84
7, 419879, Note_on_c, 1, 78, 0
7, 419879, Note_on_c, 1, 66, 0
7, 419880, Note_on_c, 1, 76, 84
7, 419880, Note_on_c, 1, 64, 84
7, 419969, Note_on_c, 1, 76, 0
7, 419969, Note_on_c, 1, 64, 0
7, 420000, Note_on_c, 1, 62, 84
7, 420000, Note_on_c, 1, 74, 84
7, 420119, Note_on_c, 1, 74, 0
7, 420120, Note_on_c, 1, 73, 84
7, 420239, Note_on_c, 1, 62, 0
7, 420239, Note_on_c, 1, 73, 0
7, 420240, Note_on_c, 1, 74, 84
7, 420359, Note_on_c, 1, 74, 0
7, 420360, Note_on_c, 1, 73, 84
7, 420479, Note_on_c, 1, 73, 0
7, 420480, Note_on_c, 1, 74, 84
7, 420599, Note_on_c, 1, 74, 0
7, 420600, Note_on_c, 1, 73, 84
7, 420719, Note_on_c, 1, 73, 0
7, 420720, Note_on_c, 1, 74, 84
7, 420839, Note_on_c, 1, 74, 0
7, 420840, Note_on_c, 1, 73, 84
7, 420929, Note_on_c, 1, 73, 0
7, 420960, Note_on_c, 1, 74, 84
7, 421079, Note_on_c, 1, 74, 0
7, 421080, Note_on_c, 1, 73, 84
7, 421199, Note_on_c, 1, 73, 0
7, 421200, Note_on_c, 1, 74, 84
7, 421319, Note_on_c, 1, 74, 0
7, 421320, Note_on_c, 1, 73, 84
7, 421439, Note_on_c, 1, 73, 0
7, 421440, Note_on_c, 1, 74, 84
7, 421559, Note_on_c, 1, 74, 0
7, 421560, Note_on_c, 1, 73, 84
7, 421679, Note_on_c, 1, 73, 0
7, 421680, Note_on_c, 1, 74, 84
7, 421799, Note_on_c, 1, 74, 0
7, 421800, Note_on_c, 1, 73, 84
7, 421889, Note_on_c, 1, 73, 0
7, 421920, Note_on_c, 1, 74, 84
7, 422159, Note_on_c, 1, 74, 0
7, 422880, Note_on_c, 1, 78, 84
7, 422880, Note_on_c, 1, 74, 84
7, 423119, Note_on_c, 1, 78, 0
7, 423119, Note_on_c, 1, 74, 0
7, 423360, Note_on_c, 1, 78, 84
7, 423360, Note_on_c, 1, 74, 84
7, 423599, Note_on_c, 1, 78, 0
7, 423599, Note_on_c, 1, 74, 0
7, 423840, Note_on_c, 1, 78, 84
7, 423840, Note_on_c, 1, 74, 84
7, 424079, Note_on_c, 1, 78, 0
7, 424079, Note_on_c, 1, 74, 0
7, 424800, Note_on_c, 1, 78, 84
7, 424800, Note_on_c, 1, 74, 84
7, 425039, Note_on_c, 1, 78, 0
7, 425039, Note_on_c, 1, 74, 0
7, 425760, Note_on_c, 1, 74, 84
7, 425999, Note_on_c, 1, 74, 0
7, 425999, End_track
8, 0, Start_track
8, 0, Title_t, "Clarinet in A"
8, 0, MIDI_port, 0
8, 0, Program_c, 2, 71
8, 0, Control_c, 2, 7, 96
8, 0, Control_c, 2, 10, 75
8, 0, Control_c, 2, 11, 127
8, 5280, Note_on_c, 2, 74, 76
8, 5280, Note_on_c, 2, 66, 76
8, 5459, Note_on_c, 2, 74, 0
8, 5459, Note_on_c, 2, 66, 0
8, 5520, Note_on_c, 2, 69, 76
8, 5520, Note_on_c, 2, 76, 76
8, 5699, Note_on_c, 2, 69, 0
8, 5699, Note_on_c, 2, 76, 0
8, 7200, Note_on_c, 2, 64, 76
8, 7200, Note_on_c, 2, 76, 76
8, 7379, Note_on_c, 2, 64, 0
8, 7379, Note_on_c, 2, 76, 0
8, 7440, Note_on_c, 2, 57, 76
8, 7440, Note_on_c, 2, 69, 76
8, 7619, Note_on_c, 2, 57, 0
8, 7619, Note_on_c, 2, 69, 0
8, 10560, Note_on_c, 2, 73, 52
8, 10560, Note_on_c, 2, 67, 52
8, 11039, Note_on_c, 2, 73, 0
8, 11039, Note_on_c, 2, 67, 0
8, 11040, Note_on_c, 2, 74, 76
8, 11040, Note_on_c, 2, 66, 76
8, 11279, Note_on_c, 2, 74, 0
8, 11279, Note_on_c, 2, 66, 0
8, 17520, Note_on_c, 2, 74, 76
8, 17520, Note_on_c, 2, 66, 76
8, 17699, Note_on_c, 2, 74, 0
8, 17699, Note_on_c, 2, 66, 0
8, 17760, Note_on_c, 2, 67, 76
8, 17760, Note_on_c, 2, 74, 76
8, 17939, Note_on_c, 2, 67, 0
8, 17939, Note_on_c, 2, 74, 0
8, 18000, Note_on_c, 2, 66, 76
8, 18000, Note_on_c, 2, 74, 76
8, 18179, Note_on_c, 2, 66, 0
8, 18179, Note_on_c, 2, 74, 0
8, 18240, Note_on_c, 2, 74, 76
8, 18240, Note_on_c, 2, 67, 76
8, 18419, Note_on_c, 2, 74, 0
8, 18419, Note_on_c, 2, 67, 0
8, 18480, Note_on_c, 2, 74, 76
8, 18480, Note_on_c, 2, 68, 76
8, 18659, Note_on_c, 2, 74, 0
8, 18659, Note_on_c, 2, 68, 0
8, 18720, Note_on_c, 2, 69, 84
8, 18720, Note_on_c, 2, 73, 84
8, 18959, Note_on_c, 2, 69, 0
8, 18959, Note_on_c, 2, 73, 0
8, 21120, Note_on_c, 2, 69, 84
8, 21120, Note_on_c, 2, 81, 84
8, 22079, Note_on_c, 2, 69, 0
8, 22079, Note_on_c, 2, 81, 0
8, 22080, Note_on_c, 2, 80, 84
8, 22080, Note_on_c, 2, 68, 84
8, 22529, Note_on_c, 2, 80, 0
8, 22529, Note_on_c, 2, 68, 0
8, 22560, Note_on_c, 2, 81, 84
8, 22560, Note_on_c, 2, 69, 84
8, 22769, Note_on_c, 2, 81, 0
8, 22769, Note_on_c, 2, 69, 0
8, 22800, Note_on_c, 2, 57, 84
8, 22800, Note_on_c, 2, 69, 84
8, 23009, Note_on_c, 2, 57, 0
8, 23009, Note_on_c, 2, 69, 0
8, 23040, Note_on_c, 2, 57, 84
8, 23040, Note_on_c, 2, 69, 84
8, 23249, Note_on_c, 2, 57, 0
8, 23249, Note_on_c, 2, 69, 0
8, 23280, Note_on_c, 2, 57, 84
8, 23280, Note_on_c, 2, 69, 84
8, 23489, Note_on_c, 2, 57, 0
8, 23489, Note_on_c, 2, 69, 0
8, 23520, Note_on_c, 2, 57, 84
8, 23520, Note_on_c, 2, 69, 84
8, 23759, Note_on_c, 2, 57, 0
8, 23759, Note_on_c, 2, 69, 0
8, 30240, Note_on_c, 2, 69, 52
8, 30719, Note_on_c, 2, 69, 0
8, 30720, Note_on_c, 2, 71, 52
8, 30959, Note_on_c, 2, 71, 0
8, 30960, Note_on_c, 2, 73, 52
8, 31169, Note_on_c, 2, 73, 0
8, 31200, Note_on_c, 2, 74, 52
8, 31889, Note_on_c, 2, 74, 0
8, 31920, Note_on_c, 2, 74, 52
8, 32129, Note_on_c, 2, 74, 0
8, 32160, Note_on_c, 2, 74, 52
8, 32399, Note_on_c, 2, 74, 0
8, 32400, Note_on_c, 2, 73, 52
8, 32639, Note_on_c, 2, 73, 0
8, 32640, Note_on_c, 2, 71, 52
8, 32879, Note_on_c, 2, 71, 0
8, 32880, Note_on_c, 2, 69, 52
8, 33089, Note_on_c, 2, 69, 0
8, 33120, Note_on_c, 2, 74, 52
8, 33809, Note_on_c, 2, 74, 0
8, 33825, Control_c, 2, 11, 96
8, 33840, Note_on_c, 2, 74, 68
8, 34049, Note_on_c, 2, 74, 0
8, 34080, Control_c, 2, 11, 96
8, 34080, Note_on_c, 2, 74, 68
8, 34240, Control_c, 2, 11, 99
8, 34319, Note_on_c, 2, 74, 0
8, 34320, Note_on_c, 2, 73, 68
8, 34400, Control_c, 2, 11, 101
8, 34559, Note_on_c, 2, 73, 0
8, 34560, Note_on_c, 2, 73, 68
8, 34560, Control_c, 2, 11, 104
8, 34560, Note_on_c, 2, 76, 68
8, 34720, Control_c, 2, 11, 106
8, 34799, Note_on_c, 2, 73, 0
8, 34799, Note_on_c, 2, 76, 0
8, 34800, Note_on_c, 2, 71, 68
8, 34800, Note_on_c, 2, 74, 68
8, 34880, Control_c, 2, 11, 109
8, 35039, Note_on_c, 2, 71, 0
8, 35039, Note_on_c, 2, 74, 0
8, 35040, Note_on_c, 2, 69, 68
8, 35040, Control_c, 2, 11, 112
8, 35040, Note_on_c, 2, 73, 68
8, 35200, Control_c, 2, 11, 114
8, 35279, Note_on_c, 2, 69, 0
8, 35279, Note_on_c, 2, 73, 0
8, 35280, Note_on_c, 2, 71, 68
8, 35280, Note_on_c, 2, 67, 68
8, 35360, Control_c, 2, 11, 117
8, 35519, Note_on_c, 2, 71, 0
8, 35519, Note_on_c, 2, 67, 0
8, 35520, Control_c, 2, 11, 119
8, 35520, Note_on_c, 2, 69, 68
8, 35520, Note_on_c, 2, 66, 68
8, 35680, Control_c, 2, 11, 122
8, 35759, Note_on_c, 2, 69, 0
8, 35759, Note_on_c, 2, 66, 0
8, 35760, Note_on_c, 2, 64, 68
8, 35760, Note_on_c, 2, 67, 68
8, 35840, Control_c, 2, 11, 127
8, 35969, Note_on_c, 2, 64, 0
8, 35969, Note_on_c, 2, 67, 0
8, 36000, Note_on_c, 2, 66, 52
8, 36000, Note_on_c, 2, 62, 52
8, 36239, Note_on_c, 2, 66, 0
8, 36239, Note_on_c, 2, 62, 0
8, 38880, Note_on_c, 2, 69, 52
8, 38880, Note_on_c, 2, 67, 52
8, 39359, Note_on_c, 2, 69, 0
8, 39360, Note_on_c, 2, 71, 52
8, 39569, Note_on_c, 2, 67, 0
8, 39599, Note_on_c, 2, 71, 0
8, 39600, Note_on_c, 2, 67, 52
8, 39600, Note_on_c, 2, 73, 52
8, 39809, Note_on_c, 2, 67, 0
8, 39809, Note_on_c, 2, 73, 0
8, 39840, Note_on_c, 2, 66, 52
8, 39840, Note_on_c, 2, 74, 52
8, 40019, Note_on_c, 2, 66, 0
8, 40019, Note_on_c, 2, 74, 0
8, 42720, Note_on_c, 2, 68, 84
8, 42720, Note_on_c, 2, 71, 84
8, 43679, Note_on_c, 2, 68, 0
8, 43679, Note_on_c, 2, 71, 0
8, 44640, Note_on_c, 2, 69, 84
8, 44640, Note_on_c, 2, 72, 84
8, 45599, Note_on_c, 2, 69, 0
8, 45599, Note_on_c, 2, 72, 0
8, 46080, Note_on_c, 2, 68, 84
8, 46080, Note_on_c, 2, 71, 84
8, 46559, Note_on_c, 2, 68, 0
8, 46559, Note_on_c, 2, 71, 0
8, 47040, Note_on_c, 2, 69, 84
8, 47040, Note_on_c, 2, 73, 84
8, 47489, Note_on_c, 2, 69, 0
8, 47489, Note_on_c, 2, 73, 0
8, 47520, Note_on_c, 2, 74, 76
8, 47520, Note_on_c, 2, 68, 76
8, 47759, Note_on_c, 2, 74, 0
8, 47759, Note_on_c, 2, 68, 0
8, 49440, Note_on_c, 2, 76, 52
8, 50399, Note_on_c, 2, 76, 0
8, 50400, Note_on_c, 2, 73, 52
8, 50879, Note_on_c, 2, 73, 0
8, 50880, Note_on_c, 2, 69, 52
8, 51329, Note_on_c, 2, 69, 0
8, 51360, Note_on_c, 2, 64, 52
8, 51599, Note_on_c, 2, 64, 0
8, 53280, Note_on_c, 2, 76, 52
8, 54239, Note_on_c, 2, 76, 0
8, 54240, Note_on_c, 2, 73, 52
8, 54719, Note_on_c, 2, 73, 0
8, 54720, Note_on_c, 2, 69, 52
8, 55169, Note_on_c, 2, 69, 0
8, 55200, Note_on_c, 2, 64, 52
8, 55439, Note_on_c, 2, 64, 0
8, 64800, Note_on_c, 2, 76, 68
8, 65759, Note_on_c, 2, 76, 0
8, 65760, Note_on_c, 2, 72, 52
8, 66239, Note_on_c, 2, 72, 0
8, 66240, Note_on_c, 2, 69, 52
8, 66689, Note_on_c, 2, 69, 0
8, 66720, Note_on_c, 2, 64, 52
8, 66959, Note_on_c, 2, 64, 0
8, 80160, Note_on_c, 2, 64, 76
8, 80160, Note_on_c, 2, 69, 76
8, 81809, Note_on_c, 2, 64, 0
8, 81840, Note_on_c, 2, 61, 76
8, 82049, Note_on_c, 2, 69, 0
8, 82049, Note_on_c, 2, 61, 0
8, 82080, Note_on_c, 2, 71, 84
8, 82080, Note_on_c, 2, 69, 84
8, 83969, Note_on_c, 2, 71, 0
8, 83969, Note_on_c, 2, 69, 0
8, 84000, Note_on_c, 2, 73, 84
8, 84000, Note_on_c, 2, 69, 84
8, 84929, Note_on_c, 2, 73, 0
8, 84929, Note_on_c, 2, 69, 0
8, 84960, Note_on_c, 2, 68, 84
8, 84960, Note_on_c, 2, 71, 84
8, 85919, Note_on_c, 2, 68, 0
8, 85919, Note_on_c, 2, 71, 0
8, 89760, Note_on_c, 2, 79, 84
8, 89760, Note_on_c, 2, 69, 84
8, 93839, Note_on_c, 2, 79, 0
8, 93839, Note_on_c, 2, 69, 0
8, 108000, Note_on_c, 2, 66, 76
8, 108000, Note_on_c, 2, 74, 76
8, 108179, Note_on_c, 2, 66, 0
8, 108179, Note_on_c, 2, 74, 0
8, 108240, Note_on_c, 2, 76, 76
8, 108240, Note_on_c, 2, 69, 76
8, 108419, Note_on_c, 2, 76, 0
8, 108419, Note_on_c, 2, 69, 0
8, 109920, Note_on_c, 2, 76, 76
8, 109920, Note_on_c, 2, 64, 76
8, 110099, Note_on_c, 2, 76, 0
8, 110099, Note_on_c, 2, 64, 0
8, 110160, Note_on_c, 2, 69, 76
8, 110160, Note_on_c, 2, 57, 76
8, 110339, Note_on_c, 2, 69, 0
8, 110339, Note_on_c, 2, 57, 0
8, 115200, Note_on_c, 2, 65, 84
8, 115200, Note_on_c, 2, 69, 84
8, 115679, Note_on_c, 2, 65, 0
8, 115679, Note_on_c, 2, 69, 0
8, 115680, Note_on_c, 2, 67, 76
8, 115680, Note_on_c, 2, 70, 76
8, 115919, Note_on_c, 2, 67, 0
8, 115919, Note_on_c, 2, 70, 0
8, 117120, Note_on_c, 2, 70, 84
8, 117120, Note_on_c, 2, 67, 84
8, 117599, Note_on_c, 2, 70, 0
8, 117599, Note_on_c, 2, 67, 0
8, 117600, Note_on_c, 2, 65, 76
8, 117600, Note_on_c, 2, 69, 76
8, 117839, Note_on_c, 2, 65, 0
8, 117839, Note_on_c, 2, 69, 0
8, 119040, Note_on_c, 2, 74, 76
8, 119040, Note_on_c, 2, 65, 76
8, 119219, Note_on_c, 2, 74, 0
8, 119219, Note_on_c, 2, 65, 0
8, 119280, Note_on_c, 2, 74, 76
8, 119280, Note_on_c, 2, 65, 76
8, 119459, Note_on_c, 2, 74, 0
8, 119459, Note_on_c, 2, 65, 0
8, 120960, Note_on_c, 2, 73, 76
8, 120960, Note_on_c, 2, 67, 76
8, 121139, Note_on_c, 2, 73, 0
8, 121139, Note_on_c, 2, 67, 0
8, 121200, Note_on_c, 2, 73, 76
8, 121200, Note_on_c, 2, 67, 76
8, 121379, Note_on_c, 2, 73, 0
8, 121379, Note_on_c, 2, 67, 0
8, 121920, Note_on_c, 2, 65, 76
8, 121920, Note_on_c, 2, 74, 76
8, 122099, Note_on_c, 2, 65, 0
8, 122099, Note_on_c, 2, 74, 0
8, 122160, Note_on_c, 2, 65, 76
8, 122160, Note_on_c, 2, 74, 76
8, 122339, Note_on_c, 2, 65, 0
8, 122339, Note_on_c, 2, 74, 0
8, 122880, Note_on_c, 2, 67, 76
8, 122880, Note_on_c, 2, 73, 76
8, 123059, Note_on_c, 2, 67, 0
8, 123059, Note_on_c, 2, 73, 0
8, 123120, Note_on_c, 2, 73, 76
8, 123120, Note_on_c, 2, 67, 76
8, 123299, Note_on_c, 2, 73, 0
8, 123299, Note_on_c, 2, 67, 0
8, 123840, Note_on_c, 2, 74, 76
8, 123840, Note_on_c, 2, 65, 76
8, 124019, Note_on_c, 2, 74, 0
8, 124019, Note_on_c, 2, 65, 0
8, 124080, Note_on_c, 2, 65, 76
8, 124080, Note_on_c, 2, 74, 76
8, 124259, Note_on_c, 2, 65, 0
8, 124259, Note_on_c, 2, 74, 0
8, 124800, Note_on_c, 2, 73, 76
8, 124800, Note_on_c, 2, 67, 76
8, 124979, Note_on_c, 2, 73, 0
8, 124979, Note_on_c, 2, 67, 0
8, 125040, Note_on_c, 2, 67, 76
8, 125040, Note_on_c, 2, 73, 76
8, 125219, Note_on_c, 2, 67, 0
8, 125219, Note_on_c, 2, 73, 0
8, 125280, Note_on_c, 2, 74, 76
8, 125280, Note_on_c, 2, 65, 76
8, 125519, Note_on_c, 2, 74, 0
8, 125519, Note_on_c, 2, 65, 0
8, 181920, Note_on_c, 2, 74, 76
8, 181920, Note_on_c, 2, 66, 76
8, 182099, Note_on_c, 2, 74, 0
8, 182099, Note_on_c, 2, 66, 0
8, 182160, Note_on_c, 2, 69, 76
8, 182160, Note_on_c, 2, 76, 76
8, 182339, Note_on_c, 2, 69, 0
8, 182339, Note_on_c, 2, 76, 0
8, 183840, Note_on_c, 2, 64, 76
8, 183840, Note_on_c, 2, 76, 76
8, 184019, Note_on_c, 2, 64, 0
8, 184019, Note_on_c, 2, 76, 0
8, 184080, Note_on_c, 2, 57, 76
8, 184080, Note_on_c, 2, 69, 76
8, 184259, Note_on_c, 2, 57, 0
8, 184259, Note_on_c, 2, 69, 0
8, 187200, Note_on_c, 2, 73, 52
8, 187200, Note_on_c, 2, 67, 52
8, 187679, Note_on_c, 2, 73, 0
8, 187679, Note_on_c, 2, 67, 0
8, 187680, Note_on_c, 2, 74, 52
8, 187680, Note_on_c, 2, 66, 52
8, 187919, Note_on_c, 2, 74, 0
8, 187919, Note_on_c, 2, 66, 0
8, 194160, Note_on_c, 2, 66, 76
8, 194160, Note_on_c, 2, 74, 76
8, 194339, Note_on_c, 2, 66, 0
8, 194339, Note_on_c, 2, 74, 0
8, 194400, Note_on_c, 2, 67, 76
8, 194400, Note_on_c, 2, 74, 76
8, 194579, Note_on_c, 2, 67, 0
8, 194579, Note_on_c, 2, 74, 0
8, 194640, Note_on_c, 2, 66, 76
8, 194640, Note_on_c, 2, 74, 76
8, 194819, Note_on_c, 2, 66, 0
8, 194819, Note_on_c, 2, 74, 0
8, 194880, Note_on_c, 2, 74, 76
8, 194880, Note_on_c, 2, 67, 76
8, 195059, Note_on_c, 2, 74, 0
8, 195059, Note_on_c, 2, 67, 0
8, 195120, Note_on_c, 2, 74, 76
8, 195120, Note_on_c, 2, 68, 76
8, 195299, Note_on_c, 2, 74, 0
8, 195299, Note_on_c, 2, 68, 0
8, 195360, Note_on_c, 2, 69, 84
8, 195360, Note_on_c, 2, 73, 84
8, 195599, Note_on_c, 2, 69, 0
8, 195599, Note_on_c, 2, 73, 0
8, 197760, Note_on_c, 2, 69, 84
8, 197760, Note_on_c, 2, 81, 84
8, 198719, Note_on_c, 2, 69, 0
8, 198719, Note_on_c, 2, 81, 0
8, 198720, Note_on_c, 2, 68, 84
8, 198720, Note_on_c, 2, 80, 84
8, 199169, Note_on_c, 2, 68, 0
8, 199169, Note_on_c, 2, 80, 0
8, 199200, Note_on_c, 2, 81, 84
8, 199200, Note_on_c, 2, 69, 84
8, 199409, Note_on_c, 2, 81, 0
8, 199409, Note_on_c, 2, 69, 0
8, 199440, Note_on_c, 2, 57, 84
8, 199440, Note_on_c, 2, 69, 84
8, 199649, Note_on_c, 2, 57, 0
8, 199649, Note_on_c, 2, 69, 0
8, 199680, Note_on_c, 2, 57, 84
8, 199680, Note_on_c, 2, 69, 84
8, 199889, Note_on_c, 2, 57, 0
8, 199889, Note_on_c, 2, 69, 0
8, 199920, Note_on_c, 2, 69, 84
8, 199920, Note_on_c, 2, 57, 84
8, 200129, Note_on_c, 2, 69, 0
8, 200129, Note_on_c, 2, 57, 0
8, 200160, Note_on_c, 2, 69, 84
8, 200160, Note_on_c, 2, 57, 84
8, 200399, Note_on_c, 2, 69, 0
8, 200399, Note_on_c, 2, 57, 0
8, 206880, Note_on_c, 2, 69, 52
8, 207359, Note_on_c, 2, 69, 0
8, 207360, Note_on_c, 2, 71, 52
8, 207599, Note_on_c, 2, 71, 0
8, 207600, Note_on_c, 2, 73, 52
8, 207809, Note_on_c, 2, 73, 0
8, 207840, Note_on_c, 2, 74, 52
8, 208529, Note_on_c, 2, 74, 0
8, 208560, Note_on_c, 2, 74, 52
8, 208769, Note_on_c, 2, 74, 0
8, 208800, Note_on_c, 2, 74, 52
8, 209039, Note_on_c, 2, 74, 0
8, 209040, Note_on_c, 2, 72, 52
8, 209279, Note_on_c, 2, 72, 0
8, 209280, Note_on_c, 2, 71, 52
8, 209519, Note_on_c, 2, 71, 0
8, 209520, Note_on_c, 2, 69, 52
8, 209729, Note_on_c, 2, 69, 0
8, 209760, Note_on_c, 2, 74, 52
8, 210449, Note_on_c, 2, 74, 0
8, 210480, Note_on_c, 2, 74, 52
8, 210689, Note_on_c, 2, 74, 0
8, 210720, Note_on_c, 2, 72, 52
8, 210959, Note_on_c, 2, 72, 0
8, 212640, Note_on_c, 2, 62, 52
8, 212640, Note_on_c, 2, 74, 52
8, 215999, Note_on_c, 2, 62, 0
8, 215999, Note_on_c, 2, 74, 0
8, 216000, Note_on_c, 2, 76, 52
8, 216000, Note_on_c, 2, 64, 52
8, 216239, Note_on_c, 2, 76, 0
8, 216239, Note_on_c, 2, 64, 0
8, 216240, Note_on_c, 2, 66, 52
8, 216240, Note_on_c, 2, 78, 52
8, 216449, Note_on_c, 2, 66, 0
8, 216449, Note_on_c, 2, 78, 0
8, 216480, Note_on_c, 2, 79, 52
8, 216480, Note_on_c, 2, 67, 52
8, 216719, Note_on_c, 2, 79, 0
8, 216719, Note_on_c, 2, 67, 0
8, 216960, Control_c, 2, 11, 80
8, 217080, Control_c, 2, 11, 84
8, 217200, Note_on_c, 2, 71, 76
8, 217200, Control_c, 2, 11, 88
8, 217320, Control_c, 2, 11, 92
8, 217440, Control_c, 2, 11, 96
8, 217560, Control_c, 2, 11, 100
8, 217679, Note_on_c, 2, 71, 0
8, 217680, Note_on_c, 2, 72, 76
8, 217680, Control_c, 2, 11, 104
8, 217800, Control_c, 2, 11, 107
8, 217919, Note_on_c, 2, 72, 0
8, 217920, Control_c, 2, 11, 111
8, 217920, Note_on_c, 2, 71, 76
8, 218040, Control_c, 2, 11, 115
8, 218129, Note_on_c, 2, 71, 0
8, 218160, Note_on_c, 2, 71, 76
8, 218160, Control_c, 2, 11, 119
8, 218280, Control_c, 2, 11, 123
8, 218369, Note_on_c, 2, 71, 0
8, 218400, Control_c, 2, 11, 127
8, 218400, Note_on_c, 2, 69, 76
8, 218639, Note_on_c, 2, 69, 0
8, 219360, Note_on_c, 2, 69, 84
8, 219360, Note_on_c, 2, 73, 84
8, 220319, Note_on_c, 2, 69, 0
8, 220319, Note_on_c, 2, 73, 0
8, 221280, Note_on_c, 2, 71, 84
8, 221280, Note_on_c, 2, 74, 84
8, 222239, Note_on_c, 2, 71, 0
8, 222239, Note_on_c, 2, 74, 0
8, 222720, Note_on_c, 2, 73, 84
8, 222720, Note_on_c, 2, 67, 84
8, 223199, Note_on_c, 2, 73, 0
8, 223199, Note_on_c, 2, 67, 0
8, 223680, Note_on_c, 2, 66, 84
8, 223680, Note_on_c, 2, 74, 84
8, 224129, Note_on_c, 2, 66, 0
8, 224129, Note_on_c, 2, 74, 0
8, 224160, Note_on_c, 2, 73, 76
8, 224160, Note_on_c, 2, 67, 76
8, 224399, Note_on_c, 2, 73, 0
8, 224399, Note_on_c, 2, 67, 0
8, 241440, Note_on_c, 2, 69, 52
8, 242399, Note_on_c, 2, 69, 0
8, 242400, Note_on_c, 2, 65, 52
8, 242879, Note_on_c, 2, 65, 0
8, 242880, Note_on_c, 2, 62, 52
8, 243329, Note_on_c, 2, 62, 0
8, 243360, Note_on_c, 2, 57, 52
8, 243599, Note_on_c, 2, 57, 0
8, 256800, Note_on_c, 2, 69, 76
8, 257729, Note_on_c, 2, 69, 0
8, 257760, Note_on_c, 2, 66, 84
8, 258449, Note_on_c, 2, 66, 0
8, 258480, Note_on_c, 2, 62, 76
8, 258689, Note_on_c, 2, 62, 0
8, 258720, Note_on_c, 2, 71, 76
8, 259649, Note_on_c, 2, 71, 0
8, 259680, Note_on_c, 2, 67, 84
8, 260369, Note_on_c, 2, 67, 0
8, 260400, Note_on_c, 2, 64, 76
8, 260609, Note_on_c, 2, 64, 0
8, 260640, Note_on_c, 2, 69, 84
8, 261119, Note_on_c, 2, 69, 0
8, 261120, Note_on_c, 2, 66, 76
8, 261359, Note_on_c, 2, 66, 0
8, 261360, Note_on_c, 2, 62, 76
8, 261569, Note_on_c, 2, 62, 0
8, 261600, Note_on_c, 2, 69, 84
8, 262079, Note_on_c, 2, 69, 0
8, 262080, Note_on_c, 2, 64, 76
8, 262319, Note_on_c, 2, 64, 0
8, 262320, Note_on_c, 2, 61, 76
8, 262529, Note_on_c, 2, 61, 0
8, 262560, Note_on_c, 2, 81, 76
8, 262560, Note_on_c, 2, 69, 76
8, 263489, Note_on_c, 2, 81, 0
8, 263489, Note_on_c, 2, 69, 0
8, 263520, Note_on_c, 2, 66, 84
8, 263520, Note_on_c, 2, 78, 84
8, 264209, Note_on_c, 2, 66, 0
8, 264209, Note_on_c, 2, 78, 0
8, 264240, Note_on_c, 2, 62, 76
8, 264240, Note_on_c, 2, 74, 76
8, 264449, Note_on_c, 2, 62, 0
8, 264449, Note_on_c, 2, 74, 0
8, 264480, Note_on_c, 2, 71, 84
8, 265409, Note_on_c, 2, 71, 0
8, 265440, Note_on_c, 2, 67, 84
8, 266129, Note_on_c, 2, 67, 0
8, 266160, Note_on_c, 2, 62, 76
8, 266369, Note_on_c, 2, 62, 0
8, 266400, Note_on_c, 2, 62, 84
8, 266400, Note_on_c, 2, 72, 84
8, 270479, Note_on_c, 2, 62, 0
8, 270479, Note_on_c, 2, 72, 0
8, 286560, Note_on_c, 2, 74, 76
8, 286560, Note_on_c, 2, 66, 76
8, 286739, Note_on_c, 2, 74, 0
8, 286739, Note_on_c, 2, 66, 0
8, 286800, Note_on_c, 2, 76, 76
8, 286800, Note_on_c, 2, 69, 76
8, 286979, Note_on_c, 2, 76, 0
8, 286979, Note_on_c, 2, 69, 0
8, 288480, Note_on_c, 2, 64, 76
8, 288480, Note_on_c, 2, 76, 76
8, 288659, Note_on_c, 2, 64, 0
8, 288659, Note_on_c, 2, 76, 0
8, 288720, Note_on_c, 2, 57, 76
8, 288720, Note_on_c, 2, 69, 76
8, 288899, Note_on_c, 2, 57, 0
8, 288899, Note_on_c, 2, 69, 0
8, 303840, Note_on_c, 2, 71, 76
8, 303840, Note_on_c, 2, 62, 76
8, 304319, Note_on_c, 2, 71, 0
8, 304319, Note_on_c, 2, 62, 0
8, 304320, Note_on_c, 2, 73, 52
8, 304320, Note_on_c, 2, 64, 52
8, 304559, Note_on_c, 2, 73, 0
8, 304559, Note_on_c, 2, 64, 0
8, 304560, Note_on_c, 2, 74, 52
8, 304560, Note_on_c, 2, 65, 52
8, 304769, Note_on_c, 2, 74, 0
8, 304769, Note_on_c, 2, 65, 0
8, 304800, Note_on_c, 2, 64, 52
8, 304800, Note_on_c, 2, 73, 52
8, 305039, Note_on_c, 2, 64, 0
8, 305039, Note_on_c, 2, 73, 0
8, 305760, Note_on_c, 2, 62, 76
8, 305760, Note_on_c, 2, 71, 76
8, 306239, Note_on_c, 2, 62, 0
8, 306239, Note_on_c, 2, 71, 0
8, 306240, Note_on_c, 2, 64, 52
8, 306240, Note_on_c, 2, 73, 52
8, 306479, Note_on_c, 2, 64, 0
8, 306479, Note_on_c, 2, 73, 0
8, 306480, Note_on_c, 2, 65, 52
8, 306480, Note_on_c, 2, 74, 52
8, 306689, Note_on_c, 2, 65, 0
8, 306689, Note_on_c, 2, 74, 0
8, 306720, Note_on_c, 2, 73, 52
8, 306720, Note_on_c, 2, 64, 52
8, 306959, Note_on_c, 2, 73, 0
8, 306959, Note_on_c, 2, 64, 0
8, 313440, Note_on_c, 2, 64, 76
8, 313440, Note_on_c, 2, 73, 76
8, 313919, Note_on_c, 2, 64, 0
8, 313919, Note_on_c, 2, 73, 0
8, 313920, Note_on_c, 2, 74, 52
8, 313920, Note_on_c, 2, 66, 52
8, 314159, Note_on_c, 2, 74, 0
8, 314159, Note_on_c, 2, 66, 0
8, 314160, Note_on_c, 2, 67, 52
8, 314160, Note_on_c, 2, 76, 52
8, 314369, Note_on_c, 2, 67, 0
8, 314369, Note_on_c, 2, 76, 0
8, 314400, Note_on_c, 2, 66, 52
8, 314400, Note_on_c, 2, 74, 52
8, 314639, Note_on_c, 2, 66, 0
8, 314639, Note_on_c, 2, 74, 0
8, 315360, Note_on_c, 2, 73, 76
8, 315360, Note_on_c, 2, 64, 76
8, 315839, Note_on_c, 2, 73, 0
8, 315839, Note_on_c, 2, 64, 0
8, 315840, Note_on_c, 2, 74, 52
8, 315840, Note_on_c, 2, 66, 52
8, 316079, Note_on_c, 2, 74, 0
8, 316079, Note_on_c, 2, 66, 0
8, 316080, Note_on_c, 2, 76, 52
8, 316080, Note_on_c, 2, 67, 52
8, 316289, Note_on_c, 2, 76, 0
8, 316289, Note_on_c, 2, 67, 0
8, 316320, Note_on_c, 2, 66, 76
8, 316320, Note_on_c, 2, 74, 76
8, 316559, Note_on_c, 2, 66, 0
8, 316559, Note_on_c, 2, 74, 0
8, 316800, Note_on_c, 2, 74, 84
8, 316800, Note_on_c, 2, 62, 84
8, 317489, Note_on_c, 2, 74, 0
8, 317489, Note_on_c, 2, 62, 0
8, 317520, Note_on_c, 2, 71, 76
8, 317520, Note_on_c, 2, 59, 76
8, 317699, Note_on_c, 2, 71, 0
8, 317699, Note_on_c, 2, 59, 0
8, 317760, Note_on_c, 2, 64, 84
8, 317760, Note_on_c, 2, 76, 84
8, 318419, Note_on_c, 2, 64, 0
8, 318419, Note_on_c, 2, 76, 0
8, 318480, Note_on_c, 2, 73, 76
8, 318480, Note_on_c, 2, 61, 76
8, 318659, Note_on_c, 2, 73, 0
8, 318659, Note_on_c, 2, 61, 0
8, 318720, Note_on_c, 2, 66, 84
8, 318720, Note_on_c, 2, 78, 84
8, 319409, Note_on_c, 2, 66, 0
8, 319409, Note_on_c, 2, 78, 0
8, 319440, Note_on_c, 2, 62, 76
8, 319440, Note_on_c, 2, 74, 76
8, 319619, Note_on_c, 2, 62, 0
8, 319619, Note_on_c, 2, 74, 0
8, 319680, Note_on_c, 2, 67, 84
8, 319680, Note_on_c, 2, 79, 84
8, 323999, Note_on_c, 2, 67, 0
8, 323999, Note_on_c, 2, 79, 0
8, 327840, Note_on_c, 2, 71, 44
8, 329999, Note_on_c, 2, 71, 0
8, 358560, Note_on_c, 2, 74, 84
8, 358560, Note_on_c, 2, 65, 84
8, 360449, Note_on_c, 2, 74, 0
8, 360449, Note_on_c, 2, 65, 0
8, 360480, Note_on_c, 2, 74, 84
8, 360480, Note_on_c, 2, 66, 84
8, 362369, Note_on_c, 2, 74, 0
8, 362369, Note_on_c, 2, 66, 0
8, 362400, Note_on_c, 2, 66, 92
8, 362400, Note_on_c, 2, 74, 92
8, 364289, Note_on_c, 2, 66, 0
8, 364289, Note_on_c, 2, 74, 0
8, 364320, Note_on_c, 2, 73, 92
8, 364320, Note_on_c, 2, 67, 92
8, 366209, Note_on_c, 2, 73, 0
8, 366209, Note_on_c, 2, 67, 0
8, 366240, Note_on_c, 2, 73, 92
8, 366240, Note_on_c, 2, 67, 92
8, 368129, Note_on_c, 2, 73, 0
8, 368129, Note_on_c, 2, 67, 0
8, 368160, Note_on_c, 2, 66, 84
8, 368160, Note_on_c, 2, 74, 84
8, 368399, Note_on_c, 2, 66, 0
8, 368399, Note_on_c, 2, 74, 0
8, 368880, Control_c, 2, 11, 112
8, 369000, Note_on_c, 2, 66, 84
8, 369119, Note_on_c, 2, 66, 0
8, 369120, Note_on_c, 2, 67, 84
8, 369140, Control_c, 2, 11, 113
8, 369359, Note_on_c, 2, 67, 0
8, 369400, Control_c, 2, 11, 115
8, 369660, Control_c, 2, 11, 116
8, 369920, Control_c, 2, 11, 117
8, 369960, Note_on_c, 2, 68, 84
8, 370079, Note_on_c, 2, 68, 0
8, 370080, Note_on_c, 2, 69, 84
8, 370180, Control_c, 2, 11, 118
8, 370319, Note_on_c, 2, 69, 0
8, 370440, Control_c, 2, 11, 120
8, 370700, Control_c, 2, 11, 121
8, 370920, Note_on_c, 2, 70, 84
8, 370960, Control_c, 2, 11, 122
8, 371039, Note_on_c, 2, 70, 0
8, 371040, Note_on_c, 2, 71, 84
8, 371220, Control_c, 2, 11, 123
8, 371279, Note_on_c, 2, 71, 0
8, 371480, Control_c, 2, 11, 125
8, 371740, Control_c, 2, 11, 126
8, 371880, Note_on_c, 2, 71, 84
8, 371999, Note_on_c, 2, 71, 0
8, 372000, Control_c, 2, 11, 127
8, 372000, Note_on_c, 2, 72, 84
8, 372089, Note_on_c, 2, 72, 0
8, 372120, Note_on_c, 2, 71, 84
8, 372209, Note_on_c, 2, 71, 0
8, 372240, Note_on_c, 2, 69, 84
8, 372329, Note_on_c, 2, 69, 0
8, 372360, Note_on_c, 2, 71, 84
8, 372449, Note_on_c, 2, 71, 0
8, 372480, Note_on_c, 2, 72, 84
8, 372569, Note_on_c, 2, 72, 0
8, 372600, Note_on_c, 2, 71, 84
8, 372689, Note_on_c, 2, 71, 0
8, 372720, Note_on_c, 2, 72, 84
8, 372809, Note_on_c, 2, 72, 0
8, 372840, Note_on_c, 2, 71, 84
8, 372929, Note_on_c, 2, 71, 0
8, 372960, Note_on_c, 2, 72, 84
8, 373049, Note_on_c, 2, 72, 0
8, 373080, Note_on_c, 2, 71, 84
8, 373169, Note_on_c, 2, 71, 0
8, 373200, Note_on_c, 2, 69, 84
8, 373289, Note_on_c, 2, 69, 0
8, 373320, Note_on_c, 2, 71, 84
8, 373409, Note_on_c, 2, 71, 0
8, 373440, Note_on_c, 2, 72, 84
8, 373529, Note_on_c, 2, 72, 0
8, 373560, Note_on_c, 2, 71, 84
8, 373649, Note_on_c, 2, 71, 0
8, 373680, Note_on_c, 2, 72, 84
8, 373769, Note_on_c, 2, 72, 0
8, 373800, Note_on_c, 2, 71, 84
8, 373889, Note_on_c, 2, 71, 0
8, 373920, Note_on_c, 2, 72, 84
8, 374009, Note_on_c, 2, 72, 0
8, 374040, Note_on_c, 2, 71, 84
8, 374129, Note_on_c, 2, 71, 0
8, 374160, Note_on_c, 2, 72, 84
8, 374249, Note_on_c, 2, 72, 0
8, 374280, Note_on_c, 2, 71, 84
8, 374369, Note_on_c, 2, 71, 0
8, 374400, Note_on_c, 2, 72, 84
8, 374489, Note_on_c, 2, 72, 0
8, 374520, Note_on_c, 2, 71, 84
8, 374609, Note_on_c, 2, 71, 0
8, 374640, Note_on_c, 2, 72, 84
8, 374729, Note_on_c, 2, 72, 0
8, 374760, Note_on_c, 2, 71, 84
8, 374849, Note_on_c, 2, 71, 0
8, 374880, Note_on_c, 2, 72, 84
8, 374969, Note_on_c, 2, 72, 0
8, 375000, Note_on_c, 2, 71, 84
8, 375089, Note_on_c, 2, 71, 0
8, 375120, Note_on_c, 2, 69, 84
8, 375209, Note_on_c, 2, 69, 0
8, 375240, Note_on_c, 2, 67, 84
8, 375329, Note_on_c, 2, 67, 0
8, 375360, Note_on_c, 2, 66, 84
8, 375449, Note_on_c, 2, 66, 0
8, 375480, Note_on_c, 2, 64, 84
8, 375569, Note_on_c, 2, 64, 0
8, 375600, Note_on_c, 2, 62, 84
8, 375689, Note_on_c, 2, 62, 0
8, 375720, Note_on_c, 2, 60, 84
8, 375809, Note_on_c, 2, 60, 0
8, 375840, Note_on_c, 2, 59, 92
8, 376079, Note_on_c, 2, 59, 0
8, 376800, Note_on_c, 2, 67, 84
8, 376800, Note_on_c, 2, 74, 84
8, 377729, Note_on_c, 2, 67, 0
8, 377729, Note_on_c, 2, 74, 0
8, 377760, Note_on_c, 2, 66, 92
8, 377760, Note_on_c, 2, 74, 92
8, 378689, Note_on_c, 2, 66, 0
8, 378689, Note_on_c, 2, 74, 0
8, 378720, Note_on_c, 2, 73, 92
8, 378720, Note_on_c, 2, 64, 92
8, 379649, Note_on_c, 2, 73, 0
8, 379649, Note_on_c, 2, 64, 0
8, 379680, Note_on_c, 2, 72, 84
8, 379769, Note_on_c, 2, 72, 0
8, 379800, Note_on_c, 2, 71, 84
8, 379889, Note_on_c, 2, 71, 0
8, 379920, Note_on_c, 2, 69, 84
8, 380009, Note_on_c, 2, 69, 0
8, 380040, Note_on_c, 2, 71, 84
8, 380129, Note_on_c, 2, 71, 0
8, 380160, Note_on_c, 2, 72, 84
8, 380249, Note_on_c, 2, 72, 0
8, 380280, Note_on_c, 2, 71, 84
8, 380369, Note_on_c, 2, 71, 0
8, 380400, Note_on_c, 2, 72, 84
8, 380489, Note_on_c, 2, 72, 0
8, 380520, Note_on_c, 2, 71, 84
8, 380609, Note_on_c, 2, 71, 0
8, 380640, Note_on_c, 2, 72, 84
8, 380729, Note_on_c, 2, 72, 0
8, 380760, Note_on_c, 2, 71, 84
8, 380849, Note_on_c, 2, 71, 0
8, 380880, Note_on_c, 2, 69, 84
8, 380969, Note_on_c, 2, 69, 0
8, 381000, Note_on_c, 2, 71, 84
8, 381089, Note_on_c, 2, 71, 0
8, 381120, Note_on_c, 2, 72, 84
8, 381209, Note_on_c, 2, 72, 0
8, 381240, Note_on_c, 2, 71, 84
8, 381329, Note_on_c, 2, 71, 0
8, 381360, Note_on_c, 2, 72, 84
8, 381449, Note_on_c, 2, 72, 0
8, 381480, Note_on_c, 2, 71, 84
8, 381569, Note_on_c, 2, 71, 0
8, 381600, Note_on_c, 2, 72, 84
8, 381689, Note_on_c, 2, 72, 0
8, 381720, Note_on_c, 2, 71, 84
8, 381809, Note_on_c, 2, 71, 0
8, 381840, Note_on_c, 2, 72, 84
8, 381929, Note_on_c, 2, 72, 0
8, 381960, Note_on_c, 2, 71, 84
8, 382049, Note_on_c, 2, 71, 0
8, 382080, Note_on_c, 2, 72, 84
8, 382169, Note_on_c, 2, 72, 0
8, 382200, Note_on_c, 2, 71, 84
8, 382289, Note_on_c, 2, 71, 0
8, 382320, Note_on_c, 2, 72, 84
8, 382409, Note_on_c, 2, 72, 0
8, 382440, Note_on_c, 2, 71, 84
8, 382529, Note_on_c, 2, 71, 0
8, 382560, Note_on_c, 2, 72, 84
8, 382649, Note_on_c, 2, 72, 0
8, 382680, Note_on_c, 2, 71, 84
8, 382769, Note_on_c, 2, 71, 0
8, 382800, Note_on_c, 2, 69, 84
8, 382889, Note_on_c, 2, 69, 0
8, 382920, Note_on_c, 2, 67, 84
8, 383009, Note_on_c, 2, 67, 0
8, 383040, Note_on_c, 2, 66, 84
8, 383129, Note_on_c, 2, 66, 0
8, 383160, Note_on_c, 2, 64, 84
8, 383249, Note_on_c, 2, 64, 0
8, 383280, Note_on_c, 2, 62, 84
8, 383369, Note_on_c, 2, 62, 0
8, 383400, Note_on_c, 2, 60, 84
8, 383489, Note_on_c, 2, 60, 0
8, 383520, Note_on_c, 2, 59, 84
8, 383759, Note_on_c, 2, 59, 0
8, 384000, Note_on_c, 2, 71, 92
8, 384000, Note_on_c, 2, 66, 92
8, 385409, Note_on_c, 2, 71, 0
8, 385409, Note_on_c, 2, 66, 0
8, 385440, Note_on_c, 2, 67, 84
8, 385440, Note_on_c, 2, 71, 84
8, 386369, Note_on_c, 2, 67, 0
8, 386369, Note_on_c, 2, 71, 0
8, 386400, Note_on_c, 2, 69, 84
8, 386400, Note_on_c, 2, 66, 84
8, 386849, Note_on_c, 2, 69, 0
8, 386849, Note_on_c, 2, 66, 0
8, 386880, Note_on_c, 2, 69, 84
8, 386880, Note_on_c, 2, 67, 84
8, 387329, Note_on_c, 2, 69, 0
8, 387329, Note_on_c, 2, 67, 0
8, 387360, Note_on_c, 2, 66, 84
8, 387360, Note_on_c, 2, 69, 84
8, 387599, Note_on_c, 2, 66, 0
8, 387599, Note_on_c, 2, 69, 0
8, 399360, Note_on_c, 2, 66, 84
8, 400739, Note_on_c, 2, 66, 0
8, 408360, Note_on_c, 2, 73, 84
8, 408360, Note_on_c, 2, 61, 84
8, 408479, Note_on_c, 2, 73, 0
8, 408479, Note_on_c, 2, 61, 0
8, 408480, Note_on_c, 2, 74, 84
8, 408480, Note_on_c, 2, 62, 84
8, 408659, Note_on_c, 2, 74, 0
8, 408659, Note_on_c, 2, 62, 0
8, 410280, Note_on_c, 2, 73, 84
8, 410280, Note_on_c, 2, 61, 84
8, 410399, Note_on_c, 2, 73, 0
8, 410399, Note_on_c, 2, 61, 0
8, 410400, Note_on_c, 2, 74, 84
8, 410400, Note_on_c, 2, 62, 84
8, 410579, Note_on_c, 2, 74, 0
8, 410579, Note_on_c, 2, 62, 0
8, 412200, Note_on_c, 2, 73, 84
8, 412200, Note_on_c, 2, 61, 84
8, 412319, Note_on_c, 2, 73, 0
8, 412319, Note_on_c, 2, 61, 0
8, 412320, Note_on_c, 2, 74, 84
8, 412320, Note_on_c, 2, 62, 84
8, 412499, Note_on_c, 2, 74, 0
8, 412499, Note_on_c, 2, 62, 0
8, 413280, Note_on_c, 2, 74, 84
8, 413280, Note_on_c, 2, 62, 84
8, 413459, Note_on_c, 2, 74, 0
8, 413459, Note_on_c, 2, 62, 0
8, 414240, Note_on_c, 2, 74, 84
8, 414240, Note_on_c, 2, 62, 84
8, 414419, Note_on_c, 2, 74, 0
8, 414419, Note_on_c, 2, 62, 0
8, 414960, Note_on_c, 2, 69, 84
8, 414960, Note_on_c, 2, 57, 84
8, 415139, Note_on_c, 2, 69, 0
8, 415139, Note_on_c, 2, 57, 0
8, 415200, Note_on_c, 2, 74, 84
8, 415200, Note_on_c, 2, 62, 84
8, 415379, Note_on_c, 2, 74, 0
8, 415379, Note_on_c, 2, 62, 0
8, 415440, Note_on_c, 2, 69, 84
8, 415440, Note_on_c, 2, 57, 84
8, 415619, Note_on_c, 2, 69, 0
8, 415619, Note_on_c, 2, 57, 0
8, 415680, Note_on_c, 2, 74, 84
8, 415680, Note_on_c, 2, 62, 84
8, 415859, Note_on_c, 2, 74, 0
8, 415859, Note_on_c, 2, 62, 0
8, 415920, Note_on_c, 2, 69, 84
8, 415920, Note_on_c, 2, 57, 84
8, 416099, Note_on_c, 2, 69, 0
8, 416099, Note_on_c, 2, 57, 0
8, 416160, Note_on_c, 2, 74, 84
8, 416160, Note_on_c, 2, 62, 84
8, 416369, Note_on_c, 2, 74, 0
8, 416369, Note_on_c, 2, 62, 0
8, 416400, Note_on_c, 2, 73, 84
8, 416400, Note_on_c, 2, 64, 84
8, 416609, Note_on_c, 2, 73, 0
8, 416609, Note_on_c, 2, 64, 0
8, 416640, Note_on_c, 2, 74, 84
8, 416640, Note_on_c, 2, 66, 84
8, 416849, Note_on_c, 2, 74, 0
8, 416849, Note_on_c, 2, 66, 0
8, 416880, Note_on_c, 2, 73, 84
8, 416880, Note_on_c, 2, 64, 84
8, 417089, Note_on_c, 2, 73, 0
8, 417089, Note_on_c, 2, 64, 0
8, 417120, Note_on_c, 2, 74, 84
8, 417120, Note_on_c, 2, 66, 84
8, 417329, Note_on_c, 2, 74, 0
8, 417329, Note_on_c, 2, 66, 0
8, 417360, Note_on_c, 2, 73, 84
8, 417360, Note_on_c, 2, 64, 84
8, 417569, Note_on_c, 2, 73, 0
8, 417569, Note_on_c, 2, 64, 0
8, 417600, Note_on_c, 2, 74, 84
8, 417600, Note_on_c, 2, 66, 84
8, 417809, Note_on_c, 2, 74, 0
8, 417809, Note_on_c, 2, 66, 0
8, 417840, Note_on_c, 2, 73, 84
8, 417840, Note_on_c, 2, 64, 84
8, 418049, Note_on_c, 2, 73, 0
8, 418049, Note_on_c, 2, 64, 0
8, 418080, Note_on_c, 2, 74, 84
8, 418080, Note_on_c, 2, 66, 84
8, 418319, Note_on_c, 2, 74, 0
8, 418319, Note_on_c, 2, 66, 0
8, 419040, Note_on_c, 2, 74, 84
8, 419219, Note_on_c, 2, 74, 0
8, 419280, Note_on_c, 2, 73, 84
8, 419399, Note_on_c, 2, 73, 0
8, 419400, Note_on_c, 2, 71, 84
8, 419519, Note_on_c, 2, 71, 0
8, 419520, Note_on_c, 2, 69, 84
8, 419639, Note_on_c, 2, 69, 0
8, 419640, Note_on_c, 2, 67, 84
8, 419759, Note_on_c, 2, 67, 0
8, 419760, Note_on_c, 2, 66, 84
8, 419879, Note_on_c, 2, 66, 0
8, 419880, Note_on_c, 2, 64, 84
8, 419969, Note_on_c, 2, 64, 0
8, 420000, Note_on_c, 2, 62, 84
8, 420119, Note_on_c, 2, 62, 0
8, 420120, Note_on_c, 2, 61, 84
8, 420239, Note_on_c, 2, 61, 0
8, 420240, Note_on_c, 2, 62, 84
8, 420359, Note_on_c, 2, 62, 0
8, 420360, Note_on_c, 2, 61, 84
8, 420479, Note_on_c, 2, 61, 0
8, 420480, Note_on_c, 2, 62, 84
8, 420599, Note_on_c, 2, 62, 0
8, 420600, Note_on_c, 2, 61, 84
8, 420719, Note_on_c, 2, 61, 0
8, 420720, Note_on_c, 2, 62, 84
8, 420839, Note_on_c, 2, 62, 0
8, 420840, Note_on_c, 2, 61, 84
8, 420929, Note_on_c, 2, 61, 0
8, 420960, Note_on_c, 2, 62, 84
8, 421079, Note_on_c, 2, 62, 0
8, 421080, Note_on_c, 2, 61, 84
8, 421199, Note_on_c, 2, 61, 0
8, 421200, Note_on_c, 2, 62, 84
8, 421319, Note_on_c, 2, 62, 0
8, 421320, Note_on_c, 2, 61, 84
8, 421439, Note_on_c, 2, 61, 0
8, 421440, Note_on_c, 2, 62, 84
8, 421559, Note_on_c, 2, 62, 0
8, 421560, Note_on_c, 2, 61, 84
8, 421679, Note_on_c, 2, 61, 0
8, 421680, Note_on_c, 2, 62, 84
8, 421799, Note_on_c, 2, 62, 0
8, 421800, Note_on_c, 2, 61, 84
8, 421889, Note_on_c, 2, 61, 0
8, 421920, Note_on_c, 2, 62, 84
8, 422159, Note_on_c, 2, 62, 0
8, 422880, Note_on_c, 2, 74, 84
8, 422880, Note_on_c, 2, 66, 84
8, 423119, Note_on_c, 2, 74, 0
8, 423119, Note_on_c, 2, 66, 0
8, 423360, Note_on_c, 2, 74, 84
8, 423360, Note_on_c, 2, 66, 84
8, 423599, Note_on_c, 2, 74, 0
8, 423599, Note_on_c, 2, 66, 0
8, 423840, Note_on_c, 2, 74, 84
8, 423840, Note_on_c, 2, 66, 84
8, 424079, Note_on_c, 2, 74, 0
8, 424079, Note_on_c, 2, 66, 0
8, 424800, Note_on_c, 2, 74, 84
8, 424800, Note_on_c, 2, 66, 84
8, 425039, Note_on_c, 2, 74, 0
8, 425039, Note_on_c, 2, 66, 0
8, 425760, Note_on_c, 2, 62, 84
8, 425999, Note_on_c, 2, 62, 0
8, 425999, End_track
9, 0, Start_track
9, 0, Title_t, "Bassoon"
9, 0, MIDI_port, 0
9, 0, Program_c, 3, 70
9, 0, Control_c, 3, 7, 96
9, 0, Control_c, 3, 10, 65
9, 0, Control_c, 3, 11, 127
9, 360, Note_on_c, 3, 66, 76
9, 479, Note_on_c, 3, 66, 0
9, 480, Note_on_c, 3, 67, 76
9, 659, Note_on_c, 3, 67, 0
9, 840, Note_on_c, 3, 49, 76
9, 929, Note_on_c, 3, 49, 0
9, 960, Note_on_c, 3, 49, 84
9, 1019, Note_on_c, 3, 49, 0
9, 1020, Note_on_c, 3, 50, 76
9, 1079, Note_on_c, 3, 50, 0
9, 1080, Note_on_c, 3, 49, 76
9, 1139, Note_on_c, 3, 49, 0
9, 1140, Note_on_c, 3, 50, 76
9, 1199, Note_on_c, 3, 50, 0
9, 1200, Note_on_c, 3, 49, 76
9, 1259, Note_on_c, 3, 49, 0
9, 1260, Note_on_c, 3, 50, 76
9, 1319, Note_on_c, 3, 50, 0
9, 1320, Note_on_c, 3, 47, 76
9, 1379, Note_on_c, 3, 47, 0
9, 1380, Note_on_c, 3, 49, 76
9, 1424, Note_on_c, 3, 49, 0
9, 1440, Note_on_c, 3, 52, 76
9, 1619, Note_on_c, 3, 52, 0
9, 1680, Note_on_c, 3, 45, 76
9, 1859, Note_on_c, 3, 45, 0
9, 5280, Note_on_c, 3, 62, 76
9, 5280, Note_on_c, 3, 50, 76
9, 5459, Note_on_c, 3, 62, 0
9, 5459, Note_on_c, 3, 50, 0
9, 5520, Note_on_c, 3, 45, 76
9, 5520, Note_on_c, 3, 57, 76
9, 5699, Note_on_c, 3, 45, 0
9, 5699, Note_on_c, 3, 57, 0
9, 6120, Note_on_c, 3, 66, 84
9, 6239, Note_on_c, 3, 66, 0
9, 6240, Note_on_c, 3, 67, 84
9, 6419, Note_on_c, 3, 67, 0
9, 6600, Note_on_c, 3, 49, 84
9, 6689, Note_on_c, 3, 49, 0
9, 6720, Note_on_c, 3, 49, 92
9, 6779, Note_on_c, 3, 49, 0
9, 6780, Note_on_c, 3, 50, 84
9, 6839, Note_on_c, 3, 50, 0
9, 6840, Note_on_c, 3, 49, 84
9, 6899, Note_on_c, 3, 49, 0
9, 6900, Note_on_c, 3, 50, 84
9, 6959, Note_on_c, 3, 50, 0
9, 6960, Note_on_c, 3, 49, 84
9, 7019, Note_on_c, 3, 49, 0
9, 7020, Note_on_c, 3, 50, 84
9, 7079, Note_on_c, 3, 50, 0
9, 7080, Note_on_c, 3, 47, 84
9, 7139, Note_on_c, 3, 47, 0
9, 7140, Note_on_c, 3, 49, 84
9, 7184, Note_on_c, 3, 49, 0
9, 7200, Note_on_c, 3, 52, 84
9, 7379, Note_on_c, 3, 52, 0
9, 7440, Note_on_c, 3, 45, 84
9, 7619, Note_on_c, 3, 45, 0
9, 11400, Note_on_c, 3, 61, 76
9, 11519, Note_on_c, 3, 61, 0
9, 11520, Note_on_c, 3, 62, 76
9, 11699, Note_on_c, 3, 62, 0
9, 13320, Note_on_c, 3, 61, 76
9, 13439, Note_on_c, 3, 61, 0
9, 13440, Note_on_c, 3, 62, 76
9, 13619, Note_on_c, 3, 62, 0
9, 14880, Note_on_c, 3, 62, 84
9, 14999, Note_on_c, 3, 62, 0
9, 15000, Note_on_c, 3, 61, 76
9, 15119, Note_on_c, 3, 61, 0
9, 15120, Note_on_c, 3, 62, 76
9, 15239, Note_on_c, 3, 62, 0
9, 15240, Note_on_c, 3, 61, 76
9, 15329, Note_on_c, 3, 61, 0
9, 15360, Note_on_c, 3, 62, 76
9, 15539, Note_on_c, 3, 62, 0
9, 16800, Note_on_c, 3, 62, 84
9, 16919, Note_on_c, 3, 62, 0
9, 16920, Note_on_c, 3, 61, 76
9, 17039, Note_on_c, 3, 61, 0
9, 17040, Note_on_c, 3, 62, 76
9, 17159, Note_on_c, 3, 62, 0
9, 17160, Note_on_c, 3, 61, 76
9, 17249, Note_on_c, 3, 61, 0
9, 17280, Note_on_c, 3, 62, 76
9, 17459, Note_on_c, 3, 62, 0
9, 17520, Note_on_c, 3, 48, 76
9, 17520, Note_on_c, 3, 60, 76
9, 17699, Note_on_c, 3, 48, 0
9, 17699, Note_on_c, 3, 60, 0
9, 17760, Note_on_c, 3, 47, 76
9, 17760, Note_on_c, 3, 59, 76
9, 17939, Note_on_c, 3, 47, 0
9, 17939, Note_on_c, 3, 59, 0
9, 18000, Note_on_c, 3, 60, 76
9, 18000, Note_on_c, 3, 48, 76
9, 18179, Note_on_c, 3, 60, 0
9, 18179, Note_on_c, 3, 48, 0
9, 18240, Note_on_c, 3, 59, 76
9, 18240, Note_on_c, 3, 47, 76
9, 18419, Note_on_c, 3, 59, 0
9, 18419, Note_on_c, 3, 47, 0
9, 18480, Note_on_c, 3, 46, 76
9, 18480, Note_on_c, 3, 58, 76
9, 18659, Note_on_c, 3, 46, 0
9, 18659, Note_on_c, 3, 58, 0
9, 18720, Note_on_c, 3, 57, 84
9, 18720, Note_on_c, 3, 45, 84
9, 18959, Note_on_c, 3, 57, 0
9, 18959, Note_on_c, 3, 45, 0
9, 19200, Note_on_c, 3, 64, 84
9, 19200, Note_on_c, 3, 67, 84
9, 19679, Note_on_c, 3, 64, 0
9, 19679, Note_on_c, 3, 67, 0
9, 19680, Note_on_c, 3, 66, 84
9, 19680, Note_on_c, 3, 62, 84
9, 20129, Note_on_c, 3, 62, 0
9, 20159, Note_on_c, 3, 66, 0
9, 20160, Note_on_c, 3, 62, 84
9, 20160, Note_on_c, 3, 65, 84
9, 20609, Note_on_c, 3, 62, 0
9, 20609, Note_on_c, 3, 65, 0
9, 20640, Note_on_c, 3, 64, 84
9, 20640, Note_on_c, 3, 61, 84
9, 21119, Note_on_c, 3, 64, 0
9, 21119, Note_on_c, 3, 61, 0
9, 21120, Note_on_c, 3, 67, 84
9, 21120, Note_on_c, 3, 64, 84
9, 21599, Note_on_c, 3, 67, 0
9, 21599, Note_on_c, 3, 64, 0
9, 21600, Note_on_c, 3, 62, 84
9, 21600, Note_on_c, 3, 66, 84
9, 22049, Note_on_c, 3, 62, 0
9, 22079, Note_on_c, 3, 66, 0
9, 22080, Note_on_c, 3, 62, 84
9, 22080, Note_on_c, 3, 65, 84
9, 22529, Note_on_c, 3, 62, 0
9, 22529, Note_on_c, 3, 65, 0
9, 22560, Note_on_c, 3, 61, 84
9, 22560, Note_on_c, 3, 64, 84
9, 22769, Note_on_c, 3, 61, 0
9, 22769, Note_on_c, 3, 64, 0
9, 22800, Note_on_c, 3, 57, 84
9, 22800, Note_on_c, 3, 45, 84
9, 23009, Note_on_c, 3, 57, 0
9, 23009, Note_on_c, 3, 45, 0
9, 23040, Note_on_c, 3, 57, 84
9, 23040, Note_on_c, 3, 45, 84
9, 23249, Note_on_c, 3, 57, 0
9, 23249, Note_on_c, 3, 45, 0
9, 23280, Note_on_c, 3, 57, 84
9, 23280, Note_on_c, 3, 45, 84
9, 23489, Note_on_c, 3, 57, 0
9, 23489, Note_on_c, 3, 45, 0
9, 23520, Note_on_c, 3, 57, 84
9, 23520, Note_on_c, 3, 45, 84
9, 23759, Note_on_c, 3, 57, 0
9, 23759, Note_on_c, 3, 45, 0
9, 30240, Note_on_c, 3, 57, 52
9, 30719, Note_on_c, 3, 57, 0
9, 30720, Note_on_c, 3, 59, 52
9, 30959, Note_on_c, 3, 59, 0
9, 30960, Note_on_c, 3, 61, 52
9, 31169, Note_on_c, 3, 61, 0
9, 31200, Note_on_c, 3, 62, 52
9, 31889, Note_on_c, 3, 62, 0
9, 31920, Note_on_c, 3, 62, 52
9, 32129, Note_on_c, 3, 62, 0
9, 32160, Note_on_c, 3, 62, 52
9, 32399, Note_on_c, 3, 62, 0
9, 32400, Note_on_c, 3, 61, 52
9, 32639, Note_on_c, 3, 61, 0
9, 32640, Note_on_c, 3, 59, 52
9, 32879, Note_on_c, 3, 59, 0
9, 32880, Note_on_c, 3, 57, 52
9, 33089, Note_on_c, 3, 57, 0
9, 33120, Note_on_c, 3, 62, 52
9, 33809, Note_on_c, 3, 62, 0
9, 33825, Control_c, 3, 11, 96
9, 33840, Note_on_c, 3, 62, 68
9, 34049, Note_on_c, 3, 62, 0
9, 34080, Note_on_c, 3, 62, 68
9, 34080, Control_c, 3, 11, 96
9, 34240, Control_c, 3, 11, 99
9, 34319, Note_on_c, 3, 62, 0
9, 34320, Note_on_c, 3, 61, 68
9, 34400, Control_c, 3, 11, 101
9, 34559, Note_on_c, 3, 61, 0
9, 34560, Note_on_c, 3, 64, 68
9, 34560, Note_on_c, 3, 61, 68
9, 34560, Control_c, 3, 11, 104
9, 34720, Control_c, 3, 11, 106
9, 34799, Note_on_c, 3, 64, 0
9, 34799, Note_on_c, 3, 61, 0
9, 34800, Note_on_c, 3, 59, 68
9, 34800, Note_on_c, 3, 62, 68
9, 34880, Control_c, 3, 11, 109
9, 35039, Note_on_c, 3, 59, 0
9, 35039, Note_on_c, 3, 62, 0
9, 35040, Control_c, 3, 11, 112
9, 35040, Note_on_c, 3, 61, 68
9, 35040, Note_on_c, 3, 57, 68
9, 35200, Control_c, 3, 11, 114
9, 35279, Note_on_c, 3, 61, 0
9, 35279, Note_on_c, 3, 57, 0
9, 35280, Note_on_c, 3, 59, 68
9, 35280, Note_on_c, 3, 55, 68
9, 35360, Control_c, 3, 11, 117
9, 35519, Note_on_c, 3, 59, 0
9, 35519, Note_on_c, 3, 55, 0
9, 35520, Control_c, 3, 11, 119
9, 35520, Note_on_c, 3, 54, 68
9, 35520, Note_on_c, 3, 57, 68
9, 35680, Control_c, 3, 11, 122
9, 35759, Note_on_c, 3, 54, 0
9, 35759, Note_on_c, 3, 57, 0
9, 35760, Note_on_c, 3, 52, 68
9, 35760, Note_on_c, 3, 55, 68
9, 35840, Control_c, 3, 11, 124
9, 35969, Note_on_c, 3, 52, 0
9, 35969, Note_on_c, 3, 55, 0
9, 36000, Note_on_c, 3, 50, 52
9, 36000, Note_on_c, 3, 54, 52
9, 36000, Control_c, 3, 11, 127
9, 36239, Note_on_c, 3, 50, 0
9, 36239, Note_on_c, 3, 54, 0
9, 39600, Control_c, 3, 11, 80
9, 39840, Note_on_c, 3, 66, 76
9, 40000, Control_c, 3, 11, 84
9, 40160, Control_c, 3, 11, 88
9, 40320, Control_c, 3, 11, 92
9, 40480, Control_c, 3, 11, 96
9, 40559, Note_on_c, 3, 66, 0
9, 40560, Note_on_c, 3, 64, 76
9, 40640, Control_c, 3, 11, 100
9, 40799, Note_on_c, 3, 64, 0
9, 40800, Note_on_c, 3, 62, 76
9, 40800, Control_c, 3, 11, 104
9, 40960, Control_c, 3, 11, 107
9, 41039, Note_on_c, 3, 62, 0
9, 41040, Note_on_c, 3, 58, 76
9, 41040, Note_on_c, 3, 61, 76
9, 41120, Control_c, 3, 11, 111
9, 41279, Note_on_c, 3, 58, 0
9, 41279, Note_on_c, 3, 61, 0
9, 41280, Control_c, 3, 11, 115
9, 41280, Note_on_c, 3, 59, 76
9, 41440, Control_c, 3, 11, 119
9, 41519, Note_on_c, 3, 59, 0
9, 41520, Note_on_c, 3, 54, 76
9, 41520, Note_on_c, 3, 57, 76
9, 41600, Control_c, 3, 11, 123
9, 41729, Note_on_c, 3, 54, 0
9, 41729, Note_on_c, 3, 57, 0
9, 41760, Note_on_c, 3, 52, 76
9, 41760, Control_c, 3, 11, 127
9, 41760, Note_on_c, 3, 56, 76
9, 41999, Note_on_c, 3, 52, 0
9, 41999, Note_on_c, 3, 56, 0
9, 42720, Note_on_c, 3, 64, 84
9, 42720, Note_on_c, 3, 52, 84
9, 43679, Note_on_c, 3, 64, 0
9, 43679, Note_on_c, 3, 52, 0
9, 44640, Note_on_c, 3, 63, 84
9, 44640, Note_on_c, 3, 52, 84
9, 45599, Note_on_c, 3, 63, 0
9, 45599, Note_on_c, 3, 52, 0
9, 46080, Note_on_c, 3, 59, 84
9, 46080, Note_on_c, 3, 62, 84
9, 46559, Note_on_c, 3, 59, 0
9, 46559, Note_on_c, 3, 62, 0
9, 47040, Note_on_c, 3, 61, 84
9, 47040, Note_on_c, 3, 57, 84
9, 47489, Note_on_c, 3, 61, 0
9, 47489, Note_on_c, 3, 57, 0
9, 47520, Note_on_c, 3, 56, 76
9, 47520, Note_on_c, 3, 59, 76
9, 47759, Note_on_c, 3, 56, 0
9, 47759, Note_on_c, 3, 59, 0
9, 49440, Note_on_c, 3, 64, 52
9, 50399, Note_on_c, 3, 64, 0
9, 50400, Note_on_c, 3, 61, 52
9, 50879, Note_on_c, 3, 61, 0
9, 50880, Note_on_c, 3, 57, 52
9, 51329, Note_on_c, 3, 57, 0
9, 51360, Note_on_c, 3, 52, 52
9, 51599, Note_on_c, 3, 52, 0
9, 53280, Note_on_c, 3, 64, 52
9, 54239, Note_on_c, 3, 64, 0
9, 54240, Note_on_c, 3, 61, 52
9, 54719, Note_on_c, 3, 61, 0
9, 54720, Note_on_c, 3, 57, 52
9, 55169, Note_on_c, 3, 57, 0
9, 55200, Note_on_c, 3, 52, 52
9, 55439, Note_on_c, 3, 52, 0
9, 56880, Control_c, 3, 11, 96
9, 57120, Note_on_c, 3, 64, 68
9, 57120, Control_c, 3, 11, 96
9, 57360, Control_c, 3, 11, 99
9, 57600, Control_c, 3, 11, 101
9, 57840, Control_c, 3, 11, 104
9, 58079, Note_on_c, 3, 64, 0
9, 58080, Note_on_c, 3, 66, 68
9, 58080, Control_c, 3, 11, 106
9, 58320, Control_c, 3, 11, 109
9, 58560, Control_c, 3, 11, 112
9, 58800, Control_c, 3, 11, 114
9, 59040, Control_c, 3, 11, 117
9, 59280, Control_c, 3, 11, 119
9, 59520, Control_c, 3, 11, 122
9, 59760, Control_c, 3, 11, 124
9, 59969, Note_on_c, 3, 66, 0
9, 60000, Control_c, 3, 11, 127
9, 60000, Note_on_c, 3, 67, 76
9, 60160, Control_c, 3, 11, 124
9, 60320, Control_c, 3, 11, 122
9, 60480, Control_c, 3, 11, 119
9, 60640, Control_c, 3, 11, 117
9, 60800, Control_c, 3, 11, 114
9, 60929, Note_on_c, 3, 67, 0
9, 60960, Note_on_c, 3, 66, 68
9, 60960, Control_c, 3, 11, 112
9, 61120, Control_c, 3, 11, 109
9, 61280, Control_c, 3, 11, 106
9, 61440, Control_c, 3, 11, 104
9, 61600, Control_c, 3, 11, 101
9, 61760, Control_c, 3, 11, 99
9, 61920, Control_c, 3, 11, 96
9, 61920, Note_on_c, 3, 50, 68
9, 62159, Note_on_c, 3, 50, 0
9, 62399, Note_on_c, 3, 66, 0
9, 62400, Note_on_c, 3, 62, 68
9, 62759, Note_on_c, 3, 62, 0
9, 62760, Note_on_c, 3, 59, 68
9, 62849, Note_on_c, 3, 59, 0
9, 62880, Note_on_c, 3, 57, 68
9, 62880, Note_on_c, 3, 52, 68
9, 62880, Control_c, 3, 11, 96
9, 62960, Control_c, 3, 11, 99
9, 63040, Control_c, 3, 11, 101
9, 63119, Note_on_c, 3, 52, 0
9, 63120, Control_c, 3, 11, 104
9, 63200, Control_c, 3, 11, 106
9, 63280, Control_c, 3, 11, 109
9, 63359, Note_on_c, 3, 57, 0
9, 63360, Control_c, 3, 11, 112
9, 63360, Note_on_c, 3, 61, 76
9, 63440, Control_c, 3, 11, 114
9, 63520, Control_c, 3, 11, 117
9, 63600, Control_c, 3, 11, 119
9, 63680, Control_c, 3, 11, 122
9, 63760, Control_c, 3, 11, 124
9, 63840, Note_on_c, 3, 52, 68
9, 63840, Control_c, 3, 11, 127
9, 63920, Control_c, 3, 11, 124
9, 64000, Control_c, 3, 11, 122
9, 64079, Note_on_c, 3, 52, 0
9, 64080, Control_c, 3, 11, 119
9, 64160, Control_c, 3, 11, 117
9, 64240, Control_c, 3, 11, 114
9, 64319, Note_on_c, 3, 61, 0
9, 64320, Note_on_c, 3, 59, 68
9, 64320, Control_c, 3, 11, 112
9, 64400, Control_c, 3, 11, 109
9, 64480, Control_c, 3, 11, 106
9, 64560, Control_c, 3, 11, 104
9, 64640, Control_c, 3, 11, 101
9, 64679, Note_on_c, 3, 59, 0
9, 64680, Note_on_c, 3, 56, 68
9, 64720, Control_c, 3, 11, 99
9, 64769, Note_on_c, 3, 56, 0
9, 64800, Note_on_c, 3, 64, 68
9, 64800, Control_c, 3, 11, 96
9, 64800, Note_on_c, 3, 57, 68
9, 65039, Note_on_c, 3, 57, 0
9, 65759, Note_on_c, 3, 64, 0
9, 65760, Note_on_c, 3, 60, 68
9, 66239, Note_on_c, 3, 60, 0
9, 66240, Note_on_c, 3, 57, 68
9, 66689, Note_on_c, 3, 57, 0
9, 66720, Note_on_c, 3, 52, 68
9, 66959, Note_on_c, 3, 52, 0
9, 68400, Control_c, 3, 11, 80
9, 68640, Note_on_c, 3, 64, 76
9, 68880, Control_c, 3, 11, 83
9, 69120, Control_c, 3, 11, 85
9, 69360, Control_c, 3, 11, 88
9, 69600, Control_c, 3, 11, 91
9, 69840, Control_c, 3, 11, 93
9, 70079, Note_on_c, 3, 64, 0
9, 70080, Control_c, 3, 11, 96
9, 70080, Note_on_c, 3, 62, 76
9, 70319, Note_on_c, 3, 62, 0
9, 70320, Note_on_c, 3, 60, 76
9, 70320, Control_c, 3, 11, 99
9, 70529, Note_on_c, 3, 60, 0
9, 70560, Note_on_c, 3, 67, 76
9, 70560, Control_c, 3, 11, 101
9, 70800, Control_c, 3, 11, 104
9, 71040, Control_c, 3, 11, 107
9, 71280, Control_c, 3, 11, 109
9, 71519, Note_on_c, 3, 67, 0
9, 71520, Note_on_c, 3, 67, 84
9, 71520, Control_c, 3, 11, 127
9, 72480, Control_c, 3, 11, 112
9, 72560, Control_c, 3, 11, 109
9, 72640, Control_c, 3, 11, 107
9, 72720, Control_c, 3, 11, 104
9, 72800, Control_c, 3, 11, 101
9, 72880, Control_c, 3, 11, 99
9, 72959, Note_on_c, 3, 67, 0
9, 72960, Note_on_c, 3, 65, 76
9, 72960, Control_c, 3, 11, 96
9, 73040, Control_c, 3, 11, 93
9, 73120, Control_c, 3, 11, 91
9, 73199, Note_on_c, 3, 65, 0
9, 73200, Control_c, 3, 11, 88
9, 73200, Note_on_c, 3, 64, 76
9, 73280, Control_c, 3, 11, 85
9, 73360, Control_c, 3, 11, 83
9, 73409, Note_on_c, 3, 64, 0
9, 73440, Control_c, 3, 11, 80
9, 73440, Note_on_c, 3, 62, 76
9, 73919, Note_on_c, 3, 62, 0
9, 73920, Note_on_c, 3, 64, 76
9, 74159, Note_on_c, 3, 64, 0
9, 74160, Note_on_c, 3, 65, 76
9, 74369, Note_on_c, 3, 65, 0
9, 74400, Note_on_c, 3, 60, 76
9, 75359, Note_on_c, 3, 60, 0
9, 75360, Note_on_c, 3, 59, 76
9, 76289, Note_on_c, 3, 59, 0
9, 76320, Note_on_c, 3, 64, 76
9, 76320, Control_c, 3, 11, 80
9, 76640, Control_c, 3, 11, 84
9, 76960, Control_c, 3, 11, 88
9, 77279, Note_on_c, 3, 64, 0
9, 77280, Note_on_c, 3, 62, 76
9, 77280, Control_c, 3, 11, 92
9, 77600, Control_c, 3, 11, 96
9, 77759, Note_on_c, 3, 62, 0
9, 77760, Note_on_c, 3, 64, 76
9, 77920, Control_c, 3, 11, 100
9, 77999, Note_on_c, 3, 64, 0
9, 78000, Note_on_c, 3, 65, 76
9, 78209, Note_on_c, 3, 65, 0
9, 78240, Note_on_c, 3, 57, 76
9, 78240, Control_c, 3, 11, 104
9, 78560, Control_c, 3, 11, 107
9, 78880, Control_c, 3, 11, 111
9, 79199, Note_on_c, 3, 57, 0
9, 79200, Note_on_c, 3, 56, 76
9, 79200, Control_c, 3, 11, 115
9, 79520, Control_c, 3, 11, 119
9, 79840, Control_c, 3, 11, 127
9, 80129, Note_on_c, 3, 56, 0
9, 80160, Note_on_c, 3, 49, 76
9, 80339, Note_on_c, 3, 49, 0
9, 80400, Note_on_c, 3, 52, 76
9, 80579, Note_on_c, 3, 52, 0
9, 80640, Note_on_c, 3, 57, 76
9, 80819, Note_on_c, 3, 57, 0
9, 80880, Note_on_c, 3, 61, 76
9, 81059, Note_on_c, 3, 61, 0
9, 81120, Note_on_c, 3, 64, 84
9, 81809, Note_on_c, 3, 64, 0
9, 81840, Note_on_c, 3, 49, 76
9, 82019, Note_on_c, 3, 49, 0
9, 82080, Note_on_c, 3, 50, 76
9, 82259, Note_on_c, 3, 50, 0
9, 82320, Note_on_c, 3, 54, 76
9, 82499, Note_on_c, 3, 54, 0
9, 82560, Note_on_c, 3, 57, 76
9, 82739, Note_on_c, 3, 57, 0
9, 82800, Note_on_c, 3, 62, 76
9, 82979, Note_on_c, 3, 62, 0
9, 83040, Note_on_c, 3, 66, 84
9, 83729, Note_on_c, 3, 66, 0
9, 83760, Note_on_c, 3, 51, 76
9, 83939, Note_on_c, 3, 51, 0
9, 84000, Note_on_c, 3, 52, 84
9, 84179, Note_on_c, 3, 52, 0
9, 84240, Note_on_c, 3, 64, 76
9, 84419, Note_on_c, 3, 64, 0
9, 84720, Note_on_c, 3, 52, 76
9, 84899, Note_on_c, 3, 52, 0
9, 84960, Note_on_c, 3, 50, 84
9, 85139, Note_on_c, 3, 50, 0
9, 85200, Note_on_c, 3, 62, 76
9, 85379, Note_on_c, 3, 62, 0
9, 85680, Note_on_c, 3, 50, 76
9, 85859, Note_on_c, 3, 50, 0
9, 85920, Note_on_c, 3, 49, 76
9, 85920, Note_on_c, 3, 64, 76
9, 86099, Note_on_c, 3, 49, 0
9, 86160, Note_on_c, 3, 52, 76
9, 86339, Note_on_c, 3, 52, 0
9, 86400, Note_on_c, 3, 57, 76
9, 86579, Note_on_c, 3, 57, 0
9, 86640, Note_on_c, 3, 61, 76
9, 86819, Note_on_c, 3, 61, 0
9, 86849, Note_on_c, 3, 64, 0
9, 86880, Note_on_c, 3, 52, 84
9, 86880, Note_on_c, 3, 61, 84
9, 87569, Note_on_c, 3, 52, 0
9, 87569, Note_on_c, 3, 61, 0
9, 87600, Note_on_c, 3, 57, 76
9, 87600, Note_on_c, 3, 49, 76
9, 87809, Note_on_c, 3, 57, 0
9, 87809, Note_on_c, 3, 49, 0
9, 87840, Note_on_c, 3, 50, 76
9, 87840, Note_on_c, 3, 66, 76
9, 88019, Note_on_c, 3, 50, 0
9, 88080, Note_on_c, 3, 54, 76
9, 88259, Note_on_c, 3, 54, 0
9, 88320, Note_on_c, 3, 57, 76
9, 88499, Note_on_c, 3, 57, 0
9, 88560, Note_on_c, 3, 62, 76
9, 88739, Note_on_c, 3, 62, 0
9, 88769, Note_on_c, 3, 66, 0
9, 88800, Note_on_c, 3, 54, 84
9, 88800, Note_on_c, 3, 62, 84
9, 89489, Note_on_c, 3, 54, 0
9, 89489, Note_on_c, 3, 62, 0
9, 89520, Note_on_c, 3, 51, 76
9, 89520, Note_on_c, 3, 57, 76
9, 89729, Note_on_c, 3, 51, 0
9, 89729, Note_on_c, 3, 57, 0
9, 89760, Note_on_c, 3, 52, 84
9, 89939, Note_on_c, 3, 52, 0
9, 90000, Note_on_c, 3, 55, 84
9, 90179, Note_on_c, 3, 55, 0
9, 90240, Note_on_c, 3, 61, 84
9, 90419, Note_on_c, 3, 61, 0
9, 90480, Note_on_c, 3, 64, 84
9, 90659, Note_on_c, 3, 64, 0
9, 90720, Note_on_c, 3, 67, 84
9, 90899, Note_on_c, 3, 67, 0
9, 90960, Note_on_c, 3, 64, 84
9, 91139, Note_on_c, 3, 64, 0
9, 91200, Note_on_c, 3, 61, 84
9, 91379, Note_on_c, 3, 61, 0
9, 91440, Note_on_c, 3, 55, 84
9, 91619, Note_on_c, 3, 55, 0
9, 91680, Note_on_c, 3, 52, 84
9, 91859, Note_on_c, 3, 52, 0
9, 91920, Note_on_c, 3, 55, 84
9, 92099, Note_on_c, 3, 55, 0
9, 92160, Note_on_c, 3, 61, 84
9, 92339, Note_on_c, 3, 61, 0
9, 92400, Note_on_c, 3, 64, 84
9, 92579, Note_on_c, 3, 64, 0
9, 92640, Note_on_c, 3, 67, 84
9, 92819, Note_on_c, 3, 67, 0
9, 92880, Note_on_c, 3, 64, 84
9, 93059, Note_on_c, 3, 64, 0
9, 93120, Note_on_c, 3, 61, 84
9, 93299, Note_on_c, 3, 61, 0
9, 93360, Note_on_c, 3, 55, 84
9, 93539, Note_on_c, 3, 55, 0
9, 93600, Note_on_c, 3, 52, 76
9, 93779, Note_on_c, 3, 52, 0
9, 93840, Note_on_c, 3, 55, 52
9, 94019, Note_on_c, 3, 55, 0
9, 94080, Note_on_c, 3, 61, 52
9, 94259, Note_on_c, 3, 61, 0
9, 94320, Note_on_c, 3, 64, 52
9, 94499, Note_on_c, 3, 64, 0
9, 94560, Note_on_c, 3, 67, 52
9, 94739, Note_on_c, 3, 67, 0
9, 94800, Note_on_c, 3, 64, 52
9, 94979, Note_on_c, 3, 64, 0
9, 95040, Note_on_c, 3, 61, 52
9, 95219, Note_on_c, 3, 61, 0
9, 95280, Note_on_c, 3, 55, 52
9, 95459, Note_on_c, 3, 55, 0
9, 95520, Note_on_c, 3, 52, 52
9, 95699, Note_on_c, 3, 52, 0
9, 95760, Note_on_c, 3, 55, 52
9, 95939, Note_on_c, 3, 55, 0
9, 96000, Note_on_c, 3, 61, 52
9, 96179, Note_on_c, 3, 61, 0
9, 96240, Note_on_c, 3, 64, 52
9, 96419, Note_on_c, 3, 64, 0
9, 96480, Note_on_c, 3, 67, 52
9, 96659, Note_on_c, 3, 67, 0
9, 96720, Note_on_c, 3, 64, 52
9, 96899, Note_on_c, 3, 64, 0
9, 96960, Note_on_c, 3, 61, 52
9, 97139, Note_on_c, 3, 61, 0
9, 97200, Note_on_c, 3, 55, 52
9, 97379, Note_on_c, 3, 55, 0
9, 97440, Note_on_c, 3, 52, 52
9, 97440, Control_c, 3, 11, 127
9, 97520, Control_c, 3, 11, 126
9, 97600, Control_c, 3, 11, 125
9, 97619, Note_on_c, 3, 52, 0
9, 97680, Control_c, 3, 11, 123
9, 97680, Note_on_c, 3, 55, 52
9, 97760, Control_c, 3, 11, 122
9, 97840, Control_c, 3, 11, 121
9, 97859, Note_on_c, 3, 55, 0
9, 97920, Note_on_c, 3, 61, 52
9, 97920, Control_c, 3, 11, 120
9, 98000, Control_c, 3, 11, 118
9, 98080, Control_c, 3, 11, 117
9, 98099, Note_on_c, 3, 61, 0
9, 98160, Note_on_c, 3, 64, 52
9, 98160, Control_c, 3, 11, 116
9, 98240, Control_c, 3, 11, 115
9, 98320, Control_c, 3, 11, 113
9, 98339, Note_on_c, 3, 64, 0
9, 98400, Control_c, 3, 11, 112
9, 98400, Note_on_c, 3, 67, 52
9, 98579, Note_on_c, 3, 67, 0
9, 98640, Note_on_c, 3, 64, 52
9, 98819, Note_on_c, 3, 64, 0
9, 98880, Note_on_c, 3, 61, 52
9, 99059, Note_on_c, 3, 61, 0
9, 99120, Note_on_c, 3, 55, 52
9, 99299, Note_on_c, 3, 55, 0
9, 99360, Note_on_c, 3, 52, 52
9, 99599, Note_on_c, 3, 52, 0
9, 102960, Control_c, 3, 11, 127
9, 103080, Note_on_c, 3, 66, 76
9, 103199, Note_on_c, 3, 66, 0
9, 103200, Note_on_c, 3, 67, 76
9, 103379, Note_on_c, 3, 67, 0
9, 103560, Note_on_c, 3, 49, 76
9, 103649, Note_on_c, 3, 49, 0
9, 103680, Note_on_c, 3, 49, 84
9, 103739, Note_on_c, 3, 49, 0
9, 103740, Note_on_c, 3, 50, 76
9, 103799, Note_on_c, 3, 50, 0
9, 103800, Note_on_c, 3, 49, 76
9, 103859, Note_on_c, 3, 49, 0
9, 103860, Note_on_c, 3, 50, 76
9, 103919, Note_on_c, 3, 50, 0
9, 103920, Note_on_c, 3, 49, 76
9, 103979, Note_on_c, 3, 49, 0
9, 103980, Note_on_c, 3, 50, 76
9, 104039, Note_on_c, 3, 50, 0
9, 104040, Note_on_c, 3, 47, 76
9, 104099, Note_on_c, 3, 47, 0
9, 104100, Note_on_c, 3, 49, 76
9, 104144, Note_on_c, 3, 49, 0
9, 104160, Note_on_c, 3, 52, 76
9, 104339, Note_on_c, 3, 52, 0
9, 104400, Note_on_c, 3, 45, 76
9, 104579, Note_on_c, 3, 45, 0
9, 108000, Note_on_c, 3, 62, 76
9, 108000, Note_on_c, 3, 50, 76
9, 108179, Note_on_c, 3, 62, 0
9, 108179, Note_on_c, 3, 50, 0
9, 108240, Note_on_c, 3, 57, 76
9, 108240, Note_on_c, 3, 45, 76
9, 108419, Note_on_c, 3, 57, 0
9, 108419, Note_on_c, 3, 45, 0
9, 108840, Note_on_c, 3, 66, 84
9, 108959, Note_on_c, 3, 66, 0
9, 108960, Note_on_c, 3, 67, 84
9, 109139, Note_on_c, 3, 67, 0
9, 109320, Note_on_c, 3, 49, 84
9, 109409, Note_on_c, 3, 49, 0
9, 109440, Note_on_c, 3, 49, 92
9, 109499, Note_on_c, 3, 49, 0
9, 109500, Note_on_c, 3, 50, 84
9, 109559, Note_on_c, 3, 50, 0
9, 109560, Note_on_c, 3, 49, 84
9, 109619, Note_on_c, 3, 49, 0
9, 109620, Note_on_c, 3, 50, 84
9, 109679, Note_on_c, 3, 50, 0
9, 109680, Note_on_c, 3, 49, 84
9, 109739, Note_on_c, 3, 49, 0
9, 109740, Note_on_c, 3, 50, 84
9, 109799, Note_on_c, 3, 50, 0
9, 109800, Note_on_c, 3, 47, 84
9, 109859, Note_on_c, 3, 47, 0
9, 109860, Note_on_c, 3, 49, 84
9, 109904, Note_on_c, 3, 49, 0
9, 109920, Note_on_c, 3, 52, 84
9, 110099, Note_on_c, 3, 52, 0
9, 110160, Note_on_c, 3, 45, 84
9, 110339, Note_on_c, 3, 45, 0
9, 115200, Note_on_c, 3, 53, 84
9, 115200, Note_on_c, 3, 57, 84
9, 115679, Note_on_c, 3, 53, 0
9, 115679, Note_on_c, 3, 57, 0
9, 115680, Note_on_c, 3, 55, 76
9, 115680, Note_on_c, 3, 58, 76
9, 115919, Note_on_c, 3, 55, 0
9, 115919, Note_on_c, 3, 58, 0
9, 117120, Note_on_c, 3, 58, 84
9, 117120, Note_on_c, 3, 55, 84
9, 117599, Note_on_c, 3, 58, 0
9, 117599, Note_on_c, 3, 55, 0
9, 117600, Note_on_c, 3, 53, 76
9, 117600, Note_on_c, 3, 57, 76
9, 117839, Note_on_c, 3, 53, 0
9, 117839, Note_on_c, 3, 57, 0
9, 119040, Note_on_c, 3, 53, 76
9, 119040, Note_on_c, 3, 57, 76
9, 119219, Note_on_c, 3, 53, 0
9, 119219, Note_on_c, 3, 57, 0
9, 119280, Note_on_c, 3, 57, 76
9, 119280, Note_on_c, 3, 53, 76
9, 119459, Note_on_c, 3, 57, 0
9, 119459, Note_on_c, 3, 53, 0
9, 120960, Note_on_c, 3, 58, 76
9, 120960, Note_on_c, 3, 55, 76
9, 121139, Note_on_c, 3, 58, 0
9, 121139, Note_on_c, 3, 55, 0
9, 121200, Note_on_c, 3, 55, 76
9, 121200, Note_on_c, 3, 58, 76
9, 121379, Note_on_c, 3, 55, 0
9, 121379, Note_on_c, 3, 58, 0
9, 121920, Note_on_c, 3, 53, 76
9, 121920, Note_on_c, 3, 57, 76
9, 122099, Note_on_c, 3, 53, 0
9, 122099, Note_on_c, 3, 57, 0
9, 122160, Note_on_c, 3, 57, 76
9, 122160, Note_on_c, 3, 53, 76
9, 122339, Note_on_c, 3, 57, 0
9, 122339, Note_on_c, 3, 53, 0
9, 122880, Note_on_c, 3, 58, 76
9, 122880, Note_on_c, 3, 55, 76
9, 123059, Note_on_c, 3, 58, 0
9, 123059, Note_on_c, 3, 55, 0
9, 123120, Note_on_c, 3, 58, 76
9, 123120, Note_on_c, 3, 55, 76
9, 123299, Note_on_c, 3, 58, 0
9, 123299, Note_on_c, 3, 55, 0
9, 123840, Note_on_c, 3, 53, 76
9, 123840, Note_on_c, 3, 57, 76
9, 124019, Note_on_c, 3, 53, 0
9, 124019, Note_on_c, 3, 57, 0
9, 124080, Note_on_c, 3, 57, 76
9, 124080, Note_on_c, 3, 53, 76
9, 124259, Note_on_c, 3, 57, 0
9, 124259, Note_on_c, 3, 53, 0
9, 124800, Note_on_c, 3, 58, 76
9, 124800, Note_on_c, 3, 55, 76
9, 124979, Note_on_c, 3, 58, 0
9, 124979, Note_on_c, 3, 55, 0
9, 125040, Note_on_c, 3, 55, 76
9, 125040, Note_on_c, 3, 58, 76
9, 125219, Note_on_c, 3, 55, 0
9, 125219, Note_on_c, 3, 58, 0
9, 125280, Note_on_c, 3, 53, 76
9, 125280, Note_on_c, 3, 57, 76
9, 125519, Note_on_c, 3, 53, 0
9, 125519, Note_on_c, 3, 57, 0
9, 127200, Note_on_c, 3, 58, 76
9, 127320, Control_c, 3, 11, 80
9, 127679, Note_on_c, 3, 58, 0
9, 127680, Note_on_c, 3, 59, 76
9, 128159, Note_on_c, 3, 59, 0
9, 128160, Note_on_c, 3, 60, 76
9, 128639, Note_on_c, 3, 60, 0
9, 128640, Note_on_c, 3, 65, 76
9, 129089, Note_on_c, 3, 65, 0
9, 129120, Note_on_c, 3, 63, 76
9, 129359, Note_on_c, 3, 63, 0
9, 130800, Control_c, 3, 11, 127
9, 131040, Note_on_c, 3, 56, 76
9, 131160, Control_c, 3, 11, 80
9, 131519, Note_on_c, 3, 56, 0
9, 131520, Note_on_c, 3, 57, 76
9, 131999, Note_on_c, 3, 57, 0
9, 132000, Note_on_c, 3, 58, 76
9, 132479, Note_on_c, 3, 58, 0
9, 132480, Note_on_c, 3, 63, 76
9, 132929, Note_on_c, 3, 63, 0
9, 132945, Control_c, 3, 11, 127
9, 132960, Note_on_c, 3, 62, 76
9, 132960, Note_on_c, 3, 46, 76
9, 133199, Note_on_c, 3, 62, 0
9, 133199, Note_on_c, 3, 46, 0
9, 133320, Note_on_c, 3, 50, 76
9, 133409, Note_on_c, 3, 50, 0
9, 133440, Note_on_c, 3, 50, 84
9, 133499, Note_on_c, 3, 50, 0
9, 133500, Note_on_c, 3, 51, 76
9, 133559, Note_on_c, 3, 51, 0
9, 133560, Note_on_c, 3, 50, 76
9, 133619, Note_on_c, 3, 50, 0
9, 133620, Note_on_c, 3, 51, 76
9, 133679, Note_on_c, 3, 51, 0
9, 133680, Note_on_c, 3, 50, 76
9, 133739, Note_on_c, 3, 50, 0
9, 133740, Note_on_c, 3, 51, 76
9, 133799, Note_on_c, 3, 51, 0
9, 133800, Note_on_c, 3, 48, 76
9, 133859, Note_on_c, 3, 48, 0
9, 133860, Note_on_c, 3, 50, 76
9, 133904, Note_on_c, 3, 50, 0
9, 133920, Note_on_c, 3, 53, 76
9, 133920, Note_on_c, 3, 58, 76
9, 134099, Note_on_c, 3, 53, 0
9, 134099, Note_on_c, 3, 58, 0
9, 134160, Note_on_c, 3, 62, 76
9, 134160, Note_on_c, 3, 46, 76
9, 134339, Note_on_c, 3, 62, 0
9, 134339, Note_on_c, 3, 46, 0
9, 134400, Note_on_c, 3, 65, 76
9, 134579, Note_on_c, 3, 65, 0
9, 134640, Note_on_c, 3, 58, 76
9, 134819, Note_on_c, 3, 58, 0
9, 134880, Note_on_c, 3, 45, 76
9, 135119, Note_on_c, 3, 45, 0
9, 135240, Note_on_c, 3, 50, 76
9, 135329, Note_on_c, 3, 50, 0
9, 135360, Note_on_c, 3, 50, 84
9, 135419, Note_on_c, 3, 50, 0
9, 135420, Note_on_c, 3, 52, 76
9, 135479, Note_on_c, 3, 52, 0
9, 135480, Note_on_c, 3, 50, 76
9, 135539, Note_on_c, 3, 50, 0
9, 135540, Note_on_c, 3, 52, 76
9, 135599, Note_on_c, 3, 52, 0
9, 135600, Note_on_c, 3, 50, 76
9, 135659, Note_on_c, 3, 50, 0
9, 135660, Note_on_c, 3, 52, 76
9, 135719, Note_on_c, 3, 52, 0
9, 135720, Note_on_c, 3, 49, 76
9, 135779, Note_on_c, 3, 49, 0
9, 135780, Note_on_c, 3, 50, 76
9, 135824, Note_on_c, 3, 50, 0
9, 135840, Note_on_c, 3, 53, 76
9, 135840, Note_on_c, 3, 57, 76
9, 136019, Note_on_c, 3, 53, 0
9, 136019, Note_on_c, 3, 57, 0
9, 136080, Note_on_c, 3, 45, 76
9, 136080, Note_on_c, 3, 62, 76
9, 136259, Note_on_c, 3, 45, 0
9, 136259, Note_on_c, 3, 62, 0
9, 136320, Note_on_c, 3, 65, 76
9, 136499, Note_on_c, 3, 65, 0
9, 136560, Note_on_c, 3, 57, 76
9, 136739, Note_on_c, 3, 57, 0
9, 136800, Note_on_c, 3, 44, 52
9, 137009, Note_on_c, 3, 44, 0
9, 137040, Note_on_c, 3, 62, 52
9, 137219, Note_on_c, 3, 62, 0
9, 137280, Note_on_c, 3, 65, 52
9, 137459, Note_on_c, 3, 65, 0
9, 137520, Note_on_c, 3, 56, 52
9, 137699, Note_on_c, 3, 56, 0
9, 137760, Note_on_c, 3, 43, 52
9, 137969, Note_on_c, 3, 43, 0
9, 138000, Note_on_c, 3, 62, 52
9, 138179, Note_on_c, 3, 62, 0
9, 138240, Note_on_c, 3, 65, 52
9, 138419, Note_on_c, 3, 65, 0
9, 138480, Note_on_c, 3, 55, 52
9, 138659, Note_on_c, 3, 55, 0
9, 138720, Note_on_c, 3, 48, 76
9, 138959, Note_on_c, 3, 48, 0
9, 139080, Note_on_c, 3, 52, 76
9, 139169, Note_on_c, 3, 52, 0
9, 139200, Note_on_c, 3, 52, 84
9, 139259, Note_on_c, 3, 52, 0
9, 139260, Note_on_c, 3, 53, 76
9, 139319, Note_on_c, 3, 53, 0
9, 139320, Note_on_c, 3, 52, 76
9, 139379, Note_on_c, 3, 52, 0
9, 139380, Note_on_c, 3, 53, 76
9, 139439, Note_on_c, 3, 53, 0
9, 139440, Note_on_c, 3, 52, 76
9, 139499, Note_on_c, 3, 52, 0
9, 139500, Note_on_c, 3, 53, 76
9, 139559, Note_on_c, 3, 53, 0
9, 139560, Note_on_c, 3, 50, 76
9, 139619, Note_on_c, 3, 50, 0
9, 139620, Note_on_c, 3, 52, 76
9, 139664, Note_on_c, 3, 52, 0
9, 139680, Note_on_c, 3, 60, 76
9, 139680, Note_on_c, 3, 55, 76
9, 139859, Note_on_c, 3, 60, 0
9, 139859, Note_on_c, 3, 55, 0
9, 139920, Note_on_c, 3, 64, 76
9, 139920, Note_on_c, 3, 48, 76
9, 140099, Note_on_c, 3, 64, 0
9, 140099, Note_on_c, 3, 48, 0
9, 140160, Note_on_c, 3, 67, 76
9, 140339, Note_on_c, 3, 67, 0
9, 140400, Note_on_c, 3, 60, 76
9, 140579, Note_on_c, 3, 60, 0
9, 140640, Note_on_c, 3, 47, 76
9, 140879, Note_on_c, 3, 47, 0
9, 141000, Note_on_c, 3, 52, 76
9, 141089, Note_on_c, 3, 52, 0
9, 141120, Note_on_c, 3, 52, 84
9, 141179, Note_on_c, 3, 52, 0
9, 141180, Note_on_c, 3, 54, 76
9, 141239, Note_on_c, 3, 54, 0
9, 141240, Note_on_c, 3, 52, 76
9, 141299, Note_on_c, 3, 52, 0
9, 141300, Note_on_c, 3, 54, 76
9, 141359, Note_on_c, 3, 54, 0
9, 141360, Note_on_c, 3, 52, 76
9, 141419, Note_on_c, 3, 52, 0
9, 141420, Note_on_c, 3, 54, 76
9, 141479, Note_on_c, 3, 54, 0
9, 141480, Note_on_c, 3, 51, 76
9, 141539, Note_on_c, 3, 51, 0
9, 141540, Note_on_c, 3, 52, 76
9, 141584, Note_on_c, 3, 52, 0
9, 141600, Note_on_c, 3, 55, 76
9, 141600, Note_on_c, 3, 59, 76
9, 141779, Note_on_c, 3, 55, 0
9, 141779, Note_on_c, 3, 59, 0
9, 141840, Note_on_c, 3, 64, 76
9, 141840, Note_on_c, 3, 47, 76
9, 142019, Note_on_c, 3, 64, 0
9, 142019, Note_on_c, 3, 47, 0
9, 142080, Note_on_c, 3, 67, 76
9, 142259, Note_on_c, 3, 67, 0
9, 142320, Note_on_c, 3, 59, 76
9, 142499, Note_on_c, 3, 59, 0
9, 142560, Note_on_c, 3, 46, 52
9, 142769, Note_on_c, 3, 46, 0
9, 142800, Note_on_c, 3, 64, 52
9, 142979, Note_on_c, 3, 64, 0
9, 143040, Note_on_c, 3, 67, 52
9, 143219, Note_on_c, 3, 67, 0
9, 143280, Note_on_c, 3, 58, 52
9, 143459, Note_on_c, 3, 58, 0
9, 143520, Note_on_c, 3, 45, 52
9, 143729, Note_on_c, 3, 45, 0
9, 143760, Note_on_c, 3, 64, 52
9, 143939, Note_on_c, 3, 64, 0
9, 144000, Note_on_c, 3, 67, 52
9, 144179, Note_on_c, 3, 67, 0
9, 144240, Note_on_c, 3, 57, 52
9, 144419, Note_on_c, 3, 57, 0
9, 144465, Control_c, 3, 11, 80
9, 144480, Note_on_c, 3, 50, 76
9, 144689, Note_on_c, 3, 50, 0
9, 144720, Note_on_c, 3, 62, 76
9, 144720, Control_c, 3, 11, 82
9, 144899, Note_on_c, 3, 62, 0
9, 144960, Control_c, 3, 11, 84
9, 144960, Note_on_c, 3, 65, 76
9, 145139, Note_on_c, 3, 65, 0
9, 145200, Control_c, 3, 11, 86
9, 145200, Note_on_c, 3, 57, 76
9, 145379, Note_on_c, 3, 57, 0
9, 145440, Control_c, 3, 11, 88
9, 145440, Note_on_c, 3, 47, 76
9, 145649, Note_on_c, 3, 47, 0
9, 145680, Control_c, 3, 11, 90
9, 145680, Note_on_c, 3, 63, 76
9, 145859, Note_on_c, 3, 63, 0
9, 145920, Control_c, 3, 11, 92
9, 145920, Note_on_c, 3, 66, 76
9, 146099, Note_on_c, 3, 66, 0
9, 146160, Note_on_c, 3, 59, 76
9, 146160, Control_c, 3, 11, 94
9, 146339, Note_on_c, 3, 59, 0
9, 146400, Note_on_c, 3, 52, 76
9, 146400, Control_c, 3, 11, 96
9, 146609, Note_on_c, 3, 52, 0
9, 146640, Note_on_c, 3, 64, 76
9, 146640, Control_c, 3, 11, 98
9, 146819, Note_on_c, 3, 64, 0
9, 146880, Control_c, 3, 11, 100
9, 146880, Note_on_c, 3, 67, 76
9, 147059, Note_on_c, 3, 67, 0
9, 147120, Note_on_c, 3, 59, 76
9, 147120, Control_c, 3, 11, 102
9, 147299, Note_on_c, 3, 59, 0
9, 147360, Control_c, 3, 11, 104
9, 147360, Note_on_c, 3, 49, 76
9, 147569, Note_on_c, 3, 49, 0
9, 147600, Control_c, 3, 11, 105
9, 147600, Note_on_c, 3, 59, 76
9, 147779, Note_on_c, 3, 59, 0
9, 147840, Note_on_c, 3, 61, 76
9, 147840, Control_c, 3, 11, 107
9, 148019, Note_on_c, 3, 61, 0
9, 148080, Note_on_c, 3, 59, 76
9, 148080, Control_c, 3, 11, 109
9, 148259, Note_on_c, 3, 59, 0
9, 148320, Control_c, 3, 11, 111
9, 148320, Note_on_c, 3, 54, 76
9, 148529, Note_on_c, 3, 54, 0
9, 148560, Control_c, 3, 11, 113
9, 148560, Note_on_c, 3, 57, 76
9, 148739, Note_on_c, 3, 57, 0
9, 148800, Note_on_c, 3, 61, 76
9, 148800, Control_c, 3, 11, 115
9, 148979, Note_on_c, 3, 61, 0
9, 149040, Control_c, 3, 11, 117
9, 149040, Note_on_c, 3, 57, 76
9, 149219, Note_on_c, 3, 57, 0
9, 149280, Note_on_c, 3, 50, 76
9, 149280, Control_c, 3, 11, 119
9, 149489, Note_on_c, 3, 50, 0
9, 149520, Control_c, 3, 11, 121
9, 149520, Note_on_c, 3, 54, 76
9, 149699, Note_on_c, 3, 54, 0
9, 149760, Note_on_c, 3, 66, 76
9, 149760, Control_c, 3, 11, 123
9, 149939, Note_on_c, 3, 66, 0
9, 150000, Note_on_c, 3, 66, 76
9, 150000, Control_c, 3, 11, 125
9, 150179, Note_on_c, 3, 66, 0
9, 150240, Note_on_c, 3, 49, 76
9, 150240, Note_on_c, 3, 65, 76
9, 150240, Control_c, 3, 11, 127
9, 150479, Note_on_c, 3, 49, 0
9, 150479, Note_on_c, 3, 65, 0
9, 154080, Note_on_c, 3, 49, 84
9, 154080, Note_on_c, 3, 61, 84
9, 154799, Note_on_c, 3, 49, 0
9, 154799, Note_on_c, 3, 61, 0
9, 154800, Note_on_c, 3, 60, 84
9, 154800, Note_on_c, 3, 48, 84
9, 155039, Note_on_c, 3, 60, 0
9, 155039, Note_on_c, 3, 48, 0
9, 155040, Note_on_c, 3, 49, 84
9, 155040, Note_on_c, 3, 61, 84
9, 155279, Note_on_c, 3, 49, 0
9, 155279, Note_on_c, 3, 61, 0
9, 155280, Note_on_c, 3, 62, 84
9, 155280, Note_on_c, 3, 50, 84
9, 155519, Note_on_c, 3, 62, 0
9, 155519, Note_on_c, 3, 50, 0
9, 155520, Note_on_c, 3, 61, 84
9, 155520, Note_on_c, 3, 49, 84
9, 155759, Note_on_c, 3, 61, 0
9, 155759, Note_on_c, 3, 49, 0
9, 155760, Note_on_c, 3, 47, 84
9, 155760, Note_on_c, 3, 59, 84
9, 155969, Note_on_c, 3, 47, 0
9, 155969, Note_on_c, 3, 59, 0
9, 156000, Note_on_c, 3, 57, 84
9, 156000, Note_on_c, 3, 45, 84
9, 156239, Note_on_c, 3, 57, 0
9, 156239, Note_on_c, 3, 45, 0
9, 156240, Note_on_c, 3, 56, 84
9, 156479, Note_on_c, 3, 56, 0
9, 156480, Note_on_c, 3, 54, 84
9, 156719, Note_on_c, 3, 54, 0
9, 156720, Note_on_c, 3, 53, 84
9, 156959, Note_on_c, 3, 53, 0
9, 156960, Note_on_c, 3, 54, 84
9, 157199, Note_on_c, 3, 54, 0
9, 157200, Note_on_c, 3, 50, 84
9, 157200, Note_on_c, 3, 62, 84
9, 157439, Note_on_c, 3, 50, 0
9, 157439, Note_on_c, 3, 62, 0
9, 157440, Note_on_c, 3, 49, 84
9, 157440, Note_on_c, 3, 61, 84
9, 157679, Note_on_c, 3, 49, 0
9, 157679, Note_on_c, 3, 61, 0
9, 157680, Note_on_c, 3, 59, 84
9, 157680, Note_on_c, 3, 47, 84
9, 157889, Note_on_c, 3, 59, 0
9, 157889, Note_on_c, 3, 47, 0
9, 157920, Note_on_c, 3, 45, 84
9, 157920, Note_on_c, 3, 57, 84
9, 158159, Note_on_c, 3, 45, 0
9, 158159, Note_on_c, 3, 57, 0
9, 158280, Note_on_c, 3, 65, 84
9, 158399, Note_on_c, 3, 65, 0
9, 158400, Note_on_c, 3, 66, 84
9, 158579, Note_on_c, 3, 66, 0
9, 158760, Note_on_c, 3, 45, 84
9, 158879, Note_on_c, 3, 45, 0
9, 158880, Note_on_c, 3, 47, 84
9, 159059, Note_on_c, 3, 47, 0
9, 159240, Note_on_c, 3, 65, 84
9, 159359, Note_on_c, 3, 65, 0
9, 159360, Note_on_c, 3, 66, 84
9, 159539, Note_on_c, 3, 66, 0
9, 159720, Note_on_c, 3, 47, 84
9, 159839, Note_on_c, 3, 47, 0
9, 159840, Note_on_c, 3, 49, 84
9, 160019, Note_on_c, 3, 49, 0
9, 160200, Note_on_c, 3, 65, 84
9, 160319, Note_on_c, 3, 65, 0
9, 160320, Note_on_c, 3, 66, 84
9, 160499, Note_on_c, 3, 66, 0
9, 160680, Note_on_c, 3, 49, 84
9, 160799, Note_on_c, 3, 49, 0
9, 160800, Note_on_c, 3, 50, 84
9, 160979, Note_on_c, 3, 50, 0
9, 161040, Note_on_c, 3, 66, 84
9, 161160, Note_on_c, 3, 50, 84
9, 161279, Note_on_c, 3, 50, 0
9, 161280, Note_on_c, 3, 48, 84
9, 161459, Note_on_c, 3, 48, 0
9, 161489, Note_on_c, 3, 66, 0
9, 161520, Note_on_c, 3, 66, 84
9, 161640, Note_on_c, 3, 48, 84
9, 161759, Note_on_c, 3, 48, 0
9, 161760, Note_on_c, 3, 49, 84
9, 161939, Note_on_c, 3, 49, 0
9, 161999, Note_on_c, 3, 66, 0
9, 163680, Note_on_c, 3, 54, 84
9, 163919, Note_on_c, 3, 54, 0
9, 164040, Note_on_c, 3, 65, 84
9, 164159, Note_on_c, 3, 65, 0
9, 164160, Note_on_c, 3, 66, 84
9, 164339, Note_on_c, 3, 66, 0
9, 164520, Note_on_c, 3, 45, 84
9, 164639, Note_on_c, 3, 45, 0
9, 164640, Note_on_c, 3, 47, 84
9, 164819, Note_on_c, 3, 47, 0
9, 165000, Note_on_c, 3, 65, 84
9, 165119, Note_on_c, 3, 65, 0
9, 165120, Note_on_c, 3, 66, 84
9, 165299, Note_on_c, 3, 66, 0
9, 165480, Note_on_c, 3, 47, 84
9, 165599, Note_on_c, 3, 47, 0
9, 165600, Note_on_c, 3, 49, 84
9, 165779, Note_on_c, 3, 49, 0
9, 165960, Note_on_c, 3, 65, 84
9, 166079, Note_on_c, 3, 65, 0
9, 166080, Note_on_c, 3, 66, 84
9, 166259, Note_on_c, 3, 66, 0
9, 166440, Note_on_c, 3, 49, 84
9, 166559, Note_on_c, 3, 49, 0
9, 166560, Note_on_c, 3, 50, 84
9, 166739, Note_on_c, 3, 50, 0
9, 166920, Note_on_c, 3, 50, 84
9, 167039, Note_on_c, 3, 50, 0
9, 167040, Note_on_c, 3, 48, 84
9, 167219, Note_on_c, 3, 48, 0
9, 167400, Note_on_c, 3, 48, 84
9, 167519, Note_on_c, 3, 48, 0
9, 167520, Note_on_c, 3, 49, 92
9, 167699, Note_on_c, 3, 49, 0
9, 167880, Note_on_c, 3, 65, 84
9, 167999, Note_on_c, 3, 65, 0
9, 168000, Note_on_c, 3, 66, 84
9, 168179, Note_on_c, 3, 66, 0
9, 168360, Note_on_c, 3, 49, 84
9, 168479, Note_on_c, 3, 49, 0
9, 168480, Note_on_c, 3, 50, 84
9, 168659, Note_on_c, 3, 50, 0
9, 168840, Note_on_c, 3, 50, 84
9, 168959, Note_on_c, 3, 50, 0
9, 168960, Note_on_c, 3, 48, 84
9, 169139, Note_on_c, 3, 48, 0
9, 169320, Note_on_c, 3, 48, 84
9, 169439, Note_on_c, 3, 48, 0
9, 169440, Note_on_c, 3, 49, 84
9, 169619, Note_on_c, 3, 49, 0
9, 169680, Note_on_c, 3, 66, 84
9, 169800, Note_on_c, 3, 49, 84
9, 169919, Note_on_c, 3, 49, 0
9, 169920, Note_on_c, 3, 50, 84
9, 170099, Note_on_c, 3, 50, 0
9, 170129, Note_on_c, 3, 66, 0
9, 170160, Note_on_c, 3, 66, 84
9, 170280, Note_on_c, 3, 48, 84
9, 170399, Note_on_c, 3, 48, 0
9, 170400, Note_on_c, 3, 49, 92
9, 170579, Note_on_c, 3, 49, 0
9, 170609, Note_on_c, 3, 66, 0
9, 170640, Note_on_c, 3, 66, 84
9, 170760, Note_on_c, 3, 49, 84
9, 170879, Note_on_c, 3, 49, 0
9, 170880, Note_on_c, 3, 50, 84
9, 171059, Note_on_c, 3, 50, 0
9, 171089, Note_on_c, 3, 66, 0
9, 171120, Note_on_c, 3, 66, 84
9, 171240, Note_on_c, 3, 48, 84
9, 171359, Note_on_c, 3, 48, 0
9, 171360, Note_on_c, 3, 49, 92
9, 171569, Note_on_c, 3, 66, 0
9, 171599, Note_on_c, 3, 49, 0
9, 171600, Note_on_c, 3, 66, 84
9, 171600, Note_on_c, 3, 57, 84
9, 172049, Note_on_c, 3, 66, 0
9, 172049, Note_on_c, 3, 57, 0
9, 172080, Note_on_c, 3, 57, 84
9, 172080, Note_on_c, 3, 66, 84
9, 172529, Note_on_c, 3, 57, 0
9, 172529, Note_on_c, 3, 66, 0
9, 172560, Note_on_c, 3, 66, 84
9, 172560, Note_on_c, 3, 57, 84
9, 173009, Note_on_c, 3, 66, 0
9, 173009, Note_on_c, 3, 57, 0
9, 173040, Note_on_c, 3, 66, 84
9, 173040, Note_on_c, 3, 57, 84
9, 173519, Note_on_c, 3, 66, 0
9, 173519, Note_on_c, 3, 57, 0
9, 177000, Note_on_c, 3, 66, 76
9, 177119, Note_on_c, 3, 66, 0
9, 177120, Note_on_c, 3, 67, 76
9, 177299, Note_on_c, 3, 67, 0
9, 177480, Note_on_c, 3, 49, 76
9, 177569, Note_on_c, 3, 49, 0
9, 177600, Note_on_c, 3, 49, 84
9, 177659, Note_on_c, 3, 49, 0
9, 177660, Note_on_c, 3, 50, 76
9, 177719, Note_on_c, 3, 50, 0
9, 177720, Note_on_c, 3, 49, 76
9, 177779, Note_on_c, 3, 49, 0
9, 177780, Note_on_c, 3, 50, 76
9, 177839, Note_on_c, 3, 50, 0
9, 177840, Note_on_c, 3, 49, 76
9, 177899, Note_on_c, 3, 49, 0
9, 177900, Note_on_c, 3, 50, 76
9, 177959, Note_on_c, 3, 50, 0
9, 177960, Note_on_c, 3, 47, 76
9, 178019, Note_on_c, 3, 47, 0
9, 178020, Note_on_c, 3, 49, 76
9, 178064, Note_on_c, 3, 49, 0
9, 178080, Note_on_c, 3, 52, 76
9, 178259, Note_on_c, 3, 52, 0
9, 178320, Note_on_c, 3, 45, 76
9, 178499, Note_on_c, 3, 45, 0
9, 181920, Note_on_c, 3, 62, 76
9, 181920, Note_on_c, 3, 50, 76
9, 182099, Note_on_c, 3, 62, 0
9, 182099, Note_on_c, 3, 50, 0
9, 182160, Note_on_c, 3, 57, 76
9, 182160, Note_on_c, 3, 45, 76
9, 182339, Note_on_c, 3, 57, 0
9, 182339, Note_on_c, 3, 45, 0
9, 182760, Note_on_c, 3, 66, 84
9, 182879, Note_on_c, 3, 66, 0
9, 182880, Note_on_c, 3, 67, 84
9, 183059, Note_on_c, 3, 67, 0
9, 183240, Note_on_c, 3, 49, 84
9, 183329, Note_on_c, 3, 49, 0
9, 183360, Note_on_c, 3, 49, 92
9, 183419, Note_on_c, 3, 49, 0
9, 183420, Note_on_c, 3, 50, 84
9, 183479, Note_on_c, 3, 50, 0
9, 183480, Note_on_c, 3, 49, 84
9, 183539, Note_on_c, 3, 49, 0
9, 183540, Note_on_c, 3, 50, 84
9, 183599, Note_on_c, 3, 50, 0
9, 183600, Note_on_c, 3, 49, 84
9, 183659, Note_on_c, 3, 49, 0
9, 183660, Note_on_c, 3, 50, 84
9, 183719, Note_on_c, 3, 50, 0
9, 183720, Note_on_c, 3, 47, 84
9, 183779, Note_on_c, 3, 47, 0
9, 183780, Note_on_c, 3, 49, 84
9, 183824, Note_on_c, 3, 49, 0
9, 183840, Note_on_c, 3, 52, 84
9, 184019, Note_on_c, 3, 52, 0
9, 184080, Note_on_c, 3, 45, 84
9, 184259, Note_on_c, 3, 45, 0
9, 188040, Note_on_c, 3, 61, 76
9, 188159, Note_on_c, 3, 61, 0
9, 188160, Note_on_c, 3, 62, 76
9, 188339, Note_on_c, 3, 62, 0
9, 189960, Note_on_c, 3, 61, 76
9, 190079, Note_on_c, 3, 61, 0
9, 190080, Note_on_c, 3, 62, 76
9, 190259, Note_on_c, 3, 62, 0
9, 191520, Note_on_c, 3, 62, 84
9, 191639, Note_on_c, 3, 62, 0
9, 191640, Note_on_c, 3, 61, 76
9, 191759, Note_on_c, 3, 61, 0
9, 191760, Note_on_c, 3, 62, 76
9, 191879, Note_on_c, 3, 62, 0
9, 191880, Note_on_c, 3, 61, 76
9, 191969, Note_on_c, 3, 61, 0
9, 192000, Note_on_c, 3, 62, 76
9, 192239, Note_on_c, 3, 62, 0
9, 193440, Note_on_c, 3, 62, 84
9, 193559, Note_on_c, 3, 62, 0
9, 193560, Note_on_c, 3, 61, 76
9, 193679, Note_on_c, 3, 61, 0
9, 193680, Note_on_c, 3, 62, 76
9, 193799, Note_on_c, 3, 62, 0
9, 193800, Note_on_c, 3, 61, 76
9, 193889, Note_on_c, 3, 61, 0
9, 193920, Note_on_c, 3, 62, 76
9, 194129, Note_on_c, 3, 62, 0
9, 194160, Note_on_c, 3, 48, 76
9, 194160, Note_on_c, 3, 60, 76
9, 194339, Note_on_c, 3, 48, 0
9, 194339, Note_on_c, 3, 60, 0
9, 194400, Note_on_c, 3, 47, 76
9, 194400, Note_on_c, 3, 59, 76
9, 194579, Note_on_c, 3, 47, 0
9, 194579, Note_on_c, 3, 59, 0
9, 194640, Note_on_c, 3, 60, 76
9, 194640, Note_on_c, 3, 48, 76
9, 194819, Note_on_c, 3, 60, 0
9, 194819, Note_on_c, 3, 48, 0
9, 194880, Note_on_c, 3, 47, 76
9, 194880, Note_on_c, 3, 59, 76
9, 195059, Note_on_c, 3, 47, 0
9, 195059, Note_on_c, 3, 59, 0
9, 195120, Note_on_c, 3, 46, 76
9, 195120, Note_on_c, 3, 58, 76
9, 195299, Note_on_c, 3, 46, 0
9, 195299, Note_on_c, 3, 58, 0
9, 195360, Note_on_c, 3, 45, 84
9, 195360, Note_on_c, 3, 57, 84
9, 195599, Note_on_c, 3, 45, 0
9, 195599, Note_on_c, 3, 57, 0
9, 195840, Note_on_c, 3, 64, 84
9, 195840, Note_on_c, 3, 67, 84
9, 196319, Note_on_c, 3, 64, 0
9, 196319, Note_on_c, 3, 67, 0
9, 196320, Note_on_c, 3, 66, 84
9, 196320, Note_on_c, 3, 62, 84
9, 196769, Note_on_c, 3, 62, 0
9, 196799, Note_on_c, 3, 66, 0
9, 196800, Note_on_c, 3, 62, 84
9, 196800, Note_on_c, 3, 65, 84
9, 197249, Note_on_c, 3, 62, 0
9, 197249, Note_on_c, 3, 65, 0
9, 197280, Note_on_c, 3, 61, 84
9, 197280, Note_on_c, 3, 64, 84
9, 197759, Note_on_c, 3, 61, 0
9, 197759, Note_on_c, 3, 64, 0
9, 197760, Note_on_c, 3, 64, 84
9, 197760, Note_on_c, 3, 67, 84
9, 198239, Note_on_c, 3, 64, 0
9, 198239, Note_on_c, 3, 67, 0
9, 198240, Note_on_c, 3, 62, 84
9, 198240, Note_on_c, 3, 66, 84
9, 198689, Note_on_c, 3, 62, 0
9, 198719, Note_on_c, 3, 66, 0
9, 198720, Note_on_c, 3, 62, 84
9, 198720, Note_on_c, 3, 65, 84
9, 199169, Note_on_c, 3, 62, 0
9, 199169, Note_on_c, 3, 65, 0
9, 199200, Note_on_c, 3, 64, 84
9, 199200, Note_on_c, 3, 61, 84
9, 199409, Note_on_c, 3, 64, 0
9, 199409, Note_on_c, 3, 61, 0
9, 199440, Note_on_c, 3, 57, 84
9, 199440, Note_on_c, 3, 45, 84
9, 199649, Note_on_c, 3, 57, 0
9, 199649, Note_on_c, 3, 45, 0
9, 199680, Note_on_c, 3, 45, 84
9, 199680, Note_on_c, 3, 57, 84
9, 199889, Note_on_c, 3, 45, 0
9, 199889, Note_on_c, 3, 57, 0
9, 199920, Note_on_c, 3, 45, 84
9, 199920, Note_on_c, 3, 57, 84
9, 200129, Note_on_c, 3, 45, 0
9, 200129, Note_on_c, 3, 57, 0
9, 200160, Note_on_c, 3, 45, 84
9, 200160, Note_on_c, 3, 57, 84
9, 200399, Note_on_c, 3, 45, 0
9, 200399, Note_on_c, 3, 57, 0
9, 206640, Control_c, 3, 11, 80
9, 206880, Note_on_c, 3, 57, 76
9, 207359, Note_on_c, 3, 57, 0
9, 207360, Note_on_c, 3, 59, 76
9, 207599, Note_on_c, 3, 59, 0
9, 207600, Note_on_c, 3, 61, 76
9, 207809, Note_on_c, 3, 61, 0
9, 207840, Note_on_c, 3, 62, 76
9, 208529, Note_on_c, 3, 62, 0
9, 208560, Note_on_c, 3, 62, 76
9, 208769, Note_on_c, 3, 62, 0
9, 208800, Note_on_c, 3, 62, 76
9, 209039, Note_on_c, 3, 62, 0
9, 209040, Note_on_c, 3, 60, 76
9, 209279, Note_on_c, 3, 60, 0
9, 209280, Note_on_c, 3, 59, 76
9, 209519, Note_on_c, 3, 59, 0
9, 209520, Note_on_c, 3, 57, 76
9, 209729, Note_on_c, 3, 57, 0
9, 209760, Note_on_c, 3, 62, 76
9, 210449, Note_on_c, 3, 62, 0
9, 210480, Note_on_c, 3, 62, 76
9, 210689, Note_on_c, 3, 62, 0
9, 210720, Control_c, 3, 11, 80
9, 210720, Note_on_c, 3, 62, 76
9, 210880, Control_c, 3, 11, 83
9, 210959, Note_on_c, 3, 62, 0
9, 210960, Note_on_c, 3, 60, 76
9, 211040, Control_c, 3, 11, 85
9, 211199, Note_on_c, 3, 60, 0
9, 211200, Control_c, 3, 11, 88
9, 211200, Note_on_c, 3, 64, 76
9, 211200, Note_on_c, 3, 60, 76
9, 211360, Control_c, 3, 11, 91
9, 211439, Note_on_c, 3, 64, 0
9, 211439, Note_on_c, 3, 60, 0
9, 211440, Note_on_c, 3, 59, 76
9, 211440, Note_on_c, 3, 62, 76
9, 211520, Control_c, 3, 11, 93
9, 211679, Note_on_c, 3, 59, 0
9, 211679, Note_on_c, 3, 62, 0
9, 211680, Note_on_c, 3, 60, 76
9, 211680, Note_on_c, 3, 57, 76
9, 211680, Control_c, 3, 11, 96
9, 211840, Control_c, 3, 11, 99
9, 211919, Note_on_c, 3, 60, 0
9, 211919, Note_on_c, 3, 57, 0
9, 211920, Note_on_c, 3, 55, 76
9, 211920, Note_on_c, 3, 58, 76
9, 212000, Control_c, 3, 11, 101
9, 212159, Note_on_c, 3, 55, 0
9, 212159, Note_on_c, 3, 58, 0
9, 212160, Note_on_c, 3, 57, 76
9, 212160, Note_on_c, 3, 54, 76
9, 212160, Control_c, 3, 11, 104
9, 212320, Control_c, 3, 11, 107
9, 212399, Note_on_c, 3, 57, 0
9, 212399, Note_on_c, 3, 54, 0
9, 212400, Note_on_c, 3, 50, 76
9, 212400, Note_on_c, 3, 54, 76
9, 212480, Control_c, 3, 11, 109
9, 212609, Note_on_c, 3, 50, 0
9, 212609, Note_on_c, 3, 54, 0
9, 212625, Control_c, 3, 11, 80
9, 212640, Note_on_c, 3, 59, 76
9, 212640, Note_on_c, 3, 55, 76
9, 212849, Note_on_c, 3, 59, 0
9, 212849, Note_on_c, 3, 55, 0
9, 212880, Note_on_c, 3, 55, 76
9, 213119, Note_on_c, 3, 55, 0
9, 213120, Note_on_c, 3, 57, 76
9, 213359, Note_on_c, 3, 57, 0
9, 213360, Note_on_c, 3, 59, 76
9, 213569, Note_on_c, 3, 59, 0
9, 213600, Note_on_c, 3, 60, 76
9, 214289, Note_on_c, 3, 60, 0
9, 214320, Note_on_c, 3, 60, 76
9, 214529, Note_on_c, 3, 60, 0
9, 214560, Note_on_c, 3, 60, 76
9, 214799, Note_on_c, 3, 60, 0
9, 214800, Note_on_c, 3, 59, 76
9, 215039, Note_on_c, 3, 59, 0
9, 215040, Note_on_c, 3, 57, 76
9, 215279, Note_on_c, 3, 57, 0
9, 215280, Note_on_c, 3, 55, 76
9, 215489, Note_on_c, 3, 55, 0
9, 215520, Note_on_c, 3, 60, 76
9, 216209, Note_on_c, 3, 60, 0
9, 216240, Note_on_c, 3, 60, 76
9, 216449, Note_on_c, 3, 60, 0
9, 216480, Note_on_c, 3, 59, 76
9, 216480, Control_c, 3, 11, 80
9, 216640, Control_c, 3, 11, 84
9, 216719, Note_on_c, 3, 59, 0
9, 216720, Note_on_c, 3, 60, 76
9, 216800, Control_c, 3, 11, 88
9, 216959, Note_on_c, 3, 60, 0
9, 216960, Control_c, 3, 11, 92
9, 216960, Note_on_c, 3, 59, 76
9, 217120, Control_c, 3, 11, 96
9, 217199, Note_on_c, 3, 59, 0
9, 217200, Note_on_c, 3, 57, 76
9, 217280, Control_c, 3, 11, 100
9, 217439, Note_on_c, 3, 57, 0
9, 217440, Control_c, 3, 11, 104
9, 217440, Note_on_c, 3, 55, 76
9, 217600, Control_c, 3, 11, 107
9, 217679, Note_on_c, 3, 55, 0
9, 217680, Note_on_c, 3, 60, 76
9, 217680, Note_on_c, 3, 66, 76
9, 217760, Control_c, 3, 11, 111
9, 217919, Note_on_c, 3, 60, 0
9, 217919, Note_on_c, 3, 66, 0
9, 217920, Note_on_c, 3, 64, 76
9, 217920, Note_on_c, 3, 59, 76
9, 217920, Control_c, 3, 11, 115
9, 218080, Control_c, 3, 11, 119
9, 218129, Note_on_c, 3, 59, 0
9, 218159, Note_on_c, 3, 64, 0
9, 218160, Note_on_c, 3, 62, 76
9, 218160, Note_on_c, 3, 59, 76
9, 218240, Control_c, 3, 11, 123
9, 218369, Note_on_c, 3, 62, 0
9, 218369, Note_on_c, 3, 59, 0
9, 218400, Note_on_c, 3, 61, 76
9, 218400, Note_on_c, 3, 57, 76
9, 218400, Control_c, 3, 11, 127
9, 218639, Note_on_c, 3, 61, 0
9, 218639, Note_on_c, 3, 57, 0
9, 219360, Note_on_c, 3, 57, 84
9, 219360, Note_on_c, 3, 61, 84
9, 220319, Note_on_c, 3, 57, 0
9, 220319, Note_on_c, 3, 61, 0
9, 221280, Note_on_c, 3, 56, 84
9, 221280, Note_on_c, 3, 62, 84
9, 222239, Note_on_c, 3, 56, 0
9, 222239, Note_on_c, 3, 62, 0
9, 222720, Note_on_c, 3, 55, 84
9, 222720, Note_on_c, 3, 61, 84
9, 223199, Note_on_c, 3, 55, 0
9, 223199, Note_on_c, 3, 61, 0
9, 223680, Note_on_c, 3, 54, 84
9, 223680, Note_on_c, 3, 62, 84
9, 224129, Note_on_c, 3, 54, 0
9, 224129, Note_on_c, 3, 62, 0
9, 224160, Note_on_c, 3, 52, 76
9, 224160, Note_on_c, 3, 61, 76
9, 224399, Note_on_c, 3, 52, 0
9, 224399, Note_on_c, 3, 61, 0
9, 232560, Control_c, 3, 11, 80
9, 232800, Note_on_c, 3, 57, 76
9, 233760, Control_c, 3, 11, 80
9, 234000, Control_c, 3, 11, 83
9, 234240, Control_c, 3, 11, 85
9, 234480, Control_c, 3, 11, 88
9, 234689, Note_on_c, 3, 57, 0
9, 234720, Control_c, 3, 11, 91
9, 234720, Note_on_c, 3, 58, 76
9, 234960, Control_c, 3, 11, 93
9, 235200, Control_c, 3, 11, 96
9, 235440, Control_c, 3, 11, 99
9, 235679, Note_on_c, 3, 58, 0
9, 235680, Control_c, 3, 11, 101
9, 235680, Note_on_c, 3, 59, 76
9, 235920, Control_c, 3, 11, 104
9, 236160, Control_c, 3, 11, 107
9, 236400, Control_c, 3, 11, 109
9, 236639, Note_on_c, 3, 59, 0
9, 236640, Control_c, 3, 11, 127
9, 236640, Note_on_c, 3, 61, 76
9, 236730, Control_c, 3, 11, 112
9, 236883, Control_c, 3, 11, 109
9, 237035, Control_c, 3, 11, 107
9, 237188, Control_c, 3, 11, 104
9, 237340, Control_c, 3, 11, 101
9, 237493, Control_c, 3, 11, 99
9, 237599, Note_on_c, 3, 61, 0
9, 237600, Note_on_c, 3, 62, 76
9, 237645, Control_c, 3, 11, 96
9, 237798, Control_c, 3, 11, 93
9, 237950, Control_c, 3, 11, 91
9, 238103, Control_c, 3, 11, 88
9, 238255, Control_c, 3, 11, 85
9, 238408, Control_c, 3, 11, 83
9, 238529, Note_on_c, 3, 62, 0
9, 238560, Control_c, 3, 11, 80
9, 238560, Note_on_c, 3, 59, 76
9, 239279, Note_on_c, 3, 59, 0
9, 239280, Note_on_c, 3, 55, 76
9, 239489, Note_on_c, 3, 55, 0
9, 239520, Note_on_c, 3, 54, 76
9, 240479, Note_on_c, 3, 54, 0
9, 240480, Note_on_c, 3, 55, 76
9, 241409, Note_on_c, 3, 55, 0
9, 241440, Note_on_c, 3, 53, 76
9, 241679, Note_on_c, 3, 53, 0
9, 241920, Note_on_c, 3, 57, 76
9, 242399, Note_on_c, 3, 57, 0
9, 242400, Note_on_c, 3, 53, 76
9, 242879, Note_on_c, 3, 53, 0
9, 242880, Note_on_c, 3, 50, 76
9, 243329, Note_on_c, 3, 50, 0
9, 243360, Note_on_c, 3, 45, 76
9, 243599, Note_on_c, 3, 45, 0
9, 245280, Note_on_c, 3, 57, 76
9, 245280, Control_c, 3, 11, 80
9, 245440, Control_c, 3, 11, 83
9, 245600, Control_c, 3, 11, 85
9, 245760, Control_c, 3, 11, 88
9, 245920, Control_c, 3, 11, 91
9, 246080, Control_c, 3, 11, 93
9, 246240, Control_c, 3, 11, 96
9, 246400, Control_c, 3, 11, 99
9, 246560, Control_c, 3, 11, 101
9, 246719, Note_on_c, 3, 57, 0
9, 246720, Control_c, 3, 11, 104
9, 246720, Note_on_c, 3, 55, 76
9, 246880, Control_c, 3, 11, 107
9, 246959, Note_on_c, 3, 55, 0
9, 246960, Note_on_c, 3, 53, 76
9, 247040, Control_c, 3, 11, 109
9, 247169, Note_on_c, 3, 53, 0
9, 247185, Control_c, 3, 11, 127
9, 247200, Note_on_c, 3, 60, 76
9, 247290, Control_c, 3, 11, 112
9, 248160, Control_c, 3, 11, 112
9, 248320, Control_c, 3, 11, 109
9, 248480, Control_c, 3, 11, 107
9, 248640, Control_c, 3, 11, 104
9, 248800, Control_c, 3, 11, 101
9, 248960, Control_c, 3, 11, 99
9, 249120, Control_c, 3, 11, 96
9, 249280, Control_c, 3, 11, 93
9, 249440, Control_c, 3, 11, 91
9, 249600, Control_c, 3, 11, 88
9, 249760, Control_c, 3, 11, 85
9, 249920, Control_c, 3, 11, 83
9, 250049, Note_on_c, 3, 60, 0
9, 250080, Control_c, 3, 11, 80
9, 250080, Note_on_c, 3, 58, 76
9, 250559, Note_on_c, 3, 58, 0
9, 250560, Note_on_c, 3, 60, 76
9, 250799, Note_on_c, 3, 60, 0
9, 250800, Note_on_c, 3, 62, 76
9, 251009, Note_on_c, 3, 62, 0
9, 251040, Note_on_c, 3, 53, 76
9, 251999, Note_on_c, 3, 53, 0
9, 252000, Note_on_c, 3, 52, 76
9, 252929, Note_on_c, 3, 52, 0
9, 252960, Control_c, 3, 11, 80
9, 252960, Note_on_c, 3, 57, 76
9, 253280, Control_c, 3, 11, 84
9, 253600, Control_c, 3, 11, 88
9, 253919, Note_on_c, 3, 57, 0
9, 253920, Note_on_c, 3, 55, 76
9, 253920, Control_c, 3, 11, 92
9, 254240, Control_c, 3, 11, 96
9, 254399, Note_on_c, 3, 55, 0
9, 254400, Note_on_c, 3, 57, 76
9, 254560, Control_c, 3, 11, 100
9, 254639, Note_on_c, 3, 57, 0
9, 254640, Note_on_c, 3, 58, 76
9, 254849, Note_on_c, 3, 58, 0
9, 254880, Control_c, 3, 11, 104
9, 254880, Note_on_c, 3, 50, 76
9, 255200, Control_c, 3, 11, 107
9, 255520, Control_c, 3, 11, 111
9, 255839, Note_on_c, 3, 50, 0
9, 255840, Note_on_c, 3, 49, 76
9, 255840, Control_c, 3, 11, 115
9, 256160, Control_c, 3, 11, 119
9, 256480, Control_c, 3, 11, 127
9, 256769, Note_on_c, 3, 49, 0
9, 256800, Note_on_c, 3, 42, 76
9, 256979, Note_on_c, 3, 42, 0
9, 257040, Note_on_c, 3, 45, 76
9, 257219, Note_on_c, 3, 45, 0
9, 257280, Note_on_c, 3, 50, 76
9, 257459, Note_on_c, 3, 50, 0
9, 257520, Note_on_c, 3, 54, 76
9, 257699, Note_on_c, 3, 54, 0
9, 257760, Note_on_c, 3, 57, 84
9, 258449, Note_on_c, 3, 57, 0
9, 258480, Note_on_c, 3, 42, 76
9, 258689, Note_on_c, 3, 42, 0
9, 258720, Note_on_c, 3, 43, 76
9, 258929, Note_on_c, 3, 43, 0
9, 258960, Note_on_c, 3, 47, 76
9, 259169, Note_on_c, 3, 47, 0
9, 259200, Note_on_c, 3, 50, 76
9, 259409, Note_on_c, 3, 50, 0
9, 259440, Note_on_c, 3, 55, 76
9, 259649, Note_on_c, 3, 55, 0
9, 259680, Note_on_c, 3, 59, 84
9, 260369, Note_on_c, 3, 59, 0
9, 260400, Note_on_c, 3, 44, 76
9, 260609, Note_on_c, 3, 44, 0
9, 260640, Note_on_c, 3, 45, 84
9, 260849, Note_on_c, 3, 45, 0
9, 260880, Note_on_c, 3, 57, 76
9, 261119, Note_on_c, 3, 57, 0
9, 261360, Note_on_c, 3, 45, 76
9, 261569, Note_on_c, 3, 45, 0
9, 261600, Note_on_c, 3, 43, 84
9, 261809, Note_on_c, 3, 43, 0
9, 261840, Note_on_c, 3, 55, 76
9, 262079, Note_on_c, 3, 55, 0
9, 262320, Note_on_c, 3, 43, 76
9, 262529, Note_on_c, 3, 43, 0
9, 262560, Note_on_c, 3, 57, 76
9, 262560, Note_on_c, 3, 54, 76
9, 264449, Note_on_c, 3, 57, 0
9, 264449, Note_on_c, 3, 54, 0
9, 264480, Note_on_c, 3, 59, 84
9, 264480, Note_on_c, 3, 47, 84
9, 265409, Note_on_c, 3, 59, 0
9, 265409, Note_on_c, 3, 47, 0
9, 265440, Note_on_c, 3, 55, 84
9, 265440, Note_on_c, 3, 47, 84
9, 266129, Note_on_c, 3, 55, 0
9, 266129, Note_on_c, 3, 47, 0
9, 266160, Note_on_c, 3, 44, 76
9, 266160, Note_on_c, 3, 50, 76
9, 266369, Note_on_c, 3, 44, 0
9, 266369, Note_on_c, 3, 50, 0
9, 266400, Note_on_c, 3, 60, 84
9, 266400, Note_on_c, 3, 57, 84
9, 270209, Note_on_c, 3, 60, 0
9, 270209, Note_on_c, 3, 57, 0
9, 270240, Note_on_c, 3, 45, 76
9, 270360, Control_c, 3, 11, 80
9, 270419, Note_on_c, 3, 45, 0
9, 270480, Note_on_c, 3, 48, 76
9, 270659, Note_on_c, 3, 48, 0
9, 270720, Note_on_c, 3, 54, 76
9, 270899, Note_on_c, 3, 54, 0
9, 270960, Note_on_c, 3, 57, 76
9, 271139, Note_on_c, 3, 57, 0
9, 271200, Note_on_c, 3, 60, 76
9, 271379, Note_on_c, 3, 60, 0
9, 271440, Note_on_c, 3, 57, 76
9, 271619, Note_on_c, 3, 57, 0
9, 271680, Note_on_c, 3, 54, 76
9, 271859, Note_on_c, 3, 54, 0
9, 271920, Note_on_c, 3, 48, 76
9, 272099, Note_on_c, 3, 48, 0
9, 272160, Note_on_c, 3, 45, 76
9, 272339, Note_on_c, 3, 45, 0
9, 272400, Note_on_c, 3, 48, 76
9, 272579, Note_on_c, 3, 48, 0
9, 272640, Note_on_c, 3, 54, 76
9, 272640, Control_c, 3, 11, 80
9, 272760, Control_c, 3, 11, 79
9, 272819, Note_on_c, 3, 54, 0
9, 272880, Control_c, 3, 11, 77
9, 272880, Note_on_c, 3, 57, 76
9, 273000, Control_c, 3, 11, 76
9, 273059, Note_on_c, 3, 57, 0
9, 273120, Note_on_c, 3, 60, 76
9, 273120, Control_c, 3, 11, 75
9, 273240, Control_c, 3, 11, 73
9, 273299, Note_on_c, 3, 60, 0
9, 273360, Control_c, 3, 11, 72
9, 273360, Note_on_c, 3, 57, 76
9, 273480, Control_c, 3, 11, 71
9, 273539, Note_on_c, 3, 57, 0
9, 273600, Control_c, 3, 11, 69
9, 273600, Note_on_c, 3, 54, 76
9, 273720, Control_c, 3, 11, 68
9, 273779, Note_on_c, 3, 54, 0
9, 273840, Note_on_c, 3, 48, 76
9, 273840, Control_c, 3, 11, 67
9, 273960, Control_c, 3, 11, 65
9, 274019, Note_on_c, 3, 48, 0
9, 274080, Note_on_c, 3, 45, 76
9, 274080, Control_c, 3, 11, 64
9, 274259, Note_on_c, 3, 45, 0
9, 280800, Control_c, 3, 11, 127
9, 281640, Note_on_c, 3, 66, 76
9, 281759, Note_on_c, 3, 66, 0
9, 281760, Note_on_c, 3, 67, 76
9, 281939, Note_on_c, 3, 67, 0
9, 282120, Note_on_c, 3, 49, 76
9, 282209, Note_on_c, 3, 49, 0
9, 282240, Note_on_c, 3, 49, 84
9, 282299, Note_on_c, 3, 49, 0
9, 282300, Note_on_c, 3, 50, 76
9, 282359, Note_on_c, 3, 50, 0
9, 282360, Note_on_c, 3, 49, 76
9, 282419, Note_on_c, 3, 49, 0
9, 282420, Note_on_c, 3, 50, 76
9, 282479, Note_on_c, 3, 50, 0
9, 282480, Note_on_c, 3, 49, 76
9, 282539, Note_on_c, 3, 49, 0
9, 282540, Note_on_c, 3, 50, 76
9, 282599, Note_on_c, 3, 50, 0
9, 282600, Note_on_c, 3, 47, 76
9, 282659, Note_on_c, 3, 47, 0
9, 282660, Note_on_c, 3, 49, 76
9, 282704, Note_on_c, 3, 49, 0
9, 282720, Note_on_c, 3, 52, 76
9, 282899, Note_on_c, 3, 52, 0
9, 282960, Note_on_c, 3, 45, 76
9, 283139, Note_on_c, 3, 45, 0
9, 286560, Note_on_c, 3, 50, 76
9, 286560, Note_on_c, 3, 62, 76
9, 286739, Note_on_c, 3, 50, 0
9, 286739, Note_on_c, 3, 62, 0
9, 286800, Note_on_c, 3, 57, 76
9, 286800, Note_on_c, 3, 45, 76
9, 286979, Note_on_c, 3, 57, 0
9, 286979, Note_on_c, 3, 45, 0
9, 287400, Note_on_c, 3, 66, 76
9, 287519, Note_on_c, 3, 66, 0
9, 287520, Note_on_c, 3, 67, 76
9, 287699, Note_on_c, 3, 67, 0
9, 287880, Note_on_c, 3, 49, 76
9, 287969, Note_on_c, 3, 49, 0
9, 288000, Note_on_c, 3, 49, 84
9, 288059, Note_on_c, 3, 49, 0
9, 288060, Note_on_c, 3, 50, 76
9, 288119, Note_on_c, 3, 50, 0
9, 288120, Note_on_c, 3, 49, 76
9, 288179, Note_on_c, 3, 49, 0
9, 288180, Note_on_c, 3, 50, 76
9, 288239, Note_on_c, 3, 50, 0
9, 288240, Note_on_c, 3, 49, 76
9, 288299, Note_on_c, 3, 49, 0
9, 288300, Note_on_c, 3, 50, 76
9, 288359, Note_on_c, 3, 50, 0
9, 288360, Note_on_c, 3, 47, 76
9, 288419, Note_on_c, 3, 47, 0
9, 288420, Note_on_c, 3, 49, 76
9, 288464, Note_on_c, 3, 49, 0
9, 288480, Note_on_c, 3, 52, 76
9, 288659, Note_on_c, 3, 52, 0
9, 288720, Note_on_c, 3, 45, 76
9, 288899, Note_on_c, 3, 45, 0
9, 289320, Note_on_c, 3, 66, 76
9, 289439, Note_on_c, 3, 66, 0
9, 289440, Note_on_c, 3, 67, 76
9, 289619, Note_on_c, 3, 67, 0
9, 289800, Note_on_c, 3, 50, 76
9, 289889, Note_on_c, 3, 50, 0
9, 289920, Note_on_c, 3, 50, 76
9, 289979, Note_on_c, 3, 50, 0
9, 289980, Note_on_c, 3, 52, 76
9, 290039, Note_on_c, 3, 52, 0
9, 290040, Note_on_c, 3, 50, 76
9, 290099, Note_on_c, 3, 50, 0
9, 290100, Note_on_c, 3, 52, 76
9, 290159, Note_on_c, 3, 52, 0
9, 290160, Note_on_c, 3, 50, 76
9, 290219, Note_on_c, 3, 50, 0
9, 290220, Note_on_c, 3, 52, 76
9, 290279, Note_on_c, 3, 52, 0
9, 290280, Note_on_c, 3, 49, 76
9, 290339, Note_on_c, 3, 49, 0
9, 290340, Note_on_c, 3, 50, 76
9, 290384, Note_on_c, 3, 50, 0
9, 290400, Note_on_c, 3, 55, 76
9, 290579, Note_on_c, 3, 55, 0
9, 290640, Note_on_c, 3, 46, 76
9, 290819, Note_on_c, 3, 46, 0
9, 291240, Note_on_c, 3, 66, 76
9, 291359, Note_on_c, 3, 66, 0
9, 291360, Note_on_c, 3, 67, 76
9, 291539, Note_on_c, 3, 67, 0
9, 291600, Note_on_c, 3, 50, 84
9, 291779, Note_on_c, 3, 50, 0
9, 291840, Note_on_c, 3, 55, 76
9, 292019, Note_on_c, 3, 55, 0
9, 292080, Note_on_c, 3, 47, 76
9, 292200, Note_on_c, 3, 66, 76
9, 292259, Note_on_c, 3, 47, 0
9, 292319, Note_on_c, 3, 66, 0
9, 292320, Note_on_c, 3, 67, 76
9, 292499, Note_on_c, 3, 67, 0
9, 292560, Note_on_c, 3, 52, 84
9, 292739, Note_on_c, 3, 52, 0
9, 292800, Note_on_c, 3, 55, 76
9, 292979, Note_on_c, 3, 55, 0
9, 293040, Note_on_c, 3, 48, 76
9, 293160, Note_on_c, 3, 66, 76
9, 293219, Note_on_c, 3, 48, 0
9, 293279, Note_on_c, 3, 66, 0
9, 293280, Note_on_c, 3, 67, 76
9, 293520, Note_on_c, 3, 55, 84
9, 293699, Note_on_c, 3, 55, 0
9, 293760, Note_on_c, 3, 58, 76
9, 293939, Note_on_c, 3, 58, 0
9, 294000, Note_on_c, 3, 49, 76
9, 294179, Note_on_c, 3, 49, 0
9, 294240, Note_on_c, 3, 50, 76
9, 294419, Note_on_c, 3, 50, 0
9, 294480, Note_on_c, 3, 59, 76
9, 294659, Note_on_c, 3, 59, 0
9, 294720, Note_on_c, 3, 51, 76
9, 294899, Note_on_c, 3, 51, 0
9, 294960, Note_on_c, 3, 60, 76
9, 295139, Note_on_c, 3, 60, 0
9, 295200, Note_on_c, 3, 52, 76
9, 295379, Note_on_c, 3, 52, 0
9, 295440, Note_on_c, 3, 61, 76
9, 295619, Note_on_c, 3, 61, 0
9, 295649, Note_on_c, 3, 67, 0
9, 295680, Note_on_c, 3, 53, 76
9, 295680, Note_on_c, 3, 65, 76
9, 295859, Note_on_c, 3, 53, 0
9, 295920, Note_on_c, 3, 62, 76
9, 296099, Note_on_c, 3, 62, 0
9, 296160, Note_on_c, 3, 53, 76
9, 296369, Note_on_c, 3, 65, 0
9, 296399, Note_on_c, 3, 53, 0
9, 296400, Note_on_c, 3, 64, 76
9, 296639, Note_on_c, 3, 64, 0
9, 296640, Note_on_c, 3, 62, 76
9, 296879, Note_on_c, 3, 62, 0
9, 296880, Note_on_c, 3, 60, 76
9, 297089, Note_on_c, 3, 60, 0
9, 297120, Note_on_c, 3, 58, 76
9, 297839, Note_on_c, 3, 58, 0
9, 297840, Note_on_c, 3, 57, 76
9, 298079, Note_on_c, 3, 57, 0
9, 298080, Note_on_c, 3, 55, 76
9, 298319, Note_on_c, 3, 55, 0
9, 298320, Note_on_c, 3, 53, 76
9, 298559, Note_on_c, 3, 53, 0
9, 298560, Note_on_c, 3, 52, 76
9, 298799, Note_on_c, 3, 52, 0
9, 298800, Note_on_c, 3, 50, 76
9, 299009, Note_on_c, 3, 50, 0
9, 299040, Note_on_c, 3, 45, 76
9, 299040, Note_on_c, 3, 57, 76
9, 299160, Control_c, 3, 11, 80
9, 299279, Note_on_c, 3, 45, 0
9, 299519, Note_on_c, 3, 57, 0
9, 299520, Note_on_c, 3, 59, 76
9, 299759, Note_on_c, 3, 59, 0
9, 299760, Note_on_c, 3, 61, 76
9, 299969, Note_on_c, 3, 61, 0
9, 300000, Note_on_c, 3, 62, 76
9, 300689, Note_on_c, 3, 62, 0
9, 300720, Note_on_c, 3, 62, 76
9, 300929, Note_on_c, 3, 62, 0
9, 300960, Control_c, 3, 11, 127
9, 300960, Note_on_c, 3, 57, 76
9, 300960, Note_on_c, 3, 61, 76
9, 301080, Control_c, 3, 11, 80
9, 301439, Note_on_c, 3, 57, 0
9, 301439, Note_on_c, 3, 61, 0
9, 301440, Note_on_c, 3, 59, 76
9, 301440, Note_on_c, 3, 62, 76
9, 301679, Note_on_c, 3, 59, 0
9, 301679, Note_on_c, 3, 62, 0
9, 301680, Note_on_c, 3, 64, 76
9, 301680, Note_on_c, 3, 61, 76
9, 301889, Note_on_c, 3, 64, 0
9, 301889, Note_on_c, 3, 61, 0
9, 301920, Note_on_c, 3, 62, 76
9, 301920, Note_on_c, 3, 65, 76
9, 302609, Note_on_c, 3, 62, 0
9, 302609, Note_on_c, 3, 65, 0
9, 302640, Note_on_c, 3, 65, 76
9, 302640, Note_on_c, 3, 62, 76
9, 302849, Note_on_c, 3, 65, 0
9, 302849, Note_on_c, 3, 62, 0
9, 302865, Control_c, 3, 11, 127
9, 302880, Note_on_c, 3, 64, 76
9, 302880, Note_on_c, 3, 61, 76
9, 303359, Note_on_c, 3, 64, 0
9, 303359, Note_on_c, 3, 61, 0
9, 303360, Note_on_c, 3, 59, 52
9, 303360, Note_on_c, 3, 62, 52
9, 303599, Note_on_c, 3, 59, 0
9, 303599, Note_on_c, 3, 62, 0
9, 303600, Note_on_c, 3, 57, 52
9, 303600, Note_on_c, 3, 61, 52
9, 303809, Note_on_c, 3, 57, 0
9, 303809, Note_on_c, 3, 61, 0
9, 303840, Note_on_c, 3, 65, 76
9, 303840, Note_on_c, 3, 62, 76
9, 304319, Note_on_c, 3, 65, 0
9, 304319, Note_on_c, 3, 62, 0
9, 304320, Note_on_c, 3, 61, 52
9, 304320, Note_on_c, 3, 64, 52
9, 304559, Note_on_c, 3, 61, 0
9, 304559, Note_on_c, 3, 64, 0
9, 304560, Note_on_c, 3, 62, 52
9, 304560, Note_on_c, 3, 59, 52
9, 304769, Note_on_c, 3, 62, 0
9, 304769, Note_on_c, 3, 59, 0
9, 304800, Note_on_c, 3, 61, 76
9, 304800, Note_on_c, 3, 64, 76
9, 305279, Note_on_c, 3, 61, 0
9, 305279, Note_on_c, 3, 64, 0
9, 305280, Note_on_c, 3, 62, 52
9, 305280, Note_on_c, 3, 59, 52
9, 305519, Note_on_c, 3, 62, 0
9, 305519, Note_on_c, 3, 59, 0
9, 305520, Note_on_c, 3, 61, 52
9, 305520, Note_on_c, 3, 57, 52
9, 305729, Note_on_c, 3, 61, 0
9, 305729, Note_on_c, 3, 57, 0
9, 305760, Note_on_c, 3, 62, 76
9, 305760, Note_on_c, 3, 65, 76
9, 306239, Note_on_c, 3, 62, 0
9, 306239, Note_on_c, 3, 65, 0
9, 306240, Note_on_c, 3, 61, 52
9, 306240, Note_on_c, 3, 64, 52
9, 306479, Note_on_c, 3, 61, 0
9, 306479, Note_on_c, 3, 64, 0
9, 306480, Note_on_c, 3, 62, 52
9, 306480, Note_on_c, 3, 59, 52
9, 306689, Note_on_c, 3, 62, 0
9, 306689, Note_on_c, 3, 59, 0
9, 306720, Note_on_c, 3, 64, 52
9, 306720, Note_on_c, 3, 61, 52
9, 306959, Note_on_c, 3, 64, 0
9, 306959, Note_on_c, 3, 61, 0
9, 307680, Control_c, 3, 11, 80
9, 307760, Control_c, 3, 11, 84
9, 307840, Control_c, 3, 11, 88
9, 307920, Control_c, 3, 11, 92
9, 307920, Note_on_c, 3, 57, 76
9, 308000, Control_c, 3, 11, 96
9, 308080, Control_c, 3, 11, 100
9, 308159, Note_on_c, 3, 57, 0
9, 308160, Note_on_c, 3, 58, 76
9, 308160, Control_c, 3, 11, 104
9, 308240, Control_c, 3, 11, 107
9, 308320, Control_c, 3, 11, 111
9, 308399, Note_on_c, 3, 58, 0
9, 308400, Note_on_c, 3, 57, 76
9, 308400, Control_c, 3, 11, 115
9, 308480, Control_c, 3, 11, 119
9, 308560, Control_c, 3, 11, 123
9, 308609, Note_on_c, 3, 57, 0
9, 308640, Control_c, 3, 11, 127
9, 308640, Note_on_c, 3, 50, 76
9, 308760, Control_c, 3, 11, 80
9, 309119, Note_on_c, 3, 50, 0
9, 309120, Note_on_c, 3, 52, 76
9, 309359, Note_on_c, 3, 52, 0
9, 309360, Note_on_c, 3, 54, 76
9, 309569, Note_on_c, 3, 54, 0
9, 309600, Note_on_c, 3, 55, 76
9, 310289, Note_on_c, 3, 55, 0
9, 310320, Note_on_c, 3, 55, 76
9, 310529, Note_on_c, 3, 55, 0
9, 310560, Note_on_c, 3, 54, 76
9, 310560, Note_on_c, 3, 50, 76
9, 310560, Control_c, 3, 11, 127
9, 310680, Control_c, 3, 11, 80
9, 311039, Note_on_c, 3, 54, 0
9, 311039, Note_on_c, 3, 50, 0
9, 311040, Note_on_c, 3, 52, 76
9, 311040, Note_on_c, 3, 55, 76
9, 311279, Note_on_c, 3, 52, 0
9, 311279, Note_on_c, 3, 55, 0
9, 311280, Note_on_c, 3, 57, 76
9, 311280, Note_on_c, 3, 54, 76
9, 311489, Note_on_c, 3, 57, 0
9, 311489, Note_on_c, 3, 54, 0
9, 311520, Note_on_c, 3, 58, 76
9, 311520, Note_on_c, 3, 55, 76
9, 312209, Note_on_c, 3, 58, 0
9, 312209, Note_on_c, 3, 55, 0
9, 312240, Note_on_c, 3, 55, 76
9, 312240, Note_on_c, 3, 58, 76
9, 312449, Note_on_c, 3, 55, 0
9, 312449, Note_on_c, 3, 58, 0
9, 312465, Control_c, 3, 11, 127
9, 312480, Note_on_c, 3, 57, 76
9, 312480, Note_on_c, 3, 54, 76
9, 312959, Note_on_c, 3, 57, 0
9, 312959, Note_on_c, 3, 54, 0
9, 312960, Note_on_c, 3, 52, 52
9, 312960, Note_on_c, 3, 55, 52
9, 313199, Note_on_c, 3, 52, 0
9, 313199, Note_on_c, 3, 55, 0
9, 313200, Note_on_c, 3, 54, 52
9, 313200, Note_on_c, 3, 50, 52
9, 313409, Note_on_c, 3, 54, 0
9, 313409, Note_on_c, 3, 50, 0
9, 313440, Note_on_c, 3, 58, 76
9, 313440, Note_on_c, 3, 55, 76
9, 313919, Note_on_c, 3, 58, 0
9, 313919, Note_on_c, 3, 55, 0
9, 313920, Note_on_c, 3, 57, 52
9, 313920, Note_on_c, 3, 54, 52
9, 314159, Note_on_c, 3, 57, 0
9, 314159, Note_on_c, 3, 54, 0
9, 314160, Note_on_c, 3, 55, 52
9, 314160, Note_on_c, 3, 52, 52
9, 314369, Note_on_c, 3, 55, 0
9, 314369, Note_on_c, 3, 52, 0
9, 314400, Note_on_c, 3, 57, 76
9, 314400, Note_on_c, 3, 54, 76
9, 314879, Note_on_c, 3, 57, 0
9, 314879, Note_on_c, 3, 54, 0
9, 314880, Note_on_c, 3, 55, 52
9, 314880, Note_on_c, 3, 52, 52
9, 315119, Note_on_c, 3, 55, 0
9, 315119, Note_on_c, 3, 52, 0
9, 315120, Note_on_c, 3, 50, 52
9, 315120, Note_on_c, 3, 54, 52
9, 315329, Note_on_c, 3, 50, 0
9, 315329, Note_on_c, 3, 54, 0
9, 315360, Note_on_c, 3, 55, 76
9, 315360, Note_on_c, 3, 58, 76
9, 315839, Note_on_c, 3, 55, 0
9, 315839, Note_on_c, 3, 58, 0
9, 315840, Note_on_c, 3, 54, 52
9, 315840, Note_on_c, 3, 57, 52
9, 316079, Note_on_c, 3, 54, 0
9, 316079, Note_on_c, 3, 57, 0
9, 316080, Note_on_c, 3, 55, 52
9, 316080, Note_on_c, 3, 52, 52
9, 316289, Note_on_c, 3, 55, 0
9, 316289, Note_on_c, 3, 52, 0
9, 316320, Note_on_c, 3, 54, 76
9, 316320, Note_on_c, 3, 57, 76
9, 316559, Note_on_c, 3, 54, 0
9, 316559, Note_on_c, 3, 57, 0
9, 316560, Note_on_c, 3, 50, 76
9, 316560, Note_on_c, 3, 54, 76
9, 316799, Note_on_c, 3, 50, 0
9, 316799, Note_on_c, 3, 54, 0
9, 316800, Note_on_c, 3, 55, 76
9, 316800, Note_on_c, 3, 52, 76
9, 317039, Note_on_c, 3, 55, 0
9, 317039, Note_on_c, 3, 52, 0
9, 317040, Note_on_c, 3, 57, 76
9, 317040, Note_on_c, 3, 54, 76
9, 317249, Note_on_c, 3, 57, 0
9, 317249, Note_on_c, 3, 54, 0
9, 317280, Note_on_c, 3, 59, 84
9, 317280, Note_on_c, 3, 55, 84
9, 317759, Note_on_c, 3, 59, 0
9, 317759, Note_on_c, 3, 55, 0
9, 317760, Note_on_c, 3, 54, 76
9, 317760, Note_on_c, 3, 57, 76
9, 317999, Note_on_c, 3, 54, 0
9, 317999, Note_on_c, 3, 57, 0
9, 318000, Note_on_c, 3, 52, 76
9, 318000, Note_on_c, 3, 55, 76
9, 318209, Note_on_c, 3, 52, 0
9, 318209, Note_on_c, 3, 55, 0
9, 318240, Note_on_c, 3, 57, 84
9, 318240, Note_on_c, 3, 61, 84
9, 318719, Note_on_c, 3, 57, 0
9, 318719, Note_on_c, 3, 61, 0
9, 318720, Note_on_c, 3, 59, 76
9, 318720, Note_on_c, 3, 55, 76
9, 318959, Note_on_c, 3, 59, 0
9, 318959, Note_on_c, 3, 55, 0
9, 318960, Note_on_c, 3, 54, 76
9, 318960, Note_on_c, 3, 57, 76
9, 319169, Note_on_c, 3, 54, 0
9, 319169, Note_on_c, 3, 57, 0
9, 319200, Note_on_c, 3, 59, 84
9, 319200, Note_on_c, 3, 62, 84
9, 319679, Note_on_c, 3, 59, 0
9, 319679, Note_on_c, 3, 62, 0
9, 319680, Note_on_c, 3, 57, 76
9, 319680, Note_on_c, 3, 61, 76
9, 319919, Note_on_c, 3, 57, 0
9, 319919, Note_on_c, 3, 61, 0
9, 319920, Note_on_c, 3, 59, 76
9, 319920, Note_on_c, 3, 55, 76
9, 320129, Note_on_c, 3, 59, 0
9, 320129, Note_on_c, 3, 55, 0
9, 320160, Note_on_c, 3, 64, 84
9, 320160, Note_on_c, 3, 61, 84
9, 323999, Note_on_c, 3, 64, 0
9, 323999, Note_on_c, 3, 61, 0
9, 327840, Note_on_c, 3, 59, 44
9, 329999, Note_on_c, 3, 59, 0
9, 334080, Note_on_c, 3, 58, 44
9, 334259, Note_on_c, 3, 58, 0
9, 334560, Note_on_c, 3, 59, 44
9, 334739, Note_on_c, 3, 59, 0
9, 335040, Note_on_c, 3, 61, 44
9, 335219, Note_on_c, 3, 61, 0
9, 335520, Note_on_c, 3, 62, 44
9, 335699, Note_on_c, 3, 62, 0
9, 337920, Note_on_c, 3, 56, 44
9, 338099, Note_on_c, 3, 56, 0
9, 338400, Note_on_c, 3, 57, 44
9, 338579, Note_on_c, 3, 57, 0
9, 338880, Note_on_c, 3, 59, 44
9, 339059, Note_on_c, 3, 59, 0
9, 339360, Note_on_c, 3, 61, 44
9, 339539, Note_on_c, 3, 61, 0
9, 341280, Note_on_c, 3, 66, 44
9, 341459, Note_on_c, 3, 66, 0
9, 341760, Note_on_c, 3, 54, 44
9, 341939, Note_on_c, 3, 54, 0
9, 342240, Note_on_c, 3, 55, 44
9, 342419, Note_on_c, 3, 55, 0
9, 342720, Note_on_c, 3, 57, 44
9, 342899, Note_on_c, 3, 57, 0
9, 343200, Note_on_c, 3, 59, 44
9, 343379, Note_on_c, 3, 59, 0
9, 343680, Note_on_c, 3, 54, 44
9, 343859, Note_on_c, 3, 54, 0
9, 344160, Note_on_c, 3, 55, 44
9, 344339, Note_on_c, 3, 55, 0
9, 344640, Note_on_c, 3, 57, 44
9, 344819, Note_on_c, 3, 57, 0
9, 345120, Control_c, 3, 11, 127
9, 345120, Note_on_c, 3, 59, 44
9, 345299, Note_on_c, 3, 59, 0
9, 345440, Control_c, 3, 11, 126
9, 345600, Note_on_c, 3, 54, 44
9, 345760, Control_c, 3, 11, 125
9, 346079, Note_on_c, 3, 54, 0
9, 346080, Note_on_c, 3, 55, 44
9, 346080, Control_c, 3, 11, 123
9, 346400, Control_c, 3, 11, 122
9, 346559, Note_on_c, 3, 55, 0
9, 346560, Note_on_c, 3, 57, 44
9, 346720, Control_c, 3, 11, 121
9, 347009, Note_on_c, 3, 57, 0
9, 347040, Control_c, 3, 11, 120
9, 347040, Note_on_c, 3, 59, 44
9, 347360, Control_c, 3, 11, 118
9, 347519, Note_on_c, 3, 59, 0
9, 347520, Note_on_c, 3, 54, 44
9, 347680, Control_c, 3, 11, 117
9, 347999, Note_on_c, 3, 54, 0
9, 348000, Control_c, 3, 11, 116
9, 348000, Note_on_c, 3, 55, 44
9, 348320, Control_c, 3, 11, 115
9, 348479, Note_on_c, 3, 55, 0
9, 348480, Note_on_c, 3, 57, 44
9, 348640, Control_c, 3, 11, 113
9, 348929, Note_on_c, 3, 57, 0
9, 348960, Note_on_c, 3, 59, 44
9, 348960, Control_c, 3, 11, 127
9, 349919, Note_on_c, 3, 59, 0
9, 349920, Note_on_c, 3, 54, 44
9, 350879, Note_on_c, 3, 54, 0
9, 350880, Note_on_c, 3, 55, 44
9, 351839, Note_on_c, 3, 55, 0
9, 351840, Note_on_c, 3, 57, 44
9, 352799, Note_on_c, 3, 57, 0
9, 352800, Note_on_c, 3, 59, 44
9, 353039, Note_on_c, 3, 59, 0
9, 358560, Note_on_c, 3, 56, 84
9, 358560, Note_on_c, 3, 44, 84
9, 360449, Note_on_c, 3, 56, 0
9, 360449, Note_on_c, 3, 44, 0
9, 360480, Note_on_c, 3, 45, 84
9, 360480, Note_on_c, 3, 57, 84
9, 362369, Note_on_c, 3, 45, 0
9, 362369, Note_on_c, 3, 57, 0
9, 362400, Note_on_c, 3, 57, 92
9, 363569, Note_on_c, 3, 57, 0
9, 363600, Note_on_c, 3, 55, 84
9, 363689, Note_on_c, 3, 55, 0
9, 363720, Note_on_c, 3, 54, 84
9, 363809, Note_on_c, 3, 54, 0
9, 363840, Note_on_c, 3, 52, 84
9, 363929, Note_on_c, 3, 52, 0
9, 363960, Note_on_c, 3, 50, 84
9, 364049, Note_on_c, 3, 50, 0
9, 364080, Note_on_c, 3, 49, 84
9, 364169, Note_on_c, 3, 49, 0
9, 364200, Note_on_c, 3, 47, 84
9, 364289, Note_on_c, 3, 47, 0
9, 364320, Note_on_c, 3, 57, 92
9, 364320, Note_on_c, 3, 45, 92
9, 366209, Note_on_c, 3, 57, 0
9, 366209, Note_on_c, 3, 45, 0
9, 366240, Note_on_c, 3, 57, 92
9, 367289, Note_on_c, 3, 57, 0
9, 367320, Note_on_c, 3, 55, 84
9, 367409, Note_on_c, 3, 55, 0
9, 367440, Note_on_c, 3, 54, 84
9, 367529, Note_on_c, 3, 54, 0
9, 367560, Note_on_c, 3, 52, 84
9, 367649, Note_on_c, 3, 52, 0
9, 367680, Note_on_c, 3, 50, 84
9, 367769, Note_on_c, 3, 50, 0
9, 367800, Note_on_c, 3, 49, 84
9, 367889, Note_on_c, 3, 49, 0
9, 367920, Note_on_c, 3, 47, 84
9, 368009, Note_on_c, 3, 47, 0
9, 368040, Note_on_c, 3, 45, 84
9, 368129, Note_on_c, 3, 45, 0
9, 368160, Note_on_c, 3, 50, 84
9, 368399, Note_on_c, 3, 50, 0
9, 368880, Control_c, 3, 11, 112
9, 369000, Note_on_c, 3, 54, 84
9, 369119, Note_on_c, 3, 54, 0
9, 369120, Note_on_c, 3, 55, 84
9, 369140, Control_c, 3, 11, 113
9, 369359, Note_on_c, 3, 55, 0
9, 369400, Control_c, 3, 11, 115
9, 369660, Control_c, 3, 11, 116
9, 369920, Control_c, 3, 11, 117
9, 369960, Note_on_c, 3, 56, 84
9, 370079, Note_on_c, 3, 56, 0
9, 370080, Note_on_c, 3, 57, 84
9, 370180, Control_c, 3, 11, 118
9, 370319, Note_on_c, 3, 57, 0
9, 370440, Control_c, 3, 11, 120
9, 370700, Control_c, 3, 11, 121
9, 370920, Note_on_c, 3, 58, 84
9, 370960, Control_c, 3, 11, 122
9, 371039, Note_on_c, 3, 58, 0
9, 371040, Note_on_c, 3, 59, 84
9, 371220, Control_c, 3, 11, 123
9, 371279, Note_on_c, 3, 59, 0
9, 371480, Control_c, 3, 11, 125
9, 371740, Control_c, 3, 11, 126
9, 371880, Note_on_c, 3, 59, 84
9, 371999, Note_on_c, 3, 59, 0
9, 372000, Note_on_c, 3, 60, 84
9, 372000, Control_c, 3, 11, 127
9, 372089, Note_on_c, 3, 60, 0
9, 372120, Note_on_c, 3, 59, 84
9, 372209, Note_on_c, 3, 59, 0
9, 372240, Note_on_c, 3, 57, 84
9, 372329, Note_on_c, 3, 57, 0
9, 372360, Note_on_c, 3, 59, 84
9, 372449, Note_on_c, 3, 59, 0
9, 372480, Note_on_c, 3, 60, 84
9, 372569, Note_on_c, 3, 60, 0
9, 372600, Note_on_c, 3, 59, 84
9, 372689, Note_on_c, 3, 59, 0
9, 372720, Note_on_c, 3, 60, 84
9, 372809, Note_on_c, 3, 60, 0
9, 372840, Note_on_c, 3, 59, 84
9, 372929, Note_on_c, 3, 59, 0
9, 372960, Note_on_c, 3, 60, 84
9, 373049, Note_on_c, 3, 60, 0
9, 373080, Note_on_c, 3, 59, 84
9, 373169, Note_on_c, 3, 59, 0
9, 373200, Note_on_c, 3, 57, 84
9, 373289, Note_on_c, 3, 57, 0
9, 373320, Note_on_c, 3, 59, 84
9, 373409, Note_on_c, 3, 59, 0
9, 373440, Note_on_c, 3, 60, 84
9, 373529, Note_on_c, 3, 60, 0
9, 373560, Note_on_c, 3, 59, 84
9, 373649, Note_on_c, 3, 59, 0
9, 373680, Note_on_c, 3, 60, 84
9, 373769, Note_on_c, 3, 60, 0
9, 373800, Note_on_c, 3, 59, 84
9, 373889, Note_on_c, 3, 59, 0
9, 373920, Note_on_c, 3, 60, 84
9, 374009, Note_on_c, 3, 60, 0
9, 374040, Note_on_c, 3, 59, 84
9, 374129, Note_on_c, 3, 59, 0
9, 374160, Note_on_c, 3, 60, 84
9, 374249, Note_on_c, 3, 60, 0
9, 374280, Note_on_c, 3, 59, 84
9, 374369, Note_on_c, 3, 59, 0
9, 374400, Note_on_c, 3, 60, 84
9, 374489, Note_on_c, 3, 60, 0
9, 374520, Note_on_c, 3, 59, 84
9, 374609, Note_on_c, 3, 59, 0
9, 374640, Note_on_c, 3, 60, 84
9, 374729, Note_on_c, 3, 60, 0
9, 374760, Note_on_c, 3, 59, 84
9, 374849, Note_on_c, 3, 59, 0
9, 374880, Note_on_c, 3, 60, 84
9, 374969, Note_on_c, 3, 60, 0
9, 375000, Note_on_c, 3, 59, 84
9, 375089, Note_on_c, 3, 59, 0
9, 375120, Note_on_c, 3, 57, 84
9, 375209, Note_on_c, 3, 57, 0
9, 375240, Note_on_c, 3, 55, 84
9, 375329, Note_on_c, 3, 55, 0
9, 375360, Note_on_c, 3, 54, 84
9, 375449, Note_on_c, 3, 54, 0
9, 375480, Note_on_c, 3, 52, 84
9, 375569, Note_on_c, 3, 52, 0
9, 375600, Note_on_c, 3, 50, 84
9, 375689, Note_on_c, 3, 50, 0
9, 375720, Note_on_c, 3, 48, 84
9, 375809, Note_on_c, 3, 48, 0
9, 375840, Note_on_c, 3, 47, 84
9, 376769, Note_on_c, 3, 47, 0
9, 376800, Note_on_c, 3, 58, 84
9, 376800, Note_on_c, 3, 46, 84
9, 377729, Note_on_c, 3, 58, 0
9, 377729, Note_on_c, 3, 46, 0
9, 377760, Note_on_c, 3, 57, 92
9, 377760, Note_on_c, 3, 45, 92
9, 378689, Note_on_c, 3, 57, 0
9, 378689, Note_on_c, 3, 45, 0
9, 378720, Note_on_c, 3, 45, 92
9, 378720, Note_on_c, 3, 57, 92
9, 379649, Note_on_c, 3, 45, 0
9, 379649, Note_on_c, 3, 57, 0
9, 379680, Note_on_c, 3, 60, 84
9, 379769, Note_on_c, 3, 60, 0
9, 379800, Note_on_c, 3, 59, 84
9, 379889, Note_on_c, 3, 59, 0
9, 379920, Note_on_c, 3, 57, 84
9, 380009, Note_on_c, 3, 57, 0
9, 380040, Note_on_c, 3, 59, 84
9, 380129, Note_on_c, 3, 59, 0
9, 380160, Note_on_c, 3, 60, 84
9, 380249, Note_on_c, 3, 60, 0
9, 380280, Note_on_c, 3, 59, 84
9, 380369, Note_on_c, 3, 59, 0
9, 380400, Note_on_c, 3, 60, 84
9, 380489, Note_on_c, 3, 60, 0
9, 380520, Note_on_c, 3, 59, 84
9, 380609, Note_on_c, 3, 59, 0
9, 380640, Note_on_c, 3, 60, 84
9, 380729, Note_on_c, 3, 60, 0
9, 380760, Note_on_c, 3, 59, 84
9, 380849, Note_on_c, 3, 59, 0
9, 380880, Note_on_c, 3, 57, 84
9, 380969, Note_on_c, 3, 57, 0
9, 381000, Note_on_c, 3, 59, 84
9, 381089, Note_on_c, 3, 59, 0
9, 381120, Note_on_c, 3, 60, 84
9, 381209, Note_on_c, 3, 60, 0
9, 381240, Note_on_c, 3, 59, 84
9, 381329, Note_on_c, 3, 59, 0
9, 381360, Note_on_c, 3, 60, 84
9, 381449, Note_on_c, 3, 60, 0
9, 381480, Note_on_c, 3, 59, 84
9, 381569, Note_on_c, 3, 59, 0
9, 381600, Note_on_c, 3, 60, 84
9, 381689, Note_on_c, 3, 60, 0
9, 381720, Note_on_c, 3, 59, 84
9, 381809, Note_on_c, 3, 59, 0
9, 381840, Note_on_c, 3, 60, 84
9, 381929, Note_on_c, 3, 60, 0
9, 381960, Note_on_c, 3, 59, 84
9, 382049, Note_on_c, 3, 59, 0
9, 382080, Note_on_c, 3, 60, 84
9, 382169, Note_on_c, 3, 60, 0
9, 382200, Note_on_c, 3, 59, 84
9, 382289, Note_on_c, 3, 59, 0
9, 382320, Note_on_c, 3, 60, 84
9, 382409, Note_on_c, 3, 60, 0
9, 382440, Note_on_c, 3, 59, 84
9, 382529, Note_on_c, 3, 59, 0
9, 382560, Note_on_c, 3, 60, 84
9, 382649, Note_on_c, 3, 60, 0
9, 382680, Note_on_c, 3, 59, 84
9, 382769, Note_on_c, 3, 59, 0
9, 382800, Note_on_c, 3, 57, 84
9, 382889, Note_on_c, 3, 57, 0
9, 382920, Note_on_c, 3, 55, 84
9, 383009, Note_on_c, 3, 55, 0
9, 383040, Note_on_c, 3, 54, 84
9, 383129, Note_on_c, 3, 54, 0
9, 383160, Note_on_c, 3, 52, 84
9, 383249, Note_on_c, 3, 52, 0
9, 383280, Note_on_c, 3, 50, 84
9, 383369, Note_on_c, 3, 50, 0
9, 383400, Note_on_c, 3, 48, 84
9, 383489, Note_on_c, 3, 48, 0
9, 383520, Note_on_c, 3, 47, 92
9, 383520, Note_on_c, 3, 59, 92
9, 384449, Note_on_c, 3, 47, 0
9, 384449, Note_on_c, 3, 59, 0
9, 384480, Note_on_c, 3, 57, 84
9, 384480, Note_on_c, 3, 45, 84
9, 385409, Note_on_c, 3, 57, 0
9, 385409, Note_on_c, 3, 45, 0
9, 385440, Note_on_c, 3, 55, 84
9, 385440, Note_on_c, 3, 43, 84
9, 385649, Note_on_c, 3, 55, 0
9, 385649, Note_on_c, 3, 43, 0
9, 385680, Note_on_c, 3, 55, 84
9, 385889, Note_on_c, 3, 55, 0
9, 385920, Note_on_c, 3, 52, 84
9, 386129, Note_on_c, 3, 52, 0
9, 386160, Note_on_c, 3, 52, 84
9, 386369, Note_on_c, 3, 52, 0
9, 386400, Note_on_c, 3, 57, 84
9, 386609, Note_on_c, 3, 57, 0
9, 386640, Note_on_c, 3, 57, 84
9, 386849, Note_on_c, 3, 57, 0
9, 386880, Note_on_c, 3, 45, 84
9, 387089, Note_on_c, 3, 45, 0
9, 387120, Note_on_c, 3, 45, 84
9, 387329, Note_on_c, 3, 45, 0
9, 387360, Note_on_c, 3, 50, 84
9, 387599, Note_on_c, 3, 50, 0
9, 387720, Note_on_c, 3, 56, 52
9, 387839, Note_on_c, 3, 56, 0
9, 387840, Note_on_c, 3, 57, 52
9, 388079, Note_on_c, 3, 57, 0
9, 389640, Note_on_c, 3, 56, 52
9, 389759, Note_on_c, 3, 56, 0
9, 389760, Note_on_c, 3, 57, 52
9, 389999, Note_on_c, 3, 57, 0
9, 391560, Note_on_c, 3, 56, 52
9, 391679, Note_on_c, 3, 56, 0
9, 391680, Note_on_c, 3, 57, 52
9, 391919, Note_on_c, 3, 57, 0
9, 393480, Note_on_c, 3, 56, 52
9, 393599, Note_on_c, 3, 56, 0
9, 393600, Note_on_c, 3, 57, 52
9, 393839, Note_on_c, 3, 57, 0
9, 394800, Control_c, 3, 11, 80
9, 394920, Note_on_c, 3, 56, 76
9, 395039, Note_on_c, 3, 56, 0
9, 395040, Note_on_c, 3, 57, 76
9, 395140, Control_c, 3, 11, 84
9, 395279, Note_on_c, 3, 57, 0
9, 395480, Control_c, 3, 11, 88
9, 395820, Control_c, 3, 11, 92
9, 395880, Note_on_c, 3, 56, 76
9, 395999, Note_on_c, 3, 56, 0
9, 396000, Note_on_c, 3, 57, 76
9, 396160, Control_c, 3, 11, 96
9, 396239, Note_on_c, 3, 57, 0
9, 396500, Control_c, 3, 11, 100
9, 396840, Control_c, 3, 11, 104
9, 396840, Note_on_c, 3, 56, 76
9, 396959, Note_on_c, 3, 56, 0
9, 396960, Note_on_c, 3, 57, 76
9, 397180, Control_c, 3, 11, 107
9, 397199, Note_on_c, 3, 57, 0
9, 397520, Control_c, 3, 11, 111
9, 397860, Control_c, 3, 11, 115
9, 398200, Control_c, 3, 11, 119
9, 398280, Note_on_c, 3, 56, 76
9, 398399, Note_on_c, 3, 56, 0
9, 398400, Note_on_c, 3, 57, 76
9, 398540, Control_c, 3, 11, 123
9, 398639, Note_on_c, 3, 57, 0
9, 398880, Control_c, 3, 11, 127
9, 398880, Note_on_c, 3, 62, 76
9, 398880, Note_on_c, 3, 50, 76
9, 399119, Note_on_c, 3, 62, 0
9, 399119, Note_on_c, 3, 50, 0
9, 399360, Note_on_c, 3, 54, 84
9, 399360, Note_on_c, 3, 42, 84
9, 400739, Note_on_c, 3, 54, 0
9, 400739, Note_on_c, 3, 42, 0
9, 408360, Note_on_c, 3, 61, 84
9, 408360, Note_on_c, 3, 49, 84
9, 408479, Note_on_c, 3, 61, 0
9, 408479, Note_on_c, 3, 49, 0
9, 408480, Note_on_c, 3, 62, 84
9, 408480, Note_on_c, 3, 50, 84
9, 408659, Note_on_c, 3, 62, 0
9, 408659, Note_on_c, 3, 50, 0
9, 410280, Note_on_c, 3, 49, 84
9, 410280, Note_on_c, 3, 61, 84
9, 410399, Note_on_c, 3, 49, 0
9, 410399, Note_on_c, 3, 61, 0
9, 410400, Note_on_c, 3, 50, 84
9, 410400, Note_on_c, 3, 62, 84
9, 410579, Note_on_c, 3, 50, 0
9, 410579, Note_on_c, 3, 62, 0
9, 412200, Note_on_c, 3, 49, 84
9, 412200, Note_on_c, 3, 61, 84
9, 412319, Note_on_c, 3, 49, 0
9, 412319, Note_on_c, 3, 61, 0
9, 412320, Note_on_c, 3, 50, 84
9, 412320, Note_on_c, 3, 62, 84
9, 412499, Note_on_c, 3, 50, 0
9, 412499, Note_on_c, 3, 62, 0
9, 413280, Note_on_c, 3, 50, 84
9, 413280, Note_on_c, 3, 62, 84
9, 413459, Note_on_c, 3, 50, 0
9, 413459, Note_on_c, 3, 62, 0
9, 414240, Note_on_c, 3, 62, 84
9, 414240, Note_on_c, 3, 50, 84
9, 414419, Note_on_c, 3, 62, 0
9, 414419, Note_on_c, 3, 50, 0
9, 414960, Note_on_c, 3, 57, 84
9, 414960, Note_on_c, 3, 45, 84
9, 415139, Note_on_c, 3, 57, 0
9, 415139, Note_on_c, 3, 45, 0
9, 415200, Note_on_c, 3, 62, 84
9, 415200, Note_on_c, 3, 50, 84
9, 415379, Note_on_c, 3, 62, 0
9, 415379, Note_on_c, 3, 50, 0
9, 415440, Note_on_c, 3, 45, 84
9, 415440, Note_on_c, 3, 57, 84
9, 415619, Note_on_c, 3, 45, 0
9, 415619, Note_on_c, 3, 57, 0
9, 415680, Note_on_c, 3, 50, 84
9, 415680, Note_on_c, 3, 62, 84
9, 415859, Note_on_c, 3, 50, 0
9, 415859, Note_on_c, 3, 62, 0
9, 415920, Note_on_c, 3, 45, 84
9, 415920, Note_on_c, 3, 57, 84
9, 416099, Note_on_c, 3, 45, 0
9, 416099, Note_on_c, 3, 57, 0
9, 416160, Note_on_c, 3, 50, 84
9, 416160, Note_on_c, 3, 62, 84
9, 416339, Note_on_c, 3, 50, 0
9, 416339, Note_on_c, 3, 62, 0
9, 416400, Note_on_c, 3, 57, 84
9, 416579, Note_on_c, 3, 57, 0
9, 416640, Note_on_c, 3, 62, 84
9, 416819, Note_on_c, 3, 62, 0
9, 416880, Note_on_c, 3, 57, 84
9, 417059, Note_on_c, 3, 57, 0
9, 417120, Note_on_c, 3, 62, 84
9, 417299, Note_on_c, 3, 62, 0
9, 417360, Note_on_c, 3, 57, 84
9, 417539, Note_on_c, 3, 57, 0
9, 417600, Note_on_c, 3, 62, 84
9, 417779, Note_on_c, 3, 62, 0
9, 417840, Note_on_c, 3, 57, 84
9, 418019, Note_on_c, 3, 57, 0
9, 418080, Note_on_c, 3, 62, 84
9, 418259, Note_on_c, 3, 62, 0
9, 419040, Note_on_c, 3, 62, 84
9, 419219, Note_on_c, 3, 62, 0
9, 419280, Note_on_c, 3, 61, 84
9, 419399, Note_on_c, 3, 61, 0
9, 419400, Note_on_c, 3, 59, 84
9, 419519, Note_on_c, 3, 59, 0
9, 419520, Note_on_c, 3, 57, 84
9, 419639, Note_on_c, 3, 57, 0
9, 419640, Note_on_c, 3, 55, 84
9, 419759, Note_on_c, 3, 55, 0
9, 419760, Note_on_c, 3, 54, 84
9, 419879, Note_on_c, 3, 54, 0
9, 419880, Note_on_c, 3, 52, 84
9, 419969, Note_on_c, 3, 52, 0
9, 420000, Note_on_c, 3, 50, 84
9, 420119, Note_on_c, 3, 50, 0
9, 420120, Note_on_c, 3, 49, 84
9, 420239, Note_on_c, 3, 49, 0
9, 420240, Note_on_c, 3, 50, 84
9, 420359, Note_on_c, 3, 50, 0
9, 420360, Note_on_c, 3, 49, 84
9, 420479, Note_on_c, 3, 49, 0
9, 420480, Note_on_c, 3, 50, 84
9, 420599, Note_on_c, 3, 50, 0
9, 420600, Note_on_c, 3, 49, 84
9, 420719, Note_on_c, 3, 49, 0
9, 420720, Note_on_c, 3, 50, 84
9, 420839, Note_on_c, 3, 50, 0
9, 420840, Note_on_c, 3, 49, 84
9, 420929, Note_on_c, 3, 49, 0
9, 420960, Note_on_c, 3, 50, 84
9, 421079, Note_on_c, 3, 50, 0
9, 421080, Note_on_c, 3, 49, 84
9, 421199, Note_on_c, 3, 49, 0
9, 421200, Note_on_c, 3, 50, 84
9, 421319, Note_on_c, 3, 50, 0
9, 421320, Note_on_c, 3, 49, 84
9, 421439, Note_on_c, 3, 49, 0
9, 421440, Note_on_c, 3, 50, 84
9, 421559, Note_on_c, 3, 50, 0
9, 421560, Note_on_c, 3, 49, 84
9, 421679, Note_on_c, 3, 49, 0
9, 421680, Note_on_c, 3, 50, 84
9, 421799, Note_on_c, 3, 50, 0
9, 421800, Note_on_c, 3, 49, 84
9, 421889, Note_on_c, 3, 49, 0
9, 421920, Note_on_c, 3, 50, 84
9, 422159, Note_on_c, 3, 50, 0
9, 422880, Note_on_c, 3, 50, 84
9, 423119, Note_on_c, 3, 50, 0
9, 423360, Note_on_c, 3, 50, 84
9, 423599, Note_on_c, 3, 50, 0
9, 423840, Note_on_c, 3, 50, 84
9, 424079, Note_on_c, 3, 50, 0
9, 424800, Note_on_c, 3, 50, 84
9, 425039, Note_on_c, 3, 50, 0
9, 425760, Note_on_c, 3, 50, 84
9, 425999, Note_on_c, 3, 50, 0
9, 425999, End_track
10, 0, Start_track
10, 0, Title_t, "French Horn in D"
10, 0, MIDI_port, 0
10, 0, Program_c, 4, 60
10, 0, Control_c, 4, 7, 96
10, 0, Control_c, 4, 10, 45
10, 0, Control_c, 4, 11, 127
10, 4800, Note_on_c, 4, 64, 52
10, 4800, Note_on_c, 4, 57, 52
10, 5249, Note_on_c, 4, 64, 0
10, 5249, Note_on_c, 4, 57, 0
10, 5280, Note_on_c, 4, 54, 76
10, 5280, Note_on_c, 4, 62, 76
10, 5459, Note_on_c, 4, 54, 0
10, 5459, Note_on_c, 4, 62, 0
10, 5520, Note_on_c, 4, 64, 76
10, 5520, Note_on_c, 4, 57, 76
10, 5699, Note_on_c, 4, 64, 0
10, 5699, Note_on_c, 4, 57, 0
10, 7200, Note_on_c, 4, 57, 76
10, 7200, Note_on_c, 4, 45, 76
10, 7379, Note_on_c, 4, 57, 0
10, 7379, Note_on_c, 4, 45, 0
10, 7440, Note_on_c, 4, 57, 76
10, 7440, Note_on_c, 4, 45, 76
10, 7619, Note_on_c, 4, 57, 0
10, 7619, Note_on_c, 4, 45, 0
10, 10560, Note_on_c, 4, 57, 52
10, 10560, Note_on_c, 4, 64, 52
10, 11009, Note_on_c, 4, 57, 0
10, 11009, Note_on_c, 4, 64, 0
10, 11040, Note_on_c, 4, 50, 76
10, 11040, Note_on_c, 4, 62, 76
10, 12929, Note_on_c, 4, 50, 0
10, 12929, Note_on_c, 4, 62, 0
10, 12960, Note_on_c, 4, 50, 84
10, 12960, Note_on_c, 4, 62, 84
10, 14849, Note_on_c, 4, 50, 0
10, 14849, Note_on_c, 4, 62, 0
10, 14880, Note_on_c, 4, 50, 84
10, 14880, Note_on_c, 4, 62, 84
10, 16769, Note_on_c, 4, 50, 0
10, 16769, Note_on_c, 4, 62, 0
10, 16800, Note_on_c, 4, 62, 84
10, 16800, Note_on_c, 4, 50, 84
10, 17489, Note_on_c, 4, 62, 0
10, 17489, Note_on_c, 4, 50, 0
10, 17520, Note_on_c, 4, 62, 76
10, 17520, Note_on_c, 4, 50, 76
10, 17729, Note_on_c, 4, 62, 0
10, 17729, Note_on_c, 4, 50, 0
10, 17760, Note_on_c, 4, 62, 76
10, 17760, Note_on_c, 4, 50, 76
10, 17939, Note_on_c, 4, 62, 0
10, 17939, Note_on_c, 4, 50, 0
10, 18000, Note_on_c, 4, 62, 76
10, 18000, Note_on_c, 4, 50, 76
10, 18179, Note_on_c, 4, 62, 0
10, 18179, Note_on_c, 4, 50, 0
10, 18240, Note_on_c, 4, 62, 76
10, 18240, Note_on_c, 4, 50, 76
10, 18419, Note_on_c, 4, 62, 0
10, 18419, Note_on_c, 4, 50, 0
10, 18480, Note_on_c, 4, 62, 76
10, 18480, Note_on_c, 4, 50, 76
10, 18659, Note_on_c, 4, 62, 0
10, 18659, Note_on_c, 4, 50, 0
10, 18720, Note_on_c, 4, 69, 84
10, 18720, Note_on_c, 4, 57, 84
10, 18959, Note_on_c, 4, 69, 0
10, 18959, Note_on_c, 4, 57, 0
10, 20640, Note_on_c, 4, 57, 84
10, 20640, Note_on_c, 4, 69, 84
10, 22769, Note_on_c, 4, 57, 0
10, 22769, Note_on_c, 4, 69, 0
10, 22800, Note_on_c, 4, 57, 84
10, 23009, Note_on_c, 4, 57, 0
10, 23040, Note_on_c, 4, 57, 84
10, 23249, Note_on_c, 4, 57, 0
10, 23280, Note_on_c, 4, 57, 84
10, 23489, Note_on_c, 4, 57, 0
10, 23520, Note_on_c, 4, 57, 84
10, 23759, Note_on_c, 4, 57, 0
10, 30240, Note_on_c, 4, 64, 52
10, 34319, Note_on_c, 4, 64, 0
10, 34320, Control_c, 4, 11, 96
10, 34560, Note_on_c, 4, 45, 68
10, 34560, Control_c, 4, 11, 96
10, 34560, Note_on_c, 4, 57, 68
10, 34680, Control_c, 4, 11, 99
10, 34800, Control_c, 4, 11, 101
10, 34920, Control_c, 4, 11, 104
10, 35040, Control_c, 4, 11, 106
10, 35160, Control_c, 4, 11, 109
10, 35280, Control_c, 4, 11, 112
10, 35400, Control_c, 4, 11, 114
10, 35489, Note_on_c, 4, 45, 0
10, 35489, Note_on_c, 4, 57, 0
10, 35520, Note_on_c, 4, 57, 68
10, 35520, Control_c, 4, 11, 117
10, 35520, Note_on_c, 4, 45, 68
10, 35640, Control_c, 4, 11, 119
10, 35760, Control_c, 4, 11, 122
10, 35880, Control_c, 4, 11, 124
10, 35969, Note_on_c, 4, 57, 0
10, 35969, Note_on_c, 4, 45, 0
10, 36000, Control_c, 4, 11, 127
10, 36000, Note_on_c, 4, 54, 52
10, 36000, Note_on_c, 4, 62, 52
10, 36479, Note_on_c, 4, 54, 0
10, 36479, Note_on_c, 4, 62, 0
10, 36480, Note_on_c, 4, 64, 52
10, 36480, Note_on_c, 4, 57, 52
10, 36719, Note_on_c, 4, 64, 0
10, 36719, Note_on_c, 4, 57, 0
10, 36720, Note_on_c, 4, 66, 52
10, 36720, Note_on_c, 4, 62, 52
10, 36929, Note_on_c, 4, 66, 0
10, 36929, Note_on_c, 4, 62, 0
10, 36960, Note_on_c, 4, 64, 52
10, 36960, Note_on_c, 4, 67, 52
10, 37649, Note_on_c, 4, 64, 0
10, 37649, Note_on_c, 4, 67, 0
10, 37680, Note_on_c, 4, 64, 52
10, 37680, Note_on_c, 4, 67, 52
10, 37889, Note_on_c, 4, 64, 0
10, 37889, Note_on_c, 4, 67, 0
10, 37920, Note_on_c, 4, 64, 52
10, 37920, Note_on_c, 4, 67, 52
10, 38159, Note_on_c, 4, 64, 0
10, 38159, Note_on_c, 4, 67, 0
10, 38160, Note_on_c, 4, 62, 52
10, 38160, Note_on_c, 4, 66, 52
10, 38399, Note_on_c, 4, 62, 0
10, 38399, Note_on_c, 4, 66, 0
10, 38400, Note_on_c, 4, 57, 52
10, 38400, Note_on_c, 4, 64, 52
10, 38639, Note_on_c, 4, 57, 0
10, 38639, Note_on_c, 4, 64, 0
10, 38640, Note_on_c, 4, 54, 52
10, 38640, Note_on_c, 4, 62, 52
10, 38849, Note_on_c, 4, 54, 0
10, 38849, Note_on_c, 4, 62, 0
10, 38865, Control_c, 4, 11, 80
10, 38880, Note_on_c, 4, 67, 76
10, 38880, Note_on_c, 4, 64, 76
10, 39569, Note_on_c, 4, 67, 0
10, 39569, Note_on_c, 4, 64, 0
10, 39600, Note_on_c, 4, 67, 76
10, 39600, Note_on_c, 4, 64, 76
10, 39809, Note_on_c, 4, 67, 0
10, 39809, Note_on_c, 4, 64, 0
10, 39840, Note_on_c, 4, 62, 76
10, 39840, Control_c, 4, 11, 80
10, 39840, Note_on_c, 4, 66, 76
10, 40000, Control_c, 4, 11, 84
10, 40049, Note_on_c, 4, 62, 0
10, 40049, Note_on_c, 4, 66, 0
10, 40080, Note_on_c, 4, 54, 76
10, 40080, Note_on_c, 4, 66, 76
10, 40160, Control_c, 4, 11, 88
10, 40320, Control_c, 4, 11, 92
10, 40480, Control_c, 4, 11, 96
10, 40529, Note_on_c, 4, 54, 0
10, 40529, Note_on_c, 4, 66, 0
10, 40560, Note_on_c, 4, 54, 76
10, 40560, Note_on_c, 4, 66, 76
10, 40640, Control_c, 4, 11, 100
10, 40739, Note_on_c, 4, 54, 0
10, 40739, Note_on_c, 4, 66, 0
10, 40800, Note_on_c, 4, 66, 76
10, 40800, Note_on_c, 4, 54, 76
10, 40800, Control_c, 4, 11, 104
10, 40960, Control_c, 4, 11, 107
10, 40979, Note_on_c, 4, 66, 0
10, 40979, Note_on_c, 4, 54, 0
10, 41040, Note_on_c, 4, 66, 76
10, 41040, Note_on_c, 4, 54, 76
10, 41120, Control_c, 4, 11, 111
10, 41219, Note_on_c, 4, 66, 0
10, 41219, Note_on_c, 4, 54, 0
10, 41280, Note_on_c, 4, 54, 76
10, 41280, Note_on_c, 4, 66, 76
10, 41280, Control_c, 4, 11, 115
10, 41440, Control_c, 4, 11, 119
10, 41459, Note_on_c, 4, 54, 0
10, 41459, Note_on_c, 4, 66, 0
10, 41520, Note_on_c, 4, 66, 76
10, 41600, Control_c, 4, 11, 123
10, 41699, Note_on_c, 4, 66, 0
10, 41760, Note_on_c, 4, 64, 76
10, 41760, Control_c, 4, 11, 127
10, 41999, Note_on_c, 4, 64, 0
10, 42720, Note_on_c, 4, 64, 84
10, 43679, Note_on_c, 4, 64, 0
10, 44640, Note_on_c, 4, 64, 84
10, 45599, Note_on_c, 4, 64, 0
10, 46080, Note_on_c, 4, 64, 84
10, 46559, Note_on_c, 4, 64, 0
10, 47040, Note_on_c, 4, 64, 84
10, 47489, Note_on_c, 4, 64, 0
10, 47520, Note_on_c, 4, 64, 76
10, 47759, Note_on_c, 4, 64, 0
10, 60000, Note_on_c, 4, 69, 76
10, 60000, Control_c, 4, 11, 127
10, 60000, Note_on_c, 4, 57, 76
10, 60160, Control_c, 4, 11, 124
10, 60320, Control_c, 4, 11, 122
10, 60480, Control_c, 4, 11, 119
10, 60640, Control_c, 4, 11, 117
10, 60800, Control_c, 4, 11, 114
10, 60960, Control_c, 4, 11, 112
10, 61120, Control_c, 4, 11, 109
10, 61280, Control_c, 4, 11, 106
10, 61440, Control_c, 4, 11, 104
10, 61600, Control_c, 4, 11, 101
10, 61760, Control_c, 4, 11, 99
10, 61920, Control_c, 4, 11, 96
10, 62609, Note_on_c, 4, 69, 0
10, 62609, Note_on_c, 4, 57, 0
10, 62640, Note_on_c, 4, 62, 68
10, 62849, Note_on_c, 4, 62, 0
10, 62880, Note_on_c, 4, 64, 68
10, 63119, Note_on_c, 4, 64, 0
10, 63360, Note_on_c, 4, 64, 68
10, 63599, Note_on_c, 4, 64, 0
10, 64320, Note_on_c, 4, 64, 68
10, 64559, Note_on_c, 4, 64, 0
10, 64800, Note_on_c, 4, 64, 68
10, 64800, Note_on_c, 4, 57, 68
10, 65039, Note_on_c, 4, 64, 0
10, 65039, Note_on_c, 4, 57, 0
10, 79920, Control_c, 4, 11, 127
10, 80160, Note_on_c, 4, 45, 76
10, 80160, Note_on_c, 4, 69, 76
10, 82049, Note_on_c, 4, 45, 0
10, 82049, Note_on_c, 4, 69, 0
10, 82080, Note_on_c, 4, 69, 84
10, 82080, Note_on_c, 4, 45, 84
10, 83969, Note_on_c, 4, 69, 0
10, 83969, Note_on_c, 4, 45, 0
10, 84000, Note_on_c, 4, 64, 84
10, 84000, Note_on_c, 4, 69, 84
10, 84929, Note_on_c, 4, 64, 0
10, 84929, Note_on_c, 4, 69, 0
10, 84960, Note_on_c, 4, 64, 84
10, 85889, Note_on_c, 4, 64, 0
10, 85920, Note_on_c, 4, 45, 76
10, 85920, Note_on_c, 4, 69, 76
10, 87809, Note_on_c, 4, 45, 0
10, 87809, Note_on_c, 4, 69, 0
10, 87840, Note_on_c, 4, 45, 76
10, 87840, Note_on_c, 4, 69, 76
10, 89729, Note_on_c, 4, 45, 0
10, 89729, Note_on_c, 4, 69, 0
10, 89760, Note_on_c, 4, 69, 84
10, 89760, Note_on_c, 4, 67, 84
10, 93599, Note_on_c, 4, 67, 0
10, 93600, Note_on_c, 4, 57, 84
10, 93839, Note_on_c, 4, 69, 0
10, 93839, Note_on_c, 4, 57, 0
10, 107520, Note_on_c, 4, 64, 52
10, 107520, Note_on_c, 4, 57, 52
10, 107969, Note_on_c, 4, 64, 0
10, 107969, Note_on_c, 4, 57, 0
10, 108000, Note_on_c, 4, 62, 76
10, 108000, Note_on_c, 4, 54, 76
10, 108179, Note_on_c, 4, 62, 0
10, 108179, Note_on_c, 4, 54, 0
10, 108240, Note_on_c, 4, 64, 76
10, 108240, Note_on_c, 4, 57, 76
10, 108419, Note_on_c, 4, 64, 0
10, 108419, Note_on_c, 4, 57, 0
10, 109920, Note_on_c, 4, 57, 76
10, 109920, Note_on_c, 4, 45, 76
10, 110099, Note_on_c, 4, 57, 0
10, 110099, Note_on_c, 4, 45, 0
10, 110160, Note_on_c, 4, 57, 76
10, 110160, Note_on_c, 4, 45, 76
10, 110339, Note_on_c, 4, 57, 0
10, 110339, Note_on_c, 4, 45, 0
10, 113280, Note_on_c, 4, 64, 52
10, 113280, Note_on_c, 4, 57, 52
10, 113729, Note_on_c, 4, 64, 0
10, 113729, Note_on_c, 4, 57, 0
10, 113760, Note_on_c, 4, 50, 76
10, 113760, Note_on_c, 4, 62, 76
10, 113999, Note_on_c, 4, 50, 0
10, 113999, Note_on_c, 4, 62, 0
10, 115200, Note_on_c, 4, 62, 84
10, 115200, Note_on_c, 4, 50, 84
10, 115919, Note_on_c, 4, 62, 0
10, 115919, Note_on_c, 4, 50, 0
10, 117120, Note_on_c, 4, 50, 84
10, 117120, Note_on_c, 4, 62, 84
10, 117839, Note_on_c, 4, 50, 0
10, 117839, Note_on_c, 4, 62, 0
10, 119040, Note_on_c, 4, 62, 76
10, 119040, Note_on_c, 4, 50, 76
10, 119219, Note_on_c, 4, 62, 0
10, 119219, Note_on_c, 4, 50, 0
10, 119280, Note_on_c, 4, 62, 76
10, 119280, Note_on_c, 4, 50, 76
10, 119459, Note_on_c, 4, 62, 0
10, 119459, Note_on_c, 4, 50, 0
10, 120960, Note_on_c, 4, 62, 76
10, 120960, Note_on_c, 4, 50, 76
10, 121139, Note_on_c, 4, 62, 0
10, 121139, Note_on_c, 4, 50, 0
10, 121200, Note_on_c, 4, 62, 76
10, 121200, Note_on_c, 4, 50, 76
10, 121379, Note_on_c, 4, 62, 0
10, 121379, Note_on_c, 4, 50, 0
10, 121920, Note_on_c, 4, 50, 76
10, 121920, Note_on_c, 4, 62, 76
10, 122099, Note_on_c, 4, 50, 0
10, 122099, Note_on_c, 4, 62, 0
10, 122160, Note_on_c, 4, 62, 76
10, 122160, Note_on_c, 4, 50, 76
10, 122339, Note_on_c, 4, 62, 0
10, 122339, Note_on_c, 4, 50, 0
10, 122880, Note_on_c, 4, 50, 76
10, 122880, Note_on_c, 4, 62, 76
10, 123059, Note_on_c, 4, 50, 0
10, 123059, Note_on_c, 4, 62, 0
10, 123120, Note_on_c, 4, 62, 76
10, 123120, Note_on_c, 4, 50, 76
10, 123299, Note_on_c, 4, 62, 0
10, 123299, Note_on_c, 4, 50, 0
10, 123840, Note_on_c, 4, 62, 76
10, 123840, Note_on_c, 4, 50, 76
10, 124019, Note_on_c, 4, 62, 0
10, 124019, Note_on_c, 4, 50, 0
10, 124080, Note_on_c, 4, 50, 76
10, 124080, Note_on_c, 4, 62, 76
10, 124259, Note_on_c, 4, 50, 0
10, 124259, Note_on_c, 4, 62, 0
10, 124800, Note_on_c, 4, 62, 76
10, 124800, Note_on_c, 4, 50, 76
10, 124979, Note_on_c, 4, 62, 0
10, 124979, Note_on_c, 4, 50, 0
10, 125040, Note_on_c, 4, 50, 76
10, 125040, Note_on_c, 4, 62, 76
10, 125219, Note_on_c, 4, 50, 0
10, 125219, Note_on_c, 4, 62, 0
10, 125280, Note_on_c, 4, 62, 76
10, 125280, Note_on_c, 4, 50, 76
10, 125519, Note_on_c, 4, 62, 0
10, 125519, Note_on_c, 4, 50, 0
10, 132960, Note_on_c, 4, 50, 76
10, 132960, Note_on_c, 4, 62, 76
10, 133919, Note_on_c, 4, 50, 0
10, 133919, Note_on_c, 4, 62, 0
10, 134880, Note_on_c, 4, 62, 76
10, 134880, Note_on_c, 4, 50, 76
10, 135839, Note_on_c, 4, 62, 0
10, 135839, Note_on_c, 4, 50, 0
10, 138720, Note_on_c, 4, 64, 76
10, 139679, Note_on_c, 4, 64, 0
10, 140640, Note_on_c, 4, 64, 76
10, 141599, Note_on_c, 4, 64, 0
10, 157920, Note_on_c, 4, 54, 84
10, 157920, Note_on_c, 4, 66, 84
10, 158849, Note_on_c, 4, 54, 0
10, 158849, Note_on_c, 4, 66, 0
10, 158880, Note_on_c, 4, 66, 92
10, 158880, Note_on_c, 4, 54, 92
10, 159809, Note_on_c, 4, 66, 0
10, 159809, Note_on_c, 4, 54, 0
10, 159840, Note_on_c, 4, 54, 92
10, 159840, Note_on_c, 4, 66, 92
10, 160769, Note_on_c, 4, 54, 0
10, 160769, Note_on_c, 4, 66, 0
10, 160800, Note_on_c, 4, 54, 92
10, 160800, Note_on_c, 4, 66, 92
10, 161039, Note_on_c, 4, 54, 0
10, 161039, Note_on_c, 4, 66, 0
10, 161280, Note_on_c, 4, 66, 84
10, 161280, Note_on_c, 4, 54, 84
10, 161519, Note_on_c, 4, 66, 0
10, 161519, Note_on_c, 4, 54, 0
10, 161760, Note_on_c, 4, 54, 84
10, 161760, Note_on_c, 4, 66, 84
10, 161999, Note_on_c, 4, 54, 0
10, 161999, Note_on_c, 4, 66, 0
10, 163680, Note_on_c, 4, 66, 84
10, 163680, Note_on_c, 4, 54, 84
10, 164609, Note_on_c, 4, 66, 0
10, 164609, Note_on_c, 4, 54, 0
10, 164640, Note_on_c, 4, 54, 92
10, 164640, Note_on_c, 4, 66, 92
10, 165569, Note_on_c, 4, 54, 0
10, 165569, Note_on_c, 4, 66, 0
10, 165600, Note_on_c, 4, 66, 92
10, 165600, Note_on_c, 4, 54, 92
10, 167489, Note_on_c, 4, 66, 0
10, 167489, Note_on_c, 4, 54, 0
10, 167520, Note_on_c, 4, 54, 92
10, 167520, Note_on_c, 4, 66, 92
10, 169649, Note_on_c, 4, 54, 0
10, 169649, Note_on_c, 4, 66, 0
10, 169680, Note_on_c, 4, 66, 84
10, 169680, Note_on_c, 4, 54, 84
10, 170129, Note_on_c, 4, 66, 0
10, 170129, Note_on_c, 4, 54, 0
10, 170160, Note_on_c, 4, 54, 84
10, 170160, Note_on_c, 4, 66, 84
10, 170609, Note_on_c, 4, 54, 0
10, 170609, Note_on_c, 4, 66, 0
10, 170640, Note_on_c, 4, 66, 84
10, 170640, Note_on_c, 4, 54, 84
10, 171089, Note_on_c, 4, 66, 0
10, 171089, Note_on_c, 4, 54, 0
10, 171120, Note_on_c, 4, 54, 84
10, 171120, Note_on_c, 4, 66, 84
10, 171569, Note_on_c, 4, 54, 0
10, 171569, Note_on_c, 4, 66, 0
10, 171600, Note_on_c, 4, 66, 84
10, 171600, Note_on_c, 4, 54, 84
10, 172049, Note_on_c, 4, 66, 0
10, 172049, Note_on_c, 4, 54, 0
10, 172080, Note_on_c, 4, 66, 84
10, 172080, Note_on_c, 4, 54, 84
10, 172529, Note_on_c, 4, 66, 0
10, 172529, Note_on_c, 4, 54, 0
10, 172560, Note_on_c, 4, 66, 84
10, 172560, Note_on_c, 4, 54, 84
10, 173009, Note_on_c, 4, 66, 0
10, 173009, Note_on_c, 4, 54, 0
10, 173040, Note_on_c, 4, 66, 84
10, 173040, Note_on_c, 4, 54, 84
10, 173519, Note_on_c, 4, 66, 0
10, 173519, Note_on_c, 4, 54, 0
10, 177120, Note_on_c, 4, 57, 76
10, 177120, Note_on_c, 4, 64, 76
10, 177359, Note_on_c, 4, 57, 0
10, 177359, Note_on_c, 4, 64, 0
10, 181440, Note_on_c, 4, 64, 52
10, 181440, Note_on_c, 4, 57, 52
10, 181889, Note_on_c, 4, 64, 0
10, 181889, Note_on_c, 4, 57, 0
10, 181920, Note_on_c, 4, 54, 76
10, 181920, Note_on_c, 4, 62, 76
10, 182099, Note_on_c, 4, 54, 0
10, 182099, Note_on_c, 4, 62, 0
10, 182160, Note_on_c, 4, 64, 76
10, 182160, Note_on_c, 4, 57, 76
10, 182339, Note_on_c, 4, 64, 0
10, 182339, Note_on_c, 4, 57, 0
10, 183840, Note_on_c, 4, 57, 76
10, 184019, Note_on_c, 4, 57, 0
10, 184080, Note_on_c, 4, 57, 76
10, 184259, Note_on_c, 4, 57, 0
10, 187200, Note_on_c, 4, 57, 52
10, 187200, Note_on_c, 4, 64, 52
10, 187649, Note_on_c, 4, 57, 0
10, 187649, Note_on_c, 4, 64, 0
10, 187680, Note_on_c, 4, 50, 76
10, 187680, Note_on_c, 4, 62, 76
10, 189569, Note_on_c, 4, 50, 0
10, 189569, Note_on_c, 4, 62, 0
10, 189600, Note_on_c, 4, 50, 84
10, 189600, Note_on_c, 4, 62, 84
10, 191489, Note_on_c, 4, 50, 0
10, 191489, Note_on_c, 4, 62, 0
10, 191520, Note_on_c, 4, 62, 84
10, 191520, Note_on_c, 4, 50, 84
10, 193409, Note_on_c, 4, 62, 0
10, 193409, Note_on_c, 4, 50, 0
10, 193440, Note_on_c, 4, 62, 84
10, 193440, Note_on_c, 4, 50, 84
10, 194129, Note_on_c, 4, 62, 0
10, 194129, Note_on_c, 4, 50, 0
10, 194160, Note_on_c, 4, 62, 76
10, 194160, Note_on_c, 4, 50, 76
10, 194339, Note_on_c, 4, 62, 0
10, 194339, Note_on_c, 4, 50, 0
10, 194400, Note_on_c, 4, 62, 76
10, 194400, Note_on_c, 4, 50, 76
10, 194579, Note_on_c, 4, 62, 0
10, 194579, Note_on_c, 4, 50, 0
10, 194640, Note_on_c, 4, 50, 76
10, 194640, Note_on_c, 4, 62, 76
10, 194819, Note_on_c, 4, 50, 0
10, 194819, Note_on_c, 4, 62, 0
10, 194880, Note_on_c, 4, 50, 76
10, 194880, Note_on_c, 4, 62, 76
10, 195059, Note_on_c, 4, 50, 0
10, 195059, Note_on_c, 4, 62, 0
10, 195120, Note_on_c, 4, 50, 76
10, 195120, Note_on_c, 4, 62, 76
10, 195299, Note_on_c, 4, 50, 0
10, 195299, Note_on_c, 4, 62, 0
10, 195360, Note_on_c, 4, 57, 84
10, 195360, Note_on_c, 4, 69, 84
10, 195599, Note_on_c, 4, 57, 0
10, 195599, Note_on_c, 4, 69, 0
10, 197280, Note_on_c, 4, 69, 84
10, 197280, Note_on_c, 4, 57, 84
10, 199409, Note_on_c, 4, 69, 0
10, 199409, Note_on_c, 4, 57, 0
10, 199440, Note_on_c, 4, 57, 84
10, 199619, Note_on_c, 4, 57, 0
10, 199680, Note_on_c, 4, 57, 84
10, 199859, Note_on_c, 4, 57, 0
10, 199920, Note_on_c, 4, 57, 84
10, 200099, Note_on_c, 4, 57, 0
10, 200160, Note_on_c, 4, 57, 84
10, 200399, Note_on_c, 4, 57, 0
10, 206880, Note_on_c, 4, 64, 52
10, 210959, Note_on_c, 4, 64, 0
10, 211680, Control_c, 4, 11, 96
10, 211760, Control_c, 4, 11, 99
10, 211840, Control_c, 4, 11, 101
10, 211920, Control_c, 4, 11, 104
10, 212000, Control_c, 4, 11, 106
10, 212080, Control_c, 4, 11, 109
10, 212160, Control_c, 4, 11, 112
10, 212160, Note_on_c, 4, 62, 68
10, 212160, Note_on_c, 4, 50, 68
10, 212240, Control_c, 4, 11, 114
10, 212320, Control_c, 4, 11, 117
10, 212400, Control_c, 4, 11, 119
10, 212480, Control_c, 4, 11, 122
10, 212560, Control_c, 4, 11, 124
10, 212640, Control_c, 4, 11, 96
10, 216719, Note_on_c, 4, 62, 0
10, 216719, Note_on_c, 4, 50, 0
10, 219120, Control_c, 4, 11, 127
10, 219360, Note_on_c, 4, 64, 84
10, 219360, Note_on_c, 4, 57, 84
10, 220319, Note_on_c, 4, 64, 0
10, 220319, Note_on_c, 4, 57, 0
10, 221280, Note_on_c, 4, 57, 84
10, 221280, Note_on_c, 4, 69, 84
10, 222239, Note_on_c, 4, 57, 0
10, 222239, Note_on_c, 4, 69, 0
10, 222720, Note_on_c, 4, 64, 84
10, 222720, Note_on_c, 4, 57, 84
10, 223199, Note_on_c, 4, 64, 0
10, 223199, Note_on_c, 4, 57, 0
10, 223680, Note_on_c, 4, 66, 84
10, 223680, Note_on_c, 4, 62, 84
10, 224129, Note_on_c, 4, 66, 0
10, 224129, Note_on_c, 4, 62, 0
10, 224160, Note_on_c, 4, 64, 76
10, 224160, Note_on_c, 4, 57, 76
10, 224399, Note_on_c, 4, 64, 0
10, 224399, Note_on_c, 4, 57, 0
10, 226080, Note_on_c, 4, 57, 52
10, 226080, Note_on_c, 4, 69, 52
10, 227039, Note_on_c, 4, 57, 0
10, 227039, Note_on_c, 4, 69, 0
10, 227040, Note_on_c, 4, 54, 52
10, 227040, Note_on_c, 4, 66, 52
10, 227519, Note_on_c, 4, 54, 0
10, 227519, Note_on_c, 4, 66, 0
10, 227520, Note_on_c, 4, 62, 52
10, 227520, Note_on_c, 4, 50, 52
10, 227969, Note_on_c, 4, 62, 0
10, 227969, Note_on_c, 4, 50, 0
10, 228000, Note_on_c, 4, 57, 52
10, 228000, Note_on_c, 4, 45, 52
10, 228239, Note_on_c, 4, 57, 0
10, 228239, Note_on_c, 4, 45, 0
10, 229920, Note_on_c, 4, 57, 52
10, 229920, Note_on_c, 4, 69, 52
10, 230879, Note_on_c, 4, 57, 0
10, 230879, Note_on_c, 4, 69, 0
10, 230880, Note_on_c, 4, 66, 52
10, 230880, Note_on_c, 4, 54, 52
10, 231359, Note_on_c, 4, 66, 0
10, 231359, Note_on_c, 4, 54, 0
10, 231360, Note_on_c, 4, 62, 52
10, 231360, Note_on_c, 4, 50, 52
10, 231809, Note_on_c, 4, 62, 0
10, 231809, Note_on_c, 4, 50, 0
10, 231840, Note_on_c, 4, 57, 52
10, 231840, Note_on_c, 4, 45, 52
10, 232079, Note_on_c, 4, 57, 0
10, 232079, Note_on_c, 4, 45, 0
10, 236640, Note_on_c, 4, 57, 76
10, 236640, Note_on_c, 4, 69, 76
10, 236760, Control_c, 4, 11, 112
10, 236883, Control_c, 4, 11, 109
10, 237035, Control_c, 4, 11, 107
10, 237188, Control_c, 4, 11, 104
10, 237340, Control_c, 4, 11, 101
10, 237493, Control_c, 4, 11, 99
10, 237645, Control_c, 4, 11, 96
10, 237798, Control_c, 4, 11, 93
10, 237950, Control_c, 4, 11, 91
10, 238103, Control_c, 4, 11, 88
10, 238255, Control_c, 4, 11, 85
10, 238408, Control_c, 4, 11, 83
10, 238529, Note_on_c, 4, 57, 0
10, 238529, Note_on_c, 4, 69, 0
10, 238560, Note_on_c, 4, 67, 76
10, 238560, Control_c, 4, 11, 80
10, 238799, Note_on_c, 4, 67, 0
10, 239025, Control_c, 4, 11, 127
10, 239040, Note_on_c, 4, 67, 52
10, 239279, Note_on_c, 4, 67, 0
10, 240000, Note_on_c, 4, 69, 52
10, 240239, Note_on_c, 4, 69, 0
10, 240960, Note_on_c, 4, 57, 52
10, 241199, Note_on_c, 4, 57, 0
10, 241440, Note_on_c, 4, 45, 44
10, 241440, Note_on_c, 4, 57, 44
10, 245519, Note_on_c, 4, 45, 0
10, 245519, Note_on_c, 4, 57, 0
10, 256800, Note_on_c, 4, 50, 76
10, 256800, Note_on_c, 4, 62, 76
10, 258689, Note_on_c, 4, 50, 0
10, 258689, Note_on_c, 4, 62, 0
10, 258720, Note_on_c, 4, 64, 76
10, 258720, Note_on_c, 4, 62, 76
10, 260609, Note_on_c, 4, 64, 0
10, 260609, Note_on_c, 4, 62, 0
10, 260640, Note_on_c, 4, 66, 84
10, 260640, Note_on_c, 4, 62, 84
10, 261569, Note_on_c, 4, 66, 0
10, 261569, Note_on_c, 4, 62, 0
10, 261600, Note_on_c, 4, 57, 84
10, 261600, Note_on_c, 4, 64, 84
10, 262529, Note_on_c, 4, 57, 0
10, 262529, Note_on_c, 4, 64, 0
10, 262560, Note_on_c, 4, 57, 76
10, 262560, Note_on_c, 4, 69, 76
10, 263489, Note_on_c, 4, 57, 0
10, 263489, Note_on_c, 4, 69, 0
10, 263520, Note_on_c, 4, 66, 84
10, 263520, Note_on_c, 4, 54, 84
10, 264209, Note_on_c, 4, 66, 0
10, 264209, Note_on_c, 4, 54, 0
10, 264240, Note_on_c, 4, 62, 76
10, 264240, Note_on_c, 4, 50, 76
10, 264449, Note_on_c, 4, 62, 0
10, 264449, Note_on_c, 4, 50, 0
10, 264480, Note_on_c, 4, 50, 84
10, 264480, Note_on_c, 4, 62, 84
10, 266369, Note_on_c, 4, 50, 0
10, 266369, Note_on_c, 4, 62, 0
10, 266400, Note_on_c, 4, 62, 84
10, 266400, Note_on_c, 4, 50, 84
10, 270479, Note_on_c, 4, 62, 0
10, 270479, Note_on_c, 4, 50, 0
10, 278880, Note_on_c, 4, 50, 44
10, 278880, Note_on_c, 4, 62, 44
10, 279119, Note_on_c, 4, 50, 0
10, 279119, Note_on_c, 4, 62, 0
10, 280800, Note_on_c, 4, 62, 44
10, 280800, Note_on_c, 4, 50, 44
10, 281039, Note_on_c, 4, 62, 0
10, 281039, Note_on_c, 4, 50, 0
10, 286080, Note_on_c, 4, 57, 52
10, 286080, Note_on_c, 4, 64, 52
10, 286529, Note_on_c, 4, 57, 0
10, 286529, Note_on_c, 4, 64, 0
10, 286560, Note_on_c, 4, 54, 76
10, 286560, Note_on_c, 4, 62, 76
10, 286739, Note_on_c, 4, 54, 0
10, 286739, Note_on_c, 4, 62, 0
10, 286800, Note_on_c, 4, 64, 76
10, 286800, Note_on_c, 4, 57, 76
10, 286979, Note_on_c, 4, 64, 0
10, 286979, Note_on_c, 4, 57, 0
10, 297120, Note_on_c, 4, 50, 76
10, 297120, Note_on_c, 4, 62, 76
10, 299009, Note_on_c, 4, 50, 0
10, 299009, Note_on_c, 4, 62, 0
10, 299040, Note_on_c, 4, 57, 76
10, 299040, Note_on_c, 4, 45, 76
10, 299279, Note_on_c, 4, 57, 0
10, 299279, Note_on_c, 4, 45, 0
10, 300960, Note_on_c, 4, 57, 76
10, 300960, Note_on_c, 4, 69, 76
10, 301199, Note_on_c, 4, 57, 0
10, 301199, Note_on_c, 4, 69, 0
10, 302880, Note_on_c, 4, 69, 76
10, 302880, Note_on_c, 4, 57, 76
10, 303119, Note_on_c, 4, 69, 0
10, 303119, Note_on_c, 4, 57, 0
10, 303840, Note_on_c, 4, 57, 76
10, 303840, Note_on_c, 4, 69, 76
10, 304079, Note_on_c, 4, 57, 0
10, 304079, Note_on_c, 4, 69, 0
10, 304800, Note_on_c, 4, 57, 76
10, 304800, Note_on_c, 4, 69, 76
10, 305039, Note_on_c, 4, 57, 0
10, 305039, Note_on_c, 4, 69, 0
10, 305760, Note_on_c, 4, 69, 76
10, 305760, Note_on_c, 4, 57, 76
10, 305999, Note_on_c, 4, 69, 0
10, 305999, Note_on_c, 4, 57, 0
10, 306480, Control_c, 4, 11, 80
10, 306720, Note_on_c, 4, 57, 76
10, 306720, Note_on_c, 4, 69, 76
10, 307680, Control_c, 4, 11, 80
10, 307760, Control_c, 4, 11, 84
10, 307840, Control_c, 4, 11, 88
10, 307920, Control_c, 4, 11, 92
10, 308000, Control_c, 4, 11, 96
10, 308080, Control_c, 4, 11, 100
10, 308160, Control_c, 4, 11, 104
10, 308240, Control_c, 4, 11, 107
10, 308320, Control_c, 4, 11, 111
10, 308400, Control_c, 4, 11, 115
10, 308480, Control_c, 4, 11, 119
10, 308560, Control_c, 4, 11, 123
10, 308609, Note_on_c, 4, 57, 0
10, 308609, Note_on_c, 4, 69, 0
10, 308640, Note_on_c, 4, 62, 76
10, 308640, Note_on_c, 4, 50, 76
10, 308640, Control_c, 4, 11, 127
10, 308879, Note_on_c, 4, 62, 0
10, 308879, Note_on_c, 4, 50, 0
10, 310560, Note_on_c, 4, 62, 76
10, 310560, Note_on_c, 4, 50, 76
10, 310799, Note_on_c, 4, 62, 0
10, 310799, Note_on_c, 4, 50, 0
10, 312480, Note_on_c, 4, 62, 76
10, 312480, Note_on_c, 4, 50, 76
10, 312719, Note_on_c, 4, 62, 0
10, 312719, Note_on_c, 4, 50, 0
10, 313440, Note_on_c, 4, 50, 76
10, 313440, Note_on_c, 4, 62, 76
10, 313679, Note_on_c, 4, 50, 0
10, 313679, Note_on_c, 4, 62, 0
10, 314400, Note_on_c, 4, 50, 76
10, 314400, Note_on_c, 4, 62, 76
10, 314639, Note_on_c, 4, 50, 0
10, 314639, Note_on_c, 4, 62, 0
10, 315360, Note_on_c, 4, 62, 76
10, 315360, Note_on_c, 4, 50, 76
10, 315599, Note_on_c, 4, 62, 0
10, 315599, Note_on_c, 4, 50, 0
10, 316320, Note_on_c, 4, 62, 76
10, 316320, Note_on_c, 4, 50, 76
10, 317729, Note_on_c, 4, 62, 0
10, 317729, Note_on_c, 4, 50, 0
10, 317760, Note_on_c, 4, 64, 84
10, 318689, Note_on_c, 4, 64, 0
10, 318720, Note_on_c, 4, 66, 84
10, 319649, Note_on_c, 4, 66, 0
10, 319680, Note_on_c, 4, 67, 84
10, 320129, Note_on_c, 4, 67, 0
10, 320160, Note_on_c, 4, 64, 84
10, 320160, Note_on_c, 4, 57, 84
10, 323999, Note_on_c, 4, 64, 0
10, 323999, Note_on_c, 4, 57, 0
10, 325920, Note_on_c, 4, 66, 44
10, 325920, Note_on_c, 4, 54, 44
10, 328079, Note_on_c, 4, 66, 0
10, 328079, Note_on_c, 4, 54, 0
10, 331440, Control_c, 4, 11, 96
10, 331680, Note_on_c, 4, 57, 60
10, 331680, Note_on_c, 4, 64, 60
10, 331680, Control_c, 4, 11, 96
10, 331840, Control_c, 4, 11, 99
10, 332000, Control_c, 4, 11, 101
10, 332159, Note_on_c, 4, 57, 0
10, 332159, Note_on_c, 4, 64, 0
10, 332160, Note_on_c, 4, 66, 60
10, 332160, Control_c, 4, 11, 104
10, 332160, Note_on_c, 4, 62, 60
10, 332320, Control_c, 4, 11, 106
10, 332480, Control_c, 4, 11, 109
10, 332639, Note_on_c, 4, 66, 0
10, 332639, Note_on_c, 4, 62, 0
10, 332640, Note_on_c, 4, 67, 60
10, 332640, Note_on_c, 4, 64, 60
10, 332640, Control_c, 4, 11, 112
10, 332800, Control_c, 4, 11, 114
10, 332960, Control_c, 4, 11, 117
10, 333119, Note_on_c, 4, 67, 0
10, 333119, Note_on_c, 4, 64, 0
10, 333120, Note_on_c, 4, 57, 60
10, 333120, Note_on_c, 4, 64, 60
10, 333120, Control_c, 4, 11, 119
10, 333280, Control_c, 4, 11, 122
10, 333440, Control_c, 4, 11, 124
10, 333599, Note_on_c, 4, 57, 0
10, 333599, Note_on_c, 4, 64, 0
10, 333600, Control_c, 4, 11, 127
10, 345120, Note_on_c, 4, 50, 52
10, 345120, Note_on_c, 4, 38, 52
10, 348959, Note_on_c, 4, 50, 0
10, 348959, Note_on_c, 4, 38, 0
10, 348960, Note_on_c, 4, 38, 44
10, 348960, Note_on_c, 4, 50, 44
10, 353039, Note_on_c, 4, 38, 0
10, 353039, Note_on_c, 4, 50, 0
10, 358560, Note_on_c, 4, 62, 84
10, 358560, Note_on_c, 4, 50, 84
10, 360449, Note_on_c, 4, 62, 0
10, 360449, Note_on_c, 4, 50, 0
10, 360480, Note_on_c, 4, 66, 84
10, 360480, Note_on_c, 4, 62, 84
10, 362369, Note_on_c, 4, 66, 0
10, 362369, Note_on_c, 4, 62, 0
10, 362400, Note_on_c, 4, 62, 92
10, 362400, Note_on_c, 4, 66, 92
10, 364289, Note_on_c, 4, 62, 0
10, 364289, Note_on_c, 4, 66, 0
10, 364320, Note_on_c, 4, 64, 92
10, 364320, Note_on_c, 4, 57, 92
10, 366209, Note_on_c, 4, 64, 0
10, 366209, Note_on_c, 4, 57, 0
10, 366240, Note_on_c, 4, 64, 92
10, 366240, Note_on_c, 4, 57, 92
10, 368129, Note_on_c, 4, 64, 0
10, 368129, Note_on_c, 4, 57, 0
10, 368160, Note_on_c, 4, 62, 76
10, 368160, Note_on_c, 4, 50, 76
10, 368399, Note_on_c, 4, 62, 0
10, 368399, Note_on_c, 4, 50, 0
10, 368640, Note_on_c, 4, 50, 77
10, 368640, Note_on_c, 4, 62, 77
10, 368879, Note_on_c, 4, 50, 0
10, 368879, Note_on_c, 4, 62, 0
10, 369600, Note_on_c, 4, 50, 79
10, 369600, Note_on_c, 4, 62, 79
10, 369839, Note_on_c, 4, 50, 0
10, 369839, Note_on_c, 4, 62, 0
10, 370560, Note_on_c, 4, 62, 81
10, 370560, Note_on_c, 4, 50, 81
10, 370799, Note_on_c, 4, 62, 0
10, 370799, Note_on_c, 4, 50, 0
10, 371520, Note_on_c, 4, 50, 83
10, 371520, Note_on_c, 4, 62, 83
10, 371759, Note_on_c, 4, 50, 0
10, 371759, Note_on_c, 4, 62, 0
10, 372000, Note_on_c, 4, 62, 84
10, 372000, Note_on_c, 4, 50, 84
10, 372179, Note_on_c, 4, 62, 0
10, 372179, Note_on_c, 4, 50, 0
10, 372240, Note_on_c, 4, 62, 84
10, 372240, Note_on_c, 4, 50, 84
10, 372419, Note_on_c, 4, 62, 0
10, 372419, Note_on_c, 4, 50, 0
10, 372480, Note_on_c, 4, 50, 84
10, 372480, Note_on_c, 4, 62, 84
10, 372659, Note_on_c, 4, 50, 0
10, 372659, Note_on_c, 4, 62, 0
10, 372720, Note_on_c, 4, 62, 84
10, 372720, Note_on_c, 4, 50, 84
10, 372899, Note_on_c, 4, 62, 0
10, 372899, Note_on_c, 4, 50, 0
10, 372960, Note_on_c, 4, 62, 84
10, 372960, Note_on_c, 4, 50, 84
10, 373139, Note_on_c, 4, 62, 0
10, 373139, Note_on_c, 4, 50, 0
10, 373200, Note_on_c, 4, 50, 84
10, 373200, Note_on_c, 4, 62, 84
10, 373379, Note_on_c, 4, 50, 0
10, 373379, Note_on_c, 4, 62, 0
10, 373440, Note_on_c, 4, 50, 84
10, 373440, Note_on_c, 4, 62, 84
10, 373619, Note_on_c, 4, 50, 0
10, 373619, Note_on_c, 4, 62, 0
10, 373680, Note_on_c, 4, 50, 84
10, 373680, Note_on_c, 4, 62, 84
10, 373859, Note_on_c, 4, 50, 0
10, 373859, Note_on_c, 4, 62, 0
10, 373920, Note_on_c, 4, 50, 84
10, 373920, Note_on_c, 4, 62, 84
10, 374099, Note_on_c, 4, 50, 0
10, 374099, Note_on_c, 4, 62, 0
10, 374160, Note_on_c, 4, 62, 84
10, 374160, Note_on_c, 4, 50, 84
10, 374339, Note_on_c, 4, 62, 0
10, 374339, Note_on_c, 4, 50, 0
10, 374400, Note_on_c, 4, 50, 84
10, 374400, Note_on_c, 4, 62, 84
10, 374579, Note_on_c, 4, 50, 0
10, 374579, Note_on_c, 4, 62, 0
10, 374640, Note_on_c, 4, 62, 84
10, 374640, Note_on_c, 4, 50, 84
10, 374819, Note_on_c, 4, 62, 0
10, 374819, Note_on_c, 4, 50, 0
10, 374880, Note_on_c, 4, 50, 84
10, 374880, Note_on_c, 4, 62, 84
10, 375059, Note_on_c, 4, 50, 0
10, 375059, Note_on_c, 4, 62, 0
10, 375120, Note_on_c, 4, 50, 84
10, 375120, Note_on_c, 4, 62, 84
10, 375299, Note_on_c, 4, 50, 0
10, 375299, Note_on_c, 4, 62, 0
10, 375360, Note_on_c, 4, 62, 84
10, 375360, Note_on_c, 4, 50, 84
10, 375539, Note_on_c, 4, 62, 0
10, 375539, Note_on_c, 4, 50, 0
10, 375600, Note_on_c, 4, 62, 84
10, 375600, Note_on_c, 4, 50, 84
10, 375779, Note_on_c, 4, 62, 0
10, 375779, Note_on_c, 4, 50, 0
10, 375840, Note_on_c, 4, 50, 92
10, 375840, Note_on_c, 4, 62, 92
10, 377729, Note_on_c, 4, 50, 0
10, 377729, Note_on_c, 4, 62, 0
10, 377760, Note_on_c, 4, 62, 92
10, 377760, Note_on_c, 4, 50, 92
10, 378689, Note_on_c, 4, 62, 0
10, 378689, Note_on_c, 4, 50, 0
10, 378720, Note_on_c, 4, 57, 92
10, 378720, Note_on_c, 4, 64, 92
10, 379649, Note_on_c, 4, 57, 0
10, 379649, Note_on_c, 4, 64, 0
10, 379680, Note_on_c, 4, 50, 84
10, 379680, Note_on_c, 4, 62, 84
10, 379859, Note_on_c, 4, 50, 0
10, 379859, Note_on_c, 4, 62, 0
10, 379920, Note_on_c, 4, 50, 84
10, 379920, Note_on_c, 4, 62, 84
10, 380099, Note_on_c, 4, 50, 0
10, 380099, Note_on_c, 4, 62, 0
10, 380160, Note_on_c, 4, 50, 84
10, 380160, Note_on_c, 4, 62, 84
10, 380339, Note_on_c, 4, 50, 0
10, 380339, Note_on_c, 4, 62, 0
10, 380400, Note_on_c, 4, 50, 84
10, 380400, Note_on_c, 4, 62, 84
10, 380579, Note_on_c, 4, 50, 0
10, 380579, Note_on_c, 4, 62, 0
10, 380640, Note_on_c, 4, 50, 84
10, 380640, Note_on_c, 4, 62, 84
10, 380819, Note_on_c, 4, 50, 0
10, 380819, Note_on_c, 4, 62, 0
10, 380880, Note_on_c, 4, 62, 84
10, 380880, Note_on_c, 4, 50, 84
10, 381059, Note_on_c, 4, 62, 0
10, 381059, Note_on_c, 4, 50, 0
10, 381120, Note_on_c, 4, 50, 84
10, 381120, Note_on_c, 4, 62, 84
10, 381299, Note_on_c, 4, 50, 0
10, 381299, Note_on_c, 4, 62, 0
10, 381360, Note_on_c, 4, 50, 84
10, 381360, Note_on_c, 4, 62, 84
10, 381539, Note_on_c, 4, 50, 0
10, 381539, Note_on_c, 4, 62, 0
10, 381600, Note_on_c, 4, 50, 84
10, 381600, Note_on_c, 4, 62, 84
10, 381779, Note_on_c, 4, 50, 0
10, 381779, Note_on_c, 4, 62, 0
10, 381840, Note_on_c, 4, 50, 84
10, 381840, Note_on_c, 4, 62, 84
10, 382019, Note_on_c, 4, 50, 0
10, 382019, Note_on_c, 4, 62, 0
10, 382080, Note_on_c, 4, 62, 84
10, 382080, Note_on_c, 4, 50, 84
10, 382259, Note_on_c, 4, 62, 0
10, 382259, Note_on_c, 4, 50, 0
10, 382320, Note_on_c, 4, 62, 84
10, 382320, Note_on_c, 4, 50, 84
10, 382499, Note_on_c, 4, 62, 0
10, 382499, Note_on_c, 4, 50, 0
10, 382560, Note_on_c, 4, 62, 84
10, 382560, Note_on_c, 4, 50, 84
10, 382739, Note_on_c, 4, 62, 0
10, 382739, Note_on_c, 4, 50, 0
10, 382800, Note_on_c, 4, 62, 84
10, 382800, Note_on_c, 4, 50, 84
10, 382979, Note_on_c, 4, 62, 0
10, 382979, Note_on_c, 4, 50, 0
10, 383040, Note_on_c, 4, 50, 84
10, 383040, Note_on_c, 4, 62, 84
10, 383219, Note_on_c, 4, 50, 0
10, 383219, Note_on_c, 4, 62, 0
10, 383280, Note_on_c, 4, 62, 84
10, 383280, Note_on_c, 4, 50, 84
10, 383459, Note_on_c, 4, 62, 0
10, 383459, Note_on_c, 4, 50, 0
10, 383520, Note_on_c, 4, 66, 92
10, 385409, Note_on_c, 4, 66, 0
10, 385440, Note_on_c, 4, 67, 84
10, 385440, Note_on_c, 4, 64, 84
10, 386369, Note_on_c, 4, 67, 0
10, 386369, Note_on_c, 4, 64, 0
10, 386400, Note_on_c, 4, 62, 84
10, 386400, Note_on_c, 4, 66, 84
10, 386849, Note_on_c, 4, 62, 0
10, 386849, Note_on_c, 4, 66, 0
10, 386880, Note_on_c, 4, 57, 84
10, 386880, Note_on_c, 4, 64, 84
10, 387329, Note_on_c, 4, 57, 0
10, 387329, Note_on_c, 4, 64, 0
10, 387360, Note_on_c, 4, 62, 84
10, 387360, Note_on_c, 4, 54, 84
10, 387599, Note_on_c, 4, 62, 0
10, 387599, Note_on_c, 4, 54, 0
10, 388320, Note_on_c, 4, 54, 52
10, 388320, Note_on_c, 4, 62, 52
10, 389279, Note_on_c, 4, 54, 0
10, 389279, Note_on_c, 4, 62, 0
10, 389280, Note_on_c, 4, 64, 52
10, 389280, Note_on_c, 4, 57, 52
10, 389459, Note_on_c, 4, 64, 0
10, 389459, Note_on_c, 4, 57, 0
10, 390240, Note_on_c, 4, 57, 52
10, 390240, Note_on_c, 4, 64, 52
10, 391199, Note_on_c, 4, 57, 0
10, 391199, Note_on_c, 4, 64, 0
10, 391200, Note_on_c, 4, 62, 52
10, 391200, Note_on_c, 4, 54, 52
10, 391379, Note_on_c, 4, 62, 0
10, 391379, Note_on_c, 4, 54, 0
10, 392160, Note_on_c, 4, 54, 52
10, 392160, Note_on_c, 4, 62, 52
10, 393119, Note_on_c, 4, 54, 0
10, 393119, Note_on_c, 4, 62, 0
10, 393120, Note_on_c, 4, 57, 52
10, 393120, Note_on_c, 4, 64, 52
10, 393299, Note_on_c, 4, 57, 0
10, 393299, Note_on_c, 4, 64, 0
10, 394080, Note_on_c, 4, 57, 52
10, 394080, Note_on_c, 4, 64, 52
10, 395039, Note_on_c, 4, 57, 0
10, 395039, Note_on_c, 4, 64, 0
10, 395040, Note_on_c, 4, 62, 52
10, 395040, Note_on_c, 4, 54, 52
10, 395279, Note_on_c, 4, 62, 0
10, 395279, Note_on_c, 4, 54, 0
10, 396000, Note_on_c, 4, 57, 61
10, 396000, Note_on_c, 4, 64, 61
10, 396239, Note_on_c, 4, 57, 0
10, 396239, Note_on_c, 4, 64, 0
10, 396960, Note_on_c, 4, 62, 66
10, 396960, Note_on_c, 4, 54, 66
10, 397199, Note_on_c, 4, 62, 0
10, 397199, Note_on_c, 4, 54, 0
10, 397920, Note_on_c, 4, 64, 71
10, 397920, Note_on_c, 4, 57, 71
10, 398159, Note_on_c, 4, 64, 0
10, 398159, Note_on_c, 4, 57, 0
10, 398880, Note_on_c, 4, 62, 76
10, 398880, Note_on_c, 4, 54, 76
10, 399119, Note_on_c, 4, 62, 0
10, 399119, Note_on_c, 4, 54, 0
10, 399360, Note_on_c, 4, 66, 84
10, 399360, Note_on_c, 4, 54, 84
10, 400739, Note_on_c, 4, 66, 0
10, 400739, Note_on_c, 4, 54, 0
10, 400800, Note_on_c, 4, 66, 44
10, 400800, Note_on_c, 4, 54, 44
10, 402959, Note_on_c, 4, 66, 0
10, 402959, Note_on_c, 4, 54, 0
10, 408480, Note_on_c, 4, 50, 84
10, 408480, Note_on_c, 4, 62, 84
10, 408719, Note_on_c, 4, 50, 0
10, 408719, Note_on_c, 4, 62, 0
10, 410400, Note_on_c, 4, 62, 84
10, 410400, Note_on_c, 4, 50, 84
10, 410639, Note_on_c, 4, 62, 0
10, 410639, Note_on_c, 4, 50, 0
10, 412320, Note_on_c, 4, 50, 84
10, 412320, Note_on_c, 4, 62, 84
10, 412559, Note_on_c, 4, 50, 0
10, 412559, Note_on_c, 4, 62, 0
10, 413280, Note_on_c, 4, 62, 84
10, 413280, Note_on_c, 4, 50, 84
10, 413519, Note_on_c, 4, 62, 0
10, 413519, Note_on_c, 4, 50, 0
10, 414240, Note_on_c, 4, 62, 84
10, 414240, Note_on_c, 4, 50, 84
10, 414479, Note_on_c, 4, 62, 0
10, 414479, Note_on_c, 4, 50, 0
10, 414960, Note_on_c, 4, 57, 84
10, 414960, Note_on_c, 4, 45, 84
10, 415139, Note_on_c, 4, 57, 0
10, 415139, Note_on_c, 4, 45, 0
10, 415200, Note_on_c, 4, 62, 84
10, 415200, Note_on_c, 4, 50, 84
10, 415379, Note_on_c, 4, 62, 0
10, 415379, Note_on_c, 4, 50, 0
10, 415440, Note_on_c, 4, 45, 84
10, 415440, Note_on_c, 4, 57, 84
10, 415619, Note_on_c, 4, 45, 0
10, 415619, Note_on_c, 4, 57, 0
10, 415680, Note_on_c, 4, 62, 84
10, 415680, Note_on_c, 4, 50, 84
10, 415859, Note_on_c, 4, 62, 0
10, 415859, Note_on_c, 4, 50, 0
10, 415920, Note_on_c, 4, 57, 84
10, 415920, Note_on_c, 4, 45, 84
10, 416099, Note_on_c, 4, 57, 0
10, 416099, Note_on_c, 4, 45, 0
10, 416160, Note_on_c, 4, 62, 84
10, 416160, Note_on_c, 4, 50, 84
10, 416339, Note_on_c, 4, 62, 0
10, 416339, Note_on_c, 4, 50, 0
10, 416400, Note_on_c, 4, 64, 84
10, 416400, Note_on_c, 4, 57, 84
10, 416579, Note_on_c, 4, 64, 0
10, 416579, Note_on_c, 4, 57, 0
10, 416640, Note_on_c, 4, 66, 84
10, 416640, Note_on_c, 4, 62, 84
10, 416819, Note_on_c, 4, 66, 0
10, 416819, Note_on_c, 4, 62, 0
10, 416880, Note_on_c, 4, 57, 84
10, 416880, Note_on_c, 4, 64, 84
10, 417059, Note_on_c, 4, 57, 0
10, 417059, Note_on_c, 4, 64, 0
10, 417120, Note_on_c, 4, 66, 84
10, 417120, Note_on_c, 4, 62, 84
10, 417299, Note_on_c, 4, 66, 0
10, 417299, Note_on_c, 4, 62, 0
10, 417360, Note_on_c, 4, 57, 84
10, 417360, Note_on_c, 4, 64, 84
10, 417539, Note_on_c, 4, 57, 0
10, 417539, Note_on_c, 4, 64, 0
10, 417600, Note_on_c, 4, 66, 84
10, 417600, Note_on_c, 4, 62, 84
10, 417779, Note_on_c, 4, 66, 0
10, 417779, Note_on_c, 4, 62, 0
10, 417840, Note_on_c, 4, 64, 84
10, 417840, Note_on_c, 4, 57, 84
10, 418019, Note_on_c, 4, 64, 0
10, 418019, Note_on_c, 4, 57, 0
10, 418080, Note_on_c, 4, 54, 84
10, 418080, Note_on_c, 4, 62, 84
10, 418259, Note_on_c, 4, 54, 0
10, 418259, Note_on_c, 4, 62, 0
10, 419040, Note_on_c, 4, 62, 84
10, 419040, Note_on_c, 4, 50, 84
10, 419219, Note_on_c, 4, 62, 0
10, 419219, Note_on_c, 4, 50, 0
10, 420000, Note_on_c, 4, 50, 84
10, 420000, Note_on_c, 4, 62, 84
10, 420449, Note_on_c, 4, 50, 0
10, 420449, Note_on_c, 4, 62, 0
10, 420480, Note_on_c, 4, 66, 84
10, 420480, Note_on_c, 4, 54, 84
10, 420929, Note_on_c, 4, 66, 0
10, 420929, Note_on_c, 4, 54, 0
10, 420960, Note_on_c, 4, 69, 84
10, 420960, Note_on_c, 4, 57, 84
10, 421409, Note_on_c, 4, 69, 0
10, 421409, Note_on_c, 4, 57, 0
10, 421440, Note_on_c, 4, 54, 84
10, 421440, Note_on_c, 4, 66, 84
10, 421889, Note_on_c, 4, 54, 0
10, 421889, Note_on_c, 4, 66, 0
10, 421920, Note_on_c, 4, 62, 84
10, 421920, Note_on_c, 4, 50, 84
10, 422159, Note_on_c, 4, 62, 0
10, 422159, Note_on_c, 4, 50, 0
10, 422880, Note_on_c, 4, 62, 84
10, 422880, Note_on_c, 4, 66, 84
10, 423119, Note_on_c, 4, 62, 0
10, 423119, Note_on_c, 4, 66, 0
10, 423360, Note_on_c, 4, 66, 84
10, 423360, Note_on_c, 4, 62, 84
10, 423599, Note_on_c, 4, 66, 0
10, 423599, Note_on_c, 4, 62, 0
10, 423840, Note_on_c, 4, 66, 84
10, 423840, Note_on_c, 4, 62, 84
10, 424079, Note_on_c, 4, 66, 0
10, 424079, Note_on_c, 4, 62, 0
10, 424800, Note_on_c, 4, 54, 84
10, 424800, Note_on_c, 4, 62, 84
10, 425039, Note_on_c, 4, 54, 0
10, 425039, Note_on_c, 4, 62, 0
10, 425760, Note_on_c, 4, 62, 84
10, 425760, Note_on_c, 4, 50, 84
10, 425999, Note_on_c, 4, 62, 0
10, 425999, Note_on_c, 4, 50, 0
10, 425999, End_track
11, 0, Start_track
11, 0, Title_t, "Trumpet in D"
11, 0, MIDI_port, 0
11, 0, Program_c, 5, 56
11, 0, Control_c, 5, 7, 96
11, 0, Control_c, 5, 10, 60
11, 0, Control_c, 5, 11, 127
11, 5280, Note_on_c, 5, 62, 76
11, 5280, Note_on_c, 5, 74, 76
11, 5459, Note_on_c, 5, 62, 0
11, 5459, Note_on_c, 5, 74, 0
11, 5520, Note_on_c, 5, 57, 76
11, 5520, Note_on_c, 5, 69, 76
11, 5699, Note_on_c, 5, 57, 0
11, 5699, Note_on_c, 5, 69, 0
11, 7200, Note_on_c, 5, 69, 76
11, 7200, Note_on_c, 5, 57, 76
11, 7379, Note_on_c, 5, 69, 0
11, 7379, Note_on_c, 5, 57, 0
11, 7440, Note_on_c, 5, 57, 76
11, 7440, Note_on_c, 5, 69, 76
11, 7619, Note_on_c, 5, 57, 0
11, 7619, Note_on_c, 5, 69, 0
11, 11040, Note_on_c, 5, 74, 76
11, 11040, Note_on_c, 5, 62, 76
11, 12929, Note_on_c, 5, 74, 0
11, 12929, Note_on_c, 5, 62, 0
11, 12960, Note_on_c, 5, 62, 84
11, 12960, Note_on_c, 5, 74, 84
11, 14849, Note_on_c, 5, 62, 0
11, 14849, Note_on_c, 5, 74, 0
11, 14880, Note_on_c, 5, 62, 84
11, 14880, Note_on_c, 5, 74, 84
11, 16769, Note_on_c, 5, 62, 0
11, 16769, Note_on_c, 5, 74, 0
11, 16800, Note_on_c, 5, 62, 84
11, 16800, Note_on_c, 5, 74, 84
11, 17489, Note_on_c, 5, 62, 0
11, 17489, Note_on_c, 5, 74, 0
11, 17520, Note_on_c, 5, 74, 76
11, 17520, Note_on_c, 5, 62, 76
11, 17699, Note_on_c, 5, 74, 0
11, 17699, Note_on_c, 5, 62, 0
11, 17760, Note_on_c, 5, 62, 76
11, 17760, Note_on_c, 5, 74, 76
11, 17939, Note_on_c, 5, 62, 0
11, 17939, Note_on_c, 5, 74, 0
11, 18000, Note_on_c, 5, 62, 76
11, 18000, Note_on_c, 5, 74, 76
11, 18179, Note_on_c, 5, 62, 0
11, 18179, Note_on_c, 5, 74, 0
11, 18240, Note_on_c, 5, 62, 76
11, 18240, Note_on_c, 5, 74, 76
11, 18419, Note_on_c, 5, 62, 0
11, 18419, Note_on_c, 5, 74, 0
11, 18480, Note_on_c, 5, 74, 76
11, 18480, Note_on_c, 5, 62, 76
11, 18659, Note_on_c, 5, 74, 0
11, 18659, Note_on_c, 5, 62, 0
11, 18720, Note_on_c, 5, 69, 84
11, 18720, Note_on_c, 5, 57, 84
11, 18959, Note_on_c, 5, 69, 0
11, 18959, Note_on_c, 5, 57, 0
11, 19680, Note_on_c, 5, 69, 84
11, 19680, Note_on_c, 5, 57, 84
11, 19919, Note_on_c, 5, 69, 0
11, 19919, Note_on_c, 5, 57, 0
11, 20640, Note_on_c, 5, 57, 84
11, 20640, Note_on_c, 5, 69, 84
11, 20879, Note_on_c, 5, 57, 0
11, 20879, Note_on_c, 5, 69, 0
11, 21600, Note_on_c, 5, 69, 84
11, 21600, Note_on_c, 5, 57, 84
11, 21839, Note_on_c, 5, 69, 0
11, 21839, Note_on_c, 5, 57, 0
11, 22560, Note_on_c, 5, 69, 84
11, 22560, Note_on_c, 5, 57, 84
11, 22739, Note_on_c, 5, 69, 0
11, 22739, Note_on_c, 5, 57, 0
11, 22800, Note_on_c, 5, 57, 84
11, 22800, Note_on_c, 5, 69, 84
11, 22979, Note_on_c, 5, 57, 0
11, 22979, Note_on_c, 5, 69, 0
11, 23040, Note_on_c, 5, 57, 84
11, 23040, Note_on_c, 5, 69, 84
11, 23219, Note_on_c, 5, 57, 0
11, 23219, Note_on_c, 5, 69, 0
11, 23280, Note_on_c, 5, 57, 84
11, 23280, Note_on_c, 5, 69, 84
11, 23459, Note_on_c, 5, 57, 0
11, 23459, Note_on_c, 5, 69, 0
11, 23520, Note_on_c, 5, 57, 84
11, 23520, Note_on_c, 5, 69, 84
11, 23759, Note_on_c, 5, 57, 0
11, 23759, Note_on_c, 5, 69, 0
11, 36000, Note_on_c, 5, 69, 44
11, 36000, Note_on_c, 5, 57, 44
11, 39119, Note_on_c, 5, 69, 0
11, 39119, Note_on_c, 5, 57, 0
11, 42720, Note_on_c, 5, 76, 84
11, 43679, Note_on_c, 5, 76, 0
11, 44640, Note_on_c, 5, 76, 84
11, 45599, Note_on_c, 5, 76, 0
11, 46080, Note_on_c, 5, 76, 84
11, 46559, Note_on_c, 5, 76, 0
11, 47040, Note_on_c, 5, 76, 84
11, 47489, Note_on_c, 5, 76, 0
11, 47520, Note_on_c, 5, 76, 76
11, 47759, Note_on_c, 5, 76, 0
11, 80160, Note_on_c, 5, 69, 76
11, 80160, Note_on_c, 5, 57, 76
11, 82049, Note_on_c, 5, 69, 0
11, 82049, Note_on_c, 5, 57, 0
11, 82080, Note_on_c, 5, 57, 84
11, 82080, Note_on_c, 5, 69, 84
11, 83969, Note_on_c, 5, 57, 0
11, 83969, Note_on_c, 5, 69, 0
11, 84000, Note_on_c, 5, 76, 84
11, 84929, Note_on_c, 5, 76, 0
11, 84960, Note_on_c, 5, 76, 84
11, 85889, Note_on_c, 5, 76, 0
11, 85920, Note_on_c, 5, 69, 76
11, 87809, Note_on_c, 5, 69, 0
11, 87840, Note_on_c, 5, 69, 76
11, 89729, Note_on_c, 5, 69, 0
11, 89760, Note_on_c, 5, 69, 84
11, 93839, Note_on_c, 5, 69, 0
11, 108000, Note_on_c, 5, 74, 76
11, 108000, Note_on_c, 5, 62, 76
11, 108179, Note_on_c, 5, 74, 0
11, 108179, Note_on_c, 5, 62, 0
11, 108240, Note_on_c, 5, 69, 76
11, 108240, Note_on_c, 5, 57, 76
11, 108419, Note_on_c, 5, 69, 0
11, 108419, Note_on_c, 5, 57, 0
11, 109920, Note_on_c, 5, 57, 76
11, 109920, Note_on_c, 5, 69, 76
11, 110099, Note_on_c, 5, 57, 0
11, 110099, Note_on_c, 5, 69, 0
11, 110160, Note_on_c, 5, 69, 76
11, 110160, Note_on_c, 5, 57, 76
11, 110339, Note_on_c, 5, 69, 0
11, 110339, Note_on_c, 5, 57, 0
11, 113760, Note_on_c, 5, 74, 76
11, 113760, Note_on_c, 5, 62, 76
11, 113999, Note_on_c, 5, 74, 0
11, 113999, Note_on_c, 5, 62, 0
11, 115200, Note_on_c, 5, 62, 84
11, 115200, Note_on_c, 5, 74, 84
11, 115919, Note_on_c, 5, 62, 0
11, 115919, Note_on_c, 5, 74, 0
11, 117120, Note_on_c, 5, 62, 84
11, 117120, Note_on_c, 5, 74, 84
11, 117839, Note_on_c, 5, 62, 0
11, 117839, Note_on_c, 5, 74, 0
11, 119040, Note_on_c, 5, 62, 76
11, 119040, Note_on_c, 5, 74, 76
11, 119219, Note_on_c, 5, 62, 0
11, 119219, Note_on_c, 5, 74, 0
11, 119280, Note_on_c, 5, 74, 76
11, 119280, Note_on_c, 5, 62, 76
11, 119459, Note_on_c, 5, 74, 0
11, 119459, Note_on_c, 5, 62, 0
11, 120960, Note_on_c, 5, 62, 76
11, 120960, Note_on_c, 5, 74, 76
11, 121139, Note_on_c, 5, 62, 0
11, 121139, Note_on_c, 5, 74, 0
11, 121200, Note_on_c, 5, 74, 76
11, 121200, Note_on_c, 5, 62, 76
11, 121379, Note_on_c, 5, 74, 0
11, 121379, Note_on_c, 5, 62, 0
11, 121920, Note_on_c, 5, 62, 76
11, 121920, Note_on_c, 5, 74, 76
11, 122099, Note_on_c, 5, 62, 0
11, 122099, Note_on_c, 5, 74, 0
11, 122160, Note_on_c, 5, 74, 76
11, 122160, Note_on_c, 5, 62, 76
11, 122339, Note_on_c, 5, 74, 0
11, 122339, Note_on_c, 5, 62, 0
11, 122880, Note_on_c, 5, 74, 76
11, 122880, Note_on_c, 5, 62, 76
11, 123059, Note_on_c, 5, 74, 0
11, 123059, Note_on_c, 5, 62, 0
11, 123120, Note_on_c, 5, 74, 76
11, 123120, Note_on_c, 5, 62, 76
11, 123299, Note_on_c, 5, 74, 0
11, 123299, Note_on_c, 5, 62, 0
11, 123840, Note_on_c, 5, 74, 76
11, 123840, Note_on_c, 5, 62, 76
11, 124019, Note_on_c, 5, 74, 0
11, 124019, Note_on_c, 5, 62, 0
11, 124080, Note_on_c, 5, 62, 76
11, 124080, Note_on_c, 5, 74, 76
11, 124259, Note_on_c, 5, 62, 0
11, 124259, Note_on_c, 5, 74, 0
11, 124800, Note_on_c, 5, 62, 76
11, 124800, Note_on_c, 5, 74, 76
11, 124979, Note_on_c, 5, 62, 0
11, 124979, Note_on_c, 5, 74, 0
11, 125040, Note_on_c, 5, 74, 76
11, 125040, Note_on_c, 5, 62, 76
11, 125219, Note_on_c, 5, 74, 0
11, 125219, Note_on_c, 5, 62, 0
11, 125280, Note_on_c, 5, 74, 76
11, 125280, Note_on_c, 5, 62, 76
11, 125519, Note_on_c, 5, 74, 0
11, 125519, Note_on_c, 5, 62, 0
11, 132960, Note_on_c, 5, 74, 76
11, 132960, Note_on_c, 5, 62, 76
11, 133919, Note_on_c, 5, 74, 0
11, 133919, Note_on_c, 5, 62, 0
11, 134880, Note_on_c, 5, 74, 76
11, 134880, Note_on_c, 5, 62, 76
11, 135839, Note_on_c, 5, 74, 0
11, 135839, Note_on_c, 5, 62, 0
11, 138720, Note_on_c, 5, 76, 76
11, 139679, Note_on_c, 5, 76, 0
11, 140640, Note_on_c, 5, 76, 76
11, 141599, Note_on_c, 5, 76, 0
11, 163680, Note_on_c, 5, 66, 84
11, 164609, Note_on_c, 5, 66, 0
11, 164640, Note_on_c, 5, 66, 92
11, 165569, Note_on_c, 5, 66, 0
11, 165600, Note_on_c, 5, 66, 92
11, 167489, Note_on_c, 5, 66, 0
11, 167520, Note_on_c, 5, 66, 92
11, 169409, Note_on_c, 5, 66, 0
11, 169440, Note_on_c, 5, 66, 84
11, 173519, Note_on_c, 5, 66, 0
11, 177120, Note_on_c, 5, 57, 76
11, 177120, Note_on_c, 5, 69, 76
11, 177359, Note_on_c, 5, 57, 0
11, 177359, Note_on_c, 5, 69, 0
11, 181920, Note_on_c, 5, 62, 76
11, 181920, Note_on_c, 5, 74, 76
11, 182099, Note_on_c, 5, 62, 0
11, 182099, Note_on_c, 5, 74, 0
11, 182160, Note_on_c, 5, 57, 76
11, 182160, Note_on_c, 5, 69, 76
11, 182339, Note_on_c, 5, 57, 0
11, 182339, Note_on_c, 5, 69, 0
11, 183840, Note_on_c, 5, 57, 76
11, 183840, Note_on_c, 5, 69, 76
11, 184019, Note_on_c, 5, 57, 0
11, 184019, Note_on_c, 5, 69, 0
11, 184080, Note_on_c, 5, 57, 76
11, 184080, Note_on_c, 5, 69, 76
11, 184259, Note_on_c, 5, 57, 0
11, 184259, Note_on_c, 5, 69, 0
11, 187680, Note_on_c, 5, 74, 76
11, 187680, Note_on_c, 5, 62, 76
11, 189569, Note_on_c, 5, 74, 0
11, 189569, Note_on_c, 5, 62, 0
11, 189600, Note_on_c, 5, 62, 84
11, 189600, Note_on_c, 5, 74, 84
11, 191489, Note_on_c, 5, 62, 0
11, 191489, Note_on_c, 5, 74, 0
11, 191520, Note_on_c, 5, 62, 84
11, 191520, Note_on_c, 5, 74, 84
11, 193409, Note_on_c, 5, 62, 0
11, 193409, Note_on_c, 5, 74, 0
11, 193440, Note_on_c, 5, 62, 84
11, 193440, Note_on_c, 5, 74, 84
11, 194129, Note_on_c, 5, 62, 0
11, 194129, Note_on_c, 5, 74, 0
11, 194160, Note_on_c, 5, 74, 76
11, 194160, Note_on_c, 5, 62, 76
11, 194339, Note_on_c, 5, 74, 0
11, 194339, Note_on_c, 5, 62, 0
11, 194400, Note_on_c, 5, 74, 76
11, 194400, Note_on_c, 5, 62, 76
11, 194579, Note_on_c, 5, 74, 0
11, 194579, Note_on_c, 5, 62, 0
11, 194640, Note_on_c, 5, 74, 76
11, 194640, Note_on_c, 5, 62, 76
11, 194819, Note_on_c, 5, 74, 0
11, 194819, Note_on_c, 5, 62, 0
11, 194880, Note_on_c, 5, 74, 76
11, 194880, Note_on_c, 5, 62, 76
11, 195059, Note_on_c, 5, 74, 0
11, 195059, Note_on_c, 5, 62, 0
11, 195120, Note_on_c, 5, 62, 76
11, 195120, Note_on_c, 5, 74, 76
11, 195299, Note_on_c, 5, 62, 0
11, 195299, Note_on_c, 5, 74, 0
11, 195360, Note_on_c, 5, 69, 84
11, 195360, Note_on_c, 5, 57, 84
11, 195599, Note_on_c, 5, 69, 0
11, 195599, Note_on_c, 5, 57, 0
11, 196320, Note_on_c, 5, 69, 84
11, 196320, Note_on_c, 5, 57, 84
11, 196559, Note_on_c, 5, 69, 0
11, 196559, Note_on_c, 5, 57, 0
11, 197280, Note_on_c, 5, 69, 84
11, 197280, Note_on_c, 5, 57, 84
11, 197519, Note_on_c, 5, 69, 0
11, 197519, Note_on_c, 5, 57, 0
11, 198240, Note_on_c, 5, 69, 84
11, 198240, Note_on_c, 5, 57, 84
11, 198479, Note_on_c, 5, 69, 0
11, 198479, Note_on_c, 5, 57, 0
11, 199200, Note_on_c, 5, 57, 84
11, 199200, Note_on_c, 5, 69, 84
11, 199379, Note_on_c, 5, 57, 0
11, 199379, Note_on_c, 5, 69, 0
11, 199440, Note_on_c, 5, 57, 84
11, 199440, Note_on_c, 5, 69, 84
11, 199619, Note_on_c, 5, 57, 0
11, 199619, Note_on_c, 5, 69, 0
11, 199680, Note_on_c, 5, 57, 84
11, 199680, Note_on_c, 5, 69, 84
11, 199859, Note_on_c, 5, 57, 0
11, 199859, Note_on_c, 5, 69, 0
11, 199920, Note_on_c, 5, 69, 84
11, 199920, Note_on_c, 5, 57, 84
11, 200099, Note_on_c, 5, 69, 0
11, 200099, Note_on_c, 5, 57, 0
11, 200160, Note_on_c, 5, 57, 84
11, 200160, Note_on_c, 5, 69, 84
11, 200399, Note_on_c, 5, 57, 0
11, 200399, Note_on_c, 5, 69, 0
11, 219360, Note_on_c, 5, 69, 84
11, 219360, Note_on_c, 5, 57, 84
11, 220319, Note_on_c, 5, 69, 0
11, 220319, Note_on_c, 5, 57, 0
11, 221280, Note_on_c, 5, 57, 84
11, 221280, Note_on_c, 5, 69, 84
11, 221519, Note_on_c, 5, 57, 0
11, 221519, Note_on_c, 5, 69, 0
11, 222720, Note_on_c, 5, 69, 84
11, 222720, Note_on_c, 5, 57, 84
11, 223199, Note_on_c, 5, 69, 0
11, 223199, Note_on_c, 5, 57, 0
11, 223680, Note_on_c, 5, 69, 84
11, 223680, Note_on_c, 5, 57, 84
11, 224129, Note_on_c, 5, 69, 0
11, 224129, Note_on_c, 5, 57, 0
11, 224160, Note_on_c, 5, 57, 76
11, 224160, Note_on_c, 5, 69, 76
11, 224399, Note_on_c, 5, 57, 0
11, 224399, Note_on_c, 5, 69, 0
11, 241440, Note_on_c, 5, 69, 44
11, 241440, Note_on_c, 5, 57, 44
11, 245519, Note_on_c, 5, 69, 0
11, 245519, Note_on_c, 5, 57, 0
11, 256800, Note_on_c, 5, 62, 76
11, 256800, Note_on_c, 5, 74, 76
11, 258689, Note_on_c, 5, 62, 0
11, 258689, Note_on_c, 5, 74, 0
11, 258720, Note_on_c, 5, 74, 76
11, 258720, Note_on_c, 5, 62, 76
11, 260609, Note_on_c, 5, 74, 0
11, 260609, Note_on_c, 5, 62, 0
11, 260640, Note_on_c, 5, 62, 84
11, 260640, Note_on_c, 5, 74, 84
11, 261569, Note_on_c, 5, 62, 0
11, 261569, Note_on_c, 5, 74, 0
11, 261600, Note_on_c, 5, 69, 84
11, 261600, Note_on_c, 5, 57, 84
11, 262529, Note_on_c, 5, 69, 0
11, 262529, Note_on_c, 5, 57, 0
11, 262560, Note_on_c, 5, 62, 76
11, 262560, Note_on_c, 5, 74, 76
11, 264449, Note_on_c, 5, 62, 0
11, 264449, Note_on_c, 5, 74, 0
11, 264480, Note_on_c, 5, 62, 84
11, 264480, Note_on_c, 5, 74, 84
11, 266369, Note_on_c, 5, 62, 0
11, 266369, Note_on_c, 5, 74, 0
11, 266400, Note_on_c, 5, 62, 84
11, 266400, Note_on_c, 5, 74, 84
11, 270479, Note_on_c, 5, 62, 0
11, 270479, Note_on_c, 5, 74, 0
11, 286560, Note_on_c, 5, 74, 76
11, 286560, Note_on_c, 5, 62, 76
11, 286739, Note_on_c, 5, 74, 0
11, 286739, Note_on_c, 5, 62, 0
11, 286800, Note_on_c, 5, 69, 76
11, 286800, Note_on_c, 5, 57, 76
11, 286979, Note_on_c, 5, 69, 0
11, 286979, Note_on_c, 5, 57, 0
11, 297120, Note_on_c, 5, 74, 76
11, 297120, Note_on_c, 5, 62, 76
11, 299009, Note_on_c, 5, 74, 0
11, 299009, Note_on_c, 5, 62, 0
11, 299040, Note_on_c, 5, 57, 76
11, 299040, Note_on_c, 5, 69, 76
11, 299279, Note_on_c, 5, 57, 0
11, 299279, Note_on_c, 5, 69, 0
11, 300960, Note_on_c, 5, 57, 76
11, 300960, Note_on_c, 5, 69, 76
11, 301199, Note_on_c, 5, 57, 0
11, 301199, Note_on_c, 5, 69, 0
11, 302880, Note_on_c, 5, 69, 76
11, 302880, Note_on_c, 5, 57, 76
11, 303119, Note_on_c, 5, 69, 0
11, 303119, Note_on_c, 5, 57, 0
11, 303840, Note_on_c, 5, 57, 76
11, 303840, Note_on_c, 5, 69, 76
11, 304079, Note_on_c, 5, 57, 0
11, 304079, Note_on_c, 5, 69, 0
11, 304800, Note_on_c, 5, 57, 76
11, 304800, Note_on_c, 5, 69, 76
11, 305039, Note_on_c, 5, 57, 0
11, 305039, Note_on_c, 5, 69, 0
11, 305760, Note_on_c, 5, 57, 76
11, 305760, Note_on_c, 5, 69, 76
11, 305999, Note_on_c, 5, 57, 0
11, 305999, Note_on_c, 5, 69, 0
11, 308640, Note_on_c, 5, 62, 76
11, 308640, Note_on_c, 5, 74, 76
11, 308879, Note_on_c, 5, 62, 0
11, 308879, Note_on_c, 5, 74, 0
11, 310560, Note_on_c, 5, 74, 76
11, 310560, Note_on_c, 5, 62, 76
11, 310799, Note_on_c, 5, 74, 0
11, 310799, Note_on_c, 5, 62, 0
11, 312480, Note_on_c, 5, 62, 76
11, 312480, Note_on_c, 5, 74, 76
11, 312719, Note_on_c, 5, 62, 0
11, 312719, Note_on_c, 5, 74, 0
11, 313440, Note_on_c, 5, 74, 76
11, 313440, Note_on_c, 5, 62, 76
11, 313679, Note_on_c, 5, 74, 0
11, 313679, Note_on_c, 5, 62, 0
11, 314400, Note_on_c, 5, 62, 76
11, 314400, Note_on_c, 5, 74, 76
11, 314639, Note_on_c, 5, 62, 0
11, 314639, Note_on_c, 5, 74, 0
11, 315360, Note_on_c, 5, 62, 76
11, 315360, Note_on_c, 5, 74, 76
11, 315599, Note_on_c, 5, 62, 0
11, 315599, Note_on_c, 5, 74, 0
11, 316320, Note_on_c, 5, 62, 76
11, 316320, Note_on_c, 5, 74, 76
11, 316559, Note_on_c, 5, 62, 0
11, 316559, Note_on_c, 5, 74, 0
11, 320160, Note_on_c, 5, 69, 84
11, 320160, Note_on_c, 5, 76, 84
11, 323999, Note_on_c, 5, 69, 0
11, 323999, Note_on_c, 5, 76, 0
11, 358560, Note_on_c, 5, 74, 84
11, 358560, Note_on_c, 5, 62, 84
11, 360449, Note_on_c, 5, 74, 0
11, 360449, Note_on_c, 5, 62, 0
11, 360480, Note_on_c, 5, 74, 84
11, 360480, Note_on_c, 5, 62, 84
11, 360719, Note_on_c, 5, 74, 0
11, 360719, Note_on_c, 5, 62, 0
11, 362400, Note_on_c, 5, 74, 92
11, 362400, Note_on_c, 5, 62, 92
11, 362579, Note_on_c, 5, 74, 0
11, 362579, Note_on_c, 5, 62, 0
11, 362640, Note_on_c, 5, 62, 84
11, 362640, Note_on_c, 5, 74, 84
11, 362819, Note_on_c, 5, 62, 0
11, 362819, Note_on_c, 5, 74, 0
11, 362880, Note_on_c, 5, 62, 84
11, 362880, Note_on_c, 5, 74, 84
11, 363059, Note_on_c, 5, 62, 0
11, 363059, Note_on_c, 5, 74, 0
11, 363120, Note_on_c, 5, 74, 84
11, 363120, Note_on_c, 5, 62, 84
11, 363299, Note_on_c, 5, 74, 0
11, 363299, Note_on_c, 5, 62, 0
11, 363360, Note_on_c, 5, 62, 84
11, 363360, Note_on_c, 5, 74, 84
11, 363539, Note_on_c, 5, 62, 0
11, 363539, Note_on_c, 5, 74, 0
11, 363600, Note_on_c, 5, 74, 84
11, 363600, Note_on_c, 5, 62, 84
11, 363779, Note_on_c, 5, 74, 0
11, 363779, Note_on_c, 5, 62, 0
11, 363840, Note_on_c, 5, 62, 84
11, 363840, Note_on_c, 5, 74, 84
11, 364019, Note_on_c, 5, 62, 0
11, 364019, Note_on_c, 5, 74, 0
11, 364080, Note_on_c, 5, 62, 84
11, 364080, Note_on_c, 5, 74, 84
11, 364259, Note_on_c, 5, 62, 0
11, 364259, Note_on_c, 5, 74, 0
11, 364320, Note_on_c, 5, 69, 84
11, 364320, Note_on_c, 5, 57, 84
11, 364559, Note_on_c, 5, 69, 0
11, 364559, Note_on_c, 5, 57, 0
11, 366240, Note_on_c, 5, 57, 92
11, 366240, Note_on_c, 5, 69, 92
11, 366419, Note_on_c, 5, 57, 0
11, 366419, Note_on_c, 5, 69, 0
11, 366480, Note_on_c, 5, 69, 84
11, 366480, Note_on_c, 5, 57, 84
11, 366659, Note_on_c, 5, 69, 0
11, 366659, Note_on_c, 5, 57, 0
11, 366720, Note_on_c, 5, 69, 84
11, 366720, Note_on_c, 5, 57, 84
11, 366899, Note_on_c, 5, 69, 0
11, 366899, Note_on_c, 5, 57, 0
11, 366960, Note_on_c, 5, 57, 84
11, 366960, Note_on_c, 5, 69, 84
11, 367139, Note_on_c, 5, 57, 0
11, 367139, Note_on_c, 5, 69, 0
11, 367200, Note_on_c, 5, 57, 84
11, 367200, Note_on_c, 5, 69, 84
11, 367379, Note_on_c, 5, 57, 0
11, 367379, Note_on_c, 5, 69, 0
11, 367440, Note_on_c, 5, 57, 84
11, 367440, Note_on_c, 5, 69, 84
11, 367619, Note_on_c, 5, 57, 0
11, 367619, Note_on_c, 5, 69, 0
11, 367680, Note_on_c, 5, 57, 84
11, 367680, Note_on_c, 5, 69, 84
11, 367859, Note_on_c, 5, 57, 0
11, 367859, Note_on_c, 5, 69, 0
11, 367920, Note_on_c, 5, 57, 84
11, 367920, Note_on_c, 5, 69, 84
11, 368099, Note_on_c, 5, 57, 0
11, 368099, Note_on_c, 5, 69, 0
11, 368160, Note_on_c, 5, 74, 84
11, 368160, Note_on_c, 5, 62, 84
11, 368399, Note_on_c, 5, 74, 0
11, 368399, Note_on_c, 5, 62, 0
11, 368640, Note_on_c, 5, 74, 76
11, 368640, Note_on_c, 5, 62, 76
11, 368879, Note_on_c, 5, 74, 0
11, 368879, Note_on_c, 5, 62, 0
11, 369600, Note_on_c, 5, 74, 78
11, 369600, Note_on_c, 5, 62, 78
11, 369839, Note_on_c, 5, 74, 0
11, 369839, Note_on_c, 5, 62, 0
11, 370560, Note_on_c, 5, 62, 80
11, 370560, Note_on_c, 5, 74, 80
11, 370799, Note_on_c, 5, 62, 0
11, 370799, Note_on_c, 5, 74, 0
11, 371520, Note_on_c, 5, 62, 82
11, 371520, Note_on_c, 5, 74, 82
11, 371759, Note_on_c, 5, 62, 0
11, 371759, Note_on_c, 5, 74, 0
11, 372000, Note_on_c, 5, 62, 84
11, 372000, Note_on_c, 5, 74, 84
11, 372179, Note_on_c, 5, 62, 0
11, 372179, Note_on_c, 5, 74, 0
11, 372240, Note_on_c, 5, 74, 84
11, 372240, Note_on_c, 5, 62, 84
11, 372419, Note_on_c, 5, 74, 0
11, 372419, Note_on_c, 5, 62, 0
11, 372480, Note_on_c, 5, 62, 84
11, 372480, Note_on_c, 5, 74, 84
11, 372659, Note_on_c, 5, 62, 0
11, 372659, Note_on_c, 5, 74, 0
11, 372720, Note_on_c, 5, 62, 84
11, 372720, Note_on_c, 5, 74, 84
11, 372899, Note_on_c, 5, 62, 0
11, 372899, Note_on_c, 5, 74, 0
11, 372960, Note_on_c, 5, 62, 84
11, 372960, Note_on_c, 5, 74, 84
11, 373139, Note_on_c, 5, 62, 0
11, 373139, Note_on_c, 5, 74, 0
11, 373200, Note_on_c, 5, 74, 84
11, 373200, Note_on_c, 5, 62, 84
11, 373379, Note_on_c, 5, 74, 0
11, 373379, Note_on_c, 5, 62, 0
11, 373440, Note_on_c, 5, 62, 84
11, 373440, Note_on_c, 5, 74, 84
11, 373619, Note_on_c, 5, 62, 0
11, 373619, Note_on_c, 5, 74, 0
11, 373680, Note_on_c, 5, 74, 84
11, 373680, Note_on_c, 5, 62, 84
11, 373859, Note_on_c, 5, 74, 0
11, 373859, Note_on_c, 5, 62, 0
11, 373920, Note_on_c, 5, 62, 84
11, 373920, Note_on_c, 5, 74, 84
11, 374099, Note_on_c, 5, 62, 0
11, 374099, Note_on_c, 5, 74, 0
11, 374160, Note_on_c, 5, 74, 84
11, 374160, Note_on_c, 5, 62, 84
11, 374339, Note_on_c, 5, 74, 0
11, 374339, Note_on_c, 5, 62, 0
11, 374400, Note_on_c, 5, 74, 84
11, 374400, Note_on_c, 5, 62, 84
11, 374579, Note_on_c, 5, 74, 0
11, 374579, Note_on_c, 5, 62, 0
11, 374640, Note_on_c, 5, 74, 84
11, 374640, Note_on_c, 5, 62, 84
11, 374819, Note_on_c, 5, 74, 0
11, 374819, Note_on_c, 5, 62, 0
11, 374880, Note_on_c, 5, 62, 84
11, 374880, Note_on_c, 5, 74, 84
11, 375059, Note_on_c, 5, 62, 0
11, 375059, Note_on_c, 5, 74, 0
11, 375120, Note_on_c, 5, 62, 84
11, 375120, Note_on_c, 5, 74, 84
11, 375299, Note_on_c, 5, 62, 0
11, 375299, Note_on_c, 5, 74, 0
11, 375360, Note_on_c, 5, 62, 84
11, 375360, Note_on_c, 5, 74, 84
11, 375539, Note_on_c, 5, 62, 0
11, 375539, Note_on_c, 5, 74, 0
11, 375600, Note_on_c, 5, 74, 84
11, 375600, Note_on_c, 5, 62, 84
11, 375779, Note_on_c, 5, 74, 0
11, 375779, Note_on_c, 5, 62, 0
11, 375840, Note_on_c, 5, 62, 92
11, 375840, Note_on_c, 5, 74, 92
11, 377729, Note_on_c, 5, 62, 0
11, 377729, Note_on_c, 5, 74, 0
11, 377760, Note_on_c, 5, 62, 92
11, 377760, Note_on_c, 5, 74, 92
11, 378689, Note_on_c, 5, 62, 0
11, 378689, Note_on_c, 5, 74, 0
11, 378720, Note_on_c, 5, 69, 92
11, 378720, Note_on_c, 5, 57, 92
11, 379649, Note_on_c, 5, 69, 0
11, 379649, Note_on_c, 5, 57, 0
11, 379680, Note_on_c, 5, 62, 84
11, 379680, Note_on_c, 5, 74, 84
11, 379859, Note_on_c, 5, 62, 0
11, 379859, Note_on_c, 5, 74, 0
11, 379920, Note_on_c, 5, 62, 84
11, 379920, Note_on_c, 5, 74, 84
11, 380099, Note_on_c, 5, 62, 0
11, 380099, Note_on_c, 5, 74, 0
11, 380160, Note_on_c, 5, 74, 84
11, 380160, Note_on_c, 5, 62, 84
11, 380339, Note_on_c, 5, 74, 0
11, 380339, Note_on_c, 5, 62, 0
11, 380400, Note_on_c, 5, 62, 84
11, 380400, Note_on_c, 5, 74, 84
11, 380579, Note_on_c, 5, 62, 0
11, 380579, Note_on_c, 5, 74, 0
11, 380640, Note_on_c, 5, 62, 84
11, 380640, Note_on_c, 5, 74, 84
11, 380819, Note_on_c, 5, 62, 0
11, 380819, Note_on_c, 5, 74, 0
11, 380880, Note_on_c, 5, 74, 84
11, 380880, Note_on_c, 5, 62, 84
11, 381059, Note_on_c, 5, 74, 0
11, 381059, Note_on_c, 5, 62, 0
11, 381120, Note_on_c, 5, 74, 84
11, 381120, Note_on_c, 5, 62, 84
11, 381299, Note_on_c, 5, 74, 0
11, 381299, Note_on_c, 5, 62, 0
11, 381360, Note_on_c, 5, 62, 84
11, 381360, Note_on_c, 5, 74, 84
11, 381539, Note_on_c, 5, 62, 0
11, 381539, Note_on_c, 5, 74, 0
11, 381600, Note_on_c, 5, 74, 84
11, 381600, Note_on_c, 5, 62, 84
11, 381779, Note_on_c, 5, 74, 0
11, 381779, Note_on_c, 5, 62, 0
11, 381840, Note_on_c, 5, 74, 84
11, 381840, Note_on_c, 5, 62, 84
11, 382019, Note_on_c, 5, 74, 0
11, 382019, Note_on_c, 5, 62, 0
11, 382080, Note_on_c, 5, 74, 84
11, 382080, Note_on_c, 5, 62, 84
11, 382259, Note_on_c, 5, 74, 0
11, 382259, Note_on_c, 5, 62, 0
11, 382320, Note_on_c, 5, 74, 84
11, 382320, Note_on_c, 5, 62, 84
11, 382499, Note_on_c, 5, 74, 0
11, 382499, Note_on_c, 5, 62, 0
11, 382560, Note_on_c, 5, 62, 84
11, 382560, Note_on_c, 5, 74, 84
11, 382739, Note_on_c, 5, 62, 0
11, 382739, Note_on_c, 5, 74, 0
11, 382800, Note_on_c, 5, 74, 84
11, 382800, Note_on_c, 5, 62, 84
11, 382979, Note_on_c, 5, 74, 0
11, 382979, Note_on_c, 5, 62, 0
11, 383040, Note_on_c, 5, 74, 84
11, 383040, Note_on_c, 5, 62, 84
11, 383219, Note_on_c, 5, 74, 0
11, 383219, Note_on_c, 5, 62, 0
11, 383280, Note_on_c, 5, 74, 84
11, 383280, Note_on_c, 5, 62, 84
11, 383459, Note_on_c, 5, 74, 0
11, 383459, Note_on_c, 5, 62, 0
11, 385440, Note_on_c, 5, 76, 84
11, 385440, Note_on_c, 5, 79, 84
11, 386369, Note_on_c, 5, 76, 0
11, 386369, Note_on_c, 5, 79, 0
11, 386400, Note_on_c, 5, 74, 84
11, 386400, Note_on_c, 5, 78, 84
11, 386849, Note_on_c, 5, 74, 0
11, 386849, Note_on_c, 5, 78, 0
11, 386880, Note_on_c, 5, 69, 84
11, 386880, Note_on_c, 5, 76, 84
11, 387329, Note_on_c, 5, 69, 0
11, 387329, Note_on_c, 5, 76, 0
11, 387360, Note_on_c, 5, 74, 84
11, 387360, Note_on_c, 5, 66, 84
11, 387599, Note_on_c, 5, 74, 0
11, 387599, Note_on_c, 5, 66, 0
11, 399360, Note_on_c, 5, 66, 84
11, 400739, Note_on_c, 5, 66, 0
11, 408480, Note_on_c, 5, 74, 84
11, 408480, Note_on_c, 5, 62, 84
11, 408719, Note_on_c, 5, 74, 0
11, 408719, Note_on_c, 5, 62, 0
11, 410400, Note_on_c, 5, 74, 84
11, 410400, Note_on_c, 5, 62, 84
11, 410639, Note_on_c, 5, 74, 0
11, 410639, Note_on_c, 5, 62, 0
11, 412320, Note_on_c, 5, 74, 84
11, 412320, Note_on_c, 5, 62, 84
11, 412559, Note_on_c, 5, 74, 0
11, 412559, Note_on_c, 5, 62, 0
11, 413280, Note_on_c, 5, 74, 84
11, 413280, Note_on_c, 5, 62, 84
11, 413519, Note_on_c, 5, 74, 0
11, 413519, Note_on_c, 5, 62, 0
11, 414240, Note_on_c, 5, 74, 84
11, 414240, Note_on_c, 5, 62, 84
11, 414479, Note_on_c, 5, 74, 0
11, 414479, Note_on_c, 5, 62, 0
11, 414960, Note_on_c, 5, 69, 84
11, 414960, Note_on_c, 5, 57, 84
11, 415139, Note_on_c, 5, 69, 0
11, 415139, Note_on_c, 5, 57, 0
11, 415200, Note_on_c, 5, 74, 84
11, 415200, Note_on_c, 5, 62, 84
11, 415379, Note_on_c, 5, 74, 0
11, 415379, Note_on_c, 5, 62, 0
11, 415440, Note_on_c, 5, 69, 84
11, 415440, Note_on_c, 5, 57, 84
11, 415619, Note_on_c, 5, 69, 0
11, 415619, Note_on_c, 5, 57, 0
11, 415680, Note_on_c, 5, 74, 84
11, 415680, Note_on_c, 5, 62, 84
11, 415859, Note_on_c, 5, 74, 0
11, 415859, Note_on_c, 5, 62, 0
11, 415920, Note_on_c, 5, 69, 84
11, 415920, Note_on_c, 5, 57, 84
11, 416099, Note_on_c, 5, 69, 0
11, 416099, Note_on_c, 5, 57, 0
11, 416160, Note_on_c, 5, 74, 84
11, 416160, Note_on_c, 5, 62, 84
11, 416339, Note_on_c, 5, 74, 0
11, 416339, Note_on_c, 5, 62, 0
11, 416400, Note_on_c, 5, 69, 84
11, 416400, Note_on_c, 5, 57, 84
11, 416579, Note_on_c, 5, 69, 0
11, 416579, Note_on_c, 5, 57, 0
11, 416640, Note_on_c, 5, 74, 84
11, 416640, Note_on_c, 5, 62, 84
11, 416819, Note_on_c, 5, 74, 0
11, 416819, Note_on_c, 5, 62, 0
11, 416880, Note_on_c, 5, 69, 84
11, 416880, Note_on_c, 5, 57, 84
11, 417059, Note_on_c, 5, 69, 0
11, 417059, Note_on_c, 5, 57, 0
11, 417120, Note_on_c, 5, 74, 84
11, 417120, Note_on_c, 5, 62, 84
11, 417299, Note_on_c, 5, 74, 0
11, 417299, Note_on_c, 5, 62, 0
11, 417360, Note_on_c, 5, 69, 84
11, 417360, Note_on_c, 5, 57, 84
11, 417539, Note_on_c, 5, 69, 0
11, 417539, Note_on_c, 5, 57, 0
11, 417600, Note_on_c, 5, 74, 84
11, 417600, Note_on_c, 5, 62, 84
11, 417779, Note_on_c, 5, 74, 0
11, 417779, Note_on_c, 5, 62, 0
11, 417840, Note_on_c, 5, 69, 84
11, 417840, Note_on_c, 5, 57, 84
11, 418019, Note_on_c, 5, 69, 0
11, 418019, Note_on_c, 5, 57, 0
11, 418080, Note_on_c, 5, 74, 84
11, 418080, Note_on_c, 5, 62, 84
11, 418259, Note_on_c, 5, 74, 0
11, 418259, Note_on_c, 5, 62, 0
11, 419040, Note_on_c, 5, 74, 84
11, 419040, Note_on_c, 5, 62, 84
11, 419219, Note_on_c, 5, 74, 0
11, 419219, Note_on_c, 5, 62, 0
11, 420000, Note_on_c, 5, 62, 84
11, 420449, Note_on_c, 5, 62, 0
11, 420480, Note_on_c, 5, 66, 84
11, 420929, Note_on_c, 5, 66, 0
11, 420960, Note_on_c, 5, 69, 84
11, 421409, Note_on_c, 5, 69, 0
11, 421440, Note_on_c, 5, 66, 84
11, 421889, Note_on_c, 5, 66, 0
11, 421920, Note_on_c, 5, 62, 84
11, 422159, Note_on_c, 5, 62, 0
11, 422880, Note_on_c, 5, 74, 84
11, 422880, Note_on_c, 5, 66, 84
11, 423119, Note_on_c, 5, 74, 0
11, 423119, Note_on_c, 5, 66, 0
11, 423360, Note_on_c, 5, 74, 84
11, 423360, Note_on_c, 5, 66, 84
11, 423599, Note_on_c, 5, 74, 0
11, 423599, Note_on_c, 5, 66, 0
11, 423840, Note_on_c, 5, 74, 84
11, 423840, Note_on_c, 5, 66, 84
11, 424079, Note_on_c, 5, 74, 0
11, 424079, Note_on_c, 5, 66, 0
11, 424800, Note_on_c, 5, 74, 84
11, 424800, Note_on_c, 5, 62, 84
11, 425039, Note_on_c, 5, 74, 0
11, 425039, Note_on_c, 5, 62, 0
11, 425760, Note_on_c, 5, 62, 84
11, 425999, Note_on_c, 5, 62, 0
11, 425999, End_track
12, 0, Start_track
12, 0, Title_t, "Timpani"
12, 0, MIDI_port, 0
12, 0, Program_c, 6, 47
12, 0, Control_c, 6, 7, 96
12, 0, Control_c, 6, 10, 25
12, 0, Control_c, 6, 11, 127
12, 5280, Note_on_c, 6, 50, 76
12, 5459, Note_on_c, 6, 50, 0
12, 5520, Note_on_c, 6, 45, 76
12, 5699, Note_on_c, 6, 45, 0
12, 7200, Note_on_c, 6, 45, 76
12, 7379, Note_on_c, 6, 45, 0
12, 7440, Note_on_c, 6, 45, 76
12, 7619, Note_on_c, 6, 45, 0
12, 11040, Note_on_c, 6, 50, 76
12, 11279, Note_on_c, 6, 50, 0
12, 12960, Note_on_c, 6, 50, 84
12, 13199, Note_on_c, 6, 50, 0
12, 14880, Note_on_c, 6, 50, 84
12, 15119, Note_on_c, 6, 50, 0
12, 16800, Note_on_c, 6, 50, 84
12, 17039, Note_on_c, 6, 50, 0
12, 17520, Note_on_c, 6, 50, 76
12, 17639, Note_on_c, 6, 50, 0
12, 17640, Note_on_c, 6, 50, 76
12, 17759, Note_on_c, 6, 50, 0
12, 17760, Note_on_c, 6, 50, 76
12, 17879, Note_on_c, 6, 50, 0
12, 17880, Note_on_c, 6, 50, 76
12, 17999, Note_on_c, 6, 50, 0
12, 18000, Note_on_c, 6, 50, 76
12, 18119, Note_on_c, 6, 50, 0
12, 18120, Note_on_c, 6, 50, 76
12, 18239, Note_on_c, 6, 50, 0
12, 18240, Note_on_c, 6, 50, 76
12, 18359, Note_on_c, 6, 50, 0
12, 18360, Note_on_c, 6, 50, 76
12, 18479, Note_on_c, 6, 50, 0
12, 18480, Note_on_c, 6, 50, 76
12, 18599, Note_on_c, 6, 50, 0
12, 18600, Note_on_c, 6, 50, 76
12, 18719, Note_on_c, 6, 50, 0
12, 18720, Note_on_c, 6, 45, 84
12, 18959, Note_on_c, 6, 45, 0
12, 19680, Note_on_c, 6, 45, 84
12, 19919, Note_on_c, 6, 45, 0
12, 20640, Note_on_c, 6, 45, 84
12, 20879, Note_on_c, 6, 45, 0
12, 21600, Note_on_c, 6, 45, 84
12, 21839, Note_on_c, 6, 45, 0
12, 22560, Note_on_c, 6, 45, 84
12, 22799, Note_on_c, 6, 45, 0
12, 22800, Note_on_c, 6, 45, 84
12, 23039, Note_on_c, 6, 45, 0
12, 23040, Note_on_c, 6, 45, 84
12, 23279, Note_on_c, 6, 45, 0
12, 23280, Note_on_c, 6, 45, 84
12, 23519, Note_on_c, 6, 45, 0
12, 23520, Note_on_c, 6, 45, 84
12, 23759, Note_on_c, 6, 45, 0
12, 36000, Note_on_c, 6, 50, 44
12, 36239, Note_on_c, 6, 50, 0
12, 36960, Note_on_c, 6, 45, 44
12, 37199, Note_on_c, 6, 45, 0
12, 37920, Note_on_c, 6, 50, 44
12, 38159, Note_on_c, 6, 50, 0
12, 38880, Note_on_c, 6, 45, 44
12, 39119, Note_on_c, 6, 45, 0
12, 80160, Note_on_c, 6, 45, 76
12, 80399, Note_on_c, 6, 45, 0
12, 82080, Note_on_c, 6, 45, 84
12, 82319, Note_on_c, 6, 45, 0
12, 84000, Note_on_c, 6, 45, 84
12, 84239, Note_on_c, 6, 45, 0
12, 84960, Note_on_c, 6, 50, 84
12, 85199, Note_on_c, 6, 50, 0
12, 85920, Note_on_c, 6, 45, 76
12, 86159, Note_on_c, 6, 45, 0
12, 87840, Note_on_c, 6, 45, 76
12, 88079, Note_on_c, 6, 45, 0
12, 89760, Note_on_c, 6, 45, 84
12, 89879, Note_on_c, 6, 45, 0
12, 89880, Note_on_c, 6, 45, 84
12, 89999, Note_on_c, 6, 45, 0
12, 90000, Note_on_c, 6, 45, 84
12, 90119, Note_on_c, 6, 45, 0
12, 90120, Note_on_c, 6, 45, 84
12, 90239, Note_on_c, 6, 45, 0
12, 90240, Note_on_c, 6, 45, 84
12, 90359, Note_on_c, 6, 45, 0
12, 90360, Note_on_c, 6, 45, 84
12, 90479, Note_on_c, 6, 45, 0
12, 90480, Note_on_c, 6, 45, 84
12, 90599, Note_on_c, 6, 45, 0
12, 90600, Note_on_c, 6, 45, 84
12, 90719, Note_on_c, 6, 45, 0
12, 90720, Note_on_c, 6, 45, 84
12, 90839, Note_on_c, 6, 45, 0
12, 90840, Note_on_c, 6, 45, 84
12, 90959, Note_on_c, 6, 45, 0
12, 90960, Note_on_c, 6, 45, 84
12, 91079, Note_on_c, 6, 45, 0
12, 91080, Note_on_c, 6, 45, 84
12, 91199, Note_on_c, 6, 45, 0
12, 91200, Note_on_c, 6, 45, 84
12, 91319, Note_on_c, 6, 45, 0
12, 91320, Note_on_c, 6, 45, 84
12, 91439, Note_on_c, 6, 45, 0
12, 91440, Note_on_c, 6, 45, 84
12, 91559, Note_on_c, 6, 45, 0
12, 91560, Note_on_c, 6, 45, 84
12, 91679, Note_on_c, 6, 45, 0
12, 91680, Note_on_c, 6, 45, 84
12, 91799, Note_on_c, 6, 45, 0
12, 91800, Note_on_c, 6, 45, 84
12, 91919, Note_on_c, 6, 45, 0
12, 91920, Note_on_c, 6, 45, 84
12, 92039, Note_on_c, 6, 45, 0
12, 92040, Note_on_c, 6, 45, 84
12, 92159, Note_on_c, 6, 45, 0
12, 92160, Note_on_c, 6, 45, 84
12, 92279, Note_on_c, 6, 45, 0
12, 92280, Note_on_c, 6, 45, 84
12, 92399, Note_on_c, 6, 45, 0
12, 92400, Note_on_c, 6, 45, 84
12, 92519, Note_on_c, 6, 45, 0
12, 92520, Note_on_c, 6, 45, 84
12, 92639, Note_on_c, 6, 45, 0
12, 92640, Note_on_c, 6, 45, 84
12, 92759, Note_on_c, 6, 45, 0
12, 92760, Note_on_c, 6, 45, 84
12, 92879, Note_on_c, 6, 45, 0
12, 92880, Note_on_c, 6, 45, 84
12, 92999, Note_on_c, 6, 45, 0
12, 93000, Note_on_c, 6, 45, 84
12, 93119, Note_on_c, 6, 45, 0
12, 93120, Note_on_c, 6, 45, 84
12, 93239, Note_on_c, 6, 45, 0
12, 93240, Note_on_c, 6, 45, 84
12, 93359, Note_on_c, 6, 45, 0
12, 93360, Note_on_c, 6, 45, 84
12, 93479, Note_on_c, 6, 45, 0
12, 93480, Note_on_c, 6, 45, 84
12, 93599, Note_on_c, 6, 45, 0
12, 93600, Note_on_c, 6, 45, 84
12, 93839, Note_on_c, 6, 45, 0
12, 108000, Note_on_c, 6, 50, 76
12, 108179, Note_on_c, 6, 50, 0
12, 108240, Note_on_c, 6, 45, 76
12, 108419, Note_on_c, 6, 45, 0
12, 109920, Note_on_c, 6, 45, 76
12, 110099, Note_on_c, 6, 45, 0
12, 110160, Note_on_c, 6, 45, 76
12, 110339, Note_on_c, 6, 45, 0
12, 113760, Note_on_c, 6, 50, 76
12, 113999, Note_on_c, 6, 50, 0
12, 115200, Note_on_c, 6, 50, 84
12, 115439, Note_on_c, 6, 50, 0
12, 115680, Note_on_c, 6, 50, 84
12, 115919, Note_on_c, 6, 50, 0
12, 117120, Note_on_c, 6, 50, 84
12, 117359, Note_on_c, 6, 50, 0
12, 117600, Note_on_c, 6, 50, 84
12, 117839, Note_on_c, 6, 50, 0
12, 119040, Note_on_c, 6, 50, 76
12, 119219, Note_on_c, 6, 50, 0
12, 119280, Note_on_c, 6, 50, 76
12, 119459, Note_on_c, 6, 50, 0
12, 119520, Note_on_c, 6, 50, 76
12, 119759, Note_on_c, 6, 50, 0
12, 120960, Note_on_c, 6, 50, 76
12, 121139, Note_on_c, 6, 50, 0
12, 121200, Note_on_c, 6, 50, 76
12, 121379, Note_on_c, 6, 50, 0
12, 121440, Note_on_c, 6, 50, 76
12, 121679, Note_on_c, 6, 50, 0
12, 122400, Note_on_c, 6, 50, 76
12, 122639, Note_on_c, 6, 50, 0
12, 123360, Note_on_c, 6, 50, 76
12, 123599, Note_on_c, 6, 50, 0
12, 124320, Note_on_c, 6, 50, 76
12, 124559, Note_on_c, 6, 50, 0
12, 125280, Note_on_c, 6, 50, 76
12, 125519, Note_on_c, 6, 50, 0
12, 132960, Note_on_c, 6, 50, 76
12, 133199, Note_on_c, 6, 50, 0
12, 134880, Note_on_c, 6, 50, 76
12, 135119, Note_on_c, 6, 50, 0
12, 177120, Note_on_c, 6, 45, 76
12, 177359, Note_on_c, 6, 45, 0
12, 181920, Note_on_c, 6, 50, 76
12, 182099, Note_on_c, 6, 50, 0
12, 182160, Note_on_c, 6, 45, 76
12, 182339, Note_on_c, 6, 45, 0
12, 183840, Note_on_c, 6, 45, 76
12, 184019, Note_on_c, 6, 45, 0
12, 184080, Note_on_c, 6, 45, 76
12, 184259, Note_on_c, 6, 45, 0
12, 187680, Note_on_c, 6, 50, 76
12, 187919, Note_on_c, 6, 50, 0
12, 189600, Note_on_c, 6, 50, 84
12, 189839, Note_on_c, 6, 50, 0
12, 191520, Note_on_c, 6, 50, 84
12, 191759, Note_on_c, 6, 50, 0
12, 193440, Note_on_c, 6, 50, 84
12, 193679, Note_on_c, 6, 50, 0
12, 194160, Note_on_c, 6, 50, 76
12, 194249, Note_on_c, 6, 50, 0
12, 194280, Note_on_c, 6, 50, 76
12, 194369, Note_on_c, 6, 50, 0
12, 194400, Note_on_c, 6, 50, 76
12, 194489, Note_on_c, 6, 50, 0
12, 194520, Note_on_c, 6, 50, 76
12, 194609, Note_on_c, 6, 50, 0
12, 194640, Note_on_c, 6, 50, 76
12, 194729, Note_on_c, 6, 50, 0
12, 194760, Note_on_c, 6, 50, 76
12, 194849, Note_on_c, 6, 50, 0
12, 194880, Note_on_c, 6, 50, 76
12, 194969, Note_on_c, 6, 50, 0
12, 195000, Note_on_c, 6, 50, 76
12, 195089, Note_on_c, 6, 50, 0
12, 195120, Note_on_c, 6, 50, 76
12, 195209, Note_on_c, 6, 50, 0
12, 195240, Note_on_c, 6, 50, 76
12, 195329, Note_on_c, 6, 50, 0
12, 195360, Note_on_c, 6, 45, 84
12, 195599, Note_on_c, 6, 45, 0
12, 196320, Note_on_c, 6, 45, 84
12, 196559, Note_on_c, 6, 45, 0
12, 197280, Note_on_c, 6, 45, 84
12, 197519, Note_on_c, 6, 45, 0
12, 198240, Note_on_c, 6, 45, 84
12, 198479, Note_on_c, 6, 45, 0
12, 199200, Note_on_c, 6, 45, 84
12, 199379, Note_on_c, 6, 45, 0
12, 199440, Note_on_c, 6, 45, 84
12, 199619, Note_on_c, 6, 45, 0
12, 199680, Note_on_c, 6, 45, 84
12, 199859, Note_on_c, 6, 45, 0
12, 199920, Note_on_c, 6, 45, 84
12, 200099, Note_on_c, 6, 45, 0
12, 200160, Note_on_c, 6, 45, 84
12, 200399, Note_on_c, 6, 45, 0
12, 212640, Note_on_c, 6, 50, 44
12, 212879, Note_on_c, 6, 50, 0
12, 213600, Note_on_c, 6, 50, 44
12, 213839, Note_on_c, 6, 50, 0
12, 214560, Note_on_c, 6, 50, 44
12, 214799, Note_on_c, 6, 50, 0
12, 215520, Note_on_c, 6, 50, 44
12, 215759, Note_on_c, 6, 50, 0
12, 216480, Note_on_c, 6, 50, 44
12, 216719, Note_on_c, 6, 50, 0
12, 219360, Note_on_c, 6, 45, 84
12, 219599, Note_on_c, 6, 45, 0
12, 221280, Note_on_c, 6, 45, 84
12, 221519, Note_on_c, 6, 45, 0
12, 222720, Note_on_c, 6, 45, 84
12, 222959, Note_on_c, 6, 45, 0
12, 223680, Note_on_c, 6, 45, 84
12, 223919, Note_on_c, 6, 45, 0
12, 224160, Note_on_c, 6, 45, 76
12, 224399, Note_on_c, 6, 45, 0
12, 241440, Note_on_c, 6, 45, 44
12, 241679, Note_on_c, 6, 45, 0
12, 242400, Note_on_c, 6, 45, 44
12, 242639, Note_on_c, 6, 45, 0
12, 243360, Note_on_c, 6, 45, 44
12, 243599, Note_on_c, 6, 45, 0
12, 244320, Note_on_c, 6, 45, 44
12, 244559, Note_on_c, 6, 45, 0
12, 245280, Note_on_c, 6, 45, 44
12, 245519, Note_on_c, 6, 45, 0
12, 256800, Note_on_c, 6, 50, 76
12, 257039, Note_on_c, 6, 50, 0
12, 258720, Note_on_c, 6, 50, 76
12, 258959, Note_on_c, 6, 50, 0
12, 260640, Note_on_c, 6, 45, 84
12, 260879, Note_on_c, 6, 45, 0
12, 261600, Note_on_c, 6, 45, 84
12, 261839, Note_on_c, 6, 45, 0
12, 262560, Note_on_c, 6, 50, 84
12, 262799, Note_on_c, 6, 50, 0
12, 264480, Note_on_c, 6, 50, 76
12, 264719, Note_on_c, 6, 50, 0
12, 266400, Note_on_c, 6, 50, 84
12, 266639, Note_on_c, 6, 50, 0
12, 267360, Note_on_c, 6, 50, 84
12, 267599, Note_on_c, 6, 50, 0
12, 268320, Note_on_c, 6, 50, 84
12, 268559, Note_on_c, 6, 50, 0
12, 269280, Note_on_c, 6, 50, 84
12, 269519, Note_on_c, 6, 50, 0
12, 270240, Note_on_c, 6, 50, 84
12, 270479, Note_on_c, 6, 50, 0
12, 286560, Note_on_c, 6, 50, 76
12, 286739, Note_on_c, 6, 50, 0
12, 286800, Note_on_c, 6, 45, 76
12, 286979, Note_on_c, 6, 45, 0
12, 297120, Note_on_c, 6, 50, 76
12, 297359, Note_on_c, 6, 50, 0
12, 297600, Note_on_c, 6, 50, 76
12, 297839, Note_on_c, 6, 50, 0
12, 298080, Note_on_c, 6, 50, 76
12, 298319, Note_on_c, 6, 50, 0
12, 298560, Note_on_c, 6, 50, 76
12, 298799, Note_on_c, 6, 50, 0
12, 299040, Note_on_c, 6, 45, 76
12, 299279, Note_on_c, 6, 45, 0
12, 300960, Note_on_c, 6, 45, 76
12, 301199, Note_on_c, 6, 45, 0
12, 302880, Note_on_c, 6, 45, 76
12, 303119, Note_on_c, 6, 45, 0
12, 303840, Note_on_c, 6, 45, 76
12, 304079, Note_on_c, 6, 45, 0
12, 304800, Note_on_c, 6, 45, 76
12, 305039, Note_on_c, 6, 45, 0
12, 305760, Note_on_c, 6, 45, 76
12, 305999, Note_on_c, 6, 45, 0
12, 306720, Note_on_c, 6, 45, 52
12, 306839, Note_on_c, 6, 45, 0
12, 306840, Note_on_c, 6, 45, 53
12, 306959, Note_on_c, 6, 45, 0
12, 306960, Note_on_c, 6, 45, 55
12, 307079, Note_on_c, 6, 45, 0
12, 307080, Note_on_c, 6, 45, 56
12, 307199, Note_on_c, 6, 45, 0
12, 307200, Note_on_c, 6, 45, 58
12, 307319, Note_on_c, 6, 45, 0
12, 307320, Note_on_c, 6, 45, 59
12, 307439, Note_on_c, 6, 45, 0
12, 307440, Note_on_c, 6, 45, 61
12, 307559, Note_on_c, 6, 45, 0
12, 307560, Note_on_c, 6, 45, 62
12, 307679, Note_on_c, 6, 45, 0
12, 307680, Note_on_c, 6, 45, 64
12, 307799, Note_on_c, 6, 45, 0
12, 307800, Note_on_c, 6, 45, 65
12, 307919, Note_on_c, 6, 45, 0
12, 307920, Note_on_c, 6, 45, 67
12, 308039, Note_on_c, 6, 45, 0
12, 308040, Note_on_c, 6, 45, 68
12, 308159, Note_on_c, 6, 45, 0
12, 308160, Note_on_c, 6, 45, 70
12, 308279, Note_on_c, 6, 45, 0
12, 308280, Note_on_c, 6, 45, 71
12, 308399, Note_on_c, 6, 45, 0
12, 308400, Note_on_c, 6, 45, 73
12, 308519, Note_on_c, 6, 45, 0
12, 308520, Note_on_c, 6, 45, 74
12, 308639, Note_on_c, 6, 45, 0
12, 308640, Note_on_c, 6, 50, 76
12, 308879, Note_on_c, 6, 50, 0
12, 310560, Note_on_c, 6, 50, 76
12, 310799, Note_on_c, 6, 50, 0
12, 312480, Note_on_c, 6, 50, 76
12, 312719, Note_on_c, 6, 50, 0
12, 313440, Note_on_c, 6, 50, 76
12, 313679, Note_on_c, 6, 50, 0
12, 314400, Note_on_c, 6, 50, 76
12, 314639, Note_on_c, 6, 50, 0
12, 315360, Note_on_c, 6, 50, 76
12, 315599, Note_on_c, 6, 50, 0
12, 316320, Note_on_c, 6, 50, 76
12, 316559, Note_on_c, 6, 50, 0
12, 320160, Note_on_c, 6, 45, 84
12, 320219, Note_on_c, 6, 45, 0
12, 320220, Note_on_c, 6, 45, 84
12, 320279, Note_on_c, 6, 45, 0
12, 320280, Note_on_c, 6, 45, 84
12, 320339, Note_on_c, 6, 45, 0
12, 320340, Note_on_c, 6, 45, 84
12, 320399, Note_on_c, 6, 45, 0
12, 320400, Note_on_c, 6, 45, 84
12, 320459, Note_on_c, 6, 45, 0
12, 320460, Note_on_c, 6, 45, 84
12, 320519, Note_on_c, 6, 45, 0
12, 320520, Note_on_c, 6, 45, 84
12, 320579, Note_on_c, 6, 45, 0
12, 320580, Note_on_c, 6, 45, 84
12, 320639, Note_on_c, 6, 45, 0
12, 320640, Note_on_c, 6, 45, 84
12, 320699, Note_on_c, 6, 45, 0
12, 320700, Note_on_c, 6, 45, 84
12, 320759, Note_on_c, 6, 45, 0
12, 320760, Note_on_c, 6, 45, 84
12, 320819, Note_on_c, 6, 45, 0
12, 320820, Note_on_c, 6, 45, 84
12, 320879, Note_on_c, 6, 45, 0
12, 320880, Note_on_c, 6, 45, 84
12, 320939, Note_on_c, 6, 45, 0
12, 320940, Note_on_c, 6, 45, 84
12, 320999, Note_on_c, 6, 45, 0
12, 321000, Note_on_c, 6, 45, 84
12, 321059, Note_on_c, 6, 45, 0
12, 321060, Note_on_c, 6, 45, 84
12, 321119, Note_on_c, 6, 45, 0
12, 321120, Note_on_c, 6, 45, 84
12, 321179, Note_on_c, 6, 45, 0
12, 321180, Note_on_c, 6, 45, 84
12, 321239, Note_on_c, 6, 45, 0
12, 321240, Note_on_c, 6, 45, 84
12, 321299, Note_on_c, 6, 45, 0
12, 321300, Note_on_c, 6, 45, 84
12, 321359, Note_on_c, 6, 45, 0
12, 321360, Note_on_c, 6, 45, 84
12, 321419, Note_on_c, 6, 45, 0
12, 321420, Note_on_c, 6, 45, 84
12, 321479, Note_on_c, 6, 45, 0
12, 321480, Note_on_c, 6, 45, 84
12, 321539, Note_on_c, 6, 45, 0
12, 321540, Note_on_c, 6, 45, 84
12, 321599, Note_on_c, 6, 45, 0
12, 321600, Note_on_c, 6, 45, 84
12, 321659, Note_on_c, 6, 45, 0
12, 321660, Note_on_c, 6, 45, 84
12, 321719, Note_on_c, 6, 45, 0
12, 321720, Note_on_c, 6, 45, 84
12, 321779, Note_on_c, 6, 45, 0
12, 321780, Note_on_c, 6, 45, 84
12, 321839, Note_on_c, 6, 45, 0
12, 321840, Note_on_c, 6, 45, 84
12, 321899, Note_on_c, 6, 45, 0
12, 321900, Note_on_c, 6, 45, 84
12, 321959, Note_on_c, 6, 45, 0
12, 321960, Note_on_c, 6, 45, 84
12, 322019, Note_on_c, 6, 45, 0
12, 322020, Note_on_c, 6, 45, 84
12, 322079, Note_on_c, 6, 45, 0
12, 322080, Note_on_c, 6, 45, 84
12, 322139, Note_on_c, 6, 45, 0
12, 322140, Note_on_c, 6, 45, 84
12, 322199, Note_on_c, 6, 45, 0
12, 322200, Note_on_c, 6, 45, 84
12, 322259, Note_on_c, 6, 45, 0
12, 322260, Note_on_c, 6, 45, 84
12, 322319, Note_on_c, 6, 45, 0
12, 322320, Note_on_c, 6, 45, 84
12, 322379, Note_on_c, 6, 45, 0
12, 322380, Note_on_c, 6, 45, 84
12, 322439, Note_on_c, 6, 45, 0
12, 322440, Note_on_c, 6, 45, 84
12, 322499, Note_on_c, 6, 45, 0
12, 322500, Note_on_c, 6, 45, 84
12, 322559, Note_on_c, 6, 45, 0
12, 322560, Note_on_c, 6, 45, 84
12, 322619, Note_on_c, 6, 45, 0
12, 322620, Note_on_c, 6, 45, 84
12, 322679, Note_on_c, 6, 45, 0
12, 322680, Note_on_c, 6, 45, 84
12, 322739, Note_on_c, 6, 45, 0
12, 322740, Note_on_c, 6, 45, 84
12, 322799, Note_on_c, 6, 45, 0
12, 322800, Note_on_c, 6, 45, 84
12, 322859, Note_on_c, 6, 45, 0
12, 322860, Note_on_c, 6, 45, 84
12, 322919, Note_on_c, 6, 45, 0
12, 322920, Note_on_c, 6, 45, 84
12, 322979, Note_on_c, 6, 45, 0
12, 322980, Note_on_c, 6, 45, 84
12, 323039, Note_on_c, 6, 45, 0
12, 323040, Note_on_c, 6, 45, 84
12, 323099, Note_on_c, 6, 45, 0
12, 323100, Note_on_c, 6, 45, 84
12, 323159, Note_on_c, 6, 45, 0
12, 323160, Note_on_c, 6, 45, 84
12, 323219, Note_on_c, 6, 45, 0
12, 323220, Note_on_c, 6, 45, 84
12, 323279, Note_on_c, 6, 45, 0
12, 323280, Note_on_c, 6, 45, 84
12, 323339, Note_on_c, 6, 45, 0
12, 323340, Note_on_c, 6, 45, 84
12, 323399, Note_on_c, 6, 45, 0
12, 323400, Note_on_c, 6, 45, 84
12, 323459, Note_on_c, 6, 45, 0
12, 323460, Note_on_c, 6, 45, 84
12, 323519, Note_on_c, 6, 45, 0
12, 323520, Note_on_c, 6, 45, 84
12, 323579, Note_on_c, 6, 45, 0
12, 323580, Note_on_c, 6, 45, 84
12, 323639, Note_on_c, 6, 45, 0
12, 323640, Note_on_c, 6, 45, 84
12, 323699, Note_on_c, 6, 45, 0
12, 323700, Note_on_c, 6, 45, 84
12, 323759, Note_on_c, 6, 45, 0
12, 323760, Note_on_c, 6, 45, 84
12, 323819, Note_on_c, 6, 45, 0
12, 323820, Note_on_c, 6, 45, 84
12, 323879, Note_on_c, 6, 45, 0
12, 323880, Note_on_c, 6, 45, 84
12, 323939, Note_on_c, 6, 45, 0
12, 323940, Note_on_c, 6, 45, 84
12, 323999, Note_on_c, 6, 45, 0
12, 358560, Note_on_c, 6, 50, 84
12, 358619, Note_on_c, 6, 50, 0
12, 358620, Note_on_c, 6, 50, 84
12, 358679, Note_on_c, 6, 50, 0
12, 358680, Note_on_c, 6, 50, 84
12, 358739, Note_on_c, 6, 50, 0
12, 358740, Note_on_c, 6, 50, 84
12, 358799, Note_on_c, 6, 50, 0
12, 358800, Note_on_c, 6, 50, 84
12, 358859, Note_on_c, 6, 50, 0
12, 358860, Note_on_c, 6, 50, 84
12, 358919, Note_on_c, 6, 50, 0
12, 358920, Note_on_c, 6, 50, 84
12, 358979, Note_on_c, 6, 50, 0
12, 358980, Note_on_c, 6, 50, 84
12, 359039, Note_on_c, 6, 50, 0
12, 359040, Note_on_c, 6, 50, 84
12, 359099, Note_on_c, 6, 50, 0
12, 359100, Note_on_c, 6, 50, 84
12, 359159, Note_on_c, 6, 50, 0
12, 359160, Note_on_c, 6, 50, 84
12, 359219, Note_on_c, 6, 50, 0
12, 359220, Note_on_c, 6, 50, 84
12, 359279, Note_on_c, 6, 50, 0
12, 359280, Note_on_c, 6, 50, 84
12, 359339, Note_on_c, 6, 50, 0
12, 359340, Note_on_c, 6, 50, 84
12, 359399, Note_on_c, 6, 50, 0
12, 359400, Note_on_c, 6, 50, 84
12, 359459, Note_on_c, 6, 50, 0
12, 359460, Note_on_c, 6, 50, 84
12, 359519, Note_on_c, 6, 50, 0
12, 359520, Note_on_c, 6, 50, 84
12, 359579, Note_on_c, 6, 50, 0
12, 359580, Note_on_c, 6, 50, 84
12, 359639, Note_on_c, 6, 50, 0
12, 359640, Note_on_c, 6, 50, 84
12, 359699, Note_on_c, 6, 50, 0
12, 359700, Note_on_c, 6, 50, 84
12, 359759, Note_on_c, 6, 50, 0
12, 359760, Note_on_c, 6, 50, 84
12, 359819, Note_on_c, 6, 50, 0
12, 359820, Note_on_c, 6, 50, 84
12, 359879, Note_on_c, 6, 50, 0
12, 359880, Note_on_c, 6, 50, 84
12, 359939, Note_on_c, 6, 50, 0
12, 359940, Note_on_c, 6, 50, 84
12, 359999, Note_on_c, 6, 50, 0
12, 360000, Note_on_c, 6, 50, 84
12, 360059, Note_on_c, 6, 50, 0
12, 360060, Note_on_c, 6, 50, 84
12, 360119, Note_on_c, 6, 50, 0
12, 360120, Note_on_c, 6, 50, 84
12, 360179, Note_on_c, 6, 50, 0
12, 360180, Note_on_c, 6, 50, 84
12, 360239, Note_on_c, 6, 50, 0
12, 360240, Note_on_c, 6, 50, 84
12, 360299, Note_on_c, 6, 50, 0
12, 360300, Note_on_c, 6, 50, 84
12, 360359, Note_on_c, 6, 50, 0
12, 360360, Note_on_c, 6, 50, 84
12, 360419, Note_on_c, 6, 50, 0
12, 360420, Note_on_c, 6, 50, 84
12, 360479, Note_on_c, 6, 50, 0
12, 360480, Note_on_c, 6, 45, 84
12, 360719, Note_on_c, 6, 45, 0
12, 362400, Note_on_c, 6, 45, 92
12, 362519, Note_on_c, 6, 45, 0
12, 362520, Note_on_c, 6, 45, 84
12, 362639, Note_on_c, 6, 45, 0
12, 362640, Note_on_c, 6, 45, 84
12, 362759, Note_on_c, 6, 45, 0
12, 362760, Note_on_c, 6, 45, 84
12, 362879, Note_on_c, 6, 45, 0
12, 362880, Note_on_c, 6, 45, 84
12, 362999, Note_on_c, 6, 45, 0
12, 363000, Note_on_c, 6, 45, 84
12, 363119, Note_on_c, 6, 45, 0
12, 363120, Note_on_c, 6, 45, 84
12, 363239, Note_on_c, 6, 45, 0
12, 363240, Note_on_c, 6, 45, 84
12, 363359, Note_on_c, 6, 45, 0
12, 363360, Note_on_c, 6, 45, 84
12, 363479, Note_on_c, 6, 45, 0
12, 363480, Note_on_c, 6, 45, 84
12, 363599, Note_on_c, 6, 45, 0
12, 363600, Note_on_c, 6, 45, 84
12, 363719, Note_on_c, 6, 45, 0
12, 363720, Note_on_c, 6, 45, 84
12, 363839, Note_on_c, 6, 45, 0
12, 363840, Note_on_c, 6, 45, 84
12, 363959, Note_on_c, 6, 45, 0
12, 363960, Note_on_c, 6, 45, 84
12, 364079, Note_on_c, 6, 45, 0
12, 364080, Note_on_c, 6, 45, 84
12, 364199, Note_on_c, 6, 45, 0
12, 364200, Note_on_c, 6, 45, 84
12, 364319, Note_on_c, 6, 45, 0
12, 364320, Note_on_c, 6, 45, 84
12, 364559, Note_on_c, 6, 45, 0
12, 366240, Note_on_c, 6, 45, 92
12, 366359, Note_on_c, 6, 45, 0
12, 366360, Note_on_c, 6, 45, 84
12, 366479, Note_on_c, 6, 45, 0
12, 366480, Note_on_c, 6, 45, 84
12, 366599, Note_on_c, 6, 45, 0
12, 366600, Note_on_c, 6, 45, 84
12, 366719, Note_on_c, 6, 45, 0
12, 366720, Note_on_c, 6, 45, 84
12, 366839, Note_on_c, 6, 45, 0
12, 366840, Note_on_c, 6, 45, 84
12, 366959, Note_on_c, 6, 45, 0
12, 366960, Note_on_c, 6, 45, 84
12, 367079, Note_on_c, 6, 45, 0
12, 367080, Note_on_c, 6, 45, 84
12, 367199, Note_on_c, 6, 45, 0
12, 367200, Note_on_c, 6, 45, 84
12, 367319, Note_on_c, 6, 45, 0
12, 367320, Note_on_c, 6, 45, 84
12, 367439, Note_on_c, 6, 45, 0
12, 367440, Note_on_c, 6, 45, 84
12, 367559, Note_on_c, 6, 45, 0
12, 367560, Note_on_c, 6, 45, 84
12, 367679, Note_on_c, 6, 45, 0
12, 367680, Note_on_c, 6, 45, 84
12, 367799, Note_on_c, 6, 45, 0
12, 367800, Note_on_c, 6, 45, 84
12, 367919, Note_on_c, 6, 45, 0
12, 367920, Note_on_c, 6, 45, 84
12, 368039, Note_on_c, 6, 45, 0
12, 368040, Note_on_c, 6, 45, 84
12, 368159, Note_on_c, 6, 45, 0
12, 368160, Note_on_c, 6, 50, 84
12, 368399, Note_on_c, 6, 50, 0
12, 368640, Note_on_c, 6, 50, 76
12, 368879, Note_on_c, 6, 50, 0
12, 369600, Note_on_c, 6, 50, 78
12, 369839, Note_on_c, 6, 50, 0
12, 370560, Note_on_c, 6, 50, 80
12, 370799, Note_on_c, 6, 50, 0
12, 371520, Note_on_c, 6, 50, 82
12, 371759, Note_on_c, 6, 50, 0
12, 372000, Note_on_c, 6, 50, 84
12, 372119, Note_on_c, 6, 50, 0
12, 372120, Note_on_c, 6, 50, 84
12, 372239, Note_on_c, 6, 50, 0
12, 372240, Note_on_c, 6, 50, 84
12, 372359, Note_on_c, 6, 50, 0
12, 372360, Note_on_c, 6, 50, 84
12, 372479, Note_on_c, 6, 50, 0
12, 372480, Note_on_c, 6, 50, 84
12, 372599, Note_on_c, 6, 50, 0
12, 372600, Note_on_c, 6, 50, 84
12, 372719, Note_on_c, 6, 50, 0
12, 372720, Note_on_c, 6, 50, 84
12, 372839, Note_on_c, 6, 50, 0
12, 372840, Note_on_c, 6, 50, 84
12, 372959, Note_on_c, 6, 50, 0
12, 372960, Note_on_c, 6, 50, 84
12, 373079, Note_on_c, 6, 50, 0
12, 373080, Note_on_c, 6, 50, 84
12, 373199, Note_on_c, 6, 50, 0
12, 373200, Note_on_c, 6, 50, 84
12, 373319, Note_on_c, 6, 50, 0
12, 373320, Note_on_c, 6, 50, 84
12, 373439, Note_on_c, 6, 50, 0
12, 373440, Note_on_c, 6, 50, 84
12, 373559, Note_on_c, 6, 50, 0
12, 373560, Note_on_c, 6, 50, 84
12, 373679, Note_on_c, 6, 50, 0
12, 373680, Note_on_c, 6, 50, 84
12, 373799, Note_on_c, 6, 50, 0
12, 373800, Note_on_c, 6, 50, 84
12, 373919, Note_on_c, 6, 50, 0
12, 373920, Note_on_c, 6, 50, 84
12, 374039, Note_on_c, 6, 50, 0
12, 374040, Note_on_c, 6, 50, 84
12, 374159, Note_on_c, 6, 50, 0
12, 374160, Note_on_c, 6, 50, 84
12, 374279, Note_on_c, 6, 50, 0
12, 374280, Note_on_c, 6, 50, 84
12, 374399, Note_on_c, 6, 50, 0
12, 374400, Note_on_c, 6, 50, 84
12, 374519, Note_on_c, 6, 50, 0
12, 374520, Note_on_c, 6, 50, 84
12, 374639, Note_on_c, 6, 50, 0
12, 374640, Note_on_c, 6, 50, 84
12, 374759, Note_on_c, 6, 50, 0
12, 374760, Note_on_c, 6, 50, 84
12, 374879, Note_on_c, 6, 50, 0
12, 374880, Note_on_c, 6, 50, 84
12, 374999, Note_on_c, 6, 50, 0
12, 375000, Note_on_c, 6, 50, 84
12, 375119, Note_on_c, 6, 50, 0
12, 375120, Note_on_c, 6, 50, 84
12, 375239, Note_on_c, 6, 50, 0
12, 375240, Note_on_c, 6, 50, 84
12, 375359, Note_on_c, 6, 50, 0
12, 375360, Note_on_c, 6, 50, 84
12, 375479, Note_on_c, 6, 50, 0
12, 375480, Note_on_c, 6, 50, 84
12, 375599, Note_on_c, 6, 50, 0
12, 375600, Note_on_c, 6, 50, 84
12, 375719, Note_on_c, 6, 50, 0
12, 375720, Note_on_c, 6, 50, 84
12, 375839, Note_on_c, 6, 50, 0
12, 375840, Note_on_c, 6, 50, 84
12, 376079, Note_on_c, 6, 50, 0
12, 376800, Note_on_c, 6, 50, 84
12, 377039, Note_on_c, 6, 50, 0
12, 377760, Note_on_c, 6, 50, 92
12, 377999, Note_on_c, 6, 50, 0
12, 378720, Note_on_c, 6, 45, 92
12, 378959, Note_on_c, 6, 45, 0
12, 379680, Note_on_c, 6, 50, 84
12, 379799, Note_on_c, 6, 50, 0
12, 379800, Note_on_c, 6, 50, 84
12, 379919, Note_on_c, 6, 50, 0
12, 379920, Note_on_c, 6, 50, 84
12, 380039, Note_on_c, 6, 50, 0
12, 380040, Note_on_c, 6, 50, 84
12, 380159, Note_on_c, 6, 50, 0
12, 380160, Note_on_c, 6, 50, 84
12, 380279, Note_on_c, 6, 50, 0
12, 380280, Note_on_c, 6, 50, 84
12, 380399, Note_on_c, 6, 50, 0
12, 380400, Note_on_c, 6, 50, 84
12, 380519, Note_on_c, 6, 50, 0
12, 380520, Note_on_c, 6, 50, 84
12, 380639, Note_on_c, 6, 50, 0
12, 380640, Note_on_c, 6, 50, 84
12, 380759, Note_on_c, 6, 50, 0
12, 380760, Note_on_c, 6, 50, 84
12, 380879, Note_on_c, 6, 50, 0
12, 380880, Note_on_c, 6, 50, 84
12, 380999, Note_on_c, 6, 50, 0
12, 381000, Note_on_c, 6, 50, 84
12, 381119, Note_on_c, 6, 50, 0
12, 381120, Note_on_c, 6, 50, 84
12, 381239, Note_on_c, 6, 50, 0
12, 381240, Note_on_c, 6, 50, 84
12, 381359, Note_on_c, 6, 50, 0
12, 381360, Note_on_c, 6, 50, 84
12, 381479, Note_on_c, 6, 50, 0
12, 381480, Note_on_c, 6, 50, 84
12, 381599, Note_on_c, 6, 50, 0
12, 381600, Note_on_c, 6, 50, 84
12, 381719, Note_on_c, 6, 50, 0
12, 381720, Note_on_c, 6, 50, 84
12, 381839, Note_on_c, 6, 50, 0
12, 381840, Note_on_c, 6, 50, 84
12, 381959, Note_on_c, 6, 50, 0
12, 381960, Note_on_c, 6, 50, 84
12, 382079, Note_on_c, 6, 50, 0
12, 382080, Note_on_c, 6, 50, 84
12, 382199, Note_on_c, 6, 50, 0
12, 382200, Note_on_c, 6, 50, 84
12, 382319, Note_on_c, 6, 50, 0
12, 382320, Note_on_c, 6, 50, 84
12, 382439, Note_on_c, 6, 50, 0
12, 382440, Note_on_c, 6, 50, 84
12, 382559, Note_on_c, 6, 50, 0
12, 382560, Note_on_c, 6, 50, 84
12, 382679, Note_on_c, 6, 50, 0
12, 382680, Note_on_c, 6, 50, 84
12, 382799, Note_on_c, 6, 50, 0
12, 382800, Note_on_c, 6, 50, 84
12, 382919, Note_on_c, 6, 50, 0
12, 382920, Note_on_c, 6, 50, 84
12, 383039, Note_on_c, 6, 50, 0
12, 383040, Note_on_c, 6, 50, 84
12, 383159, Note_on_c, 6, 50, 0
12, 383160, Note_on_c, 6, 50, 84
12, 383279, Note_on_c, 6, 50, 0
12, 383280, Note_on_c, 6, 50, 84
12, 383399, Note_on_c, 6, 50, 0
12, 383400, Note_on_c, 6, 50, 84
12, 383519, Note_on_c, 6, 50, 0
12, 386400, Note_on_c, 6, 45, 84
12, 386639, Note_on_c, 6, 45, 0
12, 386880, Note_on_c, 6, 45, 84
12, 387119, Note_on_c, 6, 45, 0
12, 387360, Note_on_c, 6, 50, 84
12, 387599, Note_on_c, 6, 50, 0
12, 408480, Note_on_c, 6, 50, 84
12, 408719, Note_on_c, 6, 50, 0
12, 410400, Note_on_c, 6, 50, 84
12, 410639, Note_on_c, 6, 50, 0
12, 412320, Note_on_c, 6, 50, 84
12, 412559, Note_on_c, 6, 50, 0
12, 413280, Note_on_c, 6, 50, 84
12, 413519, Note_on_c, 6, 50, 0
12, 414240, Note_on_c, 6, 50, 84
12, 414479, Note_on_c, 6, 50, 0
12, 414960, Note_on_c, 6, 45, 84
12, 415139, Note_on_c, 6, 45, 0
12, 415200, Note_on_c, 6, 50, 84
12, 415379, Note_on_c, 6, 50, 0
12, 415440, Note_on_c, 6, 45, 84
12, 415619, Note_on_c, 6, 45, 0
12, 415680, Note_on_c, 6, 50, 84
12, 415859, Note_on_c, 6, 50, 0
12, 415920, Note_on_c, 6, 45, 84
12, 416099, Note_on_c, 6, 45, 0
12, 416160, Note_on_c, 6, 50, 84
12, 416339, Note_on_c, 6, 50, 0
12, 416400, Note_on_c, 6, 45, 84
12, 416579, Note_on_c, 6, 45, 0
12, 416640, Note_on_c, 6, 50, 84
12, 416819, Note_on_c, 6, 50, 0
12, 416880, Note_on_c, 6, 45, 84
12, 417059, Note_on_c, 6, 45, 0
12, 417120, Note_on_c, 6, 50, 84
12, 417299, Note_on_c, 6, 50, 0
12, 417360, Note_on_c, 6, 45, 84
12, 417539, Note_on_c, 6, 45, 0
12, 417600, Note_on_c, 6, 50, 84
12, 417779, Note_on_c, 6, 50, 0
12, 417840, Note_on_c, 6, 45, 84
12, 418019, Note_on_c, 6, 45, 0
12, 418080, Note_on_c, 6, 50, 84
12, 418259, Note_on_c, 6, 50, 0
12, 419040, Note_on_c, 6, 50, 84
12, 419219, Note_on_c, 6, 50, 0
12, 420000, Note_on_c, 6, 50, 84
12, 420059, Note_on_c, 6, 50, 0
12, 420060, Note_on_c, 6, 50, 84
12, 420119, Note_on_c, 6, 50, 0
12, 420120, Note_on_c, 6, 50, 84
12, 420179, Note_on_c, 6, 50, 0
12, 420180, Note_on_c, 6, 50, 84
12, 420239, Note_on_c, 6, 50, 0
12, 420240, Note_on_c, 6, 50, 84
12, 420299, Note_on_c, 6, 50, 0
12, 420300, Note_on_c, 6, 50, 84
12, 420359, Note_on_c, 6, 50, 0
12, 420360, Note_on_c, 6, 50, 84
12, 420419, Note_on_c, 6, 50, 0
12, 420420, Note_on_c, 6, 50, 84
12, 420479, Note_on_c, 6, 50, 0
12, 420480, Note_on_c, 6, 50, 84
12, 420539, Note_on_c, 6, 50, 0
12, 420540, Note_on_c, 6, 50, 84
12, 420599, Note_on_c, 6, 50, 0
12, 420600, Note_on_c, 6, 50, 84
12, 420659, Note_on_c, 6, 50, 0
12, 420660, Note_on_c, 6, 50, 84
12, 420719, Note_on_c, 6, 50, 0
12, 420720, Note_on_c, 6, 50, 84
12, 420779, Note_on_c, 6, 50, 0
12, 420780, Note_on_c, 6, 50, 84
12, 420839, Note_on_c, 6, 50, 0
12, 420840, Note_on_c, 6, 50, 84
12, 420899, Note_on_c, 6, 50, 0
12, 420900, Note_on_c, 6, 50, 84
12, 420959, Note_on_c, 6, 50, 0
12, 420960, Note_on_c, 6, 50, 84
12, 421019, Note_on_c, 6, 50, 0
12, 421020, Note_on_c, 6, 50, 84
12, 421079, Note_on_c, 6, 50, 0
12, 421080, Note_on_c, 6, 50, 84
12, 421139, Note_on_c, 6, 50, 0
12, 421140, Note_on_c, 6, 50, 84
12, 421199, Note_on_c, 6, 50, 0
12, 421200, Note_on_c, 6, 50, 84
12, 421259, Note_on_c, 6, 50, 0
12, 421260, Note_on_c, 6, 50, 84
12, 421319, Note_on_c, 6, 50, 0
12, 421320, Note_on_c, 6, 50, 84
12, 421379, Note_on_c, 6, 50, 0
12, 421380, Note_on_c, 6, 50, 84
12, 421439, Note_on_c, 6, 50, 0
12, 421440, Note_on_c, 6, 50, 84
12, 421499, Note_on_c, 6, 50, 0
12, 421500, Note_on_c, 6, 50, 84
12, 421559, Note_on_c, 6, 50, 0
12, 421560, Note_on_c, 6, 50, 84
12, 421619, Note_on_c, 6, 50, 0
12, 421620, Note_on_c, 6, 50, 84
12, 421679, Note_on_c, 6, 50, 0
12, 421680, Note_on_c, 6, 50, 84
12, 421739, Note_on_c, 6, 50, 0
12, 421740, Note_on_c, 6, 50, 84
12, 421799, Note_on_c, 6, 50, 0
12, 421800, Note_on_c, 6, 50, 84
12, 421859, Note_on_c, 6, 50, 0
12, 421860, Note_on_c, 6, 50, 84
12, 421919, Note_on_c, 6, 50, 0
12, 421920, Note_on_c, 6, 50, 84
12, 422159, Note_on_c, 6, 50, 0
12, 422880, Note_on_c, 6, 50, 84
12, 423119, Note_on_c, 6, 50, 0
12, 423360, Note_on_c, 6, 50, 84
12, 423599, Note_on_c, 6, 50, 0
12, 423840, Note_on_c, 6, 50, 84
12, 424079, Note_on_c, 6, 50, 0
12, 424800, Note_on_c, 6, 50, 84
12, 425039, Note_on_c, 6, 50, 0
12, 425760, Note_on_c, 6, 50, 84
12, 425999, Note_on_c, 6, 50, 0
12, 425999, End_track
13, 0, Start_track
13, 0, Title_t, "Violin I"
13, 0, MIDI_port, 0
13, 0, Program_c, 11, 48
13, 0, Control_c, 11, 7, 96
13, 0, Control_c, 11, 10, 48
13, 0, Control_c, 11, 11, 127
13, 360, Note_on_c, 11, 78, 76
13, 479, Note_on_c, 11, 78, 0
13, 480, Note_on_c, 11, 79, 76
13, 659, Note_on_c, 11, 79, 0
13, 840, Note_on_c, 11, 61, 76
13, 929, Note_on_c, 11, 61, 0
13, 960, Note_on_c, 11, 61, 84
13, 1019, Note_on_c, 11, 61, 0
13, 1020, Note_on_c, 11, 62, 76
13, 1079, Note_on_c, 11, 62, 0
13, 1080, Note_on_c, 11, 61, 76
13, 1139, Note_on_c, 11, 61, 0
13, 1140, Note_on_c, 11, 62, 76
13, 1199, Note_on_c, 11, 62, 0
13, 1200, Note_on_c, 11, 61, 76
13, 1259, Note_on_c, 11, 61, 0
13, 1260, Note_on_c, 11, 62, 76
13, 1319, Note_on_c, 11, 62, 0
13, 1320, Note_on_c, 11, 59, 76
13, 1379, Note_on_c, 11, 59, 0
13, 1380, Note_on_c, 11, 61, 76
13, 1424, Note_on_c, 11, 61, 0
13, 1440, Note_on_c, 11, 64, 76
13, 1619, Note_on_c, 11, 64, 0
13, 1680, Note_on_c, 11, 57, 76
13, 1859, Note_on_c, 11, 57, 0
13, 2160, Note_on_c, 11, 69, 52
13, 2249, Note_on_c, 11, 69, 0
13, 2280, Note_on_c, 11, 69, 52
13, 2369, Note_on_c, 11, 69, 0
13, 2400, Note_on_c, 11, 74, 52
13, 2519, Note_on_c, 11, 74, 0
13, 2520, Note_on_c, 11, 69, 52
13, 2609, Note_on_c, 11, 69, 0
13, 2640, Note_on_c, 11, 78, 52
13, 2729, Note_on_c, 11, 78, 0
13, 2760, Note_on_c, 11, 78, 52
13, 2849, Note_on_c, 11, 78, 0
13, 2880, Note_on_c, 11, 76, 52
13, 2999, Note_on_c, 11, 76, 0
13, 3000, Note_on_c, 11, 69, 52
13, 3089, Note_on_c, 11, 69, 0
13, 3120, Note_on_c, 11, 79, 52
13, 3209, Note_on_c, 11, 79, 0
13, 3240, Note_on_c, 11, 79, 52
13, 3329, Note_on_c, 11, 79, 0
13, 3360, Note_on_c, 11, 78, 52
13, 3479, Note_on_c, 11, 78, 0
13, 3480, Note_on_c, 11, 69, 52
13, 3569, Note_on_c, 11, 69, 0
13, 3600, Note_on_c, 11, 81, 52
13, 3689, Note_on_c, 11, 81, 0
13, 3720, Note_on_c, 11, 81, 52
13, 3809, Note_on_c, 11, 81, 0
13, 3840, Note_on_c, 11, 81, 52
13, 3959, Note_on_c, 11, 81, 0
13, 3960, Note_on_c, 11, 79, 52
13, 4049, Note_on_c, 11, 79, 0
13, 4080, Note_on_c, 11, 78, 52
13, 4169, Note_on_c, 11, 78, 0
13, 4200, Note_on_c, 11, 76, 52
13, 4289, Note_on_c, 11, 76, 0
13, 4320, Note_on_c, 11, 76, 52
13, 4439, Note_on_c, 11, 76, 0
13, 4440, Note_on_c, 11, 74, 52
13, 4529, Note_on_c, 11, 74, 0
13, 4560, Note_on_c, 11, 74, 52
13, 4649, Note_on_c, 11, 74, 0
13, 4680, Note_on_c, 11, 74, 52
13, 4769, Note_on_c, 11, 74, 0
13, 4800, Note_on_c, 11, 74, 52
13, 4919, Note_on_c, 11, 74, 0
13, 4920, Note_on_c, 11, 73, 52
13, 5009, Note_on_c, 11, 73, 0
13, 5040, Note_on_c, 11, 71, 52
13, 5129, Note_on_c, 11, 71, 0
13, 5160, Note_on_c, 11, 73, 52
13, 5249, Note_on_c, 11, 73, 0
13, 5280, Note_on_c, 11, 74, 76
13, 5459, Note_on_c, 11, 74, 0
13, 5520, Note_on_c, 11, 76, 76
13, 5520, Note_on_c, 11, 69, 76
13, 5699, Note_on_c, 11, 76, 0
13, 5699, Note_on_c, 11, 69, 0
13, 6120, Note_on_c, 11, 78, 84
13, 6239, Note_on_c, 11, 78, 0
13, 6240, Note_on_c, 11, 79, 84
13, 6419, Note_on_c, 11, 79, 0
13, 6600, Note_on_c, 11, 61, 84
13, 6689, Note_on_c, 11, 61, 0
13, 6720, Note_on_c, 11, 61, 92
13, 6779, Note_on_c, 11, 61, 0
13, 6780, Note_on_c, 11, 62, 84
13, 6839, Note_on_c, 11, 62, 0
13, 6840, Note_on_c, 11, 61, 84
13, 6899, Note_on_c, 11, 61, 0
13, 6900, Note_on_c, 11, 62, 84
13, 6959, Note_on_c, 11, 62, 0
13, 6960, Note_on_c, 11, 61, 84
13, 7019, Note_on_c, 11, 61, 0
13, 7020, Note_on_c, 11, 62, 84
13, 7079, Note_on_c, 11, 62, 0
13, 7080, Note_on_c, 11, 59, 84
13, 7139, Note_on_c, 11, 59, 0
13, 7140, Note_on_c, 11, 61, 84
13, 7184, Note_on_c, 11, 61, 0
13, 7200, Note_on_c, 11, 64, 84
13, 7379, Note_on_c, 11, 64, 0
13, 7440, Note_on_c, 11, 57, 84
13, 7619, Note_on_c, 11, 57, 0
13, 7920, Note_on_c, 11, 69, 52
13, 8009, Note_on_c, 11, 69, 0
13, 8040, Note_on_c, 11, 69, 52
13, 8129, Note_on_c, 11, 69, 0
13, 8160, Note_on_c, 11, 74, 52
13, 8279, Note_on_c, 11, 74, 0
13, 8280, Note_on_c, 11, 69, 52
13, 8369, Note_on_c, 11, 69, 0
13, 8400, Note_on_c, 11, 78, 52
13, 8489, Note_on_c, 11, 78, 0
13, 8520, Note_on_c, 11, 78, 52
13, 8609, Note_on_c, 11, 78, 0
13, 8640, Note_on_c, 11, 76, 52
13, 8759, Note_on_c, 11, 76, 0
13, 8760, Note_on_c, 11, 69, 52
13, 8849, Note_on_c, 11, 69, 0
13, 8880, Note_on_c, 11, 79, 52
13, 8969, Note_on_c, 11, 79, 0
13, 9000, Note_on_c, 11, 79, 52
13, 9089, Note_on_c, 11, 79, 0
13, 9120, Note_on_c, 11, 78, 52
13, 9239, Note_on_c, 11, 78, 0
13, 9240, Note_on_c, 11, 69, 52
13, 9329, Note_on_c, 11, 69, 0
13, 9360, Note_on_c, 11, 81, 52
13, 9449, Note_on_c, 11, 81, 0
13, 9480, Note_on_c, 11, 81, 52
13, 9569, Note_on_c, 11, 81, 0
13, 9600, Note_on_c, 11, 81, 52
13, 9719, Note_on_c, 11, 81, 0
13, 9720, Note_on_c, 11, 79, 52
13, 9809, Note_on_c, 11, 79, 0
13, 9840, Note_on_c, 11, 78, 52
13, 9929, Note_on_c, 11, 78, 0
13, 9960, Note_on_c, 11, 76, 52
13, 10049, Note_on_c, 11, 76, 0
13, 10080, Note_on_c, 11, 76, 52
13, 10199, Note_on_c, 11, 76, 0
13, 10200, Note_on_c, 11, 74, 52
13, 10289, Note_on_c, 11, 74, 0
13, 10320, Note_on_c, 11, 74, 52
13, 10409, Note_on_c, 11, 74, 0
13, 10440, Note_on_c, 11, 74, 52
13, 10529, Note_on_c, 11, 74, 0
13, 10560, Note_on_c, 11, 74, 52
13, 10679, Note_on_c, 11, 74, 0
13, 10680, Note_on_c, 11, 73, 52
13, 10769, Note_on_c, 11, 73, 0
13, 10800, Note_on_c, 11, 71, 52
13, 10889, Note_on_c, 11, 71, 0
13, 10920, Note_on_c, 11, 73, 52
13, 11009, Note_on_c, 11, 73, 0
13, 11040, Note_on_c, 11, 62, 76
13, 11040, Note_on_c, 11, 74, 76
13, 11279, Note_on_c, 11, 62, 0
13, 11279, Note_on_c, 11, 74, 0
13, 11880, Note_on_c, 11, 62, 76
13, 11969, Note_on_c, 11, 62, 0
13, 12000, Note_on_c, 11, 64, 76
13, 12179, Note_on_c, 11, 64, 0
13, 12240, Note_on_c, 11, 66, 76
13, 12419, Note_on_c, 11, 66, 0
13, 12480, Note_on_c, 11, 67, 76
13, 12659, Note_on_c, 11, 67, 0
13, 12720, Note_on_c, 11, 65, 76
13, 12899, Note_on_c, 11, 65, 0
13, 12960, Note_on_c, 11, 66, 76
13, 13199, Note_on_c, 11, 66, 0
13, 13800, Note_on_c, 11, 66, 76
13, 13889, Note_on_c, 11, 66, 0
13, 13920, Note_on_c, 11, 67, 76
13, 14099, Note_on_c, 11, 67, 0
13, 14160, Note_on_c, 11, 69, 76
13, 14339, Note_on_c, 11, 69, 0
13, 14400, Note_on_c, 11, 71, 76
13, 14579, Note_on_c, 11, 71, 0
13, 14640, Note_on_c, 11, 73, 76
13, 14819, Note_on_c, 11, 73, 0
13, 14880, Note_on_c, 11, 74, 84
13, 15119, Note_on_c, 11, 74, 0
13, 15600, Note_on_c, 11, 74, 76
13, 15689, Note_on_c, 11, 74, 0
13, 15720, Note_on_c, 11, 73, 76
13, 15809, Note_on_c, 11, 73, 0
13, 15840, Note_on_c, 11, 76, 76
13, 15929, Note_on_c, 11, 76, 0
13, 15960, Note_on_c, 11, 76, 76
13, 16049, Note_on_c, 11, 76, 0
13, 16080, Note_on_c, 11, 78, 76
13, 16169, Note_on_c, 11, 78, 0
13, 16200, Note_on_c, 11, 78, 76
13, 16289, Note_on_c, 11, 78, 0
13, 16320, Note_on_c, 11, 79, 76
13, 16409, Note_on_c, 11, 79, 0
13, 16440, Note_on_c, 11, 79, 76
13, 16529, Note_on_c, 11, 79, 0
13, 16560, Note_on_c, 11, 77, 76
13, 16649, Note_on_c, 11, 77, 0
13, 16680, Note_on_c, 11, 77, 76
13, 16769, Note_on_c, 11, 77, 0
13, 16800, Note_on_c, 11, 78, 84
13, 17039, Note_on_c, 11, 78, 0
13, 17520, Note_on_c, 11, 78, 76
13, 17609, Note_on_c, 11, 78, 0
13, 17640, Note_on_c, 11, 78, 76
13, 17729, Note_on_c, 11, 78, 0
13, 17760, Note_on_c, 11, 79, 76
13, 17849, Note_on_c, 11, 79, 0
13, 17880, Note_on_c, 11, 79, 76
13, 17969, Note_on_c, 11, 79, 0
13, 18000, Note_on_c, 11, 78, 76
13, 18089, Note_on_c, 11, 78, 0
13, 18120, Note_on_c, 11, 78, 76
13, 18209, Note_on_c, 11, 78, 0
13, 18240, Note_on_c, 11, 79, 76
13, 18329, Note_on_c, 11, 79, 0
13, 18360, Note_on_c, 11, 79, 76
13, 18449, Note_on_c, 11, 79, 0
13, 18480, Note_on_c, 11, 80, 76
13, 18569, Note_on_c, 11, 80, 0
13, 18600, Note_on_c, 11, 80, 76
13, 18689, Note_on_c, 11, 80, 0
13, 18720, Note_on_c, 11, 81, 84
13, 18809, Note_on_c, 11, 81, 0
13, 18840, Note_on_c, 11, 81, 84
13, 18929, Note_on_c, 11, 81, 0
13, 18960, Note_on_c, 11, 81, 84
13, 19049, Note_on_c, 11, 81, 0
13, 19080, Note_on_c, 11, 81, 84
13, 19169, Note_on_c, 11, 81, 0
13, 19200, Note_on_c, 11, 85, 84
13, 19289, Note_on_c, 11, 85, 0
13, 19320, Note_on_c, 11, 81, 84
13, 19409, Note_on_c, 11, 81, 0
13, 19440, Note_on_c, 11, 81, 84
13, 19529, Note_on_c, 11, 81, 0
13, 19560, Note_on_c, 11, 81, 84
13, 19649, Note_on_c, 11, 81, 0
13, 19680, Note_on_c, 11, 86, 84
13, 19769, Note_on_c, 11, 86, 0
13, 19800, Note_on_c, 11, 81, 84
13, 19889, Note_on_c, 11, 81, 0
13, 19920, Note_on_c, 11, 81, 84
13, 20009, Note_on_c, 11, 81, 0
13, 20040, Note_on_c, 11, 81, 84
13, 20129, Note_on_c, 11, 81, 0
13, 20160, Note_on_c, 11, 86, 84
13, 20249, Note_on_c, 11, 86, 0
13, 20280, Note_on_c, 11, 80, 84
13, 20369, Note_on_c, 11, 80, 0
13, 20400, Note_on_c, 11, 80, 84
13, 20489, Note_on_c, 11, 80, 0
13, 20520, Note_on_c, 11, 80, 84
13, 20609, Note_on_c, 11, 80, 0
13, 20640, Note_on_c, 11, 83, 84
13, 20729, Note_on_c, 11, 83, 0
13, 20760, Note_on_c, 11, 81, 84
13, 20849, Note_on_c, 11, 81, 0
13, 20880, Note_on_c, 11, 81, 84
13, 20969, Note_on_c, 11, 81, 0
13, 21000, Note_on_c, 11, 81, 84
13, 21089, Note_on_c, 11, 81, 0
13, 21120, Note_on_c, 11, 85, 84
13, 21209, Note_on_c, 11, 85, 0
13, 21240, Note_on_c, 11, 81, 84
13, 21329, Note_on_c, 11, 81, 0
13, 21360, Note_on_c, 11, 81, 84
13, 21449, Note_on_c, 11, 81, 0
13, 21480, Note_on_c, 11, 81, 84
13, 21569, Note_on_c, 11, 81, 0
13, 21600, Note_on_c, 11, 86, 84
13, 21689, Note_on_c, 11, 86, 0
13, 21720, Note_on_c, 11, 81, 84
13, 21809, Note_on_c, 11, 81, 0
13, 21840, Note_on_c, 11, 81, 84
13, 21929, Note_on_c, 11, 81, 0
13, 21960, Note_on_c, 11, 81, 84
13, 22049, Note_on_c, 11, 81, 0
13, 22080, Note_on_c, 11, 86, 84
13, 22169, Note_on_c, 11, 86, 0
13, 22200, Note_on_c, 11, 80, 84
13, 22289, Note_on_c, 11, 80, 0
13, 22320, Note_on_c, 11, 80, 84
13, 22409, Note_on_c, 11, 80, 0
13, 22440, Note_on_c, 11, 80, 84
13, 22529, Note_on_c, 11, 80, 0
13, 22560, Note_on_c, 11, 81, 84
13, 22769, Note_on_c, 11, 81, 0
13, 22800, Note_on_c, 11, 57, 84
13, 23009, Note_on_c, 11, 57, 0
13, 23040, Note_on_c, 11, 57, 84
13, 23249, Note_on_c, 11, 57, 0
13, 23280, Note_on_c, 11, 57, 84
13, 23489, Note_on_c, 11, 57, 0
13, 23520, Note_on_c, 11, 57, 84
13, 23759, Note_on_c, 11, 57, 0
13, 25440, Note_on_c, 11, 69, 48
13, 27359, Note_on_c, 11, 69, 0
13, 27360, Note_on_c, 11, 69, 48
13, 28799, Note_on_c, 11, 69, 0
13, 28800, Note_on_c, 11, 67, 48
13, 29039, Note_on_c, 11, 67, 0
13, 29040, Note_on_c, 11, 66, 48
13, 29249, Note_on_c, 11, 66, 0
13, 29280, Note_on_c, 11, 71, 48
13, 29759, Note_on_c, 11, 71, 0
13, 29760, Note_on_c, 11, 69, 48
13, 29999, Note_on_c, 11, 69, 0
13, 30000, Note_on_c, 11, 68, 48
13, 30209, Note_on_c, 11, 68, 0
13, 30240, Note_on_c, 11, 73, 48
13, 30479, Note_on_c, 11, 73, 0
13, 31200, Note_on_c, 11, 76, 48
13, 31679, Note_on_c, 11, 76, 0
13, 31680, Note_on_c, 11, 78, 48
13, 31919, Note_on_c, 11, 78, 0
13, 31920, Note_on_c, 11, 80, 48
13, 32129, Note_on_c, 11, 80, 0
13, 32160, Note_on_c, 11, 81, 48
13, 32339, Note_on_c, 11, 81, 0
13, 33120, Note_on_c, 11, 76, 48
13, 33599, Note_on_c, 11, 76, 0
13, 33600, Note_on_c, 11, 78, 48
13, 33839, Note_on_c, 11, 78, 0
13, 33840, Note_on_c, 11, 80, 48
13, 34049, Note_on_c, 11, 80, 0
13, 34080, Note_on_c, 11, 81, 48
13, 34259, Note_on_c, 11, 81, 0
13, 34320, Control_c, 11, 11, 96
13, 34560, Control_c, 11, 11, 96
13, 34560, Note_on_c, 11, 69, 68
13, 34680, Control_c, 11, 11, 99
13, 34800, Control_c, 11, 11, 101
13, 34920, Control_c, 11, 11, 104
13, 35040, Control_c, 11, 11, 106
13, 35160, Control_c, 11, 11, 109
13, 35280, Control_c, 11, 11, 112
13, 35400, Control_c, 11, 11, 114
13, 35489, Note_on_c, 11, 69, 0
13, 35520, Note_on_c, 11, 69, 68
13, 35520, Control_c, 11, 11, 117
13, 35640, Control_c, 11, 11, 119
13, 35760, Control_c, 11, 11, 122
13, 35880, Control_c, 11, 11, 124
13, 36000, Control_c, 11, 11, 96
13, 36239, Note_on_c, 11, 69, 0
13, 36720, Control_c, 11, 11, 127
13, 36960, Note_on_c, 11, 57, 52
13, 36960, Note_on_c, 11, 67, 52
13, 37199, Note_on_c, 11, 57, 0
13, 37199, Note_on_c, 11, 67, 0
13, 37920, Note_on_c, 11, 57, 52
13, 37920, Note_on_c, 11, 66, 52
13, 38159, Note_on_c, 11, 57, 0
13, 38159, Note_on_c, 11, 66, 0
13, 38880, Note_on_c, 11, 57, 52
13, 38880, Note_on_c, 11, 67, 52
13, 39119, Note_on_c, 11, 57, 0
13, 39119, Note_on_c, 11, 67, 0
13, 39600, Control_c, 11, 11, 80
13, 39840, Note_on_c, 11, 66, 76
13, 39840, Note_on_c, 11, 57, 76
13, 39840, Control_c, 11, 11, 80
13, 40000, Control_c, 11, 11, 84
13, 40049, Note_on_c, 11, 66, 0
13, 40049, Note_on_c, 11, 57, 0
13, 40080, Note_on_c, 11, 69, 76
13, 40160, Control_c, 11, 11, 88
13, 40320, Control_c, 11, 11, 92
13, 40480, Control_c, 11, 11, 96
13, 40559, Note_on_c, 11, 69, 0
13, 40560, Note_on_c, 11, 70, 76
13, 40640, Control_c, 11, 11, 100
13, 40799, Note_on_c, 11, 70, 0
13, 40800, Note_on_c, 11, 71, 76
13, 40800, Control_c, 11, 11, 104
13, 40960, Control_c, 11, 11, 107
13, 41039, Note_on_c, 11, 71, 0
13, 41040, Note_on_c, 11, 73, 76
13, 41120, Control_c, 11, 11, 111
13, 41279, Note_on_c, 11, 73, 0
13, 41280, Note_on_c, 11, 74, 76
13, 41280, Control_c, 11, 11, 115
13, 41440, Control_c, 11, 11, 119
13, 41519, Note_on_c, 11, 74, 0
13, 41520, Note_on_c, 11, 78, 76
13, 41600, Control_c, 11, 11, 127
13, 41729, Note_on_c, 11, 78, 0
13, 41760, Note_on_c, 11, 64, 76
13, 41849, Note_on_c, 11, 64, 0
13, 41880, Note_on_c, 11, 64, 76
13, 41969, Note_on_c, 11, 64, 0
13, 42000, Note_on_c, 11, 68, 76
13, 42089, Note_on_c, 11, 68, 0
13, 42120, Note_on_c, 11, 68, 76
13, 42209, Note_on_c, 11, 68, 0
13, 42240, Note_on_c, 11, 71, 76
13, 42329, Note_on_c, 11, 71, 0
13, 42360, Note_on_c, 11, 71, 76
13, 42449, Note_on_c, 11, 71, 0
13, 42480, Note_on_c, 11, 76, 76
13, 42569, Note_on_c, 11, 76, 0
13, 42600, Note_on_c, 11, 76, 76
13, 42689, Note_on_c, 11, 76, 0
13, 42720, Note_on_c, 11, 80, 84
13, 43409, Note_on_c, 11, 80, 0
13, 43440, Note_on_c, 11, 64, 76
13, 43529, Note_on_c, 11, 64, 0
13, 43560, Note_on_c, 11, 64, 76
13, 43649, Note_on_c, 11, 64, 0
13, 43680, Note_on_c, 11, 66, 76
13, 43769, Note_on_c, 11, 66, 0
13, 43800, Note_on_c, 11, 66, 76
13, 43889, Note_on_c, 11, 66, 0
13, 43920, Note_on_c, 11, 69, 76
13, 44009, Note_on_c, 11, 69, 0
13, 44040, Note_on_c, 11, 69, 76
13, 44129, Note_on_c, 11, 69, 0
13, 44160, Note_on_c, 11, 75, 76
13, 44249, Note_on_c, 11, 75, 0
13, 44280, Note_on_c, 11, 75, 76
13, 44369, Note_on_c, 11, 75, 0
13, 44400, Note_on_c, 11, 78, 76
13, 44489, Note_on_c, 11, 78, 0
13, 44520, Note_on_c, 11, 78, 76
13, 44609, Note_on_c, 11, 78, 0
13, 44640, Note_on_c, 11, 81, 84
13, 45329, Note_on_c, 11, 81, 0
13, 45360, Note_on_c, 11, 66, 76
13, 45449, Note_on_c, 11, 66, 0
13, 45480, Note_on_c, 11, 66, 76
13, 45569, Note_on_c, 11, 66, 0
13, 45600, Note_on_c, 11, 68, 76
13, 45689, Note_on_c, 11, 68, 0
13, 45720, Note_on_c, 11, 68, 76
13, 45809, Note_on_c, 11, 68, 0
13, 45840, Note_on_c, 11, 83, 76
13, 45929, Note_on_c, 11, 83, 0
13, 45960, Note_on_c, 11, 83, 76
13, 46049, Note_on_c, 11, 83, 0
13, 46080, Note_on_c, 11, 83, 84
13, 46169, Note_on_c, 11, 83, 0
13, 46200, Note_on_c, 11, 83, 76
13, 46289, Note_on_c, 11, 83, 0
13, 46320, Note_on_c, 11, 68, 76
13, 46409, Note_on_c, 11, 68, 0
13, 46440, Note_on_c, 11, 68, 76
13, 46529, Note_on_c, 11, 68, 0
13, 46560, Note_on_c, 11, 69, 76
13, 46649, Note_on_c, 11, 69, 0
13, 46680, Note_on_c, 11, 69, 76
13, 46769, Note_on_c, 11, 69, 0
13, 46800, Note_on_c, 11, 85, 76
13, 46889, Note_on_c, 11, 85, 0
13, 46920, Note_on_c, 11, 85, 76
13, 47009, Note_on_c, 11, 85, 0
13, 47040, Note_on_c, 11, 85, 84
13, 47129, Note_on_c, 11, 85, 0
13, 47160, Note_on_c, 11, 85, 76
13, 47249, Note_on_c, 11, 85, 0
13, 47280, Note_on_c, 11, 69, 76
13, 47369, Note_on_c, 11, 69, 0
13, 47400, Note_on_c, 11, 69, 76
13, 47489, Note_on_c, 11, 69, 0
13, 47520, Note_on_c, 11, 71, 76
13, 47609, Note_on_c, 11, 71, 0
13, 47640, Note_on_c, 11, 71, 76
13, 47729, Note_on_c, 11, 71, 0
13, 47760, Note_on_c, 11, 86, 76
13, 47849, Note_on_c, 11, 86, 0
13, 47880, Note_on_c, 11, 86, 76
13, 47969, Note_on_c, 11, 86, 0
13, 48000, Note_on_c, 11, 86, 84
13, 48089, Note_on_c, 11, 86, 0
13, 48120, Note_on_c, 11, 86, 76
13, 48209, Note_on_c, 11, 86, 0
13, 48240, Note_on_c, 11, 83, 76
13, 48329, Note_on_c, 11, 83, 0
13, 48360, Note_on_c, 11, 83, 76
13, 48449, Note_on_c, 11, 83, 0
13, 48480, Note_on_c, 11, 80, 76
13, 48569, Note_on_c, 11, 80, 0
13, 48600, Note_on_c, 11, 80, 76
13, 48689, Note_on_c, 11, 80, 0
13, 48720, Note_on_c, 11, 76, 76
13, 48809, Note_on_c, 11, 76, 0
13, 48840, Note_on_c, 11, 76, 76
13, 48929, Note_on_c, 11, 76, 0
13, 48960, Note_on_c, 11, 74, 76
13, 49049, Note_on_c, 11, 74, 0
13, 49080, Note_on_c, 11, 74, 76
13, 49169, Note_on_c, 11, 74, 0
13, 49200, Note_on_c, 11, 71, 76
13, 49289, Note_on_c, 11, 71, 0
13, 49320, Note_on_c, 11, 71, 76
13, 49409, Note_on_c, 11, 71, 0
13, 49440, Note_on_c, 11, 73, 52
13, 49619, Note_on_c, 11, 73, 0
13, 49680, Note_on_c, 11, 76, 52
13, 49859, Note_on_c, 11, 76, 0
13, 49920, Note_on_c, 11, 73, 52
13, 50099, Note_on_c, 11, 73, 0
13, 50160, Note_on_c, 11, 76, 52
13, 50339, Note_on_c, 11, 76, 0
13, 50640, Note_on_c, 11, 76, 52
13, 50819, Note_on_c, 11, 76, 0
13, 50880, Note_on_c, 11, 73, 52
13, 51059, Note_on_c, 11, 73, 0
13, 51120, Note_on_c, 11, 76, 52
13, 51299, Note_on_c, 11, 76, 0
13, 51600, Note_on_c, 11, 76, 52
13, 51779, Note_on_c, 11, 76, 0
13, 51840, Note_on_c, 11, 74, 52
13, 52019, Note_on_c, 11, 74, 0
13, 52080, Note_on_c, 11, 76, 52
13, 52259, Note_on_c, 11, 76, 0
13, 52560, Note_on_c, 11, 83, 68
13, 52679, Note_on_c, 11, 83, 0
13, 52680, Note_on_c, 11, 81, 52
13, 52799, Note_on_c, 11, 81, 0
13, 52800, Note_on_c, 11, 80, 52
13, 52919, Note_on_c, 11, 80, 0
13, 52920, Note_on_c, 11, 78, 52
13, 53039, Note_on_c, 11, 78, 0
13, 53040, Note_on_c, 11, 76, 52
13, 53159, Note_on_c, 11, 76, 0
13, 53160, Note_on_c, 11, 80, 52
13, 53249, Note_on_c, 11, 80, 0
13, 53280, Note_on_c, 11, 81, 52
13, 53459, Note_on_c, 11, 81, 0
13, 53520, Note_on_c, 11, 76, 52
13, 53699, Note_on_c, 11, 76, 0
13, 53760, Note_on_c, 11, 73, 52
13, 53939, Note_on_c, 11, 73, 0
13, 54000, Note_on_c, 11, 76, 52
13, 54179, Note_on_c, 11, 76, 0
13, 54480, Note_on_c, 11, 76, 52
13, 54659, Note_on_c, 11, 76, 0
13, 54720, Note_on_c, 11, 73, 52
13, 54899, Note_on_c, 11, 73, 0
13, 54960, Note_on_c, 11, 76, 52
13, 55139, Note_on_c, 11, 76, 0
13, 55440, Note_on_c, 11, 76, 52
13, 55619, Note_on_c, 11, 76, 0
13, 55680, Note_on_c, 11, 74, 52
13, 55859, Note_on_c, 11, 74, 0
13, 55920, Note_on_c, 11, 76, 52
13, 56099, Note_on_c, 11, 76, 0
13, 56400, Note_on_c, 11, 83, 68
13, 56519, Note_on_c, 11, 83, 0
13, 56520, Note_on_c, 11, 81, 52
13, 56639, Note_on_c, 11, 81, 0
13, 56640, Note_on_c, 11, 80, 52
13, 56759, Note_on_c, 11, 80, 0
13, 56760, Note_on_c, 11, 78, 52
13, 56879, Note_on_c, 11, 78, 0
13, 56880, Note_on_c, 11, 76, 52
13, 56999, Note_on_c, 11, 76, 0
13, 57000, Note_on_c, 11, 80, 52
13, 57089, Note_on_c, 11, 80, 0
13, 57105, Control_c, 11, 11, 96
13, 57120, Note_on_c, 11, 81, 68
13, 57299, Note_on_c, 11, 81, 0
13, 57360, Note_on_c, 11, 76, 68
13, 57360, Control_c, 11, 11, 99
13, 57539, Note_on_c, 11, 76, 0
13, 57600, Control_c, 11, 11, 101
13, 57600, Note_on_c, 11, 73, 68
13, 57779, Note_on_c, 11, 73, 0
13, 57840, Note_on_c, 11, 76, 68
13, 57840, Control_c, 11, 11, 104
13, 58019, Note_on_c, 11, 76, 0
13, 58080, Control_c, 11, 11, 106
13, 58320, Control_c, 11, 11, 109
13, 58320, Note_on_c, 11, 78, 68
13, 58499, Note_on_c, 11, 78, 0
13, 58560, Control_c, 11, 11, 112
13, 58560, Note_on_c, 11, 73, 68
13, 58739, Note_on_c, 11, 73, 0
13, 58800, Control_c, 11, 11, 114
13, 58800, Note_on_c, 11, 78, 68
13, 58979, Note_on_c, 11, 78, 0
13, 59040, Control_c, 11, 11, 117
13, 59280, Control_c, 11, 11, 119
13, 59280, Note_on_c, 11, 78, 68
13, 59459, Note_on_c, 11, 78, 0
13, 59520, Control_c, 11, 11, 122
13, 59520, Note_on_c, 11, 74, 68
13, 59699, Note_on_c, 11, 74, 0
13, 59760, Control_c, 11, 11, 124
13, 59760, Note_on_c, 11, 78, 68
13, 59939, Note_on_c, 11, 78, 0
13, 60000, Control_c, 11, 11, 127
13, 60240, Note_on_c, 11, 81, 76
13, 60419, Note_on_c, 11, 81, 0
13, 60480, Note_on_c, 11, 76, 68
13, 60659, Note_on_c, 11, 76, 0
13, 60720, Note_on_c, 11, 81, 68
13, 60899, Note_on_c, 11, 81, 0
13, 60960, Control_c, 11, 11, 127
13, 61040, Control_c, 11, 11, 124
13, 61120, Control_c, 11, 11, 122
13, 61200, Note_on_c, 11, 81, 68
13, 61200, Control_c, 11, 11, 119
13, 61280, Control_c, 11, 11, 117
13, 61360, Control_c, 11, 11, 114
13, 61379, Note_on_c, 11, 81, 0
13, 61440, Note_on_c, 11, 78, 68
13, 61440, Control_c, 11, 11, 112
13, 61520, Control_c, 11, 11, 109
13, 61600, Control_c, 11, 11, 106
13, 61619, Note_on_c, 11, 78, 0
13, 61680, Note_on_c, 11, 81, 68
13, 61680, Control_c, 11, 11, 104
13, 61760, Control_c, 11, 11, 101
13, 61840, Control_c, 11, 11, 99
13, 61859, Note_on_c, 11, 81, 0
13, 61920, Control_c, 11, 11, 127
13, 62160, Note_on_c, 11, 78, 52
13, 62339, Note_on_c, 11, 78, 0
13, 62400, Note_on_c, 11, 74, 52
13, 62579, Note_on_c, 11, 74, 0
13, 62640, Note_on_c, 11, 78, 52
13, 62819, Note_on_c, 11, 78, 0
13, 63120, Note_on_c, 11, 76, 52
13, 63299, Note_on_c, 11, 76, 0
13, 63360, Note_on_c, 11, 73, 52
13, 63539, Note_on_c, 11, 73, 0
13, 63600, Note_on_c, 11, 76, 52
13, 63779, Note_on_c, 11, 76, 0
13, 64080, Note_on_c, 11, 76, 52
13, 64259, Note_on_c, 11, 76, 0
13, 64320, Note_on_c, 11, 71, 52
13, 64499, Note_on_c, 11, 71, 0
13, 64560, Note_on_c, 11, 76, 52
13, 64739, Note_on_c, 11, 76, 0
13, 64800, Note_on_c, 11, 76, 52
13, 64979, Note_on_c, 11, 76, 0
13, 65040, Note_on_c, 11, 76, 52
13, 65219, Note_on_c, 11, 76, 0
13, 65280, Note_on_c, 11, 72, 52
13, 65459, Note_on_c, 11, 72, 0
13, 65520, Note_on_c, 11, 76, 52
13, 65699, Note_on_c, 11, 76, 0
13, 66000, Note_on_c, 11, 76, 52
13, 66179, Note_on_c, 11, 76, 0
13, 66240, Note_on_c, 11, 72, 52
13, 66419, Note_on_c, 11, 72, 0
13, 66480, Note_on_c, 11, 76, 52
13, 66659, Note_on_c, 11, 76, 0
13, 66960, Note_on_c, 11, 76, 52
13, 67139, Note_on_c, 11, 76, 0
13, 67200, Note_on_c, 11, 74, 52
13, 67379, Note_on_c, 11, 74, 0
13, 67440, Note_on_c, 11, 76, 52
13, 67619, Note_on_c, 11, 76, 0
13, 67920, Note_on_c, 11, 83, 68
13, 68039, Note_on_c, 11, 83, 0
13, 68040, Note_on_c, 11, 81, 52
13, 68159, Note_on_c, 11, 81, 0
13, 68160, Note_on_c, 11, 80, 52
13, 68279, Note_on_c, 11, 80, 0
13, 68280, Note_on_c, 11, 78, 52
13, 68399, Note_on_c, 11, 78, 0
13, 68400, Note_on_c, 11, 76, 52
13, 68519, Note_on_c, 11, 76, 0
13, 68520, Note_on_c, 11, 80, 52
13, 68609, Note_on_c, 11, 80, 0
13, 68625, Control_c, 11, 11, 96
13, 68640, Note_on_c, 11, 81, 68
13, 68819, Note_on_c, 11, 81, 0
13, 68880, Note_on_c, 11, 76, 68
13, 68960, Control_c, 11, 11, 99
13, 69059, Note_on_c, 11, 76, 0
13, 69120, Note_on_c, 11, 72, 68
13, 69280, Control_c, 11, 11, 101
13, 69299, Note_on_c, 11, 72, 0
13, 69360, Note_on_c, 11, 76, 68
13, 69539, Note_on_c, 11, 76, 0
13, 69600, Control_c, 11, 11, 104
13, 69840, Note_on_c, 11, 76, 68
13, 69920, Control_c, 11, 11, 106
13, 70019, Note_on_c, 11, 76, 0
13, 70080, Note_on_c, 11, 72, 68
13, 70240, Control_c, 11, 11, 109
13, 70259, Note_on_c, 11, 72, 0
13, 70320, Note_on_c, 11, 76, 68
13, 70499, Note_on_c, 11, 76, 0
13, 70560, Control_c, 11, 11, 112
13, 70800, Note_on_c, 11, 79, 68
13, 70880, Control_c, 11, 11, 114
13, 70979, Note_on_c, 11, 79, 0
13, 71040, Note_on_c, 11, 74, 68
13, 71200, Control_c, 11, 11, 117
13, 71219, Note_on_c, 11, 74, 0
13, 71280, Note_on_c, 11, 79, 68
13, 71459, Note_on_c, 11, 79, 0
13, 71520, Control_c, 11, 11, 119
13, 71760, Note_on_c, 11, 79, 68
13, 71840, Control_c, 11, 11, 122
13, 71939, Note_on_c, 11, 79, 0
13, 72000, Note_on_c, 11, 74, 68
13, 72160, Control_c, 11, 11, 124
13, 72179, Note_on_c, 11, 74, 0
13, 72240, Note_on_c, 11, 79, 68
13, 72419, Note_on_c, 11, 79, 0
13, 72480, Control_c, 11, 11, 127
13, 72720, Note_on_c, 11, 79, 52
13, 72899, Note_on_c, 11, 79, 0
13, 72960, Note_on_c, 11, 76, 52
13, 73139, Note_on_c, 11, 76, 0
13, 73200, Note_on_c, 11, 79, 52
13, 73379, Note_on_c, 11, 79, 0
13, 73680, Note_on_c, 11, 77, 52
13, 73859, Note_on_c, 11, 77, 0
13, 73920, Note_on_c, 11, 74, 52
13, 74099, Note_on_c, 11, 74, 0
13, 74160, Note_on_c, 11, 77, 52
13, 74339, Note_on_c, 11, 77, 0
13, 74640, Note_on_c, 11, 76, 52
13, 74819, Note_on_c, 11, 76, 0
13, 74880, Note_on_c, 11, 72, 52
13, 75059, Note_on_c, 11, 72, 0
13, 75120, Note_on_c, 11, 76, 52
13, 75299, Note_on_c, 11, 76, 0
13, 75600, Note_on_c, 11, 74, 52
13, 75779, Note_on_c, 11, 74, 0
13, 75840, Note_on_c, 11, 71, 52
13, 76019, Note_on_c, 11, 71, 0
13, 76080, Note_on_c, 11, 74, 52
13, 76259, Note_on_c, 11, 74, 0
13, 76320, Control_c, 11, 11, 80
13, 76560, Note_on_c, 11, 76, 76
13, 76640, Control_c, 11, 11, 84
13, 76739, Note_on_c, 11, 76, 0
13, 76800, Note_on_c, 11, 72, 76
13, 76960, Control_c, 11, 11, 88
13, 76979, Note_on_c, 11, 72, 0
13, 77040, Note_on_c, 11, 76, 76
13, 77219, Note_on_c, 11, 76, 0
13, 77280, Control_c, 11, 11, 92
13, 77520, Note_on_c, 11, 74, 76
13, 77600, Control_c, 11, 11, 96
13, 77699, Note_on_c, 11, 74, 0
13, 77760, Note_on_c, 11, 70, 76
13, 77920, Control_c, 11, 11, 100
13, 77939, Note_on_c, 11, 70, 0
13, 78000, Note_on_c, 11, 74, 76
13, 78179, Note_on_c, 11, 74, 0
13, 78240, Control_c, 11, 11, 104
13, 78480, Note_on_c, 11, 72, 76
13, 78560, Control_c, 11, 11, 107
13, 78659, Note_on_c, 11, 72, 0
13, 78720, Note_on_c, 11, 69, 76
13, 78880, Control_c, 11, 11, 111
13, 78899, Note_on_c, 11, 69, 0
13, 78960, Note_on_c, 11, 72, 76
13, 79139, Note_on_c, 11, 72, 0
13, 79200, Control_c, 11, 11, 115
13, 79440, Note_on_c, 11, 71, 76
13, 79520, Control_c, 11, 11, 119
13, 79619, Note_on_c, 11, 71, 0
13, 79680, Note_on_c, 11, 68, 76
13, 79840, Control_c, 11, 11, 123
13, 79859, Note_on_c, 11, 68, 0
13, 79920, Note_on_c, 11, 71, 76
13, 80099, Note_on_c, 11, 71, 0
13, 80160, Control_c, 11, 11, 127
13, 80160, Note_on_c, 11, 76, 76
13, 80249, Note_on_c, 11, 76, 0
13, 80280, Note_on_c, 11, 76, 76
13, 80369, Note_on_c, 11, 76, 0
13, 80400, Note_on_c, 11, 76, 76
13, 80489, Note_on_c, 11, 76, 0
13, 80520, Note_on_c, 11, 76, 76
13, 80609, Note_on_c, 11, 76, 0
13, 80640, Note_on_c, 11, 76, 76
13, 80729, Note_on_c, 11, 76, 0
13, 80760, Note_on_c, 11, 76, 76
13, 80849, Note_on_c, 11, 76, 0
13, 80880, Note_on_c, 11, 76, 76
13, 80969, Note_on_c, 11, 76, 0
13, 81000, Note_on_c, 11, 76, 76
13, 81089, Note_on_c, 11, 76, 0
13, 81120, Note_on_c, 11, 73, 76
13, 81209, Note_on_c, 11, 73, 0
13, 81240, Note_on_c, 11, 73, 76
13, 81329, Note_on_c, 11, 73, 0
13, 81360, Note_on_c, 11, 73, 76
13, 81449, Note_on_c, 11, 73, 0
13, 81480, Note_on_c, 11, 73, 76
13, 81569, Note_on_c, 11, 73, 0
13, 81600, Note_on_c, 11, 73, 76
13, 81689, Note_on_c, 11, 73, 0
13, 81720, Note_on_c, 11, 73, 76
13, 81809, Note_on_c, 11, 73, 0
13, 81840, Note_on_c, 11, 69, 76
13, 81929, Note_on_c, 11, 69, 0
13, 81960, Note_on_c, 11, 69, 76
13, 82049, Note_on_c, 11, 69, 0
13, 82080, Note_on_c, 11, 78, 84
13, 82169, Note_on_c, 11, 78, 0
13, 82200, Note_on_c, 11, 78, 76
13, 82289, Note_on_c, 11, 78, 0
13, 82320, Note_on_c, 11, 78, 76
13, 82409, Note_on_c, 11, 78, 0
13, 82440, Note_on_c, 11, 78, 76
13, 82529, Note_on_c, 11, 78, 0
13, 82560, Note_on_c, 11, 78, 76
13, 82649, Note_on_c, 11, 78, 0
13, 82680, Note_on_c, 11, 78, 76
13, 82769, Note_on_c, 11, 78, 0
13, 82800, Note_on_c, 11, 78, 76
13, 82889, Note_on_c, 11, 78, 0
13, 82920, Note_on_c, 11, 78, 76
13, 83009, Note_on_c, 11, 78, 0
13, 83040, Note_on_c, 11, 74, 76
13, 83129, Note_on_c, 11, 74, 0
13, 83160, Note_on_c, 11, 74, 76
13, 83249, Note_on_c, 11, 74, 0
13, 83280, Note_on_c, 11, 74, 76
13, 83369, Note_on_c, 11, 74, 0
13, 83400, Note_on_c, 11, 74, 76
13, 83489, Note_on_c, 11, 74, 0
13, 83520, Note_on_c, 11, 74, 76
13, 83609, Note_on_c, 11, 74, 0
13, 83640, Note_on_c, 11, 74, 76
13, 83729, Note_on_c, 11, 74, 0
13, 83760, Note_on_c, 11, 71, 76
13, 83849, Note_on_c, 11, 71, 0
13, 83880, Note_on_c, 11, 71, 76
13, 83969, Note_on_c, 11, 71, 0
13, 84000, Note_on_c, 11, 76, 84
13, 84089, Note_on_c, 11, 76, 0
13, 84120, Note_on_c, 11, 76, 76
13, 84209, Note_on_c, 11, 76, 0
13, 84240, Note_on_c, 11, 76, 76
13, 84329, Note_on_c, 11, 76, 0
13, 84360, Note_on_c, 11, 76, 76
13, 84449, Note_on_c, 11, 76, 0
13, 84480, Note_on_c, 11, 73, 76
13, 84569, Note_on_c, 11, 73, 0
13, 84600, Note_on_c, 11, 73, 76
13, 84689, Note_on_c, 11, 73, 0
13, 84720, Note_on_c, 11, 69, 76
13, 84809, Note_on_c, 11, 69, 0
13, 84840, Note_on_c, 11, 69, 76
13, 84929, Note_on_c, 11, 69, 0
13, 84960, Note_on_c, 11, 76, 84
13, 85049, Note_on_c, 11, 76, 0
13, 85080, Note_on_c, 11, 76, 76
13, 85169, Note_on_c, 11, 76, 0
13, 85200, Note_on_c, 11, 76, 76
13, 85289, Note_on_c, 11, 76, 0
13, 85320, Note_on_c, 11, 76, 76
13, 85409, Note_on_c, 11, 76, 0
13, 85440, Note_on_c, 11, 71, 76
13, 85529, Note_on_c, 11, 71, 0
13, 85560, Note_on_c, 11, 71, 76
13, 85649, Note_on_c, 11, 71, 0
13, 85680, Note_on_c, 11, 68, 76
13, 85769, Note_on_c, 11, 68, 0
13, 85800, Note_on_c, 11, 68, 76
13, 85889, Note_on_c, 11, 68, 0
13, 85920, Note_on_c, 11, 69, 76
13, 85920, Note_on_c, 11, 81, 76
13, 86009, Note_on_c, 11, 69, 0
13, 86009, Note_on_c, 11, 81, 0
13, 86040, Note_on_c, 11, 69, 76
13, 86040, Note_on_c, 11, 81, 76
13, 86129, Note_on_c, 11, 69, 0
13, 86129, Note_on_c, 11, 81, 0
13, 86160, Note_on_c, 11, 81, 76
13, 86160, Note_on_c, 11, 69, 76
13, 86249, Note_on_c, 11, 81, 0
13, 86249, Note_on_c, 11, 69, 0
13, 86280, Note_on_c, 11, 69, 76
13, 86280, Note_on_c, 11, 81, 76
13, 86369, Note_on_c, 11, 69, 0
13, 86369, Note_on_c, 11, 81, 0
13, 86400, Note_on_c, 11, 69, 76
13, 86400, Note_on_c, 11, 81, 76
13, 86489, Note_on_c, 11, 69, 0
13, 86489, Note_on_c, 11, 81, 0
13, 86520, Note_on_c, 11, 69, 76
13, 86520, Note_on_c, 11, 81, 76
13, 86609, Note_on_c, 11, 69, 0
13, 86609, Note_on_c, 11, 81, 0
13, 86640, Note_on_c, 11, 81, 76
13, 86640, Note_on_c, 11, 69, 76
13, 86729, Note_on_c, 11, 81, 0
13, 86729, Note_on_c, 11, 69, 0
13, 86760, Note_on_c, 11, 81, 76
13, 86760, Note_on_c, 11, 69, 76
13, 86849, Note_on_c, 11, 81, 0
13, 86849, Note_on_c, 11, 69, 0
13, 86880, Note_on_c, 11, 81, 84
13, 86880, Note_on_c, 11, 69, 84
13, 86969, Note_on_c, 11, 81, 0
13, 86969, Note_on_c, 11, 69, 0
13, 87000, Note_on_c, 11, 69, 76
13, 87000, Note_on_c, 11, 81, 76
13, 87089, Note_on_c, 11, 69, 0
13, 87089, Note_on_c, 11, 81, 0
13, 87120, Note_on_c, 11, 69, 76
13, 87120, Note_on_c, 11, 81, 76
13, 87209, Note_on_c, 11, 69, 0
13, 87209, Note_on_c, 11, 81, 0
13, 87240, Note_on_c, 11, 69, 76
13, 87240, Note_on_c, 11, 81, 76
13, 87329, Note_on_c, 11, 69, 0
13, 87329, Note_on_c, 11, 81, 0
13, 87360, Note_on_c, 11, 69, 76
13, 87360, Note_on_c, 11, 81, 76
13, 87449, Note_on_c, 11, 69, 0
13, 87449, Note_on_c, 11, 81, 0
13, 87480, Note_on_c, 11, 81, 76
13, 87480, Note_on_c, 11, 69, 76
13, 87569, Note_on_c, 11, 81, 0
13, 87569, Note_on_c, 11, 69, 0
13, 87600, Note_on_c, 11, 69, 76
13, 87600, Note_on_c, 11, 81, 76
13, 87689, Note_on_c, 11, 69, 0
13, 87689, Note_on_c, 11, 81, 0
13, 87720, Note_on_c, 11, 69, 76
13, 87720, Note_on_c, 11, 81, 76
13, 87809, Note_on_c, 11, 69, 0
13, 87809, Note_on_c, 11, 81, 0
13, 87840, Note_on_c, 11, 81, 76
13, 87840, Note_on_c, 11, 69, 76
13, 87929, Note_on_c, 11, 81, 0
13, 87929, Note_on_c, 11, 69, 0
13, 87960, Note_on_c, 11, 69, 76
13, 87960, Note_on_c, 11, 81, 76
13, 88049, Note_on_c, 11, 69, 0
13, 88049, Note_on_c, 11, 81, 0
13, 88080, Note_on_c, 11, 69, 76
13, 88080, Note_on_c, 11, 81, 76
13, 88169, Note_on_c, 11, 69, 0
13, 88169, Note_on_c, 11, 81, 0
13, 88200, Note_on_c, 11, 81, 76
13, 88200, Note_on_c, 11, 69, 76
13, 88289, Note_on_c, 11, 81, 0
13, 88289, Note_on_c, 11, 69, 0
13, 88320, Note_on_c, 11, 81, 76
13, 88320, Note_on_c, 11, 69, 76
13, 88409, Note_on_c, 11, 81, 0
13, 88409, Note_on_c, 11, 69, 0
13, 88440, Note_on_c, 11, 69, 76
13, 88440, Note_on_c, 11, 81, 76
13, 88529, Note_on_c, 11, 69, 0
13, 88529, Note_on_c, 11, 81, 0
13, 88560, Note_on_c, 11, 69, 76
13, 88560, Note_on_c, 11, 81, 76
13, 88649, Note_on_c, 11, 69, 0
13, 88649, Note_on_c, 11, 81, 0
13, 88680, Note_on_c, 11, 69, 76
13, 88680, Note_on_c, 11, 81, 76
13, 88769, Note_on_c, 11, 69, 0
13, 88769, Note_on_c, 11, 81, 0
13, 88800, Note_on_c, 11, 81, 84
13, 88800, Note_on_c, 11, 69, 84
13, 88889, Note_on_c, 11, 81, 0
13, 88889, Note_on_c, 11, 69, 0
13, 88920, Note_on_c, 11, 81, 76
13, 88920, Note_on_c, 11, 69, 76
13, 89009, Note_on_c, 11, 81, 0
13, 89009, Note_on_c, 11, 69, 0
13, 89040, Note_on_c, 11, 81, 76
13, 89040, Note_on_c, 11, 69, 76
13, 89129, Note_on_c, 11, 81, 0
13, 89129, Note_on_c, 11, 69, 0
13, 89160, Note_on_c, 11, 69, 76
13, 89160, Note_on_c, 11, 81, 76
13, 89249, Note_on_c, 11, 69, 0
13, 89249, Note_on_c, 11, 81, 0
13, 89280, Note_on_c, 11, 81, 76
13, 89280, Note_on_c, 11, 69, 76
13, 89369, Note_on_c, 11, 81, 0
13, 89369, Note_on_c, 11, 69, 0
13, 89400, Note_on_c, 11, 69, 76
13, 89400, Note_on_c, 11, 81, 76
13, 89489, Note_on_c, 11, 69, 0
13, 89489, Note_on_c, 11, 81, 0
13, 89520, Note_on_c, 11, 81, 76
13, 89520, Note_on_c, 11, 69, 76
13, 89609, Note_on_c, 11, 81, 0
13, 89609, Note_on_c, 11, 69, 0
13, 89640, Note_on_c, 11, 69, 76
13, 89640, Note_on_c, 11, 81, 76
13, 89729, Note_on_c, 11, 69, 0
13, 89729, Note_on_c, 11, 81, 0
13, 89760, Note_on_c, 11, 81, 84
13, 89760, Note_on_c, 11, 69, 84
13, 89849, Note_on_c, 11, 81, 0
13, 89849, Note_on_c, 11, 69, 0
13, 89880, Note_on_c, 11, 81, 84
13, 89880, Note_on_c, 11, 69, 84
13, 89969, Note_on_c, 11, 81, 0
13, 89969, Note_on_c, 11, 69, 0
13, 90000, Note_on_c, 11, 81, 84
13, 90000, Note_on_c, 11, 69, 84
13, 90089, Note_on_c, 11, 81, 0
13, 90089, Note_on_c, 11, 69, 0
13, 90120, Note_on_c, 11, 69, 84
13, 90120, Note_on_c, 11, 81, 84
13, 90209, Note_on_c, 11, 69, 0
13, 90209, Note_on_c, 11, 81, 0
13, 90240, Note_on_c, 11, 81, 84
13, 90240, Note_on_c, 11, 69, 84
13, 90329, Note_on_c, 11, 81, 0
13, 90329, Note_on_c, 11, 69, 0
13, 90360, Note_on_c, 11, 69, 84
13, 90360, Note_on_c, 11, 81, 84
13, 90449, Note_on_c, 11, 69, 0
13, 90449, Note_on_c, 11, 81, 0
13, 90480, Note_on_c, 11, 81, 84
13, 90480, Note_on_c, 11, 69, 84
13, 90569, Note_on_c, 11, 81, 0
13, 90569, Note_on_c, 11, 69, 0
13, 90600, Note_on_c, 11, 69, 84
13, 90600, Note_on_c, 11, 81, 84
13, 90689, Note_on_c, 11, 69, 0
13, 90689, Note_on_c, 11, 81, 0
13, 90720, Note_on_c, 11, 69, 84
13, 90720, Note_on_c, 11, 81, 84
13, 90809, Note_on_c, 11, 69, 0
13, 90809, Note_on_c, 11, 81, 0
13, 90840, Note_on_c, 11, 69, 84
13, 90840, Note_on_c, 11, 81, 84
13, 90929, Note_on_c, 11, 69, 0
13, 90929, Note_on_c, 11, 81, 0
13, 90960, Note_on_c, 11, 81, 84
13, 90960, Note_on_c, 11, 69, 84
13, 91049, Note_on_c, 11, 81, 0
13, 91049, Note_on_c, 11, 69, 0
13, 91080, Note_on_c, 11, 81, 84
13, 91080, Note_on_c, 11, 69, 84
13, 91169, Note_on_c, 11, 81, 0
13, 91169, Note_on_c, 11, 69, 0
13, 91200, Note_on_c, 11, 81, 84
13, 91200, Note_on_c, 11, 69, 84
13, 91289, Note_on_c, 11, 81, 0
13, 91289, Note_on_c, 11, 69, 0
13, 91320, Note_on_c, 11, 81, 84
13, 91320, Note_on_c, 11, 69, 84
13, 91409, Note_on_c, 11, 81, 0
13, 91409, Note_on_c, 11, 69, 0
13, 91440, Note_on_c, 11, 69, 84
13, 91440, Note_on_c, 11, 81, 84
13, 91529, Note_on_c, 11, 69, 0
13, 91529, Note_on_c, 11, 81, 0
13, 91560, Note_on_c, 11, 69, 84
13, 91560, Note_on_c, 11, 81, 84
13, 91649, Note_on_c, 11, 69, 0
13, 91649, Note_on_c, 11, 81, 0
13, 91680, Note_on_c, 11, 81, 84
13, 91680, Note_on_c, 11, 69, 84
13, 91769, Note_on_c, 11, 81, 0
13, 91769, Note_on_c, 11, 69, 0
13, 91800, Note_on_c, 11, 69, 84
13, 91800, Note_on_c, 11, 81, 84
13, 91889, Note_on_c, 11, 69, 0
13, 91889, Note_on_c, 11, 81, 0
13, 91920, Note_on_c, 11, 81, 84
13, 91920, Note_on_c, 11, 69, 84
13, 92009, Note_on_c, 11, 81, 0
13, 92009, Note_on_c, 11, 69, 0
13, 92040, Note_on_c, 11, 69, 84
13, 92040, Note_on_c, 11, 81, 84
13, 92129, Note_on_c, 11, 69, 0
13, 92129, Note_on_c, 11, 81, 0
13, 92160, Note_on_c, 11, 81, 84
13, 92160, Note_on_c, 11, 69, 84
13, 92249, Note_on_c, 11, 81, 0
13, 92249, Note_on_c, 11, 69, 0
13, 92280, Note_on_c, 11, 81, 84
13, 92280, Note_on_c, 11, 69, 84
13, 92369, Note_on_c, 11, 81, 0
13, 92369, Note_on_c, 11, 69, 0
13, 92400, Note_on_c, 11, 81, 84
13, 92400, Note_on_c, 11, 69, 84
13, 92489, Note_on_c, 11, 81, 0
13, 92489, Note_on_c, 11, 69, 0
13, 92520, Note_on_c, 11, 81, 84
13, 92520, Note_on_c, 11, 69, 84
13, 92609, Note_on_c, 11, 81, 0
13, 92609, Note_on_c, 11, 69, 0
13, 92640, Note_on_c, 11, 69, 84
13, 92640, Note_on_c, 11, 81, 84
13, 92729, Note_on_c, 11, 69, 0
13, 92729, Note_on_c, 11, 81, 0
13, 92760, Note_on_c, 11, 69, 84
13, 92760, Note_on_c, 11, 81, 84
13, 92849, Note_on_c, 11, 69, 0
13, 92849, Note_on_c, 11, 81, 0
13, 92880, Note_on_c, 11, 81, 84
13, 92880, Note_on_c, 11, 69, 84
13, 92969, Note_on_c, 11, 81, 0
13, 92969, Note_on_c, 11, 69, 0
13, 93000, Note_on_c, 11, 69, 84
13, 93000, Note_on_c, 11, 81, 84
13, 93089, Note_on_c, 11, 69, 0
13, 93089, Note_on_c, 11, 81, 0
13, 93120, Note_on_c, 11, 81, 84
13, 93120, Note_on_c, 11, 69, 84
13, 93209, Note_on_c, 11, 81, 0
13, 93209, Note_on_c, 11, 69, 0
13, 93240, Note_on_c, 11, 81, 84
13, 93240, Note_on_c, 11, 69, 84
13, 93329, Note_on_c, 11, 81, 0
13, 93329, Note_on_c, 11, 69, 0
13, 93360, Note_on_c, 11, 69, 84
13, 93360, Note_on_c, 11, 81, 84
13, 93449, Note_on_c, 11, 69, 0
13, 93449, Note_on_c, 11, 81, 0
13, 93480, Note_on_c, 11, 69, 84
13, 93480, Note_on_c, 11, 81, 84
13, 93569, Note_on_c, 11, 69, 0
13, 93569, Note_on_c, 11, 81, 0
13, 93600, Note_on_c, 11, 81, 84
13, 93600, Note_on_c, 11, 69, 84
13, 93839, Note_on_c, 11, 81, 0
13, 93839, Note_on_c, 11, 69, 0
13, 93960, Note_on_c, 11, 78, 52
13, 94079, Note_on_c, 11, 78, 0
13, 94080, Note_on_c, 11, 79, 52
13, 94319, Note_on_c, 11, 79, 0
13, 94440, Note_on_c, 11, 75, 52
13, 94559, Note_on_c, 11, 75, 0
13, 94560, Note_on_c, 11, 76, 52
13, 94799, Note_on_c, 11, 76, 0
13, 94920, Note_on_c, 11, 72, 52
13, 95039, Note_on_c, 11, 72, 0
13, 95040, Note_on_c, 11, 73, 52
13, 95279, Note_on_c, 11, 73, 0
13, 95400, Note_on_c, 11, 68, 52
13, 95519, Note_on_c, 11, 68, 0
13, 95520, Note_on_c, 11, 69, 52
13, 95759, Note_on_c, 11, 69, 0
13, 97800, Note_on_c, 11, 78, 52
13, 97919, Note_on_c, 11, 78, 0
13, 97920, Note_on_c, 11, 79, 52
13, 97920, Control_c, 11, 11, 127
13, 98060, Control_c, 11, 11, 126
13, 98159, Note_on_c, 11, 79, 0
13, 98200, Control_c, 11, 11, 125
13, 98280, Note_on_c, 11, 75, 52
13, 98340, Control_c, 11, 11, 123
13, 98399, Note_on_c, 11, 75, 0
13, 98400, Note_on_c, 11, 76, 52
13, 98480, Control_c, 11, 11, 122
13, 98620, Control_c, 11, 11, 121
13, 98639, Note_on_c, 11, 76, 0
13, 98760, Control_c, 11, 11, 120
13, 98760, Note_on_c, 11, 72, 52
13, 98879, Note_on_c, 11, 72, 0
13, 98880, Note_on_c, 11, 73, 52
13, 98900, Control_c, 11, 11, 118
13, 99040, Control_c, 11, 11, 117
13, 99119, Note_on_c, 11, 73, 0
13, 99180, Control_c, 11, 11, 116
13, 99240, Note_on_c, 11, 68, 52
13, 99320, Control_c, 11, 11, 115
13, 99359, Note_on_c, 11, 68, 0
13, 99360, Note_on_c, 11, 69, 52
13, 99460, Control_c, 11, 11, 113
13, 99599, Note_on_c, 11, 69, 0
13, 99600, Control_c, 11, 11, 64
13, 99720, Note_on_c, 11, 72, 76
13, 99839, Note_on_c, 11, 72, 0
13, 99840, Note_on_c, 11, 73, 76
13, 100079, Note_on_c, 11, 73, 0
13, 100200, Note_on_c, 11, 75, 76
13, 100319, Note_on_c, 11, 75, 0
13, 100320, Note_on_c, 11, 76, 76
13, 100559, Note_on_c, 11, 76, 0
13, 100680, Note_on_c, 11, 78, 76
13, 100799, Note_on_c, 11, 78, 0
13, 100800, Note_on_c, 11, 79, 76
13, 101039, Note_on_c, 11, 79, 0
13, 101160, Note_on_c, 11, 78, 76
13, 101279, Note_on_c, 11, 78, 0
13, 101280, Note_on_c, 11, 79, 76
13, 101519, Note_on_c, 11, 79, 0
13, 101520, Control_c, 11, 11, 64
13, 101640, Control_c, 11, 11, 69
13, 101640, Note_on_c, 11, 78, 76
13, 101759, Note_on_c, 11, 78, 0
13, 101760, Note_on_c, 11, 79, 76
13, 101760, Control_c, 11, 11, 75
13, 101880, Control_c, 11, 11, 80
13, 101999, Note_on_c, 11, 79, 0
13, 102000, Control_c, 11, 11, 85
13, 102120, Control_c, 11, 11, 90
13, 102120, Note_on_c, 11, 78, 76
13, 102239, Note_on_c, 11, 78, 0
13, 102240, Note_on_c, 11, 79, 76
13, 102240, Control_c, 11, 11, 96
13, 102360, Control_c, 11, 11, 101
13, 102479, Note_on_c, 11, 79, 0
13, 102480, Control_c, 11, 11, 106
13, 102600, Control_c, 11, 11, 111
13, 102600, Note_on_c, 11, 78, 76
13, 102719, Note_on_c, 11, 78, 0
13, 102720, Note_on_c, 11, 79, 76
13, 102720, Control_c, 11, 11, 117
13, 102840, Control_c, 11, 11, 122
13, 102959, Note_on_c, 11, 79, 0
13, 102960, Control_c, 11, 11, 127
13, 103080, Note_on_c, 11, 78, 76
13, 103199, Note_on_c, 11, 78, 0
13, 103200, Note_on_c, 11, 79, 76
13, 103379, Note_on_c, 11, 79, 0
13, 103560, Note_on_c, 11, 61, 76
13, 103649, Note_on_c, 11, 61, 0
13, 103680, Note_on_c, 11, 61, 84
13, 103739, Note_on_c, 11, 61, 0
13, 103740, Note_on_c, 11, 62, 76
13, 103799, Note_on_c, 11, 62, 0
13, 103800, Note_on_c, 11, 61, 76
13, 103859, Note_on_c, 11, 61, 0
13, 103860, Note_on_c, 11, 62, 76
13, 103919, Note_on_c, 11, 62, 0
13, 103920, Note_on_c, 11, 61, 76
13, 103979, Note_on_c, 11, 61, 0
13, 103980, Note_on_c, 11, 62, 76
13, 104039, Note_on_c, 11, 62, 0
13, 104040, Note_on_c, 11, 59, 76
13, 104099, Note_on_c, 11, 59, 0
13, 104100, Note_on_c, 11, 61, 76
13, 104144, Note_on_c, 11, 61, 0
13, 104160, Note_on_c, 11, 64, 76
13, 104339, Note_on_c, 11, 64, 0
13, 104400, Note_on_c, 11, 57, 76
13, 104579, Note_on_c, 11, 57, 0
13, 104880, Note_on_c, 11, 69, 52
13, 104969, Note_on_c, 11, 69, 0
13, 105000, Note_on_c, 11, 69, 52
13, 105089, Note_on_c, 11, 69, 0
13, 105120, Note_on_c, 11, 74, 52
13, 105239, Note_on_c, 11, 74, 0
13, 105240, Note_on_c, 11, 69, 52
13, 105329, Note_on_c, 11, 69, 0
13, 105360, Note_on_c, 11, 78, 52
13, 105449, Note_on_c, 11, 78, 0
13, 105480, Note_on_c, 11, 78, 52
13, 105569, Note_on_c, 11, 78, 0
13, 105600, Note_on_c, 11, 76, 52
13, 105719, Note_on_c, 11, 76, 0
13, 105720, Note_on_c, 11, 69, 52
13, 105809, Note_on_c, 11, 69, 0
13, 105840, Note_on_c, 11, 79, 52
13, 105929, Note_on_c, 11, 79, 0
13, 105960, Note_on_c, 11, 79, 52
13, 106049, Note_on_c, 11, 79, 0
13, 106080, Note_on_c, 11, 78, 52
13, 106199, Note_on_c, 11, 78, 0
13, 106200, Note_on_c, 11, 69, 52
13, 106289, Note_on_c, 11, 69, 0
13, 106320, Note_on_c, 11, 81, 52
13, 106409, Note_on_c, 11, 81, 0
13, 106440, Note_on_c, 11, 81, 52
13, 106529, Note_on_c, 11, 81, 0
13, 106560, Note_on_c, 11, 81, 52
13, 106679, Note_on_c, 11, 81, 0
13, 106680, Note_on_c, 11, 79, 52
13, 106769, Note_on_c, 11, 79, 0
13, 106800, Note_on_c, 11, 78, 52
13, 106889, Note_on_c, 11, 78, 0
13, 106920, Note_on_c, 11, 76, 52
13, 107009, Note_on_c, 11, 76, 0
13, 107040, Note_on_c, 11, 76, 52
13, 107159, Note_on_c, 11, 76, 0
13, 107160, Note_on_c, 11, 74, 52
13, 107249, Note_on_c, 11, 74, 0
13, 107280, Note_on_c, 11, 74, 52
13, 107369, Note_on_c, 11, 74, 0
13, 107400, Note_on_c, 11, 74, 52
13, 107489, Note_on_c, 11, 74, 0
13, 107520, Note_on_c, 11, 74, 52
13, 107639, Note_on_c, 11, 74, 0
13, 107640, Note_on_c, 11, 73, 52
13, 107729, Note_on_c, 11, 73, 0
13, 107760, Note_on_c, 11, 71, 52
13, 107849, Note_on_c, 11, 71, 0
13, 107880, Note_on_c, 11, 73, 52
13, 107969, Note_on_c, 11, 73, 0
13, 108000, Note_on_c, 11, 74, 76
13, 108179, Note_on_c, 11, 74, 0
13, 108240, Note_on_c, 11, 76, 76
13, 108240, Note_on_c, 11, 69, 76
13, 108419, Note_on_c, 11, 76, 0
13, 108419, Note_on_c, 11, 69, 0
13, 108840, Note_on_c, 11, 78, 84
13, 108959, Note_on_c, 11, 78, 0
13, 108960, Note_on_c, 11, 79, 84
13, 109139, Note_on_c, 11, 79, 0
13, 109320, Note_on_c, 11, 61, 84
13, 109409, Note_on_c, 11, 61, 0
13, 109440, Note_on_c, 11, 61, 92
13, 109499, Note_on_c, 11, 61, 0
13, 109500, Note_on_c, 11, 62, 84
13, 109559, Note_on_c, 11, 62, 0
13, 109560, Note_on_c, 11, 61, 84
13, 109619, Note_on_c, 11, 61, 0
13, 109620, Note_on_c, 11, 62, 84
13, 109679, Note_on_c, 11, 62, 0
13, 109680, Note_on_c, 11, 61, 84
13, 109739, Note_on_c, 11, 61, 0
13, 109740, Note_on_c, 11, 62, 84
13, 109799, Note_on_c, 11, 62, 0
13, 109800, Note_on_c, 11, 59, 84
13, 109859, Note_on_c, 11, 59, 0
13, 109860, Note_on_c, 11, 61, 84
13, 109904, Note_on_c, 11, 61, 0
13, 109920, Note_on_c, 11, 64, 84
13, 110099, Note_on_c, 11, 64, 0
13, 110160, Note_on_c, 11, 57, 84
13, 110339, Note_on_c, 11, 57, 0
13, 110640, Note_on_c, 11, 69, 52
13, 110729, Note_on_c, 11, 69, 0
13, 110760, Note_on_c, 11, 69, 52
13, 110849, Note_on_c, 11, 69, 0
13, 110880, Note_on_c, 11, 74, 52
13, 110999, Note_on_c, 11, 74, 0
13, 111000, Note_on_c, 11, 69, 52
13, 111089, Note_on_c, 11, 69, 0
13, 111120, Note_on_c, 11, 77, 52
13, 111209, Note_on_c, 11, 77, 0
13, 111240, Note_on_c, 11, 77, 52
13, 111329, Note_on_c, 11, 77, 0
13, 111360, Note_on_c, 11, 76, 52
13, 111479, Note_on_c, 11, 76, 0
13, 111480, Note_on_c, 11, 69, 52
13, 111569, Note_on_c, 11, 69, 0
13, 111600, Note_on_c, 11, 79, 52
13, 111689, Note_on_c, 11, 79, 0
13, 111720, Note_on_c, 11, 79, 52
13, 111809, Note_on_c, 11, 79, 0
13, 111840, Note_on_c, 11, 77, 52
13, 111959, Note_on_c, 11, 77, 0
13, 111960, Note_on_c, 11, 69, 52
13, 112049, Note_on_c, 11, 69, 0
13, 112080, Note_on_c, 11, 81, 52
13, 112169, Note_on_c, 11, 81, 0
13, 112200, Note_on_c, 11, 81, 52
13, 112289, Note_on_c, 11, 81, 0
13, 112320, Note_on_c, 11, 81, 52
13, 112439, Note_on_c, 11, 81, 0
13, 112440, Note_on_c, 11, 79, 52
13, 112529, Note_on_c, 11, 79, 0
13, 112560, Note_on_c, 11, 77, 52
13, 112649, Note_on_c, 11, 77, 0
13, 112680, Note_on_c, 11, 76, 52
13, 112769, Note_on_c, 11, 76, 0
13, 112800, Note_on_c, 11, 76, 52
13, 112919, Note_on_c, 11, 76, 0
13, 112920, Note_on_c, 11, 74, 52
13, 113009, Note_on_c, 11, 74, 0
13, 113040, Note_on_c, 11, 74, 52
13, 113129, Note_on_c, 11, 74, 0
13, 113160, Note_on_c, 11, 74, 52
13, 113249, Note_on_c, 11, 74, 0
13, 113280, Note_on_c, 11, 74, 52
13, 113399, Note_on_c, 11, 74, 0
13, 113400, Note_on_c, 11, 73, 52
13, 113489, Note_on_c, 11, 73, 0
13, 113520, Note_on_c, 11, 71, 52
13, 113609, Note_on_c, 11, 71, 0
13, 113640, Note_on_c, 11, 73, 52
13, 113729, Note_on_c, 11, 73, 0
13, 113760, Note_on_c, 11, 62, 76
13, 113760, Note_on_c, 11, 74, 76
13, 113999, Note_on_c, 11, 62, 0
13, 113999, Note_on_c, 11, 74, 0
13, 114120, Note_on_c, 11, 77, 76
13, 114209, Note_on_c, 11, 77, 0
13, 114240, Note_on_c, 11, 77, 84
13, 114299, Note_on_c, 11, 77, 0
13, 114300, Note_on_c, 11, 79, 76
13, 114359, Note_on_c, 11, 79, 0
13, 114360, Note_on_c, 11, 77, 76
13, 114419, Note_on_c, 11, 77, 0
13, 114420, Note_on_c, 11, 79, 76
13, 114479, Note_on_c, 11, 79, 0
13, 114480, Note_on_c, 11, 77, 76
13, 114539, Note_on_c, 11, 77, 0
13, 114540, Note_on_c, 11, 79, 76
13, 114599, Note_on_c, 11, 79, 0
13, 114600, Note_on_c, 11, 76, 76
13, 114659, Note_on_c, 11, 76, 0
13, 114660, Note_on_c, 11, 77, 76
13, 114704, Note_on_c, 11, 77, 0
13, 114720, Note_on_c, 11, 81, 76
13, 114899, Note_on_c, 11, 81, 0
13, 114960, Note_on_c, 11, 74, 76
13, 115139, Note_on_c, 11, 74, 0
13, 115680, Note_on_c, 11, 62, 76
13, 115680, Note_on_c, 11, 73, 76
13, 115919, Note_on_c, 11, 62, 0
13, 115919, Note_on_c, 11, 73, 0
13, 116040, Note_on_c, 11, 79, 76
13, 116129, Note_on_c, 11, 79, 0
13, 116160, Note_on_c, 11, 79, 84
13, 116219, Note_on_c, 11, 79, 0
13, 116220, Note_on_c, 11, 81, 76
13, 116279, Note_on_c, 11, 81, 0
13, 116280, Note_on_c, 11, 79, 76
13, 116339, Note_on_c, 11, 79, 0
13, 116340, Note_on_c, 11, 81, 76
13, 116399, Note_on_c, 11, 81, 0
13, 116400, Note_on_c, 11, 79, 76
13, 116459, Note_on_c, 11, 79, 0
13, 116460, Note_on_c, 11, 81, 76
13, 116519, Note_on_c, 11, 81, 0
13, 116520, Note_on_c, 11, 78, 76
13, 116579, Note_on_c, 11, 78, 0
13, 116580, Note_on_c, 11, 79, 76
13, 116624, Note_on_c, 11, 79, 0
13, 116640, Note_on_c, 11, 82, 76
13, 116819, Note_on_c, 11, 82, 0
13, 116880, Note_on_c, 11, 73, 76
13, 117059, Note_on_c, 11, 73, 0
13, 117600, Note_on_c, 11, 74, 76
13, 117600, Note_on_c, 11, 62, 76
13, 117839, Note_on_c, 11, 74, 0
13, 117839, Note_on_c, 11, 62, 0
13, 117960, Note_on_c, 11, 77, 76
13, 118049, Note_on_c, 11, 77, 0
13, 118080, Note_on_c, 11, 77, 84
13, 118139, Note_on_c, 11, 77, 0
13, 118140, Note_on_c, 11, 79, 76
13, 118199, Note_on_c, 11, 79, 0
13, 118200, Note_on_c, 11, 77, 76
13, 118259, Note_on_c, 11, 77, 0
13, 118260, Note_on_c, 11, 79, 76
13, 118319, Note_on_c, 11, 79, 0
13, 118320, Note_on_c, 11, 77, 76
13, 118379, Note_on_c, 11, 77, 0
13, 118380, Note_on_c, 11, 79, 76
13, 118439, Note_on_c, 11, 79, 0
13, 118440, Note_on_c, 11, 76, 76
13, 118499, Note_on_c, 11, 76, 0
13, 118500, Note_on_c, 11, 77, 76
13, 118544, Note_on_c, 11, 77, 0
13, 118560, Note_on_c, 11, 81, 76
13, 118739, Note_on_c, 11, 81, 0
13, 118800, Note_on_c, 11, 74, 76
13, 118979, Note_on_c, 11, 74, 0
13, 119520, Note_on_c, 11, 62, 76
13, 119520, Note_on_c, 11, 73, 76
13, 119759, Note_on_c, 11, 62, 0
13, 119759, Note_on_c, 11, 73, 0
13, 119880, Note_on_c, 11, 79, 76
13, 119969, Note_on_c, 11, 79, 0
13, 120000, Note_on_c, 11, 79, 84
13, 120059, Note_on_c, 11, 79, 0
13, 120060, Note_on_c, 11, 81, 76
13, 120119, Note_on_c, 11, 81, 0
13, 120120, Note_on_c, 11, 79, 76
13, 120179, Note_on_c, 11, 79, 0
13, 120180, Note_on_c, 11, 81, 76
13, 120239, Note_on_c, 11, 81, 0
13, 120240, Note_on_c, 11, 79, 76
13, 120299, Note_on_c, 11, 79, 0
13, 120300, Note_on_c, 11, 81, 76
13, 120359, Note_on_c, 11, 81, 0
13, 120360, Note_on_c, 11, 78, 76
13, 120419, Note_on_c, 11, 78, 0
13, 120420, Note_on_c, 11, 79, 76
13, 120464, Note_on_c, 11, 79, 0
13, 120480, Note_on_c, 11, 82, 84
13, 120659, Note_on_c, 11, 82, 0
13, 120720, Note_on_c, 11, 73, 76
13, 120899, Note_on_c, 11, 73, 0
13, 121440, Note_on_c, 11, 81, 84
13, 121619, Note_on_c, 11, 81, 0
13, 121680, Note_on_c, 11, 74, 76
13, 121859, Note_on_c, 11, 74, 0
13, 122400, Note_on_c, 11, 82, 84
13, 122579, Note_on_c, 11, 82, 0
13, 122640, Note_on_c, 11, 73, 76
13, 122819, Note_on_c, 11, 73, 0
13, 123360, Note_on_c, 11, 81, 84
13, 123539, Note_on_c, 11, 81, 0
13, 123600, Note_on_c, 11, 74, 76
13, 123779, Note_on_c, 11, 74, 0
13, 124320, Note_on_c, 11, 82, 84
13, 124499, Note_on_c, 11, 82, 0
13, 124560, Note_on_c, 11, 73, 76
13, 124739, Note_on_c, 11, 73, 0
13, 125280, Note_on_c, 11, 74, 76
13, 125400, Control_c, 11, 11, 80
13, 127409, Note_on_c, 11, 74, 0
13, 127440, Note_on_c, 11, 79, 76
13, 127529, Note_on_c, 11, 79, 0
13, 127560, Note_on_c, 11, 79, 76
13, 127649, Note_on_c, 11, 79, 0
13, 127680, Note_on_c, 11, 74, 76
13, 127799, Note_on_c, 11, 74, 0
13, 127800, Note_on_c, 11, 71, 76
13, 127889, Note_on_c, 11, 71, 0
13, 127920, Note_on_c, 11, 79, 76
13, 128009, Note_on_c, 11, 79, 0
13, 128040, Note_on_c, 11, 79, 76
13, 128129, Note_on_c, 11, 79, 0
13, 128160, Note_on_c, 11, 75, 76
13, 128279, Note_on_c, 11, 75, 0
13, 128280, Note_on_c, 11, 72, 76
13, 128369, Note_on_c, 11, 72, 0
13, 128400, Note_on_c, 11, 79, 76
13, 128489, Note_on_c, 11, 79, 0
13, 128520, Note_on_c, 11, 79, 76
13, 128609, Note_on_c, 11, 79, 0
13, 128640, Note_on_c, 11, 77, 76
13, 128759, Note_on_c, 11, 77, 0
13, 128760, Note_on_c, 11, 74, 76
13, 128849, Note_on_c, 11, 74, 0
13, 128880, Note_on_c, 11, 79, 76
13, 128969, Note_on_c, 11, 79, 0
13, 129000, Note_on_c, 11, 79, 76
13, 129089, Note_on_c, 11, 79, 0
13, 129120, Note_on_c, 11, 75, 76
13, 129359, Note_on_c, 11, 75, 0
13, 129592, Control_c, 11, 11, 127
13, 129600, Note_on_c, 11, 72, 76
13, 129720, Control_c, 11, 11, 80
13, 131249, Note_on_c, 11, 72, 0
13, 131280, Note_on_c, 11, 77, 76
13, 131369, Note_on_c, 11, 77, 0
13, 131400, Note_on_c, 11, 77, 76
13, 131489, Note_on_c, 11, 77, 0
13, 131520, Note_on_c, 11, 72, 76
13, 131639, Note_on_c, 11, 72, 0
13, 131640, Note_on_c, 11, 69, 76
13, 131729, Note_on_c, 11, 69, 0
13, 131760, Note_on_c, 11, 77, 76
13, 131849, Note_on_c, 11, 77, 0
13, 131880, Note_on_c, 11, 77, 76
13, 131969, Note_on_c, 11, 77, 0
13, 132000, Note_on_c, 11, 74, 76
13, 132119, Note_on_c, 11, 74, 0
13, 132120, Note_on_c, 11, 70, 76
13, 132209, Note_on_c, 11, 70, 0
13, 132240, Note_on_c, 11, 77, 76
13, 132329, Note_on_c, 11, 77, 0
13, 132360, Note_on_c, 11, 77, 76
13, 132449, Note_on_c, 11, 77, 0
13, 132480, Note_on_c, 11, 75, 76
13, 132599, Note_on_c, 11, 75, 0
13, 132600, Note_on_c, 11, 72, 76
13, 132689, Note_on_c, 11, 72, 0
13, 132720, Note_on_c, 11, 77, 76
13, 132809, Note_on_c, 11, 77, 0
13, 132840, Note_on_c, 11, 77, 76
13, 132929, Note_on_c, 11, 77, 0
13, 132945, Control_c, 11, 11, 127
13, 132960, Note_on_c, 11, 65, 76
13, 132960, Note_on_c, 11, 74, 76
13, 133049, Note_on_c, 11, 65, 0
13, 133049, Note_on_c, 11, 74, 0
13, 133080, Note_on_c, 11, 65, 76
13, 133080, Note_on_c, 11, 74, 76
13, 133169, Note_on_c, 11, 65, 0
13, 133169, Note_on_c, 11, 74, 0
13, 133200, Note_on_c, 11, 65, 76
13, 133200, Note_on_c, 11, 74, 76
13, 133289, Note_on_c, 11, 65, 0
13, 133289, Note_on_c, 11, 74, 0
13, 133320, Note_on_c, 11, 65, 76
13, 133320, Note_on_c, 11, 74, 76
13, 133409, Note_on_c, 11, 65, 0
13, 133409, Note_on_c, 11, 74, 0
13, 133440, Note_on_c, 11, 65, 76
13, 133440, Note_on_c, 11, 74, 76
13, 133529, Note_on_c, 11, 65, 0
13, 133529, Note_on_c, 11, 74, 0
13, 133560, Note_on_c, 11, 65, 76
13, 133560, Note_on_c, 11, 74, 76
13, 133649, Note_on_c, 11, 65, 0
13, 133649, Note_on_c, 11, 74, 0
13, 133680, Note_on_c, 11, 65, 76
13, 133680, Note_on_c, 11, 74, 76
13, 133769, Note_on_c, 11, 65, 0
13, 133769, Note_on_c, 11, 74, 0
13, 133800, Note_on_c, 11, 65, 76
13, 133800, Note_on_c, 11, 74, 76
13, 133889, Note_on_c, 11, 65, 0
13, 133889, Note_on_c, 11, 74, 0
13, 133920, Note_on_c, 11, 74, 76
13, 133920, Note_on_c, 11, 65, 76
13, 134009, Note_on_c, 11, 74, 0
13, 134009, Note_on_c, 11, 65, 0
13, 134040, Note_on_c, 11, 74, 76
13, 134040, Note_on_c, 11, 65, 76
13, 134129, Note_on_c, 11, 74, 0
13, 134129, Note_on_c, 11, 65, 0
13, 134160, Note_on_c, 11, 65, 76
13, 134160, Note_on_c, 11, 74, 76
13, 134249, Note_on_c, 11, 65, 0
13, 134249, Note_on_c, 11, 74, 0
13, 134280, Note_on_c, 11, 74, 76
13, 134280, Note_on_c, 11, 65, 76
13, 134369, Note_on_c, 11, 74, 0
13, 134369, Note_on_c, 11, 65, 0
13, 134400, Note_on_c, 11, 65, 76
13, 134400, Note_on_c, 11, 74, 76
13, 134489, Note_on_c, 11, 65, 0
13, 134489, Note_on_c, 11, 74, 0
13, 134520, Note_on_c, 11, 65, 76
13, 134520, Note_on_c, 11, 74, 76
13, 134609, Note_on_c, 11, 65, 0
13, 134609, Note_on_c, 11, 74, 0
13, 134640, Note_on_c, 11, 74, 76
13, 134640, Note_on_c, 11, 65, 76
13, 134729, Note_on_c, 11, 74, 0
13, 134729, Note_on_c, 11, 65, 0
13, 134760, Note_on_c, 11, 65, 76
13, 134760, Note_on_c, 11, 74, 76
13, 134849, Note_on_c, 11, 65, 0
13, 134849, Note_on_c, 11, 74, 0
13, 134880, Note_on_c, 11, 65, 76
13, 134880, Note_on_c, 11, 74, 76
13, 134969, Note_on_c, 11, 65, 0
13, 134969, Note_on_c, 11, 74, 0
13, 135000, Note_on_c, 11, 65, 76
13, 135000, Note_on_c, 11, 74, 76
13, 135089, Note_on_c, 11, 65, 0
13, 135089, Note_on_c, 11, 74, 0
13, 135120, Note_on_c, 11, 65, 76
13, 135120, Note_on_c, 11, 74, 76
13, 135209, Note_on_c, 11, 65, 0
13, 135209, Note_on_c, 11, 74, 0
13, 135240, Note_on_c, 11, 65, 76
13, 135240, Note_on_c, 11, 74, 76
13, 135329, Note_on_c, 11, 65, 0
13, 135329, Note_on_c, 11, 74, 0
13, 135360, Note_on_c, 11, 74, 76
13, 135360, Note_on_c, 11, 65, 76
13, 135449, Note_on_c, 11, 74, 0
13, 135449, Note_on_c, 11, 65, 0
13, 135480, Note_on_c, 11, 74, 76
13, 135480, Note_on_c, 11, 65, 76
13, 135569, Note_on_c, 11, 74, 0
13, 135569, Note_on_c, 11, 65, 0
13, 135600, Note_on_c, 11, 65, 76
13, 135600, Note_on_c, 11, 74, 76
13, 135689, Note_on_c, 11, 65, 0
13, 135689, Note_on_c, 11, 74, 0
13, 135720, Note_on_c, 11, 65, 76
13, 135720, Note_on_c, 11, 74, 76
13, 135809, Note_on_c, 11, 65, 0
13, 135809, Note_on_c, 11, 74, 0
13, 135840, Note_on_c, 11, 65, 76
13, 135840, Note_on_c, 11, 74, 76
13, 135929, Note_on_c, 11, 65, 0
13, 135929, Note_on_c, 11, 74, 0
13, 135960, Note_on_c, 11, 74, 76
13, 135960, Note_on_c, 11, 65, 76
13, 136049, Note_on_c, 11, 74, 0
13, 136049, Note_on_c, 11, 65, 0
13, 136080, Note_on_c, 11, 74, 76
13, 136080, Note_on_c, 11, 65, 76
13, 136169, Note_on_c, 11, 74, 0
13, 136169, Note_on_c, 11, 65, 0
13, 136200, Note_on_c, 11, 74, 76
13, 136200, Note_on_c, 11, 65, 76
13, 136289, Note_on_c, 11, 74, 0
13, 136289, Note_on_c, 11, 65, 0
13, 136320, Note_on_c, 11, 74, 76
13, 136320, Note_on_c, 11, 65, 76
13, 136409, Note_on_c, 11, 74, 0
13, 136409, Note_on_c, 11, 65, 0
13, 136440, Note_on_c, 11, 74, 76
13, 136440, Note_on_c, 11, 65, 76
13, 136529, Note_on_c, 11, 74, 0
13, 136529, Note_on_c, 11, 65, 0
13, 136560, Note_on_c, 11, 65, 76
13, 136560, Note_on_c, 11, 74, 76
13, 136649, Note_on_c, 11, 65, 0
13, 136649, Note_on_c, 11, 74, 0
13, 136680, Note_on_c, 11, 65, 76
13, 136680, Note_on_c, 11, 74, 76
13, 136769, Note_on_c, 11, 65, 0
13, 136769, Note_on_c, 11, 74, 0
13, 136800, Note_on_c, 11, 74, 52
13, 136889, Note_on_c, 11, 74, 0
13, 136920, Note_on_c, 11, 74, 52
13, 137009, Note_on_c, 11, 74, 0
13, 137040, Note_on_c, 11, 74, 52
13, 137129, Note_on_c, 11, 74, 0
13, 137160, Note_on_c, 11, 74, 52
13, 137249, Note_on_c, 11, 74, 0
13, 137280, Note_on_c, 11, 74, 52
13, 137369, Note_on_c, 11, 74, 0
13, 137400, Note_on_c, 11, 74, 52
13, 137489, Note_on_c, 11, 74, 0
13, 137520, Note_on_c, 11, 74, 52
13, 137609, Note_on_c, 11, 74, 0
13, 137640, Note_on_c, 11, 74, 52
13, 137729, Note_on_c, 11, 74, 0
13, 137760, Note_on_c, 11, 74, 52
13, 137849, Note_on_c, 11, 74, 0
13, 137880, Note_on_c, 11, 74, 52
13, 137969, Note_on_c, 11, 74, 0
13, 138000, Note_on_c, 11, 74, 52
13, 138089, Note_on_c, 11, 74, 0
13, 138120, Note_on_c, 11, 74, 52
13, 138209, Note_on_c, 11, 74, 0
13, 138240, Note_on_c, 11, 74, 52
13, 138329, Note_on_c, 11, 74, 0
13, 138360, Note_on_c, 11, 74, 52
13, 138449, Note_on_c, 11, 74, 0
13, 138480, Note_on_c, 11, 74, 52
13, 138569, Note_on_c, 11, 74, 0
13, 138600, Note_on_c, 11, 74, 52
13, 138689, Note_on_c, 11, 74, 0
13, 138720, Note_on_c, 11, 76, 76
13, 138720, Note_on_c, 11, 67, 76
13, 138809, Note_on_c, 11, 76, 0
13, 138809, Note_on_c, 11, 67, 0
13, 138840, Note_on_c, 11, 76, 76
13, 138840, Note_on_c, 11, 67, 76
13, 138929, Note_on_c, 11, 76, 0
13, 138929, Note_on_c, 11, 67, 0
13, 138960, Note_on_c, 11, 67, 76
13, 138960, Note_on_c, 11, 76, 76
13, 139049, Note_on_c, 11, 67, 0
13, 139049, Note_on_c, 11, 76, 0
13, 139080, Note_on_c, 11, 67, 76
13, 139080, Note_on_c, 11, 76, 76
13, 139169, Note_on_c, 11, 67, 0
13, 139169, Note_on_c, 11, 76, 0
13, 139200, Note_on_c, 11, 67, 76
13, 139200, Note_on_c, 11, 76, 76
13, 139289, Note_on_c, 11, 67, 0
13, 139289, Note_on_c, 11, 76, 0
13, 139320, Note_on_c, 11, 67, 76
13, 139320, Note_on_c, 11, 76, 76
13, 139409, Note_on_c, 11, 67, 0
13, 139409, Note_on_c, 11, 76, 0
13, 139440, Note_on_c, 11, 67, 76
13, 139440, Note_on_c, 11, 76, 76
13, 139529, Note_on_c, 11, 67, 0
13, 139529, Note_on_c, 11, 76, 0
13, 139560, Note_on_c, 11, 67, 76
13, 139560, Note_on_c, 11, 76, 76
13, 139649, Note_on_c, 11, 67, 0
13, 139649, Note_on_c, 11, 76, 0
13, 139680, Note_on_c, 11, 76, 76
13, 139680, Note_on_c, 11, 67, 76
13, 139769, Note_on_c, 11, 76, 0
13, 139769, Note_on_c, 11, 67, 0
13, 139800, Note_on_c, 11, 76, 76
13, 139800, Note_on_c, 11, 67, 76
13, 139889, Note_on_c, 11, 76, 0
13, 139889, Note_on_c, 11, 67, 0
13, 139920, Note_on_c, 11, 76, 76
13, 139920, Note_on_c, 11, 67, 76
13, 140009, Note_on_c, 11, 76, 0
13, 140009, Note_on_c, 11, 67, 0
13, 140040, Note_on_c, 11, 67, 76
13, 140040, Note_on_c, 11, 76, 76
13, 140129, Note_on_c, 11, 67, 0
13, 140129, Note_on_c, 11, 76, 0
13, 140160, Note_on_c, 11, 67, 76
13, 140160, Note_on_c, 11, 76, 76
13, 140249, Note_on_c, 11, 67, 0
13, 140249, Note_on_c, 11, 76, 0
13, 140280, Note_on_c, 11, 67, 76
13, 140280, Note_on_c, 11, 76, 76
13, 140369, Note_on_c, 11, 67, 0
13, 140369, Note_on_c, 11, 76, 0
13, 140400, Note_on_c, 11, 67, 76
13, 140400, Note_on_c, 11, 76, 76
13, 140489, Note_on_c, 11, 67, 0
13, 140489, Note_on_c, 11, 76, 0
13, 140520, Note_on_c, 11, 76, 76
13, 140520, Note_on_c, 11, 67, 76
13, 140609, Note_on_c, 11, 76, 0
13, 140609, Note_on_c, 11, 67, 0
13, 140640, Note_on_c, 11, 67, 76
13, 140640, Note_on_c, 11, 76, 76
13, 140729, Note_on_c, 11, 67, 0
13, 140729, Note_on_c, 11, 76, 0
13, 140760, Note_on_c, 11, 76, 76
13, 140760, Note_on_c, 11, 67, 76
13, 140849, Note_on_c, 11, 76, 0
13, 140849, Note_on_c, 11, 67, 0
13, 140880, Note_on_c, 11, 76, 76
13, 140880, Note_on_c, 11, 67, 76
13, 140969, Note_on_c, 11, 76, 0
13, 140969, Note_on_c, 11, 67, 0
13, 141000, Note_on_c, 11, 76, 76
13, 141000, Note_on_c, 11, 67, 76
13, 141089, Note_on_c, 11, 76, 0
13, 141089, Note_on_c, 11, 67, 0
13, 141120, Note_on_c, 11, 76, 76
13, 141120, Note_on_c, 11, 67, 76
13, 141209, Note_on_c, 11, 76, 0
13, 141209, Note_on_c, 11, 67, 0
13, 141240, Note_on_c, 11, 76, 76
13, 141240, Note_on_c, 11, 67, 76
13, 141329, Note_on_c, 11, 76, 0
13, 141329, Note_on_c, 11, 67, 0
13, 141360, Note_on_c, 11, 67, 76
13, 141360, Note_on_c, 11, 76, 76
13, 141449, Note_on_c, 11, 67, 0
13, 141449, Note_on_c, 11, 76, 0
13, 141480, Note_on_c, 11, 67, 76
13, 141480, Note_on_c, 11, 76, 76
13, 141569, Note_on_c, 11, 67, 0
13, 141569, Note_on_c, 11, 76, 0
13, 141600, Note_on_c, 11, 76, 76
13, 141600, Note_on_c, 11, 67, 76
13, 141689, Note_on_c, 11, 76, 0
13, 141689, Note_on_c, 11, 67, 0
13, 141720, Note_on_c, 11, 76, 76
13, 141720, Note_on_c, 11, 67, 76
13, 141809, Note_on_c, 11, 76, 0
13, 141809, Note_on_c, 11, 67, 0
13, 141840, Note_on_c, 11, 67, 76
13, 141840, Note_on_c, 11, 76, 76
13, 141929, Note_on_c, 11, 67, 0
13, 141929, Note_on_c, 11, 76, 0
13, 141960, Note_on_c, 11, 67, 76
13, 141960, Note_on_c, 11, 76, 76
13, 142049, Note_on_c, 11, 67, 0
13, 142049, Note_on_c, 11, 76, 0
13, 142080, Note_on_c, 11, 76, 76
13, 142080, Note_on_c, 11, 67, 76
13, 142169, Note_on_c, 11, 76, 0
13, 142169, Note_on_c, 11, 67, 0
13, 142200, Note_on_c, 11, 67, 76
13, 142200, Note_on_c, 11, 76, 76
13, 142289, Note_on_c, 11, 67, 0
13, 142289, Note_on_c, 11, 76, 0
13, 142320, Note_on_c, 11, 67, 76
13, 142320, Note_on_c, 11, 76, 76
13, 142409, Note_on_c, 11, 67, 0
13, 142409, Note_on_c, 11, 76, 0
13, 142440, Note_on_c, 11, 67, 76
13, 142440, Note_on_c, 11, 76, 76
13, 142529, Note_on_c, 11, 67, 0
13, 142529, Note_on_c, 11, 76, 0
13, 142560, Note_on_c, 11, 76, 52
13, 142649, Note_on_c, 11, 76, 0
13, 142680, Note_on_c, 11, 76, 52
13, 142769, Note_on_c, 11, 76, 0
13, 142800, Note_on_c, 11, 76, 52
13, 142889, Note_on_c, 11, 76, 0
13, 142920, Note_on_c, 11, 76, 52
13, 143009, Note_on_c, 11, 76, 0
13, 143040, Note_on_c, 11, 76, 52
13, 143129, Note_on_c, 11, 76, 0
13, 143160, Note_on_c, 11, 76, 52
13, 143249, Note_on_c, 11, 76, 0
13, 143280, Note_on_c, 11, 76, 52
13, 143369, Note_on_c, 11, 76, 0
13, 143400, Note_on_c, 11, 76, 52
13, 143489, Note_on_c, 11, 76, 0
13, 143520, Note_on_c, 11, 76, 52
13, 143609, Note_on_c, 11, 76, 0
13, 143640, Note_on_c, 11, 76, 52
13, 143729, Note_on_c, 11, 76, 0
13, 143760, Note_on_c, 11, 76, 52
13, 143849, Note_on_c, 11, 76, 0
13, 143880, Note_on_c, 11, 76, 52
13, 143969, Note_on_c, 11, 76, 0
13, 144000, Note_on_c, 11, 76, 52
13, 144089, Note_on_c, 11, 76, 0
13, 144120, Note_on_c, 11, 76, 52
13, 144209, Note_on_c, 11, 76, 0
13, 144240, Note_on_c, 11, 76, 52
13, 144329, Note_on_c, 11, 76, 0
13, 144360, Note_on_c, 11, 76, 52
13, 144449, Note_on_c, 11, 76, 0
13, 144480, Note_on_c, 11, 77, 52
13, 144569, Note_on_c, 11, 77, 0
13, 144600, Note_on_c, 11, 77, 52
13, 144689, Note_on_c, 11, 77, 0
13, 144720, Note_on_c, 11, 77, 53
13, 144809, Note_on_c, 11, 77, 0
13, 144840, Note_on_c, 11, 77, 53
13, 144929, Note_on_c, 11, 77, 0
13, 144960, Note_on_c, 11, 77, 54
13, 145049, Note_on_c, 11, 77, 0
13, 145080, Note_on_c, 11, 77, 54
13, 145169, Note_on_c, 11, 77, 0
13, 145200, Note_on_c, 11, 77, 55
13, 145289, Note_on_c, 11, 77, 0
13, 145320, Note_on_c, 11, 77, 55
13, 145409, Note_on_c, 11, 77, 0
13, 145440, Note_on_c, 11, 78, 56
13, 145529, Note_on_c, 11, 78, 0
13, 145560, Note_on_c, 11, 78, 56
13, 145649, Note_on_c, 11, 78, 0
13, 145680, Note_on_c, 11, 78, 57
13, 145769, Note_on_c, 11, 78, 0
13, 145800, Note_on_c, 11, 78, 57
13, 145889, Note_on_c, 11, 78, 0
13, 145920, Note_on_c, 11, 78, 58
13, 146009, Note_on_c, 11, 78, 0
13, 146040, Note_on_c, 11, 78, 58
13, 146129, Note_on_c, 11, 78, 0
13, 146160, Note_on_c, 11, 78, 59
13, 146249, Note_on_c, 11, 78, 0
13, 146280, Note_on_c, 11, 78, 59
13, 146369, Note_on_c, 11, 78, 0
13, 146400, Note_on_c, 11, 79, 60
13, 146489, Note_on_c, 11, 79, 0
13, 146520, Note_on_c, 11, 79, 60
13, 146609, Note_on_c, 11, 79, 0
13, 146640, Note_on_c, 11, 79, 61
13, 146729, Note_on_c, 11, 79, 0
13, 146760, Note_on_c, 11, 79, 61
13, 146849, Note_on_c, 11, 79, 0
13, 146880, Note_on_c, 11, 79, 62
13, 146969, Note_on_c, 11, 79, 0
13, 147000, Note_on_c, 11, 79, 62
13, 147089, Note_on_c, 11, 79, 0
13, 147120, Note_on_c, 11, 79, 63
13, 147209, Note_on_c, 11, 79, 0
13, 147240, Note_on_c, 11, 79, 63
13, 147329, Note_on_c, 11, 79, 0
13, 147360, Note_on_c, 11, 80, 64
13, 147449, Note_on_c, 11, 80, 0
13, 147480, Note_on_c, 11, 80, 64
13, 147569, Note_on_c, 11, 80, 0
13, 147600, Note_on_c, 11, 80, 65
13, 147689, Note_on_c, 11, 80, 0
13, 147720, Note_on_c, 11, 80, 65
13, 147809, Note_on_c, 11, 80, 0
13, 147840, Note_on_c, 11, 80, 66
13, 147929, Note_on_c, 11, 80, 0
13, 147960, Note_on_c, 11, 80, 66
13, 148049, Note_on_c, 11, 80, 0
13, 148080, Note_on_c, 11, 80, 67
13, 148169, Note_on_c, 11, 80, 0
13, 148200, Note_on_c, 11, 80, 67
13, 148289, Note_on_c, 11, 80, 0
13, 148320, Note_on_c, 11, 81, 68
13, 148409, Note_on_c, 11, 81, 0
13, 148440, Note_on_c, 11, 81, 68
13, 148529, Note_on_c, 11, 81, 0
13, 148560, Note_on_c, 11, 80, 69
13, 148649, Note_on_c, 11, 80, 0
13, 148680, Note_on_c, 11, 80, 69
13, 148769, Note_on_c, 11, 80, 0
13, 148800, Note_on_c, 11, 78, 70
13, 148889, Note_on_c, 11, 78, 0
13, 148920, Note_on_c, 11, 78, 70
13, 149009, Note_on_c, 11, 78, 0
13, 149040, Note_on_c, 11, 77, 71
13, 149129, Note_on_c, 11, 77, 0
13, 149160, Note_on_c, 11, 77, 71
13, 149249, Note_on_c, 11, 77, 0
13, 149280, Note_on_c, 11, 78, 72
13, 149369, Note_on_c, 11, 78, 0
13, 149400, Note_on_c, 11, 78, 72
13, 149489, Note_on_c, 11, 78, 0
13, 149520, Note_on_c, 11, 80, 73
13, 149609, Note_on_c, 11, 80, 0
13, 149640, Note_on_c, 11, 80, 73
13, 149729, Note_on_c, 11, 80, 0
13, 149760, Note_on_c, 11, 81, 74
13, 149849, Note_on_c, 11, 81, 0
13, 149880, Note_on_c, 11, 81, 74
13, 149969, Note_on_c, 11, 81, 0
13, 150000, Note_on_c, 11, 83, 75
13, 150089, Note_on_c, 11, 83, 0
13, 150120, Note_on_c, 11, 83, 75
13, 150209, Note_on_c, 11, 83, 0
13, 150240, Note_on_c, 11, 85, 76
13, 150959, Note_on_c, 11, 85, 0
13, 150960, Note_on_c, 11, 84, 76
13, 151169, Note_on_c, 11, 84, 0
13, 151200, Note_on_c, 11, 85, 76
13, 151439, Note_on_c, 11, 85, 0
13, 151440, Note_on_c, 11, 86, 76
13, 151679, Note_on_c, 11, 86, 0
13, 151680, Note_on_c, 11, 85, 76
13, 151919, Note_on_c, 11, 85, 0
13, 151920, Note_on_c, 11, 83, 76
13, 152159, Note_on_c, 11, 83, 0
13, 152160, Note_on_c, 11, 81, 76
13, 152399, Note_on_c, 11, 81, 0
13, 152400, Note_on_c, 11, 80, 76
13, 152639, Note_on_c, 11, 80, 0
13, 152640, Note_on_c, 11, 78, 76
13, 152879, Note_on_c, 11, 78, 0
13, 152880, Note_on_c, 11, 77, 76
13, 153119, Note_on_c, 11, 77, 0
13, 153120, Note_on_c, 11, 78, 76
13, 153359, Note_on_c, 11, 78, 0
13, 153360, Note_on_c, 11, 74, 76
13, 153599, Note_on_c, 11, 74, 0
13, 153600, Note_on_c, 11, 73, 76
13, 153839, Note_on_c, 11, 73, 0
13, 153840, Note_on_c, 11, 72, 76
13, 154049, Note_on_c, 11, 72, 0
13, 154080, Note_on_c, 11, 73, 84
13, 154169, Note_on_c, 11, 73, 0
13, 154200, Note_on_c, 11, 73, 84
13, 154289, Note_on_c, 11, 73, 0
13, 154320, Note_on_c, 11, 73, 84
13, 154409, Note_on_c, 11, 73, 0
13, 154440, Note_on_c, 11, 73, 84
13, 154529, Note_on_c, 11, 73, 0
13, 154560, Note_on_c, 11, 73, 84
13, 154649, Note_on_c, 11, 73, 0
13, 154680, Note_on_c, 11, 73, 84
13, 154769, Note_on_c, 11, 73, 0
13, 154800, Note_on_c, 11, 72, 84
13, 154889, Note_on_c, 11, 72, 0
13, 154920, Note_on_c, 11, 72, 84
13, 155009, Note_on_c, 11, 72, 0
13, 155040, Note_on_c, 11, 73, 84
13, 155129, Note_on_c, 11, 73, 0
13, 155160, Note_on_c, 11, 73, 84
13, 155249, Note_on_c, 11, 73, 0
13, 155280, Note_on_c, 11, 74, 84
13, 155369, Note_on_c, 11, 74, 0
13, 155400, Note_on_c, 11, 74, 84
13, 155489, Note_on_c, 11, 74, 0
13, 155520, Note_on_c, 11, 73, 84
13, 155609, Note_on_c, 11, 73, 0
13, 155640, Note_on_c, 11, 73, 84
13, 155729, Note_on_c, 11, 73, 0
13, 155760, Note_on_c, 11, 71, 84
13, 155849, Note_on_c, 11, 71, 0
13, 155880, Note_on_c, 11, 71, 84
13, 155969, Note_on_c, 11, 71, 0
13, 156000, Note_on_c, 11, 69, 84
13, 156089, Note_on_c, 11, 69, 0
13, 156120, Note_on_c, 11, 69, 84
13, 156209, Note_on_c, 11, 69, 0
13, 156240, Note_on_c, 11, 68, 84
13, 156329, Note_on_c, 11, 68, 0
13, 156360, Note_on_c, 11, 68, 84
13, 156449, Note_on_c, 11, 68, 0
13, 156480, Note_on_c, 11, 66, 84
13, 156569, Note_on_c, 11, 66, 0
13, 156600, Note_on_c, 11, 66, 84
13, 156689, Note_on_c, 11, 66, 0
13, 156720, Note_on_c, 11, 65, 84
13, 156809, Note_on_c, 11, 65, 0
13, 156840, Note_on_c, 11, 65, 84
13, 156929, Note_on_c, 11, 65, 0
13, 156960, Note_on_c, 11, 66, 84
13, 157049, Note_on_c, 11, 66, 0
13, 157080, Note_on_c, 11, 66, 84
13, 157169, Note_on_c, 11, 66, 0
13, 157200, Note_on_c, 11, 62, 84
13, 157289, Note_on_c, 11, 62, 0
13, 157320, Note_on_c, 11, 62, 84
13, 157409, Note_on_c, 11, 62, 0
13, 157440, Note_on_c, 11, 61, 84
13, 157529, Note_on_c, 11, 61, 0
13, 157560, Note_on_c, 11, 61, 84
13, 157649, Note_on_c, 11, 61, 0
13, 157680, Note_on_c, 11, 59, 84
13, 157769, Note_on_c, 11, 59, 0
13, 157800, Note_on_c, 11, 59, 84
13, 157889, Note_on_c, 11, 59, 0
13, 157920, Note_on_c, 11, 57, 84
13, 158159, Note_on_c, 11, 57, 0
13, 158760, Note_on_c, 11, 57, 84
13, 158879, Note_on_c, 11, 57, 0
13, 158880, Note_on_c, 11, 59, 84
13, 159059, Note_on_c, 11, 59, 0
13, 159720, Note_on_c, 11, 59, 84
13, 159839, Note_on_c, 11, 59, 0
13, 159840, Note_on_c, 11, 61, 84
13, 160019, Note_on_c, 11, 61, 0
13, 160680, Note_on_c, 11, 61, 84
13, 160799, Note_on_c, 11, 61, 0
13, 160800, Note_on_c, 11, 62, 84
13, 160979, Note_on_c, 11, 62, 0
13, 161160, Note_on_c, 11, 62, 84
13, 161279, Note_on_c, 11, 62, 0
13, 161280, Note_on_c, 11, 60, 84
13, 161459, Note_on_c, 11, 60, 0
13, 161640, Note_on_c, 11, 60, 84
13, 161759, Note_on_c, 11, 60, 0
13, 161760, Note_on_c, 11, 61, 84
13, 161939, Note_on_c, 11, 61, 0
13, 162000, Note_on_c, 11, 85, 92
13, 162449, Note_on_c, 11, 85, 0
13, 162480, Note_on_c, 11, 81, 84
13, 162599, Note_on_c, 11, 81, 0
13, 162600, Note_on_c, 11, 78, 84
13, 162689, Note_on_c, 11, 78, 0
13, 162720, Note_on_c, 11, 73, 84
13, 163169, Note_on_c, 11, 73, 0
13, 163200, Note_on_c, 11, 80, 84
13, 163259, Note_on_c, 11, 80, 0
13, 163260, Note_on_c, 11, 81, 84
13, 163319, Note_on_c, 11, 81, 0
13, 163320, Note_on_c, 11, 80, 84
13, 163379, Note_on_c, 11, 80, 0
13, 163380, Note_on_c, 11, 81, 84
13, 163439, Note_on_c, 11, 81, 0
13, 163440, Note_on_c, 11, 80, 84
13, 163499, Note_on_c, 11, 80, 0
13, 163500, Note_on_c, 11, 81, 84
13, 163559, Note_on_c, 11, 81, 0
13, 163560, Note_on_c, 11, 78, 84
13, 163619, Note_on_c, 11, 78, 0
13, 163620, Note_on_c, 11, 80, 84
13, 163664, Note_on_c, 11, 80, 0
13, 163680, Note_on_c, 11, 78, 84
13, 163919, Note_on_c, 11, 78, 0
13, 164520, Note_on_c, 11, 69, 84
13, 164639, Note_on_c, 11, 69, 0
13, 164640, Note_on_c, 11, 71, 84
13, 164819, Note_on_c, 11, 71, 0
13, 165480, Note_on_c, 11, 71, 84
13, 165599, Note_on_c, 11, 71, 0
13, 165600, Note_on_c, 11, 73, 84
13, 165779, Note_on_c, 11, 73, 0
13, 166440, Note_on_c, 11, 73, 84
13, 166559, Note_on_c, 11, 73, 0
13, 166560, Note_on_c, 11, 74, 84
13, 166739, Note_on_c, 11, 74, 0
13, 166920, Note_on_c, 11, 74, 84
13, 167039, Note_on_c, 11, 74, 0
13, 167040, Note_on_c, 11, 72, 84
13, 167219, Note_on_c, 11, 72, 0
13, 167400, Note_on_c, 11, 72, 84
13, 167519, Note_on_c, 11, 72, 0
13, 167520, Note_on_c, 11, 73, 92
13, 167699, Note_on_c, 11, 73, 0
13, 168360, Note_on_c, 11, 73, 84
13, 168479, Note_on_c, 11, 73, 0
13, 168480, Note_on_c, 11, 74, 84
13, 168659, Note_on_c, 11, 74, 0
13, 168840, Note_on_c, 11, 74, 84
13, 168959, Note_on_c, 11, 74, 0
13, 168960, Note_on_c, 11, 72, 84
13, 169139, Note_on_c, 11, 72, 0
13, 169320, Note_on_c, 11, 72, 84
13, 169439, Note_on_c, 11, 72, 0
13, 169440, Note_on_c, 11, 73, 84
13, 169619, Note_on_c, 11, 73, 0
13, 169800, Note_on_c, 11, 73, 84
13, 169919, Note_on_c, 11, 73, 0
13, 169920, Note_on_c, 11, 74, 84
13, 170099, Note_on_c, 11, 74, 0
13, 170280, Note_on_c, 11, 72, 84
13, 170399, Note_on_c, 11, 72, 0
13, 170400, Note_on_c, 11, 73, 92
13, 170579, Note_on_c, 11, 73, 0
13, 170760, Note_on_c, 11, 73, 84
13, 170879, Note_on_c, 11, 73, 0
13, 170880, Note_on_c, 11, 74, 84
13, 171059, Note_on_c, 11, 74, 0
13, 171240, Note_on_c, 11, 72, 84
13, 171359, Note_on_c, 11, 72, 0
13, 171360, Note_on_c, 11, 73, 92
13, 171449, Note_on_c, 11, 73, 0
13, 171480, Note_on_c, 11, 73, 84
13, 171569, Note_on_c, 11, 73, 0
13, 171600, Note_on_c, 11, 73, 84
13, 171689, Note_on_c, 11, 73, 0
13, 171720, Note_on_c, 11, 73, 84
13, 171809, Note_on_c, 11, 73, 0
13, 171840, Note_on_c, 11, 74, 84
13, 171929, Note_on_c, 11, 74, 0
13, 171960, Note_on_c, 11, 74, 84
13, 172049, Note_on_c, 11, 74, 0
13, 172080, Note_on_c, 11, 72, 84
13, 172169, Note_on_c, 11, 72, 0
13, 172200, Note_on_c, 11, 72, 84
13, 172289, Note_on_c, 11, 72, 0
13, 172320, Note_on_c, 11, 73, 92
13, 172409, Note_on_c, 11, 73, 0
13, 172440, Note_on_c, 11, 73, 84
13, 172529, Note_on_c, 11, 73, 0
13, 172560, Note_on_c, 11, 73, 84
13, 172649, Note_on_c, 11, 73, 0
13, 172680, Note_on_c, 11, 73, 84
13, 172769, Note_on_c, 11, 73, 0
13, 172800, Note_on_c, 11, 74, 84
13, 172889, Note_on_c, 11, 74, 0
13, 172920, Note_on_c, 11, 74, 84
13, 173009, Note_on_c, 11, 74, 0
13, 173040, Note_on_c, 11, 72, 84
13, 173129, Note_on_c, 11, 72, 0
13, 173160, Note_on_c, 11, 72, 84
13, 173249, Note_on_c, 11, 72, 0
13, 173280, Note_on_c, 11, 73, 92
13, 173519, Note_on_c, 11, 73, 0
13, 173640, Note_on_c, 11, 77, 44
13, 173759, Note_on_c, 11, 77, 0
13, 173760, Note_on_c, 11, 78, 44
13, 173999, Note_on_c, 11, 78, 0
13, 175560, Note_on_c, 11, 78, 44
13, 175679, Note_on_c, 11, 78, 0
13, 175680, Note_on_c, 11, 79, 44
13, 175919, Note_on_c, 11, 79, 0
13, 177000, Note_on_c, 11, 78, 76
13, 177119, Note_on_c, 11, 78, 0
13, 177120, Note_on_c, 11, 79, 76
13, 177299, Note_on_c, 11, 79, 0
13, 177480, Note_on_c, 11, 61, 76
13, 177569, Note_on_c, 11, 61, 0
13, 177600, Note_on_c, 11, 61, 84
13, 177659, Note_on_c, 11, 61, 0
13, 177660, Note_on_c, 11, 62, 76
13, 177719, Note_on_c, 11, 62, 0
13, 177720, Note_on_c, 11, 61, 76
13, 177779, Note_on_c, 11, 61, 0
13, 177780, Note_on_c, 11, 62, 76
13, 177839, Note_on_c, 11, 62, 0
13, 177840, Note_on_c, 11, 61, 76
13, 177899, Note_on_c, 11, 61, 0
13, 177900, Note_on_c, 11, 62, 76
13, 177959, Note_on_c, 11, 62, 0
13, 177960, Note_on_c, 11, 59, 76
13, 178019, Note_on_c, 11, 59, 0
13, 178020, Note_on_c, 11, 61, 76
13, 178064, Note_on_c, 11, 61, 0
13, 178080, Note_on_c, 11, 64, 76
13, 178259, Note_on_c, 11, 64, 0
13, 178320, Note_on_c, 11, 57, 76
13, 178499, Note_on_c, 11, 57, 0
13, 178800, Note_on_c, 11, 69, 52
13, 178889, Note_on_c, 11, 69, 0
13, 178920, Note_on_c, 11, 69, 52
13, 179009, Note_on_c, 11, 69, 0
13, 179040, Note_on_c, 11, 74, 52
13, 179159, Note_on_c, 11, 74, 0
13, 179160, Note_on_c, 11, 69, 52
13, 179249, Note_on_c, 11, 69, 0
13, 179280, Note_on_c, 11, 78, 52
13, 179369, Note_on_c, 11, 78, 0
13, 179400, Note_on_c, 11, 78, 52
13, 179489, Note_on_c, 11, 78, 0
13, 179520, Note_on_c, 11, 76, 52
13, 179639, Note_on_c, 11, 76, 0
13, 179640, Note_on_c, 11, 69, 52
13, 179729, Note_on_c, 11, 69, 0
13, 179760, Note_on_c, 11, 79, 52
13, 179849, Note_on_c, 11, 79, 0
13, 179880, Note_on_c, 11, 79, 52
13, 179969, Note_on_c, 11, 79, 0
13, 180000, Note_on_c, 11, 78, 52
13, 180119, Note_on_c, 11, 78, 0
13, 180120, Note_on_c, 11, 69, 52
13, 180209, Note_on_c, 11, 69, 0
13, 180240, Note_on_c, 11, 81, 52
13, 180329, Note_on_c, 11, 81, 0
13, 180360, Note_on_c, 11, 81, 52
13, 180449, Note_on_c, 11, 81, 0
13, 180480, Note_on_c, 11, 81, 52
13, 180599, Note_on_c, 11, 81, 0
13, 180600, Note_on_c, 11, 79, 52
13, 180689, Note_on_c, 11, 79, 0
13, 180720, Note_on_c, 11, 78, 52
13, 180809, Note_on_c, 11, 78, 0
13, 180840, Note_on_c, 11, 76, 52
13, 180929, Note_on_c, 11, 76, 0
13, 180960, Note_on_c, 11, 76, 52
13, 181079, Note_on_c, 11, 76, 0
13, 181080, Note_on_c, 11, 74, 52
13, 181169, Note_on_c, 11, 74, 0
13, 181200, Note_on_c, 11, 74, 52
13, 181289, Note_on_c, 11, 74, 0
13, 181320, Note_on_c, 11, 74, 52
13, 181409, Note_on_c, 11, 74, 0
13, 181440, Note_on_c, 11, 74, 52
13, 181559, Note_on_c, 11, 74, 0
13, 181560, Note_on_c, 11, 73, 52
13, 181649, Note_on_c, 11, 73, 0
13, 181680, Note_on_c, 11, 71, 52
13, 181769, Note_on_c, 11, 71, 0
13, 181800, Note_on_c, 11, 73, 52
13, 181889, Note_on_c, 11, 73, 0
13, 181920, Note_on_c, 11, 74, 76
13, 182099, Note_on_c, 11, 74, 0
13, 182160, Note_on_c, 11, 69, 76
13, 182160, Note_on_c, 11, 76, 76
13, 182339, Note_on_c, 11, 69, 0
13, 182339, Note_on_c, 11, 76, 0
13, 182760, Note_on_c, 11, 78, 84
13, 182879, Note_on_c, 11, 78, 0
13, 182880, Note_on_c, 11, 79, 84
13, 183059, Note_on_c, 11, 79, 0
13, 183240, Note_on_c, 11, 61, 84
13, 183329, Note_on_c, 11, 61, 0
13, 183360, Note_on_c, 11, 61, 92
13, 183419, Note_on_c, 11, 61, 0
13, 183420, Note_on_c, 11, 62, 84
13, 183479, Note_on_c, 11, 62, 0
13, 183480, Note_on_c, 11, 61, 84
13, 183539, Note_on_c, 11, 61, 0
13, 183540, Note_on_c, 11, 62, 84
13, 183599, Note_on_c, 11, 62, 0
13, 183600, Note_on_c, 11, 61, 84
13, 183659, Note_on_c, 11, 61, 0
13, 183660, Note_on_c, 11, 62, 84
13, 183719, Note_on_c, 11, 62, 0
13, 183720, Note_on_c, 11, 59, 84
13, 183779, Note_on_c, 11, 59, 0
13, 183780, Note_on_c, 11, 61, 84
13, 183824, Note_on_c, 11, 61, 0
13, 183840, Note_on_c, 11, 64, 84
13, 184019, Note_on_c, 11, 64, 0
13, 184080, Note_on_c, 11, 57, 84
13, 184259, Note_on_c, 11, 57, 0
13, 184560, Note_on_c, 11, 69, 52
13, 184649, Note_on_c, 11, 69, 0
13, 184680, Note_on_c, 11, 69, 52
13, 184769, Note_on_c, 11, 69, 0
13, 184800, Note_on_c, 11, 74, 52
13, 184919, Note_on_c, 11, 74, 0
13, 184920, Note_on_c, 11, 69, 52
13, 185009, Note_on_c, 11, 69, 0
13, 185040, Note_on_c, 11, 78, 52
13, 185129, Note_on_c, 11, 78, 0
13, 185160, Note_on_c, 11, 78, 52
13, 185249, Note_on_c, 11, 78, 0
13, 185280, Note_on_c, 11, 76, 52
13, 185399, Note_on_c, 11, 76, 0
13, 185400, Note_on_c, 11, 69, 52
13, 185489, Note_on_c, 11, 69, 0
13, 185520, Note_on_c, 11, 79, 52
13, 185609, Note_on_c, 11, 79, 0
13, 185640, Note_on_c, 11, 79, 52
13, 185729, Note_on_c, 11, 79, 0
13, 185760, Note_on_c, 11, 78, 52
13, 185879, Note_on_c, 11, 78, 0
13, 185880, Note_on_c, 11, 69, 52
13, 185969, Note_on_c, 11, 69, 0
13, 186000, Note_on_c, 11, 81, 52
13, 186089, Note_on_c, 11, 81, 0
13, 186120, Note_on_c, 11, 81, 52
13, 186209, Note_on_c, 11, 81, 0
13, 186240, Note_on_c, 11, 81, 52
13, 186359, Note_on_c, 11, 81, 0
13, 186360, Note_on_c, 11, 79, 52
13, 186449, Note_on_c, 11, 79, 0
13, 186480, Note_on_c, 11, 78, 52
13, 186569, Note_on_c, 11, 78, 0
13, 186600, Note_on_c, 11, 76, 52
13, 186689, Note_on_c, 11, 76, 0
13, 186720, Note_on_c, 11, 76, 52
13, 186839, Note_on_c, 11, 76, 0
13, 186840, Note_on_c, 11, 74, 52
13, 186929, Note_on_c, 11, 74, 0
13, 186960, Note_on_c, 11, 74, 52
13, 187049, Note_on_c, 11, 74, 0
13, 187080, Note_on_c, 11, 74, 52
13, 187169, Note_on_c, 11, 74, 0
13, 187200, Note_on_c, 11, 74, 52
13, 187319, Note_on_c, 11, 74, 0
13, 187320, Note_on_c, 11, 73, 52
13, 187409, Note_on_c, 11, 73, 0
13, 187440, Note_on_c, 11, 71, 52
13, 187529, Note_on_c, 11, 71, 0
13, 187560, Note_on_c, 11, 73, 52
13, 187649, Note_on_c, 11, 73, 0
13, 187680, Note_on_c, 11, 74, 76
13, 187919, Note_on_c, 11, 74, 0
13, 188520, Note_on_c, 11, 62, 76
13, 188609, Note_on_c, 11, 62, 0
13, 188640, Note_on_c, 11, 64, 76
13, 188819, Note_on_c, 11, 64, 0
13, 188880, Note_on_c, 11, 66, 76
13, 189059, Note_on_c, 11, 66, 0
13, 189120, Note_on_c, 11, 67, 76
13, 189299, Note_on_c, 11, 67, 0
13, 189360, Note_on_c, 11, 65, 76
13, 189539, Note_on_c, 11, 65, 0
13, 189600, Note_on_c, 11, 66, 76
13, 189839, Note_on_c, 11, 66, 0
13, 190440, Note_on_c, 11, 66, 76
13, 190529, Note_on_c, 11, 66, 0
13, 190560, Note_on_c, 11, 67, 76
13, 190739, Note_on_c, 11, 67, 0
13, 190800, Note_on_c, 11, 69, 76
13, 190979, Note_on_c, 11, 69, 0
13, 191040, Note_on_c, 11, 71, 76
13, 191219, Note_on_c, 11, 71, 0
13, 191280, Note_on_c, 11, 73, 76
13, 191459, Note_on_c, 11, 73, 0
13, 191520, Note_on_c, 11, 74, 84
13, 191759, Note_on_c, 11, 74, 0
13, 192240, Note_on_c, 11, 74, 76
13, 192329, Note_on_c, 11, 74, 0
13, 192360, Note_on_c, 11, 74, 76
13, 192449, Note_on_c, 11, 74, 0
13, 192480, Note_on_c, 11, 76, 76
13, 192569, Note_on_c, 11, 76, 0
13, 192600, Note_on_c, 11, 76, 76
13, 192689, Note_on_c, 11, 76, 0
13, 192720, Note_on_c, 11, 78, 76
13, 192809, Note_on_c, 11, 78, 0
13, 192840, Note_on_c, 11, 78, 76
13, 192929, Note_on_c, 11, 78, 0
13, 192960, Note_on_c, 11, 79, 76
13, 193049, Note_on_c, 11, 79, 0
13, 193080, Note_on_c, 11, 79, 76
13, 193169, Note_on_c, 11, 79, 0
13, 193200, Note_on_c, 11, 77, 76
13, 193289, Note_on_c, 11, 77, 0
13, 193320, Note_on_c, 11, 77, 76
13, 193409, Note_on_c, 11, 77, 0
13, 193440, Note_on_c, 11, 78, 84
13, 193679, Note_on_c, 11, 78, 0
13, 194160, Note_on_c, 11, 78, 76
13, 194249, Note_on_c, 11, 78, 0
13, 194280, Note_on_c, 11, 78, 76
13, 194369, Note_on_c, 11, 78, 0
13, 194400, Note_on_c, 11, 79, 76
13, 194489, Note_on_c, 11, 79, 0
13, 194520, Note_on_c, 11, 79, 76
13, 194609, Note_on_c, 11, 79, 0
13, 194640, Note_on_c, 11, 78, 76
13, 194729, Note_on_c, 11, 78, 0
13, 194760, Note_on_c, 11, 78, 76
13, 194849, Note_on_c, 11, 78, 0
13, 194880, Note_on_c, 11, 79, 76
13, 194969, Note_on_c, 11, 79, 0
13, 195000, Note_on_c, 11, 79, 76
13, 195089, Note_on_c, 11, 79, 0
13, 195120, Note_on_c, 11, 80, 76
13, 195209, Note_on_c, 11, 80, 0
13, 195240, Note_on_c, 11, 80, 76
13, 195329, Note_on_c, 11, 80, 0
13, 195360, Note_on_c, 11, 81, 84
13, 195449, Note_on_c, 11, 81, 0
13, 195480, Note_on_c, 11, 81, 84
13, 195569, Note_on_c, 11, 81, 0
13, 195600, Note_on_c, 11, 81, 84
13, 195689, Note_on_c, 11, 81, 0
13, 195720, Note_on_c, 11, 81, 84
13, 195809, Note_on_c, 11, 81, 0
13, 195840, Note_on_c, 11, 85, 84
13, 195929, Note_on_c, 11, 85, 0
13, 195960, Note_on_c, 11, 81, 84
13, 196049, Note_on_c, 11, 81, 0
13, 196080, Note_on_c, 11, 81, 84
13, 196169, Note_on_c, 11, 81, 0
13, 196200, Note_on_c, 11, 81, 84
13, 196289, Note_on_c, 11, 81, 0
13, 196320, Note_on_c, 11, 86, 84
13, 196409, Note_on_c, 11, 86, 0
13, 196440, Note_on_c, 11, 81, 84
13, 196529, Note_on_c, 11, 81, 0
13, 196560, Note_on_c, 11, 81, 84
13, 196649, Note_on_c, 11, 81, 0
13, 196680, Note_on_c, 11, 81, 84
13, 196769, Note_on_c, 11, 81, 0
13, 196800, Note_on_c, 11, 86, 84
13, 196889, Note_on_c, 11, 86, 0
13, 196920, Note_on_c, 11, 80, 84
13, 197009, Note_on_c, 11, 80, 0
13, 197040, Note_on_c, 11, 80, 84
13, 197129, Note_on_c, 11, 80, 0
13, 197160, Note_on_c, 11, 80, 84
13, 197249, Note_on_c, 11, 80, 0
13, 197280, Note_on_c, 11, 83, 84
13, 197369, Note_on_c, 11, 83, 0
13, 197400, Note_on_c, 11, 81, 84
13, 197489, Note_on_c, 11, 81, 0
13, 197520, Note_on_c, 11, 81, 84
13, 197609, Note_on_c, 11, 81, 0
13, 197640, Note_on_c, 11, 81, 84
13, 197729, Note_on_c, 11, 81, 0
13, 197760, Note_on_c, 11, 85, 84
13, 197849, Note_on_c, 11, 85, 0
13, 197880, Note_on_c, 11, 81, 84
13, 197969, Note_on_c, 11, 81, 0
13, 198000, Note_on_c, 11, 81, 84
13, 198089, Note_on_c, 11, 81, 0
13, 198120, Note_on_c, 11, 81, 84
13, 198209, Note_on_c, 11, 81, 0
13, 198240, Note_on_c, 11, 86, 84
13, 198329, Note_on_c, 11, 86, 0
13, 198360, Note_on_c, 11, 81, 84
13, 198449, Note_on_c, 11, 81, 0
13, 198480, Note_on_c, 11, 81, 84
13, 198569, Note_on_c, 11, 81, 0
13, 198600, Note_on_c, 11, 81, 84
13, 198689, Note_on_c, 11, 81, 0
13, 198720, Note_on_c, 11, 86, 84
13, 198809, Note_on_c, 11, 86, 0
13, 198840, Note_on_c, 11, 80, 84
13, 198929, Note_on_c, 11, 80, 0
13, 198960, Note_on_c, 11, 80, 84
13, 199049, Note_on_c, 11, 80, 0
13, 199080, Note_on_c, 11, 80, 84
13, 199169, Note_on_c, 11, 80, 0
13, 199200, Note_on_c, 11, 81, 84
13, 199409, Note_on_c, 11, 81, 0
13, 199440, Note_on_c, 11, 57, 84
13, 199649, Note_on_c, 11, 57, 0
13, 199680, Note_on_c, 11, 57, 84
13, 199889, Note_on_c, 11, 57, 0
13, 199920, Note_on_c, 11, 57, 84
13, 200129, Note_on_c, 11, 57, 0
13, 200160, Note_on_c, 11, 57, 84
13, 200399, Note_on_c, 11, 57, 0
13, 202080, Note_on_c, 11, 69, 48
13, 205439, Note_on_c, 11, 69, 0
13, 205440, Note_on_c, 11, 67, 48
13, 205679, Note_on_c, 11, 67, 0
13, 205680, Note_on_c, 11, 66, 48
13, 205889, Note_on_c, 11, 66, 0
13, 205920, Note_on_c, 11, 71, 48
13, 206399, Note_on_c, 11, 71, 0
13, 206400, Note_on_c, 11, 69, 48
13, 206639, Note_on_c, 11, 69, 0
13, 206640, Note_on_c, 11, 68, 48
13, 206849, Note_on_c, 11, 68, 0
13, 206880, Note_on_c, 11, 73, 48
13, 207119, Note_on_c, 11, 73, 0
13, 207840, Note_on_c, 11, 76, 52
13, 208319, Note_on_c, 11, 76, 0
13, 208320, Note_on_c, 11, 78, 52
13, 208559, Note_on_c, 11, 78, 0
13, 208560, Note_on_c, 11, 80, 52
13, 208769, Note_on_c, 11, 80, 0
13, 208800, Note_on_c, 11, 81, 52
13, 208979, Note_on_c, 11, 81, 0
13, 209760, Note_on_c, 11, 76, 52
13, 210239, Note_on_c, 11, 76, 0
13, 210240, Note_on_c, 11, 78, 52
13, 210479, Note_on_c, 11, 78, 0
13, 210480, Note_on_c, 11, 80, 52
13, 210689, Note_on_c, 11, 80, 0
13, 210720, Note_on_c, 11, 81, 52
13, 210899, Note_on_c, 11, 81, 0
13, 211680, Control_c, 11, 11, 96
13, 211760, Control_c, 11, 11, 99
13, 211840, Control_c, 11, 11, 101
13, 211920, Control_c, 11, 11, 104
13, 212000, Control_c, 11, 11, 106
13, 212080, Control_c, 11, 11, 109
13, 212160, Note_on_c, 11, 74, 68
13, 212160, Control_c, 11, 11, 112
13, 212240, Control_c, 11, 11, 114
13, 212320, Control_c, 11, 11, 117
13, 212400, Control_c, 11, 11, 119
13, 212480, Control_c, 11, 11, 122
13, 212560, Control_c, 11, 11, 124
13, 212640, Control_c, 11, 11, 96
13, 212879, Note_on_c, 11, 74, 0
13, 213600, Note_on_c, 11, 72, 68
13, 213600, Note_on_c, 11, 62, 68
13, 213839, Note_on_c, 11, 72, 0
13, 213839, Note_on_c, 11, 62, 0
13, 214560, Note_on_c, 11, 62, 68
13, 214560, Note_on_c, 11, 71, 68
13, 214799, Note_on_c, 11, 62, 0
13, 214799, Note_on_c, 11, 71, 0
13, 215520, Note_on_c, 11, 62, 68
13, 215520, Note_on_c, 11, 72, 68
13, 215759, Note_on_c, 11, 62, 0
13, 215759, Note_on_c, 11, 72, 0
13, 216240, Control_c, 11, 11, 80
13, 216480, Note_on_c, 11, 62, 76
13, 216480, Note_on_c, 11, 71, 76
13, 216689, Note_on_c, 11, 62, 0
13, 216689, Note_on_c, 11, 71, 0
13, 216720, Control_c, 11, 11, 80
13, 216720, Note_on_c, 11, 74, 76
13, 216860, Control_c, 11, 11, 84
13, 217000, Control_c, 11, 11, 88
13, 217140, Control_c, 11, 11, 92
13, 217199, Note_on_c, 11, 74, 0
13, 217200, Note_on_c, 11, 75, 76
13, 217280, Control_c, 11, 11, 96
13, 217420, Control_c, 11, 11, 100
13, 217439, Note_on_c, 11, 75, 0
13, 217440, Note_on_c, 11, 76, 76
13, 217560, Control_c, 11, 11, 104
13, 217679, Note_on_c, 11, 76, 0
13, 217680, Note_on_c, 11, 78, 76
13, 217700, Control_c, 11, 11, 107
13, 217840, Control_c, 11, 11, 111
13, 217919, Note_on_c, 11, 78, 0
13, 217920, Note_on_c, 11, 79, 76
13, 217980, Control_c, 11, 11, 115
13, 218120, Control_c, 11, 11, 119
13, 218159, Note_on_c, 11, 79, 0
13, 218160, Note_on_c, 11, 83, 76
13, 218260, Control_c, 11, 11, 123
13, 218369, Note_on_c, 11, 83, 0
13, 218400, Control_c, 11, 11, 127
13, 218400, Note_on_c, 11, 57, 76
13, 218489, Note_on_c, 11, 57, 0
13, 218520, Note_on_c, 11, 57, 76
13, 218609, Note_on_c, 11, 57, 0
13, 218640, Note_on_c, 11, 61, 76
13, 218729, Note_on_c, 11, 61, 0
13, 218760, Note_on_c, 11, 61, 76
13, 218849, Note_on_c, 11, 61, 0
13, 218880, Note_on_c, 11, 64, 76
13, 218969, Note_on_c, 11, 64, 0
13, 219000, Note_on_c, 11, 64, 76
13, 219089, Note_on_c, 11, 64, 0
13, 219120, Note_on_c, 11, 69, 76
13, 219209, Note_on_c, 11, 69, 0
13, 219240, Note_on_c, 11, 69, 76
13, 219329, Note_on_c, 11, 69, 0
13, 219360, Note_on_c, 11, 73, 84
13, 220049, Note_on_c, 11, 73, 0
13, 220080, Note_on_c, 11, 57, 76
13, 220169, Note_on_c, 11, 57, 0
13, 220200, Note_on_c, 11, 57, 76
13, 220289, Note_on_c, 11, 57, 0
13, 220320, Note_on_c, 11, 59, 76
13, 220409, Note_on_c, 11, 59, 0
13, 220440, Note_on_c, 11, 59, 76
13, 220529, Note_on_c, 11, 59, 0
13, 220560, Note_on_c, 11, 62, 76
13, 220649, Note_on_c, 11, 62, 0
13, 220680, Note_on_c, 11, 62, 76
13, 220769, Note_on_c, 11, 62, 0
13, 220800, Note_on_c, 11, 68, 76
13, 220889, Note_on_c, 11, 68, 0
13, 220920, Note_on_c, 11, 68, 76
13, 221009, Note_on_c, 11, 68, 0
13, 221040, Note_on_c, 11, 71, 76
13, 221129, Note_on_c, 11, 71, 0
13, 221160, Note_on_c, 11, 71, 76
13, 221249, Note_on_c, 11, 71, 0
13, 221280, Note_on_c, 11, 74, 84
13, 221969, Note_on_c, 11, 74, 0
13, 222000, Note_on_c, 11, 59, 76
13, 222089, Note_on_c, 11, 59, 0
13, 222120, Note_on_c, 11, 59, 76
13, 222209, Note_on_c, 11, 59, 0
13, 222240, Note_on_c, 11, 61, 76
13, 222329, Note_on_c, 11, 61, 0
13, 222360, Note_on_c, 11, 61, 76
13, 222449, Note_on_c, 11, 61, 0
13, 222480, Note_on_c, 11, 76, 76
13, 222569, Note_on_c, 11, 76, 0
13, 222600, Note_on_c, 11, 76, 76
13, 222689, Note_on_c, 11, 76, 0
13, 222720, Note_on_c, 11, 76, 84
13, 222809, Note_on_c, 11, 76, 0
13, 222840, Note_on_c, 11, 76, 76
13, 222929, Note_on_c, 11, 76, 0
13, 222960, Note_on_c, 11, 61, 76
13, 223049, Note_on_c, 11, 61, 0
13, 223080, Note_on_c, 11, 61, 76
13, 223169, Note_on_c, 11, 61, 0
13, 223200, Note_on_c, 11, 62, 76
13, 223289, Note_on_c, 11, 62, 0
13, 223320, Note_on_c, 11, 62, 76
13, 223409, Note_on_c, 11, 62, 0
13, 223440, Note_on_c, 11, 78, 76
13, 223529, Note_on_c, 11, 78, 0
13, 223560, Note_on_c, 11, 78, 76
13, 223649, Note_on_c, 11, 78, 0
13, 223680, Note_on_c, 11, 78, 84
13, 223769, Note_on_c, 11, 78, 0
13, 223800, Note_on_c, 11, 78, 76
13, 223889, Note_on_c, 11, 78, 0
13, 223920, Note_on_c, 11, 62, 76
13, 224009, Note_on_c, 11, 62, 0
13, 224040, Note_on_c, 11, 62, 76
13, 224129, Note_on_c, 11, 62, 0
13, 224160, Note_on_c, 11, 64, 76
13, 224249, Note_on_c, 11, 64, 0
13, 224280, Note_on_c, 11, 64, 76
13, 224369, Note_on_c, 11, 64, 0
13, 224400, Note_on_c, 11, 79, 76
13, 224489, Note_on_c, 11, 79, 0
13, 224520, Note_on_c, 11, 79, 76
13, 224609, Note_on_c, 11, 79, 0
13, 224640, Note_on_c, 11, 79, 84
13, 224729, Note_on_c, 11, 79, 0
13, 224760, Note_on_c, 11, 79, 76
13, 224849, Note_on_c, 11, 79, 0
13, 224880, Note_on_c, 11, 76, 76
13, 224969, Note_on_c, 11, 76, 0
13, 225000, Note_on_c, 11, 76, 76
13, 225089, Note_on_c, 11, 76, 0
13, 225120, Note_on_c, 11, 73, 76
13, 225209, Note_on_c, 11, 73, 0
13, 225240, Note_on_c, 11, 73, 76
13, 225329, Note_on_c, 11, 73, 0
13, 225360, Note_on_c, 11, 69, 76
13, 225449, Note_on_c, 11, 69, 0
13, 225480, Note_on_c, 11, 69, 76
13, 225569, Note_on_c, 11, 69, 0
13, 225600, Note_on_c, 11, 67, 76
13, 225689, Note_on_c, 11, 67, 0
13, 225720, Note_on_c, 11, 67, 76
13, 225809, Note_on_c, 11, 67, 0
13, 225840, Note_on_c, 11, 64, 76
13, 225929, Note_on_c, 11, 64, 0
13, 225960, Note_on_c, 11, 64, 76
13, 226049, Note_on_c, 11, 64, 0
13, 226080, Note_on_c, 11, 62, 52
13, 226259, Note_on_c, 11, 62, 0
13, 226320, Note_on_c, 11, 69, 52
13, 226499, Note_on_c, 11, 69, 0
13, 226560, Note_on_c, 11, 66, 52
13, 226739, Note_on_c, 11, 66, 0
13, 226800, Note_on_c, 11, 69, 52
13, 226979, Note_on_c, 11, 69, 0
13, 227280, Note_on_c, 11, 69, 52
13, 227459, Note_on_c, 11, 69, 0
13, 227520, Note_on_c, 11, 66, 52
13, 227699, Note_on_c, 11, 66, 0
13, 227760, Note_on_c, 11, 69, 52
13, 227939, Note_on_c, 11, 69, 0
13, 228240, Note_on_c, 11, 69, 52
13, 228419, Note_on_c, 11, 69, 0
13, 228480, Note_on_c, 11, 67, 52
13, 228659, Note_on_c, 11, 67, 0
13, 228720, Note_on_c, 11, 69, 52
13, 228899, Note_on_c, 11, 69, 0
13, 229200, Note_on_c, 11, 76, 68
13, 229319, Note_on_c, 11, 76, 0
13, 229320, Note_on_c, 11, 74, 52
13, 229439, Note_on_c, 11, 74, 0
13, 229440, Note_on_c, 11, 73, 52
13, 229559, Note_on_c, 11, 73, 0
13, 229560, Note_on_c, 11, 71, 52
13, 229679, Note_on_c, 11, 71, 0
13, 229680, Note_on_c, 11, 69, 52
13, 229799, Note_on_c, 11, 69, 0
13, 229800, Note_on_c, 11, 73, 52
13, 229889, Note_on_c, 11, 73, 0
13, 229920, Note_on_c, 11, 74, 52
13, 230129, Note_on_c, 11, 74, 0
13, 230160, Note_on_c, 11, 69, 52
13, 230339, Note_on_c, 11, 69, 0
13, 230400, Note_on_c, 11, 66, 52
13, 230579, Note_on_c, 11, 66, 0
13, 230640, Note_on_c, 11, 69, 52
13, 230819, Note_on_c, 11, 69, 0
13, 231120, Note_on_c, 11, 69, 52
13, 231299, Note_on_c, 11, 69, 0
13, 231360, Note_on_c, 11, 66, 52
13, 231539, Note_on_c, 11, 66, 0
13, 231600, Note_on_c, 11, 69, 52
13, 231779, Note_on_c, 11, 69, 0
13, 232080, Note_on_c, 11, 69, 52
13, 232259, Note_on_c, 11, 69, 0
13, 232320, Note_on_c, 11, 67, 52
13, 232499, Note_on_c, 11, 67, 0
13, 232560, Note_on_c, 11, 69, 52
13, 232739, Note_on_c, 11, 69, 0
13, 232800, Control_c, 11, 11, 96
13, 233040, Note_on_c, 11, 76, 84
13, 233159, Note_on_c, 11, 76, 0
13, 233160, Note_on_c, 11, 74, 68
13, 233279, Note_on_c, 11, 74, 0
13, 233280, Note_on_c, 11, 73, 68
13, 233399, Note_on_c, 11, 73, 0
13, 233400, Note_on_c, 11, 71, 68
13, 233519, Note_on_c, 11, 71, 0
13, 233520, Note_on_c, 11, 69, 68
13, 233639, Note_on_c, 11, 69, 0
13, 233640, Note_on_c, 11, 73, 68
13, 233729, Note_on_c, 11, 73, 0
13, 233760, Note_on_c, 11, 74, 68
13, 233939, Note_on_c, 11, 74, 0
13, 234000, Control_c, 11, 11, 96
13, 234000, Note_on_c, 11, 78, 68
13, 234179, Note_on_c, 11, 78, 0
13, 234220, Control_c, 11, 11, 99
13, 234240, Note_on_c, 11, 74, 68
13, 234419, Note_on_c, 11, 74, 0
13, 234440, Control_c, 11, 11, 101
13, 234480, Note_on_c, 11, 78, 68
13, 234659, Note_on_c, 11, 78, 0
13, 234660, Control_c, 11, 11, 104
13, 234880, Control_c, 11, 11, 106
13, 234960, Note_on_c, 11, 78, 68
13, 235100, Control_c, 11, 11, 109
13, 235139, Note_on_c, 11, 78, 0
13, 235200, Note_on_c, 11, 73, 68
13, 235320, Control_c, 11, 11, 112
13, 235379, Note_on_c, 11, 73, 0
13, 235440, Note_on_c, 11, 78, 68
13, 235540, Control_c, 11, 11, 114
13, 235619, Note_on_c, 11, 78, 0
13, 235760, Control_c, 11, 11, 117
13, 235920, Note_on_c, 11, 78, 68
13, 235980, Control_c, 11, 11, 119
13, 236099, Note_on_c, 11, 78, 0
13, 236160, Note_on_c, 11, 74, 68
13, 236200, Control_c, 11, 11, 122
13, 236339, Note_on_c, 11, 74, 0
13, 236400, Note_on_c, 11, 78, 68
13, 236420, Control_c, 11, 11, 124
13, 236579, Note_on_c, 11, 78, 0
13, 236640, Control_c, 11, 11, 127
13, 236880, Note_on_c, 11, 81, 76
13, 237059, Note_on_c, 11, 81, 0
13, 237120, Note_on_c, 11, 76, 68
13, 237299, Note_on_c, 11, 76, 0
13, 237360, Note_on_c, 11, 81, 68
13, 237539, Note_on_c, 11, 81, 0
13, 237600, Control_c, 11, 11, 127
13, 237680, Control_c, 11, 11, 124
13, 237760, Control_c, 11, 11, 122
13, 237840, Note_on_c, 11, 81, 68
13, 237840, Control_c, 11, 11, 119
13, 237920, Control_c, 11, 11, 117
13, 238000, Control_c, 11, 11, 114
13, 238019, Note_on_c, 11, 81, 0
13, 238080, Control_c, 11, 11, 112
13, 238080, Note_on_c, 11, 78, 68
13, 238160, Control_c, 11, 11, 109
13, 238240, Control_c, 11, 11, 106
13, 238259, Note_on_c, 11, 78, 0
13, 238320, Note_on_c, 11, 81, 68
13, 238320, Control_c, 11, 11, 104
13, 238400, Control_c, 11, 11, 101
13, 238480, Control_c, 11, 11, 99
13, 238499, Note_on_c, 11, 81, 0
13, 238560, Control_c, 11, 11, 96
13, 238800, Note_on_c, 11, 79, 68
13, 238979, Note_on_c, 11, 79, 0
13, 239040, Note_on_c, 11, 76, 68
13, 239219, Note_on_c, 11, 76, 0
13, 239280, Note_on_c, 11, 79, 68
13, 239459, Note_on_c, 11, 79, 0
13, 239760, Note_on_c, 11, 78, 68
13, 239939, Note_on_c, 11, 78, 0
13, 240000, Note_on_c, 11, 74, 68
13, 240179, Note_on_c, 11, 74, 0
13, 240240, Note_on_c, 11, 78, 68
13, 240419, Note_on_c, 11, 78, 0
13, 240720, Note_on_c, 11, 76, 68
13, 240899, Note_on_c, 11, 76, 0
13, 240960, Note_on_c, 11, 73, 68
13, 241139, Note_on_c, 11, 73, 0
13, 241200, Note_on_c, 11, 76, 68
13, 241379, Note_on_c, 11, 76, 0
13, 241440, Note_on_c, 11, 74, 68
13, 241619, Note_on_c, 11, 74, 0
13, 241680, Note_on_c, 11, 77, 68
13, 241859, Note_on_c, 11, 77, 0
13, 241920, Note_on_c, 11, 74, 68
13, 242099, Note_on_c, 11, 74, 0
13, 242160, Note_on_c, 11, 77, 68
13, 242339, Note_on_c, 11, 77, 0
13, 242640, Note_on_c, 11, 77, 68
13, 242819, Note_on_c, 11, 77, 0
13, 242880, Note_on_c, 11, 74, 68
13, 243059, Note_on_c, 11, 74, 0
13, 243120, Note_on_c, 11, 77, 68
13, 243299, Note_on_c, 11, 77, 0
13, 243600, Note_on_c, 11, 79, 68
13, 243779, Note_on_c, 11, 79, 0
13, 243840, Note_on_c, 11, 76, 68
13, 244019, Note_on_c, 11, 76, 0
13, 244080, Note_on_c, 11, 79, 68
13, 244259, Note_on_c, 11, 79, 0
13, 244320, Control_c, 11, 11, 96
13, 244560, Note_on_c, 11, 76, 84
13, 244679, Note_on_c, 11, 76, 0
13, 244680, Note_on_c, 11, 74, 68
13, 244799, Note_on_c, 11, 74, 0
13, 244800, Note_on_c, 11, 73, 68
13, 244919, Note_on_c, 11, 73, 0
13, 244920, Note_on_c, 11, 71, 68
13, 245039, Note_on_c, 11, 71, 0
13, 245040, Note_on_c, 11, 69, 68
13, 245159, Note_on_c, 11, 69, 0
13, 245160, Note_on_c, 11, 73, 68
13, 245249, Note_on_c, 11, 73, 0
13, 245280, Note_on_c, 11, 74, 68
13, 245459, Note_on_c, 11, 74, 0
13, 245520, Control_c, 11, 11, 96
13, 245520, Note_on_c, 11, 69, 68
13, 245699, Note_on_c, 11, 69, 0
13, 245740, Control_c, 11, 11, 99
13, 245760, Note_on_c, 11, 65, 68
13, 245939, Note_on_c, 11, 65, 0
13, 245960, Control_c, 11, 11, 101
13, 246000, Note_on_c, 11, 69, 68
13, 246179, Note_on_c, 11, 69, 0
13, 246180, Control_c, 11, 11, 104
13, 246400, Control_c, 11, 11, 106
13, 246480, Note_on_c, 11, 69, 68
13, 246620, Control_c, 11, 11, 109
13, 246659, Note_on_c, 11, 69, 0
13, 246720, Note_on_c, 11, 65, 68
13, 246840, Control_c, 11, 11, 112
13, 246899, Note_on_c, 11, 65, 0
13, 246960, Note_on_c, 11, 69, 68
13, 247060, Control_c, 11, 11, 114
13, 247139, Note_on_c, 11, 69, 0
13, 247280, Control_c, 11, 11, 117
13, 247440, Note_on_c, 11, 72, 68
13, 247500, Control_c, 11, 11, 119
13, 247619, Note_on_c, 11, 72, 0
13, 247680, Note_on_c, 11, 67, 68
13, 247720, Control_c, 11, 11, 122
13, 247859, Note_on_c, 11, 67, 0
13, 247920, Note_on_c, 11, 72, 68
13, 247940, Control_c, 11, 11, 124
13, 248099, Note_on_c, 11, 72, 0
13, 248160, Control_c, 11, 11, 127
13, 248400, Note_on_c, 11, 72, 68
13, 248579, Note_on_c, 11, 72, 0
13, 248640, Note_on_c, 11, 67, 68
13, 248819, Note_on_c, 11, 67, 0
13, 248880, Note_on_c, 11, 72, 68
13, 249059, Note_on_c, 11, 72, 0
13, 249120, Control_c, 11, 11, 127
13, 249200, Control_c, 11, 11, 124
13, 249280, Control_c, 11, 11, 122
13, 249360, Note_on_c, 11, 72, 68
13, 249360, Control_c, 11, 11, 119
13, 249440, Control_c, 11, 11, 117
13, 249520, Control_c, 11, 11, 114
13, 249539, Note_on_c, 11, 72, 0
13, 249600, Note_on_c, 11, 69, 68
13, 249600, Control_c, 11, 11, 112
13, 249680, Control_c, 11, 11, 109
13, 249760, Control_c, 11, 11, 106
13, 249779, Note_on_c, 11, 69, 0
13, 249840, Control_c, 11, 11, 104
13, 249840, Note_on_c, 11, 72, 68
13, 249920, Control_c, 11, 11, 101
13, 250000, Control_c, 11, 11, 99
13, 250019, Note_on_c, 11, 72, 0
13, 250080, Control_c, 11, 11, 96
13, 250320, Note_on_c, 11, 70, 68
13, 250499, Note_on_c, 11, 70, 0
13, 250560, Note_on_c, 11, 67, 68
13, 250739, Note_on_c, 11, 67, 0
13, 250800, Note_on_c, 11, 70, 68
13, 250979, Note_on_c, 11, 70, 0
13, 251280, Note_on_c, 11, 69, 68
13, 251459, Note_on_c, 11, 69, 0
13, 251520, Note_on_c, 11, 65, 68
13, 251699, Note_on_c, 11, 65, 0
13, 251760, Note_on_c, 11, 69, 68
13, 251939, Note_on_c, 11, 69, 0
13, 252240, Note_on_c, 11, 69, 68
13, 252419, Note_on_c, 11, 69, 0
13, 252480, Note_on_c, 11, 67, 68
13, 252659, Note_on_c, 11, 67, 0
13, 252720, Note_on_c, 11, 69, 68
13, 252899, Note_on_c, 11, 69, 0
13, 252960, Control_c, 11, 11, 80
13, 253200, Control_c, 11, 11, 80
13, 253200, Note_on_c, 11, 77, 76
13, 253379, Note_on_c, 11, 77, 0
13, 253440, Note_on_c, 11, 74, 76
13, 253500, Control_c, 11, 11, 84
13, 253619, Note_on_c, 11, 74, 0
13, 253680, Note_on_c, 11, 77, 76
13, 253800, Control_c, 11, 11, 88
13, 253859, Note_on_c, 11, 77, 0
13, 254100, Control_c, 11, 11, 92
13, 254160, Note_on_c, 11, 75, 76
13, 254339, Note_on_c, 11, 75, 0
13, 254400, Note_on_c, 11, 70, 76
13, 254400, Control_c, 11, 11, 96
13, 254579, Note_on_c, 11, 70, 0
13, 254640, Note_on_c, 11, 75, 76
13, 254700, Control_c, 11, 11, 100
13, 254819, Note_on_c, 11, 75, 0
13, 255000, Control_c, 11, 11, 104
13, 255120, Note_on_c, 11, 74, 76
13, 255299, Note_on_c, 11, 74, 0
13, 255300, Control_c, 11, 11, 107
13, 255360, Note_on_c, 11, 69, 76
13, 255539, Note_on_c, 11, 69, 0
13, 255600, Note_on_c, 11, 74, 76
13, 255600, Control_c, 11, 11, 111
13, 255779, Note_on_c, 11, 74, 0
13, 255900, Control_c, 11, 11, 115
13, 256080, Note_on_c, 11, 73, 76
13, 256200, Control_c, 11, 11, 119
13, 256259, Note_on_c, 11, 73, 0
13, 256320, Note_on_c, 11, 69, 76
13, 256499, Note_on_c, 11, 69, 0
13, 256500, Control_c, 11, 11, 123
13, 256560, Note_on_c, 11, 73, 76
13, 256739, Note_on_c, 11, 73, 0
13, 256800, Note_on_c, 11, 81, 76
13, 256800, Control_c, 11, 11, 127
13, 256889, Note_on_c, 11, 81, 0
13, 256920, Note_on_c, 11, 81, 76
13, 257009, Note_on_c, 11, 81, 0
13, 257040, Note_on_c, 11, 81, 76
13, 257129, Note_on_c, 11, 81, 0
13, 257160, Note_on_c, 11, 81, 76
13, 257249, Note_on_c, 11, 81, 0
13, 257280, Note_on_c, 11, 81, 76
13, 257369, Note_on_c, 11, 81, 0
13, 257400, Note_on_c, 11, 81, 76
13, 257489, Note_on_c, 11, 81, 0
13, 257520, Note_on_c, 11, 81, 76
13, 257609, Note_on_c, 11, 81, 0
13, 257640, Note_on_c, 11, 81, 76
13, 257729, Note_on_c, 11, 81, 0
13, 257760, Note_on_c, 11, 78, 76
13, 257849, Note_on_c, 11, 78, 0
13, 257880, Note_on_c, 11, 78, 76
13, 257969, Note_on_c, 11, 78, 0
13, 258000, Note_on_c, 11, 78, 76
13, 258089, Note_on_c, 11, 78, 0
13, 258120, Note_on_c, 11, 78, 76
13, 258209, Note_on_c, 11, 78, 0
13, 258240, Note_on_c, 11, 78, 76
13, 258329, Note_on_c, 11, 78, 0
13, 258360, Note_on_c, 11, 78, 76
13, 258449, Note_on_c, 11, 78, 0
13, 258480, Note_on_c, 11, 74, 76
13, 258569, Note_on_c, 11, 74, 0
13, 258600, Note_on_c, 11, 74, 76
13, 258689, Note_on_c, 11, 74, 0
13, 258720, Note_on_c, 11, 83, 76
13, 258809, Note_on_c, 11, 83, 0
13, 258840, Note_on_c, 11, 83, 76
13, 258929, Note_on_c, 11, 83, 0
13, 258960, Note_on_c, 11, 83, 76
13, 259049, Note_on_c, 11, 83, 0
13, 259080, Note_on_c, 11, 83, 76
13, 259169, Note_on_c, 11, 83, 0
13, 259200, Note_on_c, 11, 83, 76
13, 259289, Note_on_c, 11, 83, 0
13, 259320, Note_on_c, 11, 83, 76
13, 259409, Note_on_c, 11, 83, 0
13, 259440, Note_on_c, 11, 83, 76
13, 259529, Note_on_c, 11, 83, 0
13, 259560, Note_on_c, 11, 83, 76
13, 259649, Note_on_c, 11, 83, 0
13, 259680, Note_on_c, 11, 79, 76
13, 259769, Note_on_c, 11, 79, 0
13, 259800, Note_on_c, 11, 79, 76
13, 259889, Note_on_c, 11, 79, 0
13, 259920, Note_on_c, 11, 79, 76
13, 260009, Note_on_c, 11, 79, 0
13, 260040, Note_on_c, 11, 79, 76
13, 260129, Note_on_c, 11, 79, 0
13, 260160, Note_on_c, 11, 79, 76
13, 260249, Note_on_c, 11, 79, 0
13, 260280, Note_on_c, 11, 79, 76
13, 260369, Note_on_c, 11, 79, 0
13, 260400, Note_on_c, 11, 76, 76
13, 260489, Note_on_c, 11, 76, 0
13, 260520, Note_on_c, 11, 76, 76
13, 260609, Note_on_c, 11, 76, 0
13, 260640, Note_on_c, 11, 81, 84
13, 260729, Note_on_c, 11, 81, 0
13, 260760, Note_on_c, 11, 81, 76
13, 260849, Note_on_c, 11, 81, 0
13, 260880, Note_on_c, 11, 81, 76
13, 260969, Note_on_c, 11, 81, 0
13, 261000, Note_on_c, 11, 81, 76
13, 261089, Note_on_c, 11, 81, 0
13, 261120, Note_on_c, 11, 78, 76
13, 261209, Note_on_c, 11, 78, 0
13, 261240, Note_on_c, 11, 78, 76
13, 261329, Note_on_c, 11, 78, 0
13, 261360, Note_on_c, 11, 74, 76
13, 261449, Note_on_c, 11, 74, 0
13, 261480, Note_on_c, 11, 74, 76
13, 261569, Note_on_c, 11, 74, 0
13, 261600, Note_on_c, 11, 81, 84
13, 261689, Note_on_c, 11, 81, 0
13, 261720, Note_on_c, 11, 81, 76
13, 261809, Note_on_c, 11, 81, 0
13, 261840, Note_on_c, 11, 81, 76
13, 261929, Note_on_c, 11, 81, 0
13, 261960, Note_on_c, 11, 81, 76
13, 262049, Note_on_c, 11, 81, 0
13, 262080, Note_on_c, 11, 76, 76
13, 262169, Note_on_c, 11, 76, 0
13, 262200, Note_on_c, 11, 76, 76
13, 262289, Note_on_c, 11, 76, 0
13, 262320, Note_on_c, 11, 73, 76
13, 262409, Note_on_c, 11, 73, 0
13, 262440, Note_on_c, 11, 73, 76
13, 262529, Note_on_c, 11, 73, 0
13, 262560, Note_on_c, 11, 74, 76
13, 262649, Note_on_c, 11, 74, 0
13, 262680, Note_on_c, 11, 86, 76
13, 262680, Note_on_c, 11, 74, 76
13, 262769, Note_on_c, 11, 86, 0
13, 262769, Note_on_c, 11, 74, 0
13, 262800, Note_on_c, 11, 86, 76
13, 262800, Note_on_c, 11, 74, 76
13, 262889, Note_on_c, 11, 86, 0
13, 262889, Note_on_c, 11, 74, 0
13, 262920, Note_on_c, 11, 74, 76
13, 262920, Note_on_c, 11, 86, 76
13, 263009, Note_on_c, 11, 74, 0
13, 263009, Note_on_c, 11, 86, 0
13, 263040, Note_on_c, 11, 74, 76
13, 263040, Note_on_c, 11, 86, 76
13, 263129, Note_on_c, 11, 74, 0
13, 263129, Note_on_c, 11, 86, 0
13, 263160, Note_on_c, 11, 86, 76
13, 263160, Note_on_c, 11, 74, 76
13, 263249, Note_on_c, 11, 86, 0
13, 263249, Note_on_c, 11, 74, 0
13, 263280, Note_on_c, 11, 74, 76
13, 263280, Note_on_c, 11, 86, 76
13, 263369, Note_on_c, 11, 74, 0
13, 263369, Note_on_c, 11, 86, 0
13, 263400, Note_on_c, 11, 86, 76
13, 263400, Note_on_c, 11, 74, 76
13, 263489, Note_on_c, 11, 86, 0
13, 263489, Note_on_c, 11, 74, 0
13, 263520, Note_on_c, 11, 74, 84
13, 263520, Note_on_c, 11, 86, 84
13, 263609, Note_on_c, 11, 74, 0
13, 263609, Note_on_c, 11, 86, 0
13, 263640, Note_on_c, 11, 74, 76
13, 263640, Note_on_c, 11, 86, 76
13, 263729, Note_on_c, 11, 74, 0
13, 263729, Note_on_c, 11, 86, 0
13, 263760, Note_on_c, 11, 74, 76
13, 263760, Note_on_c, 11, 86, 76
13, 263849, Note_on_c, 11, 74, 0
13, 263849, Note_on_c, 11, 86, 0
13, 263880, Note_on_c, 11, 86, 76
13, 263880, Note_on_c, 11, 74, 76
13, 263969, Note_on_c, 11, 86, 0
13, 263969, Note_on_c, 11, 74, 0
13, 264000, Note_on_c, 11, 74, 76
13, 264000, Note_on_c, 11, 86, 76
13, 264089, Note_on_c, 11, 74, 0
13, 264089, Note_on_c, 11, 86, 0
13, 264120, Note_on_c, 11, 86, 76
13, 264120, Note_on_c, 11, 74, 76
13, 264209, Note_on_c, 11, 86, 0
13, 264209, Note_on_c, 11, 74, 0
13, 264240, Note_on_c, 11, 86, 76
13, 264240, Note_on_c, 11, 74, 76
13, 264329, Note_on_c, 11, 86, 0
13, 264329, Note_on_c, 11, 74, 0
13, 264360, Note_on_c, 11, 86, 76
13, 264360, Note_on_c, 11, 74, 76
13, 264449, Note_on_c, 11, 86, 0
13, 264449, Note_on_c, 11, 74, 0
13, 264480, Note_on_c, 11, 86, 76
13, 264480, Note_on_c, 11, 74, 76
13, 264569, Note_on_c, 11, 86, 0
13, 264569, Note_on_c, 11, 74, 0
13, 264600, Note_on_c, 11, 86, 76
13, 264600, Note_on_c, 11, 74, 76
13, 264689, Note_on_c, 11, 86, 0
13, 264689, Note_on_c, 11, 74, 0
13, 264720, Note_on_c, 11, 74, 76
13, 264720, Note_on_c, 11, 86, 76
13, 264809, Note_on_c, 11, 74, 0
13, 264809, Note_on_c, 11, 86, 0
13, 264840, Note_on_c, 11, 86, 76
13, 264840, Note_on_c, 11, 74, 76
13, 264929, Note_on_c, 11, 86, 0
13, 264929, Note_on_c, 11, 74, 0
13, 264960, Note_on_c, 11, 74, 76
13, 264960, Note_on_c, 11, 86, 76
13, 265049, Note_on_c, 11, 74, 0
13, 265049, Note_on_c, 11, 86, 0
13, 265080, Note_on_c, 11, 86, 76
13, 265080, Note_on_c, 11, 74, 76
13, 265169, Note_on_c, 11, 86, 0
13, 265169, Note_on_c, 11, 74, 0
13, 265200, Note_on_c, 11, 86, 76
13, 265200, Note_on_c, 11, 74, 76
13, 265289, Note_on_c, 11, 86, 0
13, 265289, Note_on_c, 11, 74, 0
13, 265320, Note_on_c, 11, 74, 76
13, 265320, Note_on_c, 11, 86, 76
13, 265409, Note_on_c, 11, 74, 0
13, 265409, Note_on_c, 11, 86, 0
13, 265440, Note_on_c, 11, 74, 76
13, 265440, Note_on_c, 11, 86, 76
13, 265529, Note_on_c, 11, 74, 0
13, 265529, Note_on_c, 11, 86, 0
13, 265560, Note_on_c, 11, 74, 76
13, 265560, Note_on_c, 11, 86, 76
13, 265649, Note_on_c, 11, 74, 0
13, 265649, Note_on_c, 11, 86, 0
13, 265680, Note_on_c, 11, 86, 76
13, 265680, Note_on_c, 11, 74, 76
13, 265769, Note_on_c, 11, 86, 0
13, 265769, Note_on_c, 11, 74, 0
13, 265800, Note_on_c, 11, 74, 76
13, 265800, Note_on_c, 11, 86, 76
13, 265889, Note_on_c, 11, 74, 0
13, 265889, Note_on_c, 11, 86, 0
13, 265920, Note_on_c, 11, 86, 76
13, 265920, Note_on_c, 11, 74, 76
13, 266009, Note_on_c, 11, 86, 0
13, 266009, Note_on_c, 11, 74, 0
13, 266040, Note_on_c, 11, 86, 76
13, 266040, Note_on_c, 11, 74, 76
13, 266129, Note_on_c, 11, 86, 0
13, 266129, Note_on_c, 11, 74, 0
13, 266160, Note_on_c, 11, 74, 76
13, 266160, Note_on_c, 11, 86, 76
13, 266249, Note_on_c, 11, 74, 0
13, 266249, Note_on_c, 11, 86, 0
13, 266280, Note_on_c, 11, 74, 76
13, 266280, Note_on_c, 11, 86, 76
13, 266369, Note_on_c, 11, 74, 0
13, 266369, Note_on_c, 11, 86, 0
13, 266400, Note_on_c, 11, 86, 84
13, 266400, Note_on_c, 11, 74, 84
13, 266489, Note_on_c, 11, 86, 0
13, 266489, Note_on_c, 11, 74, 0
13, 266520, Note_on_c, 11, 74, 84
13, 266520, Note_on_c, 11, 86, 84
13, 266609, Note_on_c, 11, 74, 0
13, 266609, Note_on_c, 11, 86, 0
13, 266640, Note_on_c, 11, 86, 84
13, 266640, Note_on_c, 11, 74, 84
13, 266729, Note_on_c, 11, 86, 0
13, 266729, Note_on_c, 11, 74, 0
13, 266760, Note_on_c, 11, 74, 84
13, 266760, Note_on_c, 11, 86, 84
13, 266849, Note_on_c, 11, 74, 0
13, 266849, Note_on_c, 11, 86, 0
13, 266880, Note_on_c, 11, 86, 84
13, 266880, Note_on_c, 11, 74, 84
13, 266969, Note_on_c, 11, 86, 0
13, 266969, Note_on_c, 11, 74, 0
13, 267000, Note_on_c, 11, 74, 84
13, 267000, Note_on_c, 11, 86, 84
13, 267089, Note_on_c, 11, 74, 0
13, 267089, Note_on_c, 11, 86, 0
13, 267120, Note_on_c, 11, 74, 84
13, 267120, Note_on_c, 11, 86, 84
13, 267209, Note_on_c, 11, 74, 0
13, 267209, Note_on_c, 11, 86, 0
13, 267240, Note_on_c, 11, 74, 84
13, 267240, Note_on_c, 11, 86, 84
13, 267329, Note_on_c, 11, 74, 0
13, 267329, Note_on_c, 11, 86, 0
13, 267360, Note_on_c, 11, 86, 84
13, 267360, Note_on_c, 11, 74, 84
13, 267449, Note_on_c, 11, 86, 0
13, 267449, Note_on_c, 11, 74, 0
13, 267480, Note_on_c, 11, 86, 84
13, 267480, Note_on_c, 11, 74, 84
13, 267569, Note_on_c, 11, 86, 0
13, 267569, Note_on_c, 11, 74, 0
13, 267600, Note_on_c, 11, 86, 84
13, 267600, Note_on_c, 11, 74, 84
13, 267689, Note_on_c, 11, 86, 0
13, 267689, Note_on_c, 11, 74, 0
13, 267720, Note_on_c, 11, 74, 84
13, 267720, Note_on_c, 11, 86, 84
13, 267809, Note_on_c, 11, 74, 0
13, 267809, Note_on_c, 11, 86, 0
13, 267840, Note_on_c, 11, 86, 84
13, 267840, Note_on_c, 11, 74, 84
13, 267929, Note_on_c, 11, 86, 0
13, 267929, Note_on_c, 11, 74, 0
13, 267960, Note_on_c, 11, 86, 84
13, 267960, Note_on_c, 11, 74, 84
13, 268049, Note_on_c, 11, 86, 0
13, 268049, Note_on_c, 11, 74, 0
13, 268080, Note_on_c, 11, 74, 84
13, 268080, Note_on_c, 11, 86, 84
13, 268169, Note_on_c, 11, 74, 0
13, 268169, Note_on_c, 11, 86, 0
13, 268200, Note_on_c, 11, 74, 84
13, 268200, Note_on_c, 11, 86, 84
13, 268289, Note_on_c, 11, 74, 0
13, 268289, Note_on_c, 11, 86, 0
13, 268320, Note_on_c, 11, 74, 84
13, 268320, Note_on_c, 11, 86, 84
13, 268409, Note_on_c, 11, 74, 0
13, 268409, Note_on_c, 11, 86, 0
13, 268440, Note_on_c, 11, 86, 84
13, 268440, Note_on_c, 11, 74, 84
13, 268529, Note_on_c, 11, 86, 0
13, 268529, Note_on_c, 11, 74, 0
13, 268560, Note_on_c, 11, 86, 84
13, 268560, Note_on_c, 11, 74, 84
13, 268649, Note_on_c, 11, 86, 0
13, 268649, Note_on_c, 11, 74, 0
13, 268680, Note_on_c, 11, 86, 84
13, 268680, Note_on_c, 11, 74, 84
13, 268769, Note_on_c, 11, 86, 0
13, 268769, Note_on_c, 11, 74, 0
13, 268800, Note_on_c, 11, 86, 84
13, 268800, Note_on_c, 11, 74, 84
13, 268889, Note_on_c, 11, 86, 0
13, 268889, Note_on_c, 11, 74, 0
13, 268920, Note_on_c, 11, 74, 84
13, 268920, Note_on_c, 11, 86, 84
13, 269009, Note_on_c, 11, 74, 0
13, 269009, Note_on_c, 11, 86, 0
13, 269040, Note_on_c, 11, 86, 84
13, 269040, Note_on_c, 11, 74, 84
13, 269129, Note_on_c, 11, 86, 0
13, 269129, Note_on_c, 11, 74, 0
13, 269160, Note_on_c, 11, 86, 84
13, 269160, Note_on_c, 11, 74, 84
13, 269249, Note_on_c, 11, 86, 0
13, 269249, Note_on_c, 11, 74, 0
13, 269280, Note_on_c, 11, 74, 84
13, 269280, Note_on_c, 11, 86, 84
13, 269369, Note_on_c, 11, 74, 0
13, 269369, Note_on_c, 11, 86, 0
13, 269400, Note_on_c, 11, 74, 84
13, 269400, Note_on_c, 11, 86, 84
13, 269489, Note_on_c, 11, 74, 0
13, 269489, Note_on_c, 11, 86, 0
13, 269520, Note_on_c, 11, 86, 84
13, 269520, Note_on_c, 11, 74, 84
13, 269609, Note_on_c, 11, 86, 0
13, 269609, Note_on_c, 11, 74, 0
13, 269640, Note_on_c, 11, 86, 84
13, 269640, Note_on_c, 11, 74, 84
13, 269729, Note_on_c, 11, 86, 0
13, 269729, Note_on_c, 11, 74, 0
13, 269760, Note_on_c, 11, 86, 84
13, 269760, Note_on_c, 11, 74, 84
13, 269849, Note_on_c, 11, 86, 0
13, 269849, Note_on_c, 11, 74, 0
13, 269880, Note_on_c, 11, 74, 84
13, 269880, Note_on_c, 11, 86, 84
13, 269969, Note_on_c, 11, 74, 0
13, 269969, Note_on_c, 11, 86, 0
13, 270000, Note_on_c, 11, 74, 84
13, 270000, Note_on_c, 11, 86, 84
13, 270089, Note_on_c, 11, 74, 0
13, 270089, Note_on_c, 11, 86, 0
13, 270120, Note_on_c, 11, 86, 84
13, 270120, Note_on_c, 11, 74, 84
13, 270209, Note_on_c, 11, 86, 0
13, 270209, Note_on_c, 11, 74, 0
13, 270240, Note_on_c, 11, 86, 84
13, 270240, Note_on_c, 11, 74, 84
13, 270479, Note_on_c, 11, 86, 0
13, 270479, Note_on_c, 11, 74, 0
13, 270600, Note_on_c, 11, 83, 52
13, 270719, Note_on_c, 11, 83, 0
13, 270720, Note_on_c, 11, 84, 52
13, 270959, Note_on_c, 11, 84, 0
13, 271080, Note_on_c, 11, 80, 52
13, 271199, Note_on_c, 11, 80, 0
13, 271200, Note_on_c, 11, 81, 52
13, 271439, Note_on_c, 11, 81, 0
13, 271560, Note_on_c, 11, 77, 52
13, 271679, Note_on_c, 11, 77, 0
13, 271680, Note_on_c, 11, 78, 52
13, 271919, Note_on_c, 11, 78, 0
13, 272040, Note_on_c, 11, 73, 52
13, 272159, Note_on_c, 11, 73, 0
13, 272160, Note_on_c, 11, 74, 52
13, 272399, Note_on_c, 11, 74, 0
13, 272520, Note_on_c, 11, 71, 52
13, 272639, Note_on_c, 11, 71, 0
13, 272640, Control_c, 11, 11, 127
13, 272640, Note_on_c, 11, 72, 52
13, 272760, Control_c, 11, 11, 126
13, 272879, Note_on_c, 11, 72, 0
13, 272880, Control_c, 11, 11, 125
13, 273000, Control_c, 11, 11, 123
13, 273000, Note_on_c, 11, 68, 52
13, 273119, Note_on_c, 11, 68, 0
13, 273120, Note_on_c, 11, 69, 52
13, 273120, Control_c, 11, 11, 122
13, 273240, Control_c, 11, 11, 121
13, 273359, Note_on_c, 11, 69, 0
13, 273360, Control_c, 11, 11, 120
13, 273480, Control_c, 11, 11, 118
13, 273480, Note_on_c, 11, 65, 52
13, 273599, Note_on_c, 11, 65, 0
13, 273600, Control_c, 11, 11, 117
13, 273600, Note_on_c, 11, 66, 52
13, 273720, Control_c, 11, 11, 116
13, 273839, Note_on_c, 11, 66, 0
13, 273840, Control_c, 11, 11, 115
13, 273960, Control_c, 11, 11, 113
13, 273960, Note_on_c, 11, 61, 52
13, 274079, Note_on_c, 11, 61, 0
13, 274080, Control_c, 11, 11, 112
13, 274080, Note_on_c, 11, 62, 52
13, 274319, Note_on_c, 11, 62, 0
13, 274440, Note_on_c, 11, 73, 52
13, 274559, Note_on_c, 11, 73, 0
13, 274560, Note_on_c, 11, 74, 52
13, 274799, Note_on_c, 11, 74, 0
13, 274920, Note_on_c, 11, 77, 52
13, 275039, Note_on_c, 11, 77, 0
13, 275040, Note_on_c, 11, 78, 52
13, 275279, Note_on_c, 11, 78, 0
13, 275280, Control_c, 11, 11, 127
13, 275400, Note_on_c, 11, 80, 44
13, 275519, Note_on_c, 11, 80, 0
13, 275520, Note_on_c, 11, 81, 44
13, 275759, Note_on_c, 11, 81, 0
13, 275880, Note_on_c, 11, 83, 44
13, 275999, Note_on_c, 11, 83, 0
13, 276000, Note_on_c, 11, 84, 44
13, 276239, Note_on_c, 11, 84, 0
13, 276360, Note_on_c, 11, 83, 44
13, 276479, Note_on_c, 11, 83, 0
13, 276480, Note_on_c, 11, 84, 44
13, 276719, Note_on_c, 11, 84, 0
13, 276840, Note_on_c, 11, 83, 44
13, 276959, Note_on_c, 11, 83, 0
13, 276960, Note_on_c, 11, 84, 44
13, 277199, Note_on_c, 11, 84, 0
13, 277320, Note_on_c, 11, 83, 44
13, 277439, Note_on_c, 11, 83, 0
13, 277440, Note_on_c, 11, 84, 44
13, 277679, Note_on_c, 11, 84, 0
13, 277800, Note_on_c, 11, 83, 44
13, 277919, Note_on_c, 11, 83, 0
13, 277920, Note_on_c, 11, 84, 44
13, 278159, Note_on_c, 11, 84, 0
13, 278280, Note_on_c, 11, 66, 44
13, 278369, Note_on_c, 11, 66, 0
13, 278400, Note_on_c, 11, 66, 44
13, 278459, Note_on_c, 11, 66, 0
13, 278460, Note_on_c, 11, 67, 44
13, 278519, Note_on_c, 11, 67, 0
13, 278520, Note_on_c, 11, 66, 44
13, 278579, Note_on_c, 11, 66, 0
13, 278580, Note_on_c, 11, 67, 44
13, 278639, Note_on_c, 11, 67, 0
13, 278640, Note_on_c, 11, 66, 44
13, 278699, Note_on_c, 11, 66, 0
13, 278700, Note_on_c, 11, 67, 44
13, 278759, Note_on_c, 11, 67, 0
13, 278760, Note_on_c, 11, 64, 44
13, 278819, Note_on_c, 11, 64, 0
13, 278820, Note_on_c, 11, 66, 44
13, 278864, Note_on_c, 11, 66, 0
13, 278880, Note_on_c, 11, 69, 44
13, 279059, Note_on_c, 11, 69, 0
13, 279120, Note_on_c, 11, 62, 44
13, 279299, Note_on_c, 11, 62, 0
13, 279720, Note_on_c, 11, 85, 44
13, 279839, Note_on_c, 11, 85, 0
13, 279840, Note_on_c, 11, 86, 44
13, 280079, Note_on_c, 11, 86, 0
13, 280200, Note_on_c, 11, 67, 44
13, 280289, Note_on_c, 11, 67, 0
13, 280320, Note_on_c, 11, 67, 44
13, 280379, Note_on_c, 11, 67, 0
13, 280380, Note_on_c, 11, 69, 44
13, 280439, Note_on_c, 11, 69, 0
13, 280440, Note_on_c, 11, 67, 44
13, 280499, Note_on_c, 11, 67, 0
13, 280500, Note_on_c, 11, 69, 44
13, 280559, Note_on_c, 11, 69, 0
13, 280560, Note_on_c, 11, 67, 44
13, 280619, Note_on_c, 11, 67, 0
13, 280620, Note_on_c, 11, 69, 44
13, 280679, Note_on_c, 11, 69, 0
13, 280680, Note_on_c, 11, 66, 44
13, 280739, Note_on_c, 11, 66, 0
13, 280740, Note_on_c, 11, 67, 44
13, 280784, Note_on_c, 11, 67, 0
13, 280800, Note_on_c, 11, 71, 44
13, 280979, Note_on_c, 11, 71, 0
13, 281040, Note_on_c, 11, 62, 44
13, 281219, Note_on_c, 11, 62, 0
13, 281640, Note_on_c, 11, 78, 76
13, 281759, Note_on_c, 11, 78, 0
13, 281760, Note_on_c, 11, 79, 76
13, 281939, Note_on_c, 11, 79, 0
13, 282120, Note_on_c, 11, 61, 76
13, 282209, Note_on_c, 11, 61, 0
13, 282240, Note_on_c, 11, 61, 84
13, 282299, Note_on_c, 11, 61, 0
13, 282300, Note_on_c, 11, 62, 76
13, 282359, Note_on_c, 11, 62, 0
13, 282360, Note_on_c, 11, 61, 76
13, 282419, Note_on_c, 11, 61, 0
13, 282420, Note_on_c, 11, 62, 76
13, 282479, Note_on_c, 11, 62, 0
13, 282480, Note_on_c, 11, 61, 76
13, 282539, Note_on_c, 11, 61, 0
13, 282540, Note_on_c, 11, 62, 76
13, 282599, Note_on_c, 11, 62, 0
13, 282600, Note_on_c, 11, 59, 76
13, 282659, Note_on_c, 11, 59, 0
13, 282660, Note_on_c, 11, 61, 76
13, 282704, Note_on_c, 11, 61, 0
13, 282720, Note_on_c, 11, 64, 76
13, 282899, Note_on_c, 11, 64, 0
13, 282960, Note_on_c, 11, 57, 76
13, 283139, Note_on_c, 11, 57, 0
13, 283440, Note_on_c, 11, 69, 52
13, 283529, Note_on_c, 11, 69, 0
13, 283560, Note_on_c, 11, 69, 52
13, 283649, Note_on_c, 11, 69, 0
13, 283680, Note_on_c, 11, 74, 52
13, 283799, Note_on_c, 11, 74, 0
13, 283800, Note_on_c, 11, 69, 52
13, 283889, Note_on_c, 11, 69, 0
13, 283920, Note_on_c, 11, 78, 52
13, 284009, Note_on_c, 11, 78, 0
13, 284040, Note_on_c, 11, 78, 52
13, 284129, Note_on_c, 11, 78, 0
13, 284160, Note_on_c, 11, 76, 52
13, 284279, Note_on_c, 11, 76, 0
13, 284280, Note_on_c, 11, 69, 52
13, 284369, Note_on_c, 11, 69, 0
13, 284400, Note_on_c, 11, 79, 52
13, 284489, Note_on_c, 11, 79, 0
13, 284520, Note_on_c, 11, 79, 52
13, 284609, Note_on_c, 11, 79, 0
13, 284640, Note_on_c, 11, 78, 52
13, 284759, Note_on_c, 11, 78, 0
13, 284760, Note_on_c, 11, 69, 52
13, 284849, Note_on_c, 11, 69, 0
13, 284880, Note_on_c, 11, 81, 52
13, 284969, Note_on_c, 11, 81, 0
13, 285000, Note_on_c, 11, 81, 52
13, 285089, Note_on_c, 11, 81, 0
13, 285120, Note_on_c, 11, 81, 52
13, 285239, Note_on_c, 11, 81, 0
13, 285240, Note_on_c, 11, 79, 52
13, 285329, Note_on_c, 11, 79, 0
13, 285360, Note_on_c, 11, 78, 52
13, 285449, Note_on_c, 11, 78, 0
13, 285480, Note_on_c, 11, 76, 52
13, 285569, Note_on_c, 11, 76, 0
13, 285600, Note_on_c, 11, 76, 52
13, 285719, Note_on_c, 11, 76, 0
13, 285720, Note_on_c, 11, 74, 52
13, 285809, Note_on_c, 11, 74, 0
13, 285840, Note_on_c, 11, 74, 52
13, 285929, Note_on_c, 11, 74, 0
13, 285960, Note_on_c, 11, 74, 52
13, 286049, Note_on_c, 11, 74, 0
13, 286080, Note_on_c, 11, 74, 52
13, 286199, Note_on_c, 11, 74, 0
13, 286200, Note_on_c, 11, 73, 52
13, 286289, Note_on_c, 11, 73, 0
13, 286320, Note_on_c, 11, 71, 52
13, 286409, Note_on_c, 11, 71, 0
13, 286440, Note_on_c, 11, 73, 52
13, 286529, Note_on_c, 11, 73, 0
13, 286560, Note_on_c, 11, 74, 76
13, 286739, Note_on_c, 11, 74, 0
13, 286800, Note_on_c, 11, 69, 76
13, 286800, Note_on_c, 11, 76, 76
13, 286979, Note_on_c, 11, 69, 0
13, 286979, Note_on_c, 11, 76, 0
13, 287400, Note_on_c, 11, 78, 76
13, 287519, Note_on_c, 11, 78, 0
13, 287520, Note_on_c, 11, 79, 76
13, 287699, Note_on_c, 11, 79, 0
13, 287880, Note_on_c, 11, 61, 76
13, 287969, Note_on_c, 11, 61, 0
13, 288000, Note_on_c, 11, 61, 84
13, 288059, Note_on_c, 11, 61, 0
13, 288060, Note_on_c, 11, 62, 76
13, 288119, Note_on_c, 11, 62, 0
13, 288120, Note_on_c, 11, 61, 76
13, 288179, Note_on_c, 11, 61, 0
13, 288180, Note_on_c, 11, 62, 76
13, 288239, Note_on_c, 11, 62, 0
13, 288240, Note_on_c, 11, 61, 76
13, 288299, Note_on_c, 11, 61, 0
13, 288300, Note_on_c, 11, 62, 76
13, 288359, Note_on_c, 11, 62, 0
13, 288360, Note_on_c, 11, 59, 76
13, 288419, Note_on_c, 11, 59, 0
13, 288420, Note_on_c, 11, 61, 76
13, 288464, Note_on_c, 11, 61, 0
13, 288480, Note_on_c, 11, 64, 76
13, 288659, Note_on_c, 11, 64, 0
13, 288720, Note_on_c, 11, 57, 76
13, 288899, Note_on_c, 11, 57, 0
13, 289320, Note_on_c, 11, 78, 76
13, 289439, Note_on_c, 11, 78, 0
13, 289440, Note_on_c, 11, 79, 76
13, 289619, Note_on_c, 11, 79, 0
13, 289800, Note_on_c, 11, 62, 76
13, 289889, Note_on_c, 11, 62, 0
13, 289920, Note_on_c, 11, 62, 76
13, 289979, Note_on_c, 11, 62, 0
13, 289980, Note_on_c, 11, 64, 76
13, 290039, Note_on_c, 11, 64, 0
13, 290040, Note_on_c, 11, 62, 76
13, 290099, Note_on_c, 11, 62, 0
13, 290100, Note_on_c, 11, 64, 76
13, 290159, Note_on_c, 11, 64, 0
13, 290160, Note_on_c, 11, 62, 76
13, 290219, Note_on_c, 11, 62, 0
13, 290220, Note_on_c, 11, 64, 76
13, 290279, Note_on_c, 11, 64, 0
13, 290280, Note_on_c, 11, 61, 76
13, 290339, Note_on_c, 11, 61, 0
13, 290340, Note_on_c, 11, 62, 76
13, 290384, Note_on_c, 11, 62, 0
13, 290400, Note_on_c, 11, 67, 76
13, 290579, Note_on_c, 11, 67, 0
13, 290640, Note_on_c, 11, 58, 76
13, 290819, Note_on_c, 11, 58, 0
13, 291240, Note_on_c, 11, 78, 76
13, 291359, Note_on_c, 11, 78, 0
13, 291360, Note_on_c, 11, 79, 84
13, 291539, Note_on_c, 11, 79, 0
13, 291600, Note_on_c, 11, 62, 76
13, 291779, Note_on_c, 11, 62, 0
13, 291840, Note_on_c, 11, 67, 76
13, 292019, Note_on_c, 11, 67, 0
13, 292080, Note_on_c, 11, 59, 76
13, 292259, Note_on_c, 11, 59, 0
13, 292560, Note_on_c, 11, 64, 84
13, 292739, Note_on_c, 11, 64, 0
13, 292800, Note_on_c, 11, 67, 76
13, 292979, Note_on_c, 11, 67, 0
13, 293040, Note_on_c, 11, 60, 76
13, 293219, Note_on_c, 11, 60, 0
13, 293520, Note_on_c, 11, 67, 84
13, 293699, Note_on_c, 11, 67, 0
13, 293760, Note_on_c, 11, 70, 76
13, 293939, Note_on_c, 11, 70, 0
13, 294000, Note_on_c, 11, 61, 76
13, 294179, Note_on_c, 11, 61, 0
13, 294240, Note_on_c, 11, 71, 76
13, 294419, Note_on_c, 11, 71, 0
13, 294480, Note_on_c, 11, 62, 76
13, 294659, Note_on_c, 11, 62, 0
13, 294720, Note_on_c, 11, 72, 76
13, 294899, Note_on_c, 11, 72, 0
13, 294960, Note_on_c, 11, 63, 76
13, 295139, Note_on_c, 11, 63, 0
13, 295200, Note_on_c, 11, 73, 76
13, 295379, Note_on_c, 11, 73, 0
13, 295440, Note_on_c, 11, 64, 76
13, 295619, Note_on_c, 11, 64, 0
13, 295680, Note_on_c, 11, 74, 76
13, 295859, Note_on_c, 11, 74, 0
13, 295920, Note_on_c, 11, 65, 76
13, 296099, Note_on_c, 11, 65, 0
13, 296160, Note_on_c, 11, 74, 76
13, 296339, Note_on_c, 11, 74, 0
13, 296400, Note_on_c, 11, 65, 76
13, 296579, Note_on_c, 11, 65, 0
13, 296640, Note_on_c, 11, 74, 76
13, 296819, Note_on_c, 11, 74, 0
13, 296880, Note_on_c, 11, 66, 76
13, 297059, Note_on_c, 11, 66, 0
13, 297120, Note_on_c, 11, 74, 76
13, 297299, Note_on_c, 11, 74, 0
13, 297360, Note_on_c, 11, 67, 76
13, 297539, Note_on_c, 11, 67, 0
13, 297600, Note_on_c, 11, 74, 76
13, 297779, Note_on_c, 11, 74, 0
13, 297840, Note_on_c, 11, 69, 76
13, 298019, Note_on_c, 11, 69, 0
13, 298080, Note_on_c, 11, 74, 76
13, 298259, Note_on_c, 11, 74, 0
13, 298320, Note_on_c, 11, 70, 76
13, 298499, Note_on_c, 11, 70, 0
13, 298560, Note_on_c, 11, 74, 76
13, 298739, Note_on_c, 11, 74, 0
13, 298800, Note_on_c, 11, 68, 76
13, 298979, Note_on_c, 11, 68, 0
13, 299040, Note_on_c, 11, 69, 76
13, 299279, Note_on_c, 11, 69, 0
13, 300960, Note_on_c, 11, 81, 76
13, 300960, Note_on_c, 11, 69, 76
13, 301199, Note_on_c, 11, 81, 0
13, 301199, Note_on_c, 11, 69, 0
13, 302880, Note_on_c, 11, 69, 84
13, 302969, Note_on_c, 11, 69, 0
13, 303000, Note_on_c, 11, 81, 76
13, 303089, Note_on_c, 11, 81, 0
13, 303120, Note_on_c, 11, 81, 76
13, 303209, Note_on_c, 11, 81, 0
13, 303240, Note_on_c, 11, 81, 76
13, 303329, Note_on_c, 11, 81, 0
13, 303360, Note_on_c, 11, 81, 76
13, 303449, Note_on_c, 11, 81, 0
13, 303480, Note_on_c, 11, 81, 76
13, 303569, Note_on_c, 11, 81, 0
13, 303600, Note_on_c, 11, 81, 76
13, 303689, Note_on_c, 11, 81, 0
13, 303720, Note_on_c, 11, 81, 76
13, 303809, Note_on_c, 11, 81, 0
13, 303840, Note_on_c, 11, 69, 84
13, 303929, Note_on_c, 11, 69, 0
13, 303960, Note_on_c, 11, 80, 76
13, 304049, Note_on_c, 11, 80, 0
13, 304080, Note_on_c, 11, 80, 76
13, 304169, Note_on_c, 11, 80, 0
13, 304200, Note_on_c, 11, 80, 76
13, 304289, Note_on_c, 11, 80, 0
13, 304320, Note_on_c, 11, 80, 76
13, 304409, Note_on_c, 11, 80, 0
13, 304440, Note_on_c, 11, 80, 76
13, 304529, Note_on_c, 11, 80, 0
13, 304560, Note_on_c, 11, 80, 76
13, 304649, Note_on_c, 11, 80, 0
13, 304680, Note_on_c, 11, 80, 76
13, 304769, Note_on_c, 11, 80, 0
13, 304800, Note_on_c, 11, 69, 84
13, 304889, Note_on_c, 11, 69, 0
13, 304920, Note_on_c, 11, 81, 76
13, 305009, Note_on_c, 11, 81, 0
13, 305040, Note_on_c, 11, 81, 76
13, 305129, Note_on_c, 11, 81, 0
13, 305160, Note_on_c, 11, 81, 76
13, 305249, Note_on_c, 11, 81, 0
13, 305280, Note_on_c, 11, 81, 76
13, 305369, Note_on_c, 11, 81, 0
13, 305400, Note_on_c, 11, 81, 76
13, 305489, Note_on_c, 11, 81, 0
13, 305520, Note_on_c, 11, 81, 76
13, 305609, Note_on_c, 11, 81, 0
13, 305640, Note_on_c, 11, 81, 76
13, 305729, Note_on_c, 11, 81, 0
13, 305760, Note_on_c, 11, 69, 84
13, 305849, Note_on_c, 11, 69, 0
13, 305880, Note_on_c, 11, 80, 76
13, 305969, Note_on_c, 11, 80, 0
13, 306000, Note_on_c, 11, 80, 76
13, 306089, Note_on_c, 11, 80, 0
13, 306120, Note_on_c, 11, 80, 76
13, 306209, Note_on_c, 11, 80, 0
13, 306240, Note_on_c, 11, 80, 76
13, 306329, Note_on_c, 11, 80, 0
13, 306360, Note_on_c, 11, 80, 76
13, 306449, Note_on_c, 11, 80, 0
13, 306480, Note_on_c, 11, 80, 76
13, 306569, Note_on_c, 11, 80, 0
13, 306600, Note_on_c, 11, 80, 76
13, 306689, Note_on_c, 11, 80, 0
13, 306720, Note_on_c, 11, 69, 52
13, 306809, Note_on_c, 11, 69, 0
13, 306840, Note_on_c, 11, 81, 53
13, 306929, Note_on_c, 11, 81, 0
13, 306960, Note_on_c, 11, 81, 55
13, 307049, Note_on_c, 11, 81, 0
13, 307080, Note_on_c, 11, 81, 56
13, 307169, Note_on_c, 11, 81, 0
13, 307200, Note_on_c, 11, 79, 58
13, 307289, Note_on_c, 11, 79, 0
13, 307320, Note_on_c, 11, 79, 59
13, 307409, Note_on_c, 11, 79, 0
13, 307440, Note_on_c, 11, 79, 61
13, 307529, Note_on_c, 11, 79, 0
13, 307560, Note_on_c, 11, 79, 62
13, 307649, Note_on_c, 11, 79, 0
13, 307680, Note_on_c, 11, 78, 64
13, 307769, Note_on_c, 11, 78, 0
13, 307800, Note_on_c, 11, 78, 65
13, 307889, Note_on_c, 11, 78, 0
13, 307920, Note_on_c, 11, 78, 67
13, 308009, Note_on_c, 11, 78, 0
13, 308040, Note_on_c, 11, 78, 68
13, 308129, Note_on_c, 11, 78, 0
13, 308160, Note_on_c, 11, 76, 70
13, 308249, Note_on_c, 11, 76, 0
13, 308280, Note_on_c, 11, 76, 71
13, 308369, Note_on_c, 11, 76, 0
13, 308400, Note_on_c, 11, 76, 73
13, 308489, Note_on_c, 11, 76, 0
13, 308520, Note_on_c, 11, 76, 74
13, 308609, Note_on_c, 11, 76, 0
13, 308640, Note_on_c, 11, 74, 76
13, 308640, Note_on_c, 11, 62, 76
13, 308879, Note_on_c, 11, 74, 0
13, 308879, Note_on_c, 11, 62, 0
13, 310560, Note_on_c, 11, 62, 76
13, 310560, Note_on_c, 11, 74, 76
13, 310680, Control_c, 11, 11, 80
13, 310799, Note_on_c, 11, 62, 0
13, 310799, Note_on_c, 11, 74, 0
13, 312240, Control_c, 11, 11, 127
13, 312480, Note_on_c, 11, 74, 76
13, 312569, Note_on_c, 11, 74, 0
13, 312600, Note_on_c, 11, 86, 52
13, 312689, Note_on_c, 11, 86, 0
13, 312720, Note_on_c, 11, 86, 52
13, 312809, Note_on_c, 11, 86, 0
13, 312840, Note_on_c, 11, 86, 52
13, 312929, Note_on_c, 11, 86, 0
13, 312960, Note_on_c, 11, 86, 52
13, 313049, Note_on_c, 11, 86, 0
13, 313080, Note_on_c, 11, 86, 52
13, 313169, Note_on_c, 11, 86, 0
13, 313200, Note_on_c, 11, 86, 52
13, 313289, Note_on_c, 11, 86, 0
13, 313320, Note_on_c, 11, 86, 52
13, 313409, Note_on_c, 11, 86, 0
13, 313440, Note_on_c, 11, 74, 76
13, 313529, Note_on_c, 11, 74, 0
13, 313560, Note_on_c, 11, 85, 52
13, 313649, Note_on_c, 11, 85, 0
13, 313680, Note_on_c, 11, 85, 52
13, 313769, Note_on_c, 11, 85, 0
13, 313800, Note_on_c, 11, 85, 52
13, 313889, Note_on_c, 11, 85, 0
13, 313920, Note_on_c, 11, 85, 52
13, 314009, Note_on_c, 11, 85, 0
13, 314040, Note_on_c, 11, 85, 52
13, 314129, Note_on_c, 11, 85, 0
13, 314160, Note_on_c, 11, 85, 52
13, 314249, Note_on_c, 11, 85, 0
13, 314280, Note_on_c, 11, 85, 52
13, 314369, Note_on_c, 11, 85, 0
13, 314400, Note_on_c, 11, 74, 76
13, 314489, Note_on_c, 11, 74, 0
13, 314520, Note_on_c, 11, 86, 52
13, 314609, Note_on_c, 11, 86, 0
13, 314640, Note_on_c, 11, 86, 52
13, 314729, Note_on_c, 11, 86, 0
13, 314760, Note_on_c, 11, 86, 52
13, 314849, Note_on_c, 11, 86, 0
13, 314880, Note_on_c, 11, 86, 52
13, 314969, Note_on_c, 11, 86, 0
13, 315000, Note_on_c, 11, 86, 52
13, 315089, Note_on_c, 11, 86, 0
13, 315120, Note_on_c, 11, 86, 52
13, 315209, Note_on_c, 11, 86, 0
13, 315240, Note_on_c, 11, 86, 52
13, 315329, Note_on_c, 11, 86, 0
13, 315360, Note_on_c, 11, 74, 76
13, 315449, Note_on_c, 11, 74, 0
13, 315480, Note_on_c, 11, 85, 52
13, 315569, Note_on_c, 11, 85, 0
13, 315600, Note_on_c, 11, 85, 52
13, 315689, Note_on_c, 11, 85, 0
13, 315720, Note_on_c, 11, 85, 52
13, 315809, Note_on_c, 11, 85, 0
13, 315840, Note_on_c, 11, 85, 52
13, 315929, Note_on_c, 11, 85, 0
13, 315960, Note_on_c, 11, 85, 52
13, 316049, Note_on_c, 11, 85, 0
13, 316080, Note_on_c, 11, 85, 52
13, 316169, Note_on_c, 11, 85, 0
13, 316200, Note_on_c, 11, 85, 52
13, 316289, Note_on_c, 11, 85, 0
13, 316320, Note_on_c, 11, 86, 76
13, 316409, Note_on_c, 11, 86, 0
13, 316440, Note_on_c, 11, 74, 76
13, 316529, Note_on_c, 11, 74, 0
13, 316560, Note_on_c, 11, 74, 76
13, 316649, Note_on_c, 11, 74, 0
13, 316680, Note_on_c, 11, 74, 76
13, 316769, Note_on_c, 11, 74, 0
13, 316800, Note_on_c, 11, 74, 76
13, 316889, Note_on_c, 11, 74, 0
13, 316920, Note_on_c, 11, 74, 76
13, 317009, Note_on_c, 11, 74, 0
13, 317040, Note_on_c, 11, 74, 76
13, 317129, Note_on_c, 11, 74, 0
13, 317160, Note_on_c, 11, 74, 76
13, 317249, Note_on_c, 11, 74, 0
13, 317280, Note_on_c, 11, 74, 84
13, 317369, Note_on_c, 11, 74, 0
13, 317400, Note_on_c, 11, 71, 76
13, 317489, Note_on_c, 11, 71, 0
13, 317520, Note_on_c, 11, 76, 76
13, 317609, Note_on_c, 11, 76, 0
13, 317640, Note_on_c, 11, 76, 76
13, 317729, Note_on_c, 11, 76, 0
13, 317760, Note_on_c, 11, 76, 76
13, 317849, Note_on_c, 11, 76, 0
13, 317880, Note_on_c, 11, 76, 76
13, 317969, Note_on_c, 11, 76, 0
13, 318000, Note_on_c, 11, 76, 76
13, 318089, Note_on_c, 11, 76, 0
13, 318120, Note_on_c, 11, 76, 76
13, 318209, Note_on_c, 11, 76, 0
13, 318240, Note_on_c, 11, 76, 84
13, 318329, Note_on_c, 11, 76, 0
13, 318360, Note_on_c, 11, 73, 76
13, 318449, Note_on_c, 11, 73, 0
13, 318480, Note_on_c, 11, 78, 76
13, 318569, Note_on_c, 11, 78, 0
13, 318600, Note_on_c, 11, 78, 76
13, 318689, Note_on_c, 11, 78, 0
13, 318720, Note_on_c, 11, 78, 76
13, 318809, Note_on_c, 11, 78, 0
13, 318840, Note_on_c, 11, 78, 76
13, 318929, Note_on_c, 11, 78, 0
13, 318960, Note_on_c, 11, 78, 76
13, 319049, Note_on_c, 11, 78, 0
13, 319080, Note_on_c, 11, 78, 76
13, 319169, Note_on_c, 11, 78, 0
13, 319200, Note_on_c, 11, 78, 84
13, 319289, Note_on_c, 11, 78, 0
13, 319320, Note_on_c, 11, 74, 76
13, 319409, Note_on_c, 11, 74, 0
13, 319440, Note_on_c, 11, 79, 76
13, 319529, Note_on_c, 11, 79, 0
13, 319560, Note_on_c, 11, 79, 76
13, 319649, Note_on_c, 11, 79, 0
13, 319680, Note_on_c, 11, 79, 76
13, 319769, Note_on_c, 11, 79, 0
13, 319800, Note_on_c, 11, 79, 76
13, 319889, Note_on_c, 11, 79, 0
13, 319920, Note_on_c, 11, 79, 76
13, 320009, Note_on_c, 11, 79, 0
13, 320040, Note_on_c, 11, 79, 76
13, 320129, Note_on_c, 11, 79, 0
13, 320160, Note_on_c, 11, 79, 84
13, 320160, Note_on_c, 11, 69, 84
13, 323939, Note_on_c, 11, 79, 0
13, 323939, Note_on_c, 11, 69, 0
13, 324000, Note_on_c, 11, 66, 52
13, 325859, Note_on_c, 11, 66, 0
13, 325920, Note_on_c, 11, 66, 44
13, 326099, Note_on_c, 11, 66, 0
13, 326160, Note_on_c, 11, 66, 44
13, 326339, Note_on_c, 11, 66, 0
13, 326640, Note_on_c, 11, 66, 44
13, 326819, Note_on_c, 11, 66, 0
13, 327120, Note_on_c, 11, 66, 44
13, 327299, Note_on_c, 11, 66, 0
13, 327600, Note_on_c, 11, 66, 44
13, 327779, Note_on_c, 11, 66, 0
13, 327840, Note_on_c, 11, 66, 44
13, 328019, Note_on_c, 11, 66, 0
13, 328080, Note_on_c, 11, 71, 44
13, 328259, Note_on_c, 11, 71, 0
13, 328560, Note_on_c, 11, 71, 44
13, 328739, Note_on_c, 11, 71, 0
13, 329040, Note_on_c, 11, 71, 44
13, 329219, Note_on_c, 11, 71, 0
13, 329520, Note_on_c, 11, 71, 44
13, 329699, Note_on_c, 11, 71, 0
13, 329760, Note_on_c, 11, 71, 44
13, 329939, Note_on_c, 11, 71, 0
13, 330000, Note_on_c, 11, 76, 44
13, 330179, Note_on_c, 11, 76, 0
13, 330480, Note_on_c, 11, 76, 44
13, 330659, Note_on_c, 11, 76, 0
13, 330960, Note_on_c, 11, 76, 44
13, 331139, Note_on_c, 11, 76, 0
13, 331200, Control_c, 11, 11, 96
13, 331440, Note_on_c, 11, 76, 60
13, 331619, Note_on_c, 11, 76, 0
13, 331680, Note_on_c, 11, 76, 60
13, 331680, Control_c, 11, 11, 96
13, 331840, Control_c, 11, 11, 99
13, 331859, Note_on_c, 11, 76, 0
13, 331920, Note_on_c, 11, 64, 60
13, 332000, Control_c, 11, 11, 101
13, 332099, Note_on_c, 11, 64, 0
13, 332160, Control_c, 11, 11, 104
13, 332320, Control_c, 11, 11, 106
13, 332400, Note_on_c, 11, 66, 60
13, 332480, Control_c, 11, 11, 109
13, 332579, Note_on_c, 11, 66, 0
13, 332640, Control_c, 11, 11, 112
13, 332800, Control_c, 11, 11, 114
13, 332880, Note_on_c, 11, 67, 60
13, 332960, Control_c, 11, 11, 117
13, 333059, Note_on_c, 11, 67, 0
13, 333120, Control_c, 11, 11, 119
13, 333280, Control_c, 11, 11, 122
13, 333360, Note_on_c, 11, 64, 60
13, 333440, Control_c, 11, 11, 127
13, 333539, Note_on_c, 11, 64, 0
13, 333600, Note_on_c, 11, 66, 44
13, 333839, Note_on_c, 11, 66, 0
13, 333960, Note_on_c, 11, 77, 44
13, 334079, Note_on_c, 11, 77, 0
13, 334080, Note_on_c, 11, 78, 44
13, 334319, Note_on_c, 11, 78, 0
13, 334440, Note_on_c, 11, 77, 44
13, 334559, Note_on_c, 11, 77, 0
13, 334560, Note_on_c, 11, 78, 44
13, 334799, Note_on_c, 11, 78, 0
13, 334920, Note_on_c, 11, 77, 44
13, 335039, Note_on_c, 11, 77, 0
13, 335040, Note_on_c, 11, 78, 44
13, 335279, Note_on_c, 11, 78, 0
13, 335400, Note_on_c, 11, 77, 44
13, 335519, Note_on_c, 11, 77, 0
13, 335520, Note_on_c, 11, 78, 44
13, 335759, Note_on_c, 11, 78, 0
13, 335760, Note_on_c, 11, 59, 44
13, 335939, Note_on_c, 11, 59, 0
13, 336000, Note_on_c, 11, 63, 44
13, 336179, Note_on_c, 11, 63, 0
13, 336240, Note_on_c, 11, 59, 44
13, 336419, Note_on_c, 11, 59, 0
13, 336480, Note_on_c, 11, 64, 44
13, 336659, Note_on_c, 11, 64, 0
13, 336720, Note_on_c, 11, 59, 44
13, 336899, Note_on_c, 11, 59, 0
13, 336960, Note_on_c, 11, 66, 44
13, 337139, Note_on_c, 11, 66, 0
13, 337200, Note_on_c, 11, 59, 44
13, 337379, Note_on_c, 11, 59, 0
13, 337440, Note_on_c, 11, 67, 44
13, 337619, Note_on_c, 11, 67, 0
13, 337800, Note_on_c, 11, 75, 44
13, 337919, Note_on_c, 11, 75, 0
13, 337920, Note_on_c, 11, 76, 44
13, 338159, Note_on_c, 11, 76, 0
13, 338280, Note_on_c, 11, 75, 44
13, 338399, Note_on_c, 11, 75, 0
13, 338400, Note_on_c, 11, 76, 44
13, 338639, Note_on_c, 11, 76, 0
13, 338760, Note_on_c, 11, 75, 44
13, 338879, Note_on_c, 11, 75, 0
13, 338880, Note_on_c, 11, 76, 44
13, 339119, Note_on_c, 11, 76, 0
13, 339240, Note_on_c, 11, 75, 44
13, 339359, Note_on_c, 11, 75, 0
13, 339360, Note_on_c, 11, 76, 44
13, 339569, Note_on_c, 11, 76, 0
13, 339600, Note_on_c, 11, 57, 44
13, 339779, Note_on_c, 11, 57, 0
13, 339840, Note_on_c, 11, 61, 44
13, 340019, Note_on_c, 11, 61, 0
13, 340080, Note_on_c, 11, 57, 44
13, 340259, Note_on_c, 11, 57, 0
13, 340320, Note_on_c, 11, 62, 44
13, 340499, Note_on_c, 11, 62, 0
13, 340560, Note_on_c, 11, 57, 44
13, 340739, Note_on_c, 11, 57, 0
13, 340800, Note_on_c, 11, 64, 44
13, 340979, Note_on_c, 11, 64, 0
13, 341040, Note_on_c, 11, 57, 44
13, 341219, Note_on_c, 11, 57, 0
13, 341280, Note_on_c, 11, 66, 44
13, 341459, Note_on_c, 11, 66, 0
13, 341640, Note_on_c, 11, 85, 44
13, 341759, Note_on_c, 11, 85, 0
13, 341760, Note_on_c, 11, 86, 44
13, 341999, Note_on_c, 11, 86, 0
13, 342120, Note_on_c, 11, 85, 44
13, 342239, Note_on_c, 11, 85, 0
13, 342240, Note_on_c, 11, 86, 44
13, 342479, Note_on_c, 11, 86, 0
13, 342600, Note_on_c, 11, 85, 44
13, 342719, Note_on_c, 11, 85, 0
13, 342720, Note_on_c, 11, 86, 44
13, 342959, Note_on_c, 11, 86, 0
13, 343080, Note_on_c, 11, 85, 44
13, 343199, Note_on_c, 11, 85, 0
13, 343200, Note_on_c, 11, 86, 44
13, 343439, Note_on_c, 11, 86, 0
13, 343560, Note_on_c, 11, 85, 44
13, 343679, Note_on_c, 11, 85, 0
13, 343680, Note_on_c, 11, 86, 44
13, 343919, Note_on_c, 11, 86, 0
13, 344040, Note_on_c, 11, 85, 44
13, 344159, Note_on_c, 11, 85, 0
13, 344160, Note_on_c, 11, 86, 44
13, 344399, Note_on_c, 11, 86, 0
13, 344520, Note_on_c, 11, 85, 44
13, 344639, Note_on_c, 11, 85, 0
13, 344640, Note_on_c, 11, 86, 44
13, 344879, Note_on_c, 11, 86, 0
13, 345000, Note_on_c, 11, 85, 44
13, 345119, Note_on_c, 11, 85, 0
13, 345120, Note_on_c, 11, 74, 44
13, 345120, Note_on_c, 11, 86, 44
13, 345120, Control_c, 11, 11, 127
13, 345376, Control_c, 11, 11, 126
13, 345632, Control_c, 11, 11, 125
13, 345888, Control_c, 11, 11, 124
13, 346144, Control_c, 11, 11, 123
13, 346400, Control_c, 11, 11, 122
13, 346656, Control_c, 11, 11, 121
13, 346912, Control_c, 11, 11, 120
13, 347168, Control_c, 11, 11, 119
13, 347424, Control_c, 11, 11, 118
13, 347680, Control_c, 11, 11, 117
13, 347936, Control_c, 11, 11, 116
13, 348192, Control_c, 11, 11, 115
13, 348448, Control_c, 11, 11, 114
13, 348954, Control_c, 11, 11, 127
13, 348959, Note_on_c, 11, 74, 0
13, 348959, Note_on_c, 11, 86, 0
13, 348960, Note_on_c, 11, 74, 44
13, 348960, Note_on_c, 11, 86, 44
13, 352769, Note_on_c, 11, 74, 0
13, 352769, Note_on_c, 11, 86, 0
13, 352800, Note_on_c, 11, 86, 44
13, 352889, Note_on_c, 11, 86, 0
13, 352920, Note_on_c, 11, 86, 44
13, 353009, Note_on_c, 11, 86, 0
13, 353040, Note_on_c, 11, 86, 44
13, 353129, Note_on_c, 11, 86, 0
13, 353160, Note_on_c, 11, 86, 44
13, 353249, Note_on_c, 11, 86, 0
13, 353280, Note_on_c, 11, 86, 44
13, 353369, Note_on_c, 11, 86, 0
13, 353400, Note_on_c, 11, 86, 44
13, 353489, Note_on_c, 11, 86, 0
13, 353520, Note_on_c, 11, 86, 44
13, 353609, Note_on_c, 11, 86, 0
13, 353640, Note_on_c, 11, 86, 44
13, 353729, Note_on_c, 11, 86, 0
13, 353760, Note_on_c, 11, 86, 44
13, 353849, Note_on_c, 11, 86, 0
13, 353880, Note_on_c, 11, 86, 44
13, 353969, Note_on_c, 11, 86, 0
13, 354000, Note_on_c, 11, 86, 44
13, 354089, Note_on_c, 11, 86, 0
13, 354120, Note_on_c, 11, 86, 44
13, 354209, Note_on_c, 11, 86, 0
13, 354240, Note_on_c, 11, 86, 44
13, 354329, Note_on_c, 11, 86, 0
13, 354360, Note_on_c, 11, 86, 44
13, 354449, Note_on_c, 11, 86, 0
13, 354480, Note_on_c, 11, 86, 44
13, 354569, Note_on_c, 11, 86, 0
13, 354600, Note_on_c, 11, 86, 44
13, 354689, Note_on_c, 11, 86, 0
13, 354720, Note_on_c, 11, 83, 44
13, 354809, Note_on_c, 11, 83, 0
13, 354840, Note_on_c, 11, 83, 44
13, 354929, Note_on_c, 11, 83, 0
13, 354960, Note_on_c, 11, 83, 44
13, 355049, Note_on_c, 11, 83, 0
13, 355080, Note_on_c, 11, 83, 44
13, 355169, Note_on_c, 11, 83, 0
13, 355200, Note_on_c, 11, 83, 44
13, 355289, Note_on_c, 11, 83, 0
13, 355320, Note_on_c, 11, 83, 44
13, 355409, Note_on_c, 11, 83, 0
13, 355440, Note_on_c, 11, 83, 44
13, 355529, Note_on_c, 11, 83, 0
13, 355560, Note_on_c, 11, 83, 44
13, 355649, Note_on_c, 11, 83, 0
13, 355680, Note_on_c, 11, 79, 44
13, 355769, Note_on_c, 11, 79, 0
13, 355800, Note_on_c, 11, 79, 44
13, 355889, Note_on_c, 11, 79, 0
13, 355920, Note_on_c, 11, 79, 44
13, 356009, Note_on_c, 11, 79, 0
13, 356040, Note_on_c, 11, 79, 44
13, 356129, Note_on_c, 11, 79, 0
13, 356160, Note_on_c, 11, 79, 44
13, 356249, Note_on_c, 11, 79, 0
13, 356280, Note_on_c, 11, 79, 44
13, 356369, Note_on_c, 11, 79, 0
13, 356400, Note_on_c, 11, 79, 44
13, 356489, Note_on_c, 11, 79, 0
13, 356520, Note_on_c, 11, 79, 44
13, 356609, Note_on_c, 11, 79, 0
13, 356640, Note_on_c, 11, 74, 44
13, 356729, Note_on_c, 11, 74, 0
13, 356760, Note_on_c, 11, 74, 44
13, 356849, Note_on_c, 11, 74, 0
13, 356880, Note_on_c, 11, 74, 44
13, 356969, Note_on_c, 11, 74, 0
13, 357000, Note_on_c, 11, 74, 44
13, 357089, Note_on_c, 11, 74, 0
13, 357120, Note_on_c, 11, 74, 44
13, 357209, Note_on_c, 11, 74, 0
13, 357240, Note_on_c, 11, 74, 44
13, 357329, Note_on_c, 11, 74, 0
13, 357360, Note_on_c, 11, 74, 44
13, 357449, Note_on_c, 11, 74, 0
13, 357480, Note_on_c, 11, 74, 44
13, 357569, Note_on_c, 11, 74, 0
13, 357600, Note_on_c, 11, 71, 44
13, 357689, Note_on_c, 11, 71, 0
13, 357720, Note_on_c, 11, 71, 44
13, 357809, Note_on_c, 11, 71, 0
13, 357840, Note_on_c, 11, 71, 44
13, 357929, Note_on_c, 11, 71, 0
13, 357960, Note_on_c, 11, 71, 44
13, 358049, Note_on_c, 11, 71, 0
13, 358080, Note_on_c, 11, 71, 44
13, 358169, Note_on_c, 11, 71, 0
13, 358200, Note_on_c, 11, 71, 44
13, 358289, Note_on_c, 11, 71, 0
13, 358320, Note_on_c, 11, 71, 44
13, 358409, Note_on_c, 11, 71, 0
13, 358440, Note_on_c, 11, 71, 44
13, 358529, Note_on_c, 11, 71, 0
13, 358560, Note_on_c, 11, 70, 84
13, 358560, Note_on_c, 11, 62, 84
13, 360449, Note_on_c, 11, 70, 0
13, 360449, Note_on_c, 11, 62, 0
13, 360480, Note_on_c, 11, 69, 84
13, 360599, Note_on_c, 11, 69, 0
13, 360600, Note_on_c, 11, 68, 84
13, 360719, Note_on_c, 11, 68, 0
13, 360720, Note_on_c, 11, 69, 84
13, 360839, Note_on_c, 11, 69, 0
13, 360840, Note_on_c, 11, 68, 84
13, 360959, Note_on_c, 11, 68, 0
13, 360960, Note_on_c, 11, 69, 84
13, 361079, Note_on_c, 11, 69, 0
13, 361080, Note_on_c, 11, 68, 84
13, 361199, Note_on_c, 11, 68, 0
13, 361200, Note_on_c, 11, 69, 84
13, 361319, Note_on_c, 11, 69, 0
13, 361320, Note_on_c, 11, 68, 84
13, 361409, Note_on_c, 11, 68, 0
13, 361440, Note_on_c, 11, 69, 84
13, 361649, Note_on_c, 11, 69, 0
13, 361680, Note_on_c, 11, 71, 84
13, 361769, Note_on_c, 11, 71, 0
13, 361800, Note_on_c, 11, 73, 84
13, 361889, Note_on_c, 11, 73, 0
13, 361920, Note_on_c, 11, 74, 84
13, 362009, Note_on_c, 11, 74, 0
13, 362040, Note_on_c, 11, 76, 84
13, 362129, Note_on_c, 11, 76, 0
13, 362160, Note_on_c, 11, 78, 84
13, 362249, Note_on_c, 11, 78, 0
13, 362280, Note_on_c, 11, 79, 84
13, 362369, Note_on_c, 11, 79, 0
13, 362400, Note_on_c, 11, 81, 92
13, 362519, Note_on_c, 11, 81, 0
13, 362520, Note_on_c, 11, 80, 84
13, 362639, Note_on_c, 11, 80, 0
13, 362640, Note_on_c, 11, 81, 84
13, 362759, Note_on_c, 11, 81, 0
13, 362760, Note_on_c, 11, 80, 84
13, 362879, Note_on_c, 11, 80, 0
13, 362880, Note_on_c, 11, 81, 84
13, 362999, Note_on_c, 11, 81, 0
13, 363000, Note_on_c, 11, 80, 84
13, 363119, Note_on_c, 11, 80, 0
13, 363120, Note_on_c, 11, 81, 84
13, 363239, Note_on_c, 11, 81, 0
13, 363240, Note_on_c, 11, 80, 84
13, 363329, Note_on_c, 11, 80, 0
13, 363360, Note_on_c, 11, 81, 84
13, 363569, Note_on_c, 11, 81, 0
13, 363600, Note_on_c, 11, 79, 84
13, 363689, Note_on_c, 11, 79, 0
13, 363720, Note_on_c, 11, 78, 84
13, 363809, Note_on_c, 11, 78, 0
13, 363840, Note_on_c, 11, 76, 84
13, 363929, Note_on_c, 11, 76, 0
13, 363960, Note_on_c, 11, 74, 84
13, 364049, Note_on_c, 11, 74, 0
13, 364080, Note_on_c, 11, 73, 84
13, 364169, Note_on_c, 11, 73, 0
13, 364200, Note_on_c, 11, 71, 84
13, 364289, Note_on_c, 11, 71, 0
13, 364320, Note_on_c, 11, 69, 92
13, 364439, Note_on_c, 11, 69, 0
13, 364440, Note_on_c, 11, 68, 84
13, 364559, Note_on_c, 11, 68, 0
13, 364560, Note_on_c, 11, 69, 84
13, 364679, Note_on_c, 11, 69, 0
13, 364680, Note_on_c, 11, 68, 84
13, 364799, Note_on_c, 11, 68, 0
13, 364800, Note_on_c, 11, 69, 84
13, 364919, Note_on_c, 11, 69, 0
13, 364920, Note_on_c, 11, 68, 84
13, 365039, Note_on_c, 11, 68, 0
13, 365040, Note_on_c, 11, 69, 84
13, 365159, Note_on_c, 11, 69, 0
13, 365160, Note_on_c, 11, 68, 84
13, 365249, Note_on_c, 11, 68, 0
13, 365280, Note_on_c, 11, 69, 84
13, 365489, Note_on_c, 11, 69, 0
13, 365520, Note_on_c, 11, 71, 84
13, 365609, Note_on_c, 11, 71, 0
13, 365640, Note_on_c, 11, 73, 84
13, 365729, Note_on_c, 11, 73, 0
13, 365760, Note_on_c, 11, 74, 84
13, 365849, Note_on_c, 11, 74, 0
13, 365880, Note_on_c, 11, 76, 84
13, 365969, Note_on_c, 11, 76, 0
13, 366000, Note_on_c, 11, 78, 84
13, 366089, Note_on_c, 11, 78, 0
13, 366120, Note_on_c, 11, 79, 84
13, 366209, Note_on_c, 11, 79, 0
13, 366240, Note_on_c, 11, 81, 92
13, 366359, Note_on_c, 11, 81, 0
13, 366360, Note_on_c, 11, 80, 84
13, 366479, Note_on_c, 11, 80, 0
13, 366480, Note_on_c, 11, 81, 84
13, 366599, Note_on_c, 11, 81, 0
13, 366600, Note_on_c, 11, 80, 84
13, 366719, Note_on_c, 11, 80, 0
13, 366720, Note_on_c, 11, 81, 84
13, 366839, Note_on_c, 11, 81, 0
13, 366840, Note_on_c, 11, 80, 84
13, 366959, Note_on_c, 11, 80, 0
13, 366960, Note_on_c, 11, 81, 84
13, 367079, Note_on_c, 11, 81, 0
13, 367080, Note_on_c, 11, 80, 84
13, 367169, Note_on_c, 11, 80, 0
13, 367200, Note_on_c, 11, 81, 84
13, 367289, Note_on_c, 11, 81, 0
13, 367320, Note_on_c, 11, 79, 84
13, 367409, Note_on_c, 11, 79, 0
13, 367440, Note_on_c, 11, 78, 84
13, 367529, Note_on_c, 11, 78, 0
13, 367560, Note_on_c, 11, 76, 84
13, 367649, Note_on_c, 11, 76, 0
13, 367680, Note_on_c, 11, 74, 84
13, 367769, Note_on_c, 11, 74, 0
13, 367800, Note_on_c, 11, 73, 84
13, 367889, Note_on_c, 11, 73, 0
13, 367920, Note_on_c, 11, 71, 84
13, 368009, Note_on_c, 11, 71, 0
13, 368040, Note_on_c, 11, 69, 84
13, 368129, Note_on_c, 11, 69, 0
13, 368160, Note_on_c, 11, 74, 84
13, 368399, Note_on_c, 11, 74, 0
13, 368400, Control_c, 11, 11, 112
13, 368520, Note_on_c, 11, 85, 84
13, 368639, Note_on_c, 11, 85, 0
13, 368640, Note_on_c, 11, 86, 84
13, 368700, Control_c, 11, 11, 113
13, 368879, Note_on_c, 11, 86, 0
13, 369000, Control_c, 11, 11, 115
13, 369300, Control_c, 11, 11, 116
13, 369480, Note_on_c, 11, 85, 84
13, 369599, Note_on_c, 11, 85, 0
13, 369600, Note_on_c, 11, 86, 84
13, 369600, Control_c, 11, 11, 117
13, 369839, Note_on_c, 11, 86, 0
13, 369900, Control_c, 11, 11, 118
13, 370200, Control_c, 11, 11, 120
13, 370440, Note_on_c, 11, 85, 84
13, 370500, Control_c, 11, 11, 121
13, 370559, Note_on_c, 11, 85, 0
13, 370560, Note_on_c, 11, 86, 84
13, 370799, Note_on_c, 11, 86, 0
13, 370800, Control_c, 11, 11, 122
13, 371100, Control_c, 11, 11, 123
13, 371400, Control_c, 11, 11, 125
13, 371400, Note_on_c, 11, 85, 84
13, 371519, Note_on_c, 11, 85, 0
13, 371520, Note_on_c, 11, 86, 84
13, 371700, Control_c, 11, 11, 127
13, 371759, Note_on_c, 11, 86, 0
13, 372000, Note_on_c, 11, 86, 84
13, 372000, Note_on_c, 11, 74, 84
13, 372089, Note_on_c, 11, 86, 0
13, 372089, Note_on_c, 11, 74, 0
13, 372120, Note_on_c, 11, 74, 84
13, 372120, Note_on_c, 11, 86, 84
13, 372209, Note_on_c, 11, 74, 0
13, 372209, Note_on_c, 11, 86, 0
13, 372240, Note_on_c, 11, 74, 84
13, 372240, Note_on_c, 11, 86, 84
13, 372329, Note_on_c, 11, 74, 0
13, 372329, Note_on_c, 11, 86, 0
13, 372360, Note_on_c, 11, 86, 84
13, 372360, Note_on_c, 11, 74, 84
13, 372449, Note_on_c, 11, 86, 0
13, 372449, Note_on_c, 11, 74, 0
13, 372480, Note_on_c, 11, 86, 84
13, 372480, Note_on_c, 11, 74, 84
13, 372569, Note_on_c, 11, 86, 0
13, 372569, Note_on_c, 11, 74, 0
13, 372600, Note_on_c, 11, 74, 84
13, 372600, Note_on_c, 11, 86, 84
13, 372689, Note_on_c, 11, 74, 0
13, 372689, Note_on_c, 11, 86, 0
13, 372720, Note_on_c, 11, 74, 84
13, 372720, Note_on_c, 11, 86, 84
13, 372809, Note_on_c, 11, 74, 0
13, 372809, Note_on_c, 11, 86, 0
13, 372840, Note_on_c, 11, 74, 84
13, 372840, Note_on_c, 11, 86, 84
13, 372929, Note_on_c, 11, 74, 0
13, 372929, Note_on_c, 11, 86, 0
13, 372960, Note_on_c, 11, 86, 84
13, 372960, Note_on_c, 11, 74, 84
13, 373049, Note_on_c, 11, 86, 0
13, 373049, Note_on_c, 11, 74, 0
13, 373080, Note_on_c, 11, 86, 84
13, 373080, Note_on_c, 11, 74, 84
13, 373169, Note_on_c, 11, 86, 0
13, 373169, Note_on_c, 11, 74, 0
13, 373200, Note_on_c, 11, 74, 84
13, 373200, Note_on_c, 11, 86, 84
13, 373289, Note_on_c, 11, 74, 0
13, 373289, Note_on_c, 11, 86, 0
13, 373320, Note_on_c, 11, 74, 84
13, 373320, Note_on_c, 11, 86, 84
13, 373409, Note_on_c, 11, 74, 0
13, 373409, Note_on_c, 11, 86, 0
13, 373440, Note_on_c, 11, 86, 84
13, 373440, Note_on_c, 11, 74, 84
13, 373529, Note_on_c, 11, 86, 0
13, 373529, Note_on_c, 11, 74, 0
13, 373560, Note_on_c, 11, 74, 84
13, 373560, Note_on_c, 11, 86, 84
13, 373649, Note_on_c, 11, 74, 0
13, 373649, Note_on_c, 11, 86, 0
13, 373680, Note_on_c, 11, 86, 84
13, 373680, Note_on_c, 11, 74, 84
13, 373769, Note_on_c, 11, 86, 0
13, 373769, Note_on_c, 11, 74, 0
13, 373800, Note_on_c, 11, 86, 84
13, 373800, Note_on_c, 11, 74, 84
13, 373889, Note_on_c, 11, 86, 0
13, 373889, Note_on_c, 11, 74, 0
13, 373920, Note_on_c, 11, 86, 84
13, 373920, Note_on_c, 11, 74, 84
13, 374009, Note_on_c, 11, 86, 0
13, 374009, Note_on_c, 11, 74, 0
13, 374040, Note_on_c, 11, 86, 84
13, 374040, Note_on_c, 11, 74, 84
13, 374129, Note_on_c, 11, 86, 0
13, 374129, Note_on_c, 11, 74, 0
13, 374160, Note_on_c, 11, 86, 84
13, 374160, Note_on_c, 11, 74, 84
13, 374249, Note_on_c, 11, 86, 0
13, 374249, Note_on_c, 11, 74, 0
13, 374280, Note_on_c, 11, 86, 84
13, 374280, Note_on_c, 11, 74, 84
13, 374369, Note_on_c, 11, 86, 0
13, 374369, Note_on_c, 11, 74, 0
13, 374400, Note_on_c, 11, 74, 84
13, 374400, Note_on_c, 11, 86, 84
13, 374489, Note_on_c, 11, 74, 0
13, 374489, Note_on_c, 11, 86, 0
13, 374520, Note_on_c, 11, 74, 84
13, 374520, Note_on_c, 11, 86, 84
13, 374609, Note_on_c, 11, 74, 0
13, 374609, Note_on_c, 11, 86, 0
13, 374640, Note_on_c, 11, 74, 84
13, 374640, Note_on_c, 11, 86, 84
13, 374729, Note_on_c, 11, 74, 0
13, 374729, Note_on_c, 11, 86, 0
13, 374760, Note_on_c, 11, 74, 84
13, 374760, Note_on_c, 11, 86, 84
13, 374849, Note_on_c, 11, 74, 0
13, 374849, Note_on_c, 11, 86, 0
13, 374880, Note_on_c, 11, 74, 84
13, 374880, Note_on_c, 11, 86, 84
13, 374969, Note_on_c, 11, 74, 0
13, 374969, Note_on_c, 11, 86, 0
13, 375000, Note_on_c, 11, 86, 84
13, 375000, Note_on_c, 11, 74, 84
13, 375089, Note_on_c, 11, 86, 0
13, 375089, Note_on_c, 11, 74, 0
13, 375120, Note_on_c, 11, 74, 84
13, 375120, Note_on_c, 11, 86, 84
13, 375209, Note_on_c, 11, 74, 0
13, 375209, Note_on_c, 11, 86, 0
13, 375240, Note_on_c, 11, 74, 84
13, 375240, Note_on_c, 11, 86, 84
13, 375329, Note_on_c, 11, 74, 0
13, 375329, Note_on_c, 11, 86, 0
13, 375360, Note_on_c, 11, 86, 84
13, 375360, Note_on_c, 11, 74, 84
13, 375449, Note_on_c, 11, 86, 0
13, 375449, Note_on_c, 11, 74, 0
13, 375480, Note_on_c, 11, 86, 84
13, 375480, Note_on_c, 11, 74, 84
13, 375569, Note_on_c, 11, 86, 0
13, 375569, Note_on_c, 11, 74, 0
13, 375600, Note_on_c, 11, 86, 84
13, 375600, Note_on_c, 11, 74, 84
13, 375689, Note_on_c, 11, 86, 0
13, 375689, Note_on_c, 11, 74, 0
13, 375720, Note_on_c, 11, 74, 84
13, 375720, Note_on_c, 11, 86, 84
13, 375809, Note_on_c, 11, 74, 0
13, 375809, Note_on_c, 11, 86, 0
13, 375840, Note_on_c, 11, 86, 92
13, 375929, Note_on_c, 11, 86, 0
13, 375960, Note_on_c, 11, 85, 84
13, 376049, Note_on_c, 11, 85, 0
13, 376080, Note_on_c, 11, 86, 84
13, 376169, Note_on_c, 11, 86, 0
13, 376200, Note_on_c, 11, 85, 84
13, 376289, Note_on_c, 11, 85, 0
13, 376320, Note_on_c, 11, 86, 84
13, 376409, Note_on_c, 11, 86, 0
13, 376440, Note_on_c, 11, 85, 84
13, 376529, Note_on_c, 11, 85, 0
13, 376560, Note_on_c, 11, 86, 84
13, 376649, Note_on_c, 11, 86, 0
13, 376680, Note_on_c, 11, 85, 84
13, 376769, Note_on_c, 11, 85, 0
13, 376800, Note_on_c, 11, 86, 84
13, 376889, Note_on_c, 11, 86, 0
13, 376920, Note_on_c, 11, 84, 84
13, 377009, Note_on_c, 11, 84, 0
13, 377040, Note_on_c, 11, 82, 84
13, 377129, Note_on_c, 11, 82, 0
13, 377160, Note_on_c, 11, 81, 84
13, 377249, Note_on_c, 11, 81, 0
13, 377280, Note_on_c, 11, 79, 84
13, 377369, Note_on_c, 11, 79, 0
13, 377400, Note_on_c, 11, 77, 84
13, 377489, Note_on_c, 11, 77, 0
13, 377520, Note_on_c, 11, 76, 84
13, 377609, Note_on_c, 11, 76, 0
13, 377640, Note_on_c, 11, 74, 84
13, 377729, Note_on_c, 11, 74, 0
13, 377760, Note_on_c, 11, 81, 92
13, 377849, Note_on_c, 11, 81, 0
13, 377880, Note_on_c, 11, 80, 84
13, 377969, Note_on_c, 11, 80, 0
13, 378000, Note_on_c, 11, 81, 84
13, 378089, Note_on_c, 11, 81, 0
13, 378120, Note_on_c, 11, 80, 84
13, 378209, Note_on_c, 11, 80, 0
13, 378240, Note_on_c, 11, 81, 84
13, 378329, Note_on_c, 11, 81, 0
13, 378360, Note_on_c, 11, 78, 84
13, 378449, Note_on_c, 11, 78, 0
13, 378480, Note_on_c, 11, 76, 84
13, 378569, Note_on_c, 11, 76, 0
13, 378600, Note_on_c, 11, 74, 84
13, 378689, Note_on_c, 11, 74, 0
13, 378720, Note_on_c, 11, 79, 92
13, 378809, Note_on_c, 11, 79, 0
13, 378840, Note_on_c, 11, 78, 84
13, 378929, Note_on_c, 11, 78, 0
13, 378960, Note_on_c, 11, 79, 84
13, 379049, Note_on_c, 11, 79, 0
13, 379080, Note_on_c, 11, 78, 84
13, 379169, Note_on_c, 11, 78, 0
13, 379200, Note_on_c, 11, 79, 84
13, 379289, Note_on_c, 11, 79, 0
13, 379320, Note_on_c, 11, 76, 84
13, 379409, Note_on_c, 11, 76, 0
13, 379440, Note_on_c, 11, 74, 84
13, 379529, Note_on_c, 11, 74, 0
13, 379560, Note_on_c, 11, 73, 84
13, 379649, Note_on_c, 11, 73, 0
13, 379680, Note_on_c, 11, 86, 84
13, 379680, Note_on_c, 11, 74, 84
13, 379769, Note_on_c, 11, 86, 0
13, 379769, Note_on_c, 11, 74, 0
13, 379800, Note_on_c, 11, 74, 84
13, 379800, Note_on_c, 11, 86, 84
13, 379889, Note_on_c, 11, 74, 0
13, 379889, Note_on_c, 11, 86, 0
13, 379920, Note_on_c, 11, 86, 84
13, 379920, Note_on_c, 11, 74, 84
13, 380009, Note_on_c, 11, 86, 0
13, 380009, Note_on_c, 11, 74, 0
13, 380040, Note_on_c, 11, 86, 84
13, 380040, Note_on_c, 11, 74, 84
13, 380129, Note_on_c, 11, 86, 0
13, 380129, Note_on_c, 11, 74, 0
13, 380160, Note_on_c, 11, 74, 84
13, 380160, Note_on_c, 11, 86, 84
13, 380249, Note_on_c, 11, 74, 0
13, 380249, Note_on_c, 11, 86, 0
13, 380280, Note_on_c, 11, 86, 84
13, 380280, Note_on_c, 11, 74, 84
13, 380369, Note_on_c, 11, 86, 0
13, 380369, Note_on_c, 11, 74, 0
13, 380400, Note_on_c, 11, 74, 84
13, 380400, Note_on_c, 11, 86, 84
13, 380489, Note_on_c, 11, 74, 0
13, 380489, Note_on_c, 11, 86, 0
13, 380520, Note_on_c, 11, 74, 84
13, 380520, Note_on_c, 11, 86, 84
13, 380609, Note_on_c, 11, 74, 0
13, 380609, Note_on_c, 11, 86, 0
13, 380640, Note_on_c, 11, 86, 84
13, 380640, Note_on_c, 11, 74, 84
13, 380729, Note_on_c, 11, 86, 0
13, 380729, Note_on_c, 11, 74, 0
13, 380760, Note_on_c, 11, 86, 84
13, 380760, Note_on_c, 11, 74, 84
13, 380849, Note_on_c, 11, 86, 0
13, 380849, Note_on_c, 11, 74, 0
13, 380880, Note_on_c, 11, 74, 84
13, 380880, Note_on_c, 11, 86, 84
13, 380969, Note_on_c, 11, 74, 0
13, 380969, Note_on_c, 11, 86, 0
13, 381000, Note_on_c, 11, 86, 84
13, 381000, Note_on_c, 11, 74, 84
13, 381089, Note_on_c, 11, 86, 0
13, 381089, Note_on_c, 11, 74, 0
13, 381120, Note_on_c, 11, 86, 84
13, 381120, Note_on_c, 11, 74, 84
13, 381209, Note_on_c, 11, 86, 0
13, 381209, Note_on_c, 11, 74, 0
13, 381240, Note_on_c, 11, 86, 84
13, 381240, Note_on_c, 11, 74, 84
13, 381329, Note_on_c, 11, 86, 0
13, 381329, Note_on_c, 11, 74, 0
13, 381360, Note_on_c, 11, 86, 84
13, 381360, Note_on_c, 11, 74, 84
13, 381449, Note_on_c, 11, 86, 0
13, 381449, Note_on_c, 11, 74, 0
13, 381480, Note_on_c, 11, 86, 84
13, 381480, Note_on_c, 11, 74, 84
13, 381569, Note_on_c, 11, 86, 0
13, 381569, Note_on_c, 11, 74, 0
13, 381600, Note_on_c, 11, 74, 84
13, 381600, Note_on_c, 11, 86, 84
13, 381689, Note_on_c, 11, 74, 0
13, 381689, Note_on_c, 11, 86, 0
13, 381720, Note_on_c, 11, 74, 84
13, 381720, Note_on_c, 11, 86, 84
13, 381809, Note_on_c, 11, 74, 0
13, 381809, Note_on_c, 11, 86, 0
13, 381840, Note_on_c, 11, 86, 84
13, 381840, Note_on_c, 11, 74, 84
13, 381929, Note_on_c, 11, 86, 0
13, 381929, Note_on_c, 11, 74, 0
13, 381960, Note_on_c, 11, 86, 84
13, 381960, Note_on_c, 11, 74, 84
13, 382049, Note_on_c, 11, 86, 0
13, 382049, Note_on_c, 11, 74, 0
13, 382080, Note_on_c, 11, 86, 84
13, 382080, Note_on_c, 11, 74, 84
13, 382169, Note_on_c, 11, 86, 0
13, 382169, Note_on_c, 11, 74, 0
13, 382200, Note_on_c, 11, 86, 84
13, 382200, Note_on_c, 11, 74, 84
13, 382289, Note_on_c, 11, 86, 0
13, 382289, Note_on_c, 11, 74, 0
13, 382320, Note_on_c, 11, 86, 84
13, 382320, Note_on_c, 11, 74, 84
13, 382409, Note_on_c, 11, 86, 0
13, 382409, Note_on_c, 11, 74, 0
13, 382440, Note_on_c, 11, 86, 84
13, 382440, Note_on_c, 11, 74, 84
13, 382529, Note_on_c, 11, 86, 0
13, 382529, Note_on_c, 11, 74, 0
13, 382560, Note_on_c, 11, 74, 84
13, 382560, Note_on_c, 11, 86, 84
13, 382649, Note_on_c, 11, 74, 0
13, 382649, Note_on_c, 11, 86, 0
13, 382680, Note_on_c, 11, 74, 84
13, 382680, Note_on_c, 11, 86, 84
13, 382769, Note_on_c, 11, 74, 0
13, 382769, Note_on_c, 11, 86, 0
13, 382800, Note_on_c, 11, 74, 84
13, 382800, Note_on_c, 11, 86, 84
13, 382889, Note_on_c, 11, 74, 0
13, 382889, Note_on_c, 11, 86, 0
13, 382920, Note_on_c, 11, 74, 84
13, 382920, Note_on_c, 11, 86, 84
13, 383009, Note_on_c, 11, 74, 0
13, 383009, Note_on_c, 11, 86, 0
13, 383040, Note_on_c, 11, 86, 84
13, 383040, Note_on_c, 11, 74, 84
13, 383129, Note_on_c, 11, 86, 0
13, 383129, Note_on_c, 11, 74, 0
13, 383160, Note_on_c, 11, 86, 84
13, 383160, Note_on_c, 11, 74, 84
13, 383249, Note_on_c, 11, 86, 0
13, 383249, Note_on_c, 11, 74, 0
13, 383280, Note_on_c, 11, 86, 84
13, 383280, Note_on_c, 11, 74, 84
13, 383369, Note_on_c, 11, 86, 0
13, 383369, Note_on_c, 11, 74, 0
13, 383400, Note_on_c, 11, 74, 84
13, 383400, Note_on_c, 11, 86, 84
13, 383489, Note_on_c, 11, 74, 0
13, 383489, Note_on_c, 11, 86, 0
13, 383520, Note_on_c, 11, 87, 92
13, 383609, Note_on_c, 11, 87, 0
13, 383640, Note_on_c, 11, 87, 84
13, 383729, Note_on_c, 11, 87, 0
13, 383760, Note_on_c, 11, 87, 84
13, 383849, Note_on_c, 11, 87, 0
13, 383880, Note_on_c, 11, 87, 84
13, 383969, Note_on_c, 11, 87, 0
13, 384000, Note_on_c, 11, 87, 84
13, 384089, Note_on_c, 11, 87, 0
13, 384120, Note_on_c, 11, 87, 84
13, 384209, Note_on_c, 11, 87, 0
13, 384240, Note_on_c, 11, 87, 84
13, 384329, Note_on_c, 11, 87, 0
13, 384360, Note_on_c, 11, 87, 84
13, 384449, Note_on_c, 11, 87, 0
13, 384480, Note_on_c, 11, 87, 84
13, 384569, Note_on_c, 11, 87, 0
13, 384600, Note_on_c, 11, 87, 84
13, 384689, Note_on_c, 11, 87, 0
13, 384720, Note_on_c, 11, 87, 84
13, 384809, Note_on_c, 11, 87, 0
13, 384840, Note_on_c, 11, 87, 84
13, 384929, Note_on_c, 11, 87, 0
13, 384960, Note_on_c, 11, 87, 84
13, 385049, Note_on_c, 11, 87, 0
13, 385080, Note_on_c, 11, 87, 84
13, 385169, Note_on_c, 11, 87, 0
13, 385200, Note_on_c, 11, 87, 84
13, 385289, Note_on_c, 11, 87, 0
13, 385320, Note_on_c, 11, 87, 84
13, 385409, Note_on_c, 11, 87, 0
13, 385440, Note_on_c, 11, 88, 84
13, 385529, Note_on_c, 11, 88, 0
13, 385560, Note_on_c, 11, 88, 84
13, 385649, Note_on_c, 11, 88, 0
13, 385680, Note_on_c, 11, 88, 84
13, 385769, Note_on_c, 11, 88, 0
13, 385800, Note_on_c, 11, 88, 84
13, 385889, Note_on_c, 11, 88, 0
13, 385920, Note_on_c, 11, 91, 84
13, 386009, Note_on_c, 11, 91, 0
13, 386040, Note_on_c, 11, 91, 84
13, 386129, Note_on_c, 11, 91, 0
13, 386160, Note_on_c, 11, 91, 84
13, 386249, Note_on_c, 11, 91, 0
13, 386280, Note_on_c, 11, 91, 84
13, 386369, Note_on_c, 11, 91, 0
13, 386400, Note_on_c, 11, 86, 84
13, 386489, Note_on_c, 11, 86, 0
13, 386520, Note_on_c, 11, 86, 84
13, 386609, Note_on_c, 11, 86, 0
13, 386640, Note_on_c, 11, 86, 84
13, 386729, Note_on_c, 11, 86, 0
13, 386760, Note_on_c, 11, 86, 84
13, 386849, Note_on_c, 11, 86, 0
13, 386880, Note_on_c, 11, 85, 84
13, 386969, Note_on_c, 11, 85, 0
13, 387000, Note_on_c, 11, 85, 84
13, 387089, Note_on_c, 11, 85, 0
13, 387120, Note_on_c, 11, 85, 84
13, 387209, Note_on_c, 11, 85, 0
13, 387240, Note_on_c, 11, 85, 84
13, 387329, Note_on_c, 11, 85, 0
13, 387360, Note_on_c, 11, 86, 84
13, 387599, Note_on_c, 11, 86, 0
13, 388200, Note_on_c, 11, 78, 52
13, 388289, Note_on_c, 11, 78, 0
13, 388320, Note_on_c, 11, 78, 52
13, 388379, Note_on_c, 11, 78, 0
13, 388380, Note_on_c, 11, 79, 52
13, 388439, Note_on_c, 11, 79, 0
13, 388440, Note_on_c, 11, 78, 52
13, 388499, Note_on_c, 11, 78, 0
13, 388500, Note_on_c, 11, 79, 52
13, 388559, Note_on_c, 11, 79, 0
13, 388560, Note_on_c, 11, 78, 52
13, 388619, Note_on_c, 11, 78, 0
13, 388620, Note_on_c, 11, 79, 52
13, 388679, Note_on_c, 11, 79, 0
13, 388680, Note_on_c, 11, 76, 52
13, 388739, Note_on_c, 11, 76, 0
13, 388740, Note_on_c, 11, 78, 52
13, 388784, Note_on_c, 11, 78, 0
13, 388800, Note_on_c, 11, 81, 52
13, 388979, Note_on_c, 11, 81, 0
13, 389040, Note_on_c, 11, 74, 52
13, 389219, Note_on_c, 11, 74, 0
13, 389280, Note_on_c, 11, 73, 52
13, 389519, Note_on_c, 11, 73, 0
13, 390120, Note_on_c, 11, 73, 52
13, 390209, Note_on_c, 11, 73, 0
13, 390240, Note_on_c, 11, 73, 52
13, 390299, Note_on_c, 11, 73, 0
13, 390300, Note_on_c, 11, 74, 52
13, 390359, Note_on_c, 11, 74, 0
13, 390360, Note_on_c, 11, 73, 52
13, 390419, Note_on_c, 11, 73, 0
13, 390420, Note_on_c, 11, 74, 52
13, 390479, Note_on_c, 11, 74, 0
13, 390480, Note_on_c, 11, 73, 52
13, 390539, Note_on_c, 11, 73, 0
13, 390540, Note_on_c, 11, 74, 52
13, 390599, Note_on_c, 11, 74, 0
13, 390600, Note_on_c, 11, 71, 52
13, 390659, Note_on_c, 11, 71, 0
13, 390660, Note_on_c, 11, 73, 52
13, 390704, Note_on_c, 11, 73, 0
13, 390720, Note_on_c, 11, 76, 52
13, 390899, Note_on_c, 11, 76, 0
13, 390960, Note_on_c, 11, 69, 52
13, 391139, Note_on_c, 11, 69, 0
13, 391200, Note_on_c, 11, 74, 52
13, 391439, Note_on_c, 11, 74, 0
13, 392040, Note_on_c, 11, 78, 52
13, 392129, Note_on_c, 11, 78, 0
13, 392160, Note_on_c, 11, 78, 52
13, 392219, Note_on_c, 11, 78, 0
13, 392220, Note_on_c, 11, 79, 52
13, 392279, Note_on_c, 11, 79, 0
13, 392280, Note_on_c, 11, 78, 52
13, 392339, Note_on_c, 11, 78, 0
13, 392340, Note_on_c, 11, 79, 52
13, 392399, Note_on_c, 11, 79, 0
13, 392400, Note_on_c, 11, 78, 52
13, 392459, Note_on_c, 11, 78, 0
13, 392460, Note_on_c, 11, 79, 52
13, 392519, Note_on_c, 11, 79, 0
13, 392520, Note_on_c, 11, 76, 52
13, 392579, Note_on_c, 11, 76, 0
13, 392580, Note_on_c, 11, 78, 52
13, 392624, Note_on_c, 11, 78, 0
13, 392640, Note_on_c, 11, 81, 52
13, 392819, Note_on_c, 11, 81, 0
13, 392880, Note_on_c, 11, 74, 52
13, 393059, Note_on_c, 11, 74, 0
13, 393120, Note_on_c, 11, 73, 52
13, 393359, Note_on_c, 11, 73, 0
13, 393600, Control_c, 11, 11, 80
13, 393960, Note_on_c, 11, 73, 76
13, 394049, Note_on_c, 11, 73, 0
13, 394080, Note_on_c, 11, 73, 76
13, 394139, Note_on_c, 11, 73, 0
13, 394140, Note_on_c, 11, 74, 76
13, 394199, Note_on_c, 11, 74, 0
13, 394200, Note_on_c, 11, 73, 76
13, 394259, Note_on_c, 11, 73, 0
13, 394260, Note_on_c, 11, 74, 76
13, 394319, Note_on_c, 11, 74, 0
13, 394320, Note_on_c, 11, 73, 76
13, 394379, Note_on_c, 11, 73, 0
13, 394380, Note_on_c, 11, 74, 76
13, 394439, Note_on_c, 11, 74, 0
13, 394440, Note_on_c, 11, 71, 76
13, 394499, Note_on_c, 11, 71, 0
13, 394500, Note_on_c, 11, 73, 76
13, 394544, Note_on_c, 11, 73, 0
13, 394560, Note_on_c, 11, 76, 76
13, 394739, Note_on_c, 11, 76, 0
13, 394800, Note_on_c, 11, 69, 76
13, 394979, Note_on_c, 11, 69, 0
13, 395040, Note_on_c, 11, 74, 76
13, 395219, Note_on_c, 11, 74, 0
13, 395280, Note_on_c, 11, 78, 76
13, 395339, Note_on_c, 11, 78, 0
13, 395340, Note_on_c, 11, 79, 76
13, 395399, Note_on_c, 11, 79, 0
13, 395400, Note_on_c, 11, 76, 76
13, 395459, Note_on_c, 11, 76, 0
13, 395460, Note_on_c, 11, 78, 76
13, 395504, Note_on_c, 11, 78, 0
13, 395520, Control_c, 11, 11, 80
13, 395520, Note_on_c, 11, 81, 76
13, 395699, Note_on_c, 11, 81, 0
13, 395760, Note_on_c, 11, 74, 76
13, 395800, Control_c, 11, 11, 84
13, 395939, Note_on_c, 11, 74, 0
13, 396080, Control_c, 11, 11, 88
13, 396240, Note_on_c, 11, 73, 76
13, 396299, Note_on_c, 11, 73, 0
13, 396300, Note_on_c, 11, 74, 76
13, 396359, Note_on_c, 11, 74, 0
13, 396360, Control_c, 11, 11, 92
13, 396360, Note_on_c, 11, 71, 76
13, 396419, Note_on_c, 11, 71, 0
13, 396420, Note_on_c, 11, 73, 76
13, 396464, Note_on_c, 11, 73, 0
13, 396480, Note_on_c, 11, 76, 76
13, 396640, Control_c, 11, 11, 96
13, 396659, Note_on_c, 11, 76, 0
13, 396720, Note_on_c, 11, 69, 76
13, 396899, Note_on_c, 11, 69, 0
13, 396920, Control_c, 11, 11, 100
13, 397200, Control_c, 11, 11, 104
13, 397200, Note_on_c, 11, 78, 76
13, 397259, Note_on_c, 11, 78, 0
13, 397260, Note_on_c, 11, 79, 76
13, 397319, Note_on_c, 11, 79, 0
13, 397320, Note_on_c, 11, 76, 76
13, 397379, Note_on_c, 11, 76, 0
13, 397380, Note_on_c, 11, 78, 76
13, 397424, Note_on_c, 11, 78, 0
13, 397440, Note_on_c, 11, 81, 76
13, 397480, Control_c, 11, 11, 107
13, 397619, Note_on_c, 11, 81, 0
13, 397680, Note_on_c, 11, 74, 76
13, 397760, Control_c, 11, 11, 111
13, 397859, Note_on_c, 11, 74, 0
13, 398040, Control_c, 11, 11, 115
13, 398160, Note_on_c, 11, 73, 76
13, 398219, Note_on_c, 11, 73, 0
13, 398220, Note_on_c, 11, 74, 76
13, 398279, Note_on_c, 11, 74, 0
13, 398280, Note_on_c, 11, 71, 76
13, 398320, Control_c, 11, 11, 119
13, 398339, Note_on_c, 11, 71, 0
13, 398340, Note_on_c, 11, 73, 76
13, 398384, Note_on_c, 11, 73, 0
13, 398400, Note_on_c, 11, 76, 76
13, 398579, Note_on_c, 11, 76, 0
13, 398600, Control_c, 11, 11, 123
13, 398640, Note_on_c, 11, 69, 76
13, 398819, Note_on_c, 11, 69, 0
13, 398880, Control_c, 11, 11, 127
13, 398880, Note_on_c, 11, 74, 76
13, 399119, Note_on_c, 11, 74, 0
13, 399360, Note_on_c, 11, 66, 84
13, 400739, Note_on_c, 11, 66, 0
13, 400800, Note_on_c, 11, 66, 44
13, 400979, Note_on_c, 11, 66, 0
13, 401040, Note_on_c, 11, 66, 44
13, 401219, Note_on_c, 11, 66, 0
13, 401520, Note_on_c, 11, 66, 44
13, 401699, Note_on_c, 11, 66, 0
13, 402000, Note_on_c, 11, 66, 44
13, 402179, Note_on_c, 11, 66, 0
13, 402480, Note_on_c, 11, 66, 44
13, 402659, Note_on_c, 11, 66, 0
13, 402720, Note_on_c, 11, 66, 44
13, 402899, Note_on_c, 11, 66, 0
13, 403080, Note_on_c, 11, 77, 44
13, 403199, Note_on_c, 11, 77, 0
13, 403200, Note_on_c, 11, 78, 44
13, 403439, Note_on_c, 11, 78, 0
13, 404640, Note_on_c, 11, 67, 44
13, 404819, Note_on_c, 11, 67, 0
13, 404880, Note_on_c, 11, 67, 44
13, 405059, Note_on_c, 11, 67, 0
13, 405360, Note_on_c, 11, 67, 44
13, 405539, Note_on_c, 11, 67, 0
13, 405840, Note_on_c, 11, 67, 44
13, 406019, Note_on_c, 11, 67, 0
13, 406320, Note_on_c, 11, 67, 44
13, 406499, Note_on_c, 11, 67, 0
13, 406560, Note_on_c, 11, 67, 44
13, 406739, Note_on_c, 11, 67, 0
13, 406920, Note_on_c, 11, 78, 44
13, 407039, Note_on_c, 11, 78, 0
13, 407040, Note_on_c, 11, 79, 44
13, 407279, Note_on_c, 11, 79, 0
13, 408360, Note_on_c, 11, 73, 84
13, 408479, Note_on_c, 11, 73, 0
13, 408480, Note_on_c, 11, 74, 84
13, 408480, Note_on_c, 11, 62, 84
13, 408659, Note_on_c, 11, 74, 0
13, 408659, Note_on_c, 11, 62, 0
13, 408840, Note_on_c, 11, 66, 84
13, 408929, Note_on_c, 11, 66, 0
13, 408960, Note_on_c, 11, 66, 84
13, 409019, Note_on_c, 11, 66, 0
13, 409020, Note_on_c, 11, 67, 84
13, 409079, Note_on_c, 11, 67, 0
13, 409080, Note_on_c, 11, 66, 84
13, 409139, Note_on_c, 11, 66, 0
13, 409140, Note_on_c, 11, 67, 84
13, 409199, Note_on_c, 11, 67, 0
13, 409200, Note_on_c, 11, 66, 84
13, 409259, Note_on_c, 11, 66, 0
13, 409260, Note_on_c, 11, 67, 84
13, 409319, Note_on_c, 11, 67, 0
13, 409320, Note_on_c, 11, 64, 84
13, 409379, Note_on_c, 11, 64, 0
13, 409380, Note_on_c, 11, 66, 84
13, 409424, Note_on_c, 11, 66, 0
13, 409440, Note_on_c, 11, 69, 84
13, 409619, Note_on_c, 11, 69, 0
13, 409680, Note_on_c, 11, 62, 84
13, 409859, Note_on_c, 11, 62, 0
13, 410280, Note_on_c, 11, 73, 84
13, 410399, Note_on_c, 11, 73, 0
13, 410400, Note_on_c, 11, 74, 84
13, 410400, Note_on_c, 11, 62, 84
13, 410579, Note_on_c, 11, 74, 0
13, 410579, Note_on_c, 11, 62, 0
13, 410760, Note_on_c, 11, 69, 84
13, 410849, Note_on_c, 11, 69, 0
13, 410880, Note_on_c, 11, 69, 84
13, 410939, Note_on_c, 11, 69, 0
13, 410940, Note_on_c, 11, 71, 84
13, 410999, Note_on_c, 11, 71, 0
13, 411000, Note_on_c, 11, 69, 84
13, 411059, Note_on_c, 11, 69, 0
13, 411060, Note_on_c, 11, 71, 84
13, 411119, Note_on_c, 11, 71, 0
13, 411120, Note_on_c, 11, 69, 84
13, 411179, Note_on_c, 11, 69, 0
13, 411180, Note_on_c, 11, 71, 84
13, 411239, Note_on_c, 11, 71, 0
13, 411240, Note_on_c, 11, 68, 84
13, 411299, Note_on_c, 11, 68, 0
13, 411300, Note_on_c, 11, 69, 84
13, 411344, Note_on_c, 11, 69, 0
13, 411360, Note_on_c, 11, 74, 84
13, 411539, Note_on_c, 11, 74, 0
13, 411600, Note_on_c, 11, 66, 84
13, 411779, Note_on_c, 11, 66, 0
13, 412200, Note_on_c, 11, 73, 84
13, 412319, Note_on_c, 11, 73, 0
13, 412320, Note_on_c, 11, 62, 84
13, 412320, Note_on_c, 11, 74, 84
13, 412499, Note_on_c, 11, 62, 0
13, 412499, Note_on_c, 11, 74, 0
13, 412560, Note_on_c, 11, 74, 84
13, 412739, Note_on_c, 11, 74, 0
13, 412800, Note_on_c, 11, 78, 84
13, 412979, Note_on_c, 11, 78, 0
13, 413040, Note_on_c, 11, 69, 84
13, 413219, Note_on_c, 11, 69, 0
13, 413520, Note_on_c, 11, 78, 84
13, 413699, Note_on_c, 11, 78, 0
13, 413760, Note_on_c, 11, 81, 84
13, 413939, Note_on_c, 11, 81, 0
13, 414000, Note_on_c, 11, 74, 84
13, 414179, Note_on_c, 11, 74, 0
13, 414480, Note_on_c, 11, 81, 84
13, 414659, Note_on_c, 11, 81, 0
13, 414720, Note_on_c, 11, 86, 84
13, 414899, Note_on_c, 11, 86, 0
13, 414960, Note_on_c, 11, 81, 84
13, 415139, Note_on_c, 11, 81, 0
13, 415200, Note_on_c, 11, 86, 84
13, 415379, Note_on_c, 11, 86, 0
13, 415440, Note_on_c, 11, 81, 84
13, 415619, Note_on_c, 11, 81, 0
13, 415680, Note_on_c, 11, 86, 84
13, 415859, Note_on_c, 11, 86, 0
13, 415920, Note_on_c, 11, 81, 84
13, 416099, Note_on_c, 11, 81, 0
13, 416160, Note_on_c, 11, 86, 84
13, 416249, Note_on_c, 11, 86, 0
13, 416280, Note_on_c, 11, 86, 84
13, 416369, Note_on_c, 11, 86, 0
13, 416400, Note_on_c, 11, 81, 84
13, 416489, Note_on_c, 11, 81, 0
13, 416520, Note_on_c, 11, 81, 84
13, 416609, Note_on_c, 11, 81, 0
13, 416640, Note_on_c, 11, 86, 84
13, 416729, Note_on_c, 11, 86, 0
13, 416760, Note_on_c, 11, 86, 84
13, 416849, Note_on_c, 11, 86, 0
13, 416880, Note_on_c, 11, 81, 84
13, 416969, Note_on_c, 11, 81, 0
13, 417000, Note_on_c, 11, 81, 84
13, 417089, Note_on_c, 11, 81, 0
13, 417120, Note_on_c, 11, 86, 84
13, 417209, Note_on_c, 11, 86, 0
13, 417240, Note_on_c, 11, 86, 84
13, 417329, Note_on_c, 11, 86, 0
13, 417360, Note_on_c, 11, 81, 84
13, 417449, Note_on_c, 11, 81, 0
13, 417480, Note_on_c, 11, 81, 84
13, 417569, Note_on_c, 11, 81, 0
13, 417600, Note_on_c, 11, 86, 84
13, 417689, Note_on_c, 11, 86, 0
13, 417720, Note_on_c, 11, 86, 84
13, 417809, Note_on_c, 11, 86, 0
13, 417840, Note_on_c, 11, 81, 84
13, 417929, Note_on_c, 11, 81, 0
13, 417960, Note_on_c, 11, 81, 84
13, 418049, Note_on_c, 11, 81, 0
13, 418080, Note_on_c, 11, 86, 84
13, 418259, Note_on_c, 11, 86, 0
13, 418320, Note_on_c, 11, 85, 84
13, 418439, Note_on_c, 11, 85, 0
13, 418440, Note_on_c, 11, 83, 84
13, 418559, Note_on_c, 11, 83, 0
13, 418560, Note_on_c, 11, 81, 84
13, 418679, Note_on_c, 11, 81, 0
13, 418680, Note_on_c, 11, 79, 84
13, 418799, Note_on_c, 11, 79, 0
13, 418800, Note_on_c, 11, 78, 84
13, 418919, Note_on_c, 11, 78, 0
13, 418920, Note_on_c, 11, 76, 84
13, 419009, Note_on_c, 11, 76, 0
13, 419040, Note_on_c, 11, 74, 84
13, 419219, Note_on_c, 11, 74, 0
13, 419280, Note_on_c, 11, 73, 84
13, 419399, Note_on_c, 11, 73, 0
13, 419400, Note_on_c, 11, 71, 84
13, 419519, Note_on_c, 11, 71, 0
13, 419520, Note_on_c, 11, 69, 84
13, 419639, Note_on_c, 11, 69, 0
13, 419640, Note_on_c, 11, 67, 84
13, 419759, Note_on_c, 11, 67, 0
13, 419760, Note_on_c, 11, 66, 84
13, 419879, Note_on_c, 11, 66, 0
13, 419880, Note_on_c, 11, 64, 84
13, 419969, Note_on_c, 11, 64, 0
13, 420000, Note_on_c, 11, 62, 84
13, 420119, Note_on_c, 11, 62, 0
13, 420120, Note_on_c, 11, 61, 84
13, 420239, Note_on_c, 11, 61, 0
13, 420240, Note_on_c, 11, 62, 84
13, 420359, Note_on_c, 11, 62, 0
13, 420360, Note_on_c, 11, 61, 84
13, 420479, Note_on_c, 11, 61, 0
13, 420480, Note_on_c, 11, 62, 84
13, 420599, Note_on_c, 11, 62, 0
13, 420600, Note_on_c, 11, 61, 84
13, 420719, Note_on_c, 11, 61, 0
13, 420720, Note_on_c, 11, 62, 84
13, 420839, Note_on_c, 11, 62, 0
13, 420840, Note_on_c, 11, 61, 84
13, 420929, Note_on_c, 11, 61, 0
13, 420960, Note_on_c, 11, 62, 84
13, 421079, Note_on_c, 11, 62, 0
13, 421080, Note_on_c, 11, 61, 84
13, 421199, Note_on_c, 11, 61, 0
13, 421200, Note_on_c, 11, 62, 84
13, 421319, Note_on_c, 11, 62, 0
13, 421320, Note_on_c, 11, 61, 84
13, 421439, Note_on_c, 11, 61, 0
13, 421440, Note_on_c, 11, 62, 84
13, 421559, Note_on_c, 11, 62, 0
13, 421560, Note_on_c, 11, 61, 84
13, 421679, Note_on_c, 11, 61, 0
13, 421680, Note_on_c, 11, 62, 84
13, 421799, Note_on_c, 11, 62, 0
13, 421800, Note_on_c, 11, 61, 84
13, 421889, Note_on_c, 11, 61, 0
13, 421920, Note_on_c, 11, 62, 84
13, 422159, Note_on_c, 11, 62, 0
13, 422880, Note_on_c, 11, 62, 84
13, 422880, Note_on_c, 11, 86, 84
13, 422880, Note_on_c, 11, 78, 84
13, 423119, Note_on_c, 11, 62, 0
13, 423119, Note_on_c, 11, 86, 0
13, 423119, Note_on_c, 11, 78, 0
13, 423360, Note_on_c, 11, 86, 84
13, 423360, Note_on_c, 11, 62, 84
13, 423360, Note_on_c, 11, 78, 84
13, 423599, Note_on_c, 11, 86, 0
13, 423599, Note_on_c, 11, 62, 0
13, 423599, Note_on_c, 11, 78, 0
13, 423840, Note_on_c, 11, 86, 84
13, 423840, Note_on_c, 11, 78, 84
13, 423840, Note_on_c, 11, 62, 84
13, 424079, Note_on_c, 11, 86, 0
13, 424079, Note_on_c, 11, 78, 0
13, 424079, Note_on_c, 11, 62, 0
13, 424800, Note_on_c, 11, 78, 84
13, 424800, Note_on_c, 11, 69, 84
13, 424800, Note_on_c, 11, 62, 84
13, 425039, Note_on_c, 11, 78, 0
13, 425039, Note_on_c, 11, 69, 0
13, 425039, Note_on_c, 11, 62, 0
13, 425760, Note_on_c, 11, 62, 84
13, 425999, Note_on_c, 11, 62, 0
13, 425999, End_track
14, 0, Start_track
14, 0, Title_t, "Violin II"
14, 0, MIDI_port, 0
14, 0, Program_c, 12, 48
14, 0, Control_c, 12, 7, 96
14, 0, Control_c, 12, 10, 24
14, 0, Control_c, 12, 11, 127
14, 360, Note_on_c, 12, 66, 76
14, 479, Note_on_c, 12, 66, 0
14, 480, Note_on_c, 12, 67, 76
14, 659, Note_on_c, 12, 67, 0
14, 840, Note_on_c, 12, 61, 76
14, 929, Note_on_c, 12, 61, 0
14, 960, Note_on_c, 12, 61, 84
14, 1019, Note_on_c, 12, 61, 0
14, 1020, Note_on_c, 12, 62, 76
14, 1079, Note_on_c, 12, 62, 0
14, 1080, Note_on_c, 12, 61, 76
14, 1139, Note_on_c, 12, 61, 0
14, 1140, Note_on_c, 12, 62, 76
14, 1199, Note_on_c, 12, 62, 0
14, 1200, Note_on_c, 12, 61, 76
14, 1259, Note_on_c, 12, 61, 0
14, 1260, Note_on_c, 12, 62, 76
14, 1319, Note_on_c, 12, 62, 0
14, 1320, Note_on_c, 12, 59, 76
14, 1379, Note_on_c, 12, 59, 0
14, 1380, Note_on_c, 12, 61, 76
14, 1424, Note_on_c, 12, 61, 0
14, 1440, Note_on_c, 12, 64, 76
14, 1619, Note_on_c, 12, 64, 0
14, 1680, Note_on_c, 12, 57, 76
14, 1859, Note_on_c, 12, 57, 0
14, 2160, Note_on_c, 12, 69, 52
14, 3569, Note_on_c, 12, 69, 0
14, 3600, Note_on_c, 12, 66, 52
14, 3689, Note_on_c, 12, 66, 0
14, 3720, Note_on_c, 12, 66, 52
14, 3809, Note_on_c, 12, 66, 0
14, 3840, Note_on_c, 12, 71, 52
14, 4319, Note_on_c, 12, 71, 0
14, 4320, Note_on_c, 12, 69, 52
14, 4799, Note_on_c, 12, 69, 0
14, 4800, Note_on_c, 12, 67, 52
14, 5249, Note_on_c, 12, 67, 0
14, 5280, Note_on_c, 12, 66, 76
14, 5459, Note_on_c, 12, 66, 0
14, 5520, Note_on_c, 12, 61, 76
14, 5699, Note_on_c, 12, 61, 0
14, 6120, Note_on_c, 12, 66, 84
14, 6239, Note_on_c, 12, 66, 0
14, 6240, Note_on_c, 12, 67, 84
14, 6419, Note_on_c, 12, 67, 0
14, 6600, Note_on_c, 12, 61, 84
14, 6689, Note_on_c, 12, 61, 0
14, 6720, Note_on_c, 12, 61, 92
14, 6779, Note_on_c, 12, 61, 0
14, 6780, Note_on_c, 12, 62, 84
14, 6839, Note_on_c, 12, 62, 0
14, 6840, Note_on_c, 12, 61, 84
14, 6899, Note_on_c, 12, 61, 0
14, 6900, Note_on_c, 12, 62, 84
14, 6959, Note_on_c, 12, 62, 0
14, 6960, Note_on_c, 12, 61, 84
14, 7019, Note_on_c, 12, 61, 0
14, 7020, Note_on_c, 12, 62, 84
14, 7079, Note_on_c, 12, 62, 0
14, 7080, Note_on_c, 12, 59, 84
14, 7139, Note_on_c, 12, 59, 0
14, 7140, Note_on_c, 12, 61, 84
14, 7184, Note_on_c, 12, 61, 0
14, 7200, Note_on_c, 12, 64, 84
14, 7379, Note_on_c, 12, 64, 0
14, 7440, Note_on_c, 12, 57, 84
14, 7619, Note_on_c, 12, 57, 0
14, 7920, Note_on_c, 12, 69, 52
14, 9329, Note_on_c, 12, 69, 0
14, 9360, Note_on_c, 12, 66, 52
14, 9449, Note_on_c, 12, 66, 0
14, 9480, Note_on_c, 12, 66, 52
14, 9569, Note_on_c, 12, 66, 0
14, 9600, Note_on_c, 12, 71, 52
14, 10079, Note_on_c, 12, 71, 0
14, 10080, Note_on_c, 12, 69, 52
14, 10559, Note_on_c, 12, 69, 0
14, 10560, Note_on_c, 12, 67, 52
14, 11009, Note_on_c, 12, 67, 0
14, 11040, Note_on_c, 12, 66, 76
14, 11279, Note_on_c, 12, 66, 0
14, 11880, Note_on_c, 12, 62, 76
14, 11969, Note_on_c, 12, 62, 0
14, 12000, Note_on_c, 12, 64, 76
14, 12179, Note_on_c, 12, 64, 0
14, 12240, Note_on_c, 12, 66, 76
14, 12419, Note_on_c, 12, 66, 0
14, 12480, Note_on_c, 12, 67, 76
14, 12659, Note_on_c, 12, 67, 0
14, 12720, Note_on_c, 12, 65, 76
14, 12899, Note_on_c, 12, 65, 0
14, 12960, Note_on_c, 12, 66, 76
14, 13199, Note_on_c, 12, 66, 0
14, 13800, Note_on_c, 12, 66, 76
14, 13889, Note_on_c, 12, 66, 0
14, 13920, Note_on_c, 12, 67, 76
14, 14099, Note_on_c, 12, 67, 0
14, 14160, Note_on_c, 12, 57, 76
14, 14339, Note_on_c, 12, 57, 0
14, 14400, Note_on_c, 12, 59, 76
14, 14579, Note_on_c, 12, 59, 0
14, 14640, Note_on_c, 12, 61, 76
14, 14819, Note_on_c, 12, 61, 0
14, 14880, Note_on_c, 12, 62, 84
14, 15119, Note_on_c, 12, 62, 0
14, 15600, Note_on_c, 12, 62, 76
14, 15689, Note_on_c, 12, 62, 0
14, 15720, Note_on_c, 12, 62, 76
14, 15809, Note_on_c, 12, 62, 0
14, 15840, Note_on_c, 12, 64, 76
14, 15929, Note_on_c, 12, 64, 0
14, 15960, Note_on_c, 12, 64, 76
14, 16049, Note_on_c, 12, 64, 0
14, 16080, Note_on_c, 12, 66, 76
14, 16169, Note_on_c, 12, 66, 0
14, 16200, Note_on_c, 12, 66, 76
14, 16289, Note_on_c, 12, 66, 0
14, 16320, Note_on_c, 12, 67, 76
14, 16409, Note_on_c, 12, 67, 0
14, 16440, Note_on_c, 12, 67, 76
14, 16529, Note_on_c, 12, 67, 0
14, 16560, Note_on_c, 12, 65, 76
14, 16649, Note_on_c, 12, 65, 0
14, 16680, Note_on_c, 12, 65, 76
14, 16769, Note_on_c, 12, 65, 0
14, 16800, Note_on_c, 12, 66, 84
14, 17039, Note_on_c, 12, 66, 0
14, 17520, Note_on_c, 12, 66, 76
14, 17609, Note_on_c, 12, 66, 0
14, 17640, Note_on_c, 12, 66, 76
14, 17729, Note_on_c, 12, 66, 0
14, 17760, Note_on_c, 12, 67, 76
14, 17849, Note_on_c, 12, 67, 0
14, 17880, Note_on_c, 12, 67, 76
14, 17969, Note_on_c, 12, 67, 0
14, 18000, Note_on_c, 12, 66, 76
14, 18089, Note_on_c, 12, 66, 0
14, 18120, Note_on_c, 12, 66, 76
14, 18209, Note_on_c, 12, 66, 0
14, 18240, Note_on_c, 12, 67, 76
14, 18329, Note_on_c, 12, 67, 0
14, 18360, Note_on_c, 12, 67, 76
14, 18449, Note_on_c, 12, 67, 0
14, 18480, Note_on_c, 12, 68, 76
14, 18569, Note_on_c, 12, 68, 0
14, 18600, Note_on_c, 12, 68, 76
14, 18689, Note_on_c, 12, 68, 0
14, 18720, Note_on_c, 12, 69, 84
14, 18809, Note_on_c, 12, 69, 0
14, 18840, Note_on_c, 12, 64, 84
14, 18929, Note_on_c, 12, 64, 0
14, 18960, Note_on_c, 12, 64, 84
14, 19049, Note_on_c, 12, 64, 0
14, 19080, Note_on_c, 12, 64, 84
14, 19169, Note_on_c, 12, 64, 0
14, 19200, Note_on_c, 12, 67, 84
14, 19289, Note_on_c, 12, 67, 0
14, 19320, Note_on_c, 12, 67, 84
14, 19409, Note_on_c, 12, 67, 0
14, 19440, Note_on_c, 12, 67, 84
14, 19529, Note_on_c, 12, 67, 0
14, 19560, Note_on_c, 12, 67, 84
14, 19649, Note_on_c, 12, 67, 0
14, 19680, Note_on_c, 12, 66, 84
14, 19769, Note_on_c, 12, 66, 0
14, 19800, Note_on_c, 12, 66, 84
14, 19889, Note_on_c, 12, 66, 0
14, 19920, Note_on_c, 12, 66, 84
14, 20009, Note_on_c, 12, 66, 0
14, 20040, Note_on_c, 12, 66, 84
14, 20129, Note_on_c, 12, 66, 0
14, 20160, Note_on_c, 12, 65, 84
14, 20249, Note_on_c, 12, 65, 0
14, 20280, Note_on_c, 12, 65, 84
14, 20369, Note_on_c, 12, 65, 0
14, 20400, Note_on_c, 12, 65, 84
14, 20489, Note_on_c, 12, 65, 0
14, 20520, Note_on_c, 12, 65, 84
14, 20609, Note_on_c, 12, 65, 0
14, 20640, Note_on_c, 12, 64, 84
14, 20729, Note_on_c, 12, 64, 0
14, 20760, Note_on_c, 12, 76, 84
14, 20849, Note_on_c, 12, 76, 0
14, 20880, Note_on_c, 12, 76, 84
14, 20969, Note_on_c, 12, 76, 0
14, 21000, Note_on_c, 12, 76, 84
14, 21089, Note_on_c, 12, 76, 0
14, 21120, Note_on_c, 12, 79, 84
14, 21209, Note_on_c, 12, 79, 0
14, 21240, Note_on_c, 12, 79, 84
14, 21329, Note_on_c, 12, 79, 0
14, 21360, Note_on_c, 12, 79, 84
14, 21449, Note_on_c, 12, 79, 0
14, 21480, Note_on_c, 12, 79, 84
14, 21569, Note_on_c, 12, 79, 0
14, 21600, Note_on_c, 12, 78, 84
14, 21689, Note_on_c, 12, 78, 0
14, 21720, Note_on_c, 12, 78, 84
14, 21809, Note_on_c, 12, 78, 0
14, 21840, Note_on_c, 12, 78, 84
14, 21929, Note_on_c, 12, 78, 0
14, 21960, Note_on_c, 12, 78, 84
14, 22049, Note_on_c, 12, 78, 0
14, 22080, Note_on_c, 12, 77, 84
14, 22169, Note_on_c, 12, 77, 0
14, 22200, Note_on_c, 12, 77, 84
14, 22289, Note_on_c, 12, 77, 0
14, 22320, Note_on_c, 12, 77, 84
14, 22409, Note_on_c, 12, 77, 0
14, 22440, Note_on_c, 12, 77, 84
14, 22529, Note_on_c, 12, 77, 0
14, 22560, Note_on_c, 12, 76, 84
14, 22769, Note_on_c, 12, 76, 0
14, 22800, Note_on_c, 12, 57, 84
14, 23009, Note_on_c, 12, 57, 0
14, 23040, Note_on_c, 12, 57, 84
14, 23249, Note_on_c, 12, 57, 0
14, 23280, Note_on_c, 12, 57, 84
14, 23489, Note_on_c, 12, 57, 0
14, 23520, Note_on_c, 12, 57, 84
14, 23759, Note_on_c, 12, 57, 0
14, 25440, Note_on_c, 12, 61, 52
14, 25919, Note_on_c, 12, 61, 0
14, 25920, Note_on_c, 12, 62, 52
14, 26159, Note_on_c, 12, 62, 0
14, 26160, Note_on_c, 12, 64, 52
14, 26369, Note_on_c, 12, 64, 0
14, 26400, Note_on_c, 12, 66, 52
14, 27329, Note_on_c, 12, 66, 0
14, 27360, Note_on_c, 12, 61, 52
14, 27839, Note_on_c, 12, 61, 0
14, 27840, Note_on_c, 12, 62, 52
14, 28079, Note_on_c, 12, 62, 0
14, 28080, Note_on_c, 12, 64, 52
14, 28289, Note_on_c, 12, 64, 0
14, 28320, Note_on_c, 12, 66, 52
14, 29249, Note_on_c, 12, 66, 0
14, 29280, Note_on_c, 12, 74, 52
14, 30479, Note_on_c, 12, 74, 0
14, 30480, Note_on_c, 12, 73, 52
14, 30719, Note_on_c, 12, 73, 0
14, 30720, Note_on_c, 12, 71, 52
14, 30959, Note_on_c, 12, 71, 0
14, 30960, Note_on_c, 12, 69, 52
14, 31169, Note_on_c, 12, 69, 0
14, 31200, Note_on_c, 12, 69, 52
14, 31439, Note_on_c, 12, 69, 0
14, 31440, Note_on_c, 12, 68, 52
14, 31679, Note_on_c, 12, 68, 0
14, 31680, Note_on_c, 12, 66, 52
14, 31919, Note_on_c, 12, 66, 0
14, 31920, Note_on_c, 12, 64, 52
14, 32129, Note_on_c, 12, 64, 0
14, 32160, Note_on_c, 12, 69, 52
14, 32849, Note_on_c, 12, 69, 0
14, 32880, Note_on_c, 12, 69, 52
14, 33089, Note_on_c, 12, 69, 0
14, 33120, Note_on_c, 12, 69, 52
14, 33359, Note_on_c, 12, 69, 0
14, 33360, Note_on_c, 12, 68, 52
14, 33599, Note_on_c, 12, 68, 0
14, 33600, Note_on_c, 12, 66, 52
14, 33839, Note_on_c, 12, 66, 0
14, 33840, Note_on_c, 12, 64, 52
14, 34049, Note_on_c, 12, 64, 0
14, 34080, Note_on_c, 12, 69, 52
14, 34259, Note_on_c, 12, 69, 0
14, 34320, Control_c, 12, 11, 96
14, 34560, Note_on_c, 12, 57, 68
14, 34680, Control_c, 12, 11, 99
14, 34800, Control_c, 12, 11, 101
14, 34920, Control_c, 12, 11, 104
14, 35040, Control_c, 12, 11, 106
14, 35160, Control_c, 12, 11, 109
14, 35280, Control_c, 12, 11, 112
14, 35400, Control_c, 12, 11, 114
14, 35489, Note_on_c, 12, 57, 0
14, 35520, Control_c, 12, 11, 117
14, 35520, Note_on_c, 12, 57, 68
14, 35640, Control_c, 12, 11, 119
14, 35760, Control_c, 12, 11, 122
14, 35880, Control_c, 12, 11, 124
14, 36000, Control_c, 12, 11, 96
14, 36239, Note_on_c, 12, 57, 0
14, 36720, Control_c, 12, 11, 127
14, 36960, Note_on_c, 12, 64, 52
14, 37199, Note_on_c, 12, 64, 0
14, 37920, Note_on_c, 12, 62, 52
14, 38159, Note_on_c, 12, 62, 0
14, 38880, Note_on_c, 12, 64, 52
14, 39119, Note_on_c, 12, 64, 0
14, 39600, Control_c, 12, 11, 80
14, 39840, Control_c, 12, 11, 80
14, 39840, Note_on_c, 12, 62, 76
14, 40000, Control_c, 12, 11, 84
14, 40049, Note_on_c, 12, 62, 0
14, 40080, Note_on_c, 12, 57, 76
14, 40160, Control_c, 12, 11, 88
14, 40320, Control_c, 12, 11, 92
14, 40480, Control_c, 12, 11, 96
14, 40559, Note_on_c, 12, 57, 0
14, 40560, Note_on_c, 12, 58, 76
14, 40640, Control_c, 12, 11, 100
14, 40799, Note_on_c, 12, 58, 0
14, 40800, Control_c, 12, 11, 104
14, 40800, Note_on_c, 12, 59, 76
14, 40960, Control_c, 12, 11, 107
14, 41039, Note_on_c, 12, 59, 0
14, 41040, Note_on_c, 12, 61, 76
14, 41120, Control_c, 12, 11, 111
14, 41279, Note_on_c, 12, 61, 0
14, 41280, Note_on_c, 12, 62, 76
14, 41280, Control_c, 12, 11, 115
14, 41440, Control_c, 12, 11, 119
14, 41519, Note_on_c, 12, 62, 0
14, 41520, Note_on_c, 12, 66, 76
14, 41600, Control_c, 12, 11, 123
14, 41729, Note_on_c, 12, 66, 0
14, 41760, Control_c, 12, 11, 127
14, 41760, Note_on_c, 12, 64, 76
14, 41849, Note_on_c, 12, 64, 0
14, 41880, Note_on_c, 12, 68, 76
14, 41969, Note_on_c, 12, 68, 0
14, 42000, Note_on_c, 12, 68, 76
14, 42089, Note_on_c, 12, 68, 0
14, 42120, Note_on_c, 12, 68, 76
14, 42209, Note_on_c, 12, 68, 0
14, 42240, Note_on_c, 12, 68, 76
14, 42329, Note_on_c, 12, 68, 0
14, 42360, Note_on_c, 12, 68, 76
14, 42449, Note_on_c, 12, 68, 0
14, 42480, Note_on_c, 12, 68, 76
14, 42569, Note_on_c, 12, 68, 0
14, 42600, Note_on_c, 12, 68, 76
14, 42689, Note_on_c, 12, 68, 0
14, 42720, Note_on_c, 12, 68, 84
14, 42809, Note_on_c, 12, 68, 0
14, 42840, Note_on_c, 12, 68, 76
14, 42929, Note_on_c, 12, 68, 0
14, 42960, Note_on_c, 12, 71, 76
14, 43049, Note_on_c, 12, 71, 0
14, 43080, Note_on_c, 12, 71, 76
14, 43169, Note_on_c, 12, 71, 0
14, 43200, Note_on_c, 12, 76, 76
14, 43289, Note_on_c, 12, 76, 0
14, 43320, Note_on_c, 12, 76, 76
14, 43409, Note_on_c, 12, 76, 0
14, 43440, Note_on_c, 12, 80, 76
14, 43529, Note_on_c, 12, 80, 0
14, 43560, Note_on_c, 12, 80, 76
14, 43649, Note_on_c, 12, 80, 0
14, 43680, Note_on_c, 12, 81, 76
14, 43919, Note_on_c, 12, 81, 0
14, 44640, Note_on_c, 12, 69, 84
14, 44729, Note_on_c, 12, 69, 0
14, 44760, Note_on_c, 12, 69, 76
14, 44849, Note_on_c, 12, 69, 0
14, 44880, Note_on_c, 12, 75, 76
14, 44969, Note_on_c, 12, 75, 0
14, 45000, Note_on_c, 12, 75, 76
14, 45089, Note_on_c, 12, 75, 0
14, 45120, Note_on_c, 12, 78, 76
14, 45209, Note_on_c, 12, 78, 0
14, 45240, Note_on_c, 12, 78, 76
14, 45329, Note_on_c, 12, 78, 0
14, 45360, Note_on_c, 12, 81, 76
14, 45449, Note_on_c, 12, 81, 0
14, 45480, Note_on_c, 12, 81, 76
14, 45569, Note_on_c, 12, 81, 0
14, 45600, Note_on_c, 12, 83, 76
14, 45809, Note_on_c, 12, 83, 0
14, 45840, Note_on_c, 12, 68, 76
14, 45840, Note_on_c, 12, 71, 76
14, 45929, Note_on_c, 12, 68, 0
14, 45929, Note_on_c, 12, 71, 0
14, 45960, Note_on_c, 12, 68, 76
14, 45960, Note_on_c, 12, 71, 76
14, 46049, Note_on_c, 12, 68, 0
14, 46049, Note_on_c, 12, 71, 0
14, 46080, Note_on_c, 12, 68, 84
14, 46080, Note_on_c, 12, 71, 84
14, 46169, Note_on_c, 12, 68, 0
14, 46169, Note_on_c, 12, 71, 0
14, 46200, Note_on_c, 12, 71, 76
14, 46200, Note_on_c, 12, 68, 76
14, 46289, Note_on_c, 12, 71, 0
14, 46289, Note_on_c, 12, 68, 0
14, 46320, Note_on_c, 12, 71, 76
14, 46320, Note_on_c, 12, 68, 76
14, 46409, Note_on_c, 12, 71, 0
14, 46409, Note_on_c, 12, 68, 0
14, 46440, Note_on_c, 12, 71, 76
14, 46440, Note_on_c, 12, 68, 76
14, 46529, Note_on_c, 12, 71, 0
14, 46529, Note_on_c, 12, 68, 0
14, 46560, Note_on_c, 12, 69, 76
14, 46560, Note_on_c, 12, 73, 76
14, 46649, Note_on_c, 12, 69, 0
14, 46649, Note_on_c, 12, 73, 0
14, 46680, Note_on_c, 12, 73, 76
14, 46680, Note_on_c, 12, 69, 76
14, 46769, Note_on_c, 12, 73, 0
14, 46769, Note_on_c, 12, 69, 0
14, 46800, Note_on_c, 12, 73, 76
14, 46800, Note_on_c, 12, 69, 76
14, 46889, Note_on_c, 12, 73, 0
14, 46889, Note_on_c, 12, 69, 0
14, 46920, Note_on_c, 12, 69, 76
14, 46920, Note_on_c, 12, 73, 76
14, 47009, Note_on_c, 12, 69, 0
14, 47009, Note_on_c, 12, 73, 0
14, 47040, Note_on_c, 12, 73, 84
14, 47040, Note_on_c, 12, 69, 84
14, 47129, Note_on_c, 12, 73, 0
14, 47129, Note_on_c, 12, 69, 0
14, 47160, Note_on_c, 12, 69, 76
14, 47160, Note_on_c, 12, 73, 76
14, 47249, Note_on_c, 12, 69, 0
14, 47249, Note_on_c, 12, 73, 0
14, 47280, Note_on_c, 12, 73, 76
14, 47280, Note_on_c, 12, 69, 76
14, 47369, Note_on_c, 12, 73, 0
14, 47369, Note_on_c, 12, 69, 0
14, 47400, Note_on_c, 12, 69, 76
14, 47400, Note_on_c, 12, 73, 76
14, 47489, Note_on_c, 12, 69, 0
14, 47489, Note_on_c, 12, 73, 0
14, 47520, Note_on_c, 12, 74, 76
14, 47759, Note_on_c, 12, 74, 0
14, 49680, Note_on_c, 12, 73, 52
14, 49859, Note_on_c, 12, 73, 0
14, 49920, Note_on_c, 12, 69, 52
14, 50099, Note_on_c, 12, 69, 0
14, 50160, Note_on_c, 12, 73, 52
14, 50339, Note_on_c, 12, 73, 0
14, 50640, Note_on_c, 12, 73, 52
14, 50819, Note_on_c, 12, 73, 0
14, 50880, Note_on_c, 12, 69, 52
14, 51059, Note_on_c, 12, 69, 0
14, 51120, Note_on_c, 12, 73, 52
14, 51299, Note_on_c, 12, 73, 0
14, 51600, Note_on_c, 12, 74, 52
14, 51779, Note_on_c, 12, 74, 0
14, 51840, Note_on_c, 12, 71, 52
14, 52019, Note_on_c, 12, 71, 0
14, 52080, Note_on_c, 12, 74, 52
14, 52259, Note_on_c, 12, 74, 0
14, 52560, Note_on_c, 12, 74, 68
14, 52739, Note_on_c, 12, 74, 0
14, 52800, Note_on_c, 12, 71, 52
14, 52979, Note_on_c, 12, 71, 0
14, 53040, Note_on_c, 12, 74, 52
14, 53219, Note_on_c, 12, 74, 0
14, 53280, Note_on_c, 12, 73, 52
14, 53459, Note_on_c, 12, 73, 0
14, 53520, Note_on_c, 12, 73, 52
14, 53699, Note_on_c, 12, 73, 0
14, 53760, Note_on_c, 12, 69, 52
14, 53939, Note_on_c, 12, 69, 0
14, 54000, Note_on_c, 12, 73, 52
14, 54179, Note_on_c, 12, 73, 0
14, 54480, Note_on_c, 12, 73, 52
14, 54659, Note_on_c, 12, 73, 0
14, 54720, Note_on_c, 12, 69, 52
14, 54899, Note_on_c, 12, 69, 0
14, 54960, Note_on_c, 12, 73, 52
14, 55139, Note_on_c, 12, 73, 0
14, 55440, Note_on_c, 12, 74, 52
14, 55619, Note_on_c, 12, 74, 0
14, 55680, Note_on_c, 12, 71, 52
14, 55859, Note_on_c, 12, 71, 0
14, 55920, Note_on_c, 12, 74, 52
14, 56099, Note_on_c, 12, 74, 0
14, 56400, Note_on_c, 12, 74, 68
14, 56579, Note_on_c, 12, 74, 0
14, 56640, Note_on_c, 12, 71, 52
14, 56819, Note_on_c, 12, 71, 0
14, 56880, Note_on_c, 12, 74, 52
14, 57059, Note_on_c, 12, 74, 0
14, 57105, Control_c, 12, 11, 96
14, 57120, Note_on_c, 12, 73, 68
14, 57299, Note_on_c, 12, 73, 0
14, 57360, Note_on_c, 12, 73, 68
14, 57360, Control_c, 12, 11, 99
14, 57539, Note_on_c, 12, 73, 0
14, 57600, Control_c, 12, 11, 101
14, 57600, Note_on_c, 12, 69, 68
14, 57779, Note_on_c, 12, 69, 0
14, 57840, Note_on_c, 12, 73, 68
14, 57840, Control_c, 12, 11, 104
14, 58019, Note_on_c, 12, 73, 0
14, 58080, Control_c, 12, 11, 106
14, 58320, Control_c, 12, 11, 109
14, 58320, Note_on_c, 12, 73, 68
14, 58499, Note_on_c, 12, 73, 0
14, 58560, Control_c, 12, 11, 112
14, 58560, Note_on_c, 12, 70, 68
14, 58739, Note_on_c, 12, 70, 0
14, 58800, Note_on_c, 12, 73, 68
14, 58800, Control_c, 12, 11, 114
14, 58979, Note_on_c, 12, 73, 0
14, 59040, Control_c, 12, 11, 117
14, 59280, Control_c, 12, 11, 119
14, 59280, Note_on_c, 12, 74, 68
14, 59459, Note_on_c, 12, 74, 0
14, 59520, Control_c, 12, 11, 122
14, 59520, Note_on_c, 12, 71, 68
14, 59699, Note_on_c, 12, 71, 0
14, 59760, Note_on_c, 12, 74, 68
14, 59760, Control_c, 12, 11, 124
14, 59939, Note_on_c, 12, 74, 0
14, 60000, Control_c, 12, 11, 127
14, 60240, Note_on_c, 12, 76, 76
14, 60419, Note_on_c, 12, 76, 0
14, 60480, Note_on_c, 12, 73, 68
14, 60659, Note_on_c, 12, 73, 0
14, 60720, Note_on_c, 12, 76, 68
14, 60899, Note_on_c, 12, 76, 0
14, 60960, Control_c, 12, 11, 127
14, 61040, Control_c, 12, 11, 124
14, 61120, Control_c, 12, 11, 122
14, 61200, Note_on_c, 12, 78, 68
14, 61200, Control_c, 12, 11, 119
14, 61280, Control_c, 12, 11, 117
14, 61360, Control_c, 12, 11, 114
14, 61379, Note_on_c, 12, 78, 0
14, 61440, Note_on_c, 12, 74, 68
14, 61440, Control_c, 12, 11, 112
14, 61520, Control_c, 12, 11, 109
14, 61600, Control_c, 12, 11, 106
14, 61619, Note_on_c, 12, 74, 0
14, 61680, Note_on_c, 12, 78, 68
14, 61680, Control_c, 12, 11, 104
14, 61760, Control_c, 12, 11, 101
14, 61840, Control_c, 12, 11, 99
14, 61859, Note_on_c, 12, 78, 0
14, 61920, Control_c, 12, 11, 96
14, 62160, Note_on_c, 12, 74, 68
14, 62339, Note_on_c, 12, 74, 0
14, 62400, Note_on_c, 12, 71, 68
14, 62579, Note_on_c, 12, 71, 0
14, 62640, Note_on_c, 12, 74, 68
14, 62819, Note_on_c, 12, 74, 0
14, 63105, Control_c, 12, 11, 127
14, 63120, Note_on_c, 12, 73, 52
14, 63299, Note_on_c, 12, 73, 0
14, 63360, Note_on_c, 12, 69, 52
14, 63539, Note_on_c, 12, 69, 0
14, 63600, Note_on_c, 12, 73, 52
14, 63779, Note_on_c, 12, 73, 0
14, 64080, Note_on_c, 12, 71, 52
14, 64259, Note_on_c, 12, 71, 0
14, 64320, Note_on_c, 12, 68, 52
14, 64499, Note_on_c, 12, 68, 0
14, 64560, Note_on_c, 12, 71, 52
14, 64739, Note_on_c, 12, 71, 0
14, 64800, Note_on_c, 12, 72, 52
14, 64979, Note_on_c, 12, 72, 0
14, 65040, Note_on_c, 12, 72, 52
14, 65219, Note_on_c, 12, 72, 0
14, 65280, Note_on_c, 12, 69, 52
14, 65459, Note_on_c, 12, 69, 0
14, 65520, Note_on_c, 12, 72, 52
14, 65699, Note_on_c, 12, 72, 0
14, 66000, Note_on_c, 12, 72, 52
14, 66179, Note_on_c, 12, 72, 0
14, 66240, Note_on_c, 12, 69, 52
14, 66419, Note_on_c, 12, 69, 0
14, 66480, Note_on_c, 12, 72, 52
14, 66659, Note_on_c, 12, 72, 0
14, 66960, Note_on_c, 12, 74, 52
14, 67139, Note_on_c, 12, 74, 0
14, 67200, Note_on_c, 12, 71, 52
14, 67379, Note_on_c, 12, 71, 0
14, 67440, Note_on_c, 12, 74, 52
14, 67619, Note_on_c, 12, 74, 0
14, 67920, Note_on_c, 12, 74, 68
14, 68099, Note_on_c, 12, 74, 0
14, 68160, Note_on_c, 12, 71, 52
14, 68339, Note_on_c, 12, 71, 0
14, 68400, Note_on_c, 12, 74, 52
14, 68579, Note_on_c, 12, 74, 0
14, 68625, Control_c, 12, 11, 96
14, 68640, Note_on_c, 12, 72, 68
14, 68819, Note_on_c, 12, 72, 0
14, 68880, Note_on_c, 12, 72, 68
14, 68960, Control_c, 12, 11, 99
14, 69059, Note_on_c, 12, 72, 0
14, 69120, Note_on_c, 12, 69, 68
14, 69280, Control_c, 12, 11, 101
14, 69299, Note_on_c, 12, 69, 0
14, 69360, Note_on_c, 12, 72, 68
14, 69539, Note_on_c, 12, 72, 0
14, 69600, Control_c, 12, 11, 104
14, 69840, Note_on_c, 12, 72, 68
14, 69920, Control_c, 12, 11, 106
14, 70019, Note_on_c, 12, 72, 0
14, 70080, Note_on_c, 12, 69, 68
14, 70240, Control_c, 12, 11, 109
14, 70259, Note_on_c, 12, 69, 0
14, 70320, Note_on_c, 12, 72, 68
14, 70499, Note_on_c, 12, 72, 0
14, 70560, Control_c, 12, 11, 112
14, 70800, Note_on_c, 12, 74, 68
14, 70880, Control_c, 12, 11, 114
14, 70979, Note_on_c, 12, 74, 0
14, 71040, Note_on_c, 12, 71, 68
14, 71200, Control_c, 12, 11, 117
14, 71219, Note_on_c, 12, 71, 0
14, 71280, Note_on_c, 12, 74, 68
14, 71459, Note_on_c, 12, 74, 0
14, 71520, Control_c, 12, 11, 119
14, 71760, Note_on_c, 12, 74, 68
14, 71840, Control_c, 12, 11, 122
14, 71939, Note_on_c, 12, 74, 0
14, 72000, Note_on_c, 12, 71, 68
14, 72160, Control_c, 12, 11, 124
14, 72179, Note_on_c, 12, 71, 0
14, 72240, Note_on_c, 12, 74, 68
14, 72419, Note_on_c, 12, 74, 0
14, 72480, Control_c, 12, 11, 127
14, 72720, Note_on_c, 12, 76, 52
14, 72899, Note_on_c, 12, 76, 0
14, 72960, Note_on_c, 12, 72, 52
14, 73139, Note_on_c, 12, 72, 0
14, 73200, Note_on_c, 12, 76, 52
14, 73379, Note_on_c, 12, 76, 0
14, 73680, Note_on_c, 12, 69, 52
14, 73859, Note_on_c, 12, 69, 0
14, 73920, Note_on_c, 12, 65, 52
14, 74099, Note_on_c, 12, 65, 0
14, 74160, Note_on_c, 12, 69, 52
14, 74339, Note_on_c, 12, 69, 0
14, 74640, Note_on_c, 12, 67, 52
14, 74819, Note_on_c, 12, 67, 0
14, 74880, Note_on_c, 12, 64, 52
14, 75059, Note_on_c, 12, 64, 0
14, 75120, Note_on_c, 12, 67, 52
14, 75299, Note_on_c, 12, 67, 0
14, 75600, Note_on_c, 12, 65, 52
14, 75779, Note_on_c, 12, 65, 0
14, 75840, Note_on_c, 12, 62, 52
14, 76019, Note_on_c, 12, 62, 0
14, 76080, Note_on_c, 12, 65, 52
14, 76259, Note_on_c, 12, 65, 0
14, 76320, Control_c, 12, 11, 80
14, 76560, Note_on_c, 12, 72, 76
14, 76640, Control_c, 12, 11, 84
14, 76739, Note_on_c, 12, 72, 0
14, 76800, Note_on_c, 12, 69, 76
14, 76960, Control_c, 12, 11, 88
14, 76979, Note_on_c, 12, 69, 0
14, 77040, Note_on_c, 12, 72, 76
14, 77219, Note_on_c, 12, 72, 0
14, 77280, Control_c, 12, 11, 92
14, 77520, Note_on_c, 12, 70, 76
14, 77600, Control_c, 12, 11, 96
14, 77699, Note_on_c, 12, 70, 0
14, 77760, Note_on_c, 12, 65, 76
14, 77920, Control_c, 12, 11, 100
14, 77939, Note_on_c, 12, 65, 0
14, 78000, Note_on_c, 12, 70, 76
14, 78179, Note_on_c, 12, 70, 0
14, 78240, Control_c, 12, 11, 104
14, 78480, Note_on_c, 12, 69, 76
14, 78560, Control_c, 12, 11, 107
14, 78659, Note_on_c, 12, 69, 0
14, 78720, Note_on_c, 12, 64, 76
14, 78880, Control_c, 12, 11, 111
14, 78899, Note_on_c, 12, 64, 0
14, 78960, Note_on_c, 12, 69, 76
14, 79139, Note_on_c, 12, 69, 0
14, 79200, Control_c, 12, 11, 115
14, 79440, Note_on_c, 12, 68, 76
14, 79520, Control_c, 12, 11, 119
14, 79619, Note_on_c, 12, 68, 0
14, 79680, Note_on_c, 12, 64, 76
14, 79840, Control_c, 12, 11, 127
14, 79859, Note_on_c, 12, 64, 0
14, 79920, Note_on_c, 12, 68, 76
14, 80099, Note_on_c, 12, 68, 0
14, 80160, Note_on_c, 12, 64, 76
14, 80249, Note_on_c, 12, 64, 0
14, 80280, Note_on_c, 12, 64, 76
14, 80369, Note_on_c, 12, 64, 0
14, 80400, Note_on_c, 12, 64, 76
14, 80489, Note_on_c, 12, 64, 0
14, 80520, Note_on_c, 12, 64, 76
14, 80609, Note_on_c, 12, 64, 0
14, 80640, Note_on_c, 12, 64, 76
14, 80729, Note_on_c, 12, 64, 0
14, 80760, Note_on_c, 12, 64, 76
14, 80849, Note_on_c, 12, 64, 0
14, 80880, Note_on_c, 12, 64, 76
14, 80969, Note_on_c, 12, 64, 0
14, 81000, Note_on_c, 12, 64, 76
14, 81089, Note_on_c, 12, 64, 0
14, 81120, Note_on_c, 12, 61, 76
14, 81209, Note_on_c, 12, 61, 0
14, 81240, Note_on_c, 12, 61, 76
14, 81329, Note_on_c, 12, 61, 0
14, 81360, Note_on_c, 12, 61, 76
14, 81449, Note_on_c, 12, 61, 0
14, 81480, Note_on_c, 12, 61, 76
14, 81569, Note_on_c, 12, 61, 0
14, 81600, Note_on_c, 12, 61, 76
14, 81689, Note_on_c, 12, 61, 0
14, 81720, Note_on_c, 12, 61, 76
14, 81809, Note_on_c, 12, 61, 0
14, 81840, Note_on_c, 12, 57, 76
14, 81929, Note_on_c, 12, 57, 0
14, 81960, Note_on_c, 12, 57, 76
14, 82049, Note_on_c, 12, 57, 0
14, 82080, Note_on_c, 12, 66, 84
14, 82169, Note_on_c, 12, 66, 0
14, 82200, Note_on_c, 12, 66, 76
14, 82289, Note_on_c, 12, 66, 0
14, 82320, Note_on_c, 12, 66, 76
14, 82409, Note_on_c, 12, 66, 0
14, 82440, Note_on_c, 12, 66, 76
14, 82529, Note_on_c, 12, 66, 0
14, 82560, Note_on_c, 12, 66, 76
14, 82649, Note_on_c, 12, 66, 0
14, 82680, Note_on_c, 12, 66, 76
14, 82769, Note_on_c, 12, 66, 0
14, 82800, Note_on_c, 12, 66, 76
14, 82889, Note_on_c, 12, 66, 0
14, 82920, Note_on_c, 12, 66, 76
14, 83009, Note_on_c, 12, 66, 0
14, 83040, Note_on_c, 12, 62, 76
14, 83129, Note_on_c, 12, 62, 0
14, 83160, Note_on_c, 12, 62, 76
14, 83249, Note_on_c, 12, 62, 0
14, 83280, Note_on_c, 12, 62, 76
14, 83369, Note_on_c, 12, 62, 0
14, 83400, Note_on_c, 12, 62, 76
14, 83489, Note_on_c, 12, 62, 0
14, 83520, Note_on_c, 12, 62, 76
14, 83609, Note_on_c, 12, 62, 0
14, 83640, Note_on_c, 12, 62, 76
14, 83729, Note_on_c, 12, 62, 0
14, 83760, Note_on_c, 12, 59, 76
14, 83849, Note_on_c, 12, 59, 0
14, 83880, Note_on_c, 12, 59, 76
14, 83969, Note_on_c, 12, 59, 0
14, 84000, Note_on_c, 12, 64, 84
14, 84089, Note_on_c, 12, 64, 0
14, 84120, Note_on_c, 12, 64, 76
14, 84209, Note_on_c, 12, 64, 0
14, 84240, Note_on_c, 12, 64, 76
14, 84329, Note_on_c, 12, 64, 0
14, 84360, Note_on_c, 12, 64, 76
14, 84449, Note_on_c, 12, 64, 0
14, 84480, Note_on_c, 12, 61, 76
14, 84569, Note_on_c, 12, 61, 0
14, 84600, Note_on_c, 12, 61, 76
14, 84689, Note_on_c, 12, 61, 0
14, 84720, Note_on_c, 12, 57, 76
14, 84809, Note_on_c, 12, 57, 0
14, 84840, Note_on_c, 12, 57, 76
14, 84929, Note_on_c, 12, 57, 0
14, 84960, Note_on_c, 12, 64, 84
14, 85049, Note_on_c, 12, 64, 0
14, 85080, Note_on_c, 12, 64, 76
14, 85169, Note_on_c, 12, 64, 0
14, 85200, Note_on_c, 12, 64, 76
14, 85289, Note_on_c, 12, 64, 0
14, 85320, Note_on_c, 12, 64, 76
14, 85409, Note_on_c, 12, 64, 0
14, 85440, Note_on_c, 12, 59, 76
14, 85529, Note_on_c, 12, 59, 0
14, 85560, Note_on_c, 12, 59, 76
14, 85649, Note_on_c, 12, 59, 0
14, 85680, Note_on_c, 12, 56, 76
14, 85769, Note_on_c, 12, 56, 0
14, 85800, Note_on_c, 12, 56, 76
14, 85889, Note_on_c, 12, 56, 0
14, 85920, Note_on_c, 12, 76, 76
14, 86009, Note_on_c, 12, 76, 0
14, 86040, Note_on_c, 12, 76, 76
14, 86129, Note_on_c, 12, 76, 0
14, 86160, Note_on_c, 12, 76, 76
14, 86249, Note_on_c, 12, 76, 0
14, 86280, Note_on_c, 12, 76, 76
14, 86369, Note_on_c, 12, 76, 0
14, 86400, Note_on_c, 12, 76, 76
14, 86489, Note_on_c, 12, 76, 0
14, 86520, Note_on_c, 12, 76, 76
14, 86609, Note_on_c, 12, 76, 0
14, 86640, Note_on_c, 12, 76, 76
14, 86729, Note_on_c, 12, 76, 0
14, 86760, Note_on_c, 12, 76, 76
14, 86849, Note_on_c, 12, 76, 0
14, 86880, Note_on_c, 12, 73, 84
14, 86969, Note_on_c, 12, 73, 0
14, 87000, Note_on_c, 12, 73, 76
14, 87089, Note_on_c, 12, 73, 0
14, 87120, Note_on_c, 12, 73, 76
14, 87209, Note_on_c, 12, 73, 0
14, 87240, Note_on_c, 12, 73, 76
14, 87329, Note_on_c, 12, 73, 0
14, 87360, Note_on_c, 12, 73, 76
14, 87449, Note_on_c, 12, 73, 0
14, 87480, Note_on_c, 12, 73, 76
14, 87569, Note_on_c, 12, 73, 0
14, 87600, Note_on_c, 12, 69, 76
14, 87689, Note_on_c, 12, 69, 0
14, 87720, Note_on_c, 12, 69, 76
14, 87809, Note_on_c, 12, 69, 0
14, 87840, Note_on_c, 12, 78, 76
14, 87929, Note_on_c, 12, 78, 0
14, 87960, Note_on_c, 12, 78, 76
14, 88049, Note_on_c, 12, 78, 0
14, 88080, Note_on_c, 12, 78, 76
14, 88169, Note_on_c, 12, 78, 0
14, 88200, Note_on_c, 12, 78, 76
14, 88289, Note_on_c, 12, 78, 0
14, 88320, Note_on_c, 12, 78, 76
14, 88409, Note_on_c, 12, 78, 0
14, 88440, Note_on_c, 12, 78, 76
14, 88529, Note_on_c, 12, 78, 0
14, 88560, Note_on_c, 12, 78, 76
14, 88649, Note_on_c, 12, 78, 0
14, 88680, Note_on_c, 12, 78, 76
14, 88769, Note_on_c, 12, 78, 0
14, 88800, Note_on_c, 12, 74, 84
14, 88889, Note_on_c, 12, 74, 0
14, 88920, Note_on_c, 12, 74, 76
14, 89009, Note_on_c, 12, 74, 0
14, 89040, Note_on_c, 12, 74, 76
14, 89129, Note_on_c, 12, 74, 0
14, 89160, Note_on_c, 12, 74, 76
14, 89249, Note_on_c, 12, 74, 0
14, 89280, Note_on_c, 12, 74, 76
14, 89369, Note_on_c, 12, 74, 0
14, 89400, Note_on_c, 12, 74, 76
14, 89489, Note_on_c, 12, 74, 0
14, 89520, Note_on_c, 12, 69, 76
14, 89609, Note_on_c, 12, 69, 0
14, 89640, Note_on_c, 12, 69, 76
14, 89729, Note_on_c, 12, 69, 0
14, 89760, Note_on_c, 12, 69, 84
14, 89760, Note_on_c, 12, 79, 84
14, 89849, Note_on_c, 12, 69, 0
14, 89849, Note_on_c, 12, 79, 0
14, 89880, Note_on_c, 12, 79, 84
14, 89880, Note_on_c, 12, 69, 84
14, 89969, Note_on_c, 12, 79, 0
14, 89969, Note_on_c, 12, 69, 0
14, 90000, Note_on_c, 12, 69, 84
14, 90000, Note_on_c, 12, 79, 84
14, 90089, Note_on_c, 12, 69, 0
14, 90089, Note_on_c, 12, 79, 0
14, 90120, Note_on_c, 12, 69, 84
14, 90120, Note_on_c, 12, 79, 84
14, 90209, Note_on_c, 12, 69, 0
14, 90209, Note_on_c, 12, 79, 0
14, 90240, Note_on_c, 12, 79, 84
14, 90240, Note_on_c, 12, 69, 84
14, 90329, Note_on_c, 12, 79, 0
14, 90329, Note_on_c, 12, 69, 0
14, 90360, Note_on_c, 12, 69, 84
14, 90360, Note_on_c, 12, 79, 84
14, 90449, Note_on_c, 12, 69, 0
14, 90449, Note_on_c, 12, 79, 0
14, 90480, Note_on_c, 12, 79, 84
14, 90480, Note_on_c, 12, 69, 84
14, 90569, Note_on_c, 12, 79, 0
14, 90569, Note_on_c, 12, 69, 0
14, 90600, Note_on_c, 12, 69, 84
14, 90600, Note_on_c, 12, 79, 84
14, 90689, Note_on_c, 12, 69, 0
14, 90689, Note_on_c, 12, 79, 0
14, 90720, Note_on_c, 12, 79, 84
14, 90720, Note_on_c, 12, 69, 84
14, 90809, Note_on_c, 12, 79, 0
14, 90809, Note_on_c, 12, 69, 0
14, 90840, Note_on_c, 12, 69, 84
14, 90840, Note_on_c, 12, 79, 84
14, 90929, Note_on_c, 12, 69, 0
14, 90929, Note_on_c, 12, 79, 0
14, 90960, Note_on_c, 12, 69, 84
14, 90960, Note_on_c, 12, 79, 84
14, 91049, Note_on_c, 12, 69, 0
14, 91049, Note_on_c, 12, 79, 0
14, 91080, Note_on_c, 12, 69, 84
14, 91080, Note_on_c, 12, 79, 84
14, 91169, Note_on_c, 12, 69, 0
14, 91169, Note_on_c, 12, 79, 0
14, 91200, Note_on_c, 12, 79, 84
14, 91200, Note_on_c, 12, 69, 84
14, 91289, Note_on_c, 12, 79, 0
14, 91289, Note_on_c, 12, 69, 0
14, 91320, Note_on_c, 12, 69, 84
14, 91320, Note_on_c, 12, 79, 84
14, 91409, Note_on_c, 12, 69, 0
14, 91409, Note_on_c, 12, 79, 0
14, 91440, Note_on_c, 12, 69, 84
14, 91440, Note_on_c, 12, 79, 84
14, 91529, Note_on_c, 12, 69, 0
14, 91529, Note_on_c, 12, 79, 0
14, 91560, Note_on_c, 12, 69, 84
14, 91560, Note_on_c, 12, 79, 84
14, 91649, Note_on_c, 12, 69, 0
14, 91649, Note_on_c, 12, 79, 0
14, 91680, Note_on_c, 12, 79, 84
14, 91680, Note_on_c, 12, 69, 84
14, 91769, Note_on_c, 12, 79, 0
14, 91769, Note_on_c, 12, 69, 0
14, 91800, Note_on_c, 12, 69, 84
14, 91800, Note_on_c, 12, 79, 84
14, 91889, Note_on_c, 12, 69, 0
14, 91889, Note_on_c, 12, 79, 0
14, 91920, Note_on_c, 12, 69, 84
14, 91920, Note_on_c, 12, 79, 84
14, 92009, Note_on_c, 12, 69, 0
14, 92009, Note_on_c, 12, 79, 0
14, 92040, Note_on_c, 12, 69, 84
14, 92040, Note_on_c, 12, 79, 84
14, 92129, Note_on_c, 12, 69, 0
14, 92129, Note_on_c, 12, 79, 0
14, 92160, Note_on_c, 12, 79, 84
14, 92160, Note_on_c, 12, 69, 84
14, 92249, Note_on_c, 12, 79, 0
14, 92249, Note_on_c, 12, 69, 0
14, 92280, Note_on_c, 12, 79, 84
14, 92280, Note_on_c, 12, 69, 84
14, 92369, Note_on_c, 12, 79, 0
14, 92369, Note_on_c, 12, 69, 0
14, 92400, Note_on_c, 12, 79, 84
14, 92400, Note_on_c, 12, 69, 84
14, 92489, Note_on_c, 12, 79, 0
14, 92489, Note_on_c, 12, 69, 0
14, 92520, Note_on_c, 12, 69, 84
14, 92520, Note_on_c, 12, 79, 84
14, 92609, Note_on_c, 12, 69, 0
14, 92609, Note_on_c, 12, 79, 0
14, 92640, Note_on_c, 12, 79, 84
14, 92640, Note_on_c, 12, 69, 84
14, 92729, Note_on_c, 12, 79, 0
14, 92729, Note_on_c, 12, 69, 0
14, 92760, Note_on_c, 12, 69, 84
14, 92760, Note_on_c, 12, 79, 84
14, 92849, Note_on_c, 12, 69, 0
14, 92849, Note_on_c, 12, 79, 0
14, 92880, Note_on_c, 12, 79, 84
14, 92880, Note_on_c, 12, 69, 84
14, 92969, Note_on_c, 12, 79, 0
14, 92969, Note_on_c, 12, 69, 0
14, 93000, Note_on_c, 12, 69, 84
14, 93000, Note_on_c, 12, 79, 84
14, 93089, Note_on_c, 12, 69, 0
14, 93089, Note_on_c, 12, 79, 0
14, 93120, Note_on_c, 12, 69, 84
14, 93120, Note_on_c, 12, 79, 84
14, 93209, Note_on_c, 12, 69, 0
14, 93209, Note_on_c, 12, 79, 0
14, 93240, Note_on_c, 12, 79, 84
14, 93240, Note_on_c, 12, 69, 84
14, 93329, Note_on_c, 12, 79, 0
14, 93329, Note_on_c, 12, 69, 0
14, 93360, Note_on_c, 12, 79, 84
14, 93360, Note_on_c, 12, 69, 84
14, 93449, Note_on_c, 12, 79, 0
14, 93449, Note_on_c, 12, 69, 0
14, 93480, Note_on_c, 12, 79, 84
14, 93480, Note_on_c, 12, 69, 84
14, 93569, Note_on_c, 12, 79, 0
14, 93569, Note_on_c, 12, 69, 0
14, 93600, Note_on_c, 12, 69, 84
14, 93600, Note_on_c, 12, 79, 84
14, 93839, Note_on_c, 12, 69, 0
14, 93839, Note_on_c, 12, 79, 0
14, 95880, Note_on_c, 12, 66, 52
14, 95999, Note_on_c, 12, 66, 0
14, 96000, Note_on_c, 12, 67, 52
14, 96239, Note_on_c, 12, 67, 0
14, 96360, Note_on_c, 12, 63, 52
14, 96479, Note_on_c, 12, 63, 0
14, 96480, Note_on_c, 12, 64, 52
14, 96719, Note_on_c, 12, 64, 0
14, 96840, Note_on_c, 12, 60, 52
14, 96959, Note_on_c, 12, 60, 0
14, 96960, Note_on_c, 12, 61, 52
14, 97199, Note_on_c, 12, 61, 0
14, 97320, Note_on_c, 12, 56, 52
14, 97439, Note_on_c, 12, 56, 0
14, 97440, Note_on_c, 12, 57, 52
14, 97679, Note_on_c, 12, 57, 0
14, 98640, Note_on_c, 12, 55, 44
14, 98819, Note_on_c, 12, 55, 0
14, 98880, Note_on_c, 12, 61, 44
14, 99059, Note_on_c, 12, 61, 0
14, 99120, Note_on_c, 12, 64, 44
14, 99299, Note_on_c, 12, 64, 0
14, 99360, Note_on_c, 12, 67, 44
14, 99539, Note_on_c, 12, 67, 0
14, 103080, Note_on_c, 12, 66, 76
14, 103199, Note_on_c, 12, 66, 0
14, 103200, Note_on_c, 12, 67, 76
14, 103379, Note_on_c, 12, 67, 0
14, 103560, Note_on_c, 12, 61, 76
14, 103649, Note_on_c, 12, 61, 0
14, 103680, Note_on_c, 12, 61, 84
14, 103739, Note_on_c, 12, 61, 0
14, 103740, Note_on_c, 12, 62, 76
14, 103799, Note_on_c, 12, 62, 0
14, 103800, Note_on_c, 12, 61, 76
14, 103859, Note_on_c, 12, 61, 0
14, 103860, Note_on_c, 12, 62, 76
14, 103919, Note_on_c, 12, 62, 0
14, 103920, Note_on_c, 12, 61, 76
14, 103979, Note_on_c, 12, 61, 0
14, 103980, Note_on_c, 12, 62, 76
14, 104039, Note_on_c, 12, 62, 0
14, 104040, Note_on_c, 12, 59, 76
14, 104099, Note_on_c, 12, 59, 0
14, 104100, Note_on_c, 12, 61, 76
14, 104144, Note_on_c, 12, 61, 0
14, 104160, Note_on_c, 12, 64, 76
14, 104339, Note_on_c, 12, 64, 0
14, 104400, Note_on_c, 12, 57, 76
14, 104579, Note_on_c, 12, 57, 0
14, 104880, Note_on_c, 12, 69, 52
14, 106289, Note_on_c, 12, 69, 0
14, 106320, Note_on_c, 12, 66, 52
14, 106409, Note_on_c, 12, 66, 0
14, 106440, Note_on_c, 12, 66, 52
14, 106529, Note_on_c, 12, 66, 0
14, 106560, Note_on_c, 12, 71, 52
14, 107039, Note_on_c, 12, 71, 0
14, 107040, Note_on_c, 12, 69, 52
14, 107519, Note_on_c, 12, 69, 0
14, 107520, Note_on_c, 12, 67, 52
14, 107969, Note_on_c, 12, 67, 0
14, 108000, Note_on_c, 12, 66, 76
14, 108179, Note_on_c, 12, 66, 0
14, 108240, Note_on_c, 12, 61, 76
14, 108419, Note_on_c, 12, 61, 0
14, 108840, Note_on_c, 12, 66, 84
14, 108959, Note_on_c, 12, 66, 0
14, 108960, Note_on_c, 12, 67, 84
14, 109139, Note_on_c, 12, 67, 0
14, 109320, Note_on_c, 12, 61, 84
14, 109409, Note_on_c, 12, 61, 0
14, 109440, Note_on_c, 12, 61, 92
14, 109499, Note_on_c, 12, 61, 0
14, 109500, Note_on_c, 12, 62, 84
14, 109559, Note_on_c, 12, 62, 0
14, 109560, Note_on_c, 12, 61, 84
14, 109619, Note_on_c, 12, 61, 0
14, 109620, Note_on_c, 12, 62, 84
14, 109679, Note_on_c, 12, 62, 0
14, 109680, Note_on_c, 12, 61, 84
14, 109739, Note_on_c, 12, 61, 0
14, 109740, Note_on_c, 12, 62, 84
14, 109799, Note_on_c, 12, 62, 0
14, 109800, Note_on_c, 12, 59, 84
14, 109859, Note_on_c, 12, 59, 0
14, 109860, Note_on_c, 12, 61, 84
14, 109904, Note_on_c, 12, 61, 0
14, 109920, Note_on_c, 12, 64, 84
14, 110099, Note_on_c, 12, 64, 0
14, 110160, Note_on_c, 12, 57, 84
14, 110339, Note_on_c, 12, 57, 0
14, 110640, Note_on_c, 12, 69, 52
14, 112049, Note_on_c, 12, 69, 0
14, 112080, Note_on_c, 12, 65, 52
14, 112169, Note_on_c, 12, 65, 0
14, 112200, Note_on_c, 12, 65, 52
14, 112289, Note_on_c, 12, 65, 0
14, 112320, Note_on_c, 12, 70, 52
14, 112799, Note_on_c, 12, 70, 0
14, 112800, Note_on_c, 12, 69, 52
14, 113279, Note_on_c, 12, 69, 0
14, 113280, Note_on_c, 12, 67, 52
14, 113729, Note_on_c, 12, 67, 0
14, 113760, Note_on_c, 12, 65, 76
14, 113849, Note_on_c, 12, 65, 0
14, 113880, Note_on_c, 12, 57, 76
14, 113969, Note_on_c, 12, 57, 0
14, 114000, Note_on_c, 12, 57, 76
14, 114089, Note_on_c, 12, 57, 0
14, 114120, Note_on_c, 12, 57, 76
14, 114209, Note_on_c, 12, 57, 0
14, 114240, Note_on_c, 12, 57, 76
14, 114329, Note_on_c, 12, 57, 0
14, 114360, Note_on_c, 12, 57, 76
14, 114449, Note_on_c, 12, 57, 0
14, 114480, Note_on_c, 12, 57, 76
14, 114569, Note_on_c, 12, 57, 0
14, 114600, Note_on_c, 12, 57, 76
14, 114689, Note_on_c, 12, 57, 0
14, 114720, Note_on_c, 12, 57, 76
14, 114809, Note_on_c, 12, 57, 0
14, 114840, Note_on_c, 12, 57, 76
14, 114929, Note_on_c, 12, 57, 0
14, 114960, Note_on_c, 12, 57, 76
14, 115049, Note_on_c, 12, 57, 0
14, 115080, Note_on_c, 12, 57, 76
14, 115169, Note_on_c, 12, 57, 0
14, 115200, Note_on_c, 12, 57, 76
14, 115289, Note_on_c, 12, 57, 0
14, 115320, Note_on_c, 12, 57, 76
14, 115409, Note_on_c, 12, 57, 0
14, 115440, Note_on_c, 12, 57, 76
14, 115529, Note_on_c, 12, 57, 0
14, 115560, Note_on_c, 12, 57, 76
14, 115649, Note_on_c, 12, 57, 0
14, 115680, Note_on_c, 12, 58, 76
14, 115769, Note_on_c, 12, 58, 0
14, 115800, Note_on_c, 12, 58, 76
14, 115889, Note_on_c, 12, 58, 0
14, 115920, Note_on_c, 12, 58, 76
14, 116009, Note_on_c, 12, 58, 0
14, 116040, Note_on_c, 12, 58, 76
14, 116129, Note_on_c, 12, 58, 0
14, 116160, Note_on_c, 12, 58, 76
14, 116249, Note_on_c, 12, 58, 0
14, 116280, Note_on_c, 12, 58, 76
14, 116369, Note_on_c, 12, 58, 0
14, 116400, Note_on_c, 12, 58, 76
14, 116489, Note_on_c, 12, 58, 0
14, 116520, Note_on_c, 12, 58, 76
14, 116609, Note_on_c, 12, 58, 0
14, 116640, Note_on_c, 12, 58, 76
14, 116729, Note_on_c, 12, 58, 0
14, 116760, Note_on_c, 12, 58, 76
14, 116849, Note_on_c, 12, 58, 0
14, 116880, Note_on_c, 12, 58, 76
14, 116969, Note_on_c, 12, 58, 0
14, 117000, Note_on_c, 12, 58, 76
14, 117089, Note_on_c, 12, 58, 0
14, 117120, Note_on_c, 12, 58, 76
14, 117209, Note_on_c, 12, 58, 0
14, 117240, Note_on_c, 12, 58, 76
14, 117329, Note_on_c, 12, 58, 0
14, 117360, Note_on_c, 12, 58, 76
14, 117449, Note_on_c, 12, 58, 0
14, 117480, Note_on_c, 12, 58, 76
14, 117569, Note_on_c, 12, 58, 0
14, 117600, Note_on_c, 12, 57, 76
14, 117600, Note_on_c, 12, 62, 76
14, 117689, Note_on_c, 12, 57, 0
14, 117689, Note_on_c, 12, 62, 0
14, 117720, Note_on_c, 12, 62, 76
14, 117720, Note_on_c, 12, 57, 76
14, 117809, Note_on_c, 12, 62, 0
14, 117809, Note_on_c, 12, 57, 0
14, 117840, Note_on_c, 12, 57, 76
14, 117840, Note_on_c, 12, 62, 76
14, 117929, Note_on_c, 12, 57, 0
14, 117929, Note_on_c, 12, 62, 0
14, 117960, Note_on_c, 12, 57, 76
14, 117960, Note_on_c, 12, 62, 76
14, 118049, Note_on_c, 12, 57, 0
14, 118049, Note_on_c, 12, 62, 0
14, 118080, Note_on_c, 12, 57, 76
14, 118080, Note_on_c, 12, 62, 76
14, 118169, Note_on_c, 12, 57, 0
14, 118169, Note_on_c, 12, 62, 0
14, 118200, Note_on_c, 12, 57, 76
14, 118200, Note_on_c, 12, 62, 76
14, 118289, Note_on_c, 12, 57, 0
14, 118289, Note_on_c, 12, 62, 0
14, 118320, Note_on_c, 12, 62, 76
14, 118320, Note_on_c, 12, 57, 76
14, 118409, Note_on_c, 12, 62, 0
14, 118409, Note_on_c, 12, 57, 0
14, 118440, Note_on_c, 12, 57, 76
14, 118440, Note_on_c, 12, 62, 76
14, 118529, Note_on_c, 12, 57, 0
14, 118529, Note_on_c, 12, 62, 0
14, 118560, Note_on_c, 12, 57, 76
14, 118560, Note_on_c, 12, 62, 76
14, 118649, Note_on_c, 12, 57, 0
14, 118649, Note_on_c, 12, 62, 0
14, 118680, Note_on_c, 12, 62, 76
14, 118680, Note_on_c, 12, 57, 76
14, 118769, Note_on_c, 12, 62, 0
14, 118769, Note_on_c, 12, 57, 0
14, 118800, Note_on_c, 12, 57, 76
14, 118800, Note_on_c, 12, 62, 76
14, 118889, Note_on_c, 12, 57, 0
14, 118889, Note_on_c, 12, 62, 0
14, 118920, Note_on_c, 12, 57, 76
14, 118920, Note_on_c, 12, 62, 76
14, 119009, Note_on_c, 12, 57, 0
14, 119009, Note_on_c, 12, 62, 0
14, 119040, Note_on_c, 12, 57, 76
14, 119040, Note_on_c, 12, 62, 76
14, 119129, Note_on_c, 12, 57, 0
14, 119129, Note_on_c, 12, 62, 0
14, 119160, Note_on_c, 12, 57, 76
14, 119160, Note_on_c, 12, 62, 76
14, 119249, Note_on_c, 12, 57, 0
14, 119249, Note_on_c, 12, 62, 0
14, 119280, Note_on_c, 12, 62, 76
14, 119280, Note_on_c, 12, 57, 76
14, 119369, Note_on_c, 12, 62, 0
14, 119369, Note_on_c, 12, 57, 0
14, 119400, Note_on_c, 12, 57, 76
14, 119400, Note_on_c, 12, 62, 76
14, 119489, Note_on_c, 12, 57, 0
14, 119489, Note_on_c, 12, 62, 0
14, 119520, Note_on_c, 12, 64, 76
14, 119520, Note_on_c, 12, 58, 76
14, 119609, Note_on_c, 12, 64, 0
14, 119609, Note_on_c, 12, 58, 0
14, 119640, Note_on_c, 12, 58, 76
14, 119640, Note_on_c, 12, 64, 76
14, 119729, Note_on_c, 12, 58, 0
14, 119729, Note_on_c, 12, 64, 0
14, 119760, Note_on_c, 12, 58, 76
14, 119760, Note_on_c, 12, 64, 76
14, 119849, Note_on_c, 12, 58, 0
14, 119849, Note_on_c, 12, 64, 0
14, 119880, Note_on_c, 12, 58, 76
14, 119880, Note_on_c, 12, 64, 76
14, 119969, Note_on_c, 12, 58, 0
14, 119969, Note_on_c, 12, 64, 0
14, 120000, Note_on_c, 12, 58, 76
14, 120000, Note_on_c, 12, 64, 76
14, 120089, Note_on_c, 12, 58, 0
14, 120089, Note_on_c, 12, 64, 0
14, 120120, Note_on_c, 12, 58, 76
14, 120120, Note_on_c, 12, 64, 76
14, 120209, Note_on_c, 12, 58, 0
14, 120209, Note_on_c, 12, 64, 0
14, 120240, Note_on_c, 12, 58, 76
14, 120240, Note_on_c, 12, 64, 76
14, 120329, Note_on_c, 12, 58, 0
14, 120329, Note_on_c, 12, 64, 0
14, 120360, Note_on_c, 12, 58, 76
14, 120360, Note_on_c, 12, 64, 76
14, 120449, Note_on_c, 12, 58, 0
14, 120449, Note_on_c, 12, 64, 0
14, 120480, Note_on_c, 12, 64, 76
14, 120480, Note_on_c, 12, 58, 76
14, 120569, Note_on_c, 12, 64, 0
14, 120569, Note_on_c, 12, 58, 0
14, 120600, Note_on_c, 12, 64, 76
14, 120600, Note_on_c, 12, 58, 76
14, 120689, Note_on_c, 12, 64, 0
14, 120689, Note_on_c, 12, 58, 0
14, 120720, Note_on_c, 12, 58, 76
14, 120720, Note_on_c, 12, 64, 76
14, 120809, Note_on_c, 12, 58, 0
14, 120809, Note_on_c, 12, 64, 0
14, 120840, Note_on_c, 12, 64, 76
14, 120840, Note_on_c, 12, 58, 76
14, 120929, Note_on_c, 12, 64, 0
14, 120929, Note_on_c, 12, 58, 0
14, 120960, Note_on_c, 12, 64, 76
14, 120960, Note_on_c, 12, 58, 76
14, 121049, Note_on_c, 12, 64, 0
14, 121049, Note_on_c, 12, 58, 0
14, 121080, Note_on_c, 12, 64, 76
14, 121080, Note_on_c, 12, 58, 76
14, 121169, Note_on_c, 12, 64, 0
14, 121169, Note_on_c, 12, 58, 0
14, 121200, Note_on_c, 12, 58, 76
14, 121200, Note_on_c, 12, 64, 76
14, 121289, Note_on_c, 12, 58, 0
14, 121289, Note_on_c, 12, 64, 0
14, 121320, Note_on_c, 12, 58, 76
14, 121320, Note_on_c, 12, 64, 76
14, 121409, Note_on_c, 12, 58, 0
14, 121409, Note_on_c, 12, 64, 0
14, 121440, Note_on_c, 12, 62, 84
14, 121440, Note_on_c, 12, 57, 84
14, 121529, Note_on_c, 12, 62, 0
14, 121529, Note_on_c, 12, 57, 0
14, 121560, Note_on_c, 12, 57, 76
14, 121560, Note_on_c, 12, 62, 76
14, 121649, Note_on_c, 12, 57, 0
14, 121649, Note_on_c, 12, 62, 0
14, 121680, Note_on_c, 12, 62, 76
14, 121680, Note_on_c, 12, 57, 76
14, 121769, Note_on_c, 12, 62, 0
14, 121769, Note_on_c, 12, 57, 0
14, 121800, Note_on_c, 12, 62, 76
14, 121800, Note_on_c, 12, 57, 76
14, 121889, Note_on_c, 12, 62, 0
14, 121889, Note_on_c, 12, 57, 0
14, 121920, Note_on_c, 12, 62, 76
14, 121920, Note_on_c, 12, 57, 76
14, 122009, Note_on_c, 12, 62, 0
14, 122009, Note_on_c, 12, 57, 0
14, 122040, Note_on_c, 12, 62, 76
14, 122040, Note_on_c, 12, 57, 76
14, 122129, Note_on_c, 12, 62, 0
14, 122129, Note_on_c, 12, 57, 0
14, 122160, Note_on_c, 12, 57, 76
14, 122160, Note_on_c, 12, 62, 76
14, 122249, Note_on_c, 12, 57, 0
14, 122249, Note_on_c, 12, 62, 0
14, 122280, Note_on_c, 12, 62, 76
14, 122280, Note_on_c, 12, 57, 76
14, 122369, Note_on_c, 12, 62, 0
14, 122369, Note_on_c, 12, 57, 0
14, 122400, Note_on_c, 12, 58, 84
14, 122489, Note_on_c, 12, 58, 0
14, 122520, Note_on_c, 12, 58, 76
14, 122609, Note_on_c, 12, 58, 0
14, 122640, Note_on_c, 12, 58, 76
14, 122729, Note_on_c, 12, 58, 0
14, 122760, Note_on_c, 12, 58, 76
14, 122849, Note_on_c, 12, 58, 0
14, 122880, Note_on_c, 12, 58, 76
14, 122969, Note_on_c, 12, 58, 0
14, 123000, Note_on_c, 12, 58, 76
14, 123089, Note_on_c, 12, 58, 0
14, 123120, Note_on_c, 12, 58, 76
14, 123209, Note_on_c, 12, 58, 0
14, 123240, Note_on_c, 12, 58, 76
14, 123329, Note_on_c, 12, 58, 0
14, 123360, Note_on_c, 12, 57, 84
14, 123449, Note_on_c, 12, 57, 0
14, 123480, Note_on_c, 12, 57, 76
14, 123569, Note_on_c, 12, 57, 0
14, 123600, Note_on_c, 12, 57, 76
14, 123689, Note_on_c, 12, 57, 0
14, 123720, Note_on_c, 12, 57, 76
14, 123809, Note_on_c, 12, 57, 0
14, 123840, Note_on_c, 12, 57, 76
14, 123929, Note_on_c, 12, 57, 0
14, 123960, Note_on_c, 12, 57, 76
14, 124049, Note_on_c, 12, 57, 0
14, 124080, Note_on_c, 12, 57, 76
14, 124169, Note_on_c, 12, 57, 0
14, 124200, Note_on_c, 12, 57, 76
14, 124289, Note_on_c, 12, 57, 0
14, 124320, Note_on_c, 12, 58, 84
14, 124409, Note_on_c, 12, 58, 0
14, 124440, Note_on_c, 12, 58, 76
14, 124529, Note_on_c, 12, 58, 0
14, 124560, Note_on_c, 12, 58, 76
14, 124649, Note_on_c, 12, 58, 0
14, 124680, Note_on_c, 12, 58, 76
14, 124769, Note_on_c, 12, 58, 0
14, 124800, Note_on_c, 12, 58, 76
14, 124889, Note_on_c, 12, 58, 0
14, 124920, Note_on_c, 12, 58, 76
14, 125009, Note_on_c, 12, 58, 0
14, 125040, Note_on_c, 12, 58, 76
14, 125129, Note_on_c, 12, 58, 0
14, 125160, Note_on_c, 12, 58, 76
14, 125249, Note_on_c, 12, 58, 0
14, 125280, Note_on_c, 12, 57, 76
14, 125489, Note_on_c, 12, 57, 0
14, 125520, Note_on_c, 12, 69, 52
14, 125609, Note_on_c, 12, 69, 0
14, 125640, Note_on_c, 12, 69, 52
14, 125729, Note_on_c, 12, 69, 0
14, 125760, Note_on_c, 12, 66, 52
14, 125879, Note_on_c, 12, 66, 0
14, 125880, Note_on_c, 12, 62, 52
14, 125969, Note_on_c, 12, 62, 0
14, 126000, Note_on_c, 12, 69, 52
14, 126089, Note_on_c, 12, 69, 0
14, 126120, Note_on_c, 12, 69, 52
14, 126209, Note_on_c, 12, 69, 0
14, 126240, Note_on_c, 12, 67, 52
14, 126359, Note_on_c, 12, 67, 0
14, 126360, Note_on_c, 12, 62, 52
14, 126449, Note_on_c, 12, 62, 0
14, 126480, Note_on_c, 12, 70, 52
14, 126569, Note_on_c, 12, 70, 0
14, 126600, Note_on_c, 12, 70, 52
14, 126689, Note_on_c, 12, 70, 0
14, 126720, Note_on_c, 12, 69, 52
14, 126839, Note_on_c, 12, 69, 0
14, 126840, Note_on_c, 12, 62, 52
14, 126929, Note_on_c, 12, 62, 0
14, 126960, Note_on_c, 12, 72, 52
14, 127049, Note_on_c, 12, 72, 0
14, 127080, Note_on_c, 12, 72, 52
14, 127169, Note_on_c, 12, 72, 0
14, 127200, Note_on_c, 12, 70, 52
14, 127439, Note_on_c, 12, 70, 0
14, 127680, Note_on_c, 12, 67, 76
14, 127800, Control_c, 12, 11, 80
14, 129329, Note_on_c, 12, 67, 0
14, 129360, Note_on_c, 12, 67, 76
14, 129449, Note_on_c, 12, 67, 0
14, 129480, Note_on_c, 12, 67, 76
14, 129569, Note_on_c, 12, 67, 0
14, 129600, Note_on_c, 12, 64, 76
14, 129719, Note_on_c, 12, 64, 0
14, 129720, Note_on_c, 12, 60, 76
14, 129809, Note_on_c, 12, 60, 0
14, 129840, Note_on_c, 12, 67, 76
14, 129929, Note_on_c, 12, 67, 0
14, 129960, Note_on_c, 12, 67, 76
14, 130049, Note_on_c, 12, 67, 0
14, 130080, Note_on_c, 12, 65, 76
14, 130199, Note_on_c, 12, 65, 0
14, 130200, Note_on_c, 12, 60, 76
14, 130289, Note_on_c, 12, 60, 0
14, 130320, Note_on_c, 12, 68, 76
14, 130409, Note_on_c, 12, 68, 0
14, 130440, Note_on_c, 12, 68, 76
14, 130529, Note_on_c, 12, 68, 0
14, 130560, Note_on_c, 12, 67, 76
14, 130679, Note_on_c, 12, 67, 0
14, 130680, Note_on_c, 12, 60, 76
14, 130769, Note_on_c, 12, 60, 0
14, 130800, Note_on_c, 12, 70, 76
14, 130889, Note_on_c, 12, 70, 0
14, 130920, Note_on_c, 12, 70, 76
14, 131009, Note_on_c, 12, 70, 0
14, 131040, Note_on_c, 12, 68, 76
14, 131279, Note_on_c, 12, 68, 0
14, 131505, Control_c, 12, 11, 127
14, 131520, Note_on_c, 12, 65, 76
14, 131640, Control_c, 12, 11, 80
14, 132929, Note_on_c, 12, 65, 0
14, 132960, Control_c, 12, 11, 127
14, 132960, Note_on_c, 12, 65, 76
14, 133049, Note_on_c, 12, 65, 0
14, 133080, Note_on_c, 12, 62, 76
14, 133080, Note_on_c, 12, 70, 76
14, 133169, Note_on_c, 12, 62, 0
14, 133169, Note_on_c, 12, 70, 0
14, 133200, Note_on_c, 12, 62, 76
14, 133200, Note_on_c, 12, 70, 76
14, 133289, Note_on_c, 12, 62, 0
14, 133289, Note_on_c, 12, 70, 0
14, 133320, Note_on_c, 12, 70, 76
14, 133320, Note_on_c, 12, 62, 76
14, 133409, Note_on_c, 12, 70, 0
14, 133409, Note_on_c, 12, 62, 0
14, 133440, Note_on_c, 12, 70, 76
14, 133440, Note_on_c, 12, 62, 76
14, 133529, Note_on_c, 12, 70, 0
14, 133529, Note_on_c, 12, 62, 0
14, 133560, Note_on_c, 12, 70, 76
14, 133560, Note_on_c, 12, 62, 76
14, 133649, Note_on_c, 12, 70, 0
14, 133649, Note_on_c, 12, 62, 0
14, 133680, Note_on_c, 12, 62, 76
14, 133680, Note_on_c, 12, 70, 76
14, 133769, Note_on_c, 12, 62, 0
14, 133769, Note_on_c, 12, 70, 0
14, 133800, Note_on_c, 12, 70, 76
14, 133800, Note_on_c, 12, 62, 76
14, 133889, Note_on_c, 12, 70, 0
14, 133889, Note_on_c, 12, 62, 0
14, 133920, Note_on_c, 12, 62, 76
14, 133920, Note_on_c, 12, 70, 76
14, 134009, Note_on_c, 12, 62, 0
14, 134009, Note_on_c, 12, 70, 0
14, 134040, Note_on_c, 12, 62, 76
14, 134040, Note_on_c, 12, 70, 76
14, 134129, Note_on_c, 12, 62, 0
14, 134129, Note_on_c, 12, 70, 0
14, 134160, Note_on_c, 12, 62, 76
14, 134160, Note_on_c, 12, 70, 76
14, 134249, Note_on_c, 12, 62, 0
14, 134249, Note_on_c, 12, 70, 0
14, 134280, Note_on_c, 12, 70, 76
14, 134280, Note_on_c, 12, 62, 76
14, 134369, Note_on_c, 12, 70, 0
14, 134369, Note_on_c, 12, 62, 0
14, 134400, Note_on_c, 12, 70, 76
14, 134400, Note_on_c, 12, 62, 76
14, 134489, Note_on_c, 12, 70, 0
14, 134489, Note_on_c, 12, 62, 0
14, 134520, Note_on_c, 12, 70, 76
14, 134520, Note_on_c, 12, 62, 76
14, 134609, Note_on_c, 12, 70, 0
14, 134609, Note_on_c, 12, 62, 0
14, 134640, Note_on_c, 12, 62, 76
14, 134640, Note_on_c, 12, 70, 76
14, 134729, Note_on_c, 12, 62, 0
14, 134729, Note_on_c, 12, 70, 0
14, 134760, Note_on_c, 12, 70, 76
14, 134760, Note_on_c, 12, 62, 76
14, 134849, Note_on_c, 12, 70, 0
14, 134849, Note_on_c, 12, 62, 0
14, 134880, Note_on_c, 12, 69, 76
14, 134880, Note_on_c, 12, 62, 76
14, 134969, Note_on_c, 12, 69, 0
14, 134969, Note_on_c, 12, 62, 0
14, 135000, Note_on_c, 12, 62, 76
14, 135000, Note_on_c, 12, 69, 76
14, 135089, Note_on_c, 12, 62, 0
14, 135089, Note_on_c, 12, 69, 0
14, 135120, Note_on_c, 12, 69, 76
14, 135120, Note_on_c, 12, 62, 76
14, 135209, Note_on_c, 12, 69, 0
14, 135209, Note_on_c, 12, 62, 0
14, 135240, Note_on_c, 12, 69, 76
14, 135240, Note_on_c, 12, 62, 76
14, 135329, Note_on_c, 12, 69, 0
14, 135329, Note_on_c, 12, 62, 0
14, 135360, Note_on_c, 12, 69, 76
14, 135360, Note_on_c, 12, 62, 76
14, 135449, Note_on_c, 12, 69, 0
14, 135449, Note_on_c, 12, 62, 0
14, 135480, Note_on_c, 12, 62, 76
14, 135480, Note_on_c, 12, 69, 76
14, 135569, Note_on_c, 12, 62, 0
14, 135569, Note_on_c, 12, 69, 0
14, 135600, Note_on_c, 12, 69, 76
14, 135600, Note_on_c, 12, 62, 76
14, 135689, Note_on_c, 12, 69, 0
14, 135689, Note_on_c, 12, 62, 0
14, 135720, Note_on_c, 12, 69, 76
14, 135720, Note_on_c, 12, 62, 76
14, 135809, Note_on_c, 12, 69, 0
14, 135809, Note_on_c, 12, 62, 0
14, 135840, Note_on_c, 12, 62, 76
14, 135840, Note_on_c, 12, 69, 76
14, 135929, Note_on_c, 12, 62, 0
14, 135929, Note_on_c, 12, 69, 0
14, 135960, Note_on_c, 12, 69, 76
14, 135960, Note_on_c, 12, 62, 76
14, 136049, Note_on_c, 12, 69, 0
14, 136049, Note_on_c, 12, 62, 0
14, 136080, Note_on_c, 12, 62, 76
14, 136080, Note_on_c, 12, 69, 76
14, 136169, Note_on_c, 12, 62, 0
14, 136169, Note_on_c, 12, 69, 0
14, 136200, Note_on_c, 12, 69, 76
14, 136200, Note_on_c, 12, 62, 76
14, 136289, Note_on_c, 12, 69, 0
14, 136289, Note_on_c, 12, 62, 0
14, 136320, Note_on_c, 12, 69, 76
14, 136320, Note_on_c, 12, 62, 76
14, 136409, Note_on_c, 12, 69, 0
14, 136409, Note_on_c, 12, 62, 0
14, 136440, Note_on_c, 12, 69, 76
14, 136440, Note_on_c, 12, 62, 76
14, 136529, Note_on_c, 12, 69, 0
14, 136529, Note_on_c, 12, 62, 0
14, 136560, Note_on_c, 12, 62, 76
14, 136560, Note_on_c, 12, 69, 76
14, 136649, Note_on_c, 12, 62, 0
14, 136649, Note_on_c, 12, 69, 0
14, 136680, Note_on_c, 12, 69, 76
14, 136680, Note_on_c, 12, 62, 76
14, 136769, Note_on_c, 12, 69, 0
14, 136769, Note_on_c, 12, 62, 0
14, 136800, Note_on_c, 12, 72, 52
14, 136800, Note_on_c, 12, 62, 52
14, 136889, Note_on_c, 12, 72, 0
14, 136889, Note_on_c, 12, 62, 0
14, 136920, Note_on_c, 12, 62, 52
14, 136920, Note_on_c, 12, 72, 52
14, 137009, Note_on_c, 12, 62, 0
14, 137009, Note_on_c, 12, 72, 0
14, 137040, Note_on_c, 12, 72, 52
14, 137040, Note_on_c, 12, 62, 52
14, 137129, Note_on_c, 12, 72, 0
14, 137129, Note_on_c, 12, 62, 0
14, 137160, Note_on_c, 12, 62, 52
14, 137160, Note_on_c, 12, 72, 52
14, 137249, Note_on_c, 12, 62, 0
14, 137249, Note_on_c, 12, 72, 0
14, 137280, Note_on_c, 12, 62, 52
14, 137280, Note_on_c, 12, 72, 52
14, 137369, Note_on_c, 12, 62, 0
14, 137369, Note_on_c, 12, 72, 0
14, 137400, Note_on_c, 12, 72, 52
14, 137400, Note_on_c, 12, 62, 52
14, 137489, Note_on_c, 12, 72, 0
14, 137489, Note_on_c, 12, 62, 0
14, 137520, Note_on_c, 12, 62, 52
14, 137520, Note_on_c, 12, 72, 52
14, 137609, Note_on_c, 12, 62, 0
14, 137609, Note_on_c, 12, 72, 0
14, 137640, Note_on_c, 12, 62, 52
14, 137640, Note_on_c, 12, 72, 52
14, 137729, Note_on_c, 12, 62, 0
14, 137729, Note_on_c, 12, 72, 0
14, 137760, Note_on_c, 12, 62, 52
14, 137760, Note_on_c, 12, 71, 52
14, 137849, Note_on_c, 12, 62, 0
14, 137849, Note_on_c, 12, 71, 0
14, 137880, Note_on_c, 12, 62, 52
14, 137880, Note_on_c, 12, 71, 52
14, 137969, Note_on_c, 12, 62, 0
14, 137969, Note_on_c, 12, 71, 0
14, 138000, Note_on_c, 12, 71, 52
14, 138000, Note_on_c, 12, 62, 52
14, 138089, Note_on_c, 12, 71, 0
14, 138089, Note_on_c, 12, 62, 0
14, 138120, Note_on_c, 12, 62, 52
14, 138120, Note_on_c, 12, 71, 52
14, 138209, Note_on_c, 12, 62, 0
14, 138209, Note_on_c, 12, 71, 0
14, 138240, Note_on_c, 12, 71, 52
14, 138240, Note_on_c, 12, 62, 52
14, 138329, Note_on_c, 12, 71, 0
14, 138329, Note_on_c, 12, 62, 0
14, 138360, Note_on_c, 12, 71, 52
14, 138360, Note_on_c, 12, 62, 52
14, 138449, Note_on_c, 12, 71, 0
14, 138449, Note_on_c, 12, 62, 0
14, 138480, Note_on_c, 12, 71, 52
14, 138480, Note_on_c, 12, 62, 52
14, 138569, Note_on_c, 12, 71, 0
14, 138569, Note_on_c, 12, 62, 0
14, 138600, Note_on_c, 12, 71, 52
14, 138600, Note_on_c, 12, 62, 52
14, 138689, Note_on_c, 12, 71, 0
14, 138689, Note_on_c, 12, 62, 0
14, 138720, Note_on_c, 12, 64, 76
14, 138720, Note_on_c, 12, 72, 76
14, 138809, Note_on_c, 12, 64, 0
14, 138809, Note_on_c, 12, 72, 0
14, 138840, Note_on_c, 12, 64, 76
14, 138840, Note_on_c, 12, 72, 76
14, 138929, Note_on_c, 12, 64, 0
14, 138929, Note_on_c, 12, 72, 0
14, 138960, Note_on_c, 12, 64, 76
14, 138960, Note_on_c, 12, 72, 76
14, 139049, Note_on_c, 12, 64, 0
14, 139049, Note_on_c, 12, 72, 0
14, 139080, Note_on_c, 12, 64, 76
14, 139080, Note_on_c, 12, 72, 76
14, 139169, Note_on_c, 12, 64, 0
14, 139169, Note_on_c, 12, 72, 0
14, 139200, Note_on_c, 12, 64, 76
14, 139200, Note_on_c, 12, 72, 76
14, 139289, Note_on_c, 12, 64, 0
14, 139289, Note_on_c, 12, 72, 0
14, 139320, Note_on_c, 12, 72, 76
14, 139320, Note_on_c, 12, 64, 76
14, 139409, Note_on_c, 12, 72, 0
14, 139409, Note_on_c, 12, 64, 0
14, 139440, Note_on_c, 12, 72, 76
14, 139440, Note_on_c, 12, 64, 76
14, 139529, Note_on_c, 12, 72, 0
14, 139529, Note_on_c, 12, 64, 0
14, 139560, Note_on_c, 12, 64, 76
14, 139560, Note_on_c, 12, 72, 76
14, 139649, Note_on_c, 12, 64, 0
14, 139649, Note_on_c, 12, 72, 0
14, 139680, Note_on_c, 12, 72, 76
14, 139680, Note_on_c, 12, 64, 76
14, 139769, Note_on_c, 12, 72, 0
14, 139769, Note_on_c, 12, 64, 0
14, 139800, Note_on_c, 12, 72, 76
14, 139800, Note_on_c, 12, 64, 76
14, 139889, Note_on_c, 12, 72, 0
14, 139889, Note_on_c, 12, 64, 0
14, 139920, Note_on_c, 12, 64, 76
14, 139920, Note_on_c, 12, 72, 76
14, 140009, Note_on_c, 12, 64, 0
14, 140009, Note_on_c, 12, 72, 0
14, 140040, Note_on_c, 12, 64, 76
14, 140040, Note_on_c, 12, 72, 76
14, 140129, Note_on_c, 12, 64, 0
14, 140129, Note_on_c, 12, 72, 0
14, 140160, Note_on_c, 12, 64, 76
14, 140160, Note_on_c, 12, 72, 76
14, 140249, Note_on_c, 12, 64, 0
14, 140249, Note_on_c, 12, 72, 0
14, 140280, Note_on_c, 12, 64, 76
14, 140280, Note_on_c, 12, 72, 76
14, 140369, Note_on_c, 12, 64, 0
14, 140369, Note_on_c, 12, 72, 0
14, 140400, Note_on_c, 12, 64, 76
14, 140400, Note_on_c, 12, 72, 76
14, 140489, Note_on_c, 12, 64, 0
14, 140489, Note_on_c, 12, 72, 0
14, 140520, Note_on_c, 12, 72, 76
14, 140520, Note_on_c, 12, 64, 76
14, 140609, Note_on_c, 12, 72, 0
14, 140609, Note_on_c, 12, 64, 0
14, 140640, Note_on_c, 12, 71, 76
14, 140640, Note_on_c, 12, 64, 76
14, 140729, Note_on_c, 12, 71, 0
14, 140729, Note_on_c, 12, 64, 0
14, 140760, Note_on_c, 12, 64, 76
14, 140760, Note_on_c, 12, 71, 76
14, 140849, Note_on_c, 12, 64, 0
14, 140849, Note_on_c, 12, 71, 0
14, 140880, Note_on_c, 12, 64, 76
14, 140880, Note_on_c, 12, 71, 76
14, 140969, Note_on_c, 12, 64, 0
14, 140969, Note_on_c, 12, 71, 0
14, 141000, Note_on_c, 12, 71, 76
14, 141000, Note_on_c, 12, 64, 76
14, 141089, Note_on_c, 12, 71, 0
14, 141089, Note_on_c, 12, 64, 0
14, 141120, Note_on_c, 12, 71, 76
14, 141120, Note_on_c, 12, 64, 76
14, 141209, Note_on_c, 12, 71, 0
14, 141209, Note_on_c, 12, 64, 0
14, 141240, Note_on_c, 12, 64, 76
14, 141240, Note_on_c, 12, 71, 76
14, 141329, Note_on_c, 12, 64, 0
14, 141329, Note_on_c, 12, 71, 0
14, 141360, Note_on_c, 12, 64, 76
14, 141360, Note_on_c, 12, 71, 76
14, 141449, Note_on_c, 12, 64, 0
14, 141449, Note_on_c, 12, 71, 0
14, 141480, Note_on_c, 12, 71, 76
14, 141480, Note_on_c, 12, 64, 76
14, 141569, Note_on_c, 12, 71, 0
14, 141569, Note_on_c, 12, 64, 0
14, 141600, Note_on_c, 12, 64, 76
14, 141600, Note_on_c, 12, 71, 76
14, 141689, Note_on_c, 12, 64, 0
14, 141689, Note_on_c, 12, 71, 0
14, 141720, Note_on_c, 12, 71, 76
14, 141720, Note_on_c, 12, 64, 76
14, 141809, Note_on_c, 12, 71, 0
14, 141809, Note_on_c, 12, 64, 0
14, 141840, Note_on_c, 12, 64, 76
14, 141840, Note_on_c, 12, 71, 76
14, 141929, Note_on_c, 12, 64, 0
14, 141929, Note_on_c, 12, 71, 0
14, 141960, Note_on_c, 12, 64, 76
14, 141960, Note_on_c, 12, 71, 76
14, 142049, Note_on_c, 12, 64, 0
14, 142049, Note_on_c, 12, 71, 0
14, 142080, Note_on_c, 12, 64, 76
14, 142080, Note_on_c, 12, 71, 76
14, 142169, Note_on_c, 12, 64, 0
14, 142169, Note_on_c, 12, 71, 0
14, 142200, Note_on_c, 12, 64, 76
14, 142200, Note_on_c, 12, 71, 76
14, 142289, Note_on_c, 12, 64, 0
14, 142289, Note_on_c, 12, 71, 0
14, 142320, Note_on_c, 12, 71, 76
14, 142320, Note_on_c, 12, 64, 76
14, 142409, Note_on_c, 12, 71, 0
14, 142409, Note_on_c, 12, 64, 0
14, 142440, Note_on_c, 12, 71, 76
14, 142440, Note_on_c, 12, 64, 76
14, 142529, Note_on_c, 12, 71, 0
14, 142529, Note_on_c, 12, 64, 0
14, 142560, Note_on_c, 12, 74, 52
14, 142649, Note_on_c, 12, 74, 0
14, 142680, Note_on_c, 12, 74, 52
14, 142769, Note_on_c, 12, 74, 0
14, 142800, Note_on_c, 12, 74, 52
14, 142889, Note_on_c, 12, 74, 0
14, 142920, Note_on_c, 12, 74, 52
14, 143009, Note_on_c, 12, 74, 0
14, 143040, Note_on_c, 12, 74, 52
14, 143129, Note_on_c, 12, 74, 0
14, 143160, Note_on_c, 12, 74, 52
14, 143249, Note_on_c, 12, 74, 0
14, 143280, Note_on_c, 12, 74, 52
14, 143369, Note_on_c, 12, 74, 0
14, 143400, Note_on_c, 12, 74, 52
14, 143489, Note_on_c, 12, 74, 0
14, 143520, Note_on_c, 12, 73, 52
14, 143609, Note_on_c, 12, 73, 0
14, 143640, Note_on_c, 12, 73, 52
14, 143729, Note_on_c, 12, 73, 0
14, 143760, Note_on_c, 12, 73, 52
14, 143849, Note_on_c, 12, 73, 0
14, 143880, Note_on_c, 12, 73, 52
14, 143969, Note_on_c, 12, 73, 0
14, 144000, Note_on_c, 12, 73, 52
14, 144089, Note_on_c, 12, 73, 0
14, 144120, Note_on_c, 12, 73, 52
14, 144209, Note_on_c, 12, 73, 0
14, 144240, Note_on_c, 12, 73, 52
14, 144329, Note_on_c, 12, 73, 0
14, 144360, Note_on_c, 12, 73, 52
14, 144449, Note_on_c, 12, 73, 0
14, 144480, Note_on_c, 12, 74, 52
14, 144569, Note_on_c, 12, 74, 0
14, 144600, Note_on_c, 12, 74, 52
14, 144689, Note_on_c, 12, 74, 0
14, 144720, Note_on_c, 12, 74, 53
14, 144809, Note_on_c, 12, 74, 0
14, 144840, Note_on_c, 12, 74, 53
14, 144929, Note_on_c, 12, 74, 0
14, 144960, Note_on_c, 12, 74, 54
14, 145049, Note_on_c, 12, 74, 0
14, 145080, Note_on_c, 12, 74, 54
14, 145169, Note_on_c, 12, 74, 0
14, 145200, Note_on_c, 12, 74, 55
14, 145289, Note_on_c, 12, 74, 0
14, 145320, Note_on_c, 12, 74, 55
14, 145409, Note_on_c, 12, 74, 0
14, 145440, Note_on_c, 12, 75, 56
14, 145529, Note_on_c, 12, 75, 0
14, 145560, Note_on_c, 12, 75, 56
14, 145649, Note_on_c, 12, 75, 0
14, 145680, Note_on_c, 12, 75, 57
14, 145769, Note_on_c, 12, 75, 0
14, 145800, Note_on_c, 12, 75, 57
14, 145889, Note_on_c, 12, 75, 0
14, 145920, Note_on_c, 12, 75, 58
14, 146009, Note_on_c, 12, 75, 0
14, 146040, Note_on_c, 12, 75, 58
14, 146129, Note_on_c, 12, 75, 0
14, 146160, Note_on_c, 12, 75, 59
14, 146249, Note_on_c, 12, 75, 0
14, 146280, Note_on_c, 12, 75, 59
14, 146369, Note_on_c, 12, 75, 0
14, 146400, Note_on_c, 12, 76, 60
14, 146489, Note_on_c, 12, 76, 0
14, 146520, Note_on_c, 12, 76, 60
14, 146609, Note_on_c, 12, 76, 0
14, 146640, Note_on_c, 12, 76, 61
14, 146729, Note_on_c, 12, 76, 0
14, 146760, Note_on_c, 12, 76, 61
14, 146849, Note_on_c, 12, 76, 0
14, 146880, Note_on_c, 12, 76, 62
14, 146969, Note_on_c, 12, 76, 0
14, 147000, Note_on_c, 12, 76, 62
14, 147089, Note_on_c, 12, 76, 0
14, 147120, Note_on_c, 12, 76, 63
14, 147209, Note_on_c, 12, 76, 0
14, 147240, Note_on_c, 12, 76, 63
14, 147329, Note_on_c, 12, 76, 0
14, 147360, Note_on_c, 12, 77, 64
14, 147449, Note_on_c, 12, 77, 0
14, 147480, Note_on_c, 12, 77, 64
14, 147569, Note_on_c, 12, 77, 0
14, 147600, Note_on_c, 12, 77, 65
14, 147689, Note_on_c, 12, 77, 0
14, 147720, Note_on_c, 12, 77, 65
14, 147809, Note_on_c, 12, 77, 0
14, 147840, Note_on_c, 12, 77, 66
14, 147929, Note_on_c, 12, 77, 0
14, 147960, Note_on_c, 12, 77, 66
14, 148049, Note_on_c, 12, 77, 0
14, 148080, Note_on_c, 12, 77, 67
14, 148169, Note_on_c, 12, 77, 0
14, 148200, Note_on_c, 12, 77, 67
14, 148289, Note_on_c, 12, 77, 0
14, 148320, Note_on_c, 12, 78, 68
14, 148529, Note_on_c, 12, 78, 0
14, 148560, Note_on_c, 12, 68, 69
14, 148649, Note_on_c, 12, 68, 0
14, 148680, Note_on_c, 12, 68, 69
14, 148769, Note_on_c, 12, 68, 0
14, 148800, Note_on_c, 12, 66, 70
14, 148889, Note_on_c, 12, 66, 0
14, 148920, Note_on_c, 12, 66, 70
14, 149009, Note_on_c, 12, 66, 0
14, 149040, Note_on_c, 12, 65, 71
14, 149129, Note_on_c, 12, 65, 0
14, 149160, Note_on_c, 12, 65, 71
14, 149249, Note_on_c, 12, 65, 0
14, 149280, Note_on_c, 12, 66, 72
14, 149369, Note_on_c, 12, 66, 0
14, 149400, Note_on_c, 12, 66, 72
14, 149489, Note_on_c, 12, 66, 0
14, 149520, Note_on_c, 12, 68, 73
14, 149609, Note_on_c, 12, 68, 0
14, 149640, Note_on_c, 12, 68, 73
14, 149729, Note_on_c, 12, 68, 0
14, 149760, Note_on_c, 12, 69, 74
14, 149849, Note_on_c, 12, 69, 0
14, 149880, Note_on_c, 12, 69, 74
14, 149969, Note_on_c, 12, 69, 0
14, 150000, Note_on_c, 12, 71, 75
14, 150089, Note_on_c, 12, 71, 0
14, 150120, Note_on_c, 12, 71, 75
14, 150209, Note_on_c, 12, 71, 0
14, 150240, Note_on_c, 12, 73, 76
14, 150959, Note_on_c, 12, 73, 0
14, 150960, Note_on_c, 12, 72, 76
14, 151169, Note_on_c, 12, 72, 0
14, 151200, Note_on_c, 12, 73, 76
14, 151439, Note_on_c, 12, 73, 0
14, 151440, Note_on_c, 12, 74, 76
14, 151679, Note_on_c, 12, 74, 0
14, 151680, Note_on_c, 12, 73, 76
14, 151919, Note_on_c, 12, 73, 0
14, 151920, Note_on_c, 12, 71, 76
14, 152159, Note_on_c, 12, 71, 0
14, 152160, Note_on_c, 12, 69, 76
14, 152399, Note_on_c, 12, 69, 0
14, 152400, Note_on_c, 12, 68, 76
14, 152639, Note_on_c, 12, 68, 0
14, 152640, Note_on_c, 12, 66, 76
14, 152879, Note_on_c, 12, 66, 0
14, 152880, Note_on_c, 12, 65, 76
14, 153119, Note_on_c, 12, 65, 0
14, 153120, Note_on_c, 12, 66, 76
14, 153359, Note_on_c, 12, 66, 0
14, 153360, Note_on_c, 12, 62, 76
14, 153599, Note_on_c, 12, 62, 0
14, 153600, Note_on_c, 12, 61, 76
14, 153839, Note_on_c, 12, 61, 0
14, 153840, Note_on_c, 12, 60, 76
14, 154049, Note_on_c, 12, 60, 0
14, 154080, Note_on_c, 12, 61, 84
14, 154169, Note_on_c, 12, 61, 0
14, 154200, Note_on_c, 12, 73, 84
14, 154289, Note_on_c, 12, 73, 0
14, 154320, Note_on_c, 12, 73, 84
14, 154409, Note_on_c, 12, 73, 0
14, 154440, Note_on_c, 12, 73, 84
14, 154529, Note_on_c, 12, 73, 0
14, 154560, Note_on_c, 12, 73, 84
14, 154649, Note_on_c, 12, 73, 0
14, 154680, Note_on_c, 12, 73, 84
14, 154769, Note_on_c, 12, 73, 0
14, 154800, Note_on_c, 12, 72, 84
14, 154889, Note_on_c, 12, 72, 0
14, 154920, Note_on_c, 12, 72, 84
14, 155009, Note_on_c, 12, 72, 0
14, 155040, Note_on_c, 12, 73, 84
14, 155129, Note_on_c, 12, 73, 0
14, 155160, Note_on_c, 12, 73, 84
14, 155249, Note_on_c, 12, 73, 0
14, 155280, Note_on_c, 12, 74, 84
14, 155369, Note_on_c, 12, 74, 0
14, 155400, Note_on_c, 12, 74, 84
14, 155489, Note_on_c, 12, 74, 0
14, 155520, Note_on_c, 12, 73, 84
14, 155609, Note_on_c, 12, 73, 0
14, 155640, Note_on_c, 12, 73, 84
14, 155729, Note_on_c, 12, 73, 0
14, 155760, Note_on_c, 12, 71, 84
14, 155849, Note_on_c, 12, 71, 0
14, 155880, Note_on_c, 12, 71, 84
14, 155969, Note_on_c, 12, 71, 0
14, 156000, Note_on_c, 12, 69, 84
14, 156089, Note_on_c, 12, 69, 0
14, 156120, Note_on_c, 12, 69, 84
14, 156209, Note_on_c, 12, 69, 0
14, 156240, Note_on_c, 12, 68, 84
14, 156329, Note_on_c, 12, 68, 0
14, 156360, Note_on_c, 12, 68, 84
14, 156449, Note_on_c, 12, 68, 0
14, 156480, Note_on_c, 12, 66, 84
14, 156569, Note_on_c, 12, 66, 0
14, 156600, Note_on_c, 12, 66, 84
14, 156689, Note_on_c, 12, 66, 0
14, 156720, Note_on_c, 12, 65, 84
14, 156809, Note_on_c, 12, 65, 0
14, 156840, Note_on_c, 12, 65, 84
14, 156929, Note_on_c, 12, 65, 0
14, 156960, Note_on_c, 12, 66, 84
14, 157049, Note_on_c, 12, 66, 0
14, 157080, Note_on_c, 12, 66, 84
14, 157169, Note_on_c, 12, 66, 0
14, 157200, Note_on_c, 12, 62, 84
14, 157289, Note_on_c, 12, 62, 0
14, 157320, Note_on_c, 12, 62, 84
14, 157409, Note_on_c, 12, 62, 0
14, 157440, Note_on_c, 12, 61, 84
14, 157529, Note_on_c, 12, 61, 0
14, 157560, Note_on_c, 12, 61, 84
14, 157649, Note_on_c, 12, 61, 0
14, 157680, Note_on_c, 12, 59, 84
14, 157769, Note_on_c, 12, 59, 0
14, 157800, Note_on_c, 12, 59, 84
14, 157889, Note_on_c, 12, 59, 0
14, 157920, Note_on_c, 12, 57, 84
14, 158159, Note_on_c, 12, 57, 0
14, 158760, Note_on_c, 12, 57, 84
14, 158879, Note_on_c, 12, 57, 0
14, 158880, Note_on_c, 12, 59, 84
14, 159059, Note_on_c, 12, 59, 0
14, 159720, Note_on_c, 12, 59, 84
14, 159839, Note_on_c, 12, 59, 0
14, 159840, Note_on_c, 12, 61, 84
14, 160019, Note_on_c, 12, 61, 0
14, 160680, Note_on_c, 12, 61, 84
14, 160799, Note_on_c, 12, 61, 0
14, 160800, Note_on_c, 12, 62, 84
14, 160979, Note_on_c, 12, 62, 0
14, 161160, Note_on_c, 12, 62, 84
14, 161279, Note_on_c, 12, 62, 0
14, 161280, Note_on_c, 12, 60, 84
14, 161459, Note_on_c, 12, 60, 0
14, 161640, Note_on_c, 12, 60, 84
14, 161759, Note_on_c, 12, 60, 0
14, 161760, Note_on_c, 12, 61, 84
14, 161849, Note_on_c, 12, 61, 0
14, 161880, Note_on_c, 12, 69, 84
14, 161969, Note_on_c, 12, 69, 0
14, 162000, Note_on_c, 12, 69, 84
14, 162089, Note_on_c, 12, 69, 0
14, 162120, Note_on_c, 12, 69, 84
14, 162209, Note_on_c, 12, 69, 0
14, 162240, Note_on_c, 12, 69, 84
14, 162329, Note_on_c, 12, 69, 0
14, 162360, Note_on_c, 12, 69, 84
14, 162449, Note_on_c, 12, 69, 0
14, 162480, Note_on_c, 12, 69, 84
14, 162569, Note_on_c, 12, 69, 0
14, 162600, Note_on_c, 12, 69, 84
14, 162689, Note_on_c, 12, 69, 0
14, 162720, Note_on_c, 12, 68, 84
14, 162809, Note_on_c, 12, 68, 0
14, 162840, Note_on_c, 12, 68, 84
14, 162929, Note_on_c, 12, 68, 0
14, 162960, Note_on_c, 12, 68, 84
14, 163049, Note_on_c, 12, 68, 0
14, 163080, Note_on_c, 12, 68, 84
14, 163169, Note_on_c, 12, 68, 0
14, 163200, Note_on_c, 12, 68, 84
14, 163289, Note_on_c, 12, 68, 0
14, 163320, Note_on_c, 12, 68, 84
14, 163409, Note_on_c, 12, 68, 0
14, 163440, Note_on_c, 12, 68, 84
14, 163529, Note_on_c, 12, 68, 0
14, 163560, Note_on_c, 12, 68, 84
14, 163649, Note_on_c, 12, 68, 0
14, 163680, Note_on_c, 12, 66, 84
14, 163919, Note_on_c, 12, 66, 0
14, 164520, Note_on_c, 12, 57, 84
14, 164639, Note_on_c, 12, 57, 0
14, 164640, Note_on_c, 12, 59, 84
14, 164819, Note_on_c, 12, 59, 0
14, 165480, Note_on_c, 12, 59, 84
14, 165599, Note_on_c, 12, 59, 0
14, 165600, Note_on_c, 12, 61, 84
14, 165779, Note_on_c, 12, 61, 0
14, 166440, Note_on_c, 12, 61, 84
14, 166559, Note_on_c, 12, 61, 0
14, 166560, Note_on_c, 12, 62, 84
14, 166739, Note_on_c, 12, 62, 0
14, 166920, Note_on_c, 12, 62, 84
14, 167039, Note_on_c, 12, 62, 0
14, 167040, Note_on_c, 12, 60, 84
14, 167219, Note_on_c, 12, 60, 0
14, 167400, Note_on_c, 12, 60, 84
14, 167519, Note_on_c, 12, 60, 0
14, 167520, Note_on_c, 12, 61, 92
14, 167699, Note_on_c, 12, 61, 0
14, 168360, Note_on_c, 12, 61, 84
14, 168479, Note_on_c, 12, 61, 0
14, 168480, Note_on_c, 12, 62, 84
14, 168659, Note_on_c, 12, 62, 0
14, 168840, Note_on_c, 12, 62, 84
14, 168959, Note_on_c, 12, 62, 0
14, 168960, Note_on_c, 12, 60, 84
14, 169139, Note_on_c, 12, 60, 0
14, 169320, Note_on_c, 12, 60, 84
14, 169439, Note_on_c, 12, 60, 0
14, 169440, Note_on_c, 12, 61, 84
14, 169619, Note_on_c, 12, 61, 0
14, 169800, Note_on_c, 12, 61, 84
14, 169919, Note_on_c, 12, 61, 0
14, 169920, Note_on_c, 12, 62, 84
14, 170099, Note_on_c, 12, 62, 0
14, 170280, Note_on_c, 12, 60, 84
14, 170399, Note_on_c, 12, 60, 0
14, 170400, Note_on_c, 12, 61, 92
14, 170579, Note_on_c, 12, 61, 0
14, 170760, Note_on_c, 12, 61, 84
14, 170879, Note_on_c, 12, 61, 0
14, 170880, Note_on_c, 12, 62, 84
14, 171059, Note_on_c, 12, 62, 0
14, 171240, Note_on_c, 12, 60, 84
14, 171329, Note_on_c, 12, 60, 0
14, 171360, Note_on_c, 12, 61, 92
14, 171449, Note_on_c, 12, 61, 0
14, 171480, Note_on_c, 12, 61, 84
14, 171569, Note_on_c, 12, 61, 0
14, 171600, Note_on_c, 12, 61, 84
14, 171689, Note_on_c, 12, 61, 0
14, 171720, Note_on_c, 12, 61, 84
14, 171809, Note_on_c, 12, 61, 0
14, 171840, Note_on_c, 12, 62, 84
14, 171929, Note_on_c, 12, 62, 0
14, 171960, Note_on_c, 12, 62, 84
14, 172049, Note_on_c, 12, 62, 0
14, 172080, Note_on_c, 12, 60, 84
14, 172169, Note_on_c, 12, 60, 0
14, 172200, Note_on_c, 12, 60, 84
14, 172289, Note_on_c, 12, 60, 0
14, 172320, Note_on_c, 12, 61, 92
14, 172409, Note_on_c, 12, 61, 0
14, 172440, Note_on_c, 12, 61, 84
14, 172529, Note_on_c, 12, 61, 0
14, 172560, Note_on_c, 12, 61, 84
14, 172649, Note_on_c, 12, 61, 0
14, 172680, Note_on_c, 12, 61, 84
14, 172769, Note_on_c, 12, 61, 0
14, 172800, Note_on_c, 12, 62, 84
14, 172889, Note_on_c, 12, 62, 0
14, 172920, Note_on_c, 12, 62, 84
14, 173009, Note_on_c, 12, 62, 0
14, 173040, Note_on_c, 12, 60, 84
14, 173129, Note_on_c, 12, 60, 0
14, 173160, Note_on_c, 12, 60, 84
14, 173249, Note_on_c, 12, 60, 0
14, 173280, Note_on_c, 12, 61, 92
14, 173519, Note_on_c, 12, 61, 0
14, 175200, Note_on_c, 12, 69, 44
14, 175439, Note_on_c, 12, 69, 0
14, 177000, Note_on_c, 12, 66, 76
14, 177119, Note_on_c, 12, 66, 0
14, 177120, Note_on_c, 12, 67, 76
14, 177299, Note_on_c, 12, 67, 0
14, 177480, Note_on_c, 12, 61, 76
14, 177569, Note_on_c, 12, 61, 0
14, 177600, Note_on_c, 12, 61, 84
14, 177659, Note_on_c, 12, 61, 0
14, 177660, Note_on_c, 12, 62, 76
14, 177719, Note_on_c, 12, 62, 0
14, 177720, Note_on_c, 12, 61, 76
14, 177779, Note_on_c, 12, 61, 0
14, 177780, Note_on_c, 12, 62, 76
14, 177839, Note_on_c, 12, 62, 0
14, 177840, Note_on_c, 12, 61, 76
14, 177899, Note_on_c, 12, 61, 0
14, 177900, Note_on_c, 12, 62, 76
14, 177959, Note_on_c, 12, 62, 0
14, 177960, Note_on_c, 12, 59, 76
14, 178019, Note_on_c, 12, 59, 0
14, 178020, Note_on_c, 12, 61, 76
14, 178064, Note_on_c, 12, 61, 0
14, 178080, Note_on_c, 12, 64, 76
14, 178259, Note_on_c, 12, 64, 0
14, 178320, Note_on_c, 12, 57, 76
14, 178499, Note_on_c, 12, 57, 0
14, 178800, Note_on_c, 12, 69, 52
14, 180209, Note_on_c, 12, 69, 0
14, 180240, Note_on_c, 12, 66, 52
14, 180329, Note_on_c, 12, 66, 0
14, 180360, Note_on_c, 12, 66, 52
14, 180449, Note_on_c, 12, 66, 0
14, 180480, Note_on_c, 12, 71, 52
14, 180959, Note_on_c, 12, 71, 0
14, 180960, Note_on_c, 12, 69, 52
14, 181439, Note_on_c, 12, 69, 0
14, 181440, Note_on_c, 12, 67, 52
14, 181889, Note_on_c, 12, 67, 0
14, 181920, Note_on_c, 12, 66, 76
14, 182099, Note_on_c, 12, 66, 0
14, 182160, Note_on_c, 12, 61, 76
14, 182339, Note_on_c, 12, 61, 0
14, 182760, Note_on_c, 12, 66, 84
14, 182879, Note_on_c, 12, 66, 0
14, 182880, Note_on_c, 12, 67, 84
14, 183059, Note_on_c, 12, 67, 0
14, 183240, Note_on_c, 12, 61, 84
14, 183329, Note_on_c, 12, 61, 0
14, 183360, Note_on_c, 12, 61, 92
14, 183419, Note_on_c, 12, 61, 0
14, 183420, Note_on_c, 12, 62, 84
14, 183479, Note_on_c, 12, 62, 0
14, 183480, Note_on_c, 12, 61, 84
14, 183539, Note_on_c, 12, 61, 0
14, 183540, Note_on_c, 12, 62, 84
14, 183599, Note_on_c, 12, 62, 0
14, 183600, Note_on_c, 12, 61, 84
14, 183659, Note_on_c, 12, 61, 0
14, 183660, Note_on_c, 12, 62, 84
14, 183719, Note_on_c, 12, 62, 0
14, 183720, Note_on_c, 12, 59, 84
14, 183779, Note_on_c, 12, 59, 0
14, 183780, Note_on_c, 12, 61, 84
14, 183824, Note_on_c, 12, 61, 0
14, 183840, Note_on_c, 12, 64, 84
14, 184019, Note_on_c, 12, 64, 0
14, 184080, Note_on_c, 12, 57, 84
14, 184259, Note_on_c, 12, 57, 0
14, 184560, Note_on_c, 12, 69, 52
14, 185969, Note_on_c, 12, 69, 0
14, 186000, Note_on_c, 12, 66, 52
14, 186089, Note_on_c, 12, 66, 0
14, 186120, Note_on_c, 12, 66, 52
14, 186209, Note_on_c, 12, 66, 0
14, 186240, Note_on_c, 12, 71, 52
14, 186719, Note_on_c, 12, 71, 0
14, 186720, Note_on_c, 12, 69, 52
14, 187199, Note_on_c, 12, 69, 0
14, 187200, Note_on_c, 12, 67, 52
14, 187649, Note_on_c, 12, 67, 0
14, 187680, Note_on_c, 12, 66, 76
14, 187919, Note_on_c, 12, 66, 0
14, 188520, Note_on_c, 12, 62, 76
14, 188609, Note_on_c, 12, 62, 0
14, 188640, Note_on_c, 12, 64, 76
14, 188819, Note_on_c, 12, 64, 0
14, 188880, Note_on_c, 12, 66, 76
14, 189059, Note_on_c, 12, 66, 0
14, 189120, Note_on_c, 12, 67, 76
14, 189299, Note_on_c, 12, 67, 0
14, 189360, Note_on_c, 12, 65, 76
14, 189539, Note_on_c, 12, 65, 0
14, 189600, Note_on_c, 12, 66, 76
14, 189839, Note_on_c, 12, 66, 0
14, 190440, Note_on_c, 12, 66, 76
14, 190529, Note_on_c, 12, 66, 0
14, 190560, Note_on_c, 12, 67, 76
14, 190739, Note_on_c, 12, 67, 0
14, 190800, Note_on_c, 12, 57, 76
14, 190979, Note_on_c, 12, 57, 0
14, 191040, Note_on_c, 12, 59, 76
14, 191219, Note_on_c, 12, 59, 0
14, 191280, Note_on_c, 12, 61, 76
14, 191459, Note_on_c, 12, 61, 0
14, 191520, Note_on_c, 12, 62, 84
14, 191759, Note_on_c, 12, 62, 0
14, 192240, Note_on_c, 12, 62, 76
14, 192329, Note_on_c, 12, 62, 0
14, 192360, Note_on_c, 12, 62, 76
14, 192449, Note_on_c, 12, 62, 0
14, 192480, Note_on_c, 12, 64, 76
14, 192569, Note_on_c, 12, 64, 0
14, 192600, Note_on_c, 12, 64, 76
14, 192689, Note_on_c, 12, 64, 0
14, 192720, Note_on_c, 12, 66, 76
14, 192809, Note_on_c, 12, 66, 0
14, 192840, Note_on_c, 12, 66, 76
14, 192929, Note_on_c, 12, 66, 0
14, 192960, Note_on_c, 12, 67, 76
14, 193049, Note_on_c, 12, 67, 0
14, 193080, Note_on_c, 12, 67, 76
14, 193169, Note_on_c, 12, 67, 0
14, 193200, Note_on_c, 12, 65, 76
14, 193289, Note_on_c, 12, 65, 0
14, 193320, Note_on_c, 12, 65, 76
14, 193409, Note_on_c, 12, 65, 0
14, 193440, Note_on_c, 12, 66, 84
14, 193679, Note_on_c, 12, 66, 0
14, 194160, Note_on_c, 12, 66, 76
14, 194249, Note_on_c, 12, 66, 0
14, 194280, Note_on_c, 12, 66, 76
14, 194369, Note_on_c, 12, 66, 0
14, 194400, Note_on_c, 12, 67, 76
14, 194489, Note_on_c, 12, 67, 0
14, 194520, Note_on_c, 12, 67, 76
14, 194609, Note_on_c, 12, 67, 0
14, 194640, Note_on_c, 12, 66, 76
14, 194729, Note_on_c, 12, 66, 0
14, 194760, Note_on_c, 12, 66, 76
14, 194849, Note_on_c, 12, 66, 0
14, 194880, Note_on_c, 12, 67, 76
14, 194969, Note_on_c, 12, 67, 0
14, 195000, Note_on_c, 12, 67, 76
14, 195089, Note_on_c, 12, 67, 0
14, 195120, Note_on_c, 12, 68, 76
14, 195209, Note_on_c, 12, 68, 0
14, 195240, Note_on_c, 12, 68, 76
14, 195329, Note_on_c, 12, 68, 0
14, 195360, Note_on_c, 12, 69, 84
14, 195449, Note_on_c, 12, 69, 0
14, 195480, Note_on_c, 12, 64, 84
14, 195569, Note_on_c, 12, 64, 0
14, 195600, Note_on_c, 12, 64, 84
14, 195689, Note_on_c, 12, 64, 0
14, 195720, Note_on_c, 12, 64, 84
14, 195809, Note_on_c, 12, 64, 0
14, 195840, Note_on_c, 12, 67, 84
14, 195929, Note_on_c, 12, 67, 0
14, 195960, Note_on_c, 12, 67, 84
14, 196049, Note_on_c, 12, 67, 0
14, 196080, Note_on_c, 12, 67, 84
14, 196169, Note_on_c, 12, 67, 0
14, 196200, Note_on_c, 12, 67, 84
14, 196289, Note_on_c, 12, 67, 0
14, 196320, Note_on_c, 12, 66, 84
14, 196409, Note_on_c, 12, 66, 0
14, 196440, Note_on_c, 12, 66, 84
14, 196529, Note_on_c, 12, 66, 0
14, 196560, Note_on_c, 12, 66, 84
14, 196649, Note_on_c, 12, 66, 0
14, 196680, Note_on_c, 12, 66, 84
14, 196769, Note_on_c, 12, 66, 0
14, 196800, Note_on_c, 12, 65, 84
14, 196889, Note_on_c, 12, 65, 0
14, 196920, Note_on_c, 12, 65, 84
14, 197009, Note_on_c, 12, 65, 0
14, 197040, Note_on_c, 12, 65, 84
14, 197129, Note_on_c, 12, 65, 0
14, 197160, Note_on_c, 12, 65, 84
14, 197249, Note_on_c, 12, 65, 0
14, 197280, Note_on_c, 12, 64, 84
14, 197369, Note_on_c, 12, 64, 0
14, 197400, Note_on_c, 12, 76, 84
14, 197489, Note_on_c, 12, 76, 0
14, 197520, Note_on_c, 12, 76, 84
14, 197609, Note_on_c, 12, 76, 0
14, 197640, Note_on_c, 12, 76, 84
14, 197729, Note_on_c, 12, 76, 0
14, 197760, Note_on_c, 12, 79, 84
14, 197849, Note_on_c, 12, 79, 0
14, 197880, Note_on_c, 12, 79, 84
14, 197969, Note_on_c, 12, 79, 0
14, 198000, Note_on_c, 12, 79, 84
14, 198089, Note_on_c, 12, 79, 0
14, 198120, Note_on_c, 12, 79, 84
14, 198209, Note_on_c, 12, 79, 0
14, 198240, Note_on_c, 12, 78, 84
14, 198329, Note_on_c, 12, 78, 0
14, 198360, Note_on_c, 12, 78, 84
14, 198449, Note_on_c, 12, 78, 0
14, 198480, Note_on_c, 12, 78, 84
14, 198569, Note_on_c, 12, 78, 0
14, 198600, Note_on_c, 12, 78, 84
14, 198689, Note_on_c, 12, 78, 0
14, 198720, Note_on_c, 12, 77, 84
14, 198809, Note_on_c, 12, 77, 0
14, 198840, Note_on_c, 12, 77, 84
14, 198929, Note_on_c, 12, 77, 0
14, 198960, Note_on_c, 12, 77, 84
14, 199049, Note_on_c, 12, 77, 0
14, 199080, Note_on_c, 12, 77, 84
14, 199169, Note_on_c, 12, 77, 0
14, 199200, Note_on_c, 12, 76, 84
14, 199379, Note_on_c, 12, 76, 0
14, 199440, Note_on_c, 12, 57, 84
14, 199619, Note_on_c, 12, 57, 0
14, 199680, Note_on_c, 12, 57, 84
14, 199859, Note_on_c, 12, 57, 0
14, 199920, Note_on_c, 12, 57, 84
14, 200099, Note_on_c, 12, 57, 0
14, 200160, Note_on_c, 12, 57, 84
14, 200399, Note_on_c, 12, 57, 0
14, 202080, Note_on_c, 12, 61, 52
14, 202559, Note_on_c, 12, 61, 0
14, 202560, Note_on_c, 12, 62, 52
14, 202799, Note_on_c, 12, 62, 0
14, 202800, Note_on_c, 12, 64, 52
14, 203009, Note_on_c, 12, 64, 0
14, 203040, Note_on_c, 12, 66, 52
14, 203969, Note_on_c, 12, 66, 0
14, 204000, Note_on_c, 12, 61, 52
14, 204479, Note_on_c, 12, 61, 0
14, 204480, Note_on_c, 12, 62, 52
14, 204719, Note_on_c, 12, 62, 0
14, 204720, Note_on_c, 12, 64, 52
14, 204929, Note_on_c, 12, 64, 0
14, 204960, Note_on_c, 12, 66, 52
14, 205439, Note_on_c, 12, 66, 0
14, 205440, Note_on_c, 12, 74, 52
14, 206369, Note_on_c, 12, 74, 0
14, 206400, Note_on_c, 12, 74, 52
14, 207119, Note_on_c, 12, 74, 0
14, 207120, Note_on_c, 12, 73, 52
14, 207359, Note_on_c, 12, 73, 0
14, 207360, Note_on_c, 12, 71, 52
14, 207599, Note_on_c, 12, 71, 0
14, 207600, Note_on_c, 12, 69, 52
14, 207809, Note_on_c, 12, 69, 0
14, 207840, Note_on_c, 12, 69, 52
14, 208079, Note_on_c, 12, 69, 0
14, 208080, Note_on_c, 12, 68, 52
14, 208319, Note_on_c, 12, 68, 0
14, 208320, Note_on_c, 12, 66, 52
14, 208559, Note_on_c, 12, 66, 0
14, 208560, Note_on_c, 12, 64, 52
14, 208769, Note_on_c, 12, 64, 0
14, 208800, Note_on_c, 12, 69, 52
14, 209489, Note_on_c, 12, 69, 0
14, 209520, Note_on_c, 12, 69, 52
14, 209729, Note_on_c, 12, 69, 0
14, 209760, Note_on_c, 12, 69, 52
14, 209999, Note_on_c, 12, 69, 0
14, 210000, Note_on_c, 12, 68, 52
14, 210239, Note_on_c, 12, 68, 0
14, 210240, Note_on_c, 12, 66, 52
14, 210479, Note_on_c, 12, 66, 0
14, 210480, Note_on_c, 12, 64, 52
14, 210689, Note_on_c, 12, 64, 0
14, 210720, Note_on_c, 12, 69, 52
14, 210899, Note_on_c, 12, 69, 0
14, 211680, Control_c, 12, 11, 96
14, 211760, Control_c, 12, 11, 99
14, 211840, Control_c, 12, 11, 101
14, 211920, Control_c, 12, 11, 104
14, 212000, Control_c, 12, 11, 106
14, 212080, Control_c, 12, 11, 109
14, 212160, Control_c, 12, 11, 112
14, 212160, Note_on_c, 12, 62, 68
14, 212240, Control_c, 12, 11, 114
14, 212320, Control_c, 12, 11, 117
14, 212400, Control_c, 12, 11, 119
14, 212480, Control_c, 12, 11, 122
14, 212560, Control_c, 12, 11, 124
14, 212640, Control_c, 12, 11, 96
14, 212879, Note_on_c, 12, 62, 0
14, 213600, Note_on_c, 12, 69, 68
14, 213839, Note_on_c, 12, 69, 0
14, 214560, Note_on_c, 12, 67, 68
14, 214799, Note_on_c, 12, 67, 0
14, 215520, Note_on_c, 12, 69, 68
14, 215759, Note_on_c, 12, 69, 0
14, 216240, Control_c, 12, 11, 80
14, 216480, Note_on_c, 12, 67, 76
14, 216689, Note_on_c, 12, 67, 0
14, 216720, Note_on_c, 12, 62, 76
14, 216720, Control_c, 12, 11, 80
14, 216860, Control_c, 12, 11, 84
14, 217000, Control_c, 12, 11, 88
14, 217140, Control_c, 12, 11, 92
14, 217199, Note_on_c, 12, 62, 0
14, 217200, Note_on_c, 12, 63, 76
14, 217280, Control_c, 12, 11, 96
14, 217420, Control_c, 12, 11, 100
14, 217439, Note_on_c, 12, 63, 0
14, 217440, Note_on_c, 12, 64, 76
14, 217560, Control_c, 12, 11, 104
14, 217679, Note_on_c, 12, 64, 0
14, 217680, Note_on_c, 12, 66, 76
14, 217700, Control_c, 12, 11, 107
14, 217840, Control_c, 12, 11, 111
14, 217919, Note_on_c, 12, 66, 0
14, 217920, Note_on_c, 12, 67, 76
14, 217980, Control_c, 12, 11, 115
14, 218120, Control_c, 12, 11, 119
14, 218159, Note_on_c, 12, 67, 0
14, 218160, Note_on_c, 12, 71, 76
14, 218260, Control_c, 12, 11, 123
14, 218369, Note_on_c, 12, 71, 0
14, 218400, Note_on_c, 12, 64, 76
14, 218400, Control_c, 12, 11, 127
14, 218639, Note_on_c, 12, 64, 0
14, 219360, Note_on_c, 12, 61, 84
14, 219449, Note_on_c, 12, 61, 0
14, 219480, Note_on_c, 12, 61, 76
14, 219569, Note_on_c, 12, 61, 0
14, 219600, Note_on_c, 12, 64, 76
14, 219689, Note_on_c, 12, 64, 0
14, 219720, Note_on_c, 12, 64, 76
14, 219809, Note_on_c, 12, 64, 0
14, 219840, Note_on_c, 12, 69, 76
14, 219929, Note_on_c, 12, 69, 0
14, 219960, Note_on_c, 12, 69, 76
14, 220049, Note_on_c, 12, 69, 0
14, 220080, Note_on_c, 12, 73, 76
14, 220169, Note_on_c, 12, 73, 0
14, 220200, Note_on_c, 12, 73, 76
14, 220289, Note_on_c, 12, 73, 0
14, 220320, Note_on_c, 12, 74, 76
14, 220559, Note_on_c, 12, 74, 0
14, 221280, Note_on_c, 12, 62, 84
14, 221369, Note_on_c, 12, 62, 0
14, 221400, Note_on_c, 12, 62, 76
14, 221489, Note_on_c, 12, 62, 0
14, 221520, Note_on_c, 12, 68, 76
14, 221609, Note_on_c, 12, 68, 0
14, 221640, Note_on_c, 12, 68, 76
14, 221729, Note_on_c, 12, 68, 0
14, 221760, Note_on_c, 12, 71, 76
14, 221849, Note_on_c, 12, 71, 0
14, 221880, Note_on_c, 12, 71, 76
14, 221969, Note_on_c, 12, 71, 0
14, 222000, Note_on_c, 12, 74, 76
14, 222089, Note_on_c, 12, 74, 0
14, 222120, Note_on_c, 12, 74, 76
14, 222209, Note_on_c, 12, 74, 0
14, 222240, Note_on_c, 12, 76, 76
14, 222449, Note_on_c, 12, 76, 0
14, 222480, Note_on_c, 12, 64, 76
14, 222480, Note_on_c, 12, 61, 76
14, 222569, Note_on_c, 12, 64, 0
14, 222569, Note_on_c, 12, 61, 0
14, 222600, Note_on_c, 12, 64, 76
14, 222600, Note_on_c, 12, 61, 76
14, 222689, Note_on_c, 12, 64, 0
14, 222689, Note_on_c, 12, 61, 0
14, 222720, Note_on_c, 12, 64, 84
14, 222720, Note_on_c, 12, 61, 84
14, 222809, Note_on_c, 12, 64, 0
14, 222809, Note_on_c, 12, 61, 0
14, 222840, Note_on_c, 12, 64, 76
14, 222840, Note_on_c, 12, 61, 76
14, 222929, Note_on_c, 12, 64, 0
14, 222929, Note_on_c, 12, 61, 0
14, 222960, Note_on_c, 12, 61, 76
14, 222960, Note_on_c, 12, 64, 76
14, 223049, Note_on_c, 12, 61, 0
14, 223049, Note_on_c, 12, 64, 0
14, 223080, Note_on_c, 12, 61, 76
14, 223080, Note_on_c, 12, 64, 76
14, 223169, Note_on_c, 12, 61, 0
14, 223169, Note_on_c, 12, 64, 0
14, 223200, Note_on_c, 12, 62, 76
14, 223200, Note_on_c, 12, 66, 76
14, 223289, Note_on_c, 12, 62, 0
14, 223289, Note_on_c, 12, 66, 0
14, 223320, Note_on_c, 12, 62, 76
14, 223320, Note_on_c, 12, 66, 76
14, 223409, Note_on_c, 12, 62, 0
14, 223409, Note_on_c, 12, 66, 0
14, 223440, Note_on_c, 12, 66, 76
14, 223440, Note_on_c, 12, 62, 76
14, 223529, Note_on_c, 12, 66, 0
14, 223529, Note_on_c, 12, 62, 0
14, 223560, Note_on_c, 12, 62, 76
14, 223560, Note_on_c, 12, 66, 76
14, 223649, Note_on_c, 12, 62, 0
14, 223649, Note_on_c, 12, 66, 0
14, 223680, Note_on_c, 12, 66, 84
14, 223680, Note_on_c, 12, 62, 84
14, 223769, Note_on_c, 12, 66, 0
14, 223769, Note_on_c, 12, 62, 0
14, 223800, Note_on_c, 12, 62, 76
14, 223800, Note_on_c, 12, 66, 76
14, 223889, Note_on_c, 12, 62, 0
14, 223889, Note_on_c, 12, 66, 0
14, 223920, Note_on_c, 12, 66, 76
14, 223920, Note_on_c, 12, 62, 76
14, 224009, Note_on_c, 12, 66, 0
14, 224009, Note_on_c, 12, 62, 0
14, 224040, Note_on_c, 12, 66, 76
14, 224040, Note_on_c, 12, 62, 76
14, 224129, Note_on_c, 12, 66, 0
14, 224129, Note_on_c, 12, 62, 0
14, 224160, Note_on_c, 12, 67, 76
14, 224399, Note_on_c, 12, 67, 0
14, 226320, Note_on_c, 12, 66, 52
14, 226499, Note_on_c, 12, 66, 0
14, 226560, Note_on_c, 12, 62, 52
14, 226739, Note_on_c, 12, 62, 0
14, 226800, Note_on_c, 12, 66, 52
14, 226979, Note_on_c, 12, 66, 0
14, 227280, Note_on_c, 12, 66, 52
14, 227459, Note_on_c, 12, 66, 0
14, 227520, Note_on_c, 12, 62, 52
14, 227699, Note_on_c, 12, 62, 0
14, 227760, Note_on_c, 12, 66, 52
14, 227939, Note_on_c, 12, 66, 0
14, 228240, Note_on_c, 12, 67, 52
14, 228419, Note_on_c, 12, 67, 0
14, 228480, Note_on_c, 12, 64, 52
14, 228659, Note_on_c, 12, 64, 0
14, 228720, Note_on_c, 12, 67, 52
14, 228899, Note_on_c, 12, 67, 0
14, 229200, Note_on_c, 12, 67, 68
14, 229379, Note_on_c, 12, 67, 0
14, 229440, Note_on_c, 12, 64, 52
14, 229619, Note_on_c, 12, 64, 0
14, 229680, Note_on_c, 12, 67, 52
14, 229859, Note_on_c, 12, 67, 0
14, 229920, Note_on_c, 12, 66, 52
14, 230099, Note_on_c, 12, 66, 0
14, 230160, Note_on_c, 12, 66, 52
14, 230339, Note_on_c, 12, 66, 0
14, 230400, Note_on_c, 12, 62, 52
14, 230579, Note_on_c, 12, 62, 0
14, 230640, Note_on_c, 12, 66, 52
14, 230819, Note_on_c, 12, 66, 0
14, 231120, Note_on_c, 12, 66, 52
14, 231299, Note_on_c, 12, 66, 0
14, 231360, Note_on_c, 12, 62, 52
14, 231539, Note_on_c, 12, 62, 0
14, 231600, Note_on_c, 12, 66, 52
14, 231779, Note_on_c, 12, 66, 0
14, 232080, Note_on_c, 12, 67, 52
14, 232259, Note_on_c, 12, 67, 0
14, 232320, Note_on_c, 12, 64, 52
14, 232499, Note_on_c, 12, 64, 0
14, 232560, Note_on_c, 12, 67, 52
14, 232739, Note_on_c, 12, 67, 0
14, 232800, Control_c, 12, 11, 96
14, 233040, Note_on_c, 12, 67, 84
14, 233219, Note_on_c, 12, 67, 0
14, 233280, Note_on_c, 12, 69, 68
14, 233459, Note_on_c, 12, 69, 0
14, 233520, Note_on_c, 12, 67, 68
14, 233699, Note_on_c, 12, 67, 0
14, 233760, Note_on_c, 12, 66, 68
14, 233939, Note_on_c, 12, 66, 0
14, 234000, Note_on_c, 12, 74, 68
14, 234000, Control_c, 12, 11, 96
14, 234179, Note_on_c, 12, 74, 0
14, 234220, Control_c, 12, 11, 99
14, 234240, Note_on_c, 12, 69, 68
14, 234419, Note_on_c, 12, 69, 0
14, 234440, Control_c, 12, 11, 101
14, 234480, Note_on_c, 12, 74, 68
14, 234659, Note_on_c, 12, 74, 0
14, 234660, Control_c, 12, 11, 104
14, 234880, Control_c, 12, 11, 106
14, 234960, Note_on_c, 12, 73, 68
14, 235100, Control_c, 12, 11, 109
14, 235139, Note_on_c, 12, 73, 0
14, 235200, Note_on_c, 12, 70, 68
14, 235320, Control_c, 12, 11, 112
14, 235379, Note_on_c, 12, 70, 0
14, 235440, Note_on_c, 12, 73, 68
14, 235540, Control_c, 12, 11, 114
14, 235619, Note_on_c, 12, 73, 0
14, 235760, Control_c, 12, 11, 117
14, 235920, Note_on_c, 12, 74, 68
14, 235980, Control_c, 12, 11, 119
14, 236099, Note_on_c, 12, 74, 0
14, 236160, Note_on_c, 12, 71, 68
14, 236200, Control_c, 12, 11, 122
14, 236339, Note_on_c, 12, 71, 0
14, 236400, Note_on_c, 12, 74, 68
14, 236420, Control_c, 12, 11, 124
14, 236579, Note_on_c, 12, 74, 0
14, 236640, Control_c, 12, 11, 127
14, 236880, Note_on_c, 12, 76, 76
14, 237059, Note_on_c, 12, 76, 0
14, 237120, Note_on_c, 12, 73, 68
14, 237299, Note_on_c, 12, 73, 0
14, 237360, Note_on_c, 12, 76, 68
14, 237539, Note_on_c, 12, 76, 0
14, 237840, Control_c, 12, 11, 127
14, 237840, Note_on_c, 12, 78, 68
14, 237900, Control_c, 12, 11, 124
14, 237960, Control_c, 12, 11, 122
14, 238019, Note_on_c, 12, 78, 0
14, 238020, Control_c, 12, 11, 119
14, 238080, Note_on_c, 12, 74, 68
14, 238080, Control_c, 12, 11, 117
14, 238140, Control_c, 12, 11, 114
14, 238200, Control_c, 12, 11, 112
14, 238259, Note_on_c, 12, 74, 0
14, 238260, Control_c, 12, 11, 109
14, 238320, Note_on_c, 12, 78, 68
14, 238320, Control_c, 12, 11, 106
14, 238380, Control_c, 12, 11, 104
14, 238440, Control_c, 12, 11, 101
14, 238499, Note_on_c, 12, 78, 0
14, 238500, Control_c, 12, 11, 99
14, 238560, Control_c, 12, 11, 96
14, 238800, Note_on_c, 12, 71, 68
14, 238979, Note_on_c, 12, 71, 0
14, 239040, Note_on_c, 12, 67, 68
14, 239219, Note_on_c, 12, 67, 0
14, 239280, Note_on_c, 12, 71, 68
14, 239459, Note_on_c, 12, 71, 0
14, 239760, Note_on_c, 12, 69, 68
14, 239939, Note_on_c, 12, 69, 0
14, 240000, Note_on_c, 12, 66, 68
14, 240179, Note_on_c, 12, 66, 0
14, 240240, Note_on_c, 12, 69, 68
14, 240419, Note_on_c, 12, 69, 0
14, 240720, Note_on_c, 12, 67, 68
14, 240899, Note_on_c, 12, 67, 0
14, 240960, Note_on_c, 12, 64, 68
14, 241139, Note_on_c, 12, 64, 0
14, 241200, Note_on_c, 12, 67, 68
14, 241379, Note_on_c, 12, 67, 0
14, 241440, Note_on_c, 12, 65, 68
14, 241619, Note_on_c, 12, 65, 0
14, 241680, Note_on_c, 12, 74, 68
14, 241859, Note_on_c, 12, 74, 0
14, 241920, Note_on_c, 12, 69, 68
14, 242099, Note_on_c, 12, 69, 0
14, 242160, Note_on_c, 12, 74, 68
14, 242339, Note_on_c, 12, 74, 0
14, 242640, Note_on_c, 12, 74, 68
14, 242819, Note_on_c, 12, 74, 0
14, 242880, Note_on_c, 12, 69, 68
14, 243059, Note_on_c, 12, 69, 0
14, 243120, Note_on_c, 12, 74, 68
14, 243299, Note_on_c, 12, 74, 0
14, 243600, Note_on_c, 12, 76, 68
14, 243779, Note_on_c, 12, 76, 0
14, 243840, Note_on_c, 12, 69, 68
14, 244019, Note_on_c, 12, 69, 0
14, 244080, Note_on_c, 12, 76, 68
14, 244259, Note_on_c, 12, 76, 0
14, 244560, Note_on_c, 12, 76, 84
14, 244739, Note_on_c, 12, 76, 0
14, 244800, Note_on_c, 12, 69, 68
14, 244979, Note_on_c, 12, 69, 0
14, 245040, Note_on_c, 12, 76, 68
14, 245219, Note_on_c, 12, 76, 0
14, 245280, Note_on_c, 12, 74, 68
14, 245459, Note_on_c, 12, 74, 0
14, 245520, Note_on_c, 12, 65, 68
14, 245520, Control_c, 12, 11, 96
14, 245699, Note_on_c, 12, 65, 0
14, 245740, Control_c, 12, 11, 99
14, 245760, Note_on_c, 12, 62, 68
14, 245939, Note_on_c, 12, 62, 0
14, 245960, Control_c, 12, 11, 101
14, 246000, Note_on_c, 12, 65, 68
14, 246179, Note_on_c, 12, 65, 0
14, 246180, Control_c, 12, 11, 104
14, 246400, Control_c, 12, 11, 106
14, 246480, Note_on_c, 12, 65, 68
14, 246620, Control_c, 12, 11, 109
14, 246659, Note_on_c, 12, 65, 0
14, 246720, Note_on_c, 12, 62, 68
14, 246840, Control_c, 12, 11, 112
14, 246899, Note_on_c, 12, 62, 0
14, 246960, Note_on_c, 12, 65, 68
14, 247060, Control_c, 12, 11, 114
14, 247139, Note_on_c, 12, 65, 0
14, 247280, Control_c, 12, 11, 117
14, 247440, Note_on_c, 12, 67, 68
14, 247500, Control_c, 12, 11, 119
14, 247619, Note_on_c, 12, 67, 0
14, 247680, Note_on_c, 12, 64, 68
14, 247720, Control_c, 12, 11, 122
14, 247859, Note_on_c, 12, 64, 0
14, 247920, Note_on_c, 12, 67, 68
14, 247940, Control_c, 12, 11, 124
14, 248099, Note_on_c, 12, 67, 0
14, 248160, Control_c, 12, 11, 127
14, 248400, Note_on_c, 12, 67, 68
14, 248579, Note_on_c, 12, 67, 0
14, 248640, Note_on_c, 12, 64, 68
14, 248819, Note_on_c, 12, 64, 0
14, 248880, Note_on_c, 12, 67, 68
14, 249059, Note_on_c, 12, 67, 0
14, 249120, Control_c, 12, 11, 127
14, 249200, Control_c, 12, 11, 124
14, 249280, Control_c, 12, 11, 122
14, 249360, Control_c, 12, 11, 119
14, 249360, Note_on_c, 12, 69, 68
14, 249440, Control_c, 12, 11, 117
14, 249520, Control_c, 12, 11, 114
14, 249539, Note_on_c, 12, 69, 0
14, 249600, Note_on_c, 12, 65, 68
14, 249600, Control_c, 12, 11, 112
14, 249680, Control_c, 12, 11, 109
14, 249760, Control_c, 12, 11, 106
14, 249779, Note_on_c, 12, 65, 0
14, 249840, Control_c, 12, 11, 104
14, 249840, Note_on_c, 12, 69, 68
14, 249920, Control_c, 12, 11, 101
14, 250000, Control_c, 12, 11, 99
14, 250019, Note_on_c, 12, 69, 0
14, 250080, Control_c, 12, 11, 96
14, 250320, Note_on_c, 12, 67, 68
14, 250499, Note_on_c, 12, 67, 0
14, 250560, Note_on_c, 12, 62, 68
14, 250739, Note_on_c, 12, 62, 0
14, 250800, Note_on_c, 12, 67, 68
14, 250979, Note_on_c, 12, 67, 0
14, 251280, Note_on_c, 12, 65, 68
14, 251459, Note_on_c, 12, 65, 0
14, 251520, Note_on_c, 12, 60, 68
14, 251699, Note_on_c, 12, 60, 0
14, 251760, Note_on_c, 12, 65, 68
14, 251939, Note_on_c, 12, 65, 0
14, 252240, Note_on_c, 12, 67, 68
14, 252419, Note_on_c, 12, 67, 0
14, 252480, Note_on_c, 12, 64, 68
14, 252659, Note_on_c, 12, 64, 0
14, 252720, Note_on_c, 12, 67, 68
14, 252899, Note_on_c, 12, 67, 0
14, 252960, Control_c, 12, 11, 80
14, 253200, Note_on_c, 12, 69, 76
14, 253200, Control_c, 12, 11, 80
14, 253379, Note_on_c, 12, 69, 0
14, 253440, Note_on_c, 12, 65, 76
14, 253500, Control_c, 12, 11, 84
14, 253619, Note_on_c, 12, 65, 0
14, 253680, Note_on_c, 12, 69, 76
14, 253800, Control_c, 12, 11, 88
14, 253859, Note_on_c, 12, 69, 0
14, 254100, Control_c, 12, 11, 92
14, 254160, Note_on_c, 12, 70, 76
14, 254339, Note_on_c, 12, 70, 0
14, 254400, Control_c, 12, 11, 96
14, 254400, Note_on_c, 12, 67, 76
14, 254579, Note_on_c, 12, 67, 0
14, 254640, Note_on_c, 12, 70, 76
14, 254700, Control_c, 12, 11, 100
14, 254819, Note_on_c, 12, 70, 0
14, 255000, Control_c, 12, 11, 104
14, 255120, Note_on_c, 12, 69, 76
14, 255299, Note_on_c, 12, 69, 0
14, 255300, Control_c, 12, 11, 107
14, 255360, Note_on_c, 12, 65, 76
14, 255539, Note_on_c, 12, 65, 0
14, 255600, Control_c, 12, 11, 111
14, 255600, Note_on_c, 12, 69, 76
14, 255779, Note_on_c, 12, 69, 0
14, 255900, Control_c, 12, 11, 115
14, 256080, Note_on_c, 12, 69, 76
14, 256200, Control_c, 12, 11, 119
14, 256259, Note_on_c, 12, 69, 0
14, 256320, Note_on_c, 12, 64, 76
14, 256499, Note_on_c, 12, 64, 0
14, 256500, Control_c, 12, 11, 123
14, 256560, Note_on_c, 12, 69, 76
14, 256739, Note_on_c, 12, 69, 0
14, 256800, Control_c, 12, 11, 127
14, 256800, Note_on_c, 12, 69, 76
14, 256889, Note_on_c, 12, 69, 0
14, 256920, Note_on_c, 12, 69, 76
14, 257009, Note_on_c, 12, 69, 0
14, 257040, Note_on_c, 12, 69, 76
14, 257129, Note_on_c, 12, 69, 0
14, 257160, Note_on_c, 12, 69, 76
14, 257249, Note_on_c, 12, 69, 0
14, 257280, Note_on_c, 12, 69, 76
14, 257369, Note_on_c, 12, 69, 0
14, 257400, Note_on_c, 12, 69, 76
14, 257489, Note_on_c, 12, 69, 0
14, 257520, Note_on_c, 12, 69, 76
14, 257609, Note_on_c, 12, 69, 0
14, 257640, Note_on_c, 12, 69, 76
14, 257729, Note_on_c, 12, 69, 0
14, 257760, Note_on_c, 12, 66, 76
14, 257849, Note_on_c, 12, 66, 0
14, 257880, Note_on_c, 12, 66, 76
14, 257969, Note_on_c, 12, 66, 0
14, 258000, Note_on_c, 12, 66, 76
14, 258089, Note_on_c, 12, 66, 0
14, 258120, Note_on_c, 12, 66, 76
14, 258209, Note_on_c, 12, 66, 0
14, 258240, Note_on_c, 12, 66, 76
14, 258329, Note_on_c, 12, 66, 0
14, 258360, Note_on_c, 12, 66, 76
14, 258449, Note_on_c, 12, 66, 0
14, 258480, Note_on_c, 12, 62, 76
14, 258569, Note_on_c, 12, 62, 0
14, 258600, Note_on_c, 12, 62, 76
14, 258689, Note_on_c, 12, 62, 0
14, 258720, Note_on_c, 12, 71, 76
14, 258809, Note_on_c, 12, 71, 0
14, 258840, Note_on_c, 12, 71, 76
14, 258929, Note_on_c, 12, 71, 0
14, 258960, Note_on_c, 12, 71, 76
14, 259049, Note_on_c, 12, 71, 0
14, 259080, Note_on_c, 12, 71, 76
14, 259169, Note_on_c, 12, 71, 0
14, 259200, Note_on_c, 12, 71, 76
14, 259289, Note_on_c, 12, 71, 0
14, 259320, Note_on_c, 12, 71, 76
14, 259409, Note_on_c, 12, 71, 0
14, 259440, Note_on_c, 12, 71, 76
14, 259529, Note_on_c, 12, 71, 0
14, 259560, Note_on_c, 12, 71, 76
14, 259649, Note_on_c, 12, 71, 0
14, 259680, Note_on_c, 12, 67, 76
14, 259769, Note_on_c, 12, 67, 0
14, 259800, Note_on_c, 12, 67, 76
14, 259889, Note_on_c, 12, 67, 0
14, 259920, Note_on_c, 12, 67, 76
14, 260009, Note_on_c, 12, 67, 0
14, 260040, Note_on_c, 12, 67, 76
14, 260129, Note_on_c, 12, 67, 0
14, 260160, Note_on_c, 12, 67, 76
14, 260249, Note_on_c, 12, 67, 0
14, 260280, Note_on_c, 12, 67, 76
14, 260369, Note_on_c, 12, 67, 0
14, 260400, Note_on_c, 12, 64, 76
14, 260489, Note_on_c, 12, 64, 0
14, 260520, Note_on_c, 12, 64, 76
14, 260609, Note_on_c, 12, 64, 0
14, 260640, Note_on_c, 12, 69, 84
14, 260729, Note_on_c, 12, 69, 0
14, 260760, Note_on_c, 12, 69, 76
14, 260849, Note_on_c, 12, 69, 0
14, 260880, Note_on_c, 12, 69, 76
14, 260969, Note_on_c, 12, 69, 0
14, 261000, Note_on_c, 12, 69, 76
14, 261089, Note_on_c, 12, 69, 0
14, 261120, Note_on_c, 12, 66, 76
14, 261209, Note_on_c, 12, 66, 0
14, 261240, Note_on_c, 12, 66, 76
14, 261329, Note_on_c, 12, 66, 0
14, 261360, Note_on_c, 12, 62, 76
14, 261449, Note_on_c, 12, 62, 0
14, 261480, Note_on_c, 12, 62, 76
14, 261569, Note_on_c, 12, 62, 0
14, 261600, Note_on_c, 12, 69, 84
14, 261689, Note_on_c, 12, 69, 0
14, 261720, Note_on_c, 12, 69, 76
14, 261809, Note_on_c, 12, 69, 0
14, 261840, Note_on_c, 12, 69, 76
14, 261929, Note_on_c, 12, 69, 0
14, 261960, Note_on_c, 12, 69, 76
14, 262049, Note_on_c, 12, 69, 0
14, 262080, Note_on_c, 12, 64, 76
14, 262169, Note_on_c, 12, 64, 0
14, 262200, Note_on_c, 12, 64, 76
14, 262289, Note_on_c, 12, 64, 0
14, 262320, Note_on_c, 12, 61, 76
14, 262409, Note_on_c, 12, 61, 0
14, 262440, Note_on_c, 12, 61, 76
14, 262529, Note_on_c, 12, 61, 0
14, 262560, Note_on_c, 12, 62, 76
14, 262649, Note_on_c, 12, 62, 0
14, 262680, Note_on_c, 12, 81, 76
14, 262769, Note_on_c, 12, 81, 0
14, 262800, Note_on_c, 12, 81, 76
14, 262889, Note_on_c, 12, 81, 0
14, 262920, Note_on_c, 12, 81, 76
14, 263009, Note_on_c, 12, 81, 0
14, 263040, Note_on_c, 12, 81, 76
14, 263129, Note_on_c, 12, 81, 0
14, 263160, Note_on_c, 12, 81, 76
14, 263249, Note_on_c, 12, 81, 0
14, 263280, Note_on_c, 12, 81, 76
14, 263369, Note_on_c, 12, 81, 0
14, 263400, Note_on_c, 12, 81, 76
14, 263489, Note_on_c, 12, 81, 0
14, 263520, Note_on_c, 12, 78, 84
14, 263609, Note_on_c, 12, 78, 0
14, 263640, Note_on_c, 12, 78, 76
14, 263729, Note_on_c, 12, 78, 0
14, 263760, Note_on_c, 12, 78, 76
14, 263849, Note_on_c, 12, 78, 0
14, 263880, Note_on_c, 12, 78, 76
14, 263969, Note_on_c, 12, 78, 0
14, 264000, Note_on_c, 12, 78, 76
14, 264089, Note_on_c, 12, 78, 0
14, 264120, Note_on_c, 12, 78, 76
14, 264209, Note_on_c, 12, 78, 0
14, 264240, Note_on_c, 12, 74, 76
14, 264329, Note_on_c, 12, 74, 0
14, 264360, Note_on_c, 12, 74, 76
14, 264449, Note_on_c, 12, 74, 0
14, 264480, Note_on_c, 12, 83, 76
14, 264569, Note_on_c, 12, 83, 0
14, 264600, Note_on_c, 12, 83, 76
14, 264689, Note_on_c, 12, 83, 0
14, 264720, Note_on_c, 12, 83, 76
14, 264809, Note_on_c, 12, 83, 0
14, 264840, Note_on_c, 12, 83, 76
14, 264929, Note_on_c, 12, 83, 0
14, 264960, Note_on_c, 12, 83, 76
14, 265049, Note_on_c, 12, 83, 0
14, 265080, Note_on_c, 12, 83, 76
14, 265169, Note_on_c, 12, 83, 0
14, 265200, Note_on_c, 12, 83, 76
14, 265289, Note_on_c, 12, 83, 0
14, 265320, Note_on_c, 12, 83, 76
14, 265409, Note_on_c, 12, 83, 0
14, 265440, Note_on_c, 12, 79, 84
14, 265529, Note_on_c, 12, 79, 0
14, 265560, Note_on_c, 12, 79, 76
14, 265649, Note_on_c, 12, 79, 0
14, 265680, Note_on_c, 12, 79, 76
14, 265769, Note_on_c, 12, 79, 0
14, 265800, Note_on_c, 12, 79, 76
14, 265889, Note_on_c, 12, 79, 0
14, 265920, Note_on_c, 12, 79, 76
14, 266009, Note_on_c, 12, 79, 0
14, 266040, Note_on_c, 12, 79, 76
14, 266129, Note_on_c, 12, 79, 0
14, 266160, Note_on_c, 12, 74, 76
14, 266249, Note_on_c, 12, 74, 0
14, 266280, Note_on_c, 12, 74, 76
14, 266369, Note_on_c, 12, 74, 0
14, 266400, Note_on_c, 12, 84, 84
14, 266400, Note_on_c, 12, 74, 84
14, 266489, Note_on_c, 12, 84, 0
14, 266489, Note_on_c, 12, 74, 0
14, 266520, Note_on_c, 12, 84, 84
14, 266520, Note_on_c, 12, 74, 84
14, 266609, Note_on_c, 12, 84, 0
14, 266609, Note_on_c, 12, 74, 0
14, 266640, Note_on_c, 12, 84, 84
14, 266640, Note_on_c, 12, 74, 84
14, 266729, Note_on_c, 12, 84, 0
14, 266729, Note_on_c, 12, 74, 0
14, 266760, Note_on_c, 12, 74, 84
14, 266760, Note_on_c, 12, 84, 84
14, 266849, Note_on_c, 12, 74, 0
14, 266849, Note_on_c, 12, 84, 0
14, 266880, Note_on_c, 12, 74, 84
14, 266880, Note_on_c, 12, 84, 84
14, 266969, Note_on_c, 12, 74, 0
14, 266969, Note_on_c, 12, 84, 0
14, 267000, Note_on_c, 12, 84, 84
14, 267000, Note_on_c, 12, 74, 84
14, 267089, Note_on_c, 12, 84, 0
14, 267089, Note_on_c, 12, 74, 0
14, 267120, Note_on_c, 12, 84, 84
14, 267120, Note_on_c, 12, 74, 84
14, 267209, Note_on_c, 12, 84, 0
14, 267209, Note_on_c, 12, 74, 0
14, 267240, Note_on_c, 12, 84, 84
14, 267240, Note_on_c, 12, 74, 84
14, 267329, Note_on_c, 12, 84, 0
14, 267329, Note_on_c, 12, 74, 0
14, 267360, Note_on_c, 12, 84, 84
14, 267360, Note_on_c, 12, 74, 84
14, 267449, Note_on_c, 12, 84, 0
14, 267449, Note_on_c, 12, 74, 0
14, 267480, Note_on_c, 12, 74, 84
14, 267480, Note_on_c, 12, 84, 84
14, 267569, Note_on_c, 12, 74, 0
14, 267569, Note_on_c, 12, 84, 0
14, 267600, Note_on_c, 12, 74, 84
14, 267600, Note_on_c, 12, 84, 84
14, 267689, Note_on_c, 12, 74, 0
14, 267689, Note_on_c, 12, 84, 0
14, 267720, Note_on_c, 12, 74, 84
14, 267720, Note_on_c, 12, 84, 84
14, 267809, Note_on_c, 12, 74, 0
14, 267809, Note_on_c, 12, 84, 0
14, 267840, Note_on_c, 12, 84, 84
14, 267840, Note_on_c, 12, 74, 84
14, 267929, Note_on_c, 12, 84, 0
14, 267929, Note_on_c, 12, 74, 0
14, 267960, Note_on_c, 12, 84, 84
14, 267960, Note_on_c, 12, 74, 84
14, 268049, Note_on_c, 12, 84, 0
14, 268049, Note_on_c, 12, 74, 0
14, 268080, Note_on_c, 12, 84, 84
14, 268080, Note_on_c, 12, 74, 84
14, 268169, Note_on_c, 12, 84, 0
14, 268169, Note_on_c, 12, 74, 0
14, 268200, Note_on_c, 12, 74, 84
14, 268200, Note_on_c, 12, 84, 84
14, 268289, Note_on_c, 12, 74, 0
14, 268289, Note_on_c, 12, 84, 0
14, 268320, Note_on_c, 12, 84, 84
14, 268320, Note_on_c, 12, 74, 84
14, 268409, Note_on_c, 12, 84, 0
14, 268409, Note_on_c, 12, 74, 0
14, 268440, Note_on_c, 12, 84, 84
14, 268440, Note_on_c, 12, 74, 84
14, 268529, Note_on_c, 12, 84, 0
14, 268529, Note_on_c, 12, 74, 0
14, 268560, Note_on_c, 12, 74, 84
14, 268560, Note_on_c, 12, 84, 84
14, 268649, Note_on_c, 12, 74, 0
14, 268649, Note_on_c, 12, 84, 0
14, 268680, Note_on_c, 12, 74, 84
14, 268680, Note_on_c, 12, 84, 84
14, 268769, Note_on_c, 12, 74, 0
14, 268769, Note_on_c, 12, 84, 0
14, 268800, Note_on_c, 12, 84, 84
14, 268800, Note_on_c, 12, 74, 84
14, 268889, Note_on_c, 12, 84, 0
14, 268889, Note_on_c, 12, 74, 0
14, 268920, Note_on_c, 12, 74, 84
14, 268920, Note_on_c, 12, 84, 84
14, 269009, Note_on_c, 12, 74, 0
14, 269009, Note_on_c, 12, 84, 0
14, 269040, Note_on_c, 12, 84, 84
14, 269040, Note_on_c, 12, 74, 84
14, 269129, Note_on_c, 12, 84, 0
14, 269129, Note_on_c, 12, 74, 0
14, 269160, Note_on_c, 12, 74, 84
14, 269160, Note_on_c, 12, 84, 84
14, 269249, Note_on_c, 12, 74, 0
14, 269249, Note_on_c, 12, 84, 0
14, 269280, Note_on_c, 12, 84, 84
14, 269280, Note_on_c, 12, 74, 84
14, 269369, Note_on_c, 12, 84, 0
14, 269369, Note_on_c, 12, 74, 0
14, 269400, Note_on_c, 12, 74, 84
14, 269400, Note_on_c, 12, 84, 84
14, 269489, Note_on_c, 12, 74, 0
14, 269489, Note_on_c, 12, 84, 0
14, 269520, Note_on_c, 12, 74, 84
14, 269520, Note_on_c, 12, 84, 84
14, 269609, Note_on_c, 12, 74, 0
14, 269609, Note_on_c, 12, 84, 0
14, 269640, Note_on_c, 12, 74, 84
14, 269640, Note_on_c, 12, 84, 84
14, 269729, Note_on_c, 12, 74, 0
14, 269729, Note_on_c, 12, 84, 0
14, 269760, Note_on_c, 12, 84, 84
14, 269760, Note_on_c, 12, 74, 84
14, 269849, Note_on_c, 12, 84, 0
14, 269849, Note_on_c, 12, 74, 0
14, 269880, Note_on_c, 12, 74, 84
14, 269880, Note_on_c, 12, 84, 84
14, 269969, Note_on_c, 12, 74, 0
14, 269969, Note_on_c, 12, 84, 0
14, 270000, Note_on_c, 12, 84, 84
14, 270000, Note_on_c, 12, 74, 84
14, 270089, Note_on_c, 12, 84, 0
14, 270089, Note_on_c, 12, 74, 0
14, 270120, Note_on_c, 12, 84, 84
14, 270120, Note_on_c, 12, 74, 84
14, 270209, Note_on_c, 12, 84, 0
14, 270209, Note_on_c, 12, 74, 0
14, 270240, Note_on_c, 12, 84, 84
14, 270240, Note_on_c, 12, 74, 84
14, 270479, Note_on_c, 12, 84, 0
14, 270479, Note_on_c, 12, 74, 0
14, 273360, Note_on_c, 12, 60, 44
14, 273539, Note_on_c, 12, 60, 0
14, 273600, Note_on_c, 12, 66, 44
14, 273779, Note_on_c, 12, 66, 0
14, 273840, Note_on_c, 12, 69, 44
14, 274019, Note_on_c, 12, 69, 0
14, 274080, Note_on_c, 12, 72, 44
14, 274259, Note_on_c, 12, 72, 0
14, 278880, Note_on_c, 12, 66, 44
14, 279119, Note_on_c, 12, 66, 0
14, 280800, Note_on_c, 12, 67, 44
14, 281039, Note_on_c, 12, 67, 0
14, 281640, Note_on_c, 12, 66, 76
14, 281759, Note_on_c, 12, 66, 0
14, 281760, Note_on_c, 12, 67, 76
14, 281939, Note_on_c, 12, 67, 0
14, 282120, Note_on_c, 12, 61, 76
14, 282209, Note_on_c, 12, 61, 0
14, 282240, Note_on_c, 12, 61, 84
14, 282299, Note_on_c, 12, 61, 0
14, 282300, Note_on_c, 12, 62, 76
14, 282359, Note_on_c, 12, 62, 0
14, 282360, Note_on_c, 12, 61, 76
14, 282419, Note_on_c, 12, 61, 0
14, 282420, Note_on_c, 12, 62, 76
14, 282479, Note_on_c, 12, 62, 0
14, 282480, Note_on_c, 12, 61, 76
14, 282539, Note_on_c, 12, 61, 0
14, 282540, Note_on_c, 12, 62, 76
14, 282599, Note_on_c, 12, 62, 0
14, 282600, Note_on_c, 12, 59, 76
14, 282659, Note_on_c, 12, 59, 0
14, 282660, Note_on_c, 12, 61, 76
14, 282704, Note_on_c, 12, 61, 0
14, 282720, Note_on_c, 12, 64, 76
14, 282899, Note_on_c, 12, 64, 0
14, 282960, Note_on_c, 12, 57, 76
14, 283139, Note_on_c, 12, 57, 0
14, 283440, Note_on_c, 12, 69, 52
14, 284849, Note_on_c, 12, 69, 0
14, 284880, Note_on_c, 12, 66, 52
14, 284969, Note_on_c, 12, 66, 0
14, 285000, Note_on_c, 12, 66, 52
14, 285089, Note_on_c, 12, 66, 0
14, 285120, Note_on_c, 12, 71, 52
14, 285599, Note_on_c, 12, 71, 0
14, 285600, Note_on_c, 12, 69, 52
14, 286079, Note_on_c, 12, 69, 0
14, 286080, Note_on_c, 12, 67, 52
14, 286529, Note_on_c, 12, 67, 0
14, 286560, Note_on_c, 12, 66, 76
14, 286739, Note_on_c, 12, 66, 0
14, 286800, Note_on_c, 12, 61, 76
14, 286979, Note_on_c, 12, 61, 0
14, 287400, Note_on_c, 12, 66, 76
14, 287519, Note_on_c, 12, 66, 0
14, 287520, Note_on_c, 12, 67, 76
14, 287699, Note_on_c, 12, 67, 0
14, 287880, Note_on_c, 12, 61, 76
14, 287969, Note_on_c, 12, 61, 0
14, 288000, Note_on_c, 12, 61, 84
14, 288059, Note_on_c, 12, 61, 0
14, 288060, Note_on_c, 12, 62, 76
14, 288119, Note_on_c, 12, 62, 0
14, 288120, Note_on_c, 12, 61, 76
14, 288179, Note_on_c, 12, 61, 0
14, 288180, Note_on_c, 12, 62, 76
14, 288239, Note_on_c, 12, 62, 0
14, 288240, Note_on_c, 12, 61, 76
14, 288299, Note_on_c, 12, 61, 0
14, 288300, Note_on_c, 12, 62, 76
14, 288359, Note_on_c, 12, 62, 0
14, 288360, Note_on_c, 12, 59, 76
14, 288419, Note_on_c, 12, 59, 0
14, 288420, Note_on_c, 12, 61, 76
14, 288464, Note_on_c, 12, 61, 0
14, 288480, Note_on_c, 12, 64, 76
14, 288659, Note_on_c, 12, 64, 0
14, 288720, Note_on_c, 12, 57, 76
14, 288899, Note_on_c, 12, 57, 0
14, 289320, Note_on_c, 12, 66, 76
14, 289439, Note_on_c, 12, 66, 0
14, 289440, Note_on_c, 12, 67, 76
14, 289619, Note_on_c, 12, 67, 0
14, 289800, Note_on_c, 12, 62, 76
14, 289889, Note_on_c, 12, 62, 0
14, 289920, Note_on_c, 12, 62, 76
14, 289979, Note_on_c, 12, 62, 0
14, 289980, Note_on_c, 12, 64, 76
14, 290039, Note_on_c, 12, 64, 0
14, 290040, Note_on_c, 12, 62, 76
14, 290099, Note_on_c, 12, 62, 0
14, 290100, Note_on_c, 12, 64, 76
14, 290159, Note_on_c, 12, 64, 0
14, 290160, Note_on_c, 12, 62, 76
14, 290219, Note_on_c, 12, 62, 0
14, 290220, Note_on_c, 12, 64, 76
14, 290279, Note_on_c, 12, 64, 0
14, 290280, Note_on_c, 12, 61, 76
14, 290339, Note_on_c, 12, 61, 0
14, 290340, Note_on_c, 12, 62, 76
14, 290384, Note_on_c, 12, 62, 0
14, 290400, Note_on_c, 12, 67, 76
14, 290579, Note_on_c, 12, 67, 0
14, 290640, Note_on_c, 12, 58, 76
14, 290879, Note_on_c, 12, 58, 0
14, 291240, Note_on_c, 12, 66, 76
14, 291359, Note_on_c, 12, 66, 0
14, 291360, Note_on_c, 12, 67, 84
14, 291539, Note_on_c, 12, 67, 0
14, 291600, Note_on_c, 12, 62, 76
14, 291779, Note_on_c, 12, 62, 0
14, 291840, Note_on_c, 12, 67, 76
14, 292019, Note_on_c, 12, 67, 0
14, 292080, Note_on_c, 12, 59, 76
14, 292259, Note_on_c, 12, 59, 0
14, 292560, Note_on_c, 12, 64, 84
14, 292739, Note_on_c, 12, 64, 0
14, 292800, Note_on_c, 12, 67, 76
14, 292979, Note_on_c, 12, 67, 0
14, 293040, Note_on_c, 12, 60, 76
14, 293219, Note_on_c, 12, 60, 0
14, 293520, Note_on_c, 12, 67, 84
14, 293699, Note_on_c, 12, 67, 0
14, 293760, Note_on_c, 12, 70, 76
14, 293939, Note_on_c, 12, 70, 0
14, 294000, Note_on_c, 12, 61, 76
14, 294179, Note_on_c, 12, 61, 0
14, 294240, Note_on_c, 12, 71, 76
14, 294419, Note_on_c, 12, 71, 0
14, 294480, Note_on_c, 12, 62, 76
14, 294659, Note_on_c, 12, 62, 0
14, 294720, Note_on_c, 12, 72, 76
14, 294899, Note_on_c, 12, 72, 0
14, 294960, Note_on_c, 12, 63, 76
14, 295139, Note_on_c, 12, 63, 0
14, 295200, Note_on_c, 12, 73, 76
14, 295379, Note_on_c, 12, 73, 0
14, 295440, Note_on_c, 12, 64, 76
14, 295619, Note_on_c, 12, 64, 0
14, 295680, Note_on_c, 12, 74, 76
14, 295859, Note_on_c, 12, 74, 0
14, 295920, Note_on_c, 12, 65, 76
14, 296099, Note_on_c, 12, 65, 0
14, 296160, Note_on_c, 12, 74, 76
14, 296339, Note_on_c, 12, 74, 0
14, 296400, Note_on_c, 12, 65, 76
14, 296579, Note_on_c, 12, 65, 0
14, 296640, Note_on_c, 12, 74, 76
14, 296819, Note_on_c, 12, 74, 0
14, 296880, Note_on_c, 12, 66, 76
14, 297059, Note_on_c, 12, 66, 0
14, 297120, Note_on_c, 12, 74, 76
14, 297299, Note_on_c, 12, 74, 0
14, 297360, Note_on_c, 12, 67, 76
14, 297539, Note_on_c, 12, 67, 0
14, 297600, Note_on_c, 12, 74, 76
14, 297779, Note_on_c, 12, 74, 0
14, 297840, Note_on_c, 12, 69, 76
14, 298019, Note_on_c, 12, 69, 0
14, 298080, Note_on_c, 12, 74, 76
14, 298259, Note_on_c, 12, 74, 0
14, 298320, Note_on_c, 12, 70, 76
14, 298499, Note_on_c, 12, 70, 0
14, 298560, Note_on_c, 12, 74, 76
14, 298739, Note_on_c, 12, 74, 0
14, 298800, Note_on_c, 12, 68, 76
14, 298979, Note_on_c, 12, 68, 0
14, 299040, Note_on_c, 12, 69, 76
14, 299279, Note_on_c, 12, 69, 0
14, 300960, Note_on_c, 12, 81, 76
14, 300960, Note_on_c, 12, 69, 76
14, 301080, Control_c, 12, 11, 80
14, 301199, Note_on_c, 12, 81, 0
14, 301199, Note_on_c, 12, 69, 0
14, 303600, Control_c, 12, 11, 127
14, 303840, Note_on_c, 12, 74, 76
14, 304319, Note_on_c, 12, 74, 0
14, 304320, Note_on_c, 12, 76, 52
14, 304559, Note_on_c, 12, 76, 0
14, 304560, Note_on_c, 12, 77, 52
14, 304769, Note_on_c, 12, 77, 0
14, 304800, Note_on_c, 12, 76, 52
14, 305039, Note_on_c, 12, 76, 0
14, 305760, Note_on_c, 12, 74, 76
14, 306239, Note_on_c, 12, 74, 0
14, 306240, Note_on_c, 12, 76, 52
14, 306479, Note_on_c, 12, 76, 0
14, 306480, Note_on_c, 12, 77, 52
14, 306689, Note_on_c, 12, 77, 0
14, 306720, Note_on_c, 12, 76, 76
14, 306720, Control_c, 12, 11, 80
14, 306809, Note_on_c, 12, 76, 0
14, 306840, Note_on_c, 12, 76, 76
14, 306880, Control_c, 12, 11, 84
14, 306929, Note_on_c, 12, 76, 0
14, 306960, Note_on_c, 12, 76, 76
14, 307040, Control_c, 12, 11, 88
14, 307049, Note_on_c, 12, 76, 0
14, 307080, Note_on_c, 12, 76, 76
14, 307169, Note_on_c, 12, 76, 0
14, 307200, Control_c, 12, 11, 92
14, 307200, Note_on_c, 12, 74, 76
14, 307289, Note_on_c, 12, 74, 0
14, 307320, Note_on_c, 12, 74, 76
14, 307360, Control_c, 12, 11, 96
14, 307409, Note_on_c, 12, 74, 0
14, 307440, Note_on_c, 12, 74, 76
14, 307520, Control_c, 12, 11, 100
14, 307529, Note_on_c, 12, 74, 0
14, 307560, Note_on_c, 12, 74, 76
14, 307649, Note_on_c, 12, 74, 0
14, 307680, Note_on_c, 12, 74, 76
14, 307680, Control_c, 12, 11, 104
14, 307769, Note_on_c, 12, 74, 0
14, 307800, Note_on_c, 12, 74, 76
14, 307840, Control_c, 12, 11, 107
14, 307889, Note_on_c, 12, 74, 0
14, 307920, Note_on_c, 12, 74, 76
14, 308000, Control_c, 12, 11, 111
14, 308009, Note_on_c, 12, 74, 0
14, 308040, Note_on_c, 12, 74, 76
14, 308129, Note_on_c, 12, 74, 0
14, 308160, Control_c, 12, 11, 115
14, 308160, Note_on_c, 12, 73, 76
14, 308249, Note_on_c, 12, 73, 0
14, 308280, Note_on_c, 12, 73, 76
14, 308320, Control_c, 12, 11, 119
14, 308369, Note_on_c, 12, 73, 0
14, 308400, Note_on_c, 12, 73, 76
14, 308480, Control_c, 12, 11, 123
14, 308489, Note_on_c, 12, 73, 0
14, 308520, Note_on_c, 12, 73, 76
14, 308609, Note_on_c, 12, 73, 0
14, 308640, Note_on_c, 12, 62, 76
14, 308640, Control_c, 12, 11, 127
14, 308760, Control_c, 12, 11, 80
14, 309119, Note_on_c, 12, 62, 0
14, 309120, Note_on_c, 12, 64, 76
14, 309359, Note_on_c, 12, 64, 0
14, 309360, Note_on_c, 12, 66, 76
14, 309569, Note_on_c, 12, 66, 0
14, 309600, Note_on_c, 12, 67, 76
14, 310289, Note_on_c, 12, 67, 0
14, 310320, Note_on_c, 12, 67, 76
14, 310529, Note_on_c, 12, 67, 0
14, 310545, Control_c, 12, 11, 127
14, 310560, Note_on_c, 12, 66, 76
14, 310680, Control_c, 12, 11, 80
14, 311039, Note_on_c, 12, 66, 0
14, 311040, Note_on_c, 12, 67, 76
14, 311279, Note_on_c, 12, 67, 0
14, 311280, Note_on_c, 12, 69, 76
14, 311489, Note_on_c, 12, 69, 0
14, 311520, Note_on_c, 12, 70, 76
14, 312209, Note_on_c, 12, 70, 0
14, 312240, Note_on_c, 12, 70, 76
14, 312449, Note_on_c, 12, 70, 0
14, 312465, Control_c, 12, 11, 127
14, 312480, Note_on_c, 12, 69, 76
14, 312959, Note_on_c, 12, 69, 0
14, 312960, Note_on_c, 12, 67, 52
14, 313199, Note_on_c, 12, 67, 0
14, 313200, Note_on_c, 12, 66, 52
14, 313409, Note_on_c, 12, 66, 0
14, 313440, Note_on_c, 12, 70, 76
14, 313919, Note_on_c, 12, 70, 0
14, 313920, Note_on_c, 12, 69, 52
14, 314159, Note_on_c, 12, 69, 0
14, 314160, Note_on_c, 12, 67, 52
14, 314369, Note_on_c, 12, 67, 0
14, 314400, Note_on_c, 12, 69, 76
14, 314879, Note_on_c, 12, 69, 0
14, 314880, Note_on_c, 12, 67, 52
14, 315119, Note_on_c, 12, 67, 0
14, 315120, Note_on_c, 12, 66, 52
14, 315329, Note_on_c, 12, 66, 0
14, 315360, Note_on_c, 12, 70, 76
14, 315839, Note_on_c, 12, 70, 0
14, 315840, Note_on_c, 12, 69, 52
14, 316079, Note_on_c, 12, 69, 0
14, 316080, Note_on_c, 12, 67, 52
14, 316289, Note_on_c, 12, 67, 0
14, 316320, Note_on_c, 12, 69, 76
14, 316409, Note_on_c, 12, 69, 0
14, 316440, Note_on_c, 12, 69, 76
14, 316529, Note_on_c, 12, 69, 0
14, 316560, Note_on_c, 12, 66, 76
14, 316649, Note_on_c, 12, 66, 0
14, 316680, Note_on_c, 12, 66, 76
14, 316769, Note_on_c, 12, 66, 0
14, 316800, Note_on_c, 12, 67, 76
14, 316889, Note_on_c, 12, 67, 0
14, 316920, Note_on_c, 12, 67, 76
14, 317009, Note_on_c, 12, 67, 0
14, 317040, Note_on_c, 12, 69, 76
14, 317129, Note_on_c, 12, 69, 0
14, 317160, Note_on_c, 12, 69, 76
14, 317249, Note_on_c, 12, 69, 0
14, 317280, Note_on_c, 12, 71, 84
14, 317369, Note_on_c, 12, 71, 0
14, 317400, Note_on_c, 12, 71, 76
14, 317489, Note_on_c, 12, 71, 0
14, 317520, Note_on_c, 12, 71, 76
14, 317609, Note_on_c, 12, 71, 0
14, 317640, Note_on_c, 12, 71, 76
14, 317729, Note_on_c, 12, 71, 0
14, 317760, Note_on_c, 12, 69, 76
14, 317849, Note_on_c, 12, 69, 0
14, 317880, Note_on_c, 12, 69, 76
14, 317969, Note_on_c, 12, 69, 0
14, 318000, Note_on_c, 12, 67, 76
14, 318089, Note_on_c, 12, 67, 0
14, 318120, Note_on_c, 12, 67, 76
14, 318209, Note_on_c, 12, 67, 0
14, 318240, Note_on_c, 12, 73, 84
14, 318329, Note_on_c, 12, 73, 0
14, 318360, Note_on_c, 12, 73, 76
14, 318449, Note_on_c, 12, 73, 0
14, 318480, Note_on_c, 12, 73, 76
14, 318569, Note_on_c, 12, 73, 0
14, 318600, Note_on_c, 12, 73, 76
14, 318689, Note_on_c, 12, 73, 0
14, 318720, Note_on_c, 12, 71, 76
14, 318809, Note_on_c, 12, 71, 0
14, 318840, Note_on_c, 12, 71, 76
14, 318929, Note_on_c, 12, 71, 0
14, 318960, Note_on_c, 12, 69, 76
14, 319049, Note_on_c, 12, 69, 0
14, 319080, Note_on_c, 12, 69, 76
14, 319169, Note_on_c, 12, 69, 0
14, 319200, Note_on_c, 12, 74, 84
14, 319289, Note_on_c, 12, 74, 0
14, 319320, Note_on_c, 12, 74, 76
14, 319409, Note_on_c, 12, 74, 0
14, 319440, Note_on_c, 12, 74, 76
14, 319529, Note_on_c, 12, 74, 0
14, 319560, Note_on_c, 12, 74, 76
14, 319649, Note_on_c, 12, 74, 0
14, 319680, Note_on_c, 12, 73, 76
14, 319769, Note_on_c, 12, 73, 0
14, 319800, Note_on_c, 12, 73, 76
14, 319889, Note_on_c, 12, 73, 0
14, 319920, Note_on_c, 12, 71, 76
14, 320009, Note_on_c, 12, 71, 0
14, 320040, Note_on_c, 12, 71, 76
14, 320129, Note_on_c, 12, 71, 0
14, 320160, Note_on_c, 12, 76, 84
14, 320160, Note_on_c, 12, 69, 84
14, 323939, Note_on_c, 12, 76, 0
14, 323939, Note_on_c, 12, 69, 0
14, 324000, Note_on_c, 12, 61, 52
14, 325859, Note_on_c, 12, 61, 0
14, 325920, Note_on_c, 12, 61, 44
14, 326099, Note_on_c, 12, 61, 0
14, 326160, Note_on_c, 12, 61, 44
14, 326339, Note_on_c, 12, 61, 0
14, 326640, Note_on_c, 12, 61, 44
14, 326819, Note_on_c, 12, 61, 0
14, 327120, Note_on_c, 12, 62, 44
14, 327299, Note_on_c, 12, 62, 0
14, 327600, Note_on_c, 12, 64, 44
14, 327779, Note_on_c, 12, 64, 0
14, 327840, Note_on_c, 12, 62, 44
14, 328019, Note_on_c, 12, 62, 0
14, 328080, Note_on_c, 12, 66, 44
14, 328259, Note_on_c, 12, 66, 0
14, 328560, Note_on_c, 12, 66, 44
14, 328739, Note_on_c, 12, 66, 0
14, 329040, Note_on_c, 12, 67, 44
14, 329219, Note_on_c, 12, 67, 0
14, 329520, Note_on_c, 12, 69, 44
14, 329699, Note_on_c, 12, 69, 0
14, 329760, Note_on_c, 12, 67, 44
14, 329939, Note_on_c, 12, 67, 0
14, 330000, Note_on_c, 12, 67, 44
14, 330179, Note_on_c, 12, 67, 0
14, 330480, Note_on_c, 12, 68, 44
14, 330659, Note_on_c, 12, 68, 0
14, 330960, Note_on_c, 12, 69, 44
14, 331139, Note_on_c, 12, 69, 0
14, 331200, Control_c, 12, 11, 96
14, 331440, Note_on_c, 12, 68, 60
14, 331619, Note_on_c, 12, 68, 0
14, 331680, Control_c, 12, 11, 96
14, 331680, Note_on_c, 12, 67, 60
14, 331840, Control_c, 12, 11, 99
14, 331859, Note_on_c, 12, 67, 0
14, 331920, Note_on_c, 12, 61, 60
14, 332000, Control_c, 12, 11, 101
14, 332099, Note_on_c, 12, 61, 0
14, 332160, Control_c, 12, 11, 104
14, 332320, Control_c, 12, 11, 106
14, 332400, Note_on_c, 12, 62, 60
14, 332480, Control_c, 12, 11, 109
14, 332579, Note_on_c, 12, 62, 0
14, 332640, Control_c, 12, 11, 112
14, 332800, Control_c, 12, 11, 114
14, 332880, Note_on_c, 12, 64, 60
14, 332960, Control_c, 12, 11, 117
14, 333059, Note_on_c, 12, 64, 0
14, 333120, Control_c, 12, 11, 119
14, 333280, Control_c, 12, 11, 122
14, 333360, Note_on_c, 12, 61, 60
14, 333440, Control_c, 12, 11, 124
14, 333539, Note_on_c, 12, 61, 0
14, 333600, Control_c, 12, 11, 127
14, 333840, Note_on_c, 12, 66, 44
14, 334019, Note_on_c, 12, 66, 0
14, 334080, Note_on_c, 12, 58, 44
14, 334259, Note_on_c, 12, 58, 0
14, 334320, Note_on_c, 12, 66, 44
14, 334499, Note_on_c, 12, 66, 0
14, 334560, Note_on_c, 12, 59, 44
14, 334739, Note_on_c, 12, 59, 0
14, 334800, Note_on_c, 12, 66, 44
14, 334979, Note_on_c, 12, 66, 0
14, 335040, Note_on_c, 12, 61, 44
14, 335219, Note_on_c, 12, 61, 0
14, 335280, Note_on_c, 12, 66, 44
14, 335459, Note_on_c, 12, 66, 0
14, 335520, Note_on_c, 12, 62, 44
14, 335759, Note_on_c, 12, 62, 0
14, 335880, Note_on_c, 12, 70, 44
14, 335999, Note_on_c, 12, 70, 0
14, 336000, Note_on_c, 12, 71, 44
14, 336239, Note_on_c, 12, 71, 0
14, 336360, Note_on_c, 12, 70, 44
14, 336479, Note_on_c, 12, 70, 0
14, 336480, Note_on_c, 12, 71, 44
14, 336719, Note_on_c, 12, 71, 0
14, 336840, Note_on_c, 12, 70, 44
14, 336959, Note_on_c, 12, 70, 0
14, 336960, Note_on_c, 12, 71, 44
14, 337199, Note_on_c, 12, 71, 0
14, 337320, Note_on_c, 12, 70, 44
14, 337439, Note_on_c, 12, 70, 0
14, 337440, Note_on_c, 12, 71, 44
14, 337619, Note_on_c, 12, 71, 0
14, 337680, Note_on_c, 12, 64, 44
14, 337859, Note_on_c, 12, 64, 0
14, 337920, Note_on_c, 12, 56, 44
14, 338099, Note_on_c, 12, 56, 0
14, 338160, Note_on_c, 12, 64, 44
14, 338339, Note_on_c, 12, 64, 0
14, 338400, Note_on_c, 12, 57, 44
14, 338579, Note_on_c, 12, 57, 0
14, 338640, Note_on_c, 12, 64, 44
14, 338819, Note_on_c, 12, 64, 0
14, 338880, Note_on_c, 12, 59, 44
14, 339059, Note_on_c, 12, 59, 0
14, 339120, Note_on_c, 12, 64, 44
14, 339299, Note_on_c, 12, 64, 0
14, 339360, Note_on_c, 12, 61, 44
14, 339539, Note_on_c, 12, 61, 0
14, 339720, Note_on_c, 12, 68, 44
14, 339839, Note_on_c, 12, 68, 0
14, 339840, Note_on_c, 12, 69, 44
14, 340079, Note_on_c, 12, 69, 0
14, 340200, Note_on_c, 12, 68, 44
14, 340319, Note_on_c, 12, 68, 0
14, 340320, Note_on_c, 12, 69, 44
14, 340559, Note_on_c, 12, 69, 0
14, 340680, Note_on_c, 12, 68, 44
14, 340799, Note_on_c, 12, 68, 0
14, 340800, Note_on_c, 12, 69, 44
14, 341039, Note_on_c, 12, 69, 0
14, 341160, Note_on_c, 12, 68, 44
14, 341279, Note_on_c, 12, 68, 0
14, 341280, Note_on_c, 12, 69, 44
14, 341459, Note_on_c, 12, 69, 0
14, 341520, Note_on_c, 12, 62, 44
14, 341699, Note_on_c, 12, 62, 0
14, 341760, Note_on_c, 12, 66, 44
14, 341939, Note_on_c, 12, 66, 0
14, 342000, Note_on_c, 12, 62, 44
14, 342179, Note_on_c, 12, 62, 0
14, 342240, Note_on_c, 12, 67, 44
14, 342419, Note_on_c, 12, 67, 0
14, 342480, Note_on_c, 12, 62, 44
14, 342659, Note_on_c, 12, 62, 0
14, 342720, Note_on_c, 12, 69, 44
14, 342899, Note_on_c, 12, 69, 0
14, 342960, Note_on_c, 12, 62, 44
14, 343139, Note_on_c, 12, 62, 0
14, 343200, Note_on_c, 12, 71, 44
14, 343379, Note_on_c, 12, 71, 0
14, 343440, Note_on_c, 12, 62, 44
14, 343619, Note_on_c, 12, 62, 0
14, 343680, Note_on_c, 12, 66, 44
14, 343859, Note_on_c, 12, 66, 0
14, 343920, Note_on_c, 12, 62, 44
14, 344099, Note_on_c, 12, 62, 0
14, 344160, Note_on_c, 12, 67, 44
14, 344339, Note_on_c, 12, 67, 0
14, 344400, Note_on_c, 12, 62, 44
14, 344579, Note_on_c, 12, 62, 0
14, 344640, Note_on_c, 12, 69, 44
14, 344819, Note_on_c, 12, 69, 0
14, 344880, Note_on_c, 12, 62, 44
14, 345059, Note_on_c, 12, 62, 0
14, 345120, Note_on_c, 12, 71, 44
14, 345120, Control_c, 12, 11, 127
14, 345299, Note_on_c, 12, 71, 0
14, 345440, Control_c, 12, 11, 126
14, 345600, Note_on_c, 12, 74, 44
14, 345600, Note_on_c, 12, 62, 44
14, 345760, Control_c, 12, 11, 125
14, 346080, Control_c, 12, 11, 123
14, 346400, Control_c, 12, 11, 122
14, 346720, Control_c, 12, 11, 121
14, 347040, Control_c, 12, 11, 120
14, 347360, Control_c, 12, 11, 118
14, 347680, Control_c, 12, 11, 117
14, 348000, Control_c, 12, 11, 116
14, 348320, Control_c, 12, 11, 115
14, 348640, Control_c, 12, 11, 113
14, 348954, Control_c, 12, 11, 127
14, 348959, Note_on_c, 12, 74, 0
14, 348959, Note_on_c, 12, 62, 0
14, 348960, Note_on_c, 12, 74, 44
14, 348960, Note_on_c, 12, 62, 44
14, 352769, Note_on_c, 12, 74, 0
14, 352769, Note_on_c, 12, 62, 0
14, 352800, Note_on_c, 12, 71, 44
14, 352889, Note_on_c, 12, 71, 0
14, 352920, Note_on_c, 12, 83, 44
14, 353009, Note_on_c, 12, 83, 0
14, 353040, Note_on_c, 12, 83, 44
14, 353129, Note_on_c, 12, 83, 0
14, 353160, Note_on_c, 12, 83, 44
14, 353249, Note_on_c, 12, 83, 0
14, 353280, Note_on_c, 12, 83, 44
14, 353369, Note_on_c, 12, 83, 0
14, 353400, Note_on_c, 12, 83, 44
14, 353489, Note_on_c, 12, 83, 0
14, 353520, Note_on_c, 12, 83, 44
14, 353609, Note_on_c, 12, 83, 0
14, 353640, Note_on_c, 12, 83, 44
14, 353729, Note_on_c, 12, 83, 0
14, 353760, Note_on_c, 12, 83, 44
14, 353849, Note_on_c, 12, 83, 0
14, 353880, Note_on_c, 12, 83, 44
14, 353969, Note_on_c, 12, 83, 0
14, 354000, Note_on_c, 12, 83, 44
14, 354089, Note_on_c, 12, 83, 0
14, 354120, Note_on_c, 12, 83, 44
14, 354209, Note_on_c, 12, 83, 0
14, 354240, Note_on_c, 12, 83, 44
14, 354329, Note_on_c, 12, 83, 0
14, 354360, Note_on_c, 12, 83, 44
14, 354449, Note_on_c, 12, 83, 0
14, 354480, Note_on_c, 12, 83, 44
14, 354569, Note_on_c, 12, 83, 0
14, 354600, Note_on_c, 12, 83, 44
14, 354689, Note_on_c, 12, 83, 0
14, 354720, Note_on_c, 12, 79, 44
14, 354809, Note_on_c, 12, 79, 0
14, 354840, Note_on_c, 12, 79, 44
14, 354929, Note_on_c, 12, 79, 0
14, 354960, Note_on_c, 12, 79, 44
14, 355049, Note_on_c, 12, 79, 0
14, 355080, Note_on_c, 12, 79, 44
14, 355169, Note_on_c, 12, 79, 0
14, 355200, Note_on_c, 12, 79, 44
14, 355289, Note_on_c, 12, 79, 0
14, 355320, Note_on_c, 12, 79, 44
14, 355409, Note_on_c, 12, 79, 0
14, 355440, Note_on_c, 12, 79, 44
14, 355529, Note_on_c, 12, 79, 0
14, 355560, Note_on_c, 12, 79, 44
14, 355649, Note_on_c, 12, 79, 0
14, 355680, Note_on_c, 12, 74, 44
14, 355769, Note_on_c, 12, 74, 0
14, 355800, Note_on_c, 12, 74, 44
14, 355889, Note_on_c, 12, 74, 0
14, 355920, Note_on_c, 12, 74, 44
14, 356009, Note_on_c, 12, 74, 0
14, 356040, Note_on_c, 12, 74, 44
14, 356129, Note_on_c, 12, 74, 0
14, 356160, Note_on_c, 12, 74, 44
14, 356249, Note_on_c, 12, 74, 0
14, 356280, Note_on_c, 12, 74, 44
14, 356369, Note_on_c, 12, 74, 0
14, 356400, Note_on_c, 12, 74, 44
14, 356489, Note_on_c, 12, 74, 0
14, 356520, Note_on_c, 12, 74, 44
14, 356609, Note_on_c, 12, 74, 0
14, 356640, Note_on_c, 12, 71, 44
14, 356729, Note_on_c, 12, 71, 0
14, 356760, Note_on_c, 12, 71, 44
14, 356849, Note_on_c, 12, 71, 0
14, 356880, Note_on_c, 12, 71, 44
14, 356969, Note_on_c, 12, 71, 0
14, 357000, Note_on_c, 12, 71, 44
14, 357089, Note_on_c, 12, 71, 0
14, 357120, Note_on_c, 12, 71, 44
14, 357209, Note_on_c, 12, 71, 0
14, 357240, Note_on_c, 12, 71, 44
14, 357329, Note_on_c, 12, 71, 0
14, 357360, Note_on_c, 12, 71, 44
14, 357449, Note_on_c, 12, 71, 0
14, 357480, Note_on_c, 12, 71, 44
14, 357569, Note_on_c, 12, 71, 0
14, 357600, Note_on_c, 12, 67, 44
14, 357689, Note_on_c, 12, 67, 0
14, 357720, Note_on_c, 12, 67, 44
14, 357809, Note_on_c, 12, 67, 0
14, 357840, Note_on_c, 12, 67, 44
14, 357929, Note_on_c, 12, 67, 0
14, 357960, Note_on_c, 12, 67, 44
14, 358049, Note_on_c, 12, 67, 0
14, 358080, Note_on_c, 12, 67, 44
14, 358169, Note_on_c, 12, 67, 0
14, 358200, Note_on_c, 12, 67, 44
14, 358289, Note_on_c, 12, 67, 0
14, 358320, Note_on_c, 12, 67, 44
14, 358409, Note_on_c, 12, 67, 0
14, 358440, Note_on_c, 12, 67, 44
14, 358529, Note_on_c, 12, 67, 0
14, 358560, Note_on_c, 12, 58, 84
14, 358560, Note_on_c, 12, 65, 84
14, 360449, Note_on_c, 12, 58, 0
14, 360449, Note_on_c, 12, 65, 0
14, 360480, Note_on_c, 12, 57, 84
14, 360480, Note_on_c, 12, 66, 84
14, 360569, Note_on_c, 12, 57, 0
14, 360569, Note_on_c, 12, 66, 0
14, 360600, Note_on_c, 12, 74, 84
14, 360600, Note_on_c, 12, 66, 84
14, 360689, Note_on_c, 12, 74, 0
14, 360689, Note_on_c, 12, 66, 0
14, 360720, Note_on_c, 12, 66, 84
14, 360720, Note_on_c, 12, 74, 84
14, 360809, Note_on_c, 12, 66, 0
14, 360809, Note_on_c, 12, 74, 0
14, 360840, Note_on_c, 12, 74, 84
14, 360840, Note_on_c, 12, 66, 84
14, 360929, Note_on_c, 12, 74, 0
14, 360929, Note_on_c, 12, 66, 0
14, 360960, Note_on_c, 12, 74, 84
14, 360960, Note_on_c, 12, 66, 84
14, 361049, Note_on_c, 12, 74, 0
14, 361049, Note_on_c, 12, 66, 0
14, 361080, Note_on_c, 12, 66, 84
14, 361080, Note_on_c, 12, 74, 84
14, 361169, Note_on_c, 12, 66, 0
14, 361169, Note_on_c, 12, 74, 0
14, 361200, Note_on_c, 12, 74, 84
14, 361200, Note_on_c, 12, 66, 84
14, 361289, Note_on_c, 12, 74, 0
14, 361289, Note_on_c, 12, 66, 0
14, 361320, Note_on_c, 12, 66, 84
14, 361320, Note_on_c, 12, 74, 84
14, 361409, Note_on_c, 12, 66, 0
14, 361409, Note_on_c, 12, 74, 0
14, 361440, Note_on_c, 12, 66, 84
14, 361440, Note_on_c, 12, 74, 84
14, 361529, Note_on_c, 12, 66, 0
14, 361529, Note_on_c, 12, 74, 0
14, 361560, Note_on_c, 12, 66, 84
14, 361560, Note_on_c, 12, 74, 84
14, 361649, Note_on_c, 12, 66, 0
14, 361649, Note_on_c, 12, 74, 0
14, 361680, Note_on_c, 12, 66, 84
14, 361680, Note_on_c, 12, 74, 84
14, 361769, Note_on_c, 12, 66, 0
14, 361769, Note_on_c, 12, 74, 0
14, 361800, Note_on_c, 12, 66, 84
14, 361800, Note_on_c, 12, 74, 84
14, 361889, Note_on_c, 12, 66, 0
14, 361889, Note_on_c, 12, 74, 0
14, 361920, Note_on_c, 12, 66, 84
14, 361920, Note_on_c, 12, 74, 84
14, 362009, Note_on_c, 12, 66, 0
14, 362009, Note_on_c, 12, 74, 0
14, 362040, Note_on_c, 12, 74, 84
14, 362040, Note_on_c, 12, 66, 84
14, 362129, Note_on_c, 12, 74, 0
14, 362129, Note_on_c, 12, 66, 0
14, 362160, Note_on_c, 12, 66, 84
14, 362160, Note_on_c, 12, 74, 84
14, 362249, Note_on_c, 12, 66, 0
14, 362249, Note_on_c, 12, 74, 0
14, 362280, Note_on_c, 12, 74, 84
14, 362280, Note_on_c, 12, 66, 84
14, 362369, Note_on_c, 12, 74, 0
14, 362369, Note_on_c, 12, 66, 0
14, 362400, Note_on_c, 12, 66, 92
14, 362400, Note_on_c, 12, 74, 92
14, 362489, Note_on_c, 12, 66, 0
14, 362489, Note_on_c, 12, 74, 0
14, 362520, Note_on_c, 12, 74, 84
14, 362520, Note_on_c, 12, 66, 84
14, 362609, Note_on_c, 12, 74, 0
14, 362609, Note_on_c, 12, 66, 0
14, 362640, Note_on_c, 12, 66, 84
14, 362640, Note_on_c, 12, 74, 84
14, 362729, Note_on_c, 12, 66, 0
14, 362729, Note_on_c, 12, 74, 0
14, 362760, Note_on_c, 12, 66, 84
14, 362760, Note_on_c, 12, 74, 84
14, 362849, Note_on_c, 12, 66, 0
14, 362849, Note_on_c, 12, 74, 0
14, 362880, Note_on_c, 12, 66, 84
14, 362880, Note_on_c, 12, 74, 84
14, 362969, Note_on_c, 12, 66, 0
14, 362969, Note_on_c, 12, 74, 0
14, 363000, Note_on_c, 12, 74, 84
14, 363000, Note_on_c, 12, 66, 84
14, 363089, Note_on_c, 12, 74, 0
14, 363089, Note_on_c, 12, 66, 0
14, 363120, Note_on_c, 12, 66, 84
14, 363120, Note_on_c, 12, 74, 84
14, 363209, Note_on_c, 12, 66, 0
14, 363209, Note_on_c, 12, 74, 0
14, 363240, Note_on_c, 12, 74, 84
14, 363240, Note_on_c, 12, 66, 84
14, 363329, Note_on_c, 12, 74, 0
14, 363329, Note_on_c, 12, 66, 0
14, 363360, Note_on_c, 12, 74, 84
14, 363360, Note_on_c, 12, 66, 84
14, 363449, Note_on_c, 12, 74, 0
14, 363449, Note_on_c, 12, 66, 0
14, 363480, Note_on_c, 12, 74, 84
14, 363480, Note_on_c, 12, 66, 84
14, 363569, Note_on_c, 12, 74, 0
14, 363569, Note_on_c, 12, 66, 0
14, 363600, Note_on_c, 12, 74, 84
14, 363600, Note_on_c, 12, 66, 84
14, 363689, Note_on_c, 12, 74, 0
14, 363689, Note_on_c, 12, 66, 0
14, 363720, Note_on_c, 12, 66, 84
14, 363720, Note_on_c, 12, 74, 84
14, 363809, Note_on_c, 12, 66, 0
14, 363809, Note_on_c, 12, 74, 0
14, 363840, Note_on_c, 12, 74, 84
14, 363840, Note_on_c, 12, 66, 84
14, 363929, Note_on_c, 12, 74, 0
14, 363929, Note_on_c, 12, 66, 0
14, 363960, Note_on_c, 12, 66, 84
14, 363960, Note_on_c, 12, 74, 84
14, 364049, Note_on_c, 12, 66, 0
14, 364049, Note_on_c, 12, 74, 0
14, 364080, Note_on_c, 12, 74, 84
14, 364080, Note_on_c, 12, 66, 84
14, 364169, Note_on_c, 12, 74, 0
14, 364169, Note_on_c, 12, 66, 0
14, 364200, Note_on_c, 12, 74, 84
14, 364200, Note_on_c, 12, 66, 84
14, 364289, Note_on_c, 12, 74, 0
14, 364289, Note_on_c, 12, 66, 0
14, 364320, Note_on_c, 12, 73, 92
14, 364320, Note_on_c, 12, 67, 92
14, 364409, Note_on_c, 12, 73, 0
14, 364409, Note_on_c, 12, 67, 0
14, 364440, Note_on_c, 12, 73, 84
14, 364440, Note_on_c, 12, 67, 84
14, 364529, Note_on_c, 12, 73, 0
14, 364529, Note_on_c, 12, 67, 0
14, 364560, Note_on_c, 12, 73, 84
14, 364560, Note_on_c, 12, 67, 84
14, 364649, Note_on_c, 12, 73, 0
14, 364649, Note_on_c, 12, 67, 0
14, 364680, Note_on_c, 12, 73, 84
14, 364680, Note_on_c, 12, 67, 84
14, 364769, Note_on_c, 12, 73, 0
14, 364769, Note_on_c, 12, 67, 0
14, 364800, Note_on_c, 12, 67, 84
14, 364800, Note_on_c, 12, 73, 84
14, 364889, Note_on_c, 12, 67, 0
14, 364889, Note_on_c, 12, 73, 0
14, 364920, Note_on_c, 12, 73, 84
14, 364920, Note_on_c, 12, 67, 84
14, 365009, Note_on_c, 12, 73, 0
14, 365009, Note_on_c, 12, 67, 0
14, 365040, Note_on_c, 12, 67, 84
14, 365040, Note_on_c, 12, 73, 84
14, 365129, Note_on_c, 12, 67, 0
14, 365129, Note_on_c, 12, 73, 0
14, 365160, Note_on_c, 12, 73, 84
14, 365160, Note_on_c, 12, 67, 84
14, 365249, Note_on_c, 12, 73, 0
14, 365249, Note_on_c, 12, 67, 0
14, 365280, Note_on_c, 12, 67, 84
14, 365280, Note_on_c, 12, 73, 84
14, 365369, Note_on_c, 12, 67, 0
14, 365369, Note_on_c, 12, 73, 0
14, 365400, Note_on_c, 12, 73, 84
14, 365400, Note_on_c, 12, 67, 84
14, 365489, Note_on_c, 12, 73, 0
14, 365489, Note_on_c, 12, 67, 0
14, 365520, Note_on_c, 12, 73, 84
14, 365520, Note_on_c, 12, 67, 84
14, 365609, Note_on_c, 12, 73, 0
14, 365609, Note_on_c, 12, 67, 0
14, 365640, Note_on_c, 12, 73, 84
14, 365640, Note_on_c, 12, 67, 84
14, 365729, Note_on_c, 12, 73, 0
14, 365729, Note_on_c, 12, 67, 0
14, 365760, Note_on_c, 12, 67, 84
14, 365760, Note_on_c, 12, 73, 84
14, 365849, Note_on_c, 12, 67, 0
14, 365849, Note_on_c, 12, 73, 0
14, 365880, Note_on_c, 12, 67, 84
14, 365880, Note_on_c, 12, 73, 84
14, 365969, Note_on_c, 12, 67, 0
14, 365969, Note_on_c, 12, 73, 0
14, 366000, Note_on_c, 12, 73, 84
14, 366000, Note_on_c, 12, 67, 84
14, 366089, Note_on_c, 12, 73, 0
14, 366089, Note_on_c, 12, 67, 0
14, 366120, Note_on_c, 12, 73, 84
14, 366120, Note_on_c, 12, 67, 84
14, 366209, Note_on_c, 12, 73, 0
14, 366209, Note_on_c, 12, 67, 0
14, 366240, Note_on_c, 12, 73, 92
14, 366240, Note_on_c, 12, 67, 92
14, 366329, Note_on_c, 12, 73, 0
14, 366329, Note_on_c, 12, 67, 0
14, 366360, Note_on_c, 12, 73, 84
14, 366360, Note_on_c, 12, 67, 84
14, 366449, Note_on_c, 12, 73, 0
14, 366449, Note_on_c, 12, 67, 0
14, 366480, Note_on_c, 12, 67, 84
14, 366480, Note_on_c, 12, 73, 84
14, 366569, Note_on_c, 12, 67, 0
14, 366569, Note_on_c, 12, 73, 0
14, 366600, Note_on_c, 12, 73, 84
14, 366600, Note_on_c, 12, 67, 84
14, 366689, Note_on_c, 12, 73, 0
14, 366689, Note_on_c, 12, 67, 0
14, 366720, Note_on_c, 12, 73, 84
14, 366720, Note_on_c, 12, 67, 84
14, 366809, Note_on_c, 12, 73, 0
14, 366809, Note_on_c, 12, 67, 0
14, 366840, Note_on_c, 12, 73, 84
14, 366840, Note_on_c, 12, 67, 84
14, 366929, Note_on_c, 12, 73, 0
14, 366929, Note_on_c, 12, 67, 0
14, 366960, Note_on_c, 12, 67, 84
14, 366960, Note_on_c, 12, 73, 84
14, 367049, Note_on_c, 12, 67, 0
14, 367049, Note_on_c, 12, 73, 0
14, 367080, Note_on_c, 12, 67, 84
14, 367080, Note_on_c, 12, 73, 84
14, 367169, Note_on_c, 12, 67, 0
14, 367169, Note_on_c, 12, 73, 0
14, 367200, Note_on_c, 12, 81, 84
14, 367289, Note_on_c, 12, 81, 0
14, 367320, Note_on_c, 12, 79, 84
14, 367409, Note_on_c, 12, 79, 0
14, 367440, Note_on_c, 12, 78, 84
14, 367529, Note_on_c, 12, 78, 0
14, 367560, Note_on_c, 12, 76, 84
14, 367649, Note_on_c, 12, 76, 0
14, 367680, Note_on_c, 12, 74, 84
14, 367769, Note_on_c, 12, 74, 0
14, 367800, Note_on_c, 12, 73, 84
14, 367889, Note_on_c, 12, 73, 0
14, 367920, Note_on_c, 12, 71, 84
14, 368009, Note_on_c, 12, 71, 0
14, 368040, Note_on_c, 12, 69, 84
14, 368129, Note_on_c, 12, 69, 0
14, 368160, Note_on_c, 12, 74, 84
14, 368399, Note_on_c, 12, 74, 0
14, 368640, Control_c, 12, 11, 112
14, 368920, Control_c, 12, 11, 113
14, 369000, Note_on_c, 12, 66, 84
14, 369119, Note_on_c, 12, 66, 0
14, 369120, Note_on_c, 12, 67, 84
14, 369200, Control_c, 12, 11, 115
14, 369359, Note_on_c, 12, 67, 0
14, 369480, Control_c, 12, 11, 116
14, 369760, Control_c, 12, 11, 117
14, 369960, Note_on_c, 12, 68, 84
14, 370040, Control_c, 12, 11, 118
14, 370079, Note_on_c, 12, 68, 0
14, 370080, Note_on_c, 12, 69, 84
14, 370319, Note_on_c, 12, 69, 0
14, 370320, Control_c, 12, 11, 120
14, 370600, Control_c, 12, 11, 121
14, 370880, Control_c, 12, 11, 122
14, 370920, Note_on_c, 12, 70, 84
14, 371039, Note_on_c, 12, 70, 0
14, 371040, Note_on_c, 12, 71, 84
14, 371160, Control_c, 12, 11, 123
14, 371279, Note_on_c, 12, 71, 0
14, 371440, Control_c, 12, 11, 125
14, 371720, Control_c, 12, 11, 126
14, 371760, Control_c, 12, 11, 127
14, 371880, Note_on_c, 12, 71, 84
14, 371999, Note_on_c, 12, 71, 0
14, 372000, Note_on_c, 12, 72, 84
14, 372089, Note_on_c, 12, 72, 0
14, 372120, Note_on_c, 12, 71, 84
14, 372209, Note_on_c, 12, 71, 0
14, 372240, Note_on_c, 12, 69, 84
14, 372329, Note_on_c, 12, 69, 0
14, 372360, Note_on_c, 12, 71, 84
14, 372449, Note_on_c, 12, 71, 0
14, 372480, Note_on_c, 12, 72, 84
14, 372569, Note_on_c, 12, 72, 0
14, 372600, Note_on_c, 12, 71, 84
14, 372689, Note_on_c, 12, 71, 0
14, 372720, Note_on_c, 12, 72, 84
14, 372809, Note_on_c, 12, 72, 0
14, 372840, Note_on_c, 12, 71, 84
14, 372929, Note_on_c, 12, 71, 0
14, 372960, Note_on_c, 12, 72, 84
14, 373049, Note_on_c, 12, 72, 0
14, 373080, Note_on_c, 12, 71, 84
14, 373169, Note_on_c, 12, 71, 0
14, 373200, Note_on_c, 12, 69, 84
14, 373289, Note_on_c, 12, 69, 0
14, 373320, Note_on_c, 12, 71, 84
14, 373409, Note_on_c, 12, 71, 0
14, 373440, Note_on_c, 12, 72, 84
14, 373529, Note_on_c, 12, 72, 0
14, 373560, Note_on_c, 12, 71, 84
14, 373649, Note_on_c, 12, 71, 0
14, 373680, Note_on_c, 12, 72, 84
14, 373769, Note_on_c, 12, 72, 0
14, 373800, Note_on_c, 12, 71, 84
14, 373889, Note_on_c, 12, 71, 0
14, 373920, Note_on_c, 12, 72, 84
14, 374009, Note_on_c, 12, 72, 0
14, 374040, Note_on_c, 12, 71, 84
14, 374129, Note_on_c, 12, 71, 0
14, 374160, Note_on_c, 12, 72, 84
14, 374249, Note_on_c, 12, 72, 0
14, 374280, Note_on_c, 12, 71, 84
14, 374369, Note_on_c, 12, 71, 0
14, 374400, Note_on_c, 12, 72, 84
14, 374489, Note_on_c, 12, 72, 0
14, 374520, Note_on_c, 12, 71, 84
14, 374609, Note_on_c, 12, 71, 0
14, 374640, Note_on_c, 12, 72, 84
14, 374729, Note_on_c, 12, 72, 0
14, 374760, Note_on_c, 12, 71, 84
14, 374849, Note_on_c, 12, 71, 0
14, 374880, Note_on_c, 12, 72, 84
14, 374969, Note_on_c, 12, 72, 0
14, 375000, Note_on_c, 12, 71, 84
14, 375089, Note_on_c, 12, 71, 0
14, 375120, Note_on_c, 12, 69, 84
14, 375209, Note_on_c, 12, 69, 0
14, 375240, Note_on_c, 12, 67, 84
14, 375329, Note_on_c, 12, 67, 0
14, 375360, Note_on_c, 12, 66, 84
14, 375449, Note_on_c, 12, 66, 0
14, 375480, Note_on_c, 12, 64, 84
14, 375569, Note_on_c, 12, 64, 0
14, 375600, Note_on_c, 12, 62, 84
14, 375689, Note_on_c, 12, 62, 0
14, 375720, Note_on_c, 12, 60, 84
14, 375809, Note_on_c, 12, 60, 0
14, 375840, Note_on_c, 12, 59, 92
14, 375929, Note_on_c, 12, 59, 0
14, 375960, Note_on_c, 12, 59, 84
14, 376049, Note_on_c, 12, 59, 0
14, 376080, Note_on_c, 12, 62, 84
14, 376169, Note_on_c, 12, 62, 0
14, 376200, Note_on_c, 12, 62, 84
14, 376289, Note_on_c, 12, 62, 0
14, 376320, Note_on_c, 12, 67, 84
14, 376409, Note_on_c, 12, 67, 0
14, 376440, Note_on_c, 12, 67, 84
14, 376529, Note_on_c, 12, 67, 0
14, 376560, Note_on_c, 12, 71, 84
14, 376649, Note_on_c, 12, 71, 0
14, 376680, Note_on_c, 12, 71, 84
14, 376769, Note_on_c, 12, 71, 0
14, 376800, Note_on_c, 12, 74, 84
14, 376889, Note_on_c, 12, 74, 0
14, 376920, Note_on_c, 12, 74, 84
14, 377009, Note_on_c, 12, 74, 0
14, 377040, Note_on_c, 12, 79, 84
14, 377129, Note_on_c, 12, 79, 0
14, 377160, Note_on_c, 12, 79, 84
14, 377249, Note_on_c, 12, 79, 0
14, 377280, Note_on_c, 12, 82, 84
14, 377369, Note_on_c, 12, 82, 0
14, 377400, Note_on_c, 12, 82, 84
14, 377489, Note_on_c, 12, 82, 0
14, 377520, Note_on_c, 12, 86, 84
14, 377609, Note_on_c, 12, 86, 0
14, 377640, Note_on_c, 12, 86, 84
14, 377729, Note_on_c, 12, 86, 0
14, 377760, Note_on_c, 12, 66, 92
14, 377760, Note_on_c, 12, 74, 92
14, 377849, Note_on_c, 12, 66, 0
14, 377849, Note_on_c, 12, 74, 0
14, 377880, Note_on_c, 12, 66, 84
14, 377880, Note_on_c, 12, 74, 84
14, 377969, Note_on_c, 12, 66, 0
14, 377969, Note_on_c, 12, 74, 0
14, 378000, Note_on_c, 12, 66, 84
14, 378000, Note_on_c, 12, 74, 84
14, 378089, Note_on_c, 12, 66, 0
14, 378089, Note_on_c, 12, 74, 0
14, 378120, Note_on_c, 12, 74, 84
14, 378120, Note_on_c, 12, 66, 84
14, 378209, Note_on_c, 12, 74, 0
14, 378209, Note_on_c, 12, 66, 0
14, 378240, Note_on_c, 12, 74, 84
14, 378240, Note_on_c, 12, 66, 84
14, 378329, Note_on_c, 12, 74, 0
14, 378329, Note_on_c, 12, 66, 0
14, 378360, Note_on_c, 12, 66, 84
14, 378360, Note_on_c, 12, 74, 84
14, 378449, Note_on_c, 12, 66, 0
14, 378449, Note_on_c, 12, 74, 0
14, 378480, Note_on_c, 12, 74, 84
14, 378480, Note_on_c, 12, 66, 84
14, 378569, Note_on_c, 12, 74, 0
14, 378569, Note_on_c, 12, 66, 0
14, 378600, Note_on_c, 12, 74, 84
14, 378600, Note_on_c, 12, 66, 84
14, 378689, Note_on_c, 12, 74, 0
14, 378689, Note_on_c, 12, 66, 0
14, 378720, Note_on_c, 12, 64, 92
14, 378720, Note_on_c, 12, 73, 92
14, 378809, Note_on_c, 12, 64, 0
14, 378809, Note_on_c, 12, 73, 0
14, 378840, Note_on_c, 12, 73, 84
14, 378840, Note_on_c, 12, 64, 84
14, 378929, Note_on_c, 12, 73, 0
14, 378929, Note_on_c, 12, 64, 0
14, 378960, Note_on_c, 12, 64, 84
14, 378960, Note_on_c, 12, 73, 84
14, 379049, Note_on_c, 12, 64, 0
14, 379049, Note_on_c, 12, 73, 0
14, 379080, Note_on_c, 12, 64, 84
14, 379080, Note_on_c, 12, 73, 84
14, 379169, Note_on_c, 12, 64, 0
14, 379169, Note_on_c, 12, 73, 0
14, 379200, Note_on_c, 12, 73, 84
14, 379200, Note_on_c, 12, 64, 84
14, 379289, Note_on_c, 12, 73, 0
14, 379289, Note_on_c, 12, 64, 0
14, 379320, Note_on_c, 12, 73, 84
14, 379320, Note_on_c, 12, 64, 84
14, 379409, Note_on_c, 12, 73, 0
14, 379409, Note_on_c, 12, 64, 0
14, 379440, Note_on_c, 12, 64, 84
14, 379440, Note_on_c, 12, 73, 84
14, 379529, Note_on_c, 12, 64, 0
14, 379529, Note_on_c, 12, 73, 0
14, 379560, Note_on_c, 12, 64, 84
14, 379560, Note_on_c, 12, 73, 84
14, 379649, Note_on_c, 12, 64, 0
14, 379649, Note_on_c, 12, 73, 0
14, 379680, Note_on_c, 12, 72, 84
14, 379769, Note_on_c, 12, 72, 0
14, 379800, Note_on_c, 12, 71, 84
14, 379889, Note_on_c, 12, 71, 0
14, 379920, Note_on_c, 12, 69, 84
14, 380009, Note_on_c, 12, 69, 0
14, 380040, Note_on_c, 12, 71, 84
14, 380129, Note_on_c, 12, 71, 0
14, 380160, Note_on_c, 12, 72, 84
14, 380249, Note_on_c, 12, 72, 0
14, 380280, Note_on_c, 12, 71, 84
14, 380369, Note_on_c, 12, 71, 0
14, 380400, Note_on_c, 12, 72, 84
14, 380489, Note_on_c, 12, 72, 0
14, 380520, Note_on_c, 12, 71, 84
14, 380609, Note_on_c, 12, 71, 0
14, 380640, Note_on_c, 12, 72, 84
14, 380729, Note_on_c, 12, 72, 0
14, 380760, Note_on_c, 12, 71, 84
14, 380849, Note_on_c, 12, 71, 0
14, 380880, Note_on_c, 12, 69, 84
14, 380969, Note_on_c, 12, 69, 0
14, 381000, Note_on_c, 12, 71, 84
14, 381089, Note_on_c, 12, 71, 0
14, 381120, Note_on_c, 12, 72, 84
14, 381209, Note_on_c, 12, 72, 0
14, 381240, Note_on_c, 12, 71, 84
14, 381329, Note_on_c, 12, 71, 0
14, 381360, Note_on_c, 12, 72, 84
14, 381449, Note_on_c, 12, 72, 0
14, 381480, Note_on_c, 12, 71, 84
14, 381569, Note_on_c, 12, 71, 0
14, 381600, Note_on_c, 12, 72, 84
14, 381689, Note_on_c, 12, 72, 0
14, 381720, Note_on_c, 12, 71, 84
14, 381809, Note_on_c, 12, 71, 0
14, 381840, Note_on_c, 12, 72, 84
14, 381929, Note_on_c, 12, 72, 0
14, 381960, Note_on_c, 12, 71, 84
14, 382049, Note_on_c, 12, 71, 0
14, 382080, Note_on_c, 12, 72, 84
14, 382169, Note_on_c, 12, 72, 0
14, 382200, Note_on_c, 12, 71, 84
14, 382289, Note_on_c, 12, 71, 0
14, 382320, Note_on_c, 12, 72, 84
14, 382409, Note_on_c, 12, 72, 0
14, 382440, Note_on_c, 12, 71, 84
14, 382529, Note_on_c, 12, 71, 0
14, 382560, Note_on_c, 12, 72, 84
14, 382649, Note_on_c, 12, 72, 0
14, 382680, Note_on_c, 12, 71, 84
14, 382769, Note_on_c, 12, 71, 0
14, 382800, Note_on_c, 12, 69, 84
14, 382889, Note_on_c, 12, 69, 0
14, 382920, Note_on_c, 12, 67, 84
14, 383009, Note_on_c, 12, 67, 0
14, 383040, Note_on_c, 12, 66, 84
14, 383129, Note_on_c, 12, 66, 0
14, 383160, Note_on_c, 12, 64, 84
14, 383249, Note_on_c, 12, 64, 0
14, 383280, Note_on_c, 12, 62, 84
14, 383369, Note_on_c, 12, 62, 0
14, 383400, Note_on_c, 12, 60, 84
14, 383489, Note_on_c, 12, 60, 0
14, 383520, Note_on_c, 12, 59, 84
14, 383729, Note_on_c, 12, 59, 0
14, 383760, Note_on_c, 12, 83, 84
14, 383849, Note_on_c, 12, 83, 0
14, 383880, Note_on_c, 12, 82, 84
14, 383969, Note_on_c, 12, 82, 0
14, 384000, Note_on_c, 12, 83, 84
14, 384089, Note_on_c, 12, 83, 0
14, 384120, Note_on_c, 12, 82, 84
14, 384209, Note_on_c, 12, 82, 0
14, 384240, Note_on_c, 12, 83, 84
14, 384329, Note_on_c, 12, 83, 0
14, 384360, Note_on_c, 12, 82, 84
14, 384449, Note_on_c, 12, 82, 0
14, 384480, Note_on_c, 12, 83, 84
14, 384569, Note_on_c, 12, 83, 0
14, 384600, Note_on_c, 12, 81, 84
14, 384689, Note_on_c, 12, 81, 0
14, 384720, Note_on_c, 12, 79, 84
14, 384809, Note_on_c, 12, 79, 0
14, 384840, Note_on_c, 12, 78, 84
14, 384929, Note_on_c, 12, 78, 0
14, 384960, Note_on_c, 12, 76, 84
14, 385049, Note_on_c, 12, 76, 0
14, 385080, Note_on_c, 12, 75, 84
14, 385169, Note_on_c, 12, 75, 0
14, 385200, Note_on_c, 12, 73, 84
14, 385289, Note_on_c, 12, 73, 0
14, 385320, Note_on_c, 12, 71, 84
14, 385409, Note_on_c, 12, 71, 0
14, 385440, Note_on_c, 12, 79, 84
14, 385529, Note_on_c, 12, 79, 0
14, 385560, Note_on_c, 12, 78, 84
14, 385649, Note_on_c, 12, 78, 0
14, 385680, Note_on_c, 12, 79, 84
14, 385769, Note_on_c, 12, 79, 0
14, 385800, Note_on_c, 12, 78, 84
14, 385889, Note_on_c, 12, 78, 0
14, 385920, Note_on_c, 12, 79, 84
14, 386009, Note_on_c, 12, 79, 0
14, 386040, Note_on_c, 12, 81, 84
14, 386129, Note_on_c, 12, 81, 0
14, 386160, Note_on_c, 12, 83, 84
14, 386249, Note_on_c, 12, 83, 0
14, 386280, Note_on_c, 12, 79, 84
14, 386369, Note_on_c, 12, 79, 0
14, 386400, Note_on_c, 12, 78, 84
14, 386489, Note_on_c, 12, 78, 0
14, 386520, Note_on_c, 12, 79, 84
14, 386609, Note_on_c, 12, 79, 0
14, 386640, Note_on_c, 12, 81, 84
14, 386729, Note_on_c, 12, 81, 0
14, 386760, Note_on_c, 12, 78, 84
14, 386849, Note_on_c, 12, 78, 0
14, 386880, Note_on_c, 12, 76, 84
14, 386969, Note_on_c, 12, 76, 0
14, 387000, Note_on_c, 12, 78, 84
14, 387089, Note_on_c, 12, 78, 0
14, 387120, Note_on_c, 12, 79, 84
14, 387209, Note_on_c, 12, 79, 0
14, 387240, Note_on_c, 12, 76, 84
14, 387329, Note_on_c, 12, 76, 0
14, 387360, Note_on_c, 12, 66, 52
14, 387449, Note_on_c, 12, 66, 0
14, 387480, Note_on_c, 12, 66, 52
14, 387569, Note_on_c, 12, 66, 0
14, 387600, Note_on_c, 12, 69, 52
14, 387689, Note_on_c, 12, 69, 0
14, 387720, Note_on_c, 12, 69, 52
14, 387809, Note_on_c, 12, 69, 0
14, 387840, Note_on_c, 12, 74, 52
14, 387929, Note_on_c, 12, 74, 0
14, 387960, Note_on_c, 12, 74, 52
14, 388049, Note_on_c, 12, 74, 0
14, 388080, Note_on_c, 12, 69, 52
14, 388169, Note_on_c, 12, 69, 0
14, 388200, Note_on_c, 12, 69, 52
14, 388289, Note_on_c, 12, 69, 0
14, 388320, Note_on_c, 12, 66, 52
14, 388409, Note_on_c, 12, 66, 0
14, 388440, Note_on_c, 12, 66, 52
14, 388529, Note_on_c, 12, 66, 0
14, 388560, Note_on_c, 12, 69, 52
14, 388649, Note_on_c, 12, 69, 0
14, 388680, Note_on_c, 12, 69, 52
14, 388769, Note_on_c, 12, 69, 0
14, 388800, Note_on_c, 12, 74, 52
14, 388889, Note_on_c, 12, 74, 0
14, 388920, Note_on_c, 12, 74, 52
14, 389009, Note_on_c, 12, 74, 0
14, 389040, Note_on_c, 12, 66, 52
14, 389129, Note_on_c, 12, 66, 0
14, 389160, Note_on_c, 12, 66, 52
14, 389249, Note_on_c, 12, 66, 0
14, 389280, Note_on_c, 12, 67, 52
14, 389369, Note_on_c, 12, 67, 0
14, 389400, Note_on_c, 12, 67, 52
14, 389489, Note_on_c, 12, 67, 0
14, 389520, Note_on_c, 12, 69, 52
14, 389609, Note_on_c, 12, 69, 0
14, 389640, Note_on_c, 12, 69, 52
14, 389729, Note_on_c, 12, 69, 0
14, 389760, Note_on_c, 12, 76, 52
14, 389849, Note_on_c, 12, 76, 0
14, 389880, Note_on_c, 12, 76, 52
14, 389969, Note_on_c, 12, 76, 0
14, 390000, Note_on_c, 12, 69, 52
14, 390089, Note_on_c, 12, 69, 0
14, 390120, Note_on_c, 12, 69, 52
14, 390209, Note_on_c, 12, 69, 0
14, 390240, Note_on_c, 12, 67, 52
14, 390329, Note_on_c, 12, 67, 0
14, 390360, Note_on_c, 12, 67, 52
14, 390449, Note_on_c, 12, 67, 0
14, 390480, Note_on_c, 12, 76, 52
14, 390569, Note_on_c, 12, 76, 0
14, 390600, Note_on_c, 12, 76, 52
14, 390689, Note_on_c, 12, 76, 0
14, 390720, Note_on_c, 12, 69, 52
14, 390809, Note_on_c, 12, 69, 0
14, 390840, Note_on_c, 12, 69, 52
14, 390929, Note_on_c, 12, 69, 0
14, 390960, Note_on_c, 12, 67, 52
14, 391049, Note_on_c, 12, 67, 0
14, 391080, Note_on_c, 12, 67, 52
14, 391169, Note_on_c, 12, 67, 0
14, 391200, Note_on_c, 12, 66, 52
14, 391289, Note_on_c, 12, 66, 0
14, 391320, Note_on_c, 12, 66, 52
14, 391409, Note_on_c, 12, 66, 0
14, 391440, Note_on_c, 12, 69, 52
14, 391529, Note_on_c, 12, 69, 0
14, 391560, Note_on_c, 12, 69, 52
14, 391649, Note_on_c, 12, 69, 0
14, 391680, Note_on_c, 12, 74, 52
14, 391769, Note_on_c, 12, 74, 0
14, 391800, Note_on_c, 12, 74, 52
14, 391889, Note_on_c, 12, 74, 0
14, 391920, Note_on_c, 12, 69, 52
14, 392009, Note_on_c, 12, 69, 0
14, 392040, Note_on_c, 12, 69, 52
14, 392129, Note_on_c, 12, 69, 0
14, 392160, Note_on_c, 12, 66, 52
14, 392249, Note_on_c, 12, 66, 0
14, 392280, Note_on_c, 12, 66, 52
14, 392369, Note_on_c, 12, 66, 0
14, 392400, Note_on_c, 12, 69, 52
14, 392489, Note_on_c, 12, 69, 0
14, 392520, Note_on_c, 12, 69, 52
14, 392609, Note_on_c, 12, 69, 0
14, 392640, Note_on_c, 12, 74, 52
14, 392729, Note_on_c, 12, 74, 0
14, 392760, Note_on_c, 12, 74, 52
14, 392849, Note_on_c, 12, 74, 0
14, 392880, Note_on_c, 12, 66, 52
14, 392969, Note_on_c, 12, 66, 0
14, 393000, Note_on_c, 12, 66, 52
14, 393089, Note_on_c, 12, 66, 0
14, 393120, Note_on_c, 12, 67, 52
14, 393209, Note_on_c, 12, 67, 0
14, 393240, Note_on_c, 12, 67, 52
14, 393329, Note_on_c, 12, 67, 0
14, 393360, Note_on_c, 12, 69, 52
14, 393449, Note_on_c, 12, 69, 0
14, 393480, Note_on_c, 12, 69, 52
14, 393569, Note_on_c, 12, 69, 0
14, 393600, Note_on_c, 12, 76, 52
14, 393689, Note_on_c, 12, 76, 0
14, 393720, Note_on_c, 12, 76, 52
14, 393809, Note_on_c, 12, 76, 0
14, 393840, Note_on_c, 12, 69, 52
14, 393929, Note_on_c, 12, 69, 0
14, 393960, Note_on_c, 12, 69, 52
14, 394049, Note_on_c, 12, 69, 0
14, 394080, Note_on_c, 12, 67, 52
14, 394169, Note_on_c, 12, 67, 0
14, 394200, Note_on_c, 12, 67, 52
14, 394289, Note_on_c, 12, 67, 0
14, 394320, Note_on_c, 12, 76, 52
14, 394409, Note_on_c, 12, 76, 0
14, 394440, Note_on_c, 12, 76, 52
14, 394529, Note_on_c, 12, 76, 0
14, 394560, Note_on_c, 12, 69, 52
14, 394649, Note_on_c, 12, 69, 0
14, 394680, Note_on_c, 12, 69, 52
14, 394769, Note_on_c, 12, 69, 0
14, 394800, Note_on_c, 12, 67, 52
14, 394889, Note_on_c, 12, 67, 0
14, 394920, Note_on_c, 12, 67, 52
14, 395009, Note_on_c, 12, 67, 0
14, 395040, Note_on_c, 12, 66, 52
14, 395129, Note_on_c, 12, 66, 0
14, 395160, Note_on_c, 12, 66, 52
14, 395249, Note_on_c, 12, 66, 0
14, 395280, Note_on_c, 12, 74, 52
14, 395369, Note_on_c, 12, 74, 0
14, 395400, Note_on_c, 12, 74, 52
14, 395489, Note_on_c, 12, 74, 0
14, 395520, Note_on_c, 12, 69, 52
14, 395609, Note_on_c, 12, 69, 0
14, 395640, Note_on_c, 12, 69, 52
14, 395729, Note_on_c, 12, 69, 0
14, 395760, Note_on_c, 12, 66, 53
14, 395849, Note_on_c, 12, 66, 0
14, 395880, Note_on_c, 12, 66, 54
14, 395969, Note_on_c, 12, 66, 0
14, 396000, Note_on_c, 12, 67, 55
14, 396089, Note_on_c, 12, 67, 0
14, 396120, Note_on_c, 12, 67, 56
14, 396209, Note_on_c, 12, 67, 0
14, 396240, Note_on_c, 12, 76, 57
14, 396329, Note_on_c, 12, 76, 0
14, 396360, Note_on_c, 12, 76, 58
14, 396449, Note_on_c, 12, 76, 0
14, 396480, Note_on_c, 12, 69, 58
14, 396569, Note_on_c, 12, 69, 0
14, 396600, Note_on_c, 12, 69, 59
14, 396689, Note_on_c, 12, 69, 0
14, 396720, Note_on_c, 12, 67, 60
14, 396809, Note_on_c, 12, 67, 0
14, 396840, Note_on_c, 12, 67, 61
14, 396929, Note_on_c, 12, 67, 0
14, 396960, Note_on_c, 12, 66, 62
14, 397049, Note_on_c, 12, 66, 0
14, 397080, Note_on_c, 12, 66, 63
14, 397169, Note_on_c, 12, 66, 0
14, 397200, Note_on_c, 12, 74, 64
14, 397289, Note_on_c, 12, 74, 0
14, 397320, Note_on_c, 12, 74, 64
14, 397409, Note_on_c, 12, 74, 0
14, 397440, Note_on_c, 12, 69, 65
14, 397529, Note_on_c, 12, 69, 0
14, 397560, Note_on_c, 12, 69, 66
14, 397649, Note_on_c, 12, 69, 0
14, 397680, Note_on_c, 12, 66, 67
14, 397769, Note_on_c, 12, 66, 0
14, 397800, Note_on_c, 12, 66, 68
14, 397889, Note_on_c, 12, 66, 0
14, 397920, Note_on_c, 12, 67, 69
14, 398009, Note_on_c, 12, 67, 0
14, 398040, Note_on_c, 12, 67, 70
14, 398129, Note_on_c, 12, 67, 0
14, 398160, Note_on_c, 12, 76, 70
14, 398249, Note_on_c, 12, 76, 0
14, 398280, Note_on_c, 12, 76, 71
14, 398369, Note_on_c, 12, 76, 0
14, 398400, Note_on_c, 12, 69, 72
14, 398489, Note_on_c, 12, 69, 0
14, 398520, Note_on_c, 12, 69, 73
14, 398609, Note_on_c, 12, 69, 0
14, 398640, Note_on_c, 12, 67, 74
14, 398729, Note_on_c, 12, 67, 0
14, 398760, Note_on_c, 12, 67, 75
14, 398849, Note_on_c, 12, 67, 0
14, 398880, Note_on_c, 12, 66, 76
14, 399119, Note_on_c, 12, 66, 0
14, 399360, Note_on_c, 12, 66, 84
14, 400739, Note_on_c, 12, 66, 0
14, 400800, Note_on_c, 12, 61, 44
14, 400979, Note_on_c, 12, 61, 0
14, 401040, Note_on_c, 12, 61, 44
14, 401219, Note_on_c, 12, 61, 0
14, 401520, Note_on_c, 12, 61, 44
14, 401699, Note_on_c, 12, 61, 0
14, 402000, Note_on_c, 12, 62, 44
14, 402179, Note_on_c, 12, 62, 0
14, 402480, Note_on_c, 12, 64, 44
14, 402659, Note_on_c, 12, 64, 0
14, 402720, Note_on_c, 12, 62, 44
14, 402899, Note_on_c, 12, 62, 0
14, 404640, Note_on_c, 12, 62, 44
14, 404819, Note_on_c, 12, 62, 0
14, 404880, Note_on_c, 12, 62, 44
14, 405059, Note_on_c, 12, 62, 0
14, 405360, Note_on_c, 12, 62, 44
14, 405539, Note_on_c, 12, 62, 0
14, 405840, Note_on_c, 12, 61, 44
14, 406019, Note_on_c, 12, 61, 0
14, 406320, Note_on_c, 12, 62, 44
14, 406499, Note_on_c, 12, 62, 0
14, 406560, Note_on_c, 12, 64, 44
14, 406739, Note_on_c, 12, 64, 0
14, 408360, Note_on_c, 12, 61, 84
14, 408479, Note_on_c, 12, 61, 0
14, 408480, Note_on_c, 12, 62, 84
14, 408659, Note_on_c, 12, 62, 0
14, 408840, Note_on_c, 12, 66, 84
14, 408929, Note_on_c, 12, 66, 0
14, 408960, Note_on_c, 12, 66, 84
14, 409019, Note_on_c, 12, 66, 0
14, 409020, Note_on_c, 12, 67, 84
14, 409079, Note_on_c, 12, 67, 0
14, 409080, Note_on_c, 12, 66, 84
14, 409139, Note_on_c, 12, 66, 0
14, 409140, Note_on_c, 12, 67, 84
14, 409199, Note_on_c, 12, 67, 0
14, 409200, Note_on_c, 12, 66, 84
14, 409259, Note_on_c, 12, 66, 0
14, 409260, Note_on_c, 12, 67, 84
14, 409319, Note_on_c, 12, 67, 0
14, 409320, Note_on_c, 12, 64, 84
14, 409379, Note_on_c, 12, 64, 0
14, 409380, Note_on_c, 12, 66, 84
14, 409424, Note_on_c, 12, 66, 0
14, 409440, Note_on_c, 12, 69, 84
14, 409619, Note_on_c, 12, 69, 0
14, 409680, Note_on_c, 12, 62, 84
14, 409859, Note_on_c, 12, 62, 0
14, 410280, Note_on_c, 12, 61, 84
14, 410399, Note_on_c, 12, 61, 0
14, 410400, Note_on_c, 12, 62, 84
14, 410579, Note_on_c, 12, 62, 0
14, 410760, Note_on_c, 12, 69, 84
14, 410849, Note_on_c, 12, 69, 0
14, 410880, Note_on_c, 12, 69, 84
14, 410939, Note_on_c, 12, 69, 0
14, 410940, Note_on_c, 12, 71, 84
14, 410999, Note_on_c, 12, 71, 0
14, 411000, Note_on_c, 12, 69, 84
14, 411059, Note_on_c, 12, 69, 0
14, 411060, Note_on_c, 12, 71, 84
14, 411119, Note_on_c, 12, 71, 0
14, 411120, Note_on_c, 12, 69, 84
14, 411179, Note_on_c, 12, 69, 0
14, 411180, Note_on_c, 12, 71, 84
14, 411239, Note_on_c, 12, 71, 0
14, 411240, Note_on_c, 12, 68, 84
14, 411299, Note_on_c, 12, 68, 0
14, 411300, Note_on_c, 12, 69, 84
14, 411344, Note_on_c, 12, 69, 0
14, 411360, Note_on_c, 12, 74, 84
14, 411539, Note_on_c, 12, 74, 0
14, 411600, Note_on_c, 12, 66, 84
14, 411779, Note_on_c, 12, 66, 0
14, 412200, Note_on_c, 12, 61, 84
14, 412319, Note_on_c, 12, 61, 0
14, 412320, Note_on_c, 12, 62, 84
14, 412499, Note_on_c, 12, 62, 0
14, 412560, Note_on_c, 12, 62, 84
14, 412739, Note_on_c, 12, 62, 0
14, 412800, Note_on_c, 12, 66, 84
14, 412979, Note_on_c, 12, 66, 0
14, 413040, Note_on_c, 12, 57, 84
14, 413219, Note_on_c, 12, 57, 0
14, 413520, Note_on_c, 12, 66, 84
14, 413699, Note_on_c, 12, 66, 0
14, 413760, Note_on_c, 12, 69, 84
14, 413939, Note_on_c, 12, 69, 0
14, 414000, Note_on_c, 12, 62, 84
14, 414179, Note_on_c, 12, 62, 0
14, 414480, Note_on_c, 12, 69, 84
14, 414659, Note_on_c, 12, 69, 0
14, 414720, Note_on_c, 12, 74, 84
14, 414899, Note_on_c, 12, 74, 0
14, 414960, Note_on_c, 12, 69, 84
14, 415139, Note_on_c, 12, 69, 0
14, 415200, Note_on_c, 12, 74, 84
14, 415379, Note_on_c, 12, 74, 0
14, 415440, Note_on_c, 12, 69, 84
14, 415619, Note_on_c, 12, 69, 0
14, 415680, Note_on_c, 12, 74, 84
14, 415859, Note_on_c, 12, 74, 0
14, 415920, Note_on_c, 12, 69, 84
14, 416099, Note_on_c, 12, 69, 0
14, 416160, Note_on_c, 12, 74, 84
14, 416249, Note_on_c, 12, 74, 0
14, 416280, Note_on_c, 12, 74, 84
14, 416369, Note_on_c, 12, 74, 0
14, 416400, Note_on_c, 12, 69, 84
14, 416489, Note_on_c, 12, 69, 0
14, 416520, Note_on_c, 12, 69, 84
14, 416609, Note_on_c, 12, 69, 0
14, 416640, Note_on_c, 12, 74, 84
14, 416729, Note_on_c, 12, 74, 0
14, 416760, Note_on_c, 12, 74, 84
14, 416849, Note_on_c, 12, 74, 0
14, 416880, Note_on_c, 12, 69, 84
14, 416969, Note_on_c, 12, 69, 0
14, 417000, Note_on_c, 12, 69, 84
14, 417089, Note_on_c, 12, 69, 0
14, 417120, Note_on_c, 12, 74, 84
14, 417209, Note_on_c, 12, 74, 0
14, 417240, Note_on_c, 12, 74, 84
14, 417329, Note_on_c, 12, 74, 0
14, 417360, Note_on_c, 12, 69, 84
14, 417449, Note_on_c, 12, 69, 0
14, 417480, Note_on_c, 12, 69, 84
14, 417569, Note_on_c, 12, 69, 0
14, 417600, Note_on_c, 12, 74, 84
14, 417689, Note_on_c, 12, 74, 0
14, 417720, Note_on_c, 12, 74, 84
14, 417809, Note_on_c, 12, 74, 0
14, 417840, Note_on_c, 12, 69, 84
14, 417929, Note_on_c, 12, 69, 0
14, 417960, Note_on_c, 12, 69, 84
14, 418049, Note_on_c, 12, 69, 0
14, 418080, Note_on_c, 12, 74, 84
14, 418319, Note_on_c, 12, 74, 0
14, 419040, Note_on_c, 12, 74, 84
14, 419219, Note_on_c, 12, 74, 0
14, 419280, Note_on_c, 12, 73, 84
14, 419399, Note_on_c, 12, 73, 0
14, 419400, Note_on_c, 12, 71, 84
14, 419519, Note_on_c, 12, 71, 0
14, 419520, Note_on_c, 12, 69, 84
14, 419639, Note_on_c, 12, 69, 0
14, 419640, Note_on_c, 12, 67, 84
14, 419759, Note_on_c, 12, 67, 0
14, 419760, Note_on_c, 12, 66, 84
14, 419879, Note_on_c, 12, 66, 0
14, 419880, Note_on_c, 12, 64, 84
14, 419969, Note_on_c, 12, 64, 0
14, 420000, Note_on_c, 12, 62, 84
14, 420119, Note_on_c, 12, 62, 0
14, 420120, Note_on_c, 12, 61, 84
14, 420239, Note_on_c, 12, 61, 0
14, 420240, Note_on_c, 12, 62, 84
14, 420359, Note_on_c, 12, 62, 0
14, 420360, Note_on_c, 12, 61, 84
14, 420479, Note_on_c, 12, 61, 0
14, 420480, Note_on_c, 12, 62, 84
14, 420599, Note_on_c, 12, 62, 0
14, 420600, Note_on_c, 12, 61, 84
14, 420719, Note_on_c, 12, 61, 0
14, 420720, Note_on_c, 12, 62, 84
14, 420839, Note_on_c, 12, 62, 0
14, 420840, Note_on_c, 12, 61, 84
14, 420929, Note_on_c, 12, 61, 0
14, 420960, Note_on_c, 12, 62, 84
14, 421079, Note_on_c, 12, 62, 0
14, 421080, Note_on_c, 12, 61, 84
14, 421199, Note_on_c, 12, 61, 0
14, 421200, Note_on_c, 12, 62, 84
14, 421319, Note_on_c, 12, 62, 0
14, 421320, Note_on_c, 12, 61, 84
14, 421439, Note_on_c, 12, 61, 0
14, 421440, Note_on_c, 12, 62, 84
14, 421559, Note_on_c, 12, 62, 0
14, 421560, Note_on_c, 12, 61, 84
14, 421679, Note_on_c, 12, 61, 0
14, 421680, Note_on_c, 12, 62, 84
14, 421799, Note_on_c, 12, 62, 0
14, 421800, Note_on_c, 12, 61, 84
14, 421889, Note_on_c, 12, 61, 0
14, 421920, Note_on_c, 12, 62, 84
14, 422159, Note_on_c, 12, 62, 0
14, 422880, Note_on_c, 12, 78, 84
14, 422880, Note_on_c, 12, 69, 84
14, 422880, Note_on_c, 12, 62, 84
14, 423119, Note_on_c, 12, 78, 0
14, 423119, Note_on_c, 12, 69, 0
14, 423119, Note_on_c, 12, 62, 0
14, 423360, Note_on_c, 12, 78, 84
14, 423360, Note_on_c, 12, 69, 84
14, 423360, Note_on_c, 12, 62, 84
14, 423599, Note_on_c, 12, 78, 0
14, 423599, Note_on_c, 12, 69, 0
14, 423599, Note_on_c, 12, 62, 0
14, 423840, Note_on_c, 12, 78, 84
14, 423840, Note_on_c, 12, 69, 84
14, 423840, Note_on_c, 12, 62, 84
14, 424079, Note_on_c, 12, 78, 0
14, 424079, Note_on_c, 12, 69, 0
14, 424079, Note_on_c, 12, 62, 0
14, 424800, Note_on_c, 12, 74, 84
14, 424800, Note_on_c, 12, 66, 84
14, 424800, Note_on_c, 12, 57, 84
14, 425039, Note_on_c, 12, 74, 0
14, 425039, Note_on_c, 12, 66, 0
14, 425039, Note_on_c, 12, 57, 0
14, 425760, Note_on_c, 12, 62, 84
14, 425999, Note_on_c, 12, 62, 0
14, 425999, End_track
15, 0, Start_track
15, 0, Title_t, "Viola "
15, 0, MIDI_port, 0
15, 0, Program_c, 13, 48
15, 0, Control_c, 13, 11, 127
15, 0, Control_c, 13, 10, 70
15, 0, Control_c, 13, 7, 96
15, 840, Note_on_c, 13, 61, 76
15, 929, Note_on_c, 13, 61, 0
15, 960, Note_on_c, 13, 61, 84
15, 1019, Note_on_c, 13, 61, 0
15, 1020, Note_on_c, 13, 62, 76
15, 1079, Note_on_c, 13, 62, 0
15, 1080, Note_on_c, 13, 61, 76
15, 1139, Note_on_c, 13, 61, 0
15, 1140, Note_on_c, 13, 62, 76
15, 1199, Note_on_c, 13, 62, 0
15, 1200, Note_on_c, 13, 61, 76
15, 1259, Note_on_c, 13, 61, 0
15, 1260, Note_on_c, 13, 62, 76
15, 1319, Note_on_c, 13, 62, 0
15, 1320, Note_on_c, 13, 59, 76
15, 1379, Note_on_c, 13, 59, 0
15, 1380, Note_on_c, 13, 61, 76
15, 1424, Note_on_c, 13, 61, 0
15, 1440, Note_on_c, 13, 64, 76
15, 1619, Note_on_c, 13, 64, 0
15, 1680, Note_on_c, 13, 57, 76
15, 1859, Note_on_c, 13, 57, 0
15, 2160, Note_on_c, 13, 67, 52
15, 2399, Note_on_c, 13, 67, 0
15, 2400, Note_on_c, 13, 66, 52
15, 2879, Note_on_c, 13, 66, 0
15, 2880, Note_on_c, 13, 61, 52
15, 3329, Note_on_c, 13, 61, 0
15, 3360, Note_on_c, 13, 62, 52
15, 3839, Note_on_c, 13, 62, 0
15, 3840, Note_on_c, 13, 67, 52
15, 4319, Note_on_c, 13, 67, 0
15, 4320, Note_on_c, 13, 66, 52
15, 4799, Note_on_c, 13, 66, 0
15, 4800, Note_on_c, 13, 64, 52
15, 5249, Note_on_c, 13, 64, 0
15, 5280, Note_on_c, 13, 62, 76
15, 5459, Note_on_c, 13, 62, 0
15, 5520, Note_on_c, 13, 57, 76
15, 5699, Note_on_c, 13, 57, 0
15, 6600, Note_on_c, 13, 61, 84
15, 6689, Note_on_c, 13, 61, 0
15, 6720, Note_on_c, 13, 61, 92
15, 6779, Note_on_c, 13, 61, 0
15, 6780, Note_on_c, 13, 62, 84
15, 6839, Note_on_c, 13, 62, 0
15, 6840, Note_on_c, 13, 61, 84
15, 6899, Note_on_c, 13, 61, 0
15, 6900, Note_on_c, 13, 62, 84
15, 6959, Note_on_c, 13, 62, 0
15, 6960, Note_on_c, 13, 61, 84
15, 7019, Note_on_c, 13, 61, 0
15, 7020, Note_on_c, 13, 62, 84
15, 7079, Note_on_c, 13, 62, 0
15, 7080, Note_on_c, 13, 59, 84
15, 7139, Note_on_c, 13, 59, 0
15, 7140, Note_on_c, 13, 61, 84
15, 7184, Note_on_c, 13, 61, 0
15, 7200, Note_on_c, 13, 64, 84
15, 7379, Note_on_c, 13, 64, 0
15, 7440, Note_on_c, 13, 57, 84
15, 7619, Note_on_c, 13, 57, 0
15, 7920, Note_on_c, 13, 67, 52
15, 8159, Note_on_c, 13, 67, 0
15, 8160, Note_on_c, 13, 66, 52
15, 8639, Note_on_c, 13, 66, 0
15, 8640, Note_on_c, 13, 61, 52
15, 9089, Note_on_c, 13, 61, 0
15, 9120, Note_on_c, 13, 62, 52
15, 9599, Note_on_c, 13, 62, 0
15, 9600, Note_on_c, 13, 67, 52
15, 10079, Note_on_c, 13, 67, 0
15, 10080, Note_on_c, 13, 66, 52
15, 10559, Note_on_c, 13, 66, 0
15, 10560, Note_on_c, 13, 64, 52
15, 11009, Note_on_c, 13, 64, 0
15, 11040, Note_on_c, 13, 62, 76
15, 11279, Note_on_c, 13, 62, 0
15, 11880, Note_on_c, 13, 54, 76
15, 11969, Note_on_c, 13, 54, 0
15, 12000, Note_on_c, 13, 55, 76
15, 12179, Note_on_c, 13, 55, 0
15, 12240, Note_on_c, 13, 57, 76
15, 12419, Note_on_c, 13, 57, 0
15, 12480, Note_on_c, 13, 59, 76
15, 12659, Note_on_c, 13, 59, 0
15, 12720, Note_on_c, 13, 56, 76
15, 12899, Note_on_c, 13, 56, 0
15, 12960, Note_on_c, 13, 57, 76
15, 13199, Note_on_c, 13, 57, 0
15, 13800, Note_on_c, 13, 58, 76
15, 13889, Note_on_c, 13, 58, 0
15, 13920, Note_on_c, 13, 59, 76
15, 14099, Note_on_c, 13, 59, 0
15, 14160, Note_on_c, 13, 54, 76
15, 14339, Note_on_c, 13, 54, 0
15, 14400, Note_on_c, 13, 55, 76
15, 14579, Note_on_c, 13, 55, 0
15, 14640, Note_on_c, 13, 52, 76
15, 14819, Note_on_c, 13, 52, 0
15, 14880, Note_on_c, 13, 50, 84
15, 15119, Note_on_c, 13, 50, 0
15, 15600, Note_on_c, 13, 54, 76
15, 15779, Note_on_c, 13, 54, 0
15, 15840, Note_on_c, 13, 55, 76
15, 16019, Note_on_c, 13, 55, 0
15, 16080, Note_on_c, 13, 57, 76
15, 16259, Note_on_c, 13, 57, 0
15, 16320, Note_on_c, 13, 59, 76
15, 16499, Note_on_c, 13, 59, 0
15, 16560, Note_on_c, 13, 56, 76
15, 16739, Note_on_c, 13, 56, 0
15, 16800, Note_on_c, 13, 57, 84
15, 17039, Note_on_c, 13, 57, 0
15, 17520, Note_on_c, 13, 60, 76
15, 17609, Note_on_c, 13, 60, 0
15, 17640, Note_on_c, 13, 60, 76
15, 17729, Note_on_c, 13, 60, 0
15, 17760, Note_on_c, 13, 59, 76
15, 17849, Note_on_c, 13, 59, 0
15, 17880, Note_on_c, 13, 59, 76
15, 17969, Note_on_c, 13, 59, 0
15, 18000, Note_on_c, 13, 60, 76
15, 18089, Note_on_c, 13, 60, 0
15, 18120, Note_on_c, 13, 60, 76
15, 18209, Note_on_c, 13, 60, 0
15, 18240, Note_on_c, 13, 59, 76
15, 18329, Note_on_c, 13, 59, 0
15, 18360, Note_on_c, 13, 59, 76
15, 18449, Note_on_c, 13, 59, 0
15, 18480, Note_on_c, 13, 58, 76
15, 18569, Note_on_c, 13, 58, 0
15, 18600, Note_on_c, 13, 58, 76
15, 18689, Note_on_c, 13, 58, 0
15, 18720, Note_on_c, 13, 57, 84
15, 18809, Note_on_c, 13, 57, 0
15, 18840, Note_on_c, 13, 61, 84
15, 18929, Note_on_c, 13, 61, 0
15, 18960, Note_on_c, 13, 61, 84
15, 19049, Note_on_c, 13, 61, 0
15, 19080, Note_on_c, 13, 61, 84
15, 19169, Note_on_c, 13, 61, 0
15, 19200, Note_on_c, 13, 64, 84
15, 19289, Note_on_c, 13, 64, 0
15, 19320, Note_on_c, 13, 64, 84
15, 19409, Note_on_c, 13, 64, 0
15, 19440, Note_on_c, 13, 64, 84
15, 19529, Note_on_c, 13, 64, 0
15, 19560, Note_on_c, 13, 64, 84
15, 19649, Note_on_c, 13, 64, 0
15, 19680, Note_on_c, 13, 62, 84
15, 19769, Note_on_c, 13, 62, 0
15, 19800, Note_on_c, 13, 62, 84
15, 19889, Note_on_c, 13, 62, 0
15, 19920, Note_on_c, 13, 62, 84
15, 20009, Note_on_c, 13, 62, 0
15, 20040, Note_on_c, 13, 62, 84
15, 20129, Note_on_c, 13, 62, 0
15, 20160, Note_on_c, 13, 62, 84
15, 20249, Note_on_c, 13, 62, 0
15, 20280, Note_on_c, 13, 62, 84
15, 20369, Note_on_c, 13, 62, 0
15, 20400, Note_on_c, 13, 62, 84
15, 20489, Note_on_c, 13, 62, 0
15, 20520, Note_on_c, 13, 62, 84
15, 20609, Note_on_c, 13, 62, 0
15, 20640, Note_on_c, 13, 61, 84
15, 20729, Note_on_c, 13, 61, 0
15, 20760, Note_on_c, 13, 61, 84
15, 20849, Note_on_c, 13, 61, 0
15, 20880, Note_on_c, 13, 61, 84
15, 20969, Note_on_c, 13, 61, 0
15, 21000, Note_on_c, 13, 61, 84
15, 21089, Note_on_c, 13, 61, 0
15, 21120, Note_on_c, 13, 64, 84
15, 21209, Note_on_c, 13, 64, 0
15, 21240, Note_on_c, 13, 64, 84
15, 21329, Note_on_c, 13, 64, 0
15, 21360, Note_on_c, 13, 64, 84
15, 21449, Note_on_c, 13, 64, 0
15, 21480, Note_on_c, 13, 64, 84
15, 21569, Note_on_c, 13, 64, 0
15, 21600, Note_on_c, 13, 62, 84
15, 21689, Note_on_c, 13, 62, 0
15, 21720, Note_on_c, 13, 62, 84
15, 21809, Note_on_c, 13, 62, 0
15, 21840, Note_on_c, 13, 62, 84
15, 21929, Note_on_c, 13, 62, 0
15, 21960, Note_on_c, 13, 62, 84
15, 22049, Note_on_c, 13, 62, 0
15, 22080, Note_on_c, 13, 62, 84
15, 22169, Note_on_c, 13, 62, 0
15, 22200, Note_on_c, 13, 62, 84
15, 22289, Note_on_c, 13, 62, 0
15, 22320, Note_on_c, 13, 62, 84
15, 22409, Note_on_c, 13, 62, 0
15, 22440, Note_on_c, 13, 62, 84
15, 22529, Note_on_c, 13, 62, 0
15, 22560, Note_on_c, 13, 57, 84
15, 22769, Note_on_c, 13, 57, 0
15, 22800, Note_on_c, 13, 57, 84
15, 23009, Note_on_c, 13, 57, 0
15, 23040, Note_on_c, 13, 57, 84
15, 23249, Note_on_c, 13, 57, 0
15, 23280, Note_on_c, 13, 57, 84
15, 23489, Note_on_c, 13, 57, 0
15, 23520, Note_on_c, 13, 57, 84
15, 23759, Note_on_c, 13, 57, 0
15, 25440, Note_on_c, 13, 57, 52
15, 25919, Note_on_c, 13, 57, 0
15, 25920, Note_on_c, 13, 59, 52
15, 26159, Note_on_c, 13, 59, 0
15, 26160, Note_on_c, 13, 61, 52
15, 26369, Note_on_c, 13, 61, 0
15, 26400, Note_on_c, 13, 62, 52
15, 27329, Note_on_c, 13, 62, 0
15, 27360, Note_on_c, 13, 57, 52
15, 27839, Note_on_c, 13, 57, 0
15, 27840, Note_on_c, 13, 59, 52
15, 28079, Note_on_c, 13, 59, 0
15, 28080, Note_on_c, 13, 61, 52
15, 28289, Note_on_c, 13, 61, 0
15, 28320, Note_on_c, 13, 62, 52
15, 29249, Note_on_c, 13, 62, 0
15, 29280, Note_on_c, 13, 62, 52
15, 30479, Note_on_c, 13, 62, 0
15, 30480, Note_on_c, 13, 61, 52
15, 30659, Note_on_c, 13, 61, 0
15, 30720, Note_on_c, 13, 59, 52
15, 30899, Note_on_c, 13, 59, 0
15, 30960, Note_on_c, 13, 57, 52
15, 31109, Note_on_c, 13, 57, 0
15, 31200, Control_c, 13, 11, 96
15, 31200, Note_on_c, 13, 52, 68
15, 34529, Note_on_c, 13, 52, 0
15, 34560, Note_on_c, 13, 49, 68
15, 34560, Control_c, 13, 11, 96
15, 34680, Control_c, 13, 11, 99
15, 34800, Control_c, 13, 11, 101
15, 34920, Control_c, 13, 11, 104
15, 35039, Note_on_c, 13, 49, 0
15, 35040, Note_on_c, 13, 50, 68
15, 35040, Control_c, 13, 11, 106
15, 35160, Control_c, 13, 11, 109
15, 35280, Control_c, 13, 11, 112
15, 35400, Control_c, 13, 11, 114
15, 35519, Note_on_c, 13, 50, 0
15, 35520, Control_c, 13, 11, 117
15, 35520, Note_on_c, 13, 52, 68
15, 35640, Control_c, 13, 11, 119
15, 35760, Control_c, 13, 11, 122
15, 35880, Control_c, 13, 11, 124
15, 35969, Note_on_c, 13, 52, 0
15, 36000, Note_on_c, 13, 62, 52
15, 36000, Control_c, 13, 11, 127
15, 36689, Note_on_c, 13, 62, 0
15, 36720, Note_on_c, 13, 62, 52
15, 36929, Note_on_c, 13, 62, 0
15, 36960, Note_on_c, 13, 62, 52
15, 37199, Note_on_c, 13, 62, 0
15, 37200, Note_on_c, 13, 61, 52
15, 37439, Note_on_c, 13, 61, 0
15, 37440, Note_on_c, 13, 59, 52
15, 37679, Note_on_c, 13, 59, 0
15, 37680, Note_on_c, 13, 57, 52
15, 37889, Note_on_c, 13, 57, 0
15, 37920, Note_on_c, 13, 62, 52
15, 38609, Note_on_c, 13, 62, 0
15, 38640, Note_on_c, 13, 62, 52
15, 38849, Note_on_c, 13, 62, 0
15, 38865, Control_c, 13, 11, 80
15, 38880, Note_on_c, 13, 62, 76
15, 39119, Note_on_c, 13, 62, 0
15, 39120, Note_on_c, 13, 61, 76
15, 39359, Note_on_c, 13, 61, 0
15, 39360, Note_on_c, 13, 59, 76
15, 39599, Note_on_c, 13, 59, 0
15, 39600, Note_on_c, 13, 57, 76
15, 39809, Note_on_c, 13, 57, 0
15, 39840, Control_c, 13, 11, 80
15, 39840, Note_on_c, 13, 62, 76
15, 40000, Control_c, 13, 11, 84
15, 40160, Control_c, 13, 11, 88
15, 40320, Control_c, 13, 11, 92
15, 40480, Control_c, 13, 11, 96
15, 40559, Note_on_c, 13, 62, 0
15, 40560, Note_on_c, 13, 61, 76
15, 40640, Control_c, 13, 11, 100
15, 40799, Note_on_c, 13, 61, 0
15, 40800, Control_c, 13, 11, 104
15, 40800, Note_on_c, 13, 66, 76
15, 40960, Control_c, 13, 11, 107
15, 41039, Note_on_c, 13, 66, 0
15, 41040, Note_on_c, 13, 64, 76
15, 41120, Control_c, 13, 11, 111
15, 41279, Note_on_c, 13, 64, 0
15, 41280, Note_on_c, 13, 62, 76
15, 41280, Control_c, 13, 11, 115
15, 41440, Control_c, 13, 11, 119
15, 41519, Note_on_c, 13, 62, 0
15, 41520, Note_on_c, 13, 63, 76
15, 41600, Control_c, 13, 11, 123
15, 41729, Note_on_c, 13, 63, 0
15, 41760, Control_c, 13, 11, 127
15, 41760, Note_on_c, 13, 64, 76
15, 41849, Note_on_c, 13, 64, 0
15, 41880, Note_on_c, 13, 64, 76
15, 41969, Note_on_c, 13, 64, 0
15, 42000, Note_on_c, 13, 64, 76
15, 42089, Note_on_c, 13, 64, 0
15, 42120, Note_on_c, 13, 64, 76
15, 42209, Note_on_c, 13, 64, 0
15, 42240, Note_on_c, 13, 64, 76
15, 42329, Note_on_c, 13, 64, 0
15, 42360, Note_on_c, 13, 64, 76
15, 42449, Note_on_c, 13, 64, 0
15, 42480, Note_on_c, 13, 64, 76
15, 42569, Note_on_c, 13, 64, 0
15, 42600, Note_on_c, 13, 64, 76
15, 42689, Note_on_c, 13, 64, 0
15, 42720, Note_on_c, 13, 64, 84
15, 42809, Note_on_c, 13, 64, 0
15, 42840, Note_on_c, 13, 64, 76
15, 42929, Note_on_c, 13, 64, 0
15, 42960, Note_on_c, 13, 64, 76
15, 43049, Note_on_c, 13, 64, 0
15, 43080, Note_on_c, 13, 64, 76
15, 43169, Note_on_c, 13, 64, 0
15, 43200, Note_on_c, 13, 64, 76
15, 43289, Note_on_c, 13, 64, 0
15, 43320, Note_on_c, 13, 64, 76
15, 43409, Note_on_c, 13, 64, 0
15, 43440, Note_on_c, 13, 64, 76
15, 43529, Note_on_c, 13, 64, 0
15, 43560, Note_on_c, 13, 64, 76
15, 43649, Note_on_c, 13, 64, 0
15, 43680, Note_on_c, 13, 63, 76
15, 43769, Note_on_c, 13, 63, 0
15, 43800, Note_on_c, 13, 63, 76
15, 43889, Note_on_c, 13, 63, 0
15, 43920, Note_on_c, 13, 63, 76
15, 44009, Note_on_c, 13, 63, 0
15, 44040, Note_on_c, 13, 63, 76
15, 44129, Note_on_c, 13, 63, 0
15, 44160, Note_on_c, 13, 63, 76
15, 44249, Note_on_c, 13, 63, 0
15, 44280, Note_on_c, 13, 63, 76
15, 44369, Note_on_c, 13, 63, 0
15, 44400, Note_on_c, 13, 63, 76
15, 44489, Note_on_c, 13, 63, 0
15, 44520, Note_on_c, 13, 63, 76
15, 44609, Note_on_c, 13, 63, 0
15, 44640, Note_on_c, 13, 63, 84
15, 44729, Note_on_c, 13, 63, 0
15, 44760, Note_on_c, 13, 63, 76
15, 44849, Note_on_c, 13, 63, 0
15, 44880, Note_on_c, 13, 63, 76
15, 44969, Note_on_c, 13, 63, 0
15, 45000, Note_on_c, 13, 63, 76
15, 45089, Note_on_c, 13, 63, 0
15, 45120, Note_on_c, 13, 63, 76
15, 45209, Note_on_c, 13, 63, 0
15, 45240, Note_on_c, 13, 63, 76
15, 45329, Note_on_c, 13, 63, 0
15, 45360, Note_on_c, 13, 63, 76
15, 45449, Note_on_c, 13, 63, 0
15, 45480, Note_on_c, 13, 63, 76
15, 45569, Note_on_c, 13, 63, 0
15, 45600, Note_on_c, 13, 62, 76
15, 45689, Note_on_c, 13, 62, 0
15, 45720, Note_on_c, 13, 62, 76
15, 45809, Note_on_c, 13, 62, 0
15, 45840, Note_on_c, 13, 62, 76
15, 45929, Note_on_c, 13, 62, 0
15, 45960, Note_on_c, 13, 62, 76
15, 46049, Note_on_c, 13, 62, 0
15, 46080, Note_on_c, 13, 62, 84
15, 46169, Note_on_c, 13, 62, 0
15, 46200, Note_on_c, 13, 62, 76
15, 46289, Note_on_c, 13, 62, 0
15, 46320, Note_on_c, 13, 62, 76
15, 46409, Note_on_c, 13, 62, 0
15, 46440, Note_on_c, 13, 62, 76
15, 46529, Note_on_c, 13, 62, 0
15, 46560, Note_on_c, 13, 61, 76
15, 46649, Note_on_c, 13, 61, 0
15, 46680, Note_on_c, 13, 61, 76
15, 46769, Note_on_c, 13, 61, 0
15, 46800, Note_on_c, 13, 61, 76
15, 46889, Note_on_c, 13, 61, 0
15, 46920, Note_on_c, 13, 61, 76
15, 47009, Note_on_c, 13, 61, 0
15, 47040, Note_on_c, 13, 61, 84
15, 47129, Note_on_c, 13, 61, 0
15, 47160, Note_on_c, 13, 61, 76
15, 47249, Note_on_c, 13, 61, 0
15, 47280, Note_on_c, 13, 61, 76
15, 47369, Note_on_c, 13, 61, 0
15, 47400, Note_on_c, 13, 61, 76
15, 47489, Note_on_c, 13, 61, 0
15, 47520, Note_on_c, 13, 56, 76
15, 47759, Note_on_c, 13, 56, 0
15, 49680, Note_on_c, 13, 57, 52
15, 49680, Note_on_c, 13, 61, 52
15, 49859, Note_on_c, 13, 57, 0
15, 49859, Note_on_c, 13, 61, 0
15, 49920, Note_on_c, 13, 61, 52
15, 49920, Note_on_c, 13, 64, 52
15, 50099, Note_on_c, 13, 61, 0
15, 50099, Note_on_c, 13, 64, 0
15, 50160, Note_on_c, 13, 57, 52
15, 50160, Note_on_c, 13, 61, 52
15, 50339, Note_on_c, 13, 57, 0
15, 50339, Note_on_c, 13, 61, 0
15, 50640, Note_on_c, 13, 61, 52
15, 50640, Note_on_c, 13, 57, 52
15, 50819, Note_on_c, 13, 61, 0
15, 50819, Note_on_c, 13, 57, 0
15, 50880, Note_on_c, 13, 61, 52
15, 50880, Note_on_c, 13, 64, 52
15, 51059, Note_on_c, 13, 61, 0
15, 51059, Note_on_c, 13, 64, 0
15, 51120, Note_on_c, 13, 57, 52
15, 51120, Note_on_c, 13, 61, 52
15, 51299, Note_on_c, 13, 57, 0
15, 51299, Note_on_c, 13, 61, 0
15, 51600, Note_on_c, 13, 62, 52
15, 51600, Note_on_c, 13, 59, 52
15, 51779, Note_on_c, 13, 62, 0
15, 51779, Note_on_c, 13, 59, 0
15, 51840, Note_on_c, 13, 62, 52
15, 51840, Note_on_c, 13, 64, 52
15, 52019, Note_on_c, 13, 62, 0
15, 52019, Note_on_c, 13, 64, 0
15, 52080, Note_on_c, 13, 59, 52
15, 52080, Note_on_c, 13, 62, 52
15, 52259, Note_on_c, 13, 59, 0
15, 52259, Note_on_c, 13, 62, 0
15, 52560, Note_on_c, 13, 62, 68
15, 52560, Note_on_c, 13, 59, 68
15, 52739, Note_on_c, 13, 62, 0
15, 52739, Note_on_c, 13, 59, 0
15, 52800, Note_on_c, 13, 64, 52
15, 52800, Note_on_c, 13, 62, 52
15, 52979, Note_on_c, 13, 64, 0
15, 52979, Note_on_c, 13, 62, 0
15, 53040, Note_on_c, 13, 59, 52
15, 53040, Note_on_c, 13, 62, 52
15, 53219, Note_on_c, 13, 59, 0
15, 53219, Note_on_c, 13, 62, 0
15, 53280, Note_on_c, 13, 57, 52
15, 53280, Note_on_c, 13, 61, 52
15, 53459, Note_on_c, 13, 57, 0
15, 53459, Note_on_c, 13, 61, 0
15, 53520, Note_on_c, 13, 64, 52
15, 53520, Note_on_c, 13, 61, 52
15, 53699, Note_on_c, 13, 64, 0
15, 53699, Note_on_c, 13, 61, 0
15, 53760, Note_on_c, 13, 61, 52
15, 53760, Note_on_c, 13, 57, 52
15, 53939, Note_on_c, 13, 61, 0
15, 53939, Note_on_c, 13, 57, 0
15, 54000, Note_on_c, 13, 64, 52
15, 54000, Note_on_c, 13, 61, 52
15, 54179, Note_on_c, 13, 64, 0
15, 54179, Note_on_c, 13, 61, 0
15, 54480, Note_on_c, 13, 61, 52
15, 54480, Note_on_c, 13, 57, 52
15, 54659, Note_on_c, 13, 61, 0
15, 54659, Note_on_c, 13, 57, 0
15, 54720, Note_on_c, 13, 64, 52
15, 54720, Note_on_c, 13, 61, 52
15, 54899, Note_on_c, 13, 64, 0
15, 54899, Note_on_c, 13, 61, 0
15, 54960, Note_on_c, 13, 57, 52
15, 54960, Note_on_c, 13, 61, 52
15, 55139, Note_on_c, 13, 57, 0
15, 55139, Note_on_c, 13, 61, 0
15, 55440, Note_on_c, 13, 62, 52
15, 55440, Note_on_c, 13, 59, 52
15, 55619, Note_on_c, 13, 62, 0
15, 55619, Note_on_c, 13, 59, 0
15, 55680, Note_on_c, 13, 62, 52
15, 55680, Note_on_c, 13, 64, 52
15, 55859, Note_on_c, 13, 62, 0
15, 55859, Note_on_c, 13, 64, 0
15, 55920, Note_on_c, 13, 62, 52
15, 55920, Note_on_c, 13, 59, 52
15, 56099, Note_on_c, 13, 62, 0
15, 56099, Note_on_c, 13, 59, 0
15, 56400, Note_on_c, 13, 62, 68
15, 56400, Note_on_c, 13, 59, 68
15, 56579, Note_on_c, 13, 62, 0
15, 56579, Note_on_c, 13, 59, 0
15, 56640, Note_on_c, 13, 62, 52
15, 56640, Note_on_c, 13, 64, 52
15, 56819, Note_on_c, 13, 62, 0
15, 56819, Note_on_c, 13, 64, 0
15, 56880, Note_on_c, 13, 62, 52
15, 56880, Note_on_c, 13, 59, 52
15, 57059, Note_on_c, 13, 62, 0
15, 57059, Note_on_c, 13, 59, 0
15, 57105, Control_c, 13, 11, 96
15, 57120, Note_on_c, 13, 57, 68
15, 57120, Note_on_c, 13, 61, 68
15, 57299, Note_on_c, 13, 57, 0
15, 57299, Note_on_c, 13, 61, 0
15, 57360, Note_on_c, 13, 57, 68
15, 57360, Control_c, 13, 11, 99
15, 57360, Note_on_c, 13, 61, 68
15, 57539, Note_on_c, 13, 57, 0
15, 57539, Note_on_c, 13, 61, 0
15, 57600, Note_on_c, 13, 64, 68
15, 57600, Control_c, 13, 11, 101
15, 57600, Note_on_c, 13, 61, 68
15, 57779, Note_on_c, 13, 64, 0
15, 57779, Note_on_c, 13, 61, 0
15, 57840, Note_on_c, 13, 57, 68
15, 57840, Control_c, 13, 11, 104
15, 57840, Note_on_c, 13, 61, 68
15, 58019, Note_on_c, 13, 57, 0
15, 58019, Note_on_c, 13, 61, 0
15, 58080, Control_c, 13, 11, 106
15, 58320, Note_on_c, 13, 58, 68
15, 58320, Control_c, 13, 11, 109
15, 58320, Note_on_c, 13, 61, 68
15, 58499, Note_on_c, 13, 58, 0
15, 58499, Note_on_c, 13, 61, 0
15, 58560, Control_c, 13, 11, 112
15, 58560, Note_on_c, 13, 61, 68
15, 58560, Note_on_c, 13, 66, 68
15, 58739, Note_on_c, 13, 61, 0
15, 58739, Note_on_c, 13, 66, 0
15, 58800, Control_c, 13, 11, 114
15, 58800, Note_on_c, 13, 61, 68
15, 58800, Note_on_c, 13, 58, 68
15, 58979, Note_on_c, 13, 61, 0
15, 58979, Note_on_c, 13, 58, 0
15, 59040, Control_c, 13, 11, 117
15, 59280, Note_on_c, 13, 59, 68
15, 59280, Control_c, 13, 11, 119
15, 59280, Note_on_c, 13, 62, 68
15, 59459, Note_on_c, 13, 59, 0
15, 59459, Note_on_c, 13, 62, 0
15, 59520, Note_on_c, 13, 62, 68
15, 59520, Note_on_c, 13, 66, 68
15, 59520, Control_c, 13, 11, 122
15, 59699, Note_on_c, 13, 62, 0
15, 59699, Note_on_c, 13, 66, 0
15, 59760, Note_on_c, 13, 62, 68
15, 59760, Control_c, 13, 11, 124
15, 59760, Note_on_c, 13, 59, 68
15, 59939, Note_on_c, 13, 62, 0
15, 59939, Note_on_c, 13, 59, 0
15, 60000, Control_c, 13, 11, 127
15, 60240, Note_on_c, 13, 61, 76
15, 60240, Note_on_c, 13, 64, 76
15, 60419, Note_on_c, 13, 61, 0
15, 60419, Note_on_c, 13, 64, 0
15, 60480, Note_on_c, 13, 69, 68
15, 60480, Note_on_c, 13, 64, 68
15, 60659, Note_on_c, 13, 69, 0
15, 60659, Note_on_c, 13, 64, 0
15, 60720, Note_on_c, 13, 61, 68
15, 60720, Note_on_c, 13, 64, 68
15, 60899, Note_on_c, 13, 61, 0
15, 60899, Note_on_c, 13, 64, 0
15, 60960, Control_c, 13, 11, 127
15, 61040, Control_c, 13, 11, 124
15, 61120, Control_c, 13, 11, 122
15, 61200, Note_on_c, 13, 66, 68
15, 61200, Note_on_c, 13, 62, 68
15, 61200, Control_c, 13, 11, 119
15, 61280, Control_c, 13, 11, 117
15, 61360, Control_c, 13, 11, 114
15, 61379, Note_on_c, 13, 66, 0
15, 61379, Note_on_c, 13, 62, 0
15, 61440, Note_on_c, 13, 66, 68
15, 61440, Note_on_c, 13, 69, 68
15, 61440, Control_c, 13, 11, 112
15, 61520, Control_c, 13, 11, 109
15, 61600, Control_c, 13, 11, 106
15, 61619, Note_on_c, 13, 66, 0
15, 61619, Note_on_c, 13, 69, 0
15, 61680, Control_c, 13, 11, 104
15, 61680, Note_on_c, 13, 66, 68
15, 61680, Note_on_c, 13, 62, 68
15, 61760, Control_c, 13, 11, 101
15, 61840, Control_c, 13, 11, 99
15, 61859, Note_on_c, 13, 66, 0
15, 61859, Note_on_c, 13, 62, 0
15, 61920, Control_c, 13, 11, 96
15, 62160, Note_on_c, 13, 54, 68
15, 62160, Note_on_c, 13, 59, 68
15, 62339, Note_on_c, 13, 54, 0
15, 62339, Note_on_c, 13, 59, 0
15, 62400, Note_on_c, 13, 59, 68
15, 62400, Note_on_c, 13, 62, 68
15, 62579, Note_on_c, 13, 59, 0
15, 62579, Note_on_c, 13, 62, 0
15, 62640, Note_on_c, 13, 59, 68
15, 62640, Note_on_c, 13, 54, 68
15, 62819, Note_on_c, 13, 59, 0
15, 62819, Note_on_c, 13, 54, 0
15, 63105, Control_c, 13, 11, 127
15, 63120, Note_on_c, 13, 57, 52
15, 63120, Note_on_c, 13, 61, 52
15, 63299, Note_on_c, 13, 57, 0
15, 63299, Note_on_c, 13, 61, 0
15, 63360, Note_on_c, 13, 64, 52
15, 63360, Note_on_c, 13, 61, 52
15, 63539, Note_on_c, 13, 64, 0
15, 63539, Note_on_c, 13, 61, 0
15, 63600, Note_on_c, 13, 61, 52
15, 63600, Note_on_c, 13, 57, 52
15, 63779, Note_on_c, 13, 61, 0
15, 63779, Note_on_c, 13, 57, 0
15, 64080, Note_on_c, 13, 59, 52
15, 64080, Note_on_c, 13, 56, 52
15, 64259, Note_on_c, 13, 59, 0
15, 64259, Note_on_c, 13, 56, 0
15, 64320, Note_on_c, 13, 59, 52
15, 64320, Note_on_c, 13, 64, 52
15, 64499, Note_on_c, 13, 59, 0
15, 64499, Note_on_c, 13, 64, 0
15, 64560, Note_on_c, 13, 59, 52
15, 64560, Note_on_c, 13, 56, 52
15, 64739, Note_on_c, 13, 59, 0
15, 64739, Note_on_c, 13, 56, 0
15, 64800, Note_on_c, 13, 60, 52
15, 64800, Note_on_c, 13, 57, 52
15, 64979, Note_on_c, 13, 60, 0
15, 64979, Note_on_c, 13, 57, 0
15, 65040, Note_on_c, 13, 57, 52
15, 65040, Note_on_c, 13, 60, 52
15, 65219, Note_on_c, 13, 57, 0
15, 65219, Note_on_c, 13, 60, 0
15, 65280, Note_on_c, 13, 64, 52
15, 65280, Note_on_c, 13, 60, 52
15, 65459, Note_on_c, 13, 64, 0
15, 65459, Note_on_c, 13, 60, 0
15, 65520, Note_on_c, 13, 60, 52
15, 65520, Note_on_c, 13, 57, 52
15, 65699, Note_on_c, 13, 60, 0
15, 65699, Note_on_c, 13, 57, 0
15, 66000, Note_on_c, 13, 60, 52
15, 66000, Note_on_c, 13, 57, 52
15, 66179, Note_on_c, 13, 60, 0
15, 66179, Note_on_c, 13, 57, 0
15, 66240, Note_on_c, 13, 64, 52
15, 66240, Note_on_c, 13, 60, 52
15, 66419, Note_on_c, 13, 64, 0
15, 66419, Note_on_c, 13, 60, 0
15, 66480, Note_on_c, 13, 60, 52
15, 66480, Note_on_c, 13, 57, 52
15, 66659, Note_on_c, 13, 60, 0
15, 66659, Note_on_c, 13, 57, 0
15, 66960, Note_on_c, 13, 62, 52
15, 66960, Note_on_c, 13, 59, 52
15, 67139, Note_on_c, 13, 62, 0
15, 67139, Note_on_c, 13, 59, 0
15, 67200, Note_on_c, 13, 64, 52
15, 67200, Note_on_c, 13, 62, 52
15, 67379, Note_on_c, 13, 64, 0
15, 67379, Note_on_c, 13, 62, 0
15, 67440, Note_on_c, 13, 62, 52
15, 67440, Note_on_c, 13, 59, 52
15, 67619, Note_on_c, 13, 62, 0
15, 67619, Note_on_c, 13, 59, 0
15, 67920, Note_on_c, 13, 59, 68
15, 67920, Note_on_c, 13, 62, 68
15, 68099, Note_on_c, 13, 59, 0
15, 68099, Note_on_c, 13, 62, 0
15, 68160, Note_on_c, 13, 62, 52
15, 68160, Note_on_c, 13, 64, 52
15, 68339, Note_on_c, 13, 62, 0
15, 68339, Note_on_c, 13, 64, 0
15, 68400, Note_on_c, 13, 62, 52
15, 68400, Note_on_c, 13, 59, 52
15, 68579, Note_on_c, 13, 62, 0
15, 68579, Note_on_c, 13, 59, 0
15, 68625, Control_c, 13, 11, 96
15, 68640, Note_on_c, 13, 57, 68
15, 68640, Note_on_c, 13, 60, 68
15, 68819, Note_on_c, 13, 57, 0
15, 68819, Note_on_c, 13, 60, 0
15, 68880, Note_on_c, 13, 57, 68
15, 68880, Note_on_c, 13, 60, 68
15, 68960, Control_c, 13, 11, 99
15, 69059, Note_on_c, 13, 57, 0
15, 69059, Note_on_c, 13, 60, 0
15, 69120, Note_on_c, 13, 64, 68
15, 69120, Note_on_c, 13, 60, 68
15, 69280, Control_c, 13, 11, 101
15, 69299, Note_on_c, 13, 64, 0
15, 69299, Note_on_c, 13, 60, 0
15, 69360, Note_on_c, 13, 57, 68
15, 69360, Note_on_c, 13, 60, 68
15, 69539, Note_on_c, 13, 57, 0
15, 69539, Note_on_c, 13, 60, 0
15, 69600, Control_c, 13, 11, 104
15, 69840, Note_on_c, 13, 60, 68
15, 69840, Note_on_c, 13, 57, 68
15, 69920, Control_c, 13, 11, 106
15, 70019, Note_on_c, 13, 60, 0
15, 70019, Note_on_c, 13, 57, 0
15, 70080, Note_on_c, 13, 60, 68
15, 70080, Note_on_c, 13, 64, 68
15, 70240, Control_c, 13, 11, 109
15, 70259, Note_on_c, 13, 60, 0
15, 70259, Note_on_c, 13, 64, 0
15, 70320, Note_on_c, 13, 60, 68
15, 70320, Note_on_c, 13, 57, 68
15, 70499, Note_on_c, 13, 60, 0
15, 70499, Note_on_c, 13, 57, 0
15, 70560, Control_c, 13, 11, 112
15, 70800, Note_on_c, 13, 59, 68
15, 70800, Note_on_c, 13, 62, 68
15, 70880, Control_c, 13, 11, 114
15, 70979, Note_on_c, 13, 59, 0
15, 70979, Note_on_c, 13, 62, 0
15, 71040, Note_on_c, 13, 67, 68
15, 71040, Note_on_c, 13, 62, 68
15, 71200, Control_c, 13, 11, 117
15, 71219, Note_on_c, 13, 67, 0
15, 71219, Note_on_c, 13, 62, 0
15, 71280, Note_on_c, 13, 59, 68
15, 71280, Note_on_c, 13, 62, 68
15, 71459, Note_on_c, 13, 59, 0
15, 71459, Note_on_c, 13, 62, 0
15, 71520, Control_c, 13, 11, 119
15, 71760, Note_on_c, 13, 59, 68
15, 71760, Note_on_c, 13, 62, 68
15, 71840, Control_c, 13, 11, 122
15, 71939, Note_on_c, 13, 59, 0
15, 71939, Note_on_c, 13, 62, 0
15, 72000, Note_on_c, 13, 62, 68
15, 72000, Note_on_c, 13, 67, 68
15, 72160, Control_c, 13, 11, 124
15, 72179, Note_on_c, 13, 62, 0
15, 72179, Note_on_c, 13, 67, 0
15, 72240, Note_on_c, 13, 62, 68
15, 72240, Note_on_c, 13, 59, 68
15, 72419, Note_on_c, 13, 62, 0
15, 72419, Note_on_c, 13, 59, 0
15, 72480, Control_c, 13, 11, 127
15, 72720, Note_on_c, 13, 64, 52
15, 72720, Note_on_c, 13, 60, 52
15, 72899, Note_on_c, 13, 64, 0
15, 72899, Note_on_c, 13, 60, 0
15, 72960, Note_on_c, 13, 67, 52
15, 72960, Note_on_c, 13, 64, 52
15, 73139, Note_on_c, 13, 67, 0
15, 73139, Note_on_c, 13, 64, 0
15, 73200, Note_on_c, 13, 64, 52
15, 73200, Note_on_c, 13, 60, 52
15, 73379, Note_on_c, 13, 64, 0
15, 73379, Note_on_c, 13, 60, 0
15, 73680, Note_on_c, 13, 62, 52
15, 73680, Note_on_c, 13, 53, 52
15, 73859, Note_on_c, 13, 62, 0
15, 73859, Note_on_c, 13, 53, 0
15, 73920, Note_on_c, 13, 57, 52
15, 73920, Note_on_c, 13, 65, 52
15, 74099, Note_on_c, 13, 57, 0
15, 74099, Note_on_c, 13, 65, 0
15, 74160, Note_on_c, 13, 62, 52
15, 74160, Note_on_c, 13, 53, 52
15, 74339, Note_on_c, 13, 62, 0
15, 74339, Note_on_c, 13, 53, 0
15, 74640, Note_on_c, 13, 60, 52
15, 74640, Note_on_c, 13, 52, 52
15, 74819, Note_on_c, 13, 60, 0
15, 74819, Note_on_c, 13, 52, 0
15, 74880, Note_on_c, 13, 55, 52
15, 74880, Note_on_c, 13, 64, 52
15, 75059, Note_on_c, 13, 55, 0
15, 75059, Note_on_c, 13, 64, 0
15, 75120, Note_on_c, 13, 60, 52
15, 75120, Note_on_c, 13, 52, 52
15, 75299, Note_on_c, 13, 60, 0
15, 75299, Note_on_c, 13, 52, 0
15, 75600, Note_on_c, 13, 50, 52
15, 75600, Note_on_c, 13, 59, 52
15, 75779, Note_on_c, 13, 50, 0
15, 75779, Note_on_c, 13, 59, 0
15, 75840, Note_on_c, 13, 53, 52
15, 75840, Note_on_c, 13, 62, 52
15, 76019, Note_on_c, 13, 53, 0
15, 76019, Note_on_c, 13, 62, 0
15, 76080, Note_on_c, 13, 50, 52
15, 76080, Note_on_c, 13, 59, 52
15, 76259, Note_on_c, 13, 50, 0
15, 76259, Note_on_c, 13, 59, 0
15, 76320, Control_c, 13, 11, 80
15, 76560, Note_on_c, 13, 60, 76
15, 76560, Note_on_c, 13, 57, 76
15, 76640, Control_c, 13, 11, 84
15, 76739, Note_on_c, 13, 60, 0
15, 76739, Note_on_c, 13, 57, 0
15, 76800, Note_on_c, 13, 64, 76
15, 76800, Note_on_c, 13, 60, 76
15, 76960, Control_c, 13, 11, 88
15, 76979, Note_on_c, 13, 64, 0
15, 76979, Note_on_c, 13, 60, 0
15, 77040, Note_on_c, 13, 60, 76
15, 77040, Note_on_c, 13, 57, 76
15, 77219, Note_on_c, 13, 60, 0
15, 77219, Note_on_c, 13, 57, 0
15, 77280, Control_c, 13, 11, 92
15, 77520, Note_on_c, 13, 53, 76
15, 77520, Note_on_c, 13, 58, 76
15, 77600, Control_c, 13, 11, 96
15, 77699, Note_on_c, 13, 53, 0
15, 77699, Note_on_c, 13, 58, 0
15, 77760, Note_on_c, 13, 58, 76
15, 77760, Note_on_c, 13, 62, 76
15, 77920, Control_c, 13, 11, 100
15, 77939, Note_on_c, 13, 58, 0
15, 77939, Note_on_c, 13, 62, 0
15, 78000, Note_on_c, 13, 53, 76
15, 78000, Note_on_c, 13, 58, 76
15, 78179, Note_on_c, 13, 53, 0
15, 78179, Note_on_c, 13, 58, 0
15, 78240, Control_c, 13, 11, 104
15, 78480, Note_on_c, 13, 57, 76
15, 78480, Note_on_c, 13, 52, 76
15, 78560, Control_c, 13, 11, 107
15, 78659, Note_on_c, 13, 57, 0
15, 78659, Note_on_c, 13, 52, 0
15, 78720, Note_on_c, 13, 57, 76
15, 78720, Note_on_c, 13, 60, 76
15, 78880, Control_c, 13, 11, 111
15, 78899, Note_on_c, 13, 57, 0
15, 78899, Note_on_c, 13, 60, 0
15, 78960, Note_on_c, 13, 52, 76
15, 78960, Note_on_c, 13, 57, 76
15, 79139, Note_on_c, 13, 52, 0
15, 79139, Note_on_c, 13, 57, 0
15, 79200, Control_c, 13, 11, 115
15, 79440, Note_on_c, 13, 52, 76
15, 79440, Note_on_c, 13, 56, 76
15, 79520, Control_c, 13, 11, 119
15, 79619, Note_on_c, 13, 52, 0
15, 79619, Note_on_c, 13, 56, 0
15, 79680, Note_on_c, 13, 59, 76
15, 79680, Note_on_c, 13, 56, 76
15, 79840, Control_c, 13, 11, 127
15, 79859, Note_on_c, 13, 59, 0
15, 79859, Note_on_c, 13, 56, 0
15, 79920, Note_on_c, 13, 56, 76
15, 79920, Note_on_c, 13, 52, 76
15, 80099, Note_on_c, 13, 56, 0
15, 80099, Note_on_c, 13, 52, 0
15, 80160, Note_on_c, 13, 49, 76
15, 80339, Note_on_c, 13, 49, 0
15, 80400, Note_on_c, 13, 52, 76
15, 80579, Note_on_c, 13, 52, 0
15, 80640, Note_on_c, 13, 57, 76
15, 80819, Note_on_c, 13, 57, 0
15, 80880, Note_on_c, 13, 61, 76
15, 81059, Note_on_c, 13, 61, 0
15, 81120, Note_on_c, 13, 64, 84
15, 81809, Note_on_c, 13, 64, 0
15, 81840, Note_on_c, 13, 49, 76
15, 82019, Note_on_c, 13, 49, 0
15, 82080, Note_on_c, 13, 50, 76
15, 82259, Note_on_c, 13, 50, 0
15, 82320, Note_on_c, 13, 54, 76
15, 82499, Note_on_c, 13, 54, 0
15, 82560, Note_on_c, 13, 57, 76
15, 82739, Note_on_c, 13, 57, 0
15, 82800, Note_on_c, 13, 62, 76
15, 82979, Note_on_c, 13, 62, 0
15, 83040, Note_on_c, 13, 66, 84
15, 83729, Note_on_c, 13, 66, 0
15, 83760, Note_on_c, 13, 63, 76
15, 83969, Note_on_c, 13, 63, 0
15, 84000, Note_on_c, 13, 64, 84
15, 84179, Note_on_c, 13, 64, 0
15, 84240, Note_on_c, 13, 76, 76
15, 84479, Note_on_c, 13, 76, 0
15, 84720, Note_on_c, 13, 64, 76
15, 84899, Note_on_c, 13, 64, 0
15, 84960, Note_on_c, 13, 62, 84
15, 85139, Note_on_c, 13, 62, 0
15, 85200, Note_on_c, 13, 74, 76
15, 85439, Note_on_c, 13, 74, 0
15, 85680, Note_on_c, 13, 62, 76
15, 85859, Note_on_c, 13, 62, 0
15, 85920, Note_on_c, 13, 49, 76
15, 86099, Note_on_c, 13, 49, 0
15, 86160, Note_on_c, 13, 52, 76
15, 86339, Note_on_c, 13, 52, 0
15, 86400, Note_on_c, 13, 57, 76
15, 86579, Note_on_c, 13, 57, 0
15, 86640, Note_on_c, 13, 61, 76
15, 86819, Note_on_c, 13, 61, 0
15, 86880, Note_on_c, 13, 64, 84
15, 87569, Note_on_c, 13, 64, 0
15, 87600, Note_on_c, 13, 49, 76
15, 87779, Note_on_c, 13, 49, 0
15, 87840, Note_on_c, 13, 50, 76
15, 88019, Note_on_c, 13, 50, 0
15, 88080, Note_on_c, 13, 54, 76
15, 88259, Note_on_c, 13, 54, 0
15, 88320, Note_on_c, 13, 57, 76
15, 88499, Note_on_c, 13, 57, 0
15, 88560, Note_on_c, 13, 62, 76
15, 88739, Note_on_c, 13, 62, 0
15, 88800, Note_on_c, 13, 66, 84
15, 89489, Note_on_c, 13, 66, 0
15, 89520, Note_on_c, 13, 51, 76
15, 89699, Note_on_c, 13, 51, 0
15, 89760, Note_on_c, 13, 52, 84
15, 89939, Note_on_c, 13, 52, 0
15, 90000, Note_on_c, 13, 55, 84
15, 90179, Note_on_c, 13, 55, 0
15, 90240, Note_on_c, 13, 61, 84
15, 90419, Note_on_c, 13, 61, 0
15, 90480, Note_on_c, 13, 64, 84
15, 90659, Note_on_c, 13, 64, 0
15, 90720, Note_on_c, 13, 67, 84
15, 90899, Note_on_c, 13, 67, 0
15, 90960, Note_on_c, 13, 64, 84
15, 91139, Note_on_c, 13, 64, 0
15, 91200, Note_on_c, 13, 61, 84
15, 91379, Note_on_c, 13, 61, 0
15, 91440, Note_on_c, 13, 55, 84
15, 91619, Note_on_c, 13, 55, 0
15, 91680, Note_on_c, 13, 52, 84
15, 91859, Note_on_c, 13, 52, 0
15, 91920, Note_on_c, 13, 55, 84
15, 92099, Note_on_c, 13, 55, 0
15, 92160, Note_on_c, 13, 61, 84
15, 92339, Note_on_c, 13, 61, 0
15, 92400, Note_on_c, 13, 64, 84
15, 92579, Note_on_c, 13, 64, 0
15, 92640, Note_on_c, 13, 67, 84
15, 92819, Note_on_c, 13, 67, 0
15, 92880, Note_on_c, 13, 64, 84
15, 93059, Note_on_c, 13, 64, 0
15, 93120, Note_on_c, 13, 61, 84
15, 93299, Note_on_c, 13, 61, 0
15, 93360, Note_on_c, 13, 55, 84
15, 93539, Note_on_c, 13, 55, 0
15, 93600, Note_on_c, 13, 52, 84
15, 93779, Note_on_c, 13, 52, 0
15, 103560, Note_on_c, 13, 61, 76
15, 103649, Note_on_c, 13, 61, 0
15, 103680, Note_on_c, 13, 61, 84
15, 103739, Note_on_c, 13, 61, 0
15, 103740, Note_on_c, 13, 62, 76
15, 103799, Note_on_c, 13, 62, 0
15, 103800, Note_on_c, 13, 61, 76
15, 103859, Note_on_c, 13, 61, 0
15, 103860, Note_on_c, 13, 62, 76
15, 103919, Note_on_c, 13, 62, 0
15, 103920, Note_on_c, 13, 61, 76
15, 103979, Note_on_c, 13, 61, 0
15, 103980, Note_on_c, 13, 62, 76
15, 104039, Note_on_c, 13, 62, 0
15, 104040, Note_on_c, 13, 59, 76
15, 104099, Note_on_c, 13, 59, 0
15, 104100, Note_on_c, 13, 61, 76
15, 104144, Note_on_c, 13, 61, 0
15, 104160, Note_on_c, 13, 64, 76
15, 104339, Note_on_c, 13, 64, 0
15, 104400, Note_on_c, 13, 57, 76
15, 104579, Note_on_c, 13, 57, 0
15, 104880, Note_on_c, 13, 67, 52
15, 105119, Note_on_c, 13, 67, 0
15, 105120, Note_on_c, 13, 66, 52
15, 105599, Note_on_c, 13, 66, 0
15, 105600, Note_on_c, 13, 61, 52
15, 106049, Note_on_c, 13, 61, 0
15, 106080, Note_on_c, 13, 62, 52
15, 106559, Note_on_c, 13, 62, 0
15, 106560, Note_on_c, 13, 67, 52
15, 107039, Note_on_c, 13, 67, 0
15, 107040, Note_on_c, 13, 66, 52
15, 107519, Note_on_c, 13, 66, 0
15, 107520, Note_on_c, 13, 64, 52
15, 107969, Note_on_c, 13, 64, 0
15, 108000, Note_on_c, 13, 62, 76
15, 108179, Note_on_c, 13, 62, 0
15, 108240, Note_on_c, 13, 57, 76
15, 108419, Note_on_c, 13, 57, 0
15, 109320, Note_on_c, 13, 61, 84
15, 109409, Note_on_c, 13, 61, 0
15, 109440, Note_on_c, 13, 61, 92
15, 109499, Note_on_c, 13, 61, 0
15, 109500, Note_on_c, 13, 62, 84
15, 109559, Note_on_c, 13, 62, 0
15, 109560, Note_on_c, 13, 61, 84
15, 109619, Note_on_c, 13, 61, 0
15, 109620, Note_on_c, 13, 62, 84
15, 109679, Note_on_c, 13, 62, 0
15, 109680, Note_on_c, 13, 61, 84
15, 109739, Note_on_c, 13, 61, 0
15, 109740, Note_on_c, 13, 62, 84
15, 109799, Note_on_c, 13, 62, 0
15, 109800, Note_on_c, 13, 59, 84
15, 109859, Note_on_c, 13, 59, 0
15, 109860, Note_on_c, 13, 61, 84
15, 109904, Note_on_c, 13, 61, 0
15, 109920, Note_on_c, 13, 64, 84
15, 110099, Note_on_c, 13, 64, 0
15, 110160, Note_on_c, 13, 57, 84
15, 110339, Note_on_c, 13, 57, 0
15, 110640, Note_on_c, 13, 67, 52
15, 110879, Note_on_c, 13, 67, 0
15, 110880, Note_on_c, 13, 65, 52
15, 111359, Note_on_c, 13, 65, 0
15, 111360, Note_on_c, 13, 61, 52
15, 111809, Note_on_c, 13, 61, 0
15, 111840, Note_on_c, 13, 62, 52
15, 112319, Note_on_c, 13, 62, 0
15, 112320, Note_on_c, 13, 67, 52
15, 112799, Note_on_c, 13, 67, 0
15, 112800, Note_on_c, 13, 65, 52
15, 113279, Note_on_c, 13, 65, 0
15, 113280, Note_on_c, 13, 64, 52
15, 113729, Note_on_c, 13, 64, 0
15, 113760, Note_on_c, 13, 62, 76
15, 113849, Note_on_c, 13, 62, 0
15, 113880, Note_on_c, 13, 53, 76
15, 113969, Note_on_c, 13, 53, 0
15, 114000, Note_on_c, 13, 53, 76
15, 114089, Note_on_c, 13, 53, 0
15, 114120, Note_on_c, 13, 53, 76
15, 114209, Note_on_c, 13, 53, 0
15, 114240, Note_on_c, 13, 53, 76
15, 114329, Note_on_c, 13, 53, 0
15, 114360, Note_on_c, 13, 53, 76
15, 114449, Note_on_c, 13, 53, 0
15, 114480, Note_on_c, 13, 53, 76
15, 114569, Note_on_c, 13, 53, 0
15, 114600, Note_on_c, 13, 53, 76
15, 114689, Note_on_c, 13, 53, 0
15, 114720, Note_on_c, 13, 53, 76
15, 114809, Note_on_c, 13, 53, 0
15, 114840, Note_on_c, 13, 53, 76
15, 114929, Note_on_c, 13, 53, 0
15, 114960, Note_on_c, 13, 53, 76
15, 115049, Note_on_c, 13, 53, 0
15, 115080, Note_on_c, 13, 53, 76
15, 115169, Note_on_c, 13, 53, 0
15, 115200, Note_on_c, 13, 53, 76
15, 115289, Note_on_c, 13, 53, 0
15, 115320, Note_on_c, 13, 53, 76
15, 115409, Note_on_c, 13, 53, 0
15, 115440, Note_on_c, 13, 53, 76
15, 115529, Note_on_c, 13, 53, 0
15, 115560, Note_on_c, 13, 53, 76
15, 115649, Note_on_c, 13, 53, 0
15, 115680, Note_on_c, 13, 55, 76
15, 115769, Note_on_c, 13, 55, 0
15, 115800, Note_on_c, 13, 55, 76
15, 115889, Note_on_c, 13, 55, 0
15, 115920, Note_on_c, 13, 55, 76
15, 116009, Note_on_c, 13, 55, 0
15, 116040, Note_on_c, 13, 55, 76
15, 116129, Note_on_c, 13, 55, 0
15, 116160, Note_on_c, 13, 55, 76
15, 116249, Note_on_c, 13, 55, 0
15, 116280, Note_on_c, 13, 55, 76
15, 116369, Note_on_c, 13, 55, 0
15, 116400, Note_on_c, 13, 55, 76
15, 116489, Note_on_c, 13, 55, 0
15, 116520, Note_on_c, 13, 55, 76
15, 116609, Note_on_c, 13, 55, 0
15, 116640, Note_on_c, 13, 55, 76
15, 116729, Note_on_c, 13, 55, 0
15, 116760, Note_on_c, 13, 55, 76
15, 116849, Note_on_c, 13, 55, 0
15, 116880, Note_on_c, 13, 55, 76
15, 116969, Note_on_c, 13, 55, 0
15, 117000, Note_on_c, 13, 55, 76
15, 117089, Note_on_c, 13, 55, 0
15, 117120, Note_on_c, 13, 55, 76
15, 117209, Note_on_c, 13, 55, 0
15, 117240, Note_on_c, 13, 55, 76
15, 117329, Note_on_c, 13, 55, 0
15, 117360, Note_on_c, 13, 55, 76
15, 117449, Note_on_c, 13, 55, 0
15, 117480, Note_on_c, 13, 55, 76
15, 117569, Note_on_c, 13, 55, 0
15, 117600, Note_on_c, 13, 53, 76
15, 117689, Note_on_c, 13, 53, 0
15, 117720, Note_on_c, 13, 53, 76
15, 117809, Note_on_c, 13, 53, 0
15, 117840, Note_on_c, 13, 53, 76
15, 117929, Note_on_c, 13, 53, 0
15, 117960, Note_on_c, 13, 53, 76
15, 118049, Note_on_c, 13, 53, 0
15, 118080, Note_on_c, 13, 53, 76
15, 118169, Note_on_c, 13, 53, 0
15, 118200, Note_on_c, 13, 53, 76
15, 118289, Note_on_c, 13, 53, 0
15, 118320, Note_on_c, 13, 53, 76
15, 118409, Note_on_c, 13, 53, 0
15, 118440, Note_on_c, 13, 53, 76
15, 118529, Note_on_c, 13, 53, 0
15, 118560, Note_on_c, 13, 53, 76
15, 118649, Note_on_c, 13, 53, 0
15, 118680, Note_on_c, 13, 53, 76
15, 118769, Note_on_c, 13, 53, 0
15, 118800, Note_on_c, 13, 53, 76
15, 118889, Note_on_c, 13, 53, 0
15, 118920, Note_on_c, 13, 53, 76
15, 119009, Note_on_c, 13, 53, 0
15, 119040, Note_on_c, 13, 53, 76
15, 119129, Note_on_c, 13, 53, 0
15, 119160, Note_on_c, 13, 53, 76
15, 119249, Note_on_c, 13, 53, 0
15, 119280, Note_on_c, 13, 53, 76
15, 119369, Note_on_c, 13, 53, 0
15, 119400, Note_on_c, 13, 53, 76
15, 119489, Note_on_c, 13, 53, 0
15, 119520, Note_on_c, 13, 55, 76
15, 119609, Note_on_c, 13, 55, 0
15, 119640, Note_on_c, 13, 55, 76
15, 119729, Note_on_c, 13, 55, 0
15, 119760, Note_on_c, 13, 55, 76
15, 119849, Note_on_c, 13, 55, 0
15, 119880, Note_on_c, 13, 55, 76
15, 119969, Note_on_c, 13, 55, 0
15, 120000, Note_on_c, 13, 55, 76
15, 120089, Note_on_c, 13, 55, 0
15, 120120, Note_on_c, 13, 55, 76
15, 120209, Note_on_c, 13, 55, 0
15, 120240, Note_on_c, 13, 55, 76
15, 120329, Note_on_c, 13, 55, 0
15, 120360, Note_on_c, 13, 55, 76
15, 120449, Note_on_c, 13, 55, 0
15, 120480, Note_on_c, 13, 55, 76
15, 120569, Note_on_c, 13, 55, 0
15, 120600, Note_on_c, 13, 55, 76
15, 120689, Note_on_c, 13, 55, 0
15, 120720, Note_on_c, 13, 55, 76
15, 120809, Note_on_c, 13, 55, 0
15, 120840, Note_on_c, 13, 55, 76
15, 120929, Note_on_c, 13, 55, 0
15, 120960, Note_on_c, 13, 55, 76
15, 121049, Note_on_c, 13, 55, 0
15, 121080, Note_on_c, 13, 55, 76
15, 121169, Note_on_c, 13, 55, 0
15, 121200, Note_on_c, 13, 55, 76
15, 121289, Note_on_c, 13, 55, 0
15, 121320, Note_on_c, 13, 55, 76
15, 121409, Note_on_c, 13, 55, 0
15, 121440, Note_on_c, 13, 53, 84
15, 121529, Note_on_c, 13, 53, 0
15, 121560, Note_on_c, 13, 53, 76
15, 121649, Note_on_c, 13, 53, 0
15, 121680, Note_on_c, 13, 53, 76
15, 121769, Note_on_c, 13, 53, 0
15, 121800, Note_on_c, 13, 53, 76
15, 121889, Note_on_c, 13, 53, 0
15, 121920, Note_on_c, 13, 53, 76
15, 122009, Note_on_c, 13, 53, 0
15, 122040, Note_on_c, 13, 53, 76
15, 122129, Note_on_c, 13, 53, 0
15, 122160, Note_on_c, 13, 53, 76
15, 122249, Note_on_c, 13, 53, 0
15, 122280, Note_on_c, 13, 53, 76
15, 122369, Note_on_c, 13, 53, 0
15, 122400, Note_on_c, 13, 55, 84
15, 122489, Note_on_c, 13, 55, 0
15, 122520, Note_on_c, 13, 55, 76
15, 122609, Note_on_c, 13, 55, 0
15, 122640, Note_on_c, 13, 55, 76
15, 122729, Note_on_c, 13, 55, 0
15, 122760, Note_on_c, 13, 55, 76
15, 122849, Note_on_c, 13, 55, 0
15, 122880, Note_on_c, 13, 55, 76
15, 122969, Note_on_c, 13, 55, 0
15, 123000, Note_on_c, 13, 55, 76
15, 123089, Note_on_c, 13, 55, 0
15, 123120, Note_on_c, 13, 55, 76
15, 123209, Note_on_c, 13, 55, 0
15, 123240, Note_on_c, 13, 55, 76
15, 123329, Note_on_c, 13, 55, 0
15, 123360, Note_on_c, 13, 53, 84
15, 123449, Note_on_c, 13, 53, 0
15, 123480, Note_on_c, 13, 53, 76
15, 123569, Note_on_c, 13, 53, 0
15, 123600, Note_on_c, 13, 53, 76
15, 123689, Note_on_c, 13, 53, 0
15, 123720, Note_on_c, 13, 53, 76
15, 123809, Note_on_c, 13, 53, 0
15, 123840, Note_on_c, 13, 53, 76
15, 123929, Note_on_c, 13, 53, 0
15, 123960, Note_on_c, 13, 53, 76
15, 124049, Note_on_c, 13, 53, 0
15, 124080, Note_on_c, 13, 53, 76
15, 124169, Note_on_c, 13, 53, 0
15, 124200, Note_on_c, 13, 53, 76
15, 124289, Note_on_c, 13, 53, 0
15, 124320, Note_on_c, 13, 55, 84
15, 124409, Note_on_c, 13, 55, 0
15, 124440, Note_on_c, 13, 55, 76
15, 124529, Note_on_c, 13, 55, 0
15, 124560, Note_on_c, 13, 55, 76
15, 124649, Note_on_c, 13, 55, 0
15, 124680, Note_on_c, 13, 55, 76
15, 124769, Note_on_c, 13, 55, 0
15, 124800, Note_on_c, 13, 55, 76
15, 124889, Note_on_c, 13, 55, 0
15, 124920, Note_on_c, 13, 55, 76
15, 125009, Note_on_c, 13, 55, 0
15, 125040, Note_on_c, 13, 55, 76
15, 125129, Note_on_c, 13, 55, 0
15, 125160, Note_on_c, 13, 55, 76
15, 125249, Note_on_c, 13, 55, 0
15, 125280, Note_on_c, 13, 53, 76
15, 125519, Note_on_c, 13, 53, 0
15, 125760, Note_on_c, 13, 60, 76
15, 126239, Note_on_c, 13, 60, 0
15, 126240, Note_on_c, 13, 58, 76
15, 126719, Note_on_c, 13, 58, 0
15, 126720, Note_on_c, 13, 54, 76
15, 127169, Note_on_c, 13, 54, 0
15, 127200, Note_on_c, 13, 55, 76
15, 127439, Note_on_c, 13, 55, 0
15, 129120, Note_on_c, 13, 60, 76
15, 129240, Control_c, 13, 11, 80
15, 129599, Note_on_c, 13, 60, 0
15, 129600, Note_on_c, 13, 58, 76
15, 130079, Note_on_c, 13, 58, 0
15, 130080, Note_on_c, 13, 56, 76
15, 130559, Note_on_c, 13, 56, 0
15, 130560, Note_on_c, 13, 52, 76
15, 131009, Note_on_c, 13, 52, 0
15, 131040, Note_on_c, 13, 53, 76
15, 131279, Note_on_c, 13, 53, 0
15, 132720, Control_c, 13, 11, 127
15, 132960, Note_on_c, 13, 58, 76
15, 133199, Note_on_c, 13, 58, 0
15, 133320, Note_on_c, 13, 62, 76
15, 133409, Note_on_c, 13, 62, 0
15, 133440, Note_on_c, 13, 62, 84
15, 133499, Note_on_c, 13, 62, 0
15, 133500, Note_on_c, 13, 63, 76
15, 133559, Note_on_c, 13, 63, 0
15, 133560, Note_on_c, 13, 62, 76
15, 133619, Note_on_c, 13, 62, 0
15, 133620, Note_on_c, 13, 63, 76
15, 133679, Note_on_c, 13, 63, 0
15, 133680, Note_on_c, 13, 62, 76
15, 133739, Note_on_c, 13, 62, 0
15, 133740, Note_on_c, 13, 63, 76
15, 133799, Note_on_c, 13, 63, 0
15, 133800, Note_on_c, 13, 60, 76
15, 133859, Note_on_c, 13, 60, 0
15, 133860, Note_on_c, 13, 62, 76
15, 133904, Note_on_c, 13, 62, 0
15, 133920, Note_on_c, 13, 65, 76
15, 134099, Note_on_c, 13, 65, 0
15, 134160, Note_on_c, 13, 58, 76
15, 134339, Note_on_c, 13, 58, 0
15, 134880, Note_on_c, 13, 57, 76
15, 135119, Note_on_c, 13, 57, 0
15, 135240, Note_on_c, 13, 62, 76
15, 135329, Note_on_c, 13, 62, 0
15, 135360, Note_on_c, 13, 62, 84
15, 135419, Note_on_c, 13, 62, 0
15, 135420, Note_on_c, 13, 64, 76
15, 135479, Note_on_c, 13, 64, 0
15, 135480, Note_on_c, 13, 62, 76
15, 135539, Note_on_c, 13, 62, 0
15, 135540, Note_on_c, 13, 64, 76
15, 135599, Note_on_c, 13, 64, 0
15, 135600, Note_on_c, 13, 62, 76
15, 135659, Note_on_c, 13, 62, 0
15, 135660, Note_on_c, 13, 64, 76
15, 135719, Note_on_c, 13, 64, 0
15, 135720, Note_on_c, 13, 61, 76
15, 135779, Note_on_c, 13, 61, 0
15, 135780, Note_on_c, 13, 62, 76
15, 135824, Note_on_c, 13, 62, 0
15, 135840, Note_on_c, 13, 65, 76
15, 136019, Note_on_c, 13, 65, 0
15, 136080, Note_on_c, 13, 57, 76
15, 136259, Note_on_c, 13, 57, 0
15, 136800, Note_on_c, 13, 56, 52
15, 137039, Note_on_c, 13, 56, 0
15, 137760, Note_on_c, 13, 55, 52
15, 137999, Note_on_c, 13, 55, 0
15, 138720, Note_on_c, 13, 60, 76
15, 138959, Note_on_c, 13, 60, 0
15, 139080, Note_on_c, 13, 64, 76
15, 139169, Note_on_c, 13, 64, 0
15, 139200, Note_on_c, 13, 64, 84
15, 139259, Note_on_c, 13, 64, 0
15, 139260, Note_on_c, 13, 65, 76
15, 139319, Note_on_c, 13, 65, 0
15, 139320, Note_on_c, 13, 64, 76
15, 139379, Note_on_c, 13, 64, 0
15, 139380, Note_on_c, 13, 65, 76
15, 139439, Note_on_c, 13, 65, 0
15, 139440, Note_on_c, 13, 64, 76
15, 139499, Note_on_c, 13, 64, 0
15, 139500, Note_on_c, 13, 65, 76
15, 139559, Note_on_c, 13, 65, 0
15, 139560, Note_on_c, 13, 62, 76
15, 139619, Note_on_c, 13, 62, 0
15, 139620, Note_on_c, 13, 64, 76
15, 139664, Note_on_c, 13, 64, 0
15, 139680, Note_on_c, 13, 67, 76
15, 139859, Note_on_c, 13, 67, 0
15, 139920, Note_on_c, 13, 60, 76
15, 140099, Note_on_c, 13, 60, 0
15, 140640, Note_on_c, 13, 59, 76
15, 140879, Note_on_c, 13, 59, 0
15, 141000, Note_on_c, 13, 64, 76
15, 141089, Note_on_c, 13, 64, 0
15, 141120, Note_on_c, 13, 64, 76
15, 141179, Note_on_c, 13, 64, 0
15, 141180, Note_on_c, 13, 66, 84
15, 141239, Note_on_c, 13, 66, 0
15, 141240, Note_on_c, 13, 64, 76
15, 141299, Note_on_c, 13, 64, 0
15, 141300, Note_on_c, 13, 66, 76
15, 141359, Note_on_c, 13, 66, 0
15, 141360, Note_on_c, 13, 64, 76
15, 141419, Note_on_c, 13, 64, 0
15, 141420, Note_on_c, 13, 66, 76
15, 141479, Note_on_c, 13, 66, 0
15, 141480, Note_on_c, 13, 62, 76
15, 141539, Note_on_c, 13, 62, 0
15, 141540, Note_on_c, 13, 64, 76
15, 141584, Note_on_c, 13, 64, 0
15, 141600, Note_on_c, 13, 67, 76
15, 141779, Note_on_c, 13, 67, 0
15, 141840, Note_on_c, 13, 59, 76
15, 142019, Note_on_c, 13, 59, 0
15, 142320, Control_c, 13, 11, 80
15, 142560, Note_on_c, 13, 58, 76
15, 142799, Note_on_c, 13, 58, 0
15, 143520, Note_on_c, 13, 57, 76
15, 143759, Note_on_c, 13, 57, 0
15, 144480, Note_on_c, 13, 62, 76
15, 144480, Control_c, 13, 11, 80
15, 144569, Note_on_c, 13, 62, 0
15, 144600, Note_on_c, 13, 69, 76
15, 144689, Note_on_c, 13, 69, 0
15, 144720, Control_c, 13, 11, 82
15, 144720, Note_on_c, 13, 69, 76
15, 144809, Note_on_c, 13, 69, 0
15, 144840, Note_on_c, 13, 69, 76
15, 144929, Note_on_c, 13, 69, 0
15, 144960, Control_c, 13, 11, 84
15, 144960, Note_on_c, 13, 69, 76
15, 145049, Note_on_c, 13, 69, 0
15, 145080, Note_on_c, 13, 69, 76
15, 145169, Note_on_c, 13, 69, 0
15, 145200, Control_c, 13, 11, 86
15, 145200, Note_on_c, 13, 69, 76
15, 145289, Note_on_c, 13, 69, 0
15, 145320, Note_on_c, 13, 69, 76
15, 145409, Note_on_c, 13, 69, 0
15, 145440, Note_on_c, 13, 69, 76
15, 145440, Control_c, 13, 11, 88
15, 145529, Note_on_c, 13, 69, 0
15, 145560, Note_on_c, 13, 69, 76
15, 145649, Note_on_c, 13, 69, 0
15, 145680, Note_on_c, 13, 69, 76
15, 145680, Control_c, 13, 11, 90
15, 145769, Note_on_c, 13, 69, 0
15, 145800, Note_on_c, 13, 69, 76
15, 145889, Note_on_c, 13, 69, 0
15, 145920, Note_on_c, 13, 69, 76
15, 145920, Control_c, 13, 11, 92
15, 146009, Note_on_c, 13, 69, 0
15, 146040, Note_on_c, 13, 69, 76
15, 146129, Note_on_c, 13, 69, 0
15, 146160, Control_c, 13, 11, 94
15, 146160, Note_on_c, 13, 69, 76
15, 146249, Note_on_c, 13, 69, 0
15, 146280, Note_on_c, 13, 69, 76
15, 146369, Note_on_c, 13, 69, 0
15, 146400, Control_c, 13, 11, 96
15, 146400, Note_on_c, 13, 67, 76
15, 146489, Note_on_c, 13, 67, 0
15, 146520, Note_on_c, 13, 71, 76
15, 146609, Note_on_c, 13, 71, 0
15, 146640, Control_c, 13, 11, 98
15, 146640, Note_on_c, 13, 71, 76
15, 146729, Note_on_c, 13, 71, 0
15, 146760, Note_on_c, 13, 71, 76
15, 146849, Note_on_c, 13, 71, 0
15, 146880, Note_on_c, 13, 71, 76
15, 146880, Control_c, 13, 11, 100
15, 146969, Note_on_c, 13, 71, 0
15, 147000, Note_on_c, 13, 71, 76
15, 147089, Note_on_c, 13, 71, 0
15, 147120, Control_c, 13, 11, 102
15, 147120, Note_on_c, 13, 71, 76
15, 147209, Note_on_c, 13, 71, 0
15, 147240, Note_on_c, 13, 71, 76
15, 147329, Note_on_c, 13, 71, 0
15, 147360, Control_c, 13, 11, 104
15, 147360, Note_on_c, 13, 71, 76
15, 147449, Note_on_c, 13, 71, 0
15, 147480, Note_on_c, 13, 71, 76
15, 147569, Note_on_c, 13, 71, 0
15, 147600, Control_c, 13, 11, 105
15, 147600, Note_on_c, 13, 71, 76
15, 147689, Note_on_c, 13, 71, 0
15, 147720, Note_on_c, 13, 71, 76
15, 147809, Note_on_c, 13, 71, 0
15, 147840, Control_c, 13, 11, 107
15, 147840, Note_on_c, 13, 71, 76
15, 147929, Note_on_c, 13, 71, 0
15, 147960, Note_on_c, 13, 71, 76
15, 148049, Note_on_c, 13, 71, 0
15, 148080, Control_c, 13, 11, 109
15, 148080, Note_on_c, 13, 71, 76
15, 148169, Note_on_c, 13, 71, 0
15, 148200, Note_on_c, 13, 71, 76
15, 148289, Note_on_c, 13, 71, 0
15, 148320, Note_on_c, 13, 69, 76
15, 148320, Control_c, 13, 11, 111
15, 148559, Note_on_c, 13, 69, 0
15, 148560, Control_c, 13, 11, 113
15, 148800, Control_c, 13, 11, 115
15, 149040, Control_c, 13, 11, 117
15, 149280, Note_on_c, 13, 62, 76
15, 149280, Control_c, 13, 11, 119
15, 149519, Note_on_c, 13, 62, 0
15, 149520, Control_c, 13, 11, 121
15, 149760, Control_c, 13, 11, 123
15, 150000, Control_c, 13, 11, 127
15, 150240, Note_on_c, 13, 73, 76
15, 150959, Note_on_c, 13, 73, 0
15, 150960, Note_on_c, 13, 72, 76
15, 151169, Note_on_c, 13, 72, 0
15, 151200, Note_on_c, 13, 73, 76
15, 151439, Note_on_c, 13, 73, 0
15, 151440, Note_on_c, 13, 74, 76
15, 151679, Note_on_c, 13, 74, 0
15, 151680, Note_on_c, 13, 73, 76
15, 151919, Note_on_c, 13, 73, 0
15, 151920, Note_on_c, 13, 71, 76
15, 152159, Note_on_c, 13, 71, 0
15, 152160, Note_on_c, 13, 69, 76
15, 152399, Note_on_c, 13, 69, 0
15, 152400, Note_on_c, 13, 68, 76
15, 152639, Note_on_c, 13, 68, 0
15, 152640, Note_on_c, 13, 66, 76
15, 152879, Note_on_c, 13, 66, 0
15, 152880, Note_on_c, 13, 65, 76
15, 153119, Note_on_c, 13, 65, 0
15, 153120, Note_on_c, 13, 66, 76
15, 153359, Note_on_c, 13, 66, 0
15, 153360, Note_on_c, 13, 62, 76
15, 153599, Note_on_c, 13, 62, 0
15, 153600, Note_on_c, 13, 61, 76
15, 153839, Note_on_c, 13, 61, 0
15, 153840, Note_on_c, 13, 60, 76
15, 154049, Note_on_c, 13, 60, 0
15, 154080, Note_on_c, 13, 61, 84
15, 154169, Note_on_c, 13, 61, 0
15, 154200, Note_on_c, 13, 61, 84
15, 154289, Note_on_c, 13, 61, 0
15, 154320, Note_on_c, 13, 61, 84
15, 154409, Note_on_c, 13, 61, 0
15, 154440, Note_on_c, 13, 61, 84
15, 154529, Note_on_c, 13, 61, 0
15, 154560, Note_on_c, 13, 61, 84
15, 154649, Note_on_c, 13, 61, 0
15, 154680, Note_on_c, 13, 61, 84
15, 154769, Note_on_c, 13, 61, 0
15, 154800, Note_on_c, 13, 60, 84
15, 154889, Note_on_c, 13, 60, 0
15, 154920, Note_on_c, 13, 60, 84
15, 155009, Note_on_c, 13, 60, 0
15, 155040, Note_on_c, 13, 61, 84
15, 155129, Note_on_c, 13, 61, 0
15, 155160, Note_on_c, 13, 61, 84
15, 155249, Note_on_c, 13, 61, 0
15, 155280, Note_on_c, 13, 62, 84
15, 155369, Note_on_c, 13, 62, 0
15, 155400, Note_on_c, 13, 62, 84
15, 155489, Note_on_c, 13, 62, 0
15, 155520, Note_on_c, 13, 61, 84
15, 155609, Note_on_c, 13, 61, 0
15, 155640, Note_on_c, 13, 61, 84
15, 155729, Note_on_c, 13, 61, 0
15, 155760, Note_on_c, 13, 59, 84
15, 155849, Note_on_c, 13, 59, 0
15, 155880, Note_on_c, 13, 59, 84
15, 155969, Note_on_c, 13, 59, 0
15, 156000, Note_on_c, 13, 57, 84
15, 156089, Note_on_c, 13, 57, 0
15, 156120, Note_on_c, 13, 57, 84
15, 156209, Note_on_c, 13, 57, 0
15, 156240, Note_on_c, 13, 56, 84
15, 156329, Note_on_c, 13, 56, 0
15, 156360, Note_on_c, 13, 56, 84
15, 156449, Note_on_c, 13, 56, 0
15, 156480, Note_on_c, 13, 54, 84
15, 156569, Note_on_c, 13, 54, 0
15, 156600, Note_on_c, 13, 54, 84
15, 156689, Note_on_c, 13, 54, 0
15, 156720, Note_on_c, 13, 53, 84
15, 156809, Note_on_c, 13, 53, 0
15, 156840, Note_on_c, 13, 53, 84
15, 156929, Note_on_c, 13, 53, 0
15, 156960, Note_on_c, 13, 54, 84
15, 157049, Note_on_c, 13, 54, 0
15, 157080, Note_on_c, 13, 54, 84
15, 157169, Note_on_c, 13, 54, 0
15, 157200, Note_on_c, 13, 62, 84
15, 157289, Note_on_c, 13, 62, 0
15, 157320, Note_on_c, 13, 62, 84
15, 157409, Note_on_c, 13, 62, 0
15, 157440, Note_on_c, 13, 61, 84
15, 157529, Note_on_c, 13, 61, 0
15, 157560, Note_on_c, 13, 61, 84
15, 157649, Note_on_c, 13, 61, 0
15, 157680, Note_on_c, 13, 59, 84
15, 157769, Note_on_c, 13, 59, 0
15, 157800, Note_on_c, 13, 59, 84
15, 157889, Note_on_c, 13, 59, 0
15, 157920, Note_on_c, 13, 57, 84
15, 158159, Note_on_c, 13, 57, 0
15, 158760, Note_on_c, 13, 57, 84
15, 158879, Note_on_c, 13, 57, 0
15, 158880, Note_on_c, 13, 59, 84
15, 159059, Note_on_c, 13, 59, 0
15, 159720, Note_on_c, 13, 59, 84
15, 159839, Note_on_c, 13, 59, 0
15, 159840, Note_on_c, 13, 61, 84
15, 160019, Note_on_c, 13, 61, 0
15, 160680, Note_on_c, 13, 61, 84
15, 160799, Note_on_c, 13, 61, 0
15, 160800, Note_on_c, 13, 62, 84
15, 160979, Note_on_c, 13, 62, 0
15, 161160, Note_on_c, 13, 62, 84
15, 161279, Note_on_c, 13, 62, 0
15, 161280, Note_on_c, 13, 60, 84
15, 161459, Note_on_c, 13, 60, 0
15, 161640, Note_on_c, 13, 60, 84
15, 161759, Note_on_c, 13, 60, 0
15, 161760, Note_on_c, 13, 61, 84
15, 161849, Note_on_c, 13, 61, 0
15, 161880, Note_on_c, 13, 66, 84
15, 161969, Note_on_c, 13, 66, 0
15, 162000, Note_on_c, 13, 66, 84
15, 162089, Note_on_c, 13, 66, 0
15, 162120, Note_on_c, 13, 66, 84
15, 162209, Note_on_c, 13, 66, 0
15, 162240, Note_on_c, 13, 66, 84
15, 162329, Note_on_c, 13, 66, 0
15, 162360, Note_on_c, 13, 66, 84
15, 162449, Note_on_c, 13, 66, 0
15, 162480, Note_on_c, 13, 66, 84
15, 162569, Note_on_c, 13, 66, 0
15, 162600, Note_on_c, 13, 66, 84
15, 162689, Note_on_c, 13, 66, 0
15, 162720, Note_on_c, 13, 66, 84
15, 162809, Note_on_c, 13, 66, 0
15, 162840, Note_on_c, 13, 66, 84
15, 162929, Note_on_c, 13, 66, 0
15, 162960, Note_on_c, 13, 66, 84
15, 163049, Note_on_c, 13, 66, 0
15, 163080, Note_on_c, 13, 66, 84
15, 163169, Note_on_c, 13, 66, 0
15, 163200, Note_on_c, 13, 65, 84
15, 163289, Note_on_c, 13, 65, 0
15, 163320, Note_on_c, 13, 65, 84
15, 163409, Note_on_c, 13, 65, 0
15, 163440, Note_on_c, 13, 65, 84
15, 163529, Note_on_c, 13, 65, 0
15, 163560, Note_on_c, 13, 65, 84
15, 163649, Note_on_c, 13, 65, 0
15, 163680, Note_on_c, 13, 66, 84
15, 163919, Note_on_c, 13, 66, 0
15, 164520, Note_on_c, 13, 57, 84
15, 164639, Note_on_c, 13, 57, 0
15, 164640, Note_on_c, 13, 59, 84
15, 164819, Note_on_c, 13, 59, 0
15, 165480, Note_on_c, 13, 59, 84
15, 165599, Note_on_c, 13, 59, 0
15, 165600, Note_on_c, 13, 61, 84
15, 165779, Note_on_c, 13, 61, 0
15, 166440, Note_on_c, 13, 61, 84
15, 166559, Note_on_c, 13, 61, 0
15, 166560, Note_on_c, 13, 62, 84
15, 166739, Note_on_c, 13, 62, 0
15, 166920, Note_on_c, 13, 62, 84
15, 167039, Note_on_c, 13, 62, 0
15, 167040, Note_on_c, 13, 60, 84
15, 167219, Note_on_c, 13, 60, 0
15, 167400, Note_on_c, 13, 60, 84
15, 167519, Note_on_c, 13, 60, 0
15, 167520, Note_on_c, 13, 61, 92
15, 167699, Note_on_c, 13, 61, 0
15, 168360, Note_on_c, 13, 61, 84
15, 168479, Note_on_c, 13, 61, 0
15, 168480, Note_on_c, 13, 62, 84
15, 168659, Note_on_c, 13, 62, 0
15, 168840, Note_on_c, 13, 62, 84
15, 168959, Note_on_c, 13, 62, 0
15, 168960, Note_on_c, 13, 60, 84
15, 169139, Note_on_c, 13, 60, 0
15, 169320, Note_on_c, 13, 60, 84
15, 169439, Note_on_c, 13, 60, 0
15, 169440, Note_on_c, 13, 61, 84
15, 169619, Note_on_c, 13, 61, 0
15, 169800, Note_on_c, 13, 61, 84
15, 169919, Note_on_c, 13, 61, 0
15, 169920, Note_on_c, 13, 62, 84
15, 170099, Note_on_c, 13, 62, 0
15, 170280, Note_on_c, 13, 60, 84
15, 170399, Note_on_c, 13, 60, 0
15, 170400, Note_on_c, 13, 61, 92
15, 170579, Note_on_c, 13, 61, 0
15, 170760, Note_on_c, 13, 61, 84
15, 170879, Note_on_c, 13, 61, 0
15, 170880, Note_on_c, 13, 62, 84
15, 171059, Note_on_c, 13, 62, 0
15, 171240, Note_on_c, 13, 60, 84
15, 171329, Note_on_c, 13, 60, 0
15, 171360, Note_on_c, 13, 61, 92
15, 171449, Note_on_c, 13, 61, 0
15, 171480, Note_on_c, 13, 61, 84
15, 171569, Note_on_c, 13, 61, 0
15, 171600, Note_on_c, 13, 61, 84
15, 171689, Note_on_c, 13, 61, 0
15, 171720, Note_on_c, 13, 61, 84
15, 171809, Note_on_c, 13, 61, 0
15, 171840, Note_on_c, 13, 62, 84
15, 171929, Note_on_c, 13, 62, 0
15, 171960, Note_on_c, 13, 62, 84
15, 172049, Note_on_c, 13, 62, 0
15, 172080, Note_on_c, 13, 60, 84
15, 172169, Note_on_c, 13, 60, 0
15, 172200, Note_on_c, 13, 60, 84
15, 172289, Note_on_c, 13, 60, 0
15, 172320, Note_on_c, 13, 61, 92
15, 172409, Note_on_c, 13, 61, 0
15, 172440, Note_on_c, 13, 61, 84
15, 172529, Note_on_c, 13, 61, 0
15, 172560, Note_on_c, 13, 61, 84
15, 172649, Note_on_c, 13, 61, 0
15, 172680, Note_on_c, 13, 61, 84
15, 172769, Note_on_c, 13, 61, 0
15, 172800, Note_on_c, 13, 62, 84
15, 172889, Note_on_c, 13, 62, 0
15, 172920, Note_on_c, 13, 62, 84
15, 173009, Note_on_c, 13, 62, 0
15, 173040, Note_on_c, 13, 60, 84
15, 173129, Note_on_c, 13, 60, 0
15, 173160, Note_on_c, 13, 60, 84
15, 173249, Note_on_c, 13, 60, 0
15, 173280, Note_on_c, 13, 61, 92
15, 173519, Note_on_c, 13, 61, 0
15, 175200, Note_on_c, 13, 64, 44
15, 175439, Note_on_c, 13, 64, 0
15, 177120, Note_on_c, 13, 61, 76
15, 177120, Note_on_c, 13, 64, 76
15, 177359, Note_on_c, 13, 61, 0
15, 177359, Note_on_c, 13, 64, 0
15, 177480, Note_on_c, 13, 61, 76
15, 177569, Note_on_c, 13, 61, 0
15, 177600, Note_on_c, 13, 61, 84
15, 177659, Note_on_c, 13, 61, 0
15, 177660, Note_on_c, 13, 62, 76
15, 177719, Note_on_c, 13, 62, 0
15, 177720, Note_on_c, 13, 61, 76
15, 177779, Note_on_c, 13, 61, 0
15, 177780, Note_on_c, 13, 62, 76
15, 177839, Note_on_c, 13, 62, 0
15, 177840, Note_on_c, 13, 61, 76
15, 177899, Note_on_c, 13, 61, 0
15, 177900, Note_on_c, 13, 62, 76
15, 177959, Note_on_c, 13, 62, 0
15, 177960, Note_on_c, 13, 59, 76
15, 178019, Note_on_c, 13, 59, 0
15, 178020, Note_on_c, 13, 61, 76
15, 178064, Note_on_c, 13, 61, 0
15, 178080, Note_on_c, 13, 64, 76
15, 178259, Note_on_c, 13, 64, 0
15, 178320, Note_on_c, 13, 57, 76
15, 178499, Note_on_c, 13, 57, 0
15, 178800, Note_on_c, 13, 67, 52
15, 179039, Note_on_c, 13, 67, 0
15, 179040, Note_on_c, 13, 66, 52
15, 179519, Note_on_c, 13, 66, 0
15, 179520, Note_on_c, 13, 61, 52
15, 179969, Note_on_c, 13, 61, 0
15, 180000, Note_on_c, 13, 62, 52
15, 180479, Note_on_c, 13, 62, 0
15, 180480, Note_on_c, 13, 67, 52
15, 180959, Note_on_c, 13, 67, 0
15, 180960, Note_on_c, 13, 66, 52
15, 181439, Note_on_c, 13, 66, 0
15, 181440, Note_on_c, 13, 64, 52
15, 181889, Note_on_c, 13, 64, 0
15, 181920, Note_on_c, 13, 62, 76
15, 182099, Note_on_c, 13, 62, 0
15, 182160, Note_on_c, 13, 57, 76
15, 182339, Note_on_c, 13, 57, 0
15, 183240, Note_on_c, 13, 61, 84
15, 183329, Note_on_c, 13, 61, 0
15, 183360, Note_on_c, 13, 61, 92
15, 183419, Note_on_c, 13, 61, 0
15, 183420, Note_on_c, 13, 62, 84
15, 183479, Note_on_c, 13, 62, 0
15, 183480, Note_on_c, 13, 61, 84
15, 183539, Note_on_c, 13, 61, 0
15, 183540, Note_on_c, 13, 62, 84
15, 183599, Note_on_c, 13, 62, 0
15, 183600, Note_on_c, 13, 61, 84
15, 183659, Note_on_c, 13, 61, 0
15, 183660, Note_on_c, 13, 62, 84
15, 183719, Note_on_c, 13, 62, 0
15, 183720, Note_on_c, 13, 59, 84
15, 183779, Note_on_c, 13, 59, 0
15, 183780, Note_on_c, 13, 61, 84
15, 183824, Note_on_c, 13, 61, 0
15, 183840, Note_on_c, 13, 64, 84
15, 184019, Note_on_c, 13, 64, 0
15, 184080, Note_on_c, 13, 57, 84
15, 184259, Note_on_c, 13, 57, 0
15, 184560, Note_on_c, 13, 67, 52
15, 184799, Note_on_c, 13, 67, 0
15, 184800, Note_on_c, 13, 66, 52
15, 185279, Note_on_c, 13, 66, 0
15, 185280, Note_on_c, 13, 61, 52
15, 185729, Note_on_c, 13, 61, 0
15, 185760, Note_on_c, 13, 62, 52
15, 186239, Note_on_c, 13, 62, 0
15, 186240, Note_on_c, 13, 67, 52
15, 186719, Note_on_c, 13, 67, 0
15, 186720, Note_on_c, 13, 66, 52
15, 187199, Note_on_c, 13, 66, 0
15, 187200, Note_on_c, 13, 64, 52
15, 187649, Note_on_c, 13, 64, 0
15, 187680, Note_on_c, 13, 62, 76
15, 187919, Note_on_c, 13, 62, 0
15, 188520, Note_on_c, 13, 54, 76
15, 188609, Note_on_c, 13, 54, 0
15, 188640, Note_on_c, 13, 55, 76
15, 188819, Note_on_c, 13, 55, 0
15, 188880, Note_on_c, 13, 57, 76
15, 189059, Note_on_c, 13, 57, 0
15, 189120, Note_on_c, 13, 59, 76
15, 189299, Note_on_c, 13, 59, 0
15, 189360, Note_on_c, 13, 56, 76
15, 189539, Note_on_c, 13, 56, 0
15, 189600, Note_on_c, 13, 57, 76
15, 189839, Note_on_c, 13, 57, 0
15, 190440, Note_on_c, 13, 58, 76
15, 190529, Note_on_c, 13, 58, 0
15, 190560, Note_on_c, 13, 59, 76
15, 190739, Note_on_c, 13, 59, 0
15, 190800, Note_on_c, 13, 54, 76
15, 190979, Note_on_c, 13, 54, 0
15, 191040, Note_on_c, 13, 55, 76
15, 191219, Note_on_c, 13, 55, 0
15, 191280, Note_on_c, 13, 52, 76
15, 191459, Note_on_c, 13, 52, 0
15, 191520, Note_on_c, 13, 50, 84
15, 191759, Note_on_c, 13, 50, 0
15, 192240, Note_on_c, 13, 54, 76
15, 192419, Note_on_c, 13, 54, 0
15, 192480, Note_on_c, 13, 55, 76
15, 192659, Note_on_c, 13, 55, 0
15, 192720, Note_on_c, 13, 57, 76
15, 192899, Note_on_c, 13, 57, 0
15, 192960, Note_on_c, 13, 59, 76
15, 193139, Note_on_c, 13, 59, 0
15, 193200, Note_on_c, 13, 56, 76
15, 193379, Note_on_c, 13, 56, 0
15, 193440, Note_on_c, 13, 57, 84
15, 193679, Note_on_c, 13, 57, 0
15, 194160, Note_on_c, 13, 60, 76
15, 194249, Note_on_c, 13, 60, 0
15, 194280, Note_on_c, 13, 60, 76
15, 194369, Note_on_c, 13, 60, 0
15, 194400, Note_on_c, 13, 59, 76
15, 194489, Note_on_c, 13, 59, 0
15, 194520, Note_on_c, 13, 59, 76
15, 194609, Note_on_c, 13, 59, 0
15, 194640, Note_on_c, 13, 60, 76
15, 194729, Note_on_c, 13, 60, 0
15, 194760, Note_on_c, 13, 60, 76
15, 194849, Note_on_c, 13, 60, 0
15, 194880, Note_on_c, 13, 59, 76
15, 194969, Note_on_c, 13, 59, 0
15, 195000, Note_on_c, 13, 59, 76
15, 195089, Note_on_c, 13, 59, 0
15, 195120, Note_on_c, 13, 58, 76
15, 195209, Note_on_c, 13, 58, 0
15, 195240, Note_on_c, 13, 58, 76
15, 195329, Note_on_c, 13, 58, 0
15, 195360, Note_on_c, 13, 54, 84
15, 195449, Note_on_c, 13, 54, 0
15, 195480, Note_on_c, 13, 61, 84
15, 195569, Note_on_c, 13, 61, 0
15, 195600, Note_on_c, 13, 61, 84
15, 195689, Note_on_c, 13, 61, 0
15, 195720, Note_on_c, 13, 61, 84
15, 195809, Note_on_c, 13, 61, 0
15, 195840, Note_on_c, 13, 64, 84
15, 195929, Note_on_c, 13, 64, 0
15, 195960, Note_on_c, 13, 64, 84
15, 196049, Note_on_c, 13, 64, 0
15, 196080, Note_on_c, 13, 64, 84
15, 196169, Note_on_c, 13, 64, 0
15, 196200, Note_on_c, 13, 64, 84
15, 196289, Note_on_c, 13, 64, 0
15, 196320, Note_on_c, 13, 62, 84
15, 196409, Note_on_c, 13, 62, 0
15, 196440, Note_on_c, 13, 62, 84
15, 196529, Note_on_c, 13, 62, 0
15, 196560, Note_on_c, 13, 62, 84
15, 196649, Note_on_c, 13, 62, 0
15, 196680, Note_on_c, 13, 62, 84
15, 196769, Note_on_c, 13, 62, 0
15, 196800, Note_on_c, 13, 62, 84
15, 196889, Note_on_c, 13, 62, 0
15, 196920, Note_on_c, 13, 62, 84
15, 197009, Note_on_c, 13, 62, 0
15, 197040, Note_on_c, 13, 62, 84
15, 197129, Note_on_c, 13, 62, 0
15, 197160, Note_on_c, 13, 62, 84
15, 197249, Note_on_c, 13, 62, 0
15, 197280, Note_on_c, 13, 61, 84
15, 197369, Note_on_c, 13, 61, 0
15, 197400, Note_on_c, 13, 61, 84
15, 197489, Note_on_c, 13, 61, 0
15, 197520, Note_on_c, 13, 61, 84
15, 197609, Note_on_c, 13, 61, 0
15, 197640, Note_on_c, 13, 61, 84
15, 197729, Note_on_c, 13, 61, 0
15, 197760, Note_on_c, 13, 64, 84
15, 197849, Note_on_c, 13, 64, 0
15, 197880, Note_on_c, 13, 64, 84
15, 197969, Note_on_c, 13, 64, 0
15, 198000, Note_on_c, 13, 64, 84
15, 198089, Note_on_c, 13, 64, 0
15, 198120, Note_on_c, 13, 64, 84
15, 198209, Note_on_c, 13, 64, 0
15, 198240, Note_on_c, 13, 62, 84
15, 198329, Note_on_c, 13, 62, 0
15, 198360, Note_on_c, 13, 62, 84
15, 198449, Note_on_c, 13, 62, 0
15, 198480, Note_on_c, 13, 62, 84
15, 198569, Note_on_c, 13, 62, 0
15, 198600, Note_on_c, 13, 62, 84
15, 198689, Note_on_c, 13, 62, 0
15, 198720, Note_on_c, 13, 62, 84
15, 198809, Note_on_c, 13, 62, 0
15, 198840, Note_on_c, 13, 62, 84
15, 198929, Note_on_c, 13, 62, 0
15, 198960, Note_on_c, 13, 62, 84
15, 199049, Note_on_c, 13, 62, 0
15, 199080, Note_on_c, 13, 62, 84
15, 199169, Note_on_c, 13, 62, 0
15, 199200, Note_on_c, 13, 57, 84
15, 199379, Note_on_c, 13, 57, 0
15, 199440, Note_on_c, 13, 57, 84
15, 199619, Note_on_c, 13, 57, 0
15, 199680, Note_on_c, 13, 57, 84
15, 199859, Note_on_c, 13, 57, 0
15, 199920, Note_on_c, 13, 57, 84
15, 200099, Note_on_c, 13, 57, 0
15, 200160, Note_on_c, 13, 57, 84
15, 200399, Note_on_c, 13, 57, 0
15, 202080, Note_on_c, 13, 57, 52
15, 202559, Note_on_c, 13, 57, 0
15, 202560, Note_on_c, 13, 59, 52
15, 202799, Note_on_c, 13, 59, 0
15, 202800, Note_on_c, 13, 61, 52
15, 203009, Note_on_c, 13, 61, 0
15, 203040, Note_on_c, 13, 62, 52
15, 203969, Note_on_c, 13, 62, 0
15, 204000, Note_on_c, 13, 57, 52
15, 204479, Note_on_c, 13, 57, 0
15, 204480, Note_on_c, 13, 59, 52
15, 204719, Note_on_c, 13, 59, 0
15, 204720, Note_on_c, 13, 61, 52
15, 204929, Note_on_c, 13, 61, 0
15, 204960, Note_on_c, 13, 62, 52
15, 205409, Note_on_c, 13, 62, 0
15, 205440, Note_on_c, 13, 62, 52
15, 206369, Note_on_c, 13, 62, 0
15, 206400, Note_on_c, 13, 62, 52
15, 207119, Note_on_c, 13, 62, 0
15, 207120, Note_on_c, 13, 61, 52
15, 207359, Note_on_c, 13, 61, 0
15, 207360, Note_on_c, 13, 59, 52
15, 207599, Note_on_c, 13, 59, 0
15, 207600, Note_on_c, 13, 57, 52
15, 207809, Note_on_c, 13, 57, 0
15, 207825, Control_c, 13, 11, 80
15, 207840, Note_on_c, 13, 52, 76
15, 210929, Note_on_c, 13, 52, 0
15, 210960, Note_on_c, 13, 57, 76
15, 210960, Control_c, 13, 11, 80
15, 211100, Control_c, 13, 11, 83
15, 211199, Note_on_c, 13, 57, 0
15, 211200, Note_on_c, 13, 60, 76
15, 211240, Control_c, 13, 11, 85
15, 211380, Control_c, 13, 11, 88
15, 211439, Note_on_c, 13, 60, 0
15, 211440, Note_on_c, 13, 59, 76
15, 211520, Control_c, 13, 11, 91
15, 211660, Control_c, 13, 11, 93
15, 211679, Note_on_c, 13, 59, 0
15, 211680, Note_on_c, 13, 57, 76
15, 211800, Control_c, 13, 11, 96
15, 211919, Note_on_c, 13, 57, 0
15, 211920, Note_on_c, 13, 55, 76
15, 211940, Control_c, 13, 11, 99
15, 212080, Control_c, 13, 11, 101
15, 212159, Note_on_c, 13, 55, 0
15, 212160, Note_on_c, 13, 54, 76
15, 212220, Control_c, 13, 11, 104
15, 212360, Control_c, 13, 11, 107
15, 212399, Note_on_c, 13, 54, 0
15, 212400, Note_on_c, 13, 50, 76
15, 212500, Control_c, 13, 11, 109
15, 212609, Note_on_c, 13, 50, 0
15, 212625, Control_c, 13, 11, 80
15, 212640, Note_on_c, 13, 55, 76
15, 213329, Note_on_c, 13, 55, 0
15, 213360, Note_on_c, 13, 55, 76
15, 213569, Note_on_c, 13, 55, 0
15, 213600, Note_on_c, 13, 55, 76
15, 213839, Note_on_c, 13, 55, 0
15, 213840, Note_on_c, 13, 54, 76
15, 214079, Note_on_c, 13, 54, 0
15, 214080, Note_on_c, 13, 52, 76
15, 214319, Note_on_c, 13, 52, 0
15, 214320, Note_on_c, 13, 50, 76
15, 214529, Note_on_c, 13, 50, 0
15, 214560, Note_on_c, 13, 55, 76
15, 215249, Note_on_c, 13, 55, 0
15, 215280, Note_on_c, 13, 55, 76
15, 215489, Note_on_c, 13, 55, 0
15, 215520, Note_on_c, 13, 55, 76
15, 215759, Note_on_c, 13, 55, 0
15, 215760, Note_on_c, 13, 54, 76
15, 215999, Note_on_c, 13, 54, 0
15, 216000, Note_on_c, 13, 52, 76
15, 216239, Note_on_c, 13, 52, 0
15, 216240, Note_on_c, 13, 50, 76
15, 216449, Note_on_c, 13, 50, 0
15, 216480, Control_c, 13, 11, 80
15, 216480, Note_on_c, 13, 55, 76
15, 216640, Control_c, 13, 11, 84
15, 216800, Control_c, 13, 11, 88
15, 216960, Control_c, 13, 11, 92
15, 217120, Control_c, 13, 11, 96
15, 217199, Note_on_c, 13, 55, 0
15, 217200, Note_on_c, 13, 54, 76
15, 217280, Control_c, 13, 11, 100
15, 217439, Note_on_c, 13, 54, 0
15, 217440, Note_on_c, 13, 59, 76
15, 217440, Control_c, 13, 11, 104
15, 217600, Control_c, 13, 11, 107
15, 217679, Note_on_c, 13, 59, 0
15, 217680, Note_on_c, 13, 57, 76
15, 217760, Control_c, 13, 11, 111
15, 217919, Note_on_c, 13, 57, 0
15, 217920, Control_c, 13, 11, 115
15, 217920, Note_on_c, 13, 55, 76
15, 218080, Control_c, 13, 11, 119
15, 218159, Note_on_c, 13, 55, 0
15, 218160, Note_on_c, 13, 56, 76
15, 218240, Control_c, 13, 11, 123
15, 218369, Note_on_c, 13, 56, 0
15, 218400, Control_c, 13, 11, 127
15, 218400, Note_on_c, 13, 57, 76
15, 218489, Note_on_c, 13, 57, 0
15, 218520, Note_on_c, 13, 57, 76
15, 218609, Note_on_c, 13, 57, 0
15, 218640, Note_on_c, 13, 57, 76
15, 218729, Note_on_c, 13, 57, 0
15, 218760, Note_on_c, 13, 57, 76
15, 218849, Note_on_c, 13, 57, 0
15, 218880, Note_on_c, 13, 57, 76
15, 218969, Note_on_c, 13, 57, 0
15, 219000, Note_on_c, 13, 57, 76
15, 219089, Note_on_c, 13, 57, 0
15, 219120, Note_on_c, 13, 57, 76
15, 219209, Note_on_c, 13, 57, 0
15, 219240, Note_on_c, 13, 57, 76
15, 219329, Note_on_c, 13, 57, 0
15, 219360, Note_on_c, 13, 57, 84
15, 219449, Note_on_c, 13, 57, 0
15, 219480, Note_on_c, 13, 57, 76
15, 219569, Note_on_c, 13, 57, 0
15, 219600, Note_on_c, 13, 57, 76
15, 219689, Note_on_c, 13, 57, 0
15, 219720, Note_on_c, 13, 57, 76
15, 219809, Note_on_c, 13, 57, 0
15, 219840, Note_on_c, 13, 57, 76
15, 219929, Note_on_c, 13, 57, 0
15, 219960, Note_on_c, 13, 57, 76
15, 220049, Note_on_c, 13, 57, 0
15, 220080, Note_on_c, 13, 57, 76
15, 220169, Note_on_c, 13, 57, 0
15, 220200, Note_on_c, 13, 57, 76
15, 220289, Note_on_c, 13, 57, 0
15, 220320, Note_on_c, 13, 56, 76
15, 220409, Note_on_c, 13, 56, 0
15, 220440, Note_on_c, 13, 56, 76
15, 220529, Note_on_c, 13, 56, 0
15, 220560, Note_on_c, 13, 56, 76
15, 220649, Note_on_c, 13, 56, 0
15, 220680, Note_on_c, 13, 56, 76
15, 220769, Note_on_c, 13, 56, 0
15, 220800, Note_on_c, 13, 56, 76
15, 220889, Note_on_c, 13, 56, 0
15, 220920, Note_on_c, 13, 56, 76
15, 221009, Note_on_c, 13, 56, 0
15, 221040, Note_on_c, 13, 56, 76
15, 221129, Note_on_c, 13, 56, 0
15, 221160, Note_on_c, 13, 56, 76
15, 221249, Note_on_c, 13, 56, 0
15, 221280, Note_on_c, 13, 56, 84
15, 221369, Note_on_c, 13, 56, 0
15, 221400, Note_on_c, 13, 56, 76
15, 221489, Note_on_c, 13, 56, 0
15, 221520, Note_on_c, 13, 56, 76
15, 221609, Note_on_c, 13, 56, 0
15, 221640, Note_on_c, 13, 56, 76
15, 221729, Note_on_c, 13, 56, 0
15, 221760, Note_on_c, 13, 56, 76
15, 221849, Note_on_c, 13, 56, 0
15, 221880, Note_on_c, 13, 56, 76
15, 221969, Note_on_c, 13, 56, 0
15, 222000, Note_on_c, 13, 56, 76
15, 222089, Note_on_c, 13, 56, 0
15, 222120, Note_on_c, 13, 56, 76
15, 222209, Note_on_c, 13, 56, 0
15, 222240, Note_on_c, 13, 55, 76
15, 222329, Note_on_c, 13, 55, 0
15, 222360, Note_on_c, 13, 55, 76
15, 222449, Note_on_c, 13, 55, 0
15, 222480, Note_on_c, 13, 55, 76
15, 222569, Note_on_c, 13, 55, 0
15, 222600, Note_on_c, 13, 55, 76
15, 222689, Note_on_c, 13, 55, 0
15, 222720, Note_on_c, 13, 55, 84
15, 222809, Note_on_c, 13, 55, 0
15, 222840, Note_on_c, 13, 55, 76
15, 222929, Note_on_c, 13, 55, 0
15, 222960, Note_on_c, 13, 55, 76
15, 223049, Note_on_c, 13, 55, 0
15, 223080, Note_on_c, 13, 55, 76
15, 223169, Note_on_c, 13, 55, 0
15, 223200, Note_on_c, 13, 54, 76
15, 223289, Note_on_c, 13, 54, 0
15, 223320, Note_on_c, 13, 54, 76
15, 223409, Note_on_c, 13, 54, 0
15, 223440, Note_on_c, 13, 54, 76
15, 223529, Note_on_c, 13, 54, 0
15, 223560, Note_on_c, 13, 54, 76
15, 223649, Note_on_c, 13, 54, 0
15, 223680, Note_on_c, 13, 54, 84
15, 223769, Note_on_c, 13, 54, 0
15, 223800, Note_on_c, 13, 54, 76
15, 223889, Note_on_c, 13, 54, 0
15, 223920, Note_on_c, 13, 54, 76
15, 224009, Note_on_c, 13, 54, 0
15, 224040, Note_on_c, 13, 54, 76
15, 224129, Note_on_c, 13, 54, 0
15, 224160, Note_on_c, 13, 49, 76
15, 224399, Note_on_c, 13, 49, 0
15, 226320, Note_on_c, 13, 50, 52
15, 226320, Note_on_c, 13, 54, 52
15, 226499, Note_on_c, 13, 50, 0
15, 226499, Note_on_c, 13, 54, 0
15, 226560, Note_on_c, 13, 54, 52
15, 226560, Note_on_c, 13, 57, 52
15, 226739, Note_on_c, 13, 54, 0
15, 226739, Note_on_c, 13, 57, 0
15, 226800, Note_on_c, 13, 54, 52
15, 226800, Note_on_c, 13, 50, 52
15, 226979, Note_on_c, 13, 54, 0
15, 226979, Note_on_c, 13, 50, 0
15, 227280, Note_on_c, 13, 50, 52
15, 227280, Note_on_c, 13, 54, 52
15, 227459, Note_on_c, 13, 50, 0
15, 227459, Note_on_c, 13, 54, 0
15, 227520, Note_on_c, 13, 54, 52
15, 227520, Note_on_c, 13, 57, 52
15, 227699, Note_on_c, 13, 54, 0
15, 227699, Note_on_c, 13, 57, 0
15, 227760, Note_on_c, 13, 54, 52
15, 227760, Note_on_c, 13, 50, 52
15, 227939, Note_on_c, 13, 54, 0
15, 227939, Note_on_c, 13, 50, 0
15, 228240, Note_on_c, 13, 55, 52
15, 228240, Note_on_c, 13, 52, 52
15, 228419, Note_on_c, 13, 55, 0
15, 228419, Note_on_c, 13, 52, 0
15, 228480, Note_on_c, 13, 55, 52
15, 228480, Note_on_c, 13, 57, 52
15, 228659, Note_on_c, 13, 55, 0
15, 228659, Note_on_c, 13, 57, 0
15, 228720, Note_on_c, 13, 52, 52
15, 228720, Note_on_c, 13, 55, 52
15, 228899, Note_on_c, 13, 52, 0
15, 228899, Note_on_c, 13, 55, 0
15, 229200, Note_on_c, 13, 52, 68
15, 229200, Note_on_c, 13, 55, 68
15, 229379, Note_on_c, 13, 52, 0
15, 229379, Note_on_c, 13, 55, 0
15, 229440, Note_on_c, 13, 57, 52
15, 229440, Note_on_c, 13, 55, 52
15, 229619, Note_on_c, 13, 57, 0
15, 229619, Note_on_c, 13, 55, 0
15, 229680, Note_on_c, 13, 55, 52
15, 229680, Note_on_c, 13, 52, 52
15, 229859, Note_on_c, 13, 55, 0
15, 229859, Note_on_c, 13, 52, 0
15, 230160, Note_on_c, 13, 50, 52
15, 230160, Note_on_c, 13, 54, 52
15, 230339, Note_on_c, 13, 50, 0
15, 230339, Note_on_c, 13, 54, 0
15, 230400, Note_on_c, 13, 57, 52
15, 230400, Note_on_c, 13, 54, 52
15, 230579, Note_on_c, 13, 57, 0
15, 230579, Note_on_c, 13, 54, 0
15, 230640, Note_on_c, 13, 54, 52
15, 230640, Note_on_c, 13, 50, 52
15, 230819, Note_on_c, 13, 54, 0
15, 230819, Note_on_c, 13, 50, 0
15, 231120, Note_on_c, 13, 54, 52
15, 231120, Note_on_c, 13, 50, 52
15, 231299, Note_on_c, 13, 54, 0
15, 231299, Note_on_c, 13, 50, 0
15, 231360, Note_on_c, 13, 57, 52
15, 231360, Note_on_c, 13, 54, 52
15, 231539, Note_on_c, 13, 57, 0
15, 231539, Note_on_c, 13, 54, 0
15, 231600, Note_on_c, 13, 50, 52
15, 231600, Note_on_c, 13, 54, 52
15, 231779, Note_on_c, 13, 50, 0
15, 231779, Note_on_c, 13, 54, 0
15, 232080, Note_on_c, 13, 52, 52
15, 232080, Note_on_c, 13, 55, 52
15, 232259, Note_on_c, 13, 52, 0
15, 232259, Note_on_c, 13, 55, 0
15, 232320, Note_on_c, 13, 57, 52
15, 232320, Note_on_c, 13, 55, 52
15, 232499, Note_on_c, 13, 57, 0
15, 232499, Note_on_c, 13, 55, 0
15, 232560, Note_on_c, 13, 55, 52
15, 232560, Note_on_c, 13, 52, 52
15, 232739, Note_on_c, 13, 55, 0
15, 232739, Note_on_c, 13, 52, 0
15, 232800, Control_c, 13, 11, 96
15, 233040, Note_on_c, 13, 64, 84
15, 233040, Note_on_c, 13, 57, 84
15, 233219, Note_on_c, 13, 64, 0
15, 233219, Note_on_c, 13, 57, 0
15, 233280, Note_on_c, 13, 64, 68
15, 233280, Note_on_c, 13, 67, 68
15, 233459, Note_on_c, 13, 64, 0
15, 233459, Note_on_c, 13, 67, 0
15, 233520, Note_on_c, 13, 64, 68
15, 233520, Note_on_c, 13, 57, 68
15, 233699, Note_on_c, 13, 64, 0
15, 233699, Note_on_c, 13, 57, 0
15, 233760, Note_on_c, 13, 62, 68
15, 233760, Note_on_c, 13, 57, 68
15, 233939, Note_on_c, 13, 62, 0
15, 233939, Note_on_c, 13, 57, 0
15, 234000, Control_c, 13, 11, 96
15, 234000, Note_on_c, 13, 66, 68
15, 234000, Note_on_c, 13, 62, 68
15, 234179, Note_on_c, 13, 66, 0
15, 234179, Note_on_c, 13, 62, 0
15, 234220, Control_c, 13, 11, 99
15, 234240, Note_on_c, 13, 57, 68
15, 234240, Note_on_c, 13, 62, 68
15, 234419, Note_on_c, 13, 57, 0
15, 234419, Note_on_c, 13, 62, 0
15, 234440, Control_c, 13, 11, 101
15, 234480, Note_on_c, 13, 62, 68
15, 234480, Note_on_c, 13, 66, 68
15, 234659, Note_on_c, 13, 62, 0
15, 234659, Note_on_c, 13, 66, 0
15, 234660, Control_c, 13, 11, 104
15, 234880, Control_c, 13, 11, 106
15, 234960, Note_on_c, 13, 61, 68
15, 234960, Note_on_c, 13, 66, 68
15, 235100, Control_c, 13, 11, 109
15, 235139, Note_on_c, 13, 61, 0
15, 235139, Note_on_c, 13, 66, 0
15, 235200, Note_on_c, 13, 58, 68
15, 235200, Note_on_c, 13, 61, 68
15, 235320, Control_c, 13, 11, 112
15, 235379, Note_on_c, 13, 58, 0
15, 235379, Note_on_c, 13, 61, 0
15, 235440, Note_on_c, 13, 66, 68
15, 235440, Note_on_c, 13, 61, 68
15, 235540, Control_c, 13, 11, 114
15, 235619, Note_on_c, 13, 66, 0
15, 235619, Note_on_c, 13, 61, 0
15, 235760, Control_c, 13, 11, 117
15, 235920, Note_on_c, 13, 66, 68
15, 235920, Note_on_c, 13, 62, 68
15, 235980, Control_c, 13, 11, 119
15, 236099, Note_on_c, 13, 66, 0
15, 236099, Note_on_c, 13, 62, 0
15, 236160, Note_on_c, 13, 62, 68
15, 236160, Note_on_c, 13, 59, 68
15, 236200, Control_c, 13, 11, 122
15, 236339, Note_on_c, 13, 62, 0
15, 236339, Note_on_c, 13, 59, 0
15, 236400, Note_on_c, 13, 62, 68
15, 236400, Note_on_c, 13, 66, 68
15, 236420, Control_c, 13, 11, 124
15, 236579, Note_on_c, 13, 62, 0
15, 236579, Note_on_c, 13, 66, 0
15, 236640, Control_c, 13, 11, 127
15, 236880, Note_on_c, 13, 64, 76
15, 236880, Note_on_c, 13, 69, 76
15, 237059, Note_on_c, 13, 64, 0
15, 237059, Note_on_c, 13, 69, 0
15, 237120, Note_on_c, 13, 61, 68
15, 237120, Note_on_c, 13, 64, 68
15, 237299, Note_on_c, 13, 61, 0
15, 237299, Note_on_c, 13, 64, 0
15, 237360, Note_on_c, 13, 69, 68
15, 237360, Note_on_c, 13, 64, 68
15, 237539, Note_on_c, 13, 69, 0
15, 237539, Note_on_c, 13, 64, 0
15, 237600, Control_c, 13, 11, 127
15, 237680, Control_c, 13, 11, 124
15, 237760, Control_c, 13, 11, 122
15, 237840, Note_on_c, 13, 62, 68
15, 237840, Note_on_c, 13, 66, 68
15, 237840, Control_c, 13, 11, 119
15, 237920, Control_c, 13, 11, 117
15, 238000, Control_c, 13, 11, 114
15, 238019, Note_on_c, 13, 62, 0
15, 238019, Note_on_c, 13, 66, 0
15, 238080, Note_on_c, 13, 66, 68
15, 238080, Note_on_c, 13, 69, 68
15, 238080, Control_c, 13, 11, 112
15, 238160, Control_c, 13, 11, 109
15, 238240, Control_c, 13, 11, 106
15, 238259, Note_on_c, 13, 66, 0
15, 238259, Note_on_c, 13, 69, 0
15, 238320, Note_on_c, 13, 62, 68
15, 238320, Control_c, 13, 11, 104
15, 238320, Note_on_c, 13, 66, 68
15, 238400, Control_c, 13, 11, 101
15, 238480, Control_c, 13, 11, 99
15, 238499, Note_on_c, 13, 62, 0
15, 238499, Note_on_c, 13, 66, 0
15, 238560, Control_c, 13, 11, 96
15, 238800, Note_on_c, 13, 55, 68
15, 238800, Note_on_c, 13, 64, 68
15, 238979, Note_on_c, 13, 55, 0
15, 238979, Note_on_c, 13, 64, 0
15, 239040, Note_on_c, 13, 59, 68
15, 239040, Note_on_c, 13, 67, 68
15, 239219, Note_on_c, 13, 59, 0
15, 239219, Note_on_c, 13, 67, 0
15, 239280, Note_on_c, 13, 64, 68
15, 239280, Note_on_c, 13, 55, 68
15, 239459, Note_on_c, 13, 64, 0
15, 239459, Note_on_c, 13, 55, 0
15, 239760, Note_on_c, 13, 62, 68
15, 239760, Note_on_c, 13, 54, 68
15, 239939, Note_on_c, 13, 62, 0
15, 239939, Note_on_c, 13, 54, 0
15, 240000, Note_on_c, 13, 57, 68
15, 240000, Note_on_c, 13, 66, 68
15, 240179, Note_on_c, 13, 57, 0
15, 240179, Note_on_c, 13, 66, 0
15, 240240, Note_on_c, 13, 62, 68
15, 240240, Note_on_c, 13, 54, 68
15, 240419, Note_on_c, 13, 62, 0
15, 240419, Note_on_c, 13, 54, 0
15, 240720, Note_on_c, 13, 61, 68
15, 240720, Note_on_c, 13, 52, 68
15, 240899, Note_on_c, 13, 61, 0
15, 240899, Note_on_c, 13, 52, 0
15, 240960, Note_on_c, 13, 55, 68
15, 240960, Note_on_c, 13, 64, 68
15, 241139, Note_on_c, 13, 55, 0
15, 241139, Note_on_c, 13, 64, 0
15, 241200, Note_on_c, 13, 61, 68
15, 241200, Note_on_c, 13, 52, 68
15, 241379, Note_on_c, 13, 61, 0
15, 241379, Note_on_c, 13, 52, 0
15, 241440, Note_on_c, 13, 53, 68
15, 241440, Note_on_c, 13, 62, 68
15, 241619, Note_on_c, 13, 53, 0
15, 241619, Note_on_c, 13, 62, 0
15, 241680, Note_on_c, 13, 62, 68
15, 241680, Note_on_c, 13, 57, 68
15, 241859, Note_on_c, 13, 62, 0
15, 241859, Note_on_c, 13, 57, 0
15, 241920, Note_on_c, 13, 62, 68
15, 241920, Note_on_c, 13, 65, 68
15, 242099, Note_on_c, 13, 62, 0
15, 242099, Note_on_c, 13, 65, 0
15, 242160, Note_on_c, 13, 57, 68
15, 242160, Note_on_c, 13, 62, 68
15, 242339, Note_on_c, 13, 57, 0
15, 242339, Note_on_c, 13, 62, 0
15, 242640, Note_on_c, 13, 57, 68
15, 242640, Note_on_c, 13, 62, 68
15, 242819, Note_on_c, 13, 57, 0
15, 242819, Note_on_c, 13, 62, 0
15, 242880, Note_on_c, 13, 62, 68
15, 242880, Note_on_c, 13, 65, 68
15, 243059, Note_on_c, 13, 62, 0
15, 243059, Note_on_c, 13, 65, 0
15, 243120, Note_on_c, 13, 57, 68
15, 243120, Note_on_c, 13, 62, 68
15, 243299, Note_on_c, 13, 57, 0
15, 243299, Note_on_c, 13, 62, 0
15, 243600, Note_on_c, 13, 64, 68
15, 243600, Note_on_c, 13, 57, 68
15, 243779, Note_on_c, 13, 64, 0
15, 243779, Note_on_c, 13, 57, 0
15, 243840, Note_on_c, 13, 64, 68
15, 243840, Note_on_c, 13, 67, 68
15, 244019, Note_on_c, 13, 64, 0
15, 244019, Note_on_c, 13, 67, 0
15, 244080, Note_on_c, 13, 64, 68
15, 244080, Note_on_c, 13, 57, 68
15, 244259, Note_on_c, 13, 64, 0
15, 244259, Note_on_c, 13, 57, 0
15, 244560, Note_on_c, 13, 64, 76
15, 244560, Note_on_c, 13, 57, 76
15, 244739, Note_on_c, 13, 64, 0
15, 244739, Note_on_c, 13, 57, 0
15, 244800, Note_on_c, 13, 64, 68
15, 244800, Note_on_c, 13, 67, 68
15, 244979, Note_on_c, 13, 64, 0
15, 244979, Note_on_c, 13, 67, 0
15, 245040, Note_on_c, 13, 64, 68
15, 245040, Note_on_c, 13, 57, 68
15, 245219, Note_on_c, 13, 64, 0
15, 245219, Note_on_c, 13, 57, 0
15, 245520, Note_on_c, 13, 50, 68
15, 245520, Note_on_c, 13, 53, 68
15, 245520, Control_c, 13, 11, 96
15, 245699, Note_on_c, 13, 50, 0
15, 245699, Note_on_c, 13, 53, 0
15, 245740, Control_c, 13, 11, 99
15, 245760, Note_on_c, 13, 53, 68
15, 245760, Note_on_c, 13, 57, 68
15, 245939, Note_on_c, 13, 53, 0
15, 245939, Note_on_c, 13, 57, 0
15, 245960, Control_c, 13, 11, 101
15, 246000, Note_on_c, 13, 53, 68
15, 246000, Note_on_c, 13, 50, 68
15, 246179, Note_on_c, 13, 53, 0
15, 246179, Note_on_c, 13, 50, 0
15, 246180, Control_c, 13, 11, 104
15, 246400, Control_c, 13, 11, 106
15, 246480, Note_on_c, 13, 53, 68
15, 246480, Note_on_c, 13, 50, 68
15, 246620, Control_c, 13, 11, 109
15, 246659, Note_on_c, 13, 53, 0
15, 246659, Note_on_c, 13, 50, 0
15, 246720, Note_on_c, 13, 57, 68
15, 246720, Note_on_c, 13, 53, 68
15, 246840, Control_c, 13, 11, 112
15, 246899, Note_on_c, 13, 57, 0
15, 246899, Note_on_c, 13, 53, 0
15, 246960, Note_on_c, 13, 53, 68
15, 246960, Note_on_c, 13, 50, 68
15, 247060, Control_c, 13, 11, 114
15, 247139, Note_on_c, 13, 53, 0
15, 247139, Note_on_c, 13, 50, 0
15, 247280, Control_c, 13, 11, 117
15, 247440, Note_on_c, 13, 52, 68
15, 247440, Note_on_c, 13, 55, 68
15, 247500, Control_c, 13, 11, 119
15, 247619, Note_on_c, 13, 52, 0
15, 247619, Note_on_c, 13, 55, 0
15, 247680, Note_on_c, 13, 60, 68
15, 247680, Note_on_c, 13, 55, 68
15, 247720, Control_c, 13, 11, 122
15, 247859, Note_on_c, 13, 60, 0
15, 247859, Note_on_c, 13, 55, 0
15, 247920, Note_on_c, 13, 55, 68
15, 247920, Note_on_c, 13, 52, 68
15, 247940, Control_c, 13, 11, 124
15, 248099, Note_on_c, 13, 55, 0
15, 248099, Note_on_c, 13, 52, 0
15, 248160, Control_c, 13, 11, 127
15, 248400, Note_on_c, 13, 52, 68
15, 248400, Note_on_c, 13, 55, 68
15, 248579, Note_on_c, 13, 52, 0
15, 248579, Note_on_c, 13, 55, 0
15, 248640, Note_on_c, 13, 60, 68
15, 248640, Note_on_c, 13, 55, 68
15, 248819, Note_on_c, 13, 60, 0
15, 248819, Note_on_c, 13, 55, 0
15, 248880, Note_on_c, 13, 52, 68
15, 248880, Note_on_c, 13, 55, 68
15, 249059, Note_on_c, 13, 52, 0
15, 249059, Note_on_c, 13, 55, 0
15, 249120, Control_c, 13, 11, 127
15, 249200, Control_c, 13, 11, 124
15, 249280, Control_c, 13, 11, 122
15, 249360, Note_on_c, 13, 53, 68
15, 249360, Control_c, 13, 11, 119
15, 249360, Note_on_c, 13, 57, 68
15, 249440, Control_c, 13, 11, 117
15, 249520, Control_c, 13, 11, 114
15, 249539, Note_on_c, 13, 53, 0
15, 249539, Note_on_c, 13, 57, 0
15, 249600, Control_c, 13, 11, 112
15, 249600, Note_on_c, 13, 60, 68
15, 249600, Note_on_c, 13, 57, 68
15, 249680, Control_c, 13, 11, 109
15, 249760, Control_c, 13, 11, 106
15, 249779, Note_on_c, 13, 60, 0
15, 249779, Note_on_c, 13, 57, 0
15, 249840, Note_on_c, 13, 57, 68
15, 249840, Note_on_c, 13, 53, 68
15, 249840, Control_c, 13, 11, 104
15, 249920, Control_c, 13, 11, 101
15, 250000, Control_c, 13, 11, 99
15, 250019, Note_on_c, 13, 57, 0
15, 250019, Note_on_c, 13, 53, 0
15, 250320, Note_on_c, 13, 50, 68
15, 250320, Note_on_c, 13, 55, 68
15, 250499, Note_on_c, 13, 50, 0
15, 250499, Note_on_c, 13, 55, 0
15, 250560, Note_on_c, 13, 55, 68
15, 250560, Note_on_c, 13, 58, 68
15, 250739, Note_on_c, 13, 55, 0
15, 250739, Note_on_c, 13, 58, 0
15, 250800, Note_on_c, 13, 55, 68
15, 250800, Note_on_c, 13, 50, 68
15, 250979, Note_on_c, 13, 55, 0
15, 250979, Note_on_c, 13, 50, 0
15, 251280, Note_on_c, 13, 48, 68
15, 251280, Note_on_c, 13, 53, 68
15, 251459, Note_on_c, 13, 48, 0
15, 251459, Note_on_c, 13, 53, 0
15, 251520, Note_on_c, 13, 57, 68
15, 251520, Note_on_c, 13, 53, 68
15, 251699, Note_on_c, 13, 57, 0
15, 251699, Note_on_c, 13, 53, 0
15, 251760, Note_on_c, 13, 53, 68
15, 251760, Note_on_c, 13, 48, 68
15, 251939, Note_on_c, 13, 53, 0
15, 251939, Note_on_c, 13, 48, 0
15, 252240, Note_on_c, 13, 52, 68
15, 252240, Note_on_c, 13, 55, 68
15, 252419, Note_on_c, 13, 52, 0
15, 252419, Note_on_c, 13, 55, 0
15, 252480, Note_on_c, 13, 57, 68
15, 252480, Note_on_c, 13, 55, 68
15, 252659, Note_on_c, 13, 57, 0
15, 252659, Note_on_c, 13, 55, 0
15, 252720, Note_on_c, 13, 52, 68
15, 252720, Note_on_c, 13, 55, 68
15, 252899, Note_on_c, 13, 52, 0
15, 252899, Note_on_c, 13, 55, 0
15, 252960, Control_c, 13, 11, 80
15, 253200, Note_on_c, 13, 62, 76
15, 253200, Note_on_c, 13, 53, 76
15, 253200, Control_c, 13, 11, 80
15, 253379, Note_on_c, 13, 62, 0
15, 253379, Note_on_c, 13, 53, 0
15, 253440, Note_on_c, 13, 57, 76
15, 253440, Note_on_c, 13, 65, 76
15, 253500, Control_c, 13, 11, 84
15, 253619, Note_on_c, 13, 57, 0
15, 253619, Note_on_c, 13, 65, 0
15, 253680, Note_on_c, 13, 62, 76
15, 253680, Note_on_c, 13, 53, 76
15, 253800, Control_c, 13, 11, 88
15, 253859, Note_on_c, 13, 62, 0
15, 253859, Note_on_c, 13, 53, 0
15, 254100, Control_c, 13, 11, 92
15, 254160, Note_on_c, 13, 58, 76
15, 254160, Note_on_c, 13, 55, 76
15, 254339, Note_on_c, 13, 58, 0
15, 254339, Note_on_c, 13, 55, 0
15, 254400, Control_c, 13, 11, 96
15, 254400, Note_on_c, 13, 58, 76
15, 254400, Note_on_c, 13, 63, 76
15, 254579, Note_on_c, 13, 58, 0
15, 254579, Note_on_c, 13, 63, 0
15, 254640, Note_on_c, 13, 58, 76
15, 254640, Note_on_c, 13, 55, 76
15, 254700, Control_c, 13, 11, 100
15, 254819, Note_on_c, 13, 58, 0
15, 254819, Note_on_c, 13, 55, 0
15, 255000, Control_c, 13, 11, 104
15, 255120, Note_on_c, 13, 53, 76
15, 255120, Note_on_c, 13, 57, 76
15, 255299, Note_on_c, 13, 53, 0
15, 255299, Note_on_c, 13, 57, 0
15, 255300, Control_c, 13, 11, 107
15, 255360, Note_on_c, 13, 57, 76
15, 255360, Note_on_c, 13, 62, 76
15, 255539, Note_on_c, 13, 57, 0
15, 255539, Note_on_c, 13, 62, 0
15, 255600, Control_c, 13, 11, 111
15, 255600, Note_on_c, 13, 53, 76
15, 255600, Note_on_c, 13, 57, 76
15, 255779, Note_on_c, 13, 53, 0
15, 255779, Note_on_c, 13, 57, 0
15, 255900, Control_c, 13, 11, 115
15, 256080, Note_on_c, 13, 57, 76
15, 256080, Note_on_c, 13, 52, 76
15, 256200, Control_c, 13, 11, 119
15, 256259, Note_on_c, 13, 57, 0
15, 256259, Note_on_c, 13, 52, 0
15, 256320, Note_on_c, 13, 57, 76
15, 256320, Note_on_c, 13, 61, 76
15, 256499, Note_on_c, 13, 57, 0
15, 256499, Note_on_c, 13, 61, 0
15, 256500, Control_c, 13, 11, 123
15, 256560, Note_on_c, 13, 57, 76
15, 256560, Note_on_c, 13, 52, 76
15, 256739, Note_on_c, 13, 57, 0
15, 256739, Note_on_c, 13, 52, 0
15, 256785, Control_c, 13, 11, 127
15, 256800, Note_on_c, 13, 54, 76
15, 256979, Note_on_c, 13, 54, 0
15, 257040, Note_on_c, 13, 57, 76
15, 257219, Note_on_c, 13, 57, 0
15, 257280, Note_on_c, 13, 62, 76
15, 257459, Note_on_c, 13, 62, 0
15, 257520, Note_on_c, 13, 66, 76
15, 257699, Note_on_c, 13, 66, 0
15, 257760, Note_on_c, 13, 69, 84
15, 258449, Note_on_c, 13, 69, 0
15, 258480, Note_on_c, 13, 54, 76
15, 258689, Note_on_c, 13, 54, 0
15, 258720, Note_on_c, 13, 55, 76
15, 258899, Note_on_c, 13, 55, 0
15, 258960, Note_on_c, 13, 59, 76
15, 259139, Note_on_c, 13, 59, 0
15, 259200, Note_on_c, 13, 62, 76
15, 259379, Note_on_c, 13, 62, 0
15, 259440, Note_on_c, 13, 67, 76
15, 259619, Note_on_c, 13, 67, 0
15, 259680, Note_on_c, 13, 71, 84
15, 260369, Note_on_c, 13, 71, 0
15, 260400, Note_on_c, 13, 56, 76
15, 260609, Note_on_c, 13, 56, 0
15, 260640, Note_on_c, 13, 57, 76
15, 260819, Note_on_c, 13, 57, 0
15, 260880, Note_on_c, 13, 69, 76
15, 261119, Note_on_c, 13, 69, 0
15, 261360, Note_on_c, 13, 57, 76
15, 261569, Note_on_c, 13, 57, 0
15, 261600, Note_on_c, 13, 55, 84
15, 261779, Note_on_c, 13, 55, 0
15, 261840, Note_on_c, 13, 67, 76
15, 262079, Note_on_c, 13, 67, 0
15, 262320, Note_on_c, 13, 55, 76
15, 262529, Note_on_c, 13, 55, 0
15, 262560, Note_on_c, 13, 54, 76
15, 262739, Note_on_c, 13, 54, 0
15, 262800, Note_on_c, 13, 57, 76
15, 262979, Note_on_c, 13, 57, 0
15, 263040, Note_on_c, 13, 62, 76
15, 263219, Note_on_c, 13, 62, 0
15, 263280, Note_on_c, 13, 66, 76
15, 263459, Note_on_c, 13, 66, 0
15, 263520, Note_on_c, 13, 69, 84
15, 264209, Note_on_c, 13, 69, 0
15, 264240, Note_on_c, 13, 54, 76
15, 264449, Note_on_c, 13, 54, 0
15, 264480, Note_on_c, 13, 55, 76
15, 264659, Note_on_c, 13, 55, 0
15, 264720, Note_on_c, 13, 59, 76
15, 264899, Note_on_c, 13, 59, 0
15, 264960, Note_on_c, 13, 62, 76
15, 265139, Note_on_c, 13, 62, 0
15, 265200, Note_on_c, 13, 67, 76
15, 265379, Note_on_c, 13, 67, 0
15, 265440, Note_on_c, 13, 71, 84
15, 266129, Note_on_c, 13, 71, 0
15, 266160, Note_on_c, 13, 56, 76
15, 266369, Note_on_c, 13, 56, 0
15, 266400, Note_on_c, 13, 57, 84
15, 266579, Note_on_c, 13, 57, 0
15, 266640, Note_on_c, 13, 60, 84
15, 266819, Note_on_c, 13, 60, 0
15, 266880, Note_on_c, 13, 66, 84
15, 267059, Note_on_c, 13, 66, 0
15, 267120, Note_on_c, 13, 69, 84
15, 267299, Note_on_c, 13, 69, 0
15, 267360, Note_on_c, 13, 72, 84
15, 267539, Note_on_c, 13, 72, 0
15, 267600, Note_on_c, 13, 69, 84
15, 267779, Note_on_c, 13, 69, 0
15, 267840, Note_on_c, 13, 66, 84
15, 268019, Note_on_c, 13, 66, 0
15, 268080, Note_on_c, 13, 60, 84
15, 268259, Note_on_c, 13, 60, 0
15, 268320, Note_on_c, 13, 57, 84
15, 268499, Note_on_c, 13, 57, 0
15, 268560, Note_on_c, 13, 60, 84
15, 268739, Note_on_c, 13, 60, 0
15, 268800, Note_on_c, 13, 66, 84
15, 268979, Note_on_c, 13, 66, 0
15, 269040, Note_on_c, 13, 69, 84
15, 269219, Note_on_c, 13, 69, 0
15, 269280, Note_on_c, 13, 72, 84
15, 269459, Note_on_c, 13, 72, 0
15, 269520, Note_on_c, 13, 69, 84
15, 269699, Note_on_c, 13, 69, 0
15, 269760, Note_on_c, 13, 66, 84
15, 269939, Note_on_c, 13, 66, 0
15, 270000, Note_on_c, 13, 60, 84
15, 270179, Note_on_c, 13, 60, 0
15, 270240, Note_on_c, 13, 57, 84
15, 270479, Note_on_c, 13, 57, 0
15, 278880, Note_on_c, 13, 62, 44
15, 279119, Note_on_c, 13, 62, 0
15, 280800, Note_on_c, 13, 62, 44
15, 281039, Note_on_c, 13, 62, 0
15, 282120, Note_on_c, 13, 61, 76
15, 282209, Note_on_c, 13, 61, 0
15, 282240, Note_on_c, 13, 61, 84
15, 282299, Note_on_c, 13, 61, 0
15, 282300, Note_on_c, 13, 62, 76
15, 282359, Note_on_c, 13, 62, 0
15, 282360, Note_on_c, 13, 61, 76
15, 282419, Note_on_c, 13, 61, 0
15, 282420, Note_on_c, 13, 62, 76
15, 282479, Note_on_c, 13, 62, 0
15, 282480, Note_on_c, 13, 61, 76
15, 282539, Note_on_c, 13, 61, 0
15, 282540, Note_on_c, 13, 62, 76
15, 282599, Note_on_c, 13, 62, 0
15, 282600, Note_on_c, 13, 59, 76
15, 282659, Note_on_c, 13, 59, 0
15, 282660, Note_on_c, 13, 61, 76
15, 282704, Note_on_c, 13, 61, 0
15, 282720, Note_on_c, 13, 64, 76
15, 282899, Note_on_c, 13, 64, 0
15, 282960, Note_on_c, 13, 57, 76
15, 283139, Note_on_c, 13, 57, 0
15, 283440, Note_on_c, 13, 67, 52
15, 283679, Note_on_c, 13, 67, 0
15, 283680, Note_on_c, 13, 66, 52
15, 284159, Note_on_c, 13, 66, 0
15, 284160, Note_on_c, 13, 61, 52
15, 284609, Note_on_c, 13, 61, 0
15, 284640, Note_on_c, 13, 62, 52
15, 285119, Note_on_c, 13, 62, 0
15, 285120, Note_on_c, 13, 67, 52
15, 285599, Note_on_c, 13, 67, 0
15, 285600, Note_on_c, 13, 66, 52
15, 286079, Note_on_c, 13, 66, 0
15, 286080, Note_on_c, 13, 64, 52
15, 286529, Note_on_c, 13, 64, 0
15, 286560, Note_on_c, 13, 62, 76
15, 286739, Note_on_c, 13, 62, 0
15, 286800, Note_on_c, 13, 57, 76
15, 286979, Note_on_c, 13, 57, 0
15, 287880, Note_on_c, 13, 61, 76
15, 287969, Note_on_c, 13, 61, 0
15, 288000, Note_on_c, 13, 61, 84
15, 288059, Note_on_c, 13, 61, 0
15, 288060, Note_on_c, 13, 62, 76
15, 288119, Note_on_c, 13, 62, 0
15, 288120, Note_on_c, 13, 61, 76
15, 288179, Note_on_c, 13, 61, 0
15, 288180, Note_on_c, 13, 62, 76
15, 288239, Note_on_c, 13, 62, 0
15, 288240, Note_on_c, 13, 61, 76
15, 288299, Note_on_c, 13, 61, 0
15, 288300, Note_on_c, 13, 62, 76
15, 288359, Note_on_c, 13, 62, 0
15, 288360, Note_on_c, 13, 59, 76
15, 288419, Note_on_c, 13, 59, 0
15, 288420, Note_on_c, 13, 61, 76
15, 288464, Note_on_c, 13, 61, 0
15, 288480, Note_on_c, 13, 64, 76
15, 288659, Note_on_c, 13, 64, 0
15, 288720, Note_on_c, 13, 57, 76
15, 288899, Note_on_c, 13, 57, 0
15, 289800, Note_on_c, 13, 62, 76
15, 289889, Note_on_c, 13, 62, 0
15, 289920, Note_on_c, 13, 62, 76
15, 289979, Note_on_c, 13, 62, 0
15, 289980, Note_on_c, 13, 64, 76
15, 290039, Note_on_c, 13, 64, 0
15, 290040, Note_on_c, 13, 62, 76
15, 290099, Note_on_c, 13, 62, 0
15, 290100, Note_on_c, 13, 64, 76
15, 290159, Note_on_c, 13, 64, 0
15, 290160, Note_on_c, 13, 62, 76
15, 290219, Note_on_c, 13, 62, 0
15, 290220, Note_on_c, 13, 64, 76
15, 290279, Note_on_c, 13, 64, 0
15, 290280, Note_on_c, 13, 61, 76
15, 290339, Note_on_c, 13, 61, 0
15, 290340, Note_on_c, 13, 62, 76
15, 290384, Note_on_c, 13, 62, 0
15, 290400, Note_on_c, 13, 67, 76
15, 290579, Note_on_c, 13, 67, 0
15, 290640, Note_on_c, 13, 58, 76
15, 290819, Note_on_c, 13, 58, 0
15, 291600, Note_on_c, 13, 62, 84
15, 291779, Note_on_c, 13, 62, 0
15, 291840, Note_on_c, 13, 67, 76
15, 292019, Note_on_c, 13, 67, 0
15, 292080, Note_on_c, 13, 59, 76
15, 292259, Note_on_c, 13, 59, 0
15, 292560, Note_on_c, 13, 64, 84
15, 292739, Note_on_c, 13, 64, 0
15, 292800, Note_on_c, 13, 67, 76
15, 292979, Note_on_c, 13, 67, 0
15, 293040, Note_on_c, 13, 60, 76
15, 293219, Note_on_c, 13, 60, 0
15, 293520, Note_on_c, 13, 55, 84
15, 293699, Note_on_c, 13, 55, 0
15, 293760, Note_on_c, 13, 58, 76
15, 293939, Note_on_c, 13, 58, 0
15, 294000, Note_on_c, 13, 49, 76
15, 294179, Note_on_c, 13, 49, 0
15, 294240, Note_on_c, 13, 50, 76
15, 294419, Note_on_c, 13, 50, 0
15, 294480, Note_on_c, 13, 59, 76
15, 294659, Note_on_c, 13, 59, 0
15, 294720, Note_on_c, 13, 51, 76
15, 294899, Note_on_c, 13, 51, 0
15, 294960, Note_on_c, 13, 60, 76
15, 295139, Note_on_c, 13, 60, 0
15, 295200, Note_on_c, 13, 52, 76
15, 295379, Note_on_c, 13, 52, 0
15, 295440, Note_on_c, 13, 61, 76
15, 295619, Note_on_c, 13, 61, 0
15, 295680, Note_on_c, 13, 53, 76
15, 295859, Note_on_c, 13, 53, 0
15, 295920, Note_on_c, 13, 62, 76
15, 296099, Note_on_c, 13, 62, 0
15, 296160, Note_on_c, 13, 53, 76
15, 296339, Note_on_c, 13, 53, 0
15, 296400, Note_on_c, 13, 62, 76
15, 296579, Note_on_c, 13, 62, 0
15, 296640, Note_on_c, 13, 54, 76
15, 296819, Note_on_c, 13, 54, 0
15, 296880, Note_on_c, 13, 62, 76
15, 297059, Note_on_c, 13, 62, 0
15, 297120, Note_on_c, 13, 55, 76
15, 297299, Note_on_c, 13, 55, 0
15, 297360, Note_on_c, 13, 62, 76
15, 297539, Note_on_c, 13, 62, 0
15, 297600, Note_on_c, 13, 57, 76
15, 297779, Note_on_c, 13, 57, 0
15, 297840, Note_on_c, 13, 62, 76
15, 298019, Note_on_c, 13, 62, 0
15, 298080, Note_on_c, 13, 58, 76
15, 298259, Note_on_c, 13, 58, 0
15, 298320, Note_on_c, 13, 62, 76
15, 298499, Note_on_c, 13, 62, 0
15, 298560, Note_on_c, 13, 56, 76
15, 298739, Note_on_c, 13, 56, 0
15, 298800, Note_on_c, 13, 62, 76
15, 298979, Note_on_c, 13, 62, 0
15, 299040, Note_on_c, 13, 57, 76
15, 299129, Note_on_c, 13, 57, 0
15, 299160, Note_on_c, 13, 57, 52
15, 299249, Note_on_c, 13, 57, 0
15, 299280, Note_on_c, 13, 57, 52
15, 299369, Note_on_c, 13, 57, 0
15, 299400, Note_on_c, 13, 57, 52
15, 299489, Note_on_c, 13, 57, 0
15, 299520, Note_on_c, 13, 57, 52
15, 299609, Note_on_c, 13, 57, 0
15, 299640, Note_on_c, 13, 57, 52
15, 299729, Note_on_c, 13, 57, 0
15, 299760, Note_on_c, 13, 57, 52
15, 299849, Note_on_c, 13, 57, 0
15, 299880, Note_on_c, 13, 57, 52
15, 299969, Note_on_c, 13, 57, 0
15, 300000, Note_on_c, 13, 57, 52
15, 300089, Note_on_c, 13, 57, 0
15, 300120, Note_on_c, 13, 57, 52
15, 300209, Note_on_c, 13, 57, 0
15, 300240, Note_on_c, 13, 57, 52
15, 300329, Note_on_c, 13, 57, 0
15, 300360, Note_on_c, 13, 57, 52
15, 300449, Note_on_c, 13, 57, 0
15, 300480, Note_on_c, 13, 57, 52
15, 300569, Note_on_c, 13, 57, 0
15, 300600, Note_on_c, 13, 57, 52
15, 300689, Note_on_c, 13, 57, 0
15, 300720, Note_on_c, 13, 57, 52
15, 300809, Note_on_c, 13, 57, 0
15, 300840, Note_on_c, 13, 57, 52
15, 300929, Note_on_c, 13, 57, 0
15, 300960, Note_on_c, 13, 57, 76
15, 301049, Note_on_c, 13, 57, 0
15, 301080, Note_on_c, 13, 57, 52
15, 301169, Note_on_c, 13, 57, 0
15, 301200, Note_on_c, 13, 57, 52
15, 301289, Note_on_c, 13, 57, 0
15, 301320, Note_on_c, 13, 57, 52
15, 301409, Note_on_c, 13, 57, 0
15, 301440, Note_on_c, 13, 57, 52
15, 301529, Note_on_c, 13, 57, 0
15, 301560, Note_on_c, 13, 57, 52
15, 301649, Note_on_c, 13, 57, 0
15, 301680, Note_on_c, 13, 57, 52
15, 301769, Note_on_c, 13, 57, 0
15, 301800, Note_on_c, 13, 57, 52
15, 301889, Note_on_c, 13, 57, 0
15, 301920, Note_on_c, 13, 57, 52
15, 302009, Note_on_c, 13, 57, 0
15, 302040, Note_on_c, 13, 57, 52
15, 302129, Note_on_c, 13, 57, 0
15, 302160, Note_on_c, 13, 57, 52
15, 302249, Note_on_c, 13, 57, 0
15, 302280, Note_on_c, 13, 57, 52
15, 302369, Note_on_c, 13, 57, 0
15, 302400, Note_on_c, 13, 57, 52
15, 302489, Note_on_c, 13, 57, 0
15, 302520, Note_on_c, 13, 57, 52
15, 302609, Note_on_c, 13, 57, 0
15, 302640, Note_on_c, 13, 57, 52
15, 302729, Note_on_c, 13, 57, 0
15, 302760, Note_on_c, 13, 57, 52
15, 302849, Note_on_c, 13, 57, 0
15, 302880, Note_on_c, 13, 57, 52
15, 303119, Note_on_c, 13, 57, 0
15, 303840, Note_on_c, 13, 59, 76
15, 304319, Note_on_c, 13, 59, 0
15, 304320, Note_on_c, 13, 61, 52
15, 304559, Note_on_c, 13, 61, 0
15, 304560, Note_on_c, 13, 62, 52
15, 304769, Note_on_c, 13, 62, 0
15, 304800, Note_on_c, 13, 61, 52
15, 305039, Note_on_c, 13, 61, 0
15, 305760, Note_on_c, 13, 59, 76
15, 306239, Note_on_c, 13, 59, 0
15, 306240, Note_on_c, 13, 61, 52
15, 306479, Note_on_c, 13, 61, 0
15, 306480, Note_on_c, 13, 62, 52
15, 306689, Note_on_c, 13, 62, 0
15, 306705, Control_c, 13, 11, 80
15, 306720, Note_on_c, 13, 61, 76
15, 306809, Note_on_c, 13, 61, 0
15, 306840, Note_on_c, 13, 73, 76
15, 306880, Control_c, 13, 11, 84
15, 306929, Note_on_c, 13, 73, 0
15, 306960, Note_on_c, 13, 73, 76
15, 307040, Control_c, 13, 11, 88
15, 307049, Note_on_c, 13, 73, 0
15, 307080, Note_on_c, 13, 73, 76
15, 307169, Note_on_c, 13, 73, 0
15, 307200, Control_c, 13, 11, 92
15, 307200, Note_on_c, 13, 71, 76
15, 307289, Note_on_c, 13, 71, 0
15, 307320, Note_on_c, 13, 71, 76
15, 307360, Control_c, 13, 11, 96
15, 307409, Note_on_c, 13, 71, 0
15, 307440, Note_on_c, 13, 71, 76
15, 307520, Control_c, 13, 11, 100
15, 307529, Note_on_c, 13, 71, 0
15, 307560, Note_on_c, 13, 71, 76
15, 307649, Note_on_c, 13, 71, 0
15, 307680, Control_c, 13, 11, 104
15, 307680, Note_on_c, 13, 69, 76
15, 307769, Note_on_c, 13, 69, 0
15, 307800, Note_on_c, 13, 69, 76
15, 307840, Control_c, 13, 11, 107
15, 307889, Note_on_c, 13, 69, 0
15, 307920, Note_on_c, 13, 69, 76
15, 308000, Control_c, 13, 11, 111
15, 308009, Note_on_c, 13, 69, 0
15, 308040, Note_on_c, 13, 69, 76
15, 308129, Note_on_c, 13, 69, 0
15, 308160, Control_c, 13, 11, 115
15, 308160, Note_on_c, 13, 67, 76
15, 308160, Note_on_c, 13, 70, 76
15, 308249, Note_on_c, 13, 67, 0
15, 308249, Note_on_c, 13, 70, 0
15, 308280, Note_on_c, 13, 67, 76
15, 308280, Note_on_c, 13, 70, 76
15, 308320, Control_c, 13, 11, 119
15, 308369, Note_on_c, 13, 67, 0
15, 308369, Note_on_c, 13, 70, 0
15, 308400, Note_on_c, 13, 69, 76
15, 308400, Note_on_c, 13, 67, 76
15, 308480, Control_c, 13, 11, 123
15, 308489, Note_on_c, 13, 69, 0
15, 308489, Note_on_c, 13, 67, 0
15, 308520, Note_on_c, 13, 69, 76
15, 308520, Note_on_c, 13, 67, 76
15, 308609, Note_on_c, 13, 69, 0
15, 308609, Note_on_c, 13, 67, 0
15, 308640, Note_on_c, 13, 69, 76
15, 308640, Note_on_c, 13, 66, 76
15, 308640, Control_c, 13, 11, 127
15, 308879, Note_on_c, 13, 69, 0
15, 308879, Note_on_c, 13, 66, 0
15, 310560, Note_on_c, 13, 62, 76
15, 310680, Control_c, 13, 11, 80
15, 311039, Note_on_c, 13, 62, 0
15, 311040, Note_on_c, 13, 64, 76
15, 311279, Note_on_c, 13, 64, 0
15, 311280, Note_on_c, 13, 66, 76
15, 311489, Note_on_c, 13, 66, 0
15, 311520, Note_on_c, 13, 67, 76
15, 312209, Note_on_c, 13, 67, 0
15, 312240, Note_on_c, 13, 67, 76
15, 312449, Note_on_c, 13, 67, 0
15, 312465, Control_c, 13, 11, 127
15, 312480, Note_on_c, 13, 66, 76
15, 312959, Note_on_c, 13, 66, 0
15, 312960, Note_on_c, 13, 64, 52
15, 313199, Note_on_c, 13, 64, 0
15, 313200, Note_on_c, 13, 62, 52
15, 313409, Note_on_c, 13, 62, 0
15, 313440, Note_on_c, 13, 67, 76
15, 313919, Note_on_c, 13, 67, 0
15, 313920, Note_on_c, 13, 66, 52
15, 314159, Note_on_c, 13, 66, 0
15, 314160, Note_on_c, 13, 64, 52
15, 314369, Note_on_c, 13, 64, 0
15, 314400, Note_on_c, 13, 66, 76
15, 314879, Note_on_c, 13, 66, 0
15, 314880, Note_on_c, 13, 64, 52
15, 315119, Note_on_c, 13, 64, 0
15, 315120, Note_on_c, 13, 62, 52
15, 315329, Note_on_c, 13, 62, 0
15, 315360, Note_on_c, 13, 67, 76
15, 315839, Note_on_c, 13, 67, 0
15, 315840, Note_on_c, 13, 66, 52
15, 316079, Note_on_c, 13, 66, 0
15, 316080, Note_on_c, 13, 64, 52
15, 316289, Note_on_c, 13, 64, 0
15, 316320, Note_on_c, 13, 66, 76
15, 316529, Note_on_c, 13, 66, 0
15, 316560, Note_on_c, 13, 54, 76
15, 316799, Note_on_c, 13, 54, 0
15, 316800, Note_on_c, 13, 55, 76
15, 317039, Note_on_c, 13, 55, 0
15, 317040, Note_on_c, 13, 57, 76
15, 317249, Note_on_c, 13, 57, 0
15, 317280, Note_on_c, 13, 59, 84
15, 317759, Note_on_c, 13, 59, 0
15, 317760, Note_on_c, 13, 57, 76
15, 317999, Note_on_c, 13, 57, 0
15, 318000, Note_on_c, 13, 55, 76
15, 318209, Note_on_c, 13, 55, 0
15, 318240, Note_on_c, 13, 61, 84
15, 318719, Note_on_c, 13, 61, 0
15, 318720, Note_on_c, 13, 59, 76
15, 318959, Note_on_c, 13, 59, 0
15, 318960, Note_on_c, 13, 57, 76
15, 319169, Note_on_c, 13, 57, 0
15, 319200, Note_on_c, 13, 62, 84
15, 319679, Note_on_c, 13, 62, 0
15, 319680, Note_on_c, 13, 61, 76
15, 319919, Note_on_c, 13, 61, 0
15, 319920, Note_on_c, 13, 59, 76
15, 320129, Note_on_c, 13, 59, 0
15, 320160, Note_on_c, 13, 64, 84
15, 323939, Note_on_c, 13, 64, 0
15, 324000, Note_on_c, 13, 54, 52
15, 325859, Note_on_c, 13, 54, 0
15, 325920, Note_on_c, 13, 58, 44
15, 326099, Note_on_c, 13, 58, 0
15, 326160, Note_on_c, 13, 58, 44
15, 326339, Note_on_c, 13, 58, 0
15, 326640, Note_on_c, 13, 58, 44
15, 326819, Note_on_c, 13, 58, 0
15, 327120, Note_on_c, 13, 59, 44
15, 327299, Note_on_c, 13, 59, 0
15, 327600, Note_on_c, 13, 58, 44
15, 327779, Note_on_c, 13, 58, 0
15, 327840, Note_on_c, 13, 59, 44
15, 328019, Note_on_c, 13, 59, 0
15, 328080, Note_on_c, 13, 62, 44
15, 328259, Note_on_c, 13, 62, 0
15, 328560, Note_on_c, 13, 63, 44
15, 328739, Note_on_c, 13, 63, 0
15, 329040, Note_on_c, 13, 64, 44
15, 329219, Note_on_c, 13, 64, 0
15, 329520, Note_on_c, 13, 63, 44
15, 329699, Note_on_c, 13, 63, 0
15, 329760, Note_on_c, 13, 64, 44
15, 329939, Note_on_c, 13, 64, 0
15, 330000, Note_on_c, 13, 59, 44
15, 330179, Note_on_c, 13, 59, 0
15, 330480, Note_on_c, 13, 59, 44
15, 330659, Note_on_c, 13, 59, 0
15, 330960, Note_on_c, 13, 61, 44
15, 331139, Note_on_c, 13, 61, 0
15, 331200, Control_c, 13, 11, 96
15, 331440, Note_on_c, 13, 62, 60
15, 331619, Note_on_c, 13, 62, 0
15, 331680, Note_on_c, 13, 61, 60
15, 331680, Control_c, 13, 11, 96
15, 331840, Control_c, 13, 11, 99
15, 331859, Note_on_c, 13, 61, 0
15, 331920, Note_on_c, 13, 57, 60
15, 332000, Control_c, 13, 11, 101
15, 332099, Note_on_c, 13, 57, 0
15, 332160, Control_c, 13, 11, 104
15, 332320, Control_c, 13, 11, 106
15, 332400, Note_on_c, 13, 57, 60
15, 332480, Control_c, 13, 11, 109
15, 332579, Note_on_c, 13, 57, 0
15, 332640, Control_c, 13, 11, 112
15, 332800, Control_c, 13, 11, 114
15, 332880, Note_on_c, 13, 59, 60
15, 332960, Control_c, 13, 11, 117
15, 333059, Note_on_c, 13, 59, 0
15, 333120, Control_c, 13, 11, 119
15, 333280, Control_c, 13, 11, 122
15, 333360, Note_on_c, 13, 57, 60
15, 333440, Control_c, 13, 11, 127
15, 333539, Note_on_c, 13, 57, 0
15, 333585, Program_c, 13, 45
15, 333600, Note_on_c, 13, 66, 44
15, 333839, Note_on_c, 13, 66, 0
15, 334080, Note_on_c, 13, 64, 44
15, 334319, Note_on_c, 13, 64, 0
15, 334560, Note_on_c, 13, 62, 44
15, 334799, Note_on_c, 13, 62, 0
15, 335040, Note_on_c, 13, 61, 44
15, 335279, Note_on_c, 13, 61, 0
15, 335520, Note_on_c, 13, 59, 44
15, 335759, Note_on_c, 13, 59, 0
15, 336000, Note_on_c, 13, 69, 44
15, 336239, Note_on_c, 13, 69, 0
15, 336480, Note_on_c, 13, 67, 44
15, 336719, Note_on_c, 13, 67, 0
15, 336960, Note_on_c, 13, 66, 44
15, 337199, Note_on_c, 13, 66, 0
15, 337440, Note_on_c, 13, 64, 44
15, 337679, Note_on_c, 13, 64, 0
15, 337920, Note_on_c, 13, 62, 44
15, 338159, Note_on_c, 13, 62, 0
15, 338400, Note_on_c, 13, 61, 44
15, 338639, Note_on_c, 13, 61, 0
15, 338880, Note_on_c, 13, 59, 44
15, 339119, Note_on_c, 13, 59, 0
15, 339360, Note_on_c, 13, 57, 44
15, 339599, Note_on_c, 13, 57, 0
15, 339840, Note_on_c, 13, 67, 44
15, 340079, Note_on_c, 13, 67, 0
15, 340320, Note_on_c, 13, 66, 44
15, 340559, Note_on_c, 13, 66, 0
15, 340800, Note_on_c, 13, 64, 44
15, 341039, Note_on_c, 13, 64, 0
15, 341280, Note_on_c, 13, 62, 44
15, 341519, Note_on_c, 13, 62, 0
15, 341760, Note_on_c, 13, 60, 44
15, 341999, Note_on_c, 13, 60, 0
15, 342240, Note_on_c, 13, 59, 44
15, 342479, Note_on_c, 13, 59, 0
15, 342720, Note_on_c, 13, 57, 44
15, 342959, Note_on_c, 13, 57, 0
15, 343200, Note_on_c, 13, 55, 44
15, 343439, Note_on_c, 13, 55, 0
15, 343680, Note_on_c, 13, 60, 44
15, 343919, Note_on_c, 13, 60, 0
15, 344160, Note_on_c, 13, 59, 44
15, 344399, Note_on_c, 13, 59, 0
15, 344640, Note_on_c, 13, 57, 44
15, 344879, Note_on_c, 13, 57, 0
15, 344880, Program_c, 13, 48
15, 345120, Note_on_c, 13, 55, 44
15, 345360, Control_c, 13, 11, 127
15, 345599, Note_on_c, 13, 55, 0
15, 345600, Note_on_c, 13, 60, 44
15, 345660, Control_c, 13, 11, 126
15, 345960, Control_c, 13, 11, 125
15, 346079, Note_on_c, 13, 60, 0
15, 346080, Note_on_c, 13, 59, 44
15, 346260, Control_c, 13, 11, 123
15, 346559, Note_on_c, 13, 59, 0
15, 346560, Control_c, 13, 11, 122
15, 346560, Note_on_c, 13, 57, 44
15, 346860, Control_c, 13, 11, 121
15, 347009, Note_on_c, 13, 57, 0
15, 347040, Note_on_c, 13, 55, 44
15, 347160, Control_c, 13, 11, 120
15, 347460, Control_c, 13, 11, 118
15, 347519, Note_on_c, 13, 55, 0
15, 347520, Note_on_c, 13, 60, 44
15, 347760, Control_c, 13, 11, 117
15, 347999, Note_on_c, 13, 60, 0
15, 348000, Note_on_c, 13, 59, 44
15, 348060, Control_c, 13, 11, 116
15, 348360, Control_c, 13, 11, 115
15, 348479, Note_on_c, 13, 59, 0
15, 348480, Note_on_c, 13, 57, 44
15, 348660, Control_c, 13, 11, 113
15, 348929, Note_on_c, 13, 57, 0
15, 348945, Control_c, 13, 11, 127
15, 348960, Note_on_c, 13, 55, 44
15, 349919, Note_on_c, 13, 55, 0
15, 349920, Note_on_c, 13, 60, 44
15, 350879, Note_on_c, 13, 60, 0
15, 350880, Note_on_c, 13, 59, 44
15, 351839, Note_on_c, 13, 59, 0
15, 351840, Note_on_c, 13, 57, 44
15, 352769, Note_on_c, 13, 57, 0
15, 352800, Note_on_c, 13, 55, 44
15, 352889, Note_on_c, 13, 55, 0
15, 352920, Note_on_c, 13, 55, 44
15, 353009, Note_on_c, 13, 55, 0
15, 353040, Note_on_c, 13, 55, 44
15, 353129, Note_on_c, 13, 55, 0
15, 353160, Note_on_c, 13, 55, 44
15, 353249, Note_on_c, 13, 55, 0
15, 353280, Note_on_c, 13, 55, 44
15, 353369, Note_on_c, 13, 55, 0
15, 353400, Note_on_c, 13, 55, 44
15, 353489, Note_on_c, 13, 55, 0
15, 353520, Note_on_c, 13, 55, 44
15, 353609, Note_on_c, 13, 55, 0
15, 353640, Note_on_c, 13, 55, 44
15, 353729, Note_on_c, 13, 55, 0
15, 353760, Note_on_c, 13, 55, 44
15, 353849, Note_on_c, 13, 55, 0
15, 353880, Note_on_c, 13, 55, 44
15, 353969, Note_on_c, 13, 55, 0
15, 354000, Note_on_c, 13, 55, 44
15, 354089, Note_on_c, 13, 55, 0
15, 354120, Note_on_c, 13, 55, 44
15, 354209, Note_on_c, 13, 55, 0
15, 354240, Note_on_c, 13, 55, 44
15, 354329, Note_on_c, 13, 55, 0
15, 354360, Note_on_c, 13, 55, 44
15, 354449, Note_on_c, 13, 55, 0
15, 354480, Note_on_c, 13, 55, 44
15, 354569, Note_on_c, 13, 55, 0
15, 354600, Note_on_c, 13, 55, 44
15, 354689, Note_on_c, 13, 55, 0
15, 354720, Note_on_c, 13, 55, 44
15, 354809, Note_on_c, 13, 55, 0
15, 354840, Note_on_c, 13, 55, 44
15, 354929, Note_on_c, 13, 55, 0
15, 354960, Note_on_c, 13, 55, 44
15, 355049, Note_on_c, 13, 55, 0
15, 355080, Note_on_c, 13, 55, 44
15, 355169, Note_on_c, 13, 55, 0
15, 355200, Note_on_c, 13, 55, 44
15, 355289, Note_on_c, 13, 55, 0
15, 355320, Note_on_c, 13, 55, 44
15, 355409, Note_on_c, 13, 55, 0
15, 355440, Note_on_c, 13, 55, 44
15, 355529, Note_on_c, 13, 55, 0
15, 355560, Note_on_c, 13, 55, 44
15, 355649, Note_on_c, 13, 55, 0
15, 355680, Note_on_c, 13, 55, 44
15, 355769, Note_on_c, 13, 55, 0
15, 355800, Note_on_c, 13, 55, 44
15, 355889, Note_on_c, 13, 55, 0
15, 355920, Note_on_c, 13, 55, 44
15, 356009, Note_on_c, 13, 55, 0
15, 356040, Note_on_c, 13, 55, 44
15, 356129, Note_on_c, 13, 55, 0
15, 356160, Note_on_c, 13, 55, 44
15, 356249, Note_on_c, 13, 55, 0
15, 356280, Note_on_c, 13, 55, 44
15, 356369, Note_on_c, 13, 55, 0
15, 356400, Note_on_c, 13, 55, 44
15, 356489, Note_on_c, 13, 55, 0
15, 356520, Note_on_c, 13, 55, 44
15, 356609, Note_on_c, 13, 55, 0
15, 356640, Note_on_c, 13, 55, 44
15, 356729, Note_on_c, 13, 55, 0
15, 356760, Note_on_c, 13, 55, 44
15, 356849, Note_on_c, 13, 55, 0
15, 356880, Note_on_c, 13, 55, 44
15, 356969, Note_on_c, 13, 55, 0
15, 357000, Note_on_c, 13, 55, 44
15, 357089, Note_on_c, 13, 55, 0
15, 357120, Note_on_c, 13, 55, 44
15, 357209, Note_on_c, 13, 55, 0
15, 357240, Note_on_c, 13, 55, 44
15, 357329, Note_on_c, 13, 55, 0
15, 357360, Note_on_c, 13, 55, 44
15, 357449, Note_on_c, 13, 55, 0
15, 357480, Note_on_c, 13, 55, 44
15, 357569, Note_on_c, 13, 55, 0
15, 357600, Note_on_c, 13, 55, 44
15, 357689, Note_on_c, 13, 55, 0
15, 357720, Note_on_c, 13, 55, 44
15, 357809, Note_on_c, 13, 55, 0
15, 357840, Note_on_c, 13, 55, 44
15, 357929, Note_on_c, 13, 55, 0
15, 357960, Note_on_c, 13, 55, 44
15, 358049, Note_on_c, 13, 55, 0
15, 358080, Note_on_c, 13, 55, 44
15, 358169, Note_on_c, 13, 55, 0
15, 358200, Note_on_c, 13, 55, 44
15, 358289, Note_on_c, 13, 55, 0
15, 358320, Note_on_c, 13, 55, 44
15, 358409, Note_on_c, 13, 55, 0
15, 358440, Note_on_c, 13, 55, 44
15, 358529, Note_on_c, 13, 55, 0
15, 358560, Note_on_c, 13, 56, 84
15, 360449, Note_on_c, 13, 56, 0
15, 360480, Note_on_c, 13, 57, 84
15, 360569, Note_on_c, 13, 57, 0
15, 360600, Note_on_c, 13, 57, 84
15, 360689, Note_on_c, 13, 57, 0
15, 360720, Note_on_c, 13, 57, 84
15, 360809, Note_on_c, 13, 57, 0
15, 360840, Note_on_c, 13, 57, 84
15, 360929, Note_on_c, 13, 57, 0
15, 360960, Note_on_c, 13, 57, 84
15, 361049, Note_on_c, 13, 57, 0
15, 361080, Note_on_c, 13, 57, 84
15, 361169, Note_on_c, 13, 57, 0
15, 361200, Note_on_c, 13, 57, 84
15, 361289, Note_on_c, 13, 57, 0
15, 361320, Note_on_c, 13, 57, 84
15, 361409, Note_on_c, 13, 57, 0
15, 361440, Note_on_c, 13, 57, 84
15, 361529, Note_on_c, 13, 57, 0
15, 361560, Note_on_c, 13, 57, 84
15, 361649, Note_on_c, 13, 57, 0
15, 361680, Note_on_c, 13, 57, 84
15, 361769, Note_on_c, 13, 57, 0
15, 361800, Note_on_c, 13, 57, 84
15, 361889, Note_on_c, 13, 57, 0
15, 361920, Note_on_c, 13, 57, 84
15, 362009, Note_on_c, 13, 57, 0
15, 362040, Note_on_c, 13, 57, 84
15, 362129, Note_on_c, 13, 57, 0
15, 362160, Note_on_c, 13, 57, 84
15, 362249, Note_on_c, 13, 57, 0
15, 362280, Note_on_c, 13, 57, 84
15, 362369, Note_on_c, 13, 57, 0
15, 362400, Note_on_c, 13, 69, 92
15, 363569, Note_on_c, 13, 69, 0
15, 363600, Note_on_c, 13, 67, 84
15, 363689, Note_on_c, 13, 67, 0
15, 363720, Note_on_c, 13, 66, 84
15, 363809, Note_on_c, 13, 66, 0
15, 363840, Note_on_c, 13, 64, 84
15, 363929, Note_on_c, 13, 64, 0
15, 363960, Note_on_c, 13, 62, 84
15, 364049, Note_on_c, 13, 62, 0
15, 364080, Note_on_c, 13, 61, 84
15, 364169, Note_on_c, 13, 61, 0
15, 364200, Note_on_c, 13, 59, 84
15, 364289, Note_on_c, 13, 59, 0
15, 364320, Note_on_c, 13, 57, 92
15, 364409, Note_on_c, 13, 57, 0
15, 364440, Note_on_c, 13, 57, 84
15, 364529, Note_on_c, 13, 57, 0
15, 364560, Note_on_c, 13, 57, 84
15, 364649, Note_on_c, 13, 57, 0
15, 364680, Note_on_c, 13, 57, 84
15, 364769, Note_on_c, 13, 57, 0
15, 364800, Note_on_c, 13, 57, 84
15, 364889, Note_on_c, 13, 57, 0
15, 364920, Note_on_c, 13, 57, 84
15, 365009, Note_on_c, 13, 57, 0
15, 365040, Note_on_c, 13, 57, 84
15, 365129, Note_on_c, 13, 57, 0
15, 365160, Note_on_c, 13, 57, 84
15, 365249, Note_on_c, 13, 57, 0
15, 365280, Note_on_c, 13, 57, 84
15, 365369, Note_on_c, 13, 57, 0
15, 365400, Note_on_c, 13, 57, 84
15, 365489, Note_on_c, 13, 57, 0
15, 365520, Note_on_c, 13, 57, 84
15, 365609, Note_on_c, 13, 57, 0
15, 365640, Note_on_c, 13, 57, 84
15, 365729, Note_on_c, 13, 57, 0
15, 365760, Note_on_c, 13, 57, 84
15, 365849, Note_on_c, 13, 57, 0
15, 365880, Note_on_c, 13, 57, 84
15, 365969, Note_on_c, 13, 57, 0
15, 366000, Note_on_c, 13, 57, 84
15, 366089, Note_on_c, 13, 57, 0
15, 366120, Note_on_c, 13, 57, 84
15, 366209, Note_on_c, 13, 57, 0
15, 366240, Note_on_c, 13, 69, 92
15, 367289, Note_on_c, 13, 69, 0
15, 367320, Note_on_c, 13, 67, 84
15, 367409, Note_on_c, 13, 67, 0
15, 367440, Note_on_c, 13, 66, 84
15, 367529, Note_on_c, 13, 66, 0
15, 367560, Note_on_c, 13, 64, 84
15, 367649, Note_on_c, 13, 64, 0
15, 367680, Note_on_c, 13, 62, 84
15, 367769, Note_on_c, 13, 62, 0
15, 367800, Note_on_c, 13, 61, 84
15, 367889, Note_on_c, 13, 61, 0
15, 367920, Note_on_c, 13, 59, 84
15, 368009, Note_on_c, 13, 59, 0
15, 368040, Note_on_c, 13, 57, 84
15, 368129, Note_on_c, 13, 57, 0
15, 368160, Note_on_c, 13, 62, 84
15, 368399, Note_on_c, 13, 62, 0
15, 368640, Control_c, 13, 11, 112
15, 368920, Control_c, 13, 11, 113
15, 369000, Note_on_c, 13, 66, 84
15, 369119, Note_on_c, 13, 66, 0
15, 369120, Note_on_c, 13, 67, 84
15, 369200, Control_c, 13, 11, 115
15, 369359, Note_on_c, 13, 67, 0
15, 369480, Control_c, 13, 11, 116
15, 369760, Control_c, 13, 11, 117
15, 369960, Note_on_c, 13, 68, 84
15, 370040, Control_c, 13, 11, 118
15, 370079, Note_on_c, 13, 68, 0
15, 370080, Note_on_c, 13, 69, 84
15, 370319, Note_on_c, 13, 69, 0
15, 370320, Control_c, 13, 11, 120
15, 370600, Control_c, 13, 11, 121
15, 370880, Control_c, 13, 11, 122
15, 370920, Note_on_c, 13, 70, 84
15, 371039, Note_on_c, 13, 70, 0
15, 371040, Note_on_c, 13, 71, 84
15, 371160, Control_c, 13, 11, 123
15, 371279, Note_on_c, 13, 71, 0
15, 371440, Control_c, 13, 11, 125
15, 371720, Control_c, 13, 11, 127
15, 371880, Note_on_c, 13, 71, 84
15, 371999, Note_on_c, 13, 71, 0
15, 372000, Note_on_c, 13, 72, 84
15, 372089, Note_on_c, 13, 72, 0
15, 372120, Note_on_c, 13, 71, 84
15, 372209, Note_on_c, 13, 71, 0
15, 372240, Note_on_c, 13, 69, 84
15, 372329, Note_on_c, 13, 69, 0
15, 372360, Note_on_c, 13, 71, 84
15, 372449, Note_on_c, 13, 71, 0
15, 372480, Note_on_c, 13, 72, 84
15, 372569, Note_on_c, 13, 72, 0
15, 372600, Note_on_c, 13, 71, 84
15, 372689, Note_on_c, 13, 71, 0
15, 372720, Note_on_c, 13, 72, 84
15, 372809, Note_on_c, 13, 72, 0
15, 372840, Note_on_c, 13, 71, 84
15, 372929, Note_on_c, 13, 71, 0
15, 372960, Note_on_c, 13, 72, 84
15, 373049, Note_on_c, 13, 72, 0
15, 373080, Note_on_c, 13, 71, 84
15, 373169, Note_on_c, 13, 71, 0
15, 373200, Note_on_c, 13, 69, 84
15, 373289, Note_on_c, 13, 69, 0
15, 373320, Note_on_c, 13, 71, 84
15, 373409, Note_on_c, 13, 71, 0
15, 373440, Note_on_c, 13, 72, 84
15, 373529, Note_on_c, 13, 72, 0
15, 373560, Note_on_c, 13, 71, 84
15, 373649, Note_on_c, 13, 71, 0
15, 373680, Note_on_c, 13, 72, 84
15, 373769, Note_on_c, 13, 72, 0
15, 373800, Note_on_c, 13, 71, 84
15, 373889, Note_on_c, 13, 71, 0
15, 373920, Note_on_c, 13, 72, 84
15, 374009, Note_on_c, 13, 72, 0
15, 374040, Note_on_c, 13, 71, 84
15, 374129, Note_on_c, 13, 71, 0
15, 374160, Note_on_c, 13, 72, 84
15, 374249, Note_on_c, 13, 72, 0
15, 374280, Note_on_c, 13, 71, 84
15, 374369, Note_on_c, 13, 71, 0
15, 374400, Note_on_c, 13, 72, 84
15, 374489, Note_on_c, 13, 72, 0
15, 374520, Note_on_c, 13, 71, 84
15, 374609, Note_on_c, 13, 71, 0
15, 374640, Note_on_c, 13, 72, 84
15, 374729, Note_on_c, 13, 72, 0
15, 374760, Note_on_c, 13, 71, 84
15, 374849, Note_on_c, 13, 71, 0
15, 374880, Note_on_c, 13, 72, 84
15, 374969, Note_on_c, 13, 72, 0
15, 375000, Note_on_c, 13, 71, 84
15, 375089, Note_on_c, 13, 71, 0
15, 375120, Note_on_c, 13, 69, 84
15, 375209, Note_on_c, 13, 69, 0
15, 375240, Note_on_c, 13, 67, 84
15, 375329, Note_on_c, 13, 67, 0
15, 375360, Note_on_c, 13, 66, 84
15, 375449, Note_on_c, 13, 66, 0
15, 375480, Note_on_c, 13, 64, 84
15, 375569, Note_on_c, 13, 64, 0
15, 375600, Note_on_c, 13, 62, 84
15, 375689, Note_on_c, 13, 62, 0
15, 375720, Note_on_c, 13, 60, 84
15, 375809, Note_on_c, 13, 60, 0
15, 375840, Note_on_c, 13, 59, 92
15, 375929, Note_on_c, 13, 59, 0
15, 375960, Note_on_c, 13, 59, 84
15, 376049, Note_on_c, 13, 59, 0
15, 376080, Note_on_c, 13, 59, 84
15, 376169, Note_on_c, 13, 59, 0
15, 376200, Note_on_c, 13, 59, 84
15, 376289, Note_on_c, 13, 59, 0
15, 376320, Note_on_c, 13, 59, 84
15, 376409, Note_on_c, 13, 59, 0
15, 376440, Note_on_c, 13, 59, 84
15, 376529, Note_on_c, 13, 59, 0
15, 376560, Note_on_c, 13, 59, 84
15, 376649, Note_on_c, 13, 59, 0
15, 376680, Note_on_c, 13, 59, 84
15, 376769, Note_on_c, 13, 59, 0
15, 376800, Note_on_c, 13, 58, 92
15, 376889, Note_on_c, 13, 58, 0
15, 376920, Note_on_c, 13, 58, 84
15, 377009, Note_on_c, 13, 58, 0
15, 377040, Note_on_c, 13, 58, 84
15, 377129, Note_on_c, 13, 58, 0
15, 377160, Note_on_c, 13, 58, 84
15, 377249, Note_on_c, 13, 58, 0
15, 377280, Note_on_c, 13, 58, 84
15, 377369, Note_on_c, 13, 58, 0
15, 377400, Note_on_c, 13, 58, 84
15, 377489, Note_on_c, 13, 58, 0
15, 377520, Note_on_c, 13, 58, 84
15, 377609, Note_on_c, 13, 58, 0
15, 377640, Note_on_c, 13, 58, 84
15, 377729, Note_on_c, 13, 58, 0
15, 377760, Note_on_c, 13, 57, 92
15, 377849, Note_on_c, 13, 57, 0
15, 377880, Note_on_c, 13, 57, 84
15, 377969, Note_on_c, 13, 57, 0
15, 378000, Note_on_c, 13, 57, 84
15, 378089, Note_on_c, 13, 57, 0
15, 378120, Note_on_c, 13, 57, 84
15, 378209, Note_on_c, 13, 57, 0
15, 378240, Note_on_c, 13, 57, 84
15, 378329, Note_on_c, 13, 57, 0
15, 378360, Note_on_c, 13, 57, 84
15, 378449, Note_on_c, 13, 57, 0
15, 378480, Note_on_c, 13, 57, 84
15, 378569, Note_on_c, 13, 57, 0
15, 378600, Note_on_c, 13, 57, 84
15, 378689, Note_on_c, 13, 57, 0
15, 378720, Note_on_c, 13, 57, 92
15, 378809, Note_on_c, 13, 57, 0
15, 378840, Note_on_c, 13, 57, 84
15, 378929, Note_on_c, 13, 57, 0
15, 378960, Note_on_c, 13, 57, 84
15, 379049, Note_on_c, 13, 57, 0
15, 379080, Note_on_c, 13, 57, 84
15, 379169, Note_on_c, 13, 57, 0
15, 379200, Note_on_c, 13, 57, 84
15, 379289, Note_on_c, 13, 57, 0
15, 379320, Note_on_c, 13, 57, 84
15, 379409, Note_on_c, 13, 57, 0
15, 379440, Note_on_c, 13, 57, 84
15, 379529, Note_on_c, 13, 57, 0
15, 379560, Note_on_c, 13, 57, 84
15, 379649, Note_on_c, 13, 57, 0
15, 379680, Note_on_c, 13, 72, 84
15, 379769, Note_on_c, 13, 72, 0
15, 379800, Note_on_c, 13, 71, 84
15, 379889, Note_on_c, 13, 71, 0
15, 379920, Note_on_c, 13, 69, 84
15, 380009, Note_on_c, 13, 69, 0
15, 380040, Note_on_c, 13, 71, 84
15, 380129, Note_on_c, 13, 71, 0
15, 380160, Note_on_c, 13, 72, 84
15, 380249, Note_on_c, 13, 72, 0
15, 380280, Note_on_c, 13, 71, 84
15, 380369, Note_on_c, 13, 71, 0
15, 380400, Note_on_c, 13, 72, 84
15, 380489, Note_on_c, 13, 72, 0
15, 380520, Note_on_c, 13, 71, 84
15, 380609, Note_on_c, 13, 71, 0
15, 380640, Note_on_c, 13, 72, 84
15, 380729, Note_on_c, 13, 72, 0
15, 380760, Note_on_c, 13, 71, 84
15, 380849, Note_on_c, 13, 71, 0
15, 380880, Note_on_c, 13, 69, 84
15, 380969, Note_on_c, 13, 69, 0
15, 381000, Note_on_c, 13, 71, 84
15, 381089, Note_on_c, 13, 71, 0
15, 381120, Note_on_c, 13, 72, 84
15, 381209, Note_on_c, 13, 72, 0
15, 381240, Note_on_c, 13, 71, 84
15, 381329, Note_on_c, 13, 71, 0
15, 381360, Note_on_c, 13, 72, 84
15, 381449, Note_on_c, 13, 72, 0
15, 381480, Note_on_c, 13, 71, 84
15, 381569, Note_on_c, 13, 71, 0
15, 381600, Note_on_c, 13, 72, 84
15, 381689, Note_on_c, 13, 72, 0
15, 381720, Note_on_c, 13, 71, 84
15, 381809, Note_on_c, 13, 71, 0
15, 381840, Note_on_c, 13, 72, 84
15, 381929, Note_on_c, 13, 72, 0
15, 381960, Note_on_c, 13, 71, 84
15, 382049, Note_on_c, 13, 71, 0
15, 382080, Note_on_c, 13, 72, 84
15, 382169, Note_on_c, 13, 72, 0
15, 382200, Note_on_c, 13, 71, 84
15, 382289, Note_on_c, 13, 71, 0
15, 382320, Note_on_c, 13, 72, 84
15, 382409, Note_on_c, 13, 72, 0
15, 382440, Note_on_c, 13, 71, 84
15, 382529, Note_on_c, 13, 71, 0
15, 382560, Note_on_c, 13, 72, 84
15, 382649, Note_on_c, 13, 72, 0
15, 382680, Note_on_c, 13, 71, 84
15, 382769, Note_on_c, 13, 71, 0
15, 382800, Note_on_c, 13, 69, 84
15, 382889, Note_on_c, 13, 69, 0
15, 382920, Note_on_c, 13, 67, 84
15, 383009, Note_on_c, 13, 67, 0
15, 383040, Note_on_c, 13, 66, 84
15, 383129, Note_on_c, 13, 66, 0
15, 383160, Note_on_c, 13, 64, 84
15, 383249, Note_on_c, 13, 64, 0
15, 383280, Note_on_c, 13, 62, 84
15, 383369, Note_on_c, 13, 62, 0
15, 383400, Note_on_c, 13, 60, 84
15, 383489, Note_on_c, 13, 60, 0
15, 383520, Note_on_c, 13, 59, 92
15, 383609, Note_on_c, 13, 59, 0
15, 383640, Note_on_c, 13, 71, 84
15, 383729, Note_on_c, 13, 71, 0
15, 383760, Note_on_c, 13, 71, 84
15, 383849, Note_on_c, 13, 71, 0
15, 383880, Note_on_c, 13, 71, 84
15, 383969, Note_on_c, 13, 71, 0
15, 384000, Note_on_c, 13, 71, 84
15, 384089, Note_on_c, 13, 71, 0
15, 384120, Note_on_c, 13, 71, 84
15, 384209, Note_on_c, 13, 71, 0
15, 384240, Note_on_c, 13, 71, 84
15, 384329, Note_on_c, 13, 71, 0
15, 384360, Note_on_c, 13, 71, 84
15, 384449, Note_on_c, 13, 71, 0
15, 384480, Note_on_c, 13, 69, 84
15, 384569, Note_on_c, 13, 69, 0
15, 384600, Note_on_c, 13, 69, 84
15, 384689, Note_on_c, 13, 69, 0
15, 384720, Note_on_c, 13, 69, 84
15, 384809, Note_on_c, 13, 69, 0
15, 384840, Note_on_c, 13, 69, 84
15, 384929, Note_on_c, 13, 69, 0
15, 384960, Note_on_c, 13, 69, 84
15, 385049, Note_on_c, 13, 69, 0
15, 385080, Note_on_c, 13, 69, 84
15, 385169, Note_on_c, 13, 69, 0
15, 385200, Note_on_c, 13, 69, 84
15, 385289, Note_on_c, 13, 69, 0
15, 385320, Note_on_c, 13, 69, 84
15, 385409, Note_on_c, 13, 69, 0
15, 385440, Note_on_c, 13, 67, 84
15, 385529, Note_on_c, 13, 67, 0
15, 385560, Note_on_c, 13, 67, 84
15, 385649, Note_on_c, 13, 67, 0
15, 385680, Note_on_c, 13, 67, 84
15, 385769, Note_on_c, 13, 67, 0
15, 385800, Note_on_c, 13, 67, 84
15, 385889, Note_on_c, 13, 67, 0
15, 385920, Note_on_c, 13, 64, 84
15, 386009, Note_on_c, 13, 64, 0
15, 386040, Note_on_c, 13, 64, 84
15, 386129, Note_on_c, 13, 64, 0
15, 386160, Note_on_c, 13, 64, 84
15, 386249, Note_on_c, 13, 64, 0
15, 386280, Note_on_c, 13, 64, 84
15, 386369, Note_on_c, 13, 64, 0
15, 386400, Note_on_c, 13, 69, 84
15, 386489, Note_on_c, 13, 69, 0
15, 386520, Note_on_c, 13, 69, 84
15, 386609, Note_on_c, 13, 69, 0
15, 386640, Note_on_c, 13, 69, 84
15, 386729, Note_on_c, 13, 69, 0
15, 386760, Note_on_c, 13, 69, 84
15, 386849, Note_on_c, 13, 69, 0
15, 386880, Note_on_c, 13, 57, 84
15, 386969, Note_on_c, 13, 57, 0
15, 387000, Note_on_c, 13, 57, 84
15, 387089, Note_on_c, 13, 57, 0
15, 387120, Note_on_c, 13, 57, 84
15, 387209, Note_on_c, 13, 57, 0
15, 387240, Note_on_c, 13, 57, 84
15, 387329, Note_on_c, 13, 57, 0
15, 387360, Note_on_c, 13, 54, 52
15, 387449, Note_on_c, 13, 54, 0
15, 387480, Note_on_c, 13, 54, 52
15, 387569, Note_on_c, 13, 54, 0
15, 387600, Note_on_c, 13, 57, 52
15, 387689, Note_on_c, 13, 57, 0
15, 387720, Note_on_c, 13, 57, 52
15, 387809, Note_on_c, 13, 57, 0
15, 387840, Note_on_c, 13, 62, 52
15, 387929, Note_on_c, 13, 62, 0
15, 387960, Note_on_c, 13, 62, 52
15, 388049, Note_on_c, 13, 62, 0
15, 388080, Note_on_c, 13, 57, 52
15, 388169, Note_on_c, 13, 57, 0
15, 388200, Note_on_c, 13, 57, 52
15, 388289, Note_on_c, 13, 57, 0
15, 388320, Note_on_c, 13, 54, 52
15, 388409, Note_on_c, 13, 54, 0
15, 388440, Note_on_c, 13, 54, 52
15, 388529, Note_on_c, 13, 54, 0
15, 388560, Note_on_c, 13, 57, 52
15, 388649, Note_on_c, 13, 57, 0
15, 388680, Note_on_c, 13, 57, 52
15, 388769, Note_on_c, 13, 57, 0
15, 388800, Note_on_c, 13, 62, 52
15, 388889, Note_on_c, 13, 62, 0
15, 388920, Note_on_c, 13, 62, 52
15, 389009, Note_on_c, 13, 62, 0
15, 389040, Note_on_c, 13, 54, 52
15, 389129, Note_on_c, 13, 54, 0
15, 389160, Note_on_c, 13, 54, 52
15, 389249, Note_on_c, 13, 54, 0
15, 389280, Note_on_c, 13, 55, 52
15, 389369, Note_on_c, 13, 55, 0
15, 389400, Note_on_c, 13, 55, 52
15, 389489, Note_on_c, 13, 55, 0
15, 389520, Note_on_c, 13, 57, 52
15, 389609, Note_on_c, 13, 57, 0
15, 389640, Note_on_c, 13, 57, 52
15, 389729, Note_on_c, 13, 57, 0
15, 389760, Note_on_c, 13, 64, 52
15, 389849, Note_on_c, 13, 64, 0
15, 389880, Note_on_c, 13, 64, 52
15, 389969, Note_on_c, 13, 64, 0
15, 390000, Note_on_c, 13, 57, 52
15, 390089, Note_on_c, 13, 57, 0
15, 390120, Note_on_c, 13, 57, 52
15, 390209, Note_on_c, 13, 57, 0
15, 390240, Note_on_c, 13, 55, 52
15, 390329, Note_on_c, 13, 55, 0
15, 390360, Note_on_c, 13, 55, 52
15, 390449, Note_on_c, 13, 55, 0
15, 390480, Note_on_c, 13, 64, 52
15, 390569, Note_on_c, 13, 64, 0
15, 390600, Note_on_c, 13, 64, 52
15, 390689, Note_on_c, 13, 64, 0
15, 390720, Note_on_c, 13, 57, 52
15, 390809, Note_on_c, 13, 57, 0
15, 390840, Note_on_c, 13, 57, 52
15, 390929, Note_on_c, 13, 57, 0
15, 390960, Note_on_c, 13, 55, 52
15, 391049, Note_on_c, 13, 55, 0
15, 391080, Note_on_c, 13, 55, 52
15, 391169, Note_on_c, 13, 55, 0
15, 391200, Note_on_c, 13, 54, 52
15, 391289, Note_on_c, 13, 54, 0
15, 391320, Note_on_c, 13, 54, 52
15, 391409, Note_on_c, 13, 54, 0
15, 391440, Note_on_c, 13, 57, 52
15, 391529, Note_on_c, 13, 57, 0
15, 391560, Note_on_c, 13, 57, 52
15, 391649, Note_on_c, 13, 57, 0
15, 391680, Note_on_c, 13, 62, 52
15, 391769, Note_on_c, 13, 62, 0
15, 391800, Note_on_c, 13, 62, 52
15, 391889, Note_on_c, 13, 62, 0
15, 391920, Note_on_c, 13, 57, 52
15, 392009, Note_on_c, 13, 57, 0
15, 392040, Note_on_c, 13, 57, 52
15, 392129, Note_on_c, 13, 57, 0
15, 392160, Note_on_c, 13, 54, 52
15, 392249, Note_on_c, 13, 54, 0
15, 392280, Note_on_c, 13, 54, 52
15, 392369, Note_on_c, 13, 54, 0
15, 392400, Note_on_c, 13, 57, 52
15, 392489, Note_on_c, 13, 57, 0
15, 392520, Note_on_c, 13, 57, 52
15, 392609, Note_on_c, 13, 57, 0
15, 392640, Note_on_c, 13, 62, 52
15, 392729, Note_on_c, 13, 62, 0
15, 392760, Note_on_c, 13, 62, 52
15, 392849, Note_on_c, 13, 62, 0
15, 392880, Note_on_c, 13, 54, 52
15, 392969, Note_on_c, 13, 54, 0
15, 393000, Note_on_c, 13, 54, 52
15, 393089, Note_on_c, 13, 54, 0
15, 393120, Note_on_c, 13, 55, 52
15, 393209, Note_on_c, 13, 55, 0
15, 393240, Note_on_c, 13, 55, 52
15, 393329, Note_on_c, 13, 55, 0
15, 393360, Note_on_c, 13, 57, 52
15, 393449, Note_on_c, 13, 57, 0
15, 393480, Note_on_c, 13, 57, 52
15, 393569, Note_on_c, 13, 57, 0
15, 393600, Note_on_c, 13, 64, 52
15, 393689, Note_on_c, 13, 64, 0
15, 393720, Note_on_c, 13, 64, 52
15, 393809, Note_on_c, 13, 64, 0
15, 393840, Note_on_c, 13, 57, 52
15, 393929, Note_on_c, 13, 57, 0
15, 393960, Note_on_c, 13, 57, 52
15, 394049, Note_on_c, 13, 57, 0
15, 394080, Note_on_c, 13, 55, 52
15, 394169, Note_on_c, 13, 55, 0
15, 394200, Note_on_c, 13, 55, 52
15, 394289, Note_on_c, 13, 55, 0
15, 394320, Note_on_c, 13, 64, 52
15, 394409, Note_on_c, 13, 64, 0
15, 394440, Note_on_c, 13, 64, 52
15, 394529, Note_on_c, 13, 64, 0
15, 394560, Note_on_c, 13, 57, 52
15, 394649, Note_on_c, 13, 57, 0
15, 394680, Note_on_c, 13, 57, 52
15, 394769, Note_on_c, 13, 57, 0
15, 394800, Note_on_c, 13, 55, 52
15, 394889, Note_on_c, 13, 55, 0
15, 394920, Note_on_c, 13, 55, 52
15, 395009, Note_on_c, 13, 55, 0
15, 395040, Note_on_c, 13, 54, 52
15, 395129, Note_on_c, 13, 54, 0
15, 395160, Note_on_c, 13, 54, 52
15, 395249, Note_on_c, 13, 54, 0
15, 395280, Note_on_c, 13, 62, 52
15, 395369, Note_on_c, 13, 62, 0
15, 395400, Note_on_c, 13, 62, 52
15, 395489, Note_on_c, 13, 62, 0
15, 395520, Note_on_c, 13, 57, 52
15, 395609, Note_on_c, 13, 57, 0
15, 395640, Note_on_c, 13, 57, 52
15, 395729, Note_on_c, 13, 57, 0
15, 395760, Note_on_c, 13, 54, 53
15, 395849, Note_on_c, 13, 54, 0
15, 395880, Note_on_c, 13, 54, 54
15, 395969, Note_on_c, 13, 54, 0
15, 396000, Note_on_c, 13, 55, 55
15, 396089, Note_on_c, 13, 55, 0
15, 396120, Note_on_c, 13, 55, 56
15, 396209, Note_on_c, 13, 55, 0
15, 396240, Note_on_c, 13, 64, 57
15, 396329, Note_on_c, 13, 64, 0
15, 396360, Note_on_c, 13, 64, 58
15, 396449, Note_on_c, 13, 64, 0
15, 396480, Note_on_c, 13, 57, 58
15, 396569, Note_on_c, 13, 57, 0
15, 396600, Note_on_c, 13, 57, 59
15, 396689, Note_on_c, 13, 57, 0
15, 396720, Note_on_c, 13, 55, 60
15, 396809, Note_on_c, 13, 55, 0
15, 396840, Note_on_c, 13, 55, 61
15, 396929, Note_on_c, 13, 55, 0
15, 396960, Note_on_c, 13, 54, 62
15, 397049, Note_on_c, 13, 54, 0
15, 397080, Note_on_c, 13, 54, 63
15, 397169, Note_on_c, 13, 54, 0
15, 397200, Note_on_c, 13, 62, 64
15, 397289, Note_on_c, 13, 62, 0
15, 397320, Note_on_c, 13, 62, 64
15, 397409, Note_on_c, 13, 62, 0
15, 397440, Note_on_c, 13, 57, 65
15, 397529, Note_on_c, 13, 57, 0
15, 397560, Note_on_c, 13, 57, 66
15, 397649, Note_on_c, 13, 57, 0
15, 397680, Note_on_c, 13, 54, 67
15, 397769, Note_on_c, 13, 54, 0
15, 397800, Note_on_c, 13, 54, 68
15, 397889, Note_on_c, 13, 54, 0
15, 397920, Note_on_c, 13, 55, 69
15, 398009, Note_on_c, 13, 55, 0
15, 398040, Note_on_c, 13, 55, 70
15, 398129, Note_on_c, 13, 55, 0
15, 398160, Note_on_c, 13, 64, 70
15, 398249, Note_on_c, 13, 64, 0
15, 398280, Note_on_c, 13, 64, 71
15, 398369, Note_on_c, 13, 64, 0
15, 398400, Note_on_c, 13, 57, 72
15, 398489, Note_on_c, 13, 57, 0
15, 398520, Note_on_c, 13, 57, 73
15, 398609, Note_on_c, 13, 57, 0
15, 398640, Note_on_c, 13, 55, 74
15, 398729, Note_on_c, 13, 55, 0
15, 398760, Note_on_c, 13, 55, 75
15, 398849, Note_on_c, 13, 55, 0
15, 398880, Note_on_c, 13, 54, 76
15, 399119, Note_on_c, 13, 54, 0
15, 399360, Note_on_c, 13, 54, 84
15, 400739, Note_on_c, 13, 54, 0
15, 400800, Note_on_c, 13, 58, 44
15, 400979, Note_on_c, 13, 58, 0
15, 401040, Note_on_c, 13, 58, 44
15, 401219, Note_on_c, 13, 58, 0
15, 401520, Note_on_c, 13, 58, 44
15, 401699, Note_on_c, 13, 58, 0
15, 402000, Note_on_c, 13, 59, 44
15, 402179, Note_on_c, 13, 59, 0
15, 402480, Note_on_c, 13, 58, 44
15, 402659, Note_on_c, 13, 58, 0
15, 402720, Note_on_c, 13, 59, 44
15, 402899, Note_on_c, 13, 59, 0
15, 404640, Note_on_c, 13, 59, 44
15, 404819, Note_on_c, 13, 59, 0
15, 404880, Note_on_c, 13, 59, 44
15, 405059, Note_on_c, 13, 59, 0
15, 405360, Note_on_c, 13, 59, 44
15, 405539, Note_on_c, 13, 59, 0
15, 405840, Note_on_c, 13, 58, 44
15, 406019, Note_on_c, 13, 58, 0
15, 406320, Note_on_c, 13, 58, 44
15, 406499, Note_on_c, 13, 58, 0
15, 406560, Note_on_c, 13, 57, 44
15, 406739, Note_on_c, 13, 57, 0
15, 408360, Note_on_c, 13, 61, 84
15, 408479, Note_on_c, 13, 61, 0
15, 408480, Note_on_c, 13, 62, 84
15, 408659, Note_on_c, 13, 62, 0
15, 410280, Note_on_c, 13, 61, 84
15, 410399, Note_on_c, 13, 61, 0
15, 410400, Note_on_c, 13, 62, 84
15, 410579, Note_on_c, 13, 62, 0
15, 412200, Note_on_c, 13, 61, 84
15, 412319, Note_on_c, 13, 61, 0
15, 412320, Note_on_c, 13, 62, 84
15, 412499, Note_on_c, 13, 62, 0
15, 413280, Note_on_c, 13, 62, 84
15, 413459, Note_on_c, 13, 62, 0
15, 414240, Note_on_c, 13, 62, 84
15, 414419, Note_on_c, 13, 62, 0
15, 414960, Note_on_c, 13, 57, 84
15, 415139, Note_on_c, 13, 57, 0
15, 415200, Note_on_c, 13, 62, 84
15, 415379, Note_on_c, 13, 62, 0
15, 415440, Note_on_c, 13, 57, 84
15, 415619, Note_on_c, 13, 57, 0
15, 415680, Note_on_c, 13, 62, 84
15, 415859, Note_on_c, 13, 62, 0
15, 415920, Note_on_c, 13, 57, 84
15, 416099, Note_on_c, 13, 57, 0
15, 416160, Note_on_c, 13, 62, 84
15, 416249, Note_on_c, 13, 62, 0
15, 416280, Note_on_c, 13, 62, 84
15, 416369, Note_on_c, 13, 62, 0
15, 416400, Note_on_c, 13, 69, 84
15, 416489, Note_on_c, 13, 69, 0
15, 416520, Note_on_c, 13, 69, 84
15, 416609, Note_on_c, 13, 69, 0
15, 416640, Note_on_c, 13, 74, 84
15, 416729, Note_on_c, 13, 74, 0
15, 416760, Note_on_c, 13, 74, 84
15, 416849, Note_on_c, 13, 74, 0
15, 416880, Note_on_c, 13, 69, 84
15, 416969, Note_on_c, 13, 69, 0
15, 417000, Note_on_c, 13, 69, 84
15, 417089, Note_on_c, 13, 69, 0
15, 417120, Note_on_c, 13, 74, 84
15, 417209, Note_on_c, 13, 74, 0
15, 417240, Note_on_c, 13, 74, 84
15, 417329, Note_on_c, 13, 74, 0
15, 417360, Note_on_c, 13, 69, 84
15, 417449, Note_on_c, 13, 69, 0
15, 417480, Note_on_c, 13, 69, 84
15, 417569, Note_on_c, 13, 69, 0
15, 417600, Note_on_c, 13, 74, 84
15, 417689, Note_on_c, 13, 74, 0
15, 417720, Note_on_c, 13, 74, 84
15, 417809, Note_on_c, 13, 74, 0
15, 417840, Note_on_c, 13, 69, 84
15, 417929, Note_on_c, 13, 69, 0
15, 417960, Note_on_c, 13, 69, 84
15, 418049, Note_on_c, 13, 69, 0
15, 418080, Note_on_c, 13, 74, 84
15, 418319, Note_on_c, 13, 74, 0
15, 419040, Note_on_c, 13, 74, 84
15, 419219, Note_on_c, 13, 74, 0
15, 419280, Note_on_c, 13, 73, 84
15, 419399, Note_on_c, 13, 73, 0
15, 419400, Note_on_c, 13, 71, 84
15, 419519, Note_on_c, 13, 71, 0
15, 419520, Note_on_c, 13, 69, 84
15, 419639, Note_on_c, 13, 69, 0
15, 419640, Note_on_c, 13, 67, 84
15, 419759, Note_on_c, 13, 67, 0
15, 419760, Note_on_c, 13, 66, 84
15, 419879, Note_on_c, 13, 66, 0
15, 419880, Note_on_c, 13, 64, 84
15, 419969, Note_on_c, 13, 64, 0
15, 420000, Note_on_c, 13, 62, 84
15, 420119, Note_on_c, 13, 62, 0
15, 420120, Note_on_c, 13, 61, 84
15, 420239, Note_on_c, 13, 61, 0
15, 420240, Note_on_c, 13, 62, 84
15, 420359, Note_on_c, 13, 62, 0
15, 420360, Note_on_c, 13, 61, 84
15, 420479, Note_on_c, 13, 61, 0
15, 420480, Note_on_c, 13, 62, 84
15, 420599, Note_on_c, 13, 62, 0
15, 420600, Note_on_c, 13, 61, 84
15, 420719, Note_on_c, 13, 61, 0
15, 420720, Note_on_c, 13, 62, 84
15, 420839, Note_on_c, 13, 62, 0
15, 420840, Note_on_c, 13, 61, 84
15, 420929, Note_on_c, 13, 61, 0
15, 420960, Note_on_c, 13, 62, 84
15, 421079, Note_on_c, 13, 62, 0
15, 421080, Note_on_c, 13, 61, 84
15, 421199, Note_on_c, 13, 61, 0
15, 421200, Note_on_c, 13, 62, 84
15, 421319, Note_on_c, 13, 62, 0
15, 421320, Note_on_c, 13, 61, 84
15, 421439, Note_on_c, 13, 61, 0
15, 421440, Note_on_c, 13, 62, 84
15, 421559, Note_on_c, 13, 62, 0
15, 421560, Note_on_c, 13, 61, 84
15, 421679, Note_on_c, 13, 61, 0
15, 421680, Note_on_c, 13, 62, 84
15, 421799, Note_on_c, 13, 62, 0
15, 421800, Note_on_c, 13, 61, 84
15, 421889, Note_on_c, 13, 61, 0
15, 421920, Note_on_c, 13, 62, 84
15, 422159, Note_on_c, 13, 62, 0
15, 422880, Note_on_c, 13, 74, 84
15, 422880, Note_on_c, 13, 66, 84
15, 422880, Note_on_c, 13, 57, 84
15, 423119, Note_on_c, 13, 74, 0
15, 423119, Note_on_c, 13, 66, 0
15, 423119, Note_on_c, 13, 57, 0
15, 423360, Note_on_c, 13, 74, 84
15, 423360, Note_on_c, 13, 66, 84
15, 423360, Note_on_c, 13, 57, 84
15, 423599, Note_on_c, 13, 74, 0
15, 423599, Note_on_c, 13, 66, 0
15, 423599, Note_on_c, 13, 57, 0
15, 423840, Note_on_c, 13, 74, 84
15, 423840, Note_on_c, 13, 66, 84
15, 423840, Note_on_c, 13, 57, 84
15, 424079, Note_on_c, 13, 74, 0
15, 424079, Note_on_c, 13, 66, 0
15, 424079, Note_on_c, 13, 57, 0
15, 424800, Note_on_c, 13, 66, 84
15, 424800, Note_on_c, 13, 57, 84
15, 424800, Note_on_c, 13, 50, 84
15, 425039, Note_on_c, 13, 66, 0
15, 425039, Note_on_c, 13, 57, 0
15, 425039, Note_on_c, 13, 50, 0
15, 425760, Note_on_c, 13, 50, 84
15, 425999, Note_on_c, 13, 50, 0
15, 425999, End_track
16, 0, Start_track
16, 0, Title_t, "Cello"
16, 0, MIDI_port, 0
16, 0, Program_c, 14, 48
16, 0, Control_c, 14, 7, 96
16, 0, Control_c, 14, 10, 90
16, 0, Control_c, 14, 11, 127
16, 840, Note_on_c, 14, 49, 76
16, 929, Note_on_c, 14, 49, 0
16, 960, Note_on_c, 14, 49, 84
16, 1019, Note_on_c, 14, 49, 0
16, 1020, Note_on_c, 14, 50, 76
16, 1079, Note_on_c, 14, 50, 0
16, 1080, Note_on_c, 14, 49, 76
16, 1139, Note_on_c, 14, 49, 0
16, 1140, Note_on_c, 14, 50, 76
16, 1199, Note_on_c, 14, 50, 0
16, 1200, Note_on_c, 14, 49, 76
16, 1259, Note_on_c, 14, 49, 0
16, 1260, Note_on_c, 14, 50, 76
16, 1319, Note_on_c, 14, 50, 0
16, 1320, Note_on_c, 14, 47, 76
16, 1379, Note_on_c, 14, 47, 0
16, 1380, Note_on_c, 14, 49, 76
16, 1424, Note_on_c, 14, 49, 0
16, 1440, Note_on_c, 14, 52, 76
16, 1619, Note_on_c, 14, 52, 0
16, 1680, Note_on_c, 14, 45, 76
16, 1859, Note_on_c, 14, 45, 0
16, 2160, Note_on_c, 14, 67, 52
16, 2399, Note_on_c, 14, 67, 0
16, 2400, Note_on_c, 14, 66, 52
16, 2879, Note_on_c, 14, 66, 0
16, 2880, Note_on_c, 14, 61, 52
16, 3329, Note_on_c, 14, 61, 0
16, 3360, Note_on_c, 14, 62, 52
16, 3839, Note_on_c, 14, 62, 0
16, 3840, Note_on_c, 14, 55, 52
16, 4319, Note_on_c, 14, 55, 0
16, 4320, Note_on_c, 14, 57, 52
16, 4799, Note_on_c, 14, 57, 0
16, 4800, Note_on_c, 14, 45, 52
16, 5249, Note_on_c, 14, 45, 0
16, 5280, Note_on_c, 14, 50, 76
16, 5459, Note_on_c, 14, 50, 0
16, 5520, Note_on_c, 14, 45, 76
16, 5699, Note_on_c, 14, 45, 0
16, 6600, Note_on_c, 14, 49, 84
16, 6689, Note_on_c, 14, 49, 0
16, 6720, Note_on_c, 14, 49, 92
16, 6779, Note_on_c, 14, 49, 0
16, 6780, Note_on_c, 14, 50, 84
16, 6839, Note_on_c, 14, 50, 0
16, 6840, Note_on_c, 14, 49, 84
16, 6899, Note_on_c, 14, 49, 0
16, 6900, Note_on_c, 14, 50, 84
16, 6959, Note_on_c, 14, 50, 0
16, 6960, Note_on_c, 14, 49, 84
16, 7019, Note_on_c, 14, 49, 0
16, 7020, Note_on_c, 14, 50, 84
16, 7079, Note_on_c, 14, 50, 0
16, 7080, Note_on_c, 14, 47, 84
16, 7139, Note_on_c, 14, 47, 0
16, 7140, Note_on_c, 14, 49, 84
16, 7184, Note_on_c, 14, 49, 0
16, 7200, Note_on_c, 14, 52, 84
16, 7379, Note_on_c, 14, 52, 0
16, 7440, Note_on_c, 14, 45, 84
16, 7619, Note_on_c, 14, 45, 0
16, 7920, Note_on_c, 14, 67, 52
16, 8159, Note_on_c, 14, 67, 0
16, 8160, Note_on_c, 14, 66, 52
16, 8639, Note_on_c, 14, 66, 0
16, 8640, Note_on_c, 14, 61, 52
16, 9089, Note_on_c, 14, 61, 0
16, 9120, Note_on_c, 14, 62, 52
16, 9599, Note_on_c, 14, 62, 0
16, 9600, Note_on_c, 14, 55, 52
16, 10079, Note_on_c, 14, 55, 0
16, 10080, Note_on_c, 14, 57, 52
16, 10559, Note_on_c, 14, 57, 0
16, 10560, Note_on_c, 14, 45, 52
16, 11009, Note_on_c, 14, 45, 0
16, 11040, Note_on_c, 14, 50, 76
16, 11279, Note_on_c, 14, 50, 0
16, 11880, Note_on_c, 14, 54, 76
16, 11969, Note_on_c, 14, 54, 0
16, 12000, Note_on_c, 14, 55, 76
16, 12179, Note_on_c, 14, 55, 0
16, 12240, Note_on_c, 14, 57, 76
16, 12419, Note_on_c, 14, 57, 0
16, 12480, Note_on_c, 14, 59, 76
16, 12659, Note_on_c, 14, 59, 0
16, 12720, Note_on_c, 14, 56, 76
16, 12899, Note_on_c, 14, 56, 0
16, 12960, Note_on_c, 14, 57, 76
16, 13199, Note_on_c, 14, 57, 0
16, 13800, Note_on_c, 14, 58, 76
16, 13889, Note_on_c, 14, 58, 0
16, 13920, Note_on_c, 14, 59, 76
16, 14099, Note_on_c, 14, 59, 0
16, 14160, Note_on_c, 14, 54, 76
16, 14339, Note_on_c, 14, 54, 0
16, 14400, Note_on_c, 14, 55, 76
16, 14579, Note_on_c, 14, 55, 0
16, 14640, Note_on_c, 14, 52, 76
16, 14819, Note_on_c, 14, 52, 0
16, 14880, Note_on_c, 14, 50, 84
16, 15119, Note_on_c, 14, 50, 0
16, 15600, Note_on_c, 14, 54, 76
16, 15779, Note_on_c, 14, 54, 0
16, 15840, Note_on_c, 14, 55, 76
16, 16019, Note_on_c, 14, 55, 0
16, 16080, Note_on_c, 14, 57, 76
16, 16259, Note_on_c, 14, 57, 0
16, 16320, Note_on_c, 14, 59, 76
16, 16499, Note_on_c, 14, 59, 0
16, 16560, Note_on_c, 14, 56, 76
16, 16739, Note_on_c, 14, 56, 0
16, 16800, Note_on_c, 14, 57, 84
16, 17039, Note_on_c, 14, 57, 0
16, 17520, Note_on_c, 14, 60, 76
16, 17699, Note_on_c, 14, 60, 0
16, 17760, Note_on_c, 14, 59, 76
16, 17939, Note_on_c, 14, 59, 0
16, 18000, Note_on_c, 14, 60, 76
16, 18179, Note_on_c, 14, 60, 0
16, 18240, Note_on_c, 14, 59, 76
16, 18419, Note_on_c, 14, 59, 0
16, 18480, Note_on_c, 14, 58, 76
16, 18659, Note_on_c, 14, 58, 0
16, 18720, Note_on_c, 14, 45, 84
16, 18809, Note_on_c, 14, 45, 0
16, 18840, Note_on_c, 14, 57, 84
16, 18929, Note_on_c, 14, 57, 0
16, 18960, Note_on_c, 14, 57, 84
16, 19049, Note_on_c, 14, 57, 0
16, 19080, Note_on_c, 14, 57, 84
16, 19169, Note_on_c, 14, 57, 0
16, 19200, Note_on_c, 14, 57, 84
16, 19289, Note_on_c, 14, 57, 0
16, 19320, Note_on_c, 14, 57, 84
16, 19409, Note_on_c, 14, 57, 0
16, 19440, Note_on_c, 14, 57, 84
16, 19529, Note_on_c, 14, 57, 0
16, 19560, Note_on_c, 14, 57, 84
16, 19649, Note_on_c, 14, 57, 0
16, 19680, Note_on_c, 14, 57, 84
16, 19769, Note_on_c, 14, 57, 0
16, 19800, Note_on_c, 14, 57, 84
16, 19889, Note_on_c, 14, 57, 0
16, 19920, Note_on_c, 14, 57, 84
16, 20009, Note_on_c, 14, 57, 0
16, 20040, Note_on_c, 14, 57, 84
16, 20129, Note_on_c, 14, 57, 0
16, 20160, Note_on_c, 14, 57, 84
16, 20249, Note_on_c, 14, 57, 0
16, 20280, Note_on_c, 14, 57, 84
16, 20369, Note_on_c, 14, 57, 0
16, 20400, Note_on_c, 14, 57, 84
16, 20489, Note_on_c, 14, 57, 0
16, 20520, Note_on_c, 14, 57, 84
16, 20609, Note_on_c, 14, 57, 0
16, 20640, Note_on_c, 14, 57, 84
16, 20729, Note_on_c, 14, 57, 0
16, 20760, Note_on_c, 14, 57, 84
16, 20849, Note_on_c, 14, 57, 0
16, 20880, Note_on_c, 14, 57, 84
16, 20969, Note_on_c, 14, 57, 0
16, 21000, Note_on_c, 14, 57, 84
16, 21089, Note_on_c, 14, 57, 0
16, 21120, Note_on_c, 14, 57, 84
16, 21209, Note_on_c, 14, 57, 0
16, 21240, Note_on_c, 14, 57, 84
16, 21329, Note_on_c, 14, 57, 0
16, 21360, Note_on_c, 14, 57, 84
16, 21449, Note_on_c, 14, 57, 0
16, 21480, Note_on_c, 14, 57, 84
16, 21569, Note_on_c, 14, 57, 0
16, 21600, Note_on_c, 14, 57, 84
16, 21689, Note_on_c, 14, 57, 0
16, 21720, Note_on_c, 14, 57, 84
16, 21809, Note_on_c, 14, 57, 0
16, 21840, Note_on_c, 14, 57, 84
16, 21929, Note_on_c, 14, 57, 0
16, 21960, Note_on_c, 14, 57, 84
16, 22049, Note_on_c, 14, 57, 0
16, 22080, Note_on_c, 14, 57, 84
16, 22169, Note_on_c, 14, 57, 0
16, 22200, Note_on_c, 14, 57, 84
16, 22289, Note_on_c, 14, 57, 0
16, 22320, Note_on_c, 14, 57, 84
16, 22409, Note_on_c, 14, 57, 0
16, 22440, Note_on_c, 14, 57, 84
16, 22529, Note_on_c, 14, 57, 0
16, 22560, Note_on_c, 14, 57, 84
16, 22769, Note_on_c, 14, 57, 0
16, 22800, Note_on_c, 14, 45, 84
16, 23009, Note_on_c, 14, 45, 0
16, 23040, Note_on_c, 14, 45, 84
16, 23249, Note_on_c, 14, 45, 0
16, 23280, Note_on_c, 14, 45, 84
16, 23489, Note_on_c, 14, 45, 0
16, 23520, Note_on_c, 14, 45, 84
16, 23759, Note_on_c, 14, 45, 0
16, 24480, Note_on_c, 14, 50, 52
16, 24959, Note_on_c, 14, 50, 0
16, 24960, Note_on_c, 14, 52, 52
16, 25199, Note_on_c, 14, 52, 0
16, 25200, Note_on_c, 14, 54, 52
16, 25409, Note_on_c, 14, 54, 0
16, 25440, Note_on_c, 14, 55, 52
16, 26129, Note_on_c, 14, 55, 0
16, 26160, Note_on_c, 14, 55, 52
16, 26369, Note_on_c, 14, 55, 0
16, 26400, Note_on_c, 14, 55, 52
16, 26639, Note_on_c, 14, 55, 0
16, 26640, Note_on_c, 14, 54, 52
16, 26879, Note_on_c, 14, 54, 0
16, 26880, Note_on_c, 14, 52, 52
16, 27119, Note_on_c, 14, 52, 0
16, 27120, Note_on_c, 14, 50, 52
16, 27329, Note_on_c, 14, 50, 0
16, 27360, Note_on_c, 14, 55, 52
16, 28049, Note_on_c, 14, 55, 0
16, 28080, Note_on_c, 14, 55, 52
16, 28289, Note_on_c, 14, 55, 0
16, 28320, Note_on_c, 14, 54, 52
16, 28799, Note_on_c, 14, 54, 0
16, 28800, Note_on_c, 14, 52, 52
16, 29039, Note_on_c, 14, 52, 0
16, 29040, Note_on_c, 14, 50, 52
16, 29249, Note_on_c, 14, 50, 0
16, 29280, Note_on_c, 14, 56, 52
16, 29759, Note_on_c, 14, 56, 0
16, 29760, Note_on_c, 14, 54, 52
16, 29999, Note_on_c, 14, 54, 0
16, 30000, Note_on_c, 14, 52, 52
16, 30209, Note_on_c, 14, 52, 0
16, 30240, Note_on_c, 14, 57, 52
16, 30929, Note_on_c, 14, 57, 0
16, 30960, Note_on_c, 14, 57, 52
16, 31169, Note_on_c, 14, 57, 0
16, 31200, Note_on_c, 14, 57, 52
16, 31439, Note_on_c, 14, 57, 0
16, 31440, Note_on_c, 14, 56, 52
16, 31679, Note_on_c, 14, 56, 0
16, 31680, Note_on_c, 14, 54, 52
16, 31919, Note_on_c, 14, 54, 0
16, 31920, Note_on_c, 14, 52, 52
16, 32129, Note_on_c, 14, 52, 0
16, 32160, Note_on_c, 14, 57, 52
16, 32849, Note_on_c, 14, 57, 0
16, 32880, Note_on_c, 14, 57, 52
16, 33089, Note_on_c, 14, 57, 0
16, 33120, Note_on_c, 14, 57, 52
16, 33359, Note_on_c, 14, 57, 0
16, 33360, Note_on_c, 14, 56, 52
16, 33599, Note_on_c, 14, 56, 0
16, 33600, Note_on_c, 14, 54, 52
16, 33839, Note_on_c, 14, 54, 0
16, 33840, Note_on_c, 14, 52, 52
16, 34049, Note_on_c, 14, 52, 0
16, 34065, Control_c, 14, 11, 96
16, 34080, Note_on_c, 14, 57, 68
16, 34319, Note_on_c, 14, 57, 0
16, 34560, Note_on_c, 14, 45, 68
16, 34680, Control_c, 14, 11, 99
16, 34800, Control_c, 14, 11, 101
16, 34920, Control_c, 14, 11, 104
16, 35039, Note_on_c, 14, 45, 0
16, 35040, Note_on_c, 14, 47, 68
16, 35040, Control_c, 14, 11, 106
16, 35160, Control_c, 14, 11, 109
16, 35280, Control_c, 14, 11, 112
16, 35400, Control_c, 14, 11, 114
16, 35519, Note_on_c, 14, 47, 0
16, 35520, Control_c, 14, 11, 117
16, 35520, Note_on_c, 14, 49, 68
16, 35640, Control_c, 14, 11, 119
16, 35760, Control_c, 14, 11, 122
16, 35880, Control_c, 14, 11, 127
16, 35969, Note_on_c, 14, 49, 0
16, 36000, Note_on_c, 14, 50, 52
16, 36689, Note_on_c, 14, 50, 0
16, 36720, Note_on_c, 14, 50, 52
16, 36929, Note_on_c, 14, 50, 0
16, 36960, Note_on_c, 14, 50, 52
16, 37199, Note_on_c, 14, 50, 0
16, 37200, Note_on_c, 14, 49, 52
16, 37439, Note_on_c, 14, 49, 0
16, 37440, Note_on_c, 14, 47, 52
16, 37679, Note_on_c, 14, 47, 0
16, 37680, Note_on_c, 14, 45, 52
16, 37889, Note_on_c, 14, 45, 0
16, 37920, Note_on_c, 14, 50, 52
16, 38609, Note_on_c, 14, 50, 0
16, 38640, Note_on_c, 14, 50, 52
16, 38849, Note_on_c, 14, 50, 0
16, 38865, Control_c, 14, 11, 80
16, 38880, Note_on_c, 14, 50, 76
16, 39119, Note_on_c, 14, 50, 0
16, 39120, Note_on_c, 14, 49, 76
16, 39359, Note_on_c, 14, 49, 0
16, 39360, Note_on_c, 14, 47, 76
16, 39599, Note_on_c, 14, 47, 0
16, 39600, Note_on_c, 14, 45, 76
16, 39809, Note_on_c, 14, 45, 0
16, 39840, Note_on_c, 14, 50, 76
16, 39840, Control_c, 14, 11, 80
16, 40000, Control_c, 14, 11, 84
16, 40160, Control_c, 14, 11, 88
16, 40320, Control_c, 14, 11, 92
16, 40480, Control_c, 14, 11, 96
16, 40559, Note_on_c, 14, 50, 0
16, 40560, Note_on_c, 14, 49, 76
16, 40640, Control_c, 14, 11, 100
16, 40799, Note_on_c, 14, 49, 0
16, 40800, Note_on_c, 14, 54, 76
16, 40800, Control_c, 14, 11, 104
16, 40960, Control_c, 14, 11, 107
16, 41039, Note_on_c, 14, 54, 0
16, 41040, Note_on_c, 14, 52, 76
16, 41120, Control_c, 14, 11, 111
16, 41279, Note_on_c, 14, 52, 0
16, 41280, Note_on_c, 14, 50, 76
16, 41280, Control_c, 14, 11, 115
16, 41440, Control_c, 14, 11, 119
16, 41519, Note_on_c, 14, 50, 0
16, 41520, Note_on_c, 14, 51, 76
16, 41600, Control_c, 14, 11, 123
16, 41729, Note_on_c, 14, 51, 0
16, 41760, Control_c, 14, 11, 127
16, 41760, Note_on_c, 14, 52, 76
16, 41849, Note_on_c, 14, 52, 0
16, 41880, Note_on_c, 14, 52, 76
16, 41969, Note_on_c, 14, 52, 0
16, 42000, Note_on_c, 14, 52, 76
16, 42089, Note_on_c, 14, 52, 0
16, 42120, Note_on_c, 14, 52, 76
16, 42209, Note_on_c, 14, 52, 0
16, 42240, Note_on_c, 14, 52, 76
16, 42329, Note_on_c, 14, 52, 0
16, 42360, Note_on_c, 14, 52, 76
16, 42449, Note_on_c, 14, 52, 0
16, 42480, Note_on_c, 14, 52, 76
16, 42569, Note_on_c, 14, 52, 0
16, 42600, Note_on_c, 14, 52, 76
16, 42689, Note_on_c, 14, 52, 0
16, 42720, Note_on_c, 14, 52, 84
16, 42809, Note_on_c, 14, 52, 0
16, 42840, Note_on_c, 14, 52, 76
16, 42929, Note_on_c, 14, 52, 0
16, 42960, Note_on_c, 14, 52, 76
16, 43049, Note_on_c, 14, 52, 0
16, 43080, Note_on_c, 14, 52, 76
16, 43169, Note_on_c, 14, 52, 0
16, 43200, Note_on_c, 14, 52, 76
16, 43289, Note_on_c, 14, 52, 0
16, 43320, Note_on_c, 14, 52, 76
16, 43409, Note_on_c, 14, 52, 0
16, 43440, Note_on_c, 14, 52, 76
16, 43529, Note_on_c, 14, 52, 0
16, 43560, Note_on_c, 14, 52, 76
16, 43649, Note_on_c, 14, 52, 0
16, 43680, Note_on_c, 14, 52, 76
16, 43769, Note_on_c, 14, 52, 0
16, 43800, Note_on_c, 14, 52, 76
16, 43889, Note_on_c, 14, 52, 0
16, 43920, Note_on_c, 14, 52, 76
16, 44009, Note_on_c, 14, 52, 0
16, 44040, Note_on_c, 14, 52, 76
16, 44129, Note_on_c, 14, 52, 0
16, 44160, Note_on_c, 14, 52, 76
16, 44249, Note_on_c, 14, 52, 0
16, 44280, Note_on_c, 14, 52, 76
16, 44369, Note_on_c, 14, 52, 0
16, 44400, Note_on_c, 14, 52, 76
16, 44489, Note_on_c, 14, 52, 0
16, 44520, Note_on_c, 14, 52, 76
16, 44609, Note_on_c, 14, 52, 0
16, 44640, Note_on_c, 14, 52, 84
16, 44729, Note_on_c, 14, 52, 0
16, 44760, Note_on_c, 14, 52, 76
16, 44849, Note_on_c, 14, 52, 0
16, 44880, Note_on_c, 14, 52, 76
16, 44969, Note_on_c, 14, 52, 0
16, 45000, Note_on_c, 14, 52, 76
16, 45089, Note_on_c, 14, 52, 0
16, 45120, Note_on_c, 14, 52, 76
16, 45209, Note_on_c, 14, 52, 0
16, 45240, Note_on_c, 14, 52, 76
16, 45329, Note_on_c, 14, 52, 0
16, 45360, Note_on_c, 14, 52, 76
16, 45449, Note_on_c, 14, 52, 0
16, 45480, Note_on_c, 14, 52, 76
16, 45569, Note_on_c, 14, 52, 0
16, 45600, Note_on_c, 14, 52, 76
16, 45689, Note_on_c, 14, 52, 0
16, 45720, Note_on_c, 14, 52, 76
16, 45809, Note_on_c, 14, 52, 0
16, 45840, Note_on_c, 14, 52, 76
16, 45929, Note_on_c, 14, 52, 0
16, 45960, Note_on_c, 14, 52, 76
16, 46049, Note_on_c, 14, 52, 0
16, 46080, Note_on_c, 14, 52, 84
16, 46169, Note_on_c, 14, 52, 0
16, 46200, Note_on_c, 14, 52, 76
16, 46289, Note_on_c, 14, 52, 0
16, 46320, Note_on_c, 14, 52, 76
16, 46409, Note_on_c, 14, 52, 0
16, 46440, Note_on_c, 14, 52, 76
16, 46529, Note_on_c, 14, 52, 0
16, 46560, Note_on_c, 14, 52, 76
16, 46649, Note_on_c, 14, 52, 0
16, 46680, Note_on_c, 14, 52, 76
16, 46769, Note_on_c, 14, 52, 0
16, 46800, Note_on_c, 14, 52, 76
16, 46889, Note_on_c, 14, 52, 0
16, 46920, Note_on_c, 14, 52, 76
16, 47009, Note_on_c, 14, 52, 0
16, 47040, Note_on_c, 14, 52, 84
16, 47129, Note_on_c, 14, 52, 0
16, 47160, Note_on_c, 14, 52, 76
16, 47249, Note_on_c, 14, 52, 0
16, 47280, Note_on_c, 14, 52, 76
16, 47369, Note_on_c, 14, 52, 0
16, 47400, Note_on_c, 14, 52, 76
16, 47489, Note_on_c, 14, 52, 0
16, 47520, Note_on_c, 14, 52, 76
16, 47759, Note_on_c, 14, 52, 0
16, 49440, Note_on_c, 14, 57, 52
16, 49679, Note_on_c, 14, 57, 0
16, 50400, Note_on_c, 14, 57, 52
16, 50639, Note_on_c, 14, 57, 0
16, 51360, Note_on_c, 14, 56, 52
16, 51599, Note_on_c, 14, 56, 0
16, 52320, Note_on_c, 14, 52, 68
16, 52559, Note_on_c, 14, 52, 0
16, 53280, Note_on_c, 14, 57, 52
16, 53519, Note_on_c, 14, 57, 0
16, 54240, Note_on_c, 14, 57, 52
16, 54479, Note_on_c, 14, 57, 0
16, 55200, Note_on_c, 14, 56, 52
16, 55439, Note_on_c, 14, 56, 0
16, 56160, Note_on_c, 14, 52, 68
16, 56399, Note_on_c, 14, 52, 0
16, 56880, Control_c, 14, 11, 96
16, 57120, Note_on_c, 14, 57, 68
16, 57120, Control_c, 14, 11, 96
16, 57359, Note_on_c, 14, 57, 0
16, 57360, Control_c, 14, 11, 99
16, 57600, Control_c, 14, 11, 101
16, 57840, Control_c, 14, 11, 104
16, 58080, Note_on_c, 14, 54, 68
16, 58080, Control_c, 14, 11, 106
16, 58319, Note_on_c, 14, 54, 0
16, 58320, Control_c, 14, 11, 109
16, 58560, Control_c, 14, 11, 112
16, 58800, Control_c, 14, 11, 114
16, 59040, Note_on_c, 14, 59, 68
16, 59040, Control_c, 14, 11, 117
16, 59279, Note_on_c, 14, 59, 0
16, 59280, Control_c, 14, 11, 119
16, 59520, Control_c, 14, 11, 122
16, 59760, Control_c, 14, 11, 124
16, 60000, Control_c, 14, 11, 127
16, 60000, Note_on_c, 14, 57, 76
16, 60239, Note_on_c, 14, 57, 0
16, 60960, Note_on_c, 14, 62, 68
16, 60960, Control_c, 14, 11, 127
16, 61040, Control_c, 14, 11, 124
16, 61120, Control_c, 14, 11, 122
16, 61199, Note_on_c, 14, 62, 0
16, 61200, Control_c, 14, 11, 119
16, 61680, Control_c, 14, 11, 127
16, 61920, Note_on_c, 14, 50, 52
16, 62159, Note_on_c, 14, 50, 0
16, 62880, Note_on_c, 14, 52, 52
16, 63119, Note_on_c, 14, 52, 0
16, 63840, Note_on_c, 14, 52, 52
16, 64079, Note_on_c, 14, 52, 0
16, 64800, Note_on_c, 14, 57, 52
16, 65039, Note_on_c, 14, 57, 0
16, 65760, Note_on_c, 14, 57, 52
16, 65999, Note_on_c, 14, 57, 0
16, 66720, Note_on_c, 14, 56, 52
16, 66959, Note_on_c, 14, 56, 0
16, 67680, Note_on_c, 14, 52, 68
16, 67919, Note_on_c, 14, 52, 0
16, 68400, Control_c, 14, 11, 96
16, 68640, Note_on_c, 14, 57, 68
16, 68879, Note_on_c, 14, 57, 0
16, 69600, Note_on_c, 14, 57, 68
16, 69600, Control_c, 14, 11, 96
16, 69839, Note_on_c, 14, 57, 0
16, 69840, Control_c, 14, 11, 99
16, 70080, Control_c, 14, 11, 101
16, 70320, Control_c, 14, 11, 104
16, 70560, Control_c, 14, 11, 106
16, 70560, Note_on_c, 14, 55, 68
16, 70799, Note_on_c, 14, 55, 0
16, 70800, Control_c, 14, 11, 109
16, 71040, Control_c, 14, 11, 112
16, 71280, Control_c, 14, 11, 114
16, 71520, Note_on_c, 14, 53, 68
16, 71520, Control_c, 14, 11, 117
16, 71759, Note_on_c, 14, 53, 0
16, 71760, Control_c, 14, 11, 119
16, 72000, Control_c, 14, 11, 122
16, 72240, Control_c, 14, 11, 124
16, 72480, Control_c, 14, 11, 127
16, 72480, Note_on_c, 14, 52, 52
16, 72719, Note_on_c, 14, 52, 0
16, 73440, Note_on_c, 14, 53, 52
16, 73679, Note_on_c, 14, 53, 0
16, 74400, Note_on_c, 14, 55, 52
16, 74639, Note_on_c, 14, 55, 0
16, 75360, Note_on_c, 14, 43, 52
16, 75599, Note_on_c, 14, 43, 0
16, 76080, Control_c, 14, 11, 80
16, 76320, Note_on_c, 14, 48, 76
16, 76559, Note_on_c, 14, 48, 0
16, 76640, Control_c, 14, 11, 84
16, 76960, Control_c, 14, 11, 88
16, 77280, Note_on_c, 14, 50, 76
16, 77280, Control_c, 14, 11, 92
16, 77519, Note_on_c, 14, 50, 0
16, 77600, Control_c, 14, 11, 96
16, 77920, Control_c, 14, 11, 100
16, 78240, Note_on_c, 14, 52, 76
16, 78240, Control_c, 14, 11, 104
16, 78479, Note_on_c, 14, 52, 0
16, 78560, Control_c, 14, 11, 107
16, 78880, Control_c, 14, 11, 111
16, 79200, Note_on_c, 14, 52, 76
16, 79200, Control_c, 14, 11, 115
16, 79439, Note_on_c, 14, 52, 0
16, 79520, Control_c, 14, 11, 119
16, 79840, Control_c, 14, 11, 123
16, 80160, Control_c, 14, 11, 127
16, 80160, Note_on_c, 14, 49, 76
16, 80339, Note_on_c, 14, 49, 0
16, 80400, Note_on_c, 14, 52, 76
16, 80579, Note_on_c, 14, 52, 0
16, 80640, Note_on_c, 14, 57, 76
16, 80819, Note_on_c, 14, 57, 0
16, 80880, Note_on_c, 14, 61, 76
16, 81059, Note_on_c, 14, 61, 0
16, 81120, Note_on_c, 14, 64, 84
16, 81809, Note_on_c, 14, 64, 0
16, 81840, Note_on_c, 14, 49, 76
16, 82019, Note_on_c, 14, 49, 0
16, 82080, Note_on_c, 14, 50, 76
16, 82259, Note_on_c, 14, 50, 0
16, 82320, Note_on_c, 14, 54, 76
16, 82499, Note_on_c, 14, 54, 0
16, 82560, Note_on_c, 14, 57, 76
16, 82739, Note_on_c, 14, 57, 0
16, 82800, Note_on_c, 14, 62, 76
16, 82979, Note_on_c, 14, 62, 0
16, 83040, Note_on_c, 14, 66, 84
16, 83729, Note_on_c, 14, 66, 0
16, 83760, Note_on_c, 14, 51, 76
16, 83939, Note_on_c, 14, 51, 0
16, 84000, Note_on_c, 14, 52, 84
16, 84179, Note_on_c, 14, 52, 0
16, 84240, Note_on_c, 14, 64, 76
16, 84479, Note_on_c, 14, 64, 0
16, 84720, Note_on_c, 14, 52, 76
16, 84899, Note_on_c, 14, 52, 0
16, 84960, Note_on_c, 14, 50, 84
16, 85139, Note_on_c, 14, 50, 0
16, 85200, Note_on_c, 14, 62, 76
16, 85439, Note_on_c, 14, 62, 0
16, 85680, Note_on_c, 14, 50, 76
16, 85859, Note_on_c, 14, 50, 0
16, 85920, Note_on_c, 14, 49, 76
16, 86099, Note_on_c, 14, 49, 0
16, 86160, Note_on_c, 14, 52, 76
16, 86339, Note_on_c, 14, 52, 0
16, 86400, Note_on_c, 14, 57, 76
16, 86579, Note_on_c, 14, 57, 0
16, 86640, Note_on_c, 14, 61, 76
16, 86819, Note_on_c, 14, 61, 0
16, 86880, Note_on_c, 14, 64, 84
16, 87569, Note_on_c, 14, 64, 0
16, 87600, Note_on_c, 14, 49, 76
16, 87779, Note_on_c, 14, 49, 0
16, 87840, Note_on_c, 14, 50, 76
16, 88019, Note_on_c, 14, 50, 0
16, 88080, Note_on_c, 14, 54, 76
16, 88259, Note_on_c, 14, 54, 0
16, 88320, Note_on_c, 14, 57, 76
16, 88499, Note_on_c, 14, 57, 0
16, 88560, Note_on_c, 14, 62, 76
16, 88739, Note_on_c, 14, 62, 0
16, 88800, Note_on_c, 14, 66, 84
16, 89489, Note_on_c, 14, 66, 0
16, 89520, Note_on_c, 14, 51, 76
16, 89699, Note_on_c, 14, 51, 0
16, 89760, Note_on_c, 14, 52, 76
16, 89939, Note_on_c, 14, 52, 0
16, 90000, Note_on_c, 14, 55, 76
16, 90179, Note_on_c, 14, 55, 0
16, 90240, Note_on_c, 14, 61, 76
16, 90419, Note_on_c, 14, 61, 0
16, 90480, Note_on_c, 14, 64, 76
16, 90659, Note_on_c, 14, 64, 0
16, 90720, Note_on_c, 14, 67, 76
16, 90899, Note_on_c, 14, 67, 0
16, 90960, Note_on_c, 14, 64, 76
16, 91139, Note_on_c, 14, 64, 0
16, 91200, Note_on_c, 14, 61, 76
16, 91379, Note_on_c, 14, 61, 0
16, 91440, Note_on_c, 14, 55, 76
16, 91619, Note_on_c, 14, 55, 0
16, 91680, Note_on_c, 14, 52, 76
16, 91859, Note_on_c, 14, 52, 0
16, 91920, Note_on_c, 14, 55, 76
16, 92099, Note_on_c, 14, 55, 0
16, 92160, Note_on_c, 14, 61, 76
16, 92339, Note_on_c, 14, 61, 0
16, 92400, Note_on_c, 14, 64, 76
16, 92579, Note_on_c, 14, 64, 0
16, 92640, Note_on_c, 14, 67, 76
16, 92819, Note_on_c, 14, 67, 0
16, 92880, Note_on_c, 14, 64, 76
16, 93059, Note_on_c, 14, 64, 0
16, 93120, Note_on_c, 14, 61, 76
16, 93299, Note_on_c, 14, 61, 0
16, 93360, Note_on_c, 14, 55, 76
16, 93539, Note_on_c, 14, 55, 0
16, 93600, Note_on_c, 14, 52, 76
16, 93779, Note_on_c, 14, 52, 0
16, 103560, Note_on_c, 14, 49, 76
16, 103649, Note_on_c, 14, 49, 0
16, 103680, Note_on_c, 14, 49, 84
16, 103739, Note_on_c, 14, 49, 0
16, 103740, Note_on_c, 14, 50, 76
16, 103799, Note_on_c, 14, 50, 0
16, 103800, Note_on_c, 14, 49, 76
16, 103859, Note_on_c, 14, 49, 0
16, 103860, Note_on_c, 14, 50, 76
16, 103919, Note_on_c, 14, 50, 0
16, 103920, Note_on_c, 14, 49, 76
16, 103979, Note_on_c, 14, 49, 0
16, 103980, Note_on_c, 14, 50, 76
16, 104039, Note_on_c, 14, 50, 0
16, 104040, Note_on_c, 14, 47, 76
16, 104099, Note_on_c, 14, 47, 0
16, 104100, Note_on_c, 14, 49, 76
16, 104144, Note_on_c, 14, 49, 0
16, 104160, Note_on_c, 14, 52, 76
16, 104339, Note_on_c, 14, 52, 0
16, 104400, Note_on_c, 14, 45, 76
16, 104579, Note_on_c, 14, 45, 0
16, 104880, Note_on_c, 14, 67, 52
16, 105119, Note_on_c, 14, 67, 0
16, 105120, Note_on_c, 14, 66, 52
16, 105599, Note_on_c, 14, 66, 0
16, 105600, Note_on_c, 14, 61, 52
16, 106049, Note_on_c, 14, 61, 0
16, 106080, Note_on_c, 14, 62, 52
16, 106559, Note_on_c, 14, 62, 0
16, 106560, Note_on_c, 14, 55, 52
16, 107039, Note_on_c, 14, 55, 0
16, 107040, Note_on_c, 14, 57, 52
16, 107519, Note_on_c, 14, 57, 0
16, 107520, Note_on_c, 14, 45, 52
16, 107969, Note_on_c, 14, 45, 0
16, 108000, Note_on_c, 14, 50, 76
16, 108179, Note_on_c, 14, 50, 0
16, 108240, Note_on_c, 14, 45, 76
16, 108419, Note_on_c, 14, 45, 0
16, 109320, Note_on_c, 14, 49, 84
16, 109409, Note_on_c, 14, 49, 0
16, 109440, Note_on_c, 14, 49, 92
16, 109499, Note_on_c, 14, 49, 0
16, 109500, Note_on_c, 14, 50, 84
16, 109559, Note_on_c, 14, 50, 0
16, 109560, Note_on_c, 14, 49, 84
16, 109619, Note_on_c, 14, 49, 0
16, 109620, Note_on_c, 14, 50, 84
16, 109679, Note_on_c, 14, 50, 0
16, 109680, Note_on_c, 14, 49, 84
16, 109739, Note_on_c, 14, 49, 0
16, 109740, Note_on_c, 14, 50, 84
16, 109799, Note_on_c, 14, 50, 0
16, 109800, Note_on_c, 14, 47, 84
16, 109859, Note_on_c, 14, 47, 0
16, 109860, Note_on_c, 14, 49, 84
16, 109904, Note_on_c, 14, 49, 0
16, 109920, Note_on_c, 14, 52, 84
16, 110099, Note_on_c, 14, 52, 0
16, 110160, Note_on_c, 14, 45, 84
16, 110339, Note_on_c, 14, 45, 0
16, 110640, Note_on_c, 14, 67, 52
16, 110879, Note_on_c, 14, 67, 0
16, 110880, Note_on_c, 14, 65, 52
16, 111359, Note_on_c, 14, 65, 0
16, 111360, Note_on_c, 14, 61, 52
16, 111809, Note_on_c, 14, 61, 0
16, 111840, Note_on_c, 14, 62, 52
16, 112319, Note_on_c, 14, 62, 0
16, 112320, Note_on_c, 14, 55, 52
16, 112799, Note_on_c, 14, 55, 0
16, 112800, Note_on_c, 14, 57, 52
16, 113249, Note_on_c, 14, 57, 0
16, 113280, Note_on_c, 14, 57, 52
16, 113729, Note_on_c, 14, 57, 0
16, 113760, Note_on_c, 14, 50, 76
16, 113849, Note_on_c, 14, 50, 0
16, 113880, Note_on_c, 14, 50, 76
16, 113969, Note_on_c, 14, 50, 0
16, 114000, Note_on_c, 14, 50, 76
16, 114089, Note_on_c, 14, 50, 0
16, 114120, Note_on_c, 14, 50, 76
16, 114209, Note_on_c, 14, 50, 0
16, 114240, Note_on_c, 14, 50, 76
16, 114329, Note_on_c, 14, 50, 0
16, 114360, Note_on_c, 14, 50, 76
16, 114449, Note_on_c, 14, 50, 0
16, 114480, Note_on_c, 14, 50, 76
16, 114569, Note_on_c, 14, 50, 0
16, 114600, Note_on_c, 14, 50, 76
16, 114689, Note_on_c, 14, 50, 0
16, 114720, Note_on_c, 14, 50, 76
16, 114809, Note_on_c, 14, 50, 0
16, 114840, Note_on_c, 14, 50, 76
16, 114929, Note_on_c, 14, 50, 0
16, 114960, Note_on_c, 14, 50, 76
16, 115049, Note_on_c, 14, 50, 0
16, 115080, Note_on_c, 14, 50, 76
16, 115169, Note_on_c, 14, 50, 0
16, 115200, Note_on_c, 14, 50, 76
16, 115289, Note_on_c, 14, 50, 0
16, 115320, Note_on_c, 14, 50, 76
16, 115409, Note_on_c, 14, 50, 0
16, 115440, Note_on_c, 14, 50, 76
16, 115529, Note_on_c, 14, 50, 0
16, 115560, Note_on_c, 14, 50, 76
16, 115649, Note_on_c, 14, 50, 0
16, 115680, Note_on_c, 14, 50, 76
16, 115769, Note_on_c, 14, 50, 0
16, 115800, Note_on_c, 14, 50, 76
16, 115889, Note_on_c, 14, 50, 0
16, 115920, Note_on_c, 14, 50, 76
16, 116009, Note_on_c, 14, 50, 0
16, 116040, Note_on_c, 14, 50, 76
16, 116129, Note_on_c, 14, 50, 0
16, 116160, Note_on_c, 14, 50, 76
16, 116249, Note_on_c, 14, 50, 0
16, 116280, Note_on_c, 14, 50, 76
16, 116369, Note_on_c, 14, 50, 0
16, 116400, Note_on_c, 14, 50, 76
16, 116489, Note_on_c, 14, 50, 0
16, 116520, Note_on_c, 14, 50, 76
16, 116609, Note_on_c, 14, 50, 0
16, 116640, Note_on_c, 14, 50, 76
16, 116729, Note_on_c, 14, 50, 0
16, 116760, Note_on_c, 14, 50, 76
16, 116849, Note_on_c, 14, 50, 0
16, 116880, Note_on_c, 14, 50, 76
16, 116969, Note_on_c, 14, 50, 0
16, 117000, Note_on_c, 14, 50, 76
16, 117089, Note_on_c, 14, 50, 0
16, 117120, Note_on_c, 14, 50, 76
16, 117209, Note_on_c, 14, 50, 0
16, 117240, Note_on_c, 14, 50, 76
16, 117329, Note_on_c, 14, 50, 0
16, 117360, Note_on_c, 14, 50, 76
16, 117449, Note_on_c, 14, 50, 0
16, 117480, Note_on_c, 14, 50, 76
16, 117569, Note_on_c, 14, 50, 0
16, 117600, Note_on_c, 14, 50, 76
16, 117689, Note_on_c, 14, 50, 0
16, 117720, Note_on_c, 14, 50, 76
16, 117809, Note_on_c, 14, 50, 0
16, 117840, Note_on_c, 14, 50, 76
16, 117929, Note_on_c, 14, 50, 0
16, 117960, Note_on_c, 14, 50, 76
16, 118049, Note_on_c, 14, 50, 0
16, 118080, Note_on_c, 14, 50, 76
16, 118169, Note_on_c, 14, 50, 0
16, 118200, Note_on_c, 14, 50, 76
16, 118289, Note_on_c, 14, 50, 0
16, 118320, Note_on_c, 14, 50, 76
16, 118409, Note_on_c, 14, 50, 0
16, 118440, Note_on_c, 14, 50, 76
16, 118529, Note_on_c, 14, 50, 0
16, 118560, Note_on_c, 14, 50, 76
16, 118649, Note_on_c, 14, 50, 0
16, 118680, Note_on_c, 14, 50, 76
16, 118769, Note_on_c, 14, 50, 0
16, 118800, Note_on_c, 14, 50, 76
16, 118889, Note_on_c, 14, 50, 0
16, 118920, Note_on_c, 14, 50, 76
16, 119009, Note_on_c, 14, 50, 0
16, 119040, Note_on_c, 14, 50, 76
16, 119129, Note_on_c, 14, 50, 0
16, 119160, Note_on_c, 14, 50, 76
16, 119249, Note_on_c, 14, 50, 0
16, 119280, Note_on_c, 14, 50, 76
16, 119369, Note_on_c, 14, 50, 0
16, 119400, Note_on_c, 14, 50, 76
16, 119489, Note_on_c, 14, 50, 0
16, 119520, Note_on_c, 14, 50, 76
16, 119609, Note_on_c, 14, 50, 0
16, 119640, Note_on_c, 14, 50, 76
16, 119729, Note_on_c, 14, 50, 0
16, 119760, Note_on_c, 14, 50, 76
16, 119849, Note_on_c, 14, 50, 0
16, 119880, Note_on_c, 14, 50, 76
16, 119969, Note_on_c, 14, 50, 0
16, 120000, Note_on_c, 14, 50, 76
16, 120089, Note_on_c, 14, 50, 0
16, 120120, Note_on_c, 14, 50, 76
16, 120209, Note_on_c, 14, 50, 0
16, 120240, Note_on_c, 14, 50, 76
16, 120329, Note_on_c, 14, 50, 0
16, 120360, Note_on_c, 14, 50, 76
16, 120449, Note_on_c, 14, 50, 0
16, 120480, Note_on_c, 14, 50, 76
16, 120569, Note_on_c, 14, 50, 0
16, 120600, Note_on_c, 14, 50, 76
16, 120689, Note_on_c, 14, 50, 0
16, 120720, Note_on_c, 14, 50, 76
16, 120809, Note_on_c, 14, 50, 0
16, 120840, Note_on_c, 14, 50, 76
16, 120929, Note_on_c, 14, 50, 0
16, 120960, Note_on_c, 14, 50, 76
16, 121049, Note_on_c, 14, 50, 0
16, 121080, Note_on_c, 14, 50, 76
16, 121169, Note_on_c, 14, 50, 0
16, 121200, Note_on_c, 14, 50, 76
16, 121289, Note_on_c, 14, 50, 0
16, 121320, Note_on_c, 14, 50, 76
16, 121409, Note_on_c, 14, 50, 0
16, 121440, Note_on_c, 14, 50, 84
16, 121529, Note_on_c, 14, 50, 0
16, 121560, Note_on_c, 14, 50, 76
16, 121649, Note_on_c, 14, 50, 0
16, 121680, Note_on_c, 14, 50, 76
16, 121769, Note_on_c, 14, 50, 0
16, 121800, Note_on_c, 14, 50, 76
16, 121889, Note_on_c, 14, 50, 0
16, 121920, Note_on_c, 14, 50, 76
16, 122009, Note_on_c, 14, 50, 0
16, 122040, Note_on_c, 14, 50, 76
16, 122129, Note_on_c, 14, 50, 0
16, 122160, Note_on_c, 14, 50, 76
16, 122249, Note_on_c, 14, 50, 0
16, 122280, Note_on_c, 14, 50, 76
16, 122369, Note_on_c, 14, 50, 0
16, 122400, Note_on_c, 14, 50, 84
16, 122489, Note_on_c, 14, 50, 0
16, 122520, Note_on_c, 14, 50, 76
16, 122609, Note_on_c, 14, 50, 0
16, 122640, Note_on_c, 14, 50, 76
16, 122729, Note_on_c, 14, 50, 0
16, 122760, Note_on_c, 14, 50, 76
16, 122849, Note_on_c, 14, 50, 0
16, 122880, Note_on_c, 14, 50, 76
16, 122969, Note_on_c, 14, 50, 0
16, 123000, Note_on_c, 14, 50, 76
16, 123089, Note_on_c, 14, 50, 0
16, 123120, Note_on_c, 14, 50, 76
16, 123209, Note_on_c, 14, 50, 0
16, 123240, Note_on_c, 14, 50, 76
16, 123329, Note_on_c, 14, 50, 0
16, 123360, Note_on_c, 14, 50, 84
16, 123449, Note_on_c, 14, 50, 0
16, 123480, Note_on_c, 14, 50, 76
16, 123569, Note_on_c, 14, 50, 0
16, 123600, Note_on_c, 14, 50, 76
16, 123689, Note_on_c, 14, 50, 0
16, 123720, Note_on_c, 14, 50, 76
16, 123809, Note_on_c, 14, 50, 0
16, 123840, Note_on_c, 14, 50, 76
16, 123929, Note_on_c, 14, 50, 0
16, 123960, Note_on_c, 14, 50, 76
16, 124049, Note_on_c, 14, 50, 0
16, 124080, Note_on_c, 14, 50, 76
16, 124169, Note_on_c, 14, 50, 0
16, 124200, Note_on_c, 14, 50, 76
16, 124289, Note_on_c, 14, 50, 0
16, 124320, Note_on_c, 14, 50, 84
16, 124409, Note_on_c, 14, 50, 0
16, 124440, Note_on_c, 14, 50, 76
16, 124529, Note_on_c, 14, 50, 0
16, 124560, Note_on_c, 14, 50, 76
16, 124649, Note_on_c, 14, 50, 0
16, 124680, Note_on_c, 14, 50, 76
16, 124769, Note_on_c, 14, 50, 0
16, 124800, Note_on_c, 14, 50, 76
16, 124889, Note_on_c, 14, 50, 0
16, 124920, Note_on_c, 14, 50, 76
16, 125009, Note_on_c, 14, 50, 0
16, 125040, Note_on_c, 14, 50, 76
16, 125129, Note_on_c, 14, 50, 0
16, 125160, Note_on_c, 14, 50, 76
16, 125249, Note_on_c, 14, 50, 0
16, 125280, Note_on_c, 14, 62, 76
16, 125759, Note_on_c, 14, 62, 0
16, 125760, Note_on_c, 14, 60, 76
16, 126239, Note_on_c, 14, 60, 0
16, 126240, Note_on_c, 14, 58, 76
16, 126719, Note_on_c, 14, 58, 0
16, 126720, Note_on_c, 14, 54, 76
16, 127169, Note_on_c, 14, 54, 0
16, 127200, Note_on_c, 14, 55, 76
16, 127439, Note_on_c, 14, 55, 0
16, 129120, Note_on_c, 14, 60, 76
16, 129240, Control_c, 14, 11, 80
16, 129599, Note_on_c, 14, 60, 0
16, 129600, Note_on_c, 14, 58, 76
16, 130079, Note_on_c, 14, 58, 0
16, 130080, Note_on_c, 14, 56, 76
16, 130559, Note_on_c, 14, 56, 0
16, 130560, Note_on_c, 14, 52, 76
16, 131009, Note_on_c, 14, 52, 0
16, 131040, Note_on_c, 14, 53, 76
16, 131279, Note_on_c, 14, 53, 0
16, 132720, Control_c, 14, 11, 127
16, 132960, Note_on_c, 14, 46, 76
16, 133199, Note_on_c, 14, 46, 0
16, 133320, Note_on_c, 14, 50, 76
16, 133409, Note_on_c, 14, 50, 0
16, 133440, Note_on_c, 14, 50, 84
16, 133499, Note_on_c, 14, 50, 0
16, 133500, Note_on_c, 14, 51, 76
16, 133559, Note_on_c, 14, 51, 0
16, 133560, Note_on_c, 14, 50, 76
16, 133619, Note_on_c, 14, 50, 0
16, 133620, Note_on_c, 14, 51, 76
16, 133679, Note_on_c, 14, 51, 0
16, 133680, Note_on_c, 14, 50, 76
16, 133739, Note_on_c, 14, 50, 0
16, 133740, Note_on_c, 14, 51, 76
16, 133799, Note_on_c, 14, 51, 0
16, 133800, Note_on_c, 14, 48, 76
16, 133859, Note_on_c, 14, 48, 0
16, 133860, Note_on_c, 14, 50, 76
16, 133904, Note_on_c, 14, 50, 0
16, 133920, Note_on_c, 14, 53, 76
16, 134099, Note_on_c, 14, 53, 0
16, 134160, Note_on_c, 14, 46, 76
16, 134339, Note_on_c, 14, 46, 0
16, 134880, Note_on_c, 14, 45, 76
16, 135119, Note_on_c, 14, 45, 0
16, 135240, Note_on_c, 14, 50, 76
16, 135329, Note_on_c, 14, 50, 0
16, 135360, Note_on_c, 14, 50, 84
16, 135419, Note_on_c, 14, 50, 0
16, 135420, Note_on_c, 14, 52, 76
16, 135479, Note_on_c, 14, 52, 0
16, 135480, Note_on_c, 14, 50, 76
16, 135539, Note_on_c, 14, 50, 0
16, 135540, Note_on_c, 14, 52, 76
16, 135599, Note_on_c, 14, 52, 0
16, 135600, Note_on_c, 14, 50, 76
16, 135659, Note_on_c, 14, 50, 0
16, 135660, Note_on_c, 14, 52, 76
16, 135719, Note_on_c, 14, 52, 0
16, 135720, Note_on_c, 14, 49, 76
16, 135779, Note_on_c, 14, 49, 0
16, 135780, Note_on_c, 14, 50, 76
16, 135824, Note_on_c, 14, 50, 0
16, 135840, Note_on_c, 14, 53, 76
16, 136019, Note_on_c, 14, 53, 0
16, 136080, Note_on_c, 14, 45, 76
16, 136259, Note_on_c, 14, 45, 0
16, 136800, Note_on_c, 14, 44, 52
16, 137039, Note_on_c, 14, 44, 0
16, 137760, Note_on_c, 14, 43, 52
16, 137999, Note_on_c, 14, 43, 0
16, 138720, Note_on_c, 14, 48, 76
16, 138959, Note_on_c, 14, 48, 0
16, 139080, Note_on_c, 14, 52, 76
16, 139169, Note_on_c, 14, 52, 0
16, 139200, Note_on_c, 14, 52, 84
16, 139259, Note_on_c, 14, 52, 0
16, 139260, Note_on_c, 14, 53, 76
16, 139319, Note_on_c, 14, 53, 0
16, 139320, Note_on_c, 14, 52, 76
16, 139379, Note_on_c, 14, 52, 0
16, 139380, Note_on_c, 14, 53, 76
16, 139439, Note_on_c, 14, 53, 0
16, 139440, Note_on_c, 14, 52, 76
16, 139499, Note_on_c, 14, 52, 0
16, 139500, Note_on_c, 14, 53, 76
16, 139559, Note_on_c, 14, 53, 0
16, 139560, Note_on_c, 14, 50, 76
16, 139619, Note_on_c, 14, 50, 0
16, 139620, Note_on_c, 14, 52, 76
16, 139664, Note_on_c, 14, 52, 0
16, 139680, Note_on_c, 14, 55, 76
16, 139859, Note_on_c, 14, 55, 0
16, 139920, Note_on_c, 14, 48, 76
16, 140099, Note_on_c, 14, 48, 0
16, 140640, Note_on_c, 14, 47, 76
16, 140879, Note_on_c, 14, 47, 0
16, 141000, Note_on_c, 14, 52, 76
16, 141089, Note_on_c, 14, 52, 0
16, 141120, Note_on_c, 14, 52, 76
16, 141179, Note_on_c, 14, 52, 0
16, 141180, Note_on_c, 14, 54, 84
16, 141239, Note_on_c, 14, 54, 0
16, 141240, Note_on_c, 14, 52, 76
16, 141299, Note_on_c, 14, 52, 0
16, 141300, Note_on_c, 14, 54, 76
16, 141359, Note_on_c, 14, 54, 0
16, 141360, Note_on_c, 14, 52, 76
16, 141419, Note_on_c, 14, 52, 0
16, 141420, Note_on_c, 14, 54, 76
16, 141479, Note_on_c, 14, 54, 0
16, 141480, Note_on_c, 14, 50, 76
16, 141539, Note_on_c, 14, 50, 0
16, 141540, Note_on_c, 14, 52, 76
16, 141584, Note_on_c, 14, 52, 0
16, 141600, Note_on_c, 14, 55, 76
16, 141779, Note_on_c, 14, 55, 0
16, 141840, Note_on_c, 14, 47, 76
16, 142019, Note_on_c, 14, 47, 0
16, 142320, Control_c, 14, 11, 80
16, 142560, Note_on_c, 14, 46, 76
16, 142799, Note_on_c, 14, 46, 0
16, 143520, Note_on_c, 14, 45, 76
16, 143759, Note_on_c, 14, 45, 0
16, 144480, Note_on_c, 14, 50, 76
16, 144480, Control_c, 14, 11, 80
16, 144719, Note_on_c, 14, 50, 0
16, 144720, Control_c, 14, 11, 82
16, 144960, Control_c, 14, 11, 84
16, 145200, Control_c, 14, 11, 86
16, 145440, Note_on_c, 14, 47, 76
16, 145440, Control_c, 14, 11, 88
16, 145679, Note_on_c, 14, 47, 0
16, 145680, Control_c, 14, 11, 90
16, 145920, Control_c, 14, 11, 92
16, 146160, Control_c, 14, 11, 94
16, 146400, Control_c, 14, 11, 96
16, 146400, Note_on_c, 14, 52, 76
16, 146639, Note_on_c, 14, 52, 0
16, 146640, Control_c, 14, 11, 98
16, 146880, Control_c, 14, 11, 100
16, 147120, Control_c, 14, 11, 102
16, 147360, Note_on_c, 14, 49, 76
16, 147360, Control_c, 14, 11, 104
16, 147599, Note_on_c, 14, 49, 0
16, 147600, Control_c, 14, 11, 105
16, 147840, Control_c, 14, 11, 107
16, 148080, Control_c, 14, 11, 109
16, 148320, Note_on_c, 14, 54, 76
16, 148320, Control_c, 14, 11, 111
16, 148559, Note_on_c, 14, 54, 0
16, 148560, Control_c, 14, 11, 113
16, 148800, Control_c, 14, 11, 115
16, 149040, Control_c, 14, 11, 117
16, 149280, Control_c, 14, 11, 119
16, 149280, Note_on_c, 14, 50, 76
16, 149519, Note_on_c, 14, 50, 0
16, 149520, Control_c, 14, 11, 121
16, 149760, Control_c, 14, 11, 123
16, 150000, Control_c, 14, 11, 125
16, 150240, Control_c, 14, 11, 127
16, 150240, Note_on_c, 14, 49, 76
16, 150449, Note_on_c, 14, 49, 0
16, 150480, Note_on_c, 14, 61, 76
16, 150959, Note_on_c, 14, 61, 0
16, 150960, Note_on_c, 14, 60, 76
16, 151199, Note_on_c, 14, 60, 0
16, 151200, Note_on_c, 14, 61, 76
16, 151439, Note_on_c, 14, 61, 0
16, 151440, Note_on_c, 14, 62, 76
16, 151679, Note_on_c, 14, 62, 0
16, 151680, Note_on_c, 14, 61, 76
16, 151919, Note_on_c, 14, 61, 0
16, 151920, Note_on_c, 14, 59, 76
16, 152129, Note_on_c, 14, 59, 0
16, 152160, Note_on_c, 14, 57, 76
16, 152399, Note_on_c, 14, 57, 0
16, 152400, Note_on_c, 14, 56, 76
16, 152639, Note_on_c, 14, 56, 0
16, 152640, Note_on_c, 14, 54, 76
16, 152879, Note_on_c, 14, 54, 0
16, 152880, Note_on_c, 14, 53, 76
16, 153119, Note_on_c, 14, 53, 0
16, 153120, Note_on_c, 14, 54, 76
16, 153359, Note_on_c, 14, 54, 0
16, 153360, Note_on_c, 14, 50, 76
16, 153599, Note_on_c, 14, 50, 0
16, 153600, Note_on_c, 14, 49, 76
16, 153839, Note_on_c, 14, 49, 0
16, 153840, Note_on_c, 14, 48, 76
16, 154049, Note_on_c, 14, 48, 0
16, 154080, Note_on_c, 14, 49, 84
16, 154799, Note_on_c, 14, 49, 0
16, 154800, Note_on_c, 14, 48, 84
16, 155039, Note_on_c, 14, 48, 0
16, 155040, Note_on_c, 14, 49, 84
16, 155279, Note_on_c, 14, 49, 0
16, 155280, Note_on_c, 14, 50, 84
16, 155519, Note_on_c, 14, 50, 0
16, 155520, Note_on_c, 14, 49, 84
16, 155759, Note_on_c, 14, 49, 0
16, 155760, Note_on_c, 14, 47, 84
16, 155969, Note_on_c, 14, 47, 0
16, 156000, Note_on_c, 14, 45, 84
16, 156239, Note_on_c, 14, 45, 0
16, 156240, Note_on_c, 14, 44, 84
16, 156479, Note_on_c, 14, 44, 0
16, 156480, Note_on_c, 14, 42, 84
16, 156719, Note_on_c, 14, 42, 0
16, 156720, Note_on_c, 14, 53, 84
16, 156929, Note_on_c, 14, 53, 0
16, 156960, Note_on_c, 14, 54, 84
16, 157199, Note_on_c, 14, 54, 0
16, 157200, Note_on_c, 14, 50, 84
16, 157439, Note_on_c, 14, 50, 0
16, 157440, Note_on_c, 14, 49, 84
16, 157679, Note_on_c, 14, 49, 0
16, 157680, Note_on_c, 14, 47, 84
16, 157889, Note_on_c, 14, 47, 0
16, 157920, Note_on_c, 14, 45, 84
16, 158159, Note_on_c, 14, 45, 0
16, 158760, Note_on_c, 14, 45, 84
16, 158879, Note_on_c, 14, 45, 0
16, 158880, Note_on_c, 14, 47, 84
16, 159059, Note_on_c, 14, 47, 0
16, 159720, Note_on_c, 14, 47, 84
16, 159839, Note_on_c, 14, 47, 0
16, 159840, Note_on_c, 14, 49, 84
16, 160019, Note_on_c, 14, 49, 0
16, 160680, Note_on_c, 14, 49, 84
16, 160799, Note_on_c, 14, 49, 0
16, 160800, Note_on_c, 14, 50, 84
16, 160979, Note_on_c, 14, 50, 0
16, 161160, Note_on_c, 14, 50, 84
16, 161279, Note_on_c, 14, 50, 0
16, 161280, Note_on_c, 14, 48, 84
16, 161459, Note_on_c, 14, 48, 0
16, 161640, Note_on_c, 14, 48, 84
16, 161759, Note_on_c, 14, 48, 0
16, 161760, Note_on_c, 14, 49, 84
16, 161849, Note_on_c, 14, 49, 0
16, 161880, Note_on_c, 14, 61, 84
16, 161969, Note_on_c, 14, 61, 0
16, 162000, Note_on_c, 14, 61, 84
16, 162089, Note_on_c, 14, 61, 0
16, 162120, Note_on_c, 14, 61, 84
16, 162209, Note_on_c, 14, 61, 0
16, 162240, Note_on_c, 14, 61, 84
16, 162329, Note_on_c, 14, 61, 0
16, 162360, Note_on_c, 14, 61, 84
16, 162449, Note_on_c, 14, 61, 0
16, 162480, Note_on_c, 14, 61, 84
16, 162569, Note_on_c, 14, 61, 0
16, 162600, Note_on_c, 14, 61, 84
16, 162689, Note_on_c, 14, 61, 0
16, 162720, Note_on_c, 14, 49, 84
16, 162809, Note_on_c, 14, 49, 0
16, 162840, Note_on_c, 14, 61, 84
16, 162929, Note_on_c, 14, 61, 0
16, 162960, Note_on_c, 14, 61, 84
16, 163049, Note_on_c, 14, 61, 0
16, 163080, Note_on_c, 14, 61, 84
16, 163169, Note_on_c, 14, 61, 0
16, 163200, Note_on_c, 14, 49, 84
16, 163289, Note_on_c, 14, 49, 0
16, 163320, Note_on_c, 14, 61, 84
16, 163409, Note_on_c, 14, 61, 0
16, 163440, Note_on_c, 14, 61, 84
16, 163529, Note_on_c, 14, 61, 0
16, 163560, Note_on_c, 14, 61, 84
16, 163649, Note_on_c, 14, 61, 0
16, 163680, Note_on_c, 14, 54, 84
16, 163919, Note_on_c, 14, 54, 0
16, 164520, Note_on_c, 14, 45, 84
16, 164639, Note_on_c, 14, 45, 0
16, 164640, Note_on_c, 14, 47, 84
16, 164819, Note_on_c, 14, 47, 0
16, 165480, Note_on_c, 14, 47, 84
16, 165599, Note_on_c, 14, 47, 0
16, 165600, Note_on_c, 14, 49, 84
16, 165779, Note_on_c, 14, 49, 0
16, 166440, Note_on_c, 14, 49, 84
16, 166559, Note_on_c, 14, 49, 0
16, 166560, Note_on_c, 14, 50, 84
16, 166739, Note_on_c, 14, 50, 0
16, 166920, Note_on_c, 14, 50, 84
16, 167039, Note_on_c, 14, 50, 0
16, 167040, Note_on_c, 14, 48, 84
16, 167219, Note_on_c, 14, 48, 0
16, 167400, Note_on_c, 14, 48, 84
16, 167519, Note_on_c, 14, 48, 0
16, 167520, Note_on_c, 14, 49, 92
16, 167699, Note_on_c, 14, 49, 0
16, 168360, Note_on_c, 14, 49, 84
16, 168479, Note_on_c, 14, 49, 0
16, 168480, Note_on_c, 14, 50, 84
16, 168659, Note_on_c, 14, 50, 0
16, 168840, Note_on_c, 14, 50, 84
16, 168959, Note_on_c, 14, 50, 0
16, 168960, Note_on_c, 14, 48, 84
16, 169139, Note_on_c, 14, 48, 0
16, 169320, Note_on_c, 14, 48, 84
16, 169439, Note_on_c, 14, 48, 0
16, 169440, Note_on_c, 14, 49, 84
16, 169619, Note_on_c, 14, 49, 0
16, 169800, Note_on_c, 14, 49, 84
16, 169919, Note_on_c, 14, 49, 0
16, 169920, Note_on_c, 14, 50, 84
16, 170099, Note_on_c, 14, 50, 0
16, 170280, Note_on_c, 14, 48, 84
16, 170399, Note_on_c, 14, 48, 0
16, 170400, Note_on_c, 14, 49, 92
16, 170579, Note_on_c, 14, 49, 0
16, 170760, Note_on_c, 14, 49, 84
16, 170879, Note_on_c, 14, 49, 0
16, 170880, Note_on_c, 14, 50, 84
16, 171059, Note_on_c, 14, 50, 0
16, 171240, Note_on_c, 14, 48, 84
16, 171329, Note_on_c, 14, 48, 0
16, 171360, Note_on_c, 14, 49, 92
16, 171449, Note_on_c, 14, 49, 0
16, 171480, Note_on_c, 14, 49, 84
16, 171569, Note_on_c, 14, 49, 0
16, 171600, Note_on_c, 14, 49, 84
16, 171689, Note_on_c, 14, 49, 0
16, 171720, Note_on_c, 14, 49, 84
16, 171809, Note_on_c, 14, 49, 0
16, 171840, Note_on_c, 14, 50, 84
16, 171929, Note_on_c, 14, 50, 0
16, 171960, Note_on_c, 14, 50, 84
16, 172049, Note_on_c, 14, 50, 0
16, 172080, Note_on_c, 14, 48, 84
16, 172169, Note_on_c, 14, 48, 0
16, 172200, Note_on_c, 14, 48, 84
16, 172289, Note_on_c, 14, 48, 0
16, 172320, Note_on_c, 14, 49, 92
16, 172409, Note_on_c, 14, 49, 0
16, 172440, Note_on_c, 14, 49, 84
16, 172529, Note_on_c, 14, 49, 0
16, 172560, Note_on_c, 14, 49, 84
16, 172649, Note_on_c, 14, 49, 0
16, 172680, Note_on_c, 14, 49, 84
16, 172769, Note_on_c, 14, 49, 0
16, 172800, Note_on_c, 14, 50, 84
16, 172889, Note_on_c, 14, 50, 0
16, 172920, Note_on_c, 14, 50, 84
16, 173009, Note_on_c, 14, 50, 0
16, 173040, Note_on_c, 14, 48, 84
16, 173129, Note_on_c, 14, 48, 0
16, 173160, Note_on_c, 14, 48, 84
16, 173249, Note_on_c, 14, 48, 0
16, 173280, Note_on_c, 14, 49, 92
16, 173519, Note_on_c, 14, 49, 0
16, 175200, Note_on_c, 14, 61, 44
16, 175439, Note_on_c, 14, 61, 0
16, 177120, Note_on_c, 14, 45, 76
16, 177359, Note_on_c, 14, 45, 0
16, 177480, Note_on_c, 14, 49, 76
16, 177569, Note_on_c, 14, 49, 0
16, 177600, Note_on_c, 14, 49, 84
16, 177659, Note_on_c, 14, 49, 0
16, 177660, Note_on_c, 14, 50, 76
16, 177719, Note_on_c, 14, 50, 0
16, 177720, Note_on_c, 14, 49, 76
16, 177779, Note_on_c, 14, 49, 0
16, 177780, Note_on_c, 14, 50, 76
16, 177839, Note_on_c, 14, 50, 0
16, 177840, Note_on_c, 14, 49, 76
16, 177899, Note_on_c, 14, 49, 0
16, 177900, Note_on_c, 14, 50, 76
16, 177959, Note_on_c, 14, 50, 0
16, 177960, Note_on_c, 14, 47, 76
16, 178019, Note_on_c, 14, 47, 0
16, 178020, Note_on_c, 14, 49, 76
16, 178064, Note_on_c, 14, 49, 0
16, 178080, Note_on_c, 14, 52, 76
16, 178259, Note_on_c, 14, 52, 0
16, 178320, Note_on_c, 14, 45, 76
16, 178499, Note_on_c, 14, 45, 0
16, 178800, Note_on_c, 14, 67, 52
16, 179039, Note_on_c, 14, 67, 0
16, 179040, Note_on_c, 14, 66, 52
16, 179519, Note_on_c, 14, 66, 0
16, 179520, Note_on_c, 14, 61, 52
16, 179969, Note_on_c, 14, 61, 0
16, 180000, Note_on_c, 14, 62, 52
16, 180479, Note_on_c, 14, 62, 0
16, 180480, Note_on_c, 14, 55, 52
16, 180959, Note_on_c, 14, 55, 0
16, 180960, Note_on_c, 14, 57, 52
16, 181439, Note_on_c, 14, 57, 0
16, 181440, Note_on_c, 14, 45, 52
16, 181889, Note_on_c, 14, 45, 0
16, 181920, Note_on_c, 14, 50, 76
16, 182099, Note_on_c, 14, 50, 0
16, 182160, Note_on_c, 14, 45, 76
16, 182339, Note_on_c, 14, 45, 0
16, 183240, Note_on_c, 14, 49, 84
16, 183329, Note_on_c, 14, 49, 0
16, 183360, Note_on_c, 14, 49, 92
16, 183419, Note_on_c, 14, 49, 0
16, 183420, Note_on_c, 14, 50, 84
16, 183479, Note_on_c, 14, 50, 0
16, 183480, Note_on_c, 14, 49, 84
16, 183539, Note_on_c, 14, 49, 0
16, 183540, Note_on_c, 14, 50, 84
16, 183599, Note_on_c, 14, 50, 0
16, 183600, Note_on_c, 14, 49, 84
16, 183659, Note_on_c, 14, 49, 0
16, 183660, Note_on_c, 14, 50, 84
16, 183719, Note_on_c, 14, 50, 0
16, 183720, Note_on_c, 14, 47, 84
16, 183779, Note_on_c, 14, 47, 0
16, 183780, Note_on_c, 14, 49, 84
16, 183824, Note_on_c, 14, 49, 0
16, 183840, Note_on_c, 14, 52, 84
16, 184019, Note_on_c, 14, 52, 0
16, 184080, Note_on_c, 14, 45, 84
16, 184259, Note_on_c, 14, 45, 0
16, 184560, Note_on_c, 14, 67, 52
16, 184799, Note_on_c, 14, 67, 0
16, 184800, Note_on_c, 14, 66, 52
16, 185279, Note_on_c, 14, 66, 0
16, 185280, Note_on_c, 14, 61, 52
16, 185729, Note_on_c, 14, 61, 0
16, 185760, Note_on_c, 14, 62, 52
16, 186239, Note_on_c, 14, 62, 0
16, 186240, Note_on_c, 14, 55, 52
16, 186719, Note_on_c, 14, 55, 0
16, 186720, Note_on_c, 14, 57, 52
16, 187199, Note_on_c, 14, 57, 0
16, 187200, Note_on_c, 14, 45, 52
16, 187649, Note_on_c, 14, 45, 0
16, 187680, Note_on_c, 14, 50, 76
16, 187919, Note_on_c, 14, 50, 0
16, 188520, Note_on_c, 14, 54, 76
16, 188609, Note_on_c, 14, 54, 0
16, 188640, Note_on_c, 14, 55, 76
16, 188819, Note_on_c, 14, 55, 0
16, 188880, Note_on_c, 14, 57, 76
16, 189059, Note_on_c, 14, 57, 0
16, 189120, Note_on_c, 14, 59, 76
16, 189299, Note_on_c, 14, 59, 0
16, 189360, Note_on_c, 14, 56, 76
16, 189539, Note_on_c, 14, 56, 0
16, 189600, Note_on_c, 14, 57, 76
16, 189839, Note_on_c, 14, 57, 0
16, 190440, Note_on_c, 14, 58, 76
16, 190529, Note_on_c, 14, 58, 0
16, 190560, Note_on_c, 14, 59, 76
16, 190739, Note_on_c, 14, 59, 0
16, 190800, Note_on_c, 14, 54, 76
16, 190979, Note_on_c, 14, 54, 0
16, 191040, Note_on_c, 14, 55, 76
16, 191219, Note_on_c, 14, 55, 0
16, 191280, Note_on_c, 14, 52, 76
16, 191459, Note_on_c, 14, 52, 0
16, 191520, Note_on_c, 14, 50, 84
16, 191759, Note_on_c, 14, 50, 0
16, 192240, Note_on_c, 14, 54, 76
16, 192419, Note_on_c, 14, 54, 0
16, 192480, Note_on_c, 14, 55, 76
16, 192659, Note_on_c, 14, 55, 0
16, 192720, Note_on_c, 14, 57, 76
16, 192899, Note_on_c, 14, 57, 0
16, 192960, Note_on_c, 14, 59, 76
16, 193139, Note_on_c, 14, 59, 0
16, 193200, Note_on_c, 14, 56, 76
16, 193379, Note_on_c, 14, 56, 0
16, 193440, Note_on_c, 14, 57, 84
16, 193679, Note_on_c, 14, 57, 0
16, 194160, Note_on_c, 14, 60, 76
16, 194339, Note_on_c, 14, 60, 0
16, 194400, Note_on_c, 14, 59, 76
16, 194579, Note_on_c, 14, 59, 0
16, 194640, Note_on_c, 14, 60, 76
16, 194819, Note_on_c, 14, 60, 0
16, 194880, Note_on_c, 14, 59, 76
16, 195059, Note_on_c, 14, 59, 0
16, 195120, Note_on_c, 14, 58, 76
16, 195299, Note_on_c, 14, 58, 0
16, 195360, Note_on_c, 14, 45, 84
16, 195449, Note_on_c, 14, 45, 0
16, 195480, Note_on_c, 14, 57, 84
16, 195569, Note_on_c, 14, 57, 0
16, 195600, Note_on_c, 14, 57, 84
16, 195689, Note_on_c, 14, 57, 0
16, 195720, Note_on_c, 14, 57, 84
16, 195809, Note_on_c, 14, 57, 0
16, 195840, Note_on_c, 14, 57, 84
16, 195929, Note_on_c, 14, 57, 0
16, 195960, Note_on_c, 14, 57, 84
16, 196049, Note_on_c, 14, 57, 0
16, 196080, Note_on_c, 14, 57, 84
16, 196169, Note_on_c, 14, 57, 0
16, 196200, Note_on_c, 14, 57, 84
16, 196289, Note_on_c, 14, 57, 0
16, 196320, Note_on_c, 14, 57, 84
16, 196409, Note_on_c, 14, 57, 0
16, 196440, Note_on_c, 14, 57, 84
16, 196529, Note_on_c, 14, 57, 0
16, 196560, Note_on_c, 14, 57, 84
16, 196649, Note_on_c, 14, 57, 0
16, 196680, Note_on_c, 14, 57, 84
16, 196769, Note_on_c, 14, 57, 0
16, 196800, Note_on_c, 14, 57, 84
16, 196889, Note_on_c, 14, 57, 0
16, 196920, Note_on_c, 14, 57, 84
16, 197009, Note_on_c, 14, 57, 0
16, 197040, Note_on_c, 14, 57, 84
16, 197129, Note_on_c, 14, 57, 0
16, 197160, Note_on_c, 14, 57, 84
16, 197249, Note_on_c, 14, 57, 0
16, 197280, Note_on_c, 14, 57, 84
16, 197369, Note_on_c, 14, 57, 0
16, 197400, Note_on_c, 14, 57, 84
16, 197489, Note_on_c, 14, 57, 0
16, 197520, Note_on_c, 14, 57, 84
16, 197609, Note_on_c, 14, 57, 0
16, 197640, Note_on_c, 14, 57, 84
16, 197729, Note_on_c, 14, 57, 0
16, 197760, Note_on_c, 14, 57, 84
16, 197849, Note_on_c, 14, 57, 0
16, 197880, Note_on_c, 14, 57, 84
16, 197969, Note_on_c, 14, 57, 0
16, 198000, Note_on_c, 14, 57, 84
16, 198089, Note_on_c, 14, 57, 0
16, 198120, Note_on_c, 14, 57, 84
16, 198209, Note_on_c, 14, 57, 0
16, 198240, Note_on_c, 14, 57, 84
16, 198329, Note_on_c, 14, 57, 0
16, 198360, Note_on_c, 14, 57, 84
16, 198449, Note_on_c, 14, 57, 0
16, 198480, Note_on_c, 14, 57, 84
16, 198569, Note_on_c, 14, 57, 0
16, 198600, Note_on_c, 14, 57, 84
16, 198689, Note_on_c, 14, 57, 0
16, 198720, Note_on_c, 14, 57, 84
16, 198809, Note_on_c, 14, 57, 0
16, 198840, Note_on_c, 14, 57, 84
16, 198929, Note_on_c, 14, 57, 0
16, 198960, Note_on_c, 14, 57, 84
16, 199049, Note_on_c, 14, 57, 0
16, 199080, Note_on_c, 14, 57, 84
16, 199169, Note_on_c, 14, 57, 0
16, 199200, Note_on_c, 14, 57, 84
16, 199379, Note_on_c, 14, 57, 0
16, 199440, Note_on_c, 14, 45, 84
16, 199619, Note_on_c, 14, 45, 0
16, 199680, Note_on_c, 14, 45, 84
16, 199859, Note_on_c, 14, 45, 0
16, 199920, Note_on_c, 14, 45, 84
16, 200099, Note_on_c, 14, 45, 0
16, 200160, Note_on_c, 14, 45, 84
16, 200399, Note_on_c, 14, 45, 0
16, 201120, Note_on_c, 14, 50, 52
16, 201599, Note_on_c, 14, 50, 0
16, 201600, Note_on_c, 14, 52, 52
16, 201839, Note_on_c, 14, 52, 0
16, 201840, Note_on_c, 14, 54, 52
16, 202049, Note_on_c, 14, 54, 0
16, 202080, Note_on_c, 14, 55, 52
16, 202769, Note_on_c, 14, 55, 0
16, 202800, Note_on_c, 14, 55, 52
16, 203009, Note_on_c, 14, 55, 0
16, 203040, Note_on_c, 14, 55, 52
16, 203279, Note_on_c, 14, 55, 0
16, 203280, Note_on_c, 14, 54, 52
16, 203519, Note_on_c, 14, 54, 0
16, 203520, Note_on_c, 14, 52, 52
16, 203759, Note_on_c, 14, 52, 0
16, 203760, Note_on_c, 14, 50, 52
16, 203969, Note_on_c, 14, 50, 0
16, 204000, Note_on_c, 14, 55, 52
16, 204689, Note_on_c, 14, 55, 0
16, 204720, Note_on_c, 14, 55, 52
16, 204929, Note_on_c, 14, 55, 0
16, 204960, Note_on_c, 14, 54, 52
16, 205439, Note_on_c, 14, 54, 0
16, 205440, Note_on_c, 14, 52, 52
16, 205679, Note_on_c, 14, 52, 0
16, 205680, Note_on_c, 14, 50, 52
16, 205889, Note_on_c, 14, 50, 0
16, 205920, Note_on_c, 14, 56, 52
16, 206399, Note_on_c, 14, 56, 0
16, 206400, Note_on_c, 14, 54, 52
16, 206639, Note_on_c, 14, 54, 0
16, 206640, Note_on_c, 14, 52, 52
16, 206849, Note_on_c, 14, 52, 0
16, 206880, Note_on_c, 14, 57, 52
16, 207569, Note_on_c, 14, 57, 0
16, 207600, Note_on_c, 14, 57, 52
16, 207809, Note_on_c, 14, 57, 0
16, 207825, Control_c, 14, 11, 80
16, 207840, Note_on_c, 14, 57, 76
16, 208079, Note_on_c, 14, 57, 0
16, 208080, Note_on_c, 14, 56, 76
16, 208319, Note_on_c, 14, 56, 0
16, 208320, Note_on_c, 14, 54, 76
16, 208559, Note_on_c, 14, 54, 0
16, 208560, Note_on_c, 14, 52, 76
16, 208769, Note_on_c, 14, 52, 0
16, 208800, Note_on_c, 14, 57, 76
16, 209489, Note_on_c, 14, 57, 0
16, 209520, Note_on_c, 14, 57, 76
16, 209729, Note_on_c, 14, 57, 0
16, 209760, Note_on_c, 14, 57, 76
16, 209999, Note_on_c, 14, 57, 0
16, 210000, Note_on_c, 14, 56, 76
16, 210239, Note_on_c, 14, 56, 0
16, 210240, Note_on_c, 14, 54, 76
16, 210479, Note_on_c, 14, 54, 0
16, 210480, Note_on_c, 14, 52, 76
16, 210689, Note_on_c, 14, 52, 0
16, 210720, Note_on_c, 14, 57, 76
16, 210720, Control_c, 14, 11, 80
16, 210860, Control_c, 14, 11, 83
16, 211000, Control_c, 14, 11, 85
16, 211140, Control_c, 14, 11, 88
16, 211199, Note_on_c, 14, 57, 0
16, 211200, Note_on_c, 14, 60, 76
16, 211280, Control_c, 14, 11, 91
16, 211420, Control_c, 14, 11, 93
16, 211439, Note_on_c, 14, 60, 0
16, 211440, Note_on_c, 14, 59, 76
16, 211560, Control_c, 14, 11, 96
16, 211679, Note_on_c, 14, 59, 0
16, 211680, Note_on_c, 14, 57, 76
16, 211700, Control_c, 14, 11, 99
16, 211840, Control_c, 14, 11, 101
16, 211919, Note_on_c, 14, 57, 0
16, 211920, Note_on_c, 14, 55, 76
16, 211980, Control_c, 14, 11, 104
16, 212120, Control_c, 14, 11, 107
16, 212159, Note_on_c, 14, 55, 0
16, 212160, Note_on_c, 14, 54, 76
16, 212260, Control_c, 14, 11, 109
16, 212399, Note_on_c, 14, 54, 0
16, 212400, Control_c, 14, 11, 80
16, 212400, Note_on_c, 14, 50, 76
16, 212609, Note_on_c, 14, 50, 0
16, 212640, Note_on_c, 14, 55, 76
16, 213329, Note_on_c, 14, 55, 0
16, 213360, Note_on_c, 14, 55, 76
16, 213569, Note_on_c, 14, 55, 0
16, 213600, Note_on_c, 14, 55, 76
16, 213839, Note_on_c, 14, 55, 0
16, 213840, Note_on_c, 14, 54, 76
16, 214079, Note_on_c, 14, 54, 0
16, 214080, Note_on_c, 14, 52, 76
16, 214319, Note_on_c, 14, 52, 0
16, 214320, Note_on_c, 14, 50, 76
16, 214529, Note_on_c, 14, 50, 0
16, 214560, Note_on_c, 14, 55, 76
16, 215249, Note_on_c, 14, 55, 0
16, 215280, Note_on_c, 14, 55, 76
16, 215489, Note_on_c, 14, 55, 0
16, 215520, Note_on_c, 14, 55, 76
16, 215759, Note_on_c, 14, 55, 0
16, 215760, Note_on_c, 14, 54, 76
16, 215999, Note_on_c, 14, 54, 0
16, 216000, Note_on_c, 14, 52, 76
16, 216239, Note_on_c, 14, 52, 0
16, 216240, Note_on_c, 14, 50, 76
16, 216449, Note_on_c, 14, 50, 0
16, 216480, Control_c, 14, 11, 80
16, 216480, Note_on_c, 14, 55, 76
16, 216640, Control_c, 14, 11, 84
16, 216800, Control_c, 14, 11, 88
16, 216960, Control_c, 14, 11, 92
16, 217120, Control_c, 14, 11, 96
16, 217199, Note_on_c, 14, 55, 0
16, 217200, Note_on_c, 14, 54, 76
16, 217280, Control_c, 14, 11, 100
16, 217439, Note_on_c, 14, 54, 0
16, 217440, Note_on_c, 14, 59, 76
16, 217440, Control_c, 14, 11, 104
16, 217600, Control_c, 14, 11, 107
16, 217679, Note_on_c, 14, 59, 0
16, 217680, Note_on_c, 14, 57, 76
16, 217760, Control_c, 14, 11, 111
16, 217919, Note_on_c, 14, 57, 0
16, 217920, Note_on_c, 14, 55, 76
16, 217920, Control_c, 14, 11, 115
16, 218080, Control_c, 14, 11, 119
16, 218159, Note_on_c, 14, 55, 0
16, 218160, Note_on_c, 14, 56, 76
16, 218240, Control_c, 14, 11, 127
16, 218369, Note_on_c, 14, 56, 0
16, 218400, Note_on_c, 14, 45, 76
16, 218489, Note_on_c, 14, 45, 0
16, 218520, Note_on_c, 14, 57, 76
16, 218609, Note_on_c, 14, 57, 0
16, 218640, Note_on_c, 14, 57, 76
16, 218729, Note_on_c, 14, 57, 0
16, 218760, Note_on_c, 14, 57, 76
16, 218849, Note_on_c, 14, 57, 0
16, 218880, Note_on_c, 14, 57, 76
16, 218969, Note_on_c, 14, 57, 0
16, 219000, Note_on_c, 14, 57, 76
16, 219089, Note_on_c, 14, 57, 0
16, 219120, Note_on_c, 14, 57, 76
16, 219209, Note_on_c, 14, 57, 0
16, 219240, Note_on_c, 14, 57, 76
16, 219329, Note_on_c, 14, 57, 0
16, 219360, Note_on_c, 14, 57, 84
16, 219449, Note_on_c, 14, 57, 0
16, 219480, Note_on_c, 14, 57, 76
16, 219569, Note_on_c, 14, 57, 0
16, 219600, Note_on_c, 14, 57, 76
16, 219689, Note_on_c, 14, 57, 0
16, 219720, Note_on_c, 14, 57, 76
16, 219809, Note_on_c, 14, 57, 0
16, 219840, Note_on_c, 14, 57, 76
16, 219929, Note_on_c, 14, 57, 0
16, 219960, Note_on_c, 14, 57, 76
16, 220049, Note_on_c, 14, 57, 0
16, 220080, Note_on_c, 14, 57, 76
16, 220169, Note_on_c, 14, 57, 0
16, 220200, Note_on_c, 14, 57, 76
16, 220289, Note_on_c, 14, 57, 0
16, 220320, Note_on_c, 14, 45, 76
16, 220409, Note_on_c, 14, 45, 0
16, 220440, Note_on_c, 14, 45, 76
16, 220529, Note_on_c, 14, 45, 0
16, 220560, Note_on_c, 14, 45, 76
16, 220649, Note_on_c, 14, 45, 0
16, 220680, Note_on_c, 14, 45, 76
16, 220769, Note_on_c, 14, 45, 0
16, 220800, Note_on_c, 14, 45, 76
16, 220889, Note_on_c, 14, 45, 0
16, 220920, Note_on_c, 14, 45, 76
16, 221009, Note_on_c, 14, 45, 0
16, 221040, Note_on_c, 14, 45, 76
16, 221129, Note_on_c, 14, 45, 0
16, 221160, Note_on_c, 14, 45, 76
16, 221249, Note_on_c, 14, 45, 0
16, 221280, Note_on_c, 14, 45, 84
16, 221369, Note_on_c, 14, 45, 0
16, 221400, Note_on_c, 14, 45, 76
16, 221489, Note_on_c, 14, 45, 0
16, 221520, Note_on_c, 14, 45, 76
16, 221609, Note_on_c, 14, 45, 0
16, 221640, Note_on_c, 14, 45, 76
16, 221729, Note_on_c, 14, 45, 0
16, 221760, Note_on_c, 14, 45, 76
16, 221849, Note_on_c, 14, 45, 0
16, 221880, Note_on_c, 14, 45, 76
16, 221969, Note_on_c, 14, 45, 0
16, 222000, Note_on_c, 14, 45, 76
16, 222089, Note_on_c, 14, 45, 0
16, 222120, Note_on_c, 14, 45, 76
16, 222209, Note_on_c, 14, 45, 0
16, 222240, Note_on_c, 14, 45, 76
16, 222329, Note_on_c, 14, 45, 0
16, 222360, Note_on_c, 14, 45, 76
16, 222449, Note_on_c, 14, 45, 0
16, 222480, Note_on_c, 14, 45, 76
16, 222569, Note_on_c, 14, 45, 0
16, 222600, Note_on_c, 14, 45, 76
16, 222689, Note_on_c, 14, 45, 0
16, 222720, Note_on_c, 14, 45, 84
16, 222809, Note_on_c, 14, 45, 0
16, 222840, Note_on_c, 14, 45, 76
16, 222929, Note_on_c, 14, 45, 0
16, 222960, Note_on_c, 14, 45, 76
16, 223049, Note_on_c, 14, 45, 0
16, 223080, Note_on_c, 14, 45, 76
16, 223169, Note_on_c, 14, 45, 0
16, 223200, Note_on_c, 14, 45, 76
16, 223289, Note_on_c, 14, 45, 0
16, 223320, Note_on_c, 14, 45, 76
16, 223409, Note_on_c, 14, 45, 0
16, 223440, Note_on_c, 14, 45, 76
16, 223529, Note_on_c, 14, 45, 0
16, 223560, Note_on_c, 14, 45, 76
16, 223649, Note_on_c, 14, 45, 0
16, 223680, Note_on_c, 14, 45, 84
16, 223769, Note_on_c, 14, 45, 0
16, 223800, Note_on_c, 14, 45, 76
16, 223889, Note_on_c, 14, 45, 0
16, 223920, Note_on_c, 14, 45, 76
16, 224009, Note_on_c, 14, 45, 0
16, 224040, Note_on_c, 14, 45, 76
16, 224129, Note_on_c, 14, 45, 0
16, 224160, Note_on_c, 14, 45, 76
16, 224399, Note_on_c, 14, 45, 0
16, 226080, Note_on_c, 14, 50, 52
16, 226319, Note_on_c, 14, 50, 0
16, 227040, Note_on_c, 14, 50, 52
16, 227279, Note_on_c, 14, 50, 0
16, 228000, Note_on_c, 14, 49, 52
16, 228239, Note_on_c, 14, 49, 0
16, 228960, Note_on_c, 14, 45, 68
16, 229199, Note_on_c, 14, 45, 0
16, 229920, Note_on_c, 14, 50, 52
16, 230159, Note_on_c, 14, 50, 0
16, 230880, Note_on_c, 14, 50, 52
16, 231119, Note_on_c, 14, 50, 0
16, 231840, Note_on_c, 14, 49, 52
16, 232079, Note_on_c, 14, 49, 0
16, 232800, Note_on_c, 14, 45, 68
16, 233039, Note_on_c, 14, 45, 0
16, 233520, Control_c, 14, 11, 96
16, 233760, Note_on_c, 14, 50, 68
16, 233999, Note_on_c, 14, 50, 0
16, 234000, Control_c, 14, 11, 96
16, 234220, Control_c, 14, 11, 99
16, 234440, Control_c, 14, 11, 101
16, 234660, Control_c, 14, 11, 104
16, 234720, Note_on_c, 14, 54, 68
16, 234880, Control_c, 14, 11, 106
16, 234959, Note_on_c, 14, 54, 0
16, 235100, Control_c, 14, 11, 109
16, 235320, Control_c, 14, 11, 112
16, 235540, Control_c, 14, 11, 114
16, 235680, Note_on_c, 14, 59, 68
16, 235760, Control_c, 14, 11, 117
16, 235919, Note_on_c, 14, 59, 0
16, 235980, Control_c, 14, 11, 119
16, 236200, Control_c, 14, 11, 122
16, 236420, Control_c, 14, 11, 124
16, 236640, Note_on_c, 14, 57, 76
16, 236640, Control_c, 14, 11, 127
16, 236879, Note_on_c, 14, 57, 0
16, 237600, Control_c, 14, 11, 127
16, 237600, Note_on_c, 14, 62, 68
16, 237680, Control_c, 14, 11, 124
16, 237760, Control_c, 14, 11, 122
16, 237839, Note_on_c, 14, 62, 0
16, 237840, Control_c, 14, 11, 119
16, 238480, Control_c, 14, 11, 99
16, 238560, Control_c, 14, 11, 96
16, 238560, Note_on_c, 14, 55, 68
16, 238799, Note_on_c, 14, 55, 0
16, 239520, Note_on_c, 14, 57, 68
16, 239759, Note_on_c, 14, 57, 0
16, 240480, Note_on_c, 14, 45, 68
16, 240719, Note_on_c, 14, 45, 0
16, 241440, Note_on_c, 14, 50, 68
16, 241679, Note_on_c, 14, 50, 0
16, 242400, Note_on_c, 14, 50, 68
16, 242639, Note_on_c, 14, 50, 0
16, 243360, Note_on_c, 14, 49, 68
16, 243599, Note_on_c, 14, 49, 0
16, 244320, Note_on_c, 14, 45, 76
16, 244559, Note_on_c, 14, 45, 0
16, 245280, Note_on_c, 14, 50, 68
16, 245519, Note_on_c, 14, 50, 0
16, 245520, Control_c, 14, 11, 96
16, 245740, Control_c, 14, 11, 99
16, 245960, Control_c, 14, 11, 101
16, 246180, Control_c, 14, 11, 104
16, 246240, Note_on_c, 14, 50, 68
16, 246400, Control_c, 14, 11, 106
16, 246479, Note_on_c, 14, 50, 0
16, 246620, Control_c, 14, 11, 109
16, 246840, Control_c, 14, 11, 112
16, 247060, Control_c, 14, 11, 114
16, 247200, Note_on_c, 14, 48, 68
16, 247280, Control_c, 14, 11, 117
16, 247439, Note_on_c, 14, 48, 0
16, 247500, Control_c, 14, 11, 119
16, 247720, Control_c, 14, 11, 122
16, 247940, Control_c, 14, 11, 124
16, 248160, Control_c, 14, 11, 127
16, 248160, Note_on_c, 14, 46, 68
16, 248399, Note_on_c, 14, 46, 0
16, 249120, Note_on_c, 14, 45, 68
16, 249120, Control_c, 14, 11, 127
16, 249200, Control_c, 14, 11, 124
16, 249280, Control_c, 14, 11, 122
16, 249359, Note_on_c, 14, 45, 0
16, 249360, Control_c, 14, 11, 119
16, 249440, Control_c, 14, 11, 117
16, 249520, Control_c, 14, 11, 114
16, 249600, Control_c, 14, 11, 112
16, 249680, Control_c, 14, 11, 109
16, 249760, Control_c, 14, 11, 106
16, 249840, Control_c, 14, 11, 104
16, 249920, Control_c, 14, 11, 101
16, 250000, Control_c, 14, 11, 99
16, 250080, Note_on_c, 14, 46, 68
16, 250080, Control_c, 14, 11, 96
16, 250319, Note_on_c, 14, 46, 0
16, 251040, Note_on_c, 14, 48, 68
16, 251279, Note_on_c, 14, 48, 0
16, 252000, Note_on_c, 14, 49, 68
16, 252239, Note_on_c, 14, 49, 0
16, 252720, Control_c, 14, 11, 80
16, 252960, Note_on_c, 14, 50, 76
16, 252960, Control_c, 14, 11, 80
16, 253199, Note_on_c, 14, 50, 0
16, 253280, Control_c, 14, 11, 84
16, 253600, Control_c, 14, 11, 88
16, 253920, Note_on_c, 14, 43, 76
16, 253920, Control_c, 14, 11, 92
16, 254159, Note_on_c, 14, 43, 0
16, 254240, Control_c, 14, 11, 96
16, 254560, Control_c, 14, 11, 100
16, 254880, Note_on_c, 14, 45, 76
16, 254880, Control_c, 14, 11, 104
16, 255119, Note_on_c, 14, 45, 0
16, 255200, Control_c, 14, 11, 107
16, 255520, Control_c, 14, 11, 111
16, 255840, Note_on_c, 14, 45, 76
16, 255840, Control_c, 14, 11, 115
16, 256079, Note_on_c, 14, 45, 0
16, 256160, Control_c, 14, 11, 119
16, 256480, Control_c, 14, 11, 123
16, 256800, Note_on_c, 14, 42, 76
16, 256800, Control_c, 14, 11, 127
16, 256979, Note_on_c, 14, 42, 0
16, 257040, Note_on_c, 14, 45, 76
16, 257219, Note_on_c, 14, 45, 0
16, 257280, Note_on_c, 14, 50, 76
16, 257459, Note_on_c, 14, 50, 0
16, 257520, Note_on_c, 14, 54, 76
16, 257699, Note_on_c, 14, 54, 0
16, 257760, Note_on_c, 14, 57, 84
16, 258449, Note_on_c, 14, 57, 0
16, 258480, Note_on_c, 14, 42, 76
16, 258689, Note_on_c, 14, 42, 0
16, 258720, Note_on_c, 14, 43, 76
16, 258899, Note_on_c, 14, 43, 0
16, 258960, Note_on_c, 14, 47, 76
16, 259139, Note_on_c, 14, 47, 0
16, 259200, Note_on_c, 14, 50, 76
16, 259379, Note_on_c, 14, 50, 0
16, 259440, Note_on_c, 14, 55, 76
16, 259619, Note_on_c, 14, 55, 0
16, 259680, Note_on_c, 14, 59, 84
16, 260369, Note_on_c, 14, 59, 0
16, 260400, Note_on_c, 14, 44, 76
16, 260609, Note_on_c, 14, 44, 0
16, 260640, Note_on_c, 14, 45, 84
16, 260819, Note_on_c, 14, 45, 0
16, 260880, Note_on_c, 14, 57, 76
16, 261119, Note_on_c, 14, 57, 0
16, 261360, Note_on_c, 14, 45, 76
16, 261569, Note_on_c, 14, 45, 0
16, 261600, Note_on_c, 14, 43, 84
16, 261779, Note_on_c, 14, 43, 0
16, 261840, Note_on_c, 14, 55, 76
16, 262079, Note_on_c, 14, 55, 0
16, 262320, Note_on_c, 14, 43, 76
16, 262529, Note_on_c, 14, 43, 0
16, 262560, Note_on_c, 14, 42, 76
16, 262739, Note_on_c, 14, 42, 0
16, 262800, Note_on_c, 14, 45, 76
16, 262979, Note_on_c, 14, 45, 0
16, 263040, Note_on_c, 14, 50, 76
16, 263219, Note_on_c, 14, 50, 0
16, 263280, Note_on_c, 14, 54, 76
16, 263459, Note_on_c, 14, 54, 0
16, 263520, Note_on_c, 14, 57, 84
16, 264209, Note_on_c, 14, 57, 0
16, 264240, Note_on_c, 14, 42, 76
16, 264449, Note_on_c, 14, 42, 0
16, 264480, Note_on_c, 14, 43, 76
16, 264659, Note_on_c, 14, 43, 0
16, 264720, Note_on_c, 14, 47, 76
16, 264899, Note_on_c, 14, 47, 0
16, 264960, Note_on_c, 14, 50, 76
16, 265139, Note_on_c, 14, 50, 0
16, 265200, Note_on_c, 14, 55, 76
16, 265379, Note_on_c, 14, 55, 0
16, 265440, Note_on_c, 14, 59, 84
16, 266129, Note_on_c, 14, 59, 0
16, 266160, Note_on_c, 14, 44, 76
16, 266369, Note_on_c, 14, 44, 0
16, 266400, Note_on_c, 14, 45, 84
16, 266579, Note_on_c, 14, 45, 0
16, 266640, Note_on_c, 14, 48, 84
16, 266819, Note_on_c, 14, 48, 0
16, 266880, Note_on_c, 14, 54, 84
16, 267059, Note_on_c, 14, 54, 0
16, 267120, Note_on_c, 14, 57, 84
16, 267299, Note_on_c, 14, 57, 0
16, 267360, Note_on_c, 14, 60, 84
16, 267539, Note_on_c, 14, 60, 0
16, 267600, Note_on_c, 14, 57, 84
16, 267779, Note_on_c, 14, 57, 0
16, 267840, Note_on_c, 14, 54, 84
16, 268019, Note_on_c, 14, 54, 0
16, 268080, Note_on_c, 14, 48, 84
16, 268259, Note_on_c, 14, 48, 0
16, 268320, Note_on_c, 14, 45, 84
16, 268499, Note_on_c, 14, 45, 0
16, 268560, Note_on_c, 14, 48, 84
16, 268739, Note_on_c, 14, 48, 0
16, 268800, Note_on_c, 14, 54, 84
16, 268979, Note_on_c, 14, 54, 0
16, 269040, Note_on_c, 14, 57, 84
16, 269219, Note_on_c, 14, 57, 0
16, 269280, Note_on_c, 14, 60, 84
16, 269459, Note_on_c, 14, 60, 0
16, 269520, Note_on_c, 14, 57, 84
16, 269699, Note_on_c, 14, 57, 0
16, 269760, Note_on_c, 14, 54, 84
16, 269939, Note_on_c, 14, 54, 0
16, 270000, Note_on_c, 14, 48, 84
16, 270179, Note_on_c, 14, 48, 0
16, 270240, Note_on_c, 14, 45, 84
16, 270479, Note_on_c, 14, 45, 0
16, 278880, Note_on_c, 14, 60, 44
16, 279119, Note_on_c, 14, 60, 0
16, 280800, Note_on_c, 14, 59, 44
16, 281039, Note_on_c, 14, 59, 0
16, 282120, Note_on_c, 14, 49, 76
16, 282209, Note_on_c, 14, 49, 0
16, 282240, Note_on_c, 14, 49, 84
16, 282299, Note_on_c, 14, 49, 0
16, 282300, Note_on_c, 14, 50, 76
16, 282359, Note_on_c, 14, 50, 0
16, 282360, Note_on_c, 14, 49, 76
16, 282419, Note_on_c, 14, 49, 0
16, 282420, Note_on_c, 14, 50, 76
16, 282479, Note_on_c, 14, 50, 0
16, 282480, Note_on_c, 14, 49, 76
16, 282539, Note_on_c, 14, 49, 0
16, 282540, Note_on_c, 14, 50, 76
16, 282599, Note_on_c, 14, 50, 0
16, 282600, Note_on_c, 14, 47, 76
16, 282659, Note_on_c, 14, 47, 0
16, 282660, Note_on_c, 14, 49, 76
16, 282704, Note_on_c, 14, 49, 0
16, 282720, Note_on_c, 14, 52, 76
16, 282899, Note_on_c, 14, 52, 0
16, 282960, Note_on_c, 14, 45, 76
16, 283139, Note_on_c, 14, 45, 0
16, 283440, Note_on_c, 14, 67, 52
16, 283679, Note_on_c, 14, 67, 0
16, 283680, Note_on_c, 14, 66, 52
16, 284159, Note_on_c, 14, 66, 0
16, 284160, Note_on_c, 14, 61, 52
16, 284609, Note_on_c, 14, 61, 0
16, 284640, Note_on_c, 14, 62, 52
16, 285119, Note_on_c, 14, 62, 0
16, 285120, Note_on_c, 14, 55, 52
16, 285599, Note_on_c, 14, 55, 0
16, 285600, Note_on_c, 14, 57, 52
16, 286079, Note_on_c, 14, 57, 0
16, 286080, Note_on_c, 14, 45, 52
16, 286529, Note_on_c, 14, 45, 0
16, 286560, Note_on_c, 14, 50, 76
16, 286739, Note_on_c, 14, 50, 0
16, 286800, Note_on_c, 14, 45, 76
16, 286979, Note_on_c, 14, 45, 0
16, 287880, Note_on_c, 14, 49, 76
16, 287969, Note_on_c, 14, 49, 0
16, 288000, Note_on_c, 14, 49, 84
16, 288059, Note_on_c, 14, 49, 0
16, 288060, Note_on_c, 14, 50, 76
16, 288119, Note_on_c, 14, 50, 0
16, 288120, Note_on_c, 14, 49, 76
16, 288179, Note_on_c, 14, 49, 0
16, 288180, Note_on_c, 14, 50, 76
16, 288239, Note_on_c, 14, 50, 0
16, 288240, Note_on_c, 14, 49, 76
16, 288299, Note_on_c, 14, 49, 0
16, 288300, Note_on_c, 14, 50, 76
16, 288359, Note_on_c, 14, 50, 0
16, 288360, Note_on_c, 14, 47, 76
16, 288419, Note_on_c, 14, 47, 0
16, 288420, Note_on_c, 14, 49, 76
16, 288464, Note_on_c, 14, 49, 0
16, 288480, Note_on_c, 14, 52, 76
16, 288659, Note_on_c, 14, 52, 0
16, 288720, Note_on_c, 14, 45, 76
16, 288899, Note_on_c, 14, 45, 0
16, 289800, Note_on_c, 14, 50, 76
16, 289889, Note_on_c, 14, 50, 0
16, 289920, Note_on_c, 14, 50, 76
16, 289979, Note_on_c, 14, 50, 0
16, 289980, Note_on_c, 14, 52, 76
16, 290039, Note_on_c, 14, 52, 0
16, 290040, Note_on_c, 14, 50, 76
16, 290099, Note_on_c, 14, 50, 0
16, 290100, Note_on_c, 14, 52, 76
16, 290159, Note_on_c, 14, 52, 0
16, 290160, Note_on_c, 14, 50, 76
16, 290219, Note_on_c, 14, 50, 0
16, 290220, Note_on_c, 14, 52, 76
16, 290279, Note_on_c, 14, 52, 0
16, 290280, Note_on_c, 14, 49, 76
16, 290339, Note_on_c, 14, 49, 0
16, 290340, Note_on_c, 14, 50, 76
16, 290384, Note_on_c, 14, 50, 0
16, 290400, Note_on_c, 14, 55, 76
16, 290579, Note_on_c, 14, 55, 0
16, 290640, Note_on_c, 14, 46, 76
16, 290819, Note_on_c, 14, 46, 0
16, 291600, Note_on_c, 14, 50, 84
16, 291779, Note_on_c, 14, 50, 0
16, 291840, Note_on_c, 14, 55, 76
16, 292019, Note_on_c, 14, 55, 0
16, 292080, Note_on_c, 14, 47, 76
16, 292259, Note_on_c, 14, 47, 0
16, 292560, Note_on_c, 14, 52, 84
16, 292739, Note_on_c, 14, 52, 0
16, 292800, Note_on_c, 14, 55, 76
16, 292979, Note_on_c, 14, 55, 0
16, 293040, Note_on_c, 14, 48, 76
16, 293219, Note_on_c, 14, 48, 0
16, 293520, Note_on_c, 14, 55, 84
16, 293699, Note_on_c, 14, 55, 0
16, 293760, Note_on_c, 14, 58, 76
16, 293939, Note_on_c, 14, 58, 0
16, 294000, Note_on_c, 14, 49, 76
16, 294179, Note_on_c, 14, 49, 0
16, 294240, Note_on_c, 14, 50, 76
16, 294419, Note_on_c, 14, 50, 0
16, 294480, Note_on_c, 14, 59, 76
16, 294659, Note_on_c, 14, 59, 0
16, 294720, Note_on_c, 14, 51, 76
16, 294899, Note_on_c, 14, 51, 0
16, 294960, Note_on_c, 14, 60, 76
16, 295139, Note_on_c, 14, 60, 0
16, 295200, Note_on_c, 14, 52, 76
16, 295379, Note_on_c, 14, 52, 0
16, 295440, Note_on_c, 14, 61, 76
16, 295619, Note_on_c, 14, 61, 0
16, 295680, Note_on_c, 14, 53, 76
16, 295859, Note_on_c, 14, 53, 0
16, 295920, Note_on_c, 14, 62, 76
16, 296099, Note_on_c, 14, 62, 0
16, 296160, Note_on_c, 14, 53, 76
16, 296339, Note_on_c, 14, 53, 0
16, 296400, Note_on_c, 14, 62, 76
16, 296579, Note_on_c, 14, 62, 0
16, 296640, Note_on_c, 14, 54, 76
16, 296819, Note_on_c, 14, 54, 0
16, 296880, Note_on_c, 14, 62, 76
16, 297059, Note_on_c, 14, 62, 0
16, 297120, Note_on_c, 14, 55, 76
16, 297299, Note_on_c, 14, 55, 0
16, 297360, Note_on_c, 14, 62, 76
16, 297539, Note_on_c, 14, 62, 0
16, 297600, Note_on_c, 14, 57, 76
16, 297779, Note_on_c, 14, 57, 0
16, 297840, Note_on_c, 14, 62, 76
16, 298019, Note_on_c, 14, 62, 0
16, 298080, Note_on_c, 14, 58, 76
16, 298259, Note_on_c, 14, 58, 0
16, 298320, Note_on_c, 14, 62, 76
16, 298499, Note_on_c, 14, 62, 0
16, 298560, Note_on_c, 14, 56, 76
16, 298739, Note_on_c, 14, 56, 0
16, 298800, Note_on_c, 14, 62, 76
16, 298979, Note_on_c, 14, 62, 0
16, 299040, Note_on_c, 14, 57, 76
16, 299129, Note_on_c, 14, 57, 0
16, 299160, Note_on_c, 14, 57, 52
16, 299249, Note_on_c, 14, 57, 0
16, 299280, Note_on_c, 14, 57, 52
16, 299369, Note_on_c, 14, 57, 0
16, 299400, Note_on_c, 14, 57, 52
16, 299489, Note_on_c, 14, 57, 0
16, 299520, Note_on_c, 14, 57, 52
16, 299609, Note_on_c, 14, 57, 0
16, 299640, Note_on_c, 14, 57, 52
16, 299729, Note_on_c, 14, 57, 0
16, 299760, Note_on_c, 14, 57, 52
16, 299849, Note_on_c, 14, 57, 0
16, 299880, Note_on_c, 14, 57, 52
16, 299969, Note_on_c, 14, 57, 0
16, 300000, Note_on_c, 14, 57, 52
16, 300089, Note_on_c, 14, 57, 0
16, 300120, Note_on_c, 14, 57, 52
16, 300209, Note_on_c, 14, 57, 0
16, 300240, Note_on_c, 14, 57, 52
16, 300329, Note_on_c, 14, 57, 0
16, 300360, Note_on_c, 14, 57, 52
16, 300449, Note_on_c, 14, 57, 0
16, 300480, Note_on_c, 14, 57, 52
16, 300569, Note_on_c, 14, 57, 0
16, 300600, Note_on_c, 14, 57, 52
16, 300689, Note_on_c, 14, 57, 0
16, 300720, Note_on_c, 14, 57, 52
16, 300809, Note_on_c, 14, 57, 0
16, 300840, Note_on_c, 14, 57, 52
16, 300929, Note_on_c, 14, 57, 0
16, 300960, Note_on_c, 14, 57, 76
16, 301049, Note_on_c, 14, 57, 0
16, 301080, Note_on_c, 14, 57, 52
16, 301169, Note_on_c, 14, 57, 0
16, 301200, Note_on_c, 14, 57, 52
16, 301289, Note_on_c, 14, 57, 0
16, 301320, Note_on_c, 14, 57, 52
16, 301409, Note_on_c, 14, 57, 0
16, 301440, Note_on_c, 14, 57, 52
16, 301529, Note_on_c, 14, 57, 0
16, 301560, Note_on_c, 14, 57, 52
16, 301649, Note_on_c, 14, 57, 0
16, 301680, Note_on_c, 14, 57, 52
16, 301769, Note_on_c, 14, 57, 0
16, 301800, Note_on_c, 14, 57, 52
16, 301889, Note_on_c, 14, 57, 0
16, 301920, Note_on_c, 14, 57, 52
16, 302009, Note_on_c, 14, 57, 0
16, 302040, Note_on_c, 14, 57, 52
16, 302129, Note_on_c, 14, 57, 0
16, 302160, Note_on_c, 14, 57, 52
16, 302249, Note_on_c, 14, 57, 0
16, 302280, Note_on_c, 14, 57, 52
16, 302369, Note_on_c, 14, 57, 0
16, 302400, Note_on_c, 14, 57, 52
16, 302489, Note_on_c, 14, 57, 0
16, 302520, Note_on_c, 14, 57, 52
16, 302609, Note_on_c, 14, 57, 0
16, 302640, Note_on_c, 14, 57, 52
16, 302729, Note_on_c, 14, 57, 0
16, 302760, Note_on_c, 14, 57, 52
16, 302849, Note_on_c, 14, 57, 0
16, 302880, Note_on_c, 14, 57, 76
16, 302969, Note_on_c, 14, 57, 0
16, 303000, Note_on_c, 14, 57, 52
16, 303089, Note_on_c, 14, 57, 0
16, 303120, Note_on_c, 14, 57, 52
16, 303209, Note_on_c, 14, 57, 0
16, 303240, Note_on_c, 14, 57, 52
16, 303329, Note_on_c, 14, 57, 0
16, 303360, Note_on_c, 14, 57, 52
16, 303449, Note_on_c, 14, 57, 0
16, 303480, Note_on_c, 14, 57, 52
16, 303569, Note_on_c, 14, 57, 0
16, 303600, Note_on_c, 14, 57, 52
16, 303689, Note_on_c, 14, 57, 0
16, 303720, Note_on_c, 14, 57, 52
16, 303809, Note_on_c, 14, 57, 0
16, 303840, Note_on_c, 14, 57, 76
16, 303929, Note_on_c, 14, 57, 0
16, 303960, Note_on_c, 14, 57, 52
16, 304049, Note_on_c, 14, 57, 0
16, 304080, Note_on_c, 14, 57, 52
16, 304169, Note_on_c, 14, 57, 0
16, 304200, Note_on_c, 14, 57, 52
16, 304289, Note_on_c, 14, 57, 0
16, 304320, Note_on_c, 14, 57, 52
16, 304409, Note_on_c, 14, 57, 0
16, 304440, Note_on_c, 14, 57, 52
16, 304529, Note_on_c, 14, 57, 0
16, 304560, Note_on_c, 14, 57, 52
16, 304649, Note_on_c, 14, 57, 0
16, 304680, Note_on_c, 14, 57, 52
16, 304769, Note_on_c, 14, 57, 0
16, 304800, Note_on_c, 14, 57, 76
16, 304889, Note_on_c, 14, 57, 0
16, 304920, Note_on_c, 14, 57, 52
16, 305009, Note_on_c, 14, 57, 0
16, 305040, Note_on_c, 14, 57, 52
16, 305129, Note_on_c, 14, 57, 0
16, 305160, Note_on_c, 14, 57, 52
16, 305249, Note_on_c, 14, 57, 0
16, 305280, Note_on_c, 14, 57, 52
16, 305369, Note_on_c, 14, 57, 0
16, 305400, Note_on_c, 14, 57, 52
16, 305489, Note_on_c, 14, 57, 0
16, 305520, Note_on_c, 14, 57, 52
16, 305609, Note_on_c, 14, 57, 0
16, 305640, Note_on_c, 14, 57, 52
16, 305729, Note_on_c, 14, 57, 0
16, 305760, Note_on_c, 14, 57, 76
16, 305849, Note_on_c, 14, 57, 0
16, 305880, Note_on_c, 14, 57, 52
16, 305969, Note_on_c, 14, 57, 0
16, 306000, Note_on_c, 14, 57, 52
16, 306089, Note_on_c, 14, 57, 0
16, 306120, Note_on_c, 14, 57, 52
16, 306209, Note_on_c, 14, 57, 0
16, 306240, Note_on_c, 14, 57, 52
16, 306329, Note_on_c, 14, 57, 0
16, 306360, Note_on_c, 14, 57, 52
16, 306449, Note_on_c, 14, 57, 0
16, 306480, Note_on_c, 14, 57, 52
16, 306569, Note_on_c, 14, 57, 0
16, 306600, Note_on_c, 14, 57, 52
16, 306689, Note_on_c, 14, 57, 0
16, 306705, Control_c, 14, 11, 80
16, 306720, Note_on_c, 14, 57, 76
16, 306809, Note_on_c, 14, 57, 0
16, 306840, Note_on_c, 14, 57, 76
16, 306880, Control_c, 14, 11, 84
16, 306929, Note_on_c, 14, 57, 0
16, 306960, Note_on_c, 14, 57, 76
16, 307040, Control_c, 14, 11, 88
16, 307049, Note_on_c, 14, 57, 0
16, 307080, Note_on_c, 14, 57, 76
16, 307169, Note_on_c, 14, 57, 0
16, 307200, Control_c, 14, 11, 92
16, 307200, Note_on_c, 14, 57, 76
16, 307289, Note_on_c, 14, 57, 0
16, 307320, Note_on_c, 14, 57, 76
16, 307360, Control_c, 14, 11, 96
16, 307409, Note_on_c, 14, 57, 0
16, 307440, Note_on_c, 14, 57, 76
16, 307520, Control_c, 14, 11, 100
16, 307529, Note_on_c, 14, 57, 0
16, 307560, Note_on_c, 14, 57, 76
16, 307649, Note_on_c, 14, 57, 0
16, 307680, Control_c, 14, 11, 104
16, 307680, Note_on_c, 14, 57, 76
16, 307769, Note_on_c, 14, 57, 0
16, 307800, Note_on_c, 14, 57, 76
16, 307840, Control_c, 14, 11, 107
16, 307889, Note_on_c, 14, 57, 0
16, 307920, Note_on_c, 14, 57, 76
16, 308000, Control_c, 14, 11, 111
16, 308009, Note_on_c, 14, 57, 0
16, 308040, Note_on_c, 14, 57, 76
16, 308129, Note_on_c, 14, 57, 0
16, 308160, Note_on_c, 14, 57, 76
16, 308160, Control_c, 14, 11, 115
16, 308249, Note_on_c, 14, 57, 0
16, 308280, Note_on_c, 14, 57, 76
16, 308320, Control_c, 14, 11, 119
16, 308369, Note_on_c, 14, 57, 0
16, 308400, Note_on_c, 14, 57, 76
16, 308480, Control_c, 14, 11, 127
16, 308489, Note_on_c, 14, 57, 0
16, 308520, Note_on_c, 14, 57, 76
16, 308609, Note_on_c, 14, 57, 0
16, 308640, Note_on_c, 14, 62, 76
16, 308729, Note_on_c, 14, 62, 0
16, 308760, Note_on_c, 14, 50, 52
16, 308849, Note_on_c, 14, 50, 0
16, 308880, Note_on_c, 14, 50, 52
16, 308969, Note_on_c, 14, 50, 0
16, 309000, Note_on_c, 14, 50, 52
16, 309089, Note_on_c, 14, 50, 0
16, 309120, Note_on_c, 14, 50, 52
16, 309209, Note_on_c, 14, 50, 0
16, 309240, Note_on_c, 14, 50, 52
16, 309329, Note_on_c, 14, 50, 0
16, 309360, Note_on_c, 14, 50, 52
16, 309449, Note_on_c, 14, 50, 0
16, 309480, Note_on_c, 14, 50, 52
16, 309569, Note_on_c, 14, 50, 0
16, 309600, Note_on_c, 14, 50, 52
16, 309689, Note_on_c, 14, 50, 0
16, 309720, Note_on_c, 14, 50, 52
16, 309809, Note_on_c, 14, 50, 0
16, 309840, Note_on_c, 14, 50, 52
16, 309929, Note_on_c, 14, 50, 0
16, 309960, Note_on_c, 14, 50, 52
16, 310049, Note_on_c, 14, 50, 0
16, 310080, Note_on_c, 14, 50, 52
16, 310169, Note_on_c, 14, 50, 0
16, 310200, Note_on_c, 14, 50, 52
16, 310289, Note_on_c, 14, 50, 0
16, 310320, Note_on_c, 14, 50, 52
16, 310409, Note_on_c, 14, 50, 0
16, 310440, Note_on_c, 14, 50, 52
16, 310529, Note_on_c, 14, 50, 0
16, 310560, Note_on_c, 14, 50, 76
16, 310649, Note_on_c, 14, 50, 0
16, 310680, Note_on_c, 14, 50, 52
16, 310769, Note_on_c, 14, 50, 0
16, 310800, Note_on_c, 14, 50, 52
16, 310889, Note_on_c, 14, 50, 0
16, 310920, Note_on_c, 14, 50, 52
16, 311009, Note_on_c, 14, 50, 0
16, 311040, Note_on_c, 14, 50, 52
16, 311129, Note_on_c, 14, 50, 0
16, 311160, Note_on_c, 14, 50, 52
16, 311249, Note_on_c, 14, 50, 0
16, 311280, Note_on_c, 14, 50, 52
16, 311369, Note_on_c, 14, 50, 0
16, 311400, Note_on_c, 14, 50, 52
16, 311489, Note_on_c, 14, 50, 0
16, 311520, Note_on_c, 14, 50, 52
16, 311609, Note_on_c, 14, 50, 0
16, 311640, Note_on_c, 14, 50, 52
16, 311729, Note_on_c, 14, 50, 0
16, 311760, Note_on_c, 14, 50, 52
16, 311849, Note_on_c, 14, 50, 0
16, 311880, Note_on_c, 14, 50, 52
16, 311969, Note_on_c, 14, 50, 0
16, 312000, Note_on_c, 14, 50, 52
16, 312089, Note_on_c, 14, 50, 0
16, 312120, Note_on_c, 14, 50, 52
16, 312209, Note_on_c, 14, 50, 0
16, 312240, Note_on_c, 14, 50, 52
16, 312329, Note_on_c, 14, 50, 0
16, 312360, Note_on_c, 14, 50, 52
16, 312449, Note_on_c, 14, 50, 0
16, 312480, Note_on_c, 14, 50, 76
16, 312569, Note_on_c, 14, 50, 0
16, 312600, Note_on_c, 14, 50, 52
16, 312689, Note_on_c, 14, 50, 0
16, 312720, Note_on_c, 14, 50, 52
16, 312809, Note_on_c, 14, 50, 0
16, 312840, Note_on_c, 14, 50, 52
16, 312929, Note_on_c, 14, 50, 0
16, 312960, Note_on_c, 14, 50, 52
16, 313049, Note_on_c, 14, 50, 0
16, 313080, Note_on_c, 14, 50, 52
16, 313169, Note_on_c, 14, 50, 0
16, 313200, Note_on_c, 14, 50, 52
16, 313289, Note_on_c, 14, 50, 0
16, 313320, Note_on_c, 14, 50, 52
16, 313409, Note_on_c, 14, 50, 0
16, 313440, Note_on_c, 14, 50, 76
16, 313529, Note_on_c, 14, 50, 0
16, 313560, Note_on_c, 14, 50, 52
16, 313649, Note_on_c, 14, 50, 0
16, 313680, Note_on_c, 14, 50, 52
16, 313769, Note_on_c, 14, 50, 0
16, 313800, Note_on_c, 14, 50, 52
16, 313889, Note_on_c, 14, 50, 0
16, 313920, Note_on_c, 14, 50, 52
16, 314009, Note_on_c, 14, 50, 0
16, 314040, Note_on_c, 14, 50, 52
16, 314129, Note_on_c, 14, 50, 0
16, 314160, Note_on_c, 14, 50, 52
16, 314249, Note_on_c, 14, 50, 0
16, 314280, Note_on_c, 14, 50, 52
16, 314369, Note_on_c, 14, 50, 0
16, 314400, Note_on_c, 14, 50, 76
16, 314489, Note_on_c, 14, 50, 0
16, 314520, Note_on_c, 14, 50, 52
16, 314609, Note_on_c, 14, 50, 0
16, 314640, Note_on_c, 14, 50, 52
16, 314729, Note_on_c, 14, 50, 0
16, 314760, Note_on_c, 14, 50, 52
16, 314849, Note_on_c, 14, 50, 0
16, 314880, Note_on_c, 14, 50, 52
16, 314969, Note_on_c, 14, 50, 0
16, 315000, Note_on_c, 14, 50, 52
16, 315089, Note_on_c, 14, 50, 0
16, 315120, Note_on_c, 14, 50, 52
16, 315209, Note_on_c, 14, 50, 0
16, 315240, Note_on_c, 14, 50, 52
16, 315329, Note_on_c, 14, 50, 0
16, 315360, Note_on_c, 14, 50, 76
16, 315449, Note_on_c, 14, 50, 0
16, 315480, Note_on_c, 14, 50, 52
16, 315569, Note_on_c, 14, 50, 0
16, 315600, Note_on_c, 14, 50, 52
16, 315689, Note_on_c, 14, 50, 0
16, 315720, Note_on_c, 14, 50, 52
16, 315809, Note_on_c, 14, 50, 0
16, 315840, Note_on_c, 14, 50, 52
16, 315929, Note_on_c, 14, 50, 0
16, 315960, Note_on_c, 14, 50, 52
16, 316049, Note_on_c, 14, 50, 0
16, 316080, Note_on_c, 14, 50, 52
16, 316169, Note_on_c, 14, 50, 0
16, 316200, Note_on_c, 14, 50, 52
16, 316289, Note_on_c, 14, 50, 0
16, 316320, Note_on_c, 14, 50, 76
16, 316799, Note_on_c, 14, 50, 0
16, 316800, Note_on_c, 14, 52, 76
16, 317039, Note_on_c, 14, 52, 0
16, 317040, Note_on_c, 14, 54, 76
16, 317249, Note_on_c, 14, 54, 0
16, 317280, Note_on_c, 14, 55, 84
16, 317759, Note_on_c, 14, 55, 0
16, 317760, Note_on_c, 14, 54, 76
16, 317999, Note_on_c, 14, 54, 0
16, 318000, Note_on_c, 14, 52, 76
16, 318209, Note_on_c, 14, 52, 0
16, 318240, Note_on_c, 14, 57, 84
16, 318719, Note_on_c, 14, 57, 0
16, 318720, Note_on_c, 14, 55, 76
16, 318959, Note_on_c, 14, 55, 0
16, 318960, Note_on_c, 14, 54, 76
16, 319169, Note_on_c, 14, 54, 0
16, 319200, Note_on_c, 14, 59, 84
16, 319679, Note_on_c, 14, 59, 0
16, 319680, Note_on_c, 14, 57, 76
16, 319919, Note_on_c, 14, 57, 0
16, 319920, Note_on_c, 14, 55, 76
16, 320129, Note_on_c, 14, 55, 0
16, 320160, Note_on_c, 14, 61, 84
16, 323939, Note_on_c, 14, 61, 0
16, 324000, Note_on_c, 14, 46, 52
16, 325859, Note_on_c, 14, 46, 0
16, 325920, Note_on_c, 14, 54, 44
16, 326099, Note_on_c, 14, 54, 0
16, 326400, Note_on_c, 14, 52, 44
16, 326579, Note_on_c, 14, 52, 0
16, 326880, Note_on_c, 14, 50, 44
16, 327059, Note_on_c, 14, 50, 0
16, 327360, Note_on_c, 14, 49, 44
16, 327539, Note_on_c, 14, 49, 0
16, 327840, Note_on_c, 14, 47, 44
16, 328019, Note_on_c, 14, 47, 0
16, 328320, Note_on_c, 14, 57, 44
16, 328499, Note_on_c, 14, 57, 0
16, 328800, Note_on_c, 14, 55, 44
16, 328979, Note_on_c, 14, 55, 0
16, 329280, Note_on_c, 14, 54, 44
16, 329459, Note_on_c, 14, 54, 0
16, 329760, Note_on_c, 14, 52, 44
16, 329939, Note_on_c, 14, 52, 0
16, 330240, Note_on_c, 14, 50, 44
16, 330419, Note_on_c, 14, 50, 0
16, 330720, Note_on_c, 14, 49, 44
16, 330899, Note_on_c, 14, 49, 0
16, 331200, Note_on_c, 14, 47, 44
16, 331379, Note_on_c, 14, 47, 0
16, 331440, Control_c, 14, 11, 96
16, 331680, Note_on_c, 14, 45, 60
16, 331680, Control_c, 14, 11, 96
16, 331840, Control_c, 14, 11, 99
16, 331859, Note_on_c, 14, 45, 0
16, 332000, Control_c, 14, 11, 101
16, 332160, Note_on_c, 14, 50, 60
16, 332160, Control_c, 14, 11, 104
16, 332320, Control_c, 14, 11, 106
16, 332339, Note_on_c, 14, 50, 0
16, 332480, Control_c, 14, 11, 109
16, 332640, Note_on_c, 14, 43, 60
16, 332640, Control_c, 14, 11, 112
16, 332800, Control_c, 14, 11, 114
16, 332819, Note_on_c, 14, 43, 0
16, 332960, Control_c, 14, 11, 117
16, 333120, Note_on_c, 14, 45, 60
16, 333120, Control_c, 14, 11, 119
16, 333280, Control_c, 14, 11, 122
16, 333299, Note_on_c, 14, 45, 0
16, 333360, Program_c, 14, 45
16, 333440, Control_c, 14, 11, 127
16, 333600, Note_on_c, 14, 54, 44
16, 333839, Note_on_c, 14, 54, 0
16, 334080, Note_on_c, 14, 52, 44
16, 334319, Note_on_c, 14, 52, 0
16, 334560, Note_on_c, 14, 50, 44
16, 334799, Note_on_c, 14, 50, 0
16, 335040, Note_on_c, 14, 49, 44
16, 335279, Note_on_c, 14, 49, 0
16, 335520, Note_on_c, 14, 47, 44
16, 335759, Note_on_c, 14, 47, 0
16, 336000, Note_on_c, 14, 57, 44
16, 336239, Note_on_c, 14, 57, 0
16, 336480, Note_on_c, 14, 55, 44
16, 336719, Note_on_c, 14, 55, 0
16, 336960, Note_on_c, 14, 54, 44
16, 337199, Note_on_c, 14, 54, 0
16, 337440, Note_on_c, 14, 52, 44
16, 337679, Note_on_c, 14, 52, 0
16, 337920, Note_on_c, 14, 50, 44
16, 338159, Note_on_c, 14, 50, 0
16, 338400, Note_on_c, 14, 49, 44
16, 338639, Note_on_c, 14, 49, 0
16, 338880, Note_on_c, 14, 47, 44
16, 339119, Note_on_c, 14, 47, 0
16, 339360, Note_on_c, 14, 45, 44
16, 339599, Note_on_c, 14, 45, 0
16, 339840, Note_on_c, 14, 55, 44
16, 340079, Note_on_c, 14, 55, 0
16, 340320, Note_on_c, 14, 54, 44
16, 340559, Note_on_c, 14, 54, 0
16, 340800, Note_on_c, 14, 52, 44
16, 341039, Note_on_c, 14, 52, 0
16, 341280, Note_on_c, 14, 50, 44
16, 341519, Note_on_c, 14, 50, 0
16, 341760, Note_on_c, 14, 48, 44
16, 341999, Note_on_c, 14, 48, 0
16, 342240, Note_on_c, 14, 47, 44
16, 342479, Note_on_c, 14, 47, 0
16, 342720, Note_on_c, 14, 45, 44
16, 342959, Note_on_c, 14, 45, 0
16, 343200, Note_on_c, 14, 43, 44
16, 343439, Note_on_c, 14, 43, 0
16, 343680, Note_on_c, 14, 48, 44
16, 343919, Note_on_c, 14, 48, 0
16, 344160, Note_on_c, 14, 47, 44
16, 344399, Note_on_c, 14, 47, 0
16, 344640, Note_on_c, 14, 45, 44
16, 344879, Note_on_c, 14, 45, 0
16, 344880, Program_c, 14, 48
16, 345120, Note_on_c, 14, 43, 44
16, 345360, Control_c, 14, 11, 127
16, 345599, Note_on_c, 14, 43, 0
16, 345600, Note_on_c, 14, 48, 44
16, 345660, Control_c, 14, 11, 126
16, 345960, Control_c, 14, 11, 125
16, 346079, Note_on_c, 14, 48, 0
16, 346080, Note_on_c, 14, 47, 44
16, 346260, Control_c, 14, 11, 123
16, 346559, Note_on_c, 14, 47, 0
16, 346560, Note_on_c, 14, 45, 44
16, 346560, Control_c, 14, 11, 122
16, 346860, Control_c, 14, 11, 121
16, 347009, Note_on_c, 14, 45, 0
16, 347040, Note_on_c, 14, 43, 44
16, 347160, Control_c, 14, 11, 120
16, 347460, Control_c, 14, 11, 118
16, 347519, Note_on_c, 14, 43, 0
16, 347520, Note_on_c, 14, 48, 44
16, 347760, Control_c, 14, 11, 117
16, 347999, Note_on_c, 14, 48, 0
16, 348000, Note_on_c, 14, 47, 44
16, 348060, Control_c, 14, 11, 116
16, 348360, Control_c, 14, 11, 115
16, 348479, Note_on_c, 14, 47, 0
16, 348480, Note_on_c, 14, 45, 44
16, 348660, Control_c, 14, 11, 113
16, 348929, Note_on_c, 14, 45, 0
16, 348960, Control_c, 14, 11, 127
16, 348960, Note_on_c, 14, 43, 44
16, 349919, Note_on_c, 14, 43, 0
16, 349920, Note_on_c, 14, 48, 44
16, 350879, Note_on_c, 14, 48, 0
16, 350880, Note_on_c, 14, 47, 44
16, 351839, Note_on_c, 14, 47, 0
16, 351840, Note_on_c, 14, 45, 44
16, 352769, Note_on_c, 14, 45, 0
16, 352800, Note_on_c, 14, 43, 44
16, 352889, Note_on_c, 14, 43, 0
16, 352920, Note_on_c, 14, 43, 44
16, 353009, Note_on_c, 14, 43, 0
16, 353040, Note_on_c, 14, 43, 44
16, 353129, Note_on_c, 14, 43, 0
16, 353160, Note_on_c, 14, 43, 44
16, 353249, Note_on_c, 14, 43, 0
16, 353280, Note_on_c, 14, 43, 44
16, 353369, Note_on_c, 14, 43, 0
16, 353400, Note_on_c, 14, 43, 44
16, 353489, Note_on_c, 14, 43, 0
16, 353520, Note_on_c, 14, 43, 44
16, 353609, Note_on_c, 14, 43, 0
16, 353640, Note_on_c, 14, 43, 44
16, 353729, Note_on_c, 14, 43, 0
16, 353760, Note_on_c, 14, 43, 44
16, 353849, Note_on_c, 14, 43, 0
16, 353880, Note_on_c, 14, 43, 44
16, 353969, Note_on_c, 14, 43, 0
16, 354000, Note_on_c, 14, 43, 44
16, 354089, Note_on_c, 14, 43, 0
16, 354120, Note_on_c, 14, 43, 44
16, 354209, Note_on_c, 14, 43, 0
16, 354240, Note_on_c, 14, 43, 44
16, 354329, Note_on_c, 14, 43, 0
16, 354360, Note_on_c, 14, 43, 44
16, 354449, Note_on_c, 14, 43, 0
16, 354480, Note_on_c, 14, 43, 44
16, 354569, Note_on_c, 14, 43, 0
16, 354600, Note_on_c, 14, 43, 44
16, 354689, Note_on_c, 14, 43, 0
16, 354720, Note_on_c, 14, 43, 44
16, 354809, Note_on_c, 14, 43, 0
16, 354840, Note_on_c, 14, 43, 44
16, 354929, Note_on_c, 14, 43, 0
16, 354960, Note_on_c, 14, 43, 44
16, 355049, Note_on_c, 14, 43, 0
16, 355080, Note_on_c, 14, 43, 44
16, 355169, Note_on_c, 14, 43, 0
16, 355200, Note_on_c, 14, 43, 44
16, 355289, Note_on_c, 14, 43, 0
16, 355320, Note_on_c, 14, 43, 44
16, 355409, Note_on_c, 14, 43, 0
16, 355440, Note_on_c, 14, 43, 44
16, 355529, Note_on_c, 14, 43, 0
16, 355560, Note_on_c, 14, 43, 44
16, 355649, Note_on_c, 14, 43, 0
16, 355680, Note_on_c, 14, 43, 44
16, 355769, Note_on_c, 14, 43, 0
16, 355800, Note_on_c, 14, 43, 44
16, 355889, Note_on_c, 14, 43, 0
16, 355920, Note_on_c, 14, 43, 44
16, 356009, Note_on_c, 14, 43, 0
16, 356040, Note_on_c, 14, 43, 44
16, 356129, Note_on_c, 14, 43, 0
16, 356160, Note_on_c, 14, 43, 44
16, 356249, Note_on_c, 14, 43, 0
16, 356280, Note_on_c, 14, 43, 44
16, 356369, Note_on_c, 14, 43, 0
16, 356400, Note_on_c, 14, 43, 44
16, 356489, Note_on_c, 14, 43, 0
16, 356520, Note_on_c, 14, 43, 44
16, 356609, Note_on_c, 14, 43, 0
16, 356640, Note_on_c, 14, 43, 44
16, 356729, Note_on_c, 14, 43, 0
16, 356760, Note_on_c, 14, 43, 44
16, 356849, Note_on_c, 14, 43, 0
16, 356880, Note_on_c, 14, 43, 44
16, 356969, Note_on_c, 14, 43, 0
16, 357000, Note_on_c, 14, 43, 44
16, 357089, Note_on_c, 14, 43, 0
16, 357120, Note_on_c, 14, 43, 44
16, 357209, Note_on_c, 14, 43, 0
16, 357240, Note_on_c, 14, 43, 44
16, 357329, Note_on_c, 14, 43, 0
16, 357360, Note_on_c, 14, 43, 44
16, 357449, Note_on_c, 14, 43, 0
16, 357480, Note_on_c, 14, 43, 44
16, 357569, Note_on_c, 14, 43, 0
16, 357600, Note_on_c, 14, 43, 44
16, 357689, Note_on_c, 14, 43, 0
16, 357720, Note_on_c, 14, 43, 44
16, 357809, Note_on_c, 14, 43, 0
16, 357840, Note_on_c, 14, 43, 44
16, 357929, Note_on_c, 14, 43, 0
16, 357960, Note_on_c, 14, 43, 44
16, 358049, Note_on_c, 14, 43, 0
16, 358080, Note_on_c, 14, 43, 44
16, 358169, Note_on_c, 14, 43, 0
16, 358200, Note_on_c, 14, 43, 44
16, 358289, Note_on_c, 14, 43, 0
16, 358320, Note_on_c, 14, 43, 44
16, 358409, Note_on_c, 14, 43, 0
16, 358440, Note_on_c, 14, 43, 44
16, 358529, Note_on_c, 14, 43, 0
16, 358560, Note_on_c, 14, 44, 84
16, 360449, Note_on_c, 14, 44, 0
16, 360480, Note_on_c, 14, 45, 84
16, 360569, Note_on_c, 14, 45, 0
16, 360600, Note_on_c, 14, 45, 84
16, 360689, Note_on_c, 14, 45, 0
16, 360720, Note_on_c, 14, 45, 84
16, 360809, Note_on_c, 14, 45, 0
16, 360840, Note_on_c, 14, 45, 84
16, 360929, Note_on_c, 14, 45, 0
16, 360960, Note_on_c, 14, 45, 84
16, 361049, Note_on_c, 14, 45, 0
16, 361080, Note_on_c, 14, 45, 84
16, 361169, Note_on_c, 14, 45, 0
16, 361200, Note_on_c, 14, 45, 84
16, 361289, Note_on_c, 14, 45, 0
16, 361320, Note_on_c, 14, 45, 84
16, 361409, Note_on_c, 14, 45, 0
16, 361440, Note_on_c, 14, 45, 84
16, 361529, Note_on_c, 14, 45, 0
16, 361560, Note_on_c, 14, 45, 84
16, 361649, Note_on_c, 14, 45, 0
16, 361680, Note_on_c, 14, 45, 84
16, 361769, Note_on_c, 14, 45, 0
16, 361800, Note_on_c, 14, 45, 84
16, 361889, Note_on_c, 14, 45, 0
16, 361920, Note_on_c, 14, 45, 84
16, 362009, Note_on_c, 14, 45, 0
16, 362040, Note_on_c, 14, 45, 84
16, 362129, Note_on_c, 14, 45, 0
16, 362160, Note_on_c, 14, 45, 84
16, 362249, Note_on_c, 14, 45, 0
16, 362280, Note_on_c, 14, 45, 84
16, 362369, Note_on_c, 14, 45, 0
16, 362400, Note_on_c, 14, 57, 92
16, 363569, Note_on_c, 14, 57, 0
16, 363600, Note_on_c, 14, 55, 84
16, 363689, Note_on_c, 14, 55, 0
16, 363720, Note_on_c, 14, 54, 84
16, 363809, Note_on_c, 14, 54, 0
16, 363840, Note_on_c, 14, 52, 84
16, 363929, Note_on_c, 14, 52, 0
16, 363960, Note_on_c, 14, 50, 84
16, 364049, Note_on_c, 14, 50, 0
16, 364080, Note_on_c, 14, 49, 84
16, 364169, Note_on_c, 14, 49, 0
16, 364200, Note_on_c, 14, 47, 84
16, 364289, Note_on_c, 14, 47, 0
16, 364320, Note_on_c, 14, 45, 92
16, 364409, Note_on_c, 14, 45, 0
16, 364440, Note_on_c, 14, 45, 84
16, 364529, Note_on_c, 14, 45, 0
16, 364560, Note_on_c, 14, 45, 84
16, 364649, Note_on_c, 14, 45, 0
16, 364680, Note_on_c, 14, 45, 84
16, 364769, Note_on_c, 14, 45, 0
16, 364800, Note_on_c, 14, 45, 84
16, 364889, Note_on_c, 14, 45, 0
16, 364920, Note_on_c, 14, 45, 84
16, 365009, Note_on_c, 14, 45, 0
16, 365040, Note_on_c, 14, 45, 84
16, 365129, Note_on_c, 14, 45, 0
16, 365160, Note_on_c, 14, 45, 84
16, 365249, Note_on_c, 14, 45, 0
16, 365280, Note_on_c, 14, 45, 84
16, 365369, Note_on_c, 14, 45, 0
16, 365400, Note_on_c, 14, 45, 84
16, 365489, Note_on_c, 14, 45, 0
16, 365520, Note_on_c, 14, 45, 84
16, 365609, Note_on_c, 14, 45, 0
16, 365640, Note_on_c, 14, 45, 84
16, 365729, Note_on_c, 14, 45, 0
16, 365760, Note_on_c, 14, 45, 84
16, 365849, Note_on_c, 14, 45, 0
16, 365880, Note_on_c, 14, 45, 84
16, 365969, Note_on_c, 14, 45, 0
16, 366000, Note_on_c, 14, 45, 84
16, 366089, Note_on_c, 14, 45, 0
16, 366120, Note_on_c, 14, 45, 84
16, 366209, Note_on_c, 14, 45, 0
16, 366240, Note_on_c, 14, 57, 92
16, 367289, Note_on_c, 14, 57, 0
16, 367320, Note_on_c, 14, 55, 84
16, 367409, Note_on_c, 14, 55, 0
16, 367440, Note_on_c, 14, 54, 84
16, 367529, Note_on_c, 14, 54, 0
16, 367560, Note_on_c, 14, 52, 84
16, 367649, Note_on_c, 14, 52, 0
16, 367680, Note_on_c, 14, 50, 84
16, 367769, Note_on_c, 14, 50, 0
16, 367800, Note_on_c, 14, 49, 84
16, 367889, Note_on_c, 14, 49, 0
16, 367920, Note_on_c, 14, 47, 84
16, 368009, Note_on_c, 14, 47, 0
16, 368040, Note_on_c, 14, 45, 84
16, 368129, Note_on_c, 14, 45, 0
16, 368160, Note_on_c, 14, 50, 84
16, 368399, Note_on_c, 14, 50, 0
16, 368640, Control_c, 14, 11, 112
16, 368920, Control_c, 14, 11, 113
16, 369000, Note_on_c, 14, 54, 84
16, 369119, Note_on_c, 14, 54, 0
16, 369120, Note_on_c, 14, 55, 84
16, 369200, Control_c, 14, 11, 115
16, 369359, Note_on_c, 14, 55, 0
16, 369480, Control_c, 14, 11, 116
16, 369760, Control_c, 14, 11, 117
16, 369960, Note_on_c, 14, 56, 84
16, 370040, Control_c, 14, 11, 118
16, 370079, Note_on_c, 14, 56, 0
16, 370080, Note_on_c, 14, 57, 84
16, 370319, Note_on_c, 14, 57, 0
16, 370320, Control_c, 14, 11, 120
16, 370600, Control_c, 14, 11, 121
16, 370880, Control_c, 14, 11, 122
16, 370920, Note_on_c, 14, 58, 84
16, 371039, Note_on_c, 14, 58, 0
16, 371040, Note_on_c, 14, 59, 84
16, 371160, Control_c, 14, 11, 123
16, 371279, Note_on_c, 14, 59, 0
16, 371440, Control_c, 14, 11, 125
16, 371720, Control_c, 14, 11, 126
16, 371880, Note_on_c, 14, 59, 84
16, 371999, Note_on_c, 14, 59, 0
16, 372000, Control_c, 14, 11, 127
16, 372000, Note_on_c, 14, 60, 84
16, 372089, Note_on_c, 14, 60, 0
16, 372120, Note_on_c, 14, 59, 84
16, 372209, Note_on_c, 14, 59, 0
16, 372240, Note_on_c, 14, 57, 84
16, 372329, Note_on_c, 14, 57, 0
16, 372360, Note_on_c, 14, 59, 84
16, 372449, Note_on_c, 14, 59, 0
16, 372480, Note_on_c, 14, 60, 84
16, 372569, Note_on_c, 14, 60, 0
16, 372600, Note_on_c, 14, 59, 84
16, 372689, Note_on_c, 14, 59, 0
16, 372720, Note_on_c, 14, 60, 84
16, 372809, Note_on_c, 14, 60, 0
16, 372840, Note_on_c, 14, 59, 84
16, 372929, Note_on_c, 14, 59, 0
16, 372960, Note_on_c, 14, 60, 84
16, 373049, Note_on_c, 14, 60, 0
16, 373080, Note_on_c, 14, 59, 84
16, 373169, Note_on_c, 14, 59, 0
16, 373200, Note_on_c, 14, 57, 84
16, 373289, Note_on_c, 14, 57, 0
16, 373320, Note_on_c, 14, 59, 84
16, 373409, Note_on_c, 14, 59, 0
16, 373440, Note_on_c, 14, 60, 84
16, 373529, Note_on_c, 14, 60, 0
16, 373560, Note_on_c, 14, 59, 84
16, 373649, Note_on_c, 14, 59, 0
16, 373680, Note_on_c, 14, 60, 84
16, 373769, Note_on_c, 14, 60, 0
16, 373800, Note_on_c, 14, 59, 84
16, 373889, Note_on_c, 14, 59, 0
16, 373920, Note_on_c, 14, 60, 84
16, 374009, Note_on_c, 14, 60, 0
16, 374040, Note_on_c, 14, 59, 84
16, 374129, Note_on_c, 14, 59, 0
16, 374160, Note_on_c, 14, 60, 84
16, 374249, Note_on_c, 14, 60, 0
16, 374280, Note_on_c, 14, 59, 84
16, 374369, Note_on_c, 14, 59, 0
16, 374400, Note_on_c, 14, 60, 84
16, 374489, Note_on_c, 14, 60, 0
16, 374520, Note_on_c, 14, 59, 84
16, 374609, Note_on_c, 14, 59, 0
16, 374640, Note_on_c, 14, 60, 84
16, 374729, Note_on_c, 14, 60, 0
16, 374760, Note_on_c, 14, 59, 84
16, 374849, Note_on_c, 14, 59, 0
16, 374880, Note_on_c, 14, 60, 84
16, 374969, Note_on_c, 14, 60, 0
16, 375000, Note_on_c, 14, 59, 84
16, 375089, Note_on_c, 14, 59, 0
16, 375120, Note_on_c, 14, 57, 84
16, 375209, Note_on_c, 14, 57, 0
16, 375240, Note_on_c, 14, 55, 84
16, 375329, Note_on_c, 14, 55, 0
16, 375360, Note_on_c, 14, 54, 84
16, 375449, Note_on_c, 14, 54, 0
16, 375480, Note_on_c, 14, 52, 84
16, 375569, Note_on_c, 14, 52, 0
16, 375600, Note_on_c, 14, 50, 84
16, 375689, Note_on_c, 14, 50, 0
16, 375720, Note_on_c, 14, 48, 84
16, 375809, Note_on_c, 14, 48, 0
16, 375840, Note_on_c, 14, 47, 92
16, 375929, Note_on_c, 14, 47, 0
16, 375960, Note_on_c, 14, 47, 84
16, 376049, Note_on_c, 14, 47, 0
16, 376080, Note_on_c, 14, 47, 84
16, 376169, Note_on_c, 14, 47, 0
16, 376200, Note_on_c, 14, 47, 84
16, 376289, Note_on_c, 14, 47, 0
16, 376320, Note_on_c, 14, 47, 84
16, 376409, Note_on_c, 14, 47, 0
16, 376440, Note_on_c, 14, 47, 84
16, 376529, Note_on_c, 14, 47, 0
16, 376560, Note_on_c, 14, 47, 84
16, 376649, Note_on_c, 14, 47, 0
16, 376680, Note_on_c, 14, 47, 84
16, 376769, Note_on_c, 14, 47, 0
16, 376800, Note_on_c, 14, 46, 92
16, 376889, Note_on_c, 14, 46, 0
16, 376920, Note_on_c, 14, 46, 84
16, 377009, Note_on_c, 14, 46, 0
16, 377040, Note_on_c, 14, 46, 84
16, 377129, Note_on_c, 14, 46, 0
16, 377160, Note_on_c, 14, 46, 84
16, 377249, Note_on_c, 14, 46, 0
16, 377280, Note_on_c, 14, 46, 84
16, 377369, Note_on_c, 14, 46, 0
16, 377400, Note_on_c, 14, 46, 84
16, 377489, Note_on_c, 14, 46, 0
16, 377520, Note_on_c, 14, 46, 84
16, 377609, Note_on_c, 14, 46, 0
16, 377640, Note_on_c, 14, 46, 84
16, 377729, Note_on_c, 14, 46, 0
16, 377760, Note_on_c, 14, 45, 92
16, 377849, Note_on_c, 14, 45, 0
16, 377880, Note_on_c, 14, 45, 84
16, 377969, Note_on_c, 14, 45, 0
16, 378000, Note_on_c, 14, 45, 84
16, 378089, Note_on_c, 14, 45, 0
16, 378120, Note_on_c, 14, 45, 84
16, 378209, Note_on_c, 14, 45, 0
16, 378240, Note_on_c, 14, 45, 84
16, 378329, Note_on_c, 14, 45, 0
16, 378360, Note_on_c, 14, 45, 84
16, 378449, Note_on_c, 14, 45, 0
16, 378480, Note_on_c, 14, 45, 84
16, 378569, Note_on_c, 14, 45, 0
16, 378600, Note_on_c, 14, 45, 84
16, 378689, Note_on_c, 14, 45, 0
16, 378720, Note_on_c, 14, 45, 92
16, 378809, Note_on_c, 14, 45, 0
16, 378840, Note_on_c, 14, 45, 84
16, 378929, Note_on_c, 14, 45, 0
16, 378960, Note_on_c, 14, 45, 84
16, 379049, Note_on_c, 14, 45, 0
16, 379080, Note_on_c, 14, 45, 84
16, 379169, Note_on_c, 14, 45, 0
16, 379200, Note_on_c, 14, 45, 84
16, 379289, Note_on_c, 14, 45, 0
16, 379320, Note_on_c, 14, 45, 84
16, 379409, Note_on_c, 14, 45, 0
16, 379440, Note_on_c, 14, 45, 84
16, 379529, Note_on_c, 14, 45, 0
16, 379560, Note_on_c, 14, 45, 84
16, 379649, Note_on_c, 14, 45, 0
16, 379680, Note_on_c, 14, 60, 84
16, 379769, Note_on_c, 14, 60, 0
16, 379800, Note_on_c, 14, 59, 84
16, 379889, Note_on_c, 14, 59, 0
16, 379920, Note_on_c, 14, 57, 84
16, 380009, Note_on_c, 14, 57, 0
16, 380040, Note_on_c, 14, 59, 84
16, 380129, Note_on_c, 14, 59, 0
16, 380160, Note_on_c, 14, 60, 84
16, 380249, Note_on_c, 14, 60, 0
16, 380280, Note_on_c, 14, 59, 84
16, 380369, Note_on_c, 14, 59, 0
16, 380400, Note_on_c, 14, 60, 84
16, 380489, Note_on_c, 14, 60, 0
16, 380520, Note_on_c, 14, 59, 84
16, 380609, Note_on_c, 14, 59, 0
16, 380640, Note_on_c, 14, 60, 84
16, 380729, Note_on_c, 14, 60, 0
16, 380760, Note_on_c, 14, 59, 84
16, 380849, Note_on_c, 14, 59, 0
16, 380880, Note_on_c, 14, 57, 84
16, 380969, Note_on_c, 14, 57, 0
16, 381000, Note_on_c, 14, 59, 84
16, 381089, Note_on_c, 14, 59, 0
16, 381120, Note_on_c, 14, 60, 84
16, 381209, Note_on_c, 14, 60, 0
16, 381240, Note_on_c, 14, 59, 84
16, 381329, Note_on_c, 14, 59, 0
16, 381360, Note_on_c, 14, 60, 84
16, 381449, Note_on_c, 14, 60, 0
16, 381480, Note_on_c, 14, 59, 84
16, 381569, Note_on_c, 14, 59, 0
16, 381600, Note_on_c, 14, 60, 84
16, 381689, Note_on_c, 14, 60, 0
16, 381720, Note_on_c, 14, 59, 84
16, 381809, Note_on_c, 14, 59, 0
16, 381840, Note_on_c, 14, 60, 84
16, 381929, Note_on_c, 14, 60, 0
16, 381960, Note_on_c, 14, 59, 84
16, 382049, Note_on_c, 14, 59, 0
16, 382080, Note_on_c, 14, 60, 84
16, 382169, Note_on_c, 14, 60, 0
16, 382200, Note_on_c, 14, 59, 84
16, 382289, Note_on_c, 14, 59, 0
16, 382320, Note_on_c, 14, 60, 84
16, 382409, Note_on_c, 14, 60, 0
16, 382440, Note_on_c, 14, 59, 84
16, 382529, Note_on_c, 14, 59, 0
16, 382560, Note_on_c, 14, 60, 84
16, 382649, Note_on_c, 14, 60, 0
16, 382680, Note_on_c, 14, 59, 84
16, 382769, Note_on_c, 14, 59, 0
16, 382800, Note_on_c, 14, 57, 84
16, 382889, Note_on_c, 14, 57, 0
16, 382920, Note_on_c, 14, 55, 84
16, 383009, Note_on_c, 14, 55, 0
16, 383040, Note_on_c, 14, 54, 84
16, 383129, Note_on_c, 14, 54, 0
16, 383160, Note_on_c, 14, 52, 84
16, 383249, Note_on_c, 14, 52, 0
16, 383280, Note_on_c, 14, 50, 84
16, 383369, Note_on_c, 14, 50, 0
16, 383400, Note_on_c, 14, 48, 84
16, 383489, Note_on_c, 14, 48, 0
16, 383520, Note_on_c, 14, 47, 92
16, 383609, Note_on_c, 14, 47, 0
16, 383640, Note_on_c, 14, 59, 84
16, 383729, Note_on_c, 14, 59, 0
16, 383760, Note_on_c, 14, 59, 84
16, 383849, Note_on_c, 14, 59, 0
16, 383880, Note_on_c, 14, 59, 84
16, 383969, Note_on_c, 14, 59, 0
16, 384000, Note_on_c, 14, 59, 84
16, 384089, Note_on_c, 14, 59, 0
16, 384120, Note_on_c, 14, 59, 84
16, 384209, Note_on_c, 14, 59, 0
16, 384240, Note_on_c, 14, 59, 84
16, 384329, Note_on_c, 14, 59, 0
16, 384360, Note_on_c, 14, 59, 84
16, 384449, Note_on_c, 14, 59, 0
16, 384480, Note_on_c, 14, 57, 84
16, 384569, Note_on_c, 14, 57, 0
16, 384600, Note_on_c, 14, 57, 84
16, 384689, Note_on_c, 14, 57, 0
16, 384720, Note_on_c, 14, 57, 84
16, 384809, Note_on_c, 14, 57, 0
16, 384840, Note_on_c, 14, 57, 84
16, 384929, Note_on_c, 14, 57, 0
16, 384960, Note_on_c, 14, 57, 84
16, 385049, Note_on_c, 14, 57, 0
16, 385080, Note_on_c, 14, 57, 84
16, 385169, Note_on_c, 14, 57, 0
16, 385200, Note_on_c, 14, 57, 84
16, 385289, Note_on_c, 14, 57, 0
16, 385320, Note_on_c, 14, 57, 84
16, 385409, Note_on_c, 14, 57, 0
16, 385440, Note_on_c, 14, 55, 84
16, 385529, Note_on_c, 14, 55, 0
16, 385560, Note_on_c, 14, 55, 84
16, 385649, Note_on_c, 14, 55, 0
16, 385680, Note_on_c, 14, 55, 84
16, 385769, Note_on_c, 14, 55, 0
16, 385800, Note_on_c, 14, 55, 84
16, 385889, Note_on_c, 14, 55, 0
16, 385920, Note_on_c, 14, 52, 84
16, 386009, Note_on_c, 14, 52, 0
16, 386040, Note_on_c, 14, 52, 84
16, 386129, Note_on_c, 14, 52, 0
16, 386160, Note_on_c, 14, 52, 84
16, 386249, Note_on_c, 14, 52, 0
16, 386280, Note_on_c, 14, 52, 84
16, 386369, Note_on_c, 14, 52, 0
16, 386400, Note_on_c, 14, 57, 84
16, 386489, Note_on_c, 14, 57, 0
16, 386520, Note_on_c, 14, 57, 84
16, 386609, Note_on_c, 14, 57, 0
16, 386640, Note_on_c, 14, 57, 84
16, 386729, Note_on_c, 14, 57, 0
16, 386760, Note_on_c, 14, 57, 84
16, 386849, Note_on_c, 14, 57, 0
16, 386880, Note_on_c, 14, 45, 84
16, 386969, Note_on_c, 14, 45, 0
16, 387000, Note_on_c, 14, 45, 84
16, 387089, Note_on_c, 14, 45, 0
16, 387120, Note_on_c, 14, 45, 84
16, 387209, Note_on_c, 14, 45, 0
16, 387240, Note_on_c, 14, 45, 84
16, 387329, Note_on_c, 14, 45, 0
16, 387360, Note_on_c, 14, 50, 84
16, 387599, Note_on_c, 14, 50, 0
16, 388320, Note_on_c, 14, 50, 52
16, 388559, Note_on_c, 14, 50, 0
16, 389280, Note_on_c, 14, 45, 52
16, 389519, Note_on_c, 14, 45, 0
16, 390240, Note_on_c, 14, 45, 52
16, 390479, Note_on_c, 14, 45, 0
16, 391200, Note_on_c, 14, 50, 52
16, 391439, Note_on_c, 14, 50, 0
16, 392160, Note_on_c, 14, 50, 52
16, 392399, Note_on_c, 14, 50, 0
16, 393120, Note_on_c, 14, 45, 52
16, 393359, Note_on_c, 14, 45, 0
16, 394080, Note_on_c, 14, 45, 52
16, 394319, Note_on_c, 14, 45, 0
16, 395040, Note_on_c, 14, 50, 52
16, 395279, Note_on_c, 14, 50, 0
16, 396000, Note_on_c, 14, 45, 58
16, 396239, Note_on_c, 14, 45, 0
16, 396960, Note_on_c, 14, 50, 64
16, 397199, Note_on_c, 14, 50, 0
16, 397920, Note_on_c, 14, 45, 70
16, 398159, Note_on_c, 14, 45, 0
16, 398880, Note_on_c, 14, 50, 76
16, 399119, Note_on_c, 14, 50, 0
16, 399360, Note_on_c, 14, 42, 84
16, 400739, Note_on_c, 14, 42, 0
16, 400785, Program_c, 14, 45
16, 400800, Note_on_c, 14, 54, 44
16, 401039, Note_on_c, 14, 54, 0
16, 401280, Note_on_c, 14, 52, 44
16, 401519, Note_on_c, 14, 52, 0
16, 401760, Note_on_c, 14, 50, 44
16, 401999, Note_on_c, 14, 50, 0
16, 402240, Note_on_c, 14, 49, 44
16, 402479, Note_on_c, 14, 49, 0
16, 402720, Note_on_c, 14, 47, 44
16, 402959, Note_on_c, 14, 47, 0
16, 404640, Note_on_c, 14, 55, 44
16, 404879, Note_on_c, 14, 55, 0
16, 405120, Note_on_c, 14, 54, 44
16, 405359, Note_on_c, 14, 54, 0
16, 405600, Note_on_c, 14, 52, 44
16, 405839, Note_on_c, 14, 52, 0
16, 406080, Note_on_c, 14, 50, 44
16, 406319, Note_on_c, 14, 50, 0
16, 406560, Note_on_c, 14, 49, 44
16, 406799, Note_on_c, 14, 49, 0
16, 408240, Program_c, 14, 48
16, 408360, Note_on_c, 14, 49, 84
16, 408479, Note_on_c, 14, 49, 0
16, 408480, Note_on_c, 14, 50, 84
16, 408659, Note_on_c, 14, 50, 0
16, 410280, Note_on_c, 14, 49, 84
16, 410399, Note_on_c, 14, 49, 0
16, 410400, Note_on_c, 14, 50, 84
16, 410579, Note_on_c, 14, 50, 0
16, 412200, Note_on_c, 14, 49, 84
16, 412319, Note_on_c, 14, 49, 0
16, 412320, Note_on_c, 14, 50, 84
16, 412499, Note_on_c, 14, 50, 0
16, 413280, Note_on_c, 14, 50, 84
16, 413519, Note_on_c, 14, 50, 0
16, 414240, Note_on_c, 14, 50, 84
16, 414479, Note_on_c, 14, 50, 0
16, 414960, Note_on_c, 14, 45, 84
16, 415139, Note_on_c, 14, 45, 0
16, 415200, Note_on_c, 14, 50, 84
16, 415379, Note_on_c, 14, 50, 0
16, 415440, Note_on_c, 14, 45, 84
16, 415619, Note_on_c, 14, 45, 0
16, 415680, Note_on_c, 14, 50, 84
16, 415859, Note_on_c, 14, 50, 0
16, 415920, Note_on_c, 14, 45, 84
16, 416099, Note_on_c, 14, 45, 0
16, 416160, Note_on_c, 14, 50, 84
16, 416339, Note_on_c, 14, 50, 0
16, 416400, Note_on_c, 14, 57, 84
16, 416579, Note_on_c, 14, 57, 0
16, 416640, Note_on_c, 14, 62, 84
16, 416819, Note_on_c, 14, 62, 0
16, 416880, Note_on_c, 14, 57, 84
16, 417059, Note_on_c, 14, 57, 0
16, 417120, Note_on_c, 14, 62, 84
16, 417299, Note_on_c, 14, 62, 0
16, 417360, Note_on_c, 14, 57, 84
16, 417539, Note_on_c, 14, 57, 0
16, 417600, Note_on_c, 14, 62, 84
16, 417779, Note_on_c, 14, 62, 0
16, 417840, Note_on_c, 14, 57, 84
16, 418019, Note_on_c, 14, 57, 0
16, 418080, Note_on_c, 14, 62, 84
16, 418319, Note_on_c, 14, 62, 0
16, 419040, Note_on_c, 14, 62, 84
16, 419219, Note_on_c, 14, 62, 0
16, 419280, Note_on_c, 14, 61, 84
16, 419399, Note_on_c, 14, 61, 0
16, 419400, Note_on_c, 14, 59, 84
16, 419519, Note_on_c, 14, 59, 0
16, 419520, Note_on_c, 14, 57, 84
16, 419639, Note_on_c, 14, 57, 0
16, 419640, Note_on_c, 14, 55, 84
16, 419759, Note_on_c, 14, 55, 0
16, 419760, Note_on_c, 14, 54, 84
16, 419879, Note_on_c, 14, 54, 0
16, 419880, Note_on_c, 14, 52, 84
16, 419969, Note_on_c, 14, 52, 0
16, 420000, Note_on_c, 14, 50, 84
16, 420119, Note_on_c, 14, 50, 0
16, 420120, Note_on_c, 14, 49, 84
16, 420239, Note_on_c, 14, 49, 0
16, 420240, Note_on_c, 14, 50, 84
16, 420359, Note_on_c, 14, 50, 0
16, 420360, Note_on_c, 14, 49, 84
16, 420479, Note_on_c, 14, 49, 0
16, 420480, Note_on_c, 14, 50, 84
16, 420599, Note_on_c, 14, 50, 0
16, 420600, Note_on_c, 14, 49, 84
16, 420719, Note_on_c, 14, 49, 0
16, 420720, Note_on_c, 14, 50, 84
16, 420839, Note_on_c, 14, 50, 0
16, 420840, Note_on_c, 14, 49, 84
16, 420929, Note_on_c, 14, 49, 0
16, 420960, Note_on_c, 14, 50, 84
16, 421079, Note_on_c, 14, 50, 0
16, 421080, Note_on_c, 14, 49, 84
16, 421199, Note_on_c, 14, 49, 0
16, 421200, Note_on_c, 14, 50, 84
16, 421319, Note_on_c, 14, 50, 0
16, 421320, Note_on_c, 14, 49, 84
16, 421439, Note_on_c, 14, 49, 0
16, 421440, Note_on_c, 14, 50, 84
16, 421559, Note_on_c, 14, 50, 0
16, 421560, Note_on_c, 14, 49, 84
16, 421679, Note_on_c, 14, 49, 0
16, 421680, Note_on_c, 14, 50, 84
16, 421799, Note_on_c, 14, 50, 0
16, 421800, Note_on_c, 14, 49, 84
16, 421889, Note_on_c, 14, 49, 0
16, 421920, Note_on_c, 14, 50, 84
16, 422159, Note_on_c, 14, 50, 0
16, 422880, Note_on_c, 14, 50, 84
16, 423119, Note_on_c, 14, 50, 0
16, 423360, Note_on_c, 14, 50, 84
16, 423599, Note_on_c, 14, 50, 0
16, 423840, Note_on_c, 14, 50, 84
16, 424079, Note_on_c, 14, 50, 0
16, 424800, Note_on_c, 14, 50, 84
16, 425039, Note_on_c, 14, 50, 0
16, 425760, Note_on_c, 14, 50, 84
16, 425999, Note_on_c, 14, 50, 0
16, 425999, End_track
17, 0, Start_track
17, 0, Title_t, "Contrabass"
17, 0, MIDI_port, 0
17, 0, Program_c, 15, 48
17, 0, Control_c, 15, 7, 88
17, 0, Control_c, 15, 10, 100
17, 0, Control_c, 15, 11, 127
17, 840, Note_on_c, 15, 37, 76
17, 929, Note_on_c, 15, 37, 0
17, 960, Note_on_c, 15, 37, 84
17, 1019, Note_on_c, 15, 37, 0
17, 1020, Note_on_c, 15, 38, 76
17, 1079, Note_on_c, 15, 38, 0
17, 1080, Note_on_c, 15, 37, 76
17, 1139, Note_on_c, 15, 37, 0
17, 1140, Note_on_c, 15, 38, 76
17, 1199, Note_on_c, 15, 38, 0
17, 1200, Note_on_c, 15, 37, 76
17, 1259, Note_on_c, 15, 37, 0
17, 1260, Note_on_c, 15, 38, 76
17, 1319, Note_on_c, 15, 38, 0
17, 1320, Note_on_c, 15, 35, 76
17, 1379, Note_on_c, 15, 35, 0
17, 1380, Note_on_c, 15, 37, 76
17, 1424, Note_on_c, 15, 37, 0
17, 1440, Note_on_c, 15, 40, 76
17, 1619, Note_on_c, 15, 40, 0
17, 1680, Note_on_c, 15, 33, 76
17, 1859, Note_on_c, 15, 33, 0
17, 3840, Note_on_c, 15, 31, 52
17, 4079, Note_on_c, 15, 31, 0
17, 4320, Note_on_c, 15, 33, 52
17, 4559, Note_on_c, 15, 33, 0
17, 4800, Note_on_c, 15, 33, 52
17, 5039, Note_on_c, 15, 33, 0
17, 5280, Note_on_c, 15, 38, 76
17, 5459, Note_on_c, 15, 38, 0
17, 5520, Note_on_c, 15, 33, 76
17, 5699, Note_on_c, 15, 33, 0
17, 6600, Note_on_c, 15, 37, 84
17, 6689, Note_on_c, 15, 37, 0
17, 6720, Note_on_c, 15, 37, 92
17, 6779, Note_on_c, 15, 37, 0
17, 6780, Note_on_c, 15, 38, 84
17, 6839, Note_on_c, 15, 38, 0
17, 6840, Note_on_c, 15, 37, 84
17, 6899, Note_on_c, 15, 37, 0
17, 6900, Note_on_c, 15, 38, 84
17, 6959, Note_on_c, 15, 38, 0
17, 6960, Note_on_c, 15, 37, 84
17, 7019, Note_on_c, 15, 37, 0
17, 7020, Note_on_c, 15, 38, 84
17, 7079, Note_on_c, 15, 38, 0
17, 7080, Note_on_c, 15, 35, 84
17, 7139, Note_on_c, 15, 35, 0
17, 7140, Note_on_c, 15, 37, 84
17, 7184, Note_on_c, 15, 37, 0
17, 7200, Note_on_c, 15, 40, 84
17, 7379, Note_on_c, 15, 40, 0
17, 7440, Note_on_c, 15, 33, 84
17, 7619, Note_on_c, 15, 33, 0
17, 8640, Note_on_c, 15, 31, 52
17, 8879, Note_on_c, 15, 31, 0
17, 9120, Note_on_c, 15, 33, 52
17, 9359, Note_on_c, 15, 33, 0
17, 9600, Note_on_c, 15, 33, 52
17, 9839, Note_on_c, 15, 33, 0
17, 11040, Note_on_c, 15, 38, 76
17, 11279, Note_on_c, 15, 38, 0
17, 11880, Note_on_c, 15, 42, 76
17, 11969, Note_on_c, 15, 42, 0
17, 12000, Note_on_c, 15, 43, 76
17, 12179, Note_on_c, 15, 43, 0
17, 12240, Note_on_c, 15, 45, 76
17, 12419, Note_on_c, 15, 45, 0
17, 12480, Note_on_c, 15, 47, 76
17, 12659, Note_on_c, 15, 47, 0
17, 12720, Note_on_c, 15, 44, 76
17, 12899, Note_on_c, 15, 44, 0
17, 12960, Note_on_c, 15, 45, 76
17, 13199, Note_on_c, 15, 45, 0
17, 13800, Note_on_c, 15, 46, 76
17, 13889, Note_on_c, 15, 46, 0
17, 13920, Note_on_c, 15, 47, 76
17, 14099, Note_on_c, 15, 47, 0
17, 14160, Note_on_c, 15, 42, 76
17, 14339, Note_on_c, 15, 42, 0
17, 14400, Note_on_c, 15, 43, 76
17, 14579, Note_on_c, 15, 43, 0
17, 14640, Note_on_c, 15, 40, 76
17, 14819, Note_on_c, 15, 40, 0
17, 14880, Note_on_c, 15, 38, 84
17, 15119, Note_on_c, 15, 38, 0
17, 15600, Note_on_c, 15, 42, 76
17, 15779, Note_on_c, 15, 42, 0
17, 15840, Note_on_c, 15, 43, 76
17, 16019, Note_on_c, 15, 43, 0
17, 16080, Note_on_c, 15, 45, 76
17, 16259, Note_on_c, 15, 45, 0
17, 16320, Note_on_c, 15, 47, 76
17, 16499, Note_on_c, 15, 47, 0
17, 16560, Note_on_c, 15, 44, 76
17, 16739, Note_on_c, 15, 44, 0
17, 16800, Note_on_c, 15, 45, 84
17, 17039, Note_on_c, 15, 45, 0
17, 17520, Note_on_c, 15, 48, 76
17, 17699, Note_on_c, 15, 48, 0
17, 17760, Note_on_c, 15, 47, 76
17, 17939, Note_on_c, 15, 47, 0
17, 18000, Note_on_c, 15, 48, 76
17, 18179, Note_on_c, 15, 48, 0
17, 18240, Note_on_c, 15, 47, 76
17, 18419, Note_on_c, 15, 47, 0
17, 18480, Note_on_c, 15, 46, 76
17, 18659, Note_on_c, 15, 46, 0
17, 18720, Note_on_c, 15, 33, 84
17, 18809, Note_on_c, 15, 33, 0
17, 18840, Note_on_c, 15, 45, 84
17, 18929, Note_on_c, 15, 45, 0
17, 18960, Note_on_c, 15, 45, 84
17, 19049, Note_on_c, 15, 45, 0
17, 19080, Note_on_c, 15, 45, 84
17, 19169, Note_on_c, 15, 45, 0
17, 19200, Note_on_c, 15, 45, 84
17, 19289, Note_on_c, 15, 45, 0
17, 19320, Note_on_c, 15, 45, 84
17, 19409, Note_on_c, 15, 45, 0
17, 19440, Note_on_c, 15, 45, 84
17, 19529, Note_on_c, 15, 45, 0
17, 19560, Note_on_c, 15, 45, 84
17, 19649, Note_on_c, 15, 45, 0
17, 19680, Note_on_c, 15, 45, 84
17, 19769, Note_on_c, 15, 45, 0
17, 19800, Note_on_c, 15, 45, 84
17, 19889, Note_on_c, 15, 45, 0
17, 19920, Note_on_c, 15, 45, 84
17, 20009, Note_on_c, 15, 45, 0
17, 20040, Note_on_c, 15, 45, 84
17, 20129, Note_on_c, 15, 45, 0
17, 20160, Note_on_c, 15, 45, 84
17, 20249, Note_on_c, 15, 45, 0
17, 20280, Note_on_c, 15, 45, 84
17, 20369, Note_on_c, 15, 45, 0
17, 20400, Note_on_c, 15, 45, 84
17, 20489, Note_on_c, 15, 45, 0
17, 20520, Note_on_c, 15, 45, 84
17, 20609, Note_on_c, 15, 45, 0
17, 20640, Note_on_c, 15, 45, 84
17, 20729, Note_on_c, 15, 45, 0
17, 20760, Note_on_c, 15, 45, 84
17, 20849, Note_on_c, 15, 45, 0
17, 20880, Note_on_c, 15, 45, 84
17, 20969, Note_on_c, 15, 45, 0
17, 21000, Note_on_c, 15, 45, 84
17, 21089, Note_on_c, 15, 45, 0
17, 21120, Note_on_c, 15, 45, 84
17, 21209, Note_on_c, 15, 45, 0
17, 21240, Note_on_c, 15, 45, 84
17, 21329, Note_on_c, 15, 45, 0
17, 21360, Note_on_c, 15, 45, 84
17, 21449, Note_on_c, 15, 45, 0
17, 21480, Note_on_c, 15, 45, 84
17, 21569, Note_on_c, 15, 45, 0
17, 21600, Note_on_c, 15, 45, 84
17, 21689, Note_on_c, 15, 45, 0
17, 21720, Note_on_c, 15, 45, 84
17, 21809, Note_on_c, 15, 45, 0
17, 21840, Note_on_c, 15, 45, 84
17, 21929, Note_on_c, 15, 45, 0
17, 21960, Note_on_c, 15, 45, 84
17, 22049, Note_on_c, 15, 45, 0
17, 22080, Note_on_c, 15, 45, 84
17, 22169, Note_on_c, 15, 45, 0
17, 22200, Note_on_c, 15, 45, 84
17, 22289, Note_on_c, 15, 45, 0
17, 22320, Note_on_c, 15, 45, 84
17, 22409, Note_on_c, 15, 45, 0
17, 22440, Note_on_c, 15, 45, 84
17, 22529, Note_on_c, 15, 45, 0
17, 22560, Note_on_c, 15, 45, 84
17, 22769, Note_on_c, 15, 45, 0
17, 22800, Note_on_c, 15, 33, 84
17, 23009, Note_on_c, 15, 33, 0
17, 23040, Note_on_c, 15, 33, 84
17, 23249, Note_on_c, 15, 33, 0
17, 23280, Note_on_c, 15, 33, 84
17, 23489, Note_on_c, 15, 33, 0
17, 23520, Note_on_c, 15, 33, 84
17, 23759, Note_on_c, 15, 33, 0
17, 24240, Program_c, 15, 45
17, 24480, Note_on_c, 15, 38, 52
17, 24719, Note_on_c, 15, 38, 0
17, 25440, Note_on_c, 15, 33, 52
17, 25679, Note_on_c, 15, 33, 0
17, 26400, Note_on_c, 15, 38, 52
17, 26639, Note_on_c, 15, 38, 0
17, 27360, Note_on_c, 15, 33, 52
17, 27599, Note_on_c, 15, 33, 0
17, 28320, Note_on_c, 15, 38, 52
17, 28559, Note_on_c, 15, 38, 0
17, 30000, Note_on_c, 15, 40, 52
17, 30239, Note_on_c, 15, 40, 0
17, 30240, Note_on_c, 15, 33, 52
17, 30479, Note_on_c, 15, 33, 0
17, 31200, Note_on_c, 15, 40, 52
17, 31439, Note_on_c, 15, 40, 0
17, 32160, Note_on_c, 15, 33, 52
17, 32399, Note_on_c, 15, 33, 0
17, 33120, Note_on_c, 15, 40, 52
17, 33359, Note_on_c, 15, 40, 0
17, 33840, Program_c, 15, 48
17, 34080, Control_c, 15, 11, 96
17, 34080, Note_on_c, 15, 33, 68
17, 34559, Note_on_c, 15, 33, 0
17, 34560, Note_on_c, 15, 33, 68
17, 34680, Control_c, 15, 11, 99
17, 34800, Control_c, 15, 11, 101
17, 34920, Control_c, 15, 11, 104
17, 35039, Note_on_c, 15, 33, 0
17, 35040, Control_c, 15, 11, 106
17, 35040, Note_on_c, 15, 35, 68
17, 35160, Control_c, 15, 11, 109
17, 35280, Control_c, 15, 11, 112
17, 35400, Control_c, 15, 11, 114
17, 35519, Note_on_c, 15, 35, 0
17, 35520, Note_on_c, 15, 37, 68
17, 35520, Control_c, 15, 11, 117
17, 35640, Control_c, 15, 11, 119
17, 35760, Control_c, 15, 11, 122
17, 35880, Control_c, 15, 11, 127
17, 35969, Note_on_c, 15, 37, 0
17, 36000, Note_on_c, 15, 38, 52
17, 36689, Note_on_c, 15, 38, 0
17, 36720, Note_on_c, 15, 38, 52
17, 36929, Note_on_c, 15, 38, 0
17, 36960, Note_on_c, 15, 38, 52
17, 37199, Note_on_c, 15, 38, 0
17, 37200, Note_on_c, 15, 37, 52
17, 37439, Note_on_c, 15, 37, 0
17, 37440, Note_on_c, 15, 35, 52
17, 37679, Note_on_c, 15, 35, 0
17, 37680, Note_on_c, 15, 33, 52
17, 37889, Note_on_c, 15, 33, 0
17, 37920, Note_on_c, 15, 38, 52
17, 38609, Note_on_c, 15, 38, 0
17, 38640, Note_on_c, 15, 38, 52
17, 38849, Note_on_c, 15, 38, 0
17, 38865, Control_c, 15, 11, 80
17, 38880, Note_on_c, 15, 38, 76
17, 39119, Note_on_c, 15, 38, 0
17, 39120, Note_on_c, 15, 37, 76
17, 39359, Note_on_c, 15, 37, 0
17, 39360, Note_on_c, 15, 35, 76
17, 39599, Note_on_c, 15, 35, 0
17, 39600, Note_on_c, 15, 33, 76
17, 39809, Note_on_c, 15, 33, 0
17, 39840, Note_on_c, 15, 38, 76
17, 39840, Control_c, 15, 11, 80
17, 40000, Control_c, 15, 11, 84
17, 40160, Control_c, 15, 11, 88
17, 40320, Control_c, 15, 11, 92
17, 40480, Control_c, 15, 11, 96
17, 40559, Note_on_c, 15, 38, 0
17, 40560, Note_on_c, 15, 37, 76
17, 40640, Control_c, 15, 11, 100
17, 40799, Note_on_c, 15, 37, 0
17, 40800, Control_c, 15, 11, 104
17, 40800, Note_on_c, 15, 42, 76
17, 40960, Control_c, 15, 11, 107
17, 41039, Note_on_c, 15, 42, 0
17, 41040, Note_on_c, 15, 40, 76
17, 41120, Control_c, 15, 11, 111
17, 41279, Note_on_c, 15, 40, 0
17, 41280, Note_on_c, 15, 38, 76
17, 41280, Control_c, 15, 11, 115
17, 41440, Control_c, 15, 11, 119
17, 41519, Note_on_c, 15, 38, 0
17, 41520, Note_on_c, 15, 39, 76
17, 41600, Control_c, 15, 11, 123
17, 41729, Note_on_c, 15, 39, 0
17, 41760, Note_on_c, 15, 40, 76
17, 41760, Control_c, 15, 11, 127
17, 41849, Note_on_c, 15, 40, 0
17, 41880, Note_on_c, 15, 40, 76
17, 41969, Note_on_c, 15, 40, 0
17, 42000, Note_on_c, 15, 40, 76
17, 42089, Note_on_c, 15, 40, 0
17, 42120, Note_on_c, 15, 40, 76
17, 42209, Note_on_c, 15, 40, 0
17, 42240, Note_on_c, 15, 40, 76
17, 42329, Note_on_c, 15, 40, 0
17, 42360, Note_on_c, 15, 40, 76
17, 42449, Note_on_c, 15, 40, 0
17, 42480, Note_on_c, 15, 40, 76
17, 42569, Note_on_c, 15, 40, 0
17, 42600, Note_on_c, 15, 40, 76
17, 42689, Note_on_c, 15, 40, 0
17, 42720, Note_on_c, 15, 40, 84
17, 42809, Note_on_c, 15, 40, 0
17, 42840, Note_on_c, 15, 40, 76
17, 42929, Note_on_c, 15, 40, 0
17, 42960, Note_on_c, 15, 40, 76
17, 43049, Note_on_c, 15, 40, 0
17, 43080, Note_on_c, 15, 40, 76
17, 43169, Note_on_c, 15, 40, 0
17, 43200, Note_on_c, 15, 40, 76
17, 43289, Note_on_c, 15, 40, 0
17, 43320, Note_on_c, 15, 40, 76
17, 43409, Note_on_c, 15, 40, 0
17, 43440, Note_on_c, 15, 40, 76
17, 43529, Note_on_c, 15, 40, 0
17, 43560, Note_on_c, 15, 40, 76
17, 43649, Note_on_c, 15, 40, 0
17, 43680, Note_on_c, 15, 40, 76
17, 43769, Note_on_c, 15, 40, 0
17, 43800, Note_on_c, 15, 40, 76
17, 43889, Note_on_c, 15, 40, 0
17, 43920, Note_on_c, 15, 40, 76
17, 44009, Note_on_c, 15, 40, 0
17, 44040, Note_on_c, 15, 40, 76
17, 44129, Note_on_c, 15, 40, 0
17, 44160, Note_on_c, 15, 40, 76
17, 44249, Note_on_c, 15, 40, 0
17, 44280, Note_on_c, 15, 40, 76
17, 44369, Note_on_c, 15, 40, 0
17, 44400, Note_on_c, 15, 40, 76
17, 44489, Note_on_c, 15, 40, 0
17, 44520, Note_on_c, 15, 40, 76
17, 44609, Note_on_c, 15, 40, 0
17, 44640, Note_on_c, 15, 40, 84
17, 44729, Note_on_c, 15, 40, 0
17, 44760, Note_on_c, 15, 40, 76
17, 44849, Note_on_c, 15, 40, 0
17, 44880, Note_on_c, 15, 40, 76
17, 44969, Note_on_c, 15, 40, 0
17, 45000, Note_on_c, 15, 40, 76
17, 45089, Note_on_c, 15, 40, 0
17, 45120, Note_on_c, 15, 40, 76
17, 45209, Note_on_c, 15, 40, 0
17, 45240, Note_on_c, 15, 40, 76
17, 45329, Note_on_c, 15, 40, 0
17, 45360, Note_on_c, 15, 40, 76
17, 45449, Note_on_c, 15, 40, 0
17, 45480, Note_on_c, 15, 40, 76
17, 45569, Note_on_c, 15, 40, 0
17, 45600, Note_on_c, 15, 40, 76
17, 45689, Note_on_c, 15, 40, 0
17, 45720, Note_on_c, 15, 40, 76
17, 45809, Note_on_c, 15, 40, 0
17, 45840, Note_on_c, 15, 40, 76
17, 45929, Note_on_c, 15, 40, 0
17, 45960, Note_on_c, 15, 40, 76
17, 46049, Note_on_c, 15, 40, 0
17, 46080, Note_on_c, 15, 40, 84
17, 46169, Note_on_c, 15, 40, 0
17, 46200, Note_on_c, 15, 40, 76
17, 46289, Note_on_c, 15, 40, 0
17, 46320, Note_on_c, 15, 40, 76
17, 46409, Note_on_c, 15, 40, 0
17, 46440, Note_on_c, 15, 40, 76
17, 46529, Note_on_c, 15, 40, 0
17, 46560, Note_on_c, 15, 40, 76
17, 46649, Note_on_c, 15, 40, 0
17, 46680, Note_on_c, 15, 40, 76
17, 46769, Note_on_c, 15, 40, 0
17, 46800, Note_on_c, 15, 40, 76
17, 46889, Note_on_c, 15, 40, 0
17, 46920, Note_on_c, 15, 40, 76
17, 47009, Note_on_c, 15, 40, 0
17, 47040, Note_on_c, 15, 40, 84
17, 47129, Note_on_c, 15, 40, 0
17, 47160, Note_on_c, 15, 40, 76
17, 47249, Note_on_c, 15, 40, 0
17, 47280, Note_on_c, 15, 40, 76
17, 47369, Note_on_c, 15, 40, 0
17, 47400, Note_on_c, 15, 40, 76
17, 47489, Note_on_c, 15, 40, 0
17, 47520, Note_on_c, 15, 40, 76
17, 47759, Note_on_c, 15, 40, 0
17, 49440, Note_on_c, 15, 45, 52
17, 49679, Note_on_c, 15, 45, 0
17, 50400, Note_on_c, 15, 45, 52
17, 50639, Note_on_c, 15, 45, 0
17, 51360, Note_on_c, 15, 44, 52
17, 51599, Note_on_c, 15, 44, 0
17, 52320, Note_on_c, 15, 40, 68
17, 52559, Note_on_c, 15, 40, 0
17, 53280, Note_on_c, 15, 45, 52
17, 53519, Note_on_c, 15, 45, 0
17, 54240, Note_on_c, 15, 45, 52
17, 54479, Note_on_c, 15, 45, 0
17, 55200, Note_on_c, 15, 44, 52
17, 55439, Note_on_c, 15, 44, 0
17, 56160, Note_on_c, 15, 40, 68
17, 56399, Note_on_c, 15, 40, 0
17, 56880, Control_c, 15, 11, 96
17, 57120, Note_on_c, 15, 45, 68
17, 57120, Control_c, 15, 11, 96
17, 57359, Note_on_c, 15, 45, 0
17, 57360, Control_c, 15, 11, 99
17, 57600, Control_c, 15, 11, 101
17, 57840, Control_c, 15, 11, 104
17, 58080, Control_c, 15, 11, 106
17, 58080, Note_on_c, 15, 42, 68
17, 58319, Note_on_c, 15, 42, 0
17, 58320, Control_c, 15, 11, 109
17, 58560, Control_c, 15, 11, 112
17, 58800, Control_c, 15, 11, 114
17, 59040, Note_on_c, 15, 47, 68
17, 59040, Control_c, 15, 11, 117
17, 59279, Note_on_c, 15, 47, 0
17, 59280, Control_c, 15, 11, 119
17, 59520, Control_c, 15, 11, 122
17, 59760, Control_c, 15, 11, 124
17, 60000, Note_on_c, 15, 45, 76
17, 60000, Control_c, 15, 11, 127
17, 60239, Note_on_c, 15, 45, 0
17, 60960, Control_c, 15, 11, 127
17, 60960, Note_on_c, 15, 50, 68
17, 61040, Control_c, 15, 11, 124
17, 61120, Control_c, 15, 11, 122
17, 61199, Note_on_c, 15, 50, 0
17, 61200, Control_c, 15, 11, 119
17, 61680, Control_c, 15, 11, 127
17, 61920, Note_on_c, 15, 38, 52
17, 62159, Note_on_c, 15, 38, 0
17, 62880, Note_on_c, 15, 40, 52
17, 63119, Note_on_c, 15, 40, 0
17, 63840, Note_on_c, 15, 40, 52
17, 64079, Note_on_c, 15, 40, 0
17, 64800, Note_on_c, 15, 45, 52
17, 65039, Note_on_c, 15, 45, 0
17, 65760, Note_on_c, 15, 45, 52
17, 65999, Note_on_c, 15, 45, 0
17, 66720, Note_on_c, 15, 44, 52
17, 66959, Note_on_c, 15, 44, 0
17, 67680, Note_on_c, 15, 40, 68
17, 67919, Note_on_c, 15, 40, 0
17, 68400, Control_c, 15, 11, 96
17, 68640, Note_on_c, 15, 45, 68
17, 68879, Note_on_c, 15, 45, 0
17, 69600, Control_c, 15, 11, 96
17, 69600, Note_on_c, 15, 45, 68
17, 69839, Note_on_c, 15, 45, 0
17, 69840, Control_c, 15, 11, 99
17, 70080, Control_c, 15, 11, 101
17, 70320, Control_c, 15, 11, 104
17, 70560, Control_c, 15, 11, 106
17, 70560, Note_on_c, 15, 43, 68
17, 70799, Note_on_c, 15, 43, 0
17, 70800, Control_c, 15, 11, 109
17, 71040, Control_c, 15, 11, 112
17, 71280, Control_c, 15, 11, 114
17, 71520, Control_c, 15, 11, 117
17, 71520, Note_on_c, 15, 41, 68
17, 71759, Note_on_c, 15, 41, 0
17, 71760, Control_c, 15, 11, 119
17, 72000, Control_c, 15, 11, 122
17, 72240, Control_c, 15, 11, 124
17, 72480, Note_on_c, 15, 40, 52
17, 72480, Control_c, 15, 11, 127
17, 72719, Note_on_c, 15, 40, 0
17, 73440, Note_on_c, 15, 41, 52
17, 73679, Note_on_c, 15, 41, 0
17, 74400, Note_on_c, 15, 43, 52
17, 74639, Note_on_c, 15, 43, 0
17, 75360, Note_on_c, 15, 31, 52
17, 75599, Note_on_c, 15, 31, 0
17, 76080, Control_c, 15, 11, 80
17, 76320, Note_on_c, 15, 36, 76
17, 76559, Note_on_c, 15, 36, 0
17, 76640, Control_c, 15, 11, 84
17, 76960, Control_c, 15, 11, 88
17, 77280, Note_on_c, 15, 38, 76
17, 77280, Control_c, 15, 11, 92
17, 77519, Note_on_c, 15, 38, 0
17, 77600, Control_c, 15, 11, 96
17, 77920, Control_c, 15, 11, 100
17, 78240, Note_on_c, 15, 40, 76
17, 78240, Control_c, 15, 11, 104
17, 78479, Note_on_c, 15, 40, 0
17, 78560, Control_c, 15, 11, 107
17, 78880, Control_c, 15, 11, 111
17, 79200, Note_on_c, 15, 40, 76
17, 79200, Control_c, 15, 11, 115
17, 79439, Note_on_c, 15, 40, 0
17, 79520, Control_c, 15, 11, 119
17, 79840, Control_c, 15, 11, 123
17, 80160, Note_on_c, 15, 37, 76
17, 80160, Control_c, 15, 11, 127
17, 80339, Note_on_c, 15, 37, 0
17, 80400, Note_on_c, 15, 40, 76
17, 80579, Note_on_c, 15, 40, 0
17, 80640, Note_on_c, 15, 45, 76
17, 80819, Note_on_c, 15, 45, 0
17, 80880, Note_on_c, 15, 49, 76
17, 81059, Note_on_c, 15, 49, 0
17, 81120, Note_on_c, 15, 52, 84
17, 81809, Note_on_c, 15, 52, 0
17, 81840, Note_on_c, 15, 37, 76
17, 82019, Note_on_c, 15, 37, 0
17, 82080, Note_on_c, 15, 38, 76
17, 82259, Note_on_c, 15, 38, 0
17, 82320, Note_on_c, 15, 42, 76
17, 82499, Note_on_c, 15, 42, 0
17, 82560, Note_on_c, 15, 45, 76
17, 82739, Note_on_c, 15, 45, 0
17, 82800, Note_on_c, 15, 50, 76
17, 82979, Note_on_c, 15, 50, 0
17, 83040, Note_on_c, 15, 54, 84
17, 83729, Note_on_c, 15, 54, 0
17, 83760, Note_on_c, 15, 39, 76
17, 83939, Note_on_c, 15, 39, 0
17, 84000, Note_on_c, 15, 40, 84
17, 84179, Note_on_c, 15, 40, 0
17, 84240, Note_on_c, 15, 52, 76
17, 84479, Note_on_c, 15, 52, 0
17, 84720, Note_on_c, 15, 40, 76
17, 84899, Note_on_c, 15, 40, 0
17, 84960, Note_on_c, 15, 38, 84
17, 85139, Note_on_c, 15, 38, 0
17, 85200, Note_on_c, 15, 50, 76
17, 85439, Note_on_c, 15, 50, 0
17, 85680, Note_on_c, 15, 38, 76
17, 85859, Note_on_c, 15, 38, 0
17, 85920, Note_on_c, 15, 37, 76
17, 86099, Note_on_c, 15, 37, 0
17, 86160, Note_on_c, 15, 40, 76
17, 86339, Note_on_c, 15, 40, 0
17, 86400, Note_on_c, 15, 45, 76
17, 86579, Note_on_c, 15, 45, 0
17, 86640, Note_on_c, 15, 49, 76
17, 86819, Note_on_c, 15, 49, 0
17, 86880, Note_on_c, 15, 52, 84
17, 87569, Note_on_c, 15, 52, 0
17, 87600, Note_on_c, 15, 37, 76
17, 87779, Note_on_c, 15, 37, 0
17, 87840, Note_on_c, 15, 38, 76
17, 88019, Note_on_c, 15, 38, 0
17, 88080, Note_on_c, 15, 42, 76
17, 88259, Note_on_c, 15, 42, 0
17, 88320, Note_on_c, 15, 45, 76
17, 88499, Note_on_c, 15, 45, 0
17, 88560, Note_on_c, 15, 50, 76
17, 88739, Note_on_c, 15, 50, 0
17, 88800, Note_on_c, 15, 54, 84
17, 89489, Note_on_c, 15, 54, 0
17, 89520, Note_on_c, 15, 39, 76
17, 89699, Note_on_c, 15, 39, 0
17, 89760, Note_on_c, 15, 40, 76
17, 89939, Note_on_c, 15, 40, 0
17, 90000, Note_on_c, 15, 43, 76
17, 90179, Note_on_c, 15, 43, 0
17, 90240, Note_on_c, 15, 49, 76
17, 90419, Note_on_c, 15, 49, 0
17, 90480, Note_on_c, 15, 52, 76
17, 90659, Note_on_c, 15, 52, 0
17, 90720, Note_on_c, 15, 55, 76
17, 90899, Note_on_c, 15, 55, 0
17, 90960, Note_on_c, 15, 52, 76
17, 91139, Note_on_c, 15, 52, 0
17, 91200, Note_on_c, 15, 49, 76
17, 91379, Note_on_c, 15, 49, 0
17, 91440, Note_on_c, 15, 43, 76
17, 91619, Note_on_c, 15, 43, 0
17, 91680, Note_on_c, 15, 40, 76
17, 91859, Note_on_c, 15, 40, 0
17, 91920, Note_on_c, 15, 43, 76
17, 92099, Note_on_c, 15, 43, 0
17, 92160, Note_on_c, 15, 49, 76
17, 92339, Note_on_c, 15, 49, 0
17, 92400, Note_on_c, 15, 52, 76
17, 92579, Note_on_c, 15, 52, 0
17, 92640, Note_on_c, 15, 55, 76
17, 92819, Note_on_c, 15, 55, 0
17, 92880, Note_on_c, 15, 52, 76
17, 93059, Note_on_c, 15, 52, 0
17, 93120, Note_on_c, 15, 49, 76
17, 93299, Note_on_c, 15, 49, 0
17, 93360, Note_on_c, 15, 43, 76
17, 93539, Note_on_c, 15, 43, 0
17, 93600, Note_on_c, 15, 40, 76
17, 93779, Note_on_c, 15, 40, 0
17, 103560, Note_on_c, 15, 37, 76
17, 103649, Note_on_c, 15, 37, 0
17, 103680, Note_on_c, 15, 37, 84
17, 103739, Note_on_c, 15, 37, 0
17, 103740, Note_on_c, 15, 38, 76
17, 103799, Note_on_c, 15, 38, 0
17, 103800, Note_on_c, 15, 37, 76
17, 103859, Note_on_c, 15, 37, 0
17, 103860, Note_on_c, 15, 38, 76
17, 103919, Note_on_c, 15, 38, 0
17, 103920, Note_on_c, 15, 37, 76
17, 103979, Note_on_c, 15, 37, 0
17, 103980, Note_on_c, 15, 38, 76
17, 104039, Note_on_c, 15, 38, 0
17, 104040, Note_on_c, 15, 35, 76
17, 104099, Note_on_c, 15, 35, 0
17, 104100, Note_on_c, 15, 37, 76
17, 104144, Note_on_c, 15, 37, 0
17, 104160, Note_on_c, 15, 40, 76
17, 104339, Note_on_c, 15, 40, 0
17, 104400, Note_on_c, 15, 33, 76
17, 104579, Note_on_c, 15, 33, 0
17, 106560, Note_on_c, 15, 31, 52
17, 106799, Note_on_c, 15, 31, 0
17, 107040, Note_on_c, 15, 33, 52
17, 107279, Note_on_c, 15, 33, 0
17, 107520, Note_on_c, 15, 33, 52
17, 107759, Note_on_c, 15, 33, 0
17, 108000, Note_on_c, 15, 38, 76
17, 108179, Note_on_c, 15, 38, 0
17, 108240, Note_on_c, 15, 33, 76
17, 108419, Note_on_c, 15, 33, 0
17, 109320, Note_on_c, 15, 37, 84
17, 109409, Note_on_c, 15, 37, 0
17, 109440, Note_on_c, 15, 37, 92
17, 109499, Note_on_c, 15, 37, 0
17, 109500, Note_on_c, 15, 38, 84
17, 109559, Note_on_c, 15, 38, 0
17, 109560, Note_on_c, 15, 37, 84
17, 109619, Note_on_c, 15, 37, 0
17, 109620, Note_on_c, 15, 38, 84
17, 109679, Note_on_c, 15, 38, 0
17, 109680, Note_on_c, 15, 37, 84
17, 109739, Note_on_c, 15, 37, 0
17, 109740, Note_on_c, 15, 38, 84
17, 109799, Note_on_c, 15, 38, 0
17, 109800, Note_on_c, 15, 35, 84
17, 109859, Note_on_c, 15, 35, 0
17, 109860, Note_on_c, 15, 37, 84
17, 109904, Note_on_c, 15, 37, 0
17, 109920, Note_on_c, 15, 40, 84
17, 110099, Note_on_c, 15, 40, 0
17, 110160, Note_on_c, 15, 33, 84
17, 110339, Note_on_c, 15, 33, 0
17, 112320, Note_on_c, 15, 31, 52
17, 112559, Note_on_c, 15, 31, 0
17, 112800, Note_on_c, 15, 33, 52
17, 113039, Note_on_c, 15, 33, 0
17, 113280, Note_on_c, 15, 33, 52
17, 113519, Note_on_c, 15, 33, 0
17, 113760, Note_on_c, 15, 38, 76
17, 113849, Note_on_c, 15, 38, 0
17, 113880, Note_on_c, 15, 38, 76
17, 113969, Note_on_c, 15, 38, 0
17, 114000, Note_on_c, 15, 38, 76
17, 114089, Note_on_c, 15, 38, 0
17, 114120, Note_on_c, 15, 38, 76
17, 114209, Note_on_c, 15, 38, 0
17, 114240, Note_on_c, 15, 38, 76
17, 114329, Note_on_c, 15, 38, 0
17, 114360, Note_on_c, 15, 38, 76
17, 114449, Note_on_c, 15, 38, 0
17, 114480, Note_on_c, 15, 38, 76
17, 114569, Note_on_c, 15, 38, 0
17, 114600, Note_on_c, 15, 38, 76
17, 114689, Note_on_c, 15, 38, 0
17, 114720, Note_on_c, 15, 38, 76
17, 114809, Note_on_c, 15, 38, 0
17, 114840, Note_on_c, 15, 38, 76
17, 114929, Note_on_c, 15, 38, 0
17, 114960, Note_on_c, 15, 38, 76
17, 115049, Note_on_c, 15, 38, 0
17, 115080, Note_on_c, 15, 38, 76
17, 115169, Note_on_c, 15, 38, 0
17, 115200, Note_on_c, 15, 38, 76
17, 115289, Note_on_c, 15, 38, 0
17, 115320, Note_on_c, 15, 38, 76
17, 115409, Note_on_c, 15, 38, 0
17, 115440, Note_on_c, 15, 38, 76
17, 115529, Note_on_c, 15, 38, 0
17, 115560, Note_on_c, 15, 38, 76
17, 115649, Note_on_c, 15, 38, 0
17, 115680, Note_on_c, 15, 38, 76
17, 115769, Note_on_c, 15, 38, 0
17, 115800, Note_on_c, 15, 38, 76
17, 115889, Note_on_c, 15, 38, 0
17, 115920, Note_on_c, 15, 38, 76
17, 116009, Note_on_c, 15, 38, 0
17, 116040, Note_on_c, 15, 38, 76
17, 116129, Note_on_c, 15, 38, 0
17, 116160, Note_on_c, 15, 38, 76
17, 116249, Note_on_c, 15, 38, 0
17, 116280, Note_on_c, 15, 38, 76
17, 116369, Note_on_c, 15, 38, 0
17, 116400, Note_on_c, 15, 38, 76
17, 116489, Note_on_c, 15, 38, 0
17, 116520, Note_on_c, 15, 38, 76
17, 116609, Note_on_c, 15, 38, 0
17, 116640, Note_on_c, 15, 38, 76
17, 116729, Note_on_c, 15, 38, 0
17, 116760, Note_on_c, 15, 38, 76
17, 116849, Note_on_c, 15, 38, 0
17, 116880, Note_on_c, 15, 38, 76
17, 116969, Note_on_c, 15, 38, 0
17, 117000, Note_on_c, 15, 38, 76
17, 117089, Note_on_c, 15, 38, 0
17, 117120, Note_on_c, 15, 38, 76
17, 117209, Note_on_c, 15, 38, 0
17, 117240, Note_on_c, 15, 38, 76
17, 117329, Note_on_c, 15, 38, 0
17, 117360, Note_on_c, 15, 38, 76
17, 117449, Note_on_c, 15, 38, 0
17, 117480, Note_on_c, 15, 38, 76
17, 117569, Note_on_c, 15, 38, 0
17, 117600, Note_on_c, 15, 38, 76
17, 117689, Note_on_c, 15, 38, 0
17, 117720, Note_on_c, 15, 38, 76
17, 117809, Note_on_c, 15, 38, 0
17, 117840, Note_on_c, 15, 38, 76
17, 117929, Note_on_c, 15, 38, 0
17, 117960, Note_on_c, 15, 38, 76
17, 118049, Note_on_c, 15, 38, 0
17, 118080, Note_on_c, 15, 38, 76
17, 118169, Note_on_c, 15, 38, 0
17, 118200, Note_on_c, 15, 38, 76
17, 118289, Note_on_c, 15, 38, 0
17, 118320, Note_on_c, 15, 38, 76
17, 118409, Note_on_c, 15, 38, 0
17, 118440, Note_on_c, 15, 38, 76
17, 118529, Note_on_c, 15, 38, 0
17, 118560, Note_on_c, 15, 38, 76
17, 118649, Note_on_c, 15, 38, 0
17, 118680, Note_on_c, 15, 38, 76
17, 118769, Note_on_c, 15, 38, 0
17, 118800, Note_on_c, 15, 38, 76
17, 118889, Note_on_c, 15, 38, 0
17, 118920, Note_on_c, 15, 38, 76
17, 119009, Note_on_c, 15, 38, 0
17, 119040, Note_on_c, 15, 38, 76
17, 119129, Note_on_c, 15, 38, 0
17, 119160, Note_on_c, 15, 38, 76
17, 119249, Note_on_c, 15, 38, 0
17, 119280, Note_on_c, 15, 38, 76
17, 119369, Note_on_c, 15, 38, 0
17, 119400, Note_on_c, 15, 38, 76
17, 119489, Note_on_c, 15, 38, 0
17, 119520, Note_on_c, 15, 38, 76
17, 119609, Note_on_c, 15, 38, 0
17, 119640, Note_on_c, 15, 38, 76
17, 119729, Note_on_c, 15, 38, 0
17, 119760, Note_on_c, 15, 38, 76
17, 119849, Note_on_c, 15, 38, 0
17, 119880, Note_on_c, 15, 38, 76
17, 119969, Note_on_c, 15, 38, 0
17, 120000, Note_on_c, 15, 38, 76
17, 120089, Note_on_c, 15, 38, 0
17, 120120, Note_on_c, 15, 38, 76
17, 120209, Note_on_c, 15, 38, 0
17, 120240, Note_on_c, 15, 38, 76
17, 120329, Note_on_c, 15, 38, 0
17, 120360, Note_on_c, 15, 38, 76
17, 120449, Note_on_c, 15, 38, 0
17, 120480, Note_on_c, 15, 38, 76
17, 120569, Note_on_c, 15, 38, 0
17, 120600, Note_on_c, 15, 38, 76
17, 120689, Note_on_c, 15, 38, 0
17, 120720, Note_on_c, 15, 38, 76
17, 120809, Note_on_c, 15, 38, 0
17, 120840, Note_on_c, 15, 38, 76
17, 120929, Note_on_c, 15, 38, 0
17, 120960, Note_on_c, 15, 38, 76
17, 121049, Note_on_c, 15, 38, 0
17, 121080, Note_on_c, 15, 38, 76
17, 121169, Note_on_c, 15, 38, 0
17, 121200, Note_on_c, 15, 38, 76
17, 121289, Note_on_c, 15, 38, 0
17, 121320, Note_on_c, 15, 38, 76
17, 121409, Note_on_c, 15, 38, 0
17, 121440, Note_on_c, 15, 38, 84
17, 121529, Note_on_c, 15, 38, 0
17, 121560, Note_on_c, 15, 38, 76
17, 121649, Note_on_c, 15, 38, 0
17, 121680, Note_on_c, 15, 38, 76
17, 121769, Note_on_c, 15, 38, 0
17, 121800, Note_on_c, 15, 38, 76
17, 121889, Note_on_c, 15, 38, 0
17, 121920, Note_on_c, 15, 38, 76
17, 122009, Note_on_c, 15, 38, 0
17, 122040, Note_on_c, 15, 38, 76
17, 122129, Note_on_c, 15, 38, 0
17, 122160, Note_on_c, 15, 38, 76
17, 122249, Note_on_c, 15, 38, 0
17, 122280, Note_on_c, 15, 38, 76
17, 122369, Note_on_c, 15, 38, 0
17, 122400, Note_on_c, 15, 38, 84
17, 122489, Note_on_c, 15, 38, 0
17, 122520, Note_on_c, 15, 38, 76
17, 122609, Note_on_c, 15, 38, 0
17, 122640, Note_on_c, 15, 38, 76
17, 122729, Note_on_c, 15, 38, 0
17, 122760, Note_on_c, 15, 38, 76
17, 122849, Note_on_c, 15, 38, 0
17, 122880, Note_on_c, 15, 38, 76
17, 122969, Note_on_c, 15, 38, 0
17, 123000, Note_on_c, 15, 38, 76
17, 123089, Note_on_c, 15, 38, 0
17, 123120, Note_on_c, 15, 38, 76
17, 123209, Note_on_c, 15, 38, 0
17, 123240, Note_on_c, 15, 38, 76
17, 123329, Note_on_c, 15, 38, 0
17, 123360, Note_on_c, 15, 38, 84
17, 123449, Note_on_c, 15, 38, 0
17, 123480, Note_on_c, 15, 38, 76
17, 123569, Note_on_c, 15, 38, 0
17, 123600, Note_on_c, 15, 38, 76
17, 123689, Note_on_c, 15, 38, 0
17, 123720, Note_on_c, 15, 38, 76
17, 123809, Note_on_c, 15, 38, 0
17, 123840, Note_on_c, 15, 38, 76
17, 123929, Note_on_c, 15, 38, 0
17, 123960, Note_on_c, 15, 38, 76
17, 124049, Note_on_c, 15, 38, 0
17, 124080, Note_on_c, 15, 38, 76
17, 124169, Note_on_c, 15, 38, 0
17, 124200, Note_on_c, 15, 38, 76
17, 124289, Note_on_c, 15, 38, 0
17, 124320, Note_on_c, 15, 38, 84
17, 124409, Note_on_c, 15, 38, 0
17, 124440, Note_on_c, 15, 38, 76
17, 124529, Note_on_c, 15, 38, 0
17, 124560, Note_on_c, 15, 38, 76
17, 124649, Note_on_c, 15, 38, 0
17, 124680, Note_on_c, 15, 38, 76
17, 124769, Note_on_c, 15, 38, 0
17, 124800, Note_on_c, 15, 38, 76
17, 124889, Note_on_c, 15, 38, 0
17, 124920, Note_on_c, 15, 38, 76
17, 125009, Note_on_c, 15, 38, 0
17, 125040, Note_on_c, 15, 38, 76
17, 125129, Note_on_c, 15, 38, 0
17, 125160, Note_on_c, 15, 38, 76
17, 125249, Note_on_c, 15, 38, 0
17, 125280, Note_on_c, 15, 38, 76
17, 125400, Control_c, 15, 11, 80
17, 125519, Note_on_c, 15, 38, 0
17, 126960, Control_c, 15, 11, 127
17, 127200, Note_on_c, 15, 31, 52
17, 127439, Note_on_c, 15, 31, 0
17, 129120, Note_on_c, 15, 36, 76
17, 129240, Control_c, 15, 11, 80
17, 129359, Note_on_c, 15, 36, 0
17, 132720, Control_c, 15, 11, 127
17, 132960, Note_on_c, 15, 34, 76
17, 133199, Note_on_c, 15, 34, 0
17, 133320, Note_on_c, 15, 38, 76
17, 133409, Note_on_c, 15, 38, 0
17, 133440, Note_on_c, 15, 38, 84
17, 133499, Note_on_c, 15, 38, 0
17, 133500, Note_on_c, 15, 39, 76
17, 133559, Note_on_c, 15, 39, 0
17, 133560, Note_on_c, 15, 38, 76
17, 133619, Note_on_c, 15, 38, 0
17, 133620, Note_on_c, 15, 39, 76
17, 133679, Note_on_c, 15, 39, 0
17, 133680, Note_on_c, 15, 38, 76
17, 133739, Note_on_c, 15, 38, 0
17, 133740, Note_on_c, 15, 39, 76
17, 133799, Note_on_c, 15, 39, 0
17, 133800, Note_on_c, 15, 36, 76
17, 133859, Note_on_c, 15, 36, 0
17, 133860, Note_on_c, 15, 38, 76
17, 133904, Note_on_c, 15, 38, 0
17, 133920, Note_on_c, 15, 41, 76
17, 134099, Note_on_c, 15, 41, 0
17, 134160, Note_on_c, 15, 34, 76
17, 134339, Note_on_c, 15, 34, 0
17, 134880, Note_on_c, 15, 33, 76
17, 135119, Note_on_c, 15, 33, 0
17, 135240, Note_on_c, 15, 38, 76
17, 135329, Note_on_c, 15, 38, 0
17, 135360, Note_on_c, 15, 38, 84
17, 135419, Note_on_c, 15, 38, 0
17, 135420, Note_on_c, 15, 40, 76
17, 135479, Note_on_c, 15, 40, 0
17, 135480, Note_on_c, 15, 38, 76
17, 135539, Note_on_c, 15, 38, 0
17, 135540, Note_on_c, 15, 40, 76
17, 135599, Note_on_c, 15, 40, 0
17, 135600, Note_on_c, 15, 38, 76
17, 135659, Note_on_c, 15, 38, 0
17, 135660, Note_on_c, 15, 40, 76
17, 135719, Note_on_c, 15, 40, 0
17, 135720, Note_on_c, 15, 37, 76
17, 135779, Note_on_c, 15, 37, 0
17, 135780, Note_on_c, 15, 38, 76
17, 135824, Note_on_c, 15, 38, 0
17, 135840, Note_on_c, 15, 41, 76
17, 136019, Note_on_c, 15, 41, 0
17, 136080, Note_on_c, 15, 33, 76
17, 136259, Note_on_c, 15, 33, 0
17, 136800, Note_on_c, 15, 32, 52
17, 137039, Note_on_c, 15, 32, 0
17, 137760, Note_on_c, 15, 31, 52
17, 137999, Note_on_c, 15, 31, 0
17, 138720, Note_on_c, 15, 36, 76
17, 138959, Note_on_c, 15, 36, 0
17, 139080, Note_on_c, 15, 40, 76
17, 139169, Note_on_c, 15, 40, 0
17, 139200, Note_on_c, 15, 40, 84
17, 139259, Note_on_c, 15, 40, 0
17, 139260, Note_on_c, 15, 41, 76
17, 139319, Note_on_c, 15, 41, 0
17, 139320, Note_on_c, 15, 40, 76
17, 139379, Note_on_c, 15, 40, 0
17, 139380, Note_on_c, 15, 41, 76
17, 139439, Note_on_c, 15, 41, 0
17, 139440, Note_on_c, 15, 40, 76
17, 139499, Note_on_c, 15, 40, 0
17, 139500, Note_on_c, 15, 41, 76
17, 139559, Note_on_c, 15, 41, 0
17, 139560, Note_on_c, 15, 38, 76
17, 139619, Note_on_c, 15, 38, 0
17, 139620, Note_on_c, 15, 40, 76
17, 139664, Note_on_c, 15, 40, 0
17, 139680, Note_on_c, 15, 43, 76
17, 139859, Note_on_c, 15, 43, 0
17, 139920, Note_on_c, 15, 36, 76
17, 140099, Note_on_c, 15, 36, 0
17, 140640, Note_on_c, 15, 35, 76
17, 140879, Note_on_c, 15, 35, 0
17, 141000, Note_on_c, 15, 40, 76
17, 141089, Note_on_c, 15, 40, 0
17, 141120, Note_on_c, 15, 40, 76
17, 141179, Note_on_c, 15, 40, 0
17, 141180, Note_on_c, 15, 42, 84
17, 141239, Note_on_c, 15, 42, 0
17, 141240, Note_on_c, 15, 40, 76
17, 141299, Note_on_c, 15, 40, 0
17, 141300, Note_on_c, 15, 42, 76
17, 141359, Note_on_c, 15, 42, 0
17, 141360, Note_on_c, 15, 40, 76
17, 141419, Note_on_c, 15, 40, 0
17, 141420, Note_on_c, 15, 42, 76
17, 141479, Note_on_c, 15, 42, 0
17, 141480, Note_on_c, 15, 38, 76
17, 141539, Note_on_c, 15, 38, 0
17, 141540, Note_on_c, 15, 40, 76
17, 141584, Note_on_c, 15, 40, 0
17, 141600, Note_on_c, 15, 43, 76
17, 141779, Note_on_c, 15, 43, 0
17, 141840, Note_on_c, 15, 35, 76
17, 142019, Note_on_c, 15, 35, 0
17, 142320, Control_c, 15, 11, 80
17, 142560, Note_on_c, 15, 34, 76
17, 142799, Note_on_c, 15, 34, 0
17, 143520, Note_on_c, 15, 33, 76
17, 143759, Note_on_c, 15, 33, 0
17, 144480, Control_c, 15, 11, 80
17, 144480, Note_on_c, 15, 38, 76
17, 144719, Note_on_c, 15, 38, 0
17, 144720, Control_c, 15, 11, 82
17, 144960, Control_c, 15, 11, 84
17, 145200, Control_c, 15, 11, 86
17, 145440, Note_on_c, 15, 35, 76
17, 145440, Control_c, 15, 11, 88
17, 145679, Note_on_c, 15, 35, 0
17, 145680, Control_c, 15, 11, 90
17, 145920, Control_c, 15, 11, 92
17, 146160, Control_c, 15, 11, 94
17, 146400, Note_on_c, 15, 40, 76
17, 146400, Control_c, 15, 11, 96
17, 146639, Note_on_c, 15, 40, 0
17, 146640, Control_c, 15, 11, 98
17, 146880, Control_c, 15, 11, 100
17, 147120, Control_c, 15, 11, 102
17, 147360, Control_c, 15, 11, 104
17, 147360, Note_on_c, 15, 37, 76
17, 147599, Note_on_c, 15, 37, 0
17, 147600, Control_c, 15, 11, 105
17, 147840, Control_c, 15, 11, 107
17, 148080, Control_c, 15, 11, 109
17, 148320, Note_on_c, 15, 42, 76
17, 148320, Control_c, 15, 11, 111
17, 148559, Note_on_c, 15, 42, 0
17, 148560, Control_c, 15, 11, 113
17, 148800, Control_c, 15, 11, 115
17, 149040, Control_c, 15, 11, 117
17, 149280, Control_c, 15, 11, 119
17, 149280, Note_on_c, 15, 38, 76
17, 149519, Note_on_c, 15, 38, 0
17, 149520, Control_c, 15, 11, 121
17, 149760, Control_c, 15, 11, 123
17, 150000, Control_c, 15, 11, 125
17, 150240, Note_on_c, 15, 37, 76
17, 150240, Control_c, 15, 11, 127
17, 150449, Note_on_c, 15, 37, 0
17, 150480, Note_on_c, 15, 49, 76
17, 150959, Note_on_c, 15, 49, 0
17, 150960, Note_on_c, 15, 48, 76
17, 151199, Note_on_c, 15, 48, 0
17, 151200, Note_on_c, 15, 49, 76
17, 151439, Note_on_c, 15, 49, 0
17, 151440, Note_on_c, 15, 50, 76
17, 151679, Note_on_c, 15, 50, 0
17, 151680, Note_on_c, 15, 49, 76
17, 151919, Note_on_c, 15, 49, 0
17, 151920, Note_on_c, 15, 47, 76
17, 152129, Note_on_c, 15, 47, 0
17, 152160, Note_on_c, 15, 45, 76
17, 152399, Note_on_c, 15, 45, 0
17, 152400, Note_on_c, 15, 44, 76
17, 152639, Note_on_c, 15, 44, 0
17, 152640, Note_on_c, 15, 42, 76
17, 152879, Note_on_c, 15, 42, 0
17, 152880, Note_on_c, 15, 41, 76
17, 153119, Note_on_c, 15, 41, 0
17, 153120, Note_on_c, 15, 42, 76
17, 153359, Note_on_c, 15, 42, 0
17, 153360, Note_on_c, 15, 38, 76
17, 153599, Note_on_c, 15, 38, 0
17, 153600, Note_on_c, 15, 37, 76
17, 153839, Note_on_c, 15, 37, 0
17, 153840, Note_on_c, 15, 36, 76
17, 154049, Note_on_c, 15, 36, 0
17, 154080, Note_on_c, 15, 37, 84
17, 154799, Note_on_c, 15, 37, 0
17, 154800, Note_on_c, 15, 36, 84
17, 155039, Note_on_c, 15, 36, 0
17, 155040, Note_on_c, 15, 37, 84
17, 155279, Note_on_c, 15, 37, 0
17, 155280, Note_on_c, 15, 38, 84
17, 155519, Note_on_c, 15, 38, 0
17, 155520, Note_on_c, 15, 37, 84
17, 155759, Note_on_c, 15, 37, 0
17, 155760, Note_on_c, 15, 35, 84
17, 155969, Note_on_c, 15, 35, 0
17, 156000, Note_on_c, 15, 33, 84
17, 156239, Note_on_c, 15, 33, 0
17, 156240, Note_on_c, 15, 32, 84
17, 156479, Note_on_c, 15, 32, 0
17, 156480, Note_on_c, 15, 30, 84
17, 156719, Note_on_c, 15, 30, 0
17, 156720, Note_on_c, 15, 41, 84
17, 156929, Note_on_c, 15, 41, 0
17, 156960, Note_on_c, 15, 42, 84
17, 157199, Note_on_c, 15, 42, 0
17, 157200, Note_on_c, 15, 38, 84
17, 157439, Note_on_c, 15, 38, 0
17, 157440, Note_on_c, 15, 37, 84
17, 157679, Note_on_c, 15, 37, 0
17, 157680, Note_on_c, 15, 35, 84
17, 157889, Note_on_c, 15, 35, 0
17, 157920, Note_on_c, 15, 33, 84
17, 158159, Note_on_c, 15, 33, 0
17, 158760, Note_on_c, 15, 33, 84
17, 158879, Note_on_c, 15, 33, 0
17, 158880, Note_on_c, 15, 35, 84
17, 159059, Note_on_c, 15, 35, 0
17, 159720, Note_on_c, 15, 35, 84
17, 159839, Note_on_c, 15, 35, 0
17, 159840, Note_on_c, 15, 37, 84
17, 160019, Note_on_c, 15, 37, 0
17, 160680, Note_on_c, 15, 37, 84
17, 160799, Note_on_c, 15, 37, 0
17, 160800, Note_on_c, 15, 38, 84
17, 160979, Note_on_c, 15, 38, 0
17, 161160, Note_on_c, 15, 38, 84
17, 161279, Note_on_c, 15, 38, 0
17, 161280, Note_on_c, 15, 36, 84
17, 161459, Note_on_c, 15, 36, 0
17, 161640, Note_on_c, 15, 36, 84
17, 161759, Note_on_c, 15, 36, 0
17, 161760, Note_on_c, 15, 37, 84
17, 161849, Note_on_c, 15, 37, 0
17, 161880, Note_on_c, 15, 49, 84
17, 161969, Note_on_c, 15, 49, 0
17, 162000, Note_on_c, 15, 49, 84
17, 162089, Note_on_c, 15, 49, 0
17, 162120, Note_on_c, 15, 49, 84
17, 162209, Note_on_c, 15, 49, 0
17, 162240, Note_on_c, 15, 49, 84
17, 162329, Note_on_c, 15, 49, 0
17, 162360, Note_on_c, 15, 49, 84
17, 162449, Note_on_c, 15, 49, 0
17, 162480, Note_on_c, 15, 49, 84
17, 162569, Note_on_c, 15, 49, 0
17, 162600, Note_on_c, 15, 49, 84
17, 162689, Note_on_c, 15, 49, 0
17, 162720, Note_on_c, 15, 37, 84
17, 162809, Note_on_c, 15, 37, 0
17, 162840, Note_on_c, 15, 49, 84
17, 162929, Note_on_c, 15, 49, 0
17, 162960, Note_on_c, 15, 49, 84
17, 163049, Note_on_c, 15, 49, 0
17, 163080, Note_on_c, 15, 49, 84
17, 163169, Note_on_c, 15, 49, 0
17, 163200, Note_on_c, 15, 37, 84
17, 163289, Note_on_c, 15, 37, 0
17, 163320, Note_on_c, 15, 49, 84
17, 163409, Note_on_c, 15, 49, 0
17, 163440, Note_on_c, 15, 49, 84
17, 163529, Note_on_c, 15, 49, 0
17, 163560, Note_on_c, 15, 49, 84
17, 163649, Note_on_c, 15, 49, 0
17, 163680, Note_on_c, 15, 42, 84
17, 163919, Note_on_c, 15, 42, 0
17, 164520, Note_on_c, 15, 33, 84
17, 164639, Note_on_c, 15, 33, 0
17, 164640, Note_on_c, 15, 35, 84
17, 164819, Note_on_c, 15, 35, 0
17, 165480, Note_on_c, 15, 35, 84
17, 165599, Note_on_c, 15, 35, 0
17, 165600, Note_on_c, 15, 37, 84
17, 165779, Note_on_c, 15, 37, 0
17, 166440, Note_on_c, 15, 37, 84
17, 166559, Note_on_c, 15, 37, 0
17, 166560, Note_on_c, 15, 38, 84
17, 166739, Note_on_c, 15, 38, 0
17, 166920, Note_on_c, 15, 38, 84
17, 167039, Note_on_c, 15, 38, 0
17, 167040, Note_on_c, 15, 36, 84
17, 167219, Note_on_c, 15, 36, 0
17, 167400, Note_on_c, 15, 36, 84
17, 167519, Note_on_c, 15, 36, 0
17, 167520, Note_on_c, 15, 37, 92
17, 167699, Note_on_c, 15, 37, 0
17, 168360, Note_on_c, 15, 37, 84
17, 168479, Note_on_c, 15, 37, 0
17, 168480, Note_on_c, 15, 38, 84
17, 168659, Note_on_c, 15, 38, 0
17, 168840, Note_on_c, 15, 38, 84
17, 168959, Note_on_c, 15, 38, 0
17, 168960, Note_on_c, 15, 36, 84
17, 169139, Note_on_c, 15, 36, 0
17, 169320, Note_on_c, 15, 36, 84
17, 169439, Note_on_c, 15, 36, 0
17, 169440, Note_on_c, 15, 37, 84
17, 169619, Note_on_c, 15, 37, 0
17, 169800, Note_on_c, 15, 37, 84
17, 169919, Note_on_c, 15, 37, 0
17, 169920, Note_on_c, 15, 38, 84
17, 170099, Note_on_c, 15, 38, 0
17, 170280, Note_on_c, 15, 36, 84
17, 170399, Note_on_c, 15, 36, 0
17, 170400, Note_on_c, 15, 37, 92
17, 170579, Note_on_c, 15, 37, 0
17, 170760, Note_on_c, 15, 37, 84
17, 170879, Note_on_c, 15, 37, 0
17, 170880, Note_on_c, 15, 38, 84
17, 171059, Note_on_c, 15, 38, 0
17, 171240, Note_on_c, 15, 36, 84
17, 171329, Note_on_c, 15, 36, 0
17, 171360, Note_on_c, 15, 37, 92
17, 171449, Note_on_c, 15, 37, 0
17, 171480, Note_on_c, 15, 37, 84
17, 171569, Note_on_c, 15, 37, 0
17, 171600, Note_on_c, 15, 37, 84
17, 171689, Note_on_c, 15, 37, 0
17, 171720, Note_on_c, 15, 37, 84
17, 171809, Note_on_c, 15, 37, 0
17, 171840, Note_on_c, 15, 38, 84
17, 171929, Note_on_c, 15, 38, 0
17, 171960, Note_on_c, 15, 38, 84
17, 172049, Note_on_c, 15, 38, 0
17, 172080, Note_on_c, 15, 36, 84
17, 172169, Note_on_c, 15, 36, 0
17, 172200, Note_on_c, 15, 36, 84
17, 172289, Note_on_c, 15, 36, 0
17, 172320, Note_on_c, 15, 37, 92
17, 172409, Note_on_c, 15, 37, 0
17, 172440, Note_on_c, 15, 37, 84
17, 172529, Note_on_c, 15, 37, 0
17, 172560, Note_on_c, 15, 37, 84
17, 172649, Note_on_c, 15, 37, 0
17, 172680, Note_on_c, 15, 37, 84
17, 172769, Note_on_c, 15, 37, 0
17, 172800, Note_on_c, 15, 38, 84
17, 172889, Note_on_c, 15, 38, 0
17, 172920, Note_on_c, 15, 38, 84
17, 173009, Note_on_c, 15, 38, 0
17, 173040, Note_on_c, 15, 36, 84
17, 173129, Note_on_c, 15, 36, 0
17, 173160, Note_on_c, 15, 36, 84
17, 173249, Note_on_c, 15, 36, 0
17, 173280, Note_on_c, 15, 37, 92
17, 173519, Note_on_c, 15, 37, 0
17, 175200, Note_on_c, 15, 49, 44
17, 175439, Note_on_c, 15, 49, 0
17, 177120, Note_on_c, 15, 33, 76
17, 177359, Note_on_c, 15, 33, 0
17, 177480, Note_on_c, 15, 37, 76
17, 177569, Note_on_c, 15, 37, 0
17, 177600, Note_on_c, 15, 37, 84
17, 177659, Note_on_c, 15, 37, 0
17, 177660, Note_on_c, 15, 38, 76
17, 177719, Note_on_c, 15, 38, 0
17, 177720, Note_on_c, 15, 37, 76
17, 177779, Note_on_c, 15, 37, 0
17, 177780, Note_on_c, 15, 38, 76
17, 177839, Note_on_c, 15, 38, 0
17, 177840, Note_on_c, 15, 37, 76
17, 177899, Note_on_c, 15, 37, 0
17, 177900, Note_on_c, 15, 38, 76
17, 177959, Note_on_c, 15, 38, 0
17, 177960, Note_on_c, 15, 35, 76
17, 178019, Note_on_c, 15, 35, 0
17, 178020, Note_on_c, 15, 37, 76
17, 178064, Note_on_c, 15, 37, 0
17, 178080, Note_on_c, 15, 40, 76
17, 178259, Note_on_c, 15, 40, 0
17, 178320, Note_on_c, 15, 33, 76
17, 178499, Note_on_c, 15, 33, 0
17, 180480, Note_on_c, 15, 31, 52
17, 180719, Note_on_c, 15, 31, 0
17, 180960, Note_on_c, 15, 33, 52
17, 181199, Note_on_c, 15, 33, 0
17, 181440, Note_on_c, 15, 33, 52
17, 181679, Note_on_c, 15, 33, 0
17, 181920, Note_on_c, 15, 38, 76
17, 182099, Note_on_c, 15, 38, 0
17, 182160, Note_on_c, 15, 33, 76
17, 182339, Note_on_c, 15, 33, 0
17, 183240, Note_on_c, 15, 37, 84
17, 183329, Note_on_c, 15, 37, 0
17, 183360, Note_on_c, 15, 37, 92
17, 183419, Note_on_c, 15, 37, 0
17, 183420, Note_on_c, 15, 38, 84
17, 183479, Note_on_c, 15, 38, 0
17, 183480, Note_on_c, 15, 37, 84
17, 183539, Note_on_c, 15, 37, 0
17, 183540, Note_on_c, 15, 38, 84
17, 183599, Note_on_c, 15, 38, 0
17, 183600, Note_on_c, 15, 37, 84
17, 183659, Note_on_c, 15, 37, 0
17, 183660, Note_on_c, 15, 38, 84
17, 183719, Note_on_c, 15, 38, 0
17, 183720, Note_on_c, 15, 35, 84
17, 183779, Note_on_c, 15, 35, 0
17, 183780, Note_on_c, 15, 37, 84
17, 183824, Note_on_c, 15, 37, 0
17, 183840, Note_on_c, 15, 40, 84
17, 184019, Note_on_c, 15, 40, 0
17, 184080, Note_on_c, 15, 33, 84
17, 184259, Note_on_c, 15, 33, 0
17, 186240, Note_on_c, 15, 31, 52
17, 186479, Note_on_c, 15, 31, 0
17, 186720, Note_on_c, 15, 33, 52
17, 186959, Note_on_c, 15, 33, 0
17, 187200, Note_on_c, 15, 33, 52
17, 187439, Note_on_c, 15, 33, 0
17, 187680, Note_on_c, 15, 38, 76
17, 187919, Note_on_c, 15, 38, 0
17, 188520, Note_on_c, 15, 42, 76
17, 188609, Note_on_c, 15, 42, 0
17, 188640, Note_on_c, 15, 43, 76
17, 188819, Note_on_c, 15, 43, 0
17, 188880, Note_on_c, 15, 45, 76
17, 189059, Note_on_c, 15, 45, 0
17, 189120, Note_on_c, 15, 47, 76
17, 189299, Note_on_c, 15, 47, 0
17, 189360, Note_on_c, 15, 44, 76
17, 189539, Note_on_c, 15, 44, 0
17, 189600, Note_on_c, 15, 45, 76
17, 189839, Note_on_c, 15, 45, 0
17, 190440, Note_on_c, 15, 46, 76
17, 190529, Note_on_c, 15, 46, 0
17, 190560, Note_on_c, 15, 47, 76
17, 190739, Note_on_c, 15, 47, 0
17, 190800, Note_on_c, 15, 42, 76
17, 190979, Note_on_c, 15, 42, 0
17, 191040, Note_on_c, 15, 43, 76
17, 191219, Note_on_c, 15, 43, 0
17, 191280, Note_on_c, 15, 40, 76
17, 191459, Note_on_c, 15, 40, 0
17, 191520, Note_on_c, 15, 38, 84
17, 191759, Note_on_c, 15, 38, 0
17, 192240, Note_on_c, 15, 42, 76
17, 192419, Note_on_c, 15, 42, 0
17, 192480, Note_on_c, 15, 43, 76
17, 192659, Note_on_c, 15, 43, 0
17, 192720, Note_on_c, 15, 45, 76
17, 192899, Note_on_c, 15, 45, 0
17, 192960, Note_on_c, 15, 47, 76
17, 193139, Note_on_c, 15, 47, 0
17, 193200, Note_on_c, 15, 44, 76
17, 193379, Note_on_c, 15, 44, 0
17, 193440, Note_on_c, 15, 45, 84
17, 193679, Note_on_c, 15, 45, 0
17, 194160, Note_on_c, 15, 48, 76
17, 194339, Note_on_c, 15, 48, 0
17, 194400, Note_on_c, 15, 47, 76
17, 194579, Note_on_c, 15, 47, 0
17, 194640, Note_on_c, 15, 48, 76
17, 194819, Note_on_c, 15, 48, 0
17, 194880, Note_on_c, 15, 47, 76
17, 195059, Note_on_c, 15, 47, 0
17, 195120, Note_on_c, 15, 46, 76
17, 195299, Note_on_c, 15, 46, 0
17, 195360, Note_on_c, 15, 33, 84
17, 195449, Note_on_c, 15, 33, 0
17, 195480, Note_on_c, 15, 45, 84
17, 195569, Note_on_c, 15, 45, 0
17, 195600, Note_on_c, 15, 45, 84
17, 195689, Note_on_c, 15, 45, 0
17, 195720, Note_on_c, 15, 45, 84
17, 195809, Note_on_c, 15, 45, 0
17, 195840, Note_on_c, 15, 45, 84
17, 195929, Note_on_c, 15, 45, 0
17, 195960, Note_on_c, 15, 45, 84
17, 196049, Note_on_c, 15, 45, 0
17, 196080, Note_on_c, 15, 45, 84
17, 196169, Note_on_c, 15, 45, 0
17, 196200, Note_on_c, 15, 45, 84
17, 196289, Note_on_c, 15, 45, 0
17, 196320, Note_on_c, 15, 45, 84
17, 196409, Note_on_c, 15, 45, 0
17, 196440, Note_on_c, 15, 45, 84
17, 196529, Note_on_c, 15, 45, 0
17, 196560, Note_on_c, 15, 45, 84
17, 196649, Note_on_c, 15, 45, 0
17, 196680, Note_on_c, 15, 45, 84
17, 196769, Note_on_c, 15, 45, 0
17, 196800, Note_on_c, 15, 45, 84
17, 196889, Note_on_c, 15, 45, 0
17, 196920, Note_on_c, 15, 45, 84
17, 197009, Note_on_c, 15, 45, 0
17, 197040, Note_on_c, 15, 45, 84
17, 197129, Note_on_c, 15, 45, 0
17, 197160, Note_on_c, 15, 45, 84
17, 197249, Note_on_c, 15, 45, 0
17, 197280, Note_on_c, 15, 45, 84
17, 197369, Note_on_c, 15, 45, 0
17, 197400, Note_on_c, 15, 45, 84
17, 197489, Note_on_c, 15, 45, 0
17, 197520, Note_on_c, 15, 45, 84
17, 197609, Note_on_c, 15, 45, 0
17, 197640, Note_on_c, 15, 45, 84
17, 197729, Note_on_c, 15, 45, 0
17, 197760, Note_on_c, 15, 45, 84
17, 197849, Note_on_c, 15, 45, 0
17, 197880, Note_on_c, 15, 45, 84
17, 197969, Note_on_c, 15, 45, 0
17, 198000, Note_on_c, 15, 45, 84
17, 198089, Note_on_c, 15, 45, 0
17, 198120, Note_on_c, 15, 45, 84
17, 198209, Note_on_c, 15, 45, 0
17, 198240, Note_on_c, 15, 45, 84
17, 198329, Note_on_c, 15, 45, 0
17, 198360, Note_on_c, 15, 45, 84
17, 198449, Note_on_c, 15, 45, 0
17, 198480, Note_on_c, 15, 45, 84
17, 198569, Note_on_c, 15, 45, 0
17, 198600, Note_on_c, 15, 45, 84
17, 198689, Note_on_c, 15, 45, 0
17, 198720, Note_on_c, 15, 45, 84
17, 198809, Note_on_c, 15, 45, 0
17, 198840, Note_on_c, 15, 45, 84
17, 198929, Note_on_c, 15, 45, 0
17, 198960, Note_on_c, 15, 45, 84
17, 199049, Note_on_c, 15, 45, 0
17, 199080, Note_on_c, 15, 45, 84
17, 199169, Note_on_c, 15, 45, 0
17, 199200, Note_on_c, 15, 45, 84
17, 199379, Note_on_c, 15, 45, 0
17, 199440, Note_on_c, 15, 33, 84
17, 199619, Note_on_c, 15, 33, 0
17, 199680, Note_on_c, 15, 33, 84
17, 199859, Note_on_c, 15, 33, 0
17, 199920, Note_on_c, 15, 33, 84
17, 200099, Note_on_c, 15, 33, 0
17, 200160, Note_on_c, 15, 33, 84
17, 200399, Note_on_c, 15, 33, 0
17, 200880, Program_c, 15, 45
17, 201120, Note_on_c, 15, 38, 52
17, 201359, Note_on_c, 15, 38, 0
17, 202080, Note_on_c, 15, 33, 52
17, 202319, Note_on_c, 15, 33, 0
17, 203040, Note_on_c, 15, 38, 52
17, 203279, Note_on_c, 15, 38, 0
17, 204000, Note_on_c, 15, 33, 52
17, 204239, Note_on_c, 15, 33, 0
17, 204960, Note_on_c, 15, 38, 52
17, 205199, Note_on_c, 15, 38, 0
17, 206640, Note_on_c, 15, 40, 52
17, 206879, Note_on_c, 15, 40, 0
17, 206880, Note_on_c, 15, 33, 52
17, 207119, Note_on_c, 15, 33, 0
17, 207840, Note_on_c, 15, 40, 52
17, 208079, Note_on_c, 15, 40, 0
17, 208800, Note_on_c, 15, 33, 52
17, 209039, Note_on_c, 15, 33, 0
17, 209760, Note_on_c, 15, 40, 52
17, 209999, Note_on_c, 15, 40, 0
17, 210720, Note_on_c, 15, 33, 52
17, 210959, Note_on_c, 15, 33, 0
17, 212400, Note_on_c, 15, 38, 52
17, 212609, Note_on_c, 15, 38, 0
17, 212625, Program_c, 15, 48
17, 212625, Control_c, 15, 11, 80
17, 212640, Note_on_c, 15, 43, 76
17, 213329, Note_on_c, 15, 43, 0
17, 213360, Note_on_c, 15, 43, 76
17, 213569, Note_on_c, 15, 43, 0
17, 213600, Note_on_c, 15, 43, 76
17, 213839, Note_on_c, 15, 43, 0
17, 213840, Note_on_c, 15, 42, 76
17, 214079, Note_on_c, 15, 42, 0
17, 214080, Note_on_c, 15, 40, 76
17, 214319, Note_on_c, 15, 40, 0
17, 214320, Note_on_c, 15, 38, 76
17, 214529, Note_on_c, 15, 38, 0
17, 214560, Note_on_c, 15, 43, 76
17, 215249, Note_on_c, 15, 43, 0
17, 215280, Note_on_c, 15, 43, 76
17, 215489, Note_on_c, 15, 43, 0
17, 215520, Note_on_c, 15, 43, 76
17, 215759, Note_on_c, 15, 43, 0
17, 215760, Note_on_c, 15, 42, 76
17, 215999, Note_on_c, 15, 42, 0
17, 216000, Note_on_c, 15, 40, 76
17, 216239, Note_on_c, 15, 40, 0
17, 216240, Note_on_c, 15, 38, 76
17, 216449, Note_on_c, 15, 38, 0
17, 216480, Control_c, 15, 11, 80
17, 216480, Note_on_c, 15, 43, 76
17, 216640, Control_c, 15, 11, 84
17, 216800, Control_c, 15, 11, 88
17, 216960, Control_c, 15, 11, 92
17, 217120, Control_c, 15, 11, 96
17, 217199, Note_on_c, 15, 43, 0
17, 217200, Note_on_c, 15, 42, 76
17, 217280, Control_c, 15, 11, 100
17, 217439, Note_on_c, 15, 42, 0
17, 217440, Control_c, 15, 11, 104
17, 217440, Note_on_c, 15, 47, 76
17, 217600, Control_c, 15, 11, 107
17, 217679, Note_on_c, 15, 47, 0
17, 217680, Note_on_c, 15, 45, 76
17, 217760, Control_c, 15, 11, 111
17, 217919, Note_on_c, 15, 45, 0
17, 217920, Note_on_c, 15, 43, 76
17, 217920, Control_c, 15, 11, 115
17, 218080, Control_c, 15, 11, 119
17, 218159, Note_on_c, 15, 43, 0
17, 218160, Note_on_c, 15, 44, 76
17, 218240, Control_c, 15, 11, 127
17, 218369, Note_on_c, 15, 44, 0
17, 218400, Note_on_c, 15, 33, 76
17, 218489, Note_on_c, 15, 33, 0
17, 218520, Note_on_c, 15, 45, 76
17, 218609, Note_on_c, 15, 45, 0
17, 218640, Note_on_c, 15, 45, 76
17, 218729, Note_on_c, 15, 45, 0
17, 218760, Note_on_c, 15, 45, 76
17, 218849, Note_on_c, 15, 45, 0
17, 218880, Note_on_c, 15, 45, 76
17, 218969, Note_on_c, 15, 45, 0
17, 219000, Note_on_c, 15, 45, 76
17, 219089, Note_on_c, 15, 45, 0
17, 219120, Note_on_c, 15, 45, 76
17, 219209, Note_on_c, 15, 45, 0
17, 219240, Note_on_c, 15, 45, 76
17, 219329, Note_on_c, 15, 45, 0
17, 219360, Note_on_c, 15, 45, 84
17, 219449, Note_on_c, 15, 45, 0
17, 219480, Note_on_c, 15, 45, 76
17, 219569, Note_on_c, 15, 45, 0
17, 219600, Note_on_c, 15, 45, 76
17, 219689, Note_on_c, 15, 45, 0
17, 219720, Note_on_c, 15, 45, 76
17, 219809, Note_on_c, 15, 45, 0
17, 219840, Note_on_c, 15, 45, 76
17, 219929, Note_on_c, 15, 45, 0
17, 219960, Note_on_c, 15, 45, 76
17, 220049, Note_on_c, 15, 45, 0
17, 220080, Note_on_c, 15, 45, 76
17, 220169, Note_on_c, 15, 45, 0
17, 220200, Note_on_c, 15, 45, 76
17, 220289, Note_on_c, 15, 45, 0
17, 220320, Note_on_c, 15, 33, 76
17, 220409, Note_on_c, 15, 33, 0
17, 220440, Note_on_c, 15, 33, 76
17, 220529, Note_on_c, 15, 33, 0
17, 220560, Note_on_c, 15, 33, 76
17, 220649, Note_on_c, 15, 33, 0
17, 220680, Note_on_c, 15, 33, 76
17, 220769, Note_on_c, 15, 33, 0
17, 220800, Note_on_c, 15, 33, 76
17, 220889, Note_on_c, 15, 33, 0
17, 220920, Note_on_c, 15, 33, 76
17, 221009, Note_on_c, 15, 33, 0
17, 221040, Note_on_c, 15, 33, 76
17, 221129, Note_on_c, 15, 33, 0
17, 221160, Note_on_c, 15, 33, 76
17, 221249, Note_on_c, 15, 33, 0
17, 221280, Note_on_c, 15, 33, 84
17, 221369, Note_on_c, 15, 33, 0
17, 221400, Note_on_c, 15, 33, 76
17, 221489, Note_on_c, 15, 33, 0
17, 221520, Note_on_c, 15, 33, 76
17, 221609, Note_on_c, 15, 33, 0
17, 221640, Note_on_c, 15, 33, 76
17, 221729, Note_on_c, 15, 33, 0
17, 221760, Note_on_c, 15, 33, 76
17, 221849, Note_on_c, 15, 33, 0
17, 221880, Note_on_c, 15, 33, 76
17, 221969, Note_on_c, 15, 33, 0
17, 222000, Note_on_c, 15, 33, 76
17, 222089, Note_on_c, 15, 33, 0
17, 222120, Note_on_c, 15, 33, 76
17, 222209, Note_on_c, 15, 33, 0
17, 222240, Note_on_c, 15, 33, 76
17, 222329, Note_on_c, 15, 33, 0
17, 222360, Note_on_c, 15, 33, 76
17, 222449, Note_on_c, 15, 33, 0
17, 222480, Note_on_c, 15, 33, 76
17, 222569, Note_on_c, 15, 33, 0
17, 222600, Note_on_c, 15, 33, 76
17, 222689, Note_on_c, 15, 33, 0
17, 222720, Note_on_c, 15, 33, 84
17, 222809, Note_on_c, 15, 33, 0
17, 222840, Note_on_c, 15, 33, 76
17, 222929, Note_on_c, 15, 33, 0
17, 222960, Note_on_c, 15, 33, 76
17, 223049, Note_on_c, 15, 33, 0
17, 223080, Note_on_c, 15, 33, 76
17, 223169, Note_on_c, 15, 33, 0
17, 223200, Note_on_c, 15, 33, 76
17, 223289, Note_on_c, 15, 33, 0
17, 223320, Note_on_c, 15, 33, 76
17, 223409, Note_on_c, 15, 33, 0
17, 223440, Note_on_c, 15, 33, 76
17, 223529, Note_on_c, 15, 33, 0
17, 223560, Note_on_c, 15, 33, 76
17, 223649, Note_on_c, 15, 33, 0
17, 223680, Note_on_c, 15, 33, 84
17, 223769, Note_on_c, 15, 33, 0
17, 223800, Note_on_c, 15, 33, 76
17, 223889, Note_on_c, 15, 33, 0
17, 223920, Note_on_c, 15, 33, 76
17, 224009, Note_on_c, 15, 33, 0
17, 224040, Note_on_c, 15, 33, 76
17, 224129, Note_on_c, 15, 33, 0
17, 224160, Note_on_c, 15, 33, 76
17, 224399, Note_on_c, 15, 33, 0
17, 226080, Note_on_c, 15, 38, 52
17, 226319, Note_on_c, 15, 38, 0
17, 227040, Note_on_c, 15, 38, 52
17, 227279, Note_on_c, 15, 38, 0
17, 228000, Note_on_c, 15, 37, 52
17, 228239, Note_on_c, 15, 37, 0
17, 228960, Note_on_c, 15, 33, 68
17, 229199, Note_on_c, 15, 33, 0
17, 229920, Note_on_c, 15, 38, 52
17, 230159, Note_on_c, 15, 38, 0
17, 230880, Note_on_c, 15, 38, 52
17, 231119, Note_on_c, 15, 38, 0
17, 231840, Note_on_c, 15, 37, 52
17, 232079, Note_on_c, 15, 37, 0
17, 232800, Note_on_c, 15, 33, 68
17, 233039, Note_on_c, 15, 33, 0
17, 233520, Control_c, 15, 11, 96
17, 233760, Note_on_c, 15, 38, 68
17, 233999, Note_on_c, 15, 38, 0
17, 234000, Control_c, 15, 11, 96
17, 234220, Control_c, 15, 11, 99
17, 234440, Control_c, 15, 11, 101
17, 234660, Control_c, 15, 11, 104
17, 234720, Note_on_c, 15, 42, 68
17, 234880, Control_c, 15, 11, 106
17, 234959, Note_on_c, 15, 42, 0
17, 235100, Control_c, 15, 11, 109
17, 235320, Control_c, 15, 11, 112
17, 235540, Control_c, 15, 11, 114
17, 235680, Note_on_c, 15, 47, 68
17, 235760, Control_c, 15, 11, 117
17, 235919, Note_on_c, 15, 47, 0
17, 235980, Control_c, 15, 11, 119
17, 236200, Control_c, 15, 11, 122
17, 236420, Control_c, 15, 11, 124
17, 236640, Note_on_c, 15, 45, 76
17, 236640, Control_c, 15, 11, 127
17, 236879, Note_on_c, 15, 45, 0
17, 237600, Note_on_c, 15, 50, 68
17, 237600, Control_c, 15, 11, 127
17, 237680, Control_c, 15, 11, 124
17, 237760, Control_c, 15, 11, 122
17, 237839, Note_on_c, 15, 50, 0
17, 237840, Control_c, 15, 11, 119
17, 238480, Control_c, 15, 11, 99
17, 238560, Note_on_c, 15, 43, 68
17, 238560, Control_c, 15, 11, 96
17, 238799, Note_on_c, 15, 43, 0
17, 239520, Note_on_c, 15, 45, 68
17, 239759, Note_on_c, 15, 45, 0
17, 240480, Note_on_c, 15, 33, 68
17, 240719, Note_on_c, 15, 33, 0
17, 241440, Note_on_c, 15, 38, 68
17, 241679, Note_on_c, 15, 38, 0
17, 242400, Note_on_c, 15, 38, 68
17, 242639, Note_on_c, 15, 38, 0
17, 243360, Note_on_c, 15, 37, 68
17, 243599, Note_on_c, 15, 37, 0
17, 244320, Note_on_c, 15, 33, 76
17, 244559, Note_on_c, 15, 33, 0
17, 245280, Note_on_c, 15, 38, 68
17, 245519, Note_on_c, 15, 38, 0
17, 245520, Control_c, 15, 11, 96
17, 245740, Control_c, 15, 11, 99
17, 245960, Control_c, 15, 11, 101
17, 246180, Control_c, 15, 11, 104
17, 246240, Note_on_c, 15, 38, 68
17, 246400, Control_c, 15, 11, 106
17, 246479, Note_on_c, 15, 38, 0
17, 246620, Control_c, 15, 11, 109
17, 246840, Control_c, 15, 11, 112
17, 247060, Control_c, 15, 11, 114
17, 247200, Note_on_c, 15, 36, 68
17, 247280, Control_c, 15, 11, 117
17, 247439, Note_on_c, 15, 36, 0
17, 247500, Control_c, 15, 11, 119
17, 247720, Control_c, 15, 11, 122
17, 247940, Control_c, 15, 11, 124
17, 248160, Note_on_c, 15, 34, 68
17, 248160, Control_c, 15, 11, 127
17, 248399, Note_on_c, 15, 34, 0
17, 249120, Note_on_c, 15, 33, 68
17, 249120, Control_c, 15, 11, 127
17, 249200, Control_c, 15, 11, 124
17, 249280, Control_c, 15, 11, 122
17, 249359, Note_on_c, 15, 33, 0
17, 249360, Control_c, 15, 11, 119
17, 249440, Control_c, 15, 11, 117
17, 249520, Control_c, 15, 11, 114
17, 249600, Control_c, 15, 11, 112
17, 249680, Control_c, 15, 11, 109
17, 249760, Control_c, 15, 11, 106
17, 249840, Control_c, 15, 11, 104
17, 249920, Control_c, 15, 11, 101
17, 250000, Control_c, 15, 11, 99
17, 250080, Note_on_c, 15, 34, 68
17, 250080, Control_c, 15, 11, 96
17, 250319, Note_on_c, 15, 34, 0
17, 251040, Note_on_c, 15, 36, 68
17, 251279, Note_on_c, 15, 36, 0
17, 252000, Note_on_c, 15, 37, 68
17, 252239, Note_on_c, 15, 37, 0
17, 252720, Control_c, 15, 11, 80
17, 252960, Note_on_c, 15, 38, 76
17, 252960, Control_c, 15, 11, 80
17, 253199, Note_on_c, 15, 38, 0
17, 253280, Control_c, 15, 11, 84
17, 253600, Control_c, 15, 11, 88
17, 253920, Control_c, 15, 11, 92
17, 253920, Note_on_c, 15, 31, 76
17, 254159, Note_on_c, 15, 31, 0
17, 254240, Control_c, 15, 11, 96
17, 254560, Control_c, 15, 11, 100
17, 254880, Note_on_c, 15, 33, 76
17, 254880, Control_c, 15, 11, 104
17, 255119, Note_on_c, 15, 33, 0
17, 255200, Control_c, 15, 11, 107
17, 255520, Control_c, 15, 11, 111
17, 255840, Note_on_c, 15, 33, 76
17, 255840, Control_c, 15, 11, 115
17, 256079, Note_on_c, 15, 33, 0
17, 256160, Control_c, 15, 11, 119
17, 256480, Control_c, 15, 11, 123
17, 256800, Note_on_c, 15, 30, 76
17, 256800, Control_c, 15, 11, 127
17, 256979, Note_on_c, 15, 30, 0
17, 257040, Note_on_c, 15, 33, 76
17, 257219, Note_on_c, 15, 33, 0
17, 257280, Note_on_c, 15, 38, 76
17, 257459, Note_on_c, 15, 38, 0
17, 257520, Note_on_c, 15, 42, 76
17, 257699, Note_on_c, 15, 42, 0
17, 257760, Note_on_c, 15, 45, 84
17, 258449, Note_on_c, 15, 45, 0
17, 258480, Note_on_c, 15, 30, 76
17, 258689, Note_on_c, 15, 30, 0
17, 258720, Note_on_c, 15, 31, 76
17, 258899, Note_on_c, 15, 31, 0
17, 258960, Note_on_c, 15, 35, 76
17, 259139, Note_on_c, 15, 35, 0
17, 259200, Note_on_c, 15, 38, 76
17, 259379, Note_on_c, 15, 38, 0
17, 259440, Note_on_c, 15, 43, 76
17, 259619, Note_on_c, 15, 43, 0
17, 259680, Note_on_c, 15, 47, 84
17, 260369, Note_on_c, 15, 47, 0
17, 260400, Note_on_c, 15, 32, 76
17, 260609, Note_on_c, 15, 32, 0
17, 260640, Note_on_c, 15, 33, 84
17, 260819, Note_on_c, 15, 33, 0
17, 260880, Note_on_c, 15, 45, 76
17, 261119, Note_on_c, 15, 45, 0
17, 261360, Note_on_c, 15, 33, 76
17, 261569, Note_on_c, 15, 33, 0
17, 261600, Note_on_c, 15, 31, 84
17, 261779, Note_on_c, 15, 31, 0
17, 261840, Note_on_c, 15, 43, 76
17, 262079, Note_on_c, 15, 43, 0
17, 262320, Note_on_c, 15, 31, 76
17, 262529, Note_on_c, 15, 31, 0
17, 262560, Note_on_c, 15, 30, 76
17, 262739, Note_on_c, 15, 30, 0
17, 262800, Note_on_c, 15, 33, 76
17, 262979, Note_on_c, 15, 33, 0
17, 263040, Note_on_c, 15, 38, 76
17, 263219, Note_on_c, 15, 38, 0
17, 263280, Note_on_c, 15, 42, 76
17, 263459, Note_on_c, 15, 42, 0
17, 263520, Note_on_c, 15, 45, 84
17, 264209, Note_on_c, 15, 45, 0
17, 264240, Note_on_c, 15, 30, 76
17, 264449, Note_on_c, 15, 30, 0
17, 264480, Note_on_c, 15, 31, 76
17, 264659, Note_on_c, 15, 31, 0
17, 264720, Note_on_c, 15, 35, 76
17, 264899, Note_on_c, 15, 35, 0
17, 264960, Note_on_c, 15, 38, 76
17, 265139, Note_on_c, 15, 38, 0
17, 265200, Note_on_c, 15, 43, 76
17, 265379, Note_on_c, 15, 43, 0
17, 265440, Note_on_c, 15, 47, 84
17, 266129, Note_on_c, 15, 47, 0
17, 266160, Note_on_c, 15, 32, 76
17, 266369, Note_on_c, 15, 32, 0
17, 266400, Note_on_c, 15, 33, 84
17, 266579, Note_on_c, 15, 33, 0
17, 266640, Note_on_c, 15, 36, 84
17, 266819, Note_on_c, 15, 36, 0
17, 266880, Note_on_c, 15, 42, 84
17, 267059, Note_on_c, 15, 42, 0
17, 267120, Note_on_c, 15, 45, 84
17, 267299, Note_on_c, 15, 45, 0
17, 267360, Note_on_c, 15, 48, 84
17, 267539, Note_on_c, 15, 48, 0
17, 267600, Note_on_c, 15, 45, 84
17, 267779, Note_on_c, 15, 45, 0
17, 267840, Note_on_c, 15, 42, 84
17, 268019, Note_on_c, 15, 42, 0
17, 268080, Note_on_c, 15, 36, 84
17, 268259, Note_on_c, 15, 36, 0
17, 268320, Note_on_c, 15, 33, 84
17, 268499, Note_on_c, 15, 33, 0
17, 268560, Note_on_c, 15, 36, 84
17, 268739, Note_on_c, 15, 36, 0
17, 268800, Note_on_c, 15, 42, 84
17, 268979, Note_on_c, 15, 42, 0
17, 269040, Note_on_c, 15, 45, 84
17, 269219, Note_on_c, 15, 45, 0
17, 269280, Note_on_c, 15, 48, 84
17, 269459, Note_on_c, 15, 48, 0
17, 269520, Note_on_c, 15, 45, 84
17, 269699, Note_on_c, 15, 45, 0
17, 269760, Note_on_c, 15, 42, 84
17, 269939, Note_on_c, 15, 42, 0
17, 270000, Note_on_c, 15, 36, 84
17, 270179, Note_on_c, 15, 36, 0
17, 270240, Note_on_c, 15, 33, 84
17, 270479, Note_on_c, 15, 33, 0
17, 278880, Note_on_c, 15, 48, 44
17, 279119, Note_on_c, 15, 48, 0
17, 280800, Note_on_c, 15, 47, 44
17, 281039, Note_on_c, 15, 47, 0
17, 282120, Note_on_c, 15, 37, 76
17, 282209, Note_on_c, 15, 37, 0
17, 282240, Note_on_c, 15, 37, 84
17, 282299, Note_on_c, 15, 37, 0
17, 282300, Note_on_c, 15, 38, 76
17, 282359, Note_on_c, 15, 38, 0
17, 282360, Note_on_c, 15, 37, 76
17, 282419, Note_on_c, 15, 37, 0
17, 282420, Note_on_c, 15, 38, 76
17, 282479, Note_on_c, 15, 38, 0
17, 282480, Note_on_c, 15, 37, 76
17, 282539, Note_on_c, 15, 37, 0
17, 282540, Note_on_c, 15, 38, 76
17, 282599, Note_on_c, 15, 38, 0
17, 282600, Note_on_c, 15, 35, 76
17, 282659, Note_on_c, 15, 35, 0
17, 282660, Note_on_c, 15, 37, 76
17, 282704, Note_on_c, 15, 37, 0
17, 282720, Note_on_c, 15, 40, 76
17, 282899, Note_on_c, 15, 40, 0
17, 282960, Note_on_c, 15, 33, 76
17, 283139, Note_on_c, 15, 33, 0
17, 285120, Note_on_c, 15, 31, 52
17, 285359, Note_on_c, 15, 31, 0
17, 285600, Note_on_c, 15, 33, 52
17, 285839, Note_on_c, 15, 33, 0
17, 286080, Note_on_c, 15, 33, 52
17, 286319, Note_on_c, 15, 33, 0
17, 286560, Note_on_c, 15, 38, 76
17, 286739, Note_on_c, 15, 38, 0
17, 286800, Note_on_c, 15, 33, 76
17, 286979, Note_on_c, 15, 33, 0
17, 287880, Note_on_c, 15, 37, 76
17, 287969, Note_on_c, 15, 37, 0
17, 288000, Note_on_c, 15, 37, 84
17, 288059, Note_on_c, 15, 37, 0
17, 288060, Note_on_c, 15, 38, 76
17, 288119, Note_on_c, 15, 38, 0
17, 288120, Note_on_c, 15, 37, 76
17, 288179, Note_on_c, 15, 37, 0
17, 288180, Note_on_c, 15, 38, 76
17, 288239, Note_on_c, 15, 38, 0
17, 288240, Note_on_c, 15, 37, 76
17, 288299, Note_on_c, 15, 37, 0
17, 288300, Note_on_c, 15, 38, 76
17, 288359, Note_on_c, 15, 38, 0
17, 288360, Note_on_c, 15, 35, 76
17, 288419, Note_on_c, 15, 35, 0
17, 288420, Note_on_c, 15, 37, 76
17, 288464, Note_on_c, 15, 37, 0
17, 288480, Note_on_c, 15, 40, 76
17, 288659, Note_on_c, 15, 40, 0
17, 288720, Note_on_c, 15, 33, 76
17, 288899, Note_on_c, 15, 33, 0
17, 289800, Note_on_c, 15, 38, 76
17, 289889, Note_on_c, 15, 38, 0
17, 289920, Note_on_c, 15, 38, 76
17, 289979, Note_on_c, 15, 38, 0
17, 289980, Note_on_c, 15, 40, 76
17, 290039, Note_on_c, 15, 40, 0
17, 290040, Note_on_c, 15, 38, 76
17, 290099, Note_on_c, 15, 38, 0
17, 290100, Note_on_c, 15, 40, 76
17, 290159, Note_on_c, 15, 40, 0
17, 290160, Note_on_c, 15, 38, 76
17, 290219, Note_on_c, 15, 38, 0
17, 290220, Note_on_c, 15, 40, 76
17, 290279, Note_on_c, 15, 40, 0
17, 290280, Note_on_c, 15, 37, 76
17, 290339, Note_on_c, 15, 37, 0
17, 290340, Note_on_c, 15, 38, 76
17, 290384, Note_on_c, 15, 38, 0
17, 290400, Note_on_c, 15, 43, 76
17, 290579, Note_on_c, 15, 43, 0
17, 290640, Note_on_c, 15, 34, 76
17, 290819, Note_on_c, 15, 34, 0
17, 291600, Note_on_c, 15, 38, 84
17, 291779, Note_on_c, 15, 38, 0
17, 291840, Note_on_c, 15, 43, 76
17, 292019, Note_on_c, 15, 43, 0
17, 292080, Note_on_c, 15, 35, 76
17, 292259, Note_on_c, 15, 35, 0
17, 292560, Note_on_c, 15, 40, 84
17, 292739, Note_on_c, 15, 40, 0
17, 292800, Note_on_c, 15, 43, 76
17, 292979, Note_on_c, 15, 43, 0
17, 293040, Note_on_c, 15, 36, 76
17, 293219, Note_on_c, 15, 36, 0
17, 293520, Note_on_c, 15, 43, 84
17, 293699, Note_on_c, 15, 43, 0
17, 293760, Note_on_c, 15, 46, 76
17, 293939, Note_on_c, 15, 46, 0
17, 294000, Note_on_c, 15, 37, 76
17, 294179, Note_on_c, 15, 37, 0
17, 294240, Note_on_c, 15, 38, 76
17, 294419, Note_on_c, 15, 38, 0
17, 294480, Note_on_c, 15, 47, 76
17, 294659, Note_on_c, 15, 47, 0
17, 294720, Note_on_c, 15, 39, 76
17, 294899, Note_on_c, 15, 39, 0
17, 294960, Note_on_c, 15, 48, 76
17, 295139, Note_on_c, 15, 48, 0
17, 295200, Note_on_c, 15, 40, 76
17, 295379, Note_on_c, 15, 40, 0
17, 295440, Note_on_c, 15, 49, 76
17, 295619, Note_on_c, 15, 49, 0
17, 295680, Note_on_c, 15, 41, 76
17, 295859, Note_on_c, 15, 41, 0
17, 295920, Note_on_c, 15, 50, 76
17, 296099, Note_on_c, 15, 50, 0
17, 296160, Note_on_c, 15, 41, 76
17, 296339, Note_on_c, 15, 41, 0
17, 296400, Note_on_c, 15, 50, 76
17, 296579, Note_on_c, 15, 50, 0
17, 296640, Note_on_c, 15, 42, 76
17, 296819, Note_on_c, 15, 42, 0
17, 296880, Note_on_c, 15, 50, 76
17, 297059, Note_on_c, 15, 50, 0
17, 297120, Note_on_c, 15, 43, 76
17, 297299, Note_on_c, 15, 43, 0
17, 297360, Note_on_c, 15, 50, 76
17, 297539, Note_on_c, 15, 50, 0
17, 297600, Note_on_c, 15, 45, 76
17, 297779, Note_on_c, 15, 45, 0
17, 297840, Note_on_c, 15, 50, 76
17, 298019, Note_on_c, 15, 50, 0
17, 298080, Note_on_c, 15, 46, 76
17, 298259, Note_on_c, 15, 46, 0
17, 298320, Note_on_c, 15, 50, 76
17, 298499, Note_on_c, 15, 50, 0
17, 298560, Note_on_c, 15, 44, 76
17, 298739, Note_on_c, 15, 44, 0
17, 298800, Note_on_c, 15, 50, 76
17, 298979, Note_on_c, 15, 50, 0
17, 299040, Note_on_c, 15, 33, 76
17, 299160, Control_c, 15, 11, 80
17, 299279, Note_on_c, 15, 33, 0
17, 300720, Control_c, 15, 11, 127
17, 300960, Note_on_c, 15, 33, 76
17, 301080, Control_c, 15, 11, 80
17, 301199, Note_on_c, 15, 33, 0
17, 302640, Control_c, 15, 11, 127
17, 302880, Note_on_c, 15, 45, 76
17, 303119, Note_on_c, 15, 45, 0
17, 303840, Note_on_c, 15, 45, 76
17, 304079, Note_on_c, 15, 45, 0
17, 304800, Note_on_c, 15, 45, 76
17, 305039, Note_on_c, 15, 45, 0
17, 305760, Note_on_c, 15, 45, 76
17, 305999, Note_on_c, 15, 45, 0
17, 306480, Control_c, 15, 11, 80
17, 306720, Note_on_c, 15, 33, 76
17, 306809, Note_on_c, 15, 33, 0
17, 306840, Note_on_c, 15, 33, 76
17, 306880, Control_c, 15, 11, 84
17, 306929, Note_on_c, 15, 33, 0
17, 306960, Note_on_c, 15, 33, 76
17, 307040, Control_c, 15, 11, 88
17, 307049, Note_on_c, 15, 33, 0
17, 307080, Note_on_c, 15, 33, 76
17, 307169, Note_on_c, 15, 33, 0
17, 307200, Note_on_c, 15, 33, 76
17, 307200, Control_c, 15, 11, 92
17, 307289, Note_on_c, 15, 33, 0
17, 307320, Note_on_c, 15, 33, 76
17, 307360, Control_c, 15, 11, 96
17, 307409, Note_on_c, 15, 33, 0
17, 307440, Note_on_c, 15, 33, 76
17, 307520, Control_c, 15, 11, 100
17, 307529, Note_on_c, 15, 33, 0
17, 307560, Note_on_c, 15, 33, 76
17, 307649, Note_on_c, 15, 33, 0
17, 307680, Note_on_c, 15, 33, 76
17, 307680, Control_c, 15, 11, 104
17, 307769, Note_on_c, 15, 33, 0
17, 307800, Note_on_c, 15, 33, 76
17, 307840, Control_c, 15, 11, 107
17, 307889, Note_on_c, 15, 33, 0
17, 307920, Note_on_c, 15, 33, 76
17, 308000, Control_c, 15, 11, 111
17, 308009, Note_on_c, 15, 33, 0
17, 308040, Note_on_c, 15, 33, 76
17, 308129, Note_on_c, 15, 33, 0
17, 308160, Control_c, 15, 11, 115
17, 308160, Note_on_c, 15, 33, 76
17, 308249, Note_on_c, 15, 33, 0
17, 308280, Note_on_c, 15, 33, 76
17, 308320, Control_c, 15, 11, 119
17, 308369, Note_on_c, 15, 33, 0
17, 308400, Note_on_c, 15, 33, 76
17, 308480, Control_c, 15, 11, 127
17, 308489, Note_on_c, 15, 33, 0
17, 308520, Note_on_c, 15, 33, 76
17, 308609, Note_on_c, 15, 33, 0
17, 308640, Note_on_c, 15, 38, 76
17, 308879, Note_on_c, 15, 38, 0
17, 310560, Note_on_c, 15, 38, 76
17, 310799, Note_on_c, 15, 38, 0
17, 312480, Note_on_c, 15, 38, 76
17, 312719, Note_on_c, 15, 38, 0
17, 313440, Note_on_c, 15, 38, 76
17, 313679, Note_on_c, 15, 38, 0
17, 314400, Note_on_c, 15, 38, 76
17, 314639, Note_on_c, 15, 38, 0
17, 315360, Note_on_c, 15, 38, 76
17, 315599, Note_on_c, 15, 38, 0
17, 316320, Note_on_c, 15, 38, 76
17, 316799, Note_on_c, 15, 38, 0
17, 316800, Note_on_c, 15, 40, 76
17, 317039, Note_on_c, 15, 40, 0
17, 317040, Note_on_c, 15, 42, 76
17, 317249, Note_on_c, 15, 42, 0
17, 317280, Note_on_c, 15, 43, 84
17, 317759, Note_on_c, 15, 43, 0
17, 317760, Note_on_c, 15, 42, 76
17, 317999, Note_on_c, 15, 42, 0
17, 318000, Note_on_c, 15, 40, 76
17, 318209, Note_on_c, 15, 40, 0
17, 318240, Note_on_c, 15, 45, 84
17, 318719, Note_on_c, 15, 45, 0
17, 318720, Note_on_c, 15, 43, 76
17, 318959, Note_on_c, 15, 43, 0
17, 318960, Note_on_c, 15, 42, 76
17, 319169, Note_on_c, 15, 42, 0
17, 319200, Note_on_c, 15, 47, 84
17, 319679, Note_on_c, 15, 47, 0
17, 319680, Note_on_c, 15, 45, 76
17, 319919, Note_on_c, 15, 45, 0
17, 319920, Note_on_c, 15, 43, 76
17, 320129, Note_on_c, 15, 43, 0
17, 320160, Note_on_c, 15, 49, 84
17, 323939, Note_on_c, 15, 49, 0
17, 324000, Note_on_c, 15, 34, 52
17, 325859, Note_on_c, 15, 34, 0
17, 325920, Note_on_c, 15, 42, 44
17, 326099, Note_on_c, 15, 42, 0
17, 326400, Note_on_c, 15, 40, 44
17, 326579, Note_on_c, 15, 40, 0
17, 326880, Note_on_c, 15, 38, 44
17, 327059, Note_on_c, 15, 38, 0
17, 327360, Note_on_c, 15, 37, 44
17, 327539, Note_on_c, 15, 37, 0
17, 327840, Note_on_c, 15, 35, 44
17, 328019, Note_on_c, 15, 35, 0
17, 328320, Note_on_c, 15, 45, 44
17, 328499, Note_on_c, 15, 45, 0
17, 328800, Note_on_c, 15, 43, 44
17, 328979, Note_on_c, 15, 43, 0
17, 329280, Note_on_c, 15, 42, 44
17, 329459, Note_on_c, 15, 42, 0
17, 329760, Note_on_c, 15, 40, 44
17, 329939, Note_on_c, 15, 40, 0
17, 330240, Note_on_c, 15, 38, 44
17, 330419, Note_on_c, 15, 38, 0
17, 330720, Note_on_c, 15, 37, 44
17, 330899, Note_on_c, 15, 37, 0
17, 331200, Note_on_c, 15, 35, 44
17, 331379, Note_on_c, 15, 35, 0
17, 331440, Control_c, 15, 11, 96
17, 331680, Control_c, 15, 11, 96
17, 331680, Note_on_c, 15, 33, 60
17, 331840, Control_c, 15, 11, 99
17, 331859, Note_on_c, 15, 33, 0
17, 332000, Control_c, 15, 11, 101
17, 332160, Note_on_c, 15, 38, 60
17, 332160, Control_c, 15, 11, 104
17, 332320, Control_c, 15, 11, 106
17, 332339, Note_on_c, 15, 38, 0
17, 332480, Control_c, 15, 11, 109
17, 332640, Control_c, 15, 11, 112
17, 332640, Note_on_c, 15, 31, 60
17, 332800, Control_c, 15, 11, 114
17, 332819, Note_on_c, 15, 31, 0
17, 332960, Control_c, 15, 11, 117
17, 333120, Control_c, 15, 11, 119
17, 333120, Note_on_c, 15, 33, 60
17, 333280, Control_c, 15, 11, 122
17, 333299, Note_on_c, 15, 33, 0
17, 333360, Program_c, 15, 45
17, 333440, Control_c, 15, 11, 127
17, 333600, Note_on_c, 15, 42, 44
17, 333839, Note_on_c, 15, 42, 0
17, 334080, Note_on_c, 15, 40, 44
17, 334319, Note_on_c, 15, 40, 0
17, 334560, Note_on_c, 15, 38, 44
17, 334799, Note_on_c, 15, 38, 0
17, 335040, Note_on_c, 15, 37, 44
17, 335279, Note_on_c, 15, 37, 0
17, 335520, Note_on_c, 15, 35, 44
17, 335759, Note_on_c, 15, 35, 0
17, 336000, Note_on_c, 15, 45, 44
17, 336239, Note_on_c, 15, 45, 0
17, 336480, Note_on_c, 15, 43, 44
17, 336719, Note_on_c, 15, 43, 0
17, 336960, Note_on_c, 15, 42, 44
17, 337199, Note_on_c, 15, 42, 0
17, 337440, Note_on_c, 15, 40, 44
17, 337679, Note_on_c, 15, 40, 0
17, 337920, Note_on_c, 15, 38, 44
17, 338159, Note_on_c, 15, 38, 0
17, 338400, Note_on_c, 15, 37, 44
17, 338639, Note_on_c, 15, 37, 0
17, 338880, Note_on_c, 15, 35, 44
17, 339119, Note_on_c, 15, 35, 0
17, 339360, Note_on_c, 15, 33, 44
17, 339599, Note_on_c, 15, 33, 0
17, 339840, Note_on_c, 15, 43, 44
17, 340079, Note_on_c, 15, 43, 0
17, 340320, Note_on_c, 15, 42, 44
17, 340559, Note_on_c, 15, 42, 0
17, 340800, Note_on_c, 15, 40, 44
17, 341039, Note_on_c, 15, 40, 0
17, 341280, Note_on_c, 15, 38, 44
17, 341519, Note_on_c, 15, 38, 0
17, 341760, Note_on_c, 15, 36, 44
17, 341999, Note_on_c, 15, 36, 0
17, 342240, Note_on_c, 15, 35, 44
17, 342479, Note_on_c, 15, 35, 0
17, 342720, Note_on_c, 15, 33, 44
17, 342959, Note_on_c, 15, 33, 0
17, 343200, Note_on_c, 15, 31, 44
17, 343439, Note_on_c, 15, 31, 0
17, 343680, Note_on_c, 15, 36, 44
17, 343919, Note_on_c, 15, 36, 0
17, 344160, Note_on_c, 15, 35, 44
17, 344399, Note_on_c, 15, 35, 0
17, 344640, Note_on_c, 15, 33, 44
17, 344879, Note_on_c, 15, 33, 0
17, 344880, Program_c, 15, 48
17, 345120, Note_on_c, 15, 31, 44
17, 345360, Control_c, 15, 11, 127
17, 345599, Note_on_c, 15, 31, 0
17, 345600, Note_on_c, 15, 36, 44
17, 345660, Control_c, 15, 11, 126
17, 345960, Control_c, 15, 11, 125
17, 346079, Note_on_c, 15, 36, 0
17, 346080, Note_on_c, 15, 35, 44
17, 346260, Control_c, 15, 11, 123
17, 346559, Note_on_c, 15, 35, 0
17, 346560, Control_c, 15, 11, 122
17, 346560, Note_on_c, 15, 33, 44
17, 346860, Control_c, 15, 11, 121
17, 347009, Note_on_c, 15, 33, 0
17, 347040, Note_on_c, 15, 31, 44
17, 347160, Control_c, 15, 11, 120
17, 347460, Control_c, 15, 11, 118
17, 347519, Note_on_c, 15, 31, 0
17, 347520, Note_on_c, 15, 36, 44
17, 347760, Control_c, 15, 11, 117
17, 347999, Note_on_c, 15, 36, 0
17, 348000, Note_on_c, 15, 35, 44
17, 348060, Control_c, 15, 11, 116
17, 348360, Control_c, 15, 11, 115
17, 348479, Note_on_c, 15, 35, 0
17, 348480, Note_on_c, 15, 33, 44
17, 348660, Control_c, 15, 11, 113
17, 348929, Note_on_c, 15, 33, 0
17, 348960, Control_c, 15, 11, 127
17, 348960, Note_on_c, 15, 31, 44
17, 349919, Note_on_c, 15, 31, 0
17, 349920, Note_on_c, 15, 36, 44
17, 350879, Note_on_c, 15, 36, 0
17, 350880, Note_on_c, 15, 35, 44
17, 351839, Note_on_c, 15, 35, 0
17, 351840, Note_on_c, 15, 33, 44
17, 352769, Note_on_c, 15, 33, 0
17, 352800, Note_on_c, 15, 31, 44
17, 352889, Note_on_c, 15, 31, 0
17, 352920, Note_on_c, 15, 31, 44
17, 353009, Note_on_c, 15, 31, 0
17, 353040, Note_on_c, 15, 31, 44
17, 353129, Note_on_c, 15, 31, 0
17, 353160, Note_on_c, 15, 31, 44
17, 353249, Note_on_c, 15, 31, 0
17, 353280, Note_on_c, 15, 31, 44
17, 353369, Note_on_c, 15, 31, 0
17, 353400, Note_on_c, 15, 31, 44
17, 353489, Note_on_c, 15, 31, 0
17, 353520, Note_on_c, 15, 31, 44
17, 353609, Note_on_c, 15, 31, 0
17, 353640, Note_on_c, 15, 31, 44
17, 353729, Note_on_c, 15, 31, 0
17, 353760, Note_on_c, 15, 31, 44
17, 353849, Note_on_c, 15, 31, 0
17, 353880, Note_on_c, 15, 31, 44
17, 353969, Note_on_c, 15, 31, 0
17, 354000, Note_on_c, 15, 31, 44
17, 354089, Note_on_c, 15, 31, 0
17, 354120, Note_on_c, 15, 31, 44
17, 354209, Note_on_c, 15, 31, 0
17, 354240, Note_on_c, 15, 31, 44
17, 354329, Note_on_c, 15, 31, 0
17, 354360, Note_on_c, 15, 31, 44
17, 354449, Note_on_c, 15, 31, 0
17, 354480, Note_on_c, 15, 31, 44
17, 354569, Note_on_c, 15, 31, 0
17, 354600, Note_on_c, 15, 31, 44
17, 354689, Note_on_c, 15, 31, 0
17, 354720, Note_on_c, 15, 31, 44
17, 354809, Note_on_c, 15, 31, 0
17, 354840, Note_on_c, 15, 31, 44
17, 354929, Note_on_c, 15, 31, 0
17, 354960, Note_on_c, 15, 31, 44
17, 355049, Note_on_c, 15, 31, 0
17, 355080, Note_on_c, 15, 31, 44
17, 355169, Note_on_c, 15, 31, 0
17, 355200, Note_on_c, 15, 31, 44
17, 355289, Note_on_c, 15, 31, 0
17, 355320, Note_on_c, 15, 31, 44
17, 355409, Note_on_c, 15, 31, 0
17, 355440, Note_on_c, 15, 31, 44
17, 355529, Note_on_c, 15, 31, 0
17, 355560, Note_on_c, 15, 31, 44
17, 355649, Note_on_c, 15, 31, 0
17, 355680, Note_on_c, 15, 31, 44
17, 355769, Note_on_c, 15, 31, 0
17, 355800, Note_on_c, 15, 31, 44
17, 355889, Note_on_c, 15, 31, 0
17, 355920, Note_on_c, 15, 31, 44
17, 356009, Note_on_c, 15, 31, 0
17, 356040, Note_on_c, 15, 31, 44
17, 356129, Note_on_c, 15, 31, 0
17, 356160, Note_on_c, 15, 31, 44
17, 356249, Note_on_c, 15, 31, 0
17, 356280, Note_on_c, 15, 31, 44
17, 356369, Note_on_c, 15, 31, 0
17, 356400, Note_on_c, 15, 31, 44
17, 356489, Note_on_c, 15, 31, 0
17, 356520, Note_on_c, 15, 31, 44
17, 356609, Note_on_c, 15, 31, 0
17, 356640, Note_on_c, 15, 31, 44
17, 356729, Note_on_c, 15, 31, 0
17, 356760, Note_on_c, 15, 31, 44
17, 356849, Note_on_c, 15, 31, 0
17, 356880, Note_on_c, 15, 31, 44
17, 356969, Note_on_c, 15, 31, 0
17, 357000, Note_on_c, 15, 31, 44
17, 357089, Note_on_c, 15, 31, 0
17, 357120, Note_on_c, 15, 31, 44
17, 357209, Note_on_c, 15, 31, 0
17, 357240, Note_on_c, 15, 31, 44
17, 357329, Note_on_c, 15, 31, 0
17, 357360, Note_on_c, 15, 31, 44
17, 357449, Note_on_c, 15, 31, 0
17, 357480, Note_on_c, 15, 31, 44
17, 357569, Note_on_c, 15, 31, 0
17, 357600, Note_on_c, 15, 31, 44
17, 357689, Note_on_c, 15, 31, 0
17, 357720, Note_on_c, 15, 31, 44
17, 357809, Note_on_c, 15, 31, 0
17, 357840, Note_on_c, 15, 31, 44
17, 357929, Note_on_c, 15, 31, 0
17, 357960, Note_on_c, 15, 31, 44
17, 358049, Note_on_c, 15, 31, 0
17, 358080, Note_on_c, 15, 31, 44
17, 358169, Note_on_c, 15, 31, 0
17, 358200, Note_on_c, 15, 31, 44
17, 358289, Note_on_c, 15, 31, 0
17, 358320, Note_on_c, 15, 31, 44
17, 358409, Note_on_c, 15, 31, 0
17, 358440, Note_on_c, 15, 31, 44
17, 358529, Note_on_c, 15, 31, 0
17, 358560, Note_on_c, 15, 32, 84
17, 360449, Note_on_c, 15, 32, 0
17, 360480, Note_on_c, 15, 33, 84
17, 360569, Note_on_c, 15, 33, 0
17, 360600, Note_on_c, 15, 33, 84
17, 360689, Note_on_c, 15, 33, 0
17, 360720, Note_on_c, 15, 33, 84
17, 360809, Note_on_c, 15, 33, 0
17, 360840, Note_on_c, 15, 33, 84
17, 360929, Note_on_c, 15, 33, 0
17, 360960, Note_on_c, 15, 33, 84
17, 361049, Note_on_c, 15, 33, 0
17, 361080, Note_on_c, 15, 33, 84
17, 361169, Note_on_c, 15, 33, 0
17, 361200, Note_on_c, 15, 33, 84
17, 361289, Note_on_c, 15, 33, 0
17, 361320, Note_on_c, 15, 33, 84
17, 361409, Note_on_c, 15, 33, 0
17, 361440, Note_on_c, 15, 33, 84
17, 361529, Note_on_c, 15, 33, 0
17, 361560, Note_on_c, 15, 33, 84
17, 361649, Note_on_c, 15, 33, 0
17, 361680, Note_on_c, 15, 33, 84
17, 361769, Note_on_c, 15, 33, 0
17, 361800, Note_on_c, 15, 33, 84
17, 361889, Note_on_c, 15, 33, 0
17, 361920, Note_on_c, 15, 33, 84
17, 362009, Note_on_c, 15, 33, 0
17, 362040, Note_on_c, 15, 33, 84
17, 362129, Note_on_c, 15, 33, 0
17, 362160, Note_on_c, 15, 33, 84
17, 362249, Note_on_c, 15, 33, 0
17, 362280, Note_on_c, 15, 33, 84
17, 362369, Note_on_c, 15, 33, 0
17, 362400, Note_on_c, 15, 45, 92
17, 363569, Note_on_c, 15, 45, 0
17, 363600, Note_on_c, 15, 43, 84
17, 363689, Note_on_c, 15, 43, 0
17, 363720, Note_on_c, 15, 42, 84
17, 363809, Note_on_c, 15, 42, 0
17, 363840, Note_on_c, 15, 40, 84
17, 363929, Note_on_c, 15, 40, 0
17, 363960, Note_on_c, 15, 38, 84
17, 364049, Note_on_c, 15, 38, 0
17, 364080, Note_on_c, 15, 37, 84
17, 364169, Note_on_c, 15, 37, 0
17, 364200, Note_on_c, 15, 35, 84
17, 364289, Note_on_c, 15, 35, 0
17, 364320, Note_on_c, 15, 33, 92
17, 364409, Note_on_c, 15, 33, 0
17, 364440, Note_on_c, 15, 33, 84
17, 364529, Note_on_c, 15, 33, 0
17, 364560, Note_on_c, 15, 33, 84
17, 364649, Note_on_c, 15, 33, 0
17, 364680, Note_on_c, 15, 33, 84
17, 364769, Note_on_c, 15, 33, 0
17, 364800, Note_on_c, 15, 33, 84
17, 364889, Note_on_c, 15, 33, 0
17, 364920, Note_on_c, 15, 33, 84
17, 365009, Note_on_c, 15, 33, 0
17, 365040, Note_on_c, 15, 33, 84
17, 365129, Note_on_c, 15, 33, 0
17, 365160, Note_on_c, 15, 33, 84
17, 365249, Note_on_c, 15, 33, 0
17, 365280, Note_on_c, 15, 33, 84
17, 365369, Note_on_c, 15, 33, 0
17, 365400, Note_on_c, 15, 33, 84
17, 365489, Note_on_c, 15, 33, 0
17, 365520, Note_on_c, 15, 33, 84
17, 365609, Note_on_c, 15, 33, 0
17, 365640, Note_on_c, 15, 33, 84
17, 365729, Note_on_c, 15, 33, 0
17, 365760, Note_on_c, 15, 33, 84
17, 365849, Note_on_c, 15, 33, 0
17, 365880, Note_on_c, 15, 33, 84
17, 365969, Note_on_c, 15, 33, 0
17, 366000, Note_on_c, 15, 33, 84
17, 366089, Note_on_c, 15, 33, 0
17, 366120, Note_on_c, 15, 33, 84
17, 366209, Note_on_c, 15, 33, 0
17, 366240, Note_on_c, 15, 45, 92
17, 367289, Note_on_c, 15, 45, 0
17, 367320, Note_on_c, 15, 43, 84
17, 367409, Note_on_c, 15, 43, 0
17, 367440, Note_on_c, 15, 42, 84
17, 367529, Note_on_c, 15, 42, 0
17, 367560, Note_on_c, 15, 40, 84
17, 367649, Note_on_c, 15, 40, 0
17, 367680, Note_on_c, 15, 38, 84
17, 367769, Note_on_c, 15, 38, 0
17, 367800, Note_on_c, 15, 37, 84
17, 367889, Note_on_c, 15, 37, 0
17, 367920, Note_on_c, 15, 35, 84
17, 368009, Note_on_c, 15, 35, 0
17, 368040, Note_on_c, 15, 33, 84
17, 368129, Note_on_c, 15, 33, 0
17, 368160, Note_on_c, 15, 38, 84
17, 368399, Note_on_c, 15, 38, 0
17, 368640, Control_c, 15, 11, 112
17, 368920, Control_c, 15, 11, 113
17, 369000, Note_on_c, 15, 42, 84
17, 369119, Note_on_c, 15, 42, 0
17, 369120, Note_on_c, 15, 43, 84
17, 369200, Control_c, 15, 11, 115
17, 369359, Note_on_c, 15, 43, 0
17, 369480, Control_c, 15, 11, 116
17, 369760, Control_c, 15, 11, 117
17, 369960, Note_on_c, 15, 44, 84
17, 370040, Control_c, 15, 11, 118
17, 370079, Note_on_c, 15, 44, 0
17, 370080, Note_on_c, 15, 45, 84
17, 370319, Note_on_c, 15, 45, 0
17, 370320, Control_c, 15, 11, 120
17, 370600, Control_c, 15, 11, 121
17, 370880, Control_c, 15, 11, 122
17, 370920, Note_on_c, 15, 46, 84
17, 371039, Note_on_c, 15, 46, 0
17, 371040, Note_on_c, 15, 47, 84
17, 371160, Control_c, 15, 11, 123
17, 371279, Note_on_c, 15, 47, 0
17, 371440, Control_c, 15, 11, 125
17, 371720, Control_c, 15, 11, 126
17, 371880, Note_on_c, 15, 47, 84
17, 371999, Note_on_c, 15, 47, 0
17, 372000, Control_c, 15, 11, 127
17, 372000, Note_on_c, 15, 48, 84
17, 372089, Note_on_c, 15, 48, 0
17, 372120, Note_on_c, 15, 47, 84
17, 372209, Note_on_c, 15, 47, 0
17, 372240, Note_on_c, 15, 45, 84
17, 372329, Note_on_c, 15, 45, 0
17, 372360, Note_on_c, 15, 47, 84
17, 372449, Note_on_c, 15, 47, 0
17, 372480, Note_on_c, 15, 48, 84
17, 372569, Note_on_c, 15, 48, 0
17, 372600, Note_on_c, 15, 47, 84
17, 372689, Note_on_c, 15, 47, 0
17, 372720, Note_on_c, 15, 48, 84
17, 372809, Note_on_c, 15, 48, 0
17, 372840, Note_on_c, 15, 47, 84
17, 372929, Note_on_c, 15, 47, 0
17, 372960, Note_on_c, 15, 48, 84
17, 373049, Note_on_c, 15, 48, 0
17, 373080, Note_on_c, 15, 47, 84
17, 373169, Note_on_c, 15, 47, 0
17, 373200, Note_on_c, 15, 45, 84
17, 373289, Note_on_c, 15, 45, 0
17, 373320, Note_on_c, 15, 47, 84
17, 373409, Note_on_c, 15, 47, 0
17, 373440, Note_on_c, 15, 48, 84
17, 373529, Note_on_c, 15, 48, 0
17, 373560, Note_on_c, 15, 47, 84
17, 373649, Note_on_c, 15, 47, 0
17, 373680, Note_on_c, 15, 48, 84
17, 373769, Note_on_c, 15, 48, 0
17, 373800, Note_on_c, 15, 47, 84
17, 373889, Note_on_c, 15, 47, 0
17, 373920, Note_on_c, 15, 48, 84
17, 374009, Note_on_c, 15, 48, 0
17, 374040, Note_on_c, 15, 47, 84
17, 374129, Note_on_c, 15, 47, 0
17, 374160, Note_on_c, 15, 48, 84
17, 374249, Note_on_c, 15, 48, 0
17, 374280, Note_on_c, 15, 47, 84
17, 374369, Note_on_c, 15, 47, 0
17, 374400, Note_on_c, 15, 48, 84
17, 374489, Note_on_c, 15, 48, 0
17, 374520, Note_on_c, 15, 47, 84
17, 374609, Note_on_c, 15, 47, 0
17, 374640, Note_on_c, 15, 48, 84
17, 374729, Note_on_c, 15, 48, 0
17, 374760, Note_on_c, 15, 47, 84
17, 374849, Note_on_c, 15, 47, 0
17, 374880, Note_on_c, 15, 48, 84
17, 374969, Note_on_c, 15, 48, 0
17, 375000, Note_on_c, 15, 47, 84
17, 375089, Note_on_c, 15, 47, 0
17, 375120, Note_on_c, 15, 45, 84
17, 375209, Note_on_c, 15, 45, 0
17, 375240, Note_on_c, 15, 43, 84
17, 375329, Note_on_c, 15, 43, 0
17, 375360, Note_on_c, 15, 42, 84
17, 375449, Note_on_c, 15, 42, 0
17, 375480, Note_on_c, 15, 40, 84
17, 375569, Note_on_c, 15, 40, 0
17, 375600, Note_on_c, 15, 38, 84
17, 375689, Note_on_c, 15, 38, 0
17, 375720, Note_on_c, 15, 36, 84
17, 375809, Note_on_c, 15, 36, 0
17, 375840, Note_on_c, 15, 35, 92
17, 375929, Note_on_c, 15, 35, 0
17, 375960, Note_on_c, 15, 35, 84
17, 376049, Note_on_c, 15, 35, 0
17, 376080, Note_on_c, 15, 35, 84
17, 376169, Note_on_c, 15, 35, 0
17, 376200, Note_on_c, 15, 35, 84
17, 376289, Note_on_c, 15, 35, 0
17, 376320, Note_on_c, 15, 35, 84
17, 376409, Note_on_c, 15, 35, 0
17, 376440, Note_on_c, 15, 35, 84
17, 376529, Note_on_c, 15, 35, 0
17, 376560, Note_on_c, 15, 35, 84
17, 376649, Note_on_c, 15, 35, 0
17, 376680, Note_on_c, 15, 35, 84
17, 376769, Note_on_c, 15, 35, 0
17, 376800, Note_on_c, 15, 34, 92
17, 376889, Note_on_c, 15, 34, 0
17, 376920, Note_on_c, 15, 34, 84
17, 377009, Note_on_c, 15, 34, 0
17, 377040, Note_on_c, 15, 34, 84
17, 377129, Note_on_c, 15, 34, 0
17, 377160, Note_on_c, 15, 34, 84
17, 377249, Note_on_c, 15, 34, 0
17, 377280, Note_on_c, 15, 34, 84
17, 377369, Note_on_c, 15, 34, 0
17, 377400, Note_on_c, 15, 34, 84
17, 377489, Note_on_c, 15, 34, 0
17, 377520, Note_on_c, 15, 34, 84
17, 377609, Note_on_c, 15, 34, 0
17, 377640, Note_on_c, 15, 34, 84
17, 377729, Note_on_c, 15, 34, 0
17, 377760, Note_on_c, 15, 33, 92
17, 377849, Note_on_c, 15, 33, 0
17, 377880, Note_on_c, 15, 33, 84
17, 377969, Note_on_c, 15, 33, 0
17, 378000, Note_on_c, 15, 33, 84
17, 378089, Note_on_c, 15, 33, 0
17, 378120, Note_on_c, 15, 33, 84
17, 378209, Note_on_c, 15, 33, 0
17, 378240, Note_on_c, 15, 33, 84
17, 378329, Note_on_c, 15, 33, 0
17, 378360, Note_on_c, 15, 33, 84
17, 378449, Note_on_c, 15, 33, 0
17, 378480, Note_on_c, 15, 33, 84
17, 378569, Note_on_c, 15, 33, 0
17, 378600, Note_on_c, 15, 33, 84
17, 378689, Note_on_c, 15, 33, 0
17, 378720, Note_on_c, 15, 33, 92
17, 378809, Note_on_c, 15, 33, 0
17, 378840, Note_on_c, 15, 33, 84
17, 378929, Note_on_c, 15, 33, 0
17, 378960, Note_on_c, 15, 33, 84
17, 379049, Note_on_c, 15, 33, 0
17, 379080, Note_on_c, 15, 33, 84
17, 379169, Note_on_c, 15, 33, 0
17, 379200, Note_on_c, 15, 33, 84
17, 379289, Note_on_c, 15, 33, 0
17, 379320, Note_on_c, 15, 33, 84
17, 379409, Note_on_c, 15, 33, 0
17, 379440, Note_on_c, 15, 33, 84
17, 379529, Note_on_c, 15, 33, 0
17, 379560, Note_on_c, 15, 33, 84
17, 379649, Note_on_c, 15, 33, 0
17, 379680, Note_on_c, 15, 48, 84
17, 379769, Note_on_c, 15, 48, 0
17, 379800, Note_on_c, 15, 47, 84
17, 379889, Note_on_c, 15, 47, 0
17, 379920, Note_on_c, 15, 45, 84
17, 380009, Note_on_c, 15, 45, 0
17, 380040, Note_on_c, 15, 47, 84
17, 380129, Note_on_c, 15, 47, 0
17, 380160, Note_on_c, 15, 48, 84
17, 380249, Note_on_c, 15, 48, 0
17, 380280, Note_on_c, 15, 47, 84
17, 380369, Note_on_c, 15, 47, 0
17, 380400, Note_on_c, 15, 48, 84
17, 380489, Note_on_c, 15, 48, 0
17, 380520, Note_on_c, 15, 47, 84
17, 380609, Note_on_c, 15, 47, 0
17, 380640, Note_on_c, 15, 48, 84
17, 380729, Note_on_c, 15, 48, 0
17, 380760, Note_on_c, 15, 47, 84
17, 380849, Note_on_c, 15, 47, 0
17, 380880, Note_on_c, 15, 45, 84
17, 380969, Note_on_c, 15, 45, 0
17, 381000, Note_on_c, 15, 47, 84
17, 381089, Note_on_c, 15, 47, 0
17, 381120, Note_on_c, 15, 48, 84
17, 381209, Note_on_c, 15, 48, 0
17, 381240, Note_on_c, 15, 47, 84
17, 381329, Note_on_c, 15, 47, 0
17, 381360, Note_on_c, 15, 48, 84
17, 381449, Note_on_c, 15, 48, 0
17, 381480, Note_on_c, 15, 47, 84
17, 381569, Note_on_c, 15, 47, 0
17, 381600, Note_on_c, 15, 48, 84
17, 381689, Note_on_c, 15, 48, 0
17, 381720, Note_on_c, 15, 47, 84
17, 381809, Note_on_c, 15, 47, 0
17, 381840, Note_on_c, 15, 48, 84
17, 381929, Note_on_c, 15, 48, 0
17, 381960, Note_on_c, 15, 47, 84
17, 382049, Note_on_c, 15, 47, 0
17, 382080, Note_on_c, 15, 48, 84
17, 382169, Note_on_c, 15, 48, 0
17, 382200, Note_on_c, 15, 47, 84
17, 382289, Note_on_c, 15, 47, 0
17, 382320, Note_on_c, 15, 48, 84
17, 382409, Note_on_c, 15, 48, 0
17, 382440, Note_on_c, 15, 47, 84
17, 382529, Note_on_c, 15, 47, 0
17, 382560, Note_on_c, 15, 48, 84
17, 382649, Note_on_c, 15, 48, 0
17, 382680, Note_on_c, 15, 47, 84
17, 382769, Note_on_c, 15, 47, 0
17, 382800, Note_on_c, 15, 45, 84
17, 382889, Note_on_c, 15, 45, 0
17, 382920, Note_on_c, 15, 43, 84
17, 383009, Note_on_c, 15, 43, 0
17, 383040, Note_on_c, 15, 42, 84
17, 383129, Note_on_c, 15, 42, 0
17, 383160, Note_on_c, 15, 40, 84
17, 383249, Note_on_c, 15, 40, 0
17, 383280, Note_on_c, 15, 38, 84
17, 383369, Note_on_c, 15, 38, 0
17, 383400, Note_on_c, 15, 36, 84
17, 383489, Note_on_c, 15, 36, 0
17, 383520, Note_on_c, 15, 35, 92
17, 383609, Note_on_c, 15, 35, 0
17, 383640, Note_on_c, 15, 47, 84
17, 383729, Note_on_c, 15, 47, 0
17, 383760, Note_on_c, 15, 47, 84
17, 383849, Note_on_c, 15, 47, 0
17, 383880, Note_on_c, 15, 47, 84
17, 383969, Note_on_c, 15, 47, 0
17, 384000, Note_on_c, 15, 47, 84
17, 384089, Note_on_c, 15, 47, 0
17, 384120, Note_on_c, 15, 47, 84
17, 384209, Note_on_c, 15, 47, 0
17, 384240, Note_on_c, 15, 47, 84
17, 384329, Note_on_c, 15, 47, 0
17, 384360, Note_on_c, 15, 47, 84
17, 384449, Note_on_c, 15, 47, 0
17, 384480, Note_on_c, 15, 45, 84
17, 384569, Note_on_c, 15, 45, 0
17, 384600, Note_on_c, 15, 45, 84
17, 384689, Note_on_c, 15, 45, 0
17, 384720, Note_on_c, 15, 45, 84
17, 384809, Note_on_c, 15, 45, 0
17, 384840, Note_on_c, 15, 45, 84
17, 384929, Note_on_c, 15, 45, 0
17, 384960, Note_on_c, 15, 45, 84
17, 385049, Note_on_c, 15, 45, 0
17, 385080, Note_on_c, 15, 45, 84
17, 385169, Note_on_c, 15, 45, 0
17, 385200, Note_on_c, 15, 45, 84
17, 385289, Note_on_c, 15, 45, 0
17, 385320, Note_on_c, 15, 45, 84
17, 385409, Note_on_c, 15, 45, 0
17, 385440, Note_on_c, 15, 43, 84
17, 385529, Note_on_c, 15, 43, 0
17, 385560, Note_on_c, 15, 43, 84
17, 385649, Note_on_c, 15, 43, 0
17, 385680, Note_on_c, 15, 43, 84
17, 385769, Note_on_c, 15, 43, 0
17, 385800, Note_on_c, 15, 43, 84
17, 385889, Note_on_c, 15, 43, 0
17, 385920, Note_on_c, 15, 40, 84
17, 386009, Note_on_c, 15, 40, 0
17, 386040, Note_on_c, 15, 40, 84
17, 386129, Note_on_c, 15, 40, 0
17, 386160, Note_on_c, 15, 40, 84
17, 386249, Note_on_c, 15, 40, 0
17, 386280, Note_on_c, 15, 40, 84
17, 386369, Note_on_c, 15, 40, 0
17, 386400, Note_on_c, 15, 45, 84
17, 386489, Note_on_c, 15, 45, 0
17, 386520, Note_on_c, 15, 45, 84
17, 386609, Note_on_c, 15, 45, 0
17, 386640, Note_on_c, 15, 45, 84
17, 386729, Note_on_c, 15, 45, 0
17, 386760, Note_on_c, 15, 45, 84
17, 386849, Note_on_c, 15, 45, 0
17, 386880, Note_on_c, 15, 33, 84
17, 386969, Note_on_c, 15, 33, 0
17, 387000, Note_on_c, 15, 33, 84
17, 387089, Note_on_c, 15, 33, 0
17, 387120, Note_on_c, 15, 33, 84
17, 387209, Note_on_c, 15, 33, 0
17, 387240, Note_on_c, 15, 33, 84
17, 387329, Note_on_c, 15, 33, 0
17, 387360, Note_on_c, 15, 38, 84
17, 387599, Note_on_c, 15, 38, 0
17, 388320, Note_on_c, 15, 38, 52
17, 388559, Note_on_c, 15, 38, 0
17, 389280, Note_on_c, 15, 33, 52
17, 389519, Note_on_c, 15, 33, 0
17, 390240, Note_on_c, 15, 33, 52
17, 390479, Note_on_c, 15, 33, 0
17, 391200, Note_on_c, 15, 38, 52
17, 391439, Note_on_c, 15, 38, 0
17, 392160, Note_on_c, 15, 38, 52
17, 392399, Note_on_c, 15, 38, 0
17, 393120, Note_on_c, 15, 33, 52
17, 393359, Note_on_c, 15, 33, 0
17, 394080, Note_on_c, 15, 33, 52
17, 394319, Note_on_c, 15, 33, 0
17, 395040, Note_on_c, 15, 38, 52
17, 395279, Note_on_c, 15, 38, 0
17, 396000, Note_on_c, 15, 33, 58
17, 396239, Note_on_c, 15, 33, 0
17, 396960, Note_on_c, 15, 38, 64
17, 397199, Note_on_c, 15, 38, 0
17, 397920, Note_on_c, 15, 33, 70
17, 398159, Note_on_c, 15, 33, 0
17, 398880, Note_on_c, 15, 38, 76
17, 399119, Note_on_c, 15, 38, 0
17, 399360, Note_on_c, 15, 30, 84
17, 400739, Note_on_c, 15, 30, 0
17, 400785, Program_c, 15, 45
17, 400800, Note_on_c, 15, 42, 44
17, 401039, Note_on_c, 15, 42, 0
17, 401280, Note_on_c, 15, 40, 44
17, 401519, Note_on_c, 15, 40, 0
17, 401760, Note_on_c, 15, 38, 44
17, 401999, Note_on_c, 15, 38, 0
17, 402240, Note_on_c, 15, 37, 44
17, 402479, Note_on_c, 15, 37, 0
17, 402720, Note_on_c, 15, 35, 44
17, 402959, Note_on_c, 15, 35, 0
17, 404640, Note_on_c, 15, 43, 44
17, 404879, Note_on_c, 15, 43, 0
17, 405120, Note_on_c, 15, 42, 44
17, 405359, Note_on_c, 15, 42, 0
17, 405600, Note_on_c, 15, 40, 44
17, 405839, Note_on_c, 15, 40, 0
17, 406080, Note_on_c, 15, 38, 44
17, 406319, Note_on_c, 15, 38, 0
17, 406560, Note_on_c, 15, 37, 44
17, 406799, Note_on_c, 15, 37, 0
17, 408240, Program_c, 15, 48
17, 408360, Note_on_c, 15, 37, 84
17, 408479, Note_on_c, 15, 37, 0
17, 408480, Note_on_c, 15, 38, 84
17, 408659, Note_on_c, 15, 38, 0
17, 410280, Note_on_c, 15, 37, 84
17, 410399, Note_on_c, 15, 37, 0
17, 410400, Note_on_c, 15, 38, 84
17, 410579, Note_on_c, 15, 38, 0
17, 412200, Note_on_c, 15, 37, 84
17, 412319, Note_on_c, 15, 37, 0
17, 412320, Note_on_c, 15, 38, 84
17, 412499, Note_on_c, 15, 38, 0
17, 413280, Note_on_c, 15, 38, 84
17, 413519, Note_on_c, 15, 38, 0
17, 414240, Note_on_c, 15, 38, 84
17, 414479, Note_on_c, 15, 38, 0
17, 414960, Note_on_c, 15, 33, 84
17, 415139, Note_on_c, 15, 33, 0
17, 415200, Note_on_c, 15, 38, 84
17, 415379, Note_on_c, 15, 38, 0
17, 415440, Note_on_c, 15, 33, 84
17, 415619, Note_on_c, 15, 33, 0
17, 415680, Note_on_c, 15, 38, 84
17, 415859, Note_on_c, 15, 38, 0
17, 415920, Note_on_c, 15, 33, 84
17, 416099, Note_on_c, 15, 33, 0
17, 416160, Note_on_c, 15, 38, 84
17, 416339, Note_on_c, 15, 38, 0
17, 416400, Note_on_c, 15, 45, 84
17, 416579, Note_on_c, 15, 45, 0
17, 416640, Note_on_c, 15, 50, 84
17, 416819, Note_on_c, 15, 50, 0
17, 416880, Note_on_c, 15, 45, 84
17, 417059, Note_on_c, 15, 45, 0
17, 417120, Note_on_c, 15, 50, 84
17, 417299, Note_on_c, 15, 50, 0
17, 417360, Note_on_c, 15, 45, 84
17, 417539, Note_on_c, 15, 45, 0
17, 417600, Note_on_c, 15, 50, 84
17, 417779, Note_on_c, 15, 50, 0
17, 417840, Note_on_c, 15, 45, 84
17, 418019, Note_on_c, 15, 45, 0
17, 418080, Note_on_c, 15, 50, 84
17, 418319, Note_on_c, 15, 50, 0
17, 419040, Note_on_c, 15, 50, 84
17, 419219, Note_on_c, 15, 50, 0
17, 419280, Note_on_c, 15, 49, 84
17, 419399, Note_on_c, 15, 49, 0
17, 419400, Note_on_c, 15, 47, 84
17, 419519, Note_on_c, 15, 47, 0
17, 419520, Note_on_c, 15, 45, 84
17, 419639, Note_on_c, 15, 45, 0
17, 419640, Note_on_c, 15, 43, 84
17, 419759, Note_on_c, 15, 43, 0
17, 419760, Note_on_c, 15, 42, 84
17, 419879, Note_on_c, 15, 42, 0
17, 419880, Note_on_c, 15, 40, 84
17, 419969, Note_on_c, 15, 40, 0
17, 420000, Note_on_c, 15, 38, 84
17, 420119, Note_on_c, 15, 38, 0
17, 420120, Note_on_c, 15, 37, 84
17, 420239, Note_on_c, 15, 37, 0
17, 420240, Note_on_c, 15, 38, 84
17, 420359, Note_on_c, 15, 38, 0
17, 420360, Note_on_c, 15, 37, 84
17, 420479, Note_on_c, 15, 37, 0
17, 420480, Note_on_c, 15, 38, 84
17, 420599, Note_on_c, 15, 38, 0
17, 420600, Note_on_c, 15, 37, 84
17, 420719, Note_on_c, 15, 37, 0
17, 420720, Note_on_c, 15, 38, 84
17, 420839, Note_on_c, 15, 38, 0
17, 420840, Note_on_c, 15, 37, 84
17, 420929, Note_on_c, 15, 37, 0
17, 420960, Note_on_c, 15, 38, 84
17, 421079, Note_on_c, 15, 38, 0
17, 421080, Note_on_c, 15, 37, 84
17, 421199, Note_on_c, 15, 37, 0
17, 421200, Note_on_c, 15, 38, 84
17, 421319, Note_on_c, 15, 38, 0
17, 421320, Note_on_c, 15, 37, 84
17, 421439, Note_on_c, 15, 37, 0
17, 421440, Note_on_c, 15, 38, 84
17, 421559, Note_on_c, 15, 38, 0
17, 421560, Note_on_c, 15, 37, 84
17, 421679, Note_on_c, 15, 37, 0
17, 421680, Note_on_c, 15, 38, 84
17, 421799, Note_on_c, 15, 38, 0
17, 421800, Note_on_c, 15, 37, 84
17, 421889, Note_on_c, 15, 37, 0
17, 421920, Note_on_c, 15, 38, 84
17, 422159, Note_on_c, 15, 38, 0
17, 422880, Note_on_c, 15, 38, 84
17, 423119, Note_on_c, 15, 38, 0
17, 423360, Note_on_c, 15, 38, 84
17, 423599, Note_on_c, 15, 38, 0
17, 423840, Note_on_c, 15, 38, 84
17, 424079, Note_on_c, 15, 38, 0
17, 424800, Note_on_c, 15, 38, 84
17, 425039, Note_on_c, 15, 38, 0
17, 425760, Note_on_c, 15, 38, 84
17, 425999, Note_on_c, 15, 38, 0
17, 425999, End_track
18, 0, Start_track
18, 0, Title_t, "Ludwig van Beethoven - Symphony No. 2, Op.36 - No. 4 Allegro molto"
18, 0, MIDI_port, 0
18, 0, End_track
0, 0, End_of_file
