0, 0, Header, 1, 18, 240
1, 0, Start_track
1, 0, Sequencer_specific, 10, 0, 0, 91, 35, 1, 0, 5, 6, 42, 0
1, 0, Title_t, "Ludwig van Beethoven - Symphony No. 5 in C minor, Op.67"
1, 0, Instrument_name_t, "Conductor Track"
1, 0, SMPTE_offset, 96, 0, 3, 0, 0
1, 0, MIDI_port, 0
1, 0, Key_signature, -4, "major"
1, 0, Tempo, 1304347
1, 0, Time_signature, 1, 3, 12, 8
1, 120, Time_signature, 3, 3, 12, 8
1, 44040, Tempo, 2608695
1, 44280, Tempo, 1304347
1, 73560, Tempo, 1034482
1, 78360, Tempo, 1304347
1, 88080, Tempo, 1304347
1, 88140, Tempo, 1333333
1, 88200, Tempo, 1363636
1, 88260, Tempo, 1395348
1, 88320, Tempo, 1428571
1, 88380, Tempo, 1463414
1, 88440, Tempo, 1500000
1, 88500, Tempo, 1538461
1, 88560, Tempo, 1578947
1, 88620, Tempo, 1621621
1, 88680, Tempo, 1304347
1, 88800, Tempo, 2000000
1, 89520, Tempo, 2000000
1, 89520, End_track
2, 0, Start_track
2, 0, Title_t, "2nd Movement - Andante con moto"
2, 0, MIDI_port, 0
2, 0, End_track
3, 0, Start_track
3, 0, Title_t, "Sequenced by D. L. Viens 25 Jun 2000"
3, 0, MIDI_port, 0
3, 0, End_track
4, 0, Start_track
4, 0, Title_t, "dlviens@empire.net"
4, 0, MIDI_port, 0
4, 0, End_track
5, 0, Start_track
5, 0, MIDI_port, 0
5, 0, End_track
6, 0, Start_track
6, 0, Title_t, "Flute"
6, 0, MIDI_port, 0
6, 0, Program_c, 0, 73
6, 0, Control_c, 0, 7, 72
6, 0, Control_c, 0, 10, 60
6, 0, Control_c, 0, 11, 127
6, 3600, Note_on_c, 0, 80, 52
6, 3689, Note_on_c, 0, 80, 0
6, 3690, Note_on_c, 0, 84, 52
6, 3715, Note_on_c, 0, 84, 0
6, 3720, Control_c, 0, 11, 127
6, 3720, Note_on_c, 0, 87, 76
6, 3735, Control_c, 0, 11, 125
6, 3750, Control_c, 0, 11, 123
6, 3765, Control_c, 0, 11, 121
6, 3780, Control_c, 0, 11, 119
6, 3795, Control_c, 0, 11, 117
6, 3810, Control_c, 0, 11, 115
6, 3825, Control_c, 0, 11, 113
6, 3840, Control_c, 0, 11, 111
6, 3855, Control_c, 0, 11, 109
6, 3870, Control_c, 0, 11, 107
6, 3885, Control_c, 0, 11, 105
6, 3900, Control_c, 0, 11, 104
6, 3915, Control_c, 0, 11, 102
6, 3930, Control_c, 0, 11, 100
6, 3945, Control_c, 0, 11, 98
6, 3960, Control_c, 0, 11, 96
6, 3975, Control_c, 0, 11, 94
6, 3990, Control_c, 0, 11, 92
6, 4005, Control_c, 0, 11, 90
6, 4020, Control_c, 0, 11, 88
6, 4035, Control_c, 0, 11, 86
6, 4050, Control_c, 0, 11, 84
6, 4065, Control_c, 0, 11, 82
6, 4071, Note_on_c, 0, 87, 0
6, 4080, Control_c, 0, 11, 80
6, 4080, Note_on_c, 0, 85, 76
6, 4199, Note_on_c, 0, 85, 0
6, 4200, Note_on_c, 0, 84, 76
6, 4431, Note_on_c, 0, 84, 0
6, 4440, Note_on_c, 0, 82, 76
6, 4559, Note_on_c, 0, 82, 0
6, 4560, Note_on_c, 0, 80, 76
6, 4791, Note_on_c, 0, 80, 0
6, 4800, Note_on_c, 0, 79, 76
6, 5031, Note_on_c, 0, 79, 0
6, 5040, Note_on_c, 0, 79, 76
6, 5079, Note_on_c, 0, 79, 0
6, 5080, Note_on_c, 0, 80, 76
6, 5119, Note_on_c, 0, 80, 0
6, 5120, Note_on_c, 0, 82, 76
6, 5155, Note_on_c, 0, 82, 0
6, 5160, Note_on_c, 0, 80, 76
6, 5279, Note_on_c, 0, 80, 0
6, 6600, Control_c, 0, 11, 96
6, 6840, Note_on_c, 0, 79, 68
6, 6840, Control_c, 0, 11, 96
6, 6853, Control_c, 0, 11, 99
6, 6867, Control_c, 0, 11, 103
6, 6879, Note_on_c, 0, 79, 0
6, 6880, Note_on_c, 0, 80, 68
6, 6880, Control_c, 0, 11, 106
6, 6893, Control_c, 0, 11, 110
6, 6907, Control_c, 0, 11, 113
6, 6919, Note_on_c, 0, 80, 0
6, 6920, Note_on_c, 0, 82, 68
6, 6920, Control_c, 0, 11, 117
6, 6933, Control_c, 0, 11, 120
6, 6947, Control_c, 0, 11, 124
6, 6955, Note_on_c, 0, 82, 0
6, 6960, Control_c, 0, 11, 127
6, 6960, Note_on_c, 0, 80, 68
6, 6973, Control_c, 0, 11, 124
6, 6987, Control_c, 0, 11, 120
6, 7000, Control_c, 0, 11, 117
6, 7013, Control_c, 0, 11, 113
6, 7027, Control_c, 0, 11, 110
6, 7040, Control_c, 0, 11, 106
6, 7053, Control_c, 0, 11, 103
6, 7067, Control_c, 0, 11, 99
6, 7079, Note_on_c, 0, 80, 0
6, 7080, Control_c, 0, 11, 96
6, 7198, Control_c, 0, 11, 127
6, 7200, Note_on_c, 0, 79, 76
6, 7200, Note_on_c, 0, 82, 76
6, 7319, Note_on_c, 0, 79, 0
6, 7319, Note_on_c, 0, 82, 0
6, 7320, Note_on_c, 0, 80, 76
6, 7379, Note_on_c, 0, 80, 0
6, 7440, Note_on_c, 0, 80, 52
6, 7440, Note_on_c, 0, 68, 52
6, 7499, Note_on_c, 0, 80, 0
6, 7499, Note_on_c, 0, 68, 0
6, 7560, Note_on_c, 0, 68, 52
6, 7560, Note_on_c, 0, 80, 52
6, 7619, Note_on_c, 0, 68, 0
6, 7619, Note_on_c, 0, 80, 0
6, 7680, Note_on_c, 0, 68, 52
6, 7680, Note_on_c, 0, 80, 52
6, 7799, Note_on_c, 0, 68, 0
6, 7799, Note_on_c, 0, 80, 0
6, 10080, Note_on_c, 0, 87, 44
6, 10169, Note_on_c, 0, 87, 0
6, 10170, Note_on_c, 0, 89, 44
6, 10195, Note_on_c, 0, 89, 0
6, 10200, Note_on_c, 0, 87, 84
6, 10200, Note_on_c, 0, 90, 84
6, 10551, Note_on_c, 0, 87, 0
6, 10551, Note_on_c, 0, 90, 0
6, 10560, Note_on_c, 0, 91, 84
6, 10560, Note_on_c, 0, 88, 84
6, 10645, Note_on_c, 0, 91, 0
6, 10645, Note_on_c, 0, 88, 0
6, 10650, Note_on_c, 0, 84, 84
6, 10650, Note_on_c, 0, 88, 84
6, 10675, Note_on_c, 0, 84, 0
6, 10675, Note_on_c, 0, 88, 0
6, 10680, Note_on_c, 0, 84, 84
6, 10680, Note_on_c, 0, 79, 84
6, 10769, Note_on_c, 0, 84, 0
6, 10769, Note_on_c, 0, 79, 0
6, 10800, Note_on_c, 0, 83, 84
6, 10800, Note_on_c, 0, 86, 84
6, 10889, Note_on_c, 0, 83, 0
6, 10889, Note_on_c, 0, 86, 0
6, 10920, Note_on_c, 0, 76, 84
6, 10920, Note_on_c, 0, 84, 84
6, 11039, Note_on_c, 0, 76, 0
6, 11039, Note_on_c, 0, 84, 0
6, 21060, Note_on_c, 0, 79, 56
6, 21099, Note_on_c, 0, 79, 0
6, 21100, Note_on_c, 0, 82, 58
6, 21119, Note_on_c, 0, 82, 0
6, 21120, Note_on_c, 0, 80, 60
6, 21179, Note_on_c, 0, 80, 0
6, 21180, Note_on_c, 0, 79, 64
6, 21239, Note_on_c, 0, 79, 0
6, 21240, Note_on_c, 0, 80, 68
6, 21299, Note_on_c, 0, 80, 0
6, 21300, Note_on_c, 0, 84, 72
6, 21355, Note_on_c, 0, 84, 0
6, 21360, Note_on_c, 0, 86, 76
6, 21375, Control_c, 0, 11, 125
6, 21390, Control_c, 0, 11, 123
6, 21405, Control_c, 0, 11, 121
6, 21419, Note_on_c, 0, 86, 0
6, 21420, Control_c, 0, 11, 119
6, 21420, Note_on_c, 0, 87, 76
6, 21435, Control_c, 0, 11, 117
6, 21450, Control_c, 0, 11, 115
6, 21465, Control_c, 0, 11, 113
6, 21479, Note_on_c, 0, 87, 0
6, 21480, Note_on_c, 0, 89, 76
6, 21480, Control_c, 0, 11, 111
6, 21495, Control_c, 0, 11, 109
6, 21510, Control_c, 0, 11, 107
6, 21525, Control_c, 0, 11, 105
6, 21539, Note_on_c, 0, 89, 0
6, 21540, Note_on_c, 0, 87, 76
6, 21540, Control_c, 0, 11, 104
6, 21555, Control_c, 0, 11, 102
6, 21570, Control_c, 0, 11, 100
6, 21585, Control_c, 0, 11, 98
6, 21599, Note_on_c, 0, 87, 0
6, 21600, Control_c, 0, 11, 96
6, 21600, Note_on_c, 0, 86, 76
6, 21615, Control_c, 0, 11, 94
6, 21630, Control_c, 0, 11, 92
6, 21645, Control_c, 0, 11, 90
6, 21659, Note_on_c, 0, 86, 0
6, 21660, Control_c, 0, 11, 88
6, 21660, Note_on_c, 0, 87, 76
6, 21675, Control_c, 0, 11, 86
6, 21690, Control_c, 0, 11, 84
6, 21705, Control_c, 0, 11, 80
6, 21715, Note_on_c, 0, 87, 0
6, 21720, Note_on_c, 0, 85, 76
6, 21839, Note_on_c, 0, 85, 0
6, 21840, Note_on_c, 0, 84, 76
6, 22071, Note_on_c, 0, 84, 0
6, 22080, Note_on_c, 0, 82, 76
6, 22199, Note_on_c, 0, 82, 0
6, 22200, Note_on_c, 0, 80, 76
6, 22431, Note_on_c, 0, 80, 0
6, 22440, Note_on_c, 0, 79, 76
6, 22671, Note_on_c, 0, 79, 0
6, 22680, Note_on_c, 0, 79, 76
6, 22719, Note_on_c, 0, 79, 0
6, 22720, Note_on_c, 0, 80, 76
6, 22759, Note_on_c, 0, 80, 0
6, 22760, Note_on_c, 0, 82, 76
6, 22795, Note_on_c, 0, 82, 0
6, 22800, Note_on_c, 0, 80, 76
6, 22919, Note_on_c, 0, 80, 0
6, 24240, Control_c, 0, 11, 96
6, 24480, Note_on_c, 0, 79, 68
6, 24493, Control_c, 0, 11, 99
6, 24507, Control_c, 0, 11, 103
6, 24519, Note_on_c, 0, 79, 0
6, 24520, Control_c, 0, 11, 106
6, 24520, Note_on_c, 0, 80, 68
6, 24533, Control_c, 0, 11, 110
6, 24547, Control_c, 0, 11, 113
6, 24559, Note_on_c, 0, 80, 0
6, 24560, Note_on_c, 0, 82, 68
6, 24560, Control_c, 0, 11, 117
6, 24573, Control_c, 0, 11, 120
6, 24587, Control_c, 0, 11, 127
6, 24595, Note_on_c, 0, 82, 0
6, 24600, Control_c, 0, 11, 127
6, 24600, Note_on_c, 0, 80, 68
6, 24613, Control_c, 0, 11, 124
6, 24627, Control_c, 0, 11, 120
6, 24640, Control_c, 0, 11, 117
6, 24653, Control_c, 0, 11, 113
6, 24667, Control_c, 0, 11, 110
6, 24680, Control_c, 0, 11, 106
6, 24693, Control_c, 0, 11, 103
6, 24707, Control_c, 0, 11, 96
6, 24719, Note_on_c, 0, 80, 0
6, 24838, Control_c, 0, 11, 127
6, 24840, Note_on_c, 0, 82, 76
6, 24840, Note_on_c, 0, 79, 76
6, 24959, Note_on_c, 0, 82, 0
6, 24959, Note_on_c, 0, 79, 0
6, 24960, Note_on_c, 0, 80, 76
6, 25019, Note_on_c, 0, 80, 0
6, 25080, Note_on_c, 0, 68, 52
6, 25080, Note_on_c, 0, 80, 52
6, 25139, Note_on_c, 0, 68, 0
6, 25139, Note_on_c, 0, 80, 0
6, 25200, Note_on_c, 0, 68, 52
6, 25200, Note_on_c, 0, 80, 52
6, 25259, Note_on_c, 0, 68, 0
6, 25259, Note_on_c, 0, 80, 0
6, 25320, Note_on_c, 0, 80, 52
6, 25320, Note_on_c, 0, 68, 52
6, 25439, Note_on_c, 0, 80, 0
6, 25439, Note_on_c, 0, 68, 0
6, 27720, Note_on_c, 0, 87, 44
6, 27809, Note_on_c, 0, 87, 0
6, 27810, Note_on_c, 0, 89, 44
6, 27835, Note_on_c, 0, 89, 0
6, 27840, Note_on_c, 0, 87, 84
6, 27840, Note_on_c, 0, 90, 84
6, 28191, Note_on_c, 0, 87, 0
6, 28191, Note_on_c, 0, 90, 0
6, 28200, Note_on_c, 0, 88, 84
6, 28200, Note_on_c, 0, 91, 84
6, 28285, Note_on_c, 0, 88, 0
6, 28285, Note_on_c, 0, 91, 0
6, 28290, Note_on_c, 0, 88, 84
6, 28290, Note_on_c, 0, 84, 84
6, 28315, Note_on_c, 0, 88, 0
6, 28315, Note_on_c, 0, 84, 0
6, 28320, Note_on_c, 0, 79, 84
6, 28320, Note_on_c, 0, 84, 84
6, 28409, Note_on_c, 0, 79, 0
6, 28409, Note_on_c, 0, 84, 0
6, 28440, Note_on_c, 0, 86, 84
6, 28440, Note_on_c, 0, 83, 84
6, 28529, Note_on_c, 0, 86, 0
6, 28529, Note_on_c, 0, 83, 0
6, 28560, Note_on_c, 0, 76, 84
6, 28560, Note_on_c, 0, 84, 84
6, 28679, Note_on_c, 0, 76, 0
6, 28679, Note_on_c, 0, 84, 0
6, 34980, Note_on_c, 0, 75, 84
6, 35024, Note_on_c, 0, 75, 0
6, 35040, Note_on_c, 0, 87, 76
6, 35400, Control_c, 0, 11, 127
6, 35413, Control_c, 0, 11, 124
6, 35427, Control_c, 0, 11, 122
6, 35440, Control_c, 0, 11, 119
6, 35453, Control_c, 0, 11, 117
6, 35467, Control_c, 0, 11, 114
6, 35480, Control_c, 0, 11, 111
6, 35493, Control_c, 0, 11, 109
6, 35507, Control_c, 0, 11, 106
6, 35520, Control_c, 0, 11, 104
6, 35533, Control_c, 0, 11, 101
6, 35547, Control_c, 0, 11, 98
6, 35560, Control_c, 0, 11, 96
6, 35573, Control_c, 0, 11, 93
6, 35587, Control_c, 0, 11, 90
6, 35600, Control_c, 0, 11, 88
6, 35613, Control_c, 0, 11, 85
6, 35627, Control_c, 0, 11, 80
6, 35759, Note_on_c, 0, 87, 0
6, 35760, Note_on_c, 0, 87, 76
6, 36479, Note_on_c, 0, 87, 0
6, 36480, Note_on_c, 0, 88, 76
6, 36831, Note_on_c, 0, 88, 0
6, 36840, Note_on_c, 0, 89, 76
6, 37311, Note_on_c, 0, 89, 0
6, 37320, Note_on_c, 0, 87, 76
6, 37559, Note_on_c, 0, 87, 0
6, 37560, Note_on_c, 0, 87, 68
6, 37911, Note_on_c, 0, 87, 0
6, 37920, Note_on_c, 0, 84, 68
6, 38039, Note_on_c, 0, 84, 0
6, 40800, Control_c, 0, 11, 127
6, 40860, Note_on_c, 0, 84, 76
6, 40860, Note_on_c, 0, 80, 76
6, 40915, Note_on_c, 0, 84, 0
6, 40915, Note_on_c, 0, 80, 0
6, 40920, Note_on_c, 0, 80, 76
6, 40920, Note_on_c, 0, 84, 76
6, 40975, Note_on_c, 0, 80, 0
6, 40975, Note_on_c, 0, 84, 0
6, 40980, Note_on_c, 0, 80, 76
6, 40980, Note_on_c, 0, 84, 76
6, 41035, Note_on_c, 0, 80, 0
6, 41035, Note_on_c, 0, 84, 0
6, 41040, Note_on_c, 0, 80, 76
6, 41040, Note_on_c, 0, 84, 76
6, 41095, Note_on_c, 0, 80, 0
6, 41095, Note_on_c, 0, 84, 0
6, 41100, Note_on_c, 0, 84, 76
6, 41100, Note_on_c, 0, 80, 76
6, 41155, Note_on_c, 0, 84, 0
6, 41155, Note_on_c, 0, 80, 0
6, 41160, Note_on_c, 0, 84, 76
6, 41160, Note_on_c, 0, 80, 76
6, 41215, Note_on_c, 0, 84, 0
6, 41215, Note_on_c, 0, 80, 0
6, 41220, Note_on_c, 0, 80, 76
6, 41220, Note_on_c, 0, 84, 76
6, 41275, Note_on_c, 0, 80, 0
6, 41275, Note_on_c, 0, 84, 0
6, 41280, Note_on_c, 0, 84, 76
6, 41280, Note_on_c, 0, 80, 76
6, 41335, Note_on_c, 0, 84, 0
6, 41335, Note_on_c, 0, 80, 0
6, 41340, Note_on_c, 0, 84, 76
6, 41340, Note_on_c, 0, 80, 76
6, 41395, Note_on_c, 0, 84, 0
6, 41395, Note_on_c, 0, 80, 0
6, 41400, Note_on_c, 0, 80, 76
6, 41400, Note_on_c, 0, 84, 76
6, 41455, Note_on_c, 0, 80, 0
6, 41455, Note_on_c, 0, 84, 0
6, 41460, Note_on_c, 0, 84, 76
6, 41460, Note_on_c, 0, 80, 76
6, 41515, Note_on_c, 0, 84, 0
6, 41515, Note_on_c, 0, 80, 0
6, 41520, Note_on_c, 0, 84, 76
6, 41520, Note_on_c, 0, 81, 76
6, 41575, Note_on_c, 0, 84, 0
6, 41575, Note_on_c, 0, 81, 0
6, 41580, Note_on_c, 0, 84, 76
6, 41580, Note_on_c, 0, 81, 76
6, 41635, Note_on_c, 0, 84, 0
6, 41635, Note_on_c, 0, 81, 0
6, 41640, Note_on_c, 0, 85, 76
6, 41640, Note_on_c, 0, 82, 76
6, 41695, Note_on_c, 0, 85, 0
6, 41695, Note_on_c, 0, 82, 0
6, 41700, Note_on_c, 0, 85, 76
6, 41700, Note_on_c, 0, 82, 76
6, 41755, Note_on_c, 0, 85, 0
6, 41755, Note_on_c, 0, 82, 0
6, 41760, Note_on_c, 0, 85, 76
6, 41760, Note_on_c, 0, 82, 76
6, 41815, Note_on_c, 0, 85, 0
6, 41815, Note_on_c, 0, 82, 0
6, 41820, Note_on_c, 0, 82, 76
6, 41820, Note_on_c, 0, 85, 76
6, 41875, Note_on_c, 0, 82, 0
6, 41875, Note_on_c, 0, 85, 0
6, 41880, Note_on_c, 0, 85, 76
6, 41880, Note_on_c, 0, 82, 76
6, 41935, Note_on_c, 0, 85, 0
6, 41935, Note_on_c, 0, 82, 0
6, 41940, Note_on_c, 0, 85, 76
6, 41940, Note_on_c, 0, 82, 76
6, 41995, Note_on_c, 0, 85, 0
6, 41995, Note_on_c, 0, 82, 0
6, 42000, Note_on_c, 0, 82, 76
6, 42000, Note_on_c, 0, 85, 76
6, 42055, Note_on_c, 0, 82, 0
6, 42055, Note_on_c, 0, 85, 0
6, 42060, Note_on_c, 0, 85, 76
6, 42060, Note_on_c, 0, 82, 76
6, 42115, Note_on_c, 0, 85, 0
6, 42115, Note_on_c, 0, 82, 0
6, 42120, Note_on_c, 0, 86, 76
6, 42120, Note_on_c, 0, 83, 76
6, 42175, Note_on_c, 0, 86, 0
6, 42175, Note_on_c, 0, 83, 0
6, 42180, Note_on_c, 0, 86, 76
6, 42180, Note_on_c, 0, 83, 76
6, 42235, Note_on_c, 0, 86, 0
6, 42235, Note_on_c, 0, 83, 0
6, 42240, Note_on_c, 0, 88, 76
6, 42240, Note_on_c, 0, 84, 76
6, 42295, Note_on_c, 0, 88, 0
6, 42295, Note_on_c, 0, 84, 0
6, 42300, Note_on_c, 0, 84, 76
6, 42300, Note_on_c, 0, 88, 76
6, 42355, Note_on_c, 0, 84, 0
6, 42355, Note_on_c, 0, 88, 0
6, 42360, Note_on_c, 0, 84, 76
6, 42360, Note_on_c, 0, 88, 76
6, 42415, Note_on_c, 0, 84, 0
6, 42415, Note_on_c, 0, 88, 0
6, 42420, Note_on_c, 0, 88, 76
6, 42420, Note_on_c, 0, 84, 76
6, 42475, Note_on_c, 0, 88, 0
6, 42475, Note_on_c, 0, 84, 0
6, 42480, Note_on_c, 0, 88, 76
6, 42480, Note_on_c, 0, 84, 76
6, 42535, Note_on_c, 0, 88, 0
6, 42535, Note_on_c, 0, 84, 0
6, 42540, Note_on_c, 0, 88, 76
6, 42540, Note_on_c, 0, 84, 76
6, 42595, Note_on_c, 0, 88, 0
6, 42595, Note_on_c, 0, 84, 0
6, 42600, Note_on_c, 0, 84, 76
6, 42600, Note_on_c, 0, 89, 76
6, 42655, Note_on_c, 0, 84, 0
6, 42655, Note_on_c, 0, 89, 0
6, 42660, Note_on_c, 0, 89, 76
6, 42660, Note_on_c, 0, 87, 76
6, 42715, Note_on_c, 0, 89, 0
6, 42715, Note_on_c, 0, 87, 0
6, 42720, Note_on_c, 0, 89, 76
6, 42720, Note_on_c, 0, 85, 76
6, 42775, Note_on_c, 0, 89, 0
6, 42775, Note_on_c, 0, 85, 0
6, 42780, Note_on_c, 0, 89, 76
6, 42780, Note_on_c, 0, 85, 76
6, 42835, Note_on_c, 0, 89, 0
6, 42835, Note_on_c, 0, 85, 0
6, 42840, Note_on_c, 0, 85, 76
6, 42840, Note_on_c, 0, 89, 76
6, 42895, Note_on_c, 0, 85, 0
6, 42895, Note_on_c, 0, 89, 0
6, 42900, Note_on_c, 0, 85, 76
6, 42900, Note_on_c, 0, 89, 76
6, 42955, Note_on_c, 0, 85, 0
6, 42955, Note_on_c, 0, 89, 0
6, 42960, Note_on_c, 0, 85, 76
6, 42960, Note_on_c, 0, 89, 76
6, 43015, Note_on_c, 0, 85, 0
6, 43015, Note_on_c, 0, 89, 0
6, 43020, Note_on_c, 0, 87, 76
6, 43020, Note_on_c, 0, 85, 76
6, 43075, Note_on_c, 0, 87, 0
6, 43075, Note_on_c, 0, 85, 0
6, 43080, Note_on_c, 0, 87, 76
6, 43080, Note_on_c, 0, 84, 76
6, 43135, Note_on_c, 0, 87, 0
6, 43135, Note_on_c, 0, 84, 0
6, 43140, Note_on_c, 0, 87, 76
6, 43140, Note_on_c, 0, 84, 76
6, 43195, Note_on_c, 0, 87, 0
6, 43195, Note_on_c, 0, 84, 0
6, 43200, Note_on_c, 0, 84, 76
6, 43200, Note_on_c, 0, 87, 76
6, 43255, Note_on_c, 0, 84, 0
6, 43255, Note_on_c, 0, 87, 0
6, 43260, Note_on_c, 0, 87, 76
6, 43260, Note_on_c, 0, 84, 76
6, 43315, Note_on_c, 0, 87, 0
6, 43315, Note_on_c, 0, 84, 0
6, 43320, Note_on_c, 0, 87, 76
6, 43320, Note_on_c, 0, 82, 76
6, 43671, Note_on_c, 0, 87, 0
6, 43671, Note_on_c, 0, 82, 0
6, 43680, Note_on_c, 0, 75, 76
6, 43680, Note_on_c, 0, 63, 76
6, 43859, Note_on_c, 0, 75, 0
6, 43859, Note_on_c, 0, 63, 0
6, 43860, Note_on_c, 0, 65, 76
6, 43860, Note_on_c, 0, 77, 76
6, 43889, Note_on_c, 0, 65, 0
6, 43889, Note_on_c, 0, 77, 0
6, 43890, Note_on_c, 0, 67, 76
6, 43890, Note_on_c, 0, 79, 76
6, 43919, Note_on_c, 0, 67, 0
6, 43919, Note_on_c, 0, 79, 0
6, 43920, Note_on_c, 0, 80, 76
6, 43920, Note_on_c, 0, 68, 76
6, 43949, Note_on_c, 0, 80, 0
6, 43949, Note_on_c, 0, 68, 0
6, 43950, Note_on_c, 0, 82, 76
6, 43950, Note_on_c, 0, 70, 76
6, 43979, Note_on_c, 0, 82, 0
6, 43979, Note_on_c, 0, 70, 0
6, 43980, Note_on_c, 0, 84, 76
6, 43980, Note_on_c, 0, 72, 76
6, 44009, Note_on_c, 0, 84, 0
6, 44009, Note_on_c, 0, 72, 0
6, 44010, Note_on_c, 0, 74, 76
6, 44010, Note_on_c, 0, 86, 76
6, 44035, Note_on_c, 0, 74, 0
6, 44035, Note_on_c, 0, 86, 0
6, 44040, Note_on_c, 0, 87, 76
6, 44040, Note_on_c, 0, 75, 76
6, 44279, Note_on_c, 0, 87, 0
6, 44279, Note_on_c, 0, 75, 0
6, 47160, Note_on_c, 0, 68, 48
6, 47219, Note_on_c, 0, 68, 0
6, 47220, Note_on_c, 0, 74, 48
6, 47279, Note_on_c, 0, 74, 0
6, 47280, Note_on_c, 0, 77, 48
6, 47369, Note_on_c, 0, 77, 0
6, 47400, Note_on_c, 0, 77, 48
6, 47459, Note_on_c, 0, 77, 0
6, 47460, Note_on_c, 0, 75, 48
6, 47519, Note_on_c, 0, 75, 0
6, 47520, Note_on_c, 0, 74, 48
6, 47579, Note_on_c, 0, 74, 0
6, 47580, Note_on_c, 0, 77, 48
6, 47639, Note_on_c, 0, 77, 0
6, 47640, Note_on_c, 0, 80, 48
6, 47729, Note_on_c, 0, 80, 0
6, 47760, Note_on_c, 0, 80, 48
6, 47819, Note_on_c, 0, 80, 0
6, 47820, Note_on_c, 0, 79, 48
6, 47879, Note_on_c, 0, 79, 0
6, 47880, Note_on_c, 0, 77, 48
6, 47939, Note_on_c, 0, 77, 0
6, 47940, Note_on_c, 0, 80, 48
6, 47999, Note_on_c, 0, 80, 0
6, 48000, Note_on_c, 0, 84, 48
6, 48111, Note_on_c, 0, 84, 0
6, 48120, Note_on_c, 0, 84, 48
6, 48179, Note_on_c, 0, 84, 0
6, 48180, Note_on_c, 0, 82, 48
6, 48239, Note_on_c, 0, 82, 0
6, 48240, Note_on_c, 0, 80, 48
6, 48299, Note_on_c, 0, 80, 0
6, 48300, Note_on_c, 0, 79, 48
6, 48359, Note_on_c, 0, 79, 0
6, 48360, Note_on_c, 0, 77, 48
6, 48471, Note_on_c, 0, 77, 0
6, 48480, Note_on_c, 0, 77, 48
6, 48539, Note_on_c, 0, 77, 0
6, 48540, Note_on_c, 0, 79, 48
6, 48599, Note_on_c, 0, 79, 0
6, 48600, Note_on_c, 0, 80, 48
6, 48659, Note_on_c, 0, 80, 0
6, 48660, Note_on_c, 0, 82, 48
6, 48715, Note_on_c, 0, 82, 0
6, 48720, Note_on_c, 0, 84, 48
6, 48779, Note_on_c, 0, 84, 0
6, 48780, Note_on_c, 0, 82, 50
6, 48839, Note_on_c, 0, 82, 0
6, 48840, Note_on_c, 0, 80, 52
6, 48899, Note_on_c, 0, 80, 0
6, 48900, Note_on_c, 0, 79, 54
6, 48959, Note_on_c, 0, 79, 0
6, 48960, Note_on_c, 0, 77, 56
6, 49019, Note_on_c, 0, 77, 0
6, 49020, Note_on_c, 0, 79, 59
6, 49079, Note_on_c, 0, 79, 0
6, 49080, Note_on_c, 0, 80, 61
6, 49139, Note_on_c, 0, 80, 0
6, 49140, Note_on_c, 0, 82, 63
6, 49199, Note_on_c, 0, 82, 0
6, 49200, Note_on_c, 0, 84, 65
6, 49255, Note_on_c, 0, 84, 0
6, 49260, Note_on_c, 0, 84, 68
6, 49319, Note_on_c, 0, 84, 0
6, 49320, Note_on_c, 0, 82, 63
6, 49379, Note_on_c, 0, 82, 0
6, 49380, Note_on_c, 0, 80, 58
6, 49439, Note_on_c, 0, 80, 0
6, 49440, Note_on_c, 0, 79, 52
6, 49859, Note_on_c, 0, 79, 0
6, 49860, Note_on_c, 0, 80, 52
6, 49919, Note_on_c, 0, 80, 0
6, 49920, Note_on_c, 0, 82, 52
6, 49979, Note_on_c, 0, 82, 0
6, 49980, Note_on_c, 0, 84, 52
6, 50039, Note_on_c, 0, 84, 0
6, 50040, Note_on_c, 0, 85, 52
6, 50099, Note_on_c, 0, 85, 0
6, 50100, Note_on_c, 0, 87, 52
6, 50159, Note_on_c, 0, 87, 0
6, 50160, Note_on_c, 0, 89, 52
6, 50271, Note_on_c, 0, 89, 0
6, 50280, Note_on_c, 0, 89, 54
6, 50339, Note_on_c, 0, 89, 0
6, 50340, Note_on_c, 0, 87, 56
6, 50399, Note_on_c, 0, 87, 0
6, 50400, Note_on_c, 0, 85, 57
6, 50459, Note_on_c, 0, 85, 0
6, 50460, Note_on_c, 0, 84, 58
6, 50519, Note_on_c, 0, 84, 0
6, 50520, Note_on_c, 0, 82, 60
6, 50579, Note_on_c, 0, 82, 0
6, 50580, Note_on_c, 0, 84, 61
6, 50639, Note_on_c, 0, 84, 0
6, 50640, Note_on_c, 0, 85, 62
6, 50699, Note_on_c, 0, 85, 0
6, 50700, Note_on_c, 0, 87, 64
6, 50759, Note_on_c, 0, 87, 0
6, 50760, Note_on_c, 0, 89, 65
6, 50819, Note_on_c, 0, 89, 0
6, 50820, Note_on_c, 0, 87, 66
6, 50879, Note_on_c, 0, 87, 0
6, 50880, Note_on_c, 0, 85, 68
6, 50939, Note_on_c, 0, 85, 0
6, 50940, Note_on_c, 0, 84, 66
6, 50999, Note_on_c, 0, 84, 0
6, 51000, Note_on_c, 0, 82, 63
6, 51055, Note_on_c, 0, 82, 0
6, 51060, Note_on_c, 0, 89, 60
6, 51104, Note_on_c, 0, 89, 0
6, 51120, Note_on_c, 0, 87, 58
6, 51164, Note_on_c, 0, 87, 0
6, 51180, Note_on_c, 0, 85, 55
6, 51224, Note_on_c, 0, 85, 0
6, 51240, Note_on_c, 0, 84, 52
6, 51284, Note_on_c, 0, 84, 0
6, 51300, Note_on_c, 0, 87, 52
6, 51344, Note_on_c, 0, 87, 0
6, 51360, Note_on_c, 0, 85, 52
6, 51404, Note_on_c, 0, 85, 0
6, 51420, Note_on_c, 0, 84, 52
6, 51464, Note_on_c, 0, 84, 0
6, 51480, Note_on_c, 0, 82, 52
6, 51524, Note_on_c, 0, 82, 0
6, 51780, Note_on_c, 0, 84, 52
6, 51824, Note_on_c, 0, 84, 0
6, 51840, Note_on_c, 0, 82, 52
6, 51884, Note_on_c, 0, 82, 0
6, 51900, Note_on_c, 0, 80, 52
6, 51944, Note_on_c, 0, 80, 0
6, 51960, Note_on_c, 0, 79, 52
6, 52015, Note_on_c, 0, 79, 0
6, 52020, Note_on_c, 0, 79, 54
6, 52075, Note_on_c, 0, 79, 0
6, 52080, Note_on_c, 0, 79, 56
6, 52135, Note_on_c, 0, 79, 0
6, 52140, Note_on_c, 0, 79, 58
6, 52195, Note_on_c, 0, 79, 0
6, 52200, Note_on_c, 0, 79, 60
6, 52255, Note_on_c, 0, 79, 0
6, 52260, Note_on_c, 0, 79, 62
6, 52315, Note_on_c, 0, 79, 0
6, 52320, Note_on_c, 0, 79, 64
6, 52375, Note_on_c, 0, 79, 0
6, 52380, Note_on_c, 0, 79, 66
6, 52435, Note_on_c, 0, 79, 0
6, 52440, Note_on_c, 0, 79, 68
6, 52495, Note_on_c, 0, 79, 0
6, 52500, Note_on_c, 0, 79, 70
6, 52559, Note_on_c, 0, 79, 0
6, 52920, Note_on_c, 0, 76, 84
6, 53005, Note_on_c, 0, 76, 0
6, 53010, Note_on_c, 0, 79, 84
6, 53035, Note_on_c, 0, 79, 0
6, 53040, Note_on_c, 0, 84, 84
6, 53040, Note_on_c, 0, 76, 84
6, 53151, Note_on_c, 0, 84, 0
6, 53151, Note_on_c, 0, 76, 0
6, 53160, Note_on_c, 0, 84, 84
6, 53160, Note_on_c, 0, 76, 84
6, 53271, Note_on_c, 0, 84, 0
6, 53271, Note_on_c, 0, 76, 0
6, 53280, Note_on_c, 0, 83, 84
6, 53280, Note_on_c, 0, 86, 84
6, 53391, Note_on_c, 0, 83, 0
6, 53391, Note_on_c, 0, 86, 0
6, 53400, Note_on_c, 0, 88, 84
6, 53400, Note_on_c, 0, 84, 84
6, 53991, Note_on_c, 0, 88, 0
6, 53991, Note_on_c, 0, 84, 0
6, 54000, Note_on_c, 0, 84, 84
6, 54000, Note_on_c, 0, 76, 84
6, 54085, Note_on_c, 0, 84, 0
6, 54085, Note_on_c, 0, 76, 0
6, 54090, Note_on_c, 0, 83, 84
6, 54090, Note_on_c, 0, 86, 84
6, 54115, Note_on_c, 0, 83, 0
6, 54115, Note_on_c, 0, 86, 0
6, 54120, Note_on_c, 0, 88, 84
6, 54120, Note_on_c, 0, 84, 84
6, 54231, Note_on_c, 0, 88, 0
6, 54231, Note_on_c, 0, 84, 0
6, 54240, Note_on_c, 0, 88, 84
6, 54240, Note_on_c, 0, 84, 84
6, 54351, Note_on_c, 0, 88, 0
6, 54351, Note_on_c, 0, 84, 0
6, 54360, Note_on_c, 0, 86, 84
6, 54360, Note_on_c, 0, 89, 84
6, 54471, Note_on_c, 0, 86, 0
6, 54471, Note_on_c, 0, 89, 0
6, 54480, Note_on_c, 0, 91, 84
6, 54480, Note_on_c, 0, 88, 84
6, 55071, Note_on_c, 0, 91, 0
6, 55071, Note_on_c, 0, 88, 0
6, 55080, Note_on_c, 0, 88, 84
6, 55080, Note_on_c, 0, 84, 84
6, 55165, Note_on_c, 0, 88, 0
6, 55165, Note_on_c, 0, 84, 0
6, 55170, Note_on_c, 0, 89, 84
6, 55170, Note_on_c, 0, 86, 84
6, 55195, Note_on_c, 0, 89, 0
6, 55195, Note_on_c, 0, 86, 0
6, 55200, Note_on_c, 0, 88, 84
6, 55200, Note_on_c, 0, 91, 84
6, 55431, Note_on_c, 0, 88, 0
6, 55431, Note_on_c, 0, 91, 0
6, 55440, Note_on_c, 0, 88, 84
6, 55440, Note_on_c, 0, 84, 84
6, 55525, Note_on_c, 0, 88, 0
6, 55525, Note_on_c, 0, 84, 0
6, 55530, Note_on_c, 0, 89, 84
6, 55530, Note_on_c, 0, 86, 84
6, 55555, Note_on_c, 0, 89, 0
6, 55555, Note_on_c, 0, 86, 0
6, 55560, Note_on_c, 0, 91, 84
6, 55560, Note_on_c, 0, 88, 84
6, 55791, Note_on_c, 0, 91, 0
6, 55791, Note_on_c, 0, 88, 0
6, 55800, Note_on_c, 0, 84, 84
6, 55800, Note_on_c, 0, 88, 84
6, 55885, Note_on_c, 0, 84, 0
6, 55885, Note_on_c, 0, 88, 0
6, 55890, Note_on_c, 0, 86, 84
6, 55890, Note_on_c, 0, 89, 84
6, 55915, Note_on_c, 0, 86, 0
6, 55915, Note_on_c, 0, 89, 0
6, 55920, Control_c, 0, 11, 127
6, 55920, Note_on_c, 0, 88, 84
6, 55920, Note_on_c, 0, 91, 84
6, 55935, Control_c, 0, 11, 126
6, 55950, Control_c, 0, 11, 124
6, 55965, Control_c, 0, 11, 123
6, 55980, Control_c, 0, 11, 122
6, 55995, Control_c, 0, 11, 120
6, 56010, Control_c, 0, 11, 119
6, 56025, Control_c, 0, 11, 118
6, 56040, Control_c, 0, 11, 117
6, 56055, Control_c, 0, 11, 115
6, 56070, Control_c, 0, 11, 114
6, 56085, Control_c, 0, 11, 113
6, 56100, Control_c, 0, 11, 111
6, 56115, Control_c, 0, 11, 110
6, 56130, Control_c, 0, 11, 109
6, 56145, Control_c, 0, 11, 107
6, 56160, Control_c, 0, 11, 106
6, 56175, Control_c, 0, 11, 105
6, 56190, Control_c, 0, 11, 103
6, 56205, Control_c, 0, 11, 102
6, 56220, Control_c, 0, 11, 101
6, 56235, Control_c, 0, 11, 99
6, 56250, Control_c, 0, 11, 98
6, 56265, Control_c, 0, 11, 97
6, 56280, Control_c, 0, 11, 96
6, 56295, Control_c, 0, 11, 94
6, 56310, Control_c, 0, 11, 93
6, 56325, Control_c, 0, 11, 92
6, 56340, Control_c, 0, 11, 90
6, 56355, Control_c, 0, 11, 89
6, 56370, Control_c, 0, 11, 88
6, 56385, Control_c, 0, 11, 86
6, 56400, Control_c, 0, 11, 85
6, 56415, Control_c, 0, 11, 84
6, 56430, Control_c, 0, 11, 82
6, 56445, Control_c, 0, 11, 81
6, 56460, Control_c, 0, 11, 80
6, 56475, Control_c, 0, 11, 78
6, 56490, Control_c, 0, 11, 77
6, 56505, Control_c, 0, 11, 76
6, 56520, Control_c, 0, 11, 75
6, 56535, Control_c, 0, 11, 73
6, 56550, Control_c, 0, 11, 72
6, 56565, Control_c, 0, 11, 71
6, 56580, Control_c, 0, 11, 69
6, 56595, Control_c, 0, 11, 68
6, 56610, Control_c, 0, 11, 67
6, 56625, Control_c, 0, 11, 64
6, 56759, Note_on_c, 0, 88, 0
6, 56759, Note_on_c, 0, 91, 0
6, 59520, Control_c, 0, 11, 127
6, 59760, Note_on_c, 0, 75, 52
6, 59804, Note_on_c, 0, 75, 0
6, 59850, Note_on_c, 0, 80, 52
6, 59871, Note_on_c, 0, 80, 0
6, 59880, Note_on_c, 0, 83, 52
6, 59991, Note_on_c, 0, 83, 0
6, 60000, Note_on_c, 0, 83, 52
6, 60044, Note_on_c, 0, 83, 0
6, 60090, Note_on_c, 0, 82, 52
6, 60111, Note_on_c, 0, 82, 0
6, 60120, Note_on_c, 0, 80, 52
6, 60164, Note_on_c, 0, 80, 0
6, 60210, Note_on_c, 0, 83, 52
6, 60231, Note_on_c, 0, 83, 0
6, 60240, Note_on_c, 0, 79, 52
6, 60471, Note_on_c, 0, 79, 0
6, 60480, Note_on_c, 0, 80, 52
6, 60524, Note_on_c, 0, 80, 0
6, 60570, Note_on_c, 0, 82, 52
6, 60591, Note_on_c, 0, 82, 0
6, 60600, Note_on_c, 0, 83, 52
6, 60711, Note_on_c, 0, 83, 0
6, 60720, Note_on_c, 0, 83, 52
6, 60764, Note_on_c, 0, 83, 0
6, 60810, Note_on_c, 0, 82, 52
6, 60831, Note_on_c, 0, 82, 0
6, 60840, Note_on_c, 0, 80, 52
6, 60884, Note_on_c, 0, 80, 0
6, 60930, Note_on_c, 0, 83, 52
6, 60951, Note_on_c, 0, 83, 0
6, 60960, Note_on_c, 0, 85, 52
6, 61191, Note_on_c, 0, 85, 0
6, 61200, Note_on_c, 0, 83, 52
6, 61244, Note_on_c, 0, 83, 0
6, 61290, Note_on_c, 0, 85, 52
6, 61311, Note_on_c, 0, 85, 0
6, 61320, Note_on_c, 0, 87, 52
6, 61431, Note_on_c, 0, 87, 0
6, 61440, Note_on_c, 0, 87, 52
6, 61484, Note_on_c, 0, 87, 0
6, 61530, Note_on_c, 0, 85, 52
6, 61551, Note_on_c, 0, 85, 0
6, 61560, Note_on_c, 0, 83, 52
6, 61604, Note_on_c, 0, 83, 0
6, 61650, Note_on_c, 0, 87, 52
6, 61671, Note_on_c, 0, 87, 0
6, 61680, Note_on_c, 0, 85, 52
6, 61911, Note_on_c, 0, 85, 0
6, 61920, Note_on_c, 0, 87, 52
6, 61964, Note_on_c, 0, 87, 0
6, 62010, Note_on_c, 0, 85, 52
6, 62031, Note_on_c, 0, 85, 0
6, 62040, Note_on_c, 0, 83, 52
6, 62151, Note_on_c, 0, 83, 0
6, 62160, Note_on_c, 0, 83, 52
6, 62204, Note_on_c, 0, 83, 0
6, 62250, Note_on_c, 0, 82, 52
6, 62271, Note_on_c, 0, 82, 0
6, 62280, Note_on_c, 0, 80, 52
6, 62324, Note_on_c, 0, 80, 0
6, 62370, Note_on_c, 0, 83, 52
6, 62391, Note_on_c, 0, 83, 0
6, 62398, Control_c, 0, 11, 80
6, 62400, Note_on_c, 0, 82, 76
6, 62400, Control_c, 0, 11, 80
6, 62420, Control_c, 0, 11, 81
6, 62440, Control_c, 0, 11, 83
6, 62460, Control_c, 0, 11, 84
6, 62480, Control_c, 0, 11, 85
6, 62500, Control_c, 0, 11, 87
6, 62520, Control_c, 0, 11, 88
6, 62540, Control_c, 0, 11, 89
6, 62560, Control_c, 0, 11, 90
6, 62579, Note_on_c, 0, 82, 0
6, 62580, Control_c, 0, 11, 92
6, 62580, Note_on_c, 0, 83, 76
6, 62600, Control_c, 0, 11, 93
6, 62620, Control_c, 0, 11, 94
6, 62639, Note_on_c, 0, 83, 0
6, 62640, Control_c, 0, 11, 96
6, 62640, Note_on_c, 0, 80, 76
6, 62660, Control_c, 0, 11, 97
6, 62680, Control_c, 0, 11, 98
6, 62699, Note_on_c, 0, 80, 0
6, 62700, Note_on_c, 0, 80, 76
6, 62700, Note_on_c, 0, 83, 76
6, 62700, Control_c, 0, 11, 100
6, 62720, Control_c, 0, 11, 101
6, 62740, Control_c, 0, 11, 102
6, 62755, Note_on_c, 0, 80, 0
6, 62755, Note_on_c, 0, 83, 0
6, 62760, Control_c, 0, 11, 104
6, 62760, Note_on_c, 0, 79, 76
6, 62760, Note_on_c, 0, 82, 76
6, 62780, Control_c, 0, 11, 105
6, 62800, Control_c, 0, 11, 106
6, 62820, Control_c, 0, 11, 107
6, 62840, Control_c, 0, 11, 109
6, 62860, Control_c, 0, 11, 110
6, 62880, Control_c, 0, 11, 111
6, 62900, Control_c, 0, 11, 113
6, 62920, Control_c, 0, 11, 114
6, 62939, Note_on_c, 0, 79, 0
6, 62939, Note_on_c, 0, 82, 0
6, 62940, Note_on_c, 0, 80, 76
6, 62940, Note_on_c, 0, 83, 76
6, 62940, Control_c, 0, 11, 115
6, 62960, Control_c, 0, 11, 117
6, 62980, Control_c, 0, 11, 118
6, 62999, Note_on_c, 0, 80, 0
6, 62999, Note_on_c, 0, 83, 0
6, 63000, Note_on_c, 0, 75, 76
6, 63000, Control_c, 0, 11, 119
6, 63000, Note_on_c, 0, 80, 76
6, 63020, Control_c, 0, 11, 120
6, 63040, Control_c, 0, 11, 122
6, 63059, Note_on_c, 0, 75, 0
6, 63059, Note_on_c, 0, 80, 0
6, 63060, Control_c, 0, 11, 123
6, 63060, Note_on_c, 0, 83, 76
6, 63060, Note_on_c, 0, 80, 76
6, 63080, Control_c, 0, 11, 124
6, 63100, Control_c, 0, 11, 127
6, 63115, Note_on_c, 0, 83, 0
6, 63115, Note_on_c, 0, 80, 0
6, 63120, Note_on_c, 0, 79, 76
6, 63120, Note_on_c, 0, 82, 76
6, 63175, Note_on_c, 0, 79, 0
6, 63175, Note_on_c, 0, 82, 0
6, 63180, Note_on_c, 0, 75, 76
6, 63239, Note_on_c, 0, 75, 0
6, 63240, Note_on_c, 0, 75, 48
6, 63295, Note_on_c, 0, 75, 0
6, 63300, Note_on_c, 0, 74, 48
6, 63359, Note_on_c, 0, 74, 0
6, 63360, Note_on_c, 0, 75, 48
6, 63419, Note_on_c, 0, 75, 0
6, 63420, Note_on_c, 0, 76, 48
6, 63479, Note_on_c, 0, 76, 0
6, 63480, Note_on_c, 0, 77, 48
6, 63539, Note_on_c, 0, 77, 0
6, 63540, Note_on_c, 0, 78, 48
6, 63599, Note_on_c, 0, 78, 0
6, 63600, Note_on_c, 0, 79, 48
6, 63659, Note_on_c, 0, 79, 0
6, 63660, Note_on_c, 0, 80, 48
6, 63719, Note_on_c, 0, 80, 0
6, 63720, Note_on_c, 0, 81, 48
6, 63779, Note_on_c, 0, 81, 0
6, 63780, Note_on_c, 0, 82, 48
6, 63839, Note_on_c, 0, 82, 0
6, 63840, Note_on_c, 0, 84, 48
6, 63899, Note_on_c, 0, 84, 0
6, 63900, Note_on_c, 0, 85, 48
6, 63959, Note_on_c, 0, 85, 0
6, 63960, Note_on_c, 0, 87, 48
6, 64019, Note_on_c, 0, 87, 0
6, 64020, Note_on_c, 0, 89, 48
6, 64075, Note_on_c, 0, 89, 0
6, 64080, Note_on_c, 0, 81, 48
6, 64139, Note_on_c, 0, 81, 0
6, 64140, Note_on_c, 0, 82, 48
6, 64199, Note_on_c, 0, 82, 0
6, 64200, Note_on_c, 0, 84, 48
6, 64259, Note_on_c, 0, 84, 0
6, 64260, Note_on_c, 0, 85, 48
6, 64319, Note_on_c, 0, 85, 0
6, 66120, Note_on_c, 0, 70, 77
6, 66149, Note_on_c, 0, 70, 0
6, 66150, Note_on_c, 0, 72, 78
6, 66179, Note_on_c, 0, 72, 0
6, 66180, Note_on_c, 0, 73, 79
6, 66209, Note_on_c, 0, 73, 0
6, 66210, Note_on_c, 0, 75, 79
6, 66239, Note_on_c, 0, 75, 0
6, 66240, Note_on_c, 0, 77, 80
6, 66269, Note_on_c, 0, 77, 0
6, 66270, Note_on_c, 0, 79, 81
6, 66299, Note_on_c, 0, 79, 0
6, 66300, Note_on_c, 0, 80, 82
6, 66329, Note_on_c, 0, 80, 0
6, 66330, Note_on_c, 0, 82, 83
6, 66355, Note_on_c, 0, 82, 0
6, 66360, Note_on_c, 0, 84, 84
6, 66809, Note_on_c, 0, 84, 0
6, 66810, Note_on_c, 0, 82, 84
6, 66839, Note_on_c, 0, 82, 0
6, 66840, Note_on_c, 0, 80, 84
6, 66929, Note_on_c, 0, 80, 0
6, 66930, Note_on_c, 0, 84, 84
6, 66955, Note_on_c, 0, 84, 0
6, 66960, Note_on_c, 0, 77, 84
6, 67191, Note_on_c, 0, 77, 0
6, 67200, Note_on_c, 0, 85, 84
6, 67289, Note_on_c, 0, 85, 0
6, 67290, Note_on_c, 0, 84, 84
6, 67319, Note_on_c, 0, 84, 0
6, 67320, Note_on_c, 0, 82, 84
6, 67409, Note_on_c, 0, 82, 0
6, 67410, Note_on_c, 0, 85, 84
6, 67435, Note_on_c, 0, 85, 0
6, 67440, Note_on_c, 0, 79, 84
6, 67529, Note_on_c, 0, 79, 0
6, 67530, Note_on_c, 0, 82, 84
6, 67559, Note_on_c, 0, 82, 0
6, 67560, Note_on_c, 0, 76, 84
6, 67649, Note_on_c, 0, 76, 0
6, 67650, Note_on_c, 0, 79, 84
6, 67675, Note_on_c, 0, 79, 0
6, 67680, Note_on_c, 0, 84, 84
6, 67911, Note_on_c, 0, 84, 0
6, 67920, Note_on_c, 0, 85, 84
6, 68009, Note_on_c, 0, 85, 0
6, 68010, Note_on_c, 0, 82, 84
6, 68035, Note_on_c, 0, 82, 0
6, 68040, Note_on_c, 0, 89, 84
6, 68151, Note_on_c, 0, 89, 0
6, 68160, Note_on_c, 0, 82, 84
6, 68271, Note_on_c, 0, 82, 0
6, 68280, Note_on_c, 0, 84, 84
6, 68369, Note_on_c, 0, 84, 0
6, 68370, Note_on_c, 0, 80, 84
6, 68395, Note_on_c, 0, 80, 0
6, 68400, Note_on_c, 0, 87, 84
6, 68511, Note_on_c, 0, 87, 0
6, 68520, Note_on_c, 0, 87, 84
6, 68520, Note_on_c, 0, 82, 84
6, 68639, Note_on_c, 0, 87, 0
6, 68639, Note_on_c, 0, 82, 0
6, 68880, Note_on_c, 0, 84, 84
6, 68880, Note_on_c, 0, 80, 84
6, 68999, Note_on_c, 0, 84, 0
6, 68999, Note_on_c, 0, 80, 0
6, 69240, Note_on_c, 0, 82, 84
6, 69240, Note_on_c, 0, 79, 84
6, 69299, Note_on_c, 0, 82, 0
6, 69359, Note_on_c, 0, 79, 0
6, 69420, Note_on_c, 0, 70, 84
6, 69445, Note_on_c, 0, 70, 0
6, 69450, Note_on_c, 0, 72, 84
6, 69475, Note_on_c, 0, 72, 0
6, 69480, Note_on_c, 0, 73, 84
6, 69505, Note_on_c, 0, 73, 0
6, 69510, Note_on_c, 0, 75, 84
6, 69535, Note_on_c, 0, 75, 0
6, 69540, Note_on_c, 0, 77, 84
6, 69565, Note_on_c, 0, 77, 0
6, 69570, Note_on_c, 0, 79, 84
6, 69595, Note_on_c, 0, 79, 0
6, 69600, Note_on_c, 0, 80, 84
6, 69719, Note_on_c, 0, 80, 0
6, 69840, Note_on_c, 0, 68, 84
6, 69840, Note_on_c, 0, 80, 84
6, 69929, Note_on_c, 0, 68, 0
6, 69929, Note_on_c, 0, 80, 0
6, 69930, Note_on_c, 0, 84, 84
6, 69930, Note_on_c, 0, 72, 84
6, 69955, Note_on_c, 0, 84, 0
6, 69955, Note_on_c, 0, 72, 0
6, 69960, Note_on_c, 0, 87, 92
6, 69960, Note_on_c, 0, 75, 92
6, 70020, Control_c, 0, 11, 112
6, 70030, Control_c, 0, 11, 108
6, 70040, Control_c, 0, 11, 105
6, 70050, Control_c, 0, 11, 101
6, 70060, Control_c, 0, 11, 98
6, 70070, Control_c, 0, 11, 94
6, 70079, Note_on_c, 0, 75, 0
6, 70080, Control_c, 0, 11, 91
6, 70090, Control_c, 0, 11, 87
6, 70100, Control_c, 0, 11, 84
6, 70110, Control_c, 0, 11, 80
6, 70120, Control_c, 0, 11, 76
6, 70130, Control_c, 0, 11, 73
6, 70140, Control_c, 0, 11, 69
6, 70150, Control_c, 0, 11, 66
6, 70160, Control_c, 0, 11, 62
6, 70170, Control_c, 0, 11, 59
6, 70180, Control_c, 0, 11, 55
6, 70190, Control_c, 0, 11, 48
6, 70319, Note_on_c, 0, 87, 0
6, 70320, Note_on_c, 0, 85, 88
6, 70439, Note_on_c, 0, 85, 0
6, 70440, Note_on_c, 0, 84, 88
6, 70671, Note_on_c, 0, 84, 0
6, 70680, Note_on_c, 0, 82, 88
6, 70799, Note_on_c, 0, 82, 0
6, 70800, Note_on_c, 0, 80, 88
6, 71031, Note_on_c, 0, 80, 0
6, 71040, Note_on_c, 0, 79, 88
6, 71271, Note_on_c, 0, 79, 0
6, 71280, Note_on_c, 0, 79, 88
6, 71319, Note_on_c, 0, 79, 0
6, 71320, Note_on_c, 0, 80, 88
6, 71359, Note_on_c, 0, 80, 0
6, 71360, Note_on_c, 0, 82, 88
6, 71395, Note_on_c, 0, 82, 0
6, 71400, Note_on_c, 0, 80, 88
6, 71519, Note_on_c, 0, 80, 0
6, 72840, Control_c, 0, 11, 127
6, 73080, Note_on_c, 0, 79, 52
6, 73119, Note_on_c, 0, 79, 0
6, 73120, Note_on_c, 0, 80, 52
6, 73159, Note_on_c, 0, 80, 0
6, 73160, Note_on_c, 0, 82, 52
6, 73195, Note_on_c, 0, 82, 0
6, 73200, Note_on_c, 0, 80, 52
6, 73319, Note_on_c, 0, 80, 0
6, 77040, Note_on_c, 0, 75, 76
6, 77040, Note_on_c, 0, 70, 76
6, 77159, Note_on_c, 0, 75, 0
6, 77159, Note_on_c, 0, 70, 0
6, 77160, Note_on_c, 0, 72, 76
6, 77279, Note_on_c, 0, 72, 0
6, 77760, Note_on_c, 0, 82, 76
6, 77760, Note_on_c, 0, 79, 76
6, 77879, Note_on_c, 0, 82, 0
6, 77879, Note_on_c, 0, 79, 0
6, 77880, Note_on_c, 0, 84, 76
6, 77880, Note_on_c, 0, 80, 76
6, 77999, Note_on_c, 0, 84, 0
6, 77999, Note_on_c, 0, 80, 0
6, 78200, Note_on_c, 0, 72, 76
6, 78233, Note_on_c, 0, 72, 0
6, 78240, Note_on_c, 0, 75, 84
6, 78279, Note_on_c, 0, 75, 0
6, 78280, Note_on_c, 0, 80, 84
6, 78319, Note_on_c, 0, 80, 0
6, 78320, Note_on_c, 0, 84, 84
6, 78353, Note_on_c, 0, 84, 0
6, 78360, Note_on_c, 0, 87, 76
6, 78600, Control_c, 0, 11, 127
6, 78613, Control_c, 0, 11, 124
6, 78627, Control_c, 0, 11, 122
6, 78640, Control_c, 0, 11, 119
6, 78653, Control_c, 0, 11, 117
6, 78667, Control_c, 0, 11, 114
6, 78680, Control_c, 0, 11, 111
6, 78693, Control_c, 0, 11, 109
6, 78707, Control_c, 0, 11, 106
6, 78720, Control_c, 0, 11, 104
6, 78733, Control_c, 0, 11, 101
6, 78747, Control_c, 0, 11, 98
6, 78760, Control_c, 0, 11, 96
6, 78773, Control_c, 0, 11, 93
6, 78787, Control_c, 0, 11, 90
6, 78800, Control_c, 0, 11, 88
6, 78813, Control_c, 0, 11, 85
6, 78827, Control_c, 0, 11, 80
6, 78951, Note_on_c, 0, 87, 0
6, 78960, Note_on_c, 0, 85, 72
6, 79079, Note_on_c, 0, 85, 0
6, 79080, Note_on_c, 0, 84, 72
6, 79311, Note_on_c, 0, 84, 0
6, 79320, Note_on_c, 0, 82, 72
6, 79439, Note_on_c, 0, 82, 0
6, 79440, Note_on_c, 0, 80, 72
6, 79671, Note_on_c, 0, 80, 0
6, 79680, Note_on_c, 0, 79, 72
6, 79911, Note_on_c, 0, 79, 0
6, 79920, Note_on_c, 0, 79, 72
6, 79959, Note_on_c, 0, 79, 0
6, 79960, Note_on_c, 0, 80, 72
6, 79999, Note_on_c, 0, 80, 0
6, 80000, Note_on_c, 0, 82, 72
6, 80035, Note_on_c, 0, 82, 0
6, 80040, Note_on_c, 0, 80, 72
6, 80159, Note_on_c, 0, 80, 0
6, 80760, Control_c, 0, 11, 127
6, 81060, Note_on_c, 0, 87, 76
6, 81115, Note_on_c, 0, 87, 0
6, 81120, Note_on_c, 0, 87, 76
6, 81179, Note_on_c, 0, 87, 0
6, 81180, Note_on_c, 0, 85, 76
6, 81239, Note_on_c, 0, 85, 0
6, 81240, Note_on_c, 0, 84, 84
6, 81419, Note_on_c, 0, 84, 0
6, 86400, Note_on_c, 0, 80, 76
6, 86439, Note_on_c, 0, 80, 0
6, 86440, Note_on_c, 0, 80, 76
6, 86479, Note_on_c, 0, 80, 0
6, 86480, Note_on_c, 0, 80, 76
6, 86515, Note_on_c, 0, 80, 0
6, 86520, Note_on_c, 0, 80, 76
6, 86555, Note_on_c, 0, 80, 0
6, 86560, Note_on_c, 0, 80, 76
6, 86595, Note_on_c, 0, 80, 0
6, 86600, Note_on_c, 0, 80, 76
6, 86635, Note_on_c, 0, 80, 0
6, 86640, Note_on_c, 0, 80, 76
6, 86675, Note_on_c, 0, 80, 0
6, 86680, Note_on_c, 0, 82, 76
6, 86715, Note_on_c, 0, 82, 0
6, 86720, Note_on_c, 0, 80, 76
6, 86755, Note_on_c, 0, 80, 0
6, 86760, Note_on_c, 0, 80, 76
6, 86789, Note_on_c, 0, 80, 0
6, 86800, Note_on_c, 0, 84, 76
6, 86800, Note_on_c, 0, 72, 76
6, 86829, Note_on_c, 0, 84, 0
6, 86829, Note_on_c, 0, 72, 0
6, 86840, Note_on_c, 0, 87, 76
6, 86840, Note_on_c, 0, 75, 76
6, 86869, Note_on_c, 0, 87, 0
6, 86869, Note_on_c, 0, 75, 0
6, 86880, Note_on_c, 0, 92, 84
6, 86880, Note_on_c, 0, 80, 84
6, 86999, Note_on_c, 0, 92, 0
6, 86999, Note_on_c, 0, 80, 0
6, 87120, Note_on_c, 0, 80, 84
6, 87205, Note_on_c, 0, 80, 0
6, 87210, Note_on_c, 0, 84, 84
6, 87235, Note_on_c, 0, 84, 0
6, 87240, Note_on_c, 0, 87, 92
6, 87240, Note_on_c, 0, 75, 92
6, 87584, Note_on_c, 0, 87, 0
6, 87584, Note_on_c, 0, 75, 0
6, 87600, Note_on_c, 0, 84, 84
6, 87600, Note_on_c, 0, 72, 84
6, 87719, Note_on_c, 0, 84, 0
6, 87719, Note_on_c, 0, 72, 0
6, 87840, Note_on_c, 0, 87, 52
6, 87840, Note_on_c, 0, 79, 52
6, 87929, Note_on_c, 0, 87, 0
6, 87929, Note_on_c, 0, 79, 0
6, 87960, Note_on_c, 0, 84, 52
6, 87960, Note_on_c, 0, 80, 52
6, 88049, Note_on_c, 0, 84, 0
6, 88049, Note_on_c, 0, 80, 0
6, 88200, Note_on_c, 0, 80, 76
6, 88285, Note_on_c, 0, 80, 0
6, 88290, Note_on_c, 0, 84, 76
6, 88315, Note_on_c, 0, 84, 0
6, 88320, Note_on_c, 0, 87, 84
6, 88320, Note_on_c, 0, 75, 84
6, 88671, Note_on_c, 0, 87, 0
6, 88671, Note_on_c, 0, 75, 0
6, 88680, Note_on_c, 0, 80, 84
6, 88680, Note_on_c, 0, 68, 84
6, 88799, Note_on_c, 0, 80, 0
6, 88799, Note_on_c, 0, 68, 0
6, 88799, End_track
7, 0, Start_track
7, 0, Title_t, "Oboe"
7, 0, MIDI_port, 0
7, 0, Program_c, 1, 68
7, 0, Control_c, 1, 7, 80
7, 0, Control_c, 1, 10, 70
7, 0, Control_c, 1, 11, 127
7, 3600, Note_on_c, 1, 75, 52
7, 3711, Note_on_c, 1, 75, 0
7, 3720, Note_on_c, 1, 75, 76
7, 3735, Control_c, 1, 11, 125
7, 3750, Control_c, 1, 11, 123
7, 3765, Control_c, 1, 11, 121
7, 3780, Control_c, 1, 11, 119
7, 3795, Control_c, 1, 11, 117
7, 3810, Control_c, 1, 11, 115
7, 3825, Control_c, 1, 11, 113
7, 3840, Control_c, 1, 11, 111
7, 3855, Control_c, 1, 11, 109
7, 3870, Control_c, 1, 11, 107
7, 3885, Control_c, 1, 11, 105
7, 3900, Control_c, 1, 11, 104
7, 3915, Control_c, 1, 11, 102
7, 3930, Control_c, 1, 11, 100
7, 3945, Control_c, 1, 11, 98
7, 3959, Note_on_c, 1, 75, 0
7, 3960, Note_on_c, 1, 77, 76
7, 3960, Control_c, 1, 11, 96
7, 3975, Control_c, 1, 11, 94
7, 3990, Control_c, 1, 11, 92
7, 4005, Control_c, 1, 11, 90
7, 4019, Note_on_c, 1, 77, 0
7, 4020, Control_c, 1, 11, 88
7, 4020, Note_on_c, 1, 79, 76
7, 4035, Control_c, 1, 11, 86
7, 4050, Control_c, 1, 11, 84
7, 4065, Control_c, 1, 11, 82
7, 4075, Note_on_c, 1, 79, 0
7, 4080, Note_on_c, 1, 80, 76
7, 4080, Control_c, 1, 11, 80
7, 4431, Note_on_c, 1, 80, 0
7, 4440, Note_on_c, 1, 75, 76
7, 4791, Note_on_c, 1, 75, 0
7, 4800, Note_on_c, 1, 75, 76
7, 4911, Note_on_c, 1, 75, 0
7, 4920, Note_on_c, 1, 75, 76
7, 5031, Note_on_c, 1, 75, 0
7, 5040, Note_on_c, 1, 75, 76
7, 5151, Note_on_c, 1, 75, 0
7, 5160, Note_on_c, 1, 75, 76
7, 5279, Note_on_c, 1, 75, 0
7, 6600, Control_c, 1, 11, 96
7, 6840, Note_on_c, 1, 75, 68
7, 6853, Control_c, 1, 11, 99
7, 6867, Control_c, 1, 11, 103
7, 6880, Control_c, 1, 11, 106
7, 6893, Control_c, 1, 11, 110
7, 6907, Control_c, 1, 11, 113
7, 6920, Control_c, 1, 11, 117
7, 6933, Control_c, 1, 11, 120
7, 6947, Control_c, 1, 11, 124
7, 6960, Control_c, 1, 11, 127
7, 6973, Control_c, 1, 11, 124
7, 6987, Control_c, 1, 11, 120
7, 7000, Control_c, 1, 11, 117
7, 7013, Control_c, 1, 11, 113
7, 7027, Control_c, 1, 11, 110
7, 7040, Control_c, 1, 11, 106
7, 7053, Control_c, 1, 11, 103
7, 7067, Control_c, 1, 11, 99
7, 7079, Note_on_c, 1, 75, 0
7, 7080, Control_c, 1, 11, 96
7, 7198, Control_c, 1, 11, 127
7, 7200, Note_on_c, 1, 79, 76
7, 7200, Note_on_c, 1, 70, 76
7, 7319, Note_on_c, 1, 79, 0
7, 7319, Note_on_c, 1, 70, 0
7, 7320, Note_on_c, 1, 72, 76
7, 7320, Note_on_c, 1, 80, 76
7, 7379, Note_on_c, 1, 72, 0
7, 7379, Note_on_c, 1, 80, 0
7, 7440, Note_on_c, 1, 75, 52
7, 7440, Note_on_c, 1, 72, 52
7, 7499, Note_on_c, 1, 75, 0
7, 7499, Note_on_c, 1, 72, 0
7, 7560, Note_on_c, 1, 72, 52
7, 7560, Note_on_c, 1, 75, 52
7, 7619, Note_on_c, 1, 72, 0
7, 7619, Note_on_c, 1, 75, 0
7, 7680, Note_on_c, 1, 72, 52
7, 7680, Note_on_c, 1, 75, 52
7, 7799, Note_on_c, 1, 72, 0
7, 7799, Note_on_c, 1, 75, 0
7, 10080, Note_on_c, 1, 75, 44
7, 10169, Note_on_c, 1, 75, 0
7, 10170, Note_on_c, 1, 77, 44
7, 10195, Note_on_c, 1, 77, 0
7, 10200, Note_on_c, 1, 78, 84
7, 10200, Note_on_c, 1, 75, 84
7, 10551, Note_on_c, 1, 78, 0
7, 10551, Note_on_c, 1, 75, 0
7, 10560, Note_on_c, 1, 76, 84
7, 10560, Note_on_c, 1, 79, 84
7, 10645, Note_on_c, 1, 76, 0
7, 10645, Note_on_c, 1, 79, 0
7, 10650, Note_on_c, 1, 72, 84
7, 10650, Note_on_c, 1, 76, 84
7, 10675, Note_on_c, 1, 72, 0
7, 10675, Note_on_c, 1, 76, 0
7, 10680, Note_on_c, 1, 72, 84
7, 10680, Note_on_c, 1, 67, 84
7, 10769, Note_on_c, 1, 72, 0
7, 10769, Note_on_c, 1, 67, 0
7, 10800, Note_on_c, 1, 74, 84
7, 10800, Note_on_c, 1, 71, 84
7, 10889, Note_on_c, 1, 74, 0
7, 10889, Note_on_c, 1, 71, 0
7, 10920, Note_on_c, 1, 72, 84
7, 10920, Note_on_c, 1, 67, 84
7, 11039, Note_on_c, 1, 72, 0
7, 11039, Note_on_c, 1, 67, 0
7, 11160, Note_on_c, 1, 64, 84
7, 11245, Note_on_c, 1, 64, 0
7, 11250, Note_on_c, 1, 67, 84
7, 11275, Note_on_c, 1, 67, 0
7, 11280, Note_on_c, 1, 72, 84
7, 11280, Note_on_c, 1, 64, 84
7, 11391, Note_on_c, 1, 72, 0
7, 11391, Note_on_c, 1, 64, 0
7, 11400, Note_on_c, 1, 72, 84
7, 11400, Note_on_c, 1, 64, 84
7, 11511, Note_on_c, 1, 72, 0
7, 11511, Note_on_c, 1, 64, 0
7, 11520, Note_on_c, 1, 67, 84
7, 11520, Note_on_c, 1, 74, 84
7, 11631, Note_on_c, 1, 67, 0
7, 11631, Note_on_c, 1, 74, 0
7, 11640, Note_on_c, 1, 72, 84
7, 11640, Note_on_c, 1, 76, 84
7, 11871, Note_on_c, 1, 72, 0
7, 11871, Note_on_c, 1, 76, 0
7, 11880, Note_on_c, 1, 64, 84
7, 11880, Note_on_c, 1, 72, 84
7, 11965, Note_on_c, 1, 64, 0
7, 11965, Note_on_c, 1, 72, 0
7, 11970, Note_on_c, 1, 67, 84
7, 11970, Note_on_c, 1, 74, 84
7, 11995, Note_on_c, 1, 67, 0
7, 11995, Note_on_c, 1, 74, 0
7, 12000, Note_on_c, 1, 76, 84
7, 12000, Note_on_c, 1, 72, 84
7, 12111, Note_on_c, 1, 76, 0
7, 12111, Note_on_c, 1, 72, 0
7, 12120, Note_on_c, 1, 76, 84
7, 12120, Note_on_c, 1, 72, 84
7, 12231, Note_on_c, 1, 76, 0
7, 12231, Note_on_c, 1, 72, 0
7, 12240, Note_on_c, 1, 77, 84
7, 12240, Note_on_c, 1, 74, 84
7, 12351, Note_on_c, 1, 77, 0
7, 12351, Note_on_c, 1, 74, 0
7, 12360, Note_on_c, 1, 79, 92
7, 12360, Note_on_c, 1, 76, 92
7, 12584, Note_on_c, 1, 79, 0
7, 12584, Note_on_c, 1, 76, 0
7, 12600, Note_on_c, 1, 72, 84
7, 12600, Note_on_c, 1, 76, 84
7, 12685, Note_on_c, 1, 72, 0
7, 12685, Note_on_c, 1, 76, 0
7, 12690, Note_on_c, 1, 74, 84
7, 12690, Note_on_c, 1, 77, 84
7, 12715, Note_on_c, 1, 74, 0
7, 12715, Note_on_c, 1, 77, 0
7, 12720, Note_on_c, 1, 79, 92
7, 12720, Note_on_c, 1, 76, 92
7, 12944, Note_on_c, 1, 79, 0
7, 12944, Note_on_c, 1, 76, 0
7, 12960, Note_on_c, 1, 72, 84
7, 12960, Note_on_c, 1, 76, 84
7, 13045, Note_on_c, 1, 72, 0
7, 13045, Note_on_c, 1, 76, 0
7, 13050, Note_on_c, 1, 74, 84
7, 13050, Note_on_c, 1, 77, 84
7, 13075, Note_on_c, 1, 74, 0
7, 13075, Note_on_c, 1, 77, 0
7, 13080, Note_on_c, 1, 79, 92
7, 13080, Note_on_c, 1, 76, 92
7, 13200, Control_c, 1, 11, 112
7, 13213, Control_c, 1, 11, 108
7, 13227, Control_c, 1, 11, 105
7, 13240, Control_c, 1, 11, 101
7, 13253, Control_c, 1, 11, 98
7, 13267, Control_c, 1, 11, 94
7, 13280, Control_c, 1, 11, 91
7, 13293, Control_c, 1, 11, 87
7, 13307, Control_c, 1, 11, 84
7, 13320, Control_c, 1, 11, 80
7, 13333, Control_c, 1, 11, 76
7, 13347, Control_c, 1, 11, 73
7, 13360, Control_c, 1, 11, 69
7, 13373, Control_c, 1, 11, 66
7, 13387, Control_c, 1, 11, 62
7, 13400, Control_c, 1, 11, 59
7, 13413, Control_c, 1, 11, 55
7, 13427, Control_c, 1, 11, 48
7, 13559, Note_on_c, 1, 79, 0
7, 13559, Note_on_c, 1, 76, 0
7, 19560, Control_c, 1, 11, 127
7, 19920, Note_on_c, 1, 67, 76
7, 19920, Note_on_c, 1, 70, 76
7, 20031, Note_on_c, 1, 67, 0
7, 20031, Note_on_c, 1, 70, 0
7, 20040, Note_on_c, 1, 70, 76
7, 20040, Note_on_c, 1, 67, 76
7, 20151, Note_on_c, 1, 70, 0
7, 20151, Note_on_c, 1, 67, 0
7, 20160, Note_on_c, 1, 67, 76
7, 20160, Note_on_c, 1, 70, 76
7, 20271, Note_on_c, 1, 67, 0
7, 20271, Note_on_c, 1, 70, 0
7, 20280, Note_on_c, 1, 68, 52
7, 20280, Note_on_c, 1, 72, 52
7, 20519, Note_on_c, 1, 68, 0
7, 20519, Note_on_c, 1, 72, 0
7, 21180, Note_on_c, 1, 75, 64
7, 21235, Note_on_c, 1, 75, 0
7, 21240, Note_on_c, 1, 75, 68
7, 21295, Note_on_c, 1, 75, 0
7, 21300, Note_on_c, 1, 75, 72
7, 21355, Note_on_c, 1, 75, 0
7, 21360, Note_on_c, 1, 75, 76
7, 21360, Control_c, 1, 11, 127
7, 21375, Control_c, 1, 11, 125
7, 21390, Control_c, 1, 11, 123
7, 21405, Control_c, 1, 11, 121
7, 21420, Control_c, 1, 11, 119
7, 21435, Control_c, 1, 11, 117
7, 21450, Control_c, 1, 11, 115
7, 21465, Control_c, 1, 11, 113
7, 21480, Control_c, 1, 11, 111
7, 21495, Control_c, 1, 11, 109
7, 21510, Control_c, 1, 11, 107
7, 21525, Control_c, 1, 11, 105
7, 21540, Control_c, 1, 11, 104
7, 21555, Control_c, 1, 11, 102
7, 21570, Control_c, 1, 11, 100
7, 21585, Control_c, 1, 11, 98
7, 21599, Note_on_c, 1, 75, 0
7, 21600, Control_c, 1, 11, 96
7, 21600, Note_on_c, 1, 77, 76
7, 21615, Control_c, 1, 11, 94
7, 21630, Control_c, 1, 11, 92
7, 21645, Control_c, 1, 11, 90
7, 21659, Note_on_c, 1, 77, 0
7, 21660, Control_c, 1, 11, 88
7, 21660, Note_on_c, 1, 79, 76
7, 21675, Control_c, 1, 11, 86
7, 21690, Control_c, 1, 11, 84
7, 21705, Control_c, 1, 11, 80
7, 21715, Note_on_c, 1, 79, 0
7, 21720, Note_on_c, 1, 80, 76
7, 22071, Note_on_c, 1, 80, 0
7, 22080, Note_on_c, 1, 75, 76
7, 22431, Note_on_c, 1, 75, 0
7, 22440, Note_on_c, 1, 75, 76
7, 22551, Note_on_c, 1, 75, 0
7, 22560, Note_on_c, 1, 75, 76
7, 22671, Note_on_c, 1, 75, 0
7, 22680, Note_on_c, 1, 75, 76
7, 22791, Note_on_c, 1, 75, 0
7, 22800, Note_on_c, 1, 75, 76
7, 22919, Note_on_c, 1, 75, 0
7, 24240, Control_c, 1, 11, 96
7, 24480, Note_on_c, 1, 75, 68
7, 24493, Control_c, 1, 11, 99
7, 24507, Control_c, 1, 11, 103
7, 24520, Control_c, 1, 11, 106
7, 24533, Control_c, 1, 11, 110
7, 24547, Control_c, 1, 11, 113
7, 24560, Control_c, 1, 11, 117
7, 24573, Control_c, 1, 11, 120
7, 24587, Control_c, 1, 11, 127
7, 24600, Control_c, 1, 11, 127
7, 24613, Control_c, 1, 11, 124
7, 24627, Control_c, 1, 11, 120
7, 24640, Control_c, 1, 11, 117
7, 24653, Control_c, 1, 11, 113
7, 24667, Control_c, 1, 11, 110
7, 24680, Control_c, 1, 11, 106
7, 24693, Control_c, 1, 11, 103
7, 24707, Control_c, 1, 11, 96
7, 24719, Note_on_c, 1, 75, 0
7, 24838, Control_c, 1, 11, 127
7, 24840, Note_on_c, 1, 79, 76
7, 24840, Note_on_c, 1, 70, 76
7, 24959, Note_on_c, 1, 79, 0
7, 24959, Note_on_c, 1, 70, 0
7, 24960, Note_on_c, 1, 72, 76
7, 24960, Note_on_c, 1, 80, 76
7, 25019, Note_on_c, 1, 72, 0
7, 25019, Note_on_c, 1, 80, 0
7, 25080, Note_on_c, 1, 75, 52
7, 25080, Note_on_c, 1, 72, 52
7, 25139, Note_on_c, 1, 75, 0
7, 25139, Note_on_c, 1, 72, 0
7, 25200, Note_on_c, 1, 75, 52
7, 25200, Note_on_c, 1, 72, 52
7, 25259, Note_on_c, 1, 75, 0
7, 25259, Note_on_c, 1, 72, 0
7, 25320, Note_on_c, 1, 72, 52
7, 25320, Note_on_c, 1, 75, 52
7, 25439, Note_on_c, 1, 72, 0
7, 25439, Note_on_c, 1, 75, 0
7, 27720, Note_on_c, 1, 75, 44
7, 27809, Note_on_c, 1, 75, 0
7, 27810, Note_on_c, 1, 77, 44
7, 27835, Note_on_c, 1, 77, 0
7, 27840, Note_on_c, 1, 78, 84
7, 27840, Note_on_c, 1, 75, 84
7, 28191, Note_on_c, 1, 78, 0
7, 28191, Note_on_c, 1, 75, 0
7, 28200, Note_on_c, 1, 79, 84
7, 28200, Note_on_c, 1, 76, 84
7, 28285, Note_on_c, 1, 79, 0
7, 28285, Note_on_c, 1, 76, 0
7, 28290, Note_on_c, 1, 72, 84
7, 28290, Note_on_c, 1, 76, 84
7, 28315, Note_on_c, 1, 72, 0
7, 28315, Note_on_c, 1, 76, 0
7, 28320, Note_on_c, 1, 67, 84
7, 28320, Note_on_c, 1, 72, 84
7, 28409, Note_on_c, 1, 67, 0
7, 28409, Note_on_c, 1, 72, 0
7, 28440, Note_on_c, 1, 71, 84
7, 28440, Note_on_c, 1, 74, 84
7, 28529, Note_on_c, 1, 71, 0
7, 28529, Note_on_c, 1, 74, 0
7, 28560, Note_on_c, 1, 72, 84
7, 28560, Note_on_c, 1, 67, 84
7, 28679, Note_on_c, 1, 72, 0
7, 28679, Note_on_c, 1, 67, 0
7, 28800, Note_on_c, 1, 64, 84
7, 28885, Note_on_c, 1, 64, 0
7, 28890, Note_on_c, 1, 67, 84
7, 28915, Note_on_c, 1, 67, 0
7, 28920, Note_on_c, 1, 64, 84
7, 28920, Note_on_c, 1, 72, 84
7, 29031, Note_on_c, 1, 64, 0
7, 29031, Note_on_c, 1, 72, 0
7, 29040, Note_on_c, 1, 64, 84
7, 29040, Note_on_c, 1, 72, 84
7, 29151, Note_on_c, 1, 64, 0
7, 29151, Note_on_c, 1, 72, 0
7, 29160, Note_on_c, 1, 74, 84
7, 29160, Note_on_c, 1, 67, 84
7, 29271, Note_on_c, 1, 74, 0
7, 29271, Note_on_c, 1, 67, 0
7, 29280, Note_on_c, 1, 76, 84
7, 29280, Note_on_c, 1, 72, 84
7, 29511, Note_on_c, 1, 76, 0
7, 29511, Note_on_c, 1, 72, 0
7, 29520, Note_on_c, 1, 64, 84
7, 29520, Note_on_c, 1, 72, 84
7, 29605, Note_on_c, 1, 64, 0
7, 29605, Note_on_c, 1, 72, 0
7, 29610, Note_on_c, 1, 74, 84
7, 29610, Note_on_c, 1, 67, 84
7, 29635, Note_on_c, 1, 74, 0
7, 29635, Note_on_c, 1, 67, 0
7, 29640, Note_on_c, 1, 72, 84
7, 29640, Note_on_c, 1, 76, 84
7, 29751, Note_on_c, 1, 72, 0
7, 29751, Note_on_c, 1, 76, 0
7, 29760, Note_on_c, 1, 76, 84
7, 29760, Note_on_c, 1, 72, 84
7, 29871, Note_on_c, 1, 76, 0
7, 29871, Note_on_c, 1, 72, 0
7, 29880, Note_on_c, 1, 74, 84
7, 29880, Note_on_c, 1, 77, 84
7, 29991, Note_on_c, 1, 74, 0
7, 29991, Note_on_c, 1, 77, 0
7, 30000, Note_on_c, 1, 79, 92
7, 30000, Note_on_c, 1, 76, 92
7, 30224, Note_on_c, 1, 79, 0
7, 30224, Note_on_c, 1, 76, 0
7, 30240, Note_on_c, 1, 76, 84
7, 30240, Note_on_c, 1, 72, 84
7, 30325, Note_on_c, 1, 76, 0
7, 30325, Note_on_c, 1, 72, 0
7, 30330, Note_on_c, 1, 77, 84
7, 30330, Note_on_c, 1, 74, 84
7, 30355, Note_on_c, 1, 77, 0
7, 30355, Note_on_c, 1, 74, 0
7, 30360, Note_on_c, 1, 76, 92
7, 30360, Note_on_c, 1, 79, 92
7, 30584, Note_on_c, 1, 76, 0
7, 30584, Note_on_c, 1, 79, 0
7, 30600, Note_on_c, 1, 76, 84
7, 30600, Note_on_c, 1, 72, 84
7, 30685, Note_on_c, 1, 76, 0
7, 30685, Note_on_c, 1, 72, 0
7, 30690, Note_on_c, 1, 77, 84
7, 30690, Note_on_c, 1, 74, 84
7, 30715, Note_on_c, 1, 77, 0
7, 30715, Note_on_c, 1, 74, 0
7, 30720, Note_on_c, 1, 79, 76
7, 30720, Control_c, 1, 11, 127
7, 30720, Note_on_c, 1, 76, 76
7, 30735, Control_c, 1, 11, 125
7, 30750, Control_c, 1, 11, 123
7, 30765, Control_c, 1, 11, 121
7, 30780, Control_c, 1, 11, 119
7, 30795, Control_c, 1, 11, 117
7, 30810, Control_c, 1, 11, 115
7, 30825, Control_c, 1, 11, 113
7, 30840, Control_c, 1, 11, 111
7, 30855, Control_c, 1, 11, 109
7, 30870, Control_c, 1, 11, 107
7, 30885, Control_c, 1, 11, 105
7, 30900, Control_c, 1, 11, 104
7, 30915, Control_c, 1, 11, 102
7, 30930, Control_c, 1, 11, 100
7, 30945, Control_c, 1, 11, 98
7, 30960, Control_c, 1, 11, 96
7, 30975, Control_c, 1, 11, 94
7, 30990, Control_c, 1, 11, 92
7, 31005, Control_c, 1, 11, 90
7, 31020, Control_c, 1, 11, 88
7, 31035, Control_c, 1, 11, 86
7, 31050, Control_c, 1, 11, 84
7, 31065, Control_c, 1, 11, 80
7, 31199, Note_on_c, 1, 79, 0
7, 31199, Note_on_c, 1, 76, 0
7, 34680, Control_c, 1, 11, 127
7, 34980, Note_on_c, 1, 75, 84
7, 35024, Note_on_c, 1, 75, 0
7, 35040, Control_c, 1, 11, 127
7, 35040, Note_on_c, 1, 75, 76
7, 35053, Control_c, 1, 11, 124
7, 35067, Control_c, 1, 11, 122
7, 35080, Control_c, 1, 11, 119
7, 35093, Control_c, 1, 11, 117
7, 35107, Control_c, 1, 11, 114
7, 35120, Control_c, 1, 11, 111
7, 35133, Control_c, 1, 11, 109
7, 35147, Control_c, 1, 11, 106
7, 35160, Control_c, 1, 11, 104
7, 35173, Control_c, 1, 11, 101
7, 35187, Control_c, 1, 11, 98
7, 35200, Control_c, 1, 11, 96
7, 35213, Control_c, 1, 11, 93
7, 35227, Control_c, 1, 11, 90
7, 35240, Control_c, 1, 11, 88
7, 35253, Control_c, 1, 11, 85
7, 35267, Control_c, 1, 11, 80
7, 35759, Note_on_c, 1, 75, 0
7, 35760, Note_on_c, 1, 75, 76
7, 36479, Note_on_c, 1, 75, 0
7, 36480, Note_on_c, 1, 76, 76
7, 36831, Note_on_c, 1, 76, 0
7, 36840, Note_on_c, 1, 77, 76
7, 37311, Note_on_c, 1, 77, 0
7, 37320, Note_on_c, 1, 75, 76
7, 37559, Note_on_c, 1, 75, 0
7, 37560, Note_on_c, 1, 75, 68
7, 37911, Note_on_c, 1, 75, 0
7, 37920, Note_on_c, 1, 72, 68
7, 38039, Note_on_c, 1, 72, 0
7, 40860, Note_on_c, 1, 72, 76
7, 40860, Note_on_c, 1, 75, 76
7, 40915, Note_on_c, 1, 72, 0
7, 40915, Note_on_c, 1, 75, 0
7, 40920, Note_on_c, 1, 75, 76
7, 40920, Note_on_c, 1, 72, 76
7, 40975, Note_on_c, 1, 75, 0
7, 40975, Note_on_c, 1, 72, 0
7, 40980, Note_on_c, 1, 72, 76
7, 40980, Note_on_c, 1, 75, 76
7, 41035, Note_on_c, 1, 72, 0
7, 41035, Note_on_c, 1, 75, 0
7, 41040, Note_on_c, 1, 75, 76
7, 41040, Note_on_c, 1, 72, 76
7, 41095, Note_on_c, 1, 75, 0
7, 41095, Note_on_c, 1, 72, 0
7, 41100, Note_on_c, 1, 75, 76
7, 41100, Note_on_c, 1, 72, 76
7, 41155, Note_on_c, 1, 75, 0
7, 41155, Note_on_c, 1, 72, 0
7, 41160, Note_on_c, 1, 75, 76
7, 41160, Note_on_c, 1, 72, 76
7, 41215, Note_on_c, 1, 75, 0
7, 41215, Note_on_c, 1, 72, 0
7, 41220, Note_on_c, 1, 75, 76
7, 41220, Note_on_c, 1, 72, 76
7, 41275, Note_on_c, 1, 75, 0
7, 41275, Note_on_c, 1, 72, 0
7, 41280, Note_on_c, 1, 72, 76
7, 41280, Note_on_c, 1, 75, 76
7, 41335, Note_on_c, 1, 72, 0
7, 41335, Note_on_c, 1, 75, 0
7, 41340, Note_on_c, 1, 72, 76
7, 41340, Note_on_c, 1, 75, 76
7, 41395, Note_on_c, 1, 72, 0
7, 41395, Note_on_c, 1, 75, 0
7, 41400, Note_on_c, 1, 72, 76
7, 41400, Note_on_c, 1, 75, 76
7, 41455, Note_on_c, 1, 72, 0
7, 41455, Note_on_c, 1, 75, 0
7, 41460, Note_on_c, 1, 72, 76
7, 41460, Note_on_c, 1, 75, 76
7, 41515, Note_on_c, 1, 72, 0
7, 41515, Note_on_c, 1, 75, 0
7, 41520, Note_on_c, 1, 77, 76
7, 41520, Note_on_c, 1, 75, 76
7, 41575, Note_on_c, 1, 77, 0
7, 41575, Note_on_c, 1, 75, 0
7, 41580, Note_on_c, 1, 75, 76
7, 41580, Note_on_c, 1, 77, 76
7, 41635, Note_on_c, 1, 75, 0
7, 41635, Note_on_c, 1, 77, 0
7, 41640, Note_on_c, 1, 77, 76
7, 41640, Note_on_c, 1, 73, 76
7, 41695, Note_on_c, 1, 77, 0
7, 41695, Note_on_c, 1, 73, 0
7, 41700, Note_on_c, 1, 73, 76
7, 41700, Note_on_c, 1, 77, 76
7, 41755, Note_on_c, 1, 73, 0
7, 41755, Note_on_c, 1, 77, 0
7, 41760, Note_on_c, 1, 77, 76
7, 41760, Note_on_c, 1, 73, 76
7, 41815, Note_on_c, 1, 77, 0
7, 41815, Note_on_c, 1, 73, 0
7, 41820, Note_on_c, 1, 73, 76
7, 41820, Note_on_c, 1, 77, 76
7, 41875, Note_on_c, 1, 73, 0
7, 41875, Note_on_c, 1, 77, 0
7, 41880, Note_on_c, 1, 77, 76
7, 41880, Note_on_c, 1, 73, 76
7, 41935, Note_on_c, 1, 77, 0
7, 41935, Note_on_c, 1, 73, 0
7, 41940, Note_on_c, 1, 73, 76
7, 41940, Note_on_c, 1, 77, 76
7, 41995, Note_on_c, 1, 73, 0
7, 41995, Note_on_c, 1, 77, 0
7, 42000, Note_on_c, 1, 73, 76
7, 42000, Note_on_c, 1, 77, 76
7, 42055, Note_on_c, 1, 73, 0
7, 42055, Note_on_c, 1, 77, 0
7, 42060, Note_on_c, 1, 73, 76
7, 42060, Note_on_c, 1, 77, 76
7, 42115, Note_on_c, 1, 73, 0
7, 42115, Note_on_c, 1, 77, 0
7, 42120, Note_on_c, 1, 79, 76
7, 42120, Note_on_c, 1, 74, 76
7, 42175, Note_on_c, 1, 79, 0
7, 42175, Note_on_c, 1, 74, 0
7, 42180, Note_on_c, 1, 79, 76
7, 42180, Note_on_c, 1, 74, 76
7, 42235, Note_on_c, 1, 79, 0
7, 42235, Note_on_c, 1, 74, 0
7, 42240, Note_on_c, 1, 79, 76
7, 42240, Note_on_c, 1, 76, 76
7, 42295, Note_on_c, 1, 79, 0
7, 42295, Note_on_c, 1, 76, 0
7, 42300, Note_on_c, 1, 79, 76
7, 42300, Note_on_c, 1, 76, 76
7, 42355, Note_on_c, 1, 79, 0
7, 42355, Note_on_c, 1, 76, 0
7, 42360, Note_on_c, 1, 79, 76
7, 42360, Note_on_c, 1, 76, 76
7, 42415, Note_on_c, 1, 79, 0
7, 42415, Note_on_c, 1, 76, 0
7, 42420, Note_on_c, 1, 79, 76
7, 42420, Note_on_c, 1, 76, 76
7, 42475, Note_on_c, 1, 79, 0
7, 42475, Note_on_c, 1, 76, 0
7, 42480, Note_on_c, 1, 76, 76
7, 42480, Note_on_c, 1, 79, 76
7, 42535, Note_on_c, 1, 76, 0
7, 42535, Note_on_c, 1, 79, 0
7, 42540, Note_on_c, 1, 79, 76
7, 42540, Note_on_c, 1, 76, 76
7, 42595, Note_on_c, 1, 79, 0
7, 42595, Note_on_c, 1, 76, 0
7, 42600, Note_on_c, 1, 75, 76
7, 42600, Note_on_c, 1, 77, 76
7, 42655, Note_on_c, 1, 75, 0
7, 42655, Note_on_c, 1, 77, 0
7, 42660, Note_on_c, 1, 84, 76
7, 42660, Note_on_c, 1, 75, 76
7, 42715, Note_on_c, 1, 84, 0
7, 42715, Note_on_c, 1, 75, 0
7, 42720, Note_on_c, 1, 73, 76
7, 42720, Note_on_c, 1, 84, 76
7, 42775, Note_on_c, 1, 73, 0
7, 42775, Note_on_c, 1, 84, 0
7, 42780, Note_on_c, 1, 73, 76
7, 42780, Note_on_c, 1, 84, 76
7, 42835, Note_on_c, 1, 73, 0
7, 42835, Note_on_c, 1, 84, 0
7, 42840, Note_on_c, 1, 73, 76
7, 42840, Note_on_c, 1, 82, 76
7, 42895, Note_on_c, 1, 73, 0
7, 42895, Note_on_c, 1, 82, 0
7, 42900, Note_on_c, 1, 82, 76
7, 42900, Note_on_c, 1, 73, 76
7, 42955, Note_on_c, 1, 82, 0
7, 42955, Note_on_c, 1, 73, 0
7, 42960, Note_on_c, 1, 73, 76
7, 42960, Note_on_c, 1, 82, 76
7, 43015, Note_on_c, 1, 73, 0
7, 43015, Note_on_c, 1, 82, 0
7, 43020, Note_on_c, 1, 73, 76
7, 43020, Note_on_c, 1, 82, 76
7, 43075, Note_on_c, 1, 73, 0
7, 43075, Note_on_c, 1, 82, 0
7, 43080, Note_on_c, 1, 72, 76
7, 43080, Note_on_c, 1, 82, 76
7, 43135, Note_on_c, 1, 72, 0
7, 43135, Note_on_c, 1, 82, 0
7, 43140, Note_on_c, 1, 72, 76
7, 43140, Note_on_c, 1, 82, 76
7, 43195, Note_on_c, 1, 72, 0
7, 43195, Note_on_c, 1, 82, 0
7, 43200, Note_on_c, 1, 72, 76
7, 43200, Note_on_c, 1, 80, 76
7, 43255, Note_on_c, 1, 72, 0
7, 43255, Note_on_c, 1, 80, 0
7, 43260, Note_on_c, 1, 80, 76
7, 43260, Note_on_c, 1, 72, 76
7, 43315, Note_on_c, 1, 80, 0
7, 43315, Note_on_c, 1, 72, 0
7, 43320, Note_on_c, 1, 79, 76
7, 43320, Note_on_c, 1, 75, 76
7, 43671, Note_on_c, 1, 79, 0
7, 43671, Note_on_c, 1, 75, 0
7, 43680, Note_on_c, 1, 63, 76
7, 43859, Note_on_c, 1, 63, 0
7, 43860, Note_on_c, 1, 65, 76
7, 43889, Note_on_c, 1, 65, 0
7, 43890, Note_on_c, 1, 67, 76
7, 43919, Note_on_c, 1, 67, 0
7, 43920, Note_on_c, 1, 68, 76
7, 43949, Note_on_c, 1, 68, 0
7, 43950, Note_on_c, 1, 70, 76
7, 43979, Note_on_c, 1, 70, 0
7, 43980, Note_on_c, 1, 72, 76
7, 44009, Note_on_c, 1, 72, 0
7, 44010, Note_on_c, 1, 74, 76
7, 44035, Note_on_c, 1, 74, 0
7, 44040, Note_on_c, 1, 75, 76
7, 44279, Note_on_c, 1, 75, 0
7, 47520, Note_on_c, 1, 68, 48
7, 47579, Note_on_c, 1, 68, 0
7, 47580, Note_on_c, 1, 74, 48
7, 47639, Note_on_c, 1, 74, 0
7, 47640, Note_on_c, 1, 77, 48
7, 47729, Note_on_c, 1, 77, 0
7, 47760, Note_on_c, 1, 77, 48
7, 47819, Note_on_c, 1, 77, 0
7, 47820, Note_on_c, 1, 75, 48
7, 47879, Note_on_c, 1, 75, 0
7, 47880, Note_on_c, 1, 74, 48
7, 47939, Note_on_c, 1, 74, 0
7, 47940, Note_on_c, 1, 77, 48
7, 47999, Note_on_c, 1, 77, 0
7, 48000, Note_on_c, 1, 80, 48
7, 48111, Note_on_c, 1, 80, 0
7, 48120, Note_on_c, 1, 80, 48
7, 48179, Note_on_c, 1, 80, 0
7, 48180, Note_on_c, 1, 79, 48
7, 48239, Note_on_c, 1, 79, 0
7, 48240, Note_on_c, 1, 77, 48
7, 48299, Note_on_c, 1, 77, 0
7, 48300, Note_on_c, 1, 75, 48
7, 48359, Note_on_c, 1, 75, 0
7, 48360, Note_on_c, 1, 74, 48
7, 48471, Note_on_c, 1, 74, 0
7, 48480, Note_on_c, 1, 74, 48
7, 48539, Note_on_c, 1, 74, 0
7, 48540, Note_on_c, 1, 75, 48
7, 48599, Note_on_c, 1, 75, 0
7, 48600, Note_on_c, 1, 77, 48
7, 48659, Note_on_c, 1, 77, 0
7, 48660, Note_on_c, 1, 79, 48
7, 48715, Note_on_c, 1, 79, 0
7, 48720, Note_on_c, 1, 80, 48
7, 48779, Note_on_c, 1, 80, 0
7, 48780, Note_on_c, 1, 79, 50
7, 48839, Note_on_c, 1, 79, 0
7, 48840, Note_on_c, 1, 77, 52
7, 48899, Note_on_c, 1, 77, 0
7, 48900, Note_on_c, 1, 75, 54
7, 48959, Note_on_c, 1, 75, 0
7, 48960, Note_on_c, 1, 74, 56
7, 49019, Note_on_c, 1, 74, 0
7, 49020, Note_on_c, 1, 75, 59
7, 49079, Note_on_c, 1, 75, 0
7, 49080, Note_on_c, 1, 77, 61
7, 49139, Note_on_c, 1, 77, 0
7, 49140, Note_on_c, 1, 79, 63
7, 49199, Note_on_c, 1, 79, 0
7, 49200, Note_on_c, 1, 80, 65
7, 49255, Note_on_c, 1, 80, 0
7, 49260, Note_on_c, 1, 80, 68
7, 49319, Note_on_c, 1, 80, 0
7, 49320, Note_on_c, 1, 79, 63
7, 49379, Note_on_c, 1, 79, 0
7, 49380, Note_on_c, 1, 77, 58
7, 49439, Note_on_c, 1, 77, 0
7, 49440, Note_on_c, 1, 75, 52
7, 49855, Note_on_c, 1, 75, 0
7, 49860, Note_on_c, 1, 77, 52
7, 49919, Note_on_c, 1, 77, 0
7, 49920, Note_on_c, 1, 79, 52
7, 49979, Note_on_c, 1, 79, 0
7, 49980, Note_on_c, 1, 80, 52
7, 50039, Note_on_c, 1, 80, 0
7, 50040, Note_on_c, 1, 82, 52
7, 50099, Note_on_c, 1, 82, 0
7, 50100, Note_on_c, 1, 84, 52
7, 50159, Note_on_c, 1, 84, 0
7, 50160, Note_on_c, 1, 85, 52
7, 50271, Note_on_c, 1, 85, 0
7, 50280, Note_on_c, 1, 85, 54
7, 50339, Note_on_c, 1, 85, 0
7, 50340, Note_on_c, 1, 84, 56
7, 50399, Note_on_c, 1, 84, 0
7, 50400, Note_on_c, 1, 82, 57
7, 50459, Note_on_c, 1, 82, 0
7, 50460, Note_on_c, 1, 80, 58
7, 50519, Note_on_c, 1, 80, 0
7, 50520, Note_on_c, 1, 79, 60
7, 50579, Note_on_c, 1, 79, 0
7, 50580, Note_on_c, 1, 80, 61
7, 50639, Note_on_c, 1, 80, 0
7, 50640, Note_on_c, 1, 82, 62
7, 50699, Note_on_c, 1, 82, 0
7, 50700, Note_on_c, 1, 84, 64
7, 50759, Note_on_c, 1, 84, 0
7, 50760, Note_on_c, 1, 85, 65
7, 50819, Note_on_c, 1, 85, 0
7, 50820, Note_on_c, 1, 84, 66
7, 50879, Note_on_c, 1, 84, 0
7, 50880, Note_on_c, 1, 82, 68
7, 50939, Note_on_c, 1, 82, 0
7, 50940, Note_on_c, 1, 80, 66
7, 50999, Note_on_c, 1, 80, 0
7, 51000, Note_on_c, 1, 79, 63
7, 51055, Note_on_c, 1, 79, 0
7, 51060, Note_on_c, 1, 85, 60
7, 51104, Note_on_c, 1, 85, 0
7, 51120, Note_on_c, 1, 84, 58
7, 51164, Note_on_c, 1, 84, 0
7, 51180, Note_on_c, 1, 82, 55
7, 51224, Note_on_c, 1, 82, 0
7, 51240, Note_on_c, 1, 80, 52
7, 51284, Note_on_c, 1, 80, 0
7, 51300, Note_on_c, 1, 84, 52
7, 51344, Note_on_c, 1, 84, 0
7, 51360, Note_on_c, 1, 82, 52
7, 51404, Note_on_c, 1, 82, 0
7, 51420, Note_on_c, 1, 80, 52
7, 51464, Note_on_c, 1, 80, 0
7, 51480, Note_on_c, 1, 79, 52
7, 51524, Note_on_c, 1, 79, 0
7, 51780, Note_on_c, 1, 80, 52
7, 51824, Note_on_c, 1, 80, 0
7, 51840, Note_on_c, 1, 79, 52
7, 51884, Note_on_c, 1, 79, 0
7, 51900, Note_on_c, 1, 77, 52
7, 51944, Note_on_c, 1, 77, 0
7, 51960, Note_on_c, 1, 77, 52
7, 52015, Note_on_c, 1, 77, 0
7, 52020, Note_on_c, 1, 77, 54
7, 52075, Note_on_c, 1, 77, 0
7, 52080, Note_on_c, 1, 77, 56
7, 52135, Note_on_c, 1, 77, 0
7, 52140, Note_on_c, 1, 77, 58
7, 52195, Note_on_c, 1, 77, 0
7, 52200, Note_on_c, 1, 77, 60
7, 52255, Note_on_c, 1, 77, 0
7, 52260, Note_on_c, 1, 77, 62
7, 52315, Note_on_c, 1, 77, 0
7, 52320, Note_on_c, 1, 77, 64
7, 52375, Note_on_c, 1, 77, 0
7, 52380, Note_on_c, 1, 77, 66
7, 52435, Note_on_c, 1, 77, 0
7, 52440, Note_on_c, 1, 77, 68
7, 52495, Note_on_c, 1, 77, 0
7, 52500, Note_on_c, 1, 77, 70
7, 52559, Note_on_c, 1, 77, 0
7, 52920, Note_on_c, 1, 64, 84
7, 53005, Note_on_c, 1, 64, 0
7, 53010, Note_on_c, 1, 67, 84
7, 53035, Note_on_c, 1, 67, 0
7, 53040, Note_on_c, 1, 72, 84
7, 53040, Note_on_c, 1, 64, 84
7, 53151, Note_on_c, 1, 72, 0
7, 53151, Note_on_c, 1, 64, 0
7, 53160, Note_on_c, 1, 72, 84
7, 53160, Note_on_c, 1, 64, 84
7, 53271, Note_on_c, 1, 72, 0
7, 53271, Note_on_c, 1, 64, 0
7, 53280, Note_on_c, 1, 71, 84
7, 53280, Note_on_c, 1, 74, 84
7, 53391, Note_on_c, 1, 71, 0
7, 53391, Note_on_c, 1, 74, 0
7, 53400, Note_on_c, 1, 72, 84
7, 53400, Note_on_c, 1, 76, 84
7, 53991, Note_on_c, 1, 72, 0
7, 53991, Note_on_c, 1, 76, 0
7, 54000, Note_on_c, 1, 64, 84
7, 54000, Note_on_c, 1, 72, 84
7, 54085, Note_on_c, 1, 64, 0
7, 54085, Note_on_c, 1, 72, 0
7, 54090, Note_on_c, 1, 71, 84
7, 54090, Note_on_c, 1, 74, 84
7, 54115, Note_on_c, 1, 71, 0
7, 54115, Note_on_c, 1, 74, 0
7, 54120, Note_on_c, 1, 76, 84
7, 54120, Note_on_c, 1, 72, 84
7, 54231, Note_on_c, 1, 76, 0
7, 54231, Note_on_c, 1, 72, 0
7, 54240, Note_on_c, 1, 76, 84
7, 54240, Note_on_c, 1, 72, 84
7, 54351, Note_on_c, 1, 76, 0
7, 54351, Note_on_c, 1, 72, 0
7, 54360, Note_on_c, 1, 74, 84
7, 54360, Note_on_c, 1, 77, 84
7, 54471, Note_on_c, 1, 74, 0
7, 54471, Note_on_c, 1, 77, 0
7, 54480, Note_on_c, 1, 76, 84
7, 54480, Note_on_c, 1, 79, 84
7, 55071, Note_on_c, 1, 76, 0
7, 55071, Note_on_c, 1, 79, 0
7, 55080, Note_on_c, 1, 76, 84
7, 55080, Note_on_c, 1, 72, 84
7, 55165, Note_on_c, 1, 76, 0
7, 55165, Note_on_c, 1, 72, 0
7, 55170, Note_on_c, 1, 77, 84
7, 55170, Note_on_c, 1, 74, 84
7, 55195, Note_on_c, 1, 77, 0
7, 55195, Note_on_c, 1, 74, 0
7, 55200, Note_on_c, 1, 76, 84
7, 55200, Note_on_c, 1, 79, 84
7, 55431, Note_on_c, 1, 76, 0
7, 55431, Note_on_c, 1, 79, 0
7, 55440, Note_on_c, 1, 76, 84
7, 55440, Note_on_c, 1, 72, 84
7, 55525, Note_on_c, 1, 76, 0
7, 55525, Note_on_c, 1, 72, 0
7, 55530, Note_on_c, 1, 77, 84
7, 55530, Note_on_c, 1, 74, 84
7, 55555, Note_on_c, 1, 77, 0
7, 55555, Note_on_c, 1, 74, 0
7, 55560, Note_on_c, 1, 76, 84
7, 55560, Note_on_c, 1, 79, 84
7, 55791, Note_on_c, 1, 76, 0
7, 55791, Note_on_c, 1, 79, 0
7, 55800, Note_on_c, 1, 76, 84
7, 55800, Note_on_c, 1, 72, 84
7, 55885, Note_on_c, 1, 76, 0
7, 55885, Note_on_c, 1, 72, 0
7, 55890, Note_on_c, 1, 77, 84
7, 55890, Note_on_c, 1, 74, 84
7, 55915, Note_on_c, 1, 77, 0
7, 55915, Note_on_c, 1, 74, 0
7, 55920, Note_on_c, 1, 76, 84
7, 55920, Note_on_c, 1, 79, 84
7, 55920, Control_c, 1, 11, 127
7, 55935, Control_c, 1, 11, 126
7, 55950, Control_c, 1, 11, 124
7, 55965, Control_c, 1, 11, 123
7, 55980, Control_c, 1, 11, 122
7, 55995, Control_c, 1, 11, 120
7, 56010, Control_c, 1, 11, 119
7, 56025, Control_c, 1, 11, 118
7, 56040, Control_c, 1, 11, 117
7, 56055, Control_c, 1, 11, 115
7, 56070, Control_c, 1, 11, 114
7, 56085, Control_c, 1, 11, 113
7, 56100, Control_c, 1, 11, 111
7, 56115, Control_c, 1, 11, 110
7, 56130, Control_c, 1, 11, 109
7, 56145, Control_c, 1, 11, 107
7, 56160, Control_c, 1, 11, 106
7, 56175, Control_c, 1, 11, 105
7, 56190, Control_c, 1, 11, 103
7, 56205, Control_c, 1, 11, 102
7, 56220, Control_c, 1, 11, 101
7, 56235, Control_c, 1, 11, 99
7, 56250, Control_c, 1, 11, 98
7, 56265, Control_c, 1, 11, 97
7, 56280, Control_c, 1, 11, 96
7, 56295, Control_c, 1, 11, 94
7, 56310, Control_c, 1, 11, 93
7, 56325, Control_c, 1, 11, 92
7, 56340, Control_c, 1, 11, 90
7, 56355, Control_c, 1, 11, 89
7, 56370, Control_c, 1, 11, 88
7, 56385, Control_c, 1, 11, 86
7, 56400, Control_c, 1, 11, 85
7, 56415, Control_c, 1, 11, 84
7, 56430, Control_c, 1, 11, 82
7, 56445, Control_c, 1, 11, 81
7, 56460, Control_c, 1, 11, 80
7, 56475, Control_c, 1, 11, 78
7, 56490, Control_c, 1, 11, 77
7, 56505, Control_c, 1, 11, 76
7, 56520, Control_c, 1, 11, 75
7, 56535, Control_c, 1, 11, 73
7, 56550, Control_c, 1, 11, 72
7, 56565, Control_c, 1, 11, 71
7, 56580, Control_c, 1, 11, 69
7, 56595, Control_c, 1, 11, 68
7, 56610, Control_c, 1, 11, 67
7, 56625, Control_c, 1, 11, 64
7, 56759, Note_on_c, 1, 76, 0
7, 56759, Note_on_c, 1, 79, 0
7, 59880, Control_c, 1, 11, 127
7, 60000, Note_on_c, 1, 75, 52
7, 60059, Note_on_c, 1, 75, 0
7, 60360, Note_on_c, 1, 75, 52
7, 60419, Note_on_c, 1, 75, 0
7, 60720, Note_on_c, 1, 75, 52
7, 60779, Note_on_c, 1, 75, 0
7, 61080, Note_on_c, 1, 78, 52
7, 61139, Note_on_c, 1, 78, 0
7, 61440, Note_on_c, 1, 78, 52
7, 61499, Note_on_c, 1, 78, 0
7, 61800, Note_on_c, 1, 78, 52
7, 61859, Note_on_c, 1, 78, 0
7, 62160, Note_on_c, 1, 75, 52
7, 62219, Note_on_c, 1, 75, 0
7, 62520, Note_on_c, 1, 75, 52
7, 62579, Note_on_c, 1, 75, 0
7, 62880, Note_on_c, 1, 75, 52
7, 62999, Note_on_c, 1, 75, 0
7, 63060, Note_on_c, 1, 75, 52
7, 63115, Note_on_c, 1, 75, 0
7, 63120, Note_on_c, 1, 75, 76
7, 63175, Note_on_c, 1, 75, 0
7, 63180, Note_on_c, 1, 75, 84
7, 63299, Note_on_c, 1, 75, 0
7, 66180, Note_on_c, 1, 63, 79
7, 66180, Note_on_c, 1, 75, 79
7, 66235, Note_on_c, 1, 63, 0
7, 66235, Note_on_c, 1, 75, 0
7, 66240, Note_on_c, 1, 75, 80
7, 66240, Note_on_c, 1, 63, 80
7, 66295, Note_on_c, 1, 75, 0
7, 66295, Note_on_c, 1, 63, 0
7, 66300, Note_on_c, 1, 75, 82
7, 66300, Note_on_c, 1, 63, 82
7, 66355, Note_on_c, 1, 75, 0
7, 66355, Note_on_c, 1, 63, 0
7, 66360, Note_on_c, 1, 75, 84
7, 66360, Note_on_c, 1, 63, 84
7, 66711, Note_on_c, 1, 75, 0
7, 66711, Note_on_c, 1, 63, 0
7, 66720, Note_on_c, 1, 65, 84
7, 66720, Note_on_c, 1, 77, 84
7, 67071, Note_on_c, 1, 65, 0
7, 67071, Note_on_c, 1, 77, 0
7, 67080, Note_on_c, 1, 77, 84
7, 67080, Note_on_c, 1, 79, 84
7, 67431, Note_on_c, 1, 77, 0
7, 67431, Note_on_c, 1, 79, 0
7, 67440, Note_on_c, 1, 79, 84
7, 67440, Note_on_c, 1, 76, 84
7, 67671, Note_on_c, 1, 76, 0
7, 67680, Note_on_c, 1, 72, 84
7, 67791, Note_on_c, 1, 79, 0
7, 67800, Note_on_c, 1, 77, 84
7, 67911, Note_on_c, 1, 72, 0
7, 67920, Note_on_c, 1, 73, 84
7, 68151, Note_on_c, 1, 77, 0
7, 68151, Note_on_c, 1, 73, 0
7, 68160, Note_on_c, 1, 75, 84
7, 68160, Note_on_c, 1, 70, 84
7, 68271, Note_on_c, 1, 70, 0
7, 68280, Note_on_c, 1, 72, 84
7, 68511, Note_on_c, 1, 75, 0
7, 68511, Note_on_c, 1, 72, 0
7, 68520, Note_on_c, 1, 75, 84
7, 68520, Note_on_c, 1, 82, 84
7, 68639, Note_on_c, 1, 75, 0
7, 68639, Note_on_c, 1, 82, 0
7, 68880, Note_on_c, 1, 75, 84
7, 68880, Note_on_c, 1, 84, 84
7, 68999, Note_on_c, 1, 75, 0
7, 68999, Note_on_c, 1, 84, 0
7, 69240, Note_on_c, 1, 75, 84
7, 69240, Note_on_c, 1, 82, 84
7, 69359, Note_on_c, 1, 75, 0
7, 69359, Note_on_c, 1, 82, 0
7, 69600, Note_on_c, 1, 84, 84
7, 69600, Note_on_c, 1, 75, 84
7, 69719, Note_on_c, 1, 84, 0
7, 69719, Note_on_c, 1, 75, 0
7, 69840, Note_on_c, 1, 68, 84
7, 69929, Note_on_c, 1, 68, 0
7, 69930, Note_on_c, 1, 72, 84
7, 69955, Note_on_c, 1, 72, 0
7, 69960, Note_on_c, 1, 75, 92
7, 70020, Control_c, 1, 11, 112
7, 70030, Control_c, 1, 11, 108
7, 70040, Control_c, 1, 11, 105
7, 70050, Control_c, 1, 11, 101
7, 70060, Control_c, 1, 11, 98
7, 70070, Control_c, 1, 11, 94
7, 70080, Control_c, 1, 11, 91
7, 70090, Control_c, 1, 11, 87
7, 70100, Control_c, 1, 11, 84
7, 70110, Control_c, 1, 11, 80
7, 70120, Control_c, 1, 11, 76
7, 70130, Control_c, 1, 11, 73
7, 70140, Control_c, 1, 11, 69
7, 70150, Control_c, 1, 11, 66
7, 70160, Control_c, 1, 11, 62
7, 70170, Control_c, 1, 11, 59
7, 70180, Control_c, 1, 11, 55
7, 70190, Control_c, 1, 11, 48
7, 70199, Note_on_c, 1, 75, 0
7, 70200, Note_on_c, 1, 77, 92
7, 70259, Note_on_c, 1, 77, 0
7, 70260, Note_on_c, 1, 79, 92
7, 70319, Note_on_c, 1, 79, 0
7, 70320, Note_on_c, 1, 80, 88
7, 70671, Note_on_c, 1, 80, 0
7, 70680, Note_on_c, 1, 75, 88
7, 71031, Note_on_c, 1, 75, 0
7, 71040, Note_on_c, 1, 75, 88
7, 71151, Note_on_c, 1, 75, 0
7, 71160, Note_on_c, 1, 75, 88
7, 71271, Note_on_c, 1, 75, 0
7, 71280, Note_on_c, 1, 75, 88
7, 71391, Note_on_c, 1, 75, 0
7, 71400, Note_on_c, 1, 75, 88
7, 71519, Note_on_c, 1, 75, 0
7, 75450, Control_c, 1, 11, 127
7, 75450, Note_on_c, 1, 75, 52
7, 75464, Note_on_c, 1, 75, 0
7, 75465, Note_on_c, 1, 77, 52
7, 75479, Note_on_c, 1, 77, 0
7, 75480, Note_on_c, 1, 78, 52
7, 75569, Note_on_c, 1, 78, 0
7, 75810, Note_on_c, 1, 73, 52
7, 75824, Note_on_c, 1, 73, 0
7, 75825, Note_on_c, 1, 75, 52
7, 75839, Note_on_c, 1, 75, 0
7, 75840, Note_on_c, 1, 77, 52
7, 75929, Note_on_c, 1, 77, 0
7, 76170, Note_on_c, 1, 73, 52
7, 76184, Note_on_c, 1, 73, 0
7, 76185, Note_on_c, 1, 75, 52
7, 76199, Note_on_c, 1, 75, 0
7, 76200, Note_on_c, 1, 76, 52
7, 76289, Note_on_c, 1, 76, 0
7, 76440, Note_on_c, 1, 75, 52
7, 76559, Note_on_c, 1, 75, 0
7, 77040, Note_on_c, 1, 70, 76
7, 77040, Note_on_c, 1, 75, 76
7, 77159, Note_on_c, 1, 70, 0
7, 77159, Note_on_c, 1, 75, 0
7, 77160, Note_on_c, 1, 72, 76
7, 77160, Note_on_c, 1, 68, 76
7, 77279, Note_on_c, 1, 72, 0
7, 77279, Note_on_c, 1, 68, 0
7, 77760, Note_on_c, 1, 82, 76
7, 77760, Note_on_c, 1, 79, 76
7, 77879, Note_on_c, 1, 82, 0
7, 77879, Note_on_c, 1, 79, 0
7, 77880, Note_on_c, 1, 84, 76
7, 77880, Note_on_c, 1, 80, 76
7, 77999, Note_on_c, 1, 84, 0
7, 77999, Note_on_c, 1, 80, 0
7, 78240, Note_on_c, 1, 72, 84
7, 78240, Note_on_c, 1, 75, 84
7, 78349, Note_on_c, 1, 72, 0
7, 78349, Note_on_c, 1, 75, 0
7, 78360, Note_on_c, 1, 75, 84
7, 78360, Note_on_c, 1, 70, 84
7, 78479, Note_on_c, 1, 75, 0
7, 78479, Note_on_c, 1, 70, 0
7, 78720, Note_on_c, 1, 75, 74
7, 78839, Note_on_c, 1, 75, 0
7, 78840, Note_on_c, 1, 77, 63
7, 78899, Note_on_c, 1, 77, 0
7, 78900, Note_on_c, 1, 79, 58
7, 78955, Note_on_c, 1, 79, 0
7, 78960, Note_on_c, 1, 80, 48
7, 79311, Note_on_c, 1, 80, 0
7, 79320, Note_on_c, 1, 75, 48
7, 79671, Note_on_c, 1, 75, 0
7, 79680, Note_on_c, 1, 75, 48
7, 79791, Note_on_c, 1, 75, 0
7, 79800, Note_on_c, 1, 75, 48
7, 79911, Note_on_c, 1, 75, 0
7, 79920, Note_on_c, 1, 75, 48
7, 80031, Note_on_c, 1, 75, 0
7, 80040, Note_on_c, 1, 75, 48
7, 80159, Note_on_c, 1, 75, 0
7, 81060, Note_on_c, 1, 75, 76
7, 81115, Note_on_c, 1, 75, 0
7, 81120, Note_on_c, 1, 79, 76
7, 81120, Note_on_c, 1, 75, 76
7, 81231, Note_on_c, 1, 75, 0
7, 81239, Note_on_c, 1, 79, 0
7, 81240, Note_on_c, 1, 80, 84
7, 81240, Note_on_c, 1, 75, 84
7, 81419, Note_on_c, 1, 80, 0
7, 81419, Note_on_c, 1, 75, 0
7, 86400, Note_on_c, 1, 75, 76
7, 86400, Note_on_c, 1, 72, 76
7, 86439, Note_on_c, 1, 75, 0
7, 86439, Note_on_c, 1, 72, 0
7, 86440, Note_on_c, 1, 75, 76
7, 86440, Note_on_c, 1, 72, 76
7, 86479, Note_on_c, 1, 75, 0
7, 86479, Note_on_c, 1, 72, 0
7, 86480, Note_on_c, 1, 75, 76
7, 86480, Note_on_c, 1, 72, 76
7, 86515, Note_on_c, 1, 75, 0
7, 86515, Note_on_c, 1, 72, 0
7, 86520, Note_on_c, 1, 72, 76
7, 86520, Note_on_c, 1, 75, 76
7, 86555, Note_on_c, 1, 72, 0
7, 86555, Note_on_c, 1, 75, 0
7, 86560, Note_on_c, 1, 72, 76
7, 86560, Note_on_c, 1, 75, 76
7, 86595, Note_on_c, 1, 72, 0
7, 86595, Note_on_c, 1, 75, 0
7, 86600, Note_on_c, 1, 75, 76
7, 86600, Note_on_c, 1, 72, 76
7, 86635, Note_on_c, 1, 75, 0
7, 86635, Note_on_c, 1, 72, 0
7, 86640, Note_on_c, 1, 75, 76
7, 86640, Note_on_c, 1, 72, 76
7, 86675, Note_on_c, 1, 75, 0
7, 86675, Note_on_c, 1, 72, 0
7, 86680, Note_on_c, 1, 75, 76
7, 86680, Note_on_c, 1, 72, 76
7, 86715, Note_on_c, 1, 75, 0
7, 86715, Note_on_c, 1, 72, 0
7, 86720, Note_on_c, 1, 72, 76
7, 86720, Note_on_c, 1, 75, 76
7, 86755, Note_on_c, 1, 72, 0
7, 86755, Note_on_c, 1, 75, 0
7, 86760, Note_on_c, 1, 72, 76
7, 86760, Note_on_c, 1, 75, 76
7, 86795, Note_on_c, 1, 72, 0
7, 86795, Note_on_c, 1, 75, 0
7, 86800, Note_on_c, 1, 75, 76
7, 86800, Note_on_c, 1, 72, 76
7, 86835, Note_on_c, 1, 75, 0
7, 86835, Note_on_c, 1, 72, 0
7, 86840, Note_on_c, 1, 72, 76
7, 86840, Note_on_c, 1, 75, 76
7, 86875, Note_on_c, 1, 72, 0
7, 86875, Note_on_c, 1, 75, 0
7, 86880, Note_on_c, 1, 75, 84
7, 86880, Note_on_c, 1, 72, 84
7, 86999, Note_on_c, 1, 75, 0
7, 86999, Note_on_c, 1, 72, 0
7, 87240, Note_on_c, 1, 75, 92
7, 87584, Note_on_c, 1, 75, 0
7, 87600, Note_on_c, 1, 72, 84
7, 87719, Note_on_c, 1, 72, 0
7, 87840, Note_on_c, 1, 75, 52
7, 87840, Note_on_c, 1, 67, 52
7, 87929, Note_on_c, 1, 75, 0
7, 87929, Note_on_c, 1, 67, 0
7, 87960, Note_on_c, 1, 72, 52
7, 87960, Note_on_c, 1, 68, 52
7, 88049, Note_on_c, 1, 72, 0
7, 88049, Note_on_c, 1, 68, 0
7, 88200, Note_on_c, 1, 68, 76
7, 88285, Note_on_c, 1, 68, 0
7, 88290, Note_on_c, 1, 72, 76
7, 88315, Note_on_c, 1, 72, 0
7, 88320, Note_on_c, 1, 75, 84
7, 88671, Note_on_c, 1, 75, 0
7, 88680, Note_on_c, 1, 80, 84
7, 88680, Note_on_c, 1, 72, 84
7, 88799, Note_on_c, 1, 80, 0
7, 88799, Note_on_c, 1, 72, 0
7, 88799, End_track
8, 0, Start_track
8, 0, Title_t, "Clarinet in B-flat"
8, 0, MIDI_port, 0
8, 0, Program_c, 2, 71
8, 0, Control_c, 2, 7, 88
8, 0, Control_c, 2, 10, 75
8, 0, Control_c, 2, 11, 127
8, 3600, Note_on_c, 2, 75, 52
8, 3600, Note_on_c, 2, 72, 52
8, 3689, Note_on_c, 2, 75, 0
8, 3689, Note_on_c, 2, 72, 0
8, 3690, Note_on_c, 2, 72, 52
8, 3690, Note_on_c, 2, 68, 52
8, 3715, Note_on_c, 2, 72, 0
8, 3715, Note_on_c, 2, 68, 0
8, 3720, Note_on_c, 2, 75, 76
8, 3720, Control_c, 2, 11, 127
8, 3720, Note_on_c, 2, 70, 76
8, 3735, Control_c, 2, 11, 125
8, 3750, Control_c, 2, 11, 123
8, 3765, Control_c, 2, 11, 121
8, 3780, Control_c, 2, 11, 119
8, 3795, Control_c, 2, 11, 117
8, 3810, Control_c, 2, 11, 115
8, 3825, Control_c, 2, 11, 113
8, 3840, Control_c, 2, 11, 111
8, 3855, Control_c, 2, 11, 109
8, 3870, Control_c, 2, 11, 107
8, 3885, Control_c, 2, 11, 105
8, 3900, Control_c, 2, 11, 104
8, 3915, Control_c, 2, 11, 102
8, 3930, Control_c, 2, 11, 100
8, 3945, Control_c, 2, 11, 98
8, 3960, Control_c, 2, 11, 96
8, 3975, Control_c, 2, 11, 94
8, 3990, Control_c, 2, 11, 92
8, 4005, Control_c, 2, 11, 90
8, 4020, Control_c, 2, 11, 88
8, 4035, Control_c, 2, 11, 86
8, 4050, Control_c, 2, 11, 84
8, 4065, Control_c, 2, 11, 82
8, 4071, Note_on_c, 2, 75, 0
8, 4071, Note_on_c, 2, 70, 0
8, 4080, Note_on_c, 2, 73, 76
8, 4080, Control_c, 2, 11, 80
8, 4080, Note_on_c, 2, 68, 76
8, 4199, Note_on_c, 2, 73, 0
8, 4200, Note_on_c, 2, 72, 76
8, 4431, Note_on_c, 2, 68, 0
8, 4431, Note_on_c, 2, 72, 0
8, 4440, Note_on_c, 2, 63, 76
8, 4440, Note_on_c, 2, 70, 76
8, 4559, Note_on_c, 2, 70, 0
8, 4560, Note_on_c, 2, 68, 76
8, 4791, Note_on_c, 2, 63, 0
8, 4791, Note_on_c, 2, 68, 0
8, 4800, Note_on_c, 2, 70, 76
8, 4800, Note_on_c, 2, 73, 76
8, 4911, Note_on_c, 2, 70, 0
8, 4911, Note_on_c, 2, 73, 0
8, 4920, Note_on_c, 2, 73, 76
8, 4920, Note_on_c, 2, 70, 76
8, 5031, Note_on_c, 2, 73, 0
8, 5031, Note_on_c, 2, 70, 0
8, 5040, Note_on_c, 2, 70, 76
8, 5040, Note_on_c, 2, 73, 76
8, 5129, Note_on_c, 2, 70, 0
8, 5130, Note_on_c, 2, 67, 76
8, 5151, Note_on_c, 2, 73, 0
8, 5155, Note_on_c, 2, 67, 0
8, 5160, Note_on_c, 2, 72, 76
8, 5160, Note_on_c, 2, 68, 76
8, 5279, Note_on_c, 2, 72, 0
8, 5279, Note_on_c, 2, 68, 0
8, 6117, Control_c, 2, 11, 111
8, 6120, Note_on_c, 2, 63, 76
8, 6120, Note_on_c, 2, 60, 76
8, 6125, Control_c, 2, 11, 112
8, 6133, Control_c, 2, 11, 113
8, 6140, Control_c, 2, 11, 114
8, 6148, Control_c, 2, 11, 115
8, 6156, Control_c, 2, 11, 116
8, 6163, Control_c, 2, 11, 117
8, 6171, Control_c, 2, 11, 118
8, 6179, Control_c, 2, 11, 119
8, 6186, Control_c, 2, 11, 120
8, 6194, Control_c, 2, 11, 121
8, 6202, Control_c, 2, 11, 122
8, 6209, Control_c, 2, 11, 123
8, 6217, Control_c, 2, 11, 124
8, 6225, Control_c, 2, 11, 125
8, 6231, Note_on_c, 2, 63, 0
8, 6231, Note_on_c, 2, 60, 0
8, 6232, Control_c, 2, 11, 127
8, 6240, Note_on_c, 2, 61, 76
8, 6240, Note_on_c, 2, 63, 76
8, 6351, Note_on_c, 2, 61, 0
8, 6351, Note_on_c, 2, 63, 0
8, 6360, Note_on_c, 2, 63, 76
8, 6360, Note_on_c, 2, 61, 76
8, 6471, Note_on_c, 2, 63, 0
8, 6471, Note_on_c, 2, 61, 0
8, 6480, Note_on_c, 2, 63, 76
8, 6480, Note_on_c, 2, 61, 76
8, 6591, Note_on_c, 2, 63, 0
8, 6591, Note_on_c, 2, 61, 0
8, 6600, Note_on_c, 2, 63, 52
8, 6600, Note_on_c, 2, 60, 52
8, 6719, Note_on_c, 2, 63, 0
8, 6719, Note_on_c, 2, 60, 0
8, 6838, Control_c, 2, 11, 96
8, 6840, Note_on_c, 2, 73, 68
8, 6840, Note_on_c, 2, 70, 68
8, 6853, Control_c, 2, 11, 99
8, 6867, Control_c, 2, 11, 103
8, 6880, Control_c, 2, 11, 106
8, 6893, Control_c, 2, 11, 110
8, 6907, Control_c, 2, 11, 113
8, 6920, Control_c, 2, 11, 117
8, 6929, Note_on_c, 2, 70, 0
8, 6930, Note_on_c, 2, 67, 68
8, 6933, Control_c, 2, 11, 120
8, 6947, Control_c, 2, 11, 124
8, 6959, Note_on_c, 2, 73, 0
8, 6959, Note_on_c, 2, 67, 0
8, 6960, Note_on_c, 2, 68, 68
8, 6960, Note_on_c, 2, 72, 68
8, 6960, Control_c, 2, 11, 127
8, 6973, Control_c, 2, 11, 124
8, 6987, Control_c, 2, 11, 120
8, 7000, Control_c, 2, 11, 117
8, 7013, Control_c, 2, 11, 113
8, 7027, Control_c, 2, 11, 110
8, 7040, Control_c, 2, 11, 106
8, 7053, Control_c, 2, 11, 103
8, 7067, Control_c, 2, 11, 99
8, 7079, Note_on_c, 2, 68, 0
8, 7079, Note_on_c, 2, 72, 0
8, 7080, Control_c, 2, 11, 96
8, 7198, Control_c, 2, 11, 127
8, 7200, Note_on_c, 2, 55, 76
8, 7200, Note_on_c, 2, 58, 76
8, 7319, Note_on_c, 2, 55, 0
8, 7319, Note_on_c, 2, 58, 0
8, 7320, Note_on_c, 2, 56, 76
8, 7320, Note_on_c, 2, 60, 76
8, 7379, Note_on_c, 2, 56, 0
8, 7379, Note_on_c, 2, 60, 0
8, 7440, Note_on_c, 2, 56, 52
8, 7440, Note_on_c, 2, 60, 52
8, 7499, Note_on_c, 2, 56, 0
8, 7499, Note_on_c, 2, 60, 0
8, 7560, Note_on_c, 2, 56, 52
8, 7560, Note_on_c, 2, 60, 52
8, 7619, Note_on_c, 2, 56, 0
8, 7619, Note_on_c, 2, 60, 0
8, 7680, Note_on_c, 2, 56, 52
8, 7680, Note_on_c, 2, 60, 52
8, 7799, Note_on_c, 2, 56, 0
8, 7799, Note_on_c, 2, 60, 0
8, 7920, Note_on_c, 2, 63, 48
8, 8009, Note_on_c, 2, 63, 0
8, 8010, Note_on_c, 2, 67, 48
8, 8035, Note_on_c, 2, 67, 0
8, 8040, Note_on_c, 2, 68, 48
8, 8040, Note_on_c, 2, 63, 48
8, 8151, Note_on_c, 2, 68, 0
8, 8151, Note_on_c, 2, 63, 0
8, 8160, Note_on_c, 2, 68, 48
8, 8160, Note_on_c, 2, 63, 48
8, 8279, Note_on_c, 2, 68, 0
8, 8279, Note_on_c, 2, 63, 0
8, 8280, Note_on_c, 2, 70, 48
8, 8280, Note_on_c, 2, 67, 48
8, 8399, Note_on_c, 2, 70, 0
8, 8399, Note_on_c, 2, 67, 0
8, 8400, Note_on_c, 2, 68, 48
8, 8400, Note_on_c, 2, 72, 48
8, 8631, Note_on_c, 2, 68, 0
8, 8631, Note_on_c, 2, 72, 0
8, 8640, Note_on_c, 2, 63, 48
8, 8640, Note_on_c, 2, 68, 48
8, 8729, Note_on_c, 2, 63, 0
8, 8729, Note_on_c, 2, 68, 0
8, 8730, Note_on_c, 2, 67, 48
8, 8730, Note_on_c, 2, 70, 48
8, 8755, Note_on_c, 2, 67, 0
8, 8755, Note_on_c, 2, 70, 0
8, 8760, Note_on_c, 2, 68, 48
8, 8760, Note_on_c, 2, 72, 48
8, 8871, Note_on_c, 2, 68, 0
8, 8871, Note_on_c, 2, 72, 0
8, 8880, Note_on_c, 2, 68, 48
8, 8880, Note_on_c, 2, 72, 48
8, 8999, Note_on_c, 2, 68, 0
8, 8999, Note_on_c, 2, 72, 0
8, 9000, Note_on_c, 2, 70, 48
8, 9000, Note_on_c, 2, 73, 48
8, 9119, Note_on_c, 2, 70, 0
8, 9119, Note_on_c, 2, 73, 0
8, 9120, Note_on_c, 2, 72, 48
8, 9120, Note_on_c, 2, 75, 48
8, 9351, Note_on_c, 2, 72, 0
8, 9351, Note_on_c, 2, 75, 0
8, 9360, Note_on_c, 2, 75, 44
8, 9360, Note_on_c, 2, 72, 44
8, 9711, Note_on_c, 2, 75, 0
8, 9711, Note_on_c, 2, 72, 0
8, 9720, Note_on_c, 2, 75, 44
8, 9720, Note_on_c, 2, 72, 44
8, 10079, Note_on_c, 2, 75, 0
8, 10079, Note_on_c, 2, 72, 0
8, 10200, Note_on_c, 2, 72, 84
8, 10200, Note_on_c, 2, 63, 84
8, 10551, Note_on_c, 2, 72, 0
8, 10551, Note_on_c, 2, 63, 0
8, 10560, Note_on_c, 2, 64, 84
8, 10560, Note_on_c, 2, 72, 84
8, 10649, Note_on_c, 2, 64, 0
8, 10649, Note_on_c, 2, 72, 0
8, 10680, Note_on_c, 2, 67, 84
8, 10680, Note_on_c, 2, 64, 84
8, 10769, Note_on_c, 2, 67, 0
8, 10769, Note_on_c, 2, 64, 0
8, 10800, Note_on_c, 2, 65, 84
8, 10800, Note_on_c, 2, 67, 84
8, 10889, Note_on_c, 2, 65, 0
8, 10889, Note_on_c, 2, 67, 0
8, 10920, Note_on_c, 2, 64, 84
8, 10920, Note_on_c, 2, 67, 84
8, 11039, Note_on_c, 2, 64, 0
8, 11039, Note_on_c, 2, 67, 0
8, 17400, Note_on_c, 2, 75, 76
8, 17640, Control_c, 2, 11, 127
8, 17653, Control_c, 2, 11, 122
8, 17667, Control_c, 2, 11, 117
8, 17680, Control_c, 2, 11, 111
8, 17693, Control_c, 2, 11, 106
8, 17707, Control_c, 2, 11, 101
8, 17720, Control_c, 2, 11, 96
8, 17733, Control_c, 2, 11, 90
8, 17747, Control_c, 2, 11, 85
8, 17760, Control_c, 2, 11, 80
8, 18119, Note_on_c, 2, 75, 0
8, 18120, Note_on_c, 2, 75, 76
8, 18839, Note_on_c, 2, 75, 0
8, 18840, Note_on_c, 2, 76, 76
8, 19199, Note_on_c, 2, 76, 0
8, 19200, Note_on_c, 2, 77, 76
8, 19671, Note_on_c, 2, 77, 0
8, 19680, Note_on_c, 2, 75, 76
8, 19918, Control_c, 2, 11, 127
8, 19920, Note_on_c, 2, 67, 76
8, 19979, Note_on_c, 2, 75, 0
8, 19980, Note_on_c, 2, 75, 76
8, 20031, Note_on_c, 2, 67, 0
8, 20039, Note_on_c, 2, 75, 0
8, 20040, Note_on_c, 2, 67, 76
8, 20040, Note_on_c, 2, 77, 76
8, 20099, Note_on_c, 2, 77, 0
8, 20100, Note_on_c, 2, 75, 76
8, 20151, Note_on_c, 2, 67, 0
8, 20159, Note_on_c, 2, 75, 0
8, 20160, Note_on_c, 2, 74, 76
8, 20160, Note_on_c, 2, 67, 76
8, 20219, Note_on_c, 2, 74, 0
8, 20220, Note_on_c, 2, 75, 76
8, 20271, Note_on_c, 2, 67, 0
8, 20275, Note_on_c, 2, 75, 0
8, 20280, Note_on_c, 2, 72, 52
8, 20280, Note_on_c, 2, 68, 52
8, 20519, Note_on_c, 2, 72, 0
8, 20519, Note_on_c, 2, 68, 0
8, 21180, Note_on_c, 2, 75, 64
8, 21180, Note_on_c, 2, 72, 64
8, 21224, Note_on_c, 2, 75, 0
8, 21224, Note_on_c, 2, 72, 0
8, 21240, Note_on_c, 2, 72, 68
8, 21240, Note_on_c, 2, 75, 68
8, 21299, Note_on_c, 2, 72, 0
8, 21299, Note_on_c, 2, 75, 0
8, 21300, Note_on_c, 2, 72, 72
8, 21300, Note_on_c, 2, 68, 72
8, 21355, Note_on_c, 2, 72, 0
8, 21355, Note_on_c, 2, 68, 0
8, 21360, Note_on_c, 2, 70, 76
8, 21360, Control_c, 2, 11, 127
8, 21360, Note_on_c, 2, 75, 76
8, 21375, Control_c, 2, 11, 125
8, 21390, Control_c, 2, 11, 123
8, 21405, Control_c, 2, 11, 121
8, 21420, Control_c, 2, 11, 119
8, 21435, Control_c, 2, 11, 117
8, 21450, Control_c, 2, 11, 115
8, 21465, Control_c, 2, 11, 113
8, 21480, Control_c, 2, 11, 111
8, 21495, Control_c, 2, 11, 109
8, 21510, Control_c, 2, 11, 107
8, 21525, Control_c, 2, 11, 105
8, 21540, Control_c, 2, 11, 104
8, 21555, Control_c, 2, 11, 102
8, 21570, Control_c, 2, 11, 100
8, 21585, Control_c, 2, 11, 98
8, 21600, Control_c, 2, 11, 96
8, 21615, Control_c, 2, 11, 94
8, 21630, Control_c, 2, 11, 92
8, 21645, Control_c, 2, 11, 90
8, 21660, Control_c, 2, 11, 88
8, 21675, Control_c, 2, 11, 86
8, 21690, Control_c, 2, 11, 84
8, 21705, Control_c, 2, 11, 80
8, 21711, Note_on_c, 2, 70, 0
8, 21711, Note_on_c, 2, 75, 0
8, 21720, Note_on_c, 2, 73, 76
8, 21720, Note_on_c, 2, 68, 76
8, 21839, Note_on_c, 2, 73, 0
8, 21840, Note_on_c, 2, 72, 76
8, 22071, Note_on_c, 2, 68, 0
8, 22071, Note_on_c, 2, 72, 0
8, 22080, Note_on_c, 2, 70, 76
8, 22080, Note_on_c, 2, 63, 76
8, 22199, Note_on_c, 2, 70, 0
8, 22200, Note_on_c, 2, 68, 76
8, 22431, Note_on_c, 2, 63, 0
8, 22431, Note_on_c, 2, 68, 0
8, 22440, Note_on_c, 2, 73, 76
8, 22440, Note_on_c, 2, 70, 76
8, 22551, Note_on_c, 2, 73, 0
8, 22551, Note_on_c, 2, 70, 0
8, 22560, Note_on_c, 2, 73, 76
8, 22560, Note_on_c, 2, 70, 76
8, 22671, Note_on_c, 2, 73, 0
8, 22671, Note_on_c, 2, 70, 0
8, 22680, Note_on_c, 2, 73, 76
8, 22680, Note_on_c, 2, 70, 76
8, 22769, Note_on_c, 2, 70, 0
8, 22770, Note_on_c, 2, 67, 76
8, 22791, Note_on_c, 2, 73, 0
8, 22795, Note_on_c, 2, 67, 0
8, 22800, Note_on_c, 2, 68, 76
8, 22800, Note_on_c, 2, 72, 76
8, 22919, Note_on_c, 2, 68, 0
8, 22919, Note_on_c, 2, 72, 0
8, 23747, Control_c, 2, 11, 110
8, 23760, Note_on_c, 2, 60, 76
8, 23760, Note_on_c, 2, 63, 76
8, 23760, Control_c, 2, 11, 111
8, 23773, Control_c, 2, 11, 113
8, 23787, Control_c, 2, 11, 115
8, 23800, Control_c, 2, 11, 117
8, 23813, Control_c, 2, 11, 118
8, 23827, Control_c, 2, 11, 120
8, 23840, Control_c, 2, 11, 122
8, 23853, Control_c, 2, 11, 124
8, 23867, Control_c, 2, 11, 127
8, 23871, Note_on_c, 2, 60, 0
8, 23871, Note_on_c, 2, 63, 0
8, 23880, Note_on_c, 2, 63, 76
8, 23880, Note_on_c, 2, 61, 76
8, 23991, Note_on_c, 2, 63, 0
8, 23991, Note_on_c, 2, 61, 0
8, 24000, Note_on_c, 2, 61, 76
8, 24000, Note_on_c, 2, 63, 76
8, 24111, Note_on_c, 2, 61, 0
8, 24111, Note_on_c, 2, 63, 0
8, 24120, Note_on_c, 2, 61, 76
8, 24120, Note_on_c, 2, 63, 76
8, 24231, Note_on_c, 2, 61, 0
8, 24231, Note_on_c, 2, 63, 0
8, 24240, Note_on_c, 2, 60, 52
8, 24240, Note_on_c, 2, 63, 52
8, 24359, Note_on_c, 2, 60, 0
8, 24359, Note_on_c, 2, 63, 0
8, 24478, Control_c, 2, 11, 96
8, 24480, Note_on_c, 2, 70, 68
8, 24480, Note_on_c, 2, 73, 68
8, 24493, Control_c, 2, 11, 99
8, 24507, Control_c, 2, 11, 103
8, 24520, Control_c, 2, 11, 106
8, 24533, Control_c, 2, 11, 110
8, 24547, Control_c, 2, 11, 113
8, 24560, Control_c, 2, 11, 117
8, 24569, Note_on_c, 2, 70, 0
8, 24570, Note_on_c, 2, 67, 68
8, 24573, Control_c, 2, 11, 120
8, 24587, Control_c, 2, 11, 127
8, 24599, Note_on_c, 2, 73, 0
8, 24599, Note_on_c, 2, 67, 0
8, 24600, Note_on_c, 2, 68, 68
8, 24600, Control_c, 2, 11, 127
8, 24600, Note_on_c, 2, 72, 68
8, 24613, Control_c, 2, 11, 124
8, 24627, Control_c, 2, 11, 120
8, 24640, Control_c, 2, 11, 117
8, 24653, Control_c, 2, 11, 113
8, 24667, Control_c, 2, 11, 110
8, 24680, Control_c, 2, 11, 106
8, 24693, Control_c, 2, 11, 103
8, 24707, Control_c, 2, 11, 96
8, 24719, Note_on_c, 2, 68, 0
8, 24719, Note_on_c, 2, 72, 0
8, 24838, Control_c, 2, 11, 127
8, 24840, Note_on_c, 2, 55, 76
8, 24840, Note_on_c, 2, 58, 76
8, 24959, Note_on_c, 2, 55, 0
8, 24959, Note_on_c, 2, 58, 0
8, 24960, Note_on_c, 2, 56, 76
8, 24960, Note_on_c, 2, 60, 76
8, 25019, Note_on_c, 2, 56, 0
8, 25019, Note_on_c, 2, 60, 0
8, 25080, Note_on_c, 2, 56, 52
8, 25080, Note_on_c, 2, 60, 52
8, 25139, Note_on_c, 2, 56, 0
8, 25139, Note_on_c, 2, 60, 0
8, 25200, Note_on_c, 2, 56, 52
8, 25200, Note_on_c, 2, 60, 52
8, 25259, Note_on_c, 2, 56, 0
8, 25259, Note_on_c, 2, 60, 0
8, 25320, Note_on_c, 2, 60, 52
8, 25320, Note_on_c, 2, 56, 52
8, 25439, Note_on_c, 2, 60, 0
8, 25439, Note_on_c, 2, 56, 0
8, 25560, Note_on_c, 2, 63, 48
8, 25649, Note_on_c, 2, 63, 0
8, 25650, Note_on_c, 2, 67, 48
8, 25675, Note_on_c, 2, 67, 0
8, 25680, Note_on_c, 2, 63, 48
8, 25680, Note_on_c, 2, 68, 48
8, 25791, Note_on_c, 2, 63, 0
8, 25791, Note_on_c, 2, 68, 0
8, 25800, Note_on_c, 2, 68, 48
8, 25800, Note_on_c, 2, 63, 48
8, 25919, Note_on_c, 2, 68, 0
8, 25919, Note_on_c, 2, 63, 0
8, 25920, Note_on_c, 2, 67, 48
8, 25920, Note_on_c, 2, 70, 48
8, 26039, Note_on_c, 2, 67, 0
8, 26039, Note_on_c, 2, 70, 0
8, 26040, Note_on_c, 2, 72, 48
8, 26040, Note_on_c, 2, 68, 48
8, 26271, Note_on_c, 2, 72, 0
8, 26271, Note_on_c, 2, 68, 0
8, 26280, Note_on_c, 2, 63, 48
8, 26280, Note_on_c, 2, 68, 48
8, 26369, Note_on_c, 2, 63, 0
8, 26369, Note_on_c, 2, 68, 0
8, 26370, Note_on_c, 2, 67, 48
8, 26370, Note_on_c, 2, 70, 48
8, 26399, Note_on_c, 2, 67, 0
8, 26399, Note_on_c, 2, 70, 0
8, 26400, Note_on_c, 2, 68, 48
8, 26400, Note_on_c, 2, 72, 48
8, 26511, Note_on_c, 2, 68, 0
8, 26511, Note_on_c, 2, 72, 0
8, 26520, Note_on_c, 2, 72, 48
8, 26520, Note_on_c, 2, 68, 48
8, 26639, Note_on_c, 2, 72, 0
8, 26639, Note_on_c, 2, 68, 0
8, 26640, Note_on_c, 2, 73, 48
8, 26640, Note_on_c, 2, 70, 48
8, 26759, Note_on_c, 2, 73, 0
8, 26759, Note_on_c, 2, 70, 0
8, 26760, Note_on_c, 2, 72, 48
8, 26760, Note_on_c, 2, 75, 48
8, 26991, Note_on_c, 2, 72, 0
8, 26991, Note_on_c, 2, 75, 0
8, 27000, Note_on_c, 2, 75, 44
8, 27000, Note_on_c, 2, 72, 44
8, 27351, Note_on_c, 2, 75, 0
8, 27351, Note_on_c, 2, 72, 0
8, 27360, Note_on_c, 2, 75, 44
8, 27360, Note_on_c, 2, 72, 44
8, 27719, Note_on_c, 2, 75, 0
8, 27719, Note_on_c, 2, 72, 0
8, 27840, Note_on_c, 2, 63, 84
8, 27840, Note_on_c, 2, 72, 84
8, 28191, Note_on_c, 2, 63, 0
8, 28191, Note_on_c, 2, 72, 0
8, 28200, Note_on_c, 2, 72, 84
8, 28200, Note_on_c, 2, 64, 84
8, 28289, Note_on_c, 2, 72, 0
8, 28289, Note_on_c, 2, 64, 0
8, 28320, Note_on_c, 2, 64, 84
8, 28320, Note_on_c, 2, 67, 84
8, 28409, Note_on_c, 2, 64, 0
8, 28409, Note_on_c, 2, 67, 0
8, 28440, Note_on_c, 2, 65, 84
8, 28440, Note_on_c, 2, 67, 84
8, 28529, Note_on_c, 2, 65, 0
8, 28529, Note_on_c, 2, 67, 0
8, 28560, Note_on_c, 2, 67, 84
8, 28560, Note_on_c, 2, 64, 84
8, 28679, Note_on_c, 2, 67, 0
8, 28679, Note_on_c, 2, 64, 0
8, 34860, Note_on_c, 2, 63, 84
8, 34904, Note_on_c, 2, 63, 0
8, 34920, Note_on_c, 2, 75, 84
8, 34964, Note_on_c, 2, 75, 0
8, 38460, Note_on_c, 2, 60, 52
8, 38504, Note_on_c, 2, 60, 0
8, 38520, Note_on_c, 2, 72, 52
8, 38564, Note_on_c, 2, 72, 0
8, 38820, Note_on_c, 2, 65, 52
8, 38864, Note_on_c, 2, 65, 0
8, 38880, Note_on_c, 2, 77, 52
8, 38924, Note_on_c, 2, 77, 0
8, 39180, Note_on_c, 2, 61, 52
8, 39224, Note_on_c, 2, 61, 0
8, 39240, Note_on_c, 2, 73, 52
8, 39284, Note_on_c, 2, 73, 0
8, 39540, Note_on_c, 2, 60, 52
8, 39584, Note_on_c, 2, 60, 0
8, 39600, Note_on_c, 2, 72, 52
8, 39644, Note_on_c, 2, 72, 0
8, 39900, Note_on_c, 2, 61, 52
8, 39944, Note_on_c, 2, 61, 0
8, 39960, Note_on_c, 2, 73, 52
8, 40004, Note_on_c, 2, 73, 0
8, 40260, Note_on_c, 2, 60, 52
8, 40304, Note_on_c, 2, 60, 0
8, 40320, Note_on_c, 2, 72, 52
8, 40364, Note_on_c, 2, 72, 0
8, 40620, Note_on_c, 2, 63, 52
8, 40664, Note_on_c, 2, 63, 0
8, 40680, Note_on_c, 2, 75, 52
8, 40724, Note_on_c, 2, 75, 0
8, 40740, Note_on_c, 2, 75, 52
8, 40795, Note_on_c, 2, 75, 0
8, 40800, Note_on_c, 2, 72, 52
8, 40855, Note_on_c, 2, 72, 0
8, 40860, Note_on_c, 2, 68, 76
8, 40860, Note_on_c, 2, 72, 76
8, 40915, Note_on_c, 2, 68, 0
8, 40915, Note_on_c, 2, 72, 0
8, 40920, Note_on_c, 2, 72, 76
8, 40920, Note_on_c, 2, 68, 76
8, 40975, Note_on_c, 2, 72, 0
8, 40975, Note_on_c, 2, 68, 0
8, 40980, Note_on_c, 2, 68, 76
8, 40980, Note_on_c, 2, 72, 76
8, 41035, Note_on_c, 2, 68, 0
8, 41035, Note_on_c, 2, 72, 0
8, 41040, Note_on_c, 2, 68, 76
8, 41040, Note_on_c, 2, 72, 76
8, 41095, Note_on_c, 2, 68, 0
8, 41095, Note_on_c, 2, 72, 0
8, 41100, Note_on_c, 2, 68, 76
8, 41100, Note_on_c, 2, 72, 76
8, 41155, Note_on_c, 2, 68, 0
8, 41155, Note_on_c, 2, 72, 0
8, 41160, Note_on_c, 2, 72, 76
8, 41160, Note_on_c, 2, 68, 76
8, 41215, Note_on_c, 2, 72, 0
8, 41215, Note_on_c, 2, 68, 0
8, 41220, Note_on_c, 2, 72, 76
8, 41220, Note_on_c, 2, 68, 76
8, 41275, Note_on_c, 2, 72, 0
8, 41275, Note_on_c, 2, 68, 0
8, 41280, Note_on_c, 2, 68, 76
8, 41280, Note_on_c, 2, 72, 76
8, 41335, Note_on_c, 2, 68, 0
8, 41335, Note_on_c, 2, 72, 0
8, 41340, Note_on_c, 2, 68, 76
8, 41340, Note_on_c, 2, 72, 76
8, 41395, Note_on_c, 2, 68, 0
8, 41395, Note_on_c, 2, 72, 0
8, 41400, Note_on_c, 2, 72, 76
8, 41400, Note_on_c, 2, 68, 76
8, 41455, Note_on_c, 2, 72, 0
8, 41455, Note_on_c, 2, 68, 0
8, 41460, Note_on_c, 2, 72, 76
8, 41460, Note_on_c, 2, 68, 76
8, 41515, Note_on_c, 2, 72, 0
8, 41515, Note_on_c, 2, 68, 0
8, 41520, Note_on_c, 2, 72, 76
8, 41520, Note_on_c, 2, 69, 76
8, 41575, Note_on_c, 2, 72, 0
8, 41575, Note_on_c, 2, 69, 0
8, 41580, Note_on_c, 2, 69, 76
8, 41580, Note_on_c, 2, 72, 76
8, 41635, Note_on_c, 2, 69, 0
8, 41635, Note_on_c, 2, 72, 0
8, 41640, Note_on_c, 2, 70, 76
8, 41640, Note_on_c, 2, 73, 76
8, 41695, Note_on_c, 2, 70, 0
8, 41695, Note_on_c, 2, 73, 0
8, 41700, Note_on_c, 2, 73, 76
8, 41700, Note_on_c, 2, 70, 76
8, 41755, Note_on_c, 2, 73, 0
8, 41755, Note_on_c, 2, 70, 0
8, 41760, Note_on_c, 2, 70, 76
8, 41760, Note_on_c, 2, 73, 76
8, 41815, Note_on_c, 2, 70, 0
8, 41815, Note_on_c, 2, 73, 0
8, 41820, Note_on_c, 2, 73, 76
8, 41820, Note_on_c, 2, 70, 76
8, 41875, Note_on_c, 2, 73, 0
8, 41875, Note_on_c, 2, 70, 0
8, 41880, Note_on_c, 2, 70, 76
8, 41880, Note_on_c, 2, 73, 76
8, 41935, Note_on_c, 2, 70, 0
8, 41935, Note_on_c, 2, 73, 0
8, 41940, Note_on_c, 2, 73, 76
8, 41940, Note_on_c, 2, 70, 76
8, 41995, Note_on_c, 2, 73, 0
8, 41995, Note_on_c, 2, 70, 0
8, 42000, Note_on_c, 2, 73, 76
8, 42000, Note_on_c, 2, 70, 76
8, 42055, Note_on_c, 2, 73, 0
8, 42055, Note_on_c, 2, 70, 0
8, 42060, Note_on_c, 2, 73, 76
8, 42060, Note_on_c, 2, 70, 76
8, 42115, Note_on_c, 2, 73, 0
8, 42115, Note_on_c, 2, 70, 0
8, 42120, Note_on_c, 2, 71, 76
8, 42120, Note_on_c, 2, 74, 76
8, 42175, Note_on_c, 2, 71, 0
8, 42175, Note_on_c, 2, 74, 0
8, 42180, Note_on_c, 2, 71, 76
8, 42180, Note_on_c, 2, 74, 76
8, 42235, Note_on_c, 2, 71, 0
8, 42235, Note_on_c, 2, 74, 0
8, 42240, Note_on_c, 2, 67, 76
8, 42240, Note_on_c, 2, 72, 76
8, 42295, Note_on_c, 2, 67, 0
8, 42295, Note_on_c, 2, 72, 0
8, 42300, Note_on_c, 2, 72, 76
8, 42300, Note_on_c, 2, 67, 76
8, 42355, Note_on_c, 2, 72, 0
8, 42355, Note_on_c, 2, 67, 0
8, 42360, Note_on_c, 2, 67, 76
8, 42360, Note_on_c, 2, 72, 76
8, 42415, Note_on_c, 2, 67, 0
8, 42415, Note_on_c, 2, 72, 0
8, 42420, Note_on_c, 2, 67, 76
8, 42420, Note_on_c, 2, 72, 76
8, 42475, Note_on_c, 2, 67, 0
8, 42475, Note_on_c, 2, 72, 0
8, 42480, Note_on_c, 2, 72, 76
8, 42480, Note_on_c, 2, 67, 76
8, 42535, Note_on_c, 2, 72, 0
8, 42535, Note_on_c, 2, 67, 0
8, 42540, Note_on_c, 2, 67, 76
8, 42540, Note_on_c, 2, 72, 76
8, 42595, Note_on_c, 2, 67, 0
8, 42595, Note_on_c, 2, 72, 0
8, 42600, Note_on_c, 2, 72, 76
8, 42600, Note_on_c, 2, 75, 76
8, 42655, Note_on_c, 2, 72, 0
8, 42655, Note_on_c, 2, 75, 0
8, 42660, Note_on_c, 2, 72, 76
8, 42660, Note_on_c, 2, 75, 76
8, 42715, Note_on_c, 2, 72, 0
8, 42715, Note_on_c, 2, 75, 0
8, 42720, Note_on_c, 2, 72, 76
8, 42720, Note_on_c, 2, 73, 76
8, 42775, Note_on_c, 2, 72, 0
8, 42775, Note_on_c, 2, 73, 0
8, 42780, Note_on_c, 2, 73, 76
8, 42780, Note_on_c, 2, 72, 76
8, 42835, Note_on_c, 2, 73, 0
8, 42835, Note_on_c, 2, 72, 0
8, 42840, Note_on_c, 2, 70, 76
8, 42840, Note_on_c, 2, 73, 76
8, 42895, Note_on_c, 2, 70, 0
8, 42895, Note_on_c, 2, 73, 0
8, 42900, Note_on_c, 2, 73, 76
8, 42900, Note_on_c, 2, 70, 76
8, 42955, Note_on_c, 2, 73, 0
8, 42955, Note_on_c, 2, 70, 0
8, 42960, Note_on_c, 2, 70, 76
8, 42960, Note_on_c, 2, 73, 76
8, 43015, Note_on_c, 2, 70, 0
8, 43015, Note_on_c, 2, 73, 0
8, 43020, Note_on_c, 2, 73, 76
8, 43020, Note_on_c, 2, 70, 76
8, 43075, Note_on_c, 2, 73, 0
8, 43075, Note_on_c, 2, 70, 0
8, 43080, Note_on_c, 2, 72, 76
8, 43080, Note_on_c, 2, 70, 76
8, 43135, Note_on_c, 2, 72, 0
8, 43135, Note_on_c, 2, 70, 0
8, 43140, Note_on_c, 2, 70, 76
8, 43140, Note_on_c, 2, 72, 76
8, 43195, Note_on_c, 2, 70, 0
8, 43195, Note_on_c, 2, 72, 0
8, 43200, Note_on_c, 2, 72, 76
8, 43200, Note_on_c, 2, 68, 76
8, 43255, Note_on_c, 2, 72, 0
8, 43255, Note_on_c, 2, 68, 0
8, 43260, Note_on_c, 2, 68, 76
8, 43260, Note_on_c, 2, 72, 76
8, 43315, Note_on_c, 2, 68, 0
8, 43315, Note_on_c, 2, 72, 0
8, 43320, Note_on_c, 2, 67, 76
8, 43320, Note_on_c, 2, 70, 76
8, 43679, Note_on_c, 2, 67, 0
8, 43679, Note_on_c, 2, 70, 0
8, 43680, Note_on_c, 2, 63, 76
8, 43859, Note_on_c, 2, 63, 0
8, 43860, Note_on_c, 2, 65, 76
8, 43889, Note_on_c, 2, 65, 0
8, 43890, Note_on_c, 2, 67, 76
8, 43919, Note_on_c, 2, 67, 0
8, 43920, Note_on_c, 2, 68, 76
8, 43949, Note_on_c, 2, 68, 0
8, 43950, Note_on_c, 2, 70, 76
8, 43979, Note_on_c, 2, 70, 0
8, 43980, Note_on_c, 2, 72, 76
8, 44009, Note_on_c, 2, 72, 0
8, 44010, Note_on_c, 2, 74, 76
8, 44035, Note_on_c, 2, 74, 0
8, 44040, Note_on_c, 2, 75, 76
8, 44279, Note_on_c, 2, 75, 0
8, 45720, Note_on_c, 2, 63, 48
8, 45779, Note_on_c, 2, 63, 0
8, 45780, Note_on_c, 2, 67, 48
8, 45839, Note_on_c, 2, 67, 0
8, 45840, Note_on_c, 2, 70, 48
8, 45929, Note_on_c, 2, 70, 0
8, 45960, Note_on_c, 2, 70, 48
8, 46019, Note_on_c, 2, 70, 0
8, 46020, Note_on_c, 2, 68, 48
8, 46079, Note_on_c, 2, 68, 0
8, 46080, Note_on_c, 2, 67, 48
8, 46139, Note_on_c, 2, 67, 0
8, 46140, Note_on_c, 2, 70, 48
8, 46195, Note_on_c, 2, 70, 0
8, 46200, Note_on_c, 2, 73, 48
8, 46439, Note_on_c, 2, 73, 0
8, 47880, Note_on_c, 2, 68, 52
8, 47880, Note_on_c, 2, 72, 52
8, 47939, Note_on_c, 2, 68, 0
8, 47939, Note_on_c, 2, 72, 0
8, 47940, Note_on_c, 2, 68, 52
8, 47940, Note_on_c, 2, 65, 52
8, 47999, Note_on_c, 2, 68, 0
8, 47999, Note_on_c, 2, 65, 0
8, 48000, Note_on_c, 2, 65, 52
8, 48000, Note_on_c, 2, 62, 52
8, 48089, Note_on_c, 2, 65, 0
8, 48089, Note_on_c, 2, 62, 0
8, 48120, Note_on_c, 2, 65, 52
8, 48120, Note_on_c, 2, 62, 52
8, 48179, Note_on_c, 2, 65, 0
8, 48179, Note_on_c, 2, 62, 0
8, 48180, Note_on_c, 2, 63, 52
8, 48180, Note_on_c, 2, 67, 52
8, 48239, Note_on_c, 2, 63, 0
8, 48239, Note_on_c, 2, 67, 0
8, 48240, Note_on_c, 2, 68, 52
8, 48240, Note_on_c, 2, 65, 52
8, 48299, Note_on_c, 2, 68, 0
8, 48299, Note_on_c, 2, 65, 0
8, 48300, Note_on_c, 2, 70, 52
8, 48300, Note_on_c, 2, 67, 52
8, 48359, Note_on_c, 2, 70, 0
8, 48359, Note_on_c, 2, 67, 0
8, 48360, Note_on_c, 2, 72, 52
8, 48360, Note_on_c, 2, 68, 52
8, 48471, Note_on_c, 2, 72, 0
8, 48471, Note_on_c, 2, 68, 0
8, 48480, Note_on_c, 2, 72, 52
8, 48480, Note_on_c, 2, 68, 52
8, 48539, Note_on_c, 2, 72, 0
8, 48539, Note_on_c, 2, 68, 0
8, 48540, Note_on_c, 2, 70, 52
8, 48540, Note_on_c, 2, 67, 52
8, 48599, Note_on_c, 2, 70, 0
8, 48599, Note_on_c, 2, 67, 0
8, 48600, Note_on_c, 2, 65, 52
8, 48600, Note_on_c, 2, 68, 52
8, 48659, Note_on_c, 2, 65, 0
8, 48659, Note_on_c, 2, 68, 0
8, 48660, Note_on_c, 2, 63, 52
8, 48660, Note_on_c, 2, 67, 52
8, 48715, Note_on_c, 2, 63, 0
8, 48715, Note_on_c, 2, 67, 0
8, 48720, Note_on_c, 2, 65, 52
8, 48720, Note_on_c, 2, 62, 52
8, 48779, Note_on_c, 2, 65, 0
8, 48779, Note_on_c, 2, 62, 0
8, 48780, Note_on_c, 2, 63, 53
8, 48780, Note_on_c, 2, 67, 53
8, 48839, Note_on_c, 2, 63, 0
8, 48839, Note_on_c, 2, 67, 0
8, 48840, Note_on_c, 2, 65, 55
8, 48840, Note_on_c, 2, 68, 55
8, 48899, Note_on_c, 2, 65, 0
8, 48899, Note_on_c, 2, 68, 0
8, 48900, Note_on_c, 2, 67, 57
8, 48900, Note_on_c, 2, 70, 57
8, 48959, Note_on_c, 2, 67, 0
8, 48959, Note_on_c, 2, 70, 0
8, 48960, Note_on_c, 2, 72, 59
8, 48960, Note_on_c, 2, 68, 59
8, 49019, Note_on_c, 2, 72, 0
8, 49019, Note_on_c, 2, 68, 0
8, 49020, Note_on_c, 2, 67, 60
8, 49020, Note_on_c, 2, 70, 60
8, 49079, Note_on_c, 2, 67, 0
8, 49079, Note_on_c, 2, 70, 0
8, 49080, Note_on_c, 2, 68, 62
8, 49080, Note_on_c, 2, 65, 62
8, 49139, Note_on_c, 2, 68, 0
8, 49139, Note_on_c, 2, 65, 0
8, 49140, Note_on_c, 2, 63, 64
8, 49140, Note_on_c, 2, 67, 64
8, 49199, Note_on_c, 2, 63, 0
8, 49199, Note_on_c, 2, 67, 0
8, 49200, Note_on_c, 2, 62, 66
8, 49200, Note_on_c, 2, 65, 66
8, 49255, Note_on_c, 2, 62, 0
8, 49255, Note_on_c, 2, 65, 0
8, 49260, Note_on_c, 2, 62, 68
8, 49260, Note_on_c, 2, 58, 68
8, 49319, Note_on_c, 2, 62, 0
8, 49319, Note_on_c, 2, 58, 0
8, 49320, Note_on_c, 2, 63, 63
8, 49320, Note_on_c, 2, 60, 63
8, 49379, Note_on_c, 2, 63, 0
8, 49379, Note_on_c, 2, 60, 0
8, 49380, Note_on_c, 2, 65, 58
8, 49380, Note_on_c, 2, 62, 58
8, 49439, Note_on_c, 2, 65, 0
8, 49439, Note_on_c, 2, 62, 0
8, 49440, Note_on_c, 2, 63, 52
8, 49440, Note_on_c, 2, 67, 52
8, 49499, Note_on_c, 2, 63, 0
8, 49499, Note_on_c, 2, 67, 0
8, 49500, Note_on_c, 2, 68, 52
8, 49500, Note_on_c, 2, 65, 52
8, 49559, Note_on_c, 2, 68, 0
8, 49559, Note_on_c, 2, 65, 0
8, 49560, Note_on_c, 2, 70, 52
8, 49560, Note_on_c, 2, 67, 52
8, 49619, Note_on_c, 2, 70, 0
8, 49619, Note_on_c, 2, 67, 0
8, 49620, Note_on_c, 2, 68, 52
8, 49620, Note_on_c, 2, 72, 52
8, 49679, Note_on_c, 2, 68, 0
8, 49679, Note_on_c, 2, 72, 0
8, 49680, Note_on_c, 2, 73, 52
8, 49680, Note_on_c, 2, 70, 52
8, 49739, Note_on_c, 2, 73, 0
8, 49739, Note_on_c, 2, 70, 0
8, 49740, Note_on_c, 2, 72, 52
8, 49740, Note_on_c, 2, 75, 52
8, 49799, Note_on_c, 2, 72, 0
8, 49799, Note_on_c, 2, 75, 0
8, 49800, Note_on_c, 2, 77, 52
8, 49800, Note_on_c, 2, 73, 52
8, 49911, Note_on_c, 2, 77, 0
8, 49911, Note_on_c, 2, 73, 0
8, 49920, Note_on_c, 2, 73, 52
8, 49920, Note_on_c, 2, 77, 52
8, 49979, Note_on_c, 2, 73, 0
8, 49979, Note_on_c, 2, 77, 0
8, 49980, Note_on_c, 2, 75, 52
8, 49980, Note_on_c, 2, 72, 52
8, 50039, Note_on_c, 2, 75, 0
8, 50039, Note_on_c, 2, 72, 0
8, 50040, Note_on_c, 2, 73, 52
8, 50040, Note_on_c, 2, 70, 52
8, 50099, Note_on_c, 2, 73, 0
8, 50099, Note_on_c, 2, 70, 0
8, 50100, Note_on_c, 2, 68, 52
8, 50100, Note_on_c, 2, 72, 52
8, 50159, Note_on_c, 2, 68, 0
8, 50159, Note_on_c, 2, 72, 0
8, 50160, Note_on_c, 2, 70, 52
8, 50160, Note_on_c, 2, 67, 52
8, 50271, Note_on_c, 2, 70, 0
8, 50271, Note_on_c, 2, 67, 0
8, 50280, Note_on_c, 2, 70, 52
8, 50280, Note_on_c, 2, 67, 52
8, 50339, Note_on_c, 2, 70, 0
8, 50339, Note_on_c, 2, 67, 0
8, 50340, Note_on_c, 2, 68, 53
8, 50340, Note_on_c, 2, 72, 53
8, 50399, Note_on_c, 2, 68, 0
8, 50399, Note_on_c, 2, 72, 0
8, 50400, Note_on_c, 2, 70, 55
8, 50400, Note_on_c, 2, 73, 55
8, 50459, Note_on_c, 2, 70, 0
8, 50459, Note_on_c, 2, 73, 0
8, 50460, Note_on_c, 2, 75, 56
8, 50460, Note_on_c, 2, 72, 56
8, 50519, Note_on_c, 2, 75, 0
8, 50519, Note_on_c, 2, 72, 0
8, 50520, Note_on_c, 2, 73, 58
8, 50520, Note_on_c, 2, 77, 58
8, 50579, Note_on_c, 2, 73, 0
8, 50579, Note_on_c, 2, 77, 0
8, 50580, Note_on_c, 2, 75, 60
8, 50580, Note_on_c, 2, 72, 60
8, 50639, Note_on_c, 2, 75, 0
8, 50639, Note_on_c, 2, 72, 0
8, 50640, Note_on_c, 2, 70, 61
8, 50640, Note_on_c, 2, 73, 61
8, 50699, Note_on_c, 2, 70, 0
8, 50699, Note_on_c, 2, 73, 0
8, 50700, Note_on_c, 2, 68, 63
8, 50700, Note_on_c, 2, 72, 63
8, 50759, Note_on_c, 2, 68, 0
8, 50759, Note_on_c, 2, 72, 0
8, 50760, Note_on_c, 2, 67, 64
8, 50760, Note_on_c, 2, 70, 64
8, 50819, Note_on_c, 2, 67, 0
8, 50819, Note_on_c, 2, 70, 0
8, 50820, Note_on_c, 2, 72, 66
8, 50820, Note_on_c, 2, 68, 66
8, 50879, Note_on_c, 2, 72, 0
8, 50879, Note_on_c, 2, 68, 0
8, 50880, Note_on_c, 2, 73, 68
8, 50880, Note_on_c, 2, 70, 68
8, 50939, Note_on_c, 2, 73, 0
8, 50939, Note_on_c, 2, 70, 0
8, 50940, Note_on_c, 2, 75, 66
8, 50940, Note_on_c, 2, 72, 66
8, 50999, Note_on_c, 2, 75, 0
8, 50999, Note_on_c, 2, 72, 0
8, 51000, Note_on_c, 2, 73, 63
8, 51000, Note_on_c, 2, 77, 63
8, 51055, Note_on_c, 2, 73, 0
8, 51055, Note_on_c, 2, 77, 0
8, 51060, Note_on_c, 2, 70, 60
8, 51060, Note_on_c, 2, 67, 60
8, 51104, Note_on_c, 2, 70, 0
8, 51104, Note_on_c, 2, 67, 0
8, 51120, Note_on_c, 2, 72, 58
8, 51120, Note_on_c, 2, 68, 58
8, 51164, Note_on_c, 2, 72, 0
8, 51164, Note_on_c, 2, 68, 0
8, 51180, Note_on_c, 2, 73, 55
8, 51180, Note_on_c, 2, 70, 55
8, 51224, Note_on_c, 2, 73, 0
8, 51224, Note_on_c, 2, 70, 0
8, 51240, Note_on_c, 2, 72, 52
8, 51240, Note_on_c, 2, 75, 52
8, 51284, Note_on_c, 2, 72, 0
8, 51284, Note_on_c, 2, 75, 0
8, 51300, Note_on_c, 2, 65, 52
8, 51300, Note_on_c, 2, 68, 52
8, 51344, Note_on_c, 2, 65, 0
8, 51344, Note_on_c, 2, 68, 0
8, 51360, Note_on_c, 2, 70, 52
8, 51360, Note_on_c, 2, 67, 52
8, 51404, Note_on_c, 2, 70, 0
8, 51404, Note_on_c, 2, 67, 0
8, 51420, Note_on_c, 2, 72, 52
8, 51420, Note_on_c, 2, 68, 52
8, 51464, Note_on_c, 2, 72, 0
8, 51464, Note_on_c, 2, 68, 0
8, 51480, Note_on_c, 2, 73, 52
8, 51480, Note_on_c, 2, 70, 52
8, 51524, Note_on_c, 2, 73, 0
8, 51524, Note_on_c, 2, 70, 0
8, 51780, Note_on_c, 2, 65, 52
8, 51780, Note_on_c, 2, 68, 52
8, 51824, Note_on_c, 2, 65, 0
8, 51824, Note_on_c, 2, 68, 0
8, 51840, Note_on_c, 2, 67, 52
8, 51840, Note_on_c, 2, 70, 52
8, 51884, Note_on_c, 2, 67, 0
8, 51884, Note_on_c, 2, 70, 0
8, 51900, Note_on_c, 2, 72, 52
8, 51900, Note_on_c, 2, 68, 52
8, 51944, Note_on_c, 2, 72, 0
8, 51944, Note_on_c, 2, 68, 0
8, 51960, Note_on_c, 2, 73, 52
8, 51960, Note_on_c, 2, 70, 52
8, 52015, Note_on_c, 2, 73, 0
8, 52015, Note_on_c, 2, 70, 0
8, 52020, Note_on_c, 2, 73, 54
8, 52020, Note_on_c, 2, 70, 54
8, 52075, Note_on_c, 2, 73, 0
8, 52075, Note_on_c, 2, 70, 0
8, 52080, Note_on_c, 2, 70, 56
8, 52080, Note_on_c, 2, 73, 56
8, 52135, Note_on_c, 2, 70, 0
8, 52135, Note_on_c, 2, 73, 0
8, 52140, Note_on_c, 2, 73, 58
8, 52140, Note_on_c, 2, 70, 58
8, 52195, Note_on_c, 2, 73, 0
8, 52195, Note_on_c, 2, 70, 0
8, 52200, Note_on_c, 2, 73, 60
8, 52200, Note_on_c, 2, 70, 60
8, 52255, Note_on_c, 2, 73, 0
8, 52255, Note_on_c, 2, 70, 0
8, 52260, Note_on_c, 2, 70, 62
8, 52260, Note_on_c, 2, 73, 62
8, 52315, Note_on_c, 2, 70, 0
8, 52315, Note_on_c, 2, 73, 0
8, 52320, Note_on_c, 2, 74, 64
8, 52320, Note_on_c, 2, 71, 64
8, 52375, Note_on_c, 2, 74, 0
8, 52375, Note_on_c, 2, 71, 0
8, 52380, Note_on_c, 2, 74, 66
8, 52380, Note_on_c, 2, 71, 66
8, 52435, Note_on_c, 2, 74, 0
8, 52435, Note_on_c, 2, 71, 0
8, 52440, Note_on_c, 2, 74, 68
8, 52440, Note_on_c, 2, 71, 68
8, 52495, Note_on_c, 2, 74, 0
8, 52495, Note_on_c, 2, 71, 0
8, 52500, Note_on_c, 2, 74, 70
8, 52500, Note_on_c, 2, 71, 70
8, 52559, Note_on_c, 2, 74, 0
8, 52559, Note_on_c, 2, 71, 0
8, 53040, Note_on_c, 2, 60, 84
8, 53151, Note_on_c, 2, 60, 0
8, 53160, Note_on_c, 2, 60, 84
8, 53271, Note_on_c, 2, 60, 0
8, 53280, Note_on_c, 2, 62, 84
8, 53280, Note_on_c, 2, 59, 84
8, 53391, Note_on_c, 2, 62, 0
8, 53391, Note_on_c, 2, 59, 0
8, 53400, Note_on_c, 2, 60, 84
8, 53400, Note_on_c, 2, 64, 84
8, 53991, Note_on_c, 2, 60, 0
8, 53991, Note_on_c, 2, 64, 0
8, 54000, Note_on_c, 2, 60, 84
8, 54085, Note_on_c, 2, 60, 0
8, 54090, Note_on_c, 2, 59, 84
8, 54090, Note_on_c, 2, 62, 84
8, 54115, Note_on_c, 2, 59, 0
8, 54115, Note_on_c, 2, 62, 0
8, 54120, Note_on_c, 2, 60, 84
8, 54120, Note_on_c, 2, 64, 84
8, 54231, Note_on_c, 2, 60, 0
8, 54231, Note_on_c, 2, 64, 0
8, 54240, Note_on_c, 2, 60, 84
8, 54240, Note_on_c, 2, 64, 84
8, 54351, Note_on_c, 2, 60, 0
8, 54351, Note_on_c, 2, 64, 0
8, 54360, Note_on_c, 2, 65, 84
8, 54360, Note_on_c, 2, 62, 84
8, 54471, Note_on_c, 2, 65, 0
8, 54471, Note_on_c, 2, 62, 0
8, 54480, Note_on_c, 2, 67, 84
8, 54480, Note_on_c, 2, 64, 84
8, 55071, Note_on_c, 2, 67, 0
8, 55071, Note_on_c, 2, 64, 0
8, 55080, Note_on_c, 2, 60, 84
8, 55080, Note_on_c, 2, 64, 84
8, 55165, Note_on_c, 2, 60, 0
8, 55165, Note_on_c, 2, 64, 0
8, 55170, Note_on_c, 2, 65, 84
8, 55170, Note_on_c, 2, 62, 84
8, 55195, Note_on_c, 2, 65, 0
8, 55195, Note_on_c, 2, 62, 0
8, 55200, Note_on_c, 2, 67, 84
8, 55200, Note_on_c, 2, 64, 84
8, 55431, Note_on_c, 2, 67, 0
8, 55431, Note_on_c, 2, 64, 0
8, 55440, Note_on_c, 2, 60, 84
8, 55440, Note_on_c, 2, 64, 84
8, 55525, Note_on_c, 2, 60, 0
8, 55525, Note_on_c, 2, 64, 0
8, 55530, Note_on_c, 2, 65, 84
8, 55530, Note_on_c, 2, 62, 84
8, 55555, Note_on_c, 2, 65, 0
8, 55555, Note_on_c, 2, 62, 0
8, 55560, Note_on_c, 2, 64, 84
8, 55560, Note_on_c, 2, 67, 84
8, 55791, Note_on_c, 2, 64, 0
8, 55791, Note_on_c, 2, 67, 0
8, 55800, Note_on_c, 2, 64, 84
8, 55800, Note_on_c, 2, 60, 84
8, 55885, Note_on_c, 2, 64, 0
8, 55885, Note_on_c, 2, 60, 0
8, 55890, Note_on_c, 2, 62, 84
8, 55890, Note_on_c, 2, 65, 84
8, 55915, Note_on_c, 2, 62, 0
8, 55915, Note_on_c, 2, 65, 0
8, 55920, Note_on_c, 2, 64, 84
8, 55920, Note_on_c, 2, 67, 84
8, 56039, Note_on_c, 2, 64, 0
8, 56039, Note_on_c, 2, 67, 0
8, 59760, Note_on_c, 2, 63, 52
8, 59804, Note_on_c, 2, 63, 0
8, 59850, Note_on_c, 2, 68, 52
8, 59871, Note_on_c, 2, 68, 0
8, 59880, Note_on_c, 2, 71, 52
8, 59991, Note_on_c, 2, 71, 0
8, 60000, Note_on_c, 2, 71, 52
8, 60044, Note_on_c, 2, 71, 0
8, 60090, Note_on_c, 2, 70, 52
8, 60111, Note_on_c, 2, 70, 0
8, 60120, Note_on_c, 2, 68, 52
8, 60164, Note_on_c, 2, 68, 0
8, 60210, Note_on_c, 2, 71, 52
8, 60231, Note_on_c, 2, 71, 0
8, 60240, Note_on_c, 2, 67, 52
8, 60471, Note_on_c, 2, 67, 0
8, 60480, Note_on_c, 2, 68, 52
8, 60524, Note_on_c, 2, 68, 0
8, 60570, Note_on_c, 2, 70, 52
8, 60591, Note_on_c, 2, 70, 0
8, 60600, Note_on_c, 2, 71, 52
8, 60711, Note_on_c, 2, 71, 0
8, 60720, Note_on_c, 2, 71, 52
8, 60764, Note_on_c, 2, 71, 0
8, 60810, Note_on_c, 2, 70, 52
8, 60831, Note_on_c, 2, 70, 0
8, 60840, Note_on_c, 2, 68, 52
8, 60884, Note_on_c, 2, 68, 0
8, 60930, Note_on_c, 2, 71, 52
8, 60951, Note_on_c, 2, 71, 0
8, 60960, Note_on_c, 2, 73, 52
8, 61191, Note_on_c, 2, 73, 0
8, 61200, Note_on_c, 2, 71, 52
8, 61244, Note_on_c, 2, 71, 0
8, 61290, Note_on_c, 2, 73, 52
8, 61311, Note_on_c, 2, 73, 0
8, 61320, Note_on_c, 2, 75, 52
8, 61431, Note_on_c, 2, 75, 0
8, 61440, Note_on_c, 2, 75, 52
8, 61484, Note_on_c, 2, 75, 0
8, 61530, Note_on_c, 2, 73, 52
8, 61551, Note_on_c, 2, 73, 0
8, 61560, Note_on_c, 2, 71, 52
8, 61604, Note_on_c, 2, 71, 0
8, 61650, Note_on_c, 2, 75, 52
8, 61671, Note_on_c, 2, 75, 0
8, 61680, Note_on_c, 2, 73, 52
8, 61911, Note_on_c, 2, 73, 0
8, 61920, Note_on_c, 2, 75, 52
8, 61964, Note_on_c, 2, 75, 0
8, 62010, Note_on_c, 2, 73, 52
8, 62031, Note_on_c, 2, 73, 0
8, 62040, Note_on_c, 2, 71, 52
8, 62151, Note_on_c, 2, 71, 0
8, 62160, Note_on_c, 2, 71, 52
8, 62204, Note_on_c, 2, 71, 0
8, 62250, Note_on_c, 2, 70, 52
8, 62271, Note_on_c, 2, 70, 0
8, 62280, Note_on_c, 2, 68, 52
8, 62324, Note_on_c, 2, 68, 0
8, 62370, Note_on_c, 2, 71, 52
8, 62391, Note_on_c, 2, 71, 0
8, 62398, Control_c, 2, 11, 80
8, 62400, Note_on_c, 2, 70, 76
8, 62400, Control_c, 2, 11, 80
8, 62420, Control_c, 2, 11, 81
8, 62440, Control_c, 2, 11, 83
8, 62460, Control_c, 2, 11, 84
8, 62480, Control_c, 2, 11, 85
8, 62500, Control_c, 2, 11, 87
8, 62520, Control_c, 2, 11, 88
8, 62540, Control_c, 2, 11, 89
8, 62560, Control_c, 2, 11, 90
8, 62579, Note_on_c, 2, 70, 0
8, 62580, Note_on_c, 2, 71, 76
8, 62580, Control_c, 2, 11, 92
8, 62600, Control_c, 2, 11, 93
8, 62620, Control_c, 2, 11, 94
8, 62639, Note_on_c, 2, 71, 0
8, 62640, Control_c, 2, 11, 96
8, 62640, Note_on_c, 2, 68, 76
8, 62660, Control_c, 2, 11, 97
8, 62680, Control_c, 2, 11, 98
8, 62699, Note_on_c, 2, 68, 0
8, 62700, Note_on_c, 2, 68, 76
8, 62700, Control_c, 2, 11, 100
8, 62700, Note_on_c, 2, 71, 76
8, 62720, Control_c, 2, 11, 101
8, 62740, Control_c, 2, 11, 102
8, 62755, Note_on_c, 2, 68, 0
8, 62755, Note_on_c, 2, 71, 0
8, 62760, Note_on_c, 2, 70, 76
8, 62760, Control_c, 2, 11, 104
8, 62760, Note_on_c, 2, 67, 76
8, 62780, Control_c, 2, 11, 105
8, 62800, Control_c, 2, 11, 106
8, 62820, Control_c, 2, 11, 107
8, 62840, Control_c, 2, 11, 109
8, 62860, Control_c, 2, 11, 110
8, 62880, Control_c, 2, 11, 111
8, 62900, Control_c, 2, 11, 113
8, 62920, Control_c, 2, 11, 114
8, 62939, Note_on_c, 2, 70, 0
8, 62939, Note_on_c, 2, 67, 0
8, 62940, Note_on_c, 2, 71, 76
8, 62940, Note_on_c, 2, 68, 76
8, 62940, Control_c, 2, 11, 115
8, 62960, Control_c, 2, 11, 117
8, 62980, Control_c, 2, 11, 118
8, 62999, Note_on_c, 2, 71, 0
8, 62999, Note_on_c, 2, 68, 0
8, 63000, Control_c, 2, 11, 119
8, 63000, Note_on_c, 2, 63, 76
8, 63000, Note_on_c, 2, 68, 76
8, 63020, Control_c, 2, 11, 120
8, 63040, Control_c, 2, 11, 122
8, 63059, Note_on_c, 2, 63, 0
8, 63059, Note_on_c, 2, 68, 0
8, 63060, Control_c, 2, 11, 123
8, 63060, Note_on_c, 2, 71, 76
8, 63060, Note_on_c, 2, 68, 76
8, 63080, Control_c, 2, 11, 124
8, 63100, Control_c, 2, 11, 127
8, 63115, Note_on_c, 2, 71, 0
8, 63115, Note_on_c, 2, 68, 0
8, 63120, Note_on_c, 2, 70, 76
8, 63120, Note_on_c, 2, 67, 76
8, 63164, Note_on_c, 2, 70, 0
8, 63164, Note_on_c, 2, 67, 0
8, 63180, Note_on_c, 2, 75, 76
8, 63180, Note_on_c, 2, 67, 76
8, 63224, Note_on_c, 2, 75, 0
8, 63224, Note_on_c, 2, 67, 0
8, 63720, Note_on_c, 2, 69, 48
8, 63779, Note_on_c, 2, 69, 0
8, 63780, Note_on_c, 2, 70, 48
8, 63839, Note_on_c, 2, 70, 0
8, 63840, Note_on_c, 2, 72, 48
8, 63899, Note_on_c, 2, 72, 0
8, 63900, Note_on_c, 2, 73, 48
8, 63959, Note_on_c, 2, 73, 0
8, 63960, Note_on_c, 2, 75, 48
8, 64019, Note_on_c, 2, 75, 0
8, 64020, Note_on_c, 2, 77, 48
8, 64075, Note_on_c, 2, 77, 0
8, 64080, Note_on_c, 2, 69, 48
8, 64139, Note_on_c, 2, 69, 0
8, 64140, Note_on_c, 2, 70, 48
8, 64199, Note_on_c, 2, 70, 0
8, 64200, Note_on_c, 2, 72, 48
8, 64259, Note_on_c, 2, 72, 0
8, 64260, Note_on_c, 2, 73, 48
8, 64319, Note_on_c, 2, 73, 0
8, 66120, Note_on_c, 2, 58, 77
8, 66149, Note_on_c, 2, 58, 0
8, 66150, Note_on_c, 2, 60, 78
8, 66179, Note_on_c, 2, 60, 0
8, 66180, Note_on_c, 2, 61, 79
8, 66209, Note_on_c, 2, 61, 0
8, 66210, Note_on_c, 2, 63, 79
8, 66239, Note_on_c, 2, 63, 0
8, 66240, Note_on_c, 2, 65, 80
8, 66269, Note_on_c, 2, 65, 0
8, 66270, Note_on_c, 2, 67, 81
8, 66299, Note_on_c, 2, 67, 0
8, 66300, Note_on_c, 2, 68, 82
8, 66329, Note_on_c, 2, 68, 0
8, 66330, Note_on_c, 2, 70, 83
8, 66355, Note_on_c, 2, 70, 0
8, 66360, Note_on_c, 2, 72, 84
8, 66809, Note_on_c, 2, 72, 0
8, 66810, Note_on_c, 2, 70, 84
8, 66839, Note_on_c, 2, 70, 0
8, 66840, Note_on_c, 2, 68, 84
8, 66929, Note_on_c, 2, 68, 0
8, 66930, Note_on_c, 2, 72, 84
8, 66955, Note_on_c, 2, 72, 0
8, 66960, Note_on_c, 2, 65, 84
8, 67191, Note_on_c, 2, 65, 0
8, 67200, Note_on_c, 2, 73, 84
8, 67289, Note_on_c, 2, 73, 0
8, 67290, Note_on_c, 2, 72, 84
8, 67319, Note_on_c, 2, 72, 0
8, 67320, Note_on_c, 2, 70, 84
8, 67409, Note_on_c, 2, 70, 0
8, 67410, Note_on_c, 2, 73, 84
8, 67435, Note_on_c, 2, 73, 0
8, 67440, Note_on_c, 2, 67, 84
8, 67529, Note_on_c, 2, 67, 0
8, 67530, Note_on_c, 2, 70, 84
8, 67559, Note_on_c, 2, 70, 0
8, 67560, Note_on_c, 2, 64, 84
8, 67649, Note_on_c, 2, 64, 0
8, 67650, Note_on_c, 2, 67, 84
8, 67675, Note_on_c, 2, 67, 0
8, 67680, Note_on_c, 2, 72, 84
8, 67911, Note_on_c, 2, 72, 0
8, 67920, Note_on_c, 2, 73, 84
8, 68009, Note_on_c, 2, 73, 0
8, 68010, Note_on_c, 2, 70, 84
8, 68035, Note_on_c, 2, 70, 0
8, 68040, Note_on_c, 2, 77, 84
8, 68151, Note_on_c, 2, 77, 0
8, 68160, Note_on_c, 2, 70, 84
8, 68271, Note_on_c, 2, 70, 0
8, 68280, Note_on_c, 2, 72, 84
8, 68369, Note_on_c, 2, 72, 0
8, 68370, Note_on_c, 2, 68, 84
8, 68395, Note_on_c, 2, 68, 0
8, 68400, Note_on_c, 2, 75, 84
8, 68511, Note_on_c, 2, 75, 0
8, 68520, Note_on_c, 2, 70, 84
8, 68520, Note_on_c, 2, 75, 84
8, 68639, Note_on_c, 2, 70, 0
8, 68639, Note_on_c, 2, 75, 0
8, 68880, Note_on_c, 2, 75, 84
8, 68880, Note_on_c, 2, 72, 84
8, 68999, Note_on_c, 2, 75, 0
8, 68999, Note_on_c, 2, 72, 0
8, 69240, Note_on_c, 2, 63, 84
8, 69265, Note_on_c, 2, 63, 0
8, 69270, Note_on_c, 2, 62, 84
8, 69295, Note_on_c, 2, 62, 0
8, 69300, Note_on_c, 2, 63, 84
8, 69325, Note_on_c, 2, 63, 0
8, 69330, Note_on_c, 2, 65, 84
8, 69355, Note_on_c, 2, 65, 0
8, 69360, Note_on_c, 2, 67, 84
8, 69385, Note_on_c, 2, 67, 0
8, 69390, Note_on_c, 2, 68, 84
8, 69415, Note_on_c, 2, 68, 0
8, 69420, Note_on_c, 2, 70, 84
8, 69420, Note_on_c, 2, 58, 84
8, 69445, Note_on_c, 2, 70, 0
8, 69445, Note_on_c, 2, 58, 0
8, 69450, Note_on_c, 2, 60, 84
8, 69450, Note_on_c, 2, 72, 84
8, 69475, Note_on_c, 2, 60, 0
8, 69475, Note_on_c, 2, 72, 0
8, 69480, Note_on_c, 2, 73, 84
8, 69480, Note_on_c, 2, 61, 84
8, 69505, Note_on_c, 2, 73, 0
8, 69505, Note_on_c, 2, 61, 0
8, 69510, Note_on_c, 2, 63, 84
8, 69510, Note_on_c, 2, 75, 84
8, 69535, Note_on_c, 2, 63, 0
8, 69535, Note_on_c, 2, 75, 0
8, 69540, Note_on_c, 2, 77, 84
8, 69540, Note_on_c, 2, 65, 84
8, 69565, Note_on_c, 2, 77, 0
8, 69565, Note_on_c, 2, 65, 0
8, 69570, Note_on_c, 2, 79, 84
8, 69570, Note_on_c, 2, 67, 84
8, 69595, Note_on_c, 2, 79, 0
8, 69595, Note_on_c, 2, 67, 0
8, 69600, Note_on_c, 2, 68, 84
8, 69600, Note_on_c, 2, 80, 84
8, 69719, Note_on_c, 2, 68, 0
8, 69719, Note_on_c, 2, 80, 0
8, 69840, Note_on_c, 2, 68, 84
8, 69840, Note_on_c, 2, 56, 84
8, 69929, Note_on_c, 2, 68, 0
8, 69929, Note_on_c, 2, 56, 0
8, 69930, Note_on_c, 2, 60, 84
8, 69930, Note_on_c, 2, 72, 84
8, 69955, Note_on_c, 2, 60, 0
8, 69955, Note_on_c, 2, 72, 0
8, 69960, Note_on_c, 2, 63, 92
8, 69960, Note_on_c, 2, 75, 92
8, 70020, Control_c, 2, 11, 112
8, 70030, Control_c, 2, 11, 108
8, 70040, Control_c, 2, 11, 105
8, 70050, Control_c, 2, 11, 101
8, 70060, Control_c, 2, 11, 98
8, 70070, Control_c, 2, 11, 94
8, 70079, Note_on_c, 2, 63, 0
8, 70080, Control_c, 2, 11, 91
8, 70090, Control_c, 2, 11, 87
8, 70100, Control_c, 2, 11, 84
8, 70110, Control_c, 2, 11, 80
8, 70120, Control_c, 2, 11, 76
8, 70130, Control_c, 2, 11, 73
8, 70140, Control_c, 2, 11, 69
8, 70150, Control_c, 2, 11, 66
8, 70160, Control_c, 2, 11, 62
8, 70170, Control_c, 2, 11, 59
8, 70180, Control_c, 2, 11, 55
8, 70190, Control_c, 2, 11, 48
8, 70311, Note_on_c, 2, 75, 0
8, 70320, Note_on_c, 2, 73, 88
8, 70320, Note_on_c, 2, 68, 88
8, 70439, Note_on_c, 2, 73, 0
8, 70440, Note_on_c, 2, 72, 88
8, 70671, Note_on_c, 2, 68, 0
8, 70671, Note_on_c, 2, 72, 0
8, 70680, Note_on_c, 2, 63, 88
8, 70680, Note_on_c, 2, 70, 88
8, 70799, Note_on_c, 2, 70, 0
8, 70800, Note_on_c, 2, 68, 88
8, 71031, Note_on_c, 2, 63, 0
8, 71031, Note_on_c, 2, 68, 0
8, 71040, Note_on_c, 2, 70, 88
8, 71040, Note_on_c, 2, 73, 88
8, 71151, Note_on_c, 2, 70, 0
8, 71151, Note_on_c, 2, 73, 0
8, 71160, Note_on_c, 2, 70, 88
8, 71160, Note_on_c, 2, 73, 88
8, 71271, Note_on_c, 2, 70, 0
8, 71271, Note_on_c, 2, 73, 0
8, 71280, Note_on_c, 2, 70, 88
8, 71280, Note_on_c, 2, 73, 88
8, 71369, Note_on_c, 2, 70, 0
8, 71370, Note_on_c, 2, 67, 88
8, 71391, Note_on_c, 2, 73, 0
8, 71395, Note_on_c, 2, 67, 0
8, 71400, Note_on_c, 2, 68, 88
8, 71400, Note_on_c, 2, 72, 88
8, 71519, Note_on_c, 2, 68, 0
8, 71519, Note_on_c, 2, 72, 0
8, 72840, Control_c, 2, 11, 127
8, 73080, Note_on_c, 2, 73, 52
8, 73119, Note_on_c, 2, 73, 0
8, 73120, Note_on_c, 2, 72, 52
8, 73159, Note_on_c, 2, 72, 0
8, 73160, Note_on_c, 2, 73, 52
8, 73195, Note_on_c, 2, 73, 0
8, 73200, Note_on_c, 2, 72, 52
8, 73319, Note_on_c, 2, 72, 0
8, 77040, Note_on_c, 2, 75, 76
8, 77040, Note_on_c, 2, 67, 76
8, 77159, Note_on_c, 2, 75, 0
8, 77159, Note_on_c, 2, 67, 0
8, 77160, Note_on_c, 2, 68, 76
8, 77160, Note_on_c, 2, 72, 76
8, 77279, Note_on_c, 2, 68, 0
8, 77279, Note_on_c, 2, 72, 0
8, 77760, Note_on_c, 2, 75, 76
8, 77760, Note_on_c, 2, 70, 76
8, 77879, Note_on_c, 2, 70, 0
8, 77880, Note_on_c, 2, 72, 76
8, 77999, Note_on_c, 2, 75, 0
8, 77999, Note_on_c, 2, 72, 0
8, 78040, Note_on_c, 2, 56, 57
8, 78079, Note_on_c, 2, 56, 0
8, 78080, Note_on_c, 2, 60, 62
8, 78119, Note_on_c, 2, 60, 0
8, 78120, Note_on_c, 2, 63, 68
8, 78159, Note_on_c, 2, 63, 0
8, 78160, Note_on_c, 2, 68, 73
8, 78199, Note_on_c, 2, 68, 0
8, 78200, Note_on_c, 2, 60, 78
8, 78200, Note_on_c, 2, 72, 78
8, 78235, Note_on_c, 2, 60, 0
8, 78235, Note_on_c, 2, 72, 0
8, 78240, Note_on_c, 2, 63, 84
8, 78279, Note_on_c, 2, 63, 0
8, 78280, Note_on_c, 2, 68, 84
8, 78319, Note_on_c, 2, 68, 0
8, 78320, Note_on_c, 2, 72, 84
8, 78355, Note_on_c, 2, 72, 0
8, 78360, Note_on_c, 2, 75, 84
8, 78479, Note_on_c, 2, 75, 0
8, 78480, Note_on_c, 2, 67, 84
8, 78600, Control_c, 2, 11, 127
8, 78600, Note_on_c, 2, 70, 84
8, 78613, Control_c, 2, 11, 124
8, 78627, Control_c, 2, 11, 120
8, 78640, Control_c, 2, 11, 117
8, 78653, Control_c, 2, 11, 113
8, 78667, Control_c, 2, 11, 110
8, 78680, Control_c, 2, 11, 106
8, 78693, Control_c, 2, 11, 103
8, 78707, Control_c, 2, 11, 99
8, 78719, Note_on_c, 2, 70, 0
8, 78720, Note_on_c, 2, 75, 84
8, 78720, Control_c, 2, 11, 96
8, 78733, Control_c, 2, 11, 92
8, 78747, Control_c, 2, 11, 89
8, 78760, Control_c, 2, 11, 85
8, 78773, Control_c, 2, 11, 82
8, 78787, Control_c, 2, 11, 78
8, 78800, Control_c, 2, 11, 75
8, 78813, Control_c, 2, 11, 71
8, 78827, Control_c, 2, 11, 64
8, 78951, Note_on_c, 2, 67, 0
8, 78951, Note_on_c, 2, 75, 0
8, 78960, Note_on_c, 2, 68, 80
8, 78960, Note_on_c, 2, 73, 80
8, 79079, Note_on_c, 2, 73, 0
8, 79080, Note_on_c, 2, 72, 80
8, 79311, Note_on_c, 2, 68, 0
8, 79311, Note_on_c, 2, 72, 0
8, 79320, Note_on_c, 2, 63, 80
8, 79320, Note_on_c, 2, 70, 80
8, 79439, Note_on_c, 2, 70, 0
8, 79440, Note_on_c, 2, 68, 80
8, 79671, Note_on_c, 2, 63, 0
8, 79671, Note_on_c, 2, 68, 0
8, 79680, Note_on_c, 2, 73, 80
8, 79680, Note_on_c, 2, 70, 80
8, 79791, Note_on_c, 2, 73, 0
8, 79791, Note_on_c, 2, 70, 0
8, 79800, Note_on_c, 2, 70, 80
8, 79800, Note_on_c, 2, 73, 80
8, 79911, Note_on_c, 2, 70, 0
8, 79911, Note_on_c, 2, 73, 0
8, 79920, Note_on_c, 2, 70, 80
8, 79920, Note_on_c, 2, 73, 80
8, 80009, Note_on_c, 2, 70, 0
8, 80010, Note_on_c, 2, 67, 80
8, 80031, Note_on_c, 2, 73, 0
8, 80035, Note_on_c, 2, 67, 0
8, 80040, Note_on_c, 2, 72, 80
8, 80040, Note_on_c, 2, 68, 80
8, 80159, Note_on_c, 2, 72, 0
8, 80159, Note_on_c, 2, 68, 0
8, 80760, Control_c, 2, 11, 127
8, 81060, Note_on_c, 2, 75, 76
8, 81060, Note_on_c, 2, 72, 76
8, 81115, Note_on_c, 2, 75, 0
8, 81115, Note_on_c, 2, 72, 0
8, 81120, Note_on_c, 2, 67, 76
8, 81120, Note_on_c, 2, 75, 76
8, 81179, Note_on_c, 2, 75, 0
8, 81180, Note_on_c, 2, 73, 76
8, 81239, Note_on_c, 2, 67, 0
8, 81239, Note_on_c, 2, 73, 0
8, 81240, Note_on_c, 2, 68, 84
8, 81240, Note_on_c, 2, 72, 84
8, 81419, Note_on_c, 2, 68, 0
8, 81419, Note_on_c, 2, 72, 0
8, 82440, Note_on_c, 2, 63, 48
8, 82499, Note_on_c, 2, 63, 0
8, 82500, Note_on_c, 2, 68, 48
8, 82559, Note_on_c, 2, 68, 0
8, 82560, Note_on_c, 2, 72, 48
8, 82560, Note_on_c, 2, 68, 48
8, 82671, Note_on_c, 2, 72, 0
8, 82671, Note_on_c, 2, 68, 0
8, 82680, Note_on_c, 2, 68, 48
8, 82680, Note_on_c, 2, 72, 48
8, 82739, Note_on_c, 2, 68, 0
8, 82739, Note_on_c, 2, 72, 0
8, 82740, Note_on_c, 2, 70, 48
8, 82740, Note_on_c, 2, 63, 48
8, 82799, Note_on_c, 2, 70, 0
8, 82799, Note_on_c, 2, 63, 0
8, 82800, Note_on_c, 2, 60, 48
8, 82800, Note_on_c, 2, 68, 48
8, 82889, Note_on_c, 2, 60, 0
8, 82889, Note_on_c, 2, 68, 0
8, 82890, Note_on_c, 2, 72, 48
8, 82890, Note_on_c, 2, 68, 48
8, 82919, Note_on_c, 2, 72, 0
8, 82919, Note_on_c, 2, 68, 0
8, 82920, Note_on_c, 2, 75, 48
8, 82920, Note_on_c, 2, 72, 48
8, 83151, Note_on_c, 2, 75, 0
8, 83151, Note_on_c, 2, 72, 0
8, 83160, Note_on_c, 2, 60, 48
8, 83160, Note_on_c, 2, 68, 48
8, 83219, Note_on_c, 2, 60, 0
8, 83219, Note_on_c, 2, 68, 0
8, 83220, Note_on_c, 2, 68, 48
8, 83220, Note_on_c, 2, 72, 48
8, 83279, Note_on_c, 2, 68, 0
8, 83279, Note_on_c, 2, 72, 0
8, 83280, Note_on_c, 2, 72, 48
8, 83280, Note_on_c, 2, 75, 48
8, 83391, Note_on_c, 2, 72, 0
8, 83391, Note_on_c, 2, 75, 0
8, 83400, Note_on_c, 2, 75, 48
8, 83400, Note_on_c, 2, 72, 48
8, 83459, Note_on_c, 2, 75, 0
8, 83459, Note_on_c, 2, 72, 0
8, 83460, Note_on_c, 2, 70, 48
8, 83460, Note_on_c, 2, 73, 48
8, 83519, Note_on_c, 2, 70, 0
8, 83519, Note_on_c, 2, 73, 0
8, 83520, Note_on_c, 2, 68, 48
8, 83520, Note_on_c, 2, 72, 48
8, 83609, Note_on_c, 2, 68, 0
8, 83609, Note_on_c, 2, 72, 0
8, 83610, Note_on_c, 2, 72, 48
8, 83610, Note_on_c, 2, 75, 48
8, 83635, Note_on_c, 2, 72, 0
8, 83635, Note_on_c, 2, 75, 0
8, 83638, Control_c, 2, 11, 80
8, 83640, Note_on_c, 2, 80, 76
8, 83640, Note_on_c, 2, 72, 76
8, 84359, Note_on_c, 2, 80, 0
8, 84359, Note_on_c, 2, 72, 0
8, 84360, Note_on_c, 2, 72, 76
8, 84360, Note_on_c, 2, 80, 76
8, 84360, Control_c, 2, 11, 80
8, 84391, Control_c, 2, 11, 81
8, 84421, Control_c, 2, 11, 82
8, 84452, Control_c, 2, 11, 83
8, 84483, Control_c, 2, 11, 84
8, 84513, Control_c, 2, 11, 85
8, 84544, Control_c, 2, 11, 86
8, 84574, Control_c, 2, 11, 87
8, 84605, Control_c, 2, 11, 88
8, 84636, Control_c, 2, 11, 89
8, 84666, Control_c, 2, 11, 90
8, 84697, Control_c, 2, 11, 91
8, 84728, Control_c, 2, 11, 92
8, 84758, Control_c, 2, 11, 93
8, 84789, Control_c, 2, 11, 94
8, 84820, Control_c, 2, 11, 95
8, 84850, Control_c, 2, 11, 96
8, 84881, Control_c, 2, 11, 97
8, 84911, Control_c, 2, 11, 98
8, 84942, Control_c, 2, 11, 99
8, 84973, Control_c, 2, 11, 100
8, 85003, Control_c, 2, 11, 101
8, 85034, Control_c, 2, 11, 102
8, 85065, Control_c, 2, 11, 103
8, 85071, Note_on_c, 2, 72, 0
8, 85071, Note_on_c, 2, 80, 0
8, 85080, Note_on_c, 2, 72, 76
8, 85080, Note_on_c, 2, 80, 76
8, 85095, Control_c, 2, 11, 104
8, 85126, Control_c, 2, 11, 105
8, 85157, Control_c, 2, 11, 106
8, 85187, Control_c, 2, 11, 107
8, 85191, Note_on_c, 2, 72, 0
8, 85191, Note_on_c, 2, 80, 0
8, 85200, Note_on_c, 2, 80, 76
8, 85200, Note_on_c, 2, 72, 76
8, 85218, Control_c, 2, 11, 108
8, 85249, Control_c, 2, 11, 109
8, 85279, Control_c, 2, 11, 110
8, 85310, Control_c, 2, 11, 111
8, 85311, Note_on_c, 2, 80, 0
8, 85311, Note_on_c, 2, 72, 0
8, 85320, Note_on_c, 2, 72, 76
8, 85320, Note_on_c, 2, 80, 76
8, 85340, Control_c, 2, 11, 112
8, 85371, Control_c, 2, 11, 113
8, 85402, Control_c, 2, 11, 114
8, 85431, Note_on_c, 2, 72, 0
8, 85431, Note_on_c, 2, 80, 0
8, 85432, Control_c, 2, 11, 115
8, 85440, Note_on_c, 2, 80, 76
8, 85440, Note_on_c, 2, 72, 76
8, 85463, Control_c, 2, 11, 116
8, 85494, Control_c, 2, 11, 117
8, 85524, Control_c, 2, 11, 118
8, 85551, Note_on_c, 2, 80, 0
8, 85551, Note_on_c, 2, 72, 0
8, 85555, Control_c, 2, 11, 119
8, 85560, Note_on_c, 2, 80, 76
8, 85560, Note_on_c, 2, 72, 76
8, 85586, Control_c, 2, 11, 120
8, 85616, Control_c, 2, 11, 121
8, 85647, Control_c, 2, 11, 122
8, 85671, Note_on_c, 2, 80, 0
8, 85671, Note_on_c, 2, 72, 0
8, 85677, Control_c, 2, 11, 123
8, 85680, Note_on_c, 2, 72, 76
8, 85680, Note_on_c, 2, 80, 76
8, 85708, Control_c, 2, 11, 124
8, 85739, Control_c, 2, 11, 125
8, 85769, Control_c, 2, 11, 127
8, 85791, Note_on_c, 2, 72, 0
8, 85791, Note_on_c, 2, 80, 0
8, 85800, Note_on_c, 2, 72, 76
8, 85800, Note_on_c, 2, 80, 76
8, 85835, Note_on_c, 2, 72, 0
8, 85835, Note_on_c, 2, 80, 0
8, 85840, Note_on_c, 2, 72, 76
8, 85840, Note_on_c, 2, 80, 76
8, 85875, Note_on_c, 2, 72, 0
8, 85875, Note_on_c, 2, 80, 0
8, 85880, Note_on_c, 2, 72, 76
8, 85880, Note_on_c, 2, 80, 76
8, 85915, Note_on_c, 2, 72, 0
8, 85915, Note_on_c, 2, 80, 0
8, 85920, Note_on_c, 2, 72, 76
8, 85920, Note_on_c, 2, 80, 76
8, 85955, Note_on_c, 2, 72, 0
8, 85955, Note_on_c, 2, 80, 0
8, 85960, Note_on_c, 2, 72, 76
8, 85960, Note_on_c, 2, 80, 76
8, 85995, Note_on_c, 2, 72, 0
8, 85995, Note_on_c, 2, 80, 0
8, 86000, Note_on_c, 2, 80, 76
8, 86000, Note_on_c, 2, 72, 76
8, 86035, Note_on_c, 2, 80, 0
8, 86035, Note_on_c, 2, 72, 0
8, 86040, Note_on_c, 2, 80, 76
8, 86040, Note_on_c, 2, 72, 76
8, 86075, Note_on_c, 2, 80, 0
8, 86075, Note_on_c, 2, 72, 0
8, 86080, Note_on_c, 2, 72, 76
8, 86080, Note_on_c, 2, 80, 76
8, 86115, Note_on_c, 2, 72, 0
8, 86115, Note_on_c, 2, 80, 0
8, 86120, Note_on_c, 2, 80, 76
8, 86120, Note_on_c, 2, 72, 76
8, 86155, Note_on_c, 2, 80, 0
8, 86155, Note_on_c, 2, 72, 0
8, 86160, Note_on_c, 2, 80, 76
8, 86160, Note_on_c, 2, 72, 76
8, 86195, Note_on_c, 2, 80, 0
8, 86195, Note_on_c, 2, 72, 0
8, 86200, Note_on_c, 2, 72, 76
8, 86200, Note_on_c, 2, 80, 76
8, 86235, Note_on_c, 2, 72, 0
8, 86235, Note_on_c, 2, 80, 0
8, 86240, Note_on_c, 2, 80, 76
8, 86240, Note_on_c, 2, 72, 76
8, 86275, Note_on_c, 2, 80, 0
8, 86275, Note_on_c, 2, 72, 0
8, 86280, Note_on_c, 2, 72, 76
8, 86280, Note_on_c, 2, 80, 76
8, 86315, Note_on_c, 2, 72, 0
8, 86315, Note_on_c, 2, 80, 0
8, 86320, Note_on_c, 2, 80, 76
8, 86320, Note_on_c, 2, 72, 76
8, 86355, Note_on_c, 2, 80, 0
8, 86355, Note_on_c, 2, 72, 0
8, 86360, Note_on_c, 2, 80, 76
8, 86360, Note_on_c, 2, 72, 76
8, 86395, Note_on_c, 2, 80, 0
8, 86395, Note_on_c, 2, 72, 0
8, 86400, Note_on_c, 2, 72, 76
8, 86400, Note_on_c, 2, 80, 76
8, 86435, Note_on_c, 2, 72, 0
8, 86435, Note_on_c, 2, 80, 0
8, 86440, Note_on_c, 2, 80, 76
8, 86440, Note_on_c, 2, 72, 76
8, 86475, Note_on_c, 2, 80, 0
8, 86475, Note_on_c, 2, 72, 0
8, 86480, Note_on_c, 2, 80, 76
8, 86480, Note_on_c, 2, 72, 76
8, 86515, Note_on_c, 2, 80, 0
8, 86515, Note_on_c, 2, 72, 0
8, 86520, Note_on_c, 2, 80, 76
8, 86520, Note_on_c, 2, 72, 76
8, 86555, Note_on_c, 2, 80, 0
8, 86555, Note_on_c, 2, 72, 0
8, 86560, Note_on_c, 2, 80, 76
8, 86560, Note_on_c, 2, 72, 76
8, 86595, Note_on_c, 2, 80, 0
8, 86595, Note_on_c, 2, 72, 0
8, 86600, Note_on_c, 2, 72, 76
8, 86600, Note_on_c, 2, 80, 76
8, 86635, Note_on_c, 2, 72, 0
8, 86635, Note_on_c, 2, 80, 0
8, 86640, Note_on_c, 2, 80, 76
8, 86640, Note_on_c, 2, 72, 76
8, 86675, Note_on_c, 2, 80, 0
8, 86675, Note_on_c, 2, 72, 0
8, 86680, Note_on_c, 2, 80, 76
8, 86680, Note_on_c, 2, 72, 76
8, 86715, Note_on_c, 2, 80, 0
8, 86715, Note_on_c, 2, 72, 0
8, 86720, Note_on_c, 2, 80, 76
8, 86720, Note_on_c, 2, 72, 76
8, 86755, Note_on_c, 2, 80, 0
8, 86755, Note_on_c, 2, 72, 0
8, 86760, Note_on_c, 2, 68, 76
8, 86789, Note_on_c, 2, 68, 0
8, 86800, Note_on_c, 2, 72, 76
8, 86829, Note_on_c, 2, 72, 0
8, 86840, Note_on_c, 2, 75, 76
8, 86869, Note_on_c, 2, 75, 0
8, 86880, Note_on_c, 2, 80, 84
8, 86880, Note_on_c, 2, 68, 84
8, 86999, Note_on_c, 2, 80, 0
8, 86999, Note_on_c, 2, 68, 0
8, 87120, Note_on_c, 2, 68, 84
8, 87205, Note_on_c, 2, 68, 0
8, 87210, Note_on_c, 2, 72, 84
8, 87235, Note_on_c, 2, 72, 0
8, 87240, Note_on_c, 2, 75, 92
8, 87584, Note_on_c, 2, 75, 0
8, 87600, Note_on_c, 2, 72, 84
8, 87719, Note_on_c, 2, 72, 0
8, 87840, Note_on_c, 2, 70, 52
8, 87840, Note_on_c, 2, 67, 52
8, 87929, Note_on_c, 2, 70, 0
8, 87929, Note_on_c, 2, 67, 0
8, 87960, Note_on_c, 2, 72, 52
8, 87960, Note_on_c, 2, 68, 52
8, 88049, Note_on_c, 2, 72, 0
8, 88049, Note_on_c, 2, 68, 0
8, 88200, Note_on_c, 2, 68, 76
8, 88285, Note_on_c, 2, 68, 0
8, 88290, Note_on_c, 2, 72, 76
8, 88315, Note_on_c, 2, 72, 0
8, 88320, Note_on_c, 2, 75, 84
8, 88671, Note_on_c, 2, 75, 0
8, 88680, Note_on_c, 2, 68, 84
8, 88799, Note_on_c, 2, 68, 0
8, 88799, End_track
9, 0, Start_track
9, 0, Title_t, "Bassoon"
9, 0, MIDI_port, 0
9, 0, Program_c, 3, 70
9, 0, Control_c, 3, 7, 96
9, 0, Control_c, 3, 10, 65
9, 0, Control_c, 3, 11, 127
9, 2880, Note_on_c, 3, 56, 52
9, 2969, Note_on_c, 3, 56, 0
9, 2970, Note_on_c, 3, 60, 52
9, 2995, Note_on_c, 3, 60, 0
9, 3000, Note_on_c, 3, 63, 76
9, 3359, Note_on_c, 3, 63, 0
9, 3360, Note_on_c, 3, 60, 52
9, 3479, Note_on_c, 3, 60, 0
9, 3600, Note_on_c, 3, 68, 52
9, 3685, Note_on_c, 3, 68, 0
9, 3690, Note_on_c, 3, 68, 52
9, 3715, Note_on_c, 3, 68, 0
9, 3720, Note_on_c, 3, 63, 76
9, 3720, Control_c, 3, 11, 127
9, 3720, Note_on_c, 3, 67, 76
9, 3735, Control_c, 3, 11, 125
9, 3750, Control_c, 3, 11, 123
9, 3765, Control_c, 3, 11, 121
9, 3780, Control_c, 3, 11, 119
9, 3795, Control_c, 3, 11, 117
9, 3810, Control_c, 3, 11, 115
9, 3825, Control_c, 3, 11, 113
9, 3840, Control_c, 3, 11, 111
9, 3855, Control_c, 3, 11, 109
9, 3870, Control_c, 3, 11, 107
9, 3885, Control_c, 3, 11, 105
9, 3900, Control_c, 3, 11, 104
9, 3915, Control_c, 3, 11, 102
9, 3930, Control_c, 3, 11, 100
9, 3945, Control_c, 3, 11, 98
9, 3960, Control_c, 3, 11, 96
9, 3975, Control_c, 3, 11, 94
9, 3990, Control_c, 3, 11, 92
9, 4005, Control_c, 3, 11, 90
9, 4020, Control_c, 3, 11, 88
9, 4035, Control_c, 3, 11, 86
9, 4050, Control_c, 3, 11, 84
9, 4065, Control_c, 3, 11, 82
9, 4071, Note_on_c, 3, 63, 0
9, 4071, Note_on_c, 3, 67, 0
9, 4080, Note_on_c, 3, 65, 76
9, 4080, Control_c, 3, 11, 80
9, 4431, Note_on_c, 3, 65, 0
9, 4440, Note_on_c, 3, 60, 76
9, 4791, Note_on_c, 3, 60, 0
9, 4800, Note_on_c, 3, 63, 76
9, 4911, Note_on_c, 3, 63, 0
9, 4920, Note_on_c, 3, 63, 76
9, 5031, Note_on_c, 3, 63, 0
9, 5040, Note_on_c, 3, 63, 76
9, 5151, Note_on_c, 3, 63, 0
9, 5160, Note_on_c, 3, 63, 76
9, 5160, Note_on_c, 3, 56, 76
9, 5279, Note_on_c, 3, 63, 0
9, 5279, Note_on_c, 3, 56, 0
9, 5520, Note_on_c, 3, 56, 76
9, 5520, Note_on_c, 3, 44, 76
9, 5871, Note_on_c, 3, 56, 0
9, 5871, Note_on_c, 3, 44, 0
9, 5880, Note_on_c, 3, 56, 76
9, 5880, Note_on_c, 3, 51, 76
9, 5880, Control_c, 3, 11, 80
9, 5895, Control_c, 3, 11, 82
9, 5910, Control_c, 3, 11, 84
9, 5925, Control_c, 3, 11, 86
9, 5940, Control_c, 3, 11, 88
9, 5955, Control_c, 3, 11, 90
9, 5970, Control_c, 3, 11, 92
9, 5985, Control_c, 3, 11, 94
9, 6000, Control_c, 3, 11, 96
9, 6015, Control_c, 3, 11, 98
9, 6030, Control_c, 3, 11, 100
9, 6045, Control_c, 3, 11, 102
9, 6060, Control_c, 3, 11, 104
9, 6075, Control_c, 3, 11, 105
9, 6090, Control_c, 3, 11, 107
9, 6105, Control_c, 3, 11, 109
9, 6120, Control_c, 3, 11, 111
9, 6135, Control_c, 3, 11, 113
9, 6150, Control_c, 3, 11, 115
9, 6165, Control_c, 3, 11, 117
9, 6180, Control_c, 3, 11, 119
9, 6195, Control_c, 3, 11, 121
9, 6210, Control_c, 3, 11, 123
9, 6225, Control_c, 3, 11, 125
9, 6231, Note_on_c, 3, 56, 0
9, 6231, Note_on_c, 3, 51, 0
9, 6240, Note_on_c, 3, 51, 76
9, 6240, Note_on_c, 3, 58, 76
9, 6240, Control_c, 3, 11, 127
9, 6351, Note_on_c, 3, 51, 0
9, 6351, Note_on_c, 3, 58, 0
9, 6360, Note_on_c, 3, 58, 76
9, 6360, Note_on_c, 3, 51, 76
9, 6471, Note_on_c, 3, 58, 0
9, 6471, Note_on_c, 3, 51, 0
9, 6480, Note_on_c, 3, 51, 76
9, 6480, Note_on_c, 3, 58, 76
9, 6569, Note_on_c, 3, 58, 0
9, 6570, Note_on_c, 3, 55, 76
9, 6591, Note_on_c, 3, 51, 0
9, 6595, Note_on_c, 3, 55, 0
9, 6600, Note_on_c, 3, 56, 52
9, 6600, Note_on_c, 3, 51, 52
9, 6719, Note_on_c, 3, 56, 0
9, 6719, Note_on_c, 3, 51, 0
9, 6838, Control_c, 3, 11, 96
9, 6840, Control_c, 3, 11, 96
9, 6840, Note_on_c, 3, 63, 68
9, 6853, Control_c, 3, 11, 99
9, 6867, Control_c, 3, 11, 103
9, 6880, Control_c, 3, 11, 106
9, 6893, Control_c, 3, 11, 110
9, 6907, Control_c, 3, 11, 113
9, 6920, Control_c, 3, 11, 117
9, 6933, Control_c, 3, 11, 120
9, 6947, Control_c, 3, 11, 124
9, 6960, Note_on_c, 3, 56, 68
9, 6960, Control_c, 3, 11, 127
9, 6973, Control_c, 3, 11, 124
9, 6987, Control_c, 3, 11, 120
9, 7000, Control_c, 3, 11, 117
9, 7013, Control_c, 3, 11, 113
9, 7027, Control_c, 3, 11, 110
9, 7040, Control_c, 3, 11, 106
9, 7053, Control_c, 3, 11, 103
9, 7067, Control_c, 3, 11, 99
9, 7079, Note_on_c, 3, 63, 0
9, 7079, Note_on_c, 3, 56, 0
9, 7080, Control_c, 3, 11, 96
9, 7198, Control_c, 3, 11, 127
9, 7200, Note_on_c, 3, 63, 76
9, 7200, Note_on_c, 3, 51, 76
9, 7379, Note_on_c, 3, 63, 0
9, 7379, Note_on_c, 3, 51, 0
9, 7440, Note_on_c, 3, 60, 52
9, 7440, Note_on_c, 3, 51, 52
9, 7499, Note_on_c, 3, 60, 0
9, 7499, Note_on_c, 3, 51, 0
9, 7560, Note_on_c, 3, 51, 52
9, 7560, Note_on_c, 3, 60, 52
9, 7619, Note_on_c, 3, 51, 0
9, 7619, Note_on_c, 3, 60, 0
9, 7680, Note_on_c, 3, 56, 52
9, 7680, Note_on_c, 3, 48, 52
9, 7799, Note_on_c, 3, 56, 0
9, 7799, Note_on_c, 3, 48, 0
9, 7920, Note_on_c, 3, 51, 48
9, 8009, Note_on_c, 3, 51, 0
9, 8010, Note_on_c, 3, 55, 48
9, 8035, Note_on_c, 3, 55, 0
9, 8040, Note_on_c, 3, 56, 48
9, 8040, Note_on_c, 3, 48, 48
9, 8151, Note_on_c, 3, 56, 0
9, 8151, Note_on_c, 3, 48, 0
9, 8160, Note_on_c, 3, 56, 48
9, 8160, Note_on_c, 3, 48, 48
9, 8279, Note_on_c, 3, 56, 0
9, 8279, Note_on_c, 3, 48, 0
9, 8280, Note_on_c, 3, 51, 48
9, 8280, Note_on_c, 3, 58, 48
9, 8399, Note_on_c, 3, 51, 0
9, 8399, Note_on_c, 3, 58, 0
9, 8400, Note_on_c, 3, 60, 48
9, 8400, Note_on_c, 3, 56, 48
9, 8631, Note_on_c, 3, 60, 0
9, 8631, Note_on_c, 3, 56, 0
9, 8640, Note_on_c, 3, 48, 48
9, 8640, Note_on_c, 3, 56, 48
9, 8729, Note_on_c, 3, 48, 0
9, 8729, Note_on_c, 3, 56, 0
9, 8730, Note_on_c, 3, 58, 48
9, 8730, Note_on_c, 3, 51, 48
9, 8755, Note_on_c, 3, 58, 0
9, 8755, Note_on_c, 3, 51, 0
9, 8760, Note_on_c, 3, 60, 48
9, 8760, Note_on_c, 3, 56, 48
9, 8871, Note_on_c, 3, 60, 0
9, 8871, Note_on_c, 3, 56, 0
9, 8880, Note_on_c, 3, 56, 48
9, 8880, Note_on_c, 3, 60, 48
9, 8999, Note_on_c, 3, 56, 0
9, 8999, Note_on_c, 3, 60, 0
9, 9000, Note_on_c, 3, 58, 48
9, 9000, Note_on_c, 3, 61, 48
9, 9119, Note_on_c, 3, 58, 0
9, 9119, Note_on_c, 3, 61, 0
9, 9120, Note_on_c, 3, 63, 48
9, 9120, Note_on_c, 3, 60, 48
9, 9359, Note_on_c, 3, 63, 0
9, 9359, Note_on_c, 3, 60, 0
9, 10080, Note_on_c, 3, 63, 44
9, 10169, Note_on_c, 3, 63, 0
9, 10170, Note_on_c, 3, 65, 44
9, 10195, Note_on_c, 3, 65, 0
9, 10200, Note_on_c, 3, 60, 84
9, 10200, Note_on_c, 3, 66, 84
9, 10551, Note_on_c, 3, 60, 0
9, 10551, Note_on_c, 3, 66, 0
9, 10560, Note_on_c, 3, 64, 84
9, 10560, Note_on_c, 3, 67, 84
9, 10645, Note_on_c, 3, 64, 0
9, 10645, Note_on_c, 3, 67, 0
9, 10650, Note_on_c, 3, 60, 84
9, 10650, Note_on_c, 3, 64, 84
9, 10675, Note_on_c, 3, 60, 0
9, 10675, Note_on_c, 3, 64, 0
9, 10680, Note_on_c, 3, 55, 84
9, 10680, Note_on_c, 3, 60, 84
9, 10769, Note_on_c, 3, 55, 0
9, 10769, Note_on_c, 3, 60, 0
9, 10800, Note_on_c, 3, 59, 84
9, 10800, Note_on_c, 3, 62, 84
9, 10889, Note_on_c, 3, 59, 0
9, 10889, Note_on_c, 3, 62, 0
9, 10920, Note_on_c, 3, 60, 84
9, 11039, Note_on_c, 3, 60, 0
9, 13800, Note_on_c, 3, 52, 44
9, 13800, Note_on_c, 3, 55, 44
9, 14519, Note_on_c, 3, 52, 0
9, 14520, Note_on_c, 3, 52, 44
9, 14639, Note_on_c, 3, 55, 0
9, 14640, Note_on_c, 3, 58, 44
9, 14871, Note_on_c, 3, 52, 0
9, 14871, Note_on_c, 3, 58, 0
9, 14878, Control_c, 3, 11, 64
9, 14880, Note_on_c, 3, 52, 76
9, 14880, Note_on_c, 3, 59, 76
9, 15239, Note_on_c, 3, 52, 0
9, 15240, Note_on_c, 3, 51, 76
9, 15591, Note_on_c, 3, 59, 0
9, 15599, Note_on_c, 3, 51, 0
9, 15600, Note_on_c, 3, 50, 76
9, 15600, Note_on_c, 3, 59, 76
9, 15959, Note_on_c, 3, 50, 0
9, 15959, Note_on_c, 3, 59, 0
9, 15960, Note_on_c, 3, 49, 76
9, 15960, Note_on_c, 3, 64, 76
9, 16319, Note_on_c, 3, 49, 0
9, 16319, Note_on_c, 3, 64, 0
9, 16320, Note_on_c, 3, 48, 76
9, 16320, Note_on_c, 3, 63, 76
9, 16679, Note_on_c, 3, 48, 0
9, 16679, Note_on_c, 3, 63, 0
9, 16680, Note_on_c, 3, 61, 76
9, 16680, Control_c, 3, 11, 64
9, 16680, Note_on_c, 3, 49, 76
9, 16693, Control_c, 3, 11, 66
9, 16707, Control_c, 3, 11, 68
9, 16720, Control_c, 3, 11, 69
9, 16733, Control_c, 3, 11, 71
9, 16747, Control_c, 3, 11, 73
9, 16760, Control_c, 3, 11, 75
9, 16773, Control_c, 3, 11, 76
9, 16787, Control_c, 3, 11, 78
9, 16800, Control_c, 3, 11, 80
9, 16813, Control_c, 3, 11, 82
9, 16827, Control_c, 3, 11, 83
9, 16840, Control_c, 3, 11, 85
9, 16853, Control_c, 3, 11, 87
9, 16867, Control_c, 3, 11, 89
9, 16880, Control_c, 3, 11, 90
9, 16893, Control_c, 3, 11, 92
9, 16907, Control_c, 3, 11, 94
9, 16920, Control_c, 3, 11, 96
9, 16933, Control_c, 3, 11, 97
9, 16947, Control_c, 3, 11, 99
9, 16960, Control_c, 3, 11, 101
9, 16973, Control_c, 3, 11, 103
9, 16987, Control_c, 3, 11, 104
9, 17000, Control_c, 3, 11, 106
9, 17013, Control_c, 3, 11, 108
9, 17027, Control_c, 3, 11, 110
9, 17031, Note_on_c, 3, 61, 0
9, 17031, Note_on_c, 3, 49, 0
9, 17040, Note_on_c, 3, 58, 76
9, 17040, Note_on_c, 3, 51, 76
9, 17040, Control_c, 3, 11, 111
9, 17053, Control_c, 3, 11, 113
9, 17067, Control_c, 3, 11, 115
9, 17080, Control_c, 3, 11, 117
9, 17093, Control_c, 3, 11, 118
9, 17107, Control_c, 3, 11, 120
9, 17120, Control_c, 3, 11, 122
9, 17133, Control_c, 3, 11, 124
9, 17147, Control_c, 3, 11, 127
9, 17159, Note_on_c, 3, 58, 0
9, 17159, Note_on_c, 3, 51, 0
9, 17280, Note_on_c, 3, 63, 76
9, 17369, Note_on_c, 3, 63, 0
9, 19920, Note_on_c, 3, 58, 76
9, 19920, Note_on_c, 3, 51, 76
9, 20031, Note_on_c, 3, 58, 0
9, 20031, Note_on_c, 3, 51, 0
9, 20040, Note_on_c, 3, 51, 76
9, 20040, Note_on_c, 3, 58, 76
9, 20151, Note_on_c, 3, 51, 0
9, 20151, Note_on_c, 3, 58, 0
9, 20160, Note_on_c, 3, 58, 76
9, 20160, Note_on_c, 3, 51, 76
9, 20271, Note_on_c, 3, 58, 0
9, 20271, Note_on_c, 3, 51, 0
9, 20280, Note_on_c, 3, 51, 52
9, 20280, Note_on_c, 3, 60, 52
9, 20335, Note_on_c, 3, 51, 0
9, 20335, Note_on_c, 3, 60, 0
9, 20340, Note_on_c, 3, 55, 56
9, 20379, Note_on_c, 3, 55, 0
9, 20380, Note_on_c, 3, 58, 58
9, 20399, Note_on_c, 3, 58, 0
9, 20400, Note_on_c, 3, 56, 60
9, 20459, Note_on_c, 3, 56, 0
9, 20460, Note_on_c, 3, 55, 64
9, 20519, Note_on_c, 3, 55, 0
9, 20520, Note_on_c, 3, 56, 68
9, 20579, Note_on_c, 3, 56, 0
9, 20580, Note_on_c, 3, 60, 72
9, 20635, Note_on_c, 3, 60, 0
9, 20640, Note_on_c, 3, 62, 76
9, 20699, Note_on_c, 3, 62, 0
9, 20700, Note_on_c, 3, 63, 76
9, 20759, Note_on_c, 3, 63, 0
9, 20760, Note_on_c, 3, 65, 76
9, 20819, Note_on_c, 3, 65, 0
9, 20820, Note_on_c, 3, 63, 76
9, 20879, Note_on_c, 3, 63, 0
9, 20880, Note_on_c, 3, 62, 76
9, 20939, Note_on_c, 3, 62, 0
9, 20940, Note_on_c, 3, 63, 76
9, 20995, Note_on_c, 3, 63, 0
9, 21000, Note_on_c, 3, 60, 52
9, 21119, Note_on_c, 3, 60, 0
9, 21180, Note_on_c, 3, 68, 64
9, 21235, Note_on_c, 3, 68, 0
9, 21240, Note_on_c, 3, 68, 68
9, 21295, Note_on_c, 3, 68, 0
9, 21300, Note_on_c, 3, 68, 72
9, 21355, Note_on_c, 3, 68, 0
9, 21360, Note_on_c, 3, 63, 76
9, 21360, Note_on_c, 3, 67, 76
9, 21360, Control_c, 3, 11, 127
9, 21375, Control_c, 3, 11, 125
9, 21390, Control_c, 3, 11, 123
9, 21405, Control_c, 3, 11, 121
9, 21420, Control_c, 3, 11, 119
9, 21435, Control_c, 3, 11, 117
9, 21450, Control_c, 3, 11, 115
9, 21465, Control_c, 3, 11, 113
9, 21480, Control_c, 3, 11, 111
9, 21495, Control_c, 3, 11, 109
9, 21510, Control_c, 3, 11, 107
9, 21525, Control_c, 3, 11, 105
9, 21540, Control_c, 3, 11, 104
9, 21555, Control_c, 3, 11, 102
9, 21570, Control_c, 3, 11, 100
9, 21585, Control_c, 3, 11, 98
9, 21600, Control_c, 3, 11, 96
9, 21615, Control_c, 3, 11, 94
9, 21630, Control_c, 3, 11, 92
9, 21645, Control_c, 3, 11, 90
9, 21660, Control_c, 3, 11, 88
9, 21675, Control_c, 3, 11, 86
9, 21690, Control_c, 3, 11, 84
9, 21705, Control_c, 3, 11, 80
9, 21711, Note_on_c, 3, 63, 0
9, 21711, Note_on_c, 3, 67, 0
9, 21720, Note_on_c, 3, 65, 76
9, 22071, Note_on_c, 3, 65, 0
9, 22080, Note_on_c, 3, 60, 76
9, 22431, Note_on_c, 3, 60, 0
9, 22440, Note_on_c, 3, 63, 76
9, 22551, Note_on_c, 3, 63, 0
9, 22560, Note_on_c, 3, 63, 76
9, 22671, Note_on_c, 3, 63, 0
9, 22680, Note_on_c, 3, 63, 76
9, 22791, Note_on_c, 3, 63, 0
9, 22800, Note_on_c, 3, 56, 76
9, 22800, Note_on_c, 3, 63, 76
9, 22919, Note_on_c, 3, 56, 0
9, 22919, Note_on_c, 3, 63, 0
9, 23160, Note_on_c, 3, 56, 76
9, 23160, Note_on_c, 3, 44, 76
9, 23511, Note_on_c, 3, 56, 0
9, 23511, Note_on_c, 3, 44, 0
9, 23520, Control_c, 3, 11, 80
9, 23520, Note_on_c, 3, 51, 76
9, 23520, Note_on_c, 3, 56, 76
9, 23535, Control_c, 3, 11, 82
9, 23550, Control_c, 3, 11, 84
9, 23565, Control_c, 3, 11, 86
9, 23580, Control_c, 3, 11, 88
9, 23595, Control_c, 3, 11, 90
9, 23610, Control_c, 3, 11, 92
9, 23625, Control_c, 3, 11, 94
9, 23640, Control_c, 3, 11, 96
9, 23655, Control_c, 3, 11, 98
9, 23670, Control_c, 3, 11, 100
9, 23685, Control_c, 3, 11, 102
9, 23700, Control_c, 3, 11, 104
9, 23715, Control_c, 3, 11, 105
9, 23730, Control_c, 3, 11, 107
9, 23745, Control_c, 3, 11, 109
9, 23760, Control_c, 3, 11, 111
9, 23775, Control_c, 3, 11, 113
9, 23790, Control_c, 3, 11, 115
9, 23805, Control_c, 3, 11, 117
9, 23820, Control_c, 3, 11, 119
9, 23835, Control_c, 3, 11, 121
9, 23850, Control_c, 3, 11, 123
9, 23865, Control_c, 3, 11, 127
9, 23871, Note_on_c, 3, 51, 0
9, 23871, Note_on_c, 3, 56, 0
9, 23880, Note_on_c, 3, 58, 76
9, 23880, Note_on_c, 3, 51, 76
9, 23991, Note_on_c, 3, 58, 0
9, 23991, Note_on_c, 3, 51, 0
9, 24000, Note_on_c, 3, 58, 76
9, 24000, Note_on_c, 3, 51, 76
9, 24111, Note_on_c, 3, 58, 0
9, 24111, Note_on_c, 3, 51, 0
9, 24120, Note_on_c, 3, 51, 76
9, 24120, Note_on_c, 3, 58, 76
9, 24209, Note_on_c, 3, 58, 0
9, 24210, Note_on_c, 3, 55, 76
9, 24231, Note_on_c, 3, 51, 0
9, 24235, Note_on_c, 3, 55, 0
9, 24240, Note_on_c, 3, 51, 52
9, 24240, Note_on_c, 3, 56, 52
9, 24359, Note_on_c, 3, 51, 0
9, 24359, Note_on_c, 3, 56, 0
9, 24478, Control_c, 3, 11, 96
9, 24480, Control_c, 3, 11, 96
9, 24480, Note_on_c, 3, 63, 68
9, 24493, Control_c, 3, 11, 99
9, 24507, Control_c, 3, 11, 103
9, 24520, Control_c, 3, 11, 106
9, 24533, Control_c, 3, 11, 110
9, 24547, Control_c, 3, 11, 113
9, 24560, Control_c, 3, 11, 117
9, 24573, Control_c, 3, 11, 120
9, 24587, Control_c, 3, 11, 127
9, 24600, Control_c, 3, 11, 127
9, 24600, Note_on_c, 3, 56, 68
9, 24613, Control_c, 3, 11, 124
9, 24627, Control_c, 3, 11, 120
9, 24640, Control_c, 3, 11, 117
9, 24653, Control_c, 3, 11, 113
9, 24667, Control_c, 3, 11, 110
9, 24680, Control_c, 3, 11, 106
9, 24693, Control_c, 3, 11, 103
9, 24707, Control_c, 3, 11, 96
9, 24719, Note_on_c, 3, 63, 0
9, 24719, Note_on_c, 3, 56, 0
9, 24838, Control_c, 3, 11, 127
9, 24840, Note_on_c, 3, 51, 76
9, 24840, Note_on_c, 3, 63, 76
9, 25019, Note_on_c, 3, 51, 0
9, 25019, Note_on_c, 3, 63, 0
9, 25080, Note_on_c, 3, 51, 52
9, 25080, Note_on_c, 3, 60, 52
9, 25139, Note_on_c, 3, 51, 0
9, 25139, Note_on_c, 3, 60, 0
9, 25200, Note_on_c, 3, 60, 52
9, 25200, Note_on_c, 3, 51, 52
9, 25259, Note_on_c, 3, 60, 0
9, 25259, Note_on_c, 3, 51, 0
9, 25320, Note_on_c, 3, 48, 52
9, 25320, Note_on_c, 3, 56, 52
9, 25439, Note_on_c, 3, 48, 0
9, 25439, Note_on_c, 3, 56, 0
9, 25560, Note_on_c, 3, 51, 48
9, 25649, Note_on_c, 3, 51, 0
9, 25650, Note_on_c, 3, 55, 48
9, 25675, Note_on_c, 3, 55, 0
9, 25680, Note_on_c, 3, 48, 48
9, 25680, Note_on_c, 3, 56, 48
9, 25791, Note_on_c, 3, 48, 0
9, 25791, Note_on_c, 3, 56, 0
9, 25800, Note_on_c, 3, 48, 48
9, 25800, Note_on_c, 3, 56, 48
9, 25919, Note_on_c, 3, 48, 0
9, 25919, Note_on_c, 3, 56, 0
9, 25920, Note_on_c, 3, 51, 48
9, 25920, Note_on_c, 3, 58, 48
9, 26039, Note_on_c, 3, 51, 0
9, 26039, Note_on_c, 3, 58, 0
9, 26040, Note_on_c, 3, 56, 48
9, 26040, Note_on_c, 3, 60, 48
9, 26271, Note_on_c, 3, 56, 0
9, 26271, Note_on_c, 3, 60, 0
9, 26280, Note_on_c, 3, 48, 48
9, 26280, Note_on_c, 3, 56, 48
9, 26369, Note_on_c, 3, 48, 0
9, 26369, Note_on_c, 3, 56, 0
9, 26370, Note_on_c, 3, 58, 48
9, 26370, Note_on_c, 3, 51, 48
9, 26395, Note_on_c, 3, 58, 0
9, 26395, Note_on_c, 3, 51, 0
9, 26400, Note_on_c, 3, 60, 48
9, 26400, Note_on_c, 3, 56, 48
9, 26519, Note_on_c, 3, 60, 0
9, 26519, Note_on_c, 3, 56, 0
9, 26520, Note_on_c, 3, 56, 48
9, 26520, Note_on_c, 3, 60, 48
9, 26639, Note_on_c, 3, 56, 0
9, 26639, Note_on_c, 3, 60, 0
9, 26640, Note_on_c, 3, 58, 48
9, 26640, Note_on_c, 3, 61, 48
9, 26759, Note_on_c, 3, 58, 0
9, 26759, Note_on_c, 3, 61, 0
9, 26760, Note_on_c, 3, 63, 48
9, 26760, Note_on_c, 3, 60, 48
9, 26999, Note_on_c, 3, 63, 0
9, 26999, Note_on_c, 3, 60, 0
9, 27720, Note_on_c, 3, 63, 44
9, 27809, Note_on_c, 3, 63, 0
9, 27810, Note_on_c, 3, 65, 44
9, 27835, Note_on_c, 3, 65, 0
9, 27840, Note_on_c, 3, 60, 84
9, 27840, Note_on_c, 3, 66, 84
9, 28191, Note_on_c, 3, 60, 0
9, 28191, Note_on_c, 3, 66, 0
9, 28200, Note_on_c, 3, 64, 84
9, 28200, Note_on_c, 3, 67, 84
9, 28266, Note_on_c, 3, 64, 0
9, 28266, Note_on_c, 3, 67, 0
9, 28290, Note_on_c, 3, 60, 84
9, 28290, Note_on_c, 3, 64, 84
9, 28319, Note_on_c, 3, 60, 0
9, 28319, Note_on_c, 3, 64, 0
9, 28320, Note_on_c, 3, 55, 84
9, 28320, Note_on_c, 3, 60, 84
9, 28409, Note_on_c, 3, 55, 0
9, 28409, Note_on_c, 3, 60, 0
9, 28440, Note_on_c, 3, 59, 84
9, 28440, Note_on_c, 3, 62, 84
9, 28529, Note_on_c, 3, 59, 0
9, 28529, Note_on_c, 3, 62, 0
9, 28560, Note_on_c, 3, 60, 84
9, 28679, Note_on_c, 3, 60, 0
9, 31320, Control_c, 3, 11, 64
9, 31440, Note_on_c, 3, 55, 76
9, 31440, Note_on_c, 3, 52, 76
9, 32159, Note_on_c, 3, 52, 0
9, 32160, Note_on_c, 3, 52, 76
9, 32279, Note_on_c, 3, 55, 0
9, 32280, Note_on_c, 3, 58, 76
9, 32511, Note_on_c, 3, 58, 0
9, 32520, Note_on_c, 3, 59, 76
9, 32879, Note_on_c, 3, 52, 0
9, 32880, Note_on_c, 3, 51, 76
9, 33231, Note_on_c, 3, 59, 0
9, 33239, Note_on_c, 3, 51, 0
9, 33240, Note_on_c, 3, 59, 76
9, 33240, Note_on_c, 3, 50, 76
9, 33599, Note_on_c, 3, 59, 0
9, 33599, Note_on_c, 3, 50, 0
9, 33600, Note_on_c, 3, 49, 76
9, 33600, Note_on_c, 3, 64, 76
9, 33959, Note_on_c, 3, 49, 0
9, 33959, Note_on_c, 3, 64, 0
9, 33960, Note_on_c, 3, 48, 76
9, 33960, Note_on_c, 3, 63, 76
9, 34319, Note_on_c, 3, 48, 0
9, 34319, Note_on_c, 3, 63, 0
9, 34320, Control_c, 3, 11, 64
9, 34320, Note_on_c, 3, 61, 76
9, 34320, Note_on_c, 3, 49, 76
9, 34335, Control_c, 3, 11, 67
9, 34350, Control_c, 3, 11, 69
9, 34365, Control_c, 3, 11, 72
9, 34380, Control_c, 3, 11, 75
9, 34395, Control_c, 3, 11, 77
9, 34410, Control_c, 3, 11, 80
9, 34425, Control_c, 3, 11, 82
9, 34440, Control_c, 3, 11, 85
9, 34455, Control_c, 3, 11, 88
9, 34470, Control_c, 3, 11, 90
9, 34485, Control_c, 3, 11, 93
9, 34500, Control_c, 3, 11, 96
9, 34515, Control_c, 3, 11, 98
9, 34530, Control_c, 3, 11, 101
9, 34545, Control_c, 3, 11, 103
9, 34560, Control_c, 3, 11, 106
9, 34575, Control_c, 3, 11, 109
9, 34590, Control_c, 3, 11, 111
9, 34605, Control_c, 3, 11, 114
9, 34620, Control_c, 3, 11, 117
9, 34635, Control_c, 3, 11, 119
9, 34650, Control_c, 3, 11, 122
9, 34665, Control_c, 3, 11, 127
9, 34671, Note_on_c, 3, 61, 0
9, 34671, Note_on_c, 3, 49, 0
9, 34680, Note_on_c, 3, 51, 76
9, 34680, Note_on_c, 3, 58, 76
9, 34731, Note_on_c, 3, 51, 0
9, 34731, Note_on_c, 3, 58, 0
9, 34740, Note_on_c, 3, 51, 84
9, 34784, Note_on_c, 3, 51, 0
9, 34800, Note_on_c, 3, 63, 84
9, 34844, Note_on_c, 3, 63, 0
9, 35040, Note_on_c, 3, 63, 76
9, 35040, Control_c, 3, 11, 127
9, 35055, Control_c, 3, 11, 125
9, 35070, Control_c, 3, 11, 123
9, 35085, Control_c, 3, 11, 121
9, 35100, Control_c, 3, 11, 119
9, 35115, Control_c, 3, 11, 117
9, 35130, Control_c, 3, 11, 115
9, 35145, Control_c, 3, 11, 113
9, 35160, Control_c, 3, 11, 111
9, 35175, Control_c, 3, 11, 109
9, 35190, Control_c, 3, 11, 107
9, 35205, Control_c, 3, 11, 105
9, 35220, Control_c, 3, 11, 104
9, 35235, Control_c, 3, 11, 102
9, 35250, Control_c, 3, 11, 100
9, 35265, Control_c, 3, 11, 98
9, 35280, Control_c, 3, 11, 96
9, 35295, Control_c, 3, 11, 94
9, 35310, Control_c, 3, 11, 92
9, 35325, Control_c, 3, 11, 90
9, 35340, Control_c, 3, 11, 88
9, 35355, Control_c, 3, 11, 86
9, 35370, Control_c, 3, 11, 84
9, 35385, Control_c, 3, 11, 80
9, 35759, Note_on_c, 3, 63, 0
9, 35760, Note_on_c, 3, 63, 76
9, 36479, Note_on_c, 3, 63, 0
9, 36480, Note_on_c, 3, 64, 76
9, 36831, Note_on_c, 3, 64, 0
9, 36840, Note_on_c, 3, 65, 76
9, 37311, Note_on_c, 3, 65, 0
9, 37320, Note_on_c, 3, 63, 76
9, 37559, Note_on_c, 3, 63, 0
9, 37560, Note_on_c, 3, 63, 68
9, 37911, Note_on_c, 3, 63, 0
9, 37920, Note_on_c, 3, 60, 68
9, 38039, Note_on_c, 3, 60, 0
9, 38280, Control_c, 3, 11, 127
9, 38340, Note_on_c, 3, 48, 52
9, 38384, Note_on_c, 3, 48, 0
9, 38400, Note_on_c, 3, 60, 52
9, 38444, Note_on_c, 3, 60, 0
9, 38700, Note_on_c, 3, 53, 52
9, 38744, Note_on_c, 3, 53, 0
9, 38760, Note_on_c, 3, 65, 52
9, 38804, Note_on_c, 3, 65, 0
9, 39060, Note_on_c, 3, 49, 52
9, 39104, Note_on_c, 3, 49, 0
9, 39120, Note_on_c, 3, 61, 52
9, 39164, Note_on_c, 3, 61, 0
9, 39420, Note_on_c, 3, 48, 52
9, 39464, Note_on_c, 3, 48, 0
9, 39480, Note_on_c, 3, 60, 52
9, 39524, Note_on_c, 3, 60, 0
9, 39780, Note_on_c, 3, 53, 52
9, 39824, Note_on_c, 3, 53, 0
9, 39840, Note_on_c, 3, 65, 52
9, 39884, Note_on_c, 3, 65, 0
9, 40140, Note_on_c, 3, 51, 52
9, 40184, Note_on_c, 3, 51, 0
9, 40200, Note_on_c, 3, 63, 52
9, 40244, Note_on_c, 3, 63, 0
9, 40500, Note_on_c, 3, 51, 52
9, 40544, Note_on_c, 3, 51, 0
9, 40560, Note_on_c, 3, 63, 52
9, 40604, Note_on_c, 3, 63, 0
9, 40740, Note_on_c, 3, 63, 52
9, 40795, Note_on_c, 3, 63, 0
9, 40800, Note_on_c, 3, 60, 52
9, 40855, Note_on_c, 3, 60, 0
9, 40860, Note_on_c, 3, 63, 76
9, 40860, Note_on_c, 3, 60, 76
9, 40915, Note_on_c, 3, 63, 0
9, 40915, Note_on_c, 3, 60, 0
9, 40920, Note_on_c, 3, 63, 76
9, 40920, Note_on_c, 3, 60, 76
9, 40975, Note_on_c, 3, 63, 0
9, 40975, Note_on_c, 3, 60, 0
9, 40980, Note_on_c, 3, 63, 76
9, 40980, Note_on_c, 3, 60, 76
9, 41035, Note_on_c, 3, 63, 0
9, 41035, Note_on_c, 3, 60, 0
9, 41040, Note_on_c, 3, 60, 76
9, 41040, Note_on_c, 3, 63, 76
9, 41095, Note_on_c, 3, 60, 0
9, 41095, Note_on_c, 3, 63, 0
9, 41100, Note_on_c, 3, 60, 76
9, 41100, Note_on_c, 3, 63, 76
9, 41155, Note_on_c, 3, 60, 0
9, 41155, Note_on_c, 3, 63, 0
9, 41160, Note_on_c, 3, 63, 76
9, 41160, Note_on_c, 3, 60, 76
9, 41215, Note_on_c, 3, 63, 0
9, 41215, Note_on_c, 3, 60, 0
9, 41220, Note_on_c, 3, 60, 76
9, 41220, Note_on_c, 3, 63, 76
9, 41275, Note_on_c, 3, 60, 0
9, 41275, Note_on_c, 3, 63, 0
9, 41280, Note_on_c, 3, 60, 76
9, 41280, Note_on_c, 3, 63, 76
9, 41335, Note_on_c, 3, 60, 0
9, 41335, Note_on_c, 3, 63, 0
9, 41340, Note_on_c, 3, 63, 76
9, 41340, Note_on_c, 3, 60, 76
9, 41395, Note_on_c, 3, 63, 0
9, 41395, Note_on_c, 3, 60, 0
9, 41400, Note_on_c, 3, 63, 76
9, 41400, Note_on_c, 3, 60, 76
9, 41455, Note_on_c, 3, 63, 0
9, 41455, Note_on_c, 3, 60, 0
9, 41460, Note_on_c, 3, 60, 76
9, 41460, Note_on_c, 3, 63, 76
9, 41515, Note_on_c, 3, 60, 0
9, 41515, Note_on_c, 3, 63, 0
9, 41520, Note_on_c, 3, 63, 76
9, 41520, Note_on_c, 3, 60, 76
9, 41575, Note_on_c, 3, 63, 0
9, 41575, Note_on_c, 3, 60, 0
9, 41580, Note_on_c, 3, 63, 76
9, 41580, Note_on_c, 3, 60, 76
9, 41635, Note_on_c, 3, 63, 0
9, 41635, Note_on_c, 3, 60, 0
9, 41640, Note_on_c, 3, 61, 76
9, 41640, Note_on_c, 3, 58, 76
9, 41695, Note_on_c, 3, 61, 0
9, 41695, Note_on_c, 3, 58, 0
9, 41700, Note_on_c, 3, 58, 76
9, 41700, Note_on_c, 3, 61, 76
9, 41755, Note_on_c, 3, 58, 0
9, 41755, Note_on_c, 3, 61, 0
9, 41760, Note_on_c, 3, 61, 76
9, 41760, Note_on_c, 3, 58, 76
9, 41815, Note_on_c, 3, 61, 0
9, 41815, Note_on_c, 3, 58, 0
9, 41820, Note_on_c, 3, 61, 76
9, 41820, Note_on_c, 3, 58, 76
9, 41875, Note_on_c, 3, 61, 0
9, 41875, Note_on_c, 3, 58, 0
9, 41880, Note_on_c, 3, 61, 76
9, 41880, Note_on_c, 3, 58, 76
9, 41935, Note_on_c, 3, 61, 0
9, 41935, Note_on_c, 3, 58, 0
9, 41940, Note_on_c, 3, 61, 76
9, 41940, Note_on_c, 3, 58, 76
9, 41995, Note_on_c, 3, 61, 0
9, 41995, Note_on_c, 3, 58, 0
9, 42000, Note_on_c, 3, 58, 76
9, 42000, Note_on_c, 3, 61, 76
9, 42055, Note_on_c, 3, 58, 0
9, 42055, Note_on_c, 3, 61, 0
9, 42060, Note_on_c, 3, 58, 76
9, 42060, Note_on_c, 3, 61, 76
9, 42115, Note_on_c, 3, 58, 0
9, 42115, Note_on_c, 3, 61, 0
9, 42120, Note_on_c, 3, 59, 76
9, 42120, Note_on_c, 3, 62, 76
9, 42175, Note_on_c, 3, 59, 0
9, 42175, Note_on_c, 3, 62, 0
9, 42180, Note_on_c, 3, 62, 76
9, 42180, Note_on_c, 3, 59, 76
9, 42235, Note_on_c, 3, 62, 0
9, 42235, Note_on_c, 3, 59, 0
9, 42240, Note_on_c, 3, 64, 76
9, 42240, Note_on_c, 3, 60, 76
9, 42295, Note_on_c, 3, 64, 0
9, 42295, Note_on_c, 3, 60, 0
9, 42300, Note_on_c, 3, 60, 76
9, 42300, Note_on_c, 3, 64, 76
9, 42355, Note_on_c, 3, 60, 0
9, 42355, Note_on_c, 3, 64, 0
9, 42360, Note_on_c, 3, 60, 76
9, 42360, Note_on_c, 3, 64, 76
9, 42415, Note_on_c, 3, 60, 0
9, 42415, Note_on_c, 3, 64, 0
9, 42420, Note_on_c, 3, 64, 76
9, 42420, Note_on_c, 3, 60, 76
9, 42475, Note_on_c, 3, 64, 0
9, 42475, Note_on_c, 3, 60, 0
9, 42480, Note_on_c, 3, 64, 76
9, 42480, Note_on_c, 3, 60, 76
9, 42535, Note_on_c, 3, 64, 0
9, 42535, Note_on_c, 3, 60, 0
9, 42540, Note_on_c, 3, 64, 76
9, 42540, Note_on_c, 3, 60, 76
9, 42595, Note_on_c, 3, 64, 0
9, 42595, Note_on_c, 3, 60, 0
9, 42600, Note_on_c, 3, 60, 76
9, 42600, Note_on_c, 3, 63, 76
9, 42655, Note_on_c, 3, 60, 0
9, 42655, Note_on_c, 3, 63, 0
9, 42660, Note_on_c, 3, 60, 76
9, 42660, Note_on_c, 3, 63, 76
9, 42715, Note_on_c, 3, 60, 0
9, 42715, Note_on_c, 3, 63, 0
9, 42720, Note_on_c, 3, 60, 76
9, 42720, Note_on_c, 3, 61, 76
9, 42775, Note_on_c, 3, 60, 0
9, 42775, Note_on_c, 3, 61, 0
9, 42780, Note_on_c, 3, 60, 76
9, 42780, Note_on_c, 3, 61, 76
9, 42835, Note_on_c, 3, 60, 0
9, 42835, Note_on_c, 3, 61, 0
9, 42840, Note_on_c, 3, 61, 76
9, 42840, Note_on_c, 3, 58, 76
9, 42895, Note_on_c, 3, 61, 0
9, 42895, Note_on_c, 3, 58, 0
9, 42900, Note_on_c, 3, 61, 76
9, 42900, Note_on_c, 3, 58, 76
9, 42955, Note_on_c, 3, 61, 0
9, 42955, Note_on_c, 3, 58, 0
9, 42960, Note_on_c, 3, 61, 76
9, 42960, Note_on_c, 3, 58, 76
9, 43015, Note_on_c, 3, 61, 0
9, 43015, Note_on_c, 3, 58, 0
9, 43020, Note_on_c, 3, 58, 76
9, 43020, Note_on_c, 3, 61, 76
9, 43075, Note_on_c, 3, 58, 0
9, 43075, Note_on_c, 3, 61, 0
9, 43080, Note_on_c, 3, 60, 76
9, 43080, Note_on_c, 3, 58, 76
9, 43135, Note_on_c, 3, 60, 0
9, 43135, Note_on_c, 3, 58, 0
9, 43140, Note_on_c, 3, 60, 76
9, 43140, Note_on_c, 3, 58, 76
9, 43195, Note_on_c, 3, 60, 0
9, 43195, Note_on_c, 3, 58, 0
9, 43200, Note_on_c, 3, 56, 76
9, 43200, Note_on_c, 3, 60, 76
9, 43255, Note_on_c, 3, 56, 0
9, 43255, Note_on_c, 3, 60, 0
9, 43260, Note_on_c, 3, 60, 76
9, 43260, Note_on_c, 3, 56, 76
9, 43315, Note_on_c, 3, 60, 0
9, 43315, Note_on_c, 3, 56, 0
9, 43320, Note_on_c, 3, 58, 76
9, 43320, Note_on_c, 3, 55, 76
9, 43671, Note_on_c, 3, 58, 0
9, 43671, Note_on_c, 3, 55, 0
9, 43680, Note_on_c, 3, 51, 76
9, 43859, Note_on_c, 3, 51, 0
9, 43860, Note_on_c, 3, 53, 76
9, 43889, Note_on_c, 3, 53, 0
9, 43890, Note_on_c, 3, 55, 76
9, 43919, Note_on_c, 3, 55, 0
9, 43920, Note_on_c, 3, 56, 76
9, 43949, Note_on_c, 3, 56, 0
9, 43950, Note_on_c, 3, 58, 76
9, 43979, Note_on_c, 3, 58, 0
9, 43980, Note_on_c, 3, 60, 76
9, 44009, Note_on_c, 3, 60, 0
9, 44010, Note_on_c, 3, 62, 76
9, 44035, Note_on_c, 3, 62, 0
9, 44040, Note_on_c, 3, 51, 76
9, 44040, Note_on_c, 3, 63, 76
9, 44279, Note_on_c, 3, 51, 0
9, 44279, Note_on_c, 3, 63, 0
9, 46440, Note_on_c, 3, 51, 48
9, 46499, Note_on_c, 3, 51, 0
9, 46500, Note_on_c, 3, 56, 48
9, 46559, Note_on_c, 3, 56, 0
9, 46560, Note_on_c, 3, 60, 48
9, 46649, Note_on_c, 3, 60, 0
9, 46680, Note_on_c, 3, 60, 48
9, 46739, Note_on_c, 3, 60, 0
9, 46740, Note_on_c, 3, 58, 48
9, 46799, Note_on_c, 3, 58, 0
9, 46800, Note_on_c, 3, 56, 48
9, 46859, Note_on_c, 3, 56, 0
9, 46860, Note_on_c, 3, 60, 48
9, 46915, Note_on_c, 3, 60, 0
9, 46920, Note_on_c, 3, 63, 48
9, 47159, Note_on_c, 3, 63, 0
9, 52920, Note_on_c, 3, 52, 84
9, 53005, Note_on_c, 3, 52, 0
9, 53010, Note_on_c, 3, 55, 84
9, 53035, Note_on_c, 3, 55, 0
9, 53040, Note_on_c, 3, 60, 84
9, 53040, Note_on_c, 3, 52, 84
9, 53151, Note_on_c, 3, 60, 0
9, 53151, Note_on_c, 3, 52, 0
9, 53160, Note_on_c, 3, 60, 84
9, 53160, Note_on_c, 3, 52, 84
9, 53271, Note_on_c, 3, 60, 0
9, 53271, Note_on_c, 3, 52, 0
9, 53280, Note_on_c, 3, 50, 84
9, 53280, Note_on_c, 3, 59, 84
9, 53391, Note_on_c, 3, 50, 0
9, 53391, Note_on_c, 3, 59, 0
9, 53400, Note_on_c, 3, 60, 84
9, 53400, Note_on_c, 3, 52, 84
9, 53991, Note_on_c, 3, 60, 0
9, 53991, Note_on_c, 3, 52, 0
9, 54000, Note_on_c, 3, 60, 84
9, 54000, Note_on_c, 3, 52, 84
9, 54085, Note_on_c, 3, 60, 0
9, 54085, Note_on_c, 3, 52, 0
9, 54090, Note_on_c, 3, 59, 84
9, 54090, Note_on_c, 3, 50, 84
9, 54115, Note_on_c, 3, 59, 0
9, 54115, Note_on_c, 3, 50, 0
9, 54120, Note_on_c, 3, 60, 84
9, 54120, Note_on_c, 3, 52, 84
9, 54231, Note_on_c, 3, 60, 0
9, 54231, Note_on_c, 3, 52, 0
9, 54240, Note_on_c, 3, 48, 84
9, 54240, Note_on_c, 3, 52, 84
9, 54351, Note_on_c, 3, 48, 0
9, 54351, Note_on_c, 3, 52, 0
9, 54360, Note_on_c, 3, 50, 84
9, 54360, Note_on_c, 3, 53, 84
9, 54471, Note_on_c, 3, 50, 0
9, 54471, Note_on_c, 3, 53, 0
9, 54480, Note_on_c, 3, 52, 84
9, 54480, Note_on_c, 3, 55, 84
9, 55071, Note_on_c, 3, 52, 0
9, 55071, Note_on_c, 3, 55, 0
9, 55080, Note_on_c, 3, 52, 84
9, 55080, Note_on_c, 3, 48, 84
9, 55165, Note_on_c, 3, 52, 0
9, 55165, Note_on_c, 3, 48, 0
9, 55170, Note_on_c, 3, 50, 84
9, 55170, Note_on_c, 3, 53, 84
9, 55195, Note_on_c, 3, 50, 0
9, 55195, Note_on_c, 3, 53, 0
9, 55200, Note_on_c, 3, 55, 84
9, 55200, Note_on_c, 3, 52, 84
9, 55431, Note_on_c, 3, 55, 0
9, 55431, Note_on_c, 3, 52, 0
9, 55440, Note_on_c, 3, 48, 84
9, 55440, Note_on_c, 3, 52, 84
9, 55525, Note_on_c, 3, 48, 0
9, 55525, Note_on_c, 3, 52, 0
9, 55530, Note_on_c, 3, 53, 84
9, 55530, Note_on_c, 3, 50, 84
9, 55555, Note_on_c, 3, 53, 0
9, 55555, Note_on_c, 3, 50, 0
9, 55560, Note_on_c, 3, 52, 84
9, 55560, Note_on_c, 3, 55, 84
9, 55791, Note_on_c, 3, 52, 0
9, 55791, Note_on_c, 3, 55, 0
9, 55800, Note_on_c, 3, 52, 84
9, 55800, Note_on_c, 3, 48, 84
9, 55885, Note_on_c, 3, 52, 0
9, 55885, Note_on_c, 3, 48, 0
9, 55890, Note_on_c, 3, 50, 84
9, 55890, Note_on_c, 3, 53, 84
9, 55915, Note_on_c, 3, 50, 0
9, 55915, Note_on_c, 3, 53, 0
9, 55920, Note_on_c, 3, 55, 84
9, 55920, Note_on_c, 3, 52, 84
9, 55920, Control_c, 3, 11, 127
9, 55935, Control_c, 3, 11, 126
9, 55950, Control_c, 3, 11, 124
9, 55965, Control_c, 3, 11, 123
9, 55980, Control_c, 3, 11, 122
9, 55995, Control_c, 3, 11, 120
9, 56010, Control_c, 3, 11, 119
9, 56025, Control_c, 3, 11, 118
9, 56040, Control_c, 3, 11, 117
9, 56055, Control_c, 3, 11, 115
9, 56070, Control_c, 3, 11, 114
9, 56085, Control_c, 3, 11, 113
9, 56100, Control_c, 3, 11, 111
9, 56115, Control_c, 3, 11, 110
9, 56130, Control_c, 3, 11, 109
9, 56145, Control_c, 3, 11, 107
9, 56160, Control_c, 3, 11, 106
9, 56175, Control_c, 3, 11, 105
9, 56190, Control_c, 3, 11, 103
9, 56205, Control_c, 3, 11, 102
9, 56220, Control_c, 3, 11, 101
9, 56235, Control_c, 3, 11, 99
9, 56250, Control_c, 3, 11, 98
9, 56265, Control_c, 3, 11, 97
9, 56280, Control_c, 3, 11, 96
9, 56295, Control_c, 3, 11, 94
9, 56310, Control_c, 3, 11, 93
9, 56325, Control_c, 3, 11, 92
9, 56340, Control_c, 3, 11, 90
9, 56355, Control_c, 3, 11, 89
9, 56370, Control_c, 3, 11, 88
9, 56385, Control_c, 3, 11, 86
9, 56400, Control_c, 3, 11, 85
9, 56415, Control_c, 3, 11, 84
9, 56430, Control_c, 3, 11, 82
9, 56445, Control_c, 3, 11, 81
9, 56460, Control_c, 3, 11, 80
9, 56475, Control_c, 3, 11, 78
9, 56490, Control_c, 3, 11, 77
9, 56505, Control_c, 3, 11, 76
9, 56520, Control_c, 3, 11, 75
9, 56535, Control_c, 3, 11, 73
9, 56550, Control_c, 3, 11, 72
9, 56565, Control_c, 3, 11, 71
9, 56580, Control_c, 3, 11, 69
9, 56595, Control_c, 3, 11, 68
9, 56610, Control_c, 3, 11, 67
9, 56625, Control_c, 3, 11, 64
9, 56759, Note_on_c, 3, 55, 0
9, 56759, Note_on_c, 3, 52, 0
9, 59760, Note_on_c, 3, 51, 52
9, 59804, Note_on_c, 3, 51, 0
9, 59850, Note_on_c, 3, 56, 52
9, 59871, Note_on_c, 3, 56, 0
9, 59880, Note_on_c, 3, 59, 52
9, 59991, Note_on_c, 3, 59, 0
9, 60000, Note_on_c, 3, 59, 52
9, 60044, Note_on_c, 3, 59, 0
9, 60090, Note_on_c, 3, 58, 52
9, 60111, Note_on_c, 3, 58, 0
9, 60120, Note_on_c, 3, 56, 52
9, 60164, Note_on_c, 3, 56, 0
9, 60210, Note_on_c, 3, 59, 52
9, 60231, Note_on_c, 3, 59, 0
9, 60240, Note_on_c, 3, 55, 52
9, 60471, Note_on_c, 3, 55, 0
9, 60480, Note_on_c, 3, 56, 52
9, 60524, Note_on_c, 3, 56, 0
9, 60570, Note_on_c, 3, 58, 52
9, 60591, Note_on_c, 3, 58, 0
9, 60600, Note_on_c, 3, 59, 52
9, 60711, Note_on_c, 3, 59, 0
9, 60720, Note_on_c, 3, 59, 52
9, 60764, Note_on_c, 3, 59, 0
9, 60810, Note_on_c, 3, 58, 52
9, 60831, Note_on_c, 3, 58, 0
9, 60840, Note_on_c, 3, 56, 52
9, 60884, Note_on_c, 3, 56, 0
9, 60930, Note_on_c, 3, 59, 52
9, 60951, Note_on_c, 3, 59, 0
9, 60960, Note_on_c, 3, 61, 52
9, 61191, Note_on_c, 3, 61, 0
9, 61200, Note_on_c, 3, 59, 52
9, 61244, Note_on_c, 3, 59, 0
9, 61290, Note_on_c, 3, 61, 52
9, 61311, Note_on_c, 3, 61, 0
9, 61320, Note_on_c, 3, 63, 52
9, 61431, Note_on_c, 3, 63, 0
9, 61440, Note_on_c, 3, 63, 52
9, 61484, Note_on_c, 3, 63, 0
9, 61530, Note_on_c, 3, 61, 52
9, 61551, Note_on_c, 3, 61, 0
9, 61560, Note_on_c, 3, 59, 52
9, 61604, Note_on_c, 3, 59, 0
9, 61650, Note_on_c, 3, 63, 52
9, 61671, Note_on_c, 3, 63, 0
9, 61680, Note_on_c, 3, 61, 52
9, 61911, Note_on_c, 3, 61, 0
9, 61920, Note_on_c, 3, 63, 52
9, 61964, Note_on_c, 3, 63, 0
9, 62010, Note_on_c, 3, 61, 52
9, 62031, Note_on_c, 3, 61, 0
9, 62040, Note_on_c, 3, 59, 52
9, 62151, Note_on_c, 3, 59, 0
9, 62160, Note_on_c, 3, 59, 52
9, 62204, Note_on_c, 3, 59, 0
9, 62250, Note_on_c, 3, 58, 52
9, 62271, Note_on_c, 3, 58, 0
9, 62280, Note_on_c, 3, 56, 52
9, 62324, Note_on_c, 3, 56, 0
9, 62370, Note_on_c, 3, 59, 52
9, 62391, Note_on_c, 3, 59, 0
9, 62398, Control_c, 3, 11, 80
9, 62400, Note_on_c, 3, 51, 76
9, 62400, Control_c, 3, 11, 80
9, 62400, Note_on_c, 3, 58, 76
9, 62420, Control_c, 3, 11, 81
9, 62440, Control_c, 3, 11, 83
9, 62460, Control_c, 3, 11, 84
9, 62480, Control_c, 3, 11, 85
9, 62500, Control_c, 3, 11, 87
9, 62520, Control_c, 3, 11, 88
9, 62540, Control_c, 3, 11, 89
9, 62560, Control_c, 3, 11, 90
9, 62579, Note_on_c, 3, 58, 0
9, 62580, Control_c, 3, 11, 92
9, 62580, Note_on_c, 3, 59, 76
9, 62600, Control_c, 3, 11, 93
9, 62620, Control_c, 3, 11, 94
9, 62639, Note_on_c, 3, 59, 0
9, 62640, Control_c, 3, 11, 96
9, 62640, Note_on_c, 3, 56, 76
9, 62660, Control_c, 3, 11, 97
9, 62680, Control_c, 3, 11, 98
9, 62695, Note_on_c, 3, 51, 0
9, 62699, Note_on_c, 3, 56, 0
9, 62700, Note_on_c, 3, 56, 76
9, 62700, Note_on_c, 3, 59, 76
9, 62700, Control_c, 3, 11, 100
9, 62720, Control_c, 3, 11, 101
9, 62740, Control_c, 3, 11, 102
9, 62755, Note_on_c, 3, 56, 0
9, 62755, Note_on_c, 3, 59, 0
9, 62760, Note_on_c, 3, 55, 76
9, 62760, Note_on_c, 3, 58, 76
9, 62760, Control_c, 3, 11, 104
9, 62780, Control_c, 3, 11, 105
9, 62800, Control_c, 3, 11, 106
9, 62820, Control_c, 3, 11, 107
9, 62840, Control_c, 3, 11, 109
9, 62860, Control_c, 3, 11, 110
9, 62880, Control_c, 3, 11, 111
9, 62900, Control_c, 3, 11, 113
9, 62920, Control_c, 3, 11, 114
9, 62939, Note_on_c, 3, 55, 0
9, 62939, Note_on_c, 3, 58, 0
9, 62940, Note_on_c, 3, 56, 76
9, 62940, Control_c, 3, 11, 115
9, 62940, Note_on_c, 3, 59, 76
9, 62960, Control_c, 3, 11, 117
9, 62980, Control_c, 3, 11, 118
9, 62999, Note_on_c, 3, 56, 0
9, 62999, Note_on_c, 3, 59, 0
9, 63000, Note_on_c, 3, 51, 76
9, 63000, Note_on_c, 3, 56, 76
9, 63000, Control_c, 3, 11, 119
9, 63020, Control_c, 3, 11, 120
9, 63040, Control_c, 3, 11, 122
9, 63059, Note_on_c, 3, 51, 0
9, 63059, Note_on_c, 3, 56, 0
9, 63060, Control_c, 3, 11, 123
9, 63060, Note_on_c, 3, 59, 76
9, 63060, Note_on_c, 3, 56, 76
9, 63080, Control_c, 3, 11, 124
9, 63100, Control_c, 3, 11, 127
9, 63115, Note_on_c, 3, 59, 0
9, 63115, Note_on_c, 3, 56, 0
9, 63120, Note_on_c, 3, 55, 76
9, 63120, Note_on_c, 3, 58, 76
9, 63164, Note_on_c, 3, 55, 0
9, 63164, Note_on_c, 3, 58, 0
9, 63180, Note_on_c, 3, 55, 76
9, 63180, Note_on_c, 3, 63, 76
9, 63224, Note_on_c, 3, 55, 0
9, 63224, Note_on_c, 3, 63, 0
9, 66120, Note_on_c, 3, 46, 77
9, 66149, Note_on_c, 3, 46, 0
9, 66150, Note_on_c, 3, 48, 78
9, 66179, Note_on_c, 3, 48, 0
9, 66180, Note_on_c, 3, 49, 79
9, 66209, Note_on_c, 3, 49, 0
9, 66210, Note_on_c, 3, 51, 79
9, 66239, Note_on_c, 3, 51, 0
9, 66240, Note_on_c, 3, 53, 80
9, 66269, Note_on_c, 3, 53, 0
9, 66270, Note_on_c, 3, 55, 81
9, 66299, Note_on_c, 3, 55, 0
9, 66300, Note_on_c, 3, 56, 82
9, 66329, Note_on_c, 3, 56, 0
9, 66330, Note_on_c, 3, 58, 83
9, 66355, Note_on_c, 3, 58, 0
9, 66360, Note_on_c, 3, 60, 84
9, 66809, Note_on_c, 3, 60, 0
9, 66810, Note_on_c, 3, 58, 84
9, 66839, Note_on_c, 3, 58, 0
9, 66840, Note_on_c, 3, 56, 84
9, 66929, Note_on_c, 3, 56, 0
9, 66930, Note_on_c, 3, 60, 84
9, 66955, Note_on_c, 3, 60, 0
9, 66960, Note_on_c, 3, 53, 84
9, 67191, Note_on_c, 3, 53, 0
9, 67200, Note_on_c, 3, 61, 84
9, 67289, Note_on_c, 3, 61, 0
9, 67290, Note_on_c, 3, 60, 84
9, 67319, Note_on_c, 3, 60, 0
9, 67320, Note_on_c, 3, 58, 84
9, 67409, Note_on_c, 3, 58, 0
9, 67410, Note_on_c, 3, 61, 84
9, 67435, Note_on_c, 3, 61, 0
9, 67440, Note_on_c, 3, 55, 84
9, 67529, Note_on_c, 3, 55, 0
9, 67530, Note_on_c, 3, 58, 84
9, 67559, Note_on_c, 3, 58, 0
9, 67560, Note_on_c, 3, 52, 84
9, 67649, Note_on_c, 3, 52, 0
9, 67650, Note_on_c, 3, 55, 84
9, 67675, Note_on_c, 3, 55, 0
9, 67680, Note_on_c, 3, 60, 84
9, 67911, Note_on_c, 3, 60, 0
9, 67920, Note_on_c, 3, 61, 84
9, 68009, Note_on_c, 3, 61, 0
9, 68010, Note_on_c, 3, 58, 84
9, 68035, Note_on_c, 3, 58, 0
9, 68040, Note_on_c, 3, 65, 84
9, 68151, Note_on_c, 3, 65, 0
9, 68160, Note_on_c, 3, 58, 84
9, 68271, Note_on_c, 3, 58, 0
9, 68280, Note_on_c, 3, 60, 84
9, 68369, Note_on_c, 3, 60, 0
9, 68370, Note_on_c, 3, 56, 84
9, 68395, Note_on_c, 3, 56, 0
9, 68400, Note_on_c, 3, 63, 84
9, 68511, Note_on_c, 3, 63, 0
9, 68520, Note_on_c, 3, 58, 84
9, 68520, Note_on_c, 3, 55, 84
9, 68639, Note_on_c, 3, 58, 0
9, 68639, Note_on_c, 3, 55, 0
9, 68880, Note_on_c, 3, 56, 84
9, 68880, Note_on_c, 3, 60, 84
9, 68999, Note_on_c, 3, 56, 0
9, 68999, Note_on_c, 3, 60, 0
9, 69240, Note_on_c, 3, 51, 84
9, 69265, Note_on_c, 3, 51, 0
9, 69270, Note_on_c, 3, 50, 84
9, 69295, Note_on_c, 3, 50, 0
9, 69300, Note_on_c, 3, 51, 84
9, 69325, Note_on_c, 3, 51, 0
9, 69330, Note_on_c, 3, 53, 84
9, 69355, Note_on_c, 3, 53, 0
9, 69360, Note_on_c, 3, 55, 84
9, 69385, Note_on_c, 3, 55, 0
9, 69390, Note_on_c, 3, 56, 84
9, 69415, Note_on_c, 3, 56, 0
9, 69420, Note_on_c, 3, 58, 84
9, 69445, Note_on_c, 3, 58, 0
9, 69450, Note_on_c, 3, 60, 84
9, 69475, Note_on_c, 3, 60, 0
9, 69480, Note_on_c, 3, 61, 84
9, 69505, Note_on_c, 3, 61, 0
9, 69510, Note_on_c, 3, 51, 84
9, 69535, Note_on_c, 3, 51, 0
9, 69540, Note_on_c, 3, 53, 84
9, 69565, Note_on_c, 3, 53, 0
9, 69570, Note_on_c, 3, 55, 84
9, 69595, Note_on_c, 3, 55, 0
9, 69600, Note_on_c, 3, 56, 84
9, 69600, Note_on_c, 3, 44, 84
9, 69719, Note_on_c, 3, 56, 0
9, 69719, Note_on_c, 3, 44, 0
9, 69840, Note_on_c, 3, 56, 84
9, 69840, Note_on_c, 3, 44, 84
9, 69929, Note_on_c, 3, 56, 0
9, 69929, Note_on_c, 3, 44, 0
9, 69930, Note_on_c, 3, 60, 84
9, 69930, Note_on_c, 3, 48, 84
9, 69955, Note_on_c, 3, 60, 0
9, 69955, Note_on_c, 3, 48, 0
9, 69960, Note_on_c, 3, 63, 92
9, 70020, Control_c, 3, 11, 112
9, 70030, Control_c, 3, 11, 108
9, 70040, Control_c, 3, 11, 105
9, 70050, Control_c, 3, 11, 101
9, 70060, Control_c, 3, 11, 98
9, 70070, Control_c, 3, 11, 94
9, 70080, Control_c, 3, 11, 91
9, 70090, Control_c, 3, 11, 87
9, 70100, Control_c, 3, 11, 84
9, 70110, Control_c, 3, 11, 80
9, 70120, Control_c, 3, 11, 76
9, 70130, Control_c, 3, 11, 73
9, 70140, Control_c, 3, 11, 69
9, 70150, Control_c, 3, 11, 66
9, 70160, Control_c, 3, 11, 62
9, 70170, Control_c, 3, 11, 59
9, 70180, Control_c, 3, 11, 55
9, 70190, Control_c, 3, 11, 48
9, 70311, Note_on_c, 3, 63, 0
9, 70320, Note_on_c, 3, 65, 88
9, 70671, Note_on_c, 3, 65, 0
9, 70680, Note_on_c, 3, 60, 88
9, 71031, Note_on_c, 3, 60, 0
9, 71040, Note_on_c, 3, 63, 88
9, 71151, Note_on_c, 3, 63, 0
9, 71160, Note_on_c, 3, 63, 88
9, 71271, Note_on_c, 3, 63, 0
9, 71280, Note_on_c, 3, 63, 88
9, 71391, Note_on_c, 3, 63, 0
9, 71400, Note_on_c, 3, 63, 88
9, 71400, Note_on_c, 3, 56, 88
9, 71519, Note_on_c, 3, 63, 0
9, 71519, Note_on_c, 3, 56, 0
9, 72840, Control_c, 3, 11, 127
9, 73080, Note_on_c, 3, 51, 52
9, 73080, Note_on_c, 3, 63, 52
9, 73191, Note_on_c, 3, 51, 0
9, 73191, Note_on_c, 3, 63, 0
9, 73200, Note_on_c, 3, 63, 52
9, 73200, Note_on_c, 3, 51, 52
9, 73319, Note_on_c, 3, 63, 0
9, 73319, Note_on_c, 3, 51, 0
9, 73800, Note_on_c, 3, 60, 48
9, 73859, Note_on_c, 3, 60, 0
9, 73860, Note_on_c, 3, 63, 48
9, 73919, Note_on_c, 3, 63, 0
9, 73920, Note_on_c, 3, 66, 48
9, 74029, Note_on_c, 3, 66, 0
9, 74040, Note_on_c, 3, 66, 48
9, 74099, Note_on_c, 3, 66, 0
9, 74100, Note_on_c, 3, 65, 48
9, 74159, Note_on_c, 3, 65, 0
9, 74160, Note_on_c, 3, 63, 48
9, 74219, Note_on_c, 3, 63, 0
9, 74220, Note_on_c, 3, 66, 48
9, 74279, Note_on_c, 3, 66, 0
9, 74280, Note_on_c, 3, 65, 48
9, 74509, Note_on_c, 3, 65, 0
9, 74520, Note_on_c, 3, 61, 48
9, 74579, Note_on_c, 3, 61, 0
9, 74580, Note_on_c, 3, 63, 48
9, 74639, Note_on_c, 3, 63, 0
9, 74640, Note_on_c, 3, 64, 48
9, 74749, Note_on_c, 3, 64, 0
9, 74760, Note_on_c, 3, 64, 48
9, 74814, Note_on_c, 3, 64, 0
9, 74820, Note_on_c, 3, 63, 48
9, 74874, Note_on_c, 3, 63, 0
9, 74880, Note_on_c, 3, 61, 48
9, 74934, Note_on_c, 3, 61, 0
9, 74940, Note_on_c, 3, 64, 48
9, 74994, Note_on_c, 3, 64, 0
9, 75000, Note_on_c, 3, 63, 48
9, 75239, Note_on_c, 3, 63, 0
9, 75240, Note_on_c, 3, 44, 44
9, 75294, Note_on_c, 3, 44, 0
9, 75300, Note_on_c, 3, 44, 44
9, 75354, Note_on_c, 3, 44, 0
9, 75360, Note_on_c, 3, 44, 44
9, 75414, Note_on_c, 3, 44, 0
9, 75420, Note_on_c, 3, 44, 44
9, 75474, Note_on_c, 3, 44, 0
9, 75480, Note_on_c, 3, 60, 48
9, 75480, Note_on_c, 3, 44, 44
9, 75534, Note_on_c, 3, 44, 0
9, 75540, Note_on_c, 3, 44, 44
9, 75594, Note_on_c, 3, 44, 0
9, 75599, Note_on_c, 3, 60, 0
9, 75600, Note_on_c, 3, 44, 44
9, 75654, Note_on_c, 3, 44, 0
9, 75660, Note_on_c, 3, 44, 44
9, 75714, Note_on_c, 3, 44, 0
9, 75720, Note_on_c, 3, 44, 44
9, 75774, Note_on_c, 3, 44, 0
9, 75780, Note_on_c, 3, 44, 44
9, 75834, Note_on_c, 3, 44, 0
9, 75840, Note_on_c, 3, 44, 44
9, 75840, Note_on_c, 3, 61, 48
9, 75894, Note_on_c, 3, 44, 0
9, 75900, Note_on_c, 3, 44, 44
9, 75954, Note_on_c, 3, 44, 0
9, 75959, Note_on_c, 3, 61, 0
9, 75960, Note_on_c, 3, 44, 44
9, 76014, Note_on_c, 3, 44, 0
9, 76020, Note_on_c, 3, 44, 44
9, 76074, Note_on_c, 3, 44, 0
9, 76080, Note_on_c, 3, 44, 44
9, 76134, Note_on_c, 3, 44, 0
9, 76140, Note_on_c, 3, 44, 44
9, 76194, Note_on_c, 3, 44, 0
9, 76200, Note_on_c, 3, 44, 44
9, 76200, Note_on_c, 3, 61, 48
9, 76254, Note_on_c, 3, 44, 0
9, 76260, Note_on_c, 3, 44, 44
9, 76314, Note_on_c, 3, 44, 0
9, 76319, Note_on_c, 3, 61, 0
9, 76320, Note_on_c, 3, 44, 44
9, 76374, Note_on_c, 3, 44, 0
9, 76380, Note_on_c, 3, 44, 44
9, 76434, Note_on_c, 3, 44, 0
9, 76440, Note_on_c, 3, 60, 48
9, 76440, Note_on_c, 3, 44, 44
9, 76559, Note_on_c, 3, 60, 0
9, 76559, Note_on_c, 3, 44, 0
9, 77040, Note_on_c, 3, 63, 76
9, 77040, Note_on_c, 3, 55, 76
9, 77159, Note_on_c, 3, 63, 0
9, 77159, Note_on_c, 3, 55, 0
9, 77160, Note_on_c, 3, 56, 76
9, 77160, Note_on_c, 3, 60, 76
9, 77279, Note_on_c, 3, 56, 0
9, 77279, Note_on_c, 3, 60, 0
9, 77760, Note_on_c, 3, 55, 76
9, 77760, Note_on_c, 3, 58, 76
9, 77879, Note_on_c, 3, 55, 0
9, 77879, Note_on_c, 3, 58, 0
9, 77880, Note_on_c, 3, 56, 76
9, 77880, Note_on_c, 3, 60, 76
9, 77999, Note_on_c, 3, 56, 0
9, 77999, Note_on_c, 3, 60, 0
9, 78040, Note_on_c, 3, 44, 57
9, 78079, Note_on_c, 3, 44, 0
9, 78080, Note_on_c, 3, 48, 62
9, 78119, Note_on_c, 3, 48, 0
9, 78120, Note_on_c, 3, 51, 68
9, 78159, Note_on_c, 3, 51, 0
9, 78160, Note_on_c, 3, 56, 73
9, 78199, Note_on_c, 3, 56, 0
9, 78200, Note_on_c, 3, 60, 78
9, 78200, Note_on_c, 3, 48, 78
9, 78235, Note_on_c, 3, 60, 0
9, 78235, Note_on_c, 3, 48, 0
9, 78240, Note_on_c, 3, 51, 84
9, 78279, Note_on_c, 3, 51, 0
9, 78280, Note_on_c, 3, 56, 84
9, 78319, Note_on_c, 3, 56, 0
9, 78320, Note_on_c, 3, 60, 84
9, 78355, Note_on_c, 3, 60, 0
9, 78360, Note_on_c, 3, 63, 84
9, 78479, Note_on_c, 3, 63, 0
9, 78960, Note_on_c, 3, 65, 48
9, 79311, Note_on_c, 3, 65, 0
9, 79320, Note_on_c, 3, 60, 48
9, 79671, Note_on_c, 3, 60, 0
9, 79680, Note_on_c, 3, 63, 48
9, 79791, Note_on_c, 3, 63, 0
9, 79800, Note_on_c, 3, 63, 48
9, 79911, Note_on_c, 3, 63, 0
9, 79920, Note_on_c, 3, 63, 48
9, 80031, Note_on_c, 3, 63, 0
9, 80040, Note_on_c, 3, 63, 48
9, 80040, Note_on_c, 3, 56, 48
9, 80159, Note_on_c, 3, 63, 0
9, 80159, Note_on_c, 3, 56, 0
9, 80280, Control_c, 3, 11, 80
9, 80400, Note_on_c, 3, 56, 76
9, 80400, Note_on_c, 3, 44, 76
9, 80640, Control_c, 3, 11, 80
9, 80653, Control_c, 3, 11, 83
9, 80667, Control_c, 3, 11, 85
9, 80680, Control_c, 3, 11, 88
9, 80693, Control_c, 3, 11, 90
9, 80695, Note_on_c, 3, 56, 0
9, 80695, Note_on_c, 3, 44, 0
9, 80700, Note_on_c, 3, 60, 76
9, 80700, Note_on_c, 3, 56, 76
9, 80707, Control_c, 3, 11, 93
9, 80720, Control_c, 3, 11, 96
9, 80733, Control_c, 3, 11, 98
9, 80747, Control_c, 3, 11, 101
9, 80755, Note_on_c, 3, 60, 0
9, 80755, Note_on_c, 3, 56, 0
9, 80760, Note_on_c, 3, 61, 76
9, 80760, Note_on_c, 3, 65, 76
9, 80760, Control_c, 3, 11, 104
9, 80773, Control_c, 3, 11, 106
9, 80787, Control_c, 3, 11, 109
9, 80800, Control_c, 3, 11, 111
9, 80813, Control_c, 3, 11, 114
9, 80827, Control_c, 3, 11, 117
9, 80840, Control_c, 3, 11, 119
9, 80853, Control_c, 3, 11, 122
9, 80867, Control_c, 3, 11, 127
9, 80879, Note_on_c, 3, 61, 0
9, 80879, Note_on_c, 3, 65, 0
9, 80880, Note_on_c, 3, 60, 84
9, 80880, Note_on_c, 3, 63, 84
9, 81055, Note_on_c, 3, 60, 0
9, 81055, Note_on_c, 3, 63, 0
9, 81060, Note_on_c, 3, 60, 76
9, 81060, Note_on_c, 3, 63, 76
9, 81115, Note_on_c, 3, 60, 0
9, 81115, Note_on_c, 3, 63, 0
9, 81120, Note_on_c, 3, 55, 76
9, 81120, Note_on_c, 3, 63, 76
9, 81179, Note_on_c, 3, 63, 0
9, 81180, Note_on_c, 3, 61, 76
9, 81239, Note_on_c, 3, 55, 0
9, 81239, Note_on_c, 3, 61, 0
9, 81240, Note_on_c, 3, 60, 84
9, 81240, Note_on_c, 3, 56, 84
9, 81419, Note_on_c, 3, 60, 0
9, 81419, Note_on_c, 3, 56, 0
9, 82440, Note_on_c, 3, 51, 48
9, 82499, Note_on_c, 3, 51, 0
9, 82500, Note_on_c, 3, 56, 48
9, 82559, Note_on_c, 3, 56, 0
9, 82560, Note_on_c, 3, 60, 48
9, 82560, Note_on_c, 3, 56, 48
9, 82671, Note_on_c, 3, 60, 0
9, 82671, Note_on_c, 3, 56, 0
9, 82680, Note_on_c, 3, 60, 48
9, 82680, Note_on_c, 3, 56, 48
9, 82739, Note_on_c, 3, 60, 0
9, 82739, Note_on_c, 3, 56, 0
9, 82740, Note_on_c, 3, 51, 48
9, 82740, Note_on_c, 3, 58, 48
9, 82799, Note_on_c, 3, 51, 0
9, 82799, Note_on_c, 3, 58, 0
9, 82800, Note_on_c, 3, 56, 48
9, 82800, Note_on_c, 3, 48, 48
9, 82889, Note_on_c, 3, 56, 0
9, 82889, Note_on_c, 3, 48, 0
9, 82890, Note_on_c, 3, 60, 48
9, 82890, Note_on_c, 3, 56, 48
9, 82919, Note_on_c, 3, 60, 0
9, 82919, Note_on_c, 3, 56, 0
9, 82920, Note_on_c, 3, 60, 48
9, 82920, Note_on_c, 3, 63, 48
9, 83151, Note_on_c, 3, 60, 0
9, 83151, Note_on_c, 3, 63, 0
9, 83160, Note_on_c, 3, 48, 48
9, 83160, Note_on_c, 3, 56, 48
9, 83219, Note_on_c, 3, 48, 0
9, 83219, Note_on_c, 3, 56, 0
9, 83220, Note_on_c, 3, 56, 48
9, 83220, Note_on_c, 3, 60, 48
9, 83279, Note_on_c, 3, 56, 0
9, 83279, Note_on_c, 3, 60, 0
9, 83280, Note_on_c, 3, 60, 48
9, 83280, Note_on_c, 3, 63, 48
9, 83391, Note_on_c, 3, 60, 0
9, 83391, Note_on_c, 3, 63, 0
9, 83400, Note_on_c, 3, 63, 48
9, 83400, Note_on_c, 3, 60, 48
9, 83459, Note_on_c, 3, 63, 0
9, 83459, Note_on_c, 3, 60, 0
9, 83460, Note_on_c, 3, 58, 48
9, 83460, Note_on_c, 3, 61, 48
9, 83519, Note_on_c, 3, 58, 0
9, 83519, Note_on_c, 3, 61, 0
9, 83520, Note_on_c, 3, 56, 48
9, 83520, Note_on_c, 3, 60, 48
9, 83609, Note_on_c, 3, 56, 0
9, 83609, Note_on_c, 3, 60, 0
9, 83610, Note_on_c, 3, 60, 48
9, 83610, Note_on_c, 3, 63, 48
9, 83635, Note_on_c, 3, 60, 0
9, 83635, Note_on_c, 3, 63, 0
9, 83638, Control_c, 3, 11, 80
9, 83640, Note_on_c, 3, 63, 76
9, 83640, Note_on_c, 3, 56, 76
9, 84359, Note_on_c, 3, 63, 0
9, 84359, Note_on_c, 3, 56, 0
9, 84360, Control_c, 3, 11, 80
9, 84360, Note_on_c, 3, 56, 76
9, 84360, Note_on_c, 3, 63, 76
9, 84391, Control_c, 3, 11, 81
9, 84421, Control_c, 3, 11, 82
9, 84452, Control_c, 3, 11, 83
9, 84483, Control_c, 3, 11, 84
9, 84513, Control_c, 3, 11, 85
9, 84544, Control_c, 3, 11, 86
9, 84574, Control_c, 3, 11, 87
9, 84605, Control_c, 3, 11, 88
9, 84636, Control_c, 3, 11, 89
9, 84666, Control_c, 3, 11, 90
9, 84697, Control_c, 3, 11, 91
9, 84728, Control_c, 3, 11, 92
9, 84758, Control_c, 3, 11, 93
9, 84789, Control_c, 3, 11, 94
9, 84820, Control_c, 3, 11, 95
9, 84850, Control_c, 3, 11, 96
9, 84881, Control_c, 3, 11, 97
9, 84911, Control_c, 3, 11, 98
9, 84942, Control_c, 3, 11, 99
9, 84973, Control_c, 3, 11, 100
9, 85003, Control_c, 3, 11, 101
9, 85034, Control_c, 3, 11, 102
9, 85065, Control_c, 3, 11, 103
9, 85071, Note_on_c, 3, 56, 0
9, 85071, Note_on_c, 3, 63, 0
9, 85080, Note_on_c, 3, 56, 76
9, 85080, Note_on_c, 3, 63, 76
9, 85095, Control_c, 3, 11, 104
9, 85126, Control_c, 3, 11, 105
9, 85157, Control_c, 3, 11, 106
9, 85187, Control_c, 3, 11, 107
9, 85191, Note_on_c, 3, 56, 0
9, 85191, Note_on_c, 3, 63, 0
9, 85200, Note_on_c, 3, 56, 76
9, 85200, Note_on_c, 3, 63, 76
9, 85218, Control_c, 3, 11, 108
9, 85249, Control_c, 3, 11, 109
9, 85279, Control_c, 3, 11, 110
9, 85310, Control_c, 3, 11, 111
9, 85311, Note_on_c, 3, 56, 0
9, 85311, Note_on_c, 3, 63, 0
9, 85320, Note_on_c, 3, 56, 76
9, 85320, Note_on_c, 3, 63, 76
9, 85340, Control_c, 3, 11, 112
9, 85371, Control_c, 3, 11, 113
9, 85402, Control_c, 3, 11, 114
9, 85431, Note_on_c, 3, 56, 0
9, 85431, Note_on_c, 3, 63, 0
9, 85432, Control_c, 3, 11, 115
9, 85440, Note_on_c, 3, 63, 76
9, 85440, Note_on_c, 3, 56, 76
9, 85463, Control_c, 3, 11, 116
9, 85494, Control_c, 3, 11, 117
9, 85524, Control_c, 3, 11, 118
9, 85551, Note_on_c, 3, 63, 0
9, 85551, Note_on_c, 3, 56, 0
9, 85555, Control_c, 3, 11, 119
9, 85560, Note_on_c, 3, 56, 76
9, 85560, Note_on_c, 3, 63, 76
9, 85586, Control_c, 3, 11, 120
9, 85616, Control_c, 3, 11, 121
9, 85647, Control_c, 3, 11, 122
9, 85671, Note_on_c, 3, 56, 0
9, 85671, Note_on_c, 3, 63, 0
9, 85677, Control_c, 3, 11, 123
9, 85680, Note_on_c, 3, 56, 76
9, 85680, Note_on_c, 3, 63, 76
9, 85708, Control_c, 3, 11, 124
9, 85739, Control_c, 3, 11, 125
9, 85769, Control_c, 3, 11, 127
9, 85791, Note_on_c, 3, 56, 0
9, 85791, Note_on_c, 3, 63, 0
9, 85800, Note_on_c, 3, 63, 76
9, 85800, Note_on_c, 3, 56, 76
9, 85835, Note_on_c, 3, 63, 0
9, 85835, Note_on_c, 3, 56, 0
9, 85840, Note_on_c, 3, 63, 76
9, 85840, Note_on_c, 3, 56, 76
9, 85875, Note_on_c, 3, 63, 0
9, 85875, Note_on_c, 3, 56, 0
9, 85880, Note_on_c, 3, 63, 76
9, 85880, Note_on_c, 3, 56, 76
9, 85915, Note_on_c, 3, 63, 0
9, 85915, Note_on_c, 3, 56, 0
9, 85920, Note_on_c, 3, 56, 76
9, 85920, Note_on_c, 3, 63, 76
9, 85955, Note_on_c, 3, 56, 0
9, 85955, Note_on_c, 3, 63, 0
9, 85960, Note_on_c, 3, 56, 76
9, 85960, Note_on_c, 3, 63, 76
9, 85995, Note_on_c, 3, 56, 0
9, 85995, Note_on_c, 3, 63, 0
9, 86000, Note_on_c, 3, 56, 76
9, 86000, Note_on_c, 3, 63, 76
9, 86035, Note_on_c, 3, 56, 0
9, 86035, Note_on_c, 3, 63, 0
9, 86040, Note_on_c, 3, 56, 76
9, 86040, Note_on_c, 3, 63, 76
9, 86075, Note_on_c, 3, 56, 0
9, 86075, Note_on_c, 3, 63, 0
9, 86080, Note_on_c, 3, 56, 76
9, 86080, Note_on_c, 3, 63, 76
9, 86115, Note_on_c, 3, 56, 0
9, 86115, Note_on_c, 3, 63, 0
9, 86120, Note_on_c, 3, 56, 76
9, 86120, Note_on_c, 3, 63, 76
9, 86155, Note_on_c, 3, 56, 0
9, 86155, Note_on_c, 3, 63, 0
9, 86160, Note_on_c, 3, 56, 76
9, 86160, Note_on_c, 3, 63, 76
9, 86195, Note_on_c, 3, 56, 0
9, 86195, Note_on_c, 3, 63, 0
9, 86200, Note_on_c, 3, 63, 76
9, 86200, Note_on_c, 3, 56, 76
9, 86235, Note_on_c, 3, 63, 0
9, 86235, Note_on_c, 3, 56, 0
9, 86240, Note_on_c, 3, 56, 76
9, 86240, Note_on_c, 3, 63, 76
9, 86275, Note_on_c, 3, 56, 0
9, 86275, Note_on_c, 3, 63, 0
9, 86280, Note_on_c, 3, 56, 76
9, 86280, Note_on_c, 3, 63, 76
9, 86315, Note_on_c, 3, 56, 0
9, 86315, Note_on_c, 3, 63, 0
9, 86320, Note_on_c, 3, 63, 76
9, 86320, Note_on_c, 3, 56, 76
9, 86355, Note_on_c, 3, 63, 0
9, 86355, Note_on_c, 3, 56, 0
9, 86360, Note_on_c, 3, 63, 76
9, 86360, Note_on_c, 3, 56, 76
9, 86395, Note_on_c, 3, 63, 0
9, 86395, Note_on_c, 3, 56, 0
9, 86400, Note_on_c, 3, 63, 76
9, 86400, Note_on_c, 3, 56, 76
9, 86435, Note_on_c, 3, 63, 0
9, 86435, Note_on_c, 3, 56, 0
9, 86440, Note_on_c, 3, 56, 76
9, 86440, Note_on_c, 3, 63, 76
9, 86475, Note_on_c, 3, 56, 0
9, 86475, Note_on_c, 3, 63, 0
9, 86480, Note_on_c, 3, 56, 76
9, 86480, Note_on_c, 3, 63, 76
9, 86515, Note_on_c, 3, 56, 0
9, 86515, Note_on_c, 3, 63, 0
9, 86520, Note_on_c, 3, 56, 76
9, 86520, Note_on_c, 3, 63, 76
9, 86555, Note_on_c, 3, 56, 0
9, 86555, Note_on_c, 3, 63, 0
9, 86560, Note_on_c, 3, 56, 76
9, 86560, Note_on_c, 3, 63, 76
9, 86595, Note_on_c, 3, 56, 0
9, 86595, Note_on_c, 3, 63, 0
9, 86600, Note_on_c, 3, 56, 76
9, 86600, Note_on_c, 3, 63, 76
9, 86635, Note_on_c, 3, 56, 0
9, 86635, Note_on_c, 3, 63, 0
9, 86640, Note_on_c, 3, 56, 76
9, 86640, Note_on_c, 3, 63, 76
9, 86675, Note_on_c, 3, 56, 0
9, 86675, Note_on_c, 3, 63, 0
9, 86680, Note_on_c, 3, 56, 76
9, 86680, Note_on_c, 3, 63, 76
9, 86715, Note_on_c, 3, 56, 0
9, 86715, Note_on_c, 3, 63, 0
9, 86720, Note_on_c, 3, 56, 76
9, 86720, Note_on_c, 3, 63, 76
9, 86755, Note_on_c, 3, 56, 0
9, 86755, Note_on_c, 3, 63, 0
9, 86760, Note_on_c, 3, 56, 76
9, 86789, Note_on_c, 3, 56, 0
9, 86800, Note_on_c, 3, 60, 76
9, 86829, Note_on_c, 3, 60, 0
9, 86840, Note_on_c, 3, 63, 76
9, 86869, Note_on_c, 3, 63, 0
9, 86880, Note_on_c, 3, 56, 84
9, 86880, Note_on_c, 3, 68, 84
9, 86999, Note_on_c, 3, 56, 0
9, 86999, Note_on_c, 3, 68, 0
9, 87120, Note_on_c, 3, 56, 84
9, 87205, Note_on_c, 3, 56, 0
9, 87210, Note_on_c, 3, 60, 84
9, 87235, Note_on_c, 3, 60, 0
9, 87240, Note_on_c, 3, 63, 92
9, 87584, Note_on_c, 3, 63, 0
9, 87600, Note_on_c, 3, 60, 84
9, 87719, Note_on_c, 3, 60, 0
9, 87840, Note_on_c, 3, 63, 52
9, 87840, Note_on_c, 3, 55, 52
9, 87929, Note_on_c, 3, 63, 0
9, 87929, Note_on_c, 3, 55, 0
9, 87960, Note_on_c, 3, 60, 52
9, 87960, Note_on_c, 3, 56, 52
9, 88049, Note_on_c, 3, 60, 0
9, 88049, Note_on_c, 3, 56, 0
9, 88200, Note_on_c, 3, 56, 76
9, 88285, Note_on_c, 3, 56, 0
9, 88290, Note_on_c, 3, 60, 76
9, 88315, Note_on_c, 3, 60, 0
9, 88320, Note_on_c, 3, 63, 84
9, 88671, Note_on_c, 3, 63, 0
9, 88680, Note_on_c, 3, 56, 84
9, 88799, Note_on_c, 3, 56, 0
9, 88799, End_track
10, 0, Start_track
10, 0, Title_t, "French Horn I and II in C"
10, 0, MIDI_port, 0
10, 0, Program_c, 4, 60
10, 0, Control_c, 4, 7, 96
10, 0, Control_c, 4, 10, 45
10, 0, Control_c, 4, 11, 127
10, 10200, Note_on_c, 4, 48, 84
10, 10200, Note_on_c, 4, 60, 84
10, 10551, Note_on_c, 4, 48, 0
10, 10551, Note_on_c, 4, 60, 0
10, 10560, Note_on_c, 4, 60, 84
10, 10560, Note_on_c, 4, 48, 84
10, 10649, Note_on_c, 4, 60, 0
10, 10649, Note_on_c, 4, 48, 0
10, 10680, Note_on_c, 4, 52, 84
10, 10680, Note_on_c, 4, 60, 84
10, 10769, Note_on_c, 4, 52, 0
10, 10769, Note_on_c, 4, 60, 0
10, 10800, Note_on_c, 4, 55, 84
10, 10800, Note_on_c, 4, 62, 84
10, 10889, Note_on_c, 4, 55, 0
10, 10889, Note_on_c, 4, 62, 0
10, 10920, Note_on_c, 4, 60, 84
10, 10920, Note_on_c, 4, 52, 84
10, 11039, Note_on_c, 4, 60, 0
10, 11039, Note_on_c, 4, 52, 0
10, 11160, Note_on_c, 4, 52, 84
10, 11245, Note_on_c, 4, 52, 0
10, 11250, Note_on_c, 4, 55, 84
10, 11275, Note_on_c, 4, 55, 0
10, 11280, Note_on_c, 4, 52, 84
10, 11280, Note_on_c, 4, 60, 84
10, 11391, Note_on_c, 4, 52, 0
10, 11391, Note_on_c, 4, 60, 0
10, 11400, Note_on_c, 4, 60, 84
10, 11400, Note_on_c, 4, 52, 84
10, 11511, Note_on_c, 4, 60, 0
10, 11511, Note_on_c, 4, 52, 0
10, 11520, Note_on_c, 4, 55, 84
10, 11520, Note_on_c, 4, 62, 84
10, 11631, Note_on_c, 4, 55, 0
10, 11631, Note_on_c, 4, 62, 0
10, 11640, Note_on_c, 4, 60, 84
10, 11640, Note_on_c, 4, 64, 84
10, 11871, Note_on_c, 4, 60, 0
10, 11871, Note_on_c, 4, 64, 0
10, 11880, Note_on_c, 4, 52, 84
10, 11880, Note_on_c, 4, 60, 84
10, 11965, Note_on_c, 4, 52, 0
10, 11965, Note_on_c, 4, 60, 0
10, 11970, Note_on_c, 4, 62, 84
10, 11970, Note_on_c, 4, 55, 84
10, 11995, Note_on_c, 4, 62, 0
10, 11995, Note_on_c, 4, 55, 0
10, 12000, Note_on_c, 4, 60, 84
10, 12000, Note_on_c, 4, 64, 84
10, 12111, Note_on_c, 4, 60, 0
10, 12111, Note_on_c, 4, 64, 0
10, 12120, Note_on_c, 4, 64, 84
10, 12120, Note_on_c, 4, 60, 84
10, 12231, Note_on_c, 4, 64, 0
10, 12231, Note_on_c, 4, 60, 0
10, 12240, Note_on_c, 4, 62, 84
10, 12240, Note_on_c, 4, 65, 84
10, 12351, Note_on_c, 4, 62, 0
10, 12351, Note_on_c, 4, 65, 0
10, 12360, Note_on_c, 4, 67, 92
10, 12360, Note_on_c, 4, 64, 92
10, 12584, Note_on_c, 4, 67, 0
10, 12584, Note_on_c, 4, 64, 0
10, 12600, Note_on_c, 4, 60, 84
10, 12600, Note_on_c, 4, 64, 84
10, 12685, Note_on_c, 4, 60, 0
10, 12685, Note_on_c, 4, 64, 0
10, 12690, Note_on_c, 4, 62, 84
10, 12690, Note_on_c, 4, 65, 84
10, 12715, Note_on_c, 4, 62, 0
10, 12715, Note_on_c, 4, 65, 0
10, 12720, Note_on_c, 4, 64, 92
10, 12720, Note_on_c, 4, 67, 92
10, 12944, Note_on_c, 4, 64, 0
10, 12944, Note_on_c, 4, 67, 0
10, 12960, Note_on_c, 4, 64, 84
10, 12960, Note_on_c, 4, 60, 84
10, 13045, Note_on_c, 4, 64, 0
10, 13045, Note_on_c, 4, 60, 0
10, 13050, Note_on_c, 4, 62, 84
10, 13050, Note_on_c, 4, 65, 84
10, 13075, Note_on_c, 4, 62, 0
10, 13075, Note_on_c, 4, 65, 0
10, 13080, Note_on_c, 4, 67, 92
10, 13080, Note_on_c, 4, 64, 92
10, 13200, Control_c, 4, 11, 112
10, 13215, Control_c, 4, 11, 109
10, 13230, Control_c, 4, 11, 106
10, 13245, Control_c, 4, 11, 103
10, 13260, Control_c, 4, 11, 100
10, 13275, Control_c, 4, 11, 97
10, 13290, Control_c, 4, 11, 94
10, 13305, Control_c, 4, 11, 91
10, 13320, Control_c, 4, 11, 88
10, 13335, Control_c, 4, 11, 85
10, 13350, Control_c, 4, 11, 82
10, 13365, Control_c, 4, 11, 79
10, 13380, Control_c, 4, 11, 76
10, 13395, Control_c, 4, 11, 73
10, 13410, Control_c, 4, 11, 70
10, 13425, Control_c, 4, 11, 67
10, 13440, Control_c, 4, 11, 64
10, 13455, Control_c, 4, 11, 61
10, 13470, Control_c, 4, 11, 58
10, 13485, Control_c, 4, 11, 55
10, 13500, Control_c, 4, 11, 52
10, 13515, Control_c, 4, 11, 49
10, 13530, Control_c, 4, 11, 46
10, 13545, Control_c, 4, 11, 43
10, 13560, Control_c, 4, 11, 40
10, 13919, Note_on_c, 4, 67, 0
10, 13919, Note_on_c, 4, 64, 0
10, 27720, Control_c, 4, 11, 127
10, 27840, Note_on_c, 4, 60, 84
10, 27840, Note_on_c, 4, 48, 84
10, 28191, Note_on_c, 4, 60, 0
10, 28191, Note_on_c, 4, 48, 0
10, 28200, Note_on_c, 4, 60, 84
10, 28200, Note_on_c, 4, 48, 84
10, 28289, Note_on_c, 4, 60, 0
10, 28289, Note_on_c, 4, 48, 0
10, 28320, Note_on_c, 4, 60, 84
10, 28320, Note_on_c, 4, 52, 84
10, 28409, Note_on_c, 4, 60, 0
10, 28409, Note_on_c, 4, 52, 0
10, 28440, Note_on_c, 4, 62, 84
10, 28440, Note_on_c, 4, 55, 84
10, 28529, Note_on_c, 4, 62, 0
10, 28529, Note_on_c, 4, 55, 0
10, 28560, Note_on_c, 4, 60, 84
10, 28560, Note_on_c, 4, 52, 84
10, 28679, Note_on_c, 4, 60, 0
10, 28679, Note_on_c, 4, 52, 0
10, 28800, Note_on_c, 4, 52, 84
10, 28885, Note_on_c, 4, 52, 0
10, 28890, Note_on_c, 4, 55, 84
10, 28915, Note_on_c, 4, 55, 0
10, 28920, Note_on_c, 4, 60, 84
10, 28920, Note_on_c, 4, 52, 84
10, 29031, Note_on_c, 4, 60, 0
10, 29031, Note_on_c, 4, 52, 0
10, 29040, Note_on_c, 4, 60, 84
10, 29040, Note_on_c, 4, 52, 84
10, 29151, Note_on_c, 4, 60, 0
10, 29151, Note_on_c, 4, 52, 0
10, 29160, Note_on_c, 4, 62, 84
10, 29160, Note_on_c, 4, 55, 84
10, 29271, Note_on_c, 4, 62, 0
10, 29271, Note_on_c, 4, 55, 0
10, 29280, Note_on_c, 4, 64, 84
10, 29280, Note_on_c, 4, 60, 84
10, 29511, Note_on_c, 4, 64, 0
10, 29511, Note_on_c, 4, 60, 0
10, 29520, Note_on_c, 4, 60, 84
10, 29520, Note_on_c, 4, 52, 84
10, 29605, Note_on_c, 4, 60, 0
10, 29605, Note_on_c, 4, 52, 0
10, 29610, Note_on_c, 4, 62, 84
10, 29610, Note_on_c, 4, 55, 84
10, 29635, Note_on_c, 4, 62, 0
10, 29635, Note_on_c, 4, 55, 0
10, 29640, Note_on_c, 4, 64, 84
10, 29640, Note_on_c, 4, 60, 84
10, 29751, Note_on_c, 4, 64, 0
10, 29751, Note_on_c, 4, 60, 0
10, 29760, Note_on_c, 4, 64, 84
10, 29760, Note_on_c, 4, 60, 84
10, 29871, Note_on_c, 4, 64, 0
10, 29871, Note_on_c, 4, 60, 0
10, 29880, Note_on_c, 4, 65, 84
10, 29880, Note_on_c, 4, 62, 84
10, 29991, Note_on_c, 4, 65, 0
10, 29991, Note_on_c, 4, 62, 0
10, 30000, Note_on_c, 4, 67, 92
10, 30000, Note_on_c, 4, 64, 92
10, 30224, Note_on_c, 4, 67, 0
10, 30224, Note_on_c, 4, 64, 0
10, 30240, Note_on_c, 4, 64, 84
10, 30240, Note_on_c, 4, 60, 84
10, 30325, Note_on_c, 4, 64, 0
10, 30325, Note_on_c, 4, 60, 0
10, 30330, Note_on_c, 4, 65, 84
10, 30330, Note_on_c, 4, 62, 84
10, 30355, Note_on_c, 4, 65, 0
10, 30355, Note_on_c, 4, 62, 0
10, 30360, Note_on_c, 4, 67, 92
10, 30360, Note_on_c, 4, 64, 92
10, 30584, Note_on_c, 4, 67, 0
10, 30584, Note_on_c, 4, 64, 0
10, 30600, Note_on_c, 4, 64, 84
10, 30600, Note_on_c, 4, 60, 84
10, 30685, Note_on_c, 4, 64, 0
10, 30685, Note_on_c, 4, 60, 0
10, 30690, Note_on_c, 4, 65, 84
10, 30690, Note_on_c, 4, 62, 84
10, 30715, Note_on_c, 4, 65, 0
10, 30715, Note_on_c, 4, 62, 0
10, 30720, Note_on_c, 4, 67, 76
10, 30720, Note_on_c, 4, 64, 76
10, 30720, Control_c, 4, 11, 127
10, 30735, Control_c, 4, 11, 125
10, 30750, Control_c, 4, 11, 123
10, 30765, Control_c, 4, 11, 121
10, 30780, Control_c, 4, 11, 119
10, 30795, Control_c, 4, 11, 117
10, 30810, Control_c, 4, 11, 115
10, 30825, Control_c, 4, 11, 113
10, 30840, Control_c, 4, 11, 111
10, 30855, Control_c, 4, 11, 109
10, 30870, Control_c, 4, 11, 107
10, 30885, Control_c, 4, 11, 105
10, 30900, Control_c, 4, 11, 104
10, 30915, Control_c, 4, 11, 102
10, 30930, Control_c, 4, 11, 100
10, 30945, Control_c, 4, 11, 98
10, 30960, Control_c, 4, 11, 96
10, 30975, Control_c, 4, 11, 94
10, 30990, Control_c, 4, 11, 92
10, 31005, Control_c, 4, 11, 90
10, 31020, Control_c, 4, 11, 88
10, 31035, Control_c, 4, 11, 86
10, 31050, Control_c, 4, 11, 84
10, 31065, Control_c, 4, 11, 80
10, 31440, Control_c, 4, 11, 64
10, 31559, Note_on_c, 4, 67, 0
10, 31559, Note_on_c, 4, 64, 0
10, 40800, Control_c, 4, 11, 127
10, 40860, Note_on_c, 4, 60, 76
10, 40915, Note_on_c, 4, 60, 0
10, 40920, Note_on_c, 4, 60, 76
10, 40975, Note_on_c, 4, 60, 0
10, 40980, Note_on_c, 4, 60, 76
10, 41035, Note_on_c, 4, 60, 0
10, 41040, Note_on_c, 4, 60, 76
10, 41095, Note_on_c, 4, 60, 0
10, 41100, Note_on_c, 4, 60, 76
10, 41155, Note_on_c, 4, 60, 0
10, 41160, Note_on_c, 4, 60, 76
10, 41215, Note_on_c, 4, 60, 0
10, 41220, Note_on_c, 4, 60, 76
10, 41275, Note_on_c, 4, 60, 0
10, 41280, Note_on_c, 4, 60, 76
10, 41335, Note_on_c, 4, 60, 0
10, 41340, Note_on_c, 4, 60, 76
10, 41395, Note_on_c, 4, 60, 0
10, 41400, Note_on_c, 4, 60, 76
10, 41455, Note_on_c, 4, 60, 0
10, 41460, Note_on_c, 4, 60, 76
10, 41515, Note_on_c, 4, 60, 0
10, 41520, Note_on_c, 4, 65, 76
10, 41575, Note_on_c, 4, 65, 0
10, 41580, Note_on_c, 4, 65, 76
10, 41635, Note_on_c, 4, 65, 0
10, 41640, Note_on_c, 4, 65, 76
10, 41695, Note_on_c, 4, 65, 0
10, 41700, Note_on_c, 4, 65, 76
10, 41755, Note_on_c, 4, 65, 0
10, 41760, Note_on_c, 4, 65, 76
10, 41815, Note_on_c, 4, 65, 0
10, 41820, Note_on_c, 4, 65, 76
10, 41875, Note_on_c, 4, 65, 0
10, 41880, Note_on_c, 4, 65, 76
10, 41935, Note_on_c, 4, 65, 0
10, 41940, Note_on_c, 4, 65, 76
10, 41995, Note_on_c, 4, 65, 0
10, 42000, Note_on_c, 4, 65, 76
10, 42055, Note_on_c, 4, 65, 0
10, 42060, Note_on_c, 4, 65, 76
10, 42115, Note_on_c, 4, 65, 0
10, 42120, Note_on_c, 4, 67, 76
10, 42120, Note_on_c, 4, 55, 76
10, 42175, Note_on_c, 4, 67, 0
10, 42175, Note_on_c, 4, 55, 0
10, 42180, Note_on_c, 4, 67, 76
10, 42180, Note_on_c, 4, 55, 76
10, 42235, Note_on_c, 4, 67, 0
10, 42235, Note_on_c, 4, 55, 0
10, 42240, Note_on_c, 4, 67, 76
10, 42240, Note_on_c, 4, 60, 76
10, 42295, Note_on_c, 4, 67, 0
10, 42295, Note_on_c, 4, 60, 0
10, 42300, Note_on_c, 4, 67, 76
10, 42300, Note_on_c, 4, 60, 76
10, 42355, Note_on_c, 4, 67, 0
10, 42355, Note_on_c, 4, 60, 0
10, 42360, Note_on_c, 4, 67, 76
10, 42360, Note_on_c, 4, 60, 76
10, 42415, Note_on_c, 4, 67, 0
10, 42415, Note_on_c, 4, 60, 0
10, 42420, Note_on_c, 4, 67, 76
10, 42420, Note_on_c, 4, 60, 76
10, 42475, Note_on_c, 4, 67, 0
10, 42475, Note_on_c, 4, 60, 0
10, 42480, Note_on_c, 4, 67, 76
10, 42480, Note_on_c, 4, 60, 76
10, 42535, Note_on_c, 4, 67, 0
10, 42535, Note_on_c, 4, 60, 0
10, 42540, Note_on_c, 4, 67, 76
10, 42540, Note_on_c, 4, 60, 76
10, 42595, Note_on_c, 4, 67, 0
10, 42595, Note_on_c, 4, 60, 0
10, 42600, Note_on_c, 4, 65, 76
10, 42655, Note_on_c, 4, 65, 0
10, 42660, Note_on_c, 4, 65, 76
10, 42715, Note_on_c, 4, 65, 0
10, 42720, Note_on_c, 4, 65, 76
10, 42775, Note_on_c, 4, 65, 0
10, 42780, Note_on_c, 4, 65, 76
10, 42835, Note_on_c, 4, 65, 0
10, 42840, Note_on_c, 4, 65, 76
10, 42895, Note_on_c, 4, 65, 0
10, 42900, Note_on_c, 4, 65, 76
10, 42955, Note_on_c, 4, 65, 0
10, 42960, Note_on_c, 4, 67, 76
10, 43015, Note_on_c, 4, 67, 0
10, 43020, Note_on_c, 4, 55, 76
10, 43075, Note_on_c, 4, 55, 0
10, 43080, Note_on_c, 4, 60, 76
10, 43080, Note_on_c, 4, 48, 76
10, 43135, Note_on_c, 4, 60, 0
10, 43135, Note_on_c, 4, 48, 0
10, 43140, Note_on_c, 4, 60, 76
10, 43140, Note_on_c, 4, 48, 76
10, 43195, Note_on_c, 4, 60, 0
10, 43195, Note_on_c, 4, 48, 0
10, 43200, Note_on_c, 4, 60, 76
10, 43200, Note_on_c, 4, 48, 76
10, 43255, Note_on_c, 4, 60, 0
10, 43255, Note_on_c, 4, 48, 0
10, 43260, Note_on_c, 4, 60, 76
10, 43260, Note_on_c, 4, 48, 76
10, 43315, Note_on_c, 4, 60, 0
10, 43315, Note_on_c, 4, 48, 0
10, 43320, Note_on_c, 4, 55, 76
10, 43439, Note_on_c, 4, 55, 0
10, 52560, Note_on_c, 4, 67, 76
10, 52560, Note_on_c, 4, 55, 76
10, 52615, Note_on_c, 4, 67, 0
10, 52615, Note_on_c, 4, 55, 0
10, 52620, Note_on_c, 4, 67, 76
10, 52620, Note_on_c, 4, 55, 76
10, 52675, Note_on_c, 4, 67, 0
10, 52675, Note_on_c, 4, 55, 0
10, 52680, Note_on_c, 4, 67, 76
10, 52680, Note_on_c, 4, 55, 76
10, 52735, Note_on_c, 4, 67, 0
10, 52735, Note_on_c, 4, 55, 0
10, 52740, Note_on_c, 4, 67, 76
10, 52740, Note_on_c, 4, 55, 76
10, 52795, Note_on_c, 4, 67, 0
10, 52795, Note_on_c, 4, 55, 0
10, 52800, Note_on_c, 4, 67, 76
10, 52800, Note_on_c, 4, 55, 76
10, 52855, Note_on_c, 4, 67, 0
10, 52855, Note_on_c, 4, 55, 0
10, 52860, Note_on_c, 4, 67, 76
10, 52860, Note_on_c, 4, 55, 76
10, 52915, Note_on_c, 4, 67, 0
10, 52915, Note_on_c, 4, 55, 0
10, 52920, Note_on_c, 4, 60, 84
10, 52920, Note_on_c, 4, 48, 84
10, 52975, Note_on_c, 4, 60, 0
10, 52975, Note_on_c, 4, 48, 0
10, 52980, Note_on_c, 4, 60, 84
10, 52980, Note_on_c, 4, 48, 84
10, 53035, Note_on_c, 4, 60, 0
10, 53035, Note_on_c, 4, 48, 0
10, 53040, Note_on_c, 4, 60, 84
10, 53040, Note_on_c, 4, 48, 84
10, 53151, Note_on_c, 4, 60, 0
10, 53151, Note_on_c, 4, 48, 0
10, 53160, Note_on_c, 4, 60, 84
10, 53160, Note_on_c, 4, 52, 84
10, 53271, Note_on_c, 4, 60, 0
10, 53271, Note_on_c, 4, 52, 0
10, 53280, Note_on_c, 4, 62, 84
10, 53280, Note_on_c, 4, 55, 84
10, 53391, Note_on_c, 4, 62, 0
10, 53391, Note_on_c, 4, 55, 0
10, 53400, Note_on_c, 4, 64, 84
10, 53400, Note_on_c, 4, 60, 84
10, 53991, Note_on_c, 4, 64, 0
10, 53991, Note_on_c, 4, 60, 0
10, 54000, Note_on_c, 4, 60, 84
10, 54000, Note_on_c, 4, 52, 84
10, 54085, Note_on_c, 4, 60, 0
10, 54085, Note_on_c, 4, 52, 0
10, 54090, Note_on_c, 4, 62, 84
10, 54090, Note_on_c, 4, 55, 84
10, 54115, Note_on_c, 4, 62, 0
10, 54115, Note_on_c, 4, 55, 0
10, 54120, Note_on_c, 4, 64, 84
10, 54120, Note_on_c, 4, 60, 84
10, 54231, Note_on_c, 4, 64, 0
10, 54231, Note_on_c, 4, 60, 0
10, 54240, Note_on_c, 4, 64, 84
10, 54240, Note_on_c, 4, 60, 84
10, 54351, Note_on_c, 4, 64, 0
10, 54351, Note_on_c, 4, 60, 0
10, 54360, Note_on_c, 4, 65, 84
10, 54360, Note_on_c, 4, 62, 84
10, 54471, Note_on_c, 4, 65, 0
10, 54471, Note_on_c, 4, 62, 0
10, 54480, Note_on_c, 4, 67, 84
10, 54480, Note_on_c, 4, 64, 84
10, 55071, Note_on_c, 4, 67, 0
10, 55071, Note_on_c, 4, 64, 0
10, 55080, Note_on_c, 4, 64, 84
10, 55080, Note_on_c, 4, 60, 84
10, 55165, Note_on_c, 4, 64, 0
10, 55165, Note_on_c, 4, 60, 0
10, 55170, Note_on_c, 4, 65, 84
10, 55170, Note_on_c, 4, 62, 84
10, 55195, Note_on_c, 4, 65, 0
10, 55195, Note_on_c, 4, 62, 0
10, 55200, Note_on_c, 4, 67, 84
10, 55200, Note_on_c, 4, 64, 84
10, 55431, Note_on_c, 4, 67, 0
10, 55431, Note_on_c, 4, 64, 0
10, 55440, Note_on_c, 4, 64, 84
10, 55440, Note_on_c, 4, 60, 84
10, 55525, Note_on_c, 4, 64, 0
10, 55525, Note_on_c, 4, 60, 0
10, 55530, Note_on_c, 4, 65, 84
10, 55530, Note_on_c, 4, 62, 84
10, 55555, Note_on_c, 4, 65, 0
10, 55555, Note_on_c, 4, 62, 0
10, 55560, Note_on_c, 4, 67, 84
10, 55560, Note_on_c, 4, 64, 84
10, 55791, Note_on_c, 4, 67, 0
10, 55791, Note_on_c, 4, 64, 0
10, 55800, Note_on_c, 4, 64, 84
10, 55800, Note_on_c, 4, 60, 84
10, 55885, Note_on_c, 4, 64, 0
10, 55885, Note_on_c, 4, 60, 0
10, 55890, Note_on_c, 4, 65, 84
10, 55890, Note_on_c, 4, 62, 84
10, 55915, Note_on_c, 4, 65, 0
10, 55915, Note_on_c, 4, 62, 0
10, 55920, Note_on_c, 4, 67, 84
10, 55920, Note_on_c, 4, 64, 84
10, 55920, Control_c, 4, 11, 127
10, 55935, Control_c, 4, 11, 126
10, 55950, Control_c, 4, 11, 124
10, 55965, Control_c, 4, 11, 123
10, 55980, Control_c, 4, 11, 122
10, 55995, Control_c, 4, 11, 120
10, 56010, Control_c, 4, 11, 119
10, 56025, Control_c, 4, 11, 118
10, 56040, Control_c, 4, 11, 117
10, 56055, Control_c, 4, 11, 115
10, 56070, Control_c, 4, 11, 114
10, 56085, Control_c, 4, 11, 113
10, 56100, Control_c, 4, 11, 111
10, 56115, Control_c, 4, 11, 110
10, 56130, Control_c, 4, 11, 109
10, 56145, Control_c, 4, 11, 107
10, 56160, Control_c, 4, 11, 106
10, 56175, Control_c, 4, 11, 105
10, 56190, Control_c, 4, 11, 103
10, 56205, Control_c, 4, 11, 102
10, 56220, Control_c, 4, 11, 101
10, 56235, Control_c, 4, 11, 99
10, 56250, Control_c, 4, 11, 98
10, 56265, Control_c, 4, 11, 97
10, 56280, Control_c, 4, 11, 96
10, 56295, Control_c, 4, 11, 94
10, 56310, Control_c, 4, 11, 93
10, 56325, Control_c, 4, 11, 92
10, 56340, Control_c, 4, 11, 90
10, 56355, Control_c, 4, 11, 89
10, 56370, Control_c, 4, 11, 88
10, 56385, Control_c, 4, 11, 86
10, 56400, Control_c, 4, 11, 85
10, 56415, Control_c, 4, 11, 84
10, 56430, Control_c, 4, 11, 82
10, 56445, Control_c, 4, 11, 81
10, 56460, Control_c, 4, 11, 80
10, 56475, Control_c, 4, 11, 78
10, 56490, Control_c, 4, 11, 77
10, 56505, Control_c, 4, 11, 76
10, 56520, Control_c, 4, 11, 75
10, 56535, Control_c, 4, 11, 73
10, 56550, Control_c, 4, 11, 72
10, 56565, Control_c, 4, 11, 71
10, 56580, Control_c, 4, 11, 69
10, 56595, Control_c, 4, 11, 68
10, 56610, Control_c, 4, 11, 67
10, 56625, Control_c, 4, 11, 64
10, 56759, Note_on_c, 4, 67, 0
10, 56759, Note_on_c, 4, 64, 0
10, 66000, Control_c, 4, 11, 127
10, 66360, Note_on_c, 4, 60, 84
10, 66360, Note_on_c, 4, 48, 84
10, 66711, Note_on_c, 4, 60, 0
10, 66711, Note_on_c, 4, 48, 0
10, 66720, Note_on_c, 4, 65, 84
10, 67071, Note_on_c, 4, 65, 0
10, 67080, Note_on_c, 4, 67, 84
10, 67080, Note_on_c, 4, 65, 84
10, 67431, Note_on_c, 4, 67, 0
10, 67431, Note_on_c, 4, 65, 0
10, 67440, Note_on_c, 4, 67, 84
10, 67440, Note_on_c, 4, 60, 84
10, 67791, Note_on_c, 4, 67, 0
10, 67791, Note_on_c, 4, 60, 0
10, 67800, Note_on_c, 4, 65, 84
10, 68151, Note_on_c, 4, 65, 0
10, 68160, Note_on_c, 4, 67, 84
10, 68271, Note_on_c, 4, 67, 0
10, 68280, Note_on_c, 4, 72, 84
10, 68280, Note_on_c, 4, 60, 84
10, 68511, Note_on_c, 4, 72, 0
10, 68511, Note_on_c, 4, 60, 0
10, 68520, Note_on_c, 4, 67, 84
10, 68871, Note_on_c, 4, 67, 0
10, 68880, Note_on_c, 4, 72, 84
10, 68880, Note_on_c, 4, 60, 84
10, 69231, Note_on_c, 4, 72, 0
10, 69231, Note_on_c, 4, 60, 0
10, 69240, Note_on_c, 4, 67, 84
10, 69591, Note_on_c, 4, 67, 0
10, 69600, Note_on_c, 4, 60, 84
10, 69959, Note_on_c, 4, 60, 0
10, 77040, Note_on_c, 4, 67, 76
10, 77159, Note_on_c, 4, 67, 0
10, 77160, Note_on_c, 4, 60, 76
10, 77279, Note_on_c, 4, 60, 0
10, 77880, Note_on_c, 4, 60, 76
10, 77999, Note_on_c, 4, 60, 0
10, 86400, Note_on_c, 4, 60, 76
10, 86439, Note_on_c, 4, 60, 0
10, 86440, Note_on_c, 4, 60, 76
10, 86479, Note_on_c, 4, 60, 0
10, 86480, Note_on_c, 4, 60, 76
10, 86515, Note_on_c, 4, 60, 0
10, 86520, Note_on_c, 4, 60, 76
10, 86555, Note_on_c, 4, 60, 0
10, 86560, Note_on_c, 4, 60, 76
10, 86595, Note_on_c, 4, 60, 0
10, 86600, Note_on_c, 4, 60, 76
10, 86635, Note_on_c, 4, 60, 0
10, 86640, Note_on_c, 4, 60, 76
10, 86675, Note_on_c, 4, 60, 0
10, 86680, Note_on_c, 4, 60, 76
10, 86715, Note_on_c, 4, 60, 0
10, 86720, Note_on_c, 4, 60, 76
10, 86755, Note_on_c, 4, 60, 0
10, 86760, Note_on_c, 4, 60, 76
10, 86795, Note_on_c, 4, 60, 0
10, 86800, Note_on_c, 4, 60, 76
10, 86835, Note_on_c, 4, 60, 0
10, 86840, Note_on_c, 4, 60, 76
10, 86875, Note_on_c, 4, 60, 0
10, 86880, Note_on_c, 4, 60, 76
10, 86999, Note_on_c, 4, 60, 0
10, 87600, Note_on_c, 4, 60, 76
10, 87719, Note_on_c, 4, 60, 0
10, 88680, Note_on_c, 4, 60, 76
10, 88799, Note_on_c, 4, 60, 0
10, 88799, End_track
11, 0, Start_track
11, 0, Title_t, "Trumpet in C"
11, 0, MIDI_port, 0
11, 0, Program_c, 5, 56
11, 0, Control_c, 5, 7, 96
11, 0, Control_c, 5, 10, 60
11, 0, Control_c, 5, 11, 127
11, 10200, Note_on_c, 5, 60, 84
11, 10200, Note_on_c, 5, 72, 84
11, 10551, Note_on_c, 5, 60, 0
11, 10551, Note_on_c, 5, 72, 0
11, 10560, Note_on_c, 5, 72, 84
11, 10560, Note_on_c, 5, 60, 84
11, 10649, Note_on_c, 5, 72, 0
11, 10649, Note_on_c, 5, 60, 0
11, 10680, Note_on_c, 5, 64, 84
11, 10680, Note_on_c, 5, 72, 84
11, 10769, Note_on_c, 5, 64, 0
11, 10769, Note_on_c, 5, 72, 0
11, 10800, Note_on_c, 5, 74, 84
11, 10800, Note_on_c, 5, 67, 84
11, 10889, Note_on_c, 5, 74, 0
11, 10889, Note_on_c, 5, 67, 0
11, 10920, Note_on_c, 5, 64, 84
11, 10920, Note_on_c, 5, 72, 84
11, 11039, Note_on_c, 5, 64, 0
11, 11039, Note_on_c, 5, 72, 0
11, 11160, Note_on_c, 5, 64, 84
11, 11245, Note_on_c, 5, 64, 0
11, 11250, Note_on_c, 5, 67, 84
11, 11275, Note_on_c, 5, 67, 0
11, 11280, Note_on_c, 5, 64, 84
11, 11280, Note_on_c, 5, 72, 84
11, 11391, Note_on_c, 5, 64, 0
11, 11391, Note_on_c, 5, 72, 0
11, 11400, Note_on_c, 5, 64, 84
11, 11400, Note_on_c, 5, 72, 84
11, 11511, Note_on_c, 5, 64, 0
11, 11511, Note_on_c, 5, 72, 0
11, 11520, Note_on_c, 5, 74, 84
11, 11520, Note_on_c, 5, 67, 84
11, 11631, Note_on_c, 5, 74, 0
11, 11631, Note_on_c, 5, 67, 0
11, 11640, Note_on_c, 5, 76, 84
11, 11640, Note_on_c, 5, 72, 84
11, 11871, Note_on_c, 5, 76, 0
11, 11871, Note_on_c, 5, 72, 0
11, 11880, Note_on_c, 5, 72, 84
11, 11880, Note_on_c, 5, 64, 84
11, 11965, Note_on_c, 5, 72, 0
11, 11965, Note_on_c, 5, 64, 0
11, 11970, Note_on_c, 5, 67, 84
11, 11970, Note_on_c, 5, 74, 84
11, 11995, Note_on_c, 5, 67, 0
11, 11995, Note_on_c, 5, 74, 0
11, 12000, Note_on_c, 5, 72, 84
11, 12000, Note_on_c, 5, 76, 84
11, 12111, Note_on_c, 5, 72, 0
11, 12111, Note_on_c, 5, 76, 0
11, 12120, Note_on_c, 5, 72, 84
11, 12120, Note_on_c, 5, 76, 84
11, 12231, Note_on_c, 5, 72, 0
11, 12231, Note_on_c, 5, 76, 0
11, 12240, Note_on_c, 5, 74, 84
11, 12240, Note_on_c, 5, 77, 84
11, 12351, Note_on_c, 5, 74, 0
11, 12351, Note_on_c, 5, 77, 0
11, 12360, Note_on_c, 5, 76, 92
11, 12360, Note_on_c, 5, 79, 92
11, 12584, Note_on_c, 5, 76, 0
11, 12584, Note_on_c, 5, 79, 0
11, 12600, Note_on_c, 5, 72, 84
11, 12600, Note_on_c, 5, 76, 84
11, 12685, Note_on_c, 5, 72, 0
11, 12685, Note_on_c, 5, 76, 0
11, 12690, Note_on_c, 5, 77, 84
11, 12690, Note_on_c, 5, 74, 84
11, 12715, Note_on_c, 5, 77, 0
11, 12715, Note_on_c, 5, 74, 0
11, 12720, Note_on_c, 5, 79, 92
11, 12720, Note_on_c, 5, 76, 92
11, 12944, Note_on_c, 5, 79, 0
11, 12944, Note_on_c, 5, 76, 0
11, 12960, Note_on_c, 5, 76, 84
11, 12960, Note_on_c, 5, 72, 84
11, 13045, Note_on_c, 5, 76, 0
11, 13045, Note_on_c, 5, 72, 0
11, 13050, Note_on_c, 5, 77, 84
11, 13050, Note_on_c, 5, 74, 84
11, 13075, Note_on_c, 5, 77, 0
11, 13075, Note_on_c, 5, 74, 0
11, 13080, Note_on_c, 5, 79, 92
11, 13080, Note_on_c, 5, 76, 92
11, 13200, Control_c, 5, 11, 112
11, 13213, Control_c, 5, 11, 108
11, 13227, Control_c, 5, 11, 105
11, 13240, Control_c, 5, 11, 101
11, 13253, Control_c, 5, 11, 98
11, 13267, Control_c, 5, 11, 94
11, 13280, Control_c, 5, 11, 91
11, 13293, Control_c, 5, 11, 87
11, 13307, Control_c, 5, 11, 84
11, 13320, Control_c, 5, 11, 80
11, 13333, Control_c, 5, 11, 76
11, 13347, Control_c, 5, 11, 73
11, 13360, Control_c, 5, 11, 69
11, 13373, Control_c, 5, 11, 66
11, 13387, Control_c, 5, 11, 62
11, 13400, Control_c, 5, 11, 59
11, 13413, Control_c, 5, 11, 55
11, 13427, Control_c, 5, 11, 48
11, 13559, Note_on_c, 5, 79, 0
11, 13559, Note_on_c, 5, 76, 0
11, 27720, Control_c, 5, 11, 127
11, 27840, Note_on_c, 5, 60, 84
11, 27840, Note_on_c, 5, 72, 84
11, 28191, Note_on_c, 5, 60, 0
11, 28191, Note_on_c, 5, 72, 0
11, 28200, Note_on_c, 5, 72, 84
11, 28200, Note_on_c, 5, 60, 84
11, 28289, Note_on_c, 5, 72, 0
11, 28289, Note_on_c, 5, 60, 0
11, 28320, Note_on_c, 5, 72, 84
11, 28320, Note_on_c, 5, 64, 84
11, 28409, Note_on_c, 5, 72, 0
11, 28409, Note_on_c, 5, 64, 0
11, 28440, Note_on_c, 5, 67, 84
11, 28440, Note_on_c, 5, 74, 84
11, 28529, Note_on_c, 5, 67, 0
11, 28529, Note_on_c, 5, 74, 0
11, 28560, Note_on_c, 5, 64, 84
11, 28560, Note_on_c, 5, 72, 84
11, 28679, Note_on_c, 5, 64, 0
11, 28679, Note_on_c, 5, 72, 0
11, 28800, Note_on_c, 5, 64, 84
11, 28885, Note_on_c, 5, 64, 0
11, 28890, Note_on_c, 5, 67, 84
11, 28915, Note_on_c, 5, 67, 0
11, 28920, Note_on_c, 5, 64, 84
11, 28920, Note_on_c, 5, 72, 84
11, 29031, Note_on_c, 5, 64, 0
11, 29031, Note_on_c, 5, 72, 0
11, 29040, Note_on_c, 5, 72, 84
11, 29040, Note_on_c, 5, 64, 84
11, 29151, Note_on_c, 5, 72, 0
11, 29151, Note_on_c, 5, 64, 0
11, 29160, Note_on_c, 5, 74, 84
11, 29160, Note_on_c, 5, 67, 84
11, 29271, Note_on_c, 5, 74, 0
11, 29271, Note_on_c, 5, 67, 0
11, 29280, Note_on_c, 5, 76, 84
11, 29280, Note_on_c, 5, 72, 84
11, 29511, Note_on_c, 5, 76, 0
11, 29511, Note_on_c, 5, 72, 0
11, 29520, Note_on_c, 5, 64, 84
11, 29520, Note_on_c, 5, 72, 84
11, 29605, Note_on_c, 5, 64, 0
11, 29605, Note_on_c, 5, 72, 0
11, 29610, Note_on_c, 5, 74, 84
11, 29610, Note_on_c, 5, 67, 84
11, 29635, Note_on_c, 5, 74, 0
11, 29635, Note_on_c, 5, 67, 0
11, 29640, Note_on_c, 5, 72, 84
11, 29640, Note_on_c, 5, 76, 84
11, 29751, Note_on_c, 5, 72, 0
11, 29751, Note_on_c, 5, 76, 0
11, 29760, Note_on_c, 5, 72, 84
11, 29760, Note_on_c, 5, 76, 84
11, 29871, Note_on_c, 5, 72, 0
11, 29871, Note_on_c, 5, 76, 0
11, 29880, Note_on_c, 5, 77, 84
11, 29880, Note_on_c, 5, 74, 84
11, 29991, Note_on_c, 5, 77, 0
11, 29991, Note_on_c, 5, 74, 0
11, 30000, Note_on_c, 5, 79, 92
11, 30000, Note_on_c, 5, 76, 92
11, 30224, Note_on_c, 5, 79, 0
11, 30224, Note_on_c, 5, 76, 0
11, 30240, Note_on_c, 5, 76, 84
11, 30240, Note_on_c, 5, 72, 84
11, 30325, Note_on_c, 5, 76, 0
11, 30325, Note_on_c, 5, 72, 0
11, 30330, Note_on_c, 5, 74, 84
11, 30330, Note_on_c, 5, 77, 84
11, 30355, Note_on_c, 5, 74, 0
11, 30355, Note_on_c, 5, 77, 0
11, 30360, Note_on_c, 5, 76, 92
11, 30360, Note_on_c, 5, 79, 92
11, 30584, Note_on_c, 5, 76, 0
11, 30584, Note_on_c, 5, 79, 0
11, 30600, Note_on_c, 5, 72, 84
11, 30600, Note_on_c, 5, 76, 84
11, 30685, Note_on_c, 5, 72, 0
11, 30685, Note_on_c, 5, 76, 0
11, 30690, Note_on_c, 5, 74, 84
11, 30690, Note_on_c, 5, 77, 84
11, 30715, Note_on_c, 5, 74, 0
11, 30715, Note_on_c, 5, 77, 0
11, 30720, Note_on_c, 5, 76, 76
11, 30720, Note_on_c, 5, 79, 76
11, 30720, Control_c, 5, 11, 127
11, 30735, Control_c, 5, 11, 125
11, 30750, Control_c, 5, 11, 123
11, 30765, Control_c, 5, 11, 121
11, 30780, Control_c, 5, 11, 119
11, 30795, Control_c, 5, 11, 117
11, 30810, Control_c, 5, 11, 115
11, 30825, Control_c, 5, 11, 113
11, 30840, Control_c, 5, 11, 111
11, 30855, Control_c, 5, 11, 109
11, 30870, Control_c, 5, 11, 107
11, 30885, Control_c, 5, 11, 105
11, 30900, Control_c, 5, 11, 104
11, 30915, Control_c, 5, 11, 102
11, 30930, Control_c, 5, 11, 100
11, 30945, Control_c, 5, 11, 98
11, 30960, Control_c, 5, 11, 96
11, 30975, Control_c, 5, 11, 94
11, 30990, Control_c, 5, 11, 92
11, 31005, Control_c, 5, 11, 90
11, 31020, Control_c, 5, 11, 88
11, 31035, Control_c, 5, 11, 86
11, 31050, Control_c, 5, 11, 84
11, 31065, Control_c, 5, 11, 80
11, 31199, Note_on_c, 5, 76, 0
11, 31199, Note_on_c, 5, 79, 0
11, 40860, Note_on_c, 5, 60, 76
11, 40860, Note_on_c, 5, 72, 76
11, 40915, Note_on_c, 5, 60, 0
11, 40915, Note_on_c, 5, 72, 0
11, 40920, Note_on_c, 5, 72, 76
11, 40920, Note_on_c, 5, 60, 76
11, 40975, Note_on_c, 5, 72, 0
11, 40975, Note_on_c, 5, 60, 0
11, 40980, Note_on_c, 5, 60, 76
11, 40980, Note_on_c, 5, 72, 76
11, 41035, Note_on_c, 5, 60, 0
11, 41035, Note_on_c, 5, 72, 0
11, 41040, Note_on_c, 5, 72, 76
11, 41040, Note_on_c, 5, 60, 76
11, 41095, Note_on_c, 5, 72, 0
11, 41095, Note_on_c, 5, 60, 0
11, 41100, Note_on_c, 5, 72, 76
11, 41100, Note_on_c, 5, 60, 76
11, 41155, Note_on_c, 5, 72, 0
11, 41155, Note_on_c, 5, 60, 0
11, 41160, Note_on_c, 5, 72, 76
11, 41160, Note_on_c, 5, 60, 76
11, 41215, Note_on_c, 5, 72, 0
11, 41215, Note_on_c, 5, 60, 0
11, 41220, Note_on_c, 5, 72, 76
11, 41220, Note_on_c, 5, 60, 76
11, 41275, Note_on_c, 5, 72, 0
11, 41275, Note_on_c, 5, 60, 0
11, 41280, Note_on_c, 5, 60, 76
11, 41280, Note_on_c, 5, 72, 76
11, 41335, Note_on_c, 5, 60, 0
11, 41335, Note_on_c, 5, 72, 0
11, 41340, Note_on_c, 5, 60, 76
11, 41340, Note_on_c, 5, 72, 76
11, 41395, Note_on_c, 5, 60, 0
11, 41395, Note_on_c, 5, 72, 0
11, 41400, Note_on_c, 5, 60, 76
11, 41400, Note_on_c, 5, 72, 76
11, 41455, Note_on_c, 5, 60, 0
11, 41455, Note_on_c, 5, 72, 0
11, 41460, Note_on_c, 5, 60, 76
11, 41460, Note_on_c, 5, 72, 76
11, 41519, Note_on_c, 5, 60, 0
11, 41519, Note_on_c, 5, 72, 0
11, 42120, Note_on_c, 5, 67, 76
11, 42175, Note_on_c, 5, 67, 0
11, 42180, Note_on_c, 5, 67, 76
11, 42235, Note_on_c, 5, 67, 0
11, 42240, Note_on_c, 5, 72, 76
11, 42240, Note_on_c, 5, 60, 76
11, 42295, Note_on_c, 5, 72, 0
11, 42295, Note_on_c, 5, 60, 0
11, 42300, Note_on_c, 5, 72, 76
11, 42300, Note_on_c, 5, 60, 76
11, 42355, Note_on_c, 5, 72, 0
11, 42355, Note_on_c, 5, 60, 0
11, 42360, Note_on_c, 5, 72, 76
11, 42360, Note_on_c, 5, 60, 76
11, 42415, Note_on_c, 5, 72, 0
11, 42415, Note_on_c, 5, 60, 0
11, 42420, Note_on_c, 5, 60, 76
11, 42420, Note_on_c, 5, 72, 76
11, 42475, Note_on_c, 5, 60, 0
11, 42475, Note_on_c, 5, 72, 0
11, 42480, Note_on_c, 5, 60, 76
11, 42480, Note_on_c, 5, 72, 76
11, 42535, Note_on_c, 5, 60, 0
11, 42535, Note_on_c, 5, 72, 0
11, 42540, Note_on_c, 5, 60, 76
11, 42540, Note_on_c, 5, 72, 76
11, 42599, Note_on_c, 5, 60, 0
11, 42599, Note_on_c, 5, 72, 0
11, 43080, Note_on_c, 5, 60, 76
11, 43080, Note_on_c, 5, 72, 76
11, 43135, Note_on_c, 5, 60, 0
11, 43135, Note_on_c, 5, 72, 0
11, 43140, Note_on_c, 5, 60, 76
11, 43140, Note_on_c, 5, 72, 76
11, 43195, Note_on_c, 5, 60, 0
11, 43195, Note_on_c, 5, 72, 0
11, 43200, Note_on_c, 5, 72, 76
11, 43200, Note_on_c, 5, 60, 76
11, 43255, Note_on_c, 5, 72, 0
11, 43255, Note_on_c, 5, 60, 0
11, 43260, Note_on_c, 5, 72, 76
11, 43260, Note_on_c, 5, 60, 76
11, 43315, Note_on_c, 5, 72, 0
11, 43315, Note_on_c, 5, 60, 0
11, 43320, Note_on_c, 5, 67, 76
11, 43320, Note_on_c, 5, 55, 76
11, 43439, Note_on_c, 5, 67, 0
11, 43439, Note_on_c, 5, 55, 0
11, 52920, Note_on_c, 5, 72, 84
11, 52920, Note_on_c, 5, 60, 84
11, 52975, Note_on_c, 5, 72, 0
11, 52975, Note_on_c, 5, 60, 0
11, 52980, Note_on_c, 5, 72, 84
11, 52980, Note_on_c, 5, 60, 84
11, 53035, Note_on_c, 5, 72, 0
11, 53035, Note_on_c, 5, 60, 0
11, 53040, Note_on_c, 5, 72, 84
11, 53040, Note_on_c, 5, 60, 84
11, 53151, Note_on_c, 5, 72, 0
11, 53151, Note_on_c, 5, 60, 0
11, 53160, Note_on_c, 5, 64, 84
11, 53160, Note_on_c, 5, 72, 84
11, 53271, Note_on_c, 5, 64, 0
11, 53271, Note_on_c, 5, 72, 0
11, 53280, Note_on_c, 5, 74, 84
11, 53280, Note_on_c, 5, 67, 84
11, 53391, Note_on_c, 5, 74, 0
11, 53391, Note_on_c, 5, 67, 0
11, 53400, Note_on_c, 5, 76, 84
11, 53400, Note_on_c, 5, 72, 84
11, 53991, Note_on_c, 5, 76, 0
11, 53991, Note_on_c, 5, 72, 0
11, 54000, Note_on_c, 5, 72, 84
11, 54000, Note_on_c, 5, 64, 84
11, 54085, Note_on_c, 5, 72, 0
11, 54085, Note_on_c, 5, 64, 0
11, 54090, Note_on_c, 5, 74, 84
11, 54090, Note_on_c, 5, 67, 84
11, 54115, Note_on_c, 5, 74, 0
11, 54115, Note_on_c, 5, 67, 0
11, 54120, Note_on_c, 5, 76, 84
11, 54120, Note_on_c, 5, 72, 84
11, 54231, Note_on_c, 5, 76, 0
11, 54231, Note_on_c, 5, 72, 0
11, 54240, Note_on_c, 5, 76, 84
11, 54240, Note_on_c, 5, 72, 84
11, 54351, Note_on_c, 5, 76, 0
11, 54351, Note_on_c, 5, 72, 0
11, 54360, Note_on_c, 5, 77, 84
11, 54360, Note_on_c, 5, 74, 84
11, 54471, Note_on_c, 5, 77, 0
11, 54471, Note_on_c, 5, 74, 0
11, 54480, Note_on_c, 5, 79, 84
11, 54480, Note_on_c, 5, 76, 84
11, 55071, Note_on_c, 5, 79, 0
11, 55071, Note_on_c, 5, 76, 0
11, 55080, Note_on_c, 5, 72, 84
11, 55080, Note_on_c, 5, 76, 84
11, 55165, Note_on_c, 5, 72, 0
11, 55165, Note_on_c, 5, 76, 0
11, 55170, Note_on_c, 5, 74, 84
11, 55170, Note_on_c, 5, 77, 84
11, 55195, Note_on_c, 5, 74, 0
11, 55195, Note_on_c, 5, 77, 0
11, 55200, Note_on_c, 5, 76, 84
11, 55200, Note_on_c, 5, 79, 84
11, 55431, Note_on_c, 5, 76, 0
11, 55431, Note_on_c, 5, 79, 0
11, 55440, Note_on_c, 5, 72, 84
11, 55440, Note_on_c, 5, 76, 84
11, 55525, Note_on_c, 5, 72, 0
11, 55525, Note_on_c, 5, 76, 0
11, 55530, Note_on_c, 5, 74, 84
11, 55530, Note_on_c, 5, 77, 84
11, 55555, Note_on_c, 5, 74, 0
11, 55555, Note_on_c, 5, 77, 0
11, 55560, Note_on_c, 5, 76, 84
11, 55560, Note_on_c, 5, 79, 84
11, 55791, Note_on_c, 5, 76, 0
11, 55791, Note_on_c, 5, 79, 0
11, 55800, Note_on_c, 5, 72, 84
11, 55800, Note_on_c, 5, 76, 84
11, 55885, Note_on_c, 5, 72, 0
11, 55885, Note_on_c, 5, 76, 0
11, 55890, Note_on_c, 5, 77, 84
11, 55890, Note_on_c, 5, 74, 84
11, 55915, Note_on_c, 5, 77, 0
11, 55915, Note_on_c, 5, 74, 0
11, 55920, Note_on_c, 5, 79, 84
11, 55920, Control_c, 5, 11, 127
11, 55920, Note_on_c, 5, 76, 84
11, 55935, Control_c, 5, 11, 126
11, 55950, Control_c, 5, 11, 124
11, 55965, Control_c, 5, 11, 123
11, 55980, Control_c, 5, 11, 122
11, 55995, Control_c, 5, 11, 120
11, 56010, Control_c, 5, 11, 119
11, 56025, Control_c, 5, 11, 118
11, 56040, Control_c, 5, 11, 117
11, 56055, Control_c, 5, 11, 115
11, 56070, Control_c, 5, 11, 114
11, 56085, Control_c, 5, 11, 113
11, 56100, Control_c, 5, 11, 111
11, 56115, Control_c, 5, 11, 110
11, 56130, Control_c, 5, 11, 109
11, 56145, Control_c, 5, 11, 107
11, 56160, Control_c, 5, 11, 106
11, 56175, Control_c, 5, 11, 105
11, 56190, Control_c, 5, 11, 103
11, 56205, Control_c, 5, 11, 102
11, 56220, Control_c, 5, 11, 101
11, 56235, Control_c, 5, 11, 99
11, 56250, Control_c, 5, 11, 98
11, 56265, Control_c, 5, 11, 97
11, 56280, Control_c, 5, 11, 96
11, 56295, Control_c, 5, 11, 94
11, 56310, Control_c, 5, 11, 93
11, 56325, Control_c, 5, 11, 92
11, 56340, Control_c, 5, 11, 90
11, 56355, Control_c, 5, 11, 89
11, 56370, Control_c, 5, 11, 88
11, 56385, Control_c, 5, 11, 86
11, 56400, Control_c, 5, 11, 85
11, 56415, Control_c, 5, 11, 84
11, 56430, Control_c, 5, 11, 82
11, 56445, Control_c, 5, 11, 81
11, 56460, Control_c, 5, 11, 80
11, 56475, Control_c, 5, 11, 78
11, 56490, Control_c, 5, 11, 77
11, 56505, Control_c, 5, 11, 76
11, 56520, Control_c, 5, 11, 75
11, 56535, Control_c, 5, 11, 73
11, 56550, Control_c, 5, 11, 72
11, 56565, Control_c, 5, 11, 71
11, 56580, Control_c, 5, 11, 69
11, 56595, Control_c, 5, 11, 68
11, 56610, Control_c, 5, 11, 67
11, 56625, Control_c, 5, 11, 64
11, 56759, Note_on_c, 5, 79, 0
11, 56759, Note_on_c, 5, 76, 0
11, 66000, Control_c, 5, 11, 127
11, 66360, Note_on_c, 5, 72, 84
11, 66360, Note_on_c, 5, 60, 84
11, 66719, Note_on_c, 5, 72, 0
11, 66719, Note_on_c, 5, 60, 0
11, 67080, Note_on_c, 5, 67, 84
11, 67080, Note_on_c, 5, 55, 84
11, 67191, Note_on_c, 5, 67, 0
11, 67191, Note_on_c, 5, 55, 0
11, 67200, Note_on_c, 5, 67, 84
11, 67200, Note_on_c, 5, 55, 84
11, 67311, Note_on_c, 5, 67, 0
11, 67311, Note_on_c, 5, 55, 0
11, 67320, Note_on_c, 5, 67, 84
11, 67320, Note_on_c, 5, 55, 84
11, 67431, Note_on_c, 5, 67, 0
11, 67431, Note_on_c, 5, 55, 0
11, 67440, Note_on_c, 5, 72, 84
11, 67440, Note_on_c, 5, 60, 84
11, 67551, Note_on_c, 5, 72, 0
11, 67551, Note_on_c, 5, 60, 0
11, 67560, Note_on_c, 5, 72, 84
11, 67560, Note_on_c, 5, 60, 84
11, 67671, Note_on_c, 5, 72, 0
11, 67671, Note_on_c, 5, 60, 0
11, 67680, Note_on_c, 5, 72, 84
11, 67680, Note_on_c, 5, 60, 84
11, 67799, Note_on_c, 5, 72, 0
11, 67799, Note_on_c, 5, 60, 0
11, 67920, Note_on_c, 5, 77, 84
11, 68031, Note_on_c, 5, 77, 0
11, 68040, Note_on_c, 5, 77, 84
11, 68151, Note_on_c, 5, 77, 0
11, 68160, Note_on_c, 5, 67, 84
11, 68160, Note_on_c, 5, 55, 84
11, 68271, Note_on_c, 5, 67, 0
11, 68271, Note_on_c, 5, 55, 0
11, 68280, Note_on_c, 5, 72, 84
11, 68280, Note_on_c, 5, 60, 84
11, 68391, Note_on_c, 5, 72, 0
11, 68391, Note_on_c, 5, 60, 0
11, 68400, Note_on_c, 5, 72, 84
11, 68400, Note_on_c, 5, 60, 84
11, 68511, Note_on_c, 5, 72, 0
11, 68511, Note_on_c, 5, 60, 0
11, 68520, Note_on_c, 5, 67, 84
11, 68520, Note_on_c, 5, 55, 84
11, 68639, Note_on_c, 5, 67, 0
11, 68639, Note_on_c, 5, 55, 0
11, 68880, Note_on_c, 5, 72, 84
11, 68880, Note_on_c, 5, 60, 84
11, 68999, Note_on_c, 5, 72, 0
11, 68999, Note_on_c, 5, 60, 0
11, 69600, Note_on_c, 5, 72, 84
11, 69600, Note_on_c, 5, 60, 84
11, 69719, Note_on_c, 5, 72, 0
11, 69719, Note_on_c, 5, 60, 0
11, 77160, Note_on_c, 5, 72, 76
11, 77160, Note_on_c, 5, 60, 76
11, 77279, Note_on_c, 5, 72, 0
11, 77279, Note_on_c, 5, 60, 0
11, 77880, Note_on_c, 5, 72, 76
11, 77880, Note_on_c, 5, 60, 76
11, 77999, Note_on_c, 5, 72, 0
11, 77999, Note_on_c, 5, 60, 0
11, 86400, Note_on_c, 5, 72, 76
11, 86400, Note_on_c, 5, 60, 76
11, 86439, Note_on_c, 5, 72, 0
11, 86439, Note_on_c, 5, 60, 0
11, 86440, Note_on_c, 5, 72, 76
11, 86440, Note_on_c, 5, 60, 76
11, 86479, Note_on_c, 5, 72, 0
11, 86479, Note_on_c, 5, 60, 0
11, 86480, Note_on_c, 5, 72, 76
11, 86480, Note_on_c, 5, 60, 76
11, 86515, Note_on_c, 5, 72, 0
11, 86515, Note_on_c, 5, 60, 0
11, 86520, Note_on_c, 5, 72, 76
11, 86520, Note_on_c, 5, 60, 76
11, 86631, Note_on_c, 5, 72, 0
11, 86631, Note_on_c, 5, 60, 0
11, 86640, Note_on_c, 5, 72, 76
11, 86640, Note_on_c, 5, 60, 76
11, 86751, Note_on_c, 5, 72, 0
11, 86751, Note_on_c, 5, 60, 0
11, 86760, Note_on_c, 5, 72, 76
11, 86760, Note_on_c, 5, 60, 76
11, 86871, Note_on_c, 5, 72, 0
11, 86871, Note_on_c, 5, 60, 0
11, 86880, Note_on_c, 5, 72, 76
11, 86880, Note_on_c, 5, 60, 76
11, 86999, Note_on_c, 5, 72, 0
11, 86999, Note_on_c, 5, 60, 0
11, 87600, Note_on_c, 5, 72, 76
11, 87600, Note_on_c, 5, 60, 76
11, 87719, Note_on_c, 5, 72, 0
11, 87719, Note_on_c, 5, 60, 0
11, 88680, Note_on_c, 5, 72, 76
11, 88680, Note_on_c, 5, 60, 76
11, 88799, Note_on_c, 5, 72, 0
11, 88799, Note_on_c, 5, 60, 0
11, 88799, End_track
12, 0, Start_track
12, 0, Title_t, "Timpani"
12, 0, MIDI_port, 0
12, 0, Program_c, 6, 47
12, 0, Control_c, 6, 7, 96
12, 0, Control_c, 6, 10, 25
12, 0, Control_c, 6, 11, 127
12, 10200, Note_on_c, 6, 48, 80
12, 10214, Note_on_c, 6, 48, 0
12, 10215, Note_on_c, 6, 48, 84
12, 10229, Note_on_c, 6, 48, 0
12, 10230, Note_on_c, 6, 48, 81
12, 10244, Note_on_c, 6, 48, 0
12, 10245, Note_on_c, 6, 48, 86
12, 10259, Note_on_c, 6, 48, 0
12, 10260, Note_on_c, 6, 48, 84
12, 10274, Note_on_c, 6, 48, 0
12, 10275, Note_on_c, 6, 48, 83
12, 10289, Note_on_c, 6, 48, 0
12, 10290, Note_on_c, 6, 48, 82
12, 10304, Note_on_c, 6, 48, 0
12, 10305, Note_on_c, 6, 48, 87
12, 10319, Note_on_c, 6, 48, 0
12, 10320, Note_on_c, 6, 48, 86
12, 10334, Note_on_c, 6, 48, 0
12, 10335, Note_on_c, 6, 48, 85
12, 10349, Note_on_c, 6, 48, 0
12, 10350, Note_on_c, 6, 48, 81
12, 10364, Note_on_c, 6, 48, 0
12, 10365, Note_on_c, 6, 48, 86
12, 10379, Note_on_c, 6, 48, 0
12, 10380, Note_on_c, 6, 48, 85
12, 10394, Note_on_c, 6, 48, 0
12, 10395, Note_on_c, 6, 48, 84
12, 10409, Note_on_c, 6, 48, 0
12, 10410, Note_on_c, 6, 48, 82
12, 10424, Note_on_c, 6, 48, 0
12, 10425, Note_on_c, 6, 48, 80
12, 10439, Note_on_c, 6, 48, 0
12, 10440, Note_on_c, 6, 48, 80
12, 10454, Note_on_c, 6, 48, 0
12, 10455, Note_on_c, 6, 48, 82
12, 10469, Note_on_c, 6, 48, 0
12, 10470, Note_on_c, 6, 48, 81
12, 10484, Note_on_c, 6, 48, 0
12, 10485, Note_on_c, 6, 48, 81
12, 10499, Note_on_c, 6, 48, 0
12, 10500, Note_on_c, 6, 48, 87
12, 10514, Note_on_c, 6, 48, 0
12, 10515, Note_on_c, 6, 48, 83
12, 10529, Note_on_c, 6, 48, 0
12, 10530, Note_on_c, 6, 48, 80
12, 10544, Note_on_c, 6, 48, 0
12, 10545, Note_on_c, 6, 48, 80
12, 10559, Note_on_c, 6, 48, 0
12, 10560, Note_on_c, 6, 43, 84
12, 10649, Note_on_c, 6, 43, 0
12, 10680, Note_on_c, 6, 43, 84
12, 10769, Note_on_c, 6, 43, 0
12, 10800, Note_on_c, 6, 43, 84
12, 10889, Note_on_c, 6, 43, 0
12, 10920, Note_on_c, 6, 48, 84
12, 11039, Note_on_c, 6, 48, 0
12, 11280, Note_on_c, 6, 48, 84
12, 11399, Note_on_c, 6, 48, 0
12, 11400, Note_on_c, 6, 48, 84
12, 11519, Note_on_c, 6, 48, 0
12, 11520, Note_on_c, 6, 43, 84
12, 11639, Note_on_c, 6, 43, 0
12, 11640, Note_on_c, 6, 48, 84
12, 11759, Note_on_c, 6, 48, 0
12, 11880, Note_on_c, 6, 48, 84
12, 11969, Note_on_c, 6, 48, 0
12, 11970, Note_on_c, 6, 48, 84
12, 11999, Note_on_c, 6, 48, 0
12, 12000, Note_on_c, 6, 48, 84
12, 12119, Note_on_c, 6, 48, 0
12, 12120, Note_on_c, 6, 48, 84
12, 12239, Note_on_c, 6, 48, 0
12, 12240, Note_on_c, 6, 48, 84
12, 12359, Note_on_c, 6, 48, 0
12, 12360, Note_on_c, 6, 48, 80
12, 12374, Note_on_c, 6, 48, 0
12, 12375, Note_on_c, 6, 48, 83
12, 12389, Note_on_c, 6, 48, 0
12, 12390, Note_on_c, 6, 48, 84
12, 12404, Note_on_c, 6, 48, 0
12, 12405, Note_on_c, 6, 48, 84
12, 12419, Note_on_c, 6, 48, 0
12, 12420, Note_on_c, 6, 48, 84
12, 12434, Note_on_c, 6, 48, 0
12, 12435, Note_on_c, 6, 48, 84
12, 12449, Note_on_c, 6, 48, 0
12, 12450, Note_on_c, 6, 48, 81
12, 12464, Note_on_c, 6, 48, 0
12, 12465, Note_on_c, 6, 48, 85
12, 12479, Note_on_c, 6, 48, 0
12, 12480, Note_on_c, 6, 48, 83
12, 12494, Note_on_c, 6, 48, 0
12, 12495, Note_on_c, 6, 48, 82
12, 12509, Note_on_c, 6, 48, 0
12, 12510, Note_on_c, 6, 48, 80
12, 12524, Note_on_c, 6, 48, 0
12, 12525, Note_on_c, 6, 48, 84
12, 12539, Note_on_c, 6, 48, 0
12, 12540, Note_on_c, 6, 48, 86
12, 12554, Note_on_c, 6, 48, 0
12, 12555, Note_on_c, 6, 48, 86
12, 12569, Note_on_c, 6, 48, 0
12, 12570, Note_on_c, 6, 48, 84
12, 12584, Note_on_c, 6, 48, 0
12, 12585, Note_on_c, 6, 48, 82
12, 12599, Note_on_c, 6, 48, 0
12, 12600, Note_on_c, 6, 48, 92
12, 12689, Note_on_c, 6, 48, 0
12, 12690, Note_on_c, 6, 48, 84
12, 12719, Note_on_c, 6, 48, 0
12, 12720, Note_on_c, 6, 48, 87
12, 12734, Note_on_c, 6, 48, 0
12, 12735, Note_on_c, 6, 48, 85
12, 12749, Note_on_c, 6, 48, 0
12, 12750, Note_on_c, 6, 48, 87
12, 12764, Note_on_c, 6, 48, 0
12, 12765, Note_on_c, 6, 48, 87
12, 12779, Note_on_c, 6, 48, 0
12, 12780, Note_on_c, 6, 48, 84
12, 12794, Note_on_c, 6, 48, 0
12, 12795, Note_on_c, 6, 48, 81
12, 12809, Note_on_c, 6, 48, 0
12, 12810, Note_on_c, 6, 48, 83
12, 12824, Note_on_c, 6, 48, 0
12, 12825, Note_on_c, 6, 48, 81
12, 12839, Note_on_c, 6, 48, 0
12, 12840, Note_on_c, 6, 48, 86
12, 12854, Note_on_c, 6, 48, 0
12, 12855, Note_on_c, 6, 48, 81
12, 12869, Note_on_c, 6, 48, 0
12, 12870, Note_on_c, 6, 48, 86
12, 12884, Note_on_c, 6, 48, 0
12, 12885, Note_on_c, 6, 48, 86
12, 12899, Note_on_c, 6, 48, 0
12, 12900, Note_on_c, 6, 48, 87
12, 12914, Note_on_c, 6, 48, 0
12, 12915, Note_on_c, 6, 48, 87
12, 12929, Note_on_c, 6, 48, 0
12, 12930, Note_on_c, 6, 48, 84
12, 12944, Note_on_c, 6, 48, 0
12, 12945, Note_on_c, 6, 48, 83
12, 12959, Note_on_c, 6, 48, 0
12, 12960, Note_on_c, 6, 48, 92
12, 13049, Note_on_c, 6, 48, 0
12, 13050, Note_on_c, 6, 48, 84
12, 13079, Note_on_c, 6, 48, 0
12, 13080, Note_on_c, 6, 48, 84
12, 13199, Note_on_c, 6, 48, 0
12, 27840, Note_on_c, 6, 48, 80
12, 27854, Note_on_c, 6, 48, 0
12, 27855, Note_on_c, 6, 48, 84
12, 27869, Note_on_c, 6, 48, 0
12, 27870, Note_on_c, 6, 48, 81
12, 27884, Note_on_c, 6, 48, 0
12, 27885, Note_on_c, 6, 48, 86
12, 27899, Note_on_c, 6, 48, 0
12, 27900, Note_on_c, 6, 48, 84
12, 27914, Note_on_c, 6, 48, 0
12, 27915, Note_on_c, 6, 48, 83
12, 27929, Note_on_c, 6, 48, 0
12, 27930, Note_on_c, 6, 48, 82
12, 27944, Note_on_c, 6, 48, 0
12, 27945, Note_on_c, 6, 48, 87
12, 27959, Note_on_c, 6, 48, 0
12, 27960, Note_on_c, 6, 48, 86
12, 27974, Note_on_c, 6, 48, 0
12, 27975, Note_on_c, 6, 48, 85
12, 27989, Note_on_c, 6, 48, 0
12, 27990, Note_on_c, 6, 48, 81
12, 28004, Note_on_c, 6, 48, 0
12, 28005, Note_on_c, 6, 48, 86
12, 28019, Note_on_c, 6, 48, 0
12, 28020, Note_on_c, 6, 48, 85
12, 28034, Note_on_c, 6, 48, 0
12, 28035, Note_on_c, 6, 48, 84
12, 28049, Note_on_c, 6, 48, 0
12, 28050, Note_on_c, 6, 48, 82
12, 28064, Note_on_c, 6, 48, 0
12, 28065, Note_on_c, 6, 48, 80
12, 28079, Note_on_c, 6, 48, 0
12, 28080, Note_on_c, 6, 48, 80
12, 28094, Note_on_c, 6, 48, 0
12, 28095, Note_on_c, 6, 48, 82
12, 28109, Note_on_c, 6, 48, 0
12, 28110, Note_on_c, 6, 48, 81
12, 28124, Note_on_c, 6, 48, 0
12, 28125, Note_on_c, 6, 48, 81
12, 28139, Note_on_c, 6, 48, 0
12, 28140, Note_on_c, 6, 48, 87
12, 28154, Note_on_c, 6, 48, 0
12, 28155, Note_on_c, 6, 48, 83
12, 28169, Note_on_c, 6, 48, 0
12, 28170, Note_on_c, 6, 48, 80
12, 28184, Note_on_c, 6, 48, 0
12, 28185, Note_on_c, 6, 48, 80
12, 28199, Note_on_c, 6, 48, 0
12, 28200, Note_on_c, 6, 43, 84
12, 28289, Note_on_c, 6, 43, 0
12, 28320, Note_on_c, 6, 43, 84
12, 28409, Note_on_c, 6, 43, 0
12, 28440, Note_on_c, 6, 43, 84
12, 28529, Note_on_c, 6, 43, 0
12, 28560, Note_on_c, 6, 48, 84
12, 28679, Note_on_c, 6, 48, 0
12, 28920, Note_on_c, 6, 48, 84
12, 29039, Note_on_c, 6, 48, 0
12, 29040, Note_on_c, 6, 48, 84
12, 29159, Note_on_c, 6, 48, 0
12, 29160, Note_on_c, 6, 43, 84
12, 29279, Note_on_c, 6, 43, 0
12, 29280, Note_on_c, 6, 48, 84
12, 29399, Note_on_c, 6, 48, 0
12, 29520, Note_on_c, 6, 48, 84
12, 29609, Note_on_c, 6, 48, 0
12, 29610, Note_on_c, 6, 48, 84
12, 29639, Note_on_c, 6, 48, 0
12, 29640, Note_on_c, 6, 48, 84
12, 29759, Note_on_c, 6, 48, 0
12, 29760, Note_on_c, 6, 48, 84
12, 29879, Note_on_c, 6, 48, 0
12, 29880, Note_on_c, 6, 48, 84
12, 29999, Note_on_c, 6, 48, 0
12, 30000, Note_on_c, 6, 48, 80
12, 30014, Note_on_c, 6, 48, 0
12, 30015, Note_on_c, 6, 48, 83
12, 30029, Note_on_c, 6, 48, 0
12, 30030, Note_on_c, 6, 48, 84
12, 30044, Note_on_c, 6, 48, 0
12, 30045, Note_on_c, 6, 48, 84
12, 30059, Note_on_c, 6, 48, 0
12, 30060, Note_on_c, 6, 48, 84
12, 30074, Note_on_c, 6, 48, 0
12, 30075, Note_on_c, 6, 48, 84
12, 30089, Note_on_c, 6, 48, 0
12, 30090, Note_on_c, 6, 48, 81
12, 30104, Note_on_c, 6, 48, 0
12, 30105, Note_on_c, 6, 48, 85
12, 30119, Note_on_c, 6, 48, 0
12, 30120, Note_on_c, 6, 48, 83
12, 30134, Note_on_c, 6, 48, 0
12, 30135, Note_on_c, 6, 48, 82
12, 30149, Note_on_c, 6, 48, 0
12, 30150, Note_on_c, 6, 48, 80
12, 30164, Note_on_c, 6, 48, 0
12, 30165, Note_on_c, 6, 48, 84
12, 30179, Note_on_c, 6, 48, 0
12, 30180, Note_on_c, 6, 48, 86
12, 30194, Note_on_c, 6, 48, 0
12, 30195, Note_on_c, 6, 48, 86
12, 30209, Note_on_c, 6, 48, 0
12, 30210, Note_on_c, 6, 48, 84
12, 30224, Note_on_c, 6, 48, 0
12, 30225, Note_on_c, 6, 48, 82
12, 30239, Note_on_c, 6, 48, 0
12, 30240, Note_on_c, 6, 48, 92
12, 30329, Note_on_c, 6, 48, 0
12, 30330, Note_on_c, 6, 48, 84
12, 30359, Note_on_c, 6, 48, 0
12, 30360, Note_on_c, 6, 48, 87
12, 30374, Note_on_c, 6, 48, 0
12, 30375, Note_on_c, 6, 48, 85
12, 30389, Note_on_c, 6, 48, 0
12, 30390, Note_on_c, 6, 48, 87
12, 30404, Note_on_c, 6, 48, 0
12, 30405, Note_on_c, 6, 48, 87
12, 30419, Note_on_c, 6, 48, 0
12, 30420, Note_on_c, 6, 48, 84
12, 30434, Note_on_c, 6, 48, 0
12, 30435, Note_on_c, 6, 48, 81
12, 30449, Note_on_c, 6, 48, 0
12, 30450, Note_on_c, 6, 48, 83
12, 30464, Note_on_c, 6, 48, 0
12, 30465, Note_on_c, 6, 48, 81
12, 30479, Note_on_c, 6, 48, 0
12, 30480, Note_on_c, 6, 48, 86
12, 30494, Note_on_c, 6, 48, 0
12, 30495, Note_on_c, 6, 48, 81
12, 30509, Note_on_c, 6, 48, 0
12, 30510, Note_on_c, 6, 48, 86
12, 30524, Note_on_c, 6, 48, 0
12, 30525, Note_on_c, 6, 48, 86
12, 30539, Note_on_c, 6, 48, 0
12, 30540, Note_on_c, 6, 48, 87
12, 30554, Note_on_c, 6, 48, 0
12, 30555, Note_on_c, 6, 48, 87
12, 30569, Note_on_c, 6, 48, 0
12, 30570, Note_on_c, 6, 48, 84
12, 30584, Note_on_c, 6, 48, 0
12, 30585, Note_on_c, 6, 48, 83
12, 30599, Note_on_c, 6, 48, 0
12, 30600, Note_on_c, 6, 48, 92
12, 30689, Note_on_c, 6, 48, 0
12, 30690, Note_on_c, 6, 48, 84
12, 30719, Note_on_c, 6, 48, 0
12, 30720, Note_on_c, 6, 48, 84
12, 30839, Note_on_c, 6, 48, 0
12, 40860, Note_on_c, 6, 48, 76
12, 40919, Note_on_c, 6, 48, 0
12, 40920, Note_on_c, 6, 48, 76
12, 40979, Note_on_c, 6, 48, 0
12, 40980, Note_on_c, 6, 48, 76
12, 41039, Note_on_c, 6, 48, 0
12, 41040, Note_on_c, 6, 48, 76
12, 41099, Note_on_c, 6, 48, 0
12, 41100, Note_on_c, 6, 48, 76
12, 41159, Note_on_c, 6, 48, 0
12, 41160, Note_on_c, 6, 48, 76
12, 41219, Note_on_c, 6, 48, 0
12, 41220, Note_on_c, 6, 48, 76
12, 41279, Note_on_c, 6, 48, 0
12, 41280, Note_on_c, 6, 48, 76
12, 41339, Note_on_c, 6, 48, 0
12, 41340, Note_on_c, 6, 48, 76
12, 41399, Note_on_c, 6, 48, 0
12, 41400, Note_on_c, 6, 48, 76
12, 41459, Note_on_c, 6, 48, 0
12, 41460, Note_on_c, 6, 48, 76
12, 41519, Note_on_c, 6, 48, 0
12, 42120, Note_on_c, 6, 43, 76
12, 42179, Note_on_c, 6, 43, 0
12, 42180, Note_on_c, 6, 43, 76
12, 42239, Note_on_c, 6, 43, 0
12, 42240, Note_on_c, 6, 48, 76
12, 42299, Note_on_c, 6, 48, 0
12, 42300, Note_on_c, 6, 48, 76
12, 42359, Note_on_c, 6, 48, 0
12, 42360, Note_on_c, 6, 48, 76
12, 42419, Note_on_c, 6, 48, 0
12, 42420, Note_on_c, 6, 48, 76
12, 42479, Note_on_c, 6, 48, 0
12, 42480, Note_on_c, 6, 48, 76
12, 42539, Note_on_c, 6, 48, 0
12, 42540, Note_on_c, 6, 48, 76
12, 42599, Note_on_c, 6, 48, 0
12, 43080, Note_on_c, 6, 48, 76
12, 43139, Note_on_c, 6, 48, 0
12, 43140, Note_on_c, 6, 48, 76
12, 43199, Note_on_c, 6, 48, 0
12, 43200, Note_on_c, 6, 48, 76
12, 43259, Note_on_c, 6, 48, 0
12, 43260, Note_on_c, 6, 48, 76
12, 43319, Note_on_c, 6, 48, 0
12, 43320, Note_on_c, 6, 43, 76
12, 43439, Note_on_c, 6, 43, 0
12, 52920, Note_on_c, 6, 48, 84
12, 52979, Note_on_c, 6, 48, 0
12, 52980, Note_on_c, 6, 48, 84
12, 53039, Note_on_c, 6, 48, 0
12, 53040, Note_on_c, 6, 48, 84
12, 53159, Note_on_c, 6, 48, 0
12, 53160, Note_on_c, 6, 48, 84
12, 53279, Note_on_c, 6, 48, 0
12, 53280, Note_on_c, 6, 43, 84
12, 53399, Note_on_c, 6, 43, 0
12, 53400, Note_on_c, 6, 48, 80
12, 53414, Note_on_c, 6, 48, 0
12, 53415, Note_on_c, 6, 48, 84
12, 53429, Note_on_c, 6, 48, 0
12, 53430, Note_on_c, 6, 48, 81
12, 53444, Note_on_c, 6, 48, 0
12, 53445, Note_on_c, 6, 48, 86
12, 53459, Note_on_c, 6, 48, 0
12, 53460, Note_on_c, 6, 48, 84
12, 53474, Note_on_c, 6, 48, 0
12, 53475, Note_on_c, 6, 48, 83
12, 53489, Note_on_c, 6, 48, 0
12, 53490, Note_on_c, 6, 48, 82
12, 53504, Note_on_c, 6, 48, 0
12, 53505, Note_on_c, 6, 48, 87
12, 53519, Note_on_c, 6, 48, 0
12, 53520, Note_on_c, 6, 48, 86
12, 53534, Note_on_c, 6, 48, 0
12, 53535, Note_on_c, 6, 48, 85
12, 53549, Note_on_c, 6, 48, 0
12, 53550, Note_on_c, 6, 48, 81
12, 53564, Note_on_c, 6, 48, 0
12, 53565, Note_on_c, 6, 48, 86
12, 53579, Note_on_c, 6, 48, 0
12, 53580, Note_on_c, 6, 48, 85
12, 53594, Note_on_c, 6, 48, 0
12, 53595, Note_on_c, 6, 48, 84
12, 53609, Note_on_c, 6, 48, 0
12, 53610, Note_on_c, 6, 48, 82
12, 53624, Note_on_c, 6, 48, 0
12, 53625, Note_on_c, 6, 48, 80
12, 53639, Note_on_c, 6, 48, 0
12, 53640, Note_on_c, 6, 48, 80
12, 53654, Note_on_c, 6, 48, 0
12, 53655, Note_on_c, 6, 48, 82
12, 53669, Note_on_c, 6, 48, 0
12, 53670, Note_on_c, 6, 48, 81
12, 53684, Note_on_c, 6, 48, 0
12, 53685, Note_on_c, 6, 48, 81
12, 53699, Note_on_c, 6, 48, 0
12, 53700, Note_on_c, 6, 48, 87
12, 53714, Note_on_c, 6, 48, 0
12, 53715, Note_on_c, 6, 48, 83
12, 53729, Note_on_c, 6, 48, 0
12, 53730, Note_on_c, 6, 48, 80
12, 53744, Note_on_c, 6, 48, 0
12, 53745, Note_on_c, 6, 48, 80
12, 53759, Note_on_c, 6, 48, 0
12, 53760, Note_on_c, 6, 48, 84
12, 53879, Note_on_c, 6, 48, 0
12, 54000, Note_on_c, 6, 48, 84
12, 54089, Note_on_c, 6, 48, 0
12, 54090, Note_on_c, 6, 43, 84
12, 54119, Note_on_c, 6, 43, 0
12, 54120, Note_on_c, 6, 48, 84
12, 54239, Note_on_c, 6, 48, 0
12, 54240, Note_on_c, 6, 48, 84
12, 54359, Note_on_c, 6, 48, 0
12, 54360, Note_on_c, 6, 48, 84
12, 54479, Note_on_c, 6, 48, 0
12, 54480, Note_on_c, 6, 48, 80
12, 54494, Note_on_c, 6, 48, 0
12, 54495, Note_on_c, 6, 48, 83
12, 54509, Note_on_c, 6, 48, 0
12, 54510, Note_on_c, 6, 48, 84
12, 54524, Note_on_c, 6, 48, 0
12, 54525, Note_on_c, 6, 48, 84
12, 54539, Note_on_c, 6, 48, 0
12, 54540, Note_on_c, 6, 48, 84
12, 54554, Note_on_c, 6, 48, 0
12, 54555, Note_on_c, 6, 48, 84
12, 54569, Note_on_c, 6, 48, 0
12, 54570, Note_on_c, 6, 48, 81
12, 54584, Note_on_c, 6, 48, 0
12, 54585, Note_on_c, 6, 48, 85
12, 54599, Note_on_c, 6, 48, 0
12, 54600, Note_on_c, 6, 48, 83
12, 54614, Note_on_c, 6, 48, 0
12, 54615, Note_on_c, 6, 48, 82
12, 54629, Note_on_c, 6, 48, 0
12, 54630, Note_on_c, 6, 48, 80
12, 54644, Note_on_c, 6, 48, 0
12, 54645, Note_on_c, 6, 48, 84
12, 54659, Note_on_c, 6, 48, 0
12, 54660, Note_on_c, 6, 48, 86
12, 54674, Note_on_c, 6, 48, 0
12, 54675, Note_on_c, 6, 48, 86
12, 54689, Note_on_c, 6, 48, 0
12, 54690, Note_on_c, 6, 48, 84
12, 54704, Note_on_c, 6, 48, 0
12, 54705, Note_on_c, 6, 48, 82
12, 54719, Note_on_c, 6, 48, 0
12, 54720, Note_on_c, 6, 48, 87
12, 54734, Note_on_c, 6, 48, 0
12, 54735, Note_on_c, 6, 48, 85
12, 54749, Note_on_c, 6, 48, 0
12, 54750, Note_on_c, 6, 48, 87
12, 54764, Note_on_c, 6, 48, 0
12, 54765, Note_on_c, 6, 48, 87
12, 54779, Note_on_c, 6, 48, 0
12, 54780, Note_on_c, 6, 48, 84
12, 54794, Note_on_c, 6, 48, 0
12, 54795, Note_on_c, 6, 48, 81
12, 54809, Note_on_c, 6, 48, 0
12, 54810, Note_on_c, 6, 48, 83
12, 54824, Note_on_c, 6, 48, 0
12, 54825, Note_on_c, 6, 48, 81
12, 54839, Note_on_c, 6, 48, 0
12, 54840, Note_on_c, 6, 48, 84
12, 54959, Note_on_c, 6, 48, 0
12, 55080, Note_on_c, 6, 48, 84
12, 55169, Note_on_c, 6, 48, 0
12, 55170, Note_on_c, 6, 48, 84
12, 55199, Note_on_c, 6, 48, 0
12, 55200, Note_on_c, 6, 48, 86
12, 55214, Note_on_c, 6, 48, 0
12, 55215, Note_on_c, 6, 48, 81
12, 55229, Note_on_c, 6, 48, 0
12, 55230, Note_on_c, 6, 48, 86
12, 55244, Note_on_c, 6, 48, 0
12, 55245, Note_on_c, 6, 48, 86
12, 55259, Note_on_c, 6, 48, 0
12, 55260, Note_on_c, 6, 48, 87
12, 55274, Note_on_c, 6, 48, 0
12, 55275, Note_on_c, 6, 48, 87
12, 55289, Note_on_c, 6, 48, 0
12, 55290, Note_on_c, 6, 48, 84
12, 55304, Note_on_c, 6, 48, 0
12, 55305, Note_on_c, 6, 48, 83
12, 55319, Note_on_c, 6, 48, 0
12, 55320, Note_on_c, 6, 48, 84
12, 55439, Note_on_c, 6, 48, 0
12, 55440, Note_on_c, 6, 48, 84
12, 55529, Note_on_c, 6, 48, 0
12, 55530, Note_on_c, 6, 48, 84
12, 55559, Note_on_c, 6, 48, 0
12, 55560, Note_on_c, 6, 48, 82
12, 55574, Note_on_c, 6, 48, 0
12, 55575, Note_on_c, 6, 48, 82
12, 55589, Note_on_c, 6, 48, 0
12, 55590, Note_on_c, 6, 48, 86
12, 55604, Note_on_c, 6, 48, 0
12, 55605, Note_on_c, 6, 48, 80
12, 55619, Note_on_c, 6, 48, 0
12, 55620, Note_on_c, 6, 48, 83
12, 55634, Note_on_c, 6, 48, 0
12, 55635, Note_on_c, 6, 48, 80
12, 55649, Note_on_c, 6, 48, 0
12, 55650, Note_on_c, 6, 48, 85
12, 55664, Note_on_c, 6, 48, 0
12, 55665, Note_on_c, 6, 48, 80
12, 55679, Note_on_c, 6, 48, 0
12, 55680, Note_on_c, 6, 48, 84
12, 55799, Note_on_c, 6, 48, 0
12, 55800, Note_on_c, 6, 48, 84
12, 55889, Note_on_c, 6, 48, 0
12, 55890, Note_on_c, 6, 48, 84
12, 55919, Note_on_c, 6, 48, 0
12, 55920, Note_on_c, 6, 48, 84
12, 55934, Note_on_c, 6, 48, 0
12, 55935, Note_on_c, 6, 48, 84
12, 55949, Note_on_c, 6, 48, 0
12, 55950, Note_on_c, 6, 48, 83
12, 55964, Note_on_c, 6, 48, 0
12, 55965, Note_on_c, 6, 48, 82
12, 55979, Note_on_c, 6, 48, 0
12, 55980, Note_on_c, 6, 48, 82
12, 55994, Note_on_c, 6, 48, 0
12, 55995, Note_on_c, 6, 48, 81
12, 56009, Note_on_c, 6, 48, 0
12, 56010, Note_on_c, 6, 48, 80
12, 56024, Note_on_c, 6, 48, 0
12, 56025, Note_on_c, 6, 48, 80
12, 56039, Note_on_c, 6, 48, 0
12, 56040, Note_on_c, 6, 48, 79
12, 56054, Note_on_c, 6, 48, 0
12, 56055, Note_on_c, 6, 48, 78
12, 56069, Note_on_c, 6, 48, 0
12, 56070, Note_on_c, 6, 48, 78
12, 56084, Note_on_c, 6, 48, 0
12, 56085, Note_on_c, 6, 48, 77
12, 56099, Note_on_c, 6, 48, 0
12, 56100, Note_on_c, 6, 48, 76
12, 56114, Note_on_c, 6, 48, 0
12, 56115, Note_on_c, 6, 48, 76
12, 56129, Note_on_c, 6, 48, 0
12, 56130, Note_on_c, 6, 48, 75
12, 56144, Note_on_c, 6, 48, 0
12, 56145, Note_on_c, 6, 48, 74
12, 56159, Note_on_c, 6, 48, 0
12, 56160, Note_on_c, 6, 48, 74
12, 56174, Note_on_c, 6, 48, 0
12, 56175, Note_on_c, 6, 48, 73
12, 56189, Note_on_c, 6, 48, 0
12, 56190, Note_on_c, 6, 48, 72
12, 56204, Note_on_c, 6, 48, 0
12, 56205, Note_on_c, 6, 48, 72
12, 56219, Note_on_c, 6, 48, 0
12, 56220, Note_on_c, 6, 48, 71
12, 56234, Note_on_c, 6, 48, 0
12, 56235, Note_on_c, 6, 48, 70
12, 56249, Note_on_c, 6, 48, 0
12, 56250, Note_on_c, 6, 48, 70
12, 56264, Note_on_c, 6, 48, 0
12, 56265, Note_on_c, 6, 48, 69
12, 56279, Note_on_c, 6, 48, 0
12, 56280, Note_on_c, 6, 48, 68
12, 56294, Note_on_c, 6, 48, 0
12, 56295, Note_on_c, 6, 48, 68
12, 56309, Note_on_c, 6, 48, 0
12, 56310, Note_on_c, 6, 48, 67
12, 56324, Note_on_c, 6, 48, 0
12, 56325, Note_on_c, 6, 48, 66
12, 56339, Note_on_c, 6, 48, 0
12, 56340, Note_on_c, 6, 48, 66
12, 56354, Note_on_c, 6, 48, 0
12, 56355, Note_on_c, 6, 48, 65
12, 56369, Note_on_c, 6, 48, 0
12, 56370, Note_on_c, 6, 48, 64
12, 56384, Note_on_c, 6, 48, 0
12, 56385, Note_on_c, 6, 48, 64
12, 56399, Note_on_c, 6, 48, 0
12, 56400, Note_on_c, 6, 48, 63
12, 56414, Note_on_c, 6, 48, 0
12, 56415, Note_on_c, 6, 48, 62
12, 56429, Note_on_c, 6, 48, 0
12, 56430, Note_on_c, 6, 48, 62
12, 56444, Note_on_c, 6, 48, 0
12, 56445, Note_on_c, 6, 48, 61
12, 56459, Note_on_c, 6, 48, 0
12, 56460, Note_on_c, 6, 48, 60
12, 56474, Note_on_c, 6, 48, 0
12, 56475, Note_on_c, 6, 48, 60
12, 56489, Note_on_c, 6, 48, 0
12, 56490, Note_on_c, 6, 48, 59
12, 56504, Note_on_c, 6, 48, 0
12, 56505, Note_on_c, 6, 48, 58
12, 56519, Note_on_c, 6, 48, 0
12, 56520, Note_on_c, 6, 48, 58
12, 56534, Note_on_c, 6, 48, 0
12, 56535, Note_on_c, 6, 48, 57
12, 56549, Note_on_c, 6, 48, 0
12, 56550, Note_on_c, 6, 48, 56
12, 56564, Note_on_c, 6, 48, 0
12, 56565, Note_on_c, 6, 48, 56
12, 56579, Note_on_c, 6, 48, 0
12, 56580, Note_on_c, 6, 48, 55
12, 56594, Note_on_c, 6, 48, 0
12, 56595, Note_on_c, 6, 48, 54
12, 56609, Note_on_c, 6, 48, 0
12, 56610, Note_on_c, 6, 48, 54
12, 56624, Note_on_c, 6, 48, 0
12, 56625, Note_on_c, 6, 48, 53
12, 56639, Note_on_c, 6, 48, 0
12, 56640, Note_on_c, 6, 48, 52
12, 56759, Note_on_c, 6, 48, 0
12, 66360, Note_on_c, 6, 48, 84
12, 66479, Note_on_c, 6, 48, 0
12, 67080, Note_on_c, 6, 43, 84
12, 67199, Note_on_c, 6, 43, 0
12, 67200, Note_on_c, 6, 43, 84
12, 67319, Note_on_c, 6, 43, 0
12, 67320, Note_on_c, 6, 43, 84
12, 67439, Note_on_c, 6, 43, 0
12, 67440, Note_on_c, 6, 48, 84
12, 67559, Note_on_c, 6, 48, 0
12, 67560, Note_on_c, 6, 48, 84
12, 67679, Note_on_c, 6, 48, 0
12, 67680, Note_on_c, 6, 48, 84
12, 67799, Note_on_c, 6, 48, 0
12, 68160, Note_on_c, 6, 43, 84
12, 68279, Note_on_c, 6, 43, 0
12, 68280, Note_on_c, 6, 48, 84
12, 68399, Note_on_c, 6, 48, 0
12, 68400, Note_on_c, 6, 48, 84
12, 68519, Note_on_c, 6, 48, 0
12, 68520, Note_on_c, 6, 43, 84
12, 68639, Note_on_c, 6, 43, 0
12, 68880, Note_on_c, 6, 48, 84
12, 68999, Note_on_c, 6, 48, 0
12, 69600, Note_on_c, 6, 48, 84
12, 69719, Note_on_c, 6, 48, 0
12, 77160, Note_on_c, 6, 48, 76
12, 77279, Note_on_c, 6, 48, 0
12, 77880, Note_on_c, 6, 48, 76
12, 77999, Note_on_c, 6, 48, 0
12, 86400, Note_on_c, 6, 48, 76
12, 86439, Note_on_c, 6, 48, 0
12, 86440, Note_on_c, 6, 48, 76
12, 86479, Note_on_c, 6, 48, 0
12, 86480, Note_on_c, 6, 48, 76
12, 86519, Note_on_c, 6, 48, 0
12, 86520, Note_on_c, 6, 48, 76
12, 86639, Note_on_c, 6, 48, 0
12, 86640, Note_on_c, 6, 48, 76
12, 86759, Note_on_c, 6, 48, 0
12, 86760, Note_on_c, 6, 48, 76
12, 86879, Note_on_c, 6, 48, 0
12, 86880, Note_on_c, 6, 48, 76
12, 86999, Note_on_c, 6, 48, 0
12, 87600, Note_on_c, 6, 48, 76
12, 87719, Note_on_c, 6, 48, 0
12, 88680, Note_on_c, 6, 48, 76
12, 88799, Note_on_c, 6, 48, 0
12, 88799, End_track
13, 0, Start_track
13, 0, Title_t, "Violin I"
13, 0, MIDI_port, 0
13, 0, Program_c, 11, 48
13, 0, Control_c, 11, 7, 96
13, 0, Control_c, 11, 10, 48
13, 0, Control_c, 11, 11, 127
13, 2880, Note_on_c, 11, 68, 52
13, 2969, Note_on_c, 11, 68, 0
13, 2970, Note_on_c, 11, 72, 52
13, 2995, Note_on_c, 11, 72, 0
13, 3000, Note_on_c, 11, 75, 76
13, 3359, Note_on_c, 11, 75, 0
13, 3360, Note_on_c, 11, 72, 52
13, 3479, Note_on_c, 11, 72, 0
13, 5160, Control_c, 11, 11, 80
13, 5340, Note_on_c, 11, 68, 76
13, 5399, Note_on_c, 11, 68, 0
13, 5400, Note_on_c, 11, 72, 76
13, 5459, Note_on_c, 11, 72, 0
13, 5460, Note_on_c, 11, 75, 76
13, 5515, Note_on_c, 11, 75, 0
13, 5520, Note_on_c, 11, 75, 76
13, 5579, Note_on_c, 11, 75, 0
13, 5580, Note_on_c, 11, 73, 76
13, 5635, Note_on_c, 11, 73, 0
13, 5640, Note_on_c, 11, 72, 76
13, 5815, Note_on_c, 11, 72, 0
13, 5820, Note_on_c, 11, 72, 76
13, 5875, Note_on_c, 11, 72, 0
13, 5880, Note_on_c, 11, 72, 76
13, 5880, Control_c, 11, 11, 80
13, 5895, Control_c, 11, 11, 82
13, 5910, Control_c, 11, 11, 84
13, 5925, Control_c, 11, 11, 86
13, 5939, Note_on_c, 11, 72, 0
13, 5940, Note_on_c, 11, 70, 76
13, 5940, Control_c, 11, 11, 88
13, 5955, Control_c, 11, 11, 90
13, 5970, Control_c, 11, 11, 92
13, 5985, Control_c, 11, 11, 94
13, 5995, Note_on_c, 11, 70, 0
13, 6000, Note_on_c, 11, 68, 76
13, 6000, Control_c, 11, 11, 96
13, 6015, Control_c, 11, 11, 98
13, 6030, Control_c, 11, 11, 100
13, 6045, Control_c, 11, 11, 102
13, 6060, Control_c, 11, 11, 104
13, 6075, Control_c, 11, 11, 105
13, 6090, Control_c, 11, 11, 107
13, 6105, Control_c, 11, 11, 109
13, 6120, Control_c, 11, 11, 111
13, 6135, Control_c, 11, 11, 113
13, 6150, Control_c, 11, 11, 115
13, 6165, Control_c, 11, 11, 117
13, 6175, Note_on_c, 11, 68, 0
13, 6180, Note_on_c, 11, 68, 76
13, 6180, Control_c, 11, 11, 119
13, 6195, Control_c, 11, 11, 121
13, 6210, Control_c, 11, 11, 123
13, 6225, Control_c, 11, 11, 125
13, 6235, Note_on_c, 11, 68, 0
13, 6240, Note_on_c, 11, 67, 76
13, 6240, Control_c, 11, 11, 127
13, 6471, Note_on_c, 11, 67, 0
13, 6480, Note_on_c, 11, 67, 76
13, 6519, Note_on_c, 11, 67, 0
13, 6520, Note_on_c, 11, 68, 76
13, 6559, Note_on_c, 11, 68, 0
13, 6560, Note_on_c, 11, 70, 76
13, 6595, Note_on_c, 11, 70, 0
13, 6600, Note_on_c, 11, 68, 52
13, 6719, Note_on_c, 11, 68, 0
13, 7200, Note_on_c, 11, 67, 76
13, 7239, Note_on_c, 11, 67, 0
13, 7240, Note_on_c, 11, 68, 76
13, 7279, Note_on_c, 11, 68, 0
13, 7280, Note_on_c, 11, 70, 76
13, 7315, Note_on_c, 11, 70, 0
13, 7320, Note_on_c, 11, 68, 76
13, 7379, Note_on_c, 11, 68, 0
13, 7440, Note_on_c, 11, 68, 52
13, 7499, Note_on_c, 11, 68, 0
13, 7560, Note_on_c, 11, 68, 52
13, 7619, Note_on_c, 11, 68, 0
13, 7680, Note_on_c, 11, 68, 52
13, 7799, Note_on_c, 11, 68, 0
13, 8160, Note_on_c, 11, 68, 48
13, 8279, Note_on_c, 11, 68, 0
13, 8280, Note_on_c, 11, 70, 48
13, 8399, Note_on_c, 11, 70, 0
13, 8400, Note_on_c, 11, 72, 48
13, 8519, Note_on_c, 11, 72, 0
13, 8880, Note_on_c, 11, 72, 48
13, 8999, Note_on_c, 11, 72, 0
13, 9000, Note_on_c, 11, 73, 48
13, 9119, Note_on_c, 11, 73, 0
13, 9120, Note_on_c, 11, 75, 48
13, 9239, Note_on_c, 11, 75, 0
13, 9360, Note_on_c, 11, 75, 44
13, 9449, Note_on_c, 11, 75, 0
13, 9450, Note_on_c, 11, 77, 44
13, 9475, Note_on_c, 11, 77, 0
13, 9480, Note_on_c, 11, 78, 44
13, 9711, Note_on_c, 11, 78, 0
13, 9720, Note_on_c, 11, 75, 44
13, 9809, Note_on_c, 11, 75, 0
13, 9810, Note_on_c, 11, 77, 44
13, 9835, Note_on_c, 11, 77, 0
13, 9840, Note_on_c, 11, 78, 44
13, 10071, Note_on_c, 11, 78, 0
13, 10080, Note_on_c, 11, 75, 44
13, 10169, Note_on_c, 11, 75, 0
13, 10170, Note_on_c, 11, 77, 44
13, 10195, Note_on_c, 11, 77, 0
13, 10200, Note_on_c, 11, 78, 84
13, 10551, Note_on_c, 11, 78, 0
13, 10560, Note_on_c, 11, 79, 84
13, 10626, Note_on_c, 11, 79, 0
13, 10650, Note_on_c, 11, 76, 84
13, 10671, Note_on_c, 11, 76, 0
13, 10680, Note_on_c, 11, 55, 84
13, 10680, Note_on_c, 11, 64, 84
13, 10680, Note_on_c, 11, 72, 84
13, 10769, Note_on_c, 11, 55, 0
13, 10769, Note_on_c, 11, 64, 0
13, 10769, Note_on_c, 11, 72, 0
13, 10800, Note_on_c, 11, 55, 84
13, 10800, Note_on_c, 11, 65, 84
13, 10800, Note_on_c, 11, 74, 84
13, 10889, Note_on_c, 11, 55, 0
13, 10889, Note_on_c, 11, 65, 0
13, 10889, Note_on_c, 11, 74, 0
13, 10920, Note_on_c, 11, 72, 84
13, 10920, Note_on_c, 11, 55, 84
13, 10920, Note_on_c, 11, 64, 84
13, 11039, Note_on_c, 11, 72, 0
13, 11039, Note_on_c, 11, 55, 0
13, 11039, Note_on_c, 11, 64, 0
13, 11280, Note_on_c, 11, 64, 84
13, 11309, Note_on_c, 11, 64, 0
13, 11320, Note_on_c, 11, 72, 84
13, 11349, Note_on_c, 11, 72, 0
13, 11360, Note_on_c, 11, 67, 84
13, 11389, Note_on_c, 11, 67, 0
13, 11400, Note_on_c, 11, 64, 84
13, 11429, Note_on_c, 11, 64, 0
13, 11440, Note_on_c, 11, 72, 84
13, 11469, Note_on_c, 11, 72, 0
13, 11480, Note_on_c, 11, 67, 84
13, 11509, Note_on_c, 11, 67, 0
13, 11520, Note_on_c, 11, 67, 84
13, 11549, Note_on_c, 11, 67, 0
13, 11560, Note_on_c, 11, 74, 84
13, 11589, Note_on_c, 11, 74, 0
13, 11600, Note_on_c, 11, 71, 84
13, 11629, Note_on_c, 11, 71, 0
13, 11640, Note_on_c, 11, 67, 84
13, 11669, Note_on_c, 11, 67, 0
13, 11680, Note_on_c, 11, 76, 84
13, 11709, Note_on_c, 11, 76, 0
13, 11720, Note_on_c, 11, 72, 84
13, 11749, Note_on_c, 11, 72, 0
13, 11760, Note_on_c, 11, 67, 84
13, 11789, Note_on_c, 11, 67, 0
13, 11800, Note_on_c, 11, 64, 84
13, 11829, Note_on_c, 11, 64, 0
13, 11840, Note_on_c, 11, 60, 84
13, 11869, Note_on_c, 11, 60, 0
13, 11880, Note_on_c, 11, 67, 84
13, 11909, Note_on_c, 11, 67, 0
13, 11920, Note_on_c, 11, 72, 84
13, 11949, Note_on_c, 11, 72, 0
13, 11960, Note_on_c, 11, 74, 84
13, 11989, Note_on_c, 11, 74, 0
13, 12000, Note_on_c, 11, 67, 84
13, 12029, Note_on_c, 11, 67, 0
13, 12040, Note_on_c, 11, 76, 84
13, 12069, Note_on_c, 11, 76, 0
13, 12080, Note_on_c, 11, 72, 84
13, 12109, Note_on_c, 11, 72, 0
13, 12120, Note_on_c, 11, 67, 84
13, 12149, Note_on_c, 11, 67, 0
13, 12160, Note_on_c, 11, 76, 84
13, 12189, Note_on_c, 11, 76, 0
13, 12200, Note_on_c, 11, 72, 84
13, 12229, Note_on_c, 11, 72, 0
13, 12240, Note_on_c, 11, 67, 84
13, 12269, Note_on_c, 11, 67, 0
13, 12280, Note_on_c, 11, 77, 84
13, 12309, Note_on_c, 11, 77, 0
13, 12320, Note_on_c, 11, 74, 84
13, 12349, Note_on_c, 11, 74, 0
13, 12360, Note_on_c, 11, 67, 92
13, 12389, Note_on_c, 11, 67, 0
13, 12400, Note_on_c, 11, 79, 84
13, 12429, Note_on_c, 11, 79, 0
13, 12440, Note_on_c, 11, 76, 84
13, 12469, Note_on_c, 11, 76, 0
13, 12480, Note_on_c, 11, 72, 84
13, 12509, Note_on_c, 11, 72, 0
13, 12520, Note_on_c, 11, 67, 84
13, 12549, Note_on_c, 11, 67, 0
13, 12560, Note_on_c, 11, 64, 84
13, 12589, Note_on_c, 11, 64, 0
13, 12600, Note_on_c, 11, 60, 84
13, 12629, Note_on_c, 11, 60, 0
13, 12640, Note_on_c, 11, 76, 84
13, 12669, Note_on_c, 11, 76, 0
13, 12680, Note_on_c, 11, 77, 84
13, 12709, Note_on_c, 11, 77, 0
13, 12720, Note_on_c, 11, 60, 92
13, 12749, Note_on_c, 11, 60, 0
13, 12760, Note_on_c, 11, 79, 84
13, 12789, Note_on_c, 11, 79, 0
13, 12800, Note_on_c, 11, 76, 84
13, 12829, Note_on_c, 11, 76, 0
13, 12840, Note_on_c, 11, 72, 84
13, 12869, Note_on_c, 11, 72, 0
13, 12880, Note_on_c, 11, 67, 84
13, 12909, Note_on_c, 11, 67, 0
13, 12920, Note_on_c, 11, 64, 84
13, 12949, Note_on_c, 11, 64, 0
13, 12960, Note_on_c, 11, 60, 84
13, 12989, Note_on_c, 11, 60, 0
13, 13000, Note_on_c, 11, 76, 84
13, 13029, Note_on_c, 11, 76, 0
13, 13040, Note_on_c, 11, 77, 84
13, 13069, Note_on_c, 11, 77, 0
13, 13080, Note_on_c, 11, 64, 84
13, 13080, Note_on_c, 11, 72, 84
13, 13080, Note_on_c, 11, 79, 84
13, 13199, Note_on_c, 11, 64, 0
13, 13199, Note_on_c, 11, 72, 0
13, 13199, Note_on_c, 11, 79, 0
13, 13680, Note_on_c, 11, 70, 44
13, 13769, Note_on_c, 11, 70, 0
13, 13770, Note_on_c, 11, 72, 44
13, 13795, Note_on_c, 11, 72, 0
13, 13800, Note_on_c, 11, 73, 44
13, 14031, Note_on_c, 11, 73, 0
13, 14040, Note_on_c, 11, 70, 44
13, 14129, Note_on_c, 11, 70, 0
13, 14130, Note_on_c, 11, 72, 44
13, 14155, Note_on_c, 11, 72, 0
13, 14160, Note_on_c, 11, 73, 44
13, 14391, Note_on_c, 11, 73, 0
13, 14400, Note_on_c, 11, 70, 44
13, 14489, Note_on_c, 11, 70, 0
13, 14490, Note_on_c, 11, 72, 44
13, 14515, Note_on_c, 11, 72, 0
13, 14518, Control_c, 11, 11, 64
13, 14520, Note_on_c, 11, 73, 76
13, 14879, Note_on_c, 11, 73, 0
13, 14880, Note_on_c, 11, 74, 76
13, 15239, Note_on_c, 11, 74, 0
13, 15240, Note_on_c, 11, 75, 76
13, 15599, Note_on_c, 11, 75, 0
13, 15600, Note_on_c, 11, 77, 76
13, 15959, Note_on_c, 11, 77, 0
13, 15960, Note_on_c, 11, 79, 76
13, 16319, Note_on_c, 11, 79, 0
13, 16320, Note_on_c, 11, 80, 76
13, 16679, Note_on_c, 11, 80, 0
13, 16680, Note_on_c, 11, 77, 76
13, 16680, Control_c, 11, 11, 64
13, 16695, Control_c, 11, 11, 67
13, 16710, Control_c, 11, 11, 69
13, 16725, Control_c, 11, 11, 72
13, 16740, Control_c, 11, 11, 75
13, 16755, Control_c, 11, 11, 77
13, 16770, Control_c, 11, 11, 80
13, 16785, Control_c, 11, 11, 82
13, 16800, Control_c, 11, 11, 85
13, 16815, Control_c, 11, 11, 88
13, 16830, Control_c, 11, 11, 90
13, 16845, Control_c, 11, 11, 93
13, 16860, Control_c, 11, 11, 96
13, 16875, Control_c, 11, 11, 98
13, 16890, Control_c, 11, 11, 101
13, 16905, Control_c, 11, 11, 103
13, 16920, Control_c, 11, 11, 106
13, 16935, Control_c, 11, 11, 109
13, 16950, Control_c, 11, 11, 111
13, 16965, Control_c, 11, 11, 114
13, 16980, Control_c, 11, 11, 117
13, 16995, Control_c, 11, 11, 119
13, 17010, Control_c, 11, 11, 122
13, 17025, Control_c, 11, 11, 127
13, 17031, Note_on_c, 11, 77, 0
13, 17040, Note_on_c, 11, 75, 76
13, 17159, Note_on_c, 11, 75, 0
13, 17400, Program_c, 11, 45
13, 17640, Note_on_c, 11, 72, 48
13, 17759, Note_on_c, 11, 72, 0
13, 17760, Note_on_c, 11, 72, 48
13, 17879, Note_on_c, 11, 72, 0
13, 18120, Note_on_c, 11, 65, 48
13, 18239, Note_on_c, 11, 65, 0
13, 18480, Note_on_c, 11, 73, 48
13, 18599, Note_on_c, 11, 73, 0
13, 18600, Note_on_c, 11, 70, 48
13, 18719, Note_on_c, 11, 70, 0
13, 18720, Note_on_c, 11, 73, 48
13, 18839, Note_on_c, 11, 73, 0
13, 18840, Note_on_c, 11, 67, 48
13, 18959, Note_on_c, 11, 67, 0
13, 19080, Note_on_c, 11, 72, 48
13, 19199, Note_on_c, 11, 72, 0
13, 19200, Note_on_c, 11, 72, 48
13, 19319, Note_on_c, 11, 72, 0
13, 19320, Note_on_c, 11, 73, 48
13, 19439, Note_on_c, 11, 73, 0
13, 19560, Note_on_c, 11, 70, 48
13, 19679, Note_on_c, 11, 70, 0
13, 19680, Note_on_c, 11, 72, 48
13, 19799, Note_on_c, 11, 72, 0
13, 19920, Note_on_c, 11, 55, 68
13, 19920, Note_on_c, 11, 63, 68
13, 20009, Note_on_c, 11, 55, 0
13, 20009, Note_on_c, 11, 63, 0
13, 20040, Note_on_c, 11, 55, 68
13, 20040, Note_on_c, 11, 63, 68
13, 20129, Note_on_c, 11, 55, 0
13, 20129, Note_on_c, 11, 63, 0
13, 20160, Note_on_c, 11, 63, 68
13, 20160, Note_on_c, 11, 55, 68
13, 20249, Note_on_c, 11, 63, 0
13, 20249, Note_on_c, 11, 55, 0
13, 20280, Note_on_c, 11, 56, 48
13, 20324, Note_on_c, 11, 56, 0
13, 20338, Program_c, 11, 48
13, 20340, Note_on_c, 11, 67, 52
13, 20379, Note_on_c, 11, 67, 0
13, 20380, Note_on_c, 11, 70, 55
13, 20399, Note_on_c, 11, 70, 0
13, 20400, Note_on_c, 11, 68, 56
13, 20459, Note_on_c, 11, 68, 0
13, 20460, Note_on_c, 11, 67, 61
13, 20519, Note_on_c, 11, 67, 0
13, 20520, Note_on_c, 11, 68, 66
13, 20579, Note_on_c, 11, 68, 0
13, 20580, Note_on_c, 11, 72, 71
13, 20635, Note_on_c, 11, 72, 0
13, 20640, Note_on_c, 11, 74, 76
13, 20699, Note_on_c, 11, 74, 0
13, 20700, Note_on_c, 11, 75, 76
13, 20759, Note_on_c, 11, 75, 0
13, 20760, Note_on_c, 11, 77, 76
13, 20819, Note_on_c, 11, 77, 0
13, 20820, Note_on_c, 11, 75, 76
13, 20879, Note_on_c, 11, 75, 0
13, 20880, Note_on_c, 11, 74, 76
13, 20939, Note_on_c, 11, 74, 0
13, 20940, Note_on_c, 11, 75, 76
13, 20995, Note_on_c, 11, 75, 0
13, 21000, Note_on_c, 11, 72, 52
13, 21119, Note_on_c, 11, 72, 0
13, 22800, Control_c, 11, 11, 80
13, 22980, Note_on_c, 11, 68, 76
13, 23039, Note_on_c, 11, 68, 0
13, 23040, Note_on_c, 11, 72, 76
13, 23099, Note_on_c, 11, 72, 0
13, 23100, Note_on_c, 11, 75, 76
13, 23155, Note_on_c, 11, 75, 0
13, 23160, Note_on_c, 11, 75, 76
13, 23219, Note_on_c, 11, 75, 0
13, 23220, Note_on_c, 11, 73, 76
13, 23275, Note_on_c, 11, 73, 0
13, 23280, Note_on_c, 11, 72, 76
13, 23455, Note_on_c, 11, 72, 0
13, 23460, Note_on_c, 11, 72, 76
13, 23515, Note_on_c, 11, 72, 0
13, 23520, Note_on_c, 11, 72, 76
13, 23520, Control_c, 11, 11, 80
13, 23535, Control_c, 11, 11, 82
13, 23550, Control_c, 11, 11, 84
13, 23565, Control_c, 11, 11, 86
13, 23579, Note_on_c, 11, 72, 0
13, 23580, Note_on_c, 11, 70, 76
13, 23580, Control_c, 11, 11, 88
13, 23595, Control_c, 11, 11, 90
13, 23610, Control_c, 11, 11, 92
13, 23625, Control_c, 11, 11, 94
13, 23635, Note_on_c, 11, 70, 0
13, 23640, Note_on_c, 11, 68, 76
13, 23640, Control_c, 11, 11, 96
13, 23655, Control_c, 11, 11, 98
13, 23670, Control_c, 11, 11, 100
13, 23685, Control_c, 11, 11, 102
13, 23700, Control_c, 11, 11, 104
13, 23715, Control_c, 11, 11, 105
13, 23730, Control_c, 11, 11, 107
13, 23745, Control_c, 11, 11, 109
13, 23760, Control_c, 11, 11, 111
13, 23775, Control_c, 11, 11, 113
13, 23790, Control_c, 11, 11, 115
13, 23805, Control_c, 11, 11, 117
13, 23815, Note_on_c, 11, 68, 0
13, 23820, Note_on_c, 11, 68, 76
13, 23820, Control_c, 11, 11, 119
13, 23835, Control_c, 11, 11, 121
13, 23850, Control_c, 11, 11, 123
13, 23865, Control_c, 11, 11, 127
13, 23875, Note_on_c, 11, 68, 0
13, 23880, Note_on_c, 11, 67, 76
13, 24111, Note_on_c, 11, 67, 0
13, 24120, Note_on_c, 11, 67, 76
13, 24159, Note_on_c, 11, 67, 0
13, 24160, Note_on_c, 11, 68, 76
13, 24199, Note_on_c, 11, 68, 0
13, 24200, Note_on_c, 11, 70, 76
13, 24235, Note_on_c, 11, 70, 0
13, 24240, Note_on_c, 11, 68, 52
13, 24359, Note_on_c, 11, 68, 0
13, 24840, Note_on_c, 11, 67, 76
13, 24879, Note_on_c, 11, 67, 0
13, 24880, Note_on_c, 11, 68, 76
13, 24919, Note_on_c, 11, 68, 0
13, 24920, Note_on_c, 11, 70, 76
13, 24955, Note_on_c, 11, 70, 0
13, 24960, Note_on_c, 11, 68, 76
13, 25019, Note_on_c, 11, 68, 0
13, 25080, Note_on_c, 11, 68, 52
13, 25139, Note_on_c, 11, 68, 0
13, 25200, Note_on_c, 11, 68, 52
13, 25259, Note_on_c, 11, 68, 0
13, 25320, Note_on_c, 11, 68, 52
13, 25439, Note_on_c, 11, 68, 0
13, 25800, Note_on_c, 11, 68, 48
13, 25919, Note_on_c, 11, 68, 0
13, 25920, Note_on_c, 11, 70, 48
13, 26039, Note_on_c, 11, 70, 0
13, 26040, Note_on_c, 11, 72, 48
13, 26159, Note_on_c, 11, 72, 0
13, 26520, Note_on_c, 11, 72, 48
13, 26639, Note_on_c, 11, 72, 0
13, 26640, Note_on_c, 11, 73, 48
13, 26759, Note_on_c, 11, 73, 0
13, 26760, Note_on_c, 11, 75, 48
13, 26879, Note_on_c, 11, 75, 0
13, 27000, Note_on_c, 11, 75, 44
13, 27089, Note_on_c, 11, 75, 0
13, 27090, Note_on_c, 11, 77, 44
13, 27115, Note_on_c, 11, 77, 0
13, 27120, Note_on_c, 11, 78, 44
13, 27351, Note_on_c, 11, 78, 0
13, 27360, Note_on_c, 11, 75, 44
13, 27449, Note_on_c, 11, 75, 0
13, 27450, Note_on_c, 11, 77, 44
13, 27475, Note_on_c, 11, 77, 0
13, 27480, Note_on_c, 11, 78, 44
13, 27711, Note_on_c, 11, 78, 0
13, 27720, Note_on_c, 11, 75, 44
13, 27809, Note_on_c, 11, 75, 0
13, 27810, Note_on_c, 11, 77, 44
13, 27835, Note_on_c, 11, 77, 0
13, 27840, Note_on_c, 11, 78, 84
13, 28191, Note_on_c, 11, 78, 0
13, 28200, Note_on_c, 11, 79, 84
13, 28285, Note_on_c, 11, 79, 0
13, 28290, Note_on_c, 11, 76, 84
13, 28315, Note_on_c, 11, 76, 0
13, 28320, Note_on_c, 11, 72, 84
13, 28320, Note_on_c, 11, 55, 84
13, 28320, Note_on_c, 11, 64, 84
13, 28409, Note_on_c, 11, 72, 0
13, 28409, Note_on_c, 11, 55, 0
13, 28409, Note_on_c, 11, 64, 0
13, 28440, Note_on_c, 11, 55, 84
13, 28440, Note_on_c, 11, 74, 84
13, 28440, Note_on_c, 11, 65, 84
13, 28529, Note_on_c, 11, 55, 0
13, 28529, Note_on_c, 11, 74, 0
13, 28529, Note_on_c, 11, 65, 0
13, 28560, Note_on_c, 11, 72, 84
13, 28560, Note_on_c, 11, 64, 84
13, 28560, Note_on_c, 11, 55, 84
13, 28679, Note_on_c, 11, 72, 0
13, 28679, Note_on_c, 11, 64, 0
13, 28679, Note_on_c, 11, 55, 0
13, 28920, Note_on_c, 11, 64, 84
13, 28941, Note_on_c, 11, 64, 0
13, 28950, Note_on_c, 11, 67, 84
13, 28971, Note_on_c, 11, 67, 0
13, 28980, Note_on_c, 11, 72, 84
13, 29001, Note_on_c, 11, 72, 0
13, 29010, Note_on_c, 11, 67, 84
13, 29031, Note_on_c, 11, 67, 0
13, 29040, Note_on_c, 11, 64, 84
13, 29061, Note_on_c, 11, 64, 0
13, 29070, Note_on_c, 11, 67, 84
13, 29091, Note_on_c, 11, 67, 0
13, 29100, Note_on_c, 11, 72, 84
13, 29121, Note_on_c, 11, 72, 0
13, 29130, Note_on_c, 11, 67, 84
13, 29151, Note_on_c, 11, 67, 0
13, 29160, Note_on_c, 11, 67, 84
13, 29181, Note_on_c, 11, 67, 0
13, 29190, Note_on_c, 11, 71, 84
13, 29211, Note_on_c, 11, 71, 0
13, 29220, Note_on_c, 11, 74, 84
13, 29241, Note_on_c, 11, 74, 0
13, 29250, Note_on_c, 11, 71, 84
13, 29271, Note_on_c, 11, 71, 0
13, 29280, Note_on_c, 11, 67, 84
13, 29301, Note_on_c, 11, 67, 0
13, 29310, Note_on_c, 11, 72, 84
13, 29331, Note_on_c, 11, 72, 0
13, 29340, Note_on_c, 11, 76, 84
13, 29361, Note_on_c, 11, 76, 0
13, 29370, Note_on_c, 11, 72, 84
13, 29391, Note_on_c, 11, 72, 0
13, 29400, Note_on_c, 11, 67, 84
13, 29421, Note_on_c, 11, 67, 0
13, 29430, Note_on_c, 11, 72, 84
13, 29451, Note_on_c, 11, 72, 0
13, 29460, Note_on_c, 11, 67, 84
13, 29481, Note_on_c, 11, 67, 0
13, 29490, Note_on_c, 11, 64, 84
13, 29511, Note_on_c, 11, 64, 0
13, 29520, Note_on_c, 11, 60, 84
13, 29541, Note_on_c, 11, 60, 0
13, 29550, Note_on_c, 11, 67, 84
13, 29571, Note_on_c, 11, 67, 0
13, 29580, Note_on_c, 11, 72, 84
13, 29601, Note_on_c, 11, 72, 0
13, 29610, Note_on_c, 11, 74, 84
13, 29631, Note_on_c, 11, 74, 0
13, 29640, Note_on_c, 11, 67, 84
13, 29661, Note_on_c, 11, 67, 0
13, 29670, Note_on_c, 11, 72, 84
13, 29691, Note_on_c, 11, 72, 0
13, 29700, Note_on_c, 11, 76, 84
13, 29721, Note_on_c, 11, 76, 0
13, 29730, Note_on_c, 11, 72, 84
13, 29751, Note_on_c, 11, 72, 0
13, 29760, Note_on_c, 11, 67, 84
13, 29781, Note_on_c, 11, 67, 0
13, 29790, Note_on_c, 11, 72, 84
13, 29811, Note_on_c, 11, 72, 0
13, 29820, Note_on_c, 11, 76, 84
13, 29841, Note_on_c, 11, 76, 0
13, 29850, Note_on_c, 11, 72, 84
13, 29871, Note_on_c, 11, 72, 0
13, 29880, Note_on_c, 11, 67, 84
13, 29901, Note_on_c, 11, 67, 0
13, 29910, Note_on_c, 11, 74, 84
13, 29931, Note_on_c, 11, 74, 0
13, 29940, Note_on_c, 11, 77, 84
13, 29961, Note_on_c, 11, 77, 0
13, 29970, Note_on_c, 11, 74, 84
13, 29991, Note_on_c, 11, 74, 0
13, 30000, Note_on_c, 11, 67, 92
13, 30021, Note_on_c, 11, 67, 0
13, 30030, Note_on_c, 11, 76, 84
13, 30051, Note_on_c, 11, 76, 0
13, 30060, Note_on_c, 11, 79, 84
13, 30081, Note_on_c, 11, 79, 0
13, 30090, Note_on_c, 11, 76, 84
13, 30111, Note_on_c, 11, 76, 0
13, 30120, Note_on_c, 11, 72, 84
13, 30141, Note_on_c, 11, 72, 0
13, 30150, Note_on_c, 11, 67, 84
13, 30171, Note_on_c, 11, 67, 0
13, 30180, Note_on_c, 11, 64, 84
13, 30201, Note_on_c, 11, 64, 0
13, 30210, Note_on_c, 11, 67, 84
13, 30231, Note_on_c, 11, 67, 0
13, 30240, Note_on_c, 11, 60, 84
13, 30261, Note_on_c, 11, 60, 0
13, 30270, Note_on_c, 11, 72, 84
13, 30291, Note_on_c, 11, 72, 0
13, 30300, Note_on_c, 11, 76, 84
13, 30321, Note_on_c, 11, 76, 0
13, 30330, Note_on_c, 11, 77, 84
13, 30351, Note_on_c, 11, 77, 0
13, 30360, Note_on_c, 11, 67, 92
13, 30381, Note_on_c, 11, 67, 0
13, 30390, Note_on_c, 11, 76, 84
13, 30411, Note_on_c, 11, 76, 0
13, 30420, Note_on_c, 11, 79, 84
13, 30441, Note_on_c, 11, 79, 0
13, 30450, Note_on_c, 11, 76, 84
13, 30471, Note_on_c, 11, 76, 0
13, 30480, Note_on_c, 11, 72, 84
13, 30501, Note_on_c, 11, 72, 0
13, 30510, Note_on_c, 11, 67, 84
13, 30531, Note_on_c, 11, 67, 0
13, 30540, Note_on_c, 11, 64, 84
13, 30561, Note_on_c, 11, 64, 0
13, 30570, Note_on_c, 11, 67, 84
13, 30591, Note_on_c, 11, 67, 0
13, 30600, Note_on_c, 11, 60, 84
13, 30621, Note_on_c, 11, 60, 0
13, 30630, Note_on_c, 11, 72, 84
13, 30651, Note_on_c, 11, 72, 0
13, 30660, Note_on_c, 11, 76, 84
13, 30681, Note_on_c, 11, 76, 0
13, 30690, Note_on_c, 11, 77, 84
13, 30711, Note_on_c, 11, 77, 0
13, 30720, Note_on_c, 11, 72, 84
13, 30720, Note_on_c, 11, 64, 84
13, 30720, Note_on_c, 11, 79, 84
13, 30839, Note_on_c, 11, 72, 0
13, 30839, Note_on_c, 11, 64, 0
13, 30839, Note_on_c, 11, 79, 0
13, 31200, Control_c, 11, 11, 64
13, 31320, Note_on_c, 11, 70, 76
13, 31409, Note_on_c, 11, 70, 0
13, 31410, Note_on_c, 11, 72, 76
13, 31435, Note_on_c, 11, 72, 0
13, 31440, Note_on_c, 11, 73, 76
13, 31671, Note_on_c, 11, 73, 0
13, 31680, Note_on_c, 11, 70, 76
13, 31769, Note_on_c, 11, 70, 0
13, 31770, Note_on_c, 11, 72, 76
13, 31795, Note_on_c, 11, 72, 0
13, 31800, Note_on_c, 11, 73, 76
13, 32031, Note_on_c, 11, 73, 0
13, 32040, Note_on_c, 11, 70, 76
13, 32129, Note_on_c, 11, 70, 0
13, 32130, Note_on_c, 11, 72, 76
13, 32155, Note_on_c, 11, 72, 0
13, 32160, Note_on_c, 11, 73, 76
13, 32519, Note_on_c, 11, 73, 0
13, 32520, Note_on_c, 11, 74, 76
13, 32879, Note_on_c, 11, 74, 0
13, 32880, Note_on_c, 11, 75, 76
13, 33239, Note_on_c, 11, 75, 0
13, 33240, Note_on_c, 11, 77, 76
13, 33599, Note_on_c, 11, 77, 0
13, 33600, Note_on_c, 11, 79, 76
13, 33959, Note_on_c, 11, 79, 0
13, 33960, Note_on_c, 11, 80, 76
13, 34319, Note_on_c, 11, 80, 0
13, 34320, Note_on_c, 11, 77, 76
13, 34320, Control_c, 11, 11, 64
13, 34335, Control_c, 11, 11, 67
13, 34350, Control_c, 11, 11, 69
13, 34365, Control_c, 11, 11, 72
13, 34380, Control_c, 11, 11, 75
13, 34395, Control_c, 11, 11, 77
13, 34410, Control_c, 11, 11, 80
13, 34425, Control_c, 11, 11, 82
13, 34440, Control_c, 11, 11, 85
13, 34455, Control_c, 11, 11, 88
13, 34470, Control_c, 11, 11, 90
13, 34485, Control_c, 11, 11, 93
13, 34500, Control_c, 11, 11, 96
13, 34515, Control_c, 11, 11, 98
13, 34530, Control_c, 11, 11, 101
13, 34545, Control_c, 11, 11, 103
13, 34560, Control_c, 11, 11, 106
13, 34575, Control_c, 11, 11, 109
13, 34590, Control_c, 11, 11, 111
13, 34605, Control_c, 11, 11, 114
13, 34620, Control_c, 11, 11, 117
13, 34635, Control_c, 11, 11, 119
13, 34650, Control_c, 11, 11, 122
13, 34665, Control_c, 11, 11, 127
13, 34671, Note_on_c, 11, 77, 0
13, 34680, Note_on_c, 11, 75, 76
13, 34799, Note_on_c, 11, 75, 0
13, 35040, Program_c, 11, 45
13, 35280, Note_on_c, 11, 72, 48
13, 35399, Note_on_c, 11, 72, 0
13, 35400, Note_on_c, 11, 72, 48
13, 35519, Note_on_c, 11, 72, 0
13, 35520, Note_on_c, 11, 72, 48
13, 35639, Note_on_c, 11, 72, 0
13, 35700, Note_on_c, 11, 72, 48
13, 35759, Note_on_c, 11, 72, 0
13, 35760, Note_on_c, 11, 65, 48
13, 35879, Note_on_c, 11, 65, 0
13, 35880, Note_on_c, 11, 65, 48
13, 35999, Note_on_c, 11, 65, 0
13, 36060, Note_on_c, 11, 65, 48
13, 36119, Note_on_c, 11, 65, 0
13, 36120, Note_on_c, 11, 73, 48
13, 36239, Note_on_c, 11, 73, 0
13, 36240, Note_on_c, 11, 73, 48
13, 36359, Note_on_c, 11, 73, 0
13, 36420, Note_on_c, 11, 73, 48
13, 36479, Note_on_c, 11, 73, 0
13, 36480, Note_on_c, 11, 72, 48
13, 36599, Note_on_c, 11, 72, 0
13, 36600, Note_on_c, 11, 72, 48
13, 36719, Note_on_c, 11, 72, 0
13, 36780, Note_on_c, 11, 72, 48
13, 36839, Note_on_c, 11, 72, 0
13, 36840, Note_on_c, 11, 72, 48
13, 36959, Note_on_c, 11, 72, 0
13, 36960, Note_on_c, 11, 73, 48
13, 37079, Note_on_c, 11, 73, 0
13, 37140, Note_on_c, 11, 73, 48
13, 37199, Note_on_c, 11, 73, 0
13, 37200, Note_on_c, 11, 70, 48
13, 37319, Note_on_c, 11, 70, 0
13, 37320, Note_on_c, 11, 72, 48
13, 37439, Note_on_c, 11, 72, 0
13, 37500, Note_on_c, 11, 72, 48
13, 37559, Note_on_c, 11, 72, 0
13, 37560, Note_on_c, 11, 70, 40
13, 37679, Note_on_c, 11, 70, 0
13, 37680, Note_on_c, 11, 70, 40
13, 37799, Note_on_c, 11, 70, 0
13, 37800, Note_on_c, 11, 70, 40
13, 37919, Note_on_c, 11, 70, 0
13, 37920, Note_on_c, 11, 72, 40
13, 37941, Note_on_c, 11, 72, 0
13, 37948, Program_c, 11, 48
13, 37950, Note_on_c, 11, 63, 48
13, 37979, Note_on_c, 11, 63, 0
13, 37980, Note_on_c, 11, 61, 48
13, 38009, Note_on_c, 11, 61, 0
13, 38010, Note_on_c, 11, 60, 48
13, 38039, Note_on_c, 11, 60, 0
13, 38040, Note_on_c, 11, 61, 48
13, 38069, Note_on_c, 11, 61, 0
13, 38070, Note_on_c, 11, 63, 48
13, 38099, Note_on_c, 11, 63, 0
13, 38100, Note_on_c, 11, 65, 48
13, 38129, Note_on_c, 11, 65, 0
13, 38130, Note_on_c, 11, 67, 48
13, 38149, Note_on_c, 11, 67, 0
13, 38150, Note_on_c, 11, 70, 48
13, 38159, Note_on_c, 11, 70, 0
13, 38160, Note_on_c, 11, 68, 48
13, 38189, Note_on_c, 11, 68, 0
13, 38190, Note_on_c, 11, 67, 48
13, 38219, Note_on_c, 11, 67, 0
13, 38220, Note_on_c, 11, 68, 48
13, 38249, Note_on_c, 11, 68, 0
13, 38250, Note_on_c, 11, 70, 48
13, 38275, Note_on_c, 11, 70, 0
13, 38280, Note_on_c, 11, 72, 44
13, 38309, Note_on_c, 11, 72, 0
13, 38310, Note_on_c, 11, 70, 44
13, 38339, Note_on_c, 11, 70, 0
13, 38340, Note_on_c, 11, 68, 44
13, 38369, Note_on_c, 11, 68, 0
13, 38370, Note_on_c, 11, 67, 44
13, 38399, Note_on_c, 11, 67, 0
13, 38400, Note_on_c, 11, 68, 44
13, 38429, Note_on_c, 11, 68, 0
13, 38430, Note_on_c, 11, 70, 44
13, 38459, Note_on_c, 11, 70, 0
13, 38460, Note_on_c, 11, 68, 44
13, 38489, Note_on_c, 11, 68, 0
13, 38490, Note_on_c, 11, 67, 44
13, 38519, Note_on_c, 11, 67, 0
13, 38520, Note_on_c, 11, 68, 44
13, 38549, Note_on_c, 11, 68, 0
13, 38550, Note_on_c, 11, 70, 44
13, 38579, Note_on_c, 11, 70, 0
13, 38580, Note_on_c, 11, 72, 44
13, 38609, Note_on_c, 11, 72, 0
13, 38610, Note_on_c, 11, 68, 44
13, 38635, Note_on_c, 11, 68, 0
13, 38640, Note_on_c, 11, 65, 44
13, 38669, Note_on_c, 11, 65, 0
13, 38670, Note_on_c, 11, 67, 44
13, 38699, Note_on_c, 11, 67, 0
13, 38700, Note_on_c, 11, 65, 44
13, 38729, Note_on_c, 11, 65, 0
13, 38730, Note_on_c, 11, 64, 44
13, 38759, Note_on_c, 11, 64, 0
13, 38760, Note_on_c, 11, 65, 44
13, 38789, Note_on_c, 11, 65, 0
13, 38790, Note_on_c, 11, 69, 44
13, 38819, Note_on_c, 11, 69, 0
13, 38820, Note_on_c, 11, 70, 44
13, 38849, Note_on_c, 11, 70, 0
13, 38850, Note_on_c, 11, 69, 44
13, 38879, Note_on_c, 11, 69, 0
13, 38880, Note_on_c, 11, 70, 44
13, 38909, Note_on_c, 11, 70, 0
13, 38910, Note_on_c, 11, 72, 44
13, 38939, Note_on_c, 11, 72, 0
13, 38940, Note_on_c, 11, 73, 44
13, 38969, Note_on_c, 11, 73, 0
13, 38970, Note_on_c, 11, 72, 44
13, 38995, Note_on_c, 11, 72, 0
13, 39000, Note_on_c, 11, 73, 44
13, 39029, Note_on_c, 11, 73, 0
13, 39030, Note_on_c, 11, 72, 44
13, 39059, Note_on_c, 11, 72, 0
13, 39060, Note_on_c, 11, 73, 44
13, 39089, Note_on_c, 11, 73, 0
13, 39090, Note_on_c, 11, 72, 44
13, 39119, Note_on_c, 11, 72, 0
13, 39120, Note_on_c, 11, 70, 44
13, 39149, Note_on_c, 11, 70, 0
13, 39150, Note_on_c, 11, 73, 44
13, 39179, Note_on_c, 11, 73, 0
13, 39180, Note_on_c, 11, 68, 44
13, 39209, Note_on_c, 11, 68, 0
13, 39210, Note_on_c, 11, 73, 44
13, 39239, Note_on_c, 11, 73, 0
13, 39240, Note_on_c, 11, 67, 44
13, 39269, Note_on_c, 11, 67, 0
13, 39270, Note_on_c, 11, 73, 44
13, 39299, Note_on_c, 11, 73, 0
13, 39300, Note_on_c, 11, 65, 44
13, 39329, Note_on_c, 11, 65, 0
13, 39330, Note_on_c, 11, 73, 44
13, 39355, Note_on_c, 11, 73, 0
13, 39360, Note_on_c, 11, 64, 44
13, 39389, Note_on_c, 11, 64, 0
13, 39390, Note_on_c, 11, 72, 44
13, 39419, Note_on_c, 11, 72, 0
13, 39420, Note_on_c, 11, 67, 44
13, 39449, Note_on_c, 11, 67, 0
13, 39450, Note_on_c, 11, 72, 44
13, 39479, Note_on_c, 11, 72, 0
13, 39480, Note_on_c, 11, 71, 44
13, 39509, Note_on_c, 11, 71, 0
13, 39510, Note_on_c, 11, 72, 44
13, 39539, Note_on_c, 11, 72, 0
13, 39540, Note_on_c, 11, 67, 44
13, 39569, Note_on_c, 11, 67, 0
13, 39570, Note_on_c, 11, 72, 44
13, 39599, Note_on_c, 11, 72, 0
13, 39600, Note_on_c, 11, 70, 44
13, 39629, Note_on_c, 11, 70, 0
13, 39630, Note_on_c, 11, 72, 44
13, 39659, Note_on_c, 11, 72, 0
13, 39660, Note_on_c, 11, 67, 44
13, 39689, Note_on_c, 11, 67, 0
13, 39690, Note_on_c, 11, 72, 44
13, 39715, Note_on_c, 11, 72, 0
13, 39720, Note_on_c, 11, 69, 44
13, 39749, Note_on_c, 11, 69, 0
13, 39750, Note_on_c, 11, 72, 44
13, 39779, Note_on_c, 11, 72, 0
13, 39780, Note_on_c, 11, 65, 44
13, 39809, Note_on_c, 11, 65, 0
13, 39810, Note_on_c, 11, 72, 44
13, 39839, Note_on_c, 11, 72, 0
13, 39840, Note_on_c, 11, 70, 44
13, 39869, Note_on_c, 11, 70, 0
13, 39870, Note_on_c, 11, 73, 44
13, 39899, Note_on_c, 11, 73, 0
13, 39900, Note_on_c, 11, 65, 44
13, 39929, Note_on_c, 11, 65, 0
13, 39930, Note_on_c, 11, 73, 44
13, 39959, Note_on_c, 11, 73, 0
13, 39960, Note_on_c, 11, 70, 44
13, 39989, Note_on_c, 11, 70, 0
13, 39990, Note_on_c, 11, 73, 44
13, 40019, Note_on_c, 11, 73, 0
13, 40020, Note_on_c, 11, 68, 44
13, 40049, Note_on_c, 11, 68, 0
13, 40050, Note_on_c, 11, 73, 44
13, 40075, Note_on_c, 11, 73, 0
13, 40080, Note_on_c, 11, 67, 44
13, 40109, Note_on_c, 11, 67, 0
13, 40110, Note_on_c, 11, 70, 44
13, 40139, Note_on_c, 11, 70, 0
13, 40140, Note_on_c, 11, 63, 44
13, 40169, Note_on_c, 11, 63, 0
13, 40170, Note_on_c, 11, 70, 44
13, 40199, Note_on_c, 11, 70, 0
13, 40200, Note_on_c, 11, 68, 44
13, 40229, Note_on_c, 11, 68, 0
13, 40230, Note_on_c, 11, 72, 44
13, 40259, Note_on_c, 11, 72, 0
13, 40260, Note_on_c, 11, 63, 44
13, 40289, Note_on_c, 11, 63, 0
13, 40290, Note_on_c, 11, 72, 44
13, 40319, Note_on_c, 11, 72, 0
13, 40320, Note_on_c, 11, 68, 44
13, 40349, Note_on_c, 11, 68, 0
13, 40350, Note_on_c, 11, 72, 44
13, 40379, Note_on_c, 11, 72, 0
13, 40380, Note_on_c, 11, 63, 44
13, 40409, Note_on_c, 11, 63, 0
13, 40410, Note_on_c, 11, 72, 44
13, 40435, Note_on_c, 11, 72, 0
13, 40440, Note_on_c, 11, 67, 44
13, 40469, Note_on_c, 11, 67, 0
13, 40470, Note_on_c, 11, 75, 44
13, 40499, Note_on_c, 11, 75, 0
13, 40500, Note_on_c, 11, 70, 44
13, 40529, Note_on_c, 11, 70, 0
13, 40530, Note_on_c, 11, 75, 44
13, 40559, Note_on_c, 11, 75, 0
13, 40560, Note_on_c, 11, 67, 44
13, 40589, Note_on_c, 11, 67, 0
13, 40590, Note_on_c, 11, 75, 44
13, 40619, Note_on_c, 11, 75, 0
13, 40620, Note_on_c, 11, 70, 44
13, 40649, Note_on_c, 11, 70, 0
13, 40650, Note_on_c, 11, 75, 44
13, 40679, Note_on_c, 11, 75, 0
13, 40680, Note_on_c, 11, 67, 44
13, 40709, Note_on_c, 11, 67, 0
13, 40710, Note_on_c, 11, 75, 44
13, 40739, Note_on_c, 11, 75, 0
13, 40740, Note_on_c, 11, 70, 44
13, 40769, Note_on_c, 11, 70, 0
13, 40770, Note_on_c, 11, 75, 44
13, 40795, Note_on_c, 11, 75, 0
13, 40800, Note_on_c, 11, 72, 44
13, 40855, Note_on_c, 11, 72, 0
13, 40860, Note_on_c, 11, 84, 76
13, 40860, Note_on_c, 11, 75, 76
13, 40915, Note_on_c, 11, 84, 0
13, 40915, Note_on_c, 11, 75, 0
13, 40920, Note_on_c, 11, 75, 76
13, 40920, Note_on_c, 11, 84, 76
13, 40975, Note_on_c, 11, 75, 0
13, 40975, Note_on_c, 11, 84, 0
13, 40980, Note_on_c, 11, 75, 76
13, 40980, Note_on_c, 11, 84, 76
13, 41035, Note_on_c, 11, 75, 0
13, 41035, Note_on_c, 11, 84, 0
13, 41040, Note_on_c, 11, 84, 76
13, 41040, Note_on_c, 11, 75, 76
13, 41095, Note_on_c, 11, 84, 0
13, 41095, Note_on_c, 11, 75, 0
13, 41100, Note_on_c, 11, 84, 76
13, 41100, Note_on_c, 11, 75, 76
13, 41155, Note_on_c, 11, 84, 0
13, 41155, Note_on_c, 11, 75, 0
13, 41160, Note_on_c, 11, 84, 76
13, 41160, Note_on_c, 11, 75, 76
13, 41215, Note_on_c, 11, 84, 0
13, 41215, Note_on_c, 11, 75, 0
13, 41220, Note_on_c, 11, 75, 76
13, 41220, Note_on_c, 11, 84, 76
13, 41275, Note_on_c, 11, 75, 0
13, 41275, Note_on_c, 11, 84, 0
13, 41280, Note_on_c, 11, 75, 76
13, 41280, Note_on_c, 11, 84, 76
13, 41335, Note_on_c, 11, 75, 0
13, 41335, Note_on_c, 11, 84, 0
13, 41340, Note_on_c, 11, 75, 76
13, 41340, Note_on_c, 11, 84, 76
13, 41395, Note_on_c, 11, 75, 0
13, 41395, Note_on_c, 11, 84, 0
13, 41400, Note_on_c, 11, 84, 76
13, 41400, Note_on_c, 11, 75, 76
13, 41455, Note_on_c, 11, 84, 0
13, 41455, Note_on_c, 11, 75, 0
13, 41460, Note_on_c, 11, 84, 76
13, 41460, Note_on_c, 11, 75, 76
13, 41515, Note_on_c, 11, 84, 0
13, 41515, Note_on_c, 11, 75, 0
13, 41520, Note_on_c, 11, 84, 76
13, 41520, Note_on_c, 11, 75, 76
13, 41575, Note_on_c, 11, 84, 0
13, 41575, Note_on_c, 11, 75, 0
13, 41580, Note_on_c, 11, 84, 76
13, 41580, Note_on_c, 11, 75, 76
13, 41635, Note_on_c, 11, 84, 0
13, 41635, Note_on_c, 11, 75, 0
13, 41640, Note_on_c, 11, 82, 76
13, 41695, Note_on_c, 11, 82, 0
13, 41700, Note_on_c, 11, 82, 76
13, 41755, Note_on_c, 11, 82, 0
13, 41760, Note_on_c, 11, 82, 76
13, 41815, Note_on_c, 11, 82, 0
13, 41820, Note_on_c, 11, 82, 76
13, 41875, Note_on_c, 11, 82, 0
13, 41880, Note_on_c, 11, 82, 76
13, 41935, Note_on_c, 11, 82, 0
13, 41940, Note_on_c, 11, 82, 76
13, 41995, Note_on_c, 11, 82, 0
13, 42000, Note_on_c, 11, 82, 76
13, 42055, Note_on_c, 11, 82, 0
13, 42060, Note_on_c, 11, 82, 76
13, 42115, Note_on_c, 11, 82, 0
13, 42120, Note_on_c, 11, 83, 76
13, 42175, Note_on_c, 11, 83, 0
13, 42180, Note_on_c, 11, 83, 76
13, 42235, Note_on_c, 11, 83, 0
13, 42240, Note_on_c, 11, 84, 76
13, 42295, Note_on_c, 11, 84, 0
13, 42300, Note_on_c, 11, 84, 76
13, 42355, Note_on_c, 11, 84, 0
13, 42360, Note_on_c, 11, 84, 76
13, 42415, Note_on_c, 11, 84, 0
13, 42420, Note_on_c, 11, 84, 76
13, 42475, Note_on_c, 11, 84, 0
13, 42480, Note_on_c, 11, 84, 76
13, 42535, Note_on_c, 11, 84, 0
13, 42540, Note_on_c, 11, 84, 76
13, 42595, Note_on_c, 11, 84, 0
13, 42600, Note_on_c, 11, 84, 76
13, 42655, Note_on_c, 11, 84, 0
13, 42660, Note_on_c, 11, 84, 76
13, 42715, Note_on_c, 11, 84, 0
13, 42720, Note_on_c, 11, 84, 76
13, 42775, Note_on_c, 11, 84, 0
13, 42780, Note_on_c, 11, 84, 76
13, 42835, Note_on_c, 11, 84, 0
13, 42840, Note_on_c, 11, 82, 76
13, 42895, Note_on_c, 11, 82, 0
13, 42900, Note_on_c, 11, 82, 76
13, 42955, Note_on_c, 11, 82, 0
13, 42960, Note_on_c, 11, 82, 76
13, 43015, Note_on_c, 11, 82, 0
13, 43020, Note_on_c, 11, 82, 76
13, 43075, Note_on_c, 11, 82, 0
13, 43080, Note_on_c, 11, 82, 76
13, 43135, Note_on_c, 11, 82, 0
13, 43140, Note_on_c, 11, 82, 76
13, 43195, Note_on_c, 11, 82, 0
13, 43200, Note_on_c, 11, 80, 76
13, 43255, Note_on_c, 11, 80, 0
13, 43260, Note_on_c, 11, 80, 76
13, 43315, Note_on_c, 11, 80, 0
13, 43320, Note_on_c, 11, 79, 76
13, 43320, Note_on_c, 11, 70, 76
13, 43320, Note_on_c, 11, 63, 76
13, 43439, Note_on_c, 11, 79, 0
13, 43439, Note_on_c, 11, 70, 0
13, 43439, Note_on_c, 11, 63, 0
13, 43440, Note_on_c, 11, 79, 76
13, 43465, Note_on_c, 11, 79, 0
13, 43470, Note_on_c, 11, 63, 76
13, 43499, Note_on_c, 11, 63, 0
13, 43500, Note_on_c, 11, 65, 76
13, 43529, Note_on_c, 11, 65, 0
13, 43530, Note_on_c, 11, 67, 76
13, 43559, Note_on_c, 11, 67, 0
13, 43560, Note_on_c, 11, 68, 76
13, 43589, Note_on_c, 11, 68, 0
13, 43590, Note_on_c, 11, 70, 76
13, 43619, Note_on_c, 11, 70, 0
13, 43620, Note_on_c, 11, 72, 76
13, 43649, Note_on_c, 11, 72, 0
13, 43650, Note_on_c, 11, 74, 76
13, 43675, Note_on_c, 11, 74, 0
13, 43680, Note_on_c, 11, 75, 76
13, 43859, Note_on_c, 11, 75, 0
13, 43860, Note_on_c, 11, 77, 76
13, 43889, Note_on_c, 11, 77, 0
13, 43890, Note_on_c, 11, 79, 76
13, 43919, Note_on_c, 11, 79, 0
13, 43920, Note_on_c, 11, 80, 76
13, 43949, Note_on_c, 11, 80, 0
13, 43950, Note_on_c, 11, 82, 76
13, 43979, Note_on_c, 11, 82, 0
13, 43980, Note_on_c, 11, 84, 76
13, 44009, Note_on_c, 11, 84, 0
13, 44010, Note_on_c, 11, 86, 76
13, 44035, Note_on_c, 11, 86, 0
13, 44040, Note_on_c, 11, 87, 76
13, 44264, Note_on_c, 11, 87, 0
13, 44280, Note_on_c, 11, 61, 44
13, 44391, Note_on_c, 11, 61, 0
13, 44400, Note_on_c, 11, 61, 44
13, 44519, Note_on_c, 11, 61, 0
13, 44640, Note_on_c, 11, 61, 44
13, 44751, Note_on_c, 11, 61, 0
13, 44760, Note_on_c, 11, 61, 44
13, 44879, Note_on_c, 11, 61, 0
13, 45000, Note_on_c, 11, 61, 44
13, 45111, Note_on_c, 11, 61, 0
13, 45120, Note_on_c, 11, 61, 44
13, 45239, Note_on_c, 11, 61, 0
13, 45360, Note_on_c, 11, 61, 44
13, 45471, Note_on_c, 11, 61, 0
13, 45480, Note_on_c, 11, 61, 44
13, 45599, Note_on_c, 11, 61, 0
13, 45720, Note_on_c, 11, 61, 44
13, 45831, Note_on_c, 11, 61, 0
13, 45840, Note_on_c, 11, 61, 44
13, 45959, Note_on_c, 11, 61, 0
13, 46080, Note_on_c, 11, 61, 44
13, 46191, Note_on_c, 11, 61, 0
13, 46200, Note_on_c, 11, 61, 44
13, 46319, Note_on_c, 11, 61, 0
13, 46440, Note_on_c, 11, 60, 44
13, 46551, Note_on_c, 11, 60, 0
13, 46560, Note_on_c, 11, 60, 44
13, 46679, Note_on_c, 11, 60, 0
13, 46800, Note_on_c, 11, 60, 44
13, 46911, Note_on_c, 11, 60, 0
13, 46920, Note_on_c, 11, 60, 44
13, 47039, Note_on_c, 11, 60, 0
13, 47160, Note_on_c, 11, 56, 44
13, 47160, Note_on_c, 11, 65, 44
13, 47271, Note_on_c, 11, 56, 0
13, 47271, Note_on_c, 11, 65, 0
13, 47280, Note_on_c, 11, 65, 76
13, 47280, Note_on_c, 11, 56, 76
13, 47399, Note_on_c, 11, 65, 0
13, 47399, Note_on_c, 11, 56, 0
13, 51540, Note_on_c, 11, 73, 52
13, 51584, Note_on_c, 11, 73, 0
13, 51600, Note_on_c, 11, 72, 52
13, 51644, Note_on_c, 11, 72, 0
13, 51660, Note_on_c, 11, 70, 52
13, 51704, Note_on_c, 11, 70, 0
13, 51720, Note_on_c, 11, 68, 52
13, 51764, Note_on_c, 11, 68, 0
13, 52920, Note_on_c, 11, 64, 84
13, 53005, Note_on_c, 11, 64, 0
13, 53010, Note_on_c, 11, 67, 84
13, 53035, Note_on_c, 11, 67, 0
13, 53040, Note_on_c, 11, 72, 84
13, 53040, Note_on_c, 11, 64, 84
13, 53040, Note_on_c, 11, 55, 84
13, 53151, Note_on_c, 11, 72, 0
13, 53151, Note_on_c, 11, 64, 0
13, 53151, Note_on_c, 11, 55, 0
13, 53160, Note_on_c, 11, 64, 84
13, 53160, Note_on_c, 11, 55, 84
13, 53160, Note_on_c, 11, 72, 84
13, 53271, Note_on_c, 11, 64, 0
13, 53271, Note_on_c, 11, 55, 0
13, 53271, Note_on_c, 11, 72, 0
13, 53280, Note_on_c, 11, 59, 84
13, 53280, Note_on_c, 11, 67, 84
13, 53280, Note_on_c, 11, 74, 84
13, 53391, Note_on_c, 11, 59, 0
13, 53391, Note_on_c, 11, 67, 0
13, 53391, Note_on_c, 11, 74, 0
13, 53400, Note_on_c, 11, 67, 84
13, 53400, Note_on_c, 11, 76, 84
13, 53400, Note_on_c, 11, 60, 84
13, 53639, Note_on_c, 11, 67, 0
13, 53639, Note_on_c, 11, 60, 0
13, 53991, Note_on_c, 11, 76, 0
13, 54000, Note_on_c, 11, 72, 84
13, 54085, Note_on_c, 11, 72, 0
13, 54090, Note_on_c, 11, 74, 84
13, 54115, Note_on_c, 11, 74, 0
13, 54120, Note_on_c, 11, 76, 84
13, 54120, Note_on_c, 11, 64, 84
13, 54120, Note_on_c, 11, 72, 84
13, 54231, Note_on_c, 11, 76, 0
13, 54231, Note_on_c, 11, 64, 0
13, 54231, Note_on_c, 11, 72, 0
13, 54240, Note_on_c, 11, 72, 84
13, 54240, Note_on_c, 11, 64, 84
13, 54240, Note_on_c, 11, 76, 84
13, 54351, Note_on_c, 11, 72, 0
13, 54351, Note_on_c, 11, 64, 0
13, 54351, Note_on_c, 11, 76, 0
13, 54360, Note_on_c, 11, 77, 84
13, 54360, Note_on_c, 11, 72, 84
13, 54360, Note_on_c, 11, 65, 84
13, 54471, Note_on_c, 11, 77, 0
13, 54471, Note_on_c, 11, 72, 0
13, 54471, Note_on_c, 11, 65, 0
13, 54480, Note_on_c, 11, 72, 84
13, 54480, Note_on_c, 11, 79, 84
13, 54480, Note_on_c, 11, 64, 84
13, 54719, Note_on_c, 11, 72, 0
13, 54719, Note_on_c, 11, 64, 0
13, 55071, Note_on_c, 11, 79, 0
13, 55080, Note_on_c, 11, 76, 84
13, 55165, Note_on_c, 11, 76, 0
13, 55170, Note_on_c, 11, 77, 84
13, 55195, Note_on_c, 11, 77, 0
13, 55200, Note_on_c, 11, 64, 84
13, 55200, Note_on_c, 11, 79, 84
13, 55200, Note_on_c, 11, 72, 84
13, 55431, Note_on_c, 11, 64, 0
13, 55431, Note_on_c, 11, 79, 0
13, 55431, Note_on_c, 11, 72, 0
13, 55440, Note_on_c, 11, 76, 84
13, 55525, Note_on_c, 11, 76, 0
13, 55530, Note_on_c, 11, 77, 84
13, 55555, Note_on_c, 11, 77, 0
13, 55560, Note_on_c, 11, 64, 84
13, 55560, Note_on_c, 11, 72, 84
13, 55560, Note_on_c, 11, 79, 84
13, 55791, Note_on_c, 11, 64, 0
13, 55791, Note_on_c, 11, 72, 0
13, 55791, Note_on_c, 11, 79, 0
13, 55800, Note_on_c, 11, 76, 84
13, 55885, Note_on_c, 11, 76, 0
13, 55890, Note_on_c, 11, 77, 84
13, 55915, Note_on_c, 11, 77, 0
13, 55920, Note_on_c, 11, 64, 84
13, 55920, Note_on_c, 11, 72, 84
13, 55920, Note_on_c, 11, 79, 84
13, 56159, Note_on_c, 11, 64, 0
13, 56159, Note_on_c, 11, 72, 0
13, 56159, Note_on_c, 11, 79, 0
13, 56520, Note_on_c, 11, 60, 52
13, 56609, Note_on_c, 11, 60, 0
13, 56610, Note_on_c, 11, 64, 52
13, 56639, Note_on_c, 11, 64, 0
13, 56640, Note_on_c, 11, 67, 52
13, 56729, Note_on_c, 11, 67, 0
13, 56880, Note_on_c, 11, 60, 52
13, 56969, Note_on_c, 11, 60, 0
13, 56970, Note_on_c, 11, 65, 52
13, 56999, Note_on_c, 11, 65, 0
13, 57000, Note_on_c, 11, 68, 52
13, 57089, Note_on_c, 11, 68, 0
13, 57240, Note_on_c, 11, 63, 52
13, 57329, Note_on_c, 11, 63, 0
13, 57330, Note_on_c, 11, 67, 52
13, 57355, Note_on_c, 11, 67, 0
13, 57360, Note_on_c, 11, 70, 52
13, 57389, Note_on_c, 11, 70, 0
13, 57400, Note_on_c, 11, 63, 52
13, 57429, Note_on_c, 11, 63, 0
13, 57440, Note_on_c, 11, 67, 52
13, 57469, Note_on_c, 11, 67, 0
13, 57480, Note_on_c, 11, 70, 52
13, 57509, Note_on_c, 11, 70, 0
13, 57520, Note_on_c, 11, 63, 52
13, 57549, Note_on_c, 11, 63, 0
13, 57560, Note_on_c, 11, 67, 52
13, 57589, Note_on_c, 11, 67, 0
13, 57600, Note_on_c, 11, 70, 52
13, 57629, Note_on_c, 11, 70, 0
13, 57640, Note_on_c, 11, 63, 52
13, 57669, Note_on_c, 11, 63, 0
13, 57680, Note_on_c, 11, 67, 52
13, 57709, Note_on_c, 11, 67, 0
13, 57720, Note_on_c, 11, 70, 48
13, 57749, Note_on_c, 11, 70, 0
13, 57760, Note_on_c, 11, 63, 48
13, 57789, Note_on_c, 11, 63, 0
13, 57800, Note_on_c, 11, 67, 48
13, 57829, Note_on_c, 11, 67, 0
13, 57840, Note_on_c, 11, 70, 48
13, 57869, Note_on_c, 11, 70, 0
13, 57880, Note_on_c, 11, 63, 48
13, 57909, Note_on_c, 11, 63, 0
13, 57920, Note_on_c, 11, 67, 48
13, 57949, Note_on_c, 11, 67, 0
13, 57960, Note_on_c, 11, 70, 48
13, 57989, Note_on_c, 11, 70, 0
13, 58000, Note_on_c, 11, 63, 48
13, 58029, Note_on_c, 11, 63, 0
13, 58040, Note_on_c, 11, 67, 48
13, 58069, Note_on_c, 11, 67, 0
13, 58080, Note_on_c, 11, 70, 44
13, 58109, Note_on_c, 11, 70, 0
13, 58110, Note_on_c, 11, 67, 44
13, 58139, Note_on_c, 11, 67, 0
13, 58140, Note_on_c, 11, 63, 44
13, 58169, Note_on_c, 11, 63, 0
13, 58170, Note_on_c, 11, 67, 44
13, 58195, Note_on_c, 11, 67, 0
13, 58200, Note_on_c, 11, 70, 44
13, 58229, Note_on_c, 11, 70, 0
13, 58230, Note_on_c, 11, 67, 44
13, 58259, Note_on_c, 11, 67, 0
13, 58260, Note_on_c, 11, 63, 44
13, 58289, Note_on_c, 11, 63, 0
13, 58290, Note_on_c, 11, 67, 44
13, 58315, Note_on_c, 11, 67, 0
13, 58320, Note_on_c, 11, 70, 44
13, 58349, Note_on_c, 11, 70, 0
13, 58350, Note_on_c, 11, 67, 44
13, 58379, Note_on_c, 11, 67, 0
13, 58380, Note_on_c, 11, 63, 44
13, 58409, Note_on_c, 11, 63, 0
13, 58410, Note_on_c, 11, 67, 44
13, 58435, Note_on_c, 11, 67, 0
13, 58440, Note_on_c, 11, 70, 44
13, 58559, Note_on_c, 11, 70, 0
13, 58800, Note_on_c, 11, 70, 44
13, 58829, Note_on_c, 11, 70, 0
13, 58830, Note_on_c, 11, 67, 44
13, 58859, Note_on_c, 11, 67, 0
13, 58860, Note_on_c, 11, 63, 44
13, 58889, Note_on_c, 11, 63, 0
13, 58890, Note_on_c, 11, 67, 44
13, 58919, Note_on_c, 11, 67, 0
13, 58920, Note_on_c, 11, 70, 44
13, 58949, Note_on_c, 11, 70, 0
13, 58950, Note_on_c, 11, 67, 44
13, 58979, Note_on_c, 11, 67, 0
13, 58980, Note_on_c, 11, 63, 44
13, 59009, Note_on_c, 11, 63, 0
13, 59010, Note_on_c, 11, 67, 44
13, 59039, Note_on_c, 11, 67, 0
13, 59040, Note_on_c, 11, 70, 44
13, 59069, Note_on_c, 11, 70, 0
13, 59070, Note_on_c, 11, 67, 44
13, 59099, Note_on_c, 11, 67, 0
13, 59100, Note_on_c, 11, 63, 44
13, 59129, Note_on_c, 11, 63, 0
13, 59130, Note_on_c, 11, 67, 44
13, 59159, Note_on_c, 11, 67, 0
13, 59160, Note_on_c, 11, 70, 44
13, 59189, Note_on_c, 11, 70, 0
13, 59190, Note_on_c, 11, 67, 44
13, 59219, Note_on_c, 11, 67, 0
13, 59220, Note_on_c, 11, 63, 44
13, 59249, Note_on_c, 11, 63, 0
13, 59250, Note_on_c, 11, 67, 44
13, 59279, Note_on_c, 11, 67, 0
13, 59280, Note_on_c, 11, 70, 44
13, 59309, Note_on_c, 11, 70, 0
13, 59310, Note_on_c, 11, 67, 44
13, 59339, Note_on_c, 11, 67, 0
13, 59340, Note_on_c, 11, 63, 44
13, 59369, Note_on_c, 11, 63, 0
13, 59370, Note_on_c, 11, 67, 44
13, 59399, Note_on_c, 11, 67, 0
13, 59400, Note_on_c, 11, 70, 44
13, 59429, Note_on_c, 11, 70, 0
13, 59430, Note_on_c, 11, 67, 44
13, 59459, Note_on_c, 11, 67, 0
13, 59460, Note_on_c, 11, 63, 44
13, 59489, Note_on_c, 11, 63, 0
13, 59490, Note_on_c, 11, 67, 44
13, 59515, Note_on_c, 11, 67, 0
13, 59520, Note_on_c, 11, 70, 44
13, 59549, Note_on_c, 11, 70, 0
13, 59550, Note_on_c, 11, 67, 44
13, 59579, Note_on_c, 11, 67, 0
13, 59580, Note_on_c, 11, 63, 44
13, 59609, Note_on_c, 11, 63, 0
13, 59610, Note_on_c, 11, 67, 44
13, 59639, Note_on_c, 11, 67, 0
13, 59640, Note_on_c, 11, 70, 44
13, 59669, Note_on_c, 11, 70, 0
13, 59670, Note_on_c, 11, 67, 44
13, 59699, Note_on_c, 11, 67, 0
13, 59700, Note_on_c, 11, 63, 44
13, 59729, Note_on_c, 11, 63, 0
13, 59730, Note_on_c, 11, 67, 44
13, 59759, Note_on_c, 11, 67, 0
13, 59760, Note_on_c, 11, 71, 44
13, 59789, Note_on_c, 11, 71, 0
13, 59790, Note_on_c, 11, 68, 44
13, 59819, Note_on_c, 11, 68, 0
13, 59820, Note_on_c, 11, 63, 44
13, 59849, Note_on_c, 11, 63, 0
13, 59850, Note_on_c, 11, 68, 44
13, 59875, Note_on_c, 11, 68, 0
13, 59880, Note_on_c, 11, 71, 44
13, 59909, Note_on_c, 11, 71, 0
13, 59910, Note_on_c, 11, 68, 44
13, 59939, Note_on_c, 11, 68, 0
13, 59940, Note_on_c, 11, 63, 44
13, 59969, Note_on_c, 11, 63, 0
13, 59970, Note_on_c, 11, 68, 44
13, 59999, Note_on_c, 11, 68, 0
13, 60000, Note_on_c, 11, 71, 44
13, 60029, Note_on_c, 11, 71, 0
13, 60030, Note_on_c, 11, 68, 44
13, 60059, Note_on_c, 11, 68, 0
13, 60060, Note_on_c, 11, 63, 44
13, 60089, Note_on_c, 11, 63, 0
13, 60090, Note_on_c, 11, 68, 44
13, 60119, Note_on_c, 11, 68, 0
13, 60120, Note_on_c, 11, 71, 44
13, 60149, Note_on_c, 11, 71, 0
13, 60150, Note_on_c, 11, 68, 44
13, 60179, Note_on_c, 11, 68, 0
13, 60180, Note_on_c, 11, 63, 44
13, 60209, Note_on_c, 11, 63, 0
13, 60210, Note_on_c, 11, 68, 44
13, 60235, Note_on_c, 11, 68, 0
13, 60240, Note_on_c, 11, 70, 44
13, 60269, Note_on_c, 11, 70, 0
13, 60270, Note_on_c, 11, 67, 44
13, 60299, Note_on_c, 11, 67, 0
13, 60300, Note_on_c, 11, 63, 44
13, 60329, Note_on_c, 11, 63, 0
13, 60330, Note_on_c, 11, 67, 44
13, 60359, Note_on_c, 11, 67, 0
13, 60360, Note_on_c, 11, 70, 44
13, 60389, Note_on_c, 11, 70, 0
13, 60390, Note_on_c, 11, 67, 44
13, 60419, Note_on_c, 11, 67, 0
13, 60420, Note_on_c, 11, 63, 44
13, 60449, Note_on_c, 11, 63, 0
13, 60450, Note_on_c, 11, 67, 44
13, 60479, Note_on_c, 11, 67, 0
13, 60480, Note_on_c, 11, 70, 44
13, 60509, Note_on_c, 11, 70, 0
13, 60510, Note_on_c, 11, 67, 44
13, 60539, Note_on_c, 11, 67, 0
13, 60540, Note_on_c, 11, 63, 44
13, 60569, Note_on_c, 11, 63, 0
13, 60570, Note_on_c, 11, 67, 44
13, 60595, Note_on_c, 11, 67, 0
13, 60600, Note_on_c, 11, 71, 44
13, 60629, Note_on_c, 11, 71, 0
13, 60630, Note_on_c, 11, 68, 44
13, 60659, Note_on_c, 11, 68, 0
13, 60660, Note_on_c, 11, 63, 44
13, 60689, Note_on_c, 11, 63, 0
13, 60690, Note_on_c, 11, 68, 44
13, 60719, Note_on_c, 11, 68, 0
13, 60720, Note_on_c, 11, 71, 44
13, 60749, Note_on_c, 11, 71, 0
13, 60750, Note_on_c, 11, 68, 44
13, 60779, Note_on_c, 11, 68, 0
13, 60780, Note_on_c, 11, 63, 44
13, 60809, Note_on_c, 11, 63, 0
13, 60810, Note_on_c, 11, 68, 44
13, 60839, Note_on_c, 11, 68, 0
13, 60840, Note_on_c, 11, 71, 44
13, 60869, Note_on_c, 11, 71, 0
13, 60870, Note_on_c, 11, 68, 44
13, 60899, Note_on_c, 11, 68, 0
13, 60900, Note_on_c, 11, 63, 44
13, 60929, Note_on_c, 11, 63, 0
13, 60930, Note_on_c, 11, 72, 44
13, 60955, Note_on_c, 11, 72, 0
13, 60960, Note_on_c, 11, 73, 44
13, 60989, Note_on_c, 11, 73, 0
13, 60990, Note_on_c, 11, 70, 44
13, 61019, Note_on_c, 11, 70, 0
13, 61020, Note_on_c, 11, 66, 44
13, 61049, Note_on_c, 11, 66, 0
13, 61050, Note_on_c, 11, 70, 44
13, 61079, Note_on_c, 11, 70, 0
13, 61080, Note_on_c, 11, 73, 44
13, 61109, Note_on_c, 11, 73, 0
13, 61110, Note_on_c, 11, 70, 44
13, 61139, Note_on_c, 11, 70, 0
13, 61140, Note_on_c, 11, 66, 44
13, 61169, Note_on_c, 11, 66, 0
13, 61170, Note_on_c, 11, 70, 44
13, 61199, Note_on_c, 11, 70, 0
13, 61200, Note_on_c, 11, 73, 44
13, 61229, Note_on_c, 11, 73, 0
13, 61230, Note_on_c, 11, 70, 44
13, 61259, Note_on_c, 11, 70, 0
13, 61260, Note_on_c, 11, 66, 44
13, 61289, Note_on_c, 11, 66, 0
13, 61290, Note_on_c, 11, 70, 44
13, 61315, Note_on_c, 11, 70, 0
13, 61320, Note_on_c, 11, 75, 44
13, 61349, Note_on_c, 11, 75, 0
13, 61350, Note_on_c, 11, 71, 44
13, 61379, Note_on_c, 11, 71, 0
13, 61380, Note_on_c, 11, 66, 44
13, 61409, Note_on_c, 11, 66, 0
13, 61410, Note_on_c, 11, 71, 44
13, 61439, Note_on_c, 11, 71, 0
13, 61440, Note_on_c, 11, 75, 44
13, 61469, Note_on_c, 11, 75, 0
13, 61470, Note_on_c, 11, 71, 44
13, 61499, Note_on_c, 11, 71, 0
13, 61500, Note_on_c, 11, 66, 44
13, 61529, Note_on_c, 11, 66, 0
13, 61530, Note_on_c, 11, 71, 44
13, 61559, Note_on_c, 11, 71, 0
13, 61560, Note_on_c, 11, 75, 44
13, 61589, Note_on_c, 11, 75, 0
13, 61590, Note_on_c, 11, 71, 44
13, 61619, Note_on_c, 11, 71, 0
13, 61620, Note_on_c, 11, 66, 44
13, 61649, Note_on_c, 11, 66, 0
13, 61650, Note_on_c, 11, 75, 44
13, 61675, Note_on_c, 11, 75, 0
13, 61680, Note_on_c, 11, 73, 44
13, 61709, Note_on_c, 11, 73, 0
13, 61710, Note_on_c, 11, 70, 44
13, 61739, Note_on_c, 11, 70, 0
13, 61740, Note_on_c, 11, 66, 44
13, 61769, Note_on_c, 11, 66, 0
13, 61770, Note_on_c, 11, 70, 44
13, 61799, Note_on_c, 11, 70, 0
13, 61800, Note_on_c, 11, 73, 44
13, 61829, Note_on_c, 11, 73, 0
13, 61830, Note_on_c, 11, 70, 44
13, 61859, Note_on_c, 11, 70, 0
13, 61860, Note_on_c, 11, 66, 44
13, 61889, Note_on_c, 11, 66, 0
13, 61890, Note_on_c, 11, 70, 44
13, 61919, Note_on_c, 11, 70, 0
13, 61920, Note_on_c, 11, 73, 44
13, 61949, Note_on_c, 11, 73, 0
13, 61950, Note_on_c, 11, 70, 44
13, 61979, Note_on_c, 11, 70, 0
13, 61980, Note_on_c, 11, 66, 44
13, 62009, Note_on_c, 11, 66, 0
13, 62010, Note_on_c, 11, 73, 44
13, 62035, Note_on_c, 11, 73, 0
13, 62040, Note_on_c, 11, 71, 44
13, 62069, Note_on_c, 11, 71, 0
13, 62070, Note_on_c, 11, 68, 44
13, 62099, Note_on_c, 11, 68, 0
13, 62100, Note_on_c, 11, 63, 44
13, 62129, Note_on_c, 11, 63, 0
13, 62130, Note_on_c, 11, 68, 44
13, 62159, Note_on_c, 11, 68, 0
13, 62160, Note_on_c, 11, 71, 44
13, 62189, Note_on_c, 11, 71, 0
13, 62190, Note_on_c, 11, 68, 44
13, 62219, Note_on_c, 11, 68, 0
13, 62220, Note_on_c, 11, 63, 44
13, 62249, Note_on_c, 11, 63, 0
13, 62250, Note_on_c, 11, 68, 44
13, 62279, Note_on_c, 11, 68, 0
13, 62280, Note_on_c, 11, 71, 44
13, 62309, Note_on_c, 11, 71, 0
13, 62310, Note_on_c, 11, 68, 44
13, 62339, Note_on_c, 11, 68, 0
13, 62340, Note_on_c, 11, 63, 44
13, 62369, Note_on_c, 11, 63, 0
13, 62370, Note_on_c, 11, 72, 44
13, 62395, Note_on_c, 11, 72, 0
13, 62400, Note_on_c, 11, 70, 44
13, 62429, Note_on_c, 11, 70, 0
13, 62430, Note_on_c, 11, 67, 45
13, 62459, Note_on_c, 11, 67, 0
13, 62460, Note_on_c, 11, 63, 46
13, 62489, Note_on_c, 11, 63, 0
13, 62490, Note_on_c, 11, 67, 48
13, 62519, Note_on_c, 11, 67, 0
13, 62520, Note_on_c, 11, 70, 49
13, 62549, Note_on_c, 11, 70, 0
13, 62550, Note_on_c, 11, 63, 50
13, 62579, Note_on_c, 11, 63, 0
13, 62580, Note_on_c, 11, 71, 52
13, 62609, Note_on_c, 11, 71, 0
13, 62610, Note_on_c, 11, 63, 53
13, 62639, Note_on_c, 11, 63, 0
13, 62640, Note_on_c, 11, 68, 54
13, 62669, Note_on_c, 11, 68, 0
13, 62670, Note_on_c, 11, 63, 56
13, 62699, Note_on_c, 11, 63, 0
13, 62700, Note_on_c, 11, 71, 57
13, 62729, Note_on_c, 11, 71, 0
13, 62730, Note_on_c, 11, 63, 58
13, 62755, Note_on_c, 11, 63, 0
13, 62760, Note_on_c, 11, 70, 60
13, 62789, Note_on_c, 11, 70, 0
13, 62790, Note_on_c, 11, 67, 61
13, 62819, Note_on_c, 11, 67, 0
13, 62820, Note_on_c, 11, 63, 62
13, 62849, Note_on_c, 11, 63, 0
13, 62850, Note_on_c, 11, 67, 64
13, 62879, Note_on_c, 11, 67, 0
13, 62880, Note_on_c, 11, 70, 65
13, 62909, Note_on_c, 11, 70, 0
13, 62910, Note_on_c, 11, 63, 66
13, 62939, Note_on_c, 11, 63, 0
13, 62940, Note_on_c, 11, 71, 68
13, 62969, Note_on_c, 11, 71, 0
13, 62970, Note_on_c, 11, 63, 69
13, 62999, Note_on_c, 11, 63, 0
13, 63000, Note_on_c, 11, 68, 70
13, 63029, Note_on_c, 11, 68, 0
13, 63030, Note_on_c, 11, 63, 72
13, 63059, Note_on_c, 11, 63, 0
13, 63060, Note_on_c, 11, 71, 73
13, 63089, Note_on_c, 11, 71, 0
13, 63090, Note_on_c, 11, 63, 74
13, 63115, Note_on_c, 11, 63, 0
13, 63120, Note_on_c, 11, 70, 76
13, 63164, Note_on_c, 11, 70, 0
13, 63180, Note_on_c, 11, 75, 76
13, 63180, Note_on_c, 11, 63, 76
13, 63224, Note_on_c, 11, 75, 0
13, 63224, Note_on_c, 11, 63, 0
13, 64320, Note_on_c, 11, 72, 48
13, 64379, Note_on_c, 11, 72, 0
13, 64380, Note_on_c, 11, 73, 48
13, 64439, Note_on_c, 11, 73, 0
13, 64440, Note_on_c, 11, 75, 48
13, 64499, Note_on_c, 11, 75, 0
13, 64500, Note_on_c, 11, 77, 48
13, 64555, Note_on_c, 11, 77, 0
13, 64560, Note_on_c, 11, 69, 48
13, 64619, Note_on_c, 11, 69, 0
13, 64620, Note_on_c, 11, 70, 48
13, 64679, Note_on_c, 11, 70, 0
13, 64680, Note_on_c, 11, 72, 48
13, 64739, Note_on_c, 11, 72, 0
13, 64740, Note_on_c, 11, 73, 48
13, 64799, Note_on_c, 11, 73, 0
13, 65904, Control_c, 11, 11, 102
13, 65910, Note_on_c, 11, 75, 84
13, 65923, Control_c, 11, 11, 103
13, 65939, Note_on_c, 11, 75, 0
13, 65940, Note_on_c, 11, 77, 84
13, 65941, Control_c, 11, 11, 104
13, 65959, Control_c, 11, 11, 105
13, 65969, Note_on_c, 11, 77, 0
13, 65970, Note_on_c, 11, 79, 84
13, 65977, Control_c, 11, 11, 106
13, 65995, Control_c, 11, 11, 107
13, 65999, Note_on_c, 11, 79, 0
13, 66000, Note_on_c, 11, 80, 84
13, 66014, Control_c, 11, 11, 108
13, 66029, Note_on_c, 11, 80, 0
13, 66030, Note_on_c, 11, 82, 84
13, 66032, Control_c, 11, 11, 109
13, 66050, Control_c, 11, 11, 110
13, 66059, Note_on_c, 11, 82, 0
13, 66060, Note_on_c, 11, 84, 84
13, 66068, Control_c, 11, 11, 111
13, 66087, Control_c, 11, 11, 112
13, 66089, Note_on_c, 11, 84, 0
13, 66090, Note_on_c, 11, 85, 84
13, 66105, Control_c, 11, 11, 113
13, 66115, Note_on_c, 11, 85, 0
13, 66120, Note_on_c, 11, 87, 84
13, 66123, Control_c, 11, 11, 114
13, 66141, Control_c, 11, 11, 115
13, 66159, Control_c, 11, 11, 116
13, 66178, Control_c, 11, 11, 117
13, 66196, Control_c, 11, 11, 118
13, 66214, Control_c, 11, 11, 119
13, 66232, Control_c, 11, 11, 120
13, 66251, Control_c, 11, 11, 121
13, 66269, Control_c, 11, 11, 122
13, 66287, Control_c, 11, 11, 123
13, 66299, Note_on_c, 11, 87, 0
13, 66300, Note_on_c, 11, 85, 84
13, 66305, Control_c, 11, 11, 124
13, 66324, Control_c, 11, 11, 125
13, 66342, Control_c, 11, 11, 127
13, 66355, Note_on_c, 11, 85, 0
13, 66360, Note_on_c, 11, 84, 84
13, 66471, Note_on_c, 11, 84, 0
13, 66480, Note_on_c, 11, 84, 84
13, 66569, Note_on_c, 11, 84, 0
13, 66570, Note_on_c, 11, 82, 84
13, 66599, Note_on_c, 11, 82, 0
13, 66600, Note_on_c, 11, 80, 84
13, 66689, Note_on_c, 11, 80, 0
13, 66690, Note_on_c, 11, 84, 84
13, 66715, Note_on_c, 11, 84, 0
13, 66720, Note_on_c, 11, 77, 84
13, 66929, Note_on_c, 11, 77, 0
13, 66930, Note_on_c, 11, 81, 84
13, 66959, Note_on_c, 11, 81, 0
13, 66960, Note_on_c, 11, 82, 84
13, 67049, Note_on_c, 11, 82, 0
13, 67050, Note_on_c, 11, 84, 84
13, 67075, Note_on_c, 11, 84, 0
13, 67080, Note_on_c, 11, 85, 84
13, 67169, Note_on_c, 11, 85, 0
13, 67170, Note_on_c, 11, 84, 84
13, 67199, Note_on_c, 11, 84, 0
13, 67200, Note_on_c, 11, 82, 84
13, 67289, Note_on_c, 11, 82, 0
13, 67290, Note_on_c, 11, 85, 84
13, 67319, Note_on_c, 11, 85, 0
13, 67320, Note_on_c, 11, 79, 84
13, 67409, Note_on_c, 11, 79, 0
13, 67410, Note_on_c, 11, 82, 84
13, 67435, Note_on_c, 11, 82, 0
13, 67440, Note_on_c, 11, 76, 84
13, 67529, Note_on_c, 11, 76, 0
13, 67530, Note_on_c, 11, 79, 84
13, 67555, Note_on_c, 11, 79, 0
13, 67560, Note_on_c, 11, 84, 84
13, 67765, Note_on_c, 11, 84, 0
13, 67770, Note_on_c, 11, 82, 84
13, 67795, Note_on_c, 11, 82, 0
13, 67800, Note_on_c, 11, 81, 84
13, 67889, Note_on_c, 11, 81, 0
13, 67890, Note_on_c, 11, 77, 84
13, 67915, Note_on_c, 11, 77, 0
13, 67920, Note_on_c, 11, 82, 84
13, 68099, Note_on_c, 11, 82, 0
13, 68100, Note_on_c, 11, 85, 84
13, 68155, Note_on_c, 11, 85, 0
13, 68160, Note_on_c, 11, 79, 84
13, 68249, Note_on_c, 11, 79, 0
13, 68250, Note_on_c, 11, 75, 84
13, 68275, Note_on_c, 11, 75, 0
13, 68280, Note_on_c, 11, 80, 84
13, 68391, Note_on_c, 11, 80, 0
13, 68400, Note_on_c, 11, 80, 84
13, 68489, Note_on_c, 11, 80, 0
13, 68490, Note_on_c, 11, 84, 84
13, 68515, Note_on_c, 11, 84, 0
13, 68520, Note_on_c, 11, 87, 92
13, 68579, Note_on_c, 11, 87, 0
13, 68580, Note_on_c, 11, 87, 84
13, 68875, Note_on_c, 11, 87, 0
13, 68880, Note_on_c, 11, 84, 84
13, 68905, Note_on_c, 11, 84, 0
13, 68910, Note_on_c, 11, 56, 84
13, 68935, Note_on_c, 11, 56, 0
13, 68940, Note_on_c, 11, 58, 84
13, 68965, Note_on_c, 11, 58, 0
13, 68970, Note_on_c, 11, 60, 84
13, 68995, Note_on_c, 11, 60, 0
13, 69000, Note_on_c, 11, 61, 84
13, 69025, Note_on_c, 11, 61, 0
13, 69030, Note_on_c, 11, 63, 84
13, 69055, Note_on_c, 11, 63, 0
13, 69060, Note_on_c, 11, 65, 84
13, 69085, Note_on_c, 11, 65, 0
13, 69090, Note_on_c, 11, 67, 84
13, 69115, Note_on_c, 11, 67, 0
13, 69120, Note_on_c, 11, 68, 84
13, 69145, Note_on_c, 11, 68, 0
13, 69150, Note_on_c, 11, 70, 84
13, 69175, Note_on_c, 11, 70, 0
13, 69180, Note_on_c, 11, 72, 84
13, 69205, Note_on_c, 11, 72, 0
13, 69210, Note_on_c, 11, 73, 84
13, 69235, Note_on_c, 11, 73, 0
13, 69240, Note_on_c, 11, 75, 84
13, 69240, Note_on_c, 11, 63, 84
13, 69359, Note_on_c, 11, 75, 0
13, 69359, Note_on_c, 11, 63, 0
13, 69600, Note_on_c, 11, 72, 84
13, 69600, Note_on_c, 11, 63, 84
13, 69600, Note_on_c, 11, 56, 84
13, 69625, Note_on_c, 11, 72, 0
13, 69625, Note_on_c, 11, 63, 0
13, 69625, Note_on_c, 11, 56, 0
13, 69630, Note_on_c, 11, 68, 84
13, 69655, Note_on_c, 11, 68, 0
13, 69660, Note_on_c, 11, 70, 84
13, 69685, Note_on_c, 11, 70, 0
13, 69690, Note_on_c, 11, 72, 84
13, 69715, Note_on_c, 11, 72, 0
13, 69720, Note_on_c, 11, 73, 84
13, 69745, Note_on_c, 11, 73, 0
13, 69750, Note_on_c, 11, 75, 84
13, 69775, Note_on_c, 11, 75, 0
13, 69780, Note_on_c, 11, 77, 84
13, 69805, Note_on_c, 11, 77, 0
13, 69810, Note_on_c, 11, 79, 84
13, 69835, Note_on_c, 11, 79, 0
13, 69840, Note_on_c, 11, 80, 84
13, 69865, Note_on_c, 11, 80, 0
13, 69870, Note_on_c, 11, 82, 84
13, 69895, Note_on_c, 11, 82, 0
13, 69900, Note_on_c, 11, 84, 84
13, 69925, Note_on_c, 11, 84, 0
13, 69930, Note_on_c, 11, 85, 84
13, 69955, Note_on_c, 11, 85, 0
13, 69960, Note_on_c, 11, 87, 84
13, 70079, Note_on_c, 11, 87, 0
13, 71580, Note_on_c, 11, 68, 52
13, 71639, Note_on_c, 11, 68, 0
13, 71640, Note_on_c, 11, 72, 52
13, 71699, Note_on_c, 11, 72, 0
13, 71700, Note_on_c, 11, 75, 52
13, 71755, Note_on_c, 11, 75, 0
13, 71760, Note_on_c, 11, 75, 52
13, 71819, Note_on_c, 11, 75, 0
13, 71820, Note_on_c, 11, 73, 52
13, 71875, Note_on_c, 11, 73, 0
13, 71880, Note_on_c, 11, 72, 52
13, 72055, Note_on_c, 11, 72, 0
13, 72060, Note_on_c, 11, 72, 52
13, 72115, Note_on_c, 11, 72, 0
13, 72120, Note_on_c, 11, 72, 52
13, 72179, Note_on_c, 11, 72, 0
13, 72180, Note_on_c, 11, 70, 52
13, 72235, Note_on_c, 11, 70, 0
13, 72240, Note_on_c, 11, 68, 52
13, 72415, Note_on_c, 11, 68, 0
13, 72420, Note_on_c, 11, 68, 52
13, 72475, Note_on_c, 11, 68, 0
13, 72480, Note_on_c, 11, 67, 52
13, 72711, Note_on_c, 11, 67, 0
13, 72720, Note_on_c, 11, 67, 52
13, 72759, Note_on_c, 11, 67, 0
13, 72760, Note_on_c, 11, 68, 52
13, 72799, Note_on_c, 11, 68, 0
13, 72800, Note_on_c, 11, 70, 52
13, 72835, Note_on_c, 11, 70, 0
13, 72840, Note_on_c, 11, 68, 52
13, 72959, Note_on_c, 11, 68, 0
13, 73080, Note_on_c, 11, 67, 52
13, 73119, Note_on_c, 11, 67, 0
13, 73120, Note_on_c, 11, 68, 52
13, 73159, Note_on_c, 11, 68, 0
13, 73160, Note_on_c, 11, 70, 52
13, 73195, Note_on_c, 11, 70, 0
13, 73200, Note_on_c, 11, 68, 52
13, 73319, Note_on_c, 11, 68, 0
13, 73440, Note_on_c, 11, 67, 52
13, 73479, Note_on_c, 11, 67, 0
13, 73480, Note_on_c, 11, 68, 52
13, 73519, Note_on_c, 11, 68, 0
13, 73520, Note_on_c, 11, 70, 52
13, 73555, Note_on_c, 11, 70, 0
13, 73560, Note_on_c, 11, 68, 44
13, 73615, Note_on_c, 11, 68, 0
13, 73620, Note_on_c, 11, 68, 44
13, 73679, Note_on_c, 11, 68, 0
13, 73740, Note_on_c, 11, 68, 44
13, 73799, Note_on_c, 11, 68, 0
13, 73860, Note_on_c, 11, 68, 44
13, 73919, Note_on_c, 11, 68, 0
13, 73980, Note_on_c, 11, 68, 44
13, 74039, Note_on_c, 11, 68, 0
13, 74100, Note_on_c, 11, 68, 44
13, 74159, Note_on_c, 11, 68, 0
13, 74220, Note_on_c, 11, 68, 44
13, 74279, Note_on_c, 11, 68, 0
13, 74340, Note_on_c, 11, 68, 44
13, 74399, Note_on_c, 11, 68, 0
13, 74460, Note_on_c, 11, 68, 44
13, 74519, Note_on_c, 11, 68, 0
13, 74580, Note_on_c, 11, 68, 44
13, 74639, Note_on_c, 11, 68, 0
13, 74700, Note_on_c, 11, 67, 44
13, 74759, Note_on_c, 11, 67, 0
13, 74820, Note_on_c, 11, 67, 44
13, 74879, Note_on_c, 11, 67, 0
13, 74940, Note_on_c, 11, 67, 44
13, 74999, Note_on_c, 11, 67, 0
13, 75060, Note_on_c, 11, 68, 44
13, 75119, Note_on_c, 11, 68, 0
13, 75180, Note_on_c, 11, 68, 44
13, 75239, Note_on_c, 11, 68, 0
13, 75300, Note_on_c, 11, 68, 44
13, 75359, Note_on_c, 11, 68, 0
13, 75420, Note_on_c, 11, 68, 44
13, 75479, Note_on_c, 11, 68, 0
13, 75540, Note_on_c, 11, 68, 44
13, 75599, Note_on_c, 11, 68, 0
13, 75660, Note_on_c, 11, 68, 44
13, 75719, Note_on_c, 11, 68, 0
13, 75780, Note_on_c, 11, 68, 44
13, 75839, Note_on_c, 11, 68, 0
13, 75900, Note_on_c, 11, 68, 44
13, 75959, Note_on_c, 11, 68, 0
13, 76020, Note_on_c, 11, 68, 44
13, 76079, Note_on_c, 11, 68, 0
13, 76140, Note_on_c, 11, 67, 44
13, 76140, Note_on_c, 11, 58, 44
13, 76199, Note_on_c, 11, 67, 0
13, 76199, Note_on_c, 11, 58, 0
13, 76260, Note_on_c, 11, 67, 44
13, 76260, Note_on_c, 11, 58, 44
13, 76319, Note_on_c, 11, 67, 0
13, 76319, Note_on_c, 11, 58, 0
13, 76380, Note_on_c, 11, 67, 44
13, 76380, Note_on_c, 11, 58, 44
13, 76435, Note_on_c, 11, 67, 0
13, 76435, Note_on_c, 11, 58, 0
13, 76440, Note_on_c, 11, 68, 44
13, 76440, Note_on_c, 11, 60, 44
13, 76559, Note_on_c, 11, 68, 0
13, 76559, Note_on_c, 11, 60, 0
13, 76650, Note_on_c, 11, 56, 50
13, 76679, Note_on_c, 11, 56, 0
13, 76680, Note_on_c, 11, 60, 52
13, 76769, Note_on_c, 11, 60, 0
13, 76770, Note_on_c, 11, 63, 58
13, 76799, Note_on_c, 11, 63, 0
13, 76800, Note_on_c, 11, 68, 60
13, 76919, Note_on_c, 11, 68, 0
13, 76920, Note_on_c, 11, 72, 68
13, 77039, Note_on_c, 11, 72, 0
13, 77040, Note_on_c, 11, 75, 76
13, 77159, Note_on_c, 11, 75, 0
13, 77160, Note_on_c, 11, 72, 76
13, 77279, Note_on_c, 11, 72, 0
13, 77370, Note_on_c, 11, 56, 56
13, 77399, Note_on_c, 11, 56, 0
13, 77400, Note_on_c, 11, 60, 58
13, 77489, Note_on_c, 11, 60, 0
13, 77490, Note_on_c, 11, 63, 62
13, 77515, Note_on_c, 11, 63, 0
13, 77520, Note_on_c, 11, 68, 64
13, 77559, Note_on_c, 11, 68, 0
13, 77560, Note_on_c, 11, 72, 66
13, 77599, Note_on_c, 11, 72, 0
13, 77600, Note_on_c, 11, 75, 68
13, 77635, Note_on_c, 11, 75, 0
13, 77640, Note_on_c, 11, 80, 70
13, 77759, Note_on_c, 11, 80, 0
13, 77760, Note_on_c, 11, 82, 76
13, 77879, Note_on_c, 11, 82, 0
13, 77880, Note_on_c, 11, 84, 76
13, 77999, Note_on_c, 11, 84, 0
13, 78040, Note_on_c, 11, 56, 57
13, 78079, Note_on_c, 11, 56, 0
13, 78080, Note_on_c, 11, 60, 62
13, 78119, Note_on_c, 11, 60, 0
13, 78120, Note_on_c, 11, 63, 68
13, 78159, Note_on_c, 11, 63, 0
13, 78160, Note_on_c, 11, 68, 73
13, 78199, Note_on_c, 11, 68, 0
13, 78200, Note_on_c, 11, 72, 78
13, 78235, Note_on_c, 11, 72, 0
13, 78240, Note_on_c, 11, 75, 84
13, 78279, Note_on_c, 11, 75, 0
13, 78280, Note_on_c, 11, 80, 84
13, 78319, Note_on_c, 11, 80, 0
13, 78320, Note_on_c, 11, 84, 84
13, 78355, Note_on_c, 11, 84, 0
13, 78360, Note_on_c, 11, 87, 84
13, 78479, Note_on_c, 11, 87, 0
13, 80220, Note_on_c, 11, 68, 48
13, 80279, Note_on_c, 11, 68, 0
13, 80280, Note_on_c, 11, 72, 48
13, 80339, Note_on_c, 11, 72, 0
13, 80340, Note_on_c, 11, 75, 48
13, 80395, Note_on_c, 11, 75, 0
13, 80398, Control_c, 11, 11, 80
13, 80400, Note_on_c, 11, 75, 76
13, 80400, Control_c, 11, 11, 80
13, 80415, Control_c, 11, 11, 82
13, 80430, Control_c, 11, 11, 84
13, 80445, Control_c, 11, 11, 86
13, 80459, Note_on_c, 11, 75, 0
13, 80460, Note_on_c, 11, 73, 76
13, 80460, Control_c, 11, 11, 88
13, 80475, Control_c, 11, 11, 90
13, 80490, Control_c, 11, 11, 92
13, 80505, Control_c, 11, 11, 94
13, 80519, Note_on_c, 11, 73, 0
13, 80520, Note_on_c, 11, 72, 76
13, 80520, Control_c, 11, 11, 96
13, 80535, Control_c, 11, 11, 98
13, 80550, Control_c, 11, 11, 100
13, 80565, Control_c, 11, 11, 102
13, 80580, Control_c, 11, 11, 104
13, 80595, Control_c, 11, 11, 105
13, 80610, Control_c, 11, 11, 107
13, 80625, Control_c, 11, 11, 109
13, 80640, Control_c, 11, 11, 111
13, 80655, Control_c, 11, 11, 113
13, 80670, Control_c, 11, 11, 115
13, 80685, Control_c, 11, 11, 117
13, 80695, Note_on_c, 11, 72, 0
13, 80700, Note_on_c, 11, 72, 76
13, 80700, Control_c, 11, 11, 119
13, 80715, Control_c, 11, 11, 121
13, 80730, Control_c, 11, 11, 123
13, 80745, Control_c, 11, 11, 127
13, 80755, Note_on_c, 11, 72, 0
13, 80760, Note_on_c, 11, 79, 76
13, 80819, Note_on_c, 11, 79, 0
13, 80820, Note_on_c, 11, 77, 76
13, 80879, Note_on_c, 11, 77, 0
13, 80880, Note_on_c, 11, 75, 84
13, 80939, Note_on_c, 11, 75, 0
13, 80940, Note_on_c, 11, 75, 76
13, 81055, Note_on_c, 11, 75, 0
13, 81060, Note_on_c, 11, 75, 76
13, 81115, Note_on_c, 11, 75, 0
13, 81120, Note_on_c, 11, 75, 76
13, 81179, Note_on_c, 11, 75, 0
13, 81180, Note_on_c, 11, 73, 76
13, 81239, Note_on_c, 11, 73, 0
13, 81240, Note_on_c, 11, 72, 84
13, 81299, Note_on_c, 11, 72, 0
13, 81300, Note_on_c, 11, 72, 76
13, 81300, Control_c, 11, 11, 127
13, 81313, Control_c, 11, 11, 122
13, 81327, Control_c, 11, 11, 117
13, 81340, Control_c, 11, 11, 111
13, 81353, Control_c, 11, 11, 106
13, 81367, Control_c, 11, 11, 101
13, 81380, Control_c, 11, 11, 96
13, 81393, Control_c, 11, 11, 90
13, 81407, Control_c, 11, 11, 85
13, 81415, Note_on_c, 11, 72, 0
13, 81420, Note_on_c, 11, 72, 76
13, 81420, Control_c, 11, 11, 80
13, 81479, Note_on_c, 11, 72, 0
13, 81480, Note_on_c, 11, 70, 76
13, 81599, Note_on_c, 11, 70, 0
13, 81720, Control_c, 11, 11, 127
13, 81840, Note_on_c, 11, 63, 44
13, 81959, Note_on_c, 11, 63, 0
13, 82200, Note_on_c, 11, 68, 44
13, 82559, Note_on_c, 11, 68, 0
13, 82560, Note_on_c, 11, 68, 44
13, 82791, Note_on_c, 11, 68, 0
13, 82800, Note_on_c, 11, 68, 44
13, 82889, Note_on_c, 11, 68, 0
13, 82890, Note_on_c, 11, 72, 44
13, 82915, Note_on_c, 11, 72, 0
13, 82920, Note_on_c, 11, 75, 44
13, 83279, Note_on_c, 11, 75, 0
13, 83280, Note_on_c, 11, 75, 44
13, 83511, Note_on_c, 11, 75, 0
13, 83520, Note_on_c, 11, 72, 44
13, 83609, Note_on_c, 11, 72, 0
13, 83610, Note_on_c, 11, 75, 44
13, 83639, Note_on_c, 11, 75, 0
13, 83640, Note_on_c, 11, 80, 44
13, 83871, Note_on_c, 11, 80, 0
13, 83880, Note_on_c, 11, 72, 44
13, 83969, Note_on_c, 11, 72, 0
13, 83970, Note_on_c, 11, 75, 44
13, 83999, Note_on_c, 11, 75, 0
13, 84000, Note_on_c, 11, 80, 44
13, 84239, Note_on_c, 11, 80, 0
13, 86400, Note_on_c, 11, 68, 76
13, 86431, Note_on_c, 11, 68, 0
13, 86440, Note_on_c, 11, 60, 76
13, 86471, Note_on_c, 11, 60, 0
13, 86480, Note_on_c, 11, 63, 76
13, 86511, Note_on_c, 11, 63, 0
13, 86520, Note_on_c, 11, 68, 76
13, 86551, Note_on_c, 11, 68, 0
13, 86560, Note_on_c, 11, 60, 76
13, 86591, Note_on_c, 11, 60, 0
13, 86600, Note_on_c, 11, 63, 76
13, 86631, Note_on_c, 11, 63, 0
13, 86640, Note_on_c, 11, 68, 76
13, 86671, Note_on_c, 11, 68, 0
13, 86680, Note_on_c, 11, 72, 76
13, 86711, Note_on_c, 11, 72, 0
13, 86720, Note_on_c, 11, 75, 76
13, 86751, Note_on_c, 11, 75, 0
13, 86760, Note_on_c, 11, 80, 76
13, 86760, Note_on_c, 11, 72, 76
13, 86795, Note_on_c, 11, 80, 0
13, 86795, Note_on_c, 11, 72, 0
13, 86800, Note_on_c, 11, 72, 76
13, 86800, Note_on_c, 11, 80, 76
13, 86835, Note_on_c, 11, 72, 0
13, 86835, Note_on_c, 11, 80, 0
13, 86840, Note_on_c, 11, 80, 76
13, 86840, Note_on_c, 11, 72, 76
13, 86875, Note_on_c, 11, 80, 0
13, 86875, Note_on_c, 11, 72, 0
13, 86880, Note_on_c, 11, 80, 84
13, 86880, Note_on_c, 11, 72, 84
13, 86999, Note_on_c, 11, 80, 0
13, 86999, Note_on_c, 11, 72, 0
13, 87240, Note_on_c, 11, 82, 84
13, 87240, Note_on_c, 11, 75, 84
13, 87240, Note_on_c, 11, 67, 84
13, 87359, Note_on_c, 11, 82, 0
13, 87359, Note_on_c, 11, 75, 0
13, 87359, Note_on_c, 11, 67, 0
13, 87600, Note_on_c, 11, 84, 84
13, 87600, Note_on_c, 11, 68, 84
13, 87600, Note_on_c, 11, 75, 84
13, 87719, Note_on_c, 11, 84, 0
13, 87719, Note_on_c, 11, 68, 0
13, 87719, Note_on_c, 11, 75, 0
13, 87840, Note_on_c, 11, 75, 52
13, 87840, Note_on_c, 11, 67, 52
13, 87840, Note_on_c, 11, 82, 52
13, 87929, Note_on_c, 11, 75, 0
13, 87929, Note_on_c, 11, 67, 0
13, 87929, Note_on_c, 11, 82, 0
13, 87960, Note_on_c, 11, 84, 52
13, 87960, Note_on_c, 11, 68, 52
13, 87960, Note_on_c, 11, 75, 52
13, 88049, Note_on_c, 11, 84, 0
13, 88049, Note_on_c, 11, 68, 0
13, 88049, Note_on_c, 11, 75, 0
13, 88320, Note_on_c, 11, 63, 76
13, 88320, Note_on_c, 11, 70, 76
13, 88320, Note_on_c, 11, 79, 76
13, 88439, Note_on_c, 11, 63, 0
13, 88439, Note_on_c, 11, 70, 0
13, 88439, Note_on_c, 11, 79, 0
13, 88680, Note_on_c, 11, 63, 76
13, 88680, Note_on_c, 11, 56, 76
13, 88680, Note_on_c, 11, 80, 76
13, 88680, Note_on_c, 11, 72, 76
13, 88799, Note_on_c, 11, 63, 0
13, 88799, Note_on_c, 11, 56, 0
13, 88799, Note_on_c, 11, 80, 0
13, 88799, Note_on_c, 11, 72, 0
13, 88799, End_track
14, 0, Start_track
14, 0, Title_t, "Violin II"
14, 0, MIDI_port, 0
14, 0, Program_c, 12, 48
14, 0, Control_c, 12, 7, 96
14, 0, Control_c, 12, 10, 24
14, 0, Control_c, 12, 11, 127
14, 2880, Note_on_c, 12, 63, 52
14, 2969, Note_on_c, 12, 63, 0
14, 2970, Note_on_c, 12, 60, 52
14, 2995, Note_on_c, 12, 60, 0
14, 3000, Note_on_c, 12, 58, 76
14, 3359, Note_on_c, 12, 58, 0
14, 3360, Note_on_c, 12, 60, 52
14, 3479, Note_on_c, 12, 60, 0
14, 5160, Control_c, 12, 11, 80
14, 5340, Note_on_c, 12, 56, 76
14, 5399, Note_on_c, 12, 56, 0
14, 5400, Note_on_c, 12, 60, 76
14, 5459, Note_on_c, 12, 60, 0
14, 5460, Note_on_c, 12, 63, 76
14, 5515, Note_on_c, 12, 63, 0
14, 5520, Note_on_c, 12, 63, 76
14, 5579, Note_on_c, 12, 63, 0
14, 5580, Note_on_c, 12, 61, 76
14, 5635, Note_on_c, 12, 61, 0
14, 5640, Note_on_c, 12, 60, 76
14, 5815, Note_on_c, 12, 60, 0
14, 5820, Note_on_c, 12, 60, 76
14, 5875, Note_on_c, 12, 60, 0
14, 5880, Note_on_c, 12, 60, 76
14, 5880, Control_c, 12, 11, 80
14, 5895, Control_c, 12, 11, 82
14, 5910, Control_c, 12, 11, 84
14, 5925, Control_c, 12, 11, 86
14, 5939, Note_on_c, 12, 60, 0
14, 5940, Note_on_c, 12, 58, 76
14, 5940, Control_c, 12, 11, 88
14, 5955, Control_c, 12, 11, 90
14, 5970, Control_c, 12, 11, 92
14, 5985, Control_c, 12, 11, 94
14, 5995, Note_on_c, 12, 58, 0
14, 6000, Control_c, 12, 11, 96
14, 6000, Note_on_c, 12, 56, 76
14, 6015, Control_c, 12, 11, 98
14, 6030, Control_c, 12, 11, 100
14, 6045, Control_c, 12, 11, 102
14, 6060, Control_c, 12, 11, 104
14, 6075, Control_c, 12, 11, 105
14, 6090, Control_c, 12, 11, 107
14, 6105, Control_c, 12, 11, 109
14, 6120, Control_c, 12, 11, 111
14, 6135, Control_c, 12, 11, 113
14, 6150, Control_c, 12, 11, 115
14, 6165, Control_c, 12, 11, 117
14, 6175, Note_on_c, 12, 56, 0
14, 6180, Control_c, 12, 11, 119
14, 6180, Note_on_c, 12, 56, 76
14, 6195, Control_c, 12, 11, 121
14, 6210, Control_c, 12, 11, 123
14, 6225, Control_c, 12, 11, 125
14, 6235, Note_on_c, 12, 56, 0
14, 6240, Note_on_c, 12, 55, 76
14, 6240, Control_c, 12, 11, 127
14, 6471, Note_on_c, 12, 55, 0
14, 6480, Note_on_c, 12, 55, 76
14, 6519, Note_on_c, 12, 55, 0
14, 6520, Note_on_c, 12, 56, 76
14, 6559, Note_on_c, 12, 56, 0
14, 6560, Note_on_c, 12, 58, 76
14, 6595, Note_on_c, 12, 58, 0
14, 6600, Note_on_c, 12, 56, 52
14, 6719, Note_on_c, 12, 56, 0
14, 7200, Note_on_c, 12, 58, 76
14, 7239, Note_on_c, 12, 58, 0
14, 7240, Note_on_c, 12, 56, 76
14, 7279, Note_on_c, 12, 56, 0
14, 7280, Note_on_c, 12, 55, 76
14, 7315, Note_on_c, 12, 55, 0
14, 7320, Note_on_c, 12, 56, 76
14, 7379, Note_on_c, 12, 56, 0
14, 7440, Note_on_c, 12, 56, 52
14, 7499, Note_on_c, 12, 56, 0
14, 7560, Note_on_c, 12, 56, 52
14, 7619, Note_on_c, 12, 56, 0
14, 7680, Note_on_c, 12, 56, 52
14, 7799, Note_on_c, 12, 56, 0
14, 8160, Note_on_c, 12, 63, 48
14, 8279, Note_on_c, 12, 63, 0
14, 8280, Note_on_c, 12, 67, 48
14, 8399, Note_on_c, 12, 67, 0
14, 8400, Note_on_c, 12, 68, 48
14, 8519, Note_on_c, 12, 68, 0
14, 8880, Note_on_c, 12, 68, 48
14, 8999, Note_on_c, 12, 68, 0
14, 9000, Note_on_c, 12, 70, 48
14, 9119, Note_on_c, 12, 70, 0
14, 9120, Note_on_c, 12, 72, 48
14, 9239, Note_on_c, 12, 72, 0
14, 9600, Note_on_c, 12, 69, 44
14, 9839, Note_on_c, 12, 69, 0
14, 9960, Note_on_c, 12, 69, 44
14, 10191, Note_on_c, 12, 69, 0
14, 10200, Note_on_c, 12, 75, 84
14, 10551, Note_on_c, 12, 75, 0
14, 10560, Note_on_c, 12, 76, 84
14, 10645, Note_on_c, 12, 76, 0
14, 10650, Note_on_c, 12, 72, 84
14, 10675, Note_on_c, 12, 72, 0
14, 10680, Note_on_c, 12, 67, 84
14, 10769, Note_on_c, 12, 67, 0
14, 10800, Note_on_c, 12, 55, 84
14, 10800, Note_on_c, 12, 71, 84
14, 10800, Note_on_c, 12, 65, 84
14, 10889, Note_on_c, 12, 55, 0
14, 10889, Note_on_c, 12, 71, 0
14, 10889, Note_on_c, 12, 65, 0
14, 10920, Note_on_c, 12, 55, 84
14, 10920, Note_on_c, 12, 64, 84
14, 10920, Note_on_c, 12, 72, 84
14, 11039, Note_on_c, 12, 55, 0
14, 11039, Note_on_c, 12, 64, 0
14, 11039, Note_on_c, 12, 72, 0
14, 11280, Note_on_c, 12, 64, 84
14, 11309, Note_on_c, 12, 64, 0
14, 11320, Note_on_c, 12, 72, 84
14, 11349, Note_on_c, 12, 72, 0
14, 11360, Note_on_c, 12, 67, 84
14, 11389, Note_on_c, 12, 67, 0
14, 11400, Note_on_c, 12, 64, 84
14, 11429, Note_on_c, 12, 64, 0
14, 11440, Note_on_c, 12, 72, 84
14, 11469, Note_on_c, 12, 72, 0
14, 11480, Note_on_c, 12, 67, 84
14, 11509, Note_on_c, 12, 67, 0
14, 11520, Note_on_c, 12, 67, 84
14, 11549, Note_on_c, 12, 67, 0
14, 11560, Note_on_c, 12, 74, 84
14, 11589, Note_on_c, 12, 74, 0
14, 11600, Note_on_c, 12, 71, 84
14, 11629, Note_on_c, 12, 71, 0
14, 11640, Note_on_c, 12, 67, 84
14, 11669, Note_on_c, 12, 67, 0
14, 11680, Note_on_c, 12, 76, 84
14, 11709, Note_on_c, 12, 76, 0
14, 11720, Note_on_c, 12, 72, 84
14, 11749, Note_on_c, 12, 72, 0
14, 11760, Note_on_c, 12, 67, 84
14, 11789, Note_on_c, 12, 67, 0
14, 11800, Note_on_c, 12, 64, 84
14, 11829, Note_on_c, 12, 64, 0
14, 11840, Note_on_c, 12, 60, 84
14, 11869, Note_on_c, 12, 60, 0
14, 11880, Note_on_c, 12, 67, 84
14, 11909, Note_on_c, 12, 67, 0
14, 11920, Note_on_c, 12, 72, 84
14, 11949, Note_on_c, 12, 72, 0
14, 11960, Note_on_c, 12, 74, 84
14, 11989, Note_on_c, 12, 74, 0
14, 12000, Note_on_c, 12, 67, 84
14, 12029, Note_on_c, 12, 67, 0
14, 12040, Note_on_c, 12, 76, 84
14, 12069, Note_on_c, 12, 76, 0
14, 12080, Note_on_c, 12, 72, 84
14, 12109, Note_on_c, 12, 72, 0
14, 12120, Note_on_c, 12, 67, 84
14, 12149, Note_on_c, 12, 67, 0
14, 12160, Note_on_c, 12, 76, 84
14, 12189, Note_on_c, 12, 76, 0
14, 12200, Note_on_c, 12, 72, 84
14, 12229, Note_on_c, 12, 72, 0
14, 12240, Note_on_c, 12, 67, 84
14, 12269, Note_on_c, 12, 67, 0
14, 12280, Note_on_c, 12, 77, 84
14, 12309, Note_on_c, 12, 77, 0
14, 12320, Note_on_c, 12, 74, 84
14, 12349, Note_on_c, 12, 74, 0
14, 12360, Note_on_c, 12, 67, 92
14, 12389, Note_on_c, 12, 67, 0
14, 12400, Note_on_c, 12, 79, 84
14, 12429, Note_on_c, 12, 79, 0
14, 12440, Note_on_c, 12, 76, 84
14, 12469, Note_on_c, 12, 76, 0
14, 12480, Note_on_c, 12, 72, 84
14, 12509, Note_on_c, 12, 72, 0
14, 12520, Note_on_c, 12, 67, 84
14, 12549, Note_on_c, 12, 67, 0
14, 12560, Note_on_c, 12, 64, 84
14, 12589, Note_on_c, 12, 64, 0
14, 12600, Note_on_c, 12, 60, 84
14, 12629, Note_on_c, 12, 60, 0
14, 12640, Note_on_c, 12, 76, 84
14, 12669, Note_on_c, 12, 76, 0
14, 12680, Note_on_c, 12, 77, 84
14, 12709, Note_on_c, 12, 77, 0
14, 12720, Note_on_c, 12, 60, 92
14, 12749, Note_on_c, 12, 60, 0
14, 12760, Note_on_c, 12, 79, 84
14, 12789, Note_on_c, 12, 79, 0
14, 12800, Note_on_c, 12, 76, 84
14, 12829, Note_on_c, 12, 76, 0
14, 12840, Note_on_c, 12, 72, 84
14, 12869, Note_on_c, 12, 72, 0
14, 12880, Note_on_c, 12, 67, 84
14, 12909, Note_on_c, 12, 67, 0
14, 12920, Note_on_c, 12, 64, 84
14, 12949, Note_on_c, 12, 64, 0
14, 12960, Note_on_c, 12, 60, 84
14, 12989, Note_on_c, 12, 60, 0
14, 13000, Note_on_c, 12, 72, 84
14, 13029, Note_on_c, 12, 72, 0
14, 13040, Note_on_c, 12, 74, 84
14, 13069, Note_on_c, 12, 74, 0
14, 13080, Note_on_c, 12, 76, 84
14, 13199, Note_on_c, 12, 76, 0
14, 13680, Note_on_c, 12, 70, 44
14, 14031, Note_on_c, 12, 70, 0
14, 14040, Note_on_c, 12, 70, 44
14, 14391, Note_on_c, 12, 70, 0
14, 14400, Note_on_c, 12, 70, 44
14, 14871, Note_on_c, 12, 70, 0
14, 14878, Control_c, 12, 11, 64
14, 14880, Note_on_c, 12, 71, 76
14, 15591, Note_on_c, 12, 71, 0
14, 15600, Note_on_c, 12, 71, 76
14, 15959, Note_on_c, 12, 71, 0
14, 15960, Note_on_c, 12, 70, 76
14, 16311, Note_on_c, 12, 70, 0
14, 16320, Note_on_c, 12, 68, 76
14, 16680, Control_c, 12, 11, 64
14, 16695, Control_c, 12, 11, 67
14, 16710, Control_c, 12, 11, 69
14, 16725, Control_c, 12, 11, 72
14, 16740, Control_c, 12, 11, 75
14, 16755, Control_c, 12, 11, 77
14, 16770, Control_c, 12, 11, 80
14, 16785, Control_c, 12, 11, 82
14, 16800, Control_c, 12, 11, 85
14, 16815, Control_c, 12, 11, 88
14, 16830, Control_c, 12, 11, 90
14, 16845, Control_c, 12, 11, 93
14, 16860, Control_c, 12, 11, 96
14, 16875, Control_c, 12, 11, 98
14, 16890, Control_c, 12, 11, 101
14, 16905, Control_c, 12, 11, 103
14, 16920, Control_c, 12, 11, 106
14, 16935, Control_c, 12, 11, 109
14, 16950, Control_c, 12, 11, 111
14, 16965, Control_c, 12, 11, 114
14, 16980, Control_c, 12, 11, 117
14, 16995, Control_c, 12, 11, 119
14, 17010, Control_c, 12, 11, 122
14, 17025, Control_c, 12, 11, 127
14, 17031, Note_on_c, 12, 68, 0
14, 17040, Note_on_c, 12, 67, 76
14, 17159, Note_on_c, 12, 67, 0
14, 17400, Program_c, 12, 45
14, 17640, Note_on_c, 12, 60, 48
14, 17759, Note_on_c, 12, 60, 0
14, 17760, Note_on_c, 12, 60, 48
14, 17879, Note_on_c, 12, 60, 0
14, 18120, Note_on_c, 12, 65, 48
14, 18239, Note_on_c, 12, 65, 0
14, 18480, Note_on_c, 12, 61, 48
14, 18599, Note_on_c, 12, 61, 0
14, 18600, Note_on_c, 12, 58, 48
14, 18719, Note_on_c, 12, 58, 0
14, 18720, Note_on_c, 12, 61, 48
14, 18839, Note_on_c, 12, 61, 0
14, 18840, Note_on_c, 12, 55, 48
14, 18959, Note_on_c, 12, 55, 0
14, 19080, Note_on_c, 12, 60, 48
14, 19199, Note_on_c, 12, 60, 0
14, 19200, Note_on_c, 12, 60, 48
14, 19319, Note_on_c, 12, 60, 0
14, 19320, Note_on_c, 12, 61, 48
14, 19439, Note_on_c, 12, 61, 0
14, 19560, Note_on_c, 12, 58, 48
14, 19679, Note_on_c, 12, 58, 0
14, 19680, Note_on_c, 12, 60, 48
14, 19799, Note_on_c, 12, 60, 0
14, 19920, Note_on_c, 12, 70, 68
14, 19920, Note_on_c, 12, 63, 68
14, 20009, Note_on_c, 12, 70, 0
14, 20009, Note_on_c, 12, 63, 0
14, 20040, Note_on_c, 12, 70, 68
14, 20040, Note_on_c, 12, 63, 68
14, 20129, Note_on_c, 12, 70, 0
14, 20129, Note_on_c, 12, 63, 0
14, 20160, Note_on_c, 12, 63, 68
14, 20160, Note_on_c, 12, 70, 68
14, 20249, Note_on_c, 12, 63, 0
14, 20249, Note_on_c, 12, 70, 0
14, 20280, Note_on_c, 12, 72, 48
14, 20280, Note_on_c, 12, 63, 48
14, 20399, Note_on_c, 12, 72, 0
14, 20399, Note_on_c, 12, 63, 0
14, 20400, Program_c, 12, 48
14, 20460, Note_on_c, 12, 63, 64
14, 20504, Note_on_c, 12, 63, 0
14, 20520, Note_on_c, 12, 63, 68
14, 20579, Note_on_c, 12, 63, 0
14, 20580, Note_on_c, 12, 60, 72
14, 20635, Note_on_c, 12, 60, 0
14, 20640, Note_on_c, 12, 58, 76
14, 20991, Note_on_c, 12, 58, 0
14, 21000, Note_on_c, 12, 60, 52
14, 21119, Note_on_c, 12, 60, 0
14, 22800, Control_c, 12, 11, 80
14, 22980, Note_on_c, 12, 56, 76
14, 23039, Note_on_c, 12, 56, 0
14, 23040, Note_on_c, 12, 60, 76
14, 23099, Note_on_c, 12, 60, 0
14, 23100, Note_on_c, 12, 63, 76
14, 23155, Note_on_c, 12, 63, 0
14, 23160, Note_on_c, 12, 63, 76
14, 23219, Note_on_c, 12, 63, 0
14, 23220, Note_on_c, 12, 61, 76
14, 23275, Note_on_c, 12, 61, 0
14, 23280, Note_on_c, 12, 60, 76
14, 23455, Note_on_c, 12, 60, 0
14, 23460, Note_on_c, 12, 60, 76
14, 23515, Note_on_c, 12, 60, 0
14, 23520, Control_c, 12, 11, 80
14, 23520, Note_on_c, 12, 60, 76
14, 23535, Control_c, 12, 11, 82
14, 23550, Control_c, 12, 11, 84
14, 23565, Control_c, 12, 11, 86
14, 23579, Note_on_c, 12, 60, 0
14, 23580, Control_c, 12, 11, 88
14, 23580, Note_on_c, 12, 58, 76
14, 23595, Control_c, 12, 11, 90
14, 23610, Control_c, 12, 11, 92
14, 23625, Control_c, 12, 11, 94
14, 23635, Note_on_c, 12, 58, 0
14, 23640, Note_on_c, 12, 56, 76
14, 23640, Control_c, 12, 11, 96
14, 23655, Control_c, 12, 11, 98
14, 23670, Control_c, 12, 11, 100
14, 23685, Control_c, 12, 11, 102
14, 23700, Control_c, 12, 11, 104
14, 23715, Control_c, 12, 11, 105
14, 23730, Control_c, 12, 11, 107
14, 23745, Control_c, 12, 11, 109
14, 23760, Control_c, 12, 11, 111
14, 23775, Control_c, 12, 11, 113
14, 23790, Control_c, 12, 11, 115
14, 23805, Control_c, 12, 11, 117
14, 23815, Note_on_c, 12, 56, 0
14, 23820, Control_c, 12, 11, 119
14, 23820, Note_on_c, 12, 56, 76
14, 23835, Control_c, 12, 11, 121
14, 23850, Control_c, 12, 11, 123
14, 23865, Control_c, 12, 11, 127
14, 23875, Note_on_c, 12, 56, 0
14, 23880, Note_on_c, 12, 55, 76
14, 24111, Note_on_c, 12, 55, 0
14, 24120, Note_on_c, 12, 55, 76
14, 24159, Note_on_c, 12, 55, 0
14, 24160, Note_on_c, 12, 56, 76
14, 24199, Note_on_c, 12, 56, 0
14, 24200, Note_on_c, 12, 58, 76
14, 24235, Note_on_c, 12, 58, 0
14, 24240, Note_on_c, 12, 56, 52
14, 24359, Note_on_c, 12, 56, 0
14, 24840, Note_on_c, 12, 58, 76
14, 24879, Note_on_c, 12, 58, 0
14, 24880, Note_on_c, 12, 56, 76
14, 24919, Note_on_c, 12, 56, 0
14, 24920, Note_on_c, 12, 55, 76
14, 24955, Note_on_c, 12, 55, 0
14, 24960, Note_on_c, 12, 56, 76
14, 25019, Note_on_c, 12, 56, 0
14, 25080, Note_on_c, 12, 56, 52
14, 25139, Note_on_c, 12, 56, 0
14, 25200, Note_on_c, 12, 56, 52
14, 25259, Note_on_c, 12, 56, 0
14, 25320, Note_on_c, 12, 56, 52
14, 25439, Note_on_c, 12, 56, 0
14, 25800, Note_on_c, 12, 63, 48
14, 25919, Note_on_c, 12, 63, 0
14, 25920, Note_on_c, 12, 67, 48
14, 26039, Note_on_c, 12, 67, 0
14, 26040, Note_on_c, 12, 68, 48
14, 26159, Note_on_c, 12, 68, 0
14, 26520, Note_on_c, 12, 68, 48
14, 26639, Note_on_c, 12, 68, 0
14, 26640, Note_on_c, 12, 70, 48
14, 26759, Note_on_c, 12, 70, 0
14, 26760, Note_on_c, 12, 72, 48
14, 26879, Note_on_c, 12, 72, 0
14, 27150, Note_on_c, 12, 69, 44
14, 27175, Note_on_c, 12, 69, 0
14, 27180, Note_on_c, 12, 69, 44
14, 27205, Note_on_c, 12, 69, 0
14, 27210, Note_on_c, 12, 69, 44
14, 27235, Note_on_c, 12, 69, 0
14, 27240, Note_on_c, 12, 69, 44
14, 27295, Note_on_c, 12, 69, 0
14, 27300, Note_on_c, 12, 69, 44
14, 27355, Note_on_c, 12, 69, 0
14, 27360, Note_on_c, 12, 69, 44
14, 27419, Note_on_c, 12, 69, 0
14, 27510, Note_on_c, 12, 69, 44
14, 27535, Note_on_c, 12, 69, 0
14, 27540, Note_on_c, 12, 69, 44
14, 27565, Note_on_c, 12, 69, 0
14, 27570, Note_on_c, 12, 69, 44
14, 27595, Note_on_c, 12, 69, 0
14, 27600, Note_on_c, 12, 69, 44
14, 27655, Note_on_c, 12, 69, 0
14, 27660, Note_on_c, 12, 69, 44
14, 27715, Note_on_c, 12, 69, 0
14, 27720, Note_on_c, 12, 69, 44
14, 27779, Note_on_c, 12, 69, 0
14, 27840, Note_on_c, 12, 76, 84
14, 27865, Note_on_c, 12, 76, 0
14, 27870, Note_on_c, 12, 76, 84
14, 27895, Note_on_c, 12, 76, 0
14, 27900, Note_on_c, 12, 76, 84
14, 27925, Note_on_c, 12, 76, 0
14, 27930, Note_on_c, 12, 76, 84
14, 27955, Note_on_c, 12, 76, 0
14, 27960, Note_on_c, 12, 76, 84
14, 27985, Note_on_c, 12, 76, 0
14, 27990, Note_on_c, 12, 76, 84
14, 28015, Note_on_c, 12, 76, 0
14, 28020, Note_on_c, 12, 76, 84
14, 28045, Note_on_c, 12, 76, 0
14, 28050, Note_on_c, 12, 76, 84
14, 28075, Note_on_c, 12, 76, 0
14, 28080, Note_on_c, 12, 76, 84
14, 28105, Note_on_c, 12, 76, 0
14, 28110, Note_on_c, 12, 76, 84
14, 28135, Note_on_c, 12, 76, 0
14, 28140, Note_on_c, 12, 76, 84
14, 28165, Note_on_c, 12, 76, 0
14, 28170, Note_on_c, 12, 76, 84
14, 28195, Note_on_c, 12, 76, 0
14, 28200, Note_on_c, 12, 76, 84
14, 28225, Note_on_c, 12, 76, 0
14, 28230, Note_on_c, 12, 76, 84
14, 28255, Note_on_c, 12, 76, 0
14, 28260, Note_on_c, 12, 76, 84
14, 28285, Note_on_c, 12, 76, 0
14, 28290, Note_on_c, 12, 72, 84
14, 28315, Note_on_c, 12, 72, 0
14, 28320, Note_on_c, 12, 67, 84
14, 28345, Note_on_c, 12, 67, 0
14, 28350, Note_on_c, 12, 67, 84
14, 28375, Note_on_c, 12, 67, 0
14, 28380, Note_on_c, 12, 67, 84
14, 28405, Note_on_c, 12, 67, 0
14, 28410, Note_on_c, 12, 64, 84
14, 28435, Note_on_c, 12, 64, 0
14, 28440, Note_on_c, 12, 65, 84
14, 28440, Note_on_c, 12, 71, 84
14, 28465, Note_on_c, 12, 65, 0
14, 28465, Note_on_c, 12, 71, 0
14, 28470, Note_on_c, 12, 65, 84
14, 28470, Note_on_c, 12, 71, 84
14, 28495, Note_on_c, 12, 65, 0
14, 28495, Note_on_c, 12, 71, 0
14, 28500, Note_on_c, 12, 65, 84
14, 28500, Note_on_c, 12, 71, 84
14, 28525, Note_on_c, 12, 65, 0
14, 28525, Note_on_c, 12, 71, 0
14, 28530, Note_on_c, 12, 65, 84
14, 28530, Note_on_c, 12, 71, 84
14, 28555, Note_on_c, 12, 65, 0
14, 28555, Note_on_c, 12, 71, 0
14, 28560, Note_on_c, 12, 64, 84
14, 28560, Note_on_c, 12, 72, 84
14, 28679, Note_on_c, 12, 64, 0
14, 28679, Note_on_c, 12, 72, 0
14, 28920, Note_on_c, 12, 64, 84
14, 28941, Note_on_c, 12, 64, 0
14, 28950, Note_on_c, 12, 67, 84
14, 28971, Note_on_c, 12, 67, 0
14, 28980, Note_on_c, 12, 72, 84
14, 29001, Note_on_c, 12, 72, 0
14, 29010, Note_on_c, 12, 67, 84
14, 29031, Note_on_c, 12, 67, 0
14, 29040, Note_on_c, 12, 64, 84
14, 29061, Note_on_c, 12, 64, 0
14, 29070, Note_on_c, 12, 67, 84
14, 29091, Note_on_c, 12, 67, 0
14, 29100, Note_on_c, 12, 72, 84
14, 29121, Note_on_c, 12, 72, 0
14, 29130, Note_on_c, 12, 67, 84
14, 29151, Note_on_c, 12, 67, 0
14, 29160, Note_on_c, 12, 67, 84
14, 29181, Note_on_c, 12, 67, 0
14, 29190, Note_on_c, 12, 71, 84
14, 29211, Note_on_c, 12, 71, 0
14, 29220, Note_on_c, 12, 74, 84
14, 29241, Note_on_c, 12, 74, 0
14, 29250, Note_on_c, 12, 71, 84
14, 29271, Note_on_c, 12, 71, 0
14, 29280, Note_on_c, 12, 67, 84
14, 29301, Note_on_c, 12, 67, 0
14, 29310, Note_on_c, 12, 72, 84
14, 29331, Note_on_c, 12, 72, 0
14, 29340, Note_on_c, 12, 76, 84
14, 29361, Note_on_c, 12, 76, 0
14, 29370, Note_on_c, 12, 72, 84
14, 29391, Note_on_c, 12, 72, 0
14, 29400, Note_on_c, 12, 67, 84
14, 29421, Note_on_c, 12, 67, 0
14, 29430, Note_on_c, 12, 72, 84
14, 29451, Note_on_c, 12, 72, 0
14, 29460, Note_on_c, 12, 67, 84
14, 29481, Note_on_c, 12, 67, 0
14, 29490, Note_on_c, 12, 64, 84
14, 29511, Note_on_c, 12, 64, 0
14, 29520, Note_on_c, 12, 60, 84
14, 29541, Note_on_c, 12, 60, 0
14, 29550, Note_on_c, 12, 67, 84
14, 29571, Note_on_c, 12, 67, 0
14, 29580, Note_on_c, 12, 72, 84
14, 29601, Note_on_c, 12, 72, 0
14, 29610, Note_on_c, 12, 74, 84
14, 29631, Note_on_c, 12, 74, 0
14, 29640, Note_on_c, 12, 67, 84
14, 29661, Note_on_c, 12, 67, 0
14, 29670, Note_on_c, 12, 72, 84
14, 29691, Note_on_c, 12, 72, 0
14, 29700, Note_on_c, 12, 76, 84
14, 29721, Note_on_c, 12, 76, 0
14, 29730, Note_on_c, 12, 72, 84
14, 29751, Note_on_c, 12, 72, 0
14, 29760, Note_on_c, 12, 67, 84
14, 29781, Note_on_c, 12, 67, 0
14, 29790, Note_on_c, 12, 72, 84
14, 29811, Note_on_c, 12, 72, 0
14, 29820, Note_on_c, 12, 76, 84
14, 29841, Note_on_c, 12, 76, 0
14, 29850, Note_on_c, 12, 72, 84
14, 29871, Note_on_c, 12, 72, 0
14, 29880, Note_on_c, 12, 67, 84
14, 29901, Note_on_c, 12, 67, 0
14, 29910, Note_on_c, 12, 74, 84
14, 29931, Note_on_c, 12, 74, 0
14, 29940, Note_on_c, 12, 77, 84
14, 29961, Note_on_c, 12, 77, 0
14, 29970, Note_on_c, 12, 74, 84
14, 29991, Note_on_c, 12, 74, 0
14, 30000, Note_on_c, 12, 67, 92
14, 30021, Note_on_c, 12, 67, 0
14, 30030, Note_on_c, 12, 76, 84
14, 30051, Note_on_c, 12, 76, 0
14, 30060, Note_on_c, 12, 79, 84
14, 30081, Note_on_c, 12, 79, 0
14, 30090, Note_on_c, 12, 76, 84
14, 30111, Note_on_c, 12, 76, 0
14, 30120, Note_on_c, 12, 72, 84
14, 30141, Note_on_c, 12, 72, 0
14, 30150, Note_on_c, 12, 67, 84
14, 30171, Note_on_c, 12, 67, 0
14, 30180, Note_on_c, 12, 64, 84
14, 30201, Note_on_c, 12, 64, 0
14, 30210, Note_on_c, 12, 67, 84
14, 30231, Note_on_c, 12, 67, 0
14, 30240, Note_on_c, 12, 60, 84
14, 30261, Note_on_c, 12, 60, 0
14, 30270, Note_on_c, 12, 72, 84
14, 30291, Note_on_c, 12, 72, 0
14, 30300, Note_on_c, 12, 76, 84
14, 30321, Note_on_c, 12, 76, 0
14, 30330, Note_on_c, 12, 77, 84
14, 30351, Note_on_c, 12, 77, 0
14, 30360, Note_on_c, 12, 67, 92
14, 30381, Note_on_c, 12, 67, 0
14, 30390, Note_on_c, 12, 76, 84
14, 30411, Note_on_c, 12, 76, 0
14, 30420, Note_on_c, 12, 79, 84
14, 30441, Note_on_c, 12, 79, 0
14, 30450, Note_on_c, 12, 76, 84
14, 30471, Note_on_c, 12, 76, 0
14, 30480, Note_on_c, 12, 72, 84
14, 30501, Note_on_c, 12, 72, 0
14, 30510, Note_on_c, 12, 67, 84
14, 30531, Note_on_c, 12, 67, 0
14, 30540, Note_on_c, 12, 64, 84
14, 30561, Note_on_c, 12, 64, 0
14, 30570, Note_on_c, 12, 67, 84
14, 30591, Note_on_c, 12, 67, 0
14, 30600, Note_on_c, 12, 60, 84
14, 30621, Note_on_c, 12, 60, 0
14, 30630, Note_on_c, 12, 72, 84
14, 30651, Note_on_c, 12, 72, 0
14, 30660, Note_on_c, 12, 72, 84
14, 30681, Note_on_c, 12, 72, 0
14, 30690, Note_on_c, 12, 74, 84
14, 30711, Note_on_c, 12, 74, 0
14, 30720, Note_on_c, 12, 76, 84
14, 30839, Note_on_c, 12, 76, 0
14, 31320, Note_on_c, 12, 70, 44
14, 31671, Note_on_c, 12, 70, 0
14, 31680, Note_on_c, 12, 70, 44
14, 32031, Note_on_c, 12, 70, 0
14, 32040, Note_on_c, 12, 70, 44
14, 32511, Note_on_c, 12, 70, 0
14, 32520, Note_on_c, 12, 71, 44
14, 33231, Note_on_c, 12, 71, 0
14, 33240, Note_on_c, 12, 71, 44
14, 33599, Note_on_c, 12, 71, 0
14, 33600, Note_on_c, 12, 70, 44
14, 33951, Note_on_c, 12, 70, 0
14, 33958, Control_c, 12, 11, 64
14, 33960, Note_on_c, 12, 68, 76
14, 34320, Control_c, 12, 11, 64
14, 34335, Control_c, 12, 11, 67
14, 34350, Control_c, 12, 11, 69
14, 34365, Control_c, 12, 11, 72
14, 34380, Control_c, 12, 11, 75
14, 34395, Control_c, 12, 11, 77
14, 34410, Control_c, 12, 11, 80
14, 34425, Control_c, 12, 11, 82
14, 34440, Control_c, 12, 11, 85
14, 34455, Control_c, 12, 11, 88
14, 34470, Control_c, 12, 11, 90
14, 34485, Control_c, 12, 11, 93
14, 34500, Control_c, 12, 11, 96
14, 34515, Control_c, 12, 11, 98
14, 34530, Control_c, 12, 11, 101
14, 34545, Control_c, 12, 11, 103
14, 34560, Control_c, 12, 11, 106
14, 34575, Control_c, 12, 11, 109
14, 34590, Control_c, 12, 11, 111
14, 34605, Control_c, 12, 11, 114
14, 34620, Control_c, 12, 11, 117
14, 34635, Control_c, 12, 11, 119
14, 34650, Control_c, 12, 11, 122
14, 34665, Control_c, 12, 11, 127
14, 34671, Note_on_c, 12, 68, 0
14, 34680, Note_on_c, 12, 67, 76
14, 34799, Note_on_c, 12, 67, 0
14, 35040, Program_c, 12, 45
14, 35280, Note_on_c, 12, 60, 48
14, 35399, Note_on_c, 12, 60, 0
14, 35400, Note_on_c, 12, 60, 48
14, 35519, Note_on_c, 12, 60, 0
14, 35520, Note_on_c, 12, 60, 48
14, 35639, Note_on_c, 12, 60, 0
14, 35700, Note_on_c, 12, 60, 48
14, 35759, Note_on_c, 12, 60, 0
14, 35760, Note_on_c, 12, 65, 48
14, 35879, Note_on_c, 12, 65, 0
14, 35880, Note_on_c, 12, 65, 48
14, 35999, Note_on_c, 12, 65, 0
14, 36060, Note_on_c, 12, 65, 48
14, 36119, Note_on_c, 12, 65, 0
14, 36120, Note_on_c, 12, 61, 48
14, 36239, Note_on_c, 12, 61, 0
14, 36240, Note_on_c, 12, 61, 48
14, 36359, Note_on_c, 12, 61, 0
14, 36420, Note_on_c, 12, 61, 48
14, 36479, Note_on_c, 12, 61, 0
14, 36480, Note_on_c, 12, 60, 48
14, 36599, Note_on_c, 12, 60, 0
14, 36600, Note_on_c, 12, 60, 48
14, 36719, Note_on_c, 12, 60, 0
14, 36780, Note_on_c, 12, 60, 48
14, 36839, Note_on_c, 12, 60, 0
14, 36840, Note_on_c, 12, 69, 48
14, 36959, Note_on_c, 12, 69, 0
14, 36960, Note_on_c, 12, 70, 48
14, 37079, Note_on_c, 12, 70, 0
14, 37140, Note_on_c, 12, 70, 48
14, 37199, Note_on_c, 12, 70, 0
14, 37200, Note_on_c, 12, 67, 48
14, 37319, Note_on_c, 12, 67, 0
14, 37320, Note_on_c, 12, 68, 48
14, 37439, Note_on_c, 12, 68, 0
14, 37500, Note_on_c, 12, 68, 48
14, 37559, Note_on_c, 12, 68, 0
14, 37560, Note_on_c, 12, 67, 40
14, 37679, Note_on_c, 12, 67, 0
14, 37680, Note_on_c, 12, 70, 40
14, 37680, Note_on_c, 12, 67, 40
14, 37799, Note_on_c, 12, 70, 0
14, 37799, Note_on_c, 12, 67, 0
14, 37800, Note_on_c, 12, 55, 40
14, 37800, Note_on_c, 12, 70, 40
14, 37800, Note_on_c, 12, 63, 40
14, 37919, Note_on_c, 12, 55, 0
14, 37919, Note_on_c, 12, 70, 0
14, 37919, Note_on_c, 12, 63, 0
14, 37920, Note_on_c, 12, 56, 40
14, 37920, Note_on_c, 12, 72, 40
14, 37920, Note_on_c, 12, 63, 40
14, 38039, Note_on_c, 12, 56, 0
14, 38039, Note_on_c, 12, 72, 0
14, 38039, Note_on_c, 12, 63, 0
14, 38160, Program_c, 12, 48
14, 38280, Note_on_c, 12, 68, 44
14, 38751, Note_on_c, 12, 68, 0
14, 38760, Note_on_c, 12, 70, 44
14, 38999, Note_on_c, 12, 70, 0
14, 39000, Note_on_c, 12, 70, 44
14, 39359, Note_on_c, 12, 70, 0
14, 39360, Note_on_c, 12, 67, 44
14, 39599, Note_on_c, 12, 67, 0
14, 39600, Note_on_c, 12, 72, 44
14, 39839, Note_on_c, 12, 72, 0
14, 39840, Note_on_c, 12, 73, 44
14, 40071, Note_on_c, 12, 73, 0
14, 40080, Note_on_c, 12, 70, 44
14, 40199, Note_on_c, 12, 70, 0
14, 40200, Note_on_c, 12, 72, 44
14, 40431, Note_on_c, 12, 72, 0
14, 40440, Note_on_c, 12, 70, 44
14, 40440, Note_on_c, 12, 63, 44
14, 40791, Note_on_c, 12, 70, 0
14, 40791, Note_on_c, 12, 63, 0
14, 40800, Note_on_c, 12, 63, 44
14, 40800, Note_on_c, 12, 72, 44
14, 40855, Note_on_c, 12, 63, 0
14, 40855, Note_on_c, 12, 72, 0
14, 40860, Note_on_c, 12, 72, 76
14, 40860, Note_on_c, 12, 63, 76
14, 40915, Note_on_c, 12, 72, 0
14, 40915, Note_on_c, 12, 63, 0
14, 40920, Note_on_c, 12, 63, 76
14, 40920, Note_on_c, 12, 72, 76
14, 40975, Note_on_c, 12, 63, 0
14, 40975, Note_on_c, 12, 72, 0
14, 40980, Note_on_c, 12, 72, 76
14, 40980, Note_on_c, 12, 63, 76
14, 41035, Note_on_c, 12, 72, 0
14, 41035, Note_on_c, 12, 63, 0
14, 41040, Note_on_c, 12, 72, 76
14, 41040, Note_on_c, 12, 63, 76
14, 41095, Note_on_c, 12, 72, 0
14, 41095, Note_on_c, 12, 63, 0
14, 41100, Note_on_c, 12, 72, 76
14, 41100, Note_on_c, 12, 63, 76
14, 41155, Note_on_c, 12, 72, 0
14, 41155, Note_on_c, 12, 63, 0
14, 41160, Note_on_c, 12, 72, 76
14, 41160, Note_on_c, 12, 63, 76
14, 41215, Note_on_c, 12, 72, 0
14, 41215, Note_on_c, 12, 63, 0
14, 41220, Note_on_c, 12, 63, 76
14, 41220, Note_on_c, 12, 72, 76
14, 41275, Note_on_c, 12, 63, 0
14, 41275, Note_on_c, 12, 72, 0
14, 41280, Note_on_c, 12, 72, 76
14, 41280, Note_on_c, 12, 63, 76
14, 41335, Note_on_c, 12, 72, 0
14, 41335, Note_on_c, 12, 63, 0
14, 41340, Note_on_c, 12, 72, 76
14, 41340, Note_on_c, 12, 63, 76
14, 41395, Note_on_c, 12, 72, 0
14, 41395, Note_on_c, 12, 63, 0
14, 41400, Note_on_c, 12, 63, 76
14, 41400, Note_on_c, 12, 72, 76
14, 41455, Note_on_c, 12, 63, 0
14, 41455, Note_on_c, 12, 72, 0
14, 41460, Note_on_c, 12, 72, 76
14, 41460, Note_on_c, 12, 63, 76
14, 41515, Note_on_c, 12, 72, 0
14, 41515, Note_on_c, 12, 63, 0
14, 41520, Note_on_c, 12, 72, 76
14, 41520, Note_on_c, 12, 63, 76
14, 41575, Note_on_c, 12, 72, 0
14, 41575, Note_on_c, 12, 63, 0
14, 41580, Note_on_c, 12, 75, 76
14, 41635, Note_on_c, 12, 75, 0
14, 41640, Note_on_c, 12, 73, 76
14, 41695, Note_on_c, 12, 73, 0
14, 41700, Note_on_c, 12, 73, 76
14, 41755, Note_on_c, 12, 73, 0
14, 41760, Note_on_c, 12, 73, 76
14, 41815, Note_on_c, 12, 73, 0
14, 41820, Note_on_c, 12, 73, 76
14, 41875, Note_on_c, 12, 73, 0
14, 41880, Note_on_c, 12, 73, 76
14, 41935, Note_on_c, 12, 73, 0
14, 41940, Note_on_c, 12, 73, 76
14, 41995, Note_on_c, 12, 73, 0
14, 42000, Note_on_c, 12, 73, 76
14, 42055, Note_on_c, 12, 73, 0
14, 42060, Note_on_c, 12, 73, 76
14, 42115, Note_on_c, 12, 73, 0
14, 42120, Note_on_c, 12, 74, 76
14, 42175, Note_on_c, 12, 74, 0
14, 42180, Note_on_c, 12, 74, 76
14, 42235, Note_on_c, 12, 74, 0
14, 42240, Note_on_c, 12, 76, 76
14, 42295, Note_on_c, 12, 76, 0
14, 42300, Note_on_c, 12, 76, 76
14, 42300, Note_on_c, 12, 72, 76
14, 42355, Note_on_c, 12, 76, 0
14, 42355, Note_on_c, 12, 72, 0
14, 42360, Note_on_c, 12, 76, 76
14, 42360, Note_on_c, 12, 72, 76
14, 42415, Note_on_c, 12, 76, 0
14, 42415, Note_on_c, 12, 72, 0
14, 42420, Note_on_c, 12, 76, 76
14, 42420, Note_on_c, 12, 72, 76
14, 42475, Note_on_c, 12, 76, 0
14, 42475, Note_on_c, 12, 72, 0
14, 42480, Note_on_c, 12, 72, 76
14, 42480, Note_on_c, 12, 76, 76
14, 42535, Note_on_c, 12, 72, 0
14, 42535, Note_on_c, 12, 76, 0
14, 42540, Note_on_c, 12, 72, 76
14, 42540, Note_on_c, 12, 76, 76
14, 42595, Note_on_c, 12, 72, 0
14, 42595, Note_on_c, 12, 76, 0
14, 42600, Note_on_c, 12, 75, 76
14, 42655, Note_on_c, 12, 75, 0
14, 42660, Note_on_c, 12, 75, 76
14, 42715, Note_on_c, 12, 75, 0
14, 42720, Note_on_c, 12, 73, 76
14, 42775, Note_on_c, 12, 73, 0
14, 42780, Note_on_c, 12, 73, 76
14, 42835, Note_on_c, 12, 73, 0
14, 42840, Note_on_c, 12, 73, 76
14, 42895, Note_on_c, 12, 73, 0
14, 42900, Note_on_c, 12, 73, 76
14, 42955, Note_on_c, 12, 73, 0
14, 42960, Note_on_c, 12, 73, 76
14, 43015, Note_on_c, 12, 73, 0
14, 43020, Note_on_c, 12, 73, 76
14, 43075, Note_on_c, 12, 73, 0
14, 43080, Note_on_c, 12, 72, 76
14, 43135, Note_on_c, 12, 72, 0
14, 43140, Note_on_c, 12, 72, 76
14, 43195, Note_on_c, 12, 72, 0
14, 43200, Note_on_c, 12, 72, 76
14, 43255, Note_on_c, 12, 72, 0
14, 43260, Note_on_c, 12, 72, 76
14, 43315, Note_on_c, 12, 72, 0
14, 43320, Note_on_c, 12, 63, 76
14, 43320, Note_on_c, 12, 70, 76
14, 43470, Note_on_c, 12, 63, 76
14, 43495, Note_on_c, 12, 63, 0
14, 43495, Note_on_c, 12, 70, 0
14, 43499, Note_on_c, 12, 63, 0
14, 43500, Note_on_c, 12, 65, 76
14, 43529, Note_on_c, 12, 65, 0
14, 43530, Note_on_c, 12, 67, 76
14, 43559, Note_on_c, 12, 67, 0
14, 43560, Note_on_c, 12, 68, 76
14, 43589, Note_on_c, 12, 68, 0
14, 43590, Note_on_c, 12, 70, 76
14, 43619, Note_on_c, 12, 70, 0
14, 43620, Note_on_c, 12, 72, 76
14, 43649, Note_on_c, 12, 72, 0
14, 43650, Note_on_c, 12, 74, 76
14, 43675, Note_on_c, 12, 74, 0
14, 43680, Note_on_c, 12, 75, 76
14, 43859, Note_on_c, 12, 75, 0
14, 43860, Note_on_c, 12, 77, 76
14, 43889, Note_on_c, 12, 77, 0
14, 43890, Note_on_c, 12, 79, 76
14, 43919, Note_on_c, 12, 79, 0
14, 43920, Note_on_c, 12, 80, 76
14, 43949, Note_on_c, 12, 80, 0
14, 43950, Note_on_c, 12, 82, 76
14, 43979, Note_on_c, 12, 82, 0
14, 43980, Note_on_c, 12, 84, 76
14, 44009, Note_on_c, 12, 84, 0
14, 44010, Note_on_c, 12, 86, 76
14, 44035, Note_on_c, 12, 86, 0
14, 44040, Note_on_c, 12, 87, 76
14, 44264, Note_on_c, 12, 87, 0
14, 44280, Note_on_c, 12, 58, 44
14, 44391, Note_on_c, 12, 58, 0
14, 44400, Note_on_c, 12, 58, 44
14, 44519, Note_on_c, 12, 58, 0
14, 44640, Note_on_c, 12, 58, 44
14, 44751, Note_on_c, 12, 58, 0
14, 44760, Note_on_c, 12, 58, 44
14, 44879, Note_on_c, 12, 58, 0
14, 45000, Note_on_c, 12, 58, 44
14, 45111, Note_on_c, 12, 58, 0
14, 45120, Note_on_c, 12, 58, 44
14, 45239, Note_on_c, 12, 58, 0
14, 45360, Note_on_c, 12, 58, 44
14, 45471, Note_on_c, 12, 58, 0
14, 45480, Note_on_c, 12, 58, 44
14, 45599, Note_on_c, 12, 58, 0
14, 45720, Note_on_c, 12, 58, 44
14, 45831, Note_on_c, 12, 58, 0
14, 45840, Note_on_c, 12, 58, 44
14, 45959, Note_on_c, 12, 58, 0
14, 46080, Note_on_c, 12, 58, 44
14, 46191, Note_on_c, 12, 58, 0
14, 46200, Note_on_c, 12, 58, 44
14, 46319, Note_on_c, 12, 58, 0
14, 46440, Note_on_c, 12, 56, 44
14, 46551, Note_on_c, 12, 56, 0
14, 46560, Note_on_c, 12, 56, 44
14, 46679, Note_on_c, 12, 56, 0
14, 46800, Note_on_c, 12, 56, 44
14, 46911, Note_on_c, 12, 56, 0
14, 46920, Note_on_c, 12, 56, 44
14, 47039, Note_on_c, 12, 56, 0
14, 47160, Note_on_c, 12, 62, 44
14, 47271, Note_on_c, 12, 62, 0
14, 47280, Note_on_c, 12, 62, 76
14, 47399, Note_on_c, 12, 62, 0
14, 51540, Note_on_c, 12, 70, 52
14, 51584, Note_on_c, 12, 70, 0
14, 51600, Note_on_c, 12, 68, 52
14, 51644, Note_on_c, 12, 68, 0
14, 51660, Note_on_c, 12, 67, 52
14, 51704, Note_on_c, 12, 67, 0
14, 51720, Note_on_c, 12, 65, 52
14, 51764, Note_on_c, 12, 65, 0
14, 52920, Note_on_c, 12, 64, 84
14, 53005, Note_on_c, 12, 64, 0
14, 53010, Note_on_c, 12, 67, 84
14, 53035, Note_on_c, 12, 67, 0
14, 53040, Note_on_c, 12, 55, 84
14, 53040, Note_on_c, 12, 64, 84
14, 53040, Note_on_c, 12, 72, 84
14, 53151, Note_on_c, 12, 55, 0
14, 53151, Note_on_c, 12, 64, 0
14, 53151, Note_on_c, 12, 72, 0
14, 53160, Note_on_c, 12, 55, 84
14, 53160, Note_on_c, 12, 72, 84
14, 53160, Note_on_c, 12, 64, 84
14, 53271, Note_on_c, 12, 55, 0
14, 53271, Note_on_c, 12, 72, 0
14, 53271, Note_on_c, 12, 64, 0
14, 53280, Note_on_c, 12, 71, 84
14, 53280, Note_on_c, 12, 55, 84
14, 53280, Note_on_c, 12, 62, 84
14, 53391, Note_on_c, 12, 71, 0
14, 53391, Note_on_c, 12, 55, 0
14, 53391, Note_on_c, 12, 62, 0
14, 53400, Note_on_c, 12, 72, 84
14, 53400, Note_on_c, 12, 55, 84
14, 53400, Note_on_c, 12, 64, 84
14, 53639, Note_on_c, 12, 55, 0
14, 53639, Note_on_c, 12, 64, 0
14, 53991, Note_on_c, 12, 72, 0
14, 54000, Note_on_c, 12, 64, 84
14, 54085, Note_on_c, 12, 64, 0
14, 54090, Note_on_c, 12, 71, 84
14, 54115, Note_on_c, 12, 71, 0
14, 54120, Note_on_c, 12, 55, 84
14, 54120, Note_on_c, 12, 72, 84
14, 54120, Note_on_c, 12, 64, 84
14, 54231, Note_on_c, 12, 55, 0
14, 54231, Note_on_c, 12, 72, 0
14, 54231, Note_on_c, 12, 64, 0
14, 54240, Note_on_c, 12, 72, 84
14, 54240, Note_on_c, 12, 64, 84
14, 54240, Note_on_c, 12, 55, 84
14, 54351, Note_on_c, 12, 72, 0
14, 54351, Note_on_c, 12, 64, 0
14, 54351, Note_on_c, 12, 55, 0
14, 54360, Note_on_c, 12, 74, 84
14, 54360, Note_on_c, 12, 65, 84
14, 54360, Note_on_c, 12, 55, 84
14, 54471, Note_on_c, 12, 74, 0
14, 54471, Note_on_c, 12, 65, 0
14, 54471, Note_on_c, 12, 55, 0
14, 54480, Note_on_c, 12, 67, 84
14, 54480, Note_on_c, 12, 76, 84
14, 54480, Note_on_c, 12, 55, 84
14, 54719, Note_on_c, 12, 67, 0
14, 54719, Note_on_c, 12, 55, 0
14, 55071, Note_on_c, 12, 76, 0
14, 55080, Note_on_c, 12, 72, 84
14, 55165, Note_on_c, 12, 72, 0
14, 55170, Note_on_c, 12, 74, 84
14, 55195, Note_on_c, 12, 74, 0
14, 55200, Note_on_c, 12, 67, 84
14, 55200, Note_on_c, 12, 76, 84
14, 55200, Note_on_c, 12, 55, 84
14, 55431, Note_on_c, 12, 67, 0
14, 55431, Note_on_c, 12, 76, 0
14, 55431, Note_on_c, 12, 55, 0
14, 55440, Note_on_c, 12, 72, 84
14, 55525, Note_on_c, 12, 72, 0
14, 55530, Note_on_c, 12, 74, 84
14, 55555, Note_on_c, 12, 74, 0
14, 55560, Note_on_c, 12, 76, 84
14, 55560, Note_on_c, 12, 55, 84
14, 55560, Note_on_c, 12, 67, 84
14, 55791, Note_on_c, 12, 76, 0
14, 55791, Note_on_c, 12, 55, 0
14, 55791, Note_on_c, 12, 67, 0
14, 55800, Note_on_c, 12, 72, 84
14, 55885, Note_on_c, 12, 72, 0
14, 55890, Note_on_c, 12, 74, 84
14, 55915, Note_on_c, 12, 74, 0
14, 55920, Note_on_c, 12, 76, 84
14, 55920, Note_on_c, 12, 55, 84
14, 55920, Note_on_c, 12, 67, 84
14, 56159, Note_on_c, 12, 76, 0
14, 56159, Note_on_c, 12, 55, 0
14, 56159, Note_on_c, 12, 67, 0
14, 56520, Program_c, 12, 45
14, 56640, Note_on_c, 12, 55, 48
14, 56640, Note_on_c, 12, 64, 48
14, 56759, Note_on_c, 12, 55, 0
14, 56759, Note_on_c, 12, 64, 0
14, 57000, Note_on_c, 12, 56, 48
14, 57000, Note_on_c, 12, 65, 48
14, 57119, Note_on_c, 12, 56, 0
14, 57119, Note_on_c, 12, 65, 0
14, 57360, Note_on_c, 12, 58, 48
14, 57360, Note_on_c, 12, 67, 48
14, 57479, Note_on_c, 12, 58, 0
14, 57479, Note_on_c, 12, 67, 0
14, 59760, Note_on_c, 12, 59, 48
14, 59879, Note_on_c, 12, 59, 0
14, 59880, Note_on_c, 12, 59, 48
14, 59999, Note_on_c, 12, 59, 0
14, 60000, Note_on_c, 12, 59, 48
14, 60119, Note_on_c, 12, 59, 0
14, 60120, Note_on_c, 12, 59, 48
14, 60239, Note_on_c, 12, 59, 0
14, 60240, Note_on_c, 12, 58, 48
14, 60359, Note_on_c, 12, 58, 0
14, 60360, Note_on_c, 12, 58, 48
14, 60479, Note_on_c, 12, 58, 0
14, 60480, Note_on_c, 12, 58, 48
14, 60599, Note_on_c, 12, 58, 0
14, 60600, Note_on_c, 12, 59, 48
14, 60719, Note_on_c, 12, 59, 0
14, 60720, Note_on_c, 12, 59, 48
14, 60839, Note_on_c, 12, 59, 0
14, 60840, Note_on_c, 12, 59, 48
14, 60959, Note_on_c, 12, 59, 0
14, 60960, Note_on_c, 12, 61, 48
14, 61079, Note_on_c, 12, 61, 0
14, 61080, Note_on_c, 12, 61, 48
14, 61199, Note_on_c, 12, 61, 0
14, 61200, Note_on_c, 12, 61, 48
14, 61319, Note_on_c, 12, 61, 0
14, 61320, Note_on_c, 12, 63, 48
14, 61439, Note_on_c, 12, 63, 0
14, 61440, Note_on_c, 12, 63, 48
14, 61559, Note_on_c, 12, 63, 0
14, 61560, Note_on_c, 12, 63, 48
14, 61679, Note_on_c, 12, 63, 0
14, 61680, Note_on_c, 12, 61, 48
14, 61799, Note_on_c, 12, 61, 0
14, 61800, Note_on_c, 12, 61, 48
14, 61919, Note_on_c, 12, 61, 0
14, 61920, Note_on_c, 12, 61, 48
14, 62039, Note_on_c, 12, 61, 0
14, 62040, Note_on_c, 12, 59, 48
14, 62159, Note_on_c, 12, 59, 0
14, 62160, Note_on_c, 12, 59, 48
14, 62279, Note_on_c, 12, 59, 0
14, 62280, Note_on_c, 12, 59, 48
14, 62399, Note_on_c, 12, 59, 0
14, 62400, Note_on_c, 12, 58, 48
14, 62519, Note_on_c, 12, 58, 0
14, 62520, Note_on_c, 12, 58, 48
14, 62579, Note_on_c, 12, 58, 0
14, 62580, Note_on_c, 12, 59, 50
14, 62639, Note_on_c, 12, 59, 0
14, 62640, Note_on_c, 12, 59, 52
14, 62699, Note_on_c, 12, 59, 0
14, 62700, Note_on_c, 12, 59, 54
14, 62759, Note_on_c, 12, 59, 0
14, 62760, Note_on_c, 12, 58, 56
14, 62879, Note_on_c, 12, 58, 0
14, 62880, Note_on_c, 12, 58, 60
14, 62939, Note_on_c, 12, 58, 0
14, 62940, Note_on_c, 12, 59, 62
14, 62999, Note_on_c, 12, 59, 0
14, 63000, Note_on_c, 12, 59, 64
14, 63059, Note_on_c, 12, 59, 0
14, 63060, Note_on_c, 12, 59, 66
14, 63119, Note_on_c, 12, 59, 0
14, 63120, Note_on_c, 12, 58, 68
14, 63164, Note_on_c, 12, 58, 0
14, 63180, Note_on_c, 12, 63, 68
14, 63180, Note_on_c, 12, 55, 68
14, 63224, Note_on_c, 12, 63, 0
14, 63224, Note_on_c, 12, 55, 0
14, 64200, Program_c, 12, 48
14, 64320, Note_on_c, 12, 60, 48
14, 64379, Note_on_c, 12, 60, 0
14, 64380, Note_on_c, 12, 61, 48
14, 64439, Note_on_c, 12, 61, 0
14, 64440, Note_on_c, 12, 63, 48
14, 64499, Note_on_c, 12, 63, 0
14, 64500, Note_on_c, 12, 65, 48
14, 64555, Note_on_c, 12, 65, 0
14, 64560, Note_on_c, 12, 57, 48
14, 64619, Note_on_c, 12, 57, 0
14, 64620, Note_on_c, 12, 58, 48
14, 64679, Note_on_c, 12, 58, 0
14, 64680, Note_on_c, 12, 60, 48
14, 64739, Note_on_c, 12, 60, 0
14, 64740, Note_on_c, 12, 61, 48
14, 64799, Note_on_c, 12, 61, 0
14, 65540, Control_c, 12, 11, 82
14, 65550, Note_on_c, 12, 63, 84
14, 65558, Control_c, 12, 11, 83
14, 65576, Control_c, 12, 11, 84
14, 65579, Note_on_c, 12, 63, 0
14, 65580, Note_on_c, 12, 65, 84
14, 65594, Control_c, 12, 11, 85
14, 65609, Note_on_c, 12, 65, 0
14, 65610, Note_on_c, 12, 67, 84
14, 65613, Control_c, 12, 11, 86
14, 65631, Control_c, 12, 11, 87
14, 65639, Note_on_c, 12, 67, 0
14, 65640, Note_on_c, 12, 68, 84
14, 65649, Control_c, 12, 11, 88
14, 65667, Control_c, 12, 11, 89
14, 65669, Note_on_c, 12, 68, 0
14, 65670, Note_on_c, 12, 70, 84
14, 65686, Control_c, 12, 11, 90
14, 65699, Note_on_c, 12, 70, 0
14, 65700, Note_on_c, 12, 72, 84
14, 65704, Control_c, 12, 11, 91
14, 65722, Control_c, 12, 11, 92
14, 65729, Note_on_c, 12, 72, 0
14, 65730, Note_on_c, 12, 73, 84
14, 65740, Control_c, 12, 11, 93
14, 65758, Control_c, 12, 11, 94
14, 65759, Note_on_c, 12, 73, 0
14, 65760, Note_on_c, 12, 75, 84
14, 65777, Control_c, 12, 11, 95
14, 65795, Control_c, 12, 11, 96
14, 65813, Control_c, 12, 11, 97
14, 65831, Control_c, 12, 11, 98
14, 65850, Control_c, 12, 11, 99
14, 65868, Control_c, 12, 11, 100
14, 65886, Control_c, 12, 11, 101
14, 65904, Control_c, 12, 11, 102
14, 65923, Control_c, 12, 11, 103
14, 65939, Note_on_c, 12, 75, 0
14, 66050, Control_c, 12, 11, 110
14, 66060, Note_on_c, 12, 75, 84
14, 66068, Control_c, 12, 11, 111
14, 66087, Control_c, 12, 11, 112
14, 66105, Control_c, 12, 11, 113
14, 66123, Control_c, 12, 11, 114
14, 66141, Control_c, 12, 11, 115
14, 66159, Control_c, 12, 11, 116
14, 66171, Note_on_c, 12, 75, 0
14, 66178, Control_c, 12, 11, 117
14, 66180, Note_on_c, 12, 75, 84
14, 66196, Control_c, 12, 11, 118
14, 66214, Control_c, 12, 11, 119
14, 66232, Control_c, 12, 11, 120
14, 66251, Control_c, 12, 11, 121
14, 66269, Control_c, 12, 11, 122
14, 66287, Control_c, 12, 11, 123
14, 66299, Note_on_c, 12, 75, 0
14, 66300, Note_on_c, 12, 73, 84
14, 66305, Control_c, 12, 11, 124
14, 66324, Control_c, 12, 11, 125
14, 66342, Control_c, 12, 11, 126
14, 66355, Note_on_c, 12, 73, 0
14, 66360, Note_on_c, 12, 63, 84
14, 66360, Note_on_c, 12, 72, 84
14, 66471, Note_on_c, 12, 63, 0
14, 66471, Note_on_c, 12, 72, 0
14, 66480, Note_on_c, 12, 72, 84
14, 66569, Note_on_c, 12, 72, 0
14, 66570, Note_on_c, 12, 70, 84
14, 66599, Note_on_c, 12, 70, 0
14, 66600, Note_on_c, 12, 68, 84
14, 66689, Note_on_c, 12, 68, 0
14, 66690, Note_on_c, 12, 72, 84
14, 66715, Note_on_c, 12, 72, 0
14, 66720, Note_on_c, 12, 65, 84
14, 66929, Note_on_c, 12, 65, 0
14, 66930, Note_on_c, 12, 69, 84
14, 66959, Note_on_c, 12, 69, 0
14, 66960, Note_on_c, 12, 70, 84
14, 67049, Note_on_c, 12, 70, 0
14, 67050, Note_on_c, 12, 72, 84
14, 67075, Note_on_c, 12, 72, 0
14, 67080, Note_on_c, 12, 73, 84
14, 67169, Note_on_c, 12, 73, 0
14, 67170, Note_on_c, 12, 72, 84
14, 67199, Note_on_c, 12, 72, 0
14, 67200, Note_on_c, 12, 70, 84
14, 67289, Note_on_c, 12, 70, 0
14, 67290, Note_on_c, 12, 73, 84
14, 67319, Note_on_c, 12, 73, 0
14, 67320, Note_on_c, 12, 67, 84
14, 67409, Note_on_c, 12, 67, 0
14, 67410, Note_on_c, 12, 70, 84
14, 67435, Note_on_c, 12, 70, 0
14, 67440, Note_on_c, 12, 64, 84
14, 67529, Note_on_c, 12, 64, 0
14, 67530, Note_on_c, 12, 67, 84
14, 67555, Note_on_c, 12, 67, 0
14, 67560, Note_on_c, 12, 72, 84
14, 67765, Note_on_c, 12, 72, 0
14, 67770, Note_on_c, 12, 70, 84
14, 67795, Note_on_c, 12, 70, 0
14, 67800, Note_on_c, 12, 69, 84
14, 67889, Note_on_c, 12, 69, 0
14, 67890, Note_on_c, 12, 65, 84
14, 67915, Note_on_c, 12, 65, 0
14, 67920, Note_on_c, 12, 70, 84
14, 68099, Note_on_c, 12, 70, 0
14, 68100, Note_on_c, 12, 73, 84
14, 68155, Note_on_c, 12, 73, 0
14, 68160, Note_on_c, 12, 67, 84
14, 68249, Note_on_c, 12, 67, 0
14, 68250, Note_on_c, 12, 63, 84
14, 68275, Note_on_c, 12, 63, 0
14, 68280, Note_on_c, 12, 68, 84
14, 68391, Note_on_c, 12, 68, 0
14, 68400, Note_on_c, 12, 68, 84
14, 68489, Note_on_c, 12, 68, 0
14, 68490, Note_on_c, 12, 72, 84
14, 68515, Note_on_c, 12, 72, 0
14, 68520, Note_on_c, 12, 75, 92
14, 68579, Note_on_c, 12, 75, 0
14, 68580, Note_on_c, 12, 75, 84
14, 68875, Note_on_c, 12, 75, 0
14, 68880, Note_on_c, 12, 72, 84
14, 68905, Note_on_c, 12, 72, 0
14, 68910, Note_on_c, 12, 60, 84
14, 68910, Note_on_c, 12, 63, 84
14, 68935, Note_on_c, 12, 60, 0
14, 68935, Note_on_c, 12, 63, 0
14, 68940, Note_on_c, 12, 60, 84
14, 68940, Note_on_c, 12, 63, 84
14, 68965, Note_on_c, 12, 60, 0
14, 68965, Note_on_c, 12, 63, 0
14, 68970, Note_on_c, 12, 63, 84
14, 68970, Note_on_c, 12, 60, 84
14, 68995, Note_on_c, 12, 63, 0
14, 68995, Note_on_c, 12, 60, 0
14, 69000, Note_on_c, 12, 63, 84
14, 69000, Note_on_c, 12, 60, 84
14, 69025, Note_on_c, 12, 63, 0
14, 69025, Note_on_c, 12, 60, 0
14, 69030, Note_on_c, 12, 63, 84
14, 69030, Note_on_c, 12, 60, 84
14, 69055, Note_on_c, 12, 63, 0
14, 69055, Note_on_c, 12, 60, 0
14, 69060, Note_on_c, 12, 60, 84
14, 69060, Note_on_c, 12, 63, 84
14, 69085, Note_on_c, 12, 60, 0
14, 69085, Note_on_c, 12, 63, 0
14, 69090, Note_on_c, 12, 60, 84
14, 69090, Note_on_c, 12, 63, 84
14, 69115, Note_on_c, 12, 60, 0
14, 69115, Note_on_c, 12, 63, 0
14, 69120, Note_on_c, 12, 60, 84
14, 69120, Note_on_c, 12, 63, 84
14, 69145, Note_on_c, 12, 60, 0
14, 69145, Note_on_c, 12, 63, 0
14, 69150, Note_on_c, 12, 60, 84
14, 69150, Note_on_c, 12, 63, 84
14, 69175, Note_on_c, 12, 60, 0
14, 69175, Note_on_c, 12, 63, 0
14, 69180, Note_on_c, 12, 63, 84
14, 69180, Note_on_c, 12, 60, 84
14, 69205, Note_on_c, 12, 63, 0
14, 69205, Note_on_c, 12, 60, 0
14, 69210, Note_on_c, 12, 60, 84
14, 69210, Note_on_c, 12, 63, 84
14, 69235, Note_on_c, 12, 60, 0
14, 69235, Note_on_c, 12, 63, 0
14, 69240, Note_on_c, 12, 58, 84
14, 69240, Note_on_c, 12, 63, 84
14, 69265, Note_on_c, 12, 58, 0
14, 69265, Note_on_c, 12, 63, 0
14, 69270, Note_on_c, 12, 58, 84
14, 69270, Note_on_c, 12, 63, 84
14, 69295, Note_on_c, 12, 58, 0
14, 69295, Note_on_c, 12, 63, 0
14, 69300, Note_on_c, 12, 63, 84
14, 69300, Note_on_c, 12, 58, 84
14, 69325, Note_on_c, 12, 63, 0
14, 69325, Note_on_c, 12, 58, 0
14, 69330, Note_on_c, 12, 58, 84
14, 69330, Note_on_c, 12, 63, 84
14, 69355, Note_on_c, 12, 58, 0
14, 69355, Note_on_c, 12, 63, 0
14, 69360, Note_on_c, 12, 63, 84
14, 69360, Note_on_c, 12, 58, 84
14, 69385, Note_on_c, 12, 63, 0
14, 69385, Note_on_c, 12, 58, 0
14, 69390, Note_on_c, 12, 58, 84
14, 69390, Note_on_c, 12, 63, 84
14, 69415, Note_on_c, 12, 58, 0
14, 69415, Note_on_c, 12, 63, 0
14, 69420, Note_on_c, 12, 63, 84
14, 69420, Note_on_c, 12, 58, 84
14, 69445, Note_on_c, 12, 63, 0
14, 69445, Note_on_c, 12, 58, 0
14, 69450, Note_on_c, 12, 63, 84
14, 69450, Note_on_c, 12, 58, 84
14, 69475, Note_on_c, 12, 63, 0
14, 69475, Note_on_c, 12, 58, 0
14, 69480, Note_on_c, 12, 58, 84
14, 69480, Note_on_c, 12, 63, 84
14, 69505, Note_on_c, 12, 58, 0
14, 69505, Note_on_c, 12, 63, 0
14, 69510, Note_on_c, 12, 63, 84
14, 69510, Note_on_c, 12, 58, 84
14, 69535, Note_on_c, 12, 63, 0
14, 69535, Note_on_c, 12, 58, 0
14, 69540, Note_on_c, 12, 63, 84
14, 69540, Note_on_c, 12, 58, 84
14, 69565, Note_on_c, 12, 63, 0
14, 69565, Note_on_c, 12, 58, 0
14, 69570, Note_on_c, 12, 58, 84
14, 69570, Note_on_c, 12, 63, 84
14, 69595, Note_on_c, 12, 58, 0
14, 69595, Note_on_c, 12, 63, 0
14, 69600, Note_on_c, 12, 63, 84
14, 69600, Note_on_c, 12, 60, 84
14, 69625, Note_on_c, 12, 63, 0
14, 69625, Note_on_c, 12, 60, 0
14, 69630, Note_on_c, 12, 56, 84
14, 69655, Note_on_c, 12, 56, 0
14, 69660, Note_on_c, 12, 58, 84
14, 69685, Note_on_c, 12, 58, 0
14, 69690, Note_on_c, 12, 60, 84
14, 69715, Note_on_c, 12, 60, 0
14, 69720, Note_on_c, 12, 61, 84
14, 69745, Note_on_c, 12, 61, 0
14, 69750, Note_on_c, 12, 63, 84
14, 69775, Note_on_c, 12, 63, 0
14, 69780, Note_on_c, 12, 65, 84
14, 69805, Note_on_c, 12, 65, 0
14, 69810, Note_on_c, 12, 67, 84
14, 69835, Note_on_c, 12, 67, 0
14, 69840, Note_on_c, 12, 68, 84
14, 69865, Note_on_c, 12, 68, 0
14, 69870, Note_on_c, 12, 70, 84
14, 69895, Note_on_c, 12, 70, 0
14, 69900, Note_on_c, 12, 72, 84
14, 69925, Note_on_c, 12, 72, 0
14, 69930, Note_on_c, 12, 73, 84
14, 69955, Note_on_c, 12, 73, 0
14, 69960, Note_on_c, 12, 75, 84
14, 70079, Note_on_c, 12, 75, 0
14, 71760, Note_on_c, 12, 68, 52
14, 71760, Note_on_c, 12, 56, 52
14, 72111, Note_on_c, 12, 68, 0
14, 72111, Note_on_c, 12, 56, 0
14, 72120, Note_on_c, 12, 63, 52
14, 72471, Note_on_c, 12, 63, 0
14, 72480, Note_on_c, 12, 63, 52
14, 72480, Note_on_c, 12, 61, 52
14, 72591, Note_on_c, 12, 63, 0
14, 72591, Note_on_c, 12, 61, 0
14, 72600, Note_on_c, 12, 61, 52
14, 72600, Note_on_c, 12, 63, 52
14, 72711, Note_on_c, 12, 61, 0
14, 72711, Note_on_c, 12, 63, 0
14, 72720, Note_on_c, 12, 63, 52
14, 72720, Note_on_c, 12, 61, 52
14, 72831, Note_on_c, 12, 63, 0
14, 72831, Note_on_c, 12, 61, 0
14, 72840, Note_on_c, 12, 63, 52
14, 72840, Note_on_c, 12, 60, 52
14, 72959, Note_on_c, 12, 63, 0
14, 72959, Note_on_c, 12, 60, 0
14, 73080, Note_on_c, 12, 61, 52
14, 73199, Note_on_c, 12, 61, 0
14, 73200, Note_on_c, 12, 60, 52
14, 73319, Note_on_c, 12, 60, 0
14, 73440, Note_on_c, 12, 58, 52
14, 73479, Note_on_c, 12, 58, 0
14, 73480, Note_on_c, 12, 56, 52
14, 73519, Note_on_c, 12, 56, 0
14, 73520, Note_on_c, 12, 55, 52
14, 73555, Note_on_c, 12, 55, 0
14, 73560, Note_on_c, 12, 56, 44
14, 73615, Note_on_c, 12, 56, 0
14, 73620, Note_on_c, 12, 63, 44
14, 73679, Note_on_c, 12, 63, 0
14, 73740, Note_on_c, 12, 63, 44
14, 73799, Note_on_c, 12, 63, 0
14, 73860, Note_on_c, 12, 63, 44
14, 73919, Note_on_c, 12, 63, 0
14, 73980, Note_on_c, 12, 63, 44
14, 74039, Note_on_c, 12, 63, 0
14, 74100, Note_on_c, 12, 63, 44
14, 74159, Note_on_c, 12, 63, 0
14, 74220, Note_on_c, 12, 63, 44
14, 74279, Note_on_c, 12, 63, 0
14, 74340, Note_on_c, 12, 65, 44
14, 74399, Note_on_c, 12, 65, 0
14, 74460, Note_on_c, 12, 65, 44
14, 74519, Note_on_c, 12, 65, 0
14, 74580, Note_on_c, 12, 65, 44
14, 74639, Note_on_c, 12, 65, 0
14, 74700, Note_on_c, 12, 64, 44
14, 74759, Note_on_c, 12, 64, 0
14, 74820, Note_on_c, 12, 64, 44
14, 74879, Note_on_c, 12, 64, 0
14, 74940, Note_on_c, 12, 64, 44
14, 74999, Note_on_c, 12, 64, 0
14, 75060, Note_on_c, 12, 63, 44
14, 75119, Note_on_c, 12, 63, 0
14, 75180, Note_on_c, 12, 63, 44
14, 75239, Note_on_c, 12, 63, 0
14, 75300, Note_on_c, 12, 60, 44
14, 75300, Note_on_c, 12, 63, 44
14, 75359, Note_on_c, 12, 60, 0
14, 75359, Note_on_c, 12, 63, 0
14, 75420, Note_on_c, 12, 60, 44
14, 75420, Note_on_c, 12, 63, 44
14, 75479, Note_on_c, 12, 60, 0
14, 75479, Note_on_c, 12, 63, 0
14, 75540, Note_on_c, 12, 63, 44
14, 75540, Note_on_c, 12, 60, 44
14, 75599, Note_on_c, 12, 63, 0
14, 75599, Note_on_c, 12, 60, 0
14, 75660, Note_on_c, 12, 63, 44
14, 75660, Note_on_c, 12, 60, 44
14, 75719, Note_on_c, 12, 63, 0
14, 75719, Note_on_c, 12, 60, 0
14, 75780, Note_on_c, 12, 65, 44
14, 75780, Note_on_c, 12, 61, 44
14, 75839, Note_on_c, 12, 65, 0
14, 75839, Note_on_c, 12, 61, 0
14, 75900, Note_on_c, 12, 61, 44
14, 75900, Note_on_c, 12, 65, 44
14, 75959, Note_on_c, 12, 61, 0
14, 75959, Note_on_c, 12, 65, 0
14, 76020, Note_on_c, 12, 61, 44
14, 76020, Note_on_c, 12, 65, 44
14, 76079, Note_on_c, 12, 61, 0
14, 76079, Note_on_c, 12, 65, 0
14, 76140, Note_on_c, 12, 61, 44
14, 76199, Note_on_c, 12, 61, 0
14, 76260, Note_on_c, 12, 61, 44
14, 76319, Note_on_c, 12, 61, 0
14, 76380, Note_on_c, 12, 61, 44
14, 76435, Note_on_c, 12, 61, 0
14, 76440, Note_on_c, 12, 60, 44
14, 76465, Note_on_c, 12, 60, 0
14, 76470, Note_on_c, 12, 60, 44
14, 76470, Note_on_c, 12, 63, 44
14, 76495, Note_on_c, 12, 60, 0
14, 76495, Note_on_c, 12, 63, 0
14, 76500, Note_on_c, 12, 63, 44
14, 76500, Note_on_c, 12, 60, 44
14, 76525, Note_on_c, 12, 63, 0
14, 76525, Note_on_c, 12, 60, 0
14, 76530, Note_on_c, 12, 60, 44
14, 76530, Note_on_c, 12, 63, 44
14, 76555, Note_on_c, 12, 60, 0
14, 76555, Note_on_c, 12, 63, 0
14, 76560, Note_on_c, 12, 60, 44
14, 76560, Note_on_c, 12, 63, 44
14, 76585, Note_on_c, 12, 60, 0
14, 76585, Note_on_c, 12, 63, 0
14, 76590, Note_on_c, 12, 63, 46
14, 76590, Note_on_c, 12, 60, 46
14, 76615, Note_on_c, 12, 63, 0
14, 76615, Note_on_c, 12, 60, 0
14, 76620, Note_on_c, 12, 63, 48
14, 76620, Note_on_c, 12, 60, 48
14, 76645, Note_on_c, 12, 63, 0
14, 76645, Note_on_c, 12, 60, 0
14, 76650, Note_on_c, 12, 60, 50
14, 76650, Note_on_c, 12, 63, 50
14, 76675, Note_on_c, 12, 60, 0
14, 76675, Note_on_c, 12, 63, 0
14, 76680, Note_on_c, 12, 60, 52
14, 76680, Note_on_c, 12, 63, 52
14, 76705, Note_on_c, 12, 60, 0
14, 76705, Note_on_c, 12, 63, 0
14, 76710, Note_on_c, 12, 60, 54
14, 76710, Note_on_c, 12, 63, 54
14, 76735, Note_on_c, 12, 60, 0
14, 76735, Note_on_c, 12, 63, 0
14, 76740, Note_on_c, 12, 60, 56
14, 76740, Note_on_c, 12, 63, 56
14, 76765, Note_on_c, 12, 60, 0
14, 76765, Note_on_c, 12, 63, 0
14, 76770, Note_on_c, 12, 60, 58
14, 76770, Note_on_c, 12, 63, 58
14, 76795, Note_on_c, 12, 60, 0
14, 76795, Note_on_c, 12, 63, 0
14, 76800, Note_on_c, 12, 60, 60
14, 76800, Note_on_c, 12, 63, 60
14, 76825, Note_on_c, 12, 60, 0
14, 76825, Note_on_c, 12, 63, 0
14, 76830, Note_on_c, 12, 60, 62
14, 76830, Note_on_c, 12, 63, 62
14, 76855, Note_on_c, 12, 60, 0
14, 76855, Note_on_c, 12, 63, 0
14, 76860, Note_on_c, 12, 60, 64
14, 76860, Note_on_c, 12, 63, 64
14, 76885, Note_on_c, 12, 60, 0
14, 76885, Note_on_c, 12, 63, 0
14, 76890, Note_on_c, 12, 60, 66
14, 76890, Note_on_c, 12, 63, 66
14, 76915, Note_on_c, 12, 60, 0
14, 76915, Note_on_c, 12, 63, 0
14, 76920, Note_on_c, 12, 63, 68
14, 76920, Note_on_c, 12, 60, 68
14, 76945, Note_on_c, 12, 63, 0
14, 76945, Note_on_c, 12, 60, 0
14, 76950, Note_on_c, 12, 63, 70
14, 76950, Note_on_c, 12, 60, 70
14, 76975, Note_on_c, 12, 63, 0
14, 76975, Note_on_c, 12, 60, 0
14, 76980, Note_on_c, 12, 60, 72
14, 76980, Note_on_c, 12, 63, 72
14, 77005, Note_on_c, 12, 60, 0
14, 77005, Note_on_c, 12, 63, 0
14, 77010, Note_on_c, 12, 60, 74
14, 77010, Note_on_c, 12, 63, 74
14, 77035, Note_on_c, 12, 60, 0
14, 77035, Note_on_c, 12, 63, 0
14, 77040, Note_on_c, 12, 63, 76
14, 77040, Note_on_c, 12, 58, 76
14, 77065, Note_on_c, 12, 63, 0
14, 77065, Note_on_c, 12, 58, 0
14, 77070, Note_on_c, 12, 58, 76
14, 77070, Note_on_c, 12, 63, 76
14, 77095, Note_on_c, 12, 58, 0
14, 77095, Note_on_c, 12, 63, 0
14, 77100, Note_on_c, 12, 63, 76
14, 77100, Note_on_c, 12, 58, 76
14, 77125, Note_on_c, 12, 63, 0
14, 77125, Note_on_c, 12, 58, 0
14, 77130, Note_on_c, 12, 58, 76
14, 77130, Note_on_c, 12, 63, 76
14, 77155, Note_on_c, 12, 58, 0
14, 77155, Note_on_c, 12, 63, 0
14, 77160, Note_on_c, 12, 60, 76
14, 77160, Note_on_c, 12, 63, 76
14, 77185, Note_on_c, 12, 60, 0
14, 77185, Note_on_c, 12, 63, 0
14, 77190, Note_on_c, 12, 60, 76
14, 77190, Note_on_c, 12, 63, 76
14, 77215, Note_on_c, 12, 60, 0
14, 77215, Note_on_c, 12, 63, 0
14, 77220, Note_on_c, 12, 60, 76
14, 77220, Note_on_c, 12, 63, 76
14, 77245, Note_on_c, 12, 60, 0
14, 77245, Note_on_c, 12, 63, 0
14, 77250, Note_on_c, 12, 63, 76
14, 77250, Note_on_c, 12, 60, 76
14, 77275, Note_on_c, 12, 63, 0
14, 77275, Note_on_c, 12, 60, 0
14, 77280, Note_on_c, 12, 60, 52
14, 77280, Note_on_c, 12, 63, 52
14, 77305, Note_on_c, 12, 60, 0
14, 77305, Note_on_c, 12, 63, 0
14, 77310, Note_on_c, 12, 63, 53
14, 77310, Note_on_c, 12, 60, 53
14, 77335, Note_on_c, 12, 63, 0
14, 77335, Note_on_c, 12, 60, 0
14, 77340, Note_on_c, 12, 60, 55
14, 77340, Note_on_c, 12, 63, 55
14, 77365, Note_on_c, 12, 60, 0
14, 77365, Note_on_c, 12, 63, 0
14, 77370, Note_on_c, 12, 60, 56
14, 77370, Note_on_c, 12, 63, 56
14, 77395, Note_on_c, 12, 60, 0
14, 77395, Note_on_c, 12, 63, 0
14, 77400, Note_on_c, 12, 63, 58
14, 77400, Note_on_c, 12, 60, 58
14, 77425, Note_on_c, 12, 63, 0
14, 77425, Note_on_c, 12, 60, 0
14, 77430, Note_on_c, 12, 63, 59
14, 77430, Note_on_c, 12, 60, 59
14, 77455, Note_on_c, 12, 63, 0
14, 77455, Note_on_c, 12, 60, 0
14, 77460, Note_on_c, 12, 60, 61
14, 77460, Note_on_c, 12, 63, 61
14, 77485, Note_on_c, 12, 60, 0
14, 77485, Note_on_c, 12, 63, 0
14, 77490, Note_on_c, 12, 63, 62
14, 77490, Note_on_c, 12, 60, 62
14, 77515, Note_on_c, 12, 63, 0
14, 77515, Note_on_c, 12, 60, 0
14, 77520, Note_on_c, 12, 63, 64
14, 77520, Note_on_c, 12, 60, 64
14, 77545, Note_on_c, 12, 63, 0
14, 77545, Note_on_c, 12, 60, 0
14, 77550, Note_on_c, 12, 63, 65
14, 77550, Note_on_c, 12, 60, 65
14, 77575, Note_on_c, 12, 63, 0
14, 77575, Note_on_c, 12, 60, 0
14, 77580, Note_on_c, 12, 63, 67
14, 77580, Note_on_c, 12, 60, 67
14, 77605, Note_on_c, 12, 63, 0
14, 77605, Note_on_c, 12, 60, 0
14, 77610, Note_on_c, 12, 60, 68
14, 77610, Note_on_c, 12, 63, 68
14, 77635, Note_on_c, 12, 60, 0
14, 77635, Note_on_c, 12, 63, 0
14, 77640, Note_on_c, 12, 60, 70
14, 77640, Note_on_c, 12, 63, 70
14, 77665, Note_on_c, 12, 60, 0
14, 77665, Note_on_c, 12, 63, 0
14, 77670, Note_on_c, 12, 60, 71
14, 77670, Note_on_c, 12, 63, 71
14, 77695, Note_on_c, 12, 60, 0
14, 77695, Note_on_c, 12, 63, 0
14, 77700, Note_on_c, 12, 60, 73
14, 77700, Note_on_c, 12, 63, 73
14, 77725, Note_on_c, 12, 60, 0
14, 77725, Note_on_c, 12, 63, 0
14, 77730, Note_on_c, 12, 63, 74
14, 77730, Note_on_c, 12, 60, 74
14, 77755, Note_on_c, 12, 63, 0
14, 77755, Note_on_c, 12, 60, 0
14, 77760, Note_on_c, 12, 58, 76
14, 77760, Note_on_c, 12, 63, 76
14, 77785, Note_on_c, 12, 58, 0
14, 77785, Note_on_c, 12, 63, 0
14, 77790, Note_on_c, 12, 63, 76
14, 77790, Note_on_c, 12, 58, 76
14, 77815, Note_on_c, 12, 63, 0
14, 77815, Note_on_c, 12, 58, 0
14, 77820, Note_on_c, 12, 63, 76
14, 77820, Note_on_c, 12, 58, 76
14, 77845, Note_on_c, 12, 63, 0
14, 77845, Note_on_c, 12, 58, 0
14, 77850, Note_on_c, 12, 58, 76
14, 77850, Note_on_c, 12, 63, 76
14, 77875, Note_on_c, 12, 58, 0
14, 77875, Note_on_c, 12, 63, 0
14, 77880, Note_on_c, 12, 60, 76
14, 77880, Note_on_c, 12, 63, 76
14, 77905, Note_on_c, 12, 60, 0
14, 77905, Note_on_c, 12, 63, 0
14, 77910, Note_on_c, 12, 63, 76
14, 77910, Note_on_c, 12, 60, 76
14, 77935, Note_on_c, 12, 63, 0
14, 77935, Note_on_c, 12, 60, 0
14, 77940, Note_on_c, 12, 63, 76
14, 77940, Note_on_c, 12, 60, 76
14, 77965, Note_on_c, 12, 63, 0
14, 77965, Note_on_c, 12, 60, 0
14, 77970, Note_on_c, 12, 60, 76
14, 77970, Note_on_c, 12, 63, 76
14, 77995, Note_on_c, 12, 60, 0
14, 77995, Note_on_c, 12, 63, 0
14, 78000, Note_on_c, 12, 63, 52
14, 78000, Note_on_c, 12, 60, 52
14, 78025, Note_on_c, 12, 63, 0
14, 78025, Note_on_c, 12, 60, 0
14, 78030, Note_on_c, 12, 60, 56
14, 78030, Note_on_c, 12, 63, 56
14, 78055, Note_on_c, 12, 60, 0
14, 78055, Note_on_c, 12, 63, 0
14, 78060, Note_on_c, 12, 60, 60
14, 78060, Note_on_c, 12, 63, 60
14, 78085, Note_on_c, 12, 60, 0
14, 78085, Note_on_c, 12, 63, 0
14, 78090, Note_on_c, 12, 60, 64
14, 78090, Note_on_c, 12, 63, 64
14, 78115, Note_on_c, 12, 60, 0
14, 78115, Note_on_c, 12, 63, 0
14, 78120, Note_on_c, 12, 60, 68
14, 78120, Note_on_c, 12, 63, 68
14, 78145, Note_on_c, 12, 60, 0
14, 78145, Note_on_c, 12, 63, 0
14, 78150, Note_on_c, 12, 63, 72
14, 78150, Note_on_c, 12, 60, 72
14, 78175, Note_on_c, 12, 63, 0
14, 78175, Note_on_c, 12, 60, 0
14, 78180, Note_on_c, 12, 63, 76
14, 78180, Note_on_c, 12, 60, 76
14, 78205, Note_on_c, 12, 63, 0
14, 78205, Note_on_c, 12, 60, 0
14, 78210, Note_on_c, 12, 63, 80
14, 78210, Note_on_c, 12, 60, 80
14, 78235, Note_on_c, 12, 63, 0
14, 78235, Note_on_c, 12, 60, 0
14, 78240, Note_on_c, 12, 60, 84
14, 78240, Note_on_c, 12, 63, 84
14, 78265, Note_on_c, 12, 60, 0
14, 78265, Note_on_c, 12, 63, 0
14, 78270, Note_on_c, 12, 60, 84
14, 78270, Note_on_c, 12, 63, 84
14, 78295, Note_on_c, 12, 60, 0
14, 78295, Note_on_c, 12, 63, 0
14, 78300, Note_on_c, 12, 60, 84
14, 78300, Note_on_c, 12, 63, 84
14, 78325, Note_on_c, 12, 60, 0
14, 78325, Note_on_c, 12, 63, 0
14, 78330, Note_on_c, 12, 60, 84
14, 78330, Note_on_c, 12, 63, 84
14, 78355, Note_on_c, 12, 60, 0
14, 78355, Note_on_c, 12, 63, 0
14, 78360, Note_on_c, 12, 63, 84
14, 78360, Note_on_c, 12, 58, 84
14, 78479, Note_on_c, 12, 63, 0
14, 78479, Note_on_c, 12, 58, 0
14, 80280, Control_c, 12, 11, 80
14, 80400, Note_on_c, 12, 68, 76
14, 80400, Control_c, 12, 11, 80
14, 80415, Control_c, 12, 11, 82
14, 80430, Control_c, 12, 11, 84
14, 80445, Control_c, 12, 11, 86
14, 80460, Control_c, 12, 11, 88
14, 80475, Control_c, 12, 11, 90
14, 80490, Control_c, 12, 11, 92
14, 80505, Control_c, 12, 11, 94
14, 80520, Control_c, 12, 11, 96
14, 80535, Control_c, 12, 11, 98
14, 80550, Control_c, 12, 11, 100
14, 80565, Control_c, 12, 11, 102
14, 80580, Control_c, 12, 11, 104
14, 80595, Control_c, 12, 11, 105
14, 80610, Control_c, 12, 11, 107
14, 80625, Control_c, 12, 11, 109
14, 80640, Control_c, 12, 11, 111
14, 80655, Control_c, 12, 11, 113
14, 80670, Control_c, 12, 11, 115
14, 80685, Control_c, 12, 11, 117
14, 80695, Note_on_c, 12, 68, 0
14, 80700, Note_on_c, 12, 68, 76
14, 80700, Control_c, 12, 11, 119
14, 80715, Control_c, 12, 11, 121
14, 80730, Control_c, 12, 11, 123
14, 80745, Control_c, 12, 11, 127
14, 80755, Note_on_c, 12, 68, 0
14, 80760, Note_on_c, 12, 75, 76
14, 80819, Note_on_c, 12, 75, 0
14, 80820, Note_on_c, 12, 73, 76
14, 80879, Note_on_c, 12, 73, 0
14, 80880, Note_on_c, 12, 72, 84
14, 80939, Note_on_c, 12, 72, 0
14, 80940, Note_on_c, 12, 72, 76
14, 81055, Note_on_c, 12, 72, 0
14, 81060, Note_on_c, 12, 72, 76
14, 81115, Note_on_c, 12, 72, 0
14, 81120, Note_on_c, 12, 67, 76
14, 81239, Note_on_c, 12, 67, 0
14, 81240, Note_on_c, 12, 68, 84
14, 81299, Note_on_c, 12, 68, 0
14, 81300, Note_on_c, 12, 68, 76
14, 81300, Control_c, 12, 11, 127
14, 81313, Control_c, 12, 11, 122
14, 81327, Control_c, 12, 11, 117
14, 81340, Control_c, 12, 11, 111
14, 81353, Control_c, 12, 11, 106
14, 81367, Control_c, 12, 11, 101
14, 81380, Control_c, 12, 11, 96
14, 81393, Control_c, 12, 11, 90
14, 81415, Note_on_c, 12, 68, 0
14, 81417, Control_c, 12, 11, 80
14, 81420, Note_on_c, 12, 63, 76
14, 81479, Note_on_c, 12, 63, 0
14, 81480, Note_on_c, 12, 61, 76
14, 81599, Note_on_c, 12, 61, 0
14, 81720, Control_c, 12, 11, 127
14, 81840, Note_on_c, 12, 61, 44
14, 81959, Note_on_c, 12, 61, 0
14, 82200, Note_on_c, 12, 60, 44
14, 82559, Note_on_c, 12, 60, 0
14, 82560, Note_on_c, 12, 60, 44
14, 82791, Note_on_c, 12, 60, 0
14, 82800, Note_on_c, 12, 60, 44
14, 82889, Note_on_c, 12, 60, 0
14, 82890, Note_on_c, 12, 68, 44
14, 82915, Note_on_c, 12, 68, 0
14, 82920, Note_on_c, 12, 72, 44
14, 83279, Note_on_c, 12, 72, 0
14, 83280, Note_on_c, 12, 72, 44
14, 83511, Note_on_c, 12, 72, 0
14, 83520, Note_on_c, 12, 68, 44
14, 83609, Note_on_c, 12, 68, 0
14, 83610, Note_on_c, 12, 72, 44
14, 83635, Note_on_c, 12, 72, 0
14, 83640, Note_on_c, 12, 72, 44
14, 83999, Note_on_c, 12, 72, 0
14, 84000, Note_on_c, 12, 72, 44
14, 84231, Note_on_c, 12, 72, 0
14, 84240, Note_on_c, 12, 60, 44
14, 84329, Note_on_c, 12, 60, 0
14, 84330, Note_on_c, 12, 63, 44
14, 84355, Note_on_c, 12, 63, 0
14, 84360, Note_on_c, 12, 68, 44
14, 84599, Note_on_c, 12, 68, 0
14, 86400, Note_on_c, 12, 68, 76
14, 86431, Note_on_c, 12, 68, 0
14, 86440, Note_on_c, 12, 60, 76
14, 86471, Note_on_c, 12, 60, 0
14, 86480, Note_on_c, 12, 63, 76
14, 86511, Note_on_c, 12, 63, 0
14, 86520, Note_on_c, 12, 68, 76
14, 86551, Note_on_c, 12, 68, 0
14, 86560, Note_on_c, 12, 72, 76
14, 86560, Note_on_c, 12, 63, 76
14, 86591, Note_on_c, 12, 72, 0
14, 86591, Note_on_c, 12, 63, 0
14, 86600, Note_on_c, 12, 72, 76
14, 86600, Note_on_c, 12, 63, 76
14, 86631, Note_on_c, 12, 72, 0
14, 86631, Note_on_c, 12, 63, 0
14, 86640, Note_on_c, 12, 72, 76
14, 86640, Note_on_c, 12, 63, 76
14, 86671, Note_on_c, 12, 72, 0
14, 86671, Note_on_c, 12, 63, 0
14, 86680, Note_on_c, 12, 72, 76
14, 86680, Note_on_c, 12, 63, 76
14, 86711, Note_on_c, 12, 72, 0
14, 86711, Note_on_c, 12, 63, 0
14, 86720, Note_on_c, 12, 72, 76
14, 86720, Note_on_c, 12, 63, 76
14, 86751, Note_on_c, 12, 72, 0
14, 86751, Note_on_c, 12, 63, 0
14, 86760, Note_on_c, 12, 72, 76
14, 86760, Note_on_c, 12, 63, 76
14, 86791, Note_on_c, 12, 72, 0
14, 86791, Note_on_c, 12, 63, 0
14, 86800, Note_on_c, 12, 72, 76
14, 86800, Note_on_c, 12, 63, 76
14, 86831, Note_on_c, 12, 72, 0
14, 86831, Note_on_c, 12, 63, 0
14, 86840, Note_on_c, 12, 72, 76
14, 86840, Note_on_c, 12, 63, 76
14, 86871, Note_on_c, 12, 72, 0
14, 86871, Note_on_c, 12, 63, 0
14, 86880, Note_on_c, 12, 72, 84
14, 86880, Note_on_c, 12, 63, 84
14, 86999, Note_on_c, 12, 72, 0
14, 86999, Note_on_c, 12, 63, 0
14, 87240, Note_on_c, 12, 79, 84
14, 87240, Note_on_c, 12, 70, 84
14, 87240, Note_on_c, 12, 63, 84
14, 87359, Note_on_c, 12, 79, 0
14, 87359, Note_on_c, 12, 70, 0
14, 87359, Note_on_c, 12, 63, 0
14, 87600, Note_on_c, 12, 80, 84
14, 87600, Note_on_c, 12, 72, 84
14, 87600, Note_on_c, 12, 63, 84
14, 87719, Note_on_c, 12, 80, 0
14, 87719, Note_on_c, 12, 72, 0
14, 87719, Note_on_c, 12, 63, 0
14, 87840, Note_on_c, 12, 79, 52
14, 87840, Note_on_c, 12, 70, 52
14, 87840, Note_on_c, 12, 63, 52
14, 87929, Note_on_c, 12, 79, 0
14, 87929, Note_on_c, 12, 70, 0
14, 87929, Note_on_c, 12, 63, 0
14, 87960, Note_on_c, 12, 80, 52
14, 87960, Note_on_c, 12, 72, 52
14, 87960, Note_on_c, 12, 63, 52
14, 88049, Note_on_c, 12, 80, 0
14, 88049, Note_on_c, 12, 72, 0
14, 88049, Note_on_c, 12, 63, 0
14, 88320, Note_on_c, 12, 79, 84
14, 88320, Note_on_c, 12, 70, 84
14, 88320, Note_on_c, 12, 63, 84
14, 88439, Note_on_c, 12, 79, 0
14, 88439, Note_on_c, 12, 70, 0
14, 88439, Note_on_c, 12, 63, 0
14, 88680, Note_on_c, 12, 80, 84
14, 88680, Note_on_c, 12, 72, 84
14, 88680, Note_on_c, 12, 63, 84
14, 88680, Note_on_c, 12, 56, 84
14, 88799, Note_on_c, 12, 80, 0
14, 88799, Note_on_c, 12, 72, 0
14, 88799, Note_on_c, 12, 63, 0
14, 88799, Note_on_c, 12, 56, 0
14, 88799, End_track
15, 0, Start_track
15, 0, Title_t, "Viola "
15, 0, MIDI_port, 0
15, 0, Program_c, 13, 48
15, 0, Control_c, 13, 11, 127
15, 0, Control_c, 13, 10, 70
15, 0, Control_c, 13, 7, 96
15, 0, Note_on_c, 13, 51, 48
15, 89, Note_on_c, 13, 51, 0
15, 90, Note_on_c, 13, 56, 48
15, 115, Note_on_c, 13, 56, 0
15, 120, Note_on_c, 13, 60, 48
15, 209, Note_on_c, 13, 60, 0
15, 240, Note_on_c, 13, 60, 48
15, 329, Note_on_c, 13, 60, 0
15, 330, Note_on_c, 13, 58, 48
15, 359, Note_on_c, 13, 58, 0
15, 360, Note_on_c, 13, 56, 48
15, 449, Note_on_c, 13, 56, 0
15, 450, Note_on_c, 13, 60, 48
15, 475, Note_on_c, 13, 60, 0
15, 480, Note_on_c, 13, 53, 48
15, 689, Note_on_c, 13, 53, 0
15, 690, Note_on_c, 13, 57, 48
15, 719, Note_on_c, 13, 57, 0
15, 720, Note_on_c, 13, 58, 48
15, 809, Note_on_c, 13, 58, 0
15, 810, Note_on_c, 13, 60, 48
15, 835, Note_on_c, 13, 60, 0
15, 840, Note_on_c, 13, 61, 48
15, 929, Note_on_c, 13, 61, 0
15, 930, Note_on_c, 13, 60, 48
15, 955, Note_on_c, 13, 60, 0
15, 960, Note_on_c, 13, 58, 48
15, 1049, Note_on_c, 13, 58, 0
15, 1050, Note_on_c, 13, 61, 48
15, 1079, Note_on_c, 13, 61, 0
15, 1080, Note_on_c, 13, 55, 48
15, 1169, Note_on_c, 13, 55, 0
15, 1170, Note_on_c, 13, 58, 48
15, 1195, Note_on_c, 13, 58, 0
15, 1200, Note_on_c, 13, 52, 48
15, 1289, Note_on_c, 13, 52, 0
15, 1290, Note_on_c, 13, 55, 48
15, 1315, Note_on_c, 13, 55, 0
15, 1320, Note_on_c, 13, 60, 48
15, 1529, Note_on_c, 13, 60, 0
15, 1530, Note_on_c, 13, 58, 48
15, 1555, Note_on_c, 13, 58, 0
15, 1560, Note_on_c, 13, 57, 48
15, 1649, Note_on_c, 13, 57, 0
15, 1650, Note_on_c, 13, 53, 48
15, 1675, Note_on_c, 13, 53, 0
15, 1680, Note_on_c, 13, 58, 48
15, 1859, Note_on_c, 13, 58, 0
15, 1860, Note_on_c, 13, 61, 48
15, 1915, Note_on_c, 13, 61, 0
15, 1920, Note_on_c, 13, 55, 48
15, 2009, Note_on_c, 13, 55, 0
15, 2010, Note_on_c, 13, 51, 48
15, 2035, Note_on_c, 13, 51, 0
15, 2040, Note_on_c, 13, 56, 48
15, 2151, Note_on_c, 13, 56, 0
15, 2160, Note_on_c, 13, 56, 48
15, 2249, Note_on_c, 13, 56, 0
15, 2250, Note_on_c, 13, 60, 48
15, 2275, Note_on_c, 13, 60, 0
15, 2280, Note_on_c, 13, 63, 76
15, 2280, Control_c, 13, 11, 127
15, 2295, Control_c, 13, 11, 125
15, 2310, Control_c, 13, 11, 123
15, 2325, Control_c, 13, 11, 121
15, 2340, Control_c, 13, 11, 119
15, 2355, Control_c, 13, 11, 117
15, 2370, Control_c, 13, 11, 115
15, 2385, Control_c, 13, 11, 113
15, 2400, Control_c, 13, 11, 111
15, 2415, Control_c, 13, 11, 109
15, 2430, Control_c, 13, 11, 107
15, 2445, Control_c, 13, 11, 105
15, 2460, Control_c, 13, 11, 104
15, 2475, Control_c, 13, 11, 102
15, 2490, Control_c, 13, 11, 100
15, 2505, Control_c, 13, 11, 98
15, 2520, Control_c, 13, 11, 96
15, 2535, Control_c, 13, 11, 94
15, 2550, Control_c, 13, 11, 92
15, 2565, Control_c, 13, 11, 90
15, 2580, Control_c, 13, 11, 88
15, 2595, Control_c, 13, 11, 86
15, 2610, Control_c, 13, 11, 84
15, 2625, Control_c, 13, 11, 82
15, 2631, Note_on_c, 13, 63, 0
15, 2640, Note_on_c, 13, 60, 76
15, 2640, Control_c, 13, 11, 80
15, 2759, Note_on_c, 13, 60, 0
15, 2880, Note_on_c, 13, 60, 76
15, 2880, Note_on_c, 13, 51, 76
15, 2969, Note_on_c, 13, 60, 0
15, 2970, Note_on_c, 13, 56, 76
15, 2995, Note_on_c, 13, 51, 0
15, 2995, Note_on_c, 13, 56, 0
15, 2998, Control_c, 13, 11, 127
15, 3000, Note_on_c, 13, 51, 76
15, 3000, Note_on_c, 13, 55, 76
15, 3359, Note_on_c, 13, 51, 0
15, 3359, Note_on_c, 13, 55, 0
15, 3360, Note_on_c, 13, 56, 52
15, 3360, Note_on_c, 13, 51, 52
15, 3479, Note_on_c, 13, 56, 0
15, 3479, Note_on_c, 13, 51, 0
15, 5280, Control_c, 13, 11, 80
15, 5520, Note_on_c, 13, 68, 76
15, 5871, Note_on_c, 13, 68, 0
15, 5880, Control_c, 13, 11, 80
15, 5880, Note_on_c, 13, 63, 76
15, 5895, Control_c, 13, 11, 82
15, 5910, Control_c, 13, 11, 84
15, 5925, Control_c, 13, 11, 86
15, 5940, Control_c, 13, 11, 88
15, 5955, Control_c, 13, 11, 90
15, 5970, Control_c, 13, 11, 92
15, 5985, Control_c, 13, 11, 94
15, 6000, Control_c, 13, 11, 96
15, 6015, Control_c, 13, 11, 98
15, 6030, Control_c, 13, 11, 100
15, 6045, Control_c, 13, 11, 102
15, 6060, Control_c, 13, 11, 104
15, 6075, Control_c, 13, 11, 105
15, 6090, Control_c, 13, 11, 107
15, 6105, Control_c, 13, 11, 109
15, 6120, Control_c, 13, 11, 111
15, 6135, Control_c, 13, 11, 113
15, 6150, Control_c, 13, 11, 115
15, 6165, Control_c, 13, 11, 117
15, 6180, Control_c, 13, 11, 119
15, 6195, Control_c, 13, 11, 121
15, 6210, Control_c, 13, 11, 123
15, 6225, Control_c, 13, 11, 127
15, 6231, Note_on_c, 13, 63, 0
15, 6240, Note_on_c, 13, 61, 76
15, 6240, Note_on_c, 13, 58, 76
15, 6351, Note_on_c, 13, 61, 0
15, 6351, Note_on_c, 13, 58, 0
15, 6360, Note_on_c, 13, 58, 76
15, 6360, Note_on_c, 13, 61, 76
15, 6471, Note_on_c, 13, 58, 0
15, 6471, Note_on_c, 13, 61, 0
15, 6480, Note_on_c, 13, 58, 76
15, 6480, Note_on_c, 13, 61, 76
15, 6569, Note_on_c, 13, 58, 0
15, 6570, Note_on_c, 13, 55, 76
15, 6591, Note_on_c, 13, 61, 0
15, 6595, Note_on_c, 13, 55, 0
15, 6600, Note_on_c, 13, 60, 52
15, 6600, Note_on_c, 13, 56, 52
15, 6719, Note_on_c, 13, 60, 0
15, 6719, Note_on_c, 13, 56, 0
15, 7200, Note_on_c, 13, 49, 76
15, 7239, Note_on_c, 13, 49, 0
15, 7240, Note_on_c, 13, 48, 76
15, 7279, Note_on_c, 13, 48, 0
15, 7280, Note_on_c, 13, 49, 76
15, 7315, Note_on_c, 13, 49, 0
15, 7320, Note_on_c, 13, 48, 76
15, 7379, Note_on_c, 13, 48, 0
15, 7440, Note_on_c, 13, 48, 52
15, 7499, Note_on_c, 13, 48, 0
15, 7560, Note_on_c, 13, 48, 52
15, 7619, Note_on_c, 13, 48, 0
15, 7680, Note_on_c, 13, 48, 52
15, 7799, Note_on_c, 13, 48, 0
15, 8040, Note_on_c, 13, 48, 52
15, 8069, Note_on_c, 13, 48, 0
15, 8080, Note_on_c, 13, 56, 52
15, 8109, Note_on_c, 13, 56, 0
15, 8120, Note_on_c, 13, 51, 52
15, 8149, Note_on_c, 13, 51, 0
15, 8160, Note_on_c, 13, 48, 52
15, 8189, Note_on_c, 13, 48, 0
15, 8200, Note_on_c, 13, 56, 52
15, 8229, Note_on_c, 13, 56, 0
15, 8240, Note_on_c, 13, 51, 52
15, 8269, Note_on_c, 13, 51, 0
15, 8280, Note_on_c, 13, 51, 52
15, 8309, Note_on_c, 13, 51, 0
15, 8320, Note_on_c, 13, 58, 52
15, 8349, Note_on_c, 13, 58, 0
15, 8360, Note_on_c, 13, 55, 52
15, 8389, Note_on_c, 13, 55, 0
15, 8400, Note_on_c, 13, 51, 52
15, 8429, Note_on_c, 13, 51, 0
15, 8440, Note_on_c, 13, 60, 52
15, 8469, Note_on_c, 13, 60, 0
15, 8480, Note_on_c, 13, 56, 52
15, 8509, Note_on_c, 13, 56, 0
15, 8520, Note_on_c, 13, 51, 52
15, 8549, Note_on_c, 13, 51, 0
15, 8560, Note_on_c, 13, 56, 52
15, 8589, Note_on_c, 13, 56, 0
15, 8600, Note_on_c, 13, 48, 52
15, 8629, Note_on_c, 13, 48, 0
15, 8640, Note_on_c, 13, 51, 52
15, 8669, Note_on_c, 13, 51, 0
15, 8680, Note_on_c, 13, 56, 52
15, 8709, Note_on_c, 13, 56, 0
15, 8720, Note_on_c, 13, 58, 52
15, 8749, Note_on_c, 13, 58, 0
15, 8760, Note_on_c, 13, 51, 52
15, 8789, Note_on_c, 13, 51, 0
15, 8800, Note_on_c, 13, 60, 52
15, 8829, Note_on_c, 13, 60, 0
15, 8840, Note_on_c, 13, 56, 52
15, 8869, Note_on_c, 13, 56, 0
15, 8880, Note_on_c, 13, 51, 52
15, 8909, Note_on_c, 13, 51, 0
15, 8920, Note_on_c, 13, 60, 52
15, 8949, Note_on_c, 13, 60, 0
15, 8960, Note_on_c, 13, 56, 52
15, 8989, Note_on_c, 13, 56, 0
15, 9000, Note_on_c, 13, 51, 52
15, 9029, Note_on_c, 13, 51, 0
15, 9040, Note_on_c, 13, 61, 52
15, 9069, Note_on_c, 13, 61, 0
15, 9080, Note_on_c, 13, 58, 52
15, 9109, Note_on_c, 13, 58, 0
15, 9120, Note_on_c, 13, 51, 52
15, 9149, Note_on_c, 13, 51, 0
15, 9160, Note_on_c, 13, 63, 52
15, 9189, Note_on_c, 13, 63, 0
15, 9200, Note_on_c, 13, 60, 52
15, 9229, Note_on_c, 13, 60, 0
15, 9240, Note_on_c, 13, 56, 52
15, 9269, Note_on_c, 13, 56, 0
15, 9280, Note_on_c, 13, 60, 52
15, 9309, Note_on_c, 13, 60, 0
15, 9320, Note_on_c, 13, 63, 52
15, 9349, Note_on_c, 13, 63, 0
15, 9360, Note_on_c, 13, 68, 52
15, 9479, Note_on_c, 13, 68, 0
15, 9600, Note_on_c, 13, 69, 44
15, 9839, Note_on_c, 13, 69, 0
15, 9960, Note_on_c, 13, 69, 44
15, 10191, Note_on_c, 13, 69, 0
15, 10200, Note_on_c, 13, 72, 84
15, 10551, Note_on_c, 13, 72, 0
15, 10560, Note_on_c, 13, 72, 84
15, 10645, Note_on_c, 13, 72, 0
15, 10650, Note_on_c, 13, 67, 84
15, 10675, Note_on_c, 13, 67, 0
15, 10680, Note_on_c, 13, 64, 84
15, 10769, Note_on_c, 13, 64, 0
15, 10800, Note_on_c, 13, 55, 84
15, 10800, Note_on_c, 13, 65, 84
15, 10889, Note_on_c, 13, 55, 0
15, 10889, Note_on_c, 13, 65, 0
15, 10920, Note_on_c, 13, 48, 84
15, 10920, Note_on_c, 13, 55, 84
15, 10920, Note_on_c, 13, 64, 84
15, 11039, Note_on_c, 13, 48, 0
15, 11039, Note_on_c, 13, 55, 0
15, 11039, Note_on_c, 13, 64, 0
15, 11280, Note_on_c, 13, 52, 84
15, 11309, Note_on_c, 13, 52, 0
15, 11320, Note_on_c, 13, 60, 84
15, 11349, Note_on_c, 13, 60, 0
15, 11360, Note_on_c, 13, 55, 84
15, 11389, Note_on_c, 13, 55, 0
15, 11400, Note_on_c, 13, 52, 84
15, 11429, Note_on_c, 13, 52, 0
15, 11440, Note_on_c, 13, 60, 84
15, 11469, Note_on_c, 13, 60, 0
15, 11480, Note_on_c, 13, 55, 84
15, 11509, Note_on_c, 13, 55, 0
15, 11520, Note_on_c, 13, 55, 84
15, 11549, Note_on_c, 13, 55, 0
15, 11560, Note_on_c, 13, 62, 84
15, 11589, Note_on_c, 13, 62, 0
15, 11600, Note_on_c, 13, 59, 84
15, 11629, Note_on_c, 13, 59, 0
15, 11640, Note_on_c, 13, 55, 84
15, 11669, Note_on_c, 13, 55, 0
15, 11680, Note_on_c, 13, 64, 84
15, 11709, Note_on_c, 13, 64, 0
15, 11720, Note_on_c, 13, 60, 84
15, 11749, Note_on_c, 13, 60, 0
15, 11760, Note_on_c, 13, 55, 84
15, 11789, Note_on_c, 13, 55, 0
15, 11800, Note_on_c, 13, 52, 84
15, 11829, Note_on_c, 13, 52, 0
15, 11840, Note_on_c, 13, 48, 84
15, 11869, Note_on_c, 13, 48, 0
15, 11880, Note_on_c, 13, 55, 84
15, 11909, Note_on_c, 13, 55, 0
15, 11920, Note_on_c, 13, 60, 84
15, 11949, Note_on_c, 13, 60, 0
15, 11960, Note_on_c, 13, 62, 84
15, 11989, Note_on_c, 13, 62, 0
15, 12000, Note_on_c, 13, 55, 84
15, 12029, Note_on_c, 13, 55, 0
15, 12040, Note_on_c, 13, 64, 84
15, 12069, Note_on_c, 13, 64, 0
15, 12080, Note_on_c, 13, 60, 84
15, 12109, Note_on_c, 13, 60, 0
15, 12120, Note_on_c, 13, 55, 84
15, 12149, Note_on_c, 13, 55, 0
15, 12160, Note_on_c, 13, 64, 84
15, 12189, Note_on_c, 13, 64, 0
15, 12200, Note_on_c, 13, 60, 84
15, 12229, Note_on_c, 13, 60, 0
15, 12240, Note_on_c, 13, 55, 84
15, 12269, Note_on_c, 13, 55, 0
15, 12280, Note_on_c, 13, 65, 84
15, 12309, Note_on_c, 13, 65, 0
15, 12320, Note_on_c, 13, 62, 84
15, 12349, Note_on_c, 13, 62, 0
15, 12360, Note_on_c, 13, 55, 92
15, 12389, Note_on_c, 13, 55, 0
15, 12400, Note_on_c, 13, 67, 84
15, 12429, Note_on_c, 13, 67, 0
15, 12440, Note_on_c, 13, 64, 84
15, 12469, Note_on_c, 13, 64, 0
15, 12480, Note_on_c, 13, 60, 84
15, 12509, Note_on_c, 13, 60, 0
15, 12520, Note_on_c, 13, 55, 84
15, 12549, Note_on_c, 13, 55, 0
15, 12560, Note_on_c, 13, 52, 84
15, 12589, Note_on_c, 13, 52, 0
15, 12600, Note_on_c, 13, 48, 84
15, 12629, Note_on_c, 13, 48, 0
15, 12640, Note_on_c, 13, 64, 84
15, 12669, Note_on_c, 13, 64, 0
15, 12680, Note_on_c, 13, 65, 84
15, 12709, Note_on_c, 13, 65, 0
15, 12720, Note_on_c, 13, 48, 92
15, 12749, Note_on_c, 13, 48, 0
15, 12760, Note_on_c, 13, 67, 84
15, 12789, Note_on_c, 13, 67, 0
15, 12800, Note_on_c, 13, 64, 84
15, 12829, Note_on_c, 13, 64, 0
15, 12840, Note_on_c, 13, 60, 84
15, 12869, Note_on_c, 13, 60, 0
15, 12880, Note_on_c, 13, 55, 84
15, 12909, Note_on_c, 13, 55, 0
15, 12920, Note_on_c, 13, 52, 84
15, 12949, Note_on_c, 13, 52, 0
15, 12960, Note_on_c, 13, 48, 84
15, 12989, Note_on_c, 13, 48, 0
15, 13000, Note_on_c, 13, 60, 84
15, 13000, Note_on_c, 13, 64, 84
15, 13029, Note_on_c, 13, 60, 0
15, 13029, Note_on_c, 13, 64, 0
15, 13040, Note_on_c, 13, 65, 84
15, 13040, Note_on_c, 13, 62, 84
15, 13069, Note_on_c, 13, 65, 0
15, 13069, Note_on_c, 13, 62, 0
15, 13080, Note_on_c, 13, 64, 84
15, 13080, Note_on_c, 13, 67, 84
15, 13199, Note_on_c, 13, 64, 0
15, 13199, Note_on_c, 13, 67, 0
15, 13680, Note_on_c, 13, 67, 44
15, 14031, Note_on_c, 13, 67, 0
15, 14040, Note_on_c, 13, 67, 44
15, 14391, Note_on_c, 13, 67, 0
15, 14400, Note_on_c, 13, 67, 44
15, 14871, Note_on_c, 13, 67, 0
15, 14878, Control_c, 13, 11, 64
15, 14880, Note_on_c, 13, 68, 76
15, 15591, Note_on_c, 13, 68, 0
15, 15600, Note_on_c, 13, 68, 76
15, 15959, Note_on_c, 13, 68, 0
15, 15960, Note_on_c, 13, 64, 76
15, 16319, Note_on_c, 13, 64, 0
15, 16320, Note_on_c, 13, 63, 76
15, 16679, Note_on_c, 13, 63, 0
15, 16680, Note_on_c, 13, 61, 76
15, 16680, Control_c, 13, 11, 64
15, 16695, Control_c, 13, 11, 67
15, 16710, Control_c, 13, 11, 69
15, 16725, Control_c, 13, 11, 72
15, 16740, Control_c, 13, 11, 75
15, 16755, Control_c, 13, 11, 77
15, 16770, Control_c, 13, 11, 80
15, 16785, Control_c, 13, 11, 82
15, 16800, Control_c, 13, 11, 85
15, 16815, Control_c, 13, 11, 88
15, 16830, Control_c, 13, 11, 90
15, 16845, Control_c, 13, 11, 93
15, 16860, Control_c, 13, 11, 96
15, 16875, Control_c, 13, 11, 98
15, 16890, Control_c, 13, 11, 101
15, 16905, Control_c, 13, 11, 103
15, 16920, Control_c, 13, 11, 106
15, 16935, Control_c, 13, 11, 109
15, 16950, Control_c, 13, 11, 111
15, 16965, Control_c, 13, 11, 114
15, 16980, Control_c, 13, 11, 117
15, 16995, Control_c, 13, 11, 119
15, 17010, Control_c, 13, 11, 122
15, 17025, Control_c, 13, 11, 127
15, 17031, Note_on_c, 13, 61, 0
15, 17040, Note_on_c, 13, 58, 76
15, 17129, Note_on_c, 13, 58, 0
15, 17160, Note_on_c, 13, 51, 76
15, 17279, Note_on_c, 13, 51, 0
15, 17640, Note_on_c, 13, 51, 48
15, 17699, Note_on_c, 13, 51, 0
15, 17700, Note_on_c, 13, 56, 48
15, 17759, Note_on_c, 13, 56, 0
15, 17760, Note_on_c, 13, 60, 48
15, 17819, Note_on_c, 13, 60, 0
15, 17820, Note_on_c, 13, 58, 48
15, 17879, Note_on_c, 13, 58, 0
15, 17880, Note_on_c, 13, 56, 48
15, 17939, Note_on_c, 13, 56, 0
15, 17940, Note_on_c, 13, 55, 48
15, 17999, Note_on_c, 13, 55, 0
15, 18000, Note_on_c, 13, 56, 48
15, 18059, Note_on_c, 13, 56, 0
15, 18060, Note_on_c, 13, 60, 48
15, 18115, Note_on_c, 13, 60, 0
15, 18120, Note_on_c, 13, 53, 48
15, 18179, Note_on_c, 13, 53, 0
15, 18180, Note_on_c, 13, 57, 48
15, 18239, Note_on_c, 13, 57, 0
15, 18240, Note_on_c, 13, 58, 48
15, 18299, Note_on_c, 13, 58, 0
15, 18300, Note_on_c, 13, 57, 48
15, 18359, Note_on_c, 13, 57, 0
15, 18360, Note_on_c, 13, 58, 48
15, 18419, Note_on_c, 13, 58, 0
15, 18420, Note_on_c, 13, 60, 48
15, 18475, Note_on_c, 13, 60, 0
15, 18480, Note_on_c, 13, 61, 48
15, 18539, Note_on_c, 13, 61, 0
15, 18540, Note_on_c, 13, 60, 48
15, 18599, Note_on_c, 13, 60, 0
15, 18600, Note_on_c, 13, 58, 48
15, 18659, Note_on_c, 13, 58, 0
15, 18660, Note_on_c, 13, 61, 48
15, 18719, Note_on_c, 13, 61, 0
15, 18720, Note_on_c, 13, 55, 48
15, 18779, Note_on_c, 13, 55, 0
15, 18780, Note_on_c, 13, 58, 48
15, 18835, Note_on_c, 13, 58, 0
15, 18840, Note_on_c, 13, 52, 48
15, 18899, Note_on_c, 13, 52, 0
15, 18900, Note_on_c, 13, 55, 48
15, 18959, Note_on_c, 13, 55, 0
15, 18960, Note_on_c, 13, 60, 48
15, 19019, Note_on_c, 13, 60, 0
15, 19020, Note_on_c, 13, 55, 48
15, 19079, Note_on_c, 13, 55, 0
15, 19080, Note_on_c, 13, 60, 48
15, 19139, Note_on_c, 13, 60, 0
15, 19140, Note_on_c, 13, 58, 48
15, 19195, Note_on_c, 13, 58, 0
15, 19200, Note_on_c, 13, 57, 48
15, 19259, Note_on_c, 13, 57, 0
15, 19260, Note_on_c, 13, 53, 48
15, 19319, Note_on_c, 13, 53, 0
15, 19320, Note_on_c, 13, 58, 48
15, 19379, Note_on_c, 13, 58, 0
15, 19380, Note_on_c, 13, 60, 48
15, 19439, Note_on_c, 13, 60, 0
15, 19440, Note_on_c, 13, 61, 48
15, 19499, Note_on_c, 13, 61, 0
15, 19500, Note_on_c, 13, 58, 48
15, 19555, Note_on_c, 13, 58, 0
15, 19560, Note_on_c, 13, 55, 48
15, 19619, Note_on_c, 13, 55, 0
15, 19620, Note_on_c, 13, 51, 48
15, 19659, Note_on_c, 13, 51, 0
15, 19660, Note_on_c, 13, 58, 48
15, 19679, Note_on_c, 13, 58, 0
15, 19680, Note_on_c, 13, 56, 48
15, 19739, Note_on_c, 13, 56, 0
15, 19740, Note_on_c, 13, 55, 48
15, 19799, Note_on_c, 13, 55, 0
15, 19800, Note_on_c, 13, 56, 48
15, 19859, Note_on_c, 13, 56, 0
15, 19860, Note_on_c, 13, 60, 48
15, 19915, Note_on_c, 13, 60, 0
15, 19920, Note_on_c, 13, 62, 76
15, 19979, Note_on_c, 13, 62, 0
15, 19980, Note_on_c, 13, 63, 76
15, 20039, Note_on_c, 13, 63, 0
15, 20040, Note_on_c, 13, 65, 76
15, 20099, Note_on_c, 13, 65, 0
15, 20100, Note_on_c, 13, 63, 76
15, 20159, Note_on_c, 13, 63, 0
15, 20160, Note_on_c, 13, 62, 76
15, 20219, Note_on_c, 13, 62, 0
15, 20220, Note_on_c, 13, 63, 76
15, 20275, Note_on_c, 13, 63, 0
15, 20280, Note_on_c, 13, 60, 52
15, 20399, Note_on_c, 13, 60, 0
15, 20460, Note_on_c, 13, 60, 64
15, 20504, Note_on_c, 13, 60, 0
15, 20520, Note_on_c, 13, 60, 68
15, 20579, Note_on_c, 13, 60, 0
15, 20580, Note_on_c, 13, 56, 72
15, 20635, Note_on_c, 13, 56, 0
15, 20640, Note_on_c, 13, 51, 76
15, 20640, Note_on_c, 13, 55, 76
15, 20991, Note_on_c, 13, 51, 0
15, 20991, Note_on_c, 13, 55, 0
15, 21000, Note_on_c, 13, 56, 52
15, 21000, Note_on_c, 13, 51, 52
15, 21119, Note_on_c, 13, 56, 0
15, 21119, Note_on_c, 13, 51, 0
15, 23040, Control_c, 13, 11, 80
15, 23160, Note_on_c, 13, 68, 76
15, 23511, Note_on_c, 13, 68, 0
15, 23520, Note_on_c, 13, 63, 76
15, 23520, Control_c, 13, 11, 80
15, 23535, Control_c, 13, 11, 82
15, 23550, Control_c, 13, 11, 84
15, 23565, Control_c, 13, 11, 86
15, 23580, Control_c, 13, 11, 88
15, 23595, Control_c, 13, 11, 90
15, 23610, Control_c, 13, 11, 92
15, 23625, Control_c, 13, 11, 94
15, 23640, Control_c, 13, 11, 96
15, 23655, Control_c, 13, 11, 98
15, 23670, Control_c, 13, 11, 100
15, 23685, Control_c, 13, 11, 102
15, 23700, Control_c, 13, 11, 104
15, 23715, Control_c, 13, 11, 105
15, 23730, Control_c, 13, 11, 107
15, 23745, Control_c, 13, 11, 109
15, 23760, Control_c, 13, 11, 111
15, 23775, Control_c, 13, 11, 113
15, 23790, Control_c, 13, 11, 115
15, 23805, Control_c, 13, 11, 117
15, 23820, Control_c, 13, 11, 119
15, 23835, Control_c, 13, 11, 121
15, 23850, Control_c, 13, 11, 123
15, 23865, Control_c, 13, 11, 127
15, 23871, Note_on_c, 13, 63, 0
15, 23880, Note_on_c, 13, 58, 76
15, 23880, Note_on_c, 13, 61, 76
15, 23991, Note_on_c, 13, 58, 0
15, 23991, Note_on_c, 13, 61, 0
15, 24000, Note_on_c, 13, 61, 76
15, 24000, Note_on_c, 13, 58, 76
15, 24111, Note_on_c, 13, 61, 0
15, 24111, Note_on_c, 13, 58, 0
15, 24120, Note_on_c, 13, 58, 76
15, 24120, Note_on_c, 13, 61, 76
15, 24209, Note_on_c, 13, 58, 0
15, 24210, Note_on_c, 13, 55, 76
15, 24231, Note_on_c, 13, 61, 0
15, 24235, Note_on_c, 13, 55, 0
15, 24240, Note_on_c, 13, 56, 52
15, 24240, Note_on_c, 13, 60, 52
15, 24359, Note_on_c, 13, 56, 0
15, 24359, Note_on_c, 13, 60, 0
15, 24840, Note_on_c, 13, 49, 76
15, 24879, Note_on_c, 13, 49, 0
15, 24880, Note_on_c, 13, 48, 76
15, 24919, Note_on_c, 13, 48, 0
15, 24920, Note_on_c, 13, 49, 76
15, 24955, Note_on_c, 13, 49, 0
15, 24960, Note_on_c, 13, 48, 76
15, 25019, Note_on_c, 13, 48, 0
15, 25080, Note_on_c, 13, 48, 52
15, 25139, Note_on_c, 13, 48, 0
15, 25200, Note_on_c, 13, 48, 52
15, 25259, Note_on_c, 13, 48, 0
15, 25320, Note_on_c, 13, 48, 52
15, 25439, Note_on_c, 13, 48, 0
15, 25680, Note_on_c, 13, 48, 48
15, 25709, Note_on_c, 13, 48, 0
15, 25710, Note_on_c, 13, 51, 48
15, 25739, Note_on_c, 13, 51, 0
15, 25740, Note_on_c, 13, 56, 48
15, 25769, Note_on_c, 13, 56, 0
15, 25770, Note_on_c, 13, 51, 48
15, 25795, Note_on_c, 13, 51, 0
15, 25800, Note_on_c, 13, 48, 48
15, 25829, Note_on_c, 13, 48, 0
15, 25830, Note_on_c, 13, 51, 48
15, 25859, Note_on_c, 13, 51, 0
15, 25860, Note_on_c, 13, 56, 48
15, 25889, Note_on_c, 13, 56, 0
15, 25890, Note_on_c, 13, 51, 48
15, 25915, Note_on_c, 13, 51, 0
15, 25920, Note_on_c, 13, 51, 48
15, 25949, Note_on_c, 13, 51, 0
15, 25950, Note_on_c, 13, 55, 48
15, 25979, Note_on_c, 13, 55, 0
15, 25980, Note_on_c, 13, 58, 48
15, 26009, Note_on_c, 13, 58, 0
15, 26010, Note_on_c, 13, 55, 48
15, 26035, Note_on_c, 13, 55, 0
15, 26040, Note_on_c, 13, 51, 48
15, 26069, Note_on_c, 13, 51, 0
15, 26070, Note_on_c, 13, 56, 48
15, 26099, Note_on_c, 13, 56, 0
15, 26100, Note_on_c, 13, 60, 48
15, 26129, Note_on_c, 13, 60, 0
15, 26130, Note_on_c, 13, 56, 48
15, 26159, Note_on_c, 13, 56, 0
15, 26160, Note_on_c, 13, 51, 48
15, 26189, Note_on_c, 13, 51, 0
15, 26190, Note_on_c, 13, 56, 48
15, 26219, Note_on_c, 13, 56, 0
15, 26220, Note_on_c, 13, 51, 48
15, 26249, Note_on_c, 13, 51, 0
15, 26250, Note_on_c, 13, 48, 48
15, 26275, Note_on_c, 13, 48, 0
15, 26280, Note_on_c, 13, 48, 48
15, 26309, Note_on_c, 13, 48, 0
15, 26310, Note_on_c, 13, 56, 48
15, 26339, Note_on_c, 13, 56, 0
15, 26340, Note_on_c, 13, 51, 48
15, 26369, Note_on_c, 13, 51, 0
15, 26370, Note_on_c, 13, 58, 48
15, 26395, Note_on_c, 13, 58, 0
15, 26400, Note_on_c, 13, 51, 48
15, 26429, Note_on_c, 13, 51, 0
15, 26430, Note_on_c, 13, 56, 48
15, 26459, Note_on_c, 13, 56, 0
15, 26460, Note_on_c, 13, 60, 48
15, 26489, Note_on_c, 13, 60, 0
15, 26490, Note_on_c, 13, 56, 48
15, 26515, Note_on_c, 13, 56, 0
15, 26520, Note_on_c, 13, 51, 48
15, 26549, Note_on_c, 13, 51, 0
15, 26550, Note_on_c, 13, 56, 48
15, 26579, Note_on_c, 13, 56, 0
15, 26580, Note_on_c, 13, 60, 48
15, 26609, Note_on_c, 13, 60, 0
15, 26610, Note_on_c, 13, 56, 48
15, 26635, Note_on_c, 13, 56, 0
15, 26640, Note_on_c, 13, 51, 48
15, 26669, Note_on_c, 13, 51, 0
15, 26670, Note_on_c, 13, 58, 48
15, 26699, Note_on_c, 13, 58, 0
15, 26700, Note_on_c, 13, 61, 48
15, 26729, Note_on_c, 13, 61, 0
15, 26730, Note_on_c, 13, 58, 48
15, 26755, Note_on_c, 13, 58, 0
15, 26760, Note_on_c, 13, 51, 48
15, 26789, Note_on_c, 13, 51, 0
15, 26790, Note_on_c, 13, 60, 48
15, 26819, Note_on_c, 13, 60, 0
15, 26820, Note_on_c, 13, 63, 48
15, 26849, Note_on_c, 13, 63, 0
15, 26850, Note_on_c, 13, 60, 48
15, 26879, Note_on_c, 13, 60, 0
15, 26880, Note_on_c, 13, 56, 48
15, 26909, Note_on_c, 13, 56, 0
15, 26910, Note_on_c, 13, 60, 48
15, 26939, Note_on_c, 13, 60, 0
15, 26940, Note_on_c, 13, 63, 48
15, 26969, Note_on_c, 13, 63, 0
15, 26970, Note_on_c, 13, 67, 48
15, 26999, Note_on_c, 13, 67, 0
15, 27000, Note_on_c, 13, 68, 48
15, 27119, Note_on_c, 13, 68, 0
15, 27150, Note_on_c, 13, 69, 44
15, 27175, Note_on_c, 13, 69, 0
15, 27180, Note_on_c, 13, 69, 44
15, 27205, Note_on_c, 13, 69, 0
15, 27210, Note_on_c, 13, 69, 44
15, 27235, Note_on_c, 13, 69, 0
15, 27240, Note_on_c, 13, 69, 44
15, 27295, Note_on_c, 13, 69, 0
15, 27300, Note_on_c, 13, 69, 44
15, 27355, Note_on_c, 13, 69, 0
15, 27360, Note_on_c, 13, 69, 44
15, 27419, Note_on_c, 13, 69, 0
15, 27510, Note_on_c, 13, 69, 44
15, 27535, Note_on_c, 13, 69, 0
15, 27540, Note_on_c, 13, 69, 44
15, 27565, Note_on_c, 13, 69, 0
15, 27570, Note_on_c, 13, 69, 44
15, 27595, Note_on_c, 13, 69, 0
15, 27600, Note_on_c, 13, 69, 44
15, 27655, Note_on_c, 13, 69, 0
15, 27660, Note_on_c, 13, 69, 44
15, 27715, Note_on_c, 13, 69, 0
15, 27720, Note_on_c, 13, 69, 44
15, 27779, Note_on_c, 13, 69, 0
15, 27840, Note_on_c, 13, 72, 84
15, 27865, Note_on_c, 13, 72, 0
15, 27870, Note_on_c, 13, 72, 84
15, 27895, Note_on_c, 13, 72, 0
15, 27900, Note_on_c, 13, 72, 84
15, 27925, Note_on_c, 13, 72, 0
15, 27930, Note_on_c, 13, 72, 84
15, 27955, Note_on_c, 13, 72, 0
15, 27960, Note_on_c, 13, 72, 84
15, 27985, Note_on_c, 13, 72, 0
15, 27990, Note_on_c, 13, 72, 84
15, 28015, Note_on_c, 13, 72, 0
15, 28020, Note_on_c, 13, 72, 84
15, 28045, Note_on_c, 13, 72, 0
15, 28050, Note_on_c, 13, 72, 84
15, 28075, Note_on_c, 13, 72, 0
15, 28080, Note_on_c, 13, 72, 84
15, 28105, Note_on_c, 13, 72, 0
15, 28110, Note_on_c, 13, 72, 84
15, 28135, Note_on_c, 13, 72, 0
15, 28140, Note_on_c, 13, 72, 84
15, 28165, Note_on_c, 13, 72, 0
15, 28170, Note_on_c, 13, 72, 84
15, 28195, Note_on_c, 13, 72, 0
15, 28200, Note_on_c, 13, 72, 84
15, 28225, Note_on_c, 13, 72, 0
15, 28230, Note_on_c, 13, 72, 84
15, 28255, Note_on_c, 13, 72, 0
15, 28260, Note_on_c, 13, 72, 84
15, 28285, Note_on_c, 13, 72, 0
15, 28290, Note_on_c, 13, 67, 84
15, 28315, Note_on_c, 13, 67, 0
15, 28320, Note_on_c, 13, 64, 84
15, 28345, Note_on_c, 13, 64, 0
15, 28350, Note_on_c, 13, 64, 84
15, 28375, Note_on_c, 13, 64, 0
15, 28380, Note_on_c, 13, 64, 84
15, 28405, Note_on_c, 13, 64, 0
15, 28410, Note_on_c, 13, 60, 84
15, 28435, Note_on_c, 13, 60, 0
15, 28440, Note_on_c, 13, 67, 84
15, 28465, Note_on_c, 13, 67, 0
15, 28470, Note_on_c, 13, 55, 84
15, 28495, Note_on_c, 13, 55, 0
15, 28500, Note_on_c, 13, 67, 84
15, 28525, Note_on_c, 13, 67, 0
15, 28530, Note_on_c, 13, 67, 84
15, 28555, Note_on_c, 13, 67, 0
15, 28560, Note_on_c, 13, 60, 84
15, 28679, Note_on_c, 13, 60, 0
15, 28920, Note_on_c, 13, 52, 84
15, 28941, Note_on_c, 13, 52, 0
15, 28950, Note_on_c, 13, 55, 84
15, 28971, Note_on_c, 13, 55, 0
15, 28980, Note_on_c, 13, 60, 84
15, 29001, Note_on_c, 13, 60, 0
15, 29010, Note_on_c, 13, 55, 84
15, 29031, Note_on_c, 13, 55, 0
15, 29040, Note_on_c, 13, 52, 84
15, 29061, Note_on_c, 13, 52, 0
15, 29070, Note_on_c, 13, 55, 84
15, 29091, Note_on_c, 13, 55, 0
15, 29100, Note_on_c, 13, 60, 84
15, 29121, Note_on_c, 13, 60, 0
15, 29130, Note_on_c, 13, 55, 84
15, 29151, Note_on_c, 13, 55, 0
15, 29160, Note_on_c, 13, 55, 84
15, 29181, Note_on_c, 13, 55, 0
15, 29190, Note_on_c, 13, 59, 84
15, 29211, Note_on_c, 13, 59, 0
15, 29220, Note_on_c, 13, 62, 84
15, 29241, Note_on_c, 13, 62, 0
15, 29250, Note_on_c, 13, 59, 84
15, 29271, Note_on_c, 13, 59, 0
15, 29280, Note_on_c, 13, 55, 84
15, 29301, Note_on_c, 13, 55, 0
15, 29310, Note_on_c, 13, 60, 84
15, 29331, Note_on_c, 13, 60, 0
15, 29340, Note_on_c, 13, 64, 84
15, 29361, Note_on_c, 13, 64, 0
15, 29370, Note_on_c, 13, 60, 84
15, 29391, Note_on_c, 13, 60, 0
15, 29400, Note_on_c, 13, 55, 84
15, 29421, Note_on_c, 13, 55, 0
15, 29430, Note_on_c, 13, 60, 84
15, 29451, Note_on_c, 13, 60, 0
15, 29460, Note_on_c, 13, 55, 84
15, 29481, Note_on_c, 13, 55, 0
15, 29490, Note_on_c, 13, 52, 84
15, 29511, Note_on_c, 13, 52, 0
15, 29520, Note_on_c, 13, 48, 84
15, 29541, Note_on_c, 13, 48, 0
15, 29550, Note_on_c, 13, 55, 84
15, 29571, Note_on_c, 13, 55, 0
15, 29580, Note_on_c, 13, 60, 84
15, 29601, Note_on_c, 13, 60, 0
15, 29610, Note_on_c, 13, 62, 84
15, 29631, Note_on_c, 13, 62, 0
15, 29640, Note_on_c, 13, 55, 84
15, 29661, Note_on_c, 13, 55, 0
15, 29670, Note_on_c, 13, 60, 84
15, 29691, Note_on_c, 13, 60, 0
15, 29700, Note_on_c, 13, 64, 84
15, 29721, Note_on_c, 13, 64, 0
15, 29730, Note_on_c, 13, 60, 84
15, 29751, Note_on_c, 13, 60, 0
15, 29760, Note_on_c, 13, 55, 84
15, 29781, Note_on_c, 13, 55, 0
15, 29790, Note_on_c, 13, 60, 84
15, 29811, Note_on_c, 13, 60, 0
15, 29820, Note_on_c, 13, 64, 84
15, 29841, Note_on_c, 13, 64, 0
15, 29850, Note_on_c, 13, 60, 84
15, 29871, Note_on_c, 13, 60, 0
15, 29880, Note_on_c, 13, 55, 84
15, 29901, Note_on_c, 13, 55, 0
15, 29910, Note_on_c, 13, 62, 84
15, 29931, Note_on_c, 13, 62, 0
15, 29940, Note_on_c, 13, 65, 84
15, 29961, Note_on_c, 13, 65, 0
15, 29970, Note_on_c, 13, 62, 84
15, 29991, Note_on_c, 13, 62, 0
15, 30000, Note_on_c, 13, 55, 92
15, 30021, Note_on_c, 13, 55, 0
15, 30030, Note_on_c, 13, 64, 84
15, 30051, Note_on_c, 13, 64, 0
15, 30060, Note_on_c, 13, 67, 84
15, 30081, Note_on_c, 13, 67, 0
15, 30090, Note_on_c, 13, 64, 84
15, 30111, Note_on_c, 13, 64, 0
15, 30120, Note_on_c, 13, 60, 84
15, 30141, Note_on_c, 13, 60, 0
15, 30150, Note_on_c, 13, 55, 84
15, 30171, Note_on_c, 13, 55, 0
15, 30180, Note_on_c, 13, 52, 84
15, 30201, Note_on_c, 13, 52, 0
15, 30210, Note_on_c, 13, 55, 84
15, 30231, Note_on_c, 13, 55, 0
15, 30240, Note_on_c, 13, 48, 84
15, 30261, Note_on_c, 13, 48, 0
15, 30270, Note_on_c, 13, 60, 84
15, 30291, Note_on_c, 13, 60, 0
15, 30300, Note_on_c, 13, 64, 84
15, 30321, Note_on_c, 13, 64, 0
15, 30330, Note_on_c, 13, 65, 84
15, 30351, Note_on_c, 13, 65, 0
15, 30360, Note_on_c, 13, 55, 92
15, 30381, Note_on_c, 13, 55, 0
15, 30390, Note_on_c, 13, 64, 84
15, 30411, Note_on_c, 13, 64, 0
15, 30420, Note_on_c, 13, 67, 84
15, 30441, Note_on_c, 13, 67, 0
15, 30450, Note_on_c, 13, 64, 84
15, 30471, Note_on_c, 13, 64, 0
15, 30480, Note_on_c, 13, 60, 84
15, 30501, Note_on_c, 13, 60, 0
15, 30510, Note_on_c, 13, 55, 84
15, 30531, Note_on_c, 13, 55, 0
15, 30540, Note_on_c, 13, 52, 84
15, 30561, Note_on_c, 13, 52, 0
15, 30570, Note_on_c, 13, 55, 84
15, 30591, Note_on_c, 13, 55, 0
15, 30600, Note_on_c, 13, 48, 84
15, 30621, Note_on_c, 13, 48, 0
15, 30630, Note_on_c, 13, 60, 84
15, 30651, Note_on_c, 13, 60, 0
15, 30660, Note_on_c, 13, 64, 84
15, 30660, Note_on_c, 13, 60, 84
15, 30681, Note_on_c, 13, 64, 0
15, 30681, Note_on_c, 13, 60, 0
15, 30690, Note_on_c, 13, 62, 84
15, 30690, Note_on_c, 13, 65, 84
15, 30711, Note_on_c, 13, 62, 0
15, 30711, Note_on_c, 13, 65, 0
15, 30720, Note_on_c, 13, 67, 84
15, 30720, Note_on_c, 13, 64, 84
15, 30839, Note_on_c, 13, 67, 0
15, 30839, Note_on_c, 13, 64, 0
15, 31320, Note_on_c, 13, 67, 44
15, 31671, Note_on_c, 13, 67, 0
15, 31680, Note_on_c, 13, 67, 44
15, 32031, Note_on_c, 13, 67, 0
15, 32040, Note_on_c, 13, 67, 44
15, 32511, Note_on_c, 13, 67, 0
15, 32520, Note_on_c, 13, 68, 44
15, 33231, Note_on_c, 13, 68, 0
15, 33238, Control_c, 13, 11, 64
15, 33240, Note_on_c, 13, 68, 76
15, 33599, Note_on_c, 13, 68, 0
15, 33600, Note_on_c, 13, 64, 76
15, 33959, Note_on_c, 13, 64, 0
15, 33960, Note_on_c, 13, 63, 76
15, 34319, Note_on_c, 13, 63, 0
15, 34320, Control_c, 13, 11, 64
15, 34320, Note_on_c, 13, 61, 76
15, 34335, Control_c, 13, 11, 67
15, 34350, Control_c, 13, 11, 69
15, 34365, Control_c, 13, 11, 72
15, 34380, Control_c, 13, 11, 75
15, 34395, Control_c, 13, 11, 77
15, 34410, Control_c, 13, 11, 80
15, 34425, Control_c, 13, 11, 82
15, 34440, Control_c, 13, 11, 85
15, 34455, Control_c, 13, 11, 88
15, 34470, Control_c, 13, 11, 90
15, 34485, Control_c, 13, 11, 93
15, 34500, Control_c, 13, 11, 96
15, 34515, Control_c, 13, 11, 98
15, 34530, Control_c, 13, 11, 101
15, 34545, Control_c, 13, 11, 103
15, 34560, Control_c, 13, 11, 106
15, 34575, Control_c, 13, 11, 109
15, 34590, Control_c, 13, 11, 111
15, 34605, Control_c, 13, 11, 114
15, 34620, Control_c, 13, 11, 117
15, 34635, Control_c, 13, 11, 119
15, 34650, Control_c, 13, 11, 122
15, 34665, Control_c, 13, 11, 127
15, 34671, Note_on_c, 13, 61, 0
15, 34680, Note_on_c, 13, 58, 76
15, 34735, Note_on_c, 13, 58, 0
15, 34740, Note_on_c, 13, 51, 84
15, 34784, Note_on_c, 13, 51, 0
15, 34800, Note_on_c, 13, 63, 84
15, 34844, Note_on_c, 13, 63, 0
15, 35280, Note_on_c, 13, 51, 48
15, 35309, Note_on_c, 13, 51, 0
15, 35310, Note_on_c, 13, 55, 48
15, 35339, Note_on_c, 13, 55, 0
15, 35340, Note_on_c, 13, 56, 48
15, 35369, Note_on_c, 13, 56, 0
15, 35370, Note_on_c, 13, 58, 48
15, 35395, Note_on_c, 13, 58, 0
15, 35400, Note_on_c, 13, 60, 48
15, 35429, Note_on_c, 13, 60, 0
15, 35430, Note_on_c, 13, 58, 48
15, 35459, Note_on_c, 13, 58, 0
15, 35460, Note_on_c, 13, 56, 48
15, 35489, Note_on_c, 13, 56, 0
15, 35490, Note_on_c, 13, 55, 48
15, 35519, Note_on_c, 13, 55, 0
15, 35520, Note_on_c, 13, 56, 48
15, 35549, Note_on_c, 13, 56, 0
15, 35550, Note_on_c, 13, 58, 48
15, 35579, Note_on_c, 13, 58, 0
15, 35580, Note_on_c, 13, 56, 48
15, 35609, Note_on_c, 13, 56, 0
15, 35610, Note_on_c, 13, 55, 48
15, 35639, Note_on_c, 13, 55, 0
15, 35640, Note_on_c, 13, 56, 48
15, 35669, Note_on_c, 13, 56, 0
15, 35670, Note_on_c, 13, 58, 48
15, 35699, Note_on_c, 13, 58, 0
15, 35700, Note_on_c, 13, 60, 48
15, 35729, Note_on_c, 13, 60, 0
15, 35730, Note_on_c, 13, 56, 48
15, 35755, Note_on_c, 13, 56, 0
15, 35760, Note_on_c, 13, 53, 48
15, 35789, Note_on_c, 13, 53, 0
15, 35790, Note_on_c, 13, 55, 48
15, 35819, Note_on_c, 13, 55, 0
15, 35820, Note_on_c, 13, 53, 48
15, 35849, Note_on_c, 13, 53, 0
15, 35850, Note_on_c, 13, 52, 48
15, 35879, Note_on_c, 13, 52, 0
15, 35880, Note_on_c, 13, 53, 48
15, 35909, Note_on_c, 13, 53, 0
15, 35910, Note_on_c, 13, 57, 48
15, 35939, Note_on_c, 13, 57, 0
15, 35940, Note_on_c, 13, 58, 48
15, 35969, Note_on_c, 13, 58, 0
15, 35970, Note_on_c, 13, 57, 48
15, 35999, Note_on_c, 13, 57, 0
15, 36000, Note_on_c, 13, 58, 48
15, 36029, Note_on_c, 13, 58, 0
15, 36030, Note_on_c, 13, 60, 48
15, 36059, Note_on_c, 13, 60, 0
15, 36060, Note_on_c, 13, 61, 48
15, 36089, Note_on_c, 13, 61, 0
15, 36090, Note_on_c, 13, 60, 48
15, 36115, Note_on_c, 13, 60, 0
15, 36120, Note_on_c, 13, 61, 48
15, 36149, Note_on_c, 13, 61, 0
15, 36150, Note_on_c, 13, 60, 48
15, 36179, Note_on_c, 13, 60, 0
15, 36180, Note_on_c, 13, 61, 48
15, 36209, Note_on_c, 13, 61, 0
15, 36210, Note_on_c, 13, 60, 48
15, 36239, Note_on_c, 13, 60, 0
15, 36240, Note_on_c, 13, 58, 48
15, 36269, Note_on_c, 13, 58, 0
15, 36270, Note_on_c, 13, 61, 48
15, 36299, Note_on_c, 13, 61, 0
15, 36300, Note_on_c, 13, 56, 48
15, 36329, Note_on_c, 13, 56, 0
15, 36330, Note_on_c, 13, 61, 48
15, 36359, Note_on_c, 13, 61, 0
15, 36360, Note_on_c, 13, 55, 48
15, 36389, Note_on_c, 13, 55, 0
15, 36390, Note_on_c, 13, 61, 48
15, 36419, Note_on_c, 13, 61, 0
15, 36420, Note_on_c, 13, 53, 48
15, 36449, Note_on_c, 13, 53, 0
15, 36450, Note_on_c, 13, 61, 48
15, 36475, Note_on_c, 13, 61, 0
15, 36480, Note_on_c, 13, 52, 48
15, 36509, Note_on_c, 13, 52, 0
15, 36510, Note_on_c, 13, 55, 48
15, 36539, Note_on_c, 13, 55, 0
15, 36540, Note_on_c, 13, 57, 48
15, 36569, Note_on_c, 13, 57, 0
15, 36570, Note_on_c, 13, 59, 48
15, 36599, Note_on_c, 13, 59, 0
15, 36600, Note_on_c, 13, 60, 48
15, 36629, Note_on_c, 13, 60, 0
15, 36630, Note_on_c, 13, 55, 48
15, 36659, Note_on_c, 13, 55, 0
15, 36660, Note_on_c, 13, 57, 48
15, 36689, Note_on_c, 13, 57, 0
15, 36690, Note_on_c, 13, 59, 48
15, 36719, Note_on_c, 13, 59, 0
15, 36720, Note_on_c, 13, 60, 48
15, 36749, Note_on_c, 13, 60, 0
15, 36750, Note_on_c, 13, 55, 48
15, 36779, Note_on_c, 13, 55, 0
15, 36780, Note_on_c, 13, 60, 48
15, 36809, Note_on_c, 13, 60, 0
15, 36810, Note_on_c, 13, 58, 48
15, 36835, Note_on_c, 13, 58, 0
15, 36840, Note_on_c, 13, 57, 48
15, 36869, Note_on_c, 13, 57, 0
15, 36870, Note_on_c, 13, 60, 48
15, 36899, Note_on_c, 13, 60, 0
15, 36900, Note_on_c, 13, 53, 48
15, 36929, Note_on_c, 13, 53, 0
15, 36930, Note_on_c, 13, 60, 48
15, 36959, Note_on_c, 13, 60, 0
15, 36960, Note_on_c, 13, 58, 48
15, 36989, Note_on_c, 13, 58, 0
15, 36990, Note_on_c, 13, 61, 48
15, 37019, Note_on_c, 13, 61, 0
15, 37020, Note_on_c, 13, 53, 48
15, 37049, Note_on_c, 13, 53, 0
15, 37050, Note_on_c, 13, 61, 48
15, 37079, Note_on_c, 13, 61, 0
15, 37080, Note_on_c, 13, 58, 48
15, 37109, Note_on_c, 13, 58, 0
15, 37110, Note_on_c, 13, 61, 48
15, 37139, Note_on_c, 13, 61, 0
15, 37140, Note_on_c, 13, 56, 48
15, 37169, Note_on_c, 13, 56, 0
15, 37170, Note_on_c, 13, 61, 48
15, 37195, Note_on_c, 13, 61, 0
15, 37200, Note_on_c, 13, 55, 48
15, 37229, Note_on_c, 13, 55, 0
15, 37230, Note_on_c, 13, 58, 48
15, 37259, Note_on_c, 13, 58, 0
15, 37260, Note_on_c, 13, 51, 48
15, 37289, Note_on_c, 13, 51, 0
15, 37290, Note_on_c, 13, 58, 48
15, 37319, Note_on_c, 13, 58, 0
15, 37320, Note_on_c, 13, 56, 48
15, 37349, Note_on_c, 13, 56, 0
15, 37350, Note_on_c, 13, 60, 48
15, 37379, Note_on_c, 13, 60, 0
15, 37380, Note_on_c, 13, 51, 48
15, 37409, Note_on_c, 13, 51, 0
15, 37410, Note_on_c, 13, 60, 48
15, 37439, Note_on_c, 13, 60, 0
15, 37440, Note_on_c, 13, 56, 48
15, 37469, Note_on_c, 13, 56, 0
15, 37470, Note_on_c, 13, 60, 48
15, 37499, Note_on_c, 13, 60, 0
15, 37500, Note_on_c, 13, 51, 48
15, 37529, Note_on_c, 13, 51, 0
15, 37530, Note_on_c, 13, 60, 48
15, 37555, Note_on_c, 13, 60, 0
15, 37560, Note_on_c, 13, 55, 44
15, 37589, Note_on_c, 13, 55, 0
15, 37590, Note_on_c, 13, 63, 44
15, 37619, Note_on_c, 13, 63, 0
15, 37620, Note_on_c, 13, 58, 44
15, 37649, Note_on_c, 13, 58, 0
15, 37650, Note_on_c, 13, 63, 44
15, 37679, Note_on_c, 13, 63, 0
15, 37680, Note_on_c, 13, 55, 44
15, 37709, Note_on_c, 13, 55, 0
15, 37710, Note_on_c, 13, 63, 44
15, 37739, Note_on_c, 13, 63, 0
15, 37740, Note_on_c, 13, 58, 44
15, 37769, Note_on_c, 13, 58, 0
15, 37770, Note_on_c, 13, 63, 44
15, 37799, Note_on_c, 13, 63, 0
15, 37800, Note_on_c, 13, 55, 44
15, 37829, Note_on_c, 13, 55, 0
15, 37830, Note_on_c, 13, 63, 44
15, 37859, Note_on_c, 13, 63, 0
15, 37860, Note_on_c, 13, 58, 44
15, 37889, Note_on_c, 13, 58, 0
15, 37890, Note_on_c, 13, 63, 44
15, 37915, Note_on_c, 13, 63, 0
15, 37920, Note_on_c, 13, 60, 44
15, 38039, Note_on_c, 13, 60, 0
15, 38160, Program_c, 13, 45
15, 38280, Note_on_c, 13, 51, 44
15, 38339, Note_on_c, 13, 51, 0
15, 38340, Note_on_c, 13, 56, 44
15, 38399, Note_on_c, 13, 56, 0
15, 38400, Note_on_c, 13, 51, 44
15, 38459, Note_on_c, 13, 51, 0
15, 38460, Note_on_c, 13, 56, 44
15, 38519, Note_on_c, 13, 56, 0
15, 38520, Note_on_c, 13, 51, 44
15, 38579, Note_on_c, 13, 51, 0
15, 38580, Note_on_c, 13, 56, 44
15, 38639, Note_on_c, 13, 56, 0
15, 38640, Note_on_c, 13, 53, 44
15, 38699, Note_on_c, 13, 53, 0
15, 38700, Note_on_c, 13, 56, 44
15, 38759, Note_on_c, 13, 56, 0
15, 38760, Note_on_c, 13, 53, 44
15, 38819, Note_on_c, 13, 53, 0
15, 38820, Note_on_c, 13, 58, 44
15, 38879, Note_on_c, 13, 58, 0
15, 38880, Note_on_c, 13, 53, 44
15, 38939, Note_on_c, 13, 53, 0
15, 38940, Note_on_c, 13, 58, 44
15, 38999, Note_on_c, 13, 58, 0
15, 39000, Note_on_c, 13, 53, 44
15, 39059, Note_on_c, 13, 53, 0
15, 39060, Note_on_c, 13, 55, 44
15, 39119, Note_on_c, 13, 55, 0
15, 39120, Note_on_c, 13, 53, 44
15, 39179, Note_on_c, 13, 53, 0
15, 39180, Note_on_c, 13, 55, 44
15, 39239, Note_on_c, 13, 55, 0
15, 39240, Note_on_c, 13, 53, 44
15, 39299, Note_on_c, 13, 53, 0
15, 39300, Note_on_c, 13, 55, 44
15, 39359, Note_on_c, 13, 55, 0
15, 39360, Note_on_c, 13, 55, 44
15, 39419, Note_on_c, 13, 55, 0
15, 39420, Note_on_c, 13, 60, 44
15, 39479, Note_on_c, 13, 60, 0
15, 39480, Note_on_c, 13, 55, 44
15, 39539, Note_on_c, 13, 55, 0
15, 39540, Note_on_c, 13, 60, 44
15, 39599, Note_on_c, 13, 60, 0
15, 39600, Note_on_c, 13, 55, 44
15, 39659, Note_on_c, 13, 55, 0
15, 39660, Note_on_c, 13, 60, 44
15, 39719, Note_on_c, 13, 60, 0
15, 39720, Note_on_c, 13, 53, 44
15, 39779, Note_on_c, 13, 53, 0
15, 39780, Note_on_c, 13, 60, 44
15, 39839, Note_on_c, 13, 60, 0
15, 39840, Note_on_c, 13, 53, 44
15, 39899, Note_on_c, 13, 53, 0
15, 39900, Note_on_c, 13, 58, 44
15, 39959, Note_on_c, 13, 58, 0
15, 39960, Note_on_c, 13, 53, 44
15, 40019, Note_on_c, 13, 53, 0
15, 40020, Note_on_c, 13, 58, 44
15, 40079, Note_on_c, 13, 58, 0
15, 40080, Note_on_c, 13, 51, 44
15, 40139, Note_on_c, 13, 51, 0
15, 40140, Note_on_c, 13, 58, 44
15, 40199, Note_on_c, 13, 58, 0
15, 40200, Note_on_c, 13, 51, 44
15, 40259, Note_on_c, 13, 51, 0
15, 40260, Note_on_c, 13, 56, 44
15, 40319, Note_on_c, 13, 56, 0
15, 40320, Note_on_c, 13, 51, 44
15, 40379, Note_on_c, 13, 51, 0
15, 40380, Note_on_c, 13, 56, 44
15, 40439, Note_on_c, 13, 56, 0
15, 40440, Note_on_c, 13, 51, 44
15, 40499, Note_on_c, 13, 51, 0
15, 40500, Note_on_c, 13, 55, 44
15, 40559, Note_on_c, 13, 55, 0
15, 40560, Note_on_c, 13, 51, 44
15, 40619, Note_on_c, 13, 51, 0
15, 40620, Note_on_c, 13, 55, 44
15, 40679, Note_on_c, 13, 55, 0
15, 40680, Note_on_c, 13, 51, 44
15, 40739, Note_on_c, 13, 51, 0
15, 40740, Note_on_c, 13, 55, 44
15, 40791, Note_on_c, 13, 55, 0
15, 40798, Program_c, 13, 48
15, 40800, Note_on_c, 13, 56, 76
15, 40855, Note_on_c, 13, 56, 0
15, 40860, Note_on_c, 13, 56, 76
15, 40860, Note_on_c, 13, 60, 76
15, 40915, Note_on_c, 13, 56, 0
15, 40915, Note_on_c, 13, 60, 0
15, 40920, Note_on_c, 13, 60, 76
15, 40920, Note_on_c, 13, 56, 76
15, 40975, Note_on_c, 13, 60, 0
15, 40975, Note_on_c, 13, 56, 0
15, 40980, Note_on_c, 13, 60, 76
15, 40980, Note_on_c, 13, 56, 76
15, 41035, Note_on_c, 13, 60, 0
15, 41035, Note_on_c, 13, 56, 0
15, 41040, Note_on_c, 13, 60, 76
15, 41040, Note_on_c, 13, 56, 76
15, 41095, Note_on_c, 13, 60, 0
15, 41095, Note_on_c, 13, 56, 0
15, 41100, Note_on_c, 13, 56, 76
15, 41100, Note_on_c, 13, 60, 76
15, 41155, Note_on_c, 13, 56, 0
15, 41155, Note_on_c, 13, 60, 0
15, 41160, Note_on_c, 13, 60, 76
15, 41160, Note_on_c, 13, 56, 76
15, 41215, Note_on_c, 13, 60, 0
15, 41215, Note_on_c, 13, 56, 0
15, 41220, Note_on_c, 13, 60, 76
15, 41220, Note_on_c, 13, 56, 76
15, 41275, Note_on_c, 13, 60, 0
15, 41275, Note_on_c, 13, 56, 0
15, 41280, Note_on_c, 13, 60, 76
15, 41280, Note_on_c, 13, 56, 76
15, 41335, Note_on_c, 13, 60, 0
15, 41335, Note_on_c, 13, 56, 0
15, 41340, Note_on_c, 13, 56, 76
15, 41340, Note_on_c, 13, 60, 76
15, 41395, Note_on_c, 13, 56, 0
15, 41395, Note_on_c, 13, 60, 0
15, 41400, Note_on_c, 13, 56, 76
15, 41400, Note_on_c, 13, 60, 76
15, 41455, Note_on_c, 13, 56, 0
15, 41455, Note_on_c, 13, 60, 0
15, 41460, Note_on_c, 13, 60, 76
15, 41460, Note_on_c, 13, 56, 76
15, 41515, Note_on_c, 13, 60, 0
15, 41515, Note_on_c, 13, 56, 0
15, 41520, Note_on_c, 13, 57, 76
15, 41520, Note_on_c, 13, 60, 76
15, 41575, Note_on_c, 13, 57, 0
15, 41575, Note_on_c, 13, 60, 0
15, 41580, Note_on_c, 13, 60, 76
15, 41580, Note_on_c, 13, 57, 76
15, 41635, Note_on_c, 13, 60, 0
15, 41635, Note_on_c, 13, 57, 0
15, 41640, Note_on_c, 13, 61, 76
15, 41640, Note_on_c, 13, 58, 76
15, 41695, Note_on_c, 13, 61, 0
15, 41695, Note_on_c, 13, 58, 0
15, 41700, Note_on_c, 13, 58, 76
15, 41700, Note_on_c, 13, 61, 76
15, 41755, Note_on_c, 13, 58, 0
15, 41755, Note_on_c, 13, 61, 0
15, 41760, Note_on_c, 13, 58, 76
15, 41760, Note_on_c, 13, 61, 76
15, 41815, Note_on_c, 13, 58, 0
15, 41815, Note_on_c, 13, 61, 0
15, 41820, Note_on_c, 13, 61, 76
15, 41820, Note_on_c, 13, 58, 76
15, 41875, Note_on_c, 13, 61, 0
15, 41875, Note_on_c, 13, 58, 0
15, 41880, Note_on_c, 13, 58, 76
15, 41880, Note_on_c, 13, 61, 76
15, 41935, Note_on_c, 13, 58, 0
15, 41935, Note_on_c, 13, 61, 0
15, 41940, Note_on_c, 13, 58, 76
15, 41940, Note_on_c, 13, 61, 76
15, 41995, Note_on_c, 13, 58, 0
15, 41995, Note_on_c, 13, 61, 0
15, 42000, Note_on_c, 13, 61, 76
15, 42000, Note_on_c, 13, 58, 76
15, 42055, Note_on_c, 13, 61, 0
15, 42055, Note_on_c, 13, 58, 0
15, 42060, Note_on_c, 13, 61, 76
15, 42060, Note_on_c, 13, 56, 76
15, 42115, Note_on_c, 13, 61, 0
15, 42115, Note_on_c, 13, 56, 0
15, 42120, Note_on_c, 13, 62, 76
15, 42120, Note_on_c, 13, 55, 76
15, 42175, Note_on_c, 13, 62, 0
15, 42175, Note_on_c, 13, 55, 0
15, 42180, Note_on_c, 13, 53, 76
15, 42180, Note_on_c, 13, 55, 76
15, 42235, Note_on_c, 13, 53, 0
15, 42235, Note_on_c, 13, 55, 0
15, 42240, Note_on_c, 13, 55, 76
15, 42240, Note_on_c, 13, 52, 76
15, 42295, Note_on_c, 13, 55, 0
15, 42295, Note_on_c, 13, 52, 0
15, 42300, Note_on_c, 13, 60, 76
15, 42300, Note_on_c, 13, 48, 76
15, 42355, Note_on_c, 13, 60, 0
15, 42355, Note_on_c, 13, 48, 0
15, 42360, Note_on_c, 13, 60, 76
15, 42360, Note_on_c, 13, 48, 76
15, 42415, Note_on_c, 13, 60, 0
15, 42415, Note_on_c, 13, 48, 0
15, 42420, Note_on_c, 13, 48, 76
15, 42420, Note_on_c, 13, 60, 76
15, 42475, Note_on_c, 13, 48, 0
15, 42475, Note_on_c, 13, 60, 0
15, 42480, Note_on_c, 13, 48, 76
15, 42480, Note_on_c, 13, 60, 76
15, 42535, Note_on_c, 13, 48, 0
15, 42535, Note_on_c, 13, 60, 0
15, 42540, Note_on_c, 13, 60, 76
15, 42540, Note_on_c, 13, 48, 76
15, 42595, Note_on_c, 13, 60, 0
15, 42595, Note_on_c, 13, 48, 0
15, 42600, Note_on_c, 13, 60, 76
15, 42600, Note_on_c, 13, 57, 76
15, 42655, Note_on_c, 13, 60, 0
15, 42655, Note_on_c, 13, 57, 0
15, 42660, Note_on_c, 13, 60, 76
15, 42660, Note_on_c, 13, 57, 76
15, 42715, Note_on_c, 13, 60, 0
15, 42715, Note_on_c, 13, 57, 0
15, 42720, Note_on_c, 13, 58, 76
15, 42775, Note_on_c, 13, 58, 0
15, 42780, Note_on_c, 13, 58, 76
15, 42835, Note_on_c, 13, 58, 0
15, 42840, Note_on_c, 13, 58, 76
15, 42895, Note_on_c, 13, 58, 0
15, 42900, Note_on_c, 13, 58, 76
15, 42955, Note_on_c, 13, 58, 0
15, 42960, Note_on_c, 13, 55, 76
15, 42960, Note_on_c, 13, 58, 76
15, 43015, Note_on_c, 13, 55, 0
15, 43015, Note_on_c, 13, 58, 0
15, 43020, Note_on_c, 13, 55, 76
15, 43020, Note_on_c, 13, 58, 76
15, 43075, Note_on_c, 13, 55, 0
15, 43075, Note_on_c, 13, 58, 0
15, 43080, Note_on_c, 13, 60, 76
15, 43080, Note_on_c, 13, 56, 76
15, 43135, Note_on_c, 13, 60, 0
15, 43135, Note_on_c, 13, 56, 0
15, 43140, Note_on_c, 13, 63, 76
15, 43140, Note_on_c, 13, 51, 76
15, 43195, Note_on_c, 13, 63, 0
15, 43195, Note_on_c, 13, 51, 0
15, 43200, Note_on_c, 13, 63, 76
15, 43200, Note_on_c, 13, 51, 76
15, 43255, Note_on_c, 13, 63, 0
15, 43255, Note_on_c, 13, 51, 0
15, 43260, Note_on_c, 13, 51, 76
15, 43260, Note_on_c, 13, 63, 76
15, 43315, Note_on_c, 13, 51, 0
15, 43315, Note_on_c, 13, 63, 0
15, 43320, Note_on_c, 13, 63, 76
15, 43320, Note_on_c, 13, 51, 76
15, 43465, Note_on_c, 13, 63, 0
15, 43465, Note_on_c, 13, 51, 0
15, 43470, Note_on_c, 13, 51, 76
15, 43499, Note_on_c, 13, 51, 0
15, 43500, Note_on_c, 13, 53, 76
15, 43529, Note_on_c, 13, 53, 0
15, 43530, Note_on_c, 13, 55, 76
15, 43559, Note_on_c, 13, 55, 0
15, 43560, Note_on_c, 13, 56, 76
15, 43589, Note_on_c, 13, 56, 0
15, 43590, Note_on_c, 13, 58, 76
15, 43619, Note_on_c, 13, 58, 0
15, 43620, Note_on_c, 13, 60, 76
15, 43649, Note_on_c, 13, 60, 0
15, 43650, Note_on_c, 13, 62, 76
15, 43675, Note_on_c, 13, 62, 0
15, 43680, Note_on_c, 13, 63, 76
15, 43859, Note_on_c, 13, 63, 0
15, 43860, Note_on_c, 13, 65, 76
15, 43889, Note_on_c, 13, 65, 0
15, 43890, Note_on_c, 13, 67, 76
15, 43919, Note_on_c, 13, 67, 0
15, 43920, Note_on_c, 13, 68, 76
15, 43949, Note_on_c, 13, 68, 0
15, 43950, Note_on_c, 13, 70, 76
15, 43979, Note_on_c, 13, 70, 0
15, 43980, Note_on_c, 13, 72, 76
15, 44009, Note_on_c, 13, 72, 0
15, 44010, Note_on_c, 13, 74, 76
15, 44035, Note_on_c, 13, 74, 0
15, 44040, Note_on_c, 13, 75, 76
15, 44264, Note_on_c, 13, 75, 0
15, 44280, Note_on_c, 13, 55, 44
15, 44391, Note_on_c, 13, 55, 0
15, 44400, Note_on_c, 13, 55, 44
15, 44519, Note_on_c, 13, 55, 0
15, 44640, Note_on_c, 13, 55, 44
15, 44751, Note_on_c, 13, 55, 0
15, 44760, Note_on_c, 13, 55, 44
15, 44879, Note_on_c, 13, 55, 0
15, 45000, Note_on_c, 13, 55, 44
15, 45111, Note_on_c, 13, 55, 0
15, 45120, Note_on_c, 13, 55, 44
15, 45239, Note_on_c, 13, 55, 0
15, 45360, Note_on_c, 13, 55, 44
15, 45471, Note_on_c, 13, 55, 0
15, 45480, Note_on_c, 13, 55, 44
15, 45599, Note_on_c, 13, 55, 0
15, 45720, Note_on_c, 13, 55, 44
15, 45831, Note_on_c, 13, 55, 0
15, 45840, Note_on_c, 13, 55, 44
15, 45959, Note_on_c, 13, 55, 0
15, 46080, Note_on_c, 13, 55, 44
15, 46191, Note_on_c, 13, 55, 0
15, 46200, Note_on_c, 13, 55, 44
15, 46319, Note_on_c, 13, 55, 0
15, 46440, Note_on_c, 13, 51, 44
15, 46551, Note_on_c, 13, 51, 0
15, 46560, Note_on_c, 13, 51, 44
15, 46679, Note_on_c, 13, 51, 0
15, 46800, Note_on_c, 13, 51, 44
15, 46911, Note_on_c, 13, 51, 0
15, 46920, Note_on_c, 13, 51, 44
15, 47039, Note_on_c, 13, 51, 0
15, 47160, Note_on_c, 13, 51, 44
15, 47271, Note_on_c, 13, 51, 0
15, 47280, Note_on_c, 13, 51, 76
15, 47391, Note_on_c, 13, 51, 0
15, 51540, Note_on_c, 13, 55, 52
15, 51584, Note_on_c, 13, 55, 0
15, 51600, Note_on_c, 13, 56, 52
15, 51644, Note_on_c, 13, 56, 0
15, 51660, Note_on_c, 13, 58, 52
15, 51704, Note_on_c, 13, 58, 0
15, 51720, Note_on_c, 13, 60, 52
15, 51764, Note_on_c, 13, 60, 0
15, 52920, Note_on_c, 13, 52, 84
15, 53005, Note_on_c, 13, 52, 0
15, 53010, Note_on_c, 13, 55, 84
15, 53035, Note_on_c, 13, 55, 0
15, 53040, Note_on_c, 13, 60, 84
15, 53151, Note_on_c, 13, 60, 0
15, 53160, Note_on_c, 13, 60, 84
15, 53271, Note_on_c, 13, 60, 0
15, 53280, Note_on_c, 13, 55, 84
15, 53391, Note_on_c, 13, 55, 0
15, 53400, Note_on_c, 13, 48, 84
15, 53400, Note_on_c, 13, 60, 84
15, 53991, Note_on_c, 13, 48, 0
15, 53991, Note_on_c, 13, 60, 0
15, 54000, Note_on_c, 13, 60, 84
15, 54085, Note_on_c, 13, 60, 0
15, 54090, Note_on_c, 13, 55, 84
15, 54115, Note_on_c, 13, 55, 0
15, 54120, Note_on_c, 13, 48, 84
15, 54120, Note_on_c, 13, 60, 84
15, 54231, Note_on_c, 13, 48, 0
15, 54231, Note_on_c, 13, 60, 0
15, 54240, Note_on_c, 13, 48, 84
15, 54240, Note_on_c, 13, 60, 84
15, 54351, Note_on_c, 13, 48, 0
15, 54351, Note_on_c, 13, 60, 0
15, 54360, Note_on_c, 13, 48, 84
15, 54360, Note_on_c, 13, 60, 84
15, 54471, Note_on_c, 13, 48, 0
15, 54471, Note_on_c, 13, 60, 0
15, 54480, Note_on_c, 13, 48, 84
15, 54480, Note_on_c, 13, 60, 84
15, 55071, Note_on_c, 13, 48, 0
15, 55071, Note_on_c, 13, 60, 0
15, 55080, Note_on_c, 13, 60, 84
15, 55080, Note_on_c, 13, 48, 84
15, 55165, Note_on_c, 13, 60, 0
15, 55165, Note_on_c, 13, 48, 0
15, 55170, Note_on_c, 13, 60, 84
15, 55170, Note_on_c, 13, 48, 84
15, 55195, Note_on_c, 13, 60, 0
15, 55195, Note_on_c, 13, 48, 0
15, 55200, Note_on_c, 13, 48, 84
15, 55200, Note_on_c, 13, 60, 84
15, 55431, Note_on_c, 13, 48, 0
15, 55431, Note_on_c, 13, 60, 0
15, 55440, Note_on_c, 13, 60, 84
15, 55440, Note_on_c, 13, 48, 84
15, 55525, Note_on_c, 13, 60, 0
15, 55525, Note_on_c, 13, 48, 0
15, 55530, Note_on_c, 13, 48, 84
15, 55530, Note_on_c, 13, 60, 84
15, 55555, Note_on_c, 13, 48, 0
15, 55555, Note_on_c, 13, 60, 0
15, 55560, Note_on_c, 13, 60, 84
15, 55560, Note_on_c, 13, 48, 84
15, 55791, Note_on_c, 13, 60, 0
15, 55791, Note_on_c, 13, 48, 0
15, 55800, Note_on_c, 13, 60, 84
15, 55800, Note_on_c, 13, 48, 84
15, 55885, Note_on_c, 13, 60, 0
15, 55885, Note_on_c, 13, 48, 0
15, 55890, Note_on_c, 13, 60, 84
15, 55890, Note_on_c, 13, 48, 84
15, 55915, Note_on_c, 13, 60, 0
15, 55915, Note_on_c, 13, 48, 0
15, 55920, Note_on_c, 13, 48, 84
15, 55920, Note_on_c, 13, 60, 84
15, 56159, Note_on_c, 13, 48, 0
15, 56159, Note_on_c, 13, 60, 0
15, 56520, Note_on_c, 13, 48, 52
15, 56609, Note_on_c, 13, 48, 0
15, 56610, Note_on_c, 13, 52, 52
15, 56639, Note_on_c, 13, 52, 0
15, 56640, Note_on_c, 13, 55, 52
15, 56729, Note_on_c, 13, 55, 0
15, 56880, Note_on_c, 13, 48, 52
15, 56969, Note_on_c, 13, 48, 0
15, 56970, Note_on_c, 13, 53, 52
15, 56999, Note_on_c, 13, 53, 0
15, 57000, Note_on_c, 13, 56, 52
15, 57089, Note_on_c, 13, 56, 0
15, 57240, Note_on_c, 13, 51, 52
15, 57329, Note_on_c, 13, 51, 0
15, 57330, Note_on_c, 13, 55, 52
15, 57355, Note_on_c, 13, 55, 0
15, 57360, Note_on_c, 13, 58, 52
15, 57389, Note_on_c, 13, 58, 0
15, 57400, Note_on_c, 13, 51, 52
15, 57429, Note_on_c, 13, 51, 0
15, 57440, Note_on_c, 13, 55, 52
15, 57469, Note_on_c, 13, 55, 0
15, 57480, Note_on_c, 13, 58, 52
15, 57509, Note_on_c, 13, 58, 0
15, 57520, Note_on_c, 13, 51, 52
15, 57549, Note_on_c, 13, 51, 0
15, 57560, Note_on_c, 13, 55, 52
15, 57589, Note_on_c, 13, 55, 0
15, 57600, Note_on_c, 13, 58, 52
15, 57629, Note_on_c, 13, 58, 0
15, 57640, Note_on_c, 13, 51, 52
15, 57669, Note_on_c, 13, 51, 0
15, 57680, Note_on_c, 13, 55, 52
15, 57709, Note_on_c, 13, 55, 0
15, 57720, Note_on_c, 13, 58, 48
15, 57749, Note_on_c, 13, 58, 0
15, 57760, Note_on_c, 13, 51, 48
15, 57789, Note_on_c, 13, 51, 0
15, 57800, Note_on_c, 13, 55, 48
15, 57829, Note_on_c, 13, 55, 0
15, 57840, Note_on_c, 13, 58, 48
15, 57869, Note_on_c, 13, 58, 0
15, 57880, Note_on_c, 13, 51, 48
15, 57909, Note_on_c, 13, 51, 0
15, 57920, Note_on_c, 13, 55, 48
15, 57949, Note_on_c, 13, 55, 0
15, 57960, Note_on_c, 13, 58, 48
15, 57989, Note_on_c, 13, 58, 0
15, 58000, Note_on_c, 13, 51, 48
15, 58029, Note_on_c, 13, 51, 0
15, 58040, Note_on_c, 13, 55, 48
15, 58069, Note_on_c, 13, 55, 0
15, 58080, Note_on_c, 13, 58, 44
15, 58109, Note_on_c, 13, 58, 0
15, 58110, Note_on_c, 13, 55, 44
15, 58139, Note_on_c, 13, 55, 0
15, 58140, Note_on_c, 13, 51, 44
15, 58169, Note_on_c, 13, 51, 0
15, 58170, Note_on_c, 13, 55, 44
15, 58195, Note_on_c, 13, 55, 0
15, 58200, Note_on_c, 13, 58, 44
15, 58229, Note_on_c, 13, 58, 0
15, 58230, Note_on_c, 13, 55, 44
15, 58259, Note_on_c, 13, 55, 0
15, 58260, Note_on_c, 13, 51, 44
15, 58289, Note_on_c, 13, 51, 0
15, 58290, Note_on_c, 13, 55, 44
15, 58315, Note_on_c, 13, 55, 0
15, 58320, Note_on_c, 13, 58, 44
15, 58349, Note_on_c, 13, 58, 0
15, 58350, Note_on_c, 13, 55, 44
15, 58379, Note_on_c, 13, 55, 0
15, 58380, Note_on_c, 13, 51, 44
15, 58409, Note_on_c, 13, 51, 0
15, 58410, Note_on_c, 13, 55, 44
15, 58435, Note_on_c, 13, 55, 0
15, 58440, Note_on_c, 13, 58, 44
15, 58559, Note_on_c, 13, 58, 0
15, 59520, Program_c, 13, 45
15, 59760, Note_on_c, 13, 56, 48
15, 59760, Note_on_c, 13, 51, 48
15, 59879, Note_on_c, 13, 56, 0
15, 59879, Note_on_c, 13, 51, 0
15, 59880, Note_on_c, 13, 56, 48
15, 59880, Note_on_c, 13, 51, 48
15, 59999, Note_on_c, 13, 56, 0
15, 59999, Note_on_c, 13, 51, 0
15, 60000, Note_on_c, 13, 51, 48
15, 60000, Note_on_c, 13, 56, 48
15, 60119, Note_on_c, 13, 51, 0
15, 60119, Note_on_c, 13, 56, 0
15, 60120, Note_on_c, 13, 56, 48
15, 60120, Note_on_c, 13, 51, 48
15, 60239, Note_on_c, 13, 56, 0
15, 60239, Note_on_c, 13, 51, 0
15, 60240, Note_on_c, 13, 51, 48
15, 60240, Note_on_c, 13, 55, 48
15, 60359, Note_on_c, 13, 51, 0
15, 60359, Note_on_c, 13, 55, 0
15, 60360, Note_on_c, 13, 51, 48
15, 60360, Note_on_c, 13, 55, 48
15, 60479, Note_on_c, 13, 51, 0
15, 60479, Note_on_c, 13, 55, 0
15, 60480, Note_on_c, 13, 55, 48
15, 60480, Note_on_c, 13, 51, 48
15, 60599, Note_on_c, 13, 55, 0
15, 60599, Note_on_c, 13, 51, 0
15, 60600, Note_on_c, 13, 51, 48
15, 60600, Note_on_c, 13, 56, 48
15, 60719, Note_on_c, 13, 51, 0
15, 60719, Note_on_c, 13, 56, 0
15, 60720, Note_on_c, 13, 51, 48
15, 60720, Note_on_c, 13, 56, 48
15, 60839, Note_on_c, 13, 51, 0
15, 60839, Note_on_c, 13, 56, 0
15, 60840, Note_on_c, 13, 51, 48
15, 60840, Note_on_c, 13, 56, 48
15, 60959, Note_on_c, 13, 51, 0
15, 60959, Note_on_c, 13, 56, 0
15, 60960, Note_on_c, 13, 54, 48
15, 60960, Note_on_c, 13, 58, 48
15, 61079, Note_on_c, 13, 54, 0
15, 61079, Note_on_c, 13, 58, 0
15, 61080, Note_on_c, 13, 54, 48
15, 61080, Note_on_c, 13, 58, 48
15, 61199, Note_on_c, 13, 54, 0
15, 61199, Note_on_c, 13, 58, 0
15, 61200, Note_on_c, 13, 58, 48
15, 61200, Note_on_c, 13, 54, 48
15, 61319, Note_on_c, 13, 58, 0
15, 61319, Note_on_c, 13, 54, 0
15, 61320, Note_on_c, 13, 59, 48
15, 61320, Note_on_c, 13, 54, 48
15, 61439, Note_on_c, 13, 59, 0
15, 61439, Note_on_c, 13, 54, 0
15, 61440, Note_on_c, 13, 59, 48
15, 61440, Note_on_c, 13, 54, 48
15, 61559, Note_on_c, 13, 59, 0
15, 61559, Note_on_c, 13, 54, 0
15, 61560, Note_on_c, 13, 59, 48
15, 61560, Note_on_c, 13, 54, 48
15, 61679, Note_on_c, 13, 59, 0
15, 61679, Note_on_c, 13, 54, 0
15, 61680, Note_on_c, 13, 54, 48
15, 61680, Note_on_c, 13, 58, 48
15, 61799, Note_on_c, 13, 54, 0
15, 61799, Note_on_c, 13, 58, 0
15, 61800, Note_on_c, 13, 54, 48
15, 61800, Note_on_c, 13, 58, 48
15, 61919, Note_on_c, 13, 54, 0
15, 61919, Note_on_c, 13, 58, 0
15, 61920, Note_on_c, 13, 54, 48
15, 61920, Note_on_c, 13, 58, 48
15, 62039, Note_on_c, 13, 54, 0
15, 62039, Note_on_c, 13, 58, 0
15, 62040, Note_on_c, 13, 51, 48
15, 62040, Note_on_c, 13, 56, 48
15, 62159, Note_on_c, 13, 51, 0
15, 62159, Note_on_c, 13, 56, 0
15, 62160, Note_on_c, 13, 56, 48
15, 62160, Note_on_c, 13, 51, 48
15, 62279, Note_on_c, 13, 56, 0
15, 62279, Note_on_c, 13, 51, 0
15, 62280, Note_on_c, 13, 56, 48
15, 62280, Note_on_c, 13, 51, 48
15, 62399, Note_on_c, 13, 56, 0
15, 62399, Note_on_c, 13, 51, 0
15, 62400, Note_on_c, 13, 51, 48
15, 62400, Note_on_c, 13, 55, 48
15, 62519, Note_on_c, 13, 51, 0
15, 62519, Note_on_c, 13, 55, 0
15, 62520, Note_on_c, 13, 55, 48
15, 62520, Note_on_c, 13, 51, 48
15, 62579, Note_on_c, 13, 55, 0
15, 62579, Note_on_c, 13, 51, 0
15, 62580, Note_on_c, 13, 56, 50
15, 62580, Note_on_c, 13, 51, 50
15, 62639, Note_on_c, 13, 56, 0
15, 62639, Note_on_c, 13, 51, 0
15, 62640, Note_on_c, 13, 51, 52
15, 62640, Note_on_c, 13, 56, 52
15, 62699, Note_on_c, 13, 51, 0
15, 62699, Note_on_c, 13, 56, 0
15, 62700, Note_on_c, 13, 51, 54
15, 62700, Note_on_c, 13, 56, 54
15, 62759, Note_on_c, 13, 51, 0
15, 62759, Note_on_c, 13, 56, 0
15, 62760, Note_on_c, 13, 55, 56
15, 62760, Note_on_c, 13, 51, 56
15, 62879, Note_on_c, 13, 55, 0
15, 62879, Note_on_c, 13, 51, 0
15, 62880, Note_on_c, 13, 55, 60
15, 62880, Note_on_c, 13, 51, 60
15, 62939, Note_on_c, 13, 55, 0
15, 62939, Note_on_c, 13, 51, 0
15, 62940, Note_on_c, 13, 51, 62
15, 62940, Note_on_c, 13, 56, 62
15, 62999, Note_on_c, 13, 51, 0
15, 62999, Note_on_c, 13, 56, 0
15, 63000, Note_on_c, 13, 56, 64
15, 63000, Note_on_c, 13, 51, 64
15, 63059, Note_on_c, 13, 56, 0
15, 63059, Note_on_c, 13, 51, 0
15, 63060, Note_on_c, 13, 56, 66
15, 63060, Note_on_c, 13, 51, 66
15, 63119, Note_on_c, 13, 56, 0
15, 63119, Note_on_c, 13, 51, 0
15, 63120, Note_on_c, 13, 51, 68
15, 63120, Note_on_c, 13, 55, 68
15, 63164, Note_on_c, 13, 51, 0
15, 63164, Note_on_c, 13, 55, 0
15, 63180, Note_on_c, 13, 55, 68
15, 63180, Note_on_c, 13, 51, 68
15, 63224, Note_on_c, 13, 55, 0
15, 63224, Note_on_c, 13, 51, 0
15, 64920, Program_c, 13, 48
15, 65175, Control_c, 13, 11, 62
15, 65190, Note_on_c, 13, 51, 84
15, 65193, Control_c, 13, 11, 63
15, 65212, Control_c, 13, 11, 64
15, 65219, Note_on_c, 13, 51, 0
15, 65220, Note_on_c, 13, 53, 84
15, 65230, Control_c, 13, 11, 65
15, 65248, Control_c, 13, 11, 66
15, 65249, Note_on_c, 13, 53, 0
15, 65250, Note_on_c, 13, 55, 84
15, 65266, Control_c, 13, 11, 67
15, 65279, Note_on_c, 13, 55, 0
15, 65280, Note_on_c, 13, 56, 84
15, 65285, Control_c, 13, 11, 68
15, 65303, Control_c, 13, 11, 69
15, 65309, Note_on_c, 13, 56, 0
15, 65310, Note_on_c, 13, 58, 84
15, 65321, Control_c, 13, 11, 70
15, 65339, Note_on_c, 13, 58, 0
15, 65339, Control_c, 13, 11, 71
15, 65340, Note_on_c, 13, 60, 84
15, 65357, Control_c, 13, 11, 72
15, 65369, Note_on_c, 13, 60, 0
15, 65370, Note_on_c, 13, 61, 84
15, 65376, Control_c, 13, 11, 73
15, 65394, Control_c, 13, 11, 74
15, 65399, Note_on_c, 13, 61, 0
15, 65400, Note_on_c, 13, 63, 84
15, 65412, Control_c, 13, 11, 75
15, 65430, Control_c, 13, 11, 76
15, 65449, Control_c, 13, 11, 77
15, 65467, Control_c, 13, 11, 78
15, 65485, Control_c, 13, 11, 79
15, 65503, Control_c, 13, 11, 80
15, 65522, Control_c, 13, 11, 81
15, 65540, Control_c, 13, 11, 82
15, 65558, Control_c, 13, 11, 83
15, 65576, Control_c, 13, 11, 84
15, 65579, Note_on_c, 13, 63, 0
15, 65594, Control_c, 13, 11, 85
15, 65923, Control_c, 13, 11, 103
15, 65940, Note_on_c, 13, 63, 84
15, 65940, Note_on_c, 13, 51, 84
15, 65941, Control_c, 13, 11, 104
15, 65959, Control_c, 13, 11, 105
15, 65977, Control_c, 13, 11, 106
15, 65995, Note_on_c, 13, 63, 0
15, 65995, Note_on_c, 13, 51, 0
15, 65995, Control_c, 13, 11, 107
15, 66000, Note_on_c, 13, 51, 84
15, 66000, Note_on_c, 13, 63, 84
15, 66014, Control_c, 13, 11, 108
15, 66032, Control_c, 13, 11, 109
15, 66050, Control_c, 13, 11, 110
15, 66055, Note_on_c, 13, 51, 0
15, 66055, Note_on_c, 13, 63, 0
15, 66060, Note_on_c, 13, 63, 84
15, 66060, Note_on_c, 13, 51, 84
15, 66068, Control_c, 13, 11, 111
15, 66087, Control_c, 13, 11, 112
15, 66105, Control_c, 13, 11, 113
15, 66115, Note_on_c, 13, 63, 0
15, 66115, Note_on_c, 13, 51, 0
15, 66120, Note_on_c, 13, 63, 84
15, 66120, Note_on_c, 13, 51, 84
15, 66123, Control_c, 13, 11, 114
15, 66141, Control_c, 13, 11, 115
15, 66159, Control_c, 13, 11, 116
15, 66175, Note_on_c, 13, 63, 0
15, 66175, Note_on_c, 13, 51, 0
15, 66178, Control_c, 13, 11, 117
15, 66180, Note_on_c, 13, 51, 84
15, 66180, Note_on_c, 13, 63, 84
15, 66196, Control_c, 13, 11, 118
15, 66214, Control_c, 13, 11, 119
15, 66232, Control_c, 13, 11, 120
15, 66235, Note_on_c, 13, 51, 0
15, 66235, Note_on_c, 13, 63, 0
15, 66240, Note_on_c, 13, 51, 84
15, 66240, Note_on_c, 13, 63, 84
15, 66251, Control_c, 13, 11, 121
15, 66269, Control_c, 13, 11, 122
15, 66287, Control_c, 13, 11, 123
15, 66295, Note_on_c, 13, 51, 0
15, 66295, Note_on_c, 13, 63, 0
15, 66300, Note_on_c, 13, 51, 84
15, 66300, Note_on_c, 13, 63, 84
15, 66305, Control_c, 13, 11, 124
15, 66324, Control_c, 13, 11, 125
15, 66342, Control_c, 13, 11, 127
15, 66355, Note_on_c, 13, 51, 0
15, 66355, Note_on_c, 13, 63, 0
15, 66360, Note_on_c, 13, 60, 84
15, 66360, Note_on_c, 13, 51, 84
15, 66360, Note_on_c, 13, 63, 84
15, 66385, Note_on_c, 13, 60, 0
15, 66385, Note_on_c, 13, 51, 0
15, 66385, Note_on_c, 13, 63, 0
15, 66390, Note_on_c, 13, 51, 84
15, 66390, Note_on_c, 13, 63, 84
15, 66390, Note_on_c, 13, 60, 84
15, 66415, Note_on_c, 13, 51, 0
15, 66415, Note_on_c, 13, 63, 0
15, 66415, Note_on_c, 13, 60, 0
15, 66420, Note_on_c, 13, 60, 84
15, 66420, Note_on_c, 13, 63, 84
15, 66420, Note_on_c, 13, 51, 84
15, 66445, Note_on_c, 13, 60, 0
15, 66445, Note_on_c, 13, 63, 0
15, 66445, Note_on_c, 13, 51, 0
15, 66450, Note_on_c, 13, 63, 84
15, 66450, Note_on_c, 13, 60, 84
15, 66450, Note_on_c, 13, 51, 84
15, 66475, Note_on_c, 13, 63, 0
15, 66475, Note_on_c, 13, 60, 0
15, 66475, Note_on_c, 13, 51, 0
15, 66480, Note_on_c, 13, 60, 84
15, 66480, Note_on_c, 13, 63, 84
15, 66480, Note_on_c, 13, 51, 84
15, 66505, Note_on_c, 13, 60, 0
15, 66505, Note_on_c, 13, 63, 0
15, 66505, Note_on_c, 13, 51, 0
15, 66510, Note_on_c, 13, 60, 84
15, 66510, Note_on_c, 13, 63, 84
15, 66510, Note_on_c, 13, 51, 84
15, 66535, Note_on_c, 13, 60, 0
15, 66535, Note_on_c, 13, 63, 0
15, 66535, Note_on_c, 13, 51, 0
15, 66540, Note_on_c, 13, 60, 84
15, 66540, Note_on_c, 13, 51, 84
15, 66540, Note_on_c, 13, 63, 84
15, 66565, Note_on_c, 13, 60, 0
15, 66565, Note_on_c, 13, 51, 0
15, 66565, Note_on_c, 13, 63, 0
15, 66570, Note_on_c, 13, 60, 84
15, 66570, Note_on_c, 13, 63, 84
15, 66570, Note_on_c, 13, 51, 84
15, 66595, Note_on_c, 13, 60, 0
15, 66595, Note_on_c, 13, 63, 0
15, 66595, Note_on_c, 13, 51, 0
15, 66600, Note_on_c, 13, 63, 84
15, 66600, Note_on_c, 13, 60, 84
15, 66600, Note_on_c, 13, 51, 84
15, 66625, Note_on_c, 13, 63, 0
15, 66625, Note_on_c, 13, 60, 0
15, 66625, Note_on_c, 13, 51, 0
15, 66630, Note_on_c, 13, 60, 84
15, 66630, Note_on_c, 13, 51, 84
15, 66630, Note_on_c, 13, 63, 84
15, 66655, Note_on_c, 13, 60, 0
15, 66655, Note_on_c, 13, 51, 0
15, 66655, Note_on_c, 13, 63, 0
15, 66660, Note_on_c, 13, 51, 84
15, 66660, Note_on_c, 13, 60, 84
15, 66660, Note_on_c, 13, 63, 84
15, 66685, Note_on_c, 13, 51, 0
15, 66685, Note_on_c, 13, 60, 0
15, 66685, Note_on_c, 13, 63, 0
15, 66690, Note_on_c, 13, 63, 84
15, 66690, Note_on_c, 13, 60, 84
15, 66690, Note_on_c, 13, 51, 84
15, 66715, Note_on_c, 13, 63, 0
15, 66715, Note_on_c, 13, 60, 0
15, 66715, Note_on_c, 13, 51, 0
15, 66720, Note_on_c, 13, 65, 84
15, 66720, Note_on_c, 13, 53, 84
15, 66745, Note_on_c, 13, 65, 0
15, 66745, Note_on_c, 13, 53, 0
15, 66750, Note_on_c, 13, 65, 84
15, 66750, Note_on_c, 13, 53, 84
15, 66775, Note_on_c, 13, 65, 0
15, 66775, Note_on_c, 13, 53, 0
15, 66780, Note_on_c, 13, 65, 84
15, 66780, Note_on_c, 13, 53, 84
15, 66805, Note_on_c, 13, 65, 0
15, 66805, Note_on_c, 13, 53, 0
15, 66810, Note_on_c, 13, 65, 84
15, 66810, Note_on_c, 13, 53, 84
15, 66835, Note_on_c, 13, 65, 0
15, 66835, Note_on_c, 13, 53, 0
15, 66840, Note_on_c, 13, 65, 84
15, 66840, Note_on_c, 13, 53, 84
15, 66865, Note_on_c, 13, 65, 0
15, 66865, Note_on_c, 13, 53, 0
15, 66870, Note_on_c, 13, 53, 84
15, 66870, Note_on_c, 13, 65, 84
15, 66895, Note_on_c, 13, 53, 0
15, 66895, Note_on_c, 13, 65, 0
15, 66900, Note_on_c, 13, 53, 84
15, 66900, Note_on_c, 13, 65, 84
15, 66925, Note_on_c, 13, 53, 0
15, 66925, Note_on_c, 13, 65, 0
15, 66930, Note_on_c, 13, 65, 84
15, 66930, Note_on_c, 13, 53, 84
15, 66955, Note_on_c, 13, 65, 0
15, 66955, Note_on_c, 13, 53, 0
15, 66960, Note_on_c, 13, 65, 84
15, 66960, Note_on_c, 13, 53, 84
15, 66985, Note_on_c, 13, 65, 0
15, 66985, Note_on_c, 13, 53, 0
15, 66990, Note_on_c, 13, 53, 84
15, 66990, Note_on_c, 13, 65, 84
15, 67015, Note_on_c, 13, 53, 0
15, 67015, Note_on_c, 13, 65, 0
15, 67020, Note_on_c, 13, 53, 84
15, 67020, Note_on_c, 13, 65, 84
15, 67045, Note_on_c, 13, 53, 0
15, 67045, Note_on_c, 13, 65, 0
15, 67050, Note_on_c, 13, 53, 84
15, 67050, Note_on_c, 13, 65, 84
15, 67075, Note_on_c, 13, 53, 0
15, 67075, Note_on_c, 13, 65, 0
15, 67080, Note_on_c, 13, 58, 84
15, 67080, Note_on_c, 13, 61, 84
15, 67105, Note_on_c, 13, 58, 0
15, 67105, Note_on_c, 13, 61, 0
15, 67110, Note_on_c, 13, 58, 84
15, 67110, Note_on_c, 13, 61, 84
15, 67135, Note_on_c, 13, 58, 0
15, 67135, Note_on_c, 13, 61, 0
15, 67140, Note_on_c, 13, 61, 84
15, 67140, Note_on_c, 13, 58, 84
15, 67165, Note_on_c, 13, 61, 0
15, 67165, Note_on_c, 13, 58, 0
15, 67170, Note_on_c, 13, 61, 84
15, 67170, Note_on_c, 13, 58, 84
15, 67195, Note_on_c, 13, 61, 0
15, 67195, Note_on_c, 13, 58, 0
15, 67200, Note_on_c, 13, 49, 84
15, 67200, Note_on_c, 13, 61, 84
15, 67225, Note_on_c, 13, 49, 0
15, 67225, Note_on_c, 13, 61, 0
15, 67230, Note_on_c, 13, 49, 84
15, 67230, Note_on_c, 13, 61, 84
15, 67255, Note_on_c, 13, 49, 0
15, 67255, Note_on_c, 13, 61, 0
15, 67260, Note_on_c, 13, 61, 84
15, 67260, Note_on_c, 13, 49, 84
15, 67285, Note_on_c, 13, 61, 0
15, 67285, Note_on_c, 13, 49, 0
15, 67290, Note_on_c, 13, 61, 84
15, 67290, Note_on_c, 13, 49, 84
15, 67315, Note_on_c, 13, 61, 0
15, 67315, Note_on_c, 13, 49, 0
15, 67320, Note_on_c, 13, 49, 84
15, 67320, Note_on_c, 13, 61, 84
15, 67345, Note_on_c, 13, 49, 0
15, 67345, Note_on_c, 13, 61, 0
15, 67350, Note_on_c, 13, 49, 84
15, 67350, Note_on_c, 13, 61, 84
15, 67375, Note_on_c, 13, 49, 0
15, 67375, Note_on_c, 13, 61, 0
15, 67380, Note_on_c, 13, 61, 84
15, 67380, Note_on_c, 13, 49, 84
15, 67405, Note_on_c, 13, 61, 0
15, 67405, Note_on_c, 13, 49, 0
15, 67410, Note_on_c, 13, 49, 84
15, 67410, Note_on_c, 13, 61, 84
15, 67435, Note_on_c, 13, 49, 0
15, 67435, Note_on_c, 13, 61, 0
15, 67440, Note_on_c, 13, 60, 84
15, 67440, Note_on_c, 13, 48, 84
15, 67465, Note_on_c, 13, 60, 0
15, 67465, Note_on_c, 13, 48, 0
15, 67470, Note_on_c, 13, 55, 84
15, 67470, Note_on_c, 13, 52, 84
15, 67495, Note_on_c, 13, 55, 0
15, 67495, Note_on_c, 13, 52, 0
15, 67500, Note_on_c, 13, 52, 84
15, 67500, Note_on_c, 13, 55, 84
15, 67525, Note_on_c, 13, 52, 0
15, 67525, Note_on_c, 13, 55, 0
15, 67530, Note_on_c, 13, 52, 84
15, 67530, Note_on_c, 13, 55, 84
15, 67555, Note_on_c, 13, 52, 0
15, 67555, Note_on_c, 13, 55, 0
15, 67560, Note_on_c, 13, 55, 84
15, 67560, Note_on_c, 13, 52, 84
15, 67585, Note_on_c, 13, 55, 0
15, 67585, Note_on_c, 13, 52, 0
15, 67590, Note_on_c, 13, 52, 84
15, 67590, Note_on_c, 13, 55, 84
15, 67615, Note_on_c, 13, 52, 0
15, 67615, Note_on_c, 13, 55, 0
15, 67620, Note_on_c, 13, 52, 84
15, 67620, Note_on_c, 13, 55, 84
15, 67645, Note_on_c, 13, 52, 0
15, 67645, Note_on_c, 13, 55, 0
15, 67650, Note_on_c, 13, 55, 84
15, 67650, Note_on_c, 13, 52, 84
15, 67675, Note_on_c, 13, 55, 0
15, 67675, Note_on_c, 13, 52, 0
15, 67680, Note_on_c, 13, 55, 84
15, 67680, Note_on_c, 13, 52, 84
15, 67705, Note_on_c, 13, 55, 0
15, 67705, Note_on_c, 13, 52, 0
15, 67710, Note_on_c, 13, 55, 84
15, 67710, Note_on_c, 13, 60, 84
15, 67735, Note_on_c, 13, 55, 0
15, 67735, Note_on_c, 13, 60, 0
15, 67740, Note_on_c, 13, 55, 84
15, 67740, Note_on_c, 13, 60, 84
15, 67765, Note_on_c, 13, 55, 0
15, 67765, Note_on_c, 13, 60, 0
15, 67770, Note_on_c, 13, 55, 84
15, 67770, Note_on_c, 13, 60, 84
15, 67795, Note_on_c, 13, 55, 0
15, 67795, Note_on_c, 13, 60, 0
15, 67800, Note_on_c, 13, 60, 84
15, 67800, Note_on_c, 13, 57, 84
15, 67825, Note_on_c, 13, 60, 0
15, 67825, Note_on_c, 13, 57, 0
15, 67830, Note_on_c, 13, 53, 84
15, 67830, Note_on_c, 13, 57, 84
15, 67855, Note_on_c, 13, 53, 0
15, 67855, Note_on_c, 13, 57, 0
15, 67860, Note_on_c, 13, 57, 84
15, 67860, Note_on_c, 13, 53, 84
15, 67885, Note_on_c, 13, 57, 0
15, 67885, Note_on_c, 13, 53, 0
15, 67890, Note_on_c, 13, 57, 84
15, 67890, Note_on_c, 13, 53, 84
15, 67915, Note_on_c, 13, 57, 0
15, 67915, Note_on_c, 13, 53, 0
15, 67920, Note_on_c, 13, 53, 84
15, 67920, Note_on_c, 13, 65, 84
15, 67945, Note_on_c, 13, 53, 0
15, 67945, Note_on_c, 13, 65, 0
15, 67950, Note_on_c, 13, 65, 84
15, 67950, Note_on_c, 13, 53, 84
15, 67975, Note_on_c, 13, 65, 0
15, 67975, Note_on_c, 13, 53, 0
15, 67980, Note_on_c, 13, 53, 84
15, 67980, Note_on_c, 13, 65, 84
15, 68005, Note_on_c, 13, 53, 0
15, 68005, Note_on_c, 13, 65, 0
15, 68010, Note_on_c, 13, 65, 84
15, 68010, Note_on_c, 13, 53, 84
15, 68035, Note_on_c, 13, 65, 0
15, 68035, Note_on_c, 13, 53, 0
15, 68040, Note_on_c, 13, 49, 84
15, 68040, Note_on_c, 13, 61, 84
15, 68065, Note_on_c, 13, 49, 0
15, 68065, Note_on_c, 13, 61, 0
15, 68070, Note_on_c, 13, 61, 84
15, 68070, Note_on_c, 13, 49, 84
15, 68095, Note_on_c, 13, 61, 0
15, 68095, Note_on_c, 13, 49, 0
15, 68100, Note_on_c, 13, 61, 84
15, 68100, Note_on_c, 13, 49, 84
15, 68125, Note_on_c, 13, 61, 0
15, 68125, Note_on_c, 13, 49, 0
15, 68130, Note_on_c, 13, 49, 84
15, 68130, Note_on_c, 13, 61, 84
15, 68155, Note_on_c, 13, 49, 0
15, 68155, Note_on_c, 13, 61, 0
15, 68160, Note_on_c, 13, 63, 84
15, 68160, Note_on_c, 13, 51, 84
15, 68185, Note_on_c, 13, 63, 0
15, 68185, Note_on_c, 13, 51, 0
15, 68190, Note_on_c, 13, 51, 84
15, 68190, Note_on_c, 13, 63, 84
15, 68215, Note_on_c, 13, 51, 0
15, 68215, Note_on_c, 13, 63, 0
15, 68220, Note_on_c, 13, 63, 84
15, 68220, Note_on_c, 13, 51, 84
15, 68245, Note_on_c, 13, 63, 0
15, 68245, Note_on_c, 13, 51, 0
15, 68250, Note_on_c, 13, 51, 84
15, 68250, Note_on_c, 13, 63, 84
15, 68275, Note_on_c, 13, 51, 0
15, 68275, Note_on_c, 13, 63, 0
15, 68280, Note_on_c, 13, 51, 84
15, 68280, Note_on_c, 13, 63, 84
15, 68305, Note_on_c, 13, 51, 0
15, 68305, Note_on_c, 13, 63, 0
15, 68310, Note_on_c, 13, 51, 84
15, 68310, Note_on_c, 13, 63, 84
15, 68335, Note_on_c, 13, 51, 0
15, 68335, Note_on_c, 13, 63, 0
15, 68340, Note_on_c, 13, 51, 84
15, 68340, Note_on_c, 13, 63, 84
15, 68365, Note_on_c, 13, 51, 0
15, 68365, Note_on_c, 13, 63, 0
15, 68370, Note_on_c, 13, 51, 84
15, 68370, Note_on_c, 13, 63, 84
15, 68395, Note_on_c, 13, 51, 0
15, 68395, Note_on_c, 13, 63, 0
15, 68400, Note_on_c, 13, 60, 84
15, 68400, Note_on_c, 13, 48, 84
15, 68425, Note_on_c, 13, 60, 0
15, 68425, Note_on_c, 13, 48, 0
15, 68430, Note_on_c, 13, 60, 84
15, 68430, Note_on_c, 13, 48, 84
15, 68455, Note_on_c, 13, 60, 0
15, 68455, Note_on_c, 13, 48, 0
15, 68460, Note_on_c, 13, 60, 84
15, 68460, Note_on_c, 13, 48, 84
15, 68485, Note_on_c, 13, 60, 0
15, 68485, Note_on_c, 13, 48, 0
15, 68490, Note_on_c, 13, 60, 84
15, 68490, Note_on_c, 13, 48, 84
15, 68515, Note_on_c, 13, 60, 0
15, 68515, Note_on_c, 13, 48, 0
15, 68520, Note_on_c, 13, 51, 84
15, 68520, Note_on_c, 13, 63, 84
15, 68520, Note_on_c, 13, 58, 84
15, 68520, Note_on_c, 13, 55, 84
15, 68545, Note_on_c, 13, 51, 0
15, 68545, Note_on_c, 13, 63, 0
15, 68545, Note_on_c, 13, 58, 0
15, 68545, Note_on_c, 13, 55, 0
15, 68550, Note_on_c, 13, 51, 84
15, 68550, Note_on_c, 13, 55, 84
15, 68550, Note_on_c, 13, 58, 84
15, 68550, Note_on_c, 13, 63, 84
15, 68575, Note_on_c, 13, 51, 0
15, 68575, Note_on_c, 13, 55, 0
15, 68575, Note_on_c, 13, 58, 0
15, 68575, Note_on_c, 13, 63, 0
15, 68580, Note_on_c, 13, 51, 84
15, 68580, Note_on_c, 13, 63, 84
15, 68580, Note_on_c, 13, 55, 84
15, 68580, Note_on_c, 13, 58, 84
15, 68605, Note_on_c, 13, 51, 0
15, 68605, Note_on_c, 13, 63, 0
15, 68605, Note_on_c, 13, 55, 0
15, 68605, Note_on_c, 13, 58, 0
15, 68610, Note_on_c, 13, 51, 84
15, 68610, Note_on_c, 13, 63, 84
15, 68610, Note_on_c, 13, 58, 84
15, 68610, Note_on_c, 13, 55, 84
15, 68635, Note_on_c, 13, 51, 0
15, 68635, Note_on_c, 13, 63, 0
15, 68635, Note_on_c, 13, 58, 0
15, 68635, Note_on_c, 13, 55, 0
15, 68640, Note_on_c, 13, 51, 84
15, 68640, Note_on_c, 13, 63, 84
15, 68640, Note_on_c, 13, 55, 84
15, 68640, Note_on_c, 13, 58, 84
15, 68665, Note_on_c, 13, 51, 0
15, 68665, Note_on_c, 13, 63, 0
15, 68665, Note_on_c, 13, 55, 0
15, 68665, Note_on_c, 13, 58, 0
15, 68670, Note_on_c, 13, 51, 84
15, 68670, Note_on_c, 13, 58, 84
15, 68670, Note_on_c, 13, 63, 84
15, 68670, Note_on_c, 13, 55, 84
15, 68695, Note_on_c, 13, 51, 0
15, 68695, Note_on_c, 13, 58, 0
15, 68695, Note_on_c, 13, 63, 0
15, 68695, Note_on_c, 13, 55, 0
15, 68700, Note_on_c, 13, 63, 84
15, 68700, Note_on_c, 13, 51, 84
15, 68700, Note_on_c, 13, 58, 84
15, 68700, Note_on_c, 13, 55, 84
15, 68725, Note_on_c, 13, 63, 0
15, 68725, Note_on_c, 13, 51, 0
15, 68725, Note_on_c, 13, 58, 0
15, 68725, Note_on_c, 13, 55, 0
15, 68730, Note_on_c, 13, 55, 84
15, 68730, Note_on_c, 13, 58, 84
15, 68730, Note_on_c, 13, 51, 84
15, 68730, Note_on_c, 13, 63, 84
15, 68755, Note_on_c, 13, 55, 0
15, 68755, Note_on_c, 13, 58, 0
15, 68755, Note_on_c, 13, 51, 0
15, 68755, Note_on_c, 13, 63, 0
15, 68760, Note_on_c, 13, 58, 84
15, 68760, Note_on_c, 13, 51, 84
15, 68760, Note_on_c, 13, 55, 84
15, 68760, Note_on_c, 13, 63, 84
15, 68785, Note_on_c, 13, 58, 0
15, 68785, Note_on_c, 13, 51, 0
15, 68785, Note_on_c, 13, 55, 0
15, 68785, Note_on_c, 13, 63, 0
15, 68790, Note_on_c, 13, 63, 84
15, 68790, Note_on_c, 13, 58, 84
15, 68790, Note_on_c, 13, 51, 84
15, 68790, Note_on_c, 13, 55, 84
15, 68815, Note_on_c, 13, 63, 0
15, 68815, Note_on_c, 13, 58, 0
15, 68815, Note_on_c, 13, 51, 0
15, 68815, Note_on_c, 13, 55, 0
15, 68820, Note_on_c, 13, 55, 84
15, 68820, Note_on_c, 13, 63, 84
15, 68820, Note_on_c, 13, 58, 84
15, 68820, Note_on_c, 13, 51, 84
15, 68845, Note_on_c, 13, 55, 0
15, 68845, Note_on_c, 13, 63, 0
15, 68845, Note_on_c, 13, 58, 0
15, 68845, Note_on_c, 13, 51, 0
15, 68850, Note_on_c, 13, 63, 84
15, 68850, Note_on_c, 13, 55, 84
15, 68850, Note_on_c, 13, 51, 84
15, 68850, Note_on_c, 13, 58, 84
15, 68875, Note_on_c, 13, 63, 0
15, 68875, Note_on_c, 13, 55, 0
15, 68875, Note_on_c, 13, 51, 0
15, 68875, Note_on_c, 13, 58, 0
15, 68880, Note_on_c, 13, 56, 84
15, 68880, Note_on_c, 13, 63, 84
15, 68880, Note_on_c, 13, 60, 84
15, 68905, Note_on_c, 13, 56, 0
15, 68905, Note_on_c, 13, 63, 0
15, 68905, Note_on_c, 13, 60, 0
15, 68910, Note_on_c, 13, 56, 84
15, 68910, Note_on_c, 13, 51, 84
15, 68935, Note_on_c, 13, 56, 0
15, 68935, Note_on_c, 13, 51, 0
15, 68940, Note_on_c, 13, 56, 84
15, 68940, Note_on_c, 13, 51, 84
15, 68965, Note_on_c, 13, 56, 0
15, 68965, Note_on_c, 13, 51, 0
15, 68970, Note_on_c, 13, 56, 84
15, 68970, Note_on_c, 13, 51, 84
15, 68995, Note_on_c, 13, 56, 0
15, 68995, Note_on_c, 13, 51, 0
15, 69000, Note_on_c, 13, 56, 84
15, 69000, Note_on_c, 13, 51, 84
15, 69025, Note_on_c, 13, 56, 0
15, 69025, Note_on_c, 13, 51, 0
15, 69030, Note_on_c, 13, 51, 84
15, 69030, Note_on_c, 13, 56, 84
15, 69055, Note_on_c, 13, 51, 0
15, 69055, Note_on_c, 13, 56, 0
15, 69060, Note_on_c, 13, 56, 84
15, 69060, Note_on_c, 13, 51, 84
15, 69085, Note_on_c, 13, 56, 0
15, 69085, Note_on_c, 13, 51, 0
15, 69090, Note_on_c, 13, 51, 84
15, 69090, Note_on_c, 13, 56, 84
15, 69115, Note_on_c, 13, 51, 0
15, 69115, Note_on_c, 13, 56, 0
15, 69120, Note_on_c, 13, 51, 84
15, 69120, Note_on_c, 13, 56, 84
15, 69145, Note_on_c, 13, 51, 0
15, 69145, Note_on_c, 13, 56, 0
15, 69150, Note_on_c, 13, 51, 84
15, 69150, Note_on_c, 13, 56, 84
15, 69175, Note_on_c, 13, 51, 0
15, 69175, Note_on_c, 13, 56, 0
15, 69180, Note_on_c, 13, 56, 84
15, 69180, Note_on_c, 13, 51, 84
15, 69205, Note_on_c, 13, 56, 0
15, 69205, Note_on_c, 13, 51, 0
15, 69210, Note_on_c, 13, 51, 84
15, 69210, Note_on_c, 13, 56, 84
15, 69235, Note_on_c, 13, 51, 0
15, 69235, Note_on_c, 13, 56, 0
15, 69240, Note_on_c, 13, 51, 84
15, 69240, Note_on_c, 13, 55, 84
15, 69265, Note_on_c, 13, 51, 0
15, 69265, Note_on_c, 13, 55, 0
15, 69270, Note_on_c, 13, 55, 84
15, 69270, Note_on_c, 13, 51, 84
15, 69295, Note_on_c, 13, 55, 0
15, 69295, Note_on_c, 13, 51, 0
15, 69300, Note_on_c, 13, 55, 84
15, 69300, Note_on_c, 13, 51, 84
15, 69325, Note_on_c, 13, 55, 0
15, 69325, Note_on_c, 13, 51, 0
15, 69330, Note_on_c, 13, 51, 84
15, 69330, Note_on_c, 13, 55, 84
15, 69355, Note_on_c, 13, 51, 0
15, 69355, Note_on_c, 13, 55, 0
15, 69360, Note_on_c, 13, 55, 84
15, 69360, Note_on_c, 13, 51, 84
15, 69385, Note_on_c, 13, 55, 0
15, 69385, Note_on_c, 13, 51, 0
15, 69390, Note_on_c, 13, 51, 84
15, 69390, Note_on_c, 13, 55, 84
15, 69415, Note_on_c, 13, 51, 0
15, 69415, Note_on_c, 13, 55, 0
15, 69420, Note_on_c, 13, 55, 84
15, 69420, Note_on_c, 13, 51, 84
15, 69445, Note_on_c, 13, 55, 0
15, 69445, Note_on_c, 13, 51, 0
15, 69450, Note_on_c, 13, 51, 84
15, 69450, Note_on_c, 13, 55, 84
15, 69475, Note_on_c, 13, 51, 0
15, 69475, Note_on_c, 13, 55, 0
15, 69480, Note_on_c, 13, 51, 84
15, 69480, Note_on_c, 13, 55, 84
15, 69505, Note_on_c, 13, 51, 0
15, 69505, Note_on_c, 13, 55, 0
15, 69510, Note_on_c, 13, 55, 84
15, 69510, Note_on_c, 13, 51, 84
15, 69535, Note_on_c, 13, 55, 0
15, 69535, Note_on_c, 13, 51, 0
15, 69540, Note_on_c, 13, 55, 84
15, 69540, Note_on_c, 13, 51, 84
15, 69565, Note_on_c, 13, 55, 0
15, 69565, Note_on_c, 13, 51, 0
15, 69570, Note_on_c, 13, 55, 84
15, 69570, Note_on_c, 13, 51, 84
15, 69595, Note_on_c, 13, 55, 0
15, 69595, Note_on_c, 13, 51, 0
15, 69600, Note_on_c, 13, 56, 84
15, 69625, Note_on_c, 13, 56, 0
15, 69630, Note_on_c, 13, 56, 84
15, 69655, Note_on_c, 13, 56, 0
15, 69660, Note_on_c, 13, 58, 84
15, 69685, Note_on_c, 13, 58, 0
15, 69690, Note_on_c, 13, 48, 84
15, 69715, Note_on_c, 13, 48, 0
15, 69720, Note_on_c, 13, 49, 84
15, 69745, Note_on_c, 13, 49, 0
15, 69750, Note_on_c, 13, 51, 84
15, 69775, Note_on_c, 13, 51, 0
15, 69780, Note_on_c, 13, 53, 84
15, 69805, Note_on_c, 13, 53, 0
15, 69810, Note_on_c, 13, 55, 84
15, 69835, Note_on_c, 13, 55, 0
15, 69840, Note_on_c, 13, 56, 84
15, 69865, Note_on_c, 13, 56, 0
15, 69870, Note_on_c, 13, 58, 84
15, 69895, Note_on_c, 13, 58, 0
15, 69900, Note_on_c, 13, 60, 84
15, 69925, Note_on_c, 13, 60, 0
15, 69930, Note_on_c, 13, 61, 84
15, 69955, Note_on_c, 13, 61, 0
15, 69960, Note_on_c, 13, 63, 84
15, 70079, Note_on_c, 13, 63, 0
15, 71580, Note_on_c, 13, 56, 52
15, 71639, Note_on_c, 13, 56, 0
15, 71640, Note_on_c, 13, 60, 52
15, 71699, Note_on_c, 13, 60, 0
15, 71700, Note_on_c, 13, 63, 52
15, 71755, Note_on_c, 13, 63, 0
15, 71760, Note_on_c, 13, 63, 52
15, 71819, Note_on_c, 13, 63, 0
15, 71820, Note_on_c, 13, 61, 52
15, 71875, Note_on_c, 13, 61, 0
15, 71880, Note_on_c, 13, 60, 52
15, 72055, Note_on_c, 13, 60, 0
15, 72060, Note_on_c, 13, 60, 52
15, 72115, Note_on_c, 13, 60, 0
15, 72120, Note_on_c, 13, 60, 52
15, 72179, Note_on_c, 13, 60, 0
15, 72180, Note_on_c, 13, 58, 52
15, 72235, Note_on_c, 13, 58, 0
15, 72240, Note_on_c, 13, 56, 52
15, 72415, Note_on_c, 13, 56, 0
15, 72420, Note_on_c, 13, 56, 52
15, 72475, Note_on_c, 13, 56, 0
15, 72480, Note_on_c, 13, 58, 52
15, 72591, Note_on_c, 13, 58, 0
15, 72600, Note_on_c, 13, 58, 52
15, 72711, Note_on_c, 13, 58, 0
15, 72720, Note_on_c, 13, 58, 52
15, 72809, Note_on_c, 13, 58, 0
15, 72810, Note_on_c, 13, 55, 52
15, 72835, Note_on_c, 13, 55, 0
15, 72840, Note_on_c, 13, 56, 52
15, 72959, Note_on_c, 13, 56, 0
15, 73080, Note_on_c, 13, 58, 52
15, 73169, Note_on_c, 13, 58, 0
15, 73170, Note_on_c, 13, 55, 52
15, 73195, Note_on_c, 13, 55, 0
15, 73200, Note_on_c, 13, 56, 52
15, 73319, Note_on_c, 13, 56, 0
15, 73440, Note_on_c, 13, 49, 52
15, 73479, Note_on_c, 13, 49, 0
15, 73480, Note_on_c, 13, 48, 52
15, 73519, Note_on_c, 13, 48, 0
15, 73520, Note_on_c, 13, 49, 52
15, 73555, Note_on_c, 13, 49, 0
15, 73560, Note_on_c, 13, 48, 44
15, 73615, Note_on_c, 13, 48, 0
15, 73620, Note_on_c, 13, 60, 44
15, 73679, Note_on_c, 13, 60, 0
15, 73740, Note_on_c, 13, 60, 44
15, 73799, Note_on_c, 13, 60, 0
15, 73860, Note_on_c, 13, 60, 44
15, 73919, Note_on_c, 13, 60, 0
15, 73980, Note_on_c, 13, 60, 44
15, 74039, Note_on_c, 13, 60, 0
15, 74100, Note_on_c, 13, 60, 44
15, 74159, Note_on_c, 13, 60, 0
15, 74220, Note_on_c, 13, 60, 44
15, 74279, Note_on_c, 13, 60, 0
15, 74340, Note_on_c, 13, 61, 44
15, 74399, Note_on_c, 13, 61, 0
15, 74460, Note_on_c, 13, 61, 44
15, 74519, Note_on_c, 13, 61, 0
15, 74580, Note_on_c, 13, 61, 44
15, 74639, Note_on_c, 13, 61, 0
15, 74700, Note_on_c, 13, 61, 44
15, 74759, Note_on_c, 13, 61, 0
15, 74820, Note_on_c, 13, 61, 44
15, 74879, Note_on_c, 13, 61, 0
15, 74940, Note_on_c, 13, 61, 44
15, 74999, Note_on_c, 13, 61, 0
15, 75060, Note_on_c, 13, 60, 44
15, 75119, Note_on_c, 13, 60, 0
15, 75180, Note_on_c, 13, 60, 44
15, 75235, Note_on_c, 13, 60, 0
15, 75240, Note_on_c, 13, 51, 44
15, 75284, Note_on_c, 13, 51, 0
15, 75300, Note_on_c, 13, 53, 44
15, 75344, Note_on_c, 13, 53, 0
15, 75360, Note_on_c, 13, 54, 44
15, 75404, Note_on_c, 13, 54, 0
15, 75420, Note_on_c, 13, 53, 44
15, 75464, Note_on_c, 13, 53, 0
15, 75480, Note_on_c, 13, 51, 44
15, 75524, Note_on_c, 13, 51, 0
15, 75540, Note_on_c, 13, 53, 44
15, 75584, Note_on_c, 13, 53, 0
15, 75600, Note_on_c, 13, 54, 44
15, 75644, Note_on_c, 13, 54, 0
15, 75660, Note_on_c, 13, 51, 44
15, 75704, Note_on_c, 13, 51, 0
15, 75720, Note_on_c, 13, 53, 44
15, 75764, Note_on_c, 13, 53, 0
15, 75780, Note_on_c, 13, 51, 44
15, 75824, Note_on_c, 13, 51, 0
15, 75840, Note_on_c, 13, 49, 44
15, 75884, Note_on_c, 13, 49, 0
15, 75900, Note_on_c, 13, 51, 44
15, 75944, Note_on_c, 13, 51, 0
15, 75960, Note_on_c, 13, 53, 44
15, 76004, Note_on_c, 13, 53, 0
15, 76020, Note_on_c, 13, 49, 44
15, 76064, Note_on_c, 13, 49, 0
15, 76080, Note_on_c, 13, 52, 44
15, 76124, Note_on_c, 13, 52, 0
15, 76140, Note_on_c, 13, 51, 44
15, 76184, Note_on_c, 13, 51, 0
15, 76200, Note_on_c, 13, 49, 44
15, 76244, Note_on_c, 13, 49, 0
15, 76260, Note_on_c, 13, 51, 44
15, 76304, Note_on_c, 13, 51, 0
15, 76320, Note_on_c, 13, 52, 44
15, 76364, Note_on_c, 13, 52, 0
15, 76380, Note_on_c, 13, 49, 44
15, 76424, Note_on_c, 13, 49, 0
15, 76440, Note_on_c, 13, 51, 44
15, 76465, Note_on_c, 13, 51, 0
15, 76470, Note_on_c, 13, 51, 44
15, 76470, Note_on_c, 13, 56, 44
15, 76495, Note_on_c, 13, 51, 0
15, 76495, Note_on_c, 13, 56, 0
15, 76500, Note_on_c, 13, 51, 44
15, 76500, Note_on_c, 13, 56, 44
15, 76525, Note_on_c, 13, 51, 0
15, 76525, Note_on_c, 13, 56, 0
15, 76530, Note_on_c, 13, 56, 44
15, 76530, Note_on_c, 13, 51, 44
15, 76555, Note_on_c, 13, 56, 0
15, 76555, Note_on_c, 13, 51, 0
15, 76560, Note_on_c, 13, 51, 44
15, 76560, Note_on_c, 13, 56, 44
15, 76585, Note_on_c, 13, 51, 0
15, 76585, Note_on_c, 13, 56, 0
15, 76590, Note_on_c, 13, 51, 46
15, 76590, Note_on_c, 13, 56, 46
15, 76615, Note_on_c, 13, 51, 0
15, 76615, Note_on_c, 13, 56, 0
15, 76620, Note_on_c, 13, 51, 48
15, 76620, Note_on_c, 13, 56, 48
15, 76645, Note_on_c, 13, 51, 0
15, 76645, Note_on_c, 13, 56, 0
15, 76650, Note_on_c, 13, 51, 50
15, 76650, Note_on_c, 13, 56, 50
15, 76675, Note_on_c, 13, 51, 0
15, 76675, Note_on_c, 13, 56, 0
15, 76680, Note_on_c, 13, 51, 52
15, 76680, Note_on_c, 13, 56, 52
15, 76705, Note_on_c, 13, 51, 0
15, 76705, Note_on_c, 13, 56, 0
15, 76710, Note_on_c, 13, 51, 54
15, 76710, Note_on_c, 13, 56, 54
15, 76735, Note_on_c, 13, 51, 0
15, 76735, Note_on_c, 13, 56, 0
15, 76740, Note_on_c, 13, 51, 56
15, 76740, Note_on_c, 13, 56, 56
15, 76765, Note_on_c, 13, 51, 0
15, 76765, Note_on_c, 13, 56, 0
15, 76770, Note_on_c, 13, 51, 58
15, 76770, Note_on_c, 13, 56, 58
15, 76795, Note_on_c, 13, 51, 0
15, 76795, Note_on_c, 13, 56, 0
15, 76800, Note_on_c, 13, 51, 60
15, 76800, Note_on_c, 13, 56, 60
15, 76825, Note_on_c, 13, 51, 0
15, 76825, Note_on_c, 13, 56, 0
15, 76830, Note_on_c, 13, 56, 62
15, 76830, Note_on_c, 13, 51, 62
15, 76855, Note_on_c, 13, 56, 0
15, 76855, Note_on_c, 13, 51, 0
15, 76860, Note_on_c, 13, 51, 64
15, 76860, Note_on_c, 13, 56, 64
15, 76885, Note_on_c, 13, 51, 0
15, 76885, Note_on_c, 13, 56, 0
15, 76890, Note_on_c, 13, 56, 66
15, 76890, Note_on_c, 13, 51, 66
15, 76915, Note_on_c, 13, 56, 0
15, 76915, Note_on_c, 13, 51, 0
15, 76920, Note_on_c, 13, 56, 68
15, 76920, Note_on_c, 13, 51, 68
15, 76945, Note_on_c, 13, 56, 0
15, 76945, Note_on_c, 13, 51, 0
15, 76950, Note_on_c, 13, 51, 70
15, 76950, Note_on_c, 13, 56, 70
15, 76975, Note_on_c, 13, 51, 0
15, 76975, Note_on_c, 13, 56, 0
15, 76980, Note_on_c, 13, 51, 72
15, 76980, Note_on_c, 13, 56, 72
15, 77005, Note_on_c, 13, 51, 0
15, 77005, Note_on_c, 13, 56, 0
15, 77010, Note_on_c, 13, 56, 74
15, 77010, Note_on_c, 13, 51, 74
15, 77035, Note_on_c, 13, 56, 0
15, 77035, Note_on_c, 13, 51, 0
15, 77040, Note_on_c, 13, 51, 76
15, 77040, Note_on_c, 13, 55, 76
15, 77065, Note_on_c, 13, 51, 0
15, 77065, Note_on_c, 13, 55, 0
15, 77070, Note_on_c, 13, 55, 76
15, 77070, Note_on_c, 13, 51, 76
15, 77095, Note_on_c, 13, 55, 0
15, 77095, Note_on_c, 13, 51, 0
15, 77100, Note_on_c, 13, 51, 76
15, 77100, Note_on_c, 13, 55, 76
15, 77125, Note_on_c, 13, 51, 0
15, 77125, Note_on_c, 13, 55, 0
15, 77130, Note_on_c, 13, 51, 76
15, 77130, Note_on_c, 13, 55, 76
15, 77155, Note_on_c, 13, 51, 0
15, 77155, Note_on_c, 13, 55, 0
15, 77160, Note_on_c, 13, 51, 76
15, 77160, Note_on_c, 13, 56, 76
15, 77185, Note_on_c, 13, 51, 0
15, 77185, Note_on_c, 13, 56, 0
15, 77190, Note_on_c, 13, 51, 76
15, 77190, Note_on_c, 13, 56, 76
15, 77215, Note_on_c, 13, 51, 0
15, 77215, Note_on_c, 13, 56, 0
15, 77220, Note_on_c, 13, 51, 76
15, 77220, Note_on_c, 13, 56, 76
15, 77245, Note_on_c, 13, 51, 0
15, 77245, Note_on_c, 13, 56, 0
15, 77250, Note_on_c, 13, 56, 76
15, 77250, Note_on_c, 13, 51, 76
15, 77275, Note_on_c, 13, 56, 0
15, 77275, Note_on_c, 13, 51, 0
15, 77280, Note_on_c, 13, 51, 52
15, 77280, Note_on_c, 13, 56, 52
15, 77305, Note_on_c, 13, 51, 0
15, 77305, Note_on_c, 13, 56, 0
15, 77310, Note_on_c, 13, 56, 53
15, 77310, Note_on_c, 13, 51, 53
15, 77335, Note_on_c, 13, 56, 0
15, 77335, Note_on_c, 13, 51, 0
15, 77340, Note_on_c, 13, 56, 55
15, 77340, Note_on_c, 13, 51, 55
15, 77365, Note_on_c, 13, 56, 0
15, 77365, Note_on_c, 13, 51, 0
15, 77370, Note_on_c, 13, 56, 56
15, 77370, Note_on_c, 13, 51, 56
15, 77395, Note_on_c, 13, 56, 0
15, 77395, Note_on_c, 13, 51, 0
15, 77400, Note_on_c, 13, 51, 58
15, 77400, Note_on_c, 13, 56, 58
15, 77425, Note_on_c, 13, 51, 0
15, 77425, Note_on_c, 13, 56, 0
15, 77430, Note_on_c, 13, 56, 59
15, 77430, Note_on_c, 13, 51, 59
15, 77455, Note_on_c, 13, 56, 0
15, 77455, Note_on_c, 13, 51, 0
15, 77460, Note_on_c, 13, 56, 61
15, 77460, Note_on_c, 13, 51, 61
15, 77485, Note_on_c, 13, 56, 0
15, 77485, Note_on_c, 13, 51, 0
15, 77490, Note_on_c, 13, 56, 62
15, 77490, Note_on_c, 13, 51, 62
15, 77515, Note_on_c, 13, 56, 0
15, 77515, Note_on_c, 13, 51, 0
15, 77520, Note_on_c, 13, 51, 64
15, 77520, Note_on_c, 13, 56, 64
15, 77545, Note_on_c, 13, 51, 0
15, 77545, Note_on_c, 13, 56, 0
15, 77550, Note_on_c, 13, 56, 65
15, 77550, Note_on_c, 13, 51, 65
15, 77575, Note_on_c, 13, 56, 0
15, 77575, Note_on_c, 13, 51, 0
15, 77580, Note_on_c, 13, 51, 67
15, 77580, Note_on_c, 13, 56, 67
15, 77605, Note_on_c, 13, 51, 0
15, 77605, Note_on_c, 13, 56, 0
15, 77610, Note_on_c, 13, 56, 68
15, 77610, Note_on_c, 13, 51, 68
15, 77635, Note_on_c, 13, 56, 0
15, 77635, Note_on_c, 13, 51, 0
15, 77640, Note_on_c, 13, 56, 70
15, 77640, Note_on_c, 13, 51, 70
15, 77665, Note_on_c, 13, 56, 0
15, 77665, Note_on_c, 13, 51, 0
15, 77670, Note_on_c, 13, 56, 71
15, 77670, Note_on_c, 13, 51, 71
15, 77695, Note_on_c, 13, 56, 0
15, 77695, Note_on_c, 13, 51, 0
15, 77700, Note_on_c, 13, 51, 73
15, 77700, Note_on_c, 13, 56, 73
15, 77725, Note_on_c, 13, 51, 0
15, 77725, Note_on_c, 13, 56, 0
15, 77730, Note_on_c, 13, 56, 74
15, 77730, Note_on_c, 13, 51, 74
15, 77755, Note_on_c, 13, 56, 0
15, 77755, Note_on_c, 13, 51, 0
15, 77760, Note_on_c, 13, 51, 76
15, 77760, Note_on_c, 13, 55, 76
15, 77785, Note_on_c, 13, 51, 0
15, 77785, Note_on_c, 13, 55, 0
15, 77790, Note_on_c, 13, 55, 76
15, 77790, Note_on_c, 13, 51, 76
15, 77815, Note_on_c, 13, 55, 0
15, 77815, Note_on_c, 13, 51, 0
15, 77820, Note_on_c, 13, 51, 76
15, 77820, Note_on_c, 13, 55, 76
15, 77845, Note_on_c, 13, 51, 0
15, 77845, Note_on_c, 13, 55, 0
15, 77850, Note_on_c, 13, 55, 76
15, 77850, Note_on_c, 13, 51, 76
15, 77875, Note_on_c, 13, 55, 0
15, 77875, Note_on_c, 13, 51, 0
15, 77880, Note_on_c, 13, 56, 76
15, 77880, Note_on_c, 13, 51, 76
15, 77905, Note_on_c, 13, 56, 0
15, 77905, Note_on_c, 13, 51, 0
15, 77910, Note_on_c, 13, 56, 76
15, 77910, Note_on_c, 13, 51, 76
15, 77935, Note_on_c, 13, 56, 0
15, 77935, Note_on_c, 13, 51, 0
15, 77940, Note_on_c, 13, 56, 76
15, 77940, Note_on_c, 13, 51, 76
15, 77965, Note_on_c, 13, 56, 0
15, 77965, Note_on_c, 13, 51, 0
15, 77970, Note_on_c, 13, 51, 76
15, 77970, Note_on_c, 13, 56, 76
15, 77995, Note_on_c, 13, 51, 0
15, 77995, Note_on_c, 13, 56, 0
15, 78000, Note_on_c, 13, 56, 52
15, 78000, Note_on_c, 13, 51, 52
15, 78025, Note_on_c, 13, 56, 0
15, 78025, Note_on_c, 13, 51, 0
15, 78030, Note_on_c, 13, 51, 56
15, 78030, Note_on_c, 13, 56, 56
15, 78055, Note_on_c, 13, 51, 0
15, 78055, Note_on_c, 13, 56, 0
15, 78060, Note_on_c, 13, 56, 60
15, 78060, Note_on_c, 13, 51, 60
15, 78085, Note_on_c, 13, 56, 0
15, 78085, Note_on_c, 13, 51, 0
15, 78090, Note_on_c, 13, 56, 64
15, 78090, Note_on_c, 13, 51, 64
15, 78115, Note_on_c, 13, 56, 0
15, 78115, Note_on_c, 13, 51, 0
15, 78120, Note_on_c, 13, 51, 68
15, 78120, Note_on_c, 13, 56, 68
15, 78145, Note_on_c, 13, 51, 0
15, 78145, Note_on_c, 13, 56, 0
15, 78150, Note_on_c, 13, 51, 72
15, 78150, Note_on_c, 13, 56, 72
15, 78175, Note_on_c, 13, 51, 0
15, 78175, Note_on_c, 13, 56, 0
15, 78180, Note_on_c, 13, 51, 76
15, 78180, Note_on_c, 13, 56, 76
15, 78205, Note_on_c, 13, 51, 0
15, 78205, Note_on_c, 13, 56, 0
15, 78210, Note_on_c, 13, 56, 80
15, 78210, Note_on_c, 13, 51, 80
15, 78235, Note_on_c, 13, 56, 0
15, 78235, Note_on_c, 13, 51, 0
15, 78240, Note_on_c, 13, 51, 84
15, 78240, Note_on_c, 13, 56, 84
15, 78265, Note_on_c, 13, 51, 0
15, 78265, Note_on_c, 13, 56, 0
15, 78270, Note_on_c, 13, 56, 84
15, 78270, Note_on_c, 13, 51, 84
15, 78295, Note_on_c, 13, 56, 0
15, 78295, Note_on_c, 13, 51, 0
15, 78300, Note_on_c, 13, 51, 84
15, 78300, Note_on_c, 13, 56, 84
15, 78325, Note_on_c, 13, 51, 0
15, 78325, Note_on_c, 13, 56, 0
15, 78330, Note_on_c, 13, 56, 84
15, 78330, Note_on_c, 13, 51, 84
15, 78355, Note_on_c, 13, 56, 0
15, 78355, Note_on_c, 13, 51, 0
15, 78360, Note_on_c, 13, 55, 84
15, 78360, Note_on_c, 13, 51, 84
15, 78479, Note_on_c, 13, 55, 0
15, 78479, Note_on_c, 13, 51, 0
15, 80220, Note_on_c, 13, 56, 48
15, 80279, Note_on_c, 13, 56, 0
15, 80280, Note_on_c, 13, 60, 48
15, 80339, Note_on_c, 13, 60, 0
15, 80340, Note_on_c, 13, 63, 48
15, 80395, Note_on_c, 13, 63, 0
15, 80398, Control_c, 13, 11, 80
15, 80400, Note_on_c, 13, 63, 76
15, 80400, Note_on_c, 13, 56, 76
15, 80400, Control_c, 13, 11, 80
15, 80415, Control_c, 13, 11, 82
15, 80430, Control_c, 13, 11, 84
15, 80445, Control_c, 13, 11, 86
15, 80459, Note_on_c, 13, 63, 0
15, 80460, Control_c, 13, 11, 88
15, 80460, Note_on_c, 13, 61, 76
15, 80475, Control_c, 13, 11, 90
15, 80490, Control_c, 13, 11, 92
15, 80505, Control_c, 13, 11, 94
15, 80519, Note_on_c, 13, 61, 0
15, 80520, Note_on_c, 13, 60, 76
15, 80520, Control_c, 13, 11, 96
15, 80535, Control_c, 13, 11, 98
15, 80550, Control_c, 13, 11, 100
15, 80565, Control_c, 13, 11, 102
15, 80580, Control_c, 13, 11, 104
15, 80595, Control_c, 13, 11, 105
15, 80610, Control_c, 13, 11, 107
15, 80625, Control_c, 13, 11, 109
15, 80640, Control_c, 13, 11, 111
15, 80655, Control_c, 13, 11, 113
15, 80670, Control_c, 13, 11, 115
15, 80685, Control_c, 13, 11, 117
15, 80695, Note_on_c, 13, 56, 0
15, 80695, Note_on_c, 13, 60, 0
15, 80700, Control_c, 13, 11, 119
15, 80700, Note_on_c, 13, 56, 76
15, 80700, Note_on_c, 13, 60, 76
15, 80715, Control_c, 13, 11, 121
15, 80730, Control_c, 13, 11, 123
15, 80745, Control_c, 13, 11, 127
15, 80755, Note_on_c, 13, 56, 0
15, 80755, Note_on_c, 13, 60, 0
15, 80760, Note_on_c, 13, 63, 76
15, 80760, Note_on_c, 13, 67, 76
15, 80819, Note_on_c, 13, 63, 0
15, 80819, Note_on_c, 13, 67, 0
15, 80820, Note_on_c, 13, 61, 76
15, 80820, Note_on_c, 13, 65, 76
15, 80879, Note_on_c, 13, 61, 0
15, 80879, Note_on_c, 13, 65, 0
15, 80880, Note_on_c, 13, 63, 84
15, 80880, Note_on_c, 13, 60, 84
15, 80939, Note_on_c, 13, 63, 0
15, 80939, Note_on_c, 13, 60, 0
15, 80940, Note_on_c, 13, 63, 76
15, 80940, Note_on_c, 13, 60, 76
15, 81055, Note_on_c, 13, 63, 0
15, 81055, Note_on_c, 13, 60, 0
15, 81060, Note_on_c, 13, 51, 76
15, 81060, Note_on_c, 13, 63, 76
15, 81115, Note_on_c, 13, 51, 0
15, 81115, Note_on_c, 13, 63, 0
15, 81120, Note_on_c, 13, 63, 76
15, 81120, Note_on_c, 13, 51, 76
15, 81231, Note_on_c, 13, 63, 0
15, 81231, Note_on_c, 13, 51, 0
15, 81240, Note_on_c, 13, 63, 84
15, 81240, Note_on_c, 13, 51, 84
15, 81299, Note_on_c, 13, 63, 0
15, 81299, Note_on_c, 13, 51, 0
15, 81300, Note_on_c, 13, 51, 76
15, 81300, Note_on_c, 13, 63, 76
15, 81300, Control_c, 13, 11, 127
15, 81313, Control_c, 13, 11, 122
15, 81327, Control_c, 13, 11, 117
15, 81340, Control_c, 13, 11, 111
15, 81353, Control_c, 13, 11, 106
15, 81367, Control_c, 13, 11, 101
15, 81380, Control_c, 13, 11, 96
15, 81393, Control_c, 13, 11, 90
15, 81407, Control_c, 13, 11, 85
15, 81415, Note_on_c, 13, 51, 0
15, 81415, Note_on_c, 13, 63, 0
15, 81418, Control_c, 13, 11, 80
15, 81420, Note_on_c, 13, 51, 76
15, 81479, Note_on_c, 13, 51, 0
15, 81480, Note_on_c, 13, 53, 76
15, 81599, Note_on_c, 13, 53, 0
15, 81720, Control_c, 13, 11, 127
15, 81840, Note_on_c, 13, 55, 44
15, 81959, Note_on_c, 13, 55, 0
15, 82200, Note_on_c, 13, 51, 44
15, 82559, Note_on_c, 13, 51, 0
15, 82560, Note_on_c, 13, 51, 44
15, 82791, Note_on_c, 13, 51, 0
15, 82800, Note_on_c, 13, 51, 44
15, 82885, Note_on_c, 13, 51, 0
15, 82890, Note_on_c, 13, 51, 44
15, 82915, Note_on_c, 13, 51, 0
15, 82920, Note_on_c, 13, 51, 44
15, 83279, Note_on_c, 13, 51, 0
15, 83280, Note_on_c, 13, 51, 44
15, 83511, Note_on_c, 13, 51, 0
15, 83520, Note_on_c, 13, 51, 44
15, 83605, Note_on_c, 13, 51, 0
15, 83610, Note_on_c, 13, 51, 44
15, 83635, Note_on_c, 13, 51, 0
15, 83640, Note_on_c, 13, 51, 44
15, 83999, Note_on_c, 13, 51, 0
15, 84000, Note_on_c, 13, 51, 44
15, 84359, Note_on_c, 13, 51, 0
15, 84360, Note_on_c, 13, 51, 44
15, 84591, Note_on_c, 13, 51, 0
15, 84598, Control_c, 13, 11, 64
15, 84600, Note_on_c, 13, 48, 76
15, 84600, Control_c, 13, 11, 64
15, 84619, Control_c, 13, 11, 65
15, 84638, Control_c, 13, 11, 66
15, 84657, Control_c, 13, 11, 67
15, 84676, Control_c, 13, 11, 68
15, 84689, Note_on_c, 13, 48, 0
15, 84690, Note_on_c, 13, 51, 76
15, 84695, Control_c, 13, 11, 69
15, 84714, Control_c, 13, 11, 70
15, 84719, Note_on_c, 13, 51, 0
15, 84720, Note_on_c, 13, 56, 76
15, 84733, Control_c, 13, 11, 71
15, 84752, Control_c, 13, 11, 72
15, 84771, Control_c, 13, 11, 73
15, 84790, Control_c, 13, 11, 74
15, 84810, Control_c, 13, 11, 75
15, 84829, Control_c, 13, 11, 76
15, 84848, Control_c, 13, 11, 77
15, 84867, Control_c, 13, 11, 78
15, 84886, Control_c, 13, 11, 79
15, 84905, Control_c, 13, 11, 80
15, 84924, Control_c, 13, 11, 81
15, 84943, Control_c, 13, 11, 82
15, 84951, Note_on_c, 13, 56, 0
15, 84960, Note_on_c, 13, 48, 76
15, 84962, Control_c, 13, 11, 83
15, 84981, Control_c, 13, 11, 84
15, 85000, Control_c, 13, 11, 85
15, 85019, Control_c, 13, 11, 86
15, 85038, Control_c, 13, 11, 87
15, 85049, Note_on_c, 13, 48, 0
15, 85050, Note_on_c, 13, 51, 76
15, 85057, Control_c, 13, 11, 88
15, 85076, Control_c, 13, 11, 89
15, 85079, Note_on_c, 13, 51, 0
15, 85080, Note_on_c, 13, 56, 76
15, 85095, Control_c, 13, 11, 90
15, 85114, Control_c, 13, 11, 91
15, 85133, Control_c, 13, 11, 92
15, 85152, Control_c, 13, 11, 93
15, 85171, Control_c, 13, 11, 94
15, 85190, Control_c, 13, 11, 95
15, 85191, Note_on_c, 13, 56, 0
15, 85200, Note_on_c, 13, 48, 76
15, 85210, Control_c, 13, 11, 96
15, 85229, Control_c, 13, 11, 97
15, 85248, Control_c, 13, 11, 98
15, 85267, Control_c, 13, 11, 99
15, 85286, Control_c, 13, 11, 100
15, 85289, Note_on_c, 13, 48, 0
15, 85290, Note_on_c, 13, 51, 76
15, 85305, Control_c, 13, 11, 101
15, 85319, Note_on_c, 13, 51, 0
15, 85320, Note_on_c, 13, 56, 76
15, 85324, Control_c, 13, 11, 102
15, 85343, Control_c, 13, 11, 103
15, 85362, Control_c, 13, 11, 104
15, 85381, Control_c, 13, 11, 105
15, 85400, Control_c, 13, 11, 106
15, 85419, Control_c, 13, 11, 107
15, 85431, Note_on_c, 13, 56, 0
15, 85438, Control_c, 13, 11, 108
15, 85440, Note_on_c, 13, 48, 76
15, 85457, Control_c, 13, 11, 109
15, 85476, Control_c, 13, 11, 110
15, 85495, Control_c, 13, 11, 111
15, 85514, Control_c, 13, 11, 112
15, 85529, Note_on_c, 13, 48, 0
15, 85530, Note_on_c, 13, 51, 76
15, 85533, Control_c, 13, 11, 113
15, 85552, Control_c, 13, 11, 114
15, 85559, Note_on_c, 13, 51, 0
15, 85560, Note_on_c, 13, 56, 76
15, 85571, Control_c, 13, 11, 115
15, 85590, Control_c, 13, 11, 116
15, 85610, Control_c, 13, 11, 117
15, 85629, Control_c, 13, 11, 118
15, 85648, Control_c, 13, 11, 119
15, 85667, Control_c, 13, 11, 120
15, 85671, Note_on_c, 13, 56, 0
15, 85680, Note_on_c, 13, 48, 76
15, 85686, Control_c, 13, 11, 121
15, 85705, Control_c, 13, 11, 122
15, 85724, Control_c, 13, 11, 123
15, 85743, Control_c, 13, 11, 124
15, 85762, Control_c, 13, 11, 125
15, 85769, Note_on_c, 13, 48, 0
15, 85770, Note_on_c, 13, 51, 76
15, 85781, Control_c, 13, 11, 127
15, 85799, Note_on_c, 13, 51, 0
15, 85800, Note_on_c, 13, 56, 76
15, 85831, Note_on_c, 13, 56, 0
15, 85840, Note_on_c, 13, 48, 76
15, 85871, Note_on_c, 13, 48, 0
15, 85880, Note_on_c, 13, 51, 76
15, 85911, Note_on_c, 13, 51, 0
15, 85920, Note_on_c, 13, 56, 76
15, 85951, Note_on_c, 13, 56, 0
15, 85960, Note_on_c, 13, 48, 76
15, 85991, Note_on_c, 13, 48, 0
15, 86000, Note_on_c, 13, 51, 76
15, 86031, Note_on_c, 13, 51, 0
15, 86040, Note_on_c, 13, 56, 76
15, 86071, Note_on_c, 13, 56, 0
15, 86080, Note_on_c, 13, 48, 76
15, 86111, Note_on_c, 13, 48, 0
15, 86120, Note_on_c, 13, 51, 76
15, 86151, Note_on_c, 13, 51, 0
15, 86160, Note_on_c, 13, 56, 76
15, 86191, Note_on_c, 13, 56, 0
15, 86200, Note_on_c, 13, 48, 76
15, 86231, Note_on_c, 13, 48, 0
15, 86240, Note_on_c, 13, 51, 76
15, 86271, Note_on_c, 13, 51, 0
15, 86280, Note_on_c, 13, 56, 76
15, 86311, Note_on_c, 13, 56, 0
15, 86320, Note_on_c, 13, 60, 76
15, 86351, Note_on_c, 13, 60, 0
15, 86360, Note_on_c, 13, 63, 76
15, 86391, Note_on_c, 13, 63, 0
15, 86400, Note_on_c, 13, 68, 76
15, 86431, Note_on_c, 13, 68, 0
15, 86440, Note_on_c, 13, 63, 76
15, 86440, Note_on_c, 13, 60, 76
15, 86471, Note_on_c, 13, 63, 0
15, 86471, Note_on_c, 13, 60, 0
15, 86480, Note_on_c, 13, 63, 76
15, 86480, Note_on_c, 13, 60, 76
15, 86511, Note_on_c, 13, 63, 0
15, 86511, Note_on_c, 13, 60, 0
15, 86520, Note_on_c, 13, 63, 76
15, 86520, Note_on_c, 13, 60, 76
15, 86551, Note_on_c, 13, 63, 0
15, 86551, Note_on_c, 13, 60, 0
15, 86560, Note_on_c, 13, 60, 76
15, 86560, Note_on_c, 13, 63, 76
15, 86591, Note_on_c, 13, 60, 0
15, 86591, Note_on_c, 13, 63, 0
15, 86600, Note_on_c, 13, 63, 76
15, 86600, Note_on_c, 13, 60, 76
15, 86631, Note_on_c, 13, 63, 0
15, 86631, Note_on_c, 13, 60, 0
15, 86640, Note_on_c, 13, 60, 76
15, 86640, Note_on_c, 13, 63, 76
15, 86671, Note_on_c, 13, 60, 0
15, 86671, Note_on_c, 13, 63, 0
15, 86680, Note_on_c, 13, 60, 76
15, 86680, Note_on_c, 13, 63, 76
15, 86711, Note_on_c, 13, 60, 0
15, 86711, Note_on_c, 13, 63, 0
15, 86720, Note_on_c, 13, 60, 76
15, 86720, Note_on_c, 13, 63, 76
15, 86751, Note_on_c, 13, 60, 0
15, 86751, Note_on_c, 13, 63, 0
15, 86760, Note_on_c, 13, 63, 76
15, 86760, Note_on_c, 13, 60, 76
15, 86791, Note_on_c, 13, 63, 0
15, 86791, Note_on_c, 13, 60, 0
15, 86800, Note_on_c, 13, 63, 76
15, 86800, Note_on_c, 13, 60, 76
15, 86831, Note_on_c, 13, 63, 0
15, 86831, Note_on_c, 13, 60, 0
15, 86840, Note_on_c, 13, 60, 76
15, 86840, Note_on_c, 13, 63, 76
15, 86871, Note_on_c, 13, 60, 0
15, 86871, Note_on_c, 13, 63, 0
15, 86880, Note_on_c, 13, 63, 84
15, 86880, Note_on_c, 13, 60, 84
15, 86999, Note_on_c, 13, 63, 0
15, 86999, Note_on_c, 13, 60, 0
15, 87240, Note_on_c, 13, 63, 84
15, 87359, Note_on_c, 13, 63, 0
15, 87600, Note_on_c, 13, 68, 84
15, 87719, Note_on_c, 13, 68, 0
15, 87840, Note_on_c, 13, 63, 52
15, 87929, Note_on_c, 13, 63, 0
15, 87960, Note_on_c, 13, 68, 52
15, 88049, Note_on_c, 13, 68, 0
15, 88320, Note_on_c, 13, 63, 84
15, 88439, Note_on_c, 13, 63, 0
15, 88680, Note_on_c, 13, 56, 84
15, 88799, Note_on_c, 13, 56, 0
15, 88799, End_track
16, 0, Start_track
16, 0, Title_t, "Cello"
16, 0, MIDI_port, 0
16, 0, Program_c, 14, 48
16, 0, Control_c, 14, 7, 96
16, 0, Control_c, 14, 10, 90
16, 0, Control_c, 14, 11, 127
16, 0, Note_on_c, 14, 51, 48
16, 89, Note_on_c, 14, 51, 0
16, 90, Note_on_c, 14, 56, 48
16, 115, Note_on_c, 14, 56, 0
16, 120, Note_on_c, 14, 60, 48
16, 209, Note_on_c, 14, 60, 0
16, 240, Note_on_c, 14, 60, 48
16, 329, Note_on_c, 14, 60, 0
16, 330, Note_on_c, 14, 58, 48
16, 359, Note_on_c, 14, 58, 0
16, 360, Note_on_c, 14, 56, 48
16, 449, Note_on_c, 14, 56, 0
16, 450, Note_on_c, 14, 60, 48
16, 475, Note_on_c, 14, 60, 0
16, 480, Note_on_c, 14, 53, 48
16, 689, Note_on_c, 14, 53, 0
16, 690, Note_on_c, 14, 57, 48
16, 719, Note_on_c, 14, 57, 0
16, 720, Note_on_c, 14, 58, 48
16, 809, Note_on_c, 14, 58, 0
16, 810, Note_on_c, 14, 60, 48
16, 835, Note_on_c, 14, 60, 0
16, 840, Note_on_c, 14, 61, 48
16, 929, Note_on_c, 14, 61, 0
16, 930, Note_on_c, 14, 60, 48
16, 955, Note_on_c, 14, 60, 0
16, 960, Note_on_c, 14, 58, 48
16, 1049, Note_on_c, 14, 58, 0
16, 1050, Note_on_c, 14, 61, 48
16, 1079, Note_on_c, 14, 61, 0
16, 1080, Note_on_c, 14, 55, 48
16, 1169, Note_on_c, 14, 55, 0
16, 1170, Note_on_c, 14, 58, 48
16, 1195, Note_on_c, 14, 58, 0
16, 1200, Note_on_c, 14, 52, 48
16, 1289, Note_on_c, 14, 52, 0
16, 1290, Note_on_c, 14, 55, 48
16, 1315, Note_on_c, 14, 55, 0
16, 1320, Note_on_c, 14, 60, 48
16, 1529, Note_on_c, 14, 60, 0
16, 1530, Note_on_c, 14, 58, 48
16, 1555, Note_on_c, 14, 58, 0
16, 1560, Note_on_c, 14, 57, 48
16, 1649, Note_on_c, 14, 57, 0
16, 1650, Note_on_c, 14, 53, 48
16, 1675, Note_on_c, 14, 53, 0
16, 1680, Note_on_c, 14, 58, 48
16, 1859, Note_on_c, 14, 58, 0
16, 1860, Note_on_c, 14, 61, 48
16, 1915, Note_on_c, 14, 61, 0
16, 1920, Note_on_c, 14, 55, 48
16, 2009, Note_on_c, 14, 55, 0
16, 2010, Note_on_c, 14, 51, 48
16, 2035, Note_on_c, 14, 51, 0
16, 2040, Note_on_c, 14, 56, 48
16, 2151, Note_on_c, 14, 56, 0
16, 2160, Note_on_c, 14, 56, 48
16, 2249, Note_on_c, 14, 56, 0
16, 2250, Note_on_c, 14, 60, 48
16, 2275, Note_on_c, 14, 60, 0
16, 2280, Note_on_c, 14, 63, 76
16, 2280, Control_c, 14, 11, 127
16, 2295, Control_c, 14, 11, 125
16, 2310, Control_c, 14, 11, 123
16, 2325, Control_c, 14, 11, 121
16, 2340, Control_c, 14, 11, 119
16, 2355, Control_c, 14, 11, 117
16, 2370, Control_c, 14, 11, 115
16, 2385, Control_c, 14, 11, 113
16, 2400, Control_c, 14, 11, 111
16, 2415, Control_c, 14, 11, 109
16, 2430, Control_c, 14, 11, 107
16, 2445, Control_c, 14, 11, 105
16, 2460, Control_c, 14, 11, 104
16, 2475, Control_c, 14, 11, 102
16, 2490, Control_c, 14, 11, 100
16, 2505, Control_c, 14, 11, 98
16, 2520, Control_c, 14, 11, 96
16, 2535, Control_c, 14, 11, 94
16, 2550, Control_c, 14, 11, 92
16, 2565, Control_c, 14, 11, 90
16, 2580, Control_c, 14, 11, 88
16, 2595, Control_c, 14, 11, 86
16, 2610, Control_c, 14, 11, 84
16, 2625, Control_c, 14, 11, 82
16, 2639, Note_on_c, 14, 63, 0
16, 2640, Note_on_c, 14, 60, 76
16, 2640, Control_c, 14, 11, 80
16, 2759, Note_on_c, 14, 60, 0
16, 2880, Note_on_c, 14, 48, 76
16, 2969, Note_on_c, 14, 48, 0
16, 2970, Note_on_c, 14, 44, 76
16, 2995, Note_on_c, 14, 44, 0
16, 2998, Control_c, 14, 11, 127
16, 3000, Note_on_c, 14, 39, 76
16, 3359, Note_on_c, 14, 39, 0
16, 3360, Note_on_c, 14, 44, 52
16, 3479, Note_on_c, 14, 44, 0
16, 5160, Control_c, 14, 11, 80
16, 5520, Note_on_c, 14, 53, 76
16, 5871, Note_on_c, 14, 53, 0
16, 5880, Control_c, 14, 11, 80
16, 5880, Note_on_c, 14, 48, 76
16, 5895, Control_c, 14, 11, 82
16, 5910, Control_c, 14, 11, 84
16, 5925, Control_c, 14, 11, 86
16, 5940, Control_c, 14, 11, 88
16, 5955, Control_c, 14, 11, 90
16, 5970, Control_c, 14, 11, 92
16, 5985, Control_c, 14, 11, 94
16, 6000, Control_c, 14, 11, 96
16, 6015, Control_c, 14, 11, 98
16, 6030, Control_c, 14, 11, 100
16, 6045, Control_c, 14, 11, 102
16, 6060, Control_c, 14, 11, 104
16, 6075, Control_c, 14, 11, 105
16, 6090, Control_c, 14, 11, 107
16, 6105, Control_c, 14, 11, 109
16, 6120, Control_c, 14, 11, 111
16, 6135, Control_c, 14, 11, 113
16, 6150, Control_c, 14, 11, 115
16, 6165, Control_c, 14, 11, 117
16, 6180, Control_c, 14, 11, 119
16, 6195, Control_c, 14, 11, 121
16, 6210, Control_c, 14, 11, 123
16, 6225, Control_c, 14, 11, 127
16, 6231, Note_on_c, 14, 48, 0
16, 6240, Note_on_c, 14, 51, 76
16, 6351, Note_on_c, 14, 51, 0
16, 6360, Note_on_c, 14, 51, 76
16, 6471, Note_on_c, 14, 51, 0
16, 6480, Note_on_c, 14, 51, 76
16, 6599, Note_on_c, 14, 51, 0
16, 6600, Note_on_c, 14, 44, 52
16, 6719, Note_on_c, 14, 44, 0
16, 7200, Note_on_c, 14, 51, 76
16, 7319, Note_on_c, 14, 51, 0
16, 7320, Note_on_c, 14, 44, 76
16, 7379, Note_on_c, 14, 44, 0
16, 7440, Note_on_c, 14, 44, 52
16, 7499, Note_on_c, 14, 44, 0
16, 7560, Note_on_c, 14, 44, 52
16, 7619, Note_on_c, 14, 44, 0
16, 7680, Note_on_c, 14, 44, 52
16, 7799, Note_on_c, 14, 44, 0
16, 7920, Program_c, 14, 45
16, 8040, Note_on_c, 14, 56, 48
16, 8159, Note_on_c, 14, 56, 0
16, 8160, Note_on_c, 14, 56, 48
16, 8279, Note_on_c, 14, 56, 0
16, 8280, Note_on_c, 14, 51, 48
16, 8399, Note_on_c, 14, 51, 0
16, 8400, Note_on_c, 14, 44, 48
16, 8519, Note_on_c, 14, 44, 0
16, 8760, Note_on_c, 14, 56, 48
16, 8879, Note_on_c, 14, 56, 0
16, 8880, Note_on_c, 14, 56, 48
16, 8999, Note_on_c, 14, 56, 0
16, 9000, Note_on_c, 14, 56, 48
16, 9119, Note_on_c, 14, 56, 0
16, 9120, Note_on_c, 14, 56, 48
16, 9359, Note_on_c, 14, 56, 0
16, 9840, Program_c, 14, 48
16, 10200, Note_on_c, 14, 44, 84
16, 10551, Note_on_c, 14, 44, 0
16, 10560, Note_on_c, 14, 43, 84
16, 10649, Note_on_c, 14, 43, 0
16, 10680, Note_on_c, 14, 43, 84
16, 10769, Note_on_c, 14, 43, 0
16, 10800, Note_on_c, 14, 43, 84
16, 10889, Note_on_c, 14, 43, 0
16, 10920, Note_on_c, 14, 48, 84
16, 11031, Note_on_c, 14, 48, 0
16, 11040, Note_on_c, 14, 36, 84
16, 11159, Note_on_c, 14, 36, 0
16, 11280, Note_on_c, 14, 48, 84
16, 11391, Note_on_c, 14, 48, 0
16, 11400, Note_on_c, 14, 48, 84
16, 11511, Note_on_c, 14, 48, 0
16, 11520, Note_on_c, 14, 43, 84
16, 11631, Note_on_c, 14, 43, 0
16, 11640, Note_on_c, 14, 48, 84
16, 11871, Note_on_c, 14, 48, 0
16, 11880, Note_on_c, 14, 48, 84
16, 11965, Note_on_c, 14, 48, 0
16, 11970, Note_on_c, 14, 48, 84
16, 11995, Note_on_c, 14, 48, 0
16, 12000, Note_on_c, 14, 48, 84
16, 12111, Note_on_c, 14, 48, 0
16, 12120, Note_on_c, 14, 48, 84
16, 12231, Note_on_c, 14, 48, 0
16, 12240, Note_on_c, 14, 48, 84
16, 12351, Note_on_c, 14, 48, 0
16, 12360, Note_on_c, 14, 48, 92
16, 12591, Note_on_c, 14, 48, 0
16, 12600, Note_on_c, 14, 48, 84
16, 12685, Note_on_c, 14, 48, 0
16, 12690, Note_on_c, 14, 48, 84
16, 12715, Note_on_c, 14, 48, 0
16, 12720, Note_on_c, 14, 48, 92
16, 12951, Note_on_c, 14, 48, 0
16, 12960, Note_on_c, 14, 48, 84
16, 13045, Note_on_c, 14, 48, 0
16, 13050, Note_on_c, 14, 48, 84
16, 13075, Note_on_c, 14, 48, 0
16, 13080, Note_on_c, 14, 48, 84
16, 13199, Note_on_c, 14, 48, 0
16, 13800, Control_c, 14, 11, 64
16, 13920, Note_on_c, 14, 40, 76
16, 14159, Note_on_c, 14, 40, 0
16, 14280, Note_on_c, 14, 40, 76
16, 14879, Note_on_c, 14, 40, 0
16, 14880, Note_on_c, 14, 40, 76
16, 15239, Note_on_c, 14, 40, 0
16, 15240, Note_on_c, 14, 39, 76
16, 15599, Note_on_c, 14, 39, 0
16, 15600, Note_on_c, 14, 38, 76
16, 15959, Note_on_c, 14, 38, 0
16, 15960, Note_on_c, 14, 37, 76
16, 16319, Note_on_c, 14, 37, 0
16, 16320, Note_on_c, 14, 36, 76
16, 16679, Note_on_c, 14, 36, 0
16, 16680, Note_on_c, 14, 37, 76
16, 16680, Control_c, 14, 11, 64
16, 16695, Control_c, 14, 11, 67
16, 16710, Control_c, 14, 11, 69
16, 16725, Control_c, 14, 11, 72
16, 16740, Control_c, 14, 11, 75
16, 16755, Control_c, 14, 11, 77
16, 16770, Control_c, 14, 11, 80
16, 16785, Control_c, 14, 11, 82
16, 16800, Control_c, 14, 11, 85
16, 16815, Control_c, 14, 11, 88
16, 16830, Control_c, 14, 11, 90
16, 16845, Control_c, 14, 11, 93
16, 16860, Control_c, 14, 11, 96
16, 16875, Control_c, 14, 11, 98
16, 16890, Control_c, 14, 11, 101
16, 16905, Control_c, 14, 11, 103
16, 16920, Control_c, 14, 11, 106
16, 16935, Control_c, 14, 11, 109
16, 16950, Control_c, 14, 11, 111
16, 16965, Control_c, 14, 11, 114
16, 16980, Control_c, 14, 11, 117
16, 16995, Control_c, 14, 11, 119
16, 17010, Control_c, 14, 11, 122
16, 17025, Control_c, 14, 11, 127
16, 17031, Note_on_c, 14, 37, 0
16, 17040, Note_on_c, 14, 39, 76
16, 17129, Note_on_c, 14, 39, 0
16, 17160, Note_on_c, 14, 51, 76
16, 17279, Note_on_c, 14, 51, 0
16, 17640, Note_on_c, 14, 51, 48
16, 17699, Note_on_c, 14, 51, 0
16, 17700, Note_on_c, 14, 56, 48
16, 17759, Note_on_c, 14, 56, 0
16, 17760, Note_on_c, 14, 60, 48
16, 17819, Note_on_c, 14, 60, 0
16, 17820, Note_on_c, 14, 58, 48
16, 17879, Note_on_c, 14, 58, 0
16, 17880, Note_on_c, 14, 56, 48
16, 17939, Note_on_c, 14, 56, 0
16, 17940, Note_on_c, 14, 55, 48
16, 17999, Note_on_c, 14, 55, 0
16, 18000, Note_on_c, 14, 56, 48
16, 18059, Note_on_c, 14, 56, 0
16, 18060, Note_on_c, 14, 60, 48
16, 18115, Note_on_c, 14, 60, 0
16, 18120, Note_on_c, 14, 53, 48
16, 18179, Note_on_c, 14, 53, 0
16, 18180, Note_on_c, 14, 57, 48
16, 18239, Note_on_c, 14, 57, 0
16, 18240, Note_on_c, 14, 58, 48
16, 18299, Note_on_c, 14, 58, 0
16, 18300, Note_on_c, 14, 57, 48
16, 18359, Note_on_c, 14, 57, 0
16, 18360, Note_on_c, 14, 58, 48
16, 18419, Note_on_c, 14, 58, 0
16, 18420, Note_on_c, 14, 60, 48
16, 18475, Note_on_c, 14, 60, 0
16, 18480, Note_on_c, 14, 61, 48
16, 18539, Note_on_c, 14, 61, 0
16, 18540, Note_on_c, 14, 60, 48
16, 18599, Note_on_c, 14, 60, 0
16, 18600, Note_on_c, 14, 58, 48
16, 18659, Note_on_c, 14, 58, 0
16, 18660, Note_on_c, 14, 61, 48
16, 18719, Note_on_c, 14, 61, 0
16, 18720, Note_on_c, 14, 55, 48
16, 18779, Note_on_c, 14, 55, 0
16, 18780, Note_on_c, 14, 58, 48
16, 18835, Note_on_c, 14, 58, 0
16, 18840, Note_on_c, 14, 52, 48
16, 18899, Note_on_c, 14, 52, 0
16, 18900, Note_on_c, 14, 55, 48
16, 18959, Note_on_c, 14, 55, 0
16, 18960, Note_on_c, 14, 60, 48
16, 19019, Note_on_c, 14, 60, 0
16, 19020, Note_on_c, 14, 55, 48
16, 19079, Note_on_c, 14, 55, 0
16, 19080, Note_on_c, 14, 60, 48
16, 19139, Note_on_c, 14, 60, 0
16, 19140, Note_on_c, 14, 58, 48
16, 19195, Note_on_c, 14, 58, 0
16, 19200, Note_on_c, 14, 57, 48
16, 19259, Note_on_c, 14, 57, 0
16, 19260, Note_on_c, 14, 53, 48
16, 19319, Note_on_c, 14, 53, 0
16, 19320, Note_on_c, 14, 58, 48
16, 19379, Note_on_c, 14, 58, 0
16, 19380, Note_on_c, 14, 60, 48
16, 19439, Note_on_c, 14, 60, 0
16, 19440, Note_on_c, 14, 61, 48
16, 19499, Note_on_c, 14, 61, 0
16, 19500, Note_on_c, 14, 58, 48
16, 19555, Note_on_c, 14, 58, 0
16, 19560, Note_on_c, 14, 55, 48
16, 19619, Note_on_c, 14, 55, 0
16, 19620, Note_on_c, 14, 51, 48
16, 19659, Note_on_c, 14, 51, 0
16, 19660, Note_on_c, 14, 58, 48
16, 19679, Note_on_c, 14, 58, 0
16, 19680, Note_on_c, 14, 56, 48
16, 19739, Note_on_c, 14, 56, 0
16, 19740, Note_on_c, 14, 55, 48
16, 19799, Note_on_c, 14, 55, 0
16, 19800, Note_on_c, 14, 56, 48
16, 19859, Note_on_c, 14, 56, 0
16, 19860, Note_on_c, 14, 60, 48
16, 19915, Note_on_c, 14, 60, 0
16, 19920, Note_on_c, 14, 62, 76
16, 19979, Note_on_c, 14, 62, 0
16, 19980, Note_on_c, 14, 63, 76
16, 20039, Note_on_c, 14, 63, 0
16, 20040, Note_on_c, 14, 65, 76
16, 20099, Note_on_c, 14, 65, 0
16, 20100, Note_on_c, 14, 63, 76
16, 20159, Note_on_c, 14, 63, 0
16, 20160, Note_on_c, 14, 62, 76
16, 20219, Note_on_c, 14, 62, 0
16, 20220, Note_on_c, 14, 63, 76
16, 20275, Note_on_c, 14, 63, 0
16, 20280, Note_on_c, 14, 60, 52
16, 20399, Note_on_c, 14, 60, 0
16, 20460, Note_on_c, 14, 48, 64
16, 20504, Note_on_c, 14, 48, 0
16, 20520, Note_on_c, 14, 48, 68
16, 20579, Note_on_c, 14, 48, 0
16, 20580, Note_on_c, 14, 44, 72
16, 20635, Note_on_c, 14, 44, 0
16, 20640, Note_on_c, 14, 39, 76
16, 20991, Note_on_c, 14, 39, 0
16, 21000, Note_on_c, 14, 44, 52
16, 21119, Note_on_c, 14, 44, 0
16, 22800, Control_c, 14, 11, 80
16, 23160, Note_on_c, 14, 53, 76
16, 23511, Note_on_c, 14, 53, 0
16, 23520, Note_on_c, 14, 48, 76
16, 23520, Control_c, 14, 11, 80
16, 23535, Control_c, 14, 11, 82
16, 23550, Control_c, 14, 11, 84
16, 23565, Control_c, 14, 11, 86
16, 23580, Control_c, 14, 11, 88
16, 23595, Control_c, 14, 11, 90
16, 23610, Control_c, 14, 11, 92
16, 23625, Control_c, 14, 11, 94
16, 23640, Control_c, 14, 11, 96
16, 23655, Control_c, 14, 11, 98
16, 23670, Control_c, 14, 11, 100
16, 23685, Control_c, 14, 11, 102
16, 23700, Control_c, 14, 11, 104
16, 23715, Control_c, 14, 11, 105
16, 23730, Control_c, 14, 11, 107
16, 23745, Control_c, 14, 11, 109
16, 23760, Control_c, 14, 11, 111
16, 23775, Control_c, 14, 11, 113
16, 23790, Control_c, 14, 11, 115
16, 23805, Control_c, 14, 11, 117
16, 23820, Control_c, 14, 11, 119
16, 23835, Control_c, 14, 11, 121
16, 23850, Control_c, 14, 11, 123
16, 23865, Control_c, 14, 11, 127
16, 23871, Note_on_c, 14, 48, 0
16, 23880, Note_on_c, 14, 51, 76
16, 23991, Note_on_c, 14, 51, 0
16, 24000, Note_on_c, 14, 51, 76
16, 24111, Note_on_c, 14, 51, 0
16, 24120, Note_on_c, 14, 51, 76
16, 24239, Note_on_c, 14, 51, 0
16, 24240, Note_on_c, 14, 44, 52
16, 24359, Note_on_c, 14, 44, 0
16, 24840, Note_on_c, 14, 51, 76
16, 24959, Note_on_c, 14, 51, 0
16, 24960, Note_on_c, 14, 44, 76
16, 25019, Note_on_c, 14, 44, 0
16, 25080, Note_on_c, 14, 44, 52
16, 25139, Note_on_c, 14, 44, 0
16, 25200, Note_on_c, 14, 44, 52
16, 25259, Note_on_c, 14, 44, 0
16, 25320, Note_on_c, 14, 44, 52
16, 25439, Note_on_c, 14, 44, 0
16, 25560, Program_c, 14, 45
16, 25680, Note_on_c, 14, 56, 48
16, 25799, Note_on_c, 14, 56, 0
16, 25800, Note_on_c, 14, 56, 48
16, 25919, Note_on_c, 14, 56, 0
16, 25920, Note_on_c, 14, 51, 48
16, 26039, Note_on_c, 14, 51, 0
16, 26040, Note_on_c, 14, 44, 48
16, 26159, Note_on_c, 14, 44, 0
16, 26400, Note_on_c, 14, 44, 48
16, 26519, Note_on_c, 14, 44, 0
16, 26520, Note_on_c, 14, 56, 48
16, 26639, Note_on_c, 14, 56, 0
16, 26640, Note_on_c, 14, 56, 48
16, 26759, Note_on_c, 14, 56, 0
16, 26760, Note_on_c, 14, 56, 48
16, 26879, Note_on_c, 14, 56, 0
16, 27720, Program_c, 14, 48
16, 27840, Note_on_c, 14, 44, 84
16, 27865, Note_on_c, 14, 44, 0
16, 27870, Note_on_c, 14, 44, 84
16, 27895, Note_on_c, 14, 44, 0
16, 27900, Note_on_c, 14, 44, 84
16, 27925, Note_on_c, 14, 44, 0
16, 27930, Note_on_c, 14, 44, 84
16, 27955, Note_on_c, 14, 44, 0
16, 27960, Note_on_c, 14, 44, 84
16, 27985, Note_on_c, 14, 44, 0
16, 27990, Note_on_c, 14, 44, 84
16, 28015, Note_on_c, 14, 44, 0
16, 28020, Note_on_c, 14, 44, 84
16, 28045, Note_on_c, 14, 44, 0
16, 28050, Note_on_c, 14, 44, 84
16, 28075, Note_on_c, 14, 44, 0
16, 28080, Note_on_c, 14, 44, 84
16, 28105, Note_on_c, 14, 44, 0
16, 28110, Note_on_c, 14, 44, 84
16, 28135, Note_on_c, 14, 44, 0
16, 28140, Note_on_c, 14, 44, 84
16, 28165, Note_on_c, 14, 44, 0
16, 28170, Note_on_c, 14, 44, 84
16, 28195, Note_on_c, 14, 44, 0
16, 28200, Note_on_c, 14, 43, 84
16, 28255, Note_on_c, 14, 43, 0
16, 28260, Note_on_c, 14, 48, 84
16, 28285, Note_on_c, 14, 48, 0
16, 28290, Note_on_c, 14, 52, 84
16, 28315, Note_on_c, 14, 52, 0
16, 28320, Note_on_c, 14, 55, 84
16, 28409, Note_on_c, 14, 55, 0
16, 28440, Note_on_c, 14, 43, 84
16, 28529, Note_on_c, 14, 43, 0
16, 28560, Note_on_c, 14, 48, 84
16, 28671, Note_on_c, 14, 48, 0
16, 28680, Note_on_c, 14, 36, 84
16, 28799, Note_on_c, 14, 36, 0
16, 28920, Note_on_c, 14, 48, 84
16, 29031, Note_on_c, 14, 48, 0
16, 29040, Note_on_c, 14, 48, 84
16, 29151, Note_on_c, 14, 48, 0
16, 29160, Note_on_c, 14, 43, 84
16, 29271, Note_on_c, 14, 43, 0
16, 29280, Note_on_c, 14, 48, 84
16, 29511, Note_on_c, 14, 48, 0
16, 29520, Note_on_c, 14, 48, 84
16, 29605, Note_on_c, 14, 48, 0
16, 29610, Note_on_c, 14, 48, 84
16, 29635, Note_on_c, 14, 48, 0
16, 29640, Note_on_c, 14, 48, 84
16, 29751, Note_on_c, 14, 48, 0
16, 29760, Note_on_c, 14, 48, 84
16, 29871, Note_on_c, 14, 48, 0
16, 29880, Note_on_c, 14, 48, 84
16, 29991, Note_on_c, 14, 48, 0
16, 30000, Note_on_c, 14, 48, 92
16, 30029, Note_on_c, 14, 48, 0
16, 30030, Note_on_c, 14, 48, 84
16, 30231, Note_on_c, 14, 48, 0
16, 30240, Note_on_c, 14, 48, 84
16, 30325, Note_on_c, 14, 48, 0
16, 30330, Note_on_c, 14, 48, 84
16, 30355, Note_on_c, 14, 48, 0
16, 30360, Note_on_c, 14, 48, 92
16, 30389, Note_on_c, 14, 48, 0
16, 30390, Note_on_c, 14, 48, 84
16, 30591, Note_on_c, 14, 48, 0
16, 30600, Note_on_c, 14, 48, 84
16, 30685, Note_on_c, 14, 48, 0
16, 30690, Note_on_c, 14, 48, 84
16, 30715, Note_on_c, 14, 48, 0
16, 30720, Note_on_c, 14, 48, 84
16, 30839, Note_on_c, 14, 48, 0
16, 31470, Note_on_c, 14, 40, 44
16, 31495, Note_on_c, 14, 40, 0
16, 31500, Note_on_c, 14, 40, 44
16, 31525, Note_on_c, 14, 40, 0
16, 31530, Note_on_c, 14, 40, 44
16, 31555, Note_on_c, 14, 40, 0
16, 31560, Note_on_c, 14, 40, 44
16, 31615, Note_on_c, 14, 40, 0
16, 31620, Note_on_c, 14, 40, 44
16, 31675, Note_on_c, 14, 40, 0
16, 31680, Note_on_c, 14, 40, 44
16, 31739, Note_on_c, 14, 40, 0
16, 31830, Note_on_c, 14, 40, 44
16, 31855, Note_on_c, 14, 40, 0
16, 31860, Note_on_c, 14, 40, 44
16, 31885, Note_on_c, 14, 40, 0
16, 31890, Note_on_c, 14, 40, 44
16, 31915, Note_on_c, 14, 40, 0
16, 31920, Note_on_c, 14, 40, 44
16, 31975, Note_on_c, 14, 40, 0
16, 31980, Note_on_c, 14, 40, 44
16, 32035, Note_on_c, 14, 40, 0
16, 32040, Note_on_c, 14, 40, 44
16, 32099, Note_on_c, 14, 40, 0
16, 32190, Note_on_c, 14, 40, 44
16, 32215, Note_on_c, 14, 40, 0
16, 32220, Note_on_c, 14, 40, 44
16, 32245, Note_on_c, 14, 40, 0
16, 32250, Note_on_c, 14, 40, 44
16, 32275, Note_on_c, 14, 40, 0
16, 32280, Note_on_c, 14, 40, 44
16, 32335, Note_on_c, 14, 40, 0
16, 32340, Note_on_c, 14, 40, 44
16, 32395, Note_on_c, 14, 40, 0
16, 32400, Note_on_c, 14, 40, 44
16, 32455, Note_on_c, 14, 40, 0
16, 32460, Note_on_c, 14, 40, 44
16, 32519, Note_on_c, 14, 40, 0
16, 32550, Note_on_c, 14, 40, 44
16, 32575, Note_on_c, 14, 40, 0
16, 32580, Note_on_c, 14, 40, 44
16, 32605, Note_on_c, 14, 40, 0
16, 32610, Note_on_c, 14, 40, 44
16, 32635, Note_on_c, 14, 40, 0
16, 32640, Note_on_c, 14, 40, 44
16, 32695, Note_on_c, 14, 40, 0
16, 32700, Note_on_c, 14, 40, 44
16, 32755, Note_on_c, 14, 40, 0
16, 32760, Note_on_c, 14, 40, 44
16, 32815, Note_on_c, 14, 40, 0
16, 32820, Note_on_c, 14, 40, 44
16, 32879, Note_on_c, 14, 40, 0
16, 32910, Note_on_c, 14, 39, 44
16, 32935, Note_on_c, 14, 39, 0
16, 32940, Note_on_c, 14, 39, 44
16, 32965, Note_on_c, 14, 39, 0
16, 32970, Note_on_c, 14, 39, 44
16, 32995, Note_on_c, 14, 39, 0
16, 33000, Note_on_c, 14, 39, 44
16, 33055, Note_on_c, 14, 39, 0
16, 33060, Note_on_c, 14, 39, 44
16, 33115, Note_on_c, 14, 39, 0
16, 33120, Note_on_c, 14, 39, 44
16, 33175, Note_on_c, 14, 39, 0
16, 33180, Note_on_c, 14, 39, 44
16, 33239, Note_on_c, 14, 39, 0
16, 33270, Note_on_c, 14, 38, 44
16, 33295, Note_on_c, 14, 38, 0
16, 33300, Note_on_c, 14, 38, 44
16, 33325, Note_on_c, 14, 38, 0
16, 33330, Note_on_c, 14, 38, 44
16, 33355, Note_on_c, 14, 38, 0
16, 33360, Note_on_c, 14, 38, 44
16, 33415, Note_on_c, 14, 38, 0
16, 33420, Note_on_c, 14, 38, 44
16, 33475, Note_on_c, 14, 38, 0
16, 33480, Note_on_c, 14, 38, 44
16, 33535, Note_on_c, 14, 38, 0
16, 33540, Note_on_c, 14, 38, 44
16, 33599, Note_on_c, 14, 38, 0
16, 33630, Note_on_c, 14, 37, 44
16, 33655, Note_on_c, 14, 37, 0
16, 33660, Note_on_c, 14, 37, 44
16, 33685, Note_on_c, 14, 37, 0
16, 33690, Note_on_c, 14, 37, 44
16, 33715, Note_on_c, 14, 37, 0
16, 33720, Note_on_c, 14, 37, 44
16, 33775, Note_on_c, 14, 37, 0
16, 33780, Note_on_c, 14, 37, 44
16, 33835, Note_on_c, 14, 37, 0
16, 33840, Note_on_c, 14, 37, 44
16, 33895, Note_on_c, 14, 37, 0
16, 33900, Note_on_c, 14, 37, 44
16, 33959, Note_on_c, 14, 37, 0
16, 33990, Note_on_c, 14, 36, 44
16, 34015, Note_on_c, 14, 36, 0
16, 34020, Note_on_c, 14, 36, 44
16, 34045, Note_on_c, 14, 36, 0
16, 34050, Note_on_c, 14, 36, 44
16, 34075, Note_on_c, 14, 36, 0
16, 34080, Note_on_c, 14, 36, 44
16, 34135, Note_on_c, 14, 36, 0
16, 34140, Note_on_c, 14, 36, 44
16, 34195, Note_on_c, 14, 36, 0
16, 34200, Note_on_c, 14, 36, 44
16, 34255, Note_on_c, 14, 36, 0
16, 34260, Note_on_c, 14, 36, 44
16, 34319, Note_on_c, 14, 36, 0
16, 34350, Note_on_c, 14, 37, 46
16, 34375, Note_on_c, 14, 37, 0
16, 34380, Note_on_c, 14, 37, 49
16, 34405, Note_on_c, 14, 37, 0
16, 34410, Note_on_c, 14, 37, 52
16, 34435, Note_on_c, 14, 37, 0
16, 34440, Note_on_c, 14, 37, 55
16, 34495, Note_on_c, 14, 37, 0
16, 34500, Note_on_c, 14, 37, 61
16, 34555, Note_on_c, 14, 37, 0
16, 34560, Note_on_c, 14, 37, 66
16, 34615, Note_on_c, 14, 37, 0
16, 34620, Note_on_c, 14, 37, 72
16, 34675, Note_on_c, 14, 37, 0
16, 34680, Note_on_c, 14, 39, 78
16, 34735, Note_on_c, 14, 39, 0
16, 34740, Note_on_c, 14, 51, 84
16, 34784, Note_on_c, 14, 51, 0
16, 34800, Note_on_c, 14, 63, 84
16, 34844, Note_on_c, 14, 63, 0
16, 35280, Note_on_c, 14, 51, 48
16, 35309, Note_on_c, 14, 51, 0
16, 35310, Note_on_c, 14, 55, 48
16, 35339, Note_on_c, 14, 55, 0
16, 35340, Note_on_c, 14, 56, 48
16, 35369, Note_on_c, 14, 56, 0
16, 35370, Note_on_c, 14, 58, 48
16, 35395, Note_on_c, 14, 58, 0
16, 35400, Note_on_c, 14, 60, 48
16, 35429, Note_on_c, 14, 60, 0
16, 35430, Note_on_c, 14, 58, 48
16, 35459, Note_on_c, 14, 58, 0
16, 35460, Note_on_c, 14, 56, 48
16, 35489, Note_on_c, 14, 56, 0
16, 35490, Note_on_c, 14, 55, 48
16, 35519, Note_on_c, 14, 55, 0
16, 35520, Note_on_c, 14, 56, 48
16, 35549, Note_on_c, 14, 56, 0
16, 35550, Note_on_c, 14, 58, 48
16, 35579, Note_on_c, 14, 58, 0
16, 35580, Note_on_c, 14, 56, 48
16, 35609, Note_on_c, 14, 56, 0
16, 35610, Note_on_c, 14, 55, 48
16, 35639, Note_on_c, 14, 55, 0
16, 35640, Note_on_c, 14, 56, 48
16, 35669, Note_on_c, 14, 56, 0
16, 35670, Note_on_c, 14, 58, 48
16, 35699, Note_on_c, 14, 58, 0
16, 35700, Note_on_c, 14, 60, 48
16, 35729, Note_on_c, 14, 60, 0
16, 35730, Note_on_c, 14, 56, 48
16, 35755, Note_on_c, 14, 56, 0
16, 35760, Note_on_c, 14, 53, 48
16, 35789, Note_on_c, 14, 53, 0
16, 35790, Note_on_c, 14, 55, 48
16, 35819, Note_on_c, 14, 55, 0
16, 35820, Note_on_c, 14, 53, 48
16, 35849, Note_on_c, 14, 53, 0
16, 35850, Note_on_c, 14, 52, 48
16, 35879, Note_on_c, 14, 52, 0
16, 35880, Note_on_c, 14, 53, 48
16, 35909, Note_on_c, 14, 53, 0
16, 35910, Note_on_c, 14, 57, 48
16, 35939, Note_on_c, 14, 57, 0
16, 35940, Note_on_c, 14, 58, 48
16, 35969, Note_on_c, 14, 58, 0
16, 35970, Note_on_c, 14, 57, 48
16, 35999, Note_on_c, 14, 57, 0
16, 36000, Note_on_c, 14, 58, 48
16, 36029, Note_on_c, 14, 58, 0
16, 36030, Note_on_c, 14, 60, 48
16, 36059, Note_on_c, 14, 60, 0
16, 36060, Note_on_c, 14, 61, 48
16, 36089, Note_on_c, 14, 61, 0
16, 36090, Note_on_c, 14, 60, 48
16, 36115, Note_on_c, 14, 60, 0
16, 36120, Note_on_c, 14, 61, 48
16, 36149, Note_on_c, 14, 61, 0
16, 36150, Note_on_c, 14, 60, 48
16, 36179, Note_on_c, 14, 60, 0
16, 36180, Note_on_c, 14, 61, 48
16, 36209, Note_on_c, 14, 61, 0
16, 36210, Note_on_c, 14, 60, 48
16, 36239, Note_on_c, 14, 60, 0
16, 36240, Note_on_c, 14, 58, 48
16, 36269, Note_on_c, 14, 58, 0
16, 36270, Note_on_c, 14, 61, 48
16, 36299, Note_on_c, 14, 61, 0
16, 36300, Note_on_c, 14, 56, 48
16, 36329, Note_on_c, 14, 56, 0
16, 36330, Note_on_c, 14, 61, 48
16, 36359, Note_on_c, 14, 61, 0
16, 36360, Note_on_c, 14, 55, 48
16, 36389, Note_on_c, 14, 55, 0
16, 36390, Note_on_c, 14, 61, 48
16, 36419, Note_on_c, 14, 61, 0
16, 36420, Note_on_c, 14, 53, 48
16, 36449, Note_on_c, 14, 53, 0
16, 36450, Note_on_c, 14, 61, 48
16, 36475, Note_on_c, 14, 61, 0
16, 36480, Note_on_c, 14, 52, 48
16, 36509, Note_on_c, 14, 52, 0
16, 36510, Note_on_c, 14, 55, 48
16, 36539, Note_on_c, 14, 55, 0
16, 36540, Note_on_c, 14, 57, 48
16, 36569, Note_on_c, 14, 57, 0
16, 36570, Note_on_c, 14, 59, 48
16, 36599, Note_on_c, 14, 59, 0
16, 36600, Note_on_c, 14, 60, 48
16, 36629, Note_on_c, 14, 60, 0
16, 36630, Note_on_c, 14, 55, 48
16, 36659, Note_on_c, 14, 55, 0
16, 36660, Note_on_c, 14, 57, 48
16, 36689, Note_on_c, 14, 57, 0
16, 36690, Note_on_c, 14, 59, 48
16, 36719, Note_on_c, 14, 59, 0
16, 36720, Note_on_c, 14, 60, 48
16, 36749, Note_on_c, 14, 60, 0
16, 36750, Note_on_c, 14, 55, 48
16, 36779, Note_on_c, 14, 55, 0
16, 36780, Note_on_c, 14, 60, 48
16, 36809, Note_on_c, 14, 60, 0
16, 36810, Note_on_c, 14, 58, 48
16, 36835, Note_on_c, 14, 58, 0
16, 36840, Note_on_c, 14, 57, 48
16, 36869, Note_on_c, 14, 57, 0
16, 36870, Note_on_c, 14, 60, 48
16, 36899, Note_on_c, 14, 60, 0
16, 36900, Note_on_c, 14, 53, 48
16, 36929, Note_on_c, 14, 53, 0
16, 36930, Note_on_c, 14, 60, 48
16, 36959, Note_on_c, 14, 60, 0
16, 36960, Note_on_c, 14, 58, 48
16, 36989, Note_on_c, 14, 58, 0
16, 36990, Note_on_c, 14, 61, 48
16, 37019, Note_on_c, 14, 61, 0
16, 37020, Note_on_c, 14, 53, 48
16, 37049, Note_on_c, 14, 53, 0
16, 37050, Note_on_c, 14, 61, 48
16, 37079, Note_on_c, 14, 61, 0
16, 37080, Note_on_c, 14, 60, 48
16, 37109, Note_on_c, 14, 60, 0
16, 37110, Note_on_c, 14, 61, 48
16, 37139, Note_on_c, 14, 61, 0
16, 37140, Note_on_c, 14, 56, 48
16, 37169, Note_on_c, 14, 56, 0
16, 37170, Note_on_c, 14, 61, 48
16, 37195, Note_on_c, 14, 61, 0
16, 37200, Note_on_c, 14, 55, 48
16, 37229, Note_on_c, 14, 55, 0
16, 37230, Note_on_c, 14, 60, 48
16, 37259, Note_on_c, 14, 60, 0
16, 37260, Note_on_c, 14, 51, 48
16, 37289, Note_on_c, 14, 51, 0
16, 37290, Note_on_c, 14, 58, 48
16, 37319, Note_on_c, 14, 58, 0
16, 37320, Note_on_c, 14, 56, 48
16, 37349, Note_on_c, 14, 56, 0
16, 37350, Note_on_c, 14, 60, 48
16, 37379, Note_on_c, 14, 60, 0
16, 37380, Note_on_c, 14, 51, 48
16, 37409, Note_on_c, 14, 51, 0
16, 37410, Note_on_c, 14, 60, 48
16, 37439, Note_on_c, 14, 60, 0
16, 37440, Note_on_c, 14, 56, 48
16, 37469, Note_on_c, 14, 56, 0
16, 37470, Note_on_c, 14, 60, 48
16, 37499, Note_on_c, 14, 60, 0
16, 37500, Note_on_c, 14, 51, 48
16, 37529, Note_on_c, 14, 51, 0
16, 37530, Note_on_c, 14, 60, 48
16, 37555, Note_on_c, 14, 60, 0
16, 37560, Note_on_c, 14, 55, 44
16, 37589, Note_on_c, 14, 55, 0
16, 37590, Note_on_c, 14, 63, 44
16, 37619, Note_on_c, 14, 63, 0
16, 37620, Note_on_c, 14, 58, 44
16, 37649, Note_on_c, 14, 58, 0
16, 37650, Note_on_c, 14, 63, 44
16, 37679, Note_on_c, 14, 63, 0
16, 37680, Note_on_c, 14, 55, 44
16, 37709, Note_on_c, 14, 55, 0
16, 37710, Note_on_c, 14, 63, 44
16, 37739, Note_on_c, 14, 63, 0
16, 37740, Note_on_c, 14, 58, 44
16, 37769, Note_on_c, 14, 58, 0
16, 37770, Note_on_c, 14, 63, 44
16, 37799, Note_on_c, 14, 63, 0
16, 37800, Note_on_c, 14, 55, 44
16, 37829, Note_on_c, 14, 55, 0
16, 37830, Note_on_c, 14, 63, 44
16, 37859, Note_on_c, 14, 63, 0
16, 37860, Note_on_c, 14, 58, 44
16, 37889, Note_on_c, 14, 58, 0
16, 37890, Note_on_c, 14, 63, 44
16, 37915, Note_on_c, 14, 63, 0
16, 37920, Note_on_c, 14, 60, 44
16, 38039, Note_on_c, 14, 60, 0
16, 38160, Program_c, 14, 45
16, 38280, Note_on_c, 14, 48, 44
16, 38339, Note_on_c, 14, 48, 0
16, 38340, Note_on_c, 14, 51, 44
16, 38399, Note_on_c, 14, 51, 0
16, 38400, Note_on_c, 14, 48, 44
16, 38459, Note_on_c, 14, 48, 0
16, 38460, Note_on_c, 14, 51, 44
16, 38519, Note_on_c, 14, 51, 0
16, 38520, Note_on_c, 14, 48, 44
16, 38579, Note_on_c, 14, 48, 0
16, 38580, Note_on_c, 14, 51, 44
16, 38639, Note_on_c, 14, 51, 0
16, 38640, Note_on_c, 14, 49, 44
16, 38699, Note_on_c, 14, 49, 0
16, 38700, Note_on_c, 14, 53, 44
16, 38759, Note_on_c, 14, 53, 0
16, 38760, Note_on_c, 14, 49, 44
16, 38819, Note_on_c, 14, 49, 0
16, 38820, Note_on_c, 14, 53, 44
16, 38879, Note_on_c, 14, 53, 0
16, 38880, Note_on_c, 14, 49, 44
16, 38939, Note_on_c, 14, 49, 0
16, 38940, Note_on_c, 14, 53, 44
16, 38999, Note_on_c, 14, 53, 0
16, 39000, Note_on_c, 14, 49, 44
16, 39059, Note_on_c, 14, 49, 0
16, 39060, Note_on_c, 14, 53, 44
16, 39119, Note_on_c, 14, 53, 0
16, 39120, Note_on_c, 14, 49, 44
16, 39179, Note_on_c, 14, 49, 0
16, 39180, Note_on_c, 14, 53, 44
16, 39239, Note_on_c, 14, 53, 0
16, 39240, Note_on_c, 14, 49, 44
16, 39299, Note_on_c, 14, 49, 0
16, 39300, Note_on_c, 14, 53, 44
16, 39359, Note_on_c, 14, 53, 0
16, 39360, Note_on_c, 14, 52, 44
16, 39419, Note_on_c, 14, 52, 0
16, 39420, Note_on_c, 14, 55, 44
16, 39479, Note_on_c, 14, 55, 0
16, 39480, Note_on_c, 14, 52, 44
16, 39539, Note_on_c, 14, 52, 0
16, 39540, Note_on_c, 14, 55, 44
16, 39599, Note_on_c, 14, 55, 0
16, 39600, Note_on_c, 14, 52, 44
16, 39659, Note_on_c, 14, 52, 0
16, 39660, Note_on_c, 14, 55, 44
16, 39719, Note_on_c, 14, 55, 0
16, 39720, Note_on_c, 14, 51, 44
16, 39779, Note_on_c, 14, 51, 0
16, 39780, Note_on_c, 14, 53, 44
16, 39839, Note_on_c, 14, 53, 0
16, 39840, Note_on_c, 14, 49, 44
16, 39899, Note_on_c, 14, 49, 0
16, 39900, Note_on_c, 14, 53, 44
16, 39959, Note_on_c, 14, 53, 0
16, 39960, Note_on_c, 14, 49, 44
16, 40019, Note_on_c, 14, 49, 0
16, 40020, Note_on_c, 14, 53, 44
16, 40079, Note_on_c, 14, 53, 0
16, 40080, Note_on_c, 14, 49, 44
16, 40139, Note_on_c, 14, 49, 0
16, 40140, Note_on_c, 14, 51, 44
16, 40199, Note_on_c, 14, 51, 0
16, 40200, Note_on_c, 14, 48, 44
16, 40259, Note_on_c, 14, 48, 0
16, 40260, Note_on_c, 14, 51, 44
16, 40319, Note_on_c, 14, 51, 0
16, 40320, Note_on_c, 14, 48, 44
16, 40379, Note_on_c, 14, 48, 0
16, 40380, Note_on_c, 14, 51, 44
16, 40439, Note_on_c, 14, 51, 0
16, 40440, Note_on_c, 14, 46, 44
16, 40440, Note_on_c, 14, 39, 44
16, 40499, Note_on_c, 14, 46, 0
16, 40499, Note_on_c, 14, 39, 0
16, 40500, Note_on_c, 14, 51, 44
16, 40559, Note_on_c, 14, 51, 0
16, 40560, Note_on_c, 14, 46, 44
16, 40560, Note_on_c, 14, 39, 44
16, 40619, Note_on_c, 14, 46, 0
16, 40619, Note_on_c, 14, 39, 0
16, 40620, Note_on_c, 14, 51, 44
16, 40679, Note_on_c, 14, 51, 0
16, 40680, Note_on_c, 14, 46, 44
16, 40680, Note_on_c, 14, 39, 44
16, 40739, Note_on_c, 14, 46, 0
16, 40739, Note_on_c, 14, 39, 0
16, 40740, Note_on_c, 14, 51, 44
16, 40799, Note_on_c, 14, 51, 0
16, 40800, Note_on_c, 14, 44, 44
16, 40919, Note_on_c, 14, 44, 0
16, 40935, Program_c, 14, 48
16, 40950, Note_on_c, 14, 51, 76
16, 40979, Note_on_c, 14, 51, 0
16, 40980, Note_on_c, 14, 53, 76
16, 41009, Note_on_c, 14, 53, 0
16, 41010, Note_on_c, 14, 55, 76
16, 41029, Note_on_c, 14, 55, 0
16, 41030, Note_on_c, 14, 58, 76
16, 41039, Note_on_c, 14, 58, 0
16, 41040, Note_on_c, 14, 56, 76
16, 41069, Note_on_c, 14, 56, 0
16, 41070, Note_on_c, 14, 55, 76
16, 41099, Note_on_c, 14, 55, 0
16, 41100, Note_on_c, 14, 56, 76
16, 41129, Note_on_c, 14, 56, 0
16, 41130, Note_on_c, 14, 58, 76
16, 41155, Note_on_c, 14, 58, 0
16, 41160, Note_on_c, 14, 60, 76
16, 41189, Note_on_c, 14, 60, 0
16, 41190, Note_on_c, 14, 58, 76
16, 41219, Note_on_c, 14, 58, 0
16, 41220, Note_on_c, 14, 56, 76
16, 41249, Note_on_c, 14, 56, 0
16, 41250, Note_on_c, 14, 55, 76
16, 41279, Note_on_c, 14, 55, 0
16, 41280, Note_on_c, 14, 56, 76
16, 41309, Note_on_c, 14, 56, 0
16, 41310, Note_on_c, 14, 58, 76
16, 41339, Note_on_c, 14, 58, 0
16, 41340, Note_on_c, 14, 56, 76
16, 41369, Note_on_c, 14, 56, 0
16, 41370, Note_on_c, 14, 55, 76
16, 41399, Note_on_c, 14, 55, 0
16, 41400, Note_on_c, 14, 56, 76
16, 41429, Note_on_c, 14, 56, 0
16, 41430, Note_on_c, 14, 58, 76
16, 41459, Note_on_c, 14, 58, 0
16, 41460, Note_on_c, 14, 60, 76
16, 41489, Note_on_c, 14, 60, 0
16, 41490, Note_on_c, 14, 56, 76
16, 41515, Note_on_c, 14, 56, 0
16, 41520, Note_on_c, 14, 53, 76
16, 41549, Note_on_c, 14, 53, 0
16, 41550, Note_on_c, 14, 55, 76
16, 41579, Note_on_c, 14, 55, 0
16, 41580, Note_on_c, 14, 53, 76
16, 41609, Note_on_c, 14, 53, 0
16, 41610, Note_on_c, 14, 52, 76
16, 41639, Note_on_c, 14, 52, 0
16, 41640, Note_on_c, 14, 53, 76
16, 41669, Note_on_c, 14, 53, 0
16, 41670, Note_on_c, 14, 57, 76
16, 41699, Note_on_c, 14, 57, 0
16, 41700, Note_on_c, 14, 58, 76
16, 41729, Note_on_c, 14, 58, 0
16, 41730, Note_on_c, 14, 57, 76
16, 41759, Note_on_c, 14, 57, 0
16, 41760, Note_on_c, 14, 58, 76
16, 41789, Note_on_c, 14, 58, 0
16, 41790, Note_on_c, 14, 60, 76
16, 41819, Note_on_c, 14, 60, 0
16, 41820, Note_on_c, 14, 61, 76
16, 41849, Note_on_c, 14, 61, 0
16, 41850, Note_on_c, 14, 60, 76
16, 41875, Note_on_c, 14, 60, 0
16, 41880, Note_on_c, 14, 61, 76
16, 41909, Note_on_c, 14, 61, 0
16, 41910, Note_on_c, 14, 60, 76
16, 41939, Note_on_c, 14, 60, 0
16, 41940, Note_on_c, 14, 61, 76
16, 41969, Note_on_c, 14, 61, 0
16, 41970, Note_on_c, 14, 60, 76
16, 41999, Note_on_c, 14, 60, 0
16, 42000, Note_on_c, 14, 58, 76
16, 42029, Note_on_c, 14, 58, 0
16, 42030, Note_on_c, 14, 61, 76
16, 42059, Note_on_c, 14, 61, 0
16, 42060, Note_on_c, 14, 56, 76
16, 42089, Note_on_c, 14, 56, 0
16, 42090, Note_on_c, 14, 58, 76
16, 42119, Note_on_c, 14, 58, 0
16, 42120, Note_on_c, 14, 55, 76
16, 42149, Note_on_c, 14, 55, 0
16, 42150, Note_on_c, 14, 56, 76
16, 42179, Note_on_c, 14, 56, 0
16, 42180, Note_on_c, 14, 53, 76
16, 42209, Note_on_c, 14, 53, 0
16, 42210, Note_on_c, 14, 55, 76
16, 42235, Note_on_c, 14, 55, 0
16, 42240, Note_on_c, 14, 52, 76
16, 42269, Note_on_c, 14, 52, 0
16, 42270, Note_on_c, 14, 53, 76
16, 42299, Note_on_c, 14, 53, 0
16, 42300, Note_on_c, 14, 55, 76
16, 42329, Note_on_c, 14, 55, 0
16, 42330, Note_on_c, 14, 52, 76
16, 42359, Note_on_c, 14, 52, 0
16, 42360, Note_on_c, 14, 48, 76
16, 42389, Note_on_c, 14, 48, 0
16, 42390, Note_on_c, 14, 52, 76
16, 42419, Note_on_c, 14, 52, 0
16, 42420, Note_on_c, 14, 55, 76
16, 42449, Note_on_c, 14, 55, 0
16, 42450, Note_on_c, 14, 59, 76
16, 42479, Note_on_c, 14, 59, 0
16, 42480, Note_on_c, 14, 60, 76
16, 42509, Note_on_c, 14, 60, 0
16, 42510, Note_on_c, 14, 55, 76
16, 42539, Note_on_c, 14, 55, 0
16, 42540, Note_on_c, 14, 60, 76
16, 42569, Note_on_c, 14, 60, 0
16, 42570, Note_on_c, 14, 58, 76
16, 42595, Note_on_c, 14, 58, 0
16, 42600, Note_on_c, 14, 57, 76
16, 42629, Note_on_c, 14, 57, 0
16, 42630, Note_on_c, 14, 55, 76
16, 42659, Note_on_c, 14, 55, 0
16, 42660, Note_on_c, 14, 57, 76
16, 42689, Note_on_c, 14, 57, 0
16, 42690, Note_on_c, 14, 53, 76
16, 42719, Note_on_c, 14, 53, 0
16, 42720, Note_on_c, 14, 58, 76
16, 42749, Note_on_c, 14, 58, 0
16, 42750, Note_on_c, 14, 60, 76
16, 42779, Note_on_c, 14, 60, 0
16, 42780, Note_on_c, 14, 58, 76
16, 42809, Note_on_c, 14, 58, 0
16, 42810, Note_on_c, 14, 57, 76
16, 42839, Note_on_c, 14, 57, 0
16, 42840, Note_on_c, 14, 58, 76
16, 42869, Note_on_c, 14, 58, 0
16, 42870, Note_on_c, 14, 60, 76
16, 42899, Note_on_c, 14, 60, 0
16, 42900, Note_on_c, 14, 61, 76
16, 42929, Note_on_c, 14, 61, 0
16, 42930, Note_on_c, 14, 58, 76
16, 42955, Note_on_c, 14, 58, 0
16, 42960, Note_on_c, 14, 55, 76
16, 42989, Note_on_c, 14, 55, 0
16, 42990, Note_on_c, 14, 53, 76
16, 43019, Note_on_c, 14, 53, 0
16, 43020, Note_on_c, 14, 55, 76
16, 43049, Note_on_c, 14, 55, 0
16, 43050, Note_on_c, 14, 51, 76
16, 43079, Note_on_c, 14, 51, 0
16, 43080, Note_on_c, 14, 56, 76
16, 43109, Note_on_c, 14, 56, 0
16, 43110, Note_on_c, 14, 46, 76
16, 43139, Note_on_c, 14, 46, 0
16, 43140, Note_on_c, 14, 44, 76
16, 43169, Note_on_c, 14, 44, 0
16, 43170, Note_on_c, 14, 43, 76
16, 43199, Note_on_c, 14, 43, 0
16, 43200, Note_on_c, 14, 44, 76
16, 43229, Note_on_c, 14, 44, 0
16, 43230, Note_on_c, 14, 46, 76
16, 43259, Note_on_c, 14, 46, 0
16, 43260, Note_on_c, 14, 48, 76
16, 43289, Note_on_c, 14, 48, 0
16, 43290, Note_on_c, 14, 50, 76
16, 43315, Note_on_c, 14, 50, 0
16, 43320, Note_on_c, 14, 51, 76
16, 43671, Note_on_c, 14, 51, 0
16, 43680, Note_on_c, 14, 51, 76
16, 43859, Note_on_c, 14, 51, 0
16, 43860, Note_on_c, 14, 53, 76
16, 43889, Note_on_c, 14, 53, 0
16, 43890, Note_on_c, 14, 55, 76
16, 43919, Note_on_c, 14, 55, 0
16, 43920, Note_on_c, 14, 56, 76
16, 43949, Note_on_c, 14, 56, 0
16, 43950, Note_on_c, 14, 58, 76
16, 43979, Note_on_c, 14, 58, 0
16, 43980, Note_on_c, 14, 60, 76
16, 44009, Note_on_c, 14, 60, 0
16, 44010, Note_on_c, 14, 62, 76
16, 44035, Note_on_c, 14, 62, 0
16, 44040, Note_on_c, 14, 63, 76
16, 44264, Note_on_c, 14, 63, 0
16, 44280, Note_on_c, 14, 51, 44
16, 44391, Note_on_c, 14, 51, 0
16, 44400, Note_on_c, 14, 51, 44
16, 44519, Note_on_c, 14, 51, 0
16, 44640, Note_on_c, 14, 51, 44
16, 44751, Note_on_c, 14, 51, 0
16, 44760, Note_on_c, 14, 51, 44
16, 44879, Note_on_c, 14, 51, 0
16, 45000, Note_on_c, 14, 51, 44
16, 45111, Note_on_c, 14, 51, 0
16, 45120, Note_on_c, 14, 51, 44
16, 45239, Note_on_c, 14, 51, 0
16, 45360, Note_on_c, 14, 51, 44
16, 45471, Note_on_c, 14, 51, 0
16, 45480, Note_on_c, 14, 51, 44
16, 45599, Note_on_c, 14, 51, 0
16, 45720, Note_on_c, 14, 51, 44
16, 45831, Note_on_c, 14, 51, 0
16, 45840, Note_on_c, 14, 51, 44
16, 45959, Note_on_c, 14, 51, 0
16, 46080, Note_on_c, 14, 51, 44
16, 46191, Note_on_c, 14, 51, 0
16, 46200, Note_on_c, 14, 51, 44
16, 46319, Note_on_c, 14, 51, 0
16, 46440, Note_on_c, 14, 51, 44
16, 46551, Note_on_c, 14, 51, 0
16, 46560, Note_on_c, 14, 51, 44
16, 46679, Note_on_c, 14, 51, 0
16, 46800, Note_on_c, 14, 51, 44
16, 46911, Note_on_c, 14, 51, 0
16, 46920, Note_on_c, 14, 51, 44
16, 47039, Note_on_c, 14, 51, 0
16, 47160, Note_on_c, 14, 51, 44
16, 47271, Note_on_c, 14, 51, 0
16, 47280, Note_on_c, 14, 51, 76
16, 47391, Note_on_c, 14, 51, 0
16, 51540, Note_on_c, 14, 52, 52
16, 51584, Note_on_c, 14, 52, 0
16, 51600, Note_on_c, 14, 53, 52
16, 51644, Note_on_c, 14, 53, 0
16, 51660, Note_on_c, 14, 55, 52
16, 51704, Note_on_c, 14, 55, 0
16, 51720, Note_on_c, 14, 56, 52
16, 51764, Note_on_c, 14, 56, 0
16, 52920, Note_on_c, 14, 48, 84
16, 53005, Note_on_c, 14, 48, 0
16, 53010, Note_on_c, 14, 48, 84
16, 53035, Note_on_c, 14, 48, 0
16, 53040, Note_on_c, 14, 48, 84
16, 53151, Note_on_c, 14, 48, 0
16, 53160, Note_on_c, 14, 48, 84
16, 53271, Note_on_c, 14, 48, 0
16, 53280, Note_on_c, 14, 43, 84
16, 53391, Note_on_c, 14, 43, 0
16, 53400, Note_on_c, 14, 48, 84
16, 53991, Note_on_c, 14, 48, 0
16, 54000, Note_on_c, 14, 48, 84
16, 54085, Note_on_c, 14, 48, 0
16, 54090, Note_on_c, 14, 43, 84
16, 54115, Note_on_c, 14, 43, 0
16, 54120, Note_on_c, 14, 48, 84
16, 54231, Note_on_c, 14, 48, 0
16, 54240, Note_on_c, 14, 48, 84
16, 54351, Note_on_c, 14, 48, 0
16, 54360, Note_on_c, 14, 48, 84
16, 54471, Note_on_c, 14, 48, 0
16, 54480, Note_on_c, 14, 48, 84
16, 55071, Note_on_c, 14, 48, 0
16, 55080, Note_on_c, 14, 48, 84
16, 55165, Note_on_c, 14, 48, 0
16, 55170, Note_on_c, 14, 48, 84
16, 55195, Note_on_c, 14, 48, 0
16, 55200, Note_on_c, 14, 48, 84
16, 55431, Note_on_c, 14, 48, 0
16, 55440, Note_on_c, 14, 48, 84
16, 55529, Note_on_c, 14, 48, 0
16, 55530, Note_on_c, 14, 48, 84
16, 55559, Note_on_c, 14, 48, 0
16, 55560, Note_on_c, 14, 48, 84
16, 55791, Note_on_c, 14, 48, 0
16, 55800, Note_on_c, 14, 48, 84
16, 55885, Note_on_c, 14, 48, 0
16, 55890, Note_on_c, 14, 48, 84
16, 55915, Note_on_c, 14, 48, 0
16, 55920, Control_c, 14, 11, 127
16, 55920, Note_on_c, 14, 48, 84
16, 55935, Control_c, 14, 11, 126
16, 55950, Control_c, 14, 11, 124
16, 55965, Control_c, 14, 11, 123
16, 55980, Control_c, 14, 11, 122
16, 55995, Control_c, 14, 11, 120
16, 56010, Control_c, 14, 11, 119
16, 56025, Control_c, 14, 11, 118
16, 56040, Control_c, 14, 11, 117
16, 56055, Control_c, 14, 11, 115
16, 56070, Control_c, 14, 11, 114
16, 56085, Control_c, 14, 11, 113
16, 56100, Control_c, 14, 11, 111
16, 56115, Control_c, 14, 11, 110
16, 56130, Control_c, 14, 11, 109
16, 56145, Control_c, 14, 11, 107
16, 56160, Control_c, 14, 11, 106
16, 56175, Control_c, 14, 11, 105
16, 56190, Control_c, 14, 11, 103
16, 56205, Control_c, 14, 11, 102
16, 56220, Control_c, 14, 11, 101
16, 56235, Control_c, 14, 11, 99
16, 56250, Control_c, 14, 11, 98
16, 56265, Control_c, 14, 11, 97
16, 56279, Note_on_c, 14, 48, 0
16, 56280, Control_c, 14, 11, 96
16, 56280, Note_on_c, 14, 48, 84
16, 56295, Control_c, 14, 11, 94
16, 56310, Control_c, 14, 11, 93
16, 56325, Control_c, 14, 11, 92
16, 56340, Control_c, 14, 11, 90
16, 56355, Control_c, 14, 11, 89
16, 56370, Control_c, 14, 11, 88
16, 56385, Control_c, 14, 11, 86
16, 56400, Control_c, 14, 11, 85
16, 56415, Control_c, 14, 11, 84
16, 56430, Control_c, 14, 11, 82
16, 56445, Control_c, 14, 11, 81
16, 56460, Control_c, 14, 11, 80
16, 56475, Control_c, 14, 11, 78
16, 56490, Control_c, 14, 11, 77
16, 56505, Control_c, 14, 11, 76
16, 56520, Control_c, 14, 11, 75
16, 56535, Control_c, 14, 11, 73
16, 56550, Control_c, 14, 11, 72
16, 56565, Control_c, 14, 11, 71
16, 56580, Control_c, 14, 11, 69
16, 56595, Control_c, 14, 11, 68
16, 56610, Control_c, 14, 11, 67
16, 56625, Control_c, 14, 11, 64
16, 56631, Note_on_c, 14, 48, 0
16, 56638, Program_c, 14, 45
16, 56640, Note_on_c, 14, 48, 76
16, 56759, Note_on_c, 14, 48, 0
16, 57000, Note_on_c, 14, 53, 76
16, 57119, Note_on_c, 14, 53, 0
16, 57360, Note_on_c, 14, 51, 76
16, 57479, Note_on_c, 14, 51, 0
16, 58320, Program_c, 14, 48
16, 58320, Control_c, 14, 11, 127
16, 58440, Note_on_c, 14, 46, 44
16, 58469, Note_on_c, 14, 46, 0
16, 58470, Note_on_c, 14, 43, 44
16, 58499, Note_on_c, 14, 43, 0
16, 58500, Note_on_c, 14, 39, 44
16, 58529, Note_on_c, 14, 39, 0
16, 58530, Note_on_c, 14, 43, 44
16, 58555, Note_on_c, 14, 43, 0
16, 58560, Note_on_c, 14, 46, 44
16, 58589, Note_on_c, 14, 46, 0
16, 58590, Note_on_c, 14, 43, 44
16, 58619, Note_on_c, 14, 43, 0
16, 58620, Note_on_c, 14, 39, 44
16, 58649, Note_on_c, 14, 39, 0
16, 58650, Note_on_c, 14, 43, 44
16, 58675, Note_on_c, 14, 43, 0
16, 58680, Note_on_c, 14, 46, 44
16, 58709, Note_on_c, 14, 46, 0
16, 58710, Note_on_c, 14, 43, 44
16, 58739, Note_on_c, 14, 43, 0
16, 58740, Note_on_c, 14, 39, 44
16, 58769, Note_on_c, 14, 39, 0
16, 58770, Note_on_c, 14, 43, 44
16, 58795, Note_on_c, 14, 43, 0
16, 58800, Note_on_c, 14, 46, 44
16, 58919, Note_on_c, 14, 46, 0
16, 59520, Program_c, 14, 45
16, 59760, Note_on_c, 14, 44, 48
16, 59879, Note_on_c, 14, 44, 0
16, 59880, Note_on_c, 14, 44, 48
16, 59999, Note_on_c, 14, 44, 0
16, 60000, Note_on_c, 14, 44, 48
16, 60119, Note_on_c, 14, 44, 0
16, 60120, Note_on_c, 14, 44, 48
16, 60239, Note_on_c, 14, 44, 0
16, 60240, Note_on_c, 14, 51, 48
16, 60359, Note_on_c, 14, 51, 0
16, 60360, Note_on_c, 14, 51, 48
16, 60479, Note_on_c, 14, 51, 0
16, 60480, Note_on_c, 14, 51, 48
16, 60599, Note_on_c, 14, 51, 0
16, 60600, Note_on_c, 14, 56, 48
16, 60719, Note_on_c, 14, 56, 0
16, 60720, Note_on_c, 14, 56, 48
16, 60839, Note_on_c, 14, 56, 0
16, 60840, Note_on_c, 14, 56, 48
16, 60959, Note_on_c, 14, 56, 0
16, 60960, Note_on_c, 14, 54, 48
16, 61079, Note_on_c, 14, 54, 0
16, 61080, Note_on_c, 14, 54, 48
16, 61199, Note_on_c, 14, 54, 0
16, 61200, Note_on_c, 14, 54, 48
16, 61319, Note_on_c, 14, 54, 0
16, 61320, Note_on_c, 14, 59, 48
16, 61439, Note_on_c, 14, 59, 0
16, 61440, Note_on_c, 14, 59, 48
16, 61559, Note_on_c, 14, 59, 0
16, 61560, Note_on_c, 14, 59, 48
16, 61679, Note_on_c, 14, 59, 0
16, 61680, Note_on_c, 14, 54, 48
16, 61799, Note_on_c, 14, 54, 0
16, 61800, Note_on_c, 14, 54, 48
16, 61919, Note_on_c, 14, 54, 0
16, 61920, Note_on_c, 14, 54, 48
16, 62039, Note_on_c, 14, 54, 0
16, 62040, Note_on_c, 14, 56, 48
16, 62159, Note_on_c, 14, 56, 0
16, 62160, Note_on_c, 14, 56, 48
16, 62279, Note_on_c, 14, 56, 0
16, 62280, Note_on_c, 14, 56, 48
16, 62399, Note_on_c, 14, 56, 0
16, 62400, Note_on_c, 14, 51, 48
16, 62519, Note_on_c, 14, 51, 0
16, 62520, Note_on_c, 14, 51, 51
16, 62579, Note_on_c, 14, 51, 0
16, 62580, Note_on_c, 14, 44, 53
16, 62639, Note_on_c, 14, 44, 0
16, 62640, Note_on_c, 14, 56, 54
16, 62699, Note_on_c, 14, 56, 0
16, 62700, Note_on_c, 14, 56, 56
16, 62759, Note_on_c, 14, 56, 0
16, 62760, Note_on_c, 14, 51, 58
16, 62879, Note_on_c, 14, 51, 0
16, 62880, Note_on_c, 14, 51, 61
16, 62939, Note_on_c, 14, 51, 0
16, 62940, Note_on_c, 14, 51, 63
16, 62999, Note_on_c, 14, 51, 0
16, 63000, Note_on_c, 14, 56, 64
16, 63059, Note_on_c, 14, 56, 0
16, 63060, Note_on_c, 14, 44, 66
16, 63119, Note_on_c, 14, 44, 0
16, 63120, Note_on_c, 14, 51, 68
16, 63164, Note_on_c, 14, 51, 0
16, 63180, Note_on_c, 14, 51, 68
16, 63224, Note_on_c, 14, 51, 0
16, 64560, Program_c, 14, 48
16, 64800, Note_on_c, 14, 57, 44
16, 64859, Note_on_c, 14, 57, 0
16, 64860, Note_on_c, 14, 58, 44
16, 64919, Note_on_c, 14, 58, 0
16, 64920, Note_on_c, 14, 60, 44
16, 64979, Note_on_c, 14, 60, 0
16, 64980, Note_on_c, 14, 61, 45
16, 65039, Note_on_c, 14, 61, 0
16, 65040, Note_on_c, 14, 63, 47
16, 65099, Note_on_c, 14, 63, 0
16, 65100, Note_on_c, 14, 65, 49
16, 65159, Note_on_c, 14, 65, 0
16, 65160, Note_on_c, 14, 63, 50
16, 65219, Note_on_c, 14, 63, 0
16, 65220, Note_on_c, 14, 61, 52
16, 65279, Note_on_c, 14, 61, 0
16, 65280, Note_on_c, 14, 60, 54
16, 65339, Note_on_c, 14, 60, 0
16, 65340, Note_on_c, 14, 58, 55
16, 65399, Note_on_c, 14, 58, 0
16, 65400, Note_on_c, 14, 56, 57
16, 65459, Note_on_c, 14, 56, 0
16, 65460, Note_on_c, 14, 55, 59
16, 65519, Note_on_c, 14, 55, 0
16, 65520, Note_on_c, 14, 53, 60
16, 65579, Note_on_c, 14, 53, 0
16, 65580, Note_on_c, 14, 51, 62
16, 65639, Note_on_c, 14, 51, 0
16, 65640, Note_on_c, 14, 49, 64
16, 65699, Note_on_c, 14, 49, 0
16, 65700, Note_on_c, 14, 48, 65
16, 65759, Note_on_c, 14, 48, 0
16, 65760, Note_on_c, 14, 46, 67
16, 65819, Note_on_c, 14, 46, 0
16, 65820, Note_on_c, 14, 44, 69
16, 65879, Note_on_c, 14, 44, 0
16, 65880, Note_on_c, 14, 43, 70
16, 65939, Note_on_c, 14, 43, 0
16, 65940, Note_on_c, 14, 41, 72
16, 65999, Note_on_c, 14, 41, 0
16, 66000, Note_on_c, 14, 39, 74
16, 66059, Note_on_c, 14, 39, 0
16, 66060, Note_on_c, 14, 49, 75
16, 66119, Note_on_c, 14, 49, 0
16, 66120, Note_on_c, 14, 48, 77
16, 66179, Note_on_c, 14, 48, 0
16, 66180, Note_on_c, 14, 46, 79
16, 66239, Note_on_c, 14, 46, 0
16, 66240, Note_on_c, 14, 44, 80
16, 66299, Note_on_c, 14, 44, 0
16, 66300, Note_on_c, 14, 43, 82
16, 66355, Note_on_c, 14, 43, 0
16, 66360, Note_on_c, 14, 44, 84
16, 66385, Note_on_c, 14, 44, 0
16, 66390, Note_on_c, 14, 44, 84
16, 66415, Note_on_c, 14, 44, 0
16, 66420, Note_on_c, 14, 44, 84
16, 66445, Note_on_c, 14, 44, 0
16, 66450, Note_on_c, 14, 44, 84
16, 66475, Note_on_c, 14, 44, 0
16, 66480, Note_on_c, 14, 44, 84
16, 66505, Note_on_c, 14, 44, 0
16, 66510, Note_on_c, 14, 44, 84
16, 66535, Note_on_c, 14, 44, 0
16, 66540, Note_on_c, 14, 44, 84
16, 66565, Note_on_c, 14, 44, 0
16, 66570, Note_on_c, 14, 44, 84
16, 66595, Note_on_c, 14, 44, 0
16, 66600, Note_on_c, 14, 44, 84
16, 66625, Note_on_c, 14, 44, 0
16, 66630, Note_on_c, 14, 44, 84
16, 66655, Note_on_c, 14, 44, 0
16, 66660, Note_on_c, 14, 44, 84
16, 66685, Note_on_c, 14, 44, 0
16, 66690, Note_on_c, 14, 44, 84
16, 66715, Note_on_c, 14, 44, 0
16, 66720, Note_on_c, 14, 49, 84
16, 66745, Note_on_c, 14, 49, 0
16, 66750, Note_on_c, 14, 49, 84
16, 66775, Note_on_c, 14, 49, 0
16, 66780, Note_on_c, 14, 49, 84
16, 66805, Note_on_c, 14, 49, 0
16, 66810, Note_on_c, 14, 49, 84
16, 66835, Note_on_c, 14, 49, 0
16, 66840, Note_on_c, 14, 49, 84
16, 66865, Note_on_c, 14, 49, 0
16, 66870, Note_on_c, 14, 49, 84
16, 66895, Note_on_c, 14, 49, 0
16, 66900, Note_on_c, 14, 49, 84
16, 66925, Note_on_c, 14, 49, 0
16, 66930, Note_on_c, 14, 49, 84
16, 66955, Note_on_c, 14, 49, 0
16, 66960, Note_on_c, 14, 49, 84
16, 66985, Note_on_c, 14, 49, 0
16, 66990, Note_on_c, 14, 49, 84
16, 67015, Note_on_c, 14, 49, 0
16, 67020, Note_on_c, 14, 49, 84
16, 67045, Note_on_c, 14, 49, 0
16, 67050, Note_on_c, 14, 49, 84
16, 67075, Note_on_c, 14, 49, 0
16, 67080, Note_on_c, 14, 46, 84
16, 67105, Note_on_c, 14, 46, 0
16, 67110, Note_on_c, 14, 46, 84
16, 67135, Note_on_c, 14, 46, 0
16, 67140, Note_on_c, 14, 46, 84
16, 67165, Note_on_c, 14, 46, 0
16, 67170, Note_on_c, 14, 46, 84
16, 67195, Note_on_c, 14, 46, 0
16, 67200, Note_on_c, 14, 43, 84
16, 67225, Note_on_c, 14, 43, 0
16, 67230, Note_on_c, 14, 43, 84
16, 67255, Note_on_c, 14, 43, 0
16, 67260, Note_on_c, 14, 43, 84
16, 67285, Note_on_c, 14, 43, 0
16, 67290, Note_on_c, 14, 43, 84
16, 67315, Note_on_c, 14, 43, 0
16, 67320, Note_on_c, 14, 46, 84
16, 67345, Note_on_c, 14, 46, 0
16, 67350, Note_on_c, 14, 46, 84
16, 67375, Note_on_c, 14, 46, 0
16, 67380, Note_on_c, 14, 46, 84
16, 67405, Note_on_c, 14, 46, 0
16, 67410, Note_on_c, 14, 46, 84
16, 67435, Note_on_c, 14, 46, 0
16, 67440, Note_on_c, 14, 48, 84
16, 67465, Note_on_c, 14, 48, 0
16, 67470, Note_on_c, 14, 48, 84
16, 67495, Note_on_c, 14, 48, 0
16, 67500, Note_on_c, 14, 48, 84
16, 67525, Note_on_c, 14, 48, 0
16, 67530, Note_on_c, 14, 48, 84
16, 67555, Note_on_c, 14, 48, 0
16, 67560, Note_on_c, 14, 48, 84
16, 67585, Note_on_c, 14, 48, 0
16, 67590, Note_on_c, 14, 48, 84
16, 67615, Note_on_c, 14, 48, 0
16, 67620, Note_on_c, 14, 48, 84
16, 67645, Note_on_c, 14, 48, 0
16, 67650, Note_on_c, 14, 48, 84
16, 67675, Note_on_c, 14, 48, 0
16, 67680, Note_on_c, 14, 48, 84
16, 67705, Note_on_c, 14, 48, 0
16, 67710, Note_on_c, 14, 48, 84
16, 67735, Note_on_c, 14, 48, 0
16, 67740, Note_on_c, 14, 48, 84
16, 67765, Note_on_c, 14, 48, 0
16, 67770, Note_on_c, 14, 48, 84
16, 67795, Note_on_c, 14, 48, 0
16, 67800, Note_on_c, 14, 51, 84
16, 67825, Note_on_c, 14, 51, 0
16, 67830, Note_on_c, 14, 51, 84
16, 67855, Note_on_c, 14, 51, 0
16, 67860, Note_on_c, 14, 51, 84
16, 67885, Note_on_c, 14, 51, 0
16, 67890, Note_on_c, 14, 51, 84
16, 67915, Note_on_c, 14, 51, 0
16, 67920, Note_on_c, 14, 49, 84
16, 67945, Note_on_c, 14, 49, 0
16, 67950, Note_on_c, 14, 49, 84
16, 67975, Note_on_c, 14, 49, 0
16, 67980, Note_on_c, 14, 49, 84
16, 68005, Note_on_c, 14, 49, 0
16, 68010, Note_on_c, 14, 49, 84
16, 68035, Note_on_c, 14, 49, 0
16, 68040, Note_on_c, 14, 46, 84
16, 68065, Note_on_c, 14, 46, 0
16, 68070, Note_on_c, 14, 46, 84
16, 68095, Note_on_c, 14, 46, 0
16, 68100, Note_on_c, 14, 46, 84
16, 68125, Note_on_c, 14, 46, 0
16, 68130, Note_on_c, 14, 46, 84
16, 68155, Note_on_c, 14, 46, 0
16, 68160, Note_on_c, 14, 49, 84
16, 68185, Note_on_c, 14, 49, 0
16, 68190, Note_on_c, 14, 49, 84
16, 68215, Note_on_c, 14, 49, 0
16, 68220, Note_on_c, 14, 49, 84
16, 68245, Note_on_c, 14, 49, 0
16, 68250, Note_on_c, 14, 49, 84
16, 68275, Note_on_c, 14, 49, 0
16, 68280, Note_on_c, 14, 48, 84
16, 68305, Note_on_c, 14, 48, 0
16, 68310, Note_on_c, 14, 48, 84
16, 68335, Note_on_c, 14, 48, 0
16, 68340, Note_on_c, 14, 48, 84
16, 68365, Note_on_c, 14, 48, 0
16, 68370, Note_on_c, 14, 48, 84
16, 68395, Note_on_c, 14, 48, 0
16, 68400, Note_on_c, 14, 44, 84
16, 68425, Note_on_c, 14, 44, 0
16, 68430, Note_on_c, 14, 44, 84
16, 68455, Note_on_c, 14, 44, 0
16, 68460, Note_on_c, 14, 44, 84
16, 68485, Note_on_c, 14, 44, 0
16, 68490, Note_on_c, 14, 44, 84
16, 68515, Note_on_c, 14, 44, 0
16, 68520, Note_on_c, 14, 39, 84
16, 68545, Note_on_c, 14, 39, 0
16, 68550, Note_on_c, 14, 38, 84
16, 68575, Note_on_c, 14, 38, 0
16, 68580, Note_on_c, 14, 39, 84
16, 68605, Note_on_c, 14, 39, 0
16, 68610, Note_on_c, 14, 41, 84
16, 68635, Note_on_c, 14, 41, 0
16, 68640, Note_on_c, 14, 43, 84
16, 68665, Note_on_c, 14, 43, 0
16, 68670, Note_on_c, 14, 44, 84
16, 68695, Note_on_c, 14, 44, 0
16, 68700, Note_on_c, 14, 46, 84
16, 68725, Note_on_c, 14, 46, 0
16, 68730, Note_on_c, 14, 48, 84
16, 68755, Note_on_c, 14, 48, 0
16, 68760, Note_on_c, 14, 49, 84
16, 68785, Note_on_c, 14, 49, 0
16, 68790, Note_on_c, 14, 51, 84
16, 68815, Note_on_c, 14, 51, 0
16, 68820, Note_on_c, 14, 53, 84
16, 68845, Note_on_c, 14, 53, 0
16, 68850, Note_on_c, 14, 55, 84
16, 68875, Note_on_c, 14, 55, 0
16, 68880, Note_on_c, 14, 56, 84
16, 68999, Note_on_c, 14, 56, 0
16, 69120, Note_on_c, 14, 56, 84
16, 69205, Note_on_c, 14, 56, 0
16, 69210, Note_on_c, 14, 60, 84
16, 69235, Note_on_c, 14, 60, 0
16, 69240, Note_on_c, 14, 63, 92
16, 69299, Note_on_c, 14, 63, 0
16, 69300, Note_on_c, 14, 63, 84
16, 69595, Note_on_c, 14, 63, 0
16, 69600, Note_on_c, 14, 60, 84
16, 69625, Note_on_c, 14, 60, 0
16, 69630, Note_on_c, 14, 44, 84
16, 69655, Note_on_c, 14, 44, 0
16, 69660, Note_on_c, 14, 46, 84
16, 69685, Note_on_c, 14, 46, 0
16, 69690, Note_on_c, 14, 48, 84
16, 69715, Note_on_c, 14, 48, 0
16, 69720, Note_on_c, 14, 49, 84
16, 69745, Note_on_c, 14, 49, 0
16, 69750, Note_on_c, 14, 51, 84
16, 69775, Note_on_c, 14, 51, 0
16, 69780, Note_on_c, 14, 53, 84
16, 69805, Note_on_c, 14, 53, 0
16, 69810, Note_on_c, 14, 55, 84
16, 69835, Note_on_c, 14, 55, 0
16, 69840, Note_on_c, 14, 56, 84
16, 69865, Note_on_c, 14, 56, 0
16, 69870, Note_on_c, 14, 58, 84
16, 69895, Note_on_c, 14, 58, 0
16, 69900, Note_on_c, 14, 60, 84
16, 69925, Note_on_c, 14, 60, 0
16, 69930, Note_on_c, 14, 61, 84
16, 69955, Note_on_c, 14, 61, 0
16, 69960, Note_on_c, 14, 63, 84
16, 70079, Note_on_c, 14, 63, 0
16, 71760, Note_on_c, 14, 53, 52
16, 72111, Note_on_c, 14, 53, 0
16, 72120, Note_on_c, 14, 48, 52
16, 72471, Note_on_c, 14, 48, 0
16, 72480, Note_on_c, 14, 51, 52
16, 72591, Note_on_c, 14, 51, 0
16, 72600, Note_on_c, 14, 51, 52
16, 72711, Note_on_c, 14, 51, 0
16, 72720, Note_on_c, 14, 51, 52
16, 72831, Note_on_c, 14, 51, 0
16, 72840, Note_on_c, 14, 44, 52
16, 72959, Note_on_c, 14, 44, 0
16, 73080, Note_on_c, 14, 51, 52
16, 73199, Note_on_c, 14, 51, 0
16, 73200, Note_on_c, 14, 44, 52
16, 73319, Note_on_c, 14, 44, 0
16, 73440, Note_on_c, 14, 39, 52
16, 73559, Note_on_c, 14, 39, 0
16, 73560, Note_on_c, 14, 44, 52
16, 73619, Note_on_c, 14, 44, 0
16, 73680, Note_on_c, 14, 44, 44
16, 73739, Note_on_c, 14, 44, 0
16, 73800, Note_on_c, 14, 44, 44
16, 73859, Note_on_c, 14, 44, 0
16, 73920, Note_on_c, 14, 44, 44
16, 73979, Note_on_c, 14, 44, 0
16, 74040, Note_on_c, 14, 44, 44
16, 74099, Note_on_c, 14, 44, 0
16, 74160, Note_on_c, 14, 44, 44
16, 74219, Note_on_c, 14, 44, 0
16, 74280, Note_on_c, 14, 44, 44
16, 74339, Note_on_c, 14, 44, 0
16, 74400, Note_on_c, 14, 44, 44
16, 74459, Note_on_c, 14, 44, 0
16, 74520, Note_on_c, 14, 44, 44
16, 74579, Note_on_c, 14, 44, 0
16, 74640, Note_on_c, 14, 44, 44
16, 74699, Note_on_c, 14, 44, 0
16, 74760, Note_on_c, 14, 44, 44
16, 74819, Note_on_c, 14, 44, 0
16, 74880, Note_on_c, 14, 44, 44
16, 74939, Note_on_c, 14, 44, 0
16, 75000, Note_on_c, 14, 44, 44
16, 75059, Note_on_c, 14, 44, 0
16, 75120, Note_on_c, 14, 44, 44
16, 75179, Note_on_c, 14, 44, 0
16, 75240, Note_on_c, 14, 51, 44
16, 75284, Note_on_c, 14, 51, 0
16, 75300, Note_on_c, 14, 53, 44
16, 75344, Note_on_c, 14, 53, 0
16, 75360, Note_on_c, 14, 54, 44
16, 75404, Note_on_c, 14, 54, 0
16, 75420, Note_on_c, 14, 53, 44
16, 75464, Note_on_c, 14, 53, 0
16, 75480, Note_on_c, 14, 51, 44
16, 75524, Note_on_c, 14, 51, 0
16, 75540, Note_on_c, 14, 53, 44
16, 75584, Note_on_c, 14, 53, 0
16, 75600, Note_on_c, 14, 54, 44
16, 75644, Note_on_c, 14, 54, 0
16, 75660, Note_on_c, 14, 51, 44
16, 75704, Note_on_c, 14, 51, 0
16, 75720, Note_on_c, 14, 53, 44
16, 75764, Note_on_c, 14, 53, 0
16, 75780, Note_on_c, 14, 51, 44
16, 75824, Note_on_c, 14, 51, 0
16, 75840, Note_on_c, 14, 49, 44
16, 75884, Note_on_c, 14, 49, 0
16, 75900, Note_on_c, 14, 51, 44
16, 75944, Note_on_c, 14, 51, 0
16, 75960, Note_on_c, 14, 53, 44
16, 76004, Note_on_c, 14, 53, 0
16, 76020, Note_on_c, 14, 49, 44
16, 76064, Note_on_c, 14, 49, 0
16, 76080, Note_on_c, 14, 52, 44
16, 76124, Note_on_c, 14, 52, 0
16, 76140, Note_on_c, 14, 51, 44
16, 76184, Note_on_c, 14, 51, 0
16, 76200, Note_on_c, 14, 49, 44
16, 76244, Note_on_c, 14, 49, 0
16, 76260, Note_on_c, 14, 51, 44
16, 76304, Note_on_c, 14, 51, 0
16, 76320, Note_on_c, 14, 52, 44
16, 76364, Note_on_c, 14, 52, 0
16, 76380, Note_on_c, 14, 49, 44
16, 76424, Note_on_c, 14, 49, 0
16, 76440, Note_on_c, 14, 51, 44
16, 76559, Note_on_c, 14, 51, 0
16, 76560, Control_c, 14, 11, 80
16, 76573, Control_c, 14, 11, 81
16, 76587, Control_c, 14, 11, 83
16, 76600, Control_c, 14, 11, 84
16, 76613, Control_c, 14, 11, 85
16, 76627, Control_c, 14, 11, 87
16, 76640, Control_c, 14, 11, 88
16, 76650, Note_on_c, 14, 44, 76
16, 76653, Control_c, 14, 11, 89
16, 76667, Control_c, 14, 11, 90
16, 76679, Note_on_c, 14, 44, 0
16, 76680, Control_c, 14, 11, 92
16, 76680, Note_on_c, 14, 48, 76
16, 76693, Control_c, 14, 11, 93
16, 76707, Control_c, 14, 11, 94
16, 76720, Control_c, 14, 11, 96
16, 76733, Control_c, 14, 11, 97
16, 76747, Control_c, 14, 11, 98
16, 76760, Control_c, 14, 11, 100
16, 76769, Note_on_c, 14, 48, 0
16, 76770, Note_on_c, 14, 51, 76
16, 76773, Control_c, 14, 11, 101
16, 76787, Control_c, 14, 11, 102
16, 76799, Note_on_c, 14, 51, 0
16, 76800, Note_on_c, 14, 56, 76
16, 76800, Control_c, 14, 11, 104
16, 76813, Control_c, 14, 11, 105
16, 76827, Control_c, 14, 11, 106
16, 76840, Control_c, 14, 11, 107
16, 76853, Control_c, 14, 11, 109
16, 76867, Control_c, 14, 11, 110
16, 76880, Control_c, 14, 11, 111
16, 76893, Control_c, 14, 11, 113
16, 76907, Control_c, 14, 11, 114
16, 76919, Note_on_c, 14, 56, 0
16, 76920, Control_c, 14, 11, 115
16, 76920, Note_on_c, 14, 60, 76
16, 76933, Control_c, 14, 11, 117
16, 76947, Control_c, 14, 11, 118
16, 76960, Control_c, 14, 11, 119
16, 76973, Control_c, 14, 11, 120
16, 76987, Control_c, 14, 11, 122
16, 77000, Control_c, 14, 11, 123
16, 77013, Control_c, 14, 11, 124
16, 77027, Control_c, 14, 11, 127
16, 77039, Note_on_c, 14, 60, 0
16, 77040, Note_on_c, 14, 63, 76
16, 77159, Note_on_c, 14, 63, 0
16, 77160, Note_on_c, 14, 60, 76
16, 77279, Note_on_c, 14, 60, 0
16, 77280, Control_c, 14, 11, 80
16, 77293, Control_c, 14, 11, 81
16, 77307, Control_c, 14, 11, 83
16, 77320, Control_c, 14, 11, 84
16, 77333, Control_c, 14, 11, 85
16, 77347, Control_c, 14, 11, 87
16, 77360, Control_c, 14, 11, 88
16, 77370, Note_on_c, 14, 44, 76
16, 77373, Control_c, 14, 11, 89
16, 77387, Control_c, 14, 11, 90
16, 77399, Note_on_c, 14, 44, 0
16, 77400, Note_on_c, 14, 48, 76
16, 77400, Control_c, 14, 11, 92
16, 77413, Control_c, 14, 11, 93
16, 77427, Control_c, 14, 11, 94
16, 77440, Control_c, 14, 11, 96
16, 77453, Control_c, 14, 11, 97
16, 77467, Control_c, 14, 11, 98
16, 77480, Control_c, 14, 11, 100
16, 77489, Note_on_c, 14, 48, 0
16, 77490, Note_on_c, 14, 51, 76
16, 77493, Control_c, 14, 11, 101
16, 77507, Control_c, 14, 11, 102
16, 77515, Note_on_c, 14, 51, 0
16, 77520, Control_c, 14, 11, 104
16, 77520, Note_on_c, 14, 56, 76
16, 77533, Control_c, 14, 11, 105
16, 77547, Control_c, 14, 11, 106
16, 77559, Note_on_c, 14, 56, 0
16, 77560, Note_on_c, 14, 60, 76
16, 77560, Control_c, 14, 11, 107
16, 77573, Control_c, 14, 11, 109
16, 77587, Control_c, 14, 11, 110
16, 77599, Note_on_c, 14, 60, 0
16, 77600, Control_c, 14, 11, 111
16, 77600, Note_on_c, 14, 63, 76
16, 77613, Control_c, 14, 11, 113
16, 77627, Control_c, 14, 11, 114
16, 77635, Note_on_c, 14, 63, 0
16, 77640, Control_c, 14, 11, 115
16, 77640, Note_on_c, 14, 56, 76
16, 77653, Control_c, 14, 11, 117
16, 77667, Control_c, 14, 11, 118
16, 77680, Control_c, 14, 11, 119
16, 77693, Control_c, 14, 11, 120
16, 77707, Control_c, 14, 11, 122
16, 77720, Control_c, 14, 11, 123
16, 77733, Control_c, 14, 11, 124
16, 77747, Control_c, 14, 11, 127
16, 77759, Note_on_c, 14, 56, 0
16, 77760, Note_on_c, 14, 51, 76
16, 77879, Note_on_c, 14, 51, 0
16, 77880, Note_on_c, 14, 56, 76
16, 77999, Note_on_c, 14, 56, 0
16, 78040, Note_on_c, 14, 44, 57
16, 78079, Note_on_c, 14, 44, 0
16, 78080, Note_on_c, 14, 48, 62
16, 78119, Note_on_c, 14, 48, 0
16, 78120, Note_on_c, 14, 51, 68
16, 78159, Note_on_c, 14, 51, 0
16, 78160, Note_on_c, 14, 56, 73
16, 78199, Note_on_c, 14, 56, 0
16, 78200, Note_on_c, 14, 60, 78
16, 78235, Note_on_c, 14, 60, 0
16, 78240, Note_on_c, 14, 51, 84
16, 78279, Note_on_c, 14, 51, 0
16, 78280, Note_on_c, 14, 56, 84
16, 78319, Note_on_c, 14, 56, 0
16, 78320, Note_on_c, 14, 60, 84
16, 78355, Note_on_c, 14, 60, 0
16, 78360, Note_on_c, 14, 63, 84
16, 78479, Note_on_c, 14, 63, 0
16, 80280, Control_c, 14, 11, 80
16, 80400, Note_on_c, 14, 53, 76
16, 80400, Control_c, 14, 11, 80
16, 80415, Control_c, 14, 11, 82
16, 80430, Control_c, 14, 11, 84
16, 80445, Control_c, 14, 11, 86
16, 80460, Control_c, 14, 11, 88
16, 80475, Control_c, 14, 11, 90
16, 80490, Control_c, 14, 11, 92
16, 80505, Control_c, 14, 11, 94
16, 80520, Control_c, 14, 11, 96
16, 80535, Control_c, 14, 11, 98
16, 80550, Control_c, 14, 11, 100
16, 80565, Control_c, 14, 11, 102
16, 80580, Control_c, 14, 11, 104
16, 80595, Control_c, 14, 11, 105
16, 80610, Control_c, 14, 11, 107
16, 80625, Control_c, 14, 11, 109
16, 80640, Control_c, 14, 11, 111
16, 80655, Control_c, 14, 11, 113
16, 80670, Control_c, 14, 11, 115
16, 80685, Control_c, 14, 11, 117
16, 80700, Control_c, 14, 11, 119
16, 80715, Control_c, 14, 11, 121
16, 80730, Control_c, 14, 11, 123
16, 80745, Control_c, 14, 11, 127
16, 80751, Note_on_c, 14, 53, 0
16, 80760, Note_on_c, 14, 49, 76
16, 80879, Note_on_c, 14, 49, 0
16, 80880, Note_on_c, 14, 56, 84
16, 80939, Note_on_c, 14, 56, 0
16, 80940, Note_on_c, 14, 56, 76
16, 81051, Note_on_c, 14, 56, 0
16, 81060, Note_on_c, 14, 56, 76
16, 81115, Note_on_c, 14, 56, 0
16, 81120, Note_on_c, 14, 58, 76
16, 81239, Note_on_c, 14, 58, 0
16, 81240, Note_on_c, 14, 60, 84
16, 81299, Note_on_c, 14, 60, 0
16, 81300, Control_c, 14, 11, 127
16, 81300, Note_on_c, 14, 60, 76
16, 81310, Control_c, 14, 11, 124
16, 81320, Control_c, 14, 11, 122
16, 81330, Control_c, 14, 11, 119
16, 81340, Control_c, 14, 11, 117
16, 81350, Control_c, 14, 11, 114
16, 81360, Control_c, 14, 11, 111
16, 81370, Control_c, 14, 11, 109
16, 81380, Control_c, 14, 11, 106
16, 81390, Control_c, 14, 11, 104
16, 81400, Control_c, 14, 11, 101
16, 81410, Control_c, 14, 11, 98
16, 81411, Note_on_c, 14, 60, 0
16, 81420, Control_c, 14, 11, 96
16, 81420, Note_on_c, 14, 48, 76
16, 81430, Control_c, 14, 11, 93
16, 81440, Control_c, 14, 11, 90
16, 81450, Control_c, 14, 11, 88
16, 81460, Control_c, 14, 11, 85
16, 81470, Control_c, 14, 11, 80
16, 81475, Note_on_c, 14, 48, 0
16, 81480, Note_on_c, 14, 49, 76
16, 81599, Note_on_c, 14, 49, 0
16, 81720, Control_c, 14, 11, 127
16, 81840, Note_on_c, 14, 51, 44
16, 81959, Note_on_c, 14, 51, 0
16, 82200, Note_on_c, 14, 44, 44
16, 82559, Note_on_c, 14, 44, 0
16, 82560, Note_on_c, 14, 44, 44
16, 82791, Note_on_c, 14, 44, 0
16, 82800, Note_on_c, 14, 44, 44
16, 82885, Note_on_c, 14, 44, 0
16, 82890, Note_on_c, 14, 44, 44
16, 82915, Note_on_c, 14, 44, 0
16, 82920, Note_on_c, 14, 44, 44
16, 83279, Note_on_c, 14, 44, 0
16, 83280, Note_on_c, 14, 44, 44
16, 83511, Note_on_c, 14, 44, 0
16, 83520, Note_on_c, 14, 44, 44
16, 83605, Note_on_c, 14, 44, 0
16, 83610, Note_on_c, 14, 44, 44
16, 83635, Note_on_c, 14, 44, 0
16, 83640, Note_on_c, 14, 44, 44
16, 83999, Note_on_c, 14, 44, 0
16, 84000, Note_on_c, 14, 44, 44
16, 84359, Note_on_c, 14, 44, 0
16, 84360, Note_on_c, 14, 44, 44
16, 84591, Note_on_c, 14, 44, 0
16, 84598, Control_c, 14, 11, 64
16, 84600, Note_on_c, 14, 36, 76
16, 84600, Control_c, 14, 11, 64
16, 84619, Control_c, 14, 11, 65
16, 84638, Control_c, 14, 11, 66
16, 84657, Control_c, 14, 11, 67
16, 84676, Control_c, 14, 11, 68
16, 84689, Note_on_c, 14, 36, 0
16, 84690, Note_on_c, 14, 39, 76
16, 84695, Control_c, 14, 11, 69
16, 84714, Control_c, 14, 11, 70
16, 84719, Note_on_c, 14, 39, 0
16, 84720, Note_on_c, 14, 44, 76
16, 84733, Control_c, 14, 11, 71
16, 84752, Control_c, 14, 11, 72
16, 84771, Control_c, 14, 11, 73
16, 84790, Control_c, 14, 11, 74
16, 84810, Control_c, 14, 11, 75
16, 84829, Control_c, 14, 11, 76
16, 84848, Control_c, 14, 11, 77
16, 84867, Control_c, 14, 11, 78
16, 84886, Control_c, 14, 11, 79
16, 84905, Control_c, 14, 11, 80
16, 84924, Control_c, 14, 11, 81
16, 84943, Control_c, 14, 11, 82
16, 84951, Note_on_c, 14, 44, 0
16, 84960, Note_on_c, 14, 36, 76
16, 84962, Control_c, 14, 11, 83
16, 84981, Control_c, 14, 11, 84
16, 85000, Control_c, 14, 11, 85
16, 85019, Control_c, 14, 11, 86
16, 85038, Control_c, 14, 11, 87
16, 85049, Note_on_c, 14, 36, 0
16, 85050, Note_on_c, 14, 39, 76
16, 85057, Control_c, 14, 11, 88
16, 85076, Control_c, 14, 11, 89
16, 85079, Note_on_c, 14, 39, 0
16, 85080, Note_on_c, 14, 44, 76
16, 85095, Control_c, 14, 11, 90
16, 85114, Control_c, 14, 11, 91
16, 85133, Control_c, 14, 11, 92
16, 85152, Control_c, 14, 11, 93
16, 85171, Control_c, 14, 11, 94
16, 85190, Control_c, 14, 11, 95
16, 85191, Note_on_c, 14, 44, 0
16, 85200, Note_on_c, 14, 36, 76
16, 85210, Control_c, 14, 11, 96
16, 85229, Control_c, 14, 11, 97
16, 85248, Control_c, 14, 11, 98
16, 85267, Control_c, 14, 11, 99
16, 85286, Control_c, 14, 11, 100
16, 85289, Note_on_c, 14, 36, 0
16, 85290, Note_on_c, 14, 39, 76
16, 85305, Control_c, 14, 11, 101
16, 85319, Note_on_c, 14, 39, 0
16, 85320, Note_on_c, 14, 44, 76
16, 85324, Control_c, 14, 11, 102
16, 85343, Control_c, 14, 11, 103
16, 85362, Control_c, 14, 11, 104
16, 85381, Control_c, 14, 11, 105
16, 85400, Control_c, 14, 11, 106
16, 85419, Control_c, 14, 11, 107
16, 85431, Note_on_c, 14, 44, 0
16, 85438, Control_c, 14, 11, 108
16, 85440, Note_on_c, 14, 36, 76
16, 85457, Control_c, 14, 11, 109
16, 85476, Control_c, 14, 11, 110
16, 85495, Control_c, 14, 11, 111
16, 85514, Control_c, 14, 11, 112
16, 85529, Note_on_c, 14, 36, 0
16, 85530, Note_on_c, 14, 39, 76
16, 85533, Control_c, 14, 11, 113
16, 85552, Control_c, 14, 11, 114
16, 85559, Note_on_c, 14, 39, 0
16, 85560, Note_on_c, 14, 44, 76
16, 85571, Control_c, 14, 11, 115
16, 85590, Control_c, 14, 11, 116
16, 85610, Control_c, 14, 11, 117
16, 85629, Control_c, 14, 11, 118
16, 85648, Control_c, 14, 11, 119
16, 85667, Control_c, 14, 11, 120
16, 85671, Note_on_c, 14, 44, 0
16, 85680, Note_on_c, 14, 36, 76
16, 85686, Control_c, 14, 11, 121
16, 85705, Control_c, 14, 11, 122
16, 85724, Control_c, 14, 11, 123
16, 85743, Control_c, 14, 11, 124
16, 85762, Control_c, 14, 11, 125
16, 85769, Note_on_c, 14, 36, 0
16, 85770, Note_on_c, 14, 39, 76
16, 85781, Control_c, 14, 11, 127
16, 85799, Note_on_c, 14, 39, 0
16, 85800, Note_on_c, 14, 44, 76
16, 85831, Note_on_c, 14, 44, 0
16, 85840, Note_on_c, 14, 36, 76
16, 85871, Note_on_c, 14, 36, 0
16, 85880, Note_on_c, 14, 39, 76
16, 85911, Note_on_c, 14, 39, 0
16, 85920, Note_on_c, 14, 44, 76
16, 85951, Note_on_c, 14, 44, 0
16, 85960, Note_on_c, 14, 36, 76
16, 85991, Note_on_c, 14, 36, 0
16, 86000, Note_on_c, 14, 39, 76
16, 86031, Note_on_c, 14, 39, 0
16, 86040, Note_on_c, 14, 44, 76
16, 86071, Note_on_c, 14, 44, 0
16, 86080, Note_on_c, 14, 36, 76
16, 86111, Note_on_c, 14, 36, 0
16, 86120, Note_on_c, 14, 39, 76
16, 86151, Note_on_c, 14, 39, 0
16, 86160, Note_on_c, 14, 44, 76
16, 86191, Note_on_c, 14, 44, 0
16, 86200, Note_on_c, 14, 36, 76
16, 86231, Note_on_c, 14, 36, 0
16, 86240, Note_on_c, 14, 39, 76
16, 86271, Note_on_c, 14, 39, 0
16, 86280, Note_on_c, 14, 44, 76
16, 86311, Note_on_c, 14, 44, 0
16, 86320, Note_on_c, 14, 48, 76
16, 86351, Note_on_c, 14, 48, 0
16, 86360, Note_on_c, 14, 51, 76
16, 86391, Note_on_c, 14, 51, 0
16, 86400, Note_on_c, 14, 56, 76
16, 86431, Note_on_c, 14, 56, 0
16, 86440, Note_on_c, 14, 56, 76
16, 86471, Note_on_c, 14, 56, 0
16, 86480, Note_on_c, 14, 56, 76
16, 86511, Note_on_c, 14, 56, 0
16, 86520, Note_on_c, 14, 56, 76
16, 86551, Note_on_c, 14, 56, 0
16, 86560, Note_on_c, 14, 56, 76
16, 86591, Note_on_c, 14, 56, 0
16, 86600, Note_on_c, 14, 56, 76
16, 86631, Note_on_c, 14, 56, 0
16, 86640, Note_on_c, 14, 51, 76
16, 86671, Note_on_c, 14, 51, 0
16, 86680, Note_on_c, 14, 51, 76
16, 86711, Note_on_c, 14, 51, 0
16, 86720, Note_on_c, 14, 51, 76
16, 86751, Note_on_c, 14, 51, 0
16, 86760, Note_on_c, 14, 48, 76
16, 86791, Note_on_c, 14, 48, 0
16, 86800, Note_on_c, 14, 48, 76
16, 86831, Note_on_c, 14, 48, 0
16, 86840, Note_on_c, 14, 48, 76
16, 86871, Note_on_c, 14, 48, 0
16, 86880, Note_on_c, 14, 44, 84
16, 86999, Note_on_c, 14, 44, 0
16, 87240, Note_on_c, 14, 51, 84
16, 87359, Note_on_c, 14, 51, 0
16, 87600, Note_on_c, 14, 56, 84
16, 87719, Note_on_c, 14, 56, 0
16, 87840, Note_on_c, 14, 51, 52
16, 87929, Note_on_c, 14, 51, 0
16, 87960, Note_on_c, 14, 56, 52
16, 88049, Note_on_c, 14, 56, 0
16, 88320, Note_on_c, 14, 51, 84
16, 88439, Note_on_c, 14, 51, 0
16, 88680, Note_on_c, 14, 44, 84
16, 88799, Note_on_c, 14, 44, 0
16, 88799, End_track
17, 0, Start_track
17, 0, Title_t, "Contrabass"
17, 0, MIDI_port, 0
17, 0, Program_c, 15, 48
17, 0, Control_c, 15, 7, 88
17, 0, Control_c, 15, 10, 100
17, 0, Control_c, 15, 11, 127
17, 100, Program_c, 15, 45
17, 120, Note_on_c, 15, 32, 48
17, 359, Note_on_c, 15, 32, 0
17, 480, Note_on_c, 15, 37, 48
17, 719, Note_on_c, 15, 37, 0
17, 840, Note_on_c, 15, 34, 48
17, 959, Note_on_c, 15, 34, 0
17, 960, Note_on_c, 15, 31, 48
17, 1079, Note_on_c, 15, 31, 0
17, 1080, Note_on_c, 15, 34, 48
17, 1199, Note_on_c, 15, 34, 0
17, 1200, Note_on_c, 15, 36, 48
17, 1439, Note_on_c, 15, 36, 0
17, 1560, Note_on_c, 15, 41, 48
17, 1679, Note_on_c, 15, 41, 0
17, 1680, Note_on_c, 15, 34, 48
17, 1799, Note_on_c, 15, 34, 0
17, 1920, Note_on_c, 15, 39, 48
17, 2039, Note_on_c, 15, 39, 0
17, 2040, Note_on_c, 15, 32, 48
17, 2159, Note_on_c, 15, 32, 0
17, 2280, Note_on_c, 15, 27, 48
17, 2399, Note_on_c, 15, 27, 0
17, 2640, Note_on_c, 15, 32, 48
17, 2759, Note_on_c, 15, 32, 0
17, 2850, Program_c, 15, 48
17, 2880, Note_on_c, 15, 36, 52
17, 2969, Note_on_c, 15, 36, 0
17, 2970, Note_on_c, 15, 32, 52
17, 2995, Note_on_c, 15, 32, 0
17, 3000, Note_on_c, 15, 27, 76
17, 3359, Note_on_c, 15, 27, 0
17, 3360, Note_on_c, 15, 32, 52
17, 3479, Note_on_c, 15, 32, 0
17, 5160, Control_c, 15, 11, 80
17, 5520, Note_on_c, 15, 41, 76
17, 5871, Note_on_c, 15, 41, 0
17, 5880, Control_c, 15, 11, 80
17, 5880, Note_on_c, 15, 36, 76
17, 5895, Control_c, 15, 11, 82
17, 5910, Control_c, 15, 11, 84
17, 5925, Control_c, 15, 11, 86
17, 5940, Control_c, 15, 11, 88
17, 5955, Control_c, 15, 11, 90
17, 5970, Control_c, 15, 11, 92
17, 5985, Control_c, 15, 11, 94
17, 6000, Control_c, 15, 11, 96
17, 6015, Control_c, 15, 11, 98
17, 6030, Control_c, 15, 11, 100
17, 6045, Control_c, 15, 11, 102
17, 6060, Control_c, 15, 11, 104
17, 6075, Control_c, 15, 11, 105
17, 6090, Control_c, 15, 11, 107
17, 6105, Control_c, 15, 11, 109
17, 6120, Control_c, 15, 11, 111
17, 6135, Control_c, 15, 11, 113
17, 6150, Control_c, 15, 11, 115
17, 6165, Control_c, 15, 11, 117
17, 6180, Control_c, 15, 11, 119
17, 6195, Control_c, 15, 11, 121
17, 6210, Control_c, 15, 11, 123
17, 6225, Control_c, 15, 11, 127
17, 6231, Note_on_c, 15, 36, 0
17, 6240, Note_on_c, 15, 39, 76
17, 6351, Note_on_c, 15, 39, 0
17, 6360, Note_on_c, 15, 39, 76
17, 6471, Note_on_c, 15, 39, 0
17, 6480, Note_on_c, 15, 39, 76
17, 6599, Note_on_c, 15, 39, 0
17, 6600, Note_on_c, 15, 32, 52
17, 6719, Note_on_c, 15, 32, 0
17, 7200, Note_on_c, 15, 39, 76
17, 7319, Note_on_c, 15, 39, 0
17, 7320, Note_on_c, 15, 32, 76
17, 7379, Note_on_c, 15, 32, 0
17, 7440, Note_on_c, 15, 32, 52
17, 7499, Note_on_c, 15, 32, 0
17, 7560, Note_on_c, 15, 32, 52
17, 7619, Note_on_c, 15, 32, 0
17, 7680, Note_on_c, 15, 32, 52
17, 7799, Note_on_c, 15, 32, 0
17, 7920, Program_c, 15, 45
17, 8040, Note_on_c, 15, 44, 48
17, 8159, Note_on_c, 15, 44, 0
17, 8160, Note_on_c, 15, 44, 48
17, 8279, Note_on_c, 15, 44, 0
17, 8280, Note_on_c, 15, 39, 48
17, 8399, Note_on_c, 15, 39, 0
17, 8400, Note_on_c, 15, 32, 48
17, 8519, Note_on_c, 15, 32, 0
17, 8760, Note_on_c, 15, 44, 48
17, 8879, Note_on_c, 15, 44, 0
17, 8880, Note_on_c, 15, 44, 48
17, 8999, Note_on_c, 15, 44, 0
17, 9000, Note_on_c, 15, 44, 48
17, 9119, Note_on_c, 15, 44, 0
17, 9120, Note_on_c, 15, 44, 48
17, 9359, Note_on_c, 15, 44, 0
17, 9840, Program_c, 15, 48
17, 10200, Note_on_c, 15, 32, 84
17, 10551, Note_on_c, 15, 32, 0
17, 10560, Note_on_c, 15, 31, 84
17, 10649, Note_on_c, 15, 31, 0
17, 10680, Note_on_c, 15, 31, 84
17, 10769, Note_on_c, 15, 31, 0
17, 10800, Note_on_c, 15, 31, 84
17, 10889, Note_on_c, 15, 31, 0
17, 10920, Note_on_c, 15, 36, 84
17, 11031, Note_on_c, 15, 36, 0
17, 11040, Note_on_c, 15, 24, 84
17, 11159, Note_on_c, 15, 24, 0
17, 11280, Note_on_c, 15, 36, 84
17, 11391, Note_on_c, 15, 36, 0
17, 11400, Note_on_c, 15, 36, 84
17, 11511, Note_on_c, 15, 36, 0
17, 11520, Note_on_c, 15, 31, 84
17, 11631, Note_on_c, 15, 31, 0
17, 11640, Note_on_c, 15, 36, 84
17, 11871, Note_on_c, 15, 36, 0
17, 11880, Note_on_c, 15, 36, 84
17, 11965, Note_on_c, 15, 36, 0
17, 11970, Note_on_c, 15, 36, 84
17, 11995, Note_on_c, 15, 36, 0
17, 12000, Note_on_c, 15, 36, 84
17, 12111, Note_on_c, 15, 36, 0
17, 12120, Note_on_c, 15, 36, 84
17, 12231, Note_on_c, 15, 36, 0
17, 12240, Note_on_c, 15, 36, 84
17, 12351, Note_on_c, 15, 36, 0
17, 12360, Note_on_c, 15, 36, 92
17, 12591, Note_on_c, 15, 36, 0
17, 12600, Note_on_c, 15, 36, 84
17, 12685, Note_on_c, 15, 36, 0
17, 12690, Note_on_c, 15, 36, 84
17, 12715, Note_on_c, 15, 36, 0
17, 12720, Note_on_c, 15, 36, 92
17, 12951, Note_on_c, 15, 36, 0
17, 12960, Note_on_c, 15, 36, 84
17, 13045, Note_on_c, 15, 36, 0
17, 13050, Note_on_c, 15, 36, 84
17, 13075, Note_on_c, 15, 36, 0
17, 13080, Note_on_c, 15, 36, 84
17, 13199, Note_on_c, 15, 36, 0
17, 17040, Note_on_c, 15, 39, 76
17, 17159, Note_on_c, 15, 39, 0
17, 17400, Program_c, 15, 45
17, 17640, Note_on_c, 15, 32, 48
17, 17759, Note_on_c, 15, 32, 0
17, 17760, Note_on_c, 15, 32, 48
17, 17999, Note_on_c, 15, 32, 0
17, 18120, Note_on_c, 15, 37, 48
17, 18359, Note_on_c, 15, 37, 0
17, 18480, Note_on_c, 15, 34, 48
17, 18599, Note_on_c, 15, 34, 0
17, 18600, Note_on_c, 15, 31, 48
17, 18719, Note_on_c, 15, 31, 0
17, 18720, Note_on_c, 15, 34, 48
17, 18839, Note_on_c, 15, 34, 0
17, 18840, Note_on_c, 15, 36, 48
17, 18959, Note_on_c, 15, 36, 0
17, 19080, Note_on_c, 15, 36, 48
17, 19199, Note_on_c, 15, 36, 0
17, 19200, Note_on_c, 15, 41, 48
17, 19319, Note_on_c, 15, 41, 0
17, 19320, Note_on_c, 15, 34, 48
17, 19439, Note_on_c, 15, 34, 0
17, 19560, Note_on_c, 15, 39, 48
17, 19679, Note_on_c, 15, 39, 0
17, 19680, Note_on_c, 15, 32, 48
17, 19799, Note_on_c, 15, 32, 0
17, 19920, Note_on_c, 15, 27, 68
17, 20009, Note_on_c, 15, 27, 0
17, 20040, Note_on_c, 15, 27, 68
17, 20129, Note_on_c, 15, 27, 0
17, 20160, Note_on_c, 15, 27, 68
17, 20249, Note_on_c, 15, 27, 0
17, 20280, Note_on_c, 15, 32, 48
17, 20399, Note_on_c, 15, 32, 0
17, 20400, Program_c, 15, 48
17, 20460, Note_on_c, 15, 36, 63
17, 20504, Note_on_c, 15, 36, 0
17, 20520, Note_on_c, 15, 36, 67
17, 20579, Note_on_c, 15, 36, 0
17, 20580, Note_on_c, 15, 32, 71
17, 20635, Note_on_c, 15, 32, 0
17, 20640, Note_on_c, 15, 27, 76
17, 20991, Note_on_c, 15, 27, 0
17, 21000, Note_on_c, 15, 32, 52
17, 21119, Note_on_c, 15, 32, 0
17, 22800, Control_c, 15, 11, 80
17, 23160, Note_on_c, 15, 41, 76
17, 23511, Note_on_c, 15, 41, 0
17, 23520, Note_on_c, 15, 36, 76
17, 23520, Control_c, 15, 11, 80
17, 23535, Control_c, 15, 11, 82
17, 23550, Control_c, 15, 11, 84
17, 23565, Control_c, 15, 11, 86
17, 23580, Control_c, 15, 11, 88
17, 23595, Control_c, 15, 11, 90
17, 23610, Control_c, 15, 11, 92
17, 23625, Control_c, 15, 11, 94
17, 23640, Control_c, 15, 11, 96
17, 23655, Control_c, 15, 11, 98
17, 23670, Control_c, 15, 11, 100
17, 23685, Control_c, 15, 11, 102
17, 23700, Control_c, 15, 11, 104
17, 23715, Control_c, 15, 11, 105
17, 23730, Control_c, 15, 11, 107
17, 23745, Control_c, 15, 11, 109
17, 23760, Control_c, 15, 11, 111
17, 23775, Control_c, 15, 11, 113
17, 23790, Control_c, 15, 11, 115
17, 23805, Control_c, 15, 11, 117
17, 23820, Control_c, 15, 11, 119
17, 23835, Control_c, 15, 11, 121
17, 23850, Control_c, 15, 11, 123
17, 23865, Control_c, 15, 11, 127
17, 23871, Note_on_c, 15, 36, 0
17, 23880, Note_on_c, 15, 39, 76
17, 23991, Note_on_c, 15, 39, 0
17, 24000, Note_on_c, 15, 39, 76
17, 24111, Note_on_c, 15, 39, 0
17, 24120, Note_on_c, 15, 39, 76
17, 24239, Note_on_c, 15, 39, 0
17, 24240, Note_on_c, 15, 32, 52
17, 24359, Note_on_c, 15, 32, 0
17, 24840, Note_on_c, 15, 39, 76
17, 24959, Note_on_c, 15, 39, 0
17, 24960, Note_on_c, 15, 32, 76
17, 25019, Note_on_c, 15, 32, 0
17, 25080, Note_on_c, 15, 32, 52
17, 25139, Note_on_c, 15, 32, 0
17, 25200, Note_on_c, 15, 32, 52
17, 25259, Note_on_c, 15, 32, 0
17, 25320, Note_on_c, 15, 32, 52
17, 25439, Note_on_c, 15, 32, 0
17, 25560, Program_c, 15, 45
17, 25680, Note_on_c, 15, 44, 48
17, 25799, Note_on_c, 15, 44, 0
17, 25800, Note_on_c, 15, 44, 48
17, 25919, Note_on_c, 15, 44, 0
17, 25920, Note_on_c, 15, 39, 48
17, 26039, Note_on_c, 15, 39, 0
17, 26040, Note_on_c, 15, 32, 48
17, 26159, Note_on_c, 15, 32, 0
17, 26400, Note_on_c, 15, 32, 48
17, 26519, Note_on_c, 15, 32, 0
17, 26520, Note_on_c, 15, 44, 48
17, 26639, Note_on_c, 15, 44, 0
17, 26640, Note_on_c, 15, 44, 48
17, 26759, Note_on_c, 15, 44, 0
17, 26760, Note_on_c, 15, 44, 48
17, 26879, Note_on_c, 15, 44, 0
17, 27720, Program_c, 15, 48
17, 27840, Note_on_c, 15, 32, 84
17, 27865, Note_on_c, 15, 32, 0
17, 27870, Note_on_c, 15, 32, 84
17, 27895, Note_on_c, 15, 32, 0
17, 27900, Note_on_c, 15, 32, 84
17, 27925, Note_on_c, 15, 32, 0
17, 27930, Note_on_c, 15, 32, 84
17, 27955, Note_on_c, 15, 32, 0
17, 27960, Note_on_c, 15, 32, 84
17, 27985, Note_on_c, 15, 32, 0
17, 27990, Note_on_c, 15, 32, 84
17, 28015, Note_on_c, 15, 32, 0
17, 28020, Note_on_c, 15, 32, 84
17, 28045, Note_on_c, 15, 32, 0
17, 28050, Note_on_c, 15, 32, 84
17, 28075, Note_on_c, 15, 32, 0
17, 28080, Note_on_c, 15, 32, 84
17, 28105, Note_on_c, 15, 32, 0
17, 28110, Note_on_c, 15, 32, 84
17, 28135, Note_on_c, 15, 32, 0
17, 28140, Note_on_c, 15, 32, 84
17, 28165, Note_on_c, 15, 32, 0
17, 28170, Note_on_c, 15, 32, 84
17, 28195, Note_on_c, 15, 32, 0
17, 28200, Note_on_c, 15, 31, 84
17, 28255, Note_on_c, 15, 31, 0
17, 28260, Note_on_c, 15, 36, 84
17, 28285, Note_on_c, 15, 36, 0
17, 28290, Note_on_c, 15, 40, 84
17, 28315, Note_on_c, 15, 40, 0
17, 28320, Note_on_c, 15, 43, 84
17, 28409, Note_on_c, 15, 43, 0
17, 28440, Note_on_c, 15, 31, 84
17, 28529, Note_on_c, 15, 31, 0
17, 28560, Note_on_c, 15, 36, 84
17, 28671, Note_on_c, 15, 36, 0
17, 28680, Note_on_c, 15, 36, 84
17, 28799, Note_on_c, 15, 36, 0
17, 28920, Note_on_c, 15, 36, 84
17, 29031, Note_on_c, 15, 36, 0
17, 29040, Note_on_c, 15, 36, 84
17, 29151, Note_on_c, 15, 36, 0
17, 29160, Note_on_c, 15, 31, 84
17, 29271, Note_on_c, 15, 31, 0
17, 29280, Note_on_c, 15, 36, 84
17, 29511, Note_on_c, 15, 36, 0
17, 29520, Note_on_c, 15, 36, 84
17, 29605, Note_on_c, 15, 36, 0
17, 29610, Note_on_c, 15, 36, 84
17, 29635, Note_on_c, 15, 36, 0
17, 29640, Note_on_c, 15, 36, 84
17, 29751, Note_on_c, 15, 36, 0
17, 29760, Note_on_c, 15, 36, 84
17, 29871, Note_on_c, 15, 36, 0
17, 29880, Note_on_c, 15, 36, 84
17, 29991, Note_on_c, 15, 36, 0
17, 30000, Note_on_c, 15, 36, 92
17, 30029, Note_on_c, 15, 36, 0
17, 30030, Note_on_c, 15, 36, 84
17, 30231, Note_on_c, 15, 36, 0
17, 30240, Note_on_c, 15, 36, 84
17, 30325, Note_on_c, 15, 36, 0
17, 30330, Note_on_c, 15, 36, 84
17, 30355, Note_on_c, 15, 36, 0
17, 30360, Note_on_c, 15, 36, 92
17, 30389, Note_on_c, 15, 36, 0
17, 30390, Note_on_c, 15, 36, 84
17, 30591, Note_on_c, 15, 36, 0
17, 30600, Note_on_c, 15, 36, 84
17, 30685, Note_on_c, 15, 36, 0
17, 30690, Note_on_c, 15, 36, 84
17, 30715, Note_on_c, 15, 36, 0
17, 30720, Note_on_c, 15, 36, 84
17, 30839, Note_on_c, 15, 36, 0
17, 34560, Program_c, 15, 48
17, 34680, Note_on_c, 15, 39, 76
17, 34799, Note_on_c, 15, 39, 0
17, 35040, Program_c, 15, 45
17, 35280, Note_on_c, 15, 32, 48
17, 35399, Note_on_c, 15, 32, 0
17, 35400, Note_on_c, 15, 32, 48
17, 35519, Note_on_c, 15, 32, 0
17, 35520, Note_on_c, 15, 32, 48
17, 35639, Note_on_c, 15, 32, 0
17, 35700, Note_on_c, 15, 32, 48
17, 35759, Note_on_c, 15, 32, 0
17, 35760, Note_on_c, 15, 37, 48
17, 35879, Note_on_c, 15, 37, 0
17, 35880, Note_on_c, 15, 37, 48
17, 35999, Note_on_c, 15, 37, 0
17, 36060, Note_on_c, 15, 37, 48
17, 36119, Note_on_c, 15, 37, 0
17, 36120, Note_on_c, 15, 34, 48
17, 36239, Note_on_c, 15, 34, 0
17, 36240, Note_on_c, 15, 34, 48
17, 36359, Note_on_c, 15, 34, 0
17, 36420, Note_on_c, 15, 34, 48
17, 36479, Note_on_c, 15, 34, 0
17, 36480, Note_on_c, 15, 36, 48
17, 36599, Note_on_c, 15, 36, 0
17, 36600, Note_on_c, 15, 36, 48
17, 36719, Note_on_c, 15, 36, 0
17, 36780, Note_on_c, 15, 36, 48
17, 36839, Note_on_c, 15, 36, 0
17, 36840, Note_on_c, 15, 41, 48
17, 36959, Note_on_c, 15, 41, 0
17, 36960, Note_on_c, 15, 34, 48
17, 37079, Note_on_c, 15, 34, 0
17, 37140, Note_on_c, 15, 34, 48
17, 37199, Note_on_c, 15, 34, 0
17, 37200, Note_on_c, 15, 39, 48
17, 37319, Note_on_c, 15, 39, 0
17, 37320, Note_on_c, 15, 32, 48
17, 37439, Note_on_c, 15, 32, 0
17, 37500, Note_on_c, 15, 32, 48
17, 37559, Note_on_c, 15, 32, 0
17, 37560, Note_on_c, 15, 27, 44
17, 37679, Note_on_c, 15, 27, 0
17, 37680, Note_on_c, 15, 27, 44
17, 37799, Note_on_c, 15, 27, 0
17, 37800, Note_on_c, 15, 27, 44
17, 37919, Note_on_c, 15, 27, 0
17, 37920, Note_on_c, 15, 32, 44
17, 38039, Note_on_c, 15, 32, 0
17, 38160, Program_c, 15, 48
17, 38280, Note_on_c, 15, 32, 44
17, 38631, Note_on_c, 15, 32, 0
17, 38640, Note_on_c, 15, 37, 44
17, 38991, Note_on_c, 15, 37, 0
17, 39000, Note_on_c, 15, 34, 44
17, 39351, Note_on_c, 15, 34, 0
17, 39360, Note_on_c, 15, 36, 44
17, 39711, Note_on_c, 15, 36, 0
17, 39720, Note_on_c, 15, 41, 44
17, 39839, Note_on_c, 15, 41, 0
17, 39840, Note_on_c, 15, 34, 44
17, 40071, Note_on_c, 15, 34, 0
17, 40080, Note_on_c, 15, 39, 44
17, 40199, Note_on_c, 15, 39, 0
17, 40200, Note_on_c, 15, 32, 44
17, 40431, Note_on_c, 15, 32, 0
17, 40440, Note_on_c, 15, 27, 44
17, 40791, Note_on_c, 15, 27, 0
17, 40800, Note_on_c, 15, 32, 44
17, 40919, Note_on_c, 15, 32, 0
17, 40950, Note_on_c, 15, 39, 76
17, 40979, Note_on_c, 15, 39, 0
17, 40980, Note_on_c, 15, 41, 76
17, 41009, Note_on_c, 15, 41, 0
17, 41010, Note_on_c, 15, 43, 76
17, 41029, Note_on_c, 15, 43, 0
17, 41030, Note_on_c, 15, 46, 76
17, 41039, Note_on_c, 15, 46, 0
17, 41040, Note_on_c, 15, 44, 76
17, 41069, Note_on_c, 15, 44, 0
17, 41070, Note_on_c, 15, 43, 76
17, 41099, Note_on_c, 15, 43, 0
17, 41100, Note_on_c, 15, 44, 76
17, 41129, Note_on_c, 15, 44, 0
17, 41130, Note_on_c, 15, 46, 76
17, 41155, Note_on_c, 15, 46, 0
17, 41160, Note_on_c, 15, 48, 76
17, 41189, Note_on_c, 15, 48, 0
17, 41190, Note_on_c, 15, 46, 76
17, 41219, Note_on_c, 15, 46, 0
17, 41220, Note_on_c, 15, 44, 76
17, 41249, Note_on_c, 15, 44, 0
17, 41250, Note_on_c, 15, 43, 76
17, 41279, Note_on_c, 15, 43, 0
17, 41280, Note_on_c, 15, 44, 76
17, 41309, Note_on_c, 15, 44, 0
17, 41310, Note_on_c, 15, 46, 76
17, 41339, Note_on_c, 15, 46, 0
17, 41340, Note_on_c, 15, 44, 76
17, 41369, Note_on_c, 15, 44, 0
17, 41370, Note_on_c, 15, 43, 76
17, 41399, Note_on_c, 15, 43, 0
17, 41400, Note_on_c, 15, 44, 76
17, 41429, Note_on_c, 15, 44, 0
17, 41430, Note_on_c, 15, 46, 76
17, 41459, Note_on_c, 15, 46, 0
17, 41460, Note_on_c, 15, 48, 76
17, 41489, Note_on_c, 15, 48, 0
17, 41490, Note_on_c, 15, 44, 76
17, 41515, Note_on_c, 15, 44, 0
17, 41520, Note_on_c, 15, 41, 76
17, 41549, Note_on_c, 15, 41, 0
17, 41550, Note_on_c, 15, 43, 76
17, 41579, Note_on_c, 15, 43, 0
17, 41580, Note_on_c, 15, 41, 76
17, 41609, Note_on_c, 15, 41, 0
17, 41610, Note_on_c, 15, 40, 76
17, 41639, Note_on_c, 15, 40, 0
17, 41640, Note_on_c, 15, 41, 76
17, 41669, Note_on_c, 15, 41, 0
17, 41670, Note_on_c, 15, 45, 76
17, 41699, Note_on_c, 15, 45, 0
17, 41700, Note_on_c, 15, 46, 76
17, 41729, Note_on_c, 15, 46, 0
17, 41730, Note_on_c, 15, 45, 76
17, 41759, Note_on_c, 15, 45, 0
17, 41760, Note_on_c, 15, 46, 76
17, 41789, Note_on_c, 15, 46, 0
17, 41790, Note_on_c, 15, 48, 76
17, 41819, Note_on_c, 15, 48, 0
17, 41820, Note_on_c, 15, 49, 76
17, 41849, Note_on_c, 15, 49, 0
17, 41850, Note_on_c, 15, 48, 76
17, 41875, Note_on_c, 15, 48, 0
17, 41880, Note_on_c, 15, 49, 76
17, 41909, Note_on_c, 15, 49, 0
17, 41910, Note_on_c, 15, 48, 76
17, 41939, Note_on_c, 15, 48, 0
17, 41940, Note_on_c, 15, 49, 76
17, 41969, Note_on_c, 15, 49, 0
17, 41970, Note_on_c, 15, 48, 76
17, 41999, Note_on_c, 15, 48, 0
17, 42000, Note_on_c, 15, 46, 76
17, 42029, Note_on_c, 15, 46, 0
17, 42030, Note_on_c, 15, 49, 76
17, 42059, Note_on_c, 15, 49, 0
17, 42060, Note_on_c, 15, 44, 76
17, 42089, Note_on_c, 15, 44, 0
17, 42090, Note_on_c, 15, 46, 76
17, 42119, Note_on_c, 15, 46, 0
17, 42120, Note_on_c, 15, 43, 76
17, 42149, Note_on_c, 15, 43, 0
17, 42150, Note_on_c, 15, 44, 76
17, 42179, Note_on_c, 15, 44, 0
17, 42180, Note_on_c, 15, 41, 76
17, 42209, Note_on_c, 15, 41, 0
17, 42210, Note_on_c, 15, 43, 76
17, 42235, Note_on_c, 15, 43, 0
17, 42240, Note_on_c, 15, 40, 76
17, 42269, Note_on_c, 15, 40, 0
17, 42270, Note_on_c, 15, 41, 76
17, 42299, Note_on_c, 15, 41, 0
17, 42300, Note_on_c, 15, 43, 76
17, 42329, Note_on_c, 15, 43, 0
17, 42330, Note_on_c, 15, 40, 76
17, 42359, Note_on_c, 15, 40, 0
17, 42360, Note_on_c, 15, 36, 76
17, 42389, Note_on_c, 15, 36, 0
17, 42390, Note_on_c, 15, 40, 76
17, 42419, Note_on_c, 15, 40, 0
17, 42420, Note_on_c, 15, 43, 76
17, 42449, Note_on_c, 15, 43, 0
17, 42450, Note_on_c, 15, 47, 76
17, 42479, Note_on_c, 15, 47, 0
17, 42480, Note_on_c, 15, 48, 76
17, 42509, Note_on_c, 15, 48, 0
17, 42510, Note_on_c, 15, 43, 76
17, 42539, Note_on_c, 15, 43, 0
17, 42540, Note_on_c, 15, 48, 76
17, 42569, Note_on_c, 15, 48, 0
17, 42570, Note_on_c, 15, 46, 76
17, 42595, Note_on_c, 15, 46, 0
17, 42600, Note_on_c, 15, 45, 76
17, 42629, Note_on_c, 15, 45, 0
17, 42630, Note_on_c, 15, 43, 76
17, 42659, Note_on_c, 15, 43, 0
17, 42660, Note_on_c, 15, 45, 76
17, 42689, Note_on_c, 15, 45, 0
17, 42690, Note_on_c, 15, 41, 76
17, 42719, Note_on_c, 15, 41, 0
17, 42720, Note_on_c, 15, 46, 76
17, 42749, Note_on_c, 15, 46, 0
17, 42750, Note_on_c, 15, 48, 76
17, 42779, Note_on_c, 15, 48, 0
17, 42780, Note_on_c, 15, 46, 76
17, 42809, Note_on_c, 15, 46, 0
17, 42810, Note_on_c, 15, 45, 76
17, 42839, Note_on_c, 15, 45, 0
17, 42840, Note_on_c, 15, 46, 76
17, 42869, Note_on_c, 15, 46, 0
17, 42870, Note_on_c, 15, 48, 76
17, 42899, Note_on_c, 15, 48, 0
17, 42900, Note_on_c, 15, 49, 76
17, 42929, Note_on_c, 15, 49, 0
17, 42930, Note_on_c, 15, 46, 76
17, 42955, Note_on_c, 15, 46, 0
17, 42960, Note_on_c, 15, 43, 76
17, 42989, Note_on_c, 15, 43, 0
17, 42990, Note_on_c, 15, 41, 76
17, 43019, Note_on_c, 15, 41, 0
17, 43020, Note_on_c, 15, 43, 76
17, 43049, Note_on_c, 15, 43, 0
17, 43050, Note_on_c, 15, 39, 76
17, 43079, Note_on_c, 15, 39, 0
17, 43080, Note_on_c, 15, 44, 76
17, 43109, Note_on_c, 15, 44, 0
17, 43110, Note_on_c, 15, 34, 76
17, 43139, Note_on_c, 15, 34, 0
17, 43140, Note_on_c, 15, 32, 76
17, 43169, Note_on_c, 15, 32, 0
17, 43170, Note_on_c, 15, 31, 76
17, 43199, Note_on_c, 15, 31, 0
17, 43200, Note_on_c, 15, 32, 76
17, 43229, Note_on_c, 15, 32, 0
17, 43230, Note_on_c, 15, 34, 76
17, 43259, Note_on_c, 15, 34, 0
17, 43260, Note_on_c, 15, 36, 76
17, 43289, Note_on_c, 15, 36, 0
17, 43290, Note_on_c, 15, 38, 76
17, 43315, Note_on_c, 15, 38, 0
17, 43320, Note_on_c, 15, 39, 76
17, 43671, Note_on_c, 15, 39, 0
17, 43680, Note_on_c, 15, 39, 76
17, 43859, Note_on_c, 15, 39, 0
17, 43860, Note_on_c, 15, 41, 76
17, 43889, Note_on_c, 15, 41, 0
17, 43890, Note_on_c, 15, 43, 76
17, 43919, Note_on_c, 15, 43, 0
17, 43920, Note_on_c, 15, 44, 76
17, 43949, Note_on_c, 15, 44, 0
17, 43950, Note_on_c, 15, 46, 76
17, 43979, Note_on_c, 15, 46, 0
17, 43980, Note_on_c, 15, 48, 76
17, 44009, Note_on_c, 15, 48, 0
17, 44010, Note_on_c, 15, 50, 76
17, 44035, Note_on_c, 15, 50, 0
17, 44040, Note_on_c, 15, 51, 76
17, 44264, Note_on_c, 15, 51, 0
17, 44280, Note_on_c, 15, 39, 44
17, 44391, Note_on_c, 15, 39, 0
17, 44400, Note_on_c, 15, 39, 44
17, 44519, Note_on_c, 15, 39, 0
17, 44640, Note_on_c, 15, 39, 44
17, 44751, Note_on_c, 15, 39, 0
17, 44760, Note_on_c, 15, 39, 44
17, 44879, Note_on_c, 15, 39, 0
17, 45000, Note_on_c, 15, 39, 44
17, 45111, Note_on_c, 15, 39, 0
17, 45120, Note_on_c, 15, 39, 44
17, 45239, Note_on_c, 15, 39, 0
17, 45360, Note_on_c, 15, 39, 44
17, 45471, Note_on_c, 15, 39, 0
17, 45480, Note_on_c, 15, 39, 44
17, 45599, Note_on_c, 15, 39, 0
17, 45720, Note_on_c, 15, 39, 44
17, 45831, Note_on_c, 15, 39, 0
17, 45840, Note_on_c, 15, 39, 44
17, 45959, Note_on_c, 15, 39, 0
17, 46080, Note_on_c, 15, 39, 44
17, 46191, Note_on_c, 15, 39, 0
17, 46200, Note_on_c, 15, 39, 44
17, 46319, Note_on_c, 15, 39, 0
17, 46440, Note_on_c, 15, 39, 44
17, 46551, Note_on_c, 15, 39, 0
17, 46560, Note_on_c, 15, 39, 44
17, 46679, Note_on_c, 15, 39, 0
17, 46800, Note_on_c, 15, 39, 44
17, 46911, Note_on_c, 15, 39, 0
17, 46920, Note_on_c, 15, 39, 44
17, 47039, Note_on_c, 15, 39, 0
17, 47160, Note_on_c, 15, 39, 44
17, 47271, Note_on_c, 15, 39, 0
17, 47280, Note_on_c, 15, 39, 76
17, 47391, Note_on_c, 15, 39, 0
17, 51540, Note_on_c, 15, 40, 52
17, 51584, Note_on_c, 15, 40, 0
17, 51600, Note_on_c, 15, 41, 52
17, 51644, Note_on_c, 15, 41, 0
17, 51660, Note_on_c, 15, 43, 52
17, 51704, Note_on_c, 15, 43, 0
17, 51720, Note_on_c, 15, 44, 52
17, 51764, Note_on_c, 15, 44, 0
17, 52920, Note_on_c, 15, 36, 84
17, 53005, Note_on_c, 15, 36, 0
17, 53010, Note_on_c, 15, 36, 84
17, 53035, Note_on_c, 15, 36, 0
17, 53040, Note_on_c, 15, 36, 84
17, 53151, Note_on_c, 15, 36, 0
17, 53160, Note_on_c, 15, 36, 84
17, 53271, Note_on_c, 15, 36, 0
17, 53280, Note_on_c, 15, 31, 84
17, 53391, Note_on_c, 15, 31, 0
17, 53400, Note_on_c, 15, 36, 84
17, 53991, Note_on_c, 15, 36, 0
17, 54000, Note_on_c, 15, 36, 84
17, 54085, Note_on_c, 15, 36, 0
17, 54090, Note_on_c, 15, 31, 84
17, 54115, Note_on_c, 15, 31, 0
17, 54120, Note_on_c, 15, 36, 84
17, 54231, Note_on_c, 15, 36, 0
17, 54240, Note_on_c, 15, 36, 84
17, 54351, Note_on_c, 15, 36, 0
17, 54360, Note_on_c, 15, 36, 84
17, 54471, Note_on_c, 15, 36, 0
17, 54480, Note_on_c, 15, 36, 84
17, 55071, Note_on_c, 15, 36, 0
17, 55080, Note_on_c, 15, 36, 84
17, 55165, Note_on_c, 15, 36, 0
17, 55170, Note_on_c, 15, 36, 84
17, 55195, Note_on_c, 15, 36, 0
17, 55200, Note_on_c, 15, 36, 84
17, 55431, Note_on_c, 15, 36, 0
17, 55440, Note_on_c, 15, 36, 84
17, 55529, Note_on_c, 15, 36, 0
17, 55530, Note_on_c, 15, 36, 84
17, 55559, Note_on_c, 15, 36, 0
17, 55560, Note_on_c, 15, 36, 84
17, 55791, Note_on_c, 15, 36, 0
17, 55800, Note_on_c, 15, 36, 84
17, 55885, Note_on_c, 15, 36, 0
17, 55890, Note_on_c, 15, 36, 84
17, 55915, Note_on_c, 15, 36, 0
17, 55920, Control_c, 15, 11, 127
17, 55920, Note_on_c, 15, 36, 84
17, 55935, Control_c, 15, 11, 126
17, 55950, Control_c, 15, 11, 124
17, 55965, Control_c, 15, 11, 123
17, 55980, Control_c, 15, 11, 122
17, 55995, Control_c, 15, 11, 120
17, 56010, Control_c, 15, 11, 119
17, 56025, Control_c, 15, 11, 118
17, 56040, Control_c, 15, 11, 117
17, 56055, Control_c, 15, 11, 115
17, 56070, Control_c, 15, 11, 114
17, 56085, Control_c, 15, 11, 113
17, 56100, Control_c, 15, 11, 111
17, 56115, Control_c, 15, 11, 110
17, 56130, Control_c, 15, 11, 109
17, 56145, Control_c, 15, 11, 107
17, 56160, Control_c, 15, 11, 106
17, 56175, Control_c, 15, 11, 105
17, 56190, Control_c, 15, 11, 103
17, 56205, Control_c, 15, 11, 102
17, 56220, Control_c, 15, 11, 101
17, 56235, Control_c, 15, 11, 99
17, 56250, Control_c, 15, 11, 98
17, 56265, Control_c, 15, 11, 97
17, 56279, Note_on_c, 15, 36, 0
17, 56280, Note_on_c, 15, 36, 84
17, 56280, Control_c, 15, 11, 96
17, 56295, Control_c, 15, 11, 94
17, 56310, Control_c, 15, 11, 93
17, 56325, Control_c, 15, 11, 92
17, 56340, Control_c, 15, 11, 90
17, 56355, Control_c, 15, 11, 89
17, 56370, Control_c, 15, 11, 88
17, 56385, Control_c, 15, 11, 86
17, 56400, Control_c, 15, 11, 85
17, 56415, Control_c, 15, 11, 84
17, 56430, Control_c, 15, 11, 82
17, 56445, Control_c, 15, 11, 81
17, 56460, Control_c, 15, 11, 80
17, 56475, Control_c, 15, 11, 78
17, 56490, Control_c, 15, 11, 77
17, 56505, Control_c, 15, 11, 76
17, 56520, Control_c, 15, 11, 75
17, 56535, Control_c, 15, 11, 73
17, 56550, Control_c, 15, 11, 72
17, 56565, Control_c, 15, 11, 71
17, 56580, Control_c, 15, 11, 69
17, 56595, Control_c, 15, 11, 68
17, 56610, Control_c, 15, 11, 67
17, 56625, Control_c, 15, 11, 64
17, 56631, Note_on_c, 15, 36, 0
17, 56638, Program_c, 15, 45
17, 56640, Note_on_c, 15, 36, 76
17, 56759, Note_on_c, 15, 36, 0
17, 57000, Note_on_c, 15, 41, 76
17, 57119, Note_on_c, 15, 41, 0
17, 57360, Note_on_c, 15, 39, 76
17, 57479, Note_on_c, 15, 39, 0
17, 59520, Control_c, 15, 11, 127
17, 59760, Note_on_c, 15, 32, 48
17, 59879, Note_on_c, 15, 32, 0
17, 59880, Note_on_c, 15, 32, 48
17, 59999, Note_on_c, 15, 32, 0
17, 60000, Note_on_c, 15, 32, 48
17, 60119, Note_on_c, 15, 32, 0
17, 60120, Note_on_c, 15, 32, 48
17, 60239, Note_on_c, 15, 32, 0
17, 60240, Note_on_c, 15, 39, 48
17, 60359, Note_on_c, 15, 39, 0
17, 60360, Note_on_c, 15, 39, 48
17, 60479, Note_on_c, 15, 39, 0
17, 60480, Note_on_c, 15, 39, 48
17, 60599, Note_on_c, 15, 39, 0
17, 60600, Note_on_c, 15, 44, 48
17, 60719, Note_on_c, 15, 44, 0
17, 60720, Note_on_c, 15, 44, 48
17, 60839, Note_on_c, 15, 44, 0
17, 60840, Note_on_c, 15, 44, 48
17, 60959, Note_on_c, 15, 44, 0
17, 60960, Note_on_c, 15, 42, 48
17, 61079, Note_on_c, 15, 42, 0
17, 61080, Note_on_c, 15, 42, 48
17, 61199, Note_on_c, 15, 42, 0
17, 61200, Note_on_c, 15, 42, 48
17, 61319, Note_on_c, 15, 42, 0
17, 61320, Note_on_c, 15, 47, 48
17, 61439, Note_on_c, 15, 47, 0
17, 61440, Note_on_c, 15, 47, 48
17, 61559, Note_on_c, 15, 47, 0
17, 61560, Note_on_c, 15, 47, 48
17, 61679, Note_on_c, 15, 47, 0
17, 61680, Note_on_c, 15, 42, 48
17, 61799, Note_on_c, 15, 42, 0
17, 61800, Note_on_c, 15, 42, 48
17, 61919, Note_on_c, 15, 42, 0
17, 61920, Note_on_c, 15, 42, 48
17, 62039, Note_on_c, 15, 42, 0
17, 62040, Note_on_c, 15, 44, 48
17, 62159, Note_on_c, 15, 44, 0
17, 62160, Note_on_c, 15, 44, 48
17, 62279, Note_on_c, 15, 44, 0
17, 62280, Note_on_c, 15, 44, 48
17, 62399, Note_on_c, 15, 44, 0
17, 62400, Note_on_c, 15, 39, 48
17, 62519, Note_on_c, 15, 39, 0
17, 62520, Note_on_c, 15, 39, 51
17, 62579, Note_on_c, 15, 39, 0
17, 62580, Note_on_c, 15, 32, 53
17, 62639, Note_on_c, 15, 32, 0
17, 62640, Note_on_c, 15, 44, 54
17, 62699, Note_on_c, 15, 44, 0
17, 62700, Note_on_c, 15, 44, 56
17, 62759, Note_on_c, 15, 44, 0
17, 62760, Note_on_c, 15, 39, 58
17, 62879, Note_on_c, 15, 39, 0
17, 62880, Note_on_c, 15, 39, 61
17, 62939, Note_on_c, 15, 39, 0
17, 62940, Note_on_c, 15, 39, 63
17, 62999, Note_on_c, 15, 39, 0
17, 63000, Note_on_c, 15, 44, 64
17, 63059, Note_on_c, 15, 44, 0
17, 63060, Note_on_c, 15, 32, 66
17, 63119, Note_on_c, 15, 32, 0
17, 63120, Note_on_c, 15, 39, 68
17, 63164, Note_on_c, 15, 39, 0
17, 63180, Note_on_c, 15, 39, 68
17, 63224, Note_on_c, 15, 39, 0
17, 64560, Program_c, 15, 48
17, 64800, Note_on_c, 15, 45, 44
17, 64859, Note_on_c, 15, 45, 0
17, 64860, Note_on_c, 15, 46, 44
17, 64919, Note_on_c, 15, 46, 0
17, 64920, Note_on_c, 15, 48, 44
17, 64979, Note_on_c, 15, 48, 0
17, 64980, Note_on_c, 15, 49, 45
17, 65039, Note_on_c, 15, 49, 0
17, 65040, Note_on_c, 15, 51, 47
17, 65099, Note_on_c, 15, 51, 0
17, 65100, Note_on_c, 15, 53, 49
17, 65159, Note_on_c, 15, 53, 0
17, 65160, Note_on_c, 15, 51, 50
17, 65219, Note_on_c, 15, 51, 0
17, 65220, Note_on_c, 15, 49, 52
17, 65279, Note_on_c, 15, 49, 0
17, 65280, Note_on_c, 15, 48, 54
17, 65339, Note_on_c, 15, 48, 0
17, 65340, Note_on_c, 15, 46, 55
17, 65399, Note_on_c, 15, 46, 0
17, 65400, Note_on_c, 15, 44, 57
17, 65459, Note_on_c, 15, 44, 0
17, 65460, Note_on_c, 15, 43, 59
17, 65519, Note_on_c, 15, 43, 0
17, 65520, Note_on_c, 15, 41, 60
17, 65579, Note_on_c, 15, 41, 0
17, 65580, Note_on_c, 15, 39, 62
17, 65639, Note_on_c, 15, 39, 0
17, 65640, Note_on_c, 15, 37, 64
17, 65699, Note_on_c, 15, 37, 0
17, 65700, Note_on_c, 15, 36, 65
17, 65759, Note_on_c, 15, 36, 0
17, 65760, Note_on_c, 15, 34, 67
17, 65819, Note_on_c, 15, 34, 0
17, 65820, Note_on_c, 15, 32, 69
17, 65879, Note_on_c, 15, 32, 0
17, 65880, Note_on_c, 15, 31, 70
17, 65939, Note_on_c, 15, 31, 0
17, 65940, Note_on_c, 15, 29, 72
17, 65999, Note_on_c, 15, 29, 0
17, 66000, Note_on_c, 15, 27, 74
17, 66059, Note_on_c, 15, 27, 0
17, 66060, Note_on_c, 15, 37, 75
17, 66119, Note_on_c, 15, 37, 0
17, 66120, Note_on_c, 15, 36, 77
17, 66179, Note_on_c, 15, 36, 0
17, 66180, Note_on_c, 15, 34, 79
17, 66239, Note_on_c, 15, 34, 0
17, 66240, Note_on_c, 15, 32, 80
17, 66299, Note_on_c, 15, 32, 0
17, 66300, Note_on_c, 15, 31, 82
17, 66355, Note_on_c, 15, 31, 0
17, 66360, Note_on_c, 15, 32, 84
17, 66385, Note_on_c, 15, 32, 0
17, 66390, Note_on_c, 15, 32, 84
17, 66415, Note_on_c, 15, 32, 0
17, 66420, Note_on_c, 15, 32, 84
17, 66445, Note_on_c, 15, 32, 0
17, 66450, Note_on_c, 15, 32, 84
17, 66475, Note_on_c, 15, 32, 0
17, 66480, Note_on_c, 15, 32, 84
17, 66505, Note_on_c, 15, 32, 0
17, 66510, Note_on_c, 15, 32, 84
17, 66535, Note_on_c, 15, 32, 0
17, 66540, Note_on_c, 15, 32, 84
17, 66565, Note_on_c, 15, 32, 0
17, 66570, Note_on_c, 15, 32, 84
17, 66595, Note_on_c, 15, 32, 0
17, 66600, Note_on_c, 15, 32, 84
17, 66625, Note_on_c, 15, 32, 0
17, 66630, Note_on_c, 15, 32, 84
17, 66655, Note_on_c, 15, 32, 0
17, 66660, Note_on_c, 15, 32, 84
17, 66685, Note_on_c, 15, 32, 0
17, 66690, Note_on_c, 15, 32, 84
17, 66715, Note_on_c, 15, 32, 0
17, 66720, Note_on_c, 15, 37, 84
17, 66745, Note_on_c, 15, 37, 0
17, 66750, Note_on_c, 15, 37, 84
17, 66775, Note_on_c, 15, 37, 0
17, 66780, Note_on_c, 15, 37, 84
17, 66805, Note_on_c, 15, 37, 0
17, 66810, Note_on_c, 15, 37, 84
17, 66835, Note_on_c, 15, 37, 0
17, 66840, Note_on_c, 15, 37, 84
17, 66865, Note_on_c, 15, 37, 0
17, 66870, Note_on_c, 15, 37, 84
17, 66895, Note_on_c, 15, 37, 0
17, 66900, Note_on_c, 15, 37, 84
17, 66925, Note_on_c, 15, 37, 0
17, 66930, Note_on_c, 15, 37, 84
17, 66955, Note_on_c, 15, 37, 0
17, 66960, Note_on_c, 15, 37, 84
17, 66985, Note_on_c, 15, 37, 0
17, 66990, Note_on_c, 15, 37, 84
17, 67015, Note_on_c, 15, 37, 0
17, 67020, Note_on_c, 15, 37, 84
17, 67045, Note_on_c, 15, 37, 0
17, 67050, Note_on_c, 15, 37, 84
17, 67075, Note_on_c, 15, 37, 0
17, 67080, Note_on_c, 15, 34, 84
17, 67105, Note_on_c, 15, 34, 0
17, 67110, Note_on_c, 15, 34, 84
17, 67135, Note_on_c, 15, 34, 0
17, 67140, Note_on_c, 15, 34, 84
17, 67165, Note_on_c, 15, 34, 0
17, 67170, Note_on_c, 15, 34, 84
17, 67195, Note_on_c, 15, 34, 0
17, 67200, Note_on_c, 15, 31, 84
17, 67225, Note_on_c, 15, 31, 0
17, 67230, Note_on_c, 15, 31, 84
17, 67255, Note_on_c, 15, 31, 0
17, 67260, Note_on_c, 15, 31, 84
17, 67285, Note_on_c, 15, 31, 0
17, 67290, Note_on_c, 15, 31, 84
17, 67315, Note_on_c, 15, 31, 0
17, 67320, Note_on_c, 15, 34, 84
17, 67345, Note_on_c, 15, 34, 0
17, 67350, Note_on_c, 15, 34, 84
17, 67375, Note_on_c, 15, 34, 0
17, 67380, Note_on_c, 15, 34, 84
17, 67405, Note_on_c, 15, 34, 0
17, 67410, Note_on_c, 15, 34, 84
17, 67435, Note_on_c, 15, 34, 0
17, 67440, Note_on_c, 15, 36, 84
17, 67465, Note_on_c, 15, 36, 0
17, 67470, Note_on_c, 15, 36, 84
17, 67495, Note_on_c, 15, 36, 0
17, 67500, Note_on_c, 15, 36, 84
17, 67525, Note_on_c, 15, 36, 0
17, 67530, Note_on_c, 15, 36, 84
17, 67555, Note_on_c, 15, 36, 0
17, 67560, Note_on_c, 15, 36, 84
17, 67585, Note_on_c, 15, 36, 0
17, 67590, Note_on_c, 15, 36, 84
17, 67615, Note_on_c, 15, 36, 0
17, 67620, Note_on_c, 15, 36, 84
17, 67645, Note_on_c, 15, 36, 0
17, 67650, Note_on_c, 15, 36, 84
17, 67675, Note_on_c, 15, 36, 0
17, 67680, Note_on_c, 15, 36, 84
17, 67705, Note_on_c, 15, 36, 0
17, 67710, Note_on_c, 15, 36, 84
17, 67735, Note_on_c, 15, 36, 0
17, 67740, Note_on_c, 15, 36, 84
17, 67765, Note_on_c, 15, 36, 0
17, 67770, Note_on_c, 15, 36, 84
17, 67795, Note_on_c, 15, 36, 0
17, 67800, Note_on_c, 15, 39, 84
17, 67825, Note_on_c, 15, 39, 0
17, 67830, Note_on_c, 15, 39, 84
17, 67855, Note_on_c, 15, 39, 0
17, 67860, Note_on_c, 15, 39, 84
17, 67885, Note_on_c, 15, 39, 0
17, 67890, Note_on_c, 15, 39, 84
17, 67915, Note_on_c, 15, 39, 0
17, 67920, Note_on_c, 15, 37, 84
17, 67945, Note_on_c, 15, 37, 0
17, 67950, Note_on_c, 15, 37, 84
17, 67975, Note_on_c, 15, 37, 0
17, 67980, Note_on_c, 15, 37, 84
17, 68005, Note_on_c, 15, 37, 0
17, 68010, Note_on_c, 15, 37, 84
17, 68035, Note_on_c, 15, 37, 0
17, 68040, Note_on_c, 15, 34, 84
17, 68065, Note_on_c, 15, 34, 0
17, 68070, Note_on_c, 15, 34, 84
17, 68095, Note_on_c, 15, 34, 0
17, 68100, Note_on_c, 15, 34, 84
17, 68125, Note_on_c, 15, 34, 0
17, 68130, Note_on_c, 15, 34, 84
17, 68155, Note_on_c, 15, 34, 0
17, 68160, Note_on_c, 15, 37, 84
17, 68185, Note_on_c, 15, 37, 0
17, 68190, Note_on_c, 15, 37, 84
17, 68215, Note_on_c, 15, 37, 0
17, 68220, Note_on_c, 15, 37, 84
17, 68245, Note_on_c, 15, 37, 0
17, 68250, Note_on_c, 15, 37, 84
17, 68275, Note_on_c, 15, 37, 0
17, 68280, Note_on_c, 15, 36, 84
17, 68305, Note_on_c, 15, 36, 0
17, 68310, Note_on_c, 15, 36, 84
17, 68335, Note_on_c, 15, 36, 0
17, 68340, Note_on_c, 15, 36, 84
17, 68365, Note_on_c, 15, 36, 0
17, 68370, Note_on_c, 15, 36, 84
17, 68395, Note_on_c, 15, 36, 0
17, 68400, Note_on_c, 15, 32, 84
17, 68425, Note_on_c, 15, 32, 0
17, 68430, Note_on_c, 15, 32, 84
17, 68455, Note_on_c, 15, 32, 0
17, 68460, Note_on_c, 15, 32, 84
17, 68485, Note_on_c, 15, 32, 0
17, 68490, Note_on_c, 15, 32, 84
17, 68515, Note_on_c, 15, 32, 0
17, 68520, Note_on_c, 15, 27, 84
17, 68545, Note_on_c, 15, 27, 0
17, 68550, Note_on_c, 15, 26, 84
17, 68575, Note_on_c, 15, 26, 0
17, 68580, Note_on_c, 15, 27, 84
17, 68605, Note_on_c, 15, 27, 0
17, 68610, Note_on_c, 15, 29, 84
17, 68635, Note_on_c, 15, 29, 0
17, 68640, Note_on_c, 15, 31, 84
17, 68665, Note_on_c, 15, 31, 0
17, 68670, Note_on_c, 15, 32, 84
17, 68695, Note_on_c, 15, 32, 0
17, 68700, Note_on_c, 15, 34, 84
17, 68725, Note_on_c, 15, 34, 0
17, 68730, Note_on_c, 15, 36, 84
17, 68755, Note_on_c, 15, 36, 0
17, 68760, Note_on_c, 15, 37, 84
17, 68785, Note_on_c, 15, 37, 0
17, 68790, Note_on_c, 15, 39, 84
17, 68815, Note_on_c, 15, 39, 0
17, 68820, Note_on_c, 15, 41, 84
17, 68845, Note_on_c, 15, 41, 0
17, 68850, Note_on_c, 15, 43, 84
17, 68875, Note_on_c, 15, 43, 0
17, 68880, Note_on_c, 15, 44, 84
17, 68999, Note_on_c, 15, 44, 0
17, 69120, Note_on_c, 15, 44, 84
17, 69205, Note_on_c, 15, 44, 0
17, 69210, Note_on_c, 15, 48, 84
17, 69235, Note_on_c, 15, 48, 0
17, 69240, Note_on_c, 15, 51, 92
17, 69299, Note_on_c, 15, 51, 0
17, 69300, Note_on_c, 15, 51, 84
17, 69595, Note_on_c, 15, 51, 0
17, 69600, Note_on_c, 15, 48, 84
17, 69625, Note_on_c, 15, 48, 0
17, 69630, Note_on_c, 15, 32, 84
17, 69655, Note_on_c, 15, 32, 0
17, 69660, Note_on_c, 15, 34, 84
17, 69685, Note_on_c, 15, 34, 0
17, 69690, Note_on_c, 15, 36, 84
17, 69715, Note_on_c, 15, 36, 0
17, 69720, Note_on_c, 15, 37, 84
17, 69745, Note_on_c, 15, 37, 0
17, 69750, Note_on_c, 15, 39, 84
17, 69775, Note_on_c, 15, 39, 0
17, 69780, Note_on_c, 15, 41, 84
17, 69805, Note_on_c, 15, 41, 0
17, 69810, Note_on_c, 15, 43, 84
17, 69835, Note_on_c, 15, 43, 0
17, 69840, Note_on_c, 15, 44, 84
17, 69865, Note_on_c, 15, 44, 0
17, 69870, Note_on_c, 15, 46, 84
17, 69895, Note_on_c, 15, 46, 0
17, 69900, Note_on_c, 15, 48, 84
17, 69925, Note_on_c, 15, 48, 0
17, 69930, Note_on_c, 15, 49, 84
17, 69955, Note_on_c, 15, 49, 0
17, 69960, Note_on_c, 15, 51, 84
17, 70079, Note_on_c, 15, 51, 0
17, 71760, Note_on_c, 15, 41, 52
17, 72111, Note_on_c, 15, 41, 0
17, 72120, Note_on_c, 15, 36, 52
17, 72471, Note_on_c, 15, 36, 0
17, 72480, Note_on_c, 15, 39, 52
17, 72591, Note_on_c, 15, 39, 0
17, 72600, Note_on_c, 15, 39, 52
17, 72711, Note_on_c, 15, 39, 0
17, 72720, Note_on_c, 15, 39, 52
17, 72831, Note_on_c, 15, 39, 0
17, 72840, Note_on_c, 15, 32, 52
17, 72959, Note_on_c, 15, 32, 0
17, 73080, Note_on_c, 15, 39, 52
17, 73199, Note_on_c, 15, 39, 0
17, 73200, Note_on_c, 15, 32, 52
17, 73319, Note_on_c, 15, 32, 0
17, 73440, Note_on_c, 15, 27, 52
17, 73559, Note_on_c, 15, 27, 0
17, 73560, Note_on_c, 15, 32, 52
17, 73619, Note_on_c, 15, 32, 0
17, 73680, Note_on_c, 15, 32, 44
17, 73739, Note_on_c, 15, 32, 0
17, 73800, Note_on_c, 15, 32, 44
17, 73859, Note_on_c, 15, 32, 0
17, 73920, Note_on_c, 15, 32, 44
17, 73979, Note_on_c, 15, 32, 0
17, 74040, Note_on_c, 15, 32, 44
17, 74099, Note_on_c, 15, 32, 0
17, 74160, Note_on_c, 15, 32, 44
17, 74219, Note_on_c, 15, 32, 0
17, 74280, Note_on_c, 15, 32, 44
17, 74339, Note_on_c, 15, 32, 0
17, 74400, Note_on_c, 15, 32, 44
17, 74459, Note_on_c, 15, 32, 0
17, 74520, Note_on_c, 15, 32, 44
17, 74579, Note_on_c, 15, 32, 0
17, 74640, Note_on_c, 15, 32, 44
17, 74699, Note_on_c, 15, 32, 0
17, 74760, Note_on_c, 15, 32, 44
17, 74819, Note_on_c, 15, 32, 0
17, 74880, Note_on_c, 15, 32, 44
17, 74939, Note_on_c, 15, 32, 0
17, 75000, Note_on_c, 15, 32, 44
17, 75059, Note_on_c, 15, 32, 0
17, 75120, Note_on_c, 15, 32, 44
17, 75179, Note_on_c, 15, 32, 0
17, 75240, Note_on_c, 15, 32, 44
17, 75299, Note_on_c, 15, 32, 0
17, 75360, Note_on_c, 15, 32, 44
17, 75419, Note_on_c, 15, 32, 0
17, 75480, Note_on_c, 15, 32, 44
17, 75539, Note_on_c, 15, 32, 0
17, 75600, Note_on_c, 15, 32, 44
17, 75659, Note_on_c, 15, 32, 0
17, 75720, Note_on_c, 15, 32, 44
17, 75779, Note_on_c, 15, 32, 0
17, 75840, Note_on_c, 15, 32, 44
17, 75899, Note_on_c, 15, 32, 0
17, 75960, Note_on_c, 15, 32, 44
17, 76019, Note_on_c, 15, 32, 0
17, 76080, Note_on_c, 15, 32, 44
17, 76139, Note_on_c, 15, 32, 0
17, 76200, Note_on_c, 15, 32, 44
17, 76259, Note_on_c, 15, 32, 0
17, 76320, Note_on_c, 15, 32, 44
17, 76379, Note_on_c, 15, 32, 0
17, 76440, Note_on_c, 15, 32, 44
17, 76559, Note_on_c, 15, 32, 0
17, 77040, Note_on_c, 15, 39, 76
17, 77159, Note_on_c, 15, 39, 0
17, 77160, Note_on_c, 15, 44, 76
17, 77279, Note_on_c, 15, 44, 0
17, 77760, Note_on_c, 15, 39, 76
17, 77879, Note_on_c, 15, 39, 0
17, 77880, Note_on_c, 15, 44, 76
17, 77999, Note_on_c, 15, 44, 0
17, 78160, Note_on_c, 15, 32, 76
17, 78199, Note_on_c, 15, 32, 0
17, 78200, Note_on_c, 15, 36, 76
17, 78235, Note_on_c, 15, 36, 0
17, 78240, Note_on_c, 15, 39, 84
17, 78279, Note_on_c, 15, 39, 0
17, 78280, Note_on_c, 15, 44, 84
17, 78319, Note_on_c, 15, 44, 0
17, 78320, Note_on_c, 15, 48, 84
17, 78355, Note_on_c, 15, 48, 0
17, 78360, Note_on_c, 15, 51, 84
17, 78479, Note_on_c, 15, 51, 0
17, 80280, Control_c, 15, 11, 80
17, 80400, Control_c, 15, 11, 80
17, 80400, Note_on_c, 15, 41, 76
17, 80415, Control_c, 15, 11, 82
17, 80430, Control_c, 15, 11, 84
17, 80445, Control_c, 15, 11, 86
17, 80460, Control_c, 15, 11, 88
17, 80475, Control_c, 15, 11, 90
17, 80490, Control_c, 15, 11, 92
17, 80505, Control_c, 15, 11, 94
17, 80520, Control_c, 15, 11, 96
17, 80535, Control_c, 15, 11, 98
17, 80550, Control_c, 15, 11, 100
17, 80565, Control_c, 15, 11, 102
17, 80580, Control_c, 15, 11, 104
17, 80595, Control_c, 15, 11, 105
17, 80610, Control_c, 15, 11, 107
17, 80625, Control_c, 15, 11, 109
17, 80640, Control_c, 15, 11, 111
17, 80655, Control_c, 15, 11, 113
17, 80670, Control_c, 15, 11, 115
17, 80685, Control_c, 15, 11, 117
17, 80700, Control_c, 15, 11, 119
17, 80715, Control_c, 15, 11, 121
17, 80730, Control_c, 15, 11, 123
17, 80745, Control_c, 15, 11, 127
17, 80751, Note_on_c, 15, 41, 0
17, 80760, Note_on_c, 15, 37, 76
17, 80879, Note_on_c, 15, 37, 0
17, 80880, Note_on_c, 15, 44, 84
17, 80939, Note_on_c, 15, 44, 0
17, 80940, Note_on_c, 15, 44, 76
17, 81051, Note_on_c, 15, 44, 0
17, 81060, Note_on_c, 15, 44, 76
17, 81115, Note_on_c, 15, 44, 0
17, 81120, Note_on_c, 15, 46, 76
17, 81239, Note_on_c, 15, 46, 0
17, 81240, Note_on_c, 15, 48, 84
17, 81299, Note_on_c, 15, 48, 0
17, 81300, Control_c, 15, 11, 127
17, 81300, Note_on_c, 15, 48, 76
17, 81310, Control_c, 15, 11, 124
17, 81320, Control_c, 15, 11, 122
17, 81330, Control_c, 15, 11, 119
17, 81340, Control_c, 15, 11, 117
17, 81350, Control_c, 15, 11, 114
17, 81360, Control_c, 15, 11, 111
17, 81370, Control_c, 15, 11, 109
17, 81380, Control_c, 15, 11, 106
17, 81390, Control_c, 15, 11, 104
17, 81400, Control_c, 15, 11, 101
17, 81410, Control_c, 15, 11, 98
17, 81411, Note_on_c, 15, 48, 0
17, 81420, Control_c, 15, 11, 96
17, 81420, Note_on_c, 15, 36, 76
17, 81430, Control_c, 15, 11, 93
17, 81440, Control_c, 15, 11, 90
17, 81450, Control_c, 15, 11, 88
17, 81460, Control_c, 15, 11, 85
17, 81470, Control_c, 15, 11, 80
17, 81475, Note_on_c, 15, 36, 0
17, 81480, Note_on_c, 15, 37, 76
17, 81599, Note_on_c, 15, 37, 0
17, 81720, Control_c, 15, 11, 127
17, 81840, Note_on_c, 15, 39, 44
17, 81959, Note_on_c, 15, 39, 0
17, 82200, Note_on_c, 15, 32, 44
17, 82559, Note_on_c, 15, 32, 0
17, 82560, Note_on_c, 15, 32, 44
17, 82791, Note_on_c, 15, 32, 0
17, 82800, Note_on_c, 15, 32, 44
17, 82885, Note_on_c, 15, 32, 0
17, 82890, Note_on_c, 15, 32, 44
17, 82915, Note_on_c, 15, 32, 0
17, 82920, Note_on_c, 15, 32, 44
17, 83279, Note_on_c, 15, 32, 0
17, 83280, Note_on_c, 15, 32, 44
17, 83511, Note_on_c, 15, 32, 0
17, 83520, Note_on_c, 15, 32, 44
17, 83605, Note_on_c, 15, 32, 0
17, 83610, Note_on_c, 15, 32, 44
17, 83635, Note_on_c, 15, 32, 0
17, 83640, Note_on_c, 15, 32, 44
17, 83999, Note_on_c, 15, 32, 0
17, 84000, Note_on_c, 15, 32, 44
17, 84359, Note_on_c, 15, 32, 0
17, 84360, Note_on_c, 15, 32, 44
17, 84591, Note_on_c, 15, 32, 0
17, 84598, Control_c, 15, 11, 64
17, 84600, Control_c, 15, 11, 64
17, 84600, Note_on_c, 15, 36, 76
17, 84619, Control_c, 15, 11, 65
17, 84638, Control_c, 15, 11, 66
17, 84657, Control_c, 15, 11, 67
17, 84676, Control_c, 15, 11, 68
17, 84689, Note_on_c, 15, 36, 0
17, 84690, Note_on_c, 15, 39, 76
17, 84695, Control_c, 15, 11, 69
17, 84714, Control_c, 15, 11, 70
17, 84719, Note_on_c, 15, 39, 0
17, 84720, Note_on_c, 15, 44, 76
17, 84733, Control_c, 15, 11, 71
17, 84752, Control_c, 15, 11, 72
17, 84771, Control_c, 15, 11, 73
17, 84790, Control_c, 15, 11, 74
17, 84810, Control_c, 15, 11, 75
17, 84829, Control_c, 15, 11, 76
17, 84848, Control_c, 15, 11, 77
17, 84867, Control_c, 15, 11, 78
17, 84886, Control_c, 15, 11, 79
17, 84905, Control_c, 15, 11, 80
17, 84924, Control_c, 15, 11, 81
17, 84943, Control_c, 15, 11, 82
17, 84951, Note_on_c, 15, 44, 0
17, 84960, Note_on_c, 15, 36, 76
17, 84962, Control_c, 15, 11, 83
17, 84981, Control_c, 15, 11, 84
17, 85000, Control_c, 15, 11, 85
17, 85019, Control_c, 15, 11, 86
17, 85038, Control_c, 15, 11, 87
17, 85049, Note_on_c, 15, 36, 0
17, 85050, Note_on_c, 15, 39, 76
17, 85057, Control_c, 15, 11, 88
17, 85076, Control_c, 15, 11, 89
17, 85079, Note_on_c, 15, 39, 0
17, 85080, Note_on_c, 15, 44, 76
17, 85095, Control_c, 15, 11, 90
17, 85114, Control_c, 15, 11, 91
17, 85133, Control_c, 15, 11, 92
17, 85152, Control_c, 15, 11, 93
17, 85171, Control_c, 15, 11, 94
17, 85190, Control_c, 15, 11, 95
17, 85191, Note_on_c, 15, 44, 0
17, 85200, Note_on_c, 15, 36, 76
17, 85210, Control_c, 15, 11, 96
17, 85229, Control_c, 15, 11, 97
17, 85248, Control_c, 15, 11, 98
17, 85267, Control_c, 15, 11, 99
17, 85286, Control_c, 15, 11, 100
17, 85289, Note_on_c, 15, 36, 0
17, 85290, Note_on_c, 15, 39, 76
17, 85305, Control_c, 15, 11, 101
17, 85319, Note_on_c, 15, 39, 0
17, 85320, Note_on_c, 15, 44, 76
17, 85324, Control_c, 15, 11, 102
17, 85343, Control_c, 15, 11, 103
17, 85362, Control_c, 15, 11, 104
17, 85381, Control_c, 15, 11, 105
17, 85400, Control_c, 15, 11, 106
17, 85419, Control_c, 15, 11, 107
17, 85431, Note_on_c, 15, 44, 0
17, 85438, Control_c, 15, 11, 108
17, 85440, Note_on_c, 15, 36, 76
17, 85457, Control_c, 15, 11, 109
17, 85476, Control_c, 15, 11, 110
17, 85495, Control_c, 15, 11, 111
17, 85514, Control_c, 15, 11, 112
17, 85529, Note_on_c, 15, 36, 0
17, 85530, Note_on_c, 15, 39, 76
17, 85533, Control_c, 15, 11, 113
17, 85552, Control_c, 15, 11, 114
17, 85559, Note_on_c, 15, 39, 0
17, 85560, Note_on_c, 15, 44, 76
17, 85571, Control_c, 15, 11, 115
17, 85590, Control_c, 15, 11, 116
17, 85610, Control_c, 15, 11, 117
17, 85629, Control_c, 15, 11, 118
17, 85648, Control_c, 15, 11, 119
17, 85667, Control_c, 15, 11, 120
17, 85671, Note_on_c, 15, 44, 0
17, 85680, Note_on_c, 15, 36, 76
17, 85686, Control_c, 15, 11, 121
17, 85705, Control_c, 15, 11, 122
17, 85724, Control_c, 15, 11, 123
17, 85743, Control_c, 15, 11, 124
17, 85762, Control_c, 15, 11, 125
17, 85769, Note_on_c, 15, 36, 0
17, 85770, Note_on_c, 15, 39, 76
17, 85781, Control_c, 15, 11, 127
17, 85799, Note_on_c, 15, 39, 0
17, 85800, Note_on_c, 15, 44, 76
17, 85831, Note_on_c, 15, 44, 0
17, 85840, Note_on_c, 15, 36, 76
17, 85871, Note_on_c, 15, 36, 0
17, 85880, Note_on_c, 15, 39, 76
17, 85911, Note_on_c, 15, 39, 0
17, 85920, Note_on_c, 15, 44, 76
17, 85951, Note_on_c, 15, 44, 0
17, 85960, Note_on_c, 15, 36, 76
17, 85991, Note_on_c, 15, 36, 0
17, 86000, Note_on_c, 15, 39, 76
17, 86031, Note_on_c, 15, 39, 0
17, 86040, Note_on_c, 15, 44, 76
17, 86071, Note_on_c, 15, 44, 0
17, 86080, Note_on_c, 15, 36, 76
17, 86111, Note_on_c, 15, 36, 0
17, 86120, Note_on_c, 15, 39, 76
17, 86151, Note_on_c, 15, 39, 0
17, 86160, Note_on_c, 15, 44, 76
17, 86191, Note_on_c, 15, 44, 0
17, 86200, Note_on_c, 15, 36, 76
17, 86231, Note_on_c, 15, 36, 0
17, 86240, Note_on_c, 15, 39, 76
17, 86271, Note_on_c, 15, 39, 0
17, 86280, Note_on_c, 15, 32, 76
17, 86311, Note_on_c, 15, 32, 0
17, 86320, Note_on_c, 15, 36, 76
17, 86351, Note_on_c, 15, 36, 0
17, 86360, Note_on_c, 15, 39, 76
17, 86391, Note_on_c, 15, 39, 0
17, 86400, Note_on_c, 15, 44, 76
17, 86431, Note_on_c, 15, 44, 0
17, 86440, Note_on_c, 15, 44, 76
17, 86471, Note_on_c, 15, 44, 0
17, 86480, Note_on_c, 15, 44, 76
17, 86511, Note_on_c, 15, 44, 0
17, 86520, Note_on_c, 15, 44, 76
17, 86551, Note_on_c, 15, 44, 0
17, 86560, Note_on_c, 15, 44, 76
17, 86591, Note_on_c, 15, 44, 0
17, 86600, Note_on_c, 15, 44, 76
17, 86631, Note_on_c, 15, 44, 0
17, 86640, Note_on_c, 15, 39, 76
17, 86671, Note_on_c, 15, 39, 0
17, 86680, Note_on_c, 15, 39, 76
17, 86711, Note_on_c, 15, 39, 0
17, 86720, Note_on_c, 15, 39, 76
17, 86751, Note_on_c, 15, 39, 0
17, 86760, Note_on_c, 15, 36, 76
17, 86791, Note_on_c, 15, 36, 0
17, 86800, Note_on_c, 15, 36, 76
17, 86831, Note_on_c, 15, 36, 0
17, 86840, Note_on_c, 15, 36, 76
17, 86871, Note_on_c, 15, 36, 0
17, 86880, Note_on_c, 15, 32, 84
17, 86999, Note_on_c, 15, 32, 0
17, 87240, Note_on_c, 15, 39, 84
17, 87359, Note_on_c, 15, 39, 0
17, 87600, Note_on_c, 15, 44, 84
17, 87719, Note_on_c, 15, 44, 0
17, 87840, Note_on_c, 15, 39, 52
17, 87929, Note_on_c, 15, 39, 0
17, 87960, Note_on_c, 15, 44, 52
17, 88049, Note_on_c, 15, 44, 0
17, 88320, Note_on_c, 15, 39, 84
17, 88439, Note_on_c, 15, 39, 0
17, 88680, Note_on_c, 15, 32, 84
17, 88799, Note_on_c, 15, 32, 0
17, 88799, End_track
18, 0, Start_track
18, 0, Title_t, "Ludwig van Beethoven - Symphony No. 5, Op.67 - No. 2 Andante con moto"
18, 0, MIDI_port, 0
18, 0, End_track
0, 0, End_of_file
