0, 0, Header, 1, 18, 240
1, 0, Start_track
1, 0, Sequencer_specific, 10, 0, 0, 91, 35, 1, 0, 5, 6, 42, 0
1, 0, Title_t, "Ludwig van Beethoven - Symphony No. 2 in D Major, Op.36"
1, 0, Instrument_name_t, "Conductor Track"
1, 0, SMPTE_offset, 96, 0, 3, 0, 0
1, 0, MIDI_port, 0
1, 0, Marker_t, "Originally Sequenced 15 Sep 1998"
1, 0, Key_signature, 2, "major"
1, 0, Tempo, 200000
1, 0, Time_signature, 3, 2, 24, 8
1, 120720, Tempo, 217391
1, 187200, Tempo, 200000
1, 307680, Tempo, 500000
1, 310080, Tempo, 197368
1, 310080, End_track
2, 0, Start_track
2, 0, Title_t, "3rd Movement - Alllegro"
2, 0, MIDI_port, 0
2, 0, End_track
3, 0, Start_track
3, 0, Title_t, "Sequenced by D. L. Viens 26 Feb 2000"
3, 0, MIDI_port, 0
3, 0, End_track
4, 0, Start_track
4, 0, Title_t, "dlviens@empire.net"
4, 0, MIDI_port, 0
4, 0, End_track
5, 0, Start_track
5, 0, MIDI_port, 0
5, 0, End_track
6, 0, Start_track
6, 0, Title_t, "Flute"
6, 0, MIDI_port, 0
6, 0, Program_c, 0, 73
6, 0, Control_c, 0, 7, 88
6, 0, Control_c, 0, 10, 60
6, 0, Control_c, 0, 11, 127
6, 0, Note_on_c, 0, 74, 76
6, 719, Note_on_c, 0, 74, 0
6, 1440, Note_on_c, 0, 74, 76
6, 1440, Note_on_c, 0, 76, 76
6, 2159, Note_on_c, 0, 74, 0
6, 2159, Note_on_c, 0, 76, 0
6, 5040, Note_on_c, 0, 86, 84
6, 5040, Note_on_c, 0, 78, 84
6, 5219, Note_on_c, 0, 86, 0
6, 5219, Note_on_c, 0, 78, 0
6, 5280, Note_on_c, 0, 79, 84
6, 5280, Note_on_c, 0, 85, 84
6, 5459, Note_on_c, 0, 79, 0
6, 5459, Note_on_c, 0, 85, 0
6, 5520, Note_on_c, 0, 78, 84
6, 5520, Note_on_c, 0, 86, 84
6, 5699, Note_on_c, 0, 78, 0
6, 5699, Note_on_c, 0, 86, 0
6, 5760, Note_on_c, 0, 74, 76
6, 6479, Note_on_c, 0, 74, 0
6, 7200, Note_on_c, 0, 76, 76
6, 7200, Note_on_c, 0, 74, 76
6, 7919, Note_on_c, 0, 76, 0
6, 7919, Note_on_c, 0, 74, 0
6, 10080, Note_on_c, 0, 85, 52
6, 10259, Note_on_c, 0, 85, 0
6, 10320, Note_on_c, 0, 83, 52
6, 10499, Note_on_c, 0, 83, 0
6, 10560, Note_on_c, 0, 81, 52
6, 10739, Note_on_c, 0, 81, 0
6, 10800, Note_on_c, 0, 85, 84
6, 10800, Note_on_c, 0, 88, 84
6, 10979, Note_on_c, 0, 85, 0
6, 10979, Note_on_c, 0, 88, 0
6, 11040, Note_on_c, 0, 83, 84
6, 11040, Note_on_c, 0, 88, 84
6, 11219, Note_on_c, 0, 83, 0
6, 11219, Note_on_c, 0, 88, 0
6, 11280, Note_on_c, 0, 88, 84
6, 11280, Note_on_c, 0, 85, 84
6, 11459, Note_on_c, 0, 88, 0
6, 11459, Note_on_c, 0, 85, 0
6, 11520, Note_on_c, 0, 74, 76
6, 12239, Note_on_c, 0, 74, 0
6, 12960, Note_on_c, 0, 74, 76
6, 12960, Note_on_c, 0, 76, 76
6, 13679, Note_on_c, 0, 74, 0
6, 13679, Note_on_c, 0, 76, 0
6, 16560, Note_on_c, 0, 86, 84
6, 16560, Note_on_c, 0, 78, 84
6, 16739, Note_on_c, 0, 86, 0
6, 16739, Note_on_c, 0, 78, 0
6, 16800, Note_on_c, 0, 79, 84
6, 16800, Note_on_c, 0, 85, 84
6, 16979, Note_on_c, 0, 79, 0
6, 16979, Note_on_c, 0, 85, 0
6, 17040, Note_on_c, 0, 86, 84
6, 17040, Note_on_c, 0, 78, 84
6, 17219, Note_on_c, 0, 86, 0
6, 17219, Note_on_c, 0, 78, 0
6, 17280, Note_on_c, 0, 74, 76
6, 17999, Note_on_c, 0, 74, 0
6, 18720, Note_on_c, 0, 76, 76
6, 18720, Note_on_c, 0, 74, 76
6, 19439, Note_on_c, 0, 76, 0
6, 19439, Note_on_c, 0, 74, 0
6, 21600, Note_on_c, 0, 85, 52
6, 21779, Note_on_c, 0, 85, 0
6, 21840, Note_on_c, 0, 83, 52
6, 22019, Note_on_c, 0, 83, 0
6, 22080, Note_on_c, 0, 81, 52
6, 22259, Note_on_c, 0, 81, 0
6, 22320, Note_on_c, 0, 85, 84
6, 22320, Note_on_c, 0, 88, 84
6, 22499, Note_on_c, 0, 85, 0
6, 22499, Note_on_c, 0, 88, 0
6, 22560, Note_on_c, 0, 88, 84
6, 22560, Note_on_c, 0, 83, 84
6, 22739, Note_on_c, 0, 88, 0
6, 22739, Note_on_c, 0, 83, 0
6, 22800, Note_on_c, 0, 85, 84
6, 22800, Note_on_c, 0, 88, 84
6, 22979, Note_on_c, 0, 85, 0
6, 22979, Note_on_c, 0, 88, 0
6, 28560, Note_on_c, 0, 81, 52
6, 28799, Note_on_c, 0, 81, 0
6, 28800, Note_on_c, 0, 82, 52
6, 28979, Note_on_c, 0, 82, 0
6, 29040, Note_on_c, 0, 89, 76
6, 29160, Control_c, 0, 11, 80
6, 29969, Note_on_c, 0, 89, 0
6, 30000, Note_on_c, 0, 86, 76
6, 30119, Note_on_c, 0, 86, 0
6, 30120, Note_on_c, 0, 82, 76
6, 30209, Note_on_c, 0, 82, 0
6, 30240, Note_on_c, 0, 81, 76
6, 30359, Note_on_c, 0, 81, 0
6, 30360, Note_on_c, 0, 84, 76
6, 30479, Note_on_c, 0, 84, 0
6, 30480, Note_on_c, 0, 87, 76
6, 30599, Note_on_c, 0, 87, 0
6, 30600, Note_on_c, 0, 86, 76
6, 30719, Note_on_c, 0, 86, 0
6, 30720, Note_on_c, 0, 84, 76
6, 30839, Note_on_c, 0, 84, 0
6, 30840, Note_on_c, 0, 82, 76
6, 30959, Note_on_c, 0, 82, 0
6, 30960, Note_on_c, 0, 81, 76
6, 31079, Note_on_c, 0, 81, 0
6, 31080, Note_on_c, 0, 79, 76
6, 31199, Note_on_c, 0, 79, 0
6, 31200, Note_on_c, 0, 77, 76
6, 31319, Note_on_c, 0, 77, 0
6, 31320, Note_on_c, 0, 75, 76
6, 31439, Note_on_c, 0, 75, 0
6, 31440, Note_on_c, 0, 74, 76
6, 31559, Note_on_c, 0, 74, 0
6, 31560, Note_on_c, 0, 72, 76
6, 31649, Note_on_c, 0, 72, 0
6, 31680, Note_on_c, 0, 70, 76
6, 31919, Note_on_c, 0, 70, 0
6, 38160, Control_c, 0, 11, 127
6, 38880, Note_on_c, 0, 74, 76
6, 39599, Note_on_c, 0, 74, 0
6, 40320, Note_on_c, 0, 76, 76
6, 40320, Note_on_c, 0, 74, 76
6, 41039, Note_on_c, 0, 76, 0
6, 41039, Note_on_c, 0, 74, 0
6, 43920, Note_on_c, 0, 78, 52
6, 43920, Note_on_c, 0, 86, 52
6, 44099, Note_on_c, 0, 78, 0
6, 44099, Note_on_c, 0, 86, 0
6, 44160, Note_on_c, 0, 85, 52
6, 44160, Note_on_c, 0, 76, 52
6, 44339, Note_on_c, 0, 85, 0
6, 44339, Note_on_c, 0, 76, 0
6, 44400, Note_on_c, 0, 78, 52
6, 44400, Note_on_c, 0, 86, 52
6, 44579, Note_on_c, 0, 78, 0
6, 44579, Note_on_c, 0, 86, 0
6, 44640, Note_on_c, 0, 74, 76
6, 45359, Note_on_c, 0, 74, 0
6, 46080, Note_on_c, 0, 74, 76
6, 46080, Note_on_c, 0, 76, 76
6, 46799, Note_on_c, 0, 74, 0
6, 46799, Note_on_c, 0, 76, 0
6, 60480, Note_on_c, 0, 81, 52
6, 61169, Note_on_c, 0, 81, 0
6, 61200, Note_on_c, 0, 86, 52
6, 61379, Note_on_c, 0, 86, 0
6, 61440, Note_on_c, 0, 85, 52
6, 61619, Note_on_c, 0, 85, 0
6, 61680, Note_on_c, 0, 86, 52
6, 61859, Note_on_c, 0, 86, 0
6, 67680, Note_on_c, 0, 85, 84
6, 68369, Note_on_c, 0, 85, 0
6, 68400, Note_on_c, 0, 86, 76
6, 68639, Note_on_c, 0, 86, 0
6, 69120, Note_on_c, 0, 85, 84
6, 69120, Note_on_c, 0, 81, 84
6, 70079, Note_on_c, 0, 85, 0
6, 70079, Note_on_c, 0, 81, 0
6, 70080, Note_on_c, 0, 83, 84
6, 70080, Note_on_c, 0, 86, 84
6, 70319, Note_on_c, 0, 83, 0
6, 70319, Note_on_c, 0, 86, 0
6, 70320, Note_on_c, 0, 88, 84
6, 70320, Note_on_c, 0, 85, 84
6, 70529, Note_on_c, 0, 88, 0
6, 70529, Note_on_c, 0, 85, 0
6, 70560, Note_on_c, 0, 78, 84
6, 70560, Note_on_c, 0, 90, 84
6, 70799, Note_on_c, 0, 78, 0
6, 70799, Note_on_c, 0, 90, 0
6, 71040, Note_on_c, 0, 85, 84
6, 71219, Note_on_c, 0, 85, 0
6, 71280, Note_on_c, 0, 86, 84
6, 71459, Note_on_c, 0, 86, 0
6, 77520, Note_on_c, 0, 81, 52
6, 77759, Note_on_c, 0, 81, 0
6, 77760, Note_on_c, 0, 82, 52
6, 77939, Note_on_c, 0, 82, 0
6, 78000, Note_on_c, 0, 89, 76
6, 78120, Control_c, 0, 11, 80
6, 78929, Note_on_c, 0, 89, 0
6, 78960, Note_on_c, 0, 86, 76
6, 79079, Note_on_c, 0, 86, 0
6, 79080, Note_on_c, 0, 82, 76
6, 79169, Note_on_c, 0, 82, 0
6, 79200, Note_on_c, 0, 81, 76
6, 79319, Note_on_c, 0, 81, 0
6, 79320, Note_on_c, 0, 84, 76
6, 79439, Note_on_c, 0, 84, 0
6, 79440, Note_on_c, 0, 87, 76
6, 79559, Note_on_c, 0, 87, 0
6, 79560, Note_on_c, 0, 86, 76
6, 79679, Note_on_c, 0, 86, 0
6, 79680, Note_on_c, 0, 84, 76
6, 79799, Note_on_c, 0, 84, 0
6, 79800, Note_on_c, 0, 82, 76
6, 79919, Note_on_c, 0, 82, 0
6, 79920, Note_on_c, 0, 81, 76
6, 80039, Note_on_c, 0, 81, 0
6, 80040, Note_on_c, 0, 79, 76
6, 80159, Note_on_c, 0, 79, 0
6, 80160, Note_on_c, 0, 77, 76
6, 80279, Note_on_c, 0, 77, 0
6, 80280, Note_on_c, 0, 75, 76
6, 80399, Note_on_c, 0, 75, 0
6, 80400, Note_on_c, 0, 74, 76
6, 80519, Note_on_c, 0, 74, 0
6, 80520, Note_on_c, 0, 72, 76
6, 80609, Note_on_c, 0, 72, 0
6, 80640, Note_on_c, 0, 70, 76
6, 80879, Note_on_c, 0, 70, 0
6, 87120, Control_c, 0, 11, 127
6, 87840, Note_on_c, 0, 74, 76
6, 88559, Note_on_c, 0, 74, 0
6, 89280, Note_on_c, 0, 74, 76
6, 89280, Note_on_c, 0, 76, 76
6, 89999, Note_on_c, 0, 74, 0
6, 89999, Note_on_c, 0, 76, 0
6, 92880, Note_on_c, 0, 86, 52
6, 92880, Note_on_c, 0, 78, 52
6, 93059, Note_on_c, 0, 86, 0
6, 93059, Note_on_c, 0, 78, 0
6, 93120, Note_on_c, 0, 76, 52
6, 93120, Note_on_c, 0, 85, 52
6, 93299, Note_on_c, 0, 76, 0
6, 93299, Note_on_c, 0, 85, 0
6, 93360, Note_on_c, 0, 78, 52
6, 93360, Note_on_c, 0, 86, 52
6, 93539, Note_on_c, 0, 78, 0
6, 93539, Note_on_c, 0, 86, 0
6, 93600, Note_on_c, 0, 74, 76
6, 94319, Note_on_c, 0, 74, 0
6, 95040, Note_on_c, 0, 76, 76
6, 95040, Note_on_c, 0, 74, 76
6, 95759, Note_on_c, 0, 76, 0
6, 95759, Note_on_c, 0, 74, 0
6, 109440, Note_on_c, 0, 81, 52
6, 110129, Note_on_c, 0, 81, 0
6, 110160, Note_on_c, 0, 86, 52
6, 110339, Note_on_c, 0, 86, 0
6, 110400, Note_on_c, 0, 85, 52
6, 110579, Note_on_c, 0, 85, 0
6, 110640, Note_on_c, 0, 86, 52
6, 110819, Note_on_c, 0, 86, 0
6, 116640, Note_on_c, 0, 85, 84
6, 117329, Note_on_c, 0, 85, 0
6, 117360, Note_on_c, 0, 86, 76
6, 117599, Note_on_c, 0, 86, 0
6, 118080, Note_on_c, 0, 85, 84
6, 118080, Note_on_c, 0, 81, 84
6, 119039, Note_on_c, 0, 85, 0
6, 119039, Note_on_c, 0, 81, 0
6, 119040, Note_on_c, 0, 86, 84
6, 119040, Note_on_c, 0, 83, 84
6, 119279, Note_on_c, 0, 86, 0
6, 119279, Note_on_c, 0, 83, 0
6, 119280, Note_on_c, 0, 88, 84
6, 119280, Note_on_c, 0, 85, 84
6, 119489, Note_on_c, 0, 88, 0
6, 119489, Note_on_c, 0, 85, 0
6, 119520, Note_on_c, 0, 90, 84
6, 119520, Note_on_c, 0, 78, 84
6, 119759, Note_on_c, 0, 90, 0
6, 119759, Note_on_c, 0, 78, 0
6, 120000, Note_on_c, 0, 85, 84
6, 120179, Note_on_c, 0, 85, 0
6, 120240, Note_on_c, 0, 86, 84
6, 120419, Note_on_c, 0, 86, 0
6, 142560, Note_on_c, 0, 81, 84
6, 143969, Note_on_c, 0, 81, 0
6, 144000, Note_on_c, 0, 78, 52
6, 144239, Note_on_c, 0, 78, 0
6, 158160, Note_on_c, 0, 81, 52
6, 158160, Note_on_c, 0, 85, 52
6, 158339, Note_on_c, 0, 81, 0
6, 158339, Note_on_c, 0, 85, 0
6, 158400, Note_on_c, 0, 86, 52
6, 158400, Note_on_c, 0, 90, 52
6, 158639, Note_on_c, 0, 86, 0
6, 158639, Note_on_c, 0, 90, 0
6, 158640, Note_on_c, 0, 88, 52
6, 158640, Note_on_c, 0, 91, 52
6, 158849, Note_on_c, 0, 88, 0
6, 158849, Note_on_c, 0, 91, 0
6, 158880, Note_on_c, 0, 88, 52
6, 158880, Note_on_c, 0, 85, 52
6, 159059, Note_on_c, 0, 88, 0
6, 159059, Note_on_c, 0, 85, 0
6, 159120, Note_on_c, 0, 86, 52
6, 159359, Note_on_c, 0, 86, 0
6, 169920, Note_on_c, 0, 81, 84
6, 171329, Note_on_c, 0, 81, 0
6, 171360, Note_on_c, 0, 78, 52
6, 171599, Note_on_c, 0, 78, 0
6, 185520, Note_on_c, 0, 81, 52
6, 185520, Note_on_c, 0, 85, 52
6, 185699, Note_on_c, 0, 81, 0
6, 185699, Note_on_c, 0, 85, 0
6, 185760, Note_on_c, 0, 90, 52
6, 185760, Note_on_c, 0, 86, 52
6, 185999, Note_on_c, 0, 90, 0
6, 185999, Note_on_c, 0, 86, 0
6, 186000, Note_on_c, 0, 91, 52
6, 186000, Note_on_c, 0, 88, 52
6, 186209, Note_on_c, 0, 91, 0
6, 186209, Note_on_c, 0, 88, 0
6, 186240, Note_on_c, 0, 85, 52
6, 186240, Note_on_c, 0, 88, 52
6, 186419, Note_on_c, 0, 85, 0
6, 186419, Note_on_c, 0, 88, 0
6, 186480, Note_on_c, 0, 86, 52
6, 186719, Note_on_c, 0, 86, 0
6, 187200, Note_on_c, 0, 74, 76
6, 187919, Note_on_c, 0, 74, 0
6, 188640, Note_on_c, 0, 76, 76
6, 188640, Note_on_c, 0, 74, 76
6, 189359, Note_on_c, 0, 76, 0
6, 189359, Note_on_c, 0, 74, 0
6, 192240, Note_on_c, 0, 86, 84
6, 192240, Note_on_c, 0, 78, 84
6, 192419, Note_on_c, 0, 86, 0
6, 192419, Note_on_c, 0, 78, 0
6, 192480, Note_on_c, 0, 79, 84
6, 192480, Note_on_c, 0, 85, 84
6, 192659, Note_on_c, 0, 79, 0
6, 192659, Note_on_c, 0, 85, 0
6, 192720, Note_on_c, 0, 78, 84
6, 192720, Note_on_c, 0, 86, 84
6, 192899, Note_on_c, 0, 78, 0
6, 192899, Note_on_c, 0, 86, 0
6, 192960, Note_on_c, 0, 74, 76
6, 193679, Note_on_c, 0, 74, 0
6, 194400, Note_on_c, 0, 74, 76
6, 194400, Note_on_c, 0, 76, 76
6, 195119, Note_on_c, 0, 74, 0
6, 195119, Note_on_c, 0, 76, 0
6, 197280, Note_on_c, 0, 85, 52
6, 197459, Note_on_c, 0, 85, 0
6, 197520, Note_on_c, 0, 83, 52
6, 197699, Note_on_c, 0, 83, 0
6, 197760, Note_on_c, 0, 81, 52
6, 197939, Note_on_c, 0, 81, 0
6, 198000, Note_on_c, 0, 88, 84
6, 198000, Note_on_c, 0, 85, 84
6, 198179, Note_on_c, 0, 88, 0
6, 198179, Note_on_c, 0, 85, 0
6, 198240, Note_on_c, 0, 88, 84
6, 198240, Note_on_c, 0, 83, 84
6, 198419, Note_on_c, 0, 88, 0
6, 198419, Note_on_c, 0, 83, 0
6, 198480, Note_on_c, 0, 88, 84
6, 198480, Note_on_c, 0, 85, 84
6, 198659, Note_on_c, 0, 88, 0
6, 198659, Note_on_c, 0, 85, 0
6, 198720, Note_on_c, 0, 74, 76
6, 199439, Note_on_c, 0, 74, 0
6, 200160, Note_on_c, 0, 74, 76
6, 200160, Note_on_c, 0, 76, 76
6, 200879, Note_on_c, 0, 74, 0
6, 200879, Note_on_c, 0, 76, 0
6, 203760, Note_on_c, 0, 78, 84
6, 203760, Note_on_c, 0, 86, 84
6, 203939, Note_on_c, 0, 78, 0
6, 203939, Note_on_c, 0, 86, 0
6, 204000, Note_on_c, 0, 85, 84
6, 204000, Note_on_c, 0, 79, 84
6, 204179, Note_on_c, 0, 85, 0
6, 204179, Note_on_c, 0, 79, 0
6, 204240, Note_on_c, 0, 86, 84
6, 204240, Note_on_c, 0, 78, 84
6, 204419, Note_on_c, 0, 86, 0
6, 204419, Note_on_c, 0, 78, 0
6, 204480, Note_on_c, 0, 74, 76
6, 205199, Note_on_c, 0, 74, 0
6, 205920, Note_on_c, 0, 74, 76
6, 205920, Note_on_c, 0, 76, 76
6, 206639, Note_on_c, 0, 74, 0
6, 206639, Note_on_c, 0, 76, 0
6, 208800, Note_on_c, 0, 85, 52
6, 208979, Note_on_c, 0, 85, 0
6, 209040, Note_on_c, 0, 83, 52
6, 209219, Note_on_c, 0, 83, 0
6, 209280, Note_on_c, 0, 81, 52
6, 209459, Note_on_c, 0, 81, 0
6, 209520, Note_on_c, 0, 88, 84
6, 209520, Note_on_c, 0, 85, 84
6, 209699, Note_on_c, 0, 88, 0
6, 209699, Note_on_c, 0, 85, 0
6, 209760, Note_on_c, 0, 83, 84
6, 209760, Note_on_c, 0, 88, 84
6, 209939, Note_on_c, 0, 83, 0
6, 209939, Note_on_c, 0, 88, 0
6, 210000, Note_on_c, 0, 88, 84
6, 210000, Note_on_c, 0, 85, 84
6, 210179, Note_on_c, 0, 88, 0
6, 210179, Note_on_c, 0, 85, 0
6, 215760, Note_on_c, 0, 81, 52
6, 215999, Note_on_c, 0, 81, 0
6, 216000, Note_on_c, 0, 82, 52
6, 216179, Note_on_c, 0, 82, 0
6, 216240, Note_on_c, 0, 89, 76
6, 216360, Control_c, 0, 11, 80
6, 217169, Note_on_c, 0, 89, 0
6, 217200, Note_on_c, 0, 86, 76
6, 217319, Note_on_c, 0, 86, 0
6, 217320, Note_on_c, 0, 82, 76
6, 217409, Note_on_c, 0, 82, 0
6, 217440, Note_on_c, 0, 81, 76
6, 217559, Note_on_c, 0, 81, 0
6, 217560, Note_on_c, 0, 84, 76
6, 217679, Note_on_c, 0, 84, 0
6, 217680, Note_on_c, 0, 87, 76
6, 217799, Note_on_c, 0, 87, 0
6, 217800, Note_on_c, 0, 86, 76
6, 217919, Note_on_c, 0, 86, 0
6, 217920, Note_on_c, 0, 84, 76
6, 218039, Note_on_c, 0, 84, 0
6, 218040, Note_on_c, 0, 82, 76
6, 218159, Note_on_c, 0, 82, 0
6, 218160, Note_on_c, 0, 81, 76
6, 218279, Note_on_c, 0, 81, 0
6, 218280, Note_on_c, 0, 79, 76
6, 218399, Note_on_c, 0, 79, 0
6, 218400, Note_on_c, 0, 77, 76
6, 218519, Note_on_c, 0, 77, 0
6, 218520, Note_on_c, 0, 75, 76
6, 218639, Note_on_c, 0, 75, 0
6, 218640, Note_on_c, 0, 74, 76
6, 218759, Note_on_c, 0, 74, 0
6, 218760, Note_on_c, 0, 72, 76
6, 218849, Note_on_c, 0, 72, 0
6, 218880, Note_on_c, 0, 70, 76
6, 219119, Note_on_c, 0, 70, 0
6, 225360, Control_c, 0, 11, 127
6, 226080, Note_on_c, 0, 74, 76
6, 226799, Note_on_c, 0, 74, 0
6, 227520, Note_on_c, 0, 74, 76
6, 227520, Note_on_c, 0, 76, 76
6, 228239, Note_on_c, 0, 74, 0
6, 228239, Note_on_c, 0, 76, 0
6, 231120, Note_on_c, 0, 78, 52
6, 231120, Note_on_c, 0, 86, 52
6, 231299, Note_on_c, 0, 78, 0
6, 231299, Note_on_c, 0, 86, 0
6, 231360, Note_on_c, 0, 85, 52
6, 231360, Note_on_c, 0, 76, 52
6, 231539, Note_on_c, 0, 85, 0
6, 231539, Note_on_c, 0, 76, 0
6, 231600, Note_on_c, 0, 86, 52
6, 231600, Note_on_c, 0, 78, 52
6, 231779, Note_on_c, 0, 86, 0
6, 231779, Note_on_c, 0, 78, 0
6, 231840, Note_on_c, 0, 74, 76
6, 232559, Note_on_c, 0, 74, 0
6, 233280, Note_on_c, 0, 74, 76
6, 233280, Note_on_c, 0, 76, 76
6, 233999, Note_on_c, 0, 74, 0
6, 233999, Note_on_c, 0, 76, 0
6, 247680, Note_on_c, 0, 81, 52
6, 248369, Note_on_c, 0, 81, 0
6, 248400, Note_on_c, 0, 86, 52
6, 248579, Note_on_c, 0, 86, 0
6, 248640, Note_on_c, 0, 85, 52
6, 248819, Note_on_c, 0, 85, 0
6, 248880, Note_on_c, 0, 86, 52
6, 249059, Note_on_c, 0, 86, 0
6, 254880, Note_on_c, 0, 85, 84
6, 255569, Note_on_c, 0, 85, 0
6, 255600, Note_on_c, 0, 86, 76
6, 255839, Note_on_c, 0, 86, 0
6, 256320, Note_on_c, 0, 85, 84
6, 256320, Note_on_c, 0, 81, 84
6, 257279, Note_on_c, 0, 85, 0
6, 257279, Note_on_c, 0, 81, 0
6, 257280, Note_on_c, 0, 86, 84
6, 257280, Note_on_c, 0, 83, 84
6, 257519, Note_on_c, 0, 86, 0
6, 257519, Note_on_c, 0, 83, 0
6, 257520, Note_on_c, 0, 88, 84
6, 257520, Note_on_c, 0, 85, 84
6, 257729, Note_on_c, 0, 88, 0
6, 257729, Note_on_c, 0, 85, 0
6, 257760, Note_on_c, 0, 90, 84
6, 257760, Note_on_c, 0, 78, 84
6, 257999, Note_on_c, 0, 90, 0
6, 257999, Note_on_c, 0, 78, 0
6, 258240, Note_on_c, 0, 85, 84
6, 258419, Note_on_c, 0, 85, 0
6, 258480, Note_on_c, 0, 86, 84
6, 258659, Note_on_c, 0, 86, 0
6, 264720, Note_on_c, 0, 81, 52
6, 264959, Note_on_c, 0, 81, 0
6, 264960, Note_on_c, 0, 82, 52
6, 265139, Note_on_c, 0, 82, 0
6, 265200, Note_on_c, 0, 89, 76
6, 265320, Control_c, 0, 11, 80
6, 266129, Note_on_c, 0, 89, 0
6, 266160, Note_on_c, 0, 86, 76
6, 266279, Note_on_c, 0, 86, 0
6, 266280, Note_on_c, 0, 82, 76
6, 266369, Note_on_c, 0, 82, 0
6, 266400, Note_on_c, 0, 81, 76
6, 266519, Note_on_c, 0, 81, 0
6, 266520, Note_on_c, 0, 84, 76
6, 266639, Note_on_c, 0, 84, 0
6, 266640, Note_on_c, 0, 87, 76
6, 266759, Note_on_c, 0, 87, 0
6, 266760, Note_on_c, 0, 86, 76
6, 266879, Note_on_c, 0, 86, 0
6, 266880, Note_on_c, 0, 84, 76
6, 266999, Note_on_c, 0, 84, 0
6, 267000, Note_on_c, 0, 82, 76
6, 267119, Note_on_c, 0, 82, 0
6, 267120, Note_on_c, 0, 81, 76
6, 267239, Note_on_c, 0, 81, 0
6, 267240, Note_on_c, 0, 79, 76
6, 267359, Note_on_c, 0, 79, 0
6, 267360, Note_on_c, 0, 77, 76
6, 267479, Note_on_c, 0, 77, 0
6, 267480, Note_on_c, 0, 75, 76
6, 267599, Note_on_c, 0, 75, 0
6, 267600, Note_on_c, 0, 74, 76
6, 267719, Note_on_c, 0, 74, 0
6, 267720, Note_on_c, 0, 72, 76
6, 267809, Note_on_c, 0, 72, 0
6, 267840, Note_on_c, 0, 70, 76
6, 268079, Note_on_c, 0, 70, 0
6, 274320, Control_c, 0, 11, 127
6, 275040, Note_on_c, 0, 74, 76
6, 275759, Note_on_c, 0, 74, 0
6, 276480, Note_on_c, 0, 74, 76
6, 276480, Note_on_c, 0, 76, 76
6, 277199, Note_on_c, 0, 74, 0
6, 277199, Note_on_c, 0, 76, 0
6, 280080, Note_on_c, 0, 86, 52
6, 280080, Note_on_c, 0, 78, 52
6, 280259, Note_on_c, 0, 86, 0
6, 280259, Note_on_c, 0, 78, 0
6, 280320, Note_on_c, 0, 85, 52
6, 280320, Note_on_c, 0, 76, 52
6, 280499, Note_on_c, 0, 85, 0
6, 280499, Note_on_c, 0, 76, 0
6, 280560, Note_on_c, 0, 78, 52
6, 280560, Note_on_c, 0, 86, 52
6, 280739, Note_on_c, 0, 78, 0
6, 280739, Note_on_c, 0, 86, 0
6, 280800, Note_on_c, 0, 74, 76
6, 281519, Note_on_c, 0, 74, 0
6, 282240, Note_on_c, 0, 76, 76
6, 282240, Note_on_c, 0, 74, 76
6, 282959, Note_on_c, 0, 76, 0
6, 282959, Note_on_c, 0, 74, 0
6, 296640, Note_on_c, 0, 81, 52
6, 297329, Note_on_c, 0, 81, 0
6, 297360, Note_on_c, 0, 86, 52
6, 297539, Note_on_c, 0, 86, 0
6, 297600, Note_on_c, 0, 85, 52
6, 297779, Note_on_c, 0, 85, 0
6, 297840, Note_on_c, 0, 86, 52
6, 298019, Note_on_c, 0, 86, 0
6, 303840, Note_on_c, 0, 85, 84
6, 304529, Note_on_c, 0, 85, 0
6, 304560, Note_on_c, 0, 86, 76
6, 304799, Note_on_c, 0, 86, 0
6, 305280, Note_on_c, 0, 81, 84
6, 305280, Note_on_c, 0, 85, 84
6, 306239, Note_on_c, 0, 81, 0
6, 306239, Note_on_c, 0, 85, 0
6, 306240, Note_on_c, 0, 83, 84
6, 306240, Note_on_c, 0, 86, 84
6, 306479, Note_on_c, 0, 83, 0
6, 306479, Note_on_c, 0, 86, 0
6, 306480, Note_on_c, 0, 88, 84
6, 306480, Note_on_c, 0, 85, 84
6, 306689, Note_on_c, 0, 88, 0
6, 306689, Note_on_c, 0, 85, 0
6, 306720, Note_on_c, 0, 90, 84
6, 306720, Note_on_c, 0, 78, 84
6, 306959, Note_on_c, 0, 90, 0
6, 306959, Note_on_c, 0, 78, 0
6, 307200, Note_on_c, 0, 85, 84
6, 307379, Note_on_c, 0, 85, 0
6, 307440, Note_on_c, 0, 86, 84
6, 307619, Note_on_c, 0, 86, 0
6, 307619, End_track
7, 0, Start_track
7, 0, Title_t, "Oboe"
7, 0, MIDI_port, 0
7, 0, Program_c, 1, 68
7, 0, Control_c, 1, 7, 80
7, 0, Control_c, 1, 10, 70
7, 0, Control_c, 1, 11, 127
7, 0, Note_on_c, 1, 74, 76
7, 719, Note_on_c, 1, 74, 0
7, 1440, Note_on_c, 1, 74, 76
7, 1440, Note_on_c, 1, 76, 76
7, 2159, Note_on_c, 1, 74, 0
7, 2159, Note_on_c, 1, 76, 0
7, 4320, Note_on_c, 1, 78, 52
7, 4320, Note_on_c, 1, 74, 52
7, 4499, Note_on_c, 1, 78, 0
7, 4499, Note_on_c, 1, 74, 0
7, 4560, Note_on_c, 1, 76, 52
7, 4560, Note_on_c, 1, 69, 52
7, 4739, Note_on_c, 1, 76, 0
7, 4739, Note_on_c, 1, 69, 0
7, 4800, Note_on_c, 1, 74, 52
7, 4800, Note_on_c, 1, 66, 52
7, 4979, Note_on_c, 1, 74, 0
7, 4979, Note_on_c, 1, 66, 0
7, 5760, Note_on_c, 1, 74, 76
7, 6479, Note_on_c, 1, 74, 0
7, 7200, Note_on_c, 1, 74, 76
7, 7200, Note_on_c, 1, 76, 76
7, 7919, Note_on_c, 1, 74, 0
7, 7919, Note_on_c, 1, 76, 0
7, 8640, Note_on_c, 1, 73, 52
7, 8640, Note_on_c, 1, 69, 52
7, 8819, Note_on_c, 1, 73, 0
7, 8819, Note_on_c, 1, 69, 0
7, 8880, Note_on_c, 1, 74, 52
7, 8880, Note_on_c, 1, 71, 52
7, 9059, Note_on_c, 1, 74, 0
7, 9059, Note_on_c, 1, 71, 0
7, 9120, Note_on_c, 1, 76, 52
7, 9120, Note_on_c, 1, 73, 52
7, 9299, Note_on_c, 1, 76, 0
7, 9299, Note_on_c, 1, 73, 0
7, 10080, Note_on_c, 1, 73, 52
7, 10080, Note_on_c, 1, 81, 52
7, 10259, Note_on_c, 1, 73, 0
7, 10259, Note_on_c, 1, 81, 0
7, 10320, Note_on_c, 1, 80, 52
7, 10320, Note_on_c, 1, 71, 52
7, 10499, Note_on_c, 1, 80, 0
7, 10499, Note_on_c, 1, 71, 0
7, 10560, Note_on_c, 1, 81, 52
7, 10560, Note_on_c, 1, 73, 52
7, 10739, Note_on_c, 1, 81, 0
7, 10739, Note_on_c, 1, 73, 0
7, 11520, Note_on_c, 1, 74, 76
7, 12239, Note_on_c, 1, 74, 0
7, 12960, Note_on_c, 1, 76, 76
7, 12960, Note_on_c, 1, 74, 76
7, 13679, Note_on_c, 1, 76, 0
7, 13679, Note_on_c, 1, 74, 0
7, 15840, Note_on_c, 1, 78, 52
7, 15840, Note_on_c, 1, 74, 52
7, 16019, Note_on_c, 1, 78, 0
7, 16019, Note_on_c, 1, 74, 0
7, 16080, Note_on_c, 1, 76, 52
7, 16080, Note_on_c, 1, 69, 52
7, 16259, Note_on_c, 1, 76, 0
7, 16259, Note_on_c, 1, 69, 0
7, 16320, Note_on_c, 1, 74, 52
7, 16320, Note_on_c, 1, 66, 52
7, 16499, Note_on_c, 1, 74, 0
7, 16499, Note_on_c, 1, 66, 0
7, 17280, Note_on_c, 1, 74, 76
7, 17999, Note_on_c, 1, 74, 0
7, 18720, Note_on_c, 1, 76, 76
7, 18720, Note_on_c, 1, 74, 76
7, 19439, Note_on_c, 1, 76, 0
7, 19439, Note_on_c, 1, 74, 0
7, 20160, Note_on_c, 1, 69, 52
7, 20160, Note_on_c, 1, 73, 52
7, 20339, Note_on_c, 1, 69, 0
7, 20339, Note_on_c, 1, 73, 0
7, 20400, Note_on_c, 1, 71, 52
7, 20400, Note_on_c, 1, 74, 52
7, 20579, Note_on_c, 1, 71, 0
7, 20579, Note_on_c, 1, 74, 0
7, 20640, Note_on_c, 1, 76, 52
7, 20640, Note_on_c, 1, 73, 52
7, 20819, Note_on_c, 1, 76, 0
7, 20819, Note_on_c, 1, 73, 0
7, 21600, Note_on_c, 1, 81, 52
7, 21600, Note_on_c, 1, 73, 52
7, 21779, Note_on_c, 1, 81, 0
7, 21779, Note_on_c, 1, 73, 0
7, 21840, Note_on_c, 1, 80, 52
7, 21840, Note_on_c, 1, 71, 52
7, 22019, Note_on_c, 1, 80, 0
7, 22019, Note_on_c, 1, 71, 0
7, 22080, Note_on_c, 1, 73, 52
7, 22080, Note_on_c, 1, 81, 52
7, 22259, Note_on_c, 1, 73, 0
7, 22259, Note_on_c, 1, 81, 0
7, 38880, Note_on_c, 1, 74, 76
7, 39599, Note_on_c, 1, 74, 0
7, 40320, Note_on_c, 1, 74, 76
7, 40320, Note_on_c, 1, 76, 76
7, 41039, Note_on_c, 1, 74, 0
7, 41039, Note_on_c, 1, 76, 0
7, 43200, Note_on_c, 1, 74, 52
7, 43200, Note_on_c, 1, 78, 52
7, 43379, Note_on_c, 1, 74, 0
7, 43379, Note_on_c, 1, 78, 0
7, 43440, Note_on_c, 1, 69, 52
7, 43440, Note_on_c, 1, 76, 52
7, 43619, Note_on_c, 1, 69, 0
7, 43619, Note_on_c, 1, 76, 0
7, 43680, Note_on_c, 1, 66, 52
7, 43680, Note_on_c, 1, 74, 52
7, 43859, Note_on_c, 1, 66, 0
7, 43859, Note_on_c, 1, 74, 0
7, 43920, Note_on_c, 1, 74, 84
7, 43920, Note_on_c, 1, 78, 84
7, 44099, Note_on_c, 1, 74, 0
7, 44099, Note_on_c, 1, 78, 0
7, 44160, Note_on_c, 1, 76, 84
7, 44160, Note_on_c, 1, 79, 84
7, 44339, Note_on_c, 1, 76, 0
7, 44339, Note_on_c, 1, 79, 0
7, 44400, Note_on_c, 1, 74, 84
7, 44400, Note_on_c, 1, 78, 84
7, 44579, Note_on_c, 1, 74, 0
7, 44579, Note_on_c, 1, 78, 0
7, 44640, Note_on_c, 1, 74, 76
7, 45359, Note_on_c, 1, 74, 0
7, 46080, Note_on_c, 1, 74, 76
7, 46080, Note_on_c, 1, 76, 76
7, 46799, Note_on_c, 1, 74, 0
7, 46799, Note_on_c, 1, 76, 0
7, 53280, Note_on_c, 1, 72, 44
7, 53969, Note_on_c, 1, 72, 0
7, 54000, Note_on_c, 1, 77, 44
7, 54179, Note_on_c, 1, 77, 0
7, 54240, Note_on_c, 1, 76, 44
7, 54419, Note_on_c, 1, 76, 0
7, 54480, Note_on_c, 1, 77, 44
7, 54659, Note_on_c, 1, 77, 0
7, 54720, Note_on_c, 1, 69, 44
7, 55409, Note_on_c, 1, 69, 0
7, 55440, Note_on_c, 1, 74, 44
7, 55619, Note_on_c, 1, 74, 0
7, 55680, Note_on_c, 1, 73, 44
7, 55859, Note_on_c, 1, 73, 0
7, 55920, Note_on_c, 1, 74, 44
7, 56099, Note_on_c, 1, 74, 0
7, 59040, Note_on_c, 1, 72, 44
7, 59729, Note_on_c, 1, 72, 0
7, 59760, Note_on_c, 1, 77, 44
7, 59939, Note_on_c, 1, 77, 0
7, 60000, Note_on_c, 1, 76, 44
7, 60179, Note_on_c, 1, 76, 0
7, 60240, Note_on_c, 1, 77, 44
7, 60419, Note_on_c, 1, 77, 0
7, 60480, Note_on_c, 1, 69, 44
7, 61169, Note_on_c, 1, 69, 0
7, 61200, Note_on_c, 1, 74, 44
7, 61379, Note_on_c, 1, 74, 0
7, 61440, Note_on_c, 1, 73, 44
7, 61619, Note_on_c, 1, 73, 0
7, 61680, Note_on_c, 1, 74, 44
7, 61859, Note_on_c, 1, 74, 0
7, 69120, Note_on_c, 1, 69, 84
7, 69120, Note_on_c, 1, 81, 84
7, 70079, Note_on_c, 1, 69, 0
7, 70079, Note_on_c, 1, 81, 0
7, 70080, Note_on_c, 1, 68, 84
7, 70080, Note_on_c, 1, 80, 84
7, 70319, Note_on_c, 1, 68, 0
7, 70319, Note_on_c, 1, 80, 0
7, 70320, Note_on_c, 1, 67, 84
7, 70320, Note_on_c, 1, 79, 84
7, 70529, Note_on_c, 1, 67, 0
7, 70529, Note_on_c, 1, 79, 0
7, 70560, Note_on_c, 1, 66, 84
7, 70560, Note_on_c, 1, 78, 84
7, 70799, Note_on_c, 1, 66, 0
7, 70799, Note_on_c, 1, 78, 0
7, 71040, Note_on_c, 1, 76, 84
7, 71040, Note_on_c, 1, 73, 84
7, 71219, Note_on_c, 1, 76, 0
7, 71219, Note_on_c, 1, 73, 0
7, 71280, Note_on_c, 1, 78, 84
7, 71280, Note_on_c, 1, 74, 84
7, 71459, Note_on_c, 1, 78, 0
7, 71459, Note_on_c, 1, 74, 0
7, 87840, Note_on_c, 1, 74, 76
7, 88559, Note_on_c, 1, 74, 0
7, 89280, Note_on_c, 1, 74, 76
7, 89280, Note_on_c, 1, 76, 76
7, 89999, Note_on_c, 1, 74, 0
7, 89999, Note_on_c, 1, 76, 0
7, 92160, Note_on_c, 1, 74, 52
7, 92160, Note_on_c, 1, 78, 52
7, 92339, Note_on_c, 1, 74, 0
7, 92339, Note_on_c, 1, 78, 0
7, 92400, Note_on_c, 1, 69, 52
7, 92400, Note_on_c, 1, 76, 52
7, 92579, Note_on_c, 1, 69, 0
7, 92579, Note_on_c, 1, 76, 0
7, 92640, Note_on_c, 1, 74, 52
7, 92640, Note_on_c, 1, 66, 52
7, 92819, Note_on_c, 1, 74, 0
7, 92819, Note_on_c, 1, 66, 0
7, 92880, Note_on_c, 1, 78, 84
7, 92880, Note_on_c, 1, 74, 84
7, 93059, Note_on_c, 1, 78, 0
7, 93059, Note_on_c, 1, 74, 0
7, 93120, Note_on_c, 1, 76, 84
7, 93120, Note_on_c, 1, 79, 84
7, 93299, Note_on_c, 1, 76, 0
7, 93299, Note_on_c, 1, 79, 0
7, 93360, Note_on_c, 1, 78, 84
7, 93360, Note_on_c, 1, 74, 84
7, 93539, Note_on_c, 1, 78, 0
7, 93539, Note_on_c, 1, 74, 0
7, 93600, Note_on_c, 1, 74, 76
7, 94319, Note_on_c, 1, 74, 0
7, 95040, Note_on_c, 1, 76, 76
7, 95040, Note_on_c, 1, 74, 76
7, 95759, Note_on_c, 1, 76, 0
7, 95759, Note_on_c, 1, 74, 0
7, 102240, Note_on_c, 1, 72, 44
7, 102929, Note_on_c, 1, 72, 0
7, 102960, Note_on_c, 1, 77, 44
7, 103139, Note_on_c, 1, 77, 0
7, 103200, Note_on_c, 1, 76, 44
7, 103379, Note_on_c, 1, 76, 0
7, 103440, Note_on_c, 1, 77, 44
7, 103619, Note_on_c, 1, 77, 0
7, 103680, Note_on_c, 1, 69, 44
7, 104369, Note_on_c, 1, 69, 0
7, 104400, Note_on_c, 1, 74, 44
7, 104579, Note_on_c, 1, 74, 0
7, 104640, Note_on_c, 1, 73, 44
7, 104819, Note_on_c, 1, 73, 0
7, 104880, Note_on_c, 1, 74, 44
7, 105059, Note_on_c, 1, 74, 0
7, 108000, Note_on_c, 1, 72, 44
7, 108689, Note_on_c, 1, 72, 0
7, 108720, Note_on_c, 1, 77, 44
7, 108899, Note_on_c, 1, 77, 0
7, 108960, Note_on_c, 1, 76, 44
7, 109139, Note_on_c, 1, 76, 0
7, 109200, Note_on_c, 1, 77, 44
7, 109379, Note_on_c, 1, 77, 0
7, 109440, Note_on_c, 1, 69, 44
7, 110129, Note_on_c, 1, 69, 0
7, 110160, Note_on_c, 1, 74, 44
7, 110339, Note_on_c, 1, 74, 0
7, 110400, Note_on_c, 1, 73, 44
7, 110579, Note_on_c, 1, 73, 0
7, 110640, Note_on_c, 1, 74, 44
7, 110819, Note_on_c, 1, 74, 0
7, 118080, Note_on_c, 1, 69, 84
7, 118080, Note_on_c, 1, 81, 84
7, 119039, Note_on_c, 1, 69, 0
7, 119039, Note_on_c, 1, 81, 0
7, 119040, Note_on_c, 1, 68, 84
7, 119040, Note_on_c, 1, 80, 84
7, 119279, Note_on_c, 1, 68, 0
7, 119279, Note_on_c, 1, 80, 0
7, 119280, Note_on_c, 1, 67, 84
7, 119280, Note_on_c, 1, 79, 84
7, 119489, Note_on_c, 1, 67, 0
7, 119489, Note_on_c, 1, 79, 0
7, 119520, Note_on_c, 1, 66, 84
7, 119520, Note_on_c, 1, 78, 84
7, 119759, Note_on_c, 1, 66, 0
7, 119759, Note_on_c, 1, 78, 0
7, 120000, Note_on_c, 1, 73, 84
7, 120000, Note_on_c, 1, 76, 84
7, 120179, Note_on_c, 1, 73, 0
7, 120179, Note_on_c, 1, 76, 0
7, 120240, Note_on_c, 1, 74, 84
7, 120240, Note_on_c, 1, 78, 84
7, 120419, Note_on_c, 1, 74, 0
7, 120419, Note_on_c, 1, 78, 0
7, 120720, Note_on_c, 1, 74, 52
7, 120839, Note_on_c, 1, 74, 0
7, 120840, Note_on_c, 1, 76, 52
7, 120929, Note_on_c, 1, 76, 0
7, 120960, Note_on_c, 1, 74, 52
7, 120960, Note_on_c, 1, 78, 52
7, 121679, Note_on_c, 1, 78, 0
7, 121680, Note_on_c, 1, 79, 52
7, 122399, Note_on_c, 1, 79, 0
7, 122400, Note_on_c, 1, 81, 52
7, 122639, Note_on_c, 1, 74, 0
7, 122639, Note_on_c, 1, 81, 0
7, 122640, Note_on_c, 1, 79, 52
7, 122640, Note_on_c, 1, 69, 52
7, 122849, Note_on_c, 1, 79, 0
7, 122849, Note_on_c, 1, 69, 0
7, 122880, Note_on_c, 1, 69, 52
7, 122880, Note_on_c, 1, 78, 52
7, 123059, Note_on_c, 1, 69, 0
7, 123059, Note_on_c, 1, 78, 0
7, 123120, Note_on_c, 1, 76, 52
7, 123120, Note_on_c, 1, 69, 52
7, 123359, Note_on_c, 1, 76, 0
7, 123359, Note_on_c, 1, 69, 0
7, 123570, Control_c, 1, 11, 80
7, 123600, Note_on_c, 1, 78, 76
7, 123809, Note_on_c, 1, 78, 0
7, 123840, Note_on_c, 1, 79, 76
7, 123840, Note_on_c, 1, 71, 76
7, 123960, Control_c, 1, 11, 88
7, 124080, Control_c, 1, 11, 96
7, 124200, Control_c, 1, 11, 104
7, 124320, Control_c, 1, 11, 111
7, 124440, Control_c, 1, 11, 119
7, 124559, Note_on_c, 1, 79, 0
7, 124559, Note_on_c, 1, 71, 0
7, 124560, Note_on_c, 1, 73, 84
7, 124560, Control_c, 1, 11, 127
7, 124560, Note_on_c, 1, 81, 84
7, 124680, Control_c, 1, 11, 119
7, 124800, Control_c, 1, 11, 111
7, 124920, Control_c, 1, 11, 104
7, 125040, Control_c, 1, 11, 96
7, 125160, Control_c, 1, 11, 88
7, 125249, Note_on_c, 1, 73, 0
7, 125249, Note_on_c, 1, 81, 0
7, 125250, Control_c, 1, 11, 80
7, 125280, Note_on_c, 1, 74, 76
7, 125280, Note_on_c, 1, 78, 76
7, 125519, Note_on_c, 1, 74, 0
7, 125519, Note_on_c, 1, 78, 0
7, 125520, Note_on_c, 1, 79, 76
7, 125520, Note_on_c, 1, 76, 76
7, 125729, Note_on_c, 1, 79, 0
7, 125729, Note_on_c, 1, 76, 0
7, 125760, Note_on_c, 1, 76, 76
7, 125760, Note_on_c, 1, 73, 76
7, 125939, Note_on_c, 1, 76, 0
7, 125939, Note_on_c, 1, 73, 0
7, 126000, Note_on_c, 1, 74, 76
7, 126239, Note_on_c, 1, 74, 0
7, 126360, Control_c, 1, 11, 127
7, 126480, Note_on_c, 1, 74, 52
7, 126599, Note_on_c, 1, 74, 0
7, 126600, Note_on_c, 1, 76, 52
7, 126689, Note_on_c, 1, 76, 0
7, 126720, Note_on_c, 1, 78, 52
7, 126720, Note_on_c, 1, 74, 52
7, 127439, Note_on_c, 1, 78, 0
7, 127440, Note_on_c, 1, 79, 52
7, 128159, Note_on_c, 1, 79, 0
7, 128160, Note_on_c, 1, 81, 52
7, 128399, Note_on_c, 1, 74, 0
7, 128399, Note_on_c, 1, 81, 0
7, 128400, Note_on_c, 1, 69, 52
7, 128400, Note_on_c, 1, 79, 52
7, 128609, Note_on_c, 1, 69, 0
7, 128609, Note_on_c, 1, 79, 0
7, 128640, Note_on_c, 1, 78, 52
7, 128640, Note_on_c, 1, 69, 52
7, 128819, Note_on_c, 1, 78, 0
7, 128819, Note_on_c, 1, 69, 0
7, 128880, Note_on_c, 1, 76, 52
7, 128880, Note_on_c, 1, 69, 52
7, 129119, Note_on_c, 1, 76, 0
7, 129119, Note_on_c, 1, 69, 0
7, 129330, Control_c, 1, 11, 80
7, 129360, Note_on_c, 1, 78, 76
7, 129569, Note_on_c, 1, 78, 0
7, 129600, Note_on_c, 1, 79, 76
7, 129600, Note_on_c, 1, 71, 76
7, 129720, Control_c, 1, 11, 88
7, 129840, Control_c, 1, 11, 96
7, 129960, Control_c, 1, 11, 104
7, 130080, Control_c, 1, 11, 111
7, 130200, Control_c, 1, 11, 119
7, 130319, Note_on_c, 1, 79, 0
7, 130319, Note_on_c, 1, 71, 0
7, 130320, Note_on_c, 1, 81, 84
7, 130320, Note_on_c, 1, 73, 84
7, 130320, Control_c, 1, 11, 127
7, 130440, Control_c, 1, 11, 119
7, 130560, Control_c, 1, 11, 111
7, 130680, Control_c, 1, 11, 104
7, 130800, Control_c, 1, 11, 96
7, 130920, Control_c, 1, 11, 88
7, 131009, Note_on_c, 1, 81, 0
7, 131009, Note_on_c, 1, 73, 0
7, 131010, Control_c, 1, 11, 80
7, 131040, Note_on_c, 1, 78, 76
7, 131040, Note_on_c, 1, 74, 76
7, 131279, Note_on_c, 1, 78, 0
7, 131279, Note_on_c, 1, 74, 0
7, 131280, Note_on_c, 1, 76, 76
7, 131280, Note_on_c, 1, 79, 76
7, 131489, Note_on_c, 1, 76, 0
7, 131489, Note_on_c, 1, 79, 0
7, 131520, Note_on_c, 1, 76, 76
7, 131520, Note_on_c, 1, 73, 76
7, 131699, Note_on_c, 1, 76, 0
7, 131699, Note_on_c, 1, 73, 0
7, 131760, Note_on_c, 1, 74, 76
7, 131999, Note_on_c, 1, 74, 0
7, 132120, Control_c, 1, 11, 127
7, 142560, Note_on_c, 1, 81, 84
7, 142560, Note_on_c, 1, 69, 84
7, 143969, Note_on_c, 1, 81, 0
7, 143969, Note_on_c, 1, 69, 0
7, 144000, Note_on_c, 1, 78, 52
7, 144000, Note_on_c, 1, 74, 52
7, 144719, Note_on_c, 1, 78, 0
7, 144720, Note_on_c, 1, 79, 52
7, 144959, Note_on_c, 1, 74, 0
7, 144960, Note_on_c, 1, 73, 52
7, 145199, Note_on_c, 1, 73, 0
7, 145200, Note_on_c, 1, 71, 52
7, 145409, Note_on_c, 1, 71, 0
7, 145439, Note_on_c, 1, 79, 0
7, 145440, Note_on_c, 1, 69, 52
7, 145440, Note_on_c, 1, 81, 52
7, 145679, Note_on_c, 1, 69, 0
7, 145679, Note_on_c, 1, 81, 0
7, 145680, Note_on_c, 1, 73, 52
7, 145680, Note_on_c, 1, 79, 52
7, 145889, Note_on_c, 1, 73, 0
7, 145889, Note_on_c, 1, 79, 0
7, 145920, Note_on_c, 1, 78, 52
7, 145920, Note_on_c, 1, 74, 52
7, 146099, Note_on_c, 1, 78, 0
7, 146099, Note_on_c, 1, 74, 0
7, 146160, Note_on_c, 1, 76, 52
7, 146160, Note_on_c, 1, 73, 52
7, 146399, Note_on_c, 1, 76, 0
7, 146399, Note_on_c, 1, 73, 0
7, 146610, Control_c, 1, 11, 80
7, 146640, Note_on_c, 1, 75, 76
7, 146640, Note_on_c, 1, 78, 76
7, 146819, Note_on_c, 1, 75, 0
7, 146819, Note_on_c, 1, 78, 0
7, 146880, Note_on_c, 1, 76, 76
7, 146880, Note_on_c, 1, 79, 76
7, 146940, Control_c, 1, 11, 84
7, 147000, Control_c, 1, 11, 88
7, 147060, Control_c, 1, 11, 92
7, 147120, Control_c, 1, 11, 96
7, 147180, Control_c, 1, 11, 100
7, 147240, Control_c, 1, 11, 104
7, 147300, Control_c, 1, 11, 107
7, 147360, Control_c, 1, 11, 111
7, 147420, Control_c, 1, 11, 115
7, 147480, Control_c, 1, 11, 119
7, 147540, Control_c, 1, 11, 123
7, 147599, Note_on_c, 1, 79, 0
7, 147600, Note_on_c, 1, 81, 84
7, 147600, Control_c, 1, 11, 127
7, 147660, Control_c, 1, 11, 123
7, 147720, Control_c, 1, 11, 119
7, 147780, Control_c, 1, 11, 115
7, 147839, Note_on_c, 1, 76, 0
7, 147840, Note_on_c, 1, 74, 76
7, 147840, Control_c, 1, 11, 111
7, 147900, Control_c, 1, 11, 107
7, 147960, Control_c, 1, 11, 104
7, 148020, Control_c, 1, 11, 100
7, 148079, Note_on_c, 1, 74, 0
7, 148080, Note_on_c, 1, 73, 76
7, 148080, Control_c, 1, 11, 96
7, 148140, Control_c, 1, 11, 92
7, 148200, Control_c, 1, 11, 88
7, 148260, Control_c, 1, 11, 84
7, 148289, Note_on_c, 1, 81, 0
7, 148289, Note_on_c, 1, 73, 0
7, 148320, Note_on_c, 1, 74, 76
7, 148320, Control_c, 1, 11, 80
7, 148320, Note_on_c, 1, 78, 76
7, 148559, Note_on_c, 1, 74, 0
7, 148559, Note_on_c, 1, 78, 0
7, 148560, Note_on_c, 1, 76, 76
7, 148560, Note_on_c, 1, 79, 76
7, 148769, Note_on_c, 1, 76, 0
7, 148769, Note_on_c, 1, 79, 0
7, 148800, Note_on_c, 1, 73, 76
7, 148800, Note_on_c, 1, 76, 76
7, 148979, Note_on_c, 1, 73, 0
7, 148979, Note_on_c, 1, 76, 0
7, 149040, Note_on_c, 1, 74, 76
7, 149279, Note_on_c, 1, 74, 0
7, 154080, Control_c, 1, 11, 127
7, 154560, Note_on_c, 1, 73, 52
7, 154560, Note_on_c, 1, 76, 52
7, 154739, Note_on_c, 1, 73, 0
7, 154739, Note_on_c, 1, 76, 0
7, 154800, Note_on_c, 1, 74, 52
7, 154800, Note_on_c, 1, 78, 52
7, 155039, Note_on_c, 1, 74, 0
7, 155039, Note_on_c, 1, 78, 0
7, 155040, Note_on_c, 1, 76, 52
7, 155040, Note_on_c, 1, 79, 52
7, 155249, Note_on_c, 1, 76, 0
7, 155249, Note_on_c, 1, 79, 0
7, 155280, Note_on_c, 1, 73, 52
7, 155280, Note_on_c, 1, 76, 52
7, 155459, Note_on_c, 1, 73, 0
7, 155459, Note_on_c, 1, 76, 0
7, 155520, Note_on_c, 1, 74, 52
7, 155759, Note_on_c, 1, 74, 0
7, 155880, Control_c, 1, 11, 80
7, 156000, Note_on_c, 1, 73, 76
7, 156000, Note_on_c, 1, 76, 76
7, 156179, Note_on_c, 1, 73, 0
7, 156179, Note_on_c, 1, 76, 0
7, 156240, Note_on_c, 1, 74, 76
7, 156240, Note_on_c, 1, 78, 76
7, 156240, Control_c, 1, 11, 80
7, 156400, Control_c, 1, 11, 84
7, 156479, Note_on_c, 1, 74, 0
7, 156479, Note_on_c, 1, 78, 0
7, 156480, Note_on_c, 1, 76, 76
7, 156480, Note_on_c, 1, 79, 76
7, 156560, Control_c, 1, 11, 88
7, 156689, Note_on_c, 1, 76, 0
7, 156689, Note_on_c, 1, 79, 0
7, 156720, Note_on_c, 1, 76, 76
7, 156720, Note_on_c, 1, 73, 76
7, 156720, Control_c, 1, 11, 92
7, 156880, Control_c, 1, 11, 96
7, 156899, Note_on_c, 1, 76, 0
7, 156899, Note_on_c, 1, 73, 0
7, 156960, Note_on_c, 1, 78, 76
7, 156960, Note_on_c, 1, 74, 76
7, 157040, Control_c, 1, 11, 100
7, 157199, Note_on_c, 1, 78, 0
7, 157199, Note_on_c, 1, 74, 0
7, 157200, Note_on_c, 1, 79, 76
7, 157200, Control_c, 1, 11, 104
7, 157200, Note_on_c, 1, 76, 76
7, 157360, Control_c, 1, 11, 107
7, 157409, Note_on_c, 1, 79, 0
7, 157409, Note_on_c, 1, 76, 0
7, 157440, Note_on_c, 1, 73, 76
7, 157440, Note_on_c, 1, 76, 76
7, 157520, Control_c, 1, 11, 111
7, 157619, Note_on_c, 1, 73, 0
7, 157619, Note_on_c, 1, 76, 0
7, 157680, Note_on_c, 1, 74, 76
7, 157680, Note_on_c, 1, 78, 76
7, 157680, Control_c, 1, 11, 115
7, 157840, Control_c, 1, 11, 119
7, 157919, Note_on_c, 1, 74, 0
7, 157919, Note_on_c, 1, 78, 0
7, 157920, Note_on_c, 1, 76, 76
7, 157920, Note_on_c, 1, 79, 76
7, 158000, Control_c, 1, 11, 127
7, 158129, Note_on_c, 1, 76, 0
7, 158129, Note_on_c, 1, 79, 0
7, 158160, Note_on_c, 1, 73, 52
7, 158160, Note_on_c, 1, 76, 52
7, 158339, Note_on_c, 1, 73, 0
7, 158339, Note_on_c, 1, 76, 0
7, 158400, Note_on_c, 1, 78, 52
7, 158400, Note_on_c, 1, 74, 52
7, 158639, Note_on_c, 1, 78, 0
7, 158639, Note_on_c, 1, 74, 0
7, 158640, Note_on_c, 1, 76, 52
7, 158640, Note_on_c, 1, 79, 52
7, 158849, Note_on_c, 1, 76, 0
7, 158849, Note_on_c, 1, 79, 0
7, 158880, Note_on_c, 1, 73, 52
7, 158880, Note_on_c, 1, 76, 52
7, 159059, Note_on_c, 1, 73, 0
7, 159059, Note_on_c, 1, 76, 0
7, 159120, Note_on_c, 1, 74, 52
7, 159359, Note_on_c, 1, 74, 0
7, 169920, Note_on_c, 1, 69, 84
7, 169920, Note_on_c, 1, 81, 84
7, 171329, Note_on_c, 1, 69, 0
7, 171329, Note_on_c, 1, 81, 0
7, 171360, Note_on_c, 1, 74, 52
7, 171360, Note_on_c, 1, 78, 52
7, 172079, Note_on_c, 1, 78, 0
7, 172080, Note_on_c, 1, 79, 52
7, 172319, Note_on_c, 1, 74, 0
7, 172320, Note_on_c, 1, 73, 52
7, 172559, Note_on_c, 1, 73, 0
7, 172560, Note_on_c, 1, 71, 52
7, 172769, Note_on_c, 1, 71, 0
7, 172799, Note_on_c, 1, 79, 0
7, 172800, Note_on_c, 1, 81, 52
7, 172800, Note_on_c, 1, 69, 52
7, 173039, Note_on_c, 1, 81, 0
7, 173039, Note_on_c, 1, 69, 0
7, 173040, Note_on_c, 1, 79, 52
7, 173040, Note_on_c, 1, 73, 52
7, 173249, Note_on_c, 1, 79, 0
7, 173249, Note_on_c, 1, 73, 0
7, 173280, Note_on_c, 1, 74, 52
7, 173280, Note_on_c, 1, 78, 52
7, 173459, Note_on_c, 1, 74, 0
7, 173459, Note_on_c, 1, 78, 0
7, 173520, Note_on_c, 1, 76, 52
7, 173520, Note_on_c, 1, 73, 52
7, 173759, Note_on_c, 1, 76, 0
7, 173759, Note_on_c, 1, 73, 0
7, 173970, Control_c, 1, 11, 80
7, 174000, Note_on_c, 1, 78, 76
7, 174000, Note_on_c, 1, 75, 76
7, 174179, Note_on_c, 1, 78, 0
7, 174179, Note_on_c, 1, 75, 0
7, 174240, Note_on_c, 1, 76, 76
7, 174240, Note_on_c, 1, 79, 76
7, 174300, Control_c, 1, 11, 84
7, 174360, Control_c, 1, 11, 88
7, 174420, Control_c, 1, 11, 92
7, 174480, Control_c, 1, 11, 96
7, 174540, Control_c, 1, 11, 100
7, 174600, Control_c, 1, 11, 104
7, 174660, Control_c, 1, 11, 107
7, 174720, Control_c, 1, 11, 111
7, 174780, Control_c, 1, 11, 115
7, 174840, Control_c, 1, 11, 119
7, 174900, Control_c, 1, 11, 123
7, 174959, Note_on_c, 1, 79, 0
7, 174960, Control_c, 1, 11, 127
7, 174960, Note_on_c, 1, 81, 84
7, 175020, Control_c, 1, 11, 123
7, 175080, Control_c, 1, 11, 119
7, 175140, Control_c, 1, 11, 115
7, 175199, Note_on_c, 1, 76, 0
7, 175200, Control_c, 1, 11, 111
7, 175200, Note_on_c, 1, 74, 76
7, 175260, Control_c, 1, 11, 107
7, 175320, Control_c, 1, 11, 104
7, 175380, Control_c, 1, 11, 100
7, 175439, Note_on_c, 1, 74, 0
7, 175440, Control_c, 1, 11, 96
7, 175440, Note_on_c, 1, 73, 76
7, 175500, Control_c, 1, 11, 92
7, 175560, Control_c, 1, 11, 88
7, 175620, Control_c, 1, 11, 84
7, 175649, Note_on_c, 1, 81, 0
7, 175649, Note_on_c, 1, 73, 0
7, 175680, Control_c, 1, 11, 80
7, 175680, Note_on_c, 1, 78, 76
7, 175680, Note_on_c, 1, 74, 76
7, 175919, Note_on_c, 1, 78, 0
7, 175919, Note_on_c, 1, 74, 0
7, 175920, Note_on_c, 1, 79, 76
7, 175920, Note_on_c, 1, 76, 76
7, 176129, Note_on_c, 1, 79, 0
7, 176129, Note_on_c, 1, 76, 0
7, 176160, Note_on_c, 1, 76, 76
7, 176160, Note_on_c, 1, 73, 76
7, 176339, Note_on_c, 1, 76, 0
7, 176339, Note_on_c, 1, 73, 0
7, 176400, Note_on_c, 1, 74, 76
7, 176639, Note_on_c, 1, 74, 0
7, 181440, Control_c, 1, 11, 127
7, 181920, Note_on_c, 1, 76, 52
7, 181920, Note_on_c, 1, 73, 52
7, 182099, Note_on_c, 1, 76, 0
7, 182099, Note_on_c, 1, 73, 0
7, 182160, Note_on_c, 1, 78, 52
7, 182160, Note_on_c, 1, 74, 52
7, 182399, Note_on_c, 1, 78, 0
7, 182399, Note_on_c, 1, 74, 0
7, 182400, Note_on_c, 1, 76, 52
7, 182400, Note_on_c, 1, 79, 52
7, 182609, Note_on_c, 1, 76, 0
7, 182609, Note_on_c, 1, 79, 0
7, 182640, Note_on_c, 1, 76, 52
7, 182640, Note_on_c, 1, 73, 52
7, 182819, Note_on_c, 1, 76, 0
7, 182819, Note_on_c, 1, 73, 0
7, 182880, Note_on_c, 1, 74, 52
7, 183119, Note_on_c, 1, 74, 0
7, 183240, Control_c, 1, 11, 80
7, 183360, Note_on_c, 1, 73, 76
7, 183360, Note_on_c, 1, 76, 76
7, 183539, Note_on_c, 1, 73, 0
7, 183539, Note_on_c, 1, 76, 0
7, 183600, Control_c, 1, 11, 80
7, 183600, Note_on_c, 1, 74, 76
7, 183600, Note_on_c, 1, 78, 76
7, 183760, Control_c, 1, 11, 84
7, 183839, Note_on_c, 1, 74, 0
7, 183839, Note_on_c, 1, 78, 0
7, 183840, Note_on_c, 1, 79, 76
7, 183840, Note_on_c, 1, 76, 76
7, 183920, Control_c, 1, 11, 88
7, 184049, Note_on_c, 1, 79, 0
7, 184049, Note_on_c, 1, 76, 0
7, 184080, Note_on_c, 1, 73, 76
7, 184080, Note_on_c, 1, 76, 76
7, 184080, Control_c, 1, 11, 92
7, 184240, Control_c, 1, 11, 96
7, 184259, Note_on_c, 1, 73, 0
7, 184259, Note_on_c, 1, 76, 0
7, 184320, Note_on_c, 1, 74, 76
7, 184320, Note_on_c, 1, 78, 76
7, 184400, Control_c, 1, 11, 100
7, 184559, Note_on_c, 1, 74, 0
7, 184559, Note_on_c, 1, 78, 0
7, 184560, Note_on_c, 1, 79, 76
7, 184560, Control_c, 1, 11, 104
7, 184560, Note_on_c, 1, 76, 76
7, 184720, Control_c, 1, 11, 107
7, 184769, Note_on_c, 1, 79, 0
7, 184769, Note_on_c, 1, 76, 0
7, 184800, Note_on_c, 1, 76, 76
7, 184800, Note_on_c, 1, 73, 76
7, 184880, Control_c, 1, 11, 111
7, 184979, Note_on_c, 1, 76, 0
7, 184979, Note_on_c, 1, 73, 0
7, 185040, Note_on_c, 1, 78, 76
7, 185040, Control_c, 1, 11, 115
7, 185040, Note_on_c, 1, 74, 76
7, 185200, Control_c, 1, 11, 119
7, 185279, Note_on_c, 1, 78, 0
7, 185279, Note_on_c, 1, 74, 0
7, 185280, Note_on_c, 1, 79, 76
7, 185280, Note_on_c, 1, 76, 76
7, 185360, Control_c, 1, 11, 127
7, 185489, Note_on_c, 1, 79, 0
7, 185489, Note_on_c, 1, 76, 0
7, 185520, Note_on_c, 1, 73, 52
7, 185520, Note_on_c, 1, 76, 52
7, 185699, Note_on_c, 1, 73, 0
7, 185699, Note_on_c, 1, 76, 0
7, 185760, Note_on_c, 1, 78, 52
7, 185760, Note_on_c, 1, 74, 52
7, 185999, Note_on_c, 1, 78, 0
7, 185999, Note_on_c, 1, 74, 0
7, 186000, Note_on_c, 1, 76, 52
7, 186000, Note_on_c, 1, 79, 52
7, 186209, Note_on_c, 1, 76, 0
7, 186209, Note_on_c, 1, 79, 0
7, 186240, Note_on_c, 1, 76, 52
7, 186240, Note_on_c, 1, 73, 52
7, 186419, Note_on_c, 1, 76, 0
7, 186419, Note_on_c, 1, 73, 0
7, 186480, Note_on_c, 1, 74, 52
7, 186719, Note_on_c, 1, 74, 0
7, 187200, Note_on_c, 1, 74, 76
7, 187919, Note_on_c, 1, 74, 0
7, 188640, Note_on_c, 1, 74, 76
7, 188640, Note_on_c, 1, 76, 76
7, 189359, Note_on_c, 1, 74, 0
7, 189359, Note_on_c, 1, 76, 0
7, 191520, Note_on_c, 1, 74, 52
7, 191520, Note_on_c, 1, 78, 52
7, 191699, Note_on_c, 1, 74, 0
7, 191699, Note_on_c, 1, 78, 0
7, 191760, Note_on_c, 1, 76, 52
7, 191760, Note_on_c, 1, 69, 52
7, 191939, Note_on_c, 1, 76, 0
7, 191939, Note_on_c, 1, 69, 0
7, 192000, Note_on_c, 1, 66, 52
7, 192000, Note_on_c, 1, 74, 52
7, 192179, Note_on_c, 1, 66, 0
7, 192179, Note_on_c, 1, 74, 0
7, 192960, Note_on_c, 1, 74, 76
7, 193679, Note_on_c, 1, 74, 0
7, 194400, Note_on_c, 1, 76, 76
7, 194400, Note_on_c, 1, 74, 76
7, 195119, Note_on_c, 1, 76, 0
7, 195119, Note_on_c, 1, 74, 0
7, 195840, Note_on_c, 1, 73, 52
7, 195840, Note_on_c, 1, 69, 52
7, 196019, Note_on_c, 1, 73, 0
7, 196019, Note_on_c, 1, 69, 0
7, 196080, Note_on_c, 1, 71, 52
7, 196080, Note_on_c, 1, 74, 52
7, 196259, Note_on_c, 1, 71, 0
7, 196259, Note_on_c, 1, 74, 0
7, 196320, Note_on_c, 1, 73, 52
7, 196320, Note_on_c, 1, 76, 52
7, 196499, Note_on_c, 1, 73, 0
7, 196499, Note_on_c, 1, 76, 0
7, 197280, Note_on_c, 1, 81, 52
7, 197280, Note_on_c, 1, 73, 52
7, 197459, Note_on_c, 1, 81, 0
7, 197459, Note_on_c, 1, 73, 0
7, 197520, Note_on_c, 1, 71, 52
7, 197520, Note_on_c, 1, 80, 52
7, 197699, Note_on_c, 1, 71, 0
7, 197699, Note_on_c, 1, 80, 0
7, 197760, Note_on_c, 1, 81, 52
7, 197760, Note_on_c, 1, 73, 52
7, 197939, Note_on_c, 1, 81, 0
7, 197939, Note_on_c, 1, 73, 0
7, 198720, Note_on_c, 1, 74, 76
7, 199439, Note_on_c, 1, 74, 0
7, 200160, Note_on_c, 1, 74, 76
7, 200160, Note_on_c, 1, 76, 76
7, 200879, Note_on_c, 1, 74, 0
7, 200879, Note_on_c, 1, 76, 0
7, 203040, Note_on_c, 1, 74, 52
7, 203040, Note_on_c, 1, 78, 52
7, 203219, Note_on_c, 1, 74, 0
7, 203219, Note_on_c, 1, 78, 0
7, 203280, Note_on_c, 1, 76, 52
7, 203280, Note_on_c, 1, 69, 52
7, 203459, Note_on_c, 1, 76, 0
7, 203459, Note_on_c, 1, 69, 0
7, 203520, Note_on_c, 1, 74, 52
7, 203520, Note_on_c, 1, 66, 52
7, 203699, Note_on_c, 1, 74, 0
7, 203699, Note_on_c, 1, 66, 0
7, 204480, Note_on_c, 1, 74, 76
7, 205199, Note_on_c, 1, 74, 0
7, 205920, Note_on_c, 1, 76, 76
7, 205920, Note_on_c, 1, 74, 76
7, 206639, Note_on_c, 1, 76, 0
7, 206639, Note_on_c, 1, 74, 0
7, 207360, Note_on_c, 1, 73, 52
7, 207360, Note_on_c, 1, 69, 52
7, 207539, Note_on_c, 1, 73, 0
7, 207539, Note_on_c, 1, 69, 0
7, 207600, Note_on_c, 1, 71, 52
7, 207600, Note_on_c, 1, 74, 52
7, 207779, Note_on_c, 1, 71, 0
7, 207779, Note_on_c, 1, 74, 0
7, 207840, Note_on_c, 1, 76, 52
7, 207840, Note_on_c, 1, 73, 52
7, 208019, Note_on_c, 1, 76, 0
7, 208019, Note_on_c, 1, 73, 0
7, 208800, Note_on_c, 1, 73, 52
7, 208800, Note_on_c, 1, 81, 52
7, 208979, Note_on_c, 1, 73, 0
7, 208979, Note_on_c, 1, 81, 0
7, 209040, Note_on_c, 1, 71, 52
7, 209040, Note_on_c, 1, 80, 52
7, 209219, Note_on_c, 1, 71, 0
7, 209219, Note_on_c, 1, 80, 0
7, 209280, Note_on_c, 1, 73, 52
7, 209280, Note_on_c, 1, 81, 52
7, 209459, Note_on_c, 1, 73, 0
7, 209459, Note_on_c, 1, 81, 0
7, 226080, Note_on_c, 1, 74, 76
7, 226799, Note_on_c, 1, 74, 0
7, 227520, Note_on_c, 1, 76, 76
7, 227520, Note_on_c, 1, 74, 76
7, 228239, Note_on_c, 1, 76, 0
7, 228239, Note_on_c, 1, 74, 0
7, 230400, Note_on_c, 1, 78, 52
7, 230400, Note_on_c, 1, 74, 52
7, 230579, Note_on_c, 1, 78, 0
7, 230579, Note_on_c, 1, 74, 0
7, 230640, Note_on_c, 1, 69, 52
7, 230640, Note_on_c, 1, 76, 52
7, 230819, Note_on_c, 1, 69, 0
7, 230819, Note_on_c, 1, 76, 0
7, 230880, Note_on_c, 1, 74, 52
7, 230880, Note_on_c, 1, 66, 52
7, 231059, Note_on_c, 1, 74, 0
7, 231059, Note_on_c, 1, 66, 0
7, 231120, Note_on_c, 1, 74, 84
7, 231120, Note_on_c, 1, 78, 84
7, 231299, Note_on_c, 1, 74, 0
7, 231299, Note_on_c, 1, 78, 0
7, 231360, Note_on_c, 1, 76, 84
7, 231360, Note_on_c, 1, 79, 84
7, 231539, Note_on_c, 1, 76, 0
7, 231539, Note_on_c, 1, 79, 0
7, 231600, Note_on_c, 1, 74, 84
7, 231600, Note_on_c, 1, 78, 84
7, 231779, Note_on_c, 1, 74, 0
7, 231779, Note_on_c, 1, 78, 0
7, 231840, Note_on_c, 1, 74, 76
7, 232559, Note_on_c, 1, 74, 0
7, 233280, Note_on_c, 1, 74, 76
7, 233280, Note_on_c, 1, 76, 76
7, 233999, Note_on_c, 1, 74, 0
7, 233999, Note_on_c, 1, 76, 0
7, 240480, Note_on_c, 1, 72, 44
7, 241169, Note_on_c, 1, 72, 0
7, 241200, Note_on_c, 1, 77, 44
7, 241379, Note_on_c, 1, 77, 0
7, 241440, Note_on_c, 1, 76, 44
7, 241619, Note_on_c, 1, 76, 0
7, 241680, Note_on_c, 1, 77, 44
7, 241859, Note_on_c, 1, 77, 0
7, 241920, Note_on_c, 1, 69, 44
7, 242609, Note_on_c, 1, 69, 0
7, 242640, Note_on_c, 1, 74, 44
7, 242819, Note_on_c, 1, 74, 0
7, 242880, Note_on_c, 1, 73, 44
7, 243059, Note_on_c, 1, 73, 0
7, 243120, Note_on_c, 1, 74, 44
7, 243299, Note_on_c, 1, 74, 0
7, 246240, Note_on_c, 1, 72, 44
7, 246929, Note_on_c, 1, 72, 0
7, 246960, Note_on_c, 1, 77, 44
7, 247139, Note_on_c, 1, 77, 0
7, 247200, Note_on_c, 1, 76, 44
7, 247379, Note_on_c, 1, 76, 0
7, 247440, Note_on_c, 1, 77, 44
7, 247619, Note_on_c, 1, 77, 0
7, 247680, Note_on_c, 1, 69, 44
7, 248369, Note_on_c, 1, 69, 0
7, 248400, Note_on_c, 1, 74, 44
7, 248579, Note_on_c, 1, 74, 0
7, 248640, Note_on_c, 1, 73, 44
7, 248819, Note_on_c, 1, 73, 0
7, 248880, Note_on_c, 1, 74, 44
7, 249059, Note_on_c, 1, 74, 0
7, 256320, Note_on_c, 1, 69, 84
7, 256320, Note_on_c, 1, 81, 84
7, 257279, Note_on_c, 1, 69, 0
7, 257279, Note_on_c, 1, 81, 0
7, 257280, Note_on_c, 1, 80, 84
7, 257280, Note_on_c, 1, 68, 84
7, 257519, Note_on_c, 1, 80, 0
7, 257519, Note_on_c, 1, 68, 0
7, 257520, Note_on_c, 1, 67, 84
7, 257520, Note_on_c, 1, 79, 84
7, 257729, Note_on_c, 1, 67, 0
7, 257729, Note_on_c, 1, 79, 0
7, 257760, Note_on_c, 1, 78, 84
7, 257760, Note_on_c, 1, 66, 84
7, 257999, Note_on_c, 1, 78, 0
7, 257999, Note_on_c, 1, 66, 0
7, 258240, Note_on_c, 1, 73, 84
7, 258240, Note_on_c, 1, 76, 84
7, 258419, Note_on_c, 1, 73, 0
7, 258419, Note_on_c, 1, 76, 0
7, 258480, Note_on_c, 1, 78, 84
7, 258480, Note_on_c, 1, 74, 84
7, 258659, Note_on_c, 1, 78, 0
7, 258659, Note_on_c, 1, 74, 0
7, 275040, Note_on_c, 1, 74, 76
7, 275759, Note_on_c, 1, 74, 0
7, 276480, Note_on_c, 1, 74, 76
7, 276480, Note_on_c, 1, 76, 76
7, 277199, Note_on_c, 1, 74, 0
7, 277199, Note_on_c, 1, 76, 0
7, 279360, Note_on_c, 1, 74, 52
7, 279360, Note_on_c, 1, 78, 52
7, 279539, Note_on_c, 1, 74, 0
7, 279539, Note_on_c, 1, 78, 0
7, 279600, Note_on_c, 1, 69, 52
7, 279600, Note_on_c, 1, 76, 52
7, 279779, Note_on_c, 1, 69, 0
7, 279779, Note_on_c, 1, 76, 0
7, 279840, Note_on_c, 1, 66, 52
7, 279840, Note_on_c, 1, 74, 52
7, 280019, Note_on_c, 1, 66, 0
7, 280019, Note_on_c, 1, 74, 0
7, 280080, Note_on_c, 1, 78, 84
7, 280080, Note_on_c, 1, 74, 84
7, 280259, Note_on_c, 1, 78, 0
7, 280259, Note_on_c, 1, 74, 0
7, 280320, Note_on_c, 1, 79, 84
7, 280320, Note_on_c, 1, 76, 84
7, 280499, Note_on_c, 1, 79, 0
7, 280499, Note_on_c, 1, 76, 0
7, 280560, Note_on_c, 1, 74, 84
7, 280560, Note_on_c, 1, 78, 84
7, 280739, Note_on_c, 1, 74, 0
7, 280739, Note_on_c, 1, 78, 0
7, 280800, Note_on_c, 1, 74, 76
7, 281519, Note_on_c, 1, 74, 0
7, 282240, Note_on_c, 1, 74, 76
7, 282240, Note_on_c, 1, 76, 76
7, 282959, Note_on_c, 1, 74, 0
7, 282959, Note_on_c, 1, 76, 0
7, 289440, Note_on_c, 1, 72, 44
7, 290129, Note_on_c, 1, 72, 0
7, 290160, Note_on_c, 1, 77, 44
7, 290339, Note_on_c, 1, 77, 0
7, 290400, Note_on_c, 1, 76, 44
7, 290579, Note_on_c, 1, 76, 0
7, 290640, Note_on_c, 1, 77, 44
7, 290819, Note_on_c, 1, 77, 0
7, 290880, Note_on_c, 1, 69, 44
7, 291569, Note_on_c, 1, 69, 0
7, 291600, Note_on_c, 1, 74, 44
7, 291779, Note_on_c, 1, 74, 0
7, 291840, Note_on_c, 1, 73, 44
7, 292019, Note_on_c, 1, 73, 0
7, 292080, Note_on_c, 1, 74, 44
7, 292259, Note_on_c, 1, 74, 0
7, 295200, Note_on_c, 1, 72, 44
7, 295889, Note_on_c, 1, 72, 0
7, 295920, Note_on_c, 1, 77, 44
7, 296099, Note_on_c, 1, 77, 0
7, 296160, Note_on_c, 1, 76, 44
7, 296339, Note_on_c, 1, 76, 0
7, 296400, Note_on_c, 1, 77, 44
7, 296579, Note_on_c, 1, 77, 0
7, 296640, Note_on_c, 1, 69, 44
7, 297329, Note_on_c, 1, 69, 0
7, 297360, Note_on_c, 1, 74, 44
7, 297539, Note_on_c, 1, 74, 0
7, 297600, Note_on_c, 1, 73, 44
7, 297779, Note_on_c, 1, 73, 0
7, 297840, Note_on_c, 1, 74, 44
7, 298019, Note_on_c, 1, 74, 0
7, 305280, Note_on_c, 1, 81, 84
7, 305280, Note_on_c, 1, 69, 84
7, 306239, Note_on_c, 1, 81, 0
7, 306239, Note_on_c, 1, 69, 0
7, 306240, Note_on_c, 1, 68, 84
7, 306240, Note_on_c, 1, 80, 84
7, 306479, Note_on_c, 1, 68, 0
7, 306479, Note_on_c, 1, 80, 0
7, 306480, Note_on_c, 1, 67, 84
7, 306480, Note_on_c, 1, 79, 84
7, 306689, Note_on_c, 1, 67, 0
7, 306689, Note_on_c, 1, 79, 0
7, 306720, Note_on_c, 1, 66, 84
7, 306720, Note_on_c, 1, 78, 84
7, 306959, Note_on_c, 1, 66, 0
7, 306959, Note_on_c, 1, 78, 0
7, 307200, Note_on_c, 1, 76, 84
7, 307200, Note_on_c, 1, 73, 84
7, 307379, Note_on_c, 1, 76, 0
7, 307379, Note_on_c, 1, 73, 0
7, 307440, Note_on_c, 1, 78, 84
7, 307440, Note_on_c, 1, 74, 84
7, 307619, Note_on_c, 1, 78, 0
7, 307619, Note_on_c, 1, 74, 0
7, 307619, End_track
8, 0, Start_track
8, 0, Title_t, "Clarinet in A"
8, 0, MIDI_port, 0
8, 0, Program_c, 2, 71
8, 0, Control_c, 2, 7, 96
8, 0, Control_c, 2, 10, 75
8, 0, Control_c, 2, 11, 127
8, 0, Note_on_c, 2, 74, 76
8, 0, Note_on_c, 2, 62, 76
8, 719, Note_on_c, 2, 74, 0
8, 719, Note_on_c, 2, 62, 0
8, 1440, Note_on_c, 2, 64, 76
8, 1440, Note_on_c, 2, 74, 76
8, 2159, Note_on_c, 2, 64, 0
8, 2159, Note_on_c, 2, 74, 0
8, 5040, Note_on_c, 2, 66, 84
8, 5040, Note_on_c, 2, 74, 84
8, 5219, Note_on_c, 2, 66, 0
8, 5219, Note_on_c, 2, 74, 0
8, 5280, Note_on_c, 2, 67, 84
8, 5280, Note_on_c, 2, 76, 84
8, 5459, Note_on_c, 2, 67, 0
8, 5459, Note_on_c, 2, 76, 0
8, 5520, Note_on_c, 2, 74, 84
8, 5520, Note_on_c, 2, 66, 84
8, 5699, Note_on_c, 2, 74, 0
8, 5699, Note_on_c, 2, 66, 0
8, 5760, Note_on_c, 2, 62, 76
8, 5760, Note_on_c, 2, 74, 76
8, 6479, Note_on_c, 2, 62, 0
8, 6479, Note_on_c, 2, 74, 0
8, 7200, Note_on_c, 2, 64, 76
8, 7200, Note_on_c, 2, 74, 76
8, 7919, Note_on_c, 2, 64, 0
8, 7919, Note_on_c, 2, 74, 0
8, 10800, Note_on_c, 2, 69, 84
8, 10800, Note_on_c, 2, 73, 84
8, 10979, Note_on_c, 2, 69, 0
8, 10979, Note_on_c, 2, 73, 0
8, 11040, Note_on_c, 2, 71, 84
8, 11040, Note_on_c, 2, 68, 84
8, 11219, Note_on_c, 2, 71, 0
8, 11219, Note_on_c, 2, 68, 0
8, 11280, Note_on_c, 2, 73, 84
8, 11280, Note_on_c, 2, 69, 84
8, 11459, Note_on_c, 2, 73, 0
8, 11459, Note_on_c, 2, 69, 0
8, 11520, Note_on_c, 2, 74, 76
8, 11520, Note_on_c, 2, 62, 76
8, 12239, Note_on_c, 2, 74, 0
8, 12239, Note_on_c, 2, 62, 0
8, 12960, Note_on_c, 2, 74, 76
8, 12960, Note_on_c, 2, 64, 76
8, 13679, Note_on_c, 2, 74, 0
8, 13679, Note_on_c, 2, 64, 0
8, 16560, Note_on_c, 2, 74, 84
8, 16560, Note_on_c, 2, 66, 84
8, 16739, Note_on_c, 2, 74, 0
8, 16739, Note_on_c, 2, 66, 0
8, 16800, Note_on_c, 2, 67, 84
8, 16800, Note_on_c, 2, 76, 84
8, 16979, Note_on_c, 2, 67, 0
8, 16979, Note_on_c, 2, 76, 0
8, 17040, Note_on_c, 2, 66, 84
8, 17040, Note_on_c, 2, 74, 84
8, 17219, Note_on_c, 2, 66, 0
8, 17219, Note_on_c, 2, 74, 0
8, 17280, Note_on_c, 2, 62, 76
8, 17280, Note_on_c, 2, 74, 76
8, 17999, Note_on_c, 2, 62, 0
8, 17999, Note_on_c, 2, 74, 0
8, 18720, Note_on_c, 2, 74, 76
8, 18720, Note_on_c, 2, 64, 76
8, 19439, Note_on_c, 2, 74, 0
8, 19439, Note_on_c, 2, 64, 0
8, 22320, Note_on_c, 2, 69, 84
8, 22320, Note_on_c, 2, 73, 84
8, 22499, Note_on_c, 2, 69, 0
8, 22499, Note_on_c, 2, 73, 0
8, 22560, Note_on_c, 2, 68, 84
8, 22560, Note_on_c, 2, 71, 84
8, 22739, Note_on_c, 2, 68, 0
8, 22739, Note_on_c, 2, 71, 0
8, 22800, Note_on_c, 2, 69, 84
8, 22800, Note_on_c, 2, 73, 84
8, 22979, Note_on_c, 2, 69, 0
8, 22979, Note_on_c, 2, 73, 0
8, 28800, Note_on_c, 2, 67, 52
8, 28800, Note_on_c, 2, 71, 52
8, 28979, Note_on_c, 2, 67, 0
8, 28979, Note_on_c, 2, 71, 0
8, 29040, Note_on_c, 2, 67, 76
8, 29040, Note_on_c, 2, 71, 76
8, 29160, Control_c, 2, 11, 80
8, 30209, Note_on_c, 2, 67, 0
8, 30209, Note_on_c, 2, 71, 0
8, 30240, Note_on_c, 2, 69, 76
8, 30240, Note_on_c, 2, 72, 76
8, 31649, Note_on_c, 2, 69, 0
8, 31649, Note_on_c, 2, 72, 0
8, 31680, Note_on_c, 2, 67, 76
8, 31680, Note_on_c, 2, 71, 76
8, 31919, Note_on_c, 2, 67, 0
8, 31919, Note_on_c, 2, 71, 0
8, 38160, Control_c, 2, 11, 127
8, 38880, Note_on_c, 2, 62, 76
8, 38880, Note_on_c, 2, 74, 76
8, 39599, Note_on_c, 2, 62, 0
8, 39599, Note_on_c, 2, 74, 0
8, 40320, Note_on_c, 2, 64, 76
8, 40320, Note_on_c, 2, 74, 76
8, 41039, Note_on_c, 2, 64, 0
8, 41039, Note_on_c, 2, 74, 0
8, 43920, Note_on_c, 2, 74, 84
8, 43920, Note_on_c, 2, 66, 84
8, 44099, Note_on_c, 2, 74, 0
8, 44099, Note_on_c, 2, 66, 0
8, 44160, Note_on_c, 2, 76, 84
8, 44160, Note_on_c, 2, 67, 84
8, 44339, Note_on_c, 2, 76, 0
8, 44339, Note_on_c, 2, 67, 0
8, 44400, Note_on_c, 2, 66, 84
8, 44400, Note_on_c, 2, 74, 84
8, 44579, Note_on_c, 2, 66, 0
8, 44579, Note_on_c, 2, 74, 0
8, 44640, Note_on_c, 2, 62, 76
8, 44640, Note_on_c, 2, 74, 76
8, 45359, Note_on_c, 2, 62, 0
8, 45359, Note_on_c, 2, 74, 0
8, 46080, Note_on_c, 2, 74, 76
8, 46080, Note_on_c, 2, 64, 76
8, 46799, Note_on_c, 2, 74, 0
8, 46799, Note_on_c, 2, 64, 0
8, 55440, Control_c, 2, 11, 80
8, 56160, Note_on_c, 2, 62, 76
8, 56160, Note_on_c, 2, 74, 76
8, 56280, Control_c, 2, 11, 84
8, 56400, Control_c, 2, 11, 88
8, 56520, Control_c, 2, 11, 92
8, 56640, Control_c, 2, 11, 96
8, 56760, Control_c, 2, 11, 100
8, 56880, Control_c, 2, 11, 104
8, 57000, Control_c, 2, 11, 107
8, 57120, Control_c, 2, 11, 111
8, 57240, Control_c, 2, 11, 115
8, 57360, Control_c, 2, 11, 119
8, 57480, Control_c, 2, 11, 123
8, 57569, Note_on_c, 2, 62, 0
8, 57569, Note_on_c, 2, 74, 0
8, 57600, Note_on_c, 2, 61, 76
8, 57600, Control_c, 2, 11, 127
8, 57600, Note_on_c, 2, 73, 76
8, 58319, Note_on_c, 2, 61, 0
8, 58319, Note_on_c, 2, 73, 0
8, 58320, Note_on_c, 2, 62, 76
8, 58320, Note_on_c, 2, 74, 76
8, 58559, Note_on_c, 2, 62, 0
8, 58559, Note_on_c, 2, 74, 0
8, 61200, Control_c, 2, 11, 80
8, 61920, Note_on_c, 2, 62, 76
8, 61920, Note_on_c, 2, 74, 76
8, 62040, Control_c, 2, 11, 84
8, 62160, Control_c, 2, 11, 88
8, 62280, Control_c, 2, 11, 92
8, 62400, Control_c, 2, 11, 96
8, 62520, Control_c, 2, 11, 100
8, 62640, Control_c, 2, 11, 104
8, 62760, Control_c, 2, 11, 107
8, 62880, Control_c, 2, 11, 111
8, 63000, Control_c, 2, 11, 115
8, 63120, Control_c, 2, 11, 119
8, 63240, Control_c, 2, 11, 123
8, 63329, Note_on_c, 2, 62, 0
8, 63329, Note_on_c, 2, 74, 0
8, 63360, Note_on_c, 2, 73, 76
8, 63360, Note_on_c, 2, 61, 76
8, 63360, Control_c, 2, 11, 127
8, 64079, Note_on_c, 2, 73, 0
8, 64079, Note_on_c, 2, 61, 0
8, 64080, Note_on_c, 2, 62, 76
8, 64080, Note_on_c, 2, 74, 76
8, 64319, Note_on_c, 2, 62, 0
8, 64319, Note_on_c, 2, 74, 0
8, 64560, Control_c, 2, 11, 80
8, 64800, Note_on_c, 2, 74, 76
8, 64800, Note_on_c, 2, 62, 76
8, 64920, Control_c, 2, 11, 84
8, 65040, Control_c, 2, 11, 88
8, 65160, Control_c, 2, 11, 92
8, 65280, Control_c, 2, 11, 96
8, 65400, Control_c, 2, 11, 100
8, 65520, Control_c, 2, 11, 104
8, 65640, Control_c, 2, 11, 107
8, 65760, Control_c, 2, 11, 111
8, 65880, Control_c, 2, 11, 115
8, 66000, Control_c, 2, 11, 119
8, 66120, Control_c, 2, 11, 123
8, 66209, Note_on_c, 2, 74, 0
8, 66209, Note_on_c, 2, 62, 0
8, 66240, Control_c, 2, 11, 127
8, 66240, Note_on_c, 2, 73, 84
8, 66240, Note_on_c, 2, 61, 84
8, 66929, Note_on_c, 2, 73, 0
8, 66929, Note_on_c, 2, 61, 0
8, 66960, Note_on_c, 2, 74, 76
8, 66960, Note_on_c, 2, 62, 76
8, 67199, Note_on_c, 2, 74, 0
8, 67199, Note_on_c, 2, 62, 0
8, 67680, Note_on_c, 2, 73, 84
8, 68369, Note_on_c, 2, 73, 0
8, 68400, Note_on_c, 2, 74, 76
8, 68639, Note_on_c, 2, 74, 0
8, 69120, Note_on_c, 2, 69, 84
8, 69120, Note_on_c, 2, 73, 84
8, 70079, Note_on_c, 2, 69, 0
8, 70079, Note_on_c, 2, 73, 0
8, 70080, Note_on_c, 2, 71, 84
8, 70080, Note_on_c, 2, 74, 84
8, 70319, Note_on_c, 2, 71, 0
8, 70319, Note_on_c, 2, 74, 0
8, 70320, Note_on_c, 2, 73, 84
8, 70320, Note_on_c, 2, 76, 84
8, 70529, Note_on_c, 2, 73, 0
8, 70529, Note_on_c, 2, 76, 0
8, 70560, Note_on_c, 2, 78, 84
8, 70560, Note_on_c, 2, 74, 84
8, 70799, Note_on_c, 2, 78, 0
8, 70799, Note_on_c, 2, 74, 0
8, 71040, Note_on_c, 2, 73, 84
8, 71040, Note_on_c, 2, 76, 84
8, 71219, Note_on_c, 2, 73, 0
8, 71219, Note_on_c, 2, 76, 0
8, 71280, Note_on_c, 2, 74, 84
8, 71459, Note_on_c, 2, 74, 0
8, 77760, Note_on_c, 2, 71, 52
8, 77760, Note_on_c, 2, 67, 52
8, 77939, Note_on_c, 2, 71, 0
8, 77939, Note_on_c, 2, 67, 0
8, 78000, Note_on_c, 2, 67, 76
8, 78000, Note_on_c, 2, 71, 76
8, 78120, Control_c, 2, 11, 80
8, 79169, Note_on_c, 2, 67, 0
8, 79169, Note_on_c, 2, 71, 0
8, 79200, Note_on_c, 2, 72, 76
8, 79200, Note_on_c, 2, 69, 76
8, 80609, Note_on_c, 2, 72, 0
8, 80609, Note_on_c, 2, 69, 0
8, 80640, Note_on_c, 2, 67, 76
8, 80640, Note_on_c, 2, 71, 76
8, 80879, Note_on_c, 2, 67, 0
8, 80879, Note_on_c, 2, 71, 0
8, 87120, Control_c, 2, 11, 127
8, 87840, Note_on_c, 2, 74, 76
8, 87840, Note_on_c, 2, 62, 76
8, 88559, Note_on_c, 2, 74, 0
8, 88559, Note_on_c, 2, 62, 0
8, 89280, Note_on_c, 2, 64, 76
8, 89280, Note_on_c, 2, 74, 76
8, 89999, Note_on_c, 2, 64, 0
8, 89999, Note_on_c, 2, 74, 0
8, 92880, Note_on_c, 2, 74, 84
8, 92880, Note_on_c, 2, 66, 84
8, 93059, Note_on_c, 2, 74, 0
8, 93059, Note_on_c, 2, 66, 0
8, 93120, Note_on_c, 2, 76, 84
8, 93120, Note_on_c, 2, 67, 84
8, 93299, Note_on_c, 2, 76, 0
8, 93299, Note_on_c, 2, 67, 0
8, 93360, Note_on_c, 2, 74, 84
8, 93360, Note_on_c, 2, 66, 84
8, 93539, Note_on_c, 2, 74, 0
8, 93539, Note_on_c, 2, 66, 0
8, 93600, Note_on_c, 2, 74, 76
8, 93600, Note_on_c, 2, 62, 76
8, 94319, Note_on_c, 2, 74, 0
8, 94319, Note_on_c, 2, 62, 0
8, 95040, Note_on_c, 2, 74, 76
8, 95040, Note_on_c, 2, 64, 76
8, 95759, Note_on_c, 2, 74, 0
8, 95759, Note_on_c, 2, 64, 0
8, 104400, Control_c, 2, 11, 80
8, 105120, Note_on_c, 2, 62, 76
8, 105120, Note_on_c, 2, 74, 76
8, 105240, Control_c, 2, 11, 84
8, 105360, Control_c, 2, 11, 88
8, 105480, Control_c, 2, 11, 92
8, 105600, Control_c, 2, 11, 96
8, 105720, Control_c, 2, 11, 100
8, 105840, Control_c, 2, 11, 104
8, 105960, Control_c, 2, 11, 107
8, 106080, Control_c, 2, 11, 111
8, 106200, Control_c, 2, 11, 115
8, 106320, Control_c, 2, 11, 119
8, 106440, Control_c, 2, 11, 123
8, 106529, Note_on_c, 2, 62, 0
8, 106529, Note_on_c, 2, 74, 0
8, 106560, Note_on_c, 2, 61, 76
8, 106560, Note_on_c, 2, 73, 76
8, 106560, Control_c, 2, 11, 127
8, 107279, Note_on_c, 2, 61, 0
8, 107279, Note_on_c, 2, 73, 0
8, 107280, Note_on_c, 2, 74, 76
8, 107280, Note_on_c, 2, 62, 76
8, 107519, Note_on_c, 2, 74, 0
8, 107519, Note_on_c, 2, 62, 0
8, 110160, Control_c, 2, 11, 80
8, 110880, Note_on_c, 2, 74, 76
8, 110880, Note_on_c, 2, 62, 76
8, 111000, Control_c, 2, 11, 84
8, 111120, Control_c, 2, 11, 88
8, 111240, Control_c, 2, 11, 92
8, 111360, Control_c, 2, 11, 96
8, 111480, Control_c, 2, 11, 100
8, 111600, Control_c, 2, 11, 104
8, 111720, Control_c, 2, 11, 107
8, 111840, Control_c, 2, 11, 111
8, 111960, Control_c, 2, 11, 115
8, 112080, Control_c, 2, 11, 119
8, 112200, Control_c, 2, 11, 123
8, 112289, Note_on_c, 2, 74, 0
8, 112289, Note_on_c, 2, 62, 0
8, 112320, Note_on_c, 2, 73, 76
8, 112320, Note_on_c, 2, 61, 76
8, 112320, Control_c, 2, 11, 127
8, 113039, Note_on_c, 2, 73, 0
8, 113039, Note_on_c, 2, 61, 0
8, 113040, Note_on_c, 2, 62, 76
8, 113040, Note_on_c, 2, 74, 76
8, 113279, Note_on_c, 2, 62, 0
8, 113279, Note_on_c, 2, 74, 0
8, 113520, Control_c, 2, 11, 80
8, 113760, Note_on_c, 2, 62, 76
8, 113760, Note_on_c, 2, 74, 76
8, 113880, Control_c, 2, 11, 84
8, 114000, Control_c, 2, 11, 88
8, 114120, Control_c, 2, 11, 92
8, 114240, Control_c, 2, 11, 96
8, 114360, Control_c, 2, 11, 100
8, 114480, Control_c, 2, 11, 104
8, 114600, Control_c, 2, 11, 107
8, 114720, Control_c, 2, 11, 111
8, 114840, Control_c, 2, 11, 115
8, 114960, Control_c, 2, 11, 119
8, 115080, Control_c, 2, 11, 123
8, 115169, Note_on_c, 2, 62, 0
8, 115169, Note_on_c, 2, 74, 0
8, 115200, Control_c, 2, 11, 127
8, 115200, Note_on_c, 2, 73, 84
8, 115200, Note_on_c, 2, 61, 84
8, 115889, Note_on_c, 2, 73, 0
8, 115889, Note_on_c, 2, 61, 0
8, 115920, Note_on_c, 2, 74, 76
8, 115920, Note_on_c, 2, 62, 76
8, 116159, Note_on_c, 2, 74, 0
8, 116159, Note_on_c, 2, 62, 0
8, 116640, Note_on_c, 2, 73, 84
8, 117329, Note_on_c, 2, 73, 0
8, 117360, Note_on_c, 2, 74, 76
8, 117599, Note_on_c, 2, 74, 0
8, 118080, Note_on_c, 2, 69, 84
8, 118080, Note_on_c, 2, 73, 84
8, 119039, Note_on_c, 2, 69, 0
8, 119039, Note_on_c, 2, 73, 0
8, 119040, Note_on_c, 2, 71, 84
8, 119040, Note_on_c, 2, 74, 84
8, 119279, Note_on_c, 2, 71, 0
8, 119279, Note_on_c, 2, 74, 0
8, 119280, Note_on_c, 2, 76, 84
8, 119280, Note_on_c, 2, 73, 84
8, 119489, Note_on_c, 2, 76, 0
8, 119489, Note_on_c, 2, 73, 0
8, 119520, Note_on_c, 2, 78, 84
8, 119520, Note_on_c, 2, 74, 84
8, 119759, Note_on_c, 2, 78, 0
8, 119759, Note_on_c, 2, 74, 0
8, 120000, Note_on_c, 2, 73, 84
8, 120000, Note_on_c, 2, 76, 84
8, 120179, Note_on_c, 2, 73, 0
8, 120179, Note_on_c, 2, 76, 0
8, 120240, Note_on_c, 2, 74, 84
8, 120419, Note_on_c, 2, 74, 0
8, 142560, Note_on_c, 2, 81, 84
8, 142560, Note_on_c, 2, 69, 84
8, 143969, Note_on_c, 2, 81, 0
8, 143969, Note_on_c, 2, 69, 0
8, 144000, Note_on_c, 2, 66, 52
8, 144000, Note_on_c, 2, 78, 52
8, 144239, Note_on_c, 2, 66, 0
8, 144239, Note_on_c, 2, 78, 0
8, 146160, Control_c, 2, 11, 80
8, 146640, Note_on_c, 2, 69, 76
8, 146819, Note_on_c, 2, 69, 0
8, 146880, Note_on_c, 2, 71, 76
8, 146880, Control_c, 2, 11, 80
8, 146940, Control_c, 2, 11, 84
8, 147000, Control_c, 2, 11, 88
8, 147060, Control_c, 2, 11, 92
8, 147120, Control_c, 2, 11, 96
8, 147180, Control_c, 2, 11, 100
8, 147240, Control_c, 2, 11, 104
8, 147300, Control_c, 2, 11, 107
8, 147360, Control_c, 2, 11, 111
8, 147420, Control_c, 2, 11, 115
8, 147480, Control_c, 2, 11, 119
8, 147540, Control_c, 2, 11, 123
8, 147599, Note_on_c, 2, 71, 0
8, 147600, Note_on_c, 2, 69, 84
8, 147600, Control_c, 2, 11, 127
8, 147660, Control_c, 2, 11, 123
8, 147720, Control_c, 2, 11, 119
8, 147780, Control_c, 2, 11, 115
8, 147840, Control_c, 2, 11, 111
8, 147900, Control_c, 2, 11, 107
8, 147960, Control_c, 2, 11, 104
8, 148020, Control_c, 2, 11, 100
8, 148079, Note_on_c, 2, 69, 0
8, 148080, Note_on_c, 2, 67, 76
8, 148080, Control_c, 2, 11, 96
8, 148140, Control_c, 2, 11, 92
8, 148200, Control_c, 2, 11, 88
8, 148260, Control_c, 2, 11, 84
8, 148289, Note_on_c, 2, 67, 0
8, 148320, Note_on_c, 2, 66, 76
8, 148320, Control_c, 2, 11, 80
8, 148559, Note_on_c, 2, 66, 0
8, 148560, Note_on_c, 2, 71, 76
8, 148769, Note_on_c, 2, 71, 0
8, 148800, Note_on_c, 2, 67, 76
8, 148979, Note_on_c, 2, 67, 0
8, 149040, Note_on_c, 2, 66, 76
8, 149279, Note_on_c, 2, 66, 0
8, 157680, Control_c, 2, 11, 127
8, 158160, Note_on_c, 2, 73, 52
8, 158160, Note_on_c, 2, 64, 52
8, 158339, Note_on_c, 2, 73, 0
8, 158339, Note_on_c, 2, 64, 0
8, 158400, Note_on_c, 2, 66, 52
8, 158400, Note_on_c, 2, 74, 52
8, 158639, Note_on_c, 2, 66, 0
8, 158639, Note_on_c, 2, 74, 0
8, 158640, Note_on_c, 2, 76, 52
8, 158640, Note_on_c, 2, 67, 52
8, 158849, Note_on_c, 2, 76, 0
8, 158849, Note_on_c, 2, 67, 0
8, 158880, Note_on_c, 2, 73, 52
8, 158880, Note_on_c, 2, 64, 52
8, 159059, Note_on_c, 2, 73, 0
8, 159059, Note_on_c, 2, 64, 0
8, 159120, Note_on_c, 2, 66, 52
8, 159120, Note_on_c, 2, 74, 52
8, 159359, Note_on_c, 2, 66, 0
8, 159359, Note_on_c, 2, 74, 0
8, 169920, Note_on_c, 2, 69, 84
8, 169920, Note_on_c, 2, 81, 84
8, 171329, Note_on_c, 2, 69, 0
8, 171329, Note_on_c, 2, 81, 0
8, 171360, Note_on_c, 2, 78, 52
8, 171360, Note_on_c, 2, 66, 52
8, 171599, Note_on_c, 2, 78, 0
8, 171599, Note_on_c, 2, 66, 0
8, 173520, Control_c, 2, 11, 80
8, 174000, Note_on_c, 2, 69, 76
8, 174179, Note_on_c, 2, 69, 0
8, 174240, Note_on_c, 2, 71, 76
8, 174240, Control_c, 2, 11, 80
8, 174300, Control_c, 2, 11, 84
8, 174360, Control_c, 2, 11, 88
8, 174420, Control_c, 2, 11, 92
8, 174480, Control_c, 2, 11, 96
8, 174540, Control_c, 2, 11, 100
8, 174600, Control_c, 2, 11, 104
8, 174660, Control_c, 2, 11, 107
8, 174720, Control_c, 2, 11, 111
8, 174780, Control_c, 2, 11, 115
8, 174840, Control_c, 2, 11, 119
8, 174900, Control_c, 2, 11, 123
8, 174959, Note_on_c, 2, 71, 0
8, 174960, Note_on_c, 2, 69, 84
8, 174960, Control_c, 2, 11, 127
8, 175020, Control_c, 2, 11, 123
8, 175080, Control_c, 2, 11, 119
8, 175140, Control_c, 2, 11, 115
8, 175200, Control_c, 2, 11, 111
8, 175260, Control_c, 2, 11, 107
8, 175320, Control_c, 2, 11, 104
8, 175380, Control_c, 2, 11, 100
8, 175439, Note_on_c, 2, 69, 0
8, 175440, Note_on_c, 2, 67, 76
8, 175440, Control_c, 2, 11, 96
8, 175500, Control_c, 2, 11, 92
8, 175560, Control_c, 2, 11, 88
8, 175620, Control_c, 2, 11, 84
8, 175649, Note_on_c, 2, 67, 0
8, 175680, Control_c, 2, 11, 80
8, 175680, Note_on_c, 2, 66, 76
8, 175919, Note_on_c, 2, 66, 0
8, 175920, Note_on_c, 2, 71, 76
8, 176129, Note_on_c, 2, 71, 0
8, 176160, Note_on_c, 2, 67, 76
8, 176339, Note_on_c, 2, 67, 0
8, 176400, Note_on_c, 2, 66, 76
8, 176639, Note_on_c, 2, 66, 0
8, 185040, Control_c, 2, 11, 127
8, 185520, Note_on_c, 2, 73, 52
8, 185520, Note_on_c, 2, 64, 52
8, 185699, Note_on_c, 2, 73, 0
8, 185699, Note_on_c, 2, 64, 0
8, 185760, Note_on_c, 2, 74, 52
8, 185760, Note_on_c, 2, 66, 52
8, 185999, Note_on_c, 2, 74, 0
8, 185999, Note_on_c, 2, 66, 0
8, 186000, Note_on_c, 2, 76, 52
8, 186000, Note_on_c, 2, 67, 52
8, 186209, Note_on_c, 2, 76, 0
8, 186209, Note_on_c, 2, 67, 0
8, 186240, Note_on_c, 2, 73, 52
8, 186240, Note_on_c, 2, 64, 52
8, 186419, Note_on_c, 2, 73, 0
8, 186419, Note_on_c, 2, 64, 0
8, 186480, Note_on_c, 2, 66, 52
8, 186480, Note_on_c, 2, 74, 52
8, 186719, Note_on_c, 2, 66, 0
8, 186719, Note_on_c, 2, 74, 0
8, 187200, Note_on_c, 2, 62, 76
8, 187200, Note_on_c, 2, 74, 76
8, 187919, Note_on_c, 2, 62, 0
8, 187919, Note_on_c, 2, 74, 0
8, 188640, Note_on_c, 2, 64, 76
8, 188640, Note_on_c, 2, 74, 76
8, 189359, Note_on_c, 2, 64, 0
8, 189359, Note_on_c, 2, 74, 0
8, 192240, Note_on_c, 2, 66, 84
8, 192240, Note_on_c, 2, 74, 84
8, 192419, Note_on_c, 2, 66, 0
8, 192419, Note_on_c, 2, 74, 0
8, 192480, Note_on_c, 2, 76, 84
8, 192480, Note_on_c, 2, 67, 84
8, 192659, Note_on_c, 2, 76, 0
8, 192659, Note_on_c, 2, 67, 0
8, 192720, Note_on_c, 2, 66, 84
8, 192720, Note_on_c, 2, 74, 84
8, 192899, Note_on_c, 2, 66, 0
8, 192899, Note_on_c, 2, 74, 0
8, 192960, Note_on_c, 2, 74, 76
8, 192960, Note_on_c, 2, 62, 76
8, 193679, Note_on_c, 2, 74, 0
8, 193679, Note_on_c, 2, 62, 0
8, 194400, Note_on_c, 2, 74, 76
8, 194400, Note_on_c, 2, 64, 76
8, 195119, Note_on_c, 2, 74, 0
8, 195119, Note_on_c, 2, 64, 0
8, 198000, Note_on_c, 2, 69, 84
8, 198000, Note_on_c, 2, 73, 84
8, 198179, Note_on_c, 2, 69, 0
8, 198179, Note_on_c, 2, 73, 0
8, 198240, Note_on_c, 2, 68, 84
8, 198240, Note_on_c, 2, 71, 84
8, 198419, Note_on_c, 2, 68, 0
8, 198419, Note_on_c, 2, 71, 0
8, 198480, Note_on_c, 2, 69, 84
8, 198480, Note_on_c, 2, 73, 84
8, 198659, Note_on_c, 2, 69, 0
8, 198659, Note_on_c, 2, 73, 0
8, 198720, Note_on_c, 2, 74, 76
8, 198720, Note_on_c, 2, 62, 76
8, 199439, Note_on_c, 2, 74, 0
8, 199439, Note_on_c, 2, 62, 0
8, 200160, Note_on_c, 2, 64, 76
8, 200160, Note_on_c, 2, 74, 76
8, 200879, Note_on_c, 2, 64, 0
8, 200879, Note_on_c, 2, 74, 0
8, 203760, Note_on_c, 2, 66, 84
8, 203760, Note_on_c, 2, 74, 84
8, 203939, Note_on_c, 2, 66, 0
8, 203939, Note_on_c, 2, 74, 0
8, 204000, Note_on_c, 2, 76, 84
8, 204000, Note_on_c, 2, 67, 84
8, 204179, Note_on_c, 2, 76, 0
8, 204179, Note_on_c, 2, 67, 0
8, 204240, Note_on_c, 2, 74, 84
8, 204240, Note_on_c, 2, 66, 84
8, 204419, Note_on_c, 2, 74, 0
8, 204419, Note_on_c, 2, 66, 0
8, 204480, Note_on_c, 2, 62, 76
8, 204480, Note_on_c, 2, 74, 76
8, 205199, Note_on_c, 2, 62, 0
8, 205199, Note_on_c, 2, 74, 0
8, 205920, Note_on_c, 2, 64, 76
8, 205920, Note_on_c, 2, 74, 76
8, 206639, Note_on_c, 2, 64, 0
8, 206639, Note_on_c, 2, 74, 0
8, 209520, Note_on_c, 2, 69, 84
8, 209520, Note_on_c, 2, 73, 84
8, 209699, Note_on_c, 2, 69, 0
8, 209699, Note_on_c, 2, 73, 0
8, 209760, Note_on_c, 2, 68, 84
8, 209760, Note_on_c, 2, 71, 84
8, 209939, Note_on_c, 2, 68, 0
8, 209939, Note_on_c, 2, 71, 0
8, 210000, Note_on_c, 2, 69, 84
8, 210000, Note_on_c, 2, 73, 84
8, 210179, Note_on_c, 2, 69, 0
8, 210179, Note_on_c, 2, 73, 0
8, 216000, Note_on_c, 2, 67, 52
8, 216000, Note_on_c, 2, 71, 52
8, 216179, Note_on_c, 2, 67, 0
8, 216179, Note_on_c, 2, 71, 0
8, 216240, Note_on_c, 2, 67, 76
8, 216240, Note_on_c, 2, 71, 76
8, 216360, Control_c, 2, 11, 80
8, 217409, Note_on_c, 2, 67, 0
8, 217409, Note_on_c, 2, 71, 0
8, 217440, Note_on_c, 2, 72, 76
8, 217440, Note_on_c, 2, 69, 76
8, 218849, Note_on_c, 2, 72, 0
8, 218849, Note_on_c, 2, 69, 0
8, 218880, Note_on_c, 2, 71, 76
8, 218880, Note_on_c, 2, 67, 76
8, 219119, Note_on_c, 2, 71, 0
8, 219119, Note_on_c, 2, 67, 0
8, 225360, Control_c, 2, 11, 127
8, 226080, Note_on_c, 2, 74, 76
8, 226080, Note_on_c, 2, 62, 76
8, 226799, Note_on_c, 2, 74, 0
8, 226799, Note_on_c, 2, 62, 0
8, 227520, Note_on_c, 2, 74, 76
8, 227520, Note_on_c, 2, 64, 76
8, 228239, Note_on_c, 2, 74, 0
8, 228239, Note_on_c, 2, 64, 0
8, 231120, Note_on_c, 2, 74, 84
8, 231120, Note_on_c, 2, 66, 84
8, 231299, Note_on_c, 2, 74, 0
8, 231299, Note_on_c, 2, 66, 0
8, 231360, Note_on_c, 2, 76, 84
8, 231360, Note_on_c, 2, 67, 84
8, 231539, Note_on_c, 2, 76, 0
8, 231539, Note_on_c, 2, 67, 0
8, 231600, Note_on_c, 2, 74, 84
8, 231600, Note_on_c, 2, 66, 84
8, 231779, Note_on_c, 2, 74, 0
8, 231779, Note_on_c, 2, 66, 0
8, 231840, Note_on_c, 2, 62, 76
8, 231840, Note_on_c, 2, 74, 76
8, 232559, Note_on_c, 2, 62, 0
8, 232559, Note_on_c, 2, 74, 0
8, 233280, Note_on_c, 2, 64, 76
8, 233280, Note_on_c, 2, 74, 76
8, 233999, Note_on_c, 2, 64, 0
8, 233999, Note_on_c, 2, 74, 0
8, 242640, Control_c, 2, 11, 80
8, 243360, Note_on_c, 2, 74, 76
8, 243360, Note_on_c, 2, 62, 76
8, 243480, Control_c, 2, 11, 84
8, 243600, Control_c, 2, 11, 88
8, 243720, Control_c, 2, 11, 92
8, 243840, Control_c, 2, 11, 96
8, 243960, Control_c, 2, 11, 100
8, 244080, Control_c, 2, 11, 104
8, 244200, Control_c, 2, 11, 107
8, 244320, Control_c, 2, 11, 111
8, 244440, Control_c, 2, 11, 115
8, 244560, Control_c, 2, 11, 119
8, 244680, Control_c, 2, 11, 123
8, 244769, Note_on_c, 2, 74, 0
8, 244769, Note_on_c, 2, 62, 0
8, 244800, Note_on_c, 2, 61, 76
8, 244800, Control_c, 2, 11, 127
8, 244800, Note_on_c, 2, 73, 76
8, 245519, Note_on_c, 2, 61, 0
8, 245519, Note_on_c, 2, 73, 0
8, 245520, Note_on_c, 2, 74, 76
8, 245520, Note_on_c, 2, 62, 76
8, 245759, Note_on_c, 2, 74, 0
8, 245759, Note_on_c, 2, 62, 0
8, 248400, Control_c, 2, 11, 80
8, 249120, Note_on_c, 2, 74, 76
8, 249120, Note_on_c, 2, 62, 76
8, 249240, Control_c, 2, 11, 84
8, 249360, Control_c, 2, 11, 88
8, 249480, Control_c, 2, 11, 92
8, 249600, Control_c, 2, 11, 96
8, 249720, Control_c, 2, 11, 100
8, 249840, Control_c, 2, 11, 104
8, 249960, Control_c, 2, 11, 107
8, 250080, Control_c, 2, 11, 111
8, 250200, Control_c, 2, 11, 115
8, 250320, Control_c, 2, 11, 119
8, 250440, Control_c, 2, 11, 123
8, 250529, Note_on_c, 2, 74, 0
8, 250529, Note_on_c, 2, 62, 0
8, 250560, Control_c, 2, 11, 127
8, 250560, Note_on_c, 2, 73, 76
8, 250560, Note_on_c, 2, 61, 76
8, 251279, Note_on_c, 2, 73, 0
8, 251279, Note_on_c, 2, 61, 0
8, 251280, Note_on_c, 2, 62, 76
8, 251280, Note_on_c, 2, 74, 76
8, 251519, Note_on_c, 2, 62, 0
8, 251519, Note_on_c, 2, 74, 0
8, 251760, Control_c, 2, 11, 80
8, 252000, Note_on_c, 2, 62, 76
8, 252000, Note_on_c, 2, 74, 76
8, 252120, Control_c, 2, 11, 84
8, 252240, Control_c, 2, 11, 88
8, 252360, Control_c, 2, 11, 92
8, 252480, Control_c, 2, 11, 96
8, 252600, Control_c, 2, 11, 100
8, 252720, Control_c, 2, 11, 104
8, 252840, Control_c, 2, 11, 107
8, 252960, Control_c, 2, 11, 111
8, 253080, Control_c, 2, 11, 115
8, 253200, Control_c, 2, 11, 119
8, 253320, Control_c, 2, 11, 123
8, 253409, Note_on_c, 2, 62, 0
8, 253409, Note_on_c, 2, 74, 0
8, 253440, Control_c, 2, 11, 127
8, 253440, Note_on_c, 2, 61, 84
8, 253440, Note_on_c, 2, 73, 84
8, 254129, Note_on_c, 2, 61, 0
8, 254129, Note_on_c, 2, 73, 0
8, 254160, Note_on_c, 2, 74, 76
8, 254160, Note_on_c, 2, 62, 76
8, 254399, Note_on_c, 2, 74, 0
8, 254399, Note_on_c, 2, 62, 0
8, 254880, Note_on_c, 2, 73, 84
8, 255569, Note_on_c, 2, 73, 0
8, 255600, Note_on_c, 2, 74, 76
8, 255839, Note_on_c, 2, 74, 0
8, 256320, Note_on_c, 2, 69, 84
8, 256320, Note_on_c, 2, 73, 84
8, 257279, Note_on_c, 2, 69, 0
8, 257279, Note_on_c, 2, 73, 0
8, 257280, Note_on_c, 2, 71, 84
8, 257280, Note_on_c, 2, 74, 84
8, 257519, Note_on_c, 2, 71, 0
8, 257519, Note_on_c, 2, 74, 0
8, 257520, Note_on_c, 2, 73, 84
8, 257520, Note_on_c, 2, 76, 84
8, 257729, Note_on_c, 2, 73, 0
8, 257729, Note_on_c, 2, 76, 0
8, 257760, Note_on_c, 2, 78, 84
8, 257760, Note_on_c, 2, 74, 84
8, 257999, Note_on_c, 2, 78, 0
8, 257999, Note_on_c, 2, 74, 0
8, 258240, Note_on_c, 2, 73, 84
8, 258240, Note_on_c, 2, 76, 84
8, 258419, Note_on_c, 2, 73, 0
8, 258419, Note_on_c, 2, 76, 0
8, 258480, Note_on_c, 2, 74, 84
8, 258659, Note_on_c, 2, 74, 0
8, 264960, Note_on_c, 2, 67, 52
8, 264960, Note_on_c, 2, 71, 52
8, 265139, Note_on_c, 2, 67, 0
8, 265139, Note_on_c, 2, 71, 0
8, 265200, Note_on_c, 2, 67, 76
8, 265200, Note_on_c, 2, 71, 76
8, 265320, Control_c, 2, 11, 80
8, 266369, Note_on_c, 2, 67, 0
8, 266369, Note_on_c, 2, 71, 0
8, 266400, Note_on_c, 2, 69, 76
8, 266400, Note_on_c, 2, 72, 76
8, 267809, Note_on_c, 2, 69, 0
8, 267809, Note_on_c, 2, 72, 0
8, 267840, Note_on_c, 2, 67, 76
8, 267840, Note_on_c, 2, 71, 76
8, 268079, Note_on_c, 2, 67, 0
8, 268079, Note_on_c, 2, 71, 0
8, 274320, Control_c, 2, 11, 127
8, 275040, Note_on_c, 2, 74, 76
8, 275040, Note_on_c, 2, 62, 76
8, 275759, Note_on_c, 2, 74, 0
8, 275759, Note_on_c, 2, 62, 0
8, 276480, Note_on_c, 2, 64, 76
8, 276480, Note_on_c, 2, 74, 76
8, 277199, Note_on_c, 2, 64, 0
8, 277199, Note_on_c, 2, 74, 0
8, 280080, Note_on_c, 2, 66, 84
8, 280080, Note_on_c, 2, 74, 84
8, 280259, Note_on_c, 2, 66, 0
8, 280259, Note_on_c, 2, 74, 0
8, 280320, Note_on_c, 2, 76, 84
8, 280320, Note_on_c, 2, 67, 84
8, 280499, Note_on_c, 2, 76, 0
8, 280499, Note_on_c, 2, 67, 0
8, 280560, Note_on_c, 2, 66, 84
8, 280560, Note_on_c, 2, 74, 84
8, 280739, Note_on_c, 2, 66, 0
8, 280739, Note_on_c, 2, 74, 0
8, 280800, Note_on_c, 2, 62, 76
8, 280800, Note_on_c, 2, 74, 76
8, 281519, Note_on_c, 2, 62, 0
8, 281519, Note_on_c, 2, 74, 0
8, 282240, Note_on_c, 2, 64, 76
8, 282240, Note_on_c, 2, 74, 76
8, 282959, Note_on_c, 2, 64, 0
8, 282959, Note_on_c, 2, 74, 0
8, 291600, Control_c, 2, 11, 80
8, 292320, Note_on_c, 2, 74, 76
8, 292320, Note_on_c, 2, 62, 76
8, 292440, Control_c, 2, 11, 84
8, 292560, Control_c, 2, 11, 88
8, 292680, Control_c, 2, 11, 92
8, 292800, Control_c, 2, 11, 96
8, 292920, Control_c, 2, 11, 100
8, 293040, Control_c, 2, 11, 104
8, 293160, Control_c, 2, 11, 107
8, 293280, Control_c, 2, 11, 111
8, 293400, Control_c, 2, 11, 115
8, 293520, Control_c, 2, 11, 119
8, 293640, Control_c, 2, 11, 123
8, 293729, Note_on_c, 2, 74, 0
8, 293729, Note_on_c, 2, 62, 0
8, 293760, Note_on_c, 2, 73, 76
8, 293760, Note_on_c, 2, 61, 76
8, 293760, Control_c, 2, 11, 127
8, 294479, Note_on_c, 2, 73, 0
8, 294479, Note_on_c, 2, 61, 0
8, 294480, Note_on_c, 2, 74, 76
8, 294480, Note_on_c, 2, 62, 76
8, 294719, Note_on_c, 2, 74, 0
8, 294719, Note_on_c, 2, 62, 0
8, 297360, Control_c, 2, 11, 80
8, 298080, Note_on_c, 2, 74, 76
8, 298080, Note_on_c, 2, 62, 76
8, 298200, Control_c, 2, 11, 84
8, 298320, Control_c, 2, 11, 88
8, 298440, Control_c, 2, 11, 92
8, 298560, Control_c, 2, 11, 96
8, 298680, Control_c, 2, 11, 100
8, 298800, Control_c, 2, 11, 104
8, 298920, Control_c, 2, 11, 107
8, 299040, Control_c, 2, 11, 111
8, 299160, Control_c, 2, 11, 115
8, 299280, Control_c, 2, 11, 119
8, 299400, Control_c, 2, 11, 123
8, 299489, Note_on_c, 2, 74, 0
8, 299489, Note_on_c, 2, 62, 0
8, 299520, Control_c, 2, 11, 127
8, 299520, Note_on_c, 2, 61, 76
8, 299520, Note_on_c, 2, 73, 76
8, 300239, Note_on_c, 2, 61, 0
8, 300239, Note_on_c, 2, 73, 0
8, 300240, Note_on_c, 2, 74, 76
8, 300240, Note_on_c, 2, 62, 76
8, 300479, Note_on_c, 2, 74, 0
8, 300479, Note_on_c, 2, 62, 0
8, 300720, Control_c, 2, 11, 80
8, 300960, Note_on_c, 2, 74, 76
8, 300960, Note_on_c, 2, 62, 76
8, 301080, Control_c, 2, 11, 84
8, 301200, Control_c, 2, 11, 88
8, 301320, Control_c, 2, 11, 92
8, 301440, Control_c, 2, 11, 96
8, 301560, Control_c, 2, 11, 100
8, 301680, Control_c, 2, 11, 104
8, 301800, Control_c, 2, 11, 107
8, 301920, Control_c, 2, 11, 111
8, 302040, Control_c, 2, 11, 115
8, 302160, Control_c, 2, 11, 119
8, 302280, Control_c, 2, 11, 123
8, 302369, Note_on_c, 2, 74, 0
8, 302369, Note_on_c, 2, 62, 0
8, 302400, Note_on_c, 2, 61, 84
8, 302400, Note_on_c, 2, 73, 84
8, 302400, Control_c, 2, 11, 127
8, 303089, Note_on_c, 2, 61, 0
8, 303089, Note_on_c, 2, 73, 0
8, 303120, Note_on_c, 2, 74, 76
8, 303120, Note_on_c, 2, 62, 76
8, 303359, Note_on_c, 2, 74, 0
8, 303359, Note_on_c, 2, 62, 0
8, 303840, Note_on_c, 2, 73, 84
8, 304529, Note_on_c, 2, 73, 0
8, 304560, Note_on_c, 2, 74, 76
8, 304799, Note_on_c, 2, 74, 0
8, 305280, Note_on_c, 2, 73, 84
8, 305280, Note_on_c, 2, 69, 84
8, 306239, Note_on_c, 2, 73, 0
8, 306239, Note_on_c, 2, 69, 0
8, 306240, Note_on_c, 2, 74, 84
8, 306240, Note_on_c, 2, 71, 84
8, 306479, Note_on_c, 2, 74, 0
8, 306479, Note_on_c, 2, 71, 0
8, 306480, Note_on_c, 2, 76, 84
8, 306480, Note_on_c, 2, 73, 84
8, 306689, Note_on_c, 2, 76, 0
8, 306689, Note_on_c, 2, 73, 0
8, 306720, Note_on_c, 2, 74, 84
8, 306720, Note_on_c, 2, 78, 84
8, 306959, Note_on_c, 2, 74, 0
8, 306959, Note_on_c, 2, 78, 0
8, 307200, Note_on_c, 2, 73, 84
8, 307200, Note_on_c, 2, 76, 84
8, 307379, Note_on_c, 2, 73, 0
8, 307379, Note_on_c, 2, 76, 0
8, 307440, Note_on_c, 2, 74, 84
8, 307619, Note_on_c, 2, 74, 0
8, 307619, End_track
9, 0, Start_track
9, 0, Title_t, "Bassoon"
9, 0, MIDI_port, 0
9, 0, Program_c, 3, 70
9, 0, Control_c, 3, 7, 96
9, 0, Control_c, 3, 10, 65
9, 0, Control_c, 3, 11, 127
9, 0, Note_on_c, 3, 50, 76
9, 179, Note_on_c, 3, 50, 0
9, 240, Note_on_c, 3, 52, 76
9, 419, Note_on_c, 3, 52, 0
9, 480, Note_on_c, 3, 54, 76
9, 659, Note_on_c, 3, 54, 0
9, 1440, Note_on_c, 3, 55, 76
9, 1619, Note_on_c, 3, 55, 0
9, 1680, Note_on_c, 3, 57, 76
9, 1859, Note_on_c, 3, 57, 0
9, 1920, Note_on_c, 3, 59, 76
9, 2099, Note_on_c, 3, 59, 0
9, 5040, Note_on_c, 3, 62, 84
9, 5040, Note_on_c, 3, 50, 84
9, 5219, Note_on_c, 3, 62, 0
9, 5219, Note_on_c, 3, 50, 0
9, 5280, Note_on_c, 3, 57, 84
9, 5280, Note_on_c, 3, 45, 84
9, 5459, Note_on_c, 3, 57, 0
9, 5459, Note_on_c, 3, 45, 0
9, 5520, Note_on_c, 3, 50, 84
9, 5520, Note_on_c, 3, 62, 84
9, 5699, Note_on_c, 3, 50, 0
9, 5699, Note_on_c, 3, 62, 0
9, 5760, Note_on_c, 3, 50, 76
9, 5939, Note_on_c, 3, 50, 0
9, 6000, Note_on_c, 3, 52, 76
9, 6179, Note_on_c, 3, 52, 0
9, 6240, Note_on_c, 3, 54, 76
9, 6419, Note_on_c, 3, 54, 0
9, 7200, Note_on_c, 3, 56, 76
9, 7379, Note_on_c, 3, 56, 0
9, 7440, Note_on_c, 3, 57, 76
9, 7619, Note_on_c, 3, 57, 0
9, 7680, Note_on_c, 3, 59, 76
9, 7859, Note_on_c, 3, 59, 0
9, 10080, Note_on_c, 3, 57, 52
9, 10259, Note_on_c, 3, 57, 0
9, 10320, Note_on_c, 3, 52, 52
9, 10499, Note_on_c, 3, 52, 0
9, 10560, Note_on_c, 3, 57, 52
9, 10739, Note_on_c, 3, 57, 0
9, 10800, Note_on_c, 3, 45, 84
9, 10800, Note_on_c, 3, 57, 84
9, 10979, Note_on_c, 3, 45, 0
9, 10979, Note_on_c, 3, 57, 0
9, 11040, Note_on_c, 3, 40, 84
9, 11040, Note_on_c, 3, 52, 84
9, 11219, Note_on_c, 3, 40, 0
9, 11219, Note_on_c, 3, 52, 0
9, 11280, Note_on_c, 3, 57, 84
9, 11280, Note_on_c, 3, 45, 84
9, 11459, Note_on_c, 3, 57, 0
9, 11459, Note_on_c, 3, 45, 0
9, 11520, Note_on_c, 3, 50, 76
9, 11699, Note_on_c, 3, 50, 0
9, 11760, Note_on_c, 3, 52, 76
9, 11939, Note_on_c, 3, 52, 0
9, 12000, Note_on_c, 3, 54, 76
9, 12179, Note_on_c, 3, 54, 0
9, 12960, Note_on_c, 3, 55, 76
9, 13139, Note_on_c, 3, 55, 0
9, 13200, Note_on_c, 3, 57, 76
9, 13379, Note_on_c, 3, 57, 0
9, 13440, Note_on_c, 3, 59, 76
9, 13619, Note_on_c, 3, 59, 0
9, 16560, Note_on_c, 3, 62, 84
9, 16560, Note_on_c, 3, 50, 84
9, 16739, Note_on_c, 3, 62, 0
9, 16739, Note_on_c, 3, 50, 0
9, 16800, Note_on_c, 3, 45, 84
9, 16800, Note_on_c, 3, 57, 84
9, 16979, Note_on_c, 3, 45, 0
9, 16979, Note_on_c, 3, 57, 0
9, 17040, Note_on_c, 3, 50, 84
9, 17040, Note_on_c, 3, 62, 84
9, 17219, Note_on_c, 3, 50, 0
9, 17219, Note_on_c, 3, 62, 0
9, 17280, Note_on_c, 3, 50, 76
9, 17459, Note_on_c, 3, 50, 0
9, 17520, Note_on_c, 3, 52, 76
9, 17699, Note_on_c, 3, 52, 0
9, 17760, Note_on_c, 3, 54, 76
9, 17939, Note_on_c, 3, 54, 0
9, 18720, Note_on_c, 3, 56, 76
9, 18899, Note_on_c, 3, 56, 0
9, 18960, Note_on_c, 3, 57, 76
9, 19139, Note_on_c, 3, 57, 0
9, 19200, Note_on_c, 3, 59, 76
9, 19379, Note_on_c, 3, 59, 0
9, 21600, Note_on_c, 3, 57, 52
9, 21779, Note_on_c, 3, 57, 0
9, 21840, Note_on_c, 3, 52, 52
9, 22019, Note_on_c, 3, 52, 0
9, 22080, Note_on_c, 3, 57, 52
9, 22259, Note_on_c, 3, 57, 0
9, 22320, Note_on_c, 3, 57, 84
9, 22320, Note_on_c, 3, 45, 84
9, 22499, Note_on_c, 3, 57, 0
9, 22499, Note_on_c, 3, 45, 0
9, 22560, Note_on_c, 3, 40, 84
9, 22560, Note_on_c, 3, 52, 84
9, 22739, Note_on_c, 3, 40, 0
9, 22739, Note_on_c, 3, 52, 0
9, 22800, Note_on_c, 3, 57, 84
9, 22800, Note_on_c, 3, 45, 84
9, 22979, Note_on_c, 3, 57, 0
9, 22979, Note_on_c, 3, 45, 0
9, 28560, Note_on_c, 3, 57, 52
9, 28799, Note_on_c, 3, 57, 0
9, 28800, Note_on_c, 3, 58, 52
9, 28979, Note_on_c, 3, 58, 0
9, 29040, Note_on_c, 3, 65, 76
9, 29160, Control_c, 3, 11, 80
9, 29969, Note_on_c, 3, 65, 0
9, 30000, Note_on_c, 3, 62, 76
9, 30119, Note_on_c, 3, 62, 0
9, 30120, Note_on_c, 3, 58, 76
9, 30209, Note_on_c, 3, 58, 0
9, 30240, Note_on_c, 3, 57, 76
9, 30479, Note_on_c, 3, 57, 0
9, 30960, Control_c, 3, 11, 127
9, 31200, Note_on_c, 3, 53, 52
9, 31409, Note_on_c, 3, 53, 0
9, 31440, Note_on_c, 3, 53, 52
9, 31649, Note_on_c, 3, 53, 0
9, 31680, Note_on_c, 3, 58, 52
9, 31919, Note_on_c, 3, 58, 0
9, 32400, Note_on_c, 3, 57, 52
9, 32639, Note_on_c, 3, 57, 0
9, 33120, Note_on_c, 3, 56, 52
9, 33359, Note_on_c, 3, 56, 0
9, 33840, Note_on_c, 3, 56, 52
9, 34079, Note_on_c, 3, 56, 0
9, 34560, Note_on_c, 3, 57, 52
9, 34799, Note_on_c, 3, 57, 0
9, 38880, Note_on_c, 3, 50, 76
9, 39059, Note_on_c, 3, 50, 0
9, 39120, Note_on_c, 3, 52, 76
9, 39299, Note_on_c, 3, 52, 0
9, 39360, Note_on_c, 3, 54, 76
9, 39539, Note_on_c, 3, 54, 0
9, 40320, Note_on_c, 3, 55, 76
9, 40499, Note_on_c, 3, 55, 0
9, 40560, Note_on_c, 3, 57, 76
9, 40739, Note_on_c, 3, 57, 0
9, 40800, Note_on_c, 3, 59, 76
9, 40979, Note_on_c, 3, 59, 0
9, 43920, Note_on_c, 3, 62, 84
9, 43920, Note_on_c, 3, 50, 84
9, 44099, Note_on_c, 3, 62, 0
9, 44099, Note_on_c, 3, 50, 0
9, 44160, Note_on_c, 3, 57, 84
9, 44160, Note_on_c, 3, 45, 84
9, 44339, Note_on_c, 3, 57, 0
9, 44339, Note_on_c, 3, 45, 0
9, 44400, Note_on_c, 3, 62, 84
9, 44400, Note_on_c, 3, 50, 84
9, 44579, Note_on_c, 3, 62, 0
9, 44579, Note_on_c, 3, 50, 0
9, 44640, Note_on_c, 3, 50, 76
9, 44819, Note_on_c, 3, 50, 0
9, 44880, Note_on_c, 3, 52, 76
9, 45059, Note_on_c, 3, 52, 0
9, 45120, Note_on_c, 3, 54, 76
9, 45299, Note_on_c, 3, 54, 0
9, 46080, Note_on_c, 3, 55, 76
9, 46259, Note_on_c, 3, 55, 0
9, 46320, Note_on_c, 3, 57, 76
9, 46499, Note_on_c, 3, 57, 0
9, 46560, Note_on_c, 3, 59, 76
9, 46739, Note_on_c, 3, 59, 0
9, 53280, Note_on_c, 3, 60, 44
9, 53969, Note_on_c, 3, 60, 0
9, 54000, Note_on_c, 3, 65, 44
9, 54179, Note_on_c, 3, 65, 0
9, 54240, Note_on_c, 3, 64, 44
9, 54419, Note_on_c, 3, 64, 0
9, 54480, Note_on_c, 3, 65, 44
9, 54659, Note_on_c, 3, 65, 0
9, 54720, Note_on_c, 3, 57, 44
9, 55409, Note_on_c, 3, 57, 0
9, 55440, Note_on_c, 3, 62, 44
9, 55619, Note_on_c, 3, 62, 0
9, 55680, Note_on_c, 3, 61, 44
9, 55859, Note_on_c, 3, 61, 0
9, 55920, Note_on_c, 3, 62, 44
9, 56099, Note_on_c, 3, 62, 0
9, 56130, Control_c, 3, 11, 80
9, 56160, Note_on_c, 3, 50, 76
9, 56160, Note_on_c, 3, 46, 76
9, 56280, Control_c, 3, 11, 84
9, 56399, Note_on_c, 3, 50, 0
9, 56400, Note_on_c, 3, 52, 76
9, 56400, Control_c, 3, 11, 88
9, 56520, Control_c, 3, 11, 92
9, 56639, Note_on_c, 3, 52, 0
9, 56640, Note_on_c, 3, 53, 76
9, 56640, Control_c, 3, 11, 96
9, 56760, Control_c, 3, 11, 100
9, 56879, Note_on_c, 3, 53, 0
9, 56880, Note_on_c, 3, 54, 76
9, 56880, Control_c, 3, 11, 104
9, 57000, Control_c, 3, 11, 107
9, 57119, Note_on_c, 3, 54, 0
9, 57120, Note_on_c, 3, 55, 76
9, 57120, Control_c, 3, 11, 111
9, 57240, Control_c, 3, 11, 115
9, 57359, Note_on_c, 3, 55, 0
9, 57360, Control_c, 3, 11, 119
9, 57360, Note_on_c, 3, 56, 76
9, 57480, Control_c, 3, 11, 127
9, 57569, Note_on_c, 3, 46, 0
9, 57569, Note_on_c, 3, 56, 0
9, 57600, Note_on_c, 3, 45, 76
9, 57600, Note_on_c, 3, 57, 76
9, 57809, Note_on_c, 3, 45, 0
9, 57809, Note_on_c, 3, 57, 0
9, 57840, Note_on_c, 3, 57, 76
9, 58049, Note_on_c, 3, 57, 0
9, 58080, Note_on_c, 3, 57, 76
9, 58289, Note_on_c, 3, 57, 0
9, 58320, Note_on_c, 3, 50, 76
9, 58559, Note_on_c, 3, 50, 0
9, 59040, Note_on_c, 3, 60, 44
9, 59729, Note_on_c, 3, 60, 0
9, 59760, Note_on_c, 3, 65, 44
9, 59939, Note_on_c, 3, 65, 0
9, 60000, Note_on_c, 3, 64, 44
9, 60179, Note_on_c, 3, 64, 0
9, 60240, Note_on_c, 3, 65, 44
9, 60419, Note_on_c, 3, 65, 0
9, 60480, Note_on_c, 3, 57, 44
9, 61169, Note_on_c, 3, 57, 0
9, 61200, Note_on_c, 3, 62, 44
9, 61379, Note_on_c, 3, 62, 0
9, 61440, Note_on_c, 3, 61, 44
9, 61619, Note_on_c, 3, 61, 0
9, 61680, Note_on_c, 3, 62, 44
9, 61859, Note_on_c, 3, 62, 0
9, 61890, Control_c, 3, 11, 80
9, 61920, Note_on_c, 3, 50, 76
9, 61920, Note_on_c, 3, 46, 76
9, 62040, Control_c, 3, 11, 84
9, 62159, Note_on_c, 3, 50, 0
9, 62160, Control_c, 3, 11, 88
9, 62160, Note_on_c, 3, 52, 76
9, 62280, Control_c, 3, 11, 92
9, 62399, Note_on_c, 3, 52, 0
9, 62400, Control_c, 3, 11, 96
9, 62400, Note_on_c, 3, 53, 76
9, 62520, Control_c, 3, 11, 100
9, 62639, Note_on_c, 3, 53, 0
9, 62640, Control_c, 3, 11, 104
9, 62640, Note_on_c, 3, 54, 76
9, 62760, Control_c, 3, 11, 107
9, 62879, Note_on_c, 3, 54, 0
9, 62880, Control_c, 3, 11, 111
9, 62880, Note_on_c, 3, 55, 76
9, 63000, Control_c, 3, 11, 115
9, 63119, Note_on_c, 3, 55, 0
9, 63120, Note_on_c, 3, 56, 76
9, 63120, Control_c, 3, 11, 119
9, 63240, Control_c, 3, 11, 127
9, 63329, Note_on_c, 3, 46, 0
9, 63329, Note_on_c, 3, 56, 0
9, 63360, Note_on_c, 3, 57, 76
9, 63360, Note_on_c, 3, 45, 76
9, 63569, Note_on_c, 3, 57, 0
9, 63569, Note_on_c, 3, 45, 0
9, 63600, Note_on_c, 3, 57, 76
9, 63809, Note_on_c, 3, 57, 0
9, 63840, Note_on_c, 3, 57, 76
9, 64049, Note_on_c, 3, 57, 0
9, 64080, Note_on_c, 3, 62, 76
9, 64319, Note_on_c, 3, 62, 0
9, 64560, Control_c, 3, 11, 80
9, 64800, Note_on_c, 3, 46, 76
9, 64800, Control_c, 3, 11, 80
9, 64800, Note_on_c, 3, 50, 76
9, 64920, Control_c, 3, 11, 84
9, 65039, Note_on_c, 3, 50, 0
9, 65040, Note_on_c, 3, 52, 76
9, 65040, Control_c, 3, 11, 88
9, 65160, Control_c, 3, 11, 92
9, 65279, Note_on_c, 3, 52, 0
9, 65280, Note_on_c, 3, 53, 76
9, 65280, Control_c, 3, 11, 96
9, 65400, Control_c, 3, 11, 100
9, 65519, Note_on_c, 3, 53, 0
9, 65520, Note_on_c, 3, 54, 64
9, 65520, Control_c, 3, 11, 104
9, 65640, Control_c, 3, 11, 107
9, 65759, Note_on_c, 3, 54, 0
9, 65760, Control_c, 3, 11, 111
9, 65760, Note_on_c, 3, 55, 64
9, 65880, Control_c, 3, 11, 115
9, 65999, Note_on_c, 3, 55, 0
9, 66000, Note_on_c, 3, 56, 64
9, 66000, Control_c, 3, 11, 119
9, 66120, Control_c, 3, 11, 127
9, 66209, Note_on_c, 3, 46, 0
9, 66209, Note_on_c, 3, 56, 0
9, 66240, Note_on_c, 3, 57, 84
9, 66240, Note_on_c, 3, 45, 84
9, 66449, Note_on_c, 3, 57, 0
9, 66449, Note_on_c, 3, 45, 0
9, 66480, Note_on_c, 3, 57, 76
9, 66689, Note_on_c, 3, 57, 0
9, 66720, Note_on_c, 3, 57, 76
9, 66929, Note_on_c, 3, 57, 0
9, 66960, Note_on_c, 3, 62, 76
9, 67199, Note_on_c, 3, 62, 0
9, 67680, Note_on_c, 3, 61, 76
9, 67680, Note_on_c, 3, 45, 84
9, 67889, Note_on_c, 3, 45, 0
9, 67920, Note_on_c, 3, 57, 76
9, 68129, Note_on_c, 3, 57, 0
9, 68160, Note_on_c, 3, 57, 76
9, 68369, Note_on_c, 3, 61, 0
9, 68369, Note_on_c, 3, 57, 0
9, 68400, Note_on_c, 3, 62, 76
9, 68400, Note_on_c, 3, 50, 76
9, 68639, Note_on_c, 3, 62, 0
9, 68639, Note_on_c, 3, 50, 0
9, 69120, Note_on_c, 3, 61, 84
9, 69120, Note_on_c, 3, 57, 84
9, 70079, Note_on_c, 3, 61, 0
9, 70079, Note_on_c, 3, 57, 0
9, 70080, Note_on_c, 3, 59, 84
9, 70080, Note_on_c, 3, 62, 84
9, 70319, Note_on_c, 3, 59, 0
9, 70319, Note_on_c, 3, 62, 0
9, 70320, Note_on_c, 3, 64, 84
9, 70320, Note_on_c, 3, 61, 84
9, 70529, Note_on_c, 3, 64, 0
9, 70529, Note_on_c, 3, 61, 0
9, 70560, Note_on_c, 3, 66, 84
9, 70560, Note_on_c, 3, 62, 84
9, 70799, Note_on_c, 3, 66, 0
9, 70799, Note_on_c, 3, 62, 0
9, 71040, Note_on_c, 3, 57, 84
9, 71219, Note_on_c, 3, 57, 0
9, 71280, Note_on_c, 3, 62, 84
9, 71280, Note_on_c, 3, 50, 84
9, 71459, Note_on_c, 3, 62, 0
9, 71459, Note_on_c, 3, 50, 0
9, 77520, Note_on_c, 3, 57, 52
9, 77759, Note_on_c, 3, 57, 0
9, 77760, Note_on_c, 3, 58, 52
9, 77939, Note_on_c, 3, 58, 0
9, 78000, Note_on_c, 3, 65, 76
9, 78120, Control_c, 3, 11, 80
9, 78929, Note_on_c, 3, 65, 0
9, 78960, Note_on_c, 3, 62, 76
9, 79079, Note_on_c, 3, 62, 0
9, 79080, Note_on_c, 3, 58, 76
9, 79169, Note_on_c, 3, 58, 0
9, 79200, Note_on_c, 3, 57, 76
9, 79439, Note_on_c, 3, 57, 0
9, 79920, Control_c, 3, 11, 127
9, 80160, Note_on_c, 3, 53, 52
9, 80369, Note_on_c, 3, 53, 0
9, 80400, Note_on_c, 3, 53, 52
9, 80609, Note_on_c, 3, 53, 0
9, 80640, Note_on_c, 3, 58, 52
9, 80879, Note_on_c, 3, 58, 0
9, 81360, Note_on_c, 3, 57, 52
9, 81599, Note_on_c, 3, 57, 0
9, 82080, Note_on_c, 3, 56, 52
9, 82319, Note_on_c, 3, 56, 0
9, 82800, Note_on_c, 3, 56, 52
9, 83039, Note_on_c, 3, 56, 0
9, 83520, Note_on_c, 3, 57, 52
9, 83759, Note_on_c, 3, 57, 0
9, 87840, Note_on_c, 3, 50, 76
9, 88019, Note_on_c, 3, 50, 0
9, 88080, Note_on_c, 3, 52, 76
9, 88259, Note_on_c, 3, 52, 0
9, 88320, Note_on_c, 3, 54, 76
9, 88499, Note_on_c, 3, 54, 0
9, 89280, Note_on_c, 3, 55, 76
9, 89459, Note_on_c, 3, 55, 0
9, 89520, Note_on_c, 3, 57, 76
9, 89699, Note_on_c, 3, 57, 0
9, 89760, Note_on_c, 3, 59, 76
9, 89939, Note_on_c, 3, 59, 0
9, 92880, Note_on_c, 3, 62, 84
9, 92880, Note_on_c, 3, 50, 84
9, 93059, Note_on_c, 3, 62, 0
9, 93059, Note_on_c, 3, 50, 0
9, 93120, Note_on_c, 3, 45, 84
9, 93120, Note_on_c, 3, 57, 84
9, 93299, Note_on_c, 3, 45, 0
9, 93299, Note_on_c, 3, 57, 0
9, 93360, Note_on_c, 3, 62, 84
9, 93360, Note_on_c, 3, 50, 84
9, 93539, Note_on_c, 3, 62, 0
9, 93539, Note_on_c, 3, 50, 0
9, 93600, Note_on_c, 3, 50, 76
9, 93779, Note_on_c, 3, 50, 0
9, 93840, Note_on_c, 3, 52, 76
9, 94019, Note_on_c, 3, 52, 0
9, 94080, Note_on_c, 3, 54, 76
9, 94259, Note_on_c, 3, 54, 0
9, 95040, Note_on_c, 3, 55, 76
9, 95219, Note_on_c, 3, 55, 0
9, 95280, Note_on_c, 3, 57, 76
9, 95459, Note_on_c, 3, 57, 0
9, 95520, Note_on_c, 3, 59, 76
9, 95699, Note_on_c, 3, 59, 0
9, 102240, Note_on_c, 3, 60, 44
9, 102929, Note_on_c, 3, 60, 0
9, 102960, Note_on_c, 3, 65, 44
9, 103139, Note_on_c, 3, 65, 0
9, 103200, Note_on_c, 3, 64, 44
9, 103379, Note_on_c, 3, 64, 0
9, 103440, Note_on_c, 3, 65, 44
9, 103619, Note_on_c, 3, 65, 0
9, 103680, Note_on_c, 3, 57, 44
9, 104369, Note_on_c, 3, 57, 0
9, 104400, Note_on_c, 3, 62, 44
9, 104579, Note_on_c, 3, 62, 0
9, 104640, Note_on_c, 3, 61, 44
9, 104819, Note_on_c, 3, 61, 0
9, 104880, Note_on_c, 3, 62, 44
9, 105059, Note_on_c, 3, 62, 0
9, 105090, Control_c, 3, 11, 80
9, 105120, Note_on_c, 3, 50, 76
9, 105120, Note_on_c, 3, 46, 76
9, 105240, Control_c, 3, 11, 84
9, 105359, Note_on_c, 3, 50, 0
9, 105360, Note_on_c, 3, 52, 76
9, 105360, Control_c, 3, 11, 88
9, 105480, Control_c, 3, 11, 92
9, 105599, Note_on_c, 3, 52, 0
9, 105600, Note_on_c, 3, 53, 76
9, 105600, Control_c, 3, 11, 96
9, 105720, Control_c, 3, 11, 100
9, 105839, Note_on_c, 3, 53, 0
9, 105840, Control_c, 3, 11, 104
9, 105840, Note_on_c, 3, 54, 76
9, 105960, Control_c, 3, 11, 107
9, 106079, Note_on_c, 3, 54, 0
9, 106080, Control_c, 3, 11, 111
9, 106080, Note_on_c, 3, 55, 76
9, 106200, Control_c, 3, 11, 115
9, 106319, Note_on_c, 3, 55, 0
9, 106320, Note_on_c, 3, 56, 76
9, 106320, Control_c, 3, 11, 119
9, 106440, Control_c, 3, 11, 127
9, 106529, Note_on_c, 3, 46, 0
9, 106529, Note_on_c, 3, 56, 0
9, 106560, Note_on_c, 3, 57, 76
9, 106560, Note_on_c, 3, 45, 76
9, 106769, Note_on_c, 3, 57, 0
9, 106769, Note_on_c, 3, 45, 0
9, 106800, Note_on_c, 3, 57, 76
9, 107009, Note_on_c, 3, 57, 0
9, 107040, Note_on_c, 3, 57, 76
9, 107249, Note_on_c, 3, 57, 0
9, 107280, Note_on_c, 3, 50, 76
9, 107519, Note_on_c, 3, 50, 0
9, 108000, Note_on_c, 3, 60, 44
9, 108689, Note_on_c, 3, 60, 0
9, 108720, Note_on_c, 3, 65, 44
9, 108899, Note_on_c, 3, 65, 0
9, 108960, Note_on_c, 3, 64, 44
9, 109139, Note_on_c, 3, 64, 0
9, 109200, Note_on_c, 3, 65, 44
9, 109379, Note_on_c, 3, 65, 0
9, 109440, Note_on_c, 3, 57, 44
9, 110129, Note_on_c, 3, 57, 0
9, 110160, Note_on_c, 3, 62, 44
9, 110339, Note_on_c, 3, 62, 0
9, 110400, Note_on_c, 3, 61, 44
9, 110579, Note_on_c, 3, 61, 0
9, 110640, Note_on_c, 3, 62, 44
9, 110819, Note_on_c, 3, 62, 0
9, 110850, Control_c, 3, 11, 80
9, 110880, Note_on_c, 3, 46, 76
9, 110880, Note_on_c, 3, 50, 76
9, 111000, Control_c, 3, 11, 84
9, 111119, Note_on_c, 3, 50, 0
9, 111120, Control_c, 3, 11, 88
9, 111120, Note_on_c, 3, 52, 76
9, 111240, Control_c, 3, 11, 92
9, 111359, Note_on_c, 3, 52, 0
9, 111360, Control_c, 3, 11, 96
9, 111360, Note_on_c, 3, 53, 76
9, 111480, Control_c, 3, 11, 100
9, 111599, Note_on_c, 3, 53, 0
9, 111600, Control_c, 3, 11, 104
9, 111600, Note_on_c, 3, 54, 76
9, 111720, Control_c, 3, 11, 107
9, 111839, Note_on_c, 3, 54, 0
9, 111840, Control_c, 3, 11, 111
9, 111840, Note_on_c, 3, 55, 76
9, 111960, Control_c, 3, 11, 115
9, 112079, Note_on_c, 3, 55, 0
9, 112080, Note_on_c, 3, 56, 76
9, 112080, Control_c, 3, 11, 119
9, 112200, Control_c, 3, 11, 127
9, 112289, Note_on_c, 3, 46, 0
9, 112289, Note_on_c, 3, 56, 0
9, 112320, Note_on_c, 3, 57, 76
9, 112320, Note_on_c, 3, 45, 76
9, 112529, Note_on_c, 3, 57, 0
9, 112529, Note_on_c, 3, 45, 0
9, 112560, Note_on_c, 3, 57, 76
9, 112769, Note_on_c, 3, 57, 0
9, 112800, Note_on_c, 3, 57, 76
9, 113009, Note_on_c, 3, 57, 0
9, 113040, Note_on_c, 3, 62, 76
9, 113279, Note_on_c, 3, 62, 0
9, 113520, Control_c, 3, 11, 80
9, 113760, Control_c, 3, 11, 80
9, 113760, Note_on_c, 3, 46, 76
9, 113760, Note_on_c, 3, 50, 76
9, 113880, Control_c, 3, 11, 84
9, 113999, Note_on_c, 3, 50, 0
9, 114000, Control_c, 3, 11, 88
9, 114000, Note_on_c, 3, 52, 76
9, 114120, Control_c, 3, 11, 92
9, 114239, Note_on_c, 3, 52, 0
9, 114240, Control_c, 3, 11, 96
9, 114240, Note_on_c, 3, 53, 76
9, 114360, Control_c, 3, 11, 100
9, 114479, Note_on_c, 3, 53, 0
9, 114480, Note_on_c, 3, 54, 64
9, 114480, Control_c, 3, 11, 104
9, 114600, Control_c, 3, 11, 107
9, 114719, Note_on_c, 3, 54, 0
9, 114720, Control_c, 3, 11, 111
9, 114720, Note_on_c, 3, 55, 64
9, 114840, Control_c, 3, 11, 115
9, 114959, Note_on_c, 3, 55, 0
9, 114960, Note_on_c, 3, 56, 64
9, 114960, Control_c, 3, 11, 119
9, 115080, Control_c, 3, 11, 127
9, 115169, Note_on_c, 3, 46, 0
9, 115169, Note_on_c, 3, 56, 0
9, 115200, Note_on_c, 3, 57, 84
9, 115200, Note_on_c, 3, 45, 84
9, 115409, Note_on_c, 3, 57, 0
9, 115409, Note_on_c, 3, 45, 0
9, 115440, Note_on_c, 3, 57, 76
9, 115649, Note_on_c, 3, 57, 0
9, 115680, Note_on_c, 3, 57, 76
9, 115889, Note_on_c, 3, 57, 0
9, 115920, Note_on_c, 3, 62, 76
9, 116159, Note_on_c, 3, 62, 0
9, 116640, Note_on_c, 3, 45, 84
9, 116640, Note_on_c, 3, 61, 76
9, 116849, Note_on_c, 3, 45, 0
9, 116880, Note_on_c, 3, 57, 76
9, 117089, Note_on_c, 3, 57, 0
9, 117120, Note_on_c, 3, 57, 76
9, 117329, Note_on_c, 3, 61, 0
9, 117329, Note_on_c, 3, 57, 0
9, 117360, Note_on_c, 3, 50, 76
9, 117360, Note_on_c, 3, 62, 76
9, 117599, Note_on_c, 3, 50, 0
9, 117599, Note_on_c, 3, 62, 0
9, 118080, Note_on_c, 3, 61, 84
9, 118080, Note_on_c, 3, 57, 84
9, 119039, Note_on_c, 3, 61, 0
9, 119039, Note_on_c, 3, 57, 0
9, 119040, Note_on_c, 3, 62, 84
9, 119040, Note_on_c, 3, 59, 84
9, 119279, Note_on_c, 3, 62, 0
9, 119279, Note_on_c, 3, 59, 0
9, 119280, Note_on_c, 3, 61, 84
9, 119280, Note_on_c, 3, 64, 84
9, 119489, Note_on_c, 3, 61, 0
9, 119489, Note_on_c, 3, 64, 0
9, 119520, Note_on_c, 3, 66, 84
9, 119520, Note_on_c, 3, 62, 84
9, 119759, Note_on_c, 3, 66, 0
9, 119759, Note_on_c, 3, 62, 0
9, 120000, Note_on_c, 3, 57, 84
9, 120179, Note_on_c, 3, 57, 0
9, 120240, Note_on_c, 3, 62, 84
9, 120240, Note_on_c, 3, 50, 84
9, 120419, Note_on_c, 3, 62, 0
9, 120419, Note_on_c, 3, 50, 0
9, 120960, Note_on_c, 3, 62, 52
9, 121680, Note_on_c, 3, 59, 52
9, 122399, Note_on_c, 3, 62, 0
9, 122399, Note_on_c, 3, 59, 0
9, 122400, Note_on_c, 3, 62, 52
9, 122400, Note_on_c, 3, 54, 52
9, 122639, Note_on_c, 3, 62, 0
9, 122639, Note_on_c, 3, 54, 0
9, 122640, Note_on_c, 3, 61, 52
9, 122640, Note_on_c, 3, 52, 52
9, 122849, Note_on_c, 3, 61, 0
9, 122849, Note_on_c, 3, 52, 0
9, 122880, Note_on_c, 3, 50, 52
9, 122880, Note_on_c, 3, 62, 52
9, 123059, Note_on_c, 3, 50, 0
9, 123059, Note_on_c, 3, 62, 0
9, 123120, Note_on_c, 3, 57, 52
9, 123120, Note_on_c, 3, 61, 52
9, 123359, Note_on_c, 3, 57, 0
9, 123359, Note_on_c, 3, 61, 0
9, 123570, Control_c, 3, 11, 80
9, 123600, Note_on_c, 3, 54, 76
9, 123600, Note_on_c, 3, 63, 76
9, 123809, Note_on_c, 3, 54, 0
9, 123809, Note_on_c, 3, 63, 0
9, 123840, Note_on_c, 3, 64, 76
9, 123840, Note_on_c, 3, 52, 76
9, 123960, Control_c, 3, 11, 88
9, 124080, Control_c, 3, 11, 96
9, 124200, Control_c, 3, 11, 104
9, 124320, Control_c, 3, 11, 111
9, 124440, Control_c, 3, 11, 119
9, 124559, Note_on_c, 3, 64, 0
9, 124559, Note_on_c, 3, 52, 0
9, 124560, Note_on_c, 3, 61, 84
9, 124560, Control_c, 3, 11, 127
9, 124560, Note_on_c, 3, 45, 84
9, 124680, Control_c, 3, 11, 119
9, 124800, Control_c, 3, 11, 111
9, 124920, Control_c, 3, 11, 104
9, 125040, Control_c, 3, 11, 96
9, 125160, Control_c, 3, 11, 88
9, 125249, Note_on_c, 3, 61, 0
9, 125249, Note_on_c, 3, 45, 0
9, 125250, Control_c, 3, 11, 80
9, 125280, Note_on_c, 3, 50, 52
9, 125280, Note_on_c, 3, 62, 52
9, 125519, Note_on_c, 3, 50, 0
9, 125519, Note_on_c, 3, 62, 0
9, 125520, Note_on_c, 3, 43, 52
9, 125520, Note_on_c, 3, 59, 52
9, 125729, Note_on_c, 3, 43, 0
9, 125729, Note_on_c, 3, 59, 0
9, 125760, Note_on_c, 3, 45, 52
9, 125760, Note_on_c, 3, 55, 52
9, 125939, Note_on_c, 3, 45, 0
9, 125939, Note_on_c, 3, 55, 0
9, 126000, Note_on_c, 3, 54, 52
9, 126000, Note_on_c, 3, 50, 52
9, 126239, Note_on_c, 3, 54, 0
9, 126239, Note_on_c, 3, 50, 0
9, 126360, Control_c, 3, 11, 127
9, 126720, Note_on_c, 3, 62, 52
9, 127440, Note_on_c, 3, 59, 52
9, 128159, Note_on_c, 3, 62, 0
9, 128159, Note_on_c, 3, 59, 0
9, 128160, Note_on_c, 3, 54, 52
9, 128160, Note_on_c, 3, 62, 52
9, 128399, Note_on_c, 3, 54, 0
9, 128399, Note_on_c, 3, 62, 0
9, 128400, Note_on_c, 3, 52, 52
9, 128400, Note_on_c, 3, 61, 52
9, 128609, Note_on_c, 3, 52, 0
9, 128609, Note_on_c, 3, 61, 0
9, 128640, Note_on_c, 3, 62, 52
9, 128640, Note_on_c, 3, 50, 52
9, 128819, Note_on_c, 3, 62, 0
9, 128819, Note_on_c, 3, 50, 0
9, 128880, Note_on_c, 3, 61, 52
9, 128880, Note_on_c, 3, 57, 52
9, 129119, Note_on_c, 3, 61, 0
9, 129119, Note_on_c, 3, 57, 0
9, 129330, Control_c, 3, 11, 80
9, 129360, Note_on_c, 3, 54, 76
9, 129360, Note_on_c, 3, 63, 76
9, 129569, Note_on_c, 3, 54, 0
9, 129569, Note_on_c, 3, 63, 0
9, 129600, Note_on_c, 3, 52, 76
9, 129600, Note_on_c, 3, 64, 76
9, 129720, Control_c, 3, 11, 88
9, 129840, Control_c, 3, 11, 96
9, 129960, Control_c, 3, 11, 104
9, 130080, Control_c, 3, 11, 111
9, 130200, Control_c, 3, 11, 119
9, 130319, Note_on_c, 3, 52, 0
9, 130319, Note_on_c, 3, 64, 0
9, 130320, Note_on_c, 3, 45, 84
9, 130320, Note_on_c, 3, 61, 84
9, 130320, Control_c, 3, 11, 127
9, 130440, Control_c, 3, 11, 119
9, 130560, Control_c, 3, 11, 111
9, 130680, Control_c, 3, 11, 104
9, 130800, Control_c, 3, 11, 96
9, 130920, Control_c, 3, 11, 88
9, 131009, Note_on_c, 3, 45, 0
9, 131009, Note_on_c, 3, 61, 0
9, 131010, Control_c, 3, 11, 80
9, 131040, Note_on_c, 3, 50, 52
9, 131040, Note_on_c, 3, 62, 52
9, 131279, Note_on_c, 3, 50, 0
9, 131279, Note_on_c, 3, 62, 0
9, 131280, Note_on_c, 3, 43, 52
9, 131280, Note_on_c, 3, 59, 52
9, 131489, Note_on_c, 3, 43, 0
9, 131489, Note_on_c, 3, 59, 0
9, 131520, Note_on_c, 3, 55, 52
9, 131520, Note_on_c, 3, 45, 52
9, 131699, Note_on_c, 3, 55, 0
9, 131699, Note_on_c, 3, 45, 0
9, 131760, Note_on_c, 3, 54, 52
9, 131760, Note_on_c, 3, 50, 52
9, 131999, Note_on_c, 3, 54, 0
9, 131999, Note_on_c, 3, 50, 0
9, 132120, Control_c, 3, 11, 127
9, 142560, Note_on_c, 3, 57, 84
9, 142560, Note_on_c, 3, 45, 84
9, 143969, Note_on_c, 3, 57, 0
9, 143969, Note_on_c, 3, 45, 0
9, 144000, Note_on_c, 3, 50, 52
9, 144179, Note_on_c, 3, 50, 0
9, 144240, Note_on_c, 3, 62, 52
9, 144419, Note_on_c, 3, 62, 0
9, 144480, Note_on_c, 3, 61, 52
9, 144659, Note_on_c, 3, 61, 0
9, 144720, Note_on_c, 3, 59, 52
9, 144899, Note_on_c, 3, 59, 0
9, 144960, Note_on_c, 3, 57, 52
9, 145139, Note_on_c, 3, 57, 0
9, 145200, Note_on_c, 3, 55, 52
9, 145379, Note_on_c, 3, 55, 0
9, 145440, Note_on_c, 3, 54, 52
9, 145619, Note_on_c, 3, 54, 0
9, 145680, Note_on_c, 3, 52, 52
9, 145859, Note_on_c, 3, 52, 0
9, 145920, Note_on_c, 3, 50, 52
9, 146099, Note_on_c, 3, 50, 0
9, 146160, Note_on_c, 3, 57, 52
9, 146339, Note_on_c, 3, 57, 0
9, 146520, Control_c, 3, 11, 80
9, 146640, Note_on_c, 3, 54, 76
9, 146819, Note_on_c, 3, 54, 0
9, 146880, Note_on_c, 3, 52, 76
9, 146940, Control_c, 3, 11, 84
9, 147000, Control_c, 3, 11, 88
9, 147059, Note_on_c, 3, 52, 0
9, 147060, Control_c, 3, 11, 92
9, 147120, Control_c, 3, 11, 96
9, 147120, Note_on_c, 3, 64, 76
9, 147180, Control_c, 3, 11, 100
9, 147240, Control_c, 3, 11, 104
9, 147299, Note_on_c, 3, 64, 0
9, 147300, Control_c, 3, 11, 107
9, 147360, Note_on_c, 3, 62, 76
9, 147360, Control_c, 3, 11, 111
9, 147420, Control_c, 3, 11, 115
9, 147480, Control_c, 3, 11, 119
9, 147539, Note_on_c, 3, 62, 0
9, 147540, Control_c, 3, 11, 123
9, 147600, Note_on_c, 3, 61, 84
9, 147600, Control_c, 3, 11, 127
9, 147660, Control_c, 3, 11, 123
9, 147720, Control_c, 3, 11, 119
9, 147779, Note_on_c, 3, 61, 0
9, 147780, Control_c, 3, 11, 115
9, 147840, Note_on_c, 3, 59, 76
9, 147840, Control_c, 3, 11, 111
9, 147900, Control_c, 3, 11, 107
9, 147960, Control_c, 3, 11, 104
9, 148019, Note_on_c, 3, 59, 0
9, 148020, Control_c, 3, 11, 100
9, 148080, Control_c, 3, 11, 96
9, 148080, Note_on_c, 3, 57, 76
9, 148140, Control_c, 3, 11, 92
9, 148200, Control_c, 3, 11, 88
9, 148259, Note_on_c, 3, 57, 0
9, 148260, Control_c, 3, 11, 84
9, 148320, Note_on_c, 3, 62, 76
9, 148320, Control_c, 3, 11, 80
9, 148559, Note_on_c, 3, 62, 0
9, 148560, Note_on_c, 3, 55, 76
9, 148769, Note_on_c, 3, 55, 0
9, 148800, Note_on_c, 3, 57, 76
9, 148979, Note_on_c, 3, 57, 0
9, 149040, Note_on_c, 3, 50, 76
9, 149279, Note_on_c, 3, 50, 0
9, 152400, Note_on_c, 3, 57, 76
9, 152639, Note_on_c, 3, 57, 0
9, 152640, Note_on_c, 3, 59, 76
9, 152640, Control_c, 3, 11, 80
9, 152700, Control_c, 3, 11, 84
9, 152760, Control_c, 3, 11, 88
9, 152820, Control_c, 3, 11, 92
9, 152880, Control_c, 3, 11, 96
9, 152940, Control_c, 3, 11, 100
9, 153000, Control_c, 3, 11, 104
9, 153060, Control_c, 3, 11, 107
9, 153120, Control_c, 3, 11, 111
9, 153180, Control_c, 3, 11, 115
9, 153240, Control_c, 3, 11, 119
9, 153300, Control_c, 3, 11, 127
9, 153359, Note_on_c, 3, 59, 0
9, 153360, Note_on_c, 3, 57, 84
9, 154049, Note_on_c, 3, 57, 0
9, 154065, Control_c, 3, 11, 80
9, 154080, Note_on_c, 3, 57, 76
9, 154319, Note_on_c, 3, 57, 0
9, 154320, Note_on_c, 3, 59, 76
9, 154529, Note_on_c, 3, 59, 0
9, 154560, Note_on_c, 3, 55, 76
9, 154739, Note_on_c, 3, 55, 0
9, 154800, Note_on_c, 3, 54, 76
9, 155039, Note_on_c, 3, 54, 0
9, 155280, Note_on_c, 3, 57, 76
9, 155459, Note_on_c, 3, 57, 0
9, 155520, Note_on_c, 3, 57, 76
9, 155759, Note_on_c, 3, 57, 0
9, 155760, Note_on_c, 3, 59, 76
9, 155969, Note_on_c, 3, 59, 0
9, 156000, Note_on_c, 3, 55, 76
9, 156179, Note_on_c, 3, 55, 0
9, 156240, Control_c, 3, 11, 80
9, 156240, Note_on_c, 3, 54, 76
9, 156360, Control_c, 3, 11, 84
9, 156479, Note_on_c, 3, 54, 0
9, 157560, Control_c, 3, 11, 127
9, 158160, Note_on_c, 3, 57, 52
9, 158160, Note_on_c, 3, 45, 52
9, 158339, Note_on_c, 3, 57, 0
9, 158339, Note_on_c, 3, 45, 0
9, 158400, Note_on_c, 3, 50, 52
9, 158400, Note_on_c, 3, 57, 52
9, 158639, Note_on_c, 3, 50, 0
9, 158639, Note_on_c, 3, 57, 0
9, 158640, Note_on_c, 3, 43, 52
9, 158640, Note_on_c, 3, 59, 52
9, 158849, Note_on_c, 3, 43, 0
9, 158849, Note_on_c, 3, 59, 0
9, 158880, Note_on_c, 3, 45, 52
9, 158880, Note_on_c, 3, 61, 52
9, 159059, Note_on_c, 3, 45, 0
9, 159059, Note_on_c, 3, 61, 0
9, 159120, Note_on_c, 3, 50, 52
9, 159120, Note_on_c, 3, 62, 52
9, 159359, Note_on_c, 3, 50, 0
9, 159359, Note_on_c, 3, 62, 0
9, 169920, Note_on_c, 3, 45, 84
9, 169920, Note_on_c, 3, 57, 84
9, 171329, Note_on_c, 3, 45, 0
9, 171329, Note_on_c, 3, 57, 0
9, 171360, Note_on_c, 3, 50, 52
9, 171539, Note_on_c, 3, 50, 0
9, 171600, Note_on_c, 3, 62, 52
9, 171779, Note_on_c, 3, 62, 0
9, 171840, Note_on_c, 3, 61, 52
9, 172019, Note_on_c, 3, 61, 0
9, 172080, Note_on_c, 3, 59, 52
9, 172259, Note_on_c, 3, 59, 0
9, 172320, Note_on_c, 3, 57, 52
9, 172499, Note_on_c, 3, 57, 0
9, 172560, Note_on_c, 3, 55, 52
9, 172739, Note_on_c, 3, 55, 0
9, 172800, Note_on_c, 3, 54, 52
9, 172979, Note_on_c, 3, 54, 0
9, 173040, Note_on_c, 3, 52, 52
9, 173219, Note_on_c, 3, 52, 0
9, 173280, Note_on_c, 3, 50, 52
9, 173459, Note_on_c, 3, 50, 0
9, 173520, Note_on_c, 3, 57, 52
9, 173699, Note_on_c, 3, 57, 0
9, 173880, Control_c, 3, 11, 80
9, 174000, Note_on_c, 3, 54, 76
9, 174179, Note_on_c, 3, 54, 0
9, 174240, Note_on_c, 3, 52, 76
9, 174300, Control_c, 3, 11, 84
9, 174360, Control_c, 3, 11, 88
9, 174419, Note_on_c, 3, 52, 0
9, 174420, Control_c, 3, 11, 92
9, 174480, Note_on_c, 3, 64, 76
9, 174480, Control_c, 3, 11, 96
9, 174540, Control_c, 3, 11, 100
9, 174600, Control_c, 3, 11, 104
9, 174659, Note_on_c, 3, 64, 0
9, 174660, Control_c, 3, 11, 107
9, 174720, Control_c, 3, 11, 111
9, 174720, Note_on_c, 3, 62, 76
9, 174780, Control_c, 3, 11, 115
9, 174840, Control_c, 3, 11, 119
9, 174899, Note_on_c, 3, 62, 0
9, 174900, Control_c, 3, 11, 123
9, 174960, Note_on_c, 3, 61, 84
9, 174960, Control_c, 3, 11, 127
9, 175020, Control_c, 3, 11, 123
9, 175080, Control_c, 3, 11, 119
9, 175139, Note_on_c, 3, 61, 0
9, 175140, Control_c, 3, 11, 115
9, 175200, Control_c, 3, 11, 111
9, 175200, Note_on_c, 3, 59, 76
9, 175260, Control_c, 3, 11, 107
9, 175320, Control_c, 3, 11, 104
9, 175379, Note_on_c, 3, 59, 0
9, 175380, Control_c, 3, 11, 100
9, 175440, Control_c, 3, 11, 96
9, 175440, Note_on_c, 3, 57, 76
9, 175500, Control_c, 3, 11, 92
9, 175560, Control_c, 3, 11, 88
9, 175619, Note_on_c, 3, 57, 0
9, 175620, Control_c, 3, 11, 84
9, 175680, Control_c, 3, 11, 80
9, 175680, Note_on_c, 3, 62, 76
9, 175919, Note_on_c, 3, 62, 0
9, 175920, Note_on_c, 3, 55, 76
9, 176129, Note_on_c, 3, 55, 0
9, 176160, Note_on_c, 3, 57, 76
9, 176339, Note_on_c, 3, 57, 0
9, 176400, Note_on_c, 3, 50, 76
9, 176639, Note_on_c, 3, 50, 0
9, 179760, Note_on_c, 3, 57, 76
9, 179999, Note_on_c, 3, 57, 0
9, 180000, Control_c, 3, 11, 80
9, 180000, Note_on_c, 3, 59, 76
9, 180060, Control_c, 3, 11, 84
9, 180120, Control_c, 3, 11, 88
9, 180180, Control_c, 3, 11, 92
9, 180240, Control_c, 3, 11, 96
9, 180300, Control_c, 3, 11, 100
9, 180360, Control_c, 3, 11, 104
9, 180420, Control_c, 3, 11, 107
9, 180480, Control_c, 3, 11, 111
9, 180540, Control_c, 3, 11, 115
9, 180600, Control_c, 3, 11, 119
9, 180660, Control_c, 3, 11, 127
9, 180719, Note_on_c, 3, 59, 0
9, 180720, Note_on_c, 3, 57, 84
9, 181409, Note_on_c, 3, 57, 0
9, 181425, Control_c, 3, 11, 80
9, 181440, Note_on_c, 3, 57, 76
9, 181679, Note_on_c, 3, 57, 0
9, 181680, Note_on_c, 3, 59, 76
9, 181889, Note_on_c, 3, 59, 0
9, 181920, Note_on_c, 3, 55, 76
9, 182099, Note_on_c, 3, 55, 0
9, 182160, Note_on_c, 3, 54, 76
9, 182399, Note_on_c, 3, 54, 0
9, 182640, Note_on_c, 3, 57, 76
9, 182819, Note_on_c, 3, 57, 0
9, 182880, Note_on_c, 3, 57, 76
9, 183119, Note_on_c, 3, 57, 0
9, 183120, Note_on_c, 3, 59, 76
9, 183329, Note_on_c, 3, 59, 0
9, 183360, Note_on_c, 3, 55, 76
9, 183539, Note_on_c, 3, 55, 0
9, 183600, Control_c, 3, 11, 80
9, 183600, Note_on_c, 3, 54, 76
9, 183720, Control_c, 3, 11, 84
9, 183839, Note_on_c, 3, 54, 0
9, 184920, Control_c, 3, 11, 127
9, 185520, Note_on_c, 3, 57, 52
9, 185520, Note_on_c, 3, 45, 52
9, 185699, Note_on_c, 3, 57, 0
9, 185699, Note_on_c, 3, 45, 0
9, 185760, Note_on_c, 3, 50, 52
9, 185760, Note_on_c, 3, 57, 52
9, 185999, Note_on_c, 3, 50, 0
9, 185999, Note_on_c, 3, 57, 0
9, 186000, Note_on_c, 3, 59, 52
9, 186000, Note_on_c, 3, 43, 52
9, 186209, Note_on_c, 3, 59, 0
9, 186209, Note_on_c, 3, 43, 0
9, 186240, Note_on_c, 3, 45, 52
9, 186240, Note_on_c, 3, 61, 52
9, 186419, Note_on_c, 3, 45, 0
9, 186419, Note_on_c, 3, 61, 0
9, 186480, Note_on_c, 3, 62, 52
9, 186480, Note_on_c, 3, 50, 52
9, 186719, Note_on_c, 3, 62, 0
9, 186719, Note_on_c, 3, 50, 0
9, 187200, Note_on_c, 3, 50, 76
9, 187379, Note_on_c, 3, 50, 0
9, 187440, Note_on_c, 3, 52, 76
9, 187619, Note_on_c, 3, 52, 0
9, 187680, Note_on_c, 3, 54, 76
9, 187859, Note_on_c, 3, 54, 0
9, 188640, Note_on_c, 3, 55, 76
9, 188819, Note_on_c, 3, 55, 0
9, 188880, Note_on_c, 3, 57, 76
9, 189059, Note_on_c, 3, 57, 0
9, 189120, Note_on_c, 3, 59, 76
9, 189299, Note_on_c, 3, 59, 0
9, 192240, Note_on_c, 3, 50, 84
9, 192240, Note_on_c, 3, 62, 84
9, 192419, Note_on_c, 3, 50, 0
9, 192419, Note_on_c, 3, 62, 0
9, 192480, Note_on_c, 3, 45, 84
9, 192480, Note_on_c, 3, 57, 84
9, 192659, Note_on_c, 3, 45, 0
9, 192659, Note_on_c, 3, 57, 0
9, 192720, Note_on_c, 3, 62, 84
9, 192720, Note_on_c, 3, 50, 84
9, 192899, Note_on_c, 3, 62, 0
9, 192899, Note_on_c, 3, 50, 0
9, 192960, Note_on_c, 3, 50, 76
9, 193139, Note_on_c, 3, 50, 0
9, 193200, Note_on_c, 3, 52, 76
9, 193379, Note_on_c, 3, 52, 0
9, 193440, Note_on_c, 3, 54, 76
9, 193619, Note_on_c, 3, 54, 0
9, 194400, Note_on_c, 3, 56, 76
9, 194579, Note_on_c, 3, 56, 0
9, 194640, Note_on_c, 3, 57, 76
9, 194819, Note_on_c, 3, 57, 0
9, 194880, Note_on_c, 3, 59, 76
9, 195059, Note_on_c, 3, 59, 0
9, 197280, Note_on_c, 3, 57, 52
9, 197459, Note_on_c, 3, 57, 0
9, 197520, Note_on_c, 3, 52, 52
9, 197699, Note_on_c, 3, 52, 0
9, 197760, Note_on_c, 3, 57, 52
9, 197939, Note_on_c, 3, 57, 0
9, 198000, Note_on_c, 3, 45, 84
9, 198000, Note_on_c, 3, 57, 84
9, 198179, Note_on_c, 3, 45, 0
9, 198179, Note_on_c, 3, 57, 0
9, 198240, Note_on_c, 3, 52, 84
9, 198240, Note_on_c, 3, 40, 84
9, 198419, Note_on_c, 3, 52, 0
9, 198419, Note_on_c, 3, 40, 0
9, 198480, Note_on_c, 3, 45, 84
9, 198480, Note_on_c, 3, 57, 84
9, 198659, Note_on_c, 3, 45, 0
9, 198659, Note_on_c, 3, 57, 0
9, 198720, Note_on_c, 3, 50, 76
9, 198899, Note_on_c, 3, 50, 0
9, 198960, Note_on_c, 3, 52, 76
9, 199139, Note_on_c, 3, 52, 0
9, 199200, Note_on_c, 3, 54, 76
9, 199379, Note_on_c, 3, 54, 0
9, 200160, Note_on_c, 3, 55, 76
9, 200339, Note_on_c, 3, 55, 0
9, 200400, Note_on_c, 3, 57, 76
9, 200579, Note_on_c, 3, 57, 0
9, 200640, Note_on_c, 3, 59, 76
9, 200819, Note_on_c, 3, 59, 0
9, 203760, Note_on_c, 3, 62, 84
9, 203760, Note_on_c, 3, 50, 84
9, 203939, Note_on_c, 3, 62, 0
9, 203939, Note_on_c, 3, 50, 0
9, 204000, Note_on_c, 3, 45, 84
9, 204000, Note_on_c, 3, 57, 84
9, 204179, Note_on_c, 3, 45, 0
9, 204179, Note_on_c, 3, 57, 0
9, 204240, Note_on_c, 3, 50, 84
9, 204240, Note_on_c, 3, 62, 84
9, 204419, Note_on_c, 3, 50, 0
9, 204419, Note_on_c, 3, 62, 0
9, 204480, Note_on_c, 3, 50, 76
9, 204659, Note_on_c, 3, 50, 0
9, 204720, Note_on_c, 3, 52, 76
9, 204899, Note_on_c, 3, 52, 0
9, 204960, Note_on_c, 3, 54, 76
9, 205139, Note_on_c, 3, 54, 0
9, 205920, Note_on_c, 3, 56, 76
9, 206099, Note_on_c, 3, 56, 0
9, 206160, Note_on_c, 3, 57, 76
9, 206339, Note_on_c, 3, 57, 0
9, 206400, Note_on_c, 3, 59, 76
9, 206579, Note_on_c, 3, 59, 0
9, 208800, Note_on_c, 3, 57, 52
9, 208979, Note_on_c, 3, 57, 0
9, 209040, Note_on_c, 3, 52, 52
9, 209219, Note_on_c, 3, 52, 0
9, 209280, Note_on_c, 3, 57, 52
9, 209459, Note_on_c, 3, 57, 0
9, 209520, Note_on_c, 3, 45, 84
9, 209520, Note_on_c, 3, 57, 84
9, 209699, Note_on_c, 3, 45, 0
9, 209699, Note_on_c, 3, 57, 0
9, 209760, Note_on_c, 3, 40, 84
9, 209760, Note_on_c, 3, 52, 84
9, 209939, Note_on_c, 3, 40, 0
9, 209939, Note_on_c, 3, 52, 0
9, 210000, Note_on_c, 3, 45, 84
9, 210000, Note_on_c, 3, 57, 84
9, 210179, Note_on_c, 3, 45, 0
9, 210179, Note_on_c, 3, 57, 0
9, 215760, Note_on_c, 3, 57, 52
9, 215999, Note_on_c, 3, 57, 0
9, 216000, Note_on_c, 3, 58, 52
9, 216179, Note_on_c, 3, 58, 0
9, 216240, Note_on_c, 3, 65, 76
9, 216360, Control_c, 3, 11, 80
9, 217169, Note_on_c, 3, 65, 0
9, 217200, Note_on_c, 3, 62, 76
9, 217319, Note_on_c, 3, 62, 0
9, 217320, Note_on_c, 3, 58, 76
9, 217409, Note_on_c, 3, 58, 0
9, 217440, Note_on_c, 3, 57, 76
9, 217679, Note_on_c, 3, 57, 0
9, 218160, Control_c, 3, 11, 127
9, 218400, Note_on_c, 3, 53, 52
9, 218609, Note_on_c, 3, 53, 0
9, 218640, Note_on_c, 3, 53, 52
9, 218849, Note_on_c, 3, 53, 0
9, 218880, Note_on_c, 3, 58, 52
9, 219119, Note_on_c, 3, 58, 0
9, 219600, Note_on_c, 3, 57, 52
9, 219839, Note_on_c, 3, 57, 0
9, 220320, Note_on_c, 3, 56, 52
9, 220559, Note_on_c, 3, 56, 0
9, 221040, Note_on_c, 3, 56, 52
9, 221279, Note_on_c, 3, 56, 0
9, 221760, Note_on_c, 3, 57, 52
9, 221999, Note_on_c, 3, 57, 0
9, 226080, Note_on_c, 3, 50, 76
9, 226259, Note_on_c, 3, 50, 0
9, 226320, Note_on_c, 3, 52, 76
9, 226499, Note_on_c, 3, 52, 0
9, 226560, Note_on_c, 3, 54, 76
9, 226739, Note_on_c, 3, 54, 0
9, 227520, Note_on_c, 3, 55, 76
9, 227699, Note_on_c, 3, 55, 0
9, 227760, Note_on_c, 3, 57, 76
9, 227939, Note_on_c, 3, 57, 0
9, 228000, Note_on_c, 3, 59, 76
9, 228179, Note_on_c, 3, 59, 0
9, 231120, Note_on_c, 3, 62, 84
9, 231120, Note_on_c, 3, 50, 84
9, 231299, Note_on_c, 3, 62, 0
9, 231299, Note_on_c, 3, 50, 0
9, 231360, Note_on_c, 3, 45, 84
9, 231360, Note_on_c, 3, 57, 84
9, 231539, Note_on_c, 3, 45, 0
9, 231539, Note_on_c, 3, 57, 0
9, 231600, Note_on_c, 3, 50, 84
9, 231600, Note_on_c, 3, 62, 84
9, 231779, Note_on_c, 3, 50, 0
9, 231779, Note_on_c, 3, 62, 0
9, 231840, Note_on_c, 3, 50, 76
9, 232019, Note_on_c, 3, 50, 0
9, 232080, Note_on_c, 3, 52, 76
9, 232259, Note_on_c, 3, 52, 0
9, 232320, Note_on_c, 3, 54, 76
9, 232499, Note_on_c, 3, 54, 0
9, 233280, Note_on_c, 3, 55, 76
9, 233459, Note_on_c, 3, 55, 0
9, 233520, Note_on_c, 3, 57, 76
9, 233699, Note_on_c, 3, 57, 0
9, 233760, Note_on_c, 3, 59, 76
9, 233939, Note_on_c, 3, 59, 0
9, 240480, Note_on_c, 3, 60, 44
9, 241169, Note_on_c, 3, 60, 0
9, 241200, Note_on_c, 3, 65, 44
9, 241379, Note_on_c, 3, 65, 0
9, 241440, Note_on_c, 3, 64, 44
9, 241619, Note_on_c, 3, 64, 0
9, 241680, Note_on_c, 3, 65, 44
9, 241859, Note_on_c, 3, 65, 0
9, 241920, Note_on_c, 3, 57, 44
9, 242609, Note_on_c, 3, 57, 0
9, 242640, Note_on_c, 3, 62, 44
9, 242819, Note_on_c, 3, 62, 0
9, 242880, Note_on_c, 3, 61, 44
9, 243059, Note_on_c, 3, 61, 0
9, 243120, Note_on_c, 3, 62, 44
9, 243299, Note_on_c, 3, 62, 0
9, 243330, Control_c, 3, 11, 80
9, 243360, Note_on_c, 3, 46, 76
9, 243360, Note_on_c, 3, 50, 76
9, 243480, Control_c, 3, 11, 84
9, 243599, Note_on_c, 3, 50, 0
9, 243600, Note_on_c, 3, 52, 76
9, 243600, Control_c, 3, 11, 88
9, 243720, Control_c, 3, 11, 92
9, 243839, Note_on_c, 3, 52, 0
9, 243840, Note_on_c, 3, 53, 76
9, 243840, Control_c, 3, 11, 96
9, 243960, Control_c, 3, 11, 100
9, 244079, Note_on_c, 3, 53, 0
9, 244080, Note_on_c, 3, 54, 76
9, 244080, Control_c, 3, 11, 104
9, 244200, Control_c, 3, 11, 107
9, 244319, Note_on_c, 3, 54, 0
9, 244320, Note_on_c, 3, 55, 76
9, 244320, Control_c, 3, 11, 111
9, 244440, Control_c, 3, 11, 115
9, 244559, Note_on_c, 3, 55, 0
9, 244560, Control_c, 3, 11, 119
9, 244560, Note_on_c, 3, 56, 76
9, 244680, Control_c, 3, 11, 127
9, 244769, Note_on_c, 3, 46, 0
9, 244769, Note_on_c, 3, 56, 0
9, 244800, Note_on_c, 3, 45, 76
9, 244800, Note_on_c, 3, 57, 76
9, 245009, Note_on_c, 3, 45, 0
9, 245009, Note_on_c, 3, 57, 0
9, 245040, Note_on_c, 3, 57, 76
9, 245249, Note_on_c, 3, 57, 0
9, 245280, Note_on_c, 3, 57, 76
9, 245489, Note_on_c, 3, 57, 0
9, 245520, Note_on_c, 3, 50, 76
9, 245759, Note_on_c, 3, 50, 0
9, 246240, Note_on_c, 3, 60, 44
9, 246929, Note_on_c, 3, 60, 0
9, 246960, Note_on_c, 3, 65, 44
9, 247139, Note_on_c, 3, 65, 0
9, 247200, Note_on_c, 3, 64, 44
9, 247379, Note_on_c, 3, 64, 0
9, 247440, Note_on_c, 3, 65, 44
9, 247619, Note_on_c, 3, 65, 0
9, 247680, Note_on_c, 3, 57, 44
9, 248369, Note_on_c, 3, 57, 0
9, 248400, Note_on_c, 3, 62, 44
9, 248579, Note_on_c, 3, 62, 0
9, 248640, Note_on_c, 3, 61, 44
9, 248819, Note_on_c, 3, 61, 0
9, 248880, Note_on_c, 3, 62, 44
9, 249059, Note_on_c, 3, 62, 0
9, 249090, Control_c, 3, 11, 80
9, 249120, Note_on_c, 3, 50, 76
9, 249120, Note_on_c, 3, 46, 76
9, 249240, Control_c, 3, 11, 84
9, 249359, Note_on_c, 3, 50, 0
9, 249360, Note_on_c, 3, 52, 76
9, 249360, Control_c, 3, 11, 88
9, 249480, Control_c, 3, 11, 92
9, 249599, Note_on_c, 3, 52, 0
9, 249600, Control_c, 3, 11, 96
9, 249600, Note_on_c, 3, 53, 76
9, 249720, Control_c, 3, 11, 100
9, 249839, Note_on_c, 3, 53, 0
9, 249840, Note_on_c, 3, 54, 76
9, 249840, Control_c, 3, 11, 104
9, 249960, Control_c, 3, 11, 107
9, 250079, Note_on_c, 3, 54, 0
9, 250080, Control_c, 3, 11, 111
9, 250080, Note_on_c, 3, 55, 76
9, 250200, Control_c, 3, 11, 115
9, 250319, Note_on_c, 3, 55, 0
9, 250320, Control_c, 3, 11, 119
9, 250320, Note_on_c, 3, 56, 76
9, 250440, Control_c, 3, 11, 127
9, 250529, Note_on_c, 3, 46, 0
9, 250529, Note_on_c, 3, 56, 0
9, 250560, Note_on_c, 3, 57, 76
9, 250560, Note_on_c, 3, 45, 76
9, 250769, Note_on_c, 3, 57, 0
9, 250769, Note_on_c, 3, 45, 0
9, 250800, Note_on_c, 3, 57, 76
9, 251009, Note_on_c, 3, 57, 0
9, 251040, Note_on_c, 3, 57, 76
9, 251249, Note_on_c, 3, 57, 0
9, 251280, Note_on_c, 3, 62, 76
9, 251519, Note_on_c, 3, 62, 0
9, 251760, Control_c, 3, 11, 80
9, 252000, Note_on_c, 3, 46, 76
9, 252000, Control_c, 3, 11, 80
9, 252000, Note_on_c, 3, 50, 76
9, 252120, Control_c, 3, 11, 84
9, 252239, Note_on_c, 3, 50, 0
9, 252240, Note_on_c, 3, 52, 76
9, 252240, Control_c, 3, 11, 88
9, 252360, Control_c, 3, 11, 92
9, 252479, Note_on_c, 3, 52, 0
9, 252480, Control_c, 3, 11, 96
9, 252480, Note_on_c, 3, 53, 76
9, 252600, Control_c, 3, 11, 100
9, 252719, Note_on_c, 3, 53, 0
9, 252720, Control_c, 3, 11, 104
9, 252720, Note_on_c, 3, 54, 64
9, 252840, Control_c, 3, 11, 107
9, 252959, Note_on_c, 3, 54, 0
9, 252960, Note_on_c, 3, 55, 64
9, 252960, Control_c, 3, 11, 111
9, 253080, Control_c, 3, 11, 115
9, 253199, Note_on_c, 3, 55, 0
9, 253200, Control_c, 3, 11, 119
9, 253200, Note_on_c, 3, 56, 64
9, 253320, Control_c, 3, 11, 127
9, 253409, Note_on_c, 3, 46, 0
9, 253409, Note_on_c, 3, 56, 0
9, 253440, Note_on_c, 3, 45, 84
9, 253440, Note_on_c, 3, 57, 84
9, 253649, Note_on_c, 3, 45, 0
9, 253649, Note_on_c, 3, 57, 0
9, 253680, Note_on_c, 3, 57, 76
9, 253889, Note_on_c, 3, 57, 0
9, 253920, Note_on_c, 3, 57, 76
9, 254129, Note_on_c, 3, 57, 0
9, 254160, Note_on_c, 3, 62, 76
9, 254399, Note_on_c, 3, 62, 0
9, 254880, Note_on_c, 3, 45, 84
9, 254880, Note_on_c, 3, 61, 76
9, 255089, Note_on_c, 3, 45, 0
9, 255120, Note_on_c, 3, 57, 76
9, 255329, Note_on_c, 3, 57, 0
9, 255360, Note_on_c, 3, 57, 76
9, 255569, Note_on_c, 3, 61, 0
9, 255569, Note_on_c, 3, 57, 0
9, 255600, Note_on_c, 3, 62, 76
9, 255600, Note_on_c, 3, 50, 76
9, 255839, Note_on_c, 3, 62, 0
9, 255839, Note_on_c, 3, 50, 0
9, 256320, Note_on_c, 3, 61, 84
9, 256320, Note_on_c, 3, 57, 84
9, 257279, Note_on_c, 3, 61, 0
9, 257279, Note_on_c, 3, 57, 0
9, 257280, Note_on_c, 3, 59, 84
9, 257280, Note_on_c, 3, 62, 84
9, 257519, Note_on_c, 3, 59, 0
9, 257519, Note_on_c, 3, 62, 0
9, 257520, Note_on_c, 3, 61, 84
9, 257520, Note_on_c, 3, 64, 84
9, 257729, Note_on_c, 3, 61, 0
9, 257729, Note_on_c, 3, 64, 0
9, 257760, Note_on_c, 3, 66, 84
9, 257760, Note_on_c, 3, 62, 84
9, 257999, Note_on_c, 3, 66, 0
9, 257999, Note_on_c, 3, 62, 0
9, 258240, Note_on_c, 3, 57, 84
9, 258419, Note_on_c, 3, 57, 0
9, 258480, Note_on_c, 3, 62, 84
9, 258480, Note_on_c, 3, 50, 84
9, 258659, Note_on_c, 3, 62, 0
9, 258659, Note_on_c, 3, 50, 0
9, 264720, Note_on_c, 3, 57, 52
9, 264959, Note_on_c, 3, 57, 0
9, 264960, Note_on_c, 3, 58, 52
9, 265139, Note_on_c, 3, 58, 0
9, 265200, Note_on_c, 3, 65, 76
9, 265320, Control_c, 3, 11, 80
9, 266129, Note_on_c, 3, 65, 0
9, 266160, Note_on_c, 3, 62, 76
9, 266279, Note_on_c, 3, 62, 0
9, 266280, Note_on_c, 3, 58, 76
9, 266369, Note_on_c, 3, 58, 0
9, 266400, Note_on_c, 3, 57, 76
9, 266639, Note_on_c, 3, 57, 0
9, 267120, Control_c, 3, 11, 127
9, 267360, Note_on_c, 3, 53, 52
9, 267569, Note_on_c, 3, 53, 0
9, 267600, Note_on_c, 3, 53, 52
9, 267809, Note_on_c, 3, 53, 0
9, 267840, Note_on_c, 3, 58, 52
9, 268079, Note_on_c, 3, 58, 0
9, 268560, Note_on_c, 3, 57, 52
9, 268799, Note_on_c, 3, 57, 0
9, 269280, Note_on_c, 3, 56, 52
9, 269519, Note_on_c, 3, 56, 0
9, 270000, Note_on_c, 3, 56, 52
9, 270239, Note_on_c, 3, 56, 0
9, 270720, Note_on_c, 3, 57, 52
9, 270959, Note_on_c, 3, 57, 0
9, 275040, Note_on_c, 3, 50, 76
9, 275219, Note_on_c, 3, 50, 0
9, 275280, Note_on_c, 3, 52, 76
9, 275459, Note_on_c, 3, 52, 0
9, 275520, Note_on_c, 3, 54, 76
9, 275699, Note_on_c, 3, 54, 0
9, 276480, Note_on_c, 3, 55, 76
9, 276659, Note_on_c, 3, 55, 0
9, 276720, Note_on_c, 3, 57, 76
9, 276899, Note_on_c, 3, 57, 0
9, 276960, Note_on_c, 3, 59, 76
9, 277139, Note_on_c, 3, 59, 0
9, 280080, Note_on_c, 3, 50, 84
9, 280080, Note_on_c, 3, 62, 84
9, 280259, Note_on_c, 3, 50, 0
9, 280259, Note_on_c, 3, 62, 0
9, 280320, Note_on_c, 3, 45, 84
9, 280320, Note_on_c, 3, 57, 84
9, 280499, Note_on_c, 3, 45, 0
9, 280499, Note_on_c, 3, 57, 0
9, 280560, Note_on_c, 3, 50, 84
9, 280560, Note_on_c, 3, 62, 84
9, 280739, Note_on_c, 3, 50, 0
9, 280739, Note_on_c, 3, 62, 0
9, 280800, Note_on_c, 3, 50, 76
9, 280979, Note_on_c, 3, 50, 0
9, 281040, Note_on_c, 3, 52, 76
9, 281219, Note_on_c, 3, 52, 0
9, 281280, Note_on_c, 3, 54, 76
9, 281459, Note_on_c, 3, 54, 0
9, 282240, Note_on_c, 3, 55, 76
9, 282419, Note_on_c, 3, 55, 0
9, 282480, Note_on_c, 3, 57, 76
9, 282659, Note_on_c, 3, 57, 0
9, 282720, Note_on_c, 3, 59, 76
9, 282899, Note_on_c, 3, 59, 0
9, 289440, Note_on_c, 3, 60, 44
9, 290129, Note_on_c, 3, 60, 0
9, 290160, Note_on_c, 3, 65, 44
9, 290339, Note_on_c, 3, 65, 0
9, 290400, Note_on_c, 3, 64, 44
9, 290579, Note_on_c, 3, 64, 0
9, 290640, Note_on_c, 3, 65, 44
9, 290819, Note_on_c, 3, 65, 0
9, 290880, Note_on_c, 3, 57, 44
9, 291569, Note_on_c, 3, 57, 0
9, 291600, Note_on_c, 3, 62, 44
9, 291779, Note_on_c, 3, 62, 0
9, 291840, Note_on_c, 3, 61, 44
9, 292019, Note_on_c, 3, 61, 0
9, 292080, Note_on_c, 3, 62, 44
9, 292259, Note_on_c, 3, 62, 0
9, 292290, Control_c, 3, 11, 80
9, 292320, Note_on_c, 3, 50, 76
9, 292320, Note_on_c, 3, 46, 76
9, 292440, Control_c, 3, 11, 84
9, 292559, Note_on_c, 3, 50, 0
9, 292560, Control_c, 3, 11, 88
9, 292560, Note_on_c, 3, 52, 76
9, 292680, Control_c, 3, 11, 92
9, 292799, Note_on_c, 3, 52, 0
9, 292800, Note_on_c, 3, 53, 76
9, 292800, Control_c, 3, 11, 96
9, 292920, Control_c, 3, 11, 100
9, 293039, Note_on_c, 3, 53, 0
9, 293040, Control_c, 3, 11, 104
9, 293040, Note_on_c, 3, 54, 76
9, 293160, Control_c, 3, 11, 107
9, 293279, Note_on_c, 3, 54, 0
9, 293280, Control_c, 3, 11, 111
9, 293280, Note_on_c, 3, 55, 76
9, 293400, Control_c, 3, 11, 115
9, 293519, Note_on_c, 3, 55, 0
9, 293520, Note_on_c, 3, 56, 76
9, 293520, Control_c, 3, 11, 119
9, 293640, Control_c, 3, 11, 127
9, 293729, Note_on_c, 3, 46, 0
9, 293729, Note_on_c, 3, 56, 0
9, 293760, Note_on_c, 3, 45, 76
9, 293760, Note_on_c, 3, 57, 76
9, 293969, Note_on_c, 3, 45, 0
9, 293969, Note_on_c, 3, 57, 0
9, 294000, Note_on_c, 3, 57, 76
9, 294209, Note_on_c, 3, 57, 0
9, 294240, Note_on_c, 3, 57, 76
9, 294449, Note_on_c, 3, 57, 0
9, 294480, Note_on_c, 3, 50, 76
9, 294719, Note_on_c, 3, 50, 0
9, 295200, Note_on_c, 3, 60, 44
9, 295889, Note_on_c, 3, 60, 0
9, 295920, Note_on_c, 3, 65, 44
9, 296099, Note_on_c, 3, 65, 0
9, 296160, Note_on_c, 3, 64, 44
9, 296339, Note_on_c, 3, 64, 0
9, 296400, Note_on_c, 3, 65, 44
9, 296579, Note_on_c, 3, 65, 0
9, 296640, Note_on_c, 3, 57, 44
9, 297329, Note_on_c, 3, 57, 0
9, 297360, Note_on_c, 3, 62, 44
9, 297539, Note_on_c, 3, 62, 0
9, 297600, Note_on_c, 3, 61, 44
9, 297779, Note_on_c, 3, 61, 0
9, 297840, Note_on_c, 3, 62, 44
9, 298019, Note_on_c, 3, 62, 0
9, 298050, Control_c, 3, 11, 80
9, 298080, Note_on_c, 3, 46, 76
9, 298080, Note_on_c, 3, 50, 76
9, 298200, Control_c, 3, 11, 84
9, 298319, Note_on_c, 3, 50, 0
9, 298320, Note_on_c, 3, 52, 76
9, 298320, Control_c, 3, 11, 88
9, 298440, Control_c, 3, 11, 92
9, 298559, Note_on_c, 3, 52, 0
9, 298560, Note_on_c, 3, 53, 76
9, 298560, Control_c, 3, 11, 96
9, 298680, Control_c, 3, 11, 100
9, 298799, Note_on_c, 3, 53, 0
9, 298800, Control_c, 3, 11, 104
9, 298800, Note_on_c, 3, 54, 76
9, 298920, Control_c, 3, 11, 107
9, 299039, Note_on_c, 3, 54, 0
9, 299040, Note_on_c, 3, 55, 76
9, 299040, Control_c, 3, 11, 111
9, 299160, Control_c, 3, 11, 115
9, 299279, Note_on_c, 3, 55, 0
9, 299280, Note_on_c, 3, 56, 76
9, 299280, Control_c, 3, 11, 119
9, 299400, Control_c, 3, 11, 127
9, 299489, Note_on_c, 3, 46, 0
9, 299489, Note_on_c, 3, 56, 0
9, 299520, Note_on_c, 3, 57, 76
9, 299520, Note_on_c, 3, 45, 76
9, 299729, Note_on_c, 3, 57, 0
9, 299729, Note_on_c, 3, 45, 0
9, 299760, Note_on_c, 3, 57, 76
9, 299969, Note_on_c, 3, 57, 0
9, 300000, Note_on_c, 3, 57, 76
9, 300209, Note_on_c, 3, 57, 0
9, 300240, Note_on_c, 3, 62, 76
9, 300479, Note_on_c, 3, 62, 0
9, 300720, Control_c, 3, 11, 80
9, 300960, Control_c, 3, 11, 80
9, 300960, Note_on_c, 3, 46, 76
9, 300960, Note_on_c, 3, 50, 76
9, 301080, Control_c, 3, 11, 84
9, 301199, Note_on_c, 3, 50, 0
9, 301200, Control_c, 3, 11, 88
9, 301200, Note_on_c, 3, 52, 76
9, 301320, Control_c, 3, 11, 92
9, 301439, Note_on_c, 3, 52, 0
9, 301440, Control_c, 3, 11, 96
9, 301440, Note_on_c, 3, 53, 76
9, 301560, Control_c, 3, 11, 100
9, 301679, Note_on_c, 3, 53, 0
9, 301680, Note_on_c, 3, 54, 64
9, 301680, Control_c, 3, 11, 104
9, 301800, Control_c, 3, 11, 107
9, 301919, Note_on_c, 3, 54, 0
9, 301920, Control_c, 3, 11, 111
9, 301920, Note_on_c, 3, 55, 64
9, 302040, Control_c, 3, 11, 115
9, 302159, Note_on_c, 3, 55, 0
9, 302160, Control_c, 3, 11, 119
9, 302160, Note_on_c, 3, 56, 64
9, 302280, Control_c, 3, 11, 127
9, 302369, Note_on_c, 3, 46, 0
9, 302369, Note_on_c, 3, 56, 0
9, 302400, Note_on_c, 3, 57, 84
9, 302400, Note_on_c, 3, 45, 84
9, 302609, Note_on_c, 3, 57, 0
9, 302609, Note_on_c, 3, 45, 0
9, 302640, Note_on_c, 3, 57, 76
9, 302849, Note_on_c, 3, 57, 0
9, 302880, Note_on_c, 3, 57, 76
9, 303089, Note_on_c, 3, 57, 0
9, 303120, Note_on_c, 3, 62, 76
9, 303359, Note_on_c, 3, 62, 0
9, 303840, Note_on_c, 3, 45, 84
9, 303840, Note_on_c, 3, 61, 76
9, 304049, Note_on_c, 3, 45, 0
9, 304080, Note_on_c, 3, 57, 76
9, 304289, Note_on_c, 3, 57, 0
9, 304320, Note_on_c, 3, 57, 76
9, 304529, Note_on_c, 3, 61, 0
9, 304529, Note_on_c, 3, 57, 0
9, 304560, Note_on_c, 3, 62, 76
9, 304560, Note_on_c, 3, 50, 76
9, 304799, Note_on_c, 3, 62, 0
9, 304799, Note_on_c, 3, 50, 0
9, 305280, Note_on_c, 3, 57, 84
9, 305280, Note_on_c, 3, 61, 84
9, 306239, Note_on_c, 3, 57, 0
9, 306239, Note_on_c, 3, 61, 0
9, 306240, Note_on_c, 3, 59, 84
9, 306240, Note_on_c, 3, 62, 84
9, 306479, Note_on_c, 3, 59, 0
9, 306479, Note_on_c, 3, 62, 0
9, 306480, Note_on_c, 3, 61, 84
9, 306480, Note_on_c, 3, 64, 84
9, 306689, Note_on_c, 3, 61, 0
9, 306689, Note_on_c, 3, 64, 0
9, 306720, Note_on_c, 3, 62, 84
9, 306720, Note_on_c, 3, 66, 84
9, 306959, Note_on_c, 3, 62, 0
9, 306959, Note_on_c, 3, 66, 0
9, 307200, Note_on_c, 3, 57, 84
9, 307379, Note_on_c, 3, 57, 0
9, 307440, Note_on_c, 3, 50, 84
9, 307440, Note_on_c, 3, 62, 84
9, 307619, Note_on_c, 3, 50, 0
9, 307619, Note_on_c, 3, 62, 0
9, 307619, End_track
10, 0, Start_track
10, 0, Title_t, "French Horn in D"
10, 0, MIDI_port, 0
10, 0, Program_c, 4, 60
10, 0, Control_c, 4, 7, 96
10, 0, Control_c, 4, 10, 45
10, 0, Control_c, 4, 11, 127
10, 0, Note_on_c, 4, 62, 76
10, 0, Note_on_c, 4, 50, 76
10, 719, Note_on_c, 4, 62, 0
10, 719, Note_on_c, 4, 50, 0
10, 1440, Note_on_c, 4, 62, 76
10, 1440, Note_on_c, 4, 50, 76
10, 2159, Note_on_c, 4, 62, 0
10, 2159, Note_on_c, 4, 50, 0
10, 2880, Note_on_c, 4, 57, 52
10, 2880, Note_on_c, 4, 64, 52
10, 3059, Note_on_c, 4, 57, 0
10, 3059, Note_on_c, 4, 64, 0
10, 3120, Note_on_c, 4, 62, 52
10, 3120, Note_on_c, 4, 66, 52
10, 3299, Note_on_c, 4, 62, 0
10, 3299, Note_on_c, 4, 66, 0
10, 3360, Note_on_c, 4, 64, 52
10, 3360, Note_on_c, 4, 67, 52
10, 3539, Note_on_c, 4, 64, 0
10, 3539, Note_on_c, 4, 67, 0
10, 4320, Note_on_c, 4, 66, 52
10, 4320, Note_on_c, 4, 62, 52
10, 4499, Note_on_c, 4, 66, 0
10, 4499, Note_on_c, 4, 62, 0
10, 4560, Note_on_c, 4, 64, 52
10, 4560, Note_on_c, 4, 57, 52
10, 4739, Note_on_c, 4, 64, 0
10, 4739, Note_on_c, 4, 57, 0
10, 4800, Note_on_c, 4, 62, 52
10, 4800, Note_on_c, 4, 54, 52
10, 4979, Note_on_c, 4, 62, 0
10, 4979, Note_on_c, 4, 54, 0
10, 5760, Note_on_c, 4, 62, 76
10, 5760, Note_on_c, 4, 50, 76
10, 6479, Note_on_c, 4, 62, 0
10, 6479, Note_on_c, 4, 50, 0
10, 7200, Note_on_c, 4, 62, 76
10, 7200, Note_on_c, 4, 50, 76
10, 7919, Note_on_c, 4, 62, 0
10, 7919, Note_on_c, 4, 50, 0
10, 10080, Note_on_c, 4, 64, 52
10, 10259, Note_on_c, 4, 64, 0
10, 10320, Note_on_c, 4, 64, 52
10, 10499, Note_on_c, 4, 64, 0
10, 10560, Note_on_c, 4, 64, 52
10, 10739, Note_on_c, 4, 64, 0
10, 10800, Note_on_c, 4, 64, 84
10, 10979, Note_on_c, 4, 64, 0
10, 11040, Note_on_c, 4, 64, 84
10, 11219, Note_on_c, 4, 64, 0
10, 11280, Note_on_c, 4, 64, 84
10, 11459, Note_on_c, 4, 64, 0
10, 11520, Note_on_c, 4, 62, 76
10, 11520, Note_on_c, 4, 50, 76
10, 12239, Note_on_c, 4, 62, 0
10, 12239, Note_on_c, 4, 50, 0
10, 12960, Note_on_c, 4, 50, 76
10, 12960, Note_on_c, 4, 62, 76
10, 13679, Note_on_c, 4, 50, 0
10, 13679, Note_on_c, 4, 62, 0
10, 14400, Note_on_c, 4, 57, 52
10, 14400, Note_on_c, 4, 64, 52
10, 14579, Note_on_c, 4, 57, 0
10, 14579, Note_on_c, 4, 64, 0
10, 14640, Note_on_c, 4, 62, 52
10, 14640, Note_on_c, 4, 66, 52
10, 14819, Note_on_c, 4, 62, 0
10, 14819, Note_on_c, 4, 66, 0
10, 14880, Note_on_c, 4, 64, 52
10, 14880, Note_on_c, 4, 67, 52
10, 15059, Note_on_c, 4, 64, 0
10, 15059, Note_on_c, 4, 67, 0
10, 15840, Note_on_c, 4, 66, 52
10, 15840, Note_on_c, 4, 62, 52
10, 16019, Note_on_c, 4, 66, 0
10, 16019, Note_on_c, 4, 62, 0
10, 16080, Note_on_c, 4, 57, 52
10, 16080, Note_on_c, 4, 64, 52
10, 16259, Note_on_c, 4, 57, 0
10, 16259, Note_on_c, 4, 64, 0
10, 16320, Note_on_c, 4, 54, 52
10, 16320, Note_on_c, 4, 62, 52
10, 16499, Note_on_c, 4, 54, 0
10, 16499, Note_on_c, 4, 62, 0
10, 17280, Note_on_c, 4, 50, 76
10, 17280, Note_on_c, 4, 62, 76
10, 17999, Note_on_c, 4, 50, 0
10, 17999, Note_on_c, 4, 62, 0
10, 18720, Note_on_c, 4, 62, 76
10, 18720, Note_on_c, 4, 50, 76
10, 19439, Note_on_c, 4, 62, 0
10, 19439, Note_on_c, 4, 50, 0
10, 21600, Note_on_c, 4, 64, 52
10, 21779, Note_on_c, 4, 64, 0
10, 21840, Note_on_c, 4, 64, 52
10, 22019, Note_on_c, 4, 64, 0
10, 22080, Note_on_c, 4, 64, 52
10, 22259, Note_on_c, 4, 64, 0
10, 22320, Note_on_c, 4, 64, 84
10, 22499, Note_on_c, 4, 64, 0
10, 22560, Note_on_c, 4, 64, 84
10, 22739, Note_on_c, 4, 64, 0
10, 22800, Note_on_c, 4, 64, 84
10, 22979, Note_on_c, 4, 64, 0
10, 38880, Note_on_c, 4, 62, 76
10, 38880, Note_on_c, 4, 50, 76
10, 39599, Note_on_c, 4, 62, 0
10, 39599, Note_on_c, 4, 50, 0
10, 40320, Note_on_c, 4, 50, 76
10, 40320, Note_on_c, 4, 62, 76
10, 41039, Note_on_c, 4, 50, 0
10, 41039, Note_on_c, 4, 62, 0
10, 41760, Note_on_c, 4, 64, 52
10, 41760, Note_on_c, 4, 57, 52
10, 41939, Note_on_c, 4, 64, 0
10, 41939, Note_on_c, 4, 57, 0
10, 42000, Note_on_c, 4, 62, 52
10, 42000, Note_on_c, 4, 66, 52
10, 42179, Note_on_c, 4, 62, 0
10, 42179, Note_on_c, 4, 66, 0
10, 42240, Note_on_c, 4, 67, 52
10, 42240, Note_on_c, 4, 64, 52
10, 42419, Note_on_c, 4, 67, 0
10, 42419, Note_on_c, 4, 64, 0
10, 43200, Note_on_c, 4, 62, 52
10, 43200, Note_on_c, 4, 66, 52
10, 43379, Note_on_c, 4, 62, 0
10, 43379, Note_on_c, 4, 66, 0
10, 43440, Note_on_c, 4, 57, 52
10, 43440, Note_on_c, 4, 64, 52
10, 43619, Note_on_c, 4, 57, 0
10, 43619, Note_on_c, 4, 64, 0
10, 43680, Note_on_c, 4, 54, 52
10, 43680, Note_on_c, 4, 62, 52
10, 43859, Note_on_c, 4, 54, 0
10, 43859, Note_on_c, 4, 62, 0
10, 44640, Note_on_c, 4, 50, 76
10, 44640, Note_on_c, 4, 62, 76
10, 45359, Note_on_c, 4, 50, 0
10, 45359, Note_on_c, 4, 62, 0
10, 46080, Note_on_c, 4, 62, 76
10, 46080, Note_on_c, 4, 50, 76
10, 46799, Note_on_c, 4, 62, 0
10, 46799, Note_on_c, 4, 50, 0
10, 55440, Control_c, 4, 11, 80
10, 56160, Note_on_c, 4, 50, 76
10, 56160, Note_on_c, 4, 62, 76
10, 56160, Control_c, 4, 11, 80
10, 56280, Control_c, 4, 11, 84
10, 56400, Control_c, 4, 11, 88
10, 56520, Control_c, 4, 11, 92
10, 56640, Control_c, 4, 11, 96
10, 56760, Control_c, 4, 11, 100
10, 56880, Control_c, 4, 11, 104
10, 57000, Control_c, 4, 11, 107
10, 57120, Control_c, 4, 11, 111
10, 57240, Control_c, 4, 11, 115
10, 57360, Control_c, 4, 11, 119
10, 57480, Control_c, 4, 11, 123
10, 57569, Note_on_c, 4, 50, 0
10, 57569, Note_on_c, 4, 62, 0
10, 57600, Note_on_c, 4, 57, 76
10, 57600, Note_on_c, 4, 45, 76
10, 57600, Control_c, 4, 11, 127
10, 58289, Note_on_c, 4, 57, 0
10, 58289, Note_on_c, 4, 45, 0
10, 58320, Note_on_c, 4, 62, 76
10, 58320, Note_on_c, 4, 50, 76
10, 58559, Note_on_c, 4, 62, 0
10, 58559, Note_on_c, 4, 50, 0
10, 61200, Control_c, 4, 11, 80
10, 61920, Note_on_c, 4, 62, 76
10, 61920, Control_c, 4, 11, 80
10, 61920, Note_on_c, 4, 50, 76
10, 62040, Control_c, 4, 11, 84
10, 62160, Control_c, 4, 11, 88
10, 62280, Control_c, 4, 11, 92
10, 62400, Control_c, 4, 11, 96
10, 62520, Control_c, 4, 11, 100
10, 62640, Control_c, 4, 11, 104
10, 62760, Control_c, 4, 11, 107
10, 62880, Control_c, 4, 11, 111
10, 63000, Control_c, 4, 11, 115
10, 63120, Control_c, 4, 11, 119
10, 63240, Control_c, 4, 11, 123
10, 63329, Note_on_c, 4, 62, 0
10, 63329, Note_on_c, 4, 50, 0
10, 63360, Note_on_c, 4, 45, 76
10, 63360, Note_on_c, 4, 57, 76
10, 63360, Control_c, 4, 11, 127
10, 64049, Note_on_c, 4, 45, 0
10, 64049, Note_on_c, 4, 57, 0
10, 64080, Note_on_c, 4, 62, 76
10, 64080, Note_on_c, 4, 50, 76
10, 64319, Note_on_c, 4, 62, 0
10, 64319, Note_on_c, 4, 50, 0
10, 64560, Control_c, 4, 11, 80
10, 64800, Note_on_c, 4, 62, 76
10, 64800, Note_on_c, 4, 50, 76
10, 64800, Control_c, 4, 11, 80
10, 64920, Control_c, 4, 11, 84
10, 65040, Control_c, 4, 11, 88
10, 65160, Control_c, 4, 11, 92
10, 65280, Control_c, 4, 11, 96
10, 65400, Control_c, 4, 11, 100
10, 65520, Control_c, 4, 11, 104
10, 65640, Control_c, 4, 11, 107
10, 65760, Control_c, 4, 11, 111
10, 65880, Control_c, 4, 11, 115
10, 66000, Control_c, 4, 11, 119
10, 66120, Control_c, 4, 11, 123
10, 66209, Note_on_c, 4, 62, 0
10, 66209, Note_on_c, 4, 50, 0
10, 66240, Note_on_c, 4, 45, 84
10, 66240, Control_c, 4, 11, 127
10, 66240, Note_on_c, 4, 57, 84
10, 66929, Note_on_c, 4, 45, 0
10, 66929, Note_on_c, 4, 57, 0
10, 66960, Note_on_c, 4, 62, 76
10, 66960, Note_on_c, 4, 50, 76
10, 67139, Note_on_c, 4, 62, 0
10, 67139, Note_on_c, 4, 50, 0
10, 67200, Note_on_c, 4, 54, 76
10, 67200, Note_on_c, 4, 66, 76
10, 67379, Note_on_c, 4, 54, 0
10, 67379, Note_on_c, 4, 66, 0
10, 67440, Note_on_c, 4, 50, 76
10, 67440, Note_on_c, 4, 62, 76
10, 67619, Note_on_c, 4, 50, 0
10, 67619, Note_on_c, 4, 62, 0
10, 67680, Note_on_c, 4, 45, 84
10, 67680, Note_on_c, 4, 57, 84
10, 68369, Note_on_c, 4, 45, 0
10, 68369, Note_on_c, 4, 57, 0
10, 68400, Note_on_c, 4, 62, 76
10, 68400, Note_on_c, 4, 50, 76
10, 68579, Note_on_c, 4, 62, 0
10, 68579, Note_on_c, 4, 50, 0
10, 68640, Note_on_c, 4, 54, 76
10, 68640, Note_on_c, 4, 66, 76
10, 68819, Note_on_c, 4, 54, 0
10, 68819, Note_on_c, 4, 66, 0
10, 68880, Note_on_c, 4, 62, 76
10, 68880, Note_on_c, 4, 50, 76
10, 69059, Note_on_c, 4, 62, 0
10, 69059, Note_on_c, 4, 50, 0
10, 69120, Note_on_c, 4, 45, 84
10, 69120, Note_on_c, 4, 57, 84
10, 70049, Note_on_c, 4, 45, 0
10, 70049, Note_on_c, 4, 57, 0
10, 70080, Note_on_c, 4, 64, 84
10, 70080, Note_on_c, 4, 57, 84
10, 70259, Note_on_c, 4, 64, 0
10, 70259, Note_on_c, 4, 57, 0
10, 70320, Note_on_c, 4, 57, 84
10, 70320, Note_on_c, 4, 64, 84
10, 70499, Note_on_c, 4, 57, 0
10, 70499, Note_on_c, 4, 64, 0
10, 70560, Note_on_c, 4, 54, 84
10, 70560, Note_on_c, 4, 62, 84
10, 70739, Note_on_c, 4, 54, 0
10, 70739, Note_on_c, 4, 62, 0
10, 71040, Note_on_c, 4, 64, 84
10, 71040, Note_on_c, 4, 57, 84
10, 71219, Note_on_c, 4, 64, 0
10, 71219, Note_on_c, 4, 57, 0
10, 71280, Note_on_c, 4, 54, 84
10, 71280, Note_on_c, 4, 62, 84
10, 71459, Note_on_c, 4, 54, 0
10, 71459, Note_on_c, 4, 62, 0
10, 87840, Note_on_c, 4, 62, 76
10, 87840, Note_on_c, 4, 50, 76
10, 88559, Note_on_c, 4, 62, 0
10, 88559, Note_on_c, 4, 50, 0
10, 89280, Note_on_c, 4, 62, 76
10, 89280, Note_on_c, 4, 50, 76
10, 89999, Note_on_c, 4, 62, 0
10, 89999, Note_on_c, 4, 50, 0
10, 90720, Note_on_c, 4, 64, 52
10, 90720, Note_on_c, 4, 57, 52
10, 90899, Note_on_c, 4, 64, 0
10, 90899, Note_on_c, 4, 57, 0
10, 90960, Note_on_c, 4, 66, 52
10, 90960, Note_on_c, 4, 62, 52
10, 91139, Note_on_c, 4, 66, 0
10, 91139, Note_on_c, 4, 62, 0
10, 91200, Note_on_c, 4, 64, 52
10, 91200, Note_on_c, 4, 67, 52
10, 91379, Note_on_c, 4, 64, 0
10, 91379, Note_on_c, 4, 67, 0
10, 92160, Note_on_c, 4, 62, 52
10, 92160, Note_on_c, 4, 66, 52
10, 92339, Note_on_c, 4, 62, 0
10, 92339, Note_on_c, 4, 66, 0
10, 92400, Note_on_c, 4, 57, 52
10, 92400, Note_on_c, 4, 64, 52
10, 92579, Note_on_c, 4, 57, 0
10, 92579, Note_on_c, 4, 64, 0
10, 92640, Note_on_c, 4, 54, 52
10, 92640, Note_on_c, 4, 62, 52
10, 92819, Note_on_c, 4, 54, 0
10, 92819, Note_on_c, 4, 62, 0
10, 93600, Note_on_c, 4, 62, 76
10, 93600, Note_on_c, 4, 50, 76
10, 94319, Note_on_c, 4, 62, 0
10, 94319, Note_on_c, 4, 50, 0
10, 95040, Note_on_c, 4, 50, 76
10, 95040, Note_on_c, 4, 62, 76
10, 95759, Note_on_c, 4, 50, 0
10, 95759, Note_on_c, 4, 62, 0
10, 104400, Control_c, 4, 11, 80
10, 105120, Note_on_c, 4, 62, 76
10, 105120, Control_c, 4, 11, 80
10, 105120, Note_on_c, 4, 50, 76
10, 105240, Control_c, 4, 11, 84
10, 105360, Control_c, 4, 11, 88
10, 105480, Control_c, 4, 11, 92
10, 105600, Control_c, 4, 11, 96
10, 105720, Control_c, 4, 11, 100
10, 105840, Control_c, 4, 11, 104
10, 105960, Control_c, 4, 11, 107
10, 106080, Control_c, 4, 11, 111
10, 106200, Control_c, 4, 11, 115
10, 106320, Control_c, 4, 11, 119
10, 106440, Control_c, 4, 11, 123
10, 106529, Note_on_c, 4, 62, 0
10, 106529, Note_on_c, 4, 50, 0
10, 106560, Note_on_c, 4, 57, 76
10, 106560, Control_c, 4, 11, 127
10, 106560, Note_on_c, 4, 45, 76
10, 107249, Note_on_c, 4, 57, 0
10, 107249, Note_on_c, 4, 45, 0
10, 107280, Note_on_c, 4, 62, 76
10, 107280, Note_on_c, 4, 50, 76
10, 107519, Note_on_c, 4, 62, 0
10, 107519, Note_on_c, 4, 50, 0
10, 110160, Control_c, 4, 11, 80
10, 110880, Note_on_c, 4, 62, 76
10, 110880, Control_c, 4, 11, 80
10, 110880, Note_on_c, 4, 50, 76
10, 111000, Control_c, 4, 11, 84
10, 111120, Control_c, 4, 11, 88
10, 111240, Control_c, 4, 11, 92
10, 111360, Control_c, 4, 11, 96
10, 111480, Control_c, 4, 11, 100
10, 111600, Control_c, 4, 11, 104
10, 111720, Control_c, 4, 11, 107
10, 111840, Control_c, 4, 11, 111
10, 111960, Control_c, 4, 11, 115
10, 112080, Control_c, 4, 11, 119
10, 112200, Control_c, 4, 11, 123
10, 112289, Note_on_c, 4, 62, 0
10, 112289, Note_on_c, 4, 50, 0
10, 112320, Note_on_c, 4, 45, 76
10, 112320, Control_c, 4, 11, 127
10, 112320, Note_on_c, 4, 57, 76
10, 113009, Note_on_c, 4, 45, 0
10, 113009, Note_on_c, 4, 57, 0
10, 113040, Note_on_c, 4, 50, 76
10, 113040, Note_on_c, 4, 62, 76
10, 113279, Note_on_c, 4, 50, 0
10, 113279, Note_on_c, 4, 62, 0
10, 113520, Control_c, 4, 11, 80
10, 113760, Note_on_c, 4, 50, 76
10, 113760, Control_c, 4, 11, 80
10, 113760, Note_on_c, 4, 62, 76
10, 113880, Control_c, 4, 11, 84
10, 114000, Control_c, 4, 11, 88
10, 114120, Control_c, 4, 11, 92
10, 114240, Control_c, 4, 11, 96
10, 114360, Control_c, 4, 11, 100
10, 114480, Control_c, 4, 11, 104
10, 114600, Control_c, 4, 11, 107
10, 114720, Control_c, 4, 11, 111
10, 114840, Control_c, 4, 11, 115
10, 114960, Control_c, 4, 11, 119
10, 115080, Control_c, 4, 11, 123
10, 115169, Note_on_c, 4, 50, 0
10, 115169, Note_on_c, 4, 62, 0
10, 115200, Control_c, 4, 11, 127
10, 115200, Note_on_c, 4, 57, 84
10, 115200, Note_on_c, 4, 45, 84
10, 115889, Note_on_c, 4, 57, 0
10, 115889, Note_on_c, 4, 45, 0
10, 115920, Note_on_c, 4, 62, 76
10, 115920, Note_on_c, 4, 50, 76
10, 116099, Note_on_c, 4, 62, 0
10, 116099, Note_on_c, 4, 50, 0
10, 116160, Note_on_c, 4, 66, 76
10, 116160, Note_on_c, 4, 54, 76
10, 116339, Note_on_c, 4, 66, 0
10, 116339, Note_on_c, 4, 54, 0
10, 116400, Note_on_c, 4, 50, 76
10, 116400, Note_on_c, 4, 62, 76
10, 116579, Note_on_c, 4, 50, 0
10, 116579, Note_on_c, 4, 62, 0
10, 116640, Note_on_c, 4, 45, 84
10, 116640, Note_on_c, 4, 57, 84
10, 117329, Note_on_c, 4, 45, 0
10, 117329, Note_on_c, 4, 57, 0
10, 117360, Note_on_c, 4, 50, 76
10, 117360, Note_on_c, 4, 62, 76
10, 117539, Note_on_c, 4, 50, 0
10, 117539, Note_on_c, 4, 62, 0
10, 117600, Note_on_c, 4, 54, 76
10, 117600, Note_on_c, 4, 66, 76
10, 117779, Note_on_c, 4, 54, 0
10, 117779, Note_on_c, 4, 66, 0
10, 117840, Note_on_c, 4, 62, 76
10, 117840, Note_on_c, 4, 50, 76
10, 118019, Note_on_c, 4, 62, 0
10, 118019, Note_on_c, 4, 50, 0
10, 118080, Note_on_c, 4, 57, 84
10, 118080, Note_on_c, 4, 45, 84
10, 119009, Note_on_c, 4, 57, 0
10, 119009, Note_on_c, 4, 45, 0
10, 119040, Note_on_c, 4, 64, 84
10, 119040, Note_on_c, 4, 57, 84
10, 119219, Note_on_c, 4, 64, 0
10, 119219, Note_on_c, 4, 57, 0
10, 119280, Note_on_c, 4, 57, 84
10, 119280, Note_on_c, 4, 64, 84
10, 119459, Note_on_c, 4, 57, 0
10, 119459, Note_on_c, 4, 64, 0
10, 119520, Note_on_c, 4, 62, 84
10, 119520, Note_on_c, 4, 54, 84
10, 119699, Note_on_c, 4, 62, 0
10, 119699, Note_on_c, 4, 54, 0
10, 120000, Note_on_c, 4, 57, 84
10, 120000, Note_on_c, 4, 64, 84
10, 120179, Note_on_c, 4, 57, 0
10, 120179, Note_on_c, 4, 64, 0
10, 120240, Note_on_c, 4, 62, 84
10, 120240, Note_on_c, 4, 54, 84
10, 120419, Note_on_c, 4, 62, 0
10, 120419, Note_on_c, 4, 54, 0
10, 124560, Note_on_c, 4, 64, 84
10, 124560, Note_on_c, 4, 57, 84
10, 124680, Control_c, 4, 11, 119
10, 124800, Control_c, 4, 11, 111
10, 124920, Control_c, 4, 11, 104
10, 125040, Control_c, 4, 11, 96
10, 125160, Control_c, 4, 11, 88
10, 125249, Note_on_c, 4, 64, 0
10, 125249, Note_on_c, 4, 57, 0
10, 125250, Control_c, 4, 11, 80
10, 125280, Note_on_c, 4, 66, 76
10, 125280, Note_on_c, 4, 62, 76
10, 125519, Note_on_c, 4, 66, 0
10, 125519, Note_on_c, 4, 62, 0
10, 125520, Note_on_c, 4, 64, 76
10, 125520, Note_on_c, 4, 67, 76
10, 125729, Note_on_c, 4, 64, 0
10, 125729, Note_on_c, 4, 67, 0
10, 125760, Note_on_c, 4, 64, 76
10, 125760, Note_on_c, 4, 57, 76
10, 125939, Note_on_c, 4, 64, 0
10, 125939, Note_on_c, 4, 57, 0
10, 126000, Note_on_c, 4, 54, 76
10, 126000, Note_on_c, 4, 62, 76
10, 126239, Note_on_c, 4, 54, 0
10, 126239, Note_on_c, 4, 62, 0
10, 126360, Control_c, 4, 11, 127
10, 130320, Note_on_c, 4, 57, 84
10, 130320, Note_on_c, 4, 64, 84
10, 130440, Control_c, 4, 11, 119
10, 130560, Control_c, 4, 11, 111
10, 130680, Control_c, 4, 11, 104
10, 130800, Control_c, 4, 11, 96
10, 130920, Control_c, 4, 11, 88
10, 131009, Note_on_c, 4, 57, 0
10, 131009, Note_on_c, 4, 64, 0
10, 131010, Control_c, 4, 11, 80
10, 131040, Note_on_c, 4, 66, 76
10, 131040, Note_on_c, 4, 62, 76
10, 131279, Note_on_c, 4, 66, 0
10, 131279, Note_on_c, 4, 62, 0
10, 131280, Note_on_c, 4, 64, 76
10, 131280, Note_on_c, 4, 67, 76
10, 131489, Note_on_c, 4, 64, 0
10, 131489, Note_on_c, 4, 67, 0
10, 131520, Note_on_c, 4, 57, 76
10, 131520, Note_on_c, 4, 64, 76
10, 131699, Note_on_c, 4, 57, 0
10, 131699, Note_on_c, 4, 64, 0
10, 131760, Note_on_c, 4, 54, 76
10, 131760, Note_on_c, 4, 62, 76
10, 131999, Note_on_c, 4, 54, 0
10, 131999, Note_on_c, 4, 62, 0
10, 132120, Control_c, 4, 11, 127
10, 142560, Note_on_c, 4, 69, 84
10, 142560, Note_on_c, 4, 57, 84
10, 143969, Note_on_c, 4, 69, 0
10, 143969, Note_on_c, 4, 57, 0
10, 144000, Note_on_c, 4, 62, 52
10, 144000, Note_on_c, 4, 66, 52
10, 144239, Note_on_c, 4, 62, 0
10, 144239, Note_on_c, 4, 66, 0
10, 145440, Note_on_c, 4, 57, 52
10, 145440, Note_on_c, 4, 69, 52
10, 145649, Note_on_c, 4, 57, 0
10, 145649, Note_on_c, 4, 69, 0
10, 145680, Note_on_c, 4, 69, 52
10, 145680, Note_on_c, 4, 57, 52
10, 145889, Note_on_c, 4, 69, 0
10, 145889, Note_on_c, 4, 57, 0
10, 145920, Note_on_c, 4, 57, 52
10, 145920, Note_on_c, 4, 69, 52
10, 146129, Note_on_c, 4, 57, 0
10, 146129, Note_on_c, 4, 69, 0
10, 146160, Note_on_c, 4, 57, 52
10, 146160, Note_on_c, 4, 69, 52
10, 146399, Note_on_c, 4, 57, 0
10, 146399, Note_on_c, 4, 69, 0
10, 147600, Note_on_c, 4, 57, 84
10, 147600, Note_on_c, 4, 64, 84
10, 147660, Control_c, 4, 11, 123
10, 147720, Control_c, 4, 11, 119
10, 147780, Control_c, 4, 11, 115
10, 147840, Control_c, 4, 11, 111
10, 147900, Control_c, 4, 11, 107
10, 147960, Control_c, 4, 11, 104
10, 148020, Control_c, 4, 11, 100
10, 148080, Control_c, 4, 11, 96
10, 148140, Control_c, 4, 11, 92
10, 148200, Control_c, 4, 11, 88
10, 148260, Control_c, 4, 11, 84
10, 148289, Note_on_c, 4, 57, 0
10, 148289, Note_on_c, 4, 64, 0
10, 148320, Note_on_c, 4, 66, 76
10, 148320, Control_c, 4, 11, 80
10, 148320, Note_on_c, 4, 62, 76
10, 148559, Note_on_c, 4, 66, 0
10, 148559, Note_on_c, 4, 62, 0
10, 148560, Note_on_c, 4, 64, 76
10, 148560, Note_on_c, 4, 67, 76
10, 148769, Note_on_c, 4, 64, 0
10, 148769, Note_on_c, 4, 67, 0
10, 148800, Note_on_c, 4, 64, 76
10, 148800, Note_on_c, 4, 57, 76
10, 148979, Note_on_c, 4, 64, 0
10, 148979, Note_on_c, 4, 57, 0
10, 149040, Note_on_c, 4, 62, 76
10, 149040, Note_on_c, 4, 54, 76
10, 149279, Note_on_c, 4, 62, 0
10, 149279, Note_on_c, 4, 54, 0
10, 149520, Control_c, 4, 11, 127
10, 149760, Note_on_c, 4, 50, 52
10, 149760, Note_on_c, 4, 66, 52
10, 150479, Note_on_c, 4, 66, 0
10, 150480, Note_on_c, 4, 67, 52
10, 151169, Note_on_c, 4, 50, 0
10, 151169, Note_on_c, 4, 67, 0
10, 151200, Note_on_c, 4, 50, 52
10, 151200, Note_on_c, 4, 69, 52
10, 151439, Note_on_c, 4, 50, 0
10, 151439, Note_on_c, 4, 69, 0
10, 151440, Note_on_c, 4, 67, 52
10, 151440, Note_on_c, 4, 49, 52
10, 151649, Note_on_c, 4, 67, 0
10, 151649, Note_on_c, 4, 49, 0
10, 151680, Note_on_c, 4, 66, 52
10, 151680, Note_on_c, 4, 50, 52
10, 151859, Note_on_c, 4, 66, 0
10, 151859, Note_on_c, 4, 50, 0
10, 151920, Note_on_c, 4, 45, 52
10, 151920, Note_on_c, 4, 64, 52
10, 152159, Note_on_c, 4, 45, 0
10, 152159, Note_on_c, 4, 64, 0
10, 152280, Control_c, 4, 11, 80
10, 152400, Note_on_c, 4, 66, 76
10, 152609, Note_on_c, 4, 66, 0
10, 152640, Note_on_c, 4, 67, 76
10, 152640, Control_c, 4, 11, 80
10, 152700, Control_c, 4, 11, 84
10, 152760, Control_c, 4, 11, 88
10, 152820, Control_c, 4, 11, 92
10, 152880, Control_c, 4, 11, 96
10, 152940, Control_c, 4, 11, 100
10, 153000, Control_c, 4, 11, 104
10, 153060, Control_c, 4, 11, 107
10, 153120, Control_c, 4, 11, 111
10, 153180, Control_c, 4, 11, 115
10, 153240, Control_c, 4, 11, 119
10, 153300, Control_c, 4, 11, 127
10, 153359, Note_on_c, 4, 67, 0
10, 153360, Note_on_c, 4, 69, 84
10, 153360, Note_on_c, 4, 57, 84
10, 154049, Note_on_c, 4, 69, 0
10, 154049, Note_on_c, 4, 57, 0
10, 154080, Note_on_c, 4, 66, 52
10, 154080, Note_on_c, 4, 62, 52
10, 154319, Note_on_c, 4, 66, 0
10, 154319, Note_on_c, 4, 62, 0
10, 154320, Note_on_c, 4, 67, 52
10, 154320, Note_on_c, 4, 64, 52
10, 154529, Note_on_c, 4, 67, 0
10, 154529, Note_on_c, 4, 64, 0
10, 154560, Note_on_c, 4, 57, 52
10, 154560, Note_on_c, 4, 64, 52
10, 154739, Note_on_c, 4, 57, 0
10, 154739, Note_on_c, 4, 64, 0
10, 154800, Note_on_c, 4, 54, 52
10, 154800, Note_on_c, 4, 62, 52
10, 155039, Note_on_c, 4, 54, 0
10, 155039, Note_on_c, 4, 62, 0
10, 155280, Note_on_c, 4, 57, 52
10, 155280, Note_on_c, 4, 64, 52
10, 155459, Note_on_c, 4, 57, 0
10, 155459, Note_on_c, 4, 64, 0
10, 155520, Note_on_c, 4, 66, 52
10, 155520, Note_on_c, 4, 62, 52
10, 155759, Note_on_c, 4, 66, 0
10, 155759, Note_on_c, 4, 62, 0
10, 155760, Note_on_c, 4, 67, 52
10, 155760, Note_on_c, 4, 64, 52
10, 155969, Note_on_c, 4, 67, 0
10, 155969, Note_on_c, 4, 64, 0
10, 156000, Note_on_c, 4, 64, 52
10, 156000, Note_on_c, 4, 57, 52
10, 156179, Note_on_c, 4, 64, 0
10, 156179, Note_on_c, 4, 57, 0
10, 156225, Control_c, 4, 11, 80
10, 156240, Note_on_c, 4, 62, 76
10, 156240, Note_on_c, 4, 54, 76
10, 156400, Control_c, 4, 11, 84
10, 156419, Note_on_c, 4, 62, 0
10, 156419, Note_on_c, 4, 54, 0
10, 156560, Control_c, 4, 11, 88
10, 156720, Note_on_c, 4, 64, 76
10, 156720, Control_c, 4, 11, 92
10, 156720, Note_on_c, 4, 57, 76
10, 156880, Control_c, 4, 11, 96
10, 156899, Note_on_c, 4, 64, 0
10, 156899, Note_on_c, 4, 57, 0
10, 156960, Note_on_c, 4, 62, 76
10, 156960, Note_on_c, 4, 66, 76
10, 157040, Control_c, 4, 11, 100
10, 157199, Note_on_c, 4, 62, 0
10, 157199, Note_on_c, 4, 66, 0
10, 157200, Note_on_c, 4, 67, 76
10, 157200, Note_on_c, 4, 64, 76
10, 157200, Control_c, 4, 11, 104
10, 157360, Control_c, 4, 11, 107
10, 157409, Note_on_c, 4, 67, 0
10, 157409, Note_on_c, 4, 64, 0
10, 157440, Note_on_c, 4, 57, 76
10, 157440, Note_on_c, 4, 64, 76
10, 157520, Control_c, 4, 11, 111
10, 157619, Note_on_c, 4, 57, 0
10, 157619, Note_on_c, 4, 64, 0
10, 157680, Note_on_c, 4, 62, 76
10, 157680, Note_on_c, 4, 66, 76
10, 157680, Control_c, 4, 11, 115
10, 157840, Control_c, 4, 11, 119
10, 157919, Note_on_c, 4, 62, 0
10, 157919, Note_on_c, 4, 66, 0
10, 157920, Note_on_c, 4, 67, 76
10, 157920, Note_on_c, 4, 64, 76
10, 158000, Control_c, 4, 11, 123
10, 158129, Note_on_c, 4, 67, 0
10, 158129, Note_on_c, 4, 64, 0
10, 158160, Note_on_c, 4, 57, 52
10, 158160, Control_c, 4, 11, 127
10, 158160, Note_on_c, 4, 64, 52
10, 158339, Note_on_c, 4, 57, 0
10, 158339, Note_on_c, 4, 64, 0
10, 158400, Note_on_c, 4, 66, 52
10, 158400, Note_on_c, 4, 62, 52
10, 158639, Note_on_c, 4, 66, 0
10, 158639, Note_on_c, 4, 62, 0
10, 158640, Note_on_c, 4, 67, 52
10, 158640, Note_on_c, 4, 64, 52
10, 158849, Note_on_c, 4, 67, 0
10, 158849, Note_on_c, 4, 64, 0
10, 158880, Note_on_c, 4, 57, 52
10, 158880, Note_on_c, 4, 64, 52
10, 159059, Note_on_c, 4, 57, 0
10, 159059, Note_on_c, 4, 64, 0
10, 159120, Note_on_c, 4, 62, 52
10, 159120, Note_on_c, 4, 54, 52
10, 159359, Note_on_c, 4, 62, 0
10, 159359, Note_on_c, 4, 54, 0
10, 169920, Note_on_c, 4, 69, 84
10, 169920, Note_on_c, 4, 57, 84
10, 171329, Note_on_c, 4, 69, 0
10, 171329, Note_on_c, 4, 57, 0
10, 171360, Note_on_c, 4, 66, 52
10, 171360, Note_on_c, 4, 62, 52
10, 171599, Note_on_c, 4, 66, 0
10, 171599, Note_on_c, 4, 62, 0
10, 172800, Note_on_c, 4, 69, 52
10, 172800, Note_on_c, 4, 57, 52
10, 173009, Note_on_c, 4, 69, 0
10, 173009, Note_on_c, 4, 57, 0
10, 173040, Note_on_c, 4, 69, 52
10, 173040, Note_on_c, 4, 57, 52
10, 173249, Note_on_c, 4, 69, 0
10, 173249, Note_on_c, 4, 57, 0
10, 173280, Note_on_c, 4, 69, 52
10, 173280, Note_on_c, 4, 57, 52
10, 173489, Note_on_c, 4, 69, 0
10, 173489, Note_on_c, 4, 57, 0
10, 173520, Note_on_c, 4, 69, 52
10, 173520, Note_on_c, 4, 57, 52
10, 173759, Note_on_c, 4, 69, 0
10, 173759, Note_on_c, 4, 57, 0
10, 174960, Note_on_c, 4, 64, 84
10, 174960, Note_on_c, 4, 57, 84
10, 175020, Control_c, 4, 11, 123
10, 175080, Control_c, 4, 11, 119
10, 175140, Control_c, 4, 11, 115
10, 175200, Control_c, 4, 11, 111
10, 175260, Control_c, 4, 11, 107
10, 175320, Control_c, 4, 11, 104
10, 175380, Control_c, 4, 11, 100
10, 175440, Control_c, 4, 11, 96
10, 175500, Control_c, 4, 11, 92
10, 175560, Control_c, 4, 11, 88
10, 175620, Control_c, 4, 11, 84
10, 175649, Note_on_c, 4, 64, 0
10, 175649, Note_on_c, 4, 57, 0
10, 175680, Note_on_c, 4, 62, 76
10, 175680, Control_c, 4, 11, 80
10, 175680, Note_on_c, 4, 66, 76
10, 175919, Note_on_c, 4, 62, 0
10, 175919, Note_on_c, 4, 66, 0
10, 175920, Note_on_c, 4, 67, 76
10, 175920, Note_on_c, 4, 64, 76
10, 176129, Note_on_c, 4, 67, 0
10, 176129, Note_on_c, 4, 64, 0
10, 176160, Note_on_c, 4, 64, 76
10, 176160, Note_on_c, 4, 57, 76
10, 176339, Note_on_c, 4, 64, 0
10, 176339, Note_on_c, 4, 57, 0
10, 176400, Note_on_c, 4, 54, 76
10, 176400, Note_on_c, 4, 62, 76
10, 176639, Note_on_c, 4, 54, 0
10, 176639, Note_on_c, 4, 62, 0
10, 176880, Control_c, 4, 11, 127
10, 177120, Note_on_c, 4, 66, 52
10, 177120, Note_on_c, 4, 50, 52
10, 177839, Note_on_c, 4, 66, 0
10, 177840, Note_on_c, 4, 67, 52
10, 178529, Note_on_c, 4, 50, 0
10, 178529, Note_on_c, 4, 67, 0
10, 178560, Note_on_c, 4, 50, 52
10, 178560, Note_on_c, 4, 69, 52
10, 178799, Note_on_c, 4, 50, 0
10, 178799, Note_on_c, 4, 69, 0
10, 178800, Note_on_c, 4, 49, 52
10, 178800, Note_on_c, 4, 67, 52
10, 179009, Note_on_c, 4, 49, 0
10, 179009, Note_on_c, 4, 67, 0
10, 179040, Note_on_c, 4, 50, 52
10, 179040, Note_on_c, 4, 66, 52
10, 179219, Note_on_c, 4, 50, 0
10, 179219, Note_on_c, 4, 66, 0
10, 179280, Note_on_c, 4, 45, 52
10, 179280, Note_on_c, 4, 64, 52
10, 179519, Note_on_c, 4, 45, 0
10, 179519, Note_on_c, 4, 64, 0
10, 179640, Control_c, 4, 11, 80
10, 179760, Note_on_c, 4, 66, 76
10, 179969, Note_on_c, 4, 66, 0
10, 180000, Note_on_c, 4, 67, 76
10, 180000, Control_c, 4, 11, 80
10, 180060, Control_c, 4, 11, 84
10, 180120, Control_c, 4, 11, 88
10, 180180, Control_c, 4, 11, 92
10, 180240, Control_c, 4, 11, 96
10, 180300, Control_c, 4, 11, 100
10, 180360, Control_c, 4, 11, 104
10, 180420, Control_c, 4, 11, 107
10, 180480, Control_c, 4, 11, 111
10, 180540, Control_c, 4, 11, 115
10, 180600, Control_c, 4, 11, 119
10, 180660, Control_c, 4, 11, 127
10, 180719, Note_on_c, 4, 67, 0
10, 180720, Note_on_c, 4, 57, 84
10, 180720, Note_on_c, 4, 69, 84
10, 181409, Note_on_c, 4, 57, 0
10, 181409, Note_on_c, 4, 69, 0
10, 181440, Note_on_c, 4, 62, 52
10, 181440, Note_on_c, 4, 66, 52
10, 181679, Note_on_c, 4, 62, 0
10, 181679, Note_on_c, 4, 66, 0
10, 181680, Note_on_c, 4, 64, 52
10, 181680, Note_on_c, 4, 67, 52
10, 181889, Note_on_c, 4, 64, 0
10, 181889, Note_on_c, 4, 67, 0
10, 181920, Note_on_c, 4, 57, 52
10, 181920, Note_on_c, 4, 64, 52
10, 182099, Note_on_c, 4, 57, 0
10, 182099, Note_on_c, 4, 64, 0
10, 182160, Note_on_c, 4, 62, 52
10, 182160, Note_on_c, 4, 54, 52
10, 182399, Note_on_c, 4, 62, 0
10, 182399, Note_on_c, 4, 54, 0
10, 182640, Note_on_c, 4, 64, 52
10, 182640, Note_on_c, 4, 57, 52
10, 182819, Note_on_c, 4, 64, 0
10, 182819, Note_on_c, 4, 57, 0
10, 182880, Note_on_c, 4, 62, 52
10, 182880, Note_on_c, 4, 66, 52
10, 183119, Note_on_c, 4, 62, 0
10, 183119, Note_on_c, 4, 66, 0
10, 183120, Note_on_c, 4, 64, 52
10, 183120, Note_on_c, 4, 67, 52
10, 183329, Note_on_c, 4, 64, 0
10, 183329, Note_on_c, 4, 67, 0
10, 183360, Note_on_c, 4, 57, 52
10, 183360, Note_on_c, 4, 64, 52
10, 183539, Note_on_c, 4, 57, 0
10, 183539, Note_on_c, 4, 64, 0
10, 183585, Control_c, 4, 11, 80
10, 183600, Note_on_c, 4, 54, 76
10, 183600, Note_on_c, 4, 62, 76
10, 183760, Control_c, 4, 11, 84
10, 183779, Note_on_c, 4, 54, 0
10, 183779, Note_on_c, 4, 62, 0
10, 183920, Control_c, 4, 11, 88
10, 184080, Note_on_c, 4, 57, 76
10, 184080, Note_on_c, 4, 64, 76
10, 184080, Control_c, 4, 11, 92
10, 184240, Control_c, 4, 11, 96
10, 184259, Note_on_c, 4, 57, 0
10, 184259, Note_on_c, 4, 64, 0
10, 184320, Note_on_c, 4, 66, 76
10, 184320, Note_on_c, 4, 62, 76
10, 184400, Control_c, 4, 11, 100
10, 184559, Note_on_c, 4, 66, 0
10, 184559, Note_on_c, 4, 62, 0
10, 184560, Note_on_c, 4, 64, 76
10, 184560, Note_on_c, 4, 67, 76
10, 184560, Control_c, 4, 11, 104
10, 184720, Control_c, 4, 11, 107
10, 184769, Note_on_c, 4, 64, 0
10, 184769, Note_on_c, 4, 67, 0
10, 184800, Note_on_c, 4, 57, 76
10, 184800, Note_on_c, 4, 64, 76
10, 184880, Control_c, 4, 11, 111
10, 184979, Note_on_c, 4, 57, 0
10, 184979, Note_on_c, 4, 64, 0
10, 185040, Note_on_c, 4, 62, 76
10, 185040, Note_on_c, 4, 66, 76
10, 185040, Control_c, 4, 11, 115
10, 185200, Control_c, 4, 11, 119
10, 185279, Note_on_c, 4, 62, 0
10, 185279, Note_on_c, 4, 66, 0
10, 185280, Note_on_c, 4, 64, 76
10, 185280, Note_on_c, 4, 67, 76
10, 185360, Control_c, 4, 11, 123
10, 185489, Note_on_c, 4, 64, 0
10, 185489, Note_on_c, 4, 67, 0
10, 185520, Control_c, 4, 11, 127
10, 185520, Note_on_c, 4, 57, 52
10, 185520, Note_on_c, 4, 64, 52
10, 185699, Note_on_c, 4, 57, 0
10, 185699, Note_on_c, 4, 64, 0
10, 185760, Note_on_c, 4, 62, 52
10, 185760, Note_on_c, 4, 66, 52
10, 185999, Note_on_c, 4, 62, 0
10, 185999, Note_on_c, 4, 66, 0
10, 186000, Note_on_c, 4, 64, 52
10, 186000, Note_on_c, 4, 67, 52
10, 186209, Note_on_c, 4, 64, 0
10, 186209, Note_on_c, 4, 67, 0
10, 186240, Note_on_c, 4, 64, 52
10, 186240, Note_on_c, 4, 57, 52
10, 186419, Note_on_c, 4, 64, 0
10, 186419, Note_on_c, 4, 57, 0
10, 186480, Note_on_c, 4, 54, 52
10, 186480, Note_on_c, 4, 62, 52
10, 186719, Note_on_c, 4, 54, 0
10, 186719, Note_on_c, 4, 62, 0
10, 187200, Note_on_c, 4, 62, 76
10, 187200, Note_on_c, 4, 50, 76
10, 187919, Note_on_c, 4, 62, 0
10, 187919, Note_on_c, 4, 50, 0
10, 188640, Note_on_c, 4, 62, 76
10, 188640, Note_on_c, 4, 50, 76
10, 189359, Note_on_c, 4, 62, 0
10, 189359, Note_on_c, 4, 50, 0
10, 190080, Note_on_c, 4, 64, 52
10, 190080, Note_on_c, 4, 57, 52
10, 190259, Note_on_c, 4, 64, 0
10, 190259, Note_on_c, 4, 57, 0
10, 190320, Note_on_c, 4, 62, 52
10, 190320, Note_on_c, 4, 66, 52
10, 190499, Note_on_c, 4, 62, 0
10, 190499, Note_on_c, 4, 66, 0
10, 190560, Note_on_c, 4, 64, 52
10, 190560, Note_on_c, 4, 67, 52
10, 190739, Note_on_c, 4, 64, 0
10, 190739, Note_on_c, 4, 67, 0
10, 191520, Note_on_c, 4, 62, 52
10, 191520, Note_on_c, 4, 66, 52
10, 191699, Note_on_c, 4, 62, 0
10, 191699, Note_on_c, 4, 66, 0
10, 191760, Note_on_c, 4, 64, 52
10, 191760, Note_on_c, 4, 57, 52
10, 191939, Note_on_c, 4, 64, 0
10, 191939, Note_on_c, 4, 57, 0
10, 192000, Note_on_c, 4, 62, 52
10, 192000, Note_on_c, 4, 54, 52
10, 192179, Note_on_c, 4, 62, 0
10, 192179, Note_on_c, 4, 54, 0
10, 192960, Note_on_c, 4, 62, 76
10, 192960, Note_on_c, 4, 50, 76
10, 193679, Note_on_c, 4, 62, 0
10, 193679, Note_on_c, 4, 50, 0
10, 194400, Note_on_c, 4, 62, 76
10, 194400, Note_on_c, 4, 50, 76
10, 195119, Note_on_c, 4, 62, 0
10, 195119, Note_on_c, 4, 50, 0
10, 197280, Note_on_c, 4, 64, 52
10, 197459, Note_on_c, 4, 64, 0
10, 197520, Note_on_c, 4, 64, 52
10, 197699, Note_on_c, 4, 64, 0
10, 197760, Note_on_c, 4, 64, 52
10, 197939, Note_on_c, 4, 64, 0
10, 198000, Note_on_c, 4, 64, 84
10, 198179, Note_on_c, 4, 64, 0
10, 198240, Note_on_c, 4, 64, 84
10, 198419, Note_on_c, 4, 64, 0
10, 198480, Note_on_c, 4, 64, 84
10, 198659, Note_on_c, 4, 64, 0
10, 198720, Note_on_c, 4, 50, 76
10, 198720, Note_on_c, 4, 62, 76
10, 199439, Note_on_c, 4, 50, 0
10, 199439, Note_on_c, 4, 62, 0
10, 200160, Note_on_c, 4, 50, 76
10, 200160, Note_on_c, 4, 62, 76
10, 200879, Note_on_c, 4, 50, 0
10, 200879, Note_on_c, 4, 62, 0
10, 201600, Note_on_c, 4, 57, 52
10, 201600, Note_on_c, 4, 64, 52
10, 201779, Note_on_c, 4, 57, 0
10, 201779, Note_on_c, 4, 64, 0
10, 201840, Note_on_c, 4, 66, 52
10, 201840, Note_on_c, 4, 62, 52
10, 202019, Note_on_c, 4, 66, 0
10, 202019, Note_on_c, 4, 62, 0
10, 202080, Note_on_c, 4, 64, 52
10, 202080, Note_on_c, 4, 67, 52
10, 202259, Note_on_c, 4, 64, 0
10, 202259, Note_on_c, 4, 67, 0
10, 203040, Note_on_c, 4, 66, 52
10, 203040, Note_on_c, 4, 62, 52
10, 203219, Note_on_c, 4, 66, 0
10, 203219, Note_on_c, 4, 62, 0
10, 203280, Note_on_c, 4, 64, 52
10, 203280, Note_on_c, 4, 57, 52
10, 203459, Note_on_c, 4, 64, 0
10, 203459, Note_on_c, 4, 57, 0
10, 203520, Note_on_c, 4, 54, 52
10, 203520, Note_on_c, 4, 62, 52
10, 203699, Note_on_c, 4, 54, 0
10, 203699, Note_on_c, 4, 62, 0
10, 204480, Note_on_c, 4, 62, 76
10, 204480, Note_on_c, 4, 50, 76
10, 205199, Note_on_c, 4, 62, 0
10, 205199, Note_on_c, 4, 50, 0
10, 205920, Note_on_c, 4, 50, 76
10, 205920, Note_on_c, 4, 62, 76
10, 206639, Note_on_c, 4, 50, 0
10, 206639, Note_on_c, 4, 62, 0
10, 208800, Note_on_c, 4, 64, 52
10, 208979, Note_on_c, 4, 64, 0
10, 209040, Note_on_c, 4, 64, 52
10, 209219, Note_on_c, 4, 64, 0
10, 209280, Note_on_c, 4, 64, 52
10, 209459, Note_on_c, 4, 64, 0
10, 209520, Note_on_c, 4, 64, 84
10, 209699, Note_on_c, 4, 64, 0
10, 209760, Note_on_c, 4, 64, 84
10, 209939, Note_on_c, 4, 64, 0
10, 210000, Note_on_c, 4, 64, 84
10, 210179, Note_on_c, 4, 64, 0
10, 226080, Note_on_c, 4, 50, 76
10, 226080, Note_on_c, 4, 62, 76
10, 226799, Note_on_c, 4, 50, 0
10, 226799, Note_on_c, 4, 62, 0
10, 227520, Note_on_c, 4, 62, 76
10, 227520, Note_on_c, 4, 50, 76
10, 228239, Note_on_c, 4, 62, 0
10, 228239, Note_on_c, 4, 50, 0
10, 228960, Note_on_c, 4, 64, 52
10, 228960, Note_on_c, 4, 57, 52
10, 229139, Note_on_c, 4, 64, 0
10, 229139, Note_on_c, 4, 57, 0
10, 229200, Note_on_c, 4, 62, 52
10, 229200, Note_on_c, 4, 66, 52
10, 229379, Note_on_c, 4, 62, 0
10, 229379, Note_on_c, 4, 66, 0
10, 229440, Note_on_c, 4, 64, 52
10, 229440, Note_on_c, 4, 67, 52
10, 229619, Note_on_c, 4, 64, 0
10, 229619, Note_on_c, 4, 67, 0
10, 230400, Note_on_c, 4, 62, 52
10, 230400, Note_on_c, 4, 66, 52
10, 230579, Note_on_c, 4, 62, 0
10, 230579, Note_on_c, 4, 66, 0
10, 230640, Note_on_c, 4, 57, 52
10, 230640, Note_on_c, 4, 64, 52
10, 230819, Note_on_c, 4, 57, 0
10, 230819, Note_on_c, 4, 64, 0
10, 230880, Note_on_c, 4, 54, 52
10, 230880, Note_on_c, 4, 62, 52
10, 231059, Note_on_c, 4, 54, 0
10, 231059, Note_on_c, 4, 62, 0
10, 231840, Note_on_c, 4, 50, 76
10, 231840, Note_on_c, 4, 62, 76
10, 232559, Note_on_c, 4, 50, 0
10, 232559, Note_on_c, 4, 62, 0
10, 233280, Note_on_c, 4, 62, 76
10, 233280, Note_on_c, 4, 50, 76
10, 233999, Note_on_c, 4, 62, 0
10, 233999, Note_on_c, 4, 50, 0
10, 242640, Control_c, 4, 11, 80
10, 243360, Note_on_c, 4, 50, 76
10, 243360, Control_c, 4, 11, 80
10, 243360, Note_on_c, 4, 62, 76
10, 243480, Control_c, 4, 11, 84
10, 243600, Control_c, 4, 11, 88
10, 243720, Control_c, 4, 11, 92
10, 243840, Control_c, 4, 11, 96
10, 243960, Control_c, 4, 11, 100
10, 244080, Control_c, 4, 11, 104
10, 244200, Control_c, 4, 11, 107
10, 244320, Control_c, 4, 11, 111
10, 244440, Control_c, 4, 11, 115
10, 244560, Control_c, 4, 11, 119
10, 244680, Control_c, 4, 11, 123
10, 244769, Note_on_c, 4, 50, 0
10, 244769, Note_on_c, 4, 62, 0
10, 244800, Note_on_c, 4, 57, 76
10, 244800, Control_c, 4, 11, 127
10, 244800, Note_on_c, 4, 45, 76
10, 245489, Note_on_c, 4, 57, 0
10, 245489, Note_on_c, 4, 45, 0
10, 245520, Note_on_c, 4, 50, 76
10, 245520, Note_on_c, 4, 62, 76
10, 245759, Note_on_c, 4, 50, 0
10, 245759, Note_on_c, 4, 62, 0
10, 248400, Control_c, 4, 11, 80
10, 249120, Control_c, 4, 11, 80
10, 249120, Note_on_c, 4, 62, 76
10, 249120, Note_on_c, 4, 50, 76
10, 249240, Control_c, 4, 11, 84
10, 249360, Control_c, 4, 11, 88
10, 249480, Control_c, 4, 11, 92
10, 249600, Control_c, 4, 11, 96
10, 249720, Control_c, 4, 11, 100
10, 249840, Control_c, 4, 11, 104
10, 249960, Control_c, 4, 11, 107
10, 250080, Control_c, 4, 11, 111
10, 250200, Control_c, 4, 11, 115
10, 250320, Control_c, 4, 11, 119
10, 250440, Control_c, 4, 11, 123
10, 250529, Note_on_c, 4, 62, 0
10, 250529, Note_on_c, 4, 50, 0
10, 250560, Note_on_c, 4, 45, 76
10, 250560, Note_on_c, 4, 57, 76
10, 250560, Control_c, 4, 11, 127
10, 251249, Note_on_c, 4, 45, 0
10, 251249, Note_on_c, 4, 57, 0
10, 251280, Note_on_c, 4, 50, 76
10, 251280, Note_on_c, 4, 62, 76
10, 251519, Note_on_c, 4, 50, 0
10, 251519, Note_on_c, 4, 62, 0
10, 251760, Control_c, 4, 11, 80
10, 252000, Control_c, 4, 11, 80
10, 252000, Note_on_c, 4, 62, 76
10, 252000, Note_on_c, 4, 50, 76
10, 252120, Control_c, 4, 11, 84
10, 252240, Control_c, 4, 11, 88
10, 252360, Control_c, 4, 11, 92
10, 252480, Control_c, 4, 11, 96
10, 252600, Control_c, 4, 11, 100
10, 252720, Control_c, 4, 11, 104
10, 252840, Control_c, 4, 11, 107
10, 252960, Control_c, 4, 11, 111
10, 253080, Control_c, 4, 11, 115
10, 253200, Control_c, 4, 11, 119
10, 253320, Control_c, 4, 11, 123
10, 253409, Note_on_c, 4, 62, 0
10, 253409, Note_on_c, 4, 50, 0
10, 253440, Note_on_c, 4, 45, 84
10, 253440, Control_c, 4, 11, 127
10, 253440, Note_on_c, 4, 57, 84
10, 254129, Note_on_c, 4, 45, 0
10, 254129, Note_on_c, 4, 57, 0
10, 254160, Note_on_c, 4, 62, 76
10, 254160, Note_on_c, 4, 50, 76
10, 254339, Note_on_c, 4, 62, 0
10, 254339, Note_on_c, 4, 50, 0
10, 254400, Note_on_c, 4, 54, 76
10, 254400, Note_on_c, 4, 66, 76
10, 254579, Note_on_c, 4, 54, 0
10, 254579, Note_on_c, 4, 66, 0
10, 254640, Note_on_c, 4, 50, 76
10, 254640, Note_on_c, 4, 62, 76
10, 254819, Note_on_c, 4, 50, 0
10, 254819, Note_on_c, 4, 62, 0
10, 254880, Note_on_c, 4, 45, 84
10, 254880, Note_on_c, 4, 57, 84
10, 255569, Note_on_c, 4, 45, 0
10, 255569, Note_on_c, 4, 57, 0
10, 255600, Note_on_c, 4, 62, 76
10, 255600, Note_on_c, 4, 50, 76
10, 255779, Note_on_c, 4, 62, 0
10, 255779, Note_on_c, 4, 50, 0
10, 255840, Note_on_c, 4, 54, 76
10, 255840, Note_on_c, 4, 66, 76
10, 256019, Note_on_c, 4, 54, 0
10, 256019, Note_on_c, 4, 66, 0
10, 256080, Note_on_c, 4, 62, 76
10, 256080, Note_on_c, 4, 50, 76
10, 256259, Note_on_c, 4, 62, 0
10, 256259, Note_on_c, 4, 50, 0
10, 256320, Note_on_c, 4, 45, 84
10, 256320, Note_on_c, 4, 57, 84
10, 257249, Note_on_c, 4, 45, 0
10, 257249, Note_on_c, 4, 57, 0
10, 257280, Note_on_c, 4, 57, 84
10, 257280, Note_on_c, 4, 64, 84
10, 257459, Note_on_c, 4, 57, 0
10, 257459, Note_on_c, 4, 64, 0
10, 257520, Note_on_c, 4, 57, 84
10, 257520, Note_on_c, 4, 64, 84
10, 257699, Note_on_c, 4, 57, 0
10, 257699, Note_on_c, 4, 64, 0
10, 257760, Note_on_c, 4, 62, 84
10, 257760, Note_on_c, 4, 54, 84
10, 257939, Note_on_c, 4, 62, 0
10, 257939, Note_on_c, 4, 54, 0
10, 258240, Note_on_c, 4, 57, 84
10, 258240, Note_on_c, 4, 64, 84
10, 258419, Note_on_c, 4, 57, 0
10, 258419, Note_on_c, 4, 64, 0
10, 258480, Note_on_c, 4, 62, 84
10, 258480, Note_on_c, 4, 54, 84
10, 258659, Note_on_c, 4, 62, 0
10, 258659, Note_on_c, 4, 54, 0
10, 275040, Note_on_c, 4, 62, 76
10, 275040, Note_on_c, 4, 50, 76
10, 275759, Note_on_c, 4, 62, 0
10, 275759, Note_on_c, 4, 50, 0
10, 276480, Note_on_c, 4, 62, 76
10, 276480, Note_on_c, 4, 50, 76
10, 277199, Note_on_c, 4, 62, 0
10, 277199, Note_on_c, 4, 50, 0
10, 277920, Note_on_c, 4, 57, 52
10, 277920, Note_on_c, 4, 64, 52
10, 278099, Note_on_c, 4, 57, 0
10, 278099, Note_on_c, 4, 64, 0
10, 278160, Note_on_c, 4, 62, 52
10, 278160, Note_on_c, 4, 66, 52
10, 278339, Note_on_c, 4, 62, 0
10, 278339, Note_on_c, 4, 66, 0
10, 278400, Note_on_c, 4, 64, 52
10, 278400, Note_on_c, 4, 67, 52
10, 278579, Note_on_c, 4, 64, 0
10, 278579, Note_on_c, 4, 67, 0
10, 279360, Note_on_c, 4, 66, 52
10, 279360, Note_on_c, 4, 62, 52
10, 279539, Note_on_c, 4, 66, 0
10, 279539, Note_on_c, 4, 62, 0
10, 279600, Note_on_c, 4, 64, 52
10, 279600, Note_on_c, 4, 57, 52
10, 279779, Note_on_c, 4, 64, 0
10, 279779, Note_on_c, 4, 57, 0
10, 279840, Note_on_c, 4, 54, 52
10, 279840, Note_on_c, 4, 62, 52
10, 280019, Note_on_c, 4, 54, 0
10, 280019, Note_on_c, 4, 62, 0
10, 280800, Note_on_c, 4, 62, 76
10, 280800, Note_on_c, 4, 50, 76
10, 281519, Note_on_c, 4, 62, 0
10, 281519, Note_on_c, 4, 50, 0
10, 282240, Note_on_c, 4, 62, 76
10, 282240, Note_on_c, 4, 50, 76
10, 282959, Note_on_c, 4, 62, 0
10, 282959, Note_on_c, 4, 50, 0
10, 291600, Control_c, 4, 11, 80
10, 292320, Note_on_c, 4, 50, 76
10, 292320, Control_c, 4, 11, 80
10, 292320, Note_on_c, 4, 62, 76
10, 292440, Control_c, 4, 11, 84
10, 292560, Control_c, 4, 11, 88
10, 292680, Control_c, 4, 11, 92
10, 292800, Control_c, 4, 11, 96
10, 292920, Control_c, 4, 11, 100
10, 293040, Control_c, 4, 11, 104
10, 293160, Control_c, 4, 11, 107
10, 293280, Control_c, 4, 11, 111
10, 293400, Control_c, 4, 11, 115
10, 293520, Control_c, 4, 11, 119
10, 293640, Control_c, 4, 11, 123
10, 293729, Note_on_c, 4, 50, 0
10, 293729, Note_on_c, 4, 62, 0
10, 293760, Note_on_c, 4, 57, 76
10, 293760, Control_c, 4, 11, 127
10, 293760, Note_on_c, 4, 45, 76
10, 294449, Note_on_c, 4, 57, 0
10, 294449, Note_on_c, 4, 45, 0
10, 294480, Note_on_c, 4, 62, 76
10, 294480, Note_on_c, 4, 50, 76
10, 294719, Note_on_c, 4, 62, 0
10, 294719, Note_on_c, 4, 50, 0
10, 297360, Control_c, 4, 11, 80
10, 298080, Note_on_c, 4, 62, 76
10, 298080, Note_on_c, 4, 50, 76
10, 298080, Control_c, 4, 11, 80
10, 298200, Control_c, 4, 11, 84
10, 298320, Control_c, 4, 11, 88
10, 298440, Control_c, 4, 11, 92
10, 298560, Control_c, 4, 11, 96
10, 298680, Control_c, 4, 11, 100
10, 298800, Control_c, 4, 11, 104
10, 298920, Control_c, 4, 11, 107
10, 299040, Control_c, 4, 11, 111
10, 299160, Control_c, 4, 11, 115
10, 299280, Control_c, 4, 11, 119
10, 299400, Control_c, 4, 11, 123
10, 299489, Note_on_c, 4, 62, 0
10, 299489, Note_on_c, 4, 50, 0
10, 299520, Note_on_c, 4, 57, 76
10, 299520, Control_c, 4, 11, 127
10, 299520, Note_on_c, 4, 45, 76
10, 300209, Note_on_c, 4, 57, 0
10, 300209, Note_on_c, 4, 45, 0
10, 300240, Note_on_c, 4, 50, 76
10, 300240, Note_on_c, 4, 62, 76
10, 300479, Note_on_c, 4, 50, 0
10, 300479, Note_on_c, 4, 62, 0
10, 300720, Control_c, 4, 11, 80
10, 300960, Note_on_c, 4, 62, 76
10, 300960, Note_on_c, 4, 50, 76
10, 300960, Control_c, 4, 11, 80
10, 301080, Control_c, 4, 11, 84
10, 301200, Control_c, 4, 11, 88
10, 301320, Control_c, 4, 11, 92
10, 301440, Control_c, 4, 11, 96
10, 301560, Control_c, 4, 11, 100
10, 301680, Control_c, 4, 11, 104
10, 301800, Control_c, 4, 11, 107
10, 301920, Control_c, 4, 11, 111
10, 302040, Control_c, 4, 11, 115
10, 302160, Control_c, 4, 11, 119
10, 302280, Control_c, 4, 11, 123
10, 302369, Note_on_c, 4, 62, 0
10, 302369, Note_on_c, 4, 50, 0
10, 302400, Note_on_c, 4, 57, 84
10, 302400, Control_c, 4, 11, 127
10, 302400, Note_on_c, 4, 45, 84
10, 303089, Note_on_c, 4, 57, 0
10, 303089, Note_on_c, 4, 45, 0
10, 303120, Note_on_c, 4, 62, 76
10, 303120, Note_on_c, 4, 50, 76
10, 303299, Note_on_c, 4, 62, 0
10, 303299, Note_on_c, 4, 50, 0
10, 303360, Note_on_c, 4, 54, 76
10, 303360, Note_on_c, 4, 66, 76
10, 303539, Note_on_c, 4, 54, 0
10, 303539, Note_on_c, 4, 66, 0
10, 303600, Note_on_c, 4, 62, 76
10, 303600, Note_on_c, 4, 50, 76
10, 303779, Note_on_c, 4, 62, 0
10, 303779, Note_on_c, 4, 50, 0
10, 303840, Note_on_c, 4, 57, 84
10, 303840, Note_on_c, 4, 45, 84
10, 304529, Note_on_c, 4, 57, 0
10, 304529, Note_on_c, 4, 45, 0
10, 304560, Note_on_c, 4, 62, 76
10, 304560, Note_on_c, 4, 50, 76
10, 304739, Note_on_c, 4, 62, 0
10, 304739, Note_on_c, 4, 50, 0
10, 304800, Note_on_c, 4, 54, 76
10, 304800, Note_on_c, 4, 66, 76
10, 304979, Note_on_c, 4, 54, 0
10, 304979, Note_on_c, 4, 66, 0
10, 305040, Note_on_c, 4, 50, 76
10, 305040, Note_on_c, 4, 62, 76
10, 305219, Note_on_c, 4, 50, 0
10, 305219, Note_on_c, 4, 62, 0
10, 305280, Note_on_c, 4, 57, 84
10, 305280, Note_on_c, 4, 45, 84
10, 306209, Note_on_c, 4, 57, 0
10, 306209, Note_on_c, 4, 45, 0
10, 306240, Note_on_c, 4, 64, 84
10, 306240, Note_on_c, 4, 57, 84
10, 306419, Note_on_c, 4, 64, 0
10, 306419, Note_on_c, 4, 57, 0
10, 306480, Note_on_c, 4, 57, 84
10, 306480, Note_on_c, 4, 64, 84
10, 306659, Note_on_c, 4, 57, 0
10, 306659, Note_on_c, 4, 64, 0
10, 306720, Note_on_c, 4, 62, 84
10, 306720, Note_on_c, 4, 54, 84
10, 306899, Note_on_c, 4, 62, 0
10, 306899, Note_on_c, 4, 54, 0
10, 307200, Note_on_c, 4, 64, 84
10, 307200, Note_on_c, 4, 57, 84
10, 307379, Note_on_c, 4, 64, 0
10, 307379, Note_on_c, 4, 57, 0
10, 307440, Note_on_c, 4, 62, 84
10, 307440, Note_on_c, 4, 54, 84
10, 307619, Note_on_c, 4, 62, 0
10, 307619, Note_on_c, 4, 54, 0
10, 307619, End_track
11, 0, Start_track
11, 0, Title_t, "Trumpet in D"
11, 0, MIDI_port, 0
11, 0, Program_c, 5, 56
11, 0, Control_c, 5, 7, 96
11, 0, Control_c, 5, 10, 60
11, 0, Control_c, 5, 11, 127
11, 0, Note_on_c, 5, 74, 76
11, 0, Note_on_c, 5, 62, 76
11, 719, Note_on_c, 5, 74, 0
11, 719, Note_on_c, 5, 62, 0
11, 1440, Note_on_c, 5, 74, 76
11, 1440, Note_on_c, 5, 62, 76
11, 2159, Note_on_c, 5, 74, 0
11, 2159, Note_on_c, 5, 62, 0
11, 5040, Note_on_c, 5, 62, 84
11, 5040, Note_on_c, 5, 74, 84
11, 5219, Note_on_c, 5, 62, 0
11, 5219, Note_on_c, 5, 74, 0
11, 5280, Note_on_c, 5, 69, 84
11, 5280, Note_on_c, 5, 57, 84
11, 5459, Note_on_c, 5, 69, 0
11, 5459, Note_on_c, 5, 57, 0
11, 5520, Note_on_c, 5, 74, 84
11, 5520, Note_on_c, 5, 62, 84
11, 5699, Note_on_c, 5, 74, 0
11, 5699, Note_on_c, 5, 62, 0
11, 5760, Note_on_c, 5, 74, 76
11, 5760, Note_on_c, 5, 62, 76
11, 6479, Note_on_c, 5, 74, 0
11, 6479, Note_on_c, 5, 62, 0
11, 7200, Note_on_c, 5, 62, 76
11, 7200, Note_on_c, 5, 74, 76
11, 7919, Note_on_c, 5, 62, 0
11, 7919, Note_on_c, 5, 74, 0
11, 10800, Note_on_c, 5, 76, 84
11, 10979, Note_on_c, 5, 76, 0
11, 11040, Note_on_c, 5, 76, 84
11, 11219, Note_on_c, 5, 76, 0
11, 11280, Note_on_c, 5, 76, 84
11, 11459, Note_on_c, 5, 76, 0
11, 11520, Note_on_c, 5, 62, 76
11, 11520, Note_on_c, 5, 74, 76
11, 12239, Note_on_c, 5, 62, 0
11, 12239, Note_on_c, 5, 74, 0
11, 12960, Note_on_c, 5, 74, 76
11, 12960, Note_on_c, 5, 62, 76
11, 13679, Note_on_c, 5, 74, 0
11, 13679, Note_on_c, 5, 62, 0
11, 16560, Note_on_c, 5, 74, 84
11, 16560, Note_on_c, 5, 62, 84
11, 16739, Note_on_c, 5, 74, 0
11, 16739, Note_on_c, 5, 62, 0
11, 16800, Note_on_c, 5, 69, 84
11, 16800, Note_on_c, 5, 57, 84
11, 16979, Note_on_c, 5, 69, 0
11, 16979, Note_on_c, 5, 57, 0
11, 17040, Note_on_c, 5, 62, 84
11, 17040, Note_on_c, 5, 74, 84
11, 17219, Note_on_c, 5, 62, 0
11, 17219, Note_on_c, 5, 74, 0
11, 17280, Note_on_c, 5, 74, 76
11, 17280, Note_on_c, 5, 62, 76
11, 17999, Note_on_c, 5, 74, 0
11, 17999, Note_on_c, 5, 62, 0
11, 18720, Note_on_c, 5, 74, 76
11, 18720, Note_on_c, 5, 62, 76
11, 19439, Note_on_c, 5, 74, 0
11, 19439, Note_on_c, 5, 62, 0
11, 22320, Note_on_c, 5, 76, 84
11, 22499, Note_on_c, 5, 76, 0
11, 22560, Note_on_c, 5, 76, 84
11, 22739, Note_on_c, 5, 76, 0
11, 22800, Note_on_c, 5, 76, 84
11, 22979, Note_on_c, 5, 76, 0
11, 38880, Note_on_c, 5, 74, 76
11, 38880, Note_on_c, 5, 62, 76
11, 39599, Note_on_c, 5, 74, 0
11, 39599, Note_on_c, 5, 62, 0
11, 40320, Note_on_c, 5, 74, 76
11, 40320, Note_on_c, 5, 62, 76
11, 41039, Note_on_c, 5, 74, 0
11, 41039, Note_on_c, 5, 62, 0
11, 43920, Note_on_c, 5, 74, 84
11, 43920, Note_on_c, 5, 62, 84
11, 44099, Note_on_c, 5, 74, 0
11, 44099, Note_on_c, 5, 62, 0
11, 44160, Note_on_c, 5, 69, 84
11, 44160, Note_on_c, 5, 57, 84
11, 44339, Note_on_c, 5, 69, 0
11, 44339, Note_on_c, 5, 57, 0
11, 44400, Note_on_c, 5, 74, 84
11, 44400, Note_on_c, 5, 62, 84
11, 44579, Note_on_c, 5, 74, 0
11, 44579, Note_on_c, 5, 62, 0
11, 44640, Note_on_c, 5, 74, 76
11, 44640, Note_on_c, 5, 62, 76
11, 45359, Note_on_c, 5, 74, 0
11, 45359, Note_on_c, 5, 62, 0
11, 46080, Note_on_c, 5, 74, 76
11, 46080, Note_on_c, 5, 62, 76
11, 46799, Note_on_c, 5, 74, 0
11, 46799, Note_on_c, 5, 62, 0
11, 57600, Note_on_c, 5, 57, 76
11, 57600, Note_on_c, 5, 69, 76
11, 58289, Note_on_c, 5, 57, 0
11, 58289, Note_on_c, 5, 69, 0
11, 58320, Note_on_c, 5, 62, 76
11, 58320, Note_on_c, 5, 74, 76
11, 58559, Note_on_c, 5, 62, 0
11, 58559, Note_on_c, 5, 74, 0
11, 63360, Note_on_c, 5, 69, 76
11, 63360, Note_on_c, 5, 57, 76
11, 64049, Note_on_c, 5, 69, 0
11, 64049, Note_on_c, 5, 57, 0
11, 64080, Note_on_c, 5, 62, 76
11, 64080, Note_on_c, 5, 74, 76
11, 64319, Note_on_c, 5, 62, 0
11, 64319, Note_on_c, 5, 74, 0
11, 66240, Note_on_c, 5, 69, 84
11, 66240, Note_on_c, 5, 57, 84
11, 66929, Note_on_c, 5, 69, 0
11, 66929, Note_on_c, 5, 57, 0
11, 66960, Note_on_c, 5, 74, 76
11, 66960, Note_on_c, 5, 62, 76
11, 67199, Note_on_c, 5, 74, 0
11, 67199, Note_on_c, 5, 62, 0
11, 67680, Note_on_c, 5, 69, 84
11, 67680, Note_on_c, 5, 57, 84
11, 68369, Note_on_c, 5, 69, 0
11, 68369, Note_on_c, 5, 57, 0
11, 68400, Note_on_c, 5, 74, 76
11, 68400, Note_on_c, 5, 62, 76
11, 68639, Note_on_c, 5, 74, 0
11, 68639, Note_on_c, 5, 62, 0
11, 69120, Note_on_c, 5, 69, 84
11, 69120, Note_on_c, 5, 57, 84
11, 70529, Note_on_c, 5, 69, 0
11, 70529, Note_on_c, 5, 57, 0
11, 70560, Note_on_c, 5, 74, 84
11, 70560, Note_on_c, 5, 62, 84
11, 70799, Note_on_c, 5, 74, 0
11, 70799, Note_on_c, 5, 62, 0
11, 71040, Note_on_c, 5, 57, 84
11, 71040, Note_on_c, 5, 69, 84
11, 71279, Note_on_c, 5, 57, 0
11, 71279, Note_on_c, 5, 69, 0
11, 71280, Note_on_c, 5, 62, 84
11, 71280, Note_on_c, 5, 74, 84
11, 71459, Note_on_c, 5, 62, 0
11, 71459, Note_on_c, 5, 74, 0
11, 87840, Note_on_c, 5, 62, 76
11, 87840, Note_on_c, 5, 74, 76
11, 88559, Note_on_c, 5, 62, 0
11, 88559, Note_on_c, 5, 74, 0
11, 89280, Note_on_c, 5, 74, 76
11, 89280, Note_on_c, 5, 62, 76
11, 89999, Note_on_c, 5, 74, 0
11, 89999, Note_on_c, 5, 62, 0
11, 92880, Note_on_c, 5, 74, 84
11, 92880, Note_on_c, 5, 62, 84
11, 93059, Note_on_c, 5, 74, 0
11, 93059, Note_on_c, 5, 62, 0
11, 93120, Note_on_c, 5, 57, 84
11, 93120, Note_on_c, 5, 69, 84
11, 93299, Note_on_c, 5, 57, 0
11, 93299, Note_on_c, 5, 69, 0
11, 93360, Note_on_c, 5, 62, 84
11, 93360, Note_on_c, 5, 74, 84
11, 93539, Note_on_c, 5, 62, 0
11, 93539, Note_on_c, 5, 74, 0
11, 93600, Note_on_c, 5, 74, 76
11, 93600, Note_on_c, 5, 62, 76
11, 94319, Note_on_c, 5, 74, 0
11, 94319, Note_on_c, 5, 62, 0
11, 95040, Note_on_c, 5, 74, 76
11, 95040, Note_on_c, 5, 62, 76
11, 95759, Note_on_c, 5, 74, 0
11, 95759, Note_on_c, 5, 62, 0
11, 106560, Note_on_c, 5, 57, 76
11, 106560, Note_on_c, 5, 69, 76
11, 107249, Note_on_c, 5, 57, 0
11, 107249, Note_on_c, 5, 69, 0
11, 107280, Note_on_c, 5, 62, 76
11, 107280, Note_on_c, 5, 74, 76
11, 107519, Note_on_c, 5, 62, 0
11, 107519, Note_on_c, 5, 74, 0
11, 112320, Note_on_c, 5, 69, 76
11, 112320, Note_on_c, 5, 57, 76
11, 113009, Note_on_c, 5, 69, 0
11, 113009, Note_on_c, 5, 57, 0
11, 113040, Note_on_c, 5, 62, 76
11, 113040, Note_on_c, 5, 74, 76
11, 113279, Note_on_c, 5, 62, 0
11, 113279, Note_on_c, 5, 74, 0
11, 115200, Note_on_c, 5, 57, 84
11, 115200, Note_on_c, 5, 69, 84
11, 115889, Note_on_c, 5, 57, 0
11, 115889, Note_on_c, 5, 69, 0
11, 115920, Note_on_c, 5, 62, 76
11, 115920, Note_on_c, 5, 74, 76
11, 116159, Note_on_c, 5, 62, 0
11, 116159, Note_on_c, 5, 74, 0
11, 116640, Note_on_c, 5, 57, 84
11, 116640, Note_on_c, 5, 69, 84
11, 117329, Note_on_c, 5, 57, 0
11, 117329, Note_on_c, 5, 69, 0
11, 117360, Note_on_c, 5, 74, 76
11, 117360, Note_on_c, 5, 62, 76
11, 117599, Note_on_c, 5, 74, 0
11, 117599, Note_on_c, 5, 62, 0
11, 118080, Note_on_c, 5, 69, 84
11, 118080, Note_on_c, 5, 57, 84
11, 119489, Note_on_c, 5, 69, 0
11, 119489, Note_on_c, 5, 57, 0
11, 119520, Note_on_c, 5, 74, 84
11, 119520, Note_on_c, 5, 62, 84
11, 119759, Note_on_c, 5, 74, 0
11, 119759, Note_on_c, 5, 62, 0
11, 120000, Note_on_c, 5, 69, 84
11, 120000, Note_on_c, 5, 57, 84
11, 120239, Note_on_c, 5, 69, 0
11, 120239, Note_on_c, 5, 57, 0
11, 120240, Note_on_c, 5, 74, 84
11, 120240, Note_on_c, 5, 62, 84
11, 120419, Note_on_c, 5, 74, 0
11, 120419, Note_on_c, 5, 62, 0
11, 142560, Note_on_c, 5, 57, 84
11, 142560, Note_on_c, 5, 69, 84
11, 143969, Note_on_c, 5, 57, 0
11, 143969, Note_on_c, 5, 69, 0
11, 144000, Note_on_c, 5, 62, 52
11, 144000, Note_on_c, 5, 66, 52
11, 144239, Note_on_c, 5, 62, 0
11, 144239, Note_on_c, 5, 66, 0
11, 169920, Note_on_c, 5, 57, 84
11, 169920, Note_on_c, 5, 69, 84
11, 171329, Note_on_c, 5, 57, 0
11, 171329, Note_on_c, 5, 69, 0
11, 171360, Note_on_c, 5, 66, 52
11, 171360, Note_on_c, 5, 62, 52
11, 171599, Note_on_c, 5, 66, 0
11, 171599, Note_on_c, 5, 62, 0
11, 187200, Note_on_c, 5, 62, 76
11, 187200, Note_on_c, 5, 74, 76
11, 187919, Note_on_c, 5, 62, 0
11, 187919, Note_on_c, 5, 74, 0
11, 188640, Note_on_c, 5, 62, 76
11, 188640, Note_on_c, 5, 74, 76
11, 189359, Note_on_c, 5, 62, 0
11, 189359, Note_on_c, 5, 74, 0
11, 192240, Note_on_c, 5, 62, 84
11, 192240, Note_on_c, 5, 74, 84
11, 192419, Note_on_c, 5, 62, 0
11, 192419, Note_on_c, 5, 74, 0
11, 192480, Note_on_c, 5, 57, 84
11, 192480, Note_on_c, 5, 69, 84
11, 192659, Note_on_c, 5, 57, 0
11, 192659, Note_on_c, 5, 69, 0
11, 192720, Note_on_c, 5, 74, 84
11, 192720, Note_on_c, 5, 62, 84
11, 192899, Note_on_c, 5, 74, 0
11, 192899, Note_on_c, 5, 62, 0
11, 192960, Note_on_c, 5, 62, 76
11, 192960, Note_on_c, 5, 74, 76
11, 193679, Note_on_c, 5, 62, 0
11, 193679, Note_on_c, 5, 74, 0
11, 194400, Note_on_c, 5, 74, 76
11, 194400, Note_on_c, 5, 62, 76
11, 195119, Note_on_c, 5, 74, 0
11, 195119, Note_on_c, 5, 62, 0
11, 198000, Note_on_c, 5, 76, 84
11, 198179, Note_on_c, 5, 76, 0
11, 198240, Note_on_c, 5, 76, 84
11, 198419, Note_on_c, 5, 76, 0
11, 198480, Note_on_c, 5, 76, 84
11, 198659, Note_on_c, 5, 76, 0
11, 198720, Note_on_c, 5, 74, 76
11, 198720, Note_on_c, 5, 62, 76
11, 199439, Note_on_c, 5, 74, 0
11, 199439, Note_on_c, 5, 62, 0
11, 200160, Note_on_c, 5, 62, 76
11, 200160, Note_on_c, 5, 74, 76
11, 200879, Note_on_c, 5, 62, 0
11, 200879, Note_on_c, 5, 74, 0
11, 203760, Note_on_c, 5, 74, 84
11, 203760, Note_on_c, 5, 62, 84
11, 203939, Note_on_c, 5, 74, 0
11, 203939, Note_on_c, 5, 62, 0
11, 204000, Note_on_c, 5, 69, 84
11, 204000, Note_on_c, 5, 57, 84
11, 204179, Note_on_c, 5, 69, 0
11, 204179, Note_on_c, 5, 57, 0
11, 204240, Note_on_c, 5, 62, 84
11, 204240, Note_on_c, 5, 74, 84
11, 204419, Note_on_c, 5, 62, 0
11, 204419, Note_on_c, 5, 74, 0
11, 204480, Note_on_c, 5, 74, 76
11, 204480, Note_on_c, 5, 62, 76
11, 205199, Note_on_c, 5, 74, 0
11, 205199, Note_on_c, 5, 62, 0
11, 205920, Note_on_c, 5, 62, 76
11, 205920, Note_on_c, 5, 74, 76
11, 206639, Note_on_c, 5, 62, 0
11, 206639, Note_on_c, 5, 74, 0
11, 209520, Note_on_c, 5, 76, 84
11, 209699, Note_on_c, 5, 76, 0
11, 209760, Note_on_c, 5, 76, 84
11, 209939, Note_on_c, 5, 76, 0
11, 210000, Note_on_c, 5, 76, 84
11, 210179, Note_on_c, 5, 76, 0
11, 226080, Note_on_c, 5, 74, 76
11, 226080, Note_on_c, 5, 62, 76
11, 226799, Note_on_c, 5, 74, 0
11, 226799, Note_on_c, 5, 62, 0
11, 227520, Note_on_c, 5, 74, 76
11, 227520, Note_on_c, 5, 62, 76
11, 228239, Note_on_c, 5, 74, 0
11, 228239, Note_on_c, 5, 62, 0
11, 231120, Note_on_c, 5, 74, 84
11, 231120, Note_on_c, 5, 62, 84
11, 231299, Note_on_c, 5, 74, 0
11, 231299, Note_on_c, 5, 62, 0
11, 231360, Note_on_c, 5, 69, 84
11, 231360, Note_on_c, 5, 57, 84
11, 231539, Note_on_c, 5, 69, 0
11, 231539, Note_on_c, 5, 57, 0
11, 231600, Note_on_c, 5, 74, 84
11, 231600, Note_on_c, 5, 62, 84
11, 231779, Note_on_c, 5, 74, 0
11, 231779, Note_on_c, 5, 62, 0
11, 231840, Note_on_c, 5, 62, 76
11, 231840, Note_on_c, 5, 74, 76
11, 232559, Note_on_c, 5, 62, 0
11, 232559, Note_on_c, 5, 74, 0
11, 233280, Note_on_c, 5, 62, 76
11, 233280, Note_on_c, 5, 74, 76
11, 233999, Note_on_c, 5, 62, 0
11, 233999, Note_on_c, 5, 74, 0
11, 244800, Note_on_c, 5, 69, 76
11, 244800, Note_on_c, 5, 57, 76
11, 245489, Note_on_c, 5, 69, 0
11, 245489, Note_on_c, 5, 57, 0
11, 245520, Note_on_c, 5, 74, 76
11, 245520, Note_on_c, 5, 62, 76
11, 245759, Note_on_c, 5, 74, 0
11, 245759, Note_on_c, 5, 62, 0
11, 250560, Note_on_c, 5, 69, 76
11, 250560, Note_on_c, 5, 57, 76
11, 251249, Note_on_c, 5, 69, 0
11, 251249, Note_on_c, 5, 57, 0
11, 251280, Note_on_c, 5, 62, 76
11, 251280, Note_on_c, 5, 74, 76
11, 251519, Note_on_c, 5, 62, 0
11, 251519, Note_on_c, 5, 74, 0
11, 253440, Note_on_c, 5, 69, 84
11, 253440, Note_on_c, 5, 57, 84
11, 254129, Note_on_c, 5, 69, 0
11, 254129, Note_on_c, 5, 57, 0
11, 254160, Note_on_c, 5, 62, 76
11, 254160, Note_on_c, 5, 74, 76
11, 254399, Note_on_c, 5, 62, 0
11, 254399, Note_on_c, 5, 74, 0
11, 254880, Note_on_c, 5, 57, 84
11, 254880, Note_on_c, 5, 69, 84
11, 255569, Note_on_c, 5, 57, 0
11, 255569, Note_on_c, 5, 69, 0
11, 255600, Note_on_c, 5, 74, 76
11, 255600, Note_on_c, 5, 62, 76
11, 255839, Note_on_c, 5, 74, 0
11, 255839, Note_on_c, 5, 62, 0
11, 256320, Note_on_c, 5, 69, 84
11, 256320, Note_on_c, 5, 57, 84
11, 257729, Note_on_c, 5, 69, 0
11, 257729, Note_on_c, 5, 57, 0
11, 257760, Note_on_c, 5, 62, 84
11, 257760, Note_on_c, 5, 74, 84
11, 257999, Note_on_c, 5, 62, 0
11, 257999, Note_on_c, 5, 74, 0
11, 258240, Note_on_c, 5, 57, 84
11, 258240, Note_on_c, 5, 69, 84
11, 258479, Note_on_c, 5, 57, 0
11, 258479, Note_on_c, 5, 69, 0
11, 258480, Note_on_c, 5, 62, 84
11, 258480, Note_on_c, 5, 74, 84
11, 258659, Note_on_c, 5, 62, 0
11, 258659, Note_on_c, 5, 74, 0
11, 275040, Note_on_c, 5, 74, 76
11, 275040, Note_on_c, 5, 62, 76
11, 275759, Note_on_c, 5, 74, 0
11, 275759, Note_on_c, 5, 62, 0
11, 276480, Note_on_c, 5, 62, 76
11, 276480, Note_on_c, 5, 74, 76
11, 277199, Note_on_c, 5, 62, 0
11, 277199, Note_on_c, 5, 74, 0
11, 280080, Note_on_c, 5, 74, 84
11, 280080, Note_on_c, 5, 62, 84
11, 280259, Note_on_c, 5, 74, 0
11, 280259, Note_on_c, 5, 62, 0
11, 280320, Note_on_c, 5, 57, 84
11, 280320, Note_on_c, 5, 69, 84
11, 280499, Note_on_c, 5, 57, 0
11, 280499, Note_on_c, 5, 69, 0
11, 280560, Note_on_c, 5, 62, 84
11, 280560, Note_on_c, 5, 74, 84
11, 280739, Note_on_c, 5, 62, 0
11, 280739, Note_on_c, 5, 74, 0
11, 280800, Note_on_c, 5, 74, 76
11, 280800, Note_on_c, 5, 62, 76
11, 281519, Note_on_c, 5, 74, 0
11, 281519, Note_on_c, 5, 62, 0
11, 282240, Note_on_c, 5, 62, 76
11, 282240, Note_on_c, 5, 74, 76
11, 282959, Note_on_c, 5, 62, 0
11, 282959, Note_on_c, 5, 74, 0
11, 293760, Note_on_c, 5, 69, 76
11, 293760, Note_on_c, 5, 57, 76
11, 294449, Note_on_c, 5, 69, 0
11, 294449, Note_on_c, 5, 57, 0
11, 294480, Note_on_c, 5, 74, 76
11, 294480, Note_on_c, 5, 62, 76
11, 294719, Note_on_c, 5, 74, 0
11, 294719, Note_on_c, 5, 62, 0
11, 299520, Note_on_c, 5, 69, 76
11, 299520, Note_on_c, 5, 57, 76
11, 300209, Note_on_c, 5, 69, 0
11, 300209, Note_on_c, 5, 57, 0
11, 300240, Note_on_c, 5, 62, 76
11, 300240, Note_on_c, 5, 74, 76
11, 300479, Note_on_c, 5, 62, 0
11, 300479, Note_on_c, 5, 74, 0
11, 302400, Note_on_c, 5, 57, 84
11, 302400, Note_on_c, 5, 69, 84
11, 303089, Note_on_c, 5, 57, 0
11, 303089, Note_on_c, 5, 69, 0
11, 303120, Note_on_c, 5, 74, 76
11, 303120, Note_on_c, 5, 62, 76
11, 303359, Note_on_c, 5, 74, 0
11, 303359, Note_on_c, 5, 62, 0
11, 303840, Note_on_c, 5, 57, 84
11, 303840, Note_on_c, 5, 69, 84
11, 304529, Note_on_c, 5, 57, 0
11, 304529, Note_on_c, 5, 69, 0
11, 304560, Note_on_c, 5, 62, 76
11, 304560, Note_on_c, 5, 74, 76
11, 304799, Note_on_c, 5, 62, 0
11, 304799, Note_on_c, 5, 74, 0
11, 305280, Note_on_c, 5, 69, 84
11, 305280, Note_on_c, 5, 57, 84
11, 306689, Note_on_c, 5, 69, 0
11, 306689, Note_on_c, 5, 57, 0
11, 306720, Note_on_c, 5, 62, 84
11, 306720, Note_on_c, 5, 74, 84
11, 306959, Note_on_c, 5, 62, 0
11, 306959, Note_on_c, 5, 74, 0
11, 307200, Note_on_c, 5, 57, 84
11, 307200, Note_on_c, 5, 69, 84
11, 307439, Note_on_c, 5, 57, 0
11, 307439, Note_on_c, 5, 69, 0
11, 307440, Note_on_c, 5, 62, 84
11, 307440, Note_on_c, 5, 74, 84
11, 307619, Note_on_c, 5, 62, 0
11, 307619, Note_on_c, 5, 74, 0
11, 307619, End_track
12, 0, Start_track
12, 0, Title_t, "Timpani"
12, 0, MIDI_port, 0
12, 0, Program_c, 6, 47
12, 0, Control_c, 6, 7, 96
12, 0, Control_c, 6, 10, 25
12, 0, Control_c, 6, 11, 127
12, 0, Note_on_c, 6, 50, 76
12, 239, Note_on_c, 6, 50, 0
12, 1440, Note_on_c, 6, 50, 76
12, 1679, Note_on_c, 6, 50, 0
12, 5040, Note_on_c, 6, 50, 84
12, 5219, Note_on_c, 6, 50, 0
12, 5280, Note_on_c, 6, 45, 84
12, 5459, Note_on_c, 6, 45, 0
12, 5520, Note_on_c, 6, 50, 84
12, 5699, Note_on_c, 6, 50, 0
12, 5760, Note_on_c, 6, 50, 76
12, 5999, Note_on_c, 6, 50, 0
12, 7200, Note_on_c, 6, 50, 76
12, 7439, Note_on_c, 6, 50, 0
12, 10800, Note_on_c, 6, 45, 84
12, 10979, Note_on_c, 6, 45, 0
12, 11040, Note_on_c, 6, 45, 84
12, 11219, Note_on_c, 6, 45, 0
12, 11280, Note_on_c, 6, 45, 84
12, 11459, Note_on_c, 6, 45, 0
12, 11520, Note_on_c, 6, 50, 76
12, 11759, Note_on_c, 6, 50, 0
12, 12960, Note_on_c, 6, 50, 76
12, 13199, Note_on_c, 6, 50, 0
12, 16560, Note_on_c, 6, 50, 84
12, 16739, Note_on_c, 6, 50, 0
12, 16800, Note_on_c, 6, 45, 84
12, 16979, Note_on_c, 6, 45, 0
12, 17040, Note_on_c, 6, 50, 84
12, 17219, Note_on_c, 6, 50, 0
12, 17280, Note_on_c, 6, 50, 76
12, 17519, Note_on_c, 6, 50, 0
12, 18720, Note_on_c, 6, 50, 76
12, 18959, Note_on_c, 6, 50, 0
12, 22320, Note_on_c, 6, 45, 84
12, 22499, Note_on_c, 6, 45, 0
12, 22560, Note_on_c, 6, 45, 84
12, 22739, Note_on_c, 6, 45, 0
12, 22800, Note_on_c, 6, 45, 84
12, 22979, Note_on_c, 6, 45, 0
12, 38880, Note_on_c, 6, 50, 76
12, 39119, Note_on_c, 6, 50, 0
12, 40320, Note_on_c, 6, 50, 76
12, 40559, Note_on_c, 6, 50, 0
12, 43920, Note_on_c, 6, 50, 84
12, 44099, Note_on_c, 6, 50, 0
12, 44160, Note_on_c, 6, 45, 84
12, 44339, Note_on_c, 6, 45, 0
12, 44400, Note_on_c, 6, 50, 84
12, 44579, Note_on_c, 6, 50, 0
12, 44640, Note_on_c, 6, 50, 76
12, 44879, Note_on_c, 6, 50, 0
12, 46080, Note_on_c, 6, 50, 76
12, 46319, Note_on_c, 6, 50, 0
12, 57600, Note_on_c, 6, 45, 76
12, 57839, Note_on_c, 6, 45, 0
12, 58320, Note_on_c, 6, 50, 76
12, 58559, Note_on_c, 6, 50, 0
12, 63360, Note_on_c, 6, 45, 76
12, 63599, Note_on_c, 6, 45, 0
12, 64080, Note_on_c, 6, 50, 76
12, 64319, Note_on_c, 6, 50, 0
12, 66240, Note_on_c, 6, 45, 84
12, 66479, Note_on_c, 6, 45, 0
12, 66960, Note_on_c, 6, 50, 76
12, 67199, Note_on_c, 6, 50, 0
12, 67680, Note_on_c, 6, 45, 76
12, 67919, Note_on_c, 6, 45, 0
12, 68400, Note_on_c, 6, 50, 76
12, 68639, Note_on_c, 6, 50, 0
12, 69120, Note_on_c, 6, 45, 84
12, 69239, Note_on_c, 6, 45, 0
12, 69240, Note_on_c, 6, 45, 84
12, 69359, Note_on_c, 6, 45, 0
12, 69360, Note_on_c, 6, 45, 84
12, 69479, Note_on_c, 6, 45, 0
12, 69480, Note_on_c, 6, 45, 84
12, 69599, Note_on_c, 6, 45, 0
12, 69600, Note_on_c, 6, 45, 84
12, 69719, Note_on_c, 6, 45, 0
12, 69720, Note_on_c, 6, 45, 84
12, 69839, Note_on_c, 6, 45, 0
12, 69840, Note_on_c, 6, 45, 84
12, 69959, Note_on_c, 6, 45, 0
12, 69960, Note_on_c, 6, 45, 84
12, 70079, Note_on_c, 6, 45, 0
12, 70080, Note_on_c, 6, 45, 84
12, 70199, Note_on_c, 6, 45, 0
12, 70200, Note_on_c, 6, 45, 84
12, 70319, Note_on_c, 6, 45, 0
12, 70320, Note_on_c, 6, 45, 84
12, 70439, Note_on_c, 6, 45, 0
12, 70440, Note_on_c, 6, 45, 84
12, 70559, Note_on_c, 6, 45, 0
12, 70560, Note_on_c, 6, 50, 84
12, 70799, Note_on_c, 6, 50, 0
12, 71040, Note_on_c, 6, 45, 84
12, 71219, Note_on_c, 6, 45, 0
12, 71280, Note_on_c, 6, 50, 84
12, 71459, Note_on_c, 6, 50, 0
12, 87840, Note_on_c, 6, 50, 76
12, 88079, Note_on_c, 6, 50, 0
12, 89280, Note_on_c, 6, 50, 76
12, 89519, Note_on_c, 6, 50, 0
12, 92880, Note_on_c, 6, 50, 84
12, 93059, Note_on_c, 6, 50, 0
12, 93120, Note_on_c, 6, 45, 84
12, 93299, Note_on_c, 6, 45, 0
12, 93360, Note_on_c, 6, 50, 84
12, 93539, Note_on_c, 6, 50, 0
12, 93600, Note_on_c, 6, 50, 76
12, 93839, Note_on_c, 6, 50, 0
12, 95040, Note_on_c, 6, 50, 76
12, 95279, Note_on_c, 6, 50, 0
12, 106560, Note_on_c, 6, 45, 76
12, 106799, Note_on_c, 6, 45, 0
12, 107280, Note_on_c, 6, 50, 76
12, 107519, Note_on_c, 6, 50, 0
12, 112320, Note_on_c, 6, 45, 76
12, 112559, Note_on_c, 6, 45, 0
12, 113040, Note_on_c, 6, 50, 76
12, 113279, Note_on_c, 6, 50, 0
12, 115200, Note_on_c, 6, 45, 84
12, 115439, Note_on_c, 6, 45, 0
12, 115920, Note_on_c, 6, 50, 76
12, 116159, Note_on_c, 6, 50, 0
12, 116640, Note_on_c, 6, 45, 76
12, 116879, Note_on_c, 6, 45, 0
12, 117360, Note_on_c, 6, 50, 76
12, 117599, Note_on_c, 6, 50, 0
12, 118080, Note_on_c, 6, 45, 84
12, 118199, Note_on_c, 6, 45, 0
12, 118200, Note_on_c, 6, 45, 84
12, 118319, Note_on_c, 6, 45, 0
12, 118320, Note_on_c, 6, 45, 84
12, 118439, Note_on_c, 6, 45, 0
12, 118440, Note_on_c, 6, 45, 84
12, 118559, Note_on_c, 6, 45, 0
12, 118560, Note_on_c, 6, 45, 84
12, 118679, Note_on_c, 6, 45, 0
12, 118680, Note_on_c, 6, 45, 84
12, 118799, Note_on_c, 6, 45, 0
12, 118800, Note_on_c, 6, 45, 84
12, 118919, Note_on_c, 6, 45, 0
12, 118920, Note_on_c, 6, 45, 84
12, 119039, Note_on_c, 6, 45, 0
12, 119040, Note_on_c, 6, 45, 84
12, 119159, Note_on_c, 6, 45, 0
12, 119160, Note_on_c, 6, 45, 84
12, 119279, Note_on_c, 6, 45, 0
12, 119280, Note_on_c, 6, 45, 84
12, 119399, Note_on_c, 6, 45, 0
12, 119400, Note_on_c, 6, 45, 84
12, 119519, Note_on_c, 6, 45, 0
12, 119520, Note_on_c, 6, 50, 84
12, 119759, Note_on_c, 6, 50, 0
12, 120000, Note_on_c, 6, 45, 84
12, 120179, Note_on_c, 6, 45, 0
12, 120240, Note_on_c, 6, 50, 84
12, 120419, Note_on_c, 6, 50, 0
12, 142560, Note_on_c, 6, 45, 84
12, 142619, Note_on_c, 6, 45, 0
12, 142620, Note_on_c, 6, 45, 84
12, 142679, Note_on_c, 6, 45, 0
12, 142680, Note_on_c, 6, 45, 84
12, 142739, Note_on_c, 6, 45, 0
12, 142740, Note_on_c, 6, 45, 84
12, 142799, Note_on_c, 6, 45, 0
12, 142800, Note_on_c, 6, 45, 84
12, 142859, Note_on_c, 6, 45, 0
12, 142860, Note_on_c, 6, 45, 84
12, 142919, Note_on_c, 6, 45, 0
12, 142920, Note_on_c, 6, 45, 84
12, 142979, Note_on_c, 6, 45, 0
12, 142980, Note_on_c, 6, 45, 84
12, 143039, Note_on_c, 6, 45, 0
12, 143040, Note_on_c, 6, 45, 84
12, 143099, Note_on_c, 6, 45, 0
12, 143100, Note_on_c, 6, 45, 84
12, 143159, Note_on_c, 6, 45, 0
12, 143160, Note_on_c, 6, 45, 84
12, 143219, Note_on_c, 6, 45, 0
12, 143220, Note_on_c, 6, 45, 84
12, 143279, Note_on_c, 6, 45, 0
12, 143280, Note_on_c, 6, 45, 84
12, 143339, Note_on_c, 6, 45, 0
12, 143340, Note_on_c, 6, 45, 84
12, 143399, Note_on_c, 6, 45, 0
12, 143400, Note_on_c, 6, 45, 84
12, 143459, Note_on_c, 6, 45, 0
12, 143460, Note_on_c, 6, 45, 84
12, 143519, Note_on_c, 6, 45, 0
12, 143520, Note_on_c, 6, 45, 84
12, 143579, Note_on_c, 6, 45, 0
12, 143580, Note_on_c, 6, 45, 84
12, 143639, Note_on_c, 6, 45, 0
12, 143640, Note_on_c, 6, 45, 84
12, 143699, Note_on_c, 6, 45, 0
12, 143700, Note_on_c, 6, 45, 84
12, 143759, Note_on_c, 6, 45, 0
12, 143760, Note_on_c, 6, 45, 84
12, 143819, Note_on_c, 6, 45, 0
12, 143820, Note_on_c, 6, 45, 84
12, 143879, Note_on_c, 6, 45, 0
12, 143880, Note_on_c, 6, 45, 84
12, 143939, Note_on_c, 6, 45, 0
12, 143940, Note_on_c, 6, 45, 84
12, 143999, Note_on_c, 6, 45, 0
12, 144000, Note_on_c, 6, 50, 52
12, 144239, Note_on_c, 6, 50, 0
12, 169920, Note_on_c, 6, 45, 84
12, 169979, Note_on_c, 6, 45, 0
12, 169980, Note_on_c, 6, 45, 84
12, 170039, Note_on_c, 6, 45, 0
12, 170040, Note_on_c, 6, 45, 84
12, 170099, Note_on_c, 6, 45, 0
12, 170100, Note_on_c, 6, 45, 84
12, 170159, Note_on_c, 6, 45, 0
12, 170160, Note_on_c, 6, 45, 84
12, 170219, Note_on_c, 6, 45, 0
12, 170220, Note_on_c, 6, 45, 84
12, 170279, Note_on_c, 6, 45, 0
12, 170280, Note_on_c, 6, 45, 84
12, 170339, Note_on_c, 6, 45, 0
12, 170340, Note_on_c, 6, 45, 84
12, 170399, Note_on_c, 6, 45, 0
12, 170400, Note_on_c, 6, 45, 84
12, 170459, Note_on_c, 6, 45, 0
12, 170460, Note_on_c, 6, 45, 84
12, 170519, Note_on_c, 6, 45, 0
12, 170520, Note_on_c, 6, 45, 84
12, 170579, Note_on_c, 6, 45, 0
12, 170580, Note_on_c, 6, 45, 84
12, 170639, Note_on_c, 6, 45, 0
12, 170640, Note_on_c, 6, 45, 84
12, 170699, Note_on_c, 6, 45, 0
12, 170700, Note_on_c, 6, 45, 84
12, 170759, Note_on_c, 6, 45, 0
12, 170760, Note_on_c, 6, 45, 84
12, 170819, Note_on_c, 6, 45, 0
12, 170820, Note_on_c, 6, 45, 84
12, 170879, Note_on_c, 6, 45, 0
12, 170880, Note_on_c, 6, 45, 84
12, 170939, Note_on_c, 6, 45, 0
12, 170940, Note_on_c, 6, 45, 84
12, 170999, Note_on_c, 6, 45, 0
12, 171000, Note_on_c, 6, 45, 84
12, 171059, Note_on_c, 6, 45, 0
12, 171060, Note_on_c, 6, 45, 84
12, 171119, Note_on_c, 6, 45, 0
12, 171120, Note_on_c, 6, 45, 84
12, 171179, Note_on_c, 6, 45, 0
12, 171180, Note_on_c, 6, 45, 84
12, 171239, Note_on_c, 6, 45, 0
12, 171240, Note_on_c, 6, 45, 84
12, 171299, Note_on_c, 6, 45, 0
12, 171300, Note_on_c, 6, 45, 84
12, 171359, Note_on_c, 6, 45, 0
12, 171360, Note_on_c, 6, 50, 52
12, 171599, Note_on_c, 6, 50, 0
12, 187200, Note_on_c, 6, 50, 76
12, 187439, Note_on_c, 6, 50, 0
12, 188640, Note_on_c, 6, 50, 76
12, 188879, Note_on_c, 6, 50, 0
12, 192240, Note_on_c, 6, 50, 84
12, 192419, Note_on_c, 6, 50, 0
12, 192480, Note_on_c, 6, 45, 84
12, 192659, Note_on_c, 6, 45, 0
12, 192720, Note_on_c, 6, 50, 84
12, 192899, Note_on_c, 6, 50, 0
12, 192960, Note_on_c, 6, 50, 76
12, 193199, Note_on_c, 6, 50, 0
12, 194400, Note_on_c, 6, 50, 76
12, 194639, Note_on_c, 6, 50, 0
12, 198000, Note_on_c, 6, 45, 84
12, 198179, Note_on_c, 6, 45, 0
12, 198240, Note_on_c, 6, 45, 84
12, 198419, Note_on_c, 6, 45, 0
12, 198480, Note_on_c, 6, 45, 84
12, 198659, Note_on_c, 6, 45, 0
12, 198720, Note_on_c, 6, 50, 76
12, 198959, Note_on_c, 6, 50, 0
12, 200160, Note_on_c, 6, 50, 76
12, 200399, Note_on_c, 6, 50, 0
12, 203760, Note_on_c, 6, 50, 84
12, 203939, Note_on_c, 6, 50, 0
12, 204000, Note_on_c, 6, 45, 84
12, 204179, Note_on_c, 6, 45, 0
12, 204240, Note_on_c, 6, 50, 84
12, 204419, Note_on_c, 6, 50, 0
12, 204480, Note_on_c, 6, 50, 76
12, 204719, Note_on_c, 6, 50, 0
12, 205920, Note_on_c, 6, 50, 76
12, 206159, Note_on_c, 6, 50, 0
12, 209520, Note_on_c, 6, 45, 84
12, 209699, Note_on_c, 6, 45, 0
12, 209760, Note_on_c, 6, 45, 84
12, 209939, Note_on_c, 6, 45, 0
12, 210000, Note_on_c, 6, 45, 84
12, 210179, Note_on_c, 6, 45, 0
12, 226080, Note_on_c, 6, 50, 76
12, 226319, Note_on_c, 6, 50, 0
12, 227520, Note_on_c, 6, 50, 76
12, 227759, Note_on_c, 6, 50, 0
12, 231120, Note_on_c, 6, 50, 84
12, 231299, Note_on_c, 6, 50, 0
12, 231360, Note_on_c, 6, 45, 84
12, 231539, Note_on_c, 6, 45, 0
12, 231600, Note_on_c, 6, 50, 84
12, 231779, Note_on_c, 6, 50, 0
12, 231840, Note_on_c, 6, 50, 76
12, 232079, Note_on_c, 6, 50, 0
12, 233280, Note_on_c, 6, 50, 76
12, 233519, Note_on_c, 6, 50, 0
12, 244800, Note_on_c, 6, 45, 76
12, 245039, Note_on_c, 6, 45, 0
12, 245520, Note_on_c, 6, 50, 76
12, 245759, Note_on_c, 6, 50, 0
12, 250560, Note_on_c, 6, 45, 76
12, 250799, Note_on_c, 6, 45, 0
12, 251280, Note_on_c, 6, 50, 76
12, 251519, Note_on_c, 6, 50, 0
12, 253440, Note_on_c, 6, 45, 84
12, 253679, Note_on_c, 6, 45, 0
12, 254160, Note_on_c, 6, 50, 76
12, 254399, Note_on_c, 6, 50, 0
12, 254880, Note_on_c, 6, 45, 76
12, 255119, Note_on_c, 6, 45, 0
12, 255600, Note_on_c, 6, 50, 76
12, 255839, Note_on_c, 6, 50, 0
12, 256320, Note_on_c, 6, 45, 84
12, 256439, Note_on_c, 6, 45, 0
12, 256440, Note_on_c, 6, 45, 84
12, 256559, Note_on_c, 6, 45, 0
12, 256560, Note_on_c, 6, 45, 84
12, 256679, Note_on_c, 6, 45, 0
12, 256680, Note_on_c, 6, 45, 84
12, 256799, Note_on_c, 6, 45, 0
12, 256800, Note_on_c, 6, 45, 84
12, 256919, Note_on_c, 6, 45, 0
12, 256920, Note_on_c, 6, 45, 84
12, 257039, Note_on_c, 6, 45, 0
12, 257040, Note_on_c, 6, 45, 84
12, 257159, Note_on_c, 6, 45, 0
12, 257160, Note_on_c, 6, 45, 84
12, 257279, Note_on_c, 6, 45, 0
12, 257280, Note_on_c, 6, 45, 84
12, 257399, Note_on_c, 6, 45, 0
12, 257400, Note_on_c, 6, 45, 84
12, 257519, Note_on_c, 6, 45, 0
12, 257520, Note_on_c, 6, 45, 84
12, 257639, Note_on_c, 6, 45, 0
12, 257640, Note_on_c, 6, 45, 84
12, 257759, Note_on_c, 6, 45, 0
12, 257760, Note_on_c, 6, 50, 84
12, 257999, Note_on_c, 6, 50, 0
12, 258240, Note_on_c, 6, 45, 84
12, 258419, Note_on_c, 6, 45, 0
12, 258480, Note_on_c, 6, 50, 84
12, 258659, Note_on_c, 6, 50, 0
12, 275040, Note_on_c, 6, 50, 76
12, 275279, Note_on_c, 6, 50, 0
12, 276480, Note_on_c, 6, 50, 76
12, 276719, Note_on_c, 6, 50, 0
12, 280080, Note_on_c, 6, 50, 84
12, 280259, Note_on_c, 6, 50, 0
12, 280320, Note_on_c, 6, 45, 84
12, 280499, Note_on_c, 6, 45, 0
12, 280560, Note_on_c, 6, 50, 84
12, 280739, Note_on_c, 6, 50, 0
12, 280800, Note_on_c, 6, 50, 76
12, 281039, Note_on_c, 6, 50, 0
12, 282240, Note_on_c, 6, 50, 76
12, 282479, Note_on_c, 6, 50, 0
12, 293760, Note_on_c, 6, 45, 76
12, 293999, Note_on_c, 6, 45, 0
12, 294480, Note_on_c, 6, 50, 76
12, 294719, Note_on_c, 6, 50, 0
12, 299520, Note_on_c, 6, 45, 76
12, 299759, Note_on_c, 6, 45, 0
12, 300240, Note_on_c, 6, 50, 76
12, 300479, Note_on_c, 6, 50, 0
12, 302400, Note_on_c, 6, 45, 84
12, 302639, Note_on_c, 6, 45, 0
12, 303120, Note_on_c, 6, 50, 76
12, 303359, Note_on_c, 6, 50, 0
12, 303840, Note_on_c, 6, 45, 76
12, 304079, Note_on_c, 6, 45, 0
12, 304560, Note_on_c, 6, 50, 76
12, 304799, Note_on_c, 6, 50, 0
12, 305280, Note_on_c, 6, 45, 84
12, 305399, Note_on_c, 6, 45, 0
12, 305400, Note_on_c, 6, 45, 84
12, 305519, Note_on_c, 6, 45, 0
12, 305520, Note_on_c, 6, 45, 84
12, 305639, Note_on_c, 6, 45, 0
12, 305640, Note_on_c, 6, 45, 84
12, 305759, Note_on_c, 6, 45, 0
12, 305760, Note_on_c, 6, 45, 84
12, 305879, Note_on_c, 6, 45, 0
12, 305880, Note_on_c, 6, 45, 84
12, 305999, Note_on_c, 6, 45, 0
12, 306000, Note_on_c, 6, 45, 84
12, 306119, Note_on_c, 6, 45, 0
12, 306120, Note_on_c, 6, 45, 84
12, 306239, Note_on_c, 6, 45, 0
12, 306240, Note_on_c, 6, 45, 84
12, 306359, Note_on_c, 6, 45, 0
12, 306360, Note_on_c, 6, 45, 84
12, 306479, Note_on_c, 6, 45, 0
12, 306480, Note_on_c, 6, 45, 84
12, 306599, Note_on_c, 6, 45, 0
12, 306600, Note_on_c, 6, 45, 84
12, 306719, Note_on_c, 6, 45, 0
12, 306720, Note_on_c, 6, 50, 84
12, 306959, Note_on_c, 6, 50, 0
12, 307200, Note_on_c, 6, 45, 84
12, 307379, Note_on_c, 6, 45, 0
12, 307440, Note_on_c, 6, 50, 84
12, 307619, Note_on_c, 6, 50, 0
12, 307619, End_track
13, 0, Start_track
13, 0, Title_t, "Violin I"
13, 0, MIDI_port, 0
13, 0, Program_c, 11, 48
13, 0, Control_c, 11, 7, 96
13, 0, Control_c, 11, 10, 48
13, 0, Control_c, 11, 11, 127
13, 0, Note_on_c, 11, 62, 76
13, 689, Note_on_c, 11, 62, 0
13, 720, Note_on_c, 11, 78, 52
13, 899, Note_on_c, 11, 78, 0
13, 960, Note_on_c, 11, 79, 52
13, 1139, Note_on_c, 11, 79, 0
13, 1200, Note_on_c, 11, 81, 52
13, 1379, Note_on_c, 11, 81, 0
13, 1440, Note_on_c, 11, 55, 76
13, 1440, Note_on_c, 11, 64, 76
13, 2129, Note_on_c, 11, 55, 0
13, 2129, Note_on_c, 11, 64, 0
13, 2160, Note_on_c, 11, 79, 52
13, 2339, Note_on_c, 11, 79, 0
13, 2400, Note_on_c, 11, 81, 52
13, 2579, Note_on_c, 11, 81, 0
13, 2640, Note_on_c, 11, 83, 52
13, 2819, Note_on_c, 11, 83, 0
13, 3600, Note_on_c, 11, 76, 52
13, 3779, Note_on_c, 11, 76, 0
13, 3840, Note_on_c, 11, 78, 52
13, 4019, Note_on_c, 11, 78, 0
13, 4080, Note_on_c, 11, 79, 52
13, 4259, Note_on_c, 11, 79, 0
13, 5040, Note_on_c, 11, 86, 84
13, 5219, Note_on_c, 11, 86, 0
13, 5280, Note_on_c, 11, 85, 84
13, 5459, Note_on_c, 11, 85, 0
13, 5520, Note_on_c, 11, 86, 84
13, 5699, Note_on_c, 11, 86, 0
13, 5760, Note_on_c, 11, 62, 76
13, 6449, Note_on_c, 11, 62, 0
13, 6480, Note_on_c, 11, 78, 52
13, 6659, Note_on_c, 11, 78, 0
13, 6720, Note_on_c, 11, 79, 52
13, 6899, Note_on_c, 11, 79, 0
13, 6960, Note_on_c, 11, 81, 52
13, 7139, Note_on_c, 11, 81, 0
13, 7200, Note_on_c, 11, 64, 76
13, 7889, Note_on_c, 11, 64, 0
13, 7920, Note_on_c, 11, 83, 52
13, 8099, Note_on_c, 11, 83, 0
13, 8160, Note_on_c, 11, 85, 52
13, 8339, Note_on_c, 11, 85, 0
13, 8400, Note_on_c, 11, 86, 52
13, 8579, Note_on_c, 11, 86, 0
13, 9360, Note_on_c, 11, 83, 52
13, 9539, Note_on_c, 11, 83, 0
13, 9600, Note_on_c, 11, 85, 52
13, 9779, Note_on_c, 11, 85, 0
13, 9840, Note_on_c, 11, 86, 52
13, 10019, Note_on_c, 11, 86, 0
13, 10800, Note_on_c, 11, 81, 84
13, 10979, Note_on_c, 11, 81, 0
13, 11040, Note_on_c, 11, 80, 84
13, 11219, Note_on_c, 11, 80, 0
13, 11280, Note_on_c, 11, 81, 84
13, 11459, Note_on_c, 11, 81, 0
13, 11520, Note_on_c, 11, 62, 76
13, 12209, Note_on_c, 11, 62, 0
13, 12240, Note_on_c, 11, 78, 52
13, 12419, Note_on_c, 11, 78, 0
13, 12480, Note_on_c, 11, 79, 52
13, 12659, Note_on_c, 11, 79, 0
13, 12720, Note_on_c, 11, 81, 52
13, 12899, Note_on_c, 11, 81, 0
13, 12960, Note_on_c, 11, 64, 76
13, 12960, Note_on_c, 11, 55, 76
13, 13649, Note_on_c, 11, 64, 0
13, 13649, Note_on_c, 11, 55, 0
13, 13680, Note_on_c, 11, 79, 52
13, 13859, Note_on_c, 11, 79, 0
13, 13920, Note_on_c, 11, 81, 52
13, 14099, Note_on_c, 11, 81, 0
13, 14160, Note_on_c, 11, 83, 52
13, 14339, Note_on_c, 11, 83, 0
13, 15120, Note_on_c, 11, 76, 52
13, 15299, Note_on_c, 11, 76, 0
13, 15360, Note_on_c, 11, 78, 52
13, 15539, Note_on_c, 11, 78, 0
13, 15600, Note_on_c, 11, 79, 52
13, 15779, Note_on_c, 11, 79, 0
13, 16560, Note_on_c, 11, 86, 84
13, 16739, Note_on_c, 11, 86, 0
13, 16800, Note_on_c, 11, 85, 84
13, 16979, Note_on_c, 11, 85, 0
13, 17040, Note_on_c, 11, 86, 84
13, 17219, Note_on_c, 11, 86, 0
13, 17280, Note_on_c, 11, 62, 76
13, 17969, Note_on_c, 11, 62, 0
13, 18000, Note_on_c, 11, 78, 52
13, 18179, Note_on_c, 11, 78, 0
13, 18240, Note_on_c, 11, 79, 52
13, 18419, Note_on_c, 11, 79, 0
13, 18480, Note_on_c, 11, 81, 52
13, 18659, Note_on_c, 11, 81, 0
13, 18720, Note_on_c, 11, 64, 76
13, 19409, Note_on_c, 11, 64, 0
13, 19440, Note_on_c, 11, 83, 52
13, 19619, Note_on_c, 11, 83, 0
13, 19680, Note_on_c, 11, 85, 52
13, 19859, Note_on_c, 11, 85, 0
13, 19920, Note_on_c, 11, 86, 52
13, 20099, Note_on_c, 11, 86, 0
13, 20880, Note_on_c, 11, 83, 52
13, 21059, Note_on_c, 11, 83, 0
13, 21120, Note_on_c, 11, 85, 52
13, 21299, Note_on_c, 11, 85, 0
13, 21360, Note_on_c, 11, 86, 52
13, 21539, Note_on_c, 11, 86, 0
13, 22320, Note_on_c, 11, 81, 84
13, 22499, Note_on_c, 11, 81, 0
13, 22560, Note_on_c, 11, 80, 84
13, 22739, Note_on_c, 11, 80, 0
13, 22800, Note_on_c, 11, 81, 84
13, 22979, Note_on_c, 11, 81, 0
13, 23040, Note_on_c, 11, 69, 52
13, 23729, Note_on_c, 11, 69, 0
13, 23760, Note_on_c, 11, 77, 52
13, 23939, Note_on_c, 11, 77, 0
13, 24000, Note_on_c, 11, 76, 52
13, 24179, Note_on_c, 11, 76, 0
13, 24240, Note_on_c, 11, 77, 52
13, 24419, Note_on_c, 11, 77, 0
13, 24480, Note_on_c, 11, 65, 52
13, 25169, Note_on_c, 11, 65, 0
13, 25200, Note_on_c, 11, 74, 52
13, 25379, Note_on_c, 11, 74, 0
13, 25440, Note_on_c, 11, 73, 52
13, 25619, Note_on_c, 11, 73, 0
13, 25680, Note_on_c, 11, 74, 52
13, 25859, Note_on_c, 11, 74, 0
13, 25920, Note_on_c, 11, 58, 52
13, 26099, Note_on_c, 11, 58, 0
13, 26160, Note_on_c, 11, 77, 76
13, 26280, Control_c, 11, 11, 80
13, 27089, Note_on_c, 11, 77, 0
13, 27120, Note_on_c, 11, 74, 76
13, 27239, Note_on_c, 11, 74, 0
13, 27240, Note_on_c, 11, 70, 76
13, 27329, Note_on_c, 11, 70, 0
13, 27360, Note_on_c, 11, 69, 76
13, 27479, Note_on_c, 11, 69, 0
13, 27480, Note_on_c, 11, 72, 76
13, 27599, Note_on_c, 11, 72, 0
13, 27600, Note_on_c, 11, 75, 76
13, 27719, Note_on_c, 11, 75, 0
13, 27720, Note_on_c, 11, 74, 76
13, 27839, Note_on_c, 11, 74, 0
13, 27840, Note_on_c, 11, 72, 76
13, 27959, Note_on_c, 11, 72, 0
13, 27960, Note_on_c, 11, 70, 76
13, 28079, Note_on_c, 11, 70, 0
13, 28080, Note_on_c, 11, 69, 76
13, 28199, Note_on_c, 11, 69, 0
13, 28200, Note_on_c, 11, 67, 76
13, 28319, Note_on_c, 11, 67, 0
13, 28320, Note_on_c, 11, 65, 76
13, 28439, Note_on_c, 11, 65, 0
13, 28440, Note_on_c, 11, 63, 76
13, 28559, Note_on_c, 11, 63, 0
13, 28560, Note_on_c, 11, 62, 76
13, 28679, Note_on_c, 11, 62, 0
13, 28680, Note_on_c, 11, 60, 76
13, 28769, Note_on_c, 11, 60, 0
13, 28800, Note_on_c, 11, 58, 76
13, 28979, Note_on_c, 11, 58, 0
13, 29040, Control_c, 11, 11, 127
13, 29040, Note_on_c, 11, 77, 76
13, 29160, Control_c, 11, 11, 80
13, 29969, Note_on_c, 11, 77, 0
13, 30000, Note_on_c, 11, 74, 76
13, 30119, Note_on_c, 11, 74, 0
13, 30120, Note_on_c, 11, 70, 76
13, 30209, Note_on_c, 11, 70, 0
13, 30240, Note_on_c, 11, 69, 76
13, 30359, Note_on_c, 11, 69, 0
13, 30360, Note_on_c, 11, 72, 76
13, 30479, Note_on_c, 11, 72, 0
13, 30480, Note_on_c, 11, 75, 76
13, 30599, Note_on_c, 11, 75, 0
13, 30600, Note_on_c, 11, 74, 76
13, 30719, Note_on_c, 11, 74, 0
13, 30720, Note_on_c, 11, 72, 76
13, 30839, Note_on_c, 11, 72, 0
13, 30840, Note_on_c, 11, 70, 76
13, 30959, Note_on_c, 11, 70, 0
13, 30960, Note_on_c, 11, 69, 76
13, 31079, Note_on_c, 11, 69, 0
13, 31080, Note_on_c, 11, 67, 76
13, 31199, Note_on_c, 11, 67, 0
13, 31200, Note_on_c, 11, 65, 76
13, 31319, Note_on_c, 11, 65, 0
13, 31320, Note_on_c, 11, 63, 76
13, 31439, Note_on_c, 11, 63, 0
13, 31440, Note_on_c, 11, 62, 76
13, 31559, Note_on_c, 11, 62, 0
13, 31560, Note_on_c, 11, 60, 76
13, 31649, Note_on_c, 11, 60, 0
13, 31680, Note_on_c, 11, 58, 76
13, 31859, Note_on_c, 11, 58, 0
13, 31920, Note_on_c, 11, 74, 76
13, 32039, Note_on_c, 11, 74, 0
13, 32040, Note_on_c, 11, 73, 76
13, 32159, Note_on_c, 11, 73, 0
13, 32160, Note_on_c, 11, 74, 76
13, 32279, Note_on_c, 11, 74, 0
13, 32280, Note_on_c, 11, 76, 76
13, 32369, Note_on_c, 11, 76, 0
13, 32400, Note_on_c, 11, 77, 76
13, 32579, Note_on_c, 11, 77, 0
13, 32640, Note_on_c, 11, 74, 76
13, 32759, Note_on_c, 11, 74, 0
13, 32760, Note_on_c, 11, 73, 76
13, 32879, Note_on_c, 11, 73, 0
13, 32880, Note_on_c, 11, 74, 76
13, 32999, Note_on_c, 11, 74, 0
13, 33000, Note_on_c, 11, 76, 76
13, 33089, Note_on_c, 11, 76, 0
13, 33120, Note_on_c, 11, 77, 76
13, 33299, Note_on_c, 11, 77, 0
13, 33360, Note_on_c, 11, 74, 76
13, 33479, Note_on_c, 11, 74, 0
13, 33480, Note_on_c, 11, 73, 76
13, 33599, Note_on_c, 11, 73, 0
13, 33600, Note_on_c, 11, 74, 76
13, 33719, Note_on_c, 11, 74, 0
13, 33720, Note_on_c, 11, 76, 76
13, 33809, Note_on_c, 11, 76, 0
13, 33840, Note_on_c, 11, 77, 76
13, 34019, Note_on_c, 11, 77, 0
13, 34080, Note_on_c, 11, 79, 76
13, 34199, Note_on_c, 11, 79, 0
13, 34200, Note_on_c, 11, 77, 76
13, 34319, Note_on_c, 11, 77, 0
13, 34320, Note_on_c, 11, 76, 76
13, 34439, Note_on_c, 11, 76, 0
13, 34440, Note_on_c, 11, 74, 76
13, 34529, Note_on_c, 11, 74, 0
13, 34560, Note_on_c, 11, 73, 68
13, 34739, Note_on_c, 11, 73, 0
13, 34800, Note_on_c, 11, 74, 68
13, 34919, Note_on_c, 11, 74, 0
13, 34920, Note_on_c, 11, 73, 68
13, 35039, Note_on_c, 11, 73, 0
13, 35040, Note_on_c, 11, 71, 68
13, 35159, Note_on_c, 11, 71, 0
13, 35160, Note_on_c, 11, 69, 68
13, 35249, Note_on_c, 11, 69, 0
13, 35280, Note_on_c, 11, 77, 68
13, 35459, Note_on_c, 11, 77, 0
13, 35520, Note_on_c, 11, 79, 68
13, 35639, Note_on_c, 11, 79, 0
13, 35640, Note_on_c, 11, 77, 68
13, 35759, Note_on_c, 11, 77, 0
13, 35760, Note_on_c, 11, 76, 68
13, 35879, Note_on_c, 11, 76, 0
13, 35880, Note_on_c, 11, 74, 68
13, 35969, Note_on_c, 11, 74, 0
13, 35985, Control_c, 11, 11, 64
13, 36000, Note_on_c, 11, 73, 76
13, 36179, Note_on_c, 11, 73, 0
13, 36240, Note_on_c, 11, 74, 76
13, 36240, Control_c, 11, 11, 64
13, 36359, Note_on_c, 11, 74, 0
13, 36360, Note_on_c, 11, 73, 76
13, 36460, Control_c, 11, 11, 69
13, 36479, Note_on_c, 11, 73, 0
13, 36480, Note_on_c, 11, 71, 76
13, 36599, Note_on_c, 11, 71, 0
13, 36600, Note_on_c, 11, 69, 76
13, 36680, Control_c, 11, 11, 75
13, 36689, Note_on_c, 11, 69, 0
13, 36720, Note_on_c, 11, 77, 76
13, 36899, Note_on_c, 11, 77, 0
13, 36900, Control_c, 11, 11, 80
13, 36960, Note_on_c, 11, 79, 76
13, 37079, Note_on_c, 11, 79, 0
13, 37080, Note_on_c, 11, 77, 76
13, 37120, Control_c, 11, 11, 85
13, 37199, Note_on_c, 11, 77, 0
13, 37200, Note_on_c, 11, 76, 76
13, 37319, Note_on_c, 11, 76, 0
13, 37320, Note_on_c, 11, 74, 76
13, 37340, Control_c, 11, 11, 90
13, 37409, Note_on_c, 11, 74, 0
13, 37440, Note_on_c, 11, 73, 76
13, 37560, Control_c, 11, 11, 96
13, 37619, Note_on_c, 11, 73, 0
13, 37680, Note_on_c, 11, 76, 76
13, 37780, Control_c, 11, 11, 101
13, 37799, Note_on_c, 11, 76, 0
13, 37800, Note_on_c, 11, 74, 76
13, 37919, Note_on_c, 11, 74, 0
13, 37920, Note_on_c, 11, 73, 76
13, 38000, Control_c, 11, 11, 106
13, 38039, Note_on_c, 11, 73, 0
13, 38040, Note_on_c, 11, 71, 76
13, 38129, Note_on_c, 11, 71, 0
13, 38160, Note_on_c, 11, 69, 76
13, 38220, Control_c, 11, 11, 111
13, 38279, Note_on_c, 11, 69, 0
13, 38280, Note_on_c, 11, 68, 76
13, 38369, Note_on_c, 11, 68, 0
13, 38400, Note_on_c, 11, 69, 76
13, 38440, Control_c, 11, 11, 117
13, 38489, Note_on_c, 11, 69, 0
13, 38520, Note_on_c, 11, 67, 76
13, 38609, Note_on_c, 11, 67, 0
13, 38640, Note_on_c, 11, 66, 76
13, 38660, Control_c, 11, 11, 122
13, 38729, Note_on_c, 11, 66, 0
13, 38760, Note_on_c, 11, 64, 76
13, 38849, Note_on_c, 11, 64, 0
13, 38880, Control_c, 11, 11, 127
13, 38880, Note_on_c, 11, 62, 76
13, 39569, Note_on_c, 11, 62, 0
13, 39600, Note_on_c, 11, 78, 52
13, 39779, Note_on_c, 11, 78, 0
13, 39840, Note_on_c, 11, 79, 52
13, 40019, Note_on_c, 11, 79, 0
13, 40080, Note_on_c, 11, 81, 52
13, 40259, Note_on_c, 11, 81, 0
13, 40320, Note_on_c, 11, 64, 76
13, 40320, Note_on_c, 11, 55, 76
13, 41009, Note_on_c, 11, 64, 0
13, 41009, Note_on_c, 11, 55, 0
13, 41040, Note_on_c, 11, 79, 52
13, 41219, Note_on_c, 11, 79, 0
13, 41280, Note_on_c, 11, 81, 52
13, 41459, Note_on_c, 11, 81, 0
13, 41520, Note_on_c, 11, 83, 52
13, 41699, Note_on_c, 11, 83, 0
13, 42480, Note_on_c, 11, 76, 52
13, 42659, Note_on_c, 11, 76, 0
13, 42720, Note_on_c, 11, 78, 52
13, 42899, Note_on_c, 11, 78, 0
13, 42960, Note_on_c, 11, 79, 52
13, 43139, Note_on_c, 11, 79, 0
13, 43920, Note_on_c, 11, 86, 84
13, 44099, Note_on_c, 11, 86, 0
13, 44160, Note_on_c, 11, 85, 84
13, 44339, Note_on_c, 11, 85, 0
13, 44400, Note_on_c, 11, 86, 84
13, 44579, Note_on_c, 11, 86, 0
13, 44640, Note_on_c, 11, 62, 76
13, 45329, Note_on_c, 11, 62, 0
13, 45360, Note_on_c, 11, 78, 52
13, 45539, Note_on_c, 11, 78, 0
13, 45600, Note_on_c, 11, 79, 52
13, 45779, Note_on_c, 11, 79, 0
13, 45840, Note_on_c, 11, 81, 52
13, 46019, Note_on_c, 11, 81, 0
13, 46080, Note_on_c, 11, 55, 76
13, 46080, Note_on_c, 11, 64, 76
13, 46769, Note_on_c, 11, 55, 0
13, 46769, Note_on_c, 11, 64, 0
13, 46800, Note_on_c, 11, 79, 52
13, 46979, Note_on_c, 11, 79, 0
13, 47040, Note_on_c, 11, 81, 52
13, 47219, Note_on_c, 11, 81, 0
13, 47280, Note_on_c, 11, 83, 52
13, 47459, Note_on_c, 11, 83, 0
13, 47520, Note_on_c, 11, 67, 52
13, 47699, Note_on_c, 11, 67, 0
13, 47760, Note_on_c, 11, 69, 52
13, 47939, Note_on_c, 11, 69, 0
13, 48000, Note_on_c, 11, 71, 52
13, 48179, Note_on_c, 11, 71, 0
13, 48960, Note_on_c, 11, 67, 52
13, 49139, Note_on_c, 11, 67, 0
13, 49200, Note_on_c, 11, 69, 52
13, 49379, Note_on_c, 11, 69, 0
13, 49440, Note_on_c, 11, 70, 52
13, 49619, Note_on_c, 11, 70, 0
13, 50400, Control_c, 11, 11, 127
13, 50400, Note_on_c, 11, 67, 52
13, 50579, Note_on_c, 11, 67, 0
13, 50640, Control_c, 11, 11, 126
13, 50640, Note_on_c, 11, 69, 52
13, 50819, Note_on_c, 11, 69, 0
13, 50880, Note_on_c, 11, 70, 52
13, 50880, Control_c, 11, 11, 125
13, 51059, Note_on_c, 11, 70, 0
13, 51120, Note_on_c, 11, 67, 52
13, 51120, Control_c, 11, 11, 123
13, 51299, Note_on_c, 11, 67, 0
13, 51360, Note_on_c, 11, 69, 52
13, 51360, Control_c, 11, 11, 122
13, 51539, Note_on_c, 11, 69, 0
13, 51600, Control_c, 11, 11, 121
13, 51600, Note_on_c, 11, 70, 52
13, 51779, Note_on_c, 11, 70, 0
13, 51840, Control_c, 11, 11, 120
13, 51840, Note_on_c, 11, 67, 52
13, 52019, Note_on_c, 11, 67, 0
13, 52080, Control_c, 11, 11, 118
13, 52080, Note_on_c, 11, 69, 52
13, 52259, Note_on_c, 11, 69, 0
13, 52320, Control_c, 11, 11, 117
13, 52320, Note_on_c, 11, 70, 52
13, 52499, Note_on_c, 11, 70, 0
13, 52560, Note_on_c, 11, 67, 52
13, 52560, Control_c, 11, 11, 116
13, 52739, Note_on_c, 11, 67, 0
13, 52800, Note_on_c, 11, 69, 52
13, 52800, Control_c, 11, 11, 115
13, 52979, Note_on_c, 11, 69, 0
13, 53040, Control_c, 11, 11, 113
13, 53040, Note_on_c, 11, 70, 52
13, 53219, Note_on_c, 11, 70, 0
13, 53280, Control_c, 11, 11, 112
13, 53280, Note_on_c, 11, 67, 52
13, 53459, Note_on_c, 11, 67, 0
13, 53520, Note_on_c, 11, 69, 52
13, 53699, Note_on_c, 11, 69, 0
13, 53760, Note_on_c, 11, 70, 52
13, 53939, Note_on_c, 11, 70, 0
13, 54000, Note_on_c, 11, 69, 52
13, 54239, Note_on_c, 11, 69, 0
13, 54480, Control_c, 11, 11, 127
13, 54720, Note_on_c, 11, 64, 44
13, 54899, Note_on_c, 11, 64, 0
13, 54960, Note_on_c, 11, 65, 44
13, 55139, Note_on_c, 11, 65, 0
13, 55200, Note_on_c, 11, 67, 44
13, 55379, Note_on_c, 11, 67, 0
13, 55440, Note_on_c, 11, 65, 44
13, 55679, Note_on_c, 11, 65, 0
13, 57600, Note_on_c, 11, 81, 76
13, 57600, Note_on_c, 11, 69, 76
13, 57839, Note_on_c, 11, 81, 0
13, 57840, Note_on_c, 11, 80, 76
13, 58079, Note_on_c, 11, 80, 0
13, 58080, Note_on_c, 11, 79, 76
13, 58289, Note_on_c, 11, 69, 0
13, 58289, Note_on_c, 11, 79, 0
13, 58320, Note_on_c, 11, 78, 76
13, 58499, Note_on_c, 11, 78, 0
13, 58560, Note_on_c, 11, 76, 76
13, 58739, Note_on_c, 11, 76, 0
13, 58800, Note_on_c, 11, 74, 76
13, 58979, Note_on_c, 11, 74, 0
13, 59040, Note_on_c, 11, 72, 44
13, 59729, Note_on_c, 11, 72, 0
13, 59760, Note_on_c, 11, 77, 44
13, 59939, Note_on_c, 11, 77, 0
13, 60000, Note_on_c, 11, 76, 44
13, 60179, Note_on_c, 11, 76, 0
13, 60240, Note_on_c, 11, 77, 44
13, 60419, Note_on_c, 11, 77, 0
13, 60480, Note_on_c, 11, 69, 44
13, 61169, Note_on_c, 11, 69, 0
13, 61200, Note_on_c, 11, 74, 44
13, 61379, Note_on_c, 11, 74, 0
13, 61440, Note_on_c, 11, 73, 44
13, 61619, Note_on_c, 11, 73, 0
13, 61680, Note_on_c, 11, 74, 44
13, 61859, Note_on_c, 11, 74, 0
13, 63360, Note_on_c, 11, 81, 76
13, 63360, Note_on_c, 11, 69, 76
13, 63599, Note_on_c, 11, 81, 0
13, 63600, Note_on_c, 11, 80, 76
13, 63839, Note_on_c, 11, 80, 0
13, 63840, Note_on_c, 11, 79, 76
13, 64049, Note_on_c, 11, 69, 0
13, 64049, Note_on_c, 11, 79, 0
13, 64080, Note_on_c, 11, 78, 76
13, 64259, Note_on_c, 11, 78, 0
13, 64320, Note_on_c, 11, 76, 76
13, 64499, Note_on_c, 11, 76, 0
13, 64560, Note_on_c, 11, 74, 76
13, 64739, Note_on_c, 11, 74, 0
13, 66240, Note_on_c, 11, 69, 84
13, 66240, Note_on_c, 11, 81, 84
13, 66479, Note_on_c, 11, 81, 0
13, 66480, Note_on_c, 11, 80, 76
13, 66719, Note_on_c, 11, 80, 0
13, 66720, Note_on_c, 11, 79, 76
13, 66929, Note_on_c, 11, 69, 0
13, 66929, Note_on_c, 11, 79, 0
13, 66960, Note_on_c, 11, 78, 76
13, 67139, Note_on_c, 11, 78, 0
13, 67200, Note_on_c, 11, 74, 76
13, 67379, Note_on_c, 11, 74, 0
13, 67440, Note_on_c, 11, 78, 76
13, 67619, Note_on_c, 11, 78, 0
13, 67680, Note_on_c, 11, 69, 84
13, 67680, Note_on_c, 11, 81, 84
13, 67919, Note_on_c, 11, 81, 0
13, 67920, Note_on_c, 11, 80, 76
13, 68159, Note_on_c, 11, 80, 0
13, 68160, Note_on_c, 11, 79, 76
13, 68369, Note_on_c, 11, 69, 0
13, 68369, Note_on_c, 11, 79, 0
13, 68400, Note_on_c, 11, 78, 76
13, 68579, Note_on_c, 11, 78, 0
13, 68640, Note_on_c, 11, 74, 76
13, 68819, Note_on_c, 11, 74, 0
13, 68880, Note_on_c, 11, 78, 76
13, 69059, Note_on_c, 11, 78, 0
13, 69120, Note_on_c, 11, 81, 84
13, 69120, Note_on_c, 11, 69, 84
13, 70079, Note_on_c, 11, 81, 0
13, 70080, Note_on_c, 11, 80, 84
13, 70319, Note_on_c, 11, 80, 0
13, 70320, Note_on_c, 11, 79, 84
13, 70529, Note_on_c, 11, 69, 0
13, 70529, Note_on_c, 11, 79, 0
13, 70560, Note_on_c, 11, 78, 84
13, 70799, Note_on_c, 11, 78, 0
13, 71040, Note_on_c, 11, 85, 84
13, 71040, Note_on_c, 11, 69, 84
13, 71219, Note_on_c, 11, 85, 0
13, 71219, Note_on_c, 11, 69, 0
13, 71280, Note_on_c, 11, 69, 84
13, 71280, Note_on_c, 11, 62, 84
13, 71280, Note_on_c, 11, 86, 84
13, 71459, Note_on_c, 11, 69, 0
13, 71459, Note_on_c, 11, 62, 0
13, 71459, Note_on_c, 11, 86, 0
13, 72000, Note_on_c, 11, 69, 52
13, 72689, Note_on_c, 11, 69, 0
13, 72720, Note_on_c, 11, 77, 52
13, 72899, Note_on_c, 11, 77, 0
13, 72960, Note_on_c, 11, 76, 52
13, 73139, Note_on_c, 11, 76, 0
13, 73200, Note_on_c, 11, 77, 52
13, 73379, Note_on_c, 11, 77, 0
13, 73440, Note_on_c, 11, 65, 52
13, 74129, Note_on_c, 11, 65, 0
13, 74160, Note_on_c, 11, 74, 52
13, 74339, Note_on_c, 11, 74, 0
13, 74400, Note_on_c, 11, 73, 52
13, 74579, Note_on_c, 11, 73, 0
13, 74640, Note_on_c, 11, 74, 52
13, 74819, Note_on_c, 11, 74, 0
13, 74880, Note_on_c, 11, 58, 52
13, 75059, Note_on_c, 11, 58, 0
13, 75120, Note_on_c, 11, 77, 76
13, 75240, Control_c, 11, 11, 80
13, 76049, Note_on_c, 11, 77, 0
13, 76080, Note_on_c, 11, 74, 76
13, 76199, Note_on_c, 11, 74, 0
13, 76200, Note_on_c, 11, 70, 76
13, 76289, Note_on_c, 11, 70, 0
13, 76320, Note_on_c, 11, 69, 76
13, 76439, Note_on_c, 11, 69, 0
13, 76440, Note_on_c, 11, 72, 76
13, 76559, Note_on_c, 11, 72, 0
13, 76560, Note_on_c, 11, 75, 76
13, 76679, Note_on_c, 11, 75, 0
13, 76680, Note_on_c, 11, 74, 76
13, 76799, Note_on_c, 11, 74, 0
13, 76800, Note_on_c, 11, 72, 76
13, 76919, Note_on_c, 11, 72, 0
13, 76920, Note_on_c, 11, 70, 76
13, 77039, Note_on_c, 11, 70, 0
13, 77040, Note_on_c, 11, 69, 76
13, 77159, Note_on_c, 11, 69, 0
13, 77160, Note_on_c, 11, 67, 76
13, 77279, Note_on_c, 11, 67, 0
13, 77280, Note_on_c, 11, 65, 76
13, 77399, Note_on_c, 11, 65, 0
13, 77400, Note_on_c, 11, 63, 76
13, 77519, Note_on_c, 11, 63, 0
13, 77520, Note_on_c, 11, 62, 76
13, 77639, Note_on_c, 11, 62, 0
13, 77640, Note_on_c, 11, 60, 76
13, 77729, Note_on_c, 11, 60, 0
13, 77760, Note_on_c, 11, 58, 76
13, 77939, Note_on_c, 11, 58, 0
13, 78000, Note_on_c, 11, 77, 76
13, 78000, Control_c, 11, 11, 127
13, 78120, Control_c, 11, 11, 80
13, 78929, Note_on_c, 11, 77, 0
13, 78960, Note_on_c, 11, 74, 76
13, 79079, Note_on_c, 11, 74, 0
13, 79080, Note_on_c, 11, 70, 76
13, 79169, Note_on_c, 11, 70, 0
13, 79200, Note_on_c, 11, 69, 76
13, 79319, Note_on_c, 11, 69, 0
13, 79320, Note_on_c, 11, 72, 76
13, 79439, Note_on_c, 11, 72, 0
13, 79440, Note_on_c, 11, 75, 76
13, 79559, Note_on_c, 11, 75, 0
13, 79560, Note_on_c, 11, 74, 76
13, 79679, Note_on_c, 11, 74, 0
13, 79680, Note_on_c, 11, 72, 76
13, 79799, Note_on_c, 11, 72, 0
13, 79800, Note_on_c, 11, 70, 76
13, 79919, Note_on_c, 11, 70, 0
13, 79920, Note_on_c, 11, 69, 76
13, 80039, Note_on_c, 11, 69, 0
13, 80040, Note_on_c, 11, 67, 76
13, 80159, Note_on_c, 11, 67, 0
13, 80160, Note_on_c, 11, 65, 76
13, 80279, Note_on_c, 11, 65, 0
13, 80280, Note_on_c, 11, 63, 76
13, 80399, Note_on_c, 11, 63, 0
13, 80400, Note_on_c, 11, 62, 76
13, 80519, Note_on_c, 11, 62, 0
13, 80520, Note_on_c, 11, 60, 76
13, 80609, Note_on_c, 11, 60, 0
13, 80640, Note_on_c, 11, 58, 76
13, 80819, Note_on_c, 11, 58, 0
13, 80880, Note_on_c, 11, 74, 76
13, 80999, Note_on_c, 11, 74, 0
13, 81000, Note_on_c, 11, 73, 76
13, 81119, Note_on_c, 11, 73, 0
13, 81120, Note_on_c, 11, 74, 76
13, 81239, Note_on_c, 11, 74, 0
13, 81240, Note_on_c, 11, 76, 76
13, 81329, Note_on_c, 11, 76, 0
13, 81360, Note_on_c, 11, 77, 76
13, 81539, Note_on_c, 11, 77, 0
13, 81600, Note_on_c, 11, 74, 76
13, 81719, Note_on_c, 11, 74, 0
13, 81720, Note_on_c, 11, 73, 76
13, 81839, Note_on_c, 11, 73, 0
13, 81840, Note_on_c, 11, 74, 76
13, 81959, Note_on_c, 11, 74, 0
13, 81960, Note_on_c, 11, 76, 76
13, 82049, Note_on_c, 11, 76, 0
13, 82080, Note_on_c, 11, 77, 76
13, 82259, Note_on_c, 11, 77, 0
13, 82320, Note_on_c, 11, 74, 76
13, 82439, Note_on_c, 11, 74, 0
13, 82440, Note_on_c, 11, 73, 76
13, 82559, Note_on_c, 11, 73, 0
13, 82560, Note_on_c, 11, 74, 76
13, 82679, Note_on_c, 11, 74, 0
13, 82680, Note_on_c, 11, 76, 76
13, 82769, Note_on_c, 11, 76, 0
13, 82800, Note_on_c, 11, 77, 76
13, 82979, Note_on_c, 11, 77, 0
13, 83040, Note_on_c, 11, 79, 76
13, 83159, Note_on_c, 11, 79, 0
13, 83160, Note_on_c, 11, 77, 76
13, 83279, Note_on_c, 11, 77, 0
13, 83280, Note_on_c, 11, 76, 76
13, 83399, Note_on_c, 11, 76, 0
13, 83400, Note_on_c, 11, 74, 76
13, 83489, Note_on_c, 11, 74, 0
13, 83520, Note_on_c, 11, 73, 68
13, 83699, Note_on_c, 11, 73, 0
13, 83760, Note_on_c, 11, 74, 68
13, 83879, Note_on_c, 11, 74, 0
13, 83880, Note_on_c, 11, 73, 68
13, 83999, Note_on_c, 11, 73, 0
13, 84000, Note_on_c, 11, 71, 68
13, 84119, Note_on_c, 11, 71, 0
13, 84120, Note_on_c, 11, 69, 68
13, 84209, Note_on_c, 11, 69, 0
13, 84240, Note_on_c, 11, 77, 68
13, 84419, Note_on_c, 11, 77, 0
13, 84480, Note_on_c, 11, 79, 68
13, 84599, Note_on_c, 11, 79, 0
13, 84600, Note_on_c, 11, 77, 68
13, 84719, Note_on_c, 11, 77, 0
13, 84720, Note_on_c, 11, 76, 68
13, 84839, Note_on_c, 11, 76, 0
13, 84840, Note_on_c, 11, 74, 68
13, 84929, Note_on_c, 11, 74, 0
13, 84945, Control_c, 11, 11, 64
13, 84960, Note_on_c, 11, 73, 76
13, 85139, Note_on_c, 11, 73, 0
13, 85200, Note_on_c, 11, 74, 76
13, 85200, Control_c, 11, 11, 64
13, 85319, Note_on_c, 11, 74, 0
13, 85320, Note_on_c, 11, 73, 76
13, 85420, Control_c, 11, 11, 69
13, 85439, Note_on_c, 11, 73, 0
13, 85440, Note_on_c, 11, 71, 76
13, 85559, Note_on_c, 11, 71, 0
13, 85560, Note_on_c, 11, 69, 76
13, 85640, Control_c, 11, 11, 75
13, 85649, Note_on_c, 11, 69, 0
13, 85680, Note_on_c, 11, 77, 76
13, 85859, Note_on_c, 11, 77, 0
13, 85860, Control_c, 11, 11, 80
13, 85920, Note_on_c, 11, 79, 76
13, 86039, Note_on_c, 11, 79, 0
13, 86040, Note_on_c, 11, 77, 76
13, 86080, Control_c, 11, 11, 85
13, 86159, Note_on_c, 11, 77, 0
13, 86160, Note_on_c, 11, 76, 76
13, 86279, Note_on_c, 11, 76, 0
13, 86280, Note_on_c, 11, 74, 76
13, 86300, Control_c, 11, 11, 90
13, 86369, Note_on_c, 11, 74, 0
13, 86400, Note_on_c, 11, 73, 76
13, 86520, Control_c, 11, 11, 96
13, 86579, Note_on_c, 11, 73, 0
13, 86640, Note_on_c, 11, 76, 76
13, 86740, Control_c, 11, 11, 101
13, 86759, Note_on_c, 11, 76, 0
13, 86760, Note_on_c, 11, 74, 76
13, 86879, Note_on_c, 11, 74, 0
13, 86880, Note_on_c, 11, 73, 76
13, 86960, Control_c, 11, 11, 106
13, 86999, Note_on_c, 11, 73, 0
13, 87000, Note_on_c, 11, 71, 76
13, 87089, Note_on_c, 11, 71, 0
13, 87120, Note_on_c, 11, 69, 76
13, 87180, Control_c, 11, 11, 111
13, 87239, Note_on_c, 11, 69, 0
13, 87240, Note_on_c, 11, 68, 76
13, 87329, Note_on_c, 11, 68, 0
13, 87360, Note_on_c, 11, 69, 76
13, 87400, Control_c, 11, 11, 117
13, 87449, Note_on_c, 11, 69, 0
13, 87480, Note_on_c, 11, 67, 76
13, 87569, Note_on_c, 11, 67, 0
13, 87600, Note_on_c, 11, 66, 76
13, 87620, Control_c, 11, 11, 122
13, 87689, Note_on_c, 11, 66, 0
13, 87720, Note_on_c, 11, 64, 76
13, 87809, Note_on_c, 11, 64, 0
13, 87840, Note_on_c, 11, 62, 76
13, 87840, Control_c, 11, 11, 127
13, 88529, Note_on_c, 11, 62, 0
13, 88560, Note_on_c, 11, 78, 52
13, 88739, Note_on_c, 11, 78, 0
13, 88800, Note_on_c, 11, 79, 52
13, 88979, Note_on_c, 11, 79, 0
13, 89040, Note_on_c, 11, 81, 52
13, 89219, Note_on_c, 11, 81, 0
13, 89280, Note_on_c, 11, 55, 76
13, 89280, Note_on_c, 11, 64, 76
13, 89969, Note_on_c, 11, 55, 0
13, 89969, Note_on_c, 11, 64, 0
13, 90000, Note_on_c, 11, 79, 52
13, 90179, Note_on_c, 11, 79, 0
13, 90240, Note_on_c, 11, 81, 52
13, 90419, Note_on_c, 11, 81, 0
13, 90480, Note_on_c, 11, 83, 52
13, 90659, Note_on_c, 11, 83, 0
13, 91440, Note_on_c, 11, 76, 52
13, 91619, Note_on_c, 11, 76, 0
13, 91680, Note_on_c, 11, 78, 52
13, 91859, Note_on_c, 11, 78, 0
13, 91920, Note_on_c, 11, 79, 52
13, 92099, Note_on_c, 11, 79, 0
13, 92880, Note_on_c, 11, 86, 84
13, 93059, Note_on_c, 11, 86, 0
13, 93120, Note_on_c, 11, 85, 84
13, 93299, Note_on_c, 11, 85, 0
13, 93360, Note_on_c, 11, 86, 84
13, 93539, Note_on_c, 11, 86, 0
13, 93600, Note_on_c, 11, 62, 76
13, 94289, Note_on_c, 11, 62, 0
13, 94320, Note_on_c, 11, 78, 52
13, 94499, Note_on_c, 11, 78, 0
13, 94560, Note_on_c, 11, 79, 52
13, 94739, Note_on_c, 11, 79, 0
13, 94800, Note_on_c, 11, 81, 52
13, 94979, Note_on_c, 11, 81, 0
13, 95040, Note_on_c, 11, 55, 76
13, 95040, Note_on_c, 11, 64, 76
13, 95729, Note_on_c, 11, 55, 0
13, 95729, Note_on_c, 11, 64, 0
13, 95760, Note_on_c, 11, 79, 52
13, 95939, Note_on_c, 11, 79, 0
13, 96000, Note_on_c, 11, 81, 52
13, 96179, Note_on_c, 11, 81, 0
13, 96240, Note_on_c, 11, 83, 52
13, 96419, Note_on_c, 11, 83, 0
13, 96480, Note_on_c, 11, 67, 52
13, 96659, Note_on_c, 11, 67, 0
13, 96720, Note_on_c, 11, 69, 52
13, 96899, Note_on_c, 11, 69, 0
13, 96960, Note_on_c, 11, 71, 52
13, 97139, Note_on_c, 11, 71, 0
13, 97920, Note_on_c, 11, 67, 52
13, 98099, Note_on_c, 11, 67, 0
13, 98160, Note_on_c, 11, 69, 52
13, 98339, Note_on_c, 11, 69, 0
13, 98400, Note_on_c, 11, 70, 52
13, 98579, Note_on_c, 11, 70, 0
13, 99360, Control_c, 11, 11, 127
13, 99360, Note_on_c, 11, 67, 52
13, 99539, Note_on_c, 11, 67, 0
13, 99600, Control_c, 11, 11, 126
13, 99600, Note_on_c, 11, 69, 52
13, 99779, Note_on_c, 11, 69, 0
13, 99840, Note_on_c, 11, 70, 52
13, 99840, Control_c, 11, 11, 125
13, 100019, Note_on_c, 11, 70, 0
13, 100080, Note_on_c, 11, 67, 52
13, 100080, Control_c, 11, 11, 123
13, 100259, Note_on_c, 11, 67, 0
13, 100320, Control_c, 11, 11, 122
13, 100320, Note_on_c, 11, 69, 52
13, 100499, Note_on_c, 11, 69, 0
13, 100560, Control_c, 11, 11, 121
13, 100560, Note_on_c, 11, 70, 52
13, 100739, Note_on_c, 11, 70, 0
13, 100800, Note_on_c, 11, 67, 52
13, 100800, Control_c, 11, 11, 120
13, 100979, Note_on_c, 11, 67, 0
13, 101040, Note_on_c, 11, 69, 52
13, 101040, Control_c, 11, 11, 118
13, 101219, Note_on_c, 11, 69, 0
13, 101280, Note_on_c, 11, 70, 52
13, 101280, Control_c, 11, 11, 117
13, 101459, Note_on_c, 11, 70, 0
13, 101520, Control_c, 11, 11, 116
13, 101520, Note_on_c, 11, 67, 52
13, 101699, Note_on_c, 11, 67, 0
13, 101760, Note_on_c, 11, 69, 52
13, 101760, Control_c, 11, 11, 115
13, 101939, Note_on_c, 11, 69, 0
13, 102000, Control_c, 11, 11, 113
13, 102000, Note_on_c, 11, 70, 52
13, 102179, Note_on_c, 11, 70, 0
13, 102240, Note_on_c, 11, 67, 52
13, 102240, Control_c, 11, 11, 112
13, 102419, Note_on_c, 11, 67, 0
13, 102480, Note_on_c, 11, 69, 52
13, 102659, Note_on_c, 11, 69, 0
13, 102720, Note_on_c, 11, 70, 52
13, 102899, Note_on_c, 11, 70, 0
13, 102960, Note_on_c, 11, 69, 52
13, 103199, Note_on_c, 11, 69, 0
13, 103440, Control_c, 11, 11, 127
13, 103680, Note_on_c, 11, 64, 44
13, 103859, Note_on_c, 11, 64, 0
13, 103920, Note_on_c, 11, 65, 44
13, 104099, Note_on_c, 11, 65, 0
13, 104160, Note_on_c, 11, 67, 44
13, 104339, Note_on_c, 11, 67, 0
13, 104400, Note_on_c, 11, 65, 44
13, 104639, Note_on_c, 11, 65, 0
13, 106560, Note_on_c, 11, 81, 76
13, 106560, Note_on_c, 11, 69, 76
13, 106799, Note_on_c, 11, 81, 0
13, 106800, Note_on_c, 11, 80, 76
13, 107039, Note_on_c, 11, 80, 0
13, 107040, Note_on_c, 11, 79, 76
13, 107249, Note_on_c, 11, 69, 0
13, 107249, Note_on_c, 11, 79, 0
13, 107280, Note_on_c, 11, 78, 76
13, 107459, Note_on_c, 11, 78, 0
13, 107520, Note_on_c, 11, 76, 76
13, 107699, Note_on_c, 11, 76, 0
13, 107760, Note_on_c, 11, 74, 76
13, 107939, Note_on_c, 11, 74, 0
13, 108000, Note_on_c, 11, 72, 44
13, 108689, Note_on_c, 11, 72, 0
13, 108720, Note_on_c, 11, 77, 44
13, 108899, Note_on_c, 11, 77, 0
13, 108960, Note_on_c, 11, 76, 44
13, 109139, Note_on_c, 11, 76, 0
13, 109200, Note_on_c, 11, 77, 44
13, 109379, Note_on_c, 11, 77, 0
13, 109440, Note_on_c, 11, 69, 44
13, 110129, Note_on_c, 11, 69, 0
13, 110160, Note_on_c, 11, 74, 44
13, 110339, Note_on_c, 11, 74, 0
13, 110400, Note_on_c, 11, 73, 44
13, 110579, Note_on_c, 11, 73, 0
13, 110640, Note_on_c, 11, 74, 44
13, 110819, Note_on_c, 11, 74, 0
13, 112320, Note_on_c, 11, 81, 76
13, 112320, Note_on_c, 11, 69, 76
13, 112559, Note_on_c, 11, 81, 0
13, 112560, Note_on_c, 11, 80, 76
13, 112799, Note_on_c, 11, 80, 0
13, 112800, Note_on_c, 11, 79, 76
13, 113009, Note_on_c, 11, 69, 0
13, 113009, Note_on_c, 11, 79, 0
13, 113040, Note_on_c, 11, 78, 76
13, 113219, Note_on_c, 11, 78, 0
13, 113280, Note_on_c, 11, 76, 76
13, 113459, Note_on_c, 11, 76, 0
13, 113520, Note_on_c, 11, 74, 76
13, 113699, Note_on_c, 11, 74, 0
13, 115200, Note_on_c, 11, 81, 84
13, 115200, Note_on_c, 11, 69, 84
13, 115439, Note_on_c, 11, 81, 0
13, 115440, Note_on_c, 11, 80, 76
13, 115679, Note_on_c, 11, 80, 0
13, 115680, Note_on_c, 11, 79, 76
13, 115889, Note_on_c, 11, 69, 0
13, 115889, Note_on_c, 11, 79, 0
13, 115920, Note_on_c, 11, 78, 76
13, 116099, Note_on_c, 11, 78, 0
13, 116160, Note_on_c, 11, 74, 76
13, 116339, Note_on_c, 11, 74, 0
13, 116400, Note_on_c, 11, 78, 76
13, 116579, Note_on_c, 11, 78, 0
13, 116640, Note_on_c, 11, 81, 84
13, 116640, Note_on_c, 11, 69, 84
13, 116879, Note_on_c, 11, 81, 0
13, 116880, Note_on_c, 11, 80, 76
13, 117119, Note_on_c, 11, 80, 0
13, 117120, Note_on_c, 11, 79, 76
13, 117329, Note_on_c, 11, 69, 0
13, 117329, Note_on_c, 11, 79, 0
13, 117360, Note_on_c, 11, 78, 76
13, 117539, Note_on_c, 11, 78, 0
13, 117600, Note_on_c, 11, 74, 76
13, 117779, Note_on_c, 11, 74, 0
13, 117840, Note_on_c, 11, 78, 76
13, 118019, Note_on_c, 11, 78, 0
13, 118080, Note_on_c, 11, 69, 84
13, 118080, Note_on_c, 11, 81, 84
13, 119039, Note_on_c, 11, 81, 0
13, 119040, Note_on_c, 11, 80, 84
13, 119279, Note_on_c, 11, 80, 0
13, 119280, Note_on_c, 11, 79, 84
13, 119489, Note_on_c, 11, 69, 0
13, 119489, Note_on_c, 11, 79, 0
13, 119520, Note_on_c, 11, 78, 84
13, 119759, Note_on_c, 11, 78, 0
13, 120000, Note_on_c, 11, 85, 84
13, 120000, Note_on_c, 11, 69, 84
13, 120179, Note_on_c, 11, 85, 0
13, 120179, Note_on_c, 11, 69, 0
13, 120240, Note_on_c, 11, 86, 84
13, 120240, Note_on_c, 11, 69, 84
13, 120240, Note_on_c, 11, 62, 84
13, 120419, Note_on_c, 11, 86, 0
13, 120419, Note_on_c, 11, 69, 0
13, 120419, Note_on_c, 11, 62, 0
13, 132480, Note_on_c, 11, 66, 76
13, 133169, Note_on_c, 11, 66, 0
13, 133200, Note_on_c, 11, 66, 84
13, 133889, Note_on_c, 11, 66, 0
13, 133920, Note_on_c, 11, 66, 76
13, 134039, Note_on_c, 11, 66, 0
13, 134040, Note_on_c, 11, 65, 76
13, 134129, Note_on_c, 11, 65, 0
13, 134160, Note_on_c, 11, 66, 76
13, 134279, Note_on_c, 11, 66, 0
13, 134280, Note_on_c, 11, 65, 76
13, 134369, Note_on_c, 11, 65, 0
13, 134400, Note_on_c, 11, 66, 76
13, 134519, Note_on_c, 11, 66, 0
13, 134520, Note_on_c, 11, 65, 76
13, 134609, Note_on_c, 11, 65, 0
13, 134640, Note_on_c, 11, 66, 76
13, 134759, Note_on_c, 11, 66, 0
13, 134760, Note_on_c, 11, 65, 76
13, 134849, Note_on_c, 11, 65, 0
13, 134880, Note_on_c, 11, 66, 76
13, 134999, Note_on_c, 11, 66, 0
13, 135000, Note_on_c, 11, 65, 76
13, 135089, Note_on_c, 11, 65, 0
13, 135120, Note_on_c, 11, 66, 76
13, 135239, Note_on_c, 11, 66, 0
13, 135240, Note_on_c, 11, 65, 76
13, 135329, Note_on_c, 11, 65, 0
13, 135360, Note_on_c, 11, 66, 76
13, 135449, Note_on_c, 11, 66, 0
13, 135480, Note_on_c, 11, 66, 76
13, 135569, Note_on_c, 11, 66, 0
13, 135600, Note_on_c, 11, 70, 76
13, 135689, Note_on_c, 11, 70, 0
13, 135720, Note_on_c, 11, 70, 76
13, 135809, Note_on_c, 11, 70, 0
13, 135840, Note_on_c, 11, 73, 76
13, 135929, Note_on_c, 11, 73, 0
13, 135960, Note_on_c, 11, 73, 76
13, 136049, Note_on_c, 11, 73, 0
13, 136080, Note_on_c, 11, 78, 84
13, 136169, Note_on_c, 11, 78, 0
13, 136200, Note_on_c, 11, 78, 76
13, 136289, Note_on_c, 11, 78, 0
13, 136320, Note_on_c, 11, 73, 76
13, 136409, Note_on_c, 11, 73, 0
13, 136440, Note_on_c, 11, 73, 76
13, 136529, Note_on_c, 11, 73, 0
13, 136560, Note_on_c, 11, 70, 76
13, 136649, Note_on_c, 11, 70, 0
13, 136680, Note_on_c, 11, 70, 76
13, 136769, Note_on_c, 11, 70, 0
13, 136800, Note_on_c, 11, 66, 76
13, 136889, Note_on_c, 11, 66, 0
13, 136920, Note_on_c, 11, 66, 76
13, 137009, Note_on_c, 11, 66, 0
13, 137040, Note_on_c, 11, 70, 76
13, 137129, Note_on_c, 11, 70, 0
13, 137160, Note_on_c, 11, 70, 76
13, 137249, Note_on_c, 11, 70, 0
13, 137280, Note_on_c, 11, 73, 76
13, 137369, Note_on_c, 11, 73, 0
13, 137400, Note_on_c, 11, 73, 76
13, 137489, Note_on_c, 11, 73, 0
13, 137520, Note_on_c, 11, 78, 84
13, 137609, Note_on_c, 11, 78, 0
13, 137640, Note_on_c, 11, 78, 76
13, 137729, Note_on_c, 11, 78, 0
13, 137760, Note_on_c, 11, 73, 76
13, 137849, Note_on_c, 11, 73, 0
13, 137880, Note_on_c, 11, 73, 76
13, 137969, Note_on_c, 11, 73, 0
13, 138000, Note_on_c, 11, 70, 76
13, 138089, Note_on_c, 11, 70, 0
13, 138120, Note_on_c, 11, 70, 76
13, 138209, Note_on_c, 11, 70, 0
13, 138240, Note_on_c, 11, 66, 52
13, 138329, Note_on_c, 11, 66, 0
13, 138360, Note_on_c, 11, 66, 52
13, 138449, Note_on_c, 11, 66, 0
13, 138480, Note_on_c, 11, 66, 52
13, 138569, Note_on_c, 11, 66, 0
13, 138600, Note_on_c, 11, 66, 51
13, 138689, Note_on_c, 11, 66, 0
13, 138720, Note_on_c, 11, 66, 51
13, 138809, Note_on_c, 11, 66, 0
13, 138840, Note_on_c, 11, 66, 51
13, 138929, Note_on_c, 11, 66, 0
13, 138960, Note_on_c, 11, 66, 50
13, 139049, Note_on_c, 11, 66, 0
13, 139080, Note_on_c, 11, 66, 50
13, 139169, Note_on_c, 11, 66, 0
13, 139200, Note_on_c, 11, 66, 50
13, 139289, Note_on_c, 11, 66, 0
13, 139320, Note_on_c, 11, 66, 49
13, 139409, Note_on_c, 11, 66, 0
13, 139440, Note_on_c, 11, 66, 49
13, 139529, Note_on_c, 11, 66, 0
13, 139560, Note_on_c, 11, 66, 49
13, 139649, Note_on_c, 11, 66, 0
13, 139680, Note_on_c, 11, 66, 48
13, 139769, Note_on_c, 11, 66, 0
13, 139800, Note_on_c, 11, 66, 48
13, 139889, Note_on_c, 11, 66, 0
13, 139920, Note_on_c, 11, 66, 48
13, 140009, Note_on_c, 11, 66, 0
13, 140040, Note_on_c, 11, 66, 47
13, 140129, Note_on_c, 11, 66, 0
13, 140160, Note_on_c, 11, 66, 47
13, 140249, Note_on_c, 11, 66, 0
13, 140280, Note_on_c, 11, 66, 47
13, 140369, Note_on_c, 11, 66, 0
13, 140400, Note_on_c, 11, 66, 46
13, 140489, Note_on_c, 11, 66, 0
13, 140520, Note_on_c, 11, 66, 46
13, 140609, Note_on_c, 11, 66, 0
13, 140640, Note_on_c, 11, 66, 46
13, 140729, Note_on_c, 11, 66, 0
13, 140760, Note_on_c, 11, 66, 45
13, 140849, Note_on_c, 11, 66, 0
13, 140880, Note_on_c, 11, 66, 45
13, 140969, Note_on_c, 11, 66, 0
13, 141000, Note_on_c, 11, 66, 45
13, 141089, Note_on_c, 11, 66, 0
13, 141120, Note_on_c, 11, 66, 44
13, 142559, Note_on_c, 11, 66, 0
13, 143760, Note_on_c, 11, 57, 84
13, 143999, Note_on_c, 11, 57, 0
13, 144000, Note_on_c, 11, 62, 52
13, 144239, Note_on_c, 11, 62, 0
13, 149520, Note_on_c, 11, 62, 52
13, 149639, Note_on_c, 11, 62, 0
13, 149640, Note_on_c, 11, 64, 52
13, 149729, Note_on_c, 11, 64, 0
13, 149760, Note_on_c, 11, 66, 52
13, 150479, Note_on_c, 11, 66, 0
13, 150480, Note_on_c, 11, 67, 52
13, 151169, Note_on_c, 11, 67, 0
13, 151200, Note_on_c, 11, 69, 52
13, 151439, Note_on_c, 11, 69, 0
13, 151440, Note_on_c, 11, 67, 52
13, 151649, Note_on_c, 11, 67, 0
13, 151680, Note_on_c, 11, 66, 52
13, 151859, Note_on_c, 11, 66, 0
13, 151920, Note_on_c, 11, 64, 52
13, 152159, Note_on_c, 11, 64, 0
13, 152280, Control_c, 11, 11, 80
13, 152400, Note_on_c, 11, 66, 76
13, 152639, Note_on_c, 11, 66, 0
13, 152640, Control_c, 11, 11, 80
13, 152640, Note_on_c, 11, 67, 76
13, 152700, Control_c, 11, 11, 84
13, 152760, Control_c, 11, 11, 88
13, 152820, Control_c, 11, 11, 92
13, 152880, Control_c, 11, 11, 96
13, 152940, Control_c, 11, 11, 100
13, 153000, Control_c, 11, 11, 104
13, 153060, Control_c, 11, 11, 107
13, 153120, Control_c, 11, 11, 111
13, 153180, Control_c, 11, 11, 115
13, 153240, Control_c, 11, 11, 119
13, 153300, Control_c, 11, 11, 127
13, 153359, Note_on_c, 11, 67, 0
13, 153360, Note_on_c, 11, 69, 84
13, 154049, Note_on_c, 11, 69, 0
13, 154080, Note_on_c, 11, 66, 52
13, 154319, Note_on_c, 11, 66, 0
13, 154320, Note_on_c, 11, 67, 52
13, 154529, Note_on_c, 11, 67, 0
13, 154560, Note_on_c, 11, 64, 52
13, 154739, Note_on_c, 11, 64, 0
13, 154800, Note_on_c, 11, 62, 52
13, 154979, Note_on_c, 11, 62, 0
13, 155280, Note_on_c, 11, 64, 52
13, 155459, Note_on_c, 11, 64, 0
13, 155520, Note_on_c, 11, 66, 52
13, 155759, Note_on_c, 11, 66, 0
13, 155760, Note_on_c, 11, 67, 52
13, 155969, Note_on_c, 11, 67, 0
13, 156000, Note_on_c, 11, 64, 52
13, 156179, Note_on_c, 11, 64, 0
13, 156210, Control_c, 11, 11, 80
13, 156240, Note_on_c, 11, 62, 76
13, 156360, Control_c, 11, 11, 84
13, 156419, Note_on_c, 11, 62, 0
13, 156480, Control_c, 11, 11, 88
13, 156600, Control_c, 11, 11, 92
13, 156720, Note_on_c, 11, 64, 76
13, 156720, Control_c, 11, 11, 96
13, 156840, Control_c, 11, 11, 100
13, 156899, Note_on_c, 11, 64, 0
13, 156960, Note_on_c, 11, 66, 76
13, 156960, Control_c, 11, 11, 104
13, 157080, Control_c, 11, 11, 107
13, 157139, Note_on_c, 11, 66, 0
13, 157200, Control_c, 11, 11, 111
13, 157320, Control_c, 11, 11, 115
13, 157440, Control_c, 11, 11, 119
13, 157440, Note_on_c, 11, 64, 76
13, 157560, Control_c, 11, 11, 127
13, 157619, Note_on_c, 11, 64, 0
13, 157680, Note_on_c, 11, 66, 76
13, 157919, Note_on_c, 11, 66, 0
13, 158160, Note_on_c, 11, 73, 52
13, 158339, Note_on_c, 11, 73, 0
13, 158400, Note_on_c, 11, 74, 52
13, 158639, Note_on_c, 11, 74, 0
13, 158640, Note_on_c, 11, 76, 52
13, 158849, Note_on_c, 11, 76, 0
13, 158880, Note_on_c, 11, 73, 52
13, 159059, Note_on_c, 11, 73, 0
13, 159120, Note_on_c, 11, 74, 52
13, 159359, Note_on_c, 11, 74, 0
13, 159840, Note_on_c, 11, 66, 76
13, 160529, Note_on_c, 11, 66, 0
13, 160560, Note_on_c, 11, 66, 84
13, 161249, Note_on_c, 11, 66, 0
13, 161280, Note_on_c, 11, 66, 76
13, 161399, Note_on_c, 11, 66, 0
13, 161400, Note_on_c, 11, 65, 76
13, 161489, Note_on_c, 11, 65, 0
13, 161520, Note_on_c, 11, 66, 76
13, 161639, Note_on_c, 11, 66, 0
13, 161640, Note_on_c, 11, 65, 76
13, 161729, Note_on_c, 11, 65, 0
13, 161760, Note_on_c, 11, 66, 76
13, 161879, Note_on_c, 11, 66, 0
13, 161880, Note_on_c, 11, 65, 76
13, 161969, Note_on_c, 11, 65, 0
13, 162000, Note_on_c, 11, 66, 76
13, 162119, Note_on_c, 11, 66, 0
13, 162120, Note_on_c, 11, 65, 76
13, 162209, Note_on_c, 11, 65, 0
13, 162240, Note_on_c, 11, 66, 76
13, 162359, Note_on_c, 11, 66, 0
13, 162360, Note_on_c, 11, 65, 76
13, 162449, Note_on_c, 11, 65, 0
13, 162480, Note_on_c, 11, 66, 76
13, 162599, Note_on_c, 11, 66, 0
13, 162600, Note_on_c, 11, 65, 76
13, 162689, Note_on_c, 11, 65, 0
13, 162720, Note_on_c, 11, 66, 76
13, 162809, Note_on_c, 11, 66, 0
13, 162840, Note_on_c, 11, 66, 76
13, 162929, Note_on_c, 11, 66, 0
13, 162960, Note_on_c, 11, 70, 76
13, 163049, Note_on_c, 11, 70, 0
13, 163080, Note_on_c, 11, 70, 76
13, 163169, Note_on_c, 11, 70, 0
13, 163200, Note_on_c, 11, 73, 76
13, 163289, Note_on_c, 11, 73, 0
13, 163320, Note_on_c, 11, 73, 76
13, 163409, Note_on_c, 11, 73, 0
13, 163440, Note_on_c, 11, 78, 84
13, 163529, Note_on_c, 11, 78, 0
13, 163560, Note_on_c, 11, 78, 76
13, 163649, Note_on_c, 11, 78, 0
13, 163680, Note_on_c, 11, 73, 76
13, 163769, Note_on_c, 11, 73, 0
13, 163800, Note_on_c, 11, 73, 76
13, 163889, Note_on_c, 11, 73, 0
13, 163920, Note_on_c, 11, 70, 76
13, 164009, Note_on_c, 11, 70, 0
13, 164040, Note_on_c, 11, 70, 76
13, 164129, Note_on_c, 11, 70, 0
13, 164160, Note_on_c, 11, 66, 76
13, 164249, Note_on_c, 11, 66, 0
13, 164280, Note_on_c, 11, 66, 76
13, 164369, Note_on_c, 11, 66, 0
13, 164400, Note_on_c, 11, 70, 76
13, 164489, Note_on_c, 11, 70, 0
13, 164520, Note_on_c, 11, 70, 76
13, 164609, Note_on_c, 11, 70, 0
13, 164640, Note_on_c, 11, 73, 76
13, 164729, Note_on_c, 11, 73, 0
13, 164760, Note_on_c, 11, 73, 76
13, 164849, Note_on_c, 11, 73, 0
13, 164880, Note_on_c, 11, 78, 84
13, 164969, Note_on_c, 11, 78, 0
13, 165000, Note_on_c, 11, 78, 76
13, 165089, Note_on_c, 11, 78, 0
13, 165120, Note_on_c, 11, 73, 76
13, 165209, Note_on_c, 11, 73, 0
13, 165240, Note_on_c, 11, 73, 76
13, 165329, Note_on_c, 11, 73, 0
13, 165360, Note_on_c, 11, 70, 76
13, 165449, Note_on_c, 11, 70, 0
13, 165480, Note_on_c, 11, 70, 76
13, 165569, Note_on_c, 11, 70, 0
13, 165600, Note_on_c, 11, 66, 52
13, 165689, Note_on_c, 11, 66, 0
13, 165720, Note_on_c, 11, 66, 52
13, 165809, Note_on_c, 11, 66, 0
13, 165840, Note_on_c, 11, 66, 52
13, 165929, Note_on_c, 11, 66, 0
13, 165960, Note_on_c, 11, 66, 51
13, 166049, Note_on_c, 11, 66, 0
13, 166080, Note_on_c, 11, 66, 51
13, 166169, Note_on_c, 11, 66, 0
13, 166200, Note_on_c, 11, 66, 51
13, 166289, Note_on_c, 11, 66, 0
13, 166320, Note_on_c, 11, 66, 50
13, 166409, Note_on_c, 11, 66, 0
13, 166440, Note_on_c, 11, 66, 50
13, 166529, Note_on_c, 11, 66, 0
13, 166560, Note_on_c, 11, 66, 50
13, 166649, Note_on_c, 11, 66, 0
13, 166680, Note_on_c, 11, 66, 49
13, 166769, Note_on_c, 11, 66, 0
13, 166800, Note_on_c, 11, 66, 49
13, 166889, Note_on_c, 11, 66, 0
13, 166920, Note_on_c, 11, 66, 49
13, 167009, Note_on_c, 11, 66, 0
13, 167040, Note_on_c, 11, 66, 48
13, 167129, Note_on_c, 11, 66, 0
13, 167160, Note_on_c, 11, 66, 48
13, 167249, Note_on_c, 11, 66, 0
13, 167280, Note_on_c, 11, 66, 48
13, 167369, Note_on_c, 11, 66, 0
13, 167400, Note_on_c, 11, 66, 47
13, 167489, Note_on_c, 11, 66, 0
13, 167520, Note_on_c, 11, 66, 47
13, 167609, Note_on_c, 11, 66, 0
13, 167640, Note_on_c, 11, 66, 47
13, 167729, Note_on_c, 11, 66, 0
13, 167760, Note_on_c, 11, 66, 46
13, 167849, Note_on_c, 11, 66, 0
13, 167880, Note_on_c, 11, 66, 46
13, 167969, Note_on_c, 11, 66, 0
13, 168000, Note_on_c, 11, 66, 46
13, 168089, Note_on_c, 11, 66, 0
13, 168120, Note_on_c, 11, 66, 45
13, 168209, Note_on_c, 11, 66, 0
13, 168240, Note_on_c, 11, 66, 45
13, 168329, Note_on_c, 11, 66, 0
13, 168360, Note_on_c, 11, 66, 45
13, 168449, Note_on_c, 11, 66, 0
13, 168480, Note_on_c, 11, 66, 44
13, 169919, Note_on_c, 11, 66, 0
13, 171120, Note_on_c, 11, 57, 84
13, 171359, Note_on_c, 11, 57, 0
13, 171360, Note_on_c, 11, 62, 52
13, 171599, Note_on_c, 11, 62, 0
13, 176880, Note_on_c, 11, 62, 52
13, 176999, Note_on_c, 11, 62, 0
13, 177000, Note_on_c, 11, 64, 52
13, 177089, Note_on_c, 11, 64, 0
13, 177120, Note_on_c, 11, 66, 52
13, 177839, Note_on_c, 11, 66, 0
13, 177840, Note_on_c, 11, 67, 52
13, 178529, Note_on_c, 11, 67, 0
13, 178560, Note_on_c, 11, 69, 52
13, 178799, Note_on_c, 11, 69, 0
13, 178800, Note_on_c, 11, 67, 52
13, 179009, Note_on_c, 11, 67, 0
13, 179040, Note_on_c, 11, 66, 52
13, 179219, Note_on_c, 11, 66, 0
13, 179280, Note_on_c, 11, 64, 52
13, 179519, Note_on_c, 11, 64, 0
13, 179640, Control_c, 11, 11, 80
13, 179760, Note_on_c, 11, 66, 76
13, 179999, Note_on_c, 11, 66, 0
13, 180000, Control_c, 11, 11, 80
13, 180000, Note_on_c, 11, 67, 76
13, 180060, Control_c, 11, 11, 84
13, 180120, Control_c, 11, 11, 88
13, 180180, Control_c, 11, 11, 92
13, 180240, Control_c, 11, 11, 96
13, 180300, Control_c, 11, 11, 100
13, 180360, Control_c, 11, 11, 104
13, 180420, Control_c, 11, 11, 107
13, 180480, Control_c, 11, 11, 111
13, 180540, Control_c, 11, 11, 115
13, 180600, Control_c, 11, 11, 119
13, 180660, Control_c, 11, 11, 127
13, 180719, Note_on_c, 11, 67, 0
13, 180720, Note_on_c, 11, 69, 84
13, 181409, Note_on_c, 11, 69, 0
13, 181440, Note_on_c, 11, 66, 52
13, 181679, Note_on_c, 11, 66, 0
13, 181680, Note_on_c, 11, 67, 52
13, 181889, Note_on_c, 11, 67, 0
13, 181920, Note_on_c, 11, 64, 52
13, 182099, Note_on_c, 11, 64, 0
13, 182160, Note_on_c, 11, 62, 52
13, 182339, Note_on_c, 11, 62, 0
13, 182640, Note_on_c, 11, 64, 52
13, 182819, Note_on_c, 11, 64, 0
13, 182880, Note_on_c, 11, 66, 52
13, 183119, Note_on_c, 11, 66, 0
13, 183120, Note_on_c, 11, 67, 52
13, 183329, Note_on_c, 11, 67, 0
13, 183360, Note_on_c, 11, 64, 52
13, 183539, Note_on_c, 11, 64, 0
13, 183570, Control_c, 11, 11, 80
13, 183600, Note_on_c, 11, 62, 76
13, 183720, Control_c, 11, 11, 84
13, 183779, Note_on_c, 11, 62, 0
13, 183840, Control_c, 11, 11, 88
13, 183960, Control_c, 11, 11, 92
13, 184080, Control_c, 11, 11, 96
13, 184080, Note_on_c, 11, 64, 76
13, 184200, Control_c, 11, 11, 100
13, 184259, Note_on_c, 11, 64, 0
13, 184320, Control_c, 11, 11, 104
13, 184320, Note_on_c, 11, 66, 76
13, 184440, Control_c, 11, 11, 107
13, 184499, Note_on_c, 11, 66, 0
13, 184560, Control_c, 11, 11, 111
13, 184680, Control_c, 11, 11, 115
13, 184800, Control_c, 11, 11, 119
13, 184800, Note_on_c, 11, 64, 76
13, 184920, Control_c, 11, 11, 127
13, 184979, Note_on_c, 11, 64, 0
13, 185040, Note_on_c, 11, 66, 76
13, 185279, Note_on_c, 11, 66, 0
13, 185520, Note_on_c, 11, 73, 52
13, 185699, Note_on_c, 11, 73, 0
13, 185760, Note_on_c, 11, 74, 52
13, 185999, Note_on_c, 11, 74, 0
13, 186000, Note_on_c, 11, 76, 52
13, 186209, Note_on_c, 11, 76, 0
13, 186240, Note_on_c, 11, 73, 52
13, 186419, Note_on_c, 11, 73, 0
13, 186480, Note_on_c, 11, 74, 52
13, 186719, Note_on_c, 11, 74, 0
13, 187200, Note_on_c, 11, 62, 76
13, 187889, Note_on_c, 11, 62, 0
13, 187920, Note_on_c, 11, 78, 52
13, 188099, Note_on_c, 11, 78, 0
13, 188160, Note_on_c, 11, 79, 52
13, 188339, Note_on_c, 11, 79, 0
13, 188400, Note_on_c, 11, 81, 52
13, 188579, Note_on_c, 11, 81, 0
13, 188640, Note_on_c, 11, 64, 76
13, 188640, Note_on_c, 11, 55, 76
13, 189329, Note_on_c, 11, 64, 0
13, 189329, Note_on_c, 11, 55, 0
13, 189360, Note_on_c, 11, 79, 52
13, 189539, Note_on_c, 11, 79, 0
13, 189600, Note_on_c, 11, 81, 52
13, 189779, Note_on_c, 11, 81, 0
13, 189840, Note_on_c, 11, 83, 52
13, 190019, Note_on_c, 11, 83, 0
13, 190800, Note_on_c, 11, 76, 52
13, 190979, Note_on_c, 11, 76, 0
13, 191040, Note_on_c, 11, 78, 52
13, 191219, Note_on_c, 11, 78, 0
13, 191280, Note_on_c, 11, 79, 52
13, 191459, Note_on_c, 11, 79, 0
13, 192240, Note_on_c, 11, 86, 84
13, 192419, Note_on_c, 11, 86, 0
13, 192480, Note_on_c, 11, 85, 84
13, 192659, Note_on_c, 11, 85, 0
13, 192720, Note_on_c, 11, 86, 84
13, 192899, Note_on_c, 11, 86, 0
13, 192960, Note_on_c, 11, 62, 76
13, 193649, Note_on_c, 11, 62, 0
13, 193680, Note_on_c, 11, 78, 52
13, 193859, Note_on_c, 11, 78, 0
13, 193920, Note_on_c, 11, 79, 52
13, 194099, Note_on_c, 11, 79, 0
13, 194160, Note_on_c, 11, 81, 52
13, 194339, Note_on_c, 11, 81, 0
13, 194400, Note_on_c, 11, 64, 76
13, 195089, Note_on_c, 11, 64, 0
13, 195120, Note_on_c, 11, 83, 52
13, 195299, Note_on_c, 11, 83, 0
13, 195360, Note_on_c, 11, 85, 52
13, 195539, Note_on_c, 11, 85, 0
13, 195600, Note_on_c, 11, 86, 52
13, 195779, Note_on_c, 11, 86, 0
13, 196560, Note_on_c, 11, 83, 52
13, 196739, Note_on_c, 11, 83, 0
13, 196800, Note_on_c, 11, 85, 52
13, 196979, Note_on_c, 11, 85, 0
13, 197040, Note_on_c, 11, 86, 52
13, 197219, Note_on_c, 11, 86, 0
13, 198000, Note_on_c, 11, 81, 84
13, 198179, Note_on_c, 11, 81, 0
13, 198240, Note_on_c, 11, 80, 84
13, 198419, Note_on_c, 11, 80, 0
13, 198480, Note_on_c, 11, 81, 84
13, 198659, Note_on_c, 11, 81, 0
13, 198720, Note_on_c, 11, 62, 76
13, 199409, Note_on_c, 11, 62, 0
13, 199440, Note_on_c, 11, 78, 52
13, 199619, Note_on_c, 11, 78, 0
13, 199680, Note_on_c, 11, 79, 52
13, 199859, Note_on_c, 11, 79, 0
13, 199920, Note_on_c, 11, 81, 52
13, 200099, Note_on_c, 11, 81, 0
13, 200160, Note_on_c, 11, 55, 76
13, 200160, Note_on_c, 11, 64, 76
13, 200849, Note_on_c, 11, 55, 0
13, 200849, Note_on_c, 11, 64, 0
13, 200880, Note_on_c, 11, 79, 52
13, 201059, Note_on_c, 11, 79, 0
13, 201120, Note_on_c, 11, 81, 52
13, 201299, Note_on_c, 11, 81, 0
13, 201360, Note_on_c, 11, 83, 52
13, 201539, Note_on_c, 11, 83, 0
13, 202320, Note_on_c, 11, 76, 52
13, 202499, Note_on_c, 11, 76, 0
13, 202560, Note_on_c, 11, 78, 52
13, 202739, Note_on_c, 11, 78, 0
13, 202800, Note_on_c, 11, 79, 52
13, 202979, Note_on_c, 11, 79, 0
13, 203760, Note_on_c, 11, 86, 84
13, 203939, Note_on_c, 11, 86, 0
13, 204000, Note_on_c, 11, 85, 84
13, 204179, Note_on_c, 11, 85, 0
13, 204240, Note_on_c, 11, 86, 84
13, 204419, Note_on_c, 11, 86, 0
13, 204480, Note_on_c, 11, 62, 76
13, 205169, Note_on_c, 11, 62, 0
13, 205200, Note_on_c, 11, 78, 52
13, 205379, Note_on_c, 11, 78, 0
13, 205440, Note_on_c, 11, 79, 52
13, 205619, Note_on_c, 11, 79, 0
13, 205680, Note_on_c, 11, 81, 52
13, 205859, Note_on_c, 11, 81, 0
13, 205920, Note_on_c, 11, 64, 76
13, 206609, Note_on_c, 11, 64, 0
13, 206640, Note_on_c, 11, 83, 52
13, 206819, Note_on_c, 11, 83, 0
13, 206880, Note_on_c, 11, 85, 52
13, 207059, Note_on_c, 11, 85, 0
13, 207120, Note_on_c, 11, 86, 52
13, 207299, Note_on_c, 11, 86, 0
13, 208080, Note_on_c, 11, 83, 52
13, 208259, Note_on_c, 11, 83, 0
13, 208320, Note_on_c, 11, 85, 52
13, 208499, Note_on_c, 11, 85, 0
13, 208560, Note_on_c, 11, 86, 52
13, 208739, Note_on_c, 11, 86, 0
13, 209520, Note_on_c, 11, 81, 84
13, 209699, Note_on_c, 11, 81, 0
13, 209760, Note_on_c, 11, 80, 84
13, 209939, Note_on_c, 11, 80, 0
13, 210000, Note_on_c, 11, 81, 84
13, 210179, Note_on_c, 11, 81, 0
13, 210240, Note_on_c, 11, 69, 52
13, 210929, Note_on_c, 11, 69, 0
13, 210960, Note_on_c, 11, 77, 52
13, 211139, Note_on_c, 11, 77, 0
13, 211200, Note_on_c, 11, 76, 52
13, 211379, Note_on_c, 11, 76, 0
13, 211440, Note_on_c, 11, 77, 52
13, 211619, Note_on_c, 11, 77, 0
13, 211680, Note_on_c, 11, 65, 52
13, 212369, Note_on_c, 11, 65, 0
13, 212400, Note_on_c, 11, 74, 52
13, 212579, Note_on_c, 11, 74, 0
13, 212640, Note_on_c, 11, 73, 52
13, 212819, Note_on_c, 11, 73, 0
13, 212880, Note_on_c, 11, 74, 52
13, 213059, Note_on_c, 11, 74, 0
13, 213120, Note_on_c, 11, 58, 52
13, 213299, Note_on_c, 11, 58, 0
13, 213360, Note_on_c, 11, 77, 76
13, 213480, Control_c, 11, 11, 80
13, 214289, Note_on_c, 11, 77, 0
13, 214320, Note_on_c, 11, 74, 76
13, 214439, Note_on_c, 11, 74, 0
13, 214440, Note_on_c, 11, 70, 76
13, 214529, Note_on_c, 11, 70, 0
13, 214560, Note_on_c, 11, 69, 76
13, 214679, Note_on_c, 11, 69, 0
13, 214680, Note_on_c, 11, 72, 76
13, 214799, Note_on_c, 11, 72, 0
13, 214800, Note_on_c, 11, 75, 76
13, 214919, Note_on_c, 11, 75, 0
13, 214920, Note_on_c, 11, 74, 76
13, 215039, Note_on_c, 11, 74, 0
13, 215040, Note_on_c, 11, 72, 76
13, 215159, Note_on_c, 11, 72, 0
13, 215160, Note_on_c, 11, 70, 76
13, 215279, Note_on_c, 11, 70, 0
13, 215280, Note_on_c, 11, 69, 76
13, 215399, Note_on_c, 11, 69, 0
13, 215400, Note_on_c, 11, 67, 76
13, 215519, Note_on_c, 11, 67, 0
13, 215520, Note_on_c, 11, 65, 76
13, 215639, Note_on_c, 11, 65, 0
13, 215640, Note_on_c, 11, 63, 76
13, 215759, Note_on_c, 11, 63, 0
13, 215760, Note_on_c, 11, 62, 76
13, 215879, Note_on_c, 11, 62, 0
13, 215880, Note_on_c, 11, 60, 76
13, 215969, Note_on_c, 11, 60, 0
13, 216000, Note_on_c, 11, 58, 76
13, 216179, Note_on_c, 11, 58, 0
13, 216240, Note_on_c, 11, 77, 76
13, 216240, Control_c, 11, 11, 127
13, 216360, Control_c, 11, 11, 80
13, 217169, Note_on_c, 11, 77, 0
13, 217200, Note_on_c, 11, 74, 76
13, 217319, Note_on_c, 11, 74, 0
13, 217320, Note_on_c, 11, 70, 76
13, 217409, Note_on_c, 11, 70, 0
13, 217440, Note_on_c, 11, 69, 76
13, 217559, Note_on_c, 11, 69, 0
13, 217560, Note_on_c, 11, 72, 76
13, 217679, Note_on_c, 11, 72, 0
13, 217680, Note_on_c, 11, 75, 76
13, 217799, Note_on_c, 11, 75, 0
13, 217800, Note_on_c, 11, 74, 76
13, 217919, Note_on_c, 11, 74, 0
13, 217920, Note_on_c, 11, 72, 76
13, 218039, Note_on_c, 11, 72, 0
13, 218040, Note_on_c, 11, 70, 76
13, 218159, Note_on_c, 11, 70, 0
13, 218160, Note_on_c, 11, 69, 76
13, 218279, Note_on_c, 11, 69, 0
13, 218280, Note_on_c, 11, 67, 76
13, 218399, Note_on_c, 11, 67, 0
13, 218400, Note_on_c, 11, 65, 76
13, 218519, Note_on_c, 11, 65, 0
13, 218520, Note_on_c, 11, 63, 76
13, 218639, Note_on_c, 11, 63, 0
13, 218640, Note_on_c, 11, 62, 76
13, 218759, Note_on_c, 11, 62, 0
13, 218760, Note_on_c, 11, 60, 76
13, 218849, Note_on_c, 11, 60, 0
13, 218880, Note_on_c, 11, 58, 76
13, 219059, Note_on_c, 11, 58, 0
13, 219120, Note_on_c, 11, 74, 76
13, 219239, Note_on_c, 11, 74, 0
13, 219240, Note_on_c, 11, 73, 76
13, 219359, Note_on_c, 11, 73, 0
13, 219360, Note_on_c, 11, 74, 76
13, 219479, Note_on_c, 11, 74, 0
13, 219480, Note_on_c, 11, 76, 76
13, 219569, Note_on_c, 11, 76, 0
13, 219600, Note_on_c, 11, 77, 76
13, 219779, Note_on_c, 11, 77, 0
13, 219840, Note_on_c, 11, 74, 76
13, 219959, Note_on_c, 11, 74, 0
13, 219960, Note_on_c, 11, 73, 76
13, 220079, Note_on_c, 11, 73, 0
13, 220080, Note_on_c, 11, 74, 76
13, 220199, Note_on_c, 11, 74, 0
13, 220200, Note_on_c, 11, 76, 76
13, 220289, Note_on_c, 11, 76, 0
13, 220320, Note_on_c, 11, 77, 76
13, 220499, Note_on_c, 11, 77, 0
13, 220560, Note_on_c, 11, 74, 76
13, 220679, Note_on_c, 11, 74, 0
13, 220680, Note_on_c, 11, 73, 76
13, 220799, Note_on_c, 11, 73, 0
13, 220800, Note_on_c, 11, 74, 76
13, 220919, Note_on_c, 11, 74, 0
13, 220920, Note_on_c, 11, 76, 76
13, 221009, Note_on_c, 11, 76, 0
13, 221040, Note_on_c, 11, 77, 76
13, 221219, Note_on_c, 11, 77, 0
13, 221280, Note_on_c, 11, 79, 76
13, 221399, Note_on_c, 11, 79, 0
13, 221400, Note_on_c, 11, 77, 76
13, 221519, Note_on_c, 11, 77, 0
13, 221520, Note_on_c, 11, 76, 76
13, 221639, Note_on_c, 11, 76, 0
13, 221640, Note_on_c, 11, 74, 76
13, 221729, Note_on_c, 11, 74, 0
13, 221760, Note_on_c, 11, 73, 68
13, 221939, Note_on_c, 11, 73, 0
13, 222000, Note_on_c, 11, 74, 68
13, 222119, Note_on_c, 11, 74, 0
13, 222120, Note_on_c, 11, 73, 68
13, 222239, Note_on_c, 11, 73, 0
13, 222240, Note_on_c, 11, 71, 68
13, 222359, Note_on_c, 11, 71, 0
13, 222360, Note_on_c, 11, 69, 68
13, 222449, Note_on_c, 11, 69, 0
13, 222480, Note_on_c, 11, 77, 68
13, 222659, Note_on_c, 11, 77, 0
13, 222720, Note_on_c, 11, 79, 68
13, 222839, Note_on_c, 11, 79, 0
13, 222840, Note_on_c, 11, 77, 68
13, 222959, Note_on_c, 11, 77, 0
13, 222960, Note_on_c, 11, 76, 68
13, 223079, Note_on_c, 11, 76, 0
13, 223080, Note_on_c, 11, 74, 68
13, 223169, Note_on_c, 11, 74, 0
13, 223185, Control_c, 11, 11, 64
13, 223200, Note_on_c, 11, 73, 76
13, 223379, Note_on_c, 11, 73, 0
13, 223440, Note_on_c, 11, 74, 76
13, 223440, Control_c, 11, 11, 64
13, 223559, Note_on_c, 11, 74, 0
13, 223560, Note_on_c, 11, 73, 76
13, 223660, Control_c, 11, 11, 69
13, 223679, Note_on_c, 11, 73, 0
13, 223680, Note_on_c, 11, 71, 76
13, 223799, Note_on_c, 11, 71, 0
13, 223800, Note_on_c, 11, 69, 76
13, 223880, Control_c, 11, 11, 75
13, 223889, Note_on_c, 11, 69, 0
13, 223920, Note_on_c, 11, 77, 76
13, 224099, Note_on_c, 11, 77, 0
13, 224100, Control_c, 11, 11, 80
13, 224160, Note_on_c, 11, 79, 76
13, 224279, Note_on_c, 11, 79, 0
13, 224280, Note_on_c, 11, 77, 76
13, 224320, Control_c, 11, 11, 85
13, 224399, Note_on_c, 11, 77, 0
13, 224400, Note_on_c, 11, 76, 76
13, 224519, Note_on_c, 11, 76, 0
13, 224520, Note_on_c, 11, 74, 76
13, 224540, Control_c, 11, 11, 90
13, 224609, Note_on_c, 11, 74, 0
13, 224640, Note_on_c, 11, 73, 76
13, 224760, Control_c, 11, 11, 96
13, 224819, Note_on_c, 11, 73, 0
13, 224880, Note_on_c, 11, 76, 76
13, 224980, Control_c, 11, 11, 101
13, 224999, Note_on_c, 11, 76, 0
13, 225000, Note_on_c, 11, 74, 76
13, 225119, Note_on_c, 11, 74, 0
13, 225120, Note_on_c, 11, 73, 76
13, 225200, Control_c, 11, 11, 106
13, 225239, Note_on_c, 11, 73, 0
13, 225240, Note_on_c, 11, 71, 76
13, 225329, Note_on_c, 11, 71, 0
13, 225360, Note_on_c, 11, 69, 76
13, 225420, Control_c, 11, 11, 111
13, 225479, Note_on_c, 11, 69, 0
13, 225480, Note_on_c, 11, 68, 76
13, 225569, Note_on_c, 11, 68, 0
13, 225600, Note_on_c, 11, 69, 76
13, 225640, Control_c, 11, 11, 117
13, 225689, Note_on_c, 11, 69, 0
13, 225720, Note_on_c, 11, 67, 76
13, 225809, Note_on_c, 11, 67, 0
13, 225840, Note_on_c, 11, 66, 76
13, 225860, Control_c, 11, 11, 122
13, 225929, Note_on_c, 11, 66, 0
13, 225960, Note_on_c, 11, 64, 76
13, 226049, Note_on_c, 11, 64, 0
13, 226080, Note_on_c, 11, 62, 76
13, 226080, Control_c, 11, 11, 127
13, 226769, Note_on_c, 11, 62, 0
13, 226800, Note_on_c, 11, 78, 52
13, 226979, Note_on_c, 11, 78, 0
13, 227040, Note_on_c, 11, 79, 52
13, 227219, Note_on_c, 11, 79, 0
13, 227280, Note_on_c, 11, 81, 52
13, 227459, Note_on_c, 11, 81, 0
13, 227520, Note_on_c, 11, 55, 76
13, 227520, Note_on_c, 11, 64, 76
13, 228209, Note_on_c, 11, 55, 0
13, 228209, Note_on_c, 11, 64, 0
13, 228240, Note_on_c, 11, 79, 52
13, 228419, Note_on_c, 11, 79, 0
13, 228480, Note_on_c, 11, 81, 52
13, 228659, Note_on_c, 11, 81, 0
13, 228720, Note_on_c, 11, 83, 52
13, 228899, Note_on_c, 11, 83, 0
13, 229680, Note_on_c, 11, 76, 52
13, 229859, Note_on_c, 11, 76, 0
13, 229920, Note_on_c, 11, 78, 52
13, 230099, Note_on_c, 11, 78, 0
13, 230160, Note_on_c, 11, 79, 52
13, 230339, Note_on_c, 11, 79, 0
13, 231120, Note_on_c, 11, 86, 84
13, 231299, Note_on_c, 11, 86, 0
13, 231360, Note_on_c, 11, 85, 84
13, 231539, Note_on_c, 11, 85, 0
13, 231600, Note_on_c, 11, 86, 84
13, 231779, Note_on_c, 11, 86, 0
13, 231840, Note_on_c, 11, 62, 76
13, 232529, Note_on_c, 11, 62, 0
13, 232560, Note_on_c, 11, 78, 52
13, 232739, Note_on_c, 11, 78, 0
13, 232800, Note_on_c, 11, 79, 52
13, 232979, Note_on_c, 11, 79, 0
13, 233040, Note_on_c, 11, 81, 52
13, 233219, Note_on_c, 11, 81, 0
13, 233280, Note_on_c, 11, 55, 76
13, 233280, Note_on_c, 11, 64, 76
13, 233969, Note_on_c, 11, 55, 0
13, 233969, Note_on_c, 11, 64, 0
13, 234000, Note_on_c, 11, 79, 52
13, 234179, Note_on_c, 11, 79, 0
13, 234240, Note_on_c, 11, 81, 52
13, 234419, Note_on_c, 11, 81, 0
13, 234480, Note_on_c, 11, 83, 52
13, 234659, Note_on_c, 11, 83, 0
13, 234720, Note_on_c, 11, 67, 52
13, 234899, Note_on_c, 11, 67, 0
13, 234960, Note_on_c, 11, 69, 52
13, 235139, Note_on_c, 11, 69, 0
13, 235200, Note_on_c, 11, 71, 52
13, 235379, Note_on_c, 11, 71, 0
13, 236160, Note_on_c, 11, 67, 52
13, 236339, Note_on_c, 11, 67, 0
13, 236400, Note_on_c, 11, 69, 52
13, 236579, Note_on_c, 11, 69, 0
13, 236640, Note_on_c, 11, 70, 52
13, 236819, Note_on_c, 11, 70, 0
13, 237600, Control_c, 11, 11, 127
13, 237600, Note_on_c, 11, 67, 52
13, 237779, Note_on_c, 11, 67, 0
13, 237840, Control_c, 11, 11, 126
13, 237840, Note_on_c, 11, 69, 52
13, 238019, Note_on_c, 11, 69, 0
13, 238080, Control_c, 11, 11, 125
13, 238080, Note_on_c, 11, 70, 52
13, 238259, Note_on_c, 11, 70, 0
13, 238320, Control_c, 11, 11, 123
13, 238320, Note_on_c, 11, 67, 52
13, 238499, Note_on_c, 11, 67, 0
13, 238560, Note_on_c, 11, 69, 52
13, 238560, Control_c, 11, 11, 122
13, 238739, Note_on_c, 11, 69, 0
13, 238800, Note_on_c, 11, 70, 52
13, 238800, Control_c, 11, 11, 121
13, 238979, Note_on_c, 11, 70, 0
13, 239040, Control_c, 11, 11, 120
13, 239040, Note_on_c, 11, 67, 52
13, 239219, Note_on_c, 11, 67, 0
13, 239280, Note_on_c, 11, 69, 52
13, 239280, Control_c, 11, 11, 118
13, 239459, Note_on_c, 11, 69, 0
13, 239520, Control_c, 11, 11, 117
13, 239520, Note_on_c, 11, 70, 52
13, 239699, Note_on_c, 11, 70, 0
13, 239760, Note_on_c, 11, 67, 52
13, 239760, Control_c, 11, 11, 116
13, 239939, Note_on_c, 11, 67, 0
13, 240000, Control_c, 11, 11, 115
13, 240000, Note_on_c, 11, 69, 52
13, 240179, Note_on_c, 11, 69, 0
13, 240240, Note_on_c, 11, 70, 52
13, 240240, Control_c, 11, 11, 113
13, 240419, Note_on_c, 11, 70, 0
13, 240480, Note_on_c, 11, 67, 52
13, 240480, Control_c, 11, 11, 112
13, 240659, Note_on_c, 11, 67, 0
13, 240720, Note_on_c, 11, 69, 52
13, 240899, Note_on_c, 11, 69, 0
13, 240960, Note_on_c, 11, 70, 52
13, 241139, Note_on_c, 11, 70, 0
13, 241200, Note_on_c, 11, 69, 52
13, 241439, Note_on_c, 11, 69, 0
13, 241680, Control_c, 11, 11, 127
13, 241920, Note_on_c, 11, 64, 44
13, 242099, Note_on_c, 11, 64, 0
13, 242160, Note_on_c, 11, 65, 44
13, 242339, Note_on_c, 11, 65, 0
13, 242400, Note_on_c, 11, 67, 44
13, 242579, Note_on_c, 11, 67, 0
13, 242640, Note_on_c, 11, 65, 44
13, 242879, Note_on_c, 11, 65, 0
13, 244800, Note_on_c, 11, 81, 76
13, 244800, Note_on_c, 11, 69, 76
13, 245039, Note_on_c, 11, 81, 0
13, 245040, Note_on_c, 11, 80, 76
13, 245279, Note_on_c, 11, 80, 0
13, 245280, Note_on_c, 11, 79, 76
13, 245489, Note_on_c, 11, 69, 0
13, 245489, Note_on_c, 11, 79, 0
13, 245520, Note_on_c, 11, 78, 76
13, 245699, Note_on_c, 11, 78, 0
13, 245760, Note_on_c, 11, 76, 76
13, 245939, Note_on_c, 11, 76, 0
13, 246000, Note_on_c, 11, 74, 76
13, 246179, Note_on_c, 11, 74, 0
13, 246240, Note_on_c, 11, 72, 44
13, 246929, Note_on_c, 11, 72, 0
13, 246960, Note_on_c, 11, 77, 44
13, 247139, Note_on_c, 11, 77, 0
13, 247200, Note_on_c, 11, 76, 44
13, 247379, Note_on_c, 11, 76, 0
13, 247440, Note_on_c, 11, 77, 44
13, 247619, Note_on_c, 11, 77, 0
13, 247680, Note_on_c, 11, 69, 44
13, 248369, Note_on_c, 11, 69, 0
13, 248400, Note_on_c, 11, 74, 44
13, 248579, Note_on_c, 11, 74, 0
13, 248640, Note_on_c, 11, 73, 44
13, 248819, Note_on_c, 11, 73, 0
13, 248880, Note_on_c, 11, 74, 44
13, 249059, Note_on_c, 11, 74, 0
13, 250560, Note_on_c, 11, 81, 76
13, 250560, Note_on_c, 11, 69, 76
13, 250799, Note_on_c, 11, 81, 0
13, 250800, Note_on_c, 11, 80, 76
13, 251039, Note_on_c, 11, 80, 0
13, 251040, Note_on_c, 11, 79, 76
13, 251249, Note_on_c, 11, 69, 0
13, 251249, Note_on_c, 11, 79, 0
13, 251280, Note_on_c, 11, 78, 76
13, 251459, Note_on_c, 11, 78, 0
13, 251520, Note_on_c, 11, 76, 76
13, 251699, Note_on_c, 11, 76, 0
13, 251760, Note_on_c, 11, 74, 76
13, 251939, Note_on_c, 11, 74, 0
13, 253440, Note_on_c, 11, 81, 84
13, 253440, Note_on_c, 11, 69, 84
13, 253679, Note_on_c, 11, 81, 0
13, 253680, Note_on_c, 11, 80, 76
13, 253919, Note_on_c, 11, 80, 0
13, 253920, Note_on_c, 11, 79, 76
13, 254129, Note_on_c, 11, 69, 0
13, 254129, Note_on_c, 11, 79, 0
13, 254160, Note_on_c, 11, 78, 76
13, 254339, Note_on_c, 11, 78, 0
13, 254400, Note_on_c, 11, 74, 76
13, 254579, Note_on_c, 11, 74, 0
13, 254640, Note_on_c, 11, 78, 76
13, 254819, Note_on_c, 11, 78, 0
13, 254880, Note_on_c, 11, 69, 84
13, 254880, Note_on_c, 11, 81, 84
13, 255119, Note_on_c, 11, 81, 0
13, 255120, Note_on_c, 11, 80, 76
13, 255359, Note_on_c, 11, 80, 0
13, 255360, Note_on_c, 11, 79, 76
13, 255569, Note_on_c, 11, 69, 0
13, 255569, Note_on_c, 11, 79, 0
13, 255600, Note_on_c, 11, 78, 76
13, 255779, Note_on_c, 11, 78, 0
13, 255840, Note_on_c, 11, 74, 76
13, 256019, Note_on_c, 11, 74, 0
13, 256080, Note_on_c, 11, 78, 76
13, 256259, Note_on_c, 11, 78, 0
13, 256320, Note_on_c, 11, 69, 84
13, 256320, Note_on_c, 11, 81, 84
13, 257279, Note_on_c, 11, 81, 0
13, 257280, Note_on_c, 11, 80, 84
13, 257519, Note_on_c, 11, 80, 0
13, 257520, Note_on_c, 11, 79, 84
13, 257729, Note_on_c, 11, 69, 0
13, 257729, Note_on_c, 11, 79, 0
13, 257760, Note_on_c, 11, 78, 84
13, 257999, Note_on_c, 11, 78, 0
13, 258240, Note_on_c, 11, 85, 84
13, 258240, Note_on_c, 11, 69, 84
13, 258419, Note_on_c, 11, 85, 0
13, 258419, Note_on_c, 11, 69, 0
13, 258480, Note_on_c, 11, 69, 84
13, 258480, Note_on_c, 11, 62, 84
13, 258480, Note_on_c, 11, 86, 84
13, 258659, Note_on_c, 11, 69, 0
13, 258659, Note_on_c, 11, 62, 0
13, 258659, Note_on_c, 11, 86, 0
13, 259200, Note_on_c, 11, 69, 52
13, 259889, Note_on_c, 11, 69, 0
13, 259920, Note_on_c, 11, 77, 52
13, 260099, Note_on_c, 11, 77, 0
13, 260160, Note_on_c, 11, 76, 52
13, 260339, Note_on_c, 11, 76, 0
13, 260400, Note_on_c, 11, 77, 52
13, 260579, Note_on_c, 11, 77, 0
13, 260640, Note_on_c, 11, 65, 52
13, 261329, Note_on_c, 11, 65, 0
13, 261360, Note_on_c, 11, 74, 52
13, 261539, Note_on_c, 11, 74, 0
13, 261600, Note_on_c, 11, 73, 52
13, 261779, Note_on_c, 11, 73, 0
13, 261840, Note_on_c, 11, 74, 52
13, 262019, Note_on_c, 11, 74, 0
13, 262080, Note_on_c, 11, 58, 52
13, 262259, Note_on_c, 11, 58, 0
13, 262320, Note_on_c, 11, 77, 76
13, 262440, Control_c, 11, 11, 80
13, 263249, Note_on_c, 11, 77, 0
13, 263280, Note_on_c, 11, 74, 76
13, 263399, Note_on_c, 11, 74, 0
13, 263400, Note_on_c, 11, 70, 76
13, 263489, Note_on_c, 11, 70, 0
13, 263520, Note_on_c, 11, 69, 76
13, 263639, Note_on_c, 11, 69, 0
13, 263640, Note_on_c, 11, 72, 76
13, 263759, Note_on_c, 11, 72, 0
13, 263760, Note_on_c, 11, 75, 76
13, 263879, Note_on_c, 11, 75, 0
13, 263880, Note_on_c, 11, 74, 76
13, 263999, Note_on_c, 11, 74, 0
13, 264000, Note_on_c, 11, 72, 76
13, 264119, Note_on_c, 11, 72, 0
13, 264120, Note_on_c, 11, 70, 76
13, 264239, Note_on_c, 11, 70, 0
13, 264240, Note_on_c, 11, 69, 76
13, 264359, Note_on_c, 11, 69, 0
13, 264360, Note_on_c, 11, 67, 76
13, 264479, Note_on_c, 11, 67, 0
13, 264480, Note_on_c, 11, 65, 76
13, 264599, Note_on_c, 11, 65, 0
13, 264600, Note_on_c, 11, 63, 76
13, 264719, Note_on_c, 11, 63, 0
13, 264720, Note_on_c, 11, 62, 76
13, 264839, Note_on_c, 11, 62, 0
13, 264840, Note_on_c, 11, 60, 76
13, 264929, Note_on_c, 11, 60, 0
13, 264960, Note_on_c, 11, 58, 76
13, 265139, Note_on_c, 11, 58, 0
13, 265200, Control_c, 11, 11, 127
13, 265200, Note_on_c, 11, 77, 76
13, 265320, Control_c, 11, 11, 80
13, 266129, Note_on_c, 11, 77, 0
13, 266160, Note_on_c, 11, 74, 76
13, 266279, Note_on_c, 11, 74, 0
13, 266280, Note_on_c, 11, 70, 76
13, 266369, Note_on_c, 11, 70, 0
13, 266400, Note_on_c, 11, 69, 76
13, 266519, Note_on_c, 11, 69, 0
13, 266520, Note_on_c, 11, 72, 76
13, 266639, Note_on_c, 11, 72, 0
13, 266640, Note_on_c, 11, 75, 76
13, 266759, Note_on_c, 11, 75, 0
13, 266760, Note_on_c, 11, 74, 76
13, 266879, Note_on_c, 11, 74, 0
13, 266880, Note_on_c, 11, 72, 76
13, 266999, Note_on_c, 11, 72, 0
13, 267000, Note_on_c, 11, 70, 76
13, 267119, Note_on_c, 11, 70, 0
13, 267120, Note_on_c, 11, 69, 76
13, 267239, Note_on_c, 11, 69, 0
13, 267240, Note_on_c, 11, 67, 76
13, 267359, Note_on_c, 11, 67, 0
13, 267360, Note_on_c, 11, 65, 76
13, 267479, Note_on_c, 11, 65, 0
13, 267480, Note_on_c, 11, 63, 76
13, 267599, Note_on_c, 11, 63, 0
13, 267600, Note_on_c, 11, 62, 76
13, 267719, Note_on_c, 11, 62, 0
13, 267720, Note_on_c, 11, 60, 76
13, 267809, Note_on_c, 11, 60, 0
13, 267840, Note_on_c, 11, 58, 76
13, 268019, Note_on_c, 11, 58, 0
13, 268080, Note_on_c, 11, 74, 76
13, 268199, Note_on_c, 11, 74, 0
13, 268200, Note_on_c, 11, 73, 76
13, 268319, Note_on_c, 11, 73, 0
13, 268320, Note_on_c, 11, 74, 76
13, 268439, Note_on_c, 11, 74, 0
13, 268440, Note_on_c, 11, 76, 76
13, 268529, Note_on_c, 11, 76, 0
13, 268560, Note_on_c, 11, 77, 76
13, 268739, Note_on_c, 11, 77, 0
13, 268800, Note_on_c, 11, 74, 76
13, 268919, Note_on_c, 11, 74, 0
13, 268920, Note_on_c, 11, 73, 76
13, 269039, Note_on_c, 11, 73, 0
13, 269040, Note_on_c, 11, 74, 76
13, 269159, Note_on_c, 11, 74, 0
13, 269160, Note_on_c, 11, 76, 76
13, 269249, Note_on_c, 11, 76, 0
13, 269280, Note_on_c, 11, 77, 76
13, 269459, Note_on_c, 11, 77, 0
13, 269520, Note_on_c, 11, 74, 76
13, 269639, Note_on_c, 11, 74, 0
13, 269640, Note_on_c, 11, 73, 76
13, 269759, Note_on_c, 11, 73, 0
13, 269760, Note_on_c, 11, 74, 76
13, 269879, Note_on_c, 11, 74, 0
13, 269880, Note_on_c, 11, 76, 76
13, 269969, Note_on_c, 11, 76, 0
13, 270000, Note_on_c, 11, 77, 76
13, 270179, Note_on_c, 11, 77, 0
13, 270240, Note_on_c, 11, 79, 76
13, 270359, Note_on_c, 11, 79, 0
13, 270360, Note_on_c, 11, 77, 76
13, 270479, Note_on_c, 11, 77, 0
13, 270480, Note_on_c, 11, 76, 76
13, 270599, Note_on_c, 11, 76, 0
13, 270600, Note_on_c, 11, 74, 76
13, 270689, Note_on_c, 11, 74, 0
13, 270720, Note_on_c, 11, 73, 68
13, 270899, Note_on_c, 11, 73, 0
13, 270960, Note_on_c, 11, 74, 68
13, 271079, Note_on_c, 11, 74, 0
13, 271080, Note_on_c, 11, 73, 68
13, 271199, Note_on_c, 11, 73, 0
13, 271200, Note_on_c, 11, 71, 68
13, 271319, Note_on_c, 11, 71, 0
13, 271320, Note_on_c, 11, 69, 68
13, 271409, Note_on_c, 11, 69, 0
13, 271440, Note_on_c, 11, 77, 68
13, 271619, Note_on_c, 11, 77, 0
13, 271680, Note_on_c, 11, 79, 68
13, 271799, Note_on_c, 11, 79, 0
13, 271800, Note_on_c, 11, 77, 68
13, 271919, Note_on_c, 11, 77, 0
13, 271920, Note_on_c, 11, 76, 68
13, 272039, Note_on_c, 11, 76, 0
13, 272040, Note_on_c, 11, 74, 68
13, 272129, Note_on_c, 11, 74, 0
13, 272145, Control_c, 11, 11, 64
13, 272160, Note_on_c, 11, 73, 76
13, 272339, Note_on_c, 11, 73, 0
13, 272400, Control_c, 11, 11, 64
13, 272400, Note_on_c, 11, 74, 76
13, 272519, Note_on_c, 11, 74, 0
13, 272520, Note_on_c, 11, 73, 76
13, 272620, Control_c, 11, 11, 69
13, 272639, Note_on_c, 11, 73, 0
13, 272640, Note_on_c, 11, 71, 76
13, 272759, Note_on_c, 11, 71, 0
13, 272760, Note_on_c, 11, 69, 76
13, 272840, Control_c, 11, 11, 75
13, 272849, Note_on_c, 11, 69, 0
13, 272880, Note_on_c, 11, 77, 76
13, 273059, Note_on_c, 11, 77, 0
13, 273060, Control_c, 11, 11, 80
13, 273120, Note_on_c, 11, 79, 76
13, 273239, Note_on_c, 11, 79, 0
13, 273240, Note_on_c, 11, 77, 76
13, 273280, Control_c, 11, 11, 85
13, 273359, Note_on_c, 11, 77, 0
13, 273360, Note_on_c, 11, 76, 76
13, 273479, Note_on_c, 11, 76, 0
13, 273480, Note_on_c, 11, 74, 76
13, 273500, Control_c, 11, 11, 90
13, 273569, Note_on_c, 11, 74, 0
13, 273600, Note_on_c, 11, 73, 76
13, 273720, Control_c, 11, 11, 96
13, 273779, Note_on_c, 11, 73, 0
13, 273840, Note_on_c, 11, 76, 76
13, 273940, Control_c, 11, 11, 101
13, 273959, Note_on_c, 11, 76, 0
13, 273960, Note_on_c, 11, 74, 76
13, 274079, Note_on_c, 11, 74, 0
13, 274080, Note_on_c, 11, 73, 76
13, 274160, Control_c, 11, 11, 106
13, 274199, Note_on_c, 11, 73, 0
13, 274200, Note_on_c, 11, 71, 76
13, 274289, Note_on_c, 11, 71, 0
13, 274320, Note_on_c, 11, 69, 76
13, 274380, Control_c, 11, 11, 111
13, 274439, Note_on_c, 11, 69, 0
13, 274440, Note_on_c, 11, 68, 76
13, 274529, Note_on_c, 11, 68, 0
13, 274560, Note_on_c, 11, 69, 76
13, 274600, Control_c, 11, 11, 117
13, 274649, Note_on_c, 11, 69, 0
13, 274680, Note_on_c, 11, 67, 76
13, 274769, Note_on_c, 11, 67, 0
13, 274800, Note_on_c, 11, 66, 76
13, 274820, Control_c, 11, 11, 122
13, 274889, Note_on_c, 11, 66, 0
13, 274920, Note_on_c, 11, 64, 76
13, 275009, Note_on_c, 11, 64, 0
13, 275040, Control_c, 11, 11, 127
13, 275040, Note_on_c, 11, 62, 76
13, 275729, Note_on_c, 11, 62, 0
13, 275760, Note_on_c, 11, 78, 52
13, 275939, Note_on_c, 11, 78, 0
13, 276000, Note_on_c, 11, 79, 52
13, 276179, Note_on_c, 11, 79, 0
13, 276240, Note_on_c, 11, 81, 52
13, 276419, Note_on_c, 11, 81, 0
13, 276480, Note_on_c, 11, 55, 76
13, 276480, Note_on_c, 11, 64, 76
13, 277169, Note_on_c, 11, 55, 0
13, 277169, Note_on_c, 11, 64, 0
13, 277200, Note_on_c, 11, 79, 52
13, 277379, Note_on_c, 11, 79, 0
13, 277440, Note_on_c, 11, 81, 52
13, 277619, Note_on_c, 11, 81, 0
13, 277680, Note_on_c, 11, 83, 52
13, 277859, Note_on_c, 11, 83, 0
13, 278640, Note_on_c, 11, 76, 52
13, 278819, Note_on_c, 11, 76, 0
13, 278880, Note_on_c, 11, 78, 52
13, 279059, Note_on_c, 11, 78, 0
13, 279120, Note_on_c, 11, 79, 52
13, 279299, Note_on_c, 11, 79, 0
13, 280080, Note_on_c, 11, 86, 84
13, 280259, Note_on_c, 11, 86, 0
13, 280320, Note_on_c, 11, 85, 84
13, 280499, Note_on_c, 11, 85, 0
13, 280560, Note_on_c, 11, 86, 84
13, 280739, Note_on_c, 11, 86, 0
13, 280800, Note_on_c, 11, 62, 76
13, 281489, Note_on_c, 11, 62, 0
13, 281520, Note_on_c, 11, 78, 52
13, 281699, Note_on_c, 11, 78, 0
13, 281760, Note_on_c, 11, 79, 52
13, 281939, Note_on_c, 11, 79, 0
13, 282000, Note_on_c, 11, 81, 52
13, 282179, Note_on_c, 11, 81, 0
13, 282240, Note_on_c, 11, 55, 76
13, 282240, Note_on_c, 11, 64, 76
13, 282929, Note_on_c, 11, 55, 0
13, 282929, Note_on_c, 11, 64, 0
13, 282960, Note_on_c, 11, 79, 52
13, 283139, Note_on_c, 11, 79, 0
13, 283200, Note_on_c, 11, 81, 52
13, 283379, Note_on_c, 11, 81, 0
13, 283440, Note_on_c, 11, 83, 52
13, 283619, Note_on_c, 11, 83, 0
13, 283680, Note_on_c, 11, 67, 52
13, 283859, Note_on_c, 11, 67, 0
13, 283920, Note_on_c, 11, 69, 52
13, 284099, Note_on_c, 11, 69, 0
13, 284160, Note_on_c, 11, 71, 52
13, 284339, Note_on_c, 11, 71, 0
13, 285120, Note_on_c, 11, 67, 52
13, 285299, Note_on_c, 11, 67, 0
13, 285360, Note_on_c, 11, 69, 52
13, 285539, Note_on_c, 11, 69, 0
13, 285600, Note_on_c, 11, 70, 52
13, 285779, Note_on_c, 11, 70, 0
13, 286560, Note_on_c, 11, 67, 52
13, 286560, Control_c, 11, 11, 127
13, 286739, Note_on_c, 11, 67, 0
13, 286800, Control_c, 11, 11, 126
13, 286800, Note_on_c, 11, 69, 52
13, 286979, Note_on_c, 11, 69, 0
13, 287040, Control_c, 11, 11, 125
13, 287040, Note_on_c, 11, 70, 52
13, 287219, Note_on_c, 11, 70, 0
13, 287280, Note_on_c, 11, 67, 52
13, 287280, Control_c, 11, 11, 123
13, 287459, Note_on_c, 11, 67, 0
13, 287520, Note_on_c, 11, 69, 52
13, 287520, Control_c, 11, 11, 122
13, 287699, Note_on_c, 11, 69, 0
13, 287760, Note_on_c, 11, 70, 52
13, 287760, Control_c, 11, 11, 121
13, 287939, Note_on_c, 11, 70, 0
13, 288000, Control_c, 11, 11, 120
13, 288000, Note_on_c, 11, 67, 52
13, 288179, Note_on_c, 11, 67, 0
13, 288240, Control_c, 11, 11, 118
13, 288240, Note_on_c, 11, 69, 52
13, 288419, Note_on_c, 11, 69, 0
13, 288480, Note_on_c, 11, 70, 52
13, 288480, Control_c, 11, 11, 117
13, 288659, Note_on_c, 11, 70, 0
13, 288720, Control_c, 11, 11, 116
13, 288720, Note_on_c, 11, 67, 52
13, 288899, Note_on_c, 11, 67, 0
13, 288960, Note_on_c, 11, 69, 52
13, 288960, Control_c, 11, 11, 115
13, 289139, Note_on_c, 11, 69, 0
13, 289200, Note_on_c, 11, 70, 52
13, 289200, Control_c, 11, 11, 113
13, 289379, Note_on_c, 11, 70, 0
13, 289440, Control_c, 11, 11, 112
13, 289440, Note_on_c, 11, 67, 52
13, 289619, Note_on_c, 11, 67, 0
13, 289680, Note_on_c, 11, 69, 52
13, 289859, Note_on_c, 11, 69, 0
13, 289920, Note_on_c, 11, 70, 52
13, 290099, Note_on_c, 11, 70, 0
13, 290160, Note_on_c, 11, 69, 52
13, 290399, Note_on_c, 11, 69, 0
13, 290640, Control_c, 11, 11, 127
13, 290880, Note_on_c, 11, 64, 44
13, 291059, Note_on_c, 11, 64, 0
13, 291120, Note_on_c, 11, 65, 44
13, 291299, Note_on_c, 11, 65, 0
13, 291360, Note_on_c, 11, 67, 44
13, 291539, Note_on_c, 11, 67, 0
13, 291600, Note_on_c, 11, 65, 44
13, 291839, Note_on_c, 11, 65, 0
13, 293760, Note_on_c, 11, 69, 76
13, 293760, Note_on_c, 11, 81, 76
13, 293999, Note_on_c, 11, 81, 0
13, 294000, Note_on_c, 11, 80, 76
13, 294239, Note_on_c, 11, 80, 0
13, 294240, Note_on_c, 11, 79, 76
13, 294449, Note_on_c, 11, 69, 0
13, 294449, Note_on_c, 11, 79, 0
13, 294480, Note_on_c, 11, 78, 76
13, 294659, Note_on_c, 11, 78, 0
13, 294720, Note_on_c, 11, 76, 76
13, 294899, Note_on_c, 11, 76, 0
13, 294960, Note_on_c, 11, 74, 76
13, 295139, Note_on_c, 11, 74, 0
13, 295200, Note_on_c, 11, 72, 44
13, 295889, Note_on_c, 11, 72, 0
13, 295920, Note_on_c, 11, 77, 44
13, 296099, Note_on_c, 11, 77, 0
13, 296160, Note_on_c, 11, 76, 44
13, 296339, Note_on_c, 11, 76, 0
13, 296400, Note_on_c, 11, 77, 44
13, 296579, Note_on_c, 11, 77, 0
13, 296640, Note_on_c, 11, 69, 44
13, 297329, Note_on_c, 11, 69, 0
13, 297360, Note_on_c, 11, 74, 44
13, 297539, Note_on_c, 11, 74, 0
13, 297600, Note_on_c, 11, 73, 44
13, 297779, Note_on_c, 11, 73, 0
13, 297840, Note_on_c, 11, 74, 44
13, 298019, Note_on_c, 11, 74, 0
13, 299520, Note_on_c, 11, 69, 76
13, 299520, Note_on_c, 11, 81, 76
13, 299759, Note_on_c, 11, 81, 0
13, 299760, Note_on_c, 11, 80, 76
13, 299999, Note_on_c, 11, 80, 0
13, 300000, Note_on_c, 11, 79, 76
13, 300209, Note_on_c, 11, 69, 0
13, 300209, Note_on_c, 11, 79, 0
13, 300240, Note_on_c, 11, 78, 76
13, 300419, Note_on_c, 11, 78, 0
13, 300480, Note_on_c, 11, 76, 76
13, 300659, Note_on_c, 11, 76, 0
13, 300720, Note_on_c, 11, 74, 76
13, 300899, Note_on_c, 11, 74, 0
13, 302400, Note_on_c, 11, 69, 84
13, 302400, Note_on_c, 11, 81, 84
13, 302639, Note_on_c, 11, 81, 0
13, 302640, Note_on_c, 11, 80, 76
13, 302879, Note_on_c, 11, 80, 0
13, 302880, Note_on_c, 11, 79, 76
13, 303089, Note_on_c, 11, 69, 0
13, 303089, Note_on_c, 11, 79, 0
13, 303120, Note_on_c, 11, 78, 76
13, 303299, Note_on_c, 11, 78, 0
13, 303360, Note_on_c, 11, 74, 76
13, 303539, Note_on_c, 11, 74, 0
13, 303600, Note_on_c, 11, 78, 76
13, 303779, Note_on_c, 11, 78, 0
13, 303840, Note_on_c, 11, 69, 84
13, 303840, Note_on_c, 11, 81, 84
13, 304079, Note_on_c, 11, 81, 0
13, 304080, Note_on_c, 11, 80, 76
13, 304319, Note_on_c, 11, 80, 0
13, 304320, Note_on_c, 11, 79, 76
13, 304529, Note_on_c, 11, 69, 0
13, 304529, Note_on_c, 11, 79, 0
13, 304560, Note_on_c, 11, 78, 76
13, 304739, Note_on_c, 11, 78, 0
13, 304800, Note_on_c, 11, 74, 76
13, 304979, Note_on_c, 11, 74, 0
13, 305040, Note_on_c, 11, 78, 76
13, 305219, Note_on_c, 11, 78, 0
13, 305280, Note_on_c, 11, 81, 84
13, 305280, Note_on_c, 11, 69, 84
13, 306239, Note_on_c, 11, 81, 0
13, 306240, Note_on_c, 11, 80, 84
13, 306479, Note_on_c, 11, 80, 0
13, 306480, Note_on_c, 11, 79, 84
13, 306689, Note_on_c, 11, 69, 0
13, 306689, Note_on_c, 11, 79, 0
13, 306720, Note_on_c, 11, 78, 84
13, 306959, Note_on_c, 11, 78, 0
13, 307200, Note_on_c, 11, 85, 84
13, 307200, Note_on_c, 11, 69, 84
13, 307379, Note_on_c, 11, 85, 0
13, 307379, Note_on_c, 11, 69, 0
13, 307440, Note_on_c, 11, 69, 84
13, 307440, Note_on_c, 11, 86, 84
13, 307440, Note_on_c, 11, 62, 84
13, 307619, Note_on_c, 11, 69, 0
13, 307619, Note_on_c, 11, 86, 0
13, 307619, Note_on_c, 11, 62, 0
13, 307619, End_track
14, 0, Start_track
14, 0, Title_t, "Violin II"
14, 0, MIDI_port, 0
14, 0, Program_c, 12, 48
14, 0, Control_c, 12, 7, 96
14, 0, Control_c, 12, 10, 24
14, 0, Control_c, 12, 11, 127
14, 0, Note_on_c, 12, 62, 76
14, 719, Note_on_c, 12, 62, 0
14, 1440, Note_on_c, 12, 59, 76
14, 1440, Note_on_c, 12, 62, 76
14, 2159, Note_on_c, 12, 59, 0
14, 2159, Note_on_c, 12, 62, 0
14, 3600, Note_on_c, 12, 69, 52
14, 3779, Note_on_c, 12, 69, 0
14, 3840, Note_on_c, 12, 74, 52
14, 4019, Note_on_c, 12, 74, 0
14, 4080, Note_on_c, 12, 76, 52
14, 4259, Note_on_c, 12, 76, 0
14, 5040, Note_on_c, 12, 78, 84
14, 5040, Note_on_c, 12, 69, 84
14, 5219, Note_on_c, 12, 78, 0
14, 5219, Note_on_c, 12, 69, 0
14, 5280, Note_on_c, 12, 69, 84
14, 5280, Note_on_c, 12, 79, 84
14, 5459, Note_on_c, 12, 69, 0
14, 5459, Note_on_c, 12, 79, 0
14, 5520, Note_on_c, 12, 78, 84
14, 5520, Note_on_c, 12, 69, 84
14, 5699, Note_on_c, 12, 78, 0
14, 5699, Note_on_c, 12, 69, 0
14, 5760, Note_on_c, 12, 62, 76
14, 6479, Note_on_c, 12, 62, 0
14, 7200, Note_on_c, 12, 62, 76
14, 7919, Note_on_c, 12, 62, 0
14, 8640, Note_on_c, 12, 61, 52
14, 8819, Note_on_c, 12, 61, 0
14, 8880, Note_on_c, 12, 62, 52
14, 9059, Note_on_c, 12, 62, 0
14, 9120, Note_on_c, 12, 64, 52
14, 9299, Note_on_c, 12, 64, 0
14, 9360, Note_on_c, 12, 76, 52
14, 9539, Note_on_c, 12, 76, 0
14, 9600, Note_on_c, 12, 81, 52
14, 9779, Note_on_c, 12, 81, 0
14, 9840, Note_on_c, 12, 83, 52
14, 10019, Note_on_c, 12, 83, 0
14, 10800, Note_on_c, 12, 64, 84
14, 10800, Note_on_c, 12, 73, 84
14, 10979, Note_on_c, 12, 64, 0
14, 10979, Note_on_c, 12, 73, 0
14, 11040, Note_on_c, 12, 74, 84
14, 11040, Note_on_c, 12, 64, 84
14, 11219, Note_on_c, 12, 74, 0
14, 11219, Note_on_c, 12, 64, 0
14, 11280, Note_on_c, 12, 64, 84
14, 11280, Note_on_c, 12, 73, 84
14, 11459, Note_on_c, 12, 64, 0
14, 11459, Note_on_c, 12, 73, 0
14, 11520, Note_on_c, 12, 62, 76
14, 12239, Note_on_c, 12, 62, 0
14, 12960, Note_on_c, 12, 59, 76
14, 12960, Note_on_c, 12, 62, 76
14, 13679, Note_on_c, 12, 59, 0
14, 13679, Note_on_c, 12, 62, 0
14, 15120, Note_on_c, 12, 69, 52
14, 15299, Note_on_c, 12, 69, 0
14, 15360, Note_on_c, 12, 74, 52
14, 15539, Note_on_c, 12, 74, 0
14, 15600, Note_on_c, 12, 76, 52
14, 15779, Note_on_c, 12, 76, 0
14, 16560, Note_on_c, 12, 69, 84
14, 16560, Note_on_c, 12, 78, 84
14, 16739, Note_on_c, 12, 69, 0
14, 16739, Note_on_c, 12, 78, 0
14, 16800, Note_on_c, 12, 79, 84
14, 16800, Note_on_c, 12, 69, 84
14, 16979, Note_on_c, 12, 79, 0
14, 16979, Note_on_c, 12, 69, 0
14, 17040, Note_on_c, 12, 78, 84
14, 17040, Note_on_c, 12, 69, 84
14, 17219, Note_on_c, 12, 78, 0
14, 17219, Note_on_c, 12, 69, 0
14, 17280, Note_on_c, 12, 62, 76
14, 17999, Note_on_c, 12, 62, 0
14, 18720, Note_on_c, 12, 62, 76
14, 19439, Note_on_c, 12, 62, 0
14, 20160, Note_on_c, 12, 61, 52
14, 20339, Note_on_c, 12, 61, 0
14, 20400, Note_on_c, 12, 62, 52
14, 20579, Note_on_c, 12, 62, 0
14, 20640, Note_on_c, 12, 64, 52
14, 20819, Note_on_c, 12, 64, 0
14, 20880, Note_on_c, 12, 76, 52
14, 21059, Note_on_c, 12, 76, 0
14, 21120, Note_on_c, 12, 81, 52
14, 21299, Note_on_c, 12, 81, 0
14, 21360, Note_on_c, 12, 83, 52
14, 21539, Note_on_c, 12, 83, 0
14, 22320, Note_on_c, 12, 73, 84
14, 22320, Note_on_c, 12, 64, 84
14, 22499, Note_on_c, 12, 73, 0
14, 22499, Note_on_c, 12, 64, 0
14, 22560, Note_on_c, 12, 74, 84
14, 22560, Note_on_c, 12, 64, 84
14, 22739, Note_on_c, 12, 74, 0
14, 22739, Note_on_c, 12, 64, 0
14, 22800, Note_on_c, 12, 73, 84
14, 22800, Note_on_c, 12, 64, 84
14, 22979, Note_on_c, 12, 73, 0
14, 22979, Note_on_c, 12, 64, 0
14, 23040, Note_on_c, 12, 61, 52
14, 23219, Note_on_c, 12, 61, 0
14, 23280, Note_on_c, 12, 62, 52
14, 23459, Note_on_c, 12, 62, 0
14, 23520, Note_on_c, 12, 64, 52
14, 23699, Note_on_c, 12, 64, 0
14, 23760, Note_on_c, 12, 65, 52
14, 23999, Note_on_c, 12, 65, 0
14, 24480, Note_on_c, 12, 57, 52
14, 24659, Note_on_c, 12, 57, 0
14, 24720, Note_on_c, 12, 58, 52
14, 24899, Note_on_c, 12, 58, 0
14, 24960, Note_on_c, 12, 60, 52
14, 25139, Note_on_c, 12, 60, 0
14, 25200, Note_on_c, 12, 62, 52
14, 25439, Note_on_c, 12, 62, 0
14, 25920, Note_on_c, 12, 58, 52
14, 25920, Note_on_c, 12, 62, 52
14, 26099, Note_on_c, 12, 58, 0
14, 26099, Note_on_c, 12, 62, 0
14, 26160, Note_on_c, 12, 58, 76
14, 26160, Note_on_c, 12, 62, 76
14, 26280, Control_c, 12, 11, 80
14, 27329, Note_on_c, 12, 58, 0
14, 27329, Note_on_c, 12, 62, 0
14, 27360, Note_on_c, 12, 63, 76
14, 27360, Note_on_c, 12, 60, 76
14, 27569, Note_on_c, 12, 63, 0
14, 27569, Note_on_c, 12, 60, 0
14, 27600, Note_on_c, 12, 63, 76
14, 27600, Note_on_c, 12, 60, 76
14, 27809, Note_on_c, 12, 63, 0
14, 27809, Note_on_c, 12, 60, 0
14, 27840, Note_on_c, 12, 60, 76
14, 27840, Note_on_c, 12, 63, 76
14, 28049, Note_on_c, 12, 60, 0
14, 28049, Note_on_c, 12, 63, 0
14, 28080, Note_on_c, 12, 60, 76
14, 28080, Note_on_c, 12, 63, 76
14, 28289, Note_on_c, 12, 60, 0
14, 28289, Note_on_c, 12, 63, 0
14, 28320, Note_on_c, 12, 60, 76
14, 28320, Note_on_c, 12, 63, 76
14, 28529, Note_on_c, 12, 60, 0
14, 28529, Note_on_c, 12, 63, 0
14, 28560, Note_on_c, 12, 60, 76
14, 28560, Note_on_c, 12, 63, 76
14, 28769, Note_on_c, 12, 60, 0
14, 28769, Note_on_c, 12, 63, 0
14, 28800, Note_on_c, 12, 58, 76
14, 28800, Note_on_c, 12, 62, 76
14, 28979, Note_on_c, 12, 58, 0
14, 28979, Note_on_c, 12, 62, 0
14, 29040, Note_on_c, 12, 58, 76
14, 29040, Control_c, 12, 11, 127
14, 29040, Note_on_c, 12, 62, 76
14, 29160, Control_c, 12, 11, 80
14, 30209, Note_on_c, 12, 58, 0
14, 30209, Note_on_c, 12, 62, 0
14, 30240, Note_on_c, 12, 60, 76
14, 30240, Note_on_c, 12, 63, 76
14, 30449, Note_on_c, 12, 60, 0
14, 30449, Note_on_c, 12, 63, 0
14, 30480, Note_on_c, 12, 63, 76
14, 30480, Note_on_c, 12, 60, 76
14, 30689, Note_on_c, 12, 63, 0
14, 30689, Note_on_c, 12, 60, 0
14, 30720, Note_on_c, 12, 63, 76
14, 30720, Note_on_c, 12, 60, 76
14, 30929, Note_on_c, 12, 63, 0
14, 30929, Note_on_c, 12, 60, 0
14, 30960, Note_on_c, 12, 60, 76
14, 30960, Note_on_c, 12, 63, 76
14, 31169, Note_on_c, 12, 60, 0
14, 31169, Note_on_c, 12, 63, 0
14, 31200, Note_on_c, 12, 63, 76
14, 31200, Note_on_c, 12, 60, 76
14, 31409, Note_on_c, 12, 63, 0
14, 31409, Note_on_c, 12, 60, 0
14, 31440, Note_on_c, 12, 60, 76
14, 31440, Note_on_c, 12, 63, 76
14, 31619, Note_on_c, 12, 60, 0
14, 31619, Note_on_c, 12, 63, 0
14, 31680, Note_on_c, 12, 62, 76
14, 31680, Note_on_c, 12, 58, 76
14, 31859, Note_on_c, 12, 62, 0
14, 31859, Note_on_c, 12, 58, 0
14, 31920, Note_on_c, 12, 62, 76
14, 32159, Note_on_c, 12, 62, 0
14, 32160, Note_on_c, 12, 65, 76
14, 32399, Note_on_c, 12, 65, 0
14, 32625, Control_c, 12, 11, 127
14, 32640, Note_on_c, 12, 62, 52
14, 32879, Note_on_c, 12, 62, 0
14, 32880, Note_on_c, 12, 65, 52
14, 33119, Note_on_c, 12, 65, 0
14, 33360, Note_on_c, 12, 62, 52
14, 33599, Note_on_c, 12, 62, 0
14, 33600, Note_on_c, 12, 65, 52
14, 33809, Note_on_c, 12, 65, 0
14, 33840, Note_on_c, 12, 65, 52
14, 34019, Note_on_c, 12, 65, 0
14, 34080, Note_on_c, 12, 65, 52
14, 34259, Note_on_c, 12, 65, 0
14, 34320, Note_on_c, 12, 65, 52
14, 34499, Note_on_c, 12, 65, 0
14, 34560, Note_on_c, 12, 64, 44
14, 34799, Note_on_c, 12, 64, 0
14, 36000, Control_c, 12, 11, 64
14, 36480, Control_c, 12, 11, 64
14, 36480, Note_on_c, 12, 61, 76
14, 36680, Control_c, 12, 11, 69
14, 36719, Note_on_c, 12, 61, 0
14, 36720, Note_on_c, 12, 62, 76
14, 36880, Control_c, 12, 11, 75
14, 36959, Note_on_c, 12, 62, 0
14, 36960, Note_on_c, 12, 65, 76
14, 37080, Control_c, 12, 11, 80
14, 37199, Note_on_c, 12, 65, 0
14, 37200, Note_on_c, 12, 68, 76
14, 37280, Control_c, 12, 11, 85
14, 37409, Note_on_c, 12, 68, 0
14, 37440, Note_on_c, 12, 69, 76
14, 37480, Control_c, 12, 11, 90
14, 37649, Note_on_c, 12, 69, 0
14, 37680, Note_on_c, 12, 57, 76
14, 37680, Control_c, 12, 11, 96
14, 37880, Control_c, 12, 11, 101
14, 37919, Note_on_c, 12, 57, 0
14, 37920, Note_on_c, 12, 58, 76
14, 38080, Control_c, 12, 11, 106
14, 38159, Note_on_c, 12, 58, 0
14, 38160, Note_on_c, 12, 59, 76
14, 38280, Control_c, 12, 11, 111
14, 38399, Note_on_c, 12, 59, 0
14, 38400, Note_on_c, 12, 60, 76
14, 38480, Control_c, 12, 11, 117
14, 38639, Note_on_c, 12, 60, 0
14, 38640, Note_on_c, 12, 61, 76
14, 38680, Control_c, 12, 11, 122
14, 38849, Note_on_c, 12, 61, 0
14, 38880, Note_on_c, 12, 62, 76
14, 38880, Control_c, 12, 11, 127
14, 39599, Note_on_c, 12, 62, 0
14, 40320, Note_on_c, 12, 62, 76
14, 40320, Note_on_c, 12, 59, 76
14, 41039, Note_on_c, 12, 62, 0
14, 41039, Note_on_c, 12, 59, 0
14, 42480, Note_on_c, 12, 69, 52
14, 42659, Note_on_c, 12, 69, 0
14, 42720, Note_on_c, 12, 74, 52
14, 42899, Note_on_c, 12, 74, 0
14, 42960, Note_on_c, 12, 76, 52
14, 43139, Note_on_c, 12, 76, 0
14, 43920, Note_on_c, 12, 69, 84
14, 43920, Note_on_c, 12, 78, 84
14, 44099, Note_on_c, 12, 69, 0
14, 44099, Note_on_c, 12, 78, 0
14, 44160, Note_on_c, 12, 79, 84
14, 44160, Note_on_c, 12, 69, 84
14, 44339, Note_on_c, 12, 79, 0
14, 44339, Note_on_c, 12, 69, 0
14, 44400, Note_on_c, 12, 78, 84
14, 44400, Note_on_c, 12, 69, 84
14, 44579, Note_on_c, 12, 78, 0
14, 44579, Note_on_c, 12, 69, 0
14, 44640, Note_on_c, 12, 62, 76
14, 45359, Note_on_c, 12, 62, 0
14, 46080, Note_on_c, 12, 62, 76
14, 46080, Note_on_c, 12, 59, 76
14, 46799, Note_on_c, 12, 62, 0
14, 46799, Note_on_c, 12, 59, 0
14, 48240, Note_on_c, 12, 64, 52
14, 48419, Note_on_c, 12, 64, 0
14, 48480, Note_on_c, 12, 66, 52
14, 48659, Note_on_c, 12, 66, 0
14, 48720, Note_on_c, 12, 67, 52
14, 48899, Note_on_c, 12, 67, 0
14, 49680, Note_on_c, 12, 64, 52
14, 49859, Note_on_c, 12, 64, 0
14, 49920, Note_on_c, 12, 66, 52
14, 50099, Note_on_c, 12, 66, 0
14, 50160, Note_on_c, 12, 67, 52
14, 50339, Note_on_c, 12, 67, 0
14, 51120, Control_c, 12, 11, 127
14, 51120, Note_on_c, 12, 64, 52
14, 51299, Note_on_c, 12, 64, 0
14, 51300, Control_c, 12, 11, 126
14, 51360, Note_on_c, 12, 65, 52
14, 51480, Control_c, 12, 11, 125
14, 51539, Note_on_c, 12, 65, 0
14, 51600, Note_on_c, 12, 67, 52
14, 51660, Control_c, 12, 11, 123
14, 51779, Note_on_c, 12, 67, 0
14, 51840, Control_c, 12, 11, 122
14, 51840, Note_on_c, 12, 64, 52
14, 52019, Note_on_c, 12, 64, 0
14, 52020, Control_c, 12, 11, 121
14, 52080, Note_on_c, 12, 65, 52
14, 52200, Control_c, 12, 11, 120
14, 52259, Note_on_c, 12, 65, 0
14, 52320, Note_on_c, 12, 67, 52
14, 52380, Control_c, 12, 11, 118
14, 52499, Note_on_c, 12, 67, 0
14, 52560, Control_c, 12, 11, 117
14, 52560, Note_on_c, 12, 64, 52
14, 52739, Note_on_c, 12, 64, 0
14, 52740, Control_c, 12, 11, 116
14, 52800, Note_on_c, 12, 65, 52
14, 52920, Control_c, 12, 11, 115
14, 52979, Note_on_c, 12, 65, 0
14, 53040, Note_on_c, 12, 67, 52
14, 53100, Control_c, 12, 11, 113
14, 53219, Note_on_c, 12, 67, 0
14, 53280, Note_on_c, 12, 64, 52
14, 53280, Control_c, 12, 11, 112
14, 53459, Note_on_c, 12, 64, 0
14, 53520, Note_on_c, 12, 65, 52
14, 53699, Note_on_c, 12, 65, 0
14, 53760, Note_on_c, 12, 67, 52
14, 53939, Note_on_c, 12, 67, 0
14, 54000, Note_on_c, 12, 65, 52
14, 54239, Note_on_c, 12, 65, 0
14, 54480, Control_c, 12, 11, 127
14, 54720, Note_on_c, 12, 61, 44
14, 54899, Note_on_c, 12, 61, 0
14, 54960, Note_on_c, 12, 62, 44
14, 55139, Note_on_c, 12, 62, 0
14, 55200, Note_on_c, 12, 64, 44
14, 55379, Note_on_c, 12, 64, 0
14, 55440, Note_on_c, 12, 62, 44
14, 55679, Note_on_c, 12, 62, 0
14, 55920, Control_c, 12, 11, 64
14, 56160, Control_c, 12, 11, 64
14, 56160, Note_on_c, 12, 62, 76
14, 56280, Control_c, 12, 11, 69
14, 56399, Note_on_c, 12, 62, 0
14, 56400, Control_c, 12, 11, 75
14, 56400, Note_on_c, 12, 64, 76
14, 56520, Control_c, 12, 11, 80
14, 56639, Note_on_c, 12, 64, 0
14, 56640, Note_on_c, 12, 65, 76
14, 56640, Control_c, 12, 11, 85
14, 56760, Control_c, 12, 11, 90
14, 56879, Note_on_c, 12, 65, 0
14, 56880, Note_on_c, 12, 66, 76
14, 56880, Control_c, 12, 11, 96
14, 57000, Control_c, 12, 11, 101
14, 57119, Note_on_c, 12, 66, 0
14, 57120, Note_on_c, 12, 67, 76
14, 57120, Control_c, 12, 11, 106
14, 57240, Control_c, 12, 11, 111
14, 57359, Note_on_c, 12, 67, 0
14, 57360, Control_c, 12, 11, 117
14, 57360, Note_on_c, 12, 68, 76
14, 57480, Control_c, 12, 11, 122
14, 57569, Note_on_c, 12, 68, 0
14, 57600, Control_c, 12, 11, 127
14, 57600, Note_on_c, 12, 69, 76
14, 57839, Note_on_c, 12, 69, 0
14, 57840, Note_on_c, 12, 68, 76
14, 58079, Note_on_c, 12, 68, 0
14, 58080, Note_on_c, 12, 67, 76
14, 58289, Note_on_c, 12, 67, 0
14, 58320, Note_on_c, 12, 66, 76
14, 58499, Note_on_c, 12, 66, 0
14, 58560, Note_on_c, 12, 64, 76
14, 58739, Note_on_c, 12, 64, 0
14, 58800, Note_on_c, 12, 62, 76
14, 58979, Note_on_c, 12, 62, 0
14, 59040, Note_on_c, 12, 67, 44
14, 59219, Note_on_c, 12, 67, 0
14, 59280, Note_on_c, 12, 69, 44
14, 59459, Note_on_c, 12, 69, 0
14, 59520, Note_on_c, 12, 70, 44
14, 59699, Note_on_c, 12, 70, 0
14, 59760, Note_on_c, 12, 69, 44
14, 59999, Note_on_c, 12, 69, 0
14, 60480, Note_on_c, 12, 64, 44
14, 60659, Note_on_c, 12, 64, 0
14, 60720, Note_on_c, 12, 65, 44
14, 60899, Note_on_c, 12, 65, 0
14, 60960, Note_on_c, 12, 67, 44
14, 61139, Note_on_c, 12, 67, 0
14, 61200, Note_on_c, 12, 65, 44
14, 61439, Note_on_c, 12, 65, 0
14, 61680, Control_c, 12, 11, 64
14, 61920, Note_on_c, 12, 62, 76
14, 61920, Control_c, 12, 11, 64
14, 62040, Control_c, 12, 11, 69
14, 62159, Note_on_c, 12, 62, 0
14, 62160, Note_on_c, 12, 64, 76
14, 62160, Control_c, 12, 11, 75
14, 62280, Control_c, 12, 11, 80
14, 62399, Note_on_c, 12, 64, 0
14, 62400, Note_on_c, 12, 65, 76
14, 62400, Control_c, 12, 11, 85
14, 62520, Control_c, 12, 11, 90
14, 62639, Note_on_c, 12, 65, 0
14, 62640, Control_c, 12, 11, 96
14, 62640, Note_on_c, 12, 66, 76
14, 62760, Control_c, 12, 11, 101
14, 62879, Note_on_c, 12, 66, 0
14, 62880, Note_on_c, 12, 67, 76
14, 62880, Control_c, 12, 11, 106
14, 63000, Control_c, 12, 11, 111
14, 63119, Note_on_c, 12, 67, 0
14, 63120, Control_c, 12, 11, 117
14, 63120, Note_on_c, 12, 68, 76
14, 63240, Control_c, 12, 11, 122
14, 63329, Note_on_c, 12, 68, 0
14, 63360, Control_c, 12, 11, 127
14, 63360, Note_on_c, 12, 69, 76
14, 63599, Note_on_c, 12, 69, 0
14, 63600, Note_on_c, 12, 68, 76
14, 63839, Note_on_c, 12, 68, 0
14, 63840, Note_on_c, 12, 67, 76
14, 64049, Note_on_c, 12, 67, 0
14, 64080, Note_on_c, 12, 66, 76
14, 64259, Note_on_c, 12, 66, 0
14, 64320, Note_on_c, 12, 64, 76
14, 64499, Note_on_c, 12, 64, 0
14, 64560, Note_on_c, 12, 62, 76
14, 64739, Note_on_c, 12, 62, 0
14, 64800, Control_c, 12, 11, 80
14, 64800, Note_on_c, 12, 62, 76
14, 64920, Control_c, 12, 11, 84
14, 65039, Note_on_c, 12, 62, 0
14, 65040, Control_c, 12, 11, 88
14, 65040, Note_on_c, 12, 64, 76
14, 65160, Control_c, 12, 11, 92
14, 65279, Note_on_c, 12, 64, 0
14, 65280, Control_c, 12, 11, 96
14, 65280, Note_on_c, 12, 65, 76
14, 65400, Control_c, 12, 11, 100
14, 65519, Note_on_c, 12, 65, 0
14, 65520, Note_on_c, 12, 66, 76
14, 65520, Control_c, 12, 11, 104
14, 65640, Control_c, 12, 11, 107
14, 65759, Note_on_c, 12, 66, 0
14, 65760, Note_on_c, 12, 67, 76
14, 65760, Control_c, 12, 11, 111
14, 65880, Control_c, 12, 11, 115
14, 65999, Note_on_c, 12, 67, 0
14, 66000, Control_c, 12, 11, 119
14, 66000, Note_on_c, 12, 68, 76
14, 66120, Control_c, 12, 11, 123
14, 66209, Note_on_c, 12, 68, 0
14, 66240, Control_c, 12, 11, 127
14, 66240, Note_on_c, 12, 69, 84
14, 66479, Note_on_c, 12, 69, 0
14, 66480, Note_on_c, 12, 68, 76
14, 66719, Note_on_c, 12, 68, 0
14, 66720, Note_on_c, 12, 67, 76
14, 66929, Note_on_c, 12, 67, 0
14, 66960, Note_on_c, 12, 66, 76
14, 67139, Note_on_c, 12, 66, 0
14, 67200, Note_on_c, 12, 62, 76
14, 67379, Note_on_c, 12, 62, 0
14, 67440, Note_on_c, 12, 66, 76
14, 67619, Note_on_c, 12, 66, 0
14, 67680, Note_on_c, 12, 69, 84
14, 67919, Note_on_c, 12, 69, 0
14, 67920, Note_on_c, 12, 68, 76
14, 68159, Note_on_c, 12, 68, 0
14, 68160, Note_on_c, 12, 67, 76
14, 68369, Note_on_c, 12, 67, 0
14, 68400, Note_on_c, 12, 66, 76
14, 68579, Note_on_c, 12, 66, 0
14, 68640, Note_on_c, 12, 62, 76
14, 68819, Note_on_c, 12, 62, 0
14, 68880, Note_on_c, 12, 66, 76
14, 69059, Note_on_c, 12, 66, 0
14, 69120, Note_on_c, 12, 61, 84
14, 69359, Note_on_c, 12, 61, 0
14, 69360, Note_on_c, 12, 64, 84
14, 69599, Note_on_c, 12, 64, 0
14, 69600, Note_on_c, 12, 69, 84
14, 69839, Note_on_c, 12, 69, 0
14, 69840, Note_on_c, 12, 73, 84
14, 70079, Note_on_c, 12, 73, 0
14, 70080, Note_on_c, 12, 74, 84
14, 70319, Note_on_c, 12, 74, 0
14, 70320, Note_on_c, 12, 76, 84
14, 70529, Note_on_c, 12, 76, 0
14, 70560, Note_on_c, 12, 78, 84
14, 70799, Note_on_c, 12, 78, 0
14, 71040, Note_on_c, 12, 79, 84
14, 71040, Note_on_c, 12, 69, 84
14, 71219, Note_on_c, 12, 79, 0
14, 71219, Note_on_c, 12, 69, 0
14, 71280, Note_on_c, 12, 78, 84
14, 71280, Note_on_c, 12, 69, 84
14, 71280, Note_on_c, 12, 62, 84
14, 71459, Note_on_c, 12, 78, 0
14, 71459, Note_on_c, 12, 69, 0
14, 71459, Note_on_c, 12, 62, 0
14, 72000, Note_on_c, 12, 61, 52
14, 72179, Note_on_c, 12, 61, 0
14, 72240, Note_on_c, 12, 62, 52
14, 72419, Note_on_c, 12, 62, 0
14, 72480, Note_on_c, 12, 64, 52
14, 72659, Note_on_c, 12, 64, 0
14, 72720, Note_on_c, 12, 65, 52
14, 72959, Note_on_c, 12, 65, 0
14, 73440, Note_on_c, 12, 57, 52
14, 73619, Note_on_c, 12, 57, 0
14, 73680, Note_on_c, 12, 58, 52
14, 73859, Note_on_c, 12, 58, 0
14, 73920, Note_on_c, 12, 60, 52
14, 74099, Note_on_c, 12, 60, 0
14, 74160, Note_on_c, 12, 62, 52
14, 74399, Note_on_c, 12, 62, 0
14, 74880, Note_on_c, 12, 58, 52
14, 74880, Note_on_c, 12, 62, 52
14, 75059, Note_on_c, 12, 58, 0
14, 75059, Note_on_c, 12, 62, 0
14, 75120, Note_on_c, 12, 58, 76
14, 75120, Note_on_c, 12, 62, 76
14, 75240, Control_c, 12, 11, 80
14, 76289, Note_on_c, 12, 58, 0
14, 76289, Note_on_c, 12, 62, 0
14, 76320, Note_on_c, 12, 63, 76
14, 76320, Note_on_c, 12, 60, 76
14, 76529, Note_on_c, 12, 63, 0
14, 76529, Note_on_c, 12, 60, 0
14, 76560, Note_on_c, 12, 60, 76
14, 76560, Note_on_c, 12, 63, 76
14, 76769, Note_on_c, 12, 60, 0
14, 76769, Note_on_c, 12, 63, 0
14, 76800, Note_on_c, 12, 63, 76
14, 76800, Note_on_c, 12, 60, 76
14, 77009, Note_on_c, 12, 63, 0
14, 77009, Note_on_c, 12, 60, 0
14, 77040, Note_on_c, 12, 60, 76
14, 77040, Note_on_c, 12, 63, 76
14, 77249, Note_on_c, 12, 60, 0
14, 77249, Note_on_c, 12, 63, 0
14, 77280, Note_on_c, 12, 60, 76
14, 77280, Note_on_c, 12, 63, 76
14, 77489, Note_on_c, 12, 60, 0
14, 77489, Note_on_c, 12, 63, 0
14, 77520, Note_on_c, 12, 63, 76
14, 77520, Note_on_c, 12, 60, 76
14, 77729, Note_on_c, 12, 63, 0
14, 77729, Note_on_c, 12, 60, 0
14, 77760, Note_on_c, 12, 58, 76
14, 77760, Note_on_c, 12, 62, 76
14, 77939, Note_on_c, 12, 58, 0
14, 77939, Note_on_c, 12, 62, 0
14, 78000, Note_on_c, 12, 62, 76
14, 78000, Note_on_c, 12, 58, 76
14, 78000, Control_c, 12, 11, 127
14, 78120, Control_c, 12, 11, 80
14, 79169, Note_on_c, 12, 62, 0
14, 79169, Note_on_c, 12, 58, 0
14, 79200, Note_on_c, 12, 63, 76
14, 79200, Note_on_c, 12, 60, 76
14, 79409, Note_on_c, 12, 63, 0
14, 79409, Note_on_c, 12, 60, 0
14, 79440, Note_on_c, 12, 60, 76
14, 79440, Note_on_c, 12, 63, 76
14, 79649, Note_on_c, 12, 60, 0
14, 79649, Note_on_c, 12, 63, 0
14, 79680, Note_on_c, 12, 60, 76
14, 79680, Note_on_c, 12, 63, 76
14, 79889, Note_on_c, 12, 60, 0
14, 79889, Note_on_c, 12, 63, 0
14, 79920, Note_on_c, 12, 60, 76
14, 79920, Note_on_c, 12, 63, 76
14, 80129, Note_on_c, 12, 60, 0
14, 80129, Note_on_c, 12, 63, 0
14, 80160, Note_on_c, 12, 63, 76
14, 80160, Note_on_c, 12, 60, 76
14, 80369, Note_on_c, 12, 63, 0
14, 80369, Note_on_c, 12, 60, 0
14, 80400, Note_on_c, 12, 63, 76
14, 80400, Note_on_c, 12, 60, 76
14, 80579, Note_on_c, 12, 63, 0
14, 80579, Note_on_c, 12, 60, 0
14, 80640, Note_on_c, 12, 58, 76
14, 80640, Note_on_c, 12, 62, 76
14, 80819, Note_on_c, 12, 58, 0
14, 80819, Note_on_c, 12, 62, 0
14, 80880, Note_on_c, 12, 62, 76
14, 81119, Note_on_c, 12, 62, 0
14, 81120, Note_on_c, 12, 65, 76
14, 81359, Note_on_c, 12, 65, 0
14, 81585, Control_c, 12, 11, 127
14, 81600, Note_on_c, 12, 62, 52
14, 81839, Note_on_c, 12, 62, 0
14, 81840, Note_on_c, 12, 65, 52
14, 82079, Note_on_c, 12, 65, 0
14, 82320, Note_on_c, 12, 62, 52
14, 82559, Note_on_c, 12, 62, 0
14, 82560, Note_on_c, 12, 65, 52
14, 82769, Note_on_c, 12, 65, 0
14, 82800, Note_on_c, 12, 65, 52
14, 82979, Note_on_c, 12, 65, 0
14, 83040, Note_on_c, 12, 65, 52
14, 83219, Note_on_c, 12, 65, 0
14, 83280, Note_on_c, 12, 65, 52
14, 83459, Note_on_c, 12, 65, 0
14, 83520, Note_on_c, 12, 64, 44
14, 83759, Note_on_c, 12, 64, 0
14, 84960, Control_c, 12, 11, 64
14, 85440, Note_on_c, 12, 61, 76
14, 85440, Control_c, 12, 11, 64
14, 85640, Control_c, 12, 11, 69
14, 85679, Note_on_c, 12, 61, 0
14, 85680, Note_on_c, 12, 62, 76
14, 85840, Control_c, 12, 11, 75
14, 85919, Note_on_c, 12, 62, 0
14, 85920, Note_on_c, 12, 65, 76
14, 86040, Control_c, 12, 11, 80
14, 86159, Note_on_c, 12, 65, 0
14, 86160, Note_on_c, 12, 68, 76
14, 86240, Control_c, 12, 11, 85
14, 86369, Note_on_c, 12, 68, 0
14, 86400, Note_on_c, 12, 69, 76
14, 86440, Control_c, 12, 11, 90
14, 86609, Note_on_c, 12, 69, 0
14, 86640, Note_on_c, 12, 57, 76
14, 86640, Control_c, 12, 11, 96
14, 86840, Control_c, 12, 11, 101
14, 86879, Note_on_c, 12, 57, 0
14, 86880, Note_on_c, 12, 58, 76
14, 87040, Control_c, 12, 11, 106
14, 87119, Note_on_c, 12, 58, 0
14, 87120, Note_on_c, 12, 59, 76
14, 87240, Control_c, 12, 11, 111
14, 87359, Note_on_c, 12, 59, 0
14, 87360, Note_on_c, 12, 60, 76
14, 87440, Control_c, 12, 11, 117
14, 87599, Note_on_c, 12, 60, 0
14, 87600, Note_on_c, 12, 61, 76
14, 87640, Control_c, 12, 11, 122
14, 87809, Note_on_c, 12, 61, 0
14, 87840, Note_on_c, 12, 62, 76
14, 87840, Control_c, 12, 11, 127
14, 88559, Note_on_c, 12, 62, 0
14, 89280, Note_on_c, 12, 62, 76
14, 89280, Note_on_c, 12, 59, 76
14, 89999, Note_on_c, 12, 62, 0
14, 89999, Note_on_c, 12, 59, 0
14, 91440, Note_on_c, 12, 69, 52
14, 91619, Note_on_c, 12, 69, 0
14, 91680, Note_on_c, 12, 74, 52
14, 91859, Note_on_c, 12, 74, 0
14, 91920, Note_on_c, 12, 76, 52
14, 92099, Note_on_c, 12, 76, 0
14, 92880, Note_on_c, 12, 78, 84
14, 92880, Note_on_c, 12, 69, 84
14, 93059, Note_on_c, 12, 78, 0
14, 93059, Note_on_c, 12, 69, 0
14, 93120, Note_on_c, 12, 79, 84
14, 93120, Note_on_c, 12, 69, 84
14, 93299, Note_on_c, 12, 79, 0
14, 93299, Note_on_c, 12, 69, 0
14, 93360, Note_on_c, 12, 69, 84
14, 93360, Note_on_c, 12, 78, 84
14, 93539, Note_on_c, 12, 69, 0
14, 93539, Note_on_c, 12, 78, 0
14, 93600, Note_on_c, 12, 62, 76
14, 94319, Note_on_c, 12, 62, 0
14, 95040, Note_on_c, 12, 59, 76
14, 95040, Note_on_c, 12, 62, 76
14, 95759, Note_on_c, 12, 59, 0
14, 95759, Note_on_c, 12, 62, 0
14, 97200, Note_on_c, 12, 64, 52
14, 97379, Note_on_c, 12, 64, 0
14, 97440, Note_on_c, 12, 66, 52
14, 97619, Note_on_c, 12, 66, 0
14, 97680, Note_on_c, 12, 67, 52
14, 97859, Note_on_c, 12, 67, 0
14, 98640, Note_on_c, 12, 64, 52
14, 98819, Note_on_c, 12, 64, 0
14, 98880, Note_on_c, 12, 66, 52
14, 99059, Note_on_c, 12, 66, 0
14, 99120, Note_on_c, 12, 67, 52
14, 99299, Note_on_c, 12, 67, 0
14, 100080, Control_c, 12, 11, 127
14, 100080, Note_on_c, 12, 64, 52
14, 100259, Note_on_c, 12, 64, 0
14, 100260, Control_c, 12, 11, 126
14, 100320, Note_on_c, 12, 65, 52
14, 100440, Control_c, 12, 11, 125
14, 100499, Note_on_c, 12, 65, 0
14, 100560, Note_on_c, 12, 67, 52
14, 100620, Control_c, 12, 11, 123
14, 100739, Note_on_c, 12, 67, 0
14, 100800, Note_on_c, 12, 64, 52
14, 100800, Control_c, 12, 11, 122
14, 100979, Note_on_c, 12, 64, 0
14, 100980, Control_c, 12, 11, 121
14, 101040, Note_on_c, 12, 65, 52
14, 101160, Control_c, 12, 11, 120
14, 101219, Note_on_c, 12, 65, 0
14, 101280, Note_on_c, 12, 67, 52
14, 101340, Control_c, 12, 11, 118
14, 101459, Note_on_c, 12, 67, 0
14, 101520, Note_on_c, 12, 64, 52
14, 101520, Control_c, 12, 11, 117
14, 101699, Note_on_c, 12, 64, 0
14, 101700, Control_c, 12, 11, 116
14, 101760, Note_on_c, 12, 65, 52
14, 101880, Control_c, 12, 11, 115
14, 101939, Note_on_c, 12, 65, 0
14, 102000, Note_on_c, 12, 67, 52
14, 102060, Control_c, 12, 11, 113
14, 102179, Note_on_c, 12, 67, 0
14, 102240, Note_on_c, 12, 64, 52
14, 102240, Control_c, 12, 11, 112
14, 102419, Note_on_c, 12, 64, 0
14, 102480, Note_on_c, 12, 65, 52
14, 102659, Note_on_c, 12, 65, 0
14, 102720, Note_on_c, 12, 67, 52
14, 102899, Note_on_c, 12, 67, 0
14, 102960, Note_on_c, 12, 65, 52
14, 103199, Note_on_c, 12, 65, 0
14, 103440, Control_c, 12, 11, 127
14, 103680, Note_on_c, 12, 61, 44
14, 103859, Note_on_c, 12, 61, 0
14, 103920, Note_on_c, 12, 62, 44
14, 104099, Note_on_c, 12, 62, 0
14, 104160, Note_on_c, 12, 64, 44
14, 104339, Note_on_c, 12, 64, 0
14, 104400, Note_on_c, 12, 62, 44
14, 104639, Note_on_c, 12, 62, 0
14, 104880, Control_c, 12, 11, 64
14, 105120, Control_c, 12, 11, 64
14, 105120, Note_on_c, 12, 62, 76
14, 105240, Control_c, 12, 11, 69
14, 105359, Note_on_c, 12, 62, 0
14, 105360, Control_c, 12, 11, 75
14, 105360, Note_on_c, 12, 64, 76
14, 105480, Control_c, 12, 11, 80
14, 105599, Note_on_c, 12, 64, 0
14, 105600, Control_c, 12, 11, 85
14, 105600, Note_on_c, 12, 65, 76
14, 105720, Control_c, 12, 11, 90
14, 105839, Note_on_c, 12, 65, 0
14, 105840, Control_c, 12, 11, 96
14, 105840, Note_on_c, 12, 66, 76
14, 105960, Control_c, 12, 11, 101
14, 106079, Note_on_c, 12, 66, 0
14, 106080, Control_c, 12, 11, 106
14, 106080, Note_on_c, 12, 67, 76
14, 106200, Control_c, 12, 11, 111
14, 106319, Note_on_c, 12, 67, 0
14, 106320, Control_c, 12, 11, 117
14, 106320, Note_on_c, 12, 68, 76
14, 106440, Control_c, 12, 11, 122
14, 106529, Note_on_c, 12, 68, 0
14, 106560, Note_on_c, 12, 69, 76
14, 106560, Control_c, 12, 11, 127
14, 106799, Note_on_c, 12, 69, 0
14, 106800, Note_on_c, 12, 68, 76
14, 107039, Note_on_c, 12, 68, 0
14, 107040, Note_on_c, 12, 67, 76
14, 107249, Note_on_c, 12, 67, 0
14, 107280, Note_on_c, 12, 66, 76
14, 107459, Note_on_c, 12, 66, 0
14, 107520, Note_on_c, 12, 64, 76
14, 107699, Note_on_c, 12, 64, 0
14, 107760, Note_on_c, 12, 62, 76
14, 107939, Note_on_c, 12, 62, 0
14, 108000, Note_on_c, 12, 67, 44
14, 108179, Note_on_c, 12, 67, 0
14, 108240, Note_on_c, 12, 69, 44
14, 108419, Note_on_c, 12, 69, 0
14, 108480, Note_on_c, 12, 70, 44
14, 108659, Note_on_c, 12, 70, 0
14, 108720, Note_on_c, 12, 69, 44
14, 108959, Note_on_c, 12, 69, 0
14, 109440, Note_on_c, 12, 64, 44
14, 109619, Note_on_c, 12, 64, 0
14, 109680, Note_on_c, 12, 65, 44
14, 109859, Note_on_c, 12, 65, 0
14, 109920, Note_on_c, 12, 67, 44
14, 110099, Note_on_c, 12, 67, 0
14, 110160, Note_on_c, 12, 65, 44
14, 110399, Note_on_c, 12, 65, 0
14, 110640, Control_c, 12, 11, 64
14, 110880, Control_c, 12, 11, 64
14, 110880, Note_on_c, 12, 62, 76
14, 111000, Control_c, 12, 11, 69
14, 111119, Note_on_c, 12, 62, 0
14, 111120, Control_c, 12, 11, 75
14, 111120, Note_on_c, 12, 64, 76
14, 111240, Control_c, 12, 11, 80
14, 111359, Note_on_c, 12, 64, 0
14, 111360, Control_c, 12, 11, 85
14, 111360, Note_on_c, 12, 65, 76
14, 111480, Control_c, 12, 11, 90
14, 111599, Note_on_c, 12, 65, 0
14, 111600, Control_c, 12, 11, 96
14, 111600, Note_on_c, 12, 66, 76
14, 111720, Control_c, 12, 11, 101
14, 111839, Note_on_c, 12, 66, 0
14, 111840, Control_c, 12, 11, 106
14, 111840, Note_on_c, 12, 67, 76
14, 111960, Control_c, 12, 11, 111
14, 112079, Note_on_c, 12, 67, 0
14, 112080, Note_on_c, 12, 68, 76
14, 112080, Control_c, 12, 11, 117
14, 112200, Control_c, 12, 11, 122
14, 112289, Note_on_c, 12, 68, 0
14, 112320, Note_on_c, 12, 69, 76
14, 112320, Control_c, 12, 11, 127
14, 112559, Note_on_c, 12, 69, 0
14, 112560, Note_on_c, 12, 68, 76
14, 112799, Note_on_c, 12, 68, 0
14, 112800, Note_on_c, 12, 67, 76
14, 113009, Note_on_c, 12, 67, 0
14, 113040, Note_on_c, 12, 66, 76
14, 113219, Note_on_c, 12, 66, 0
14, 113280, Note_on_c, 12, 64, 76
14, 113459, Note_on_c, 12, 64, 0
14, 113520, Note_on_c, 12, 62, 76
14, 113699, Note_on_c, 12, 62, 0
14, 113760, Control_c, 12, 11, 80
14, 113760, Note_on_c, 12, 62, 76
14, 113880, Control_c, 12, 11, 84
14, 113999, Note_on_c, 12, 62, 0
14, 114000, Note_on_c, 12, 64, 76
14, 114000, Control_c, 12, 11, 88
14, 114120, Control_c, 12, 11, 92
14, 114239, Note_on_c, 12, 64, 0
14, 114240, Control_c, 12, 11, 96
14, 114240, Note_on_c, 12, 65, 76
14, 114360, Control_c, 12, 11, 100
14, 114479, Note_on_c, 12, 65, 0
14, 114480, Note_on_c, 12, 66, 76
14, 114480, Control_c, 12, 11, 104
14, 114600, Control_c, 12, 11, 107
14, 114719, Note_on_c, 12, 66, 0
14, 114720, Note_on_c, 12, 67, 76
14, 114720, Control_c, 12, 11, 111
14, 114840, Control_c, 12, 11, 115
14, 114959, Note_on_c, 12, 67, 0
14, 114960, Note_on_c, 12, 68, 76
14, 114960, Control_c, 12, 11, 119
14, 115080, Control_c, 12, 11, 123
14, 115169, Note_on_c, 12, 68, 0
14, 115200, Note_on_c, 12, 69, 84
14, 115200, Control_c, 12, 11, 127
14, 115439, Note_on_c, 12, 69, 0
14, 115440, Note_on_c, 12, 68, 76
14, 115679, Note_on_c, 12, 68, 0
14, 115680, Note_on_c, 12, 67, 76
14, 115889, Note_on_c, 12, 67, 0
14, 115920, Note_on_c, 12, 66, 76
14, 116099, Note_on_c, 12, 66, 0
14, 116160, Note_on_c, 12, 62, 76
14, 116339, Note_on_c, 12, 62, 0
14, 116400, Note_on_c, 12, 66, 76
14, 116579, Note_on_c, 12, 66, 0
14, 116640, Note_on_c, 12, 69, 84
14, 116879, Note_on_c, 12, 69, 0
14, 116880, Note_on_c, 12, 68, 76
14, 117119, Note_on_c, 12, 68, 0
14, 117120, Note_on_c, 12, 67, 76
14, 117329, Note_on_c, 12, 67, 0
14, 117360, Note_on_c, 12, 66, 76
14, 117539, Note_on_c, 12, 66, 0
14, 117600, Note_on_c, 12, 62, 76
14, 117779, Note_on_c, 12, 62, 0
14, 117840, Note_on_c, 12, 66, 76
14, 118019, Note_on_c, 12, 66, 0
14, 118080, Note_on_c, 12, 61, 84
14, 118319, Note_on_c, 12, 61, 0
14, 118320, Note_on_c, 12, 64, 84
14, 118559, Note_on_c, 12, 64, 0
14, 118560, Note_on_c, 12, 69, 84
14, 118799, Note_on_c, 12, 69, 0
14, 118800, Note_on_c, 12, 73, 84
14, 119039, Note_on_c, 12, 73, 0
14, 119040, Note_on_c, 12, 74, 84
14, 119279, Note_on_c, 12, 74, 0
14, 119280, Note_on_c, 12, 76, 84
14, 119489, Note_on_c, 12, 76, 0
14, 119520, Note_on_c, 12, 78, 84
14, 119759, Note_on_c, 12, 78, 0
14, 120000, Note_on_c, 12, 79, 84
14, 120000, Note_on_c, 12, 69, 84
14, 120179, Note_on_c, 12, 79, 0
14, 120179, Note_on_c, 12, 69, 0
14, 120240, Note_on_c, 12, 78, 84
14, 120240, Note_on_c, 12, 62, 84
14, 120240, Note_on_c, 12, 69, 84
14, 120419, Note_on_c, 12, 78, 0
14, 120419, Note_on_c, 12, 62, 0
14, 120419, Note_on_c, 12, 69, 0
14, 132480, Note_on_c, 12, 66, 76
14, 133169, Note_on_c, 12, 66, 0
14, 133200, Note_on_c, 12, 66, 84
14, 133889, Note_on_c, 12, 66, 0
14, 133920, Note_on_c, 12, 66, 76
14, 134039, Note_on_c, 12, 66, 0
14, 134040, Note_on_c, 12, 65, 76
14, 134129, Note_on_c, 12, 65, 0
14, 134160, Note_on_c, 12, 66, 76
14, 134279, Note_on_c, 12, 66, 0
14, 134280, Note_on_c, 12, 65, 76
14, 134369, Note_on_c, 12, 65, 0
14, 134400, Note_on_c, 12, 66, 76
14, 134519, Note_on_c, 12, 66, 0
14, 134520, Note_on_c, 12, 65, 76
14, 134609, Note_on_c, 12, 65, 0
14, 134640, Note_on_c, 12, 66, 76
14, 134759, Note_on_c, 12, 66, 0
14, 134760, Note_on_c, 12, 65, 76
14, 134849, Note_on_c, 12, 65, 0
14, 134880, Note_on_c, 12, 66, 76
14, 134999, Note_on_c, 12, 66, 0
14, 135000, Note_on_c, 12, 65, 76
14, 135089, Note_on_c, 12, 65, 0
14, 135120, Note_on_c, 12, 66, 76
14, 135239, Note_on_c, 12, 66, 0
14, 135240, Note_on_c, 12, 65, 76
14, 135329, Note_on_c, 12, 65, 0
14, 135360, Note_on_c, 12, 66, 76
14, 135449, Note_on_c, 12, 66, 0
14, 135480, Note_on_c, 12, 66, 76
14, 135569, Note_on_c, 12, 66, 0
14, 135600, Note_on_c, 12, 70, 76
14, 135689, Note_on_c, 12, 70, 0
14, 135720, Note_on_c, 12, 70, 76
14, 135809, Note_on_c, 12, 70, 0
14, 135840, Note_on_c, 12, 73, 76
14, 135929, Note_on_c, 12, 73, 0
14, 135960, Note_on_c, 12, 73, 76
14, 136049, Note_on_c, 12, 73, 0
14, 136080, Note_on_c, 12, 78, 84
14, 136169, Note_on_c, 12, 78, 0
14, 136200, Note_on_c, 12, 78, 76
14, 136289, Note_on_c, 12, 78, 0
14, 136320, Note_on_c, 12, 73, 76
14, 136409, Note_on_c, 12, 73, 0
14, 136440, Note_on_c, 12, 73, 76
14, 136529, Note_on_c, 12, 73, 0
14, 136560, Note_on_c, 12, 70, 76
14, 136649, Note_on_c, 12, 70, 0
14, 136680, Note_on_c, 12, 70, 76
14, 136769, Note_on_c, 12, 70, 0
14, 136800, Note_on_c, 12, 66, 76
14, 136889, Note_on_c, 12, 66, 0
14, 136920, Note_on_c, 12, 66, 76
14, 137009, Note_on_c, 12, 66, 0
14, 137040, Note_on_c, 12, 70, 76
14, 137129, Note_on_c, 12, 70, 0
14, 137160, Note_on_c, 12, 70, 76
14, 137249, Note_on_c, 12, 70, 0
14, 137280, Note_on_c, 12, 73, 76
14, 137369, Note_on_c, 12, 73, 0
14, 137400, Note_on_c, 12, 73, 76
14, 137489, Note_on_c, 12, 73, 0
14, 137520, Note_on_c, 12, 78, 84
14, 137609, Note_on_c, 12, 78, 0
14, 137640, Note_on_c, 12, 78, 76
14, 137729, Note_on_c, 12, 78, 0
14, 137760, Note_on_c, 12, 73, 76
14, 137849, Note_on_c, 12, 73, 0
14, 137880, Note_on_c, 12, 73, 76
14, 137969, Note_on_c, 12, 73, 0
14, 138000, Note_on_c, 12, 70, 76
14, 138089, Note_on_c, 12, 70, 0
14, 138120, Note_on_c, 12, 70, 76
14, 138209, Note_on_c, 12, 70, 0
14, 138240, Note_on_c, 12, 66, 52
14, 138329, Note_on_c, 12, 66, 0
14, 138360, Note_on_c, 12, 66, 52
14, 138449, Note_on_c, 12, 66, 0
14, 138480, Note_on_c, 12, 66, 52
14, 138569, Note_on_c, 12, 66, 0
14, 138600, Note_on_c, 12, 66, 51
14, 138689, Note_on_c, 12, 66, 0
14, 138720, Note_on_c, 12, 66, 51
14, 138809, Note_on_c, 12, 66, 0
14, 138840, Note_on_c, 12, 66, 51
14, 138929, Note_on_c, 12, 66, 0
14, 138960, Note_on_c, 12, 66, 50
14, 139049, Note_on_c, 12, 66, 0
14, 139080, Note_on_c, 12, 66, 50
14, 139169, Note_on_c, 12, 66, 0
14, 139200, Note_on_c, 12, 66, 50
14, 139289, Note_on_c, 12, 66, 0
14, 139320, Note_on_c, 12, 66, 49
14, 139409, Note_on_c, 12, 66, 0
14, 139440, Note_on_c, 12, 66, 49
14, 139529, Note_on_c, 12, 66, 0
14, 139560, Note_on_c, 12, 66, 49
14, 139649, Note_on_c, 12, 66, 0
14, 139680, Note_on_c, 12, 66, 48
14, 139769, Note_on_c, 12, 66, 0
14, 139800, Note_on_c, 12, 66, 48
14, 139889, Note_on_c, 12, 66, 0
14, 139920, Note_on_c, 12, 66, 48
14, 140009, Note_on_c, 12, 66, 0
14, 140040, Note_on_c, 12, 66, 47
14, 140129, Note_on_c, 12, 66, 0
14, 140160, Note_on_c, 12, 66, 47
14, 140249, Note_on_c, 12, 66, 0
14, 140280, Note_on_c, 12, 66, 47
14, 140369, Note_on_c, 12, 66, 0
14, 140400, Note_on_c, 12, 66, 46
14, 140489, Note_on_c, 12, 66, 0
14, 140520, Note_on_c, 12, 66, 46
14, 140609, Note_on_c, 12, 66, 0
14, 140640, Note_on_c, 12, 66, 46
14, 140729, Note_on_c, 12, 66, 0
14, 140760, Note_on_c, 12, 66, 45
14, 140849, Note_on_c, 12, 66, 0
14, 140880, Note_on_c, 12, 66, 45
14, 140969, Note_on_c, 12, 66, 0
14, 141000, Note_on_c, 12, 66, 45
14, 141089, Note_on_c, 12, 66, 0
14, 141120, Note_on_c, 12, 66, 44
14, 142559, Note_on_c, 12, 66, 0
14, 143760, Note_on_c, 12, 57, 84
14, 143999, Note_on_c, 12, 57, 0
14, 144000, Note_on_c, 12, 62, 52
14, 144239, Note_on_c, 12, 62, 0
14, 149760, Note_on_c, 12, 62, 52
14, 150719, Note_on_c, 12, 62, 0
14, 150720, Note_on_c, 12, 61, 52
14, 150959, Note_on_c, 12, 61, 0
14, 150960, Note_on_c, 12, 59, 52
14, 151169, Note_on_c, 12, 59, 0
14, 151200, Note_on_c, 12, 57, 52
14, 151439, Note_on_c, 12, 57, 0
14, 151440, Note_on_c, 12, 61, 52
14, 151649, Note_on_c, 12, 61, 0
14, 151680, Note_on_c, 12, 62, 52
14, 151859, Note_on_c, 12, 62, 0
14, 151920, Note_on_c, 12, 61, 52
14, 152159, Note_on_c, 12, 61, 0
14, 152280, Control_c, 12, 11, 80
14, 152400, Note_on_c, 12, 63, 76
14, 152639, Note_on_c, 12, 63, 0
14, 152640, Control_c, 12, 11, 72
14, 152640, Note_on_c, 12, 64, 84
14, 152700, Control_c, 12, 11, 76
14, 152760, Control_c, 12, 11, 80
14, 152820, Control_c, 12, 11, 84
14, 152880, Control_c, 12, 11, 88
14, 152940, Control_c, 12, 11, 92
14, 153000, Control_c, 12, 11, 96
14, 153060, Control_c, 12, 11, 100
14, 153120, Control_c, 12, 11, 104
14, 153180, Control_c, 12, 11, 108
14, 153240, Control_c, 12, 11, 112
14, 153300, Control_c, 12, 11, 116
14, 153360, Control_c, 12, 11, 127
14, 153599, Note_on_c, 12, 64, 0
14, 153600, Note_on_c, 12, 62, 76
14, 153839, Note_on_c, 12, 62, 0
14, 153840, Note_on_c, 12, 61, 76
14, 154049, Note_on_c, 12, 61, 0
14, 154080, Note_on_c, 12, 62, 52
14, 154319, Note_on_c, 12, 62, 0
14, 154320, Note_on_c, 12, 64, 52
14, 154529, Note_on_c, 12, 64, 0
14, 154560, Note_on_c, 12, 61, 52
14, 154739, Note_on_c, 12, 61, 0
14, 154800, Note_on_c, 12, 62, 52
14, 155039, Note_on_c, 12, 62, 0
14, 155280, Note_on_c, 12, 61, 52
14, 155459, Note_on_c, 12, 61, 0
14, 155520, Note_on_c, 12, 62, 52
14, 155759, Note_on_c, 12, 62, 0
14, 155760, Note_on_c, 12, 64, 52
14, 155969, Note_on_c, 12, 64, 0
14, 156000, Note_on_c, 12, 61, 52
14, 156179, Note_on_c, 12, 61, 0
14, 156210, Control_c, 12, 11, 80
14, 156240, Note_on_c, 12, 62, 76
14, 156360, Control_c, 12, 11, 84
14, 156419, Note_on_c, 12, 62, 0
14, 156480, Control_c, 12, 11, 88
14, 156600, Control_c, 12, 11, 92
14, 156720, Control_c, 12, 11, 96
14, 156720, Note_on_c, 12, 61, 76
14, 156840, Control_c, 12, 11, 100
14, 156899, Note_on_c, 12, 61, 0
14, 156960, Note_on_c, 12, 62, 76
14, 156960, Control_c, 12, 11, 104
14, 157080, Control_c, 12, 11, 107
14, 157139, Note_on_c, 12, 62, 0
14, 157200, Control_c, 12, 11, 111
14, 157320, Control_c, 12, 11, 115
14, 157440, Control_c, 12, 11, 119
14, 157440, Note_on_c, 12, 61, 76
14, 157560, Control_c, 12, 11, 123
14, 157619, Note_on_c, 12, 61, 0
14, 157680, Note_on_c, 12, 62, 76
14, 157680, Control_c, 12, 11, 127
14, 157859, Note_on_c, 12, 62, 0
14, 158160, Note_on_c, 12, 64, 52
14, 158339, Note_on_c, 12, 64, 0
14, 158400, Note_on_c, 12, 66, 52
14, 158639, Note_on_c, 12, 66, 0
14, 158640, Note_on_c, 12, 67, 52
14, 158849, Note_on_c, 12, 67, 0
14, 158880, Note_on_c, 12, 64, 52
14, 159059, Note_on_c, 12, 64, 0
14, 159120, Note_on_c, 12, 66, 52
14, 159359, Note_on_c, 12, 66, 0
14, 159840, Note_on_c, 12, 66, 76
14, 160529, Note_on_c, 12, 66, 0
14, 160560, Note_on_c, 12, 66, 84
14, 161249, Note_on_c, 12, 66, 0
14, 161280, Note_on_c, 12, 66, 76
14, 161399, Note_on_c, 12, 66, 0
14, 161400, Note_on_c, 12, 65, 76
14, 161489, Note_on_c, 12, 65, 0
14, 161520, Note_on_c, 12, 66, 76
14, 161639, Note_on_c, 12, 66, 0
14, 161640, Note_on_c, 12, 65, 76
14, 161729, Note_on_c, 12, 65, 0
14, 161760, Note_on_c, 12, 66, 76
14, 161879, Note_on_c, 12, 66, 0
14, 161880, Note_on_c, 12, 65, 76
14, 161969, Note_on_c, 12, 65, 0
14, 162000, Note_on_c, 12, 66, 76
14, 162119, Note_on_c, 12, 66, 0
14, 162120, Note_on_c, 12, 65, 76
14, 162209, Note_on_c, 12, 65, 0
14, 162240, Note_on_c, 12, 66, 76
14, 162359, Note_on_c, 12, 66, 0
14, 162360, Note_on_c, 12, 65, 76
14, 162449, Note_on_c, 12, 65, 0
14, 162480, Note_on_c, 12, 66, 76
14, 162599, Note_on_c, 12, 66, 0
14, 162600, Note_on_c, 12, 65, 76
14, 162689, Note_on_c, 12, 65, 0
14, 162720, Note_on_c, 12, 66, 76
14, 162809, Note_on_c, 12, 66, 0
14, 162840, Note_on_c, 12, 66, 76
14, 162929, Note_on_c, 12, 66, 0
14, 162960, Note_on_c, 12, 70, 76
14, 163049, Note_on_c, 12, 70, 0
14, 163080, Note_on_c, 12, 70, 76
14, 163169, Note_on_c, 12, 70, 0
14, 163200, Note_on_c, 12, 73, 76
14, 163289, Note_on_c, 12, 73, 0
14, 163320, Note_on_c, 12, 73, 76
14, 163409, Note_on_c, 12, 73, 0
14, 163440, Note_on_c, 12, 78, 84
14, 163529, Note_on_c, 12, 78, 0
14, 163560, Note_on_c, 12, 78, 76
14, 163649, Note_on_c, 12, 78, 0
14, 163680, Note_on_c, 12, 73, 76
14, 163769, Note_on_c, 12, 73, 0
14, 163800, Note_on_c, 12, 73, 76
14, 163889, Note_on_c, 12, 73, 0
14, 163920, Note_on_c, 12, 70, 76
14, 164009, Note_on_c, 12, 70, 0
14, 164040, Note_on_c, 12, 70, 76
14, 164129, Note_on_c, 12, 70, 0
14, 164160, Note_on_c, 12, 66, 76
14, 164249, Note_on_c, 12, 66, 0
14, 164280, Note_on_c, 12, 66, 76
14, 164369, Note_on_c, 12, 66, 0
14, 164400, Note_on_c, 12, 70, 76
14, 164489, Note_on_c, 12, 70, 0
14, 164520, Note_on_c, 12, 70, 76
14, 164609, Note_on_c, 12, 70, 0
14, 164640, Note_on_c, 12, 73, 76
14, 164729, Note_on_c, 12, 73, 0
14, 164760, Note_on_c, 12, 73, 76
14, 164849, Note_on_c, 12, 73, 0
14, 164880, Note_on_c, 12, 78, 84
14, 164969, Note_on_c, 12, 78, 0
14, 165000, Note_on_c, 12, 78, 76
14, 165089, Note_on_c, 12, 78, 0
14, 165120, Note_on_c, 12, 73, 76
14, 165209, Note_on_c, 12, 73, 0
14, 165240, Note_on_c, 12, 73, 76
14, 165329, Note_on_c, 12, 73, 0
14, 165360, Note_on_c, 12, 70, 76
14, 165449, Note_on_c, 12, 70, 0
14, 165480, Note_on_c, 12, 70, 76
14, 165569, Note_on_c, 12, 70, 0
14, 165600, Note_on_c, 12, 66, 52
14, 165689, Note_on_c, 12, 66, 0
14, 165720, Note_on_c, 12, 66, 52
14, 165809, Note_on_c, 12, 66, 0
14, 165840, Note_on_c, 12, 66, 52
14, 165929, Note_on_c, 12, 66, 0
14, 165960, Note_on_c, 12, 66, 51
14, 166049, Note_on_c, 12, 66, 0
14, 166080, Note_on_c, 12, 66, 51
14, 166169, Note_on_c, 12, 66, 0
14, 166200, Note_on_c, 12, 66, 51
14, 166289, Note_on_c, 12, 66, 0
14, 166320, Note_on_c, 12, 66, 50
14, 166409, Note_on_c, 12, 66, 0
14, 166440, Note_on_c, 12, 66, 50
14, 166529, Note_on_c, 12, 66, 0
14, 166560, Note_on_c, 12, 66, 50
14, 166649, Note_on_c, 12, 66, 0
14, 166680, Note_on_c, 12, 66, 49
14, 166769, Note_on_c, 12, 66, 0
14, 166800, Note_on_c, 12, 66, 49
14, 166889, Note_on_c, 12, 66, 0
14, 166920, Note_on_c, 12, 66, 49
14, 167009, Note_on_c, 12, 66, 0
14, 167040, Note_on_c, 12, 66, 48
14, 167129, Note_on_c, 12, 66, 0
14, 167160, Note_on_c, 12, 66, 48
14, 167249, Note_on_c, 12, 66, 0
14, 167280, Note_on_c, 12, 66, 48
14, 167369, Note_on_c, 12, 66, 0
14, 167400, Note_on_c, 12, 66, 47
14, 167489, Note_on_c, 12, 66, 0
14, 167520, Note_on_c, 12, 66, 47
14, 167609, Note_on_c, 12, 66, 0
14, 167640, Note_on_c, 12, 66, 47
14, 167729, Note_on_c, 12, 66, 0
14, 167760, Note_on_c, 12, 66, 46
14, 167849, Note_on_c, 12, 66, 0
14, 167880, Note_on_c, 12, 66, 46
14, 167969, Note_on_c, 12, 66, 0
14, 168000, Note_on_c, 12, 66, 46
14, 168089, Note_on_c, 12, 66, 0
14, 168120, Note_on_c, 12, 66, 45
14, 168209, Note_on_c, 12, 66, 0
14, 168240, Note_on_c, 12, 66, 45
14, 168329, Note_on_c, 12, 66, 0
14, 168360, Note_on_c, 12, 66, 45
14, 168449, Note_on_c, 12, 66, 0
14, 168480, Note_on_c, 12, 66, 44
14, 169919, Note_on_c, 12, 66, 0
14, 171120, Note_on_c, 12, 57, 84
14, 171359, Note_on_c, 12, 57, 0
14, 171360, Note_on_c, 12, 62, 52
14, 171599, Note_on_c, 12, 62, 0
14, 177120, Note_on_c, 12, 62, 52
14, 178079, Note_on_c, 12, 62, 0
14, 178080, Note_on_c, 12, 61, 52
14, 178319, Note_on_c, 12, 61, 0
14, 178320, Note_on_c, 12, 59, 52
14, 178529, Note_on_c, 12, 59, 0
14, 178560, Note_on_c, 12, 57, 52
14, 178799, Note_on_c, 12, 57, 0
14, 178800, Note_on_c, 12, 61, 52
14, 179009, Note_on_c, 12, 61, 0
14, 179040, Note_on_c, 12, 62, 52
14, 179219, Note_on_c, 12, 62, 0
14, 179280, Note_on_c, 12, 61, 52
14, 179519, Note_on_c, 12, 61, 0
14, 179640, Control_c, 12, 11, 80
14, 179760, Note_on_c, 12, 63, 76
14, 179999, Note_on_c, 12, 63, 0
14, 180000, Note_on_c, 12, 64, 84
14, 180000, Control_c, 12, 11, 72
14, 180060, Control_c, 12, 11, 76
14, 180120, Control_c, 12, 11, 80
14, 180180, Control_c, 12, 11, 84
14, 180240, Control_c, 12, 11, 88
14, 180300, Control_c, 12, 11, 92
14, 180360, Control_c, 12, 11, 96
14, 180420, Control_c, 12, 11, 100
14, 180480, Control_c, 12, 11, 104
14, 180540, Control_c, 12, 11, 108
14, 180600, Control_c, 12, 11, 112
14, 180660, Control_c, 12, 11, 116
14, 180720, Control_c, 12, 11, 127
14, 180959, Note_on_c, 12, 64, 0
14, 180960, Note_on_c, 12, 62, 76
14, 181199, Note_on_c, 12, 62, 0
14, 181200, Note_on_c, 12, 61, 76
14, 181409, Note_on_c, 12, 61, 0
14, 181440, Note_on_c, 12, 62, 52
14, 181679, Note_on_c, 12, 62, 0
14, 181680, Note_on_c, 12, 64, 52
14, 181889, Note_on_c, 12, 64, 0
14, 181920, Note_on_c, 12, 61, 52
14, 182099, Note_on_c, 12, 61, 0
14, 182160, Note_on_c, 12, 62, 52
14, 182399, Note_on_c, 12, 62, 0
14, 182640, Note_on_c, 12, 61, 52
14, 182819, Note_on_c, 12, 61, 0
14, 182880, Note_on_c, 12, 62, 52
14, 183119, Note_on_c, 12, 62, 0
14, 183120, Note_on_c, 12, 64, 52
14, 183329, Note_on_c, 12, 64, 0
14, 183360, Note_on_c, 12, 61, 52
14, 183539, Note_on_c, 12, 61, 0
14, 183570, Control_c, 12, 11, 80
14, 183600, Note_on_c, 12, 62, 76
14, 183720, Control_c, 12, 11, 84
14, 183779, Note_on_c, 12, 62, 0
14, 183840, Control_c, 12, 11, 88
14, 183960, Control_c, 12, 11, 92
14, 184080, Note_on_c, 12, 61, 76
14, 184080, Control_c, 12, 11, 96
14, 184200, Control_c, 12, 11, 100
14, 184259, Note_on_c, 12, 61, 0
14, 184320, Note_on_c, 12, 62, 76
14, 184320, Control_c, 12, 11, 104
14, 184440, Control_c, 12, 11, 107
14, 184499, Note_on_c, 12, 62, 0
14, 184560, Control_c, 12, 11, 111
14, 184680, Control_c, 12, 11, 115
14, 184800, Note_on_c, 12, 61, 76
14, 184800, Control_c, 12, 11, 119
14, 184920, Control_c, 12, 11, 123
14, 184979, Note_on_c, 12, 61, 0
14, 185040, Note_on_c, 12, 62, 76
14, 185040, Control_c, 12, 11, 127
14, 185219, Note_on_c, 12, 62, 0
14, 185520, Note_on_c, 12, 64, 52
14, 185699, Note_on_c, 12, 64, 0
14, 185760, Note_on_c, 12, 66, 52
14, 185999, Note_on_c, 12, 66, 0
14, 186000, Note_on_c, 12, 67, 52
14, 186209, Note_on_c, 12, 67, 0
14, 186240, Note_on_c, 12, 64, 52
14, 186419, Note_on_c, 12, 64, 0
14, 186480, Note_on_c, 12, 66, 52
14, 186719, Note_on_c, 12, 66, 0
14, 187200, Note_on_c, 12, 62, 76
14, 187919, Note_on_c, 12, 62, 0
14, 188640, Note_on_c, 12, 62, 76
14, 188640, Note_on_c, 12, 59, 76
14, 189359, Note_on_c, 12, 62, 0
14, 189359, Note_on_c, 12, 59, 0
14, 190800, Note_on_c, 12, 69, 52
14, 190979, Note_on_c, 12, 69, 0
14, 191040, Note_on_c, 12, 74, 52
14, 191219, Note_on_c, 12, 74, 0
14, 191280, Note_on_c, 12, 76, 52
14, 191459, Note_on_c, 12, 76, 0
14, 192240, Note_on_c, 12, 78, 84
14, 192240, Note_on_c, 12, 69, 84
14, 192419, Note_on_c, 12, 78, 0
14, 192419, Note_on_c, 12, 69, 0
14, 192480, Note_on_c, 12, 79, 84
14, 192480, Note_on_c, 12, 69, 84
14, 192659, Note_on_c, 12, 79, 0
14, 192659, Note_on_c, 12, 69, 0
14, 192720, Note_on_c, 12, 78, 84
14, 192720, Note_on_c, 12, 69, 84
14, 192899, Note_on_c, 12, 78, 0
14, 192899, Note_on_c, 12, 69, 0
14, 192960, Note_on_c, 12, 62, 76
14, 193679, Note_on_c, 12, 62, 0
14, 194400, Note_on_c, 12, 62, 76
14, 195119, Note_on_c, 12, 62, 0
14, 195840, Note_on_c, 12, 61, 52
14, 196019, Note_on_c, 12, 61, 0
14, 196080, Note_on_c, 12, 62, 52
14, 196259, Note_on_c, 12, 62, 0
14, 196320, Note_on_c, 12, 64, 52
14, 196499, Note_on_c, 12, 64, 0
14, 196560, Note_on_c, 12, 76, 52
14, 196739, Note_on_c, 12, 76, 0
14, 196800, Note_on_c, 12, 81, 52
14, 196979, Note_on_c, 12, 81, 0
14, 197040, Note_on_c, 12, 83, 52
14, 197219, Note_on_c, 12, 83, 0
14, 198000, Note_on_c, 12, 64, 84
14, 198000, Note_on_c, 12, 73, 84
14, 198179, Note_on_c, 12, 64, 0
14, 198179, Note_on_c, 12, 73, 0
14, 198240, Note_on_c, 12, 64, 84
14, 198240, Note_on_c, 12, 74, 84
14, 198419, Note_on_c, 12, 64, 0
14, 198419, Note_on_c, 12, 74, 0
14, 198480, Note_on_c, 12, 64, 84
14, 198480, Note_on_c, 12, 73, 84
14, 198659, Note_on_c, 12, 64, 0
14, 198659, Note_on_c, 12, 73, 0
14, 198720, Note_on_c, 12, 62, 76
14, 199439, Note_on_c, 12, 62, 0
14, 200160, Note_on_c, 12, 62, 76
14, 200160, Note_on_c, 12, 59, 76
14, 200879, Note_on_c, 12, 62, 0
14, 200879, Note_on_c, 12, 59, 0
14, 202320, Note_on_c, 12, 69, 52
14, 202499, Note_on_c, 12, 69, 0
14, 202560, Note_on_c, 12, 74, 52
14, 202739, Note_on_c, 12, 74, 0
14, 202800, Note_on_c, 12, 76, 52
14, 202979, Note_on_c, 12, 76, 0
14, 203760, Note_on_c, 12, 69, 84
14, 203760, Note_on_c, 12, 78, 84
14, 203939, Note_on_c, 12, 69, 0
14, 203939, Note_on_c, 12, 78, 0
14, 204000, Note_on_c, 12, 69, 84
14, 204000, Note_on_c, 12, 79, 84
14, 204179, Note_on_c, 12, 69, 0
14, 204179, Note_on_c, 12, 79, 0
14, 204240, Note_on_c, 12, 78, 84
14, 204240, Note_on_c, 12, 69, 84
14, 204419, Note_on_c, 12, 78, 0
14, 204419, Note_on_c, 12, 69, 0
14, 204480, Note_on_c, 12, 62, 76
14, 205199, Note_on_c, 12, 62, 0
14, 205920, Note_on_c, 12, 62, 76
14, 206639, Note_on_c, 12, 62, 0
14, 207360, Note_on_c, 12, 61, 52
14, 207539, Note_on_c, 12, 61, 0
14, 207600, Note_on_c, 12, 62, 52
14, 207779, Note_on_c, 12, 62, 0
14, 207840, Note_on_c, 12, 64, 52
14, 208019, Note_on_c, 12, 64, 0
14, 208080, Note_on_c, 12, 76, 52
14, 208259, Note_on_c, 12, 76, 0
14, 208320, Note_on_c, 12, 81, 52
14, 208499, Note_on_c, 12, 81, 0
14, 208560, Note_on_c, 12, 83, 52
14, 208739, Note_on_c, 12, 83, 0
14, 209520, Note_on_c, 12, 73, 84
14, 209520, Note_on_c, 12, 64, 84
14, 209699, Note_on_c, 12, 73, 0
14, 209699, Note_on_c, 12, 64, 0
14, 209760, Note_on_c, 12, 64, 84
14, 209760, Note_on_c, 12, 74, 84
14, 209939, Note_on_c, 12, 64, 0
14, 209939, Note_on_c, 12, 74, 0
14, 210000, Note_on_c, 12, 73, 84
14, 210000, Note_on_c, 12, 64, 84
14, 210179, Note_on_c, 12, 73, 0
14, 210179, Note_on_c, 12, 64, 0
14, 210240, Note_on_c, 12, 61, 52
14, 210419, Note_on_c, 12, 61, 0
14, 210480, Note_on_c, 12, 62, 52
14, 210659, Note_on_c, 12, 62, 0
14, 210720, Note_on_c, 12, 64, 52
14, 210899, Note_on_c, 12, 64, 0
14, 210960, Note_on_c, 12, 65, 52
14, 211199, Note_on_c, 12, 65, 0
14, 211680, Note_on_c, 12, 57, 52
14, 211859, Note_on_c, 12, 57, 0
14, 211920, Note_on_c, 12, 58, 52
14, 212099, Note_on_c, 12, 58, 0
14, 212160, Note_on_c, 12, 60, 52
14, 212339, Note_on_c, 12, 60, 0
14, 212400, Note_on_c, 12, 62, 52
14, 212639, Note_on_c, 12, 62, 0
14, 213120, Note_on_c, 12, 62, 52
14, 213120, Note_on_c, 12, 58, 52
14, 213299, Note_on_c, 12, 62, 0
14, 213299, Note_on_c, 12, 58, 0
14, 213360, Note_on_c, 12, 58, 76
14, 213360, Note_on_c, 12, 62, 76
14, 213480, Control_c, 12, 11, 80
14, 214529, Note_on_c, 12, 58, 0
14, 214529, Note_on_c, 12, 62, 0
14, 214560, Note_on_c, 12, 63, 76
14, 214560, Note_on_c, 12, 60, 76
14, 214769, Note_on_c, 12, 63, 0
14, 214769, Note_on_c, 12, 60, 0
14, 214800, Note_on_c, 12, 63, 76
14, 214800, Note_on_c, 12, 60, 76
14, 215009, Note_on_c, 12, 63, 0
14, 215009, Note_on_c, 12, 60, 0
14, 215040, Note_on_c, 12, 60, 76
14, 215040, Note_on_c, 12, 63, 76
14, 215249, Note_on_c, 12, 60, 0
14, 215249, Note_on_c, 12, 63, 0
14, 215280, Note_on_c, 12, 63, 76
14, 215280, Note_on_c, 12, 60, 76
14, 215489, Note_on_c, 12, 63, 0
14, 215489, Note_on_c, 12, 60, 0
14, 215520, Note_on_c, 12, 60, 76
14, 215520, Note_on_c, 12, 63, 76
14, 215729, Note_on_c, 12, 60, 0
14, 215729, Note_on_c, 12, 63, 0
14, 215760, Note_on_c, 12, 63, 76
14, 215760, Note_on_c, 12, 60, 76
14, 215969, Note_on_c, 12, 63, 0
14, 215969, Note_on_c, 12, 60, 0
14, 216000, Note_on_c, 12, 58, 76
14, 216000, Note_on_c, 12, 62, 76
14, 216179, Note_on_c, 12, 58, 0
14, 216179, Note_on_c, 12, 62, 0
14, 216240, Note_on_c, 12, 58, 76
14, 216240, Control_c, 12, 11, 127
14, 216240, Note_on_c, 12, 62, 76
14, 216360, Control_c, 12, 11, 80
14, 217409, Note_on_c, 12, 58, 0
14, 217409, Note_on_c, 12, 62, 0
14, 217440, Note_on_c, 12, 60, 76
14, 217440, Note_on_c, 12, 63, 76
14, 217649, Note_on_c, 12, 60, 0
14, 217649, Note_on_c, 12, 63, 0
14, 217680, Note_on_c, 12, 60, 76
14, 217680, Note_on_c, 12, 63, 76
14, 217889, Note_on_c, 12, 60, 0
14, 217889, Note_on_c, 12, 63, 0
14, 217920, Note_on_c, 12, 60, 76
14, 217920, Note_on_c, 12, 63, 76
14, 218129, Note_on_c, 12, 60, 0
14, 218129, Note_on_c, 12, 63, 0
14, 218160, Note_on_c, 12, 60, 76
14, 218160, Note_on_c, 12, 63, 76
14, 218369, Note_on_c, 12, 60, 0
14, 218369, Note_on_c, 12, 63, 0
14, 218400, Note_on_c, 12, 60, 76
14, 218400, Note_on_c, 12, 63, 76
14, 218609, Note_on_c, 12, 60, 0
14, 218609, Note_on_c, 12, 63, 0
14, 218640, Note_on_c, 12, 60, 76
14, 218640, Note_on_c, 12, 63, 76
14, 218819, Note_on_c, 12, 60, 0
14, 218819, Note_on_c, 12, 63, 0
14, 218880, Note_on_c, 12, 58, 76
14, 218880, Note_on_c, 12, 62, 76
14, 219059, Note_on_c, 12, 58, 0
14, 219059, Note_on_c, 12, 62, 0
14, 219120, Note_on_c, 12, 62, 76
14, 219359, Note_on_c, 12, 62, 0
14, 219360, Note_on_c, 12, 65, 76
14, 219599, Note_on_c, 12, 65, 0
14, 219825, Control_c, 12, 11, 127
14, 219840, Note_on_c, 12, 62, 52
14, 220079, Note_on_c, 12, 62, 0
14, 220080, Note_on_c, 12, 65, 52
14, 220319, Note_on_c, 12, 65, 0
14, 220560, Note_on_c, 12, 62, 52
14, 220799, Note_on_c, 12, 62, 0
14, 220800, Note_on_c, 12, 65, 52
14, 221009, Note_on_c, 12, 65, 0
14, 221040, Note_on_c, 12, 65, 52
14, 221219, Note_on_c, 12, 65, 0
14, 221280, Note_on_c, 12, 65, 52
14, 221459, Note_on_c, 12, 65, 0
14, 221520, Note_on_c, 12, 65, 52
14, 221699, Note_on_c, 12, 65, 0
14, 221760, Note_on_c, 12, 64, 44
14, 221999, Note_on_c, 12, 64, 0
14, 223200, Control_c, 12, 11, 64
14, 223680, Control_c, 12, 11, 64
14, 223680, Note_on_c, 12, 61, 76
14, 223880, Control_c, 12, 11, 69
14, 223919, Note_on_c, 12, 61, 0
14, 223920, Note_on_c, 12, 62, 76
14, 224080, Control_c, 12, 11, 75
14, 224159, Note_on_c, 12, 62, 0
14, 224160, Note_on_c, 12, 65, 76
14, 224280, Control_c, 12, 11, 80
14, 224399, Note_on_c, 12, 65, 0
14, 224400, Note_on_c, 12, 68, 76
14, 224480, Control_c, 12, 11, 85
14, 224609, Note_on_c, 12, 68, 0
14, 224640, Note_on_c, 12, 69, 76
14, 224680, Control_c, 12, 11, 90
14, 224849, Note_on_c, 12, 69, 0
14, 224880, Control_c, 12, 11, 96
14, 224880, Note_on_c, 12, 57, 76
14, 225080, Control_c, 12, 11, 101
14, 225119, Note_on_c, 12, 57, 0
14, 225120, Note_on_c, 12, 58, 76
14, 225280, Control_c, 12, 11, 106
14, 225359, Note_on_c, 12, 58, 0
14, 225360, Note_on_c, 12, 59, 76
14, 225480, Control_c, 12, 11, 111
14, 225599, Note_on_c, 12, 59, 0
14, 225600, Note_on_c, 12, 60, 76
14, 225680, Control_c, 12, 11, 117
14, 225839, Note_on_c, 12, 60, 0
14, 225840, Note_on_c, 12, 61, 76
14, 225880, Control_c, 12, 11, 122
14, 226049, Note_on_c, 12, 61, 0
14, 226080, Note_on_c, 12, 62, 76
14, 226080, Control_c, 12, 11, 127
14, 226799, Note_on_c, 12, 62, 0
14, 227520, Note_on_c, 12, 62, 76
14, 227520, Note_on_c, 12, 59, 76
14, 228239, Note_on_c, 12, 62, 0
14, 228239, Note_on_c, 12, 59, 0
14, 229680, Note_on_c, 12, 69, 52
14, 229859, Note_on_c, 12, 69, 0
14, 229920, Note_on_c, 12, 74, 52
14, 230099, Note_on_c, 12, 74, 0
14, 230160, Note_on_c, 12, 76, 52
14, 230339, Note_on_c, 12, 76, 0
14, 231120, Note_on_c, 12, 69, 84
14, 231120, Note_on_c, 12, 78, 84
14, 231299, Note_on_c, 12, 69, 0
14, 231299, Note_on_c, 12, 78, 0
14, 231360, Note_on_c, 12, 69, 84
14, 231360, Note_on_c, 12, 79, 84
14, 231539, Note_on_c, 12, 69, 0
14, 231539, Note_on_c, 12, 79, 0
14, 231600, Note_on_c, 12, 69, 84
14, 231600, Note_on_c, 12, 78, 84
14, 231779, Note_on_c, 12, 69, 0
14, 231779, Note_on_c, 12, 78, 0
14, 231840, Note_on_c, 12, 62, 76
14, 232559, Note_on_c, 12, 62, 0
14, 233280, Note_on_c, 12, 59, 76
14, 233280, Note_on_c, 12, 62, 76
14, 233999, Note_on_c, 12, 59, 0
14, 233999, Note_on_c, 12, 62, 0
14, 235440, Note_on_c, 12, 64, 52
14, 235619, Note_on_c, 12, 64, 0
14, 235680, Note_on_c, 12, 66, 52
14, 235859, Note_on_c, 12, 66, 0
14, 235920, Note_on_c, 12, 67, 52
14, 236099, Note_on_c, 12, 67, 0
14, 236880, Note_on_c, 12, 64, 52
14, 237059, Note_on_c, 12, 64, 0
14, 237120, Note_on_c, 12, 66, 52
14, 237299, Note_on_c, 12, 66, 0
14, 237360, Note_on_c, 12, 67, 52
14, 237539, Note_on_c, 12, 67, 0
14, 238320, Control_c, 12, 11, 127
14, 238320, Note_on_c, 12, 64, 52
14, 238499, Note_on_c, 12, 64, 0
14, 238500, Control_c, 12, 11, 126
14, 238560, Note_on_c, 12, 65, 52
14, 238680, Control_c, 12, 11, 125
14, 238739, Note_on_c, 12, 65, 0
14, 238800, Note_on_c, 12, 67, 52
14, 238860, Control_c, 12, 11, 123
14, 238979, Note_on_c, 12, 67, 0
14, 239040, Note_on_c, 12, 64, 52
14, 239040, Control_c, 12, 11, 122
14, 239219, Note_on_c, 12, 64, 0
14, 239220, Control_c, 12, 11, 121
14, 239280, Note_on_c, 12, 65, 52
14, 239400, Control_c, 12, 11, 120
14, 239459, Note_on_c, 12, 65, 0
14, 239520, Note_on_c, 12, 67, 52
14, 239580, Control_c, 12, 11, 118
14, 239699, Note_on_c, 12, 67, 0
14, 239760, Control_c, 12, 11, 117
14, 239760, Note_on_c, 12, 64, 52
14, 239939, Note_on_c, 12, 64, 0
14, 239940, Control_c, 12, 11, 116
14, 240000, Note_on_c, 12, 65, 52
14, 240120, Control_c, 12, 11, 115
14, 240179, Note_on_c, 12, 65, 0
14, 240240, Note_on_c, 12, 67, 52
14, 240300, Control_c, 12, 11, 113
14, 240419, Note_on_c, 12, 67, 0
14, 240480, Control_c, 12, 11, 112
14, 240480, Note_on_c, 12, 64, 52
14, 240659, Note_on_c, 12, 64, 0
14, 240720, Note_on_c, 12, 65, 52
14, 240899, Note_on_c, 12, 65, 0
14, 240960, Note_on_c, 12, 67, 52
14, 241139, Note_on_c, 12, 67, 0
14, 241200, Note_on_c, 12, 65, 52
14, 241439, Note_on_c, 12, 65, 0
14, 241680, Control_c, 12, 11, 127
14, 241920, Note_on_c, 12, 61, 44
14, 242099, Note_on_c, 12, 61, 0
14, 242160, Note_on_c, 12, 62, 44
14, 242339, Note_on_c, 12, 62, 0
14, 242400, Note_on_c, 12, 64, 44
14, 242579, Note_on_c, 12, 64, 0
14, 242640, Note_on_c, 12, 62, 44
14, 242879, Note_on_c, 12, 62, 0
14, 243120, Control_c, 12, 11, 64
14, 243360, Note_on_c, 12, 62, 76
14, 243360, Control_c, 12, 11, 64
14, 243480, Control_c, 12, 11, 69
14, 243599, Note_on_c, 12, 62, 0
14, 243600, Note_on_c, 12, 64, 76
14, 243600, Control_c, 12, 11, 75
14, 243720, Control_c, 12, 11, 80
14, 243839, Note_on_c, 12, 64, 0
14, 243840, Note_on_c, 12, 65, 76
14, 243840, Control_c, 12, 11, 85
14, 243960, Control_c, 12, 11, 90
14, 244079, Note_on_c, 12, 65, 0
14, 244080, Note_on_c, 12, 66, 76
14, 244080, Control_c, 12, 11, 96
14, 244200, Control_c, 12, 11, 101
14, 244319, Note_on_c, 12, 66, 0
14, 244320, Control_c, 12, 11, 106
14, 244320, Note_on_c, 12, 67, 76
14, 244440, Control_c, 12, 11, 111
14, 244559, Note_on_c, 12, 67, 0
14, 244560, Note_on_c, 12, 68, 76
14, 244560, Control_c, 12, 11, 117
14, 244680, Control_c, 12, 11, 122
14, 244769, Note_on_c, 12, 68, 0
14, 244800, Note_on_c, 12, 69, 76
14, 244800, Control_c, 12, 11, 127
14, 245039, Note_on_c, 12, 69, 0
14, 245040, Note_on_c, 12, 68, 76
14, 245279, Note_on_c, 12, 68, 0
14, 245280, Note_on_c, 12, 67, 76
14, 245489, Note_on_c, 12, 67, 0
14, 245520, Note_on_c, 12, 66, 76
14, 245699, Note_on_c, 12, 66, 0
14, 245760, Note_on_c, 12, 64, 76
14, 245939, Note_on_c, 12, 64, 0
14, 246000, Note_on_c, 12, 62, 76
14, 246179, Note_on_c, 12, 62, 0
14, 246240, Note_on_c, 12, 67, 44
14, 246419, Note_on_c, 12, 67, 0
14, 246480, Note_on_c, 12, 69, 44
14, 246659, Note_on_c, 12, 69, 0
14, 246720, Note_on_c, 12, 70, 44
14, 246899, Note_on_c, 12, 70, 0
14, 246960, Note_on_c, 12, 69, 44
14, 247199, Note_on_c, 12, 69, 0
14, 247680, Note_on_c, 12, 64, 44
14, 247859, Note_on_c, 12, 64, 0
14, 247920, Note_on_c, 12, 65, 44
14, 248099, Note_on_c, 12, 65, 0
14, 248160, Note_on_c, 12, 67, 44
14, 248339, Note_on_c, 12, 67, 0
14, 248400, Note_on_c, 12, 65, 44
14, 248639, Note_on_c, 12, 65, 0
14, 248880, Control_c, 12, 11, 64
14, 249120, Control_c, 12, 11, 64
14, 249120, Note_on_c, 12, 62, 76
14, 249240, Control_c, 12, 11, 69
14, 249359, Note_on_c, 12, 62, 0
14, 249360, Control_c, 12, 11, 75
14, 249360, Note_on_c, 12, 64, 76
14, 249480, Control_c, 12, 11, 80
14, 249599, Note_on_c, 12, 64, 0
14, 249600, Control_c, 12, 11, 85
14, 249600, Note_on_c, 12, 65, 76
14, 249720, Control_c, 12, 11, 90
14, 249839, Note_on_c, 12, 65, 0
14, 249840, Control_c, 12, 11, 96
14, 249840, Note_on_c, 12, 66, 76
14, 249960, Control_c, 12, 11, 101
14, 250079, Note_on_c, 12, 66, 0
14, 250080, Control_c, 12, 11, 106
14, 250080, Note_on_c, 12, 67, 76
14, 250200, Control_c, 12, 11, 111
14, 250319, Note_on_c, 12, 67, 0
14, 250320, Note_on_c, 12, 68, 76
14, 250320, Control_c, 12, 11, 117
14, 250440, Control_c, 12, 11, 122
14, 250529, Note_on_c, 12, 68, 0
14, 250560, Control_c, 12, 11, 127
14, 250560, Note_on_c, 12, 69, 76
14, 250799, Note_on_c, 12, 69, 0
14, 250800, Note_on_c, 12, 68, 76
14, 251039, Note_on_c, 12, 68, 0
14, 251040, Note_on_c, 12, 67, 76
14, 251249, Note_on_c, 12, 67, 0
14, 251280, Note_on_c, 12, 66, 76
14, 251459, Note_on_c, 12, 66, 0
14, 251520, Note_on_c, 12, 64, 76
14, 251699, Note_on_c, 12, 64, 0
14, 251760, Note_on_c, 12, 62, 76
14, 251939, Note_on_c, 12, 62, 0
14, 252000, Control_c, 12, 11, 80
14, 252000, Note_on_c, 12, 62, 76
14, 252120, Control_c, 12, 11, 84
14, 252239, Note_on_c, 12, 62, 0
14, 252240, Note_on_c, 12, 64, 76
14, 252240, Control_c, 12, 11, 88
14, 252360, Control_c, 12, 11, 92
14, 252479, Note_on_c, 12, 64, 0
14, 252480, Note_on_c, 12, 65, 76
14, 252480, Control_c, 12, 11, 96
14, 252600, Control_c, 12, 11, 100
14, 252719, Note_on_c, 12, 65, 0
14, 252720, Control_c, 12, 11, 104
14, 252720, Note_on_c, 12, 66, 76
14, 252840, Control_c, 12, 11, 107
14, 252959, Note_on_c, 12, 66, 0
14, 252960, Control_c, 12, 11, 111
14, 252960, Note_on_c, 12, 67, 76
14, 253080, Control_c, 12, 11, 115
14, 253199, Note_on_c, 12, 67, 0
14, 253200, Note_on_c, 12, 68, 76
14, 253200, Control_c, 12, 11, 119
14, 253320, Control_c, 12, 11, 123
14, 253409, Note_on_c, 12, 68, 0
14, 253440, Control_c, 12, 11, 127
14, 253440, Note_on_c, 12, 69, 84
14, 253679, Note_on_c, 12, 69, 0
14, 253680, Note_on_c, 12, 68, 76
14, 253919, Note_on_c, 12, 68, 0
14, 253920, Note_on_c, 12, 67, 76
14, 254129, Note_on_c, 12, 67, 0
14, 254160, Note_on_c, 12, 66, 76
14, 254339, Note_on_c, 12, 66, 0
14, 254400, Note_on_c, 12, 62, 76
14, 254579, Note_on_c, 12, 62, 0
14, 254640, Note_on_c, 12, 66, 76
14, 254819, Note_on_c, 12, 66, 0
14, 254880, Note_on_c, 12, 69, 84
14, 255119, Note_on_c, 12, 69, 0
14, 255120, Note_on_c, 12, 68, 76
14, 255359, Note_on_c, 12, 68, 0
14, 255360, Note_on_c, 12, 67, 76
14, 255569, Note_on_c, 12, 67, 0
14, 255600, Note_on_c, 12, 66, 76
14, 255779, Note_on_c, 12, 66, 0
14, 255840, Note_on_c, 12, 62, 76
14, 256019, Note_on_c, 12, 62, 0
14, 256080, Note_on_c, 12, 66, 76
14, 256259, Note_on_c, 12, 66, 0
14, 256320, Note_on_c, 12, 61, 84
14, 256559, Note_on_c, 12, 61, 0
14, 256560, Note_on_c, 12, 64, 84
14, 256799, Note_on_c, 12, 64, 0
14, 256800, Note_on_c, 12, 69, 84
14, 257039, Note_on_c, 12, 69, 0
14, 257040, Note_on_c, 12, 73, 84
14, 257279, Note_on_c, 12, 73, 0
14, 257280, Note_on_c, 12, 74, 84
14, 257519, Note_on_c, 12, 74, 0
14, 257520, Note_on_c, 12, 76, 84
14, 257729, Note_on_c, 12, 76, 0
14, 257760, Note_on_c, 12, 78, 84
14, 257999, Note_on_c, 12, 78, 0
14, 258240, Note_on_c, 12, 79, 84
14, 258240, Note_on_c, 12, 69, 84
14, 258419, Note_on_c, 12, 79, 0
14, 258419, Note_on_c, 12, 69, 0
14, 258480, Note_on_c, 12, 78, 84
14, 258480, Note_on_c, 12, 69, 84
14, 258480, Note_on_c, 12, 62, 84
14, 258659, Note_on_c, 12, 78, 0
14, 258659, Note_on_c, 12, 69, 0
14, 258659, Note_on_c, 12, 62, 0
14, 259200, Note_on_c, 12, 61, 52
14, 259379, Note_on_c, 12, 61, 0
14, 259440, Note_on_c, 12, 62, 52
14, 259619, Note_on_c, 12, 62, 0
14, 259680, Note_on_c, 12, 64, 52
14, 259859, Note_on_c, 12, 64, 0
14, 259920, Note_on_c, 12, 65, 52
14, 260159, Note_on_c, 12, 65, 0
14, 260640, Note_on_c, 12, 57, 52
14, 260819, Note_on_c, 12, 57, 0
14, 260880, Note_on_c, 12, 58, 52
14, 261059, Note_on_c, 12, 58, 0
14, 261120, Note_on_c, 12, 60, 52
14, 261299, Note_on_c, 12, 60, 0
14, 261360, Note_on_c, 12, 62, 52
14, 261599, Note_on_c, 12, 62, 0
14, 262080, Note_on_c, 12, 62, 52
14, 262080, Note_on_c, 12, 58, 52
14, 262259, Note_on_c, 12, 62, 0
14, 262259, Note_on_c, 12, 58, 0
14, 262320, Note_on_c, 12, 58, 76
14, 262320, Note_on_c, 12, 62, 76
14, 262440, Control_c, 12, 11, 80
14, 263489, Note_on_c, 12, 58, 0
14, 263489, Note_on_c, 12, 62, 0
14, 263520, Note_on_c, 12, 60, 76
14, 263520, Note_on_c, 12, 63, 76
14, 263729, Note_on_c, 12, 60, 0
14, 263729, Note_on_c, 12, 63, 0
14, 263760, Note_on_c, 12, 60, 76
14, 263760, Note_on_c, 12, 63, 76
14, 263969, Note_on_c, 12, 60, 0
14, 263969, Note_on_c, 12, 63, 0
14, 264000, Note_on_c, 12, 63, 76
14, 264000, Note_on_c, 12, 60, 76
14, 264209, Note_on_c, 12, 63, 0
14, 264209, Note_on_c, 12, 60, 0
14, 264240, Note_on_c, 12, 60, 76
14, 264240, Note_on_c, 12, 63, 76
14, 264449, Note_on_c, 12, 60, 0
14, 264449, Note_on_c, 12, 63, 0
14, 264480, Note_on_c, 12, 63, 76
14, 264480, Note_on_c, 12, 60, 76
14, 264689, Note_on_c, 12, 63, 0
14, 264689, Note_on_c, 12, 60, 0
14, 264720, Note_on_c, 12, 60, 76
14, 264720, Note_on_c, 12, 63, 76
14, 264929, Note_on_c, 12, 60, 0
14, 264929, Note_on_c, 12, 63, 0
14, 264960, Note_on_c, 12, 58, 76
14, 264960, Note_on_c, 12, 62, 76
14, 265139, Note_on_c, 12, 58, 0
14, 265139, Note_on_c, 12, 62, 0
14, 265200, Note_on_c, 12, 58, 76
14, 265200, Note_on_c, 12, 62, 76
14, 265200, Control_c, 12, 11, 127
14, 265320, Control_c, 12, 11, 80
14, 266369, Note_on_c, 12, 58, 0
14, 266369, Note_on_c, 12, 62, 0
14, 266400, Note_on_c, 12, 63, 76
14, 266400, Note_on_c, 12, 60, 76
14, 266609, Note_on_c, 12, 63, 0
14, 266609, Note_on_c, 12, 60, 0
14, 266640, Note_on_c, 12, 63, 76
14, 266640, Note_on_c, 12, 60, 76
14, 266849, Note_on_c, 12, 63, 0
14, 266849, Note_on_c, 12, 60, 0
14, 266880, Note_on_c, 12, 63, 76
14, 266880, Note_on_c, 12, 60, 76
14, 267089, Note_on_c, 12, 63, 0
14, 267089, Note_on_c, 12, 60, 0
14, 267120, Note_on_c, 12, 60, 76
14, 267120, Note_on_c, 12, 63, 76
14, 267329, Note_on_c, 12, 60, 0
14, 267329, Note_on_c, 12, 63, 0
14, 267360, Note_on_c, 12, 63, 76
14, 267360, Note_on_c, 12, 60, 76
14, 267569, Note_on_c, 12, 63, 0
14, 267569, Note_on_c, 12, 60, 0
14, 267600, Note_on_c, 12, 60, 76
14, 267600, Note_on_c, 12, 63, 76
14, 267779, Note_on_c, 12, 60, 0
14, 267779, Note_on_c, 12, 63, 0
14, 267840, Note_on_c, 12, 62, 76
14, 267840, Note_on_c, 12, 58, 76
14, 268019, Note_on_c, 12, 62, 0
14, 268019, Note_on_c, 12, 58, 0
14, 268080, Note_on_c, 12, 62, 76
14, 268319, Note_on_c, 12, 62, 0
14, 268320, Note_on_c, 12, 65, 76
14, 268559, Note_on_c, 12, 65, 0
14, 268785, Control_c, 12, 11, 127
14, 268800, Note_on_c, 12, 62, 52
14, 269039, Note_on_c, 12, 62, 0
14, 269040, Note_on_c, 12, 65, 52
14, 269279, Note_on_c, 12, 65, 0
14, 269520, Note_on_c, 12, 62, 52
14, 269759, Note_on_c, 12, 62, 0
14, 269760, Note_on_c, 12, 65, 52
14, 269969, Note_on_c, 12, 65, 0
14, 270000, Note_on_c, 12, 65, 52
14, 270179, Note_on_c, 12, 65, 0
14, 270240, Note_on_c, 12, 65, 52
14, 270419, Note_on_c, 12, 65, 0
14, 270480, Note_on_c, 12, 65, 52
14, 270659, Note_on_c, 12, 65, 0
14, 270720, Note_on_c, 12, 64, 44
14, 270959, Note_on_c, 12, 64, 0
14, 272160, Control_c, 12, 11, 64
14, 272640, Control_c, 12, 11, 64
14, 272640, Note_on_c, 12, 61, 76
14, 272840, Control_c, 12, 11, 69
14, 272879, Note_on_c, 12, 61, 0
14, 272880, Note_on_c, 12, 62, 76
14, 273040, Control_c, 12, 11, 75
14, 273119, Note_on_c, 12, 62, 0
14, 273120, Note_on_c, 12, 65, 76
14, 273240, Control_c, 12, 11, 80
14, 273359, Note_on_c, 12, 65, 0
14, 273360, Note_on_c, 12, 68, 76
14, 273440, Control_c, 12, 11, 85
14, 273569, Note_on_c, 12, 68, 0
14, 273600, Note_on_c, 12, 69, 76
14, 273640, Control_c, 12, 11, 90
14, 273809, Note_on_c, 12, 69, 0
14, 273840, Control_c, 12, 11, 96
14, 273840, Note_on_c, 12, 57, 76
14, 274040, Control_c, 12, 11, 101
14, 274079, Note_on_c, 12, 57, 0
14, 274080, Note_on_c, 12, 58, 76
14, 274240, Control_c, 12, 11, 106
14, 274319, Note_on_c, 12, 58, 0
14, 274320, Note_on_c, 12, 59, 76
14, 274440, Control_c, 12, 11, 111
14, 274559, Note_on_c, 12, 59, 0
14, 274560, Note_on_c, 12, 60, 76
14, 274640, Control_c, 12, 11, 117
14, 274799, Note_on_c, 12, 60, 0
14, 274800, Note_on_c, 12, 61, 76
14, 274840, Control_c, 12, 11, 122
14, 275009, Note_on_c, 12, 61, 0
14, 275040, Control_c, 12, 11, 127
14, 275040, Note_on_c, 12, 62, 76
14, 275759, Note_on_c, 12, 62, 0
14, 276480, Note_on_c, 12, 62, 76
14, 276480, Note_on_c, 12, 59, 76
14, 277199, Note_on_c, 12, 62, 0
14, 277199, Note_on_c, 12, 59, 0
14, 278640, Note_on_c, 12, 69, 52
14, 278819, Note_on_c, 12, 69, 0
14, 278880, Note_on_c, 12, 74, 52
14, 279059, Note_on_c, 12, 74, 0
14, 279120, Note_on_c, 12, 76, 52
14, 279299, Note_on_c, 12, 76, 0
14, 280080, Note_on_c, 12, 69, 84
14, 280080, Note_on_c, 12, 78, 84
14, 280259, Note_on_c, 12, 69, 0
14, 280259, Note_on_c, 12, 78, 0
14, 280320, Note_on_c, 12, 69, 84
14, 280320, Note_on_c, 12, 79, 84
14, 280499, Note_on_c, 12, 69, 0
14, 280499, Note_on_c, 12, 79, 0
14, 280560, Note_on_c, 12, 69, 84
14, 280560, Note_on_c, 12, 78, 84
14, 280739, Note_on_c, 12, 69, 0
14, 280739, Note_on_c, 12, 78, 0
14, 280800, Note_on_c, 12, 62, 76
14, 281519, Note_on_c, 12, 62, 0
14, 282240, Note_on_c, 12, 62, 76
14, 282240, Note_on_c, 12, 59, 76
14, 282959, Note_on_c, 12, 62, 0
14, 282959, Note_on_c, 12, 59, 0
14, 284400, Note_on_c, 12, 64, 52
14, 284579, Note_on_c, 12, 64, 0
14, 284640, Note_on_c, 12, 66, 52
14, 284819, Note_on_c, 12, 66, 0
14, 284880, Note_on_c, 12, 67, 52
14, 285059, Note_on_c, 12, 67, 0
14, 285840, Note_on_c, 12, 64, 52
14, 286019, Note_on_c, 12, 64, 0
14, 286080, Note_on_c, 12, 66, 52
14, 286259, Note_on_c, 12, 66, 0
14, 286320, Note_on_c, 12, 67, 52
14, 286499, Note_on_c, 12, 67, 0
14, 287280, Control_c, 12, 11, 127
14, 287280, Note_on_c, 12, 64, 52
14, 287459, Note_on_c, 12, 64, 0
14, 287460, Control_c, 12, 11, 126
14, 287520, Note_on_c, 12, 65, 52
14, 287640, Control_c, 12, 11, 125
14, 287699, Note_on_c, 12, 65, 0
14, 287760, Note_on_c, 12, 67, 52
14, 287820, Control_c, 12, 11, 123
14, 287939, Note_on_c, 12, 67, 0
14, 288000, Control_c, 12, 11, 122
14, 288000, Note_on_c, 12, 64, 52
14, 288179, Note_on_c, 12, 64, 0
14, 288180, Control_c, 12, 11, 121
14, 288240, Note_on_c, 12, 65, 52
14, 288360, Control_c, 12, 11, 120
14, 288419, Note_on_c, 12, 65, 0
14, 288480, Note_on_c, 12, 67, 52
14, 288540, Control_c, 12, 11, 118
14, 288659, Note_on_c, 12, 67, 0
14, 288720, Note_on_c, 12, 64, 52
14, 288720, Control_c, 12, 11, 117
14, 288899, Note_on_c, 12, 64, 0
14, 288900, Control_c, 12, 11, 116
14, 288960, Note_on_c, 12, 65, 52
14, 289080, Control_c, 12, 11, 115
14, 289139, Note_on_c, 12, 65, 0
14, 289200, Note_on_c, 12, 67, 52
14, 289260, Control_c, 12, 11, 113
14, 289379, Note_on_c, 12, 67, 0
14, 289440, Note_on_c, 12, 64, 52
14, 289440, Control_c, 12, 11, 112
14, 289619, Note_on_c, 12, 64, 0
14, 289680, Note_on_c, 12, 65, 52
14, 289859, Note_on_c, 12, 65, 0
14, 289920, Note_on_c, 12, 67, 52
14, 290099, Note_on_c, 12, 67, 0
14, 290160, Note_on_c, 12, 65, 52
14, 290399, Note_on_c, 12, 65, 0
14, 290640, Control_c, 12, 11, 127
14, 290880, Note_on_c, 12, 61, 44
14, 291059, Note_on_c, 12, 61, 0
14, 291120, Note_on_c, 12, 62, 44
14, 291299, Note_on_c, 12, 62, 0
14, 291360, Note_on_c, 12, 64, 44
14, 291539, Note_on_c, 12, 64, 0
14, 291600, Note_on_c, 12, 62, 44
14, 291839, Note_on_c, 12, 62, 0
14, 292080, Control_c, 12, 11, 64
14, 292320, Control_c, 12, 11, 64
14, 292320, Note_on_c, 12, 62, 76
14, 292440, Control_c, 12, 11, 69
14, 292559, Note_on_c, 12, 62, 0
14, 292560, Note_on_c, 12, 64, 76
14, 292560, Control_c, 12, 11, 75
14, 292680, Control_c, 12, 11, 80
14, 292799, Note_on_c, 12, 64, 0
14, 292800, Control_c, 12, 11, 85
14, 292800, Note_on_c, 12, 65, 76
14, 292920, Control_c, 12, 11, 90
14, 293039, Note_on_c, 12, 65, 0
14, 293040, Note_on_c, 12, 66, 76
14, 293040, Control_c, 12, 11, 96
14, 293160, Control_c, 12, 11, 101
14, 293279, Note_on_c, 12, 66, 0
14, 293280, Control_c, 12, 11, 106
14, 293280, Note_on_c, 12, 67, 76
14, 293400, Control_c, 12, 11, 111
14, 293519, Note_on_c, 12, 67, 0
14, 293520, Note_on_c, 12, 68, 76
14, 293520, Control_c, 12, 11, 117
14, 293640, Control_c, 12, 11, 122
14, 293729, Note_on_c, 12, 68, 0
14, 293760, Control_c, 12, 11, 127
14, 293760, Note_on_c, 12, 69, 76
14, 293999, Note_on_c, 12, 69, 0
14, 294000, Note_on_c, 12, 68, 76
14, 294239, Note_on_c, 12, 68, 0
14, 294240, Note_on_c, 12, 67, 76
14, 294449, Note_on_c, 12, 67, 0
14, 294480, Note_on_c, 12, 66, 76
14, 294659, Note_on_c, 12, 66, 0
14, 294720, Note_on_c, 12, 64, 76
14, 294899, Note_on_c, 12, 64, 0
14, 294960, Note_on_c, 12, 62, 76
14, 295139, Note_on_c, 12, 62, 0
14, 295200, Note_on_c, 12, 67, 44
14, 295379, Note_on_c, 12, 67, 0
14, 295440, Note_on_c, 12, 69, 44
14, 295619, Note_on_c, 12, 69, 0
14, 295680, Note_on_c, 12, 70, 44
14, 295859, Note_on_c, 12, 70, 0
14, 295920, Note_on_c, 12, 69, 44
14, 296159, Note_on_c, 12, 69, 0
14, 296640, Note_on_c, 12, 64, 44
14, 296819, Note_on_c, 12, 64, 0
14, 296880, Note_on_c, 12, 65, 44
14, 297059, Note_on_c, 12, 65, 0
14, 297120, Note_on_c, 12, 67, 44
14, 297299, Note_on_c, 12, 67, 0
14, 297360, Note_on_c, 12, 65, 44
14, 297599, Note_on_c, 12, 65, 0
14, 297840, Control_c, 12, 11, 64
14, 298080, Note_on_c, 12, 62, 76
14, 298080, Control_c, 12, 11, 64
14, 298200, Control_c, 12, 11, 69
14, 298319, Note_on_c, 12, 62, 0
14, 298320, Note_on_c, 12, 64, 76
14, 298320, Control_c, 12, 11, 75
14, 298440, Control_c, 12, 11, 80
14, 298559, Note_on_c, 12, 64, 0
14, 298560, Note_on_c, 12, 65, 76
14, 298560, Control_c, 12, 11, 85
14, 298680, Control_c, 12, 11, 90
14, 298799, Note_on_c, 12, 65, 0
14, 298800, Note_on_c, 12, 66, 76
14, 298800, Control_c, 12, 11, 96
14, 298920, Control_c, 12, 11, 101
14, 299039, Note_on_c, 12, 66, 0
14, 299040, Control_c, 12, 11, 106
14, 299040, Note_on_c, 12, 67, 76
14, 299160, Control_c, 12, 11, 111
14, 299279, Note_on_c, 12, 67, 0
14, 299280, Control_c, 12, 11, 117
14, 299280, Note_on_c, 12, 68, 76
14, 299400, Control_c, 12, 11, 122
14, 299489, Note_on_c, 12, 68, 0
14, 299520, Control_c, 12, 11, 127
14, 299520, Note_on_c, 12, 69, 76
14, 299759, Note_on_c, 12, 69, 0
14, 299760, Note_on_c, 12, 68, 76
14, 299999, Note_on_c, 12, 68, 0
14, 300000, Note_on_c, 12, 67, 76
14, 300209, Note_on_c, 12, 67, 0
14, 300240, Note_on_c, 12, 66, 76
14, 300419, Note_on_c, 12, 66, 0
14, 300480, Note_on_c, 12, 64, 76
14, 300659, Note_on_c, 12, 64, 0
14, 300720, Note_on_c, 12, 62, 76
14, 300899, Note_on_c, 12, 62, 0
14, 300960, Note_on_c, 12, 62, 76
14, 300960, Control_c, 12, 11, 80
14, 301080, Control_c, 12, 11, 84
14, 301199, Note_on_c, 12, 62, 0
14, 301200, Note_on_c, 12, 64, 76
14, 301200, Control_c, 12, 11, 88
14, 301320, Control_c, 12, 11, 92
14, 301439, Note_on_c, 12, 64, 0
14, 301440, Control_c, 12, 11, 96
14, 301440, Note_on_c, 12, 65, 76
14, 301560, Control_c, 12, 11, 100
14, 301679, Note_on_c, 12, 65, 0
14, 301680, Control_c, 12, 11, 104
14, 301680, Note_on_c, 12, 66, 76
14, 301800, Control_c, 12, 11, 107
14, 301919, Note_on_c, 12, 66, 0
14, 301920, Control_c, 12, 11, 111
14, 301920, Note_on_c, 12, 67, 76
14, 302040, Control_c, 12, 11, 115
14, 302159, Note_on_c, 12, 67, 0
14, 302160, Control_c, 12, 11, 119
14, 302160, Note_on_c, 12, 68, 76
14, 302280, Control_c, 12, 11, 123
14, 302369, Note_on_c, 12, 68, 0
14, 302400, Control_c, 12, 11, 127
14, 302400, Note_on_c, 12, 69, 84
14, 302639, Note_on_c, 12, 69, 0
14, 302640, Note_on_c, 12, 68, 76
14, 302879, Note_on_c, 12, 68, 0
14, 302880, Note_on_c, 12, 67, 76
14, 303089, Note_on_c, 12, 67, 0
14, 303120, Note_on_c, 12, 66, 76
14, 303299, Note_on_c, 12, 66, 0
14, 303360, Note_on_c, 12, 62, 76
14, 303539, Note_on_c, 12, 62, 0
14, 303600, Note_on_c, 12, 66, 76
14, 303779, Note_on_c, 12, 66, 0
14, 303840, Note_on_c, 12, 69, 84
14, 304079, Note_on_c, 12, 69, 0
14, 304080, Note_on_c, 12, 68, 76
14, 304319, Note_on_c, 12, 68, 0
14, 304320, Note_on_c, 12, 67, 76
14, 304529, Note_on_c, 12, 67, 0
14, 304560, Note_on_c, 12, 66, 76
14, 304739, Note_on_c, 12, 66, 0
14, 304800, Note_on_c, 12, 62, 76
14, 304979, Note_on_c, 12, 62, 0
14, 305040, Note_on_c, 12, 66, 76
14, 305219, Note_on_c, 12, 66, 0
14, 305280, Note_on_c, 12, 61, 84
14, 305519, Note_on_c, 12, 61, 0
14, 305520, Note_on_c, 12, 64, 84
14, 305759, Note_on_c, 12, 64, 0
14, 305760, Note_on_c, 12, 69, 84
14, 305999, Note_on_c, 12, 69, 0
14, 306000, Note_on_c, 12, 73, 84
14, 306239, Note_on_c, 12, 73, 0
14, 306240, Note_on_c, 12, 74, 84
14, 306479, Note_on_c, 12, 74, 0
14, 306480, Note_on_c, 12, 76, 84
14, 306689, Note_on_c, 12, 76, 0
14, 306720, Note_on_c, 12, 78, 84
14, 306959, Note_on_c, 12, 78, 0
14, 307200, Note_on_c, 12, 79, 84
14, 307200, Note_on_c, 12, 69, 84
14, 307379, Note_on_c, 12, 79, 0
14, 307379, Note_on_c, 12, 69, 0
14, 307440, Note_on_c, 12, 69, 84
14, 307440, Note_on_c, 12, 62, 84
14, 307440, Note_on_c, 12, 78, 84
14, 307619, Note_on_c, 12, 69, 0
14, 307619, Note_on_c, 12, 62, 0
14, 307619, Note_on_c, 12, 78, 0
14, 307619, End_track
15, 0, Start_track
15, 0, Title_t, "Viola "
15, 0, MIDI_port, 0
15, 0, Program_c, 13, 48
15, 0, Control_c, 13, 11, 127
15, 0, Control_c, 13, 10, 70
15, 0, Control_c, 13, 7, 96
15, 0, Note_on_c, 13, 62, 76
15, 179, Note_on_c, 13, 62, 0
15, 240, Note_on_c, 13, 64, 76
15, 419, Note_on_c, 13, 64, 0
15, 480, Note_on_c, 13, 66, 76
15, 659, Note_on_c, 13, 66, 0
15, 1440, Note_on_c, 13, 55, 76
15, 1619, Note_on_c, 13, 55, 0
15, 1680, Note_on_c, 13, 57, 76
15, 1859, Note_on_c, 13, 57, 0
15, 1920, Note_on_c, 13, 59, 76
15, 2099, Note_on_c, 13, 59, 0
15, 5040, Note_on_c, 13, 62, 84
15, 5219, Note_on_c, 13, 62, 0
15, 5280, Note_on_c, 13, 57, 84
15, 5459, Note_on_c, 13, 57, 0
15, 5520, Note_on_c, 13, 62, 84
15, 5699, Note_on_c, 13, 62, 0
15, 5760, Note_on_c, 13, 62, 76
15, 5939, Note_on_c, 13, 62, 0
15, 6000, Note_on_c, 13, 64, 76
15, 6179, Note_on_c, 13, 64, 0
15, 6240, Note_on_c, 13, 66, 76
15, 6419, Note_on_c, 13, 66, 0
15, 7200, Note_on_c, 13, 56, 76
15, 7379, Note_on_c, 13, 56, 0
15, 7440, Note_on_c, 13, 57, 76
15, 7619, Note_on_c, 13, 57, 0
15, 7680, Note_on_c, 13, 59, 76
15, 7859, Note_on_c, 13, 59, 0
15, 8640, Note_on_c, 13, 57, 52
15, 8819, Note_on_c, 13, 57, 0
15, 8880, Note_on_c, 13, 59, 52
15, 9059, Note_on_c, 13, 59, 0
15, 9120, Note_on_c, 13, 61, 52
15, 9299, Note_on_c, 13, 61, 0
15, 10800, Note_on_c, 13, 69, 84
15, 10979, Note_on_c, 13, 69, 0
15, 11040, Note_on_c, 13, 64, 84
15, 11219, Note_on_c, 13, 64, 0
15, 11280, Note_on_c, 13, 69, 84
15, 11459, Note_on_c, 13, 69, 0
15, 11520, Note_on_c, 13, 62, 76
15, 11699, Note_on_c, 13, 62, 0
15, 11760, Note_on_c, 13, 64, 76
15, 11939, Note_on_c, 13, 64, 0
15, 12000, Note_on_c, 13, 66, 76
15, 12179, Note_on_c, 13, 66, 0
15, 12960, Note_on_c, 13, 55, 76
15, 13139, Note_on_c, 13, 55, 0
15, 13200, Note_on_c, 13, 57, 76
15, 13379, Note_on_c, 13, 57, 0
15, 13440, Note_on_c, 13, 59, 76
15, 13619, Note_on_c, 13, 59, 0
15, 16560, Note_on_c, 13, 62, 84
15, 16739, Note_on_c, 13, 62, 0
15, 16800, Note_on_c, 13, 57, 84
15, 16979, Note_on_c, 13, 57, 0
15, 17040, Note_on_c, 13, 62, 84
15, 17219, Note_on_c, 13, 62, 0
15, 17280, Note_on_c, 13, 62, 76
15, 17459, Note_on_c, 13, 62, 0
15, 17520, Note_on_c, 13, 64, 76
15, 17699, Note_on_c, 13, 64, 0
15, 17760, Note_on_c, 13, 66, 76
15, 17939, Note_on_c, 13, 66, 0
15, 18720, Note_on_c, 13, 56, 76
15, 18899, Note_on_c, 13, 56, 0
15, 18960, Note_on_c, 13, 57, 76
15, 19139, Note_on_c, 13, 57, 0
15, 19200, Note_on_c, 13, 59, 76
15, 19379, Note_on_c, 13, 59, 0
15, 20160, Note_on_c, 13, 57, 52
15, 20339, Note_on_c, 13, 57, 0
15, 20400, Note_on_c, 13, 59, 52
15, 20579, Note_on_c, 13, 59, 0
15, 20640, Note_on_c, 13, 61, 52
15, 20819, Note_on_c, 13, 61, 0
15, 22320, Note_on_c, 13, 69, 84
15, 22499, Note_on_c, 13, 69, 0
15, 22560, Note_on_c, 13, 64, 84
15, 22739, Note_on_c, 13, 64, 0
15, 22800, Note_on_c, 13, 69, 84
15, 22979, Note_on_c, 13, 69, 0
15, 23040, Note_on_c, 13, 57, 52
15, 23219, Note_on_c, 13, 57, 0
15, 23280, Note_on_c, 13, 59, 52
15, 23459, Note_on_c, 13, 59, 0
15, 23520, Note_on_c, 13, 61, 52
15, 23699, Note_on_c, 13, 61, 0
15, 23760, Note_on_c, 13, 62, 52
15, 23999, Note_on_c, 13, 62, 0
15, 24480, Note_on_c, 13, 53, 52
15, 24659, Note_on_c, 13, 53, 0
15, 24720, Note_on_c, 13, 55, 52
15, 24899, Note_on_c, 13, 55, 0
15, 24960, Note_on_c, 13, 57, 52
15, 25139, Note_on_c, 13, 57, 0
15, 25200, Note_on_c, 13, 58, 52
15, 25439, Note_on_c, 13, 58, 0
15, 25920, Note_on_c, 13, 53, 52
15, 26099, Note_on_c, 13, 53, 0
15, 26160, Note_on_c, 13, 53, 76
15, 26280, Control_c, 13, 11, 80
15, 27569, Note_on_c, 13, 53, 0
15, 27600, Note_on_c, 13, 53, 76
15, 27809, Note_on_c, 13, 53, 0
15, 27840, Note_on_c, 13, 53, 76
15, 28049, Note_on_c, 13, 53, 0
15, 28080, Note_on_c, 13, 53, 76
15, 28289, Note_on_c, 13, 53, 0
15, 28320, Note_on_c, 13, 53, 76
15, 28529, Note_on_c, 13, 53, 0
15, 28560, Note_on_c, 13, 53, 76
15, 28769, Note_on_c, 13, 53, 0
15, 28800, Note_on_c, 13, 53, 76
15, 28979, Note_on_c, 13, 53, 0
15, 29040, Note_on_c, 13, 53, 76
15, 29040, Control_c, 13, 11, 127
15, 29160, Control_c, 13, 11, 80
15, 30449, Note_on_c, 13, 53, 0
15, 30480, Note_on_c, 13, 53, 76
15, 30689, Note_on_c, 13, 53, 0
15, 30720, Note_on_c, 13, 53, 76
15, 30929, Note_on_c, 13, 53, 0
15, 30960, Note_on_c, 13, 53, 76
15, 31169, Note_on_c, 13, 53, 0
15, 31200, Note_on_c, 13, 53, 76
15, 31409, Note_on_c, 13, 53, 0
15, 31440, Note_on_c, 13, 53, 76
15, 31649, Note_on_c, 13, 53, 0
15, 31680, Note_on_c, 13, 53, 76
15, 31859, Note_on_c, 13, 53, 0
15, 31920, Note_on_c, 13, 58, 76
15, 32159, Note_on_c, 13, 58, 0
15, 32160, Note_on_c, 13, 62, 76
15, 32399, Note_on_c, 13, 62, 0
15, 32625, Control_c, 13, 11, 127
15, 32640, Note_on_c, 13, 57, 52
15, 32879, Note_on_c, 13, 57, 0
15, 32880, Note_on_c, 13, 62, 52
15, 33119, Note_on_c, 13, 62, 0
15, 33360, Note_on_c, 13, 59, 52
15, 33599, Note_on_c, 13, 59, 0
15, 33600, Note_on_c, 13, 62, 52
15, 33809, Note_on_c, 13, 62, 0
15, 33840, Note_on_c, 13, 59, 52
15, 33840, Note_on_c, 13, 56, 52
15, 34019, Note_on_c, 13, 59, 0
15, 34019, Note_on_c, 13, 56, 0
15, 34080, Note_on_c, 13, 59, 52
15, 34080, Note_on_c, 13, 56, 52
15, 34259, Note_on_c, 13, 59, 0
15, 34259, Note_on_c, 13, 56, 0
15, 34320, Note_on_c, 13, 56, 52
15, 34320, Note_on_c, 13, 59, 52
15, 34499, Note_on_c, 13, 56, 0
15, 34499, Note_on_c, 13, 59, 0
15, 34560, Note_on_c, 13, 61, 44
15, 34560, Note_on_c, 13, 57, 44
15, 34799, Note_on_c, 13, 61, 0
15, 34799, Note_on_c, 13, 57, 0
15, 35040, Note_on_c, 13, 49, 44
15, 35279, Note_on_c, 13, 49, 0
15, 35280, Note_on_c, 13, 50, 44
15, 35519, Note_on_c, 13, 50, 0
15, 35520, Note_on_c, 13, 53, 44
15, 35759, Note_on_c, 13, 53, 0
15, 35760, Note_on_c, 13, 56, 44
15, 35969, Note_on_c, 13, 56, 0
15, 36000, Note_on_c, 13, 57, 44
15, 36179, Note_on_c, 13, 57, 0
15, 36240, Control_c, 13, 11, 64
15, 36480, Note_on_c, 13, 49, 76
15, 36680, Control_c, 13, 11, 69
15, 36719, Note_on_c, 13, 49, 0
15, 36720, Note_on_c, 13, 50, 76
15, 36880, Control_c, 13, 11, 75
15, 36959, Note_on_c, 13, 50, 0
15, 36960, Note_on_c, 13, 53, 76
15, 37080, Control_c, 13, 11, 80
15, 37199, Note_on_c, 13, 53, 0
15, 37200, Note_on_c, 13, 56, 76
15, 37280, Control_c, 13, 11, 85
15, 37409, Note_on_c, 13, 56, 0
15, 37440, Note_on_c, 13, 57, 76
15, 37480, Control_c, 13, 11, 90
15, 37619, Note_on_c, 13, 57, 0
15, 38680, Control_c, 13, 11, 127
15, 38880, Note_on_c, 13, 62, 76
15, 39059, Note_on_c, 13, 62, 0
15, 39120, Note_on_c, 13, 64, 76
15, 39299, Note_on_c, 13, 64, 0
15, 39360, Note_on_c, 13, 66, 76
15, 39539, Note_on_c, 13, 66, 0
15, 40320, Note_on_c, 13, 55, 76
15, 40499, Note_on_c, 13, 55, 0
15, 40560, Note_on_c, 13, 57, 76
15, 40739, Note_on_c, 13, 57, 0
15, 40800, Note_on_c, 13, 59, 76
15, 40979, Note_on_c, 13, 59, 0
15, 43920, Note_on_c, 13, 62, 84
15, 44099, Note_on_c, 13, 62, 0
15, 44160, Note_on_c, 13, 57, 84
15, 44339, Note_on_c, 13, 57, 0
15, 44400, Note_on_c, 13, 62, 84
15, 44579, Note_on_c, 13, 62, 0
15, 44640, Note_on_c, 13, 62, 76
15, 44819, Note_on_c, 13, 62, 0
15, 44880, Note_on_c, 13, 64, 76
15, 45059, Note_on_c, 13, 64, 0
15, 45120, Note_on_c, 13, 66, 76
15, 45299, Note_on_c, 13, 66, 0
15, 46080, Note_on_c, 13, 55, 76
15, 46259, Note_on_c, 13, 55, 0
15, 46320, Note_on_c, 13, 57, 76
15, 46499, Note_on_c, 13, 57, 0
15, 46560, Note_on_c, 13, 59, 76
15, 46739, Note_on_c, 13, 59, 0
15, 53280, Note_on_c, 13, 60, 44
15, 53519, Note_on_c, 13, 60, 0
15, 54000, Note_on_c, 13, 53, 44
15, 54239, Note_on_c, 13, 53, 0
15, 54720, Note_on_c, 13, 57, 44
15, 54959, Note_on_c, 13, 57, 0
15, 55440, Note_on_c, 13, 50, 44
15, 55679, Note_on_c, 13, 50, 0
15, 55920, Control_c, 13, 11, 64
15, 56160, Note_on_c, 13, 50, 76
15, 56280, Control_c, 13, 11, 69
15, 56399, Note_on_c, 13, 50, 0
15, 56400, Note_on_c, 13, 52, 76
15, 56400, Control_c, 13, 11, 75
15, 56520, Control_c, 13, 11, 80
15, 56639, Note_on_c, 13, 52, 0
15, 56640, Control_c, 13, 11, 85
15, 56640, Note_on_c, 13, 53, 76
15, 56760, Control_c, 13, 11, 90
15, 56879, Note_on_c, 13, 53, 0
15, 56880, Note_on_c, 13, 54, 76
15, 56880, Control_c, 13, 11, 96
15, 57000, Control_c, 13, 11, 101
15, 57119, Note_on_c, 13, 54, 0
15, 57120, Note_on_c, 13, 55, 76
15, 57120, Control_c, 13, 11, 106
15, 57240, Control_c, 13, 11, 111
15, 57359, Note_on_c, 13, 55, 0
15, 57360, Note_on_c, 13, 56, 76
15, 57360, Control_c, 13, 11, 117
15, 57480, Control_c, 13, 11, 122
15, 57569, Note_on_c, 13, 56, 0
15, 57600, Note_on_c, 13, 57, 76
15, 57600, Control_c, 13, 11, 127
15, 57809, Note_on_c, 13, 57, 0
15, 57840, Note_on_c, 13, 69, 76
15, 58049, Note_on_c, 13, 69, 0
15, 58080, Note_on_c, 13, 69, 76
15, 58289, Note_on_c, 13, 69, 0
15, 58320, Note_on_c, 13, 62, 76
15, 58559, Note_on_c, 13, 62, 0
15, 59040, Note_on_c, 13, 64, 44
15, 59219, Note_on_c, 13, 64, 0
15, 59280, Note_on_c, 13, 65, 44
15, 59459, Note_on_c, 13, 65, 0
15, 59520, Note_on_c, 13, 67, 44
15, 59699, Note_on_c, 13, 67, 0
15, 59760, Note_on_c, 13, 65, 44
15, 59999, Note_on_c, 13, 65, 0
15, 60480, Note_on_c, 13, 61, 44
15, 60659, Note_on_c, 13, 61, 0
15, 60720, Note_on_c, 13, 62, 44
15, 60899, Note_on_c, 13, 62, 0
15, 60960, Note_on_c, 13, 64, 44
15, 61139, Note_on_c, 13, 64, 0
15, 61200, Note_on_c, 13, 62, 44
15, 61439, Note_on_c, 13, 62, 0
15, 61680, Control_c, 13, 11, 64
15, 61920, Note_on_c, 13, 50, 76
15, 62040, Control_c, 13, 11, 69
15, 62159, Note_on_c, 13, 50, 0
15, 62160, Note_on_c, 13, 52, 76
15, 62160, Control_c, 13, 11, 75
15, 62280, Control_c, 13, 11, 80
15, 62399, Note_on_c, 13, 52, 0
15, 62400, Note_on_c, 13, 53, 76
15, 62400, Control_c, 13, 11, 85
15, 62520, Control_c, 13, 11, 90
15, 62639, Note_on_c, 13, 53, 0
15, 62640, Note_on_c, 13, 54, 76
15, 62640, Control_c, 13, 11, 96
15, 62760, Control_c, 13, 11, 101
15, 62879, Note_on_c, 13, 54, 0
15, 62880, Note_on_c, 13, 55, 76
15, 62880, Control_c, 13, 11, 106
15, 63000, Control_c, 13, 11, 111
15, 63119, Note_on_c, 13, 55, 0
15, 63120, Control_c, 13, 11, 117
15, 63120, Note_on_c, 13, 56, 76
15, 63240, Control_c, 13, 11, 122
15, 63329, Note_on_c, 13, 56, 0
15, 63360, Control_c, 13, 11, 127
15, 63360, Note_on_c, 13, 57, 76
15, 63569, Note_on_c, 13, 57, 0
15, 63600, Note_on_c, 13, 69, 76
15, 63809, Note_on_c, 13, 69, 0
15, 63840, Note_on_c, 13, 69, 76
15, 64049, Note_on_c, 13, 69, 0
15, 64080, Note_on_c, 13, 62, 76
15, 64319, Note_on_c, 13, 62, 0
15, 64560, Control_c, 13, 11, 80
15, 64800, Note_on_c, 13, 50, 76
15, 64920, Control_c, 13, 11, 84
15, 65039, Note_on_c, 13, 50, 0
15, 65040, Note_on_c, 13, 52, 76
15, 65040, Control_c, 13, 11, 88
15, 65160, Control_c, 13, 11, 92
15, 65279, Note_on_c, 13, 52, 0
15, 65280, Note_on_c, 13, 53, 76
15, 65280, Control_c, 13, 11, 96
15, 65400, Control_c, 13, 11, 100
15, 65519, Note_on_c, 13, 53, 0
15, 65520, Note_on_c, 13, 54, 76
15, 65520, Control_c, 13, 11, 104
15, 65640, Control_c, 13, 11, 107
15, 65759, Note_on_c, 13, 54, 0
15, 65760, Note_on_c, 13, 55, 76
15, 65760, Control_c, 13, 11, 111
15, 65880, Control_c, 13, 11, 115
15, 65999, Note_on_c, 13, 55, 0
15, 66000, Note_on_c, 13, 56, 76
15, 66000, Control_c, 13, 11, 119
15, 66120, Control_c, 13, 11, 123
15, 66209, Note_on_c, 13, 56, 0
15, 66240, Control_c, 13, 11, 127
15, 66240, Note_on_c, 13, 57, 84
15, 66419, Note_on_c, 13, 57, 0
15, 66480, Note_on_c, 13, 69, 76
15, 66689, Note_on_c, 13, 69, 0
15, 66720, Note_on_c, 13, 69, 76
15, 66929, Note_on_c, 13, 69, 0
15, 66960, Note_on_c, 13, 74, 76
15, 67199, Note_on_c, 13, 74, 0
15, 67680, Note_on_c, 13, 57, 84
15, 67859, Note_on_c, 13, 57, 0
15, 67920, Note_on_c, 13, 69, 76
15, 68129, Note_on_c, 13, 69, 0
15, 68160, Note_on_c, 13, 69, 76
15, 68369, Note_on_c, 13, 69, 0
15, 68400, Note_on_c, 13, 74, 76
15, 68639, Note_on_c, 13, 74, 0
15, 69120, Note_on_c, 13, 57, 84
15, 69359, Note_on_c, 13, 57, 0
15, 69360, Note_on_c, 13, 61, 84
15, 69599, Note_on_c, 13, 61, 0
15, 69600, Note_on_c, 13, 64, 84
15, 69839, Note_on_c, 13, 64, 0
15, 69840, Note_on_c, 13, 69, 84
15, 70079, Note_on_c, 13, 69, 0
15, 70080, Note_on_c, 13, 71, 84
15, 70319, Note_on_c, 13, 71, 0
15, 70320, Note_on_c, 13, 73, 84
15, 70529, Note_on_c, 13, 73, 0
15, 70560, Note_on_c, 13, 74, 84
15, 70799, Note_on_c, 13, 74, 0
15, 71040, Note_on_c, 13, 69, 84
15, 71219, Note_on_c, 13, 69, 0
15, 71280, Note_on_c, 13, 62, 84
15, 71459, Note_on_c, 13, 62, 0
15, 72000, Note_on_c, 13, 57, 52
15, 72179, Note_on_c, 13, 57, 0
15, 72240, Note_on_c, 13, 59, 52
15, 72419, Note_on_c, 13, 59, 0
15, 72480, Note_on_c, 13, 61, 52
15, 72659, Note_on_c, 13, 61, 0
15, 72720, Note_on_c, 13, 62, 52
15, 72959, Note_on_c, 13, 62, 0
15, 73440, Note_on_c, 13, 53, 52
15, 73619, Note_on_c, 13, 53, 0
15, 73680, Note_on_c, 13, 55, 52
15, 73859, Note_on_c, 13, 55, 0
15, 73920, Note_on_c, 13, 57, 52
15, 74099, Note_on_c, 13, 57, 0
15, 74160, Note_on_c, 13, 58, 52
15, 74399, Note_on_c, 13, 58, 0
15, 74880, Note_on_c, 13, 53, 52
15, 75059, Note_on_c, 13, 53, 0
15, 75120, Note_on_c, 13, 53, 76
15, 75240, Control_c, 13, 11, 80
15, 76529, Note_on_c, 13, 53, 0
15, 76560, Note_on_c, 13, 53, 76
15, 76769, Note_on_c, 13, 53, 0
15, 76800, Note_on_c, 13, 53, 76
15, 77009, Note_on_c, 13, 53, 0
15, 77040, Note_on_c, 13, 53, 76
15, 77249, Note_on_c, 13, 53, 0
15, 77280, Note_on_c, 13, 53, 76
15, 77489, Note_on_c, 13, 53, 0
15, 77520, Note_on_c, 13, 53, 76
15, 77729, Note_on_c, 13, 53, 0
15, 77760, Note_on_c, 13, 53, 76
15, 77939, Note_on_c, 13, 53, 0
15, 78000, Control_c, 13, 11, 127
15, 78000, Note_on_c, 13, 53, 76
15, 78120, Control_c, 13, 11, 80
15, 79409, Note_on_c, 13, 53, 0
15, 79440, Note_on_c, 13, 53, 76
15, 79649, Note_on_c, 13, 53, 0
15, 79680, Note_on_c, 13, 53, 76
15, 79889, Note_on_c, 13, 53, 0
15, 79920, Note_on_c, 13, 53, 76
15, 80129, Note_on_c, 13, 53, 0
15, 80160, Note_on_c, 13, 53, 76
15, 80369, Note_on_c, 13, 53, 0
15, 80400, Note_on_c, 13, 53, 76
15, 80609, Note_on_c, 13, 53, 0
15, 80640, Note_on_c, 13, 53, 76
15, 80819, Note_on_c, 13, 53, 0
15, 80880, Note_on_c, 13, 58, 76
15, 81119, Note_on_c, 13, 58, 0
15, 81120, Note_on_c, 13, 62, 76
15, 81359, Note_on_c, 13, 62, 0
15, 81585, Control_c, 13, 11, 127
15, 81600, Note_on_c, 13, 57, 52
15, 81839, Note_on_c, 13, 57, 0
15, 81840, Note_on_c, 13, 62, 52
15, 82079, Note_on_c, 13, 62, 0
15, 82320, Note_on_c, 13, 59, 52
15, 82559, Note_on_c, 13, 59, 0
15, 82560, Note_on_c, 13, 62, 52
15, 82769, Note_on_c, 13, 62, 0
15, 82800, Note_on_c, 13, 59, 52
15, 82800, Note_on_c, 13, 56, 52
15, 82979, Note_on_c, 13, 59, 0
15, 82979, Note_on_c, 13, 56, 0
15, 83040, Note_on_c, 13, 56, 52
15, 83040, Note_on_c, 13, 59, 52
15, 83219, Note_on_c, 13, 56, 0
15, 83219, Note_on_c, 13, 59, 0
15, 83280, Note_on_c, 13, 59, 52
15, 83280, Note_on_c, 13, 56, 52
15, 83459, Note_on_c, 13, 59, 0
15, 83459, Note_on_c, 13, 56, 0
15, 83520, Note_on_c, 13, 57, 44
15, 83520, Note_on_c, 13, 61, 44
15, 83759, Note_on_c, 13, 57, 0
15, 83759, Note_on_c, 13, 61, 0
15, 84000, Note_on_c, 13, 49, 44
15, 84239, Note_on_c, 13, 49, 0
15, 84240, Note_on_c, 13, 50, 44
15, 84479, Note_on_c, 13, 50, 0
15, 84480, Note_on_c, 13, 53, 44
15, 84719, Note_on_c, 13, 53, 0
15, 84720, Note_on_c, 13, 56, 44
15, 84929, Note_on_c, 13, 56, 0
15, 84960, Note_on_c, 13, 57, 44
15, 85139, Note_on_c, 13, 57, 0
15, 85200, Control_c, 13, 11, 64
15, 85440, Note_on_c, 13, 49, 76
15, 85640, Control_c, 13, 11, 69
15, 85679, Note_on_c, 13, 49, 0
15, 85680, Note_on_c, 13, 50, 76
15, 85840, Control_c, 13, 11, 75
15, 85919, Note_on_c, 13, 50, 0
15, 85920, Note_on_c, 13, 53, 76
15, 86040, Control_c, 13, 11, 80
15, 86159, Note_on_c, 13, 53, 0
15, 86160, Note_on_c, 13, 56, 76
15, 86240, Control_c, 13, 11, 85
15, 86369, Note_on_c, 13, 56, 0
15, 86400, Note_on_c, 13, 57, 76
15, 86440, Control_c, 13, 11, 90
15, 86579, Note_on_c, 13, 57, 0
15, 87640, Control_c, 13, 11, 127
15, 87840, Note_on_c, 13, 62, 76
15, 88019, Note_on_c, 13, 62, 0
15, 88080, Note_on_c, 13, 64, 76
15, 88259, Note_on_c, 13, 64, 0
15, 88320, Note_on_c, 13, 66, 76
15, 88499, Note_on_c, 13, 66, 0
15, 89280, Note_on_c, 13, 55, 76
15, 89459, Note_on_c, 13, 55, 0
15, 89520, Note_on_c, 13, 57, 76
15, 89699, Note_on_c, 13, 57, 0
15, 89760, Note_on_c, 13, 59, 76
15, 89939, Note_on_c, 13, 59, 0
15, 92880, Note_on_c, 13, 62, 84
15, 93059, Note_on_c, 13, 62, 0
15, 93120, Note_on_c, 13, 57, 84
15, 93299, Note_on_c, 13, 57, 0
15, 93360, Note_on_c, 13, 62, 84
15, 93539, Note_on_c, 13, 62, 0
15, 93600, Note_on_c, 13, 62, 76
15, 93779, Note_on_c, 13, 62, 0
15, 93840, Note_on_c, 13, 64, 76
15, 94019, Note_on_c, 13, 64, 0
15, 94080, Note_on_c, 13, 66, 76
15, 94259, Note_on_c, 13, 66, 0
15, 95040, Note_on_c, 13, 55, 76
15, 95219, Note_on_c, 13, 55, 0
15, 95280, Note_on_c, 13, 57, 76
15, 95459, Note_on_c, 13, 57, 0
15, 95520, Note_on_c, 13, 59, 76
15, 95699, Note_on_c, 13, 59, 0
15, 102240, Note_on_c, 13, 60, 44
15, 102479, Note_on_c, 13, 60, 0
15, 102960, Note_on_c, 13, 53, 44
15, 103199, Note_on_c, 13, 53, 0
15, 103680, Note_on_c, 13, 57, 44
15, 103919, Note_on_c, 13, 57, 0
15, 104400, Note_on_c, 13, 50, 44
15, 104639, Note_on_c, 13, 50, 0
15, 104880, Control_c, 13, 11, 64
15, 105120, Note_on_c, 13, 50, 76
15, 105240, Control_c, 13, 11, 69
15, 105359, Note_on_c, 13, 50, 0
15, 105360, Control_c, 13, 11, 75
15, 105360, Note_on_c, 13, 52, 76
15, 105480, Control_c, 13, 11, 80
15, 105599, Note_on_c, 13, 52, 0
15, 105600, Note_on_c, 13, 53, 76
15, 105600, Control_c, 13, 11, 85
15, 105720, Control_c, 13, 11, 90
15, 105839, Note_on_c, 13, 53, 0
15, 105840, Control_c, 13, 11, 96
15, 105840, Note_on_c, 13, 54, 76
15, 105960, Control_c, 13, 11, 101
15, 106079, Note_on_c, 13, 54, 0
15, 106080, Note_on_c, 13, 55, 76
15, 106080, Control_c, 13, 11, 106
15, 106200, Control_c, 13, 11, 111
15, 106319, Note_on_c, 13, 55, 0
15, 106320, Control_c, 13, 11, 117
15, 106320, Note_on_c, 13, 56, 76
15, 106440, Control_c, 13, 11, 122
15, 106529, Note_on_c, 13, 56, 0
15, 106560, Control_c, 13, 11, 127
15, 106560, Note_on_c, 13, 57, 76
15, 106769, Note_on_c, 13, 57, 0
15, 106800, Note_on_c, 13, 69, 76
15, 107009, Note_on_c, 13, 69, 0
15, 107040, Note_on_c, 13, 69, 76
15, 107249, Note_on_c, 13, 69, 0
15, 107280, Note_on_c, 13, 62, 76
15, 107519, Note_on_c, 13, 62, 0
15, 108000, Note_on_c, 13, 64, 44
15, 108179, Note_on_c, 13, 64, 0
15, 108240, Note_on_c, 13, 65, 44
15, 108419, Note_on_c, 13, 65, 0
15, 108480, Note_on_c, 13, 67, 44
15, 108659, Note_on_c, 13, 67, 0
15, 108720, Note_on_c, 13, 65, 44
15, 108959, Note_on_c, 13, 65, 0
15, 109440, Note_on_c, 13, 61, 44
15, 109619, Note_on_c, 13, 61, 0
15, 109680, Note_on_c, 13, 62, 44
15, 109859, Note_on_c, 13, 62, 0
15, 109920, Note_on_c, 13, 64, 44
15, 110099, Note_on_c, 13, 64, 0
15, 110160, Note_on_c, 13, 62, 44
15, 110399, Note_on_c, 13, 62, 0
15, 110640, Control_c, 13, 11, 64
15, 110880, Note_on_c, 13, 50, 76
15, 111000, Control_c, 13, 11, 69
15, 111119, Note_on_c, 13, 50, 0
15, 111120, Control_c, 13, 11, 75
15, 111120, Note_on_c, 13, 52, 76
15, 111240, Control_c, 13, 11, 80
15, 111359, Note_on_c, 13, 52, 0
15, 111360, Note_on_c, 13, 53, 76
15, 111360, Control_c, 13, 11, 85
15, 111480, Control_c, 13, 11, 90
15, 111599, Note_on_c, 13, 53, 0
15, 111600, Note_on_c, 13, 54, 76
15, 111600, Control_c, 13, 11, 96
15, 111720, Control_c, 13, 11, 101
15, 111839, Note_on_c, 13, 54, 0
15, 111840, Note_on_c, 13, 55, 76
15, 111840, Control_c, 13, 11, 106
15, 111960, Control_c, 13, 11, 111
15, 112079, Note_on_c, 13, 55, 0
15, 112080, Control_c, 13, 11, 117
15, 112080, Note_on_c, 13, 56, 76
15, 112200, Control_c, 13, 11, 122
15, 112289, Note_on_c, 13, 56, 0
15, 112320, Control_c, 13, 11, 127
15, 112320, Note_on_c, 13, 57, 76
15, 112529, Note_on_c, 13, 57, 0
15, 112560, Note_on_c, 13, 69, 76
15, 112769, Note_on_c, 13, 69, 0
15, 112800, Note_on_c, 13, 69, 76
15, 113009, Note_on_c, 13, 69, 0
15, 113040, Note_on_c, 13, 62, 76
15, 113279, Note_on_c, 13, 62, 0
15, 113520, Control_c, 13, 11, 80
15, 113760, Note_on_c, 13, 50, 76
15, 113880, Control_c, 13, 11, 84
15, 113999, Note_on_c, 13, 50, 0
15, 114000, Control_c, 13, 11, 88
15, 114000, Note_on_c, 13, 52, 76
15, 114120, Control_c, 13, 11, 92
15, 114239, Note_on_c, 13, 52, 0
15, 114240, Note_on_c, 13, 53, 76
15, 114240, Control_c, 13, 11, 96
15, 114360, Control_c, 13, 11, 100
15, 114479, Note_on_c, 13, 53, 0
15, 114480, Control_c, 13, 11, 104
15, 114480, Note_on_c, 13, 54, 76
15, 114600, Control_c, 13, 11, 107
15, 114719, Note_on_c, 13, 54, 0
15, 114720, Control_c, 13, 11, 111
15, 114720, Note_on_c, 13, 55, 76
15, 114840, Control_c, 13, 11, 115
15, 114959, Note_on_c, 13, 55, 0
15, 114960, Note_on_c, 13, 56, 76
15, 114960, Control_c, 13, 11, 119
15, 115080, Control_c, 13, 11, 123
15, 115169, Note_on_c, 13, 56, 0
15, 115200, Control_c, 13, 11, 127
15, 115200, Note_on_c, 13, 57, 84
15, 115379, Note_on_c, 13, 57, 0
15, 115440, Note_on_c, 13, 69, 76
15, 115649, Note_on_c, 13, 69, 0
15, 115680, Note_on_c, 13, 69, 76
15, 115889, Note_on_c, 13, 69, 0
15, 115920, Note_on_c, 13, 74, 76
15, 116159, Note_on_c, 13, 74, 0
15, 116640, Note_on_c, 13, 57, 84
15, 116819, Note_on_c, 13, 57, 0
15, 116880, Note_on_c, 13, 69, 76
15, 117089, Note_on_c, 13, 69, 0
15, 117120, Note_on_c, 13, 69, 76
15, 117329, Note_on_c, 13, 69, 0
15, 117360, Note_on_c, 13, 74, 76
15, 117599, Note_on_c, 13, 74, 0
15, 118080, Note_on_c, 13, 57, 84
15, 118319, Note_on_c, 13, 57, 0
15, 118320, Note_on_c, 13, 61, 84
15, 118559, Note_on_c, 13, 61, 0
15, 118560, Note_on_c, 13, 64, 84
15, 118799, Note_on_c, 13, 64, 0
15, 118800, Note_on_c, 13, 69, 84
15, 119039, Note_on_c, 13, 69, 0
15, 119040, Note_on_c, 13, 71, 84
15, 119279, Note_on_c, 13, 71, 0
15, 119280, Note_on_c, 13, 73, 84
15, 119489, Note_on_c, 13, 73, 0
15, 119520, Note_on_c, 13, 74, 84
15, 119759, Note_on_c, 13, 74, 0
15, 120000, Note_on_c, 13, 69, 84
15, 120179, Note_on_c, 13, 69, 0
15, 120240, Note_on_c, 13, 62, 84
15, 120419, Note_on_c, 13, 62, 0
15, 132480, Note_on_c, 13, 54, 76
15, 133169, Note_on_c, 13, 54, 0
15, 133200, Note_on_c, 13, 54, 84
15, 133889, Note_on_c, 13, 54, 0
15, 133920, Note_on_c, 13, 54, 76
15, 134039, Note_on_c, 13, 54, 0
15, 134040, Note_on_c, 13, 53, 76
15, 134129, Note_on_c, 13, 53, 0
15, 134160, Note_on_c, 13, 54, 76
15, 134279, Note_on_c, 13, 54, 0
15, 134280, Note_on_c, 13, 53, 76
15, 134369, Note_on_c, 13, 53, 0
15, 134400, Note_on_c, 13, 54, 76
15, 134519, Note_on_c, 13, 54, 0
15, 134520, Note_on_c, 13, 53, 76
15, 134609, Note_on_c, 13, 53, 0
15, 134640, Note_on_c, 13, 54, 76
15, 134759, Note_on_c, 13, 54, 0
15, 134760, Note_on_c, 13, 53, 76
15, 134849, Note_on_c, 13, 53, 0
15, 134880, Note_on_c, 13, 54, 76
15, 134999, Note_on_c, 13, 54, 0
15, 135000, Note_on_c, 13, 53, 76
15, 135089, Note_on_c, 13, 53, 0
15, 135120, Note_on_c, 13, 54, 76
15, 135239, Note_on_c, 13, 54, 0
15, 135240, Note_on_c, 13, 53, 76
15, 135329, Note_on_c, 13, 53, 0
15, 135360, Note_on_c, 13, 54, 76
15, 135539, Note_on_c, 13, 54, 0
15, 135600, Note_on_c, 13, 58, 76
15, 135779, Note_on_c, 13, 58, 0
15, 135840, Note_on_c, 13, 61, 76
15, 136019, Note_on_c, 13, 61, 0
15, 136080, Note_on_c, 13, 66, 84
15, 136259, Note_on_c, 13, 66, 0
15, 136320, Note_on_c, 13, 61, 76
15, 136499, Note_on_c, 13, 61, 0
15, 136560, Note_on_c, 13, 58, 76
15, 136739, Note_on_c, 13, 58, 0
15, 136800, Note_on_c, 13, 54, 76
15, 136979, Note_on_c, 13, 54, 0
15, 137040, Note_on_c, 13, 58, 76
15, 137219, Note_on_c, 13, 58, 0
15, 137280, Note_on_c, 13, 61, 76
15, 137459, Note_on_c, 13, 61, 0
15, 137520, Note_on_c, 13, 66, 84
15, 137699, Note_on_c, 13, 66, 0
15, 137760, Note_on_c, 13, 61, 76
15, 137939, Note_on_c, 13, 61, 0
15, 138000, Note_on_c, 13, 58, 76
15, 138179, Note_on_c, 13, 58, 0
15, 138240, Note_on_c, 13, 54, 52
15, 138329, Note_on_c, 13, 54, 0
15, 138360, Note_on_c, 13, 54, 52
15, 138449, Note_on_c, 13, 54, 0
15, 138480, Note_on_c, 13, 54, 52
15, 138569, Note_on_c, 13, 54, 0
15, 138600, Note_on_c, 13, 54, 51
15, 138689, Note_on_c, 13, 54, 0
15, 138720, Note_on_c, 13, 54, 51
15, 138809, Note_on_c, 13, 54, 0
15, 138840, Note_on_c, 13, 54, 51
15, 138929, Note_on_c, 13, 54, 0
15, 138960, Note_on_c, 13, 54, 50
15, 139049, Note_on_c, 13, 54, 0
15, 139080, Note_on_c, 13, 54, 50
15, 139169, Note_on_c, 13, 54, 0
15, 139200, Note_on_c, 13, 54, 50
15, 139289, Note_on_c, 13, 54, 0
15, 139320, Note_on_c, 13, 54, 49
15, 139409, Note_on_c, 13, 54, 0
15, 139440, Note_on_c, 13, 54, 49
15, 139529, Note_on_c, 13, 54, 0
15, 139560, Note_on_c, 13, 54, 49
15, 139649, Note_on_c, 13, 54, 0
15, 139680, Note_on_c, 13, 54, 48
15, 139769, Note_on_c, 13, 54, 0
15, 139800, Note_on_c, 13, 54, 48
15, 139889, Note_on_c, 13, 54, 0
15, 139920, Note_on_c, 13, 54, 48
15, 140009, Note_on_c, 13, 54, 0
15, 140040, Note_on_c, 13, 54, 47
15, 140129, Note_on_c, 13, 54, 0
15, 140160, Note_on_c, 13, 54, 47
15, 140249, Note_on_c, 13, 54, 0
15, 140280, Note_on_c, 13, 54, 47
15, 140369, Note_on_c, 13, 54, 0
15, 140400, Note_on_c, 13, 54, 46
15, 140489, Note_on_c, 13, 54, 0
15, 140520, Note_on_c, 13, 54, 46
15, 140609, Note_on_c, 13, 54, 0
15, 140640, Note_on_c, 13, 54, 46
15, 140729, Note_on_c, 13, 54, 0
15, 140760, Note_on_c, 13, 54, 45
15, 140849, Note_on_c, 13, 54, 0
15, 140880, Note_on_c, 13, 54, 45
15, 140969, Note_on_c, 13, 54, 0
15, 141000, Note_on_c, 13, 54, 45
15, 141089, Note_on_c, 13, 54, 0
15, 141120, Note_on_c, 13, 54, 44
15, 142559, Note_on_c, 13, 54, 0
15, 143760, Note_on_c, 13, 57, 84
15, 143999, Note_on_c, 13, 57, 0
15, 144000, Note_on_c, 13, 62, 52
15, 144239, Note_on_c, 13, 62, 0
15, 149520, Program_c, 13, 45
15, 149760, Note_on_c, 13, 50, 52
15, 149999, Note_on_c, 13, 50, 0
15, 150000, Note_on_c, 13, 62, 52
15, 150239, Note_on_c, 13, 62, 0
15, 150240, Note_on_c, 13, 61, 52
15, 150479, Note_on_c, 13, 61, 0
15, 150480, Note_on_c, 13, 59, 52
15, 150719, Note_on_c, 13, 59, 0
15, 150720, Note_on_c, 13, 57, 52
15, 150959, Note_on_c, 13, 57, 0
15, 150960, Note_on_c, 13, 55, 52
15, 151199, Note_on_c, 13, 55, 0
15, 151200, Note_on_c, 13, 54, 52
15, 151439, Note_on_c, 13, 54, 0
15, 151440, Note_on_c, 13, 52, 52
15, 151679, Note_on_c, 13, 52, 0
15, 151680, Note_on_c, 13, 50, 52
15, 151919, Note_on_c, 13, 50, 0
15, 151920, Note_on_c, 13, 57, 52
15, 152159, Note_on_c, 13, 57, 0
15, 152400, Note_on_c, 13, 54, 52
15, 152639, Note_on_c, 13, 54, 0
15, 152640, Note_on_c, 13, 52, 52
15, 152879, Note_on_c, 13, 52, 0
15, 152880, Note_on_c, 13, 64, 60
15, 153119, Note_on_c, 13, 64, 0
15, 153120, Note_on_c, 13, 62, 68
15, 153359, Note_on_c, 13, 62, 0
15, 153360, Note_on_c, 13, 61, 84
15, 153599, Note_on_c, 13, 61, 0
15, 153600, Note_on_c, 13, 59, 76
15, 153839, Note_on_c, 13, 59, 0
15, 153840, Note_on_c, 13, 57, 76
15, 154079, Note_on_c, 13, 57, 0
15, 154080, Note_on_c, 13, 62, 52
15, 154319, Note_on_c, 13, 62, 0
15, 154320, Note_on_c, 13, 55, 52
15, 154559, Note_on_c, 13, 55, 0
15, 154560, Note_on_c, 13, 57, 52
15, 154799, Note_on_c, 13, 57, 0
15, 154800, Note_on_c, 13, 50, 52
15, 155039, Note_on_c, 13, 50, 0
15, 155280, Note_on_c, 13, 57, 52
15, 155519, Note_on_c, 13, 57, 0
15, 155520, Note_on_c, 13, 62, 52
15, 155759, Note_on_c, 13, 62, 0
15, 155760, Note_on_c, 13, 55, 52
15, 155999, Note_on_c, 13, 55, 0
15, 156000, Note_on_c, 13, 57, 52
15, 156239, Note_on_c, 13, 57, 0
15, 156240, Note_on_c, 13, 50, 52
15, 156479, Note_on_c, 13, 50, 0
15, 156720, Note_on_c, 13, 57, 60
15, 156959, Note_on_c, 13, 57, 0
15, 156960, Note_on_c, 13, 62, 64
15, 157199, Note_on_c, 13, 62, 0
15, 157440, Note_on_c, 13, 57, 72
15, 157679, Note_on_c, 13, 57, 0
15, 157680, Note_on_c, 13, 62, 76
15, 157919, Note_on_c, 13, 62, 0
15, 158160, Note_on_c, 13, 57, 52
15, 158399, Note_on_c, 13, 57, 0
15, 158400, Note_on_c, 13, 62, 52
15, 158639, Note_on_c, 13, 62, 0
15, 158640, Note_on_c, 13, 55, 52
15, 158879, Note_on_c, 13, 55, 0
15, 158880, Note_on_c, 13, 57, 52
15, 159119, Note_on_c, 13, 57, 0
15, 159120, Note_on_c, 13, 50, 52
15, 159359, Note_on_c, 13, 50, 0
15, 159600, Program_c, 13, 48
15, 159840, Note_on_c, 13, 54, 76
15, 160529, Note_on_c, 13, 54, 0
15, 160560, Note_on_c, 13, 54, 84
15, 161249, Note_on_c, 13, 54, 0
15, 161280, Note_on_c, 13, 54, 76
15, 161399, Note_on_c, 13, 54, 0
15, 161400, Note_on_c, 13, 53, 76
15, 161489, Note_on_c, 13, 53, 0
15, 161520, Note_on_c, 13, 54, 76
15, 161639, Note_on_c, 13, 54, 0
15, 161640, Note_on_c, 13, 53, 76
15, 161729, Note_on_c, 13, 53, 0
15, 161760, Note_on_c, 13, 54, 76
15, 161879, Note_on_c, 13, 54, 0
15, 161880, Note_on_c, 13, 53, 76
15, 161969, Note_on_c, 13, 53, 0
15, 162000, Note_on_c, 13, 54, 76
15, 162119, Note_on_c, 13, 54, 0
15, 162120, Note_on_c, 13, 53, 76
15, 162209, Note_on_c, 13, 53, 0
15, 162240, Note_on_c, 13, 54, 76
15, 162359, Note_on_c, 13, 54, 0
15, 162360, Note_on_c, 13, 53, 76
15, 162449, Note_on_c, 13, 53, 0
15, 162480, Note_on_c, 13, 54, 76
15, 162599, Note_on_c, 13, 54, 0
15, 162600, Note_on_c, 13, 53, 76
15, 162689, Note_on_c, 13, 53, 0
15, 162720, Note_on_c, 13, 54, 76
15, 162899, Note_on_c, 13, 54, 0
15, 162960, Note_on_c, 13, 58, 76
15, 163139, Note_on_c, 13, 58, 0
15, 163200, Note_on_c, 13, 61, 76
15, 163379, Note_on_c, 13, 61, 0
15, 163440, Note_on_c, 13, 66, 84
15, 163619, Note_on_c, 13, 66, 0
15, 163680, Note_on_c, 13, 61, 76
15, 163859, Note_on_c, 13, 61, 0
15, 163920, Note_on_c, 13, 58, 76
15, 164099, Note_on_c, 13, 58, 0
15, 164160, Note_on_c, 13, 54, 76
15, 164339, Note_on_c, 13, 54, 0
15, 164400, Note_on_c, 13, 58, 76
15, 164579, Note_on_c, 13, 58, 0
15, 164640, Note_on_c, 13, 61, 76
15, 164819, Note_on_c, 13, 61, 0
15, 164880, Note_on_c, 13, 66, 84
15, 165059, Note_on_c, 13, 66, 0
15, 165120, Note_on_c, 13, 61, 76
15, 165299, Note_on_c, 13, 61, 0
15, 165360, Note_on_c, 13, 58, 76
15, 165539, Note_on_c, 13, 58, 0
15, 165600, Note_on_c, 13, 54, 52
15, 165689, Note_on_c, 13, 54, 0
15, 165720, Note_on_c, 13, 54, 52
15, 165809, Note_on_c, 13, 54, 0
15, 165840, Note_on_c, 13, 54, 52
15, 165929, Note_on_c, 13, 54, 0
15, 165960, Note_on_c, 13, 54, 51
15, 166049, Note_on_c, 13, 54, 0
15, 166080, Note_on_c, 13, 54, 51
15, 166169, Note_on_c, 13, 54, 0
15, 166200, Note_on_c, 13, 54, 51
15, 166289, Note_on_c, 13, 54, 0
15, 166320, Note_on_c, 13, 54, 50
15, 166409, Note_on_c, 13, 54, 0
15, 166440, Note_on_c, 13, 54, 50
15, 166529, Note_on_c, 13, 54, 0
15, 166560, Note_on_c, 13, 54, 50
15, 166649, Note_on_c, 13, 54, 0
15, 166680, Note_on_c, 13, 54, 49
15, 166769, Note_on_c, 13, 54, 0
15, 166800, Note_on_c, 13, 54, 49
15, 166889, Note_on_c, 13, 54, 0
15, 166920, Note_on_c, 13, 54, 49
15, 167009, Note_on_c, 13, 54, 0
15, 167040, Note_on_c, 13, 54, 48
15, 167129, Note_on_c, 13, 54, 0
15, 167160, Note_on_c, 13, 54, 48
15, 167249, Note_on_c, 13, 54, 0
15, 167280, Note_on_c, 13, 54, 48
15, 167369, Note_on_c, 13, 54, 0
15, 167400, Note_on_c, 13, 54, 47
15, 167489, Note_on_c, 13, 54, 0
15, 167520, Note_on_c, 13, 54, 47
15, 167609, Note_on_c, 13, 54, 0
15, 167640, Note_on_c, 13, 54, 47
15, 167729, Note_on_c, 13, 54, 0
15, 167760, Note_on_c, 13, 54, 46
15, 167849, Note_on_c, 13, 54, 0
15, 167880, Note_on_c, 13, 54, 46
15, 167969, Note_on_c, 13, 54, 0
15, 168000, Note_on_c, 13, 54, 46
15, 168089, Note_on_c, 13, 54, 0
15, 168120, Note_on_c, 13, 54, 45
15, 168209, Note_on_c, 13, 54, 0
15, 168240, Note_on_c, 13, 54, 45
15, 168329, Note_on_c, 13, 54, 0
15, 168360, Note_on_c, 13, 54, 45
15, 168449, Note_on_c, 13, 54, 0
15, 168480, Note_on_c, 13, 54, 44
15, 169919, Note_on_c, 13, 54, 0
15, 171120, Note_on_c, 13, 57, 84
15, 171359, Note_on_c, 13, 57, 0
15, 171360, Note_on_c, 13, 62, 52
15, 171599, Note_on_c, 13, 62, 0
15, 176880, Program_c, 13, 45
15, 177120, Note_on_c, 13, 50, 52
15, 177359, Note_on_c, 13, 50, 0
15, 177360, Note_on_c, 13, 62, 52
15, 177599, Note_on_c, 13, 62, 0
15, 177600, Note_on_c, 13, 61, 52
15, 177839, Note_on_c, 13, 61, 0
15, 177840, Note_on_c, 13, 59, 52
15, 178079, Note_on_c, 13, 59, 0
15, 178080, Note_on_c, 13, 57, 52
15, 178319, Note_on_c, 13, 57, 0
15, 178320, Note_on_c, 13, 55, 52
15, 178559, Note_on_c, 13, 55, 0
15, 178560, Note_on_c, 13, 54, 52
15, 178799, Note_on_c, 13, 54, 0
15, 178800, Note_on_c, 13, 52, 52
15, 179039, Note_on_c, 13, 52, 0
15, 179040, Note_on_c, 13, 50, 52
15, 179279, Note_on_c, 13, 50, 0
15, 179280, Note_on_c, 13, 57, 52
15, 179519, Note_on_c, 13, 57, 0
15, 179760, Note_on_c, 13, 54, 52
15, 179999, Note_on_c, 13, 54, 0
15, 180000, Note_on_c, 13, 52, 52
15, 180239, Note_on_c, 13, 52, 0
15, 180240, Note_on_c, 13, 64, 60
15, 180479, Note_on_c, 13, 64, 0
15, 180480, Note_on_c, 13, 62, 68
15, 180719, Note_on_c, 13, 62, 0
15, 180720, Note_on_c, 13, 61, 84
15, 180959, Note_on_c, 13, 61, 0
15, 180960, Note_on_c, 13, 59, 76
15, 181199, Note_on_c, 13, 59, 0
15, 181200, Note_on_c, 13, 57, 76
15, 181439, Note_on_c, 13, 57, 0
15, 181440, Note_on_c, 13, 62, 52
15, 181679, Note_on_c, 13, 62, 0
15, 181680, Note_on_c, 13, 55, 52
15, 181919, Note_on_c, 13, 55, 0
15, 181920, Note_on_c, 13, 57, 52
15, 182159, Note_on_c, 13, 57, 0
15, 182160, Note_on_c, 13, 50, 52
15, 182399, Note_on_c, 13, 50, 0
15, 182640, Note_on_c, 13, 57, 52
15, 182879, Note_on_c, 13, 57, 0
15, 182880, Note_on_c, 13, 62, 52
15, 183119, Note_on_c, 13, 62, 0
15, 183120, Note_on_c, 13, 55, 52
15, 183359, Note_on_c, 13, 55, 0
15, 183360, Note_on_c, 13, 57, 52
15, 183599, Note_on_c, 13, 57, 0
15, 183600, Note_on_c, 13, 50, 52
15, 183839, Note_on_c, 13, 50, 0
15, 184080, Note_on_c, 13, 57, 60
15, 184319, Note_on_c, 13, 57, 0
15, 184320, Note_on_c, 13, 62, 64
15, 184559, Note_on_c, 13, 62, 0
15, 184800, Note_on_c, 13, 57, 72
15, 185039, Note_on_c, 13, 57, 0
15, 185040, Note_on_c, 13, 62, 76
15, 185279, Note_on_c, 13, 62, 0
15, 185520, Note_on_c, 13, 57, 52
15, 185759, Note_on_c, 13, 57, 0
15, 185760, Note_on_c, 13, 62, 52
15, 185999, Note_on_c, 13, 62, 0
15, 186000, Note_on_c, 13, 55, 52
15, 186239, Note_on_c, 13, 55, 0
15, 186240, Note_on_c, 13, 57, 52
15, 186479, Note_on_c, 13, 57, 0
15, 186480, Note_on_c, 13, 50, 52
15, 186719, Note_on_c, 13, 50, 0
15, 186960, Program_c, 13, 48
15, 187200, Note_on_c, 13, 62, 76
15, 187379, Note_on_c, 13, 62, 0
15, 187440, Note_on_c, 13, 64, 76
15, 187619, Note_on_c, 13, 64, 0
15, 187680, Note_on_c, 13, 66, 76
15, 187859, Note_on_c, 13, 66, 0
15, 188640, Note_on_c, 13, 55, 76
15, 188819, Note_on_c, 13, 55, 0
15, 188880, Note_on_c, 13, 57, 76
15, 189059, Note_on_c, 13, 57, 0
15, 189120, Note_on_c, 13, 59, 76
15, 189299, Note_on_c, 13, 59, 0
15, 192240, Note_on_c, 13, 62, 84
15, 192419, Note_on_c, 13, 62, 0
15, 192480, Note_on_c, 13, 57, 84
15, 192659, Note_on_c, 13, 57, 0
15, 192720, Note_on_c, 13, 62, 84
15, 192899, Note_on_c, 13, 62, 0
15, 192960, Note_on_c, 13, 62, 76
15, 193139, Note_on_c, 13, 62, 0
15, 193200, Note_on_c, 13, 64, 76
15, 193379, Note_on_c, 13, 64, 0
15, 193440, Note_on_c, 13, 66, 76
15, 193619, Note_on_c, 13, 66, 0
15, 194400, Note_on_c, 13, 56, 76
15, 194579, Note_on_c, 13, 56, 0
15, 194640, Note_on_c, 13, 57, 76
15, 194819, Note_on_c, 13, 57, 0
15, 194880, Note_on_c, 13, 59, 76
15, 195059, Note_on_c, 13, 59, 0
15, 195840, Note_on_c, 13, 57, 52
15, 196019, Note_on_c, 13, 57, 0
15, 196080, Note_on_c, 13, 59, 52
15, 196259, Note_on_c, 13, 59, 0
15, 196320, Note_on_c, 13, 61, 52
15, 196499, Note_on_c, 13, 61, 0
15, 198000, Note_on_c, 13, 69, 84
15, 198179, Note_on_c, 13, 69, 0
15, 198240, Note_on_c, 13, 64, 84
15, 198419, Note_on_c, 13, 64, 0
15, 198480, Note_on_c, 13, 69, 84
15, 198659, Note_on_c, 13, 69, 0
15, 198720, Note_on_c, 13, 62, 76
15, 198899, Note_on_c, 13, 62, 0
15, 198960, Note_on_c, 13, 64, 76
15, 199139, Note_on_c, 13, 64, 0
15, 199200, Note_on_c, 13, 66, 76
15, 199379, Note_on_c, 13, 66, 0
15, 200160, Note_on_c, 13, 55, 76
15, 200339, Note_on_c, 13, 55, 0
15, 200400, Note_on_c, 13, 57, 76
15, 200579, Note_on_c, 13, 57, 0
15, 200640, Note_on_c, 13, 59, 76
15, 200819, Note_on_c, 13, 59, 0
15, 203760, Note_on_c, 13, 62, 84
15, 203939, Note_on_c, 13, 62, 0
15, 204000, Note_on_c, 13, 57, 84
15, 204179, Note_on_c, 13, 57, 0
15, 204240, Note_on_c, 13, 62, 84
15, 204419, Note_on_c, 13, 62, 0
15, 204480, Note_on_c, 13, 62, 76
15, 204659, Note_on_c, 13, 62, 0
15, 204720, Note_on_c, 13, 64, 76
15, 204899, Note_on_c, 13, 64, 0
15, 204960, Note_on_c, 13, 66, 76
15, 205139, Note_on_c, 13, 66, 0
15, 205920, Note_on_c, 13, 56, 76
15, 206099, Note_on_c, 13, 56, 0
15, 206160, Note_on_c, 13, 57, 76
15, 206339, Note_on_c, 13, 57, 0
15, 206400, Note_on_c, 13, 59, 76
15, 206579, Note_on_c, 13, 59, 0
15, 207360, Note_on_c, 13, 57, 52
15, 207539, Note_on_c, 13, 57, 0
15, 207600, Note_on_c, 13, 59, 52
15, 207779, Note_on_c, 13, 59, 0
15, 207840, Note_on_c, 13, 61, 52
15, 208019, Note_on_c, 13, 61, 0
15, 209520, Note_on_c, 13, 69, 84
15, 209699, Note_on_c, 13, 69, 0
15, 209760, Note_on_c, 13, 64, 84
15, 209939, Note_on_c, 13, 64, 0
15, 210000, Note_on_c, 13, 69, 84
15, 210179, Note_on_c, 13, 69, 0
15, 210240, Note_on_c, 13, 57, 52
15, 210419, Note_on_c, 13, 57, 0
15, 210480, Note_on_c, 13, 59, 52
15, 210659, Note_on_c, 13, 59, 0
15, 210720, Note_on_c, 13, 61, 52
15, 210899, Note_on_c, 13, 61, 0
15, 210960, Note_on_c, 13, 62, 52
15, 211199, Note_on_c, 13, 62, 0
15, 211680, Note_on_c, 13, 53, 52
15, 211859, Note_on_c, 13, 53, 0
15, 211920, Note_on_c, 13, 55, 52
15, 212099, Note_on_c, 13, 55, 0
15, 212160, Note_on_c, 13, 57, 52
15, 212339, Note_on_c, 13, 57, 0
15, 212400, Note_on_c, 13, 58, 52
15, 212639, Note_on_c, 13, 58, 0
15, 213120, Note_on_c, 13, 53, 52
15, 213299, Note_on_c, 13, 53, 0
15, 213360, Note_on_c, 13, 53, 76
15, 213480, Control_c, 13, 11, 80
15, 214769, Note_on_c, 13, 53, 0
15, 214800, Note_on_c, 13, 53, 76
15, 215009, Note_on_c, 13, 53, 0
15, 215040, Note_on_c, 13, 53, 76
15, 215249, Note_on_c, 13, 53, 0
15, 215280, Note_on_c, 13, 53, 76
15, 215489, Note_on_c, 13, 53, 0
15, 215520, Note_on_c, 13, 53, 76
15, 215729, Note_on_c, 13, 53, 0
15, 215760, Note_on_c, 13, 53, 76
15, 215969, Note_on_c, 13, 53, 0
15, 216000, Note_on_c, 13, 53, 76
15, 216179, Note_on_c, 13, 53, 0
15, 216240, Note_on_c, 13, 53, 76
15, 216240, Control_c, 13, 11, 127
15, 216360, Control_c, 13, 11, 80
15, 217649, Note_on_c, 13, 53, 0
15, 217680, Note_on_c, 13, 53, 76
15, 217889, Note_on_c, 13, 53, 0
15, 217920, Note_on_c, 13, 53, 76
15, 218129, Note_on_c, 13, 53, 0
15, 218160, Note_on_c, 13, 53, 76
15, 218369, Note_on_c, 13, 53, 0
15, 218400, Note_on_c, 13, 53, 76
15, 218609, Note_on_c, 13, 53, 0
15, 218640, Note_on_c, 13, 53, 76
15, 218849, Note_on_c, 13, 53, 0
15, 218880, Note_on_c, 13, 53, 76
15, 219059, Note_on_c, 13, 53, 0
15, 219120, Note_on_c, 13, 58, 76
15, 219359, Note_on_c, 13, 58, 0
15, 219360, Note_on_c, 13, 62, 76
15, 219599, Note_on_c, 13, 62, 0
15, 219825, Control_c, 13, 11, 127
15, 219840, Note_on_c, 13, 57, 52
15, 220079, Note_on_c, 13, 57, 0
15, 220080, Note_on_c, 13, 62, 52
15, 220319, Note_on_c, 13, 62, 0
15, 220560, Note_on_c, 13, 59, 52
15, 220799, Note_on_c, 13, 59, 0
15, 220800, Note_on_c, 13, 62, 52
15, 221009, Note_on_c, 13, 62, 0
15, 221040, Note_on_c, 13, 59, 52
15, 221040, Note_on_c, 13, 56, 52
15, 221219, Note_on_c, 13, 59, 0
15, 221219, Note_on_c, 13, 56, 0
15, 221280, Note_on_c, 13, 56, 52
15, 221280, Note_on_c, 13, 59, 52
15, 221459, Note_on_c, 13, 56, 0
15, 221459, Note_on_c, 13, 59, 0
15, 221520, Note_on_c, 13, 56, 52
15, 221520, Note_on_c, 13, 59, 52
15, 221699, Note_on_c, 13, 56, 0
15, 221699, Note_on_c, 13, 59, 0
15, 221760, Note_on_c, 13, 61, 44
15, 221760, Note_on_c, 13, 57, 44
15, 221999, Note_on_c, 13, 61, 0
15, 221999, Note_on_c, 13, 57, 0
15, 222240, Note_on_c, 13, 49, 44
15, 222479, Note_on_c, 13, 49, 0
15, 222480, Note_on_c, 13, 50, 44
15, 222719, Note_on_c, 13, 50, 0
15, 222720, Note_on_c, 13, 53, 44
15, 222959, Note_on_c, 13, 53, 0
15, 222960, Note_on_c, 13, 56, 44
15, 223169, Note_on_c, 13, 56, 0
15, 223200, Note_on_c, 13, 57, 44
15, 223379, Note_on_c, 13, 57, 0
15, 223440, Control_c, 13, 11, 64
15, 223680, Note_on_c, 13, 49, 76
15, 223880, Control_c, 13, 11, 69
15, 223919, Note_on_c, 13, 49, 0
15, 223920, Note_on_c, 13, 50, 76
15, 224080, Control_c, 13, 11, 75
15, 224159, Note_on_c, 13, 50, 0
15, 224160, Note_on_c, 13, 53, 76
15, 224280, Control_c, 13, 11, 80
15, 224399, Note_on_c, 13, 53, 0
15, 224400, Note_on_c, 13, 56, 76
15, 224480, Control_c, 13, 11, 85
15, 224609, Note_on_c, 13, 56, 0
15, 224640, Note_on_c, 13, 57, 76
15, 224680, Control_c, 13, 11, 90
15, 224819, Note_on_c, 13, 57, 0
15, 225880, Control_c, 13, 11, 127
15, 226080, Note_on_c, 13, 62, 76
15, 226259, Note_on_c, 13, 62, 0
15, 226320, Note_on_c, 13, 64, 76
15, 226499, Note_on_c, 13, 64, 0
15, 226560, Note_on_c, 13, 66, 76
15, 226739, Note_on_c, 13, 66, 0
15, 227520, Note_on_c, 13, 55, 76
15, 227699, Note_on_c, 13, 55, 0
15, 227760, Note_on_c, 13, 57, 76
15, 227939, Note_on_c, 13, 57, 0
15, 228000, Note_on_c, 13, 59, 76
15, 228179, Note_on_c, 13, 59, 0
15, 231120, Note_on_c, 13, 62, 84
15, 231299, Note_on_c, 13, 62, 0
15, 231360, Note_on_c, 13, 57, 84
15, 231539, Note_on_c, 13, 57, 0
15, 231600, Note_on_c, 13, 62, 84
15, 231779, Note_on_c, 13, 62, 0
15, 231840, Note_on_c, 13, 62, 76
15, 232019, Note_on_c, 13, 62, 0
15, 232080, Note_on_c, 13, 64, 76
15, 232259, Note_on_c, 13, 64, 0
15, 232320, Note_on_c, 13, 66, 76
15, 232499, Note_on_c, 13, 66, 0
15, 233280, Note_on_c, 13, 55, 76
15, 233459, Note_on_c, 13, 55, 0
15, 233520, Note_on_c, 13, 57, 76
15, 233699, Note_on_c, 13, 57, 0
15, 233760, Note_on_c, 13, 59, 76
15, 233939, Note_on_c, 13, 59, 0
15, 240480, Note_on_c, 13, 60, 44
15, 240719, Note_on_c, 13, 60, 0
15, 241200, Note_on_c, 13, 53, 44
15, 241439, Note_on_c, 13, 53, 0
15, 241920, Note_on_c, 13, 57, 44
15, 242159, Note_on_c, 13, 57, 0
15, 242640, Note_on_c, 13, 50, 44
15, 242879, Note_on_c, 13, 50, 0
15, 243120, Control_c, 13, 11, 64
15, 243360, Note_on_c, 13, 50, 76
15, 243480, Control_c, 13, 11, 69
15, 243599, Note_on_c, 13, 50, 0
15, 243600, Note_on_c, 13, 52, 76
15, 243600, Control_c, 13, 11, 75
15, 243720, Control_c, 13, 11, 80
15, 243839, Note_on_c, 13, 52, 0
15, 243840, Control_c, 13, 11, 85
15, 243840, Note_on_c, 13, 53, 76
15, 243960, Control_c, 13, 11, 90
15, 244079, Note_on_c, 13, 53, 0
15, 244080, Control_c, 13, 11, 96
15, 244080, Note_on_c, 13, 54, 76
15, 244200, Control_c, 13, 11, 101
15, 244319, Note_on_c, 13, 54, 0
15, 244320, Control_c, 13, 11, 106
15, 244320, Note_on_c, 13, 55, 76
15, 244440, Control_c, 13, 11, 111
15, 244559, Note_on_c, 13, 55, 0
15, 244560, Note_on_c, 13, 56, 76
15, 244560, Control_c, 13, 11, 117
15, 244680, Control_c, 13, 11, 122
15, 244769, Note_on_c, 13, 56, 0
15, 244800, Control_c, 13, 11, 127
15, 244800, Note_on_c, 13, 57, 76
15, 245009, Note_on_c, 13, 57, 0
15, 245040, Note_on_c, 13, 69, 76
15, 245249, Note_on_c, 13, 69, 0
15, 245280, Note_on_c, 13, 69, 76
15, 245489, Note_on_c, 13, 69, 0
15, 245520, Note_on_c, 13, 62, 76
15, 245759, Note_on_c, 13, 62, 0
15, 246240, Note_on_c, 13, 64, 44
15, 246419, Note_on_c, 13, 64, 0
15, 246480, Note_on_c, 13, 65, 44
15, 246659, Note_on_c, 13, 65, 0
15, 246720, Note_on_c, 13, 67, 44
15, 246899, Note_on_c, 13, 67, 0
15, 246960, Note_on_c, 13, 65, 44
15, 247199, Note_on_c, 13, 65, 0
15, 247680, Note_on_c, 13, 61, 44
15, 247859, Note_on_c, 13, 61, 0
15, 247920, Note_on_c, 13, 62, 44
15, 248099, Note_on_c, 13, 62, 0
15, 248160, Note_on_c, 13, 64, 44
15, 248339, Note_on_c, 13, 64, 0
15, 248400, Note_on_c, 13, 62, 44
15, 248639, Note_on_c, 13, 62, 0
15, 248880, Control_c, 13, 11, 64
15, 249120, Note_on_c, 13, 50, 76
15, 249240, Control_c, 13, 11, 69
15, 249359, Note_on_c, 13, 50, 0
15, 249360, Note_on_c, 13, 52, 76
15, 249360, Control_c, 13, 11, 75
15, 249480, Control_c, 13, 11, 80
15, 249599, Note_on_c, 13, 52, 0
15, 249600, Note_on_c, 13, 53, 76
15, 249600, Control_c, 13, 11, 85
15, 249720, Control_c, 13, 11, 90
15, 249839, Note_on_c, 13, 53, 0
15, 249840, Note_on_c, 13, 54, 76
15, 249840, Control_c, 13, 11, 96
15, 249960, Control_c, 13, 11, 101
15, 250079, Note_on_c, 13, 54, 0
15, 250080, Note_on_c, 13, 55, 76
15, 250080, Control_c, 13, 11, 106
15, 250200, Control_c, 13, 11, 111
15, 250319, Note_on_c, 13, 55, 0
15, 250320, Control_c, 13, 11, 117
15, 250320, Note_on_c, 13, 56, 76
15, 250440, Control_c, 13, 11, 122
15, 250529, Note_on_c, 13, 56, 0
15, 250560, Control_c, 13, 11, 127
15, 250560, Note_on_c, 13, 57, 76
15, 250769, Note_on_c, 13, 57, 0
15, 250800, Note_on_c, 13, 69, 76
15, 251009, Note_on_c, 13, 69, 0
15, 251040, Note_on_c, 13, 69, 76
15, 251249, Note_on_c, 13, 69, 0
15, 251280, Note_on_c, 13, 62, 76
15, 251519, Note_on_c, 13, 62, 0
15, 251760, Control_c, 13, 11, 80
15, 252000, Note_on_c, 13, 50, 76
15, 252120, Control_c, 13, 11, 84
15, 252239, Note_on_c, 13, 50, 0
15, 252240, Control_c, 13, 11, 88
15, 252240, Note_on_c, 13, 52, 76
15, 252360, Control_c, 13, 11, 92
15, 252479, Note_on_c, 13, 52, 0
15, 252480, Control_c, 13, 11, 96
15, 252480, Note_on_c, 13, 53, 76
15, 252600, Control_c, 13, 11, 100
15, 252719, Note_on_c, 13, 53, 0
15, 252720, Control_c, 13, 11, 104
15, 252720, Note_on_c, 13, 54, 76
15, 252840, Control_c, 13, 11, 107
15, 252959, Note_on_c, 13, 54, 0
15, 252960, Control_c, 13, 11, 111
15, 252960, Note_on_c, 13, 55, 76
15, 253080, Control_c, 13, 11, 115
15, 253199, Note_on_c, 13, 55, 0
15, 253200, Note_on_c, 13, 56, 76
15, 253200, Control_c, 13, 11, 119
15, 253320, Control_c, 13, 11, 123
15, 253409, Note_on_c, 13, 56, 0
15, 253440, Control_c, 13, 11, 127
15, 253440, Note_on_c, 13, 57, 84
15, 253619, Note_on_c, 13, 57, 0
15, 253680, Note_on_c, 13, 69, 76
15, 253889, Note_on_c, 13, 69, 0
15, 253920, Note_on_c, 13, 69, 76
15, 254129, Note_on_c, 13, 69, 0
15, 254160, Note_on_c, 13, 74, 76
15, 254399, Note_on_c, 13, 74, 0
15, 254880, Note_on_c, 13, 57, 84
15, 255059, Note_on_c, 13, 57, 0
15, 255120, Note_on_c, 13, 69, 76
15, 255329, Note_on_c, 13, 69, 0
15, 255360, Note_on_c, 13, 69, 76
15, 255569, Note_on_c, 13, 69, 0
15, 255600, Note_on_c, 13, 74, 76
15, 255839, Note_on_c, 13, 74, 0
15, 256320, Note_on_c, 13, 57, 84
15, 256559, Note_on_c, 13, 57, 0
15, 256560, Note_on_c, 13, 61, 84
15, 256799, Note_on_c, 13, 61, 0
15, 256800, Note_on_c, 13, 64, 84
15, 257039, Note_on_c, 13, 64, 0
15, 257040, Note_on_c, 13, 69, 84
15, 257279, Note_on_c, 13, 69, 0
15, 257280, Note_on_c, 13, 71, 84
15, 257519, Note_on_c, 13, 71, 0
15, 257520, Note_on_c, 13, 73, 84
15, 257729, Note_on_c, 13, 73, 0
15, 257760, Note_on_c, 13, 74, 84
15, 257999, Note_on_c, 13, 74, 0
15, 258240, Note_on_c, 13, 69, 84
15, 258419, Note_on_c, 13, 69, 0
15, 258480, Note_on_c, 13, 62, 84
15, 258659, Note_on_c, 13, 62, 0
15, 259200, Note_on_c, 13, 57, 52
15, 259379, Note_on_c, 13, 57, 0
15, 259440, Note_on_c, 13, 59, 52
15, 259619, Note_on_c, 13, 59, 0
15, 259680, Note_on_c, 13, 61, 52
15, 259859, Note_on_c, 13, 61, 0
15, 259920, Note_on_c, 13, 62, 52
15, 260159, Note_on_c, 13, 62, 0
15, 260640, Note_on_c, 13, 53, 52
15, 260819, Note_on_c, 13, 53, 0
15, 260880, Note_on_c, 13, 55, 52
15, 261059, Note_on_c, 13, 55, 0
15, 261120, Note_on_c, 13, 57, 52
15, 261299, Note_on_c, 13, 57, 0
15, 261360, Note_on_c, 13, 58, 52
15, 261599, Note_on_c, 13, 58, 0
15, 262080, Note_on_c, 13, 53, 52
15, 262259, Note_on_c, 13, 53, 0
15, 262320, Note_on_c, 13, 53, 76
15, 262440, Control_c, 13, 11, 80
15, 263729, Note_on_c, 13, 53, 0
15, 263760, Note_on_c, 13, 53, 76
15, 263969, Note_on_c, 13, 53, 0
15, 264000, Note_on_c, 13, 53, 76
15, 264209, Note_on_c, 13, 53, 0
15, 264240, Note_on_c, 13, 53, 76
15, 264449, Note_on_c, 13, 53, 0
15, 264480, Note_on_c, 13, 53, 76
15, 264689, Note_on_c, 13, 53, 0
15, 264720, Note_on_c, 13, 53, 76
15, 264929, Note_on_c, 13, 53, 0
15, 264960, Note_on_c, 13, 53, 76
15, 265139, Note_on_c, 13, 53, 0
15, 265200, Note_on_c, 13, 53, 76
15, 265200, Control_c, 13, 11, 127
15, 265320, Control_c, 13, 11, 80
15, 266609, Note_on_c, 13, 53, 0
15, 266640, Note_on_c, 13, 53, 76
15, 266849, Note_on_c, 13, 53, 0
15, 266880, Note_on_c, 13, 53, 76
15, 267089, Note_on_c, 13, 53, 0
15, 267120, Note_on_c, 13, 53, 76
15, 267329, Note_on_c, 13, 53, 0
15, 267360, Note_on_c, 13, 53, 76
15, 267569, Note_on_c, 13, 53, 0
15, 267600, Note_on_c, 13, 53, 76
15, 267809, Note_on_c, 13, 53, 0
15, 267840, Note_on_c, 13, 53, 76
15, 268019, Note_on_c, 13, 53, 0
15, 268080, Note_on_c, 13, 58, 76
15, 268319, Note_on_c, 13, 58, 0
15, 268320, Note_on_c, 13, 62, 76
15, 268559, Note_on_c, 13, 62, 0
15, 268785, Control_c, 13, 11, 127
15, 268800, Note_on_c, 13, 57, 52
15, 269039, Note_on_c, 13, 57, 0
15, 269040, Note_on_c, 13, 62, 52
15, 269279, Note_on_c, 13, 62, 0
15, 269520, Note_on_c, 13, 59, 52
15, 269759, Note_on_c, 13, 59, 0
15, 269760, Note_on_c, 13, 62, 52
15, 269969, Note_on_c, 13, 62, 0
15, 270000, Note_on_c, 13, 56, 52
15, 270000, Note_on_c, 13, 59, 52
15, 270179, Note_on_c, 13, 56, 0
15, 270179, Note_on_c, 13, 59, 0
15, 270240, Note_on_c, 13, 59, 52
15, 270240, Note_on_c, 13, 56, 52
15, 270419, Note_on_c, 13, 59, 0
15, 270419, Note_on_c, 13, 56, 0
15, 270480, Note_on_c, 13, 56, 52
15, 270480, Note_on_c, 13, 59, 52
15, 270659, Note_on_c, 13, 56, 0
15, 270659, Note_on_c, 13, 59, 0
15, 270720, Note_on_c, 13, 61, 44
15, 270720, Note_on_c, 13, 57, 44
15, 270959, Note_on_c, 13, 61, 0
15, 270959, Note_on_c, 13, 57, 0
15, 271200, Note_on_c, 13, 49, 44
15, 271439, Note_on_c, 13, 49, 0
15, 271440, Note_on_c, 13, 50, 44
15, 271679, Note_on_c, 13, 50, 0
15, 271680, Note_on_c, 13, 53, 44
15, 271919, Note_on_c, 13, 53, 0
15, 271920, Note_on_c, 13, 56, 44
15, 272129, Note_on_c, 13, 56, 0
15, 272160, Note_on_c, 13, 57, 44
15, 272339, Note_on_c, 13, 57, 0
15, 272400, Control_c, 13, 11, 64
15, 272640, Note_on_c, 13, 49, 76
15, 272840, Control_c, 13, 11, 69
15, 272879, Note_on_c, 13, 49, 0
15, 272880, Note_on_c, 13, 50, 76
15, 273040, Control_c, 13, 11, 75
15, 273119, Note_on_c, 13, 50, 0
15, 273120, Note_on_c, 13, 53, 76
15, 273240, Control_c, 13, 11, 80
15, 273359, Note_on_c, 13, 53, 0
15, 273360, Note_on_c, 13, 56, 76
15, 273440, Control_c, 13, 11, 85
15, 273569, Note_on_c, 13, 56, 0
15, 273600, Note_on_c, 13, 57, 76
15, 273640, Control_c, 13, 11, 90
15, 273779, Note_on_c, 13, 57, 0
15, 274840, Control_c, 13, 11, 127
15, 275040, Note_on_c, 13, 62, 76
15, 275219, Note_on_c, 13, 62, 0
15, 275280, Note_on_c, 13, 64, 76
15, 275459, Note_on_c, 13, 64, 0
15, 275520, Note_on_c, 13, 66, 76
15, 275699, Note_on_c, 13, 66, 0
15, 276480, Note_on_c, 13, 55, 76
15, 276659, Note_on_c, 13, 55, 0
15, 276720, Note_on_c, 13, 57, 76
15, 276899, Note_on_c, 13, 57, 0
15, 276960, Note_on_c, 13, 59, 76
15, 277139, Note_on_c, 13, 59, 0
15, 280080, Note_on_c, 13, 62, 84
15, 280259, Note_on_c, 13, 62, 0
15, 280320, Note_on_c, 13, 57, 84
15, 280499, Note_on_c, 13, 57, 0
15, 280560, Note_on_c, 13, 62, 84
15, 280739, Note_on_c, 13, 62, 0
15, 280800, Note_on_c, 13, 62, 76
15, 280979, Note_on_c, 13, 62, 0
15, 281040, Note_on_c, 13, 64, 76
15, 281219, Note_on_c, 13, 64, 0
15, 281280, Note_on_c, 13, 66, 76
15, 281459, Note_on_c, 13, 66, 0
15, 282240, Note_on_c, 13, 55, 76
15, 282419, Note_on_c, 13, 55, 0
15, 282480, Note_on_c, 13, 57, 76
15, 282659, Note_on_c, 13, 57, 0
15, 282720, Note_on_c, 13, 59, 76
15, 282899, Note_on_c, 13, 59, 0
15, 289440, Note_on_c, 13, 60, 44
15, 289679, Note_on_c, 13, 60, 0
15, 290160, Note_on_c, 13, 53, 44
15, 290399, Note_on_c, 13, 53, 0
15, 290880, Note_on_c, 13, 57, 44
15, 291119, Note_on_c, 13, 57, 0
15, 291600, Note_on_c, 13, 50, 44
15, 291839, Note_on_c, 13, 50, 0
15, 292080, Control_c, 13, 11, 64
15, 292320, Note_on_c, 13, 50, 76
15, 292440, Control_c, 13, 11, 69
15, 292559, Note_on_c, 13, 50, 0
15, 292560, Note_on_c, 13, 52, 76
15, 292560, Control_c, 13, 11, 75
15, 292680, Control_c, 13, 11, 80
15, 292799, Note_on_c, 13, 52, 0
15, 292800, Control_c, 13, 11, 85
15, 292800, Note_on_c, 13, 53, 76
15, 292920, Control_c, 13, 11, 90
15, 293039, Note_on_c, 13, 53, 0
15, 293040, Control_c, 13, 11, 96
15, 293040, Note_on_c, 13, 54, 76
15, 293160, Control_c, 13, 11, 101
15, 293279, Note_on_c, 13, 54, 0
15, 293280, Control_c, 13, 11, 106
15, 293280, Note_on_c, 13, 55, 76
15, 293400, Control_c, 13, 11, 111
15, 293519, Note_on_c, 13, 55, 0
15, 293520, Note_on_c, 13, 56, 76
15, 293520, Control_c, 13, 11, 117
15, 293640, Control_c, 13, 11, 122
15, 293729, Note_on_c, 13, 56, 0
15, 293760, Note_on_c, 13, 57, 76
15, 293760, Control_c, 13, 11, 127
15, 293969, Note_on_c, 13, 57, 0
15, 294000, Note_on_c, 13, 69, 76
15, 294209, Note_on_c, 13, 69, 0
15, 294240, Note_on_c, 13, 69, 76
15, 294449, Note_on_c, 13, 69, 0
15, 294480, Note_on_c, 13, 62, 76
15, 294719, Note_on_c, 13, 62, 0
15, 295200, Note_on_c, 13, 64, 44
15, 295379, Note_on_c, 13, 64, 0
15, 295440, Note_on_c, 13, 65, 44
15, 295619, Note_on_c, 13, 65, 0
15, 295680, Note_on_c, 13, 67, 44
15, 295859, Note_on_c, 13, 67, 0
15, 295920, Note_on_c, 13, 65, 44
15, 296159, Note_on_c, 13, 65, 0
15, 296640, Note_on_c, 13, 61, 44
15, 296819, Note_on_c, 13, 61, 0
15, 296880, Note_on_c, 13, 62, 44
15, 297059, Note_on_c, 13, 62, 0
15, 297120, Note_on_c, 13, 64, 44
15, 297299, Note_on_c, 13, 64, 0
15, 297360, Note_on_c, 13, 62, 44
15, 297599, Note_on_c, 13, 62, 0
15, 297840, Control_c, 13, 11, 64
15, 298080, Note_on_c, 13, 50, 76
15, 298200, Control_c, 13, 11, 69
15, 298319, Note_on_c, 13, 50, 0
15, 298320, Note_on_c, 13, 52, 76
15, 298320, Control_c, 13, 11, 75
15, 298440, Control_c, 13, 11, 80
15, 298559, Note_on_c, 13, 52, 0
15, 298560, Note_on_c, 13, 53, 76
15, 298560, Control_c, 13, 11, 85
15, 298680, Control_c, 13, 11, 90
15, 298799, Note_on_c, 13, 53, 0
15, 298800, Control_c, 13, 11, 96
15, 298800, Note_on_c, 13, 54, 76
15, 298920, Control_c, 13, 11, 101
15, 299039, Note_on_c, 13, 54, 0
15, 299040, Control_c, 13, 11, 106
15, 299040, Note_on_c, 13, 55, 76
15, 299160, Control_c, 13, 11, 111
15, 299279, Note_on_c, 13, 55, 0
15, 299280, Note_on_c, 13, 56, 76
15, 299280, Control_c, 13, 11, 117
15, 299400, Control_c, 13, 11, 122
15, 299489, Note_on_c, 13, 56, 0
15, 299520, Note_on_c, 13, 57, 76
15, 299520, Control_c, 13, 11, 127
15, 299729, Note_on_c, 13, 57, 0
15, 299760, Note_on_c, 13, 69, 76
15, 299969, Note_on_c, 13, 69, 0
15, 300000, Note_on_c, 13, 69, 76
15, 300209, Note_on_c, 13, 69, 0
15, 300240, Note_on_c, 13, 62, 76
15, 300479, Note_on_c, 13, 62, 0
15, 300720, Control_c, 13, 11, 80
15, 300960, Note_on_c, 13, 50, 76
15, 301080, Control_c, 13, 11, 84
15, 301199, Note_on_c, 13, 50, 0
15, 301200, Note_on_c, 13, 52, 76
15, 301200, Control_c, 13, 11, 88
15, 301320, Control_c, 13, 11, 92
15, 301439, Note_on_c, 13, 52, 0
15, 301440, Control_c, 13, 11, 96
15, 301440, Note_on_c, 13, 53, 76
15, 301560, Control_c, 13, 11, 100
15, 301679, Note_on_c, 13, 53, 0
15, 301680, Control_c, 13, 11, 104
15, 301680, Note_on_c, 13, 54, 76
15, 301800, Control_c, 13, 11, 107
15, 301919, Note_on_c, 13, 54, 0
15, 301920, Control_c, 13, 11, 111
15, 301920, Note_on_c, 13, 55, 76
15, 302040, Control_c, 13, 11, 115
15, 302159, Note_on_c, 13, 55, 0
15, 302160, Note_on_c, 13, 56, 76
15, 302160, Control_c, 13, 11, 119
15, 302280, Control_c, 13, 11, 123
15, 302369, Note_on_c, 13, 56, 0
15, 302400, Control_c, 13, 11, 127
15, 302400, Note_on_c, 13, 57, 84
15, 302579, Note_on_c, 13, 57, 0
15, 302640, Note_on_c, 13, 69, 76
15, 302849, Note_on_c, 13, 69, 0
15, 302880, Note_on_c, 13, 69, 76
15, 303089, Note_on_c, 13, 69, 0
15, 303120, Note_on_c, 13, 74, 76
15, 303359, Note_on_c, 13, 74, 0
15, 303840, Note_on_c, 13, 57, 84
15, 304019, Note_on_c, 13, 57, 0
15, 304080, Note_on_c, 13, 69, 76
15, 304289, Note_on_c, 13, 69, 0
15, 304320, Note_on_c, 13, 69, 76
15, 304529, Note_on_c, 13, 69, 0
15, 304560, Note_on_c, 13, 74, 76
15, 304799, Note_on_c, 13, 74, 0
15, 305280, Note_on_c, 13, 57, 84
15, 305519, Note_on_c, 13, 57, 0
15, 305520, Note_on_c, 13, 61, 84
15, 305759, Note_on_c, 13, 61, 0
15, 305760, Note_on_c, 13, 64, 84
15, 305999, Note_on_c, 13, 64, 0
15, 306000, Note_on_c, 13, 69, 84
15, 306239, Note_on_c, 13, 69, 0
15, 306240, Note_on_c, 13, 71, 84
15, 306479, Note_on_c, 13, 71, 0
15, 306480, Note_on_c, 13, 73, 84
15, 306689, Note_on_c, 13, 73, 0
15, 306720, Note_on_c, 13, 74, 84
15, 306959, Note_on_c, 13, 74, 0
15, 307200, Note_on_c, 13, 69, 84
15, 307379, Note_on_c, 13, 69, 0
15, 307440, Note_on_c, 13, 62, 84
15, 307619, Note_on_c, 13, 62, 0
15, 307619, End_track
16, 0, Start_track
16, 0, Title_t, "Cello"
16, 0, MIDI_port, 0
16, 0, Program_c, 14, 48
16, 0, Control_c, 14, 7, 96
16, 0, Control_c, 14, 10, 90
16, 0, Control_c, 14, 11, 127
16, 0, Note_on_c, 14, 50, 76
16, 179, Note_on_c, 14, 50, 0
16, 240, Note_on_c, 14, 52, 76
16, 419, Note_on_c, 14, 52, 0
16, 480, Note_on_c, 14, 54, 76
16, 659, Note_on_c, 14, 54, 0
16, 1440, Note_on_c, 14, 55, 76
16, 1619, Note_on_c, 14, 55, 0
16, 1680, Note_on_c, 14, 57, 76
16, 1859, Note_on_c, 14, 57, 0
16, 1920, Note_on_c, 14, 59, 76
16, 2099, Note_on_c, 14, 59, 0
16, 5040, Note_on_c, 14, 50, 84
16, 5219, Note_on_c, 14, 50, 0
16, 5280, Note_on_c, 14, 45, 84
16, 5459, Note_on_c, 14, 45, 0
16, 5520, Note_on_c, 14, 50, 84
16, 5699, Note_on_c, 14, 50, 0
16, 5760, Note_on_c, 14, 50, 76
16, 5939, Note_on_c, 14, 50, 0
16, 6000, Note_on_c, 14, 52, 76
16, 6179, Note_on_c, 14, 52, 0
16, 6240, Note_on_c, 14, 54, 76
16, 6419, Note_on_c, 14, 54, 0
16, 7200, Note_on_c, 14, 56, 76
16, 7379, Note_on_c, 14, 56, 0
16, 7440, Note_on_c, 14, 57, 76
16, 7619, Note_on_c, 14, 57, 0
16, 7680, Note_on_c, 14, 59, 76
16, 7859, Note_on_c, 14, 59, 0
16, 10800, Note_on_c, 14, 57, 84
16, 10979, Note_on_c, 14, 57, 0
16, 11040, Note_on_c, 14, 52, 84
16, 11219, Note_on_c, 14, 52, 0
16, 11280, Note_on_c, 14, 57, 84
16, 11459, Note_on_c, 14, 57, 0
16, 11520, Note_on_c, 14, 50, 76
16, 11699, Note_on_c, 14, 50, 0
16, 11760, Note_on_c, 14, 52, 76
16, 11939, Note_on_c, 14, 52, 0
16, 12000, Note_on_c, 14, 54, 76
16, 12179, Note_on_c, 14, 54, 0
16, 12960, Note_on_c, 14, 55, 76
16, 13139, Note_on_c, 14, 55, 0
16, 13200, Note_on_c, 14, 57, 76
16, 13379, Note_on_c, 14, 57, 0
16, 13440, Note_on_c, 14, 59, 76
16, 13619, Note_on_c, 14, 59, 0
16, 16560, Note_on_c, 14, 50, 84
16, 16739, Note_on_c, 14, 50, 0
16, 16800, Note_on_c, 14, 45, 84
16, 16979, Note_on_c, 14, 45, 0
16, 17040, Note_on_c, 14, 50, 84
16, 17219, Note_on_c, 14, 50, 0
16, 17280, Note_on_c, 14, 50, 76
16, 17459, Note_on_c, 14, 50, 0
16, 17520, Note_on_c, 14, 52, 76
16, 17699, Note_on_c, 14, 52, 0
16, 17760, Note_on_c, 14, 54, 76
16, 17939, Note_on_c, 14, 54, 0
16, 18720, Note_on_c, 14, 56, 76
16, 18899, Note_on_c, 14, 56, 0
16, 18960, Note_on_c, 14, 57, 76
16, 19139, Note_on_c, 14, 57, 0
16, 19200, Note_on_c, 14, 59, 76
16, 19379, Note_on_c, 14, 59, 0
16, 22320, Note_on_c, 14, 57, 84
16, 22499, Note_on_c, 14, 57, 0
16, 22560, Note_on_c, 14, 52, 84
16, 22739, Note_on_c, 14, 52, 0
16, 22800, Note_on_c, 14, 57, 84
16, 22979, Note_on_c, 14, 57, 0
16, 23040, Note_on_c, 14, 57, 52
16, 23219, Note_on_c, 14, 57, 0
16, 23280, Note_on_c, 14, 59, 52
16, 23459, Note_on_c, 14, 59, 0
16, 23520, Note_on_c, 14, 61, 52
16, 23699, Note_on_c, 14, 61, 0
16, 23760, Note_on_c, 14, 62, 52
16, 23999, Note_on_c, 14, 62, 0
16, 24480, Note_on_c, 14, 53, 52
16, 24659, Note_on_c, 14, 53, 0
16, 24720, Note_on_c, 14, 55, 52
16, 24899, Note_on_c, 14, 55, 0
16, 24960, Note_on_c, 14, 57, 52
16, 25139, Note_on_c, 14, 57, 0
16, 25200, Note_on_c, 14, 58, 52
16, 25439, Note_on_c, 14, 58, 0
16, 25920, Note_on_c, 14, 46, 52
16, 26099, Note_on_c, 14, 46, 0
16, 26160, Note_on_c, 14, 46, 76
16, 26280, Control_c, 14, 11, 80
16, 27569, Note_on_c, 14, 46, 0
16, 27600, Note_on_c, 14, 46, 76
16, 27809, Note_on_c, 14, 46, 0
16, 27840, Note_on_c, 14, 46, 76
16, 28049, Note_on_c, 14, 46, 0
16, 28080, Note_on_c, 14, 46, 76
16, 28289, Note_on_c, 14, 46, 0
16, 28320, Note_on_c, 14, 46, 76
16, 28529, Note_on_c, 14, 46, 0
16, 28560, Note_on_c, 14, 46, 76
16, 28769, Note_on_c, 14, 46, 0
16, 28800, Note_on_c, 14, 46, 76
16, 28979, Note_on_c, 14, 46, 0
16, 29040, Note_on_c, 14, 46, 76
16, 29040, Control_c, 14, 11, 127
16, 29160, Control_c, 14, 11, 80
16, 30449, Note_on_c, 14, 46, 0
16, 30480, Note_on_c, 14, 46, 76
16, 30689, Note_on_c, 14, 46, 0
16, 30720, Note_on_c, 14, 46, 76
16, 30929, Note_on_c, 14, 46, 0
16, 30960, Note_on_c, 14, 46, 76
16, 31169, Note_on_c, 14, 46, 0
16, 31200, Note_on_c, 14, 46, 76
16, 31409, Note_on_c, 14, 46, 0
16, 31440, Note_on_c, 14, 46, 76
16, 31649, Note_on_c, 14, 46, 0
16, 31680, Note_on_c, 14, 46, 76
16, 31919, Note_on_c, 14, 46, 0
16, 32160, Control_c, 14, 11, 127
16, 32400, Note_on_c, 14, 45, 52
16, 32639, Note_on_c, 14, 45, 0
16, 33120, Note_on_c, 14, 44, 52
16, 33359, Note_on_c, 14, 44, 0
16, 33840, Note_on_c, 14, 56, 52
16, 34079, Note_on_c, 14, 56, 0
16, 34560, Note_on_c, 14, 57, 44
16, 34799, Note_on_c, 14, 57, 0
16, 35040, Note_on_c, 14, 49, 44
16, 35279, Note_on_c, 14, 49, 0
16, 35280, Note_on_c, 14, 50, 44
16, 35519, Note_on_c, 14, 50, 0
16, 35520, Note_on_c, 14, 53, 44
16, 35759, Note_on_c, 14, 53, 0
16, 35760, Note_on_c, 14, 56, 44
16, 35969, Note_on_c, 14, 56, 0
16, 36000, Note_on_c, 14, 57, 44
16, 36239, Note_on_c, 14, 57, 0
16, 36240, Control_c, 14, 11, 64
16, 36480, Note_on_c, 14, 49, 76
16, 36480, Control_c, 14, 11, 64
16, 36680, Control_c, 14, 11, 69
16, 36719, Note_on_c, 14, 49, 0
16, 36720, Note_on_c, 14, 50, 76
16, 36880, Control_c, 14, 11, 75
16, 36959, Note_on_c, 14, 50, 0
16, 36960, Note_on_c, 14, 53, 76
16, 37080, Control_c, 14, 11, 80
16, 37199, Note_on_c, 14, 53, 0
16, 37200, Note_on_c, 14, 56, 76
16, 37280, Control_c, 14, 11, 85
16, 37409, Note_on_c, 14, 56, 0
16, 37440, Note_on_c, 14, 57, 76
16, 37480, Control_c, 14, 11, 90
16, 37619, Note_on_c, 14, 57, 0
16, 37680, Control_c, 14, 11, 96
16, 38880, Note_on_c, 14, 50, 76
16, 38880, Control_c, 14, 11, 127
16, 39059, Note_on_c, 14, 50, 0
16, 39120, Note_on_c, 14, 52, 76
16, 39299, Note_on_c, 14, 52, 0
16, 39360, Note_on_c, 14, 54, 76
16, 39539, Note_on_c, 14, 54, 0
16, 40320, Note_on_c, 14, 55, 76
16, 40499, Note_on_c, 14, 55, 0
16, 40560, Note_on_c, 14, 57, 76
16, 40739, Note_on_c, 14, 57, 0
16, 40800, Note_on_c, 14, 59, 76
16, 40979, Note_on_c, 14, 59, 0
16, 43920, Note_on_c, 14, 50, 84
16, 44099, Note_on_c, 14, 50, 0
16, 44160, Note_on_c, 14, 45, 84
16, 44339, Note_on_c, 14, 45, 0
16, 44400, Note_on_c, 14, 50, 84
16, 44579, Note_on_c, 14, 50, 0
16, 44640, Note_on_c, 14, 50, 76
16, 44819, Note_on_c, 14, 50, 0
16, 44880, Note_on_c, 14, 52, 76
16, 45059, Note_on_c, 14, 52, 0
16, 45120, Note_on_c, 14, 54, 76
16, 45299, Note_on_c, 14, 54, 0
16, 46080, Note_on_c, 14, 55, 76
16, 46259, Note_on_c, 14, 55, 0
16, 46320, Note_on_c, 14, 57, 76
16, 46499, Note_on_c, 14, 57, 0
16, 46560, Note_on_c, 14, 59, 76
16, 46739, Note_on_c, 14, 59, 0
16, 53280, Note_on_c, 14, 60, 44
16, 53519, Note_on_c, 14, 60, 0
16, 54000, Note_on_c, 14, 53, 44
16, 54239, Note_on_c, 14, 53, 0
16, 54720, Note_on_c, 14, 57, 44
16, 54959, Note_on_c, 14, 57, 0
16, 55440, Note_on_c, 14, 50, 44
16, 55679, Note_on_c, 14, 50, 0
16, 55920, Control_c, 14, 11, 64
16, 56160, Note_on_c, 14, 50, 76
16, 56280, Control_c, 14, 11, 69
16, 56399, Note_on_c, 14, 50, 0
16, 56400, Control_c, 14, 11, 75
16, 56400, Note_on_c, 14, 52, 76
16, 56520, Control_c, 14, 11, 80
16, 56639, Note_on_c, 14, 52, 0
16, 56640, Note_on_c, 14, 53, 76
16, 56640, Control_c, 14, 11, 85
16, 56760, Control_c, 14, 11, 90
16, 56879, Note_on_c, 14, 53, 0
16, 56880, Control_c, 14, 11, 96
16, 56880, Note_on_c, 14, 54, 76
16, 57000, Control_c, 14, 11, 101
16, 57119, Note_on_c, 14, 54, 0
16, 57120, Control_c, 14, 11, 106
16, 57120, Note_on_c, 14, 55, 76
16, 57240, Control_c, 14, 11, 111
16, 57359, Note_on_c, 14, 55, 0
16, 57360, Note_on_c, 14, 56, 76
16, 57360, Control_c, 14, 11, 117
16, 57480, Control_c, 14, 11, 122
16, 57569, Note_on_c, 14, 56, 0
16, 57600, Note_on_c, 14, 57, 76
16, 57600, Control_c, 14, 11, 127
16, 57809, Note_on_c, 14, 57, 0
16, 57840, Note_on_c, 14, 57, 76
16, 58049, Note_on_c, 14, 57, 0
16, 58080, Note_on_c, 14, 57, 76
16, 58289, Note_on_c, 14, 57, 0
16, 58320, Note_on_c, 14, 50, 76
16, 58559, Note_on_c, 14, 50, 0
16, 59040, Note_on_c, 14, 60, 44
16, 59279, Note_on_c, 14, 60, 0
16, 59760, Note_on_c, 14, 53, 44
16, 59999, Note_on_c, 14, 53, 0
16, 60480, Note_on_c, 14, 57, 44
16, 60719, Note_on_c, 14, 57, 0
16, 61200, Note_on_c, 14, 50, 44
16, 61439, Note_on_c, 14, 50, 0
16, 61680, Control_c, 14, 11, 64
16, 61920, Control_c, 14, 11, 64
16, 61920, Note_on_c, 14, 50, 76
16, 62040, Control_c, 14, 11, 69
16, 62159, Note_on_c, 14, 50, 0
16, 62160, Control_c, 14, 11, 75
16, 62160, Note_on_c, 14, 52, 76
16, 62280, Control_c, 14, 11, 80
16, 62399, Note_on_c, 14, 52, 0
16, 62400, Control_c, 14, 11, 85
16, 62400, Note_on_c, 14, 53, 76
16, 62520, Control_c, 14, 11, 90
16, 62639, Note_on_c, 14, 53, 0
16, 62640, Control_c, 14, 11, 96
16, 62640, Note_on_c, 14, 54, 76
16, 62760, Control_c, 14, 11, 101
16, 62879, Note_on_c, 14, 54, 0
16, 62880, Control_c, 14, 11, 106
16, 62880, Note_on_c, 14, 55, 76
16, 63000, Control_c, 14, 11, 111
16, 63119, Note_on_c, 14, 55, 0
16, 63120, Note_on_c, 14, 56, 76
16, 63120, Control_c, 14, 11, 117
16, 63240, Control_c, 14, 11, 122
16, 63329, Note_on_c, 14, 56, 0
16, 63360, Control_c, 14, 11, 127
16, 63360, Note_on_c, 14, 57, 76
16, 63569, Note_on_c, 14, 57, 0
16, 63600, Note_on_c, 14, 57, 76
16, 63809, Note_on_c, 14, 57, 0
16, 63840, Note_on_c, 14, 57, 76
16, 64049, Note_on_c, 14, 57, 0
16, 64080, Note_on_c, 14, 62, 76
16, 64319, Note_on_c, 14, 62, 0
16, 64560, Control_c, 14, 11, 80
16, 64800, Note_on_c, 14, 50, 76
16, 64920, Control_c, 14, 11, 84
16, 65039, Note_on_c, 14, 50, 0
16, 65040, Note_on_c, 14, 52, 76
16, 65040, Control_c, 14, 11, 88
16, 65160, Control_c, 14, 11, 92
16, 65279, Note_on_c, 14, 52, 0
16, 65280, Note_on_c, 14, 53, 76
16, 65280, Control_c, 14, 11, 96
16, 65400, Control_c, 14, 11, 100
16, 65519, Note_on_c, 14, 53, 0
16, 65520, Note_on_c, 14, 54, 76
16, 65520, Control_c, 14, 11, 104
16, 65640, Control_c, 14, 11, 107
16, 65759, Note_on_c, 14, 54, 0
16, 65760, Control_c, 14, 11, 111
16, 65760, Note_on_c, 14, 55, 76
16, 65880, Control_c, 14, 11, 115
16, 65999, Note_on_c, 14, 55, 0
16, 66000, Note_on_c, 14, 56, 76
16, 66000, Control_c, 14, 11, 119
16, 66120, Control_c, 14, 11, 123
16, 66209, Note_on_c, 14, 56, 0
16, 66240, Control_c, 14, 11, 127
16, 66240, Note_on_c, 14, 57, 84
16, 66419, Note_on_c, 14, 57, 0
16, 66480, Note_on_c, 14, 57, 76
16, 66689, Note_on_c, 14, 57, 0
16, 66720, Note_on_c, 14, 57, 76
16, 66929, Note_on_c, 14, 57, 0
16, 66960, Note_on_c, 14, 62, 76
16, 67199, Note_on_c, 14, 62, 0
16, 67680, Note_on_c, 14, 45, 84
16, 67859, Note_on_c, 14, 45, 0
16, 67920, Note_on_c, 14, 57, 76
16, 68129, Note_on_c, 14, 57, 0
16, 68160, Note_on_c, 14, 57, 76
16, 68369, Note_on_c, 14, 57, 0
16, 68400, Note_on_c, 14, 62, 76
16, 68639, Note_on_c, 14, 62, 0
16, 69120, Note_on_c, 14, 45, 84
16, 69329, Note_on_c, 14, 45, 0
16, 69360, Note_on_c, 14, 57, 84
16, 69569, Note_on_c, 14, 57, 0
16, 69600, Note_on_c, 14, 57, 84
16, 69809, Note_on_c, 14, 57, 0
16, 69840, Note_on_c, 14, 57, 84
16, 70049, Note_on_c, 14, 57, 0
16, 70080, Note_on_c, 14, 57, 84
16, 70289, Note_on_c, 14, 57, 0
16, 70320, Note_on_c, 14, 57, 84
16, 70529, Note_on_c, 14, 57, 0
16, 70560, Note_on_c, 14, 62, 84
16, 70799, Note_on_c, 14, 62, 0
16, 71040, Note_on_c, 14, 57, 84
16, 71219, Note_on_c, 14, 57, 0
16, 71280, Note_on_c, 14, 50, 84
16, 71459, Note_on_c, 14, 50, 0
16, 72000, Note_on_c, 14, 57, 52
16, 72179, Note_on_c, 14, 57, 0
16, 72240, Note_on_c, 14, 59, 52
16, 72419, Note_on_c, 14, 59, 0
16, 72480, Note_on_c, 14, 61, 52
16, 72659, Note_on_c, 14, 61, 0
16, 72720, Note_on_c, 14, 62, 52
16, 72959, Note_on_c, 14, 62, 0
16, 73440, Note_on_c, 14, 53, 52
16, 73619, Note_on_c, 14, 53, 0
16, 73680, Note_on_c, 14, 55, 52
16, 73859, Note_on_c, 14, 55, 0
16, 73920, Note_on_c, 14, 57, 52
16, 74099, Note_on_c, 14, 57, 0
16, 74160, Note_on_c, 14, 58, 52
16, 74399, Note_on_c, 14, 58, 0
16, 74880, Note_on_c, 14, 46, 52
16, 75059, Note_on_c, 14, 46, 0
16, 75120, Note_on_c, 14, 46, 76
16, 75240, Control_c, 14, 11, 80
16, 76529, Note_on_c, 14, 46, 0
16, 76560, Note_on_c, 14, 46, 76
16, 76769, Note_on_c, 14, 46, 0
16, 76800, Note_on_c, 14, 46, 76
16, 77009, Note_on_c, 14, 46, 0
16, 77040, Note_on_c, 14, 46, 76
16, 77249, Note_on_c, 14, 46, 0
16, 77280, Note_on_c, 14, 46, 76
16, 77489, Note_on_c, 14, 46, 0
16, 77520, Note_on_c, 14, 46, 76
16, 77729, Note_on_c, 14, 46, 0
16, 77760, Note_on_c, 14, 46, 76
16, 77939, Note_on_c, 14, 46, 0
16, 78000, Control_c, 14, 11, 127
16, 78000, Note_on_c, 14, 46, 76
16, 78120, Control_c, 14, 11, 80
16, 79409, Note_on_c, 14, 46, 0
16, 79440, Note_on_c, 14, 46, 76
16, 79649, Note_on_c, 14, 46, 0
16, 79680, Note_on_c, 14, 46, 76
16, 79889, Note_on_c, 14, 46, 0
16, 79920, Note_on_c, 14, 46, 76
16, 80129, Note_on_c, 14, 46, 0
16, 80160, Note_on_c, 14, 46, 76
16, 80369, Note_on_c, 14, 46, 0
16, 80400, Note_on_c, 14, 46, 76
16, 80609, Note_on_c, 14, 46, 0
16, 80640, Note_on_c, 14, 46, 76
16, 80879, Note_on_c, 14, 46, 0
16, 81120, Control_c, 14, 11, 127
16, 81360, Note_on_c, 14, 45, 52
16, 81599, Note_on_c, 14, 45, 0
16, 82080, Note_on_c, 14, 44, 52
16, 82319, Note_on_c, 14, 44, 0
16, 82800, Note_on_c, 14, 56, 52
16, 83039, Note_on_c, 14, 56, 0
16, 83520, Note_on_c, 14, 57, 44
16, 83759, Note_on_c, 14, 57, 0
16, 84000, Note_on_c, 14, 49, 44
16, 84239, Note_on_c, 14, 49, 0
16, 84240, Note_on_c, 14, 50, 44
16, 84479, Note_on_c, 14, 50, 0
16, 84480, Note_on_c, 14, 53, 44
16, 84719, Note_on_c, 14, 53, 0
16, 84720, Note_on_c, 14, 56, 44
16, 84929, Note_on_c, 14, 56, 0
16, 84960, Note_on_c, 14, 57, 44
16, 85199, Note_on_c, 14, 57, 0
16, 85200, Control_c, 14, 11, 64
16, 85440, Note_on_c, 14, 49, 76
16, 85440, Control_c, 14, 11, 64
16, 85640, Control_c, 14, 11, 69
16, 85679, Note_on_c, 14, 49, 0
16, 85680, Note_on_c, 14, 50, 76
16, 85840, Control_c, 14, 11, 75
16, 85919, Note_on_c, 14, 50, 0
16, 85920, Note_on_c, 14, 53, 76
16, 86040, Control_c, 14, 11, 80
16, 86159, Note_on_c, 14, 53, 0
16, 86160, Note_on_c, 14, 56, 76
16, 86240, Control_c, 14, 11, 85
16, 86369, Note_on_c, 14, 56, 0
16, 86400, Note_on_c, 14, 57, 76
16, 86440, Control_c, 14, 11, 90
16, 86579, Note_on_c, 14, 57, 0
16, 86640, Control_c, 14, 11, 96
16, 87840, Control_c, 14, 11, 127
16, 87840, Note_on_c, 14, 50, 76
16, 88019, Note_on_c, 14, 50, 0
16, 88080, Note_on_c, 14, 52, 76
16, 88259, Note_on_c, 14, 52, 0
16, 88320, Note_on_c, 14, 54, 76
16, 88499, Note_on_c, 14, 54, 0
16, 89280, Note_on_c, 14, 55, 76
16, 89459, Note_on_c, 14, 55, 0
16, 89520, Note_on_c, 14, 57, 76
16, 89699, Note_on_c, 14, 57, 0
16, 89760, Note_on_c, 14, 59, 76
16, 89939, Note_on_c, 14, 59, 0
16, 92880, Note_on_c, 14, 50, 84
16, 93059, Note_on_c, 14, 50, 0
16, 93120, Note_on_c, 14, 45, 84
16, 93299, Note_on_c, 14, 45, 0
16, 93360, Note_on_c, 14, 50, 84
16, 93539, Note_on_c, 14, 50, 0
16, 93600, Note_on_c, 14, 50, 76
16, 93779, Note_on_c, 14, 50, 0
16, 93840, Note_on_c, 14, 52, 76
16, 94019, Note_on_c, 14, 52, 0
16, 94080, Note_on_c, 14, 54, 76
16, 94259, Note_on_c, 14, 54, 0
16, 95040, Note_on_c, 14, 55, 76
16, 95219, Note_on_c, 14, 55, 0
16, 95280, Note_on_c, 14, 57, 76
16, 95459, Note_on_c, 14, 57, 0
16, 95520, Note_on_c, 14, 59, 76
16, 95699, Note_on_c, 14, 59, 0
16, 102240, Note_on_c, 14, 60, 44
16, 102479, Note_on_c, 14, 60, 0
16, 102960, Note_on_c, 14, 53, 44
16, 103199, Note_on_c, 14, 53, 0
16, 103680, Note_on_c, 14, 57, 44
16, 103919, Note_on_c, 14, 57, 0
16, 104400, Note_on_c, 14, 50, 44
16, 104639, Note_on_c, 14, 50, 0
16, 104880, Control_c, 14, 11, 64
16, 105120, Note_on_c, 14, 50, 76
16, 105240, Control_c, 14, 11, 69
16, 105359, Note_on_c, 14, 50, 0
16, 105360, Control_c, 14, 11, 75
16, 105360, Note_on_c, 14, 52, 76
16, 105480, Control_c, 14, 11, 80
16, 105599, Note_on_c, 14, 52, 0
16, 105600, Note_on_c, 14, 53, 76
16, 105600, Control_c, 14, 11, 85
16, 105720, Control_c, 14, 11, 90
16, 105839, Note_on_c, 14, 53, 0
16, 105840, Note_on_c, 14, 54, 76
16, 105840, Control_c, 14, 11, 96
16, 105960, Control_c, 14, 11, 101
16, 106079, Note_on_c, 14, 54, 0
16, 106080, Control_c, 14, 11, 106
16, 106080, Note_on_c, 14, 55, 76
16, 106200, Control_c, 14, 11, 111
16, 106319, Note_on_c, 14, 55, 0
16, 106320, Control_c, 14, 11, 117
16, 106320, Note_on_c, 14, 56, 76
16, 106440, Control_c, 14, 11, 122
16, 106529, Note_on_c, 14, 56, 0
16, 106560, Note_on_c, 14, 57, 76
16, 106560, Control_c, 14, 11, 127
16, 106769, Note_on_c, 14, 57, 0
16, 106800, Note_on_c, 14, 57, 76
16, 107009, Note_on_c, 14, 57, 0
16, 107040, Note_on_c, 14, 57, 76
16, 107249, Note_on_c, 14, 57, 0
16, 107280, Note_on_c, 14, 50, 76
16, 107519, Note_on_c, 14, 50, 0
16, 108000, Note_on_c, 14, 60, 44
16, 108239, Note_on_c, 14, 60, 0
16, 108720, Note_on_c, 14, 53, 44
16, 108959, Note_on_c, 14, 53, 0
16, 109440, Note_on_c, 14, 57, 44
16, 109679, Note_on_c, 14, 57, 0
16, 110160, Note_on_c, 14, 50, 44
16, 110399, Note_on_c, 14, 50, 0
16, 110640, Control_c, 14, 11, 64
16, 110880, Control_c, 14, 11, 64
16, 110880, Note_on_c, 14, 50, 76
16, 111000, Control_c, 14, 11, 69
16, 111119, Note_on_c, 14, 50, 0
16, 111120, Note_on_c, 14, 52, 76
16, 111120, Control_c, 14, 11, 75
16, 111240, Control_c, 14, 11, 80
16, 111359, Note_on_c, 14, 52, 0
16, 111360, Note_on_c, 14, 53, 76
16, 111360, Control_c, 14, 11, 85
16, 111480, Control_c, 14, 11, 90
16, 111599, Note_on_c, 14, 53, 0
16, 111600, Note_on_c, 14, 54, 76
16, 111600, Control_c, 14, 11, 96
16, 111720, Control_c, 14, 11, 101
16, 111839, Note_on_c, 14, 54, 0
16, 111840, Control_c, 14, 11, 106
16, 111840, Note_on_c, 14, 55, 76
16, 111960, Control_c, 14, 11, 111
16, 112079, Note_on_c, 14, 55, 0
16, 112080, Control_c, 14, 11, 117
16, 112080, Note_on_c, 14, 56, 76
16, 112200, Control_c, 14, 11, 122
16, 112289, Note_on_c, 14, 56, 0
16, 112320, Note_on_c, 14, 57, 76
16, 112320, Control_c, 14, 11, 127
16, 112529, Note_on_c, 14, 57, 0
16, 112560, Note_on_c, 14, 57, 76
16, 112769, Note_on_c, 14, 57, 0
16, 112800, Note_on_c, 14, 57, 76
16, 113009, Note_on_c, 14, 57, 0
16, 113040, Note_on_c, 14, 62, 76
16, 113279, Note_on_c, 14, 62, 0
16, 113520, Control_c, 14, 11, 80
16, 113760, Note_on_c, 14, 50, 76
16, 113880, Control_c, 14, 11, 84
16, 113999, Note_on_c, 14, 50, 0
16, 114000, Control_c, 14, 11, 88
16, 114000, Note_on_c, 14, 52, 76
16, 114120, Control_c, 14, 11, 92
16, 114239, Note_on_c, 14, 52, 0
16, 114240, Note_on_c, 14, 53, 76
16, 114240, Control_c, 14, 11, 96
16, 114360, Control_c, 14, 11, 100
16, 114479, Note_on_c, 14, 53, 0
16, 114480, Control_c, 14, 11, 104
16, 114480, Note_on_c, 14, 54, 76
16, 114600, Control_c, 14, 11, 107
16, 114719, Note_on_c, 14, 54, 0
16, 114720, Note_on_c, 14, 55, 76
16, 114720, Control_c, 14, 11, 111
16, 114840, Control_c, 14, 11, 115
16, 114959, Note_on_c, 14, 55, 0
16, 114960, Control_c, 14, 11, 119
16, 114960, Note_on_c, 14, 56, 76
16, 115080, Control_c, 14, 11, 123
16, 115169, Note_on_c, 14, 56, 0
16, 115200, Note_on_c, 14, 57, 84
16, 115200, Control_c, 14, 11, 127
16, 115379, Note_on_c, 14, 57, 0
16, 115440, Note_on_c, 14, 57, 76
16, 115649, Note_on_c, 14, 57, 0
16, 115680, Note_on_c, 14, 57, 76
16, 115889, Note_on_c, 14, 57, 0
16, 115920, Note_on_c, 14, 62, 76
16, 116159, Note_on_c, 14, 62, 0
16, 116640, Note_on_c, 14, 45, 84
16, 116819, Note_on_c, 14, 45, 0
16, 116880, Note_on_c, 14, 57, 76
16, 117089, Note_on_c, 14, 57, 0
16, 117120, Note_on_c, 14, 57, 76
16, 117329, Note_on_c, 14, 57, 0
16, 117360, Note_on_c, 14, 62, 76
16, 117599, Note_on_c, 14, 62, 0
16, 118080, Note_on_c, 14, 45, 84
16, 118289, Note_on_c, 14, 45, 0
16, 118320, Note_on_c, 14, 57, 84
16, 118529, Note_on_c, 14, 57, 0
16, 118560, Note_on_c, 14, 57, 84
16, 118769, Note_on_c, 14, 57, 0
16, 118800, Note_on_c, 14, 57, 84
16, 119009, Note_on_c, 14, 57, 0
16, 119040, Note_on_c, 14, 57, 84
16, 119249, Note_on_c, 14, 57, 0
16, 119280, Note_on_c, 14, 57, 84
16, 119489, Note_on_c, 14, 57, 0
16, 119520, Note_on_c, 14, 62, 84
16, 119759, Note_on_c, 14, 62, 0
16, 120000, Note_on_c, 14, 57, 84
16, 120179, Note_on_c, 14, 57, 0
16, 120240, Note_on_c, 14, 50, 84
16, 120419, Note_on_c, 14, 50, 0
16, 132480, Note_on_c, 14, 54, 76
16, 133169, Note_on_c, 14, 54, 0
16, 133200, Note_on_c, 14, 54, 84
16, 133889, Note_on_c, 14, 54, 0
16, 133920, Note_on_c, 14, 54, 76
16, 134039, Note_on_c, 14, 54, 0
16, 134040, Note_on_c, 14, 53, 76
16, 134129, Note_on_c, 14, 53, 0
16, 134160, Note_on_c, 14, 54, 76
16, 134279, Note_on_c, 14, 54, 0
16, 134280, Note_on_c, 14, 53, 76
16, 134369, Note_on_c, 14, 53, 0
16, 134400, Note_on_c, 14, 54, 76
16, 134519, Note_on_c, 14, 54, 0
16, 134520, Note_on_c, 14, 53, 76
16, 134609, Note_on_c, 14, 53, 0
16, 134640, Note_on_c, 14, 54, 76
16, 134759, Note_on_c, 14, 54, 0
16, 134760, Note_on_c, 14, 53, 76
16, 134849, Note_on_c, 14, 53, 0
16, 134880, Note_on_c, 14, 54, 76
16, 134999, Note_on_c, 14, 54, 0
16, 135000, Note_on_c, 14, 53, 76
16, 135089, Note_on_c, 14, 53, 0
16, 135120, Note_on_c, 14, 54, 76
16, 135239, Note_on_c, 14, 54, 0
16, 135240, Note_on_c, 14, 53, 76
16, 135329, Note_on_c, 14, 53, 0
16, 135360, Note_on_c, 14, 54, 76
16, 135539, Note_on_c, 14, 54, 0
16, 135600, Note_on_c, 14, 46, 76
16, 135779, Note_on_c, 14, 46, 0
16, 135840, Note_on_c, 14, 49, 76
16, 136019, Note_on_c, 14, 49, 0
16, 136080, Note_on_c, 14, 54, 84
16, 136259, Note_on_c, 14, 54, 0
16, 136320, Note_on_c, 14, 49, 76
16, 136499, Note_on_c, 14, 49, 0
16, 136560, Note_on_c, 14, 46, 76
16, 136739, Note_on_c, 14, 46, 0
16, 136800, Note_on_c, 14, 42, 76
16, 136979, Note_on_c, 14, 42, 0
16, 137040, Note_on_c, 14, 46, 76
16, 137219, Note_on_c, 14, 46, 0
16, 137280, Note_on_c, 14, 49, 76
16, 137459, Note_on_c, 14, 49, 0
16, 137520, Note_on_c, 14, 54, 84
16, 137699, Note_on_c, 14, 54, 0
16, 137760, Note_on_c, 14, 49, 76
16, 137939, Note_on_c, 14, 49, 0
16, 138000, Note_on_c, 14, 46, 76
16, 138179, Note_on_c, 14, 46, 0
16, 138240, Note_on_c, 14, 42, 52
16, 138329, Note_on_c, 14, 42, 0
16, 138360, Note_on_c, 14, 42, 52
16, 138449, Note_on_c, 14, 42, 0
16, 138480, Note_on_c, 14, 42, 52
16, 138569, Note_on_c, 14, 42, 0
16, 138600, Note_on_c, 14, 42, 51
16, 138689, Note_on_c, 14, 42, 0
16, 138720, Note_on_c, 14, 42, 51
16, 138809, Note_on_c, 14, 42, 0
16, 138840, Note_on_c, 14, 42, 51
16, 138929, Note_on_c, 14, 42, 0
16, 138960, Note_on_c, 14, 54, 50
16, 139049, Note_on_c, 14, 54, 0
16, 139080, Note_on_c, 14, 54, 50
16, 139169, Note_on_c, 14, 54, 0
16, 139200, Note_on_c, 14, 54, 50
16, 139289, Note_on_c, 14, 54, 0
16, 139320, Note_on_c, 14, 54, 49
16, 139409, Note_on_c, 14, 54, 0
16, 139440, Note_on_c, 14, 54, 49
16, 139529, Note_on_c, 14, 54, 0
16, 139560, Note_on_c, 14, 54, 49
16, 139649, Note_on_c, 14, 54, 0
16, 139680, Note_on_c, 14, 42, 48
16, 139769, Note_on_c, 14, 42, 0
16, 139800, Note_on_c, 14, 42, 48
16, 139889, Note_on_c, 14, 42, 0
16, 139920, Note_on_c, 14, 42, 48
16, 140009, Note_on_c, 14, 42, 0
16, 140040, Note_on_c, 14, 42, 47
16, 140129, Note_on_c, 14, 42, 0
16, 140160, Note_on_c, 14, 42, 47
16, 140249, Note_on_c, 14, 42, 0
16, 140280, Note_on_c, 14, 42, 47
16, 140369, Note_on_c, 14, 42, 0
16, 140400, Note_on_c, 14, 42, 46
16, 140489, Note_on_c, 14, 42, 0
16, 140520, Note_on_c, 14, 42, 46
16, 140609, Note_on_c, 14, 42, 0
16, 140640, Note_on_c, 14, 42, 46
16, 140729, Note_on_c, 14, 42, 0
16, 140760, Note_on_c, 14, 42, 45
16, 140849, Note_on_c, 14, 42, 0
16, 140880, Note_on_c, 14, 42, 45
16, 140969, Note_on_c, 14, 42, 0
16, 141000, Note_on_c, 14, 42, 45
16, 141089, Note_on_c, 14, 42, 0
16, 141120, Note_on_c, 14, 42, 44
16, 142559, Note_on_c, 14, 42, 0
16, 143760, Note_on_c, 14, 45, 84
16, 143999, Note_on_c, 14, 45, 0
16, 144000, Note_on_c, 14, 50, 52
16, 144239, Note_on_c, 14, 50, 0
16, 149520, Program_c, 14, 45
16, 149760, Note_on_c, 14, 50, 52
16, 149999, Note_on_c, 14, 50, 0
16, 150000, Note_on_c, 14, 62, 52
16, 150239, Note_on_c, 14, 62, 0
16, 150240, Note_on_c, 14, 61, 52
16, 150479, Note_on_c, 14, 61, 0
16, 150480, Note_on_c, 14, 59, 52
16, 150719, Note_on_c, 14, 59, 0
16, 150720, Note_on_c, 14, 57, 52
16, 150959, Note_on_c, 14, 57, 0
16, 150960, Note_on_c, 14, 55, 52
16, 151199, Note_on_c, 14, 55, 0
16, 151200, Note_on_c, 14, 54, 52
16, 151439, Note_on_c, 14, 54, 0
16, 151440, Note_on_c, 14, 52, 52
16, 151679, Note_on_c, 14, 52, 0
16, 151680, Note_on_c, 14, 50, 52
16, 151919, Note_on_c, 14, 50, 0
16, 151920, Note_on_c, 14, 57, 52
16, 152159, Note_on_c, 14, 57, 0
16, 152400, Note_on_c, 14, 54, 52
16, 152639, Note_on_c, 14, 54, 0
16, 152640, Note_on_c, 14, 52, 52
16, 152879, Note_on_c, 14, 52, 0
16, 152880, Note_on_c, 14, 64, 60
16, 153119, Note_on_c, 14, 64, 0
16, 153120, Note_on_c, 14, 62, 68
16, 153359, Note_on_c, 14, 62, 0
16, 153360, Note_on_c, 14, 61, 84
16, 153599, Note_on_c, 14, 61, 0
16, 153600, Note_on_c, 14, 59, 76
16, 153839, Note_on_c, 14, 59, 0
16, 153840, Note_on_c, 14, 57, 76
16, 154079, Note_on_c, 14, 57, 0
16, 154080, Note_on_c, 14, 62, 52
16, 154319, Note_on_c, 14, 62, 0
16, 154320, Note_on_c, 14, 55, 52
16, 154559, Note_on_c, 14, 55, 0
16, 154560, Note_on_c, 14, 57, 52
16, 154799, Note_on_c, 14, 57, 0
16, 154800, Note_on_c, 14, 50, 52
16, 155039, Note_on_c, 14, 50, 0
16, 155280, Note_on_c, 14, 57, 52
16, 155519, Note_on_c, 14, 57, 0
16, 155520, Note_on_c, 14, 62, 52
16, 155759, Note_on_c, 14, 62, 0
16, 155760, Note_on_c, 14, 55, 52
16, 155999, Note_on_c, 14, 55, 0
16, 156000, Note_on_c, 14, 57, 52
16, 156239, Note_on_c, 14, 57, 0
16, 156240, Note_on_c, 14, 50, 52
16, 156479, Note_on_c, 14, 50, 0
16, 156720, Note_on_c, 14, 57, 60
16, 156959, Note_on_c, 14, 57, 0
16, 156960, Note_on_c, 14, 62, 64
16, 157199, Note_on_c, 14, 62, 0
16, 157440, Note_on_c, 14, 57, 72
16, 157679, Note_on_c, 14, 57, 0
16, 157680, Note_on_c, 14, 62, 76
16, 157919, Note_on_c, 14, 62, 0
16, 158160, Note_on_c, 14, 57, 52
16, 158399, Note_on_c, 14, 57, 0
16, 158400, Note_on_c, 14, 62, 52
16, 158639, Note_on_c, 14, 62, 0
16, 158640, Note_on_c, 14, 55, 52
16, 158879, Note_on_c, 14, 55, 0
16, 158880, Note_on_c, 14, 57, 52
16, 159119, Note_on_c, 14, 57, 0
16, 159120, Note_on_c, 14, 50, 52
16, 159359, Note_on_c, 14, 50, 0
16, 159600, Program_c, 14, 48
16, 159840, Note_on_c, 14, 54, 76
16, 160529, Note_on_c, 14, 54, 0
16, 160560, Note_on_c, 14, 54, 84
16, 161249, Note_on_c, 14, 54, 0
16, 161280, Note_on_c, 14, 54, 76
16, 161399, Note_on_c, 14, 54, 0
16, 161400, Note_on_c, 14, 53, 76
16, 161489, Note_on_c, 14, 53, 0
16, 161520, Note_on_c, 14, 54, 76
16, 161639, Note_on_c, 14, 54, 0
16, 161640, Note_on_c, 14, 53, 76
16, 161729, Note_on_c, 14, 53, 0
16, 161760, Note_on_c, 14, 54, 76
16, 161879, Note_on_c, 14, 54, 0
16, 161880, Note_on_c, 14, 53, 76
16, 161969, Note_on_c, 14, 53, 0
16, 162000, Note_on_c, 14, 54, 76
16, 162119, Note_on_c, 14, 54, 0
16, 162120, Note_on_c, 14, 53, 76
16, 162209, Note_on_c, 14, 53, 0
16, 162240, Note_on_c, 14, 54, 76
16, 162359, Note_on_c, 14, 54, 0
16, 162360, Note_on_c, 14, 53, 76
16, 162449, Note_on_c, 14, 53, 0
16, 162480, Note_on_c, 14, 54, 76
16, 162599, Note_on_c, 14, 54, 0
16, 162600, Note_on_c, 14, 53, 76
16, 162689, Note_on_c, 14, 53, 0
16, 162720, Note_on_c, 14, 54, 76
16, 162899, Note_on_c, 14, 54, 0
16, 162960, Note_on_c, 14, 46, 76
16, 163139, Note_on_c, 14, 46, 0
16, 163200, Note_on_c, 14, 49, 76
16, 163379, Note_on_c, 14, 49, 0
16, 163440, Note_on_c, 14, 54, 84
16, 163619, Note_on_c, 14, 54, 0
16, 163680, Note_on_c, 14, 49, 76
16, 163859, Note_on_c, 14, 49, 0
16, 163920, Note_on_c, 14, 46, 76
16, 164099, Note_on_c, 14, 46, 0
16, 164160, Note_on_c, 14, 42, 76
16, 164339, Note_on_c, 14, 42, 0
16, 164400, Note_on_c, 14, 46, 76
16, 164579, Note_on_c, 14, 46, 0
16, 164640, Note_on_c, 14, 49, 76
16, 164819, Note_on_c, 14, 49, 0
16, 164880, Note_on_c, 14, 54, 84
16, 165059, Note_on_c, 14, 54, 0
16, 165120, Note_on_c, 14, 49, 76
16, 165299, Note_on_c, 14, 49, 0
16, 165360, Note_on_c, 14, 46, 76
16, 165539, Note_on_c, 14, 46, 0
16, 165600, Note_on_c, 14, 42, 52
16, 165689, Note_on_c, 14, 42, 0
16, 165720, Note_on_c, 14, 42, 52
16, 165809, Note_on_c, 14, 42, 0
16, 165840, Note_on_c, 14, 42, 52
16, 165929, Note_on_c, 14, 42, 0
16, 165960, Note_on_c, 14, 42, 51
16, 166049, Note_on_c, 14, 42, 0
16, 166080, Note_on_c, 14, 42, 51
16, 166169, Note_on_c, 14, 42, 0
16, 166200, Note_on_c, 14, 42, 51
16, 166289, Note_on_c, 14, 42, 0
16, 166320, Note_on_c, 14, 54, 50
16, 166409, Note_on_c, 14, 54, 0
16, 166440, Note_on_c, 14, 54, 50
16, 166529, Note_on_c, 14, 54, 0
16, 166560, Note_on_c, 14, 54, 50
16, 166649, Note_on_c, 14, 54, 0
16, 166680, Note_on_c, 14, 54, 49
16, 166769, Note_on_c, 14, 54, 0
16, 166800, Note_on_c, 14, 54, 49
16, 166889, Note_on_c, 14, 54, 0
16, 166920, Note_on_c, 14, 54, 49
16, 167009, Note_on_c, 14, 54, 0
16, 167040, Note_on_c, 14, 42, 48
16, 167129, Note_on_c, 14, 42, 0
16, 167160, Note_on_c, 14, 42, 48
16, 167249, Note_on_c, 14, 42, 0
16, 167280, Note_on_c, 14, 42, 48
16, 167369, Note_on_c, 14, 42, 0
16, 167400, Note_on_c, 14, 42, 47
16, 167489, Note_on_c, 14, 42, 0
16, 167520, Note_on_c, 14, 42, 47
16, 167609, Note_on_c, 14, 42, 0
16, 167640, Note_on_c, 14, 42, 47
16, 167729, Note_on_c, 14, 42, 0
16, 167760, Note_on_c, 14, 42, 46
16, 167849, Note_on_c, 14, 42, 0
16, 167880, Note_on_c, 14, 42, 46
16, 167969, Note_on_c, 14, 42, 0
16, 168000, Note_on_c, 14, 42, 46
16, 168089, Note_on_c, 14, 42, 0
16, 168120, Note_on_c, 14, 42, 45
16, 168209, Note_on_c, 14, 42, 0
16, 168240, Note_on_c, 14, 42, 45
16, 168329, Note_on_c, 14, 42, 0
16, 168360, Note_on_c, 14, 42, 45
16, 168449, Note_on_c, 14, 42, 0
16, 168480, Note_on_c, 14, 42, 44
16, 169919, Note_on_c, 14, 42, 0
16, 171120, Note_on_c, 14, 45, 84
16, 171359, Note_on_c, 14, 45, 0
16, 171360, Note_on_c, 14, 50, 52
16, 171599, Note_on_c, 14, 50, 0
16, 176880, Program_c, 14, 45
16, 177120, Note_on_c, 14, 50, 52
16, 177359, Note_on_c, 14, 50, 0
16, 177360, Note_on_c, 14, 62, 52
16, 177599, Note_on_c, 14, 62, 0
16, 177600, Note_on_c, 14, 61, 52
16, 177839, Note_on_c, 14, 61, 0
16, 177840, Note_on_c, 14, 59, 52
16, 178079, Note_on_c, 14, 59, 0
16, 178080, Note_on_c, 14, 57, 52
16, 178319, Note_on_c, 14, 57, 0
16, 178320, Note_on_c, 14, 55, 52
16, 178559, Note_on_c, 14, 55, 0
16, 178560, Note_on_c, 14, 54, 52
16, 178799, Note_on_c, 14, 54, 0
16, 178800, Note_on_c, 14, 52, 52
16, 179039, Note_on_c, 14, 52, 0
16, 179040, Note_on_c, 14, 50, 52
16, 179279, Note_on_c, 14, 50, 0
16, 179280, Note_on_c, 14, 57, 52
16, 179519, Note_on_c, 14, 57, 0
16, 179760, Note_on_c, 14, 54, 52
16, 179999, Note_on_c, 14, 54, 0
16, 180000, Note_on_c, 14, 52, 52
16, 180239, Note_on_c, 14, 52, 0
16, 180240, Note_on_c, 14, 64, 60
16, 180479, Note_on_c, 14, 64, 0
16, 180480, Note_on_c, 14, 62, 68
16, 180719, Note_on_c, 14, 62, 0
16, 180720, Note_on_c, 14, 61, 84
16, 180959, Note_on_c, 14, 61, 0
16, 180960, Note_on_c, 14, 59, 76
16, 181199, Note_on_c, 14, 59, 0
16, 181200, Note_on_c, 14, 57, 76
16, 181439, Note_on_c, 14, 57, 0
16, 181440, Note_on_c, 14, 62, 52
16, 181679, Note_on_c, 14, 62, 0
16, 181680, Note_on_c, 14, 55, 52
16, 181919, Note_on_c, 14, 55, 0
16, 181920, Note_on_c, 14, 57, 52
16, 182159, Note_on_c, 14, 57, 0
16, 182160, Note_on_c, 14, 50, 52
16, 182399, Note_on_c, 14, 50, 0
16, 182640, Note_on_c, 14, 57, 52
16, 182879, Note_on_c, 14, 57, 0
16, 182880, Note_on_c, 14, 62, 52
16, 183119, Note_on_c, 14, 62, 0
16, 183120, Note_on_c, 14, 55, 52
16, 183359, Note_on_c, 14, 55, 0
16, 183360, Note_on_c, 14, 57, 52
16, 183599, Note_on_c, 14, 57, 0
16, 183600, Note_on_c, 14, 50, 52
16, 183839, Note_on_c, 14, 50, 0
16, 184080, Note_on_c, 14, 57, 60
16, 184319, Note_on_c, 14, 57, 0
16, 184320, Note_on_c, 14, 62, 64
16, 184559, Note_on_c, 14, 62, 0
16, 184800, Note_on_c, 14, 57, 72
16, 185039, Note_on_c, 14, 57, 0
16, 185040, Note_on_c, 14, 62, 76
16, 185279, Note_on_c, 14, 62, 0
16, 185520, Note_on_c, 14, 57, 52
16, 185759, Note_on_c, 14, 57, 0
16, 185760, Note_on_c, 14, 62, 52
16, 185999, Note_on_c, 14, 62, 0
16, 186000, Note_on_c, 14, 55, 52
16, 186239, Note_on_c, 14, 55, 0
16, 186240, Note_on_c, 14, 57, 52
16, 186479, Note_on_c, 14, 57, 0
16, 186480, Note_on_c, 14, 50, 52
16, 186719, Note_on_c, 14, 50, 0
16, 186960, Program_c, 14, 48
16, 187200, Note_on_c, 14, 50, 76
16, 187379, Note_on_c, 14, 50, 0
16, 187440, Note_on_c, 14, 52, 76
16, 187619, Note_on_c, 14, 52, 0
16, 187680, Note_on_c, 14, 54, 76
16, 187859, Note_on_c, 14, 54, 0
16, 188640, Note_on_c, 14, 55, 76
16, 188819, Note_on_c, 14, 55, 0
16, 188880, Note_on_c, 14, 57, 76
16, 189059, Note_on_c, 14, 57, 0
16, 189120, Note_on_c, 14, 59, 76
16, 189299, Note_on_c, 14, 59, 0
16, 192240, Note_on_c, 14, 50, 84
16, 192419, Note_on_c, 14, 50, 0
16, 192480, Note_on_c, 14, 45, 84
16, 192659, Note_on_c, 14, 45, 0
16, 192720, Note_on_c, 14, 50, 84
16, 192899, Note_on_c, 14, 50, 0
16, 192960, Note_on_c, 14, 50, 76
16, 193139, Note_on_c, 14, 50, 0
16, 193200, Note_on_c, 14, 52, 76
16, 193379, Note_on_c, 14, 52, 0
16, 193440, Note_on_c, 14, 54, 76
16, 193619, Note_on_c, 14, 54, 0
16, 194400, Note_on_c, 14, 56, 76
16, 194579, Note_on_c, 14, 56, 0
16, 194640, Note_on_c, 14, 57, 76
16, 194819, Note_on_c, 14, 57, 0
16, 194880, Note_on_c, 14, 59, 76
16, 195059, Note_on_c, 14, 59, 0
16, 198000, Note_on_c, 14, 57, 84
16, 198179, Note_on_c, 14, 57, 0
16, 198240, Note_on_c, 14, 52, 84
16, 198419, Note_on_c, 14, 52, 0
16, 198480, Note_on_c, 14, 57, 84
16, 198659, Note_on_c, 14, 57, 0
16, 198720, Note_on_c, 14, 50, 76
16, 198899, Note_on_c, 14, 50, 0
16, 198960, Note_on_c, 14, 52, 76
16, 199139, Note_on_c, 14, 52, 0
16, 199200, Note_on_c, 14, 54, 76
16, 199379, Note_on_c, 14, 54, 0
16, 200160, Note_on_c, 14, 55, 76
16, 200339, Note_on_c, 14, 55, 0
16, 200400, Note_on_c, 14, 57, 76
16, 200579, Note_on_c, 14, 57, 0
16, 200640, Note_on_c, 14, 59, 76
16, 200819, Note_on_c, 14, 59, 0
16, 203760, Note_on_c, 14, 50, 84
16, 203939, Note_on_c, 14, 50, 0
16, 204000, Note_on_c, 14, 45, 84
16, 204179, Note_on_c, 14, 45, 0
16, 204240, Note_on_c, 14, 50, 84
16, 204419, Note_on_c, 14, 50, 0
16, 204480, Note_on_c, 14, 50, 76
16, 204659, Note_on_c, 14, 50, 0
16, 204720, Note_on_c, 14, 52, 76
16, 204899, Note_on_c, 14, 52, 0
16, 204960, Note_on_c, 14, 54, 76
16, 205139, Note_on_c, 14, 54, 0
16, 205920, Note_on_c, 14, 56, 76
16, 206099, Note_on_c, 14, 56, 0
16, 206160, Note_on_c, 14, 57, 76
16, 206339, Note_on_c, 14, 57, 0
16, 206400, Note_on_c, 14, 59, 76
16, 206579, Note_on_c, 14, 59, 0
16, 209520, Note_on_c, 14, 57, 84
16, 209699, Note_on_c, 14, 57, 0
16, 209760, Note_on_c, 14, 52, 84
16, 209939, Note_on_c, 14, 52, 0
16, 210000, Note_on_c, 14, 57, 84
16, 210179, Note_on_c, 14, 57, 0
16, 210240, Note_on_c, 14, 57, 52
16, 210419, Note_on_c, 14, 57, 0
16, 210480, Note_on_c, 14, 59, 52
16, 210659, Note_on_c, 14, 59, 0
16, 210720, Note_on_c, 14, 61, 52
16, 210899, Note_on_c, 14, 61, 0
16, 210960, Note_on_c, 14, 62, 52
16, 211199, Note_on_c, 14, 62, 0
16, 211680, Note_on_c, 14, 53, 52
16, 211859, Note_on_c, 14, 53, 0
16, 211920, Note_on_c, 14, 55, 52
16, 212099, Note_on_c, 14, 55, 0
16, 212160, Note_on_c, 14, 57, 52
16, 212339, Note_on_c, 14, 57, 0
16, 212400, Note_on_c, 14, 58, 52
16, 212639, Note_on_c, 14, 58, 0
16, 213120, Note_on_c, 14, 46, 52
16, 213299, Note_on_c, 14, 46, 0
16, 213360, Note_on_c, 14, 46, 76
16, 213480, Control_c, 14, 11, 80
16, 214769, Note_on_c, 14, 46, 0
16, 214800, Note_on_c, 14, 46, 76
16, 215009, Note_on_c, 14, 46, 0
16, 215040, Note_on_c, 14, 46, 76
16, 215249, Note_on_c, 14, 46, 0
16, 215280, Note_on_c, 14, 46, 76
16, 215489, Note_on_c, 14, 46, 0
16, 215520, Note_on_c, 14, 46, 76
16, 215729, Note_on_c, 14, 46, 0
16, 215760, Note_on_c, 14, 46, 76
16, 215969, Note_on_c, 14, 46, 0
16, 216000, Note_on_c, 14, 46, 76
16, 216179, Note_on_c, 14, 46, 0
16, 216240, Note_on_c, 14, 46, 76
16, 216240, Control_c, 14, 11, 127
16, 216360, Control_c, 14, 11, 80
16, 217649, Note_on_c, 14, 46, 0
16, 217680, Note_on_c, 14, 46, 76
16, 217889, Note_on_c, 14, 46, 0
16, 217920, Note_on_c, 14, 46, 76
16, 218129, Note_on_c, 14, 46, 0
16, 218160, Note_on_c, 14, 46, 76
16, 218369, Note_on_c, 14, 46, 0
16, 218400, Note_on_c, 14, 46, 76
16, 218609, Note_on_c, 14, 46, 0
16, 218640, Note_on_c, 14, 46, 76
16, 218849, Note_on_c, 14, 46, 0
16, 218880, Note_on_c, 14, 46, 76
16, 219119, Note_on_c, 14, 46, 0
16, 219360, Control_c, 14, 11, 127
16, 219600, Note_on_c, 14, 45, 52
16, 219839, Note_on_c, 14, 45, 0
16, 220320, Note_on_c, 14, 44, 52
16, 220559, Note_on_c, 14, 44, 0
16, 221040, Note_on_c, 14, 56, 52
16, 221279, Note_on_c, 14, 56, 0
16, 221760, Note_on_c, 14, 57, 44
16, 221999, Note_on_c, 14, 57, 0
16, 222240, Note_on_c, 14, 49, 44
16, 222479, Note_on_c, 14, 49, 0
16, 222480, Note_on_c, 14, 50, 44
16, 222719, Note_on_c, 14, 50, 0
16, 222720, Note_on_c, 14, 53, 44
16, 222959, Note_on_c, 14, 53, 0
16, 222960, Note_on_c, 14, 56, 44
16, 223169, Note_on_c, 14, 56, 0
16, 223200, Note_on_c, 14, 57, 44
16, 223439, Note_on_c, 14, 57, 0
16, 223440, Control_c, 14, 11, 64
16, 223680, Note_on_c, 14, 49, 76
16, 223680, Control_c, 14, 11, 64
16, 223880, Control_c, 14, 11, 69
16, 223919, Note_on_c, 14, 49, 0
16, 223920, Note_on_c, 14, 50, 76
16, 224080, Control_c, 14, 11, 75
16, 224159, Note_on_c, 14, 50, 0
16, 224160, Note_on_c, 14, 53, 76
16, 224280, Control_c, 14, 11, 80
16, 224399, Note_on_c, 14, 53, 0
16, 224400, Note_on_c, 14, 56, 76
16, 224480, Control_c, 14, 11, 85
16, 224609, Note_on_c, 14, 56, 0
16, 224640, Note_on_c, 14, 57, 76
16, 224680, Control_c, 14, 11, 90
16, 224819, Note_on_c, 14, 57, 0
16, 224880, Control_c, 14, 11, 96
16, 226080, Control_c, 14, 11, 127
16, 226080, Note_on_c, 14, 50, 76
16, 226259, Note_on_c, 14, 50, 0
16, 226320, Note_on_c, 14, 52, 76
16, 226499, Note_on_c, 14, 52, 0
16, 226560, Note_on_c, 14, 54, 76
16, 226739, Note_on_c, 14, 54, 0
16, 227520, Note_on_c, 14, 55, 76
16, 227699, Note_on_c, 14, 55, 0
16, 227760, Note_on_c, 14, 57, 76
16, 227939, Note_on_c, 14, 57, 0
16, 228000, Note_on_c, 14, 59, 76
16, 228179, Note_on_c, 14, 59, 0
16, 231120, Note_on_c, 14, 50, 84
16, 231299, Note_on_c, 14, 50, 0
16, 231360, Note_on_c, 14, 45, 84
16, 231539, Note_on_c, 14, 45, 0
16, 231600, Note_on_c, 14, 50, 84
16, 231779, Note_on_c, 14, 50, 0
16, 231840, Note_on_c, 14, 50, 76
16, 232019, Note_on_c, 14, 50, 0
16, 232080, Note_on_c, 14, 52, 76
16, 232259, Note_on_c, 14, 52, 0
16, 232320, Note_on_c, 14, 54, 76
16, 232499, Note_on_c, 14, 54, 0
16, 233280, Note_on_c, 14, 55, 76
16, 233459, Note_on_c, 14, 55, 0
16, 233520, Note_on_c, 14, 57, 76
16, 233699, Note_on_c, 14, 57, 0
16, 233760, Note_on_c, 14, 59, 76
16, 233939, Note_on_c, 14, 59, 0
16, 240480, Note_on_c, 14, 60, 44
16, 240719, Note_on_c, 14, 60, 0
16, 241200, Note_on_c, 14, 53, 44
16, 241439, Note_on_c, 14, 53, 0
16, 241920, Note_on_c, 14, 57, 44
16, 242159, Note_on_c, 14, 57, 0
16, 242640, Note_on_c, 14, 50, 44
16, 242879, Note_on_c, 14, 50, 0
16, 243120, Control_c, 14, 11, 64
16, 243360, Note_on_c, 14, 50, 76
16, 243480, Control_c, 14, 11, 69
16, 243599, Note_on_c, 14, 50, 0
16, 243600, Control_c, 14, 11, 75
16, 243600, Note_on_c, 14, 52, 76
16, 243720, Control_c, 14, 11, 80
16, 243839, Note_on_c, 14, 52, 0
16, 243840, Note_on_c, 14, 53, 76
16, 243840, Control_c, 14, 11, 85
16, 243960, Control_c, 14, 11, 90
16, 244079, Note_on_c, 14, 53, 0
16, 244080, Control_c, 14, 11, 96
16, 244080, Note_on_c, 14, 54, 76
16, 244200, Control_c, 14, 11, 101
16, 244319, Note_on_c, 14, 54, 0
16, 244320, Control_c, 14, 11, 106
16, 244320, Note_on_c, 14, 55, 76
16, 244440, Control_c, 14, 11, 111
16, 244559, Note_on_c, 14, 55, 0
16, 244560, Note_on_c, 14, 56, 76
16, 244560, Control_c, 14, 11, 117
16, 244680, Control_c, 14, 11, 122
16, 244769, Note_on_c, 14, 56, 0
16, 244800, Note_on_c, 14, 57, 76
16, 244800, Control_c, 14, 11, 127
16, 245009, Note_on_c, 14, 57, 0
16, 245040, Note_on_c, 14, 57, 76
16, 245249, Note_on_c, 14, 57, 0
16, 245280, Note_on_c, 14, 57, 76
16, 245489, Note_on_c, 14, 57, 0
16, 245520, Note_on_c, 14, 50, 76
16, 245759, Note_on_c, 14, 50, 0
16, 246240, Note_on_c, 14, 60, 44
16, 246479, Note_on_c, 14, 60, 0
16, 246960, Note_on_c, 14, 53, 44
16, 247199, Note_on_c, 14, 53, 0
16, 247680, Note_on_c, 14, 57, 44
16, 247919, Note_on_c, 14, 57, 0
16, 248400, Note_on_c, 14, 50, 44
16, 248639, Note_on_c, 14, 50, 0
16, 248880, Control_c, 14, 11, 64
16, 249120, Note_on_c, 14, 50, 76
16, 249120, Control_c, 14, 11, 64
16, 249240, Control_c, 14, 11, 69
16, 249359, Note_on_c, 14, 50, 0
16, 249360, Control_c, 14, 11, 75
16, 249360, Note_on_c, 14, 52, 76
16, 249480, Control_c, 14, 11, 80
16, 249599, Note_on_c, 14, 52, 0
16, 249600, Control_c, 14, 11, 85
16, 249600, Note_on_c, 14, 53, 76
16, 249720, Control_c, 14, 11, 90
16, 249839, Note_on_c, 14, 53, 0
16, 249840, Control_c, 14, 11, 96
16, 249840, Note_on_c, 14, 54, 76
16, 249960, Control_c, 14, 11, 101
16, 250079, Note_on_c, 14, 54, 0
16, 250080, Note_on_c, 14, 55, 76
16, 250080, Control_c, 14, 11, 106
16, 250200, Control_c, 14, 11, 111
16, 250319, Note_on_c, 14, 55, 0
16, 250320, Note_on_c, 14, 56, 76
16, 250320, Control_c, 14, 11, 117
16, 250440, Control_c, 14, 11, 122
16, 250529, Note_on_c, 14, 56, 0
16, 250560, Note_on_c, 14, 57, 76
16, 250560, Control_c, 14, 11, 127
16, 250769, Note_on_c, 14, 57, 0
16, 250800, Note_on_c, 14, 57, 76
16, 251009, Note_on_c, 14, 57, 0
16, 251040, Note_on_c, 14, 57, 76
16, 251249, Note_on_c, 14, 57, 0
16, 251280, Note_on_c, 14, 62, 76
16, 251519, Note_on_c, 14, 62, 0
16, 251760, Control_c, 14, 11, 80
16, 252000, Note_on_c, 14, 50, 76
16, 252120, Control_c, 14, 11, 84
16, 252239, Note_on_c, 14, 50, 0
16, 252240, Note_on_c, 14, 52, 76
16, 252240, Control_c, 14, 11, 88
16, 252360, Control_c, 14, 11, 92
16, 252479, Note_on_c, 14, 52, 0
16, 252480, Note_on_c, 14, 53, 76
16, 252480, Control_c, 14, 11, 96
16, 252600, Control_c, 14, 11, 100
16, 252719, Note_on_c, 14, 53, 0
16, 252720, Note_on_c, 14, 54, 76
16, 252720, Control_c, 14, 11, 104
16, 252840, Control_c, 14, 11, 107
16, 252959, Note_on_c, 14, 54, 0
16, 252960, Control_c, 14, 11, 111
16, 252960, Note_on_c, 14, 55, 76
16, 253080, Control_c, 14, 11, 115
16, 253199, Note_on_c, 14, 55, 0
16, 253200, Note_on_c, 14, 56, 76
16, 253200, Control_c, 14, 11, 119
16, 253320, Control_c, 14, 11, 123
16, 253409, Note_on_c, 14, 56, 0
16, 253440, Control_c, 14, 11, 127
16, 253440, Note_on_c, 14, 57, 84
16, 253619, Note_on_c, 14, 57, 0
16, 253680, Note_on_c, 14, 57, 76
16, 253889, Note_on_c, 14, 57, 0
16, 253920, Note_on_c, 14, 57, 76
16, 254129, Note_on_c, 14, 57, 0
16, 254160, Note_on_c, 14, 62, 76
16, 254399, Note_on_c, 14, 62, 0
16, 254880, Note_on_c, 14, 45, 84
16, 255059, Note_on_c, 14, 45, 0
16, 255120, Note_on_c, 14, 57, 76
16, 255329, Note_on_c, 14, 57, 0
16, 255360, Note_on_c, 14, 57, 76
16, 255569, Note_on_c, 14, 57, 0
16, 255600, Note_on_c, 14, 62, 76
16, 255839, Note_on_c, 14, 62, 0
16, 256320, Note_on_c, 14, 45, 84
16, 256529, Note_on_c, 14, 45, 0
16, 256560, Note_on_c, 14, 57, 84
16, 256769, Note_on_c, 14, 57, 0
16, 256800, Note_on_c, 14, 57, 84
16, 257009, Note_on_c, 14, 57, 0
16, 257040, Note_on_c, 14, 57, 84
16, 257249, Note_on_c, 14, 57, 0
16, 257280, Note_on_c, 14, 57, 84
16, 257489, Note_on_c, 14, 57, 0
16, 257520, Note_on_c, 14, 57, 84
16, 257729, Note_on_c, 14, 57, 0
16, 257760, Note_on_c, 14, 62, 84
16, 257999, Note_on_c, 14, 62, 0
16, 258240, Note_on_c, 14, 57, 84
16, 258419, Note_on_c, 14, 57, 0
16, 258480, Note_on_c, 14, 50, 84
16, 258659, Note_on_c, 14, 50, 0
16, 259200, Note_on_c, 14, 57, 52
16, 259379, Note_on_c, 14, 57, 0
16, 259440, Note_on_c, 14, 59, 52
16, 259619, Note_on_c, 14, 59, 0
16, 259680, Note_on_c, 14, 61, 52
16, 259859, Note_on_c, 14, 61, 0
16, 259920, Note_on_c, 14, 62, 52
16, 260159, Note_on_c, 14, 62, 0
16, 260640, Note_on_c, 14, 53, 52
16, 260819, Note_on_c, 14, 53, 0
16, 260880, Note_on_c, 14, 55, 52
16, 261059, Note_on_c, 14, 55, 0
16, 261120, Note_on_c, 14, 57, 52
16, 261299, Note_on_c, 14, 57, 0
16, 261360, Note_on_c, 14, 58, 52
16, 261599, Note_on_c, 14, 58, 0
16, 262080, Note_on_c, 14, 46, 52
16, 262259, Note_on_c, 14, 46, 0
16, 262320, Note_on_c, 14, 46, 76
16, 262440, Control_c, 14, 11, 80
16, 263729, Note_on_c, 14, 46, 0
16, 263760, Note_on_c, 14, 46, 76
16, 263969, Note_on_c, 14, 46, 0
16, 264000, Note_on_c, 14, 46, 76
16, 264209, Note_on_c, 14, 46, 0
16, 264240, Note_on_c, 14, 46, 76
16, 264449, Note_on_c, 14, 46, 0
16, 264480, Note_on_c, 14, 46, 76
16, 264689, Note_on_c, 14, 46, 0
16, 264720, Note_on_c, 14, 46, 76
16, 264929, Note_on_c, 14, 46, 0
16, 264960, Note_on_c, 14, 46, 76
16, 265139, Note_on_c, 14, 46, 0
16, 265200, Note_on_c, 14, 46, 76
16, 265200, Control_c, 14, 11, 127
16, 265320, Control_c, 14, 11, 80
16, 266609, Note_on_c, 14, 46, 0
16, 266640, Note_on_c, 14, 46, 76
16, 266849, Note_on_c, 14, 46, 0
16, 266880, Note_on_c, 14, 46, 76
16, 267089, Note_on_c, 14, 46, 0
16, 267120, Note_on_c, 14, 46, 76
16, 267329, Note_on_c, 14, 46, 0
16, 267360, Note_on_c, 14, 46, 76
16, 267569, Note_on_c, 14, 46, 0
16, 267600, Note_on_c, 14, 46, 76
16, 267809, Note_on_c, 14, 46, 0
16, 267840, Note_on_c, 14, 46, 76
16, 268079, Note_on_c, 14, 46, 0
16, 268320, Control_c, 14, 11, 127
16, 268560, Note_on_c, 14, 45, 52
16, 268799, Note_on_c, 14, 45, 0
16, 269280, Note_on_c, 14, 44, 52
16, 269519, Note_on_c, 14, 44, 0
16, 270000, Note_on_c, 14, 56, 52
16, 270239, Note_on_c, 14, 56, 0
16, 270720, Note_on_c, 14, 57, 44
16, 270959, Note_on_c, 14, 57, 0
16, 271200, Note_on_c, 14, 49, 44
16, 271439, Note_on_c, 14, 49, 0
16, 271440, Note_on_c, 14, 50, 44
16, 271679, Note_on_c, 14, 50, 0
16, 271680, Note_on_c, 14, 53, 44
16, 271919, Note_on_c, 14, 53, 0
16, 271920, Note_on_c, 14, 56, 44
16, 272129, Note_on_c, 14, 56, 0
16, 272160, Note_on_c, 14, 57, 44
16, 272399, Note_on_c, 14, 57, 0
16, 272400, Control_c, 14, 11, 64
16, 272640, Control_c, 14, 11, 64
16, 272640, Note_on_c, 14, 49, 76
16, 272840, Control_c, 14, 11, 69
16, 272879, Note_on_c, 14, 49, 0
16, 272880, Note_on_c, 14, 50, 76
16, 273040, Control_c, 14, 11, 75
16, 273119, Note_on_c, 14, 50, 0
16, 273120, Note_on_c, 14, 53, 76
16, 273240, Control_c, 14, 11, 80
16, 273359, Note_on_c, 14, 53, 0
16, 273360, Note_on_c, 14, 56, 76
16, 273440, Control_c, 14, 11, 85
16, 273569, Note_on_c, 14, 56, 0
16, 273600, Note_on_c, 14, 57, 76
16, 273640, Control_c, 14, 11, 90
16, 273779, Note_on_c, 14, 57, 0
16, 273840, Control_c, 14, 11, 96
16, 275040, Control_c, 14, 11, 127
16, 275040, Note_on_c, 14, 50, 76
16, 275219, Note_on_c, 14, 50, 0
16, 275280, Note_on_c, 14, 52, 76
16, 275459, Note_on_c, 14, 52, 0
16, 275520, Note_on_c, 14, 54, 76
16, 275699, Note_on_c, 14, 54, 0
16, 276480, Note_on_c, 14, 55, 76
16, 276659, Note_on_c, 14, 55, 0
16, 276720, Note_on_c, 14, 57, 76
16, 276899, Note_on_c, 14, 57, 0
16, 276960, Note_on_c, 14, 59, 76
16, 277139, Note_on_c, 14, 59, 0
16, 280080, Note_on_c, 14, 50, 84
16, 280259, Note_on_c, 14, 50, 0
16, 280320, Note_on_c, 14, 45, 84
16, 280499, Note_on_c, 14, 45, 0
16, 280560, Note_on_c, 14, 50, 84
16, 280739, Note_on_c, 14, 50, 0
16, 280800, Note_on_c, 14, 50, 76
16, 280979, Note_on_c, 14, 50, 0
16, 281040, Note_on_c, 14, 52, 76
16, 281219, Note_on_c, 14, 52, 0
16, 281280, Note_on_c, 14, 54, 76
16, 281459, Note_on_c, 14, 54, 0
16, 282240, Note_on_c, 14, 55, 76
16, 282419, Note_on_c, 14, 55, 0
16, 282480, Note_on_c, 14, 57, 76
16, 282659, Note_on_c, 14, 57, 0
16, 282720, Note_on_c, 14, 59, 76
16, 282899, Note_on_c, 14, 59, 0
16, 289440, Note_on_c, 14, 60, 44
16, 289679, Note_on_c, 14, 60, 0
16, 290160, Note_on_c, 14, 53, 44
16, 290399, Note_on_c, 14, 53, 0
16, 290880, Note_on_c, 14, 57, 44
16, 291119, Note_on_c, 14, 57, 0
16, 291600, Note_on_c, 14, 50, 44
16, 291839, Note_on_c, 14, 50, 0
16, 292080, Control_c, 14, 11, 64
16, 292320, Note_on_c, 14, 50, 76
16, 292440, Control_c, 14, 11, 69
16, 292559, Note_on_c, 14, 50, 0
16, 292560, Note_on_c, 14, 52, 76
16, 292560, Control_c, 14, 11, 75
16, 292680, Control_c, 14, 11, 80
16, 292799, Note_on_c, 14, 52, 0
16, 292800, Note_on_c, 14, 53, 76
16, 292800, Control_c, 14, 11, 85
16, 292920, Control_c, 14, 11, 90
16, 293039, Note_on_c, 14, 53, 0
16, 293040, Note_on_c, 14, 54, 76
16, 293040, Control_c, 14, 11, 96
16, 293160, Control_c, 14, 11, 101
16, 293279, Note_on_c, 14, 54, 0
16, 293280, Note_on_c, 14, 55, 76
16, 293280, Control_c, 14, 11, 106
16, 293400, Control_c, 14, 11, 111
16, 293519, Note_on_c, 14, 55, 0
16, 293520, Control_c, 14, 11, 117
16, 293520, Note_on_c, 14, 56, 76
16, 293640, Control_c, 14, 11, 122
16, 293729, Note_on_c, 14, 56, 0
16, 293760, Control_c, 14, 11, 127
16, 293760, Note_on_c, 14, 57, 76
16, 293969, Note_on_c, 14, 57, 0
16, 294000, Note_on_c, 14, 57, 76
16, 294209, Note_on_c, 14, 57, 0
16, 294240, Note_on_c, 14, 57, 76
16, 294449, Note_on_c, 14, 57, 0
16, 294480, Note_on_c, 14, 50, 76
16, 294719, Note_on_c, 14, 50, 0
16, 295200, Note_on_c, 14, 60, 44
16, 295439, Note_on_c, 14, 60, 0
16, 295920, Note_on_c, 14, 53, 44
16, 296159, Note_on_c, 14, 53, 0
16, 296640, Note_on_c, 14, 57, 44
16, 296879, Note_on_c, 14, 57, 0
16, 297360, Note_on_c, 14, 50, 44
16, 297599, Note_on_c, 14, 50, 0
16, 297840, Control_c, 14, 11, 64
16, 298080, Note_on_c, 14, 50, 76
16, 298080, Control_c, 14, 11, 64
16, 298200, Control_c, 14, 11, 69
16, 298319, Note_on_c, 14, 50, 0
16, 298320, Note_on_c, 14, 52, 76
16, 298320, Control_c, 14, 11, 75
16, 298440, Control_c, 14, 11, 80
16, 298559, Note_on_c, 14, 52, 0
16, 298560, Note_on_c, 14, 53, 76
16, 298560, Control_c, 14, 11, 85
16, 298680, Control_c, 14, 11, 90
16, 298799, Note_on_c, 14, 53, 0
16, 298800, Note_on_c, 14, 54, 76
16, 298800, Control_c, 14, 11, 96
16, 298920, Control_c, 14, 11, 101
16, 299039, Note_on_c, 14, 54, 0
16, 299040, Control_c, 14, 11, 106
16, 299040, Note_on_c, 14, 55, 76
16, 299160, Control_c, 14, 11, 111
16, 299279, Note_on_c, 14, 55, 0
16, 299280, Note_on_c, 14, 56, 76
16, 299280, Control_c, 14, 11, 117
16, 299400, Control_c, 14, 11, 122
16, 299489, Note_on_c, 14, 56, 0
16, 299520, Note_on_c, 14, 57, 76
16, 299520, Control_c, 14, 11, 127
16, 299729, Note_on_c, 14, 57, 0
16, 299760, Note_on_c, 14, 57, 76
16, 299969, Note_on_c, 14, 57, 0
16, 300000, Note_on_c, 14, 57, 76
16, 300209, Note_on_c, 14, 57, 0
16, 300240, Note_on_c, 14, 62, 76
16, 300479, Note_on_c, 14, 62, 0
16, 300720, Control_c, 14, 11, 80
16, 300960, Note_on_c, 14, 50, 76
16, 301080, Control_c, 14, 11, 84
16, 301199, Note_on_c, 14, 50, 0
16, 301200, Control_c, 14, 11, 88
16, 301200, Note_on_c, 14, 52, 76
16, 301320, Control_c, 14, 11, 92
16, 301439, Note_on_c, 14, 52, 0
16, 301440, Control_c, 14, 11, 96
16, 301440, Note_on_c, 14, 53, 76
16, 301560, Control_c, 14, 11, 100
16, 301679, Note_on_c, 14, 53, 0
16, 301680, Control_c, 14, 11, 104
16, 301680, Note_on_c, 14, 54, 76
16, 301800, Control_c, 14, 11, 107
16, 301919, Note_on_c, 14, 54, 0
16, 301920, Note_on_c, 14, 55, 76
16, 301920, Control_c, 14, 11, 111
16, 302040, Control_c, 14, 11, 115
16, 302159, Note_on_c, 14, 55, 0
16, 302160, Control_c, 14, 11, 119
16, 302160, Note_on_c, 14, 56, 76
16, 302280, Control_c, 14, 11, 123
16, 302369, Note_on_c, 14, 56, 0
16, 302400, Note_on_c, 14, 57, 84
16, 302400, Control_c, 14, 11, 127
16, 302579, Note_on_c, 14, 57, 0
16, 302640, Note_on_c, 14, 57, 76
16, 302849, Note_on_c, 14, 57, 0
16, 302880, Note_on_c, 14, 57, 76
16, 303089, Note_on_c, 14, 57, 0
16, 303120, Note_on_c, 14, 62, 76
16, 303359, Note_on_c, 14, 62, 0
16, 303840, Note_on_c, 14, 45, 84
16, 304019, Note_on_c, 14, 45, 0
16, 304080, Note_on_c, 14, 57, 76
16, 304289, Note_on_c, 14, 57, 0
16, 304320, Note_on_c, 14, 57, 76
16, 304529, Note_on_c, 14, 57, 0
16, 304560, Note_on_c, 14, 62, 76
16, 304799, Note_on_c, 14, 62, 0
16, 305280, Note_on_c, 14, 45, 84
16, 305489, Note_on_c, 14, 45, 0
16, 305520, Note_on_c, 14, 57, 84
16, 305729, Note_on_c, 14, 57, 0
16, 305760, Note_on_c, 14, 57, 84
16, 305969, Note_on_c, 14, 57, 0
16, 306000, Note_on_c, 14, 57, 84
16, 306209, Note_on_c, 14, 57, 0
16, 306240, Note_on_c, 14, 57, 84
16, 306449, Note_on_c, 14, 57, 0
16, 306480, Note_on_c, 14, 57, 84
16, 306689, Note_on_c, 14, 57, 0
16, 306720, Note_on_c, 14, 62, 84
16, 306959, Note_on_c, 14, 62, 0
16, 307200, Note_on_c, 14, 57, 84
16, 307379, Note_on_c, 14, 57, 0
16, 307440, Note_on_c, 14, 50, 84
16, 307619, Note_on_c, 14, 50, 0
16, 307619, End_track
17, 0, Start_track
17, 0, Title_t, "Contrabass"
17, 0, MIDI_port, 0
17, 0, Program_c, 15, 48
17, 0, Control_c, 15, 7, 88
17, 0, Control_c, 15, 10, 100
17, 0, Control_c, 15, 11, 127
17, 0, Note_on_c, 15, 38, 76
17, 179, Note_on_c, 15, 38, 0
17, 240, Note_on_c, 15, 40, 76
17, 419, Note_on_c, 15, 40, 0
17, 480, Note_on_c, 15, 42, 76
17, 659, Note_on_c, 15, 42, 0
17, 1440, Note_on_c, 15, 43, 76
17, 1619, Note_on_c, 15, 43, 0
17, 1680, Note_on_c, 15, 45, 76
17, 1859, Note_on_c, 15, 45, 0
17, 1920, Note_on_c, 15, 47, 76
17, 2099, Note_on_c, 15, 47, 0
17, 5040, Note_on_c, 15, 38, 84
17, 5219, Note_on_c, 15, 38, 0
17, 5280, Note_on_c, 15, 33, 84
17, 5459, Note_on_c, 15, 33, 0
17, 5520, Note_on_c, 15, 38, 84
17, 5699, Note_on_c, 15, 38, 0
17, 5760, Note_on_c, 15, 38, 76
17, 5939, Note_on_c, 15, 38, 0
17, 6000, Note_on_c, 15, 40, 76
17, 6179, Note_on_c, 15, 40, 0
17, 6240, Note_on_c, 15, 42, 76
17, 6419, Note_on_c, 15, 42, 0
17, 7200, Note_on_c, 15, 44, 76
17, 7379, Note_on_c, 15, 44, 0
17, 7440, Note_on_c, 15, 45, 76
17, 7619, Note_on_c, 15, 45, 0
17, 7680, Note_on_c, 15, 47, 76
17, 7859, Note_on_c, 15, 47, 0
17, 10800, Note_on_c, 15, 45, 84
17, 10979, Note_on_c, 15, 45, 0
17, 11040, Note_on_c, 15, 40, 84
17, 11219, Note_on_c, 15, 40, 0
17, 11280, Note_on_c, 15, 45, 84
17, 11459, Note_on_c, 15, 45, 0
17, 11520, Note_on_c, 15, 38, 76
17, 11699, Note_on_c, 15, 38, 0
17, 11760, Note_on_c, 15, 40, 76
17, 11939, Note_on_c, 15, 40, 0
17, 12000, Note_on_c, 15, 42, 76
17, 12179, Note_on_c, 15, 42, 0
17, 12960, Note_on_c, 15, 43, 76
17, 13139, Note_on_c, 15, 43, 0
17, 13200, Note_on_c, 15, 45, 76
17, 13379, Note_on_c, 15, 45, 0
17, 13440, Note_on_c, 15, 47, 76
17, 13619, Note_on_c, 15, 47, 0
17, 16560, Note_on_c, 15, 38, 84
17, 16739, Note_on_c, 15, 38, 0
17, 16800, Note_on_c, 15, 33, 84
17, 16979, Note_on_c, 15, 33, 0
17, 17040, Note_on_c, 15, 38, 84
17, 17219, Note_on_c, 15, 38, 0
17, 17280, Note_on_c, 15, 38, 76
17, 17459, Note_on_c, 15, 38, 0
17, 17520, Note_on_c, 15, 40, 76
17, 17699, Note_on_c, 15, 40, 0
17, 17760, Note_on_c, 15, 42, 76
17, 17939, Note_on_c, 15, 42, 0
17, 18720, Note_on_c, 15, 44, 76
17, 18899, Note_on_c, 15, 44, 0
17, 18960, Note_on_c, 15, 45, 76
17, 19139, Note_on_c, 15, 45, 0
17, 19200, Note_on_c, 15, 47, 76
17, 19379, Note_on_c, 15, 47, 0
17, 22320, Note_on_c, 15, 45, 84
17, 22499, Note_on_c, 15, 45, 0
17, 22560, Note_on_c, 15, 40, 84
17, 22739, Note_on_c, 15, 40, 0
17, 22800, Note_on_c, 15, 45, 84
17, 22979, Note_on_c, 15, 45, 0
17, 23040, Note_on_c, 15, 45, 52
17, 23219, Note_on_c, 15, 45, 0
17, 23280, Note_on_c, 15, 47, 52
17, 23459, Note_on_c, 15, 47, 0
17, 23520, Note_on_c, 15, 49, 52
17, 23699, Note_on_c, 15, 49, 0
17, 23760, Note_on_c, 15, 50, 52
17, 23999, Note_on_c, 15, 50, 0
17, 24480, Note_on_c, 15, 41, 52
17, 24659, Note_on_c, 15, 41, 0
17, 24720, Note_on_c, 15, 43, 52
17, 24899, Note_on_c, 15, 43, 0
17, 24960, Note_on_c, 15, 45, 52
17, 25139, Note_on_c, 15, 45, 0
17, 25200, Note_on_c, 15, 46, 52
17, 25439, Note_on_c, 15, 46, 0
17, 25920, Note_on_c, 15, 34, 52
17, 26099, Note_on_c, 15, 34, 0
17, 26160, Note_on_c, 15, 34, 76
17, 26280, Control_c, 15, 11, 80
17, 27569, Note_on_c, 15, 34, 0
17, 27600, Note_on_c, 15, 34, 76
17, 27809, Note_on_c, 15, 34, 0
17, 27840, Note_on_c, 15, 34, 76
17, 28049, Note_on_c, 15, 34, 0
17, 28080, Note_on_c, 15, 34, 76
17, 28289, Note_on_c, 15, 34, 0
17, 28320, Note_on_c, 15, 34, 76
17, 28529, Note_on_c, 15, 34, 0
17, 28560, Note_on_c, 15, 34, 76
17, 28769, Note_on_c, 15, 34, 0
17, 28800, Note_on_c, 15, 34, 76
17, 28979, Note_on_c, 15, 34, 0
17, 29040, Note_on_c, 15, 34, 76
17, 29040, Control_c, 15, 11, 127
17, 29160, Control_c, 15, 11, 80
17, 30449, Note_on_c, 15, 34, 0
17, 30480, Note_on_c, 15, 34, 76
17, 30689, Note_on_c, 15, 34, 0
17, 30720, Note_on_c, 15, 34, 76
17, 30929, Note_on_c, 15, 34, 0
17, 30960, Note_on_c, 15, 34, 76
17, 31169, Note_on_c, 15, 34, 0
17, 31200, Note_on_c, 15, 34, 76
17, 31409, Note_on_c, 15, 34, 0
17, 31440, Note_on_c, 15, 34, 76
17, 31649, Note_on_c, 15, 34, 0
17, 31680, Note_on_c, 15, 34, 76
17, 31919, Note_on_c, 15, 34, 0
17, 32160, Control_c, 15, 11, 127
17, 32400, Note_on_c, 15, 33, 52
17, 32639, Note_on_c, 15, 33, 0
17, 33120, Note_on_c, 15, 32, 52
17, 33359, Note_on_c, 15, 32, 0
17, 33840, Note_on_c, 15, 44, 52
17, 34079, Note_on_c, 15, 44, 0
17, 34545, Control_c, 15, 11, 64
17, 34560, Note_on_c, 15, 33, 76
17, 36480, Control_c, 15, 11, 64
17, 36547, Control_c, 15, 11, 66
17, 36613, Control_c, 15, 11, 68
17, 36680, Control_c, 15, 11, 69
17, 36747, Control_c, 15, 11, 71
17, 36813, Control_c, 15, 11, 73
17, 36880, Control_c, 15, 11, 75
17, 36947, Control_c, 15, 11, 76
17, 37013, Control_c, 15, 11, 78
17, 37080, Control_c, 15, 11, 80
17, 37147, Control_c, 15, 11, 82
17, 37213, Control_c, 15, 11, 83
17, 37280, Control_c, 15, 11, 85
17, 37347, Control_c, 15, 11, 87
17, 37413, Control_c, 15, 11, 89
17, 37480, Control_c, 15, 11, 90
17, 37547, Control_c, 15, 11, 92
17, 37613, Control_c, 15, 11, 94
17, 37679, Note_on_c, 15, 33, 0
17, 38640, Control_c, 15, 11, 127
17, 38880, Note_on_c, 15, 38, 76
17, 39059, Note_on_c, 15, 38, 0
17, 39120, Note_on_c, 15, 40, 76
17, 39299, Note_on_c, 15, 40, 0
17, 39360, Note_on_c, 15, 42, 76
17, 39539, Note_on_c, 15, 42, 0
17, 40320, Note_on_c, 15, 43, 76
17, 40499, Note_on_c, 15, 43, 0
17, 40560, Note_on_c, 15, 45, 76
17, 40739, Note_on_c, 15, 45, 0
17, 40800, Note_on_c, 15, 47, 76
17, 40979, Note_on_c, 15, 47, 0
17, 43920, Note_on_c, 15, 38, 84
17, 44099, Note_on_c, 15, 38, 0
17, 44160, Note_on_c, 15, 33, 84
17, 44339, Note_on_c, 15, 33, 0
17, 44400, Note_on_c, 15, 38, 84
17, 44579, Note_on_c, 15, 38, 0
17, 44640, Note_on_c, 15, 38, 76
17, 44819, Note_on_c, 15, 38, 0
17, 44880, Note_on_c, 15, 40, 76
17, 45059, Note_on_c, 15, 40, 0
17, 45120, Note_on_c, 15, 42, 76
17, 45299, Note_on_c, 15, 42, 0
17, 46080, Note_on_c, 15, 43, 76
17, 46259, Note_on_c, 15, 43, 0
17, 46320, Note_on_c, 15, 45, 76
17, 46499, Note_on_c, 15, 45, 0
17, 46560, Note_on_c, 15, 47, 76
17, 46739, Note_on_c, 15, 47, 0
17, 53280, Note_on_c, 15, 48, 44
17, 53519, Note_on_c, 15, 48, 0
17, 54000, Note_on_c, 15, 41, 44
17, 54239, Note_on_c, 15, 41, 0
17, 54720, Note_on_c, 15, 45, 44
17, 54959, Note_on_c, 15, 45, 0
17, 55440, Note_on_c, 15, 38, 44
17, 55679, Note_on_c, 15, 38, 0
17, 55920, Control_c, 15, 11, 64
17, 56160, Note_on_c, 15, 34, 76
17, 56160, Control_c, 15, 11, 64
17, 56280, Control_c, 15, 11, 69
17, 56400, Control_c, 15, 11, 75
17, 56520, Control_c, 15, 11, 80
17, 56640, Control_c, 15, 11, 85
17, 56760, Control_c, 15, 11, 90
17, 56880, Control_c, 15, 11, 96
17, 57000, Control_c, 15, 11, 101
17, 57120, Control_c, 15, 11, 106
17, 57240, Control_c, 15, 11, 111
17, 57360, Control_c, 15, 11, 117
17, 57480, Control_c, 15, 11, 122
17, 57569, Note_on_c, 15, 34, 0
17, 57600, Note_on_c, 15, 33, 76
17, 57600, Control_c, 15, 11, 127
17, 57809, Note_on_c, 15, 33, 0
17, 57840, Note_on_c, 15, 45, 76
17, 58049, Note_on_c, 15, 45, 0
17, 58080, Note_on_c, 15, 45, 76
17, 58289, Note_on_c, 15, 45, 0
17, 58320, Note_on_c, 15, 38, 76
17, 58559, Note_on_c, 15, 38, 0
17, 59040, Note_on_c, 15, 48, 44
17, 59279, Note_on_c, 15, 48, 0
17, 59760, Note_on_c, 15, 41, 44
17, 59999, Note_on_c, 15, 41, 0
17, 60480, Note_on_c, 15, 45, 44
17, 60719, Note_on_c, 15, 45, 0
17, 61200, Note_on_c, 15, 38, 44
17, 61439, Note_on_c, 15, 38, 0
17, 61680, Control_c, 15, 11, 64
17, 61920, Note_on_c, 15, 34, 76
17, 61920, Control_c, 15, 11, 64
17, 62040, Control_c, 15, 11, 69
17, 62160, Control_c, 15, 11, 75
17, 62280, Control_c, 15, 11, 80
17, 62400, Control_c, 15, 11, 85
17, 62520, Control_c, 15, 11, 90
17, 62640, Control_c, 15, 11, 96
17, 62760, Control_c, 15, 11, 101
17, 62880, Control_c, 15, 11, 106
17, 63000, Control_c, 15, 11, 111
17, 63120, Control_c, 15, 11, 117
17, 63240, Control_c, 15, 11, 122
17, 63329, Note_on_c, 15, 34, 0
17, 63360, Note_on_c, 15, 33, 76
17, 63360, Control_c, 15, 11, 127
17, 63569, Note_on_c, 15, 33, 0
17, 63600, Note_on_c, 15, 45, 76
17, 63809, Note_on_c, 15, 45, 0
17, 63840, Note_on_c, 15, 45, 76
17, 64049, Note_on_c, 15, 45, 0
17, 64080, Note_on_c, 15, 50, 76
17, 64319, Note_on_c, 15, 50, 0
17, 64560, Control_c, 15, 11, 80
17, 64800, Control_c, 15, 11, 80
17, 64800, Note_on_c, 15, 34, 76
17, 64920, Control_c, 15, 11, 84
17, 65040, Control_c, 15, 11, 88
17, 65160, Control_c, 15, 11, 92
17, 65280, Control_c, 15, 11, 96
17, 65400, Control_c, 15, 11, 100
17, 65520, Control_c, 15, 11, 104
17, 65640, Control_c, 15, 11, 107
17, 65760, Control_c, 15, 11, 111
17, 65880, Control_c, 15, 11, 115
17, 66000, Control_c, 15, 11, 119
17, 66120, Control_c, 15, 11, 123
17, 66209, Note_on_c, 15, 34, 0
17, 66240, Control_c, 15, 11, 127
17, 66240, Note_on_c, 15, 33, 84
17, 66419, Note_on_c, 15, 33, 0
17, 66480, Note_on_c, 15, 45, 76
17, 66689, Note_on_c, 15, 45, 0
17, 66720, Note_on_c, 15, 45, 76
17, 66929, Note_on_c, 15, 45, 0
17, 66960, Note_on_c, 15, 50, 76
17, 67199, Note_on_c, 15, 50, 0
17, 67680, Note_on_c, 15, 33, 84
17, 67859, Note_on_c, 15, 33, 0
17, 67920, Note_on_c, 15, 45, 76
17, 68129, Note_on_c, 15, 45, 0
17, 68160, Note_on_c, 15, 45, 76
17, 68369, Note_on_c, 15, 45, 0
17, 68400, Note_on_c, 15, 50, 76
17, 68639, Note_on_c, 15, 50, 0
17, 69120, Note_on_c, 15, 33, 84
17, 69329, Note_on_c, 15, 33, 0
17, 69360, Note_on_c, 15, 45, 84
17, 69569, Note_on_c, 15, 45, 0
17, 69600, Note_on_c, 15, 45, 84
17, 69809, Note_on_c, 15, 45, 0
17, 69840, Note_on_c, 15, 45, 84
17, 70049, Note_on_c, 15, 45, 0
17, 70080, Note_on_c, 15, 45, 84
17, 70289, Note_on_c, 15, 45, 0
17, 70320, Note_on_c, 15, 45, 84
17, 70529, Note_on_c, 15, 45, 0
17, 70560, Note_on_c, 15, 50, 84
17, 70799, Note_on_c, 15, 50, 0
17, 71040, Note_on_c, 15, 45, 84
17, 71219, Note_on_c, 15, 45, 0
17, 71280, Note_on_c, 15, 38, 84
17, 71459, Note_on_c, 15, 38, 0
17, 72000, Note_on_c, 15, 45, 52
17, 72179, Note_on_c, 15, 45, 0
17, 72240, Note_on_c, 15, 47, 52
17, 72419, Note_on_c, 15, 47, 0
17, 72480, Note_on_c, 15, 49, 52
17, 72659, Note_on_c, 15, 49, 0
17, 72720, Note_on_c, 15, 50, 52
17, 72959, Note_on_c, 15, 50, 0
17, 73440, Note_on_c, 15, 41, 52
17, 73619, Note_on_c, 15, 41, 0
17, 73680, Note_on_c, 15, 43, 52
17, 73859, Note_on_c, 15, 43, 0
17, 73920, Note_on_c, 15, 45, 52
17, 74099, Note_on_c, 15, 45, 0
17, 74160, Note_on_c, 15, 46, 52
17, 74399, Note_on_c, 15, 46, 0
17, 74880, Note_on_c, 15, 34, 52
17, 75059, Note_on_c, 15, 34, 0
17, 75120, Note_on_c, 15, 34, 76
17, 75240, Control_c, 15, 11, 80
17, 76529, Note_on_c, 15, 34, 0
17, 76560, Note_on_c, 15, 34, 76
17, 76769, Note_on_c, 15, 34, 0
17, 76800, Note_on_c, 15, 34, 76
17, 77009, Note_on_c, 15, 34, 0
17, 77040, Note_on_c, 15, 34, 76
17, 77249, Note_on_c, 15, 34, 0
17, 77280, Note_on_c, 15, 34, 76
17, 77489, Note_on_c, 15, 34, 0
17, 77520, Note_on_c, 15, 34, 76
17, 77729, Note_on_c, 15, 34, 0
17, 77760, Note_on_c, 15, 34, 76
17, 77939, Note_on_c, 15, 34, 0
17, 78000, Control_c, 15, 11, 127
17, 78000, Note_on_c, 15, 34, 76
17, 78120, Control_c, 15, 11, 80
17, 79409, Note_on_c, 15, 34, 0
17, 79440, Note_on_c, 15, 34, 76
17, 79649, Note_on_c, 15, 34, 0
17, 79680, Note_on_c, 15, 34, 76
17, 79889, Note_on_c, 15, 34, 0
17, 79920, Note_on_c, 15, 34, 76
17, 80129, Note_on_c, 15, 34, 0
17, 80160, Note_on_c, 15, 34, 76
17, 80369, Note_on_c, 15, 34, 0
17, 80400, Note_on_c, 15, 34, 76
17, 80609, Note_on_c, 15, 34, 0
17, 80640, Note_on_c, 15, 34, 76
17, 80879, Note_on_c, 15, 34, 0
17, 81120, Control_c, 15, 11, 127
17, 81360, Note_on_c, 15, 33, 52
17, 81599, Note_on_c, 15, 33, 0
17, 82080, Note_on_c, 15, 32, 52
17, 82319, Note_on_c, 15, 32, 0
17, 82800, Note_on_c, 15, 44, 52
17, 83039, Note_on_c, 15, 44, 0
17, 83505, Control_c, 15, 11, 64
17, 83520, Note_on_c, 15, 33, 76
17, 85440, Control_c, 15, 11, 64
17, 85507, Control_c, 15, 11, 66
17, 85573, Control_c, 15, 11, 68
17, 85640, Control_c, 15, 11, 69
17, 85707, Control_c, 15, 11, 71
17, 85773, Control_c, 15, 11, 73
17, 85840, Control_c, 15, 11, 75
17, 85907, Control_c, 15, 11, 76
17, 85973, Control_c, 15, 11, 78
17, 86040, Control_c, 15, 11, 80
17, 86107, Control_c, 15, 11, 82
17, 86173, Control_c, 15, 11, 83
17, 86240, Control_c, 15, 11, 85
17, 86307, Control_c, 15, 11, 87
17, 86373, Control_c, 15, 11, 89
17, 86440, Control_c, 15, 11, 90
17, 86507, Control_c, 15, 11, 92
17, 86573, Control_c, 15, 11, 94
17, 86639, Note_on_c, 15, 33, 0
17, 87600, Control_c, 15, 11, 127
17, 87840, Note_on_c, 15, 38, 76
17, 88019, Note_on_c, 15, 38, 0
17, 88080, Note_on_c, 15, 40, 76
17, 88259, Note_on_c, 15, 40, 0
17, 88320, Note_on_c, 15, 42, 76
17, 88499, Note_on_c, 15, 42, 0
17, 89280, Note_on_c, 15, 43, 76
17, 89459, Note_on_c, 15, 43, 0
17, 89520, Note_on_c, 15, 45, 76
17, 89699, Note_on_c, 15, 45, 0
17, 89760, Note_on_c, 15, 47, 76
17, 89939, Note_on_c, 15, 47, 0
17, 92880, Note_on_c, 15, 38, 84
17, 93059, Note_on_c, 15, 38, 0
17, 93120, Note_on_c, 15, 33, 84
17, 93299, Note_on_c, 15, 33, 0
17, 93360, Note_on_c, 15, 38, 84
17, 93539, Note_on_c, 15, 38, 0
17, 93600, Note_on_c, 15, 38, 76
17, 93779, Note_on_c, 15, 38, 0
17, 93840, Note_on_c, 15, 40, 76
17, 94019, Note_on_c, 15, 40, 0
17, 94080, Note_on_c, 15, 42, 76
17, 94259, Note_on_c, 15, 42, 0
17, 95040, Note_on_c, 15, 43, 76
17, 95219, Note_on_c, 15, 43, 0
17, 95280, Note_on_c, 15, 45, 76
17, 95459, Note_on_c, 15, 45, 0
17, 95520, Note_on_c, 15, 47, 76
17, 95699, Note_on_c, 15, 47, 0
17, 102240, Note_on_c, 15, 48, 44
17, 102479, Note_on_c, 15, 48, 0
17, 102960, Note_on_c, 15, 41, 44
17, 103199, Note_on_c, 15, 41, 0
17, 103680, Note_on_c, 15, 45, 44
17, 103919, Note_on_c, 15, 45, 0
17, 104400, Note_on_c, 15, 38, 44
17, 104639, Note_on_c, 15, 38, 0
17, 104880, Control_c, 15, 11, 64
17, 105120, Note_on_c, 15, 34, 76
17, 105120, Control_c, 15, 11, 64
17, 105240, Control_c, 15, 11, 69
17, 105360, Control_c, 15, 11, 75
17, 105480, Control_c, 15, 11, 80
17, 105600, Control_c, 15, 11, 85
17, 105720, Control_c, 15, 11, 90
17, 105840, Control_c, 15, 11, 96
17, 105960, Control_c, 15, 11, 101
17, 106080, Control_c, 15, 11, 106
17, 106200, Control_c, 15, 11, 111
17, 106320, Control_c, 15, 11, 117
17, 106440, Control_c, 15, 11, 122
17, 106529, Note_on_c, 15, 34, 0
17, 106560, Control_c, 15, 11, 127
17, 106560, Note_on_c, 15, 33, 76
17, 106769, Note_on_c, 15, 33, 0
17, 106800, Note_on_c, 15, 45, 76
17, 107009, Note_on_c, 15, 45, 0
17, 107040, Note_on_c, 15, 45, 76
17, 107249, Note_on_c, 15, 45, 0
17, 107280, Note_on_c, 15, 38, 76
17, 107519, Note_on_c, 15, 38, 0
17, 108000, Note_on_c, 15, 48, 44
17, 108239, Note_on_c, 15, 48, 0
17, 108720, Note_on_c, 15, 41, 44
17, 108959, Note_on_c, 15, 41, 0
17, 109440, Note_on_c, 15, 45, 44
17, 109679, Note_on_c, 15, 45, 0
17, 110160, Note_on_c, 15, 38, 44
17, 110399, Note_on_c, 15, 38, 0
17, 110640, Control_c, 15, 11, 64
17, 110880, Control_c, 15, 11, 64
17, 110880, Note_on_c, 15, 34, 76
17, 111000, Control_c, 15, 11, 69
17, 111120, Control_c, 15, 11, 75
17, 111240, Control_c, 15, 11, 80
17, 111360, Control_c, 15, 11, 85
17, 111480, Control_c, 15, 11, 90
17, 111600, Control_c, 15, 11, 96
17, 111720, Control_c, 15, 11, 101
17, 111840, Control_c, 15, 11, 106
17, 111960, Control_c, 15, 11, 111
17, 112080, Control_c, 15, 11, 117
17, 112200, Control_c, 15, 11, 122
17, 112289, Note_on_c, 15, 34, 0
17, 112320, Control_c, 15, 11, 127
17, 112320, Note_on_c, 15, 33, 76
17, 112529, Note_on_c, 15, 33, 0
17, 112560, Note_on_c, 15, 45, 76
17, 112769, Note_on_c, 15, 45, 0
17, 112800, Note_on_c, 15, 45, 76
17, 113009, Note_on_c, 15, 45, 0
17, 113040, Note_on_c, 15, 50, 76
17, 113279, Note_on_c, 15, 50, 0
17, 113520, Control_c, 15, 11, 80
17, 113760, Note_on_c, 15, 34, 76
17, 113760, Control_c, 15, 11, 80
17, 113880, Control_c, 15, 11, 84
17, 114000, Control_c, 15, 11, 88
17, 114120, Control_c, 15, 11, 92
17, 114240, Control_c, 15, 11, 96
17, 114360, Control_c, 15, 11, 100
17, 114480, Control_c, 15, 11, 104
17, 114600, Control_c, 15, 11, 107
17, 114720, Control_c, 15, 11, 111
17, 114840, Control_c, 15, 11, 115
17, 114960, Control_c, 15, 11, 119
17, 115080, Control_c, 15, 11, 123
17, 115169, Note_on_c, 15, 34, 0
17, 115200, Note_on_c, 15, 33, 84
17, 115200, Control_c, 15, 11, 127
17, 115379, Note_on_c, 15, 33, 0
17, 115440, Note_on_c, 15, 45, 76
17, 115649, Note_on_c, 15, 45, 0
17, 115680, Note_on_c, 15, 45, 76
17, 115889, Note_on_c, 15, 45, 0
17, 115920, Note_on_c, 15, 50, 76
17, 116159, Note_on_c, 15, 50, 0
17, 116640, Note_on_c, 15, 33, 84
17, 116819, Note_on_c, 15, 33, 0
17, 116880, Note_on_c, 15, 45, 76
17, 117089, Note_on_c, 15, 45, 0
17, 117120, Note_on_c, 15, 45, 76
17, 117329, Note_on_c, 15, 45, 0
17, 117360, Note_on_c, 15, 50, 76
17, 117599, Note_on_c, 15, 50, 0
17, 118080, Note_on_c, 15, 33, 84
17, 118289, Note_on_c, 15, 33, 0
17, 118320, Note_on_c, 15, 45, 84
17, 118529, Note_on_c, 15, 45, 0
17, 118560, Note_on_c, 15, 45, 84
17, 118769, Note_on_c, 15, 45, 0
17, 118800, Note_on_c, 15, 45, 84
17, 119009, Note_on_c, 15, 45, 0
17, 119040, Note_on_c, 15, 45, 84
17, 119249, Note_on_c, 15, 45, 0
17, 119280, Note_on_c, 15, 45, 84
17, 119489, Note_on_c, 15, 45, 0
17, 119520, Note_on_c, 15, 50, 84
17, 119759, Note_on_c, 15, 50, 0
17, 120000, Note_on_c, 15, 45, 84
17, 120179, Note_on_c, 15, 45, 0
17, 120240, Note_on_c, 15, 38, 84
17, 120419, Note_on_c, 15, 38, 0
17, 132480, Note_on_c, 15, 42, 76
17, 133169, Note_on_c, 15, 42, 0
17, 133200, Note_on_c, 15, 42, 84
17, 133889, Note_on_c, 15, 42, 0
17, 133920, Note_on_c, 15, 42, 76
17, 134039, Note_on_c, 15, 42, 0
17, 134040, Note_on_c, 15, 41, 76
17, 134129, Note_on_c, 15, 41, 0
17, 134160, Note_on_c, 15, 42, 76
17, 134279, Note_on_c, 15, 42, 0
17, 134280, Note_on_c, 15, 41, 76
17, 134369, Note_on_c, 15, 41, 0
17, 134400, Note_on_c, 15, 42, 76
17, 134519, Note_on_c, 15, 42, 0
17, 134520, Note_on_c, 15, 41, 76
17, 134609, Note_on_c, 15, 41, 0
17, 134640, Note_on_c, 15, 42, 76
17, 134759, Note_on_c, 15, 42, 0
17, 134760, Note_on_c, 15, 41, 76
17, 134849, Note_on_c, 15, 41, 0
17, 134880, Note_on_c, 15, 42, 76
17, 134999, Note_on_c, 15, 42, 0
17, 135000, Note_on_c, 15, 41, 76
17, 135089, Note_on_c, 15, 41, 0
17, 135120, Note_on_c, 15, 42, 76
17, 135239, Note_on_c, 15, 42, 0
17, 135240, Note_on_c, 15, 41, 76
17, 135329, Note_on_c, 15, 41, 0
17, 135360, Note_on_c, 15, 42, 76
17, 135539, Note_on_c, 15, 42, 0
17, 135600, Note_on_c, 15, 34, 76
17, 135779, Note_on_c, 15, 34, 0
17, 135840, Note_on_c, 15, 37, 76
17, 136019, Note_on_c, 15, 37, 0
17, 136080, Note_on_c, 15, 42, 84
17, 136259, Note_on_c, 15, 42, 0
17, 136320, Note_on_c, 15, 37, 76
17, 136499, Note_on_c, 15, 37, 0
17, 136560, Note_on_c, 15, 34, 76
17, 136739, Note_on_c, 15, 34, 0
17, 136800, Note_on_c, 15, 30, 76
17, 136979, Note_on_c, 15, 30, 0
17, 137040, Note_on_c, 15, 34, 76
17, 137219, Note_on_c, 15, 34, 0
17, 137280, Note_on_c, 15, 37, 76
17, 137459, Note_on_c, 15, 37, 0
17, 137520, Note_on_c, 15, 42, 84
17, 137699, Note_on_c, 15, 42, 0
17, 137760, Note_on_c, 15, 37, 76
17, 137939, Note_on_c, 15, 37, 0
17, 138000, Note_on_c, 15, 34, 76
17, 138179, Note_on_c, 15, 34, 0
17, 138240, Note_on_c, 15, 30, 52
17, 138329, Note_on_c, 15, 30, 0
17, 138360, Note_on_c, 15, 30, 52
17, 138449, Note_on_c, 15, 30, 0
17, 138480, Note_on_c, 15, 30, 52
17, 138569, Note_on_c, 15, 30, 0
17, 138600, Note_on_c, 15, 30, 51
17, 138689, Note_on_c, 15, 30, 0
17, 138720, Note_on_c, 15, 30, 51
17, 138809, Note_on_c, 15, 30, 0
17, 138840, Note_on_c, 15, 30, 51
17, 138929, Note_on_c, 15, 30, 0
17, 138960, Note_on_c, 15, 42, 50
17, 139049, Note_on_c, 15, 42, 0
17, 139080, Note_on_c, 15, 42, 50
17, 139169, Note_on_c, 15, 42, 0
17, 139200, Note_on_c, 15, 42, 50
17, 139289, Note_on_c, 15, 42, 0
17, 139320, Note_on_c, 15, 42, 49
17, 139409, Note_on_c, 15, 42, 0
17, 139440, Note_on_c, 15, 42, 49
17, 139529, Note_on_c, 15, 42, 0
17, 139560, Note_on_c, 15, 42, 49
17, 139649, Note_on_c, 15, 42, 0
17, 139680, Note_on_c, 15, 30, 48
17, 139769, Note_on_c, 15, 30, 0
17, 139800, Note_on_c, 15, 30, 48
17, 139889, Note_on_c, 15, 30, 0
17, 139920, Note_on_c, 15, 30, 48
17, 140009, Note_on_c, 15, 30, 0
17, 140040, Note_on_c, 15, 30, 47
17, 140129, Note_on_c, 15, 30, 0
17, 140160, Note_on_c, 15, 30, 47
17, 140249, Note_on_c, 15, 30, 0
17, 140280, Note_on_c, 15, 30, 47
17, 140369, Note_on_c, 15, 30, 0
17, 140400, Note_on_c, 15, 30, 46
17, 140489, Note_on_c, 15, 30, 0
17, 140520, Note_on_c, 15, 30, 46
17, 140609, Note_on_c, 15, 30, 0
17, 140640, Note_on_c, 15, 30, 46
17, 140729, Note_on_c, 15, 30, 0
17, 140760, Note_on_c, 15, 30, 45
17, 140849, Note_on_c, 15, 30, 0
17, 140880, Note_on_c, 15, 30, 45
17, 140969, Note_on_c, 15, 30, 0
17, 141000, Note_on_c, 15, 30, 45
17, 141089, Note_on_c, 15, 30, 0
17, 141120, Note_on_c, 15, 30, 44
17, 142559, Note_on_c, 15, 30, 0
17, 143760, Note_on_c, 15, 33, 84
17, 143999, Note_on_c, 15, 33, 0
17, 144000, Note_on_c, 15, 38, 52
17, 144239, Note_on_c, 15, 38, 0
17, 149520, Program_c, 15, 45
17, 149760, Note_on_c, 15, 38, 52
17, 149999, Note_on_c, 15, 38, 0
17, 150000, Note_on_c, 15, 50, 52
17, 150239, Note_on_c, 15, 50, 0
17, 150240, Note_on_c, 15, 49, 52
17, 150479, Note_on_c, 15, 49, 0
17, 150480, Note_on_c, 15, 47, 52
17, 150719, Note_on_c, 15, 47, 0
17, 150720, Note_on_c, 15, 45, 52
17, 150959, Note_on_c, 15, 45, 0
17, 150960, Note_on_c, 15, 43, 52
17, 151199, Note_on_c, 15, 43, 0
17, 151200, Note_on_c, 15, 42, 52
17, 151439, Note_on_c, 15, 42, 0
17, 151440, Note_on_c, 15, 40, 52
17, 151679, Note_on_c, 15, 40, 0
17, 151680, Note_on_c, 15, 38, 52
17, 151919, Note_on_c, 15, 38, 0
17, 151920, Note_on_c, 15, 45, 52
17, 152159, Note_on_c, 15, 45, 0
17, 152400, Note_on_c, 15, 42, 52
17, 152639, Note_on_c, 15, 42, 0
17, 152640, Note_on_c, 15, 40, 52
17, 152879, Note_on_c, 15, 40, 0
17, 152880, Note_on_c, 15, 52, 60
17, 153119, Note_on_c, 15, 52, 0
17, 153120, Note_on_c, 15, 50, 68
17, 153359, Note_on_c, 15, 50, 0
17, 153360, Note_on_c, 15, 49, 84
17, 153599, Note_on_c, 15, 49, 0
17, 153600, Note_on_c, 15, 47, 76
17, 153839, Note_on_c, 15, 47, 0
17, 153840, Note_on_c, 15, 45, 76
17, 154079, Note_on_c, 15, 45, 0
17, 154080, Note_on_c, 15, 50, 52
17, 154319, Note_on_c, 15, 50, 0
17, 154320, Note_on_c, 15, 43, 52
17, 154559, Note_on_c, 15, 43, 0
17, 154560, Note_on_c, 15, 45, 52
17, 154799, Note_on_c, 15, 45, 0
17, 154800, Note_on_c, 15, 38, 52
17, 155039, Note_on_c, 15, 38, 0
17, 155280, Note_on_c, 15, 45, 52
17, 155519, Note_on_c, 15, 45, 0
17, 155520, Note_on_c, 15, 50, 52
17, 155759, Note_on_c, 15, 50, 0
17, 155760, Note_on_c, 15, 43, 52
17, 155999, Note_on_c, 15, 43, 0
17, 156000, Note_on_c, 15, 45, 52
17, 156239, Note_on_c, 15, 45, 0
17, 156240, Note_on_c, 15, 38, 52
17, 156479, Note_on_c, 15, 38, 0
17, 156720, Note_on_c, 15, 45, 60
17, 156959, Note_on_c, 15, 45, 0
17, 156960, Note_on_c, 15, 50, 64
17, 157199, Note_on_c, 15, 50, 0
17, 157440, Note_on_c, 15, 45, 72
17, 157679, Note_on_c, 15, 45, 0
17, 157680, Note_on_c, 15, 50, 76
17, 157919, Note_on_c, 15, 50, 0
17, 158160, Note_on_c, 15, 45, 52
17, 158399, Note_on_c, 15, 45, 0
17, 158400, Note_on_c, 15, 50, 52
17, 158639, Note_on_c, 15, 50, 0
17, 158640, Note_on_c, 15, 43, 52
17, 158879, Note_on_c, 15, 43, 0
17, 158880, Note_on_c, 15, 45, 52
17, 159119, Note_on_c, 15, 45, 0
17, 159120, Note_on_c, 15, 38, 52
17, 159359, Note_on_c, 15, 38, 0
17, 159600, Program_c, 15, 48
17, 159840, Note_on_c, 15, 42, 76
17, 160529, Note_on_c, 15, 42, 0
17, 160560, Note_on_c, 15, 42, 84
17, 161249, Note_on_c, 15, 42, 0
17, 161280, Note_on_c, 15, 42, 76
17, 161399, Note_on_c, 15, 42, 0
17, 161400, Note_on_c, 15, 41, 76
17, 161489, Note_on_c, 15, 41, 0
17, 161520, Note_on_c, 15, 42, 76
17, 161639, Note_on_c, 15, 42, 0
17, 161640, Note_on_c, 15, 41, 76
17, 161729, Note_on_c, 15, 41, 0
17, 161760, Note_on_c, 15, 42, 76
17, 161879, Note_on_c, 15, 42, 0
17, 161880, Note_on_c, 15, 41, 76
17, 161969, Note_on_c, 15, 41, 0
17, 162000, Note_on_c, 15, 42, 76
17, 162119, Note_on_c, 15, 42, 0
17, 162120, Note_on_c, 15, 41, 76
17, 162209, Note_on_c, 15, 41, 0
17, 162240, Note_on_c, 15, 42, 76
17, 162359, Note_on_c, 15, 42, 0
17, 162360, Note_on_c, 15, 41, 76
17, 162449, Note_on_c, 15, 41, 0
17, 162480, Note_on_c, 15, 42, 76
17, 162599, Note_on_c, 15, 42, 0
17, 162600, Note_on_c, 15, 41, 76
17, 162689, Note_on_c, 15, 41, 0
17, 162720, Note_on_c, 15, 42, 76
17, 162899, Note_on_c, 15, 42, 0
17, 162960, Note_on_c, 15, 34, 76
17, 163139, Note_on_c, 15, 34, 0
17, 163200, Note_on_c, 15, 37, 76
17, 163379, Note_on_c, 15, 37, 0
17, 163440, Note_on_c, 15, 42, 84
17, 163619, Note_on_c, 15, 42, 0
17, 163680, Note_on_c, 15, 37, 76
17, 163859, Note_on_c, 15, 37, 0
17, 163920, Note_on_c, 15, 34, 76
17, 164099, Note_on_c, 15, 34, 0
17, 164160, Note_on_c, 15, 30, 76
17, 164339, Note_on_c, 15, 30, 0
17, 164400, Note_on_c, 15, 34, 76
17, 164579, Note_on_c, 15, 34, 0
17, 164640, Note_on_c, 15, 37, 76
17, 164819, Note_on_c, 15, 37, 0
17, 164880, Note_on_c, 15, 42, 84
17, 165059, Note_on_c, 15, 42, 0
17, 165120, Note_on_c, 15, 37, 76
17, 165299, Note_on_c, 15, 37, 0
17, 165360, Note_on_c, 15, 34, 76
17, 165539, Note_on_c, 15, 34, 0
17, 165600, Note_on_c, 15, 30, 52
17, 165689, Note_on_c, 15, 30, 0
17, 165720, Note_on_c, 15, 30, 52
17, 165809, Note_on_c, 15, 30, 0
17, 165840, Note_on_c, 15, 30, 52
17, 165929, Note_on_c, 15, 30, 0
17, 165960, Note_on_c, 15, 30, 51
17, 166049, Note_on_c, 15, 30, 0
17, 166080, Note_on_c, 15, 30, 51
17, 166169, Note_on_c, 15, 30, 0
17, 166200, Note_on_c, 15, 30, 51
17, 166289, Note_on_c, 15, 30, 0
17, 166320, Note_on_c, 15, 42, 50
17, 166409, Note_on_c, 15, 42, 0
17, 166440, Note_on_c, 15, 42, 50
17, 166529, Note_on_c, 15, 42, 0
17, 166560, Note_on_c, 15, 42, 50
17, 166649, Note_on_c, 15, 42, 0
17, 166680, Note_on_c, 15, 42, 49
17, 166769, Note_on_c, 15, 42, 0
17, 166800, Note_on_c, 15, 42, 49
17, 166889, Note_on_c, 15, 42, 0
17, 166920, Note_on_c, 15, 42, 49
17, 167009, Note_on_c, 15, 42, 0
17, 167040, Note_on_c, 15, 30, 48
17, 167129, Note_on_c, 15, 30, 0
17, 167160, Note_on_c, 15, 30, 48
17, 167249, Note_on_c, 15, 30, 0
17, 167280, Note_on_c, 15, 30, 48
17, 167369, Note_on_c, 15, 30, 0
17, 167400, Note_on_c, 15, 30, 47
17, 167489, Note_on_c, 15, 30, 0
17, 167520, Note_on_c, 15, 30, 47
17, 167609, Note_on_c, 15, 30, 0
17, 167640, Note_on_c, 15, 30, 47
17, 167729, Note_on_c, 15, 30, 0
17, 167760, Note_on_c, 15, 30, 46
17, 167849, Note_on_c, 15, 30, 0
17, 167880, Note_on_c, 15, 30, 46
17, 167969, Note_on_c, 15, 30, 0
17, 168000, Note_on_c, 15, 30, 46
17, 168089, Note_on_c, 15, 30, 0
17, 168120, Note_on_c, 15, 30, 45
17, 168209, Note_on_c, 15, 30, 0
17, 168240, Note_on_c, 15, 30, 45
17, 168329, Note_on_c, 15, 30, 0
17, 168360, Note_on_c, 15, 30, 45
17, 168449, Note_on_c, 15, 30, 0
17, 168480, Note_on_c, 15, 30, 44
17, 169919, Note_on_c, 15, 30, 0
17, 171120, Note_on_c, 15, 33, 84
17, 171359, Note_on_c, 15, 33, 0
17, 171360, Note_on_c, 15, 38, 52
17, 171599, Note_on_c, 15, 38, 0
17, 176880, Program_c, 15, 45
17, 177120, Note_on_c, 15, 38, 52
17, 177359, Note_on_c, 15, 38, 0
17, 177360, Note_on_c, 15, 50, 52
17, 177599, Note_on_c, 15, 50, 0
17, 177600, Note_on_c, 15, 49, 52
17, 177839, Note_on_c, 15, 49, 0
17, 177840, Note_on_c, 15, 47, 52
17, 178079, Note_on_c, 15, 47, 0
17, 178080, Note_on_c, 15, 45, 52
17, 178319, Note_on_c, 15, 45, 0
17, 178320, Note_on_c, 15, 43, 52
17, 178559, Note_on_c, 15, 43, 0
17, 178560, Note_on_c, 15, 42, 52
17, 178799, Note_on_c, 15, 42, 0
17, 178800, Note_on_c, 15, 40, 52
17, 179039, Note_on_c, 15, 40, 0
17, 179040, Note_on_c, 15, 38, 52
17, 179279, Note_on_c, 15, 38, 0
17, 179280, Note_on_c, 15, 45, 52
17, 179519, Note_on_c, 15, 45, 0
17, 179760, Note_on_c, 15, 42, 52
17, 179999, Note_on_c, 15, 42, 0
17, 180000, Note_on_c, 15, 40, 52
17, 180239, Note_on_c, 15, 40, 0
17, 180240, Note_on_c, 15, 52, 60
17, 180479, Note_on_c, 15, 52, 0
17, 180480, Note_on_c, 15, 50, 68
17, 180719, Note_on_c, 15, 50, 0
17, 180720, Note_on_c, 15, 49, 84
17, 180959, Note_on_c, 15, 49, 0
17, 180960, Note_on_c, 15, 47, 76
17, 181199, Note_on_c, 15, 47, 0
17, 181200, Note_on_c, 15, 45, 76
17, 181439, Note_on_c, 15, 45, 0
17, 181440, Note_on_c, 15, 50, 52
17, 181679, Note_on_c, 15, 50, 0
17, 181680, Note_on_c, 15, 43, 52
17, 181919, Note_on_c, 15, 43, 0
17, 181920, Note_on_c, 15, 45, 52
17, 182159, Note_on_c, 15, 45, 0
17, 182160, Note_on_c, 15, 38, 52
17, 182399, Note_on_c, 15, 38, 0
17, 182640, Note_on_c, 15, 45, 52
17, 182879, Note_on_c, 15, 45, 0
17, 182880, Note_on_c, 15, 50, 52
17, 183119, Note_on_c, 15, 50, 0
17, 183120, Note_on_c, 15, 43, 52
17, 183359, Note_on_c, 15, 43, 0
17, 183360, Note_on_c, 15, 45, 52
17, 183599, Note_on_c, 15, 45, 0
17, 183600, Note_on_c, 15, 38, 52
17, 183839, Note_on_c, 15, 38, 0
17, 184080, Note_on_c, 15, 45, 60
17, 184319, Note_on_c, 15, 45, 0
17, 184320, Note_on_c, 15, 50, 64
17, 184559, Note_on_c, 15, 50, 0
17, 184800, Note_on_c, 15, 45, 72
17, 185039, Note_on_c, 15, 45, 0
17, 185040, Note_on_c, 15, 50, 76
17, 185279, Note_on_c, 15, 50, 0
17, 185520, Note_on_c, 15, 45, 52
17, 185759, Note_on_c, 15, 45, 0
17, 185760, Note_on_c, 15, 50, 52
17, 185999, Note_on_c, 15, 50, 0
17, 186000, Note_on_c, 15, 43, 52
17, 186239, Note_on_c, 15, 43, 0
17, 186240, Note_on_c, 15, 45, 52
17, 186479, Note_on_c, 15, 45, 0
17, 186480, Note_on_c, 15, 38, 52
17, 186719, Note_on_c, 15, 38, 0
17, 186960, Program_c, 15, 48
17, 187200, Note_on_c, 15, 38, 76
17, 187379, Note_on_c, 15, 38, 0
17, 187440, Note_on_c, 15, 40, 76
17, 187619, Note_on_c, 15, 40, 0
17, 187680, Note_on_c, 15, 42, 76
17, 187859, Note_on_c, 15, 42, 0
17, 188640, Note_on_c, 15, 43, 76
17, 188819, Note_on_c, 15, 43, 0
17, 188880, Note_on_c, 15, 45, 76
17, 189059, Note_on_c, 15, 45, 0
17, 189120, Note_on_c, 15, 47, 76
17, 189299, Note_on_c, 15, 47, 0
17, 192240, Note_on_c, 15, 38, 84
17, 192419, Note_on_c, 15, 38, 0
17, 192480, Note_on_c, 15, 33, 84
17, 192659, Note_on_c, 15, 33, 0
17, 192720, Note_on_c, 15, 38, 84
17, 192899, Note_on_c, 15, 38, 0
17, 192960, Note_on_c, 15, 38, 76
17, 193139, Note_on_c, 15, 38, 0
17, 193200, Note_on_c, 15, 40, 76
17, 193379, Note_on_c, 15, 40, 0
17, 193440, Note_on_c, 15, 42, 76
17, 193619, Note_on_c, 15, 42, 0
17, 194400, Note_on_c, 15, 44, 76
17, 194579, Note_on_c, 15, 44, 0
17, 194640, Note_on_c, 15, 45, 76
17, 194819, Note_on_c, 15, 45, 0
17, 194880, Note_on_c, 15, 47, 76
17, 195059, Note_on_c, 15, 47, 0
17, 198000, Note_on_c, 15, 45, 84
17, 198179, Note_on_c, 15, 45, 0
17, 198240, Note_on_c, 15, 40, 84
17, 198419, Note_on_c, 15, 40, 0
17, 198480, Note_on_c, 15, 45, 84
17, 198659, Note_on_c, 15, 45, 0
17, 198720, Note_on_c, 15, 38, 76
17, 198899, Note_on_c, 15, 38, 0
17, 198960, Note_on_c, 15, 40, 76
17, 199139, Note_on_c, 15, 40, 0
17, 199200, Note_on_c, 15, 42, 76
17, 199379, Note_on_c, 15, 42, 0
17, 200160, Note_on_c, 15, 43, 76
17, 200339, Note_on_c, 15, 43, 0
17, 200400, Note_on_c, 15, 45, 76
17, 200579, Note_on_c, 15, 45, 0
17, 200640, Note_on_c, 15, 47, 76
17, 200819, Note_on_c, 15, 47, 0
17, 203760, Note_on_c, 15, 38, 84
17, 203939, Note_on_c, 15, 38, 0
17, 204000, Note_on_c, 15, 33, 84
17, 204179, Note_on_c, 15, 33, 0
17, 204240, Note_on_c, 15, 38, 84
17, 204419, Note_on_c, 15, 38, 0
17, 204480, Note_on_c, 15, 38, 76
17, 204659, Note_on_c, 15, 38, 0
17, 204720, Note_on_c, 15, 40, 76
17, 204899, Note_on_c, 15, 40, 0
17, 204960, Note_on_c, 15, 42, 76
17, 205139, Note_on_c, 15, 42, 0
17, 205920, Note_on_c, 15, 44, 76
17, 206099, Note_on_c, 15, 44, 0
17, 206160, Note_on_c, 15, 45, 76
17, 206339, Note_on_c, 15, 45, 0
17, 206400, Note_on_c, 15, 47, 76
17, 206579, Note_on_c, 15, 47, 0
17, 209520, Note_on_c, 15, 45, 84
17, 209699, Note_on_c, 15, 45, 0
17, 209760, Note_on_c, 15, 40, 84
17, 209939, Note_on_c, 15, 40, 0
17, 210000, Note_on_c, 15, 45, 84
17, 210179, Note_on_c, 15, 45, 0
17, 210240, Note_on_c, 15, 45, 52
17, 210419, Note_on_c, 15, 45, 0
17, 210480, Note_on_c, 15, 47, 52
17, 210659, Note_on_c, 15, 47, 0
17, 210720, Note_on_c, 15, 49, 52
17, 210899, Note_on_c, 15, 49, 0
17, 210960, Note_on_c, 15, 50, 52
17, 211199, Note_on_c, 15, 50, 0
17, 211680, Note_on_c, 15, 41, 52
17, 211859, Note_on_c, 15, 41, 0
17, 211920, Note_on_c, 15, 43, 52
17, 212099, Note_on_c, 15, 43, 0
17, 212160, Note_on_c, 15, 45, 52
17, 212339, Note_on_c, 15, 45, 0
17, 212400, Note_on_c, 15, 46, 52
17, 212639, Note_on_c, 15, 46, 0
17, 213120, Note_on_c, 15, 34, 52
17, 213299, Note_on_c, 15, 34, 0
17, 213360, Note_on_c, 15, 34, 76
17, 213480, Control_c, 15, 11, 80
17, 214769, Note_on_c, 15, 34, 0
17, 214800, Note_on_c, 15, 34, 76
17, 215009, Note_on_c, 15, 34, 0
17, 215040, Note_on_c, 15, 34, 76
17, 215249, Note_on_c, 15, 34, 0
17, 215280, Note_on_c, 15, 34, 76
17, 215489, Note_on_c, 15, 34, 0
17, 215520, Note_on_c, 15, 34, 76
17, 215729, Note_on_c, 15, 34, 0
17, 215760, Note_on_c, 15, 34, 76
17, 215969, Note_on_c, 15, 34, 0
17, 216000, Note_on_c, 15, 34, 76
17, 216179, Note_on_c, 15, 34, 0
17, 216240, Note_on_c, 15, 34, 76
17, 216240, Control_c, 15, 11, 127
17, 216360, Control_c, 15, 11, 80
17, 217649, Note_on_c, 15, 34, 0
17, 217680, Note_on_c, 15, 34, 76
17, 217889, Note_on_c, 15, 34, 0
17, 217920, Note_on_c, 15, 34, 76
17, 218129, Note_on_c, 15, 34, 0
17, 218160, Note_on_c, 15, 34, 76
17, 218369, Note_on_c, 15, 34, 0
17, 218400, Note_on_c, 15, 34, 76
17, 218609, Note_on_c, 15, 34, 0
17, 218640, Note_on_c, 15, 34, 76
17, 218849, Note_on_c, 15, 34, 0
17, 218880, Note_on_c, 15, 34, 76
17, 219119, Note_on_c, 15, 34, 0
17, 219360, Control_c, 15, 11, 127
17, 219600, Note_on_c, 15, 33, 52
17, 219839, Note_on_c, 15, 33, 0
17, 220320, Note_on_c, 15, 32, 52
17, 220559, Note_on_c, 15, 32, 0
17, 221040, Note_on_c, 15, 44, 52
17, 221279, Note_on_c, 15, 44, 0
17, 221745, Control_c, 15, 11, 64
17, 221760, Note_on_c, 15, 33, 76
17, 223680, Control_c, 15, 11, 64
17, 223747, Control_c, 15, 11, 66
17, 223813, Control_c, 15, 11, 68
17, 223880, Control_c, 15, 11, 69
17, 223947, Control_c, 15, 11, 71
17, 224013, Control_c, 15, 11, 73
17, 224080, Control_c, 15, 11, 75
17, 224147, Control_c, 15, 11, 76
17, 224213, Control_c, 15, 11, 78
17, 224280, Control_c, 15, 11, 80
17, 224347, Control_c, 15, 11, 82
17, 224413, Control_c, 15, 11, 83
17, 224480, Control_c, 15, 11, 85
17, 224547, Control_c, 15, 11, 87
17, 224613, Control_c, 15, 11, 89
17, 224680, Control_c, 15, 11, 90
17, 224747, Control_c, 15, 11, 92
17, 224813, Control_c, 15, 11, 94
17, 224879, Note_on_c, 15, 33, 0
17, 225840, Control_c, 15, 11, 127
17, 226080, Note_on_c, 15, 38, 76
17, 226259, Note_on_c, 15, 38, 0
17, 226320, Note_on_c, 15, 40, 76
17, 226499, Note_on_c, 15, 40, 0
17, 226560, Note_on_c, 15, 42, 76
17, 226739, Note_on_c, 15, 42, 0
17, 227520, Note_on_c, 15, 43, 76
17, 227699, Note_on_c, 15, 43, 0
17, 227760, Note_on_c, 15, 45, 76
17, 227939, Note_on_c, 15, 45, 0
17, 228000, Note_on_c, 15, 47, 76
17, 228179, Note_on_c, 15, 47, 0
17, 231120, Note_on_c, 15, 38, 84
17, 231299, Note_on_c, 15, 38, 0
17, 231360, Note_on_c, 15, 33, 84
17, 231539, Note_on_c, 15, 33, 0
17, 231600, Note_on_c, 15, 38, 84
17, 231779, Note_on_c, 15, 38, 0
17, 231840, Note_on_c, 15, 38, 76
17, 232019, Note_on_c, 15, 38, 0
17, 232080, Note_on_c, 15, 40, 76
17, 232259, Note_on_c, 15, 40, 0
17, 232320, Note_on_c, 15, 42, 76
17, 232499, Note_on_c, 15, 42, 0
17, 233280, Note_on_c, 15, 43, 76
17, 233459, Note_on_c, 15, 43, 0
17, 233520, Note_on_c, 15, 45, 76
17, 233699, Note_on_c, 15, 45, 0
17, 233760, Note_on_c, 15, 47, 76
17, 233939, Note_on_c, 15, 47, 0
17, 240480, Note_on_c, 15, 48, 44
17, 240719, Note_on_c, 15, 48, 0
17, 241200, Note_on_c, 15, 41, 44
17, 241439, Note_on_c, 15, 41, 0
17, 241920, Note_on_c, 15, 45, 44
17, 242159, Note_on_c, 15, 45, 0
17, 242640, Note_on_c, 15, 38, 44
17, 242879, Note_on_c, 15, 38, 0
17, 243120, Control_c, 15, 11, 64
17, 243360, Control_c, 15, 11, 64
17, 243360, Note_on_c, 15, 34, 76
17, 243480, Control_c, 15, 11, 69
17, 243600, Control_c, 15, 11, 75
17, 243720, Control_c, 15, 11, 80
17, 243840, Control_c, 15, 11, 85
17, 243960, Control_c, 15, 11, 90
17, 244080, Control_c, 15, 11, 96
17, 244200, Control_c, 15, 11, 101
17, 244320, Control_c, 15, 11, 106
17, 244440, Control_c, 15, 11, 111
17, 244560, Control_c, 15, 11, 117
17, 244680, Control_c, 15, 11, 122
17, 244769, Note_on_c, 15, 34, 0
17, 244800, Note_on_c, 15, 33, 76
17, 244800, Control_c, 15, 11, 127
17, 245009, Note_on_c, 15, 33, 0
17, 245040, Note_on_c, 15, 45, 76
17, 245249, Note_on_c, 15, 45, 0
17, 245280, Note_on_c, 15, 45, 76
17, 245489, Note_on_c, 15, 45, 0
17, 245520, Note_on_c, 15, 38, 76
17, 245759, Note_on_c, 15, 38, 0
17, 246240, Note_on_c, 15, 48, 44
17, 246479, Note_on_c, 15, 48, 0
17, 246960, Note_on_c, 15, 41, 44
17, 247199, Note_on_c, 15, 41, 0
17, 247680, Note_on_c, 15, 45, 44
17, 247919, Note_on_c, 15, 45, 0
17, 248400, Note_on_c, 15, 38, 44
17, 248639, Note_on_c, 15, 38, 0
17, 248880, Control_c, 15, 11, 64
17, 249120, Note_on_c, 15, 34, 76
17, 249120, Control_c, 15, 11, 64
17, 249240, Control_c, 15, 11, 69
17, 249360, Control_c, 15, 11, 75
17, 249480, Control_c, 15, 11, 80
17, 249600, Control_c, 15, 11, 85
17, 249720, Control_c, 15, 11, 90
17, 249840, Control_c, 15, 11, 96
17, 249960, Control_c, 15, 11, 101
17, 250080, Control_c, 15, 11, 106
17, 250200, Control_c, 15, 11, 111
17, 250320, Control_c, 15, 11, 117
17, 250440, Control_c, 15, 11, 122
17, 250529, Note_on_c, 15, 34, 0
17, 250560, Control_c, 15, 11, 127
17, 250560, Note_on_c, 15, 33, 76
17, 250769, Note_on_c, 15, 33, 0
17, 250800, Note_on_c, 15, 45, 76
17, 251009, Note_on_c, 15, 45, 0
17, 251040, Note_on_c, 15, 45, 76
17, 251249, Note_on_c, 15, 45, 0
17, 251280, Note_on_c, 15, 50, 76
17, 251519, Note_on_c, 15, 50, 0
17, 251760, Control_c, 15, 11, 80
17, 252000, Control_c, 15, 11, 80
17, 252000, Note_on_c, 15, 34, 76
17, 252120, Control_c, 15, 11, 84
17, 252240, Control_c, 15, 11, 88
17, 252360, Control_c, 15, 11, 92
17, 252480, Control_c, 15, 11, 96
17, 252600, Control_c, 15, 11, 100
17, 252720, Control_c, 15, 11, 104
17, 252840, Control_c, 15, 11, 107
17, 252960, Control_c, 15, 11, 111
17, 253080, Control_c, 15, 11, 115
17, 253200, Control_c, 15, 11, 119
17, 253320, Control_c, 15, 11, 123
17, 253409, Note_on_c, 15, 34, 0
17, 253440, Control_c, 15, 11, 127
17, 253440, Note_on_c, 15, 33, 84
17, 253619, Note_on_c, 15, 33, 0
17, 253680, Note_on_c, 15, 45, 76
17, 253889, Note_on_c, 15, 45, 0
17, 253920, Note_on_c, 15, 45, 76
17, 254129, Note_on_c, 15, 45, 0
17, 254160, Note_on_c, 15, 50, 76
17, 254399, Note_on_c, 15, 50, 0
17, 254880, Note_on_c, 15, 33, 84
17, 255059, Note_on_c, 15, 33, 0
17, 255120, Note_on_c, 15, 45, 76
17, 255329, Note_on_c, 15, 45, 0
17, 255360, Note_on_c, 15, 45, 76
17, 255569, Note_on_c, 15, 45, 0
17, 255600, Note_on_c, 15, 50, 76
17, 255839, Note_on_c, 15, 50, 0
17, 256320, Note_on_c, 15, 33, 84
17, 256529, Note_on_c, 15, 33, 0
17, 256560, Note_on_c, 15, 45, 84
17, 256769, Note_on_c, 15, 45, 0
17, 256800, Note_on_c, 15, 45, 84
17, 257009, Note_on_c, 15, 45, 0
17, 257040, Note_on_c, 15, 45, 84
17, 257249, Note_on_c, 15, 45, 0
17, 257280, Note_on_c, 15, 45, 84
17, 257489, Note_on_c, 15, 45, 0
17, 257520, Note_on_c, 15, 45, 84
17, 257729, Note_on_c, 15, 45, 0
17, 257760, Note_on_c, 15, 50, 84
17, 257999, Note_on_c, 15, 50, 0
17, 258240, Note_on_c, 15, 45, 84
17, 258419, Note_on_c, 15, 45, 0
17, 258480, Note_on_c, 15, 38, 84
17, 258659, Note_on_c, 15, 38, 0
17, 259200, Note_on_c, 15, 45, 52
17, 259379, Note_on_c, 15, 45, 0
17, 259440, Note_on_c, 15, 47, 52
17, 259619, Note_on_c, 15, 47, 0
17, 259680, Note_on_c, 15, 49, 52
17, 259859, Note_on_c, 15, 49, 0
17, 259920, Note_on_c, 15, 50, 52
17, 260159, Note_on_c, 15, 50, 0
17, 260640, Note_on_c, 15, 41, 52
17, 260819, Note_on_c, 15, 41, 0
17, 260880, Note_on_c, 15, 43, 52
17, 261059, Note_on_c, 15, 43, 0
17, 261120, Note_on_c, 15, 45, 52
17, 261299, Note_on_c, 15, 45, 0
17, 261360, Note_on_c, 15, 46, 52
17, 261599, Note_on_c, 15, 46, 0
17, 262080, Note_on_c, 15, 34, 52
17, 262259, Note_on_c, 15, 34, 0
17, 262320, Note_on_c, 15, 34, 76
17, 262440, Control_c, 15, 11, 80
17, 263729, Note_on_c, 15, 34, 0
17, 263760, Note_on_c, 15, 34, 76
17, 263969, Note_on_c, 15, 34, 0
17, 264000, Note_on_c, 15, 34, 76
17, 264209, Note_on_c, 15, 34, 0
17, 264240, Note_on_c, 15, 34, 76
17, 264449, Note_on_c, 15, 34, 0
17, 264480, Note_on_c, 15, 34, 76
17, 264689, Note_on_c, 15, 34, 0
17, 264720, Note_on_c, 15, 34, 76
17, 264929, Note_on_c, 15, 34, 0
17, 264960, Note_on_c, 15, 34, 76
17, 265139, Note_on_c, 15, 34, 0
17, 265200, Note_on_c, 15, 34, 76
17, 265200, Control_c, 15, 11, 127
17, 265320, Control_c, 15, 11, 80
17, 266609, Note_on_c, 15, 34, 0
17, 266640, Note_on_c, 15, 34, 76
17, 266849, Note_on_c, 15, 34, 0
17, 266880, Note_on_c, 15, 34, 76
17, 267089, Note_on_c, 15, 34, 0
17, 267120, Note_on_c, 15, 34, 76
17, 267329, Note_on_c, 15, 34, 0
17, 267360, Note_on_c, 15, 34, 76
17, 267569, Note_on_c, 15, 34, 0
17, 267600, Note_on_c, 15, 34, 76
17, 267809, Note_on_c, 15, 34, 0
17, 267840, Note_on_c, 15, 34, 76
17, 268079, Note_on_c, 15, 34, 0
17, 268320, Control_c, 15, 11, 127
17, 268560, Note_on_c, 15, 33, 52
17, 268799, Note_on_c, 15, 33, 0
17, 269280, Note_on_c, 15, 32, 52
17, 269519, Note_on_c, 15, 32, 0
17, 270000, Note_on_c, 15, 44, 52
17, 270239, Note_on_c, 15, 44, 0
17, 270705, Control_c, 15, 11, 64
17, 270720, Note_on_c, 15, 33, 76
17, 272640, Control_c, 15, 11, 64
17, 272707, Control_c, 15, 11, 66
17, 272773, Control_c, 15, 11, 68
17, 272840, Control_c, 15, 11, 69
17, 272907, Control_c, 15, 11, 71
17, 272973, Control_c, 15, 11, 73
17, 273040, Control_c, 15, 11, 75
17, 273107, Control_c, 15, 11, 76
17, 273173, Control_c, 15, 11, 78
17, 273240, Control_c, 15, 11, 80
17, 273307, Control_c, 15, 11, 82
17, 273373, Control_c, 15, 11, 83
17, 273440, Control_c, 15, 11, 85
17, 273507, Control_c, 15, 11, 87
17, 273573, Control_c, 15, 11, 89
17, 273640, Control_c, 15, 11, 90
17, 273707, Control_c, 15, 11, 92
17, 273773, Control_c, 15, 11, 94
17, 273839, Note_on_c, 15, 33, 0
17, 274800, Control_c, 15, 11, 127
17, 275040, Note_on_c, 15, 38, 76
17, 275219, Note_on_c, 15, 38, 0
17, 275280, Note_on_c, 15, 40, 76
17, 275459, Note_on_c, 15, 40, 0
17, 275520, Note_on_c, 15, 42, 76
17, 275699, Note_on_c, 15, 42, 0
17, 276480, Note_on_c, 15, 43, 76
17, 276659, Note_on_c, 15, 43, 0
17, 276720, Note_on_c, 15, 45, 76
17, 276899, Note_on_c, 15, 45, 0
17, 276960, Note_on_c, 15, 47, 76
17, 277139, Note_on_c, 15, 47, 0
17, 280080, Note_on_c, 15, 38, 84
17, 280259, Note_on_c, 15, 38, 0
17, 280320, Note_on_c, 15, 33, 84
17, 280499, Note_on_c, 15, 33, 0
17, 280560, Note_on_c, 15, 38, 84
17, 280739, Note_on_c, 15, 38, 0
17, 280800, Note_on_c, 15, 38, 76
17, 280979, Note_on_c, 15, 38, 0
17, 281040, Note_on_c, 15, 40, 76
17, 281219, Note_on_c, 15, 40, 0
17, 281280, Note_on_c, 15, 42, 76
17, 281459, Note_on_c, 15, 42, 0
17, 282240, Note_on_c, 15, 43, 76
17, 282419, Note_on_c, 15, 43, 0
17, 282480, Note_on_c, 15, 45, 76
17, 282659, Note_on_c, 15, 45, 0
17, 282720, Note_on_c, 15, 47, 76
17, 282899, Note_on_c, 15, 47, 0
17, 289440, Note_on_c, 15, 48, 44
17, 289679, Note_on_c, 15, 48, 0
17, 290160, Note_on_c, 15, 41, 44
17, 290399, Note_on_c, 15, 41, 0
17, 290880, Note_on_c, 15, 45, 44
17, 291119, Note_on_c, 15, 45, 0
17, 291600, Note_on_c, 15, 38, 44
17, 291839, Note_on_c, 15, 38, 0
17, 292080, Control_c, 15, 11, 64
17, 292320, Control_c, 15, 11, 64
17, 292320, Note_on_c, 15, 34, 76
17, 292440, Control_c, 15, 11, 69
17, 292560, Control_c, 15, 11, 75
17, 292680, Control_c, 15, 11, 80
17, 292800, Control_c, 15, 11, 85
17, 292920, Control_c, 15, 11, 90
17, 293040, Control_c, 15, 11, 96
17, 293160, Control_c, 15, 11, 101
17, 293280, Control_c, 15, 11, 106
17, 293400, Control_c, 15, 11, 111
17, 293520, Control_c, 15, 11, 117
17, 293640, Control_c, 15, 11, 122
17, 293729, Note_on_c, 15, 34, 0
17, 293760, Note_on_c, 15, 33, 76
17, 293760, Control_c, 15, 11, 127
17, 293969, Note_on_c, 15, 33, 0
17, 294000, Note_on_c, 15, 45, 76
17, 294209, Note_on_c, 15, 45, 0
17, 294240, Note_on_c, 15, 45, 76
17, 294449, Note_on_c, 15, 45, 0
17, 294480, Note_on_c, 15, 38, 76
17, 294719, Note_on_c, 15, 38, 0
17, 295200, Note_on_c, 15, 48, 44
17, 295439, Note_on_c, 15, 48, 0
17, 295920, Note_on_c, 15, 41, 44
17, 296159, Note_on_c, 15, 41, 0
17, 296640, Note_on_c, 15, 45, 44
17, 296879, Note_on_c, 15, 45, 0
17, 297360, Note_on_c, 15, 38, 44
17, 297599, Note_on_c, 15, 38, 0
17, 297840, Control_c, 15, 11, 64
17, 298080, Note_on_c, 15, 34, 76
17, 298080, Control_c, 15, 11, 64
17, 298200, Control_c, 15, 11, 69
17, 298320, Control_c, 15, 11, 75
17, 298440, Control_c, 15, 11, 80
17, 298560, Control_c, 15, 11, 85
17, 298680, Control_c, 15, 11, 90
17, 298800, Control_c, 15, 11, 96
17, 298920, Control_c, 15, 11, 101
17, 299040, Control_c, 15, 11, 106
17, 299160, Control_c, 15, 11, 111
17, 299280, Control_c, 15, 11, 117
17, 299400, Control_c, 15, 11, 122
17, 299489, Note_on_c, 15, 34, 0
17, 299520, Control_c, 15, 11, 127
17, 299520, Note_on_c, 15, 33, 76
17, 299729, Note_on_c, 15, 33, 0
17, 299760, Note_on_c, 15, 45, 76
17, 299969, Note_on_c, 15, 45, 0
17, 300000, Note_on_c, 15, 45, 76
17, 300209, Note_on_c, 15, 45, 0
17, 300240, Note_on_c, 15, 50, 76
17, 300479, Note_on_c, 15, 50, 0
17, 300720, Control_c, 15, 11, 80
17, 300960, Control_c, 15, 11, 80
17, 300960, Note_on_c, 15, 34, 76
17, 301080, Control_c, 15, 11, 84
17, 301200, Control_c, 15, 11, 88
17, 301320, Control_c, 15, 11, 92
17, 301440, Control_c, 15, 11, 96
17, 301560, Control_c, 15, 11, 100
17, 301680, Control_c, 15, 11, 104
17, 301800, Control_c, 15, 11, 107
17, 301920, Control_c, 15, 11, 111
17, 302040, Control_c, 15, 11, 115
17, 302160, Control_c, 15, 11, 119
17, 302280, Control_c, 15, 11, 123
17, 302369, Note_on_c, 15, 34, 0
17, 302400, Note_on_c, 15, 33, 84
17, 302400, Control_c, 15, 11, 127
17, 302579, Note_on_c, 15, 33, 0
17, 302640, Note_on_c, 15, 45, 76
17, 302849, Note_on_c, 15, 45, 0
17, 302880, Note_on_c, 15, 45, 76
17, 303089, Note_on_c, 15, 45, 0
17, 303120, Note_on_c, 15, 50, 76
17, 303359, Note_on_c, 15, 50, 0
17, 303840, Note_on_c, 15, 33, 84
17, 304019, Note_on_c, 15, 33, 0
17, 304080, Note_on_c, 15, 45, 76
17, 304289, Note_on_c, 15, 45, 0
17, 304320, Note_on_c, 15, 45, 76
17, 304529, Note_on_c, 15, 45, 0
17, 304560, Note_on_c, 15, 50, 76
17, 304799, Note_on_c, 15, 50, 0
17, 305280, Note_on_c, 15, 33, 84
17, 305489, Note_on_c, 15, 33, 0
17, 305520, Note_on_c, 15, 45, 84
17, 305729, Note_on_c, 15, 45, 0
17, 305760, Note_on_c, 15, 45, 84
17, 305969, Note_on_c, 15, 45, 0
17, 306000, Note_on_c, 15, 45, 84
17, 306209, Note_on_c, 15, 45, 0
17, 306240, Note_on_c, 15, 45, 84
17, 306449, Note_on_c, 15, 45, 0
17, 306480, Note_on_c, 15, 45, 84
17, 306689, Note_on_c, 15, 45, 0
17, 306720, Note_on_c, 15, 50, 84
17, 306959, Note_on_c, 15, 50, 0
17, 307200, Note_on_c, 15, 45, 84
17, 307379, Note_on_c, 15, 45, 0
17, 307440, Note_on_c, 15, 38, 84
17, 307619, Note_on_c, 15, 38, 0
17, 307619, End_track
18, 0, Start_track
18, 0, Title_t, "Ludwig van Beethoven - Symphony No. 2, Op.36 - No. 3 Allegro"
18, 0, MIDI_port, 0
18, 0, End_track
0, 0, End_of_file
