0, 0, Header, 1, 18, 240
1, 0, Start_track
1, 0, Sequencer_specific, 10, 0, 0, 91, 35, 1, 0, 5, 6, 42, 0
1, 0, Title_t, "Ludwig van Beethoven - Symphony No. 4 in B-flat Major, Op.60"
1, 0, Instrument_name_t, "Conductor Track"
1, 0, SMPTE_offset, 96, 0, 3, 0, 0
1, 0, MIDI_port, 0
1, 0, Key_signature, -3, "major"
1, 0, Tempo, 1428571
1, 0, Time_signature, 3, 2, 24, 8
1, 66240, Tempo, 1428571
1, 66480, Tempo, 1463414
1, 66720, Tempo, 1500000
1, 66960, Tempo, 1538461
1, 67200, Tempo, 1578947
1, 67440, Tempo, 1621621
1, 67680, Tempo, 1666666
1, 67920, Tempo, 1714285
1, 68160, Tempo, 1764705
1, 68400, Tempo, 1428571
1, 74280, Tempo, 2000000
1, 75000, Tempo, 2000000
1, 75000, End_track
2, 0, Start_track
2, 0, Title_t, "2nd Movement - Adagio"
2, 0, MIDI_port, 0
2, 0, End_track
3, 0, Start_track
3, 0, Title_t, "Sequenced by D. L. Viens 27 May 2000"
3, 0, MIDI_port, 0
3, 0, End_track
4, 0, Start_track
4, 0, Title_t, "dlviens@empire.net"
4, 0, MIDI_port, 0
4, 0, End_track
5, 0, Start_track
5, 0, MIDI_port, 0
5, 0, End_track
6, 0, Start_track
6, 0, Title_t, "Flute"
6, 0, MIDI_port, 0
6, 0, Program_c, 0, 73
6, 0, Control_c, 0, 7, 72
6, 0, Control_c, 0, 10, 60
6, 0, Control_c, 0, 11, 96
6, 6330, Note_on_c, 0, 82, 76
6, 6351, Note_on_c, 0, 82, 0
6, 6360, Note_on_c, 0, 87, 76
6, 6404, Note_on_c, 0, 87, 0
6, 6450, Note_on_c, 0, 82, 76
6, 6471, Note_on_c, 0, 82, 0
6, 6480, Note_on_c, 0, 87, 52
6, 6719, Note_on_c, 0, 87, 0
6, 6720, Note_on_c, 0, 86, 52
6, 6959, Note_on_c, 0, 86, 0
6, 6960, Note_on_c, 0, 84, 52
6, 7191, Note_on_c, 0, 84, 0
6, 7200, Note_on_c, 0, 82, 52
6, 7559, Note_on_c, 0, 82, 0
6, 7560, Note_on_c, 0, 80, 52
6, 7679, Note_on_c, 0, 80, 0
6, 7680, Note_on_c, 0, 79, 52
6, 7799, Note_on_c, 0, 79, 0
6, 7800, Note_on_c, 0, 80, 52
6, 7889, Note_on_c, 0, 80, 0
6, 7890, Note_on_c, 0, 77, 52
6, 7915, Note_on_c, 0, 77, 0
6, 7920, Note_on_c, 0, 75, 52
6, 8159, Note_on_c, 0, 75, 0
6, 8160, Note_on_c, 0, 74, 52
6, 8279, Note_on_c, 0, 74, 0
6, 8280, Note_on_c, 0, 75, 52
6, 8399, Note_on_c, 0, 75, 0
6, 8400, Note_on_c, 0, 77, 52
6, 8519, Note_on_c, 0, 77, 0
6, 8520, Note_on_c, 0, 79, 52
6, 8579, Note_on_c, 0, 79, 0
6, 8580, Note_on_c, 0, 81, 52
6, 8635, Note_on_c, 0, 81, 0
6, 8638, Control_c, 0, 11, 96
6, 8640, Note_on_c, 0, 81, 68
6, 8640, Control_c, 0, 11, 96
6, 8660, Control_c, 0, 11, 97
6, 8680, Control_c, 0, 11, 99
6, 8700, Control_c, 0, 11, 100
6, 8720, Control_c, 0, 11, 101
6, 8740, Control_c, 0, 11, 102
6, 8760, Control_c, 0, 11, 104
6, 8780, Control_c, 0, 11, 105
6, 8800, Control_c, 0, 11, 106
6, 8820, Control_c, 0, 11, 108
6, 8840, Control_c, 0, 11, 109
6, 8860, Control_c, 0, 11, 110
6, 8879, Note_on_c, 0, 81, 0
6, 8880, Control_c, 0, 11, 112
6, 8880, Note_on_c, 0, 82, 68
6, 8900, Control_c, 0, 11, 113
6, 8920, Control_c, 0, 11, 114
6, 8940, Control_c, 0, 11, 115
6, 8960, Control_c, 0, 11, 117
6, 8980, Control_c, 0, 11, 118
6, 9000, Control_c, 0, 11, 119
6, 9020, Control_c, 0, 11, 121
6, 9040, Control_c, 0, 11, 122
6, 9060, Control_c, 0, 11, 123
6, 9080, Control_c, 0, 11, 124
6, 9100, Control_c, 0, 11, 126
6, 9111, Note_on_c, 0, 82, 0
6, 9120, Note_on_c, 0, 83, 76
6, 9120, Control_c, 0, 11, 127
6, 9329, Note_on_c, 0, 83, 0
6, 9330, Note_on_c, 0, 84, 68
6, 9355, Note_on_c, 0, 84, 0
6, 9360, Note_on_c, 0, 84, 52
6, 9479, Note_on_c, 0, 84, 0
6, 9480, Note_on_c, 0, 77, 52
6, 9875, Note_on_c, 0, 77, 0
6, 9900, Note_on_c, 0, 77, 52
6, 9959, Note_on_c, 0, 77, 0
6, 9960, Note_on_c, 0, 79, 52
6, 10019, Note_on_c, 0, 79, 0
6, 10020, Note_on_c, 0, 80, 52
6, 10075, Note_on_c, 0, 80, 0
6, 10080, Note_on_c, 0, 80, 52
6, 10199, Note_on_c, 0, 80, 0
6, 10200, Note_on_c, 0, 74, 52
6, 10439, Note_on_c, 0, 74, 0
6, 10440, Note_on_c, 0, 75, 52
6, 10559, Note_on_c, 0, 75, 0
6, 10560, Note_on_c, 0, 77, 52
6, 10619, Note_on_c, 0, 77, 0
6, 10620, Note_on_c, 0, 79, 52
6, 10679, Note_on_c, 0, 79, 0
6, 10680, Note_on_c, 0, 80, 52
6, 10739, Note_on_c, 0, 80, 0
6, 10740, Note_on_c, 0, 84, 52
6, 10795, Note_on_c, 0, 84, 0
6, 10798, Control_c, 0, 11, 80
6, 10800, Note_on_c, 0, 84, 76
6, 10800, Control_c, 0, 11, 80
6, 10820, Control_c, 0, 11, 81
6, 10840, Control_c, 0, 11, 83
6, 10860, Control_c, 0, 11, 84
6, 10880, Control_c, 0, 11, 85
6, 10900, Control_c, 0, 11, 87
6, 10919, Note_on_c, 0, 84, 0
6, 10920, Note_on_c, 0, 82, 76
6, 10920, Control_c, 0, 11, 88
6, 10940, Control_c, 0, 11, 89
6, 10960, Control_c, 0, 11, 90
6, 10980, Control_c, 0, 11, 92
6, 11000, Control_c, 0, 11, 93
6, 11020, Control_c, 0, 11, 94
6, 11040, Control_c, 0, 11, 96
6, 11060, Control_c, 0, 11, 97
6, 11080, Control_c, 0, 11, 98
6, 11100, Control_c, 0, 11, 100
6, 11120, Control_c, 0, 11, 101
6, 11140, Control_c, 0, 11, 102
6, 11151, Note_on_c, 0, 82, 0
6, 11160, Control_c, 0, 11, 104
6, 11160, Note_on_c, 0, 84, 76
6, 11180, Control_c, 0, 11, 105
6, 11200, Control_c, 0, 11, 106
6, 11220, Control_c, 0, 11, 107
6, 11240, Control_c, 0, 11, 109
6, 11249, Note_on_c, 0, 84, 0
6, 11250, Note_on_c, 0, 82, 76
6, 11260, Control_c, 0, 11, 110
6, 11275, Note_on_c, 0, 82, 0
6, 11280, Note_on_c, 0, 82, 76
6, 11280, Control_c, 0, 11, 111
6, 11300, Control_c, 0, 11, 113
6, 11320, Control_c, 0, 11, 114
6, 11340, Control_c, 0, 11, 115
6, 11360, Control_c, 0, 11, 117
6, 11380, Control_c, 0, 11, 118
6, 11399, Note_on_c, 0, 82, 0
6, 11400, Note_on_c, 0, 84, 76
6, 11400, Control_c, 0, 11, 119
6, 11420, Control_c, 0, 11, 120
6, 11440, Control_c, 0, 11, 122
6, 11460, Control_c, 0, 11, 123
6, 11480, Control_c, 0, 11, 124
6, 11489, Note_on_c, 0, 84, 0
6, 11490, Note_on_c, 0, 82, 76
6, 11500, Control_c, 0, 11, 126
6, 11515, Note_on_c, 0, 82, 0
6, 11520, Note_on_c, 0, 82, 76
6, 11520, Control_c, 0, 11, 127
6, 11639, Note_on_c, 0, 82, 0
6, 13680, Note_on_c, 0, 89, 76
6, 13740, Control_c, 0, 11, 80
6, 13859, Note_on_c, 0, 89, 0
6, 13860, Note_on_c, 0, 86, 76
6, 13919, Note_on_c, 0, 86, 0
6, 13920, Note_on_c, 0, 83, 76
6, 13979, Note_on_c, 0, 83, 0
6, 13980, Note_on_c, 0, 84, 76
6, 14039, Note_on_c, 0, 84, 0
6, 14040, Note_on_c, 0, 86, 76
6, 14099, Note_on_c, 0, 86, 0
6, 14100, Note_on_c, 0, 83, 76
6, 14159, Note_on_c, 0, 83, 0
6, 14160, Note_on_c, 0, 79, 76
6, 14219, Note_on_c, 0, 79, 0
6, 14220, Note_on_c, 0, 80, 76
6, 14279, Note_on_c, 0, 80, 0
6, 14280, Note_on_c, 0, 77, 76
6, 14339, Note_on_c, 0, 77, 0
6, 14340, Note_on_c, 0, 74, 76
6, 14391, Note_on_c, 0, 74, 0
6, 14398, Control_c, 0, 11, 127
6, 14400, Note_on_c, 0, 72, 76
6, 14519, Note_on_c, 0, 72, 0
6, 14910, Note_on_c, 0, 84, 76
6, 14939, Note_on_c, 0, 84, 0
6, 14940, Note_on_c, 0, 79, 76
6, 14969, Note_on_c, 0, 79, 0
6, 14970, Note_on_c, 0, 84, 76
6, 14991, Note_on_c, 0, 84, 0
6, 15000, Note_on_c, 0, 87, 76
6, 15021, Note_on_c, 0, 87, 0
6, 15030, Note_on_c, 0, 87, 76
6, 15051, Note_on_c, 0, 87, 0
6, 15060, Note_on_c, 0, 87, 76
6, 15081, Note_on_c, 0, 87, 0
6, 15090, Note_on_c, 0, 87, 76
6, 15111, Note_on_c, 0, 87, 0
6, 15120, Note_on_c, 0, 87, 76
6, 15180, Control_c, 0, 11, 80
6, 15299, Note_on_c, 0, 87, 0
6, 15300, Note_on_c, 0, 86, 76
6, 15359, Note_on_c, 0, 86, 0
6, 15360, Note_on_c, 0, 84, 76
6, 15419, Note_on_c, 0, 84, 0
6, 15420, Note_on_c, 0, 82, 76
6, 15479, Note_on_c, 0, 82, 0
6, 15480, Note_on_c, 0, 81, 76
6, 15539, Note_on_c, 0, 81, 0
6, 15540, Note_on_c, 0, 79, 76
6, 15599, Note_on_c, 0, 79, 0
6, 15600, Note_on_c, 0, 77, 76
6, 15719, Note_on_c, 0, 77, 0
6, 15825, Control_c, 0, 11, 127
6, 15840, Note_on_c, 0, 91, 76
6, 15900, Control_c, 0, 11, 80
6, 16019, Note_on_c, 0, 91, 0
6, 16020, Note_on_c, 0, 89, 76
6, 16079, Note_on_c, 0, 89, 0
6, 16080, Note_on_c, 0, 87, 76
6, 16139, Note_on_c, 0, 87, 0
6, 16140, Note_on_c, 0, 86, 76
6, 16199, Note_on_c, 0, 86, 0
6, 16200, Note_on_c, 0, 84, 76
6, 16259, Note_on_c, 0, 84, 0
6, 16260, Note_on_c, 0, 82, 76
6, 16319, Note_on_c, 0, 82, 0
6, 16320, Note_on_c, 0, 81, 76
6, 16375, Note_on_c, 0, 81, 0
6, 16380, Note_on_c, 0, 89, 76
6, 16435, Note_on_c, 0, 89, 0
6, 16440, Note_on_c, 0, 89, 76
6, 16495, Note_on_c, 0, 89, 0
6, 16500, Note_on_c, 0, 89, 76
6, 16555, Note_on_c, 0, 89, 0
6, 16560, Control_c, 0, 11, 80
6, 16560, Note_on_c, 0, 89, 76
6, 16580, Control_c, 0, 11, 81
6, 16600, Control_c, 0, 11, 83
6, 16615, Note_on_c, 0, 89, 0
6, 16620, Note_on_c, 0, 89, 76
6, 16620, Control_c, 0, 11, 84
6, 16640, Control_c, 0, 11, 85
6, 16660, Control_c, 0, 11, 87
6, 16675, Note_on_c, 0, 89, 0
6, 16680, Control_c, 0, 11, 88
6, 16680, Note_on_c, 0, 89, 76
6, 16700, Control_c, 0, 11, 89
6, 16720, Control_c, 0, 11, 90
6, 16735, Note_on_c, 0, 89, 0
6, 16740, Note_on_c, 0, 89, 76
6, 16740, Control_c, 0, 11, 92
6, 16760, Control_c, 0, 11, 93
6, 16780, Control_c, 0, 11, 94
6, 16795, Note_on_c, 0, 89, 0
6, 16800, Control_c, 0, 11, 96
6, 16800, Note_on_c, 0, 89, 76
6, 16820, Control_c, 0, 11, 97
6, 16840, Control_c, 0, 11, 98
6, 16855, Note_on_c, 0, 89, 0
6, 16860, Note_on_c, 0, 89, 76
6, 16860, Control_c, 0, 11, 100
6, 16880, Control_c, 0, 11, 101
6, 16900, Control_c, 0, 11, 102
6, 16915, Note_on_c, 0, 89, 0
6, 16920, Note_on_c, 0, 89, 76
6, 16920, Control_c, 0, 11, 104
6, 16940, Control_c, 0, 11, 105
6, 16960, Control_c, 0, 11, 106
6, 16975, Note_on_c, 0, 89, 0
6, 16980, Control_c, 0, 11, 107
6, 16980, Note_on_c, 0, 89, 76
6, 17000, Control_c, 0, 11, 109
6, 17020, Control_c, 0, 11, 110
6, 17035, Note_on_c, 0, 89, 0
6, 17040, Note_on_c, 0, 89, 76
6, 17040, Control_c, 0, 11, 111
6, 17060, Control_c, 0, 11, 113
6, 17080, Control_c, 0, 11, 114
6, 17095, Note_on_c, 0, 89, 0
6, 17100, Control_c, 0, 11, 115
6, 17100, Note_on_c, 0, 89, 76
6, 17120, Control_c, 0, 11, 117
6, 17140, Control_c, 0, 11, 118
6, 17155, Note_on_c, 0, 89, 0
6, 17160, Note_on_c, 0, 89, 76
6, 17160, Control_c, 0, 11, 119
6, 17180, Control_c, 0, 11, 120
6, 17200, Control_c, 0, 11, 122
6, 17215, Note_on_c, 0, 89, 0
6, 17220, Note_on_c, 0, 89, 76
6, 17220, Control_c, 0, 11, 123
6, 17240, Control_c, 0, 11, 124
6, 17260, Control_c, 0, 11, 126
6, 17275, Note_on_c, 0, 89, 0
6, 17280, Control_c, 0, 11, 127
6, 17280, Note_on_c, 0, 89, 76
6, 17335, Note_on_c, 0, 89, 0
6, 17340, Note_on_c, 0, 89, 76
6, 17395, Note_on_c, 0, 89, 0
6, 17400, Note_on_c, 0, 89, 76
6, 17455, Note_on_c, 0, 89, 0
6, 17460, Note_on_c, 0, 89, 76
6, 17515, Note_on_c, 0, 89, 0
6, 17520, Note_on_c, 0, 89, 76
6, 17575, Note_on_c, 0, 89, 0
6, 17580, Note_on_c, 0, 89, 76
6, 17635, Note_on_c, 0, 89, 0
6, 17640, Note_on_c, 0, 89, 76
6, 17695, Note_on_c, 0, 89, 0
6, 17700, Note_on_c, 0, 89, 76
6, 17755, Note_on_c, 0, 89, 0
6, 17760, Note_on_c, 0, 89, 76
6, 17815, Note_on_c, 0, 89, 0
6, 17820, Note_on_c, 0, 89, 68
6, 17875, Note_on_c, 0, 89, 0
6, 17880, Note_on_c, 0, 89, 60
6, 17935, Note_on_c, 0, 89, 0
6, 17940, Note_on_c, 0, 89, 52
6, 17995, Note_on_c, 0, 89, 0
6, 18000, Note_on_c, 0, 82, 44
6, 18119, Note_on_c, 0, 82, 0
6, 23040, Note_on_c, 0, 89, 76
6, 23151, Note_on_c, 0, 89, 0
6, 23160, Note_on_c, 0, 89, 76
6, 23319, Note_on_c, 0, 89, 0
6, 23320, Note_on_c, 0, 87, 76
6, 23359, Note_on_c, 0, 87, 0
6, 23360, Note_on_c, 0, 86, 76
6, 23399, Note_on_c, 0, 86, 0
6, 23400, Note_on_c, 0, 87, 76
6, 23439, Note_on_c, 0, 87, 0
6, 23440, Note_on_c, 0, 89, 76
6, 23479, Note_on_c, 0, 89, 0
6, 23480, Note_on_c, 0, 91, 76
6, 23515, Note_on_c, 0, 91, 0
6, 23520, Note_on_c, 0, 86, 76
6, 23639, Note_on_c, 0, 86, 0
6, 23640, Note_on_c, 0, 87, 76
6, 23729, Note_on_c, 0, 87, 0
6, 23730, Note_on_c, 0, 84, 76
6, 23755, Note_on_c, 0, 84, 0
6, 23760, Note_on_c, 0, 82, 52
6, 23879, Note_on_c, 0, 82, 0
6, 25560, Note_on_c, 0, 86, 48
6, 25664, Note_on_c, 0, 86, 0
6, 25680, Note_on_c, 0, 86, 48
6, 25784, Note_on_c, 0, 86, 0
6, 25800, Note_on_c, 0, 86, 48
6, 25889, Note_on_c, 0, 86, 0
6, 25920, Note_on_c, 0, 87, 48
6, 26399, Note_on_c, 0, 87, 0
6, 26400, Note_on_c, 0, 89, 48
6, 26579, Note_on_c, 0, 89, 0
6, 26580, Note_on_c, 0, 87, 48
6, 26635, Note_on_c, 0, 87, 0
6, 26638, Control_c, 0, 11, 64
6, 26640, Control_c, 0, 11, 64
6, 26640, Note_on_c, 0, 86, 84
6, 26663, Control_c, 0, 11, 65
6, 26685, Control_c, 0, 11, 66
6, 26708, Control_c, 0, 11, 67
6, 26730, Control_c, 0, 11, 68
6, 26753, Control_c, 0, 11, 69
6, 26775, Control_c, 0, 11, 70
6, 26798, Control_c, 0, 11, 71
6, 26820, Control_c, 0, 11, 72
6, 26843, Control_c, 0, 11, 73
6, 26865, Control_c, 0, 11, 74
6, 26888, Control_c, 0, 11, 75
6, 26910, Control_c, 0, 11, 76
6, 26933, Control_c, 0, 11, 77
6, 26955, Control_c, 0, 11, 78
6, 26978, Control_c, 0, 11, 79
6, 27000, Control_c, 0, 11, 80
6, 27023, Control_c, 0, 11, 81
6, 27045, Control_c, 0, 11, 82
6, 27068, Control_c, 0, 11, 83
6, 27090, Control_c, 0, 11, 84
6, 27113, Control_c, 0, 11, 85
6, 27135, Control_c, 0, 11, 86
6, 27158, Control_c, 0, 11, 87
6, 27180, Control_c, 0, 11, 88
6, 27203, Control_c, 0, 11, 89
6, 27225, Control_c, 0, 11, 90
6, 27248, Control_c, 0, 11, 91
6, 27270, Control_c, 0, 11, 92
6, 27293, Control_c, 0, 11, 93
6, 27315, Control_c, 0, 11, 94
6, 27338, Control_c, 0, 11, 95
6, 27360, Control_c, 0, 11, 96
6, 27419, Note_on_c, 0, 86, 0
6, 27420, Control_c, 0, 11, 99
6, 27450, Note_on_c, 0, 70, 84
6, 27471, Note_on_c, 0, 70, 0
6, 27480, Control_c, 0, 11, 101
6, 27480, Note_on_c, 0, 74, 84
6, 27524, Note_on_c, 0, 74, 0
6, 27540, Control_c, 0, 11, 104
6, 27570, Note_on_c, 0, 70, 84
6, 27591, Note_on_c, 0, 70, 0
6, 27600, Note_on_c, 0, 77, 84
6, 27600, Control_c, 0, 11, 106
6, 27644, Note_on_c, 0, 77, 0
6, 27660, Control_c, 0, 11, 109
6, 27690, Note_on_c, 0, 74, 84
6, 27711, Note_on_c, 0, 74, 0
6, 27720, Control_c, 0, 11, 112
6, 27720, Note_on_c, 0, 82, 84
6, 27764, Note_on_c, 0, 82, 0
6, 27780, Control_c, 0, 11, 114
6, 27810, Note_on_c, 0, 77, 84
6, 27831, Note_on_c, 0, 77, 0
6, 27840, Control_c, 0, 11, 117
6, 27840, Note_on_c, 0, 86, 84
6, 27884, Note_on_c, 0, 86, 0
6, 27900, Control_c, 0, 11, 119
6, 27930, Note_on_c, 0, 82, 84
6, 27951, Note_on_c, 0, 82, 0
6, 27960, Note_on_c, 0, 89, 84
6, 27960, Control_c, 0, 11, 122
6, 28004, Note_on_c, 0, 89, 0
6, 28020, Control_c, 0, 11, 124
6, 28050, Note_on_c, 0, 86, 84
6, 28071, Note_on_c, 0, 86, 0
6, 28080, Note_on_c, 0, 92, 84
6, 28080, Control_c, 0, 11, 127
6, 28379, Note_on_c, 0, 92, 0
6, 28410, Note_on_c, 0, 89, 84
6, 28431, Note_on_c, 0, 89, 0
6, 28440, Note_on_c, 0, 86, 84
6, 28484, Note_on_c, 0, 86, 0
6, 28530, Note_on_c, 0, 82, 84
6, 28551, Note_on_c, 0, 82, 0
6, 28560, Note_on_c, 0, 80, 84
6, 28604, Note_on_c, 0, 80, 0
6, 28650, Note_on_c, 0, 77, 84
6, 28671, Note_on_c, 0, 77, 0
6, 28680, Note_on_c, 0, 74, 84
6, 28724, Note_on_c, 0, 74, 0
6, 28770, Note_on_c, 0, 70, 84
6, 28791, Note_on_c, 0, 70, 0
6, 28800, Note_on_c, 0, 75, 84
6, 28919, Note_on_c, 0, 75, 0
6, 35130, Note_on_c, 0, 82, 76
6, 35151, Note_on_c, 0, 82, 0
6, 35160, Note_on_c, 0, 87, 76
6, 35204, Note_on_c, 0, 87, 0
6, 35250, Note_on_c, 0, 82, 76
6, 35271, Note_on_c, 0, 82, 0
6, 35280, Note_on_c, 0, 87, 84
6, 35511, Note_on_c, 0, 87, 0
6, 35520, Note_on_c, 0, 85, 92
6, 35744, Note_on_c, 0, 85, 0
6, 35760, Note_on_c, 0, 83, 92
6, 35984, Note_on_c, 0, 83, 0
6, 36000, Note_on_c, 0, 82, 76
6, 36719, Note_on_c, 0, 82, 0
6, 36720, Note_on_c, 0, 82, 76
6, 37439, Note_on_c, 0, 82, 0
6, 37440, Note_on_c, 0, 82, 76
6, 37919, Note_on_c, 0, 82, 0
6, 37920, Note_on_c, 0, 83, 84
6, 38144, Note_on_c, 0, 83, 0
6, 38160, Note_on_c, 0, 83, 52
6, 38279, Note_on_c, 0, 83, 0
6, 45870, Note_on_c, 0, 75, 52
6, 45891, Note_on_c, 0, 75, 0
6, 45900, Note_on_c, 0, 77, 52
6, 45921, Note_on_c, 0, 77, 0
6, 45930, Note_on_c, 0, 79, 52
6, 45951, Note_on_c, 0, 79, 0
6, 45960, Note_on_c, 0, 80, 52
6, 45981, Note_on_c, 0, 80, 0
6, 45990, Note_on_c, 0, 82, 52
6, 46011, Note_on_c, 0, 82, 0
6, 46020, Note_on_c, 0, 84, 52
6, 46041, Note_on_c, 0, 84, 0
6, 46050, Note_on_c, 0, 86, 52
6, 46071, Note_on_c, 0, 86, 0
6, 46080, Note_on_c, 0, 87, 44
6, 46319, Note_on_c, 0, 87, 0
6, 46320, Note_on_c, 0, 86, 44
6, 46529, Note_on_c, 0, 86, 0
6, 46540, Note_on_c, 0, 86, 44
6, 46559, Note_on_c, 0, 86, 0
6, 46560, Note_on_c, 0, 84, 44
6, 46599, Note_on_c, 0, 84, 0
6, 46600, Note_on_c, 0, 83, 44
6, 46639, Note_on_c, 0, 83, 0
6, 46640, Note_on_c, 0, 84, 44
6, 46679, Note_on_c, 0, 84, 0
6, 46680, Note_on_c, 0, 87, 44
6, 46719, Note_on_c, 0, 87, 0
6, 46720, Note_on_c, 0, 86, 44
6, 46759, Note_on_c, 0, 86, 0
6, 46760, Note_on_c, 0, 84, 44
6, 46791, Note_on_c, 0, 84, 0
6, 46800, Note_on_c, 0, 82, 44
6, 47079, Note_on_c, 0, 82, 0
6, 47080, Note_on_c, 0, 84, 44
6, 47119, Note_on_c, 0, 84, 0
6, 47120, Note_on_c, 0, 82, 44
6, 47159, Note_on_c, 0, 82, 0
6, 47160, Note_on_c, 0, 80, 44
6, 47199, Note_on_c, 0, 80, 0
6, 47200, Note_on_c, 0, 82, 44
6, 47239, Note_on_c, 0, 82, 0
6, 47240, Note_on_c, 0, 80, 44
6, 47275, Note_on_c, 0, 80, 0
6, 47280, Note_on_c, 0, 79, 44
6, 47319, Note_on_c, 0, 79, 0
6, 47320, Note_on_c, 0, 80, 44
6, 47359, Note_on_c, 0, 80, 0
6, 47360, Note_on_c, 0, 79, 44
6, 47399, Note_on_c, 0, 79, 0
6, 47400, Note_on_c, 0, 82, 44
6, 47439, Note_on_c, 0, 82, 0
6, 47440, Note_on_c, 0, 80, 44
6, 47475, Note_on_c, 0, 80, 0
6, 47480, Note_on_c, 0, 77, 44
6, 47509, Note_on_c, 0, 77, 0
6, 47520, Note_on_c, 0, 75, 44
6, 47679, Note_on_c, 0, 75, 0
6, 47680, Note_on_c, 0, 77, 44
6, 47719, Note_on_c, 0, 77, 0
6, 47720, Note_on_c, 0, 75, 44
6, 47755, Note_on_c, 0, 75, 0
6, 47760, Note_on_c, 0, 74, 44
6, 47789, Note_on_c, 0, 74, 0
6, 47800, Note_on_c, 0, 72, 44
6, 47829, Note_on_c, 0, 72, 0
6, 47840, Note_on_c, 0, 74, 44
6, 47859, Note_on_c, 0, 74, 0
6, 47865, Note_on_c, 0, 77, 44
6, 47879, Note_on_c, 0, 77, 0
6, 47880, Note_on_c, 0, 75, 44
6, 47909, Note_on_c, 0, 75, 0
6, 47920, Note_on_c, 0, 74, 44
6, 47949, Note_on_c, 0, 74, 0
6, 47960, Note_on_c, 0, 75, 44
6, 47979, Note_on_c, 0, 75, 0
6, 47985, Note_on_c, 0, 79, 44
6, 47999, Note_on_c, 0, 79, 0
6, 48000, Note_on_c, 0, 77, 44
6, 48029, Note_on_c, 0, 77, 0
6, 48040, Note_on_c, 0, 76, 44
6, 48069, Note_on_c, 0, 76, 0
6, 48080, Note_on_c, 0, 77, 44
6, 48109, Note_on_c, 0, 77, 0
6, 48120, Note_on_c, 0, 78, 44
6, 48149, Note_on_c, 0, 78, 0
6, 48160, Note_on_c, 0, 79, 44
6, 48189, Note_on_c, 0, 79, 0
6, 48200, Note_on_c, 0, 81, 44
6, 48229, Note_on_c, 0, 81, 0
6, 48238, Control_c, 0, 11, 96
6, 48240, Note_on_c, 0, 81, 68
6, 48240, Control_c, 0, 11, 96
6, 48260, Control_c, 0, 11, 97
6, 48280, Control_c, 0, 11, 99
6, 48300, Control_c, 0, 11, 100
6, 48320, Control_c, 0, 11, 101
6, 48340, Control_c, 0, 11, 102
6, 48360, Control_c, 0, 11, 104
6, 48380, Control_c, 0, 11, 105
6, 48399, Note_on_c, 0, 81, 0
6, 48400, Note_on_c, 0, 84, 68
6, 48400, Control_c, 0, 11, 106
6, 48420, Control_c, 0, 11, 108
6, 48439, Note_on_c, 0, 84, 0
6, 48440, Control_c, 0, 11, 109
6, 48440, Note_on_c, 0, 82, 68
6, 48460, Control_c, 0, 11, 110
6, 48475, Note_on_c, 0, 82, 0
6, 48480, Note_on_c, 0, 82, 68
6, 48480, Control_c, 0, 11, 112
6, 48500, Control_c, 0, 11, 113
6, 48509, Note_on_c, 0, 82, 0
6, 48520, Note_on_c, 0, 81, 68
6, 48520, Control_c, 0, 11, 114
6, 48540, Control_c, 0, 11, 115
6, 48559, Note_on_c, 0, 81, 0
6, 48560, Control_c, 0, 11, 117
6, 48560, Note_on_c, 0, 82, 68
6, 48580, Control_c, 0, 11, 118
6, 48599, Note_on_c, 0, 82, 0
6, 48600, Control_c, 0, 11, 119
6, 48620, Control_c, 0, 11, 121
6, 48640, Note_on_c, 0, 81, 68
6, 48640, Control_c, 0, 11, 122
6, 48660, Control_c, 0, 11, 123
6, 48679, Note_on_c, 0, 81, 0
6, 48680, Note_on_c, 0, 82, 68
6, 48680, Control_c, 0, 11, 124
6, 48700, Control_c, 0, 11, 126
6, 48719, Note_on_c, 0, 82, 0
6, 48720, Control_c, 0, 11, 127
6, 48760, Note_on_c, 0, 82, 76
6, 48799, Note_on_c, 0, 82, 0
6, 48800, Note_on_c, 0, 83, 68
6, 48839, Note_on_c, 0, 83, 0
6, 48880, Note_on_c, 0, 83, 68
6, 48919, Note_on_c, 0, 83, 0
6, 48920, Note_on_c, 0, 84, 68
6, 48939, Note_on_c, 0, 84, 0
6, 48945, Note_on_c, 0, 86, 52
6, 48959, Note_on_c, 0, 86, 0
6, 48960, Note_on_c, 0, 84, 52
6, 48999, Note_on_c, 0, 84, 0
6, 49000, Note_on_c, 0, 83, 52
6, 49039, Note_on_c, 0, 83, 0
6, 49040, Note_on_c, 0, 84, 52
6, 49075, Note_on_c, 0, 84, 0
6, 49080, Note_on_c, 0, 77, 52
6, 49235, Note_on_c, 0, 77, 0
6, 49240, Note_on_c, 0, 76, 52
6, 49279, Note_on_c, 0, 76, 0
6, 49280, Note_on_c, 0, 77, 52
6, 49319, Note_on_c, 0, 77, 0
6, 49360, Note_on_c, 0, 76, 52
6, 49399, Note_on_c, 0, 76, 0
6, 49400, Note_on_c, 0, 77, 52
6, 49439, Note_on_c, 0, 77, 0
6, 49480, Note_on_c, 0, 76, 52
6, 49519, Note_on_c, 0, 76, 0
6, 49520, Note_on_c, 0, 77, 52
6, 49551, Note_on_c, 0, 77, 0
6, 49560, Note_on_c, 0, 77, 52
6, 49589, Note_on_c, 0, 77, 0
6, 49600, Note_on_c, 0, 79, 52
6, 49629, Note_on_c, 0, 79, 0
6, 49640, Note_on_c, 0, 80, 52
6, 49659, Note_on_c, 0, 80, 0
6, 49665, Note_on_c, 0, 82, 52
6, 49679, Note_on_c, 0, 82, 0
6, 49680, Note_on_c, 0, 80, 52
6, 49719, Note_on_c, 0, 80, 0
6, 49720, Note_on_c, 0, 79, 52
6, 49759, Note_on_c, 0, 79, 0
6, 49760, Note_on_c, 0, 80, 52
6, 49795, Note_on_c, 0, 80, 0
6, 49800, Note_on_c, 0, 74, 52
6, 49955, Note_on_c, 0, 74, 0
6, 49960, Note_on_c, 0, 73, 52
6, 49999, Note_on_c, 0, 73, 0
6, 50000, Note_on_c, 0, 74, 52
6, 50039, Note_on_c, 0, 74, 0
6, 50080, Note_on_c, 0, 74, 52
6, 50119, Note_on_c, 0, 74, 0
6, 50120, Note_on_c, 0, 75, 52
6, 50159, Note_on_c, 0, 75, 0
6, 50200, Note_on_c, 0, 76, 52
6, 50239, Note_on_c, 0, 76, 0
6, 50240, Note_on_c, 0, 77, 52
6, 50279, Note_on_c, 0, 77, 0
6, 50320, Note_on_c, 0, 80, 52
6, 50359, Note_on_c, 0, 80, 0
6, 50360, Note_on_c, 0, 84, 52
6, 50399, Note_on_c, 0, 84, 0
6, 50440, Note_on_c, 0, 84, 53
6, 50479, Note_on_c, 0, 84, 0
6, 50480, Note_on_c, 0, 82, 54
6, 50519, Note_on_c, 0, 82, 0
6, 50560, Note_on_c, 0, 81, 57
6, 50599, Note_on_c, 0, 81, 0
6, 50600, Note_on_c, 0, 82, 58
6, 50639, Note_on_c, 0, 82, 0
6, 50680, Note_on_c, 0, 81, 61
6, 50719, Note_on_c, 0, 81, 0
6, 50720, Note_on_c, 0, 82, 62
6, 50759, Note_on_c, 0, 82, 0
6, 50800, Note_on_c, 0, 84, 65
6, 50839, Note_on_c, 0, 84, 0
6, 50840, Note_on_c, 0, 82, 66
6, 50879, Note_on_c, 0, 82, 0
6, 50920, Note_on_c, 0, 84, 69
6, 50959, Note_on_c, 0, 84, 0
6, 50960, Note_on_c, 0, 82, 70
6, 50999, Note_on_c, 0, 82, 0
6, 51040, Note_on_c, 0, 84, 73
6, 51079, Note_on_c, 0, 84, 0
6, 51080, Note_on_c, 0, 82, 74
6, 51115, Note_on_c, 0, 82, 0
6, 51120, Note_on_c, 0, 82, 76
6, 51239, Note_on_c, 0, 82, 0
6, 53700, Note_on_c, 0, 91, 52
6, 53759, Note_on_c, 0, 91, 0
6, 53760, Note_on_c, 0, 88, 52
6, 53819, Note_on_c, 0, 88, 0
6, 53820, Note_on_c, 0, 85, 52
6, 53879, Note_on_c, 0, 85, 0
6, 53880, Note_on_c, 0, 84, 52
6, 53939, Note_on_c, 0, 84, 0
6, 53940, Note_on_c, 0, 82, 52
6, 53995, Note_on_c, 0, 82, 0
6, 54000, Note_on_c, 0, 80, 76
6, 54119, Note_on_c, 0, 80, 0
6, 62640, Note_on_c, 0, 91, 76
6, 62751, Note_on_c, 0, 91, 0
6, 62760, Note_on_c, 0, 91, 76
6, 62919, Note_on_c, 0, 91, 0
6, 62920, Note_on_c, 0, 89, 76
6, 62959, Note_on_c, 0, 89, 0
6, 62960, Note_on_c, 0, 88, 76
6, 62999, Note_on_c, 0, 88, 0
6, 63000, Note_on_c, 0, 89, 76
6, 63039, Note_on_c, 0, 89, 0
6, 63040, Note_on_c, 0, 91, 76
6, 63079, Note_on_c, 0, 91, 0
6, 63080, Note_on_c, 0, 92, 76
6, 63115, Note_on_c, 0, 92, 0
6, 63120, Note_on_c, 0, 87, 76
6, 63239, Note_on_c, 0, 87, 0
6, 63240, Note_on_c, 0, 89, 76
6, 63329, Note_on_c, 0, 89, 0
6, 63330, Note_on_c, 0, 86, 76
6, 63355, Note_on_c, 0, 86, 0
6, 63360, Note_on_c, 0, 87, 52
6, 63479, Note_on_c, 0, 87, 0
6, 65160, Note_on_c, 0, 87, 48
6, 65264, Note_on_c, 0, 87, 0
6, 65280, Note_on_c, 0, 87, 48
6, 65384, Note_on_c, 0, 87, 0
6, 65400, Note_on_c, 0, 87, 48
6, 65489, Note_on_c, 0, 87, 0
6, 65520, Note_on_c, 0, 86, 48
6, 66231, Note_on_c, 0, 86, 0
6, 66240, Note_on_c, 0, 87, 48
6, 66359, Note_on_c, 0, 87, 0
6, 66720, Note_on_c, 0, 87, 46
6, 66839, Note_on_c, 0, 87, 0
6, 66960, Note_on_c, 0, 87, 44
6, 67079, Note_on_c, 0, 87, 0
6, 67440, Note_on_c, 0, 87, 42
6, 67559, Note_on_c, 0, 87, 0
6, 67680, Note_on_c, 0, 87, 40
6, 68384, Note_on_c, 0, 87, 0
6, 68400, Note_on_c, 0, 87, 44
6, 68639, Note_on_c, 0, 87, 0
6, 68640, Note_on_c, 0, 86, 44
6, 68879, Note_on_c, 0, 86, 0
6, 68880, Note_on_c, 0, 84, 44
6, 69111, Note_on_c, 0, 84, 0
6, 69120, Note_on_c, 0, 82, 44
6, 69479, Note_on_c, 0, 82, 0
6, 69480, Note_on_c, 0, 80, 44
6, 69599, Note_on_c, 0, 80, 0
6, 69600, Note_on_c, 0, 79, 44
6, 69719, Note_on_c, 0, 79, 0
6, 69720, Note_on_c, 0, 82, 44
6, 69759, Note_on_c, 0, 82, 0
6, 69760, Note_on_c, 0, 80, 44
6, 69795, Note_on_c, 0, 80, 0
6, 69800, Note_on_c, 0, 77, 44
6, 69835, Note_on_c, 0, 77, 0
6, 69840, Note_on_c, 0, 75, 44
6, 69959, Note_on_c, 0, 75, 0
6, 70800, Note_on_c, 0, 82, 44
6, 70825, Note_on_c, 0, 82, 0
6, 70830, Note_on_c, 0, 79, 44
6, 70855, Note_on_c, 0, 79, 0
6, 70860, Note_on_c, 0, 75, 44
6, 70885, Note_on_c, 0, 75, 0
6, 70890, Note_on_c, 0, 70, 44
6, 70915, Note_on_c, 0, 70, 0
6, 70920, Note_on_c, 0, 75, 44
6, 70945, Note_on_c, 0, 75, 0
6, 70950, Note_on_c, 0, 79, 44
6, 70975, Note_on_c, 0, 79, 0
6, 70980, Note_on_c, 0, 82, 44
6, 71005, Note_on_c, 0, 82, 0
6, 71010, Note_on_c, 0, 87, 44
6, 71035, Note_on_c, 0, 87, 0
6, 71040, Note_on_c, 0, 91, 44
6, 71061, Note_on_c, 0, 91, 0
6, 71070, Note_on_c, 0, 89, 44
6, 71091, Note_on_c, 0, 89, 0
6, 71100, Note_on_c, 0, 87, 44
6, 71121, Note_on_c, 0, 87, 0
6, 71130, Note_on_c, 0, 86, 44
6, 71151, Note_on_c, 0, 86, 0
6, 71160, Note_on_c, 0, 84, 44
6, 71181, Note_on_c, 0, 84, 0
6, 71190, Note_on_c, 0, 82, 44
6, 71211, Note_on_c, 0, 82, 0
6, 71220, Note_on_c, 0, 80, 44
6, 71241, Note_on_c, 0, 80, 0
6, 71250, Note_on_c, 0, 79, 44
6, 71271, Note_on_c, 0, 79, 0
6, 72240, Note_on_c, 0, 89, 84
6, 72479, Note_on_c, 0, 89, 0
6, 72480, Note_on_c, 0, 91, 84
6, 72599, Note_on_c, 0, 91, 0
6, 73920, Note_on_c, 0, 86, 84
6, 74039, Note_on_c, 0, 86, 0
6, 74160, Note_on_c, 0, 87, 84
6, 74279, Note_on_c, 0, 87, 0
6, 74279, End_track
7, 0, Start_track
7, 0, Title_t, "Oboe"
7, 0, MIDI_port, 0
7, 0, Program_c, 1, 68
7, 0, Control_c, 1, 7, 80
7, 0, Control_c, 1, 10, 70
7, 0, Control_c, 1, 11, 127
7, 5850, Note_on_c, 1, 70, 76
7, 5871, Note_on_c, 1, 70, 0
7, 5880, Note_on_c, 1, 75, 76
7, 5924, Note_on_c, 1, 75, 0
7, 5970, Note_on_c, 1, 70, 76
7, 5991, Note_on_c, 1, 70, 0
7, 6000, Note_on_c, 1, 75, 76
7, 6044, Note_on_c, 1, 75, 0
7, 6090, Note_on_c, 1, 70, 76
7, 6111, Note_on_c, 1, 70, 0
7, 6120, Note_on_c, 1, 75, 76
7, 6164, Note_on_c, 1, 75, 0
7, 6210, Note_on_c, 1, 70, 76
7, 6231, Note_on_c, 1, 70, 0
7, 6240, Note_on_c, 1, 75, 76
7, 6284, Note_on_c, 1, 75, 0
7, 6330, Note_on_c, 1, 70, 76
7, 6351, Note_on_c, 1, 70, 0
7, 6360, Note_on_c, 1, 75, 76
7, 6404, Note_on_c, 1, 75, 0
7, 6450, Note_on_c, 1, 70, 76
7, 6471, Note_on_c, 1, 70, 0
7, 6480, Note_on_c, 1, 75, 52
7, 6599, Note_on_c, 1, 75, 0
7, 8040, Note_on_c, 1, 70, 52
7, 8151, Note_on_c, 1, 70, 0
7, 8160, Note_on_c, 1, 70, 52
7, 8160, Note_on_c, 1, 68, 52
7, 8271, Note_on_c, 1, 70, 0
7, 8279, Note_on_c, 1, 68, 0
7, 8280, Note_on_c, 1, 70, 52
7, 8280, Note_on_c, 1, 67, 52
7, 8391, Note_on_c, 1, 70, 0
7, 8399, Note_on_c, 1, 67, 0
7, 8400, Note_on_c, 1, 70, 52
7, 8400, Note_on_c, 1, 65, 52
7, 8519, Note_on_c, 1, 70, 0
7, 8519, Note_on_c, 1, 65, 0
7, 8520, Note_on_c, 1, 75, 52
7, 8520, Note_on_c, 1, 67, 52
7, 8579, Note_on_c, 1, 67, 0
7, 8580, Note_on_c, 1, 69, 52
7, 8631, Note_on_c, 1, 75, 0
7, 8635, Note_on_c, 1, 69, 0
7, 8638, Control_c, 1, 11, 96
7, 8640, Control_c, 1, 11, 96
7, 8640, Note_on_c, 1, 72, 68
7, 8640, Note_on_c, 1, 75, 68
7, 8660, Control_c, 1, 11, 97
7, 8680, Control_c, 1, 11, 99
7, 8700, Control_c, 1, 11, 100
7, 8720, Control_c, 1, 11, 101
7, 8740, Control_c, 1, 11, 102
7, 8760, Control_c, 1, 11, 104
7, 8780, Control_c, 1, 11, 105
7, 8800, Control_c, 1, 11, 106
7, 8820, Control_c, 1, 11, 108
7, 8840, Control_c, 1, 11, 109
7, 8860, Control_c, 1, 11, 110
7, 8879, Note_on_c, 1, 72, 0
7, 8879, Note_on_c, 1, 75, 0
7, 8880, Note_on_c, 1, 70, 68
7, 8880, Note_on_c, 1, 74, 68
7, 8880, Control_c, 1, 11, 112
7, 8900, Control_c, 1, 11, 113
7, 8920, Control_c, 1, 11, 114
7, 8940, Control_c, 1, 11, 115
7, 8960, Control_c, 1, 11, 117
7, 8980, Control_c, 1, 11, 118
7, 9000, Control_c, 1, 11, 119
7, 9020, Control_c, 1, 11, 121
7, 9040, Control_c, 1, 11, 122
7, 9060, Control_c, 1, 11, 123
7, 9080, Control_c, 1, 11, 124
7, 9100, Control_c, 1, 11, 126
7, 9119, Note_on_c, 1, 70, 0
7, 9119, Note_on_c, 1, 74, 0
7, 9120, Control_c, 1, 11, 127
7, 10890, Control_c, 1, 11, 86
7, 10920, Note_on_c, 1, 79, 76
7, 10920, Note_on_c, 1, 75, 76
7, 10920, Control_c, 1, 11, 88
7, 10950, Control_c, 1, 11, 90
7, 10980, Control_c, 1, 11, 92
7, 11010, Control_c, 1, 11, 94
7, 11040, Control_c, 1, 11, 96
7, 11070, Control_c, 1, 11, 98
7, 11100, Control_c, 1, 11, 100
7, 11130, Control_c, 1, 11, 102
7, 11151, Note_on_c, 1, 79, 0
7, 11151, Note_on_c, 1, 75, 0
7, 11160, Note_on_c, 1, 79, 76
7, 11160, Note_on_c, 1, 76, 76
7, 11160, Control_c, 1, 11, 104
7, 11190, Control_c, 1, 11, 105
7, 11220, Control_c, 1, 11, 107
7, 11250, Control_c, 1, 11, 109
7, 11279, Note_on_c, 1, 79, 0
7, 11279, Note_on_c, 1, 76, 0
7, 11280, Note_on_c, 1, 80, 76
7, 11280, Control_c, 1, 11, 111
7, 11280, Note_on_c, 1, 77, 76
7, 11310, Control_c, 1, 11, 113
7, 11340, Control_c, 1, 11, 115
7, 11370, Control_c, 1, 11, 117
7, 11391, Note_on_c, 1, 80, 0
7, 11391, Note_on_c, 1, 77, 0
7, 11400, Note_on_c, 1, 77, 76
7, 11400, Control_c, 1, 11, 119
7, 11400, Note_on_c, 1, 80, 76
7, 11430, Control_c, 1, 11, 121
7, 11460, Control_c, 1, 11, 123
7, 11489, Note_on_c, 1, 77, 0
7, 11489, Note_on_c, 1, 80, 0
7, 11490, Control_c, 1, 11, 125
7, 11520, Control_c, 1, 11, 127
7, 11520, Note_on_c, 1, 75, 76
7, 11520, Note_on_c, 1, 79, 76
7, 11631, Note_on_c, 1, 75, 0
7, 11631, Note_on_c, 1, 79, 0
7, 11640, Note_on_c, 1, 79, 84
7, 11640, Note_on_c, 1, 75, 84
7, 11759, Note_on_c, 1, 79, 0
7, 11759, Note_on_c, 1, 75, 0
7, 11880, Note_on_c, 1, 75, 84
7, 11880, Note_on_c, 1, 79, 84
7, 11999, Note_on_c, 1, 75, 0
7, 11999, Note_on_c, 1, 79, 0
7, 12120, Note_on_c, 1, 75, 84
7, 12120, Note_on_c, 1, 79, 84
7, 12224, Note_on_c, 1, 75, 0
7, 12224, Note_on_c, 1, 79, 0
7, 12240, Note_on_c, 1, 80, 76
7, 12240, Note_on_c, 1, 74, 76
7, 12300, Control_c, 1, 11, 80
7, 12719, Note_on_c, 1, 80, 0
7, 12720, Note_on_c, 1, 82, 76
7, 12779, Note_on_c, 1, 82, 0
7, 12780, Note_on_c, 1, 84, 76
7, 12839, Note_on_c, 1, 84, 0
7, 12840, Note_on_c, 1, 80, 76
7, 12899, Note_on_c, 1, 80, 0
7, 12900, Note_on_c, 1, 77, 76
7, 12951, Note_on_c, 1, 74, 0
7, 12955, Note_on_c, 1, 77, 0
7, 12958, Control_c, 1, 11, 127
7, 12960, Note_on_c, 1, 75, 76
7, 13071, Note_on_c, 1, 75, 0
7, 13080, Note_on_c, 1, 79, 84
7, 13080, Note_on_c, 1, 75, 84
7, 13199, Note_on_c, 1, 79, 0
7, 13199, Note_on_c, 1, 75, 0
7, 13320, Note_on_c, 1, 79, 84
7, 13320, Note_on_c, 1, 75, 84
7, 13439, Note_on_c, 1, 79, 0
7, 13439, Note_on_c, 1, 75, 0
7, 13560, Note_on_c, 1, 79, 84
7, 13560, Note_on_c, 1, 75, 84
7, 13664, Note_on_c, 1, 79, 0
7, 13664, Note_on_c, 1, 75, 0
7, 13680, Note_on_c, 1, 77, 76
7, 13680, Note_on_c, 1, 74, 76
7, 13740, Control_c, 1, 11, 80
7, 14391, Note_on_c, 1, 77, 0
7, 14391, Note_on_c, 1, 74, 0
7, 14398, Control_c, 1, 11, 127
7, 14400, Note_on_c, 1, 75, 76
7, 14400, Note_on_c, 1, 72, 76
7, 14511, Note_on_c, 1, 75, 0
7, 14511, Note_on_c, 1, 72, 0
7, 14520, Note_on_c, 1, 75, 84
7, 14520, Note_on_c, 1, 72, 84
7, 14639, Note_on_c, 1, 75, 0
7, 14639, Note_on_c, 1, 72, 0
7, 14760, Note_on_c, 1, 75, 84
7, 14760, Note_on_c, 1, 72, 84
7, 14879, Note_on_c, 1, 75, 0
7, 14879, Note_on_c, 1, 72, 0
7, 15000, Note_on_c, 1, 75, 84
7, 15000, Note_on_c, 1, 72, 84
7, 15104, Note_on_c, 1, 75, 0
7, 15104, Note_on_c, 1, 72, 0
7, 15120, Note_on_c, 1, 75, 76
7, 15180, Control_c, 1, 11, 80
7, 15299, Note_on_c, 1, 75, 0
7, 15300, Note_on_c, 1, 74, 76
7, 15359, Note_on_c, 1, 74, 0
7, 15360, Note_on_c, 1, 72, 76
7, 15419, Note_on_c, 1, 72, 0
7, 15420, Note_on_c, 1, 70, 76
7, 15479, Note_on_c, 1, 70, 0
7, 15480, Note_on_c, 1, 69, 76
7, 15539, Note_on_c, 1, 69, 0
7, 15540, Note_on_c, 1, 67, 76
7, 15599, Note_on_c, 1, 67, 0
7, 15600, Note_on_c, 1, 65, 76
7, 15719, Note_on_c, 1, 65, 0
7, 15825, Control_c, 1, 11, 127
7, 15840, Note_on_c, 1, 79, 76
7, 15840, Note_on_c, 1, 75, 76
7, 15900, Control_c, 1, 11, 80
7, 16019, Note_on_c, 1, 79, 0
7, 16019, Note_on_c, 1, 75, 0
7, 16020, Note_on_c, 1, 77, 76
7, 16020, Note_on_c, 1, 74, 76
7, 16079, Note_on_c, 1, 77, 0
7, 16079, Note_on_c, 1, 74, 0
7, 16080, Note_on_c, 1, 75, 76
7, 16080, Note_on_c, 1, 72, 76
7, 16139, Note_on_c, 1, 75, 0
7, 16139, Note_on_c, 1, 72, 0
7, 16140, Note_on_c, 1, 74, 76
7, 16140, Note_on_c, 1, 70, 76
7, 16199, Note_on_c, 1, 74, 0
7, 16199, Note_on_c, 1, 70, 0
7, 16200, Note_on_c, 1, 72, 76
7, 16200, Note_on_c, 1, 69, 76
7, 16259, Note_on_c, 1, 72, 0
7, 16259, Note_on_c, 1, 69, 0
7, 16260, Note_on_c, 1, 70, 76
7, 16260, Note_on_c, 1, 67, 76
7, 16319, Note_on_c, 1, 70, 0
7, 16319, Note_on_c, 1, 67, 0
7, 16320, Note_on_c, 1, 69, 76
7, 16320, Note_on_c, 1, 65, 76
7, 16375, Note_on_c, 1, 69, 0
7, 16375, Note_on_c, 1, 65, 0
7, 16380, Note_on_c, 1, 77, 76
7, 16380, Note_on_c, 1, 65, 76
7, 16435, Note_on_c, 1, 77, 0
7, 16435, Note_on_c, 1, 65, 0
7, 16440, Note_on_c, 1, 77, 76
7, 16440, Note_on_c, 1, 65, 76
7, 16495, Note_on_c, 1, 77, 0
7, 16495, Note_on_c, 1, 65, 0
7, 16500, Note_on_c, 1, 77, 76
7, 16500, Note_on_c, 1, 65, 76
7, 16555, Note_on_c, 1, 77, 0
7, 16555, Note_on_c, 1, 65, 0
7, 16560, Control_c, 1, 11, 80
7, 16560, Note_on_c, 1, 65, 76
7, 16560, Note_on_c, 1, 77, 76
7, 16615, Note_on_c, 1, 65, 0
7, 16615, Note_on_c, 1, 77, 0
7, 16620, Note_on_c, 1, 77, 76
7, 16620, Control_c, 1, 11, 84
7, 16620, Note_on_c, 1, 65, 76
7, 16675, Note_on_c, 1, 77, 0
7, 16675, Note_on_c, 1, 65, 0
7, 16680, Control_c, 1, 11, 88
7, 16680, Note_on_c, 1, 77, 76
7, 16680, Note_on_c, 1, 65, 76
7, 16735, Note_on_c, 1, 77, 0
7, 16735, Note_on_c, 1, 65, 0
7, 16740, Control_c, 1, 11, 92
7, 16740, Note_on_c, 1, 77, 76
7, 16740, Note_on_c, 1, 65, 76
7, 16795, Note_on_c, 1, 77, 0
7, 16795, Note_on_c, 1, 65, 0
7, 16800, Note_on_c, 1, 65, 76
7, 16800, Note_on_c, 1, 77, 76
7, 16800, Control_c, 1, 11, 96
7, 16855, Note_on_c, 1, 65, 0
7, 16855, Note_on_c, 1, 77, 0
7, 16860, Control_c, 1, 11, 100
7, 16860, Note_on_c, 1, 65, 76
7, 16860, Note_on_c, 1, 77, 76
7, 16915, Note_on_c, 1, 65, 0
7, 16915, Note_on_c, 1, 77, 0
7, 16920, Note_on_c, 1, 65, 76
7, 16920, Control_c, 1, 11, 104
7, 16920, Note_on_c, 1, 77, 76
7, 16975, Note_on_c, 1, 65, 0
7, 16975, Note_on_c, 1, 77, 0
7, 16980, Note_on_c, 1, 77, 76
7, 16980, Control_c, 1, 11, 107
7, 16980, Note_on_c, 1, 65, 76
7, 17035, Note_on_c, 1, 77, 0
7, 17035, Note_on_c, 1, 65, 0
7, 17040, Control_c, 1, 11, 111
7, 17040, Note_on_c, 1, 65, 76
7, 17040, Note_on_c, 1, 77, 76
7, 17095, Note_on_c, 1, 65, 0
7, 17095, Note_on_c, 1, 77, 0
7, 17100, Note_on_c, 1, 77, 76
7, 17100, Note_on_c, 1, 65, 76
7, 17100, Control_c, 1, 11, 115
7, 17155, Note_on_c, 1, 77, 0
7, 17155, Note_on_c, 1, 65, 0
7, 17160, Note_on_c, 1, 65, 76
7, 17160, Note_on_c, 1, 77, 76
7, 17160, Control_c, 1, 11, 119
7, 17215, Note_on_c, 1, 65, 0
7, 17215, Note_on_c, 1, 77, 0
7, 17220, Control_c, 1, 11, 123
7, 17220, Note_on_c, 1, 65, 76
7, 17220, Note_on_c, 1, 77, 76
7, 17275, Note_on_c, 1, 65, 0
7, 17275, Note_on_c, 1, 77, 0
7, 17278, Control_c, 1, 11, 127
7, 17280, Note_on_c, 1, 65, 76
7, 17280, Note_on_c, 1, 77, 76
7, 17335, Note_on_c, 1, 65, 0
7, 17335, Note_on_c, 1, 77, 0
7, 17340, Note_on_c, 1, 77, 76
7, 17340, Note_on_c, 1, 65, 76
7, 17395, Note_on_c, 1, 77, 0
7, 17395, Note_on_c, 1, 65, 0
7, 17400, Note_on_c, 1, 77, 76
7, 17400, Note_on_c, 1, 65, 76
7, 17455, Note_on_c, 1, 77, 0
7, 17455, Note_on_c, 1, 65, 0
7, 17460, Note_on_c, 1, 65, 76
7, 17460, Note_on_c, 1, 77, 76
7, 17515, Note_on_c, 1, 65, 0
7, 17515, Note_on_c, 1, 77, 0
7, 17520, Note_on_c, 1, 65, 76
7, 17520, Note_on_c, 1, 77, 76
7, 17575, Note_on_c, 1, 65, 0
7, 17575, Note_on_c, 1, 77, 0
7, 17580, Note_on_c, 1, 77, 76
7, 17580, Note_on_c, 1, 65, 76
7, 17635, Note_on_c, 1, 77, 0
7, 17635, Note_on_c, 1, 65, 0
7, 17640, Note_on_c, 1, 77, 76
7, 17640, Note_on_c, 1, 65, 76
7, 17695, Note_on_c, 1, 77, 0
7, 17695, Note_on_c, 1, 65, 0
7, 17700, Note_on_c, 1, 77, 76
7, 17700, Note_on_c, 1, 65, 76
7, 17755, Note_on_c, 1, 77, 0
7, 17755, Note_on_c, 1, 65, 0
7, 17760, Note_on_c, 1, 77, 76
7, 17760, Note_on_c, 1, 65, 76
7, 17815, Note_on_c, 1, 77, 0
7, 17815, Note_on_c, 1, 65, 0
7, 17820, Note_on_c, 1, 77, 68
7, 17820, Note_on_c, 1, 65, 68
7, 17875, Note_on_c, 1, 77, 0
7, 17875, Note_on_c, 1, 65, 0
7, 17880, Note_on_c, 1, 77, 60
7, 17880, Note_on_c, 1, 65, 60
7, 17935, Note_on_c, 1, 77, 0
7, 17935, Note_on_c, 1, 65, 0
7, 17940, Note_on_c, 1, 77, 52
7, 17940, Note_on_c, 1, 65, 52
7, 17995, Note_on_c, 1, 77, 0
7, 17995, Note_on_c, 1, 65, 0
7, 18000, Note_on_c, 1, 70, 44
7, 18119, Note_on_c, 1, 70, 0
7, 23040, Note_on_c, 1, 77, 76
7, 23040, Note_on_c, 1, 74, 76
7, 23151, Note_on_c, 1, 77, 0
7, 23151, Note_on_c, 1, 74, 0
7, 23160, Note_on_c, 1, 77, 76
7, 23160, Note_on_c, 1, 74, 76
7, 23319, Note_on_c, 1, 77, 0
7, 23319, Note_on_c, 1, 74, 0
7, 23320, Note_on_c, 1, 75, 76
7, 23320, Note_on_c, 1, 72, 76
7, 23359, Note_on_c, 1, 75, 0
7, 23359, Note_on_c, 1, 72, 0
7, 23360, Note_on_c, 1, 74, 76
7, 23360, Note_on_c, 1, 71, 76
7, 23399, Note_on_c, 1, 74, 0
7, 23399, Note_on_c, 1, 71, 0
7, 23400, Note_on_c, 1, 75, 76
7, 23400, Note_on_c, 1, 72, 76
7, 23439, Note_on_c, 1, 75, 0
7, 23439, Note_on_c, 1, 72, 0
7, 23440, Note_on_c, 1, 77, 76
7, 23440, Note_on_c, 1, 74, 76
7, 23479, Note_on_c, 1, 77, 0
7, 23479, Note_on_c, 1, 74, 0
7, 23480, Note_on_c, 1, 79, 76
7, 23480, Note_on_c, 1, 75, 76
7, 23515, Note_on_c, 1, 79, 0
7, 23515, Note_on_c, 1, 75, 0
7, 23520, Note_on_c, 1, 74, 76
7, 23520, Note_on_c, 1, 70, 76
7, 23639, Note_on_c, 1, 74, 0
7, 23639, Note_on_c, 1, 70, 0
7, 23640, Note_on_c, 1, 75, 76
7, 23640, Note_on_c, 1, 72, 76
7, 23729, Note_on_c, 1, 75, 0
7, 23729, Note_on_c, 1, 72, 0
7, 23730, Note_on_c, 1, 72, 76
7, 23730, Note_on_c, 1, 69, 76
7, 23755, Note_on_c, 1, 72, 0
7, 23755, Note_on_c, 1, 69, 0
7, 23760, Note_on_c, 1, 70, 52
7, 23879, Note_on_c, 1, 70, 0
7, 25560, Note_on_c, 1, 74, 48
7, 25560, Note_on_c, 1, 70, 48
7, 25664, Note_on_c, 1, 74, 0
7, 25664, Note_on_c, 1, 70, 0
7, 25680, Note_on_c, 1, 74, 48
7, 25680, Note_on_c, 1, 70, 48
7, 25784, Note_on_c, 1, 74, 0
7, 25784, Note_on_c, 1, 70, 0
7, 25800, Note_on_c, 1, 74, 48
7, 25800, Note_on_c, 1, 70, 48
7, 25889, Note_on_c, 1, 74, 0
7, 25889, Note_on_c, 1, 70, 0
7, 25920, Note_on_c, 1, 75, 48
7, 25920, Note_on_c, 1, 72, 48
7, 26399, Note_on_c, 1, 75, 0
7, 26399, Note_on_c, 1, 72, 0
7, 26400, Note_on_c, 1, 77, 48
7, 26400, Note_on_c, 1, 69, 48
7, 26579, Note_on_c, 1, 77, 0
7, 26579, Note_on_c, 1, 69, 0
7, 26580, Note_on_c, 1, 75, 48
7, 26580, Note_on_c, 1, 72, 48
7, 26635, Note_on_c, 1, 75, 0
7, 26635, Note_on_c, 1, 72, 0
7, 26638, Control_c, 1, 11, 64
7, 26640, Note_on_c, 1, 74, 84
7, 26640, Note_on_c, 1, 70, 84
7, 26640, Control_c, 1, 11, 64
7, 26663, Control_c, 1, 11, 65
7, 26685, Control_c, 1, 11, 66
7, 26708, Control_c, 1, 11, 67
7, 26730, Control_c, 1, 11, 68
7, 26753, Control_c, 1, 11, 69
7, 26775, Control_c, 1, 11, 70
7, 26798, Control_c, 1, 11, 71
7, 26820, Control_c, 1, 11, 72
7, 26843, Control_c, 1, 11, 73
7, 26865, Control_c, 1, 11, 74
7, 26888, Control_c, 1, 11, 75
7, 26910, Control_c, 1, 11, 76
7, 26933, Control_c, 1, 11, 77
7, 26955, Control_c, 1, 11, 78
7, 26978, Control_c, 1, 11, 79
7, 27000, Control_c, 1, 11, 80
7, 27023, Control_c, 1, 11, 81
7, 27045, Control_c, 1, 11, 82
7, 27068, Control_c, 1, 11, 83
7, 27090, Control_c, 1, 11, 84
7, 27113, Control_c, 1, 11, 85
7, 27135, Control_c, 1, 11, 86
7, 27158, Control_c, 1, 11, 87
7, 27180, Control_c, 1, 11, 88
7, 27203, Control_c, 1, 11, 89
7, 27225, Control_c, 1, 11, 90
7, 27248, Control_c, 1, 11, 91
7, 27270, Control_c, 1, 11, 92
7, 27293, Control_c, 1, 11, 93
7, 27315, Control_c, 1, 11, 94
7, 27338, Control_c, 1, 11, 95
7, 27360, Control_c, 1, 11, 96
7, 27419, Note_on_c, 1, 74, 0
7, 27419, Note_on_c, 1, 70, 0
7, 27420, Control_c, 1, 11, 99
7, 27450, Note_on_c, 1, 70, 84
7, 27471, Note_on_c, 1, 70, 0
7, 27480, Note_on_c, 1, 74, 84
7, 27480, Control_c, 1, 11, 101
7, 27524, Note_on_c, 1, 74, 0
7, 27540, Control_c, 1, 11, 104
7, 27570, Note_on_c, 1, 70, 84
7, 27591, Note_on_c, 1, 70, 0
7, 27600, Control_c, 1, 11, 106
7, 27600, Note_on_c, 1, 77, 84
7, 27644, Note_on_c, 1, 77, 0
7, 27660, Control_c, 1, 11, 109
7, 27690, Note_on_c, 1, 74, 84
7, 27711, Note_on_c, 1, 74, 0
7, 27720, Note_on_c, 1, 82, 84
7, 27720, Control_c, 1, 11, 112
7, 27764, Note_on_c, 1, 82, 0
7, 27780, Control_c, 1, 11, 114
7, 27810, Note_on_c, 1, 77, 84
7, 27831, Note_on_c, 1, 77, 0
7, 27840, Control_c, 1, 11, 117
7, 27840, Note_on_c, 1, 86, 84
7, 27884, Note_on_c, 1, 86, 0
7, 27900, Control_c, 1, 11, 119
7, 27930, Note_on_c, 1, 82, 84
7, 27951, Note_on_c, 1, 82, 0
7, 27960, Note_on_c, 1, 77, 84
7, 27960, Control_c, 1, 11, 122
7, 28004, Note_on_c, 1, 77, 0
7, 28020, Control_c, 1, 11, 124
7, 28050, Note_on_c, 1, 74, 84
7, 28071, Note_on_c, 1, 74, 0
7, 28078, Control_c, 1, 11, 127
7, 28080, Note_on_c, 1, 80, 84
7, 28379, Note_on_c, 1, 80, 0
7, 28410, Note_on_c, 1, 77, 84
7, 28431, Note_on_c, 1, 77, 0
7, 28440, Note_on_c, 1, 74, 84
7, 28484, Note_on_c, 1, 74, 0
7, 28530, Note_on_c, 1, 82, 84
7, 28551, Note_on_c, 1, 82, 0
7, 28560, Note_on_c, 1, 80, 84
7, 28604, Note_on_c, 1, 80, 0
7, 28650, Note_on_c, 1, 77, 84
7, 28671, Note_on_c, 1, 77, 0
7, 28680, Note_on_c, 1, 74, 84
7, 28724, Note_on_c, 1, 74, 0
7, 28770, Note_on_c, 1, 70, 84
7, 28791, Note_on_c, 1, 70, 0
7, 28800, Note_on_c, 1, 75, 84
7, 28919, Note_on_c, 1, 75, 0
7, 34650, Note_on_c, 1, 70, 76
7, 34671, Note_on_c, 1, 70, 0
7, 34680, Note_on_c, 1, 75, 76
7, 34724, Note_on_c, 1, 75, 0
7, 34770, Note_on_c, 1, 70, 76
7, 34791, Note_on_c, 1, 70, 0
7, 34800, Note_on_c, 1, 75, 76
7, 34844, Note_on_c, 1, 75, 0
7, 34890, Note_on_c, 1, 70, 76
7, 34911, Note_on_c, 1, 70, 0
7, 34920, Note_on_c, 1, 75, 76
7, 34964, Note_on_c, 1, 75, 0
7, 35010, Note_on_c, 1, 70, 76
7, 35031, Note_on_c, 1, 70, 0
7, 35040, Note_on_c, 1, 75, 76
7, 35084, Note_on_c, 1, 75, 0
7, 35130, Note_on_c, 1, 70, 76
7, 35151, Note_on_c, 1, 70, 0
7, 35160, Note_on_c, 1, 75, 76
7, 35204, Note_on_c, 1, 75, 0
7, 35250, Note_on_c, 1, 70, 76
7, 35271, Note_on_c, 1, 70, 0
7, 35280, Note_on_c, 1, 75, 84
7, 35511, Note_on_c, 1, 75, 0
7, 35520, Note_on_c, 1, 73, 92
7, 35744, Note_on_c, 1, 73, 0
7, 35760, Note_on_c, 1, 71, 92
7, 35984, Note_on_c, 1, 71, 0
7, 36000, Note_on_c, 1, 82, 76
7, 36000, Note_on_c, 1, 70, 76
7, 36719, Note_on_c, 1, 82, 0
7, 36719, Note_on_c, 1, 70, 0
7, 36720, Note_on_c, 1, 82, 76
7, 36720, Note_on_c, 1, 70, 76
7, 37439, Note_on_c, 1, 82, 0
7, 37439, Note_on_c, 1, 70, 0
7, 37440, Note_on_c, 1, 82, 76
7, 37440, Note_on_c, 1, 70, 76
7, 37919, Note_on_c, 1, 82, 0
7, 37919, Note_on_c, 1, 70, 0
7, 37920, Note_on_c, 1, 83, 84
7, 37920, Note_on_c, 1, 71, 84
7, 38144, Note_on_c, 1, 83, 0
7, 38144, Note_on_c, 1, 71, 0
7, 38160, Note_on_c, 1, 83, 52
7, 38160, Note_on_c, 1, 77, 52
7, 38279, Note_on_c, 1, 83, 0
7, 38279, Note_on_c, 1, 77, 0
7, 47640, Note_on_c, 1, 70, 52
7, 47751, Note_on_c, 1, 70, 0
7, 47760, Note_on_c, 1, 70, 52
7, 47760, Note_on_c, 1, 68, 52
7, 47871, Note_on_c, 1, 70, 0
7, 47879, Note_on_c, 1, 68, 0
7, 47880, Note_on_c, 1, 70, 52
7, 47880, Note_on_c, 1, 67, 52
7, 47991, Note_on_c, 1, 70, 0
7, 47999, Note_on_c, 1, 67, 0
7, 48000, Note_on_c, 1, 70, 52
7, 48000, Note_on_c, 1, 65, 52
7, 48119, Note_on_c, 1, 70, 0
7, 48119, Note_on_c, 1, 65, 0
7, 48120, Note_on_c, 1, 75, 52
7, 48120, Note_on_c, 1, 67, 52
7, 48179, Note_on_c, 1, 67, 0
7, 48180, Note_on_c, 1, 69, 52
7, 48231, Note_on_c, 1, 75, 0
7, 48231, Note_on_c, 1, 69, 0
7, 48238, Control_c, 1, 11, 96
7, 48240, Note_on_c, 1, 75, 68
7, 48240, Control_c, 1, 11, 96
7, 48240, Note_on_c, 1, 72, 68
7, 48260, Control_c, 1, 11, 97
7, 48280, Control_c, 1, 11, 99
7, 48300, Control_c, 1, 11, 100
7, 48320, Control_c, 1, 11, 101
7, 48340, Control_c, 1, 11, 102
7, 48360, Control_c, 1, 11, 104
7, 48380, Control_c, 1, 11, 105
7, 48400, Control_c, 1, 11, 106
7, 48420, Control_c, 1, 11, 108
7, 48440, Control_c, 1, 11, 109
7, 48460, Control_c, 1, 11, 110
7, 48479, Note_on_c, 1, 75, 0
7, 48479, Note_on_c, 1, 72, 0
7, 48480, Control_c, 1, 11, 112
7, 48480, Note_on_c, 1, 74, 68
7, 48480, Note_on_c, 1, 70, 68
7, 48500, Control_c, 1, 11, 113
7, 48520, Control_c, 1, 11, 114
7, 48540, Control_c, 1, 11, 115
7, 48560, Control_c, 1, 11, 117
7, 48580, Control_c, 1, 11, 118
7, 48599, Note_on_c, 1, 74, 0
7, 48599, Note_on_c, 1, 70, 0
7, 48600, Control_c, 1, 11, 119
7, 48700, Control_c, 1, 11, 127
7, 49260, Note_on_c, 1, 77, 52
7, 49260, Note_on_c, 1, 80, 52
7, 49319, Note_on_c, 1, 77, 0
7, 49319, Note_on_c, 1, 80, 0
7, 49380, Note_on_c, 1, 80, 52
7, 49380, Note_on_c, 1, 77, 52
7, 49439, Note_on_c, 1, 80, 0
7, 49439, Note_on_c, 1, 77, 0
7, 49500, Note_on_c, 1, 80, 52
7, 49500, Note_on_c, 1, 77, 52
7, 49559, Note_on_c, 1, 80, 0
7, 49559, Note_on_c, 1, 77, 0
7, 49620, Note_on_c, 1, 80, 52
7, 49620, Note_on_c, 1, 77, 52
7, 49679, Note_on_c, 1, 80, 0
7, 49679, Note_on_c, 1, 77, 0
7, 49980, Note_on_c, 1, 77, 52
7, 49980, Note_on_c, 1, 80, 52
7, 50039, Note_on_c, 1, 77, 0
7, 50039, Note_on_c, 1, 80, 0
7, 50100, Note_on_c, 1, 79, 52
7, 50100, Note_on_c, 1, 75, 52
7, 50159, Note_on_c, 1, 79, 0
7, 50159, Note_on_c, 1, 75, 0
7, 50220, Note_on_c, 1, 80, 52
7, 50220, Note_on_c, 1, 77, 52
7, 50279, Note_on_c, 1, 80, 0
7, 50279, Note_on_c, 1, 77, 0
7, 50340, Note_on_c, 1, 80, 52
7, 50340, Note_on_c, 1, 77, 52
7, 50399, Note_on_c, 1, 80, 0
7, 50399, Note_on_c, 1, 77, 0
7, 50460, Note_on_c, 1, 79, 54
7, 50460, Note_on_c, 1, 75, 54
7, 50519, Note_on_c, 1, 79, 0
7, 50519, Note_on_c, 1, 75, 0
7, 50580, Note_on_c, 1, 79, 58
7, 50580, Note_on_c, 1, 75, 58
7, 50639, Note_on_c, 1, 79, 0
7, 50639, Note_on_c, 1, 75, 0
7, 50700, Note_on_c, 1, 79, 62
7, 50700, Note_on_c, 1, 75, 62
7, 50759, Note_on_c, 1, 79, 0
7, 50759, Note_on_c, 1, 75, 0
7, 50820, Note_on_c, 1, 79, 66
7, 50820, Note_on_c, 1, 76, 66
7, 50879, Note_on_c, 1, 79, 0
7, 50879, Note_on_c, 1, 76, 0
7, 50940, Note_on_c, 1, 80, 70
7, 50940, Note_on_c, 1, 77, 70
7, 50999, Note_on_c, 1, 80, 0
7, 50999, Note_on_c, 1, 77, 0
7, 51060, Note_on_c, 1, 77, 74
7, 51060, Note_on_c, 1, 74, 74
7, 51115, Note_on_c, 1, 77, 0
7, 51115, Note_on_c, 1, 74, 0
7, 51120, Note_on_c, 1, 79, 76
7, 51120, Note_on_c, 1, 75, 76
7, 51231, Note_on_c, 1, 79, 0
7, 51231, Note_on_c, 1, 75, 0
7, 51240, Note_on_c, 1, 79, 84
7, 51240, Note_on_c, 1, 75, 84
7, 51359, Note_on_c, 1, 79, 0
7, 51359, Note_on_c, 1, 75, 0
7, 51480, Note_on_c, 1, 79, 84
7, 51480, Note_on_c, 1, 75, 84
7, 51599, Note_on_c, 1, 79, 0
7, 51599, Note_on_c, 1, 75, 0
7, 51720, Note_on_c, 1, 79, 84
7, 51720, Note_on_c, 1, 75, 84
7, 51824, Note_on_c, 1, 79, 0
7, 51824, Note_on_c, 1, 75, 0
7, 51840, Note_on_c, 1, 80, 76
7, 51840, Note_on_c, 1, 74, 76
7, 51900, Control_c, 1, 11, 80
7, 52319, Note_on_c, 1, 80, 0
7, 52320, Note_on_c, 1, 82, 76
7, 52379, Note_on_c, 1, 82, 0
7, 52380, Note_on_c, 1, 84, 76
7, 52439, Note_on_c, 1, 84, 0
7, 52440, Note_on_c, 1, 80, 76
7, 52499, Note_on_c, 1, 80, 0
7, 52500, Note_on_c, 1, 77, 76
7, 52544, Note_on_c, 1, 74, 0
7, 52551, Note_on_c, 1, 77, 0
7, 52558, Control_c, 1, 11, 127
7, 52560, Note_on_c, 1, 75, 76
7, 52671, Note_on_c, 1, 75, 0
7, 52680, Note_on_c, 1, 79, 84
7, 52680, Note_on_c, 1, 75, 84
7, 52799, Note_on_c, 1, 79, 0
7, 52799, Note_on_c, 1, 75, 0
7, 52920, Note_on_c, 1, 79, 84
7, 52920, Note_on_c, 1, 75, 84
7, 53039, Note_on_c, 1, 79, 0
7, 53039, Note_on_c, 1, 75, 0
7, 53160, Note_on_c, 1, 79, 84
7, 53160, Note_on_c, 1, 75, 84
7, 53264, Note_on_c, 1, 79, 0
7, 53264, Note_on_c, 1, 75, 0
7, 53280, Note_on_c, 1, 79, 76
7, 53280, Note_on_c, 1, 76, 76
7, 53340, Control_c, 1, 11, 80
7, 53984, Note_on_c, 1, 79, 0
7, 53984, Note_on_c, 1, 76, 0
7, 53998, Control_c, 1, 11, 127
7, 54000, Note_on_c, 1, 80, 76
7, 54000, Note_on_c, 1, 77, 76
7, 54111, Note_on_c, 1, 80, 0
7, 54111, Note_on_c, 1, 77, 0
7, 54120, Note_on_c, 1, 80, 84
7, 54120, Note_on_c, 1, 77, 84
7, 54239, Note_on_c, 1, 80, 0
7, 54239, Note_on_c, 1, 77, 0
7, 54360, Note_on_c, 1, 80, 84
7, 54360, Note_on_c, 1, 77, 84
7, 54479, Note_on_c, 1, 80, 0
7, 54479, Note_on_c, 1, 77, 0
7, 54600, Note_on_c, 1, 80, 84
7, 54600, Note_on_c, 1, 77, 84
7, 54704, Note_on_c, 1, 80, 0
7, 54704, Note_on_c, 1, 77, 0
7, 54720, Note_on_c, 1, 80, 76
7, 54780, Control_c, 1, 11, 80
7, 54899, Note_on_c, 1, 80, 0
7, 54900, Note_on_c, 1, 79, 76
7, 54959, Note_on_c, 1, 79, 0
7, 54960, Note_on_c, 1, 77, 76
7, 55019, Note_on_c, 1, 77, 0
7, 55020, Note_on_c, 1, 75, 76
7, 55079, Note_on_c, 1, 75, 0
7, 55080, Note_on_c, 1, 74, 76
7, 55139, Note_on_c, 1, 74, 0
7, 55140, Note_on_c, 1, 72, 76
7, 55199, Note_on_c, 1, 72, 0
7, 55200, Note_on_c, 1, 70, 76
7, 55319, Note_on_c, 1, 70, 0
7, 55438, Control_c, 1, 11, 127
7, 55440, Note_on_c, 1, 80, 76
7, 55440, Note_on_c, 1, 84, 76
7, 55500, Control_c, 1, 11, 80
7, 55619, Note_on_c, 1, 80, 0
7, 55619, Note_on_c, 1, 84, 0
7, 55620, Note_on_c, 1, 82, 76
7, 55620, Note_on_c, 1, 79, 76
7, 55679, Note_on_c, 1, 82, 0
7, 55679, Note_on_c, 1, 79, 0
7, 55680, Note_on_c, 1, 80, 76
7, 55680, Note_on_c, 1, 77, 76
7, 55739, Note_on_c, 1, 80, 0
7, 55739, Note_on_c, 1, 77, 0
7, 55740, Note_on_c, 1, 79, 76
7, 55740, Note_on_c, 1, 75, 76
7, 55799, Note_on_c, 1, 79, 0
7, 55799, Note_on_c, 1, 75, 0
7, 55800, Note_on_c, 1, 77, 76
7, 55800, Note_on_c, 1, 74, 76
7, 55859, Note_on_c, 1, 77, 0
7, 55859, Note_on_c, 1, 74, 0
7, 55860, Note_on_c, 1, 75, 76
7, 55860, Note_on_c, 1, 72, 76
7, 55915, Note_on_c, 1, 75, 0
7, 55915, Note_on_c, 1, 72, 0
7, 55920, Note_on_c, 1, 74, 76
7, 55920, Note_on_c, 1, 70, 76
7, 55975, Note_on_c, 1, 74, 0
7, 55975, Note_on_c, 1, 70, 0
7, 55980, Note_on_c, 1, 82, 76
7, 55980, Note_on_c, 1, 70, 76
7, 56035, Note_on_c, 1, 82, 0
7, 56035, Note_on_c, 1, 70, 0
7, 56040, Note_on_c, 1, 82, 76
7, 56040, Note_on_c, 1, 70, 76
7, 56095, Note_on_c, 1, 82, 0
7, 56095, Note_on_c, 1, 70, 0
7, 56100, Note_on_c, 1, 82, 76
7, 56100, Note_on_c, 1, 70, 76
7, 56155, Note_on_c, 1, 82, 0
7, 56155, Note_on_c, 1, 70, 0
7, 56160, Note_on_c, 1, 82, 76
7, 56160, Note_on_c, 1, 70, 76
7, 56160, Control_c, 1, 11, 80
7, 56215, Note_on_c, 1, 82, 0
7, 56215, Note_on_c, 1, 70, 0
7, 56220, Note_on_c, 1, 70, 76
7, 56220, Control_c, 1, 11, 84
7, 56220, Note_on_c, 1, 82, 76
7, 56275, Note_on_c, 1, 70, 0
7, 56275, Note_on_c, 1, 82, 0
7, 56280, Note_on_c, 1, 70, 76
7, 56280, Note_on_c, 1, 82, 76
7, 56280, Control_c, 1, 11, 88
7, 56335, Note_on_c, 1, 70, 0
7, 56335, Note_on_c, 1, 82, 0
7, 56340, Note_on_c, 1, 82, 76
7, 56340, Note_on_c, 1, 70, 76
7, 56340, Control_c, 1, 11, 92
7, 56395, Note_on_c, 1, 82, 0
7, 56395, Note_on_c, 1, 70, 0
7, 56400, Note_on_c, 1, 82, 76
7, 56400, Control_c, 1, 11, 96
7, 56400, Note_on_c, 1, 70, 76
7, 56455, Note_on_c, 1, 82, 0
7, 56455, Note_on_c, 1, 70, 0
7, 56460, Note_on_c, 1, 82, 76
7, 56460, Note_on_c, 1, 70, 76
7, 56460, Control_c, 1, 11, 100
7, 56515, Note_on_c, 1, 82, 0
7, 56515, Note_on_c, 1, 70, 0
7, 56520, Control_c, 1, 11, 104
7, 56520, Note_on_c, 1, 82, 76
7, 56520, Note_on_c, 1, 70, 76
7, 56575, Note_on_c, 1, 82, 0
7, 56575, Note_on_c, 1, 70, 0
7, 56580, Control_c, 1, 11, 107
7, 56580, Note_on_c, 1, 82, 76
7, 56580, Note_on_c, 1, 70, 76
7, 56635, Note_on_c, 1, 82, 0
7, 56635, Note_on_c, 1, 70, 0
7, 56640, Note_on_c, 1, 70, 76
7, 56640, Control_c, 1, 11, 111
7, 56640, Note_on_c, 1, 82, 76
7, 56695, Note_on_c, 1, 70, 0
7, 56695, Note_on_c, 1, 82, 0
7, 56700, Note_on_c, 1, 70, 76
7, 56700, Control_c, 1, 11, 115
7, 56700, Note_on_c, 1, 82, 76
7, 56755, Note_on_c, 1, 70, 0
7, 56755, Note_on_c, 1, 82, 0
7, 56760, Note_on_c, 1, 82, 76
7, 56760, Note_on_c, 1, 70, 76
7, 56760, Control_c, 1, 11, 119
7, 56815, Note_on_c, 1, 82, 0
7, 56815, Note_on_c, 1, 70, 0
7, 56820, Note_on_c, 1, 82, 76
7, 56820, Note_on_c, 1, 70, 76
7, 56820, Control_c, 1, 11, 123
7, 56872, Control_c, 1, 11, 127
7, 56875, Note_on_c, 1, 82, 0
7, 56875, Note_on_c, 1, 70, 0
7, 56880, Note_on_c, 1, 82, 76
7, 56880, Note_on_c, 1, 70, 76
7, 56935, Note_on_c, 1, 82, 0
7, 56935, Note_on_c, 1, 70, 0
7, 56940, Note_on_c, 1, 82, 76
7, 56940, Note_on_c, 1, 70, 76
7, 56995, Note_on_c, 1, 82, 0
7, 56995, Note_on_c, 1, 70, 0
7, 57000, Note_on_c, 1, 82, 76
7, 57000, Note_on_c, 1, 70, 76
7, 57055, Note_on_c, 1, 82, 0
7, 57055, Note_on_c, 1, 70, 0
7, 57060, Note_on_c, 1, 82, 76
7, 57060, Note_on_c, 1, 70, 76
7, 57115, Note_on_c, 1, 82, 0
7, 57115, Note_on_c, 1, 70, 0
7, 57120, Note_on_c, 1, 82, 76
7, 57120, Note_on_c, 1, 70, 76
7, 57175, Note_on_c, 1, 82, 0
7, 57175, Note_on_c, 1, 70, 0
7, 57180, Note_on_c, 1, 82, 76
7, 57180, Note_on_c, 1, 70, 76
7, 57235, Note_on_c, 1, 82, 0
7, 57235, Note_on_c, 1, 70, 0
7, 57240, Note_on_c, 1, 82, 76
7, 57240, Note_on_c, 1, 70, 76
7, 57295, Note_on_c, 1, 82, 0
7, 57295, Note_on_c, 1, 70, 0
7, 57300, Note_on_c, 1, 82, 76
7, 57300, Note_on_c, 1, 70, 76
7, 57355, Note_on_c, 1, 82, 0
7, 57355, Note_on_c, 1, 70, 0
7, 57360, Note_on_c, 1, 82, 76
7, 57360, Note_on_c, 1, 70, 76
7, 57415, Note_on_c, 1, 82, 0
7, 57415, Note_on_c, 1, 70, 0
7, 57420, Note_on_c, 1, 82, 68
7, 57420, Note_on_c, 1, 70, 68
7, 57475, Note_on_c, 1, 82, 0
7, 57475, Note_on_c, 1, 70, 0
7, 57480, Note_on_c, 1, 82, 60
7, 57480, Note_on_c, 1, 70, 60
7, 57535, Note_on_c, 1, 82, 0
7, 57535, Note_on_c, 1, 70, 0
7, 57540, Note_on_c, 1, 82, 52
7, 57540, Note_on_c, 1, 70, 52
7, 57595, Note_on_c, 1, 82, 0
7, 57595, Note_on_c, 1, 70, 0
7, 57600, Note_on_c, 1, 75, 44
7, 57719, Note_on_c, 1, 75, 0
7, 62640, Note_on_c, 1, 82, 76
7, 62640, Note_on_c, 1, 79, 76
7, 62759, Note_on_c, 1, 82, 0
7, 62759, Note_on_c, 1, 79, 0
7, 62760, Note_on_c, 1, 82, 76
7, 62760, Note_on_c, 1, 79, 76
7, 62919, Note_on_c, 1, 82, 0
7, 62919, Note_on_c, 1, 79, 0
7, 62920, Note_on_c, 1, 80, 76
7, 62920, Note_on_c, 1, 77, 76
7, 62959, Note_on_c, 1, 80, 0
7, 62959, Note_on_c, 1, 77, 0
7, 62960, Note_on_c, 1, 79, 76
7, 62960, Note_on_c, 1, 76, 76
7, 62999, Note_on_c, 1, 79, 0
7, 62999, Note_on_c, 1, 76, 0
7, 63000, Note_on_c, 1, 80, 76
7, 63000, Note_on_c, 1, 77, 76
7, 63039, Note_on_c, 1, 80, 0
7, 63039, Note_on_c, 1, 77, 0
7, 63040, Note_on_c, 1, 82, 76
7, 63040, Note_on_c, 1, 79, 76
7, 63079, Note_on_c, 1, 82, 0
7, 63079, Note_on_c, 1, 79, 0
7, 63080, Note_on_c, 1, 84, 76
7, 63080, Note_on_c, 1, 80, 76
7, 63115, Note_on_c, 1, 84, 0
7, 63115, Note_on_c, 1, 80, 0
7, 63120, Note_on_c, 1, 79, 76
7, 63120, Note_on_c, 1, 75, 76
7, 63239, Note_on_c, 1, 79, 0
7, 63239, Note_on_c, 1, 75, 0
7, 63240, Note_on_c, 1, 80, 76
7, 63240, Note_on_c, 1, 77, 76
7, 63329, Note_on_c, 1, 80, 0
7, 63329, Note_on_c, 1, 77, 0
7, 63330, Note_on_c, 1, 77, 76
7, 63330, Note_on_c, 1, 74, 76
7, 63355, Note_on_c, 1, 77, 0
7, 63355, Note_on_c, 1, 74, 0
7, 63360, Note_on_c, 1, 75, 52
7, 63479, Note_on_c, 1, 75, 0
7, 65160, Note_on_c, 1, 79, 48
7, 65160, Note_on_c, 1, 75, 48
7, 65264, Note_on_c, 1, 79, 0
7, 65264, Note_on_c, 1, 75, 0
7, 65280, Note_on_c, 1, 79, 48
7, 65280, Note_on_c, 1, 75, 48
7, 65384, Note_on_c, 1, 79, 0
7, 65384, Note_on_c, 1, 75, 0
7, 65400, Note_on_c, 1, 79, 48
7, 65400, Note_on_c, 1, 75, 48
7, 65489, Note_on_c, 1, 79, 0
7, 65489, Note_on_c, 1, 75, 0
7, 65520, Note_on_c, 1, 80, 48
7, 65520, Note_on_c, 1, 77, 48
7, 65999, Note_on_c, 1, 80, 0
7, 65999, Note_on_c, 1, 77, 0
7, 66000, Note_on_c, 1, 82, 48
7, 66000, Note_on_c, 1, 74, 48
7, 66179, Note_on_c, 1, 82, 0
7, 66179, Note_on_c, 1, 74, 0
7, 66180, Note_on_c, 1, 80, 48
7, 66180, Note_on_c, 1, 77, 48
7, 66235, Note_on_c, 1, 80, 0
7, 66235, Note_on_c, 1, 77, 0
7, 66240, Note_on_c, 1, 79, 48
7, 66240, Note_on_c, 1, 75, 48
7, 66359, Note_on_c, 1, 79, 0
7, 66359, Note_on_c, 1, 75, 0
7, 66720, Note_on_c, 1, 79, 47
7, 66720, Note_on_c, 1, 75, 47
7, 66839, Note_on_c, 1, 79, 0
7, 66839, Note_on_c, 1, 75, 0
7, 66960, Note_on_c, 1, 79, 46
7, 66960, Note_on_c, 1, 75, 46
7, 67079, Note_on_c, 1, 79, 0
7, 67079, Note_on_c, 1, 75, 0
7, 67440, Note_on_c, 1, 79, 44
7, 67440, Note_on_c, 1, 75, 44
7, 67559, Note_on_c, 1, 79, 0
7, 67559, Note_on_c, 1, 75, 0
7, 67680, Note_on_c, 1, 79, 43
7, 67680, Note_on_c, 1, 75, 43
7, 67799, Note_on_c, 1, 79, 0
7, 67799, Note_on_c, 1, 75, 0
7, 71280, Control_c, 1, 11, 48
7, 71740, Control_c, 1, 11, 72
7, 71760, Note_on_c, 1, 80, 84
7, 71760, Control_c, 1, 11, 74
7, 71780, Control_c, 1, 11, 77
7, 71800, Control_c, 1, 11, 79
7, 71820, Control_c, 1, 11, 81
7, 71840, Control_c, 1, 11, 83
7, 71860, Control_c, 1, 11, 85
7, 71880, Control_c, 1, 11, 88
7, 71900, Control_c, 1, 11, 90
7, 71920, Control_c, 1, 11, 92
7, 71940, Control_c, 1, 11, 94
7, 71960, Control_c, 1, 11, 96
7, 71980, Control_c, 1, 11, 98
7, 72000, Control_c, 1, 11, 101
7, 72020, Control_c, 1, 11, 103
7, 72040, Control_c, 1, 11, 105
7, 72060, Control_c, 1, 11, 107
7, 72080, Control_c, 1, 11, 109
7, 72100, Control_c, 1, 11, 112
7, 72120, Control_c, 1, 11, 114
7, 72140, Control_c, 1, 11, 116
7, 72160, Control_c, 1, 11, 118
7, 72180, Control_c, 1, 11, 120
7, 72200, Control_c, 1, 11, 123
7, 72220, Control_c, 1, 11, 127
7, 72231, Note_on_c, 1, 80, 0
7, 72240, Note_on_c, 1, 77, 84
7, 72240, Note_on_c, 1, 80, 84
7, 72479, Note_on_c, 1, 77, 0
7, 72479, Note_on_c, 1, 80, 0
7, 72480, Note_on_c, 1, 75, 84
7, 72480, Note_on_c, 1, 79, 84
7, 72599, Note_on_c, 1, 75, 0
7, 72599, Note_on_c, 1, 79, 0
7, 73920, Note_on_c, 1, 86, 84
7, 73920, Note_on_c, 1, 77, 84
7, 74039, Note_on_c, 1, 86, 0
7, 74039, Note_on_c, 1, 77, 0
7, 74160, Note_on_c, 1, 75, 84
7, 74279, Note_on_c, 1, 75, 0
7, 74279, End_track
8, 0, Start_track
8, 0, Title_t, "Clarinet in B-flat"
8, 0, MIDI_port, 0
8, 0, Program_c, 2, 71
8, 0, Control_c, 2, 7, 88
8, 0, Control_c, 2, 10, 75
8, 0, Control_c, 2, 11, 96
8, 5130, Control_c, 2, 11, 86
8, 5160, Note_on_c, 2, 63, 76
8, 5160, Note_on_c, 2, 67, 76
8, 5160, Control_c, 2, 11, 88
8, 5190, Control_c, 2, 11, 90
8, 5220, Control_c, 2, 11, 92
8, 5250, Control_c, 2, 11, 94
8, 5280, Control_c, 2, 11, 96
8, 5310, Control_c, 2, 11, 98
8, 5340, Control_c, 2, 11, 100
8, 5370, Control_c, 2, 11, 102
8, 5391, Note_on_c, 2, 63, 0
8, 5391, Note_on_c, 2, 67, 0
8, 5400, Control_c, 2, 11, 104
8, 5400, Note_on_c, 2, 64, 76
8, 5400, Note_on_c, 2, 67, 76
8, 5430, Control_c, 2, 11, 105
8, 5460, Control_c, 2, 11, 107
8, 5490, Control_c, 2, 11, 109
8, 5519, Note_on_c, 2, 64, 0
8, 5519, Note_on_c, 2, 67, 0
8, 5520, Note_on_c, 2, 65, 76
8, 5520, Note_on_c, 2, 68, 76
8, 5520, Control_c, 2, 11, 111
8, 5550, Control_c, 2, 11, 113
8, 5580, Control_c, 2, 11, 115
8, 5610, Control_c, 2, 11, 117
8, 5631, Note_on_c, 2, 65, 0
8, 5631, Note_on_c, 2, 68, 0
8, 5640, Note_on_c, 2, 68, 76
8, 5640, Control_c, 2, 11, 119
8, 5640, Note_on_c, 2, 65, 76
8, 5670, Control_c, 2, 11, 121
8, 5700, Control_c, 2, 11, 123
8, 5729, Note_on_c, 2, 68, 0
8, 5729, Note_on_c, 2, 65, 0
8, 5730, Control_c, 2, 11, 125
8, 5760, Control_c, 2, 11, 127
8, 5760, Note_on_c, 2, 67, 76
8, 5760, Note_on_c, 2, 63, 76
8, 5819, Note_on_c, 2, 67, 0
8, 5819, Note_on_c, 2, 63, 0
8, 5850, Note_on_c, 2, 58, 76
8, 5850, Note_on_c, 2, 70, 76
8, 5871, Note_on_c, 2, 58, 0
8, 5871, Note_on_c, 2, 70, 0
8, 5880, Note_on_c, 2, 63, 76
8, 5880, Note_on_c, 2, 75, 76
8, 5924, Note_on_c, 2, 63, 0
8, 5924, Note_on_c, 2, 75, 0
8, 5970, Note_on_c, 2, 58, 76
8, 5970, Note_on_c, 2, 70, 76
8, 5991, Note_on_c, 2, 58, 0
8, 5991, Note_on_c, 2, 70, 0
8, 6000, Note_on_c, 2, 75, 76
8, 6000, Note_on_c, 2, 63, 76
8, 6044, Note_on_c, 2, 75, 0
8, 6044, Note_on_c, 2, 63, 0
8, 6090, Note_on_c, 2, 70, 76
8, 6090, Note_on_c, 2, 58, 76
8, 6111, Note_on_c, 2, 70, 0
8, 6111, Note_on_c, 2, 58, 0
8, 6120, Note_on_c, 2, 75, 76
8, 6120, Note_on_c, 2, 63, 76
8, 6164, Note_on_c, 2, 75, 0
8, 6164, Note_on_c, 2, 63, 0
8, 6210, Note_on_c, 2, 58, 76
8, 6210, Note_on_c, 2, 70, 76
8, 6231, Note_on_c, 2, 58, 0
8, 6231, Note_on_c, 2, 70, 0
8, 6240, Note_on_c, 2, 63, 76
8, 6240, Note_on_c, 2, 75, 76
8, 6284, Note_on_c, 2, 63, 0
8, 6284, Note_on_c, 2, 75, 0
8, 6330, Note_on_c, 2, 58, 76
8, 6330, Note_on_c, 2, 70, 76
8, 6351, Note_on_c, 2, 58, 0
8, 6351, Note_on_c, 2, 70, 0
8, 6360, Note_on_c, 2, 63, 76
8, 6360, Note_on_c, 2, 75, 76
8, 6404, Note_on_c, 2, 63, 0
8, 6404, Note_on_c, 2, 75, 0
8, 6450, Note_on_c, 2, 58, 76
8, 6450, Note_on_c, 2, 70, 76
8, 6471, Note_on_c, 2, 58, 0
8, 6471, Note_on_c, 2, 70, 0
8, 6480, Note_on_c, 2, 75, 52
8, 6480, Note_on_c, 2, 67, 52
8, 6719, Note_on_c, 2, 75, 0
8, 6719, Note_on_c, 2, 67, 0
8, 6720, Note_on_c, 2, 70, 52
8, 6720, Note_on_c, 2, 74, 52
8, 6959, Note_on_c, 2, 70, 0
8, 6959, Note_on_c, 2, 74, 0
8, 6960, Note_on_c, 2, 68, 52
8, 6960, Note_on_c, 2, 72, 52
8, 7191, Note_on_c, 2, 68, 0
8, 7191, Note_on_c, 2, 72, 0
8, 7200, Note_on_c, 2, 70, 52
8, 7200, Note_on_c, 2, 62, 52
8, 7559, Note_on_c, 2, 70, 0
8, 7559, Note_on_c, 2, 62, 0
8, 7560, Note_on_c, 2, 65, 52
8, 7560, Note_on_c, 2, 68, 52
8, 7679, Note_on_c, 2, 65, 0
8, 7679, Note_on_c, 2, 68, 0
8, 7680, Note_on_c, 2, 63, 52
8, 7680, Note_on_c, 2, 67, 52
8, 7799, Note_on_c, 2, 63, 0
8, 7799, Note_on_c, 2, 67, 0
8, 7800, Note_on_c, 2, 63, 52
8, 7800, Note_on_c, 2, 68, 52
8, 7889, Note_on_c, 2, 63, 0
8, 7889, Note_on_c, 2, 68, 0
8, 7890, Note_on_c, 2, 65, 52
8, 7890, Note_on_c, 2, 60, 52
8, 7915, Note_on_c, 2, 65, 0
8, 7915, Note_on_c, 2, 60, 0
8, 7920, Note_on_c, 2, 58, 52
8, 7920, Note_on_c, 2, 63, 52
8, 8159, Note_on_c, 2, 58, 0
8, 8159, Note_on_c, 2, 63, 0
8, 8160, Note_on_c, 2, 62, 52
8, 8160, Note_on_c, 2, 56, 52
8, 8279, Note_on_c, 2, 62, 0
8, 8279, Note_on_c, 2, 56, 0
8, 8280, Note_on_c, 2, 55, 52
8, 8280, Note_on_c, 2, 63, 52
8, 8399, Note_on_c, 2, 55, 0
8, 8399, Note_on_c, 2, 63, 0
8, 8400, Note_on_c, 2, 65, 52
8, 8400, Note_on_c, 2, 58, 52
8, 8519, Note_on_c, 2, 65, 0
8, 8519, Note_on_c, 2, 58, 0
8, 8520, Note_on_c, 2, 67, 52
8, 8520, Note_on_c, 2, 63, 52
8, 8579, Note_on_c, 2, 67, 0
8, 8580, Note_on_c, 2, 69, 52
8, 8631, Note_on_c, 2, 63, 0
8, 8631, Note_on_c, 2, 69, 0
8, 8638, Control_c, 2, 11, 96
8, 8640, Note_on_c, 2, 63, 68
8, 8640, Control_c, 2, 11, 96
8, 8640, Note_on_c, 2, 69, 68
8, 8660, Control_c, 2, 11, 97
8, 8680, Control_c, 2, 11, 99
8, 8700, Control_c, 2, 11, 100
8, 8720, Control_c, 2, 11, 101
8, 8740, Control_c, 2, 11, 102
8, 8760, Control_c, 2, 11, 104
8, 8780, Control_c, 2, 11, 105
8, 8800, Control_c, 2, 11, 106
8, 8820, Control_c, 2, 11, 108
8, 8840, Control_c, 2, 11, 109
8, 8860, Control_c, 2, 11, 110
8, 8879, Note_on_c, 2, 63, 0
8, 8879, Note_on_c, 2, 69, 0
8, 8880, Control_c, 2, 11, 112
8, 8880, Note_on_c, 2, 70, 68
8, 8880, Note_on_c, 2, 62, 68
8, 8900, Control_c, 2, 11, 113
8, 8920, Control_c, 2, 11, 114
8, 8940, Control_c, 2, 11, 115
8, 8960, Control_c, 2, 11, 117
8, 8980, Control_c, 2, 11, 118
8, 9000, Control_c, 2, 11, 119
8, 9020, Control_c, 2, 11, 121
8, 9040, Control_c, 2, 11, 122
8, 9060, Control_c, 2, 11, 123
8, 9080, Control_c, 2, 11, 124
8, 9100, Control_c, 2, 11, 127
8, 9111, Note_on_c, 2, 70, 0
8, 9111, Note_on_c, 2, 62, 0
8, 9120, Note_on_c, 2, 71, 76
8, 9120, Note_on_c, 2, 65, 76
8, 9329, Note_on_c, 2, 71, 0
8, 9330, Note_on_c, 2, 72, 68
8, 9351, Note_on_c, 2, 65, 0
8, 9355, Note_on_c, 2, 72, 0
8, 9360, Note_on_c, 2, 72, 52
8, 9360, Note_on_c, 2, 65, 52
8, 9471, Note_on_c, 2, 65, 0
8, 9479, Note_on_c, 2, 72, 0
8, 9480, Note_on_c, 2, 65, 52
8, 9895, Note_on_c, 2, 65, 0
8, 9900, Note_on_c, 2, 65, 52
8, 9959, Note_on_c, 2, 65, 0
8, 9960, Note_on_c, 2, 67, 52
8, 10019, Note_on_c, 2, 67, 0
8, 10020, Note_on_c, 2, 68, 52
8, 10075, Note_on_c, 2, 68, 0
8, 10080, Note_on_c, 2, 68, 52
8, 10199, Note_on_c, 2, 68, 0
8, 10200, Note_on_c, 2, 62, 52
8, 10439, Note_on_c, 2, 62, 0
8, 10440, Note_on_c, 2, 63, 52
8, 10559, Note_on_c, 2, 63, 0
8, 10560, Note_on_c, 2, 65, 52
8, 10619, Note_on_c, 2, 65, 0
8, 10620, Note_on_c, 2, 67, 52
8, 10679, Note_on_c, 2, 67, 0
8, 10680, Note_on_c, 2, 68, 52
8, 10739, Note_on_c, 2, 68, 0
8, 10740, Note_on_c, 2, 72, 52
8, 10795, Note_on_c, 2, 72, 0
8, 10798, Control_c, 2, 11, 80
8, 10800, Note_on_c, 2, 72, 76
8, 10800, Control_c, 2, 11, 80
8, 10820, Control_c, 2, 11, 81
8, 10840, Control_c, 2, 11, 83
8, 10860, Control_c, 2, 11, 84
8, 10880, Control_c, 2, 11, 85
8, 10900, Control_c, 2, 11, 87
8, 10919, Note_on_c, 2, 72, 0
8, 10920, Note_on_c, 2, 70, 76
8, 10920, Control_c, 2, 11, 88
8, 10940, Control_c, 2, 11, 89
8, 10960, Control_c, 2, 11, 90
8, 10980, Control_c, 2, 11, 92
8, 11000, Control_c, 2, 11, 93
8, 11020, Control_c, 2, 11, 94
8, 11040, Control_c, 2, 11, 96
8, 11060, Control_c, 2, 11, 97
8, 11080, Control_c, 2, 11, 98
8, 11100, Control_c, 2, 11, 100
8, 11120, Control_c, 2, 11, 101
8, 11140, Control_c, 2, 11, 102
8, 11151, Note_on_c, 2, 70, 0
8, 11160, Note_on_c, 2, 72, 76
8, 11160, Control_c, 2, 11, 104
8, 11180, Control_c, 2, 11, 105
8, 11200, Control_c, 2, 11, 106
8, 11220, Control_c, 2, 11, 107
8, 11240, Control_c, 2, 11, 109
8, 11249, Note_on_c, 2, 72, 0
8, 11250, Note_on_c, 2, 70, 76
8, 11260, Control_c, 2, 11, 110
8, 11275, Note_on_c, 2, 70, 0
8, 11280, Note_on_c, 2, 70, 76
8, 11280, Control_c, 2, 11, 111
8, 11300, Control_c, 2, 11, 113
8, 11320, Control_c, 2, 11, 114
8, 11340, Control_c, 2, 11, 115
8, 11360, Control_c, 2, 11, 117
8, 11380, Control_c, 2, 11, 118
8, 11399, Note_on_c, 2, 70, 0
8, 11400, Control_c, 2, 11, 119
8, 11400, Note_on_c, 2, 72, 76
8, 11420, Control_c, 2, 11, 120
8, 11440, Control_c, 2, 11, 122
8, 11460, Control_c, 2, 11, 123
8, 11480, Control_c, 2, 11, 124
8, 11489, Note_on_c, 2, 72, 0
8, 11490, Note_on_c, 2, 70, 76
8, 11500, Control_c, 2, 11, 127
8, 11515, Note_on_c, 2, 70, 0
8, 11520, Note_on_c, 2, 70, 76
8, 11631, Note_on_c, 2, 70, 0
8, 11640, Note_on_c, 2, 70, 84
8, 11640, Note_on_c, 2, 67, 84
8, 11759, Note_on_c, 2, 70, 0
8, 11759, Note_on_c, 2, 67, 0
8, 11880, Note_on_c, 2, 70, 84
8, 11880, Note_on_c, 2, 67, 84
8, 11999, Note_on_c, 2, 70, 0
8, 11999, Note_on_c, 2, 67, 0
8, 12120, Note_on_c, 2, 67, 84
8, 12120, Note_on_c, 2, 70, 84
8, 12224, Note_on_c, 2, 67, 0
8, 12224, Note_on_c, 2, 70, 0
8, 12240, Note_on_c, 2, 68, 76
8, 12240, Note_on_c, 2, 74, 76
8, 12300, Control_c, 2, 11, 80
8, 12951, Note_on_c, 2, 68, 0
8, 12951, Note_on_c, 2, 74, 0
8, 12958, Control_c, 2, 11, 127
8, 12960, Note_on_c, 2, 67, 76
8, 12960, Note_on_c, 2, 75, 76
8, 13071, Note_on_c, 2, 67, 0
8, 13071, Note_on_c, 2, 75, 0
8, 13080, Note_on_c, 2, 70, 84
8, 13080, Note_on_c, 2, 67, 84
8, 13199, Note_on_c, 2, 70, 0
8, 13199, Note_on_c, 2, 67, 0
8, 13320, Note_on_c, 2, 67, 84
8, 13320, Note_on_c, 2, 70, 84
8, 13439, Note_on_c, 2, 67, 0
8, 13439, Note_on_c, 2, 70, 0
8, 13560, Note_on_c, 2, 67, 84
8, 13560, Note_on_c, 2, 70, 84
8, 13664, Note_on_c, 2, 67, 0
8, 13664, Note_on_c, 2, 70, 0
8, 13680, Note_on_c, 2, 65, 76
8, 13680, Note_on_c, 2, 71, 76
8, 13740, Control_c, 2, 11, 80
8, 14391, Note_on_c, 2, 65, 0
8, 14391, Note_on_c, 2, 71, 0
8, 14398, Control_c, 2, 11, 127
8, 14400, Note_on_c, 2, 63, 76
8, 14400, Note_on_c, 2, 72, 76
8, 14511, Note_on_c, 2, 63, 0
8, 14511, Note_on_c, 2, 72, 0
8, 14520, Note_on_c, 2, 63, 84
8, 14520, Note_on_c, 2, 67, 84
8, 14639, Note_on_c, 2, 63, 0
8, 14639, Note_on_c, 2, 67, 0
8, 14760, Note_on_c, 2, 67, 84
8, 14760, Note_on_c, 2, 63, 84
8, 14879, Note_on_c, 2, 67, 0
8, 14879, Note_on_c, 2, 63, 0
8, 15000, Note_on_c, 2, 63, 84
8, 15000, Note_on_c, 2, 67, 84
8, 15119, Note_on_c, 2, 63, 0
8, 15119, Note_on_c, 2, 67, 0
8, 18000, Note_on_c, 2, 70, 52
8, 18239, Note_on_c, 2, 70, 0
8, 18240, Note_on_c, 2, 72, 52
8, 18599, Note_on_c, 2, 72, 0
8, 18600, Note_on_c, 2, 72, 52
8, 18719, Note_on_c, 2, 72, 0
8, 18720, Note_on_c, 2, 72, 52
8, 18899, Note_on_c, 2, 72, 0
8, 18900, Note_on_c, 2, 74, 52
8, 18959, Note_on_c, 2, 74, 0
8, 18960, Note_on_c, 2, 75, 52
8, 19319, Note_on_c, 2, 75, 0
8, 19320, Note_on_c, 2, 77, 52
8, 19379, Note_on_c, 2, 77, 0
8, 19380, Note_on_c, 2, 78, 52
8, 19435, Note_on_c, 2, 78, 0
8, 19440, Note_on_c, 2, 77, 52
8, 19559, Note_on_c, 2, 77, 0
8, 19920, Note_on_c, 2, 79, 52
8, 20099, Note_on_c, 2, 79, 0
8, 20100, Note_on_c, 2, 74, 52
8, 20155, Note_on_c, 2, 74, 0
8, 20160, Note_on_c, 2, 75, 52
8, 20279, Note_on_c, 2, 75, 0
8, 20640, Note_on_c, 2, 77, 52
8, 20819, Note_on_c, 2, 77, 0
8, 20820, Note_on_c, 2, 72, 52
8, 20875, Note_on_c, 2, 72, 0
8, 20878, Control_c, 2, 11, 64
8, 20880, Control_c, 2, 11, 64
8, 20880, Note_on_c, 2, 74, 76
8, 20903, Control_c, 2, 11, 65
8, 20925, Control_c, 2, 11, 66
8, 20948, Control_c, 2, 11, 67
8, 20970, Control_c, 2, 11, 68
8, 20993, Control_c, 2, 11, 69
8, 21015, Control_c, 2, 11, 70
8, 21038, Control_c, 2, 11, 71
8, 21060, Control_c, 2, 11, 72
8, 21083, Control_c, 2, 11, 73
8, 21105, Control_c, 2, 11, 74
8, 21128, Control_c, 2, 11, 75
8, 21150, Control_c, 2, 11, 76
8, 21173, Control_c, 2, 11, 77
8, 21195, Control_c, 2, 11, 78
8, 21218, Control_c, 2, 11, 79
8, 21240, Control_c, 2, 11, 80
8, 21263, Control_c, 2, 11, 81
8, 21285, Control_c, 2, 11, 82
8, 21308, Control_c, 2, 11, 83
8, 21330, Control_c, 2, 11, 84
8, 21353, Control_c, 2, 11, 85
8, 21375, Control_c, 2, 11, 86
8, 21398, Control_c, 2, 11, 87
8, 21420, Control_c, 2, 11, 88
8, 21443, Control_c, 2, 11, 89
8, 21465, Control_c, 2, 11, 90
8, 21488, Control_c, 2, 11, 91
8, 21510, Control_c, 2, 11, 92
8, 21533, Control_c, 2, 11, 93
8, 21555, Control_c, 2, 11, 94
8, 21578, Control_c, 2, 11, 95
8, 21598, Control_c, 2, 11, 80
8, 21659, Note_on_c, 2, 74, 0
8, 21660, Note_on_c, 2, 72, 76
8, 21719, Note_on_c, 2, 72, 0
8, 21720, Note_on_c, 2, 75, 76
8, 21779, Note_on_c, 2, 75, 0
8, 21780, Note_on_c, 2, 67, 76
8, 21835, Note_on_c, 2, 67, 0
8, 21840, Note_on_c, 2, 70, 76
8, 22079, Note_on_c, 2, 70, 0
8, 22080, Note_on_c, 2, 69, 76
8, 22289, Note_on_c, 2, 69, 0
8, 22290, Note_on_c, 2, 77, 76
8, 22315, Note_on_c, 2, 77, 0
8, 22320, Note_on_c, 2, 77, 76
8, 22560, Control_c, 2, 11, 80
8, 22580, Control_c, 2, 11, 82
8, 22600, Control_c, 2, 11, 84
8, 22620, Control_c, 2, 11, 86
8, 22640, Control_c, 2, 11, 88
8, 22660, Control_c, 2, 11, 90
8, 22680, Control_c, 2, 11, 92
8, 22700, Control_c, 2, 11, 94
8, 22720, Control_c, 2, 11, 96
8, 22740, Control_c, 2, 11, 98
8, 22760, Control_c, 2, 11, 100
8, 22780, Control_c, 2, 11, 102
8, 22800, Note_on_c, 2, 74, 76
8, 22800, Control_c, 2, 11, 104
8, 22820, Control_c, 2, 11, 105
8, 22840, Control_c, 2, 11, 107
8, 22860, Control_c, 2, 11, 109
8, 22880, Control_c, 2, 11, 111
8, 22900, Control_c, 2, 11, 113
8, 22920, Control_c, 2, 11, 115
8, 22940, Control_c, 2, 11, 117
8, 22960, Control_c, 2, 11, 119
8, 22980, Control_c, 2, 11, 121
8, 23000, Control_c, 2, 11, 123
8, 23020, Control_c, 2, 11, 127
8, 23151, Note_on_c, 2, 77, 0
8, 23151, Note_on_c, 2, 74, 0
8, 23160, Note_on_c, 2, 77, 76
8, 23160, Note_on_c, 2, 74, 76
8, 23319, Note_on_c, 2, 77, 0
8, 23319, Note_on_c, 2, 74, 0
8, 23320, Note_on_c, 2, 75, 76
8, 23320, Note_on_c, 2, 72, 76
8, 23359, Note_on_c, 2, 75, 0
8, 23359, Note_on_c, 2, 72, 0
8, 23360, Note_on_c, 2, 71, 76
8, 23360, Note_on_c, 2, 74, 76
8, 23399, Note_on_c, 2, 71, 0
8, 23399, Note_on_c, 2, 74, 0
8, 23400, Note_on_c, 2, 75, 76
8, 23400, Note_on_c, 2, 72, 76
8, 23439, Note_on_c, 2, 75, 0
8, 23439, Note_on_c, 2, 72, 0
8, 23440, Note_on_c, 2, 77, 76
8, 23440, Note_on_c, 2, 74, 76
8, 23479, Note_on_c, 2, 77, 0
8, 23479, Note_on_c, 2, 74, 0
8, 23480, Note_on_c, 2, 79, 76
8, 23480, Note_on_c, 2, 75, 76
8, 23515, Note_on_c, 2, 79, 0
8, 23515, Note_on_c, 2, 75, 0
8, 23520, Note_on_c, 2, 70, 76
8, 23520, Note_on_c, 2, 74, 76
8, 23639, Note_on_c, 2, 70, 0
8, 23639, Note_on_c, 2, 74, 0
8, 23640, Note_on_c, 2, 75, 76
8, 23640, Note_on_c, 2, 72, 76
8, 23729, Note_on_c, 2, 75, 0
8, 23729, Note_on_c, 2, 72, 0
8, 23730, Note_on_c, 2, 69, 76
8, 23730, Note_on_c, 2, 72, 76
8, 23755, Note_on_c, 2, 69, 0
8, 23755, Note_on_c, 2, 72, 0
8, 23760, Note_on_c, 2, 70, 52
8, 23879, Note_on_c, 2, 70, 0
8, 25560, Note_on_c, 2, 62, 48
8, 25560, Note_on_c, 2, 58, 48
8, 25664, Note_on_c, 2, 62, 0
8, 25664, Note_on_c, 2, 58, 0
8, 25680, Note_on_c, 2, 62, 48
8, 25680, Note_on_c, 2, 58, 48
8, 25784, Note_on_c, 2, 62, 0
8, 25784, Note_on_c, 2, 58, 0
8, 25800, Note_on_c, 2, 62, 48
8, 25800, Note_on_c, 2, 58, 48
8, 25889, Note_on_c, 2, 62, 0
8, 25889, Note_on_c, 2, 58, 0
8, 25920, Note_on_c, 2, 63, 48
8, 25920, Note_on_c, 2, 60, 48
8, 26399, Note_on_c, 2, 63, 0
8, 26399, Note_on_c, 2, 60, 0
8, 26400, Note_on_c, 2, 57, 48
8, 26400, Note_on_c, 2, 65, 48
8, 26579, Note_on_c, 2, 57, 0
8, 26579, Note_on_c, 2, 65, 0
8, 26580, Note_on_c, 2, 63, 48
8, 26580, Note_on_c, 2, 60, 48
8, 26635, Note_on_c, 2, 63, 0
8, 26635, Note_on_c, 2, 60, 0
8, 26638, Control_c, 2, 11, 64
8, 26640, Note_on_c, 2, 62, 84
8, 26640, Note_on_c, 2, 58, 84
8, 26640, Control_c, 2, 11, 64
8, 26663, Control_c, 2, 11, 65
8, 26685, Control_c, 2, 11, 66
8, 26708, Control_c, 2, 11, 67
8, 26730, Control_c, 2, 11, 68
8, 26753, Control_c, 2, 11, 69
8, 26775, Control_c, 2, 11, 70
8, 26798, Control_c, 2, 11, 71
8, 26820, Control_c, 2, 11, 72
8, 26843, Control_c, 2, 11, 73
8, 26865, Control_c, 2, 11, 74
8, 26888, Control_c, 2, 11, 75
8, 26910, Control_c, 2, 11, 76
8, 26933, Control_c, 2, 11, 77
8, 26955, Control_c, 2, 11, 78
8, 26978, Control_c, 2, 11, 79
8, 27000, Control_c, 2, 11, 80
8, 27023, Control_c, 2, 11, 81
8, 27045, Control_c, 2, 11, 82
8, 27068, Control_c, 2, 11, 83
8, 27090, Control_c, 2, 11, 84
8, 27113, Control_c, 2, 11, 85
8, 27135, Control_c, 2, 11, 86
8, 27158, Control_c, 2, 11, 87
8, 27180, Control_c, 2, 11, 88
8, 27203, Control_c, 2, 11, 89
8, 27225, Control_c, 2, 11, 90
8, 27248, Control_c, 2, 11, 91
8, 27270, Control_c, 2, 11, 92
8, 27293, Control_c, 2, 11, 93
8, 27315, Control_c, 2, 11, 94
8, 27338, Control_c, 2, 11, 95
8, 27360, Control_c, 2, 11, 96
8, 27419, Note_on_c, 2, 62, 0
8, 27419, Note_on_c, 2, 58, 0
8, 27420, Control_c, 2, 11, 99
8, 27450, Note_on_c, 2, 58, 84
8, 27471, Note_on_c, 2, 58, 0
8, 27480, Note_on_c, 2, 62, 84
8, 27480, Control_c, 2, 11, 101
8, 27524, Note_on_c, 2, 62, 0
8, 27540, Control_c, 2, 11, 104
8, 27570, Note_on_c, 2, 58, 84
8, 27591, Note_on_c, 2, 58, 0
8, 27600, Note_on_c, 2, 65, 84
8, 27600, Control_c, 2, 11, 106
8, 27644, Note_on_c, 2, 65, 0
8, 27660, Control_c, 2, 11, 109
8, 27690, Note_on_c, 2, 62, 84
8, 27711, Note_on_c, 2, 62, 0
8, 27720, Control_c, 2, 11, 112
8, 27720, Note_on_c, 2, 70, 84
8, 27764, Note_on_c, 2, 70, 0
8, 27780, Control_c, 2, 11, 114
8, 27810, Note_on_c, 2, 65, 84
8, 27831, Note_on_c, 2, 65, 0
8, 27840, Control_c, 2, 11, 117
8, 27840, Note_on_c, 2, 74, 84
8, 27884, Note_on_c, 2, 74, 0
8, 27900, Control_c, 2, 11, 119
8, 27930, Note_on_c, 2, 70, 84
8, 27951, Note_on_c, 2, 70, 0
8, 27960, Note_on_c, 2, 77, 84
8, 27960, Control_c, 2, 11, 122
8, 28004, Note_on_c, 2, 77, 0
8, 28020, Control_c, 2, 11, 124
8, 28050, Note_on_c, 2, 74, 84
8, 28071, Note_on_c, 2, 74, 0
8, 28078, Control_c, 2, 11, 127
8, 28080, Note_on_c, 2, 80, 84
8, 28080, Note_on_c, 2, 68, 84
8, 28379, Note_on_c, 2, 80, 0
8, 28379, Note_on_c, 2, 68, 0
8, 28410, Note_on_c, 2, 77, 84
8, 28410, Note_on_c, 2, 65, 84
8, 28431, Note_on_c, 2, 77, 0
8, 28431, Note_on_c, 2, 65, 0
8, 28440, Note_on_c, 2, 62, 84
8, 28440, Note_on_c, 2, 74, 84
8, 28484, Note_on_c, 2, 62, 0
8, 28484, Note_on_c, 2, 74, 0
8, 28530, Note_on_c, 2, 70, 84
8, 28530, Note_on_c, 2, 58, 84
8, 28551, Note_on_c, 2, 70, 0
8, 28551, Note_on_c, 2, 58, 0
8, 28560, Note_on_c, 2, 68, 84
8, 28619, Note_on_c, 2, 68, 0
8, 28650, Note_on_c, 2, 65, 84
8, 28671, Note_on_c, 2, 65, 0
8, 28680, Note_on_c, 2, 62, 84
8, 28739, Note_on_c, 2, 62, 0
8, 28770, Note_on_c, 2, 58, 84
8, 28791, Note_on_c, 2, 58, 0
8, 28800, Note_on_c, 2, 63, 84
8, 28919, Note_on_c, 2, 63, 0
8, 33840, Control_c, 2, 11, 87
8, 33960, Note_on_c, 2, 63, 76
8, 33960, Control_c, 2, 11, 88
8, 33960, Note_on_c, 2, 67, 76
8, 33980, Control_c, 2, 11, 89
8, 34000, Control_c, 2, 11, 90
8, 34020, Control_c, 2, 11, 92
8, 34040, Control_c, 2, 11, 93
8, 34060, Control_c, 2, 11, 94
8, 34080, Control_c, 2, 11, 96
8, 34100, Control_c, 2, 11, 97
8, 34120, Control_c, 2, 11, 98
8, 34140, Control_c, 2, 11, 100
8, 34160, Control_c, 2, 11, 101
8, 34180, Control_c, 2, 11, 102
8, 34191, Note_on_c, 2, 63, 0
8, 34191, Note_on_c, 2, 67, 0
8, 34200, Note_on_c, 2, 67, 76
8, 34200, Control_c, 2, 11, 104
8, 34200, Note_on_c, 2, 64, 76
8, 34220, Control_c, 2, 11, 105
8, 34240, Control_c, 2, 11, 106
8, 34260, Control_c, 2, 11, 107
8, 34280, Control_c, 2, 11, 109
8, 34300, Control_c, 2, 11, 110
8, 34319, Note_on_c, 2, 67, 0
8, 34319, Note_on_c, 2, 64, 0
8, 34320, Control_c, 2, 11, 111
8, 34320, Note_on_c, 2, 65, 76
8, 34320, Note_on_c, 2, 68, 76
8, 34340, Control_c, 2, 11, 113
8, 34360, Control_c, 2, 11, 114
8, 34380, Control_c, 2, 11, 115
8, 34400, Control_c, 2, 11, 117
8, 34420, Control_c, 2, 11, 118
8, 34431, Note_on_c, 2, 65, 0
8, 34431, Note_on_c, 2, 68, 0
8, 34440, Note_on_c, 2, 68, 76
8, 34440, Note_on_c, 2, 65, 76
8, 34440, Control_c, 2, 11, 119
8, 34460, Control_c, 2, 11, 120
8, 34480, Control_c, 2, 11, 122
8, 34500, Control_c, 2, 11, 123
8, 34520, Control_c, 2, 11, 124
8, 34529, Note_on_c, 2, 68, 0
8, 34529, Note_on_c, 2, 65, 0
8, 34540, Control_c, 2, 11, 127
8, 34560, Note_on_c, 2, 67, 76
8, 34560, Note_on_c, 2, 63, 76
8, 34604, Note_on_c, 2, 67, 0
8, 34604, Note_on_c, 2, 63, 0
8, 34650, Note_on_c, 2, 58, 76
8, 34650, Note_on_c, 2, 70, 76
8, 34671, Note_on_c, 2, 58, 0
8, 34671, Note_on_c, 2, 70, 0
8, 34680, Note_on_c, 2, 75, 76
8, 34680, Note_on_c, 2, 63, 76
8, 34724, Note_on_c, 2, 75, 0
8, 34724, Note_on_c, 2, 63, 0
8, 34770, Note_on_c, 2, 70, 76
8, 34770, Note_on_c, 2, 58, 76
8, 34791, Note_on_c, 2, 70, 0
8, 34791, Note_on_c, 2, 58, 0
8, 34800, Note_on_c, 2, 63, 76
8, 34800, Note_on_c, 2, 75, 76
8, 34844, Note_on_c, 2, 63, 0
8, 34844, Note_on_c, 2, 75, 0
8, 34890, Note_on_c, 2, 58, 76
8, 34890, Note_on_c, 2, 70, 76
8, 34911, Note_on_c, 2, 58, 0
8, 34911, Note_on_c, 2, 70, 0
8, 34920, Note_on_c, 2, 63, 76
8, 34920, Note_on_c, 2, 75, 76
8, 34964, Note_on_c, 2, 63, 0
8, 34964, Note_on_c, 2, 75, 0
8, 35010, Note_on_c, 2, 58, 76
8, 35010, Note_on_c, 2, 70, 76
8, 35031, Note_on_c, 2, 58, 0
8, 35031, Note_on_c, 2, 70, 0
8, 35040, Note_on_c, 2, 75, 76
8, 35040, Note_on_c, 2, 63, 76
8, 35084, Note_on_c, 2, 75, 0
8, 35084, Note_on_c, 2, 63, 0
8, 35130, Note_on_c, 2, 70, 76
8, 35130, Note_on_c, 2, 58, 76
8, 35151, Note_on_c, 2, 70, 0
8, 35151, Note_on_c, 2, 58, 0
8, 35160, Note_on_c, 2, 75, 76
8, 35160, Note_on_c, 2, 63, 76
8, 35204, Note_on_c, 2, 75, 0
8, 35204, Note_on_c, 2, 63, 0
8, 35250, Note_on_c, 2, 70, 76
8, 35250, Note_on_c, 2, 58, 76
8, 35271, Note_on_c, 2, 70, 0
8, 35271, Note_on_c, 2, 58, 0
8, 35280, Note_on_c, 2, 70, 84
8, 35280, Note_on_c, 2, 66, 84
8, 35511, Note_on_c, 2, 70, 0
8, 35511, Note_on_c, 2, 66, 0
8, 35520, Note_on_c, 2, 68, 92
8, 35520, Note_on_c, 2, 65, 92
8, 35744, Note_on_c, 2, 68, 0
8, 35744, Note_on_c, 2, 65, 0
8, 35760, Note_on_c, 2, 66, 92
8, 35760, Note_on_c, 2, 63, 92
8, 35984, Note_on_c, 2, 66, 0
8, 35984, Note_on_c, 2, 63, 0
8, 36000, Note_on_c, 2, 65, 92
8, 36000, Note_on_c, 2, 61, 92
8, 36224, Note_on_c, 2, 65, 0
8, 36224, Note_on_c, 2, 61, 0
8, 36240, Note_on_c, 2, 80, 92
8, 36240, Note_on_c, 2, 68, 92
8, 36464, Note_on_c, 2, 80, 0
8, 36464, Note_on_c, 2, 68, 0
8, 36480, Note_on_c, 2, 78, 92
8, 36480, Note_on_c, 2, 66, 92
8, 36704, Note_on_c, 2, 78, 0
8, 36704, Note_on_c, 2, 66, 0
8, 36720, Note_on_c, 2, 77, 92
8, 36720, Note_on_c, 2, 65, 92
8, 36944, Note_on_c, 2, 77, 0
8, 36944, Note_on_c, 2, 65, 0
8, 36960, Note_on_c, 2, 75, 92
8, 36960, Note_on_c, 2, 63, 92
8, 37184, Note_on_c, 2, 75, 0
8, 37184, Note_on_c, 2, 63, 0
8, 37200, Note_on_c, 2, 74, 92
8, 37200, Note_on_c, 2, 62, 92
8, 37424, Note_on_c, 2, 74, 0
8, 37424, Note_on_c, 2, 62, 0
8, 37440, Note_on_c, 2, 75, 92
8, 37440, Note_on_c, 2, 63, 92
8, 37664, Note_on_c, 2, 75, 0
8, 37664, Note_on_c, 2, 63, 0
8, 37680, Note_on_c, 2, 73, 92
8, 37680, Note_on_c, 2, 61, 92
8, 37904, Note_on_c, 2, 73, 0
8, 37904, Note_on_c, 2, 61, 0
8, 37920, Note_on_c, 2, 71, 92
8, 37920, Note_on_c, 2, 66, 92
8, 38144, Note_on_c, 2, 71, 0
8, 38144, Note_on_c, 2, 66, 0
8, 38160, Note_on_c, 2, 71, 52
8, 38160, Note_on_c, 2, 65, 52
8, 38279, Note_on_c, 2, 71, 0
8, 38279, Note_on_c, 2, 65, 0
8, 43200, Note_on_c, 2, 78, 52
8, 43439, Note_on_c, 2, 78, 0
8, 43440, Note_on_c, 2, 77, 52
8, 43679, Note_on_c, 2, 77, 0
8, 43680, Note_on_c, 2, 75, 52
8, 43919, Note_on_c, 2, 75, 0
8, 43920, Note_on_c, 2, 74, 52
8, 44159, Note_on_c, 2, 74, 0
8, 44640, Note_on_c, 2, 80, 52
8, 44879, Note_on_c, 2, 80, 0
8, 44880, Note_on_c, 2, 78, 52
8, 45119, Note_on_c, 2, 78, 0
8, 45120, Note_on_c, 2, 77, 52
8, 45359, Note_on_c, 2, 77, 0
8, 45360, Note_on_c, 2, 75, 52
8, 45599, Note_on_c, 2, 75, 0
8, 46080, Note_on_c, 2, 75, 44
8, 46080, Note_on_c, 2, 67, 44
8, 46319, Note_on_c, 2, 75, 0
8, 46319, Note_on_c, 2, 67, 0
8, 46320, Note_on_c, 2, 74, 44
8, 46320, Note_on_c, 2, 70, 44
8, 46559, Note_on_c, 2, 74, 0
8, 46559, Note_on_c, 2, 70, 0
8, 46560, Note_on_c, 2, 72, 44
8, 46560, Note_on_c, 2, 68, 44
8, 46791, Note_on_c, 2, 72, 0
8, 46791, Note_on_c, 2, 68, 0
8, 46800, Note_on_c, 2, 70, 44
8, 46800, Note_on_c, 2, 62, 44
8, 47159, Note_on_c, 2, 70, 0
8, 47159, Note_on_c, 2, 62, 0
8, 47160, Note_on_c, 2, 68, 44
8, 47160, Note_on_c, 2, 65, 44
8, 47279, Note_on_c, 2, 68, 0
8, 47279, Note_on_c, 2, 65, 0
8, 47280, Note_on_c, 2, 67, 44
8, 47280, Note_on_c, 2, 63, 44
8, 47399, Note_on_c, 2, 67, 0
8, 47399, Note_on_c, 2, 63, 0
8, 47400, Note_on_c, 2, 60, 44
8, 47400, Note_on_c, 2, 68, 44
8, 47489, Note_on_c, 2, 68, 0
8, 47490, Note_on_c, 2, 65, 44
8, 47511, Note_on_c, 2, 60, 0
8, 47511, Note_on_c, 2, 65, 0
8, 47520, Note_on_c, 2, 63, 44
8, 47520, Note_on_c, 2, 58, 44
8, 47759, Note_on_c, 2, 63, 0
8, 47759, Note_on_c, 2, 58, 0
8, 47760, Note_on_c, 2, 62, 44
8, 47760, Note_on_c, 2, 56, 44
8, 47879, Note_on_c, 2, 62, 0
8, 47879, Note_on_c, 2, 56, 0
8, 47880, Note_on_c, 2, 63, 44
8, 47880, Note_on_c, 2, 55, 44
8, 47999, Note_on_c, 2, 63, 0
8, 47999, Note_on_c, 2, 55, 0
8, 48000, Note_on_c, 2, 65, 44
8, 48000, Note_on_c, 2, 58, 44
8, 48119, Note_on_c, 2, 65, 0
8, 48119, Note_on_c, 2, 58, 0
8, 48120, Note_on_c, 2, 63, 44
8, 48120, Note_on_c, 2, 67, 44
8, 48179, Note_on_c, 2, 67, 0
8, 48180, Note_on_c, 2, 69, 44
8, 48231, Note_on_c, 2, 63, 0
8, 48231, Note_on_c, 2, 69, 0
8, 48238, Control_c, 2, 11, 96
8, 48240, Note_on_c, 2, 69, 68
8, 48240, Note_on_c, 2, 63, 68
8, 48240, Control_c, 2, 11, 96
8, 48260, Control_c, 2, 11, 97
8, 48280, Control_c, 2, 11, 99
8, 48300, Control_c, 2, 11, 100
8, 48320, Control_c, 2, 11, 101
8, 48340, Control_c, 2, 11, 102
8, 48360, Control_c, 2, 11, 104
8, 48380, Control_c, 2, 11, 105
8, 48400, Control_c, 2, 11, 106
8, 48420, Control_c, 2, 11, 108
8, 48440, Control_c, 2, 11, 109
8, 48460, Control_c, 2, 11, 110
8, 48471, Note_on_c, 2, 69, 0
8, 48479, Note_on_c, 2, 63, 0
8, 48480, Note_on_c, 2, 70, 68
8, 48480, Note_on_c, 2, 62, 68
8, 48480, Control_c, 2, 11, 112
8, 48500, Control_c, 2, 11, 113
8, 48509, Note_on_c, 2, 70, 0
8, 48520, Control_c, 2, 11, 114
8, 48520, Note_on_c, 2, 69, 68
8, 48540, Control_c, 2, 11, 115
8, 48559, Note_on_c, 2, 69, 0
8, 48560, Control_c, 2, 11, 117
8, 48560, Note_on_c, 2, 70, 68
8, 48580, Control_c, 2, 11, 118
8, 48599, Note_on_c, 2, 62, 0
8, 48599, Note_on_c, 2, 70, 0
8, 48600, Control_c, 2, 11, 119
8, 48620, Control_c, 2, 11, 121
8, 48640, Control_c, 2, 11, 122
8, 48640, Note_on_c, 2, 69, 68
8, 48660, Control_c, 2, 11, 123
8, 48679, Note_on_c, 2, 69, 0
8, 48680, Control_c, 2, 11, 124
8, 48680, Note_on_c, 2, 70, 68
8, 48700, Control_c, 2, 11, 127
8, 48719, Note_on_c, 2, 70, 0
8, 48760, Note_on_c, 2, 70, 76
8, 48799, Note_on_c, 2, 70, 0
8, 48800, Note_on_c, 2, 71, 68
8, 48839, Note_on_c, 2, 71, 0
8, 48880, Note_on_c, 2, 71, 68
8, 48919, Note_on_c, 2, 71, 0
8, 48920, Note_on_c, 2, 72, 68
8, 48939, Note_on_c, 2, 72, 0
8, 48945, Note_on_c, 2, 74, 52
8, 48959, Note_on_c, 2, 74, 0
8, 48960, Note_on_c, 2, 72, 52
8, 48999, Note_on_c, 2, 72, 0
8, 49000, Note_on_c, 2, 71, 52
8, 49039, Note_on_c, 2, 71, 0
8, 49040, Note_on_c, 2, 72, 52
8, 49075, Note_on_c, 2, 72, 0
8, 49080, Note_on_c, 2, 65, 52
8, 49235, Note_on_c, 2, 65, 0
8, 49240, Note_on_c, 2, 64, 52
8, 49279, Note_on_c, 2, 64, 0
8, 49280, Note_on_c, 2, 65, 52
8, 49319, Note_on_c, 2, 65, 0
8, 49360, Note_on_c, 2, 64, 52
8, 49399, Note_on_c, 2, 64, 0
8, 49400, Note_on_c, 2, 65, 52
8, 49439, Note_on_c, 2, 65, 0
8, 49480, Note_on_c, 2, 64, 52
8, 49519, Note_on_c, 2, 64, 0
8, 49520, Note_on_c, 2, 65, 52
8, 49549, Note_on_c, 2, 65, 0
8, 49560, Note_on_c, 2, 65, 52
8, 49589, Note_on_c, 2, 65, 0
8, 49600, Note_on_c, 2, 67, 52
8, 49629, Note_on_c, 2, 67, 0
8, 49640, Note_on_c, 2, 68, 52
8, 49659, Note_on_c, 2, 68, 0
8, 49665, Note_on_c, 2, 70, 52
8, 49679, Note_on_c, 2, 70, 0
8, 49680, Note_on_c, 2, 68, 52
8, 49719, Note_on_c, 2, 68, 0
8, 49720, Note_on_c, 2, 67, 52
8, 49759, Note_on_c, 2, 67, 0
8, 49760, Note_on_c, 2, 68, 52
8, 49795, Note_on_c, 2, 68, 0
8, 49800, Note_on_c, 2, 62, 52
8, 49955, Note_on_c, 2, 62, 0
8, 49960, Note_on_c, 2, 61, 52
8, 49999, Note_on_c, 2, 61, 0
8, 50000, Note_on_c, 2, 62, 52
8, 50039, Note_on_c, 2, 62, 0
8, 50080, Note_on_c, 2, 62, 52
8, 50119, Note_on_c, 2, 62, 0
8, 50120, Note_on_c, 2, 63, 52
8, 50159, Note_on_c, 2, 63, 0
8, 50200, Note_on_c, 2, 64, 52
8, 50239, Note_on_c, 2, 64, 0
8, 50240, Note_on_c, 2, 65, 52
8, 50279, Note_on_c, 2, 65, 0
8, 50320, Note_on_c, 2, 68, 52
8, 50359, Note_on_c, 2, 68, 0
8, 50360, Note_on_c, 2, 72, 52
8, 50399, Note_on_c, 2, 72, 0
8, 50440, Note_on_c, 2, 72, 53
8, 50479, Note_on_c, 2, 72, 0
8, 50480, Note_on_c, 2, 70, 54
8, 50519, Note_on_c, 2, 70, 0
8, 50560, Note_on_c, 2, 69, 57
8, 50599, Note_on_c, 2, 69, 0
8, 50600, Note_on_c, 2, 70, 58
8, 50639, Note_on_c, 2, 70, 0
8, 50680, Note_on_c, 2, 69, 61
8, 50719, Note_on_c, 2, 69, 0
8, 50720, Note_on_c, 2, 70, 62
8, 50759, Note_on_c, 2, 70, 0
8, 50800, Note_on_c, 2, 72, 65
8, 50839, Note_on_c, 2, 72, 0
8, 50840, Note_on_c, 2, 70, 66
8, 50879, Note_on_c, 2, 70, 0
8, 50920, Note_on_c, 2, 72, 69
8, 50959, Note_on_c, 2, 72, 0
8, 50960, Note_on_c, 2, 70, 70
8, 50999, Note_on_c, 2, 70, 0
8, 51040, Note_on_c, 2, 72, 73
8, 51079, Note_on_c, 2, 72, 0
8, 51080, Note_on_c, 2, 70, 74
8, 51115, Note_on_c, 2, 70, 0
8, 51120, Note_on_c, 2, 70, 76
8, 51239, Note_on_c, 2, 70, 0
8, 52560, Note_on_c, 2, 67, 76
8, 52671, Note_on_c, 2, 67, 0
8, 52680, Note_on_c, 2, 70, 84
8, 52680, Note_on_c, 2, 67, 84
8, 52799, Note_on_c, 2, 70, 0
8, 52799, Note_on_c, 2, 67, 0
8, 52920, Note_on_c, 2, 70, 84
8, 52920, Note_on_c, 2, 67, 84
8, 53039, Note_on_c, 2, 70, 0
8, 53039, Note_on_c, 2, 67, 0
8, 53160, Note_on_c, 2, 70, 84
8, 53160, Note_on_c, 2, 67, 84
8, 53264, Note_on_c, 2, 70, 0
8, 53264, Note_on_c, 2, 67, 0
8, 53280, Note_on_c, 2, 70, 76
8, 53280, Note_on_c, 2, 67, 76
8, 53340, Control_c, 2, 11, 80
8, 53984, Note_on_c, 2, 70, 0
8, 53984, Note_on_c, 2, 67, 0
8, 53998, Control_c, 2, 11, 127
8, 54000, Note_on_c, 2, 68, 76
8, 54000, Note_on_c, 2, 65, 76
8, 54111, Note_on_c, 2, 68, 0
8, 54111, Note_on_c, 2, 65, 0
8, 54120, Note_on_c, 2, 68, 84
8, 54120, Note_on_c, 2, 65, 84
8, 54239, Note_on_c, 2, 68, 0
8, 54239, Note_on_c, 2, 65, 0
8, 54360, Note_on_c, 2, 68, 84
8, 54360, Note_on_c, 2, 65, 84
8, 54479, Note_on_c, 2, 68, 0
8, 54479, Note_on_c, 2, 65, 0
8, 54600, Note_on_c, 2, 68, 84
8, 54600, Note_on_c, 2, 65, 84
8, 54704, Note_on_c, 2, 68, 0
8, 54704, Note_on_c, 2, 65, 0
8, 54720, Note_on_c, 2, 68, 76
8, 54780, Control_c, 2, 11, 80
8, 54899, Note_on_c, 2, 68, 0
8, 54900, Note_on_c, 2, 67, 76
8, 54959, Note_on_c, 2, 67, 0
8, 54960, Note_on_c, 2, 65, 76
8, 55019, Note_on_c, 2, 65, 0
8, 55020, Note_on_c, 2, 63, 76
8, 55079, Note_on_c, 2, 63, 0
8, 55080, Note_on_c, 2, 62, 76
8, 55139, Note_on_c, 2, 62, 0
8, 55140, Note_on_c, 2, 60, 76
8, 55199, Note_on_c, 2, 60, 0
8, 55200, Note_on_c, 2, 58, 76
8, 55319, Note_on_c, 2, 58, 0
8, 55425, Control_c, 2, 11, 127
8, 55440, Note_on_c, 2, 72, 76
8, 55440, Note_on_c, 2, 68, 76
8, 55500, Control_c, 2, 11, 80
8, 55619, Note_on_c, 2, 72, 0
8, 55619, Note_on_c, 2, 68, 0
8, 55620, Note_on_c, 2, 70, 76
8, 55620, Note_on_c, 2, 67, 76
8, 55679, Note_on_c, 2, 70, 0
8, 55679, Note_on_c, 2, 67, 0
8, 55680, Note_on_c, 2, 68, 76
8, 55680, Note_on_c, 2, 65, 76
8, 55739, Note_on_c, 2, 68, 0
8, 55739, Note_on_c, 2, 65, 0
8, 55740, Note_on_c, 2, 67, 76
8, 55740, Note_on_c, 2, 63, 76
8, 55799, Note_on_c, 2, 67, 0
8, 55799, Note_on_c, 2, 63, 0
8, 55800, Note_on_c, 2, 65, 76
8, 55800, Note_on_c, 2, 62, 76
8, 55859, Note_on_c, 2, 65, 0
8, 55859, Note_on_c, 2, 62, 0
8, 55860, Note_on_c, 2, 63, 76
8, 55860, Note_on_c, 2, 60, 76
8, 55919, Note_on_c, 2, 63, 0
8, 55919, Note_on_c, 2, 60, 0
8, 55920, Note_on_c, 2, 62, 76
8, 55920, Note_on_c, 2, 58, 76
8, 56039, Note_on_c, 2, 62, 0
8, 56039, Note_on_c, 2, 58, 0
8, 57585, Control_c, 2, 11, 127
8, 57600, Note_on_c, 2, 75, 52
8, 57839, Note_on_c, 2, 75, 0
8, 57840, Note_on_c, 2, 77, 52
8, 58191, Note_on_c, 2, 77, 0
8, 58200, Note_on_c, 2, 77, 52
8, 58311, Note_on_c, 2, 77, 0
8, 58320, Note_on_c, 2, 77, 52
8, 58499, Note_on_c, 2, 77, 0
8, 58500, Note_on_c, 2, 79, 52
8, 58559, Note_on_c, 2, 79, 0
8, 58560, Note_on_c, 2, 80, 52
8, 58919, Note_on_c, 2, 80, 0
8, 58920, Note_on_c, 2, 82, 52
8, 58979, Note_on_c, 2, 82, 0
8, 58980, Note_on_c, 2, 83, 52
8, 59035, Note_on_c, 2, 83, 0
8, 59040, Note_on_c, 2, 82, 52
8, 59159, Note_on_c, 2, 82, 0
8, 59520, Note_on_c, 2, 84, 52
8, 59699, Note_on_c, 2, 84, 0
8, 59700, Note_on_c, 2, 79, 52
8, 59755, Note_on_c, 2, 79, 0
8, 59760, Note_on_c, 2, 80, 52
8, 59879, Note_on_c, 2, 80, 0
8, 60232, Control_c, 2, 11, 64
8, 60240, Note_on_c, 2, 82, 76
8, 60419, Note_on_c, 2, 82, 0
8, 60420, Note_on_c, 2, 77, 76
8, 60471, Note_on_c, 2, 77, 0
8, 60480, Note_on_c, 2, 79, 76
8, 60480, Control_c, 2, 11, 64
8, 60503, Control_c, 2, 11, 65
8, 60525, Control_c, 2, 11, 66
8, 60548, Control_c, 2, 11, 67
8, 60570, Control_c, 2, 11, 68
8, 60593, Control_c, 2, 11, 69
8, 60615, Control_c, 2, 11, 70
8, 60638, Control_c, 2, 11, 71
8, 60660, Control_c, 2, 11, 72
8, 60683, Control_c, 2, 11, 73
8, 60705, Control_c, 2, 11, 74
8, 60728, Control_c, 2, 11, 75
8, 60750, Control_c, 2, 11, 76
8, 60773, Control_c, 2, 11, 77
8, 60795, Control_c, 2, 11, 78
8, 60818, Control_c, 2, 11, 79
8, 60840, Control_c, 2, 11, 80
8, 60863, Control_c, 2, 11, 81
8, 60885, Control_c, 2, 11, 82
8, 60908, Control_c, 2, 11, 83
8, 60930, Control_c, 2, 11, 84
8, 60953, Control_c, 2, 11, 85
8, 60975, Control_c, 2, 11, 86
8, 60998, Control_c, 2, 11, 87
8, 61020, Control_c, 2, 11, 88
8, 61043, Control_c, 2, 11, 89
8, 61065, Control_c, 2, 11, 90
8, 61088, Control_c, 2, 11, 91
8, 61110, Control_c, 2, 11, 92
8, 61133, Control_c, 2, 11, 93
8, 61155, Control_c, 2, 11, 94
8, 61178, Control_c, 2, 11, 95
8, 61198, Control_c, 2, 11, 80
8, 61259, Note_on_c, 2, 79, 0
8, 61260, Note_on_c, 2, 77, 76
8, 61319, Note_on_c, 2, 77, 0
8, 61320, Note_on_c, 2, 80, 76
8, 61379, Note_on_c, 2, 80, 0
8, 61380, Note_on_c, 2, 72, 76
8, 61435, Note_on_c, 2, 72, 0
8, 61440, Note_on_c, 2, 75, 76
8, 61679, Note_on_c, 2, 75, 0
8, 61680, Note_on_c, 2, 74, 76
8, 61889, Note_on_c, 2, 74, 0
8, 61890, Note_on_c, 2, 82, 76
8, 61911, Note_on_c, 2, 82, 0
8, 61920, Note_on_c, 2, 82, 76
8, 61920, Control_c, 2, 11, 80
8, 61940, Control_c, 2, 11, 81
8, 61960, Control_c, 2, 11, 83
8, 61980, Control_c, 2, 11, 84
8, 62000, Control_c, 2, 11, 85
8, 62020, Control_c, 2, 11, 87
8, 62040, Control_c, 2, 11, 88
8, 62060, Control_c, 2, 11, 89
8, 62080, Control_c, 2, 11, 90
8, 62100, Control_c, 2, 11, 92
8, 62120, Control_c, 2, 11, 93
8, 62140, Control_c, 2, 11, 94
8, 62160, Control_c, 2, 11, 96
8, 62180, Control_c, 2, 11, 97
8, 62200, Control_c, 2, 11, 98
8, 62220, Control_c, 2, 11, 100
8, 62240, Control_c, 2, 11, 101
8, 62260, Control_c, 2, 11, 102
8, 62280, Control_c, 2, 11, 104
8, 62300, Control_c, 2, 11, 105
8, 62320, Control_c, 2, 11, 106
8, 62340, Control_c, 2, 11, 107
8, 62360, Control_c, 2, 11, 109
8, 62380, Control_c, 2, 11, 110
8, 62400, Note_on_c, 2, 79, 76
8, 62400, Control_c, 2, 11, 111
8, 62420, Control_c, 2, 11, 113
8, 62440, Control_c, 2, 11, 114
8, 62460, Control_c, 2, 11, 115
8, 62480, Control_c, 2, 11, 117
8, 62500, Control_c, 2, 11, 118
8, 62520, Control_c, 2, 11, 119
8, 62540, Control_c, 2, 11, 120
8, 62560, Control_c, 2, 11, 122
8, 62580, Control_c, 2, 11, 123
8, 62600, Control_c, 2, 11, 124
8, 62620, Control_c, 2, 11, 127
8, 62751, Note_on_c, 2, 82, 0
8, 62751, Note_on_c, 2, 79, 0
8, 62760, Note_on_c, 2, 82, 76
8, 62760, Note_on_c, 2, 79, 76
8, 62919, Note_on_c, 2, 82, 0
8, 62919, Note_on_c, 2, 79, 0
8, 62920, Note_on_c, 2, 80, 76
8, 62920, Note_on_c, 2, 77, 76
8, 62959, Note_on_c, 2, 80, 0
8, 62959, Note_on_c, 2, 77, 0
8, 62960, Note_on_c, 2, 79, 76
8, 62960, Note_on_c, 2, 76, 76
8, 62999, Note_on_c, 2, 79, 0
8, 62999, Note_on_c, 2, 76, 0
8, 63000, Note_on_c, 2, 80, 76
8, 63000, Note_on_c, 2, 77, 76
8, 63039, Note_on_c, 2, 80, 0
8, 63039, Note_on_c, 2, 77, 0
8, 63040, Note_on_c, 2, 82, 76
8, 63040, Note_on_c, 2, 79, 76
8, 63079, Note_on_c, 2, 82, 0
8, 63079, Note_on_c, 2, 79, 0
8, 63080, Note_on_c, 2, 84, 76
8, 63080, Note_on_c, 2, 80, 76
8, 63115, Note_on_c, 2, 84, 0
8, 63115, Note_on_c, 2, 80, 0
8, 63120, Note_on_c, 2, 79, 76
8, 63120, Note_on_c, 2, 75, 76
8, 63239, Note_on_c, 2, 79, 0
8, 63239, Note_on_c, 2, 75, 0
8, 63240, Note_on_c, 2, 80, 76
8, 63240, Note_on_c, 2, 77, 76
8, 63329, Note_on_c, 2, 80, 0
8, 63329, Note_on_c, 2, 77, 0
8, 63330, Note_on_c, 2, 77, 76
8, 63330, Note_on_c, 2, 74, 76
8, 63351, Note_on_c, 2, 77, 0
8, 63351, Note_on_c, 2, 74, 0
8, 63360, Note_on_c, 2, 75, 52
8, 63479, Note_on_c, 2, 75, 0
8, 65160, Note_on_c, 2, 63, 48
8, 65160, Note_on_c, 2, 67, 48
8, 65264, Note_on_c, 2, 63, 0
8, 65264, Note_on_c, 2, 67, 0
8, 65280, Note_on_c, 2, 67, 48
8, 65280, Note_on_c, 2, 63, 48
8, 65384, Note_on_c, 2, 67, 0
8, 65384, Note_on_c, 2, 63, 0
8, 65400, Note_on_c, 2, 67, 48
8, 65400, Note_on_c, 2, 63, 48
8, 65489, Note_on_c, 2, 67, 0
8, 65489, Note_on_c, 2, 63, 0
8, 65520, Note_on_c, 2, 68, 48
8, 65520, Note_on_c, 2, 65, 48
8, 65999, Note_on_c, 2, 68, 0
8, 65999, Note_on_c, 2, 65, 0
8, 66000, Note_on_c, 2, 70, 48
8, 66000, Note_on_c, 2, 62, 48
8, 66179, Note_on_c, 2, 70, 0
8, 66179, Note_on_c, 2, 62, 0
8, 66180, Note_on_c, 2, 68, 48
8, 66180, Note_on_c, 2, 65, 48
8, 66235, Note_on_c, 2, 68, 0
8, 66235, Note_on_c, 2, 65, 0
8, 66240, Note_on_c, 2, 67, 48
8, 66240, Note_on_c, 2, 63, 48
8, 66359, Note_on_c, 2, 67, 0
8, 66359, Note_on_c, 2, 63, 0
8, 66720, Note_on_c, 2, 67, 46
8, 66720, Note_on_c, 2, 63, 46
8, 66839, Note_on_c, 2, 67, 0
8, 66839, Note_on_c, 2, 63, 0
8, 66960, Note_on_c, 2, 67, 44
8, 66960, Note_on_c, 2, 63, 44
8, 67079, Note_on_c, 2, 67, 0
8, 67079, Note_on_c, 2, 63, 0
8, 67440, Note_on_c, 2, 67, 42
8, 67440, Note_on_c, 2, 63, 42
8, 67559, Note_on_c, 2, 67, 0
8, 67559, Note_on_c, 2, 63, 0
8, 67680, Note_on_c, 2, 75, 40
8, 67680, Note_on_c, 2, 67, 40
8, 67799, Note_on_c, 2, 67, 0
8, 68391, Note_on_c, 2, 75, 0
8, 68400, Note_on_c, 2, 75, 44
8, 68639, Note_on_c, 2, 75, 0
8, 68640, Note_on_c, 2, 74, 44
8, 68879, Note_on_c, 2, 74, 0
8, 68880, Note_on_c, 2, 72, 44
8, 69111, Note_on_c, 2, 72, 0
8, 69120, Note_on_c, 2, 70, 44
8, 69479, Note_on_c, 2, 70, 0
8, 69480, Note_on_c, 2, 68, 44
8, 69599, Note_on_c, 2, 68, 0
8, 69600, Note_on_c, 2, 67, 44
8, 69719, Note_on_c, 2, 67, 0
8, 69720, Note_on_c, 2, 70, 44
8, 69759, Note_on_c, 2, 70, 0
8, 69760, Note_on_c, 2, 68, 44
8, 69799, Note_on_c, 2, 68, 0
8, 69800, Note_on_c, 2, 65, 44
8, 69829, Note_on_c, 2, 65, 0
8, 69840, Note_on_c, 2, 63, 44
8, 69959, Note_on_c, 2, 63, 0
8, 70440, Note_on_c, 2, 58, 44
8, 70465, Note_on_c, 2, 58, 0
8, 70470, Note_on_c, 2, 63, 44
8, 70495, Note_on_c, 2, 63, 0
8, 70500, Note_on_c, 2, 67, 44
8, 70525, Note_on_c, 2, 67, 0
8, 70530, Note_on_c, 2, 70, 44
8, 70555, Note_on_c, 2, 70, 0
8, 70560, Note_on_c, 2, 75, 44
8, 70585, Note_on_c, 2, 75, 0
8, 70590, Note_on_c, 2, 70, 44
8, 70615, Note_on_c, 2, 70, 0
8, 70620, Note_on_c, 2, 67, 44
8, 70645, Note_on_c, 2, 67, 0
8, 70650, Note_on_c, 2, 63, 44
8, 70675, Note_on_c, 2, 63, 0
8, 70680, Note_on_c, 2, 67, 44
8, 70705, Note_on_c, 2, 67, 0
8, 70710, Note_on_c, 2, 70, 44
8, 70735, Note_on_c, 2, 70, 0
8, 70740, Note_on_c, 2, 75, 44
8, 70765, Note_on_c, 2, 75, 0
8, 70770, Note_on_c, 2, 79, 44
8, 70799, Note_on_c, 2, 79, 0
8, 71740, Control_c, 2, 11, 72
8, 71760, Note_on_c, 2, 68, 84
8, 71760, Control_c, 2, 11, 74
8, 71780, Control_c, 2, 11, 77
8, 71800, Control_c, 2, 11, 79
8, 71820, Control_c, 2, 11, 81
8, 71840, Control_c, 2, 11, 83
8, 71860, Control_c, 2, 11, 85
8, 71880, Control_c, 2, 11, 88
8, 71900, Control_c, 2, 11, 90
8, 71920, Control_c, 2, 11, 92
8, 71940, Control_c, 2, 11, 94
8, 71960, Control_c, 2, 11, 96
8, 71980, Control_c, 2, 11, 98
8, 72000, Control_c, 2, 11, 101
8, 72020, Control_c, 2, 11, 103
8, 72040, Control_c, 2, 11, 105
8, 72060, Control_c, 2, 11, 107
8, 72080, Control_c, 2, 11, 109
8, 72100, Control_c, 2, 11, 112
8, 72120, Control_c, 2, 11, 114
8, 72140, Control_c, 2, 11, 116
8, 72160, Control_c, 2, 11, 118
8, 72180, Control_c, 2, 11, 120
8, 72200, Control_c, 2, 11, 123
8, 72220, Control_c, 2, 11, 127
8, 72231, Note_on_c, 2, 68, 0
8, 72240, Note_on_c, 2, 68, 84
8, 72240, Note_on_c, 2, 65, 84
8, 72479, Note_on_c, 2, 68, 0
8, 72479, Note_on_c, 2, 65, 0
8, 72480, Note_on_c, 2, 63, 84
8, 72480, Note_on_c, 2, 67, 84
8, 72599, Note_on_c, 2, 63, 0
8, 72599, Note_on_c, 2, 67, 0
8, 73920, Note_on_c, 2, 74, 84
8, 73920, Note_on_c, 2, 65, 84
8, 74039, Note_on_c, 2, 74, 0
8, 74039, Note_on_c, 2, 65, 0
8, 74160, Note_on_c, 2, 75, 84
8, 74160, Note_on_c, 2, 67, 84
8, 74279, Note_on_c, 2, 75, 0
8, 74279, Note_on_c, 2, 67, 0
8, 74279, End_track
9, 0, Start_track
9, 0, Title_t, "Bassoon"
9, 0, MIDI_port, 0
9, 0, Program_c, 3, 70
9, 0, Control_c, 3, 7, 96
9, 0, Control_c, 3, 10, 65
9, 0, Control_c, 3, 11, 96
9, 5130, Control_c, 3, 11, 86
9, 5160, Note_on_c, 3, 51, 76
9, 5160, Note_on_c, 3, 55, 76
9, 5160, Control_c, 3, 11, 88
9, 5190, Control_c, 3, 11, 90
9, 5220, Control_c, 3, 11, 92
9, 5250, Control_c, 3, 11, 94
9, 5280, Control_c, 3, 11, 96
9, 5310, Control_c, 3, 11, 98
9, 5340, Control_c, 3, 11, 100
9, 5370, Control_c, 3, 11, 102
9, 5391, Note_on_c, 3, 51, 0
9, 5391, Note_on_c, 3, 55, 0
9, 5400, Note_on_c, 3, 55, 76
9, 5400, Note_on_c, 3, 52, 76
9, 5400, Control_c, 3, 11, 104
9, 5430, Control_c, 3, 11, 105
9, 5460, Control_c, 3, 11, 107
9, 5490, Control_c, 3, 11, 109
9, 5519, Note_on_c, 3, 55, 0
9, 5519, Note_on_c, 3, 52, 0
9, 5520, Control_c, 3, 11, 111
9, 5520, Note_on_c, 3, 56, 76
9, 5520, Note_on_c, 3, 53, 76
9, 5550, Control_c, 3, 11, 113
9, 5580, Control_c, 3, 11, 115
9, 5610, Control_c, 3, 11, 117
9, 5631, Note_on_c, 3, 56, 0
9, 5631, Note_on_c, 3, 53, 0
9, 5640, Note_on_c, 3, 56, 76
9, 5640, Note_on_c, 3, 53, 76
9, 5640, Control_c, 3, 11, 119
9, 5670, Control_c, 3, 11, 121
9, 5700, Control_c, 3, 11, 123
9, 5729, Note_on_c, 3, 56, 0
9, 5729, Note_on_c, 3, 53, 0
9, 5730, Control_c, 3, 11, 127
9, 5760, Note_on_c, 3, 51, 76
9, 5760, Note_on_c, 3, 55, 76
9, 5819, Note_on_c, 3, 51, 0
9, 5819, Note_on_c, 3, 55, 0
9, 5850, Note_on_c, 3, 46, 76
9, 5871, Note_on_c, 3, 46, 0
9, 5880, Note_on_c, 3, 51, 76
9, 5924, Note_on_c, 3, 51, 0
9, 5970, Note_on_c, 3, 46, 76
9, 5991, Note_on_c, 3, 46, 0
9, 6000, Note_on_c, 3, 51, 76
9, 6044, Note_on_c, 3, 51, 0
9, 6090, Note_on_c, 3, 46, 76
9, 6111, Note_on_c, 3, 46, 0
9, 6120, Note_on_c, 3, 51, 76
9, 6164, Note_on_c, 3, 51, 0
9, 6210, Note_on_c, 3, 46, 76
9, 6231, Note_on_c, 3, 46, 0
9, 6240, Note_on_c, 3, 51, 76
9, 6284, Note_on_c, 3, 51, 0
9, 6330, Note_on_c, 3, 46, 76
9, 6351, Note_on_c, 3, 46, 0
9, 6360, Note_on_c, 3, 51, 76
9, 6404, Note_on_c, 3, 51, 0
9, 6450, Note_on_c, 3, 46, 76
9, 6471, Note_on_c, 3, 46, 0
9, 6480, Note_on_c, 3, 51, 52
9, 6480, Note_on_c, 3, 55, 52
9, 6719, Note_on_c, 3, 51, 0
9, 6719, Note_on_c, 3, 55, 0
9, 6720, Note_on_c, 3, 58, 52
9, 6720, Note_on_c, 3, 55, 52
9, 6959, Note_on_c, 3, 58, 0
9, 6959, Note_on_c, 3, 55, 0
9, 6960, Note_on_c, 3, 60, 52
9, 6960, Note_on_c, 3, 56, 52
9, 7191, Note_on_c, 3, 60, 0
9, 7191, Note_on_c, 3, 56, 0
9, 7200, Note_on_c, 3, 53, 52
9, 7200, Note_on_c, 3, 56, 52
9, 7551, Note_on_c, 3, 53, 0
9, 7551, Note_on_c, 3, 56, 0
9, 7560, Note_on_c, 3, 53, 52
9, 7560, Note_on_c, 3, 56, 52
9, 7679, Note_on_c, 3, 53, 0
9, 7679, Note_on_c, 3, 56, 0
9, 7680, Note_on_c, 3, 51, 52
9, 7680, Note_on_c, 3, 55, 52
9, 7799, Note_on_c, 3, 51, 0
9, 7799, Note_on_c, 3, 55, 0
9, 7800, Note_on_c, 3, 44, 52
9, 7800, Note_on_c, 3, 60, 52
9, 7889, Note_on_c, 3, 60, 0
9, 7890, Note_on_c, 3, 56, 52
9, 7911, Note_on_c, 3, 44, 0
9, 7911, Note_on_c, 3, 56, 0
9, 7920, Note_on_c, 3, 55, 52
9, 7920, Note_on_c, 3, 46, 52
9, 8159, Note_on_c, 3, 55, 0
9, 8160, Note_on_c, 3, 53, 52
9, 8279, Note_on_c, 3, 53, 0
9, 8280, Note_on_c, 3, 51, 52
9, 8399, Note_on_c, 3, 51, 0
9, 8400, Note_on_c, 3, 50, 52
9, 8511, Note_on_c, 3, 46, 0
9, 8519, Note_on_c, 3, 50, 0
9, 8520, Note_on_c, 3, 48, 52
9, 8520, Note_on_c, 3, 46, 52
9, 8579, Note_on_c, 3, 48, 0
9, 8580, Note_on_c, 3, 53, 52
9, 8631, Note_on_c, 3, 46, 0
9, 8631, Note_on_c, 3, 53, 0
9, 8638, Control_c, 3, 11, 96
9, 8640, Note_on_c, 3, 46, 68
9, 8640, Control_c, 3, 11, 96
9, 8640, Note_on_c, 3, 53, 68
9, 8660, Control_c, 3, 11, 97
9, 8680, Control_c, 3, 11, 99
9, 8700, Control_c, 3, 11, 100
9, 8720, Control_c, 3, 11, 101
9, 8740, Control_c, 3, 11, 102
9, 8760, Control_c, 3, 11, 104
9, 8780, Control_c, 3, 11, 105
9, 8800, Control_c, 3, 11, 106
9, 8820, Control_c, 3, 11, 108
9, 8840, Control_c, 3, 11, 109
9, 8860, Control_c, 3, 11, 110
9, 8879, Note_on_c, 3, 53, 0
9, 8880, Note_on_c, 3, 58, 68
9, 8880, Control_c, 3, 11, 112
9, 8900, Control_c, 3, 11, 113
9, 8920, Control_c, 3, 11, 114
9, 8940, Control_c, 3, 11, 115
9, 8960, Control_c, 3, 11, 117
9, 8980, Control_c, 3, 11, 118
9, 9000, Control_c, 3, 11, 119
9, 9020, Control_c, 3, 11, 121
9, 9040, Control_c, 3, 11, 122
9, 9060, Control_c, 3, 11, 123
9, 9080, Control_c, 3, 11, 124
9, 9100, Control_c, 3, 11, 127
9, 9119, Note_on_c, 3, 46, 0
9, 9119, Note_on_c, 3, 58, 0
9, 9120, Note_on_c, 3, 43, 76
9, 9120, Note_on_c, 3, 59, 76
9, 9329, Note_on_c, 3, 59, 0
9, 9330, Note_on_c, 3, 60, 68
9, 9351, Note_on_c, 3, 43, 0
9, 9351, Note_on_c, 3, 60, 0
9, 9360, Note_on_c, 3, 60, 52
9, 9360, Note_on_c, 3, 44, 52
9, 9479, Note_on_c, 3, 60, 0
9, 9480, Note_on_c, 3, 53, 52
9, 9895, Note_on_c, 3, 53, 0
9, 9900, Note_on_c, 3, 53, 52
9, 9959, Note_on_c, 3, 44, 0
9, 9959, Note_on_c, 3, 53, 0
9, 9960, Note_on_c, 3, 55, 52
9, 10019, Note_on_c, 3, 55, 0
9, 10020, Note_on_c, 3, 56, 52
9, 10075, Note_on_c, 3, 56, 0
9, 10080, Note_on_c, 3, 46, 52
9, 10080, Note_on_c, 3, 56, 52
9, 10199, Note_on_c, 3, 56, 0
9, 10200, Note_on_c, 3, 50, 52
9, 10439, Note_on_c, 3, 46, 0
9, 10439, Note_on_c, 3, 50, 0
9, 10440, Note_on_c, 3, 51, 52
9, 10440, Note_on_c, 3, 48, 52
9, 10559, Note_on_c, 3, 51, 0
9, 10559, Note_on_c, 3, 48, 0
9, 10560, Note_on_c, 3, 53, 52
9, 10560, Note_on_c, 3, 44, 52
9, 10619, Note_on_c, 3, 53, 0
9, 10620, Note_on_c, 3, 55, 52
9, 10679, Note_on_c, 3, 44, 0
9, 10679, Note_on_c, 3, 55, 0
9, 10680, Note_on_c, 3, 56, 52
9, 10680, Note_on_c, 3, 41, 52
9, 10739, Note_on_c, 3, 56, 0
9, 10740, Note_on_c, 3, 60, 52
9, 10791, Note_on_c, 3, 41, 0
9, 10791, Note_on_c, 3, 60, 0
9, 10798, Control_c, 3, 11, 80
9, 10800, Note_on_c, 3, 60, 76
9, 10800, Control_c, 3, 11, 80
9, 10800, Note_on_c, 3, 46, 76
9, 10820, Control_c, 3, 11, 81
9, 10840, Control_c, 3, 11, 83
9, 10860, Control_c, 3, 11, 84
9, 10880, Control_c, 3, 11, 85
9, 10900, Control_c, 3, 11, 87
9, 10919, Note_on_c, 3, 60, 0
9, 10920, Control_c, 3, 11, 88
9, 10920, Note_on_c, 3, 58, 76
9, 10940, Control_c, 3, 11, 89
9, 10960, Control_c, 3, 11, 90
9, 10980, Control_c, 3, 11, 92
9, 11000, Control_c, 3, 11, 93
9, 11020, Control_c, 3, 11, 94
9, 11040, Control_c, 3, 11, 96
9, 11060, Control_c, 3, 11, 97
9, 11080, Control_c, 3, 11, 98
9, 11100, Control_c, 3, 11, 100
9, 11120, Control_c, 3, 11, 101
9, 11140, Control_c, 3, 11, 102
9, 11151, Note_on_c, 3, 46, 0
9, 11151, Note_on_c, 3, 58, 0
9, 11160, Note_on_c, 3, 60, 76
9, 11160, Control_c, 3, 11, 104
9, 11160, Note_on_c, 3, 46, 76
9, 11180, Control_c, 3, 11, 105
9, 11200, Control_c, 3, 11, 106
9, 11220, Control_c, 3, 11, 107
9, 11240, Control_c, 3, 11, 109
9, 11249, Note_on_c, 3, 60, 0
9, 11250, Note_on_c, 3, 58, 76
9, 11260, Control_c, 3, 11, 110
9, 11271, Note_on_c, 3, 46, 0
9, 11275, Note_on_c, 3, 58, 0
9, 11280, Control_c, 3, 11, 111
9, 11280, Note_on_c, 3, 58, 76
9, 11280, Note_on_c, 3, 46, 76
9, 11300, Control_c, 3, 11, 113
9, 11320, Control_c, 3, 11, 114
9, 11340, Control_c, 3, 11, 115
9, 11360, Control_c, 3, 11, 117
9, 11380, Control_c, 3, 11, 118
9, 11391, Note_on_c, 3, 46, 0
9, 11399, Note_on_c, 3, 58, 0
9, 11400, Control_c, 3, 11, 119
9, 11400, Note_on_c, 3, 46, 76
9, 11400, Note_on_c, 3, 60, 76
9, 11420, Control_c, 3, 11, 120
9, 11440, Control_c, 3, 11, 122
9, 11460, Control_c, 3, 11, 123
9, 11480, Control_c, 3, 11, 124
9, 11489, Note_on_c, 3, 60, 0
9, 11490, Note_on_c, 3, 58, 76
9, 11500, Control_c, 3, 11, 127
9, 11511, Note_on_c, 3, 46, 0
9, 11511, Note_on_c, 3, 58, 0
9, 11520, Note_on_c, 3, 51, 76
9, 11520, Note_on_c, 3, 58, 76
9, 11639, Note_on_c, 3, 51, 0
9, 11639, Note_on_c, 3, 58, 0
9, 13680, Note_on_c, 3, 59, 76
9, 13680, Note_on_c, 3, 62, 76
9, 13740, Control_c, 3, 11, 80
9, 14391, Note_on_c, 3, 59, 0
9, 14391, Note_on_c, 3, 62, 0
9, 14398, Control_c, 3, 11, 127
9, 14400, Note_on_c, 3, 63, 76
9, 14400, Note_on_c, 3, 60, 76
9, 14511, Note_on_c, 3, 63, 0
9, 14511, Note_on_c, 3, 60, 0
9, 14520, Note_on_c, 3, 60, 84
9, 14520, Note_on_c, 3, 63, 84
9, 14639, Note_on_c, 3, 60, 0
9, 14639, Note_on_c, 3, 63, 0
9, 14760, Note_on_c, 3, 60, 84
9, 14760, Note_on_c, 3, 63, 84
9, 14879, Note_on_c, 3, 60, 0
9, 14879, Note_on_c, 3, 63, 0
9, 15000, Note_on_c, 3, 60, 84
9, 15000, Note_on_c, 3, 63, 84
9, 15104, Note_on_c, 3, 60, 0
9, 15104, Note_on_c, 3, 63, 0
9, 15120, Note_on_c, 3, 53, 76
9, 15180, Control_c, 3, 11, 80
9, 15299, Note_on_c, 3, 53, 0
9, 15300, Note_on_c, 3, 55, 76
9, 15359, Note_on_c, 3, 55, 0
9, 15360, Note_on_c, 3, 57, 76
9, 15419, Note_on_c, 3, 57, 0
9, 15420, Note_on_c, 3, 58, 76
9, 15479, Note_on_c, 3, 58, 0
9, 15480, Note_on_c, 3, 60, 76
9, 15539, Note_on_c, 3, 60, 0
9, 15540, Note_on_c, 3, 61, 76
9, 15599, Note_on_c, 3, 61, 0
9, 15600, Note_on_c, 3, 60, 76
9, 15719, Note_on_c, 3, 60, 0
9, 15838, Control_c, 3, 11, 127
9, 15840, Note_on_c, 3, 57, 76
9, 15840, Note_on_c, 3, 53, 76
9, 15900, Control_c, 3, 11, 80
9, 16019, Note_on_c, 3, 57, 0
9, 16019, Note_on_c, 3, 53, 0
9, 16020, Note_on_c, 3, 58, 76
9, 16020, Note_on_c, 3, 55, 76
9, 16079, Note_on_c, 3, 58, 0
9, 16079, Note_on_c, 3, 55, 0
9, 16080, Note_on_c, 3, 60, 76
9, 16080, Note_on_c, 3, 57, 76
9, 16139, Note_on_c, 3, 60, 0
9, 16139, Note_on_c, 3, 57, 0
9, 16140, Note_on_c, 3, 58, 76
9, 16140, Note_on_c, 3, 62, 76
9, 16199, Note_on_c, 3, 58, 0
9, 16199, Note_on_c, 3, 62, 0
9, 16200, Note_on_c, 3, 60, 76
9, 16200, Note_on_c, 3, 63, 76
9, 16259, Note_on_c, 3, 60, 0
9, 16259, Note_on_c, 3, 63, 0
9, 16260, Note_on_c, 3, 61, 76
9, 16260, Note_on_c, 3, 64, 76
9, 16315, Note_on_c, 3, 61, 0
9, 16315, Note_on_c, 3, 64, 0
9, 16320, Note_on_c, 3, 65, 76
9, 16320, Note_on_c, 3, 60, 76
9, 16375, Note_on_c, 3, 65, 0
9, 16375, Note_on_c, 3, 60, 0
9, 16380, Note_on_c, 3, 53, 76
9, 16380, Note_on_c, 3, 65, 76
9, 16435, Note_on_c, 3, 53, 0
9, 16435, Note_on_c, 3, 65, 0
9, 16440, Note_on_c, 3, 65, 76
9, 16440, Note_on_c, 3, 53, 76
9, 16495, Note_on_c, 3, 65, 0
9, 16495, Note_on_c, 3, 53, 0
9, 16500, Note_on_c, 3, 65, 76
9, 16500, Note_on_c, 3, 53, 76
9, 16555, Note_on_c, 3, 65, 0
9, 16555, Note_on_c, 3, 53, 0
9, 16560, Note_on_c, 3, 65, 76
9, 16560, Control_c, 3, 11, 80
9, 16560, Note_on_c, 3, 53, 76
9, 16615, Note_on_c, 3, 65, 0
9, 16615, Note_on_c, 3, 53, 0
9, 16620, Note_on_c, 3, 65, 76
9, 16620, Note_on_c, 3, 53, 76
9, 16620, Control_c, 3, 11, 84
9, 16675, Note_on_c, 3, 65, 0
9, 16675, Note_on_c, 3, 53, 0
9, 16680, Control_c, 3, 11, 88
9, 16680, Note_on_c, 3, 53, 76
9, 16680, Note_on_c, 3, 65, 76
9, 16735, Note_on_c, 3, 53, 0
9, 16735, Note_on_c, 3, 65, 0
9, 16740, Note_on_c, 3, 65, 76
9, 16740, Note_on_c, 3, 53, 76
9, 16740, Control_c, 3, 11, 92
9, 16795, Note_on_c, 3, 65, 0
9, 16795, Note_on_c, 3, 53, 0
9, 16800, Note_on_c, 3, 65, 76
9, 16800, Control_c, 3, 11, 96
9, 16800, Note_on_c, 3, 53, 76
9, 16855, Note_on_c, 3, 65, 0
9, 16855, Note_on_c, 3, 53, 0
9, 16860, Control_c, 3, 11, 100
9, 16860, Note_on_c, 3, 53, 76
9, 16860, Note_on_c, 3, 65, 76
9, 16915, Note_on_c, 3, 53, 0
9, 16915, Note_on_c, 3, 65, 0
9, 16920, Note_on_c, 3, 53, 76
9, 16920, Note_on_c, 3, 65, 76
9, 16920, Control_c, 3, 11, 104
9, 16975, Note_on_c, 3, 53, 0
9, 16975, Note_on_c, 3, 65, 0
9, 16980, Note_on_c, 3, 65, 76
9, 16980, Control_c, 3, 11, 107
9, 16980, Note_on_c, 3, 53, 76
9, 17035, Note_on_c, 3, 65, 0
9, 17035, Note_on_c, 3, 53, 0
9, 17040, Note_on_c, 3, 65, 76
9, 17040, Control_c, 3, 11, 111
9, 17040, Note_on_c, 3, 53, 76
9, 17095, Note_on_c, 3, 65, 0
9, 17095, Note_on_c, 3, 53, 0
9, 17100, Control_c, 3, 11, 115
9, 17100, Note_on_c, 3, 65, 76
9, 17100, Note_on_c, 3, 53, 76
9, 17155, Note_on_c, 3, 65, 0
9, 17155, Note_on_c, 3, 53, 0
9, 17160, Control_c, 3, 11, 119
9, 17160, Note_on_c, 3, 65, 76
9, 17160, Note_on_c, 3, 53, 76
9, 17215, Note_on_c, 3, 65, 0
9, 17215, Note_on_c, 3, 53, 0
9, 17220, Control_c, 3, 11, 123
9, 17220, Note_on_c, 3, 65, 76
9, 17220, Note_on_c, 3, 53, 76
9, 17275, Note_on_c, 3, 65, 0
9, 17275, Note_on_c, 3, 53, 0
9, 17278, Control_c, 3, 11, 127
9, 17280, Note_on_c, 3, 53, 76
9, 17280, Note_on_c, 3, 65, 76
9, 17335, Note_on_c, 3, 53, 0
9, 17335, Note_on_c, 3, 65, 0
9, 17340, Note_on_c, 3, 65, 76
9, 17340, Note_on_c, 3, 53, 76
9, 17395, Note_on_c, 3, 65, 0
9, 17395, Note_on_c, 3, 53, 0
9, 17400, Note_on_c, 3, 53, 76
9, 17400, Note_on_c, 3, 65, 76
9, 17455, Note_on_c, 3, 53, 0
9, 17455, Note_on_c, 3, 65, 0
9, 17460, Note_on_c, 3, 65, 76
9, 17460, Note_on_c, 3, 53, 76
9, 17515, Note_on_c, 3, 65, 0
9, 17515, Note_on_c, 3, 53, 0
9, 17520, Note_on_c, 3, 53, 76
9, 17520, Note_on_c, 3, 65, 76
9, 17575, Note_on_c, 3, 53, 0
9, 17575, Note_on_c, 3, 65, 0
9, 17580, Note_on_c, 3, 65, 76
9, 17580, Note_on_c, 3, 53, 76
9, 17635, Note_on_c, 3, 65, 0
9, 17635, Note_on_c, 3, 53, 0
9, 17640, Note_on_c, 3, 65, 76
9, 17640, Note_on_c, 3, 53, 76
9, 17695, Note_on_c, 3, 65, 0
9, 17695, Note_on_c, 3, 53, 0
9, 17700, Note_on_c, 3, 65, 76
9, 17700, Note_on_c, 3, 53, 76
9, 17755, Note_on_c, 3, 65, 0
9, 17755, Note_on_c, 3, 53, 0
9, 17760, Note_on_c, 3, 53, 76
9, 17760, Note_on_c, 3, 65, 76
9, 17815, Note_on_c, 3, 53, 0
9, 17815, Note_on_c, 3, 65, 0
9, 17820, Note_on_c, 3, 65, 68
9, 17820, Note_on_c, 3, 53, 68
9, 17875, Note_on_c, 3, 65, 0
9, 17875, Note_on_c, 3, 53, 0
9, 17880, Note_on_c, 3, 53, 60
9, 17880, Note_on_c, 3, 65, 60
9, 17935, Note_on_c, 3, 53, 0
9, 17935, Note_on_c, 3, 65, 0
9, 17940, Note_on_c, 3, 65, 52
9, 17940, Note_on_c, 3, 53, 52
9, 17995, Note_on_c, 3, 65, 0
9, 17995, Note_on_c, 3, 53, 0
9, 18000, Note_on_c, 3, 46, 44
9, 18000, Note_on_c, 3, 58, 44
9, 18119, Note_on_c, 3, 46, 0
9, 18119, Note_on_c, 3, 58, 0
9, 21000, Note_on_c, 3, 65, 46
9, 21000, Note_on_c, 3, 62, 46
9, 21089, Note_on_c, 3, 65, 0
9, 21089, Note_on_c, 3, 62, 0
9, 21120, Note_on_c, 3, 58, 49
9, 21120, Note_on_c, 3, 62, 49
9, 21209, Note_on_c, 3, 58, 0
9, 21209, Note_on_c, 3, 62, 0
9, 21240, Note_on_c, 3, 53, 52
9, 21240, Note_on_c, 3, 58, 52
9, 21329, Note_on_c, 3, 53, 0
9, 21329, Note_on_c, 3, 58, 0
9, 21360, Note_on_c, 3, 50, 54
9, 21360, Note_on_c, 3, 53, 54
9, 21449, Note_on_c, 3, 50, 0
9, 21449, Note_on_c, 3, 53, 0
9, 21480, Note_on_c, 3, 50, 57
9, 21480, Note_on_c, 3, 46, 57
9, 21569, Note_on_c, 3, 50, 0
9, 21569, Note_on_c, 3, 46, 0
9, 21600, Note_on_c, 3, 55, 52
9, 21600, Note_on_c, 3, 51, 52
9, 21719, Note_on_c, 3, 55, 0
9, 21719, Note_on_c, 3, 51, 0
9, 21840, Note_on_c, 3, 53, 52
9, 21959, Note_on_c, 3, 53, 0
9, 22080, Note_on_c, 3, 53, 52
9, 22080, Note_on_c, 3, 51, 52
9, 22199, Note_on_c, 3, 53, 0
9, 22199, Note_on_c, 3, 51, 0
9, 23040, Note_on_c, 3, 62, 76
9, 23040, Note_on_c, 3, 65, 76
9, 23151, Note_on_c, 3, 62, 0
9, 23151, Note_on_c, 3, 65, 0
9, 23160, Note_on_c, 3, 62, 76
9, 23160, Note_on_c, 3, 65, 76
9, 23319, Note_on_c, 3, 62, 0
9, 23319, Note_on_c, 3, 65, 0
9, 23320, Note_on_c, 3, 60, 76
9, 23320, Note_on_c, 3, 63, 76
9, 23359, Note_on_c, 3, 60, 0
9, 23359, Note_on_c, 3, 63, 0
9, 23360, Note_on_c, 3, 59, 76
9, 23360, Note_on_c, 3, 62, 76
9, 23399, Note_on_c, 3, 59, 0
9, 23399, Note_on_c, 3, 62, 0
9, 23400, Note_on_c, 3, 60, 76
9, 23400, Note_on_c, 3, 63, 76
9, 23439, Note_on_c, 3, 60, 0
9, 23439, Note_on_c, 3, 63, 0
9, 23440, Note_on_c, 3, 65, 76
9, 23440, Note_on_c, 3, 62, 76
9, 23479, Note_on_c, 3, 65, 0
9, 23479, Note_on_c, 3, 62, 0
9, 23480, Note_on_c, 3, 63, 76
9, 23480, Note_on_c, 3, 67, 76
9, 23515, Note_on_c, 3, 63, 0
9, 23515, Note_on_c, 3, 67, 0
9, 23520, Note_on_c, 3, 58, 76
9, 23520, Note_on_c, 3, 62, 76
9, 23639, Note_on_c, 3, 58, 0
9, 23639, Note_on_c, 3, 62, 0
9, 23640, Note_on_c, 3, 60, 76
9, 23640, Note_on_c, 3, 63, 76
9, 23729, Note_on_c, 3, 60, 0
9, 23729, Note_on_c, 3, 63, 0
9, 23730, Note_on_c, 3, 57, 76
9, 23730, Note_on_c, 3, 60, 76
9, 23755, Note_on_c, 3, 57, 0
9, 23755, Note_on_c, 3, 60, 0
9, 23760, Note_on_c, 3, 58, 52
9, 23879, Note_on_c, 3, 58, 0
9, 24120, Note_on_c, 3, 58, 48
9, 24120, Note_on_c, 3, 62, 48
9, 24224, Note_on_c, 3, 58, 0
9, 24224, Note_on_c, 3, 62, 0
9, 24240, Note_on_c, 3, 62, 48
9, 24240, Note_on_c, 3, 58, 48
9, 24344, Note_on_c, 3, 62, 0
9, 24344, Note_on_c, 3, 58, 0
9, 24360, Note_on_c, 3, 58, 48
9, 24360, Note_on_c, 3, 62, 48
9, 24449, Note_on_c, 3, 58, 0
9, 24449, Note_on_c, 3, 62, 0
9, 24480, Note_on_c, 3, 63, 48
9, 24480, Note_on_c, 3, 60, 48
9, 24959, Note_on_c, 3, 63, 0
9, 24959, Note_on_c, 3, 60, 0
9, 24960, Note_on_c, 3, 65, 48
9, 24960, Note_on_c, 3, 57, 48
9, 25139, Note_on_c, 3, 65, 0
9, 25139, Note_on_c, 3, 57, 0
9, 25140, Note_on_c, 3, 60, 48
9, 25140, Note_on_c, 3, 63, 48
9, 25195, Note_on_c, 3, 60, 0
9, 25195, Note_on_c, 3, 63, 0
9, 25200, Note_on_c, 3, 58, 48
9, 25200, Note_on_c, 3, 62, 48
9, 25439, Note_on_c, 3, 58, 0
9, 25439, Note_on_c, 3, 62, 0
9, 26400, Control_c, 3, 11, 64
9, 26640, Note_on_c, 3, 46, 84
9, 26640, Note_on_c, 3, 50, 84
9, 26640, Control_c, 3, 11, 64
9, 26663, Control_c, 3, 11, 65
9, 26685, Control_c, 3, 11, 66
9, 26708, Control_c, 3, 11, 67
9, 26730, Control_c, 3, 11, 68
9, 26753, Control_c, 3, 11, 69
9, 26775, Control_c, 3, 11, 70
9, 26798, Control_c, 3, 11, 71
9, 26820, Control_c, 3, 11, 72
9, 26843, Control_c, 3, 11, 73
9, 26865, Control_c, 3, 11, 74
9, 26888, Control_c, 3, 11, 75
9, 26910, Control_c, 3, 11, 76
9, 26933, Control_c, 3, 11, 77
9, 26955, Control_c, 3, 11, 78
9, 26978, Control_c, 3, 11, 79
9, 27000, Control_c, 3, 11, 80
9, 27023, Control_c, 3, 11, 81
9, 27045, Control_c, 3, 11, 82
9, 27068, Control_c, 3, 11, 83
9, 27090, Control_c, 3, 11, 84
9, 27113, Control_c, 3, 11, 85
9, 27135, Control_c, 3, 11, 86
9, 27158, Control_c, 3, 11, 87
9, 27180, Control_c, 3, 11, 88
9, 27203, Control_c, 3, 11, 89
9, 27225, Control_c, 3, 11, 90
9, 27248, Control_c, 3, 11, 91
9, 27270, Control_c, 3, 11, 92
9, 27293, Control_c, 3, 11, 93
9, 27315, Control_c, 3, 11, 94
9, 27338, Control_c, 3, 11, 95
9, 27360, Control_c, 3, 11, 96
9, 27419, Note_on_c, 3, 46, 0
9, 27419, Note_on_c, 3, 50, 0
9, 27420, Control_c, 3, 11, 99
9, 27450, Note_on_c, 3, 46, 84
9, 27471, Note_on_c, 3, 46, 0
9, 27480, Control_c, 3, 11, 101
9, 27480, Note_on_c, 3, 50, 84
9, 27524, Note_on_c, 3, 50, 0
9, 27540, Control_c, 3, 11, 104
9, 27570, Note_on_c, 3, 46, 84
9, 27591, Note_on_c, 3, 46, 0
9, 27600, Control_c, 3, 11, 106
9, 27600, Note_on_c, 3, 53, 84
9, 27644, Note_on_c, 3, 53, 0
9, 27660, Control_c, 3, 11, 109
9, 27690, Note_on_c, 3, 50, 84
9, 27711, Note_on_c, 3, 50, 0
9, 27720, Note_on_c, 3, 58, 84
9, 27720, Control_c, 3, 11, 112
9, 27764, Note_on_c, 3, 58, 0
9, 27780, Control_c, 3, 11, 114
9, 27810, Note_on_c, 3, 53, 84
9, 27831, Note_on_c, 3, 53, 0
9, 27840, Control_c, 3, 11, 117
9, 27840, Note_on_c, 3, 62, 84
9, 27884, Note_on_c, 3, 62, 0
9, 27900, Control_c, 3, 11, 119
9, 27930, Note_on_c, 3, 58, 84
9, 27951, Note_on_c, 3, 58, 0
9, 27960, Control_c, 3, 11, 122
9, 27960, Note_on_c, 3, 65, 84
9, 28004, Note_on_c, 3, 65, 0
9, 28020, Control_c, 3, 11, 124
9, 28050, Note_on_c, 3, 62, 84
9, 28071, Note_on_c, 3, 62, 0
9, 28078, Control_c, 3, 11, 127
9, 28080, Note_on_c, 3, 68, 84
9, 28379, Note_on_c, 3, 68, 0
9, 28410, Note_on_c, 3, 65, 84
9, 28431, Note_on_c, 3, 65, 0
9, 28440, Note_on_c, 3, 62, 84
9, 28484, Note_on_c, 3, 62, 0
9, 28530, Note_on_c, 3, 58, 84
9, 28551, Note_on_c, 3, 58, 0
9, 28560, Note_on_c, 3, 56, 84
9, 28604, Note_on_c, 3, 56, 0
9, 28650, Note_on_c, 3, 53, 84
9, 28671, Note_on_c, 3, 53, 0
9, 28680, Note_on_c, 3, 50, 84
9, 28724, Note_on_c, 3, 50, 0
9, 28770, Note_on_c, 3, 46, 84
9, 28791, Note_on_c, 3, 46, 0
9, 28800, Note_on_c, 3, 51, 84
9, 28919, Note_on_c, 3, 51, 0
9, 33840, Control_c, 3, 11, 87
9, 33960, Note_on_c, 3, 55, 76
9, 33960, Control_c, 3, 11, 88
9, 33960, Note_on_c, 3, 51, 76
9, 33980, Control_c, 3, 11, 89
9, 34000, Control_c, 3, 11, 90
9, 34020, Control_c, 3, 11, 92
9, 34040, Control_c, 3, 11, 93
9, 34060, Control_c, 3, 11, 94
9, 34080, Control_c, 3, 11, 96
9, 34100, Control_c, 3, 11, 97
9, 34120, Control_c, 3, 11, 98
9, 34140, Control_c, 3, 11, 100
9, 34160, Control_c, 3, 11, 101
9, 34180, Control_c, 3, 11, 102
9, 34191, Note_on_c, 3, 55, 0
9, 34191, Note_on_c, 3, 51, 0
9, 34200, Note_on_c, 3, 52, 76
9, 34200, Note_on_c, 3, 55, 76
9, 34200, Control_c, 3, 11, 104
9, 34220, Control_c, 3, 11, 105
9, 34240, Control_c, 3, 11, 106
9, 34260, Control_c, 3, 11, 107
9, 34280, Control_c, 3, 11, 109
9, 34300, Control_c, 3, 11, 110
9, 34319, Note_on_c, 3, 52, 0
9, 34319, Note_on_c, 3, 55, 0
9, 34320, Note_on_c, 3, 53, 76
9, 34320, Control_c, 3, 11, 111
9, 34320, Note_on_c, 3, 56, 76
9, 34340, Control_c, 3, 11, 113
9, 34360, Control_c, 3, 11, 114
9, 34380, Control_c, 3, 11, 115
9, 34400, Control_c, 3, 11, 117
9, 34420, Control_c, 3, 11, 118
9, 34431, Note_on_c, 3, 53, 0
9, 34431, Note_on_c, 3, 56, 0
9, 34440, Note_on_c, 3, 53, 76
9, 34440, Note_on_c, 3, 56, 76
9, 34440, Control_c, 3, 11, 119
9, 34460, Control_c, 3, 11, 120
9, 34480, Control_c, 3, 11, 122
9, 34500, Control_c, 3, 11, 123
9, 34520, Control_c, 3, 11, 124
9, 34529, Note_on_c, 3, 53, 0
9, 34529, Note_on_c, 3, 56, 0
9, 34540, Control_c, 3, 11, 127
9, 34560, Note_on_c, 3, 55, 76
9, 34560, Note_on_c, 3, 51, 76
9, 34604, Note_on_c, 3, 55, 0
9, 34604, Note_on_c, 3, 51, 0
9, 34650, Note_on_c, 3, 46, 76
9, 34671, Note_on_c, 3, 46, 0
9, 34680, Note_on_c, 3, 51, 76
9, 34724, Note_on_c, 3, 51, 0
9, 34770, Note_on_c, 3, 46, 76
9, 34791, Note_on_c, 3, 46, 0
9, 34800, Note_on_c, 3, 51, 76
9, 34844, Note_on_c, 3, 51, 0
9, 34890, Note_on_c, 3, 46, 76
9, 34911, Note_on_c, 3, 46, 0
9, 34920, Note_on_c, 3, 51, 76
9, 34964, Note_on_c, 3, 51, 0
9, 35010, Note_on_c, 3, 46, 76
9, 35031, Note_on_c, 3, 46, 0
9, 35040, Note_on_c, 3, 51, 76
9, 35084, Note_on_c, 3, 51, 0
9, 35130, Note_on_c, 3, 46, 76
9, 35151, Note_on_c, 3, 46, 0
9, 35160, Note_on_c, 3, 51, 76
9, 35204, Note_on_c, 3, 51, 0
9, 35250, Note_on_c, 3, 46, 76
9, 35271, Note_on_c, 3, 46, 0
9, 35280, Note_on_c, 3, 58, 84
9, 35280, Note_on_c, 3, 54, 84
9, 35511, Note_on_c, 3, 58, 0
9, 35511, Note_on_c, 3, 54, 0
9, 35520, Note_on_c, 3, 53, 92
9, 35520, Note_on_c, 3, 56, 92
9, 35744, Note_on_c, 3, 53, 0
9, 35744, Note_on_c, 3, 56, 0
9, 35760, Note_on_c, 3, 51, 92
9, 35760, Note_on_c, 3, 54, 92
9, 35984, Note_on_c, 3, 51, 0
9, 35984, Note_on_c, 3, 54, 0
9, 36000, Note_on_c, 3, 49, 92
9, 36000, Note_on_c, 3, 53, 92
9, 36224, Note_on_c, 3, 49, 0
9, 36224, Note_on_c, 3, 53, 0
9, 36240, Note_on_c, 3, 59, 92
9, 36240, Note_on_c, 3, 63, 92
9, 36464, Note_on_c, 3, 59, 0
9, 36464, Note_on_c, 3, 63, 0
9, 36480, Note_on_c, 3, 58, 92
9, 36480, Note_on_c, 3, 61, 92
9, 36704, Note_on_c, 3, 58, 0
9, 36704, Note_on_c, 3, 61, 0
9, 36720, Note_on_c, 3, 56, 92
9, 36720, Note_on_c, 3, 59, 92
9, 36944, Note_on_c, 3, 56, 0
9, 36944, Note_on_c, 3, 59, 0
9, 36960, Note_on_c, 3, 58, 92
9, 36960, Note_on_c, 3, 54, 92
9, 37184, Note_on_c, 3, 58, 0
9, 37184, Note_on_c, 3, 54, 0
9, 37200, Note_on_c, 3, 53, 92
9, 37200, Note_on_c, 3, 56, 92
9, 37424, Note_on_c, 3, 53, 0
9, 37424, Note_on_c, 3, 56, 0
9, 37440, Note_on_c, 3, 54, 92
9, 37440, Note_on_c, 3, 58, 92
9, 37664, Note_on_c, 3, 54, 0
9, 37664, Note_on_c, 3, 58, 0
9, 37680, Note_on_c, 3, 53, 92
9, 37680, Note_on_c, 3, 56, 92
9, 37904, Note_on_c, 3, 53, 0
9, 37904, Note_on_c, 3, 56, 0
9, 37920, Note_on_c, 3, 54, 92
9, 37920, Note_on_c, 3, 51, 92
9, 38144, Note_on_c, 3, 54, 0
9, 38144, Note_on_c, 3, 51, 0
9, 38160, Note_on_c, 3, 49, 52
9, 38160, Note_on_c, 3, 53, 52
9, 38279, Note_on_c, 3, 49, 0
9, 38279, Note_on_c, 3, 53, 0
9, 42240, Note_on_c, 3, 65, 52
9, 42479, Note_on_c, 3, 65, 0
9, 42480, Note_on_c, 3, 66, 52
9, 42539, Note_on_c, 3, 66, 0
9, 42570, Note_on_c, 3, 61, 52
9, 42595, Note_on_c, 3, 61, 0
9, 42600, Note_on_c, 3, 66, 52
9, 42659, Note_on_c, 3, 66, 0
9, 42690, Note_on_c, 3, 61, 52
9, 42715, Note_on_c, 3, 61, 0
9, 42720, Note_on_c, 3, 66, 52
9, 42779, Note_on_c, 3, 66, 0
9, 42810, Note_on_c, 3, 61, 52
9, 42835, Note_on_c, 3, 61, 0
9, 42840, Note_on_c, 3, 66, 52
9, 42899, Note_on_c, 3, 66, 0
9, 42930, Note_on_c, 3, 61, 52
9, 42955, Note_on_c, 3, 61, 0
9, 42960, Note_on_c, 3, 66, 52
9, 43019, Note_on_c, 3, 66, 0
9, 43050, Note_on_c, 3, 61, 52
9, 43075, Note_on_c, 3, 61, 0
9, 43080, Note_on_c, 3, 66, 52
9, 43139, Note_on_c, 3, 66, 0
9, 43170, Note_on_c, 3, 61, 52
9, 43195, Note_on_c, 3, 61, 0
9, 43200, Note_on_c, 3, 66, 52
9, 43319, Note_on_c, 3, 66, 0
9, 44640, Note_on_c, 3, 65, 52
9, 44879, Note_on_c, 3, 65, 0
9, 44880, Note_on_c, 3, 63, 52
9, 45119, Note_on_c, 3, 63, 0
9, 45120, Note_on_c, 3, 62, 52
9, 45359, Note_on_c, 3, 62, 0
9, 45360, Note_on_c, 3, 63, 52
9, 45599, Note_on_c, 3, 63, 0
9, 46080, Note_on_c, 3, 51, 44
9, 46080, Note_on_c, 3, 55, 44
9, 46319, Note_on_c, 3, 51, 0
9, 46319, Note_on_c, 3, 55, 0
9, 46320, Note_on_c, 3, 55, 44
9, 46320, Note_on_c, 3, 58, 44
9, 46559, Note_on_c, 3, 55, 0
9, 46559, Note_on_c, 3, 58, 0
9, 46560, Note_on_c, 3, 60, 44
9, 46560, Note_on_c, 3, 56, 44
9, 46791, Note_on_c, 3, 60, 0
9, 46791, Note_on_c, 3, 56, 0
9, 46800, Note_on_c, 3, 53, 44
9, 46800, Note_on_c, 3, 56, 44
9, 47151, Note_on_c, 3, 53, 0
9, 47159, Note_on_c, 3, 56, 0
9, 47160, Note_on_c, 3, 53, 44
9, 47160, Note_on_c, 3, 56, 44
9, 47279, Note_on_c, 3, 53, 0
9, 47279, Note_on_c, 3, 56, 0
9, 47280, Note_on_c, 3, 55, 44
9, 47280, Note_on_c, 3, 51, 44
9, 47399, Note_on_c, 3, 55, 0
9, 47399, Note_on_c, 3, 51, 0
9, 47400, Note_on_c, 3, 44, 44
9, 47400, Note_on_c, 3, 60, 44
9, 47489, Note_on_c, 3, 60, 0
9, 47490, Note_on_c, 3, 56, 44
9, 47511, Note_on_c, 3, 44, 0
9, 47511, Note_on_c, 3, 56, 0
9, 47520, Note_on_c, 3, 46, 44
9, 47520, Note_on_c, 3, 55, 44
9, 47759, Note_on_c, 3, 55, 0
9, 47760, Note_on_c, 3, 53, 44
9, 47879, Note_on_c, 3, 53, 0
9, 47880, Note_on_c, 3, 51, 44
9, 47999, Note_on_c, 3, 51, 0
9, 48000, Note_on_c, 3, 50, 44
9, 48119, Note_on_c, 3, 50, 0
9, 48120, Note_on_c, 3, 48, 44
9, 48179, Note_on_c, 3, 48, 0
9, 48180, Note_on_c, 3, 53, 44
9, 48231, Note_on_c, 3, 46, 0
9, 48231, Note_on_c, 3, 53, 0
9, 48238, Control_c, 3, 11, 96
9, 48240, Note_on_c, 3, 53, 68
9, 48240, Note_on_c, 3, 46, 68
9, 48260, Control_c, 3, 11, 97
9, 48280, Control_c, 3, 11, 99
9, 48300, Control_c, 3, 11, 100
9, 48320, Control_c, 3, 11, 101
9, 48340, Control_c, 3, 11, 102
9, 48360, Control_c, 3, 11, 104
9, 48380, Control_c, 3, 11, 105
9, 48400, Control_c, 3, 11, 106
9, 48420, Control_c, 3, 11, 108
9, 48440, Control_c, 3, 11, 109
9, 48460, Control_c, 3, 11, 110
9, 48471, Note_on_c, 3, 53, 0
9, 48480, Note_on_c, 3, 58, 68
9, 48480, Control_c, 3, 11, 112
9, 48500, Control_c, 3, 11, 113
9, 48509, Note_on_c, 3, 58, 0
9, 48520, Control_c, 3, 11, 114
9, 48520, Note_on_c, 3, 57, 68
9, 48540, Control_c, 3, 11, 115
9, 48559, Note_on_c, 3, 57, 0
9, 48560, Note_on_c, 3, 58, 68
9, 48560, Control_c, 3, 11, 117
9, 48580, Control_c, 3, 11, 118
9, 48599, Note_on_c, 3, 58, 0
9, 48600, Control_c, 3, 11, 119
9, 48620, Control_c, 3, 11, 121
9, 48640, Note_on_c, 3, 57, 68
9, 48640, Control_c, 3, 11, 122
9, 48660, Control_c, 3, 11, 123
9, 48679, Note_on_c, 3, 57, 0
9, 48680, Note_on_c, 3, 58, 68
9, 48680, Control_c, 3, 11, 124
9, 48700, Control_c, 3, 11, 127
9, 48711, Note_on_c, 3, 46, 0
9, 48719, Note_on_c, 3, 58, 0
9, 48720, Note_on_c, 3, 43, 76
9, 48760, Note_on_c, 3, 58, 76
9, 48799, Note_on_c, 3, 58, 0
9, 48800, Note_on_c, 3, 59, 68
9, 48839, Note_on_c, 3, 59, 0
9, 48880, Note_on_c, 3, 59, 68
9, 48919, Note_on_c, 3, 59, 0
9, 48920, Note_on_c, 3, 60, 68
9, 48939, Note_on_c, 3, 60, 0
9, 48944, Note_on_c, 3, 43, 0
9, 48945, Note_on_c, 3, 62, 52
9, 48959, Note_on_c, 3, 62, 0
9, 48960, Note_on_c, 3, 44, 52
9, 48960, Note_on_c, 3, 60, 52
9, 48999, Note_on_c, 3, 60, 0
9, 49000, Note_on_c, 3, 59, 52
9, 49039, Note_on_c, 3, 59, 0
9, 49040, Note_on_c, 3, 60, 52
9, 49075, Note_on_c, 3, 60, 0
9, 49079, Note_on_c, 3, 44, 0
9, 49080, Note_on_c, 3, 53, 52
9, 49235, Note_on_c, 3, 53, 0
9, 49240, Note_on_c, 3, 52, 52
9, 49279, Note_on_c, 3, 52, 0
9, 49280, Note_on_c, 3, 53, 52
9, 49319, Note_on_c, 3, 53, 0
9, 49360, Note_on_c, 3, 52, 52
9, 49399, Note_on_c, 3, 52, 0
9, 49400, Note_on_c, 3, 53, 52
9, 49439, Note_on_c, 3, 53, 0
9, 49480, Note_on_c, 3, 52, 52
9, 49519, Note_on_c, 3, 52, 0
9, 49520, Note_on_c, 3, 53, 52
9, 49549, Note_on_c, 3, 53, 0
9, 49560, Note_on_c, 3, 53, 52
9, 49589, Note_on_c, 3, 53, 0
9, 49600, Note_on_c, 3, 55, 52
9, 49629, Note_on_c, 3, 55, 0
9, 49640, Note_on_c, 3, 56, 52
9, 49659, Note_on_c, 3, 56, 0
9, 49665, Note_on_c, 3, 58, 52
9, 49679, Note_on_c, 3, 58, 0
9, 49680, Note_on_c, 3, 46, 52
9, 49680, Note_on_c, 3, 56, 52
9, 49719, Note_on_c, 3, 56, 0
9, 49720, Note_on_c, 3, 55, 52
9, 49759, Note_on_c, 3, 55, 0
9, 49760, Note_on_c, 3, 56, 52
9, 49791, Note_on_c, 3, 46, 0
9, 49795, Note_on_c, 3, 56, 0
9, 49800, Note_on_c, 3, 50, 52
9, 49800, Note_on_c, 3, 46, 52
9, 49911, Note_on_c, 3, 46, 0
9, 49920, Note_on_c, 3, 46, 52
9, 49955, Note_on_c, 3, 50, 0
9, 49960, Note_on_c, 3, 49, 52
9, 49999, Note_on_c, 3, 49, 0
9, 50000, Note_on_c, 3, 50, 52
9, 50039, Note_on_c, 3, 46, 0
9, 50039, Note_on_c, 3, 50, 0
9, 50040, Note_on_c, 3, 49, 52
9, 50080, Note_on_c, 3, 50, 52
9, 50119, Note_on_c, 3, 50, 0
9, 50120, Note_on_c, 3, 51, 52
9, 50151, Note_on_c, 3, 49, 0
9, 50159, Note_on_c, 3, 51, 0
9, 50160, Note_on_c, 3, 44, 52
9, 50200, Note_on_c, 3, 52, 52
9, 50239, Note_on_c, 3, 52, 0
9, 50240, Note_on_c, 3, 53, 52
9, 50271, Note_on_c, 3, 44, 0
9, 50279, Note_on_c, 3, 53, 0
9, 50280, Note_on_c, 3, 41, 52
9, 50320, Note_on_c, 3, 56, 52
9, 50359, Note_on_c, 3, 56, 0
9, 50360, Note_on_c, 3, 60, 52
9, 50391, Note_on_c, 3, 41, 0
9, 50399, Note_on_c, 3, 60, 0
9, 50400, Note_on_c, 3, 46, 52
9, 50440, Note_on_c, 3, 60, 53
9, 50479, Note_on_c, 3, 60, 0
9, 50480, Note_on_c, 3, 58, 54
9, 50511, Note_on_c, 3, 46, 0
9, 50519, Note_on_c, 3, 58, 0
9, 50520, Note_on_c, 3, 46, 56
9, 50560, Note_on_c, 3, 57, 57
9, 50599, Note_on_c, 3, 57, 0
9, 50600, Note_on_c, 3, 58, 58
9, 50631, Note_on_c, 3, 46, 0
9, 50639, Note_on_c, 3, 58, 0
9, 50640, Note_on_c, 3, 46, 60
9, 50680, Note_on_c, 3, 57, 61
9, 50719, Note_on_c, 3, 57, 0
9, 50720, Note_on_c, 3, 58, 62
9, 50751, Note_on_c, 3, 46, 0
9, 50759, Note_on_c, 3, 58, 0
9, 50760, Note_on_c, 3, 46, 64
9, 50800, Note_on_c, 3, 60, 65
9, 50839, Note_on_c, 3, 60, 0
9, 50840, Note_on_c, 3, 58, 66
9, 50871, Note_on_c, 3, 46, 0
9, 50879, Note_on_c, 3, 58, 0
9, 50880, Note_on_c, 3, 46, 68
9, 50920, Note_on_c, 3, 60, 69
9, 50959, Note_on_c, 3, 60, 0
9, 50960, Note_on_c, 3, 58, 70
9, 50991, Note_on_c, 3, 46, 0
9, 50999, Note_on_c, 3, 58, 0
9, 51000, Note_on_c, 3, 46, 72
9, 51040, Note_on_c, 3, 60, 73
9, 51079, Note_on_c, 3, 60, 0
9, 51080, Note_on_c, 3, 58, 74
9, 51111, Note_on_c, 3, 46, 0
9, 51115, Note_on_c, 3, 58, 0
9, 51120, Note_on_c, 3, 58, 76
9, 51120, Note_on_c, 3, 51, 76
9, 51239, Note_on_c, 3, 58, 0
9, 51239, Note_on_c, 3, 51, 0
9, 52680, Note_on_c, 3, 58, 84
9, 52680, Note_on_c, 3, 55, 84
9, 52799, Note_on_c, 3, 58, 0
9, 52799, Note_on_c, 3, 55, 0
9, 52920, Note_on_c, 3, 58, 84
9, 52920, Note_on_c, 3, 55, 84
9, 53039, Note_on_c, 3, 58, 0
9, 53039, Note_on_c, 3, 55, 0
9, 53160, Note_on_c, 3, 58, 84
9, 53160, Note_on_c, 3, 55, 84
9, 53264, Note_on_c, 3, 58, 0
9, 53264, Note_on_c, 3, 55, 0
9, 53280, Note_on_c, 3, 55, 76
9, 53280, Note_on_c, 3, 58, 76
9, 53340, Control_c, 3, 11, 80
9, 53991, Note_on_c, 3, 55, 0
9, 53991, Note_on_c, 3, 58, 0
9, 53998, Control_c, 3, 11, 127
9, 54000, Note_on_c, 3, 53, 76
9, 54000, Note_on_c, 3, 56, 76
9, 54111, Note_on_c, 3, 53, 0
9, 54111, Note_on_c, 3, 56, 0
9, 54120, Note_on_c, 3, 56, 84
9, 54120, Note_on_c, 3, 53, 84
9, 54239, Note_on_c, 3, 56, 0
9, 54239, Note_on_c, 3, 53, 0
9, 54360, Note_on_c, 3, 53, 84
9, 54360, Note_on_c, 3, 56, 84
9, 54479, Note_on_c, 3, 53, 0
9, 54479, Note_on_c, 3, 56, 0
9, 54600, Note_on_c, 3, 53, 84
9, 54600, Note_on_c, 3, 56, 84
9, 54704, Note_on_c, 3, 53, 0
9, 54704, Note_on_c, 3, 56, 0
9, 54720, Note_on_c, 3, 46, 76
9, 54780, Control_c, 3, 11, 80
9, 54899, Note_on_c, 3, 46, 0
9, 54900, Note_on_c, 3, 48, 76
9, 54959, Note_on_c, 3, 48, 0
9, 54960, Note_on_c, 3, 50, 76
9, 55019, Note_on_c, 3, 50, 0
9, 55020, Note_on_c, 3, 51, 76
9, 55079, Note_on_c, 3, 51, 0
9, 55080, Note_on_c, 3, 53, 76
9, 55139, Note_on_c, 3, 53, 0
9, 55140, Note_on_c, 3, 54, 76
9, 55199, Note_on_c, 3, 54, 0
9, 55200, Note_on_c, 3, 53, 76
9, 55319, Note_on_c, 3, 53, 0
9, 55438, Control_c, 3, 11, 127
9, 55440, Note_on_c, 3, 50, 76
9, 55440, Note_on_c, 3, 46, 76
9, 55500, Control_c, 3, 11, 80
9, 55619, Note_on_c, 3, 50, 0
9, 55619, Note_on_c, 3, 46, 0
9, 55620, Note_on_c, 3, 51, 76
9, 55620, Note_on_c, 3, 48, 76
9, 55679, Note_on_c, 3, 51, 0
9, 55679, Note_on_c, 3, 48, 0
9, 55680, Note_on_c, 3, 53, 76
9, 55680, Note_on_c, 3, 50, 76
9, 55739, Note_on_c, 3, 53, 0
9, 55739, Note_on_c, 3, 50, 0
9, 55740, Note_on_c, 3, 55, 76
9, 55740, Note_on_c, 3, 51, 76
9, 55799, Note_on_c, 3, 55, 0
9, 55799, Note_on_c, 3, 51, 0
9, 55800, Note_on_c, 3, 56, 76
9, 55800, Note_on_c, 3, 53, 76
9, 55859, Note_on_c, 3, 56, 0
9, 55859, Note_on_c, 3, 53, 0
9, 55860, Note_on_c, 3, 57, 76
9, 55860, Note_on_c, 3, 54, 76
9, 55919, Note_on_c, 3, 57, 0
9, 55919, Note_on_c, 3, 54, 0
9, 55920, Note_on_c, 3, 58, 76
9, 55920, Note_on_c, 3, 53, 76
9, 56039, Note_on_c, 3, 58, 0
9, 56039, Note_on_c, 3, 53, 0
9, 62400, Control_c, 3, 11, 127
9, 62520, Note_on_c, 3, 58, 76
9, 62520, Note_on_c, 3, 55, 76
9, 62751, Note_on_c, 3, 58, 0
9, 62751, Note_on_c, 3, 55, 0
9, 62760, Note_on_c, 3, 58, 76
9, 62760, Note_on_c, 3, 55, 76
9, 62919, Note_on_c, 3, 58, 0
9, 62919, Note_on_c, 3, 55, 0
9, 62920, Note_on_c, 3, 56, 76
9, 62920, Note_on_c, 3, 53, 76
9, 62959, Note_on_c, 3, 56, 0
9, 62959, Note_on_c, 3, 53, 0
9, 62960, Note_on_c, 3, 55, 76
9, 62960, Note_on_c, 3, 52, 76
9, 62999, Note_on_c, 3, 55, 0
9, 62999, Note_on_c, 3, 52, 0
9, 63000, Note_on_c, 3, 56, 76
9, 63000, Note_on_c, 3, 53, 76
9, 63039, Note_on_c, 3, 56, 0
9, 63039, Note_on_c, 3, 53, 0
9, 63040, Note_on_c, 3, 58, 76
9, 63040, Note_on_c, 3, 55, 76
9, 63079, Note_on_c, 3, 58, 0
9, 63079, Note_on_c, 3, 55, 0
9, 63080, Note_on_c, 3, 60, 76
9, 63080, Note_on_c, 3, 56, 76
9, 63115, Note_on_c, 3, 60, 0
9, 63115, Note_on_c, 3, 56, 0
9, 63120, Note_on_c, 3, 55, 76
9, 63120, Note_on_c, 3, 51, 76
9, 63239, Note_on_c, 3, 55, 0
9, 63239, Note_on_c, 3, 51, 0
9, 63240, Note_on_c, 3, 56, 76
9, 63240, Note_on_c, 3, 53, 76
9, 63329, Note_on_c, 3, 56, 0
9, 63329, Note_on_c, 3, 53, 0
9, 63330, Note_on_c, 3, 53, 76
9, 63330, Note_on_c, 3, 50, 76
9, 63351, Note_on_c, 3, 53, 0
9, 63351, Note_on_c, 3, 50, 0
9, 63360, Note_on_c, 3, 51, 52
9, 63479, Note_on_c, 3, 51, 0
9, 65160, Note_on_c, 3, 55, 48
9, 65160, Note_on_c, 3, 51, 48
9, 65264, Note_on_c, 3, 55, 0
9, 65264, Note_on_c, 3, 51, 0
9, 65280, Note_on_c, 3, 55, 48
9, 65280, Note_on_c, 3, 51, 48
9, 65384, Note_on_c, 3, 55, 0
9, 65384, Note_on_c, 3, 51, 0
9, 65400, Note_on_c, 3, 51, 48
9, 65400, Note_on_c, 3, 55, 48
9, 65489, Note_on_c, 3, 51, 0
9, 65489, Note_on_c, 3, 55, 0
9, 65520, Note_on_c, 3, 56, 48
9, 65520, Note_on_c, 3, 53, 48
9, 65991, Note_on_c, 3, 56, 0
9, 65991, Note_on_c, 3, 53, 0
9, 66000, Note_on_c, 3, 56, 48
9, 66000, Note_on_c, 3, 53, 48
9, 66231, Note_on_c, 3, 56, 0
9, 66231, Note_on_c, 3, 53, 0
9, 66240, Note_on_c, 3, 55, 48
9, 66240, Note_on_c, 3, 51, 48
9, 66359, Note_on_c, 3, 55, 0
9, 66359, Note_on_c, 3, 51, 0
9, 66720, Note_on_c, 3, 55, 46
9, 66720, Note_on_c, 3, 51, 46
9, 66839, Note_on_c, 3, 55, 0
9, 66839, Note_on_c, 3, 51, 0
9, 66960, Note_on_c, 3, 55, 44
9, 66960, Note_on_c, 3, 51, 44
9, 67079, Note_on_c, 3, 55, 0
9, 67079, Note_on_c, 3, 51, 0
9, 67440, Note_on_c, 3, 55, 42
9, 67440, Note_on_c, 3, 51, 42
9, 67559, Note_on_c, 3, 55, 0
9, 67559, Note_on_c, 3, 51, 0
9, 67680, Note_on_c, 3, 55, 40
9, 67680, Note_on_c, 3, 51, 40
9, 67799, Note_on_c, 3, 55, 0
9, 67799, Note_on_c, 3, 51, 0
9, 68400, Note_on_c, 3, 55, 44
9, 68400, Note_on_c, 3, 51, 44
9, 68639, Note_on_c, 3, 55, 0
9, 68639, Note_on_c, 3, 51, 0
9, 68640, Note_on_c, 3, 58, 44
9, 68640, Note_on_c, 3, 55, 44
9, 68879, Note_on_c, 3, 58, 0
9, 68879, Note_on_c, 3, 55, 0
9, 68880, Note_on_c, 3, 60, 44
9, 68880, Note_on_c, 3, 56, 44
9, 69111, Note_on_c, 3, 60, 0
9, 69111, Note_on_c, 3, 56, 0
9, 69120, Note_on_c, 3, 62, 44
9, 69120, Note_on_c, 3, 58, 44
9, 69359, Note_on_c, 3, 62, 0
9, 69359, Note_on_c, 3, 58, 0
9, 69360, Note_on_c, 3, 63, 44
9, 69360, Note_on_c, 3, 60, 44
9, 69479, Note_on_c, 3, 63, 0
9, 69479, Note_on_c, 3, 60, 0
9, 69480, Note_on_c, 3, 65, 44
9, 69480, Note_on_c, 3, 62, 44
9, 69599, Note_on_c, 3, 65, 0
9, 69599, Note_on_c, 3, 62, 0
9, 69600, Note_on_c, 3, 63, 44
9, 69719, Note_on_c, 3, 63, 0
9, 69720, Note_on_c, 3, 60, 44
9, 69720, Note_on_c, 3, 56, 44
9, 69831, Note_on_c, 3, 60, 0
9, 69831, Note_on_c, 3, 56, 0
9, 69840, Note_on_c, 3, 58, 44
9, 69840, Note_on_c, 3, 55, 44
9, 69959, Note_on_c, 3, 58, 0
9, 69959, Note_on_c, 3, 55, 0
9, 71740, Control_c, 3, 11, 72
9, 71760, Control_c, 3, 11, 74
9, 71760, Note_on_c, 3, 56, 84
9, 71780, Control_c, 3, 11, 77
9, 71800, Control_c, 3, 11, 79
9, 71820, Control_c, 3, 11, 81
9, 71840, Control_c, 3, 11, 83
9, 71860, Control_c, 3, 11, 85
9, 71880, Control_c, 3, 11, 88
9, 71900, Control_c, 3, 11, 90
9, 71920, Control_c, 3, 11, 92
9, 71940, Control_c, 3, 11, 94
9, 71960, Control_c, 3, 11, 96
9, 71980, Control_c, 3, 11, 98
9, 72000, Control_c, 3, 11, 101
9, 72020, Control_c, 3, 11, 103
9, 72040, Control_c, 3, 11, 105
9, 72060, Control_c, 3, 11, 107
9, 72080, Control_c, 3, 11, 109
9, 72100, Control_c, 3, 11, 112
9, 72120, Control_c, 3, 11, 114
9, 72140, Control_c, 3, 11, 116
9, 72160, Control_c, 3, 11, 118
9, 72180, Control_c, 3, 11, 120
9, 72200, Control_c, 3, 11, 123
9, 72220, Control_c, 3, 11, 127
9, 72239, Note_on_c, 3, 56, 0
9, 72240, Note_on_c, 3, 56, 84
9, 72240, Note_on_c, 3, 53, 84
9, 72471, Note_on_c, 3, 56, 0
9, 72471, Note_on_c, 3, 53, 0
9, 72480, Note_on_c, 3, 55, 84
9, 72480, Note_on_c, 3, 51, 84
9, 72599, Note_on_c, 3, 55, 0
9, 72599, Note_on_c, 3, 51, 0
9, 73920, Note_on_c, 3, 46, 84
9, 73920, Note_on_c, 3, 58, 84
9, 74039, Note_on_c, 3, 46, 0
9, 74039, Note_on_c, 3, 58, 0
9, 74160, Note_on_c, 3, 51, 84
9, 74160, Note_on_c, 3, 39, 84
9, 74279, Note_on_c, 3, 51, 0
9, 74279, Note_on_c, 3, 39, 0
9, 74279, End_track
10, 0, Start_track
10, 0, Title_t, "French Horn I and II in E-flat"
10, 0, MIDI_port, 0
10, 0, Program_c, 4, 60
10, 0, Control_c, 4, 7, 96
10, 0, Control_c, 4, 10, 45
10, 0, Control_c, 4, 11, 96
10, 5760, Note_on_c, 4, 51, 76
10, 5760, Note_on_c, 4, 63, 76
10, 5804, Note_on_c, 4, 51, 0
10, 5804, Note_on_c, 4, 63, 0
10, 5850, Note_on_c, 4, 58, 76
10, 5850, Note_on_c, 4, 46, 76
10, 5871, Note_on_c, 4, 58, 0
10, 5871, Note_on_c, 4, 46, 0
10, 5880, Note_on_c, 4, 51, 76
10, 5880, Note_on_c, 4, 63, 76
10, 5924, Note_on_c, 4, 51, 0
10, 5924, Note_on_c, 4, 63, 0
10, 5970, Note_on_c, 4, 46, 76
10, 5970, Note_on_c, 4, 58, 76
10, 5991, Note_on_c, 4, 46, 0
10, 5991, Note_on_c, 4, 58, 0
10, 6000, Note_on_c, 4, 51, 76
10, 6000, Note_on_c, 4, 63, 76
10, 6044, Note_on_c, 4, 51, 0
10, 6044, Note_on_c, 4, 63, 0
10, 6090, Note_on_c, 4, 46, 76
10, 6090, Note_on_c, 4, 58, 76
10, 6111, Note_on_c, 4, 46, 0
10, 6111, Note_on_c, 4, 58, 0
10, 6120, Note_on_c, 4, 51, 76
10, 6120, Note_on_c, 4, 63, 76
10, 6164, Note_on_c, 4, 51, 0
10, 6164, Note_on_c, 4, 63, 0
10, 6210, Note_on_c, 4, 46, 76
10, 6210, Note_on_c, 4, 58, 76
10, 6231, Note_on_c, 4, 46, 0
10, 6231, Note_on_c, 4, 58, 0
10, 6240, Note_on_c, 4, 63, 76
10, 6240, Note_on_c, 4, 51, 76
10, 6284, Note_on_c, 4, 63, 0
10, 6284, Note_on_c, 4, 51, 0
10, 6330, Note_on_c, 4, 58, 76
10, 6330, Note_on_c, 4, 46, 76
10, 6351, Note_on_c, 4, 58, 0
10, 6351, Note_on_c, 4, 46, 0
10, 6360, Note_on_c, 4, 51, 76
10, 6360, Note_on_c, 4, 63, 76
10, 6404, Note_on_c, 4, 51, 0
10, 6404, Note_on_c, 4, 63, 0
10, 6450, Note_on_c, 4, 46, 76
10, 6450, Note_on_c, 4, 58, 76
10, 6471, Note_on_c, 4, 46, 0
10, 6471, Note_on_c, 4, 58, 0
10, 6480, Note_on_c, 4, 51, 52
10, 6480, Note_on_c, 4, 63, 52
10, 7191, Note_on_c, 4, 51, 0
10, 7191, Note_on_c, 4, 63, 0
10, 7200, Note_on_c, 4, 51, 52
10, 7200, Note_on_c, 4, 58, 52
10, 7791, Note_on_c, 4, 51, 0
10, 7791, Note_on_c, 4, 58, 0
10, 7800, Note_on_c, 4, 63, 52
10, 7800, Note_on_c, 4, 51, 52
10, 7911, Note_on_c, 4, 63, 0
10, 7911, Note_on_c, 4, 51, 0
10, 7920, Note_on_c, 4, 58, 52
10, 7920, Note_on_c, 4, 46, 52
10, 8511, Note_on_c, 4, 58, 0
10, 8511, Note_on_c, 4, 46, 0
10, 8520, Note_on_c, 4, 58, 52
10, 8520, Note_on_c, 4, 46, 52
10, 8631, Note_on_c, 4, 58, 0
10, 8631, Note_on_c, 4, 46, 0
10, 8638, Control_c, 4, 11, 96
10, 8640, Note_on_c, 4, 46, 68
10, 8640, Control_c, 4, 11, 96
10, 8640, Note_on_c, 4, 58, 68
10, 8660, Control_c, 4, 11, 97
10, 8680, Control_c, 4, 11, 99
10, 8700, Control_c, 4, 11, 100
10, 8720, Control_c, 4, 11, 101
10, 8740, Control_c, 4, 11, 102
10, 8760, Control_c, 4, 11, 104
10, 8780, Control_c, 4, 11, 105
10, 8800, Control_c, 4, 11, 106
10, 8820, Control_c, 4, 11, 108
10, 8840, Control_c, 4, 11, 109
10, 8860, Control_c, 4, 11, 110
10, 8880, Control_c, 4, 11, 112
10, 8900, Control_c, 4, 11, 113
10, 8920, Control_c, 4, 11, 114
10, 8940, Control_c, 4, 11, 115
10, 8960, Control_c, 4, 11, 117
10, 8980, Control_c, 4, 11, 118
10, 9000, Control_c, 4, 11, 119
10, 9020, Control_c, 4, 11, 121
10, 9040, Control_c, 4, 11, 122
10, 9060, Control_c, 4, 11, 123
10, 9080, Control_c, 4, 11, 124
10, 9100, Control_c, 4, 11, 127
10, 9111, Note_on_c, 4, 46, 0
10, 9111, Note_on_c, 4, 58, 0
10, 9120, Note_on_c, 4, 65, 76
10, 9344, Note_on_c, 4, 65, 0
10, 9360, Note_on_c, 4, 65, 52
10, 9479, Note_on_c, 4, 65, 0
10, 10900, Control_c, 4, 11, 87
10, 10920, Note_on_c, 4, 67, 76
10, 10920, Control_c, 4, 11, 88
10, 10920, Note_on_c, 4, 63, 76
10, 10940, Control_c, 4, 11, 89
10, 10960, Control_c, 4, 11, 90
10, 10980, Control_c, 4, 11, 92
10, 11000, Control_c, 4, 11, 93
10, 11020, Control_c, 4, 11, 94
10, 11040, Control_c, 4, 11, 96
10, 11060, Control_c, 4, 11, 97
10, 11080, Control_c, 4, 11, 98
10, 11100, Control_c, 4, 11, 100
10, 11120, Control_c, 4, 11, 101
10, 11140, Control_c, 4, 11, 102
10, 11151, Note_on_c, 4, 67, 0
10, 11151, Note_on_c, 4, 63, 0
10, 11160, Note_on_c, 4, 58, 76
10, 11160, Note_on_c, 4, 46, 76
10, 11160, Control_c, 4, 11, 104
10, 11180, Control_c, 4, 11, 105
10, 11200, Control_c, 4, 11, 106
10, 11220, Control_c, 4, 11, 107
10, 11240, Control_c, 4, 11, 109
10, 11260, Control_c, 4, 11, 110
10, 11271, Note_on_c, 4, 58, 0
10, 11271, Note_on_c, 4, 46, 0
10, 11280, Control_c, 4, 11, 111
10, 11280, Note_on_c, 4, 58, 76
10, 11280, Note_on_c, 4, 46, 76
10, 11300, Control_c, 4, 11, 113
10, 11320, Control_c, 4, 11, 114
10, 11340, Control_c, 4, 11, 115
10, 11360, Control_c, 4, 11, 117
10, 11380, Control_c, 4, 11, 118
10, 11391, Note_on_c, 4, 58, 0
10, 11391, Note_on_c, 4, 46, 0
10, 11400, Note_on_c, 4, 58, 76
10, 11400, Control_c, 4, 11, 119
10, 11400, Note_on_c, 4, 46, 76
10, 11420, Control_c, 4, 11, 120
10, 11440, Control_c, 4, 11, 122
10, 11460, Control_c, 4, 11, 123
10, 11480, Control_c, 4, 11, 124
10, 11500, Control_c, 4, 11, 127
10, 11511, Note_on_c, 4, 58, 0
10, 11511, Note_on_c, 4, 46, 0
10, 11520, Note_on_c, 4, 55, 76
10, 11520, Note_on_c, 4, 51, 76
10, 11631, Note_on_c, 4, 55, 0
10, 11631, Note_on_c, 4, 51, 0
10, 11640, Note_on_c, 4, 63, 84
10, 11640, Note_on_c, 4, 55, 84
10, 11759, Note_on_c, 4, 63, 0
10, 11759, Note_on_c, 4, 55, 0
10, 11880, Note_on_c, 4, 63, 84
10, 11880, Note_on_c, 4, 55, 84
10, 11999, Note_on_c, 4, 63, 0
10, 11999, Note_on_c, 4, 55, 0
10, 12120, Note_on_c, 4, 63, 84
10, 12120, Note_on_c, 4, 55, 84
10, 12224, Note_on_c, 4, 63, 0
10, 12224, Note_on_c, 4, 55, 0
10, 12240, Note_on_c, 4, 65, 76
10, 12240, Note_on_c, 4, 58, 76
10, 12300, Control_c, 4, 11, 80
10, 12951, Note_on_c, 4, 65, 0
10, 12951, Note_on_c, 4, 58, 0
10, 12958, Control_c, 4, 11, 127
10, 12960, Note_on_c, 4, 63, 76
10, 12960, Note_on_c, 4, 55, 76
10, 13071, Note_on_c, 4, 63, 0
10, 13071, Note_on_c, 4, 55, 0
10, 13080, Note_on_c, 4, 55, 84
10, 13080, Note_on_c, 4, 63, 84
10, 13199, Note_on_c, 4, 55, 0
10, 13199, Note_on_c, 4, 63, 0
10, 13320, Note_on_c, 4, 63, 84
10, 13320, Note_on_c, 4, 55, 84
10, 13439, Note_on_c, 4, 63, 0
10, 13439, Note_on_c, 4, 55, 0
10, 13560, Note_on_c, 4, 63, 84
10, 13560, Note_on_c, 4, 55, 84
10, 13664, Note_on_c, 4, 63, 0
10, 13664, Note_on_c, 4, 55, 0
10, 13680, Note_on_c, 4, 55, 76
10, 13680, Note_on_c, 4, 67, 76
10, 13740, Control_c, 4, 11, 80
10, 14391, Note_on_c, 4, 55, 0
10, 14391, Note_on_c, 4, 67, 0
10, 14398, Control_c, 4, 11, 127
10, 14400, Note_on_c, 4, 55, 76
10, 14400, Note_on_c, 4, 67, 76
10, 14511, Note_on_c, 4, 55, 0
10, 14511, Note_on_c, 4, 67, 0
10, 14520, Note_on_c, 4, 67, 84
10, 14520, Note_on_c, 4, 55, 84
10, 14639, Note_on_c, 4, 67, 0
10, 14639, Note_on_c, 4, 55, 0
10, 14760, Note_on_c, 4, 55, 84
10, 14760, Note_on_c, 4, 67, 84
10, 14879, Note_on_c, 4, 55, 0
10, 14879, Note_on_c, 4, 67, 0
10, 15000, Note_on_c, 4, 55, 84
10, 15000, Note_on_c, 4, 67, 84
10, 15119, Note_on_c, 4, 55, 0
10, 15119, Note_on_c, 4, 67, 0
10, 22540, Control_c, 4, 11, 94
10, 22560, Note_on_c, 4, 68, 76
10, 22560, Control_c, 4, 11, 96
10, 22580, Control_c, 4, 11, 97
10, 22600, Control_c, 4, 11, 98
10, 22620, Control_c, 4, 11, 100
10, 22640, Control_c, 4, 11, 101
10, 22660, Control_c, 4, 11, 102
10, 22680, Control_c, 4, 11, 104
10, 22700, Control_c, 4, 11, 105
10, 22720, Control_c, 4, 11, 106
10, 22740, Control_c, 4, 11, 107
10, 22760, Control_c, 4, 11, 109
10, 22780, Control_c, 4, 11, 110
10, 22800, Control_c, 4, 11, 111
10, 22820, Control_c, 4, 11, 113
10, 22840, Control_c, 4, 11, 114
10, 22860, Control_c, 4, 11, 115
10, 22880, Control_c, 4, 11, 117
10, 22900, Control_c, 4, 11, 118
10, 22920, Control_c, 4, 11, 119
10, 22940, Control_c, 4, 11, 120
10, 22960, Control_c, 4, 11, 122
10, 22980, Control_c, 4, 11, 123
10, 23000, Control_c, 4, 11, 124
10, 23020, Control_c, 4, 11, 127
10, 23151, Note_on_c, 4, 68, 0
10, 23160, Note_on_c, 4, 68, 76
10, 23271, Note_on_c, 4, 68, 0
10, 23280, Note_on_c, 4, 67, 76
10, 23391, Note_on_c, 4, 67, 0
10, 23400, Note_on_c, 4, 67, 76
10, 23400, Note_on_c, 4, 63, 76
10, 23511, Note_on_c, 4, 67, 0
10, 23511, Note_on_c, 4, 63, 0
10, 23520, Note_on_c, 4, 65, 76
10, 23631, Note_on_c, 4, 65, 0
10, 23640, Note_on_c, 4, 65, 76
10, 23751, Note_on_c, 4, 65, 0
10, 23760, Note_on_c, 4, 58, 52
10, 23879, Note_on_c, 4, 58, 0
10, 25560, Note_on_c, 4, 65, 48
10, 25664, Note_on_c, 4, 65, 0
10, 25680, Note_on_c, 4, 65, 48
10, 25784, Note_on_c, 4, 65, 0
10, 25800, Note_on_c, 4, 65, 48
10, 25889, Note_on_c, 4, 65, 0
10, 25920, Note_on_c, 4, 65, 48
10, 26631, Note_on_c, 4, 65, 0
10, 26638, Control_c, 4, 11, 64
10, 26640, Note_on_c, 4, 58, 84
10, 26640, Control_c, 4, 11, 64
10, 26640, Note_on_c, 4, 46, 84
10, 26663, Control_c, 4, 11, 65
10, 26686, Control_c, 4, 11, 66
10, 26709, Control_c, 4, 11, 67
10, 26731, Control_c, 4, 11, 68
10, 26754, Control_c, 4, 11, 69
10, 26777, Control_c, 4, 11, 70
10, 26800, Control_c, 4, 11, 71
10, 26823, Control_c, 4, 11, 72
10, 26846, Control_c, 4, 11, 73
10, 26869, Control_c, 4, 11, 74
10, 26891, Control_c, 4, 11, 75
10, 26914, Control_c, 4, 11, 76
10, 26937, Control_c, 4, 11, 77
10, 26960, Control_c, 4, 11, 78
10, 26983, Control_c, 4, 11, 79
10, 27006, Control_c, 4, 11, 80
10, 27029, Control_c, 4, 11, 81
10, 27051, Control_c, 4, 11, 82
10, 27074, Control_c, 4, 11, 83
10, 27097, Control_c, 4, 11, 84
10, 27120, Control_c, 4, 11, 85
10, 27143, Control_c, 4, 11, 86
10, 27166, Control_c, 4, 11, 87
10, 27189, Control_c, 4, 11, 88
10, 27211, Control_c, 4, 11, 89
10, 27234, Control_c, 4, 11, 90
10, 27257, Control_c, 4, 11, 91
10, 27280, Control_c, 4, 11, 92
10, 27303, Control_c, 4, 11, 93
10, 27326, Control_c, 4, 11, 94
10, 27349, Control_c, 4, 11, 95
10, 27359, Note_on_c, 4, 58, 0
10, 27359, Note_on_c, 4, 46, 0
10, 27360, Note_on_c, 4, 58, 84
10, 27360, Note_on_c, 4, 46, 84
10, 27371, Control_c, 4, 11, 96
10, 27394, Control_c, 4, 11, 97
10, 27417, Control_c, 4, 11, 98
10, 27440, Control_c, 4, 11, 99
10, 27463, Control_c, 4, 11, 100
10, 27486, Control_c, 4, 11, 101
10, 27509, Control_c, 4, 11, 102
10, 27531, Control_c, 4, 11, 103
10, 27554, Control_c, 4, 11, 104
10, 27577, Control_c, 4, 11, 105
10, 27600, Control_c, 4, 11, 106
10, 27623, Control_c, 4, 11, 107
10, 27646, Control_c, 4, 11, 108
10, 27669, Control_c, 4, 11, 109
10, 27691, Control_c, 4, 11, 110
10, 27714, Control_c, 4, 11, 111
10, 27737, Control_c, 4, 11, 112
10, 27760, Control_c, 4, 11, 113
10, 27783, Control_c, 4, 11, 114
10, 27806, Control_c, 4, 11, 115
10, 27829, Control_c, 4, 11, 116
10, 27851, Control_c, 4, 11, 117
10, 27874, Control_c, 4, 11, 118
10, 27897, Control_c, 4, 11, 119
10, 27920, Control_c, 4, 11, 120
10, 27943, Control_c, 4, 11, 121
10, 27966, Control_c, 4, 11, 122
10, 27989, Control_c, 4, 11, 123
10, 28011, Control_c, 4, 11, 124
10, 28034, Control_c, 4, 11, 125
10, 28057, Control_c, 4, 11, 127
10, 28071, Note_on_c, 4, 58, 0
10, 28071, Note_on_c, 4, 46, 0
10, 28080, Note_on_c, 4, 46, 84
10, 28080, Note_on_c, 4, 58, 84
10, 28139, Note_on_c, 4, 46, 0
10, 28139, Note_on_c, 4, 58, 0
10, 28170, Note_on_c, 4, 58, 84
10, 28170, Note_on_c, 4, 46, 84
10, 28195, Note_on_c, 4, 58, 0
10, 28195, Note_on_c, 4, 46, 0
10, 28200, Note_on_c, 4, 46, 84
10, 28200, Note_on_c, 4, 58, 84
10, 28259, Note_on_c, 4, 46, 0
10, 28259, Note_on_c, 4, 58, 0
10, 28290, Note_on_c, 4, 58, 84
10, 28290, Note_on_c, 4, 46, 84
10, 28315, Note_on_c, 4, 58, 0
10, 28315, Note_on_c, 4, 46, 0
10, 28320, Note_on_c, 4, 58, 84
10, 28320, Note_on_c, 4, 46, 84
10, 28379, Note_on_c, 4, 58, 0
10, 28379, Note_on_c, 4, 46, 0
10, 28410, Note_on_c, 4, 58, 84
10, 28410, Note_on_c, 4, 46, 84
10, 28435, Note_on_c, 4, 58, 0
10, 28435, Note_on_c, 4, 46, 0
10, 28440, Note_on_c, 4, 58, 84
10, 28440, Note_on_c, 4, 46, 84
10, 28499, Note_on_c, 4, 58, 0
10, 28499, Note_on_c, 4, 46, 0
10, 28530, Note_on_c, 4, 58, 84
10, 28530, Note_on_c, 4, 46, 84
10, 28555, Note_on_c, 4, 58, 0
10, 28555, Note_on_c, 4, 46, 0
10, 28560, Note_on_c, 4, 46, 84
10, 28560, Note_on_c, 4, 58, 84
10, 28619, Note_on_c, 4, 46, 0
10, 28619, Note_on_c, 4, 58, 0
10, 28650, Note_on_c, 4, 46, 84
10, 28650, Note_on_c, 4, 58, 84
10, 28675, Note_on_c, 4, 46, 0
10, 28675, Note_on_c, 4, 58, 0
10, 28680, Note_on_c, 4, 46, 84
10, 28680, Note_on_c, 4, 58, 84
10, 28739, Note_on_c, 4, 46, 0
10, 28739, Note_on_c, 4, 58, 0
10, 28770, Note_on_c, 4, 46, 84
10, 28770, Note_on_c, 4, 58, 84
10, 28795, Note_on_c, 4, 46, 0
10, 28795, Note_on_c, 4, 58, 0
10, 28800, Note_on_c, 4, 63, 84
10, 28800, Note_on_c, 4, 51, 84
10, 28919, Note_on_c, 4, 63, 0
10, 28919, Note_on_c, 4, 51, 0
10, 34560, Note_on_c, 4, 51, 76
10, 34560, Note_on_c, 4, 63, 76
10, 34604, Note_on_c, 4, 51, 0
10, 34604, Note_on_c, 4, 63, 0
10, 34650, Note_on_c, 4, 46, 76
10, 34650, Note_on_c, 4, 58, 76
10, 34671, Note_on_c, 4, 46, 0
10, 34671, Note_on_c, 4, 58, 0
10, 34680, Note_on_c, 4, 63, 76
10, 34680, Note_on_c, 4, 51, 76
10, 34724, Note_on_c, 4, 63, 0
10, 34724, Note_on_c, 4, 51, 0
10, 34770, Note_on_c, 4, 58, 76
10, 34770, Note_on_c, 4, 46, 76
10, 34791, Note_on_c, 4, 58, 0
10, 34791, Note_on_c, 4, 46, 0
10, 34800, Note_on_c, 4, 63, 76
10, 34800, Note_on_c, 4, 51, 76
10, 34844, Note_on_c, 4, 63, 0
10, 34844, Note_on_c, 4, 51, 0
10, 34890, Note_on_c, 4, 46, 76
10, 34890, Note_on_c, 4, 58, 76
10, 34911, Note_on_c, 4, 46, 0
10, 34911, Note_on_c, 4, 58, 0
10, 34920, Note_on_c, 4, 51, 76
10, 34920, Note_on_c, 4, 63, 76
10, 34964, Note_on_c, 4, 51, 0
10, 34964, Note_on_c, 4, 63, 0
10, 35010, Note_on_c, 4, 46, 76
10, 35010, Note_on_c, 4, 58, 76
10, 35031, Note_on_c, 4, 46, 0
10, 35031, Note_on_c, 4, 58, 0
10, 35040, Note_on_c, 4, 63, 76
10, 35040, Note_on_c, 4, 51, 76
10, 35084, Note_on_c, 4, 63, 0
10, 35084, Note_on_c, 4, 51, 0
10, 35130, Note_on_c, 4, 46, 76
10, 35130, Note_on_c, 4, 58, 76
10, 35151, Note_on_c, 4, 46, 0
10, 35151, Note_on_c, 4, 58, 0
10, 35160, Note_on_c, 4, 63, 76
10, 35160, Note_on_c, 4, 51, 76
10, 35204, Note_on_c, 4, 63, 0
10, 35204, Note_on_c, 4, 51, 0
10, 35250, Note_on_c, 4, 58, 76
10, 35250, Note_on_c, 4, 46, 76
10, 35271, Note_on_c, 4, 58, 0
10, 35271, Note_on_c, 4, 46, 0
10, 35280, Note_on_c, 4, 51, 84
10, 35280, Note_on_c, 4, 63, 84
10, 35511, Note_on_c, 4, 51, 0
10, 35511, Note_on_c, 4, 63, 0
10, 35520, Note_on_c, 4, 51, 92
10, 35520, Note_on_c, 4, 63, 92
10, 35744, Note_on_c, 4, 51, 0
10, 35744, Note_on_c, 4, 63, 0
10, 35760, Note_on_c, 4, 63, 92
10, 35760, Note_on_c, 4, 51, 92
10, 35984, Note_on_c, 4, 63, 0
10, 35984, Note_on_c, 4, 51, 0
10, 36000, Note_on_c, 4, 58, 76
10, 36000, Note_on_c, 4, 46, 76
10, 36719, Note_on_c, 4, 58, 0
10, 36719, Note_on_c, 4, 46, 0
10, 36720, Note_on_c, 4, 46, 76
10, 36720, Note_on_c, 4, 58, 76
10, 37439, Note_on_c, 4, 46, 0
10, 37439, Note_on_c, 4, 58, 0
10, 37440, Note_on_c, 4, 46, 76
10, 37440, Note_on_c, 4, 58, 76
10, 37911, Note_on_c, 4, 46, 0
10, 37911, Note_on_c, 4, 58, 0
10, 37920, Note_on_c, 4, 63, 84
10, 38144, Note_on_c, 4, 63, 0
10, 38160, Note_on_c, 4, 65, 52
10, 38279, Note_on_c, 4, 65, 0
10, 45360, Note_on_c, 4, 75, 44
10, 45360, Note_on_c, 4, 63, 44
10, 45599, Note_on_c, 4, 75, 0
10, 45599, Note_on_c, 4, 63, 0
10, 45600, Note_on_c, 4, 58, 44
10, 45600, Note_on_c, 4, 70, 44
10, 45839, Note_on_c, 4, 58, 0
10, 45839, Note_on_c, 4, 70, 0
10, 45840, Note_on_c, 4, 55, 44
10, 45840, Note_on_c, 4, 67, 44
10, 46071, Note_on_c, 4, 55, 0
10, 46071, Note_on_c, 4, 67, 0
10, 46080, Note_on_c, 4, 51, 44
10, 46080, Note_on_c, 4, 63, 44
10, 46791, Note_on_c, 4, 51, 0
10, 46791, Note_on_c, 4, 63, 0
10, 46800, Note_on_c, 4, 51, 44
10, 46800, Note_on_c, 4, 58, 44
10, 47391, Note_on_c, 4, 51, 0
10, 47391, Note_on_c, 4, 58, 0
10, 47400, Note_on_c, 4, 63, 44
10, 47400, Note_on_c, 4, 51, 44
10, 47511, Note_on_c, 4, 63, 0
10, 47511, Note_on_c, 4, 51, 0
10, 47520, Note_on_c, 4, 58, 44
10, 47520, Note_on_c, 4, 46, 44
10, 48111, Note_on_c, 4, 58, 0
10, 48111, Note_on_c, 4, 46, 0
10, 48120, Note_on_c, 4, 46, 44
10, 48120, Note_on_c, 4, 58, 44
10, 48231, Note_on_c, 4, 46, 0
10, 48231, Note_on_c, 4, 58, 0
10, 48238, Control_c, 4, 11, 96
10, 48240, Note_on_c, 4, 46, 60
10, 48240, Note_on_c, 4, 58, 60
10, 48240, Control_c, 4, 11, 96
10, 48260, Control_c, 4, 11, 97
10, 48280, Control_c, 4, 11, 99
10, 48300, Control_c, 4, 11, 100
10, 48320, Control_c, 4, 11, 101
10, 48340, Control_c, 4, 11, 102
10, 48360, Control_c, 4, 11, 104
10, 48380, Control_c, 4, 11, 105
10, 48400, Control_c, 4, 11, 106
10, 48420, Control_c, 4, 11, 108
10, 48440, Control_c, 4, 11, 109
10, 48460, Control_c, 4, 11, 110
10, 48480, Control_c, 4, 11, 112
10, 48500, Control_c, 4, 11, 113
10, 48520, Control_c, 4, 11, 114
10, 48540, Control_c, 4, 11, 115
10, 48560, Control_c, 4, 11, 117
10, 48580, Control_c, 4, 11, 118
10, 48600, Control_c, 4, 11, 119
10, 48620, Control_c, 4, 11, 121
10, 48640, Control_c, 4, 11, 122
10, 48660, Control_c, 4, 11, 123
10, 48680, Control_c, 4, 11, 124
10, 48700, Control_c, 4, 11, 127
10, 48711, Note_on_c, 4, 46, 0
10, 48711, Note_on_c, 4, 58, 0
10, 48720, Note_on_c, 4, 65, 68
10, 48944, Note_on_c, 4, 65, 0
10, 48960, Note_on_c, 4, 65, 52
10, 49255, Note_on_c, 4, 65, 0
10, 49260, Note_on_c, 4, 68, 52
10, 49260, Note_on_c, 4, 65, 52
10, 49319, Note_on_c, 4, 68, 0
10, 49319, Note_on_c, 4, 65, 0
10, 49380, Note_on_c, 4, 65, 52
10, 49380, Note_on_c, 4, 68, 52
10, 49439, Note_on_c, 4, 65, 0
10, 49439, Note_on_c, 4, 68, 0
10, 49500, Note_on_c, 4, 65, 52
10, 49500, Note_on_c, 4, 68, 52
10, 49559, Note_on_c, 4, 65, 0
10, 49559, Note_on_c, 4, 68, 0
10, 49620, Note_on_c, 4, 68, 52
10, 49620, Note_on_c, 4, 65, 52
10, 49675, Note_on_c, 4, 68, 0
10, 49675, Note_on_c, 4, 65, 0
10, 49680, Note_on_c, 4, 65, 52
10, 49680, Note_on_c, 4, 68, 52
10, 49975, Note_on_c, 4, 65, 0
10, 49975, Note_on_c, 4, 68, 0
10, 49980, Note_on_c, 4, 65, 52
10, 49980, Note_on_c, 4, 68, 52
10, 50039, Note_on_c, 4, 65, 0
10, 50039, Note_on_c, 4, 68, 0
10, 50100, Note_on_c, 4, 67, 52
10, 50100, Note_on_c, 4, 63, 52
10, 50159, Note_on_c, 4, 67, 0
10, 50159, Note_on_c, 4, 63, 0
10, 50220, Note_on_c, 4, 68, 52
10, 50220, Note_on_c, 4, 65, 52
10, 50279, Note_on_c, 4, 68, 0
10, 50279, Note_on_c, 4, 65, 0
10, 50340, Note_on_c, 4, 68, 52
10, 50340, Note_on_c, 4, 65, 52
10, 50399, Note_on_c, 4, 68, 0
10, 50399, Note_on_c, 4, 65, 0
10, 50460, Note_on_c, 4, 63, 54
10, 50460, Note_on_c, 4, 67, 54
10, 50519, Note_on_c, 4, 63, 0
10, 50519, Note_on_c, 4, 67, 0
10, 50580, Note_on_c, 4, 63, 58
10, 50580, Note_on_c, 4, 67, 58
10, 50639, Note_on_c, 4, 63, 0
10, 50639, Note_on_c, 4, 67, 0
10, 50700, Note_on_c, 4, 67, 62
10, 50700, Note_on_c, 4, 63, 62
10, 50759, Note_on_c, 4, 67, 0
10, 50759, Note_on_c, 4, 63, 0
10, 50820, Note_on_c, 4, 46, 66
10, 50820, Note_on_c, 4, 58, 66
10, 50879, Note_on_c, 4, 46, 0
10, 50879, Note_on_c, 4, 58, 0
10, 50940, Note_on_c, 4, 58, 70
10, 50940, Note_on_c, 4, 46, 70
10, 50999, Note_on_c, 4, 58, 0
10, 50999, Note_on_c, 4, 46, 0
10, 51060, Note_on_c, 4, 46, 74
10, 51060, Note_on_c, 4, 58, 74
10, 51115, Note_on_c, 4, 46, 0
10, 51115, Note_on_c, 4, 58, 0
10, 51120, Note_on_c, 4, 58, 76
10, 51120, Note_on_c, 4, 51, 76
10, 51231, Note_on_c, 4, 58, 0
10, 51231, Note_on_c, 4, 51, 0
10, 51240, Note_on_c, 4, 63, 84
10, 51240, Note_on_c, 4, 67, 84
10, 51359, Note_on_c, 4, 63, 0
10, 51359, Note_on_c, 4, 67, 0
10, 51480, Note_on_c, 4, 67, 84
10, 51480, Note_on_c, 4, 63, 84
10, 51599, Note_on_c, 4, 67, 0
10, 51599, Note_on_c, 4, 63, 0
10, 51720, Note_on_c, 4, 63, 84
10, 51720, Note_on_c, 4, 67, 84
10, 51824, Note_on_c, 4, 63, 0
10, 51824, Note_on_c, 4, 67, 0
10, 51840, Note_on_c, 4, 58, 76
10, 51840, Note_on_c, 4, 65, 76
10, 51900, Control_c, 4, 11, 80
10, 52551, Note_on_c, 4, 58, 0
10, 52551, Note_on_c, 4, 65, 0
10, 52558, Control_c, 4, 11, 127
10, 52560, Note_on_c, 4, 63, 76
10, 52560, Note_on_c, 4, 55, 76
10, 52671, Note_on_c, 4, 63, 0
10, 52671, Note_on_c, 4, 55, 0
10, 52680, Note_on_c, 4, 67, 84
10, 52680, Note_on_c, 4, 63, 84
10, 52799, Note_on_c, 4, 67, 0
10, 52799, Note_on_c, 4, 63, 0
10, 52920, Note_on_c, 4, 63, 84
10, 52920, Note_on_c, 4, 67, 84
10, 53039, Note_on_c, 4, 63, 0
10, 53039, Note_on_c, 4, 67, 0
10, 53160, Note_on_c, 4, 63, 84
10, 53160, Note_on_c, 4, 67, 84
10, 53279, Note_on_c, 4, 63, 0
10, 53279, Note_on_c, 4, 67, 0
10, 54120, Note_on_c, 4, 65, 84
10, 54239, Note_on_c, 4, 65, 0
10, 54360, Note_on_c, 4, 65, 84
10, 54479, Note_on_c, 4, 65, 0
10, 54600, Note_on_c, 4, 65, 84
10, 54704, Note_on_c, 4, 65, 0
10, 54720, Note_on_c, 4, 58, 76
10, 54720, Note_on_c, 4, 46, 76
10, 54780, Control_c, 4, 11, 80
10, 55431, Note_on_c, 4, 58, 0
10, 55431, Note_on_c, 4, 46, 0
10, 55438, Control_c, 4, 11, 127
10, 55440, Note_on_c, 4, 46, 76
10, 55440, Note_on_c, 4, 58, 76
10, 55500, Control_c, 4, 11, 80
10, 55911, Note_on_c, 4, 46, 0
10, 55911, Note_on_c, 4, 58, 0
10, 55920, Note_on_c, 4, 58, 76
10, 55920, Note_on_c, 4, 46, 76
10, 55975, Note_on_c, 4, 58, 0
10, 55975, Note_on_c, 4, 46, 0
10, 55980, Note_on_c, 4, 58, 76
10, 55980, Note_on_c, 4, 46, 76
10, 56035, Note_on_c, 4, 58, 0
10, 56035, Note_on_c, 4, 46, 0
10, 56040, Note_on_c, 4, 58, 76
10, 56040, Note_on_c, 4, 46, 76
10, 56095, Note_on_c, 4, 58, 0
10, 56095, Note_on_c, 4, 46, 0
10, 56100, Note_on_c, 4, 58, 76
10, 56100, Note_on_c, 4, 46, 76
10, 56155, Note_on_c, 4, 58, 0
10, 56155, Note_on_c, 4, 46, 0
10, 56160, Note_on_c, 4, 58, 76
10, 56160, Note_on_c, 4, 46, 76
10, 56160, Control_c, 4, 11, 80
10, 56215, Note_on_c, 4, 58, 0
10, 56215, Note_on_c, 4, 46, 0
10, 56220, Note_on_c, 4, 58, 76
10, 56220, Control_c, 4, 11, 84
10, 56220, Note_on_c, 4, 46, 76
10, 56275, Note_on_c, 4, 58, 0
10, 56275, Note_on_c, 4, 46, 0
10, 56280, Control_c, 4, 11, 88
10, 56280, Note_on_c, 4, 58, 76
10, 56280, Note_on_c, 4, 46, 76
10, 56335, Note_on_c, 4, 58, 0
10, 56335, Note_on_c, 4, 46, 0
10, 56340, Note_on_c, 4, 46, 76
10, 56340, Note_on_c, 4, 58, 76
10, 56340, Control_c, 4, 11, 92
10, 56395, Note_on_c, 4, 46, 0
10, 56395, Note_on_c, 4, 58, 0
10, 56400, Note_on_c, 4, 58, 76
10, 56400, Note_on_c, 4, 46, 76
10, 56400, Control_c, 4, 11, 96
10, 56455, Note_on_c, 4, 58, 0
10, 56455, Note_on_c, 4, 46, 0
10, 56460, Note_on_c, 4, 46, 76
10, 56460, Control_c, 4, 11, 100
10, 56460, Note_on_c, 4, 58, 76
10, 56515, Note_on_c, 4, 46, 0
10, 56515, Note_on_c, 4, 58, 0
10, 56520, Control_c, 4, 11, 104
10, 56520, Note_on_c, 4, 46, 76
10, 56520, Note_on_c, 4, 58, 76
10, 56575, Note_on_c, 4, 46, 0
10, 56575, Note_on_c, 4, 58, 0
10, 56580, Note_on_c, 4, 58, 76
10, 56580, Note_on_c, 4, 46, 76
10, 56580, Control_c, 4, 11, 107
10, 56635, Note_on_c, 4, 58, 0
10, 56635, Note_on_c, 4, 46, 0
10, 56640, Note_on_c, 4, 58, 76
10, 56640, Note_on_c, 4, 46, 76
10, 56640, Control_c, 4, 11, 111
10, 56695, Note_on_c, 4, 58, 0
10, 56695, Note_on_c, 4, 46, 0
10, 56700, Control_c, 4, 11, 115
10, 56700, Note_on_c, 4, 46, 76
10, 56700, Note_on_c, 4, 58, 76
10, 56755, Note_on_c, 4, 46, 0
10, 56755, Note_on_c, 4, 58, 0
10, 56760, Note_on_c, 4, 46, 76
10, 56760, Control_c, 4, 11, 119
10, 56760, Note_on_c, 4, 58, 76
10, 56815, Note_on_c, 4, 46, 0
10, 56815, Note_on_c, 4, 58, 0
10, 56820, Note_on_c, 4, 46, 76
10, 56820, Note_on_c, 4, 58, 76
10, 56820, Control_c, 4, 11, 123
10, 56875, Note_on_c, 4, 46, 0
10, 56875, Note_on_c, 4, 58, 0
10, 56878, Control_c, 4, 11, 127
10, 56880, Note_on_c, 4, 58, 76
10, 56880, Note_on_c, 4, 46, 76
10, 56935, Note_on_c, 4, 58, 0
10, 56935, Note_on_c, 4, 46, 0
10, 56940, Note_on_c, 4, 46, 76
10, 56940, Note_on_c, 4, 58, 76
10, 56995, Note_on_c, 4, 46, 0
10, 56995, Note_on_c, 4, 58, 0
10, 57000, Note_on_c, 4, 58, 76
10, 57000, Note_on_c, 4, 46, 76
10, 57055, Note_on_c, 4, 58, 0
10, 57055, Note_on_c, 4, 46, 0
10, 57060, Note_on_c, 4, 46, 76
10, 57060, Note_on_c, 4, 58, 76
10, 57115, Note_on_c, 4, 46, 0
10, 57115, Note_on_c, 4, 58, 0
10, 57120, Note_on_c, 4, 58, 76
10, 57120, Note_on_c, 4, 46, 76
10, 57175, Note_on_c, 4, 58, 0
10, 57175, Note_on_c, 4, 46, 0
10, 57180, Note_on_c, 4, 46, 76
10, 57180, Note_on_c, 4, 58, 76
10, 57235, Note_on_c, 4, 46, 0
10, 57235, Note_on_c, 4, 58, 0
10, 57240, Note_on_c, 4, 58, 76
10, 57240, Note_on_c, 4, 46, 76
10, 57295, Note_on_c, 4, 58, 0
10, 57295, Note_on_c, 4, 46, 0
10, 57300, Note_on_c, 4, 58, 76
10, 57300, Note_on_c, 4, 46, 76
10, 57355, Note_on_c, 4, 58, 0
10, 57355, Note_on_c, 4, 46, 0
10, 57360, Note_on_c, 4, 58, 76
10, 57360, Note_on_c, 4, 46, 76
10, 57415, Note_on_c, 4, 58, 0
10, 57415, Note_on_c, 4, 46, 0
10, 57420, Note_on_c, 4, 46, 68
10, 57420, Note_on_c, 4, 58, 68
10, 57475, Note_on_c, 4, 46, 0
10, 57475, Note_on_c, 4, 58, 0
10, 57480, Note_on_c, 4, 46, 60
10, 57480, Note_on_c, 4, 58, 60
10, 57535, Note_on_c, 4, 46, 0
10, 57535, Note_on_c, 4, 58, 0
10, 57540, Note_on_c, 4, 46, 52
10, 57540, Note_on_c, 4, 58, 52
10, 57595, Note_on_c, 4, 46, 0
10, 57595, Note_on_c, 4, 58, 0
10, 57600, Note_on_c, 4, 51, 44
10, 57719, Note_on_c, 4, 51, 0
10, 60600, Note_on_c, 4, 67, 46
10, 60600, Note_on_c, 4, 63, 46
10, 60689, Note_on_c, 4, 67, 0
10, 60689, Note_on_c, 4, 63, 0
10, 60720, Note_on_c, 4, 63, 49
10, 60720, Note_on_c, 4, 58, 49
10, 60809, Note_on_c, 4, 63, 0
10, 60809, Note_on_c, 4, 58, 0
10, 60840, Note_on_c, 4, 58, 52
10, 60840, Note_on_c, 4, 55, 52
10, 60929, Note_on_c, 4, 58, 0
10, 60929, Note_on_c, 4, 55, 0
10, 60960, Note_on_c, 4, 55, 54
10, 60960, Note_on_c, 4, 51, 54
10, 61049, Note_on_c, 4, 55, 0
10, 61049, Note_on_c, 4, 51, 0
10, 61080, Note_on_c, 4, 67, 57
10, 61080, Note_on_c, 4, 63, 57
10, 61169, Note_on_c, 4, 67, 0
10, 61169, Note_on_c, 4, 63, 0
10, 61200, Note_on_c, 4, 65, 52
10, 61200, Note_on_c, 4, 63, 52
10, 61319, Note_on_c, 4, 65, 0
10, 61319, Note_on_c, 4, 63, 0
10, 61440, Note_on_c, 4, 67, 52
10, 61440, Note_on_c, 4, 63, 52
10, 61559, Note_on_c, 4, 67, 0
10, 61559, Note_on_c, 4, 63, 0
10, 61680, Note_on_c, 4, 65, 52
10, 61680, Note_on_c, 4, 58, 52
10, 61799, Note_on_c, 4, 65, 0
10, 61799, Note_on_c, 4, 58, 0
10, 62140, Control_c, 4, 11, 94
10, 62160, Note_on_c, 4, 61, 76
10, 62160, Control_c, 4, 11, 96
10, 62180, Control_c, 4, 11, 97
10, 62200, Control_c, 4, 11, 98
10, 62220, Control_c, 4, 11, 100
10, 62240, Control_c, 4, 11, 101
10, 62260, Control_c, 4, 11, 102
10, 62280, Control_c, 4, 11, 104
10, 62300, Control_c, 4, 11, 105
10, 62320, Control_c, 4, 11, 106
10, 62340, Control_c, 4, 11, 107
10, 62360, Control_c, 4, 11, 109
10, 62380, Control_c, 4, 11, 110
10, 62400, Control_c, 4, 11, 111
10, 62420, Control_c, 4, 11, 113
10, 62440, Control_c, 4, 11, 114
10, 62460, Control_c, 4, 11, 115
10, 62480, Control_c, 4, 11, 117
10, 62500, Control_c, 4, 11, 118
10, 62520, Control_c, 4, 11, 119
10, 62540, Control_c, 4, 11, 120
10, 62560, Control_c, 4, 11, 122
10, 62580, Control_c, 4, 11, 123
10, 62600, Control_c, 4, 11, 124
10, 62620, Control_c, 4, 11, 127
10, 62751, Note_on_c, 4, 61, 0
10, 62760, Note_on_c, 4, 61, 76
10, 62871, Note_on_c, 4, 61, 0
10, 62880, Note_on_c, 4, 60, 76
10, 62991, Note_on_c, 4, 60, 0
10, 63000, Note_on_c, 4, 60, 76
10, 63111, Note_on_c, 4, 60, 0
10, 63120, Note_on_c, 4, 58, 76
10, 63231, Note_on_c, 4, 58, 0
10, 63240, Note_on_c, 4, 58, 76
10, 63351, Note_on_c, 4, 58, 0
10, 63360, Note_on_c, 4, 58, 52
10, 63479, Note_on_c, 4, 58, 0
10, 63720, Note_on_c, 4, 67, 48
10, 63720, Note_on_c, 4, 63, 48
10, 63824, Note_on_c, 4, 67, 0
10, 63824, Note_on_c, 4, 63, 0
10, 63840, Note_on_c, 4, 67, 48
10, 63840, Note_on_c, 4, 63, 48
10, 63944, Note_on_c, 4, 67, 0
10, 63944, Note_on_c, 4, 63, 0
10, 63960, Note_on_c, 4, 67, 48
10, 63960, Note_on_c, 4, 63, 48
10, 64049, Note_on_c, 4, 67, 0
10, 64049, Note_on_c, 4, 63, 0
10, 64080, Note_on_c, 4, 68, 48
10, 64080, Note_on_c, 4, 65, 48
10, 64559, Note_on_c, 4, 68, 0
10, 64559, Note_on_c, 4, 65, 0
10, 64560, Note_on_c, 4, 70, 48
10, 64560, Note_on_c, 4, 58, 48
10, 64739, Note_on_c, 4, 70, 0
10, 64739, Note_on_c, 4, 58, 0
10, 64740, Note_on_c, 4, 68, 48
10, 64740, Note_on_c, 4, 65, 48
10, 64795, Note_on_c, 4, 68, 0
10, 64795, Note_on_c, 4, 65, 0
10, 64800, Note_on_c, 4, 67, 48
10, 64800, Note_on_c, 4, 63, 48
10, 64919, Note_on_c, 4, 67, 0
10, 64919, Note_on_c, 4, 63, 0
10, 68400, Note_on_c, 4, 39, 44
10, 69119, Note_on_c, 4, 39, 0
10, 69120, Note_on_c, 4, 39, 44
10, 69711, Note_on_c, 4, 39, 0
10, 69720, Note_on_c, 4, 51, 44
10, 69831, Note_on_c, 4, 51, 0
10, 69840, Note_on_c, 4, 51, 44
10, 69951, Note_on_c, 4, 51, 0
10, 69960, Note_on_c, 4, 51, 44
10, 69985, Note_on_c, 4, 51, 0
10, 69990, Note_on_c, 4, 55, 44
10, 70015, Note_on_c, 4, 55, 0
10, 70020, Note_on_c, 4, 58, 44
10, 70045, Note_on_c, 4, 58, 0
10, 70050, Note_on_c, 4, 63, 44
10, 70075, Note_on_c, 4, 63, 0
10, 70080, Note_on_c, 4, 67, 44
10, 70199, Note_on_c, 4, 67, 0
10, 71280, Control_c, 4, 11, 48
10, 71520, Note_on_c, 4, 63, 84
10, 71520, Note_on_c, 4, 51, 84
10, 71520, Control_c, 4, 11, 48
10, 71540, Control_c, 4, 11, 50
10, 71560, Control_c, 4, 11, 52
10, 71580, Control_c, 4, 11, 55
10, 71600, Control_c, 4, 11, 57
10, 71620, Control_c, 4, 11, 59
10, 71640, Control_c, 4, 11, 61
10, 71660, Control_c, 4, 11, 63
10, 71680, Control_c, 4, 11, 66
10, 71700, Control_c, 4, 11, 68
10, 71720, Control_c, 4, 11, 70
10, 71740, Control_c, 4, 11, 72
10, 71751, Note_on_c, 4, 63, 0
10, 71751, Note_on_c, 4, 51, 0
10, 71760, Control_c, 4, 11, 74
10, 71760, Note_on_c, 4, 68, 84
10, 71780, Control_c, 4, 11, 77
10, 71800, Control_c, 4, 11, 79
10, 71820, Control_c, 4, 11, 81
10, 71840, Control_c, 4, 11, 83
10, 71860, Control_c, 4, 11, 85
10, 71880, Control_c, 4, 11, 88
10, 71900, Control_c, 4, 11, 90
10, 71920, Control_c, 4, 11, 92
10, 71940, Control_c, 4, 11, 94
10, 71960, Control_c, 4, 11, 96
10, 71980, Control_c, 4, 11, 98
10, 72000, Control_c, 4, 11, 101
10, 72020, Control_c, 4, 11, 103
10, 72040, Control_c, 4, 11, 105
10, 72060, Control_c, 4, 11, 107
10, 72080, Control_c, 4, 11, 109
10, 72100, Control_c, 4, 11, 112
10, 72120, Control_c, 4, 11, 114
10, 72140, Control_c, 4, 11, 116
10, 72160, Control_c, 4, 11, 118
10, 72180, Control_c, 4, 11, 120
10, 72200, Control_c, 4, 11, 123
10, 72220, Control_c, 4, 11, 127
10, 72231, Note_on_c, 4, 68, 0
10, 72240, Note_on_c, 4, 46, 84
10, 72240, Note_on_c, 4, 58, 84
10, 72599, Note_on_c, 4, 46, 0
10, 72599, Note_on_c, 4, 58, 0
10, 73200, Control_c, 4, 11, 48
10, 73440, Note_on_c, 4, 65, 84
10, 73440, Note_on_c, 4, 58, 84
10, 73440, Control_c, 4, 11, 48
10, 73460, Control_c, 4, 11, 51
10, 73480, Control_c, 4, 11, 55
10, 73500, Control_c, 4, 11, 58
10, 73520, Control_c, 4, 11, 61
10, 73540, Control_c, 4, 11, 64
10, 73560, Control_c, 4, 11, 68
10, 73580, Control_c, 4, 11, 71
10, 73600, Control_c, 4, 11, 74
10, 73620, Control_c, 4, 11, 78
10, 73640, Control_c, 4, 11, 81
10, 73660, Control_c, 4, 11, 84
10, 73680, Control_c, 4, 11, 88
10, 73700, Control_c, 4, 11, 91
10, 73720, Control_c, 4, 11, 94
10, 73740, Control_c, 4, 11, 97
10, 73760, Control_c, 4, 11, 101
10, 73780, Control_c, 4, 11, 104
10, 73800, Control_c, 4, 11, 107
10, 73820, Control_c, 4, 11, 111
10, 73840, Control_c, 4, 11, 114
10, 73860, Control_c, 4, 11, 117
10, 73880, Control_c, 4, 11, 120
10, 73900, Control_c, 4, 11, 127
10, 73911, Note_on_c, 4, 65, 0
10, 73911, Note_on_c, 4, 58, 0
10, 73920, Note_on_c, 4, 58, 84
10, 73920, Note_on_c, 4, 65, 84
10, 74039, Note_on_c, 4, 58, 0
10, 74039, Note_on_c, 4, 65, 0
10, 74160, Note_on_c, 4, 55, 84
10, 74160, Note_on_c, 4, 63, 84
10, 74279, Note_on_c, 4, 55, 0
10, 74279, Note_on_c, 4, 63, 0
10, 74279, End_track
11, 0, Start_track
11, 0, Title_t, "Trumpet in E-flat"
11, 0, MIDI_port, 0
11, 0, Program_c, 5, 56
11, 0, Control_c, 5, 7, 96
11, 0, Control_c, 5, 10, 60
11, 0, Control_c, 5, 11, 127
11, 5760, Note_on_c, 5, 75, 76
11, 5760, Note_on_c, 5, 63, 76
11, 5804, Note_on_c, 5, 75, 0
11, 5804, Note_on_c, 5, 63, 0
11, 5850, Note_on_c, 5, 58, 76
11, 5850, Note_on_c, 5, 70, 76
11, 5871, Note_on_c, 5, 58, 0
11, 5871, Note_on_c, 5, 70, 0
11, 5880, Note_on_c, 5, 63, 76
11, 5880, Note_on_c, 5, 75, 76
11, 5924, Note_on_c, 5, 63, 0
11, 5924, Note_on_c, 5, 75, 0
11, 5970, Note_on_c, 5, 58, 76
11, 5970, Note_on_c, 5, 70, 76
11, 5991, Note_on_c, 5, 58, 0
11, 5991, Note_on_c, 5, 70, 0
11, 6000, Note_on_c, 5, 63, 76
11, 6000, Note_on_c, 5, 75, 76
11, 6044, Note_on_c, 5, 63, 0
11, 6044, Note_on_c, 5, 75, 0
11, 6090, Note_on_c, 5, 70, 76
11, 6090, Note_on_c, 5, 58, 76
11, 6111, Note_on_c, 5, 70, 0
11, 6111, Note_on_c, 5, 58, 0
11, 6120, Note_on_c, 5, 75, 76
11, 6120, Note_on_c, 5, 63, 76
11, 6164, Note_on_c, 5, 75, 0
11, 6164, Note_on_c, 5, 63, 0
11, 6210, Note_on_c, 5, 70, 76
11, 6210, Note_on_c, 5, 58, 76
11, 6231, Note_on_c, 5, 70, 0
11, 6231, Note_on_c, 5, 58, 0
11, 6240, Note_on_c, 5, 75, 76
11, 6240, Note_on_c, 5, 63, 76
11, 6284, Note_on_c, 5, 75, 0
11, 6284, Note_on_c, 5, 63, 0
11, 6330, Note_on_c, 5, 58, 76
11, 6330, Note_on_c, 5, 70, 76
11, 6351, Note_on_c, 5, 58, 0
11, 6351, Note_on_c, 5, 70, 0
11, 6360, Note_on_c, 5, 75, 76
11, 6360, Note_on_c, 5, 63, 76
11, 6404, Note_on_c, 5, 75, 0
11, 6404, Note_on_c, 5, 63, 0
11, 6450, Note_on_c, 5, 58, 76
11, 6450, Note_on_c, 5, 70, 76
11, 6471, Note_on_c, 5, 58, 0
11, 6471, Note_on_c, 5, 70, 0
11, 6480, Note_on_c, 5, 75, 52
11, 6480, Note_on_c, 5, 63, 52
11, 6599, Note_on_c, 5, 75, 0
11, 6599, Note_on_c, 5, 63, 0
11, 11520, Note_on_c, 5, 63, 76
11, 11639, Note_on_c, 5, 63, 0
11, 11760, Note_on_c, 5, 63, 76
11, 11879, Note_on_c, 5, 63, 0
11, 12000, Note_on_c, 5, 63, 76
11, 12119, Note_on_c, 5, 63, 0
11, 12960, Note_on_c, 5, 63, 76
11, 13079, Note_on_c, 5, 63, 0
11, 13200, Note_on_c, 5, 63, 76
11, 13319, Note_on_c, 5, 63, 0
11, 13440, Note_on_c, 5, 63, 76
11, 13559, Note_on_c, 5, 63, 0
11, 14400, Note_on_c, 5, 63, 76
11, 14519, Note_on_c, 5, 63, 0
11, 14640, Note_on_c, 5, 63, 76
11, 14759, Note_on_c, 5, 63, 0
11, 14880, Note_on_c, 5, 63, 76
11, 14999, Note_on_c, 5, 63, 0
11, 28080, Note_on_c, 5, 58, 84
11, 28080, Note_on_c, 5, 70, 84
11, 28139, Note_on_c, 5, 58, 0
11, 28139, Note_on_c, 5, 70, 0
11, 28170, Note_on_c, 5, 70, 84
11, 28170, Note_on_c, 5, 58, 84
11, 28195, Note_on_c, 5, 70, 0
11, 28195, Note_on_c, 5, 58, 0
11, 28200, Note_on_c, 5, 70, 84
11, 28200, Note_on_c, 5, 58, 84
11, 28259, Note_on_c, 5, 70, 0
11, 28259, Note_on_c, 5, 58, 0
11, 28290, Note_on_c, 5, 58, 84
11, 28290, Note_on_c, 5, 70, 84
11, 28315, Note_on_c, 5, 58, 0
11, 28315, Note_on_c, 5, 70, 0
11, 28320, Note_on_c, 5, 70, 84
11, 28320, Note_on_c, 5, 58, 84
11, 28379, Note_on_c, 5, 70, 0
11, 28379, Note_on_c, 5, 58, 0
11, 28410, Note_on_c, 5, 58, 84
11, 28410, Note_on_c, 5, 70, 84
11, 28435, Note_on_c, 5, 58, 0
11, 28435, Note_on_c, 5, 70, 0
11, 28440, Note_on_c, 5, 58, 84
11, 28440, Note_on_c, 5, 70, 84
11, 28499, Note_on_c, 5, 58, 0
11, 28499, Note_on_c, 5, 70, 0
11, 28530, Note_on_c, 5, 58, 84
11, 28530, Note_on_c, 5, 70, 84
11, 28555, Note_on_c, 5, 58, 0
11, 28555, Note_on_c, 5, 70, 0
11, 28560, Note_on_c, 5, 58, 84
11, 28560, Note_on_c, 5, 70, 84
11, 28619, Note_on_c, 5, 58, 0
11, 28619, Note_on_c, 5, 70, 0
11, 28650, Note_on_c, 5, 58, 84
11, 28650, Note_on_c, 5, 70, 84
11, 28675, Note_on_c, 5, 58, 0
11, 28675, Note_on_c, 5, 70, 0
11, 28680, Note_on_c, 5, 58, 84
11, 28680, Note_on_c, 5, 70, 84
11, 28739, Note_on_c, 5, 58, 0
11, 28739, Note_on_c, 5, 70, 0
11, 28770, Note_on_c, 5, 70, 84
11, 28770, Note_on_c, 5, 58, 84
11, 28795, Note_on_c, 5, 70, 0
11, 28795, Note_on_c, 5, 58, 0
11, 28800, Note_on_c, 5, 63, 84
11, 28919, Note_on_c, 5, 63, 0
11, 34560, Note_on_c, 5, 63, 76
11, 34560, Note_on_c, 5, 75, 76
11, 34604, Note_on_c, 5, 63, 0
11, 34604, Note_on_c, 5, 75, 0
11, 34650, Note_on_c, 5, 58, 76
11, 34650, Note_on_c, 5, 70, 76
11, 34671, Note_on_c, 5, 58, 0
11, 34671, Note_on_c, 5, 70, 0
11, 34680, Note_on_c, 5, 75, 76
11, 34680, Note_on_c, 5, 63, 76
11, 34724, Note_on_c, 5, 75, 0
11, 34724, Note_on_c, 5, 63, 0
11, 34770, Note_on_c, 5, 70, 76
11, 34770, Note_on_c, 5, 58, 76
11, 34791, Note_on_c, 5, 70, 0
11, 34791, Note_on_c, 5, 58, 0
11, 34800, Note_on_c, 5, 63, 76
11, 34800, Note_on_c, 5, 75, 76
11, 34844, Note_on_c, 5, 63, 0
11, 34844, Note_on_c, 5, 75, 0
11, 34890, Note_on_c, 5, 70, 76
11, 34890, Note_on_c, 5, 58, 76
11, 34911, Note_on_c, 5, 70, 0
11, 34911, Note_on_c, 5, 58, 0
11, 34920, Note_on_c, 5, 75, 76
11, 34920, Note_on_c, 5, 63, 76
11, 34964, Note_on_c, 5, 75, 0
11, 34964, Note_on_c, 5, 63, 0
11, 35010, Note_on_c, 5, 58, 76
11, 35010, Note_on_c, 5, 70, 76
11, 35031, Note_on_c, 5, 58, 0
11, 35031, Note_on_c, 5, 70, 0
11, 35040, Note_on_c, 5, 63, 76
11, 35040, Note_on_c, 5, 75, 76
11, 35084, Note_on_c, 5, 63, 0
11, 35084, Note_on_c, 5, 75, 0
11, 35130, Note_on_c, 5, 70, 76
11, 35130, Note_on_c, 5, 58, 76
11, 35151, Note_on_c, 5, 70, 0
11, 35151, Note_on_c, 5, 58, 0
11, 35160, Note_on_c, 5, 63, 76
11, 35160, Note_on_c, 5, 75, 76
11, 35204, Note_on_c, 5, 63, 0
11, 35204, Note_on_c, 5, 75, 0
11, 35250, Note_on_c, 5, 70, 76
11, 35250, Note_on_c, 5, 58, 76
11, 35271, Note_on_c, 5, 70, 0
11, 35271, Note_on_c, 5, 58, 0
11, 35280, Note_on_c, 5, 63, 84
11, 35280, Note_on_c, 5, 75, 84
11, 35511, Note_on_c, 5, 63, 0
11, 35511, Note_on_c, 5, 75, 0
11, 35520, Note_on_c, 5, 63, 92
11, 35520, Note_on_c, 5, 75, 92
11, 35744, Note_on_c, 5, 63, 0
11, 35744, Note_on_c, 5, 75, 0
11, 35760, Note_on_c, 5, 75, 92
11, 35760, Note_on_c, 5, 63, 92
11, 35984, Note_on_c, 5, 75, 0
11, 35984, Note_on_c, 5, 63, 0
11, 36000, Note_on_c, 5, 70, 92
11, 36000, Note_on_c, 5, 58, 92
11, 36119, Note_on_c, 5, 70, 0
11, 36119, Note_on_c, 5, 58, 0
11, 36240, Note_on_c, 5, 70, 92
11, 36240, Note_on_c, 5, 58, 92
11, 36359, Note_on_c, 5, 70, 0
11, 36359, Note_on_c, 5, 58, 0
11, 36480, Note_on_c, 5, 70, 92
11, 36480, Note_on_c, 5, 58, 92
11, 36599, Note_on_c, 5, 70, 0
11, 36599, Note_on_c, 5, 58, 0
11, 36720, Note_on_c, 5, 70, 92
11, 36720, Note_on_c, 5, 58, 92
11, 36839, Note_on_c, 5, 70, 0
11, 36839, Note_on_c, 5, 58, 0
11, 36960, Note_on_c, 5, 70, 92
11, 36960, Note_on_c, 5, 58, 92
11, 37079, Note_on_c, 5, 70, 0
11, 37079, Note_on_c, 5, 58, 0
11, 37200, Note_on_c, 5, 70, 92
11, 37200, Note_on_c, 5, 58, 92
11, 37319, Note_on_c, 5, 70, 0
11, 37319, Note_on_c, 5, 58, 0
11, 37440, Note_on_c, 5, 70, 92
11, 37440, Note_on_c, 5, 58, 92
11, 37559, Note_on_c, 5, 70, 0
11, 37559, Note_on_c, 5, 58, 0
11, 37680, Note_on_c, 5, 70, 92
11, 37680, Note_on_c, 5, 58, 92
11, 37799, Note_on_c, 5, 70, 0
11, 37799, Note_on_c, 5, 58, 0
11, 37920, Note_on_c, 5, 75, 92
11, 37920, Note_on_c, 5, 63, 92
11, 38039, Note_on_c, 5, 75, 0
11, 38039, Note_on_c, 5, 63, 0
11, 50760, Note_on_c, 5, 70, 52
11, 50760, Note_on_c, 5, 58, 52
11, 50871, Note_on_c, 5, 70, 0
11, 50871, Note_on_c, 5, 58, 0
11, 50880, Note_on_c, 5, 70, 60
11, 50880, Note_on_c, 5, 58, 60
11, 50991, Note_on_c, 5, 70, 0
11, 50991, Note_on_c, 5, 58, 0
11, 51000, Note_on_c, 5, 70, 68
11, 51000, Note_on_c, 5, 58, 68
11, 51111, Note_on_c, 5, 70, 0
11, 51111, Note_on_c, 5, 58, 0
11, 51120, Note_on_c, 5, 67, 76
11, 51120, Note_on_c, 5, 63, 76
11, 51239, Note_on_c, 5, 67, 0
11, 51239, Note_on_c, 5, 63, 0
11, 51360, Note_on_c, 5, 67, 76
11, 51360, Note_on_c, 5, 63, 76
11, 51479, Note_on_c, 5, 67, 0
11, 51479, Note_on_c, 5, 63, 0
11, 51600, Note_on_c, 5, 67, 76
11, 51600, Note_on_c, 5, 63, 76
11, 51719, Note_on_c, 5, 67, 0
11, 51719, Note_on_c, 5, 63, 0
11, 52560, Note_on_c, 5, 67, 76
11, 52560, Note_on_c, 5, 63, 76
11, 52679, Note_on_c, 5, 67, 0
11, 52679, Note_on_c, 5, 63, 0
11, 52800, Note_on_c, 5, 67, 76
11, 52800, Note_on_c, 5, 63, 76
11, 52919, Note_on_c, 5, 67, 0
11, 52919, Note_on_c, 5, 63, 0
11, 53040, Note_on_c, 5, 67, 76
11, 53040, Note_on_c, 5, 63, 76
11, 53159, Note_on_c, 5, 67, 0
11, 53159, Note_on_c, 5, 63, 0
11, 72240, Note_on_c, 5, 70, 84
11, 72240, Note_on_c, 5, 58, 84
11, 72599, Note_on_c, 5, 70, 0
11, 72599, Note_on_c, 5, 58, 0
11, 73920, Note_on_c, 5, 70, 84
11, 73920, Note_on_c, 5, 58, 84
11, 74039, Note_on_c, 5, 70, 0
11, 74039, Note_on_c, 5, 58, 0
11, 74160, Note_on_c, 5, 63, 84
11, 74279, Note_on_c, 5, 63, 0
11, 74279, End_track
12, 0, Start_track
12, 0, Title_t, "Timpani"
12, 0, MIDI_port, 0
12, 0, Program_c, 6, 47
12, 0, Control_c, 6, 7, 96
12, 0, Control_c, 6, 10, 25
12, 0, Control_c, 6, 11, 127
12, 5760, Note_on_c, 6, 51, 76
12, 5804, Note_on_c, 6, 51, 0
12, 5850, Note_on_c, 6, 46, 76
12, 5871, Note_on_c, 6, 46, 0
12, 5880, Note_on_c, 6, 51, 76
12, 5924, Note_on_c, 6, 51, 0
12, 5970, Note_on_c, 6, 46, 76
12, 5991, Note_on_c, 6, 46, 0
12, 6000, Note_on_c, 6, 51, 76
12, 6044, Note_on_c, 6, 51, 0
12, 6090, Note_on_c, 6, 46, 76
12, 6111, Note_on_c, 6, 46, 0
12, 6120, Note_on_c, 6, 51, 76
12, 6164, Note_on_c, 6, 51, 0
12, 6210, Note_on_c, 6, 46, 76
12, 6231, Note_on_c, 6, 46, 0
12, 6240, Note_on_c, 6, 51, 76
12, 6284, Note_on_c, 6, 51, 0
12, 6330, Note_on_c, 6, 46, 76
12, 6351, Note_on_c, 6, 46, 0
12, 6360, Note_on_c, 6, 51, 76
12, 6404, Note_on_c, 6, 51, 0
12, 6450, Note_on_c, 6, 46, 76
12, 6471, Note_on_c, 6, 46, 0
12, 6480, Note_on_c, 6, 51, 52
12, 6599, Note_on_c, 6, 51, 0
12, 11520, Note_on_c, 6, 51, 76
12, 11639, Note_on_c, 6, 51, 0
12, 11760, Note_on_c, 6, 51, 76
12, 11879, Note_on_c, 6, 51, 0
12, 12000, Note_on_c, 6, 51, 76
12, 12119, Note_on_c, 6, 51, 0
12, 12960, Note_on_c, 6, 51, 76
12, 13079, Note_on_c, 6, 51, 0
12, 13200, Note_on_c, 6, 51, 76
12, 13319, Note_on_c, 6, 51, 0
12, 13440, Note_on_c, 6, 51, 76
12, 13559, Note_on_c, 6, 51, 0
12, 14400, Note_on_c, 6, 51, 76
12, 14519, Note_on_c, 6, 51, 0
12, 14640, Note_on_c, 6, 51, 76
12, 14759, Note_on_c, 6, 51, 0
12, 14880, Note_on_c, 6, 51, 76
12, 14999, Note_on_c, 6, 51, 0
12, 28080, Note_on_c, 6, 46, 84
12, 28124, Note_on_c, 6, 46, 0
12, 28170, Note_on_c, 6, 46, 84
12, 28191, Note_on_c, 6, 46, 0
12, 28200, Note_on_c, 6, 46, 84
12, 28244, Note_on_c, 6, 46, 0
12, 28290, Note_on_c, 6, 46, 84
12, 28311, Note_on_c, 6, 46, 0
12, 28320, Note_on_c, 6, 46, 84
12, 28364, Note_on_c, 6, 46, 0
12, 28410, Note_on_c, 6, 46, 84
12, 28431, Note_on_c, 6, 46, 0
12, 28440, Note_on_c, 6, 46, 84
12, 28484, Note_on_c, 6, 46, 0
12, 28530, Note_on_c, 6, 46, 84
12, 28551, Note_on_c, 6, 46, 0
12, 28560, Note_on_c, 6, 46, 84
12, 28604, Note_on_c, 6, 46, 0
12, 28650, Note_on_c, 6, 46, 84
12, 28671, Note_on_c, 6, 46, 0
12, 28680, Note_on_c, 6, 46, 84
12, 28724, Note_on_c, 6, 46, 0
12, 28770, Note_on_c, 6, 46, 84
12, 28791, Note_on_c, 6, 46, 0
12, 28800, Note_on_c, 6, 51, 84
12, 28919, Note_on_c, 6, 51, 0
12, 34560, Note_on_c, 6, 51, 76
12, 34604, Note_on_c, 6, 51, 0
12, 34650, Note_on_c, 6, 46, 76
12, 34671, Note_on_c, 6, 46, 0
12, 34680, Note_on_c, 6, 51, 76
12, 34724, Note_on_c, 6, 51, 0
12, 34770, Note_on_c, 6, 46, 76
12, 34791, Note_on_c, 6, 46, 0
12, 34800, Note_on_c, 6, 51, 76
12, 34844, Note_on_c, 6, 51, 0
12, 34890, Note_on_c, 6, 46, 76
12, 34911, Note_on_c, 6, 46, 0
12, 34920, Note_on_c, 6, 51, 76
12, 34964, Note_on_c, 6, 51, 0
12, 35010, Note_on_c, 6, 46, 76
12, 35031, Note_on_c, 6, 46, 0
12, 35040, Note_on_c, 6, 51, 76
12, 35084, Note_on_c, 6, 51, 0
12, 35130, Note_on_c, 6, 46, 76
12, 35151, Note_on_c, 6, 46, 0
12, 35160, Note_on_c, 6, 51, 76
12, 35204, Note_on_c, 6, 51, 0
12, 35250, Note_on_c, 6, 46, 76
12, 35271, Note_on_c, 6, 46, 0
12, 35280, Note_on_c, 6, 51, 84
12, 35519, Note_on_c, 6, 51, 0
12, 35520, Note_on_c, 6, 51, 92
12, 35759, Note_on_c, 6, 51, 0
12, 35760, Note_on_c, 6, 51, 92
12, 35999, Note_on_c, 6, 51, 0
12, 36000, Note_on_c, 6, 46, 92
12, 36119, Note_on_c, 6, 46, 0
12, 36240, Note_on_c, 6, 46, 92
12, 36359, Note_on_c, 6, 46, 0
12, 36480, Note_on_c, 6, 46, 92
12, 36599, Note_on_c, 6, 46, 0
12, 36720, Note_on_c, 6, 46, 92
12, 36839, Note_on_c, 6, 46, 0
12, 36960, Note_on_c, 6, 46, 92
12, 37079, Note_on_c, 6, 46, 0
12, 37200, Note_on_c, 6, 46, 92
12, 37319, Note_on_c, 6, 46, 0
12, 37440, Note_on_c, 6, 46, 92
12, 37559, Note_on_c, 6, 46, 0
12, 37680, Note_on_c, 6, 46, 92
12, 37799, Note_on_c, 6, 46, 0
12, 37920, Note_on_c, 6, 51, 92
12, 38039, Note_on_c, 6, 51, 0
12, 45360, Note_on_c, 6, 51, 44
12, 45419, Note_on_c, 6, 51, 0
12, 45450, Note_on_c, 6, 46, 44
12, 45479, Note_on_c, 6, 46, 0
12, 45480, Note_on_c, 6, 51, 44
12, 45539, Note_on_c, 6, 51, 0
12, 45570, Note_on_c, 6, 46, 44
12, 45599, Note_on_c, 6, 46, 0
12, 45600, Note_on_c, 6, 51, 44
12, 45659, Note_on_c, 6, 51, 0
12, 45690, Note_on_c, 6, 46, 44
12, 45719, Note_on_c, 6, 46, 0
12, 45720, Note_on_c, 6, 51, 44
12, 45779, Note_on_c, 6, 51, 0
12, 45810, Note_on_c, 6, 46, 44
12, 45839, Note_on_c, 6, 46, 0
12, 45840, Note_on_c, 6, 51, 44
12, 45899, Note_on_c, 6, 51, 0
12, 45930, Note_on_c, 6, 46, 44
12, 45959, Note_on_c, 6, 46, 0
12, 45960, Note_on_c, 6, 51, 44
12, 46019, Note_on_c, 6, 51, 0
12, 46050, Note_on_c, 6, 46, 44
12, 46079, Note_on_c, 6, 46, 0
12, 46080, Note_on_c, 6, 51, 44
12, 46199, Note_on_c, 6, 51, 0
12, 50400, Note_on_c, 6, 46, 52
12, 50519, Note_on_c, 6, 46, 0
12, 50520, Note_on_c, 6, 46, 56
12, 50639, Note_on_c, 6, 46, 0
12, 50640, Note_on_c, 6, 46, 60
12, 50759, Note_on_c, 6, 46, 0
12, 50760, Note_on_c, 6, 46, 64
12, 50879, Note_on_c, 6, 46, 0
12, 50880, Note_on_c, 6, 46, 68
12, 50999, Note_on_c, 6, 46, 0
12, 51000, Note_on_c, 6, 46, 72
12, 51119, Note_on_c, 6, 46, 0
12, 51120, Note_on_c, 6, 51, 76
12, 51239, Note_on_c, 6, 51, 0
12, 51360, Note_on_c, 6, 51, 76
12, 51479, Note_on_c, 6, 51, 0
12, 51600, Note_on_c, 6, 51, 76
12, 51719, Note_on_c, 6, 51, 0
12, 52560, Note_on_c, 6, 51, 76
12, 52679, Note_on_c, 6, 51, 0
12, 52800, Note_on_c, 6, 51, 76
12, 52919, Note_on_c, 6, 51, 0
12, 53040, Note_on_c, 6, 51, 76
12, 53159, Note_on_c, 6, 51, 0
12, 72240, Note_on_c, 6, 46, 84
12, 72269, Note_on_c, 6, 46, 0
12, 72270, Note_on_c, 6, 46, 84
12, 72299, Note_on_c, 6, 46, 0
12, 72300, Note_on_c, 6, 46, 84
12, 72329, Note_on_c, 6, 46, 0
12, 72330, Note_on_c, 6, 46, 84
12, 72359, Note_on_c, 6, 46, 0
12, 72360, Note_on_c, 6, 46, 84
12, 72389, Note_on_c, 6, 46, 0
12, 72390, Note_on_c, 6, 46, 84
12, 72419, Note_on_c, 6, 46, 0
12, 72420, Note_on_c, 6, 46, 84
12, 72449, Note_on_c, 6, 46, 0
12, 72450, Note_on_c, 6, 46, 84
12, 72479, Note_on_c, 6, 46, 0
12, 72480, Note_on_c, 6, 46, 84
12, 72599, Note_on_c, 6, 46, 0
12, 72840, Note_on_c, 6, 51, 44
12, 72899, Note_on_c, 6, 51, 0
12, 72930, Note_on_c, 6, 46, 44
12, 72959, Note_on_c, 6, 46, 0
12, 72960, Note_on_c, 6, 51, 44
12, 73019, Note_on_c, 6, 51, 0
12, 73050, Note_on_c, 6, 46, 44
12, 73079, Note_on_c, 6, 46, 0
12, 73080, Note_on_c, 6, 51, 44
12, 73139, Note_on_c, 6, 51, 0
12, 73170, Note_on_c, 6, 46, 44
12, 73199, Note_on_c, 6, 46, 0
12, 73200, Note_on_c, 6, 51, 44
12, 73259, Note_on_c, 6, 51, 0
12, 73290, Note_on_c, 6, 46, 44
12, 73319, Note_on_c, 6, 46, 0
12, 73320, Note_on_c, 6, 51, 44
12, 73379, Note_on_c, 6, 51, 0
12, 73410, Note_on_c, 6, 46, 44
12, 73439, Note_on_c, 6, 46, 0
12, 73440, Note_on_c, 6, 46, 44
12, 73454, Note_on_c, 6, 46, 0
12, 73455, Note_on_c, 6, 46, 45
12, 73469, Note_on_c, 6, 46, 0
12, 73470, Note_on_c, 6, 46, 46
12, 73484, Note_on_c, 6, 46, 0
12, 73485, Note_on_c, 6, 46, 47
12, 73499, Note_on_c, 6, 46, 0
12, 73500, Note_on_c, 6, 46, 49
12, 73514, Note_on_c, 6, 46, 0
12, 73515, Note_on_c, 6, 46, 50
12, 73529, Note_on_c, 6, 46, 0
12, 73530, Note_on_c, 6, 46, 51
12, 73544, Note_on_c, 6, 46, 0
12, 73545, Note_on_c, 6, 46, 52
12, 73559, Note_on_c, 6, 46, 0
12, 73560, Note_on_c, 6, 46, 54
12, 73574, Note_on_c, 6, 46, 0
12, 73575, Note_on_c, 6, 46, 55
12, 73589, Note_on_c, 6, 46, 0
12, 73590, Note_on_c, 6, 46, 56
12, 73604, Note_on_c, 6, 46, 0
12, 73605, Note_on_c, 6, 46, 57
12, 73619, Note_on_c, 6, 46, 0
12, 73620, Note_on_c, 6, 46, 59
12, 73634, Note_on_c, 6, 46, 0
12, 73635, Note_on_c, 6, 46, 60
12, 73649, Note_on_c, 6, 46, 0
12, 73650, Note_on_c, 6, 46, 61
12, 73664, Note_on_c, 6, 46, 0
12, 73665, Note_on_c, 6, 46, 62
12, 73679, Note_on_c, 6, 46, 0
12, 73680, Note_on_c, 6, 46, 64
12, 73694, Note_on_c, 6, 46, 0
12, 73695, Note_on_c, 6, 46, 65
12, 73709, Note_on_c, 6, 46, 0
12, 73710, Note_on_c, 6, 46, 66
12, 73724, Note_on_c, 6, 46, 0
12, 73725, Note_on_c, 6, 46, 67
12, 73739, Note_on_c, 6, 46, 0
12, 73740, Note_on_c, 6, 46, 69
12, 73754, Note_on_c, 6, 46, 0
12, 73755, Note_on_c, 6, 46, 70
12, 73769, Note_on_c, 6, 46, 0
12, 73770, Note_on_c, 6, 46, 71
12, 73784, Note_on_c, 6, 46, 0
12, 73785, Note_on_c, 6, 46, 72
12, 73799, Note_on_c, 6, 46, 0
12, 73800, Note_on_c, 6, 46, 74
12, 73814, Note_on_c, 6, 46, 0
12, 73815, Note_on_c, 6, 46, 75
12, 73829, Note_on_c, 6, 46, 0
12, 73830, Note_on_c, 6, 46, 76
12, 73844, Note_on_c, 6, 46, 0
12, 73845, Note_on_c, 6, 46, 77
12, 73859, Note_on_c, 6, 46, 0
12, 73860, Note_on_c, 6, 46, 79
12, 73874, Note_on_c, 6, 46, 0
12, 73875, Note_on_c, 6, 46, 80
12, 73889, Note_on_c, 6, 46, 0
12, 73890, Note_on_c, 6, 46, 81
12, 73904, Note_on_c, 6, 46, 0
12, 73905, Note_on_c, 6, 46, 82
12, 73919, Note_on_c, 6, 46, 0
12, 73920, Note_on_c, 6, 46, 84
12, 74039, Note_on_c, 6, 46, 0
12, 74160, Note_on_c, 6, 51, 84
12, 74279, Note_on_c, 6, 51, 0
12, 74279, End_track
13, 0, Start_track
13, 0, Title_t, "Violin I"
13, 0, MIDI_port, 0
13, 0, Program_c, 11, 48
13, 0, Control_c, 11, 7, 96
13, 0, Control_c, 11, 10, 48
13, 0, Control_c, 11, 11, 127
13, 0, Note_on_c, 11, 63, 52
13, 0, Note_on_c, 11, 55, 52
13, 119, Note_on_c, 11, 63, 0
13, 119, Note_on_c, 11, 55, 0
13, 720, Note_on_c, 11, 75, 52
13, 959, Note_on_c, 11, 75, 0
13, 960, Note_on_c, 11, 74, 52
13, 1199, Note_on_c, 11, 74, 0
13, 1200, Note_on_c, 11, 72, 52
13, 1431, Note_on_c, 11, 72, 0
13, 1440, Note_on_c, 11, 70, 52
13, 1799, Note_on_c, 11, 70, 0
13, 1800, Note_on_c, 11, 68, 52
13, 1919, Note_on_c, 11, 68, 0
13, 1920, Note_on_c, 11, 67, 52
13, 2039, Note_on_c, 11, 67, 0
13, 2040, Note_on_c, 11, 68, 52
13, 2129, Note_on_c, 11, 68, 0
13, 2130, Note_on_c, 11, 65, 52
13, 2155, Note_on_c, 11, 65, 0
13, 2160, Note_on_c, 11, 63, 52
13, 2399, Note_on_c, 11, 63, 0
13, 2400, Note_on_c, 11, 62, 52
13, 2519, Note_on_c, 11, 62, 0
13, 2520, Note_on_c, 11, 63, 52
13, 2639, Note_on_c, 11, 63, 0
13, 2640, Note_on_c, 11, 65, 52
13, 2759, Note_on_c, 11, 65, 0
13, 2760, Note_on_c, 11, 67, 52
13, 2819, Note_on_c, 11, 67, 0
13, 2820, Note_on_c, 11, 69, 52
13, 2875, Note_on_c, 11, 69, 0
13, 2878, Control_c, 11, 11, 96
13, 2880, Control_c, 11, 11, 96
13, 2880, Note_on_c, 11, 69, 68
13, 2900, Control_c, 11, 11, 97
13, 2920, Control_c, 11, 11, 99
13, 2940, Control_c, 11, 11, 100
13, 2960, Control_c, 11, 11, 101
13, 2980, Control_c, 11, 11, 102
13, 3000, Control_c, 11, 11, 104
13, 3020, Control_c, 11, 11, 105
13, 3040, Control_c, 11, 11, 106
13, 3060, Control_c, 11, 11, 108
13, 3080, Control_c, 11, 11, 109
13, 3100, Control_c, 11, 11, 110
13, 3119, Note_on_c, 11, 69, 0
13, 3120, Control_c, 11, 11, 112
13, 3120, Note_on_c, 11, 70, 68
13, 3140, Control_c, 11, 11, 113
13, 3160, Control_c, 11, 11, 114
13, 3180, Control_c, 11, 11, 115
13, 3200, Control_c, 11, 11, 117
13, 3220, Control_c, 11, 11, 118
13, 3240, Control_c, 11, 11, 119
13, 3260, Control_c, 11, 11, 121
13, 3280, Control_c, 11, 11, 122
13, 3300, Control_c, 11, 11, 123
13, 3320, Control_c, 11, 11, 124
13, 3340, Control_c, 11, 11, 127
13, 3351, Note_on_c, 11, 70, 0
13, 3360, Note_on_c, 11, 71, 76
13, 3569, Note_on_c, 11, 71, 0
13, 3570, Note_on_c, 11, 72, 68
13, 3595, Note_on_c, 11, 72, 0
13, 3600, Note_on_c, 11, 72, 52
13, 3719, Note_on_c, 11, 72, 0
13, 3720, Note_on_c, 11, 65, 52
13, 4079, Note_on_c, 11, 65, 0
13, 4080, Note_on_c, 11, 65, 52
13, 4135, Note_on_c, 11, 65, 0
13, 4140, Note_on_c, 11, 65, 52
13, 4199, Note_on_c, 11, 65, 0
13, 4200, Note_on_c, 11, 67, 52
13, 4259, Note_on_c, 11, 67, 0
13, 4260, Note_on_c, 11, 68, 52
13, 4315, Note_on_c, 11, 68, 0
13, 4320, Note_on_c, 11, 68, 52
13, 4439, Note_on_c, 11, 68, 0
13, 4440, Note_on_c, 11, 62, 52
13, 4679, Note_on_c, 11, 62, 0
13, 4680, Note_on_c, 11, 63, 52
13, 4799, Note_on_c, 11, 63, 0
13, 4800, Note_on_c, 11, 65, 52
13, 4859, Note_on_c, 11, 65, 0
13, 4860, Note_on_c, 11, 67, 52
13, 4919, Note_on_c, 11, 67, 0
13, 4920, Note_on_c, 11, 68, 52
13, 4979, Note_on_c, 11, 68, 0
13, 4980, Note_on_c, 11, 72, 52
13, 5035, Note_on_c, 11, 72, 0
13, 5038, Control_c, 11, 11, 80
13, 5040, Note_on_c, 11, 72, 76
13, 5040, Control_c, 11, 11, 80
13, 5060, Control_c, 11, 11, 81
13, 5080, Control_c, 11, 11, 83
13, 5100, Control_c, 11, 11, 84
13, 5120, Control_c, 11, 11, 85
13, 5140, Control_c, 11, 11, 87
13, 5159, Note_on_c, 11, 72, 0
13, 5160, Control_c, 11, 11, 88
13, 5160, Note_on_c, 11, 70, 76
13, 5180, Control_c, 11, 11, 89
13, 5200, Control_c, 11, 11, 90
13, 5220, Control_c, 11, 11, 92
13, 5240, Control_c, 11, 11, 93
13, 5260, Control_c, 11, 11, 94
13, 5280, Control_c, 11, 11, 96
13, 5300, Control_c, 11, 11, 97
13, 5320, Control_c, 11, 11, 98
13, 5340, Control_c, 11, 11, 100
13, 5360, Control_c, 11, 11, 101
13, 5380, Control_c, 11, 11, 102
13, 5391, Note_on_c, 11, 70, 0
13, 5400, Note_on_c, 11, 72, 76
13, 5400, Control_c, 11, 11, 104
13, 5420, Control_c, 11, 11, 105
13, 5440, Control_c, 11, 11, 106
13, 5460, Control_c, 11, 11, 107
13, 5480, Control_c, 11, 11, 109
13, 5489, Note_on_c, 11, 72, 0
13, 5490, Note_on_c, 11, 70, 76
13, 5500, Control_c, 11, 11, 110
13, 5515, Note_on_c, 11, 70, 0
13, 5520, Control_c, 11, 11, 111
13, 5520, Note_on_c, 11, 70, 76
13, 5540, Control_c, 11, 11, 113
13, 5560, Control_c, 11, 11, 114
13, 5580, Control_c, 11, 11, 115
13, 5600, Control_c, 11, 11, 117
13, 5620, Control_c, 11, 11, 118
13, 5639, Note_on_c, 11, 70, 0
13, 5640, Control_c, 11, 11, 119
13, 5640, Note_on_c, 11, 72, 76
13, 5660, Control_c, 11, 11, 120
13, 5680, Control_c, 11, 11, 122
13, 5700, Control_c, 11, 11, 123
13, 5720, Control_c, 11, 11, 124
13, 5729, Note_on_c, 11, 72, 0
13, 5730, Note_on_c, 11, 70, 76
13, 5740, Control_c, 11, 11, 127
13, 5755, Note_on_c, 11, 70, 0
13, 5760, Note_on_c, 11, 70, 76
13, 5879, Note_on_c, 11, 70, 0
13, 6090, Note_on_c, 11, 70, 76
13, 6111, Note_on_c, 11, 70, 0
13, 6120, Note_on_c, 11, 75, 76
13, 6164, Note_on_c, 11, 75, 0
13, 6210, Note_on_c, 11, 70, 76
13, 6231, Note_on_c, 11, 70, 0
13, 6240, Note_on_c, 11, 75, 76
13, 6284, Note_on_c, 11, 75, 0
13, 6330, Note_on_c, 11, 70, 76
13, 6351, Note_on_c, 11, 70, 0
13, 6360, Note_on_c, 11, 75, 76
13, 6404, Note_on_c, 11, 75, 0
13, 6450, Note_on_c, 11, 70, 76
13, 6471, Note_on_c, 11, 70, 0
13, 6480, Note_on_c, 11, 75, 52
13, 6524, Note_on_c, 11, 75, 0
13, 6570, Note_on_c, 11, 70, 52
13, 6591, Note_on_c, 11, 70, 0
13, 6600, Note_on_c, 11, 75, 52
13, 6644, Note_on_c, 11, 75, 0
13, 6660, Note_on_c, 11, 75, 52
13, 6704, Note_on_c, 11, 75, 0
13, 6810, Note_on_c, 11, 70, 52
13, 6831, Note_on_c, 11, 70, 0
13, 6840, Note_on_c, 11, 74, 52
13, 6884, Note_on_c, 11, 74, 0
13, 6900, Note_on_c, 11, 74, 52
13, 6944, Note_on_c, 11, 74, 0
13, 7050, Note_on_c, 11, 68, 52
13, 7079, Note_on_c, 11, 68, 0
13, 7080, Note_on_c, 11, 72, 52
13, 7124, Note_on_c, 11, 72, 0
13, 7140, Note_on_c, 11, 72, 52
13, 7184, Note_on_c, 11, 72, 0
13, 7290, Note_on_c, 11, 65, 52
13, 7311, Note_on_c, 11, 65, 0
13, 7320, Note_on_c, 11, 70, 52
13, 7364, Note_on_c, 11, 70, 0
13, 7380, Note_on_c, 11, 70, 52
13, 7424, Note_on_c, 11, 70, 0
13, 7530, Note_on_c, 11, 65, 52
13, 7551, Note_on_c, 11, 65, 0
13, 7560, Note_on_c, 11, 68, 52
13, 7604, Note_on_c, 11, 68, 0
13, 7620, Note_on_c, 11, 68, 52
13, 7664, Note_on_c, 11, 68, 0
13, 7770, Note_on_c, 11, 67, 52
13, 7791, Note_on_c, 11, 67, 0
13, 7800, Note_on_c, 11, 60, 52
13, 7844, Note_on_c, 11, 60, 0
13, 7860, Note_on_c, 11, 65, 52
13, 7904, Note_on_c, 11, 65, 0
13, 8010, Note_on_c, 11, 58, 52
13, 8031, Note_on_c, 11, 58, 0
13, 8040, Note_on_c, 11, 63, 52
13, 8095, Note_on_c, 11, 63, 0
13, 8100, Note_on_c, 11, 63, 52
13, 8159, Note_on_c, 11, 63, 0
13, 8250, Note_on_c, 11, 58, 52
13, 8271, Note_on_c, 11, 58, 0
13, 8280, Note_on_c, 11, 63, 52
13, 8335, Note_on_c, 11, 63, 0
13, 8340, Note_on_c, 11, 63, 52
13, 8399, Note_on_c, 11, 63, 0
13, 8490, Note_on_c, 11, 65, 52
13, 8511, Note_on_c, 11, 65, 0
13, 8520, Note_on_c, 11, 67, 52
13, 8575, Note_on_c, 11, 67, 0
13, 8580, Note_on_c, 11, 69, 52
13, 8639, Note_on_c, 11, 69, 0
13, 8730, Note_on_c, 11, 63, 55
13, 8751, Note_on_c, 11, 63, 0
13, 8760, Note_on_c, 11, 69, 56
13, 8815, Note_on_c, 11, 69, 0
13, 8820, Note_on_c, 11, 69, 58
13, 8879, Note_on_c, 11, 69, 0
13, 8970, Note_on_c, 11, 62, 63
13, 8991, Note_on_c, 11, 62, 0
13, 9000, Note_on_c, 11, 70, 64
13, 9055, Note_on_c, 11, 70, 0
13, 9060, Note_on_c, 11, 70, 66
13, 9119, Note_on_c, 11, 70, 0
13, 9210, Note_on_c, 11, 62, 76
13, 9235, Note_on_c, 11, 62, 0
13, 9240, Note_on_c, 11, 71, 68
13, 9329, Note_on_c, 11, 71, 0
13, 9330, Note_on_c, 11, 72, 68
13, 9355, Note_on_c, 11, 72, 0
13, 9360, Note_on_c, 11, 72, 52
13, 9404, Note_on_c, 11, 72, 0
13, 9450, Note_on_c, 11, 60, 52
13, 9471, Note_on_c, 11, 60, 0
13, 9480, Note_on_c, 11, 65, 52
13, 9524, Note_on_c, 11, 65, 0
13, 9570, Note_on_c, 11, 60, 52
13, 9591, Note_on_c, 11, 60, 0
13, 9600, Note_on_c, 11, 65, 52
13, 9644, Note_on_c, 11, 65, 0
13, 9690, Note_on_c, 11, 60, 52
13, 9711, Note_on_c, 11, 60, 0
13, 9720, Note_on_c, 11, 65, 52
13, 9764, Note_on_c, 11, 65, 0
13, 9810, Note_on_c, 11, 60, 52
13, 9831, Note_on_c, 11, 60, 0
13, 9840, Note_on_c, 11, 65, 52
13, 9959, Note_on_c, 11, 65, 0
13, 10170, Note_on_c, 11, 56, 52
13, 10195, Note_on_c, 11, 56, 0
13, 10200, Note_on_c, 11, 62, 52
13, 10259, Note_on_c, 11, 62, 0
13, 10290, Note_on_c, 11, 56, 52
13, 10315, Note_on_c, 11, 56, 0
13, 10320, Note_on_c, 11, 62, 52
13, 10379, Note_on_c, 11, 62, 0
13, 10410, Note_on_c, 11, 56, 52
13, 10435, Note_on_c, 11, 56, 0
13, 10440, Note_on_c, 11, 63, 52
13, 10499, Note_on_c, 11, 63, 0
13, 10530, Note_on_c, 11, 55, 52
13, 10555, Note_on_c, 11, 55, 0
13, 10560, Note_on_c, 11, 65, 52
13, 10619, Note_on_c, 11, 65, 0
13, 10650, Note_on_c, 11, 60, 52
13, 10675, Note_on_c, 11, 60, 0
13, 10680, Note_on_c, 11, 72, 52
13, 10739, Note_on_c, 11, 72, 0
13, 10770, Note_on_c, 11, 68, 52
13, 10795, Note_on_c, 11, 68, 0
13, 10890, Note_on_c, 11, 67, 55
13, 10915, Note_on_c, 11, 67, 0
13, 10920, Note_on_c, 11, 70, 56
13, 10975, Note_on_c, 11, 70, 0
13, 10980, Note_on_c, 11, 70, 58
13, 11039, Note_on_c, 11, 70, 0
13, 11130, Note_on_c, 11, 67, 63
13, 11155, Note_on_c, 11, 67, 0
13, 11160, Note_on_c, 11, 70, 64
13, 11215, Note_on_c, 11, 70, 0
13, 11220, Note_on_c, 11, 70, 66
13, 11279, Note_on_c, 11, 70, 0
13, 11370, Note_on_c, 11, 68, 71
13, 11395, Note_on_c, 11, 68, 0
13, 11400, Note_on_c, 11, 70, 72
13, 11455, Note_on_c, 11, 70, 0
13, 11460, Note_on_c, 11, 70, 74
13, 11519, Note_on_c, 11, 70, 0
13, 11520, Note_on_c, 11, 55, 76
13, 11520, Note_on_c, 11, 70, 76
13, 11520, Note_on_c, 11, 63, 76
13, 11639, Note_on_c, 11, 55, 0
13, 11639, Note_on_c, 11, 70, 0
13, 11639, Note_on_c, 11, 63, 0
13, 12030, Note_on_c, 11, 70, 76
13, 12059, Note_on_c, 11, 70, 0
13, 12060, Note_on_c, 11, 67, 76
13, 12089, Note_on_c, 11, 67, 0
13, 12090, Note_on_c, 11, 70, 76
13, 12119, Note_on_c, 11, 70, 0
13, 12120, Note_on_c, 11, 75, 84
13, 12149, Note_on_c, 11, 75, 0
13, 12150, Note_on_c, 11, 79, 76
13, 12179, Note_on_c, 11, 79, 0
13, 12180, Note_on_c, 11, 75, 76
13, 12209, Note_on_c, 11, 75, 0
13, 12210, Note_on_c, 11, 70, 76
13, 12231, Note_on_c, 11, 70, 0
13, 12240, Note_on_c, 11, 62, 76
13, 12240, Note_on_c, 11, 80, 76
13, 12240, Note_on_c, 11, 70, 76
13, 12300, Control_c, 11, 11, 80
13, 12411, Note_on_c, 11, 62, 0
13, 12411, Note_on_c, 11, 80, 0
13, 12411, Note_on_c, 11, 70, 0
13, 12420, Note_on_c, 11, 77, 76
13, 12479, Note_on_c, 11, 77, 0
13, 12480, Note_on_c, 11, 74, 76
13, 12539, Note_on_c, 11, 74, 0
13, 12540, Note_on_c, 11, 75, 76
13, 12599, Note_on_c, 11, 75, 0
13, 12600, Note_on_c, 11, 77, 76
13, 12659, Note_on_c, 11, 77, 0
13, 12660, Note_on_c, 11, 74, 76
13, 12719, Note_on_c, 11, 74, 0
13, 12720, Note_on_c, 11, 70, 76
13, 12779, Note_on_c, 11, 70, 0
13, 12780, Note_on_c, 11, 72, 76
13, 12839, Note_on_c, 11, 72, 0
13, 12840, Note_on_c, 11, 68, 76
13, 12899, Note_on_c, 11, 68, 0
13, 12900, Note_on_c, 11, 65, 76
13, 12951, Note_on_c, 11, 65, 0
13, 12958, Control_c, 11, 11, 127
13, 12960, Note_on_c, 11, 55, 76
13, 12960, Note_on_c, 11, 63, 76
13, 13079, Note_on_c, 11, 55, 0
13, 13079, Note_on_c, 11, 63, 0
13, 13470, Note_on_c, 11, 70, 76
13, 13499, Note_on_c, 11, 70, 0
13, 13500, Note_on_c, 11, 67, 76
13, 13529, Note_on_c, 11, 67, 0
13, 13530, Note_on_c, 11, 70, 76
13, 13559, Note_on_c, 11, 70, 0
13, 13560, Note_on_c, 11, 75, 84
13, 13589, Note_on_c, 11, 75, 0
13, 13590, Note_on_c, 11, 79, 76
13, 13619, Note_on_c, 11, 79, 0
13, 13620, Note_on_c, 11, 75, 76
13, 13649, Note_on_c, 11, 75, 0
13, 13650, Note_on_c, 11, 70, 76
13, 13671, Note_on_c, 11, 70, 0
13, 13680, Note_on_c, 11, 71, 76
13, 13680, Note_on_c, 11, 77, 76
13, 13680, Note_on_c, 11, 55, 76
13, 13680, Note_on_c, 11, 62, 76
13, 13740, Control_c, 11, 11, 80
13, 13851, Note_on_c, 11, 71, 0
13, 13851, Note_on_c, 11, 77, 0
13, 13851, Note_on_c, 11, 55, 0
13, 13851, Note_on_c, 11, 62, 0
13, 13860, Note_on_c, 11, 74, 76
13, 13919, Note_on_c, 11, 74, 0
13, 13920, Note_on_c, 11, 71, 76
13, 13979, Note_on_c, 11, 71, 0
13, 13980, Note_on_c, 11, 72, 76
13, 14039, Note_on_c, 11, 72, 0
13, 14040, Note_on_c, 11, 74, 76
13, 14099, Note_on_c, 11, 74, 0
13, 14100, Note_on_c, 11, 71, 76
13, 14159, Note_on_c, 11, 71, 0
13, 14160, Note_on_c, 11, 67, 76
13, 14219, Note_on_c, 11, 67, 0
13, 14220, Note_on_c, 11, 68, 76
13, 14279, Note_on_c, 11, 68, 0
13, 14280, Note_on_c, 11, 65, 76
13, 14339, Note_on_c, 11, 65, 0
13, 14340, Note_on_c, 11, 62, 76
13, 14391, Note_on_c, 11, 62, 0
13, 14398, Control_c, 11, 11, 127
13, 14400, Note_on_c, 11, 60, 76
13, 14519, Note_on_c, 11, 60, 0
13, 14910, Note_on_c, 11, 72, 76
13, 14939, Note_on_c, 11, 72, 0
13, 14940, Note_on_c, 11, 67, 76
13, 14969, Note_on_c, 11, 67, 0
13, 14970, Note_on_c, 11, 72, 76
13, 14991, Note_on_c, 11, 72, 0
13, 15000, Note_on_c, 11, 75, 76
13, 15021, Note_on_c, 11, 75, 0
13, 15030, Note_on_c, 11, 75, 76
13, 15051, Note_on_c, 11, 75, 0
13, 15060, Note_on_c, 11, 75, 76
13, 15081, Note_on_c, 11, 75, 0
13, 15090, Note_on_c, 11, 75, 76
13, 15111, Note_on_c, 11, 75, 0
13, 15120, Note_on_c, 11, 75, 76
13, 15149, Note_on_c, 11, 75, 0
13, 15150, Note_on_c, 11, 72, 52
13, 15179, Note_on_c, 11, 72, 0
13, 15180, Note_on_c, 11, 71, 52
13, 15209, Note_on_c, 11, 71, 0
13, 15210, Note_on_c, 11, 72, 52
13, 15239, Note_on_c, 11, 72, 0
13, 15240, Note_on_c, 11, 75, 52
13, 15269, Note_on_c, 11, 75, 0
13, 15270, Note_on_c, 11, 72, 52
13, 15299, Note_on_c, 11, 72, 0
13, 15300, Note_on_c, 11, 74, 52
13, 15329, Note_on_c, 11, 74, 0
13, 15330, Note_on_c, 11, 70, 52
13, 15359, Note_on_c, 11, 70, 0
13, 15360, Note_on_c, 11, 72, 52
13, 15389, Note_on_c, 11, 72, 0
13, 15390, Note_on_c, 11, 69, 52
13, 15419, Note_on_c, 11, 69, 0
13, 15420, Note_on_c, 11, 70, 52
13, 15449, Note_on_c, 11, 70, 0
13, 15450, Note_on_c, 11, 67, 52
13, 15479, Note_on_c, 11, 67, 0
13, 15480, Note_on_c, 11, 69, 52
13, 15509, Note_on_c, 11, 69, 0
13, 15510, Note_on_c, 11, 65, 52
13, 15539, Note_on_c, 11, 65, 0
13, 15540, Note_on_c, 11, 67, 52
13, 15569, Note_on_c, 11, 67, 0
13, 15570, Note_on_c, 11, 64, 52
13, 15599, Note_on_c, 11, 64, 0
13, 15600, Note_on_c, 11, 65, 52
13, 15629, Note_on_c, 11, 65, 0
13, 15630, Note_on_c, 11, 69, 52
13, 15659, Note_on_c, 11, 69, 0
13, 15660, Note_on_c, 11, 70, 52
13, 15689, Note_on_c, 11, 70, 0
13, 15690, Note_on_c, 11, 72, 52
13, 15719, Note_on_c, 11, 72, 0
13, 15720, Note_on_c, 11, 74, 52
13, 15749, Note_on_c, 11, 74, 0
13, 15750, Note_on_c, 11, 75, 52
13, 15779, Note_on_c, 11, 75, 0
13, 15780, Note_on_c, 11, 77, 52
13, 15809, Note_on_c, 11, 77, 0
13, 15810, Note_on_c, 11, 78, 52
13, 15835, Note_on_c, 11, 78, 0
13, 15840, Note_on_c, 11, 79, 76
13, 15869, Note_on_c, 11, 79, 0
13, 15870, Note_on_c, 11, 75, 52
13, 15899, Note_on_c, 11, 75, 0
13, 15900, Note_on_c, 11, 74, 52
13, 15929, Note_on_c, 11, 74, 0
13, 15930, Note_on_c, 11, 75, 52
13, 15959, Note_on_c, 11, 75, 0
13, 15960, Note_on_c, 11, 79, 52
13, 15989, Note_on_c, 11, 79, 0
13, 15990, Note_on_c, 11, 75, 52
13, 16019, Note_on_c, 11, 75, 0
13, 16020, Note_on_c, 11, 77, 52
13, 16049, Note_on_c, 11, 77, 0
13, 16050, Note_on_c, 11, 74, 52
13, 16079, Note_on_c, 11, 74, 0
13, 16080, Note_on_c, 11, 75, 52
13, 16109, Note_on_c, 11, 75, 0
13, 16110, Note_on_c, 11, 72, 52
13, 16139, Note_on_c, 11, 72, 0
13, 16140, Note_on_c, 11, 74, 52
13, 16169, Note_on_c, 11, 74, 0
13, 16170, Note_on_c, 11, 70, 52
13, 16199, Note_on_c, 11, 70, 0
13, 16200, Note_on_c, 11, 72, 52
13, 16229, Note_on_c, 11, 72, 0
13, 16230, Note_on_c, 11, 69, 52
13, 16259, Note_on_c, 11, 69, 0
13, 16260, Note_on_c, 11, 70, 52
13, 16289, Note_on_c, 11, 70, 0
13, 16290, Note_on_c, 11, 67, 52
13, 16319, Note_on_c, 11, 67, 0
13, 16320, Note_on_c, 11, 69, 52
13, 16345, Note_on_c, 11, 69, 0
13, 16350, Note_on_c, 11, 77, 52
13, 16375, Note_on_c, 11, 77, 0
13, 16380, Note_on_c, 11, 77, 52
13, 16405, Note_on_c, 11, 77, 0
13, 16410, Note_on_c, 11, 77, 52
13, 16435, Note_on_c, 11, 77, 0
13, 16440, Note_on_c, 11, 77, 52
13, 16465, Note_on_c, 11, 77, 0
13, 16470, Note_on_c, 11, 77, 52
13, 16495, Note_on_c, 11, 77, 0
13, 16500, Note_on_c, 11, 77, 52
13, 16525, Note_on_c, 11, 77, 0
13, 16530, Note_on_c, 11, 77, 52
13, 16555, Note_on_c, 11, 77, 0
13, 16560, Note_on_c, 11, 77, 52
13, 16585, Note_on_c, 11, 77, 0
13, 16590, Note_on_c, 11, 77, 53
13, 16615, Note_on_c, 11, 77, 0
13, 16620, Note_on_c, 11, 77, 54
13, 16645, Note_on_c, 11, 77, 0
13, 16650, Note_on_c, 11, 77, 55
13, 16675, Note_on_c, 11, 77, 0
13, 16680, Note_on_c, 11, 77, 56
13, 16705, Note_on_c, 11, 77, 0
13, 16710, Note_on_c, 11, 77, 57
13, 16735, Note_on_c, 11, 77, 0
13, 16740, Note_on_c, 11, 77, 58
13, 16765, Note_on_c, 11, 77, 0
13, 16770, Note_on_c, 11, 77, 59
13, 16795, Note_on_c, 11, 77, 0
13, 16800, Note_on_c, 11, 77, 60
13, 16825, Note_on_c, 11, 77, 0
13, 16830, Note_on_c, 11, 77, 61
13, 16855, Note_on_c, 11, 77, 0
13, 16860, Note_on_c, 11, 77, 62
13, 16885, Note_on_c, 11, 77, 0
13, 16890, Note_on_c, 11, 77, 63
13, 16915, Note_on_c, 11, 77, 0
13, 16920, Note_on_c, 11, 77, 64
13, 16945, Note_on_c, 11, 77, 0
13, 16950, Note_on_c, 11, 77, 65
13, 16975, Note_on_c, 11, 77, 0
13, 16980, Note_on_c, 11, 77, 66
13, 17005, Note_on_c, 11, 77, 0
13, 17010, Note_on_c, 11, 77, 67
13, 17035, Note_on_c, 11, 77, 0
13, 17040, Note_on_c, 11, 77, 68
13, 17065, Note_on_c, 11, 77, 0
13, 17070, Note_on_c, 11, 77, 69
13, 17095, Note_on_c, 11, 77, 0
13, 17100, Note_on_c, 11, 77, 70
13, 17125, Note_on_c, 11, 77, 0
13, 17130, Note_on_c, 11, 77, 71
13, 17155, Note_on_c, 11, 77, 0
13, 17160, Note_on_c, 11, 77, 72
13, 17185, Note_on_c, 11, 77, 0
13, 17190, Note_on_c, 11, 77, 73
13, 17215, Note_on_c, 11, 77, 0
13, 17220, Note_on_c, 11, 77, 74
13, 17245, Note_on_c, 11, 77, 0
13, 17250, Note_on_c, 11, 77, 75
13, 17275, Note_on_c, 11, 77, 0
13, 17280, Note_on_c, 11, 77, 76
13, 17305, Note_on_c, 11, 77, 0
13, 17310, Note_on_c, 11, 77, 76
13, 17335, Note_on_c, 11, 77, 0
13, 17340, Note_on_c, 11, 77, 76
13, 17365, Note_on_c, 11, 77, 0
13, 17370, Note_on_c, 11, 77, 76
13, 17395, Note_on_c, 11, 77, 0
13, 17400, Note_on_c, 11, 77, 76
13, 17425, Note_on_c, 11, 77, 0
13, 17430, Note_on_c, 11, 77, 76
13, 17455, Note_on_c, 11, 77, 0
13, 17460, Note_on_c, 11, 77, 76
13, 17485, Note_on_c, 11, 77, 0
13, 17490, Note_on_c, 11, 77, 76
13, 17515, Note_on_c, 11, 77, 0
13, 17520, Note_on_c, 11, 77, 76
13, 17545, Note_on_c, 11, 77, 0
13, 17550, Note_on_c, 11, 77, 76
13, 17575, Note_on_c, 11, 77, 0
13, 17580, Note_on_c, 11, 77, 76
13, 17605, Note_on_c, 11, 77, 0
13, 17610, Note_on_c, 11, 77, 76
13, 17635, Note_on_c, 11, 77, 0
13, 17640, Note_on_c, 11, 77, 76
13, 17665, Note_on_c, 11, 77, 0
13, 17670, Note_on_c, 11, 77, 76
13, 17695, Note_on_c, 11, 77, 0
13, 17700, Note_on_c, 11, 77, 76
13, 17725, Note_on_c, 11, 77, 0
13, 17730, Note_on_c, 11, 77, 76
13, 17755, Note_on_c, 11, 77, 0
13, 17760, Note_on_c, 11, 77, 76
13, 17785, Note_on_c, 11, 77, 0
13, 17790, Note_on_c, 11, 77, 72
13, 17815, Note_on_c, 11, 77, 0
13, 17820, Note_on_c, 11, 77, 68
13, 17845, Note_on_c, 11, 77, 0
13, 17850, Note_on_c, 11, 77, 64
13, 17875, Note_on_c, 11, 77, 0
13, 17880, Note_on_c, 11, 77, 60
13, 17905, Note_on_c, 11, 77, 0
13, 17910, Note_on_c, 11, 77, 56
13, 17935, Note_on_c, 11, 77, 0
13, 17940, Note_on_c, 11, 77, 52
13, 17965, Note_on_c, 11, 77, 0
13, 17970, Note_on_c, 11, 81, 48
13, 17995, Note_on_c, 11, 81, 0
13, 18000, Note_on_c, 11, 82, 44
13, 18119, Note_on_c, 11, 82, 0
13, 18760, Note_on_c, 11, 60, 44
13, 18799, Note_on_c, 11, 60, 0
13, 18800, Note_on_c, 11, 63, 44
13, 18839, Note_on_c, 11, 63, 0
13, 18840, Note_on_c, 11, 66, 44
13, 18879, Note_on_c, 11, 66, 0
13, 18880, Note_on_c, 11, 69, 44
13, 18919, Note_on_c, 11, 69, 0
13, 18920, Note_on_c, 11, 72, 44
13, 18955, Note_on_c, 11, 72, 0
13, 18960, Note_on_c, 11, 75, 44
13, 19431, Note_on_c, 11, 75, 0
13, 19440, Note_on_c, 11, 74, 44
13, 19469, Note_on_c, 11, 74, 0
13, 19480, Note_on_c, 11, 76, 44
13, 19519, Note_on_c, 11, 76, 0
13, 19520, Note_on_c, 11, 77, 44
13, 19559, Note_on_c, 11, 77, 0
13, 19600, Note_on_c, 11, 77, 44
13, 19639, Note_on_c, 11, 77, 0
13, 19640, Note_on_c, 11, 80, 44
13, 19679, Note_on_c, 11, 80, 0
13, 19720, Note_on_c, 11, 80, 44
13, 19759, Note_on_c, 11, 80, 0
13, 19760, Note_on_c, 11, 79, 44
13, 19799, Note_on_c, 11, 79, 0
13, 19840, Note_on_c, 11, 79, 44
13, 19879, Note_on_c, 11, 79, 0
13, 19880, Note_on_c, 11, 77, 44
13, 19919, Note_on_c, 11, 77, 0
13, 19960, Note_on_c, 11, 77, 44
13, 19999, Note_on_c, 11, 77, 0
13, 20000, Note_on_c, 11, 75, 44
13, 20039, Note_on_c, 11, 75, 0
13, 20080, Note_on_c, 11, 75, 44
13, 20119, Note_on_c, 11, 75, 0
13, 20120, Note_on_c, 11, 74, 44
13, 20159, Note_on_c, 11, 74, 0
13, 20200, Note_on_c, 11, 74, 44
13, 20239, Note_on_c, 11, 74, 0
13, 20240, Note_on_c, 11, 75, 44
13, 20279, Note_on_c, 11, 75, 0
13, 20320, Note_on_c, 11, 75, 44
13, 20359, Note_on_c, 11, 75, 0
13, 20360, Note_on_c, 11, 79, 44
13, 20399, Note_on_c, 11, 79, 0
13, 20440, Note_on_c, 11, 79, 44
13, 20479, Note_on_c, 11, 79, 0
13, 20480, Note_on_c, 11, 77, 44
13, 20519, Note_on_c, 11, 77, 0
13, 20560, Note_on_c, 11, 77, 44
13, 20599, Note_on_c, 11, 77, 0
13, 20600, Note_on_c, 11, 75, 44
13, 20639, Note_on_c, 11, 75, 0
13, 20680, Note_on_c, 11, 75, 44
13, 20719, Note_on_c, 11, 75, 0
13, 20720, Note_on_c, 11, 74, 44
13, 20759, Note_on_c, 11, 74, 0
13, 20800, Note_on_c, 11, 74, 44
13, 20839, Note_on_c, 11, 74, 0
13, 20840, Note_on_c, 11, 72, 44
13, 20879, Note_on_c, 11, 72, 0
13, 20920, Note_on_c, 11, 73, 44
13, 20959, Note_on_c, 11, 73, 0
13, 20960, Note_on_c, 11, 74, 45
13, 20999, Note_on_c, 11, 74, 0
13, 21040, Note_on_c, 11, 58, 47
13, 21079, Note_on_c, 11, 58, 0
13, 21080, Note_on_c, 11, 62, 48
13, 21119, Note_on_c, 11, 62, 0
13, 21160, Note_on_c, 11, 62, 50
13, 21199, Note_on_c, 11, 62, 0
13, 21200, Note_on_c, 11, 65, 51
13, 21239, Note_on_c, 11, 65, 0
13, 21280, Note_on_c, 11, 65, 52
13, 21319, Note_on_c, 11, 65, 0
13, 21320, Note_on_c, 11, 70, 53
13, 21359, Note_on_c, 11, 70, 0
13, 21400, Note_on_c, 11, 70, 55
13, 21439, Note_on_c, 11, 70, 0
13, 21440, Note_on_c, 11, 74, 56
13, 21479, Note_on_c, 11, 74, 0
13, 21520, Note_on_c, 11, 74, 58
13, 21559, Note_on_c, 11, 74, 0
13, 21560, Note_on_c, 11, 65, 59
13, 21599, Note_on_c, 11, 65, 0
13, 21640, Note_on_c, 11, 74, 52
13, 21679, Note_on_c, 11, 74, 0
13, 21680, Note_on_c, 11, 72, 52
13, 21719, Note_on_c, 11, 72, 0
13, 21760, Note_on_c, 11, 75, 52
13, 21799, Note_on_c, 11, 75, 0
13, 21800, Note_on_c, 11, 67, 52
13, 21839, Note_on_c, 11, 67, 0
13, 21880, Note_on_c, 11, 72, 52
13, 21919, Note_on_c, 11, 72, 0
13, 21920, Note_on_c, 11, 70, 52
13, 21959, Note_on_c, 11, 70, 0
13, 22000, Note_on_c, 11, 74, 52
13, 22039, Note_on_c, 11, 74, 0
13, 22040, Note_on_c, 11, 65, 52
13, 22079, Note_on_c, 11, 65, 0
13, 22140, Note_on_c, 11, 70, 52
13, 22179, Note_on_c, 11, 70, 0
13, 22180, Note_on_c, 11, 69, 52
13, 22219, Note_on_c, 11, 69, 0
13, 22240, Note_on_c, 11, 72, 52
13, 22279, Note_on_c, 11, 72, 0
13, 22280, Note_on_c, 11, 65, 52
13, 22319, Note_on_c, 11, 65, 0
13, 22360, Note_on_c, 11, 56, 53
13, 22399, Note_on_c, 11, 56, 0
13, 22400, Note_on_c, 11, 59, 54
13, 22439, Note_on_c, 11, 59, 0
13, 22480, Note_on_c, 11, 59, 57
13, 22519, Note_on_c, 11, 59, 0
13, 22520, Note_on_c, 11, 62, 58
13, 22559, Note_on_c, 11, 62, 0
13, 22600, Note_on_c, 11, 62, 61
13, 22639, Note_on_c, 11, 62, 0
13, 22640, Note_on_c, 11, 65, 62
13, 22679, Note_on_c, 11, 65, 0
13, 22720, Note_on_c, 11, 65, 65
13, 22759, Note_on_c, 11, 65, 0
13, 22760, Note_on_c, 11, 71, 66
13, 22799, Note_on_c, 11, 71, 0
13, 22840, Note_on_c, 11, 71, 69
13, 22879, Note_on_c, 11, 71, 0
13, 22880, Note_on_c, 11, 74, 70
13, 22919, Note_on_c, 11, 74, 0
13, 22960, Note_on_c, 11, 74, 73
13, 22999, Note_on_c, 11, 74, 0
13, 23000, Note_on_c, 11, 77, 74
13, 23039, Note_on_c, 11, 77, 0
13, 23080, Note_on_c, 11, 74, 76
13, 23119, Note_on_c, 11, 74, 0
13, 23120, Note_on_c, 11, 77, 76
13, 23159, Note_on_c, 11, 77, 0
13, 23200, Note_on_c, 11, 74, 76
13, 23239, Note_on_c, 11, 74, 0
13, 23240, Note_on_c, 11, 77, 76
13, 23279, Note_on_c, 11, 77, 0
13, 23320, Note_on_c, 11, 75, 76
13, 23359, Note_on_c, 11, 75, 0
13, 23360, Note_on_c, 11, 74, 76
13, 23399, Note_on_c, 11, 74, 0
13, 23400, Note_on_c, 11, 75, 76
13, 23439, Note_on_c, 11, 75, 0
13, 23440, Note_on_c, 11, 77, 76
13, 23479, Note_on_c, 11, 77, 0
13, 23480, Note_on_c, 11, 79, 76
13, 23519, Note_on_c, 11, 79, 0
13, 23560, Note_on_c, 11, 70, 76
13, 23599, Note_on_c, 11, 70, 0
13, 23600, Note_on_c, 11, 74, 76
13, 23639, Note_on_c, 11, 74, 0
13, 23680, Note_on_c, 11, 69, 76
13, 23719, Note_on_c, 11, 69, 0
13, 23720, Note_on_c, 11, 72, 76
13, 23755, Note_on_c, 11, 72, 0
13, 23760, Note_on_c, 11, 70, 52
13, 23879, Note_on_c, 11, 70, 0
13, 25920, Note_on_c, 11, 75, 52
13, 25949, Note_on_c, 11, 75, 0
13, 25950, Note_on_c, 11, 77, 52
13, 25979, Note_on_c, 11, 77, 0
13, 25980, Note_on_c, 11, 75, 52
13, 26009, Note_on_c, 11, 75, 0
13, 26010, Note_on_c, 11, 74, 52
13, 26039, Note_on_c, 11, 74, 0
13, 26040, Note_on_c, 11, 75, 52
13, 26069, Note_on_c, 11, 75, 0
13, 26070, Note_on_c, 11, 77, 52
13, 26099, Note_on_c, 11, 77, 0
13, 26100, Note_on_c, 11, 79, 52
13, 26129, Note_on_c, 11, 79, 0
13, 26130, Note_on_c, 11, 77, 52
13, 26159, Note_on_c, 11, 77, 0
13, 26160, Note_on_c, 11, 75, 52
13, 26189, Note_on_c, 11, 75, 0
13, 26190, Note_on_c, 11, 77, 52
13, 26219, Note_on_c, 11, 77, 0
13, 26220, Note_on_c, 11, 79, 52
13, 26249, Note_on_c, 11, 79, 0
13, 26250, Note_on_c, 11, 75, 52
13, 26279, Note_on_c, 11, 75, 0
13, 26280, Note_on_c, 11, 72, 52
13, 26309, Note_on_c, 11, 72, 0
13, 26310, Note_on_c, 11, 74, 52
13, 26339, Note_on_c, 11, 74, 0
13, 26340, Note_on_c, 11, 75, 52
13, 26369, Note_on_c, 11, 75, 0
13, 26370, Note_on_c, 11, 72, 52
13, 26399, Note_on_c, 11, 72, 0
13, 26400, Note_on_c, 11, 69, 52
13, 26429, Note_on_c, 11, 69, 0
13, 26430, Note_on_c, 11, 70, 52
13, 26459, Note_on_c, 11, 70, 0
13, 26460, Note_on_c, 11, 72, 52
13, 26489, Note_on_c, 11, 72, 0
13, 26490, Note_on_c, 11, 74, 52
13, 26519, Note_on_c, 11, 74, 0
13, 26520, Note_on_c, 11, 75, 52
13, 26549, Note_on_c, 11, 75, 0
13, 26550, Note_on_c, 11, 65, 52
13, 26579, Note_on_c, 11, 65, 0
13, 26580, Note_on_c, 11, 67, 52
13, 26609, Note_on_c, 11, 67, 0
13, 26610, Note_on_c, 11, 69, 52
13, 26635, Note_on_c, 11, 69, 0
13, 26638, Control_c, 11, 11, 64
13, 26640, Control_c, 11, 11, 64
13, 26640, Note_on_c, 11, 70, 84
13, 26663, Control_c, 11, 11, 65
13, 26686, Control_c, 11, 11, 66
13, 26709, Control_c, 11, 11, 67
13, 26731, Control_c, 11, 11, 68
13, 26754, Control_c, 11, 11, 69
13, 26777, Control_c, 11, 11, 70
13, 26800, Control_c, 11, 11, 71
13, 26823, Control_c, 11, 11, 72
13, 26846, Control_c, 11, 11, 73
13, 26869, Control_c, 11, 11, 74
13, 26891, Control_c, 11, 11, 75
13, 26914, Control_c, 11, 11, 76
13, 26937, Control_c, 11, 11, 77
13, 26939, Note_on_c, 11, 70, 0
13, 26960, Control_c, 11, 11, 78
13, 26970, Note_on_c, 11, 58, 84
13, 26983, Control_c, 11, 11, 79
13, 26991, Note_on_c, 11, 58, 0
13, 27000, Note_on_c, 11, 62, 84
13, 27006, Control_c, 11, 11, 80
13, 27029, Control_c, 11, 11, 81
13, 27044, Note_on_c, 11, 62, 0
13, 27051, Control_c, 11, 11, 82
13, 27074, Control_c, 11, 11, 83
13, 27090, Note_on_c, 11, 58, 84
13, 27097, Control_c, 11, 11, 84
13, 27111, Note_on_c, 11, 58, 0
13, 27120, Control_c, 11, 11, 85
13, 27120, Note_on_c, 11, 65, 84
13, 27143, Control_c, 11, 11, 86
13, 27164, Note_on_c, 11, 65, 0
13, 27166, Control_c, 11, 11, 87
13, 27189, Control_c, 11, 11, 88
13, 27210, Note_on_c, 11, 62, 84
13, 27211, Control_c, 11, 11, 89
13, 27231, Note_on_c, 11, 62, 0
13, 27234, Control_c, 11, 11, 90
13, 27240, Note_on_c, 11, 70, 84
13, 27257, Control_c, 11, 11, 91
13, 27280, Control_c, 11, 11, 92
13, 27284, Note_on_c, 11, 70, 0
13, 27303, Control_c, 11, 11, 93
13, 27326, Control_c, 11, 11, 94
13, 27330, Note_on_c, 11, 65, 84
13, 27349, Control_c, 11, 11, 95
13, 27351, Note_on_c, 11, 65, 0
13, 27360, Note_on_c, 11, 74, 84
13, 27371, Control_c, 11, 11, 96
13, 27394, Control_c, 11, 11, 97
13, 27404, Note_on_c, 11, 74, 0
13, 27417, Control_c, 11, 11, 98
13, 27440, Control_c, 11, 11, 99
13, 27450, Note_on_c, 11, 70, 84
13, 27463, Control_c, 11, 11, 100
13, 27471, Note_on_c, 11, 70, 0
13, 27480, Note_on_c, 11, 77, 84
13, 27486, Control_c, 11, 11, 101
13, 27509, Control_c, 11, 11, 102
13, 27524, Note_on_c, 11, 77, 0
13, 27531, Control_c, 11, 11, 103
13, 27554, Control_c, 11, 11, 104
13, 27570, Note_on_c, 11, 74, 84
13, 27577, Control_c, 11, 11, 105
13, 27591, Note_on_c, 11, 74, 0
13, 27600, Control_c, 11, 11, 106
13, 27600, Note_on_c, 11, 80, 84
13, 27623, Control_c, 11, 11, 107
13, 27646, Control_c, 11, 11, 108
13, 27669, Control_c, 11, 11, 109
13, 27691, Control_c, 11, 11, 110
13, 27714, Control_c, 11, 11, 111
13, 27737, Control_c, 11, 11, 112
13, 27760, Control_c, 11, 11, 113
13, 27783, Control_c, 11, 11, 114
13, 27806, Control_c, 11, 11, 115
13, 27829, Control_c, 11, 11, 116
13, 27851, Control_c, 11, 11, 117
13, 27874, Control_c, 11, 11, 118
13, 27897, Control_c, 11, 11, 119
13, 27920, Control_c, 11, 11, 120
13, 27943, Control_c, 11, 11, 121
13, 27966, Control_c, 11, 11, 122
13, 27989, Control_c, 11, 11, 123
13, 28011, Control_c, 11, 11, 124
13, 28034, Control_c, 11, 11, 125
13, 28057, Control_c, 11, 11, 127
13, 28124, Note_on_c, 11, 80, 0
13, 28170, Note_on_c, 11, 77, 84
13, 28191, Note_on_c, 11, 77, 0
13, 28200, Note_on_c, 11, 74, 84
13, 28244, Note_on_c, 11, 74, 0
13, 28290, Note_on_c, 11, 70, 84
13, 28311, Note_on_c, 11, 70, 0
13, 28320, Note_on_c, 11, 68, 84
13, 28364, Note_on_c, 11, 68, 0
13, 28410, Note_on_c, 11, 65, 84
13, 28431, Note_on_c, 11, 65, 0
13, 28440, Note_on_c, 11, 62, 84
13, 28484, Note_on_c, 11, 62, 0
13, 28530, Note_on_c, 11, 70, 84
13, 28551, Note_on_c, 11, 70, 0
13, 28560, Note_on_c, 11, 68, 84
13, 28604, Note_on_c, 11, 68, 0
13, 28650, Note_on_c, 11, 65, 84
13, 28671, Note_on_c, 11, 65, 0
13, 28680, Note_on_c, 11, 62, 84
13, 28724, Note_on_c, 11, 62, 0
13, 28770, Note_on_c, 11, 58, 84
13, 28791, Note_on_c, 11, 58, 0
13, 28800, Note_on_c, 11, 55, 84
13, 28800, Note_on_c, 11, 63, 84
13, 28919, Note_on_c, 11, 55, 0
13, 28919, Note_on_c, 11, 63, 0
13, 29520, Note_on_c, 11, 75, 52
13, 29759, Note_on_c, 11, 75, 0
13, 29760, Note_on_c, 11, 74, 52
13, 29971, Note_on_c, 11, 74, 0
13, 29980, Note_on_c, 11, 74, 52
13, 29999, Note_on_c, 11, 74, 0
13, 30000, Note_on_c, 11, 72, 52
13, 30039, Note_on_c, 11, 72, 0
13, 30040, Note_on_c, 11, 71, 52
13, 30079, Note_on_c, 11, 71, 0
13, 30080, Note_on_c, 11, 72, 52
13, 30119, Note_on_c, 11, 72, 0
13, 30120, Note_on_c, 11, 75, 52
13, 30159, Note_on_c, 11, 75, 0
13, 30160, Note_on_c, 11, 74, 52
13, 30199, Note_on_c, 11, 74, 0
13, 30200, Note_on_c, 11, 72, 52
13, 30231, Note_on_c, 11, 72, 0
13, 30240, Note_on_c, 11, 70, 52
13, 30519, Note_on_c, 11, 70, 0
13, 30520, Note_on_c, 11, 72, 52
13, 30559, Note_on_c, 11, 72, 0
13, 30560, Note_on_c, 11, 70, 52
13, 30599, Note_on_c, 11, 70, 0
13, 30600, Note_on_c, 11, 68, 52
13, 30639, Note_on_c, 11, 68, 0
13, 30640, Note_on_c, 11, 70, 52
13, 30679, Note_on_c, 11, 70, 0
13, 30680, Note_on_c, 11, 68, 52
13, 30719, Note_on_c, 11, 68, 0
13, 30720, Note_on_c, 11, 67, 52
13, 30759, Note_on_c, 11, 67, 0
13, 30760, Note_on_c, 11, 68, 52
13, 30799, Note_on_c, 11, 68, 0
13, 30800, Note_on_c, 11, 67, 52
13, 30839, Note_on_c, 11, 67, 0
13, 30840, Note_on_c, 11, 70, 52
13, 30879, Note_on_c, 11, 70, 0
13, 30880, Note_on_c, 11, 68, 52
13, 30911, Note_on_c, 11, 68, 0
13, 30920, Note_on_c, 11, 65, 52
13, 30949, Note_on_c, 11, 65, 0
13, 30960, Note_on_c, 11, 63, 52
13, 31119, Note_on_c, 11, 63, 0
13, 31120, Note_on_c, 11, 65, 52
13, 31159, Note_on_c, 11, 65, 0
13, 31160, Note_on_c, 11, 63, 52
13, 31191, Note_on_c, 11, 63, 0
13, 31200, Note_on_c, 11, 62, 52
13, 31229, Note_on_c, 11, 62, 0
13, 31240, Note_on_c, 11, 60, 52
13, 31269, Note_on_c, 11, 60, 0
13, 31280, Note_on_c, 11, 62, 52
13, 31299, Note_on_c, 11, 62, 0
13, 31305, Note_on_c, 11, 65, 52
13, 31319, Note_on_c, 11, 65, 0
13, 31320, Note_on_c, 11, 63, 52
13, 31349, Note_on_c, 11, 63, 0
13, 31360, Note_on_c, 11, 62, 52
13, 31389, Note_on_c, 11, 62, 0
13, 31400, Note_on_c, 11, 63, 52
13, 31419, Note_on_c, 11, 63, 0
13, 31425, Note_on_c, 11, 67, 52
13, 31439, Note_on_c, 11, 67, 0
13, 31440, Note_on_c, 11, 65, 52
13, 31469, Note_on_c, 11, 65, 0
13, 31480, Note_on_c, 11, 64, 52
13, 31509, Note_on_c, 11, 64, 0
13, 31520, Note_on_c, 11, 65, 52
13, 31549, Note_on_c, 11, 65, 0
13, 31560, Note_on_c, 11, 66, 52
13, 31589, Note_on_c, 11, 66, 0
13, 31600, Note_on_c, 11, 67, 52
13, 31629, Note_on_c, 11, 67, 0
13, 31640, Note_on_c, 11, 69, 52
13, 31669, Note_on_c, 11, 69, 0
13, 31678, Control_c, 11, 11, 96
13, 31680, Note_on_c, 11, 69, 68
13, 31680, Control_c, 11, 11, 96
13, 31700, Control_c, 11, 11, 97
13, 31720, Control_c, 11, 11, 99
13, 31740, Control_c, 11, 11, 100
13, 31760, Control_c, 11, 11, 101
13, 31780, Control_c, 11, 11, 102
13, 31800, Control_c, 11, 11, 104
13, 31820, Control_c, 11, 11, 105
13, 31839, Note_on_c, 11, 69, 0
13, 31840, Control_c, 11, 11, 106
13, 31840, Note_on_c, 11, 72, 68
13, 31860, Control_c, 11, 11, 108
13, 31879, Note_on_c, 11, 72, 0
13, 31880, Note_on_c, 11, 70, 68
13, 31880, Control_c, 11, 11, 109
13, 31900, Control_c, 11, 11, 110
13, 31911, Note_on_c, 11, 70, 0
13, 31920, Note_on_c, 11, 70, 68
13, 31920, Control_c, 11, 11, 112
13, 31940, Control_c, 11, 11, 113
13, 31949, Note_on_c, 11, 70, 0
13, 31960, Note_on_c, 11, 69, 68
13, 31960, Control_c, 11, 11, 114
13, 31980, Control_c, 11, 11, 115
13, 31999, Note_on_c, 11, 69, 0
13, 32000, Control_c, 11, 11, 117
13, 32000, Note_on_c, 11, 70, 68
13, 32020, Control_c, 11, 11, 118
13, 32039, Note_on_c, 11, 70, 0
13, 32040, Control_c, 11, 11, 119
13, 32060, Control_c, 11, 11, 121
13, 32080, Note_on_c, 11, 69, 68
13, 32080, Control_c, 11, 11, 122
13, 32100, Control_c, 11, 11, 123
13, 32119, Note_on_c, 11, 69, 0
13, 32120, Note_on_c, 11, 70, 68
13, 32120, Control_c, 11, 11, 124
13, 32140, Control_c, 11, 11, 127
13, 32159, Note_on_c, 11, 70, 0
13, 32200, Note_on_c, 11, 70, 76
13, 32239, Note_on_c, 11, 70, 0
13, 32240, Note_on_c, 11, 71, 68
13, 32279, Note_on_c, 11, 71, 0
13, 32320, Note_on_c, 11, 71, 68
13, 32359, Note_on_c, 11, 71, 0
13, 32360, Note_on_c, 11, 72, 68
13, 32379, Note_on_c, 11, 72, 0
13, 32385, Note_on_c, 11, 74, 52
13, 32399, Note_on_c, 11, 74, 0
13, 32400, Note_on_c, 11, 72, 52
13, 32439, Note_on_c, 11, 72, 0
13, 32440, Note_on_c, 11, 71, 52
13, 32479, Note_on_c, 11, 71, 0
13, 32480, Note_on_c, 11, 72, 52
13, 32511, Note_on_c, 11, 72, 0
13, 32520, Note_on_c, 11, 65, 52
13, 32675, Note_on_c, 11, 65, 0
13, 32680, Note_on_c, 11, 64, 52
13, 32719, Note_on_c, 11, 64, 0
13, 32720, Note_on_c, 11, 65, 52
13, 32759, Note_on_c, 11, 65, 0
13, 32800, Note_on_c, 11, 64, 52
13, 32839, Note_on_c, 11, 64, 0
13, 32840, Note_on_c, 11, 65, 52
13, 32879, Note_on_c, 11, 65, 0
13, 32920, Note_on_c, 11, 64, 52
13, 32959, Note_on_c, 11, 64, 0
13, 32960, Note_on_c, 11, 65, 52
13, 32991, Note_on_c, 11, 65, 0
13, 33000, Note_on_c, 11, 65, 52
13, 33029, Note_on_c, 11, 65, 0
13, 33040, Note_on_c, 11, 67, 52
13, 33069, Note_on_c, 11, 67, 0
13, 33080, Note_on_c, 11, 68, 52
13, 33099, Note_on_c, 11, 68, 0
13, 33105, Note_on_c, 11, 70, 52
13, 33119, Note_on_c, 11, 70, 0
13, 33120, Note_on_c, 11, 68, 52
13, 33159, Note_on_c, 11, 68, 0
13, 33160, Note_on_c, 11, 67, 52
13, 33199, Note_on_c, 11, 67, 0
13, 33200, Note_on_c, 11, 68, 52
13, 33231, Note_on_c, 11, 68, 0
13, 33240, Note_on_c, 11, 62, 52
13, 33395, Note_on_c, 11, 62, 0
13, 33400, Note_on_c, 11, 61, 52
13, 33439, Note_on_c, 11, 61, 0
13, 33440, Note_on_c, 11, 62, 52
13, 33479, Note_on_c, 11, 62, 0
13, 33520, Note_on_c, 11, 62, 52
13, 33559, Note_on_c, 11, 62, 0
13, 33560, Note_on_c, 11, 63, 52
13, 33599, Note_on_c, 11, 63, 0
13, 33640, Note_on_c, 11, 64, 52
13, 33679, Note_on_c, 11, 64, 0
13, 33680, Note_on_c, 11, 65, 52
13, 33719, Note_on_c, 11, 65, 0
13, 33760, Note_on_c, 11, 68, 52
13, 33799, Note_on_c, 11, 68, 0
13, 33800, Note_on_c, 11, 72, 52
13, 33839, Note_on_c, 11, 72, 0
13, 33880, Note_on_c, 11, 72, 53
13, 33919, Note_on_c, 11, 72, 0
13, 33920, Note_on_c, 11, 70, 54
13, 33959, Note_on_c, 11, 70, 0
13, 34000, Note_on_c, 11, 69, 57
13, 34039, Note_on_c, 11, 69, 0
13, 34040, Note_on_c, 11, 70, 58
13, 34079, Note_on_c, 11, 70, 0
13, 34120, Note_on_c, 11, 69, 61
13, 34159, Note_on_c, 11, 69, 0
13, 34160, Note_on_c, 11, 70, 62
13, 34199, Note_on_c, 11, 70, 0
13, 34240, Note_on_c, 11, 72, 65
13, 34279, Note_on_c, 11, 72, 0
13, 34280, Note_on_c, 11, 70, 66
13, 34319, Note_on_c, 11, 70, 0
13, 34360, Note_on_c, 11, 72, 69
13, 34399, Note_on_c, 11, 72, 0
13, 34400, Note_on_c, 11, 70, 70
13, 34439, Note_on_c, 11, 70, 0
13, 34480, Note_on_c, 11, 72, 73
13, 34519, Note_on_c, 11, 72, 0
13, 34520, Note_on_c, 11, 70, 74
13, 34555, Note_on_c, 11, 70, 0
13, 34560, Note_on_c, 11, 70, 76
13, 34679, Note_on_c, 11, 70, 0
13, 34800, Note_on_c, 11, 75, 76
13, 34844, Note_on_c, 11, 75, 0
13, 34890, Note_on_c, 11, 70, 76
13, 34911, Note_on_c, 11, 70, 0
13, 34920, Note_on_c, 11, 75, 76
13, 34964, Note_on_c, 11, 75, 0
13, 35010, Note_on_c, 11, 70, 76
13, 35031, Note_on_c, 11, 70, 0
13, 35040, Note_on_c, 11, 75, 76
13, 35084, Note_on_c, 11, 75, 0
13, 35130, Note_on_c, 11, 70, 76
13, 35151, Note_on_c, 11, 70, 0
13, 35160, Note_on_c, 11, 75, 76
13, 35204, Note_on_c, 11, 75, 0
13, 35250, Note_on_c, 11, 70, 76
13, 35271, Note_on_c, 11, 70, 0
13, 35280, Note_on_c, 11, 75, 84
13, 35511, Note_on_c, 11, 75, 0
13, 35520, Note_on_c, 11, 73, 92
13, 35744, Note_on_c, 11, 73, 0
13, 35760, Note_on_c, 11, 71, 92
13, 35984, Note_on_c, 11, 71, 0
13, 36000, Note_on_c, 11, 70, 92
13, 36224, Note_on_c, 11, 70, 0
13, 36240, Note_on_c, 11, 68, 92
13, 36464, Note_on_c, 11, 68, 0
13, 36480, Note_on_c, 11, 66, 92
13, 36704, Note_on_c, 11, 66, 0
13, 36720, Note_on_c, 11, 65, 92
13, 36944, Note_on_c, 11, 65, 0
13, 36960, Note_on_c, 11, 63, 92
13, 37184, Note_on_c, 11, 63, 0
13, 37200, Note_on_c, 11, 62, 92
13, 37424, Note_on_c, 11, 62, 0
13, 37440, Note_on_c, 11, 63, 92
13, 37465, Note_on_c, 11, 63, 0
13, 37470, Note_on_c, 11, 63, 84
13, 37495, Note_on_c, 11, 63, 0
13, 37500, Note_on_c, 11, 63, 84
13, 37525, Note_on_c, 11, 63, 0
13, 37530, Note_on_c, 11, 63, 84
13, 37555, Note_on_c, 11, 63, 0
13, 37560, Note_on_c, 11, 63, 84
13, 37585, Note_on_c, 11, 63, 0
13, 37590, Note_on_c, 11, 63, 84
13, 37615, Note_on_c, 11, 63, 0
13, 37620, Note_on_c, 11, 63, 84
13, 37645, Note_on_c, 11, 63, 0
13, 37650, Note_on_c, 11, 63, 84
13, 37675, Note_on_c, 11, 63, 0
13, 37680, Note_on_c, 11, 61, 92
13, 37705, Note_on_c, 11, 61, 0
13, 37710, Note_on_c, 11, 61, 84
13, 37735, Note_on_c, 11, 61, 0
13, 37740, Note_on_c, 11, 61, 84
13, 37765, Note_on_c, 11, 61, 0
13, 37770, Note_on_c, 11, 61, 84
13, 37795, Note_on_c, 11, 61, 0
13, 37800, Note_on_c, 11, 61, 84
13, 37825, Note_on_c, 11, 61, 0
13, 37830, Note_on_c, 11, 61, 84
13, 37855, Note_on_c, 11, 61, 0
13, 37860, Note_on_c, 11, 61, 84
13, 37885, Note_on_c, 11, 61, 0
13, 37890, Note_on_c, 11, 61, 84
13, 37915, Note_on_c, 11, 61, 0
13, 37920, Note_on_c, 11, 59, 92
13, 37945, Note_on_c, 11, 59, 0
13, 37950, Note_on_c, 11, 59, 84
13, 37975, Note_on_c, 11, 59, 0
13, 37980, Note_on_c, 11, 59, 84
13, 38005, Note_on_c, 11, 59, 0
13, 38010, Note_on_c, 11, 59, 84
13, 38035, Note_on_c, 11, 59, 0
13, 38040, Note_on_c, 11, 59, 84
13, 38065, Note_on_c, 11, 59, 0
13, 38070, Note_on_c, 11, 59, 84
13, 38095, Note_on_c, 11, 59, 0
13, 38100, Note_on_c, 11, 59, 84
13, 38125, Note_on_c, 11, 59, 0
13, 38130, Note_on_c, 11, 59, 84
13, 38155, Note_on_c, 11, 59, 0
13, 38160, Note_on_c, 11, 59, 52
13, 38309, Note_on_c, 11, 59, 0
13, 38310, Note_on_c, 11, 64, 52
13, 38339, Note_on_c, 11, 64, 0
13, 38340, Note_on_c, 11, 65, 52
13, 38369, Note_on_c, 11, 65, 0
13, 38370, Note_on_c, 11, 66, 52
13, 38395, Note_on_c, 11, 66, 0
13, 38400, Note_on_c, 11, 68, 52
13, 38549, Note_on_c, 11, 68, 0
13, 38550, Note_on_c, 11, 70, 52
13, 38579, Note_on_c, 11, 70, 0
13, 38580, Note_on_c, 11, 68, 52
13, 38609, Note_on_c, 11, 68, 0
13, 38610, Note_on_c, 11, 66, 52
13, 38635, Note_on_c, 11, 66, 0
13, 38640, Note_on_c, 11, 65, 52
13, 38789, Note_on_c, 11, 65, 0
13, 38790, Note_on_c, 11, 64, 52
13, 38819, Note_on_c, 11, 64, 0
13, 38820, Note_on_c, 11, 65, 52
13, 38849, Note_on_c, 11, 65, 0
13, 38850, Note_on_c, 11, 66, 52
13, 38875, Note_on_c, 11, 66, 0
13, 38880, Note_on_c, 11, 68, 52
13, 39029, Note_on_c, 11, 68, 0
13, 39030, Note_on_c, 11, 67, 52
13, 39059, Note_on_c, 11, 67, 0
13, 39060, Note_on_c, 11, 68, 52
13, 39089, Note_on_c, 11, 68, 0
13, 39090, Note_on_c, 11, 70, 52
13, 39115, Note_on_c, 11, 70, 0
13, 39120, Note_on_c, 11, 71, 52
13, 39269, Note_on_c, 11, 71, 0
13, 39270, Note_on_c, 11, 73, 52
13, 39299, Note_on_c, 11, 73, 0
13, 39300, Note_on_c, 11, 71, 52
13, 39329, Note_on_c, 11, 71, 0
13, 39330, Note_on_c, 11, 70, 52
13, 39355, Note_on_c, 11, 70, 0
13, 39360, Note_on_c, 11, 68, 52
13, 39509, Note_on_c, 11, 68, 0
13, 39510, Note_on_c, 11, 67, 52
13, 39539, Note_on_c, 11, 67, 0
13, 39540, Note_on_c, 11, 68, 52
13, 39569, Note_on_c, 11, 68, 0
13, 39570, Note_on_c, 11, 70, 52
13, 39595, Note_on_c, 11, 70, 0
13, 39600, Note_on_c, 11, 71, 52
13, 39629, Note_on_c, 11, 71, 0
13, 39630, Note_on_c, 11, 68, 52
13, 39659, Note_on_c, 11, 68, 0
13, 39660, Note_on_c, 11, 65, 52
13, 39689, Note_on_c, 11, 65, 0
13, 39690, Note_on_c, 11, 68, 52
13, 39719, Note_on_c, 11, 68, 0
13, 39720, Note_on_c, 11, 71, 52
13, 39749, Note_on_c, 11, 71, 0
13, 39750, Note_on_c, 11, 75, 52
13, 39779, Note_on_c, 11, 75, 0
13, 39780, Note_on_c, 11, 71, 52
13, 39809, Note_on_c, 11, 71, 0
13, 39810, Note_on_c, 11, 68, 52
13, 39835, Note_on_c, 11, 68, 0
13, 39840, Note_on_c, 11, 65, 52
13, 39959, Note_on_c, 11, 65, 0
13, 39960, Note_on_c, 11, 71, 52
13, 40349, Note_on_c, 11, 71, 0
13, 40350, Note_on_c, 11, 68, 52
13, 40379, Note_on_c, 11, 68, 0
13, 40380, Note_on_c, 11, 65, 52
13, 40409, Note_on_c, 11, 65, 0
13, 40410, Note_on_c, 11, 68, 52
13, 40439, Note_on_c, 11, 68, 0
13, 40440, Note_on_c, 11, 71, 52
13, 40469, Note_on_c, 11, 71, 0
13, 40470, Note_on_c, 11, 75, 52
13, 40499, Note_on_c, 11, 75, 0
13, 40500, Note_on_c, 11, 71, 52
13, 40529, Note_on_c, 11, 71, 0
13, 40530, Note_on_c, 11, 68, 52
13, 40555, Note_on_c, 11, 68, 0
13, 40560, Note_on_c, 11, 65, 52
13, 40679, Note_on_c, 11, 65, 0
13, 40680, Note_on_c, 11, 71, 52
13, 41151, Note_on_c, 11, 71, 0
13, 41160, Note_on_c, 11, 71, 52
13, 41279, Note_on_c, 11, 71, 0
13, 41400, Note_on_c, 11, 72, 52
13, 41519, Note_on_c, 11, 72, 0
13, 41640, Note_on_c, 11, 73, 52
13, 41759, Note_on_c, 11, 73, 0
13, 41760, Control_c, 11, 11, 127
13, 41808, Control_c, 11, 11, 126
13, 41856, Control_c, 11, 11, 125
13, 41880, Note_on_c, 11, 74, 52
13, 41904, Control_c, 11, 11, 124
13, 41952, Control_c, 11, 11, 123
13, 42000, Control_c, 11, 11, 122
13, 42048, Control_c, 11, 11, 121
13, 42096, Control_c, 11, 11, 120
13, 42144, Control_c, 11, 11, 119
13, 42192, Control_c, 11, 11, 118
13, 42239, Note_on_c, 11, 74, 0
13, 42240, Control_c, 11, 11, 117
13, 42240, Note_on_c, 11, 73, 52
13, 42288, Control_c, 11, 11, 116
13, 42336, Control_c, 11, 11, 115
13, 42384, Control_c, 11, 11, 114
13, 42432, Control_c, 11, 11, 113
13, 42471, Note_on_c, 11, 73, 0
13, 42480, Note_on_c, 11, 73, 52
13, 42599, Note_on_c, 11, 73, 0
13, 42960, Control_c, 11, 11, 127
13, 43200, Note_on_c, 11, 70, 44
13, 43311, Note_on_c, 11, 70, 0
13, 43320, Note_on_c, 11, 70, 44
13, 43431, Note_on_c, 11, 70, 0
13, 43440, Note_on_c, 11, 70, 44
13, 43551, Note_on_c, 11, 70, 0
13, 43560, Note_on_c, 11, 70, 44
13, 43671, Note_on_c, 11, 70, 0
13, 43680, Note_on_c, 11, 70, 44
13, 43791, Note_on_c, 11, 70, 0
13, 43800, Note_on_c, 11, 70, 44
13, 43911, Note_on_c, 11, 70, 0
13, 43920, Note_on_c, 11, 68, 44
13, 43920, Note_on_c, 11, 70, 44
13, 44039, Note_on_c, 11, 68, 0
13, 44039, Note_on_c, 11, 70, 0
13, 44640, Note_on_c, 11, 70, 44
13, 44751, Note_on_c, 11, 70, 0
13, 44760, Note_on_c, 11, 70, 44
13, 44871, Note_on_c, 11, 70, 0
13, 44880, Note_on_c, 11, 70, 44
13, 44991, Note_on_c, 11, 70, 0
13, 45000, Note_on_c, 11, 70, 44
13, 45111, Note_on_c, 11, 70, 0
13, 45120, Note_on_c, 11, 70, 44
13, 45231, Note_on_c, 11, 70, 0
13, 45240, Note_on_c, 11, 70, 44
13, 45351, Note_on_c, 11, 70, 0
13, 45360, Note_on_c, 11, 70, 44
13, 45479, Note_on_c, 11, 70, 0
13, 46120, Note_on_c, 11, 70, 44
13, 46159, Note_on_c, 11, 70, 0
13, 46160, Note_on_c, 11, 75, 44
13, 46199, Note_on_c, 11, 75, 0
13, 46240, Note_on_c, 11, 70, 44
13, 46279, Note_on_c, 11, 70, 0
13, 46280, Note_on_c, 11, 75, 44
13, 46319, Note_on_c, 11, 75, 0
13, 46360, Note_on_c, 11, 70, 44
13, 46399, Note_on_c, 11, 70, 0
13, 46400, Note_on_c, 11, 74, 44
13, 46439, Note_on_c, 11, 74, 0
13, 46480, Note_on_c, 11, 70, 44
13, 46519, Note_on_c, 11, 70, 0
13, 46520, Note_on_c, 11, 74, 44
13, 46559, Note_on_c, 11, 74, 0
13, 46600, Note_on_c, 11, 68, 44
13, 46639, Note_on_c, 11, 68, 0
13, 46640, Note_on_c, 11, 72, 44
13, 46679, Note_on_c, 11, 72, 0
13, 46720, Note_on_c, 11, 68, 44
13, 46759, Note_on_c, 11, 68, 0
13, 46760, Note_on_c, 11, 72, 44
13, 46799, Note_on_c, 11, 72, 0
13, 46840, Note_on_c, 11, 65, 44
13, 46879, Note_on_c, 11, 65, 0
13, 46880, Note_on_c, 11, 70, 44
13, 46919, Note_on_c, 11, 70, 0
13, 46960, Note_on_c, 11, 65, 44
13, 46999, Note_on_c, 11, 65, 0
13, 47000, Note_on_c, 11, 70, 44
13, 47039, Note_on_c, 11, 70, 0
13, 47080, Note_on_c, 11, 65, 44
13, 47119, Note_on_c, 11, 65, 0
13, 47120, Note_on_c, 11, 70, 44
13, 47159, Note_on_c, 11, 70, 0
13, 47200, Note_on_c, 11, 65, 44
13, 47239, Note_on_c, 11, 65, 0
13, 47240, Note_on_c, 11, 68, 44
13, 47279, Note_on_c, 11, 68, 0
13, 47320, Note_on_c, 11, 63, 44
13, 47359, Note_on_c, 11, 63, 0
13, 47360, Note_on_c, 11, 67, 44
13, 47399, Note_on_c, 11, 67, 0
13, 47440, Note_on_c, 11, 60, 44
13, 47479, Note_on_c, 11, 60, 0
13, 47480, Note_on_c, 11, 65, 44
13, 47519, Note_on_c, 11, 65, 0
13, 47560, Note_on_c, 11, 58, 44
13, 47599, Note_on_c, 11, 58, 0
13, 47600, Note_on_c, 11, 63, 44
13, 47639, Note_on_c, 11, 63, 0
13, 47680, Note_on_c, 11, 58, 44
13, 47719, Note_on_c, 11, 58, 0
13, 47720, Note_on_c, 11, 63, 44
13, 47759, Note_on_c, 11, 63, 0
13, 47800, Note_on_c, 11, 58, 44
13, 47839, Note_on_c, 11, 58, 0
13, 47840, Note_on_c, 11, 62, 44
13, 47879, Note_on_c, 11, 62, 0
13, 47920, Note_on_c, 11, 58, 44
13, 47959, Note_on_c, 11, 58, 0
13, 47960, Note_on_c, 11, 63, 44
13, 47999, Note_on_c, 11, 63, 0
13, 48040, Note_on_c, 11, 58, 44
13, 48079, Note_on_c, 11, 58, 0
13, 48080, Note_on_c, 11, 65, 44
13, 48119, Note_on_c, 11, 65, 0
13, 48160, Note_on_c, 11, 67, 44
13, 48199, Note_on_c, 11, 67, 0
13, 48200, Note_on_c, 11, 69, 44
13, 48239, Note_on_c, 11, 69, 0
13, 48280, Note_on_c, 11, 63, 44
13, 48319, Note_on_c, 11, 63, 0
13, 48320, Note_on_c, 11, 69, 45
13, 48359, Note_on_c, 11, 69, 0
13, 48400, Note_on_c, 11, 63, 47
13, 48439, Note_on_c, 11, 63, 0
13, 48440, Note_on_c, 11, 69, 48
13, 48479, Note_on_c, 11, 69, 0
13, 48520, Note_on_c, 11, 62, 50
13, 48559, Note_on_c, 11, 62, 0
13, 48560, Note_on_c, 11, 70, 51
13, 48599, Note_on_c, 11, 70, 0
13, 48640, Note_on_c, 11, 65, 52
13, 48679, Note_on_c, 11, 65, 0
13, 48680, Note_on_c, 11, 70, 53
13, 48719, Note_on_c, 11, 70, 0
13, 48760, Note_on_c, 11, 65, 55
13, 48799, Note_on_c, 11, 65, 0
13, 48800, Note_on_c, 11, 71, 56
13, 48839, Note_on_c, 11, 71, 0
13, 48880, Note_on_c, 11, 71, 58
13, 48919, Note_on_c, 11, 71, 0
13, 48920, Note_on_c, 11, 72, 59
13, 48951, Note_on_c, 11, 72, 0
13, 48960, Note_on_c, 11, 72, 52
13, 48991, Note_on_c, 11, 72, 0
13, 49000, Note_on_c, 11, 60, 52
13, 49039, Note_on_c, 11, 60, 0
13, 49040, Note_on_c, 11, 65, 52
13, 49079, Note_on_c, 11, 65, 0
13, 49120, Note_on_c, 11, 60, 52
13, 49159, Note_on_c, 11, 60, 0
13, 49160, Note_on_c, 11, 65, 52
13, 49199, Note_on_c, 11, 65, 0
13, 49240, Note_on_c, 11, 60, 52
13, 49279, Note_on_c, 11, 60, 0
13, 49280, Note_on_c, 11, 65, 52
13, 49319, Note_on_c, 11, 65, 0
13, 49360, Note_on_c, 11, 60, 52
13, 49399, Note_on_c, 11, 60, 0
13, 49400, Note_on_c, 11, 65, 52
13, 49439, Note_on_c, 11, 65, 0
13, 49480, Note_on_c, 11, 60, 52
13, 49519, Note_on_c, 11, 60, 0
13, 49520, Note_on_c, 11, 65, 52
13, 49559, Note_on_c, 11, 65, 0
13, 49600, Note_on_c, 11, 60, 52
13, 49639, Note_on_c, 11, 60, 0
13, 49640, Note_on_c, 11, 65, 52
13, 49679, Note_on_c, 11, 65, 0
13, 49720, Note_on_c, 11, 62, 52
13, 49759, Note_on_c, 11, 62, 0
13, 49760, Note_on_c, 11, 68, 52
13, 49799, Note_on_c, 11, 68, 0
13, 49840, Note_on_c, 11, 62, 52
13, 49879, Note_on_c, 11, 62, 0
13, 49880, Note_on_c, 11, 68, 52
13, 49919, Note_on_c, 11, 68, 0
13, 49960, Note_on_c, 11, 65, 52
13, 49999, Note_on_c, 11, 65, 0
13, 50000, Note_on_c, 11, 68, 52
13, 50039, Note_on_c, 11, 68, 0
13, 50080, Note_on_c, 11, 60, 52
13, 50119, Note_on_c, 11, 60, 0
13, 50120, Note_on_c, 11, 67, 52
13, 50159, Note_on_c, 11, 67, 0
13, 50200, Note_on_c, 11, 60, 52
13, 50239, Note_on_c, 11, 60, 0
13, 50240, Note_on_c, 11, 68, 52
13, 50279, Note_on_c, 11, 68, 0
13, 50320, Note_on_c, 11, 68, 52
13, 50359, Note_on_c, 11, 68, 0
13, 50360, Note_on_c, 11, 72, 52
13, 50399, Note_on_c, 11, 72, 0
13, 50440, Note_on_c, 11, 67, 53
13, 50479, Note_on_c, 11, 67, 0
13, 50480, Note_on_c, 11, 70, 54
13, 50519, Note_on_c, 11, 70, 0
13, 50560, Note_on_c, 11, 67, 57
13, 50599, Note_on_c, 11, 67, 0
13, 50600, Note_on_c, 11, 70, 58
13, 50639, Note_on_c, 11, 70, 0
13, 50680, Note_on_c, 11, 67, 61
13, 50719, Note_on_c, 11, 67, 0
13, 50720, Note_on_c, 11, 70, 62
13, 50759, Note_on_c, 11, 70, 0
13, 50800, Note_on_c, 11, 67, 65
13, 50839, Note_on_c, 11, 67, 0
13, 50840, Note_on_c, 11, 70, 66
13, 50879, Note_on_c, 11, 70, 0
13, 50920, Note_on_c, 11, 68, 69
13, 50959, Note_on_c, 11, 68, 0
13, 50960, Note_on_c, 11, 70, 70
13, 50999, Note_on_c, 11, 70, 0
13, 51040, Note_on_c, 11, 65, 73
13, 51079, Note_on_c, 11, 65, 0
13, 51080, Note_on_c, 11, 70, 74
13, 51111, Note_on_c, 11, 70, 0
13, 51120, Note_on_c, 11, 67, 76
13, 51239, Note_on_c, 11, 67, 0
13, 51630, Note_on_c, 11, 70, 76
13, 51659, Note_on_c, 11, 70, 0
13, 51660, Note_on_c, 11, 67, 76
13, 51689, Note_on_c, 11, 67, 0
13, 51690, Note_on_c, 11, 70, 76
13, 51719, Note_on_c, 11, 70, 0
13, 51720, Note_on_c, 11, 75, 84
13, 51749, Note_on_c, 11, 75, 0
13, 51750, Note_on_c, 11, 79, 76
13, 51779, Note_on_c, 11, 79, 0
13, 51780, Note_on_c, 11, 75, 76
13, 51809, Note_on_c, 11, 75, 0
13, 51810, Note_on_c, 11, 70, 76
13, 51835, Note_on_c, 11, 70, 0
13, 51840, Note_on_c, 11, 80, 76
13, 51840, Note_on_c, 11, 70, 76
13, 51840, Note_on_c, 11, 62, 76
13, 51869, Note_on_c, 11, 80, 0
13, 51869, Note_on_c, 11, 70, 0
13, 51869, Note_on_c, 11, 62, 0
13, 51870, Note_on_c, 11, 62, 52
13, 51870, Note_on_c, 11, 70, 52
13, 51870, Note_on_c, 11, 80, 52
13, 52019, Note_on_c, 11, 62, 0
13, 52019, Note_on_c, 11, 70, 0
13, 52019, Note_on_c, 11, 80, 0
13, 52020, Note_on_c, 11, 77, 52
13, 52079, Note_on_c, 11, 77, 0
13, 52080, Note_on_c, 11, 74, 52
13, 52139, Note_on_c, 11, 74, 0
13, 52140, Note_on_c, 11, 75, 52
13, 52199, Note_on_c, 11, 75, 0
13, 52200, Note_on_c, 11, 77, 52
13, 52259, Note_on_c, 11, 77, 0
13, 52260, Note_on_c, 11, 74, 52
13, 52319, Note_on_c, 11, 74, 0
13, 52320, Note_on_c, 11, 70, 52
13, 52379, Note_on_c, 11, 70, 0
13, 52380, Note_on_c, 11, 72, 52
13, 52439, Note_on_c, 11, 72, 0
13, 52440, Note_on_c, 11, 68, 52
13, 52499, Note_on_c, 11, 68, 0
13, 52500, Note_on_c, 11, 65, 52
13, 52555, Note_on_c, 11, 65, 0
13, 52560, Note_on_c, 11, 63, 76
13, 52560, Note_on_c, 11, 55, 76
13, 52679, Note_on_c, 11, 63, 0
13, 52679, Note_on_c, 11, 55, 0
13, 53070, Note_on_c, 11, 70, 76
13, 53099, Note_on_c, 11, 70, 0
13, 53100, Note_on_c, 11, 67, 76
13, 53129, Note_on_c, 11, 67, 0
13, 53130, Note_on_c, 11, 70, 76
13, 53159, Note_on_c, 11, 70, 0
13, 53160, Note_on_c, 11, 75, 84
13, 53189, Note_on_c, 11, 75, 0
13, 53190, Note_on_c, 11, 79, 76
13, 53219, Note_on_c, 11, 79, 0
13, 53220, Note_on_c, 11, 75, 76
13, 53249, Note_on_c, 11, 75, 0
13, 53250, Note_on_c, 11, 70, 76
13, 53275, Note_on_c, 11, 70, 0
13, 53280, Note_on_c, 11, 85, 76
13, 53309, Note_on_c, 11, 85, 0
13, 53310, Note_on_c, 11, 85, 52
13, 53429, Note_on_c, 11, 85, 0
13, 53460, Note_on_c, 11, 82, 52
13, 53519, Note_on_c, 11, 82, 0
13, 53520, Note_on_c, 11, 79, 52
13, 53579, Note_on_c, 11, 79, 0
13, 53580, Note_on_c, 11, 80, 52
13, 53639, Note_on_c, 11, 80, 0
13, 53640, Note_on_c, 11, 82, 52
13, 53699, Note_on_c, 11, 82, 0
13, 53700, Note_on_c, 11, 79, 52
13, 53759, Note_on_c, 11, 79, 0
13, 53760, Note_on_c, 11, 76, 52
13, 53819, Note_on_c, 11, 76, 0
13, 53820, Note_on_c, 11, 73, 52
13, 53879, Note_on_c, 11, 73, 0
13, 53880, Note_on_c, 11, 72, 52
13, 53939, Note_on_c, 11, 72, 0
13, 53940, Note_on_c, 11, 70, 52
13, 53995, Note_on_c, 11, 70, 0
13, 54000, Note_on_c, 11, 68, 76
13, 54119, Note_on_c, 11, 68, 0
13, 54510, Note_on_c, 11, 77, 76
13, 54539, Note_on_c, 11, 77, 0
13, 54540, Note_on_c, 11, 72, 76
13, 54569, Note_on_c, 11, 72, 0
13, 54570, Note_on_c, 11, 77, 76
13, 54591, Note_on_c, 11, 77, 0
13, 54600, Note_on_c, 11, 80, 76
13, 54621, Note_on_c, 11, 80, 0
13, 54630, Note_on_c, 11, 80, 76
13, 54651, Note_on_c, 11, 80, 0
13, 54660, Note_on_c, 11, 80, 76
13, 54681, Note_on_c, 11, 80, 0
13, 54690, Note_on_c, 11, 80, 76
13, 54711, Note_on_c, 11, 80, 0
13, 54720, Note_on_c, 11, 80, 76
13, 54749, Note_on_c, 11, 80, 0
13, 54750, Note_on_c, 11, 77, 52
13, 54779, Note_on_c, 11, 77, 0
13, 54780, Note_on_c, 11, 76, 52
13, 54809, Note_on_c, 11, 76, 0
13, 54810, Note_on_c, 11, 77, 52
13, 54839, Note_on_c, 11, 77, 0
13, 54840, Note_on_c, 11, 80, 52
13, 54869, Note_on_c, 11, 80, 0
13, 54870, Note_on_c, 11, 77, 52
13, 54899, Note_on_c, 11, 77, 0
13, 54900, Note_on_c, 11, 79, 52
13, 54929, Note_on_c, 11, 79, 0
13, 54930, Note_on_c, 11, 75, 52
13, 54959, Note_on_c, 11, 75, 0
13, 54960, Note_on_c, 11, 77, 52
13, 54989, Note_on_c, 11, 77, 0
13, 54990, Note_on_c, 11, 74, 52
13, 55019, Note_on_c, 11, 74, 0
13, 55020, Note_on_c, 11, 75, 52
13, 55049, Note_on_c, 11, 75, 0
13, 55050, Note_on_c, 11, 72, 52
13, 55079, Note_on_c, 11, 72, 0
13, 55080, Note_on_c, 11, 74, 52
13, 55109, Note_on_c, 11, 74, 0
13, 55110, Note_on_c, 11, 70, 52
13, 55139, Note_on_c, 11, 70, 0
13, 55140, Note_on_c, 11, 72, 52
13, 55169, Note_on_c, 11, 72, 0
13, 55170, Note_on_c, 11, 69, 52
13, 55199, Note_on_c, 11, 69, 0
13, 55200, Note_on_c, 11, 70, 52
13, 55229, Note_on_c, 11, 70, 0
13, 55230, Note_on_c, 11, 74, 52
13, 55259, Note_on_c, 11, 74, 0
13, 55260, Note_on_c, 11, 75, 52
13, 55289, Note_on_c, 11, 75, 0
13, 55290, Note_on_c, 11, 77, 52
13, 55319, Note_on_c, 11, 77, 0
13, 55320, Note_on_c, 11, 79, 52
13, 55349, Note_on_c, 11, 79, 0
13, 55350, Note_on_c, 11, 80, 52
13, 55379, Note_on_c, 11, 80, 0
13, 55380, Note_on_c, 11, 82, 52
13, 55409, Note_on_c, 11, 82, 0
13, 55410, Note_on_c, 11, 83, 52
13, 55435, Note_on_c, 11, 83, 0
13, 55440, Note_on_c, 11, 84, 76
13, 55469, Note_on_c, 11, 84, 0
13, 55470, Note_on_c, 11, 80, 52
13, 55499, Note_on_c, 11, 80, 0
13, 55500, Note_on_c, 11, 79, 52
13, 55529, Note_on_c, 11, 79, 0
13, 55530, Note_on_c, 11, 80, 52
13, 55559, Note_on_c, 11, 80, 0
13, 55560, Note_on_c, 11, 84, 52
13, 55589, Note_on_c, 11, 84, 0
13, 55590, Note_on_c, 11, 80, 52
13, 55619, Note_on_c, 11, 80, 0
13, 55620, Note_on_c, 11, 82, 52
13, 55649, Note_on_c, 11, 82, 0
13, 55650, Note_on_c, 11, 79, 52
13, 55679, Note_on_c, 11, 79, 0
13, 55680, Note_on_c, 11, 80, 52
13, 55709, Note_on_c, 11, 80, 0
13, 55710, Note_on_c, 11, 77, 52
13, 55739, Note_on_c, 11, 77, 0
13, 55740, Note_on_c, 11, 79, 52
13, 55769, Note_on_c, 11, 79, 0
13, 55770, Note_on_c, 11, 75, 52
13, 55799, Note_on_c, 11, 75, 0
13, 55800, Note_on_c, 11, 77, 52
13, 55829, Note_on_c, 11, 77, 0
13, 55830, Note_on_c, 11, 74, 52
13, 55859, Note_on_c, 11, 74, 0
13, 55860, Note_on_c, 11, 75, 52
13, 55889, Note_on_c, 11, 75, 0
13, 55890, Note_on_c, 11, 72, 52
13, 55919, Note_on_c, 11, 72, 0
13, 55920, Note_on_c, 11, 74, 52
13, 55945, Note_on_c, 11, 74, 0
13, 55950, Note_on_c, 11, 82, 52
13, 55950, Note_on_c, 11, 70, 52
13, 55975, Note_on_c, 11, 82, 0
13, 55975, Note_on_c, 11, 70, 0
13, 55980, Note_on_c, 11, 82, 52
13, 55980, Note_on_c, 11, 70, 52
13, 56005, Note_on_c, 11, 82, 0
13, 56005, Note_on_c, 11, 70, 0
13, 56010, Note_on_c, 11, 70, 52
13, 56010, Note_on_c, 11, 82, 52
13, 56035, Note_on_c, 11, 70, 0
13, 56035, Note_on_c, 11, 82, 0
13, 56040, Note_on_c, 11, 82, 52
13, 56040, Note_on_c, 11, 70, 52
13, 56065, Note_on_c, 11, 82, 0
13, 56065, Note_on_c, 11, 70, 0
13, 56070, Note_on_c, 11, 82, 52
13, 56070, Note_on_c, 11, 70, 52
13, 56095, Note_on_c, 11, 82, 0
13, 56095, Note_on_c, 11, 70, 0
13, 56100, Note_on_c, 11, 82, 52
13, 56100, Note_on_c, 11, 70, 52
13, 56125, Note_on_c, 11, 82, 0
13, 56125, Note_on_c, 11, 70, 0
13, 56130, Note_on_c, 11, 70, 52
13, 56130, Note_on_c, 11, 82, 52
13, 56155, Note_on_c, 11, 70, 0
13, 56155, Note_on_c, 11, 82, 0
13, 56160, Note_on_c, 11, 82, 52
13, 56160, Note_on_c, 11, 70, 52
13, 56185, Note_on_c, 11, 82, 0
13, 56185, Note_on_c, 11, 70, 0
13, 56190, Note_on_c, 11, 70, 53
13, 56190, Note_on_c, 11, 82, 53
13, 56215, Note_on_c, 11, 70, 0
13, 56215, Note_on_c, 11, 82, 0
13, 56220, Note_on_c, 11, 70, 54
13, 56220, Note_on_c, 11, 82, 54
13, 56245, Note_on_c, 11, 70, 0
13, 56245, Note_on_c, 11, 82, 0
13, 56250, Note_on_c, 11, 70, 55
13, 56250, Note_on_c, 11, 82, 55
13, 56275, Note_on_c, 11, 70, 0
13, 56275, Note_on_c, 11, 82, 0
13, 56280, Note_on_c, 11, 82, 56
13, 56280, Note_on_c, 11, 70, 56
13, 56305, Note_on_c, 11, 82, 0
13, 56305, Note_on_c, 11, 70, 0
13, 56310, Note_on_c, 11, 70, 57
13, 56310, Note_on_c, 11, 82, 57
13, 56335, Note_on_c, 11, 70, 0
13, 56335, Note_on_c, 11, 82, 0
13, 56340, Note_on_c, 11, 82, 58
13, 56340, Note_on_c, 11, 70, 58
13, 56365, Note_on_c, 11, 82, 0
13, 56365, Note_on_c, 11, 70, 0
13, 56370, Note_on_c, 11, 82, 59
13, 56370, Note_on_c, 11, 70, 59
13, 56395, Note_on_c, 11, 82, 0
13, 56395, Note_on_c, 11, 70, 0
13, 56400, Note_on_c, 11, 70, 60
13, 56400, Note_on_c, 11, 82, 60
13, 56425, Note_on_c, 11, 70, 0
13, 56425, Note_on_c, 11, 82, 0
13, 56430, Note_on_c, 11, 70, 61
13, 56430, Note_on_c, 11, 82, 61
13, 56455, Note_on_c, 11, 70, 0
13, 56455, Note_on_c, 11, 82, 0
13, 56460, Note_on_c, 11, 82, 62
13, 56460, Note_on_c, 11, 70, 62
13, 56485, Note_on_c, 11, 82, 0
13, 56485, Note_on_c, 11, 70, 0
13, 56490, Note_on_c, 11, 82, 63
13, 56490, Note_on_c, 11, 70, 63
13, 56515, Note_on_c, 11, 82, 0
13, 56515, Note_on_c, 11, 70, 0
13, 56520, Note_on_c, 11, 70, 64
13, 56520, Note_on_c, 11, 82, 64
13, 56545, Note_on_c, 11, 70, 0
13, 56545, Note_on_c, 11, 82, 0
13, 56550, Note_on_c, 11, 82, 65
13, 56550, Note_on_c, 11, 70, 65
13, 56575, Note_on_c, 11, 82, 0
13, 56575, Note_on_c, 11, 70, 0
13, 56580, Note_on_c, 11, 82, 66
13, 56580, Note_on_c, 11, 70, 66
13, 56605, Note_on_c, 11, 82, 0
13, 56605, Note_on_c, 11, 70, 0
13, 56610, Note_on_c, 11, 82, 67
13, 56610, Note_on_c, 11, 70, 67
13, 56635, Note_on_c, 11, 82, 0
13, 56635, Note_on_c, 11, 70, 0
13, 56640, Note_on_c, 11, 70, 68
13, 56640, Note_on_c, 11, 82, 68
13, 56665, Note_on_c, 11, 70, 0
13, 56665, Note_on_c, 11, 82, 0
13, 56670, Note_on_c, 11, 82, 69
13, 56670, Note_on_c, 11, 70, 69
13, 56695, Note_on_c, 11, 82, 0
13, 56695, Note_on_c, 11, 70, 0
13, 56700, Note_on_c, 11, 82, 70
13, 56700, Note_on_c, 11, 70, 70
13, 56725, Note_on_c, 11, 82, 0
13, 56725, Note_on_c, 11, 70, 0
13, 56730, Note_on_c, 11, 82, 71
13, 56730, Note_on_c, 11, 70, 71
13, 56755, Note_on_c, 11, 82, 0
13, 56755, Note_on_c, 11, 70, 0
13, 56760, Note_on_c, 11, 70, 72
13, 56760, Note_on_c, 11, 82, 72
13, 56785, Note_on_c, 11, 70, 0
13, 56785, Note_on_c, 11, 82, 0
13, 56790, Note_on_c, 11, 70, 73
13, 56790, Note_on_c, 11, 82, 73
13, 56815, Note_on_c, 11, 70, 0
13, 56815, Note_on_c, 11, 82, 0
13, 56820, Note_on_c, 11, 70, 74
13, 56820, Note_on_c, 11, 82, 74
13, 56845, Note_on_c, 11, 70, 0
13, 56845, Note_on_c, 11, 82, 0
13, 56850, Note_on_c, 11, 82, 75
13, 56850, Note_on_c, 11, 70, 75
13, 56875, Note_on_c, 11, 82, 0
13, 56875, Note_on_c, 11, 70, 0
13, 56880, Note_on_c, 11, 70, 76
13, 56880, Note_on_c, 11, 82, 76
13, 56905, Note_on_c, 11, 70, 0
13, 56905, Note_on_c, 11, 82, 0
13, 56910, Note_on_c, 11, 82, 76
13, 56910, Note_on_c, 11, 70, 76
13, 56935, Note_on_c, 11, 82, 0
13, 56935, Note_on_c, 11, 70, 0
13, 56940, Note_on_c, 11, 82, 76
13, 56940, Note_on_c, 11, 70, 76
13, 56965, Note_on_c, 11, 82, 0
13, 56965, Note_on_c, 11, 70, 0
13, 56970, Note_on_c, 11, 70, 76
13, 56970, Note_on_c, 11, 82, 76
13, 56995, Note_on_c, 11, 70, 0
13, 56995, Note_on_c, 11, 82, 0
13, 57000, Note_on_c, 11, 82, 76
13, 57000, Note_on_c, 11, 70, 76
13, 57025, Note_on_c, 11, 82, 0
13, 57025, Note_on_c, 11, 70, 0
13, 57030, Note_on_c, 11, 70, 76
13, 57030, Note_on_c, 11, 82, 76
13, 57055, Note_on_c, 11, 70, 0
13, 57055, Note_on_c, 11, 82, 0
13, 57060, Note_on_c, 11, 82, 76
13, 57060, Note_on_c, 11, 70, 76
13, 57085, Note_on_c, 11, 82, 0
13, 57085, Note_on_c, 11, 70, 0
13, 57090, Note_on_c, 11, 82, 76
13, 57090, Note_on_c, 11, 70, 76
13, 57115, Note_on_c, 11, 82, 0
13, 57115, Note_on_c, 11, 70, 0
13, 57120, Note_on_c, 11, 70, 76
13, 57120, Note_on_c, 11, 82, 76
13, 57145, Note_on_c, 11, 70, 0
13, 57145, Note_on_c, 11, 82, 0
13, 57150, Note_on_c, 11, 82, 76
13, 57150, Note_on_c, 11, 70, 76
13, 57175, Note_on_c, 11, 82, 0
13, 57175, Note_on_c, 11, 70, 0
13, 57180, Note_on_c, 11, 70, 76
13, 57180, Note_on_c, 11, 82, 76
13, 57205, Note_on_c, 11, 70, 0
13, 57205, Note_on_c, 11, 82, 0
13, 57210, Note_on_c, 11, 82, 76
13, 57210, Note_on_c, 11, 70, 76
13, 57235, Note_on_c, 11, 82, 0
13, 57235, Note_on_c, 11, 70, 0
13, 57240, Note_on_c, 11, 70, 76
13, 57240, Note_on_c, 11, 82, 76
13, 57265, Note_on_c, 11, 70, 0
13, 57265, Note_on_c, 11, 82, 0
13, 57270, Note_on_c, 11, 70, 76
13, 57270, Note_on_c, 11, 82, 76
13, 57295, Note_on_c, 11, 70, 0
13, 57295, Note_on_c, 11, 82, 0
13, 57300, Note_on_c, 11, 70, 76
13, 57300, Note_on_c, 11, 82, 76
13, 57325, Note_on_c, 11, 70, 0
13, 57325, Note_on_c, 11, 82, 0
13, 57330, Note_on_c, 11, 82, 76
13, 57330, Note_on_c, 11, 70, 76
13, 57355, Note_on_c, 11, 82, 0
13, 57355, Note_on_c, 11, 70, 0
13, 57360, Note_on_c, 11, 70, 76
13, 57360, Note_on_c, 11, 82, 76
13, 57385, Note_on_c, 11, 70, 0
13, 57385, Note_on_c, 11, 82, 0
13, 57390, Note_on_c, 11, 70, 72
13, 57390, Note_on_c, 11, 82, 72
13, 57415, Note_on_c, 11, 70, 0
13, 57415, Note_on_c, 11, 82, 0
13, 57420, Note_on_c, 11, 82, 68
13, 57420, Note_on_c, 11, 70, 68
13, 57445, Note_on_c, 11, 82, 0
13, 57445, Note_on_c, 11, 70, 0
13, 57450, Note_on_c, 11, 82, 64
13, 57450, Note_on_c, 11, 70, 64
13, 57475, Note_on_c, 11, 82, 0
13, 57475, Note_on_c, 11, 70, 0
13, 57480, Note_on_c, 11, 70, 60
13, 57480, Note_on_c, 11, 82, 60
13, 57505, Note_on_c, 11, 70, 0
13, 57505, Note_on_c, 11, 82, 0
13, 57510, Note_on_c, 11, 70, 56
13, 57535, Note_on_c, 11, 70, 0
13, 57540, Note_on_c, 11, 72, 52
13, 57565, Note_on_c, 11, 72, 0
13, 57570, Note_on_c, 11, 74, 48
13, 57595, Note_on_c, 11, 74, 0
13, 57600, Note_on_c, 11, 75, 44
13, 57715, Note_on_c, 11, 75, 0
13, 58360, Note_on_c, 11, 62, 44
13, 58399, Note_on_c, 11, 62, 0
13, 58400, Note_on_c, 11, 65, 44
13, 58439, Note_on_c, 11, 65, 0
13, 58440, Note_on_c, 11, 68, 44
13, 58479, Note_on_c, 11, 68, 0
13, 58480, Note_on_c, 11, 71, 44
13, 58519, Note_on_c, 11, 71, 0
13, 58520, Note_on_c, 11, 74, 44
13, 58555, Note_on_c, 11, 74, 0
13, 58560, Note_on_c, 11, 77, 44
13, 59031, Note_on_c, 11, 77, 0
13, 59040, Note_on_c, 11, 79, 44
13, 59069, Note_on_c, 11, 79, 0
13, 59080, Note_on_c, 11, 81, 44
13, 59119, Note_on_c, 11, 81, 0
13, 59120, Note_on_c, 11, 82, 44
13, 59159, Note_on_c, 11, 82, 0
13, 59200, Note_on_c, 11, 82, 44
13, 59239, Note_on_c, 11, 82, 0
13, 59240, Note_on_c, 11, 85, 44
13, 59279, Note_on_c, 11, 85, 0
13, 59320, Note_on_c, 11, 85, 44
13, 59359, Note_on_c, 11, 85, 0
13, 59360, Note_on_c, 11, 84, 44
13, 59399, Note_on_c, 11, 84, 0
13, 59440, Note_on_c, 11, 84, 44
13, 59479, Note_on_c, 11, 84, 0
13, 59480, Note_on_c, 11, 82, 44
13, 59519, Note_on_c, 11, 82, 0
13, 59560, Note_on_c, 11, 82, 44
13, 59599, Note_on_c, 11, 82, 0
13, 59600, Note_on_c, 11, 80, 44
13, 59639, Note_on_c, 11, 80, 0
13, 59680, Note_on_c, 11, 80, 44
13, 59719, Note_on_c, 11, 80, 0
13, 59720, Note_on_c, 11, 79, 44
13, 59759, Note_on_c, 11, 79, 0
13, 59800, Note_on_c, 11, 79, 44
13, 59839, Note_on_c, 11, 79, 0
13, 59840, Note_on_c, 11, 80, 44
13, 59879, Note_on_c, 11, 80, 0
13, 59920, Note_on_c, 11, 80, 44
13, 59959, Note_on_c, 11, 80, 0
13, 59960, Note_on_c, 11, 84, 44
13, 59999, Note_on_c, 11, 84, 0
13, 60040, Note_on_c, 11, 84, 44
13, 60079, Note_on_c, 11, 84, 0
13, 60080, Note_on_c, 11, 82, 44
13, 60119, Note_on_c, 11, 82, 0
13, 60160, Note_on_c, 11, 82, 44
13, 60199, Note_on_c, 11, 82, 0
13, 60200, Note_on_c, 11, 80, 44
13, 60239, Note_on_c, 11, 80, 0
13, 60280, Note_on_c, 11, 80, 44
13, 60319, Note_on_c, 11, 80, 0
13, 60320, Note_on_c, 11, 79, 44
13, 60359, Note_on_c, 11, 79, 0
13, 60400, Note_on_c, 11, 79, 44
13, 60439, Note_on_c, 11, 79, 0
13, 60440, Note_on_c, 11, 77, 44
13, 60479, Note_on_c, 11, 77, 0
13, 60520, Note_on_c, 11, 78, 44
13, 60559, Note_on_c, 11, 78, 0
13, 60560, Note_on_c, 11, 79, 45
13, 60599, Note_on_c, 11, 79, 0
13, 60640, Note_on_c, 11, 58, 47
13, 60679, Note_on_c, 11, 58, 0
13, 60680, Note_on_c, 11, 63, 48
13, 60719, Note_on_c, 11, 63, 0
13, 60760, Note_on_c, 11, 63, 50
13, 60799, Note_on_c, 11, 63, 0
13, 60800, Note_on_c, 11, 67, 51
13, 60839, Note_on_c, 11, 67, 0
13, 60880, Note_on_c, 11, 67, 52
13, 60919, Note_on_c, 11, 67, 0
13, 60920, Note_on_c, 11, 70, 53
13, 60959, Note_on_c, 11, 70, 0
13, 61000, Note_on_c, 11, 70, 55
13, 61039, Note_on_c, 11, 70, 0
13, 61040, Note_on_c, 11, 75, 56
13, 61079, Note_on_c, 11, 75, 0
13, 61120, Note_on_c, 11, 75, 58
13, 61159, Note_on_c, 11, 75, 0
13, 61160, Note_on_c, 11, 79, 59
13, 61199, Note_on_c, 11, 79, 0
13, 61240, Note_on_c, 11, 79, 52
13, 61279, Note_on_c, 11, 79, 0
13, 61280, Note_on_c, 11, 77, 52
13, 61319, Note_on_c, 11, 77, 0
13, 61360, Note_on_c, 11, 80, 52
13, 61399, Note_on_c, 11, 80, 0
13, 61400, Note_on_c, 11, 72, 52
13, 61439, Note_on_c, 11, 72, 0
13, 61480, Note_on_c, 11, 77, 52
13, 61519, Note_on_c, 11, 77, 0
13, 61520, Note_on_c, 11, 75, 52
13, 61559, Note_on_c, 11, 75, 0
13, 61600, Note_on_c, 11, 79, 52
13, 61639, Note_on_c, 11, 79, 0
13, 61640, Note_on_c, 11, 70, 52
13, 61679, Note_on_c, 11, 70, 0
13, 61720, Note_on_c, 11, 75, 52
13, 61759, Note_on_c, 11, 75, 0
13, 61760, Note_on_c, 11, 74, 52
13, 61799, Note_on_c, 11, 74, 0
13, 61840, Note_on_c, 11, 77, 52
13, 61879, Note_on_c, 11, 77, 0
13, 61880, Note_on_c, 11, 70, 52
13, 61919, Note_on_c, 11, 70, 0
13, 61960, Note_on_c, 11, 58, 53
13, 61999, Note_on_c, 11, 58, 0
13, 62000, Note_on_c, 11, 61, 54
13, 62039, Note_on_c, 11, 61, 0
13, 62080, Note_on_c, 11, 61, 57
13, 62119, Note_on_c, 11, 61, 0
13, 62120, Note_on_c, 11, 64, 58
13, 62159, Note_on_c, 11, 64, 0
13, 62200, Note_on_c, 11, 64, 61
13, 62239, Note_on_c, 11, 64, 0
13, 62240, Note_on_c, 11, 67, 62
13, 62279, Note_on_c, 11, 67, 0
13, 62320, Note_on_c, 11, 67, 65
13, 62359, Note_on_c, 11, 67, 0
13, 62360, Note_on_c, 11, 70, 66
13, 62399, Note_on_c, 11, 70, 0
13, 62440, Note_on_c, 11, 70, 69
13, 62479, Note_on_c, 11, 70, 0
13, 62480, Note_on_c, 11, 76, 70
13, 62519, Note_on_c, 11, 76, 0
13, 62560, Note_on_c, 11, 76, 73
13, 62599, Note_on_c, 11, 76, 0
13, 62600, Note_on_c, 11, 79, 74
13, 62639, Note_on_c, 11, 79, 0
13, 62680, Note_on_c, 11, 79, 76
13, 62719, Note_on_c, 11, 79, 0
13, 62720, Note_on_c, 11, 82, 76
13, 62759, Note_on_c, 11, 82, 0
13, 62800, Note_on_c, 11, 79, 76
13, 62839, Note_on_c, 11, 79, 0
13, 62840, Note_on_c, 11, 82, 76
13, 62879, Note_on_c, 11, 82, 0
13, 62920, Note_on_c, 11, 80, 76
13, 62959, Note_on_c, 11, 80, 0
13, 62960, Note_on_c, 11, 79, 76
13, 62999, Note_on_c, 11, 79, 0
13, 63000, Note_on_c, 11, 80, 76
13, 63039, Note_on_c, 11, 80, 0
13, 63040, Note_on_c, 11, 82, 76
13, 63079, Note_on_c, 11, 82, 0
13, 63080, Note_on_c, 11, 84, 76
13, 63119, Note_on_c, 11, 84, 0
13, 63160, Note_on_c, 11, 75, 76
13, 63199, Note_on_c, 11, 75, 0
13, 63200, Note_on_c, 11, 79, 76
13, 63239, Note_on_c, 11, 79, 0
13, 63280, Note_on_c, 11, 74, 76
13, 63319, Note_on_c, 11, 74, 0
13, 63320, Note_on_c, 11, 77, 76
13, 63359, Note_on_c, 11, 77, 0
13, 63360, Note_on_c, 11, 75, 52
13, 63479, Note_on_c, 11, 75, 0
13, 65520, Note_on_c, 11, 80, 52
13, 65549, Note_on_c, 11, 80, 0
13, 65550, Note_on_c, 11, 82, 52
13, 65579, Note_on_c, 11, 82, 0
13, 65580, Note_on_c, 11, 80, 52
13, 65609, Note_on_c, 11, 80, 0
13, 65610, Note_on_c, 11, 79, 52
13, 65639, Note_on_c, 11, 79, 0
13, 65640, Note_on_c, 11, 80, 52
13, 65669, Note_on_c, 11, 80, 0
13, 65670, Note_on_c, 11, 82, 52
13, 65699, Note_on_c, 11, 82, 0
13, 65700, Note_on_c, 11, 84, 52
13, 65729, Note_on_c, 11, 84, 0
13, 65730, Note_on_c, 11, 80, 52
13, 65759, Note_on_c, 11, 80, 0
13, 65760, Note_on_c, 11, 77, 52
13, 65789, Note_on_c, 11, 77, 0
13, 65790, Note_on_c, 11, 79, 52
13, 65819, Note_on_c, 11, 79, 0
13, 65820, Note_on_c, 11, 80, 52
13, 65849, Note_on_c, 11, 80, 0
13, 65850, Note_on_c, 11, 77, 52
13, 65879, Note_on_c, 11, 77, 0
13, 65880, Note_on_c, 11, 74, 52
13, 65909, Note_on_c, 11, 74, 0
13, 65910, Note_on_c, 11, 75, 52
13, 65939, Note_on_c, 11, 75, 0
13, 65940, Note_on_c, 11, 77, 52
13, 65969, Note_on_c, 11, 77, 0
13, 65970, Note_on_c, 11, 74, 52
13, 65999, Note_on_c, 11, 74, 0
13, 66000, Note_on_c, 11, 70, 52
13, 66029, Note_on_c, 11, 70, 0
13, 66030, Note_on_c, 11, 72, 52
13, 66059, Note_on_c, 11, 72, 0
13, 66060, Note_on_c, 11, 74, 52
13, 66089, Note_on_c, 11, 74, 0
13, 66090, Note_on_c, 11, 75, 52
13, 66119, Note_on_c, 11, 75, 0
13, 66120, Note_on_c, 11, 77, 52
13, 66149, Note_on_c, 11, 77, 0
13, 66150, Note_on_c, 11, 79, 52
13, 66179, Note_on_c, 11, 79, 0
13, 66180, Note_on_c, 11, 80, 52
13, 66209, Note_on_c, 11, 80, 0
13, 66210, Note_on_c, 11, 74, 52
13, 66235, Note_on_c, 11, 74, 0
13, 66240, Note_on_c, 11, 75, 52
13, 66269, Note_on_c, 11, 75, 0
13, 66270, Note_on_c, 11, 77, 52
13, 66299, Note_on_c, 11, 77, 0
13, 66300, Note_on_c, 11, 75, 52
13, 66329, Note_on_c, 11, 75, 0
13, 66330, Note_on_c, 11, 74, 52
13, 66359, Note_on_c, 11, 74, 0
13, 66360, Note_on_c, 11, 75, 52
13, 66389, Note_on_c, 11, 75, 0
13, 66390, Note_on_c, 11, 77, 52
13, 66419, Note_on_c, 11, 77, 0
13, 66420, Note_on_c, 11, 79, 51
13, 66449, Note_on_c, 11, 79, 0
13, 66450, Note_on_c, 11, 75, 51
13, 66479, Note_on_c, 11, 75, 0
13, 66720, Note_on_c, 11, 67, 50
13, 66749, Note_on_c, 11, 67, 0
13, 66750, Note_on_c, 11, 69, 50
13, 66779, Note_on_c, 11, 69, 0
13, 66780, Note_on_c, 11, 67, 49
13, 66809, Note_on_c, 11, 67, 0
13, 66810, Note_on_c, 11, 65, 49
13, 66839, Note_on_c, 11, 65, 0
13, 66840, Note_on_c, 11, 67, 49
13, 66869, Note_on_c, 11, 67, 0
13, 66870, Note_on_c, 11, 69, 49
13, 66899, Note_on_c, 11, 69, 0
13, 66900, Note_on_c, 11, 70, 49
13, 66929, Note_on_c, 11, 70, 0
13, 66930, Note_on_c, 11, 67, 49
13, 66959, Note_on_c, 11, 67, 0
13, 67200, Note_on_c, 11, 58, 47
13, 67229, Note_on_c, 11, 58, 0
13, 67230, Note_on_c, 11, 60, 47
13, 67259, Note_on_c, 11, 60, 0
13, 67260, Note_on_c, 11, 58, 47
13, 67289, Note_on_c, 11, 58, 0
13, 67290, Note_on_c, 11, 57, 47
13, 67319, Note_on_c, 11, 57, 0
13, 67320, Note_on_c, 11, 58, 46
13, 67349, Note_on_c, 11, 58, 0
13, 67350, Note_on_c, 11, 62, 46
13, 67379, Note_on_c, 11, 62, 0
13, 67380, Note_on_c, 11, 63, 46
13, 67409, Note_on_c, 11, 63, 0
13, 67410, Note_on_c, 11, 58, 46
13, 67439, Note_on_c, 11, 58, 0
13, 68160, Program_c, 11, 45
13, 68400, Note_on_c, 11, 63, 44
13, 68519, Note_on_c, 11, 63, 0
13, 68880, Note_on_c, 11, 72, 44
13, 68999, Note_on_c, 11, 72, 0
13, 69120, Note_on_c, 11, 70, 44
13, 69359, Note_on_c, 11, 70, 0
13, 69480, Note_on_c, 11, 68, 44
13, 69599, Note_on_c, 11, 68, 0
13, 69600, Note_on_c, 11, 67, 44
13, 69719, Note_on_c, 11, 67, 0
13, 69720, Note_on_c, 11, 65, 44
13, 69839, Note_on_c, 11, 65, 0
13, 69840, Note_on_c, 11, 63, 44
13, 69959, Note_on_c, 11, 63, 0
13, 70080, Program_c, 11, 48
13, 70200, Note_on_c, 11, 55, 44
13, 70225, Note_on_c, 11, 55, 0
13, 70230, Note_on_c, 11, 58, 44
13, 70255, Note_on_c, 11, 58, 0
13, 70260, Note_on_c, 11, 63, 44
13, 70285, Note_on_c, 11, 63, 0
13, 70290, Note_on_c, 11, 67, 44
13, 70315, Note_on_c, 11, 67, 0
13, 70320, Note_on_c, 11, 70, 44
13, 70439, Note_on_c, 11, 70, 0
13, 71280, Note_on_c, 11, 77, 44
13, 71301, Note_on_c, 11, 77, 0
13, 71310, Note_on_c, 11, 75, 44
13, 71331, Note_on_c, 11, 75, 0
13, 71340, Note_on_c, 11, 74, 44
13, 71361, Note_on_c, 11, 74, 0
13, 71370, Note_on_c, 11, 72, 44
13, 71391, Note_on_c, 11, 72, 0
13, 71400, Note_on_c, 11, 70, 44
13, 71421, Note_on_c, 11, 70, 0
13, 71430, Note_on_c, 11, 68, 44
13, 71451, Note_on_c, 11, 68, 0
13, 71460, Note_on_c, 11, 67, 44
13, 71481, Note_on_c, 11, 67, 0
13, 71490, Note_on_c, 11, 65, 44
13, 71511, Note_on_c, 11, 65, 0
13, 71520, Note_on_c, 11, 63, 44
13, 71541, Note_on_c, 11, 63, 0
13, 71550, Note_on_c, 11, 68, 44
13, 71571, Note_on_c, 11, 68, 0
13, 71580, Note_on_c, 11, 68, 44
13, 71601, Note_on_c, 11, 68, 0
13, 71610, Note_on_c, 11, 68, 44
13, 71631, Note_on_c, 11, 68, 0
13, 71640, Note_on_c, 11, 68, 44
13, 71661, Note_on_c, 11, 68, 0
13, 71670, Note_on_c, 11, 68, 46
13, 71691, Note_on_c, 11, 68, 0
13, 71700, Note_on_c, 11, 68, 48
13, 71721, Note_on_c, 11, 68, 0
13, 71730, Note_on_c, 11, 68, 50
13, 71751, Note_on_c, 11, 68, 0
13, 71760, Note_on_c, 11, 68, 52
13, 71781, Note_on_c, 11, 68, 0
13, 71790, Note_on_c, 11, 80, 54
13, 71811, Note_on_c, 11, 80, 0
13, 71820, Note_on_c, 11, 80, 56
13, 71841, Note_on_c, 11, 80, 0
13, 71850, Note_on_c, 11, 80, 58
13, 71871, Note_on_c, 11, 80, 0
13, 71880, Note_on_c, 11, 80, 60
13, 71901, Note_on_c, 11, 80, 0
13, 71910, Note_on_c, 11, 80, 62
13, 71931, Note_on_c, 11, 80, 0
13, 71940, Note_on_c, 11, 80, 64
13, 71961, Note_on_c, 11, 80, 0
13, 71970, Note_on_c, 11, 80, 66
13, 71991, Note_on_c, 11, 80, 0
13, 72000, Note_on_c, 11, 80, 68
13, 72014, Note_on_c, 11, 80, 0
13, 72015, Note_on_c, 11, 80, 69
13, 72029, Note_on_c, 11, 80, 0
13, 72030, Note_on_c, 11, 80, 70
13, 72044, Note_on_c, 11, 80, 0
13, 72045, Note_on_c, 11, 80, 71
13, 72059, Note_on_c, 11, 80, 0
13, 72060, Note_on_c, 11, 80, 72
13, 72074, Note_on_c, 11, 80, 0
13, 72075, Note_on_c, 11, 80, 73
13, 72089, Note_on_c, 11, 80, 0
13, 72090, Note_on_c, 11, 80, 74
13, 72104, Note_on_c, 11, 80, 0
13, 72105, Note_on_c, 11, 80, 75
13, 72119, Note_on_c, 11, 80, 0
13, 72120, Note_on_c, 11, 80, 76
13, 72134, Note_on_c, 11, 80, 0
13, 72135, Note_on_c, 11, 80, 77
13, 72149, Note_on_c, 11, 80, 0
13, 72150, Note_on_c, 11, 80, 78
13, 72164, Note_on_c, 11, 80, 0
13, 72165, Note_on_c, 11, 80, 79
13, 72179, Note_on_c, 11, 80, 0
13, 72180, Note_on_c, 11, 80, 80
13, 72194, Note_on_c, 11, 80, 0
13, 72195, Note_on_c, 11, 80, 81
13, 72209, Note_on_c, 11, 80, 0
13, 72210, Note_on_c, 11, 80, 82
13, 72224, Note_on_c, 11, 80, 0
13, 72225, Note_on_c, 11, 80, 83
13, 72239, Note_on_c, 11, 80, 0
13, 72240, Note_on_c, 11, 80, 84
13, 72254, Note_on_c, 11, 80, 0
13, 72255, Note_on_c, 11, 80, 84
13, 72269, Note_on_c, 11, 80, 0
13, 72270, Note_on_c, 11, 80, 84
13, 72284, Note_on_c, 11, 80, 0
13, 72285, Note_on_c, 11, 80, 84
13, 72299, Note_on_c, 11, 80, 0
13, 72300, Note_on_c, 11, 80, 84
13, 72314, Note_on_c, 11, 80, 0
13, 72315, Note_on_c, 11, 80, 84
13, 72329, Note_on_c, 11, 80, 0
13, 72330, Note_on_c, 11, 80, 84
13, 72344, Note_on_c, 11, 80, 0
13, 72345, Note_on_c, 11, 80, 84
13, 72359, Note_on_c, 11, 80, 0
13, 72360, Note_on_c, 11, 80, 84
13, 72374, Note_on_c, 11, 80, 0
13, 72375, Note_on_c, 11, 80, 84
13, 72389, Note_on_c, 11, 80, 0
13, 72390, Note_on_c, 11, 80, 84
13, 72404, Note_on_c, 11, 80, 0
13, 72405, Note_on_c, 11, 80, 84
13, 72419, Note_on_c, 11, 80, 0
13, 72420, Note_on_c, 11, 80, 84
13, 72434, Note_on_c, 11, 80, 0
13, 72435, Note_on_c, 11, 80, 84
13, 72449, Note_on_c, 11, 80, 0
13, 72450, Note_on_c, 11, 80, 84
13, 72464, Note_on_c, 11, 80, 0
13, 72465, Note_on_c, 11, 80, 84
13, 72479, Note_on_c, 11, 80, 0
13, 72480, Note_on_c, 11, 79, 84
13, 72480, Note_on_c, 11, 70, 84
13, 72480, Note_on_c, 11, 63, 84
13, 72480, Note_on_c, 11, 55, 84
13, 72599, Note_on_c, 11, 79, 0
13, 72599, Note_on_c, 11, 70, 0
13, 72599, Note_on_c, 11, 63, 0
13, 72599, Note_on_c, 11, 55, 0
13, 73200, Program_c, 11, 45
13, 73440, Note_on_c, 11, 65, 60
13, 73440, Note_on_c, 11, 58, 60
13, 73559, Note_on_c, 11, 65, 0
13, 73559, Note_on_c, 11, 58, 0
13, 73680, Note_on_c, 11, 65, 60
13, 73680, Note_on_c, 11, 58, 60
13, 73799, Note_on_c, 11, 65, 0
13, 73799, Note_on_c, 11, 58, 0
13, 73918, Program_c, 11, 48
13, 73920, Note_on_c, 11, 74, 84
13, 73920, Note_on_c, 11, 65, 84
13, 73920, Note_on_c, 11, 58, 84
13, 74039, Note_on_c, 11, 74, 0
13, 74039, Note_on_c, 11, 65, 0
13, 74039, Note_on_c, 11, 58, 0
13, 74160, Note_on_c, 11, 75, 84
13, 74160, Note_on_c, 11, 63, 84
13, 74160, Note_on_c, 11, 55, 84
13, 74279, Note_on_c, 11, 75, 0
13, 74279, Note_on_c, 11, 63, 0
13, 74279, Note_on_c, 11, 55, 0
13, 74279, End_track
14, 0, Start_track
14, 0, Title_t, "Violin II"
14, 0, MIDI_port, 0
14, 0, Program_c, 12, 48
14, 0, Control_c, 12, 7, 96
14, 0, Control_c, 12, 10, 24
14, 0, Control_c, 12, 11, 127
14, 0, Note_on_c, 12, 63, 52
14, 59, Note_on_c, 12, 63, 0
14, 90, Note_on_c, 12, 58, 52
14, 115, Note_on_c, 12, 58, 0
14, 120, Note_on_c, 12, 63, 52
14, 179, Note_on_c, 12, 63, 0
14, 210, Note_on_c, 12, 58, 52
14, 235, Note_on_c, 12, 58, 0
14, 240, Note_on_c, 12, 63, 52
14, 299, Note_on_c, 12, 63, 0
14, 330, Note_on_c, 12, 58, 52
14, 355, Note_on_c, 12, 58, 0
14, 360, Note_on_c, 12, 63, 52
14, 419, Note_on_c, 12, 63, 0
14, 450, Note_on_c, 12, 58, 52
14, 475, Note_on_c, 12, 58, 0
14, 480, Note_on_c, 12, 63, 52
14, 539, Note_on_c, 12, 63, 0
14, 570, Note_on_c, 12, 58, 52
14, 595, Note_on_c, 12, 58, 0
14, 600, Note_on_c, 12, 63, 52
14, 659, Note_on_c, 12, 63, 0
14, 690, Note_on_c, 12, 58, 52
14, 719, Note_on_c, 12, 58, 0
14, 810, Note_on_c, 12, 63, 52
14, 831, Note_on_c, 12, 63, 0
14, 840, Note_on_c, 12, 67, 52
14, 884, Note_on_c, 12, 67, 0
14, 900, Note_on_c, 12, 67, 52
14, 944, Note_on_c, 12, 67, 0
14, 1050, Note_on_c, 12, 63, 52
14, 1071, Note_on_c, 12, 63, 0
14, 1080, Note_on_c, 12, 70, 52
14, 1124, Note_on_c, 12, 70, 0
14, 1140, Note_on_c, 12, 70, 52
14, 1184, Note_on_c, 12, 70, 0
14, 1290, Note_on_c, 12, 63, 52
14, 1311, Note_on_c, 12, 63, 0
14, 1320, Note_on_c, 12, 68, 52
14, 1364, Note_on_c, 12, 68, 0
14, 1380, Note_on_c, 12, 68, 52
14, 1424, Note_on_c, 12, 68, 0
14, 1530, Note_on_c, 12, 62, 52
14, 1551, Note_on_c, 12, 62, 0
14, 1560, Note_on_c, 12, 65, 52
14, 1604, Note_on_c, 12, 65, 0
14, 1620, Note_on_c, 12, 65, 52
14, 1664, Note_on_c, 12, 65, 0
14, 1770, Note_on_c, 12, 63, 52
14, 1791, Note_on_c, 12, 63, 0
14, 1800, Note_on_c, 12, 65, 52
14, 1844, Note_on_c, 12, 65, 0
14, 1860, Note_on_c, 12, 58, 52
14, 1904, Note_on_c, 12, 58, 0
14, 2010, Note_on_c, 12, 58, 52
14, 2031, Note_on_c, 12, 58, 0
14, 2040, Note_on_c, 12, 60, 52
14, 2084, Note_on_c, 12, 60, 0
14, 2100, Note_on_c, 12, 60, 52
14, 2144, Note_on_c, 12, 60, 0
14, 2250, Note_on_c, 12, 55, 52
14, 2271, Note_on_c, 12, 55, 0
14, 2280, Note_on_c, 12, 58, 52
14, 2324, Note_on_c, 12, 58, 0
14, 2340, Note_on_c, 12, 58, 52
14, 2384, Note_on_c, 12, 58, 0
14, 2490, Note_on_c, 12, 56, 52
14, 2511, Note_on_c, 12, 56, 0
14, 2520, Note_on_c, 12, 55, 52
14, 2564, Note_on_c, 12, 55, 0
14, 2580, Note_on_c, 12, 58, 52
14, 2624, Note_on_c, 12, 58, 0
14, 2730, Note_on_c, 12, 58, 52
14, 2751, Note_on_c, 12, 58, 0
14, 2760, Note_on_c, 12, 63, 52
14, 2804, Note_on_c, 12, 63, 0
14, 2820, Note_on_c, 12, 63, 52
14, 2864, Note_on_c, 12, 63, 0
14, 2970, Note_on_c, 12, 60, 55
14, 2999, Note_on_c, 12, 60, 0
14, 3000, Note_on_c, 12, 63, 56
14, 3044, Note_on_c, 12, 63, 0
14, 3060, Note_on_c, 12, 63, 58
14, 3104, Note_on_c, 12, 63, 0
14, 3210, Note_on_c, 12, 58, 63
14, 3231, Note_on_c, 12, 58, 0
14, 3240, Note_on_c, 12, 62, 64
14, 3284, Note_on_c, 12, 62, 0
14, 3300, Note_on_c, 12, 62, 66
14, 3344, Note_on_c, 12, 62, 0
14, 3450, Note_on_c, 12, 59, 76
14, 3479, Note_on_c, 12, 59, 0
14, 3480, Note_on_c, 12, 62, 68
14, 3569, Note_on_c, 12, 62, 0
14, 3570, Note_on_c, 12, 60, 68
14, 3591, Note_on_c, 12, 60, 0
14, 3600, Note_on_c, 12, 60, 52
14, 3644, Note_on_c, 12, 60, 0
14, 3690, Note_on_c, 12, 60, 52
14, 3711, Note_on_c, 12, 60, 0
14, 3720, Note_on_c, 12, 65, 52
14, 3764, Note_on_c, 12, 65, 0
14, 3810, Note_on_c, 12, 60, 52
14, 3831, Note_on_c, 12, 60, 0
14, 3840, Note_on_c, 12, 65, 52
14, 3884, Note_on_c, 12, 65, 0
14, 3930, Note_on_c, 12, 60, 52
14, 3951, Note_on_c, 12, 60, 0
14, 3960, Note_on_c, 12, 65, 52
14, 4004, Note_on_c, 12, 65, 0
14, 4050, Note_on_c, 12, 60, 52
14, 4071, Note_on_c, 12, 60, 0
14, 4080, Note_on_c, 12, 65, 52
14, 4199, Note_on_c, 12, 65, 0
14, 4410, Note_on_c, 12, 56, 52
14, 4431, Note_on_c, 12, 56, 0
14, 4440, Note_on_c, 12, 62, 52
14, 4484, Note_on_c, 12, 62, 0
14, 4530, Note_on_c, 12, 56, 52
14, 4551, Note_on_c, 12, 56, 0
14, 4560, Note_on_c, 12, 62, 52
14, 4604, Note_on_c, 12, 62, 0
14, 4650, Note_on_c, 12, 56, 52
14, 4671, Note_on_c, 12, 56, 0
14, 4680, Note_on_c, 12, 63, 52
14, 4724, Note_on_c, 12, 63, 0
14, 4770, Note_on_c, 12, 55, 52
14, 4791, Note_on_c, 12, 55, 0
14, 4800, Note_on_c, 12, 65, 52
14, 4844, Note_on_c, 12, 65, 0
14, 4890, Note_on_c, 12, 60, 52
14, 4911, Note_on_c, 12, 60, 0
14, 4920, Note_on_c, 12, 60, 52
14, 4964, Note_on_c, 12, 60, 0
14, 5010, Note_on_c, 12, 56, 52
14, 5031, Note_on_c, 12, 56, 0
14, 5130, Note_on_c, 12, 55, 55
14, 5151, Note_on_c, 12, 55, 0
14, 5160, Note_on_c, 12, 58, 56
14, 5204, Note_on_c, 12, 58, 0
14, 5220, Note_on_c, 12, 58, 58
14, 5264, Note_on_c, 12, 58, 0
14, 5370, Note_on_c, 12, 55, 63
14, 5391, Note_on_c, 12, 55, 0
14, 5400, Note_on_c, 12, 58, 64
14, 5444, Note_on_c, 12, 58, 0
14, 5460, Note_on_c, 12, 58, 66
14, 5504, Note_on_c, 12, 58, 0
14, 5610, Note_on_c, 12, 56, 71
14, 5631, Note_on_c, 12, 56, 0
14, 5640, Note_on_c, 12, 56, 72
14, 5640, Note_on_c, 12, 62, 72
14, 5684, Note_on_c, 12, 56, 0
14, 5684, Note_on_c, 12, 62, 0
14, 5700, Note_on_c, 12, 62, 74
14, 5700, Note_on_c, 12, 56, 74
14, 5744, Note_on_c, 12, 62, 0
14, 5744, Note_on_c, 12, 56, 0
14, 5760, Note_on_c, 12, 55, 76
14, 5760, Note_on_c, 12, 63, 76
14, 5804, Note_on_c, 12, 55, 0
14, 5804, Note_on_c, 12, 63, 0
14, 5850, Note_on_c, 12, 58, 76
14, 5871, Note_on_c, 12, 58, 0
14, 5880, Note_on_c, 12, 63, 76
14, 5924, Note_on_c, 12, 63, 0
14, 5970, Note_on_c, 12, 58, 76
14, 5991, Note_on_c, 12, 58, 0
14, 6000, Note_on_c, 12, 63, 76
14, 6044, Note_on_c, 12, 63, 0
14, 6090, Note_on_c, 12, 58, 76
14, 6111, Note_on_c, 12, 58, 0
14, 6120, Note_on_c, 12, 63, 76
14, 6164, Note_on_c, 12, 63, 0
14, 6210, Note_on_c, 12, 58, 76
14, 6231, Note_on_c, 12, 58, 0
14, 6240, Note_on_c, 12, 63, 76
14, 6284, Note_on_c, 12, 63, 0
14, 6330, Note_on_c, 12, 58, 76
14, 6351, Note_on_c, 12, 58, 0
14, 6360, Note_on_c, 12, 63, 76
14, 6404, Note_on_c, 12, 63, 0
14, 6450, Note_on_c, 12, 58, 76
14, 6471, Note_on_c, 12, 58, 0
14, 6480, Note_on_c, 12, 63, 52
14, 6524, Note_on_c, 12, 63, 0
14, 6570, Note_on_c, 12, 67, 52
14, 6591, Note_on_c, 12, 67, 0
14, 6600, Note_on_c, 12, 70, 52
14, 6644, Note_on_c, 12, 70, 0
14, 6660, Note_on_c, 12, 70, 52
14, 6704, Note_on_c, 12, 70, 0
14, 6810, Note_on_c, 12, 67, 52
14, 6831, Note_on_c, 12, 67, 0
14, 6840, Note_on_c, 12, 70, 52
14, 6884, Note_on_c, 12, 70, 0
14, 6900, Note_on_c, 12, 70, 52
14, 6944, Note_on_c, 12, 70, 0
14, 7050, Note_on_c, 12, 63, 52
14, 7071, Note_on_c, 12, 63, 0
14, 7080, Note_on_c, 12, 68, 52
14, 7124, Note_on_c, 12, 68, 0
14, 7140, Note_on_c, 12, 68, 52
14, 7184, Note_on_c, 12, 68, 0
14, 7290, Note_on_c, 12, 62, 52
14, 7311, Note_on_c, 12, 62, 0
14, 7320, Note_on_c, 12, 65, 52
14, 7364, Note_on_c, 12, 65, 0
14, 7380, Note_on_c, 12, 65, 52
14, 7424, Note_on_c, 12, 65, 0
14, 7530, Note_on_c, 12, 58, 52
14, 7551, Note_on_c, 12, 58, 0
14, 7560, Note_on_c, 12, 65, 52
14, 7604, Note_on_c, 12, 65, 0
14, 7620, Note_on_c, 12, 65, 52
14, 7664, Note_on_c, 12, 65, 0
14, 7770, Note_on_c, 12, 58, 52
14, 7791, Note_on_c, 12, 58, 0
14, 7800, Note_on_c, 12, 56, 52
14, 7844, Note_on_c, 12, 56, 0
14, 7860, Note_on_c, 12, 60, 52
14, 7904, Note_on_c, 12, 60, 0
14, 8010, Note_on_c, 12, 55, 52
14, 8035, Note_on_c, 12, 55, 0
14, 8040, Note_on_c, 12, 58, 52
14, 8095, Note_on_c, 12, 58, 0
14, 8100, Note_on_c, 12, 58, 52
14, 8159, Note_on_c, 12, 58, 0
14, 8250, Note_on_c, 12, 56, 52
14, 8275, Note_on_c, 12, 56, 0
14, 8280, Note_on_c, 12, 55, 52
14, 8335, Note_on_c, 12, 55, 0
14, 8340, Note_on_c, 12, 58, 52
14, 8399, Note_on_c, 12, 58, 0
14, 8490, Note_on_c, 12, 58, 52
14, 8515, Note_on_c, 12, 58, 0
14, 8520, Note_on_c, 12, 63, 52
14, 8575, Note_on_c, 12, 63, 0
14, 8580, Note_on_c, 12, 63, 52
14, 8639, Note_on_c, 12, 63, 0
14, 8730, Note_on_c, 12, 60, 55
14, 8755, Note_on_c, 12, 60, 0
14, 8760, Note_on_c, 12, 63, 56
14, 8815, Note_on_c, 12, 63, 0
14, 8820, Note_on_c, 12, 63, 58
14, 8879, Note_on_c, 12, 63, 0
14, 8970, Note_on_c, 12, 58, 63
14, 8995, Note_on_c, 12, 58, 0
14, 9000, Note_on_c, 12, 62, 64
14, 9055, Note_on_c, 12, 62, 0
14, 9060, Note_on_c, 12, 62, 66
14, 9119, Note_on_c, 12, 62, 0
14, 9210, Note_on_c, 12, 59, 76
14, 9235, Note_on_c, 12, 59, 0
14, 9240, Note_on_c, 12, 59, 68
14, 9329, Note_on_c, 12, 59, 0
14, 9330, Note_on_c, 12, 60, 68
14, 9355, Note_on_c, 12, 60, 0
14, 9360, Note_on_c, 12, 60, 52
14, 9404, Note_on_c, 12, 60, 0
14, 9450, Note_on_c, 12, 60, 52
14, 9471, Note_on_c, 12, 60, 0
14, 9480, Note_on_c, 12, 65, 52
14, 9524, Note_on_c, 12, 65, 0
14, 9570, Note_on_c, 12, 60, 52
14, 9591, Note_on_c, 12, 60, 0
14, 9600, Note_on_c, 12, 65, 52
14, 9644, Note_on_c, 12, 65, 0
14, 9690, Note_on_c, 12, 60, 52
14, 9711, Note_on_c, 12, 60, 0
14, 9720, Note_on_c, 12, 65, 52
14, 9764, Note_on_c, 12, 65, 0
14, 9810, Note_on_c, 12, 60, 52
14, 9831, Note_on_c, 12, 60, 0
14, 9840, Note_on_c, 12, 65, 52
14, 9959, Note_on_c, 12, 65, 0
14, 10170, Note_on_c, 12, 56, 52
14, 10195, Note_on_c, 12, 56, 0
14, 10200, Note_on_c, 12, 62, 52
14, 10259, Note_on_c, 12, 62, 0
14, 10290, Note_on_c, 12, 56, 52
14, 10315, Note_on_c, 12, 56, 0
14, 10320, Note_on_c, 12, 62, 52
14, 10379, Note_on_c, 12, 62, 0
14, 10410, Note_on_c, 12, 56, 52
14, 10435, Note_on_c, 12, 56, 0
14, 10440, Note_on_c, 12, 63, 52
14, 10499, Note_on_c, 12, 63, 0
14, 10530, Note_on_c, 12, 55, 52
14, 10555, Note_on_c, 12, 55, 0
14, 10560, Note_on_c, 12, 65, 52
14, 10619, Note_on_c, 12, 65, 0
14, 10650, Note_on_c, 12, 60, 52
14, 10675, Note_on_c, 12, 60, 0
14, 10680, Note_on_c, 12, 68, 52
14, 10739, Note_on_c, 12, 68, 0
14, 10770, Note_on_c, 12, 65, 52
14, 10795, Note_on_c, 12, 65, 0
14, 10890, Note_on_c, 12, 63, 55
14, 10915, Note_on_c, 12, 63, 0
14, 10920, Note_on_c, 12, 67, 56
14, 10975, Note_on_c, 12, 67, 0
14, 10980, Note_on_c, 12, 67, 58
14, 11039, Note_on_c, 12, 67, 0
14, 11130, Note_on_c, 12, 64, 63
14, 11155, Note_on_c, 12, 64, 0
14, 11160, Note_on_c, 12, 67, 64
14, 11215, Note_on_c, 12, 67, 0
14, 11220, Note_on_c, 12, 67, 66
14, 11279, Note_on_c, 12, 67, 0
14, 11370, Note_on_c, 12, 65, 71
14, 11395, Note_on_c, 12, 65, 0
14, 11400, Note_on_c, 12, 68, 72
14, 11455, Note_on_c, 12, 68, 0
14, 11460, Note_on_c, 12, 68, 74
14, 11519, Note_on_c, 12, 68, 0
14, 11520, Note_on_c, 12, 67, 76
14, 11545, Note_on_c, 12, 67, 0
14, 11550, Note_on_c, 12, 58, 76
14, 11579, Note_on_c, 12, 58, 0
14, 11580, Note_on_c, 12, 55, 76
14, 11609, Note_on_c, 12, 55, 0
14, 11610, Note_on_c, 12, 58, 76
14, 11639, Note_on_c, 12, 58, 0
14, 11640, Note_on_c, 12, 63, 84
14, 11669, Note_on_c, 12, 63, 0
14, 11670, Note_on_c, 12, 67, 76
14, 11699, Note_on_c, 12, 67, 0
14, 11700, Note_on_c, 12, 63, 76
14, 11729, Note_on_c, 12, 63, 0
14, 11730, Note_on_c, 12, 58, 76
14, 11759, Note_on_c, 12, 58, 0
14, 11790, Note_on_c, 12, 58, 76
14, 11819, Note_on_c, 12, 58, 0
14, 11820, Note_on_c, 12, 55, 76
14, 11849, Note_on_c, 12, 55, 0
14, 11850, Note_on_c, 12, 58, 76
14, 11879, Note_on_c, 12, 58, 0
14, 11880, Note_on_c, 12, 63, 84
14, 11909, Note_on_c, 12, 63, 0
14, 11910, Note_on_c, 12, 67, 76
14, 11939, Note_on_c, 12, 67, 0
14, 11940, Note_on_c, 12, 63, 76
14, 11969, Note_on_c, 12, 63, 0
14, 11970, Note_on_c, 12, 58, 76
14, 11999, Note_on_c, 12, 58, 0
14, 12030, Note_on_c, 12, 58, 76
14, 12059, Note_on_c, 12, 58, 0
14, 12060, Note_on_c, 12, 55, 76
14, 12089, Note_on_c, 12, 55, 0
14, 12090, Note_on_c, 12, 58, 76
14, 12119, Note_on_c, 12, 58, 0
14, 12120, Note_on_c, 12, 63, 84
14, 12149, Note_on_c, 12, 63, 0
14, 12150, Note_on_c, 12, 67, 76
14, 12179, Note_on_c, 12, 67, 0
14, 12180, Note_on_c, 12, 63, 76
14, 12209, Note_on_c, 12, 63, 0
14, 12210, Note_on_c, 12, 58, 76
14, 12239, Note_on_c, 12, 58, 0
14, 12270, Note_on_c, 12, 62, 76
14, 12299, Note_on_c, 12, 62, 0
14, 12300, Note_on_c, 12, 58, 52
14, 12329, Note_on_c, 12, 58, 0
14, 12330, Note_on_c, 12, 62, 52
14, 12359, Note_on_c, 12, 62, 0
14, 12390, Note_on_c, 12, 62, 52
14, 12419, Note_on_c, 12, 62, 0
14, 12420, Note_on_c, 12, 58, 52
14, 12449, Note_on_c, 12, 58, 0
14, 12450, Note_on_c, 12, 62, 52
14, 12479, Note_on_c, 12, 62, 0
14, 12510, Note_on_c, 12, 62, 52
14, 12539, Note_on_c, 12, 62, 0
14, 12540, Note_on_c, 12, 58, 52
14, 12569, Note_on_c, 12, 58, 0
14, 12570, Note_on_c, 12, 62, 52
14, 12599, Note_on_c, 12, 62, 0
14, 12630, Note_on_c, 12, 62, 52
14, 12659, Note_on_c, 12, 62, 0
14, 12660, Note_on_c, 12, 58, 52
14, 12689, Note_on_c, 12, 58, 0
14, 12690, Note_on_c, 12, 62, 52
14, 12719, Note_on_c, 12, 62, 0
14, 12750, Note_on_c, 12, 62, 52
14, 12779, Note_on_c, 12, 62, 0
14, 12780, Note_on_c, 12, 58, 52
14, 12809, Note_on_c, 12, 58, 0
14, 12810, Note_on_c, 12, 62, 52
14, 12839, Note_on_c, 12, 62, 0
14, 12870, Note_on_c, 12, 62, 52
14, 12899, Note_on_c, 12, 62, 0
14, 12900, Note_on_c, 12, 58, 52
14, 12929, Note_on_c, 12, 58, 0
14, 12930, Note_on_c, 12, 62, 52
14, 12951, Note_on_c, 12, 62, 0
14, 12960, Note_on_c, 12, 63, 76
14, 12960, Note_on_c, 12, 55, 76
14, 12981, Note_on_c, 12, 63, 0
14, 12981, Note_on_c, 12, 55, 0
14, 12990, Note_on_c, 12, 58, 76
14, 13019, Note_on_c, 12, 58, 0
14, 13020, Note_on_c, 12, 55, 76
14, 13049, Note_on_c, 12, 55, 0
14, 13050, Note_on_c, 12, 58, 76
14, 13079, Note_on_c, 12, 58, 0
14, 13080, Note_on_c, 12, 63, 84
14, 13109, Note_on_c, 12, 63, 0
14, 13110, Note_on_c, 12, 67, 76
14, 13139, Note_on_c, 12, 67, 0
14, 13140, Note_on_c, 12, 63, 76
14, 13169, Note_on_c, 12, 63, 0
14, 13170, Note_on_c, 12, 58, 76
14, 13199, Note_on_c, 12, 58, 0
14, 13230, Note_on_c, 12, 58, 76
14, 13259, Note_on_c, 12, 58, 0
14, 13260, Note_on_c, 12, 55, 76
14, 13289, Note_on_c, 12, 55, 0
14, 13290, Note_on_c, 12, 58, 76
14, 13319, Note_on_c, 12, 58, 0
14, 13320, Note_on_c, 12, 63, 84
14, 13349, Note_on_c, 12, 63, 0
14, 13350, Note_on_c, 12, 67, 76
14, 13379, Note_on_c, 12, 67, 0
14, 13380, Note_on_c, 12, 63, 76
14, 13409, Note_on_c, 12, 63, 0
14, 13410, Note_on_c, 12, 58, 76
14, 13439, Note_on_c, 12, 58, 0
14, 13470, Note_on_c, 12, 58, 76
14, 13499, Note_on_c, 12, 58, 0
14, 13500, Note_on_c, 12, 55, 76
14, 13529, Note_on_c, 12, 55, 0
14, 13530, Note_on_c, 12, 58, 76
14, 13559, Note_on_c, 12, 58, 0
14, 13560, Note_on_c, 12, 63, 84
14, 13589, Note_on_c, 12, 63, 0
14, 13590, Note_on_c, 12, 67, 76
14, 13619, Note_on_c, 12, 67, 0
14, 13620, Note_on_c, 12, 63, 76
14, 13649, Note_on_c, 12, 63, 0
14, 13650, Note_on_c, 12, 58, 76
14, 13679, Note_on_c, 12, 58, 0
14, 13710, Note_on_c, 12, 62, 76
14, 13739, Note_on_c, 12, 62, 0
14, 13740, Note_on_c, 12, 59, 52
14, 13769, Note_on_c, 12, 59, 0
14, 13770, Note_on_c, 12, 62, 52
14, 13799, Note_on_c, 12, 62, 0
14, 13830, Note_on_c, 12, 62, 52
14, 13859, Note_on_c, 12, 62, 0
14, 13860, Note_on_c, 12, 59, 52
14, 13889, Note_on_c, 12, 59, 0
14, 13890, Note_on_c, 12, 62, 52
14, 13919, Note_on_c, 12, 62, 0
14, 13950, Note_on_c, 12, 62, 52
14, 13979, Note_on_c, 12, 62, 0
14, 13980, Note_on_c, 12, 59, 52
14, 14009, Note_on_c, 12, 59, 0
14, 14010, Note_on_c, 12, 62, 52
14, 14039, Note_on_c, 12, 62, 0
14, 14070, Note_on_c, 12, 62, 52
14, 14099, Note_on_c, 12, 62, 0
14, 14100, Note_on_c, 12, 59, 52
14, 14129, Note_on_c, 12, 59, 0
14, 14130, Note_on_c, 12, 62, 52
14, 14159, Note_on_c, 12, 62, 0
14, 14190, Note_on_c, 12, 62, 52
14, 14219, Note_on_c, 12, 62, 0
14, 14220, Note_on_c, 12, 59, 52
14, 14249, Note_on_c, 12, 59, 0
14, 14250, Note_on_c, 12, 62, 52
14, 14279, Note_on_c, 12, 62, 0
14, 14310, Note_on_c, 12, 62, 52
14, 14339, Note_on_c, 12, 62, 0
14, 14340, Note_on_c, 12, 59, 52
14, 14369, Note_on_c, 12, 59, 0
14, 14370, Note_on_c, 12, 62, 52
14, 14399, Note_on_c, 12, 62, 0
14, 14430, Note_on_c, 12, 60, 76
14, 14459, Note_on_c, 12, 60, 0
14, 14460, Note_on_c, 12, 55, 76
14, 14489, Note_on_c, 12, 55, 0
14, 14490, Note_on_c, 12, 60, 76
14, 14519, Note_on_c, 12, 60, 0
14, 14520, Note_on_c, 12, 63, 84
14, 14549, Note_on_c, 12, 63, 0
14, 14550, Note_on_c, 12, 67, 76
14, 14579, Note_on_c, 12, 67, 0
14, 14580, Note_on_c, 12, 63, 76
14, 14609, Note_on_c, 12, 63, 0
14, 14610, Note_on_c, 12, 60, 76
14, 14639, Note_on_c, 12, 60, 0
14, 14670, Note_on_c, 12, 60, 76
14, 14699, Note_on_c, 12, 60, 0
14, 14700, Note_on_c, 12, 55, 76
14, 14729, Note_on_c, 12, 55, 0
14, 14730, Note_on_c, 12, 60, 76
14, 14759, Note_on_c, 12, 60, 0
14, 14760, Note_on_c, 12, 63, 84
14, 14789, Note_on_c, 12, 63, 0
14, 14790, Note_on_c, 12, 67, 76
14, 14819, Note_on_c, 12, 67, 0
14, 14820, Note_on_c, 12, 63, 76
14, 14849, Note_on_c, 12, 63, 0
14, 14850, Note_on_c, 12, 60, 76
14, 14879, Note_on_c, 12, 60, 0
14, 14910, Note_on_c, 12, 60, 76
14, 14939, Note_on_c, 12, 60, 0
14, 14940, Note_on_c, 12, 55, 76
14, 14969, Note_on_c, 12, 55, 0
14, 14970, Note_on_c, 12, 60, 76
14, 14999, Note_on_c, 12, 60, 0
14, 15000, Note_on_c, 12, 63, 84
14, 15029, Note_on_c, 12, 63, 0
14, 15030, Note_on_c, 12, 67, 76
14, 15059, Note_on_c, 12, 67, 0
14, 15060, Note_on_c, 12, 63, 76
14, 15089, Note_on_c, 12, 63, 0
14, 15090, Note_on_c, 12, 60, 76
14, 15119, Note_on_c, 12, 60, 0
14, 15540, Note_on_c, 12, 58, 52
14, 15599, Note_on_c, 12, 58, 0
14, 15600, Note_on_c, 12, 57, 52
14, 15719, Note_on_c, 12, 57, 0
14, 16200, Note_on_c, 12, 60, 52
14, 16259, Note_on_c, 12, 60, 0
14, 16260, Note_on_c, 12, 61, 52
14, 16319, Note_on_c, 12, 61, 0
14, 16320, Note_on_c, 12, 60, 52
14, 16345, Note_on_c, 12, 60, 0
14, 16350, Note_on_c, 12, 65, 52
14, 16375, Note_on_c, 12, 65, 0
14, 16380, Note_on_c, 12, 65, 52
14, 16405, Note_on_c, 12, 65, 0
14, 16410, Note_on_c, 12, 65, 52
14, 16435, Note_on_c, 12, 65, 0
14, 16440, Note_on_c, 12, 65, 52
14, 16465, Note_on_c, 12, 65, 0
14, 16470, Note_on_c, 12, 65, 52
14, 16495, Note_on_c, 12, 65, 0
14, 16500, Note_on_c, 12, 65, 52
14, 16525, Note_on_c, 12, 65, 0
14, 16530, Note_on_c, 12, 65, 52
14, 16555, Note_on_c, 12, 65, 0
14, 16560, Note_on_c, 12, 75, 52
14, 16581, Note_on_c, 12, 75, 0
14, 16590, Note_on_c, 12, 72, 53
14, 16611, Note_on_c, 12, 72, 0
14, 16620, Note_on_c, 12, 71, 54
14, 16641, Note_on_c, 12, 71, 0
14, 16650, Note_on_c, 12, 72, 55
14, 16671, Note_on_c, 12, 72, 0
14, 16680, Note_on_c, 12, 75, 56
14, 16701, Note_on_c, 12, 75, 0
14, 16710, Note_on_c, 12, 72, 57
14, 16731, Note_on_c, 12, 72, 0
14, 16740, Note_on_c, 12, 74, 58
14, 16761, Note_on_c, 12, 74, 0
14, 16770, Note_on_c, 12, 70, 59
14, 16791, Note_on_c, 12, 70, 0
14, 16800, Note_on_c, 12, 72, 60
14, 16821, Note_on_c, 12, 72, 0
14, 16830, Note_on_c, 12, 69, 61
14, 16851, Note_on_c, 12, 69, 0
14, 16860, Note_on_c, 12, 70, 62
14, 16881, Note_on_c, 12, 70, 0
14, 16890, Note_on_c, 12, 67, 63
14, 16911, Note_on_c, 12, 67, 0
14, 16920, Note_on_c, 12, 69, 64
14, 16941, Note_on_c, 12, 69, 0
14, 16950, Note_on_c, 12, 65, 65
14, 16971, Note_on_c, 12, 65, 0
14, 16980, Note_on_c, 12, 70, 66
14, 17001, Note_on_c, 12, 70, 0
14, 17010, Note_on_c, 12, 67, 67
14, 17031, Note_on_c, 12, 67, 0
14, 17040, Note_on_c, 12, 72, 68
14, 17061, Note_on_c, 12, 72, 0
14, 17070, Note_on_c, 12, 69, 69
14, 17091, Note_on_c, 12, 69, 0
14, 17100, Note_on_c, 12, 74, 70
14, 17121, Note_on_c, 12, 74, 0
14, 17130, Note_on_c, 12, 70, 71
14, 17151, Note_on_c, 12, 70, 0
14, 17160, Note_on_c, 12, 75, 72
14, 17181, Note_on_c, 12, 75, 0
14, 17190, Note_on_c, 12, 72, 73
14, 17211, Note_on_c, 12, 72, 0
14, 17220, Note_on_c, 12, 77, 74
14, 17241, Note_on_c, 12, 77, 0
14, 17250, Note_on_c, 12, 74, 75
14, 17271, Note_on_c, 12, 74, 0
14, 17280, Note_on_c, 12, 79, 76
14, 17301, Note_on_c, 12, 79, 0
14, 17310, Note_on_c, 12, 75, 76
14, 17331, Note_on_c, 12, 75, 0
14, 17340, Note_on_c, 12, 72, 76
14, 17361, Note_on_c, 12, 72, 0
14, 17370, Note_on_c, 12, 74, 76
14, 17391, Note_on_c, 12, 74, 0
14, 17400, Note_on_c, 12, 75, 76
14, 17421, Note_on_c, 12, 75, 0
14, 17430, Note_on_c, 12, 72, 76
14, 17451, Note_on_c, 12, 72, 0
14, 17460, Note_on_c, 12, 69, 76
14, 17481, Note_on_c, 12, 69, 0
14, 17490, Note_on_c, 12, 70, 76
14, 17511, Note_on_c, 12, 70, 0
14, 17520, Note_on_c, 12, 72, 76
14, 17541, Note_on_c, 12, 72, 0
14, 17550, Note_on_c, 12, 69, 76
14, 17571, Note_on_c, 12, 69, 0
14, 17580, Note_on_c, 12, 63, 76
14, 17601, Note_on_c, 12, 63, 0
14, 17610, Note_on_c, 12, 65, 76
14, 17631, Note_on_c, 12, 65, 0
14, 17640, Note_on_c, 12, 67, 76
14, 17661, Note_on_c, 12, 67, 0
14, 17670, Note_on_c, 12, 63, 76
14, 17691, Note_on_c, 12, 63, 0
14, 17700, Note_on_c, 12, 60, 76
14, 17721, Note_on_c, 12, 60, 0
14, 17730, Note_on_c, 12, 62, 76
14, 17751, Note_on_c, 12, 62, 0
14, 17760, Note_on_c, 12, 63, 76
14, 17781, Note_on_c, 12, 63, 0
14, 17790, Note_on_c, 12, 62, 72
14, 17811, Note_on_c, 12, 62, 0
14, 17820, Note_on_c, 12, 60, 68
14, 17841, Note_on_c, 12, 60, 0
14, 17850, Note_on_c, 12, 58, 64
14, 17871, Note_on_c, 12, 58, 0
14, 17880, Note_on_c, 12, 57, 60
14, 17901, Note_on_c, 12, 57, 0
14, 17910, Note_on_c, 12, 65, 56
14, 17931, Note_on_c, 12, 65, 0
14, 17940, Note_on_c, 12, 63, 52
14, 17961, Note_on_c, 12, 63, 0
14, 17970, Note_on_c, 12, 60, 48
14, 17991, Note_on_c, 12, 60, 0
14, 18000, Note_on_c, 12, 58, 44
14, 18119, Note_on_c, 12, 58, 0
14, 18520, Note_on_c, 12, 57, 44
14, 18559, Note_on_c, 12, 57, 0
14, 18560, Note_on_c, 12, 60, 44
14, 18599, Note_on_c, 12, 60, 0
14, 18600, Note_on_c, 12, 63, 44
14, 18639, Note_on_c, 12, 63, 0
14, 18640, Note_on_c, 12, 66, 44
14, 18679, Note_on_c, 12, 66, 0
14, 18680, Note_on_c, 12, 69, 44
14, 18715, Note_on_c, 12, 69, 0
14, 18720, Note_on_c, 12, 72, 44
14, 19431, Note_on_c, 12, 72, 0
14, 19440, Note_on_c, 12, 70, 44
14, 19544, Note_on_c, 12, 70, 0
14, 19558, Program_c, 12, 45
14, 19560, Note_on_c, 12, 74, 44
14, 19679, Note_on_c, 12, 74, 0
14, 19680, Note_on_c, 12, 71, 44
14, 19799, Note_on_c, 12, 71, 0
14, 19800, Note_on_c, 12, 74, 44
14, 19919, Note_on_c, 12, 74, 0
14, 19920, Note_on_c, 12, 67, 44
14, 20039, Note_on_c, 12, 67, 0
14, 20040, Note_on_c, 12, 71, 44
14, 20159, Note_on_c, 12, 71, 0
14, 20160, Note_on_c, 12, 72, 44
14, 20279, Note_on_c, 12, 72, 0
14, 20280, Note_on_c, 12, 70, 44
14, 20399, Note_on_c, 12, 70, 0
14, 20400, Note_on_c, 12, 69, 44
14, 20519, Note_on_c, 12, 69, 0
14, 20520, Note_on_c, 12, 72, 44
14, 20639, Note_on_c, 12, 72, 0
14, 20640, Note_on_c, 12, 65, 44
14, 20759, Note_on_c, 12, 65, 0
14, 20760, Note_on_c, 12, 69, 44
14, 20879, Note_on_c, 12, 69, 0
14, 20880, Note_on_c, 12, 70, 44
14, 20999, Note_on_c, 12, 70, 0
14, 21000, Note_on_c, 12, 77, 45
14, 21119, Note_on_c, 12, 77, 0
14, 21120, Note_on_c, 12, 74, 47
14, 21239, Note_on_c, 12, 74, 0
14, 21240, Note_on_c, 12, 70, 49
14, 21359, Note_on_c, 12, 70, 0
14, 21360, Note_on_c, 12, 65, 50
14, 21479, Note_on_c, 12, 65, 0
14, 21480, Note_on_c, 12, 62, 52
14, 21599, Note_on_c, 12, 62, 0
14, 21600, Note_on_c, 12, 60, 48
14, 21719, Note_on_c, 12, 60, 0
14, 21720, Note_on_c, 12, 63, 48
14, 21839, Note_on_c, 12, 63, 0
14, 21840, Note_on_c, 12, 58, 48
14, 21959, Note_on_c, 12, 58, 0
14, 21960, Note_on_c, 12, 62, 48
14, 22079, Note_on_c, 12, 62, 0
14, 22080, Note_on_c, 12, 57, 48
14, 22199, Note_on_c, 12, 57, 0
14, 22200, Note_on_c, 12, 60, 48
14, 22319, Note_on_c, 12, 60, 0
14, 22440, Program_c, 12, 48
14, 22480, Note_on_c, 12, 56, 57
14, 22519, Note_on_c, 12, 56, 0
14, 22520, Note_on_c, 12, 59, 58
14, 22559, Note_on_c, 12, 59, 0
14, 22600, Note_on_c, 12, 59, 61
14, 22639, Note_on_c, 12, 59, 0
14, 22640, Note_on_c, 12, 62, 62
14, 22679, Note_on_c, 12, 62, 0
14, 22720, Note_on_c, 12, 62, 65
14, 22759, Note_on_c, 12, 62, 0
14, 22760, Note_on_c, 12, 65, 66
14, 22799, Note_on_c, 12, 65, 0
14, 22840, Note_on_c, 12, 65, 69
14, 22879, Note_on_c, 12, 65, 0
14, 22880, Note_on_c, 12, 71, 70
14, 22919, Note_on_c, 12, 71, 0
14, 22960, Note_on_c, 12, 71, 73
14, 22999, Note_on_c, 12, 71, 0
14, 23000, Note_on_c, 12, 74, 74
14, 23039, Note_on_c, 12, 74, 0
14, 23080, Note_on_c, 12, 71, 76
14, 23119, Note_on_c, 12, 71, 0
14, 23120, Note_on_c, 12, 74, 76
14, 23159, Note_on_c, 12, 74, 0
14, 23200, Note_on_c, 12, 71, 76
14, 23239, Note_on_c, 12, 71, 0
14, 23240, Note_on_c, 12, 74, 76
14, 23279, Note_on_c, 12, 74, 0
14, 23320, Note_on_c, 12, 72, 76
14, 23359, Note_on_c, 12, 72, 0
14, 23360, Note_on_c, 12, 71, 76
14, 23399, Note_on_c, 12, 71, 0
14, 23400, Note_on_c, 12, 72, 76
14, 23439, Note_on_c, 12, 72, 0
14, 23440, Note_on_c, 12, 74, 76
14, 23479, Note_on_c, 12, 74, 0
14, 23480, Note_on_c, 12, 75, 76
14, 23519, Note_on_c, 12, 75, 0
14, 23560, Note_on_c, 12, 65, 76
14, 23599, Note_on_c, 12, 65, 0
14, 23600, Note_on_c, 12, 70, 76
14, 23639, Note_on_c, 12, 70, 0
14, 23680, Note_on_c, 12, 65, 76
14, 23719, Note_on_c, 12, 65, 0
14, 23720, Note_on_c, 12, 63, 76
14, 23755, Note_on_c, 12, 63, 0
14, 23760, Note_on_c, 12, 62, 52
14, 23879, Note_on_c, 12, 62, 0
14, 25200, Note_on_c, 12, 70, 52
14, 25229, Note_on_c, 12, 70, 0
14, 25230, Note_on_c, 12, 72, 52
14, 25259, Note_on_c, 12, 72, 0
14, 25260, Note_on_c, 12, 70, 52
14, 25289, Note_on_c, 12, 70, 0
14, 25290, Note_on_c, 12, 69, 52
14, 25319, Note_on_c, 12, 69, 0
14, 25320, Note_on_c, 12, 70, 52
14, 25349, Note_on_c, 12, 70, 0
14, 25350, Note_on_c, 12, 72, 52
14, 25379, Note_on_c, 12, 72, 0
14, 25380, Note_on_c, 12, 74, 52
14, 25409, Note_on_c, 12, 74, 0
14, 25410, Note_on_c, 12, 72, 52
14, 25439, Note_on_c, 12, 72, 0
14, 25440, Note_on_c, 12, 70, 52
14, 25469, Note_on_c, 12, 70, 0
14, 25470, Note_on_c, 12, 72, 52
14, 25499, Note_on_c, 12, 72, 0
14, 25500, Note_on_c, 12, 74, 52
14, 25529, Note_on_c, 12, 74, 0
14, 25530, Note_on_c, 12, 70, 52
14, 25559, Note_on_c, 12, 70, 0
14, 25560, Note_on_c, 12, 65, 52
14, 25589, Note_on_c, 12, 65, 0
14, 25590, Note_on_c, 12, 69, 52
14, 25619, Note_on_c, 12, 69, 0
14, 25620, Note_on_c, 12, 70, 52
14, 25649, Note_on_c, 12, 70, 0
14, 25650, Note_on_c, 12, 65, 52
14, 25679, Note_on_c, 12, 65, 0
14, 25680, Note_on_c, 12, 62, 52
14, 25709, Note_on_c, 12, 62, 0
14, 25710, Note_on_c, 12, 63, 52
14, 25739, Note_on_c, 12, 63, 0
14, 25740, Note_on_c, 12, 65, 52
14, 25769, Note_on_c, 12, 65, 0
14, 25770, Note_on_c, 12, 62, 52
14, 25799, Note_on_c, 12, 62, 0
14, 25800, Note_on_c, 12, 58, 52
14, 25829, Note_on_c, 12, 58, 0
14, 25830, Note_on_c, 12, 60, 52
14, 25859, Note_on_c, 12, 60, 0
14, 25860, Note_on_c, 12, 62, 52
14, 25889, Note_on_c, 12, 62, 0
14, 25890, Note_on_c, 12, 58, 52
14, 25919, Note_on_c, 12, 58, 0
14, 26960, Control_c, 12, 11, 78
14, 26970, Note_on_c, 12, 58, 84
14, 26983, Control_c, 12, 11, 79
14, 26991, Note_on_c, 12, 58, 0
14, 27000, Note_on_c, 12, 62, 84
14, 27006, Control_c, 12, 11, 80
14, 27029, Control_c, 12, 11, 81
14, 27044, Note_on_c, 12, 62, 0
14, 27051, Control_c, 12, 11, 82
14, 27074, Control_c, 12, 11, 83
14, 27090, Note_on_c, 12, 58, 84
14, 27097, Control_c, 12, 11, 84
14, 27111, Note_on_c, 12, 58, 0
14, 27120, Control_c, 12, 11, 85
14, 27120, Note_on_c, 12, 65, 84
14, 27143, Control_c, 12, 11, 86
14, 27164, Note_on_c, 12, 65, 0
14, 27166, Control_c, 12, 11, 87
14, 27189, Control_c, 12, 11, 88
14, 27210, Note_on_c, 12, 62, 84
14, 27211, Control_c, 12, 11, 89
14, 27231, Note_on_c, 12, 62, 0
14, 27234, Control_c, 12, 11, 90
14, 27240, Note_on_c, 12, 70, 84
14, 27257, Control_c, 12, 11, 91
14, 27280, Control_c, 12, 11, 92
14, 27284, Note_on_c, 12, 70, 0
14, 27303, Control_c, 12, 11, 93
14, 27326, Control_c, 12, 11, 94
14, 27330, Note_on_c, 12, 65, 84
14, 27349, Control_c, 12, 11, 95
14, 27351, Note_on_c, 12, 65, 0
14, 27360, Note_on_c, 12, 74, 84
14, 27371, Control_c, 12, 11, 96
14, 27394, Control_c, 12, 11, 97
14, 27404, Note_on_c, 12, 74, 0
14, 27417, Control_c, 12, 11, 98
14, 27440, Control_c, 12, 11, 99
14, 27450, Note_on_c, 12, 70, 84
14, 27463, Control_c, 12, 11, 100
14, 27471, Note_on_c, 12, 70, 0
14, 27480, Note_on_c, 12, 77, 84
14, 27486, Control_c, 12, 11, 101
14, 27509, Control_c, 12, 11, 102
14, 27524, Note_on_c, 12, 77, 0
14, 27531, Control_c, 12, 11, 103
14, 27554, Control_c, 12, 11, 104
14, 27570, Note_on_c, 12, 74, 84
14, 27577, Control_c, 12, 11, 105
14, 27591, Note_on_c, 12, 74, 0
14, 27600, Note_on_c, 12, 80, 84
14, 27600, Control_c, 12, 11, 106
14, 27623, Control_c, 12, 11, 107
14, 27646, Control_c, 12, 11, 108
14, 27669, Control_c, 12, 11, 109
14, 27691, Control_c, 12, 11, 110
14, 27714, Control_c, 12, 11, 111
14, 27737, Control_c, 12, 11, 112
14, 27760, Control_c, 12, 11, 113
14, 27783, Control_c, 12, 11, 114
14, 27806, Control_c, 12, 11, 115
14, 27829, Control_c, 12, 11, 116
14, 27851, Control_c, 12, 11, 117
14, 27874, Control_c, 12, 11, 118
14, 27897, Control_c, 12, 11, 119
14, 27920, Control_c, 12, 11, 120
14, 27943, Control_c, 12, 11, 121
14, 27966, Control_c, 12, 11, 122
14, 27989, Control_c, 12, 11, 123
14, 28011, Control_c, 12, 11, 124
14, 28034, Control_c, 12, 11, 125
14, 28057, Control_c, 12, 11, 127
14, 28124, Note_on_c, 12, 80, 0
14, 28170, Note_on_c, 12, 77, 84
14, 28191, Note_on_c, 12, 77, 0
14, 28200, Note_on_c, 12, 74, 84
14, 28244, Note_on_c, 12, 74, 0
14, 28290, Note_on_c, 12, 70, 84
14, 28311, Note_on_c, 12, 70, 0
14, 28320, Note_on_c, 12, 68, 84
14, 28364, Note_on_c, 12, 68, 0
14, 28410, Note_on_c, 12, 65, 84
14, 28431, Note_on_c, 12, 65, 0
14, 28440, Note_on_c, 12, 62, 84
14, 28484, Note_on_c, 12, 62, 0
14, 28530, Note_on_c, 12, 70, 84
14, 28551, Note_on_c, 12, 70, 0
14, 28560, Note_on_c, 12, 68, 84
14, 28604, Note_on_c, 12, 68, 0
14, 28650, Note_on_c, 12, 65, 84
14, 28671, Note_on_c, 12, 65, 0
14, 28680, Note_on_c, 12, 62, 84
14, 28724, Note_on_c, 12, 62, 0
14, 28770, Note_on_c, 12, 58, 84
14, 28791, Note_on_c, 12, 58, 0
14, 28800, Note_on_c, 12, 63, 84
14, 28844, Note_on_c, 12, 63, 0
14, 28890, Note_on_c, 12, 58, 80
14, 28911, Note_on_c, 12, 58, 0
14, 28920, Note_on_c, 12, 63, 79
14, 28964, Note_on_c, 12, 63, 0
14, 29010, Note_on_c, 12, 58, 75
14, 29031, Note_on_c, 12, 58, 0
14, 29040, Note_on_c, 12, 63, 74
14, 29084, Note_on_c, 12, 63, 0
14, 29130, Note_on_c, 12, 58, 70
14, 29151, Note_on_c, 12, 58, 0
14, 29160, Note_on_c, 12, 63, 68
14, 29204, Note_on_c, 12, 63, 0
14, 29250, Note_on_c, 12, 58, 64
14, 29271, Note_on_c, 12, 58, 0
14, 29280, Note_on_c, 12, 63, 63
14, 29324, Note_on_c, 12, 63, 0
14, 29370, Note_on_c, 12, 58, 59
14, 29391, Note_on_c, 12, 58, 0
14, 29400, Note_on_c, 12, 63, 58
14, 29444, Note_on_c, 12, 63, 0
14, 29490, Note_on_c, 12, 58, 54
14, 29511, Note_on_c, 12, 58, 0
14, 29610, Note_on_c, 12, 63, 52
14, 29631, Note_on_c, 12, 63, 0
14, 29640, Note_on_c, 12, 67, 52
14, 29684, Note_on_c, 12, 67, 0
14, 29700, Note_on_c, 12, 67, 52
14, 29744, Note_on_c, 12, 67, 0
14, 29850, Note_on_c, 12, 63, 52
14, 29871, Note_on_c, 12, 63, 0
14, 29880, Note_on_c, 12, 70, 52
14, 29924, Note_on_c, 12, 70, 0
14, 29940, Note_on_c, 12, 70, 52
14, 29984, Note_on_c, 12, 70, 0
14, 30090, Note_on_c, 12, 63, 52
14, 30111, Note_on_c, 12, 63, 0
14, 30120, Note_on_c, 12, 68, 52
14, 30164, Note_on_c, 12, 68, 0
14, 30180, Note_on_c, 12, 68, 52
14, 30224, Note_on_c, 12, 68, 0
14, 30330, Note_on_c, 12, 62, 52
14, 30351, Note_on_c, 12, 62, 0
14, 30360, Note_on_c, 12, 65, 52
14, 30404, Note_on_c, 12, 65, 0
14, 30420, Note_on_c, 12, 65, 52
14, 30464, Note_on_c, 12, 65, 0
14, 30570, Note_on_c, 12, 63, 52
14, 30591, Note_on_c, 12, 63, 0
14, 30600, Note_on_c, 12, 65, 52
14, 30644, Note_on_c, 12, 65, 0
14, 30660, Note_on_c, 12, 58, 52
14, 30704, Note_on_c, 12, 58, 0
14, 30810, Note_on_c, 12, 58, 52
14, 30831, Note_on_c, 12, 58, 0
14, 30840, Note_on_c, 12, 60, 52
14, 30884, Note_on_c, 12, 60, 0
14, 30900, Note_on_c, 12, 60, 52
14, 30944, Note_on_c, 12, 60, 0
14, 31050, Note_on_c, 12, 55, 52
14, 31071, Note_on_c, 12, 55, 0
14, 31080, Note_on_c, 12, 58, 52
14, 31124, Note_on_c, 12, 58, 0
14, 31140, Note_on_c, 12, 58, 52
14, 31184, Note_on_c, 12, 58, 0
14, 31290, Note_on_c, 12, 56, 52
14, 31311, Note_on_c, 12, 56, 0
14, 31320, Note_on_c, 12, 55, 52
14, 31364, Note_on_c, 12, 55, 0
14, 31380, Note_on_c, 12, 58, 52
14, 31424, Note_on_c, 12, 58, 0
14, 31530, Note_on_c, 12, 58, 52
14, 31551, Note_on_c, 12, 58, 0
14, 31560, Note_on_c, 12, 63, 52
14, 31604, Note_on_c, 12, 63, 0
14, 31620, Note_on_c, 12, 63, 52
14, 31664, Note_on_c, 12, 63, 0
14, 31770, Note_on_c, 12, 60, 55
14, 31791, Note_on_c, 12, 60, 0
14, 31800, Note_on_c, 12, 63, 56
14, 31844, Note_on_c, 12, 63, 0
14, 31860, Note_on_c, 12, 63, 58
14, 31904, Note_on_c, 12, 63, 0
14, 32010, Note_on_c, 12, 58, 63
14, 32031, Note_on_c, 12, 58, 0
14, 32040, Note_on_c, 12, 62, 64
14, 32084, Note_on_c, 12, 62, 0
14, 32100, Note_on_c, 12, 62, 66
14, 32144, Note_on_c, 12, 62, 0
14, 32250, Note_on_c, 12, 62, 76
14, 32271, Note_on_c, 12, 62, 0
14, 32280, Note_on_c, 12, 65, 68
14, 32324, Note_on_c, 12, 65, 0
14, 32340, Note_on_c, 12, 65, 68
14, 32384, Note_on_c, 12, 65, 0
14, 32400, Note_on_c, 12, 65, 52
14, 32459, Note_on_c, 12, 65, 0
14, 32490, Note_on_c, 12, 60, 52
14, 32511, Note_on_c, 12, 60, 0
14, 32520, Note_on_c, 12, 65, 52
14, 32564, Note_on_c, 12, 65, 0
14, 32610, Note_on_c, 12, 60, 52
14, 32631, Note_on_c, 12, 60, 0
14, 32640, Note_on_c, 12, 65, 52
14, 32684, Note_on_c, 12, 65, 0
14, 32730, Note_on_c, 12, 60, 52
14, 32751, Note_on_c, 12, 60, 0
14, 32760, Note_on_c, 12, 65, 52
14, 32804, Note_on_c, 12, 65, 0
14, 32850, Note_on_c, 12, 60, 52
14, 32871, Note_on_c, 12, 60, 0
14, 32880, Note_on_c, 12, 65, 52
14, 32999, Note_on_c, 12, 65, 0
14, 33120, Note_on_c, 12, 62, 52
14, 33164, Note_on_c, 12, 62, 0
14, 33210, Note_on_c, 12, 56, 52
14, 33231, Note_on_c, 12, 56, 0
14, 33240, Note_on_c, 12, 62, 52
14, 33284, Note_on_c, 12, 62, 0
14, 33330, Note_on_c, 12, 56, 52
14, 33351, Note_on_c, 12, 56, 0
14, 33360, Note_on_c, 12, 62, 52
14, 33404, Note_on_c, 12, 62, 0
14, 33450, Note_on_c, 12, 56, 52
14, 33471, Note_on_c, 12, 56, 0
14, 33480, Note_on_c, 12, 63, 52
14, 33524, Note_on_c, 12, 63, 0
14, 33570, Note_on_c, 12, 55, 52
14, 33591, Note_on_c, 12, 55, 0
14, 33600, Note_on_c, 12, 65, 52
14, 33644, Note_on_c, 12, 65, 0
14, 33690, Note_on_c, 12, 60, 52
14, 33711, Note_on_c, 12, 60, 0
14, 33720, Note_on_c, 12, 60, 52
14, 33764, Note_on_c, 12, 60, 0
14, 33810, Note_on_c, 12, 56, 52
14, 33831, Note_on_c, 12, 56, 0
14, 33930, Note_on_c, 12, 55, 55
14, 33951, Note_on_c, 12, 55, 0
14, 33960, Note_on_c, 12, 58, 56
14, 34004, Note_on_c, 12, 58, 0
14, 34020, Note_on_c, 12, 58, 58
14, 34064, Note_on_c, 12, 58, 0
14, 34170, Note_on_c, 12, 55, 63
14, 34191, Note_on_c, 12, 55, 0
14, 34200, Note_on_c, 12, 58, 64
14, 34244, Note_on_c, 12, 58, 0
14, 34260, Note_on_c, 12, 58, 66
14, 34304, Note_on_c, 12, 58, 0
14, 34410, Note_on_c, 12, 56, 71
14, 34431, Note_on_c, 12, 56, 0
14, 34440, Note_on_c, 12, 62, 72
14, 34440, Note_on_c, 12, 56, 72
14, 34484, Note_on_c, 12, 62, 0
14, 34484, Note_on_c, 12, 56, 0
14, 34500, Note_on_c, 12, 62, 74
14, 34500, Note_on_c, 12, 56, 74
14, 34544, Note_on_c, 12, 62, 0
14, 34544, Note_on_c, 12, 56, 0
14, 34560, Note_on_c, 12, 55, 76
14, 34560, Note_on_c, 12, 63, 76
14, 34604, Note_on_c, 12, 55, 0
14, 34604, Note_on_c, 12, 63, 0
14, 34650, Note_on_c, 12, 58, 76
14, 34671, Note_on_c, 12, 58, 0
14, 34680, Note_on_c, 12, 63, 76
14, 34724, Note_on_c, 12, 63, 0
14, 34770, Note_on_c, 12, 58, 76
14, 34791, Note_on_c, 12, 58, 0
14, 34800, Note_on_c, 12, 63, 76
14, 34844, Note_on_c, 12, 63, 0
14, 34890, Note_on_c, 12, 58, 76
14, 34911, Note_on_c, 12, 58, 0
14, 34920, Note_on_c, 12, 63, 76
14, 34964, Note_on_c, 12, 63, 0
14, 35010, Note_on_c, 12, 58, 76
14, 35031, Note_on_c, 12, 58, 0
14, 35040, Note_on_c, 12, 63, 76
14, 35084, Note_on_c, 12, 63, 0
14, 35130, Note_on_c, 12, 58, 76
14, 35151, Note_on_c, 12, 58, 0
14, 35160, Note_on_c, 12, 63, 76
14, 35204, Note_on_c, 12, 63, 0
14, 35250, Note_on_c, 12, 58, 76
14, 35271, Note_on_c, 12, 58, 0
14, 35280, Note_on_c, 12, 63, 84
14, 35511, Note_on_c, 12, 63, 0
14, 35520, Note_on_c, 12, 61, 92
14, 35744, Note_on_c, 12, 61, 0
14, 35760, Note_on_c, 12, 59, 92
14, 35984, Note_on_c, 12, 59, 0
14, 36000, Note_on_c, 12, 58, 92
14, 36224, Note_on_c, 12, 58, 0
14, 36240, Note_on_c, 12, 56, 92
14, 36464, Note_on_c, 12, 56, 0
14, 36480, Note_on_c, 12, 66, 92
14, 36704, Note_on_c, 12, 66, 0
14, 36720, Note_on_c, 12, 65, 92
14, 36944, Note_on_c, 12, 65, 0
14, 36960, Note_on_c, 12, 63, 92
14, 37184, Note_on_c, 12, 63, 0
14, 37200, Note_on_c, 12, 62, 92
14, 37424, Note_on_c, 12, 62, 0
14, 37440, Note_on_c, 12, 63, 92
14, 37465, Note_on_c, 12, 63, 0
14, 37470, Note_on_c, 12, 63, 84
14, 37495, Note_on_c, 12, 63, 0
14, 37500, Note_on_c, 12, 63, 84
14, 37525, Note_on_c, 12, 63, 0
14, 37530, Note_on_c, 12, 63, 84
14, 37555, Note_on_c, 12, 63, 0
14, 37560, Note_on_c, 12, 63, 84
14, 37585, Note_on_c, 12, 63, 0
14, 37590, Note_on_c, 12, 63, 84
14, 37615, Note_on_c, 12, 63, 0
14, 37620, Note_on_c, 12, 63, 84
14, 37645, Note_on_c, 12, 63, 0
14, 37650, Note_on_c, 12, 63, 84
14, 37675, Note_on_c, 12, 63, 0
14, 37680, Note_on_c, 12, 61, 92
14, 37705, Note_on_c, 12, 61, 0
14, 37710, Note_on_c, 12, 61, 84
14, 37735, Note_on_c, 12, 61, 0
14, 37740, Note_on_c, 12, 61, 84
14, 37765, Note_on_c, 12, 61, 0
14, 37770, Note_on_c, 12, 61, 84
14, 37795, Note_on_c, 12, 61, 0
14, 37800, Note_on_c, 12, 61, 84
14, 37825, Note_on_c, 12, 61, 0
14, 37830, Note_on_c, 12, 61, 84
14, 37855, Note_on_c, 12, 61, 0
14, 37860, Note_on_c, 12, 61, 84
14, 37885, Note_on_c, 12, 61, 0
14, 37890, Note_on_c, 12, 61, 84
14, 37915, Note_on_c, 12, 61, 0
14, 37920, Note_on_c, 12, 59, 92
14, 37945, Note_on_c, 12, 59, 0
14, 37950, Note_on_c, 12, 59, 84
14, 37975, Note_on_c, 12, 59, 0
14, 37980, Note_on_c, 12, 59, 84
14, 38005, Note_on_c, 12, 59, 0
14, 38010, Note_on_c, 12, 59, 84
14, 38035, Note_on_c, 12, 59, 0
14, 38040, Note_on_c, 12, 59, 84
14, 38065, Note_on_c, 12, 59, 0
14, 38070, Note_on_c, 12, 59, 84
14, 38095, Note_on_c, 12, 59, 0
14, 38100, Note_on_c, 12, 59, 84
14, 38125, Note_on_c, 12, 59, 0
14, 38130, Note_on_c, 12, 59, 84
14, 38155, Note_on_c, 12, 59, 0
14, 38160, Note_on_c, 12, 68, 52
14, 38279, Note_on_c, 12, 68, 0
14, 38880, Note_on_c, 12, 65, 52
14, 39029, Note_on_c, 12, 65, 0
14, 39030, Note_on_c, 12, 64, 52
14, 39059, Note_on_c, 12, 64, 0
14, 39060, Note_on_c, 12, 65, 52
14, 39089, Note_on_c, 12, 65, 0
14, 39090, Note_on_c, 12, 66, 52
14, 39111, Note_on_c, 12, 66, 0
14, 39120, Note_on_c, 12, 68, 52
14, 39269, Note_on_c, 12, 68, 0
14, 39270, Note_on_c, 12, 70, 52
14, 39299, Note_on_c, 12, 70, 0
14, 39300, Note_on_c, 12, 68, 52
14, 39329, Note_on_c, 12, 68, 0
14, 39330, Note_on_c, 12, 66, 52
14, 39351, Note_on_c, 12, 66, 0
14, 39360, Note_on_c, 12, 65, 52
14, 39509, Note_on_c, 12, 65, 0
14, 39510, Note_on_c, 12, 64, 52
14, 39539, Note_on_c, 12, 64, 0
14, 39540, Note_on_c, 12, 65, 52
14, 39569, Note_on_c, 12, 65, 0
14, 39570, Note_on_c, 12, 66, 52
14, 39591, Note_on_c, 12, 66, 0
14, 39600, Note_on_c, 12, 68, 52
14, 39869, Note_on_c, 12, 68, 0
14, 39870, Note_on_c, 12, 65, 52
14, 39899, Note_on_c, 12, 65, 0
14, 39900, Note_on_c, 12, 61, 52
14, 39929, Note_on_c, 12, 61, 0
14, 39930, Note_on_c, 12, 65, 52
14, 39959, Note_on_c, 12, 65, 0
14, 39960, Note_on_c, 12, 68, 52
14, 39989, Note_on_c, 12, 68, 0
14, 39990, Note_on_c, 12, 71, 52
14, 40019, Note_on_c, 12, 71, 0
14, 40020, Note_on_c, 12, 68, 52
14, 40049, Note_on_c, 12, 68, 0
14, 40050, Note_on_c, 12, 65, 52
14, 40071, Note_on_c, 12, 65, 0
14, 40080, Note_on_c, 12, 61, 52
14, 40109, Note_on_c, 12, 61, 0
14, 40110, Note_on_c, 12, 65, 52
14, 40139, Note_on_c, 12, 65, 0
14, 40140, Note_on_c, 12, 61, 52
14, 40169, Note_on_c, 12, 61, 0
14, 40170, Note_on_c, 12, 65, 52
14, 40199, Note_on_c, 12, 65, 0
14, 40200, Note_on_c, 12, 68, 52
14, 40229, Note_on_c, 12, 68, 0
14, 40230, Note_on_c, 12, 71, 52
14, 40259, Note_on_c, 12, 71, 0
14, 40260, Note_on_c, 12, 68, 52
14, 40289, Note_on_c, 12, 68, 0
14, 40290, Note_on_c, 12, 65, 52
14, 40311, Note_on_c, 12, 65, 0
14, 40320, Note_on_c, 12, 61, 52
14, 40589, Note_on_c, 12, 61, 0
14, 40590, Note_on_c, 12, 65, 52
14, 40619, Note_on_c, 12, 65, 0
14, 40620, Note_on_c, 12, 61, 52
14, 40649, Note_on_c, 12, 61, 0
14, 40650, Note_on_c, 12, 65, 52
14, 40679, Note_on_c, 12, 65, 0
14, 40680, Note_on_c, 12, 68, 52
14, 40709, Note_on_c, 12, 68, 0
14, 40710, Note_on_c, 12, 71, 52
14, 40739, Note_on_c, 12, 71, 0
14, 40740, Note_on_c, 12, 68, 52
14, 40769, Note_on_c, 12, 68, 0
14, 40770, Note_on_c, 12, 65, 52
14, 40791, Note_on_c, 12, 65, 0
14, 40800, Note_on_c, 12, 61, 52
14, 40829, Note_on_c, 12, 61, 0
14, 40830, Note_on_c, 12, 65, 52
14, 40859, Note_on_c, 12, 65, 0
14, 40860, Note_on_c, 12, 61, 52
14, 40889, Note_on_c, 12, 61, 0
14, 40890, Note_on_c, 12, 65, 52
14, 40919, Note_on_c, 12, 65, 0
14, 40920, Note_on_c, 12, 68, 52
14, 40949, Note_on_c, 12, 68, 0
14, 40950, Note_on_c, 12, 71, 52
14, 40979, Note_on_c, 12, 71, 0
14, 40980, Note_on_c, 12, 68, 52
14, 41009, Note_on_c, 12, 68, 0
14, 41010, Note_on_c, 12, 65, 52
14, 41031, Note_on_c, 12, 65, 0
14, 41040, Note_on_c, 12, 61, 52
14, 41159, Note_on_c, 12, 61, 0
14, 41280, Note_on_c, 12, 68, 52
14, 41399, Note_on_c, 12, 68, 0
14, 41520, Note_on_c, 12, 68, 52
14, 41639, Note_on_c, 12, 68, 0
14, 41760, Note_on_c, 12, 68, 52
14, 41991, Note_on_c, 12, 68, 0
14, 42000, Note_on_c, 12, 71, 52
14, 42000, Control_c, 12, 11, 127
14, 42032, Control_c, 12, 11, 126
14, 42064, Control_c, 12, 11, 125
14, 42096, Control_c, 12, 11, 124
14, 42128, Control_c, 12, 11, 123
14, 42160, Control_c, 12, 11, 122
14, 42192, Control_c, 12, 11, 121
14, 42224, Control_c, 12, 11, 120
14, 42256, Control_c, 12, 11, 119
14, 42288, Control_c, 12, 11, 118
14, 42320, Control_c, 12, 11, 117
14, 42352, Control_c, 12, 11, 116
14, 42384, Control_c, 12, 11, 115
14, 42416, Control_c, 12, 11, 114
14, 42448, Control_c, 12, 11, 112
14, 42471, Note_on_c, 12, 71, 0
14, 42480, Note_on_c, 12, 70, 52
14, 42599, Note_on_c, 12, 70, 0
14, 42960, Control_c, 12, 11, 127
14, 43200, Note_on_c, 12, 66, 44
14, 43311, Note_on_c, 12, 66, 0
14, 43320, Note_on_c, 12, 66, 44
14, 43431, Note_on_c, 12, 66, 0
14, 43440, Note_on_c, 12, 66, 44
14, 43551, Note_on_c, 12, 66, 0
14, 43560, Note_on_c, 12, 66, 44
14, 43671, Note_on_c, 12, 66, 0
14, 43680, Note_on_c, 12, 66, 44
14, 43791, Note_on_c, 12, 66, 0
14, 43800, Note_on_c, 12, 66, 44
14, 43911, Note_on_c, 12, 66, 0
14, 43920, Note_on_c, 12, 65, 44
14, 44039, Note_on_c, 12, 65, 0
14, 44640, Note_on_c, 12, 68, 44
14, 44751, Note_on_c, 12, 68, 0
14, 44760, Note_on_c, 12, 68, 44
14, 44871, Note_on_c, 12, 68, 0
14, 44880, Note_on_c, 12, 66, 44
14, 44991, Note_on_c, 12, 66, 0
14, 45000, Note_on_c, 12, 66, 44
14, 45111, Note_on_c, 12, 66, 0
14, 45120, Note_on_c, 12, 65, 44
14, 45231, Note_on_c, 12, 65, 0
14, 45240, Note_on_c, 12, 65, 44
14, 45351, Note_on_c, 12, 65, 0
14, 45360, Note_on_c, 12, 63, 44
14, 45479, Note_on_c, 12, 63, 0
14, 46120, Note_on_c, 12, 67, 44
14, 46159, Note_on_c, 12, 67, 0
14, 46160, Note_on_c, 12, 70, 44
14, 46199, Note_on_c, 12, 70, 0
14, 46240, Note_on_c, 12, 67, 44
14, 46279, Note_on_c, 12, 67, 0
14, 46280, Note_on_c, 12, 70, 44
14, 46319, Note_on_c, 12, 70, 0
14, 46360, Note_on_c, 12, 67, 44
14, 46399, Note_on_c, 12, 67, 0
14, 46400, Note_on_c, 12, 70, 44
14, 46439, Note_on_c, 12, 70, 0
14, 46480, Note_on_c, 12, 67, 44
14, 46519, Note_on_c, 12, 67, 0
14, 46520, Note_on_c, 12, 70, 44
14, 46559, Note_on_c, 12, 70, 0
14, 46600, Note_on_c, 12, 63, 44
14, 46639, Note_on_c, 12, 63, 0
14, 46640, Note_on_c, 12, 68, 44
14, 46679, Note_on_c, 12, 68, 0
14, 46720, Note_on_c, 12, 63, 44
14, 46759, Note_on_c, 12, 63, 0
14, 46760, Note_on_c, 12, 68, 44
14, 46799, Note_on_c, 12, 68, 0
14, 46840, Note_on_c, 12, 62, 44
14, 46879, Note_on_c, 12, 62, 0
14, 46880, Note_on_c, 12, 65, 44
14, 46919, Note_on_c, 12, 65, 0
14, 46960, Note_on_c, 12, 62, 44
14, 46999, Note_on_c, 12, 62, 0
14, 47000, Note_on_c, 12, 65, 44
14, 47039, Note_on_c, 12, 65, 0
14, 47080, Note_on_c, 12, 62, 44
14, 47119, Note_on_c, 12, 62, 0
14, 47120, Note_on_c, 12, 65, 44
14, 47159, Note_on_c, 12, 65, 0
14, 47200, Note_on_c, 12, 62, 44
14, 47239, Note_on_c, 12, 62, 0
14, 47240, Note_on_c, 12, 65, 44
14, 47279, Note_on_c, 12, 65, 0
14, 47320, Note_on_c, 12, 58, 44
14, 47359, Note_on_c, 12, 58, 0
14, 47360, Note_on_c, 12, 63, 44
14, 47399, Note_on_c, 12, 63, 0
14, 47440, Note_on_c, 12, 56, 44
14, 47479, Note_on_c, 12, 56, 0
14, 47480, Note_on_c, 12, 60, 44
14, 47519, Note_on_c, 12, 60, 0
14, 47560, Note_on_c, 12, 55, 44
14, 47599, Note_on_c, 12, 55, 0
14, 47600, Note_on_c, 12, 58, 44
14, 47639, Note_on_c, 12, 58, 0
14, 47680, Note_on_c, 12, 55, 44
14, 47719, Note_on_c, 12, 55, 0
14, 47720, Note_on_c, 12, 58, 44
14, 47759, Note_on_c, 12, 58, 0
14, 47800, Note_on_c, 12, 56, 44
14, 47839, Note_on_c, 12, 56, 0
14, 47840, Note_on_c, 12, 58, 44
14, 47879, Note_on_c, 12, 58, 0
14, 47920, Note_on_c, 12, 55, 44
14, 47959, Note_on_c, 12, 55, 0
14, 47960, Note_on_c, 12, 58, 44
14, 47999, Note_on_c, 12, 58, 0
14, 48040, Note_on_c, 12, 65, 44
14, 48079, Note_on_c, 12, 65, 0
14, 48080, Note_on_c, 12, 58, 44
14, 48119, Note_on_c, 12, 58, 0
14, 48160, Note_on_c, 12, 63, 44
14, 48195, Note_on_c, 12, 63, 0
14, 48200, Note_on_c, 12, 63, 44
14, 48239, Note_on_c, 12, 63, 0
14, 48280, Note_on_c, 12, 60, 44
14, 48319, Note_on_c, 12, 60, 0
14, 48320, Note_on_c, 12, 63, 45
14, 48359, Note_on_c, 12, 63, 0
14, 48400, Note_on_c, 12, 60, 47
14, 48439, Note_on_c, 12, 60, 0
14, 48440, Note_on_c, 12, 63, 48
14, 48479, Note_on_c, 12, 63, 0
14, 48520, Note_on_c, 12, 58, 50
14, 48559, Note_on_c, 12, 58, 0
14, 48560, Note_on_c, 12, 62, 51
14, 48599, Note_on_c, 12, 62, 0
14, 48640, Note_on_c, 12, 58, 52
14, 48679, Note_on_c, 12, 58, 0
14, 48680, Note_on_c, 12, 62, 53
14, 48719, Note_on_c, 12, 62, 0
14, 48760, Note_on_c, 12, 62, 55
14, 48799, Note_on_c, 12, 62, 0
14, 48800, Note_on_c, 12, 65, 56
14, 48839, Note_on_c, 12, 65, 0
14, 48880, Note_on_c, 12, 65, 58
14, 48915, Note_on_c, 12, 65, 0
14, 48920, Note_on_c, 12, 65, 59
14, 48955, Note_on_c, 12, 65, 0
14, 48960, Note_on_c, 12, 65, 52
14, 48991, Note_on_c, 12, 65, 0
14, 49000, Note_on_c, 12, 60, 52
14, 49039, Note_on_c, 12, 60, 0
14, 49040, Note_on_c, 12, 65, 52
14, 49079, Note_on_c, 12, 65, 0
14, 49120, Note_on_c, 12, 60, 52
14, 49159, Note_on_c, 12, 60, 0
14, 49160, Note_on_c, 12, 65, 52
14, 49199, Note_on_c, 12, 65, 0
14, 49240, Note_on_c, 12, 60, 52
14, 49279, Note_on_c, 12, 60, 0
14, 49280, Note_on_c, 12, 65, 52
14, 49319, Note_on_c, 12, 65, 0
14, 49360, Note_on_c, 12, 60, 52
14, 49399, Note_on_c, 12, 60, 0
14, 49400, Note_on_c, 12, 65, 52
14, 49439, Note_on_c, 12, 65, 0
14, 49480, Note_on_c, 12, 60, 52
14, 49519, Note_on_c, 12, 60, 0
14, 49520, Note_on_c, 12, 65, 52
14, 49559, Note_on_c, 12, 65, 0
14, 49600, Note_on_c, 12, 60, 52
14, 49639, Note_on_c, 12, 60, 0
14, 49640, Note_on_c, 12, 65, 52
14, 49679, Note_on_c, 12, 65, 0
14, 49720, Note_on_c, 12, 62, 52
14, 49759, Note_on_c, 12, 62, 0
14, 49760, Note_on_c, 12, 68, 52
14, 49799, Note_on_c, 12, 68, 0
14, 49840, Note_on_c, 12, 62, 52
14, 49879, Note_on_c, 12, 62, 0
14, 49880, Note_on_c, 12, 68, 52
14, 49919, Note_on_c, 12, 68, 0
14, 49960, Note_on_c, 12, 65, 52
14, 49999, Note_on_c, 12, 65, 0
14, 50000, Note_on_c, 12, 68, 52
14, 50039, Note_on_c, 12, 68, 0
14, 50080, Note_on_c, 12, 60, 52
14, 50119, Note_on_c, 12, 60, 0
14, 50120, Note_on_c, 12, 63, 52
14, 50159, Note_on_c, 12, 63, 0
14, 50200, Note_on_c, 12, 60, 52
14, 50239, Note_on_c, 12, 60, 0
14, 50240, Note_on_c, 12, 65, 52
14, 50279, Note_on_c, 12, 65, 0
14, 50320, Note_on_c, 12, 65, 52
14, 50359, Note_on_c, 12, 65, 0
14, 50360, Note_on_c, 12, 68, 52
14, 50399, Note_on_c, 12, 68, 0
14, 50440, Note_on_c, 12, 63, 53
14, 50479, Note_on_c, 12, 63, 0
14, 50480, Note_on_c, 12, 67, 54
14, 50519, Note_on_c, 12, 67, 0
14, 50560, Note_on_c, 12, 63, 57
14, 50599, Note_on_c, 12, 63, 0
14, 50600, Note_on_c, 12, 67, 58
14, 50639, Note_on_c, 12, 67, 0
14, 50680, Note_on_c, 12, 63, 61
14, 50719, Note_on_c, 12, 63, 0
14, 50720, Note_on_c, 12, 67, 62
14, 50759, Note_on_c, 12, 67, 0
14, 50800, Note_on_c, 12, 64, 65
14, 50839, Note_on_c, 12, 64, 0
14, 50840, Note_on_c, 12, 67, 66
14, 50879, Note_on_c, 12, 67, 0
14, 50920, Note_on_c, 12, 65, 69
14, 50959, Note_on_c, 12, 65, 0
14, 50960, Note_on_c, 12, 68, 70
14, 50999, Note_on_c, 12, 68, 0
14, 51040, Note_on_c, 12, 62, 73
14, 51079, Note_on_c, 12, 62, 0
14, 51080, Note_on_c, 12, 65, 74
14, 51111, Note_on_c, 12, 65, 0
14, 51120, Note_on_c, 12, 63, 76
14, 51145, Note_on_c, 12, 63, 0
14, 51150, Note_on_c, 12, 58, 76
14, 51179, Note_on_c, 12, 58, 0
14, 51180, Note_on_c, 12, 55, 76
14, 51209, Note_on_c, 12, 55, 0
14, 51210, Note_on_c, 12, 58, 76
14, 51239, Note_on_c, 12, 58, 0
14, 51240, Note_on_c, 12, 63, 84
14, 51269, Note_on_c, 12, 63, 0
14, 51270, Note_on_c, 12, 67, 76
14, 51299, Note_on_c, 12, 67, 0
14, 51300, Note_on_c, 12, 63, 76
14, 51329, Note_on_c, 12, 63, 0
14, 51330, Note_on_c, 12, 58, 76
14, 51359, Note_on_c, 12, 58, 0
14, 51390, Note_on_c, 12, 58, 76
14, 51419, Note_on_c, 12, 58, 0
14, 51420, Note_on_c, 12, 55, 76
14, 51449, Note_on_c, 12, 55, 0
14, 51450, Note_on_c, 12, 58, 76
14, 51479, Note_on_c, 12, 58, 0
14, 51480, Note_on_c, 12, 63, 84
14, 51509, Note_on_c, 12, 63, 0
14, 51510, Note_on_c, 12, 67, 76
14, 51539, Note_on_c, 12, 67, 0
14, 51540, Note_on_c, 12, 63, 76
14, 51569, Note_on_c, 12, 63, 0
14, 51570, Note_on_c, 12, 58, 76
14, 51599, Note_on_c, 12, 58, 0
14, 51630, Note_on_c, 12, 58, 76
14, 51659, Note_on_c, 12, 58, 0
14, 51660, Note_on_c, 12, 55, 76
14, 51689, Note_on_c, 12, 55, 0
14, 51690, Note_on_c, 12, 58, 76
14, 51719, Note_on_c, 12, 58, 0
14, 51720, Note_on_c, 12, 63, 84
14, 51749, Note_on_c, 12, 63, 0
14, 51750, Note_on_c, 12, 67, 76
14, 51779, Note_on_c, 12, 67, 0
14, 51780, Note_on_c, 12, 63, 76
14, 51809, Note_on_c, 12, 63, 0
14, 51810, Note_on_c, 12, 58, 76
14, 51839, Note_on_c, 12, 58, 0
14, 51870, Note_on_c, 12, 62, 76
14, 51899, Note_on_c, 12, 62, 0
14, 51900, Note_on_c, 12, 58, 52
14, 51929, Note_on_c, 12, 58, 0
14, 51930, Note_on_c, 12, 62, 52
14, 51959, Note_on_c, 12, 62, 0
14, 51990, Note_on_c, 12, 62, 52
14, 52019, Note_on_c, 12, 62, 0
14, 52020, Note_on_c, 12, 58, 52
14, 52049, Note_on_c, 12, 58, 0
14, 52050, Note_on_c, 12, 62, 52
14, 52079, Note_on_c, 12, 62, 0
14, 52110, Note_on_c, 12, 62, 52
14, 52139, Note_on_c, 12, 62, 0
14, 52140, Note_on_c, 12, 58, 52
14, 52169, Note_on_c, 12, 58, 0
14, 52170, Note_on_c, 12, 62, 52
14, 52199, Note_on_c, 12, 62, 0
14, 52230, Note_on_c, 12, 62, 52
14, 52259, Note_on_c, 12, 62, 0
14, 52260, Note_on_c, 12, 58, 52
14, 52289, Note_on_c, 12, 58, 0
14, 52290, Note_on_c, 12, 62, 52
14, 52319, Note_on_c, 12, 62, 0
14, 52350, Note_on_c, 12, 62, 52
14, 52379, Note_on_c, 12, 62, 0
14, 52380, Note_on_c, 12, 58, 52
14, 52409, Note_on_c, 12, 58, 0
14, 52410, Note_on_c, 12, 62, 52
14, 52439, Note_on_c, 12, 62, 0
14, 52470, Note_on_c, 12, 62, 52
14, 52499, Note_on_c, 12, 62, 0
14, 52500, Note_on_c, 12, 58, 52
14, 52529, Note_on_c, 12, 58, 0
14, 52530, Note_on_c, 12, 62, 52
14, 52555, Note_on_c, 12, 62, 0
14, 52560, Note_on_c, 12, 55, 76
14, 52560, Note_on_c, 12, 63, 76
14, 52585, Note_on_c, 12, 55, 0
14, 52585, Note_on_c, 12, 63, 0
14, 52590, Note_on_c, 12, 58, 76
14, 52619, Note_on_c, 12, 58, 0
14, 52620, Note_on_c, 12, 55, 76
14, 52649, Note_on_c, 12, 55, 0
14, 52650, Note_on_c, 12, 58, 76
14, 52679, Note_on_c, 12, 58, 0
14, 52680, Note_on_c, 12, 63, 84
14, 52709, Note_on_c, 12, 63, 0
14, 52710, Note_on_c, 12, 67, 76
14, 52739, Note_on_c, 12, 67, 0
14, 52740, Note_on_c, 12, 63, 76
14, 52769, Note_on_c, 12, 63, 0
14, 52770, Note_on_c, 12, 58, 76
14, 52799, Note_on_c, 12, 58, 0
14, 52830, Note_on_c, 12, 58, 76
14, 52859, Note_on_c, 12, 58, 0
14, 52860, Note_on_c, 12, 55, 76
14, 52889, Note_on_c, 12, 55, 0
14, 52890, Note_on_c, 12, 58, 76
14, 52919, Note_on_c, 12, 58, 0
14, 52920, Note_on_c, 12, 63, 84
14, 52949, Note_on_c, 12, 63, 0
14, 52950, Note_on_c, 12, 67, 76
14, 52979, Note_on_c, 12, 67, 0
14, 52980, Note_on_c, 12, 63, 76
14, 53009, Note_on_c, 12, 63, 0
14, 53010, Note_on_c, 12, 58, 76
14, 53039, Note_on_c, 12, 58, 0
14, 53070, Note_on_c, 12, 58, 76
14, 53099, Note_on_c, 12, 58, 0
14, 53100, Note_on_c, 12, 55, 76
14, 53129, Note_on_c, 12, 55, 0
14, 53130, Note_on_c, 12, 58, 76
14, 53159, Note_on_c, 12, 58, 0
14, 53160, Note_on_c, 12, 63, 84
14, 53189, Note_on_c, 12, 63, 0
14, 53190, Note_on_c, 12, 67, 76
14, 53219, Note_on_c, 12, 67, 0
14, 53220, Note_on_c, 12, 63, 76
14, 53249, Note_on_c, 12, 63, 0
14, 53250, Note_on_c, 12, 58, 76
14, 53279, Note_on_c, 12, 58, 0
14, 53310, Note_on_c, 12, 67, 76
14, 53339, Note_on_c, 12, 67, 0
14, 53340, Note_on_c, 12, 64, 52
14, 53369, Note_on_c, 12, 64, 0
14, 53370, Note_on_c, 12, 67, 52
14, 53399, Note_on_c, 12, 67, 0
14, 53430, Note_on_c, 12, 67, 52
14, 53459, Note_on_c, 12, 67, 0
14, 53460, Note_on_c, 12, 64, 52
14, 53489, Note_on_c, 12, 64, 0
14, 53490, Note_on_c, 12, 67, 52
14, 53519, Note_on_c, 12, 67, 0
14, 53550, Note_on_c, 12, 67, 52
14, 53579, Note_on_c, 12, 67, 0
14, 53580, Note_on_c, 12, 64, 52
14, 53609, Note_on_c, 12, 64, 0
14, 53610, Note_on_c, 12, 67, 52
14, 53639, Note_on_c, 12, 67, 0
14, 53670, Note_on_c, 12, 67, 52
14, 53699, Note_on_c, 12, 67, 0
14, 53700, Note_on_c, 12, 64, 52
14, 53729, Note_on_c, 12, 64, 0
14, 53730, Note_on_c, 12, 67, 52
14, 53759, Note_on_c, 12, 67, 0
14, 53790, Note_on_c, 12, 67, 52
14, 53819, Note_on_c, 12, 67, 0
14, 53820, Note_on_c, 12, 64, 52
14, 53849, Note_on_c, 12, 64, 0
14, 53850, Note_on_c, 12, 67, 52
14, 53879, Note_on_c, 12, 67, 0
14, 53910, Note_on_c, 12, 67, 52
14, 53939, Note_on_c, 12, 67, 0
14, 53940, Note_on_c, 12, 64, 52
14, 53969, Note_on_c, 12, 64, 0
14, 53970, Note_on_c, 12, 67, 52
14, 53995, Note_on_c, 12, 67, 0
14, 54000, Note_on_c, 12, 68, 76
14, 54029, Note_on_c, 12, 68, 0
14, 54030, Note_on_c, 12, 65, 76
14, 54059, Note_on_c, 12, 65, 0
14, 54060, Note_on_c, 12, 60, 76
14, 54089, Note_on_c, 12, 60, 0
14, 54090, Note_on_c, 12, 65, 76
14, 54119, Note_on_c, 12, 65, 0
14, 54120, Note_on_c, 12, 68, 84
14, 54149, Note_on_c, 12, 68, 0
14, 54150, Note_on_c, 12, 72, 76
14, 54179, Note_on_c, 12, 72, 0
14, 54180, Note_on_c, 12, 68, 76
14, 54209, Note_on_c, 12, 68, 0
14, 54210, Note_on_c, 12, 65, 76
14, 54239, Note_on_c, 12, 65, 0
14, 54270, Note_on_c, 12, 65, 76
14, 54299, Note_on_c, 12, 65, 0
14, 54300, Note_on_c, 12, 60, 76
14, 54329, Note_on_c, 12, 60, 0
14, 54330, Note_on_c, 12, 65, 76
14, 54359, Note_on_c, 12, 65, 0
14, 54360, Note_on_c, 12, 68, 84
14, 54389, Note_on_c, 12, 68, 0
14, 54390, Note_on_c, 12, 72, 76
14, 54419, Note_on_c, 12, 72, 0
14, 54420, Note_on_c, 12, 68, 76
14, 54449, Note_on_c, 12, 68, 0
14, 54450, Note_on_c, 12, 65, 76
14, 54479, Note_on_c, 12, 65, 0
14, 54510, Note_on_c, 12, 65, 76
14, 54539, Note_on_c, 12, 65, 0
14, 54540, Note_on_c, 12, 60, 76
14, 54569, Note_on_c, 12, 60, 0
14, 54570, Note_on_c, 12, 65, 76
14, 54599, Note_on_c, 12, 65, 0
14, 54600, Note_on_c, 12, 68, 84
14, 54629, Note_on_c, 12, 68, 0
14, 54630, Note_on_c, 12, 72, 76
14, 54659, Note_on_c, 12, 72, 0
14, 54660, Note_on_c, 12, 68, 76
14, 54689, Note_on_c, 12, 68, 0
14, 54690, Note_on_c, 12, 65, 76
14, 54711, Note_on_c, 12, 65, 0
14, 54720, Note_on_c, 12, 58, 76
14, 54749, Note_on_c, 12, 58, 0
14, 54750, Note_on_c, 12, 58, 52
14, 54899, Note_on_c, 12, 58, 0
14, 54900, Note_on_c, 12, 60, 52
14, 54959, Note_on_c, 12, 60, 0
14, 54960, Note_on_c, 12, 62, 52
14, 55019, Note_on_c, 12, 62, 0
14, 55020, Note_on_c, 12, 63, 52
14, 55079, Note_on_c, 12, 63, 0
14, 55080, Note_on_c, 12, 65, 52
14, 55139, Note_on_c, 12, 65, 0
14, 55140, Note_on_c, 12, 66, 52
14, 55199, Note_on_c, 12, 66, 0
14, 55200, Note_on_c, 12, 65, 52
14, 55319, Note_on_c, 12, 65, 0
14, 55440, Note_on_c, 12, 62, 76
14, 55469, Note_on_c, 12, 62, 0
14, 55470, Note_on_c, 12, 62, 52
14, 55619, Note_on_c, 12, 62, 0
14, 55620, Note_on_c, 12, 63, 52
14, 55679, Note_on_c, 12, 63, 0
14, 55680, Note_on_c, 12, 65, 52
14, 55739, Note_on_c, 12, 65, 0
14, 55740, Note_on_c, 12, 67, 52
14, 55799, Note_on_c, 12, 67, 0
14, 55800, Note_on_c, 12, 68, 52
14, 55859, Note_on_c, 12, 68, 0
14, 55860, Note_on_c, 12, 69, 52
14, 55919, Note_on_c, 12, 69, 0
14, 55920, Note_on_c, 12, 70, 52
14, 56039, Note_on_c, 12, 70, 0
14, 56160, Note_on_c, 12, 80, 52
14, 56181, Note_on_c, 12, 80, 0
14, 56190, Note_on_c, 12, 77, 53
14, 56211, Note_on_c, 12, 77, 0
14, 56220, Note_on_c, 12, 76, 54
14, 56241, Note_on_c, 12, 76, 0
14, 56250, Note_on_c, 12, 77, 55
14, 56271, Note_on_c, 12, 77, 0
14, 56280, Note_on_c, 12, 80, 56
14, 56301, Note_on_c, 12, 80, 0
14, 56310, Note_on_c, 12, 77, 57
14, 56331, Note_on_c, 12, 77, 0
14, 56340, Note_on_c, 12, 79, 58
14, 56361, Note_on_c, 12, 79, 0
14, 56370, Note_on_c, 12, 75, 59
14, 56391, Note_on_c, 12, 75, 0
14, 56400, Note_on_c, 12, 77, 60
14, 56421, Note_on_c, 12, 77, 0
14, 56430, Note_on_c, 12, 74, 61
14, 56451, Note_on_c, 12, 74, 0
14, 56460, Note_on_c, 12, 75, 62
14, 56481, Note_on_c, 12, 75, 0
14, 56490, Note_on_c, 12, 72, 63
14, 56511, Note_on_c, 12, 72, 0
14, 56520, Note_on_c, 12, 74, 64
14, 56541, Note_on_c, 12, 74, 0
14, 56550, Note_on_c, 12, 70, 65
14, 56571, Note_on_c, 12, 70, 0
14, 56580, Note_on_c, 12, 75, 66
14, 56601, Note_on_c, 12, 75, 0
14, 56610, Note_on_c, 12, 72, 67
14, 56631, Note_on_c, 12, 72, 0
14, 56640, Note_on_c, 12, 77, 68
14, 56661, Note_on_c, 12, 77, 0
14, 56670, Note_on_c, 12, 74, 69
14, 56691, Note_on_c, 12, 74, 0
14, 56700, Note_on_c, 12, 79, 70
14, 56721, Note_on_c, 12, 79, 0
14, 56730, Note_on_c, 12, 75, 71
14, 56751, Note_on_c, 12, 75, 0
14, 56760, Note_on_c, 12, 80, 72
14, 56781, Note_on_c, 12, 80, 0
14, 56790, Note_on_c, 12, 77, 73
14, 56811, Note_on_c, 12, 77, 0
14, 56820, Note_on_c, 12, 82, 74
14, 56841, Note_on_c, 12, 82, 0
14, 56850, Note_on_c, 12, 79, 75
14, 56871, Note_on_c, 12, 79, 0
14, 56880, Note_on_c, 12, 84, 76
14, 56901, Note_on_c, 12, 84, 0
14, 56910, Note_on_c, 12, 80, 76
14, 56931, Note_on_c, 12, 80, 0
14, 56940, Note_on_c, 12, 77, 76
14, 56961, Note_on_c, 12, 77, 0
14, 56970, Note_on_c, 12, 79, 76
14, 56991, Note_on_c, 12, 79, 0
14, 57000, Note_on_c, 12, 80, 76
14, 57021, Note_on_c, 12, 80, 0
14, 57030, Note_on_c, 12, 77, 76
14, 57051, Note_on_c, 12, 77, 0
14, 57060, Note_on_c, 12, 74, 76
14, 57081, Note_on_c, 12, 74, 0
14, 57090, Note_on_c, 12, 75, 76
14, 57111, Note_on_c, 12, 75, 0
14, 57120, Note_on_c, 12, 77, 76
14, 57141, Note_on_c, 12, 77, 0
14, 57150, Note_on_c, 12, 74, 76
14, 57171, Note_on_c, 12, 74, 0
14, 57180, Note_on_c, 12, 68, 76
14, 57201, Note_on_c, 12, 68, 0
14, 57210, Note_on_c, 12, 70, 76
14, 57231, Note_on_c, 12, 70, 0
14, 57240, Note_on_c, 12, 72, 76
14, 57261, Note_on_c, 12, 72, 0
14, 57270, Note_on_c, 12, 70, 76
14, 57291, Note_on_c, 12, 70, 0
14, 57300, Note_on_c, 12, 68, 76
14, 57321, Note_on_c, 12, 68, 0
14, 57330, Note_on_c, 12, 67, 76
14, 57351, Note_on_c, 12, 67, 0
14, 57360, Note_on_c, 12, 65, 76
14, 57381, Note_on_c, 12, 65, 0
14, 57390, Note_on_c, 12, 63, 72
14, 57411, Note_on_c, 12, 63, 0
14, 57420, Note_on_c, 12, 62, 68
14, 57441, Note_on_c, 12, 62, 0
14, 57450, Note_on_c, 12, 60, 64
14, 57471, Note_on_c, 12, 60, 0
14, 57480, Note_on_c, 12, 58, 60
14, 57501, Note_on_c, 12, 58, 0
14, 57510, Note_on_c, 12, 70, 56
14, 57531, Note_on_c, 12, 70, 0
14, 57540, Note_on_c, 12, 68, 52
14, 57561, Note_on_c, 12, 68, 0
14, 57570, Note_on_c, 12, 65, 48
14, 57591, Note_on_c, 12, 65, 0
14, 57600, Note_on_c, 12, 63, 44
14, 57719, Note_on_c, 12, 63, 0
14, 58120, Note_on_c, 12, 56, 44
14, 58159, Note_on_c, 12, 56, 0
14, 58160, Note_on_c, 12, 59, 44
14, 58199, Note_on_c, 12, 59, 0
14, 58200, Note_on_c, 12, 62, 44
14, 58239, Note_on_c, 12, 62, 0
14, 58240, Note_on_c, 12, 65, 44
14, 58279, Note_on_c, 12, 65, 0
14, 58280, Note_on_c, 12, 68, 44
14, 58315, Note_on_c, 12, 68, 0
14, 58320, Note_on_c, 12, 71, 44
14, 59031, Note_on_c, 12, 71, 0
14, 59040, Note_on_c, 12, 70, 44
14, 59144, Note_on_c, 12, 70, 0
14, 59158, Program_c, 12, 45
14, 59160, Note_on_c, 12, 79, 44
14, 59279, Note_on_c, 12, 79, 0
14, 59280, Note_on_c, 12, 76, 44
14, 59399, Note_on_c, 12, 76, 0
14, 59400, Note_on_c, 12, 79, 44
14, 59519, Note_on_c, 12, 79, 0
14, 59520, Note_on_c, 12, 72, 44
14, 59639, Note_on_c, 12, 72, 0
14, 59640, Note_on_c, 12, 76, 44
14, 59759, Note_on_c, 12, 76, 0
14, 59760, Note_on_c, 12, 77, 44
14, 59879, Note_on_c, 12, 77, 0
14, 59880, Note_on_c, 12, 75, 44
14, 59999, Note_on_c, 12, 75, 0
14, 60000, Note_on_c, 12, 74, 44
14, 60119, Note_on_c, 12, 74, 0
14, 60120, Note_on_c, 12, 77, 44
14, 60239, Note_on_c, 12, 77, 0
14, 60240, Note_on_c, 12, 70, 44
14, 60359, Note_on_c, 12, 70, 0
14, 60360, Note_on_c, 12, 74, 44
14, 60479, Note_on_c, 12, 74, 0
14, 60480, Note_on_c, 12, 75, 44
14, 60599, Note_on_c, 12, 75, 0
14, 60600, Note_on_c, 12, 79, 45
14, 60719, Note_on_c, 12, 79, 0
14, 60720, Note_on_c, 12, 75, 47
14, 60839, Note_on_c, 12, 75, 0
14, 60840, Note_on_c, 12, 70, 49
14, 60959, Note_on_c, 12, 70, 0
14, 60960, Note_on_c, 12, 67, 50
14, 61079, Note_on_c, 12, 67, 0
14, 61080, Note_on_c, 12, 63, 52
14, 61199, Note_on_c, 12, 63, 0
14, 61200, Note_on_c, 12, 60, 54
14, 61319, Note_on_c, 12, 60, 0
14, 61320, Note_on_c, 12, 65, 48
14, 61439, Note_on_c, 12, 65, 0
14, 61440, Note_on_c, 12, 63, 48
14, 61559, Note_on_c, 12, 63, 0
14, 61560, Note_on_c, 12, 67, 48
14, 61679, Note_on_c, 12, 67, 0
14, 61680, Note_on_c, 12, 62, 48
14, 61799, Note_on_c, 12, 62, 0
14, 61800, Note_on_c, 12, 65, 48
14, 61919, Note_on_c, 12, 65, 0
14, 62040, Program_c, 12, 48
14, 62080, Note_on_c, 12, 58, 57
14, 62119, Note_on_c, 12, 58, 0
14, 62120, Note_on_c, 12, 61, 58
14, 62159, Note_on_c, 12, 61, 0
14, 62200, Note_on_c, 12, 61, 61
14, 62239, Note_on_c, 12, 61, 0
14, 62240, Note_on_c, 12, 64, 62
14, 62279, Note_on_c, 12, 64, 0
14, 62320, Note_on_c, 12, 64, 65
14, 62359, Note_on_c, 12, 64, 0
14, 62360, Note_on_c, 12, 67, 66
14, 62399, Note_on_c, 12, 67, 0
14, 62440, Note_on_c, 12, 67, 69
14, 62479, Note_on_c, 12, 67, 0
14, 62480, Note_on_c, 12, 70, 70
14, 62519, Note_on_c, 12, 70, 0
14, 62560, Note_on_c, 12, 70, 73
14, 62599, Note_on_c, 12, 70, 0
14, 62600, Note_on_c, 12, 76, 74
14, 62639, Note_on_c, 12, 76, 0
14, 62680, Note_on_c, 12, 76, 76
14, 62719, Note_on_c, 12, 76, 0
14, 62720, Note_on_c, 12, 79, 76
14, 62759, Note_on_c, 12, 79, 0
14, 62800, Note_on_c, 12, 76, 76
14, 62839, Note_on_c, 12, 76, 0
14, 62840, Note_on_c, 12, 79, 76
14, 62879, Note_on_c, 12, 79, 0
14, 62920, Note_on_c, 12, 77, 76
14, 62959, Note_on_c, 12, 77, 0
14, 62960, Note_on_c, 12, 76, 76
14, 62999, Note_on_c, 12, 76, 0
14, 63000, Note_on_c, 12, 77, 76
14, 63039, Note_on_c, 12, 77, 0
14, 63040, Note_on_c, 12, 79, 76
14, 63079, Note_on_c, 12, 79, 0
14, 63080, Note_on_c, 12, 80, 76
14, 63119, Note_on_c, 12, 80, 0
14, 63160, Note_on_c, 12, 70, 76
14, 63199, Note_on_c, 12, 70, 0
14, 63200, Note_on_c, 12, 75, 76
14, 63239, Note_on_c, 12, 75, 0
14, 63280, Note_on_c, 12, 65, 76
14, 63319, Note_on_c, 12, 65, 0
14, 63320, Note_on_c, 12, 68, 76
14, 63359, Note_on_c, 12, 68, 0
14, 63360, Note_on_c, 12, 75, 52
14, 63479, Note_on_c, 12, 75, 0
14, 66480, Note_on_c, 12, 70, 50
14, 66509, Note_on_c, 12, 70, 0
14, 66510, Note_on_c, 12, 72, 50
14, 66539, Note_on_c, 12, 72, 0
14, 66540, Note_on_c, 12, 70, 50
14, 66569, Note_on_c, 12, 70, 0
14, 66570, Note_on_c, 12, 69, 50
14, 66599, Note_on_c, 12, 69, 0
14, 66600, Note_on_c, 12, 70, 49
14, 66629, Note_on_c, 12, 70, 0
14, 66630, Note_on_c, 12, 74, 49
14, 66659, Note_on_c, 12, 74, 0
14, 66660, Note_on_c, 12, 75, 49
14, 66689, Note_on_c, 12, 75, 0
14, 66690, Note_on_c, 12, 70, 49
14, 66719, Note_on_c, 12, 70, 0
14, 66960, Note_on_c, 12, 63, 46
14, 66989, Note_on_c, 12, 63, 0
14, 66990, Note_on_c, 12, 65, 46
14, 67019, Note_on_c, 12, 65, 0
14, 67020, Note_on_c, 12, 63, 46
14, 67049, Note_on_c, 12, 63, 0
14, 67050, Note_on_c, 12, 62, 46
14, 67079, Note_on_c, 12, 62, 0
14, 67080, Note_on_c, 12, 63, 45
14, 67109, Note_on_c, 12, 63, 0
14, 67110, Note_on_c, 12, 65, 45
14, 67139, Note_on_c, 12, 65, 0
14, 67140, Note_on_c, 12, 67, 45
14, 67169, Note_on_c, 12, 67, 0
14, 67170, Note_on_c, 12, 63, 45
14, 67199, Note_on_c, 12, 63, 0
14, 68160, Program_c, 12, 45
14, 68400, Note_on_c, 12, 55, 44
14, 68519, Note_on_c, 12, 55, 0
14, 68880, Note_on_c, 12, 68, 44
14, 68999, Note_on_c, 12, 68, 0
14, 69120, Note_on_c, 12, 65, 44
14, 69359, Note_on_c, 12, 65, 0
14, 69480, Note_on_c, 12, 65, 44
14, 69599, Note_on_c, 12, 65, 0
14, 69600, Note_on_c, 12, 63, 44
14, 69719, Note_on_c, 12, 63, 0
14, 69720, Note_on_c, 12, 60, 44
14, 69839, Note_on_c, 12, 60, 0
14, 69840, Note_on_c, 12, 55, 44
14, 69959, Note_on_c, 12, 55, 0
14, 71520, Program_c, 12, 48
14, 71760, Note_on_c, 12, 68, 57
14, 71785, Note_on_c, 12, 68, 0
14, 71790, Note_on_c, 12, 68, 59
14, 71815, Note_on_c, 12, 68, 0
14, 71820, Note_on_c, 12, 68, 60
14, 71845, Note_on_c, 12, 68, 0
14, 71850, Note_on_c, 12, 68, 62
14, 71875, Note_on_c, 12, 68, 0
14, 71880, Note_on_c, 12, 68, 64
14, 71905, Note_on_c, 12, 68, 0
14, 71910, Note_on_c, 12, 68, 65
14, 71935, Note_on_c, 12, 68, 0
14, 71940, Note_on_c, 12, 68, 67
14, 71965, Note_on_c, 12, 68, 0
14, 71970, Note_on_c, 12, 68, 69
14, 71995, Note_on_c, 12, 68, 0
14, 72000, Note_on_c, 12, 68, 70
14, 72014, Note_on_c, 12, 68, 0
14, 72015, Note_on_c, 12, 75, 71
14, 72029, Note_on_c, 12, 75, 0
14, 72030, Note_on_c, 12, 75, 72
14, 72044, Note_on_c, 12, 75, 0
14, 72045, Note_on_c, 12, 75, 73
14, 72059, Note_on_c, 12, 75, 0
14, 72060, Note_on_c, 12, 75, 74
14, 72074, Note_on_c, 12, 75, 0
14, 72075, Note_on_c, 12, 75, 74
14, 72089, Note_on_c, 12, 75, 0
14, 72090, Note_on_c, 12, 75, 75
14, 72104, Note_on_c, 12, 75, 0
14, 72105, Note_on_c, 12, 75, 76
14, 72119, Note_on_c, 12, 75, 0
14, 72120, Note_on_c, 12, 75, 77
14, 72134, Note_on_c, 12, 75, 0
14, 72135, Note_on_c, 12, 75, 78
14, 72149, Note_on_c, 12, 75, 0
14, 72150, Note_on_c, 12, 75, 79
14, 72164, Note_on_c, 12, 75, 0
14, 72165, Note_on_c, 12, 75, 79
14, 72179, Note_on_c, 12, 75, 0
14, 72180, Note_on_c, 12, 75, 80
14, 72194, Note_on_c, 12, 75, 0
14, 72195, Note_on_c, 12, 75, 81
14, 72209, Note_on_c, 12, 75, 0
14, 72210, Note_on_c, 12, 75, 82
14, 72224, Note_on_c, 12, 75, 0
14, 72225, Note_on_c, 12, 75, 83
14, 72239, Note_on_c, 12, 75, 0
14, 72240, Note_on_c, 12, 77, 84
14, 72254, Note_on_c, 12, 77, 0
14, 72255, Note_on_c, 12, 77, 84
14, 72269, Note_on_c, 12, 77, 0
14, 72270, Note_on_c, 12, 77, 84
14, 72284, Note_on_c, 12, 77, 0
14, 72285, Note_on_c, 12, 77, 84
14, 72299, Note_on_c, 12, 77, 0
14, 72300, Note_on_c, 12, 77, 84
14, 72314, Note_on_c, 12, 77, 0
14, 72315, Note_on_c, 12, 77, 84
14, 72329, Note_on_c, 12, 77, 0
14, 72330, Note_on_c, 12, 77, 84
14, 72344, Note_on_c, 12, 77, 0
14, 72345, Note_on_c, 12, 77, 84
14, 72359, Note_on_c, 12, 77, 0
14, 72360, Note_on_c, 12, 77, 84
14, 72374, Note_on_c, 12, 77, 0
14, 72375, Note_on_c, 12, 77, 84
14, 72389, Note_on_c, 12, 77, 0
14, 72390, Note_on_c, 12, 77, 84
14, 72404, Note_on_c, 12, 77, 0
14, 72405, Note_on_c, 12, 77, 84
14, 72419, Note_on_c, 12, 77, 0
14, 72420, Note_on_c, 12, 77, 84
14, 72434, Note_on_c, 12, 77, 0
14, 72435, Note_on_c, 12, 77, 84
14, 72449, Note_on_c, 12, 77, 0
14, 72450, Note_on_c, 12, 77, 84
14, 72464, Note_on_c, 12, 77, 0
14, 72465, Note_on_c, 12, 77, 84
14, 72479, Note_on_c, 12, 77, 0
14, 72480, Note_on_c, 12, 75, 84
14, 72480, Note_on_c, 12, 63, 84
14, 72599, Note_on_c, 12, 75, 0
14, 72599, Note_on_c, 12, 63, 0
14, 73200, Program_c, 12, 45
14, 73440, Note_on_c, 12, 62, 60
14, 73440, Note_on_c, 12, 56, 60
14, 73559, Note_on_c, 12, 62, 0
14, 73559, Note_on_c, 12, 56, 0
14, 73680, Note_on_c, 12, 62, 60
14, 73680, Note_on_c, 12, 56, 60
14, 73799, Note_on_c, 12, 62, 0
14, 73799, Note_on_c, 12, 56, 0
14, 73918, Program_c, 12, 48
14, 73920, Note_on_c, 12, 74, 84
14, 73920, Note_on_c, 12, 65, 84
14, 73920, Note_on_c, 12, 58, 84
14, 74039, Note_on_c, 12, 74, 0
14, 74039, Note_on_c, 12, 65, 0
14, 74039, Note_on_c, 12, 58, 0
14, 74160, Note_on_c, 12, 75, 84
14, 74160, Note_on_c, 12, 63, 84
14, 74160, Note_on_c, 12, 55, 84
14, 74279, Note_on_c, 12, 75, 0
14, 74279, Note_on_c, 12, 63, 0
14, 74279, Note_on_c, 12, 55, 0
14, 74279, End_track
15, 0, Start_track
15, 0, Title_t, "Viola "
15, 0, MIDI_port, 0
15, 0, Program_c, 13, 48
15, 0, Control_c, 13, 11, 127
15, 0, Control_c, 13, 10, 70
15, 0, Control_c, 13, 7, 96
15, 0, Note_on_c, 13, 55, 52
15, 119, Note_on_c, 13, 55, 0
15, 720, Note_on_c, 13, 51, 52
15, 959, Note_on_c, 13, 51, 0
15, 960, Note_on_c, 13, 55, 52
15, 1199, Note_on_c, 13, 55, 0
15, 1200, Note_on_c, 13, 56, 52
15, 1431, Note_on_c, 13, 56, 0
15, 1440, Note_on_c, 13, 58, 52
15, 1679, Note_on_c, 13, 58, 0
15, 1680, Note_on_c, 13, 60, 52
15, 1799, Note_on_c, 13, 60, 0
15, 1800, Note_on_c, 13, 62, 52
15, 1919, Note_on_c, 13, 62, 0
15, 1920, Note_on_c, 13, 63, 52
15, 2039, Note_on_c, 13, 63, 0
15, 2040, Note_on_c, 13, 60, 52
15, 2129, Note_on_c, 13, 60, 0
15, 2130, Note_on_c, 13, 56, 52
15, 2155, Note_on_c, 13, 56, 0
15, 2160, Note_on_c, 13, 55, 52
15, 2399, Note_on_c, 13, 55, 0
15, 2400, Note_on_c, 13, 53, 52
15, 2519, Note_on_c, 13, 53, 0
15, 2520, Note_on_c, 13, 51, 52
15, 2639, Note_on_c, 13, 51, 0
15, 2640, Note_on_c, 13, 50, 52
15, 2759, Note_on_c, 13, 50, 0
15, 2760, Note_on_c, 13, 48, 52
15, 2819, Note_on_c, 13, 48, 0
15, 2820, Note_on_c, 13, 53, 52
15, 2875, Note_on_c, 13, 53, 0
15, 2880, Note_on_c, 13, 53, 52
15, 2991, Note_on_c, 13, 53, 0
15, 3000, Note_on_c, 13, 53, 56
15, 3111, Note_on_c, 13, 53, 0
15, 3120, Note_on_c, 13, 53, 60
15, 3231, Note_on_c, 13, 53, 0
15, 3240, Note_on_c, 13, 53, 64
15, 3351, Note_on_c, 13, 53, 0
15, 3360, Note_on_c, 13, 53, 76
15, 3471, Note_on_c, 13, 53, 0
15, 3480, Note_on_c, 13, 53, 68
15, 3591, Note_on_c, 13, 53, 0
15, 3600, Note_on_c, 13, 53, 52
15, 3644, Note_on_c, 13, 53, 0
15, 3690, Note_on_c, 13, 48, 52
15, 3711, Note_on_c, 13, 48, 0
15, 3720, Note_on_c, 13, 53, 52
15, 3764, Note_on_c, 13, 53, 0
15, 3810, Note_on_c, 13, 48, 52
15, 3831, Note_on_c, 13, 48, 0
15, 3840, Note_on_c, 13, 53, 52
15, 3884, Note_on_c, 13, 53, 0
15, 3930, Note_on_c, 13, 48, 52
15, 3951, Note_on_c, 13, 48, 0
15, 3960, Note_on_c, 13, 53, 52
15, 4004, Note_on_c, 13, 53, 0
15, 4050, Note_on_c, 13, 48, 52
15, 4071, Note_on_c, 13, 48, 0
15, 4080, Note_on_c, 13, 53, 52
15, 4199, Note_on_c, 13, 53, 0
15, 4410, Note_on_c, 13, 53, 52
15, 4431, Note_on_c, 13, 53, 0
15, 4440, Note_on_c, 13, 56, 52
15, 4484, Note_on_c, 13, 56, 0
15, 4530, Note_on_c, 13, 53, 52
15, 4551, Note_on_c, 13, 53, 0
15, 4560, Note_on_c, 13, 56, 52
15, 4604, Note_on_c, 13, 56, 0
15, 4650, Note_on_c, 13, 53, 52
15, 4671, Note_on_c, 13, 53, 0
15, 4680, Note_on_c, 13, 55, 52
15, 4724, Note_on_c, 13, 55, 0
15, 4770, Note_on_c, 13, 51, 52
15, 4791, Note_on_c, 13, 51, 0
15, 4800, Note_on_c, 13, 60, 52
15, 4844, Note_on_c, 13, 60, 0
15, 4890, Note_on_c, 13, 56, 52
15, 4911, Note_on_c, 13, 56, 0
15, 4920, Note_on_c, 13, 56, 52
15, 4964, Note_on_c, 13, 56, 0
15, 5010, Note_on_c, 13, 53, 52
15, 5031, Note_on_c, 13, 53, 0
15, 5130, Note_on_c, 13, 51, 55
15, 5151, Note_on_c, 13, 51, 0
15, 5160, Note_on_c, 13, 55, 56
15, 5204, Note_on_c, 13, 55, 0
15, 5220, Note_on_c, 13, 55, 58
15, 5264, Note_on_c, 13, 55, 0
15, 5370, Note_on_c, 13, 52, 63
15, 5391, Note_on_c, 13, 52, 0
15, 5400, Note_on_c, 13, 55, 64
15, 5444, Note_on_c, 13, 55, 0
15, 5460, Note_on_c, 13, 55, 66
15, 5504, Note_on_c, 13, 55, 0
15, 5610, Note_on_c, 13, 53, 71
15, 5631, Note_on_c, 13, 53, 0
15, 5640, Note_on_c, 13, 53, 72
15, 5684, Note_on_c, 13, 53, 0
15, 5700, Note_on_c, 13, 53, 74
15, 5744, Note_on_c, 13, 53, 0
15, 5760, Note_on_c, 13, 51, 76
15, 5804, Note_on_c, 13, 51, 0
15, 5850, Note_on_c, 13, 58, 76
15, 5871, Note_on_c, 13, 58, 0
15, 5880, Note_on_c, 13, 63, 76
15, 5924, Note_on_c, 13, 63, 0
15, 5970, Note_on_c, 13, 58, 76
15, 5991, Note_on_c, 13, 58, 0
15, 6000, Note_on_c, 13, 63, 76
15, 6044, Note_on_c, 13, 63, 0
15, 6090, Note_on_c, 13, 58, 76
15, 6111, Note_on_c, 13, 58, 0
15, 6120, Note_on_c, 13, 63, 76
15, 6164, Note_on_c, 13, 63, 0
15, 6210, Note_on_c, 13, 58, 76
15, 6231, Note_on_c, 13, 58, 0
15, 6240, Note_on_c, 13, 63, 76
15, 6284, Note_on_c, 13, 63, 0
15, 6330, Note_on_c, 13, 58, 76
15, 6351, Note_on_c, 13, 58, 0
15, 6360, Note_on_c, 13, 63, 76
15, 6404, Note_on_c, 13, 63, 0
15, 6450, Note_on_c, 13, 58, 76
15, 6471, Note_on_c, 13, 58, 0
15, 6480, Note_on_c, 13, 63, 52
15, 6599, Note_on_c, 13, 63, 0
15, 6718, Program_c, 13, 45
15, 6720, Note_on_c, 13, 51, 48
15, 6839, Note_on_c, 13, 51, 0
15, 6840, Note_on_c, 13, 51, 48
15, 6959, Note_on_c, 13, 51, 0
15, 6960, Note_on_c, 13, 51, 48
15, 7079, Note_on_c, 13, 51, 0
15, 7080, Note_on_c, 13, 51, 48
15, 7199, Note_on_c, 13, 51, 0
15, 7200, Note_on_c, 13, 51, 48
15, 7319, Note_on_c, 13, 51, 0
15, 7320, Note_on_c, 13, 51, 48
15, 7439, Note_on_c, 13, 51, 0
15, 7440, Note_on_c, 13, 51, 48
15, 7559, Note_on_c, 13, 51, 0
15, 7560, Note_on_c, 13, 51, 48
15, 7679, Note_on_c, 13, 51, 0
15, 7680, Note_on_c, 13, 51, 48
15, 7799, Note_on_c, 13, 51, 0
15, 7800, Note_on_c, 13, 56, 48
15, 7919, Note_on_c, 13, 56, 0
15, 7920, Note_on_c, 13, 58, 48
15, 8039, Note_on_c, 13, 58, 0
15, 8040, Note_on_c, 13, 58, 48
15, 8159, Note_on_c, 13, 58, 0
15, 8160, Note_on_c, 13, 58, 48
15, 8279, Note_on_c, 13, 58, 0
15, 8280, Note_on_c, 13, 58, 48
15, 8399, Note_on_c, 13, 58, 0
15, 8400, Note_on_c, 13, 58, 48
15, 8519, Note_on_c, 13, 58, 0
15, 8520, Note_on_c, 13, 58, 48
15, 8639, Note_on_c, 13, 58, 0
15, 8640, Note_on_c, 13, 58, 48
15, 8759, Note_on_c, 13, 58, 0
15, 8760, Note_on_c, 13, 58, 51
15, 8879, Note_on_c, 13, 58, 0
15, 8880, Note_on_c, 13, 58, 54
15, 8999, Note_on_c, 13, 58, 0
15, 9000, Note_on_c, 13, 58, 57
15, 9119, Note_on_c, 13, 58, 0
15, 9120, Note_on_c, 13, 50, 68
15, 9120, Note_on_c, 13, 53, 68
15, 9239, Note_on_c, 13, 50, 0
15, 9239, Note_on_c, 13, 53, 0
15, 9240, Note_on_c, 13, 50, 60
15, 9240, Note_on_c, 13, 53, 60
15, 9344, Note_on_c, 13, 50, 0
15, 9344, Note_on_c, 13, 53, 0
15, 9358, Program_c, 13, 48
15, 9360, Note_on_c, 13, 53, 52
15, 9404, Note_on_c, 13, 53, 0
15, 9450, Note_on_c, 13, 48, 52
15, 9471, Note_on_c, 13, 48, 0
15, 9480, Note_on_c, 13, 53, 52
15, 9524, Note_on_c, 13, 53, 0
15, 9570, Note_on_c, 13, 48, 52
15, 9591, Note_on_c, 13, 48, 0
15, 9600, Note_on_c, 13, 53, 52
15, 9644, Note_on_c, 13, 53, 0
15, 9690, Note_on_c, 13, 48, 52
15, 9711, Note_on_c, 13, 48, 0
15, 9720, Note_on_c, 13, 53, 52
15, 9764, Note_on_c, 13, 53, 0
15, 9810, Note_on_c, 13, 48, 52
15, 9831, Note_on_c, 13, 48, 0
15, 9840, Note_on_c, 13, 53, 52
15, 9959, Note_on_c, 13, 53, 0
15, 10170, Note_on_c, 13, 53, 52
15, 10195, Note_on_c, 13, 53, 0
15, 10200, Note_on_c, 13, 56, 52
15, 10259, Note_on_c, 13, 56, 0
15, 10290, Note_on_c, 13, 53, 52
15, 10315, Note_on_c, 13, 53, 0
15, 10320, Note_on_c, 13, 56, 52
15, 10379, Note_on_c, 13, 56, 0
15, 10410, Note_on_c, 13, 53, 52
15, 10435, Note_on_c, 13, 53, 0
15, 10440, Note_on_c, 13, 55, 52
15, 10499, Note_on_c, 13, 55, 0
15, 10530, Note_on_c, 13, 51, 52
15, 10555, Note_on_c, 13, 51, 0
15, 10560, Note_on_c, 13, 60, 52
15, 10619, Note_on_c, 13, 60, 0
15, 10650, Note_on_c, 13, 56, 52
15, 10675, Note_on_c, 13, 56, 0
15, 10680, Note_on_c, 13, 60, 52
15, 10680, Note_on_c, 13, 56, 52
15, 10739, Note_on_c, 13, 60, 0
15, 10739, Note_on_c, 13, 56, 0
15, 10770, Note_on_c, 13, 53, 52
15, 10770, Note_on_c, 13, 56, 52
15, 10795, Note_on_c, 13, 53, 0
15, 10795, Note_on_c, 13, 56, 0
15, 10798, Control_c, 13, 11, 80
15, 10800, Note_on_c, 13, 51, 76
15, 10800, Control_c, 13, 11, 80
15, 10800, Note_on_c, 13, 55, 76
15, 10820, Control_c, 13, 11, 81
15, 10840, Control_c, 13, 11, 83
15, 10860, Control_c, 13, 11, 84
15, 10880, Control_c, 13, 11, 85
15, 10900, Control_c, 13, 11, 87
15, 10911, Note_on_c, 13, 51, 0
15, 10911, Note_on_c, 13, 55, 0
15, 10920, Control_c, 13, 11, 88
15, 10920, Note_on_c, 13, 55, 76
15, 10920, Note_on_c, 13, 51, 76
15, 10940, Control_c, 13, 11, 89
15, 10960, Control_c, 13, 11, 90
15, 10980, Control_c, 13, 11, 92
15, 11000, Control_c, 13, 11, 93
15, 11020, Control_c, 13, 11, 94
15, 11040, Control_c, 13, 11, 96
15, 11060, Control_c, 13, 11, 97
15, 11080, Control_c, 13, 11, 98
15, 11100, Control_c, 13, 11, 100
15, 11120, Control_c, 13, 11, 101
15, 11140, Control_c, 13, 11, 102
15, 11151, Note_on_c, 13, 55, 0
15, 11151, Note_on_c, 13, 51, 0
15, 11160, Note_on_c, 13, 55, 76
15, 11160, Control_c, 13, 11, 104
15, 11160, Note_on_c, 13, 52, 76
15, 11180, Control_c, 13, 11, 105
15, 11200, Control_c, 13, 11, 106
15, 11220, Control_c, 13, 11, 107
15, 11240, Control_c, 13, 11, 109
15, 11260, Control_c, 13, 11, 110
15, 11279, Note_on_c, 13, 55, 0
15, 11279, Note_on_c, 13, 52, 0
15, 11280, Note_on_c, 13, 56, 76
15, 11280, Note_on_c, 13, 53, 76
15, 11280, Control_c, 13, 11, 111
15, 11300, Control_c, 13, 11, 113
15, 11320, Control_c, 13, 11, 114
15, 11340, Control_c, 13, 11, 115
15, 11360, Control_c, 13, 11, 117
15, 11380, Control_c, 13, 11, 118
15, 11391, Note_on_c, 13, 56, 0
15, 11391, Note_on_c, 13, 53, 0
15, 11400, Note_on_c, 13, 56, 76
15, 11400, Control_c, 13, 11, 119
15, 11400, Note_on_c, 13, 53, 76
15, 11420, Control_c, 13, 11, 120
15, 11440, Control_c, 13, 11, 122
15, 11460, Control_c, 13, 11, 123
15, 11480, Control_c, 13, 11, 124
15, 11489, Note_on_c, 13, 56, 0
15, 11489, Note_on_c, 13, 53, 0
15, 11500, Control_c, 13, 11, 127
15, 11520, Note_on_c, 13, 55, 76
15, 11520, Note_on_c, 13, 51, 76
15, 11545, Note_on_c, 13, 55, 0
15, 11545, Note_on_c, 13, 51, 0
15, 11550, Note_on_c, 13, 58, 76
15, 11579, Note_on_c, 13, 58, 0
15, 11580, Note_on_c, 13, 55, 76
15, 11609, Note_on_c, 13, 55, 0
15, 11610, Note_on_c, 13, 58, 76
15, 11639, Note_on_c, 13, 58, 0
15, 11640, Note_on_c, 13, 63, 84
15, 11669, Note_on_c, 13, 63, 0
15, 11670, Note_on_c, 13, 67, 76
15, 11699, Note_on_c, 13, 67, 0
15, 11700, Note_on_c, 13, 63, 76
15, 11729, Note_on_c, 13, 63, 0
15, 11730, Note_on_c, 13, 58, 76
15, 11759, Note_on_c, 13, 58, 0
15, 11790, Note_on_c, 13, 58, 76
15, 11819, Note_on_c, 13, 58, 0
15, 11820, Note_on_c, 13, 55, 76
15, 11849, Note_on_c, 13, 55, 0
15, 11850, Note_on_c, 13, 58, 76
15, 11879, Note_on_c, 13, 58, 0
15, 11880, Note_on_c, 13, 63, 84
15, 11909, Note_on_c, 13, 63, 0
15, 11910, Note_on_c, 13, 67, 76
15, 11939, Note_on_c, 13, 67, 0
15, 11940, Note_on_c, 13, 63, 76
15, 11969, Note_on_c, 13, 63, 0
15, 11970, Note_on_c, 13, 58, 76
15, 11999, Note_on_c, 13, 58, 0
15, 12030, Note_on_c, 13, 58, 76
15, 12059, Note_on_c, 13, 58, 0
15, 12060, Note_on_c, 13, 55, 76
15, 12089, Note_on_c, 13, 55, 0
15, 12090, Note_on_c, 13, 58, 76
15, 12119, Note_on_c, 13, 58, 0
15, 12120, Note_on_c, 13, 63, 84
15, 12149, Note_on_c, 13, 63, 0
15, 12150, Note_on_c, 13, 67, 76
15, 12179, Note_on_c, 13, 67, 0
15, 12180, Note_on_c, 13, 63, 76
15, 12209, Note_on_c, 13, 63, 0
15, 12210, Note_on_c, 13, 58, 76
15, 12239, Note_on_c, 13, 58, 0
15, 12270, Note_on_c, 13, 58, 76
15, 12299, Note_on_c, 13, 58, 0
15, 12300, Note_on_c, 13, 56, 52
15, 12329, Note_on_c, 13, 56, 0
15, 12330, Note_on_c, 13, 58, 52
15, 12359, Note_on_c, 13, 58, 0
15, 12390, Note_on_c, 13, 58, 52
15, 12419, Note_on_c, 13, 58, 0
15, 12420, Note_on_c, 13, 56, 52
15, 12449, Note_on_c, 13, 56, 0
15, 12450, Note_on_c, 13, 58, 52
15, 12479, Note_on_c, 13, 58, 0
15, 12510, Note_on_c, 13, 58, 52
15, 12539, Note_on_c, 13, 58, 0
15, 12540, Note_on_c, 13, 56, 52
15, 12569, Note_on_c, 13, 56, 0
15, 12570, Note_on_c, 13, 58, 52
15, 12599, Note_on_c, 13, 58, 0
15, 12630, Note_on_c, 13, 58, 52
15, 12659, Note_on_c, 13, 58, 0
15, 12660, Note_on_c, 13, 56, 52
15, 12689, Note_on_c, 13, 56, 0
15, 12690, Note_on_c, 13, 58, 52
15, 12719, Note_on_c, 13, 58, 0
15, 12750, Note_on_c, 13, 58, 52
15, 12779, Note_on_c, 13, 58, 0
15, 12780, Note_on_c, 13, 56, 52
15, 12809, Note_on_c, 13, 56, 0
15, 12810, Note_on_c, 13, 58, 52
15, 12839, Note_on_c, 13, 58, 0
15, 12870, Note_on_c, 13, 58, 52
15, 12899, Note_on_c, 13, 58, 0
15, 12900, Note_on_c, 13, 56, 52
15, 12929, Note_on_c, 13, 56, 0
15, 12930, Note_on_c, 13, 58, 52
15, 12955, Note_on_c, 13, 58, 0
15, 12960, Note_on_c, 13, 55, 76
15, 12985, Note_on_c, 13, 55, 0
15, 12990, Note_on_c, 13, 58, 76
15, 13019, Note_on_c, 13, 58, 0
15, 13020, Note_on_c, 13, 55, 76
15, 13049, Note_on_c, 13, 55, 0
15, 13050, Note_on_c, 13, 58, 76
15, 13079, Note_on_c, 13, 58, 0
15, 13080, Note_on_c, 13, 63, 84
15, 13109, Note_on_c, 13, 63, 0
15, 13110, Note_on_c, 13, 67, 76
15, 13139, Note_on_c, 13, 67, 0
15, 13140, Note_on_c, 13, 63, 76
15, 13169, Note_on_c, 13, 63, 0
15, 13170, Note_on_c, 13, 58, 76
15, 13199, Note_on_c, 13, 58, 0
15, 13230, Note_on_c, 13, 58, 76
15, 13259, Note_on_c, 13, 58, 0
15, 13260, Note_on_c, 13, 55, 76
15, 13289, Note_on_c, 13, 55, 0
15, 13290, Note_on_c, 13, 58, 76
15, 13319, Note_on_c, 13, 58, 0
15, 13320, Note_on_c, 13, 63, 84
15, 13349, Note_on_c, 13, 63, 0
15, 13350, Note_on_c, 13, 67, 76
15, 13379, Note_on_c, 13, 67, 0
15, 13380, Note_on_c, 13, 63, 76
15, 13409, Note_on_c, 13, 63, 0
15, 13410, Note_on_c, 13, 58, 76
15, 13439, Note_on_c, 13, 58, 0
15, 13470, Note_on_c, 13, 58, 76
15, 13499, Note_on_c, 13, 58, 0
15, 13500, Note_on_c, 13, 55, 76
15, 13529, Note_on_c, 13, 55, 0
15, 13530, Note_on_c, 13, 58, 76
15, 13559, Note_on_c, 13, 58, 0
15, 13560, Note_on_c, 13, 63, 84
15, 13589, Note_on_c, 13, 63, 0
15, 13590, Note_on_c, 13, 67, 76
15, 13619, Note_on_c, 13, 67, 0
15, 13620, Note_on_c, 13, 63, 76
15, 13649, Note_on_c, 13, 63, 0
15, 13650, Note_on_c, 13, 58, 76
15, 13679, Note_on_c, 13, 58, 0
15, 13710, Note_on_c, 13, 59, 76
15, 13739, Note_on_c, 13, 59, 0
15, 13740, Note_on_c, 13, 55, 52
15, 13769, Note_on_c, 13, 55, 0
15, 13770, Note_on_c, 13, 59, 52
15, 13799, Note_on_c, 13, 59, 0
15, 13830, Note_on_c, 13, 59, 52
15, 13859, Note_on_c, 13, 59, 0
15, 13860, Note_on_c, 13, 55, 52
15, 13889, Note_on_c, 13, 55, 0
15, 13890, Note_on_c, 13, 59, 52
15, 13919, Note_on_c, 13, 59, 0
15, 13950, Note_on_c, 13, 59, 52
15, 13979, Note_on_c, 13, 59, 0
15, 13980, Note_on_c, 13, 55, 52
15, 14009, Note_on_c, 13, 55, 0
15, 14010, Note_on_c, 13, 59, 52
15, 14039, Note_on_c, 13, 59, 0
15, 14070, Note_on_c, 13, 59, 52
15, 14099, Note_on_c, 13, 59, 0
15, 14100, Note_on_c, 13, 55, 52
15, 14129, Note_on_c, 13, 55, 0
15, 14130, Note_on_c, 13, 59, 52
15, 14159, Note_on_c, 13, 59, 0
15, 14190, Note_on_c, 13, 59, 52
15, 14219, Note_on_c, 13, 59, 0
15, 14220, Note_on_c, 13, 55, 52
15, 14249, Note_on_c, 13, 55, 0
15, 14250, Note_on_c, 13, 59, 52
15, 14279, Note_on_c, 13, 59, 0
15, 14310, Note_on_c, 13, 59, 52
15, 14339, Note_on_c, 13, 59, 0
15, 14340, Note_on_c, 13, 55, 52
15, 14369, Note_on_c, 13, 55, 0
15, 14370, Note_on_c, 13, 59, 52
15, 14399, Note_on_c, 13, 59, 0
15, 14430, Note_on_c, 13, 60, 76
15, 14459, Note_on_c, 13, 60, 0
15, 14460, Note_on_c, 13, 55, 76
15, 14489, Note_on_c, 13, 55, 0
15, 14490, Note_on_c, 13, 60, 76
15, 14519, Note_on_c, 13, 60, 0
15, 14520, Note_on_c, 13, 63, 84
15, 14549, Note_on_c, 13, 63, 0
15, 14550, Note_on_c, 13, 67, 76
15, 14579, Note_on_c, 13, 67, 0
15, 14580, Note_on_c, 13, 63, 76
15, 14609, Note_on_c, 13, 63, 0
15, 14610, Note_on_c, 13, 60, 76
15, 14639, Note_on_c, 13, 60, 0
15, 14670, Note_on_c, 13, 60, 76
15, 14699, Note_on_c, 13, 60, 0
15, 14700, Note_on_c, 13, 55, 76
15, 14729, Note_on_c, 13, 55, 0
15, 14730, Note_on_c, 13, 60, 76
15, 14759, Note_on_c, 13, 60, 0
15, 14760, Note_on_c, 13, 63, 84
15, 14789, Note_on_c, 13, 63, 0
15, 14790, Note_on_c, 13, 67, 76
15, 14819, Note_on_c, 13, 67, 0
15, 14820, Note_on_c, 13, 63, 76
15, 14849, Note_on_c, 13, 63, 0
15, 14850, Note_on_c, 13, 60, 76
15, 14879, Note_on_c, 13, 60, 0
15, 14910, Note_on_c, 13, 60, 76
15, 14939, Note_on_c, 13, 60, 0
15, 14940, Note_on_c, 13, 55, 76
15, 14969, Note_on_c, 13, 55, 0
15, 14970, Note_on_c, 13, 60, 76
15, 14999, Note_on_c, 13, 60, 0
15, 15000, Note_on_c, 13, 63, 84
15, 15029, Note_on_c, 13, 63, 0
15, 15030, Note_on_c, 13, 67, 76
15, 15059, Note_on_c, 13, 67, 0
15, 15060, Note_on_c, 13, 63, 76
15, 15089, Note_on_c, 13, 63, 0
15, 15090, Note_on_c, 13, 60, 76
15, 15111, Note_on_c, 13, 60, 0
15, 15120, Note_on_c, 13, 53, 76
15, 15149, Note_on_c, 13, 53, 0
15, 15150, Note_on_c, 13, 53, 52
15, 15299, Note_on_c, 13, 53, 0
15, 15300, Note_on_c, 13, 55, 52
15, 15359, Note_on_c, 13, 55, 0
15, 15360, Note_on_c, 13, 57, 52
15, 15419, Note_on_c, 13, 57, 0
15, 15420, Note_on_c, 13, 58, 52
15, 15479, Note_on_c, 13, 58, 0
15, 15480, Note_on_c, 13, 60, 52
15, 15539, Note_on_c, 13, 60, 0
15, 15540, Note_on_c, 13, 61, 52
15, 15599, Note_on_c, 13, 61, 0
15, 15600, Note_on_c, 13, 60, 52
15, 15719, Note_on_c, 13, 60, 0
15, 15840, Note_on_c, 13, 57, 76
15, 15869, Note_on_c, 13, 57, 0
15, 15870, Note_on_c, 13, 57, 52
15, 16019, Note_on_c, 13, 57, 0
15, 16020, Note_on_c, 13, 58, 52
15, 16079, Note_on_c, 13, 58, 0
15, 16080, Note_on_c, 13, 60, 52
15, 16139, Note_on_c, 13, 60, 0
15, 16140, Note_on_c, 13, 62, 52
15, 16199, Note_on_c, 13, 62, 0
15, 16200, Note_on_c, 13, 63, 52
15, 16259, Note_on_c, 13, 63, 0
15, 16260, Note_on_c, 13, 64, 52
15, 16319, Note_on_c, 13, 64, 0
15, 16320, Note_on_c, 13, 65, 52
15, 16439, Note_on_c, 13, 65, 0
15, 16560, Note_on_c, 13, 63, 52
15, 16581, Note_on_c, 13, 63, 0
15, 16590, Note_on_c, 13, 60, 53
15, 16611, Note_on_c, 13, 60, 0
15, 16620, Note_on_c, 13, 59, 54
15, 16641, Note_on_c, 13, 59, 0
15, 16650, Note_on_c, 13, 60, 55
15, 16671, Note_on_c, 13, 60, 0
15, 16680, Note_on_c, 13, 63, 56
15, 16701, Note_on_c, 13, 63, 0
15, 16710, Note_on_c, 13, 60, 57
15, 16731, Note_on_c, 13, 60, 0
15, 16740, Note_on_c, 13, 62, 58
15, 16761, Note_on_c, 13, 62, 0
15, 16770, Note_on_c, 13, 58, 59
15, 16791, Note_on_c, 13, 58, 0
15, 16800, Note_on_c, 13, 60, 60
15, 16821, Note_on_c, 13, 60, 0
15, 16830, Note_on_c, 13, 57, 61
15, 16851, Note_on_c, 13, 57, 0
15, 16860, Note_on_c, 13, 58, 62
15, 16881, Note_on_c, 13, 58, 0
15, 16890, Note_on_c, 13, 55, 63
15, 16911, Note_on_c, 13, 55, 0
15, 16920, Note_on_c, 13, 57, 64
15, 16941, Note_on_c, 13, 57, 0
15, 16950, Note_on_c, 13, 53, 65
15, 16971, Note_on_c, 13, 53, 0
15, 16980, Note_on_c, 13, 58, 66
15, 17001, Note_on_c, 13, 58, 0
15, 17010, Note_on_c, 13, 55, 67
15, 17031, Note_on_c, 13, 55, 0
15, 17040, Note_on_c, 13, 60, 68
15, 17061, Note_on_c, 13, 60, 0
15, 17070, Note_on_c, 13, 57, 69
15, 17091, Note_on_c, 13, 57, 0
15, 17100, Note_on_c, 13, 62, 70
15, 17121, Note_on_c, 13, 62, 0
15, 17130, Note_on_c, 13, 58, 71
15, 17151, Note_on_c, 13, 58, 0
15, 17160, Note_on_c, 13, 63, 72
15, 17181, Note_on_c, 13, 63, 0
15, 17190, Note_on_c, 13, 60, 73
15, 17211, Note_on_c, 13, 60, 0
15, 17220, Note_on_c, 13, 65, 74
15, 17241, Note_on_c, 13, 65, 0
15, 17250, Note_on_c, 13, 62, 75
15, 17271, Note_on_c, 13, 62, 0
15, 17280, Note_on_c, 13, 65, 76
15, 17305, Note_on_c, 13, 65, 0
15, 17310, Note_on_c, 13, 65, 76
15, 17335, Note_on_c, 13, 65, 0
15, 17340, Note_on_c, 13, 65, 76
15, 17365, Note_on_c, 13, 65, 0
15, 17370, Note_on_c, 13, 65, 76
15, 17395, Note_on_c, 13, 65, 0
15, 17400, Note_on_c, 13, 65, 76
15, 17425, Note_on_c, 13, 65, 0
15, 17430, Note_on_c, 13, 65, 76
15, 17455, Note_on_c, 13, 65, 0
15, 17460, Note_on_c, 13, 65, 76
15, 17485, Note_on_c, 13, 65, 0
15, 17490, Note_on_c, 13, 65, 76
15, 17515, Note_on_c, 13, 65, 0
15, 17520, Note_on_c, 13, 65, 76
15, 17545, Note_on_c, 13, 65, 0
15, 17550, Note_on_c, 13, 65, 76
15, 17575, Note_on_c, 13, 65, 0
15, 17580, Note_on_c, 13, 65, 76
15, 17605, Note_on_c, 13, 65, 0
15, 17610, Note_on_c, 13, 65, 76
15, 17635, Note_on_c, 13, 65, 0
15, 17640, Note_on_c, 13, 65, 76
15, 17665, Note_on_c, 13, 65, 0
15, 17670, Note_on_c, 13, 65, 76
15, 17695, Note_on_c, 13, 65, 0
15, 17700, Note_on_c, 13, 65, 76
15, 17725, Note_on_c, 13, 65, 0
15, 17730, Note_on_c, 13, 65, 76
15, 17755, Note_on_c, 13, 65, 0
15, 17760, Note_on_c, 13, 65, 76
15, 17785, Note_on_c, 13, 65, 0
15, 17790, Note_on_c, 13, 65, 72
15, 17815, Note_on_c, 13, 65, 0
15, 17820, Note_on_c, 13, 65, 68
15, 17845, Note_on_c, 13, 65, 0
15, 17850, Note_on_c, 13, 65, 64
15, 17875, Note_on_c, 13, 65, 0
15, 17880, Note_on_c, 13, 65, 60
15, 17905, Note_on_c, 13, 65, 0
15, 17910, Note_on_c, 13, 65, 56
15, 17935, Note_on_c, 13, 65, 0
15, 17940, Note_on_c, 13, 67, 52
15, 17965, Note_on_c, 13, 67, 0
15, 17970, Note_on_c, 13, 69, 48
15, 17995, Note_on_c, 13, 69, 0
15, 18000, Note_on_c, 13, 70, 44
15, 18119, Note_on_c, 13, 70, 0
15, 18280, Note_on_c, 13, 51, 44
15, 18319, Note_on_c, 13, 51, 0
15, 18320, Note_on_c, 13, 54, 44
15, 18359, Note_on_c, 13, 54, 0
15, 18360, Note_on_c, 13, 57, 44
15, 18399, Note_on_c, 13, 57, 0
15, 18400, Note_on_c, 13, 60, 44
15, 18439, Note_on_c, 13, 60, 0
15, 18440, Note_on_c, 13, 63, 44
15, 18475, Note_on_c, 13, 63, 0
15, 18480, Note_on_c, 13, 66, 44
15, 18719, Note_on_c, 13, 66, 0
15, 18720, Note_on_c, 13, 66, 44
15, 19431, Note_on_c, 13, 66, 0
15, 19440, Note_on_c, 13, 65, 44
15, 19559, Note_on_c, 13, 65, 0
15, 20880, Program_c, 13, 45
15, 21000, Note_on_c, 13, 74, 45
15, 21119, Note_on_c, 13, 74, 0
15, 21120, Note_on_c, 13, 70, 47
15, 21239, Note_on_c, 13, 70, 0
15, 21240, Note_on_c, 13, 65, 49
15, 21359, Note_on_c, 13, 65, 0
15, 21360, Note_on_c, 13, 62, 50
15, 21479, Note_on_c, 13, 62, 0
15, 21480, Note_on_c, 13, 58, 52
15, 21599, Note_on_c, 13, 58, 0
15, 21600, Note_on_c, 13, 55, 54
15, 21719, Note_on_c, 13, 55, 0
15, 21720, Note_on_c, 13, 60, 48
15, 21839, Note_on_c, 13, 60, 0
15, 21840, Note_on_c, 13, 53, 48
15, 21959, Note_on_c, 13, 53, 0
15, 21960, Note_on_c, 13, 58, 48
15, 22079, Note_on_c, 13, 58, 0
15, 22080, Note_on_c, 13, 53, 48
15, 22199, Note_on_c, 13, 53, 0
15, 22200, Note_on_c, 13, 57, 48
15, 22319, Note_on_c, 13, 57, 0
15, 22560, Program_c, 13, 48
15, 22720, Note_on_c, 13, 50, 61
15, 22720, Note_on_c, 13, 53, 61
15, 22759, Note_on_c, 13, 50, 0
15, 22759, Note_on_c, 13, 53, 0
15, 22760, Note_on_c, 13, 53, 63
15, 22760, Note_on_c, 13, 59, 63
15, 22799, Note_on_c, 13, 53, 0
15, 22799, Note_on_c, 13, 59, 0
15, 22840, Note_on_c, 13, 53, 67
15, 22840, Note_on_c, 13, 59, 67
15, 22879, Note_on_c, 13, 53, 0
15, 22879, Note_on_c, 13, 59, 0
15, 22880, Note_on_c, 13, 62, 68
15, 22880, Note_on_c, 13, 59, 68
15, 22919, Note_on_c, 13, 62, 0
15, 22919, Note_on_c, 13, 59, 0
15, 22960, Note_on_c, 13, 59, 72
15, 22960, Note_on_c, 13, 62, 72
15, 22999, Note_on_c, 13, 59, 0
15, 22999, Note_on_c, 13, 62, 0
15, 23000, Note_on_c, 13, 62, 74
15, 23000, Note_on_c, 13, 65, 74
15, 23039, Note_on_c, 13, 62, 0
15, 23039, Note_on_c, 13, 65, 0
15, 23080, Note_on_c, 13, 62, 76
15, 23080, Note_on_c, 13, 59, 76
15, 23119, Note_on_c, 13, 62, 0
15, 23119, Note_on_c, 13, 59, 0
15, 23120, Note_on_c, 13, 62, 76
15, 23120, Note_on_c, 13, 65, 76
15, 23159, Note_on_c, 13, 62, 0
15, 23159, Note_on_c, 13, 65, 0
15, 23200, Note_on_c, 13, 59, 76
15, 23200, Note_on_c, 13, 62, 76
15, 23239, Note_on_c, 13, 59, 0
15, 23239, Note_on_c, 13, 62, 0
15, 23240, Note_on_c, 13, 62, 76
15, 23240, Note_on_c, 13, 65, 76
15, 23279, Note_on_c, 13, 62, 0
15, 23279, Note_on_c, 13, 65, 0
15, 23320, Note_on_c, 13, 60, 76
15, 23320, Note_on_c, 13, 63, 76
15, 23359, Note_on_c, 13, 60, 0
15, 23359, Note_on_c, 13, 63, 0
15, 23360, Note_on_c, 13, 62, 76
15, 23360, Note_on_c, 13, 59, 76
15, 23399, Note_on_c, 13, 62, 0
15, 23399, Note_on_c, 13, 59, 0
15, 23400, Note_on_c, 13, 63, 76
15, 23400, Note_on_c, 13, 60, 76
15, 23439, Note_on_c, 13, 63, 0
15, 23439, Note_on_c, 13, 60, 0
15, 23440, Note_on_c, 13, 65, 76
15, 23440, Note_on_c, 13, 62, 76
15, 23479, Note_on_c, 13, 65, 0
15, 23479, Note_on_c, 13, 62, 0
15, 23480, Note_on_c, 13, 67, 76
15, 23480, Note_on_c, 13, 63, 76
15, 23519, Note_on_c, 13, 67, 0
15, 23519, Note_on_c, 13, 63, 0
15, 23560, Note_on_c, 13, 58, 76
15, 23560, Note_on_c, 13, 53, 76
15, 23599, Note_on_c, 13, 58, 0
15, 23599, Note_on_c, 13, 53, 0
15, 23600, Note_on_c, 13, 58, 76
15, 23600, Note_on_c, 13, 62, 76
15, 23639, Note_on_c, 13, 58, 0
15, 23639, Note_on_c, 13, 62, 0
15, 23680, Note_on_c, 13, 57, 76
15, 23680, Note_on_c, 13, 53, 76
15, 23719, Note_on_c, 13, 57, 0
15, 23719, Note_on_c, 13, 53, 0
15, 23720, Note_on_c, 13, 51, 76
15, 23720, Note_on_c, 13, 60, 76
15, 23755, Note_on_c, 13, 51, 0
15, 23755, Note_on_c, 13, 60, 0
15, 23760, Note_on_c, 13, 50, 52
15, 23760, Note_on_c, 13, 58, 52
15, 23879, Note_on_c, 13, 50, 0
15, 23879, Note_on_c, 13, 58, 0
15, 24480, Note_on_c, 13, 63, 52
15, 24509, Note_on_c, 13, 63, 0
15, 24510, Note_on_c, 13, 65, 52
15, 24539, Note_on_c, 13, 65, 0
15, 24540, Note_on_c, 13, 63, 52
15, 24569, Note_on_c, 13, 63, 0
15, 24570, Note_on_c, 13, 62, 52
15, 24599, Note_on_c, 13, 62, 0
15, 24600, Note_on_c, 13, 63, 52
15, 24629, Note_on_c, 13, 63, 0
15, 24630, Note_on_c, 13, 65, 52
15, 24659, Note_on_c, 13, 65, 0
15, 24660, Note_on_c, 13, 67, 52
15, 24689, Note_on_c, 13, 67, 0
15, 24690, Note_on_c, 13, 65, 52
15, 24719, Note_on_c, 13, 65, 0
15, 24720, Note_on_c, 13, 63, 52
15, 24749, Note_on_c, 13, 63, 0
15, 24750, Note_on_c, 13, 65, 52
15, 24779, Note_on_c, 13, 65, 0
15, 24780, Note_on_c, 13, 67, 52
15, 24809, Note_on_c, 13, 67, 0
15, 24810, Note_on_c, 13, 63, 52
15, 24839, Note_on_c, 13, 63, 0
15, 24840, Note_on_c, 13, 60, 52
15, 24869, Note_on_c, 13, 60, 0
15, 24870, Note_on_c, 13, 62, 52
15, 24899, Note_on_c, 13, 62, 0
15, 24900, Note_on_c, 13, 63, 52
15, 24929, Note_on_c, 13, 63, 0
15, 24930, Note_on_c, 13, 60, 52
15, 24959, Note_on_c, 13, 60, 0
15, 24960, Note_on_c, 13, 57, 52
15, 24989, Note_on_c, 13, 57, 0
15, 24990, Note_on_c, 13, 58, 52
15, 25019, Note_on_c, 13, 58, 0
15, 25020, Note_on_c, 13, 60, 52
15, 25049, Note_on_c, 13, 60, 0
15, 25050, Note_on_c, 13, 57, 52
15, 25079, Note_on_c, 13, 57, 0
15, 25080, Note_on_c, 13, 53, 52
15, 25109, Note_on_c, 13, 53, 0
15, 25110, Note_on_c, 13, 55, 52
15, 25139, Note_on_c, 13, 55, 0
15, 25140, Note_on_c, 13, 57, 52
15, 25169, Note_on_c, 13, 57, 0
15, 25170, Note_on_c, 13, 53, 52
15, 25199, Note_on_c, 13, 53, 0
15, 26880, Control_c, 13, 11, 85
15, 27120, Note_on_c, 13, 53, 84
15, 27143, Control_c, 13, 11, 86
15, 27164, Note_on_c, 13, 53, 0
15, 27166, Control_c, 13, 11, 87
15, 27189, Control_c, 13, 11, 88
15, 27210, Note_on_c, 13, 50, 84
15, 27211, Control_c, 13, 11, 89
15, 27231, Note_on_c, 13, 50, 0
15, 27234, Control_c, 13, 11, 90
15, 27240, Note_on_c, 13, 58, 84
15, 27257, Control_c, 13, 11, 91
15, 27280, Control_c, 13, 11, 92
15, 27284, Note_on_c, 13, 58, 0
15, 27303, Control_c, 13, 11, 93
15, 27326, Control_c, 13, 11, 94
15, 27330, Note_on_c, 13, 53, 84
15, 27349, Control_c, 13, 11, 95
15, 27351, Note_on_c, 13, 53, 0
15, 27360, Note_on_c, 13, 62, 84
15, 27371, Control_c, 13, 11, 96
15, 27394, Control_c, 13, 11, 97
15, 27404, Note_on_c, 13, 62, 0
15, 27417, Control_c, 13, 11, 98
15, 27440, Control_c, 13, 11, 99
15, 27450, Note_on_c, 13, 58, 84
15, 27463, Control_c, 13, 11, 100
15, 27471, Note_on_c, 13, 58, 0
15, 27480, Note_on_c, 13, 65, 84
15, 27486, Control_c, 13, 11, 101
15, 27509, Control_c, 13, 11, 102
15, 27524, Note_on_c, 13, 65, 0
15, 27531, Control_c, 13, 11, 103
15, 27554, Control_c, 13, 11, 104
15, 27570, Note_on_c, 13, 62, 84
15, 27577, Control_c, 13, 11, 105
15, 27591, Note_on_c, 13, 62, 0
15, 27600, Note_on_c, 13, 68, 84
15, 27600, Control_c, 13, 11, 106
15, 27623, Control_c, 13, 11, 107
15, 27646, Control_c, 13, 11, 108
15, 27669, Control_c, 13, 11, 109
15, 27691, Control_c, 13, 11, 110
15, 27714, Control_c, 13, 11, 111
15, 27737, Control_c, 13, 11, 112
15, 27760, Control_c, 13, 11, 113
15, 27783, Control_c, 13, 11, 114
15, 27806, Control_c, 13, 11, 115
15, 27829, Control_c, 13, 11, 116
15, 27851, Control_c, 13, 11, 117
15, 27874, Control_c, 13, 11, 118
15, 27897, Control_c, 13, 11, 119
15, 27920, Control_c, 13, 11, 120
15, 27943, Control_c, 13, 11, 121
15, 27966, Control_c, 13, 11, 122
15, 27989, Control_c, 13, 11, 123
15, 28011, Control_c, 13, 11, 124
15, 28034, Control_c, 13, 11, 125
15, 28057, Control_c, 13, 11, 127
15, 28124, Note_on_c, 13, 68, 0
15, 28170, Note_on_c, 13, 65, 84
15, 28191, Note_on_c, 13, 65, 0
15, 28200, Note_on_c, 13, 62, 84
15, 28244, Note_on_c, 13, 62, 0
15, 28290, Note_on_c, 13, 58, 84
15, 28311, Note_on_c, 13, 58, 0
15, 28320, Note_on_c, 13, 56, 84
15, 28364, Note_on_c, 13, 56, 0
15, 28410, Note_on_c, 13, 53, 84
15, 28431, Note_on_c, 13, 53, 0
15, 28440, Note_on_c, 13, 50, 84
15, 28484, Note_on_c, 13, 50, 0
15, 28530, Note_on_c, 13, 58, 84
15, 28551, Note_on_c, 13, 58, 0
15, 28560, Note_on_c, 13, 56, 84
15, 28604, Note_on_c, 13, 56, 0
15, 28650, Note_on_c, 13, 53, 84
15, 28671, Note_on_c, 13, 53, 0
15, 28680, Note_on_c, 13, 50, 84
15, 28724, Note_on_c, 13, 50, 0
15, 28770, Note_on_c, 13, 58, 84
15, 28791, Note_on_c, 13, 58, 0
15, 28800, Note_on_c, 13, 51, 84
15, 28919, Note_on_c, 13, 51, 0
15, 29520, Note_on_c, 13, 55, 52
15, 29631, Note_on_c, 13, 55, 0
15, 29640, Note_on_c, 13, 55, 52
15, 29751, Note_on_c, 13, 55, 0
15, 29760, Note_on_c, 13, 55, 52
15, 29871, Note_on_c, 13, 55, 0
15, 29880, Note_on_c, 13, 55, 52
15, 29991, Note_on_c, 13, 55, 0
15, 30000, Note_on_c, 13, 56, 52
15, 30111, Note_on_c, 13, 56, 0
15, 30120, Note_on_c, 13, 56, 52
15, 30231, Note_on_c, 13, 56, 0
15, 30240, Note_on_c, 13, 58, 52
15, 30351, Note_on_c, 13, 58, 0
15, 30360, Note_on_c, 13, 58, 52
15, 30479, Note_on_c, 13, 58, 0
15, 30480, Note_on_c, 13, 60, 52
15, 30599, Note_on_c, 13, 60, 0
15, 30600, Note_on_c, 13, 62, 52
15, 30719, Note_on_c, 13, 62, 0
15, 30720, Note_on_c, 13, 63, 52
15, 30839, Note_on_c, 13, 63, 0
15, 30840, Note_on_c, 13, 56, 52
15, 30951, Note_on_c, 13, 56, 0
15, 30960, Note_on_c, 13, 55, 52
15, 31071, Note_on_c, 13, 55, 0
15, 31080, Note_on_c, 13, 55, 52
15, 31199, Note_on_c, 13, 55, 0
15, 31200, Note_on_c, 13, 53, 52
15, 31319, Note_on_c, 13, 53, 0
15, 31320, Note_on_c, 13, 51, 52
15, 31439, Note_on_c, 13, 51, 0
15, 31440, Note_on_c, 13, 50, 52
15, 31559, Note_on_c, 13, 50, 0
15, 31560, Note_on_c, 13, 48, 52
15, 31619, Note_on_c, 13, 48, 0
15, 31620, Note_on_c, 13, 53, 52
15, 31675, Note_on_c, 13, 53, 0
15, 31680, Note_on_c, 13, 53, 52
15, 31791, Note_on_c, 13, 53, 0
15, 31800, Note_on_c, 13, 53, 56
15, 31911, Note_on_c, 13, 53, 0
15, 31920, Note_on_c, 13, 53, 60
15, 32031, Note_on_c, 13, 53, 0
15, 32040, Note_on_c, 13, 53, 64
15, 32151, Note_on_c, 13, 53, 0
15, 32160, Note_on_c, 13, 53, 76
15, 32264, Note_on_c, 13, 53, 0
15, 32280, Note_on_c, 13, 53, 68
15, 32391, Note_on_c, 13, 53, 0
15, 32400, Note_on_c, 13, 53, 52
15, 32459, Note_on_c, 13, 53, 0
15, 32490, Note_on_c, 13, 48, 52
15, 32511, Note_on_c, 13, 48, 0
15, 32520, Note_on_c, 13, 53, 52
15, 32564, Note_on_c, 13, 53, 0
15, 32610, Note_on_c, 13, 48, 52
15, 32631, Note_on_c, 13, 48, 0
15, 32640, Note_on_c, 13, 53, 52
15, 32684, Note_on_c, 13, 53, 0
15, 32730, Note_on_c, 13, 48, 52
15, 32751, Note_on_c, 13, 48, 0
15, 32760, Note_on_c, 13, 53, 52
15, 32804, Note_on_c, 13, 53, 0
15, 32850, Note_on_c, 13, 48, 52
15, 32871, Note_on_c, 13, 48, 0
15, 32880, Note_on_c, 13, 53, 52
15, 32999, Note_on_c, 13, 53, 0
15, 33120, Note_on_c, 13, 56, 52
15, 33164, Note_on_c, 13, 56, 0
15, 33210, Note_on_c, 13, 53, 52
15, 33231, Note_on_c, 13, 53, 0
15, 33240, Note_on_c, 13, 56, 52
15, 33284, Note_on_c, 13, 56, 0
15, 33330, Note_on_c, 13, 53, 52
15, 33351, Note_on_c, 13, 53, 0
15, 33360, Note_on_c, 13, 56, 52
15, 33404, Note_on_c, 13, 56, 0
15, 33450, Note_on_c, 13, 53, 52
15, 33471, Note_on_c, 13, 53, 0
15, 33480, Note_on_c, 13, 55, 52
15, 33524, Note_on_c, 13, 55, 0
15, 33570, Note_on_c, 13, 51, 52
15, 33591, Note_on_c, 13, 51, 0
15, 33600, Note_on_c, 13, 60, 52
15, 33644, Note_on_c, 13, 60, 0
15, 33690, Note_on_c, 13, 56, 52
15, 33711, Note_on_c, 13, 56, 0
15, 33720, Note_on_c, 13, 56, 52
15, 33764, Note_on_c, 13, 56, 0
15, 33810, Note_on_c, 13, 53, 52
15, 33831, Note_on_c, 13, 53, 0
15, 33930, Note_on_c, 13, 51, 55
15, 33951, Note_on_c, 13, 51, 0
15, 33960, Note_on_c, 13, 55, 56
15, 34004, Note_on_c, 13, 55, 0
15, 34020, Note_on_c, 13, 55, 58
15, 34064, Note_on_c, 13, 55, 0
15, 34170, Note_on_c, 13, 52, 63
15, 34191, Note_on_c, 13, 52, 0
15, 34200, Note_on_c, 13, 55, 64
15, 34244, Note_on_c, 13, 55, 0
15, 34260, Note_on_c, 13, 55, 66
15, 34304, Note_on_c, 13, 55, 0
15, 34410, Note_on_c, 13, 53, 71
15, 34431, Note_on_c, 13, 53, 0
15, 34440, Note_on_c, 13, 53, 72
15, 34484, Note_on_c, 13, 53, 0
15, 34500, Note_on_c, 13, 53, 74
15, 34544, Note_on_c, 13, 53, 0
15, 34560, Note_on_c, 13, 51, 76
15, 34604, Note_on_c, 13, 51, 0
15, 34650, Note_on_c, 13, 58, 76
15, 34671, Note_on_c, 13, 58, 0
15, 34680, Note_on_c, 13, 63, 76
15, 34724, Note_on_c, 13, 63, 0
15, 34770, Note_on_c, 13, 58, 76
15, 34791, Note_on_c, 13, 58, 0
15, 34800, Note_on_c, 13, 63, 76
15, 34844, Note_on_c, 13, 63, 0
15, 34890, Note_on_c, 13, 58, 76
15, 34911, Note_on_c, 13, 58, 0
15, 34920, Note_on_c, 13, 63, 76
15, 34964, Note_on_c, 13, 63, 0
15, 35010, Note_on_c, 13, 58, 76
15, 35031, Note_on_c, 13, 58, 0
15, 35040, Note_on_c, 13, 63, 76
15, 35084, Note_on_c, 13, 63, 0
15, 35130, Note_on_c, 13, 58, 76
15, 35151, Note_on_c, 13, 58, 0
15, 35160, Note_on_c, 13, 63, 76
15, 35204, Note_on_c, 13, 63, 0
15, 35250, Note_on_c, 13, 58, 76
15, 35271, Note_on_c, 13, 58, 0
15, 35280, Note_on_c, 13, 58, 84
15, 35305, Note_on_c, 13, 58, 0
15, 35310, Note_on_c, 13, 70, 76
15, 35335, Note_on_c, 13, 70, 0
15, 35340, Note_on_c, 13, 58, 76
15, 35365, Note_on_c, 13, 58, 0
15, 35370, Note_on_c, 13, 58, 76
15, 35395, Note_on_c, 13, 58, 0
15, 35400, Note_on_c, 13, 58, 76
15, 35425, Note_on_c, 13, 58, 0
15, 35430, Note_on_c, 13, 58, 76
15, 35455, Note_on_c, 13, 58, 0
15, 35460, Note_on_c, 13, 58, 76
15, 35485, Note_on_c, 13, 58, 0
15, 35490, Note_on_c, 13, 58, 76
15, 35515, Note_on_c, 13, 58, 0
15, 35520, Note_on_c, 13, 56, 84
15, 35545, Note_on_c, 13, 56, 0
15, 35550, Note_on_c, 13, 68, 76
15, 35575, Note_on_c, 13, 68, 0
15, 35580, Note_on_c, 13, 56, 76
15, 35605, Note_on_c, 13, 56, 0
15, 35610, Note_on_c, 13, 56, 76
15, 35635, Note_on_c, 13, 56, 0
15, 35640, Note_on_c, 13, 56, 76
15, 35665, Note_on_c, 13, 56, 0
15, 35670, Note_on_c, 13, 56, 76
15, 35695, Note_on_c, 13, 56, 0
15, 35700, Note_on_c, 13, 56, 76
15, 35725, Note_on_c, 13, 56, 0
15, 35730, Note_on_c, 13, 56, 76
15, 35755, Note_on_c, 13, 56, 0
15, 35760, Note_on_c, 13, 54, 84
15, 35785, Note_on_c, 13, 54, 0
15, 35790, Note_on_c, 13, 66, 76
15, 35815, Note_on_c, 13, 66, 0
15, 35820, Note_on_c, 13, 54, 76
15, 35845, Note_on_c, 13, 54, 0
15, 35850, Note_on_c, 13, 54, 76
15, 35875, Note_on_c, 13, 54, 0
15, 35880, Note_on_c, 13, 54, 76
15, 35905, Note_on_c, 13, 54, 0
15, 35910, Note_on_c, 13, 54, 76
15, 35935, Note_on_c, 13, 54, 0
15, 35940, Note_on_c, 13, 54, 76
15, 35965, Note_on_c, 13, 54, 0
15, 35970, Note_on_c, 13, 54, 76
15, 35995, Note_on_c, 13, 54, 0
15, 36000, Note_on_c, 13, 53, 84
15, 36025, Note_on_c, 13, 53, 0
15, 36030, Note_on_c, 13, 65, 76
15, 36055, Note_on_c, 13, 65, 0
15, 36060, Note_on_c, 13, 53, 76
15, 36085, Note_on_c, 13, 53, 0
15, 36090, Note_on_c, 13, 53, 76
15, 36115, Note_on_c, 13, 53, 0
15, 36120, Note_on_c, 13, 53, 76
15, 36145, Note_on_c, 13, 53, 0
15, 36150, Note_on_c, 13, 53, 76
15, 36175, Note_on_c, 13, 53, 0
15, 36180, Note_on_c, 13, 53, 76
15, 36205, Note_on_c, 13, 53, 0
15, 36210, Note_on_c, 13, 53, 76
15, 36235, Note_on_c, 13, 53, 0
15, 36240, Note_on_c, 13, 51, 84
15, 36265, Note_on_c, 13, 51, 0
15, 36270, Note_on_c, 13, 63, 76
15, 36295, Note_on_c, 13, 63, 0
15, 36300, Note_on_c, 13, 51, 76
15, 36325, Note_on_c, 13, 51, 0
15, 36330, Note_on_c, 13, 51, 76
15, 36355, Note_on_c, 13, 51, 0
15, 36360, Note_on_c, 13, 51, 76
15, 36385, Note_on_c, 13, 51, 0
15, 36390, Note_on_c, 13, 51, 76
15, 36415, Note_on_c, 13, 51, 0
15, 36420, Note_on_c, 13, 51, 76
15, 36445, Note_on_c, 13, 51, 0
15, 36450, Note_on_c, 13, 51, 76
15, 36475, Note_on_c, 13, 51, 0
15, 36480, Note_on_c, 13, 49, 84
15, 36505, Note_on_c, 13, 49, 0
15, 36510, Note_on_c, 13, 61, 76
15, 36535, Note_on_c, 13, 61, 0
15, 36540, Note_on_c, 13, 49, 76
15, 36565, Note_on_c, 13, 49, 0
15, 36570, Note_on_c, 13, 49, 76
15, 36595, Note_on_c, 13, 49, 0
15, 36600, Note_on_c, 13, 49, 76
15, 36625, Note_on_c, 13, 49, 0
15, 36630, Note_on_c, 13, 49, 76
15, 36655, Note_on_c, 13, 49, 0
15, 36660, Note_on_c, 13, 49, 76
15, 36685, Note_on_c, 13, 49, 0
15, 36690, Note_on_c, 13, 49, 76
15, 36715, Note_on_c, 13, 49, 0
15, 36720, Note_on_c, 13, 59, 84
15, 36745, Note_on_c, 13, 59, 0
15, 36750, Note_on_c, 13, 59, 76
15, 36775, Note_on_c, 13, 59, 0
15, 36780, Note_on_c, 13, 59, 76
15, 36805, Note_on_c, 13, 59, 0
15, 36810, Note_on_c, 13, 59, 76
15, 36835, Note_on_c, 13, 59, 0
15, 36840, Note_on_c, 13, 59, 76
15, 36865, Note_on_c, 13, 59, 0
15, 36870, Note_on_c, 13, 59, 76
15, 36895, Note_on_c, 13, 59, 0
15, 36900, Note_on_c, 13, 59, 76
15, 36925, Note_on_c, 13, 59, 0
15, 36930, Note_on_c, 13, 59, 76
15, 36955, Note_on_c, 13, 59, 0
15, 36960, Note_on_c, 13, 58, 84
15, 36985, Note_on_c, 13, 58, 0
15, 36990, Note_on_c, 13, 58, 76
15, 37015, Note_on_c, 13, 58, 0
15, 37020, Note_on_c, 13, 58, 76
15, 37045, Note_on_c, 13, 58, 0
15, 37050, Note_on_c, 13, 58, 76
15, 37075, Note_on_c, 13, 58, 0
15, 37080, Note_on_c, 13, 58, 76
15, 37105, Note_on_c, 13, 58, 0
15, 37110, Note_on_c, 13, 58, 76
15, 37135, Note_on_c, 13, 58, 0
15, 37140, Note_on_c, 13, 58, 76
15, 37165, Note_on_c, 13, 58, 0
15, 37170, Note_on_c, 13, 58, 76
15, 37195, Note_on_c, 13, 58, 0
15, 37200, Note_on_c, 13, 56, 84
15, 37225, Note_on_c, 13, 56, 0
15, 37230, Note_on_c, 13, 56, 76
15, 37255, Note_on_c, 13, 56, 0
15, 37260, Note_on_c, 13, 56, 76
15, 37285, Note_on_c, 13, 56, 0
15, 37290, Note_on_c, 13, 56, 76
15, 37315, Note_on_c, 13, 56, 0
15, 37320, Note_on_c, 13, 56, 76
15, 37345, Note_on_c, 13, 56, 0
15, 37350, Note_on_c, 13, 56, 76
15, 37375, Note_on_c, 13, 56, 0
15, 37380, Note_on_c, 13, 56, 76
15, 37405, Note_on_c, 13, 56, 0
15, 37410, Note_on_c, 13, 56, 76
15, 37435, Note_on_c, 13, 56, 0
15, 37440, Note_on_c, 13, 58, 84
15, 37440, Note_on_c, 13, 54, 84
15, 37465, Note_on_c, 13, 58, 0
15, 37465, Note_on_c, 13, 54, 0
15, 37470, Note_on_c, 13, 54, 76
15, 37470, Note_on_c, 13, 58, 76
15, 37495, Note_on_c, 13, 54, 0
15, 37495, Note_on_c, 13, 58, 0
15, 37500, Note_on_c, 13, 54, 76
15, 37500, Note_on_c, 13, 58, 76
15, 37525, Note_on_c, 13, 54, 0
15, 37525, Note_on_c, 13, 58, 0
15, 37530, Note_on_c, 13, 58, 76
15, 37530, Note_on_c, 13, 54, 76
15, 37555, Note_on_c, 13, 58, 0
15, 37555, Note_on_c, 13, 54, 0
15, 37560, Note_on_c, 13, 54, 76
15, 37560, Note_on_c, 13, 58, 76
15, 37585, Note_on_c, 13, 54, 0
15, 37585, Note_on_c, 13, 58, 0
15, 37590, Note_on_c, 13, 58, 76
15, 37590, Note_on_c, 13, 54, 76
15, 37615, Note_on_c, 13, 58, 0
15, 37615, Note_on_c, 13, 54, 0
15, 37620, Note_on_c, 13, 54, 76
15, 37620, Note_on_c, 13, 58, 76
15, 37645, Note_on_c, 13, 54, 0
15, 37645, Note_on_c, 13, 58, 0
15, 37650, Note_on_c, 13, 54, 76
15, 37650, Note_on_c, 13, 58, 76
15, 37675, Note_on_c, 13, 54, 0
15, 37675, Note_on_c, 13, 58, 0
15, 37680, Note_on_c, 13, 53, 84
15, 37680, Note_on_c, 13, 56, 84
15, 37705, Note_on_c, 13, 53, 0
15, 37705, Note_on_c, 13, 56, 0
15, 37710, Note_on_c, 13, 53, 76
15, 37710, Note_on_c, 13, 56, 76
15, 37735, Note_on_c, 13, 53, 0
15, 37735, Note_on_c, 13, 56, 0
15, 37740, Note_on_c, 13, 56, 76
15, 37740, Note_on_c, 13, 53, 76
15, 37765, Note_on_c, 13, 56, 0
15, 37765, Note_on_c, 13, 53, 0
15, 37770, Note_on_c, 13, 56, 76
15, 37770, Note_on_c, 13, 53, 76
15, 37795, Note_on_c, 13, 56, 0
15, 37795, Note_on_c, 13, 53, 0
15, 37800, Note_on_c, 13, 53, 76
15, 37800, Note_on_c, 13, 56, 76
15, 37825, Note_on_c, 13, 53, 0
15, 37825, Note_on_c, 13, 56, 0
15, 37830, Note_on_c, 13, 53, 76
15, 37830, Note_on_c, 13, 56, 76
15, 37855, Note_on_c, 13, 53, 0
15, 37855, Note_on_c, 13, 56, 0
15, 37860, Note_on_c, 13, 53, 76
15, 37860, Note_on_c, 13, 56, 76
15, 37885, Note_on_c, 13, 53, 0
15, 37885, Note_on_c, 13, 56, 0
15, 37890, Note_on_c, 13, 56, 76
15, 37890, Note_on_c, 13, 53, 76
15, 37915, Note_on_c, 13, 56, 0
15, 37915, Note_on_c, 13, 53, 0
15, 37920, Note_on_c, 13, 51, 84
15, 37920, Note_on_c, 13, 54, 84
15, 37945, Note_on_c, 13, 51, 0
15, 37945, Note_on_c, 13, 54, 0
15, 37950, Note_on_c, 13, 51, 76
15, 37950, Note_on_c, 13, 54, 76
15, 37975, Note_on_c, 13, 51, 0
15, 37975, Note_on_c, 13, 54, 0
15, 37980, Note_on_c, 13, 54, 76
15, 37980, Note_on_c, 13, 51, 76
15, 38005, Note_on_c, 13, 54, 0
15, 38005, Note_on_c, 13, 51, 0
15, 38010, Note_on_c, 13, 54, 76
15, 38010, Note_on_c, 13, 51, 76
15, 38035, Note_on_c, 13, 54, 0
15, 38035, Note_on_c, 13, 51, 0
15, 38040, Note_on_c, 13, 51, 76
15, 38040, Note_on_c, 13, 54, 76
15, 38065, Note_on_c, 13, 51, 0
15, 38065, Note_on_c, 13, 54, 0
15, 38070, Note_on_c, 13, 54, 76
15, 38070, Note_on_c, 13, 51, 76
15, 38095, Note_on_c, 13, 54, 0
15, 38095, Note_on_c, 13, 51, 0
15, 38100, Note_on_c, 13, 51, 76
15, 38100, Note_on_c, 13, 54, 76
15, 38125, Note_on_c, 13, 51, 0
15, 38125, Note_on_c, 13, 54, 0
15, 38130, Note_on_c, 13, 51, 76
15, 38130, Note_on_c, 13, 54, 76
15, 38155, Note_on_c, 13, 51, 0
15, 38155, Note_on_c, 13, 54, 0
15, 38160, Note_on_c, 13, 49, 52
15, 38160, Note_on_c, 13, 53, 52
15, 38279, Note_on_c, 13, 49, 0
15, 38279, Note_on_c, 13, 53, 0
15, 41280, Note_on_c, 13, 65, 52
15, 41399, Note_on_c, 13, 65, 0
15, 41520, Note_on_c, 13, 65, 52
15, 41639, Note_on_c, 13, 65, 0
15, 41760, Control_c, 13, 11, 127
15, 41760, Note_on_c, 13, 65, 52
15, 41808, Control_c, 13, 11, 126
15, 41856, Control_c, 13, 11, 125
15, 41904, Control_c, 13, 11, 124
15, 41952, Control_c, 13, 11, 123
15, 42000, Control_c, 13, 11, 122
15, 42048, Control_c, 13, 11, 121
15, 42096, Control_c, 13, 11, 120
15, 42144, Control_c, 13, 11, 119
15, 42192, Control_c, 13, 11, 118
15, 42239, Note_on_c, 13, 65, 0
15, 42240, Control_c, 13, 11, 117
15, 42240, Note_on_c, 13, 68, 52
15, 42288, Control_c, 13, 11, 116
15, 42336, Control_c, 13, 11, 115
15, 42384, Control_c, 13, 11, 114
15, 42432, Control_c, 13, 11, 113
15, 42471, Note_on_c, 13, 68, 0
15, 42480, Note_on_c, 13, 66, 52
15, 42599, Note_on_c, 13, 66, 0
15, 45840, Program_c, 13, 45
15, 45840, Control_c, 13, 11, 127
15, 46080, Note_on_c, 13, 51, 44
15, 46199, Note_on_c, 13, 51, 0
15, 46200, Note_on_c, 13, 51, 44
15, 46319, Note_on_c, 13, 51, 0
15, 46320, Note_on_c, 13, 51, 44
15, 46439, Note_on_c, 13, 51, 0
15, 46440, Note_on_c, 13, 51, 44
15, 46559, Note_on_c, 13, 51, 0
15, 46560, Note_on_c, 13, 51, 44
15, 46679, Note_on_c, 13, 51, 0
15, 46680, Note_on_c, 13, 51, 44
15, 46799, Note_on_c, 13, 51, 0
15, 46800, Note_on_c, 13, 51, 44
15, 46919, Note_on_c, 13, 51, 0
15, 46920, Note_on_c, 13, 51, 44
15, 47039, Note_on_c, 13, 51, 0
15, 47040, Note_on_c, 13, 51, 44
15, 47159, Note_on_c, 13, 51, 0
15, 47160, Note_on_c, 13, 51, 44
15, 47279, Note_on_c, 13, 51, 0
15, 47280, Note_on_c, 13, 51, 44
15, 47399, Note_on_c, 13, 51, 0
15, 47400, Note_on_c, 13, 56, 44
15, 47519, Note_on_c, 13, 56, 0
15, 47520, Note_on_c, 13, 58, 44
15, 47639, Note_on_c, 13, 58, 0
15, 47640, Note_on_c, 13, 58, 44
15, 47759, Note_on_c, 13, 58, 0
15, 47760, Note_on_c, 13, 58, 44
15, 47879, Note_on_c, 13, 58, 0
15, 47880, Note_on_c, 13, 58, 44
15, 47999, Note_on_c, 13, 58, 0
15, 48000, Note_on_c, 13, 58, 44
15, 48119, Note_on_c, 13, 58, 0
15, 48120, Note_on_c, 13, 58, 44
15, 48239, Note_on_c, 13, 58, 0
15, 48240, Note_on_c, 13, 58, 44
15, 48351, Note_on_c, 13, 58, 0
15, 48360, Note_on_c, 13, 53, 46
15, 48471, Note_on_c, 13, 53, 0
15, 48480, Note_on_c, 13, 53, 49
15, 48591, Note_on_c, 13, 53, 0
15, 48600, Note_on_c, 13, 53, 51
15, 48711, Note_on_c, 13, 53, 0
15, 48720, Note_on_c, 13, 53, 68
15, 48824, Note_on_c, 13, 53, 0
15, 48840, Note_on_c, 13, 53, 54
15, 48944, Note_on_c, 13, 53, 0
15, 48958, Program_c, 13, 48
15, 48960, Note_on_c, 13, 53, 52
15, 48995, Note_on_c, 13, 53, 0
15, 49000, Note_on_c, 13, 48, 52
15, 49039, Note_on_c, 13, 48, 0
15, 49040, Note_on_c, 13, 53, 52
15, 49079, Note_on_c, 13, 53, 0
15, 49120, Note_on_c, 13, 48, 52
15, 49159, Note_on_c, 13, 48, 0
15, 49160, Note_on_c, 13, 53, 52
15, 49199, Note_on_c, 13, 53, 0
15, 49240, Note_on_c, 13, 48, 52
15, 49279, Note_on_c, 13, 48, 0
15, 49280, Note_on_c, 13, 53, 52
15, 49319, Note_on_c, 13, 53, 0
15, 49360, Note_on_c, 13, 48, 52
15, 49399, Note_on_c, 13, 48, 0
15, 49400, Note_on_c, 13, 53, 52
15, 49439, Note_on_c, 13, 53, 0
15, 49480, Note_on_c, 13, 48, 52
15, 49519, Note_on_c, 13, 48, 0
15, 49520, Note_on_c, 13, 53, 52
15, 49559, Note_on_c, 13, 53, 0
15, 49600, Note_on_c, 13, 48, 52
15, 49639, Note_on_c, 13, 48, 0
15, 49640, Note_on_c, 13, 53, 52
15, 49679, Note_on_c, 13, 53, 0
15, 49720, Note_on_c, 13, 50, 52
15, 49759, Note_on_c, 13, 50, 0
15, 49760, Note_on_c, 13, 56, 52
15, 49799, Note_on_c, 13, 56, 0
15, 49840, Note_on_c, 13, 50, 52
15, 49879, Note_on_c, 13, 50, 0
15, 49880, Note_on_c, 13, 56, 52
15, 49919, Note_on_c, 13, 56, 0
15, 49960, Note_on_c, 13, 53, 52
15, 49999, Note_on_c, 13, 53, 0
15, 50000, Note_on_c, 13, 56, 52
15, 50039, Note_on_c, 13, 56, 0
15, 50080, Note_on_c, 13, 48, 52
15, 50119, Note_on_c, 13, 48, 0
15, 50120, Note_on_c, 13, 55, 52
15, 50159, Note_on_c, 13, 55, 0
15, 50200, Note_on_c, 13, 48, 52
15, 50239, Note_on_c, 13, 48, 0
15, 50240, Note_on_c, 13, 56, 52
15, 50279, Note_on_c, 13, 56, 0
15, 50320, Note_on_c, 13, 53, 52
15, 50320, Note_on_c, 13, 56, 52
15, 50359, Note_on_c, 13, 53, 0
15, 50359, Note_on_c, 13, 56, 0
15, 50360, Note_on_c, 13, 56, 52
15, 50360, Note_on_c, 13, 60, 52
15, 50399, Note_on_c, 13, 56, 0
15, 50399, Note_on_c, 13, 60, 0
15, 50440, Note_on_c, 13, 51, 53
15, 50440, Note_on_c, 13, 55, 53
15, 50479, Note_on_c, 13, 51, 0
15, 50479, Note_on_c, 13, 55, 0
15, 50480, Note_on_c, 13, 58, 54
15, 50480, Note_on_c, 13, 55, 54
15, 50519, Note_on_c, 13, 58, 0
15, 50519, Note_on_c, 13, 55, 0
15, 50560, Note_on_c, 13, 55, 57
15, 50560, Note_on_c, 13, 51, 57
15, 50599, Note_on_c, 13, 55, 0
15, 50599, Note_on_c, 13, 51, 0
15, 50600, Note_on_c, 13, 58, 58
15, 50600, Note_on_c, 13, 55, 58
15, 50639, Note_on_c, 13, 58, 0
15, 50639, Note_on_c, 13, 55, 0
15, 50680, Note_on_c, 13, 51, 61
15, 50680, Note_on_c, 13, 55, 61
15, 50719, Note_on_c, 13, 51, 0
15, 50719, Note_on_c, 13, 55, 0
15, 50720, Note_on_c, 13, 55, 62
15, 50720, Note_on_c, 13, 58, 62
15, 50759, Note_on_c, 13, 55, 0
15, 50759, Note_on_c, 13, 58, 0
15, 50800, Note_on_c, 13, 55, 65
15, 50800, Note_on_c, 13, 52, 65
15, 50839, Note_on_c, 13, 55, 0
15, 50839, Note_on_c, 13, 52, 0
15, 50840, Note_on_c, 13, 55, 66
15, 50840, Note_on_c, 13, 58, 66
15, 50879, Note_on_c, 13, 55, 0
15, 50879, Note_on_c, 13, 58, 0
15, 50920, Note_on_c, 13, 56, 69
15, 50920, Note_on_c, 13, 53, 69
15, 50959, Note_on_c, 13, 56, 0
15, 50959, Note_on_c, 13, 53, 0
15, 50960, Note_on_c, 13, 58, 70
15, 50960, Note_on_c, 13, 56, 70
15, 50999, Note_on_c, 13, 58, 0
15, 50999, Note_on_c, 13, 56, 0
15, 51040, Note_on_c, 13, 53, 73
15, 51040, Note_on_c, 13, 50, 73
15, 51079, Note_on_c, 13, 53, 0
15, 51079, Note_on_c, 13, 50, 0
15, 51080, Note_on_c, 13, 53, 74
15, 51080, Note_on_c, 13, 58, 74
15, 51115, Note_on_c, 13, 53, 0
15, 51115, Note_on_c, 13, 58, 0
15, 51120, Note_on_c, 13, 55, 76
15, 51120, Note_on_c, 13, 51, 76
15, 51145, Note_on_c, 13, 55, 0
15, 51145, Note_on_c, 13, 51, 0
15, 51150, Note_on_c, 13, 58, 76
15, 51179, Note_on_c, 13, 58, 0
15, 51180, Note_on_c, 13, 55, 76
15, 51209, Note_on_c, 13, 55, 0
15, 51210, Note_on_c, 13, 58, 76
15, 51239, Note_on_c, 13, 58, 0
15, 51240, Note_on_c, 13, 63, 84
15, 51269, Note_on_c, 13, 63, 0
15, 51270, Note_on_c, 13, 67, 76
15, 51299, Note_on_c, 13, 67, 0
15, 51300, Note_on_c, 13, 63, 76
15, 51329, Note_on_c, 13, 63, 0
15, 51330, Note_on_c, 13, 58, 76
15, 51359, Note_on_c, 13, 58, 0
15, 51390, Note_on_c, 13, 58, 76
15, 51419, Note_on_c, 13, 58, 0
15, 51420, Note_on_c, 13, 55, 76
15, 51449, Note_on_c, 13, 55, 0
15, 51450, Note_on_c, 13, 58, 76
15, 51479, Note_on_c, 13, 58, 0
15, 51480, Note_on_c, 13, 63, 84
15, 51509, Note_on_c, 13, 63, 0
15, 51510, Note_on_c, 13, 67, 76
15, 51539, Note_on_c, 13, 67, 0
15, 51540, Note_on_c, 13, 63, 76
15, 51569, Note_on_c, 13, 63, 0
15, 51570, Note_on_c, 13, 58, 76
15, 51599, Note_on_c, 13, 58, 0
15, 51630, Note_on_c, 13, 58, 76
15, 51659, Note_on_c, 13, 58, 0
15, 51660, Note_on_c, 13, 55, 76
15, 51689, Note_on_c, 13, 55, 0
15, 51690, Note_on_c, 13, 58, 76
15, 51719, Note_on_c, 13, 58, 0
15, 51720, Note_on_c, 13, 63, 84
15, 51749, Note_on_c, 13, 63, 0
15, 51750, Note_on_c, 13, 67, 76
15, 51779, Note_on_c, 13, 67, 0
15, 51780, Note_on_c, 13, 63, 76
15, 51809, Note_on_c, 13, 63, 0
15, 51810, Note_on_c, 13, 58, 76
15, 51839, Note_on_c, 13, 58, 0
15, 51870, Note_on_c, 13, 58, 76
15, 51899, Note_on_c, 13, 58, 0
15, 51900, Note_on_c, 13, 56, 52
15, 51929, Note_on_c, 13, 56, 0
15, 51930, Note_on_c, 13, 58, 52
15, 51959, Note_on_c, 13, 58, 0
15, 51990, Note_on_c, 13, 58, 52
15, 52019, Note_on_c, 13, 58, 0
15, 52020, Note_on_c, 13, 56, 52
15, 52049, Note_on_c, 13, 56, 0
15, 52050, Note_on_c, 13, 58, 52
15, 52079, Note_on_c, 13, 58, 0
15, 52110, Note_on_c, 13, 58, 52
15, 52139, Note_on_c, 13, 58, 0
15, 52140, Note_on_c, 13, 56, 52
15, 52169, Note_on_c, 13, 56, 0
15, 52170, Note_on_c, 13, 58, 52
15, 52199, Note_on_c, 13, 58, 0
15, 52230, Note_on_c, 13, 58, 52
15, 52259, Note_on_c, 13, 58, 0
15, 52260, Note_on_c, 13, 56, 52
15, 52289, Note_on_c, 13, 56, 0
15, 52290, Note_on_c, 13, 58, 52
15, 52319, Note_on_c, 13, 58, 0
15, 52350, Note_on_c, 13, 58, 52
15, 52379, Note_on_c, 13, 58, 0
15, 52380, Note_on_c, 13, 56, 52
15, 52409, Note_on_c, 13, 56, 0
15, 52410, Note_on_c, 13, 58, 52
15, 52439, Note_on_c, 13, 58, 0
15, 52470, Note_on_c, 13, 58, 52
15, 52499, Note_on_c, 13, 58, 0
15, 52500, Note_on_c, 13, 56, 52
15, 52529, Note_on_c, 13, 56, 0
15, 52530, Note_on_c, 13, 58, 52
15, 52555, Note_on_c, 13, 58, 0
15, 52560, Note_on_c, 13, 55, 76
15, 52585, Note_on_c, 13, 55, 0
15, 52590, Note_on_c, 13, 58, 76
15, 52619, Note_on_c, 13, 58, 0
15, 52620, Note_on_c, 13, 55, 76
15, 52649, Note_on_c, 13, 55, 0
15, 52650, Note_on_c, 13, 58, 76
15, 52679, Note_on_c, 13, 58, 0
15, 52680, Note_on_c, 13, 63, 84
15, 52709, Note_on_c, 13, 63, 0
15, 52710, Note_on_c, 13, 67, 76
15, 52739, Note_on_c, 13, 67, 0
15, 52740, Note_on_c, 13, 63, 76
15, 52769, Note_on_c, 13, 63, 0
15, 52770, Note_on_c, 13, 58, 76
15, 52799, Note_on_c, 13, 58, 0
15, 52830, Note_on_c, 13, 58, 76
15, 52859, Note_on_c, 13, 58, 0
15, 52860, Note_on_c, 13, 55, 76
15, 52889, Note_on_c, 13, 55, 0
15, 52890, Note_on_c, 13, 58, 76
15, 52919, Note_on_c, 13, 58, 0
15, 52920, Note_on_c, 13, 63, 84
15, 52949, Note_on_c, 13, 63, 0
15, 52950, Note_on_c, 13, 67, 76
15, 52979, Note_on_c, 13, 67, 0
15, 52980, Note_on_c, 13, 63, 76
15, 53009, Note_on_c, 13, 63, 0
15, 53010, Note_on_c, 13, 58, 76
15, 53039, Note_on_c, 13, 58, 0
15, 53070, Note_on_c, 13, 58, 76
15, 53099, Note_on_c, 13, 58, 0
15, 53100, Note_on_c, 13, 55, 76
15, 53129, Note_on_c, 13, 55, 0
15, 53130, Note_on_c, 13, 58, 76
15, 53159, Note_on_c, 13, 58, 0
15, 53160, Note_on_c, 13, 63, 84
15, 53189, Note_on_c, 13, 63, 0
15, 53190, Note_on_c, 13, 67, 76
15, 53219, Note_on_c, 13, 67, 0
15, 53220, Note_on_c, 13, 63, 76
15, 53249, Note_on_c, 13, 63, 0
15, 53250, Note_on_c, 13, 58, 76
15, 53279, Note_on_c, 13, 58, 0
15, 53310, Note_on_c, 13, 64, 76
15, 53339, Note_on_c, 13, 64, 0
15, 53340, Note_on_c, 13, 58, 52
15, 53369, Note_on_c, 13, 58, 0
15, 53370, Note_on_c, 13, 64, 52
15, 53399, Note_on_c, 13, 64, 0
15, 53430, Note_on_c, 13, 64, 52
15, 53459, Note_on_c, 13, 64, 0
15, 53460, Note_on_c, 13, 58, 52
15, 53489, Note_on_c, 13, 58, 0
15, 53490, Note_on_c, 13, 64, 52
15, 53519, Note_on_c, 13, 64, 0
15, 53550, Note_on_c, 13, 64, 52
15, 53579, Note_on_c, 13, 64, 0
15, 53580, Note_on_c, 13, 58, 52
15, 53609, Note_on_c, 13, 58, 0
15, 53610, Note_on_c, 13, 64, 52
15, 53639, Note_on_c, 13, 64, 0
15, 53670, Note_on_c, 13, 64, 52
15, 53699, Note_on_c, 13, 64, 0
15, 53700, Note_on_c, 13, 58, 52
15, 53729, Note_on_c, 13, 58, 0
15, 53730, Note_on_c, 13, 64, 52
15, 53759, Note_on_c, 13, 64, 0
15, 53790, Note_on_c, 13, 64, 52
15, 53819, Note_on_c, 13, 64, 0
15, 53820, Note_on_c, 13, 58, 52
15, 53849, Note_on_c, 13, 58, 0
15, 53850, Note_on_c, 13, 64, 52
15, 53879, Note_on_c, 13, 64, 0
15, 53910, Note_on_c, 13, 64, 52
15, 53939, Note_on_c, 13, 64, 0
15, 53940, Note_on_c, 13, 58, 52
15, 53969, Note_on_c, 13, 58, 0
15, 53970, Note_on_c, 13, 64, 52
15, 53995, Note_on_c, 13, 64, 0
15, 54000, Note_on_c, 13, 65, 76
15, 54029, Note_on_c, 13, 65, 0
15, 54030, Note_on_c, 13, 53, 76
15, 54059, Note_on_c, 13, 53, 0
15, 54060, Note_on_c, 13, 48, 76
15, 54089, Note_on_c, 13, 48, 0
15, 54090, Note_on_c, 13, 53, 76
15, 54119, Note_on_c, 13, 53, 0
15, 54120, Note_on_c, 13, 56, 84
15, 54149, Note_on_c, 13, 56, 0
15, 54150, Note_on_c, 13, 60, 76
15, 54179, Note_on_c, 13, 60, 0
15, 54180, Note_on_c, 13, 56, 76
15, 54209, Note_on_c, 13, 56, 0
15, 54210, Note_on_c, 13, 53, 76
15, 54239, Note_on_c, 13, 53, 0
15, 54270, Note_on_c, 13, 53, 76
15, 54299, Note_on_c, 13, 53, 0
15, 54300, Note_on_c, 13, 48, 76
15, 54329, Note_on_c, 13, 48, 0
15, 54330, Note_on_c, 13, 53, 76
15, 54359, Note_on_c, 13, 53, 0
15, 54360, Note_on_c, 13, 56, 84
15, 54389, Note_on_c, 13, 56, 0
15, 54390, Note_on_c, 13, 60, 76
15, 54419, Note_on_c, 13, 60, 0
15, 54420, Note_on_c, 13, 56, 76
15, 54449, Note_on_c, 13, 56, 0
15, 54450, Note_on_c, 13, 53, 76
15, 54479, Note_on_c, 13, 53, 0
15, 54510, Note_on_c, 13, 53, 76
15, 54539, Note_on_c, 13, 53, 0
15, 54540, Note_on_c, 13, 48, 76
15, 54569, Note_on_c, 13, 48, 0
15, 54570, Note_on_c, 13, 53, 76
15, 54599, Note_on_c, 13, 53, 0
15, 54600, Note_on_c, 13, 56, 84
15, 54629, Note_on_c, 13, 56, 0
15, 54630, Note_on_c, 13, 60, 76
15, 54659, Note_on_c, 13, 60, 0
15, 54660, Note_on_c, 13, 56, 76
15, 54689, Note_on_c, 13, 56, 0
15, 54690, Note_on_c, 13, 53, 76
15, 54711, Note_on_c, 13, 53, 0
15, 55140, Note_on_c, 13, 63, 52
15, 55140, Note_on_c, 13, 51, 52
15, 55199, Note_on_c, 13, 63, 0
15, 55199, Note_on_c, 13, 51, 0
15, 55200, Note_on_c, 13, 50, 52
15, 55200, Note_on_c, 13, 62, 52
15, 55319, Note_on_c, 13, 50, 0
15, 55319, Note_on_c, 13, 62, 0
15, 55440, Note_on_c, 13, 58, 76
15, 55469, Note_on_c, 13, 58, 0
15, 55470, Note_on_c, 13, 58, 52
15, 55619, Note_on_c, 13, 58, 0
15, 55620, Note_on_c, 13, 60, 52
15, 55679, Note_on_c, 13, 60, 0
15, 55680, Note_on_c, 13, 62, 52
15, 55739, Note_on_c, 13, 62, 0
15, 55740, Note_on_c, 13, 63, 52
15, 55799, Note_on_c, 13, 63, 0
15, 55800, Note_on_c, 13, 65, 52
15, 55859, Note_on_c, 13, 65, 0
15, 55860, Note_on_c, 13, 66, 52
15, 55919, Note_on_c, 13, 66, 0
15, 55920, Note_on_c, 13, 65, 52
15, 56039, Note_on_c, 13, 65, 0
15, 56160, Note_on_c, 13, 68, 52
15, 56181, Note_on_c, 13, 68, 0
15, 56190, Note_on_c, 13, 65, 53
15, 56211, Note_on_c, 13, 65, 0
15, 56220, Note_on_c, 13, 64, 54
15, 56241, Note_on_c, 13, 64, 0
15, 56250, Note_on_c, 13, 65, 55
15, 56271, Note_on_c, 13, 65, 0
15, 56280, Note_on_c, 13, 68, 56
15, 56301, Note_on_c, 13, 68, 0
15, 56310, Note_on_c, 13, 65, 57
15, 56331, Note_on_c, 13, 65, 0
15, 56340, Note_on_c, 13, 67, 58
15, 56361, Note_on_c, 13, 67, 0
15, 56370, Note_on_c, 13, 63, 59
15, 56391, Note_on_c, 13, 63, 0
15, 56400, Note_on_c, 13, 65, 60
15, 56421, Note_on_c, 13, 65, 0
15, 56430, Note_on_c, 13, 62, 61
15, 56451, Note_on_c, 13, 62, 0
15, 56460, Note_on_c, 13, 63, 62
15, 56481, Note_on_c, 13, 63, 0
15, 56490, Note_on_c, 13, 60, 63
15, 56511, Note_on_c, 13, 60, 0
15, 56520, Note_on_c, 13, 62, 64
15, 56541, Note_on_c, 13, 62, 0
15, 56550, Note_on_c, 13, 58, 65
15, 56571, Note_on_c, 13, 58, 0
15, 56580, Note_on_c, 13, 63, 66
15, 56601, Note_on_c, 13, 63, 0
15, 56610, Note_on_c, 13, 60, 67
15, 56631, Note_on_c, 13, 60, 0
15, 56640, Note_on_c, 13, 65, 68
15, 56661, Note_on_c, 13, 65, 0
15, 56670, Note_on_c, 13, 62, 69
15, 56691, Note_on_c, 13, 62, 0
15, 56700, Note_on_c, 13, 67, 70
15, 56721, Note_on_c, 13, 67, 0
15, 56730, Note_on_c, 13, 63, 71
15, 56751, Note_on_c, 13, 63, 0
15, 56760, Note_on_c, 13, 68, 72
15, 56781, Note_on_c, 13, 68, 0
15, 56790, Note_on_c, 13, 65, 73
15, 56811, Note_on_c, 13, 65, 0
15, 56820, Note_on_c, 13, 70, 74
15, 56841, Note_on_c, 13, 70, 0
15, 56850, Note_on_c, 13, 67, 75
15, 56871, Note_on_c, 13, 67, 0
15, 56880, Note_on_c, 13, 72, 76
15, 56901, Note_on_c, 13, 72, 0
15, 56910, Note_on_c, 13, 68, 76
15, 56931, Note_on_c, 13, 68, 0
15, 56940, Note_on_c, 13, 65, 76
15, 56961, Note_on_c, 13, 65, 0
15, 56970, Note_on_c, 13, 67, 76
15, 56991, Note_on_c, 13, 67, 0
15, 57000, Note_on_c, 13, 68, 76
15, 57021, Note_on_c, 13, 68, 0
15, 57030, Note_on_c, 13, 65, 76
15, 57051, Note_on_c, 13, 65, 0
15, 57060, Note_on_c, 13, 62, 76
15, 57081, Note_on_c, 13, 62, 0
15, 57090, Note_on_c, 13, 63, 76
15, 57111, Note_on_c, 13, 63, 0
15, 57120, Note_on_c, 13, 65, 76
15, 57141, Note_on_c, 13, 65, 0
15, 57150, Note_on_c, 13, 62, 76
15, 57171, Note_on_c, 13, 62, 0
15, 57180, Note_on_c, 13, 56, 76
15, 57201, Note_on_c, 13, 56, 0
15, 57210, Note_on_c, 13, 58, 76
15, 57231, Note_on_c, 13, 58, 0
15, 57240, Note_on_c, 13, 60, 76
15, 57261, Note_on_c, 13, 60, 0
15, 57270, Note_on_c, 13, 58, 76
15, 57291, Note_on_c, 13, 58, 0
15, 57300, Note_on_c, 13, 56, 76
15, 57321, Note_on_c, 13, 56, 0
15, 57330, Note_on_c, 13, 55, 76
15, 57351, Note_on_c, 13, 55, 0
15, 57360, Note_on_c, 13, 53, 76
15, 57381, Note_on_c, 13, 53, 0
15, 57390, Note_on_c, 13, 51, 72
15, 57411, Note_on_c, 13, 51, 0
15, 57420, Note_on_c, 13, 50, 68
15, 57441, Note_on_c, 13, 50, 0
15, 57450, Note_on_c, 13, 60, 64
15, 57471, Note_on_c, 13, 60, 0
15, 57480, Note_on_c, 13, 58, 60
15, 57501, Note_on_c, 13, 58, 0
15, 57510, Note_on_c, 13, 58, 56
15, 57531, Note_on_c, 13, 58, 0
15, 57540, Note_on_c, 13, 56, 52
15, 57561, Note_on_c, 13, 56, 0
15, 57570, Note_on_c, 13, 53, 48
15, 57591, Note_on_c, 13, 53, 0
15, 57600, Note_on_c, 13, 51, 44
15, 57719, Note_on_c, 13, 51, 0
15, 57880, Note_on_c, 13, 53, 44
15, 57919, Note_on_c, 13, 53, 0
15, 57920, Note_on_c, 13, 56, 44
15, 57959, Note_on_c, 13, 56, 0
15, 57960, Note_on_c, 13, 59, 44
15, 57999, Note_on_c, 13, 59, 0
15, 58000, Note_on_c, 13, 62, 44
15, 58039, Note_on_c, 13, 62, 0
15, 58040, Note_on_c, 13, 65, 44
15, 58075, Note_on_c, 13, 65, 0
15, 58080, Note_on_c, 13, 68, 44
15, 58319, Note_on_c, 13, 68, 0
15, 58320, Note_on_c, 13, 68, 44
15, 59031, Note_on_c, 13, 68, 0
15, 59040, Note_on_c, 13, 67, 44
15, 59159, Note_on_c, 13, 67, 0
15, 60480, Program_c, 13, 45
15, 60600, Note_on_c, 13, 75, 45
15, 60719, Note_on_c, 13, 75, 0
15, 60720, Note_on_c, 13, 70, 47
15, 60839, Note_on_c, 13, 70, 0
15, 60840, Note_on_c, 13, 67, 49
15, 60959, Note_on_c, 13, 67, 0
15, 60960, Note_on_c, 13, 63, 50
15, 61079, Note_on_c, 13, 63, 0
15, 61080, Note_on_c, 13, 58, 52
15, 61199, Note_on_c, 13, 58, 0
15, 61200, Note_on_c, 13, 56, 48
15, 61319, Note_on_c, 13, 56, 0
15, 61320, Note_on_c, 13, 60, 48
15, 61439, Note_on_c, 13, 60, 0
15, 61440, Note_on_c, 13, 58, 48
15, 61559, Note_on_c, 13, 58, 0
15, 61560, Note_on_c, 13, 63, 48
15, 61679, Note_on_c, 13, 63, 0
15, 61680, Note_on_c, 13, 58, 48
15, 61799, Note_on_c, 13, 58, 0
15, 61800, Note_on_c, 13, 62, 48
15, 61919, Note_on_c, 13, 62, 0
15, 62160, Program_c, 13, 48
15, 62320, Note_on_c, 13, 55, 65
15, 62320, Note_on_c, 13, 52, 65
15, 62359, Note_on_c, 13, 55, 0
15, 62359, Note_on_c, 13, 52, 0
15, 62360, Note_on_c, 13, 58, 66
15, 62360, Note_on_c, 13, 55, 66
15, 62399, Note_on_c, 13, 58, 0
15, 62399, Note_on_c, 13, 55, 0
15, 62440, Note_on_c, 13, 58, 69
15, 62440, Note_on_c, 13, 55, 69
15, 62479, Note_on_c, 13, 58, 0
15, 62479, Note_on_c, 13, 55, 0
15, 62480, Note_on_c, 13, 64, 70
15, 62480, Note_on_c, 13, 58, 70
15, 62519, Note_on_c, 13, 64, 0
15, 62519, Note_on_c, 13, 58, 0
15, 62560, Note_on_c, 13, 64, 73
15, 62560, Note_on_c, 13, 58, 73
15, 62599, Note_on_c, 13, 64, 0
15, 62599, Note_on_c, 13, 58, 0
15, 62600, Note_on_c, 13, 67, 74
15, 62600, Note_on_c, 13, 64, 74
15, 62639, Note_on_c, 13, 67, 0
15, 62639, Note_on_c, 13, 64, 0
15, 62680, Note_on_c, 13, 67, 76
15, 62680, Note_on_c, 13, 64, 76
15, 62719, Note_on_c, 13, 67, 0
15, 62719, Note_on_c, 13, 64, 0
15, 62720, Note_on_c, 13, 70, 76
15, 62720, Note_on_c, 13, 67, 76
15, 62759, Note_on_c, 13, 70, 0
15, 62759, Note_on_c, 13, 67, 0
15, 62800, Note_on_c, 13, 67, 76
15, 62800, Note_on_c, 13, 64, 76
15, 62839, Note_on_c, 13, 67, 0
15, 62839, Note_on_c, 13, 64, 0
15, 62840, Note_on_c, 13, 70, 76
15, 62840, Note_on_c, 13, 67, 76
15, 62879, Note_on_c, 13, 70, 0
15, 62879, Note_on_c, 13, 67, 0
15, 62920, Note_on_c, 13, 65, 76
15, 62920, Note_on_c, 13, 68, 76
15, 62959, Note_on_c, 13, 65, 0
15, 62959, Note_on_c, 13, 68, 0
15, 62960, Note_on_c, 13, 67, 76
15, 62960, Note_on_c, 13, 64, 76
15, 62999, Note_on_c, 13, 67, 0
15, 62999, Note_on_c, 13, 64, 0
15, 63000, Note_on_c, 13, 68, 76
15, 63000, Note_on_c, 13, 65, 76
15, 63039, Note_on_c, 13, 68, 0
15, 63039, Note_on_c, 13, 65, 0
15, 63040, Note_on_c, 13, 70, 76
15, 63040, Note_on_c, 13, 67, 76
15, 63079, Note_on_c, 13, 70, 0
15, 63079, Note_on_c, 13, 67, 0
15, 63080, Note_on_c, 13, 72, 76
15, 63080, Note_on_c, 13, 68, 76
15, 63119, Note_on_c, 13, 72, 0
15, 63119, Note_on_c, 13, 68, 0
15, 63160, Note_on_c, 13, 63, 76
15, 63160, Note_on_c, 13, 58, 76
15, 63199, Note_on_c, 13, 63, 0
15, 63199, Note_on_c, 13, 58, 0
15, 63200, Note_on_c, 13, 67, 76
15, 63200, Note_on_c, 13, 63, 76
15, 63239, Note_on_c, 13, 67, 0
15, 63239, Note_on_c, 13, 63, 0
15, 63280, Note_on_c, 13, 62, 76
15, 63280, Note_on_c, 13, 53, 76
15, 63319, Note_on_c, 13, 62, 0
15, 63319, Note_on_c, 13, 53, 0
15, 63320, Note_on_c, 13, 65, 76
15, 63320, Note_on_c, 13, 56, 76
15, 63359, Note_on_c, 13, 65, 0
15, 63359, Note_on_c, 13, 56, 0
15, 63360, Note_on_c, 13, 63, 52
15, 63360, Note_on_c, 13, 55, 52
15, 63479, Note_on_c, 13, 63, 0
15, 63479, Note_on_c, 13, 55, 0
15, 64080, Note_on_c, 13, 68, 52
15, 64109, Note_on_c, 13, 68, 0
15, 64110, Note_on_c, 13, 70, 52
15, 64139, Note_on_c, 13, 70, 0
15, 64140, Note_on_c, 13, 68, 52
15, 64169, Note_on_c, 13, 68, 0
15, 64170, Note_on_c, 13, 67, 52
15, 64199, Note_on_c, 13, 67, 0
15, 64200, Note_on_c, 13, 68, 52
15, 64229, Note_on_c, 13, 68, 0
15, 64230, Note_on_c, 13, 70, 52
15, 64259, Note_on_c, 13, 70, 0
15, 64260, Note_on_c, 13, 72, 52
15, 64289, Note_on_c, 13, 72, 0
15, 64290, Note_on_c, 13, 70, 52
15, 64319, Note_on_c, 13, 70, 0
15, 64320, Note_on_c, 13, 68, 52
15, 64349, Note_on_c, 13, 68, 0
15, 64350, Note_on_c, 13, 70, 52
15, 64379, Note_on_c, 13, 70, 0
15, 64380, Note_on_c, 13, 72, 52
15, 64409, Note_on_c, 13, 72, 0
15, 64410, Note_on_c, 13, 68, 52
15, 64439, Note_on_c, 13, 68, 0
15, 64440, Note_on_c, 13, 65, 52
15, 64469, Note_on_c, 13, 65, 0
15, 64470, Note_on_c, 13, 67, 52
15, 64499, Note_on_c, 13, 67, 0
15, 64500, Note_on_c, 13, 68, 52
15, 64529, Note_on_c, 13, 68, 0
15, 64530, Note_on_c, 13, 65, 52
15, 64559, Note_on_c, 13, 65, 0
15, 64560, Note_on_c, 13, 62, 52
15, 64589, Note_on_c, 13, 62, 0
15, 64590, Note_on_c, 13, 63, 52
15, 64619, Note_on_c, 13, 63, 0
15, 64620, Note_on_c, 13, 65, 52
15, 64649, Note_on_c, 13, 65, 0
15, 64650, Note_on_c, 13, 62, 52
15, 64679, Note_on_c, 13, 62, 0
15, 64680, Note_on_c, 13, 58, 52
15, 64709, Note_on_c, 13, 58, 0
15, 64710, Note_on_c, 13, 60, 52
15, 64739, Note_on_c, 13, 60, 0
15, 64740, Note_on_c, 13, 62, 52
15, 64769, Note_on_c, 13, 62, 0
15, 64770, Note_on_c, 13, 58, 52
15, 64799, Note_on_c, 13, 58, 0
15, 67440, Note_on_c, 13, 55, 46
15, 67469, Note_on_c, 13, 55, 0
15, 67470, Note_on_c, 13, 57, 46
15, 67499, Note_on_c, 13, 57, 0
15, 67500, Note_on_c, 13, 55, 45
15, 67529, Note_on_c, 13, 55, 0
15, 67530, Note_on_c, 13, 53, 45
15, 67559, Note_on_c, 13, 53, 0
15, 67560, Note_on_c, 13, 55, 45
15, 67589, Note_on_c, 13, 55, 0
15, 67590, Note_on_c, 13, 57, 45
15, 67619, Note_on_c, 13, 57, 0
15, 67620, Note_on_c, 13, 58, 45
15, 67649, Note_on_c, 13, 58, 0
15, 67650, Note_on_c, 13, 55, 45
15, 67675, Note_on_c, 13, 55, 0
15, 67680, Note_on_c, 13, 51, 44
15, 67799, Note_on_c, 13, 51, 0
15, 68160, Program_c, 13, 45
15, 68400, Note_on_c, 13, 51, 44
15, 68519, Note_on_c, 13, 51, 0
15, 68880, Note_on_c, 13, 63, 44
15, 68999, Note_on_c, 13, 63, 0
15, 69120, Note_on_c, 13, 62, 44
15, 69359, Note_on_c, 13, 62, 0
15, 69480, Note_on_c, 13, 58, 44
15, 69599, Note_on_c, 13, 58, 0
15, 69600, Note_on_c, 13, 58, 44
15, 69719, Note_on_c, 13, 58, 0
15, 69720, Note_on_c, 13, 56, 44
15, 69839, Note_on_c, 13, 56, 0
15, 69840, Note_on_c, 13, 58, 44
15, 69959, Note_on_c, 13, 58, 0
15, 71280, Program_c, 13, 48
15, 71520, Note_on_c, 13, 63, 52
15, 71541, Note_on_c, 13, 63, 0
15, 71550, Note_on_c, 13, 62, 53
15, 71571, Note_on_c, 13, 62, 0
15, 71580, Note_on_c, 13, 60, 54
15, 71601, Note_on_c, 13, 60, 0
15, 71610, Note_on_c, 13, 58, 56
15, 71631, Note_on_c, 13, 58, 0
15, 71640, Note_on_c, 13, 56, 57
15, 71661, Note_on_c, 13, 56, 0
15, 71670, Note_on_c, 13, 55, 58
15, 71691, Note_on_c, 13, 55, 0
15, 71700, Note_on_c, 13, 53, 60
15, 71721, Note_on_c, 13, 53, 0
15, 71730, Note_on_c, 13, 51, 61
15, 71751, Note_on_c, 13, 51, 0
15, 71760, Note_on_c, 13, 50, 62
15, 71781, Note_on_c, 13, 50, 0
15, 71790, Note_on_c, 13, 60, 64
15, 71811, Note_on_c, 13, 60, 0
15, 71820, Note_on_c, 13, 58, 65
15, 71841, Note_on_c, 13, 58, 0
15, 71850, Note_on_c, 13, 56, 66
15, 71871, Note_on_c, 13, 56, 0
15, 71880, Note_on_c, 13, 55, 68
15, 71901, Note_on_c, 13, 55, 0
15, 71910, Note_on_c, 13, 53, 69
15, 71931, Note_on_c, 13, 53, 0
15, 71940, Note_on_c, 13, 51, 70
15, 71961, Note_on_c, 13, 51, 0
15, 71970, Note_on_c, 13, 50, 72
15, 71991, Note_on_c, 13, 50, 0
15, 72000, Note_on_c, 13, 48, 73
15, 72021, Note_on_c, 13, 48, 0
15, 72030, Note_on_c, 13, 50, 74
15, 72051, Note_on_c, 13, 50, 0
15, 72060, Note_on_c, 13, 51, 76
15, 72081, Note_on_c, 13, 51, 0
15, 72090, Note_on_c, 13, 53, 77
15, 72111, Note_on_c, 13, 53, 0
15, 72120, Note_on_c, 13, 55, 78
15, 72141, Note_on_c, 13, 55, 0
15, 72150, Note_on_c, 13, 56, 80
15, 72171, Note_on_c, 13, 56, 0
15, 72180, Note_on_c, 13, 58, 81
15, 72201, Note_on_c, 13, 58, 0
15, 72210, Note_on_c, 13, 60, 82
15, 72231, Note_on_c, 13, 60, 0
15, 72240, Note_on_c, 13, 62, 84
15, 72261, Note_on_c, 13, 62, 0
15, 72270, Note_on_c, 13, 63, 84
15, 72291, Note_on_c, 13, 63, 0
15, 72300, Note_on_c, 13, 65, 84
15, 72321, Note_on_c, 13, 65, 0
15, 72330, Note_on_c, 13, 67, 84
15, 72351, Note_on_c, 13, 67, 0
15, 72360, Note_on_c, 13, 68, 84
15, 72381, Note_on_c, 13, 68, 0
15, 72390, Note_on_c, 13, 70, 84
15, 72411, Note_on_c, 13, 70, 0
15, 72420, Note_on_c, 13, 72, 84
15, 72441, Note_on_c, 13, 72, 0
15, 72450, Note_on_c, 13, 74, 84
15, 72471, Note_on_c, 13, 74, 0
15, 72480, Note_on_c, 13, 75, 84
15, 72599, Note_on_c, 13, 75, 0
15, 73200, Program_c, 13, 45
15, 73440, Note_on_c, 13, 58, 60
15, 73559, Note_on_c, 13, 58, 0
15, 73680, Note_on_c, 13, 58, 60
15, 73799, Note_on_c, 13, 58, 0
15, 73918, Program_c, 13, 45
15, 73920, Note_on_c, 13, 58, 84
15, 74039, Note_on_c, 13, 58, 0
15, 74160, Note_on_c, 13, 51, 84
15, 74279, Note_on_c, 13, 51, 0
15, 74279, End_track
16, 0, Start_track
16, 0, Title_t, "Cello"
16, 0, MIDI_port, 0
16, 0, Program_c, 14, 48
16, 0, Control_c, 14, 7, 96
16, 0, Control_c, 14, 10, 90
16, 0, Control_c, 14, 11, 127
16, 0, Note_on_c, 14, 51, 52
16, 119, Note_on_c, 14, 51, 0
16, 720, Note_on_c, 14, 51, 52
16, 1439, Note_on_c, 14, 51, 0
16, 1440, Note_on_c, 14, 51, 52
16, 2039, Note_on_c, 14, 51, 0
16, 2040, Note_on_c, 14, 44, 52
16, 2151, Note_on_c, 14, 44, 0
16, 2160, Note_on_c, 14, 46, 52
16, 2751, Note_on_c, 14, 46, 0
16, 2760, Note_on_c, 14, 46, 52
16, 2871, Note_on_c, 14, 46, 0
16, 2880, Note_on_c, 14, 46, 52
16, 2991, Note_on_c, 14, 46, 0
16, 3000, Note_on_c, 14, 46, 56
16, 3111, Note_on_c, 14, 46, 0
16, 3120, Note_on_c, 14, 46, 60
16, 3231, Note_on_c, 14, 46, 0
16, 3240, Note_on_c, 14, 46, 64
16, 3351, Note_on_c, 14, 46, 0
16, 3360, Note_on_c, 14, 43, 76
16, 3471, Note_on_c, 14, 43, 0
16, 3480, Note_on_c, 14, 43, 68
16, 3591, Note_on_c, 14, 43, 0
16, 3600, Note_on_c, 14, 44, 52
16, 3659, Note_on_c, 14, 44, 0
16, 3720, Note_on_c, 14, 44, 52
16, 3779, Note_on_c, 14, 44, 0
16, 3840, Note_on_c, 14, 44, 52
16, 3899, Note_on_c, 14, 44, 0
16, 3960, Note_on_c, 14, 44, 52
16, 4019, Note_on_c, 14, 44, 0
16, 4080, Note_on_c, 14, 44, 52
16, 4199, Note_on_c, 14, 44, 0
16, 4320, Note_on_c, 14, 46, 52
16, 4431, Note_on_c, 14, 46, 0
16, 4440, Note_on_c, 14, 46, 52
16, 4551, Note_on_c, 14, 46, 0
16, 4560, Note_on_c, 14, 46, 52
16, 4679, Note_on_c, 14, 46, 0
16, 4680, Note_on_c, 14, 48, 52
16, 4799, Note_on_c, 14, 48, 0
16, 4800, Note_on_c, 14, 44, 52
16, 4919, Note_on_c, 14, 44, 0
16, 4920, Note_on_c, 14, 41, 52
16, 5031, Note_on_c, 14, 41, 0
16, 5040, Note_on_c, 14, 46, 52
16, 5151, Note_on_c, 14, 46, 0
16, 5160, Note_on_c, 14, 46, 56
16, 5271, Note_on_c, 14, 46, 0
16, 5280, Note_on_c, 14, 46, 60
16, 5391, Note_on_c, 14, 46, 0
16, 5400, Note_on_c, 14, 46, 64
16, 5511, Note_on_c, 14, 46, 0
16, 5520, Note_on_c, 14, 46, 68
16, 5631, Note_on_c, 14, 46, 0
16, 5640, Note_on_c, 14, 46, 72
16, 5751, Note_on_c, 14, 46, 0
16, 5760, Note_on_c, 14, 51, 76
16, 5804, Note_on_c, 14, 51, 0
16, 5850, Note_on_c, 14, 46, 76
16, 5871, Note_on_c, 14, 46, 0
16, 5880, Note_on_c, 14, 51, 76
16, 5924, Note_on_c, 14, 51, 0
16, 5970, Note_on_c, 14, 46, 76
16, 5991, Note_on_c, 14, 46, 0
16, 6000, Note_on_c, 14, 51, 76
16, 6044, Note_on_c, 14, 51, 0
16, 6090, Note_on_c, 14, 46, 76
16, 6111, Note_on_c, 14, 46, 0
16, 6120, Note_on_c, 14, 51, 76
16, 6164, Note_on_c, 14, 51, 0
16, 6210, Note_on_c, 14, 46, 76
16, 6231, Note_on_c, 14, 46, 0
16, 6240, Note_on_c, 14, 51, 76
16, 6284, Note_on_c, 14, 51, 0
16, 6330, Note_on_c, 14, 46, 76
16, 6351, Note_on_c, 14, 46, 0
16, 6360, Note_on_c, 14, 51, 76
16, 6404, Note_on_c, 14, 51, 0
16, 6450, Note_on_c, 14, 46, 76
16, 6471, Note_on_c, 14, 46, 0
16, 6480, Note_on_c, 14, 51, 52
16, 6599, Note_on_c, 14, 51, 0
16, 6718, Program_c, 14, 45
16, 6720, Note_on_c, 14, 51, 48
16, 6839, Note_on_c, 14, 51, 0
16, 6840, Note_on_c, 14, 51, 48
16, 6959, Note_on_c, 14, 51, 0
16, 6960, Note_on_c, 14, 51, 48
16, 7079, Note_on_c, 14, 51, 0
16, 7080, Note_on_c, 14, 51, 48
16, 7199, Note_on_c, 14, 51, 0
16, 7200, Note_on_c, 14, 51, 48
16, 7319, Note_on_c, 14, 51, 0
16, 7320, Note_on_c, 14, 51, 48
16, 7439, Note_on_c, 14, 51, 0
16, 7440, Note_on_c, 14, 51, 48
16, 7559, Note_on_c, 14, 51, 0
16, 7560, Note_on_c, 14, 51, 48
16, 7679, Note_on_c, 14, 51, 0
16, 7680, Note_on_c, 14, 51, 48
16, 7799, Note_on_c, 14, 51, 0
16, 7800, Note_on_c, 14, 44, 48
16, 7919, Note_on_c, 14, 44, 0
16, 7920, Note_on_c, 14, 46, 48
16, 8039, Note_on_c, 14, 46, 0
16, 8040, Note_on_c, 14, 46, 48
16, 8159, Note_on_c, 14, 46, 0
16, 8160, Note_on_c, 14, 46, 48
16, 8279, Note_on_c, 14, 46, 0
16, 8280, Note_on_c, 14, 46, 48
16, 8399, Note_on_c, 14, 46, 0
16, 8400, Note_on_c, 14, 46, 48
16, 8519, Note_on_c, 14, 46, 0
16, 8520, Note_on_c, 14, 46, 48
16, 8639, Note_on_c, 14, 46, 0
16, 8640, Note_on_c, 14, 46, 48
16, 8759, Note_on_c, 14, 46, 0
16, 8760, Note_on_c, 14, 46, 51
16, 8879, Note_on_c, 14, 46, 0
16, 8880, Note_on_c, 14, 46, 54
16, 8999, Note_on_c, 14, 46, 0
16, 9000, Note_on_c, 14, 46, 57
16, 9119, Note_on_c, 14, 46, 0
16, 9120, Note_on_c, 14, 43, 68
16, 9239, Note_on_c, 14, 43, 0
16, 9240, Note_on_c, 14, 43, 48
16, 9359, Note_on_c, 14, 43, 0
16, 9360, Note_on_c, 14, 44, 48
16, 9479, Note_on_c, 14, 44, 0
16, 9480, Note_on_c, 14, 44, 48
16, 9599, Note_on_c, 14, 44, 0
16, 9600, Note_on_c, 14, 44, 48
16, 9719, Note_on_c, 14, 44, 0
16, 9720, Note_on_c, 14, 44, 48
16, 9839, Note_on_c, 14, 44, 0
16, 9840, Note_on_c, 14, 44, 48
16, 9959, Note_on_c, 14, 44, 0
16, 10080, Note_on_c, 14, 46, 48
16, 10199, Note_on_c, 14, 46, 0
16, 10200, Note_on_c, 14, 46, 48
16, 10319, Note_on_c, 14, 46, 0
16, 10320, Note_on_c, 14, 46, 48
16, 10439, Note_on_c, 14, 46, 0
16, 10440, Note_on_c, 14, 48, 48
16, 10559, Note_on_c, 14, 48, 0
16, 10560, Note_on_c, 14, 44, 48
16, 10679, Note_on_c, 14, 44, 0
16, 10680, Note_on_c, 14, 41, 48
16, 10799, Note_on_c, 14, 41, 0
16, 10800, Note_on_c, 14, 46, 48
16, 10919, Note_on_c, 14, 46, 0
16, 10920, Note_on_c, 14, 46, 51
16, 11039, Note_on_c, 14, 46, 0
16, 11040, Note_on_c, 14, 46, 54
16, 11159, Note_on_c, 14, 46, 0
16, 11160, Note_on_c, 14, 46, 58
16, 11279, Note_on_c, 14, 46, 0
16, 11280, Note_on_c, 14, 46, 61
16, 11399, Note_on_c, 14, 46, 0
16, 11400, Note_on_c, 14, 46, 64
16, 11504, Note_on_c, 14, 46, 0
16, 11518, Program_c, 14, 48
16, 11520, Note_on_c, 14, 51, 76
16, 11549, Note_on_c, 14, 51, 0
16, 11550, Note_on_c, 14, 46, 76
16, 11579, Note_on_c, 14, 46, 0
16, 11580, Note_on_c, 14, 43, 76
16, 11609, Note_on_c, 14, 43, 0
16, 11610, Note_on_c, 14, 46, 76
16, 11639, Note_on_c, 14, 46, 0
16, 11640, Note_on_c, 14, 51, 84
16, 11669, Note_on_c, 14, 51, 0
16, 11670, Note_on_c, 14, 55, 76
16, 11699, Note_on_c, 14, 55, 0
16, 11700, Note_on_c, 14, 51, 76
16, 11729, Note_on_c, 14, 51, 0
16, 11730, Note_on_c, 14, 46, 76
16, 11759, Note_on_c, 14, 46, 0
16, 11790, Note_on_c, 14, 46, 76
16, 11819, Note_on_c, 14, 46, 0
16, 11820, Note_on_c, 14, 43, 76
16, 11849, Note_on_c, 14, 43, 0
16, 11850, Note_on_c, 14, 46, 76
16, 11879, Note_on_c, 14, 46, 0
16, 11880, Note_on_c, 14, 51, 84
16, 11909, Note_on_c, 14, 51, 0
16, 11910, Note_on_c, 14, 55, 76
16, 11939, Note_on_c, 14, 55, 0
16, 11940, Note_on_c, 14, 51, 76
16, 11969, Note_on_c, 14, 51, 0
16, 11970, Note_on_c, 14, 46, 76
16, 11999, Note_on_c, 14, 46, 0
16, 12030, Note_on_c, 14, 46, 76
16, 12059, Note_on_c, 14, 46, 0
16, 12060, Note_on_c, 14, 43, 76
16, 12089, Note_on_c, 14, 43, 0
16, 12090, Note_on_c, 14, 46, 76
16, 12119, Note_on_c, 14, 46, 0
16, 12120, Note_on_c, 14, 51, 84
16, 12149, Note_on_c, 14, 51, 0
16, 12150, Note_on_c, 14, 55, 76
16, 12179, Note_on_c, 14, 55, 0
16, 12180, Note_on_c, 14, 51, 76
16, 12209, Note_on_c, 14, 51, 0
16, 12210, Note_on_c, 14, 46, 76
16, 12235, Note_on_c, 14, 46, 0
16, 12240, Note_on_c, 14, 51, 76
16, 12299, Note_on_c, 14, 51, 0
16, 12300, Note_on_c, 14, 51, 52
16, 12351, Note_on_c, 14, 51, 0
16, 12360, Note_on_c, 14, 51, 52
16, 12471, Note_on_c, 14, 51, 0
16, 12480, Note_on_c, 14, 51, 52
16, 12591, Note_on_c, 14, 51, 0
16, 12600, Note_on_c, 14, 51, 52
16, 12711, Note_on_c, 14, 51, 0
16, 12720, Note_on_c, 14, 51, 52
16, 12831, Note_on_c, 14, 51, 0
16, 12840, Note_on_c, 14, 51, 52
16, 12951, Note_on_c, 14, 51, 0
16, 12960, Note_on_c, 14, 51, 76
16, 12989, Note_on_c, 14, 51, 0
16, 12990, Note_on_c, 14, 46, 76
16, 13019, Note_on_c, 14, 46, 0
16, 13020, Note_on_c, 14, 43, 76
16, 13049, Note_on_c, 14, 43, 0
16, 13050, Note_on_c, 14, 46, 76
16, 13079, Note_on_c, 14, 46, 0
16, 13080, Note_on_c, 14, 51, 84
16, 13109, Note_on_c, 14, 51, 0
16, 13110, Note_on_c, 14, 55, 76
16, 13139, Note_on_c, 14, 55, 0
16, 13140, Note_on_c, 14, 51, 76
16, 13169, Note_on_c, 14, 51, 0
16, 13170, Note_on_c, 14, 46, 76
16, 13199, Note_on_c, 14, 46, 0
16, 13230, Note_on_c, 14, 46, 76
16, 13259, Note_on_c, 14, 46, 0
16, 13260, Note_on_c, 14, 43, 76
16, 13289, Note_on_c, 14, 43, 0
16, 13290, Note_on_c, 14, 46, 76
16, 13319, Note_on_c, 14, 46, 0
16, 13320, Note_on_c, 14, 51, 84
16, 13349, Note_on_c, 14, 51, 0
16, 13350, Note_on_c, 14, 55, 76
16, 13379, Note_on_c, 14, 55, 0
16, 13380, Note_on_c, 14, 51, 76
16, 13409, Note_on_c, 14, 51, 0
16, 13410, Note_on_c, 14, 46, 76
16, 13439, Note_on_c, 14, 46, 0
16, 13470, Note_on_c, 14, 46, 76
16, 13499, Note_on_c, 14, 46, 0
16, 13500, Note_on_c, 14, 43, 76
16, 13529, Note_on_c, 14, 43, 0
16, 13530, Note_on_c, 14, 46, 76
16, 13559, Note_on_c, 14, 46, 0
16, 13560, Note_on_c, 14, 51, 84
16, 13589, Note_on_c, 14, 51, 0
16, 13590, Note_on_c, 14, 55, 76
16, 13619, Note_on_c, 14, 55, 0
16, 13620, Note_on_c, 14, 51, 76
16, 13649, Note_on_c, 14, 51, 0
16, 13650, Note_on_c, 14, 46, 76
16, 13675, Note_on_c, 14, 46, 0
16, 13680, Note_on_c, 14, 43, 76
16, 13739, Note_on_c, 14, 43, 0
16, 13740, Note_on_c, 14, 43, 52
16, 13791, Note_on_c, 14, 43, 0
16, 13800, Note_on_c, 14, 43, 52
16, 13911, Note_on_c, 14, 43, 0
16, 13920, Note_on_c, 14, 43, 52
16, 14031, Note_on_c, 14, 43, 0
16, 14040, Note_on_c, 14, 43, 52
16, 14151, Note_on_c, 14, 43, 0
16, 14160, Note_on_c, 14, 43, 52
16, 14271, Note_on_c, 14, 43, 0
16, 14280, Note_on_c, 14, 43, 52
16, 14391, Note_on_c, 14, 43, 0
16, 14430, Note_on_c, 14, 48, 76
16, 14459, Note_on_c, 14, 48, 0
16, 14460, Note_on_c, 14, 43, 76
16, 14489, Note_on_c, 14, 43, 0
16, 14490, Note_on_c, 14, 48, 76
16, 14519, Note_on_c, 14, 48, 0
16, 14520, Note_on_c, 14, 51, 84
16, 14549, Note_on_c, 14, 51, 0
16, 14550, Note_on_c, 14, 55, 76
16, 14579, Note_on_c, 14, 55, 0
16, 14580, Note_on_c, 14, 51, 76
16, 14609, Note_on_c, 14, 51, 0
16, 14610, Note_on_c, 14, 48, 76
16, 14639, Note_on_c, 14, 48, 0
16, 14670, Note_on_c, 14, 48, 76
16, 14699, Note_on_c, 14, 48, 0
16, 14700, Note_on_c, 14, 43, 76
16, 14729, Note_on_c, 14, 43, 0
16, 14730, Note_on_c, 14, 48, 76
16, 14759, Note_on_c, 14, 48, 0
16, 14760, Note_on_c, 14, 51, 84
16, 14789, Note_on_c, 14, 51, 0
16, 14790, Note_on_c, 14, 55, 76
16, 14819, Note_on_c, 14, 55, 0
16, 14820, Note_on_c, 14, 51, 76
16, 14849, Note_on_c, 14, 51, 0
16, 14850, Note_on_c, 14, 48, 76
16, 14879, Note_on_c, 14, 48, 0
16, 14910, Note_on_c, 14, 48, 76
16, 14939, Note_on_c, 14, 48, 0
16, 14940, Note_on_c, 14, 43, 76
16, 14969, Note_on_c, 14, 43, 0
16, 14970, Note_on_c, 14, 48, 76
16, 14999, Note_on_c, 14, 48, 0
16, 15000, Note_on_c, 14, 51, 84
16, 15029, Note_on_c, 14, 51, 0
16, 15030, Note_on_c, 14, 55, 76
16, 15059, Note_on_c, 14, 55, 0
16, 15060, Note_on_c, 14, 51, 76
16, 15089, Note_on_c, 14, 51, 0
16, 15090, Note_on_c, 14, 48, 76
16, 15115, Note_on_c, 14, 48, 0
16, 15120, Note_on_c, 14, 41, 76
16, 15179, Note_on_c, 14, 41, 0
16, 15180, Note_on_c, 14, 41, 52
16, 15831, Note_on_c, 14, 41, 0
16, 15840, Note_on_c, 14, 53, 76
16, 15899, Note_on_c, 14, 53, 0
16, 15900, Note_on_c, 14, 53, 52
16, 16019, Note_on_c, 14, 53, 0
16, 16020, Note_on_c, 14, 55, 52
16, 16079, Note_on_c, 14, 55, 0
16, 16080, Note_on_c, 14, 57, 52
16, 16139, Note_on_c, 14, 57, 0
16, 16140, Note_on_c, 14, 58, 52
16, 16199, Note_on_c, 14, 58, 0
16, 16200, Note_on_c, 14, 60, 52
16, 16259, Note_on_c, 14, 60, 0
16, 16260, Note_on_c, 14, 61, 52
16, 16319, Note_on_c, 14, 61, 0
16, 16320, Note_on_c, 14, 60, 52
16, 16439, Note_on_c, 14, 60, 0
16, 16560, Note_on_c, 14, 63, 52
16, 16581, Note_on_c, 14, 63, 0
16, 16590, Note_on_c, 14, 60, 53
16, 16611, Note_on_c, 14, 60, 0
16, 16620, Note_on_c, 14, 59, 54
16, 16641, Note_on_c, 14, 59, 0
16, 16650, Note_on_c, 14, 60, 55
16, 16671, Note_on_c, 14, 60, 0
16, 16680, Note_on_c, 14, 63, 56
16, 16701, Note_on_c, 14, 63, 0
16, 16710, Note_on_c, 14, 60, 57
16, 16731, Note_on_c, 14, 60, 0
16, 16740, Note_on_c, 14, 62, 58
16, 16761, Note_on_c, 14, 62, 0
16, 16770, Note_on_c, 14, 58, 59
16, 16791, Note_on_c, 14, 58, 0
16, 16800, Note_on_c, 14, 60, 60
16, 16821, Note_on_c, 14, 60, 0
16, 16830, Note_on_c, 14, 57, 61
16, 16851, Note_on_c, 14, 57, 0
16, 16860, Note_on_c, 14, 58, 62
16, 16881, Note_on_c, 14, 58, 0
16, 16890, Note_on_c, 14, 55, 63
16, 16911, Note_on_c, 14, 55, 0
16, 16920, Note_on_c, 14, 57, 64
16, 16941, Note_on_c, 14, 57, 0
16, 16950, Note_on_c, 14, 53, 65
16, 16971, Note_on_c, 14, 53, 0
16, 16980, Note_on_c, 14, 58, 66
16, 17001, Note_on_c, 14, 58, 0
16, 17010, Note_on_c, 14, 55, 67
16, 17031, Note_on_c, 14, 55, 0
16, 17040, Note_on_c, 14, 60, 68
16, 17061, Note_on_c, 14, 60, 0
16, 17070, Note_on_c, 14, 57, 69
16, 17091, Note_on_c, 14, 57, 0
16, 17100, Note_on_c, 14, 62, 70
16, 17121, Note_on_c, 14, 62, 0
16, 17130, Note_on_c, 14, 58, 71
16, 17151, Note_on_c, 14, 58, 0
16, 17160, Note_on_c, 14, 63, 72
16, 17181, Note_on_c, 14, 63, 0
16, 17190, Note_on_c, 14, 60, 73
16, 17211, Note_on_c, 14, 60, 0
16, 17220, Note_on_c, 14, 65, 74
16, 17241, Note_on_c, 14, 65, 0
16, 17250, Note_on_c, 14, 62, 75
16, 17271, Note_on_c, 14, 62, 0
16, 17280, Note_on_c, 14, 67, 76
16, 17301, Note_on_c, 14, 67, 0
16, 17310, Note_on_c, 14, 63, 76
16, 17331, Note_on_c, 14, 63, 0
16, 17340, Note_on_c, 14, 60, 76
16, 17361, Note_on_c, 14, 60, 0
16, 17370, Note_on_c, 14, 62, 76
16, 17391, Note_on_c, 14, 62, 0
16, 17400, Note_on_c, 14, 63, 76
16, 17421, Note_on_c, 14, 63, 0
16, 17430, Note_on_c, 14, 60, 76
16, 17451, Note_on_c, 14, 60, 0
16, 17460, Note_on_c, 14, 57, 76
16, 17481, Note_on_c, 14, 57, 0
16, 17490, Note_on_c, 14, 58, 76
16, 17511, Note_on_c, 14, 58, 0
16, 17520, Note_on_c, 14, 60, 76
16, 17541, Note_on_c, 14, 60, 0
16, 17550, Note_on_c, 14, 57, 76
16, 17571, Note_on_c, 14, 57, 0
16, 17580, Note_on_c, 14, 51, 76
16, 17601, Note_on_c, 14, 51, 0
16, 17610, Note_on_c, 14, 53, 76
16, 17631, Note_on_c, 14, 53, 0
16, 17640, Note_on_c, 14, 55, 76
16, 17661, Note_on_c, 14, 55, 0
16, 17670, Note_on_c, 14, 51, 76
16, 17691, Note_on_c, 14, 51, 0
16, 17700, Note_on_c, 14, 48, 76
16, 17721, Note_on_c, 14, 48, 0
16, 17730, Note_on_c, 14, 50, 76
16, 17751, Note_on_c, 14, 50, 0
16, 17760, Note_on_c, 14, 51, 76
16, 17781, Note_on_c, 14, 51, 0
16, 17790, Note_on_c, 14, 50, 72
16, 17811, Note_on_c, 14, 50, 0
16, 17820, Note_on_c, 14, 48, 68
16, 17841, Note_on_c, 14, 48, 0
16, 17850, Note_on_c, 14, 46, 64
16, 17871, Note_on_c, 14, 46, 0
16, 17880, Note_on_c, 14, 45, 60
16, 17901, Note_on_c, 14, 45, 0
16, 17910, Note_on_c, 14, 53, 56
16, 17931, Note_on_c, 14, 53, 0
16, 17940, Note_on_c, 14, 51, 52
16, 17961, Note_on_c, 14, 51, 0
16, 17970, Note_on_c, 14, 48, 48
16, 17991, Note_on_c, 14, 48, 0
16, 18000, Note_on_c, 14, 46, 44
16, 18039, Note_on_c, 14, 46, 0
16, 18040, Note_on_c, 14, 46, 44
16, 18079, Note_on_c, 14, 46, 0
16, 18080, Note_on_c, 14, 50, 44
16, 18119, Note_on_c, 14, 50, 0
16, 18120, Note_on_c, 14, 53, 44
16, 18159, Note_on_c, 14, 53, 0
16, 18160, Note_on_c, 14, 58, 44
16, 18199, Note_on_c, 14, 58, 0
16, 18200, Note_on_c, 14, 62, 44
16, 18235, Note_on_c, 14, 62, 0
16, 18240, Note_on_c, 14, 57, 44
16, 18719, Note_on_c, 14, 57, 0
16, 18720, Note_on_c, 14, 57, 44
16, 19431, Note_on_c, 14, 57, 0
16, 19440, Note_on_c, 14, 58, 44
16, 19559, Note_on_c, 14, 58, 0
16, 21360, Program_c, 14, 45
16, 21480, Note_on_c, 14, 58, 54
16, 21599, Note_on_c, 14, 58, 0
16, 21600, Note_on_c, 14, 51, 48
16, 21719, Note_on_c, 14, 51, 0
16, 21840, Note_on_c, 14, 53, 48
16, 21959, Note_on_c, 14, 53, 0
16, 22080, Note_on_c, 14, 51, 48
16, 22199, Note_on_c, 14, 51, 0
16, 22318, Program_c, 14, 48
16, 22320, Note_on_c, 14, 50, 52
16, 22409, Note_on_c, 14, 50, 0
16, 22440, Note_on_c, 14, 65, 52
16, 22529, Note_on_c, 14, 65, 0
16, 22560, Note_on_c, 14, 62, 56
16, 22649, Note_on_c, 14, 62, 0
16, 22680, Note_on_c, 14, 59, 61
16, 22769, Note_on_c, 14, 59, 0
16, 22800, Note_on_c, 14, 56, 66
16, 22889, Note_on_c, 14, 56, 0
16, 22920, Note_on_c, 14, 53, 71
16, 23009, Note_on_c, 14, 53, 0
16, 23040, Note_on_c, 14, 50, 76
16, 23159, Note_on_c, 14, 50, 0
16, 23160, Note_on_c, 14, 47, 76
16, 23249, Note_on_c, 14, 47, 0
16, 23250, Note_on_c, 14, 44, 76
16, 23279, Note_on_c, 14, 44, 0
16, 23280, Note_on_c, 14, 43, 76
16, 23399, Note_on_c, 14, 43, 0
16, 23400, Note_on_c, 14, 39, 76
16, 23511, Note_on_c, 14, 39, 0
16, 23520, Note_on_c, 14, 41, 76
16, 23631, Note_on_c, 14, 41, 0
16, 23640, Note_on_c, 14, 41, 76
16, 23751, Note_on_c, 14, 41, 0
16, 23760, Note_on_c, 14, 58, 52
16, 23789, Note_on_c, 14, 58, 0
16, 23790, Note_on_c, 14, 60, 52
16, 23819, Note_on_c, 14, 60, 0
16, 23820, Note_on_c, 14, 58, 52
16, 23849, Note_on_c, 14, 58, 0
16, 23850, Note_on_c, 14, 57, 52
16, 23879, Note_on_c, 14, 57, 0
16, 23880, Note_on_c, 14, 58, 52
16, 23909, Note_on_c, 14, 58, 0
16, 23910, Note_on_c, 14, 60, 52
16, 23939, Note_on_c, 14, 60, 0
16, 23940, Note_on_c, 14, 62, 52
16, 23969, Note_on_c, 14, 62, 0
16, 23970, Note_on_c, 14, 60, 52
16, 23999, Note_on_c, 14, 60, 0
16, 24000, Note_on_c, 14, 58, 52
16, 24029, Note_on_c, 14, 58, 0
16, 24030, Note_on_c, 14, 60, 52
16, 24059, Note_on_c, 14, 60, 0
16, 24060, Note_on_c, 14, 62, 52
16, 24089, Note_on_c, 14, 62, 0
16, 24090, Note_on_c, 14, 58, 52
16, 24119, Note_on_c, 14, 58, 0
16, 24120, Note_on_c, 14, 53, 52
16, 24149, Note_on_c, 14, 53, 0
16, 24150, Note_on_c, 14, 57, 52
16, 24179, Note_on_c, 14, 57, 0
16, 24180, Note_on_c, 14, 58, 52
16, 24209, Note_on_c, 14, 58, 0
16, 24210, Note_on_c, 14, 53, 52
16, 24239, Note_on_c, 14, 53, 0
16, 24240, Note_on_c, 14, 50, 52
16, 24269, Note_on_c, 14, 50, 0
16, 24270, Note_on_c, 14, 51, 52
16, 24299, Note_on_c, 14, 51, 0
16, 24300, Note_on_c, 14, 53, 52
16, 24329, Note_on_c, 14, 53, 0
16, 24330, Note_on_c, 14, 50, 52
16, 24359, Note_on_c, 14, 50, 0
16, 24360, Note_on_c, 14, 46, 52
16, 24389, Note_on_c, 14, 46, 0
16, 24390, Note_on_c, 14, 48, 52
16, 24419, Note_on_c, 14, 48, 0
16, 24420, Note_on_c, 14, 50, 52
16, 24449, Note_on_c, 14, 50, 0
16, 24450, Note_on_c, 14, 46, 52
16, 24475, Note_on_c, 14, 46, 0
16, 24480, Note_on_c, 14, 46, 52
16, 24524, Note_on_c, 14, 46, 0
16, 24570, Note_on_c, 14, 41, 52
16, 24591, Note_on_c, 14, 41, 0
16, 24600, Note_on_c, 14, 46, 52
16, 24644, Note_on_c, 14, 46, 0
16, 24690, Note_on_c, 14, 41, 52
16, 24711, Note_on_c, 14, 41, 0
16, 24720, Note_on_c, 14, 46, 52
16, 24764, Note_on_c, 14, 46, 0
16, 24810, Note_on_c, 14, 41, 52
16, 24831, Note_on_c, 14, 41, 0
16, 24840, Note_on_c, 14, 46, 52
16, 24884, Note_on_c, 14, 46, 0
16, 24930, Note_on_c, 14, 41, 52
16, 24951, Note_on_c, 14, 41, 0
16, 24960, Note_on_c, 14, 46, 52
16, 25004, Note_on_c, 14, 46, 0
16, 25050, Note_on_c, 14, 41, 52
16, 25071, Note_on_c, 14, 41, 0
16, 25080, Note_on_c, 14, 46, 52
16, 25124, Note_on_c, 14, 46, 0
16, 25170, Note_on_c, 14, 41, 52
16, 25191, Note_on_c, 14, 41, 0
16, 25200, Note_on_c, 14, 46, 52
16, 25244, Note_on_c, 14, 46, 0
16, 25290, Note_on_c, 14, 41, 52
16, 25311, Note_on_c, 14, 41, 0
16, 25320, Note_on_c, 14, 46, 52
16, 25364, Note_on_c, 14, 46, 0
16, 25410, Note_on_c, 14, 41, 52
16, 25431, Note_on_c, 14, 41, 0
16, 25440, Note_on_c, 14, 46, 52
16, 25484, Note_on_c, 14, 46, 0
16, 25530, Note_on_c, 14, 41, 52
16, 25551, Note_on_c, 14, 41, 0
16, 25560, Note_on_c, 14, 46, 52
16, 25604, Note_on_c, 14, 46, 0
16, 25650, Note_on_c, 14, 41, 52
16, 25671, Note_on_c, 14, 41, 0
16, 25680, Note_on_c, 14, 46, 52
16, 25724, Note_on_c, 14, 46, 0
16, 25770, Note_on_c, 14, 41, 52
16, 25791, Note_on_c, 14, 41, 0
16, 25800, Note_on_c, 14, 46, 52
16, 25844, Note_on_c, 14, 46, 0
16, 25890, Note_on_c, 14, 41, 52
16, 25911, Note_on_c, 14, 41, 0
16, 25920, Note_on_c, 14, 46, 52
16, 25964, Note_on_c, 14, 46, 0
16, 26010, Note_on_c, 14, 41, 52
16, 26031, Note_on_c, 14, 41, 0
16, 26040, Note_on_c, 14, 46, 52
16, 26084, Note_on_c, 14, 46, 0
16, 26130, Note_on_c, 14, 41, 52
16, 26151, Note_on_c, 14, 41, 0
16, 26160, Note_on_c, 14, 46, 52
16, 26204, Note_on_c, 14, 46, 0
16, 26250, Note_on_c, 14, 41, 52
16, 26271, Note_on_c, 14, 41, 0
16, 26280, Note_on_c, 14, 46, 52
16, 26324, Note_on_c, 14, 46, 0
16, 26370, Note_on_c, 14, 41, 52
16, 26391, Note_on_c, 14, 41, 0
16, 26400, Note_on_c, 14, 46, 52
16, 26444, Note_on_c, 14, 46, 0
16, 26490, Note_on_c, 14, 41, 52
16, 26511, Note_on_c, 14, 41, 0
16, 26520, Note_on_c, 14, 46, 52
16, 26564, Note_on_c, 14, 46, 0
16, 26610, Note_on_c, 14, 41, 52
16, 26631, Note_on_c, 14, 41, 0
16, 26640, Note_on_c, 14, 46, 52
16, 26684, Note_on_c, 14, 46, 0
16, 26730, Note_on_c, 14, 46, 54
16, 26751, Note_on_c, 14, 46, 0
16, 26760, Note_on_c, 14, 50, 54
16, 26804, Note_on_c, 14, 50, 0
16, 26850, Note_on_c, 14, 46, 56
16, 26871, Note_on_c, 14, 46, 0
16, 26880, Note_on_c, 14, 53, 57
16, 26924, Note_on_c, 14, 53, 0
16, 26970, Note_on_c, 14, 50, 59
16, 26991, Note_on_c, 14, 50, 0
16, 27000, Note_on_c, 14, 58, 60
16, 27044, Note_on_c, 14, 58, 0
16, 27090, Note_on_c, 14, 53, 62
16, 27111, Note_on_c, 14, 53, 0
16, 27120, Note_on_c, 14, 62, 62
16, 27164, Note_on_c, 14, 62, 0
16, 27210, Note_on_c, 14, 58, 64
16, 27231, Note_on_c, 14, 58, 0
16, 27240, Note_on_c, 14, 65, 65
16, 27284, Note_on_c, 14, 65, 0
16, 27330, Note_on_c, 14, 62, 67
16, 27351, Note_on_c, 14, 62, 0
16, 27358, Control_c, 14, 11, 96
16, 27360, Control_c, 14, 11, 96
16, 27360, Note_on_c, 14, 68, 84
16, 27383, Control_c, 14, 11, 97
16, 27406, Control_c, 14, 11, 98
16, 27430, Control_c, 14, 11, 99
16, 27453, Control_c, 14, 11, 100
16, 27476, Control_c, 14, 11, 101
16, 27499, Control_c, 14, 11, 102
16, 27523, Control_c, 14, 11, 103
16, 27546, Control_c, 14, 11, 104
16, 27569, Control_c, 14, 11, 105
16, 27592, Control_c, 14, 11, 106
16, 27615, Control_c, 14, 11, 107
16, 27639, Control_c, 14, 11, 108
16, 27662, Control_c, 14, 11, 109
16, 27685, Control_c, 14, 11, 110
16, 27708, Control_c, 14, 11, 111
16, 27732, Control_c, 14, 11, 112
16, 27755, Control_c, 14, 11, 113
16, 27778, Control_c, 14, 11, 114
16, 27801, Control_c, 14, 11, 115
16, 27825, Control_c, 14, 11, 116
16, 27848, Control_c, 14, 11, 117
16, 27871, Control_c, 14, 11, 118
16, 27894, Control_c, 14, 11, 119
16, 27917, Control_c, 14, 11, 120
16, 27941, Control_c, 14, 11, 121
16, 27964, Control_c, 14, 11, 122
16, 27987, Control_c, 14, 11, 123
16, 28010, Control_c, 14, 11, 124
16, 28034, Control_c, 14, 11, 125
16, 28057, Control_c, 14, 11, 127
16, 28139, Note_on_c, 14, 68, 0
16, 28170, Note_on_c, 14, 65, 84
16, 28191, Note_on_c, 14, 65, 0
16, 28200, Note_on_c, 14, 62, 84
16, 28244, Note_on_c, 14, 62, 0
16, 28290, Note_on_c, 14, 58, 84
16, 28311, Note_on_c, 14, 58, 0
16, 28320, Note_on_c, 14, 56, 84
16, 28364, Note_on_c, 14, 56, 0
16, 28410, Note_on_c, 14, 53, 84
16, 28431, Note_on_c, 14, 53, 0
16, 28440, Note_on_c, 14, 50, 84
16, 28484, Note_on_c, 14, 50, 0
16, 28530, Note_on_c, 14, 58, 84
16, 28551, Note_on_c, 14, 58, 0
16, 28560, Note_on_c, 14, 56, 84
16, 28604, Note_on_c, 14, 56, 0
16, 28650, Note_on_c, 14, 53, 84
16, 28671, Note_on_c, 14, 53, 0
16, 28680, Note_on_c, 14, 50, 84
16, 28724, Note_on_c, 14, 50, 0
16, 28770, Note_on_c, 14, 46, 84
16, 28791, Note_on_c, 14, 46, 0
16, 28800, Note_on_c, 14, 51, 84
16, 28919, Note_on_c, 14, 51, 0
16, 29520, Note_on_c, 14, 51, 52
16, 30239, Note_on_c, 14, 51, 0
16, 30240, Note_on_c, 14, 51, 52
16, 30839, Note_on_c, 14, 51, 0
16, 30840, Note_on_c, 14, 44, 52
16, 30951, Note_on_c, 14, 44, 0
16, 30960, Note_on_c, 14, 46, 52
16, 31551, Note_on_c, 14, 46, 0
16, 31560, Note_on_c, 14, 46, 52
16, 31671, Note_on_c, 14, 46, 0
16, 31680, Note_on_c, 14, 46, 52
16, 31791, Note_on_c, 14, 46, 0
16, 31800, Note_on_c, 14, 46, 56
16, 31911, Note_on_c, 14, 46, 0
16, 31920, Note_on_c, 14, 46, 60
16, 32031, Note_on_c, 14, 46, 0
16, 32040, Note_on_c, 14, 46, 64
16, 32151, Note_on_c, 14, 46, 0
16, 32160, Note_on_c, 14, 43, 76
16, 32271, Note_on_c, 14, 43, 0
16, 32280, Note_on_c, 14, 43, 68
16, 32391, Note_on_c, 14, 43, 0
16, 32400, Note_on_c, 14, 44, 52
16, 32444, Note_on_c, 14, 44, 0
16, 32520, Note_on_c, 14, 44, 52
16, 32564, Note_on_c, 14, 44, 0
16, 32640, Note_on_c, 14, 44, 52
16, 32684, Note_on_c, 14, 44, 0
16, 32760, Note_on_c, 14, 44, 52
16, 32804, Note_on_c, 14, 44, 0
16, 32880, Note_on_c, 14, 44, 52
16, 32999, Note_on_c, 14, 44, 0
16, 33120, Note_on_c, 14, 46, 52
16, 33231, Note_on_c, 14, 46, 0
16, 33240, Note_on_c, 14, 46, 52
16, 33351, Note_on_c, 14, 46, 0
16, 33360, Note_on_c, 14, 46, 52
16, 33479, Note_on_c, 14, 46, 0
16, 33480, Note_on_c, 14, 48, 52
16, 33599, Note_on_c, 14, 48, 0
16, 33600, Note_on_c, 14, 44, 52
16, 33719, Note_on_c, 14, 44, 0
16, 33720, Note_on_c, 14, 41, 52
16, 33831, Note_on_c, 14, 41, 0
16, 33840, Note_on_c, 14, 46, 52
16, 33951, Note_on_c, 14, 46, 0
16, 33960, Note_on_c, 14, 46, 56
16, 34071, Note_on_c, 14, 46, 0
16, 34080, Note_on_c, 14, 46, 60
16, 34191, Note_on_c, 14, 46, 0
16, 34200, Note_on_c, 14, 46, 64
16, 34311, Note_on_c, 14, 46, 0
16, 34320, Note_on_c, 14, 46, 68
16, 34431, Note_on_c, 14, 46, 0
16, 34440, Note_on_c, 14, 46, 72
16, 34551, Note_on_c, 14, 46, 0
16, 34560, Note_on_c, 14, 51, 76
16, 34604, Note_on_c, 14, 51, 0
16, 34650, Note_on_c, 14, 46, 76
16, 34671, Note_on_c, 14, 46, 0
16, 34680, Note_on_c, 14, 51, 76
16, 34724, Note_on_c, 14, 51, 0
16, 34770, Note_on_c, 14, 46, 76
16, 34791, Note_on_c, 14, 46, 0
16, 34800, Note_on_c, 14, 51, 76
16, 34844, Note_on_c, 14, 51, 0
16, 34890, Note_on_c, 14, 46, 76
16, 34911, Note_on_c, 14, 46, 0
16, 34920, Note_on_c, 14, 51, 76
16, 34964, Note_on_c, 14, 51, 0
16, 35010, Note_on_c, 14, 46, 76
16, 35031, Note_on_c, 14, 46, 0
16, 35040, Note_on_c, 14, 51, 76
16, 35084, Note_on_c, 14, 51, 0
16, 35130, Note_on_c, 14, 46, 76
16, 35151, Note_on_c, 14, 46, 0
16, 35160, Note_on_c, 14, 51, 76
16, 35204, Note_on_c, 14, 51, 0
16, 35250, Note_on_c, 14, 46, 76
16, 35271, Note_on_c, 14, 46, 0
16, 35280, Note_on_c, 14, 54, 84
16, 35305, Note_on_c, 14, 54, 0
16, 35310, Note_on_c, 14, 66, 76
16, 35335, Note_on_c, 14, 66, 0
16, 35340, Note_on_c, 14, 54, 76
16, 35365, Note_on_c, 14, 54, 0
16, 35370, Note_on_c, 14, 54, 76
16, 35395, Note_on_c, 14, 54, 0
16, 35400, Note_on_c, 14, 54, 76
16, 35425, Note_on_c, 14, 54, 0
16, 35430, Note_on_c, 14, 54, 76
16, 35455, Note_on_c, 14, 54, 0
16, 35460, Note_on_c, 14, 54, 76
16, 35485, Note_on_c, 14, 54, 0
16, 35490, Note_on_c, 14, 54, 76
16, 35515, Note_on_c, 14, 54, 0
16, 35520, Note_on_c, 14, 53, 84
16, 35545, Note_on_c, 14, 53, 0
16, 35550, Note_on_c, 14, 65, 76
16, 35575, Note_on_c, 14, 65, 0
16, 35580, Note_on_c, 14, 53, 76
16, 35605, Note_on_c, 14, 53, 0
16, 35610, Note_on_c, 14, 53, 76
16, 35635, Note_on_c, 14, 53, 0
16, 35640, Note_on_c, 14, 53, 76
16, 35665, Note_on_c, 14, 53, 0
16, 35670, Note_on_c, 14, 53, 76
16, 35695, Note_on_c, 14, 53, 0
16, 35700, Note_on_c, 14, 53, 76
16, 35725, Note_on_c, 14, 53, 0
16, 35730, Note_on_c, 14, 53, 76
16, 35755, Note_on_c, 14, 53, 0
16, 35760, Note_on_c, 14, 51, 84
16, 35785, Note_on_c, 14, 51, 0
16, 35790, Note_on_c, 14, 63, 76
16, 35815, Note_on_c, 14, 63, 0
16, 35820, Note_on_c, 14, 51, 76
16, 35845, Note_on_c, 14, 51, 0
16, 35850, Note_on_c, 14, 51, 76
16, 35875, Note_on_c, 14, 51, 0
16, 35880, Note_on_c, 14, 51, 76
16, 35905, Note_on_c, 14, 51, 0
16, 35910, Note_on_c, 14, 51, 76
16, 35935, Note_on_c, 14, 51, 0
16, 35940, Note_on_c, 14, 51, 76
16, 35965, Note_on_c, 14, 51, 0
16, 35970, Note_on_c, 14, 51, 76
16, 35995, Note_on_c, 14, 51, 0
16, 36000, Note_on_c, 14, 49, 84
16, 36025, Note_on_c, 14, 49, 0
16, 36030, Note_on_c, 14, 61, 76
16, 36055, Note_on_c, 14, 61, 0
16, 36060, Note_on_c, 14, 49, 76
16, 36085, Note_on_c, 14, 49, 0
16, 36090, Note_on_c, 14, 49, 76
16, 36115, Note_on_c, 14, 49, 0
16, 36120, Note_on_c, 14, 49, 76
16, 36145, Note_on_c, 14, 49, 0
16, 36150, Note_on_c, 14, 49, 76
16, 36175, Note_on_c, 14, 49, 0
16, 36180, Note_on_c, 14, 49, 76
16, 36205, Note_on_c, 14, 49, 0
16, 36210, Note_on_c, 14, 49, 76
16, 36235, Note_on_c, 14, 49, 0
16, 36240, Note_on_c, 14, 47, 84
16, 36265, Note_on_c, 14, 47, 0
16, 36270, Note_on_c, 14, 59, 76
16, 36295, Note_on_c, 14, 59, 0
16, 36300, Note_on_c, 14, 47, 76
16, 36325, Note_on_c, 14, 47, 0
16, 36330, Note_on_c, 14, 47, 76
16, 36355, Note_on_c, 14, 47, 0
16, 36360, Note_on_c, 14, 47, 76
16, 36385, Note_on_c, 14, 47, 0
16, 36390, Note_on_c, 14, 47, 76
16, 36415, Note_on_c, 14, 47, 0
16, 36420, Note_on_c, 14, 47, 76
16, 36445, Note_on_c, 14, 47, 0
16, 36450, Note_on_c, 14, 47, 76
16, 36475, Note_on_c, 14, 47, 0
16, 36480, Note_on_c, 14, 46, 84
16, 36505, Note_on_c, 14, 46, 0
16, 36510, Note_on_c, 14, 58, 76
16, 36535, Note_on_c, 14, 58, 0
16, 36540, Note_on_c, 14, 46, 76
16, 36565, Note_on_c, 14, 46, 0
16, 36570, Note_on_c, 14, 46, 76
16, 36595, Note_on_c, 14, 46, 0
16, 36600, Note_on_c, 14, 46, 76
16, 36625, Note_on_c, 14, 46, 0
16, 36630, Note_on_c, 14, 46, 76
16, 36655, Note_on_c, 14, 46, 0
16, 36660, Note_on_c, 14, 46, 76
16, 36685, Note_on_c, 14, 46, 0
16, 36690, Note_on_c, 14, 46, 76
16, 36715, Note_on_c, 14, 46, 0
16, 36720, Note_on_c, 14, 44, 84
16, 36745, Note_on_c, 14, 44, 0
16, 36750, Note_on_c, 14, 56, 76
16, 36775, Note_on_c, 14, 56, 0
16, 36780, Note_on_c, 14, 56, 76
16, 36805, Note_on_c, 14, 56, 0
16, 36810, Note_on_c, 14, 56, 76
16, 36835, Note_on_c, 14, 56, 0
16, 36840, Note_on_c, 14, 56, 76
16, 36865, Note_on_c, 14, 56, 0
16, 36870, Note_on_c, 14, 56, 76
16, 36895, Note_on_c, 14, 56, 0
16, 36900, Note_on_c, 14, 56, 76
16, 36925, Note_on_c, 14, 56, 0
16, 36930, Note_on_c, 14, 56, 76
16, 36955, Note_on_c, 14, 56, 0
16, 36960, Note_on_c, 14, 42, 84
16, 36985, Note_on_c, 14, 42, 0
16, 36990, Note_on_c, 14, 54, 76
16, 37015, Note_on_c, 14, 54, 0
16, 37020, Note_on_c, 14, 54, 76
16, 37045, Note_on_c, 14, 54, 0
16, 37050, Note_on_c, 14, 54, 76
16, 37075, Note_on_c, 14, 54, 0
16, 37080, Note_on_c, 14, 54, 76
16, 37105, Note_on_c, 14, 54, 0
16, 37110, Note_on_c, 14, 54, 76
16, 37135, Note_on_c, 14, 54, 0
16, 37140, Note_on_c, 14, 54, 76
16, 37165, Note_on_c, 14, 54, 0
16, 37170, Note_on_c, 14, 54, 76
16, 37195, Note_on_c, 14, 54, 0
16, 37200, Note_on_c, 14, 41, 84
16, 37225, Note_on_c, 14, 41, 0
16, 37230, Note_on_c, 14, 53, 76
16, 37255, Note_on_c, 14, 53, 0
16, 37260, Note_on_c, 14, 53, 76
16, 37285, Note_on_c, 14, 53, 0
16, 37290, Note_on_c, 14, 53, 76
16, 37315, Note_on_c, 14, 53, 0
16, 37320, Note_on_c, 14, 53, 76
16, 37345, Note_on_c, 14, 53, 0
16, 37350, Note_on_c, 14, 53, 76
16, 37375, Note_on_c, 14, 53, 0
16, 37380, Note_on_c, 14, 53, 76
16, 37405, Note_on_c, 14, 53, 0
16, 37410, Note_on_c, 14, 53, 76
16, 37435, Note_on_c, 14, 53, 0
16, 37440, Note_on_c, 14, 42, 84
16, 37465, Note_on_c, 14, 42, 0
16, 37470, Note_on_c, 14, 54, 76
16, 37495, Note_on_c, 14, 54, 0
16, 37500, Note_on_c, 14, 54, 76
16, 37525, Note_on_c, 14, 54, 0
16, 37530, Note_on_c, 14, 54, 76
16, 37555, Note_on_c, 14, 54, 0
16, 37560, Note_on_c, 14, 54, 76
16, 37585, Note_on_c, 14, 54, 0
16, 37590, Note_on_c, 14, 54, 76
16, 37615, Note_on_c, 14, 54, 0
16, 37620, Note_on_c, 14, 54, 76
16, 37645, Note_on_c, 14, 54, 0
16, 37650, Note_on_c, 14, 54, 76
16, 37675, Note_on_c, 14, 54, 0
16, 37680, Note_on_c, 14, 41, 84
16, 37705, Note_on_c, 14, 41, 0
16, 37710, Note_on_c, 14, 53, 76
16, 37735, Note_on_c, 14, 53, 0
16, 37740, Note_on_c, 14, 53, 76
16, 37765, Note_on_c, 14, 53, 0
16, 37770, Note_on_c, 14, 53, 76
16, 37795, Note_on_c, 14, 53, 0
16, 37800, Note_on_c, 14, 53, 76
16, 37825, Note_on_c, 14, 53, 0
16, 37830, Note_on_c, 14, 53, 76
16, 37855, Note_on_c, 14, 53, 0
16, 37860, Note_on_c, 14, 53, 76
16, 37885, Note_on_c, 14, 53, 0
16, 37890, Note_on_c, 14, 53, 76
16, 37915, Note_on_c, 14, 53, 0
16, 37920, Note_on_c, 14, 39, 84
16, 37945, Note_on_c, 14, 39, 0
16, 37950, Note_on_c, 14, 51, 76
16, 37975, Note_on_c, 14, 51, 0
16, 37980, Note_on_c, 14, 51, 76
16, 38005, Note_on_c, 14, 51, 0
16, 38010, Note_on_c, 14, 51, 76
16, 38035, Note_on_c, 14, 51, 0
16, 38040, Note_on_c, 14, 51, 76
16, 38065, Note_on_c, 14, 51, 0
16, 38070, Note_on_c, 14, 51, 76
16, 38095, Note_on_c, 14, 51, 0
16, 38100, Note_on_c, 14, 51, 76
16, 38125, Note_on_c, 14, 51, 0
16, 38130, Note_on_c, 14, 51, 76
16, 38155, Note_on_c, 14, 51, 0
16, 38160, Note_on_c, 14, 37, 52
16, 38279, Note_on_c, 14, 37, 0
16, 41280, Note_on_c, 14, 65, 52
16, 41399, Note_on_c, 14, 65, 0
16, 41520, Note_on_c, 14, 65, 52
16, 41639, Note_on_c, 14, 65, 0
16, 41760, Note_on_c, 14, 65, 52
16, 41760, Control_c, 14, 11, 127
16, 41808, Control_c, 14, 11, 126
16, 41856, Control_c, 14, 11, 125
16, 41904, Control_c, 14, 11, 124
16, 41952, Control_c, 14, 11, 123
16, 42000, Control_c, 14, 11, 122
16, 42048, Control_c, 14, 11, 121
16, 42096, Control_c, 14, 11, 120
16, 42144, Control_c, 14, 11, 119
16, 42192, Control_c, 14, 11, 118
16, 42240, Control_c, 14, 11, 117
16, 42288, Control_c, 14, 11, 116
16, 42336, Control_c, 14, 11, 115
16, 42384, Control_c, 14, 11, 114
16, 42432, Control_c, 14, 11, 113
16, 42471, Note_on_c, 14, 65, 0
16, 42480, Note_on_c, 14, 66, 52
16, 42599, Note_on_c, 14, 66, 0
16, 43680, Control_c, 14, 11, 127
16, 43920, Note_on_c, 14, 46, 44
16, 43964, Note_on_c, 14, 46, 0
16, 44010, Note_on_c, 14, 41, 44
16, 44031, Note_on_c, 14, 41, 0
16, 44040, Note_on_c, 14, 46, 44
16, 44084, Note_on_c, 14, 46, 0
16, 44130, Note_on_c, 14, 41, 44
16, 44151, Note_on_c, 14, 41, 0
16, 44160, Note_on_c, 14, 46, 44
16, 44204, Note_on_c, 14, 46, 0
16, 44250, Note_on_c, 14, 41, 44
16, 44271, Note_on_c, 14, 41, 0
16, 44280, Note_on_c, 14, 46, 44
16, 44324, Note_on_c, 14, 46, 0
16, 44370, Note_on_c, 14, 41, 44
16, 44391, Note_on_c, 14, 41, 0
16, 44400, Note_on_c, 14, 46, 44
16, 44444, Note_on_c, 14, 46, 0
16, 44490, Note_on_c, 14, 41, 44
16, 44511, Note_on_c, 14, 41, 0
16, 44520, Note_on_c, 14, 46, 44
16, 44564, Note_on_c, 14, 46, 0
16, 44610, Note_on_c, 14, 41, 44
16, 44631, Note_on_c, 14, 41, 0
16, 44640, Note_on_c, 14, 46, 44
16, 44759, Note_on_c, 14, 46, 0
16, 45840, Program_c, 14, 45
16, 46080, Note_on_c, 14, 51, 44
16, 46199, Note_on_c, 14, 51, 0
16, 46200, Note_on_c, 14, 51, 44
16, 46319, Note_on_c, 14, 51, 0
16, 46320, Note_on_c, 14, 51, 44
16, 46439, Note_on_c, 14, 51, 0
16, 46440, Note_on_c, 14, 51, 44
16, 46559, Note_on_c, 14, 51, 0
16, 46560, Note_on_c, 14, 51, 44
16, 46679, Note_on_c, 14, 51, 0
16, 46680, Note_on_c, 14, 51, 44
16, 46799, Note_on_c, 14, 51, 0
16, 46800, Note_on_c, 14, 51, 44
16, 46919, Note_on_c, 14, 51, 0
16, 46920, Note_on_c, 14, 51, 44
16, 47039, Note_on_c, 14, 51, 0
16, 47040, Note_on_c, 14, 51, 44
16, 47159, Note_on_c, 14, 51, 0
16, 47160, Note_on_c, 14, 51, 44
16, 47279, Note_on_c, 14, 51, 0
16, 47280, Note_on_c, 14, 51, 44
16, 47399, Note_on_c, 14, 51, 0
16, 47400, Note_on_c, 14, 44, 44
16, 47519, Note_on_c, 14, 44, 0
16, 47520, Note_on_c, 14, 46, 44
16, 47639, Note_on_c, 14, 46, 0
16, 47640, Note_on_c, 14, 46, 44
16, 47759, Note_on_c, 14, 46, 0
16, 47760, Note_on_c, 14, 46, 44
16, 47879, Note_on_c, 14, 46, 0
16, 47880, Note_on_c, 14, 46, 44
16, 47999, Note_on_c, 14, 46, 0
16, 48000, Note_on_c, 14, 46, 44
16, 48119, Note_on_c, 14, 46, 0
16, 48120, Note_on_c, 14, 46, 44
16, 48239, Note_on_c, 14, 46, 0
16, 48240, Note_on_c, 14, 46, 44
16, 48359, Note_on_c, 14, 46, 0
16, 48360, Note_on_c, 14, 46, 48
16, 48479, Note_on_c, 14, 46, 0
16, 48480, Note_on_c, 14, 46, 52
16, 48599, Note_on_c, 14, 46, 0
16, 48600, Note_on_c, 14, 46, 56
16, 48719, Note_on_c, 14, 46, 0
16, 48720, Note_on_c, 14, 43, 68
16, 48839, Note_on_c, 14, 43, 0
16, 48840, Note_on_c, 14, 43, 60
16, 48959, Note_on_c, 14, 43, 0
16, 48960, Note_on_c, 14, 44, 48
16, 49079, Note_on_c, 14, 44, 0
16, 49080, Note_on_c, 14, 44, 48
16, 49199, Note_on_c, 14, 44, 0
16, 49200, Note_on_c, 14, 44, 48
16, 49319, Note_on_c, 14, 44, 0
16, 49320, Note_on_c, 14, 44, 48
16, 49439, Note_on_c, 14, 44, 0
16, 49440, Note_on_c, 14, 44, 48
16, 49559, Note_on_c, 14, 44, 0
16, 49560, Note_on_c, 14, 44, 48
16, 49679, Note_on_c, 14, 44, 0
16, 49680, Note_on_c, 14, 46, 48
16, 49799, Note_on_c, 14, 46, 0
16, 49800, Note_on_c, 14, 46, 48
16, 49919, Note_on_c, 14, 46, 0
16, 49920, Note_on_c, 14, 46, 48
16, 50039, Note_on_c, 14, 46, 0
16, 50040, Note_on_c, 14, 48, 48
16, 50159, Note_on_c, 14, 48, 0
16, 50160, Note_on_c, 14, 44, 48
16, 50279, Note_on_c, 14, 44, 0
16, 50280, Note_on_c, 14, 41, 48
16, 50399, Note_on_c, 14, 41, 0
16, 50400, Note_on_c, 14, 46, 48
16, 50519, Note_on_c, 14, 46, 0
16, 50520, Note_on_c, 14, 46, 51
16, 50639, Note_on_c, 14, 46, 0
16, 50640, Note_on_c, 14, 46, 54
16, 50759, Note_on_c, 14, 46, 0
16, 50760, Note_on_c, 14, 46, 58
16, 50879, Note_on_c, 14, 46, 0
16, 50880, Note_on_c, 14, 46, 61
16, 50999, Note_on_c, 14, 46, 0
16, 51000, Note_on_c, 14, 46, 64
16, 51104, Note_on_c, 14, 46, 0
16, 51118, Program_c, 14, 48
16, 51120, Note_on_c, 14, 51, 76
16, 51145, Note_on_c, 14, 51, 0
16, 51150, Note_on_c, 14, 46, 76
16, 51179, Note_on_c, 14, 46, 0
16, 51180, Note_on_c, 14, 43, 76
16, 51209, Note_on_c, 14, 43, 0
16, 51210, Note_on_c, 14, 46, 76
16, 51239, Note_on_c, 14, 46, 0
16, 51240, Note_on_c, 14, 51, 84
16, 51269, Note_on_c, 14, 51, 0
16, 51270, Note_on_c, 14, 55, 76
16, 51299, Note_on_c, 14, 55, 0
16, 51300, Note_on_c, 14, 51, 76
16, 51329, Note_on_c, 14, 51, 0
16, 51330, Note_on_c, 14, 46, 76
16, 51359, Note_on_c, 14, 46, 0
16, 51390, Note_on_c, 14, 46, 76
16, 51419, Note_on_c, 14, 46, 0
16, 51420, Note_on_c, 14, 43, 76
16, 51449, Note_on_c, 14, 43, 0
16, 51450, Note_on_c, 14, 46, 76
16, 51479, Note_on_c, 14, 46, 0
16, 51480, Note_on_c, 14, 51, 84
16, 51509, Note_on_c, 14, 51, 0
16, 51510, Note_on_c, 14, 55, 76
16, 51539, Note_on_c, 14, 55, 0
16, 51540, Note_on_c, 14, 51, 76
16, 51569, Note_on_c, 14, 51, 0
16, 51570, Note_on_c, 14, 46, 76
16, 51599, Note_on_c, 14, 46, 0
16, 51630, Note_on_c, 14, 46, 76
16, 51659, Note_on_c, 14, 46, 0
16, 51660, Note_on_c, 14, 43, 76
16, 51689, Note_on_c, 14, 43, 0
16, 51690, Note_on_c, 14, 46, 76
16, 51719, Note_on_c, 14, 46, 0
16, 51720, Note_on_c, 14, 51, 84
16, 51749, Note_on_c, 14, 51, 0
16, 51750, Note_on_c, 14, 55, 76
16, 51779, Note_on_c, 14, 55, 0
16, 51780, Note_on_c, 14, 51, 76
16, 51809, Note_on_c, 14, 51, 0
16, 51810, Note_on_c, 14, 46, 76
16, 51835, Note_on_c, 14, 46, 0
16, 51840, Note_on_c, 14, 51, 76
16, 51899, Note_on_c, 14, 51, 0
16, 51900, Note_on_c, 14, 51, 52
16, 51951, Note_on_c, 14, 51, 0
16, 51960, Note_on_c, 14, 51, 52
16, 52071, Note_on_c, 14, 51, 0
16, 52080, Note_on_c, 14, 51, 52
16, 52191, Note_on_c, 14, 51, 0
16, 52200, Note_on_c, 14, 51, 52
16, 52311, Note_on_c, 14, 51, 0
16, 52320, Note_on_c, 14, 51, 52
16, 52431, Note_on_c, 14, 51, 0
16, 52440, Note_on_c, 14, 51, 52
16, 52551, Note_on_c, 14, 51, 0
16, 52560, Note_on_c, 14, 51, 76
16, 52589, Note_on_c, 14, 51, 0
16, 52590, Note_on_c, 14, 46, 76
16, 52619, Note_on_c, 14, 46, 0
16, 52620, Note_on_c, 14, 43, 76
16, 52649, Note_on_c, 14, 43, 0
16, 52650, Note_on_c, 14, 46, 76
16, 52679, Note_on_c, 14, 46, 0
16, 52680, Note_on_c, 14, 51, 84
16, 52709, Note_on_c, 14, 51, 0
16, 52710, Note_on_c, 14, 55, 76
16, 52739, Note_on_c, 14, 55, 0
16, 52740, Note_on_c, 14, 51, 76
16, 52769, Note_on_c, 14, 51, 0
16, 52770, Note_on_c, 14, 46, 76
16, 52799, Note_on_c, 14, 46, 0
16, 52830, Note_on_c, 14, 46, 76
16, 52859, Note_on_c, 14, 46, 0
16, 52860, Note_on_c, 14, 43, 76
16, 52889, Note_on_c, 14, 43, 0
16, 52890, Note_on_c, 14, 46, 76
16, 52919, Note_on_c, 14, 46, 0
16, 52920, Note_on_c, 14, 51, 84
16, 52949, Note_on_c, 14, 51, 0
16, 52950, Note_on_c, 14, 55, 76
16, 52979, Note_on_c, 14, 55, 0
16, 52980, Note_on_c, 14, 51, 76
16, 53009, Note_on_c, 14, 51, 0
16, 53010, Note_on_c, 14, 46, 76
16, 53039, Note_on_c, 14, 46, 0
16, 53070, Note_on_c, 14, 46, 76
16, 53099, Note_on_c, 14, 46, 0
16, 53100, Note_on_c, 14, 43, 76
16, 53129, Note_on_c, 14, 43, 0
16, 53130, Note_on_c, 14, 46, 76
16, 53159, Note_on_c, 14, 46, 0
16, 53160, Note_on_c, 14, 51, 84
16, 53189, Note_on_c, 14, 51, 0
16, 53190, Note_on_c, 14, 55, 76
16, 53219, Note_on_c, 14, 55, 0
16, 53220, Note_on_c, 14, 51, 76
16, 53249, Note_on_c, 14, 51, 0
16, 53250, Note_on_c, 14, 46, 76
16, 53275, Note_on_c, 14, 46, 0
16, 53280, Note_on_c, 14, 48, 76
16, 53339, Note_on_c, 14, 48, 0
16, 53340, Note_on_c, 14, 48, 52
16, 53391, Note_on_c, 14, 48, 0
16, 53400, Note_on_c, 14, 48, 52
16, 53511, Note_on_c, 14, 48, 0
16, 53520, Note_on_c, 14, 48, 52
16, 53631, Note_on_c, 14, 48, 0
16, 53640, Note_on_c, 14, 48, 52
16, 53751, Note_on_c, 14, 48, 0
16, 53760, Note_on_c, 14, 48, 52
16, 53871, Note_on_c, 14, 48, 0
16, 53880, Note_on_c, 14, 48, 52
16, 53991, Note_on_c, 14, 48, 0
16, 54000, Note_on_c, 14, 41, 76
16, 54029, Note_on_c, 14, 41, 0
16, 54030, Note_on_c, 14, 53, 76
16, 54059, Note_on_c, 14, 53, 0
16, 54060, Note_on_c, 14, 48, 76
16, 54089, Note_on_c, 14, 48, 0
16, 54090, Note_on_c, 14, 53, 76
16, 54119, Note_on_c, 14, 53, 0
16, 54120, Note_on_c, 14, 56, 76
16, 54149, Note_on_c, 14, 56, 0
16, 54150, Note_on_c, 14, 60, 76
16, 54179, Note_on_c, 14, 60, 0
16, 54180, Note_on_c, 14, 56, 76
16, 54209, Note_on_c, 14, 56, 0
16, 54210, Note_on_c, 14, 53, 76
16, 54239, Note_on_c, 14, 53, 0
16, 54270, Note_on_c, 14, 53, 76
16, 54299, Note_on_c, 14, 53, 0
16, 54300, Note_on_c, 14, 48, 76
16, 54329, Note_on_c, 14, 48, 0
16, 54330, Note_on_c, 14, 53, 76
16, 54359, Note_on_c, 14, 53, 0
16, 54360, Note_on_c, 14, 56, 84
16, 54389, Note_on_c, 14, 56, 0
16, 54390, Note_on_c, 14, 60, 76
16, 54419, Note_on_c, 14, 60, 0
16, 54420, Note_on_c, 14, 56, 76
16, 54449, Note_on_c, 14, 56, 0
16, 54450, Note_on_c, 14, 53, 76
16, 54479, Note_on_c, 14, 53, 0
16, 54510, Note_on_c, 14, 53, 76
16, 54539, Note_on_c, 14, 53, 0
16, 54540, Note_on_c, 14, 48, 76
16, 54569, Note_on_c, 14, 48, 0
16, 54570, Note_on_c, 14, 53, 76
16, 54599, Note_on_c, 14, 53, 0
16, 54600, Note_on_c, 14, 56, 84
16, 54629, Note_on_c, 14, 56, 0
16, 54630, Note_on_c, 14, 60, 76
16, 54659, Note_on_c, 14, 60, 0
16, 54660, Note_on_c, 14, 56, 76
16, 54689, Note_on_c, 14, 56, 0
16, 54690, Note_on_c, 14, 53, 76
16, 54715, Note_on_c, 14, 53, 0
16, 54720, Note_on_c, 14, 46, 76
16, 54779, Note_on_c, 14, 46, 0
16, 54780, Note_on_c, 14, 46, 52
16, 55431, Note_on_c, 14, 46, 0
16, 55440, Note_on_c, 14, 46, 76
16, 55499, Note_on_c, 14, 46, 0
16, 55500, Note_on_c, 14, 46, 52
16, 56151, Note_on_c, 14, 46, 0
16, 56160, Note_on_c, 14, 56, 52
16, 56181, Note_on_c, 14, 56, 0
16, 56190, Note_on_c, 14, 53, 53
16, 56211, Note_on_c, 14, 53, 0
16, 56220, Note_on_c, 14, 52, 54
16, 56241, Note_on_c, 14, 52, 0
16, 56250, Note_on_c, 14, 53, 55
16, 56271, Note_on_c, 14, 53, 0
16, 56280, Note_on_c, 14, 56, 56
16, 56301, Note_on_c, 14, 56, 0
16, 56310, Note_on_c, 14, 53, 57
16, 56331, Note_on_c, 14, 53, 0
16, 56340, Note_on_c, 14, 55, 58
16, 56361, Note_on_c, 14, 55, 0
16, 56370, Note_on_c, 14, 51, 59
16, 56391, Note_on_c, 14, 51, 0
16, 56400, Note_on_c, 14, 53, 60
16, 56421, Note_on_c, 14, 53, 0
16, 56430, Note_on_c, 14, 50, 61
16, 56451, Note_on_c, 14, 50, 0
16, 56460, Note_on_c, 14, 51, 62
16, 56481, Note_on_c, 14, 51, 0
16, 56490, Note_on_c, 14, 48, 63
16, 56511, Note_on_c, 14, 48, 0
16, 56520, Note_on_c, 14, 50, 64
16, 56541, Note_on_c, 14, 50, 0
16, 56550, Note_on_c, 14, 46, 65
16, 56571, Note_on_c, 14, 46, 0
16, 56580, Note_on_c, 14, 51, 66
16, 56601, Note_on_c, 14, 51, 0
16, 56610, Note_on_c, 14, 48, 67
16, 56631, Note_on_c, 14, 48, 0
16, 56640, Note_on_c, 14, 53, 68
16, 56661, Note_on_c, 14, 53, 0
16, 56670, Note_on_c, 14, 50, 69
16, 56691, Note_on_c, 14, 50, 0
16, 56700, Note_on_c, 14, 55, 70
16, 56721, Note_on_c, 14, 55, 0
16, 56730, Note_on_c, 14, 51, 71
16, 56751, Note_on_c, 14, 51, 0
16, 56760, Note_on_c, 14, 56, 72
16, 56781, Note_on_c, 14, 56, 0
16, 56790, Note_on_c, 14, 53, 73
16, 56811, Note_on_c, 14, 53, 0
16, 56820, Note_on_c, 14, 58, 74
16, 56841, Note_on_c, 14, 58, 0
16, 56850, Note_on_c, 14, 55, 75
16, 56871, Note_on_c, 14, 55, 0
16, 56880, Note_on_c, 14, 60, 76
16, 56901, Note_on_c, 14, 60, 0
16, 56910, Note_on_c, 14, 56, 76
16, 56931, Note_on_c, 14, 56, 0
16, 56940, Note_on_c, 14, 53, 76
16, 56961, Note_on_c, 14, 53, 0
16, 56970, Note_on_c, 14, 55, 76
16, 56991, Note_on_c, 14, 55, 0
16, 57000, Note_on_c, 14, 56, 76
16, 57021, Note_on_c, 14, 56, 0
16, 57030, Note_on_c, 14, 53, 76
16, 57051, Note_on_c, 14, 53, 0
16, 57060, Note_on_c, 14, 50, 76
16, 57081, Note_on_c, 14, 50, 0
16, 57090, Note_on_c, 14, 51, 76
16, 57111, Note_on_c, 14, 51, 0
16, 57120, Note_on_c, 14, 53, 76
16, 57141, Note_on_c, 14, 53, 0
16, 57150, Note_on_c, 14, 50, 76
16, 57171, Note_on_c, 14, 50, 0
16, 57180, Note_on_c, 14, 44, 76
16, 57201, Note_on_c, 14, 44, 0
16, 57210, Note_on_c, 14, 46, 76
16, 57231, Note_on_c, 14, 46, 0
16, 57240, Note_on_c, 14, 48, 76
16, 57261, Note_on_c, 14, 48, 0
16, 57270, Note_on_c, 14, 46, 76
16, 57291, Note_on_c, 14, 46, 0
16, 57300, Note_on_c, 14, 44, 76
16, 57321, Note_on_c, 14, 44, 0
16, 57330, Note_on_c, 14, 43, 76
16, 57351, Note_on_c, 14, 43, 0
16, 57360, Note_on_c, 14, 41, 76
16, 57381, Note_on_c, 14, 41, 0
16, 57390, Note_on_c, 14, 51, 72
16, 57411, Note_on_c, 14, 51, 0
16, 57420, Note_on_c, 14, 50, 68
16, 57441, Note_on_c, 14, 50, 0
16, 57450, Note_on_c, 14, 48, 64
16, 57471, Note_on_c, 14, 48, 0
16, 57480, Note_on_c, 14, 46, 60
16, 57501, Note_on_c, 14, 46, 0
16, 57510, Note_on_c, 14, 58, 56
16, 57531, Note_on_c, 14, 58, 0
16, 57540, Note_on_c, 14, 56, 52
16, 57561, Note_on_c, 14, 56, 0
16, 57570, Note_on_c, 14, 53, 48
16, 57591, Note_on_c, 14, 53, 0
16, 57600, Note_on_c, 14, 51, 44
16, 57635, Note_on_c, 14, 51, 0
16, 57640, Note_on_c, 14, 51, 44
16, 57679, Note_on_c, 14, 51, 0
16, 57680, Note_on_c, 14, 55, 44
16, 57719, Note_on_c, 14, 55, 0
16, 57720, Note_on_c, 14, 58, 44
16, 57759, Note_on_c, 14, 58, 0
16, 57760, Note_on_c, 14, 63, 44
16, 57799, Note_on_c, 14, 63, 0
16, 57800, Note_on_c, 14, 67, 44
16, 57835, Note_on_c, 14, 67, 0
16, 57840, Note_on_c, 14, 62, 44
16, 58319, Note_on_c, 14, 62, 0
16, 58320, Note_on_c, 14, 62, 44
16, 59031, Note_on_c, 14, 62, 0
16, 59040, Note_on_c, 14, 63, 44
16, 59159, Note_on_c, 14, 63, 0
16, 60960, Program_c, 14, 45
16, 61080, Note_on_c, 14, 51, 44
16, 61199, Note_on_c, 14, 51, 0
16, 61200, Note_on_c, 14, 56, 44
16, 61319, Note_on_c, 14, 56, 0
16, 61440, Note_on_c, 14, 58, 44
16, 61559, Note_on_c, 14, 58, 0
16, 61680, Note_on_c, 14, 56, 44
16, 61799, Note_on_c, 14, 56, 0
16, 61918, Program_c, 14, 48
16, 61920, Note_on_c, 14, 43, 52
16, 62009, Note_on_c, 14, 43, 0
16, 62040, Note_on_c, 14, 58, 56
16, 62129, Note_on_c, 14, 58, 0
16, 62160, Note_on_c, 14, 55, 60
16, 62249, Note_on_c, 14, 55, 0
16, 62280, Note_on_c, 14, 52, 64
16, 62369, Note_on_c, 14, 52, 0
16, 62400, Note_on_c, 14, 49, 68
16, 62489, Note_on_c, 14, 49, 0
16, 62520, Note_on_c, 14, 58, 72
16, 62609, Note_on_c, 14, 58, 0
16, 62640, Note_on_c, 14, 55, 76
16, 62759, Note_on_c, 14, 55, 0
16, 62760, Note_on_c, 14, 52, 76
16, 62849, Note_on_c, 14, 52, 0
16, 62850, Note_on_c, 14, 49, 76
16, 62879, Note_on_c, 14, 49, 0
16, 62880, Note_on_c, 14, 48, 76
16, 62999, Note_on_c, 14, 48, 0
16, 63000, Note_on_c, 14, 44, 76
16, 63111, Note_on_c, 14, 44, 0
16, 63120, Note_on_c, 14, 46, 76
16, 63231, Note_on_c, 14, 46, 0
16, 63240, Note_on_c, 14, 46, 76
16, 63351, Note_on_c, 14, 46, 0
16, 63360, Note_on_c, 14, 63, 52
16, 63389, Note_on_c, 14, 63, 0
16, 63390, Note_on_c, 14, 65, 52
16, 63419, Note_on_c, 14, 65, 0
16, 63420, Note_on_c, 14, 63, 52
16, 63449, Note_on_c, 14, 63, 0
16, 63450, Note_on_c, 14, 62, 52
16, 63479, Note_on_c, 14, 62, 0
16, 63480, Note_on_c, 14, 63, 52
16, 63509, Note_on_c, 14, 63, 0
16, 63510, Note_on_c, 14, 65, 52
16, 63539, Note_on_c, 14, 65, 0
16, 63540, Note_on_c, 14, 67, 52
16, 63569, Note_on_c, 14, 67, 0
16, 63570, Note_on_c, 14, 65, 52
16, 63599, Note_on_c, 14, 65, 0
16, 63600, Note_on_c, 14, 63, 52
16, 63629, Note_on_c, 14, 63, 0
16, 63630, Note_on_c, 14, 65, 52
16, 63659, Note_on_c, 14, 65, 0
16, 63660, Note_on_c, 14, 67, 52
16, 63689, Note_on_c, 14, 67, 0
16, 63690, Note_on_c, 14, 63, 52
16, 63719, Note_on_c, 14, 63, 0
16, 63720, Note_on_c, 14, 58, 52
16, 63749, Note_on_c, 14, 58, 0
16, 63750, Note_on_c, 14, 62, 52
16, 63779, Note_on_c, 14, 62, 0
16, 63780, Note_on_c, 14, 63, 52
16, 63809, Note_on_c, 14, 63, 0
16, 63810, Note_on_c, 14, 58, 52
16, 63839, Note_on_c, 14, 58, 0
16, 63840, Note_on_c, 14, 55, 52
16, 63869, Note_on_c, 14, 55, 0
16, 63870, Note_on_c, 14, 56, 52
16, 63899, Note_on_c, 14, 56, 0
16, 63900, Note_on_c, 14, 58, 52
16, 63929, Note_on_c, 14, 58, 0
16, 63930, Note_on_c, 14, 55, 52
16, 63959, Note_on_c, 14, 55, 0
16, 63960, Note_on_c, 14, 51, 52
16, 63989, Note_on_c, 14, 51, 0
16, 63990, Note_on_c, 14, 53, 52
16, 64019, Note_on_c, 14, 53, 0
16, 64020, Note_on_c, 14, 55, 52
16, 64049, Note_on_c, 14, 55, 0
16, 64050, Note_on_c, 14, 51, 52
16, 64075, Note_on_c, 14, 51, 0
16, 64080, Note_on_c, 14, 51, 52
16, 64124, Note_on_c, 14, 51, 0
16, 64170, Note_on_c, 14, 46, 52
16, 64191, Note_on_c, 14, 46, 0
16, 64200, Note_on_c, 14, 51, 52
16, 64244, Note_on_c, 14, 51, 0
16, 64290, Note_on_c, 14, 46, 52
16, 64311, Note_on_c, 14, 46, 0
16, 64320, Note_on_c, 14, 51, 52
16, 64364, Note_on_c, 14, 51, 0
16, 64410, Note_on_c, 14, 46, 52
16, 64431, Note_on_c, 14, 46, 0
16, 64440, Note_on_c, 14, 51, 52
16, 64484, Note_on_c, 14, 51, 0
16, 64530, Note_on_c, 14, 46, 52
16, 64551, Note_on_c, 14, 46, 0
16, 64560, Note_on_c, 14, 51, 52
16, 64604, Note_on_c, 14, 51, 0
16, 64650, Note_on_c, 14, 46, 52
16, 64671, Note_on_c, 14, 46, 0
16, 64680, Note_on_c, 14, 51, 52
16, 64724, Note_on_c, 14, 51, 0
16, 64770, Note_on_c, 14, 46, 52
16, 64791, Note_on_c, 14, 46, 0
16, 64800, Note_on_c, 14, 51, 52
16, 64844, Note_on_c, 14, 51, 0
16, 64890, Note_on_c, 14, 46, 52
16, 64911, Note_on_c, 14, 46, 0
16, 64920, Note_on_c, 14, 51, 52
16, 64964, Note_on_c, 14, 51, 0
16, 65010, Note_on_c, 14, 46, 52
16, 65031, Note_on_c, 14, 46, 0
16, 65040, Note_on_c, 14, 51, 52
16, 65084, Note_on_c, 14, 51, 0
16, 65130, Note_on_c, 14, 46, 52
16, 65151, Note_on_c, 14, 46, 0
16, 65160, Note_on_c, 14, 51, 52
16, 65204, Note_on_c, 14, 51, 0
16, 65250, Note_on_c, 14, 46, 52
16, 65271, Note_on_c, 14, 46, 0
16, 65280, Note_on_c, 14, 51, 52
16, 65324, Note_on_c, 14, 51, 0
16, 65370, Note_on_c, 14, 46, 52
16, 65391, Note_on_c, 14, 46, 0
16, 65400, Note_on_c, 14, 51, 52
16, 65444, Note_on_c, 14, 51, 0
16, 65490, Note_on_c, 14, 46, 52
16, 65511, Note_on_c, 14, 46, 0
16, 65520, Note_on_c, 14, 51, 52
16, 65579, Note_on_c, 14, 51, 0
16, 65610, Note_on_c, 14, 46, 52
16, 65635, Note_on_c, 14, 46, 0
16, 65640, Note_on_c, 14, 51, 52
16, 65699, Note_on_c, 14, 51, 0
16, 65730, Note_on_c, 14, 46, 52
16, 65755, Note_on_c, 14, 46, 0
16, 65760, Note_on_c, 14, 51, 52
16, 65819, Note_on_c, 14, 51, 0
16, 65850, Note_on_c, 14, 46, 52
16, 65875, Note_on_c, 14, 46, 0
16, 65880, Note_on_c, 14, 51, 52
16, 65939, Note_on_c, 14, 51, 0
16, 65970, Note_on_c, 14, 46, 52
16, 65995, Note_on_c, 14, 46, 0
16, 66000, Note_on_c, 14, 51, 52
16, 66059, Note_on_c, 14, 51, 0
16, 66090, Note_on_c, 14, 46, 52
16, 66115, Note_on_c, 14, 46, 0
16, 66120, Note_on_c, 14, 51, 52
16, 66179, Note_on_c, 14, 51, 0
16, 66210, Note_on_c, 14, 46, 52
16, 66235, Note_on_c, 14, 46, 0
16, 66240, Note_on_c, 14, 51, 52
16, 66359, Note_on_c, 14, 51, 0
16, 66720, Note_on_c, 14, 51, 50
16, 66839, Note_on_c, 14, 51, 0
16, 66960, Note_on_c, 14, 51, 48
16, 67079, Note_on_c, 14, 51, 0
16, 67440, Note_on_c, 14, 51, 46
16, 67559, Note_on_c, 14, 51, 0
16, 67680, Note_on_c, 14, 51, 44
16, 67709, Note_on_c, 14, 51, 0
16, 67710, Note_on_c, 14, 53, 44
16, 67739, Note_on_c, 14, 53, 0
16, 67740, Note_on_c, 14, 51, 44
16, 67769, Note_on_c, 14, 51, 0
16, 67770, Note_on_c, 14, 50, 44
16, 67799, Note_on_c, 14, 50, 0
16, 67800, Note_on_c, 14, 51, 44
16, 67829, Note_on_c, 14, 51, 0
16, 67830, Note_on_c, 14, 53, 44
16, 67859, Note_on_c, 14, 53, 0
16, 67860, Note_on_c, 14, 55, 43
16, 67889, Note_on_c, 14, 55, 0
16, 67890, Note_on_c, 14, 51, 43
16, 67919, Note_on_c, 14, 51, 0
16, 67920, Note_on_c, 14, 46, 43
16, 67949, Note_on_c, 14, 46, 0
16, 67950, Note_on_c, 14, 48, 43
16, 67979, Note_on_c, 14, 48, 0
16, 67980, Note_on_c, 14, 50, 43
16, 68009, Note_on_c, 14, 50, 0
16, 68010, Note_on_c, 14, 51, 43
16, 68039, Note_on_c, 14, 51, 0
16, 68040, Note_on_c, 14, 50, 42
16, 68069, Note_on_c, 14, 50, 0
16, 68070, Note_on_c, 14, 48, 42
16, 68099, Note_on_c, 14, 48, 0
16, 68100, Note_on_c, 14, 46, 42
16, 68129, Note_on_c, 14, 46, 0
16, 68130, Note_on_c, 14, 44, 42
16, 68159, Note_on_c, 14, 44, 0
16, 68160, Note_on_c, 14, 43, 42
16, 68189, Note_on_c, 14, 43, 0
16, 68190, Note_on_c, 14, 44, 42
16, 68219, Note_on_c, 14, 44, 0
16, 68220, Note_on_c, 14, 46, 41
16, 68249, Note_on_c, 14, 46, 0
16, 68250, Note_on_c, 14, 48, 41
16, 68279, Note_on_c, 14, 48, 0
16, 68280, Note_on_c, 14, 46, 41
16, 68309, Note_on_c, 14, 46, 0
16, 68310, Note_on_c, 14, 44, 41
16, 68339, Note_on_c, 14, 44, 0
16, 68340, Note_on_c, 14, 43, 41
16, 68369, Note_on_c, 14, 43, 0
16, 68370, Note_on_c, 14, 41, 41
16, 68395, Note_on_c, 14, 41, 0
16, 68400, Note_on_c, 14, 39, 44
16, 69119, Note_on_c, 14, 39, 0
16, 69120, Note_on_c, 14, 39, 44
16, 69711, Note_on_c, 14, 39, 0
16, 69720, Note_on_c, 14, 44, 44
16, 69831, Note_on_c, 14, 44, 0
16, 69840, Note_on_c, 14, 46, 44
16, 69959, Note_on_c, 14, 46, 0
16, 71520, Note_on_c, 14, 63, 52
16, 71541, Note_on_c, 14, 63, 0
16, 71550, Note_on_c, 14, 62, 53
16, 71571, Note_on_c, 14, 62, 0
16, 71580, Note_on_c, 14, 60, 54
16, 71601, Note_on_c, 14, 60, 0
16, 71610, Note_on_c, 14, 58, 56
16, 71631, Note_on_c, 14, 58, 0
16, 71640, Note_on_c, 14, 56, 57
16, 71661, Note_on_c, 14, 56, 0
16, 71670, Note_on_c, 14, 55, 58
16, 71691, Note_on_c, 14, 55, 0
16, 71700, Note_on_c, 14, 53, 60
16, 71721, Note_on_c, 14, 53, 0
16, 71730, Note_on_c, 14, 51, 61
16, 71751, Note_on_c, 14, 51, 0
16, 71760, Note_on_c, 14, 50, 62
16, 71781, Note_on_c, 14, 50, 0
16, 71790, Note_on_c, 14, 48, 64
16, 71811, Note_on_c, 14, 48, 0
16, 71820, Note_on_c, 14, 46, 65
16, 71841, Note_on_c, 14, 46, 0
16, 71850, Note_on_c, 14, 44, 66
16, 71871, Note_on_c, 14, 44, 0
16, 71880, Note_on_c, 14, 43, 68
16, 71901, Note_on_c, 14, 43, 0
16, 71910, Note_on_c, 14, 41, 69
16, 71931, Note_on_c, 14, 41, 0
16, 71940, Note_on_c, 14, 39, 70
16, 71961, Note_on_c, 14, 39, 0
16, 71970, Note_on_c, 14, 38, 72
16, 71991, Note_on_c, 14, 38, 0
16, 72000, Note_on_c, 14, 36, 73
16, 72021, Note_on_c, 14, 36, 0
16, 72030, Note_on_c, 14, 38, 74
16, 72051, Note_on_c, 14, 38, 0
16, 72060, Note_on_c, 14, 39, 76
16, 72081, Note_on_c, 14, 39, 0
16, 72090, Note_on_c, 14, 41, 77
16, 72111, Note_on_c, 14, 41, 0
16, 72120, Note_on_c, 14, 43, 78
16, 72141, Note_on_c, 14, 43, 0
16, 72150, Note_on_c, 14, 44, 80
16, 72171, Note_on_c, 14, 44, 0
16, 72180, Note_on_c, 14, 46, 81
16, 72201, Note_on_c, 14, 46, 0
16, 72210, Note_on_c, 14, 48, 82
16, 72231, Note_on_c, 14, 48, 0
16, 72240, Note_on_c, 14, 50, 84
16, 72261, Note_on_c, 14, 50, 0
16, 72270, Note_on_c, 14, 51, 84
16, 72291, Note_on_c, 14, 51, 0
16, 72300, Note_on_c, 14, 53, 84
16, 72321, Note_on_c, 14, 53, 0
16, 72330, Note_on_c, 14, 55, 84
16, 72351, Note_on_c, 14, 55, 0
16, 72360, Note_on_c, 14, 56, 84
16, 72381, Note_on_c, 14, 56, 0
16, 72390, Note_on_c, 14, 58, 84
16, 72411, Note_on_c, 14, 58, 0
16, 72420, Note_on_c, 14, 60, 84
16, 72441, Note_on_c, 14, 60, 0
16, 72450, Note_on_c, 14, 62, 84
16, 72471, Note_on_c, 14, 62, 0
16, 72480, Note_on_c, 14, 63, 84
16, 72599, Note_on_c, 14, 63, 0
16, 73200, Program_c, 14, 45
16, 73440, Note_on_c, 14, 46, 60
16, 73559, Note_on_c, 14, 46, 0
16, 73680, Note_on_c, 14, 46, 60
16, 73799, Note_on_c, 14, 46, 0
16, 73918, Program_c, 14, 48
16, 73920, Note_on_c, 14, 46, 84
16, 74039, Note_on_c, 14, 46, 0
16, 74160, Note_on_c, 14, 39, 84
16, 74279, Note_on_c, 14, 39, 0
16, 74279, End_track
17, 0, Start_track
17, 0, Title_t, "Contrabass"
17, 0, MIDI_port, 0
17, 0, Program_c, 15, 48
17, 0, Control_c, 15, 7, 88
17, 0, Control_c, 15, 10, 100
17, 0, Control_c, 15, 11, 127
17, 0, Note_on_c, 15, 39, 52
17, 119, Note_on_c, 15, 39, 0
17, 5760, Note_on_c, 15, 39, 76
17, 5804, Note_on_c, 15, 39, 0
17, 5850, Note_on_c, 15, 34, 76
17, 5871, Note_on_c, 15, 34, 0
17, 5880, Note_on_c, 15, 39, 76
17, 5924, Note_on_c, 15, 39, 0
17, 5970, Note_on_c, 15, 34, 76
17, 5991, Note_on_c, 15, 34, 0
17, 6000, Note_on_c, 15, 39, 76
17, 6044, Note_on_c, 15, 39, 0
17, 6090, Note_on_c, 15, 34, 76
17, 6111, Note_on_c, 15, 34, 0
17, 6120, Note_on_c, 15, 39, 76
17, 6164, Note_on_c, 15, 39, 0
17, 6210, Note_on_c, 15, 34, 76
17, 6231, Note_on_c, 15, 34, 0
17, 6240, Note_on_c, 15, 39, 76
17, 6284, Note_on_c, 15, 39, 0
17, 6330, Note_on_c, 15, 34, 76
17, 6351, Note_on_c, 15, 34, 0
17, 6360, Note_on_c, 15, 39, 76
17, 6404, Note_on_c, 15, 39, 0
17, 6450, Note_on_c, 15, 34, 76
17, 6471, Note_on_c, 15, 34, 0
17, 6480, Note_on_c, 15, 39, 52
17, 6599, Note_on_c, 15, 39, 0
17, 6718, Program_c, 15, 45
17, 6720, Note_on_c, 15, 39, 48
17, 6839, Note_on_c, 15, 39, 0
17, 6840, Note_on_c, 15, 39, 48
17, 6959, Note_on_c, 15, 39, 0
17, 6960, Note_on_c, 15, 39, 48
17, 7079, Note_on_c, 15, 39, 0
17, 7080, Note_on_c, 15, 39, 48
17, 7199, Note_on_c, 15, 39, 0
17, 7200, Note_on_c, 15, 39, 48
17, 7319, Note_on_c, 15, 39, 0
17, 7320, Note_on_c, 15, 39, 48
17, 7439, Note_on_c, 15, 39, 0
17, 7440, Note_on_c, 15, 39, 48
17, 7559, Note_on_c, 15, 39, 0
17, 7560, Note_on_c, 15, 39, 48
17, 7679, Note_on_c, 15, 39, 0
17, 7680, Note_on_c, 15, 39, 48
17, 7799, Note_on_c, 15, 39, 0
17, 7800, Note_on_c, 15, 32, 48
17, 7919, Note_on_c, 15, 32, 0
17, 7920, Note_on_c, 15, 34, 48
17, 8039, Note_on_c, 15, 34, 0
17, 8040, Note_on_c, 15, 34, 48
17, 8159, Note_on_c, 15, 34, 0
17, 8160, Note_on_c, 15, 34, 48
17, 8279, Note_on_c, 15, 34, 0
17, 8280, Note_on_c, 15, 34, 48
17, 8399, Note_on_c, 15, 34, 0
17, 8400, Note_on_c, 15, 34, 48
17, 8519, Note_on_c, 15, 34, 0
17, 8520, Note_on_c, 15, 34, 48
17, 8639, Note_on_c, 15, 34, 0
17, 8640, Note_on_c, 15, 34, 48
17, 8759, Note_on_c, 15, 34, 0
17, 8760, Note_on_c, 15, 34, 51
17, 8879, Note_on_c, 15, 34, 0
17, 8880, Note_on_c, 15, 34, 54
17, 8999, Note_on_c, 15, 34, 0
17, 9000, Note_on_c, 15, 34, 57
17, 9119, Note_on_c, 15, 34, 0
17, 9120, Note_on_c, 15, 31, 68
17, 9239, Note_on_c, 15, 31, 0
17, 9240, Note_on_c, 15, 31, 48
17, 9359, Note_on_c, 15, 31, 0
17, 9360, Note_on_c, 15, 32, 48
17, 9479, Note_on_c, 15, 32, 0
17, 9480, Note_on_c, 15, 32, 48
17, 9599, Note_on_c, 15, 32, 0
17, 9600, Note_on_c, 15, 32, 48
17, 9719, Note_on_c, 15, 32, 0
17, 9720, Note_on_c, 15, 32, 48
17, 9839, Note_on_c, 15, 32, 0
17, 9840, Note_on_c, 15, 32, 48
17, 9959, Note_on_c, 15, 32, 0
17, 10080, Note_on_c, 15, 34, 48
17, 10199, Note_on_c, 15, 34, 0
17, 10200, Note_on_c, 15, 34, 48
17, 10319, Note_on_c, 15, 34, 0
17, 10320, Note_on_c, 15, 34, 48
17, 10439, Note_on_c, 15, 34, 0
17, 10440, Note_on_c, 15, 36, 48
17, 10559, Note_on_c, 15, 36, 0
17, 10560, Note_on_c, 15, 32, 48
17, 10679, Note_on_c, 15, 32, 0
17, 10680, Note_on_c, 15, 29, 48
17, 10799, Note_on_c, 15, 29, 0
17, 10800, Note_on_c, 15, 34, 48
17, 10919, Note_on_c, 15, 34, 0
17, 10920, Note_on_c, 15, 34, 51
17, 11039, Note_on_c, 15, 34, 0
17, 11040, Note_on_c, 15, 34, 54
17, 11159, Note_on_c, 15, 34, 0
17, 11160, Note_on_c, 15, 34, 58
17, 11279, Note_on_c, 15, 34, 0
17, 11280, Note_on_c, 15, 34, 61
17, 11399, Note_on_c, 15, 34, 0
17, 11400, Note_on_c, 15, 34, 64
17, 11504, Note_on_c, 15, 34, 0
17, 11518, Program_c, 15, 48
17, 11520, Note_on_c, 15, 39, 76
17, 11639, Note_on_c, 15, 39, 0
17, 11760, Note_on_c, 15, 39, 76
17, 11879, Note_on_c, 15, 39, 0
17, 12000, Note_on_c, 15, 39, 76
17, 12119, Note_on_c, 15, 39, 0
17, 12240, Note_on_c, 15, 39, 76
17, 12299, Note_on_c, 15, 39, 0
17, 12300, Note_on_c, 15, 39, 52
17, 12351, Note_on_c, 15, 39, 0
17, 12360, Note_on_c, 15, 39, 52
17, 12471, Note_on_c, 15, 39, 0
17, 12480, Note_on_c, 15, 39, 52
17, 12591, Note_on_c, 15, 39, 0
17, 12600, Note_on_c, 15, 39, 52
17, 12711, Note_on_c, 15, 39, 0
17, 12720, Note_on_c, 15, 39, 52
17, 12831, Note_on_c, 15, 39, 0
17, 12840, Note_on_c, 15, 39, 52
17, 12951, Note_on_c, 15, 39, 0
17, 12960, Note_on_c, 15, 39, 76
17, 13079, Note_on_c, 15, 39, 0
17, 13200, Note_on_c, 15, 39, 76
17, 13319, Note_on_c, 15, 39, 0
17, 13440, Note_on_c, 15, 39, 76
17, 13559, Note_on_c, 15, 39, 0
17, 13680, Note_on_c, 15, 31, 76
17, 13739, Note_on_c, 15, 31, 0
17, 13740, Note_on_c, 15, 31, 52
17, 13791, Note_on_c, 15, 31, 0
17, 13800, Note_on_c, 15, 31, 52
17, 13911, Note_on_c, 15, 31, 0
17, 13920, Note_on_c, 15, 31, 52
17, 14031, Note_on_c, 15, 31, 0
17, 14040, Note_on_c, 15, 31, 52
17, 14151, Note_on_c, 15, 31, 0
17, 14160, Note_on_c, 15, 31, 52
17, 14271, Note_on_c, 15, 31, 0
17, 14280, Note_on_c, 15, 31, 52
17, 14391, Note_on_c, 15, 31, 0
17, 14400, Note_on_c, 15, 36, 76
17, 14519, Note_on_c, 15, 36, 0
17, 14640, Note_on_c, 15, 36, 76
17, 14759, Note_on_c, 15, 36, 0
17, 14880, Note_on_c, 15, 36, 76
17, 14999, Note_on_c, 15, 36, 0
17, 15120, Note_on_c, 15, 29, 76
17, 15179, Note_on_c, 15, 29, 0
17, 15180, Note_on_c, 15, 29, 52
17, 15831, Note_on_c, 15, 29, 0
17, 15840, Note_on_c, 15, 29, 76
17, 15899, Note_on_c, 15, 29, 0
17, 15900, Note_on_c, 15, 29, 52
17, 16551, Note_on_c, 15, 29, 0
17, 16560, Note_on_c, 15, 51, 52
17, 16581, Note_on_c, 15, 51, 0
17, 16590, Note_on_c, 15, 48, 53
17, 16611, Note_on_c, 15, 48, 0
17, 16620, Note_on_c, 15, 47, 54
17, 16641, Note_on_c, 15, 47, 0
17, 16650, Note_on_c, 15, 48, 55
17, 16671, Note_on_c, 15, 48, 0
17, 16680, Note_on_c, 15, 51, 56
17, 16701, Note_on_c, 15, 51, 0
17, 16710, Note_on_c, 15, 48, 57
17, 16731, Note_on_c, 15, 48, 0
17, 16740, Note_on_c, 15, 50, 58
17, 16761, Note_on_c, 15, 50, 0
17, 16770, Note_on_c, 15, 46, 59
17, 16791, Note_on_c, 15, 46, 0
17, 16800, Note_on_c, 15, 48, 60
17, 16821, Note_on_c, 15, 48, 0
17, 16830, Note_on_c, 15, 45, 61
17, 16851, Note_on_c, 15, 45, 0
17, 16860, Note_on_c, 15, 46, 62
17, 16881, Note_on_c, 15, 46, 0
17, 16890, Note_on_c, 15, 43, 63
17, 16911, Note_on_c, 15, 43, 0
17, 16920, Note_on_c, 15, 45, 64
17, 16941, Note_on_c, 15, 45, 0
17, 16950, Note_on_c, 15, 41, 65
17, 16971, Note_on_c, 15, 41, 0
17, 16980, Note_on_c, 15, 46, 66
17, 17001, Note_on_c, 15, 46, 0
17, 17010, Note_on_c, 15, 43, 67
17, 17031, Note_on_c, 15, 43, 0
17, 17040, Note_on_c, 15, 48, 68
17, 17061, Note_on_c, 15, 48, 0
17, 17070, Note_on_c, 15, 45, 69
17, 17091, Note_on_c, 15, 45, 0
17, 17100, Note_on_c, 15, 50, 70
17, 17121, Note_on_c, 15, 50, 0
17, 17130, Note_on_c, 15, 46, 71
17, 17151, Note_on_c, 15, 46, 0
17, 17160, Note_on_c, 15, 51, 72
17, 17181, Note_on_c, 15, 51, 0
17, 17190, Note_on_c, 15, 48, 73
17, 17211, Note_on_c, 15, 48, 0
17, 17220, Note_on_c, 15, 53, 74
17, 17241, Note_on_c, 15, 53, 0
17, 17250, Note_on_c, 15, 50, 75
17, 17271, Note_on_c, 15, 50, 0
17, 17280, Note_on_c, 15, 55, 76
17, 17301, Note_on_c, 15, 55, 0
17, 17310, Note_on_c, 15, 51, 76
17, 17331, Note_on_c, 15, 51, 0
17, 17340, Note_on_c, 15, 48, 76
17, 17361, Note_on_c, 15, 48, 0
17, 17370, Note_on_c, 15, 50, 76
17, 17391, Note_on_c, 15, 50, 0
17, 17400, Note_on_c, 15, 51, 76
17, 17421, Note_on_c, 15, 51, 0
17, 17430, Note_on_c, 15, 48, 76
17, 17451, Note_on_c, 15, 48, 0
17, 17460, Note_on_c, 15, 45, 76
17, 17481, Note_on_c, 15, 45, 0
17, 17490, Note_on_c, 15, 46, 76
17, 17511, Note_on_c, 15, 46, 0
17, 17520, Note_on_c, 15, 48, 76
17, 17541, Note_on_c, 15, 48, 0
17, 17550, Note_on_c, 15, 45, 76
17, 17571, Note_on_c, 15, 45, 0
17, 17580, Note_on_c, 15, 39, 76
17, 17601, Note_on_c, 15, 39, 0
17, 17610, Note_on_c, 15, 41, 76
17, 17631, Note_on_c, 15, 41, 0
17, 17640, Note_on_c, 15, 43, 76
17, 17661, Note_on_c, 15, 43, 0
17, 17670, Note_on_c, 15, 39, 76
17, 17691, Note_on_c, 15, 39, 0
17, 17700, Note_on_c, 15, 36, 76
17, 17721, Note_on_c, 15, 36, 0
17, 17730, Note_on_c, 15, 38, 76
17, 17751, Note_on_c, 15, 38, 0
17, 17760, Note_on_c, 15, 39, 76
17, 17781, Note_on_c, 15, 39, 0
17, 17790, Note_on_c, 15, 38, 72
17, 17811, Note_on_c, 15, 38, 0
17, 17820, Note_on_c, 15, 36, 68
17, 17841, Note_on_c, 15, 36, 0
17, 17850, Note_on_c, 15, 34, 64
17, 17871, Note_on_c, 15, 34, 0
17, 17880, Note_on_c, 15, 33, 60
17, 17901, Note_on_c, 15, 33, 0
17, 17910, Note_on_c, 15, 41, 56
17, 17931, Note_on_c, 15, 41, 0
17, 17940, Note_on_c, 15, 39, 52
17, 17961, Note_on_c, 15, 39, 0
17, 17970, Note_on_c, 15, 36, 48
17, 17991, Note_on_c, 15, 36, 0
17, 18000, Note_on_c, 15, 34, 44
17, 18719, Note_on_c, 15, 34, 0
17, 18720, Note_on_c, 15, 34, 44
17, 19431, Note_on_c, 15, 34, 0
17, 19440, Note_on_c, 15, 34, 44
17, 19559, Note_on_c, 15, 34, 0
17, 21360, Program_c, 15, 45
17, 21480, Note_on_c, 15, 46, 54
17, 21599, Note_on_c, 15, 46, 0
17, 21600, Note_on_c, 15, 39, 48
17, 21719, Note_on_c, 15, 39, 0
17, 21840, Note_on_c, 15, 41, 48
17, 21959, Note_on_c, 15, 41, 0
17, 22080, Note_on_c, 15, 39, 48
17, 22199, Note_on_c, 15, 39, 0
17, 22318, Program_c, 15, 48
17, 22320, Note_on_c, 15, 38, 52
17, 22409, Note_on_c, 15, 38, 0
17, 22440, Note_on_c, 15, 53, 52
17, 22529, Note_on_c, 15, 53, 0
17, 22560, Note_on_c, 15, 50, 56
17, 22649, Note_on_c, 15, 50, 0
17, 22680, Note_on_c, 15, 47, 61
17, 22769, Note_on_c, 15, 47, 0
17, 22800, Note_on_c, 15, 44, 66
17, 22889, Note_on_c, 15, 44, 0
17, 22920, Note_on_c, 15, 41, 71
17, 23009, Note_on_c, 15, 41, 0
17, 23040, Note_on_c, 15, 38, 76
17, 23159, Note_on_c, 15, 38, 0
17, 23160, Note_on_c, 15, 35, 76
17, 23249, Note_on_c, 15, 35, 0
17, 23250, Note_on_c, 15, 32, 76
17, 23279, Note_on_c, 15, 32, 0
17, 23280, Note_on_c, 15, 31, 76
17, 23399, Note_on_c, 15, 31, 0
17, 23400, Note_on_c, 15, 27, 76
17, 23511, Note_on_c, 15, 27, 0
17, 23520, Note_on_c, 15, 29, 76
17, 23631, Note_on_c, 15, 29, 0
17, 23640, Note_on_c, 15, 29, 76
17, 23751, Note_on_c, 15, 29, 0
17, 23760, Note_on_c, 15, 34, 52
17, 23804, Note_on_c, 15, 34, 0
17, 23850, Note_on_c, 15, 29, 52
17, 23871, Note_on_c, 15, 29, 0
17, 23880, Note_on_c, 15, 34, 52
17, 23924, Note_on_c, 15, 34, 0
17, 23970, Note_on_c, 15, 29, 52
17, 23991, Note_on_c, 15, 29, 0
17, 24000, Note_on_c, 15, 34, 52
17, 24044, Note_on_c, 15, 34, 0
17, 24090, Note_on_c, 15, 29, 52
17, 24111, Note_on_c, 15, 29, 0
17, 24120, Note_on_c, 15, 34, 52
17, 24164, Note_on_c, 15, 34, 0
17, 24210, Note_on_c, 15, 29, 52
17, 24231, Note_on_c, 15, 29, 0
17, 24240, Note_on_c, 15, 34, 52
17, 24284, Note_on_c, 15, 34, 0
17, 24330, Note_on_c, 15, 29, 52
17, 24351, Note_on_c, 15, 29, 0
17, 24360, Note_on_c, 15, 34, 52
17, 24404, Note_on_c, 15, 34, 0
17, 24450, Note_on_c, 15, 29, 52
17, 24471, Note_on_c, 15, 29, 0
17, 24480, Note_on_c, 15, 34, 52
17, 24524, Note_on_c, 15, 34, 0
17, 24570, Note_on_c, 15, 29, 52
17, 24591, Note_on_c, 15, 29, 0
17, 24600, Note_on_c, 15, 34, 52
17, 24644, Note_on_c, 15, 34, 0
17, 24690, Note_on_c, 15, 29, 52
17, 24711, Note_on_c, 15, 29, 0
17, 24720, Note_on_c, 15, 34, 52
17, 24764, Note_on_c, 15, 34, 0
17, 24810, Note_on_c, 15, 29, 52
17, 24831, Note_on_c, 15, 29, 0
17, 24840, Note_on_c, 15, 34, 52
17, 24884, Note_on_c, 15, 34, 0
17, 24930, Note_on_c, 15, 29, 52
17, 24951, Note_on_c, 15, 29, 0
17, 24960, Note_on_c, 15, 34, 52
17, 25004, Note_on_c, 15, 34, 0
17, 25050, Note_on_c, 15, 29, 52
17, 25071, Note_on_c, 15, 29, 0
17, 25080, Note_on_c, 15, 34, 52
17, 25124, Note_on_c, 15, 34, 0
17, 25170, Note_on_c, 15, 29, 52
17, 25191, Note_on_c, 15, 29, 0
17, 25200, Note_on_c, 15, 34, 52
17, 25244, Note_on_c, 15, 34, 0
17, 25290, Note_on_c, 15, 29, 52
17, 25311, Note_on_c, 15, 29, 0
17, 25320, Note_on_c, 15, 34, 52
17, 25364, Note_on_c, 15, 34, 0
17, 25410, Note_on_c, 15, 29, 52
17, 25431, Note_on_c, 15, 29, 0
17, 25440, Note_on_c, 15, 34, 52
17, 25484, Note_on_c, 15, 34, 0
17, 25530, Note_on_c, 15, 29, 52
17, 25551, Note_on_c, 15, 29, 0
17, 25560, Note_on_c, 15, 34, 52
17, 25604, Note_on_c, 15, 34, 0
17, 25650, Note_on_c, 15, 29, 52
17, 25671, Note_on_c, 15, 29, 0
17, 25680, Note_on_c, 15, 34, 52
17, 25724, Note_on_c, 15, 34, 0
17, 25770, Note_on_c, 15, 29, 52
17, 25791, Note_on_c, 15, 29, 0
17, 25800, Note_on_c, 15, 34, 52
17, 25844, Note_on_c, 15, 34, 0
17, 25890, Note_on_c, 15, 29, 52
17, 25911, Note_on_c, 15, 29, 0
17, 25920, Note_on_c, 15, 34, 52
17, 25964, Note_on_c, 15, 34, 0
17, 26010, Note_on_c, 15, 29, 52
17, 26031, Note_on_c, 15, 29, 0
17, 26040, Note_on_c, 15, 34, 52
17, 26084, Note_on_c, 15, 34, 0
17, 26130, Note_on_c, 15, 29, 52
17, 26151, Note_on_c, 15, 29, 0
17, 26160, Note_on_c, 15, 34, 52
17, 26204, Note_on_c, 15, 34, 0
17, 26250, Note_on_c, 15, 29, 52
17, 26271, Note_on_c, 15, 29, 0
17, 26280, Note_on_c, 15, 34, 52
17, 26324, Note_on_c, 15, 34, 0
17, 26370, Note_on_c, 15, 29, 52
17, 26391, Note_on_c, 15, 29, 0
17, 26400, Note_on_c, 15, 34, 52
17, 26444, Note_on_c, 15, 34, 0
17, 26490, Note_on_c, 15, 29, 52
17, 26511, Note_on_c, 15, 29, 0
17, 26520, Note_on_c, 15, 34, 52
17, 26564, Note_on_c, 15, 34, 0
17, 26610, Note_on_c, 15, 29, 52
17, 26631, Note_on_c, 15, 29, 0
17, 26640, Note_on_c, 15, 34, 52
17, 26684, Note_on_c, 15, 34, 0
17, 26730, Note_on_c, 15, 34, 54
17, 26751, Note_on_c, 15, 34, 0
17, 26760, Note_on_c, 15, 38, 54
17, 26804, Note_on_c, 15, 38, 0
17, 26850, Note_on_c, 15, 34, 56
17, 26871, Note_on_c, 15, 34, 0
17, 26880, Note_on_c, 15, 41, 57
17, 26924, Note_on_c, 15, 41, 0
17, 26970, Note_on_c, 15, 38, 59
17, 26991, Note_on_c, 15, 38, 0
17, 27000, Note_on_c, 15, 46, 60
17, 27044, Note_on_c, 15, 46, 0
17, 27090, Note_on_c, 15, 41, 62
17, 27111, Note_on_c, 15, 41, 0
17, 27120, Note_on_c, 15, 50, 62
17, 27164, Note_on_c, 15, 50, 0
17, 27210, Note_on_c, 15, 46, 64
17, 27231, Note_on_c, 15, 46, 0
17, 27240, Note_on_c, 15, 53, 65
17, 27284, Note_on_c, 15, 53, 0
17, 27330, Note_on_c, 15, 50, 67
17, 27351, Note_on_c, 15, 50, 0
17, 27358, Control_c, 15, 11, 96
17, 27360, Note_on_c, 15, 56, 84
17, 27360, Control_c, 15, 11, 96
17, 27383, Control_c, 15, 11, 97
17, 27406, Control_c, 15, 11, 98
17, 27430, Control_c, 15, 11, 99
17, 27453, Control_c, 15, 11, 100
17, 27476, Control_c, 15, 11, 101
17, 27499, Control_c, 15, 11, 102
17, 27523, Control_c, 15, 11, 103
17, 27546, Control_c, 15, 11, 104
17, 27569, Control_c, 15, 11, 105
17, 27592, Control_c, 15, 11, 106
17, 27615, Control_c, 15, 11, 107
17, 27639, Control_c, 15, 11, 108
17, 27662, Control_c, 15, 11, 109
17, 27685, Control_c, 15, 11, 110
17, 27708, Control_c, 15, 11, 111
17, 27732, Control_c, 15, 11, 112
17, 27755, Control_c, 15, 11, 113
17, 27778, Control_c, 15, 11, 114
17, 27801, Control_c, 15, 11, 115
17, 27825, Control_c, 15, 11, 116
17, 27848, Control_c, 15, 11, 117
17, 27871, Control_c, 15, 11, 118
17, 27894, Control_c, 15, 11, 119
17, 27917, Control_c, 15, 11, 120
17, 27941, Control_c, 15, 11, 121
17, 27964, Control_c, 15, 11, 122
17, 27987, Control_c, 15, 11, 123
17, 28010, Control_c, 15, 11, 124
17, 28034, Control_c, 15, 11, 125
17, 28057, Control_c, 15, 11, 127
17, 28139, Note_on_c, 15, 56, 0
17, 28170, Note_on_c, 15, 53, 84
17, 28191, Note_on_c, 15, 53, 0
17, 28200, Note_on_c, 15, 50, 84
17, 28244, Note_on_c, 15, 50, 0
17, 28290, Note_on_c, 15, 46, 84
17, 28311, Note_on_c, 15, 46, 0
17, 28320, Note_on_c, 15, 44, 84
17, 28364, Note_on_c, 15, 44, 0
17, 28410, Note_on_c, 15, 41, 84
17, 28431, Note_on_c, 15, 41, 0
17, 28440, Note_on_c, 15, 38, 84
17, 28484, Note_on_c, 15, 38, 0
17, 28530, Note_on_c, 15, 46, 84
17, 28551, Note_on_c, 15, 46, 0
17, 28560, Note_on_c, 15, 44, 84
17, 28604, Note_on_c, 15, 44, 0
17, 28650, Note_on_c, 15, 41, 84
17, 28671, Note_on_c, 15, 41, 0
17, 28680, Note_on_c, 15, 38, 84
17, 28724, Note_on_c, 15, 38, 0
17, 28770, Note_on_c, 15, 34, 84
17, 28791, Note_on_c, 15, 34, 0
17, 28800, Note_on_c, 15, 39, 84
17, 28919, Note_on_c, 15, 39, 0
17, 34560, Note_on_c, 15, 39, 76
17, 34604, Note_on_c, 15, 39, 0
17, 34650, Note_on_c, 15, 34, 76
17, 34671, Note_on_c, 15, 34, 0
17, 34680, Note_on_c, 15, 39, 76
17, 34724, Note_on_c, 15, 39, 0
17, 34770, Note_on_c, 15, 34, 76
17, 34791, Note_on_c, 15, 34, 0
17, 34800, Note_on_c, 15, 39, 76
17, 34844, Note_on_c, 15, 39, 0
17, 34890, Note_on_c, 15, 34, 76
17, 34911, Note_on_c, 15, 34, 0
17, 34920, Note_on_c, 15, 39, 76
17, 34964, Note_on_c, 15, 39, 0
17, 35010, Note_on_c, 15, 34, 76
17, 35031, Note_on_c, 15, 34, 0
17, 35040, Note_on_c, 15, 39, 76
17, 35084, Note_on_c, 15, 39, 0
17, 35130, Note_on_c, 15, 34, 76
17, 35151, Note_on_c, 15, 34, 0
17, 35160, Note_on_c, 15, 39, 76
17, 35204, Note_on_c, 15, 39, 0
17, 35250, Note_on_c, 15, 34, 76
17, 35271, Note_on_c, 15, 34, 0
17, 35280, Note_on_c, 15, 42, 84
17, 35391, Note_on_c, 15, 42, 0
17, 35400, Note_on_c, 15, 42, 84
17, 35511, Note_on_c, 15, 42, 0
17, 35520, Note_on_c, 15, 41, 92
17, 35624, Note_on_c, 15, 41, 0
17, 35640, Note_on_c, 15, 41, 84
17, 35751, Note_on_c, 15, 41, 0
17, 35760, Note_on_c, 15, 39, 92
17, 35864, Note_on_c, 15, 39, 0
17, 35880, Note_on_c, 15, 39, 84
17, 35991, Note_on_c, 15, 39, 0
17, 36000, Note_on_c, 15, 37, 92
17, 36104, Note_on_c, 15, 37, 0
17, 36120, Note_on_c, 15, 37, 84
17, 36231, Note_on_c, 15, 37, 0
17, 36240, Note_on_c, 15, 35, 92
17, 36344, Note_on_c, 15, 35, 0
17, 36360, Note_on_c, 15, 35, 84
17, 36471, Note_on_c, 15, 35, 0
17, 36480, Note_on_c, 15, 34, 92
17, 36584, Note_on_c, 15, 34, 0
17, 36600, Note_on_c, 15, 34, 84
17, 36711, Note_on_c, 15, 34, 0
17, 36720, Note_on_c, 15, 32, 92
17, 36824, Note_on_c, 15, 32, 0
17, 36840, Note_on_c, 15, 32, 84
17, 36951, Note_on_c, 15, 32, 0
17, 36960, Note_on_c, 15, 30, 92
17, 37064, Note_on_c, 15, 30, 0
17, 37080, Note_on_c, 15, 30, 84
17, 37191, Note_on_c, 15, 30, 0
17, 37200, Note_on_c, 15, 29, 92
17, 37304, Note_on_c, 15, 29, 0
17, 37320, Note_on_c, 15, 29, 84
17, 37431, Note_on_c, 15, 29, 0
17, 37440, Note_on_c, 15, 30, 92
17, 37465, Note_on_c, 15, 30, 0
17, 37470, Note_on_c, 15, 30, 84
17, 37495, Note_on_c, 15, 30, 0
17, 37500, Note_on_c, 15, 30, 84
17, 37525, Note_on_c, 15, 30, 0
17, 37530, Note_on_c, 15, 30, 84
17, 37555, Note_on_c, 15, 30, 0
17, 37560, Note_on_c, 15, 30, 84
17, 37585, Note_on_c, 15, 30, 0
17, 37590, Note_on_c, 15, 30, 84
17, 37615, Note_on_c, 15, 30, 0
17, 37620, Note_on_c, 15, 30, 84
17, 37645, Note_on_c, 15, 30, 0
17, 37650, Note_on_c, 15, 30, 84
17, 37675, Note_on_c, 15, 30, 0
17, 37680, Note_on_c, 15, 29, 92
17, 37705, Note_on_c, 15, 29, 0
17, 37710, Note_on_c, 15, 29, 84
17, 37735, Note_on_c, 15, 29, 0
17, 37740, Note_on_c, 15, 29, 84
17, 37765, Note_on_c, 15, 29, 0
17, 37770, Note_on_c, 15, 29, 84
17, 37795, Note_on_c, 15, 29, 0
17, 37800, Note_on_c, 15, 29, 84
17, 37825, Note_on_c, 15, 29, 0
17, 37830, Note_on_c, 15, 29, 84
17, 37855, Note_on_c, 15, 29, 0
17, 37860, Note_on_c, 15, 29, 84
17, 37885, Note_on_c, 15, 29, 0
17, 37890, Note_on_c, 15, 29, 84
17, 37915, Note_on_c, 15, 29, 0
17, 37920, Note_on_c, 15, 27, 92
17, 37945, Note_on_c, 15, 27, 0
17, 37950, Note_on_c, 15, 27, 84
17, 37975, Note_on_c, 15, 27, 0
17, 37980, Note_on_c, 15, 27, 84
17, 38005, Note_on_c, 15, 27, 0
17, 38010, Note_on_c, 15, 27, 84
17, 38035, Note_on_c, 15, 27, 0
17, 38040, Note_on_c, 15, 27, 84
17, 38065, Note_on_c, 15, 27, 0
17, 38070, Note_on_c, 15, 27, 84
17, 38095, Note_on_c, 15, 27, 0
17, 38100, Note_on_c, 15, 27, 84
17, 38125, Note_on_c, 15, 27, 0
17, 38130, Note_on_c, 15, 27, 84
17, 38155, Note_on_c, 15, 27, 0
17, 38160, Note_on_c, 15, 25, 52
17, 38279, Note_on_c, 15, 25, 0
17, 43920, Note_on_c, 15, 34, 44
17, 43964, Note_on_c, 15, 34, 0
17, 44010, Note_on_c, 15, 29, 44
17, 44031, Note_on_c, 15, 29, 0
17, 44040, Note_on_c, 15, 34, 44
17, 44084, Note_on_c, 15, 34, 0
17, 44130, Note_on_c, 15, 29, 44
17, 44151, Note_on_c, 15, 29, 0
17, 44160, Note_on_c, 15, 34, 44
17, 44204, Note_on_c, 15, 34, 0
17, 44250, Note_on_c, 15, 29, 44
17, 44271, Note_on_c, 15, 29, 0
17, 44280, Note_on_c, 15, 34, 44
17, 44324, Note_on_c, 15, 34, 0
17, 44370, Note_on_c, 15, 29, 44
17, 44391, Note_on_c, 15, 29, 0
17, 44400, Note_on_c, 15, 34, 44
17, 44444, Note_on_c, 15, 34, 0
17, 44490, Note_on_c, 15, 29, 44
17, 44511, Note_on_c, 15, 29, 0
17, 44520, Note_on_c, 15, 34, 44
17, 44564, Note_on_c, 15, 34, 0
17, 44610, Note_on_c, 15, 29, 44
17, 44631, Note_on_c, 15, 29, 0
17, 44640, Note_on_c, 15, 34, 44
17, 44759, Note_on_c, 15, 34, 0
17, 45840, Program_c, 15, 45
17, 46080, Note_on_c, 15, 39, 44
17, 46199, Note_on_c, 15, 39, 0
17, 46200, Note_on_c, 15, 39, 44
17, 46319, Note_on_c, 15, 39, 0
17, 46320, Note_on_c, 15, 39, 44
17, 46439, Note_on_c, 15, 39, 0
17, 46440, Note_on_c, 15, 39, 44
17, 46559, Note_on_c, 15, 39, 0
17, 46560, Note_on_c, 15, 39, 44
17, 46679, Note_on_c, 15, 39, 0
17, 46680, Note_on_c, 15, 39, 44
17, 46799, Note_on_c, 15, 39, 0
17, 46800, Note_on_c, 15, 39, 44
17, 46919, Note_on_c, 15, 39, 0
17, 46920, Note_on_c, 15, 39, 44
17, 47039, Note_on_c, 15, 39, 0
17, 47040, Note_on_c, 15, 39, 44
17, 47159, Note_on_c, 15, 39, 0
17, 47160, Note_on_c, 15, 39, 44
17, 47279, Note_on_c, 15, 39, 0
17, 47280, Note_on_c, 15, 39, 44
17, 47399, Note_on_c, 15, 39, 0
17, 47400, Note_on_c, 15, 32, 44
17, 47519, Note_on_c, 15, 32, 0
17, 47520, Note_on_c, 15, 34, 44
17, 47639, Note_on_c, 15, 34, 0
17, 47640, Note_on_c, 15, 34, 44
17, 47759, Note_on_c, 15, 34, 0
17, 47760, Note_on_c, 15, 34, 44
17, 47879, Note_on_c, 15, 34, 0
17, 47880, Note_on_c, 15, 34, 44
17, 47999, Note_on_c, 15, 34, 0
17, 48000, Note_on_c, 15, 34, 44
17, 48119, Note_on_c, 15, 34, 0
17, 48120, Note_on_c, 15, 34, 44
17, 48239, Note_on_c, 15, 34, 0
17, 48240, Note_on_c, 15, 34, 44
17, 48359, Note_on_c, 15, 34, 0
17, 48360, Note_on_c, 15, 34, 48
17, 48479, Note_on_c, 15, 34, 0
17, 48480, Note_on_c, 15, 34, 52
17, 48599, Note_on_c, 15, 34, 0
17, 48600, Note_on_c, 15, 34, 56
17, 48719, Note_on_c, 15, 34, 0
17, 48720, Note_on_c, 15, 31, 68
17, 48839, Note_on_c, 15, 31, 0
17, 48840, Note_on_c, 15, 31, 60
17, 48959, Note_on_c, 15, 31, 0
17, 48960, Note_on_c, 15, 32, 48
17, 49079, Note_on_c, 15, 32, 0
17, 49080, Note_on_c, 15, 32, 48
17, 49199, Note_on_c, 15, 32, 0
17, 49200, Note_on_c, 15, 32, 48
17, 49319, Note_on_c, 15, 32, 0
17, 49320, Note_on_c, 15, 32, 48
17, 49439, Note_on_c, 15, 32, 0
17, 49440, Note_on_c, 15, 32, 48
17, 49559, Note_on_c, 15, 32, 0
17, 49560, Note_on_c, 15, 32, 48
17, 49679, Note_on_c, 15, 32, 0
17, 49680, Note_on_c, 15, 34, 48
17, 49799, Note_on_c, 15, 34, 0
17, 49800, Note_on_c, 15, 34, 48
17, 49919, Note_on_c, 15, 34, 0
17, 49920, Note_on_c, 15, 34, 48
17, 50039, Note_on_c, 15, 34, 0
17, 50040, Note_on_c, 15, 36, 48
17, 50159, Note_on_c, 15, 36, 0
17, 50160, Note_on_c, 15, 32, 48
17, 50279, Note_on_c, 15, 32, 0
17, 50280, Note_on_c, 15, 29, 48
17, 50399, Note_on_c, 15, 29, 0
17, 50400, Note_on_c, 15, 34, 48
17, 50519, Note_on_c, 15, 34, 0
17, 50520, Note_on_c, 15, 34, 51
17, 50639, Note_on_c, 15, 34, 0
17, 50640, Note_on_c, 15, 34, 54
17, 50759, Note_on_c, 15, 34, 0
17, 50760, Note_on_c, 15, 34, 58
17, 50879, Note_on_c, 15, 34, 0
17, 50880, Note_on_c, 15, 34, 61
17, 50999, Note_on_c, 15, 34, 0
17, 51000, Note_on_c, 15, 34, 64
17, 51104, Note_on_c, 15, 34, 0
17, 51118, Program_c, 15, 48
17, 51120, Note_on_c, 15, 39, 76
17, 51239, Note_on_c, 15, 39, 0
17, 51360, Note_on_c, 15, 39, 76
17, 51479, Note_on_c, 15, 39, 0
17, 51600, Note_on_c, 15, 39, 76
17, 51719, Note_on_c, 15, 39, 0
17, 51840, Note_on_c, 15, 39, 76
17, 51899, Note_on_c, 15, 39, 0
17, 51900, Note_on_c, 15, 39, 52
17, 51951, Note_on_c, 15, 39, 0
17, 51960, Note_on_c, 15, 39, 52
17, 52071, Note_on_c, 15, 39, 0
17, 52080, Note_on_c, 15, 39, 52
17, 52191, Note_on_c, 15, 39, 0
17, 52200, Note_on_c, 15, 39, 52
17, 52311, Note_on_c, 15, 39, 0
17, 52320, Note_on_c, 15, 39, 52
17, 52431, Note_on_c, 15, 39, 0
17, 52440, Note_on_c, 15, 39, 52
17, 52551, Note_on_c, 15, 39, 0
17, 52560, Note_on_c, 15, 39, 76
17, 52679, Note_on_c, 15, 39, 0
17, 52800, Note_on_c, 15, 39, 76
17, 52919, Note_on_c, 15, 39, 0
17, 53040, Note_on_c, 15, 39, 76
17, 53159, Note_on_c, 15, 39, 0
17, 53280, Note_on_c, 15, 36, 76
17, 53339, Note_on_c, 15, 36, 0
17, 53340, Note_on_c, 15, 36, 52
17, 53391, Note_on_c, 15, 36, 0
17, 53400, Note_on_c, 15, 36, 52
17, 53511, Note_on_c, 15, 36, 0
17, 53520, Note_on_c, 15, 36, 52
17, 53631, Note_on_c, 15, 36, 0
17, 53640, Note_on_c, 15, 36, 52
17, 53751, Note_on_c, 15, 36, 0
17, 53760, Note_on_c, 15, 36, 52
17, 53871, Note_on_c, 15, 36, 0
17, 53880, Note_on_c, 15, 36, 52
17, 53991, Note_on_c, 15, 36, 0
17, 54000, Note_on_c, 15, 29, 76
17, 54119, Note_on_c, 15, 29, 0
17, 54240, Note_on_c, 15, 29, 76
17, 54359, Note_on_c, 15, 29, 0
17, 54480, Note_on_c, 15, 29, 76
17, 54599, Note_on_c, 15, 29, 0
17, 54720, Note_on_c, 15, 34, 76
17, 54779, Note_on_c, 15, 34, 0
17, 54780, Note_on_c, 15, 34, 52
17, 55431, Note_on_c, 15, 34, 0
17, 55440, Note_on_c, 15, 34, 76
17, 55499, Note_on_c, 15, 34, 0
17, 55500, Note_on_c, 15, 34, 52
17, 56151, Note_on_c, 15, 34, 0
17, 56160, Note_on_c, 15, 44, 52
17, 56181, Note_on_c, 15, 44, 0
17, 56190, Note_on_c, 15, 41, 53
17, 56211, Note_on_c, 15, 41, 0
17, 56220, Note_on_c, 15, 40, 54
17, 56241, Note_on_c, 15, 40, 0
17, 56250, Note_on_c, 15, 41, 55
17, 56271, Note_on_c, 15, 41, 0
17, 56280, Note_on_c, 15, 44, 56
17, 56301, Note_on_c, 15, 44, 0
17, 56310, Note_on_c, 15, 41, 57
17, 56331, Note_on_c, 15, 41, 0
17, 56340, Note_on_c, 15, 43, 58
17, 56361, Note_on_c, 15, 43, 0
17, 56370, Note_on_c, 15, 39, 59
17, 56391, Note_on_c, 15, 39, 0
17, 56400, Note_on_c, 15, 41, 60
17, 56421, Note_on_c, 15, 41, 0
17, 56430, Note_on_c, 15, 38, 61
17, 56451, Note_on_c, 15, 38, 0
17, 56460, Note_on_c, 15, 39, 62
17, 56481, Note_on_c, 15, 39, 0
17, 56490, Note_on_c, 15, 36, 63
17, 56511, Note_on_c, 15, 36, 0
17, 56520, Note_on_c, 15, 38, 64
17, 56541, Note_on_c, 15, 38, 0
17, 56550, Note_on_c, 15, 34, 65
17, 56571, Note_on_c, 15, 34, 0
17, 56580, Note_on_c, 15, 39, 66
17, 56601, Note_on_c, 15, 39, 0
17, 56610, Note_on_c, 15, 36, 67
17, 56631, Note_on_c, 15, 36, 0
17, 56640, Note_on_c, 15, 41, 68
17, 56661, Note_on_c, 15, 41, 0
17, 56670, Note_on_c, 15, 38, 69
17, 56691, Note_on_c, 15, 38, 0
17, 56700, Note_on_c, 15, 43, 70
17, 56721, Note_on_c, 15, 43, 0
17, 56730, Note_on_c, 15, 39, 71
17, 56751, Note_on_c, 15, 39, 0
17, 56760, Note_on_c, 15, 44, 72
17, 56781, Note_on_c, 15, 44, 0
17, 56790, Note_on_c, 15, 41, 73
17, 56811, Note_on_c, 15, 41, 0
17, 56820, Note_on_c, 15, 46, 74
17, 56841, Note_on_c, 15, 46, 0
17, 56850, Note_on_c, 15, 43, 75
17, 56871, Note_on_c, 15, 43, 0
17, 56880, Note_on_c, 15, 48, 76
17, 56901, Note_on_c, 15, 48, 0
17, 56910, Note_on_c, 15, 44, 76
17, 56931, Note_on_c, 15, 44, 0
17, 56940, Note_on_c, 15, 41, 76
17, 56961, Note_on_c, 15, 41, 0
17, 56970, Note_on_c, 15, 43, 76
17, 56991, Note_on_c, 15, 43, 0
17, 57000, Note_on_c, 15, 44, 76
17, 57021, Note_on_c, 15, 44, 0
17, 57030, Note_on_c, 15, 41, 76
17, 57051, Note_on_c, 15, 41, 0
17, 57060, Note_on_c, 15, 38, 76
17, 57081, Note_on_c, 15, 38, 0
17, 57090, Note_on_c, 15, 39, 76
17, 57111, Note_on_c, 15, 39, 0
17, 57120, Note_on_c, 15, 41, 76
17, 57141, Note_on_c, 15, 41, 0
17, 57150, Note_on_c, 15, 38, 76
17, 57171, Note_on_c, 15, 38, 0
17, 57180, Note_on_c, 15, 32, 76
17, 57201, Note_on_c, 15, 32, 0
17, 57210, Note_on_c, 15, 34, 76
17, 57231, Note_on_c, 15, 34, 0
17, 57240, Note_on_c, 15, 36, 76
17, 57261, Note_on_c, 15, 36, 0
17, 57270, Note_on_c, 15, 34, 76
17, 57291, Note_on_c, 15, 34, 0
17, 57300, Note_on_c, 15, 32, 76
17, 57321, Note_on_c, 15, 32, 0
17, 57330, Note_on_c, 15, 31, 76
17, 57351, Note_on_c, 15, 31, 0
17, 57360, Note_on_c, 15, 29, 76
17, 57381, Note_on_c, 15, 29, 0
17, 57390, Note_on_c, 15, 39, 72
17, 57411, Note_on_c, 15, 39, 0
17, 57420, Note_on_c, 15, 38, 68
17, 57441, Note_on_c, 15, 38, 0
17, 57450, Note_on_c, 15, 36, 64
17, 57471, Note_on_c, 15, 36, 0
17, 57480, Note_on_c, 15, 34, 60
17, 57501, Note_on_c, 15, 34, 0
17, 57510, Note_on_c, 15, 46, 56
17, 57531, Note_on_c, 15, 46, 0
17, 57540, Note_on_c, 15, 44, 52
17, 57561, Note_on_c, 15, 44, 0
17, 57570, Note_on_c, 15, 41, 48
17, 57591, Note_on_c, 15, 41, 0
17, 57600, Note_on_c, 15, 39, 44
17, 58319, Note_on_c, 15, 39, 0
17, 58320, Note_on_c, 15, 39, 44
17, 59031, Note_on_c, 15, 39, 0
17, 59040, Note_on_c, 15, 39, 44
17, 59159, Note_on_c, 15, 39, 0
17, 60960, Program_c, 15, 45
17, 61080, Note_on_c, 15, 39, 44
17, 61199, Note_on_c, 15, 39, 0
17, 61200, Note_on_c, 15, 44, 44
17, 61319, Note_on_c, 15, 44, 0
17, 61440, Note_on_c, 15, 46, 44
17, 61559, Note_on_c, 15, 46, 0
17, 61680, Note_on_c, 15, 44, 44
17, 61799, Note_on_c, 15, 44, 0
17, 61918, Program_c, 15, 48
17, 61920, Note_on_c, 15, 31, 52
17, 62009, Note_on_c, 15, 31, 0
17, 62040, Note_on_c, 15, 46, 56
17, 62129, Note_on_c, 15, 46, 0
17, 62160, Note_on_c, 15, 43, 60
17, 62249, Note_on_c, 15, 43, 0
17, 62280, Note_on_c, 15, 40, 64
17, 62369, Note_on_c, 15, 40, 0
17, 62400, Note_on_c, 15, 37, 68
17, 62489, Note_on_c, 15, 37, 0
17, 62520, Note_on_c, 15, 46, 72
17, 62609, Note_on_c, 15, 46, 0
17, 62640, Note_on_c, 15, 43, 76
17, 62759, Note_on_c, 15, 43, 0
17, 62760, Note_on_c, 15, 40, 76
17, 62849, Note_on_c, 15, 40, 0
17, 62850, Note_on_c, 15, 37, 76
17, 62879, Note_on_c, 15, 37, 0
17, 62880, Note_on_c, 15, 36, 76
17, 62999, Note_on_c, 15, 36, 0
17, 63000, Note_on_c, 15, 32, 76
17, 63111, Note_on_c, 15, 32, 0
17, 63120, Note_on_c, 15, 34, 76
17, 63231, Note_on_c, 15, 34, 0
17, 63240, Note_on_c, 15, 34, 76
17, 63351, Note_on_c, 15, 34, 0
17, 63360, Note_on_c, 15, 39, 52
17, 63404, Note_on_c, 15, 39, 0
17, 63450, Note_on_c, 15, 34, 52
17, 63471, Note_on_c, 15, 34, 0
17, 63480, Note_on_c, 15, 39, 52
17, 63524, Note_on_c, 15, 39, 0
17, 63570, Note_on_c, 15, 34, 52
17, 63591, Note_on_c, 15, 34, 0
17, 63600, Note_on_c, 15, 39, 52
17, 63644, Note_on_c, 15, 39, 0
17, 63690, Note_on_c, 15, 34, 52
17, 63711, Note_on_c, 15, 34, 0
17, 63720, Note_on_c, 15, 39, 52
17, 63764, Note_on_c, 15, 39, 0
17, 63810, Note_on_c, 15, 34, 52
17, 63831, Note_on_c, 15, 34, 0
17, 63840, Note_on_c, 15, 39, 52
17, 63884, Note_on_c, 15, 39, 0
17, 63930, Note_on_c, 15, 34, 52
17, 63951, Note_on_c, 15, 34, 0
17, 63960, Note_on_c, 15, 39, 52
17, 64004, Note_on_c, 15, 39, 0
17, 64050, Note_on_c, 15, 34, 52
17, 64071, Note_on_c, 15, 34, 0
17, 64080, Note_on_c, 15, 39, 52
17, 64124, Note_on_c, 15, 39, 0
17, 64170, Note_on_c, 15, 34, 52
17, 64191, Note_on_c, 15, 34, 0
17, 64200, Note_on_c, 15, 39, 52
17, 64244, Note_on_c, 15, 39, 0
17, 64290, Note_on_c, 15, 34, 52
17, 64311, Note_on_c, 15, 34, 0
17, 64320, Note_on_c, 15, 39, 52
17, 64364, Note_on_c, 15, 39, 0
17, 64410, Note_on_c, 15, 34, 52
17, 64431, Note_on_c, 15, 34, 0
17, 64440, Note_on_c, 15, 39, 52
17, 64484, Note_on_c, 15, 39, 0
17, 64530, Note_on_c, 15, 34, 52
17, 64551, Note_on_c, 15, 34, 0
17, 64560, Note_on_c, 15, 39, 52
17, 64604, Note_on_c, 15, 39, 0
17, 64650, Note_on_c, 15, 34, 52
17, 64671, Note_on_c, 15, 34, 0
17, 64680, Note_on_c, 15, 39, 52
17, 64724, Note_on_c, 15, 39, 0
17, 64770, Note_on_c, 15, 34, 52
17, 64791, Note_on_c, 15, 34, 0
17, 64800, Note_on_c, 15, 39, 52
17, 64844, Note_on_c, 15, 39, 0
17, 64890, Note_on_c, 15, 34, 52
17, 64911, Note_on_c, 15, 34, 0
17, 64920, Note_on_c, 15, 39, 52
17, 64964, Note_on_c, 15, 39, 0
17, 65010, Note_on_c, 15, 34, 52
17, 65031, Note_on_c, 15, 34, 0
17, 65040, Note_on_c, 15, 39, 52
17, 65084, Note_on_c, 15, 39, 0
17, 65130, Note_on_c, 15, 34, 52
17, 65151, Note_on_c, 15, 34, 0
17, 65160, Note_on_c, 15, 39, 52
17, 65204, Note_on_c, 15, 39, 0
17, 65250, Note_on_c, 15, 34, 52
17, 65271, Note_on_c, 15, 34, 0
17, 65280, Note_on_c, 15, 39, 52
17, 65324, Note_on_c, 15, 39, 0
17, 65370, Note_on_c, 15, 34, 52
17, 65391, Note_on_c, 15, 34, 0
17, 65400, Note_on_c, 15, 39, 52
17, 65444, Note_on_c, 15, 39, 0
17, 65490, Note_on_c, 15, 34, 52
17, 65511, Note_on_c, 15, 34, 0
17, 65520, Note_on_c, 15, 39, 52
17, 65579, Note_on_c, 15, 39, 0
17, 65610, Note_on_c, 15, 34, 52
17, 65635, Note_on_c, 15, 34, 0
17, 65640, Note_on_c, 15, 39, 52
17, 65699, Note_on_c, 15, 39, 0
17, 65730, Note_on_c, 15, 34, 52
17, 65755, Note_on_c, 15, 34, 0
17, 65760, Note_on_c, 15, 39, 52
17, 65819, Note_on_c, 15, 39, 0
17, 65850, Note_on_c, 15, 34, 52
17, 65875, Note_on_c, 15, 34, 0
17, 65880, Note_on_c, 15, 39, 52
17, 65939, Note_on_c, 15, 39, 0
17, 65970, Note_on_c, 15, 34, 52
17, 65995, Note_on_c, 15, 34, 0
17, 66000, Note_on_c, 15, 39, 52
17, 66059, Note_on_c, 15, 39, 0
17, 66090, Note_on_c, 15, 34, 52
17, 66115, Note_on_c, 15, 34, 0
17, 66120, Note_on_c, 15, 39, 52
17, 66179, Note_on_c, 15, 39, 0
17, 66210, Note_on_c, 15, 34, 52
17, 66235, Note_on_c, 15, 34, 0
17, 66240, Note_on_c, 15, 39, 52
17, 66359, Note_on_c, 15, 39, 0
17, 66720, Note_on_c, 15, 39, 50
17, 66839, Note_on_c, 15, 39, 0
17, 66960, Note_on_c, 15, 39, 48
17, 67079, Note_on_c, 15, 39, 0
17, 67440, Note_on_c, 15, 39, 46
17, 67559, Note_on_c, 15, 39, 0
17, 67680, Note_on_c, 15, 39, 44
17, 67799, Note_on_c, 15, 39, 0
17, 68160, Program_c, 15, 45
17, 68400, Note_on_c, 15, 39, 44
17, 68519, Note_on_c, 15, 39, 0
17, 68880, Note_on_c, 15, 39, 44
17, 68999, Note_on_c, 15, 39, 0
17, 69120, Note_on_c, 15, 39, 44
17, 69359, Note_on_c, 15, 39, 0
17, 69480, Note_on_c, 15, 39, 44
17, 69599, Note_on_c, 15, 39, 0
17, 69600, Note_on_c, 15, 39, 44
17, 69719, Note_on_c, 15, 39, 0
17, 69720, Note_on_c, 15, 32, 44
17, 69839, Note_on_c, 15, 32, 0
17, 69840, Note_on_c, 15, 34, 44
17, 69959, Note_on_c, 15, 34, 0
17, 71280, Program_c, 15, 48
17, 71760, Note_on_c, 15, 38, 62
17, 71781, Note_on_c, 15, 38, 0
17, 71790, Note_on_c, 15, 36, 64
17, 71811, Note_on_c, 15, 36, 0
17, 71820, Note_on_c, 15, 34, 65
17, 71841, Note_on_c, 15, 34, 0
17, 71850, Note_on_c, 15, 32, 66
17, 71871, Note_on_c, 15, 32, 0
17, 71880, Note_on_c, 15, 31, 68
17, 71901, Note_on_c, 15, 31, 0
17, 71910, Note_on_c, 15, 29, 69
17, 71931, Note_on_c, 15, 29, 0
17, 71940, Note_on_c, 15, 27, 70
17, 71961, Note_on_c, 15, 27, 0
17, 71970, Note_on_c, 15, 26, 72
17, 71991, Note_on_c, 15, 26, 0
17, 72000, Note_on_c, 15, 24, 73
17, 72021, Note_on_c, 15, 24, 0
17, 72030, Note_on_c, 15, 26, 74
17, 72051, Note_on_c, 15, 26, 0
17, 72060, Note_on_c, 15, 27, 76
17, 72081, Note_on_c, 15, 27, 0
17, 72090, Note_on_c, 15, 29, 77
17, 72111, Note_on_c, 15, 29, 0
17, 72120, Note_on_c, 15, 31, 78
17, 72141, Note_on_c, 15, 31, 0
17, 72150, Note_on_c, 15, 32, 80
17, 72171, Note_on_c, 15, 32, 0
17, 72180, Note_on_c, 15, 34, 81
17, 72201, Note_on_c, 15, 34, 0
17, 72210, Note_on_c, 15, 36, 82
17, 72231, Note_on_c, 15, 36, 0
17, 72240, Note_on_c, 15, 38, 84
17, 72261, Note_on_c, 15, 38, 0
17, 72270, Note_on_c, 15, 39, 84
17, 72291, Note_on_c, 15, 39, 0
17, 72300, Note_on_c, 15, 41, 84
17, 72321, Note_on_c, 15, 41, 0
17, 72330, Note_on_c, 15, 43, 84
17, 72351, Note_on_c, 15, 43, 0
17, 72360, Note_on_c, 15, 44, 84
17, 72381, Note_on_c, 15, 44, 0
17, 72390, Note_on_c, 15, 46, 84
17, 72411, Note_on_c, 15, 46, 0
17, 72420, Note_on_c, 15, 48, 84
17, 72441, Note_on_c, 15, 48, 0
17, 72450, Note_on_c, 15, 50, 84
17, 72471, Note_on_c, 15, 50, 0
17, 72480, Note_on_c, 15, 51, 84
17, 72599, Note_on_c, 15, 51, 0
17, 73200, Program_c, 15, 45
17, 73440, Note_on_c, 15, 34, 60
17, 73559, Note_on_c, 15, 34, 0
17, 73680, Note_on_c, 15, 34, 60
17, 73799, Note_on_c, 15, 34, 0
17, 73918, Program_c, 15, 48
17, 73920, Note_on_c, 15, 34, 84
17, 74039, Note_on_c, 15, 34, 0
17, 74160, Note_on_c, 15, 27, 84
17, 74279, Note_on_c, 15, 27, 0
17, 74279, End_track
18, 0, Start_track
18, 0, Title_t, "Ludwig van Beethoven - Symphony No. 4, Op.60 - No. 2 Adagio"
18, 0, MIDI_port, 0
18, 0, End_track
0, 0, End_of_file
