0, 0, Header, 1, 21, 240
1, 0, Start_track
1, 0, Sequencer_specific, 10, 0, 0, 91, 35, 1, 0, 5, 6, 42, 0
1, 0, Title_t, "Ludwig van Beethoven - Symphony No. 3 in E-flat Major, Op.55 (Eroica)"
1, 0, Instrument_name_t, "Conductor Track"
1, 0, SMPTE_offset, 96, 0, 3, 0, 0
1, 0, MIDI_port, 0
1, 0, Key_signature, -3, "major"
1, 0, Tempo, 394736
1, 0, Time_signature, 5, 3, 12, 8
1, 600, Time_signature, 2, 2, 24, 8
1, 5160, Tempo, 2000000
1, 5400, Tempo, 394736
1, 14640, Tempo, 3000000
1, 14880, Tempo, 394736
1, 18600, Tempo, 3000000
1, 18720, Tempo, 394736
1, 30120, Tempo, 3000000
1, 30240, Tempo, 394736
1, 33960, Tempo, 3000000
1, 34080, Tempo, 394736
1, 45480, Tempo, 3000000
1, 45600, Tempo, 394736
1, 49320, Tempo, 3000000
1, 49440, Tempo, 394736
1, 60720, Tempo, 2000000
1, 60960, Tempo, 394736
1, 64680, Tempo, 3000000
1, 64800, Tempo, 394736
1, 182040, Tempo, 2000000
1, 182400, Tempo, 1111111
1, 221880, Tempo, 1034482
1, 241080, Tempo, 1034482
1, 241320, Tempo, 1071428
1, 241560, Tempo, 1132075
1, 241800, Tempo, 1176470
1, 242040, Tempo, 2000000
1, 242520, Tempo, 1250000
1, 242520, End_track
2, 0, Start_track
2, 0, Title_t, "4th Movement - Allegro molto (Finale)"
2, 0, MIDI_port, 0
2, 0, End_track
3, 0, Start_track
3, 0, Title_t, "Sequenced by D. L. Viens 4 May 2000"
3, 0, MIDI_port, 0
3, 0, End_track
4, 0, Start_track
4, 0, Title_t, "dlviens@empire.net"
4, 0, MIDI_port, 0
4, 0, End_track
5, 0, Start_track
5, 0, MIDI_port, 0
5, 0, End_track
6, 0, Start_track
6, 0, Title_t, "Flute"
6, 0, MIDI_port, 0
6, 0, Program_c, 0, 73
6, 0, Control_c, 0, 7, 72
6, 0, Control_c, 0, 10, 60
6, 0, Control_c, 0, 11, 127
6, 3000, Note_on_c, 0, 82, 84
6, 3000, Note_on_c, 0, 86, 84
6, 3239, Note_on_c, 0, 82, 0
6, 3239, Note_on_c, 0, 86, 0
6, 3480, Note_on_c, 0, 86, 84
6, 3480, Note_on_c, 0, 89, 84
6, 3599, Note_on_c, 0, 86, 0
6, 3599, Note_on_c, 0, 89, 0
6, 3720, Note_on_c, 0, 86, 84
6, 3720, Note_on_c, 0, 89, 84
6, 3839, Note_on_c, 0, 86, 0
6, 3839, Note_on_c, 0, 89, 0
6, 3960, Note_on_c, 0, 86, 84
6, 3960, Note_on_c, 0, 89, 84
6, 4079, Note_on_c, 0, 86, 0
6, 4079, Note_on_c, 0, 89, 0
6, 4200, Note_on_c, 0, 86, 92
6, 4200, Note_on_c, 0, 89, 92
6, 4319, Note_on_c, 0, 86, 0
6, 4319, Note_on_c, 0, 89, 0
6, 4680, Note_on_c, 0, 89, 92
6, 4680, Note_on_c, 0, 86, 92
6, 4904, Note_on_c, 0, 89, 0
6, 4904, Note_on_c, 0, 86, 0
6, 4920, Note_on_c, 0, 80, 84
6, 4920, Note_on_c, 0, 86, 84
6, 5399, Note_on_c, 0, 80, 0
6, 5399, Note_on_c, 0, 86, 0
6, 9480, Note_on_c, 0, 75, 52
6, 9599, Note_on_c, 0, 75, 0
6, 9960, Note_on_c, 0, 82, 52
6, 10079, Note_on_c, 0, 82, 0
6, 10440, Note_on_c, 0, 70, 52
6, 10559, Note_on_c, 0, 70, 0
6, 10920, Note_on_c, 0, 75, 52
6, 11039, Note_on_c, 0, 75, 0
6, 11280, Note_on_c, 0, 75, 52
6, 11399, Note_on_c, 0, 75, 0
6, 11520, Note_on_c, 0, 74, 52
6, 11639, Note_on_c, 0, 74, 0
6, 11760, Note_on_c, 0, 75, 52
6, 11879, Note_on_c, 0, 75, 0
6, 12000, Note_on_c, 0, 76, 52
6, 12104, Note_on_c, 0, 76, 0
6, 12120, Note_on_c, 0, 77, 52
6, 12209, Note_on_c, 0, 77, 0
6, 12240, Note_on_c, 0, 74, 52
6, 12329, Note_on_c, 0, 74, 0
6, 12360, Note_on_c, 0, 75, 52
6, 12449, Note_on_c, 0, 75, 0
6, 12480, Note_on_c, 0, 69, 52
6, 12569, Note_on_c, 0, 69, 0
6, 12600, Note_on_c, 0, 70, 52
6, 12779, Note_on_c, 0, 70, 0
6, 13560, Note_on_c, 0, 82, 84
6, 13649, Note_on_c, 0, 82, 0
6, 13680, Note_on_c, 0, 82, 84
6, 13769, Note_on_c, 0, 82, 0
6, 13800, Note_on_c, 0, 82, 84
6, 13889, Note_on_c, 0, 82, 0
6, 14520, Note_on_c, 0, 82, 52
6, 14879, Note_on_c, 0, 82, 0
6, 17400, Note_on_c, 0, 82, 84
6, 17489, Note_on_c, 0, 82, 0
6, 17520, Note_on_c, 0, 82, 84
6, 17609, Note_on_c, 0, 82, 0
6, 17640, Note_on_c, 0, 82, 84
6, 17729, Note_on_c, 0, 82, 0
6, 18360, Note_on_c, 0, 82, 52
6, 18719, Note_on_c, 0, 82, 0
6, 19080, Note_on_c, 0, 79, 52
6, 19199, Note_on_c, 0, 79, 0
6, 19560, Note_on_c, 0, 80, 52
6, 19679, Note_on_c, 0, 80, 0
6, 19920, Note_on_c, 0, 82, 52
6, 20039, Note_on_c, 0, 82, 0
6, 20160, Note_on_c, 0, 82, 52
6, 20279, Note_on_c, 0, 82, 0
6, 20520, Note_on_c, 0, 75, 52
6, 20639, Note_on_c, 0, 75, 0
6, 51480, Note_on_c, 0, 82, 52
6, 53369, Note_on_c, 0, 82, 0
6, 53385, Control_c, 0, 11, 96
6, 53400, Note_on_c, 0, 75, 68
6, 53400, Control_c, 0, 11, 96
6, 53400, Note_on_c, 0, 82, 68
6, 53440, Control_c, 0, 11, 99
6, 53480, Control_c, 0, 11, 101
6, 53519, Note_on_c, 0, 82, 0
6, 53520, Note_on_c, 0, 87, 68
6, 53520, Control_c, 0, 11, 104
6, 53560, Control_c, 0, 11, 106
6, 53600, Control_c, 0, 11, 109
6, 53609, Note_on_c, 0, 75, 0
6, 53624, Note_on_c, 0, 87, 0
6, 53640, Control_c, 0, 11, 112
6, 53640, Note_on_c, 0, 82, 68
6, 53640, Note_on_c, 0, 77, 68
6, 53680, Control_c, 0, 11, 114
6, 53720, Control_c, 0, 11, 117
6, 53759, Note_on_c, 0, 82, 0
6, 53760, Control_c, 0, 11, 119
6, 53760, Note_on_c, 0, 89, 68
6, 53800, Control_c, 0, 11, 122
6, 53840, Control_c, 0, 11, 127
6, 53849, Note_on_c, 0, 77, 0
6, 53864, Note_on_c, 0, 89, 0
6, 53880, Note_on_c, 0, 75, 76
6, 53880, Note_on_c, 0, 82, 68
6, 53999, Note_on_c, 0, 82, 0
6, 54000, Note_on_c, 0, 87, 68
6, 54119, Note_on_c, 0, 75, 0
6, 54119, Note_on_c, 0, 87, 0
6, 54960, Note_on_c, 0, 84, 52
6, 55079, Note_on_c, 0, 84, 0
6, 55080, Note_on_c, 0, 77, 52
6, 55199, Note_on_c, 0, 77, 0
6, 55440, Note_on_c, 0, 82, 76
6, 55440, Note_on_c, 0, 87, 76
6, 55529, Note_on_c, 0, 82, 0
6, 55529, Note_on_c, 0, 87, 0
6, 55560, Note_on_c, 0, 82, 76
6, 55560, Note_on_c, 0, 87, 76
6, 55649, Note_on_c, 0, 82, 0
6, 55649, Note_on_c, 0, 87, 0
6, 55680, Note_on_c, 0, 87, 76
6, 55680, Note_on_c, 0, 82, 76
6, 55769, Note_on_c, 0, 87, 0
6, 55769, Note_on_c, 0, 82, 0
6, 55920, Note_on_c, 0, 82, 76
6, 55920, Note_on_c, 0, 86, 76
6, 56009, Note_on_c, 0, 82, 0
6, 56009, Note_on_c, 0, 86, 0
6, 56040, Note_on_c, 0, 82, 76
6, 56040, Note_on_c, 0, 86, 76
6, 56129, Note_on_c, 0, 82, 0
6, 56129, Note_on_c, 0, 86, 0
6, 56160, Note_on_c, 0, 82, 76
6, 56160, Note_on_c, 0, 86, 76
6, 56249, Note_on_c, 0, 82, 0
6, 56249, Note_on_c, 0, 86, 0
6, 56400, Note_on_c, 0, 82, 76
6, 56400, Note_on_c, 0, 89, 76
6, 56489, Note_on_c, 0, 82, 0
6, 56489, Note_on_c, 0, 89, 0
6, 56520, Note_on_c, 0, 89, 76
6, 56520, Note_on_c, 0, 82, 76
6, 56609, Note_on_c, 0, 89, 0
6, 56609, Note_on_c, 0, 82, 0
6, 56640, Note_on_c, 0, 82, 76
6, 56640, Note_on_c, 0, 89, 76
6, 56729, Note_on_c, 0, 82, 0
6, 56729, Note_on_c, 0, 89, 0
6, 56880, Note_on_c, 0, 82, 76
6, 56880, Note_on_c, 0, 87, 76
6, 56969, Note_on_c, 0, 82, 0
6, 56969, Note_on_c, 0, 87, 0
6, 57000, Note_on_c, 0, 87, 76
6, 57000, Note_on_c, 0, 82, 76
6, 57089, Note_on_c, 0, 87, 0
6, 57089, Note_on_c, 0, 82, 0
6, 57120, Note_on_c, 0, 82, 76
6, 57120, Note_on_c, 0, 87, 76
6, 57209, Note_on_c, 0, 82, 0
6, 57209, Note_on_c, 0, 87, 0
6, 57240, Note_on_c, 0, 82, 76
6, 57240, Note_on_c, 0, 87, 76
6, 57344, Note_on_c, 0, 82, 0
6, 57344, Note_on_c, 0, 87, 0
6, 57360, Note_on_c, 0, 87, 76
6, 57360, Note_on_c, 0, 82, 76
6, 57464, Note_on_c, 0, 87, 0
6, 57464, Note_on_c, 0, 82, 0
6, 57480, Note_on_c, 0, 89, 76
6, 57480, Note_on_c, 0, 82, 76
6, 57584, Note_on_c, 0, 89, 0
6, 57584, Note_on_c, 0, 82, 0
6, 57600, Note_on_c, 0, 89, 76
6, 57600, Note_on_c, 0, 82, 76
6, 57704, Note_on_c, 0, 89, 0
6, 57704, Note_on_c, 0, 82, 0
6, 57720, Note_on_c, 0, 82, 84
6, 57720, Note_on_c, 0, 87, 84
6, 57824, Note_on_c, 0, 82, 0
6, 57824, Note_on_c, 0, 87, 0
6, 57840, Note_on_c, 0, 87, 76
6, 57840, Note_on_c, 0, 82, 76
6, 57944, Note_on_c, 0, 87, 0
6, 57944, Note_on_c, 0, 82, 0
6, 57960, Note_on_c, 0, 82, 76
6, 57960, Note_on_c, 0, 88, 76
6, 58064, Note_on_c, 0, 82, 0
6, 58064, Note_on_c, 0, 88, 0
6, 58080, Note_on_c, 0, 82, 76
6, 58080, Note_on_c, 0, 84, 76
6, 58184, Note_on_c, 0, 82, 0
6, 58184, Note_on_c, 0, 84, 0
6, 58200, Note_on_c, 0, 84, 76
6, 58200, Note_on_c, 0, 80, 76
6, 58304, Note_on_c, 0, 84, 0
6, 58304, Note_on_c, 0, 80, 0
6, 58320, Note_on_c, 0, 82, 76
6, 58320, Note_on_c, 0, 89, 76
6, 58424, Note_on_c, 0, 82, 0
6, 58424, Note_on_c, 0, 89, 0
6, 58440, Note_on_c, 0, 82, 76
6, 58440, Note_on_c, 0, 79, 76
6, 58544, Note_on_c, 0, 82, 0
6, 58544, Note_on_c, 0, 79, 0
6, 58560, Note_on_c, 0, 87, 76
6, 58560, Note_on_c, 0, 84, 76
6, 58664, Note_on_c, 0, 87, 0
6, 58664, Note_on_c, 0, 84, 0
6, 58680, Note_on_c, 0, 82, 76
6, 58680, Note_on_c, 0, 87, 76
6, 58784, Note_on_c, 0, 82, 0
6, 58784, Note_on_c, 0, 87, 0
6, 58800, Note_on_c, 0, 87, 76
6, 58800, Note_on_c, 0, 82, 76
6, 58904, Note_on_c, 0, 87, 0
6, 58904, Note_on_c, 0, 82, 0
6, 58920, Note_on_c, 0, 82, 76
6, 58920, Note_on_c, 0, 87, 76
6, 59039, Note_on_c, 0, 82, 0
6, 59039, Note_on_c, 0, 87, 0
6, 63120, Note_on_c, 0, 82, 76
6, 63209, Note_on_c, 0, 82, 0
6, 63240, Note_on_c, 0, 82, 76
6, 63329, Note_on_c, 0, 82, 0
6, 63360, Note_on_c, 0, 82, 76
6, 63449, Note_on_c, 0, 82, 0
6, 63480, Note_on_c, 0, 82, 76
6, 63584, Note_on_c, 0, 82, 0
6, 63600, Note_on_c, 0, 82, 76
6, 63704, Note_on_c, 0, 82, 0
6, 63720, Note_on_c, 0, 82, 76
6, 63839, Note_on_c, 0, 82, 0
6, 64080, Note_on_c, 0, 74, 76
6, 64080, Note_on_c, 0, 82, 76
6, 64139, Note_on_c, 0, 74, 0
6, 64140, Note_on_c, 0, 75, 76
6, 64184, Note_on_c, 0, 82, 0
6, 64199, Note_on_c, 0, 75, 0
6, 64200, Note_on_c, 0, 82, 76
6, 64200, Note_on_c, 0, 77, 76
6, 64259, Note_on_c, 0, 77, 0
6, 64260, Note_on_c, 0, 79, 76
6, 64304, Note_on_c, 0, 82, 0
6, 64319, Note_on_c, 0, 79, 0
6, 64320, Note_on_c, 0, 80, 76
6, 64320, Note_on_c, 0, 82, 76
6, 64379, Note_on_c, 0, 80, 0
6, 64380, Note_on_c, 0, 79, 76
6, 64424, Note_on_c, 0, 82, 0
6, 64431, Note_on_c, 0, 79, 0
6, 64440, Note_on_c, 0, 80, 76
6, 64440, Note_on_c, 0, 86, 76
6, 64799, Note_on_c, 0, 80, 0
6, 64799, Note_on_c, 0, 86, 0
6, 65040, Note_on_c, 0, 82, 76
6, 65040, Note_on_c, 0, 87, 76
6, 65129, Note_on_c, 0, 82, 0
6, 65129, Note_on_c, 0, 87, 0
6, 65160, Note_on_c, 0, 87, 76
6, 65160, Note_on_c, 0, 82, 76
6, 65249, Note_on_c, 0, 87, 0
6, 65249, Note_on_c, 0, 82, 0
6, 65280, Note_on_c, 0, 87, 76
6, 65280, Note_on_c, 0, 82, 76
6, 65369, Note_on_c, 0, 87, 0
6, 65369, Note_on_c, 0, 82, 0
6, 65520, Note_on_c, 0, 89, 76
6, 65520, Note_on_c, 0, 87, 76
6, 65624, Note_on_c, 0, 89, 0
6, 65624, Note_on_c, 0, 87, 0
6, 65640, Note_on_c, 0, 89, 76
6, 65640, Note_on_c, 0, 87, 76
6, 65744, Note_on_c, 0, 89, 0
6, 65744, Note_on_c, 0, 87, 0
6, 65760, Note_on_c, 0, 87, 76
6, 65760, Note_on_c, 0, 89, 76
6, 65864, Note_on_c, 0, 87, 0
6, 65864, Note_on_c, 0, 89, 0
6, 65880, Note_on_c, 0, 91, 76
6, 65880, Note_on_c, 0, 87, 76
6, 65984, Note_on_c, 0, 91, 0
6, 65984, Note_on_c, 0, 87, 0
6, 66000, Note_on_c, 0, 91, 76
6, 66000, Note_on_c, 0, 87, 76
6, 66104, Note_on_c, 0, 91, 0
6, 66104, Note_on_c, 0, 87, 0
6, 66120, Note_on_c, 0, 86, 76
6, 66120, Note_on_c, 0, 89, 76
6, 66224, Note_on_c, 0, 86, 0
6, 66224, Note_on_c, 0, 89, 0
6, 66240, Note_on_c, 0, 89, 76
6, 66240, Note_on_c, 0, 86, 76
6, 66344, Note_on_c, 0, 89, 0
6, 66344, Note_on_c, 0, 86, 0
6, 66360, Note_on_c, 0, 87, 76
6, 66360, Note_on_c, 0, 82, 76
6, 66479, Note_on_c, 0, 87, 0
6, 66479, Note_on_c, 0, 82, 0
6, 67800, Note_on_c, 0, 85, 68
6, 68159, Note_on_c, 0, 85, 0
6, 68160, Note_on_c, 0, 82, 52
6, 68264, Note_on_c, 0, 82, 0
6, 68280, Note_on_c, 0, 81, 52
6, 68369, Note_on_c, 0, 81, 0
6, 68400, Note_on_c, 0, 87, 55
6, 68489, Note_on_c, 0, 87, 0
6, 68520, Note_on_c, 0, 89, 58
6, 68609, Note_on_c, 0, 89, 0
6, 68640, Note_on_c, 0, 83, 61
6, 68729, Note_on_c, 0, 83, 0
6, 68760, Note_on_c, 0, 84, 64
6, 68864, Note_on_c, 0, 84, 0
6, 68880, Note_on_c, 0, 84, 67
6, 68880, Note_on_c, 0, 79, 67
6, 68984, Note_on_c, 0, 84, 0
6, 68984, Note_on_c, 0, 79, 0
6, 69000, Note_on_c, 0, 81, 70
6, 69000, Note_on_c, 0, 84, 70
6, 69104, Note_on_c, 0, 81, 0
6, 69104, Note_on_c, 0, 84, 0
6, 69120, Note_on_c, 0, 84, 73
6, 69120, Note_on_c, 0, 81, 73
6, 69224, Note_on_c, 0, 84, 0
6, 69224, Note_on_c, 0, 81, 0
6, 69240, Note_on_c, 0, 83, 76
6, 69240, Note_on_c, 0, 79, 76
6, 69344, Note_on_c, 0, 83, 0
6, 69344, Note_on_c, 0, 79, 0
6, 69360, Note_on_c, 0, 79, 76
6, 69360, Note_on_c, 0, 83, 76
6, 69464, Note_on_c, 0, 79, 0
6, 69464, Note_on_c, 0, 83, 0
6, 69480, Note_on_c, 0, 84, 76
6, 69480, Note_on_c, 0, 81, 76
6, 69584, Note_on_c, 0, 84, 0
6, 69584, Note_on_c, 0, 81, 0
6, 69600, Note_on_c, 0, 81, 76
6, 69600, Note_on_c, 0, 84, 76
6, 69704, Note_on_c, 0, 81, 0
6, 69704, Note_on_c, 0, 84, 0
6, 69720, Note_on_c, 0, 79, 76
6, 69720, Note_on_c, 0, 83, 76
6, 69824, Note_on_c, 0, 79, 0
6, 69824, Note_on_c, 0, 83, 0
6, 69840, Note_on_c, 0, 79, 76
6, 69840, Note_on_c, 0, 83, 76
6, 69944, Note_on_c, 0, 79, 0
6, 69944, Note_on_c, 0, 83, 0
6, 69960, Note_on_c, 0, 81, 76
6, 69960, Note_on_c, 0, 84, 76
6, 70064, Note_on_c, 0, 81, 0
6, 70064, Note_on_c, 0, 84, 0
6, 70080, Note_on_c, 0, 84, 76
6, 70080, Note_on_c, 0, 81, 76
6, 70184, Note_on_c, 0, 84, 0
6, 70184, Note_on_c, 0, 81, 0
6, 70200, Note_on_c, 0, 83, 84
6, 70200, Note_on_c, 0, 79, 84
6, 70379, Note_on_c, 0, 83, 0
6, 70379, Note_on_c, 0, 79, 0
6, 70440, Note_on_c, 0, 91, 84
6, 70440, Note_on_c, 0, 83, 84
6, 70619, Note_on_c, 0, 91, 0
6, 70619, Note_on_c, 0, 83, 0
6, 70680, Note_on_c, 0, 83, 84
6, 70680, Note_on_c, 0, 91, 84
6, 70859, Note_on_c, 0, 83, 0
6, 70859, Note_on_c, 0, 91, 0
6, 84540, Control_c, 0, 11, 109
6, 84600, Control_c, 0, 11, 111
6, 84600, Note_on_c, 0, 84, 76
6, 84660, Control_c, 0, 11, 113
6, 84720, Control_c, 0, 11, 115
6, 84780, Control_c, 0, 11, 117
6, 84840, Control_c, 0, 11, 119
6, 84900, Control_c, 0, 11, 121
6, 84960, Control_c, 0, 11, 123
6, 85020, Control_c, 0, 11, 127
6, 85064, Note_on_c, 0, 84, 0
6, 85080, Note_on_c, 0, 91, 76
6, 85784, Note_on_c, 0, 91, 0
6, 85800, Note_on_c, 0, 84, 76
6, 86024, Note_on_c, 0, 84, 0
6, 86040, Note_on_c, 0, 84, 76
6, 86264, Note_on_c, 0, 84, 0
6, 86280, Note_on_c, 0, 84, 76
6, 86504, Note_on_c, 0, 84, 0
6, 86520, Note_on_c, 0, 84, 76
6, 86864, Note_on_c, 0, 84, 0
6, 86880, Note_on_c, 0, 84, 76
6, 86984, Note_on_c, 0, 84, 0
6, 87000, Note_on_c, 0, 84, 76
6, 87104, Note_on_c, 0, 84, 0
6, 87120, Note_on_c, 0, 84, 76
6, 87224, Note_on_c, 0, 84, 0
6, 87240, Note_on_c, 0, 84, 76
6, 87344, Note_on_c, 0, 84, 0
6, 87360, Note_on_c, 0, 84, 76
6, 87464, Note_on_c, 0, 84, 0
6, 87480, Note_on_c, 0, 84, 76
6, 87824, Note_on_c, 0, 84, 0
6, 87840, Note_on_c, 0, 84, 76
6, 87944, Note_on_c, 0, 84, 0
6, 87960, Note_on_c, 0, 84, 76
6, 88064, Note_on_c, 0, 84, 0
6, 88080, Note_on_c, 0, 84, 76
6, 88184, Note_on_c, 0, 84, 0
6, 88200, Note_on_c, 0, 84, 76
6, 88304, Note_on_c, 0, 84, 0
6, 88320, Note_on_c, 0, 84, 76
6, 88424, Note_on_c, 0, 84, 0
6, 88440, Note_on_c, 0, 84, 76
6, 88559, Note_on_c, 0, 84, 0
6, 91080, Note_on_c, 0, 82, 76
6, 91320, Note_on_c, 0, 84, 76
6, 91559, Note_on_c, 0, 82, 0
6, 91560, Note_on_c, 0, 80, 76
6, 91799, Note_on_c, 0, 84, 0
6, 91799, Note_on_c, 0, 80, 0
6, 91800, Note_on_c, 0, 79, 76
6, 91800, Note_on_c, 0, 82, 76
6, 92039, Note_on_c, 0, 79, 0
6, 92040, Note_on_c, 0, 78, 76
6, 92159, Note_on_c, 0, 82, 0
6, 92159, Note_on_c, 0, 78, 0
6, 92160, Note_on_c, 0, 81, 76
6, 92160, Note_on_c, 0, 84, 76
6, 92264, Note_on_c, 0, 81, 0
6, 92264, Note_on_c, 0, 84, 0
6, 92280, Note_on_c, 0, 85, 76
6, 92280, Note_on_c, 0, 82, 76
6, 92744, Note_on_c, 0, 85, 0
6, 92744, Note_on_c, 0, 82, 0
6, 92760, Note_on_c, 0, 84, 76
6, 92760, Note_on_c, 0, 81, 76
6, 92984, Note_on_c, 0, 81, 0
6, 93000, Note_on_c, 0, 80, 76
6, 93104, Note_on_c, 0, 84, 0
6, 93104, Note_on_c, 0, 80, 0
6, 93120, Note_on_c, 0, 86, 76
6, 93120, Note_on_c, 0, 80, 76
6, 93171, Note_on_c, 0, 86, 0
6, 93180, Note_on_c, 0, 84, 76
6, 93224, Note_on_c, 0, 80, 0
6, 93231, Note_on_c, 0, 84, 0
6, 93240, Note_on_c, 0, 83, 76
6, 93240, Note_on_c, 0, 79, 76
6, 93359, Note_on_c, 0, 83, 0
6, 93359, Note_on_c, 0, 79, 0
6, 95160, Note_on_c, 0, 82, 76
6, 95624, Note_on_c, 0, 82, 0
6, 95640, Note_on_c, 0, 88, 76
6, 95729, Note_on_c, 0, 88, 0
6, 95760, Note_on_c, 0, 76, 76
6, 95849, Note_on_c, 0, 76, 0
6, 96600, Note_on_c, 0, 86, 76
6, 97079, Note_on_c, 0, 86, 0
6, 97320, Note_on_c, 0, 89, 84
6, 97320, Note_on_c, 0, 86, 84
6, 97409, Note_on_c, 0, 89, 0
6, 97409, Note_on_c, 0, 86, 0
6, 97440, Note_on_c, 0, 74, 84
6, 97440, Note_on_c, 0, 77, 84
6, 97529, Note_on_c, 0, 74, 0
6, 97529, Note_on_c, 0, 77, 0
6, 97560, Note_on_c, 0, 86, 84
6, 97560, Note_on_c, 0, 89, 84
6, 97664, Note_on_c, 0, 86, 0
6, 97664, Note_on_c, 0, 89, 0
6, 97680, Note_on_c, 0, 77, 84
6, 97680, Note_on_c, 0, 74, 84
6, 97784, Note_on_c, 0, 77, 0
6, 97784, Note_on_c, 0, 74, 0
6, 97800, Note_on_c, 0, 89, 84
6, 97800, Note_on_c, 0, 86, 84
6, 97904, Note_on_c, 0, 89, 0
6, 97904, Note_on_c, 0, 86, 0
6, 97920, Note_on_c, 0, 74, 84
6, 97920, Note_on_c, 0, 77, 84
6, 98024, Note_on_c, 0, 74, 0
6, 98024, Note_on_c, 0, 77, 0
6, 98040, Note_on_c, 0, 86, 84
6, 98040, Note_on_c, 0, 89, 84
6, 98144, Note_on_c, 0, 86, 0
6, 98144, Note_on_c, 0, 89, 0
6, 98160, Note_on_c, 0, 74, 84
6, 98160, Note_on_c, 0, 77, 84
6, 98279, Note_on_c, 0, 74, 0
6, 98279, Note_on_c, 0, 77, 0
6, 98520, Note_on_c, 0, 89, 84
6, 98520, Note_on_c, 0, 86, 84
6, 98624, Note_on_c, 0, 89, 0
6, 98624, Note_on_c, 0, 86, 0
6, 98640, Note_on_c, 0, 77, 84
6, 98640, Note_on_c, 0, 74, 84
6, 98744, Note_on_c, 0, 77, 0
6, 98744, Note_on_c, 0, 74, 0
6, 98760, Note_on_c, 0, 89, 84
6, 98760, Note_on_c, 0, 86, 84
6, 98864, Note_on_c, 0, 89, 0
6, 98864, Note_on_c, 0, 86, 0
6, 98880, Note_on_c, 0, 74, 84
6, 98880, Note_on_c, 0, 77, 84
6, 98984, Note_on_c, 0, 74, 0
6, 98984, Note_on_c, 0, 77, 0
6, 99000, Note_on_c, 0, 86, 52
6, 99000, Note_on_c, 0, 90, 52
6, 99119, Note_on_c, 0, 86, 0
6, 99359, Note_on_c, 0, 90, 0
6, 99360, Note_on_c, 0, 86, 52
6, 99464, Note_on_c, 0, 86, 0
6, 99480, Note_on_c, 0, 85, 52
6, 99839, Note_on_c, 0, 85, 0
6, 99840, Note_on_c, 0, 88, 52
6, 99944, Note_on_c, 0, 88, 0
6, 99960, Note_on_c, 0, 91, 52
6, 100319, Note_on_c, 0, 91, 0
6, 100320, Note_on_c, 0, 88, 52
6, 100424, Note_on_c, 0, 88, 0
6, 100440, Note_on_c, 0, 86, 52
6, 100799, Note_on_c, 0, 86, 0
6, 100800, Note_on_c, 0, 90, 52
6, 100904, Note_on_c, 0, 90, 0
6, 100912, Control_c, 0, 11, 96
6, 100920, Control_c, 0, 11, 96
6, 100920, Note_on_c, 0, 93, 68
6, 100960, Control_c, 0, 11, 99
6, 101000, Control_c, 0, 11, 101
6, 101040, Control_c, 0, 11, 104
6, 101080, Control_c, 0, 11, 106
6, 101120, Control_c, 0, 11, 109
6, 101144, Note_on_c, 0, 93, 0
6, 101160, Note_on_c, 0, 93, 68
6, 101160, Control_c, 0, 11, 112
6, 101200, Control_c, 0, 11, 114
6, 101240, Control_c, 0, 11, 117
6, 101280, Control_c, 0, 11, 119
6, 101320, Control_c, 0, 11, 122
6, 101360, Control_c, 0, 11, 124
6, 101384, Note_on_c, 0, 93, 0
6, 101400, Note_on_c, 0, 93, 76
6, 101460, Control_c, 0, 11, 112
6, 101495, Control_c, 0, 11, 109
6, 101530, Control_c, 0, 11, 107
6, 101565, Control_c, 0, 11, 104
6, 101600, Control_c, 0, 11, 101
6, 101635, Control_c, 0, 11, 99
6, 101670, Control_c, 0, 11, 96
6, 101705, Control_c, 0, 11, 93
6, 101740, Control_c, 0, 11, 91
6, 101744, Note_on_c, 0, 93, 0
6, 101760, Note_on_c, 0, 90, 76
6, 101775, Control_c, 0, 11, 88
6, 101810, Control_c, 0, 11, 85
6, 101845, Control_c, 0, 11, 80
6, 101864, Note_on_c, 0, 90, 0
6, 101880, Note_on_c, 0, 93, 76
6, 101939, Note_on_c, 0, 93, 0
6, 101940, Note_on_c, 0, 91, 76
6, 101991, Note_on_c, 0, 91, 0
6, 102000, Note_on_c, 0, 88, 76
6, 102089, Note_on_c, 0, 88, 0
6, 102120, Note_on_c, 0, 91, 76
6, 102179, Note_on_c, 0, 91, 0
6, 102180, Note_on_c, 0, 90, 76
6, 102231, Note_on_c, 0, 90, 0
6, 102240, Note_on_c, 0, 86, 76
6, 102329, Note_on_c, 0, 86, 0
6, 102360, Note_on_c, 0, 90, 76
6, 102599, Note_on_c, 0, 90, 0
6, 102600, Note_on_c, 0, 88, 76
6, 102704, Note_on_c, 0, 88, 0
6, 102720, Note_on_c, 0, 86, 76
6, 102809, Note_on_c, 0, 86, 0
6, 102832, Control_c, 0, 11, 96
6, 102840, Note_on_c, 0, 90, 68
6, 102929, Note_on_c, 0, 90, 0
6, 102960, Note_on_c, 0, 90, 68
6, 103049, Note_on_c, 0, 90, 0
6, 103080, Note_on_c, 0, 90, 68
6, 103169, Note_on_c, 0, 90, 0
6, 103200, Note_on_c, 0, 86, 68
6, 103304, Note_on_c, 0, 86, 0
6, 103320, Note_on_c, 0, 85, 68
6, 103409, Note_on_c, 0, 85, 0
6, 103440, Note_on_c, 0, 85, 68
6, 103529, Note_on_c, 0, 85, 0
6, 103560, Note_on_c, 0, 85, 68
6, 103649, Note_on_c, 0, 85, 0
6, 103680, Note_on_c, 0, 88, 68
6, 103784, Note_on_c, 0, 88, 0
6, 103800, Note_on_c, 0, 91, 68
6, 103904, Note_on_c, 0, 91, 0
6, 103920, Note_on_c, 0, 91, 68
6, 104024, Note_on_c, 0, 91, 0
6, 104040, Note_on_c, 0, 91, 68
6, 104144, Note_on_c, 0, 91, 0
6, 104160, Note_on_c, 0, 88, 68
6, 104264, Note_on_c, 0, 88, 0
6, 104280, Note_on_c, 0, 86, 68
6, 104384, Note_on_c, 0, 86, 0
6, 104400, Note_on_c, 0, 86, 68
6, 104504, Note_on_c, 0, 86, 0
6, 104520, Note_on_c, 0, 86, 68
6, 104624, Note_on_c, 0, 86, 0
6, 104640, Note_on_c, 0, 81, 68
6, 104640, Note_on_c, 0, 90, 68
6, 104744, Note_on_c, 0, 81, 0
6, 104744, Note_on_c, 0, 90, 0
6, 104760, Note_on_c, 0, 81, 68
6, 104760, Note_on_c, 0, 93, 68
6, 104760, Control_c, 0, 11, 96
6, 104840, Control_c, 0, 11, 99
6, 104864, Note_on_c, 0, 81, 0
6, 104864, Note_on_c, 0, 93, 0
6, 104880, Note_on_c, 0, 81, 68
6, 104880, Note_on_c, 0, 93, 68
6, 104920, Control_c, 0, 11, 101
6, 104984, Note_on_c, 0, 81, 0
6, 104984, Note_on_c, 0, 93, 0
6, 105000, Control_c, 0, 11, 104
6, 105000, Note_on_c, 0, 93, 68
6, 105000, Note_on_c, 0, 81, 68
6, 105080, Control_c, 0, 11, 106
6, 105104, Note_on_c, 0, 93, 0
6, 105104, Note_on_c, 0, 81, 0
6, 105120, Note_on_c, 0, 93, 68
6, 105120, Note_on_c, 0, 81, 68
6, 105160, Control_c, 0, 11, 109
6, 105224, Note_on_c, 0, 93, 0
6, 105224, Note_on_c, 0, 81, 0
6, 105240, Note_on_c, 0, 93, 68
6, 105240, Control_c, 0, 11, 112
6, 105240, Note_on_c, 0, 81, 68
6, 105320, Control_c, 0, 11, 114
6, 105344, Note_on_c, 0, 93, 0
6, 105344, Note_on_c, 0, 81, 0
6, 105360, Note_on_c, 0, 93, 68
6, 105360, Note_on_c, 0, 81, 68
6, 105400, Control_c, 0, 11, 117
6, 105464, Note_on_c, 0, 93, 0
6, 105464, Note_on_c, 0, 81, 0
6, 105480, Note_on_c, 0, 93, 68
6, 105480, Control_c, 0, 11, 119
6, 105480, Note_on_c, 0, 81, 68
6, 105560, Control_c, 0, 11, 122
6, 105584, Note_on_c, 0, 93, 0
6, 105584, Note_on_c, 0, 81, 0
6, 105600, Note_on_c, 0, 90, 68
6, 105600, Note_on_c, 0, 83, 68
6, 105640, Control_c, 0, 11, 127
6, 105704, Note_on_c, 0, 90, 0
6, 105704, Note_on_c, 0, 83, 0
6, 105720, Note_on_c, 0, 91, 52
6, 105720, Note_on_c, 0, 83, 52
6, 105824, Note_on_c, 0, 91, 0
6, 105824, Note_on_c, 0, 83, 0
6, 105840, Note_on_c, 0, 81, 52
6, 105840, Note_on_c, 0, 88, 52
6, 105944, Note_on_c, 0, 81, 0
6, 105944, Note_on_c, 0, 88, 0
6, 105960, Note_on_c, 0, 81, 52
6, 105960, Note_on_c, 0, 90, 52
6, 106064, Note_on_c, 0, 81, 0
6, 106064, Note_on_c, 0, 90, 0
6, 106080, Note_on_c, 0, 81, 52
6, 106080, Note_on_c, 0, 89, 52
6, 106184, Note_on_c, 0, 81, 0
6, 106184, Note_on_c, 0, 89, 0
6, 106200, Note_on_c, 0, 81, 52
6, 106200, Note_on_c, 0, 90, 52
6, 106304, Note_on_c, 0, 81, 0
6, 106304, Note_on_c, 0, 90, 0
6, 106320, Note_on_c, 0, 81, 52
6, 106320, Note_on_c, 0, 90, 52
6, 106424, Note_on_c, 0, 81, 0
6, 106424, Note_on_c, 0, 90, 0
6, 106440, Note_on_c, 0, 81, 52
6, 106440, Note_on_c, 0, 88, 52
6, 106544, Note_on_c, 0, 81, 0
6, 106544, Note_on_c, 0, 88, 0
6, 106560, Note_on_c, 0, 69, 52
6, 106611, Note_on_c, 0, 69, 0
6, 106620, Note_on_c, 0, 73, 52
6, 106671, Note_on_c, 0, 73, 0
6, 106680, Note_on_c, 0, 76, 52
6, 106731, Note_on_c, 0, 76, 0
6, 106740, Note_on_c, 0, 79, 52
6, 106791, Note_on_c, 0, 79, 0
6, 106800, Note_on_c, 0, 85, 52
6, 106851, Note_on_c, 0, 85, 0
6, 106860, Note_on_c, 0, 88, 52
6, 106911, Note_on_c, 0, 88, 0
6, 106920, Note_on_c, 0, 91, 52
6, 106971, Note_on_c, 0, 91, 0
6, 106980, Note_on_c, 0, 88, 52
6, 107031, Note_on_c, 0, 88, 0
6, 107040, Note_on_c, 0, 85, 52
6, 107091, Note_on_c, 0, 85, 0
6, 107100, Note_on_c, 0, 79, 52
6, 107151, Note_on_c, 0, 79, 0
6, 107160, Note_on_c, 0, 76, 52
6, 107211, Note_on_c, 0, 76, 0
6, 107220, Note_on_c, 0, 78, 52
6, 107271, Note_on_c, 0, 78, 0
6, 107280, Note_on_c, 0, 79, 52
6, 107331, Note_on_c, 0, 79, 0
6, 107340, Note_on_c, 0, 76, 52
6, 107391, Note_on_c, 0, 76, 0
6, 107400, Note_on_c, 0, 73, 52
6, 107451, Note_on_c, 0, 73, 0
6, 107460, Note_on_c, 0, 76, 52
6, 107511, Note_on_c, 0, 76, 0
6, 107520, Note_on_c, 0, 69, 52
6, 107571, Note_on_c, 0, 69, 0
6, 107580, Note_on_c, 0, 73, 52
6, 107631, Note_on_c, 0, 73, 0
6, 107640, Note_on_c, 0, 76, 52
6, 107691, Note_on_c, 0, 76, 0
6, 107700, Note_on_c, 0, 79, 52
6, 107751, Note_on_c, 0, 79, 0
6, 107760, Note_on_c, 0, 85, 52
6, 107811, Note_on_c, 0, 85, 0
6, 107820, Note_on_c, 0, 88, 52
6, 107871, Note_on_c, 0, 88, 0
6, 107880, Note_on_c, 0, 91, 52
6, 107931, Note_on_c, 0, 91, 0
6, 107940, Note_on_c, 0, 88, 52
6, 107991, Note_on_c, 0, 88, 0
6, 108000, Note_on_c, 0, 85, 52
6, 108051, Note_on_c, 0, 85, 0
6, 108060, Note_on_c, 0, 79, 52
6, 108111, Note_on_c, 0, 79, 0
6, 108120, Note_on_c, 0, 76, 52
6, 108171, Note_on_c, 0, 76, 0
6, 108180, Note_on_c, 0, 78, 52
6, 108231, Note_on_c, 0, 78, 0
6, 108240, Note_on_c, 0, 79, 52
6, 108291, Note_on_c, 0, 79, 0
6, 108300, Note_on_c, 0, 81, 52
6, 108351, Note_on_c, 0, 81, 0
6, 108360, Note_on_c, 0, 82, 52
6, 108411, Note_on_c, 0, 82, 0
6, 108420, Note_on_c, 0, 83, 52
6, 108471, Note_on_c, 0, 83, 0
6, 108480, Note_on_c, 0, 84, 52
6, 108531, Note_on_c, 0, 84, 0
6, 108540, Note_on_c, 0, 85, 52
6, 108591, Note_on_c, 0, 85, 0
6, 108600, Note_on_c, 0, 86, 52
6, 108651, Note_on_c, 0, 86, 0
6, 108660, Note_on_c, 0, 85, 52
6, 108711, Note_on_c, 0, 85, 0
6, 108720, Note_on_c, 0, 86, 52
6, 108771, Note_on_c, 0, 86, 0
6, 108780, Note_on_c, 0, 85, 52
6, 108831, Note_on_c, 0, 85, 0
6, 108840, Note_on_c, 0, 86, 52
6, 108891, Note_on_c, 0, 86, 0
6, 108900, Note_on_c, 0, 85, 52
6, 108951, Note_on_c, 0, 85, 0
6, 108960, Note_on_c, 0, 86, 52
6, 109011, Note_on_c, 0, 86, 0
6, 109020, Note_on_c, 0, 85, 52
6, 109071, Note_on_c, 0, 85, 0
6, 109080, Note_on_c, 0, 83, 52
6, 109131, Note_on_c, 0, 83, 0
6, 109140, Note_on_c, 0, 81, 52
6, 109191, Note_on_c, 0, 81, 0
6, 109200, Note_on_c, 0, 79, 52
6, 109251, Note_on_c, 0, 79, 0
6, 109260, Note_on_c, 0, 78, 52
6, 109311, Note_on_c, 0, 78, 0
6, 109320, Note_on_c, 0, 76, 52
6, 109371, Note_on_c, 0, 76, 0
6, 109380, Note_on_c, 0, 74, 52
6, 109431, Note_on_c, 0, 74, 0
6, 109440, Note_on_c, 0, 73, 52
6, 109491, Note_on_c, 0, 73, 0
6, 109500, Note_on_c, 0, 71, 52
6, 109551, Note_on_c, 0, 71, 0
6, 109560, Note_on_c, 0, 69, 52
6, 109679, Note_on_c, 0, 69, 0
6, 109800, Note_on_c, 0, 76, 52
6, 109829, Note_on_c, 0, 76, 0
6, 109830, Note_on_c, 0, 78, 52
6, 109859, Note_on_c, 0, 78, 0
6, 109860, Note_on_c, 0, 76, 52
6, 109889, Note_on_c, 0, 76, 0
6, 109890, Note_on_c, 0, 78, 52
6, 109919, Note_on_c, 0, 78, 0
6, 109920, Note_on_c, 0, 76, 52
6, 109949, Note_on_c, 0, 76, 0
6, 109950, Note_on_c, 0, 78, 52
6, 109979, Note_on_c, 0, 78, 0
6, 109980, Note_on_c, 0, 74, 52
6, 110009, Note_on_c, 0, 74, 0
6, 110010, Note_on_c, 0, 76, 52
6, 110031, Note_on_c, 0, 76, 0
6, 110040, Note_on_c, 0, 74, 52
6, 110159, Note_on_c, 0, 74, 0
6, 110760, Note_on_c, 0, 88, 76
6, 110760, Note_on_c, 0, 85, 76
6, 110827, Note_on_c, 0, 88, 0
6, 110827, Note_on_c, 0, 85, 0
6, 110840, Note_on_c, 0, 85, 52
6, 110840, Note_on_c, 0, 88, 52
6, 110907, Note_on_c, 0, 85, 0
6, 110907, Note_on_c, 0, 88, 0
6, 110920, Note_on_c, 0, 88, 52
6, 110920, Note_on_c, 0, 85, 52
6, 110999, Note_on_c, 0, 88, 0
6, 110999, Note_on_c, 0, 85, 0
6, 111240, Note_on_c, 0, 91, 76
6, 111240, Note_on_c, 0, 85, 76
6, 111307, Note_on_c, 0, 91, 0
6, 111307, Note_on_c, 0, 85, 0
6, 111320, Note_on_c, 0, 91, 52
6, 111320, Note_on_c, 0, 85, 52
6, 111387, Note_on_c, 0, 91, 0
6, 111387, Note_on_c, 0, 85, 0
6, 111400, Note_on_c, 0, 91, 52
6, 111400, Note_on_c, 0, 85, 52
6, 111479, Note_on_c, 0, 91, 0
6, 111479, Note_on_c, 0, 85, 0
6, 111720, Note_on_c, 0, 88, 76
6, 111720, Note_on_c, 0, 85, 76
6, 111787, Note_on_c, 0, 88, 0
6, 111787, Note_on_c, 0, 85, 0
6, 111800, Note_on_c, 0, 88, 52
6, 111800, Note_on_c, 0, 85, 52
6, 111867, Note_on_c, 0, 88, 0
6, 111867, Note_on_c, 0, 85, 0
6, 111880, Note_on_c, 0, 88, 52
6, 111880, Note_on_c, 0, 85, 52
6, 111959, Note_on_c, 0, 88, 0
6, 111959, Note_on_c, 0, 85, 0
6, 112200, Note_on_c, 0, 85, 52
6, 112200, Note_on_c, 0, 88, 52
6, 112267, Note_on_c, 0, 85, 0
6, 112267, Note_on_c, 0, 88, 0
6, 112280, Note_on_c, 0, 85, 52
6, 112280, Note_on_c, 0, 88, 52
6, 112347, Note_on_c, 0, 85, 0
6, 112347, Note_on_c, 0, 88, 0
6, 112360, Note_on_c, 0, 88, 52
6, 112360, Note_on_c, 0, 85, 52
6, 112439, Note_on_c, 0, 88, 0
6, 112439, Note_on_c, 0, 85, 0
6, 112680, Note_on_c, 0, 86, 52
6, 112680, Note_on_c, 0, 90, 52
6, 112747, Note_on_c, 0, 86, 0
6, 112747, Note_on_c, 0, 90, 0
6, 112760, Note_on_c, 0, 90, 52
6, 112760, Note_on_c, 0, 86, 52
6, 112827, Note_on_c, 0, 90, 0
6, 112827, Note_on_c, 0, 86, 0
6, 112840, Note_on_c, 0, 86, 52
6, 112840, Note_on_c, 0, 90, 52
6, 112919, Note_on_c, 0, 86, 0
6, 112919, Note_on_c, 0, 90, 0
6, 113160, Note_on_c, 0, 83, 52
6, 113160, Note_on_c, 0, 86, 52
6, 113227, Note_on_c, 0, 83, 0
6, 113227, Note_on_c, 0, 86, 0
6, 113240, Note_on_c, 0, 86, 52
6, 113240, Note_on_c, 0, 83, 52
6, 113307, Note_on_c, 0, 86, 0
6, 113307, Note_on_c, 0, 83, 0
6, 113320, Note_on_c, 0, 86, 52
6, 113320, Note_on_c, 0, 83, 52
6, 113387, Note_on_c, 0, 86, 0
6, 113387, Note_on_c, 0, 83, 0
6, 113400, Note_on_c, 0, 86, 52
6, 113400, Note_on_c, 0, 81, 52
6, 113519, Note_on_c, 0, 86, 0
6, 113519, Note_on_c, 0, 81, 0
6, 113640, Note_on_c, 0, 81, 52
6, 113640, Note_on_c, 0, 85, 52
6, 113759, Note_on_c, 0, 81, 0
6, 113759, Note_on_c, 0, 85, 0
6, 113880, Note_on_c, 0, 86, 52
6, 113880, Note_on_c, 0, 81, 52
6, 113999, Note_on_c, 0, 86, 0
6, 113999, Note_on_c, 0, 81, 0
6, 114360, Note_on_c, 0, 86, 84
6, 114360, Note_on_c, 0, 90, 84
6, 114824, Note_on_c, 0, 86, 0
6, 114824, Note_on_c, 0, 90, 0
6, 114840, Note_on_c, 0, 91, 84
6, 114840, Note_on_c, 0, 86, 84
6, 115064, Note_on_c, 0, 91, 0
6, 115064, Note_on_c, 0, 86, 0
6, 115080, Note_on_c, 0, 86, 84
6, 115080, Note_on_c, 0, 92, 84
6, 115319, Note_on_c, 0, 86, 0
6, 115319, Note_on_c, 0, 92, 0
6, 115320, Note_on_c, 0, 93, 84
6, 115320, Note_on_c, 0, 90, 84
6, 115544, Note_on_c, 0, 93, 0
6, 115544, Note_on_c, 0, 90, 0
6, 115560, Note_on_c, 0, 85, 84
6, 115560, Note_on_c, 0, 79, 84
6, 115784, Note_on_c, 0, 85, 0
6, 115784, Note_on_c, 0, 79, 0
6, 115800, Note_on_c, 0, 78, 84
6, 115800, Note_on_c, 0, 86, 84
6, 115859, Note_on_c, 0, 78, 0
6, 115860, Note_on_c, 0, 74, 84
6, 115919, Note_on_c, 0, 86, 0
6, 115919, Note_on_c, 0, 74, 0
6, 115920, Note_on_c, 0, 76, 84
6, 115979, Note_on_c, 0, 76, 0
6, 115980, Note_on_c, 0, 78, 84
6, 116039, Note_on_c, 0, 78, 0
6, 116040, Note_on_c, 0, 79, 84
6, 116099, Note_on_c, 0, 79, 0
6, 116100, Note_on_c, 0, 81, 84
6, 116159, Note_on_c, 0, 81, 0
6, 116160, Note_on_c, 0, 82, 84
6, 116219, Note_on_c, 0, 82, 0
6, 116220, Note_on_c, 0, 84, 84
6, 116271, Note_on_c, 0, 84, 0
6, 116280, Note_on_c, 0, 86, 76
6, 116459, Note_on_c, 0, 86, 0
6, 116520, Note_on_c, 0, 86, 76
6, 116684, Note_on_c, 0, 86, 0
6, 116700, Note_on_c, 0, 86, 76
6, 116744, Note_on_c, 0, 86, 0
6, 116760, Note_on_c, 0, 86, 76
6, 116939, Note_on_c, 0, 86, 0
6, 117000, Note_on_c, 0, 86, 76
6, 117164, Note_on_c, 0, 86, 0
6, 117180, Note_on_c, 0, 86, 76
6, 117224, Note_on_c, 0, 86, 0
6, 117240, Note_on_c, 0, 86, 76
6, 117240, Note_on_c, 0, 78, 76
6, 117299, Note_on_c, 0, 78, 0
6, 117300, Note_on_c, 0, 79, 76
6, 117359, Note_on_c, 0, 79, 0
6, 117360, Note_on_c, 0, 81, 76
6, 117404, Note_on_c, 0, 86, 0
6, 117419, Note_on_c, 0, 81, 0
6, 117420, Note_on_c, 0, 82, 76
6, 117420, Note_on_c, 0, 84, 76
6, 117464, Note_on_c, 0, 84, 0
6, 117479, Note_on_c, 0, 82, 0
6, 117480, Note_on_c, 0, 84, 76
6, 117480, Note_on_c, 0, 82, 76
6, 117539, Note_on_c, 0, 84, 0
6, 117540, Note_on_c, 0, 86, 76
6, 117599, Note_on_c, 0, 86, 0
6, 117600, Note_on_c, 0, 88, 76
6, 117644, Note_on_c, 0, 82, 0
6, 117659, Note_on_c, 0, 88, 0
6, 117660, Note_on_c, 0, 90, 76
6, 117660, Note_on_c, 0, 81, 76
6, 117704, Note_on_c, 0, 90, 0
6, 117704, Note_on_c, 0, 81, 0
6, 117720, Note_on_c, 0, 82, 76
6, 117720, Note_on_c, 0, 91, 76
6, 117884, Note_on_c, 0, 82, 0
6, 117900, Note_on_c, 0, 84, 76
6, 117944, Note_on_c, 0, 84, 0
6, 117959, Note_on_c, 0, 91, 0
6, 117960, Note_on_c, 0, 82, 76
6, 118124, Note_on_c, 0, 82, 0
6, 118140, Note_on_c, 0, 81, 76
6, 118171, Note_on_c, 0, 81, 0
6, 118180, Note_on_c, 0, 81, 76
6, 118199, Note_on_c, 0, 81, 0
6, 118200, Note_on_c, 0, 79, 76
6, 118364, Note_on_c, 0, 79, 0
6, 118380, Note_on_c, 0, 78, 76
6, 118424, Note_on_c, 0, 78, 0
6, 118440, Note_on_c, 0, 79, 76
6, 118604, Note_on_c, 0, 79, 0
6, 118620, Note_on_c, 0, 82, 76
6, 118664, Note_on_c, 0, 82, 0
6, 118680, Note_on_c, 0, 81, 76
6, 118844, Note_on_c, 0, 81, 0
6, 118860, Note_on_c, 0, 82, 76
6, 118904, Note_on_c, 0, 82, 0
6, 118920, Note_on_c, 0, 84, 76
6, 119084, Note_on_c, 0, 84, 0
6, 119100, Note_on_c, 0, 81, 76
6, 119144, Note_on_c, 0, 81, 0
6, 119160, Note_on_c, 0, 78, 76
6, 119324, Note_on_c, 0, 78, 0
6, 119340, Note_on_c, 0, 79, 76
6, 119384, Note_on_c, 0, 79, 0
6, 119400, Note_on_c, 0, 81, 76
6, 119564, Note_on_c, 0, 81, 0
6, 119580, Note_on_c, 0, 78, 76
6, 119624, Note_on_c, 0, 78, 0
6, 119640, Note_on_c, 0, 79, 76
6, 119699, Note_on_c, 0, 79, 0
6, 119700, Note_on_c, 0, 74, 76
6, 119759, Note_on_c, 0, 74, 0
6, 119760, Note_on_c, 0, 76, 76
6, 119819, Note_on_c, 0, 76, 0
6, 119820, Note_on_c, 0, 78, 76
6, 119879, Note_on_c, 0, 78, 0
6, 119880, Note_on_c, 0, 79, 76
6, 119939, Note_on_c, 0, 79, 0
6, 119940, Note_on_c, 0, 81, 76
6, 119999, Note_on_c, 0, 81, 0
6, 120000, Note_on_c, 0, 82, 76
6, 120059, Note_on_c, 0, 82, 0
6, 120060, Note_on_c, 0, 84, 76
6, 120111, Note_on_c, 0, 84, 0
6, 120120, Note_on_c, 0, 86, 76
6, 120299, Note_on_c, 0, 86, 0
6, 120360, Note_on_c, 0, 86, 76
6, 120524, Note_on_c, 0, 86, 0
6, 120540, Note_on_c, 0, 86, 76
6, 120584, Note_on_c, 0, 86, 0
6, 120600, Note_on_c, 0, 86, 76
6, 120779, Note_on_c, 0, 86, 0
6, 120840, Note_on_c, 0, 86, 76
6, 121004, Note_on_c, 0, 86, 0
6, 121020, Note_on_c, 0, 86, 76
6, 121064, Note_on_c, 0, 86, 0
6, 121080, Note_on_c, 0, 86, 76
6, 121080, Note_on_c, 0, 78, 76
6, 121139, Note_on_c, 0, 78, 0
6, 121140, Note_on_c, 0, 79, 76
6, 121199, Note_on_c, 0, 79, 0
6, 121200, Note_on_c, 0, 81, 76
6, 121244, Note_on_c, 0, 86, 0
6, 121259, Note_on_c, 0, 81, 0
6, 121260, Note_on_c, 0, 84, 76
6, 121260, Note_on_c, 0, 82, 76
6, 121304, Note_on_c, 0, 84, 0
6, 121319, Note_on_c, 0, 82, 0
6, 121320, Note_on_c, 0, 82, 76
6, 121320, Note_on_c, 0, 84, 76
6, 121379, Note_on_c, 0, 84, 0
6, 121380, Note_on_c, 0, 86, 76
6, 121439, Note_on_c, 0, 86, 0
6, 121440, Note_on_c, 0, 88, 76
6, 121484, Note_on_c, 0, 82, 0
6, 121499, Note_on_c, 0, 88, 0
6, 121500, Note_on_c, 0, 81, 76
6, 121500, Note_on_c, 0, 90, 76
6, 121544, Note_on_c, 0, 81, 0
6, 121544, Note_on_c, 0, 90, 0
6, 121560, Note_on_c, 0, 91, 76
6, 121560, Note_on_c, 0, 82, 76
6, 121724, Note_on_c, 0, 82, 0
6, 121740, Note_on_c, 0, 84, 76
6, 121784, Note_on_c, 0, 84, 0
6, 121799, Note_on_c, 0, 91, 0
6, 121800, Note_on_c, 0, 82, 76
6, 121964, Note_on_c, 0, 82, 0
6, 121980, Note_on_c, 0, 81, 76
6, 122011, Note_on_c, 0, 81, 0
6, 122020, Note_on_c, 0, 81, 76
6, 122039, Note_on_c, 0, 81, 0
6, 122040, Note_on_c, 0, 79, 76
6, 122204, Note_on_c, 0, 79, 0
6, 122220, Note_on_c, 0, 78, 76
6, 122264, Note_on_c, 0, 78, 0
6, 122280, Note_on_c, 0, 79, 76
6, 122444, Note_on_c, 0, 79, 0
6, 122460, Note_on_c, 0, 82, 76
6, 122504, Note_on_c, 0, 82, 0
6, 122520, Note_on_c, 0, 81, 76
6, 122684, Note_on_c, 0, 81, 0
6, 122700, Note_on_c, 0, 82, 76
6, 122744, Note_on_c, 0, 82, 0
6, 122760, Note_on_c, 0, 84, 76
6, 122924, Note_on_c, 0, 84, 0
6, 122940, Note_on_c, 0, 81, 76
6, 122984, Note_on_c, 0, 81, 0
6, 123000, Note_on_c, 0, 78, 76
6, 123164, Note_on_c, 0, 78, 0
6, 123180, Note_on_c, 0, 79, 76
6, 123224, Note_on_c, 0, 79, 0
6, 123240, Note_on_c, 0, 81, 76
6, 123404, Note_on_c, 0, 81, 0
6, 123420, Note_on_c, 0, 78, 76
6, 123464, Note_on_c, 0, 78, 0
6, 123480, Note_on_c, 0, 79, 76
6, 123599, Note_on_c, 0, 79, 0
6, 123960, Note_on_c, 0, 84, 84
6, 124409, Note_on_c, 0, 84, 0
6, 124440, Note_on_c, 0, 91, 84
6, 124889, Note_on_c, 0, 91, 0
6, 124920, Note_on_c, 0, 79, 84
6, 125369, Note_on_c, 0, 79, 0
6, 125400, Note_on_c, 0, 84, 84
6, 125849, Note_on_c, 0, 84, 0
6, 125880, Note_on_c, 0, 84, 84
6, 125880, Note_on_c, 0, 87, 84
6, 126329, Note_on_c, 0, 84, 0
6, 126329, Note_on_c, 0, 87, 0
6, 126360, Note_on_c, 0, 86, 84
6, 126360, Note_on_c, 0, 84, 84
6, 126809, Note_on_c, 0, 86, 0
6, 126809, Note_on_c, 0, 84, 0
6, 126840, Note_on_c, 0, 84, 76
6, 126840, Note_on_c, 0, 86, 76
6, 127019, Note_on_c, 0, 84, 0
6, 127019, Note_on_c, 0, 86, 0
6, 127080, Note_on_c, 0, 86, 76
6, 127080, Note_on_c, 0, 84, 76
6, 127259, Note_on_c, 0, 86, 0
6, 127259, Note_on_c, 0, 84, 0
6, 127320, Note_on_c, 0, 82, 76
6, 127320, Note_on_c, 0, 86, 76
6, 127499, Note_on_c, 0, 82, 0
6, 127499, Note_on_c, 0, 86, 0
6, 127800, Note_on_c, 0, 84, 84
6, 128249, Note_on_c, 0, 84, 0
6, 128280, Note_on_c, 0, 91, 84
6, 128729, Note_on_c, 0, 91, 0
6, 128760, Note_on_c, 0, 79, 84
6, 129209, Note_on_c, 0, 79, 0
6, 129240, Note_on_c, 0, 84, 84
6, 129689, Note_on_c, 0, 84, 0
6, 129720, Note_on_c, 0, 84, 84
6, 129720, Note_on_c, 0, 87, 84
6, 130169, Note_on_c, 0, 84, 0
6, 130169, Note_on_c, 0, 87, 0
6, 130200, Note_on_c, 0, 86, 84
6, 130200, Note_on_c, 0, 84, 84
6, 130649, Note_on_c, 0, 86, 0
6, 130649, Note_on_c, 0, 84, 0
6, 130680, Note_on_c, 0, 78, 76
6, 130680, Note_on_c, 0, 72, 76
6, 130739, Note_on_c, 0, 78, 0
6, 130740, Note_on_c, 0, 79, 76
6, 130799, Note_on_c, 0, 79, 0
6, 130800, Note_on_c, 0, 81, 76
6, 130859, Note_on_c, 0, 81, 0
6, 130860, Note_on_c, 0, 82, 76
6, 130904, Note_on_c, 0, 72, 0
6, 130919, Note_on_c, 0, 82, 0
6, 130920, Note_on_c, 0, 72, 76
6, 130920, Note_on_c, 0, 84, 76
6, 130979, Note_on_c, 0, 84, 0
6, 130980, Note_on_c, 0, 86, 76
6, 131039, Note_on_c, 0, 86, 0
6, 131040, Note_on_c, 0, 88, 76
6, 131099, Note_on_c, 0, 88, 0
6, 131100, Note_on_c, 0, 90, 76
6, 131144, Note_on_c, 0, 72, 0
6, 131151, Note_on_c, 0, 90, 0
6, 131160, Note_on_c, 0, 71, 76
6, 131160, Note_on_c, 0, 91, 76
6, 131384, Note_on_c, 0, 71, 0
6, 131384, Note_on_c, 0, 91, 0
6, 131400, Note_on_c, 0, 84, 76
6, 131640, Note_on_c, 0, 87, 84
6, 132089, Note_on_c, 0, 84, 0
6, 132089, Note_on_c, 0, 87, 0
6, 132120, Note_on_c, 0, 86, 84
6, 132120, Note_on_c, 0, 84, 84
6, 132569, Note_on_c, 0, 86, 0
6, 132569, Note_on_c, 0, 84, 0
6, 132600, Note_on_c, 0, 78, 76
6, 132600, Note_on_c, 0, 72, 76
6, 132659, Note_on_c, 0, 78, 0
6, 132660, Note_on_c, 0, 79, 76
6, 132719, Note_on_c, 0, 79, 0
6, 132720, Note_on_c, 0, 81, 76
6, 132779, Note_on_c, 0, 81, 0
6, 132780, Note_on_c, 0, 82, 76
6, 132824, Note_on_c, 0, 72, 0
6, 132839, Note_on_c, 0, 82, 0
6, 132840, Note_on_c, 0, 84, 76
6, 132840, Note_on_c, 0, 72, 76
6, 132899, Note_on_c, 0, 84, 0
6, 132900, Note_on_c, 0, 86, 76
6, 132959, Note_on_c, 0, 86, 0
6, 132960, Note_on_c, 0, 88, 76
6, 133019, Note_on_c, 0, 88, 0
6, 133020, Note_on_c, 0, 90, 76
6, 133064, Note_on_c, 0, 72, 0
6, 133071, Note_on_c, 0, 90, 0
6, 133080, Note_on_c, 0, 70, 76
6, 133080, Note_on_c, 0, 91, 76
6, 133244, Note_on_c, 0, 70, 0
6, 133244, Note_on_c, 0, 91, 0
6, 133260, Note_on_c, 0, 86, 76
6, 133304, Note_on_c, 0, 86, 0
6, 133320, Note_on_c, 0, 86, 76
6, 133484, Note_on_c, 0, 86, 0
6, 133500, Note_on_c, 0, 86, 76
6, 133544, Note_on_c, 0, 86, 0
6, 133560, Note_on_c, 0, 86, 76
6, 133724, Note_on_c, 0, 86, 0
6, 133740, Note_on_c, 0, 86, 76
6, 133784, Note_on_c, 0, 86, 0
6, 133800, Note_on_c, 0, 86, 76
6, 133964, Note_on_c, 0, 86, 0
6, 133980, Note_on_c, 0, 86, 76
6, 134024, Note_on_c, 0, 86, 0
6, 134040, Note_on_c, 0, 86, 76
6, 134204, Note_on_c, 0, 86, 0
6, 134220, Note_on_c, 0, 86, 76
6, 134264, Note_on_c, 0, 86, 0
6, 134280, Note_on_c, 0, 86, 76
6, 134444, Note_on_c, 0, 86, 0
6, 134460, Note_on_c, 0, 86, 76
6, 134504, Note_on_c, 0, 86, 0
6, 134520, Note_on_c, 0, 86, 76
6, 134684, Note_on_c, 0, 86, 0
6, 134700, Note_on_c, 0, 86, 76
6, 134744, Note_on_c, 0, 86, 0
6, 134760, Note_on_c, 0, 86, 76
6, 134924, Note_on_c, 0, 86, 0
6, 134940, Note_on_c, 0, 86, 76
6, 134984, Note_on_c, 0, 86, 0
6, 135000, Note_on_c, 0, 86, 76
6, 135089, Note_on_c, 0, 86, 0
6, 135120, Note_on_c, 0, 82, 76
6, 135120, Note_on_c, 0, 86, 76
6, 135209, Note_on_c, 0, 82, 0
6, 135209, Note_on_c, 0, 86, 0
6, 135240, Note_on_c, 0, 84, 76
6, 135240, Note_on_c, 0, 90, 76
6, 135329, Note_on_c, 0, 84, 0
6, 135329, Note_on_c, 0, 90, 0
6, 135360, Note_on_c, 0, 84, 76
6, 135360, Note_on_c, 0, 86, 76
6, 135449, Note_on_c, 0, 84, 0
6, 135449, Note_on_c, 0, 86, 0
6, 135480, Note_on_c, 0, 91, 76
6, 135480, Note_on_c, 0, 82, 76
6, 135584, Note_on_c, 0, 91, 0
6, 135584, Note_on_c, 0, 82, 0
6, 135600, Note_on_c, 0, 86, 76
6, 135600, Note_on_c, 0, 82, 76
6, 135704, Note_on_c, 0, 86, 0
6, 135704, Note_on_c, 0, 82, 0
6, 135720, Note_on_c, 0, 84, 76
6, 135720, Note_on_c, 0, 90, 76
6, 135824, Note_on_c, 0, 84, 0
6, 135824, Note_on_c, 0, 90, 0
6, 135840, Note_on_c, 0, 86, 76
6, 135840, Note_on_c, 0, 84, 76
6, 135944, Note_on_c, 0, 86, 0
6, 135944, Note_on_c, 0, 84, 0
6, 135960, Note_on_c, 0, 82, 76
6, 135960, Note_on_c, 0, 91, 76
6, 136064, Note_on_c, 0, 82, 0
6, 136064, Note_on_c, 0, 91, 0
6, 136080, Note_on_c, 0, 86, 76
6, 136080, Note_on_c, 0, 82, 76
6, 136184, Note_on_c, 0, 86, 0
6, 136184, Note_on_c, 0, 82, 0
6, 136200, Note_on_c, 0, 84, 76
6, 136200, Note_on_c, 0, 90, 76
6, 136304, Note_on_c, 0, 84, 0
6, 136304, Note_on_c, 0, 90, 0
6, 136320, Note_on_c, 0, 84, 76
6, 136320, Note_on_c, 0, 86, 76
6, 136424, Note_on_c, 0, 84, 0
6, 136424, Note_on_c, 0, 86, 0
6, 136440, Note_on_c, 0, 91, 76
6, 136440, Note_on_c, 0, 82, 76
6, 136544, Note_on_c, 0, 91, 0
6, 136544, Note_on_c, 0, 82, 0
6, 136560, Note_on_c, 0, 86, 76
6, 136560, Note_on_c, 0, 82, 76
6, 136664, Note_on_c, 0, 86, 0
6, 136664, Note_on_c, 0, 82, 0
6, 136680, Note_on_c, 0, 90, 76
6, 136680, Note_on_c, 0, 84, 76
6, 136784, Note_on_c, 0, 90, 0
6, 136784, Note_on_c, 0, 84, 0
6, 136800, Note_on_c, 0, 86, 76
6, 136800, Note_on_c, 0, 84, 76
6, 136904, Note_on_c, 0, 86, 0
6, 136904, Note_on_c, 0, 84, 0
6, 136920, Note_on_c, 0, 91, 76
6, 136920, Note_on_c, 0, 82, 76
6, 137159, Note_on_c, 0, 91, 0
6, 137159, Note_on_c, 0, 82, 0
6, 137400, Note_on_c, 0, 79, 76
6, 137639, Note_on_c, 0, 79, 0
6, 137880, Note_on_c, 0, 79, 52
6, 137999, Note_on_c, 0, 79, 0
6, 138720, Note_on_c, 0, 84, 48
6, 138839, Note_on_c, 0, 84, 0
6, 138840, Note_on_c, 0, 88, 48
6, 139199, Note_on_c, 0, 88, 0
6, 139200, Note_on_c, 0, 84, 48
6, 139304, Note_on_c, 0, 84, 0
6, 139320, Note_on_c, 0, 83, 48
6, 139679, Note_on_c, 0, 83, 0
6, 139680, Note_on_c, 0, 86, 48
6, 139784, Note_on_c, 0, 86, 0
6, 139800, Note_on_c, 0, 89, 48
6, 140159, Note_on_c, 0, 89, 0
6, 140160, Note_on_c, 0, 86, 48
6, 140264, Note_on_c, 0, 86, 0
6, 140280, Note_on_c, 0, 84, 48
6, 140639, Note_on_c, 0, 84, 0
6, 140640, Note_on_c, 0, 88, 48
6, 140744, Note_on_c, 0, 88, 0
6, 140752, Control_c, 0, 11, 96
6, 140760, Note_on_c, 0, 91, 68
6, 140760, Control_c, 0, 11, 96
6, 140800, Control_c, 0, 11, 99
6, 140840, Control_c, 0, 11, 101
6, 140880, Control_c, 0, 11, 104
6, 140920, Control_c, 0, 11, 106
6, 140939, Note_on_c, 0, 91, 0
6, 140960, Control_c, 0, 11, 109
6, 141000, Control_c, 0, 11, 112
6, 141000, Note_on_c, 0, 91, 68
6, 141040, Control_c, 0, 11, 114
6, 141080, Control_c, 0, 11, 117
6, 141120, Control_c, 0, 11, 119
6, 141160, Control_c, 0, 11, 122
6, 141179, Note_on_c, 0, 91, 0
6, 141200, Control_c, 0, 11, 127
6, 141240, Note_on_c, 0, 91, 76
6, 141360, Control_c, 0, 11, 112
6, 141390, Control_c, 0, 11, 109
6, 141420, Control_c, 0, 11, 107
6, 141450, Control_c, 0, 11, 104
6, 141480, Control_c, 0, 11, 101
6, 141510, Control_c, 0, 11, 99
6, 141540, Control_c, 0, 11, 96
6, 141570, Control_c, 0, 11, 93
6, 141584, Note_on_c, 0, 91, 0
6, 141600, Note_on_c, 0, 88, 76
6, 141600, Control_c, 0, 11, 91
6, 141630, Control_c, 0, 11, 88
6, 141660, Control_c, 0, 11, 85
6, 141690, Control_c, 0, 11, 80
6, 141704, Note_on_c, 0, 88, 0
6, 141720, Note_on_c, 0, 91, 76
6, 141779, Note_on_c, 0, 91, 0
6, 141780, Note_on_c, 0, 89, 76
6, 141831, Note_on_c, 0, 89, 0
6, 141840, Note_on_c, 0, 86, 76
6, 141929, Note_on_c, 0, 86, 0
6, 141960, Note_on_c, 0, 89, 76
6, 142019, Note_on_c, 0, 89, 0
6, 142020, Note_on_c, 0, 88, 76
6, 142071, Note_on_c, 0, 88, 0
6, 142080, Note_on_c, 0, 84, 76
6, 142169, Note_on_c, 0, 84, 0
6, 142200, Note_on_c, 0, 88, 76
6, 142439, Note_on_c, 0, 88, 0
6, 142440, Note_on_c, 0, 86, 76
6, 142559, Note_on_c, 0, 86, 0
6, 146040, Control_c, 0, 11, 96
6, 146520, Note_on_c, 0, 77, 68
6, 146520, Control_c, 0, 11, 96
6, 146570, Control_c, 0, 11, 99
6, 146620, Control_c, 0, 11, 101
6, 146670, Control_c, 0, 11, 104
6, 146720, Control_c, 0, 11, 106
6, 146770, Control_c, 0, 11, 109
6, 146820, Control_c, 0, 11, 112
6, 146870, Control_c, 0, 11, 114
6, 146920, Control_c, 0, 11, 117
6, 146970, Control_c, 0, 11, 119
6, 146984, Note_on_c, 0, 77, 0
6, 147000, Note_on_c, 0, 82, 68
6, 147020, Control_c, 0, 11, 122
6, 147070, Control_c, 0, 11, 127
6, 147464, Note_on_c, 0, 82, 0
6, 147480, Note_on_c, 0, 70, 68
6, 147480, Control_c, 0, 11, 127
6, 147520, Control_c, 0, 11, 124
6, 147560, Control_c, 0, 11, 122
6, 147600, Control_c, 0, 11, 119
6, 147640, Control_c, 0, 11, 117
6, 147680, Control_c, 0, 11, 114
6, 147720, Control_c, 0, 11, 112
6, 147760, Control_c, 0, 11, 109
6, 147800, Control_c, 0, 11, 106
6, 147840, Control_c, 0, 11, 104
6, 147880, Control_c, 0, 11, 101
6, 147920, Control_c, 0, 11, 96
6, 147944, Note_on_c, 0, 70, 0
6, 147960, Note_on_c, 0, 75, 68
6, 148079, Note_on_c, 0, 75, 0
6, 154680, Control_c, 0, 11, 127
6, 155280, Note_on_c, 0, 75, 52
6, 155384, Note_on_c, 0, 75, 0
6, 155400, Note_on_c, 0, 79, 68
6, 155744, Note_on_c, 0, 79, 0
6, 155760, Note_on_c, 0, 75, 52
6, 155849, Note_on_c, 0, 75, 0
6, 155880, Note_on_c, 0, 74, 68
6, 156209, Note_on_c, 0, 74, 0
6, 156240, Note_on_c, 0, 77, 52
6, 156329, Note_on_c, 0, 77, 0
6, 156360, Note_on_c, 0, 80, 52
6, 156449, Note_on_c, 0, 80, 0
6, 156480, Note_on_c, 0, 77, 52
6, 156569, Note_on_c, 0, 77, 0
6, 156600, Note_on_c, 0, 75, 52
6, 156719, Note_on_c, 0, 75, 0
6, 156720, Note_on_c, 0, 79, 52
6, 156824, Note_on_c, 0, 79, 0
6, 156840, Note_on_c, 0, 82, 52
6, 157049, Note_on_c, 0, 82, 0
6, 157080, Note_on_c, 0, 82, 52
6, 157289, Note_on_c, 0, 82, 0
6, 157320, Note_on_c, 0, 82, 52
6, 157529, Note_on_c, 0, 82, 0
6, 166680, Note_on_c, 0, 82, 84
6, 167144, Note_on_c, 0, 82, 0
6, 167160, Note_on_c, 0, 82, 84
6, 167624, Note_on_c, 0, 82, 0
6, 167640, Note_on_c, 0, 87, 84
6, 167984, Note_on_c, 0, 87, 0
6, 168000, Note_on_c, 0, 91, 84
6, 168000, Note_on_c, 0, 82, 84
6, 168089, Note_on_c, 0, 91, 0
6, 168089, Note_on_c, 0, 82, 0
6, 168120, Note_on_c, 0, 80, 84
6, 168120, Note_on_c, 0, 89, 84
6, 168209, Note_on_c, 0, 80, 0
6, 168209, Note_on_c, 0, 89, 0
6, 168240, Note_on_c, 0, 87, 84
6, 168240, Note_on_c, 0, 79, 84
6, 168329, Note_on_c, 0, 87, 0
6, 168329, Note_on_c, 0, 79, 0
6, 168360, Note_on_c, 0, 77, 84
6, 168360, Note_on_c, 0, 86, 84
6, 168449, Note_on_c, 0, 77, 0
6, 168449, Note_on_c, 0, 86, 0
6, 168480, Note_on_c, 0, 82, 84
6, 168480, Note_on_c, 0, 89, 84
6, 168569, Note_on_c, 0, 82, 0
6, 168569, Note_on_c, 0, 89, 0
6, 168600, Note_on_c, 0, 87, 84
6, 168600, Note_on_c, 0, 82, 84
6, 168944, Note_on_c, 0, 87, 0
6, 168944, Note_on_c, 0, 82, 0
6, 168960, Note_on_c, 0, 82, 84
6, 168960, Note_on_c, 0, 91, 84
6, 169049, Note_on_c, 0, 82, 0
6, 169049, Note_on_c, 0, 91, 0
6, 169080, Note_on_c, 0, 89, 84
6, 169080, Note_on_c, 0, 80, 84
6, 169169, Note_on_c, 0, 89, 0
6, 169169, Note_on_c, 0, 80, 0
6, 169200, Note_on_c, 0, 79, 84
6, 169200, Note_on_c, 0, 87, 84
6, 169289, Note_on_c, 0, 79, 0
6, 169289, Note_on_c, 0, 87, 0
6, 169320, Note_on_c, 0, 77, 84
6, 169320, Note_on_c, 0, 86, 84
6, 169409, Note_on_c, 0, 77, 0
6, 169409, Note_on_c, 0, 86, 0
6, 169440, Note_on_c, 0, 89, 84
6, 169440, Note_on_c, 0, 92, 84
6, 169529, Note_on_c, 0, 89, 0
6, 169529, Note_on_c, 0, 92, 0
6, 169560, Note_on_c, 0, 87, 84
6, 169560, Note_on_c, 0, 91, 84
6, 169649, Note_on_c, 0, 87, 0
6, 169649, Note_on_c, 0, 91, 0
6, 169680, Note_on_c, 0, 89, 84
6, 169680, Note_on_c, 0, 86, 84
6, 169769, Note_on_c, 0, 89, 0
6, 169769, Note_on_c, 0, 86, 0
6, 169800, Note_on_c, 0, 87, 84
6, 169800, Note_on_c, 0, 84, 84
6, 169889, Note_on_c, 0, 87, 0
6, 169889, Note_on_c, 0, 84, 0
6, 169920, Note_on_c, 0, 87, 84
6, 169920, Note_on_c, 0, 91, 84
6, 170009, Note_on_c, 0, 87, 0
6, 170009, Note_on_c, 0, 91, 0
6, 170040, Note_on_c, 0, 85, 84
6, 170040, Note_on_c, 0, 89, 84
6, 170129, Note_on_c, 0, 85, 0
6, 170129, Note_on_c, 0, 89, 0
6, 170160, Note_on_c, 0, 84, 84
6, 170160, Note_on_c, 0, 87, 84
6, 170249, Note_on_c, 0, 84, 0
6, 170249, Note_on_c, 0, 87, 0
6, 170280, Note_on_c, 0, 82, 84
6, 170280, Note_on_c, 0, 85, 84
6, 170369, Note_on_c, 0, 82, 0
6, 170369, Note_on_c, 0, 85, 0
6, 170400, Note_on_c, 0, 85, 84
6, 170400, Note_on_c, 0, 89, 84
6, 170489, Note_on_c, 0, 85, 0
6, 170489, Note_on_c, 0, 89, 0
6, 170520, Note_on_c, 0, 84, 84
6, 170520, Note_on_c, 0, 87, 84
6, 170609, Note_on_c, 0, 84, 0
6, 170609, Note_on_c, 0, 87, 0
6, 170640, Note_on_c, 0, 82, 84
6, 170640, Note_on_c, 0, 85, 84
6, 170729, Note_on_c, 0, 82, 0
6, 170729, Note_on_c, 0, 85, 0
6, 170760, Note_on_c, 0, 80, 84
6, 170760, Note_on_c, 0, 84, 84
6, 170849, Note_on_c, 0, 80, 0
6, 170849, Note_on_c, 0, 84, 0
6, 170880, Note_on_c, 0, 84, 84
6, 170880, Note_on_c, 0, 87, 84
6, 170969, Note_on_c, 0, 84, 0
6, 170969, Note_on_c, 0, 87, 0
6, 171000, Note_on_c, 0, 85, 84
6, 171000, Note_on_c, 0, 82, 84
6, 171089, Note_on_c, 0, 85, 0
6, 171089, Note_on_c, 0, 82, 0
6, 171120, Note_on_c, 0, 80, 84
6, 171120, Note_on_c, 0, 84, 84
6, 171209, Note_on_c, 0, 80, 0
6, 171209, Note_on_c, 0, 84, 0
6, 171240, Note_on_c, 0, 79, 84
6, 171240, Note_on_c, 0, 82, 84
6, 171329, Note_on_c, 0, 79, 0
6, 171329, Note_on_c, 0, 82, 0
6, 171360, Note_on_c, 0, 82, 84
6, 171360, Note_on_c, 0, 85, 84
6, 171449, Note_on_c, 0, 82, 0
6, 171449, Note_on_c, 0, 85, 0
6, 171480, Note_on_c, 0, 84, 84
6, 171480, Note_on_c, 0, 80, 84
6, 171569, Note_on_c, 0, 84, 0
6, 171569, Note_on_c, 0, 80, 0
6, 171600, Note_on_c, 0, 82, 84
6, 171600, Note_on_c, 0, 86, 84
6, 171689, Note_on_c, 0, 82, 0
6, 171689, Note_on_c, 0, 86, 0
6, 171720, Note_on_c, 0, 87, 84
6, 171720, Note_on_c, 0, 82, 84
6, 171809, Note_on_c, 0, 87, 0
6, 171809, Note_on_c, 0, 82, 0
6, 171840, Note_on_c, 0, 89, 84
6, 171840, Note_on_c, 0, 82, 84
6, 171929, Note_on_c, 0, 89, 0
6, 171929, Note_on_c, 0, 82, 0
6, 171960, Note_on_c, 0, 90, 84
6, 171960, Note_on_c, 0, 82, 84
6, 172049, Note_on_c, 0, 90, 0
6, 172049, Note_on_c, 0, 82, 0
6, 172080, Note_on_c, 0, 82, 84
6, 172080, Note_on_c, 0, 91, 84
6, 172169, Note_on_c, 0, 82, 0
6, 172169, Note_on_c, 0, 91, 0
6, 172200, Note_on_c, 0, 87, 84
6, 172200, Note_on_c, 0, 92, 84
6, 172289, Note_on_c, 0, 87, 0
6, 172289, Note_on_c, 0, 92, 0
6, 172320, Note_on_c, 0, 87, 84
6, 172409, Note_on_c, 0, 87, 0
6, 172440, Note_on_c, 0, 86, 84
6, 172679, Note_on_c, 0, 86, 0
6, 174600, Note_on_c, 0, 82, 84
6, 174704, Note_on_c, 0, 82, 0
6, 174720, Note_on_c, 0, 87, 84
6, 174771, Note_on_c, 0, 87, 0
6, 174780, Note_on_c, 0, 75, 84
6, 174831, Note_on_c, 0, 75, 0
6, 175080, Note_on_c, 0, 80, 84
6, 175184, Note_on_c, 0, 80, 0
6, 175200, Note_on_c, 0, 86, 84
6, 175251, Note_on_c, 0, 86, 0
6, 175260, Note_on_c, 0, 74, 84
6, 175311, Note_on_c, 0, 74, 0
6, 175920, Note_on_c, 0, 81, 84
6, 176024, Note_on_c, 0, 81, 0
6, 176040, Note_on_c, 0, 86, 84
6, 176280, Note_on_c, 0, 91, 84
6, 176384, Note_on_c, 0, 86, 0
6, 176400, Note_on_c, 0, 84, 84
6, 176504, Note_on_c, 0, 91, 0
6, 176520, Note_on_c, 0, 89, 84
6, 176624, Note_on_c, 0, 84, 0
6, 176640, Note_on_c, 0, 82, 84
6, 176744, Note_on_c, 0, 89, 0
6, 176760, Note_on_c, 0, 87, 84
6, 176879, Note_on_c, 0, 82, 0
6, 176880, Note_on_c, 0, 80, 84
6, 176984, Note_on_c, 0, 80, 0
6, 176999, Note_on_c, 0, 87, 0
6, 177000, Note_on_c, 0, 80, 84
6, 177000, Note_on_c, 0, 86, 84
6, 177089, Note_on_c, 0, 80, 0
6, 177089, Note_on_c, 0, 86, 0
6, 177120, Note_on_c, 0, 86, 84
6, 177120, Note_on_c, 0, 80, 84
6, 177209, Note_on_c, 0, 86, 0
6, 177209, Note_on_c, 0, 80, 0
6, 177240, Note_on_c, 0, 86, 84
6, 177240, Note_on_c, 0, 80, 84
6, 177344, Note_on_c, 0, 86, 0
6, 177344, Note_on_c, 0, 80, 0
6, 177360, Note_on_c, 0, 86, 84
6, 177360, Note_on_c, 0, 89, 84
6, 177464, Note_on_c, 0, 86, 0
6, 177464, Note_on_c, 0, 89, 0
6, 177480, Note_on_c, 0, 89, 84
6, 177480, Note_on_c, 0, 92, 84
6, 177584, Note_on_c, 0, 89, 0
6, 177584, Note_on_c, 0, 92, 0
6, 177600, Note_on_c, 0, 89, 84
6, 177600, Note_on_c, 0, 92, 84
6, 177704, Note_on_c, 0, 89, 0
6, 177704, Note_on_c, 0, 92, 0
6, 177720, Note_on_c, 0, 92, 84
6, 177720, Note_on_c, 0, 89, 84
6, 177824, Note_on_c, 0, 92, 0
6, 177824, Note_on_c, 0, 89, 0
6, 177840, Note_on_c, 0, 89, 84
6, 177840, Note_on_c, 0, 92, 84
6, 177944, Note_on_c, 0, 89, 0
6, 177944, Note_on_c, 0, 92, 0
6, 177960, Note_on_c, 0, 89, 84
6, 177960, Note_on_c, 0, 92, 84
6, 178064, Note_on_c, 0, 89, 0
6, 178064, Note_on_c, 0, 92, 0
6, 178080, Note_on_c, 0, 89, 84
6, 178080, Note_on_c, 0, 92, 84
6, 178184, Note_on_c, 0, 89, 0
6, 178184, Note_on_c, 0, 92, 0
6, 178200, Note_on_c, 0, 92, 84
6, 178200, Note_on_c, 0, 89, 84
6, 178304, Note_on_c, 0, 92, 0
6, 178304, Note_on_c, 0, 89, 0
6, 178320, Note_on_c, 0, 92, 84
6, 178320, Note_on_c, 0, 89, 84
6, 178424, Note_on_c, 0, 92, 0
6, 178424, Note_on_c, 0, 89, 0
6, 178440, Note_on_c, 0, 89, 84
6, 178440, Note_on_c, 0, 92, 84
6, 178544, Note_on_c, 0, 89, 0
6, 178544, Note_on_c, 0, 92, 0
6, 178560, Note_on_c, 0, 92, 84
6, 178560, Note_on_c, 0, 89, 84
6, 178664, Note_on_c, 0, 92, 0
6, 178664, Note_on_c, 0, 89, 0
6, 178680, Note_on_c, 0, 92, 84
6, 178680, Note_on_c, 0, 89, 84
6, 178784, Note_on_c, 0, 92, 0
6, 178784, Note_on_c, 0, 89, 0
6, 178800, Note_on_c, 0, 92, 84
6, 178800, Note_on_c, 0, 89, 84
6, 178904, Note_on_c, 0, 92, 0
6, 178904, Note_on_c, 0, 89, 0
6, 178920, Note_on_c, 0, 92, 84
6, 178920, Note_on_c, 0, 89, 84
6, 179024, Note_on_c, 0, 92, 0
6, 179024, Note_on_c, 0, 89, 0
6, 179040, Note_on_c, 0, 92, 84
6, 179040, Note_on_c, 0, 89, 84
6, 179144, Note_on_c, 0, 92, 0
6, 179144, Note_on_c, 0, 89, 0
6, 179160, Note_on_c, 0, 92, 84
6, 179160, Note_on_c, 0, 89, 84
6, 179264, Note_on_c, 0, 89, 0
6, 179280, Note_on_c, 0, 87, 84
6, 179384, Note_on_c, 0, 87, 0
6, 179400, Note_on_c, 0, 86, 84
6, 179504, Note_on_c, 0, 86, 0
6, 179520, Note_on_c, 0, 87, 84
6, 179624, Note_on_c, 0, 87, 0
6, 179640, Note_on_c, 0, 86, 84
6, 179744, Note_on_c, 0, 86, 0
6, 179760, Note_on_c, 0, 87, 84
6, 179864, Note_on_c, 0, 87, 0
6, 179880, Note_on_c, 0, 86, 84
6, 179984, Note_on_c, 0, 86, 0
6, 180000, Note_on_c, 0, 87, 84
6, 180104, Note_on_c, 0, 87, 0
6, 180120, Note_on_c, 0, 86, 84
6, 180359, Note_on_c, 0, 92, 0
6, 180359, Note_on_c, 0, 86, 0
6, 181320, Note_on_c, 0, 86, 92
6, 181320, Note_on_c, 0, 80, 92
6, 181769, Note_on_c, 0, 86, 0
6, 181769, Note_on_c, 0, 80, 0
6, 181800, Note_on_c, 0, 92, 92
6, 181800, Note_on_c, 0, 86, 92
6, 182369, Note_on_c, 0, 92, 0
6, 182369, Note_on_c, 0, 86, 0
6, 192300, Note_on_c, 0, 86, 55
6, 192355, Note_on_c, 0, 86, 0
6, 192360, Note_on_c, 0, 86, 56
6, 192479, Note_on_c, 0, 86, 0
6, 192480, Note_on_c, 0, 87, 58
6, 192539, Note_on_c, 0, 87, 0
6, 192780, Note_on_c, 0, 86, 63
6, 192835, Note_on_c, 0, 86, 0
6, 192840, Note_on_c, 0, 86, 64
6, 192959, Note_on_c, 0, 86, 0
6, 192960, Note_on_c, 0, 87, 66
6, 193019, Note_on_c, 0, 87, 0
6, 193170, Note_on_c, 0, 81, 58
6, 193195, Note_on_c, 0, 81, 0
6, 193200, Note_on_c, 0, 81, 60
6, 193259, Note_on_c, 0, 81, 0
6, 193260, Note_on_c, 0, 82, 64
6, 193319, Note_on_c, 0, 82, 0
6, 193410, Note_on_c, 0, 81, 62
6, 193435, Note_on_c, 0, 81, 0
6, 193440, Note_on_c, 0, 81, 60
6, 193499, Note_on_c, 0, 81, 0
6, 193500, Note_on_c, 0, 82, 56
6, 193559, Note_on_c, 0, 82, 0
6, 193680, Note_on_c, 0, 82, 52
6, 193799, Note_on_c, 0, 82, 0
6, 196200, Note_on_c, 0, 86, 56
6, 196244, Note_on_c, 0, 86, 0
6, 196260, Note_on_c, 0, 87, 57
6, 196371, Note_on_c, 0, 87, 0
6, 196380, Note_on_c, 0, 87, 59
6, 196424, Note_on_c, 0, 87, 0
6, 196680, Note_on_c, 0, 86, 64
6, 196724, Note_on_c, 0, 86, 0
6, 196740, Note_on_c, 0, 87, 65
6, 196851, Note_on_c, 0, 87, 0
6, 196860, Note_on_c, 0, 87, 67
6, 196904, Note_on_c, 0, 87, 0
6, 196918, Control_c, 0, 11, 96
6, 196920, Note_on_c, 0, 87, 68
6, 196920, Note_on_c, 0, 79, 68
6, 196920, Control_c, 0, 11, 96
6, 196940, Control_c, 0, 11, 99
6, 196960, Control_c, 0, 11, 101
6, 196980, Control_c, 0, 11, 104
6, 197000, Control_c, 0, 11, 106
6, 197020, Control_c, 0, 11, 109
6, 197040, Control_c, 0, 11, 112
6, 197060, Control_c, 0, 11, 114
6, 197080, Control_c, 0, 11, 117
6, 197100, Control_c, 0, 11, 119
6, 197120, Control_c, 0, 11, 122
6, 197140, Control_c, 0, 11, 124
6, 197159, Note_on_c, 0, 87, 0
6, 197159, Note_on_c, 0, 79, 0
6, 197160, Note_on_c, 0, 86, 68
6, 197160, Note_on_c, 0, 82, 68
6, 197160, Control_c, 0, 11, 127
6, 197180, Control_c, 0, 11, 124
6, 197200, Control_c, 0, 11, 122
6, 197220, Control_c, 0, 11, 119
6, 197240, Control_c, 0, 11, 117
6, 197260, Control_c, 0, 11, 114
6, 197280, Control_c, 0, 11, 112
6, 197300, Control_c, 0, 11, 109
6, 197320, Control_c, 0, 11, 106
6, 197339, Note_on_c, 0, 86, 0
6, 197339, Note_on_c, 0, 82, 0
6, 197340, Note_on_c, 0, 80, 68
6, 197340, Control_c, 0, 11, 104
6, 197340, Note_on_c, 0, 89, 68
6, 197360, Control_c, 0, 11, 101
6, 197380, Control_c, 0, 11, 96
6, 197395, Note_on_c, 0, 80, 0
6, 197395, Note_on_c, 0, 89, 0
6, 197400, Note_on_c, 0, 87, 68
6, 197400, Note_on_c, 0, 79, 68
6, 197519, Note_on_c, 0, 87, 0
6, 197519, Note_on_c, 0, 79, 0
6, 197880, Control_c, 0, 11, 127
6, 198000, Note_on_c, 0, 82, 84
6, 198089, Note_on_c, 0, 82, 0
6, 198120, Note_on_c, 0, 82, 92
6, 198449, Note_on_c, 0, 82, 0
6, 198480, Note_on_c, 0, 82, 84
6, 198569, Note_on_c, 0, 82, 0
6, 198600, Note_on_c, 0, 82, 92
6, 198929, Note_on_c, 0, 82, 0
6, 198960, Note_on_c, 0, 82, 84
6, 199049, Note_on_c, 0, 82, 0
6, 199080, Note_on_c, 0, 82, 92
6, 199409, Note_on_c, 0, 82, 0
6, 199440, Note_on_c, 0, 82, 84
6, 199529, Note_on_c, 0, 82, 0
6, 199560, Note_on_c, 0, 82, 92
6, 199844, Note_on_c, 0, 82, 0
6, 199860, Note_on_c, 0, 87, 84
6, 199860, Note_on_c, 0, 82, 84
6, 199915, Note_on_c, 0, 87, 0
6, 199915, Note_on_c, 0, 82, 0
6, 199920, Note_on_c, 0, 87, 84
6, 199920, Note_on_c, 0, 82, 84
6, 199975, Note_on_c, 0, 87, 0
6, 199975, Note_on_c, 0, 82, 0
6, 199980, Note_on_c, 0, 87, 84
6, 199980, Note_on_c, 0, 82, 84
6, 200039, Note_on_c, 0, 87, 0
6, 200039, Note_on_c, 0, 82, 0
6, 200100, Note_on_c, 0, 86, 84
6, 200100, Note_on_c, 0, 82, 84
6, 200155, Note_on_c, 0, 86, 0
6, 200155, Note_on_c, 0, 82, 0
6, 200160, Note_on_c, 0, 86, 84
6, 200160, Note_on_c, 0, 82, 84
6, 200215, Note_on_c, 0, 86, 0
6, 200215, Note_on_c, 0, 82, 0
6, 200220, Note_on_c, 0, 86, 84
6, 200220, Note_on_c, 0, 82, 84
6, 200279, Note_on_c, 0, 86, 0
6, 200279, Note_on_c, 0, 82, 0
6, 200340, Note_on_c, 0, 87, 92
6, 200340, Note_on_c, 0, 82, 92
6, 200395, Note_on_c, 0, 87, 0
6, 200395, Note_on_c, 0, 82, 0
6, 200400, Note_on_c, 0, 87, 84
6, 200400, Note_on_c, 0, 82, 84
6, 200455, Note_on_c, 0, 87, 0
6, 200455, Note_on_c, 0, 82, 0
6, 200460, Note_on_c, 0, 87, 84
6, 200460, Note_on_c, 0, 82, 84
6, 200515, Note_on_c, 0, 87, 0
6, 200515, Note_on_c, 0, 82, 0
6, 200520, Note_on_c, 0, 87, 84
6, 200520, Note_on_c, 0, 82, 84
6, 200575, Note_on_c, 0, 87, 0
6, 200575, Note_on_c, 0, 82, 0
6, 200580, Note_on_c, 0, 87, 84
6, 200580, Note_on_c, 0, 82, 84
6, 200635, Note_on_c, 0, 87, 0
6, 200635, Note_on_c, 0, 82, 0
6, 200640, Note_on_c, 0, 88, 84
6, 200640, Note_on_c, 0, 82, 84
6, 200695, Note_on_c, 0, 88, 0
6, 200695, Note_on_c, 0, 82, 0
6, 200700, Note_on_c, 0, 88, 84
6, 200700, Note_on_c, 0, 82, 84
6, 200755, Note_on_c, 0, 88, 0
6, 200755, Note_on_c, 0, 82, 0
6, 200760, Note_on_c, 0, 89, 84
6, 200760, Note_on_c, 0, 82, 84
6, 200815, Note_on_c, 0, 89, 0
6, 200815, Note_on_c, 0, 82, 0
6, 200820, Note_on_c, 0, 89, 84
6, 200820, Note_on_c, 0, 82, 84
6, 200875, Note_on_c, 0, 89, 0
6, 200875, Note_on_c, 0, 82, 0
6, 200880, Note_on_c, 0, 86, 84
6, 200880, Note_on_c, 0, 82, 84
6, 200935, Note_on_c, 0, 86, 0
6, 200935, Note_on_c, 0, 82, 0
6, 200940, Note_on_c, 0, 86, 84
6, 200940, Note_on_c, 0, 82, 84
6, 200995, Note_on_c, 0, 86, 0
6, 200995, Note_on_c, 0, 82, 0
6, 201000, Note_on_c, 0, 87, 84
6, 201000, Note_on_c, 0, 82, 84
6, 201055, Note_on_c, 0, 87, 0
6, 201055, Note_on_c, 0, 82, 0
6, 201060, Note_on_c, 0, 87, 84
6, 201060, Note_on_c, 0, 82, 84
6, 201115, Note_on_c, 0, 87, 0
6, 201115, Note_on_c, 0, 82, 0
6, 201120, Note_on_c, 0, 81, 84
6, 201175, Note_on_c, 0, 81, 0
6, 201180, Note_on_c, 0, 81, 84
6, 201235, Note_on_c, 0, 81, 0
6, 201240, Note_on_c, 0, 82, 84
6, 201295, Note_on_c, 0, 82, 0
6, 201300, Note_on_c, 0, 87, 84
6, 201300, Note_on_c, 0, 82, 84
6, 201355, Note_on_c, 0, 87, 0
6, 201355, Note_on_c, 0, 82, 0
6, 201360, Note_on_c, 0, 87, 84
6, 201360, Note_on_c, 0, 82, 84
6, 201415, Note_on_c, 0, 87, 0
6, 201415, Note_on_c, 0, 82, 0
6, 201420, Note_on_c, 0, 87, 84
6, 201420, Note_on_c, 0, 82, 84
6, 201475, Note_on_c, 0, 87, 0
6, 201475, Note_on_c, 0, 82, 0
6, 201480, Note_on_c, 0, 86, 84
6, 201480, Note_on_c, 0, 82, 84
6, 201599, Note_on_c, 0, 86, 0
6, 201599, Note_on_c, 0, 82, 0
6, 201840, Note_on_c, 0, 82, 84
6, 201929, Note_on_c, 0, 82, 0
6, 201960, Note_on_c, 0, 82, 92
6, 202304, Note_on_c, 0, 82, 0
6, 202320, Note_on_c, 0, 89, 84
6, 202320, Note_on_c, 0, 82, 84
6, 202409, Note_on_c, 0, 89, 0
6, 202409, Note_on_c, 0, 82, 0
6, 202440, Note_on_c, 0, 89, 92
6, 202440, Note_on_c, 0, 82, 92
6, 202784, Note_on_c, 0, 89, 0
6, 202784, Note_on_c, 0, 82, 0
6, 202800, Note_on_c, 0, 89, 84
6, 202800, Note_on_c, 0, 82, 84
6, 202911, Note_on_c, 0, 89, 0
6, 202911, Note_on_c, 0, 82, 0
6, 202920, Note_on_c, 0, 89, 84
6, 202920, Note_on_c, 0, 82, 84
6, 203031, Note_on_c, 0, 89, 0
6, 203031, Note_on_c, 0, 82, 0
6, 203040, Note_on_c, 0, 89, 84
6, 203040, Note_on_c, 0, 82, 84
6, 203151, Note_on_c, 0, 89, 0
6, 203151, Note_on_c, 0, 82, 0
6, 203160, Note_on_c, 0, 89, 84
6, 203160, Note_on_c, 0, 82, 84
6, 203271, Note_on_c, 0, 82, 0
6, 203280, Note_on_c, 0, 82, 84
6, 203391, Note_on_c, 0, 82, 0
6, 203400, Note_on_c, 0, 82, 84
6, 203519, Note_on_c, 0, 89, 0
6, 203520, Note_on_c, 0, 90, 84
6, 203631, Note_on_c, 0, 90, 0
6, 203640, Note_on_c, 0, 91, 84
6, 203751, Note_on_c, 0, 82, 0
6, 203751, Note_on_c, 0, 91, 0
6, 203760, Note_on_c, 0, 87, 84
6, 203760, Note_on_c, 0, 82, 84
6, 203871, Note_on_c, 0, 87, 0
6, 203871, Note_on_c, 0, 82, 0
6, 203880, Note_on_c, 0, 87, 92
6, 203880, Note_on_c, 0, 82, 92
6, 204119, Note_on_c, 0, 82, 0
6, 204120, Note_on_c, 0, 84, 84
6, 204224, Note_on_c, 0, 87, 0
6, 204231, Note_on_c, 0, 84, 0
6, 204240, Note_on_c, 0, 87, 84
6, 204240, Note_on_c, 0, 80, 84
6, 204351, Note_on_c, 0, 87, 0
6, 204351, Note_on_c, 0, 80, 0
6, 204360, Note_on_c, 0, 87, 92
6, 204360, Note_on_c, 0, 80, 92
6, 204599, Note_on_c, 0, 87, 0
6, 204599, Note_on_c, 0, 80, 0
6, 204600, Note_on_c, 0, 87, 84
6, 204600, Note_on_c, 0, 82, 84
6, 204655, Note_on_c, 0, 87, 0
6, 204655, Note_on_c, 0, 82, 0
6, 204660, Note_on_c, 0, 87, 84
6, 204660, Note_on_c, 0, 82, 84
6, 204715, Note_on_c, 0, 87, 0
6, 204715, Note_on_c, 0, 82, 0
6, 204720, Note_on_c, 0, 87, 84
6, 204720, Note_on_c, 0, 82, 84
6, 204775, Note_on_c, 0, 87, 0
6, 204775, Note_on_c, 0, 82, 0
6, 204780, Note_on_c, 0, 87, 84
6, 204780, Note_on_c, 0, 82, 84
6, 204839, Note_on_c, 0, 87, 0
6, 204839, Note_on_c, 0, 82, 0
6, 204900, Note_on_c, 0, 86, 84
6, 204900, Note_on_c, 0, 82, 84
6, 204955, Note_on_c, 0, 86, 0
6, 204955, Note_on_c, 0, 82, 0
6, 204960, Note_on_c, 0, 86, 84
6, 204960, Note_on_c, 0, 82, 84
6, 205015, Note_on_c, 0, 86, 0
6, 205015, Note_on_c, 0, 82, 0
6, 205020, Note_on_c, 0, 86, 84
6, 205020, Note_on_c, 0, 82, 84
6, 205075, Note_on_c, 0, 86, 0
6, 205075, Note_on_c, 0, 82, 0
6, 205080, Note_on_c, 0, 87, 84
6, 205080, Note_on_c, 0, 82, 84
6, 205199, Note_on_c, 0, 87, 0
6, 205199, Note_on_c, 0, 82, 0
6, 206240, Control_c, 0, 11, 102
6, 206280, Control_c, 0, 11, 104
6, 206280, Note_on_c, 0, 86, 68
6, 206320, Control_c, 0, 11, 105
6, 206360, Control_c, 0, 11, 106
6, 206400, Control_c, 0, 11, 108
6, 206440, Control_c, 0, 11, 109
6, 206480, Control_c, 0, 11, 110
6, 206520, Control_c, 0, 11, 112
6, 206549, Note_on_c, 0, 86, 0
6, 206560, Note_on_c, 0, 87, 68
6, 206560, Control_c, 0, 11, 113
6, 206589, Note_on_c, 0, 87, 0
6, 206600, Control_c, 0, 11, 114
6, 206600, Note_on_c, 0, 89, 68
6, 206629, Note_on_c, 0, 89, 0
6, 206640, Note_on_c, 0, 87, 68
6, 206640, Control_c, 0, 11, 115
6, 206669, Note_on_c, 0, 87, 0
6, 206680, Control_c, 0, 11, 117
6, 206680, Note_on_c, 0, 86, 68
6, 206709, Note_on_c, 0, 86, 0
6, 206720, Note_on_c, 0, 84, 68
6, 206720, Control_c, 0, 11, 118
6, 206749, Note_on_c, 0, 84, 0
6, 206760, Note_on_c, 0, 82, 68
6, 206760, Control_c, 0, 11, 119
6, 206789, Note_on_c, 0, 82, 0
6, 206800, Note_on_c, 0, 84, 68
6, 206800, Control_c, 0, 11, 121
6, 206829, Note_on_c, 0, 84, 0
6, 206840, Note_on_c, 0, 82, 68
6, 206840, Control_c, 0, 11, 122
6, 206869, Note_on_c, 0, 82, 0
6, 206880, Note_on_c, 0, 80, 68
6, 206880, Control_c, 0, 11, 123
6, 206909, Note_on_c, 0, 80, 0
6, 206920, Note_on_c, 0, 79, 68
6, 206920, Control_c, 0, 11, 124
6, 206949, Note_on_c, 0, 79, 0
6, 206960, Note_on_c, 0, 77, 68
6, 206960, Control_c, 0, 11, 127
6, 206989, Note_on_c, 0, 77, 0
6, 207000, Note_on_c, 0, 75, 52
6, 207119, Note_on_c, 0, 75, 0
6, 207960, Control_c, 0, 11, 96
6, 208000, Control_c, 0, 11, 97
6, 208040, Control_c, 0, 11, 99
6, 208080, Control_c, 0, 11, 100
6, 208120, Control_c, 0, 11, 101
6, 208160, Control_c, 0, 11, 102
6, 208200, Note_on_c, 0, 86, 68
6, 208200, Control_c, 0, 11, 104
6, 208240, Control_c, 0, 11, 105
6, 208280, Control_c, 0, 11, 106
6, 208320, Control_c, 0, 11, 108
6, 208360, Control_c, 0, 11, 109
6, 208400, Control_c, 0, 11, 110
6, 208439, Note_on_c, 0, 86, 0
6, 208440, Control_c, 0, 11, 112
6, 208440, Note_on_c, 0, 85, 68
6, 208479, Note_on_c, 0, 85, 0
6, 208480, Note_on_c, 0, 87, 68
6, 208480, Control_c, 0, 11, 113
6, 208509, Note_on_c, 0, 87, 0
6, 208520, Control_c, 0, 11, 114
6, 208520, Note_on_c, 0, 89, 68
6, 208549, Note_on_c, 0, 89, 0
6, 208560, Note_on_c, 0, 87, 68
6, 208560, Control_c, 0, 11, 115
6, 208589, Note_on_c, 0, 87, 0
6, 208600, Control_c, 0, 11, 117
6, 208600, Note_on_c, 0, 85, 68
6, 208629, Note_on_c, 0, 85, 0
6, 208640, Note_on_c, 0, 84, 68
6, 208640, Control_c, 0, 11, 118
6, 208669, Note_on_c, 0, 84, 0
6, 208680, Note_on_c, 0, 82, 68
6, 208680, Control_c, 0, 11, 119
6, 208709, Note_on_c, 0, 82, 0
6, 208720, Note_on_c, 0, 80, 68
6, 208720, Control_c, 0, 11, 121
6, 208749, Note_on_c, 0, 80, 0
6, 208760, Note_on_c, 0, 79, 68
6, 208760, Control_c, 0, 11, 122
6, 208789, Note_on_c, 0, 79, 0
6, 208800, Note_on_c, 0, 77, 68
6, 208800, Control_c, 0, 11, 123
6, 208829, Note_on_c, 0, 77, 0
6, 208840, Note_on_c, 0, 75, 68
6, 208840, Control_c, 0, 11, 124
6, 208869, Note_on_c, 0, 75, 0
6, 208880, Note_on_c, 0, 73, 68
6, 208880, Control_c, 0, 11, 127
6, 208909, Note_on_c, 0, 73, 0
6, 208920, Note_on_c, 0, 72, 52
6, 209039, Note_on_c, 0, 72, 0
6, 214680, Note_on_c, 0, 90, 76
6, 214680, Note_on_c, 0, 85, 76
6, 214859, Note_on_c, 0, 90, 0
6, 214859, Note_on_c, 0, 85, 0
6, 214920, Note_on_c, 0, 90, 78
6, 214920, Note_on_c, 0, 85, 78
6, 215099, Note_on_c, 0, 90, 0
6, 215099, Note_on_c, 0, 85, 0
6, 215160, Note_on_c, 0, 90, 80
6, 215160, Note_on_c, 0, 84, 80
6, 215631, Note_on_c, 0, 90, 0
6, 215631, Note_on_c, 0, 84, 0
6, 215640, Note_on_c, 0, 91, 84
6, 215640, Note_on_c, 0, 82, 84
6, 216111, Note_on_c, 0, 91, 0
6, 216111, Note_on_c, 0, 82, 0
6, 216120, Note_on_c, 0, 91, 84
6, 216120, Note_on_c, 0, 81, 84
6, 216351, Note_on_c, 0, 91, 0
6, 216351, Note_on_c, 0, 81, 0
6, 216360, Note_on_c, 0, 90, 84
6, 216360, Note_on_c, 0, 81, 84
6, 216591, Note_on_c, 0, 90, 0
6, 216591, Note_on_c, 0, 81, 0
6, 216600, Note_on_c, 0, 91, 84
6, 216600, Note_on_c, 0, 82, 84
6, 216719, Note_on_c, 0, 91, 0
6, 216719, Note_on_c, 0, 82, 0
6, 216840, Note_on_c, 0, 86, 52
6, 216895, Note_on_c, 0, 86, 0
6, 216900, Note_on_c, 0, 86, 52
6, 216959, Note_on_c, 0, 86, 0
6, 217080, Note_on_c, 0, 87, 52
6, 217135, Note_on_c, 0, 87, 0
6, 217140, Note_on_c, 0, 87, 52
6, 217199, Note_on_c, 0, 87, 0
6, 217320, Note_on_c, 0, 78, 52
6, 217375, Note_on_c, 0, 78, 0
6, 217380, Note_on_c, 0, 78, 52
6, 217439, Note_on_c, 0, 78, 0
6, 217560, Note_on_c, 0, 87, 52
6, 217615, Note_on_c, 0, 87, 0
6, 217620, Note_on_c, 0, 87, 52
6, 217679, Note_on_c, 0, 87, 0
6, 217800, Note_on_c, 0, 78, 52
6, 217855, Note_on_c, 0, 78, 0
6, 217860, Note_on_c, 0, 78, 52
6, 217919, Note_on_c, 0, 78, 0
6, 218040, Note_on_c, 0, 89, 52
6, 218095, Note_on_c, 0, 89, 0
6, 218100, Note_on_c, 0, 89, 54
6, 218159, Note_on_c, 0, 89, 0
6, 218280, Note_on_c, 0, 83, 60
6, 218335, Note_on_c, 0, 83, 0
6, 218340, Note_on_c, 0, 83, 62
6, 218399, Note_on_c, 0, 83, 0
6, 218520, Note_on_c, 0, 89, 68
6, 218575, Note_on_c, 0, 89, 0
6, 218580, Note_on_c, 0, 89, 66
6, 218639, Note_on_c, 0, 89, 0
6, 218760, Note_on_c, 0, 83, 60
6, 218815, Note_on_c, 0, 83, 0
6, 218820, Note_on_c, 0, 83, 58
6, 218879, Note_on_c, 0, 83, 0
6, 219000, Note_on_c, 0, 86, 52
6, 219055, Note_on_c, 0, 86, 0
6, 219060, Note_on_c, 0, 86, 52
6, 219119, Note_on_c, 0, 86, 0
6, 219240, Note_on_c, 0, 84, 52
6, 219295, Note_on_c, 0, 84, 0
6, 219300, Note_on_c, 0, 84, 52
6, 219359, Note_on_c, 0, 84, 0
6, 219480, Note_on_c, 0, 87, 52
6, 219535, Note_on_c, 0, 87, 0
6, 219540, Note_on_c, 0, 87, 52
6, 219599, Note_on_c, 0, 87, 0
6, 219720, Note_on_c, 0, 78, 52
6, 219775, Note_on_c, 0, 78, 0
6, 219780, Note_on_c, 0, 78, 52
6, 219839, Note_on_c, 0, 78, 0
6, 219960, Note_on_c, 0, 79, 52
6, 220015, Note_on_c, 0, 79, 0
6, 220020, Note_on_c, 0, 79, 54
6, 220079, Note_on_c, 0, 79, 0
6, 220200, Note_on_c, 0, 86, 60
6, 220255, Note_on_c, 0, 86, 0
6, 220260, Note_on_c, 0, 86, 62
6, 220319, Note_on_c, 0, 86, 0
6, 220440, Note_on_c, 0, 87, 68
6, 220495, Note_on_c, 0, 87, 0
6, 220500, Note_on_c, 0, 87, 66
6, 220559, Note_on_c, 0, 87, 0
6, 220680, Note_on_c, 0, 78, 60
6, 220735, Note_on_c, 0, 78, 0
6, 220740, Note_on_c, 0, 78, 58
6, 220799, Note_on_c, 0, 78, 0
6, 220920, Note_on_c, 0, 79, 52
6, 220975, Note_on_c, 0, 79, 0
6, 220980, Note_on_c, 0, 79, 51
6, 221039, Note_on_c, 0, 79, 0
6, 221160, Note_on_c, 0, 91, 48
6, 221215, Note_on_c, 0, 91, 0
6, 221220, Note_on_c, 0, 91, 47
6, 221279, Note_on_c, 0, 91, 0
6, 221400, Note_on_c, 0, 91, 44
6, 221455, Note_on_c, 0, 91, 0
6, 221460, Note_on_c, 0, 91, 44
6, 221519, Note_on_c, 0, 91, 0
6, 221640, Note_on_c, 0, 90, 44
6, 221695, Note_on_c, 0, 90, 0
6, 221700, Note_on_c, 0, 90, 44
6, 221759, Note_on_c, 0, 90, 0
6, 221880, Note_on_c, 0, 91, 84
6, 221880, Note_on_c, 0, 79, 84
6, 222415, Note_on_c, 0, 91, 0
6, 222415, Note_on_c, 0, 79, 0
6, 222420, Note_on_c, 0, 89, 84
6, 222475, Note_on_c, 0, 89, 0
6, 222480, Note_on_c, 0, 87, 84
6, 222535, Note_on_c, 0, 87, 0
6, 222540, Note_on_c, 0, 86, 84
6, 222595, Note_on_c, 0, 86, 0
6, 222600, Note_on_c, 0, 87, 84
6, 222655, Note_on_c, 0, 87, 0
6, 222660, Note_on_c, 0, 86, 84
6, 222715, Note_on_c, 0, 86, 0
6, 222720, Note_on_c, 0, 84, 84
6, 222775, Note_on_c, 0, 84, 0
6, 222780, Note_on_c, 0, 82, 84
6, 222835, Note_on_c, 0, 82, 0
6, 222840, Note_on_c, 0, 84, 84
6, 222895, Note_on_c, 0, 84, 0
6, 222900, Note_on_c, 0, 82, 84
6, 222955, Note_on_c, 0, 82, 0
6, 222960, Note_on_c, 0, 81, 84
6, 223015, Note_on_c, 0, 81, 0
6, 223020, Note_on_c, 0, 79, 84
6, 223075, Note_on_c, 0, 79, 0
6, 223080, Note_on_c, 0, 80, 84
6, 223135, Note_on_c, 0, 80, 0
6, 223140, Note_on_c, 0, 79, 84
6, 223195, Note_on_c, 0, 79, 0
6, 223200, Note_on_c, 0, 77, 84
6, 223255, Note_on_c, 0, 77, 0
6, 223260, Note_on_c, 0, 75, 84
6, 223315, Note_on_c, 0, 75, 0
6, 223320, Note_on_c, 0, 74, 84
6, 223431, Note_on_c, 0, 74, 0
6, 223440, Note_on_c, 0, 89, 84
6, 223440, Note_on_c, 0, 77, 84
6, 223495, Note_on_c, 0, 89, 0
6, 223495, Note_on_c, 0, 77, 0
6, 223500, Note_on_c, 0, 87, 84
6, 223500, Note_on_c, 0, 75, 84
6, 223555, Note_on_c, 0, 87, 0
6, 223555, Note_on_c, 0, 75, 0
6, 223560, Note_on_c, 0, 86, 84
6, 223560, Note_on_c, 0, 74, 84
6, 223615, Note_on_c, 0, 86, 0
6, 223615, Note_on_c, 0, 74, 0
6, 223620, Note_on_c, 0, 82, 84
6, 223675, Note_on_c, 0, 82, 0
6, 223680, Note_on_c, 0, 84, 84
6, 223735, Note_on_c, 0, 84, 0
6, 223740, Note_on_c, 0, 86, 84
6, 223795, Note_on_c, 0, 86, 0
6, 223800, Note_on_c, 0, 87, 84
6, 223919, Note_on_c, 0, 87, 0
6, 225900, Note_on_c, 0, 87, 84
6, 225900, Note_on_c, 0, 82, 84
6, 225955, Note_on_c, 0, 87, 0
6, 225955, Note_on_c, 0, 82, 0
6, 225960, Note_on_c, 0, 91, 92
6, 225960, Note_on_c, 0, 82, 92
6, 226139, Note_on_c, 0, 91, 0
6, 226139, Note_on_c, 0, 82, 0
6, 226140, Note_on_c, 0, 87, 84
6, 226140, Note_on_c, 0, 82, 84
6, 226195, Note_on_c, 0, 87, 0
6, 226195, Note_on_c, 0, 82, 0
6, 226200, Note_on_c, 0, 86, 84
6, 226200, Note_on_c, 0, 82, 84
6, 226319, Note_on_c, 0, 86, 0
6, 226319, Note_on_c, 0, 82, 0
6, 226380, Note_on_c, 0, 89, 84
6, 226380, Note_on_c, 0, 82, 84
6, 226435, Note_on_c, 0, 89, 0
6, 226435, Note_on_c, 0, 82, 0
6, 226440, Note_on_c, 0, 92, 84
6, 226440, Note_on_c, 0, 86, 84
6, 226619, Note_on_c, 0, 92, 0
6, 226619, Note_on_c, 0, 86, 0
6, 226620, Note_on_c, 0, 89, 84
6, 226620, Note_on_c, 0, 82, 84
6, 226675, Note_on_c, 0, 89, 0
6, 226675, Note_on_c, 0, 82, 0
6, 226680, Note_on_c, 0, 87, 84
6, 226680, Note_on_c, 0, 82, 84
6, 226735, Note_on_c, 0, 87, 0
6, 226735, Note_on_c, 0, 82, 0
6, 226740, Note_on_c, 0, 87, 84
6, 226740, Note_on_c, 0, 82, 84
6, 226795, Note_on_c, 0, 87, 0
6, 226795, Note_on_c, 0, 82, 0
6, 226800, Note_on_c, 0, 87, 84
6, 226800, Note_on_c, 0, 82, 84
6, 226855, Note_on_c, 0, 87, 0
6, 226855, Note_on_c, 0, 82, 0
6, 226860, Note_on_c, 0, 87, 84
6, 226860, Note_on_c, 0, 82, 84
6, 226915, Note_on_c, 0, 87, 0
6, 226915, Note_on_c, 0, 82, 0
6, 226920, Note_on_c, 0, 87, 92
6, 226920, Note_on_c, 0, 82, 92
6, 227099, Note_on_c, 0, 87, 0
6, 227099, Note_on_c, 0, 82, 0
6, 227100, Note_on_c, 0, 91, 84
6, 227100, Note_on_c, 0, 82, 84
6, 227155, Note_on_c, 0, 91, 0
6, 227155, Note_on_c, 0, 82, 0
6, 227160, Note_on_c, 0, 92, 84
6, 227160, Note_on_c, 0, 82, 84
6, 227215, Note_on_c, 0, 92, 0
6, 227215, Note_on_c, 0, 82, 0
6, 227220, Note_on_c, 0, 89, 84
6, 227220, Note_on_c, 0, 82, 84
6, 227275, Note_on_c, 0, 89, 0
6, 227275, Note_on_c, 0, 82, 0
6, 227280, Note_on_c, 0, 89, 84
6, 227280, Note_on_c, 0, 82, 84
6, 227335, Note_on_c, 0, 89, 0
6, 227335, Note_on_c, 0, 82, 0
6, 227340, Note_on_c, 0, 89, 84
6, 227340, Note_on_c, 0, 82, 84
6, 227395, Note_on_c, 0, 89, 0
6, 227395, Note_on_c, 0, 82, 0
6, 227400, Note_on_c, 0, 86, 92
6, 227400, Note_on_c, 0, 82, 92
6, 227579, Note_on_c, 0, 86, 0
6, 227579, Note_on_c, 0, 82, 0
6, 227580, Note_on_c, 0, 89, 84
6, 227580, Note_on_c, 0, 82, 84
6, 227635, Note_on_c, 0, 89, 0
6, 227635, Note_on_c, 0, 82, 0
6, 227640, Note_on_c, 0, 91, 84
6, 227640, Note_on_c, 0, 82, 84
6, 227684, Note_on_c, 0, 91, 0
6, 227684, Note_on_c, 0, 82, 0
6, 227700, Note_on_c, 0, 91, 84
6, 227700, Note_on_c, 0, 82, 84
6, 227744, Note_on_c, 0, 91, 0
6, 227744, Note_on_c, 0, 82, 0
6, 227760, Note_on_c, 0, 91, 84
6, 227760, Note_on_c, 0, 82, 84
6, 227804, Note_on_c, 0, 91, 0
6, 227804, Note_on_c, 0, 82, 0
6, 227820, Note_on_c, 0, 91, 84
6, 227820, Note_on_c, 0, 82, 84
6, 227864, Note_on_c, 0, 91, 0
6, 227864, Note_on_c, 0, 82, 0
6, 227880, Note_on_c, 0, 87, 92
6, 227880, Note_on_c, 0, 82, 92
6, 227935, Note_on_c, 0, 82, 0
6, 227939, Note_on_c, 0, 87, 0
6, 227940, Note_on_c, 0, 91, 84
6, 227940, Note_on_c, 0, 82, 84
6, 227995, Note_on_c, 0, 91, 0
6, 227995, Note_on_c, 0, 82, 0
6, 228000, Note_on_c, 0, 91, 84
6, 228000, Note_on_c, 0, 82, 84
6, 228044, Note_on_c, 0, 91, 0
6, 228055, Note_on_c, 0, 82, 0
6, 228060, Note_on_c, 0, 91, 84
6, 228060, Note_on_c, 0, 82, 84
6, 228104, Note_on_c, 0, 91, 0
6, 228115, Note_on_c, 0, 82, 0
6, 228120, Note_on_c, 0, 92, 84
6, 228120, Note_on_c, 0, 82, 84
6, 228164, Note_on_c, 0, 92, 0
6, 228175, Note_on_c, 0, 82, 0
6, 228180, Note_on_c, 0, 82, 84
6, 228180, Note_on_c, 0, 89, 84
6, 228224, Note_on_c, 0, 89, 0
6, 228235, Note_on_c, 0, 82, 0
6, 228240, Note_on_c, 0, 82, 84
6, 228240, Note_on_c, 0, 89, 84
6, 228284, Note_on_c, 0, 89, 0
6, 228295, Note_on_c, 0, 82, 0
6, 228300, Note_on_c, 0, 82, 84
6, 228300, Note_on_c, 0, 89, 84
6, 228344, Note_on_c, 0, 89, 0
6, 228355, Note_on_c, 0, 82, 0
6, 228360, Note_on_c, 0, 82, 92
6, 228360, Note_on_c, 0, 86, 92
6, 228415, Note_on_c, 0, 82, 0
6, 228419, Note_on_c, 0, 86, 0
6, 228420, Note_on_c, 0, 82, 84
6, 228420, Note_on_c, 0, 89, 84
6, 228475, Note_on_c, 0, 82, 0
6, 228475, Note_on_c, 0, 89, 0
6, 228480, Note_on_c, 0, 82, 84
6, 228480, Note_on_c, 0, 89, 84
6, 228524, Note_on_c, 0, 89, 0
6, 228535, Note_on_c, 0, 82, 0
6, 228540, Note_on_c, 0, 82, 84
6, 228540, Note_on_c, 0, 89, 84
6, 228584, Note_on_c, 0, 89, 0
6, 228595, Note_on_c, 0, 82, 0
6, 228600, Note_on_c, 0, 82, 92
6, 228600, Note_on_c, 0, 91, 92
6, 228655, Note_on_c, 0, 82, 0
6, 228655, Note_on_c, 0, 91, 0
6, 228660, Note_on_c, 0, 82, 84
6, 228660, Note_on_c, 0, 91, 84
6, 228715, Note_on_c, 0, 82, 0
6, 228715, Note_on_c, 0, 91, 0
6, 228720, Note_on_c, 0, 82, 84
6, 228720, Note_on_c, 0, 87, 84
6, 228775, Note_on_c, 0, 82, 0
6, 228775, Note_on_c, 0, 87, 0
6, 228780, Note_on_c, 0, 82, 84
6, 228780, Note_on_c, 0, 91, 84
6, 228835, Note_on_c, 0, 82, 0
6, 228835, Note_on_c, 0, 91, 0
6, 228840, Note_on_c, 0, 82, 92
6, 228840, Note_on_c, 0, 92, 92
6, 228895, Note_on_c, 0, 82, 0
6, 228895, Note_on_c, 0, 92, 0
6, 228900, Note_on_c, 0, 82, 84
6, 228900, Note_on_c, 0, 89, 84
6, 228955, Note_on_c, 0, 82, 0
6, 228955, Note_on_c, 0, 89, 0
6, 228960, Note_on_c, 0, 82, 84
6, 228960, Note_on_c, 0, 86, 84
6, 229015, Note_on_c, 0, 82, 0
6, 229015, Note_on_c, 0, 86, 0
6, 229020, Note_on_c, 0, 82, 84
6, 229020, Note_on_c, 0, 89, 84
6, 229075, Note_on_c, 0, 82, 0
6, 229075, Note_on_c, 0, 89, 0
6, 229080, Note_on_c, 0, 82, 92
6, 229080, Note_on_c, 0, 91, 92
6, 229135, Note_on_c, 0, 82, 0
6, 229135, Note_on_c, 0, 91, 0
6, 229140, Note_on_c, 0, 82, 84
6, 229140, Note_on_c, 0, 91, 84
6, 229195, Note_on_c, 0, 82, 0
6, 229195, Note_on_c, 0, 91, 0
6, 229200, Note_on_c, 0, 82, 84
6, 229200, Note_on_c, 0, 87, 84
6, 229255, Note_on_c, 0, 82, 0
6, 229255, Note_on_c, 0, 87, 0
6, 229260, Note_on_c, 0, 82, 84
6, 229260, Note_on_c, 0, 91, 84
6, 229315, Note_on_c, 0, 82, 0
6, 229315, Note_on_c, 0, 91, 0
6, 229320, Note_on_c, 0, 82, 92
6, 229320, Note_on_c, 0, 92, 92
6, 229375, Note_on_c, 0, 82, 0
6, 229375, Note_on_c, 0, 92, 0
6, 229380, Note_on_c, 0, 82, 84
6, 229380, Note_on_c, 0, 89, 84
6, 229435, Note_on_c, 0, 82, 0
6, 229435, Note_on_c, 0, 89, 0
6, 229440, Note_on_c, 0, 82, 84
6, 229440, Note_on_c, 0, 86, 84
6, 229495, Note_on_c, 0, 82, 0
6, 229495, Note_on_c, 0, 86, 0
6, 229500, Note_on_c, 0, 82, 84
6, 229500, Note_on_c, 0, 89, 84
6, 229555, Note_on_c, 0, 82, 0
6, 229555, Note_on_c, 0, 89, 0
6, 229560, Note_on_c, 0, 91, 84
6, 229560, Note_on_c, 0, 82, 84
6, 229615, Note_on_c, 0, 91, 0
6, 229615, Note_on_c, 0, 82, 0
6, 229620, Note_on_c, 0, 75, 84
6, 229675, Note_on_c, 0, 75, 0
6, 229680, Note_on_c, 0, 77, 84
6, 229735, Note_on_c, 0, 77, 0
6, 229740, Note_on_c, 0, 79, 84
6, 229795, Note_on_c, 0, 79, 0
6, 229800, Note_on_c, 0, 80, 92
6, 229855, Note_on_c, 0, 80, 0
6, 229860, Note_on_c, 0, 79, 84
6, 229915, Note_on_c, 0, 79, 0
6, 229920, Note_on_c, 0, 80, 84
6, 229975, Note_on_c, 0, 80, 0
6, 229980, Note_on_c, 0, 81, 84
6, 230035, Note_on_c, 0, 81, 0
6, 230040, Note_on_c, 0, 82, 92
6, 230095, Note_on_c, 0, 82, 0
6, 230100, Note_on_c, 0, 81, 84
6, 230155, Note_on_c, 0, 81, 0
6, 230160, Note_on_c, 0, 82, 84
6, 230215, Note_on_c, 0, 82, 0
6, 230220, Note_on_c, 0, 83, 84
6, 230275, Note_on_c, 0, 83, 0
6, 230280, Note_on_c, 0, 84, 92
6, 230335, Note_on_c, 0, 84, 0
6, 230340, Note_on_c, 0, 83, 84
6, 230395, Note_on_c, 0, 83, 0
6, 230400, Note_on_c, 0, 84, 84
6, 230455, Note_on_c, 0, 84, 0
6, 230460, Note_on_c, 0, 86, 84
6, 230515, Note_on_c, 0, 86, 0
6, 230520, Note_on_c, 0, 87, 84
6, 230631, Note_on_c, 0, 87, 0
6, 230640, Note_on_c, 0, 84, 84
6, 230759, Note_on_c, 0, 84, 0
6, 230880, Note_on_c, 0, 80, 84
6, 230999, Note_on_c, 0, 80, 0
6, 231120, Note_on_c, 0, 77, 84
6, 231239, Note_on_c, 0, 77, 0
6, 231360, Note_on_c, 0, 82, 84
6, 231479, Note_on_c, 0, 82, 0
6, 231600, Note_on_c, 0, 84, 92
6, 231719, Note_on_c, 0, 84, 0
6, 231840, Note_on_c, 0, 80, 84
6, 231959, Note_on_c, 0, 80, 0
6, 232080, Note_on_c, 0, 77, 84
6, 232199, Note_on_c, 0, 77, 0
6, 232320, Note_on_c, 0, 82, 84
6, 232431, Note_on_c, 0, 82, 0
6, 232440, Note_on_c, 0, 87, 84
6, 232484, Note_on_c, 0, 87, 0
6, 232500, Note_on_c, 0, 70, 84
6, 232544, Note_on_c, 0, 70, 0
6, 232560, Note_on_c, 0, 75, 84
6, 232604, Note_on_c, 0, 75, 0
6, 232620, Note_on_c, 0, 70, 84
6, 232664, Note_on_c, 0, 70, 0
6, 232680, Note_on_c, 0, 75, 84
6, 232724, Note_on_c, 0, 75, 0
6, 232740, Note_on_c, 0, 70, 84
6, 232784, Note_on_c, 0, 70, 0
6, 232800, Note_on_c, 0, 79, 92
6, 232844, Note_on_c, 0, 79, 0
6, 232860, Note_on_c, 0, 75, 84
6, 232904, Note_on_c, 0, 75, 0
6, 232920, Note_on_c, 0, 79, 84
6, 232964, Note_on_c, 0, 79, 0
6, 232980, Note_on_c, 0, 75, 84
6, 233024, Note_on_c, 0, 75, 0
6, 233040, Note_on_c, 0, 79, 84
6, 233084, Note_on_c, 0, 79, 0
6, 233100, Note_on_c, 0, 75, 84
6, 233144, Note_on_c, 0, 75, 0
6, 233160, Note_on_c, 0, 79, 84
6, 233204, Note_on_c, 0, 79, 0
6, 233220, Note_on_c, 0, 75, 84
6, 233264, Note_on_c, 0, 75, 0
6, 233280, Note_on_c, 0, 82, 92
6, 233324, Note_on_c, 0, 82, 0
6, 233340, Note_on_c, 0, 79, 84
6, 233384, Note_on_c, 0, 79, 0
6, 233400, Note_on_c, 0, 82, 84
6, 233444, Note_on_c, 0, 82, 0
6, 233460, Note_on_c, 0, 79, 84
6, 233504, Note_on_c, 0, 79, 0
6, 233520, Note_on_c, 0, 87, 92
6, 233564, Note_on_c, 0, 87, 0
6, 233580, Note_on_c, 0, 82, 84
6, 233624, Note_on_c, 0, 82, 0
6, 233640, Note_on_c, 0, 87, 84
6, 233684, Note_on_c, 0, 87, 0
6, 233700, Note_on_c, 0, 82, 84
6, 233744, Note_on_c, 0, 82, 0
6, 233760, Note_on_c, 0, 91, 92
6, 233760, Note_on_c, 0, 79, 92
6, 233804, Note_on_c, 0, 91, 0
6, 233804, Note_on_c, 0, 79, 0
6, 233820, Note_on_c, 0, 87, 84
6, 233820, Note_on_c, 0, 75, 84
6, 233864, Note_on_c, 0, 87, 0
6, 233864, Note_on_c, 0, 75, 0
6, 233880, Note_on_c, 0, 91, 84
6, 233880, Note_on_c, 0, 79, 84
6, 233924, Note_on_c, 0, 91, 0
6, 233924, Note_on_c, 0, 79, 0
6, 233940, Note_on_c, 0, 87, 84
6, 233940, Note_on_c, 0, 75, 84
6, 233984, Note_on_c, 0, 87, 0
6, 233984, Note_on_c, 0, 75, 0
6, 234000, Note_on_c, 0, 91, 92
6, 234000, Note_on_c, 0, 79, 92
6, 234044, Note_on_c, 0, 91, 0
6, 234044, Note_on_c, 0, 79, 0
6, 234060, Note_on_c, 0, 87, 84
6, 234060, Note_on_c, 0, 75, 84
6, 234104, Note_on_c, 0, 87, 0
6, 234104, Note_on_c, 0, 75, 0
6, 234120, Note_on_c, 0, 91, 84
6, 234120, Note_on_c, 0, 79, 84
6, 234164, Note_on_c, 0, 91, 0
6, 234164, Note_on_c, 0, 79, 0
6, 234180, Note_on_c, 0, 87, 84
6, 234180, Note_on_c, 0, 75, 84
6, 234224, Note_on_c, 0, 87, 0
6, 234224, Note_on_c, 0, 75, 0
6, 234240, Note_on_c, 0, 91, 92
6, 234240, Note_on_c, 0, 79, 92
6, 234284, Note_on_c, 0, 91, 0
6, 234284, Note_on_c, 0, 79, 0
6, 234300, Note_on_c, 0, 87, 84
6, 234300, Note_on_c, 0, 75, 84
6, 234344, Note_on_c, 0, 87, 0
6, 234344, Note_on_c, 0, 75, 0
6, 234360, Note_on_c, 0, 91, 84
6, 234360, Note_on_c, 0, 87, 84
6, 234831, Note_on_c, 0, 91, 0
6, 234831, Note_on_c, 0, 87, 0
6, 234840, Note_on_c, 0, 91, 86
6, 234840, Note_on_c, 0, 87, 86
6, 235311, Note_on_c, 0, 91, 0
6, 235311, Note_on_c, 0, 87, 0
6, 235320, Note_on_c, 0, 91, 88
6, 235320, Note_on_c, 0, 87, 88
6, 235791, Note_on_c, 0, 91, 0
6, 235791, Note_on_c, 0, 87, 0
6, 235800, Note_on_c, 0, 91, 90
6, 235800, Note_on_c, 0, 87, 90
6, 235855, Note_on_c, 0, 91, 0
6, 235855, Note_on_c, 0, 87, 0
6, 235860, Note_on_c, 0, 75, 90
6, 235915, Note_on_c, 0, 75, 0
6, 235920, Note_on_c, 0, 77, 90
6, 235975, Note_on_c, 0, 77, 0
6, 235980, Note_on_c, 0, 79, 90
6, 236035, Note_on_c, 0, 79, 0
6, 236040, Note_on_c, 0, 80, 91
6, 236095, Note_on_c, 0, 80, 0
6, 236100, Note_on_c, 0, 82, 91
6, 236155, Note_on_c, 0, 82, 0
6, 236160, Note_on_c, 0, 84, 91
6, 236215, Note_on_c, 0, 84, 0
6, 236220, Note_on_c, 0, 86, 91
6, 236275, Note_on_c, 0, 86, 0
6, 236280, Note_on_c, 0, 87, 84
6, 236519, Note_on_c, 0, 87, 0
6, 236760, Note_on_c, 0, 87, 84
6, 236760, Note_on_c, 0, 82, 84
6, 236999, Note_on_c, 0, 87, 0
6, 236999, Note_on_c, 0, 82, 0
6, 237240, Note_on_c, 0, 87, 84
6, 237240, Note_on_c, 0, 82, 84
6, 237359, Note_on_c, 0, 87, 0
6, 237359, Note_on_c, 0, 82, 0
6, 237480, Note_on_c, 0, 87, 84
6, 237480, Note_on_c, 0, 82, 84
6, 237599, Note_on_c, 0, 87, 0
6, 237599, Note_on_c, 0, 82, 0
6, 237720, Note_on_c, 0, 87, 84
6, 237720, Note_on_c, 0, 82, 84
6, 237839, Note_on_c, 0, 87, 0
6, 237839, Note_on_c, 0, 82, 0
6, 237960, Note_on_c, 0, 87, 84
6, 237960, Note_on_c, 0, 82, 84
6, 238079, Note_on_c, 0, 87, 0
6, 238079, Note_on_c, 0, 82, 0
6, 238200, Note_on_c, 0, 87, 84
6, 238200, Note_on_c, 0, 82, 84
6, 238319, Note_on_c, 0, 87, 0
6, 238319, Note_on_c, 0, 82, 0
6, 238680, Note_on_c, 0, 91, 84
6, 238680, Note_on_c, 0, 87, 84
6, 238799, Note_on_c, 0, 91, 0
6, 238799, Note_on_c, 0, 87, 0
6, 239160, Note_on_c, 0, 91, 84
6, 239160, Note_on_c, 0, 87, 84
6, 239279, Note_on_c, 0, 91, 0
6, 239279, Note_on_c, 0, 87, 0
6, 239400, Note_on_c, 0, 91, 84
6, 239400, Note_on_c, 0, 87, 84
6, 239519, Note_on_c, 0, 91, 0
6, 239519, Note_on_c, 0, 87, 0
6, 239640, Note_on_c, 0, 91, 84
6, 239640, Note_on_c, 0, 87, 84
6, 239759, Note_on_c, 0, 91, 0
6, 239759, Note_on_c, 0, 87, 0
6, 239880, Note_on_c, 0, 91, 84
6, 239880, Note_on_c, 0, 87, 84
6, 239999, Note_on_c, 0, 91, 0
6, 239999, Note_on_c, 0, 87, 0
6, 240120, Note_on_c, 0, 91, 84
6, 240120, Note_on_c, 0, 87, 84
6, 240239, Note_on_c, 0, 91, 0
6, 240239, Note_on_c, 0, 87, 0
6, 240660, Note_on_c, 0, 75, 84
6, 240715, Note_on_c, 0, 75, 0
6, 240720, Note_on_c, 0, 77, 84
6, 240775, Note_on_c, 0, 77, 0
6, 240780, Note_on_c, 0, 79, 84
6, 240835, Note_on_c, 0, 79, 0
6, 240840, Note_on_c, 0, 80, 84
6, 240895, Note_on_c, 0, 80, 0
6, 240900, Note_on_c, 0, 82, 84
6, 240955, Note_on_c, 0, 82, 0
6, 240960, Note_on_c, 0, 84, 84
6, 241015, Note_on_c, 0, 84, 0
6, 241020, Note_on_c, 0, 86, 84
6, 241075, Note_on_c, 0, 86, 0
6, 241080, Note_on_c, 0, 87, 84
6, 241080, Note_on_c, 0, 82, 84
6, 241199, Note_on_c, 0, 87, 0
6, 241199, Note_on_c, 0, 82, 0
6, 241560, Note_on_c, 0, 91, 84
6, 241560, Note_on_c, 0, 82, 84
6, 241679, Note_on_c, 0, 91, 0
6, 241679, Note_on_c, 0, 82, 0
6, 242040, Note_on_c, 0, 87, 84
6, 242040, Note_on_c, 0, 82, 84
6, 242279, Note_on_c, 0, 87, 0
6, 242279, Note_on_c, 0, 82, 0
6, 242279, End_track
7, 0, Start_track
7, 0, Title_t, "Oboe"
7, 0, MIDI_port, 0
7, 0, Program_c, 1, 68
7, 0, Control_c, 1, 7, 80
7, 0, Control_c, 1, 10, 70
7, 0, Control_c, 1, 11, 127
7, 3000, Note_on_c, 1, 80, 84
7, 3000, Note_on_c, 1, 77, 84
7, 3239, Note_on_c, 1, 80, 0
7, 3239, Note_on_c, 1, 77, 0
7, 3480, Note_on_c, 1, 77, 84
7, 3480, Note_on_c, 1, 80, 84
7, 3659, Note_on_c, 1, 77, 0
7, 3659, Note_on_c, 1, 80, 0
7, 3720, Note_on_c, 1, 80, 84
7, 3720, Note_on_c, 1, 77, 84
7, 3899, Note_on_c, 1, 80, 0
7, 3899, Note_on_c, 1, 77, 0
7, 3960, Note_on_c, 1, 77, 84
7, 3960, Note_on_c, 1, 80, 84
7, 4139, Note_on_c, 1, 77, 0
7, 4139, Note_on_c, 1, 80, 0
7, 4200, Note_on_c, 1, 77, 92
7, 4200, Note_on_c, 1, 80, 92
7, 4379, Note_on_c, 1, 77, 0
7, 4379, Note_on_c, 1, 80, 0
7, 4680, Note_on_c, 1, 77, 92
7, 4680, Note_on_c, 1, 80, 92
7, 4904, Note_on_c, 1, 77, 0
7, 4904, Note_on_c, 1, 80, 0
7, 4920, Note_on_c, 1, 80, 92
7, 4920, Note_on_c, 1, 74, 92
7, 5399, Note_on_c, 1, 80, 0
7, 5399, Note_on_c, 1, 74, 0
7, 13560, Note_on_c, 1, 82, 84
7, 13560, Note_on_c, 1, 70, 84
7, 13649, Note_on_c, 1, 82, 0
7, 13649, Note_on_c, 1, 70, 0
7, 13680, Note_on_c, 1, 70, 84
7, 13680, Note_on_c, 1, 82, 84
7, 13769, Note_on_c, 1, 70, 0
7, 13769, Note_on_c, 1, 82, 0
7, 13800, Note_on_c, 1, 70, 84
7, 13800, Note_on_c, 1, 82, 84
7, 13889, Note_on_c, 1, 70, 0
7, 13889, Note_on_c, 1, 82, 0
7, 14520, Note_on_c, 1, 82, 52
7, 14520, Note_on_c, 1, 70, 52
7, 14879, Note_on_c, 1, 82, 0
7, 14879, Note_on_c, 1, 70, 0
7, 17400, Note_on_c, 1, 70, 84
7, 17400, Note_on_c, 1, 82, 84
7, 17489, Note_on_c, 1, 70, 0
7, 17489, Note_on_c, 1, 82, 0
7, 17520, Note_on_c, 1, 70, 84
7, 17520, Note_on_c, 1, 82, 84
7, 17609, Note_on_c, 1, 70, 0
7, 17609, Note_on_c, 1, 82, 0
7, 17640, Note_on_c, 1, 70, 84
7, 17640, Note_on_c, 1, 82, 84
7, 17729, Note_on_c, 1, 70, 0
7, 17729, Note_on_c, 1, 82, 0
7, 18360, Note_on_c, 1, 82, 52
7, 18360, Note_on_c, 1, 70, 52
7, 18719, Note_on_c, 1, 82, 0
7, 18719, Note_on_c, 1, 70, 0
7, 51360, Note_on_c, 1, 75, 48
7, 51479, Note_on_c, 1, 75, 0
7, 51480, Note_on_c, 1, 79, 48
7, 51839, Note_on_c, 1, 79, 0
7, 51840, Note_on_c, 1, 75, 48
7, 51944, Note_on_c, 1, 75, 0
7, 51960, Note_on_c, 1, 74, 48
7, 52319, Note_on_c, 1, 74, 0
7, 52320, Note_on_c, 1, 77, 48
7, 52424, Note_on_c, 1, 77, 0
7, 52440, Note_on_c, 1, 80, 48
7, 52799, Note_on_c, 1, 80, 0
7, 52800, Note_on_c, 1, 77, 48
7, 52904, Note_on_c, 1, 77, 0
7, 52920, Note_on_c, 1, 75, 48
7, 53279, Note_on_c, 1, 75, 0
7, 53280, Note_on_c, 1, 79, 48
7, 53384, Note_on_c, 1, 79, 0
7, 53392, Control_c, 1, 11, 96
7, 53400, Note_on_c, 1, 82, 68
7, 53400, Note_on_c, 1, 79, 68
7, 53400, Control_c, 1, 11, 96
7, 53440, Control_c, 1, 11, 99
7, 53480, Control_c, 1, 11, 101
7, 53520, Control_c, 1, 11, 104
7, 53560, Control_c, 1, 11, 106
7, 53600, Control_c, 1, 11, 109
7, 53609, Note_on_c, 1, 82, 0
7, 53609, Note_on_c, 1, 79, 0
7, 53640, Note_on_c, 1, 80, 68
7, 53640, Note_on_c, 1, 82, 68
7, 53640, Control_c, 1, 11, 112
7, 53680, Control_c, 1, 11, 114
7, 53720, Control_c, 1, 11, 117
7, 53760, Control_c, 1, 11, 119
7, 53800, Control_c, 1, 11, 122
7, 53819, Note_on_c, 1, 80, 0
7, 53819, Note_on_c, 1, 82, 0
7, 53840, Control_c, 1, 11, 127
7, 53880, Note_on_c, 1, 82, 76
7, 53880, Note_on_c, 1, 79, 76
7, 54224, Note_on_c, 1, 82, 0
7, 54224, Note_on_c, 1, 79, 0
7, 54240, Note_on_c, 1, 79, 68
7, 54240, Note_on_c, 1, 72, 68
7, 54344, Note_on_c, 1, 79, 0
7, 54360, Control_c, 1, 11, 127
7, 54360, Note_on_c, 1, 82, 68
7, 54400, Control_c, 1, 11, 124
7, 54419, Note_on_c, 1, 82, 0
7, 54420, Note_on_c, 1, 80, 68
7, 54440, Control_c, 1, 11, 122
7, 54471, Note_on_c, 1, 80, 0
7, 54479, Note_on_c, 1, 72, 0
7, 54480, Control_c, 1, 11, 119
7, 54480, Note_on_c, 1, 77, 68
7, 54520, Control_c, 1, 11, 117
7, 54560, Control_c, 1, 11, 114
7, 54569, Note_on_c, 1, 77, 0
7, 54600, Note_on_c, 1, 70, 68
7, 54600, Control_c, 1, 11, 112
7, 54600, Note_on_c, 1, 80, 68
7, 54640, Control_c, 1, 11, 109
7, 54659, Note_on_c, 1, 80, 0
7, 54660, Note_on_c, 1, 79, 68
7, 54680, Control_c, 1, 11, 106
7, 54711, Note_on_c, 1, 79, 0
7, 54719, Note_on_c, 1, 70, 0
7, 54720, Note_on_c, 1, 75, 68
7, 54720, Control_c, 1, 11, 104
7, 54760, Control_c, 1, 11, 101
7, 54800, Control_c, 1, 11, 96
7, 54809, Note_on_c, 1, 75, 0
7, 54840, Note_on_c, 1, 75, 68
7, 54840, Note_on_c, 1, 79, 68
7, 55079, Note_on_c, 1, 75, 0
7, 55079, Note_on_c, 1, 79, 0
7, 55080, Note_on_c, 1, 77, 68
7, 55080, Note_on_c, 1, 74, 68
7, 55199, Note_on_c, 1, 77, 0
7, 55199, Note_on_c, 1, 74, 0
7, 55320, Control_c, 1, 11, 127
7, 55440, Note_on_c, 1, 75, 76
7, 55440, Note_on_c, 1, 79, 76
7, 55529, Note_on_c, 1, 75, 0
7, 55529, Note_on_c, 1, 79, 0
7, 55560, Note_on_c, 1, 79, 76
7, 55560, Note_on_c, 1, 75, 76
7, 55649, Note_on_c, 1, 79, 0
7, 55649, Note_on_c, 1, 75, 0
7, 55680, Note_on_c, 1, 75, 76
7, 55680, Note_on_c, 1, 79, 76
7, 55769, Note_on_c, 1, 75, 0
7, 55769, Note_on_c, 1, 79, 0
7, 55920, Note_on_c, 1, 80, 76
7, 55920, Note_on_c, 1, 74, 76
7, 56009, Note_on_c, 1, 80, 0
7, 56009, Note_on_c, 1, 74, 0
7, 56040, Note_on_c, 1, 80, 76
7, 56040, Note_on_c, 1, 74, 76
7, 56129, Note_on_c, 1, 80, 0
7, 56129, Note_on_c, 1, 74, 0
7, 56160, Note_on_c, 1, 74, 76
7, 56160, Note_on_c, 1, 80, 76
7, 56249, Note_on_c, 1, 74, 0
7, 56249, Note_on_c, 1, 80, 0
7, 56400, Note_on_c, 1, 80, 76
7, 56400, Note_on_c, 1, 77, 76
7, 56489, Note_on_c, 1, 80, 0
7, 56489, Note_on_c, 1, 77, 0
7, 56520, Note_on_c, 1, 80, 76
7, 56520, Note_on_c, 1, 77, 76
7, 56609, Note_on_c, 1, 80, 0
7, 56609, Note_on_c, 1, 77, 0
7, 56640, Note_on_c, 1, 77, 76
7, 56640, Note_on_c, 1, 80, 76
7, 56729, Note_on_c, 1, 77, 0
7, 56729, Note_on_c, 1, 80, 0
7, 56880, Note_on_c, 1, 79, 76
7, 56880, Note_on_c, 1, 75, 76
7, 56969, Note_on_c, 1, 79, 0
7, 56969, Note_on_c, 1, 75, 0
7, 57000, Note_on_c, 1, 79, 76
7, 57000, Note_on_c, 1, 75, 76
7, 57089, Note_on_c, 1, 79, 0
7, 57089, Note_on_c, 1, 75, 0
7, 57120, Note_on_c, 1, 79, 76
7, 57120, Note_on_c, 1, 75, 76
7, 57209, Note_on_c, 1, 79, 0
7, 57209, Note_on_c, 1, 75, 0
7, 57240, Note_on_c, 1, 75, 76
7, 57240, Note_on_c, 1, 79, 76
7, 57344, Note_on_c, 1, 75, 0
7, 57344, Note_on_c, 1, 79, 0
7, 57360, Note_on_c, 1, 79, 76
7, 57360, Note_on_c, 1, 75, 76
7, 57464, Note_on_c, 1, 79, 0
7, 57464, Note_on_c, 1, 75, 0
7, 57480, Note_on_c, 1, 77, 76
7, 57480, Note_on_c, 1, 80, 76
7, 57584, Note_on_c, 1, 77, 0
7, 57584, Note_on_c, 1, 80, 0
7, 57600, Note_on_c, 1, 77, 76
7, 57600, Note_on_c, 1, 80, 76
7, 57704, Note_on_c, 1, 77, 0
7, 57704, Note_on_c, 1, 80, 0
7, 57720, Note_on_c, 1, 75, 84
7, 57720, Note_on_c, 1, 79, 84
7, 57824, Note_on_c, 1, 75, 0
7, 57824, Note_on_c, 1, 79, 0
7, 57840, Note_on_c, 1, 79, 76
7, 57840, Note_on_c, 1, 75, 76
7, 57944, Note_on_c, 1, 79, 0
7, 57944, Note_on_c, 1, 75, 0
7, 57960, Note_on_c, 1, 79, 76
7, 57960, Note_on_c, 1, 76, 76
7, 58064, Note_on_c, 1, 79, 0
7, 58064, Note_on_c, 1, 76, 0
7, 58080, Note_on_c, 1, 72, 76
7, 58080, Note_on_c, 1, 79, 76
7, 58184, Note_on_c, 1, 72, 0
7, 58184, Note_on_c, 1, 79, 0
7, 58200, Note_on_c, 1, 77, 76
7, 58200, Note_on_c, 1, 72, 76
7, 58304, Note_on_c, 1, 77, 0
7, 58304, Note_on_c, 1, 72, 0
7, 58320, Note_on_c, 1, 80, 76
7, 58320, Note_on_c, 1, 77, 76
7, 58424, Note_on_c, 1, 80, 0
7, 58424, Note_on_c, 1, 77, 0
7, 58440, Note_on_c, 1, 75, 76
7, 58440, Note_on_c, 1, 79, 76
7, 58544, Note_on_c, 1, 75, 0
7, 58544, Note_on_c, 1, 79, 0
7, 58560, Note_on_c, 1, 78, 76
7, 58560, Note_on_c, 1, 75, 76
7, 58664, Note_on_c, 1, 78, 0
7, 58664, Note_on_c, 1, 75, 0
7, 58680, Note_on_c, 1, 79, 76
7, 58680, Note_on_c, 1, 75, 76
7, 58784, Note_on_c, 1, 79, 0
7, 58784, Note_on_c, 1, 75, 0
7, 58800, Note_on_c, 1, 79, 76
7, 58800, Note_on_c, 1, 75, 76
7, 58904, Note_on_c, 1, 79, 0
7, 58904, Note_on_c, 1, 75, 0
7, 58920, Note_on_c, 1, 74, 76
7, 58920, Note_on_c, 1, 77, 76
7, 59024, Note_on_c, 1, 74, 0
7, 59024, Note_on_c, 1, 77, 0
7, 59040, Note_on_c, 1, 70, 52
7, 59099, Note_on_c, 1, 70, 0
7, 59100, Note_on_c, 1, 69, 52
7, 59159, Note_on_c, 1, 69, 0
7, 59160, Note_on_c, 1, 70, 52
7, 59219, Note_on_c, 1, 70, 0
7, 59220, Note_on_c, 1, 72, 52
7, 59279, Note_on_c, 1, 72, 0
7, 59280, Note_on_c, 1, 74, 52
7, 59339, Note_on_c, 1, 74, 0
7, 59340, Note_on_c, 1, 75, 52
7, 59399, Note_on_c, 1, 75, 0
7, 59400, Note_on_c, 1, 77, 52
7, 59459, Note_on_c, 1, 77, 0
7, 59460, Note_on_c, 1, 79, 52
7, 59519, Note_on_c, 1, 79, 0
7, 59520, Note_on_c, 1, 80, 52
7, 59579, Note_on_c, 1, 80, 0
7, 59580, Note_on_c, 1, 79, 52
7, 59631, Note_on_c, 1, 79, 0
7, 59640, Note_on_c, 1, 80, 76
7, 59729, Note_on_c, 1, 80, 0
7, 59760, Note_on_c, 1, 80, 76
7, 59849, Note_on_c, 1, 80, 0
7, 59880, Note_on_c, 1, 80, 76
7, 59969, Note_on_c, 1, 80, 0
7, 60000, Note_on_c, 1, 70, 76
7, 60059, Note_on_c, 1, 70, 0
7, 60060, Note_on_c, 1, 69, 74
7, 60119, Note_on_c, 1, 69, 0
7, 60120, Note_on_c, 1, 70, 72
7, 60179, Note_on_c, 1, 70, 0
7, 60180, Note_on_c, 1, 72, 69
7, 60239, Note_on_c, 1, 72, 0
7, 60240, Note_on_c, 1, 74, 67
7, 60299, Note_on_c, 1, 74, 0
7, 60300, Note_on_c, 1, 75, 64
7, 60359, Note_on_c, 1, 75, 0
7, 60360, Note_on_c, 1, 77, 62
7, 60419, Note_on_c, 1, 77, 0
7, 60420, Note_on_c, 1, 79, 60
7, 60479, Note_on_c, 1, 79, 0
7, 60480, Note_on_c, 1, 80, 57
7, 60539, Note_on_c, 1, 80, 0
7, 60540, Note_on_c, 1, 79, 55
7, 60599, Note_on_c, 1, 79, 0
7, 60600, Note_on_c, 1, 80, 52
7, 60959, Note_on_c, 1, 80, 0
7, 60960, Note_on_c, 1, 81, 52
7, 61079, Note_on_c, 1, 81, 0
7, 61080, Note_on_c, 1, 82, 52
7, 61439, Note_on_c, 1, 82, 0
7, 61440, Note_on_c, 1, 79, 52
7, 61544, Note_on_c, 1, 79, 0
7, 61560, Note_on_c, 1, 77, 52
7, 61919, Note_on_c, 1, 77, 0
7, 61920, Note_on_c, 1, 84, 52
7, 62024, Note_on_c, 1, 84, 0
7, 62040, Note_on_c, 1, 75, 52
7, 62069, Note_on_c, 1, 75, 0
7, 62070, Note_on_c, 1, 77, 52
7, 62099, Note_on_c, 1, 77, 0
7, 62100, Note_on_c, 1, 75, 52
7, 62129, Note_on_c, 1, 75, 0
7, 62130, Note_on_c, 1, 77, 52
7, 62159, Note_on_c, 1, 77, 0
7, 62160, Note_on_c, 1, 75, 52
7, 62160, Note_on_c, 1, 70, 52
7, 62189, Note_on_c, 1, 75, 0
7, 62190, Note_on_c, 1, 77, 52
7, 62219, Note_on_c, 1, 77, 0
7, 62220, Note_on_c, 1, 74, 52
7, 62249, Note_on_c, 1, 74, 0
7, 62250, Note_on_c, 1, 75, 52
7, 62279, Note_on_c, 1, 75, 0
7, 62280, Note_on_c, 1, 79, 52
7, 62399, Note_on_c, 1, 70, 0
7, 62400, Note_on_c, 1, 74, 52
7, 62459, Note_on_c, 1, 79, 0
7, 62460, Note_on_c, 1, 77, 52
7, 62519, Note_on_c, 1, 74, 0
7, 62519, Note_on_c, 1, 77, 0
7, 62520, Note_on_c, 1, 75, 52
7, 62639, Note_on_c, 1, 75, 0
7, 63120, Note_on_c, 1, 82, 76
7, 63120, Note_on_c, 1, 70, 76
7, 63209, Note_on_c, 1, 82, 0
7, 63209, Note_on_c, 1, 70, 0
7, 63240, Note_on_c, 1, 70, 76
7, 63240, Note_on_c, 1, 82, 76
7, 63329, Note_on_c, 1, 70, 0
7, 63329, Note_on_c, 1, 82, 0
7, 63360, Note_on_c, 1, 70, 76
7, 63360, Note_on_c, 1, 82, 76
7, 63449, Note_on_c, 1, 70, 0
7, 63449, Note_on_c, 1, 82, 0
7, 63480, Note_on_c, 1, 82, 76
7, 63480, Note_on_c, 1, 70, 76
7, 63584, Note_on_c, 1, 82, 0
7, 63584, Note_on_c, 1, 70, 0
7, 63600, Note_on_c, 1, 70, 76
7, 63600, Note_on_c, 1, 82, 76
7, 63704, Note_on_c, 1, 70, 0
7, 63704, Note_on_c, 1, 82, 0
7, 63720, Note_on_c, 1, 82, 76
7, 63720, Note_on_c, 1, 70, 76
7, 63839, Note_on_c, 1, 82, 0
7, 63839, Note_on_c, 1, 70, 0
7, 64080, Note_on_c, 1, 70, 76
7, 64080, Note_on_c, 1, 82, 76
7, 64184, Note_on_c, 1, 70, 0
7, 64184, Note_on_c, 1, 82, 0
7, 64200, Note_on_c, 1, 82, 76
7, 64200, Note_on_c, 1, 70, 76
7, 64304, Note_on_c, 1, 82, 0
7, 64304, Note_on_c, 1, 70, 0
7, 64320, Note_on_c, 1, 82, 76
7, 64320, Note_on_c, 1, 70, 76
7, 64424, Note_on_c, 1, 82, 0
7, 64424, Note_on_c, 1, 70, 0
7, 64440, Note_on_c, 1, 82, 76
7, 64440, Note_on_c, 1, 74, 76
7, 64799, Note_on_c, 1, 82, 0
7, 64799, Note_on_c, 1, 74, 0
7, 65040, Note_on_c, 1, 79, 76
7, 65040, Note_on_c, 1, 75, 76
7, 65129, Note_on_c, 1, 79, 0
7, 65129, Note_on_c, 1, 75, 0
7, 65160, Note_on_c, 1, 79, 76
7, 65160, Note_on_c, 1, 75, 76
7, 65249, Note_on_c, 1, 79, 0
7, 65249, Note_on_c, 1, 75, 0
7, 65280, Note_on_c, 1, 79, 76
7, 65280, Note_on_c, 1, 75, 76
7, 65369, Note_on_c, 1, 79, 0
7, 65369, Note_on_c, 1, 75, 0
7, 65520, Note_on_c, 1, 75, 76
7, 65520, Note_on_c, 1, 84, 76
7, 65624, Note_on_c, 1, 75, 0
7, 65624, Note_on_c, 1, 84, 0
7, 65640, Note_on_c, 1, 75, 76
7, 65640, Note_on_c, 1, 84, 76
7, 65744, Note_on_c, 1, 75, 0
7, 65744, Note_on_c, 1, 84, 0
7, 65760, Note_on_c, 1, 84, 76
7, 65760, Note_on_c, 1, 75, 76
7, 65864, Note_on_c, 1, 84, 0
7, 65864, Note_on_c, 1, 75, 0
7, 65880, Note_on_c, 1, 79, 76
7, 65880, Note_on_c, 1, 75, 76
7, 65984, Note_on_c, 1, 79, 0
7, 65984, Note_on_c, 1, 75, 0
7, 66000, Note_on_c, 1, 75, 76
7, 66000, Note_on_c, 1, 79, 76
7, 66104, Note_on_c, 1, 75, 0
7, 66104, Note_on_c, 1, 79, 0
7, 66120, Note_on_c, 1, 77, 76
7, 66120, Note_on_c, 1, 74, 76
7, 66224, Note_on_c, 1, 77, 0
7, 66224, Note_on_c, 1, 74, 0
7, 66240, Note_on_c, 1, 77, 76
7, 66240, Note_on_c, 1, 74, 76
7, 66344, Note_on_c, 1, 77, 0
7, 66344, Note_on_c, 1, 74, 0
7, 66360, Note_on_c, 1, 75, 76
7, 66479, Note_on_c, 1, 75, 0
7, 68880, Note_on_c, 1, 79, 67
7, 68880, Note_on_c, 1, 72, 67
7, 68984, Note_on_c, 1, 79, 0
7, 68984, Note_on_c, 1, 72, 0
7, 69000, Note_on_c, 1, 72, 70
7, 69000, Note_on_c, 1, 81, 70
7, 69104, Note_on_c, 1, 72, 0
7, 69104, Note_on_c, 1, 81, 0
7, 69120, Note_on_c, 1, 72, 73
7, 69120, Note_on_c, 1, 69, 73
7, 69224, Note_on_c, 1, 72, 0
7, 69224, Note_on_c, 1, 69, 0
7, 69240, Note_on_c, 1, 71, 76
7, 69240, Note_on_c, 1, 67, 76
7, 69344, Note_on_c, 1, 71, 0
7, 69344, Note_on_c, 1, 67, 0
7, 69360, Note_on_c, 1, 79, 76
7, 69360, Note_on_c, 1, 71, 76
7, 69464, Note_on_c, 1, 79, 0
7, 69464, Note_on_c, 1, 71, 0
7, 69480, Note_on_c, 1, 81, 76
7, 69480, Note_on_c, 1, 72, 76
7, 69584, Note_on_c, 1, 81, 0
7, 69584, Note_on_c, 1, 72, 0
7, 69600, Note_on_c, 1, 72, 76
7, 69600, Note_on_c, 1, 81, 76
7, 69704, Note_on_c, 1, 72, 0
7, 69704, Note_on_c, 1, 81, 0
7, 69720, Note_on_c, 1, 79, 76
7, 69720, Note_on_c, 1, 71, 76
7, 69824, Note_on_c, 1, 79, 0
7, 69824, Note_on_c, 1, 71, 0
7, 69840, Note_on_c, 1, 79, 76
7, 69840, Note_on_c, 1, 71, 76
7, 69944, Note_on_c, 1, 79, 0
7, 69944, Note_on_c, 1, 71, 0
7, 69960, Note_on_c, 1, 81, 76
7, 69960, Note_on_c, 1, 72, 76
7, 70064, Note_on_c, 1, 81, 0
7, 70064, Note_on_c, 1, 72, 0
7, 70080, Note_on_c, 1, 72, 76
7, 70080, Note_on_c, 1, 81, 76
7, 70184, Note_on_c, 1, 72, 0
7, 70184, Note_on_c, 1, 81, 0
7, 70200, Note_on_c, 1, 71, 84
7, 70200, Note_on_c, 1, 79, 84
7, 70379, Note_on_c, 1, 71, 0
7, 70379, Note_on_c, 1, 79, 0
7, 70440, Note_on_c, 1, 79, 84
7, 70440, Note_on_c, 1, 83, 84
7, 70619, Note_on_c, 1, 79, 0
7, 70619, Note_on_c, 1, 83, 0
7, 70680, Note_on_c, 1, 71, 84
7, 70680, Note_on_c, 1, 79, 84
7, 70859, Note_on_c, 1, 71, 0
7, 70859, Note_on_c, 1, 79, 0
7, 83400, Control_c, 1, 11, 80
7, 83640, Note_on_c, 1, 72, 76
7, 83640, Control_c, 1, 11, 80
7, 83700, Control_c, 1, 11, 82
7, 83760, Control_c, 1, 11, 84
7, 83820, Control_c, 1, 11, 86
7, 83880, Control_c, 1, 11, 88
7, 83940, Control_c, 1, 11, 90
7, 84000, Control_c, 1, 11, 92
7, 84060, Control_c, 1, 11, 94
7, 84104, Note_on_c, 1, 72, 0
7, 84120, Note_on_c, 1, 77, 76
7, 84120, Control_c, 1, 11, 96
7, 84180, Control_c, 1, 11, 98
7, 84240, Control_c, 1, 11, 100
7, 84300, Control_c, 1, 11, 102
7, 84360, Control_c, 1, 11, 104
7, 84420, Control_c, 1, 11, 105
7, 84480, Control_c, 1, 11, 107
7, 84540, Control_c, 1, 11, 109
7, 84599, Note_on_c, 1, 77, 0
7, 85020, Control_c, 1, 11, 127
7, 85560, Note_on_c, 1, 67, 76
7, 86024, Note_on_c, 1, 67, 0
7, 86040, Note_on_c, 1, 72, 76
7, 86264, Note_on_c, 1, 72, 0
7, 86280, Note_on_c, 1, 72, 76
7, 86504, Note_on_c, 1, 72, 0
7, 86520, Note_on_c, 1, 72, 76
7, 86864, Note_on_c, 1, 72, 0
7, 86880, Note_on_c, 1, 72, 76
7, 86984, Note_on_c, 1, 72, 0
7, 87000, Note_on_c, 1, 72, 76
7, 87104, Note_on_c, 1, 72, 0
7, 87120, Note_on_c, 1, 72, 76
7, 87224, Note_on_c, 1, 72, 0
7, 87240, Note_on_c, 1, 72, 76
7, 87344, Note_on_c, 1, 72, 0
7, 87360, Note_on_c, 1, 72, 76
7, 87464, Note_on_c, 1, 72, 0
7, 87480, Note_on_c, 1, 72, 76
7, 87824, Note_on_c, 1, 72, 0
7, 87840, Note_on_c, 1, 72, 76
7, 87944, Note_on_c, 1, 72, 0
7, 87960, Note_on_c, 1, 72, 76
7, 88064, Note_on_c, 1, 72, 0
7, 88080, Note_on_c, 1, 72, 76
7, 88184, Note_on_c, 1, 72, 0
7, 88200, Note_on_c, 1, 72, 76
7, 88304, Note_on_c, 1, 72, 0
7, 88320, Note_on_c, 1, 72, 76
7, 88424, Note_on_c, 1, 72, 0
7, 88440, Note_on_c, 1, 72, 76
7, 88559, Note_on_c, 1, 72, 0
7, 89160, Note_on_c, 1, 77, 84
7, 89609, Note_on_c, 1, 77, 0
7, 89640, Note_on_c, 1, 70, 76
7, 89879, Note_on_c, 1, 70, 0
7, 92760, Note_on_c, 1, 77, 84
7, 93209, Note_on_c, 1, 77, 0
7, 93240, Note_on_c, 1, 83, 76
7, 93464, Note_on_c, 1, 83, 0
7, 93480, Note_on_c, 1, 71, 76
7, 93659, Note_on_c, 1, 71, 0
7, 95640, Note_on_c, 1, 69, 76
7, 96104, Note_on_c, 1, 69, 0
7, 96120, Note_on_c, 1, 74, 76
7, 96209, Note_on_c, 1, 74, 0
7, 96240, Note_on_c, 1, 62, 76
7, 96329, Note_on_c, 1, 62, 0
7, 96600, Note_on_c, 1, 74, 76
7, 97064, Note_on_c, 1, 74, 0
7, 97080, Note_on_c, 1, 74, 84
7, 97080, Note_on_c, 1, 77, 84
7, 97169, Note_on_c, 1, 74, 0
7, 97169, Note_on_c, 1, 77, 0
7, 97200, Note_on_c, 1, 65, 84
7, 97200, Note_on_c, 1, 62, 84
7, 97289, Note_on_c, 1, 65, 0
7, 97289, Note_on_c, 1, 62, 0
7, 97560, Note_on_c, 1, 77, 84
7, 97560, Note_on_c, 1, 74, 84
7, 97664, Note_on_c, 1, 77, 0
7, 97664, Note_on_c, 1, 74, 0
7, 97680, Note_on_c, 1, 65, 84
7, 97680, Note_on_c, 1, 62, 84
7, 97784, Note_on_c, 1, 65, 0
7, 97784, Note_on_c, 1, 62, 0
7, 97800, Note_on_c, 1, 74, 84
7, 97800, Note_on_c, 1, 77, 84
7, 97904, Note_on_c, 1, 74, 0
7, 97904, Note_on_c, 1, 77, 0
7, 97920, Note_on_c, 1, 65, 84
7, 97920, Note_on_c, 1, 62, 84
7, 98024, Note_on_c, 1, 65, 0
7, 98024, Note_on_c, 1, 62, 0
7, 98040, Note_on_c, 1, 74, 84
7, 98040, Note_on_c, 1, 77, 84
7, 98144, Note_on_c, 1, 74, 0
7, 98144, Note_on_c, 1, 77, 0
7, 98160, Note_on_c, 1, 62, 84
7, 98160, Note_on_c, 1, 65, 84
7, 98279, Note_on_c, 1, 62, 0
7, 98279, Note_on_c, 1, 65, 0
7, 98520, Note_on_c, 1, 74, 84
7, 98520, Note_on_c, 1, 77, 84
7, 98624, Note_on_c, 1, 74, 0
7, 98624, Note_on_c, 1, 77, 0
7, 98640, Note_on_c, 1, 65, 84
7, 98640, Note_on_c, 1, 62, 84
7, 98744, Note_on_c, 1, 65, 0
7, 98744, Note_on_c, 1, 62, 0
7, 98760, Note_on_c, 1, 77, 84
7, 98760, Note_on_c, 1, 74, 84
7, 98864, Note_on_c, 1, 77, 0
7, 98864, Note_on_c, 1, 74, 0
7, 98880, Note_on_c, 1, 65, 84
7, 98880, Note_on_c, 1, 62, 84
7, 98984, Note_on_c, 1, 65, 0
7, 98984, Note_on_c, 1, 62, 0
7, 99000, Note_on_c, 1, 78, 52
7, 99000, Note_on_c, 1, 74, 52
7, 99239, Note_on_c, 1, 78, 0
7, 99239, Note_on_c, 1, 74, 0
7, 102840, Note_on_c, 1, 78, 52
7, 102840, Note_on_c, 1, 81, 52
7, 102929, Note_on_c, 1, 78, 0
7, 102929, Note_on_c, 1, 81, 0
7, 102960, Note_on_c, 1, 78, 52
7, 102960, Note_on_c, 1, 81, 52
7, 103049, Note_on_c, 1, 78, 0
7, 103049, Note_on_c, 1, 81, 0
7, 103080, Note_on_c, 1, 78, 52
7, 103080, Note_on_c, 1, 81, 52
7, 103169, Note_on_c, 1, 78, 0
7, 103169, Note_on_c, 1, 81, 0
7, 103200, Note_on_c, 1, 78, 52
7, 103200, Note_on_c, 1, 81, 52
7, 103289, Note_on_c, 1, 78, 0
7, 103289, Note_on_c, 1, 81, 0
7, 103320, Note_on_c, 1, 81, 52
7, 103320, Note_on_c, 1, 79, 52
7, 103409, Note_on_c, 1, 81, 0
7, 103409, Note_on_c, 1, 79, 0
7, 103440, Note_on_c, 1, 79, 52
7, 103440, Note_on_c, 1, 81, 52
7, 103529, Note_on_c, 1, 79, 0
7, 103529, Note_on_c, 1, 81, 0
7, 103560, Note_on_c, 1, 79, 52
7, 103560, Note_on_c, 1, 81, 52
7, 103649, Note_on_c, 1, 79, 0
7, 103649, Note_on_c, 1, 81, 0
7, 103680, Note_on_c, 1, 79, 52
7, 103680, Note_on_c, 1, 81, 52
7, 103769, Note_on_c, 1, 79, 0
7, 103769, Note_on_c, 1, 81, 0
7, 103800, Note_on_c, 1, 79, 52
7, 103800, Note_on_c, 1, 81, 52
7, 103889, Note_on_c, 1, 79, 0
7, 103889, Note_on_c, 1, 81, 0
7, 103920, Note_on_c, 1, 81, 52
7, 103920, Note_on_c, 1, 79, 52
7, 104009, Note_on_c, 1, 81, 0
7, 104009, Note_on_c, 1, 79, 0
7, 104040, Note_on_c, 1, 79, 52
7, 104040, Note_on_c, 1, 81, 52
7, 104129, Note_on_c, 1, 79, 0
7, 104129, Note_on_c, 1, 81, 0
7, 104160, Note_on_c, 1, 79, 52
7, 104160, Note_on_c, 1, 81, 52
7, 104249, Note_on_c, 1, 79, 0
7, 104249, Note_on_c, 1, 81, 0
7, 104280, Note_on_c, 1, 81, 52
7, 104280, Note_on_c, 1, 78, 52
7, 104369, Note_on_c, 1, 81, 0
7, 104369, Note_on_c, 1, 78, 0
7, 104400, Note_on_c, 1, 78, 52
7, 104400, Note_on_c, 1, 81, 52
7, 104489, Note_on_c, 1, 78, 0
7, 104489, Note_on_c, 1, 81, 0
7, 104520, Note_on_c, 1, 78, 52
7, 104520, Note_on_c, 1, 81, 52
7, 104609, Note_on_c, 1, 78, 0
7, 104609, Note_on_c, 1, 81, 0
7, 104640, Note_on_c, 1, 78, 52
7, 104640, Note_on_c, 1, 81, 52
7, 104729, Note_on_c, 1, 78, 0
7, 104729, Note_on_c, 1, 81, 0
7, 104760, Note_on_c, 1, 74, 52
7, 104760, Note_on_c, 1, 78, 52
7, 104849, Note_on_c, 1, 74, 0
7, 104849, Note_on_c, 1, 78, 0
7, 104880, Note_on_c, 1, 74, 54
7, 104880, Note_on_c, 1, 78, 54
7, 104969, Note_on_c, 1, 74, 0
7, 104969, Note_on_c, 1, 78, 0
7, 105000, Note_on_c, 1, 76, 56
7, 105000, Note_on_c, 1, 79, 56
7, 105089, Note_on_c, 1, 76, 0
7, 105089, Note_on_c, 1, 79, 0
7, 105120, Note_on_c, 1, 79, 58
7, 105120, Note_on_c, 1, 76, 58
7, 105209, Note_on_c, 1, 79, 0
7, 105209, Note_on_c, 1, 76, 0
7, 105240, Note_on_c, 1, 78, 60
7, 105240, Note_on_c, 1, 74, 60
7, 105329, Note_on_c, 1, 78, 0
7, 105329, Note_on_c, 1, 74, 0
7, 105360, Note_on_c, 1, 81, 62
7, 105360, Note_on_c, 1, 78, 62
7, 105449, Note_on_c, 1, 81, 0
7, 105449, Note_on_c, 1, 78, 0
7, 105480, Note_on_c, 1, 81, 64
7, 105480, Note_on_c, 1, 78, 64
7, 105569, Note_on_c, 1, 81, 0
7, 105569, Note_on_c, 1, 78, 0
7, 105600, Note_on_c, 1, 81, 66
7, 105600, Note_on_c, 1, 78, 66
7, 105689, Note_on_c, 1, 81, 0
7, 105689, Note_on_c, 1, 78, 0
7, 105720, Note_on_c, 1, 79, 52
7, 105809, Note_on_c, 1, 79, 0
7, 105840, Note_on_c, 1, 79, 52
7, 105840, Note_on_c, 1, 76, 52
7, 105929, Note_on_c, 1, 79, 0
7, 105929, Note_on_c, 1, 76, 0
7, 105960, Note_on_c, 1, 74, 52
7, 105960, Note_on_c, 1, 78, 52
7, 106049, Note_on_c, 1, 74, 0
7, 106049, Note_on_c, 1, 78, 0
7, 106080, Note_on_c, 1, 78, 52
7, 106080, Note_on_c, 1, 74, 52
7, 106169, Note_on_c, 1, 78, 0
7, 106169, Note_on_c, 1, 74, 0
7, 106200, Note_on_c, 1, 78, 52
7, 106200, Note_on_c, 1, 74, 52
7, 106289, Note_on_c, 1, 78, 0
7, 106289, Note_on_c, 1, 74, 0
7, 106320, Note_on_c, 1, 78, 52
7, 106320, Note_on_c, 1, 74, 52
7, 106409, Note_on_c, 1, 78, 0
7, 106409, Note_on_c, 1, 74, 0
7, 106440, Note_on_c, 1, 76, 52
7, 106440, Note_on_c, 1, 73, 52
7, 106559, Note_on_c, 1, 76, 0
7, 106559, Note_on_c, 1, 73, 0
7, 110760, Note_on_c, 1, 76, 76
7, 110760, Note_on_c, 1, 73, 76
7, 110827, Note_on_c, 1, 76, 0
7, 110827, Note_on_c, 1, 73, 0
7, 110840, Note_on_c, 1, 76, 52
7, 110840, Note_on_c, 1, 73, 52
7, 110907, Note_on_c, 1, 76, 0
7, 110907, Note_on_c, 1, 73, 0
7, 110920, Note_on_c, 1, 73, 52
7, 110920, Note_on_c, 1, 76, 52
7, 110999, Note_on_c, 1, 73, 0
7, 110999, Note_on_c, 1, 76, 0
7, 111240, Note_on_c, 1, 79, 76
7, 111240, Note_on_c, 1, 76, 76
7, 111307, Note_on_c, 1, 79, 0
7, 111307, Note_on_c, 1, 76, 0
7, 111320, Note_on_c, 1, 76, 52
7, 111320, Note_on_c, 1, 79, 52
7, 111387, Note_on_c, 1, 76, 0
7, 111387, Note_on_c, 1, 79, 0
7, 111400, Note_on_c, 1, 76, 52
7, 111400, Note_on_c, 1, 79, 52
7, 111479, Note_on_c, 1, 76, 0
7, 111479, Note_on_c, 1, 79, 0
7, 111720, Note_on_c, 1, 73, 76
7, 111720, Note_on_c, 1, 76, 76
7, 111787, Note_on_c, 1, 73, 0
7, 111787, Note_on_c, 1, 76, 0
7, 111800, Note_on_c, 1, 73, 52
7, 111800, Note_on_c, 1, 76, 52
7, 111867, Note_on_c, 1, 73, 0
7, 111867, Note_on_c, 1, 76, 0
7, 111880, Note_on_c, 1, 76, 52
7, 111880, Note_on_c, 1, 73, 52
7, 111959, Note_on_c, 1, 76, 0
7, 111959, Note_on_c, 1, 73, 0
7, 112200, Note_on_c, 1, 73, 52
7, 112200, Note_on_c, 1, 76, 52
7, 112267, Note_on_c, 1, 73, 0
7, 112267, Note_on_c, 1, 76, 0
7, 112280, Note_on_c, 1, 73, 52
7, 112280, Note_on_c, 1, 76, 52
7, 112347, Note_on_c, 1, 73, 0
7, 112347, Note_on_c, 1, 76, 0
7, 112360, Note_on_c, 1, 73, 52
7, 112360, Note_on_c, 1, 76, 52
7, 112439, Note_on_c, 1, 73, 0
7, 112439, Note_on_c, 1, 76, 0
7, 112680, Note_on_c, 1, 81, 52
7, 112680, Note_on_c, 1, 74, 52
7, 112747, Note_on_c, 1, 81, 0
7, 112747, Note_on_c, 1, 74, 0
7, 112760, Note_on_c, 1, 81, 52
7, 112760, Note_on_c, 1, 74, 52
7, 112827, Note_on_c, 1, 81, 0
7, 112827, Note_on_c, 1, 74, 0
7, 112840, Note_on_c, 1, 74, 52
7, 112840, Note_on_c, 1, 81, 52
7, 112919, Note_on_c, 1, 74, 0
7, 112919, Note_on_c, 1, 81, 0
7, 113160, Note_on_c, 1, 76, 52
7, 113160, Note_on_c, 1, 74, 52
7, 113227, Note_on_c, 1, 76, 0
7, 113227, Note_on_c, 1, 74, 0
7, 113240, Note_on_c, 1, 74, 52
7, 113240, Note_on_c, 1, 76, 52
7, 113307, Note_on_c, 1, 74, 0
7, 113307, Note_on_c, 1, 76, 0
7, 113320, Note_on_c, 1, 74, 52
7, 113320, Note_on_c, 1, 76, 52
7, 113387, Note_on_c, 1, 74, 0
7, 113387, Note_on_c, 1, 76, 0
7, 113400, Note_on_c, 1, 74, 52
7, 113400, Note_on_c, 1, 78, 52
7, 113519, Note_on_c, 1, 74, 0
7, 113519, Note_on_c, 1, 78, 0
7, 113640, Note_on_c, 1, 73, 52
7, 113640, Note_on_c, 1, 79, 52
7, 113759, Note_on_c, 1, 73, 0
7, 113759, Note_on_c, 1, 79, 0
7, 113880, Note_on_c, 1, 78, 52
7, 113880, Note_on_c, 1, 74, 52
7, 113999, Note_on_c, 1, 78, 0
7, 113999, Note_on_c, 1, 74, 0
7, 114360, Note_on_c, 1, 74, 84
7, 114360, Note_on_c, 1, 78, 84
7, 114824, Note_on_c, 1, 74, 0
7, 114824, Note_on_c, 1, 78, 0
7, 114840, Note_on_c, 1, 79, 84
7, 114840, Note_on_c, 1, 74, 84
7, 115064, Note_on_c, 1, 79, 0
7, 115064, Note_on_c, 1, 74, 0
7, 115080, Note_on_c, 1, 77, 84
7, 115080, Note_on_c, 1, 80, 84
7, 115319, Note_on_c, 1, 77, 0
7, 115319, Note_on_c, 1, 80, 0
7, 115320, Note_on_c, 1, 81, 84
7, 115320, Note_on_c, 1, 78, 84
7, 115544, Note_on_c, 1, 81, 0
7, 115544, Note_on_c, 1, 78, 0
7, 115560, Note_on_c, 1, 81, 84
7, 115560, Note_on_c, 1, 79, 84
7, 115784, Note_on_c, 1, 81, 0
7, 115784, Note_on_c, 1, 79, 0
7, 115800, Note_on_c, 1, 78, 84
7, 115800, Note_on_c, 1, 81, 84
7, 115851, Note_on_c, 1, 78, 0
7, 115851, Note_on_c, 1, 81, 0
7, 115860, Note_on_c, 1, 74, 84
7, 115919, Note_on_c, 1, 74, 0
7, 115920, Note_on_c, 1, 76, 84
7, 115979, Note_on_c, 1, 76, 0
7, 115980, Note_on_c, 1, 78, 84
7, 116039, Note_on_c, 1, 78, 0
7, 116040, Note_on_c, 1, 79, 84
7, 116099, Note_on_c, 1, 79, 0
7, 116100, Note_on_c, 1, 81, 84
7, 116159, Note_on_c, 1, 81, 0
7, 116160, Note_on_c, 1, 82, 84
7, 116219, Note_on_c, 1, 82, 0
7, 116220, Note_on_c, 1, 84, 84
7, 116271, Note_on_c, 1, 84, 0
7, 116280, Note_on_c, 1, 86, 76
7, 116459, Note_on_c, 1, 86, 0
7, 116520, Note_on_c, 1, 86, 76
7, 116684, Note_on_c, 1, 86, 0
7, 116700, Note_on_c, 1, 86, 76
7, 116744, Note_on_c, 1, 86, 0
7, 116760, Note_on_c, 1, 86, 76
7, 116939, Note_on_c, 1, 86, 0
7, 117000, Note_on_c, 1, 86, 76
7, 117164, Note_on_c, 1, 86, 0
7, 117180, Note_on_c, 1, 86, 76
7, 117224, Note_on_c, 1, 86, 0
7, 117240, Note_on_c, 1, 86, 76
7, 117404, Note_on_c, 1, 86, 0
7, 117420, Note_on_c, 1, 84, 76
7, 117464, Note_on_c, 1, 84, 0
7, 117480, Note_on_c, 1, 82, 76
7, 117644, Note_on_c, 1, 82, 0
7, 117660, Note_on_c, 1, 81, 76
7, 117704, Note_on_c, 1, 81, 0
7, 117720, Note_on_c, 1, 82, 76
7, 117884, Note_on_c, 1, 82, 0
7, 117900, Note_on_c, 1, 84, 76
7, 117944, Note_on_c, 1, 84, 0
7, 117960, Note_on_c, 1, 82, 76
7, 118124, Note_on_c, 1, 82, 0
7, 118140, Note_on_c, 1, 81, 76
7, 118171, Note_on_c, 1, 81, 0
7, 118180, Note_on_c, 1, 81, 76
7, 118199, Note_on_c, 1, 81, 0
7, 118200, Note_on_c, 1, 79, 76
7, 118364, Note_on_c, 1, 79, 0
7, 118380, Note_on_c, 1, 78, 76
7, 118424, Note_on_c, 1, 78, 0
7, 118440, Note_on_c, 1, 79, 76
7, 118604, Note_on_c, 1, 79, 0
7, 118620, Note_on_c, 1, 82, 76
7, 118664, Note_on_c, 1, 82, 0
7, 118680, Note_on_c, 1, 81, 76
7, 118844, Note_on_c, 1, 81, 0
7, 118860, Note_on_c, 1, 82, 76
7, 118904, Note_on_c, 1, 82, 0
7, 118920, Note_on_c, 1, 84, 76
7, 119084, Note_on_c, 1, 84, 0
7, 119100, Note_on_c, 1, 81, 76
7, 119144, Note_on_c, 1, 81, 0
7, 119160, Note_on_c, 1, 78, 76
7, 119324, Note_on_c, 1, 78, 0
7, 119340, Note_on_c, 1, 79, 76
7, 119384, Note_on_c, 1, 79, 0
7, 119400, Note_on_c, 1, 81, 76
7, 119564, Note_on_c, 1, 81, 0
7, 119580, Note_on_c, 1, 78, 76
7, 119624, Note_on_c, 1, 78, 0
7, 119640, Note_on_c, 1, 79, 76
7, 119699, Note_on_c, 1, 79, 0
7, 119700, Note_on_c, 1, 74, 76
7, 119759, Note_on_c, 1, 74, 0
7, 119760, Note_on_c, 1, 76, 76
7, 119819, Note_on_c, 1, 76, 0
7, 119820, Note_on_c, 1, 78, 76
7, 119879, Note_on_c, 1, 78, 0
7, 119880, Note_on_c, 1, 79, 76
7, 119939, Note_on_c, 1, 79, 0
7, 119940, Note_on_c, 1, 81, 76
7, 119999, Note_on_c, 1, 81, 0
7, 120000, Note_on_c, 1, 82, 76
7, 120059, Note_on_c, 1, 82, 0
7, 120060, Note_on_c, 1, 84, 76
7, 120111, Note_on_c, 1, 84, 0
7, 120120, Note_on_c, 1, 86, 76
7, 120299, Note_on_c, 1, 86, 0
7, 120360, Note_on_c, 1, 86, 76
7, 120524, Note_on_c, 1, 86, 0
7, 120540, Note_on_c, 1, 86, 76
7, 120584, Note_on_c, 1, 86, 0
7, 120600, Note_on_c, 1, 86, 76
7, 120779, Note_on_c, 1, 86, 0
7, 120840, Note_on_c, 1, 86, 76
7, 121004, Note_on_c, 1, 86, 0
7, 121020, Note_on_c, 1, 86, 76
7, 121064, Note_on_c, 1, 86, 0
7, 121080, Note_on_c, 1, 86, 76
7, 121244, Note_on_c, 1, 86, 0
7, 121260, Note_on_c, 1, 84, 76
7, 121304, Note_on_c, 1, 84, 0
7, 121320, Note_on_c, 1, 82, 76
7, 121484, Note_on_c, 1, 82, 0
7, 121500, Note_on_c, 1, 81, 76
7, 121544, Note_on_c, 1, 81, 0
7, 121560, Note_on_c, 1, 82, 76
7, 121724, Note_on_c, 1, 82, 0
7, 121740, Note_on_c, 1, 84, 76
7, 121784, Note_on_c, 1, 84, 0
7, 121800, Note_on_c, 1, 82, 76
7, 121964, Note_on_c, 1, 82, 0
7, 121980, Note_on_c, 1, 81, 76
7, 122011, Note_on_c, 1, 81, 0
7, 122020, Note_on_c, 1, 81, 76
7, 122039, Note_on_c, 1, 81, 0
7, 122040, Note_on_c, 1, 79, 76
7, 122204, Note_on_c, 1, 79, 0
7, 122220, Note_on_c, 1, 78, 76
7, 122264, Note_on_c, 1, 78, 0
7, 122280, Note_on_c, 1, 79, 76
7, 122444, Note_on_c, 1, 79, 0
7, 122460, Note_on_c, 1, 82, 76
7, 122504, Note_on_c, 1, 82, 0
7, 122520, Note_on_c, 1, 81, 76
7, 122684, Note_on_c, 1, 81, 0
7, 122700, Note_on_c, 1, 82, 76
7, 122744, Note_on_c, 1, 82, 0
7, 122760, Note_on_c, 1, 84, 76
7, 122924, Note_on_c, 1, 84, 0
7, 122940, Note_on_c, 1, 81, 76
7, 122984, Note_on_c, 1, 81, 0
7, 123000, Note_on_c, 1, 78, 76
7, 123164, Note_on_c, 1, 78, 0
7, 123180, Note_on_c, 1, 79, 76
7, 123224, Note_on_c, 1, 79, 0
7, 123240, Note_on_c, 1, 81, 76
7, 123404, Note_on_c, 1, 81, 0
7, 123420, Note_on_c, 1, 78, 76
7, 123464, Note_on_c, 1, 78, 0
7, 123480, Note_on_c, 1, 79, 76
7, 123599, Note_on_c, 1, 79, 0
7, 125880, Note_on_c, 1, 84, 76
7, 126059, Note_on_c, 1, 84, 0
7, 126120, Note_on_c, 1, 84, 76
7, 126284, Note_on_c, 1, 84, 0
7, 126300, Note_on_c, 1, 84, 76
7, 126344, Note_on_c, 1, 84, 0
7, 126360, Note_on_c, 1, 81, 76
7, 126539, Note_on_c, 1, 81, 0
7, 126600, Note_on_c, 1, 81, 76
7, 126764, Note_on_c, 1, 81, 0
7, 126780, Note_on_c, 1, 81, 76
7, 126824, Note_on_c, 1, 81, 0
7, 126840, Note_on_c, 1, 78, 76
7, 127004, Note_on_c, 1, 78, 0
7, 127020, Note_on_c, 1, 79, 76
7, 127064, Note_on_c, 1, 79, 0
7, 127080, Note_on_c, 1, 81, 76
7, 127244, Note_on_c, 1, 81, 0
7, 127260, Note_on_c, 1, 78, 76
7, 127304, Note_on_c, 1, 78, 0
7, 127320, Note_on_c, 1, 79, 76
7, 127439, Note_on_c, 1, 79, 0
7, 129720, Note_on_c, 1, 72, 76
7, 129899, Note_on_c, 1, 72, 0
7, 129960, Note_on_c, 1, 72, 76
7, 130124, Note_on_c, 1, 72, 0
7, 130140, Note_on_c, 1, 72, 76
7, 130184, Note_on_c, 1, 72, 0
7, 130200, Note_on_c, 1, 69, 76
7, 130379, Note_on_c, 1, 69, 0
7, 130440, Note_on_c, 1, 69, 76
7, 130604, Note_on_c, 1, 69, 0
7, 130620, Note_on_c, 1, 69, 76
7, 130664, Note_on_c, 1, 69, 0
7, 130680, Note_on_c, 1, 66, 76
7, 130844, Note_on_c, 1, 66, 0
7, 130860, Note_on_c, 1, 67, 76
7, 130904, Note_on_c, 1, 67, 0
7, 130920, Note_on_c, 1, 69, 76
7, 131084, Note_on_c, 1, 69, 0
7, 131100, Note_on_c, 1, 66, 76
7, 131144, Note_on_c, 1, 66, 0
7, 131160, Note_on_c, 1, 67, 76
7, 131324, Note_on_c, 1, 67, 0
7, 131340, Note_on_c, 1, 67, 76
7, 131384, Note_on_c, 1, 67, 0
7, 131400, Note_on_c, 1, 72, 84
7, 131564, Note_on_c, 1, 72, 0
7, 131580, Note_on_c, 1, 72, 76
7, 131624, Note_on_c, 1, 72, 0
7, 131640, Note_on_c, 1, 72, 76
7, 131804, Note_on_c, 1, 72, 0
7, 131820, Note_on_c, 1, 72, 76
7, 131864, Note_on_c, 1, 72, 0
7, 131880, Note_on_c, 1, 72, 76
7, 132044, Note_on_c, 1, 72, 0
7, 132060, Note_on_c, 1, 72, 76
7, 132104, Note_on_c, 1, 72, 0
7, 132120, Note_on_c, 1, 69, 76
7, 132284, Note_on_c, 1, 69, 0
7, 132300, Note_on_c, 1, 69, 76
7, 132344, Note_on_c, 1, 69, 0
7, 132360, Note_on_c, 1, 69, 76
7, 132524, Note_on_c, 1, 69, 0
7, 132540, Note_on_c, 1, 69, 76
7, 132584, Note_on_c, 1, 69, 0
7, 132600, Note_on_c, 1, 66, 76
7, 132764, Note_on_c, 1, 66, 0
7, 132780, Note_on_c, 1, 67, 76
7, 132824, Note_on_c, 1, 67, 0
7, 132840, Note_on_c, 1, 69, 76
7, 133004, Note_on_c, 1, 69, 0
7, 133020, Note_on_c, 1, 66, 76
7, 133064, Note_on_c, 1, 66, 0
7, 133080, Note_on_c, 1, 67, 76
7, 133244, Note_on_c, 1, 67, 0
7, 133260, Note_on_c, 1, 69, 76
7, 133304, Note_on_c, 1, 69, 0
7, 133320, Note_on_c, 1, 70, 76
7, 133484, Note_on_c, 1, 70, 0
7, 133500, Note_on_c, 1, 67, 76
7, 133544, Note_on_c, 1, 67, 0
7, 133560, Note_on_c, 1, 66, 76
7, 133724, Note_on_c, 1, 66, 0
7, 133740, Note_on_c, 1, 67, 76
7, 133784, Note_on_c, 1, 67, 0
7, 133800, Note_on_c, 1, 69, 76
7, 133964, Note_on_c, 1, 69, 0
7, 133980, Note_on_c, 1, 66, 76
7, 134024, Note_on_c, 1, 66, 0
7, 134040, Note_on_c, 1, 67, 76
7, 134204, Note_on_c, 1, 67, 0
7, 134220, Note_on_c, 1, 69, 76
7, 134264, Note_on_c, 1, 69, 0
7, 134280, Note_on_c, 1, 70, 76
7, 134444, Note_on_c, 1, 70, 0
7, 134460, Note_on_c, 1, 67, 76
7, 134504, Note_on_c, 1, 67, 0
7, 134520, Note_on_c, 1, 66, 76
7, 134684, Note_on_c, 1, 66, 0
7, 134700, Note_on_c, 1, 67, 76
7, 134744, Note_on_c, 1, 67, 0
7, 134760, Note_on_c, 1, 69, 76
7, 134924, Note_on_c, 1, 69, 0
7, 134940, Note_on_c, 1, 66, 76
7, 134984, Note_on_c, 1, 66, 0
7, 135000, Note_on_c, 1, 67, 76
7, 135089, Note_on_c, 1, 67, 0
7, 135120, Note_on_c, 1, 74, 76
7, 135209, Note_on_c, 1, 74, 0
7, 135240, Note_on_c, 1, 78, 76
7, 135240, Note_on_c, 1, 74, 76
7, 135329, Note_on_c, 1, 78, 0
7, 135329, Note_on_c, 1, 74, 0
7, 135360, Note_on_c, 1, 74, 76
7, 135360, Note_on_c, 1, 78, 76
7, 135449, Note_on_c, 1, 74, 0
7, 135449, Note_on_c, 1, 78, 0
7, 135480, Note_on_c, 1, 79, 76
7, 135480, Note_on_c, 1, 74, 76
7, 135569, Note_on_c, 1, 79, 0
7, 135569, Note_on_c, 1, 74, 0
7, 135600, Note_on_c, 1, 74, 76
7, 135600, Note_on_c, 1, 79, 76
7, 135689, Note_on_c, 1, 74, 0
7, 135689, Note_on_c, 1, 79, 0
7, 135720, Note_on_c, 1, 78, 76
7, 135720, Note_on_c, 1, 74, 76
7, 135809, Note_on_c, 1, 78, 0
7, 135809, Note_on_c, 1, 74, 0
7, 135840, Note_on_c, 1, 78, 76
7, 135840, Note_on_c, 1, 74, 76
7, 135929, Note_on_c, 1, 78, 0
7, 135929, Note_on_c, 1, 74, 0
7, 135960, Note_on_c, 1, 79, 76
7, 135960, Note_on_c, 1, 74, 76
7, 136049, Note_on_c, 1, 79, 0
7, 136049, Note_on_c, 1, 74, 0
7, 136080, Note_on_c, 1, 79, 76
7, 136080, Note_on_c, 1, 74, 76
7, 136169, Note_on_c, 1, 79, 0
7, 136169, Note_on_c, 1, 74, 0
7, 136200, Note_on_c, 1, 78, 76
7, 136200, Note_on_c, 1, 74, 76
7, 136289, Note_on_c, 1, 78, 0
7, 136289, Note_on_c, 1, 74, 0
7, 136320, Note_on_c, 1, 78, 76
7, 136320, Note_on_c, 1, 74, 76
7, 136409, Note_on_c, 1, 78, 0
7, 136409, Note_on_c, 1, 74, 0
7, 136440, Note_on_c, 1, 79, 76
7, 136440, Note_on_c, 1, 74, 76
7, 136529, Note_on_c, 1, 79, 0
7, 136529, Note_on_c, 1, 74, 0
7, 136560, Note_on_c, 1, 74, 76
7, 136560, Note_on_c, 1, 79, 76
7, 136649, Note_on_c, 1, 74, 0
7, 136649, Note_on_c, 1, 79, 0
7, 136680, Note_on_c, 1, 74, 76
7, 136680, Note_on_c, 1, 78, 76
7, 136769, Note_on_c, 1, 74, 0
7, 136769, Note_on_c, 1, 78, 0
7, 136800, Note_on_c, 1, 78, 76
7, 136800, Note_on_c, 1, 74, 76
7, 136889, Note_on_c, 1, 78, 0
7, 136889, Note_on_c, 1, 74, 0
7, 136920, Note_on_c, 1, 79, 76
7, 136920, Note_on_c, 1, 74, 76
7, 137159, Note_on_c, 1, 79, 0
7, 137159, Note_on_c, 1, 74, 0
7, 137400, Note_on_c, 1, 79, 76
7, 137639, Note_on_c, 1, 79, 0
7, 137880, Note_on_c, 1, 67, 52
7, 137999, Note_on_c, 1, 67, 0
7, 139440, Note_on_c, 1, 67, 48
7, 139559, Note_on_c, 1, 67, 0
7, 139560, Note_on_c, 1, 71, 48
7, 139679, Note_on_c, 1, 71, 0
7, 139680, Note_on_c, 1, 74, 48
7, 139784, Note_on_c, 1, 74, 0
7, 139800, Note_on_c, 1, 77, 48
7, 139919, Note_on_c, 1, 77, 0
7, 140400, Note_on_c, 1, 67, 48
7, 140519, Note_on_c, 1, 67, 0
7, 140520, Note_on_c, 1, 72, 48
7, 140639, Note_on_c, 1, 72, 0
7, 140640, Note_on_c, 1, 76, 48
7, 140744, Note_on_c, 1, 76, 0
7, 140760, Note_on_c, 1, 79, 48
7, 140879, Note_on_c, 1, 79, 0
7, 142680, Note_on_c, 1, 72, 52
7, 143144, Note_on_c, 1, 72, 0
7, 143160, Note_on_c, 1, 79, 52
7, 143624, Note_on_c, 1, 79, 0
7, 143640, Note_on_c, 1, 67, 52
7, 144104, Note_on_c, 1, 67, 0
7, 144120, Note_on_c, 1, 72, 52
7, 144359, Note_on_c, 1, 72, 0
7, 165960, Note_on_c, 1, 75, 84
7, 166664, Note_on_c, 1, 75, 0
7, 166680, Note_on_c, 1, 82, 84
7, 167144, Note_on_c, 1, 82, 0
7, 167160, Note_on_c, 1, 70, 84
7, 167624, Note_on_c, 1, 70, 0
7, 167640, Note_on_c, 1, 75, 84
7, 167984, Note_on_c, 1, 75, 0
7, 168000, Note_on_c, 1, 79, 84
7, 168104, Note_on_c, 1, 79, 0
7, 168120, Note_on_c, 1, 77, 84
7, 168209, Note_on_c, 1, 77, 0
7, 168240, Note_on_c, 1, 75, 84
7, 168329, Note_on_c, 1, 75, 0
7, 168360, Note_on_c, 1, 74, 84
7, 168449, Note_on_c, 1, 74, 0
7, 168480, Note_on_c, 1, 77, 84
7, 168569, Note_on_c, 1, 77, 0
7, 168600, Note_on_c, 1, 75, 84
7, 168944, Note_on_c, 1, 75, 0
7, 168960, Note_on_c, 1, 82, 84
7, 168960, Note_on_c, 1, 79, 84
7, 169049, Note_on_c, 1, 82, 0
7, 169049, Note_on_c, 1, 79, 0
7, 169080, Note_on_c, 1, 80, 84
7, 169080, Note_on_c, 1, 77, 84
7, 169169, Note_on_c, 1, 80, 0
7, 169169, Note_on_c, 1, 77, 0
7, 169200, Note_on_c, 1, 79, 84
7, 169200, Note_on_c, 1, 75, 84
7, 169289, Note_on_c, 1, 79, 0
7, 169289, Note_on_c, 1, 75, 0
7, 169320, Note_on_c, 1, 74, 84
7, 169320, Note_on_c, 1, 77, 84
7, 169409, Note_on_c, 1, 74, 0
7, 169409, Note_on_c, 1, 77, 0
7, 169440, Note_on_c, 1, 80, 84
7, 169440, Note_on_c, 1, 77, 84
7, 169529, Note_on_c, 1, 80, 0
7, 169529, Note_on_c, 1, 77, 0
7, 169560, Note_on_c, 1, 75, 84
7, 169560, Note_on_c, 1, 79, 84
7, 169649, Note_on_c, 1, 75, 0
7, 169649, Note_on_c, 1, 79, 0
7, 169680, Note_on_c, 1, 77, 84
7, 169680, Note_on_c, 1, 74, 84
7, 169769, Note_on_c, 1, 77, 0
7, 169769, Note_on_c, 1, 74, 0
7, 169800, Note_on_c, 1, 75, 84
7, 169800, Note_on_c, 1, 72, 84
7, 169889, Note_on_c, 1, 75, 0
7, 169889, Note_on_c, 1, 72, 0
7, 169920, Note_on_c, 1, 79, 84
7, 169920, Note_on_c, 1, 75, 84
7, 170009, Note_on_c, 1, 79, 0
7, 170009, Note_on_c, 1, 75, 0
7, 170040, Note_on_c, 1, 77, 84
7, 170040, Note_on_c, 1, 73, 84
7, 170129, Note_on_c, 1, 77, 0
7, 170129, Note_on_c, 1, 73, 0
7, 170160, Note_on_c, 1, 75, 84
7, 170160, Note_on_c, 1, 72, 84
7, 170249, Note_on_c, 1, 75, 0
7, 170249, Note_on_c, 1, 72, 0
7, 170280, Note_on_c, 1, 70, 84
7, 170280, Note_on_c, 1, 73, 84
7, 170369, Note_on_c, 1, 70, 0
7, 170369, Note_on_c, 1, 73, 0
7, 170400, Note_on_c, 1, 77, 84
7, 170400, Note_on_c, 1, 73, 84
7, 170489, Note_on_c, 1, 77, 0
7, 170489, Note_on_c, 1, 73, 0
7, 170520, Note_on_c, 1, 72, 84
7, 170520, Note_on_c, 1, 75, 84
7, 170609, Note_on_c, 1, 72, 0
7, 170609, Note_on_c, 1, 75, 0
7, 170640, Note_on_c, 1, 73, 84
7, 170640, Note_on_c, 1, 70, 84
7, 170729, Note_on_c, 1, 73, 0
7, 170729, Note_on_c, 1, 70, 0
7, 170760, Note_on_c, 1, 72, 84
7, 170760, Note_on_c, 1, 68, 84
7, 170849, Note_on_c, 1, 72, 0
7, 170849, Note_on_c, 1, 68, 0
7, 170880, Note_on_c, 1, 75, 84
7, 170880, Note_on_c, 1, 72, 84
7, 170969, Note_on_c, 1, 75, 0
7, 170969, Note_on_c, 1, 72, 0
7, 171000, Note_on_c, 1, 70, 84
7, 171000, Note_on_c, 1, 73, 84
7, 171089, Note_on_c, 1, 70, 0
7, 171089, Note_on_c, 1, 73, 0
7, 171120, Note_on_c, 1, 72, 84
7, 171120, Note_on_c, 1, 68, 84
7, 171209, Note_on_c, 1, 72, 0
7, 171209, Note_on_c, 1, 68, 0
7, 171240, Note_on_c, 1, 67, 84
7, 171240, Note_on_c, 1, 70, 84
7, 171329, Note_on_c, 1, 67, 0
7, 171329, Note_on_c, 1, 70, 0
7, 171360, Note_on_c, 1, 70, 84
7, 171360, Note_on_c, 1, 73, 84
7, 171449, Note_on_c, 1, 70, 0
7, 171449, Note_on_c, 1, 73, 0
7, 171480, Note_on_c, 1, 72, 84
7, 171480, Note_on_c, 1, 68, 84
7, 171569, Note_on_c, 1, 72, 0
7, 171569, Note_on_c, 1, 68, 0
7, 171600, Note_on_c, 1, 74, 84
7, 171600, Note_on_c, 1, 70, 84
7, 171689, Note_on_c, 1, 74, 0
7, 171689, Note_on_c, 1, 70, 0
7, 171720, Note_on_c, 1, 75, 84
7, 171720, Note_on_c, 1, 70, 84
7, 171809, Note_on_c, 1, 75, 0
7, 171809, Note_on_c, 1, 70, 0
7, 171840, Note_on_c, 1, 77, 84
7, 171840, Note_on_c, 1, 70, 84
7, 171929, Note_on_c, 1, 77, 0
7, 171929, Note_on_c, 1, 70, 0
7, 171960, Note_on_c, 1, 78, 84
7, 171960, Note_on_c, 1, 70, 84
7, 172049, Note_on_c, 1, 78, 0
7, 172049, Note_on_c, 1, 70, 0
7, 172080, Note_on_c, 1, 75, 84
7, 172080, Note_on_c, 1, 79, 84
7, 172169, Note_on_c, 1, 75, 0
7, 172169, Note_on_c, 1, 79, 0
7, 172200, Note_on_c, 1, 75, 84
7, 172200, Note_on_c, 1, 80, 84
7, 172289, Note_on_c, 1, 75, 0
7, 172289, Note_on_c, 1, 80, 0
7, 172320, Note_on_c, 1, 75, 84
7, 172320, Note_on_c, 1, 81, 84
7, 172409, Note_on_c, 1, 75, 0
7, 172409, Note_on_c, 1, 81, 0
7, 172440, Note_on_c, 1, 82, 84
7, 172440, Note_on_c, 1, 74, 84
7, 172679, Note_on_c, 1, 82, 0
7, 172679, Note_on_c, 1, 74, 0
7, 173880, Note_on_c, 1, 77, 92
7, 173880, Note_on_c, 1, 74, 92
7, 174329, Note_on_c, 1, 77, 0
7, 174329, Note_on_c, 1, 74, 0
7, 174360, Note_on_c, 1, 82, 84
7, 174360, Note_on_c, 1, 79, 84
7, 174449, Note_on_c, 1, 82, 0
7, 174449, Note_on_c, 1, 79, 0
7, 174480, Note_on_c, 1, 67, 84
7, 174480, Note_on_c, 1, 70, 84
7, 174569, Note_on_c, 1, 67, 0
7, 174569, Note_on_c, 1, 70, 0
7, 174600, Note_on_c, 1, 72, 84
7, 174600, Note_on_c, 1, 75, 84
7, 174689, Note_on_c, 1, 72, 0
7, 174689, Note_on_c, 1, 75, 0
7, 174840, Note_on_c, 1, 80, 84
7, 174840, Note_on_c, 1, 77, 84
7, 174929, Note_on_c, 1, 80, 0
7, 174929, Note_on_c, 1, 77, 0
7, 174960, Note_on_c, 1, 65, 84
7, 174960, Note_on_c, 1, 68, 84
7, 175049, Note_on_c, 1, 65, 0
7, 175049, Note_on_c, 1, 68, 0
7, 175080, Note_on_c, 1, 74, 84
7, 175169, Note_on_c, 1, 74, 0
7, 175320, Note_on_c, 1, 79, 84
7, 175409, Note_on_c, 1, 79, 0
7, 175440, Note_on_c, 1, 67, 84
7, 175529, Note_on_c, 1, 67, 0
7, 175680, Note_on_c, 1, 77, 84
7, 175800, Note_on_c, 1, 82, 84
7, 175904, Note_on_c, 1, 77, 0
7, 175919, Note_on_c, 1, 82, 0
7, 175920, Note_on_c, 1, 75, 84
7, 175920, Note_on_c, 1, 81, 84
7, 176039, Note_on_c, 1, 81, 0
7, 176040, Note_on_c, 1, 80, 84
7, 176144, Note_on_c, 1, 75, 0
7, 176160, Note_on_c, 1, 74, 84
7, 176279, Note_on_c, 1, 80, 0
7, 176280, Note_on_c, 1, 79, 84
7, 176384, Note_on_c, 1, 74, 0
7, 176400, Note_on_c, 1, 72, 84
7, 176519, Note_on_c, 1, 79, 0
7, 176520, Note_on_c, 1, 77, 84
7, 176624, Note_on_c, 1, 72, 0
7, 176640, Note_on_c, 1, 70, 84
7, 176759, Note_on_c, 1, 77, 0
7, 176760, Note_on_c, 1, 75, 84
7, 176879, Note_on_c, 1, 70, 0
7, 176880, Note_on_c, 1, 68, 84
7, 176984, Note_on_c, 1, 75, 0
7, 176984, Note_on_c, 1, 68, 0
7, 177000, Note_on_c, 1, 68, 84
7, 177000, Note_on_c, 1, 74, 84
7, 177089, Note_on_c, 1, 68, 0
7, 177089, Note_on_c, 1, 74, 0
7, 177120, Note_on_c, 1, 68, 84
7, 177120, Note_on_c, 1, 74, 84
7, 177209, Note_on_c, 1, 68, 0
7, 177209, Note_on_c, 1, 74, 0
7, 177240, Note_on_c, 1, 68, 84
7, 177240, Note_on_c, 1, 74, 84
7, 177344, Note_on_c, 1, 68, 0
7, 177344, Note_on_c, 1, 74, 0
7, 177360, Note_on_c, 1, 74, 84
7, 177360, Note_on_c, 1, 77, 84
7, 177464, Note_on_c, 1, 74, 0
7, 177464, Note_on_c, 1, 77, 0
7, 177480, Note_on_c, 1, 77, 84
7, 177480, Note_on_c, 1, 74, 84
7, 177584, Note_on_c, 1, 77, 0
7, 177584, Note_on_c, 1, 74, 0
7, 177600, Note_on_c, 1, 80, 84
7, 177600, Note_on_c, 1, 77, 84
7, 177704, Note_on_c, 1, 80, 0
7, 177704, Note_on_c, 1, 77, 0
7, 177720, Note_on_c, 1, 77, 84
7, 177720, Note_on_c, 1, 80, 84
7, 177824, Note_on_c, 1, 77, 0
7, 177824, Note_on_c, 1, 80, 0
7, 177840, Note_on_c, 1, 86, 84
7, 177840, Note_on_c, 1, 80, 84
7, 177944, Note_on_c, 1, 86, 0
7, 177944, Note_on_c, 1, 80, 0
7, 177960, Note_on_c, 1, 86, 84
7, 177960, Note_on_c, 1, 80, 84
7, 178064, Note_on_c, 1, 86, 0
7, 178064, Note_on_c, 1, 80, 0
7, 178080, Note_on_c, 1, 86, 84
7, 178080, Note_on_c, 1, 80, 84
7, 178184, Note_on_c, 1, 86, 0
7, 178184, Note_on_c, 1, 80, 0
7, 178200, Note_on_c, 1, 80, 84
7, 178200, Note_on_c, 1, 86, 84
7, 178304, Note_on_c, 1, 80, 0
7, 178304, Note_on_c, 1, 86, 0
7, 178320, Note_on_c, 1, 80, 84
7, 178320, Note_on_c, 1, 86, 84
7, 178424, Note_on_c, 1, 80, 0
7, 178424, Note_on_c, 1, 86, 0
7, 178440, Note_on_c, 1, 86, 84
7, 178440, Note_on_c, 1, 80, 84
7, 178544, Note_on_c, 1, 86, 0
7, 178544, Note_on_c, 1, 80, 0
7, 178560, Note_on_c, 1, 80, 84
7, 178560, Note_on_c, 1, 86, 84
7, 178664, Note_on_c, 1, 80, 0
7, 178664, Note_on_c, 1, 86, 0
7, 178680, Note_on_c, 1, 86, 84
7, 178680, Note_on_c, 1, 80, 84
7, 178784, Note_on_c, 1, 86, 0
7, 178784, Note_on_c, 1, 80, 0
7, 178800, Note_on_c, 1, 80, 84
7, 178800, Note_on_c, 1, 86, 84
7, 178904, Note_on_c, 1, 80, 0
7, 178904, Note_on_c, 1, 86, 0
7, 178920, Note_on_c, 1, 80, 84
7, 178920, Note_on_c, 1, 86, 84
7, 179024, Note_on_c, 1, 80, 0
7, 179024, Note_on_c, 1, 86, 0
7, 179040, Note_on_c, 1, 86, 84
7, 179040, Note_on_c, 1, 80, 84
7, 179144, Note_on_c, 1, 86, 0
7, 179144, Note_on_c, 1, 80, 0
7, 179160, Note_on_c, 1, 80, 84
7, 179160, Note_on_c, 1, 74, 84
7, 179264, Note_on_c, 1, 74, 0
7, 179280, Note_on_c, 1, 75, 84
7, 179384, Note_on_c, 1, 75, 0
7, 179400, Note_on_c, 1, 74, 84
7, 179504, Note_on_c, 1, 74, 0
7, 179520, Note_on_c, 1, 75, 84
7, 179624, Note_on_c, 1, 75, 0
7, 179640, Note_on_c, 1, 74, 84
7, 179744, Note_on_c, 1, 74, 0
7, 179760, Note_on_c, 1, 75, 84
7, 179864, Note_on_c, 1, 75, 0
7, 179880, Note_on_c, 1, 74, 84
7, 179984, Note_on_c, 1, 74, 0
7, 180000, Note_on_c, 1, 75, 84
7, 180104, Note_on_c, 1, 75, 0
7, 180120, Note_on_c, 1, 74, 84
7, 180359, Note_on_c, 1, 80, 0
7, 180359, Note_on_c, 1, 74, 0
7, 181320, Note_on_c, 1, 74, 92
7, 181320, Note_on_c, 1, 80, 92
7, 181769, Note_on_c, 1, 74, 0
7, 181769, Note_on_c, 1, 80, 0
7, 181800, Note_on_c, 1, 77, 92
7, 181800, Note_on_c, 1, 80, 92
7, 182369, Note_on_c, 1, 77, 0
7, 182369, Note_on_c, 1, 80, 0
7, 182396, Control_c, 1, 11, 96
7, 182400, Note_on_c, 1, 75, 68
7, 182511, Note_on_c, 1, 75, 0
7, 182520, Note_on_c, 1, 79, 68
7, 182520, Control_c, 1, 11, 96
7, 182580, Control_c, 1, 11, 97
7, 182640, Control_c, 1, 11, 98
7, 182700, Control_c, 1, 11, 99
7, 182759, Note_on_c, 1, 79, 0
7, 182760, Control_c, 1, 11, 100
7, 182760, Note_on_c, 1, 75, 68
7, 182820, Control_c, 1, 11, 101
7, 182880, Control_c, 1, 11, 102
7, 182940, Control_c, 1, 11, 103
7, 182969, Note_on_c, 1, 75, 0
7, 182970, Note_on_c, 1, 74, 68
7, 182995, Note_on_c, 1, 74, 0
7, 183000, Control_c, 1, 11, 104
7, 183000, Note_on_c, 1, 74, 68
7, 183060, Control_c, 1, 11, 105
7, 183120, Control_c, 1, 11, 106
7, 183180, Control_c, 1, 11, 107
7, 183240, Control_c, 1, 11, 108
7, 183300, Control_c, 1, 11, 109
7, 183359, Note_on_c, 1, 74, 0
7, 183360, Note_on_c, 1, 77, 68
7, 183360, Control_c, 1, 11, 110
7, 183420, Control_c, 1, 11, 112
7, 183471, Note_on_c, 1, 77, 0
7, 183480, Note_on_c, 1, 80, 68
7, 183719, Note_on_c, 1, 80, 0
7, 183720, Note_on_c, 1, 77, 84
7, 183929, Note_on_c, 1, 77, 0
7, 183930, Note_on_c, 1, 75, 68
7, 183955, Note_on_c, 1, 75, 0
7, 183958, Control_c, 1, 11, 96
7, 183960, Note_on_c, 1, 75, 68
7, 184319, Note_on_c, 1, 75, 0
7, 184320, Note_on_c, 1, 79, 68
7, 184431, Note_on_c, 1, 79, 0
7, 184440, Note_on_c, 1, 82, 68
7, 184440, Control_c, 1, 11, 96
7, 184480, Control_c, 1, 11, 99
7, 184520, Control_c, 1, 11, 101
7, 184560, Control_c, 1, 11, 104
7, 184600, Control_c, 1, 11, 106
7, 184640, Control_c, 1, 11, 109
7, 184649, Note_on_c, 1, 82, 0
7, 184680, Control_c, 1, 11, 112
7, 184680, Note_on_c, 1, 82, 68
7, 184720, Control_c, 1, 11, 114
7, 184760, Control_c, 1, 11, 117
7, 184800, Control_c, 1, 11, 119
7, 184840, Control_c, 1, 11, 122
7, 184859, Note_on_c, 1, 82, 0
7, 184880, Control_c, 1, 11, 127
7, 184920, Note_on_c, 1, 82, 76
7, 184950, Control_c, 1, 11, 112
7, 184988, Control_c, 1, 11, 109
7, 185025, Control_c, 1, 11, 107
7, 185063, Control_c, 1, 11, 104
7, 185100, Control_c, 1, 11, 101
7, 185138, Control_c, 1, 11, 99
7, 185175, Control_c, 1, 11, 96
7, 185213, Control_c, 1, 11, 93
7, 185250, Control_c, 1, 11, 91
7, 185271, Note_on_c, 1, 82, 0
7, 185280, Note_on_c, 1, 79, 76
7, 185288, Control_c, 1, 11, 88
7, 185325, Control_c, 1, 11, 85
7, 185363, Control_c, 1, 11, 80
7, 185399, Note_on_c, 1, 79, 0
7, 185400, Note_on_c, 1, 80, 76
7, 185519, Note_on_c, 1, 80, 0
7, 185520, Note_on_c, 1, 77, 76
7, 185639, Note_on_c, 1, 77, 0
7, 185640, Note_on_c, 1, 79, 76
7, 185759, Note_on_c, 1, 79, 0
7, 185760, Note_on_c, 1, 75, 76
7, 185879, Note_on_c, 1, 75, 0
7, 185880, Note_on_c, 1, 79, 76
7, 185880, Control_c, 1, 11, 80
7, 185890, Control_c, 1, 11, 83
7, 185900, Control_c, 1, 11, 85
7, 185910, Control_c, 1, 11, 88
7, 185920, Control_c, 1, 11, 91
7, 185930, Control_c, 1, 11, 93
7, 185940, Control_c, 1, 11, 96
7, 185950, Control_c, 1, 11, 99
7, 185960, Control_c, 1, 11, 101
7, 185970, Control_c, 1, 11, 104
7, 185980, Control_c, 1, 11, 107
7, 185990, Control_c, 1, 11, 109
7, 186000, Control_c, 1, 11, 112
7, 186010, Control_c, 1, 11, 109
7, 186020, Control_c, 1, 11, 107
7, 186030, Control_c, 1, 11, 104
7, 186040, Control_c, 1, 11, 101
7, 186050, Control_c, 1, 11, 99
7, 186060, Control_c, 1, 11, 96
7, 186070, Control_c, 1, 11, 93
7, 186080, Control_c, 1, 11, 91
7, 186090, Control_c, 1, 11, 88
7, 186100, Control_c, 1, 11, 85
7, 186110, Control_c, 1, 11, 80
7, 186119, Note_on_c, 1, 79, 0
7, 186120, Note_on_c, 1, 77, 76
7, 186239, Note_on_c, 1, 77, 0
7, 187920, Note_on_c, 1, 75, 68
7, 187979, Note_on_c, 1, 75, 0
7, 187980, Note_on_c, 1, 74, 68
7, 188035, Note_on_c, 1, 74, 0
7, 188040, Note_on_c, 1, 75, 68
7, 188091, Note_on_c, 1, 75, 0
7, 188100, Note_on_c, 1, 77, 68
7, 188151, Note_on_c, 1, 77, 0
7, 188160, Note_on_c, 1, 79, 68
7, 188211, Note_on_c, 1, 79, 0
7, 188220, Note_on_c, 1, 80, 68
7, 188271, Note_on_c, 1, 80, 0
7, 188280, Control_c, 1, 11, 96
7, 188280, Note_on_c, 1, 82, 68
7, 188300, Control_c, 1, 11, 97
7, 188320, Control_c, 1, 11, 99
7, 188340, Control_c, 1, 11, 100
7, 188360, Control_c, 1, 11, 101
7, 188380, Control_c, 1, 11, 102
7, 188400, Control_c, 1, 11, 104
7, 188420, Control_c, 1, 11, 105
7, 188440, Control_c, 1, 11, 106
7, 188460, Control_c, 1, 11, 108
7, 188480, Control_c, 1, 11, 109
7, 188500, Control_c, 1, 11, 110
7, 188511, Note_on_c, 1, 82, 0
7, 188520, Control_c, 1, 11, 112
7, 188520, Note_on_c, 1, 82, 68
7, 188540, Control_c, 1, 11, 113
7, 188560, Control_c, 1, 11, 114
7, 188580, Control_c, 1, 11, 115
7, 188600, Control_c, 1, 11, 117
7, 188620, Control_c, 1, 11, 118
7, 188640, Control_c, 1, 11, 119
7, 188660, Control_c, 1, 11, 121
7, 188680, Control_c, 1, 11, 122
7, 188700, Control_c, 1, 11, 123
7, 188720, Control_c, 1, 11, 124
7, 188740, Control_c, 1, 11, 127
7, 188751, Note_on_c, 1, 82, 0
7, 188760, Note_on_c, 1, 82, 76
7, 188790, Control_c, 1, 11, 112
7, 188809, Control_c, 1, 11, 111
7, 188828, Control_c, 1, 11, 109
7, 188846, Control_c, 1, 11, 108
7, 188865, Control_c, 1, 11, 107
7, 188884, Control_c, 1, 11, 105
7, 188903, Control_c, 1, 11, 104
7, 188921, Control_c, 1, 11, 103
7, 188940, Control_c, 1, 11, 101
7, 188959, Control_c, 1, 11, 100
7, 188978, Control_c, 1, 11, 99
7, 188996, Control_c, 1, 11, 97
7, 189015, Control_c, 1, 11, 96
7, 189034, Control_c, 1, 11, 95
7, 189053, Control_c, 1, 11, 93
7, 189071, Control_c, 1, 11, 92
7, 189090, Control_c, 1, 11, 91
7, 189109, Control_c, 1, 11, 89
7, 189111, Note_on_c, 1, 82, 0
7, 189120, Note_on_c, 1, 82, 76
7, 189128, Control_c, 1, 11, 88
7, 189146, Control_c, 1, 11, 87
7, 189165, Control_c, 1, 11, 85
7, 189184, Control_c, 1, 11, 84
7, 189203, Control_c, 1, 11, 83
7, 189221, Control_c, 1, 11, 80
7, 189239, Note_on_c, 1, 82, 0
7, 189240, Note_on_c, 1, 80, 76
7, 189351, Note_on_c, 1, 80, 0
7, 189360, Note_on_c, 1, 80, 76
7, 189479, Note_on_c, 1, 80, 0
7, 189480, Note_on_c, 1, 79, 76
7, 189591, Note_on_c, 1, 79, 0
7, 189600, Note_on_c, 1, 79, 76
7, 189720, Control_c, 1, 11, 80
7, 189730, Control_c, 1, 11, 83
7, 189740, Control_c, 1, 11, 85
7, 189750, Control_c, 1, 11, 88
7, 189760, Control_c, 1, 11, 91
7, 189770, Control_c, 1, 11, 93
7, 189780, Control_c, 1, 11, 96
7, 189790, Control_c, 1, 11, 99
7, 189800, Control_c, 1, 11, 101
7, 189810, Control_c, 1, 11, 104
7, 189820, Control_c, 1, 11, 107
7, 189830, Control_c, 1, 11, 109
7, 189840, Control_c, 1, 11, 112
7, 189850, Control_c, 1, 11, 109
7, 189860, Control_c, 1, 11, 107
7, 189870, Control_c, 1, 11, 104
7, 189880, Control_c, 1, 11, 101
7, 189890, Control_c, 1, 11, 99
7, 189900, Control_c, 1, 11, 96
7, 189910, Control_c, 1, 11, 93
7, 189920, Control_c, 1, 11, 91
7, 189930, Control_c, 1, 11, 88
7, 189940, Control_c, 1, 11, 85
7, 189950, Control_c, 1, 11, 80
7, 189959, Note_on_c, 1, 79, 0
7, 189960, Note_on_c, 1, 77, 76
7, 190079, Note_on_c, 1, 77, 0
7, 190132, Control_c, 1, 11, 96
7, 190140, Note_on_c, 1, 70, 68
7, 190184, Note_on_c, 1, 70, 0
7, 190200, Note_on_c, 1, 70, 68
7, 190259, Note_on_c, 1, 70, 0
7, 190260, Note_on_c, 1, 80, 68
7, 190319, Note_on_c, 1, 80, 0
7, 190380, Note_on_c, 1, 79, 68
7, 190424, Note_on_c, 1, 79, 0
7, 190440, Note_on_c, 1, 79, 68
7, 190499, Note_on_c, 1, 79, 0
7, 190500, Note_on_c, 1, 77, 68
7, 190559, Note_on_c, 1, 77, 0
7, 190620, Note_on_c, 1, 75, 68
7, 190664, Note_on_c, 1, 75, 0
7, 190680, Note_on_c, 1, 75, 68
7, 190799, Note_on_c, 1, 75, 0
7, 190800, Note_on_c, 1, 74, 68
7, 190851, Note_on_c, 1, 74, 0
7, 190860, Note_on_c, 1, 75, 68
7, 190904, Note_on_c, 1, 75, 0
7, 190920, Note_on_c, 1, 77, 68
7, 190964, Note_on_c, 1, 77, 0
7, 190980, Note_on_c, 1, 79, 68
7, 191024, Note_on_c, 1, 79, 0
7, 191040, Note_on_c, 1, 80, 68
7, 191084, Note_on_c, 1, 80, 0
7, 191100, Note_on_c, 1, 82, 68
7, 191144, Note_on_c, 1, 82, 0
7, 191160, Note_on_c, 1, 83, 68
7, 191219, Note_on_c, 1, 83, 0
7, 191220, Note_on_c, 1, 84, 68
7, 191279, Note_on_c, 1, 84, 0
7, 191340, Note_on_c, 1, 82, 68
7, 191384, Note_on_c, 1, 82, 0
7, 191400, Note_on_c, 1, 82, 68
7, 191459, Note_on_c, 1, 82, 0
7, 191460, Note_on_c, 1, 80, 68
7, 191519, Note_on_c, 1, 80, 0
7, 191580, Note_on_c, 1, 79, 68
7, 191624, Note_on_c, 1, 79, 0
7, 191640, Note_on_c, 1, 79, 68
7, 191759, Note_on_c, 1, 79, 0
7, 191760, Note_on_c, 1, 77, 68
7, 191811, Note_on_c, 1, 77, 0
7, 191820, Note_on_c, 1, 76, 68
7, 191864, Note_on_c, 1, 76, 0
7, 191880, Note_on_c, 1, 77, 68
7, 191924, Note_on_c, 1, 77, 0
7, 191940, Note_on_c, 1, 78, 68
7, 191984, Note_on_c, 1, 78, 0
7, 192000, Note_on_c, 1, 79, 68
7, 192044, Note_on_c, 1, 79, 0
7, 192060, Note_on_c, 1, 80, 68
7, 192104, Note_on_c, 1, 80, 0
7, 192120, Control_c, 1, 11, 96
7, 192120, Note_on_c, 1, 81, 68
7, 192151, Control_c, 1, 11, 97
7, 192182, Control_c, 1, 11, 98
7, 192213, Control_c, 1, 11, 99
7, 192244, Control_c, 1, 11, 100
7, 192275, Control_c, 1, 11, 101
7, 192306, Control_c, 1, 11, 102
7, 192337, Control_c, 1, 11, 103
7, 192359, Note_on_c, 1, 81, 0
7, 192360, Note_on_c, 1, 82, 68
7, 192368, Control_c, 1, 11, 104
7, 192399, Control_c, 1, 11, 105
7, 192430, Control_c, 1, 11, 106
7, 192461, Control_c, 1, 11, 107
7, 192479, Note_on_c, 1, 82, 0
7, 192492, Control_c, 1, 11, 108
7, 192523, Control_c, 1, 11, 109
7, 192540, Note_on_c, 1, 82, 68
7, 192554, Control_c, 1, 11, 110
7, 192585, Control_c, 1, 11, 111
7, 192595, Note_on_c, 1, 82, 0
7, 192600, Note_on_c, 1, 83, 68
7, 192615, Control_c, 1, 11, 112
7, 192646, Control_c, 1, 11, 113
7, 192677, Control_c, 1, 11, 114
7, 192708, Control_c, 1, 11, 115
7, 192739, Control_c, 1, 11, 116
7, 192770, Control_c, 1, 11, 117
7, 192801, Control_c, 1, 11, 118
7, 192832, Control_c, 1, 11, 119
7, 192839, Note_on_c, 1, 83, 0
7, 192840, Note_on_c, 1, 84, 68
7, 192863, Control_c, 1, 11, 120
7, 192894, Control_c, 1, 11, 121
7, 192925, Control_c, 1, 11, 122
7, 192956, Control_c, 1, 11, 123
7, 192959, Note_on_c, 1, 84, 0
7, 192987, Control_c, 1, 11, 124
7, 193018, Control_c, 1, 11, 125
7, 193020, Note_on_c, 1, 84, 68
7, 193075, Note_on_c, 1, 84, 0
7, 193078, Control_c, 1, 11, 96
7, 193080, Control_c, 1, 11, 96
7, 193080, Note_on_c, 1, 79, 68
7, 193080, Note_on_c, 1, 75, 68
7, 193093, Control_c, 1, 11, 98
7, 193107, Control_c, 1, 11, 99
7, 193120, Control_c, 1, 11, 101
7, 193133, Control_c, 1, 11, 103
7, 193147, Control_c, 1, 11, 105
7, 193160, Control_c, 1, 11, 106
7, 193173, Control_c, 1, 11, 108
7, 193187, Control_c, 1, 11, 110
7, 193200, Control_c, 1, 11, 112
7, 193213, Control_c, 1, 11, 113
7, 193227, Control_c, 1, 11, 115
7, 193240, Control_c, 1, 11, 117
7, 193253, Control_c, 1, 11, 118
7, 193267, Control_c, 1, 11, 120
7, 193280, Control_c, 1, 11, 122
7, 193293, Control_c, 1, 11, 124
7, 193307, Control_c, 1, 11, 125
7, 193319, Note_on_c, 1, 79, 0
7, 193319, Note_on_c, 1, 75, 0
7, 193320, Note_on_c, 1, 82, 68
7, 193320, Control_c, 1, 11, 127
7, 193320, Note_on_c, 1, 74, 68
7, 193333, Control_c, 1, 11, 125
7, 193347, Control_c, 1, 11, 124
7, 193360, Control_c, 1, 11, 122
7, 193373, Control_c, 1, 11, 120
7, 193387, Control_c, 1, 11, 118
7, 193400, Control_c, 1, 11, 117
7, 193413, Control_c, 1, 11, 115
7, 193427, Control_c, 1, 11, 113
7, 193440, Control_c, 1, 11, 112
7, 193453, Control_c, 1, 11, 110
7, 193467, Control_c, 1, 11, 108
7, 193480, Control_c, 1, 11, 106
7, 193493, Control_c, 1, 11, 105
7, 193499, Note_on_c, 1, 82, 0
7, 193499, Note_on_c, 1, 74, 0
7, 193500, Note_on_c, 1, 77, 68
7, 193500, Note_on_c, 1, 80, 68
7, 193507, Control_c, 1, 11, 103
7, 193520, Control_c, 1, 11, 101
7, 193533, Control_c, 1, 11, 99
7, 193547, Control_c, 1, 11, 96
7, 193555, Note_on_c, 1, 77, 0
7, 193555, Note_on_c, 1, 80, 0
7, 193560, Note_on_c, 1, 75, 68
7, 193560, Note_on_c, 1, 79, 68
7, 193679, Note_on_c, 1, 75, 0
7, 193679, Note_on_c, 1, 79, 0
7, 193980, Control_c, 1, 11, 127
7, 194040, Note_on_c, 1, 70, 52
7, 194084, Note_on_c, 1, 70, 0
7, 194100, Note_on_c, 1, 80, 60
7, 194204, Note_on_c, 1, 80, 0
7, 194220, Note_on_c, 1, 79, 52
7, 194264, Note_on_c, 1, 79, 0
7, 194280, Note_on_c, 1, 79, 52
7, 194324, Note_on_c, 1, 79, 0
7, 194340, Note_on_c, 1, 77, 60
7, 194444, Note_on_c, 1, 77, 0
7, 194460, Note_on_c, 1, 75, 52
7, 194504, Note_on_c, 1, 75, 0
7, 194520, Note_on_c, 1, 75, 52
7, 194564, Note_on_c, 1, 75, 0
7, 194580, Note_on_c, 1, 74, 60
7, 194684, Note_on_c, 1, 74, 0
7, 194700, Note_on_c, 1, 75, 52
7, 194744, Note_on_c, 1, 75, 0
7, 194760, Note_on_c, 1, 77, 52
7, 194804, Note_on_c, 1, 77, 0
7, 194820, Note_on_c, 1, 79, 52
7, 194864, Note_on_c, 1, 79, 0
7, 194880, Note_on_c, 1, 80, 52
7, 194924, Note_on_c, 1, 80, 0
7, 194940, Note_on_c, 1, 82, 52
7, 194984, Note_on_c, 1, 82, 0
7, 195000, Note_on_c, 1, 83, 52
7, 195044, Note_on_c, 1, 83, 0
7, 195060, Note_on_c, 1, 84, 60
7, 195164, Note_on_c, 1, 84, 0
7, 195180, Note_on_c, 1, 82, 52
7, 195224, Note_on_c, 1, 82, 0
7, 195240, Note_on_c, 1, 82, 52
7, 195284, Note_on_c, 1, 82, 0
7, 195300, Note_on_c, 1, 80, 60
7, 195404, Note_on_c, 1, 80, 0
7, 195420, Note_on_c, 1, 79, 52
7, 195464, Note_on_c, 1, 79, 0
7, 195480, Note_on_c, 1, 79, 52
7, 195524, Note_on_c, 1, 79, 0
7, 195540, Note_on_c, 1, 77, 60
7, 195644, Note_on_c, 1, 77, 0
7, 195660, Note_on_c, 1, 76, 52
7, 195704, Note_on_c, 1, 76, 0
7, 195720, Note_on_c, 1, 77, 52
7, 195764, Note_on_c, 1, 77, 0
7, 195780, Note_on_c, 1, 78, 52
7, 195824, Note_on_c, 1, 78, 0
7, 195840, Note_on_c, 1, 79, 52
7, 195884, Note_on_c, 1, 79, 0
7, 195900, Note_on_c, 1, 80, 52
7, 195944, Note_on_c, 1, 80, 0
7, 195960, Note_on_c, 1, 81, 52
7, 196004, Note_on_c, 1, 81, 0
7, 196020, Note_on_c, 1, 82, 53
7, 196131, Note_on_c, 1, 82, 0
7, 196140, Note_on_c, 1, 82, 55
7, 196184, Note_on_c, 1, 82, 0
7, 196200, Note_on_c, 1, 74, 56
7, 196244, Note_on_c, 1, 74, 0
7, 196260, Note_on_c, 1, 75, 57
7, 196371, Note_on_c, 1, 75, 0
7, 196380, Note_on_c, 1, 75, 59
7, 196424, Note_on_c, 1, 75, 0
7, 196440, Note_on_c, 1, 83, 60
7, 196484, Note_on_c, 1, 83, 0
7, 196500, Note_on_c, 1, 84, 61
7, 196611, Note_on_c, 1, 84, 0
7, 196620, Note_on_c, 1, 84, 63
7, 196664, Note_on_c, 1, 84, 0
7, 196680, Note_on_c, 1, 74, 64
7, 196724, Note_on_c, 1, 74, 0
7, 196740, Note_on_c, 1, 75, 65
7, 196851, Note_on_c, 1, 75, 0
7, 196860, Note_on_c, 1, 75, 67
7, 196904, Note_on_c, 1, 75, 0
7, 196912, Control_c, 1, 11, 96
7, 196920, Note_on_c, 1, 81, 68
7, 196920, Note_on_c, 1, 75, 68
7, 196920, Control_c, 1, 11, 96
7, 196940, Control_c, 1, 11, 99
7, 196960, Control_c, 1, 11, 101
7, 196964, Note_on_c, 1, 81, 0
7, 196980, Note_on_c, 1, 82, 68
7, 196980, Control_c, 1, 11, 104
7, 197000, Control_c, 1, 11, 106
7, 197020, Control_c, 1, 11, 109
7, 197040, Control_c, 1, 11, 112
7, 197060, Control_c, 1, 11, 114
7, 197080, Control_c, 1, 11, 117
7, 197091, Note_on_c, 1, 82, 0
7, 197100, Note_on_c, 1, 82, 68
7, 197100, Control_c, 1, 11, 119
7, 197120, Control_c, 1, 11, 122
7, 197140, Control_c, 1, 11, 124
7, 197144, Note_on_c, 1, 82, 0
7, 197159, Note_on_c, 1, 75, 0
7, 197160, Control_c, 1, 11, 127
7, 197160, Note_on_c, 1, 74, 68
7, 197160, Note_on_c, 1, 81, 68
7, 197180, Control_c, 1, 11, 124
7, 197200, Control_c, 1, 11, 122
7, 197204, Note_on_c, 1, 81, 0
7, 197220, Control_c, 1, 11, 119
7, 197220, Note_on_c, 1, 82, 68
7, 197240, Control_c, 1, 11, 117
7, 197260, Control_c, 1, 11, 114
7, 197280, Control_c, 1, 11, 112
7, 197300, Control_c, 1, 11, 109
7, 197320, Control_c, 1, 11, 106
7, 197331, Note_on_c, 1, 82, 0
7, 197339, Note_on_c, 1, 74, 0
7, 197340, Note_on_c, 1, 77, 68
7, 197340, Control_c, 1, 11, 104
7, 197340, Note_on_c, 1, 82, 68
7, 197360, Control_c, 1, 11, 101
7, 197380, Control_c, 1, 11, 96
7, 197384, Note_on_c, 1, 77, 0
7, 197384, Note_on_c, 1, 82, 0
7, 197400, Note_on_c, 1, 75, 68
7, 197519, Note_on_c, 1, 75, 0
7, 197880, Control_c, 1, 11, 127
7, 198000, Note_on_c, 1, 70, 84
7, 198000, Note_on_c, 1, 82, 84
7, 198089, Note_on_c, 1, 70, 0
7, 198089, Note_on_c, 1, 82, 0
7, 198120, Note_on_c, 1, 70, 92
7, 198120, Note_on_c, 1, 82, 92
7, 198464, Note_on_c, 1, 70, 0
7, 198464, Note_on_c, 1, 82, 0
7, 198480, Note_on_c, 1, 70, 84
7, 198480, Note_on_c, 1, 82, 84
7, 198599, Note_on_c, 1, 70, 0
7, 198599, Note_on_c, 1, 82, 0
7, 198600, Note_on_c, 1, 82, 92
7, 198600, Note_on_c, 1, 70, 92
7, 198944, Note_on_c, 1, 82, 0
7, 198944, Note_on_c, 1, 70, 0
7, 198960, Note_on_c, 1, 70, 84
7, 198960, Note_on_c, 1, 82, 84
7, 199049, Note_on_c, 1, 70, 0
7, 199049, Note_on_c, 1, 82, 0
7, 199080, Note_on_c, 1, 70, 92
7, 199080, Note_on_c, 1, 82, 92
7, 199424, Note_on_c, 1, 70, 0
7, 199424, Note_on_c, 1, 82, 0
7, 199440, Note_on_c, 1, 70, 84
7, 199440, Note_on_c, 1, 82, 84
7, 199529, Note_on_c, 1, 70, 0
7, 199529, Note_on_c, 1, 82, 0
7, 199560, Note_on_c, 1, 82, 92
7, 199560, Note_on_c, 1, 70, 92
7, 199844, Note_on_c, 1, 82, 0
7, 199844, Note_on_c, 1, 70, 0
7, 199860, Note_on_c, 1, 75, 84
7, 199860, Note_on_c, 1, 79, 84
7, 199915, Note_on_c, 1, 75, 0
7, 199915, Note_on_c, 1, 79, 0
7, 199920, Note_on_c, 1, 75, 84
7, 199920, Note_on_c, 1, 79, 84
7, 199975, Note_on_c, 1, 75, 0
7, 199975, Note_on_c, 1, 79, 0
7, 199980, Note_on_c, 1, 75, 84
7, 199980, Note_on_c, 1, 79, 84
7, 200039, Note_on_c, 1, 75, 0
7, 200039, Note_on_c, 1, 79, 0
7, 200100, Note_on_c, 1, 74, 84
7, 200100, Note_on_c, 1, 80, 84
7, 200155, Note_on_c, 1, 74, 0
7, 200155, Note_on_c, 1, 80, 0
7, 200160, Note_on_c, 1, 80, 84
7, 200160, Note_on_c, 1, 74, 84
7, 200215, Note_on_c, 1, 80, 0
7, 200215, Note_on_c, 1, 74, 0
7, 200220, Note_on_c, 1, 80, 84
7, 200220, Note_on_c, 1, 74, 84
7, 200279, Note_on_c, 1, 80, 0
7, 200279, Note_on_c, 1, 74, 0
7, 200340, Note_on_c, 1, 75, 92
7, 200340, Note_on_c, 1, 79, 92
7, 200395, Note_on_c, 1, 75, 0
7, 200395, Note_on_c, 1, 79, 0
7, 200400, Note_on_c, 1, 75, 84
7, 200400, Note_on_c, 1, 79, 84
7, 200455, Note_on_c, 1, 75, 0
7, 200455, Note_on_c, 1, 79, 0
7, 200460, Note_on_c, 1, 75, 84
7, 200460, Note_on_c, 1, 79, 84
7, 200515, Note_on_c, 1, 75, 0
7, 200515, Note_on_c, 1, 79, 0
7, 200520, Note_on_c, 1, 75, 84
7, 200520, Note_on_c, 1, 79, 84
7, 200575, Note_on_c, 1, 75, 0
7, 200575, Note_on_c, 1, 79, 0
7, 200580, Note_on_c, 1, 75, 84
7, 200635, Note_on_c, 1, 75, 0
7, 200640, Note_on_c, 1, 76, 84
7, 200695, Note_on_c, 1, 76, 0
7, 200700, Note_on_c, 1, 76, 84
7, 200755, Note_on_c, 1, 76, 0
7, 200760, Note_on_c, 1, 77, 84
7, 200815, Note_on_c, 1, 77, 0
7, 200820, Note_on_c, 1, 77, 84
7, 200875, Note_on_c, 1, 77, 0
7, 200880, Note_on_c, 1, 74, 84
7, 200935, Note_on_c, 1, 74, 0
7, 200940, Note_on_c, 1, 74, 84
7, 200995, Note_on_c, 1, 74, 0
7, 201000, Note_on_c, 1, 75, 84
7, 201055, Note_on_c, 1, 75, 0
7, 201060, Note_on_c, 1, 75, 84
7, 201115, Note_on_c, 1, 75, 0
7, 201120, Note_on_c, 1, 78, 84
7, 201120, Note_on_c, 1, 69, 84
7, 201175, Note_on_c, 1, 78, 0
7, 201175, Note_on_c, 1, 69, 0
7, 201180, Note_on_c, 1, 69, 84
7, 201180, Note_on_c, 1, 78, 84
7, 201235, Note_on_c, 1, 69, 0
7, 201235, Note_on_c, 1, 78, 0
7, 201240, Note_on_c, 1, 70, 84
7, 201240, Note_on_c, 1, 75, 84
7, 201295, Note_on_c, 1, 70, 0
7, 201295, Note_on_c, 1, 75, 0
7, 201300, Note_on_c, 1, 75, 84
7, 201300, Note_on_c, 1, 82, 84
7, 201355, Note_on_c, 1, 75, 0
7, 201355, Note_on_c, 1, 82, 0
7, 201360, Note_on_c, 1, 82, 84
7, 201360, Note_on_c, 1, 75, 84
7, 201415, Note_on_c, 1, 82, 0
7, 201415, Note_on_c, 1, 75, 0
7, 201420, Note_on_c, 1, 75, 84
7, 201420, Note_on_c, 1, 82, 84
7, 201475, Note_on_c, 1, 75, 0
7, 201475, Note_on_c, 1, 82, 0
7, 201480, Note_on_c, 1, 74, 84
7, 201480, Note_on_c, 1, 82, 84
7, 201599, Note_on_c, 1, 74, 0
7, 201599, Note_on_c, 1, 82, 0
7, 201840, Note_on_c, 1, 70, 84
7, 201840, Note_on_c, 1, 82, 84
7, 201929, Note_on_c, 1, 70, 0
7, 201929, Note_on_c, 1, 82, 0
7, 201960, Note_on_c, 1, 70, 92
7, 201960, Note_on_c, 1, 82, 92
7, 202304, Note_on_c, 1, 70, 0
7, 202304, Note_on_c, 1, 82, 0
7, 202320, Note_on_c, 1, 82, 84
7, 202320, Note_on_c, 1, 70, 84
7, 202409, Note_on_c, 1, 82, 0
7, 202409, Note_on_c, 1, 70, 0
7, 202440, Note_on_c, 1, 82, 92
7, 202440, Note_on_c, 1, 70, 92
7, 202784, Note_on_c, 1, 82, 0
7, 202784, Note_on_c, 1, 70, 0
7, 202800, Note_on_c, 1, 70, 84
7, 202800, Note_on_c, 1, 82, 84
7, 202911, Note_on_c, 1, 70, 0
7, 202911, Note_on_c, 1, 82, 0
7, 202920, Note_on_c, 1, 70, 84
7, 202920, Note_on_c, 1, 82, 84
7, 203031, Note_on_c, 1, 70, 0
7, 203031, Note_on_c, 1, 82, 0
7, 203040, Note_on_c, 1, 70, 84
7, 203040, Note_on_c, 1, 82, 84
7, 203151, Note_on_c, 1, 70, 0
7, 203151, Note_on_c, 1, 82, 0
7, 203160, Note_on_c, 1, 70, 84
7, 203160, Note_on_c, 1, 82, 84
7, 203271, Note_on_c, 1, 70, 0
7, 203271, Note_on_c, 1, 82, 0
7, 203280, Note_on_c, 1, 82, 84
7, 203280, Note_on_c, 1, 70, 84
7, 203391, Note_on_c, 1, 82, 0
7, 203391, Note_on_c, 1, 70, 0
7, 203400, Note_on_c, 1, 82, 84
7, 203400, Note_on_c, 1, 70, 84
7, 203751, Note_on_c, 1, 82, 0
7, 203751, Note_on_c, 1, 70, 0
7, 203760, Note_on_c, 1, 75, 84
7, 203760, Note_on_c, 1, 79, 84
7, 203871, Note_on_c, 1, 75, 0
7, 203871, Note_on_c, 1, 79, 0
7, 203880, Note_on_c, 1, 75, 92
7, 203880, Note_on_c, 1, 79, 92
7, 204119, Note_on_c, 1, 79, 0
7, 204120, Note_on_c, 1, 80, 84
7, 204224, Note_on_c, 1, 75, 0
7, 204224, Note_on_c, 1, 80, 0
7, 204240, Note_on_c, 1, 80, 84
7, 204240, Note_on_c, 1, 75, 84
7, 204351, Note_on_c, 1, 80, 0
7, 204351, Note_on_c, 1, 75, 0
7, 204360, Note_on_c, 1, 80, 92
7, 204360, Note_on_c, 1, 75, 92
7, 204471, Note_on_c, 1, 80, 0
7, 204480, Note_on_c, 1, 77, 84
7, 204599, Note_on_c, 1, 75, 0
7, 204599, Note_on_c, 1, 77, 0
7, 204600, Note_on_c, 1, 75, 84
7, 204600, Note_on_c, 1, 79, 84
7, 204655, Note_on_c, 1, 75, 0
7, 204655, Note_on_c, 1, 79, 0
7, 204660, Note_on_c, 1, 75, 84
7, 204660, Note_on_c, 1, 79, 84
7, 204715, Note_on_c, 1, 75, 0
7, 204715, Note_on_c, 1, 79, 0
7, 204720, Note_on_c, 1, 79, 84
7, 204720, Note_on_c, 1, 75, 84
7, 204775, Note_on_c, 1, 79, 0
7, 204775, Note_on_c, 1, 75, 0
7, 204780, Note_on_c, 1, 75, 84
7, 204780, Note_on_c, 1, 79, 84
7, 204839, Note_on_c, 1, 75, 0
7, 204839, Note_on_c, 1, 79, 0
7, 204900, Note_on_c, 1, 74, 84
7, 204900, Note_on_c, 1, 80, 84
7, 204955, Note_on_c, 1, 74, 0
7, 204955, Note_on_c, 1, 80, 0
7, 204960, Note_on_c, 1, 74, 84
7, 204960, Note_on_c, 1, 80, 84
7, 205015, Note_on_c, 1, 74, 0
7, 205015, Note_on_c, 1, 80, 0
7, 205020, Note_on_c, 1, 74, 84
7, 205020, Note_on_c, 1, 80, 84
7, 205075, Note_on_c, 1, 74, 0
7, 205075, Note_on_c, 1, 80, 0
7, 205080, Note_on_c, 1, 79, 84
7, 205080, Note_on_c, 1, 75, 84
7, 205199, Note_on_c, 1, 79, 0
7, 205199, Note_on_c, 1, 75, 0
7, 205260, Control_c, 1, 11, 96
7, 205320, Note_on_c, 1, 70, 68
7, 205559, Note_on_c, 1, 70, 0
7, 205560, Note_on_c, 1, 75, 68
7, 205799, Note_on_c, 1, 75, 0
7, 205800, Note_on_c, 1, 79, 68
7, 206031, Note_on_c, 1, 79, 0
7, 206040, Control_c, 1, 11, 96
7, 206040, Note_on_c, 1, 80, 68
7, 206080, Control_c, 1, 11, 97
7, 206120, Control_c, 1, 11, 99
7, 206160, Control_c, 1, 11, 100
7, 206200, Control_c, 1, 11, 101
7, 206240, Control_c, 1, 11, 102
7, 206280, Control_c, 1, 11, 104
7, 206320, Control_c, 1, 11, 105
7, 206360, Control_c, 1, 11, 106
7, 206400, Control_c, 1, 11, 108
7, 206440, Control_c, 1, 11, 109
7, 206480, Control_c, 1, 11, 110
7, 206520, Control_c, 1, 11, 112
7, 206560, Control_c, 1, 11, 113
7, 206600, Control_c, 1, 11, 114
7, 206640, Control_c, 1, 11, 115
7, 206680, Control_c, 1, 11, 117
7, 206720, Control_c, 1, 11, 118
7, 206760, Control_c, 1, 11, 119
7, 206800, Control_c, 1, 11, 121
7, 206840, Control_c, 1, 11, 122
7, 206880, Control_c, 1, 11, 123
7, 206920, Control_c, 1, 11, 124
7, 206960, Control_c, 1, 11, 127
7, 206991, Note_on_c, 1, 80, 0
7, 207000, Note_on_c, 1, 79, 52
7, 207055, Note_on_c, 1, 79, 0
7, 207060, Note_on_c, 1, 67, 52
7, 207115, Note_on_c, 1, 67, 0
7, 207120, Note_on_c, 1, 67, 52
7, 207175, Note_on_c, 1, 67, 0
7, 207180, Note_on_c, 1, 67, 52
7, 207235, Note_on_c, 1, 67, 0
7, 207240, Note_on_c, 1, 67, 52
7, 207299, Note_on_c, 1, 67, 0
7, 207300, Note_on_c, 1, 70, 52
7, 207355, Note_on_c, 1, 70, 0
7, 207360, Note_on_c, 1, 70, 52
7, 207404, Note_on_c, 1, 70, 0
7, 207420, Note_on_c, 1, 70, 52
7, 207464, Note_on_c, 1, 70, 0
7, 207480, Note_on_c, 1, 70, 52
7, 207539, Note_on_c, 1, 70, 0
7, 207540, Note_on_c, 1, 75, 52
7, 207595, Note_on_c, 1, 75, 0
7, 207600, Note_on_c, 1, 75, 52
7, 207644, Note_on_c, 1, 75, 0
7, 207660, Note_on_c, 1, 75, 52
7, 207704, Note_on_c, 1, 75, 0
7, 207720, Note_on_c, 1, 75, 52
7, 207779, Note_on_c, 1, 75, 0
7, 207780, Note_on_c, 1, 79, 52
7, 207835, Note_on_c, 1, 79, 0
7, 207840, Note_on_c, 1, 79, 52
7, 207884, Note_on_c, 1, 79, 0
7, 207900, Note_on_c, 1, 79, 52
7, 207944, Note_on_c, 1, 79, 0
7, 207952, Control_c, 1, 11, 96
7, 207960, Note_on_c, 1, 80, 68
7, 207960, Control_c, 1, 11, 96
7, 208000, Control_c, 1, 11, 97
7, 208040, Control_c, 1, 11, 99
7, 208080, Control_c, 1, 11, 100
7, 208120, Control_c, 1, 11, 101
7, 208160, Control_c, 1, 11, 102
7, 208200, Control_c, 1, 11, 104
7, 208240, Control_c, 1, 11, 105
7, 208280, Control_c, 1, 11, 106
7, 208320, Control_c, 1, 11, 108
7, 208360, Control_c, 1, 11, 109
7, 208400, Control_c, 1, 11, 110
7, 208439, Note_on_c, 1, 80, 0
7, 208440, Note_on_c, 1, 82, 68
7, 208440, Control_c, 1, 11, 112
7, 208480, Control_c, 1, 11, 113
7, 208520, Control_c, 1, 11, 114
7, 208560, Control_c, 1, 11, 115
7, 208600, Control_c, 1, 11, 117
7, 208640, Control_c, 1, 11, 118
7, 208680, Control_c, 1, 11, 119
7, 208720, Control_c, 1, 11, 121
7, 208760, Control_c, 1, 11, 122
7, 208800, Control_c, 1, 11, 123
7, 208840, Control_c, 1, 11, 124
7, 208880, Control_c, 1, 11, 127
7, 208919, Note_on_c, 1, 82, 0
7, 208920, Note_on_c, 1, 80, 52
7, 209039, Note_on_c, 1, 80, 0
7, 212280, Control_c, 1, 11, 112
7, 212760, Note_on_c, 1, 75, 76
7, 212760, Note_on_c, 1, 63, 76
7, 212760, Control_c, 1, 11, 112
7, 212824, Control_c, 1, 11, 113
7, 212888, Control_c, 1, 11, 114
7, 212939, Note_on_c, 1, 75, 0
7, 212939, Note_on_c, 1, 63, 0
7, 212952, Control_c, 1, 11, 115
7, 213000, Note_on_c, 1, 75, 76
7, 213000, Note_on_c, 1, 63, 76
7, 213016, Control_c, 1, 11, 116
7, 213080, Control_c, 1, 11, 117
7, 213144, Control_c, 1, 11, 118
7, 213179, Note_on_c, 1, 75, 0
7, 213179, Note_on_c, 1, 63, 0
7, 213208, Control_c, 1, 11, 119
7, 213240, Note_on_c, 1, 63, 76
7, 213240, Note_on_c, 1, 75, 76
7, 213272, Control_c, 1, 11, 120
7, 213336, Control_c, 1, 11, 121
7, 213400, Control_c, 1, 11, 122
7, 213464, Control_c, 1, 11, 123
7, 213528, Control_c, 1, 11, 124
7, 213592, Control_c, 1, 11, 125
7, 213656, Control_c, 1, 11, 127
7, 213711, Note_on_c, 1, 63, 0
7, 213711, Note_on_c, 1, 75, 0
7, 213720, Note_on_c, 1, 78, 76
7, 213720, Note_on_c, 1, 75, 76
7, 213899, Note_on_c, 1, 78, 0
7, 213899, Note_on_c, 1, 75, 0
7, 213960, Note_on_c, 1, 78, 76
7, 213960, Note_on_c, 1, 75, 76
7, 214139, Note_on_c, 1, 78, 0
7, 214139, Note_on_c, 1, 75, 0
7, 214200, Note_on_c, 1, 78, 76
7, 214200, Note_on_c, 1, 75, 76
7, 214671, Note_on_c, 1, 78, 0
7, 214671, Note_on_c, 1, 75, 0
7, 214680, Note_on_c, 1, 81, 76
7, 214680, Note_on_c, 1, 78, 76
7, 214859, Note_on_c, 1, 81, 0
7, 214859, Note_on_c, 1, 78, 0
7, 214920, Note_on_c, 1, 81, 78
7, 214920, Note_on_c, 1, 78, 78
7, 215099, Note_on_c, 1, 81, 0
7, 215099, Note_on_c, 1, 78, 0
7, 215160, Note_on_c, 1, 81, 80
7, 215160, Note_on_c, 1, 78, 80
7, 215631, Note_on_c, 1, 81, 0
7, 215631, Note_on_c, 1, 78, 0
7, 215640, Note_on_c, 1, 79, 84
7, 215640, Note_on_c, 1, 74, 84
7, 216111, Note_on_c, 1, 79, 0
7, 216111, Note_on_c, 1, 74, 0
7, 216120, Note_on_c, 1, 79, 84
7, 216120, Note_on_c, 1, 74, 84
7, 216351, Note_on_c, 1, 79, 0
7, 216351, Note_on_c, 1, 74, 0
7, 216360, Note_on_c, 1, 78, 84
7, 216360, Note_on_c, 1, 74, 84
7, 216591, Note_on_c, 1, 78, 0
7, 216591, Note_on_c, 1, 74, 0
7, 216600, Note_on_c, 1, 79, 84
7, 216600, Note_on_c, 1, 74, 84
7, 216719, Note_on_c, 1, 79, 0
7, 216719, Note_on_c, 1, 74, 0
7, 221880, Note_on_c, 1, 79, 84
7, 222415, Note_on_c, 1, 79, 0
7, 222420, Note_on_c, 1, 77, 84
7, 222475, Note_on_c, 1, 77, 0
7, 222480, Note_on_c, 1, 75, 84
7, 222535, Note_on_c, 1, 75, 0
7, 222540, Note_on_c, 1, 74, 84
7, 222595, Note_on_c, 1, 74, 0
7, 222600, Note_on_c, 1, 75, 84
7, 222655, Note_on_c, 1, 75, 0
7, 222660, Note_on_c, 1, 74, 84
7, 222715, Note_on_c, 1, 74, 0
7, 222720, Note_on_c, 1, 72, 84
7, 222775, Note_on_c, 1, 72, 0
7, 222780, Note_on_c, 1, 70, 84
7, 222835, Note_on_c, 1, 70, 0
7, 222840, Note_on_c, 1, 72, 84
7, 222895, Note_on_c, 1, 72, 0
7, 222900, Note_on_c, 1, 82, 84
7, 222955, Note_on_c, 1, 82, 0
7, 222960, Note_on_c, 1, 81, 84
7, 223015, Note_on_c, 1, 81, 0
7, 223020, Note_on_c, 1, 79, 84
7, 223075, Note_on_c, 1, 79, 0
7, 223080, Note_on_c, 1, 80, 84
7, 223135, Note_on_c, 1, 80, 0
7, 223140, Note_on_c, 1, 79, 84
7, 223195, Note_on_c, 1, 79, 0
7, 223200, Note_on_c, 1, 77, 84
7, 223255, Note_on_c, 1, 77, 0
7, 223260, Note_on_c, 1, 75, 84
7, 223315, Note_on_c, 1, 75, 0
7, 223320, Note_on_c, 1, 74, 84
7, 223375, Note_on_c, 1, 74, 0
7, 223380, Note_on_c, 1, 75, 84
7, 223435, Note_on_c, 1, 75, 0
7, 223440, Note_on_c, 1, 77, 84
7, 223495, Note_on_c, 1, 77, 0
7, 223500, Note_on_c, 1, 75, 84
7, 223555, Note_on_c, 1, 75, 0
7, 223560, Note_on_c, 1, 74, 84
7, 223615, Note_on_c, 1, 74, 0
7, 223620, Note_on_c, 1, 70, 84
7, 223675, Note_on_c, 1, 70, 0
7, 223680, Note_on_c, 1, 72, 84
7, 223735, Note_on_c, 1, 72, 0
7, 223740, Note_on_c, 1, 74, 84
7, 223795, Note_on_c, 1, 74, 0
7, 223800, Note_on_c, 1, 75, 84
7, 223919, Note_on_c, 1, 75, 0
7, 225900, Note_on_c, 1, 82, 84
7, 225900, Note_on_c, 1, 79, 84
7, 225955, Note_on_c, 1, 82, 0
7, 225955, Note_on_c, 1, 79, 0
7, 225960, Note_on_c, 1, 82, 92
7, 225960, Note_on_c, 1, 79, 92
7, 226131, Note_on_c, 1, 82, 0
7, 226131, Note_on_c, 1, 79, 0
7, 226140, Note_on_c, 1, 82, 84
7, 226140, Note_on_c, 1, 79, 84
7, 226195, Note_on_c, 1, 82, 0
7, 226195, Note_on_c, 1, 79, 0
7, 226200, Note_on_c, 1, 82, 84
7, 226200, Note_on_c, 1, 80, 84
7, 226319, Note_on_c, 1, 82, 0
7, 226319, Note_on_c, 1, 80, 0
7, 226380, Note_on_c, 1, 82, 84
7, 226380, Note_on_c, 1, 80, 84
7, 226435, Note_on_c, 1, 82, 0
7, 226435, Note_on_c, 1, 80, 0
7, 226440, Note_on_c, 1, 82, 92
7, 226440, Note_on_c, 1, 80, 92
7, 226611, Note_on_c, 1, 82, 0
7, 226611, Note_on_c, 1, 80, 0
7, 226620, Note_on_c, 1, 82, 84
7, 226620, Note_on_c, 1, 80, 84
7, 226675, Note_on_c, 1, 82, 0
7, 226675, Note_on_c, 1, 80, 0
7, 226680, Note_on_c, 1, 82, 84
7, 226680, Note_on_c, 1, 79, 84
7, 226735, Note_on_c, 1, 82, 0
7, 226735, Note_on_c, 1, 79, 0
7, 226740, Note_on_c, 1, 82, 84
7, 226740, Note_on_c, 1, 79, 84
7, 226795, Note_on_c, 1, 82, 0
7, 226795, Note_on_c, 1, 79, 0
7, 226800, Note_on_c, 1, 82, 84
7, 226800, Note_on_c, 1, 79, 84
7, 226855, Note_on_c, 1, 82, 0
7, 226855, Note_on_c, 1, 79, 0
7, 226860, Note_on_c, 1, 82, 84
7, 226860, Note_on_c, 1, 79, 84
7, 226915, Note_on_c, 1, 82, 0
7, 226915, Note_on_c, 1, 79, 0
7, 226920, Note_on_c, 1, 82, 92
7, 226920, Note_on_c, 1, 75, 92
7, 227099, Note_on_c, 1, 82, 0
7, 227099, Note_on_c, 1, 75, 0
7, 227100, Note_on_c, 1, 82, 84
7, 227100, Note_on_c, 1, 79, 84
7, 227155, Note_on_c, 1, 82, 0
7, 227155, Note_on_c, 1, 79, 0
7, 227160, Note_on_c, 1, 82, 84
7, 227160, Note_on_c, 1, 80, 84
7, 227215, Note_on_c, 1, 82, 0
7, 227215, Note_on_c, 1, 80, 0
7, 227220, Note_on_c, 1, 82, 84
7, 227220, Note_on_c, 1, 77, 84
7, 227275, Note_on_c, 1, 82, 0
7, 227275, Note_on_c, 1, 77, 0
7, 227280, Note_on_c, 1, 82, 84
7, 227280, Note_on_c, 1, 77, 84
7, 227335, Note_on_c, 1, 82, 0
7, 227335, Note_on_c, 1, 77, 0
7, 227340, Note_on_c, 1, 82, 84
7, 227340, Note_on_c, 1, 77, 84
7, 227395, Note_on_c, 1, 82, 0
7, 227395, Note_on_c, 1, 77, 0
7, 227400, Note_on_c, 1, 82, 92
7, 227400, Note_on_c, 1, 74, 92
7, 227579, Note_on_c, 1, 82, 0
7, 227579, Note_on_c, 1, 74, 0
7, 227580, Note_on_c, 1, 82, 84
7, 227580, Note_on_c, 1, 77, 84
7, 227635, Note_on_c, 1, 82, 0
7, 227635, Note_on_c, 1, 77, 0
7, 227640, Note_on_c, 1, 82, 84
7, 227640, Note_on_c, 1, 79, 84
7, 227684, Note_on_c, 1, 82, 0
7, 227684, Note_on_c, 1, 79, 0
7, 227700, Note_on_c, 1, 82, 84
7, 227700, Note_on_c, 1, 79, 84
7, 227744, Note_on_c, 1, 82, 0
7, 227744, Note_on_c, 1, 79, 0
7, 227760, Note_on_c, 1, 82, 84
7, 227760, Note_on_c, 1, 79, 84
7, 227804, Note_on_c, 1, 82, 0
7, 227804, Note_on_c, 1, 79, 0
7, 227820, Note_on_c, 1, 82, 84
7, 227820, Note_on_c, 1, 79, 84
7, 227864, Note_on_c, 1, 82, 0
7, 227864, Note_on_c, 1, 79, 0
7, 227880, Note_on_c, 1, 82, 92
7, 227880, Note_on_c, 1, 75, 92
7, 227935, Note_on_c, 1, 82, 0
7, 227939, Note_on_c, 1, 75, 0
7, 227940, Note_on_c, 1, 82, 84
7, 227940, Note_on_c, 1, 79, 84
7, 227995, Note_on_c, 1, 82, 0
7, 227995, Note_on_c, 1, 79, 0
7, 228000, Note_on_c, 1, 82, 84
7, 228000, Note_on_c, 1, 79, 84
7, 228044, Note_on_c, 1, 79, 0
7, 228055, Note_on_c, 1, 82, 0
7, 228060, Note_on_c, 1, 82, 84
7, 228060, Note_on_c, 1, 79, 84
7, 228104, Note_on_c, 1, 79, 0
7, 228115, Note_on_c, 1, 82, 0
7, 228120, Note_on_c, 1, 80, 84
7, 228120, Note_on_c, 1, 82, 84
7, 228164, Note_on_c, 1, 80, 0
7, 228175, Note_on_c, 1, 82, 0
7, 228180, Note_on_c, 1, 77, 84
7, 228180, Note_on_c, 1, 82, 84
7, 228224, Note_on_c, 1, 77, 0
7, 228235, Note_on_c, 1, 82, 0
7, 228240, Note_on_c, 1, 77, 84
7, 228240, Note_on_c, 1, 82, 84
7, 228284, Note_on_c, 1, 77, 0
7, 228295, Note_on_c, 1, 82, 0
7, 228300, Note_on_c, 1, 77, 84
7, 228300, Note_on_c, 1, 82, 84
7, 228344, Note_on_c, 1, 77, 0
7, 228355, Note_on_c, 1, 82, 0
7, 228360, Note_on_c, 1, 82, 92
7, 228360, Note_on_c, 1, 74, 92
7, 228415, Note_on_c, 1, 82, 0
7, 228419, Note_on_c, 1, 74, 0
7, 228420, Note_on_c, 1, 82, 84
7, 228420, Note_on_c, 1, 77, 84
7, 228475, Note_on_c, 1, 82, 0
7, 228475, Note_on_c, 1, 77, 0
7, 228480, Note_on_c, 1, 82, 84
7, 228480, Note_on_c, 1, 77, 84
7, 228524, Note_on_c, 1, 77, 0
7, 228535, Note_on_c, 1, 82, 0
7, 228540, Note_on_c, 1, 82, 84
7, 228540, Note_on_c, 1, 77, 84
7, 228584, Note_on_c, 1, 77, 0
7, 228595, Note_on_c, 1, 82, 0
7, 228600, Note_on_c, 1, 82, 92
7, 228600, Note_on_c, 1, 79, 92
7, 228655, Note_on_c, 1, 82, 0
7, 228655, Note_on_c, 1, 79, 0
7, 228660, Note_on_c, 1, 82, 84
7, 228660, Note_on_c, 1, 79, 84
7, 228715, Note_on_c, 1, 82, 0
7, 228715, Note_on_c, 1, 79, 0
7, 228720, Note_on_c, 1, 82, 84
7, 228720, Note_on_c, 1, 75, 84
7, 228775, Note_on_c, 1, 82, 0
7, 228775, Note_on_c, 1, 75, 0
7, 228780, Note_on_c, 1, 82, 84
7, 228780, Note_on_c, 1, 79, 84
7, 228835, Note_on_c, 1, 82, 0
7, 228835, Note_on_c, 1, 79, 0
7, 228840, Note_on_c, 1, 82, 92
7, 228840, Note_on_c, 1, 80, 92
7, 228895, Note_on_c, 1, 82, 0
7, 228895, Note_on_c, 1, 80, 0
7, 228900, Note_on_c, 1, 82, 84
7, 228900, Note_on_c, 1, 77, 84
7, 228955, Note_on_c, 1, 82, 0
7, 228955, Note_on_c, 1, 77, 0
7, 228960, Note_on_c, 1, 82, 84
7, 228960, Note_on_c, 1, 74, 84
7, 229015, Note_on_c, 1, 82, 0
7, 229015, Note_on_c, 1, 74, 0
7, 229020, Note_on_c, 1, 82, 84
7, 229020, Note_on_c, 1, 77, 84
7, 229075, Note_on_c, 1, 82, 0
7, 229075, Note_on_c, 1, 77, 0
7, 229080, Note_on_c, 1, 82, 92
7, 229080, Note_on_c, 1, 79, 92
7, 229135, Note_on_c, 1, 82, 0
7, 229135, Note_on_c, 1, 79, 0
7, 229140, Note_on_c, 1, 82, 84
7, 229140, Note_on_c, 1, 79, 84
7, 229195, Note_on_c, 1, 82, 0
7, 229195, Note_on_c, 1, 79, 0
7, 229200, Note_on_c, 1, 82, 84
7, 229200, Note_on_c, 1, 75, 84
7, 229255, Note_on_c, 1, 82, 0
7, 229255, Note_on_c, 1, 75, 0
7, 229260, Note_on_c, 1, 82, 84
7, 229260, Note_on_c, 1, 79, 84
7, 229315, Note_on_c, 1, 82, 0
7, 229315, Note_on_c, 1, 79, 0
7, 229320, Note_on_c, 1, 82, 92
7, 229320, Note_on_c, 1, 80, 92
7, 229375, Note_on_c, 1, 82, 0
7, 229375, Note_on_c, 1, 80, 0
7, 229380, Note_on_c, 1, 82, 84
7, 229380, Note_on_c, 1, 77, 84
7, 229435, Note_on_c, 1, 82, 0
7, 229435, Note_on_c, 1, 77, 0
7, 229440, Note_on_c, 1, 82, 84
7, 229440, Note_on_c, 1, 74, 84
7, 229495, Note_on_c, 1, 82, 0
7, 229495, Note_on_c, 1, 74, 0
7, 229500, Note_on_c, 1, 82, 84
7, 229500, Note_on_c, 1, 77, 84
7, 229555, Note_on_c, 1, 82, 0
7, 229555, Note_on_c, 1, 77, 0
7, 229560, Note_on_c, 1, 82, 84
7, 229560, Note_on_c, 1, 79, 84
7, 229615, Note_on_c, 1, 82, 0
7, 229615, Note_on_c, 1, 79, 0
7, 229620, Note_on_c, 1, 75, 84
7, 229675, Note_on_c, 1, 75, 0
7, 229680, Note_on_c, 1, 77, 84
7, 229735, Note_on_c, 1, 77, 0
7, 229740, Note_on_c, 1, 79, 84
7, 229795, Note_on_c, 1, 79, 0
7, 229800, Note_on_c, 1, 80, 92
7, 229855, Note_on_c, 1, 80, 0
7, 229860, Note_on_c, 1, 79, 84
7, 229915, Note_on_c, 1, 79, 0
7, 229920, Note_on_c, 1, 80, 84
7, 229975, Note_on_c, 1, 80, 0
7, 229980, Note_on_c, 1, 81, 84
7, 230035, Note_on_c, 1, 81, 0
7, 230040, Note_on_c, 1, 82, 92
7, 230095, Note_on_c, 1, 82, 0
7, 230100, Note_on_c, 1, 69, 84
7, 230155, Note_on_c, 1, 69, 0
7, 230160, Note_on_c, 1, 70, 84
7, 230215, Note_on_c, 1, 70, 0
7, 230220, Note_on_c, 1, 71, 84
7, 230275, Note_on_c, 1, 71, 0
7, 230280, Note_on_c, 1, 72, 92
7, 230335, Note_on_c, 1, 72, 0
7, 230340, Note_on_c, 1, 71, 84
7, 230395, Note_on_c, 1, 71, 0
7, 230400, Note_on_c, 1, 72, 84
7, 230455, Note_on_c, 1, 72, 0
7, 230460, Note_on_c, 1, 74, 84
7, 230515, Note_on_c, 1, 74, 0
7, 230520, Note_on_c, 1, 75, 84
7, 230631, Note_on_c, 1, 75, 0
7, 230640, Note_on_c, 1, 72, 84
7, 230640, Note_on_c, 1, 84, 84
7, 230759, Note_on_c, 1, 72, 0
7, 230759, Note_on_c, 1, 84, 0
7, 230880, Note_on_c, 1, 80, 84
7, 230880, Note_on_c, 1, 68, 84
7, 230999, Note_on_c, 1, 80, 0
7, 230999, Note_on_c, 1, 68, 0
7, 231120, Note_on_c, 1, 77, 84
7, 231120, Note_on_c, 1, 65, 84
7, 231239, Note_on_c, 1, 77, 0
7, 231239, Note_on_c, 1, 65, 0
7, 231360, Note_on_c, 1, 82, 84
7, 231360, Note_on_c, 1, 70, 84
7, 231479, Note_on_c, 1, 82, 0
7, 231479, Note_on_c, 1, 70, 0
7, 231600, Note_on_c, 1, 84, 92
7, 231600, Note_on_c, 1, 72, 92
7, 231719, Note_on_c, 1, 84, 0
7, 231719, Note_on_c, 1, 72, 0
7, 231840, Note_on_c, 1, 80, 84
7, 231840, Note_on_c, 1, 68, 84
7, 231959, Note_on_c, 1, 80, 0
7, 231959, Note_on_c, 1, 68, 0
7, 232080, Note_on_c, 1, 77, 84
7, 232080, Note_on_c, 1, 65, 84
7, 232199, Note_on_c, 1, 77, 0
7, 232199, Note_on_c, 1, 65, 0
7, 232320, Note_on_c, 1, 82, 84
7, 232320, Note_on_c, 1, 70, 84
7, 232439, Note_on_c, 1, 82, 0
7, 232439, Note_on_c, 1, 70, 0
7, 232440, Note_on_c, 1, 75, 84
7, 232484, Note_on_c, 1, 75, 0
7, 232500, Note_on_c, 1, 70, 84
7, 232544, Note_on_c, 1, 70, 0
7, 232560, Note_on_c, 1, 75, 84
7, 232604, Note_on_c, 1, 75, 0
7, 232620, Note_on_c, 1, 70, 84
7, 232664, Note_on_c, 1, 70, 0
7, 232680, Note_on_c, 1, 75, 84
7, 232724, Note_on_c, 1, 75, 0
7, 232740, Note_on_c, 1, 70, 84
7, 232784, Note_on_c, 1, 70, 0
7, 232800, Note_on_c, 1, 79, 92
7, 232844, Note_on_c, 1, 79, 0
7, 232860, Note_on_c, 1, 75, 84
7, 232904, Note_on_c, 1, 75, 0
7, 232920, Note_on_c, 1, 79, 84
7, 232964, Note_on_c, 1, 79, 0
7, 232980, Note_on_c, 1, 75, 84
7, 233024, Note_on_c, 1, 75, 0
7, 233040, Note_on_c, 1, 79, 84
7, 233084, Note_on_c, 1, 79, 0
7, 233100, Note_on_c, 1, 75, 84
7, 233144, Note_on_c, 1, 75, 0
7, 233160, Note_on_c, 1, 79, 84
7, 233204, Note_on_c, 1, 79, 0
7, 233220, Note_on_c, 1, 75, 84
7, 233264, Note_on_c, 1, 75, 0
7, 233280, Note_on_c, 1, 82, 92
7, 233324, Note_on_c, 1, 82, 0
7, 233340, Note_on_c, 1, 79, 84
7, 233384, Note_on_c, 1, 79, 0
7, 233400, Note_on_c, 1, 82, 84
7, 233444, Note_on_c, 1, 82, 0
7, 233460, Note_on_c, 1, 79, 84
7, 233504, Note_on_c, 1, 79, 0
7, 233520, Note_on_c, 1, 75, 92
7, 233564, Note_on_c, 1, 75, 0
7, 233580, Note_on_c, 1, 70, 84
7, 233624, Note_on_c, 1, 70, 0
7, 233640, Note_on_c, 1, 75, 84
7, 233684, Note_on_c, 1, 75, 0
7, 233700, Note_on_c, 1, 70, 84
7, 233744, Note_on_c, 1, 70, 0
7, 233760, Note_on_c, 1, 79, 92
7, 233804, Note_on_c, 1, 79, 0
7, 233820, Note_on_c, 1, 75, 84
7, 233864, Note_on_c, 1, 75, 0
7, 233880, Note_on_c, 1, 79, 84
7, 233924, Note_on_c, 1, 79, 0
7, 233940, Note_on_c, 1, 75, 84
7, 233984, Note_on_c, 1, 75, 0
7, 234000, Note_on_c, 1, 79, 92
7, 234044, Note_on_c, 1, 79, 0
7, 234060, Note_on_c, 1, 75, 84
7, 234104, Note_on_c, 1, 75, 0
7, 234120, Note_on_c, 1, 79, 84
7, 234164, Note_on_c, 1, 79, 0
7, 234180, Note_on_c, 1, 75, 84
7, 234224, Note_on_c, 1, 75, 0
7, 234240, Note_on_c, 1, 79, 92
7, 234284, Note_on_c, 1, 79, 0
7, 234300, Note_on_c, 1, 75, 84
7, 234344, Note_on_c, 1, 75, 0
7, 234360, Note_on_c, 1, 79, 84
7, 234360, Note_on_c, 1, 75, 84
7, 234831, Note_on_c, 1, 79, 0
7, 234831, Note_on_c, 1, 75, 0
7, 234840, Note_on_c, 1, 79, 86
7, 234840, Note_on_c, 1, 75, 86
7, 235311, Note_on_c, 1, 79, 0
7, 235311, Note_on_c, 1, 75, 0
7, 235320, Note_on_c, 1, 79, 88
7, 235320, Note_on_c, 1, 75, 88
7, 235791, Note_on_c, 1, 79, 0
7, 235791, Note_on_c, 1, 75, 0
7, 235800, Note_on_c, 1, 79, 90
7, 235800, Note_on_c, 1, 75, 90
7, 235855, Note_on_c, 1, 79, 0
7, 235855, Note_on_c, 1, 75, 0
7, 235860, Note_on_c, 1, 75, 90
7, 235915, Note_on_c, 1, 75, 0
7, 235920, Note_on_c, 1, 77, 90
7, 235975, Note_on_c, 1, 77, 0
7, 235980, Note_on_c, 1, 79, 90
7, 236035, Note_on_c, 1, 79, 0
7, 236040, Note_on_c, 1, 80, 91
7, 236095, Note_on_c, 1, 80, 0
7, 236100, Note_on_c, 1, 82, 91
7, 236155, Note_on_c, 1, 82, 0
7, 236160, Note_on_c, 1, 84, 91
7, 236215, Note_on_c, 1, 84, 0
7, 236220, Note_on_c, 1, 86, 91
7, 236275, Note_on_c, 1, 86, 0
7, 236280, Note_on_c, 1, 75, 84
7, 236519, Note_on_c, 1, 75, 0
7, 236760, Note_on_c, 1, 79, 84
7, 236760, Note_on_c, 1, 75, 84
7, 236999, Note_on_c, 1, 79, 0
7, 236999, Note_on_c, 1, 75, 0
7, 237240, Note_on_c, 1, 79, 84
7, 237240, Note_on_c, 1, 75, 84
7, 237359, Note_on_c, 1, 79, 0
7, 237359, Note_on_c, 1, 75, 0
7, 237480, Note_on_c, 1, 79, 84
7, 237480, Note_on_c, 1, 75, 84
7, 237599, Note_on_c, 1, 79, 0
7, 237599, Note_on_c, 1, 75, 0
7, 237720, Note_on_c, 1, 79, 84
7, 237720, Note_on_c, 1, 75, 84
7, 237839, Note_on_c, 1, 79, 0
7, 237839, Note_on_c, 1, 75, 0
7, 237960, Note_on_c, 1, 79, 84
7, 237960, Note_on_c, 1, 75, 84
7, 238079, Note_on_c, 1, 79, 0
7, 238079, Note_on_c, 1, 75, 0
7, 238200, Note_on_c, 1, 79, 84
7, 238200, Note_on_c, 1, 75, 84
7, 238319, Note_on_c, 1, 79, 0
7, 238319, Note_on_c, 1, 75, 0
7, 238680, Note_on_c, 1, 82, 84
7, 238680, Note_on_c, 1, 79, 84
7, 238799, Note_on_c, 1, 82, 0
7, 238799, Note_on_c, 1, 79, 0
7, 239160, Note_on_c, 1, 82, 84
7, 239160, Note_on_c, 1, 79, 84
7, 239279, Note_on_c, 1, 82, 0
7, 239279, Note_on_c, 1, 79, 0
7, 239400, Note_on_c, 1, 82, 84
7, 239400, Note_on_c, 1, 79, 84
7, 239519, Note_on_c, 1, 82, 0
7, 239519, Note_on_c, 1, 79, 0
7, 239640, Note_on_c, 1, 82, 84
7, 239640, Note_on_c, 1, 79, 84
7, 239759, Note_on_c, 1, 82, 0
7, 239759, Note_on_c, 1, 79, 0
7, 239880, Note_on_c, 1, 82, 84
7, 239880, Note_on_c, 1, 79, 84
7, 239999, Note_on_c, 1, 82, 0
7, 239999, Note_on_c, 1, 79, 0
7, 240120, Note_on_c, 1, 82, 84
7, 240120, Note_on_c, 1, 79, 84
7, 240239, Note_on_c, 1, 82, 0
7, 240239, Note_on_c, 1, 79, 0
7, 240660, Note_on_c, 1, 75, 84
7, 240715, Note_on_c, 1, 75, 0
7, 240720, Note_on_c, 1, 77, 84
7, 240775, Note_on_c, 1, 77, 0
7, 240780, Note_on_c, 1, 79, 84
7, 240835, Note_on_c, 1, 79, 0
7, 240840, Note_on_c, 1, 80, 84
7, 240895, Note_on_c, 1, 80, 0
7, 240900, Note_on_c, 1, 82, 84
7, 240955, Note_on_c, 1, 82, 0
7, 240960, Note_on_c, 1, 84, 84
7, 241015, Note_on_c, 1, 84, 0
7, 241020, Note_on_c, 1, 86, 84
7, 241075, Note_on_c, 1, 86, 0
7, 241080, Note_on_c, 1, 79, 84
7, 241080, Note_on_c, 1, 75, 84
7, 241199, Note_on_c, 1, 79, 0
7, 241199, Note_on_c, 1, 75, 0
7, 241560, Note_on_c, 1, 82, 84
7, 241560, Note_on_c, 1, 79, 84
7, 241679, Note_on_c, 1, 82, 0
7, 241679, Note_on_c, 1, 79, 0
7, 242040, Note_on_c, 1, 79, 84
7, 242040, Note_on_c, 1, 75, 84
7, 242279, Note_on_c, 1, 79, 0
7, 242279, Note_on_c, 1, 75, 0
7, 242279, End_track
8, 0, Start_track
8, 0, Title_t, "Clarinet I and II in B-flat"
8, 0, MIDI_port, 0
8, 0, Program_c, 2, 71
8, 0, Control_c, 2, 7, 88
8, 0, Control_c, 2, 10, 75
8, 0, Control_c, 2, 11, 127
8, 3000, Note_on_c, 2, 68, 84
8, 3000, Note_on_c, 2, 65, 84
8, 3239, Note_on_c, 2, 68, 0
8, 3239, Note_on_c, 2, 65, 0
8, 3480, Note_on_c, 2, 65, 84
8, 3480, Note_on_c, 2, 68, 84
8, 3659, Note_on_c, 2, 65, 0
8, 3659, Note_on_c, 2, 68, 0
8, 3720, Note_on_c, 2, 68, 84
8, 3720, Note_on_c, 2, 65, 84
8, 3899, Note_on_c, 2, 68, 0
8, 3899, Note_on_c, 2, 65, 0
8, 3960, Note_on_c, 2, 65, 84
8, 3960, Note_on_c, 2, 68, 84
8, 4139, Note_on_c, 2, 65, 0
8, 4139, Note_on_c, 2, 68, 0
8, 4200, Note_on_c, 2, 65, 92
8, 4200, Note_on_c, 2, 68, 92
8, 4379, Note_on_c, 2, 65, 0
8, 4379, Note_on_c, 2, 68, 0
8, 4680, Note_on_c, 2, 68, 92
8, 4680, Note_on_c, 2, 65, 92
8, 4904, Note_on_c, 2, 68, 0
8, 4904, Note_on_c, 2, 65, 0
8, 4920, Note_on_c, 2, 74, 92
8, 4920, Note_on_c, 2, 68, 92
8, 5399, Note_on_c, 2, 74, 0
8, 5399, Note_on_c, 2, 68, 0
8, 9480, Note_on_c, 2, 63, 52
8, 9599, Note_on_c, 2, 63, 0
8, 9960, Note_on_c, 2, 70, 52
8, 10079, Note_on_c, 2, 70, 0
8, 10440, Note_on_c, 2, 58, 52
8, 10559, Note_on_c, 2, 58, 0
8, 10920, Note_on_c, 2, 63, 52
8, 11039, Note_on_c, 2, 63, 0
8, 11280, Note_on_c, 2, 63, 52
8, 11399, Note_on_c, 2, 63, 0
8, 11520, Note_on_c, 2, 62, 52
8, 11639, Note_on_c, 2, 62, 0
8, 11760, Note_on_c, 2, 63, 52
8, 11879, Note_on_c, 2, 63, 0
8, 12000, Note_on_c, 2, 64, 52
8, 12104, Note_on_c, 2, 64, 0
8, 12120, Note_on_c, 2, 65, 52
8, 12209, Note_on_c, 2, 65, 0
8, 12240, Note_on_c, 2, 62, 52
8, 12329, Note_on_c, 2, 62, 0
8, 12360, Note_on_c, 2, 63, 52
8, 12449, Note_on_c, 2, 63, 0
8, 12480, Note_on_c, 2, 57, 52
8, 12569, Note_on_c, 2, 57, 0
8, 12600, Note_on_c, 2, 58, 52
8, 12779, Note_on_c, 2, 58, 0
8, 13560, Note_on_c, 2, 82, 84
8, 13560, Note_on_c, 2, 70, 84
8, 13649, Note_on_c, 2, 82, 0
8, 13649, Note_on_c, 2, 70, 0
8, 13680, Note_on_c, 2, 82, 84
8, 13680, Note_on_c, 2, 70, 84
8, 13769, Note_on_c, 2, 82, 0
8, 13769, Note_on_c, 2, 70, 0
8, 13800, Note_on_c, 2, 70, 84
8, 13800, Note_on_c, 2, 82, 84
8, 13889, Note_on_c, 2, 70, 0
8, 13889, Note_on_c, 2, 82, 0
8, 14520, Note_on_c, 2, 82, 52
8, 14520, Note_on_c, 2, 70, 52
8, 14879, Note_on_c, 2, 82, 0
8, 14879, Note_on_c, 2, 70, 0
8, 17400, Note_on_c, 2, 70, 84
8, 17400, Note_on_c, 2, 82, 84
8, 17489, Note_on_c, 2, 70, 0
8, 17489, Note_on_c, 2, 82, 0
8, 17520, Note_on_c, 2, 82, 84
8, 17520, Note_on_c, 2, 70, 84
8, 17609, Note_on_c, 2, 82, 0
8, 17609, Note_on_c, 2, 70, 0
8, 17640, Note_on_c, 2, 82, 84
8, 17640, Note_on_c, 2, 70, 84
8, 17729, Note_on_c, 2, 82, 0
8, 17729, Note_on_c, 2, 70, 0
8, 18360, Note_on_c, 2, 70, 52
8, 18360, Note_on_c, 2, 82, 52
8, 18719, Note_on_c, 2, 70, 0
8, 18719, Note_on_c, 2, 82, 0
8, 19080, Note_on_c, 2, 67, 52
8, 19199, Note_on_c, 2, 67, 0
8, 19560, Note_on_c, 2, 68, 52
8, 19679, Note_on_c, 2, 68, 0
8, 19920, Note_on_c, 2, 70, 52
8, 20039, Note_on_c, 2, 70, 0
8, 20160, Note_on_c, 2, 70, 52
8, 20279, Note_on_c, 2, 70, 0
8, 20520, Note_on_c, 2, 63, 52
8, 20639, Note_on_c, 2, 63, 0
8, 51360, Note_on_c, 2, 67, 48
8, 51479, Note_on_c, 2, 67, 0
8, 51480, Note_on_c, 2, 70, 48
8, 51839, Note_on_c, 2, 70, 0
8, 51840, Note_on_c, 2, 67, 48
8, 51944, Note_on_c, 2, 67, 0
8, 51960, Note_on_c, 2, 68, 48
8, 52319, Note_on_c, 2, 68, 0
8, 52320, Note_on_c, 2, 62, 48
8, 52424, Note_on_c, 2, 62, 0
8, 52440, Note_on_c, 2, 62, 48
8, 52799, Note_on_c, 2, 62, 0
8, 52800, Note_on_c, 2, 68, 48
8, 52904, Note_on_c, 2, 68, 0
8, 52920, Note_on_c, 2, 70, 48
8, 53279, Note_on_c, 2, 70, 0
8, 53280, Note_on_c, 2, 67, 48
8, 53384, Note_on_c, 2, 67, 0
8, 53392, Control_c, 2, 11, 96
8, 53400, Control_c, 2, 11, 96
8, 53400, Note_on_c, 2, 70, 68
8, 53400, Note_on_c, 2, 67, 68
8, 53440, Control_c, 2, 11, 99
8, 53480, Control_c, 2, 11, 101
8, 53520, Control_c, 2, 11, 104
8, 53560, Control_c, 2, 11, 106
8, 53600, Control_c, 2, 11, 109
8, 53609, Note_on_c, 2, 70, 0
8, 53609, Note_on_c, 2, 67, 0
8, 53640, Note_on_c, 2, 68, 68
8, 53640, Note_on_c, 2, 70, 68
8, 53640, Control_c, 2, 11, 112
8, 53680, Control_c, 2, 11, 114
8, 53720, Control_c, 2, 11, 117
8, 53760, Control_c, 2, 11, 119
8, 53800, Control_c, 2, 11, 122
8, 53819, Note_on_c, 2, 68, 0
8, 53819, Note_on_c, 2, 70, 0
8, 53840, Control_c, 2, 11, 127
8, 53880, Note_on_c, 2, 63, 68
8, 53880, Note_on_c, 2, 67, 68
8, 53999, Note_on_c, 2, 63, 0
8, 53999, Note_on_c, 2, 67, 0
8, 54000, Note_on_c, 2, 70, 76
8, 54000, Note_on_c, 2, 67, 76
8, 54239, Note_on_c, 2, 70, 0
8, 54239, Note_on_c, 2, 67, 0
8, 54240, Note_on_c, 2, 70, 68
8, 54240, Note_on_c, 2, 72, 68
8, 54359, Note_on_c, 2, 70, 0
8, 54360, Control_c, 2, 11, 127
8, 54360, Note_on_c, 2, 68, 68
8, 54400, Control_c, 2, 11, 124
8, 54440, Control_c, 2, 11, 122
8, 54479, Note_on_c, 2, 72, 0
8, 54480, Note_on_c, 2, 70, 68
8, 54480, Control_c, 2, 11, 119
8, 54520, Control_c, 2, 11, 117
8, 54560, Control_c, 2, 11, 114
8, 54599, Note_on_c, 2, 68, 0
8, 54600, Note_on_c, 2, 67, 68
8, 54600, Control_c, 2, 11, 112
8, 54640, Control_c, 2, 11, 109
8, 54680, Control_c, 2, 11, 106
8, 54719, Note_on_c, 2, 70, 0
8, 54719, Note_on_c, 2, 67, 0
8, 54720, Note_on_c, 2, 66, 68
8, 54720, Control_c, 2, 11, 104
8, 54720, Note_on_c, 2, 72, 68
8, 54760, Control_c, 2, 11, 101
8, 54800, Control_c, 2, 11, 96
8, 54824, Note_on_c, 2, 66, 0
8, 54824, Note_on_c, 2, 72, 0
8, 54840, Note_on_c, 2, 67, 68
8, 54840, Note_on_c, 2, 70, 68
8, 54959, Note_on_c, 2, 67, 0
8, 54959, Note_on_c, 2, 70, 0
8, 54960, Note_on_c, 2, 69, 68
8, 55079, Note_on_c, 2, 69, 0
8, 55080, Note_on_c, 2, 70, 68
8, 55199, Note_on_c, 2, 70, 0
8, 55320, Control_c, 2, 11, 127
8, 55440, Note_on_c, 2, 67, 76
8, 55440, Note_on_c, 2, 70, 76
8, 55529, Note_on_c, 2, 67, 0
8, 55529, Note_on_c, 2, 70, 0
8, 55560, Note_on_c, 2, 70, 76
8, 55560, Note_on_c, 2, 67, 76
8, 55649, Note_on_c, 2, 70, 0
8, 55649, Note_on_c, 2, 67, 0
8, 55680, Note_on_c, 2, 67, 76
8, 55680, Note_on_c, 2, 70, 76
8, 55769, Note_on_c, 2, 67, 0
8, 55769, Note_on_c, 2, 70, 0
8, 55920, Note_on_c, 2, 68, 76
8, 55920, Note_on_c, 2, 70, 76
8, 56009, Note_on_c, 2, 68, 0
8, 56009, Note_on_c, 2, 70, 0
8, 56040, Note_on_c, 2, 70, 76
8, 56040, Note_on_c, 2, 68, 76
8, 56129, Note_on_c, 2, 70, 0
8, 56129, Note_on_c, 2, 68, 0
8, 56160, Note_on_c, 2, 68, 76
8, 56160, Note_on_c, 2, 70, 76
8, 56249, Note_on_c, 2, 68, 0
8, 56249, Note_on_c, 2, 70, 0
8, 56400, Note_on_c, 2, 70, 76
8, 56400, Note_on_c, 2, 68, 76
8, 56489, Note_on_c, 2, 70, 0
8, 56489, Note_on_c, 2, 68, 0
8, 56520, Note_on_c, 2, 70, 76
8, 56520, Note_on_c, 2, 68, 76
8, 56609, Note_on_c, 2, 70, 0
8, 56609, Note_on_c, 2, 68, 0
8, 56640, Note_on_c, 2, 70, 76
8, 56640, Note_on_c, 2, 68, 76
8, 56729, Note_on_c, 2, 70, 0
8, 56729, Note_on_c, 2, 68, 0
8, 56880, Note_on_c, 2, 67, 76
8, 56880, Note_on_c, 2, 70, 76
8, 56969, Note_on_c, 2, 67, 0
8, 56969, Note_on_c, 2, 70, 0
8, 57000, Note_on_c, 2, 67, 76
8, 57000, Note_on_c, 2, 70, 76
8, 57089, Note_on_c, 2, 67, 0
8, 57089, Note_on_c, 2, 70, 0
8, 57120, Note_on_c, 2, 67, 76
8, 57120, Note_on_c, 2, 70, 76
8, 57209, Note_on_c, 2, 67, 0
8, 57209, Note_on_c, 2, 70, 0
8, 57240, Note_on_c, 2, 67, 76
8, 57240, Note_on_c, 2, 70, 76
8, 57344, Note_on_c, 2, 67, 0
8, 57344, Note_on_c, 2, 70, 0
8, 57360, Note_on_c, 2, 67, 76
8, 57360, Note_on_c, 2, 70, 76
8, 57464, Note_on_c, 2, 67, 0
8, 57464, Note_on_c, 2, 70, 0
8, 57480, Note_on_c, 2, 70, 76
8, 57480, Note_on_c, 2, 68, 76
8, 57584, Note_on_c, 2, 70, 0
8, 57584, Note_on_c, 2, 68, 0
8, 57600, Note_on_c, 2, 68, 76
8, 57600, Note_on_c, 2, 70, 76
8, 57704, Note_on_c, 2, 68, 0
8, 57704, Note_on_c, 2, 70, 0
8, 57720, Note_on_c, 2, 67, 76
8, 57720, Note_on_c, 2, 70, 76
8, 57824, Note_on_c, 2, 67, 0
8, 57824, Note_on_c, 2, 70, 0
8, 57840, Note_on_c, 2, 70, 76
8, 57840, Note_on_c, 2, 67, 76
8, 57944, Note_on_c, 2, 70, 0
8, 57944, Note_on_c, 2, 67, 0
8, 57960, Note_on_c, 2, 67, 76
8, 57960, Note_on_c, 2, 70, 76
8, 58064, Note_on_c, 2, 67, 0
8, 58064, Note_on_c, 2, 70, 0
8, 58080, Note_on_c, 2, 70, 76
8, 58080, Note_on_c, 2, 67, 76
8, 58184, Note_on_c, 2, 70, 0
8, 58184, Note_on_c, 2, 67, 0
8, 58200, Note_on_c, 2, 65, 76
8, 58200, Note_on_c, 2, 68, 76
8, 58304, Note_on_c, 2, 65, 0
8, 58304, Note_on_c, 2, 68, 0
8, 58320, Note_on_c, 2, 68, 76
8, 58320, Note_on_c, 2, 70, 76
8, 58424, Note_on_c, 2, 68, 0
8, 58424, Note_on_c, 2, 70, 0
8, 58440, Note_on_c, 2, 70, 76
8, 58440, Note_on_c, 2, 67, 76
8, 58544, Note_on_c, 2, 70, 0
8, 58544, Note_on_c, 2, 67, 0
8, 58560, Note_on_c, 2, 66, 76
8, 58560, Note_on_c, 2, 72, 76
8, 58664, Note_on_c, 2, 66, 0
8, 58664, Note_on_c, 2, 72, 0
8, 58680, Note_on_c, 2, 70, 76
8, 58680, Note_on_c, 2, 67, 76
8, 58784, Note_on_c, 2, 70, 0
8, 58784, Note_on_c, 2, 67, 0
8, 58800, Note_on_c, 2, 67, 76
8, 58800, Note_on_c, 2, 70, 76
8, 58904, Note_on_c, 2, 67, 0
8, 58904, Note_on_c, 2, 70, 0
8, 58920, Note_on_c, 2, 65, 76
8, 58920, Note_on_c, 2, 70, 76
8, 59039, Note_on_c, 2, 65, 0
8, 59039, Note_on_c, 2, 70, 0
8, 59640, Note_on_c, 2, 74, 76
8, 59640, Note_on_c, 2, 77, 76
8, 59729, Note_on_c, 2, 74, 0
8, 59729, Note_on_c, 2, 77, 0
8, 59760, Note_on_c, 2, 77, 76
8, 59760, Note_on_c, 2, 74, 76
8, 59849, Note_on_c, 2, 77, 0
8, 59849, Note_on_c, 2, 74, 0
8, 59880, Note_on_c, 2, 77, 76
8, 59880, Note_on_c, 2, 74, 76
8, 59969, Note_on_c, 2, 77, 0
8, 59969, Note_on_c, 2, 74, 0
8, 60600, Note_on_c, 2, 68, 52
8, 60600, Note_on_c, 2, 74, 52
8, 60959, Note_on_c, 2, 68, 0
8, 60959, Note_on_c, 2, 74, 0
8, 61080, Note_on_c, 2, 58, 52
8, 61080, Note_on_c, 2, 63, 52
8, 61439, Note_on_c, 2, 58, 0
8, 61439, Note_on_c, 2, 63, 0
8, 61440, Note_on_c, 2, 70, 52
8, 61440, Note_on_c, 2, 63, 52
8, 61544, Note_on_c, 2, 70, 0
8, 61544, Note_on_c, 2, 63, 0
8, 61560, Note_on_c, 2, 63, 52
8, 61560, Note_on_c, 2, 72, 52
8, 61919, Note_on_c, 2, 72, 0
8, 61920, Note_on_c, 2, 65, 52
8, 62024, Note_on_c, 2, 63, 0
8, 62024, Note_on_c, 2, 65, 0
8, 62040, Note_on_c, 2, 63, 52
8, 62040, Note_on_c, 2, 67, 52
8, 62279, Note_on_c, 2, 63, 0
8, 62279, Note_on_c, 2, 67, 0
8, 62280, Note_on_c, 2, 68, 52
8, 62280, Note_on_c, 2, 62, 52
8, 62504, Note_on_c, 2, 68, 0
8, 62504, Note_on_c, 2, 62, 0
8, 62520, Note_on_c, 2, 63, 52
8, 62520, Note_on_c, 2, 67, 52
8, 62639, Note_on_c, 2, 63, 0
8, 62639, Note_on_c, 2, 67, 0
8, 63120, Note_on_c, 2, 82, 76
8, 63120, Note_on_c, 2, 70, 76
8, 63209, Note_on_c, 2, 82, 0
8, 63209, Note_on_c, 2, 70, 0
8, 63240, Note_on_c, 2, 70, 76
8, 63240, Note_on_c, 2, 82, 76
8, 63329, Note_on_c, 2, 70, 0
8, 63329, Note_on_c, 2, 82, 0
8, 63360, Note_on_c, 2, 70, 76
8, 63360, Note_on_c, 2, 82, 76
8, 63449, Note_on_c, 2, 70, 0
8, 63449, Note_on_c, 2, 82, 0
8, 63480, Note_on_c, 2, 82, 76
8, 63480, Note_on_c, 2, 70, 76
8, 63584, Note_on_c, 2, 82, 0
8, 63584, Note_on_c, 2, 70, 0
8, 63600, Note_on_c, 2, 82, 76
8, 63600, Note_on_c, 2, 70, 76
8, 63704, Note_on_c, 2, 82, 0
8, 63704, Note_on_c, 2, 70, 0
8, 63720, Note_on_c, 2, 82, 76
8, 63720, Note_on_c, 2, 70, 76
8, 63839, Note_on_c, 2, 82, 0
8, 63839, Note_on_c, 2, 70, 0
8, 64080, Note_on_c, 2, 74, 76
8, 64080, Note_on_c, 2, 70, 76
8, 64139, Note_on_c, 2, 74, 0
8, 64139, Note_on_c, 2, 70, 0
8, 64140, Note_on_c, 2, 72, 76
8, 64140, Note_on_c, 2, 75, 76
8, 64199, Note_on_c, 2, 72, 0
8, 64199, Note_on_c, 2, 75, 0
8, 64200, Note_on_c, 2, 74, 76
8, 64200, Note_on_c, 2, 77, 76
8, 64259, Note_on_c, 2, 74, 0
8, 64259, Note_on_c, 2, 77, 0
8, 64260, Note_on_c, 2, 79, 76
8, 64260, Note_on_c, 2, 75, 76
8, 64319, Note_on_c, 2, 79, 0
8, 64319, Note_on_c, 2, 75, 0
8, 64320, Note_on_c, 2, 77, 76
8, 64320, Note_on_c, 2, 80, 76
8, 64379, Note_on_c, 2, 77, 0
8, 64379, Note_on_c, 2, 80, 0
8, 64380, Note_on_c, 2, 75, 76
8, 64380, Note_on_c, 2, 79, 76
8, 64431, Note_on_c, 2, 75, 0
8, 64431, Note_on_c, 2, 79, 0
8, 64440, Note_on_c, 2, 74, 76
8, 64440, Note_on_c, 2, 80, 76
8, 64799, Note_on_c, 2, 74, 0
8, 64799, Note_on_c, 2, 80, 0
8, 65040, Note_on_c, 2, 67, 76
8, 65040, Note_on_c, 2, 70, 76
8, 65129, Note_on_c, 2, 67, 0
8, 65129, Note_on_c, 2, 70, 0
8, 65160, Note_on_c, 2, 67, 76
8, 65160, Note_on_c, 2, 70, 76
8, 65249, Note_on_c, 2, 67, 0
8, 65249, Note_on_c, 2, 70, 0
8, 65280, Note_on_c, 2, 70, 76
8, 65280, Note_on_c, 2, 67, 76
8, 65369, Note_on_c, 2, 70, 0
8, 65369, Note_on_c, 2, 67, 0
8, 65520, Note_on_c, 2, 65, 76
8, 65520, Note_on_c, 2, 72, 76
8, 65624, Note_on_c, 2, 65, 0
8, 65624, Note_on_c, 2, 72, 0
8, 65640, Note_on_c, 2, 72, 76
8, 65640, Note_on_c, 2, 65, 76
8, 65744, Note_on_c, 2, 72, 0
8, 65744, Note_on_c, 2, 65, 0
8, 65760, Note_on_c, 2, 72, 76
8, 65760, Note_on_c, 2, 65, 76
8, 65864, Note_on_c, 2, 72, 0
8, 65864, Note_on_c, 2, 65, 0
8, 65880, Note_on_c, 2, 67, 76
8, 65880, Note_on_c, 2, 70, 76
8, 65984, Note_on_c, 2, 67, 0
8, 65984, Note_on_c, 2, 70, 0
8, 66000, Note_on_c, 2, 67, 76
8, 66000, Note_on_c, 2, 70, 76
8, 66104, Note_on_c, 2, 67, 0
8, 66104, Note_on_c, 2, 70, 0
8, 66120, Note_on_c, 2, 68, 76
8, 66120, Note_on_c, 2, 70, 76
8, 66224, Note_on_c, 2, 68, 0
8, 66224, Note_on_c, 2, 70, 0
8, 66240, Note_on_c, 2, 68, 76
8, 66240, Note_on_c, 2, 70, 76
8, 66344, Note_on_c, 2, 68, 0
8, 66344, Note_on_c, 2, 70, 0
8, 66360, Note_on_c, 2, 67, 76
8, 66360, Note_on_c, 2, 70, 76
8, 66479, Note_on_c, 2, 67, 0
8, 66479, Note_on_c, 2, 70, 0
8, 69360, Note_on_c, 2, 67, 76
8, 69360, Note_on_c, 2, 71, 76
8, 69464, Note_on_c, 2, 67, 0
8, 69464, Note_on_c, 2, 71, 0
8, 69480, Note_on_c, 2, 69, 76
8, 69480, Note_on_c, 2, 72, 76
8, 69584, Note_on_c, 2, 69, 0
8, 69584, Note_on_c, 2, 72, 0
8, 69600, Note_on_c, 2, 69, 76
8, 69600, Note_on_c, 2, 72, 76
8, 69704, Note_on_c, 2, 69, 0
8, 69704, Note_on_c, 2, 72, 0
8, 69720, Note_on_c, 2, 67, 76
8, 69720, Note_on_c, 2, 71, 76
8, 69824, Note_on_c, 2, 67, 0
8, 69824, Note_on_c, 2, 71, 0
8, 69840, Note_on_c, 2, 71, 76
8, 69840, Note_on_c, 2, 67, 76
8, 69944, Note_on_c, 2, 71, 0
8, 69944, Note_on_c, 2, 67, 0
8, 69960, Note_on_c, 2, 72, 76
8, 69960, Note_on_c, 2, 69, 76
8, 70064, Note_on_c, 2, 72, 0
8, 70064, Note_on_c, 2, 69, 0
8, 70080, Note_on_c, 2, 69, 76
8, 70080, Note_on_c, 2, 72, 76
8, 70184, Note_on_c, 2, 69, 0
8, 70184, Note_on_c, 2, 72, 0
8, 70200, Note_on_c, 2, 67, 84
8, 70200, Note_on_c, 2, 71, 84
8, 70379, Note_on_c, 2, 67, 0
8, 70379, Note_on_c, 2, 71, 0
8, 70440, Note_on_c, 2, 71, 84
8, 70440, Note_on_c, 2, 79, 84
8, 70619, Note_on_c, 2, 71, 0
8, 70619, Note_on_c, 2, 79, 0
8, 70680, Note_on_c, 2, 67, 84
8, 70680, Note_on_c, 2, 71, 84
8, 70859, Note_on_c, 2, 67, 0
8, 70859, Note_on_c, 2, 71, 0
8, 72240, Note_on_c, 2, 77, 52
8, 72344, Note_on_c, 2, 77, 0
8, 72360, Note_on_c, 2, 77, 52
8, 72464, Note_on_c, 2, 77, 0
8, 72480, Note_on_c, 2, 77, 52
8, 72584, Note_on_c, 2, 77, 0
8, 72600, Note_on_c, 2, 77, 52
8, 72839, Note_on_c, 2, 77, 0
8, 72840, Note_on_c, 2, 75, 52
8, 72959, Note_on_c, 2, 75, 0
8, 81240, Note_on_c, 2, 67, 52
8, 81704, Note_on_c, 2, 67, 0
8, 81720, Note_on_c, 2, 72, 52
8, 82184, Note_on_c, 2, 72, 0
8, 82200, Note_on_c, 2, 60, 52
8, 82544, Note_on_c, 2, 60, 0
8, 82560, Note_on_c, 2, 60, 52
8, 82664, Note_on_c, 2, 60, 0
8, 82680, Note_on_c, 2, 60, 52
8, 82784, Note_on_c, 2, 60, 0
8, 82800, Note_on_c, 2, 60, 52
8, 82904, Note_on_c, 2, 60, 0
8, 82920, Note_on_c, 2, 60, 52
8, 83024, Note_on_c, 2, 60, 0
8, 83040, Note_on_c, 2, 60, 52
8, 83144, Note_on_c, 2, 60, 0
8, 83160, Note_on_c, 2, 60, 52
8, 83504, Note_on_c, 2, 60, 0
8, 83520, Note_on_c, 2, 60, 52
8, 83624, Note_on_c, 2, 60, 0
8, 83632, Control_c, 2, 11, 80
8, 83640, Note_on_c, 2, 60, 76
8, 83640, Control_c, 2, 11, 80
8, 83720, Control_c, 2, 11, 82
8, 83744, Note_on_c, 2, 60, 0
8, 83760, Note_on_c, 2, 60, 76
8, 83800, Control_c, 2, 11, 84
8, 83864, Note_on_c, 2, 60, 0
8, 83880, Note_on_c, 2, 60, 76
8, 83880, Control_c, 2, 11, 86
8, 83960, Control_c, 2, 11, 88
8, 83984, Note_on_c, 2, 60, 0
8, 84000, Note_on_c, 2, 60, 76
8, 84040, Control_c, 2, 11, 90
8, 84104, Note_on_c, 2, 60, 0
8, 84120, Control_c, 2, 11, 92
8, 84120, Note_on_c, 2, 60, 76
8, 84200, Control_c, 2, 11, 94
8, 84239, Note_on_c, 2, 60, 0
8, 84280, Control_c, 2, 11, 96
8, 84360, Control_c, 2, 11, 98
8, 84440, Control_c, 2, 11, 100
8, 84520, Control_c, 2, 11, 102
8, 84600, Note_on_c, 2, 72, 76
8, 84600, Control_c, 2, 11, 104
8, 84680, Control_c, 2, 11, 105
8, 84760, Control_c, 2, 11, 107
8, 84840, Control_c, 2, 11, 109
8, 84920, Control_c, 2, 11, 111
8, 85000, Control_c, 2, 11, 113
8, 85064, Note_on_c, 2, 72, 0
8, 85080, Note_on_c, 2, 79, 76
8, 85080, Control_c, 2, 11, 115
8, 85160, Control_c, 2, 11, 117
8, 85240, Control_c, 2, 11, 119
8, 85320, Control_c, 2, 11, 121
8, 85400, Control_c, 2, 11, 123
8, 85480, Control_c, 2, 11, 127
8, 85680, Note_on_c, 2, 67, 76
8, 85784, Note_on_c, 2, 79, 0
8, 85784, Note_on_c, 2, 67, 0
8, 85800, Note_on_c, 2, 72, 76
8, 85920, Note_on_c, 2, 60, 76
8, 86024, Note_on_c, 2, 72, 0
8, 86024, Note_on_c, 2, 60, 0
8, 86040, Note_on_c, 2, 60, 76
8, 86040, Note_on_c, 2, 72, 76
8, 86264, Note_on_c, 2, 60, 0
8, 86264, Note_on_c, 2, 72, 0
8, 86280, Note_on_c, 2, 60, 76
8, 86280, Note_on_c, 2, 72, 76
8, 86504, Note_on_c, 2, 60, 0
8, 86504, Note_on_c, 2, 72, 0
8, 86520, Note_on_c, 2, 60, 76
8, 86520, Note_on_c, 2, 72, 76
8, 86864, Note_on_c, 2, 60, 0
8, 86864, Note_on_c, 2, 72, 0
8, 86880, Note_on_c, 2, 72, 76
8, 86880, Note_on_c, 2, 60, 76
8, 86984, Note_on_c, 2, 72, 0
8, 86984, Note_on_c, 2, 60, 0
8, 87000, Note_on_c, 2, 60, 76
8, 87000, Note_on_c, 2, 72, 76
8, 87104, Note_on_c, 2, 60, 0
8, 87104, Note_on_c, 2, 72, 0
8, 87120, Note_on_c, 2, 60, 76
8, 87120, Note_on_c, 2, 72, 76
8, 87224, Note_on_c, 2, 60, 0
8, 87224, Note_on_c, 2, 72, 0
8, 87240, Note_on_c, 2, 72, 76
8, 87240, Note_on_c, 2, 60, 76
8, 87344, Note_on_c, 2, 72, 0
8, 87344, Note_on_c, 2, 60, 0
8, 87360, Note_on_c, 2, 60, 76
8, 87360, Note_on_c, 2, 72, 76
8, 87464, Note_on_c, 2, 60, 0
8, 87464, Note_on_c, 2, 72, 0
8, 87480, Note_on_c, 2, 60, 76
8, 87480, Note_on_c, 2, 72, 76
8, 87824, Note_on_c, 2, 60, 0
8, 87824, Note_on_c, 2, 72, 0
8, 87840, Note_on_c, 2, 60, 76
8, 87840, Note_on_c, 2, 72, 76
8, 87944, Note_on_c, 2, 60, 0
8, 87944, Note_on_c, 2, 72, 0
8, 87960, Note_on_c, 2, 60, 76
8, 87960, Note_on_c, 2, 72, 76
8, 88064, Note_on_c, 2, 60, 0
8, 88064, Note_on_c, 2, 72, 0
8, 88080, Note_on_c, 2, 60, 76
8, 88080, Note_on_c, 2, 72, 76
8, 88184, Note_on_c, 2, 60, 0
8, 88184, Note_on_c, 2, 72, 0
8, 88200, Note_on_c, 2, 60, 76
8, 88200, Note_on_c, 2, 72, 76
8, 88304, Note_on_c, 2, 60, 0
8, 88304, Note_on_c, 2, 72, 0
8, 88320, Note_on_c, 2, 60, 76
8, 88320, Note_on_c, 2, 72, 76
8, 88424, Note_on_c, 2, 60, 0
8, 88424, Note_on_c, 2, 72, 0
8, 88440, Note_on_c, 2, 60, 76
8, 88440, Note_on_c, 2, 72, 76
8, 88559, Note_on_c, 2, 60, 0
8, 88559, Note_on_c, 2, 72, 0
8, 89160, Note_on_c, 2, 65, 84
8, 89609, Note_on_c, 2, 65, 0
8, 89640, Note_on_c, 2, 58, 76
8, 89864, Note_on_c, 2, 58, 0
8, 91080, Note_on_c, 2, 70, 76
8, 91320, Note_on_c, 2, 72, 76
8, 91559, Note_on_c, 2, 70, 0
8, 91560, Note_on_c, 2, 68, 76
8, 91799, Note_on_c, 2, 72, 0
8, 91799, Note_on_c, 2, 68, 0
8, 91800, Note_on_c, 2, 67, 76
8, 91800, Note_on_c, 2, 70, 76
8, 92039, Note_on_c, 2, 67, 0
8, 92040, Note_on_c, 2, 66, 76
8, 92159, Note_on_c, 2, 70, 0
8, 92159, Note_on_c, 2, 66, 0
8, 92160, Note_on_c, 2, 69, 76
8, 92160, Note_on_c, 2, 72, 76
8, 92279, Note_on_c, 2, 69, 0
8, 92279, Note_on_c, 2, 72, 0
8, 92280, Note_on_c, 2, 70, 76
8, 92280, Note_on_c, 2, 73, 76
8, 92744, Note_on_c, 2, 70, 0
8, 92744, Note_on_c, 2, 73, 0
8, 92760, Note_on_c, 2, 72, 76
8, 92760, Note_on_c, 2, 69, 76
8, 92984, Note_on_c, 2, 69, 0
8, 93000, Note_on_c, 2, 68, 76
8, 93119, Note_on_c, 2, 72, 0
8, 93120, Note_on_c, 2, 74, 76
8, 93179, Note_on_c, 2, 74, 0
8, 93180, Note_on_c, 2, 72, 76
8, 93224, Note_on_c, 2, 68, 0
8, 93231, Note_on_c, 2, 72, 0
8, 93240, Note_on_c, 2, 71, 76
8, 93240, Note_on_c, 2, 67, 76
8, 93359, Note_on_c, 2, 71, 0
8, 93359, Note_on_c, 2, 67, 0
8, 95640, Note_on_c, 2, 69, 76
8, 96104, Note_on_c, 2, 69, 0
8, 96120, Note_on_c, 2, 74, 76
8, 96209, Note_on_c, 2, 74, 0
8, 96240, Note_on_c, 2, 62, 76
8, 96329, Note_on_c, 2, 62, 0
8, 97080, Note_on_c, 2, 77, 84
8, 97080, Note_on_c, 2, 62, 84
8, 98984, Note_on_c, 2, 77, 0
8, 98984, Note_on_c, 2, 62, 0
8, 99000, Note_on_c, 2, 78, 52
8, 99000, Note_on_c, 2, 62, 52
8, 99239, Note_on_c, 2, 78, 0
8, 99239, Note_on_c, 2, 62, 0
8, 110760, Note_on_c, 2, 67, 76
8, 110827, Note_on_c, 2, 67, 0
8, 110840, Note_on_c, 2, 67, 52
8, 110907, Note_on_c, 2, 67, 0
8, 110920, Note_on_c, 2, 67, 52
8, 110999, Note_on_c, 2, 67, 0
8, 111240, Note_on_c, 2, 67, 76
8, 111240, Note_on_c, 2, 64, 76
8, 111307, Note_on_c, 2, 67, 0
8, 111307, Note_on_c, 2, 64, 0
8, 111320, Note_on_c, 2, 64, 52
8, 111320, Note_on_c, 2, 67, 52
8, 111387, Note_on_c, 2, 64, 0
8, 111387, Note_on_c, 2, 67, 0
8, 111400, Note_on_c, 2, 67, 52
8, 111400, Note_on_c, 2, 64, 52
8, 111479, Note_on_c, 2, 67, 0
8, 111479, Note_on_c, 2, 64, 0
8, 111720, Note_on_c, 2, 67, 76
8, 111787, Note_on_c, 2, 67, 0
8, 111800, Note_on_c, 2, 67, 52
8, 111867, Note_on_c, 2, 67, 0
8, 111880, Note_on_c, 2, 67, 52
8, 111959, Note_on_c, 2, 67, 0
8, 112200, Note_on_c, 2, 69, 52
8, 112200, Note_on_c, 2, 64, 52
8, 112267, Note_on_c, 2, 69, 0
8, 112267, Note_on_c, 2, 64, 0
8, 112280, Note_on_c, 2, 64, 52
8, 112280, Note_on_c, 2, 69, 52
8, 112347, Note_on_c, 2, 64, 0
8, 112347, Note_on_c, 2, 69, 0
8, 112360, Note_on_c, 2, 64, 52
8, 112360, Note_on_c, 2, 69, 52
8, 112439, Note_on_c, 2, 64, 0
8, 112439, Note_on_c, 2, 69, 0
8, 112680, Note_on_c, 2, 74, 52
8, 112680, Note_on_c, 2, 69, 52
8, 112747, Note_on_c, 2, 74, 0
8, 112747, Note_on_c, 2, 69, 0
8, 112760, Note_on_c, 2, 74, 52
8, 112760, Note_on_c, 2, 69, 52
8, 112827, Note_on_c, 2, 74, 0
8, 112827, Note_on_c, 2, 69, 0
8, 112840, Note_on_c, 2, 74, 52
8, 112840, Note_on_c, 2, 69, 52
8, 112919, Note_on_c, 2, 74, 0
8, 112919, Note_on_c, 2, 69, 0
8, 113160, Note_on_c, 2, 71, 52
8, 113160, Note_on_c, 2, 74, 52
8, 113227, Note_on_c, 2, 71, 0
8, 113227, Note_on_c, 2, 74, 0
8, 113240, Note_on_c, 2, 74, 52
8, 113240, Note_on_c, 2, 71, 52
8, 113307, Note_on_c, 2, 74, 0
8, 113307, Note_on_c, 2, 71, 0
8, 113320, Note_on_c, 2, 71, 52
8, 113320, Note_on_c, 2, 74, 52
8, 113387, Note_on_c, 2, 71, 0
8, 113387, Note_on_c, 2, 74, 0
8, 113400, Note_on_c, 2, 69, 52
8, 113400, Note_on_c, 2, 74, 52
8, 113519, Note_on_c, 2, 69, 0
8, 113519, Note_on_c, 2, 74, 0
8, 113640, Note_on_c, 2, 67, 52
8, 113640, Note_on_c, 2, 73, 52
8, 113759, Note_on_c, 2, 67, 0
8, 113759, Note_on_c, 2, 73, 0
8, 113880, Note_on_c, 2, 66, 52
8, 113880, Note_on_c, 2, 74, 52
8, 113999, Note_on_c, 2, 66, 0
8, 113999, Note_on_c, 2, 74, 0
8, 114360, Note_on_c, 2, 74, 84
8, 114360, Note_on_c, 2, 66, 84
8, 114824, Note_on_c, 2, 74, 0
8, 114824, Note_on_c, 2, 66, 0
8, 114840, Note_on_c, 2, 74, 84
8, 114840, Note_on_c, 2, 67, 84
8, 115064, Note_on_c, 2, 74, 0
8, 115064, Note_on_c, 2, 67, 0
8, 115080, Note_on_c, 2, 74, 84
8, 115080, Note_on_c, 2, 68, 84
8, 115319, Note_on_c, 2, 68, 0
8, 115320, Note_on_c, 2, 69, 84
8, 115544, Note_on_c, 2, 74, 0
8, 115544, Note_on_c, 2, 69, 0
8, 115560, Note_on_c, 2, 73, 84
8, 115560, Note_on_c, 2, 67, 84
8, 115784, Note_on_c, 2, 73, 0
8, 115784, Note_on_c, 2, 67, 0
8, 115800, Note_on_c, 2, 74, 84
8, 115800, Note_on_c, 2, 66, 84
8, 115919, Note_on_c, 2, 74, 0
8, 115919, Note_on_c, 2, 66, 0
8, 123540, Note_on_c, 2, 63, 84
8, 123540, Note_on_c, 2, 60, 84
8, 123599, Note_on_c, 2, 63, 0
8, 123599, Note_on_c, 2, 60, 0
8, 123600, Note_on_c, 2, 62, 84
8, 123600, Note_on_c, 2, 65, 84
8, 123659, Note_on_c, 2, 62, 0
8, 123659, Note_on_c, 2, 65, 0
8, 123660, Note_on_c, 2, 67, 84
8, 123660, Note_on_c, 2, 63, 84
8, 123719, Note_on_c, 2, 67, 0
8, 123719, Note_on_c, 2, 63, 0
8, 123720, Note_on_c, 2, 65, 84
8, 123720, Note_on_c, 2, 69, 84
8, 123779, Note_on_c, 2, 65, 0
8, 123779, Note_on_c, 2, 69, 0
8, 123780, Note_on_c, 2, 67, 84
8, 123780, Note_on_c, 2, 71, 84
8, 123839, Note_on_c, 2, 67, 0
8, 123839, Note_on_c, 2, 71, 0
8, 123840, Note_on_c, 2, 72, 84
8, 123840, Note_on_c, 2, 69, 84
8, 123899, Note_on_c, 2, 72, 0
8, 123899, Note_on_c, 2, 69, 0
8, 123900, Note_on_c, 2, 71, 84
8, 123900, Note_on_c, 2, 74, 84
8, 123951, Note_on_c, 2, 71, 0
8, 123951, Note_on_c, 2, 74, 0
8, 123960, Note_on_c, 2, 75, 84
8, 123960, Note_on_c, 2, 72, 84
8, 124139, Note_on_c, 2, 75, 0
8, 124139, Note_on_c, 2, 72, 0
8, 124200, Note_on_c, 2, 72, 84
8, 124200, Note_on_c, 2, 75, 84
8, 124364, Note_on_c, 2, 72, 0
8, 124364, Note_on_c, 2, 75, 0
8, 124380, Note_on_c, 2, 72, 84
8, 124380, Note_on_c, 2, 75, 84
8, 124424, Note_on_c, 2, 72, 0
8, 124424, Note_on_c, 2, 75, 0
8, 124440, Note_on_c, 2, 72, 84
8, 124440, Note_on_c, 2, 75, 84
8, 124559, Note_on_c, 2, 72, 0
8, 124559, Note_on_c, 2, 75, 0
8, 124560, Note_on_c, 2, 71, 84
8, 124560, Note_on_c, 2, 74, 84
8, 124664, Note_on_c, 2, 71, 0
8, 124664, Note_on_c, 2, 74, 0
8, 124680, Note_on_c, 2, 74, 84
8, 124680, Note_on_c, 2, 71, 84
8, 124844, Note_on_c, 2, 74, 0
8, 124844, Note_on_c, 2, 71, 0
8, 124860, Note_on_c, 2, 75, 84
8, 124860, Note_on_c, 2, 72, 84
8, 124904, Note_on_c, 2, 75, 0
8, 124904, Note_on_c, 2, 72, 0
8, 124920, Note_on_c, 2, 74, 84
8, 124920, Note_on_c, 2, 77, 84
8, 125084, Note_on_c, 2, 74, 0
8, 125084, Note_on_c, 2, 77, 0
8, 125100, Note_on_c, 2, 77, 84
8, 125100, Note_on_c, 2, 74, 84
8, 125144, Note_on_c, 2, 77, 0
8, 125144, Note_on_c, 2, 74, 0
8, 125160, Note_on_c, 2, 77, 84
8, 125160, Note_on_c, 2, 74, 84
8, 125324, Note_on_c, 2, 77, 0
8, 125324, Note_on_c, 2, 74, 0
8, 125340, Note_on_c, 2, 74, 84
8, 125340, Note_on_c, 2, 77, 84
8, 125384, Note_on_c, 2, 74, 0
8, 125384, Note_on_c, 2, 77, 0
8, 125400, Note_on_c, 2, 74, 84
8, 125400, Note_on_c, 2, 77, 84
8, 125639, Note_on_c, 2, 74, 0
8, 125639, Note_on_c, 2, 77, 0
8, 125640, Note_on_c, 2, 75, 84
8, 125640, Note_on_c, 2, 72, 84
8, 125759, Note_on_c, 2, 75, 0
8, 125759, Note_on_c, 2, 72, 0
8, 125880, Note_on_c, 2, 72, 92
8, 125880, Note_on_c, 2, 75, 92
8, 126329, Note_on_c, 2, 72, 0
8, 126329, Note_on_c, 2, 75, 0
8, 126360, Note_on_c, 2, 74, 92
8, 126360, Note_on_c, 2, 72, 92
8, 126809, Note_on_c, 2, 74, 0
8, 126809, Note_on_c, 2, 72, 0
8, 126840, Note_on_c, 2, 72, 84
8, 126840, Note_on_c, 2, 74, 84
8, 127019, Note_on_c, 2, 72, 0
8, 127019, Note_on_c, 2, 74, 0
8, 127080, Note_on_c, 2, 74, 84
8, 127080, Note_on_c, 2, 72, 84
8, 127259, Note_on_c, 2, 74, 0
8, 127259, Note_on_c, 2, 72, 0
8, 127320, Note_on_c, 2, 70, 84
8, 127320, Note_on_c, 2, 74, 84
8, 127371, Note_on_c, 2, 70, 0
8, 127371, Note_on_c, 2, 74, 0
8, 127380, Note_on_c, 2, 63, 84
8, 127380, Note_on_c, 2, 60, 84
8, 127439, Note_on_c, 2, 63, 0
8, 127439, Note_on_c, 2, 60, 0
8, 127440, Note_on_c, 2, 62, 84
8, 127440, Note_on_c, 2, 65, 84
8, 127499, Note_on_c, 2, 62, 0
8, 127499, Note_on_c, 2, 65, 0
8, 127500, Note_on_c, 2, 67, 84
8, 127500, Note_on_c, 2, 63, 84
8, 127559, Note_on_c, 2, 67, 0
8, 127559, Note_on_c, 2, 63, 0
8, 127560, Note_on_c, 2, 65, 84
8, 127560, Note_on_c, 2, 69, 84
8, 127619, Note_on_c, 2, 65, 0
8, 127619, Note_on_c, 2, 69, 0
8, 127620, Note_on_c, 2, 67, 84
8, 127620, Note_on_c, 2, 71, 84
8, 127679, Note_on_c, 2, 67, 0
8, 127679, Note_on_c, 2, 71, 0
8, 127680, Note_on_c, 2, 72, 84
8, 127680, Note_on_c, 2, 69, 84
8, 127739, Note_on_c, 2, 72, 0
8, 127739, Note_on_c, 2, 69, 0
8, 127740, Note_on_c, 2, 74, 84
8, 127740, Note_on_c, 2, 71, 84
8, 127791, Note_on_c, 2, 74, 0
8, 127791, Note_on_c, 2, 71, 0
8, 127800, Note_on_c, 2, 75, 84
8, 127800, Note_on_c, 2, 72, 84
8, 127979, Note_on_c, 2, 75, 0
8, 127979, Note_on_c, 2, 72, 0
8, 128040, Note_on_c, 2, 75, 84
8, 128040, Note_on_c, 2, 72, 84
8, 128204, Note_on_c, 2, 75, 0
8, 128204, Note_on_c, 2, 72, 0
8, 128220, Note_on_c, 2, 75, 84
8, 128220, Note_on_c, 2, 72, 84
8, 128264, Note_on_c, 2, 75, 0
8, 128264, Note_on_c, 2, 72, 0
8, 128280, Note_on_c, 2, 75, 84
8, 128280, Note_on_c, 2, 72, 84
8, 128399, Note_on_c, 2, 75, 0
8, 128399, Note_on_c, 2, 72, 0
8, 128400, Note_on_c, 2, 74, 84
8, 128400, Note_on_c, 2, 71, 84
8, 128504, Note_on_c, 2, 74, 0
8, 128504, Note_on_c, 2, 71, 0
8, 128520, Note_on_c, 2, 71, 84
8, 128520, Note_on_c, 2, 74, 84
8, 128684, Note_on_c, 2, 71, 0
8, 128684, Note_on_c, 2, 74, 0
8, 128700, Note_on_c, 2, 72, 84
8, 128700, Note_on_c, 2, 75, 84
8, 128744, Note_on_c, 2, 72, 0
8, 128744, Note_on_c, 2, 75, 0
8, 128760, Note_on_c, 2, 77, 84
8, 128760, Note_on_c, 2, 74, 84
8, 128924, Note_on_c, 2, 77, 0
8, 128924, Note_on_c, 2, 74, 0
8, 128940, Note_on_c, 2, 74, 84
8, 128940, Note_on_c, 2, 77, 84
8, 128984, Note_on_c, 2, 74, 0
8, 128984, Note_on_c, 2, 77, 0
8, 129000, Note_on_c, 2, 77, 84
8, 129000, Note_on_c, 2, 74, 84
8, 129164, Note_on_c, 2, 77, 0
8, 129164, Note_on_c, 2, 74, 0
8, 129180, Note_on_c, 2, 77, 84
8, 129180, Note_on_c, 2, 74, 84
8, 129224, Note_on_c, 2, 77, 0
8, 129224, Note_on_c, 2, 74, 0
8, 129240, Note_on_c, 2, 77, 84
8, 129240, Note_on_c, 2, 74, 84
8, 129479, Note_on_c, 2, 77, 0
8, 129479, Note_on_c, 2, 74, 0
8, 129480, Note_on_c, 2, 75, 84
8, 129480, Note_on_c, 2, 72, 84
8, 129599, Note_on_c, 2, 75, 0
8, 129599, Note_on_c, 2, 72, 0
8, 129720, Note_on_c, 2, 72, 92
8, 129720, Note_on_c, 2, 75, 92
8, 130169, Note_on_c, 2, 72, 0
8, 130169, Note_on_c, 2, 75, 0
8, 130200, Note_on_c, 2, 72, 92
8, 130200, Note_on_c, 2, 74, 92
8, 130649, Note_on_c, 2, 72, 0
8, 130649, Note_on_c, 2, 74, 0
8, 130680, Note_on_c, 2, 74, 84
8, 130680, Note_on_c, 2, 72, 84
8, 130904, Note_on_c, 2, 74, 0
8, 130904, Note_on_c, 2, 72, 0
8, 130920, Note_on_c, 2, 72, 84
8, 130920, Note_on_c, 2, 74, 84
8, 131144, Note_on_c, 2, 72, 0
8, 131144, Note_on_c, 2, 74, 0
8, 131160, Note_on_c, 2, 71, 84
8, 131160, Note_on_c, 2, 74, 84
8, 131384, Note_on_c, 2, 71, 0
8, 131384, Note_on_c, 2, 74, 0
8, 131400, Note_on_c, 2, 72, 92
8, 131640, Note_on_c, 2, 75, 92
8, 132104, Note_on_c, 2, 72, 0
8, 132104, Note_on_c, 2, 75, 0
8, 132120, Note_on_c, 2, 72, 92
8, 132120, Note_on_c, 2, 74, 92
8, 132569, Note_on_c, 2, 72, 0
8, 132569, Note_on_c, 2, 74, 0
8, 132600, Note_on_c, 2, 72, 84
8, 132600, Note_on_c, 2, 74, 84
8, 132824, Note_on_c, 2, 72, 0
8, 132824, Note_on_c, 2, 74, 0
8, 132840, Note_on_c, 2, 74, 84
8, 132840, Note_on_c, 2, 72, 84
8, 133064, Note_on_c, 2, 74, 0
8, 133064, Note_on_c, 2, 72, 0
8, 133080, Note_on_c, 2, 70, 84
8, 133080, Note_on_c, 2, 74, 84
8, 133244, Note_on_c, 2, 70, 0
8, 133244, Note_on_c, 2, 74, 0
8, 133260, Note_on_c, 2, 62, 84
8, 133260, Note_on_c, 2, 74, 84
8, 133304, Note_on_c, 2, 62, 0
8, 133304, Note_on_c, 2, 74, 0
8, 133320, Note_on_c, 2, 74, 84
8, 133320, Note_on_c, 2, 62, 84
8, 133484, Note_on_c, 2, 74, 0
8, 133484, Note_on_c, 2, 62, 0
8, 133500, Note_on_c, 2, 74, 84
8, 133500, Note_on_c, 2, 62, 84
8, 133544, Note_on_c, 2, 74, 0
8, 133544, Note_on_c, 2, 62, 0
8, 133560, Note_on_c, 2, 62, 84
8, 133560, Note_on_c, 2, 74, 84
8, 133724, Note_on_c, 2, 62, 0
8, 133724, Note_on_c, 2, 74, 0
8, 133740, Note_on_c, 2, 74, 84
8, 133740, Note_on_c, 2, 62, 84
8, 133784, Note_on_c, 2, 74, 0
8, 133784, Note_on_c, 2, 62, 0
8, 133800, Note_on_c, 2, 62, 84
8, 133800, Note_on_c, 2, 74, 84
8, 133964, Note_on_c, 2, 62, 0
8, 133964, Note_on_c, 2, 74, 0
8, 133980, Note_on_c, 2, 62, 84
8, 133980, Note_on_c, 2, 74, 84
8, 134024, Note_on_c, 2, 62, 0
8, 134024, Note_on_c, 2, 74, 0
8, 134040, Note_on_c, 2, 74, 84
8, 134040, Note_on_c, 2, 62, 84
8, 134204, Note_on_c, 2, 74, 0
8, 134204, Note_on_c, 2, 62, 0
8, 134220, Note_on_c, 2, 74, 84
8, 134220, Note_on_c, 2, 62, 84
8, 134264, Note_on_c, 2, 74, 0
8, 134264, Note_on_c, 2, 62, 0
8, 134280, Note_on_c, 2, 74, 84
8, 134280, Note_on_c, 2, 62, 84
8, 134444, Note_on_c, 2, 74, 0
8, 134444, Note_on_c, 2, 62, 0
8, 134460, Note_on_c, 2, 74, 84
8, 134460, Note_on_c, 2, 62, 84
8, 134504, Note_on_c, 2, 74, 0
8, 134504, Note_on_c, 2, 62, 0
8, 134520, Note_on_c, 2, 74, 84
8, 134520, Note_on_c, 2, 62, 84
8, 134684, Note_on_c, 2, 74, 0
8, 134684, Note_on_c, 2, 62, 0
8, 134700, Note_on_c, 2, 74, 84
8, 134700, Note_on_c, 2, 62, 84
8, 134744, Note_on_c, 2, 74, 0
8, 134744, Note_on_c, 2, 62, 0
8, 134760, Note_on_c, 2, 62, 84
8, 134760, Note_on_c, 2, 74, 84
8, 134924, Note_on_c, 2, 62, 0
8, 134924, Note_on_c, 2, 74, 0
8, 134940, Note_on_c, 2, 74, 84
8, 134940, Note_on_c, 2, 62, 84
8, 134984, Note_on_c, 2, 74, 0
8, 134984, Note_on_c, 2, 62, 0
8, 135000, Note_on_c, 2, 67, 84
8, 135000, Note_on_c, 2, 70, 84
8, 135089, Note_on_c, 2, 67, 0
8, 135089, Note_on_c, 2, 70, 0
8, 135120, Note_on_c, 2, 70, 84
8, 135120, Note_on_c, 2, 67, 84
8, 135209, Note_on_c, 2, 70, 0
8, 135209, Note_on_c, 2, 67, 0
8, 135240, Note_on_c, 2, 69, 84
8, 135240, Note_on_c, 2, 72, 84
8, 135329, Note_on_c, 2, 69, 0
8, 135329, Note_on_c, 2, 72, 0
8, 135360, Note_on_c, 2, 72, 84
8, 135360, Note_on_c, 2, 69, 84
8, 135449, Note_on_c, 2, 72, 0
8, 135449, Note_on_c, 2, 69, 0
8, 135480, Note_on_c, 2, 67, 84
8, 135480, Note_on_c, 2, 70, 84
8, 135569, Note_on_c, 2, 67, 0
8, 135569, Note_on_c, 2, 70, 0
8, 135600, Note_on_c, 2, 67, 84
8, 135600, Note_on_c, 2, 70, 84
8, 135689, Note_on_c, 2, 67, 0
8, 135689, Note_on_c, 2, 70, 0
8, 135720, Note_on_c, 2, 72, 84
8, 135720, Note_on_c, 2, 69, 84
8, 135809, Note_on_c, 2, 72, 0
8, 135809, Note_on_c, 2, 69, 0
8, 135840, Note_on_c, 2, 72, 84
8, 135840, Note_on_c, 2, 69, 84
8, 135929, Note_on_c, 2, 72, 0
8, 135929, Note_on_c, 2, 69, 0
8, 135960, Note_on_c, 2, 70, 84
8, 135960, Note_on_c, 2, 67, 84
8, 136049, Note_on_c, 2, 70, 0
8, 136049, Note_on_c, 2, 67, 0
8, 136080, Note_on_c, 2, 70, 84
8, 136080, Note_on_c, 2, 67, 84
8, 136169, Note_on_c, 2, 70, 0
8, 136169, Note_on_c, 2, 67, 0
8, 136200, Note_on_c, 2, 69, 84
8, 136200, Note_on_c, 2, 72, 84
8, 136289, Note_on_c, 2, 69, 0
8, 136289, Note_on_c, 2, 72, 0
8, 136320, Note_on_c, 2, 72, 84
8, 136320, Note_on_c, 2, 69, 84
8, 136409, Note_on_c, 2, 72, 0
8, 136409, Note_on_c, 2, 69, 0
8, 136440, Note_on_c, 2, 70, 84
8, 136440, Note_on_c, 2, 67, 84
8, 136529, Note_on_c, 2, 70, 0
8, 136529, Note_on_c, 2, 67, 0
8, 136560, Note_on_c, 2, 70, 84
8, 136560, Note_on_c, 2, 67, 84
8, 136649, Note_on_c, 2, 70, 0
8, 136649, Note_on_c, 2, 67, 0
8, 136680, Note_on_c, 2, 69, 84
8, 136680, Note_on_c, 2, 72, 84
8, 136769, Note_on_c, 2, 69, 0
8, 136769, Note_on_c, 2, 72, 0
8, 136800, Note_on_c, 2, 72, 84
8, 136800, Note_on_c, 2, 69, 84
8, 136889, Note_on_c, 2, 72, 0
8, 136889, Note_on_c, 2, 69, 0
8, 136920, Note_on_c, 2, 70, 84
8, 136920, Note_on_c, 2, 67, 84
8, 137159, Note_on_c, 2, 70, 0
8, 137159, Note_on_c, 2, 67, 0
8, 137400, Note_on_c, 2, 67, 84
8, 137639, Note_on_c, 2, 67, 0
8, 146040, Control_c, 2, 11, 96
8, 146520, Control_c, 2, 11, 96
8, 146520, Note_on_c, 2, 65, 68
8, 146570, Control_c, 2, 11, 99
8, 146620, Control_c, 2, 11, 101
8, 146670, Control_c, 2, 11, 104
8, 146720, Control_c, 2, 11, 106
8, 146770, Control_c, 2, 11, 109
8, 146820, Control_c, 2, 11, 112
8, 146870, Control_c, 2, 11, 114
8, 146920, Control_c, 2, 11, 117
8, 146970, Control_c, 2, 11, 119
8, 146984, Note_on_c, 2, 65, 0
8, 147000, Note_on_c, 2, 70, 68
8, 147020, Control_c, 2, 11, 122
8, 147070, Control_c, 2, 11, 127
8, 147464, Note_on_c, 2, 70, 0
8, 147480, Note_on_c, 2, 58, 68
8, 147480, Control_c, 2, 11, 127
8, 147520, Control_c, 2, 11, 124
8, 147560, Control_c, 2, 11, 122
8, 147600, Control_c, 2, 11, 119
8, 147640, Control_c, 2, 11, 117
8, 147680, Control_c, 2, 11, 114
8, 147720, Control_c, 2, 11, 112
8, 147760, Control_c, 2, 11, 109
8, 147800, Control_c, 2, 11, 106
8, 147840, Control_c, 2, 11, 104
8, 147880, Control_c, 2, 11, 101
8, 147920, Control_c, 2, 11, 96
8, 147944, Note_on_c, 2, 58, 0
8, 147960, Note_on_c, 2, 63, 68
8, 148079, Note_on_c, 2, 63, 0
8, 165720, Control_c, 2, 11, 127
8, 165960, Note_on_c, 2, 75, 84
8, 165960, Note_on_c, 2, 63, 84
8, 166664, Note_on_c, 2, 75, 0
8, 166664, Note_on_c, 2, 63, 0
8, 166680, Note_on_c, 2, 70, 84
8, 166680, Note_on_c, 2, 82, 84
8, 167144, Note_on_c, 2, 70, 0
8, 167144, Note_on_c, 2, 82, 0
8, 167160, Note_on_c, 2, 58, 84
8, 167160, Note_on_c, 2, 70, 84
8, 167624, Note_on_c, 2, 58, 0
8, 167624, Note_on_c, 2, 70, 0
8, 167640, Note_on_c, 2, 75, 84
8, 167640, Note_on_c, 2, 63, 84
8, 167984, Note_on_c, 2, 75, 0
8, 167984, Note_on_c, 2, 63, 0
8, 168000, Note_on_c, 2, 67, 84
8, 168000, Note_on_c, 2, 70, 84
8, 168089, Note_on_c, 2, 67, 0
8, 168089, Note_on_c, 2, 70, 0
8, 168120, Note_on_c, 2, 68, 84
8, 168120, Note_on_c, 2, 65, 84
8, 168209, Note_on_c, 2, 68, 0
8, 168209, Note_on_c, 2, 65, 0
8, 168240, Note_on_c, 2, 63, 84
8, 168240, Note_on_c, 2, 67, 84
8, 168329, Note_on_c, 2, 63, 0
8, 168329, Note_on_c, 2, 67, 0
8, 168360, Note_on_c, 2, 62, 84
8, 168360, Note_on_c, 2, 65, 84
8, 168449, Note_on_c, 2, 62, 0
8, 168449, Note_on_c, 2, 65, 0
8, 168480, Note_on_c, 2, 68, 84
8, 168480, Note_on_c, 2, 65, 84
8, 168569, Note_on_c, 2, 68, 0
8, 168569, Note_on_c, 2, 65, 0
8, 168600, Note_on_c, 2, 63, 84
8, 168600, Note_on_c, 2, 67, 84
8, 168944, Note_on_c, 2, 63, 0
8, 168944, Note_on_c, 2, 67, 0
8, 168960, Note_on_c, 2, 70, 84
8, 168960, Note_on_c, 2, 67, 84
8, 169049, Note_on_c, 2, 70, 0
8, 169049, Note_on_c, 2, 67, 0
8, 169080, Note_on_c, 2, 65, 84
8, 169080, Note_on_c, 2, 68, 84
8, 169169, Note_on_c, 2, 65, 0
8, 169169, Note_on_c, 2, 68, 0
8, 169200, Note_on_c, 2, 63, 84
8, 169200, Note_on_c, 2, 67, 84
8, 169289, Note_on_c, 2, 63, 0
8, 169289, Note_on_c, 2, 67, 0
8, 169320, Note_on_c, 2, 65, 84
8, 169320, Note_on_c, 2, 62, 84
8, 169409, Note_on_c, 2, 65, 0
8, 169409, Note_on_c, 2, 62, 0
8, 169440, Note_on_c, 2, 68, 84
8, 169440, Note_on_c, 2, 65, 84
8, 169529, Note_on_c, 2, 68, 0
8, 169529, Note_on_c, 2, 65, 0
8, 169560, Note_on_c, 2, 63, 84
8, 169560, Note_on_c, 2, 67, 84
8, 169649, Note_on_c, 2, 63, 0
8, 169649, Note_on_c, 2, 67, 0
8, 169680, Note_on_c, 2, 65, 84
8, 169680, Note_on_c, 2, 62, 84
8, 169769, Note_on_c, 2, 65, 0
8, 169769, Note_on_c, 2, 62, 0
8, 169800, Note_on_c, 2, 63, 84
8, 169800, Note_on_c, 2, 60, 84
8, 169889, Note_on_c, 2, 63, 0
8, 169889, Note_on_c, 2, 60, 0
8, 169920, Note_on_c, 2, 67, 84
8, 169920, Note_on_c, 2, 63, 84
8, 170009, Note_on_c, 2, 67, 0
8, 170009, Note_on_c, 2, 63, 0
8, 170040, Note_on_c, 2, 65, 84
8, 170040, Note_on_c, 2, 61, 84
8, 170129, Note_on_c, 2, 65, 0
8, 170129, Note_on_c, 2, 61, 0
8, 170160, Note_on_c, 2, 63, 84
8, 170160, Note_on_c, 2, 60, 84
8, 170249, Note_on_c, 2, 63, 0
8, 170249, Note_on_c, 2, 60, 0
8, 170280, Note_on_c, 2, 58, 84
8, 170280, Note_on_c, 2, 61, 84
8, 170369, Note_on_c, 2, 58, 0
8, 170369, Note_on_c, 2, 61, 0
8, 170400, Note_on_c, 2, 65, 84
8, 170400, Note_on_c, 2, 61, 84
8, 170489, Note_on_c, 2, 65, 0
8, 170489, Note_on_c, 2, 61, 0
8, 170520, Note_on_c, 2, 60, 84
8, 170520, Note_on_c, 2, 63, 84
8, 170609, Note_on_c, 2, 60, 0
8, 170609, Note_on_c, 2, 63, 0
8, 170640, Note_on_c, 2, 58, 84
8, 170640, Note_on_c, 2, 61, 84
8, 170729, Note_on_c, 2, 58, 0
8, 170729, Note_on_c, 2, 61, 0
8, 170760, Note_on_c, 2, 56, 84
8, 170760, Note_on_c, 2, 60, 84
8, 170849, Note_on_c, 2, 56, 0
8, 170849, Note_on_c, 2, 60, 0
8, 170880, Note_on_c, 2, 60, 84
8, 170880, Note_on_c, 2, 63, 84
8, 170969, Note_on_c, 2, 60, 0
8, 170969, Note_on_c, 2, 63, 0
8, 171000, Note_on_c, 2, 61, 84
8, 171000, Note_on_c, 2, 58, 84
8, 171089, Note_on_c, 2, 61, 0
8, 171089, Note_on_c, 2, 58, 0
8, 171120, Note_on_c, 2, 56, 84
8, 171120, Note_on_c, 2, 60, 84
8, 171209, Note_on_c, 2, 56, 0
8, 171209, Note_on_c, 2, 60, 0
8, 171240, Note_on_c, 2, 58, 84
8, 171240, Note_on_c, 2, 55, 84
8, 171329, Note_on_c, 2, 58, 0
8, 171329, Note_on_c, 2, 55, 0
8, 171360, Note_on_c, 2, 61, 84
8, 171360, Note_on_c, 2, 58, 84
8, 171449, Note_on_c, 2, 61, 0
8, 171449, Note_on_c, 2, 58, 0
8, 171480, Note_on_c, 2, 56, 84
8, 171480, Note_on_c, 2, 60, 84
8, 171569, Note_on_c, 2, 56, 0
8, 171569, Note_on_c, 2, 60, 0
8, 171600, Note_on_c, 2, 68, 84
8, 171600, Note_on_c, 2, 70, 84
8, 171689, Note_on_c, 2, 68, 0
8, 171689, Note_on_c, 2, 70, 0
8, 171720, Note_on_c, 2, 70, 84
8, 171720, Note_on_c, 2, 66, 84
8, 171809, Note_on_c, 2, 70, 0
8, 171809, Note_on_c, 2, 66, 0
8, 171840, Note_on_c, 2, 68, 84
8, 171840, Note_on_c, 2, 70, 84
8, 171929, Note_on_c, 2, 68, 0
8, 171929, Note_on_c, 2, 70, 0
8, 171960, Note_on_c, 2, 66, 84
8, 171960, Note_on_c, 2, 70, 84
8, 172049, Note_on_c, 2, 66, 0
8, 172049, Note_on_c, 2, 70, 0
8, 172080, Note_on_c, 2, 75, 84
8, 172080, Note_on_c, 2, 67, 84
8, 172169, Note_on_c, 2, 75, 0
8, 172169, Note_on_c, 2, 67, 0
8, 172200, Note_on_c, 2, 75, 84
8, 172200, Note_on_c, 2, 68, 84
8, 172289, Note_on_c, 2, 75, 0
8, 172289, Note_on_c, 2, 68, 0
8, 172320, Note_on_c, 2, 75, 84
8, 172320, Note_on_c, 2, 69, 84
8, 172409, Note_on_c, 2, 75, 0
8, 172409, Note_on_c, 2, 69, 0
8, 172440, Note_on_c, 2, 74, 84
8, 172440, Note_on_c, 2, 70, 84
8, 172679, Note_on_c, 2, 74, 0
8, 172679, Note_on_c, 2, 70, 0
8, 172920, Note_on_c, 2, 67, 92
8, 172920, Note_on_c, 2, 63, 92
8, 173369, Note_on_c, 2, 67, 0
8, 173369, Note_on_c, 2, 63, 0
8, 173400, Note_on_c, 2, 72, 84
8, 173400, Note_on_c, 2, 68, 84
8, 173579, Note_on_c, 2, 72, 0
8, 173579, Note_on_c, 2, 68, 0
8, 173640, Note_on_c, 2, 56, 84
8, 173640, Note_on_c, 2, 60, 84
8, 173819, Note_on_c, 2, 56, 0
8, 173819, Note_on_c, 2, 60, 0
8, 174480, Note_on_c, 2, 70, 84
8, 174480, Note_on_c, 2, 67, 84
8, 174569, Note_on_c, 2, 70, 0
8, 174569, Note_on_c, 2, 67, 0
8, 174600, Note_on_c, 2, 75, 84
8, 174600, Note_on_c, 2, 72, 84
8, 174689, Note_on_c, 2, 75, 0
8, 174689, Note_on_c, 2, 72, 0
8, 174720, Note_on_c, 2, 60, 84
8, 174720, Note_on_c, 2, 63, 84
8, 174809, Note_on_c, 2, 60, 0
8, 174809, Note_on_c, 2, 63, 0
8, 174960, Note_on_c, 2, 68, 84
8, 174960, Note_on_c, 2, 65, 84
8, 175049, Note_on_c, 2, 68, 0
8, 175049, Note_on_c, 2, 65, 0
8, 175080, Note_on_c, 2, 74, 84
8, 175080, Note_on_c, 2, 70, 84
8, 175169, Note_on_c, 2, 74, 0
8, 175169, Note_on_c, 2, 70, 0
8, 175200, Note_on_c, 2, 58, 84
8, 175200, Note_on_c, 2, 62, 84
8, 175289, Note_on_c, 2, 58, 0
8, 175289, Note_on_c, 2, 62, 0
8, 175440, Note_on_c, 2, 67, 84
8, 175560, Note_on_c, 2, 72, 84
8, 175664, Note_on_c, 2, 67, 0
8, 175680, Note_on_c, 2, 65, 84
8, 175799, Note_on_c, 2, 72, 0
8, 175800, Note_on_c, 2, 70, 84
8, 175919, Note_on_c, 2, 65, 0
8, 175919, Note_on_c, 2, 70, 0
8, 175920, Note_on_c, 2, 69, 84
8, 175920, Note_on_c, 2, 63, 84
8, 176039, Note_on_c, 2, 69, 0
8, 176040, Note_on_c, 2, 68, 84
8, 176144, Note_on_c, 2, 68, 0
8, 176159, Note_on_c, 2, 63, 0
8, 176160, Note_on_c, 2, 74, 84
8, 176160, Note_on_c, 2, 62, 84
8, 176264, Note_on_c, 2, 74, 0
8, 176280, Note_on_c, 2, 67, 84
8, 176384, Note_on_c, 2, 62, 0
8, 176384, Note_on_c, 2, 67, 0
8, 176400, Note_on_c, 2, 60, 84
8, 176400, Note_on_c, 2, 72, 84
8, 176504, Note_on_c, 2, 60, 0
8, 176520, Note_on_c, 2, 65, 84
8, 176624, Note_on_c, 2, 72, 0
8, 176640, Note_on_c, 2, 70, 84
8, 176744, Note_on_c, 2, 65, 0
8, 176760, Note_on_c, 2, 63, 84
8, 176879, Note_on_c, 2, 70, 0
8, 176880, Note_on_c, 2, 68, 84
8, 176984, Note_on_c, 2, 63, 0
8, 176984, Note_on_c, 2, 68, 0
8, 177000, Note_on_c, 2, 62, 84
8, 177000, Note_on_c, 2, 68, 84
8, 177089, Note_on_c, 2, 62, 0
8, 177089, Note_on_c, 2, 68, 0
8, 177120, Note_on_c, 2, 68, 84
8, 177120, Note_on_c, 2, 65, 84
8, 177209, Note_on_c, 2, 68, 0
8, 177209, Note_on_c, 2, 65, 0
8, 177240, Note_on_c, 2, 68, 84
8, 177240, Note_on_c, 2, 65, 84
8, 177344, Note_on_c, 2, 68, 0
8, 177344, Note_on_c, 2, 65, 0
8, 177360, Note_on_c, 2, 68, 84
8, 177360, Note_on_c, 2, 74, 84
8, 177464, Note_on_c, 2, 68, 0
8, 177464, Note_on_c, 2, 74, 0
8, 177480, Note_on_c, 2, 74, 84
8, 177480, Note_on_c, 2, 68, 84
8, 177584, Note_on_c, 2, 74, 0
8, 177584, Note_on_c, 2, 68, 0
8, 177600, Note_on_c, 2, 77, 84
8, 177600, Note_on_c, 2, 74, 84
8, 177704, Note_on_c, 2, 77, 0
8, 177704, Note_on_c, 2, 74, 0
8, 177720, Note_on_c, 2, 74, 84
8, 177720, Note_on_c, 2, 77, 84
8, 177839, Note_on_c, 2, 74, 0
8, 177839, Note_on_c, 2, 77, 0
8, 177960, Note_on_c, 2, 70, 84
8, 178064, Note_on_c, 2, 70, 0
8, 178080, Note_on_c, 2, 58, 84
8, 178184, Note_on_c, 2, 58, 0
8, 178200, Note_on_c, 2, 74, 84
8, 178304, Note_on_c, 2, 74, 0
8, 178320, Note_on_c, 2, 62, 84
8, 178424, Note_on_c, 2, 62, 0
8, 178440, Note_on_c, 2, 77, 84
8, 178544, Note_on_c, 2, 77, 0
8, 178560, Note_on_c, 2, 65, 84
8, 178664, Note_on_c, 2, 65, 0
8, 178680, Note_on_c, 2, 80, 84
8, 178680, Note_on_c, 2, 77, 84
8, 178769, Note_on_c, 2, 80, 0
8, 178769, Note_on_c, 2, 77, 0
8, 178800, Note_on_c, 2, 77, 84
8, 178800, Note_on_c, 2, 80, 84
8, 178889, Note_on_c, 2, 77, 0
8, 178889, Note_on_c, 2, 80, 0
8, 178920, Note_on_c, 2, 77, 84
8, 178920, Note_on_c, 2, 80, 84
8, 179009, Note_on_c, 2, 77, 0
8, 179009, Note_on_c, 2, 80, 0
8, 179040, Note_on_c, 2, 80, 84
8, 179040, Note_on_c, 2, 77, 84
8, 179129, Note_on_c, 2, 80, 0
8, 179129, Note_on_c, 2, 77, 0
8, 179160, Note_on_c, 2, 77, 84
8, 179160, Note_on_c, 2, 80, 84
8, 179264, Note_on_c, 2, 77, 0
8, 179264, Note_on_c, 2, 80, 0
8, 179280, Note_on_c, 2, 68, 84
8, 179280, Note_on_c, 2, 75, 84
8, 179384, Note_on_c, 2, 75, 0
8, 179400, Note_on_c, 2, 74, 84
8, 179504, Note_on_c, 2, 74, 0
8, 179520, Note_on_c, 2, 75, 84
8, 179624, Note_on_c, 2, 75, 0
8, 179640, Note_on_c, 2, 74, 84
8, 179744, Note_on_c, 2, 74, 0
8, 179760, Note_on_c, 2, 75, 84
8, 179864, Note_on_c, 2, 75, 0
8, 179880, Note_on_c, 2, 74, 84
8, 179984, Note_on_c, 2, 74, 0
8, 180000, Note_on_c, 2, 75, 84
8, 180104, Note_on_c, 2, 75, 0
8, 180120, Note_on_c, 2, 74, 84
8, 180359, Note_on_c, 2, 68, 0
8, 180359, Note_on_c, 2, 74, 0
8, 181320, Note_on_c, 2, 65, 92
8, 181320, Note_on_c, 2, 68, 92
8, 181769, Note_on_c, 2, 65, 0
8, 181769, Note_on_c, 2, 68, 0
8, 181800, Note_on_c, 2, 77, 92
8, 181800, Note_on_c, 2, 74, 92
8, 182369, Note_on_c, 2, 77, 0
8, 182369, Note_on_c, 2, 74, 0
8, 182520, Note_on_c, 2, 70, 52
8, 182751, Note_on_c, 2, 70, 0
8, 182760, Note_on_c, 2, 70, 52
8, 182991, Note_on_c, 2, 70, 0
8, 183000, Note_on_c, 2, 70, 52
8, 183359, Note_on_c, 2, 70, 0
8, 183360, Note_on_c, 2, 72, 52
8, 183419, Note_on_c, 2, 72, 0
8, 183420, Note_on_c, 2, 70, 52
8, 183475, Note_on_c, 2, 70, 0
8, 183480, Note_on_c, 2, 68, 52
8, 183711, Note_on_c, 2, 68, 0
8, 183720, Note_on_c, 2, 68, 68
8, 183929, Note_on_c, 2, 68, 0
8, 183930, Note_on_c, 2, 67, 52
8, 183955, Note_on_c, 2, 67, 0
8, 183960, Note_on_c, 2, 67, 52
8, 184311, Note_on_c, 2, 67, 0
8, 184320, Note_on_c, 2, 67, 52
8, 184431, Note_on_c, 2, 67, 0
8, 184436, Control_c, 2, 11, 96
8, 184440, Note_on_c, 2, 70, 68
8, 184440, Control_c, 2, 11, 96
8, 184460, Control_c, 2, 11, 97
8, 184480, Control_c, 2, 11, 99
8, 184500, Control_c, 2, 11, 100
8, 184520, Control_c, 2, 11, 101
8, 184540, Control_c, 2, 11, 102
8, 184560, Control_c, 2, 11, 104
8, 184580, Control_c, 2, 11, 105
8, 184600, Control_c, 2, 11, 106
8, 184620, Control_c, 2, 11, 108
8, 184640, Control_c, 2, 11, 109
8, 184649, Note_on_c, 2, 70, 0
8, 184660, Control_c, 2, 11, 110
8, 184680, Control_c, 2, 11, 112
8, 184680, Note_on_c, 2, 70, 68
8, 184700, Control_c, 2, 11, 113
8, 184720, Control_c, 2, 11, 114
8, 184740, Control_c, 2, 11, 115
8, 184760, Control_c, 2, 11, 117
8, 184780, Control_c, 2, 11, 118
8, 184800, Control_c, 2, 11, 119
8, 184820, Control_c, 2, 11, 121
8, 184840, Control_c, 2, 11, 122
8, 184859, Note_on_c, 2, 70, 0
8, 184860, Control_c, 2, 11, 123
8, 184880, Control_c, 2, 11, 124
8, 184900, Control_c, 2, 11, 127
8, 184920, Note_on_c, 2, 70, 76
8, 184950, Control_c, 2, 11, 112
8, 184969, Control_c, 2, 11, 111
8, 184988, Control_c, 2, 11, 109
8, 185006, Control_c, 2, 11, 108
8, 185025, Control_c, 2, 11, 107
8, 185044, Control_c, 2, 11, 105
8, 185063, Control_c, 2, 11, 104
8, 185081, Control_c, 2, 11, 103
8, 185100, Control_c, 2, 11, 101
8, 185119, Control_c, 2, 11, 100
8, 185138, Control_c, 2, 11, 99
8, 185156, Control_c, 2, 11, 97
8, 185175, Control_c, 2, 11, 96
8, 185194, Control_c, 2, 11, 95
8, 185213, Control_c, 2, 11, 93
8, 185231, Control_c, 2, 11, 92
8, 185250, Control_c, 2, 11, 91
8, 185264, Note_on_c, 2, 70, 0
8, 185269, Control_c, 2, 11, 89
8, 185280, Note_on_c, 2, 75, 76
8, 185288, Control_c, 2, 11, 88
8, 185306, Control_c, 2, 11, 87
8, 185325, Control_c, 2, 11, 85
8, 185344, Control_c, 2, 11, 84
8, 185363, Control_c, 2, 11, 83
8, 185381, Control_c, 2, 11, 80
8, 185383, Note_on_c, 2, 75, 0
8, 185400, Note_on_c, 2, 75, 76
8, 185519, Note_on_c, 2, 75, 0
8, 185520, Note_on_c, 2, 70, 76
8, 185631, Note_on_c, 2, 70, 0
8, 185640, Note_on_c, 2, 70, 76
8, 185759, Note_on_c, 2, 70, 0
8, 185760, Note_on_c, 2, 69, 76
8, 185819, Note_on_c, 2, 69, 0
8, 185820, Note_on_c, 2, 75, 76
8, 185875, Note_on_c, 2, 75, 0
8, 185880, Control_c, 2, 11, 80
8, 185880, Note_on_c, 2, 75, 76
8, 185890, Control_c, 2, 11, 83
8, 185900, Control_c, 2, 11, 85
8, 185910, Control_c, 2, 11, 88
8, 185920, Control_c, 2, 11, 91
8, 185930, Control_c, 2, 11, 93
8, 185940, Control_c, 2, 11, 96
8, 185950, Control_c, 2, 11, 99
8, 185960, Control_c, 2, 11, 101
8, 185970, Control_c, 2, 11, 104
8, 185980, Control_c, 2, 11, 107
8, 185990, Control_c, 2, 11, 109
8, 186000, Control_c, 2, 11, 112
8, 186010, Control_c, 2, 11, 109
8, 186020, Control_c, 2, 11, 107
8, 186030, Control_c, 2, 11, 104
8, 186040, Control_c, 2, 11, 101
8, 186050, Control_c, 2, 11, 99
8, 186060, Control_c, 2, 11, 96
8, 186070, Control_c, 2, 11, 93
8, 186080, Control_c, 2, 11, 91
8, 186090, Control_c, 2, 11, 88
8, 186100, Control_c, 2, 11, 85
8, 186110, Control_c, 2, 11, 80
8, 186119, Note_on_c, 2, 75, 0
8, 186120, Note_on_c, 2, 74, 76
8, 186239, Note_on_c, 2, 74, 0
8, 186960, Note_on_c, 2, 70, 76
8, 187019, Note_on_c, 2, 70, 0
8, 187020, Note_on_c, 2, 72, 76
8, 187075, Note_on_c, 2, 72, 0
8, 187080, Note_on_c, 2, 74, 76
8, 187131, Note_on_c, 2, 74, 0
8, 187140, Note_on_c, 2, 75, 76
8, 187191, Note_on_c, 2, 75, 0
8, 187200, Note_on_c, 2, 77, 76
8, 187251, Note_on_c, 2, 77, 0
8, 187260, Note_on_c, 2, 79, 76
8, 187311, Note_on_c, 2, 79, 0
8, 187320, Note_on_c, 2, 80, 76
8, 187439, Note_on_c, 2, 80, 0
8, 188500, Control_c, 2, 11, 95
8, 188520, Control_c, 2, 11, 97
8, 188520, Note_on_c, 2, 80, 76
8, 188540, Control_c, 2, 11, 98
8, 188560, Control_c, 2, 11, 99
8, 188580, Control_c, 2, 11, 100
8, 188600, Control_c, 2, 11, 102
8, 188620, Control_c, 2, 11, 103
8, 188640, Control_c, 2, 11, 104
8, 188660, Control_c, 2, 11, 106
8, 188680, Control_c, 2, 11, 107
8, 188700, Control_c, 2, 11, 108
8, 188720, Control_c, 2, 11, 109
8, 188729, Note_on_c, 2, 80, 0
8, 188730, Note_on_c, 2, 79, 76
8, 188755, Note_on_c, 2, 79, 0
8, 188758, Control_c, 2, 11, 127
8, 188760, Note_on_c, 2, 79, 76
8, 188790, Control_c, 2, 11, 112
8, 188809, Control_c, 2, 11, 111
8, 188828, Control_c, 2, 11, 109
8, 188846, Control_c, 2, 11, 108
8, 188865, Control_c, 2, 11, 107
8, 188884, Control_c, 2, 11, 105
8, 188903, Control_c, 2, 11, 104
8, 188921, Control_c, 2, 11, 103
8, 188940, Control_c, 2, 11, 101
8, 188959, Control_c, 2, 11, 100
8, 188978, Control_c, 2, 11, 99
8, 188996, Control_c, 2, 11, 97
8, 189015, Control_c, 2, 11, 96
8, 189034, Control_c, 2, 11, 95
8, 189053, Control_c, 2, 11, 93
8, 189071, Control_c, 2, 11, 92
8, 189090, Control_c, 2, 11, 91
8, 189109, Control_c, 2, 11, 89
8, 189111, Note_on_c, 2, 79, 0
8, 189120, Note_on_c, 2, 79, 76
8, 189128, Control_c, 2, 11, 88
8, 189146, Control_c, 2, 11, 87
8, 189165, Control_c, 2, 11, 85
8, 189184, Control_c, 2, 11, 84
8, 189203, Control_c, 2, 11, 83
8, 189221, Control_c, 2, 11, 80
8, 189351, Note_on_c, 2, 79, 0
8, 189360, Note_on_c, 2, 77, 76
8, 189479, Note_on_c, 2, 77, 0
8, 189480, Note_on_c, 2, 77, 76
8, 189591, Note_on_c, 2, 77, 0
8, 189600, Note_on_c, 2, 75, 76
8, 189720, Control_c, 2, 11, 80
8, 189730, Control_c, 2, 11, 83
8, 189740, Control_c, 2, 11, 85
8, 189750, Control_c, 2, 11, 88
8, 189760, Control_c, 2, 11, 91
8, 189770, Control_c, 2, 11, 93
8, 189780, Control_c, 2, 11, 96
8, 189790, Control_c, 2, 11, 99
8, 189800, Control_c, 2, 11, 101
8, 189810, Control_c, 2, 11, 104
8, 189820, Control_c, 2, 11, 107
8, 189830, Control_c, 2, 11, 109
8, 189840, Control_c, 2, 11, 112
8, 189850, Control_c, 2, 11, 109
8, 189860, Control_c, 2, 11, 107
8, 189870, Control_c, 2, 11, 104
8, 189880, Control_c, 2, 11, 101
8, 189890, Control_c, 2, 11, 99
8, 189900, Control_c, 2, 11, 96
8, 189910, Control_c, 2, 11, 93
8, 189920, Control_c, 2, 11, 91
8, 189930, Control_c, 2, 11, 88
8, 189940, Control_c, 2, 11, 85
8, 189950, Control_c, 2, 11, 80
8, 189959, Note_on_c, 2, 75, 0
8, 189960, Note_on_c, 2, 74, 76
8, 190079, Note_on_c, 2, 74, 0
8, 190132, Control_c, 2, 11, 96
8, 190200, Note_on_c, 2, 53, 68
8, 190235, Note_on_c, 2, 53, 0
8, 190240, Note_on_c, 2, 56, 68
8, 190275, Note_on_c, 2, 56, 0
8, 190280, Note_on_c, 2, 58, 68
8, 190315, Note_on_c, 2, 58, 0
8, 190320, Note_on_c, 2, 62, 68
8, 190355, Note_on_c, 2, 62, 0
8, 190360, Note_on_c, 2, 58, 68
8, 190395, Note_on_c, 2, 58, 0
8, 190400, Note_on_c, 2, 56, 68
8, 190435, Note_on_c, 2, 56, 0
8, 190440, Note_on_c, 2, 53, 68
8, 190475, Note_on_c, 2, 53, 0
8, 190480, Note_on_c, 2, 56, 68
8, 190515, Note_on_c, 2, 56, 0
8, 190520, Note_on_c, 2, 58, 68
8, 190555, Note_on_c, 2, 58, 0
8, 190560, Note_on_c, 2, 62, 68
8, 190595, Note_on_c, 2, 62, 0
8, 190600, Note_on_c, 2, 58, 68
8, 190635, Note_on_c, 2, 58, 0
8, 190640, Note_on_c, 2, 56, 68
8, 190675, Note_on_c, 2, 56, 0
8, 190678, Control_c, 2, 11, 112
8, 190680, Note_on_c, 2, 53, 60
8, 190715, Note_on_c, 2, 53, 0
8, 190720, Note_on_c, 2, 56, 60
8, 190755, Note_on_c, 2, 56, 0
8, 190760, Note_on_c, 2, 58, 60
8, 190795, Note_on_c, 2, 58, 0
8, 190800, Note_on_c, 2, 62, 60
8, 190835, Note_on_c, 2, 62, 0
8, 190840, Note_on_c, 2, 58, 60
8, 190875, Note_on_c, 2, 58, 0
8, 190880, Note_on_c, 2, 56, 60
8, 190915, Note_on_c, 2, 56, 0
8, 190920, Note_on_c, 2, 53, 60
8, 190955, Note_on_c, 2, 53, 0
8, 190960, Note_on_c, 2, 56, 60
8, 190995, Note_on_c, 2, 56, 0
8, 191000, Note_on_c, 2, 58, 60
8, 191035, Note_on_c, 2, 58, 0
8, 191040, Note_on_c, 2, 62, 60
8, 191075, Note_on_c, 2, 62, 0
8, 191080, Note_on_c, 2, 58, 60
8, 191115, Note_on_c, 2, 58, 0
8, 191120, Note_on_c, 2, 56, 60
8, 191155, Note_on_c, 2, 56, 0
8, 191158, Control_c, 2, 11, 127
8, 191160, Note_on_c, 2, 56, 52
8, 191195, Note_on_c, 2, 56, 0
8, 191200, Note_on_c, 2, 58, 52
8, 191235, Note_on_c, 2, 58, 0
8, 191240, Note_on_c, 2, 62, 52
8, 191275, Note_on_c, 2, 62, 0
8, 191280, Note_on_c, 2, 65, 52
8, 191315, Note_on_c, 2, 65, 0
8, 191320, Note_on_c, 2, 62, 52
8, 191355, Note_on_c, 2, 62, 0
8, 191360, Note_on_c, 2, 58, 52
8, 191395, Note_on_c, 2, 58, 0
8, 191400, Note_on_c, 2, 56, 52
8, 191435, Note_on_c, 2, 56, 0
8, 191440, Note_on_c, 2, 58, 52
8, 191475, Note_on_c, 2, 58, 0
8, 191480, Note_on_c, 2, 62, 52
8, 191515, Note_on_c, 2, 62, 0
8, 191520, Note_on_c, 2, 65, 52
8, 191555, Note_on_c, 2, 65, 0
8, 191560, Note_on_c, 2, 62, 52
8, 191595, Note_on_c, 2, 62, 0
8, 191600, Note_on_c, 2, 58, 52
8, 191635, Note_on_c, 2, 58, 0
8, 191640, Note_on_c, 2, 56, 52
8, 191675, Note_on_c, 2, 56, 0
8, 191680, Note_on_c, 2, 58, 52
8, 191715, Note_on_c, 2, 58, 0
8, 191720, Note_on_c, 2, 62, 52
8, 191755, Note_on_c, 2, 62, 0
8, 191760, Note_on_c, 2, 65, 52
8, 191795, Note_on_c, 2, 65, 0
8, 191800, Note_on_c, 2, 62, 52
8, 191835, Note_on_c, 2, 62, 0
8, 191840, Note_on_c, 2, 58, 52
8, 191875, Note_on_c, 2, 58, 0
8, 191880, Note_on_c, 2, 65, 52
8, 191915, Note_on_c, 2, 65, 0
8, 191920, Note_on_c, 2, 62, 52
8, 191955, Note_on_c, 2, 62, 0
8, 191960, Note_on_c, 2, 58, 52
8, 191995, Note_on_c, 2, 58, 0
8, 192000, Note_on_c, 2, 65, 52
8, 192035, Note_on_c, 2, 65, 0
8, 192040, Note_on_c, 2, 62, 52
8, 192075, Note_on_c, 2, 62, 0
8, 192080, Note_on_c, 2, 58, 52
8, 192115, Note_on_c, 2, 58, 0
8, 192120, Note_on_c, 2, 58, 52
8, 192155, Note_on_c, 2, 58, 0
8, 192160, Note_on_c, 2, 63, 52
8, 192195, Note_on_c, 2, 63, 0
8, 192200, Note_on_c, 2, 67, 53
8, 192235, Note_on_c, 2, 67, 0
8, 192240, Note_on_c, 2, 70, 54
8, 192275, Note_on_c, 2, 70, 0
8, 192280, Note_on_c, 2, 75, 54
8, 192315, Note_on_c, 2, 75, 0
8, 192320, Note_on_c, 2, 79, 55
8, 192355, Note_on_c, 2, 79, 0
8, 192360, Note_on_c, 2, 82, 56
8, 192395, Note_on_c, 2, 82, 0
8, 192400, Note_on_c, 2, 79, 56
8, 192435, Note_on_c, 2, 79, 0
8, 192440, Note_on_c, 2, 75, 57
8, 192475, Note_on_c, 2, 75, 0
8, 192480, Note_on_c, 2, 70, 58
8, 192515, Note_on_c, 2, 70, 0
8, 192520, Note_on_c, 2, 67, 58
8, 192555, Note_on_c, 2, 67, 0
8, 192560, Note_on_c, 2, 63, 59
8, 192595, Note_on_c, 2, 63, 0
8, 192600, Note_on_c, 2, 60, 60
8, 192635, Note_on_c, 2, 60, 0
8, 192640, Note_on_c, 2, 65, 60
8, 192675, Note_on_c, 2, 65, 0
8, 192680, Note_on_c, 2, 68, 61
8, 192715, Note_on_c, 2, 68, 0
8, 192720, Note_on_c, 2, 72, 62
8, 192755, Note_on_c, 2, 72, 0
8, 192760, Note_on_c, 2, 77, 62
8, 192795, Note_on_c, 2, 77, 0
8, 192800, Note_on_c, 2, 80, 63
8, 192835, Note_on_c, 2, 80, 0
8, 192840, Note_on_c, 2, 84, 64
8, 192875, Note_on_c, 2, 84, 0
8, 192880, Note_on_c, 2, 80, 64
8, 192915, Note_on_c, 2, 80, 0
8, 192920, Note_on_c, 2, 77, 65
8, 192955, Note_on_c, 2, 77, 0
8, 192960, Note_on_c, 2, 72, 66
8, 192995, Note_on_c, 2, 72, 0
8, 193000, Note_on_c, 2, 68, 66
8, 193035, Note_on_c, 2, 68, 0
8, 193040, Note_on_c, 2, 65, 67
8, 193075, Note_on_c, 2, 65, 0
8, 193078, Control_c, 2, 11, 96
8, 193080, Control_c, 2, 11, 96
8, 193080, Note_on_c, 2, 67, 68
8, 193095, Control_c, 2, 11, 99
8, 193110, Control_c, 2, 11, 101
8, 193115, Note_on_c, 2, 67, 0
8, 193120, Note_on_c, 2, 70, 68
8, 193125, Control_c, 2, 11, 104
8, 193140, Control_c, 2, 11, 106
8, 193155, Note_on_c, 2, 70, 0
8, 193155, Control_c, 2, 11, 109
8, 193160, Note_on_c, 2, 75, 68
8, 193170, Control_c, 2, 11, 112
8, 193185, Control_c, 2, 11, 114
8, 193195, Note_on_c, 2, 75, 0
8, 193200, Note_on_c, 2, 79, 68
8, 193200, Control_c, 2, 11, 117
8, 193215, Control_c, 2, 11, 119
8, 193230, Control_c, 2, 11, 122
8, 193235, Note_on_c, 2, 79, 0
8, 193240, Note_on_c, 2, 77, 68
8, 193245, Control_c, 2, 11, 127
8, 193260, Control_c, 2, 11, 127
8, 193275, Note_on_c, 2, 77, 0
8, 193275, Control_c, 2, 11, 124
8, 193280, Note_on_c, 2, 75, 68
8, 193290, Control_c, 2, 11, 122
8, 193305, Control_c, 2, 11, 119
8, 193315, Note_on_c, 2, 75, 0
8, 193320, Note_on_c, 2, 74, 68
8, 193320, Control_c, 2, 11, 117
8, 193335, Control_c, 2, 11, 114
8, 193350, Control_c, 2, 11, 112
8, 193355, Note_on_c, 2, 74, 0
8, 193360, Note_on_c, 2, 72, 68
8, 193365, Control_c, 2, 11, 109
8, 193380, Control_c, 2, 11, 106
8, 193395, Note_on_c, 2, 72, 0
8, 193395, Control_c, 2, 11, 104
8, 193400, Note_on_c, 2, 70, 68
8, 193410, Control_c, 2, 11, 101
8, 193425, Control_c, 2, 11, 96
8, 193435, Note_on_c, 2, 70, 0
8, 193440, Note_on_c, 2, 68, 68
8, 193475, Note_on_c, 2, 68, 0
8, 193480, Note_on_c, 2, 67, 68
8, 193515, Note_on_c, 2, 67, 0
8, 193520, Note_on_c, 2, 65, 68
8, 193555, Note_on_c, 2, 65, 0
8, 193560, Note_on_c, 2, 67, 68
8, 193679, Note_on_c, 2, 67, 0
8, 194010, Control_c, 2, 11, 127
8, 194040, Note_on_c, 2, 58, 52
8, 194084, Note_on_c, 2, 58, 0
8, 194100, Note_on_c, 2, 68, 60
8, 194204, Note_on_c, 2, 68, 0
8, 194220, Note_on_c, 2, 67, 52
8, 194264, Note_on_c, 2, 67, 0
8, 194280, Note_on_c, 2, 67, 52
8, 194324, Note_on_c, 2, 67, 0
8, 194340, Note_on_c, 2, 65, 60
8, 194444, Note_on_c, 2, 65, 0
8, 194460, Note_on_c, 2, 63, 52
8, 194504, Note_on_c, 2, 63, 0
8, 194520, Note_on_c, 2, 63, 52
8, 194564, Note_on_c, 2, 63, 0
8, 194580, Note_on_c, 2, 62, 60
8, 194684, Note_on_c, 2, 62, 0
8, 194700, Note_on_c, 2, 63, 52
8, 194744, Note_on_c, 2, 63, 0
8, 194760, Note_on_c, 2, 65, 52
8, 194804, Note_on_c, 2, 65, 0
8, 194820, Note_on_c, 2, 67, 52
8, 194864, Note_on_c, 2, 67, 0
8, 194880, Note_on_c, 2, 68, 52
8, 194924, Note_on_c, 2, 68, 0
8, 194940, Note_on_c, 2, 70, 52
8, 194984, Note_on_c, 2, 70, 0
8, 195000, Note_on_c, 2, 71, 52
8, 195044, Note_on_c, 2, 71, 0
8, 195060, Note_on_c, 2, 72, 60
8, 195164, Note_on_c, 2, 72, 0
8, 195180, Note_on_c, 2, 70, 52
8, 195224, Note_on_c, 2, 70, 0
8, 195240, Note_on_c, 2, 70, 52
8, 195284, Note_on_c, 2, 70, 0
8, 195300, Note_on_c, 2, 68, 60
8, 195404, Note_on_c, 2, 68, 0
8, 195420, Note_on_c, 2, 67, 52
8, 195464, Note_on_c, 2, 67, 0
8, 195480, Note_on_c, 2, 67, 52
8, 195524, Note_on_c, 2, 67, 0
8, 195540, Note_on_c, 2, 65, 60
8, 195644, Note_on_c, 2, 65, 0
8, 195660, Note_on_c, 2, 64, 52
8, 195704, Note_on_c, 2, 64, 0
8, 195720, Note_on_c, 2, 65, 52
8, 195764, Note_on_c, 2, 65, 0
8, 195780, Note_on_c, 2, 66, 52
8, 195824, Note_on_c, 2, 66, 0
8, 195840, Note_on_c, 2, 67, 52
8, 195884, Note_on_c, 2, 67, 0
8, 195900, Note_on_c, 2, 68, 52
8, 195944, Note_on_c, 2, 68, 0
8, 195958, Control_c, 2, 11, 96
8, 195960, Control_c, 2, 11, 96
8, 195960, Note_on_c, 2, 69, 68
8, 196000, Control_c, 2, 11, 97
8, 196004, Note_on_c, 2, 69, 0
8, 196020, Note_on_c, 2, 70, 68
8, 196040, Control_c, 2, 11, 99
8, 196080, Control_c, 2, 11, 100
8, 196120, Control_c, 2, 11, 101
8, 196131, Note_on_c, 2, 70, 0
8, 196140, Note_on_c, 2, 70, 68
8, 196160, Control_c, 2, 11, 102
8, 196184, Note_on_c, 2, 70, 0
8, 196200, Control_c, 2, 11, 104
8, 196240, Control_c, 2, 11, 105
8, 196280, Control_c, 2, 11, 106
8, 196320, Control_c, 2, 11, 108
8, 196360, Control_c, 2, 11, 109
8, 196400, Control_c, 2, 11, 110
8, 196440, Control_c, 2, 11, 112
8, 196440, Note_on_c, 2, 71, 68
8, 196480, Control_c, 2, 11, 113
8, 196484, Note_on_c, 2, 71, 0
8, 196500, Note_on_c, 2, 72, 68
8, 196520, Control_c, 2, 11, 114
8, 196560, Control_c, 2, 11, 115
8, 196600, Control_c, 2, 11, 117
8, 196611, Note_on_c, 2, 72, 0
8, 196620, Note_on_c, 2, 72, 68
8, 196640, Control_c, 2, 11, 118
8, 196664, Note_on_c, 2, 72, 0
8, 196680, Control_c, 2, 11, 119
8, 196720, Control_c, 2, 11, 121
8, 196760, Control_c, 2, 11, 122
8, 196800, Control_c, 2, 11, 123
8, 196840, Control_c, 2, 11, 124
8, 196918, Control_c, 2, 11, 96
8, 196920, Control_c, 2, 11, 96
8, 196920, Note_on_c, 2, 69, 68
8, 196940, Control_c, 2, 11, 99
8, 196960, Control_c, 2, 11, 101
8, 196964, Note_on_c, 2, 69, 0
8, 196980, Note_on_c, 2, 70, 68
8, 196980, Control_c, 2, 11, 104
8, 197000, Control_c, 2, 11, 106
8, 197020, Control_c, 2, 11, 109
8, 197040, Control_c, 2, 11, 112
8, 197060, Control_c, 2, 11, 114
8, 197080, Control_c, 2, 11, 117
8, 197091, Note_on_c, 2, 70, 0
8, 197100, Note_on_c, 2, 70, 68
8, 197100, Control_c, 2, 11, 119
8, 197120, Control_c, 2, 11, 122
8, 197140, Control_c, 2, 11, 124
8, 197144, Note_on_c, 2, 70, 0
8, 197160, Note_on_c, 2, 69, 68
8, 197160, Control_c, 2, 11, 127
8, 197180, Control_c, 2, 11, 124
8, 197200, Control_c, 2, 11, 122
8, 197204, Note_on_c, 2, 69, 0
8, 197220, Control_c, 2, 11, 119
8, 197220, Note_on_c, 2, 70, 68
8, 197240, Control_c, 2, 11, 117
8, 197260, Control_c, 2, 11, 114
8, 197280, Control_c, 2, 11, 112
8, 197300, Control_c, 2, 11, 109
8, 197320, Control_c, 2, 11, 106
8, 197331, Note_on_c, 2, 70, 0
8, 197340, Control_c, 2, 11, 104
8, 197340, Note_on_c, 2, 70, 68
8, 197360, Control_c, 2, 11, 101
8, 197380, Control_c, 2, 11, 96
8, 197384, Note_on_c, 2, 70, 0
8, 197400, Note_on_c, 2, 63, 68
8, 197519, Note_on_c, 2, 63, 0
8, 197640, Control_c, 2, 11, 127
8, 197760, Note_on_c, 2, 63, 84
8, 197871, Note_on_c, 2, 63, 0
8, 197880, Note_on_c, 2, 67, 92
8, 198224, Note_on_c, 2, 67, 0
8, 198240, Note_on_c, 2, 63, 84
8, 198351, Note_on_c, 2, 63, 0
8, 198360, Note_on_c, 2, 62, 92
8, 198704, Note_on_c, 2, 62, 0
8, 198720, Note_on_c, 2, 65, 84
8, 198831, Note_on_c, 2, 65, 0
8, 198840, Note_on_c, 2, 68, 92
8, 199184, Note_on_c, 2, 68, 0
8, 199200, Note_on_c, 2, 65, 84
8, 199311, Note_on_c, 2, 65, 0
8, 199320, Note_on_c, 2, 63, 92
8, 199664, Note_on_c, 2, 63, 0
8, 199680, Note_on_c, 2, 67, 84
8, 199791, Note_on_c, 2, 67, 0
8, 199800, Note_on_c, 2, 70, 84
8, 199979, Note_on_c, 2, 70, 0
8, 200040, Note_on_c, 2, 70, 84
8, 200219, Note_on_c, 2, 70, 0
8, 200280, Note_on_c, 2, 70, 92
8, 200624, Note_on_c, 2, 70, 0
8, 200640, Note_on_c, 2, 67, 84
8, 200751, Note_on_c, 2, 67, 0
8, 200760, Note_on_c, 2, 70, 84
8, 200819, Note_on_c, 2, 70, 0
8, 200820, Note_on_c, 2, 68, 84
8, 200875, Note_on_c, 2, 68, 0
8, 200880, Note_on_c, 2, 65, 84
8, 200969, Note_on_c, 2, 65, 0
8, 201000, Note_on_c, 2, 68, 84
8, 201059, Note_on_c, 2, 68, 0
8, 201060, Note_on_c, 2, 67, 84
8, 201115, Note_on_c, 2, 67, 0
8, 201120, Note_on_c, 2, 63, 84
8, 201209, Note_on_c, 2, 63, 0
8, 201240, Note_on_c, 2, 67, 84
8, 201479, Note_on_c, 2, 67, 0
8, 201480, Note_on_c, 2, 65, 84
8, 201591, Note_on_c, 2, 65, 0
8, 201600, Note_on_c, 2, 58, 84
8, 201659, Note_on_c, 2, 58, 0
8, 201660, Note_on_c, 2, 57, 84
8, 201715, Note_on_c, 2, 57, 0
8, 201720, Note_on_c, 2, 58, 84
8, 201764, Note_on_c, 2, 58, 0
8, 201780, Note_on_c, 2, 60, 84
8, 201824, Note_on_c, 2, 60, 0
8, 201840, Note_on_c, 2, 62, 84
8, 201884, Note_on_c, 2, 62, 0
8, 201900, Note_on_c, 2, 63, 84
8, 201944, Note_on_c, 2, 63, 0
8, 201960, Note_on_c, 2, 65, 84
8, 202004, Note_on_c, 2, 65, 0
8, 202020, Note_on_c, 2, 67, 84
8, 202064, Note_on_c, 2, 67, 0
8, 202080, Note_on_c, 2, 68, 84
8, 202124, Note_on_c, 2, 68, 0
8, 202140, Note_on_c, 2, 67, 84
8, 202184, Note_on_c, 2, 67, 0
8, 202200, Note_on_c, 2, 68, 84
8, 202289, Note_on_c, 2, 68, 0
8, 202320, Note_on_c, 2, 68, 84
8, 202409, Note_on_c, 2, 68, 0
8, 202440, Note_on_c, 2, 68, 84
8, 202529, Note_on_c, 2, 68, 0
8, 202560, Note_on_c, 2, 58, 84
8, 202619, Note_on_c, 2, 58, 0
8, 202620, Note_on_c, 2, 57, 84
8, 202675, Note_on_c, 2, 57, 0
8, 202680, Note_on_c, 2, 58, 84
8, 202724, Note_on_c, 2, 58, 0
8, 202740, Note_on_c, 2, 60, 84
8, 202784, Note_on_c, 2, 60, 0
8, 202800, Note_on_c, 2, 62, 84
8, 202844, Note_on_c, 2, 62, 0
8, 202860, Note_on_c, 2, 63, 84
8, 202904, Note_on_c, 2, 63, 0
8, 202920, Note_on_c, 2, 65, 84
8, 202964, Note_on_c, 2, 65, 0
8, 202980, Note_on_c, 2, 67, 84
8, 203024, Note_on_c, 2, 67, 0
8, 203040, Note_on_c, 2, 68, 84
8, 203084, Note_on_c, 2, 68, 0
8, 203100, Note_on_c, 2, 67, 84
8, 203144, Note_on_c, 2, 67, 0
8, 203160, Note_on_c, 2, 68, 84
8, 203519, Note_on_c, 2, 68, 0
8, 203520, Note_on_c, 2, 69, 84
8, 203631, Note_on_c, 2, 69, 0
8, 203640, Note_on_c, 2, 70, 92
8, 203984, Note_on_c, 2, 70, 0
8, 204000, Note_on_c, 2, 67, 84
8, 204111, Note_on_c, 2, 67, 0
8, 204120, Note_on_c, 2, 65, 92
8, 204464, Note_on_c, 2, 65, 0
8, 204480, Note_on_c, 2, 72, 84
8, 204591, Note_on_c, 2, 72, 0
8, 204600, Note_on_c, 2, 63, 92
8, 204839, Note_on_c, 2, 63, 0
8, 204840, Note_on_c, 2, 67, 84
8, 205019, Note_on_c, 2, 67, 0
8, 205020, Note_on_c, 2, 65, 84
8, 205075, Note_on_c, 2, 65, 0
8, 205080, Note_on_c, 2, 63, 84
8, 205199, Note_on_c, 2, 63, 0
8, 205320, Note_on_c, 2, 67, 52
8, 205559, Note_on_c, 2, 67, 0
8, 205560, Note_on_c, 2, 70, 52
8, 205799, Note_on_c, 2, 70, 0
8, 205800, Note_on_c, 2, 75, 52
8, 206031, Note_on_c, 2, 75, 0
8, 206036, Control_c, 2, 11, 96
8, 206040, Control_c, 2, 11, 96
8, 206040, Note_on_c, 2, 74, 68
8, 206060, Control_c, 2, 11, 97
8, 206080, Control_c, 2, 11, 99
8, 206100, Control_c, 2, 11, 100
8, 206120, Control_c, 2, 11, 101
8, 206140, Control_c, 2, 11, 102
8, 206160, Control_c, 2, 11, 104
8, 206180, Control_c, 2, 11, 105
8, 206200, Control_c, 2, 11, 106
8, 206220, Control_c, 2, 11, 108
8, 206240, Control_c, 2, 11, 109
8, 206260, Control_c, 2, 11, 110
8, 206280, Control_c, 2, 11, 112
8, 206300, Control_c, 2, 11, 113
8, 206320, Control_c, 2, 11, 114
8, 206340, Control_c, 2, 11, 115
8, 206360, Control_c, 2, 11, 117
8, 206380, Control_c, 2, 11, 118
8, 206400, Control_c, 2, 11, 119
8, 206420, Control_c, 2, 11, 121
8, 206440, Control_c, 2, 11, 122
8, 206460, Control_c, 2, 11, 123
8, 206480, Control_c, 2, 11, 124
8, 206500, Control_c, 2, 11, 127
8, 206991, Note_on_c, 2, 74, 0
8, 207000, Note_on_c, 2, 75, 52
8, 207055, Note_on_c, 2, 75, 0
8, 207060, Note_on_c, 2, 63, 52
8, 207115, Note_on_c, 2, 63, 0
8, 207120, Note_on_c, 2, 63, 52
8, 207175, Note_on_c, 2, 63, 0
8, 207180, Note_on_c, 2, 63, 52
8, 207235, Note_on_c, 2, 63, 0
8, 207240, Note_on_c, 2, 63, 52
8, 207299, Note_on_c, 2, 63, 0
8, 207300, Note_on_c, 2, 67, 52
8, 207355, Note_on_c, 2, 67, 0
8, 207360, Note_on_c, 2, 67, 52
8, 207404, Note_on_c, 2, 67, 0
8, 207420, Note_on_c, 2, 67, 52
8, 207464, Note_on_c, 2, 67, 0
8, 207480, Note_on_c, 2, 67, 52
8, 207539, Note_on_c, 2, 67, 0
8, 207540, Note_on_c, 2, 70, 52
8, 207595, Note_on_c, 2, 70, 0
8, 207600, Note_on_c, 2, 70, 52
8, 207644, Note_on_c, 2, 70, 0
8, 207660, Note_on_c, 2, 70, 52
8, 207704, Note_on_c, 2, 70, 0
8, 207720, Note_on_c, 2, 70, 52
8, 207779, Note_on_c, 2, 70, 0
8, 207780, Note_on_c, 2, 75, 52
8, 207835, Note_on_c, 2, 75, 0
8, 207840, Note_on_c, 2, 75, 52
8, 207884, Note_on_c, 2, 75, 0
8, 207900, Note_on_c, 2, 75, 52
8, 207944, Note_on_c, 2, 75, 0
8, 207952, Control_c, 2, 11, 96
8, 207960, Control_c, 2, 11, 96
8, 207960, Note_on_c, 2, 74, 68
8, 208000, Control_c, 2, 11, 97
8, 208040, Control_c, 2, 11, 99
8, 208080, Control_c, 2, 11, 100
8, 208120, Control_c, 2, 11, 101
8, 208160, Control_c, 2, 11, 102
8, 208200, Control_c, 2, 11, 104
8, 208240, Control_c, 2, 11, 105
8, 208280, Control_c, 2, 11, 106
8, 208320, Control_c, 2, 11, 108
8, 208360, Control_c, 2, 11, 109
8, 208400, Control_c, 2, 11, 110
8, 208439, Note_on_c, 2, 74, 0
8, 208440, Control_c, 2, 11, 112
8, 208440, Note_on_c, 2, 73, 68
8, 208480, Control_c, 2, 11, 113
8, 208520, Control_c, 2, 11, 114
8, 208560, Control_c, 2, 11, 115
8, 208600, Control_c, 2, 11, 117
8, 208640, Control_c, 2, 11, 118
8, 208680, Control_c, 2, 11, 119
8, 208720, Control_c, 2, 11, 121
8, 208760, Control_c, 2, 11, 122
8, 208800, Control_c, 2, 11, 123
8, 208840, Control_c, 2, 11, 124
8, 208880, Control_c, 2, 11, 127
8, 208919, Note_on_c, 2, 73, 0
8, 208920, Note_on_c, 2, 72, 52
8, 209009, Note_on_c, 2, 72, 0
8, 209460, Note_on_c, 2, 75, 52
8, 209515, Note_on_c, 2, 75, 0
8, 209520, Note_on_c, 2, 75, 52
8, 209575, Note_on_c, 2, 75, 0
8, 209580, Note_on_c, 2, 75, 52
8, 209635, Note_on_c, 2, 75, 0
8, 209640, Note_on_c, 2, 77, 60
8, 209759, Note_on_c, 2, 77, 0
8, 209760, Note_on_c, 2, 75, 52
8, 209819, Note_on_c, 2, 75, 0
8, 210360, Control_c, 2, 11, 96
8, 210420, Control_c, 2, 11, 96
8, 210420, Note_on_c, 2, 75, 68
8, 210427, Control_c, 2, 11, 98
8, 210433, Control_c, 2, 11, 100
8, 210440, Control_c, 2, 11, 101
8, 210447, Control_c, 2, 11, 103
8, 210453, Control_c, 2, 11, 105
8, 210460, Control_c, 2, 11, 107
8, 210467, Control_c, 2, 11, 108
8, 210473, Control_c, 2, 11, 110
8, 210479, Note_on_c, 2, 75, 0
8, 210480, Control_c, 2, 11, 112
8, 210480, Note_on_c, 2, 77, 68
8, 210487, Control_c, 2, 11, 110
8, 210493, Control_c, 2, 11, 108
8, 210500, Control_c, 2, 11, 107
8, 210507, Control_c, 2, 11, 105
8, 210513, Control_c, 2, 11, 103
8, 210520, Control_c, 2, 11, 101
8, 210527, Control_c, 2, 11, 100
8, 210533, Control_c, 2, 11, 96
8, 210539, Note_on_c, 2, 77, 0
8, 210540, Note_on_c, 2, 75, 68
8, 210599, Note_on_c, 2, 75, 0
8, 210660, Note_on_c, 2, 75, 68
8, 210660, Control_c, 2, 11, 96
8, 210667, Control_c, 2, 11, 98
8, 210673, Control_c, 2, 11, 100
8, 210680, Control_c, 2, 11, 101
8, 210687, Control_c, 2, 11, 103
8, 210693, Control_c, 2, 11, 105
8, 210700, Control_c, 2, 11, 107
8, 210707, Control_c, 2, 11, 108
8, 210713, Control_c, 2, 11, 110
8, 210719, Note_on_c, 2, 75, 0
8, 210720, Control_c, 2, 11, 112
8, 210720, Note_on_c, 2, 77, 68
8, 210727, Control_c, 2, 11, 110
8, 210733, Control_c, 2, 11, 108
8, 210740, Control_c, 2, 11, 107
8, 210747, Control_c, 2, 11, 105
8, 210753, Control_c, 2, 11, 103
8, 210760, Control_c, 2, 11, 101
8, 210767, Control_c, 2, 11, 100
8, 210773, Control_c, 2, 11, 96
8, 210779, Note_on_c, 2, 77, 0
8, 210780, Note_on_c, 2, 75, 68
8, 210835, Note_on_c, 2, 75, 0
8, 210838, Control_c, 2, 11, 80
8, 210840, Note_on_c, 2, 63, 76
8, 210840, Note_on_c, 2, 75, 76
8, 210840, Control_c, 2, 11, 80
8, 210920, Control_c, 2, 11, 81
8, 211000, Control_c, 2, 11, 83
8, 211071, Note_on_c, 2, 63, 0
8, 211071, Note_on_c, 2, 75, 0
8, 211080, Control_c, 2, 11, 84
8, 211080, Note_on_c, 2, 75, 76
8, 211080, Note_on_c, 2, 63, 76
8, 211160, Control_c, 2, 11, 85
8, 211240, Control_c, 2, 11, 87
8, 211311, Note_on_c, 2, 75, 0
8, 211311, Note_on_c, 2, 63, 0
8, 211320, Note_on_c, 2, 75, 76
8, 211320, Control_c, 2, 11, 88
8, 211320, Note_on_c, 2, 63, 76
8, 211400, Control_c, 2, 11, 89
8, 211480, Control_c, 2, 11, 90
8, 211560, Control_c, 2, 11, 92
8, 211640, Control_c, 2, 11, 93
8, 211720, Control_c, 2, 11, 94
8, 211791, Note_on_c, 2, 75, 0
8, 211791, Note_on_c, 2, 63, 0
8, 211800, Control_c, 2, 11, 96
8, 211800, Note_on_c, 2, 75, 76
8, 211800, Note_on_c, 2, 63, 76
8, 211880, Control_c, 2, 11, 97
8, 211960, Control_c, 2, 11, 98
8, 211979, Note_on_c, 2, 75, 0
8, 211979, Note_on_c, 2, 63, 0
8, 212040, Note_on_c, 2, 63, 76
8, 212040, Control_c, 2, 11, 100
8, 212040, Note_on_c, 2, 75, 76
8, 212120, Control_c, 2, 11, 101
8, 212200, Control_c, 2, 11, 102
8, 212219, Note_on_c, 2, 63, 0
8, 212219, Note_on_c, 2, 75, 0
8, 212280, Control_c, 2, 11, 104
8, 212280, Note_on_c, 2, 63, 76
8, 212280, Note_on_c, 2, 75, 76
8, 212360, Control_c, 2, 11, 105
8, 212440, Control_c, 2, 11, 106
8, 212520, Control_c, 2, 11, 107
8, 212600, Control_c, 2, 11, 109
8, 212680, Control_c, 2, 11, 110
8, 212751, Note_on_c, 2, 63, 0
8, 212751, Note_on_c, 2, 75, 0
8, 212760, Note_on_c, 2, 66, 76
8, 212760, Note_on_c, 2, 78, 76
8, 212760, Control_c, 2, 11, 111
8, 212840, Control_c, 2, 11, 113
8, 212920, Control_c, 2, 11, 114
8, 212939, Note_on_c, 2, 66, 0
8, 212939, Note_on_c, 2, 78, 0
8, 213000, Note_on_c, 2, 78, 76
8, 213000, Note_on_c, 2, 66, 76
8, 213000, Control_c, 2, 11, 115
8, 213080, Control_c, 2, 11, 117
8, 213160, Control_c, 2, 11, 118
8, 213179, Note_on_c, 2, 78, 0
8, 213179, Note_on_c, 2, 66, 0
8, 213240, Control_c, 2, 11, 119
8, 213240, Note_on_c, 2, 78, 76
8, 213240, Note_on_c, 2, 66, 76
8, 213320, Control_c, 2, 11, 120
8, 213400, Control_c, 2, 11, 122
8, 213480, Control_c, 2, 11, 123
8, 213560, Control_c, 2, 11, 124
8, 213640, Control_c, 2, 11, 127
8, 213711, Note_on_c, 2, 78, 0
8, 213711, Note_on_c, 2, 66, 0
8, 213720, Note_on_c, 2, 66, 76
8, 213720, Note_on_c, 2, 78, 76
8, 213899, Note_on_c, 2, 66, 0
8, 213899, Note_on_c, 2, 78, 0
8, 213960, Note_on_c, 2, 78, 76
8, 213960, Note_on_c, 2, 66, 76
8, 214139, Note_on_c, 2, 78, 0
8, 214139, Note_on_c, 2, 66, 0
8, 214200, Note_on_c, 2, 78, 76
8, 214200, Note_on_c, 2, 66, 76
8, 214671, Note_on_c, 2, 78, 0
8, 214671, Note_on_c, 2, 66, 0
8, 214680, Note_on_c, 2, 66, 76
8, 214680, Note_on_c, 2, 69, 76
8, 214859, Note_on_c, 2, 66, 0
8, 214859, Note_on_c, 2, 69, 0
8, 214920, Note_on_c, 2, 69, 78
8, 214920, Note_on_c, 2, 66, 78
8, 215099, Note_on_c, 2, 69, 0
8, 215099, Note_on_c, 2, 66, 0
8, 215160, Note_on_c, 2, 66, 80
8, 215160, Note_on_c, 2, 72, 80
8, 215631, Note_on_c, 2, 66, 0
8, 215631, Note_on_c, 2, 72, 0
8, 215640, Note_on_c, 2, 70, 84
8, 215640, Note_on_c, 2, 67, 84
8, 216111, Note_on_c, 2, 70, 0
8, 216111, Note_on_c, 2, 67, 0
8, 216120, Note_on_c, 2, 69, 84
8, 216120, Note_on_c, 2, 67, 84
8, 216351, Note_on_c, 2, 69, 0
8, 216351, Note_on_c, 2, 67, 0
8, 216360, Note_on_c, 2, 69, 84
8, 216360, Note_on_c, 2, 66, 84
8, 216591, Note_on_c, 2, 69, 0
8, 216591, Note_on_c, 2, 66, 0
8, 216600, Note_on_c, 2, 70, 84
8, 216600, Note_on_c, 2, 67, 84
8, 216719, Note_on_c, 2, 70, 0
8, 216719, Note_on_c, 2, 67, 0
8, 221880, Note_on_c, 2, 79, 84
8, 221880, Note_on_c, 2, 67, 84
8, 222415, Note_on_c, 2, 79, 0
8, 222415, Note_on_c, 2, 67, 0
8, 222420, Note_on_c, 2, 77, 84
8, 222475, Note_on_c, 2, 77, 0
8, 222480, Note_on_c, 2, 75, 84
8, 222535, Note_on_c, 2, 75, 0
8, 222540, Note_on_c, 2, 74, 84
8, 222595, Note_on_c, 2, 74, 0
8, 222600, Note_on_c, 2, 75, 84
8, 222655, Note_on_c, 2, 75, 0
8, 222660, Note_on_c, 2, 74, 84
8, 222715, Note_on_c, 2, 74, 0
8, 222720, Note_on_c, 2, 72, 84
8, 222775, Note_on_c, 2, 72, 0
8, 222780, Note_on_c, 2, 70, 84
8, 222835, Note_on_c, 2, 70, 0
8, 222840, Note_on_c, 2, 72, 84
8, 222895, Note_on_c, 2, 72, 0
8, 222900, Note_on_c, 2, 70, 84
8, 222955, Note_on_c, 2, 70, 0
8, 222960, Note_on_c, 2, 69, 84
8, 223015, Note_on_c, 2, 69, 0
8, 223020, Note_on_c, 2, 67, 84
8, 223075, Note_on_c, 2, 67, 0
8, 223080, Note_on_c, 2, 68, 84
8, 223135, Note_on_c, 2, 68, 0
8, 223140, Note_on_c, 2, 67, 84
8, 223195, Note_on_c, 2, 67, 0
8, 223200, Note_on_c, 2, 65, 84
8, 223255, Note_on_c, 2, 65, 0
8, 223260, Note_on_c, 2, 63, 84
8, 223315, Note_on_c, 2, 63, 0
8, 223320, Note_on_c, 2, 62, 84
8, 223375, Note_on_c, 2, 62, 0
8, 223380, Note_on_c, 2, 63, 84
8, 223435, Note_on_c, 2, 63, 0
8, 223440, Note_on_c, 2, 65, 84
8, 223495, Note_on_c, 2, 65, 0
8, 223500, Note_on_c, 2, 63, 84
8, 223555, Note_on_c, 2, 63, 0
8, 223560, Note_on_c, 2, 62, 84
8, 223615, Note_on_c, 2, 62, 0
8, 223620, Note_on_c, 2, 58, 84
8, 223675, Note_on_c, 2, 58, 0
8, 223680, Note_on_c, 2, 60, 84
8, 223735, Note_on_c, 2, 60, 0
8, 223740, Note_on_c, 2, 62, 84
8, 223795, Note_on_c, 2, 62, 0
8, 223800, Note_on_c, 2, 63, 84
8, 223919, Note_on_c, 2, 63, 0
8, 224940, Note_on_c, 2, 75, 84
8, 224940, Note_on_c, 2, 67, 84
8, 224995, Note_on_c, 2, 75, 0
8, 224995, Note_on_c, 2, 67, 0
8, 225000, Note_on_c, 2, 79, 92
8, 225000, Note_on_c, 2, 70, 92
8, 225179, Note_on_c, 2, 79, 0
8, 225179, Note_on_c, 2, 70, 0
8, 225180, Note_on_c, 2, 75, 84
8, 225180, Note_on_c, 2, 67, 84
8, 225235, Note_on_c, 2, 75, 0
8, 225235, Note_on_c, 2, 67, 0
8, 225240, Note_on_c, 2, 74, 84
8, 225240, Note_on_c, 2, 65, 84
8, 225359, Note_on_c, 2, 74, 0
8, 225359, Note_on_c, 2, 65, 0
8, 225420, Note_on_c, 2, 77, 84
8, 225420, Note_on_c, 2, 68, 84
8, 225475, Note_on_c, 2, 77, 0
8, 225475, Note_on_c, 2, 68, 0
8, 225480, Note_on_c, 2, 80, 92
8, 225480, Note_on_c, 2, 74, 92
8, 225659, Note_on_c, 2, 80, 0
8, 225659, Note_on_c, 2, 74, 0
8, 225660, Note_on_c, 2, 77, 84
8, 225660, Note_on_c, 2, 68, 84
8, 225715, Note_on_c, 2, 77, 0
8, 225715, Note_on_c, 2, 68, 0
8, 225720, Note_on_c, 2, 75, 84
8, 225720, Note_on_c, 2, 67, 84
8, 225775, Note_on_c, 2, 75, 0
8, 225775, Note_on_c, 2, 67, 0
8, 225780, Note_on_c, 2, 75, 84
8, 225780, Note_on_c, 2, 67, 84
8, 225835, Note_on_c, 2, 75, 0
8, 225835, Note_on_c, 2, 67, 0
8, 225840, Note_on_c, 2, 75, 84
8, 225840, Note_on_c, 2, 67, 84
8, 225895, Note_on_c, 2, 75, 0
8, 225895, Note_on_c, 2, 67, 0
8, 225900, Note_on_c, 2, 75, 84
8, 225900, Note_on_c, 2, 67, 84
8, 225955, Note_on_c, 2, 75, 0
8, 225955, Note_on_c, 2, 67, 0
8, 225960, Note_on_c, 2, 79, 92
8, 225960, Note_on_c, 2, 70, 92
8, 226139, Note_on_c, 2, 79, 0
8, 226139, Note_on_c, 2, 70, 0
8, 226140, Note_on_c, 2, 75, 84
8, 226140, Note_on_c, 2, 67, 84
8, 226195, Note_on_c, 2, 75, 0
8, 226195, Note_on_c, 2, 67, 0
8, 226200, Note_on_c, 2, 74, 84
8, 226200, Note_on_c, 2, 65, 84
8, 226255, Note_on_c, 2, 74, 0
8, 226255, Note_on_c, 2, 65, 0
8, 226260, Note_on_c, 2, 77, 84
8, 226260, Note_on_c, 2, 68, 84
8, 226315, Note_on_c, 2, 77, 0
8, 226315, Note_on_c, 2, 68, 0
8, 226320, Note_on_c, 2, 77, 84
8, 226320, Note_on_c, 2, 68, 84
8, 226375, Note_on_c, 2, 77, 0
8, 226375, Note_on_c, 2, 68, 0
8, 226380, Note_on_c, 2, 77, 84
8, 226380, Note_on_c, 2, 68, 84
8, 226435, Note_on_c, 2, 77, 0
8, 226435, Note_on_c, 2, 68, 0
8, 226440, Note_on_c, 2, 80, 92
8, 226440, Note_on_c, 2, 74, 92
8, 226619, Note_on_c, 2, 80, 0
8, 226619, Note_on_c, 2, 74, 0
8, 226620, Note_on_c, 2, 77, 84
8, 226620, Note_on_c, 2, 68, 84
8, 226675, Note_on_c, 2, 77, 0
8, 226675, Note_on_c, 2, 68, 0
8, 226680, Note_on_c, 2, 75, 84
8, 226680, Note_on_c, 2, 67, 84
8, 226735, Note_on_c, 2, 75, 0
8, 226735, Note_on_c, 2, 67, 0
8, 226740, Note_on_c, 2, 79, 84
8, 226740, Note_on_c, 2, 70, 84
8, 226795, Note_on_c, 2, 79, 0
8, 226795, Note_on_c, 2, 70, 0
8, 226800, Note_on_c, 2, 79, 84
8, 226800, Note_on_c, 2, 70, 84
8, 226855, Note_on_c, 2, 79, 0
8, 226855, Note_on_c, 2, 70, 0
8, 226860, Note_on_c, 2, 79, 84
8, 226860, Note_on_c, 2, 70, 84
8, 226915, Note_on_c, 2, 79, 0
8, 226915, Note_on_c, 2, 70, 0
8, 226920, Note_on_c, 2, 75, 92
8, 226920, Note_on_c, 2, 67, 92
8, 227099, Note_on_c, 2, 75, 0
8, 227099, Note_on_c, 2, 67, 0
8, 227100, Note_on_c, 2, 79, 84
8, 227100, Note_on_c, 2, 70, 84
8, 227155, Note_on_c, 2, 79, 0
8, 227155, Note_on_c, 2, 70, 0
8, 227160, Note_on_c, 2, 77, 84
8, 227160, Note_on_c, 2, 68, 84
8, 227215, Note_on_c, 2, 77, 0
8, 227215, Note_on_c, 2, 68, 0
8, 227220, Note_on_c, 2, 70, 84
8, 227220, Note_on_c, 2, 65, 84
8, 227275, Note_on_c, 2, 70, 0
8, 227275, Note_on_c, 2, 65, 0
8, 227280, Note_on_c, 2, 70, 84
8, 227280, Note_on_c, 2, 65, 84
8, 227335, Note_on_c, 2, 70, 0
8, 227335, Note_on_c, 2, 65, 0
8, 227340, Note_on_c, 2, 70, 84
8, 227340, Note_on_c, 2, 65, 84
8, 227395, Note_on_c, 2, 70, 0
8, 227395, Note_on_c, 2, 65, 0
8, 227400, Note_on_c, 2, 70, 92
8, 227400, Note_on_c, 2, 62, 92
8, 227571, Note_on_c, 2, 70, 0
8, 227579, Note_on_c, 2, 62, 0
8, 227580, Note_on_c, 2, 70, 84
8, 227580, Note_on_c, 2, 65, 84
8, 227635, Note_on_c, 2, 70, 0
8, 227635, Note_on_c, 2, 65, 0
8, 227640, Note_on_c, 2, 70, 84
8, 227640, Note_on_c, 2, 67, 84
8, 227684, Note_on_c, 2, 70, 0
8, 227684, Note_on_c, 2, 67, 0
8, 227700, Note_on_c, 2, 70, 84
8, 227700, Note_on_c, 2, 67, 84
8, 227744, Note_on_c, 2, 70, 0
8, 227744, Note_on_c, 2, 67, 0
8, 227760, Note_on_c, 2, 70, 84
8, 227760, Note_on_c, 2, 67, 84
8, 227804, Note_on_c, 2, 70, 0
8, 227804, Note_on_c, 2, 67, 0
8, 227820, Note_on_c, 2, 70, 84
8, 227820, Note_on_c, 2, 67, 84
8, 227864, Note_on_c, 2, 70, 0
8, 227864, Note_on_c, 2, 67, 0
8, 227880, Note_on_c, 2, 70, 92
8, 227880, Note_on_c, 2, 63, 92
8, 227939, Note_on_c, 2, 70, 0
8, 227939, Note_on_c, 2, 63, 0
8, 227940, Note_on_c, 2, 70, 84
8, 227940, Note_on_c, 2, 67, 84
8, 227995, Note_on_c, 2, 70, 0
8, 227995, Note_on_c, 2, 67, 0
8, 228000, Note_on_c, 2, 70, 84
8, 228000, Note_on_c, 2, 67, 84
8, 228044, Note_on_c, 2, 70, 0
8, 228044, Note_on_c, 2, 67, 0
8, 228060, Note_on_c, 2, 70, 84
8, 228060, Note_on_c, 2, 67, 84
8, 228104, Note_on_c, 2, 70, 0
8, 228104, Note_on_c, 2, 67, 0
8, 228120, Note_on_c, 2, 68, 84
8, 228120, Note_on_c, 2, 70, 84
8, 228164, Note_on_c, 2, 68, 0
8, 228175, Note_on_c, 2, 70, 0
8, 228180, Note_on_c, 2, 65, 84
8, 228180, Note_on_c, 2, 70, 84
8, 228224, Note_on_c, 2, 65, 0
8, 228235, Note_on_c, 2, 70, 0
8, 228240, Note_on_c, 2, 65, 84
8, 228240, Note_on_c, 2, 70, 84
8, 228284, Note_on_c, 2, 65, 0
8, 228295, Note_on_c, 2, 70, 0
8, 228300, Note_on_c, 2, 65, 84
8, 228300, Note_on_c, 2, 70, 84
8, 228344, Note_on_c, 2, 65, 0
8, 228355, Note_on_c, 2, 70, 0
8, 228360, Note_on_c, 2, 70, 92
8, 228360, Note_on_c, 2, 62, 92
8, 228415, Note_on_c, 2, 70, 0
8, 228419, Note_on_c, 2, 62, 0
8, 228420, Note_on_c, 2, 70, 84
8, 228420, Note_on_c, 2, 65, 84
8, 228475, Note_on_c, 2, 70, 0
8, 228475, Note_on_c, 2, 65, 0
8, 228480, Note_on_c, 2, 70, 84
8, 228480, Note_on_c, 2, 65, 84
8, 228524, Note_on_c, 2, 65, 0
8, 228535, Note_on_c, 2, 70, 0
8, 228540, Note_on_c, 2, 70, 84
8, 228540, Note_on_c, 2, 65, 84
8, 228584, Note_on_c, 2, 65, 0
8, 228595, Note_on_c, 2, 70, 0
8, 228600, Note_on_c, 2, 70, 92
8, 228600, Note_on_c, 2, 67, 92
8, 228655, Note_on_c, 2, 70, 0
8, 228655, Note_on_c, 2, 67, 0
8, 228660, Note_on_c, 2, 70, 84
8, 228660, Note_on_c, 2, 67, 84
8, 228715, Note_on_c, 2, 70, 0
8, 228715, Note_on_c, 2, 67, 0
8, 228720, Note_on_c, 2, 70, 84
8, 228720, Note_on_c, 2, 63, 84
8, 228775, Note_on_c, 2, 70, 0
8, 228775, Note_on_c, 2, 63, 0
8, 228780, Note_on_c, 2, 70, 84
8, 228780, Note_on_c, 2, 67, 84
8, 228835, Note_on_c, 2, 70, 0
8, 228835, Note_on_c, 2, 67, 0
8, 228840, Note_on_c, 2, 70, 92
8, 228840, Note_on_c, 2, 68, 92
8, 228895, Note_on_c, 2, 70, 0
8, 228895, Note_on_c, 2, 68, 0
8, 228900, Note_on_c, 2, 70, 84
8, 228900, Note_on_c, 2, 65, 84
8, 228955, Note_on_c, 2, 70, 0
8, 228955, Note_on_c, 2, 65, 0
8, 228960, Note_on_c, 2, 70, 84
8, 228960, Note_on_c, 2, 62, 84
8, 229015, Note_on_c, 2, 70, 0
8, 229015, Note_on_c, 2, 62, 0
8, 229020, Note_on_c, 2, 70, 84
8, 229020, Note_on_c, 2, 65, 84
8, 229075, Note_on_c, 2, 70, 0
8, 229075, Note_on_c, 2, 65, 0
8, 229080, Note_on_c, 2, 70, 92
8, 229080, Note_on_c, 2, 67, 92
8, 229135, Note_on_c, 2, 70, 0
8, 229135, Note_on_c, 2, 67, 0
8, 229140, Note_on_c, 2, 70, 84
8, 229140, Note_on_c, 2, 67, 84
8, 229195, Note_on_c, 2, 70, 0
8, 229195, Note_on_c, 2, 67, 0
8, 229200, Note_on_c, 2, 70, 84
8, 229200, Note_on_c, 2, 63, 84
8, 229255, Note_on_c, 2, 70, 0
8, 229255, Note_on_c, 2, 63, 0
8, 229260, Note_on_c, 2, 70, 84
8, 229260, Note_on_c, 2, 67, 84
8, 229315, Note_on_c, 2, 70, 0
8, 229315, Note_on_c, 2, 67, 0
8, 229320, Note_on_c, 2, 70, 92
8, 229320, Note_on_c, 2, 68, 92
8, 229375, Note_on_c, 2, 70, 0
8, 229375, Note_on_c, 2, 68, 0
8, 229380, Note_on_c, 2, 70, 84
8, 229380, Note_on_c, 2, 65, 84
8, 229435, Note_on_c, 2, 70, 0
8, 229435, Note_on_c, 2, 65, 0
8, 229440, Note_on_c, 2, 70, 84
8, 229440, Note_on_c, 2, 62, 84
8, 229495, Note_on_c, 2, 70, 0
8, 229495, Note_on_c, 2, 62, 0
8, 229500, Note_on_c, 2, 70, 84
8, 229500, Note_on_c, 2, 65, 84
8, 229555, Note_on_c, 2, 70, 0
8, 229555, Note_on_c, 2, 65, 0
8, 229560, Note_on_c, 2, 70, 84
8, 229560, Note_on_c, 2, 67, 84
8, 229615, Note_on_c, 2, 70, 0
8, 229615, Note_on_c, 2, 67, 0
8, 229620, Note_on_c, 2, 63, 84
8, 229675, Note_on_c, 2, 63, 0
8, 229680, Note_on_c, 2, 65, 84
8, 229735, Note_on_c, 2, 65, 0
8, 229740, Note_on_c, 2, 67, 84
8, 229795, Note_on_c, 2, 67, 0
8, 229800, Note_on_c, 2, 68, 92
8, 229855, Note_on_c, 2, 68, 0
8, 229860, Note_on_c, 2, 67, 84
8, 229915, Note_on_c, 2, 67, 0
8, 229920, Note_on_c, 2, 68, 84
8, 229975, Note_on_c, 2, 68, 0
8, 229980, Note_on_c, 2, 69, 84
8, 230035, Note_on_c, 2, 69, 0
8, 230040, Note_on_c, 2, 70, 92
8, 230095, Note_on_c, 2, 70, 0
8, 230100, Note_on_c, 2, 69, 84
8, 230155, Note_on_c, 2, 69, 0
8, 230160, Note_on_c, 2, 70, 84
8, 230215, Note_on_c, 2, 70, 0
8, 230220, Note_on_c, 2, 71, 84
8, 230275, Note_on_c, 2, 71, 0
8, 230280, Note_on_c, 2, 72, 92
8, 230335, Note_on_c, 2, 72, 0
8, 230340, Note_on_c, 2, 71, 84
8, 230395, Note_on_c, 2, 71, 0
8, 230400, Note_on_c, 2, 72, 84
8, 230455, Note_on_c, 2, 72, 0
8, 230460, Note_on_c, 2, 74, 84
8, 230515, Note_on_c, 2, 74, 0
8, 230520, Note_on_c, 2, 75, 84
8, 230631, Note_on_c, 2, 75, 0
8, 230640, Note_on_c, 2, 72, 84
8, 230759, Note_on_c, 2, 72, 0
8, 230880, Note_on_c, 2, 68, 84
8, 230999, Note_on_c, 2, 68, 0
8, 231120, Note_on_c, 2, 65, 84
8, 231239, Note_on_c, 2, 65, 0
8, 231360, Note_on_c, 2, 70, 84
8, 231479, Note_on_c, 2, 70, 0
8, 231600, Note_on_c, 2, 72, 92
8, 231719, Note_on_c, 2, 72, 0
8, 231840, Note_on_c, 2, 68, 84
8, 231959, Note_on_c, 2, 68, 0
8, 232080, Note_on_c, 2, 65, 84
8, 232199, Note_on_c, 2, 65, 0
8, 232320, Note_on_c, 2, 70, 84
8, 232439, Note_on_c, 2, 70, 0
8, 232440, Note_on_c, 2, 63, 84
8, 232484, Note_on_c, 2, 63, 0
8, 232500, Note_on_c, 2, 58, 84
8, 232544, Note_on_c, 2, 58, 0
8, 232560, Note_on_c, 2, 63, 84
8, 232604, Note_on_c, 2, 63, 0
8, 232620, Note_on_c, 2, 58, 84
8, 232664, Note_on_c, 2, 58, 0
8, 232680, Note_on_c, 2, 63, 84
8, 232724, Note_on_c, 2, 63, 0
8, 232740, Note_on_c, 2, 58, 84
8, 232784, Note_on_c, 2, 58, 0
8, 232800, Note_on_c, 2, 67, 92
8, 232844, Note_on_c, 2, 67, 0
8, 232860, Note_on_c, 2, 63, 84
8, 232904, Note_on_c, 2, 63, 0
8, 232920, Note_on_c, 2, 67, 84
8, 232964, Note_on_c, 2, 67, 0
8, 232980, Note_on_c, 2, 63, 84
8, 233024, Note_on_c, 2, 63, 0
8, 233040, Note_on_c, 2, 67, 84
8, 233084, Note_on_c, 2, 67, 0
8, 233100, Note_on_c, 2, 63, 84
8, 233144, Note_on_c, 2, 63, 0
8, 233160, Note_on_c, 2, 67, 84
8, 233204, Note_on_c, 2, 67, 0
8, 233220, Note_on_c, 2, 63, 84
8, 233264, Note_on_c, 2, 63, 0
8, 233280, Note_on_c, 2, 70, 92
8, 233324, Note_on_c, 2, 70, 0
8, 233340, Note_on_c, 2, 67, 84
8, 233384, Note_on_c, 2, 67, 0
8, 233400, Note_on_c, 2, 70, 84
8, 233444, Note_on_c, 2, 70, 0
8, 233460, Note_on_c, 2, 67, 84
8, 233504, Note_on_c, 2, 67, 0
8, 233520, Note_on_c, 2, 75, 92
8, 233520, Note_on_c, 2, 63, 92
8, 233564, Note_on_c, 2, 75, 0
8, 233564, Note_on_c, 2, 63, 0
8, 233580, Note_on_c, 2, 70, 84
8, 233580, Note_on_c, 2, 58, 84
8, 233624, Note_on_c, 2, 70, 0
8, 233624, Note_on_c, 2, 58, 0
8, 233640, Note_on_c, 2, 75, 84
8, 233640, Note_on_c, 2, 63, 84
8, 233684, Note_on_c, 2, 75, 0
8, 233684, Note_on_c, 2, 63, 0
8, 233700, Note_on_c, 2, 70, 84
8, 233700, Note_on_c, 2, 58, 84
8, 233744, Note_on_c, 2, 70, 0
8, 233744, Note_on_c, 2, 58, 0
8, 233760, Note_on_c, 2, 79, 92
8, 233760, Note_on_c, 2, 67, 92
8, 233804, Note_on_c, 2, 79, 0
8, 233804, Note_on_c, 2, 67, 0
8, 233820, Note_on_c, 2, 75, 84
8, 233820, Note_on_c, 2, 63, 84
8, 233864, Note_on_c, 2, 75, 0
8, 233864, Note_on_c, 2, 63, 0
8, 233880, Note_on_c, 2, 79, 84
8, 233880, Note_on_c, 2, 67, 84
8, 233924, Note_on_c, 2, 79, 0
8, 233924, Note_on_c, 2, 67, 0
8, 233940, Note_on_c, 2, 75, 84
8, 233940, Note_on_c, 2, 63, 84
8, 233984, Note_on_c, 2, 75, 0
8, 233984, Note_on_c, 2, 63, 0
8, 234000, Note_on_c, 2, 79, 92
8, 234000, Note_on_c, 2, 67, 92
8, 234044, Note_on_c, 2, 79, 0
8, 234044, Note_on_c, 2, 67, 0
8, 234060, Note_on_c, 2, 75, 84
8, 234060, Note_on_c, 2, 63, 84
8, 234104, Note_on_c, 2, 75, 0
8, 234104, Note_on_c, 2, 63, 0
8, 234120, Note_on_c, 2, 79, 84
8, 234120, Note_on_c, 2, 67, 84
8, 234164, Note_on_c, 2, 79, 0
8, 234164, Note_on_c, 2, 67, 0
8, 234180, Note_on_c, 2, 75, 84
8, 234180, Note_on_c, 2, 63, 84
8, 234224, Note_on_c, 2, 75, 0
8, 234224, Note_on_c, 2, 63, 0
8, 234240, Note_on_c, 2, 79, 92
8, 234240, Note_on_c, 2, 67, 92
8, 234284, Note_on_c, 2, 79, 0
8, 234284, Note_on_c, 2, 67, 0
8, 234300, Note_on_c, 2, 75, 84
8, 234300, Note_on_c, 2, 63, 84
8, 234344, Note_on_c, 2, 75, 0
8, 234344, Note_on_c, 2, 63, 0
8, 234360, Note_on_c, 2, 79, 84
8, 234360, Note_on_c, 2, 63, 84
8, 234831, Note_on_c, 2, 79, 0
8, 234831, Note_on_c, 2, 63, 0
8, 234840, Note_on_c, 2, 79, 86
8, 234840, Note_on_c, 2, 63, 86
8, 235311, Note_on_c, 2, 79, 0
8, 235311, Note_on_c, 2, 63, 0
8, 235320, Note_on_c, 2, 79, 88
8, 235320, Note_on_c, 2, 63, 88
8, 235375, Note_on_c, 2, 79, 0
8, 235375, Note_on_c, 2, 63, 0
8, 235380, Note_on_c, 2, 63, 88
8, 235435, Note_on_c, 2, 63, 0
8, 235440, Note_on_c, 2, 65, 88
8, 235495, Note_on_c, 2, 65, 0
8, 235500, Note_on_c, 2, 67, 88
8, 235555, Note_on_c, 2, 67, 0
8, 235560, Note_on_c, 2, 68, 89
8, 235615, Note_on_c, 2, 68, 0
8, 235620, Note_on_c, 2, 70, 89
8, 235675, Note_on_c, 2, 70, 0
8, 235680, Note_on_c, 2, 72, 89
8, 235735, Note_on_c, 2, 72, 0
8, 235740, Note_on_c, 2, 74, 89
8, 235795, Note_on_c, 2, 74, 0
8, 235800, Note_on_c, 2, 75, 90
8, 235855, Note_on_c, 2, 75, 0
8, 235860, Note_on_c, 2, 63, 90
8, 235915, Note_on_c, 2, 63, 0
8, 235920, Note_on_c, 2, 65, 90
8, 235975, Note_on_c, 2, 65, 0
8, 235980, Note_on_c, 2, 67, 90
8, 236035, Note_on_c, 2, 67, 0
8, 236040, Note_on_c, 2, 68, 91
8, 236095, Note_on_c, 2, 68, 0
8, 236100, Note_on_c, 2, 70, 91
8, 236155, Note_on_c, 2, 70, 0
8, 236160, Note_on_c, 2, 72, 91
8, 236215, Note_on_c, 2, 72, 0
8, 236220, Note_on_c, 2, 74, 91
8, 236275, Note_on_c, 2, 74, 0
8, 236280, Note_on_c, 2, 75, 84
8, 236519, Note_on_c, 2, 75, 0
8, 236760, Note_on_c, 2, 75, 84
8, 236760, Note_on_c, 2, 67, 84
8, 236999, Note_on_c, 2, 75, 0
8, 236999, Note_on_c, 2, 67, 0
8, 237240, Note_on_c, 2, 75, 84
8, 237240, Note_on_c, 2, 67, 84
8, 237359, Note_on_c, 2, 75, 0
8, 237359, Note_on_c, 2, 67, 0
8, 237480, Note_on_c, 2, 75, 84
8, 237480, Note_on_c, 2, 67, 84
8, 237599, Note_on_c, 2, 75, 0
8, 237599, Note_on_c, 2, 67, 0
8, 237720, Note_on_c, 2, 75, 84
8, 237720, Note_on_c, 2, 67, 84
8, 237839, Note_on_c, 2, 75, 0
8, 237839, Note_on_c, 2, 67, 0
8, 237960, Note_on_c, 2, 75, 84
8, 237960, Note_on_c, 2, 67, 84
8, 238079, Note_on_c, 2, 75, 0
8, 238079, Note_on_c, 2, 67, 0
8, 238200, Note_on_c, 2, 75, 84
8, 238200, Note_on_c, 2, 67, 84
8, 238319, Note_on_c, 2, 75, 0
8, 238319, Note_on_c, 2, 67, 0
8, 238680, Note_on_c, 2, 79, 84
8, 238680, Note_on_c, 2, 70, 84
8, 238799, Note_on_c, 2, 79, 0
8, 238799, Note_on_c, 2, 70, 0
8, 239160, Note_on_c, 2, 79, 84
8, 239160, Note_on_c, 2, 70, 84
8, 239279, Note_on_c, 2, 79, 0
8, 239279, Note_on_c, 2, 70, 0
8, 239400, Note_on_c, 2, 79, 84
8, 239400, Note_on_c, 2, 70, 84
8, 239519, Note_on_c, 2, 79, 0
8, 239519, Note_on_c, 2, 70, 0
8, 239640, Note_on_c, 2, 79, 84
8, 239640, Note_on_c, 2, 70, 84
8, 239759, Note_on_c, 2, 79, 0
8, 239759, Note_on_c, 2, 70, 0
8, 239880, Note_on_c, 2, 79, 84
8, 239880, Note_on_c, 2, 70, 84
8, 239999, Note_on_c, 2, 79, 0
8, 239999, Note_on_c, 2, 70, 0
8, 240120, Note_on_c, 2, 79, 84
8, 240120, Note_on_c, 2, 70, 84
8, 240175, Note_on_c, 2, 79, 0
8, 240175, Note_on_c, 2, 70, 0
8, 240180, Note_on_c, 2, 63, 84
8, 240235, Note_on_c, 2, 63, 0
8, 240240, Note_on_c, 2, 65, 84
8, 240295, Note_on_c, 2, 65, 0
8, 240300, Note_on_c, 2, 67, 84
8, 240355, Note_on_c, 2, 67, 0
8, 240360, Note_on_c, 2, 68, 84
8, 240415, Note_on_c, 2, 68, 0
8, 240420, Note_on_c, 2, 70, 84
8, 240475, Note_on_c, 2, 70, 0
8, 240480, Note_on_c, 2, 72, 84
8, 240535, Note_on_c, 2, 72, 0
8, 240540, Note_on_c, 2, 74, 84
8, 240595, Note_on_c, 2, 74, 0
8, 240600, Note_on_c, 2, 75, 84
8, 240655, Note_on_c, 2, 75, 0
8, 240660, Note_on_c, 2, 63, 84
8, 240715, Note_on_c, 2, 63, 0
8, 240720, Note_on_c, 2, 65, 84
8, 240775, Note_on_c, 2, 65, 0
8, 240780, Note_on_c, 2, 67, 84
8, 240835, Note_on_c, 2, 67, 0
8, 240840, Note_on_c, 2, 68, 84
8, 240895, Note_on_c, 2, 68, 0
8, 240900, Note_on_c, 2, 70, 84
8, 240955, Note_on_c, 2, 70, 0
8, 240960, Note_on_c, 2, 72, 84
8, 241015, Note_on_c, 2, 72, 0
8, 241020, Note_on_c, 2, 74, 84
8, 241075, Note_on_c, 2, 74, 0
8, 241080, Note_on_c, 2, 75, 84
8, 241199, Note_on_c, 2, 75, 0
8, 241560, Note_on_c, 2, 79, 84
8, 241560, Note_on_c, 2, 70, 84
8, 241679, Note_on_c, 2, 79, 0
8, 241679, Note_on_c, 2, 70, 0
8, 242040, Note_on_c, 2, 75, 84
8, 242040, Note_on_c, 2, 67, 84
8, 242279, Note_on_c, 2, 75, 0
8, 242279, Note_on_c, 2, 67, 0
8, 242279, End_track
9, 0, Start_track
9, 0, Title_t, "Clarinet II in B-flat"
9, 0, MIDI_port, 0
9, 0, Program_c, 3, 71
9, 0, Program_c, 3, 71
9, 0, Control_c, 3, 7, 88
9, 0, Control_c, 3, 10, 75
9, 0, Control_c, 3, 11, 127
9, 182520, Note_on_c, 3, 67, 52
9, 182751, Note_on_c, 3, 67, 0
9, 182760, Note_on_c, 3, 67, 52
9, 182969, Note_on_c, 3, 67, 0
9, 182970, Note_on_c, 3, 65, 52
9, 182995, Note_on_c, 3, 65, 0
9, 183000, Note_on_c, 3, 65, 52
9, 183351, Note_on_c, 3, 65, 0
9, 183360, Note_on_c, 3, 65, 52
9, 183471, Note_on_c, 3, 65, 0
9, 183480, Note_on_c, 3, 65, 52
9, 183711, Note_on_c, 3, 65, 0
9, 184436, Control_c, 3, 11, 96
9, 184440, Control_c, 3, 11, 96
9, 184440, Note_on_c, 3, 70, 68
9, 184460, Control_c, 3, 11, 97
9, 184480, Control_c, 3, 11, 99
9, 184500, Control_c, 3, 11, 100
9, 184520, Control_c, 3, 11, 101
9, 184540, Control_c, 3, 11, 102
9, 184560, Control_c, 3, 11, 104
9, 184580, Control_c, 3, 11, 105
9, 184600, Control_c, 3, 11, 106
9, 184620, Control_c, 3, 11, 108
9, 184640, Control_c, 3, 11, 109
9, 184660, Control_c, 3, 11, 110
9, 184679, Note_on_c, 3, 70, 0
9, 184680, Note_on_c, 3, 68, 68
9, 184680, Control_c, 3, 11, 112
9, 184700, Control_c, 3, 11, 113
9, 184720, Control_c, 3, 11, 114
9, 184740, Control_c, 3, 11, 115
9, 184760, Control_c, 3, 11, 117
9, 184780, Control_c, 3, 11, 118
9, 184800, Control_c, 3, 11, 119
9, 184820, Control_c, 3, 11, 121
9, 184840, Control_c, 3, 11, 122
9, 184860, Control_c, 3, 11, 123
9, 184880, Control_c, 3, 11, 124
9, 184889, Note_on_c, 3, 68, 0
9, 184890, Note_on_c, 3, 67, 68
9, 184900, Control_c, 3, 11, 127
9, 184915, Note_on_c, 3, 67, 0
9, 184920, Note_on_c, 3, 67, 76
9, 184950, Control_c, 3, 11, 112
9, 184969, Control_c, 3, 11, 111
9, 184988, Control_c, 3, 11, 109
9, 185006, Control_c, 3, 11, 108
9, 185025, Control_c, 3, 11, 107
9, 185044, Control_c, 3, 11, 105
9, 185063, Control_c, 3, 11, 104
9, 185081, Control_c, 3, 11, 103
9, 185100, Control_c, 3, 11, 101
9, 185119, Control_c, 3, 11, 100
9, 185138, Control_c, 3, 11, 99
9, 185156, Control_c, 3, 11, 97
9, 185175, Control_c, 3, 11, 96
9, 185194, Control_c, 3, 11, 95
9, 185213, Control_c, 3, 11, 93
9, 185231, Control_c, 3, 11, 92
9, 185250, Control_c, 3, 11, 91
9, 185264, Note_on_c, 3, 67, 0
9, 185269, Control_c, 3, 11, 89
9, 185280, Note_on_c, 3, 70, 76
9, 185288, Control_c, 3, 11, 88
9, 185306, Control_c, 3, 11, 87
9, 185325, Control_c, 3, 11, 85
9, 185344, Control_c, 3, 11, 84
9, 185363, Control_c, 3, 11, 83
9, 185381, Control_c, 3, 11, 80
9, 185383, Note_on_c, 3, 70, 0
9, 185400, Note_on_c, 3, 68, 76
9, 185511, Note_on_c, 3, 68, 0
9, 185520, Note_on_c, 3, 68, 76
9, 185631, Note_on_c, 3, 68, 0
9, 185640, Note_on_c, 3, 67, 76
9, 185751, Note_on_c, 3, 67, 0
9, 185760, Note_on_c, 3, 69, 76
9, 185880, Control_c, 3, 11, 80
9, 185890, Control_c, 3, 11, 83
9, 185900, Control_c, 3, 11, 85
9, 185910, Control_c, 3, 11, 88
9, 185920, Control_c, 3, 11, 91
9, 185930, Control_c, 3, 11, 93
9, 185940, Control_c, 3, 11, 96
9, 185950, Control_c, 3, 11, 99
9, 185960, Control_c, 3, 11, 101
9, 185970, Control_c, 3, 11, 104
9, 185980, Control_c, 3, 11, 107
9, 185990, Control_c, 3, 11, 109
9, 186000, Control_c, 3, 11, 112
9, 186010, Control_c, 3, 11, 109
9, 186020, Control_c, 3, 11, 107
9, 186030, Control_c, 3, 11, 104
9, 186040, Control_c, 3, 11, 101
9, 186050, Control_c, 3, 11, 99
9, 186060, Control_c, 3, 11, 96
9, 186070, Control_c, 3, 11, 93
9, 186080, Control_c, 3, 11, 91
9, 186089, Note_on_c, 3, 69, 0
9, 186090, Note_on_c, 3, 70, 76
9, 186090, Control_c, 3, 11, 88
9, 186100, Control_c, 3, 11, 85
9, 186110, Control_c, 3, 11, 80
9, 186115, Note_on_c, 3, 70, 0
9, 186120, Note_on_c, 3, 70, 76
9, 186239, Note_on_c, 3, 70, 0
9, 188500, Control_c, 3, 11, 95
9, 188520, Note_on_c, 3, 77, 76
9, 188520, Control_c, 3, 11, 97
9, 188540, Control_c, 3, 11, 98
9, 188560, Control_c, 3, 11, 99
9, 188580, Control_c, 3, 11, 100
9, 188600, Control_c, 3, 11, 102
9, 188620, Control_c, 3, 11, 103
9, 188640, Control_c, 3, 11, 104
9, 188660, Control_c, 3, 11, 106
9, 188680, Control_c, 3, 11, 107
9, 188700, Control_c, 3, 11, 108
9, 188720, Control_c, 3, 11, 109
9, 188729, Note_on_c, 3, 77, 0
9, 188730, Note_on_c, 3, 75, 76
9, 188755, Note_on_c, 3, 75, 0
9, 188758, Control_c, 3, 11, 127
9, 188760, Note_on_c, 3, 75, 76
9, 188790, Control_c, 3, 11, 112
9, 188809, Control_c, 3, 11, 111
9, 188828, Control_c, 3, 11, 109
9, 188846, Control_c, 3, 11, 108
9, 188865, Control_c, 3, 11, 107
9, 188884, Control_c, 3, 11, 105
9, 188903, Control_c, 3, 11, 104
9, 188921, Control_c, 3, 11, 103
9, 188940, Control_c, 3, 11, 101
9, 188959, Control_c, 3, 11, 100
9, 188978, Control_c, 3, 11, 99
9, 188996, Control_c, 3, 11, 97
9, 189015, Control_c, 3, 11, 96
9, 189034, Control_c, 3, 11, 95
9, 189053, Control_c, 3, 11, 93
9, 189071, Control_c, 3, 11, 92
9, 189090, Control_c, 3, 11, 91
9, 189109, Control_c, 3, 11, 89
9, 189111, Note_on_c, 3, 75, 0
9, 189120, Note_on_c, 3, 75, 76
9, 189128, Control_c, 3, 11, 88
9, 189146, Control_c, 3, 11, 87
9, 189165, Control_c, 3, 11, 85
9, 189184, Control_c, 3, 11, 84
9, 189203, Control_c, 3, 11, 83
9, 189221, Control_c, 3, 11, 80
9, 189351, Note_on_c, 3, 75, 0
9, 189360, Note_on_c, 3, 70, 76
9, 189479, Note_on_c, 3, 70, 0
9, 189480, Note_on_c, 3, 70, 76
9, 189591, Note_on_c, 3, 70, 0
9, 189600, Note_on_c, 3, 69, 76
9, 189720, Control_c, 3, 11, 80
9, 189730, Control_c, 3, 11, 83
9, 189740, Control_c, 3, 11, 85
9, 189750, Control_c, 3, 11, 88
9, 189760, Control_c, 3, 11, 91
9, 189770, Control_c, 3, 11, 93
9, 189780, Control_c, 3, 11, 96
9, 189790, Control_c, 3, 11, 99
9, 189800, Control_c, 3, 11, 101
9, 189810, Control_c, 3, 11, 104
9, 189820, Control_c, 3, 11, 107
9, 189830, Control_c, 3, 11, 109
9, 189840, Control_c, 3, 11, 112
9, 189850, Control_c, 3, 11, 109
9, 189860, Control_c, 3, 11, 107
9, 189870, Control_c, 3, 11, 104
9, 189880, Control_c, 3, 11, 101
9, 189890, Control_c, 3, 11, 99
9, 189900, Control_c, 3, 11, 96
9, 189910, Control_c, 3, 11, 93
9, 189920, Control_c, 3, 11, 91
9, 189929, Note_on_c, 3, 69, 0
9, 189930, Note_on_c, 3, 70, 76
9, 189930, Control_c, 3, 11, 88
9, 189940, Control_c, 3, 11, 85
9, 189950, Control_c, 3, 11, 80
9, 189955, Note_on_c, 3, 70, 0
9, 189960, Note_on_c, 3, 70, 76
9, 190079, Note_on_c, 3, 70, 0
9, 190132, Control_c, 3, 11, 96
9, 193078, Control_c, 3, 11, 96
9, 193080, Control_c, 3, 11, 96
9, 193080, Note_on_c, 3, 63, 68
9, 193095, Control_c, 3, 11, 99
9, 193110, Control_c, 3, 11, 101
9, 193125, Control_c, 3, 11, 104
9, 193140, Control_c, 3, 11, 106
9, 193155, Control_c, 3, 11, 109
9, 193170, Control_c, 3, 11, 112
9, 193185, Control_c, 3, 11, 114
9, 193200, Control_c, 3, 11, 117
9, 193215, Control_c, 3, 11, 119
9, 193230, Control_c, 3, 11, 122
9, 193245, Control_c, 3, 11, 127
9, 193260, Control_c, 3, 11, 127
9, 193275, Control_c, 3, 11, 124
9, 193290, Control_c, 3, 11, 122
9, 193305, Control_c, 3, 11, 119
9, 193311, Note_on_c, 3, 63, 0
9, 193320, Note_on_c, 3, 62, 68
9, 193320, Control_c, 3, 11, 117
9, 193335, Control_c, 3, 11, 114
9, 193350, Control_c, 3, 11, 112
9, 193365, Control_c, 3, 11, 109
9, 193380, Control_c, 3, 11, 106
9, 193395, Control_c, 3, 11, 104
9, 193410, Control_c, 3, 11, 101
9, 193425, Control_c, 3, 11, 96
9, 193499, Note_on_c, 3, 62, 0
9, 193500, Note_on_c, 3, 65, 68
9, 193555, Note_on_c, 3, 65, 0
9, 193560, Note_on_c, 3, 63, 68
9, 193679, Note_on_c, 3, 63, 0
9, 194010, Control_c, 3, 11, 127
9, 194040, Note_on_c, 3, 56, 52
9, 194075, Note_on_c, 3, 56, 0
9, 194080, Note_on_c, 3, 58, 52
9, 194115, Note_on_c, 3, 58, 0
9, 194120, Note_on_c, 3, 62, 52
9, 194155, Note_on_c, 3, 62, 0
9, 194160, Note_on_c, 3, 65, 52
9, 194195, Note_on_c, 3, 65, 0
9, 194200, Note_on_c, 3, 62, 52
9, 194235, Note_on_c, 3, 62, 0
9, 194240, Note_on_c, 3, 58, 52
9, 194275, Note_on_c, 3, 58, 0
9, 194280, Note_on_c, 3, 56, 52
9, 194315, Note_on_c, 3, 56, 0
9, 194320, Note_on_c, 3, 58, 52
9, 194355, Note_on_c, 3, 58, 0
9, 194360, Note_on_c, 3, 62, 52
9, 194395, Note_on_c, 3, 62, 0
9, 194400, Note_on_c, 3, 65, 52
9, 194435, Note_on_c, 3, 65, 0
9, 194440, Note_on_c, 3, 62, 52
9, 194475, Note_on_c, 3, 62, 0
9, 194480, Note_on_c, 3, 58, 52
9, 194515, Note_on_c, 3, 58, 0
9, 194520, Note_on_c, 3, 56, 52
9, 194555, Note_on_c, 3, 56, 0
9, 194560, Note_on_c, 3, 58, 52
9, 194595, Note_on_c, 3, 58, 0
9, 194600, Note_on_c, 3, 62, 52
9, 194635, Note_on_c, 3, 62, 0
9, 194640, Note_on_c, 3, 65, 52
9, 194675, Note_on_c, 3, 65, 0
9, 194680, Note_on_c, 3, 62, 52
9, 194715, Note_on_c, 3, 62, 0
9, 194720, Note_on_c, 3, 58, 52
9, 194755, Note_on_c, 3, 58, 0
9, 194760, Note_on_c, 3, 56, 52
9, 194795, Note_on_c, 3, 56, 0
9, 194800, Note_on_c, 3, 58, 52
9, 194835, Note_on_c, 3, 58, 0
9, 194840, Note_on_c, 3, 62, 52
9, 194875, Note_on_c, 3, 62, 0
9, 194880, Note_on_c, 3, 65, 52
9, 194915, Note_on_c, 3, 65, 0
9, 194920, Note_on_c, 3, 62, 52
9, 194955, Note_on_c, 3, 62, 0
9, 194960, Note_on_c, 3, 58, 52
9, 194995, Note_on_c, 3, 58, 0
9, 195000, Note_on_c, 3, 56, 52
9, 195035, Note_on_c, 3, 56, 0
9, 195040, Note_on_c, 3, 58, 52
9, 195075, Note_on_c, 3, 58, 0
9, 195080, Note_on_c, 3, 62, 52
9, 195115, Note_on_c, 3, 62, 0
9, 195120, Note_on_c, 3, 65, 52
9, 195155, Note_on_c, 3, 65, 0
9, 195160, Note_on_c, 3, 62, 52
9, 195195, Note_on_c, 3, 62, 0
9, 195200, Note_on_c, 3, 58, 52
9, 195235, Note_on_c, 3, 58, 0
9, 195240, Note_on_c, 3, 56, 52
9, 195275, Note_on_c, 3, 56, 0
9, 195280, Note_on_c, 3, 58, 52
9, 195315, Note_on_c, 3, 58, 0
9, 195320, Note_on_c, 3, 62, 52
9, 195355, Note_on_c, 3, 62, 0
9, 195360, Note_on_c, 3, 65, 52
9, 195395, Note_on_c, 3, 65, 0
9, 195400, Note_on_c, 3, 62, 52
9, 195435, Note_on_c, 3, 62, 0
9, 195440, Note_on_c, 3, 58, 52
9, 195475, Note_on_c, 3, 58, 0
9, 195480, Note_on_c, 3, 56, 52
9, 195515, Note_on_c, 3, 56, 0
9, 195520, Note_on_c, 3, 58, 52
9, 195555, Note_on_c, 3, 58, 0
9, 195560, Note_on_c, 3, 62, 52
9, 195595, Note_on_c, 3, 62, 0
9, 195600, Note_on_c, 3, 65, 52
9, 195640, Note_on_c, 3, 62, 52
9, 195644, Note_on_c, 3, 65, 0
9, 195675, Note_on_c, 3, 62, 0
9, 195680, Note_on_c, 3, 58, 52
9, 195715, Note_on_c, 3, 58, 0
9, 195720, Note_on_c, 3, 56, 52
9, 195755, Note_on_c, 3, 56, 0
9, 195760, Note_on_c, 3, 58, 52
9, 195795, Note_on_c, 3, 58, 0
9, 195800, Note_on_c, 3, 62, 52
9, 195835, Note_on_c, 3, 62, 0
9, 195840, Note_on_c, 3, 65, 52
9, 195875, Note_on_c, 3, 65, 0
9, 195880, Note_on_c, 3, 62, 52
9, 195915, Note_on_c, 3, 62, 0
9, 195920, Note_on_c, 3, 58, 52
9, 195955, Note_on_c, 3, 58, 0
9, 195960, Note_on_c, 3, 55, 52
9, 195995, Note_on_c, 3, 55, 0
9, 196000, Note_on_c, 3, 58, 52
9, 196035, Note_on_c, 3, 58, 0
9, 196040, Note_on_c, 3, 63, 52
9, 196075, Note_on_c, 3, 63, 0
9, 196080, Note_on_c, 3, 67, 52
9, 196115, Note_on_c, 3, 67, 0
9, 196120, Note_on_c, 3, 63, 52
9, 196155, Note_on_c, 3, 63, 0
9, 196160, Note_on_c, 3, 58, 52
9, 196195, Note_on_c, 3, 58, 0
9, 196200, Note_on_c, 3, 55, 52
9, 196235, Note_on_c, 3, 55, 0
9, 196240, Note_on_c, 3, 58, 52
9, 196275, Note_on_c, 3, 58, 0
9, 196280, Note_on_c, 3, 63, 52
9, 196315, Note_on_c, 3, 63, 0
9, 196320, Note_on_c, 3, 67, 52
9, 196355, Note_on_c, 3, 67, 0
9, 196360, Note_on_c, 3, 63, 52
9, 196395, Note_on_c, 3, 63, 0
9, 196400, Note_on_c, 3, 58, 52
9, 196435, Note_on_c, 3, 58, 0
9, 196440, Note_on_c, 3, 56, 52
9, 196475, Note_on_c, 3, 56, 0
9, 196480, Note_on_c, 3, 60, 52
9, 196515, Note_on_c, 3, 60, 0
9, 196520, Note_on_c, 3, 65, 52
9, 196555, Note_on_c, 3, 65, 0
9, 196560, Note_on_c, 3, 68, 52
9, 196595, Note_on_c, 3, 68, 0
9, 196600, Note_on_c, 3, 65, 52
9, 196635, Note_on_c, 3, 65, 0
9, 196640, Note_on_c, 3, 60, 52
9, 196675, Note_on_c, 3, 60, 0
9, 196680, Note_on_c, 3, 56, 52
9, 196715, Note_on_c, 3, 56, 0
9, 196720, Note_on_c, 3, 60, 52
9, 196755, Note_on_c, 3, 60, 0
9, 196760, Note_on_c, 3, 65, 52
9, 196795, Note_on_c, 3, 65, 0
9, 196800, Note_on_c, 3, 68, 52
9, 196835, Note_on_c, 3, 68, 0
9, 196840, Note_on_c, 3, 65, 52
9, 196875, Note_on_c, 3, 65, 0
9, 196880, Note_on_c, 3, 60, 52
9, 196915, Note_on_c, 3, 60, 0
9, 196918, Control_c, 3, 11, 96
9, 196920, Note_on_c, 3, 55, 68
9, 196920, Control_c, 3, 11, 96
9, 196940, Control_c, 3, 11, 99
9, 196955, Note_on_c, 3, 55, 0
9, 196960, Note_on_c, 3, 58, 68
9, 196960, Control_c, 3, 11, 101
9, 196980, Control_c, 3, 11, 104
9, 196995, Note_on_c, 3, 58, 0
9, 197000, Note_on_c, 3, 63, 68
9, 197000, Control_c, 3, 11, 106
9, 197020, Control_c, 3, 11, 109
9, 197035, Note_on_c, 3, 63, 0
9, 197040, Control_c, 3, 11, 112
9, 197040, Note_on_c, 3, 67, 68
9, 197060, Control_c, 3, 11, 114
9, 197075, Note_on_c, 3, 67, 0
9, 197080, Note_on_c, 3, 63, 68
9, 197080, Control_c, 3, 11, 117
9, 197100, Control_c, 3, 11, 119
9, 197115, Note_on_c, 3, 63, 0
9, 197120, Note_on_c, 3, 58, 68
9, 197120, Control_c, 3, 11, 122
9, 197140, Control_c, 3, 11, 124
9, 197155, Note_on_c, 3, 58, 0
9, 197160, Note_on_c, 3, 56, 68
9, 197160, Control_c, 3, 11, 127
9, 197180, Control_c, 3, 11, 124
9, 197195, Note_on_c, 3, 56, 0
9, 197200, Control_c, 3, 11, 122
9, 197200, Note_on_c, 3, 58, 68
9, 197220, Control_c, 3, 11, 119
9, 197235, Note_on_c, 3, 58, 0
9, 197240, Control_c, 3, 11, 117
9, 197240, Note_on_c, 3, 62, 68
9, 197260, Control_c, 3, 11, 114
9, 197275, Note_on_c, 3, 62, 0
9, 197280, Note_on_c, 3, 65, 68
9, 197280, Control_c, 3, 11, 112
9, 197300, Control_c, 3, 11, 109
9, 197315, Note_on_c, 3, 65, 0
9, 197320, Control_c, 3, 11, 106
9, 197320, Note_on_c, 3, 62, 68
9, 197340, Control_c, 3, 11, 104
9, 197355, Note_on_c, 3, 62, 0
9, 197360, Note_on_c, 3, 56, 68
9, 197360, Control_c, 3, 11, 101
9, 197380, Control_c, 3, 11, 96
9, 197395, Note_on_c, 3, 56, 0
9, 197400, Note_on_c, 3, 55, 68
9, 197519, Note_on_c, 3, 55, 0
9, 197640, Control_c, 3, 11, 127
9, 205080, Note_on_c, 3, 55, 76
9, 205115, Note_on_c, 3, 55, 0
9, 205120, Note_on_c, 3, 58, 52
9, 205155, Note_on_c, 3, 58, 0
9, 205160, Note_on_c, 3, 63, 52
9, 205195, Note_on_c, 3, 63, 0
9, 205200, Note_on_c, 3, 67, 52
9, 205235, Note_on_c, 3, 67, 0
9, 205240, Note_on_c, 3, 63, 52
9, 205275, Note_on_c, 3, 63, 0
9, 205280, Note_on_c, 3, 58, 52
9, 205315, Note_on_c, 3, 58, 0
9, 205320, Note_on_c, 3, 55, 52
9, 205355, Note_on_c, 3, 55, 0
9, 205360, Note_on_c, 3, 58, 52
9, 205395, Note_on_c, 3, 58, 0
9, 205400, Note_on_c, 3, 63, 52
9, 205435, Note_on_c, 3, 63, 0
9, 205440, Note_on_c, 3, 67, 52
9, 205475, Note_on_c, 3, 67, 0
9, 205480, Note_on_c, 3, 63, 52
9, 205515, Note_on_c, 3, 63, 0
9, 205520, Note_on_c, 3, 58, 52
9, 205555, Note_on_c, 3, 58, 0
9, 205560, Note_on_c, 3, 55, 52
9, 205595, Note_on_c, 3, 55, 0
9, 205600, Note_on_c, 3, 58, 52
9, 205635, Note_on_c, 3, 58, 0
9, 205640, Note_on_c, 3, 63, 52
9, 205675, Note_on_c, 3, 63, 0
9, 205680, Note_on_c, 3, 67, 52
9, 205715, Note_on_c, 3, 67, 0
9, 205720, Note_on_c, 3, 63, 52
9, 205755, Note_on_c, 3, 63, 0
9, 205760, Note_on_c, 3, 58, 52
9, 205795, Note_on_c, 3, 58, 0
9, 205800, Note_on_c, 3, 55, 52
9, 205835, Note_on_c, 3, 55, 0
9, 205840, Note_on_c, 3, 58, 52
9, 205875, Note_on_c, 3, 58, 0
9, 205880, Note_on_c, 3, 63, 52
9, 205915, Note_on_c, 3, 63, 0
9, 205920, Note_on_c, 3, 67, 52
9, 205955, Note_on_c, 3, 67, 0
9, 205960, Note_on_c, 3, 63, 52
9, 205995, Note_on_c, 3, 63, 0
9, 206000, Note_on_c, 3, 58, 52
9, 206035, Note_on_c, 3, 58, 0
9, 206040, Note_on_c, 3, 56, 52
9, 206075, Note_on_c, 3, 56, 0
9, 206080, Note_on_c, 3, 62, 52
9, 206115, Note_on_c, 3, 62, 0
9, 206120, Note_on_c, 3, 65, 52
9, 206155, Note_on_c, 3, 65, 0
9, 206160, Note_on_c, 3, 68, 52
9, 206195, Note_on_c, 3, 68, 0
9, 206200, Note_on_c, 3, 65, 52
9, 206235, Note_on_c, 3, 65, 0
9, 206240, Note_on_c, 3, 62, 52
9, 206275, Note_on_c, 3, 62, 0
9, 206280, Note_on_c, 3, 56, 52
9, 206399, Note_on_c, 3, 56, 0
9, 207000, Note_on_c, 3, 55, 52
9, 207035, Note_on_c, 3, 55, 0
9, 207040, Note_on_c, 3, 58, 52
9, 207075, Note_on_c, 3, 58, 0
9, 207080, Note_on_c, 3, 63, 52
9, 207115, Note_on_c, 3, 63, 0
9, 207120, Note_on_c, 3, 67, 52
9, 207155, Note_on_c, 3, 67, 0
9, 207160, Note_on_c, 3, 63, 52
9, 207195, Note_on_c, 3, 63, 0
9, 207200, Note_on_c, 3, 58, 52
9, 207235, Note_on_c, 3, 58, 0
9, 207240, Note_on_c, 3, 55, 52
9, 207275, Note_on_c, 3, 55, 0
9, 207280, Note_on_c, 3, 58, 52
9, 207315, Note_on_c, 3, 58, 0
9, 207320, Note_on_c, 3, 63, 52
9, 207355, Note_on_c, 3, 63, 0
9, 207360, Note_on_c, 3, 67, 52
9, 207395, Note_on_c, 3, 67, 0
9, 207400, Note_on_c, 3, 63, 52
9, 207435, Note_on_c, 3, 63, 0
9, 207440, Note_on_c, 3, 58, 52
9, 207475, Note_on_c, 3, 58, 0
9, 207480, Note_on_c, 3, 55, 52
9, 207515, Note_on_c, 3, 55, 0
9, 207520, Note_on_c, 3, 58, 52
9, 207555, Note_on_c, 3, 58, 0
9, 207560, Note_on_c, 3, 63, 52
9, 207595, Note_on_c, 3, 63, 0
9, 207600, Note_on_c, 3, 67, 52
9, 207635, Note_on_c, 3, 67, 0
9, 207640, Note_on_c, 3, 63, 52
9, 207675, Note_on_c, 3, 63, 0
9, 207680, Note_on_c, 3, 58, 52
9, 207715, Note_on_c, 3, 58, 0
9, 207720, Note_on_c, 3, 55, 52
9, 207755, Note_on_c, 3, 55, 0
9, 207760, Note_on_c, 3, 58, 52
9, 207795, Note_on_c, 3, 58, 0
9, 207800, Note_on_c, 3, 63, 52
9, 207835, Note_on_c, 3, 63, 0
9, 207840, Note_on_c, 3, 67, 52
9, 207875, Note_on_c, 3, 67, 0
9, 207880, Note_on_c, 3, 63, 52
9, 207915, Note_on_c, 3, 63, 0
9, 207920, Note_on_c, 3, 58, 52
9, 207955, Note_on_c, 3, 58, 0
9, 207960, Note_on_c, 3, 56, 52
9, 207995, Note_on_c, 3, 56, 0
9, 208000, Note_on_c, 3, 62, 52
9, 208035, Note_on_c, 3, 62, 0
9, 208040, Note_on_c, 3, 65, 52
9, 208075, Note_on_c, 3, 65, 0
9, 208080, Note_on_c, 3, 68, 52
9, 208115, Note_on_c, 3, 68, 0
9, 208120, Note_on_c, 3, 65, 52
9, 208155, Note_on_c, 3, 65, 0
9, 208160, Note_on_c, 3, 62, 52
9, 208195, Note_on_c, 3, 62, 0
9, 208200, Note_on_c, 3, 56, 52
9, 208319, Note_on_c, 3, 56, 0
9, 208319, End_track
10, 0, Start_track
10, 0, Title_t, "Bassoon"
10, 0, MIDI_port, 0
10, 0, Program_c, 4, 70
10, 0, Control_c, 4, 7, 96
10, 0, Control_c, 4, 10, 65
10, 0, Control_c, 4, 11, 127
10, 3000, Note_on_c, 4, 46, 84
10, 3000, Note_on_c, 4, 62, 84
10, 3239, Note_on_c, 4, 46, 0
10, 3239, Note_on_c, 4, 62, 0
10, 3480, Note_on_c, 4, 46, 84
10, 3480, Note_on_c, 4, 62, 84
10, 3704, Note_on_c, 4, 46, 0
10, 3704, Note_on_c, 4, 62, 0
10, 3720, Note_on_c, 4, 62, 84
10, 3720, Note_on_c, 4, 46, 84
10, 3944, Note_on_c, 4, 62, 0
10, 3944, Note_on_c, 4, 46, 0
10, 3960, Note_on_c, 4, 62, 84
10, 3960, Note_on_c, 4, 46, 84
10, 4184, Note_on_c, 4, 62, 0
10, 4184, Note_on_c, 4, 46, 0
10, 4200, Note_on_c, 4, 46, 92
10, 4200, Note_on_c, 4, 62, 92
10, 4439, Note_on_c, 4, 46, 0
10, 4439, Note_on_c, 4, 62, 0
10, 4680, Note_on_c, 4, 62, 92
10, 4680, Note_on_c, 4, 65, 92
10, 4904, Note_on_c, 4, 62, 0
10, 4904, Note_on_c, 4, 65, 0
10, 4920, Note_on_c, 4, 65, 92
10, 4920, Note_on_c, 4, 62, 92
10, 5399, Note_on_c, 4, 65, 0
10, 5399, Note_on_c, 4, 62, 0
10, 9480, Note_on_c, 4, 51, 52
10, 9599, Note_on_c, 4, 51, 0
10, 9960, Note_on_c, 4, 58, 52
10, 10079, Note_on_c, 4, 58, 0
10, 10440, Note_on_c, 4, 46, 52
10, 10559, Note_on_c, 4, 46, 0
10, 10920, Note_on_c, 4, 51, 52
10, 11039, Note_on_c, 4, 51, 0
10, 11280, Note_on_c, 4, 51, 52
10, 11399, Note_on_c, 4, 51, 0
10, 11520, Note_on_c, 4, 50, 52
10, 11639, Note_on_c, 4, 50, 0
10, 11760, Note_on_c, 4, 51, 52
10, 11879, Note_on_c, 4, 51, 0
10, 12000, Note_on_c, 4, 52, 52
10, 12104, Note_on_c, 4, 52, 0
10, 12120, Note_on_c, 4, 53, 52
10, 12209, Note_on_c, 4, 53, 0
10, 12240, Note_on_c, 4, 50, 52
10, 12329, Note_on_c, 4, 50, 0
10, 12360, Note_on_c, 4, 51, 52
10, 12449, Note_on_c, 4, 51, 0
10, 12480, Note_on_c, 4, 45, 52
10, 12569, Note_on_c, 4, 45, 0
10, 12600, Note_on_c, 4, 46, 52
10, 12779, Note_on_c, 4, 46, 0
10, 13560, Note_on_c, 4, 46, 84
10, 13560, Note_on_c, 4, 34, 84
10, 13649, Note_on_c, 4, 46, 0
10, 13649, Note_on_c, 4, 34, 0
10, 13680, Note_on_c, 4, 34, 84
10, 13680, Note_on_c, 4, 46, 84
10, 13769, Note_on_c, 4, 34, 0
10, 13769, Note_on_c, 4, 46, 0
10, 13800, Note_on_c, 4, 34, 84
10, 13800, Note_on_c, 4, 46, 84
10, 13889, Note_on_c, 4, 34, 0
10, 13889, Note_on_c, 4, 46, 0
10, 14520, Note_on_c, 4, 46, 52
10, 14520, Note_on_c, 4, 34, 52
10, 14879, Note_on_c, 4, 46, 0
10, 14879, Note_on_c, 4, 34, 0
10, 17400, Note_on_c, 4, 34, 84
10, 17400, Note_on_c, 4, 46, 84
10, 17489, Note_on_c, 4, 34, 0
10, 17489, Note_on_c, 4, 46, 0
10, 17520, Note_on_c, 4, 34, 84
10, 17520, Note_on_c, 4, 46, 84
10, 17609, Note_on_c, 4, 34, 0
10, 17609, Note_on_c, 4, 46, 0
10, 17640, Note_on_c, 4, 46, 84
10, 17640, Note_on_c, 4, 34, 84
10, 17729, Note_on_c, 4, 46, 0
10, 17729, Note_on_c, 4, 34, 0
10, 18360, Note_on_c, 4, 46, 52
10, 18360, Note_on_c, 4, 34, 52
10, 18719, Note_on_c, 4, 46, 0
10, 18719, Note_on_c, 4, 34, 0
10, 19080, Note_on_c, 4, 55, 52
10, 19199, Note_on_c, 4, 55, 0
10, 19560, Note_on_c, 4, 56, 52
10, 19679, Note_on_c, 4, 56, 0
10, 19920, Note_on_c, 4, 58, 52
10, 20039, Note_on_c, 4, 58, 0
10, 20160, Note_on_c, 4, 58, 52
10, 20279, Note_on_c, 4, 58, 0
10, 20520, Note_on_c, 4, 51, 52
10, 20639, Note_on_c, 4, 51, 0
10, 51360, Note_on_c, 4, 58, 48
10, 51479, Note_on_c, 4, 58, 0
10, 51480, Note_on_c, 4, 51, 48
10, 51480, Note_on_c, 4, 58, 48
10, 51839, Note_on_c, 4, 58, 0
10, 51840, Note_on_c, 4, 63, 48
10, 51944, Note_on_c, 4, 51, 0
10, 51944, Note_on_c, 4, 63, 0
10, 51960, Note_on_c, 4, 58, 48
10, 51960, Note_on_c, 4, 65, 48
10, 52319, Note_on_c, 4, 65, 0
10, 52424, Note_on_c, 4, 58, 0
10, 52440, Note_on_c, 4, 46, 48
10, 52440, Note_on_c, 4, 58, 48
10, 52799, Note_on_c, 4, 58, 0
10, 52800, Note_on_c, 4, 65, 48
10, 52904, Note_on_c, 4, 46, 0
10, 52904, Note_on_c, 4, 65, 0
10, 52920, Note_on_c, 4, 67, 48
10, 52920, Note_on_c, 4, 51, 48
10, 53279, Note_on_c, 4, 67, 0
10, 53280, Note_on_c, 4, 63, 48
10, 53384, Note_on_c, 4, 51, 0
10, 53384, Note_on_c, 4, 63, 0
10, 53392, Control_c, 4, 11, 96
10, 53400, Note_on_c, 4, 63, 68
10, 53400, Control_c, 4, 11, 96
10, 53400, Note_on_c, 4, 51, 68
10, 53440, Control_c, 4, 11, 99
10, 53480, Control_c, 4, 11, 101
10, 53520, Control_c, 4, 11, 104
10, 53560, Control_c, 4, 11, 106
10, 53600, Control_c, 4, 11, 109
10, 53609, Note_on_c, 4, 63, 0
10, 53609, Note_on_c, 4, 51, 0
10, 53640, Note_on_c, 4, 50, 68
10, 53640, Control_c, 4, 11, 112
10, 53640, Note_on_c, 4, 62, 68
10, 53680, Control_c, 4, 11, 114
10, 53720, Control_c, 4, 11, 117
10, 53760, Control_c, 4, 11, 119
10, 53800, Control_c, 4, 11, 122
10, 53819, Note_on_c, 4, 50, 0
10, 53819, Note_on_c, 4, 62, 0
10, 53840, Control_c, 4, 11, 124
10, 53880, Note_on_c, 4, 63, 76
10, 53880, Note_on_c, 4, 51, 76
10, 53880, Control_c, 4, 11, 127
10, 54224, Note_on_c, 4, 63, 0
10, 54224, Note_on_c, 4, 51, 0
10, 54240, Note_on_c, 4, 64, 68
10, 54240, Note_on_c, 4, 52, 68
10, 54329, Note_on_c, 4, 64, 0
10, 54329, Note_on_c, 4, 52, 0
10, 54360, Note_on_c, 4, 53, 68
10, 54360, Note_on_c, 4, 65, 68
10, 54449, Note_on_c, 4, 53, 0
10, 54449, Note_on_c, 4, 65, 0
10, 54480, Note_on_c, 4, 50, 64
10, 54480, Note_on_c, 4, 62, 64
10, 54569, Note_on_c, 4, 50, 0
10, 54569, Note_on_c, 4, 62, 0
10, 54600, Note_on_c, 4, 51, 60
10, 54600, Note_on_c, 4, 63, 60
10, 54689, Note_on_c, 4, 51, 0
10, 54689, Note_on_c, 4, 63, 0
10, 54720, Note_on_c, 4, 57, 56
10, 54720, Note_on_c, 4, 45, 56
10, 54809, Note_on_c, 4, 57, 0
10, 54809, Note_on_c, 4, 45, 0
10, 54840, Note_on_c, 4, 58, 52
10, 54840, Note_on_c, 4, 46, 52
10, 55079, Note_on_c, 4, 58, 0
10, 55079, Note_on_c, 4, 46, 0
10, 55440, Note_on_c, 4, 55, 76
10, 55440, Note_on_c, 4, 58, 76
10, 55529, Note_on_c, 4, 55, 0
10, 55529, Note_on_c, 4, 58, 0
10, 55560, Note_on_c, 4, 58, 76
10, 55560, Note_on_c, 4, 55, 76
10, 55649, Note_on_c, 4, 58, 0
10, 55649, Note_on_c, 4, 55, 0
10, 55680, Note_on_c, 4, 55, 76
10, 55680, Note_on_c, 4, 58, 76
10, 55769, Note_on_c, 4, 55, 0
10, 55769, Note_on_c, 4, 58, 0
10, 55920, Note_on_c, 4, 58, 76
10, 55920, Note_on_c, 4, 56, 76
10, 56009, Note_on_c, 4, 58, 0
10, 56009, Note_on_c, 4, 56, 0
10, 56040, Note_on_c, 4, 58, 76
10, 56040, Note_on_c, 4, 56, 76
10, 56129, Note_on_c, 4, 58, 0
10, 56129, Note_on_c, 4, 56, 0
10, 56160, Note_on_c, 4, 56, 76
10, 56160, Note_on_c, 4, 58, 76
10, 56249, Note_on_c, 4, 56, 0
10, 56249, Note_on_c, 4, 58, 0
10, 56400, Note_on_c, 4, 56, 76
10, 56400, Note_on_c, 4, 58, 76
10, 56489, Note_on_c, 4, 56, 0
10, 56489, Note_on_c, 4, 58, 0
10, 56520, Note_on_c, 4, 58, 76
10, 56520, Note_on_c, 4, 56, 76
10, 56609, Note_on_c, 4, 58, 0
10, 56609, Note_on_c, 4, 56, 0
10, 56640, Note_on_c, 4, 58, 76
10, 56640, Note_on_c, 4, 56, 76
10, 56729, Note_on_c, 4, 58, 0
10, 56729, Note_on_c, 4, 56, 0
10, 56880, Note_on_c, 4, 58, 76
10, 56880, Note_on_c, 4, 55, 76
10, 56969, Note_on_c, 4, 58, 0
10, 56969, Note_on_c, 4, 55, 0
10, 57000, Note_on_c, 4, 55, 76
10, 57000, Note_on_c, 4, 58, 76
10, 57089, Note_on_c, 4, 55, 0
10, 57089, Note_on_c, 4, 58, 0
10, 57120, Note_on_c, 4, 55, 76
10, 57120, Note_on_c, 4, 58, 76
10, 57209, Note_on_c, 4, 55, 0
10, 57209, Note_on_c, 4, 58, 0
10, 57240, Note_on_c, 4, 58, 76
10, 57240, Note_on_c, 4, 55, 76
10, 57344, Note_on_c, 4, 58, 0
10, 57344, Note_on_c, 4, 55, 0
10, 57360, Note_on_c, 4, 58, 76
10, 57360, Note_on_c, 4, 55, 76
10, 57464, Note_on_c, 4, 58, 0
10, 57464, Note_on_c, 4, 55, 0
10, 57480, Note_on_c, 4, 56, 76
10, 57480, Note_on_c, 4, 58, 76
10, 57584, Note_on_c, 4, 56, 0
10, 57584, Note_on_c, 4, 58, 0
10, 57600, Note_on_c, 4, 58, 76
10, 57600, Note_on_c, 4, 56, 76
10, 57704, Note_on_c, 4, 58, 0
10, 57704, Note_on_c, 4, 56, 0
10, 57720, Note_on_c, 4, 55, 84
10, 57720, Note_on_c, 4, 58, 84
10, 57824, Note_on_c, 4, 55, 0
10, 57824, Note_on_c, 4, 58, 0
10, 57840, Note_on_c, 4, 58, 76
10, 57840, Note_on_c, 4, 55, 76
10, 57944, Note_on_c, 4, 58, 0
10, 57944, Note_on_c, 4, 55, 0
10, 57960, Note_on_c, 4, 55, 76
10, 57960, Note_on_c, 4, 58, 76
10, 58064, Note_on_c, 4, 55, 0
10, 58064, Note_on_c, 4, 58, 0
10, 58080, Note_on_c, 4, 58, 76
10, 58080, Note_on_c, 4, 60, 76
10, 58184, Note_on_c, 4, 58, 0
10, 58184, Note_on_c, 4, 60, 0
10, 58200, Note_on_c, 4, 56, 76
10, 58200, Note_on_c, 4, 60, 76
10, 58304, Note_on_c, 4, 56, 0
10, 58304, Note_on_c, 4, 60, 0
10, 58320, Note_on_c, 4, 56, 76
10, 58320, Note_on_c, 4, 58, 76
10, 58424, Note_on_c, 4, 56, 0
10, 58424, Note_on_c, 4, 58, 0
10, 58440, Note_on_c, 4, 55, 76
10, 58440, Note_on_c, 4, 58, 76
10, 58544, Note_on_c, 4, 55, 0
10, 58544, Note_on_c, 4, 58, 0
10, 58560, Note_on_c, 4, 54, 76
10, 58560, Note_on_c, 4, 60, 76
10, 58664, Note_on_c, 4, 54, 0
10, 58664, Note_on_c, 4, 60, 0
10, 58680, Note_on_c, 4, 55, 76
10, 58680, Note_on_c, 4, 58, 76
10, 58784, Note_on_c, 4, 55, 0
10, 58784, Note_on_c, 4, 58, 0
10, 58800, Note_on_c, 4, 58, 76
10, 58800, Note_on_c, 4, 63, 76
10, 58904, Note_on_c, 4, 58, 0
10, 58904, Note_on_c, 4, 63, 0
10, 58920, Note_on_c, 4, 62, 76
10, 58920, Note_on_c, 4, 58, 76
10, 59039, Note_on_c, 4, 62, 0
10, 59039, Note_on_c, 4, 58, 0
10, 59640, Note_on_c, 4, 46, 76
10, 59640, Note_on_c, 4, 58, 76
10, 59729, Note_on_c, 4, 46, 0
10, 59729, Note_on_c, 4, 58, 0
10, 59760, Note_on_c, 4, 58, 76
10, 59760, Note_on_c, 4, 46, 76
10, 59849, Note_on_c, 4, 58, 0
10, 59849, Note_on_c, 4, 46, 0
10, 59880, Note_on_c, 4, 46, 76
10, 59880, Note_on_c, 4, 58, 76
10, 59969, Note_on_c, 4, 46, 0
10, 59969, Note_on_c, 4, 58, 0
10, 60600, Note_on_c, 4, 46, 52
10, 60600, Note_on_c, 4, 58, 52
10, 60959, Note_on_c, 4, 46, 0
10, 60959, Note_on_c, 4, 58, 0
10, 61080, Note_on_c, 4, 55, 52
10, 61080, Note_on_c, 4, 43, 52
10, 61544, Note_on_c, 4, 55, 0
10, 61544, Note_on_c, 4, 43, 0
10, 61560, Note_on_c, 4, 56, 52
10, 61560, Note_on_c, 4, 44, 52
10, 62024, Note_on_c, 4, 56, 0
10, 62024, Note_on_c, 4, 44, 0
10, 62040, Note_on_c, 4, 46, 52
10, 62040, Note_on_c, 4, 58, 52
10, 62264, Note_on_c, 4, 46, 0
10, 62264, Note_on_c, 4, 58, 0
10, 62280, Note_on_c, 4, 58, 52
10, 62280, Note_on_c, 4, 46, 52
10, 62504, Note_on_c, 4, 58, 0
10, 62504, Note_on_c, 4, 46, 0
10, 62520, Note_on_c, 4, 39, 52
10, 62520, Note_on_c, 4, 51, 52
10, 62639, Note_on_c, 4, 39, 0
10, 62639, Note_on_c, 4, 51, 0
10, 63000, Note_on_c, 4, 46, 76
10, 63051, Note_on_c, 4, 46, 0
10, 63060, Note_on_c, 4, 45, 76
10, 63111, Note_on_c, 4, 45, 0
10, 63120, Note_on_c, 4, 46, 76
10, 63171, Note_on_c, 4, 46, 0
10, 63180, Note_on_c, 4, 48, 76
10, 63231, Note_on_c, 4, 48, 0
10, 63240, Note_on_c, 4, 50, 76
10, 63291, Note_on_c, 4, 50, 0
10, 63300, Note_on_c, 4, 51, 76
10, 63351, Note_on_c, 4, 51, 0
10, 63360, Note_on_c, 4, 53, 76
10, 63411, Note_on_c, 4, 53, 0
10, 63420, Note_on_c, 4, 52, 76
10, 63471, Note_on_c, 4, 52, 0
10, 63480, Note_on_c, 4, 53, 76
10, 63531, Note_on_c, 4, 53, 0
10, 63540, Note_on_c, 4, 55, 76
10, 63591, Note_on_c, 4, 55, 0
10, 63600, Note_on_c, 4, 56, 76
10, 63651, Note_on_c, 4, 56, 0
10, 63660, Note_on_c, 4, 55, 76
10, 63711, Note_on_c, 4, 55, 0
10, 63720, Note_on_c, 4, 53, 76
10, 63771, Note_on_c, 4, 53, 0
10, 63780, Note_on_c, 4, 51, 76
10, 63831, Note_on_c, 4, 51, 0
10, 63840, Note_on_c, 4, 50, 76
10, 63891, Note_on_c, 4, 50, 0
10, 63900, Note_on_c, 4, 48, 76
10, 63951, Note_on_c, 4, 48, 0
10, 63960, Note_on_c, 4, 46, 76
10, 64064, Note_on_c, 4, 46, 0
10, 64080, Note_on_c, 4, 56, 76
10, 64080, Note_on_c, 4, 60, 76
10, 64139, Note_on_c, 4, 56, 0
10, 64139, Note_on_c, 4, 60, 0
10, 64140, Note_on_c, 4, 58, 76
10, 64140, Note_on_c, 4, 55, 76
10, 64199, Note_on_c, 4, 58, 0
10, 64199, Note_on_c, 4, 55, 0
10, 64200, Note_on_c, 4, 53, 76
10, 64200, Note_on_c, 4, 56, 76
10, 64259, Note_on_c, 4, 53, 0
10, 64259, Note_on_c, 4, 56, 0
10, 64260, Note_on_c, 4, 55, 76
10, 64260, Note_on_c, 4, 51, 76
10, 64319, Note_on_c, 4, 55, 0
10, 64319, Note_on_c, 4, 51, 0
10, 64320, Note_on_c, 4, 50, 76
10, 64320, Note_on_c, 4, 53, 76
10, 64379, Note_on_c, 4, 50, 0
10, 64379, Note_on_c, 4, 53, 0
10, 64380, Note_on_c, 4, 51, 76
10, 64380, Note_on_c, 4, 55, 76
10, 64431, Note_on_c, 4, 51, 0
10, 64431, Note_on_c, 4, 55, 0
10, 64440, Note_on_c, 4, 46, 76
10, 64440, Note_on_c, 4, 53, 76
10, 64799, Note_on_c, 4, 46, 0
10, 64799, Note_on_c, 4, 53, 0
10, 65040, Note_on_c, 4, 55, 76
10, 65040, Note_on_c, 4, 43, 76
10, 65129, Note_on_c, 4, 55, 0
10, 65129, Note_on_c, 4, 43, 0
10, 65160, Note_on_c, 4, 55, 76
10, 65160, Note_on_c, 4, 43, 76
10, 65249, Note_on_c, 4, 55, 0
10, 65249, Note_on_c, 4, 43, 0
10, 65280, Note_on_c, 4, 43, 76
10, 65280, Note_on_c, 4, 55, 76
10, 65369, Note_on_c, 4, 43, 0
10, 65369, Note_on_c, 4, 55, 0
10, 65520, Note_on_c, 4, 44, 76
10, 65520, Note_on_c, 4, 56, 76
10, 65624, Note_on_c, 4, 44, 0
10, 65624, Note_on_c, 4, 56, 0
10, 65640, Note_on_c, 4, 56, 76
10, 65640, Note_on_c, 4, 44, 76
10, 65744, Note_on_c, 4, 56, 0
10, 65744, Note_on_c, 4, 44, 0
10, 65760, Note_on_c, 4, 44, 76
10, 65760, Note_on_c, 4, 56, 76
10, 65864, Note_on_c, 4, 44, 0
10, 65864, Note_on_c, 4, 56, 0
10, 65880, Note_on_c, 4, 46, 76
10, 65880, Note_on_c, 4, 58, 76
10, 65984, Note_on_c, 4, 46, 0
10, 65984, Note_on_c, 4, 58, 0
10, 66000, Note_on_c, 4, 58, 76
10, 66000, Note_on_c, 4, 63, 76
10, 66104, Note_on_c, 4, 58, 0
10, 66104, Note_on_c, 4, 63, 0
10, 66120, Note_on_c, 4, 56, 76
10, 66120, Note_on_c, 4, 58, 76
10, 66224, Note_on_c, 4, 56, 0
10, 66224, Note_on_c, 4, 58, 0
10, 66240, Note_on_c, 4, 58, 76
10, 66240, Note_on_c, 4, 56, 76
10, 66344, Note_on_c, 4, 58, 0
10, 66344, Note_on_c, 4, 56, 0
10, 66360, Note_on_c, 4, 58, 76
10, 66360, Note_on_c, 4, 55, 76
10, 66479, Note_on_c, 4, 58, 0
10, 66479, Note_on_c, 4, 55, 0
10, 69120, Note_on_c, 4, 54, 76
10, 69120, Note_on_c, 4, 63, 76
10, 69224, Note_on_c, 4, 54, 0
10, 69224, Note_on_c, 4, 63, 0
10, 69240, Note_on_c, 4, 55, 76
10, 69240, Note_on_c, 4, 62, 76
10, 69344, Note_on_c, 4, 55, 0
10, 69344, Note_on_c, 4, 62, 0
10, 69360, Note_on_c, 4, 55, 76
10, 69360, Note_on_c, 4, 62, 76
10, 69464, Note_on_c, 4, 55, 0
10, 69464, Note_on_c, 4, 62, 0
10, 69480, Note_on_c, 4, 63, 76
10, 69480, Note_on_c, 4, 54, 76
10, 69584, Note_on_c, 4, 63, 0
10, 69584, Note_on_c, 4, 54, 0
10, 69600, Note_on_c, 4, 54, 76
10, 69600, Note_on_c, 4, 63, 76
10, 69704, Note_on_c, 4, 54, 0
10, 69704, Note_on_c, 4, 63, 0
10, 69720, Note_on_c, 4, 62, 76
10, 69720, Note_on_c, 4, 55, 76
10, 69824, Note_on_c, 4, 62, 0
10, 69824, Note_on_c, 4, 55, 0
10, 69840, Note_on_c, 4, 62, 76
10, 69840, Note_on_c, 4, 55, 76
10, 69944, Note_on_c, 4, 62, 0
10, 69944, Note_on_c, 4, 55, 0
10, 69960, Note_on_c, 4, 63, 76
10, 69960, Note_on_c, 4, 54, 76
10, 70064, Note_on_c, 4, 63, 0
10, 70064, Note_on_c, 4, 54, 0
10, 70080, Note_on_c, 4, 63, 76
10, 70080, Note_on_c, 4, 54, 76
10, 70184, Note_on_c, 4, 63, 0
10, 70184, Note_on_c, 4, 54, 0
10, 70200, Note_on_c, 4, 62, 84
10, 70200, Note_on_c, 4, 55, 84
10, 70379, Note_on_c, 4, 62, 0
10, 70379, Note_on_c, 4, 55, 0
10, 70440, Note_on_c, 4, 55, 84
10, 70440, Note_on_c, 4, 43, 84
10, 70619, Note_on_c, 4, 55, 0
10, 70619, Note_on_c, 4, 43, 0
10, 70680, Note_on_c, 4, 43, 84
10, 70680, Note_on_c, 4, 55, 84
10, 70859, Note_on_c, 4, 43, 0
10, 70859, Note_on_c, 4, 55, 0
10, 73200, Note_on_c, 4, 65, 52
10, 73304, Note_on_c, 4, 65, 0
10, 73320, Note_on_c, 4, 65, 52
10, 73424, Note_on_c, 4, 65, 0
10, 73440, Note_on_c, 4, 65, 52
10, 73544, Note_on_c, 4, 65, 0
10, 73560, Note_on_c, 4, 65, 52
10, 73799, Note_on_c, 4, 65, 0
10, 73800, Note_on_c, 4, 63, 52
10, 73919, Note_on_c, 4, 63, 0
10, 81240, Note_on_c, 4, 55, 52
10, 81704, Note_on_c, 4, 55, 0
10, 81720, Note_on_c, 4, 60, 52
10, 82184, Note_on_c, 4, 60, 0
10, 82200, Note_on_c, 4, 48, 52
10, 82544, Note_on_c, 4, 48, 0
10, 82560, Note_on_c, 4, 48, 52
10, 82664, Note_on_c, 4, 48, 0
10, 82680, Note_on_c, 4, 48, 52
10, 82784, Note_on_c, 4, 48, 0
10, 82800, Note_on_c, 4, 48, 52
10, 82904, Note_on_c, 4, 48, 0
10, 82920, Note_on_c, 4, 48, 52
10, 83024, Note_on_c, 4, 48, 0
10, 83040, Note_on_c, 4, 48, 52
10, 83144, Note_on_c, 4, 48, 0
10, 83160, Note_on_c, 4, 48, 52
10, 83504, Note_on_c, 4, 48, 0
10, 83520, Note_on_c, 4, 48, 52
10, 83624, Note_on_c, 4, 48, 0
10, 83632, Control_c, 4, 11, 80
10, 83640, Note_on_c, 4, 48, 76
10, 83640, Control_c, 4, 11, 80
10, 83700, Control_c, 4, 11, 82
10, 83744, Note_on_c, 4, 48, 0
10, 83760, Note_on_c, 4, 48, 76
10, 83760, Control_c, 4, 11, 84
10, 83820, Control_c, 4, 11, 86
10, 83864, Note_on_c, 4, 48, 0
10, 83880, Note_on_c, 4, 48, 76
10, 83880, Control_c, 4, 11, 88
10, 83940, Control_c, 4, 11, 90
10, 83984, Note_on_c, 4, 48, 0
10, 84000, Control_c, 4, 11, 92
10, 84000, Note_on_c, 4, 48, 76
10, 84060, Control_c, 4, 11, 94
10, 84104, Note_on_c, 4, 48, 0
10, 84120, Note_on_c, 4, 48, 76
10, 84120, Control_c, 4, 11, 96
10, 84180, Control_c, 4, 11, 98
10, 84239, Note_on_c, 4, 48, 0
10, 84240, Control_c, 4, 11, 100
10, 85020, Control_c, 4, 11, 127
10, 85560, Note_on_c, 4, 55, 76
10, 86024, Note_on_c, 4, 55, 0
10, 86040, Note_on_c, 4, 60, 76
10, 86264, Note_on_c, 4, 60, 0
10, 86280, Note_on_c, 4, 48, 76
10, 86504, Note_on_c, 4, 48, 0
10, 86520, Note_on_c, 4, 48, 76
10, 86864, Note_on_c, 4, 48, 0
10, 86880, Note_on_c, 4, 48, 76
10, 86984, Note_on_c, 4, 48, 0
10, 87000, Note_on_c, 4, 48, 76
10, 87104, Note_on_c, 4, 48, 0
10, 87120, Note_on_c, 4, 48, 76
10, 87224, Note_on_c, 4, 48, 0
10, 87240, Note_on_c, 4, 48, 76
10, 87344, Note_on_c, 4, 48, 0
10, 87360, Note_on_c, 4, 48, 76
10, 87464, Note_on_c, 4, 48, 0
10, 87480, Note_on_c, 4, 48, 76
10, 87824, Note_on_c, 4, 48, 0
10, 87840, Note_on_c, 4, 48, 76
10, 87944, Note_on_c, 4, 48, 0
10, 87960, Note_on_c, 4, 48, 76
10, 88064, Note_on_c, 4, 48, 0
10, 88080, Note_on_c, 4, 48, 76
10, 88184, Note_on_c, 4, 48, 0
10, 88200, Note_on_c, 4, 48, 76
10, 88304, Note_on_c, 4, 48, 0
10, 88320, Note_on_c, 4, 48, 76
10, 88424, Note_on_c, 4, 48, 0
10, 88440, Note_on_c, 4, 48, 76
10, 88559, Note_on_c, 4, 48, 0
10, 88680, Note_on_c, 4, 60, 84
10, 89129, Note_on_c, 4, 60, 0
10, 89160, Note_on_c, 4, 53, 76
10, 89399, Note_on_c, 4, 53, 0
10, 91560, Note_on_c, 4, 63, 76
10, 91560, Note_on_c, 4, 56, 76
10, 91784, Note_on_c, 4, 63, 0
10, 91784, Note_on_c, 4, 56, 0
10, 91800, Note_on_c, 4, 63, 76
10, 91800, Note_on_c, 4, 51, 76
10, 92264, Note_on_c, 4, 63, 0
10, 92264, Note_on_c, 4, 51, 0
10, 92280, Note_on_c, 4, 61, 76
10, 92280, Note_on_c, 4, 58, 76
10, 92519, Note_on_c, 4, 61, 0
10, 92520, Note_on_c, 4, 65, 76
10, 92744, Note_on_c, 4, 58, 0
10, 92760, Note_on_c, 4, 53, 76
10, 93104, Note_on_c, 4, 53, 0
10, 93119, Note_on_c, 4, 65, 0
10, 93120, Note_on_c, 4, 62, 76
10, 93120, Note_on_c, 4, 53, 76
10, 93179, Note_on_c, 4, 62, 0
10, 93180, Note_on_c, 4, 63, 76
10, 93224, Note_on_c, 4, 53, 0
10, 93231, Note_on_c, 4, 63, 0
10, 93240, Note_on_c, 4, 65, 76
10, 93240, Note_on_c, 4, 53, 76
10, 93359, Note_on_c, 4, 65, 0
10, 93359, Note_on_c, 4, 53, 0
10, 94680, Note_on_c, 4, 50, 76
10, 94680, Note_on_c, 4, 62, 76
10, 95144, Note_on_c, 4, 50, 0
10, 95144, Note_on_c, 4, 62, 0
10, 95160, Note_on_c, 4, 67, 76
10, 95160, Note_on_c, 4, 55, 76
10, 95249, Note_on_c, 4, 67, 0
10, 95249, Note_on_c, 4, 55, 0
10, 95280, Note_on_c, 4, 43, 76
10, 95280, Note_on_c, 4, 55, 76
10, 95369, Note_on_c, 4, 43, 0
10, 95369, Note_on_c, 4, 55, 0
10, 96600, Note_on_c, 4, 50, 76
10, 96600, Note_on_c, 4, 62, 76
10, 97064, Note_on_c, 4, 50, 0
10, 97064, Note_on_c, 4, 62, 0
10, 97080, Note_on_c, 4, 56, 84
10, 97080, Note_on_c, 4, 44, 84
10, 97184, Note_on_c, 4, 56, 0
10, 97320, Note_on_c, 4, 59, 84
10, 97424, Note_on_c, 4, 59, 0
10, 97440, Note_on_c, 4, 47, 84
10, 97544, Note_on_c, 4, 47, 0
10, 97560, Note_on_c, 4, 62, 84
10, 97664, Note_on_c, 4, 62, 0
10, 97680, Note_on_c, 4, 50, 84
10, 97784, Note_on_c, 4, 50, 0
10, 97800, Note_on_c, 4, 65, 84
10, 97904, Note_on_c, 4, 65, 0
10, 97920, Note_on_c, 4, 53, 84
10, 98024, Note_on_c, 4, 44, 0
10, 98024, Note_on_c, 4, 53, 0
10, 98040, Note_on_c, 4, 43, 84
10, 98040, Note_on_c, 4, 55, 84
10, 98144, Note_on_c, 4, 55, 0
10, 98280, Note_on_c, 4, 59, 84
10, 98384, Note_on_c, 4, 59, 0
10, 98400, Note_on_c, 4, 47, 84
10, 98504, Note_on_c, 4, 47, 0
10, 98520, Note_on_c, 4, 62, 84
10, 98624, Note_on_c, 4, 62, 0
10, 98640, Note_on_c, 4, 50, 84
10, 98744, Note_on_c, 4, 50, 0
10, 98760, Note_on_c, 4, 65, 84
10, 98864, Note_on_c, 4, 65, 0
10, 98880, Note_on_c, 4, 53, 84
10, 98984, Note_on_c, 4, 43, 0
10, 98984, Note_on_c, 4, 53, 0
10, 99000, Note_on_c, 4, 66, 52
10, 99000, Note_on_c, 4, 42, 52
10, 99239, Note_on_c, 4, 66, 0
10, 99239, Note_on_c, 4, 42, 0
10, 110760, Note_on_c, 4, 57, 76
10, 110760, Note_on_c, 4, 45, 76
10, 110827, Note_on_c, 4, 57, 0
10, 110827, Note_on_c, 4, 45, 0
10, 110840, Note_on_c, 4, 45, 52
10, 110840, Note_on_c, 4, 57, 52
10, 110907, Note_on_c, 4, 45, 0
10, 110907, Note_on_c, 4, 57, 0
10, 110920, Note_on_c, 4, 57, 52
10, 110920, Note_on_c, 4, 45, 52
10, 110999, Note_on_c, 4, 57, 0
10, 110999, Note_on_c, 4, 45, 0
10, 111240, Note_on_c, 4, 57, 76
10, 111240, Note_on_c, 4, 45, 76
10, 111307, Note_on_c, 4, 57, 0
10, 111307, Note_on_c, 4, 45, 0
10, 111320, Note_on_c, 4, 45, 52
10, 111320, Note_on_c, 4, 57, 52
10, 111387, Note_on_c, 4, 45, 0
10, 111387, Note_on_c, 4, 57, 0
10, 111400, Note_on_c, 4, 45, 52
10, 111400, Note_on_c, 4, 57, 52
10, 111479, Note_on_c, 4, 45, 0
10, 111479, Note_on_c, 4, 57, 0
10, 111720, Note_on_c, 4, 57, 76
10, 111720, Note_on_c, 4, 45, 76
10, 111787, Note_on_c, 4, 57, 0
10, 111787, Note_on_c, 4, 45, 0
10, 111800, Note_on_c, 4, 57, 52
10, 111800, Note_on_c, 4, 45, 52
10, 111867, Note_on_c, 4, 57, 0
10, 111867, Note_on_c, 4, 45, 0
10, 111880, Note_on_c, 4, 57, 52
10, 111880, Note_on_c, 4, 45, 52
10, 111959, Note_on_c, 4, 57, 0
10, 111959, Note_on_c, 4, 45, 0
10, 112200, Note_on_c, 4, 43, 52
10, 112200, Note_on_c, 4, 55, 52
10, 112267, Note_on_c, 4, 43, 0
10, 112267, Note_on_c, 4, 55, 0
10, 112280, Note_on_c, 4, 43, 52
10, 112280, Note_on_c, 4, 55, 52
10, 112347, Note_on_c, 4, 43, 0
10, 112347, Note_on_c, 4, 55, 0
10, 112360, Note_on_c, 4, 43, 52
10, 112360, Note_on_c, 4, 55, 52
10, 112439, Note_on_c, 4, 43, 0
10, 112439, Note_on_c, 4, 55, 0
10, 112680, Note_on_c, 4, 42, 52
10, 112680, Note_on_c, 4, 54, 52
10, 112747, Note_on_c, 4, 42, 0
10, 112747, Note_on_c, 4, 54, 0
10, 112760, Note_on_c, 4, 54, 52
10, 112760, Note_on_c, 4, 42, 52
10, 112827, Note_on_c, 4, 54, 0
10, 112827, Note_on_c, 4, 42, 0
10, 112840, Note_on_c, 4, 54, 52
10, 112840, Note_on_c, 4, 42, 52
10, 112919, Note_on_c, 4, 54, 0
10, 112919, Note_on_c, 4, 42, 0
10, 113160, Note_on_c, 4, 55, 52
10, 113160, Note_on_c, 4, 43, 52
10, 113227, Note_on_c, 4, 55, 0
10, 113227, Note_on_c, 4, 43, 0
10, 113240, Note_on_c, 4, 55, 52
10, 113240, Note_on_c, 4, 43, 52
10, 113307, Note_on_c, 4, 55, 0
10, 113307, Note_on_c, 4, 43, 0
10, 113320, Note_on_c, 4, 43, 52
10, 113320, Note_on_c, 4, 55, 52
10, 113387, Note_on_c, 4, 43, 0
10, 113387, Note_on_c, 4, 55, 0
10, 113400, Note_on_c, 4, 45, 52
10, 113400, Note_on_c, 4, 57, 52
10, 113519, Note_on_c, 4, 45, 0
10, 113519, Note_on_c, 4, 57, 0
10, 113640, Note_on_c, 4, 45, 52
10, 113640, Note_on_c, 4, 57, 52
10, 113759, Note_on_c, 4, 45, 0
10, 113759, Note_on_c, 4, 57, 0
10, 113880, Note_on_c, 4, 50, 52
10, 113880, Note_on_c, 4, 62, 52
10, 113999, Note_on_c, 4, 50, 0
10, 113999, Note_on_c, 4, 62, 0
10, 114360, Note_on_c, 4, 62, 84
10, 114360, Note_on_c, 4, 60, 84
10, 114824, Note_on_c, 4, 62, 0
10, 114824, Note_on_c, 4, 60, 0
10, 114840, Note_on_c, 4, 59, 84
10, 114840, Note_on_c, 4, 62, 84
10, 115064, Note_on_c, 4, 59, 0
10, 115064, Note_on_c, 4, 62, 0
10, 115080, Note_on_c, 4, 65, 84
10, 115080, Note_on_c, 4, 62, 84
10, 115319, Note_on_c, 4, 65, 0
10, 115320, Note_on_c, 4, 66, 84
10, 115544, Note_on_c, 4, 62, 0
10, 115544, Note_on_c, 4, 66, 0
10, 115560, Note_on_c, 4, 57, 84
10, 115560, Note_on_c, 4, 64, 84
10, 115784, Note_on_c, 4, 57, 0
10, 115784, Note_on_c, 4, 64, 0
10, 115800, Note_on_c, 4, 62, 84
10, 115800, Note_on_c, 4, 50, 84
10, 115859, Note_on_c, 4, 62, 0
10, 115919, Note_on_c, 4, 50, 0
10, 115920, Note_on_c, 4, 52, 84
10, 115979, Note_on_c, 4, 52, 0
10, 115980, Note_on_c, 4, 54, 84
10, 116039, Note_on_c, 4, 54, 0
10, 116040, Note_on_c, 4, 55, 84
10, 116099, Note_on_c, 4, 55, 0
10, 116100, Note_on_c, 4, 57, 84
10, 116159, Note_on_c, 4, 57, 0
10, 116160, Note_on_c, 4, 58, 84
10, 116219, Note_on_c, 4, 58, 0
10, 116220, Note_on_c, 4, 60, 84
10, 116271, Note_on_c, 4, 60, 0
10, 116280, Note_on_c, 4, 62, 76
10, 116504, Note_on_c, 4, 62, 0
10, 116520, Note_on_c, 4, 62, 76
10, 116684, Note_on_c, 4, 62, 0
10, 116700, Note_on_c, 4, 62, 76
10, 116744, Note_on_c, 4, 62, 0
10, 116760, Note_on_c, 4, 62, 76
10, 116984, Note_on_c, 4, 62, 0
10, 117000, Note_on_c, 4, 62, 76
10, 117164, Note_on_c, 4, 62, 0
10, 117180, Note_on_c, 4, 62, 76
10, 117224, Note_on_c, 4, 62, 0
10, 117240, Note_on_c, 4, 62, 76
10, 117404, Note_on_c, 4, 62, 0
10, 117420, Note_on_c, 4, 60, 76
10, 117464, Note_on_c, 4, 60, 0
10, 117480, Note_on_c, 4, 58, 76
10, 117644, Note_on_c, 4, 58, 0
10, 117660, Note_on_c, 4, 57, 76
10, 117704, Note_on_c, 4, 57, 0
10, 117720, Note_on_c, 4, 58, 76
10, 117884, Note_on_c, 4, 58, 0
10, 117900, Note_on_c, 4, 60, 76
10, 117944, Note_on_c, 4, 60, 0
10, 117960, Note_on_c, 4, 58, 76
10, 118124, Note_on_c, 4, 58, 0
10, 118140, Note_on_c, 4, 57, 76
10, 118171, Note_on_c, 4, 57, 0
10, 118180, Note_on_c, 4, 57, 76
10, 118199, Note_on_c, 4, 57, 0
10, 118200, Note_on_c, 4, 55, 76
10, 118364, Note_on_c, 4, 55, 0
10, 118380, Note_on_c, 4, 54, 76
10, 118424, Note_on_c, 4, 54, 0
10, 118440, Note_on_c, 4, 55, 76
10, 118604, Note_on_c, 4, 55, 0
10, 118620, Note_on_c, 4, 58, 76
10, 118664, Note_on_c, 4, 58, 0
10, 118680, Note_on_c, 4, 57, 76
10, 118844, Note_on_c, 4, 57, 0
10, 118860, Note_on_c, 4, 58, 76
10, 118904, Note_on_c, 4, 58, 0
10, 118920, Note_on_c, 4, 60, 76
10, 119084, Note_on_c, 4, 60, 0
10, 119100, Note_on_c, 4, 57, 76
10, 119144, Note_on_c, 4, 57, 0
10, 119160, Note_on_c, 4, 54, 76
10, 119324, Note_on_c, 4, 54, 0
10, 119340, Note_on_c, 4, 55, 76
10, 119384, Note_on_c, 4, 55, 0
10, 119400, Note_on_c, 4, 57, 76
10, 119564, Note_on_c, 4, 57, 0
10, 119580, Note_on_c, 4, 54, 76
10, 119624, Note_on_c, 4, 54, 0
10, 119640, Note_on_c, 4, 55, 76
10, 119699, Note_on_c, 4, 55, 0
10, 119700, Note_on_c, 4, 50, 76
10, 119759, Note_on_c, 4, 50, 0
10, 119760, Note_on_c, 4, 52, 76
10, 119819, Note_on_c, 4, 52, 0
10, 119820, Note_on_c, 4, 54, 76
10, 119879, Note_on_c, 4, 54, 0
10, 119880, Note_on_c, 4, 55, 76
10, 119939, Note_on_c, 4, 55, 0
10, 119940, Note_on_c, 4, 57, 76
10, 119999, Note_on_c, 4, 57, 0
10, 120000, Note_on_c, 4, 58, 76
10, 120059, Note_on_c, 4, 58, 0
10, 120060, Note_on_c, 4, 60, 76
10, 120111, Note_on_c, 4, 60, 0
10, 120120, Note_on_c, 4, 62, 76
10, 120344, Note_on_c, 4, 62, 0
10, 120360, Note_on_c, 4, 62, 76
10, 120524, Note_on_c, 4, 62, 0
10, 120540, Note_on_c, 4, 62, 76
10, 120584, Note_on_c, 4, 62, 0
10, 120600, Note_on_c, 4, 62, 76
10, 120824, Note_on_c, 4, 62, 0
10, 120840, Note_on_c, 4, 62, 76
10, 121004, Note_on_c, 4, 62, 0
10, 121020, Note_on_c, 4, 62, 76
10, 121064, Note_on_c, 4, 62, 0
10, 121080, Note_on_c, 4, 62, 76
10, 121244, Note_on_c, 4, 62, 0
10, 121260, Note_on_c, 4, 60, 76
10, 121304, Note_on_c, 4, 60, 0
10, 121320, Note_on_c, 4, 58, 76
10, 121484, Note_on_c, 4, 58, 0
10, 121500, Note_on_c, 4, 57, 76
10, 121544, Note_on_c, 4, 57, 0
10, 121560, Note_on_c, 4, 58, 76
10, 121724, Note_on_c, 4, 58, 0
10, 121740, Note_on_c, 4, 60, 76
10, 121784, Note_on_c, 4, 60, 0
10, 121800, Note_on_c, 4, 58, 76
10, 121964, Note_on_c, 4, 58, 0
10, 121980, Note_on_c, 4, 57, 76
10, 122011, Note_on_c, 4, 57, 0
10, 122020, Note_on_c, 4, 57, 76
10, 122039, Note_on_c, 4, 57, 0
10, 122040, Note_on_c, 4, 55, 76
10, 122204, Note_on_c, 4, 55, 0
10, 122220, Note_on_c, 4, 54, 76
10, 122264, Note_on_c, 4, 54, 0
10, 122280, Note_on_c, 4, 55, 76
10, 122444, Note_on_c, 4, 55, 0
10, 122460, Note_on_c, 4, 58, 76
10, 122504, Note_on_c, 4, 58, 0
10, 122520, Note_on_c, 4, 57, 76
10, 122684, Note_on_c, 4, 57, 0
10, 122700, Note_on_c, 4, 58, 76
10, 122744, Note_on_c, 4, 58, 0
10, 122760, Note_on_c, 4, 60, 76
10, 122924, Note_on_c, 4, 60, 0
10, 122940, Note_on_c, 4, 57, 76
10, 122984, Note_on_c, 4, 57, 0
10, 123000, Note_on_c, 4, 54, 76
10, 123164, Note_on_c, 4, 54, 0
10, 123180, Note_on_c, 4, 55, 76
10, 123224, Note_on_c, 4, 55, 0
10, 123240, Note_on_c, 4, 57, 76
10, 123404, Note_on_c, 4, 57, 0
10, 123420, Note_on_c, 4, 54, 76
10, 123464, Note_on_c, 4, 54, 0
10, 123480, Note_on_c, 4, 55, 76
10, 123599, Note_on_c, 4, 55, 0
10, 123960, Note_on_c, 4, 60, 84
10, 124409, Note_on_c, 4, 60, 0
10, 124440, Note_on_c, 4, 67, 84
10, 124889, Note_on_c, 4, 67, 0
10, 124920, Note_on_c, 4, 55, 84
10, 125369, Note_on_c, 4, 55, 0
10, 125400, Note_on_c, 4, 60, 84
10, 125849, Note_on_c, 4, 60, 0
10, 125880, Note_on_c, 4, 60, 76
10, 126059, Note_on_c, 4, 60, 0
10, 126120, Note_on_c, 4, 60, 76
10, 126284, Note_on_c, 4, 60, 0
10, 126300, Note_on_c, 4, 60, 76
10, 126344, Note_on_c, 4, 60, 0
10, 126360, Note_on_c, 4, 57, 76
10, 126539, Note_on_c, 4, 57, 0
10, 126600, Note_on_c, 4, 57, 76
10, 126764, Note_on_c, 4, 57, 0
10, 126780, Note_on_c, 4, 57, 76
10, 126824, Note_on_c, 4, 57, 0
10, 126840, Note_on_c, 4, 54, 76
10, 127004, Note_on_c, 4, 54, 0
10, 127020, Note_on_c, 4, 55, 76
10, 127064, Note_on_c, 4, 55, 0
10, 127080, Note_on_c, 4, 57, 76
10, 127244, Note_on_c, 4, 57, 0
10, 127260, Note_on_c, 4, 54, 76
10, 127304, Note_on_c, 4, 54, 0
10, 127320, Note_on_c, 4, 55, 76
10, 127320, Note_on_c, 4, 43, 76
10, 127439, Note_on_c, 4, 55, 0
10, 127439, Note_on_c, 4, 43, 0
10, 127800, Note_on_c, 4, 60, 84
10, 128249, Note_on_c, 4, 60, 0
10, 128280, Note_on_c, 4, 67, 84
10, 128729, Note_on_c, 4, 67, 0
10, 128760, Note_on_c, 4, 55, 84
10, 129209, Note_on_c, 4, 55, 0
10, 129240, Note_on_c, 4, 60, 84
10, 129689, Note_on_c, 4, 60, 0
10, 129720, Note_on_c, 4, 60, 76
10, 129899, Note_on_c, 4, 60, 0
10, 129960, Note_on_c, 4, 60, 76
10, 130124, Note_on_c, 4, 60, 0
10, 130140, Note_on_c, 4, 60, 76
10, 130184, Note_on_c, 4, 60, 0
10, 130200, Note_on_c, 4, 57, 76
10, 130379, Note_on_c, 4, 57, 0
10, 130440, Note_on_c, 4, 57, 76
10, 130604, Note_on_c, 4, 57, 0
10, 130620, Note_on_c, 4, 57, 76
10, 130664, Note_on_c, 4, 57, 0
10, 130680, Note_on_c, 4, 54, 76
10, 130844, Note_on_c, 4, 54, 0
10, 130860, Note_on_c, 4, 55, 76
10, 130904, Note_on_c, 4, 55, 0
10, 130920, Note_on_c, 4, 57, 76
10, 131084, Note_on_c, 4, 57, 0
10, 131100, Note_on_c, 4, 54, 76
10, 131144, Note_on_c, 4, 54, 0
10, 131160, Note_on_c, 4, 55, 76
10, 131324, Note_on_c, 4, 55, 0
10, 131340, Note_on_c, 4, 55, 76
10, 131384, Note_on_c, 4, 55, 0
10, 131400, Note_on_c, 4, 60, 84
10, 131564, Note_on_c, 4, 60, 0
10, 131580, Note_on_c, 4, 60, 76
10, 131624, Note_on_c, 4, 60, 0
10, 131640, Note_on_c, 4, 60, 76
10, 131819, Note_on_c, 4, 60, 0
10, 131820, Note_on_c, 4, 60, 76
10, 131879, Note_on_c, 4, 60, 0
10, 131880, Note_on_c, 4, 60, 76
10, 132059, Note_on_c, 4, 60, 0
10, 132060, Note_on_c, 4, 60, 76
10, 132119, Note_on_c, 4, 60, 0
10, 132120, Note_on_c, 4, 57, 76
10, 132284, Note_on_c, 4, 57, 0
10, 132300, Note_on_c, 4, 57, 76
10, 132344, Note_on_c, 4, 57, 0
10, 132360, Note_on_c, 4, 57, 76
10, 132524, Note_on_c, 4, 57, 0
10, 132540, Note_on_c, 4, 57, 76
10, 132584, Note_on_c, 4, 57, 0
10, 132600, Note_on_c, 4, 54, 76
10, 132764, Note_on_c, 4, 54, 0
10, 132780, Note_on_c, 4, 55, 76
10, 132824, Note_on_c, 4, 55, 0
10, 132840, Note_on_c, 4, 57, 76
10, 133004, Note_on_c, 4, 57, 0
10, 133020, Note_on_c, 4, 54, 76
10, 133064, Note_on_c, 4, 54, 0
10, 133080, Note_on_c, 4, 55, 76
10, 133244, Note_on_c, 4, 55, 0
10, 133260, Note_on_c, 4, 57, 76
10, 133304, Note_on_c, 4, 57, 0
10, 133320, Note_on_c, 4, 58, 76
10, 133484, Note_on_c, 4, 58, 0
10, 133500, Note_on_c, 4, 55, 76
10, 133544, Note_on_c, 4, 55, 0
10, 133560, Note_on_c, 4, 54, 76
10, 133724, Note_on_c, 4, 54, 0
10, 133740, Note_on_c, 4, 55, 76
10, 133784, Note_on_c, 4, 55, 0
10, 133800, Note_on_c, 4, 57, 76
10, 133964, Note_on_c, 4, 57, 0
10, 133980, Note_on_c, 4, 54, 76
10, 134024, Note_on_c, 4, 54, 0
10, 134040, Note_on_c, 4, 55, 76
10, 134204, Note_on_c, 4, 55, 0
10, 134220, Note_on_c, 4, 57, 76
10, 134264, Note_on_c, 4, 57, 0
10, 134280, Note_on_c, 4, 58, 76
10, 134444, Note_on_c, 4, 58, 0
10, 134460, Note_on_c, 4, 55, 76
10, 134504, Note_on_c, 4, 55, 0
10, 134520, Note_on_c, 4, 54, 76
10, 134684, Note_on_c, 4, 54, 0
10, 134700, Note_on_c, 4, 55, 76
10, 134744, Note_on_c, 4, 55, 0
10, 134760, Note_on_c, 4, 57, 76
10, 134924, Note_on_c, 4, 57, 0
10, 134940, Note_on_c, 4, 54, 76
10, 134984, Note_on_c, 4, 54, 0
10, 135000, Note_on_c, 4, 55, 76
10, 135089, Note_on_c, 4, 55, 0
10, 135120, Note_on_c, 4, 62, 76
10, 135120, Note_on_c, 4, 50, 76
10, 135209, Note_on_c, 4, 62, 0
10, 135209, Note_on_c, 4, 50, 0
10, 135240, Note_on_c, 4, 62, 76
10, 135240, Note_on_c, 4, 50, 76
10, 135329, Note_on_c, 4, 62, 0
10, 135329, Note_on_c, 4, 50, 0
10, 135360, Note_on_c, 4, 62, 76
10, 135360, Note_on_c, 4, 50, 76
10, 135449, Note_on_c, 4, 62, 0
10, 135449, Note_on_c, 4, 50, 0
10, 135480, Note_on_c, 4, 50, 76
10, 135480, Note_on_c, 4, 62, 76
10, 135569, Note_on_c, 4, 50, 0
10, 135569, Note_on_c, 4, 62, 0
10, 135600, Note_on_c, 4, 50, 76
10, 135600, Note_on_c, 4, 62, 76
10, 135689, Note_on_c, 4, 50, 0
10, 135689, Note_on_c, 4, 62, 0
10, 135720, Note_on_c, 4, 62, 76
10, 135720, Note_on_c, 4, 50, 76
10, 135809, Note_on_c, 4, 62, 0
10, 135809, Note_on_c, 4, 50, 0
10, 135840, Note_on_c, 4, 62, 76
10, 135840, Note_on_c, 4, 50, 76
10, 135929, Note_on_c, 4, 62, 0
10, 135929, Note_on_c, 4, 50, 0
10, 135960, Note_on_c, 4, 50, 76
10, 135960, Note_on_c, 4, 62, 76
10, 136049, Note_on_c, 4, 50, 0
10, 136049, Note_on_c, 4, 62, 0
10, 136080, Note_on_c, 4, 62, 76
10, 136080, Note_on_c, 4, 50, 76
10, 136169, Note_on_c, 4, 62, 0
10, 136169, Note_on_c, 4, 50, 0
10, 136200, Note_on_c, 4, 62, 76
10, 136200, Note_on_c, 4, 50, 76
10, 136289, Note_on_c, 4, 62, 0
10, 136289, Note_on_c, 4, 50, 0
10, 136320, Note_on_c, 4, 62, 76
10, 136320, Note_on_c, 4, 50, 76
10, 136409, Note_on_c, 4, 62, 0
10, 136409, Note_on_c, 4, 50, 0
10, 136440, Note_on_c, 4, 50, 76
10, 136440, Note_on_c, 4, 62, 76
10, 136529, Note_on_c, 4, 50, 0
10, 136529, Note_on_c, 4, 62, 0
10, 136560, Note_on_c, 4, 50, 76
10, 136560, Note_on_c, 4, 62, 76
10, 136649, Note_on_c, 4, 50, 0
10, 136649, Note_on_c, 4, 62, 0
10, 136680, Note_on_c, 4, 62, 76
10, 136680, Note_on_c, 4, 50, 76
10, 136769, Note_on_c, 4, 62, 0
10, 136769, Note_on_c, 4, 50, 0
10, 136800, Note_on_c, 4, 50, 76
10, 136800, Note_on_c, 4, 62, 76
10, 136889, Note_on_c, 4, 50, 0
10, 136889, Note_on_c, 4, 62, 0
10, 136920, Note_on_c, 4, 55, 76
10, 137159, Note_on_c, 4, 55, 0
10, 137400, Note_on_c, 4, 43, 76
10, 137400, Note_on_c, 4, 55, 76
10, 137639, Note_on_c, 4, 43, 0
10, 137639, Note_on_c, 4, 55, 0
10, 139440, Note_on_c, 4, 55, 48
10, 139559, Note_on_c, 4, 55, 0
10, 139560, Note_on_c, 4, 59, 48
10, 139679, Note_on_c, 4, 59, 0
10, 139680, Note_on_c, 4, 62, 48
10, 139784, Note_on_c, 4, 62, 0
10, 139800, Note_on_c, 4, 65, 48
10, 139919, Note_on_c, 4, 65, 0
10, 140400, Note_on_c, 4, 55, 48
10, 140519, Note_on_c, 4, 55, 0
10, 140520, Note_on_c, 4, 60, 48
10, 140639, Note_on_c, 4, 60, 0
10, 140640, Note_on_c, 4, 64, 48
10, 140744, Note_on_c, 4, 64, 0
10, 140760, Note_on_c, 4, 67, 48
10, 140879, Note_on_c, 4, 67, 0
10, 165960, Note_on_c, 4, 51, 84
10, 165960, Note_on_c, 4, 39, 84
10, 166664, Note_on_c, 4, 51, 0
10, 166664, Note_on_c, 4, 39, 0
10, 166680, Note_on_c, 4, 58, 84
10, 166680, Note_on_c, 4, 46, 84
10, 167144, Note_on_c, 4, 58, 0
10, 167144, Note_on_c, 4, 46, 0
10, 167160, Note_on_c, 4, 34, 84
10, 167160, Note_on_c, 4, 46, 84
10, 167624, Note_on_c, 4, 34, 0
10, 167624, Note_on_c, 4, 46, 0
10, 167640, Note_on_c, 4, 51, 84
10, 167640, Note_on_c, 4, 39, 84
10, 167984, Note_on_c, 4, 51, 0
10, 167984, Note_on_c, 4, 39, 0
10, 168000, Note_on_c, 4, 60, 84
10, 168000, Note_on_c, 4, 48, 84
10, 168089, Note_on_c, 4, 60, 0
10, 168089, Note_on_c, 4, 48, 0
10, 168120, Note_on_c, 4, 62, 84
10, 168120, Note_on_c, 4, 50, 84
10, 168209, Note_on_c, 4, 62, 0
10, 168209, Note_on_c, 4, 50, 0
10, 168240, Note_on_c, 4, 63, 84
10, 168240, Note_on_c, 4, 51, 84
10, 168329, Note_on_c, 4, 63, 0
10, 168329, Note_on_c, 4, 51, 0
10, 168360, Note_on_c, 4, 53, 84
10, 168360, Note_on_c, 4, 65, 84
10, 168449, Note_on_c, 4, 53, 0
10, 168449, Note_on_c, 4, 65, 0
10, 168480, Note_on_c, 4, 50, 84
10, 168480, Note_on_c, 4, 62, 84
10, 168569, Note_on_c, 4, 50, 0
10, 168569, Note_on_c, 4, 62, 0
10, 168600, Note_on_c, 4, 63, 84
10, 168600, Note_on_c, 4, 51, 84
10, 168944, Note_on_c, 4, 63, 0
10, 168944, Note_on_c, 4, 51, 0
10, 168960, Note_on_c, 4, 55, 84
10, 168960, Note_on_c, 4, 63, 84
10, 169049, Note_on_c, 4, 55, 0
10, 169049, Note_on_c, 4, 63, 0
10, 169080, Note_on_c, 4, 59, 84
10, 169080, Note_on_c, 4, 55, 84
10, 169169, Note_on_c, 4, 59, 0
10, 169169, Note_on_c, 4, 55, 0
10, 169200, Note_on_c, 4, 57, 84
10, 169200, Note_on_c, 4, 60, 84
10, 169289, Note_on_c, 4, 57, 0
10, 169289, Note_on_c, 4, 60, 0
10, 169320, Note_on_c, 4, 59, 84
10, 169320, Note_on_c, 4, 62, 84
10, 169409, Note_on_c, 4, 59, 0
10, 169409, Note_on_c, 4, 62, 0
10, 169440, Note_on_c, 4, 55, 84
10, 169440, Note_on_c, 4, 59, 84
10, 169529, Note_on_c, 4, 55, 0
10, 169529, Note_on_c, 4, 59, 0
10, 169560, Note_on_c, 4, 60, 84
10, 169560, Note_on_c, 4, 63, 84
10, 169649, Note_on_c, 4, 60, 0
10, 169649, Note_on_c, 4, 63, 0
10, 169680, Note_on_c, 4, 65, 84
10, 169680, Note_on_c, 4, 62, 84
10, 169769, Note_on_c, 4, 65, 0
10, 169769, Note_on_c, 4, 62, 0
10, 169800, Note_on_c, 4, 67, 84
10, 169800, Note_on_c, 4, 63, 84
10, 169889, Note_on_c, 4, 67, 0
10, 169889, Note_on_c, 4, 63, 0
10, 169920, Note_on_c, 4, 51, 84
10, 169920, Note_on_c, 4, 48, 84
10, 170009, Note_on_c, 4, 51, 0
10, 170009, Note_on_c, 4, 48, 0
10, 170040, Note_on_c, 4, 53, 84
10, 170040, Note_on_c, 4, 56, 84
10, 170129, Note_on_c, 4, 53, 0
10, 170129, Note_on_c, 4, 56, 0
10, 170160, Note_on_c, 4, 56, 84
10, 170160, Note_on_c, 4, 53, 84
10, 170249, Note_on_c, 4, 56, 0
10, 170249, Note_on_c, 4, 53, 0
10, 170280, Note_on_c, 4, 55, 84
10, 170280, Note_on_c, 4, 58, 84
10, 170369, Note_on_c, 4, 55, 0
10, 170369, Note_on_c, 4, 58, 0
10, 170400, Note_on_c, 4, 58, 84
10, 170400, Note_on_c, 4, 55, 84
10, 170489, Note_on_c, 4, 58, 0
10, 170489, Note_on_c, 4, 55, 0
10, 170520, Note_on_c, 4, 56, 84
10, 170520, Note_on_c, 4, 60, 84
10, 170609, Note_on_c, 4, 56, 0
10, 170609, Note_on_c, 4, 60, 0
10, 170640, Note_on_c, 4, 61, 84
10, 170640, Note_on_c, 4, 58, 84
10, 170729, Note_on_c, 4, 61, 0
10, 170729, Note_on_c, 4, 58, 0
10, 170760, Note_on_c, 4, 60, 84
10, 170760, Note_on_c, 4, 63, 84
10, 170849, Note_on_c, 4, 60, 0
10, 170849, Note_on_c, 4, 63, 0
10, 170880, Note_on_c, 4, 56, 84
10, 170880, Note_on_c, 4, 60, 84
10, 170969, Note_on_c, 4, 56, 0
10, 170969, Note_on_c, 4, 60, 0
10, 171000, Note_on_c, 4, 51, 84
10, 171000, Note_on_c, 4, 55, 84
10, 171089, Note_on_c, 4, 51, 0
10, 171089, Note_on_c, 4, 55, 0
10, 171120, Note_on_c, 4, 55, 84
10, 171120, Note_on_c, 4, 51, 84
10, 171209, Note_on_c, 4, 55, 0
10, 171209, Note_on_c, 4, 51, 0
10, 171240, Note_on_c, 4, 55, 84
10, 171240, Note_on_c, 4, 52, 84
10, 171329, Note_on_c, 4, 55, 0
10, 171329, Note_on_c, 4, 52, 0
10, 171360, Note_on_c, 4, 52, 84
10, 171360, Note_on_c, 4, 55, 84
10, 171449, Note_on_c, 4, 52, 0
10, 171449, Note_on_c, 4, 55, 0
10, 171480, Note_on_c, 4, 56, 84
10, 171480, Note_on_c, 4, 53, 84
10, 171569, Note_on_c, 4, 56, 0
10, 171569, Note_on_c, 4, 53, 0
10, 171600, Note_on_c, 4, 53, 84
10, 171600, Note_on_c, 4, 56, 84
10, 171689, Note_on_c, 4, 53, 0
10, 171689, Note_on_c, 4, 56, 0
10, 171720, Note_on_c, 4, 54, 84
10, 171720, Note_on_c, 4, 58, 84
10, 171809, Note_on_c, 4, 54, 0
10, 171809, Note_on_c, 4, 58, 0
10, 171840, Note_on_c, 4, 62, 84
10, 171840, Note_on_c, 4, 50, 84
10, 171929, Note_on_c, 4, 62, 0
10, 171929, Note_on_c, 4, 50, 0
10, 171960, Note_on_c, 4, 63, 84
10, 171960, Note_on_c, 4, 51, 84
10, 172049, Note_on_c, 4, 63, 0
10, 172049, Note_on_c, 4, 51, 0
10, 172080, Note_on_c, 4, 49, 84
10, 172080, Note_on_c, 4, 61, 84
10, 172169, Note_on_c, 4, 49, 0
10, 172169, Note_on_c, 4, 61, 0
10, 172200, Note_on_c, 4, 60, 84
10, 172200, Note_on_c, 4, 48, 84
10, 172289, Note_on_c, 4, 60, 0
10, 172289, Note_on_c, 4, 48, 0
10, 172320, Note_on_c, 4, 59, 84
10, 172320, Note_on_c, 4, 47, 84
10, 172409, Note_on_c, 4, 59, 0
10, 172409, Note_on_c, 4, 47, 0
10, 172440, Note_on_c, 4, 58, 84
10, 172440, Note_on_c, 4, 46, 84
10, 172679, Note_on_c, 4, 58, 0
10, 172679, Note_on_c, 4, 46, 0
10, 173400, Note_on_c, 4, 56, 92
10, 173400, Note_on_c, 4, 60, 92
10, 173849, Note_on_c, 4, 56, 0
10, 173849, Note_on_c, 4, 60, 0
10, 173880, Note_on_c, 4, 65, 84
10, 173880, Note_on_c, 4, 62, 84
10, 174059, Note_on_c, 4, 65, 0
10, 174059, Note_on_c, 4, 62, 0
10, 174120, Note_on_c, 4, 50, 84
10, 174120, Note_on_c, 4, 53, 84
10, 174299, Note_on_c, 4, 50, 0
10, 174299, Note_on_c, 4, 53, 0
10, 174480, Note_on_c, 4, 55, 84
10, 174480, Note_on_c, 4, 58, 84
10, 174569, Note_on_c, 4, 55, 0
10, 174569, Note_on_c, 4, 58, 0
10, 174600, Note_on_c, 4, 63, 84
10, 174600, Note_on_c, 4, 60, 84
10, 174689, Note_on_c, 4, 63, 0
10, 174689, Note_on_c, 4, 60, 0
10, 174720, Note_on_c, 4, 51, 84
10, 174720, Note_on_c, 4, 48, 84
10, 174809, Note_on_c, 4, 51, 0
10, 174809, Note_on_c, 4, 48, 0
10, 174960, Note_on_c, 4, 53, 84
10, 174960, Note_on_c, 4, 56, 84
10, 175049, Note_on_c, 4, 53, 0
10, 175049, Note_on_c, 4, 56, 0
10, 175080, Note_on_c, 4, 62, 84
10, 175080, Note_on_c, 4, 58, 84
10, 175169, Note_on_c, 4, 62, 0
10, 175169, Note_on_c, 4, 58, 0
10, 175200, Note_on_c, 4, 46, 84
10, 175200, Note_on_c, 4, 50, 84
10, 175289, Note_on_c, 4, 46, 0
10, 175289, Note_on_c, 4, 50, 0
10, 175440, Note_on_c, 4, 58, 84
10, 175559, Note_on_c, 4, 58, 0
10, 175560, Note_on_c, 4, 57, 84
10, 175679, Note_on_c, 4, 57, 0
10, 175680, Note_on_c, 4, 56, 84
10, 175799, Note_on_c, 4, 56, 0
10, 175800, Note_on_c, 4, 55, 84
10, 175919, Note_on_c, 4, 55, 0
10, 175920, Note_on_c, 4, 54, 84
10, 175920, Note_on_c, 4, 60, 84
10, 176024, Note_on_c, 4, 54, 0
10, 176040, Note_on_c, 4, 53, 84
10, 176144, Note_on_c, 4, 60, 0
10, 176160, Note_on_c, 4, 58, 84
10, 176279, Note_on_c, 4, 53, 0
10, 176280, Note_on_c, 4, 51, 84
10, 176384, Note_on_c, 4, 58, 0
10, 176384, Note_on_c, 4, 51, 0
10, 176400, Note_on_c, 4, 51, 84
10, 176400, Note_on_c, 4, 56, 84
10, 176519, Note_on_c, 4, 51, 0
10, 176520, Note_on_c, 4, 50, 84
10, 176624, Note_on_c, 4, 56, 0
10, 176639, Note_on_c, 4, 50, 0
10, 176640, Note_on_c, 4, 49, 84
10, 176640, Note_on_c, 4, 55, 84
10, 176759, Note_on_c, 4, 49, 0
10, 176760, Note_on_c, 4, 48, 84
10, 176879, Note_on_c, 4, 55, 0
10, 176879, Note_on_c, 4, 48, 0
10, 176880, Note_on_c, 4, 53, 84
10, 176880, Note_on_c, 4, 47, 84
10, 176984, Note_on_c, 4, 53, 0
10, 176984, Note_on_c, 4, 47, 0
10, 177000, Note_on_c, 4, 46, 84
10, 177000, Note_on_c, 4, 53, 84
10, 177089, Note_on_c, 4, 46, 0
10, 177089, Note_on_c, 4, 53, 0
10, 177120, Note_on_c, 4, 46, 84
10, 177120, Note_on_c, 4, 58, 84
10, 177209, Note_on_c, 4, 46, 0
10, 177209, Note_on_c, 4, 58, 0
10, 177240, Note_on_c, 4, 58, 84
10, 177344, Note_on_c, 4, 58, 0
10, 177360, Note_on_c, 4, 46, 84
10, 177464, Note_on_c, 4, 46, 0
10, 177480, Note_on_c, 4, 58, 84
10, 177584, Note_on_c, 4, 58, 0
10, 177600, Note_on_c, 4, 46, 84
10, 177704, Note_on_c, 4, 46, 0
10, 177720, Note_on_c, 4, 58, 84
10, 177824, Note_on_c, 4, 58, 0
10, 177840, Note_on_c, 4, 46, 84
10, 177944, Note_on_c, 4, 46, 0
10, 177960, Note_on_c, 4, 58, 84
10, 178064, Note_on_c, 4, 58, 0
10, 178080, Note_on_c, 4, 46, 84
10, 178184, Note_on_c, 4, 46, 0
10, 178200, Note_on_c, 4, 58, 84
10, 178304, Note_on_c, 4, 58, 0
10, 178320, Note_on_c, 4, 46, 84
10, 178424, Note_on_c, 4, 46, 0
10, 178440, Note_on_c, 4, 58, 84
10, 178544, Note_on_c, 4, 58, 0
10, 178560, Note_on_c, 4, 46, 84
10, 178664, Note_on_c, 4, 46, 0
10, 178680, Note_on_c, 4, 58, 84
10, 178784, Note_on_c, 4, 58, 0
10, 178800, Note_on_c, 4, 46, 84
10, 178904, Note_on_c, 4, 46, 0
10, 178920, Note_on_c, 4, 58, 84
10, 179024, Note_on_c, 4, 58, 0
10, 179040, Note_on_c, 4, 46, 84
10, 179144, Note_on_c, 4, 46, 0
10, 179160, Note_on_c, 4, 58, 84
10, 179160, Note_on_c, 4, 62, 84
10, 179264, Note_on_c, 4, 58, 0
10, 179264, Note_on_c, 4, 62, 0
10, 179280, Note_on_c, 4, 63, 84
10, 179280, Note_on_c, 4, 59, 84
10, 179384, Note_on_c, 4, 63, 0
10, 179384, Note_on_c, 4, 59, 0
10, 179400, Note_on_c, 4, 62, 84
10, 179400, Note_on_c, 4, 58, 84
10, 179504, Note_on_c, 4, 62, 0
10, 179504, Note_on_c, 4, 58, 0
10, 179520, Note_on_c, 4, 59, 84
10, 179520, Note_on_c, 4, 63, 84
10, 179624, Note_on_c, 4, 59, 0
10, 179624, Note_on_c, 4, 63, 0
10, 179640, Note_on_c, 4, 58, 84
10, 179640, Note_on_c, 4, 62, 84
10, 179744, Note_on_c, 4, 58, 0
10, 179744, Note_on_c, 4, 62, 0
10, 179760, Note_on_c, 4, 59, 84
10, 179760, Note_on_c, 4, 63, 84
10, 179864, Note_on_c, 4, 59, 0
10, 179864, Note_on_c, 4, 63, 0
10, 179880, Note_on_c, 4, 62, 84
10, 179880, Note_on_c, 4, 58, 84
10, 179984, Note_on_c, 4, 62, 0
10, 179984, Note_on_c, 4, 58, 0
10, 180000, Note_on_c, 4, 59, 84
10, 180000, Note_on_c, 4, 63, 84
10, 180104, Note_on_c, 4, 59, 0
10, 180104, Note_on_c, 4, 63, 0
10, 180120, Note_on_c, 4, 62, 84
10, 180120, Note_on_c, 4, 58, 84
10, 180359, Note_on_c, 4, 62, 0
10, 180359, Note_on_c, 4, 58, 0
10, 181320, Note_on_c, 4, 58, 92
10, 181320, Note_on_c, 4, 62, 92
10, 181769, Note_on_c, 4, 58, 0
10, 181769, Note_on_c, 4, 62, 0
10, 181800, Note_on_c, 4, 65, 92
10, 181800, Note_on_c, 4, 62, 92
10, 182369, Note_on_c, 4, 65, 0
10, 182369, Note_on_c, 4, 62, 0
10, 182520, Note_on_c, 4, 58, 52
10, 182520, Note_on_c, 4, 51, 52
10, 182751, Note_on_c, 4, 58, 0
10, 182759, Note_on_c, 4, 51, 0
10, 182760, Note_on_c, 4, 55, 52
10, 182760, Note_on_c, 4, 58, 52
10, 182969, Note_on_c, 4, 55, 0
10, 182991, Note_on_c, 4, 58, 0
10, 183000, Note_on_c, 4, 58, 52
10, 183359, Note_on_c, 4, 58, 0
10, 183360, Note_on_c, 4, 56, 52
10, 183360, Note_on_c, 4, 60, 52
10, 183419, Note_on_c, 4, 56, 0
10, 183420, Note_on_c, 4, 55, 52
10, 183471, Note_on_c, 4, 60, 0
10, 183475, Note_on_c, 4, 55, 0
10, 183480, Note_on_c, 4, 60, 52
10, 183480, Note_on_c, 4, 53, 52
10, 183719, Note_on_c, 4, 60, 0
10, 183719, Note_on_c, 4, 53, 0
10, 183720, Note_on_c, 4, 59, 68
10, 183720, Note_on_c, 4, 62, 68
10, 183929, Note_on_c, 4, 59, 0
10, 183929, Note_on_c, 4, 62, 0
10, 183930, Note_on_c, 4, 63, 52
10, 183930, Note_on_c, 4, 60, 52
10, 183955, Note_on_c, 4, 63, 0
10, 183955, Note_on_c, 4, 60, 0
10, 183960, Note_on_c, 4, 63, 52
10, 183960, Note_on_c, 4, 60, 52
10, 184311, Note_on_c, 4, 63, 0
10, 184319, Note_on_c, 4, 60, 0
10, 184320, Note_on_c, 4, 63, 52
10, 184320, Note_on_c, 4, 58, 52
10, 184379, Note_on_c, 4, 58, 0
10, 184380, Note_on_c, 4, 56, 52
10, 184431, Note_on_c, 4, 63, 0
10, 184435, Note_on_c, 4, 56, 0
10, 184440, Note_on_c, 4, 55, 68
10, 184440, Note_on_c, 4, 63, 68
10, 184679, Note_on_c, 4, 55, 0
10, 184679, Note_on_c, 4, 63, 0
10, 184680, Note_on_c, 4, 62, 68
10, 184680, Note_on_c, 4, 65, 68
10, 184889, Note_on_c, 4, 62, 0
10, 184889, Note_on_c, 4, 65, 0
10, 184890, Note_on_c, 4, 63, 68
10, 184890, Note_on_c, 4, 67, 68
10, 184900, Control_c, 4, 11, 127
10, 184915, Note_on_c, 4, 63, 0
10, 184915, Note_on_c, 4, 67, 0
10, 184920, Note_on_c, 4, 67, 76
10, 184920, Note_on_c, 4, 63, 76
10, 184950, Control_c, 4, 11, 112
10, 184969, Control_c, 4, 11, 111
10, 184988, Control_c, 4, 11, 109
10, 185006, Control_c, 4, 11, 108
10, 185025, Control_c, 4, 11, 107
10, 185044, Control_c, 4, 11, 105
10, 185063, Control_c, 4, 11, 104
10, 185081, Control_c, 4, 11, 103
10, 185100, Control_c, 4, 11, 101
10, 185119, Control_c, 4, 11, 100
10, 185138, Control_c, 4, 11, 99
10, 185156, Control_c, 4, 11, 97
10, 185175, Control_c, 4, 11, 96
10, 185194, Control_c, 4, 11, 95
10, 185213, Control_c, 4, 11, 93
10, 185231, Control_c, 4, 11, 92
10, 185250, Control_c, 4, 11, 91
10, 185269, Control_c, 4, 11, 89
10, 185271, Note_on_c, 4, 67, 0
10, 185271, Note_on_c, 4, 63, 0
10, 185280, Note_on_c, 4, 63, 76
10, 185280, Note_on_c, 4, 61, 76
10, 185288, Control_c, 4, 11, 88
10, 185306, Control_c, 4, 11, 87
10, 185325, Control_c, 4, 11, 85
10, 185344, Control_c, 4, 11, 84
10, 185363, Control_c, 4, 11, 83
10, 185381, Control_c, 4, 11, 80
10, 185391, Note_on_c, 4, 63, 0
10, 185391, Note_on_c, 4, 61, 0
10, 185400, Note_on_c, 4, 63, 76
10, 185400, Note_on_c, 4, 60, 76
10, 185519, Note_on_c, 4, 63, 0
10, 185519, Note_on_c, 4, 60, 0
10, 185520, Note_on_c, 4, 62, 76
10, 185520, Note_on_c, 4, 65, 76
10, 185639, Note_on_c, 4, 62, 0
10, 185639, Note_on_c, 4, 65, 0
10, 185640, Note_on_c, 4, 67, 76
10, 185640, Note_on_c, 4, 63, 76
10, 185759, Note_on_c, 4, 67, 0
10, 185759, Note_on_c, 4, 63, 0
10, 185760, Note_on_c, 4, 60, 76
10, 185760, Note_on_c, 4, 63, 76
10, 185871, Note_on_c, 4, 60, 0
10, 185871, Note_on_c, 4, 63, 0
10, 185880, Note_on_c, 4, 63, 76
10, 185880, Note_on_c, 4, 58, 76
10, 185991, Note_on_c, 4, 58, 0
10, 186000, Note_on_c, 4, 46, 76
10, 186111, Note_on_c, 4, 46, 0
10, 186119, Note_on_c, 4, 63, 0
10, 186120, Note_on_c, 4, 58, 76
10, 186120, Note_on_c, 4, 62, 76
10, 186239, Note_on_c, 4, 58, 0
10, 186239, Note_on_c, 4, 62, 0
10, 192120, Control_c, 4, 11, 127
10, 192300, Note_on_c, 4, 62, 55
10, 192355, Note_on_c, 4, 62, 0
10, 192360, Note_on_c, 4, 62, 56
10, 192479, Note_on_c, 4, 62, 0
10, 192480, Note_on_c, 4, 63, 58
10, 192539, Note_on_c, 4, 63, 0
10, 192780, Note_on_c, 4, 62, 63
10, 192835, Note_on_c, 4, 62, 0
10, 192840, Note_on_c, 4, 62, 64
10, 192959, Note_on_c, 4, 62, 0
10, 192960, Note_on_c, 4, 63, 66
10, 193019, Note_on_c, 4, 63, 0
10, 193170, Note_on_c, 4, 57, 58
10, 193195, Note_on_c, 4, 57, 0
10, 193200, Note_on_c, 4, 57, 60
10, 193259, Note_on_c, 4, 57, 0
10, 193260, Note_on_c, 4, 58, 64
10, 193319, Note_on_c, 4, 58, 0
10, 193410, Note_on_c, 4, 57, 62
10, 193435, Note_on_c, 4, 57, 0
10, 193440, Note_on_c, 4, 57, 60
10, 193499, Note_on_c, 4, 57, 0
10, 193500, Note_on_c, 4, 58, 56
10, 193559, Note_on_c, 4, 58, 0
10, 193680, Note_on_c, 4, 58, 52
10, 193799, Note_on_c, 4, 58, 0
10, 194100, Note_on_c, 4, 46, 52
10, 194100, Note_on_c, 4, 53, 52
10, 194144, Note_on_c, 4, 46, 0
10, 194144, Note_on_c, 4, 53, 0
10, 194160, Note_on_c, 4, 56, 52
10, 194160, Note_on_c, 4, 53, 52
10, 194204, Note_on_c, 4, 56, 0
10, 194204, Note_on_c, 4, 53, 0
10, 194220, Note_on_c, 4, 46, 52
10, 194220, Note_on_c, 4, 53, 52
10, 194264, Note_on_c, 4, 46, 0
10, 194264, Note_on_c, 4, 53, 0
10, 194280, Note_on_c, 4, 56, 52
10, 194280, Note_on_c, 4, 53, 52
10, 194324, Note_on_c, 4, 56, 0
10, 194324, Note_on_c, 4, 53, 0
10, 194340, Note_on_c, 4, 46, 52
10, 194340, Note_on_c, 4, 53, 52
10, 194384, Note_on_c, 4, 46, 0
10, 194384, Note_on_c, 4, 53, 0
10, 194400, Note_on_c, 4, 53, 52
10, 194400, Note_on_c, 4, 56, 52
10, 194444, Note_on_c, 4, 53, 0
10, 194444, Note_on_c, 4, 56, 0
10, 194460, Note_on_c, 4, 46, 52
10, 194460, Note_on_c, 4, 53, 52
10, 194504, Note_on_c, 4, 46, 0
10, 194504, Note_on_c, 4, 53, 0
10, 194520, Note_on_c, 4, 56, 52
10, 194520, Note_on_c, 4, 53, 52
10, 194639, Note_on_c, 4, 56, 0
10, 194639, Note_on_c, 4, 53, 0
10, 195060, Note_on_c, 4, 53, 52
10, 195060, Note_on_c, 4, 46, 52
10, 195104, Note_on_c, 4, 53, 0
10, 195104, Note_on_c, 4, 46, 0
10, 195120, Note_on_c, 4, 56, 52
10, 195120, Note_on_c, 4, 53, 52
10, 195164, Note_on_c, 4, 56, 0
10, 195164, Note_on_c, 4, 53, 0
10, 195180, Note_on_c, 4, 46, 52
10, 195180, Note_on_c, 4, 53, 52
10, 195224, Note_on_c, 4, 46, 0
10, 195224, Note_on_c, 4, 53, 0
10, 195240, Note_on_c, 4, 56, 52
10, 195240, Note_on_c, 4, 53, 52
10, 195284, Note_on_c, 4, 56, 0
10, 195284, Note_on_c, 4, 53, 0
10, 195300, Note_on_c, 4, 53, 52
10, 195300, Note_on_c, 4, 46, 52
10, 195344, Note_on_c, 4, 53, 0
10, 195344, Note_on_c, 4, 46, 0
10, 195360, Note_on_c, 4, 56, 52
10, 195360, Note_on_c, 4, 53, 52
10, 195404, Note_on_c, 4, 56, 0
10, 195404, Note_on_c, 4, 53, 0
10, 195420, Note_on_c, 4, 46, 52
10, 195420, Note_on_c, 4, 53, 52
10, 195464, Note_on_c, 4, 46, 0
10, 195464, Note_on_c, 4, 53, 0
10, 196020, Note_on_c, 4, 55, 53
10, 196020, Note_on_c, 4, 51, 53
10, 196075, Note_on_c, 4, 55, 0
10, 196075, Note_on_c, 4, 51, 0
10, 196080, Note_on_c, 4, 58, 54
10, 196080, Note_on_c, 4, 55, 54
10, 196135, Note_on_c, 4, 58, 0
10, 196135, Note_on_c, 4, 55, 0
10, 196140, Note_on_c, 4, 55, 55
10, 196140, Note_on_c, 4, 51, 55
10, 196199, Note_on_c, 4, 55, 0
10, 196199, Note_on_c, 4, 51, 0
10, 196500, Note_on_c, 4, 48, 61
10, 196500, Note_on_c, 4, 53, 61
10, 196555, Note_on_c, 4, 48, 0
10, 196555, Note_on_c, 4, 53, 0
10, 196560, Note_on_c, 4, 56, 62
10, 196560, Note_on_c, 4, 53, 62
10, 196615, Note_on_c, 4, 56, 0
10, 196615, Note_on_c, 4, 53, 0
10, 196620, Note_on_c, 4, 53, 63
10, 196620, Note_on_c, 4, 48, 63
10, 196679, Note_on_c, 4, 53, 0
10, 196679, Note_on_c, 4, 48, 0
10, 196860, Control_c, 4, 11, 96
10, 196920, Control_c, 4, 11, 96
10, 196920, Note_on_c, 4, 51, 68
10, 196920, Note_on_c, 4, 55, 68
10, 196940, Control_c, 4, 11, 99
10, 196960, Control_c, 4, 11, 101
10, 196980, Control_c, 4, 11, 104
10, 197000, Control_c, 4, 11, 106
10, 197020, Control_c, 4, 11, 109
10, 197040, Control_c, 4, 11, 112
10, 197060, Control_c, 4, 11, 114
10, 197080, Control_c, 4, 11, 117
10, 197100, Control_c, 4, 11, 119
10, 197120, Control_c, 4, 11, 122
10, 197140, Control_c, 4, 11, 124
10, 197159, Note_on_c, 4, 51, 0
10, 197159, Note_on_c, 4, 55, 0
10, 197160, Note_on_c, 4, 58, 68
10, 197160, Note_on_c, 4, 50, 68
10, 197160, Control_c, 4, 11, 127
10, 197180, Control_c, 4, 11, 124
10, 197200, Control_c, 4, 11, 122
10, 197220, Control_c, 4, 11, 119
10, 197240, Control_c, 4, 11, 117
10, 197260, Control_c, 4, 11, 114
10, 197280, Control_c, 4, 11, 112
10, 197300, Control_c, 4, 11, 109
10, 197320, Control_c, 4, 11, 106
10, 197339, Note_on_c, 4, 58, 0
10, 197339, Note_on_c, 4, 50, 0
10, 197340, Note_on_c, 4, 53, 68
10, 197340, Control_c, 4, 11, 104
10, 197340, Note_on_c, 4, 56, 68
10, 197360, Control_c, 4, 11, 101
10, 197380, Control_c, 4, 11, 96
10, 197395, Note_on_c, 4, 53, 0
10, 197395, Note_on_c, 4, 56, 0
10, 197400, Note_on_c, 4, 55, 68
10, 197400, Note_on_c, 4, 51, 68
10, 197519, Note_on_c, 4, 55, 0
10, 197519, Note_on_c, 4, 51, 0
10, 197730, Control_c, 4, 11, 127
10, 197760, Note_on_c, 4, 51, 84
10, 197871, Note_on_c, 4, 51, 0
10, 197880, Note_on_c, 4, 55, 92
10, 198224, Note_on_c, 4, 55, 0
10, 198240, Note_on_c, 4, 51, 84
10, 198351, Note_on_c, 4, 51, 0
10, 198360, Note_on_c, 4, 50, 92
10, 198704, Note_on_c, 4, 50, 0
10, 198720, Note_on_c, 4, 53, 84
10, 198831, Note_on_c, 4, 53, 0
10, 198840, Note_on_c, 4, 56, 92
10, 199184, Note_on_c, 4, 56, 0
10, 199200, Note_on_c, 4, 53, 84
10, 199311, Note_on_c, 4, 53, 0
10, 199320, Note_on_c, 4, 51, 92
10, 199664, Note_on_c, 4, 51, 0
10, 199680, Note_on_c, 4, 55, 84
10, 199791, Note_on_c, 4, 55, 0
10, 199800, Note_on_c, 4, 58, 84
10, 199979, Note_on_c, 4, 58, 0
10, 200040, Note_on_c, 4, 58, 84
10, 200219, Note_on_c, 4, 58, 0
10, 200280, Note_on_c, 4, 58, 92
10, 200624, Note_on_c, 4, 58, 0
10, 200640, Note_on_c, 4, 55, 84
10, 200751, Note_on_c, 4, 55, 0
10, 200760, Note_on_c, 4, 58, 84
10, 200819, Note_on_c, 4, 58, 0
10, 200820, Note_on_c, 4, 56, 84
10, 200875, Note_on_c, 4, 56, 0
10, 200880, Note_on_c, 4, 53, 84
10, 200969, Note_on_c, 4, 53, 0
10, 201000, Note_on_c, 4, 56, 84
10, 201059, Note_on_c, 4, 56, 0
10, 201060, Note_on_c, 4, 55, 84
10, 201115, Note_on_c, 4, 55, 0
10, 201120, Note_on_c, 4, 51, 84
10, 201209, Note_on_c, 4, 51, 0
10, 201240, Note_on_c, 4, 55, 84
10, 201479, Note_on_c, 4, 55, 0
10, 201480, Note_on_c, 4, 53, 84
10, 201591, Note_on_c, 4, 53, 0
10, 201600, Note_on_c, 4, 46, 84
10, 201629, Note_on_c, 4, 46, 0
10, 201640, Note_on_c, 4, 46, 84
10, 201669, Note_on_c, 4, 46, 0
10, 201680, Note_on_c, 4, 45, 84
10, 201709, Note_on_c, 4, 45, 0
10, 201720, Note_on_c, 4, 46, 84
10, 201749, Note_on_c, 4, 46, 0
10, 201760, Note_on_c, 4, 46, 84
10, 201789, Note_on_c, 4, 46, 0
10, 201800, Note_on_c, 4, 45, 84
10, 201829, Note_on_c, 4, 45, 0
10, 201840, Note_on_c, 4, 46, 84
10, 201869, Note_on_c, 4, 46, 0
10, 201880, Note_on_c, 4, 46, 84
10, 201909, Note_on_c, 4, 46, 0
10, 201920, Note_on_c, 4, 48, 84
10, 201949, Note_on_c, 4, 48, 0
10, 201960, Note_on_c, 4, 50, 84
10, 201989, Note_on_c, 4, 50, 0
10, 202000, Note_on_c, 4, 50, 84
10, 202029, Note_on_c, 4, 50, 0
10, 202040, Note_on_c, 4, 51, 84
10, 202069, Note_on_c, 4, 51, 0
10, 202080, Note_on_c, 4, 53, 84
10, 202109, Note_on_c, 4, 53, 0
10, 202120, Note_on_c, 4, 53, 84
10, 202149, Note_on_c, 4, 53, 0
10, 202160, Note_on_c, 4, 55, 84
10, 202189, Note_on_c, 4, 55, 0
10, 202200, Note_on_c, 4, 56, 84
10, 202289, Note_on_c, 4, 56, 0
10, 202320, Note_on_c, 4, 56, 84
10, 202409, Note_on_c, 4, 56, 0
10, 202440, Note_on_c, 4, 56, 84
10, 202529, Note_on_c, 4, 56, 0
10, 202560, Note_on_c, 4, 46, 84
10, 202589, Note_on_c, 4, 46, 0
10, 202600, Note_on_c, 4, 46, 84
10, 202629, Note_on_c, 4, 46, 0
10, 202640, Note_on_c, 4, 45, 84
10, 202669, Note_on_c, 4, 45, 0
10, 202680, Note_on_c, 4, 46, 84
10, 202709, Note_on_c, 4, 46, 0
10, 202720, Note_on_c, 4, 46, 84
10, 202749, Note_on_c, 4, 46, 0
10, 202760, Note_on_c, 4, 48, 84
10, 202789, Note_on_c, 4, 48, 0
10, 202800, Note_on_c, 4, 50, 84
10, 202829, Note_on_c, 4, 50, 0
10, 202840, Note_on_c, 4, 50, 84
10, 202869, Note_on_c, 4, 50, 0
10, 202880, Note_on_c, 4, 51, 84
10, 202909, Note_on_c, 4, 51, 0
10, 202920, Note_on_c, 4, 53, 84
10, 202949, Note_on_c, 4, 53, 0
10, 202960, Note_on_c, 4, 53, 84
10, 202989, Note_on_c, 4, 53, 0
10, 203000, Note_on_c, 4, 55, 84
10, 203029, Note_on_c, 4, 55, 0
10, 203040, Note_on_c, 4, 56, 84
10, 203069, Note_on_c, 4, 56, 0
10, 203080, Note_on_c, 4, 56, 84
10, 203109, Note_on_c, 4, 56, 0
10, 203120, Note_on_c, 4, 55, 84
10, 203149, Note_on_c, 4, 55, 0
10, 203160, Note_on_c, 4, 56, 84
10, 203519, Note_on_c, 4, 56, 0
10, 203520, Note_on_c, 4, 57, 84
10, 203631, Note_on_c, 4, 57, 0
10, 203640, Note_on_c, 4, 58, 92
10, 203984, Note_on_c, 4, 58, 0
10, 204000, Note_on_c, 4, 55, 84
10, 204111, Note_on_c, 4, 55, 0
10, 204120, Note_on_c, 4, 53, 92
10, 204464, Note_on_c, 4, 53, 0
10, 204480, Note_on_c, 4, 60, 84
10, 204591, Note_on_c, 4, 60, 0
10, 204600, Note_on_c, 4, 51, 92
10, 204839, Note_on_c, 4, 51, 0
10, 204840, Note_on_c, 4, 55, 84
10, 205019, Note_on_c, 4, 55, 0
10, 205020, Note_on_c, 4, 53, 84
10, 205075, Note_on_c, 4, 53, 0
10, 205080, Note_on_c, 4, 51, 84
10, 205199, Note_on_c, 4, 51, 0
10, 205260, Control_c, 4, 11, 96
10, 205320, Note_on_c, 4, 58, 68
10, 205320, Note_on_c, 4, 55, 68
10, 205559, Note_on_c, 4, 58, 0
10, 205559, Note_on_c, 4, 55, 0
10, 205560, Note_on_c, 4, 63, 68
10, 205560, Note_on_c, 4, 58, 68
10, 205799, Note_on_c, 4, 63, 0
10, 205799, Note_on_c, 4, 58, 0
10, 205800, Note_on_c, 4, 63, 68
10, 205800, Note_on_c, 4, 67, 68
10, 206031, Note_on_c, 4, 63, 0
10, 206031, Note_on_c, 4, 67, 0
10, 206040, Control_c, 4, 11, 96
10, 206040, Note_on_c, 4, 65, 68
10, 206040, Note_on_c, 4, 58, 68
10, 206080, Control_c, 4, 11, 97
10, 206120, Control_c, 4, 11, 99
10, 206160, Control_c, 4, 11, 100
10, 206200, Control_c, 4, 11, 101
10, 206240, Control_c, 4, 11, 102
10, 206280, Control_c, 4, 11, 104
10, 206320, Control_c, 4, 11, 105
10, 206360, Control_c, 4, 11, 106
10, 206400, Control_c, 4, 11, 108
10, 206440, Control_c, 4, 11, 109
10, 206480, Control_c, 4, 11, 110
10, 206520, Control_c, 4, 11, 112
10, 206560, Control_c, 4, 11, 113
10, 206600, Control_c, 4, 11, 114
10, 206631, Note_on_c, 4, 65, 0
10, 206631, Note_on_c, 4, 58, 0
10, 206640, Note_on_c, 4, 46, 68
10, 206640, Control_c, 4, 11, 115
10, 206640, Note_on_c, 4, 58, 68
10, 206680, Control_c, 4, 11, 117
10, 206720, Control_c, 4, 11, 118
10, 206751, Note_on_c, 4, 46, 0
10, 206751, Note_on_c, 4, 58, 0
10, 206760, Note_on_c, 4, 58, 68
10, 206760, Control_c, 4, 11, 119
10, 206760, Note_on_c, 4, 46, 68
10, 206800, Control_c, 4, 11, 121
10, 206840, Control_c, 4, 11, 122
10, 206871, Note_on_c, 4, 58, 0
10, 206871, Note_on_c, 4, 46, 0
10, 206880, Note_on_c, 4, 46, 68
10, 206880, Note_on_c, 4, 58, 68
10, 206880, Control_c, 4, 11, 123
10, 206920, Control_c, 4, 11, 124
10, 206960, Control_c, 4, 11, 127
10, 206991, Note_on_c, 4, 46, 0
10, 206991, Note_on_c, 4, 58, 0
10, 207000, Note_on_c, 4, 63, 52
10, 207000, Note_on_c, 4, 51, 52
10, 207055, Note_on_c, 4, 63, 0
10, 207055, Note_on_c, 4, 51, 0
10, 207060, Note_on_c, 4, 55, 52
10, 207060, Note_on_c, 4, 51, 52
10, 207115, Note_on_c, 4, 55, 0
10, 207115, Note_on_c, 4, 51, 0
10, 207120, Note_on_c, 4, 51, 52
10, 207120, Note_on_c, 4, 55, 52
10, 207175, Note_on_c, 4, 51, 0
10, 207175, Note_on_c, 4, 55, 0
10, 207180, Note_on_c, 4, 51, 52
10, 207180, Note_on_c, 4, 55, 52
10, 207235, Note_on_c, 4, 51, 0
10, 207235, Note_on_c, 4, 55, 0
10, 207240, Note_on_c, 4, 51, 52
10, 207240, Note_on_c, 4, 55, 52
10, 207299, Note_on_c, 4, 51, 0
10, 207299, Note_on_c, 4, 55, 0
10, 207300, Note_on_c, 4, 55, 52
10, 207300, Note_on_c, 4, 58, 52
10, 207355, Note_on_c, 4, 55, 0
10, 207355, Note_on_c, 4, 58, 0
10, 207360, Note_on_c, 4, 58, 52
10, 207360, Note_on_c, 4, 55, 52
10, 207404, Note_on_c, 4, 58, 0
10, 207404, Note_on_c, 4, 55, 0
10, 207420, Note_on_c, 4, 55, 52
10, 207420, Note_on_c, 4, 58, 52
10, 207464, Note_on_c, 4, 55, 0
10, 207464, Note_on_c, 4, 58, 0
10, 207480, Note_on_c, 4, 55, 52
10, 207480, Note_on_c, 4, 58, 52
10, 207539, Note_on_c, 4, 55, 0
10, 207539, Note_on_c, 4, 58, 0
10, 207540, Note_on_c, 4, 58, 52
10, 207540, Note_on_c, 4, 63, 52
10, 207595, Note_on_c, 4, 58, 0
10, 207595, Note_on_c, 4, 63, 0
10, 207600, Note_on_c, 4, 63, 52
10, 207600, Note_on_c, 4, 58, 52
10, 207644, Note_on_c, 4, 63, 0
10, 207644, Note_on_c, 4, 58, 0
10, 207660, Note_on_c, 4, 63, 52
10, 207660, Note_on_c, 4, 58, 52
10, 207704, Note_on_c, 4, 63, 0
10, 207704, Note_on_c, 4, 58, 0
10, 207720, Note_on_c, 4, 58, 52
10, 207720, Note_on_c, 4, 63, 52
10, 207779, Note_on_c, 4, 58, 0
10, 207779, Note_on_c, 4, 63, 0
10, 207780, Note_on_c, 4, 67, 52
10, 207780, Note_on_c, 4, 63, 52
10, 207835, Note_on_c, 4, 67, 0
10, 207835, Note_on_c, 4, 63, 0
10, 207840, Note_on_c, 4, 63, 52
10, 207840, Note_on_c, 4, 67, 52
10, 207884, Note_on_c, 4, 63, 0
10, 207884, Note_on_c, 4, 67, 0
10, 207900, Note_on_c, 4, 63, 52
10, 207900, Note_on_c, 4, 67, 52
10, 207944, Note_on_c, 4, 63, 0
10, 207944, Note_on_c, 4, 67, 0
10, 207952, Control_c, 4, 11, 96
10, 207960, Note_on_c, 4, 58, 68
10, 207960, Control_c, 4, 11, 96
10, 207960, Note_on_c, 4, 65, 68
10, 208000, Control_c, 4, 11, 97
10, 208040, Control_c, 4, 11, 99
10, 208080, Control_c, 4, 11, 100
10, 208120, Control_c, 4, 11, 101
10, 208160, Control_c, 4, 11, 102
10, 208200, Control_c, 4, 11, 104
10, 208240, Control_c, 4, 11, 105
10, 208280, Control_c, 4, 11, 106
10, 208320, Control_c, 4, 11, 108
10, 208360, Control_c, 4, 11, 109
10, 208400, Control_c, 4, 11, 110
10, 208431, Note_on_c, 4, 58, 0
10, 208431, Note_on_c, 4, 65, 0
10, 208440, Note_on_c, 4, 51, 68
10, 208440, Note_on_c, 4, 63, 68
10, 208440, Control_c, 4, 11, 112
10, 208480, Control_c, 4, 11, 113
10, 208520, Control_c, 4, 11, 114
10, 208559, Note_on_c, 4, 51, 0
10, 208559, Note_on_c, 4, 63, 0
10, 208560, Control_c, 4, 11, 115
10, 208880, Control_c, 4, 11, 127
10, 209460, Note_on_c, 4, 63, 52
10, 209515, Note_on_c, 4, 63, 0
10, 209520, Note_on_c, 4, 63, 52
10, 209575, Note_on_c, 4, 63, 0
10, 209580, Note_on_c, 4, 63, 52
10, 209635, Note_on_c, 4, 63, 0
10, 209640, Note_on_c, 4, 65, 60
10, 209759, Note_on_c, 4, 65, 0
10, 209760, Note_on_c, 4, 63, 52
10, 209819, Note_on_c, 4, 63, 0
10, 210360, Control_c, 4, 11, 96
10, 210420, Control_c, 4, 11, 96
10, 210420, Note_on_c, 4, 63, 68
10, 210427, Control_c, 4, 11, 98
10, 210433, Control_c, 4, 11, 100
10, 210440, Control_c, 4, 11, 101
10, 210447, Control_c, 4, 11, 103
10, 210453, Control_c, 4, 11, 105
10, 210460, Control_c, 4, 11, 107
10, 210467, Control_c, 4, 11, 108
10, 210473, Control_c, 4, 11, 110
10, 210479, Note_on_c, 4, 63, 0
10, 210480, Control_c, 4, 11, 112
10, 210480, Note_on_c, 4, 65, 68
10, 210487, Control_c, 4, 11, 110
10, 210493, Control_c, 4, 11, 108
10, 210500, Control_c, 4, 11, 107
10, 210507, Control_c, 4, 11, 105
10, 210513, Control_c, 4, 11, 103
10, 210520, Control_c, 4, 11, 101
10, 210527, Control_c, 4, 11, 100
10, 210533, Control_c, 4, 11, 96
10, 210539, Note_on_c, 4, 65, 0
10, 210540, Note_on_c, 4, 63, 68
10, 210599, Note_on_c, 4, 63, 0
10, 210660, Note_on_c, 4, 63, 68
10, 210660, Control_c, 4, 11, 96
10, 210667, Control_c, 4, 11, 98
10, 210673, Control_c, 4, 11, 100
10, 210680, Control_c, 4, 11, 101
10, 210687, Control_c, 4, 11, 103
10, 210693, Control_c, 4, 11, 105
10, 210700, Control_c, 4, 11, 107
10, 210707, Control_c, 4, 11, 108
10, 210713, Control_c, 4, 11, 110
10, 210719, Note_on_c, 4, 63, 0
10, 210720, Control_c, 4, 11, 112
10, 210720, Note_on_c, 4, 65, 68
10, 210727, Control_c, 4, 11, 110
10, 210733, Control_c, 4, 11, 108
10, 210740, Control_c, 4, 11, 107
10, 210747, Control_c, 4, 11, 105
10, 210753, Control_c, 4, 11, 103
10, 210760, Control_c, 4, 11, 101
10, 210767, Control_c, 4, 11, 100
10, 210773, Control_c, 4, 11, 96
10, 210779, Note_on_c, 4, 65, 0
10, 210780, Note_on_c, 4, 63, 68
10, 210835, Note_on_c, 4, 63, 0
10, 213480, Control_c, 4, 11, 127
10, 213720, Note_on_c, 4, 47, 76
10, 213720, Note_on_c, 4, 59, 76
10, 213899, Note_on_c, 4, 47, 0
10, 213899, Note_on_c, 4, 59, 0
10, 213960, Note_on_c, 4, 59, 76
10, 213960, Note_on_c, 4, 47, 76
10, 214139, Note_on_c, 4, 59, 0
10, 214139, Note_on_c, 4, 47, 0
10, 214200, Note_on_c, 4, 48, 76
10, 214200, Note_on_c, 4, 60, 76
10, 214671, Note_on_c, 4, 48, 0
10, 214671, Note_on_c, 4, 60, 0
10, 214680, Note_on_c, 4, 61, 76
10, 214680, Note_on_c, 4, 49, 76
10, 214859, Note_on_c, 4, 61, 0
10, 214859, Note_on_c, 4, 49, 0
10, 214920, Note_on_c, 4, 49, 78
10, 214920, Note_on_c, 4, 61, 78
10, 215099, Note_on_c, 4, 49, 0
10, 215099, Note_on_c, 4, 61, 0
10, 215160, Note_on_c, 4, 62, 80
10, 215160, Note_on_c, 4, 50, 80
10, 215631, Note_on_c, 4, 62, 0
10, 215631, Note_on_c, 4, 50, 0
10, 215640, Note_on_c, 4, 50, 84
10, 215640, Note_on_c, 4, 62, 84
10, 215991, Note_on_c, 4, 50, 0
10, 215991, Note_on_c, 4, 62, 0
10, 216000, Note_on_c, 4, 46, 84
10, 216000, Note_on_c, 4, 58, 84
10, 216055, Note_on_c, 4, 46, 0
10, 216055, Note_on_c, 4, 58, 0
10, 216060, Note_on_c, 4, 55, 84
10, 216060, Note_on_c, 4, 43, 84
10, 216115, Note_on_c, 4, 55, 0
10, 216115, Note_on_c, 4, 43, 0
10, 216120, Note_on_c, 4, 62, 84
10, 216120, Note_on_c, 4, 50, 84
10, 216351, Note_on_c, 4, 62, 0
10, 216351, Note_on_c, 4, 50, 0
10, 216360, Note_on_c, 4, 62, 84
10, 216360, Note_on_c, 4, 50, 84
10, 216591, Note_on_c, 4, 62, 0
10, 216591, Note_on_c, 4, 50, 0
10, 216600, Note_on_c, 4, 55, 84
10, 216600, Note_on_c, 4, 43, 84
10, 216719, Note_on_c, 4, 55, 0
10, 216719, Note_on_c, 4, 43, 0
10, 216840, Note_on_c, 4, 62, 52
10, 216895, Note_on_c, 4, 62, 0
10, 216900, Note_on_c, 4, 62, 52
10, 216959, Note_on_c, 4, 62, 0
10, 217080, Note_on_c, 4, 63, 52
10, 217135, Note_on_c, 4, 63, 0
10, 217140, Note_on_c, 4, 63, 52
10, 217199, Note_on_c, 4, 63, 0
10, 217320, Note_on_c, 4, 54, 52
10, 217375, Note_on_c, 4, 54, 0
10, 217380, Note_on_c, 4, 54, 52
10, 217439, Note_on_c, 4, 54, 0
10, 217560, Note_on_c, 4, 63, 52
10, 217615, Note_on_c, 4, 63, 0
10, 217620, Note_on_c, 4, 63, 52
10, 217679, Note_on_c, 4, 63, 0
10, 217800, Note_on_c, 4, 54, 52
10, 217855, Note_on_c, 4, 54, 0
10, 217860, Note_on_c, 4, 54, 52
10, 217919, Note_on_c, 4, 54, 0
10, 218040, Note_on_c, 4, 65, 52
10, 218095, Note_on_c, 4, 65, 0
10, 218100, Note_on_c, 4, 65, 54
10, 218159, Note_on_c, 4, 65, 0
10, 218280, Note_on_c, 4, 59, 60
10, 218335, Note_on_c, 4, 59, 0
10, 218340, Note_on_c, 4, 59, 62
10, 218399, Note_on_c, 4, 59, 0
10, 218520, Note_on_c, 4, 65, 68
10, 218575, Note_on_c, 4, 65, 0
10, 218580, Note_on_c, 4, 65, 66
10, 218639, Note_on_c, 4, 65, 0
10, 218760, Note_on_c, 4, 59, 60
10, 218815, Note_on_c, 4, 59, 0
10, 218820, Note_on_c, 4, 59, 58
10, 218879, Note_on_c, 4, 59, 0
10, 219000, Note_on_c, 4, 62, 52
10, 219055, Note_on_c, 4, 62, 0
10, 219060, Note_on_c, 4, 62, 52
10, 219119, Note_on_c, 4, 62, 0
10, 219240, Note_on_c, 4, 60, 52
10, 219295, Note_on_c, 4, 60, 0
10, 219300, Note_on_c, 4, 60, 52
10, 219359, Note_on_c, 4, 60, 0
10, 219480, Note_on_c, 4, 63, 52
10, 219535, Note_on_c, 4, 63, 0
10, 219540, Note_on_c, 4, 63, 52
10, 219599, Note_on_c, 4, 63, 0
10, 219720, Note_on_c, 4, 54, 52
10, 219775, Note_on_c, 4, 54, 0
10, 219780, Note_on_c, 4, 54, 52
10, 219839, Note_on_c, 4, 54, 0
10, 219960, Note_on_c, 4, 55, 52
10, 220015, Note_on_c, 4, 55, 0
10, 220020, Note_on_c, 4, 55, 54
10, 220079, Note_on_c, 4, 55, 0
10, 220200, Note_on_c, 4, 62, 60
10, 220255, Note_on_c, 4, 62, 0
10, 220260, Note_on_c, 4, 62, 62
10, 220319, Note_on_c, 4, 62, 0
10, 220440, Note_on_c, 4, 63, 68
10, 220495, Note_on_c, 4, 63, 0
10, 220500, Note_on_c, 4, 63, 66
10, 220559, Note_on_c, 4, 63, 0
10, 220680, Note_on_c, 4, 54, 60
10, 220735, Note_on_c, 4, 54, 0
10, 220740, Note_on_c, 4, 54, 58
10, 220799, Note_on_c, 4, 54, 0
10, 220920, Note_on_c, 4, 55, 52
10, 220975, Note_on_c, 4, 55, 0
10, 220980, Note_on_c, 4, 55, 51
10, 221039, Note_on_c, 4, 55, 0
10, 221160, Note_on_c, 4, 67, 48
10, 221215, Note_on_c, 4, 67, 0
10, 221220, Note_on_c, 4, 67, 47
10, 221279, Note_on_c, 4, 67, 0
10, 221400, Note_on_c, 4, 67, 44
10, 221455, Note_on_c, 4, 67, 0
10, 221460, Note_on_c, 4, 67, 44
10, 221519, Note_on_c, 4, 67, 0
10, 221640, Note_on_c, 4, 66, 44
10, 221695, Note_on_c, 4, 66, 0
10, 221700, Note_on_c, 4, 66, 44
10, 221759, Note_on_c, 4, 66, 0
10, 221880, Note_on_c, 4, 55, 84
10, 222411, Note_on_c, 4, 55, 0
10, 222420, Note_on_c, 4, 53, 84
10, 222464, Note_on_c, 4, 53, 0
10, 222480, Note_on_c, 4, 51, 84
10, 222524, Note_on_c, 4, 51, 0
10, 222540, Note_on_c, 4, 50, 84
10, 222584, Note_on_c, 4, 50, 0
10, 222600, Note_on_c, 4, 51, 84
10, 222644, Note_on_c, 4, 51, 0
10, 222660, Note_on_c, 4, 50, 84
10, 222704, Note_on_c, 4, 50, 0
10, 222720, Note_on_c, 4, 48, 84
10, 222764, Note_on_c, 4, 48, 0
10, 222780, Note_on_c, 4, 46, 84
10, 222824, Note_on_c, 4, 46, 0
10, 222840, Note_on_c, 4, 48, 84
10, 222884, Note_on_c, 4, 48, 0
10, 222900, Note_on_c, 4, 58, 84
10, 222944, Note_on_c, 4, 58, 0
10, 222960, Note_on_c, 4, 57, 84
10, 223004, Note_on_c, 4, 57, 0
10, 223020, Note_on_c, 4, 55, 84
10, 223064, Note_on_c, 4, 55, 0
10, 223080, Note_on_c, 4, 56, 84
10, 223124, Note_on_c, 4, 56, 0
10, 223140, Note_on_c, 4, 55, 84
10, 223184, Note_on_c, 4, 55, 0
10, 223200, Note_on_c, 4, 53, 84
10, 223244, Note_on_c, 4, 53, 0
10, 223260, Note_on_c, 4, 51, 84
10, 223304, Note_on_c, 4, 51, 0
10, 223320, Note_on_c, 4, 50, 84
10, 223364, Note_on_c, 4, 50, 0
10, 223380, Note_on_c, 4, 51, 84
10, 223424, Note_on_c, 4, 51, 0
10, 223440, Note_on_c, 4, 53, 84
10, 223484, Note_on_c, 4, 53, 0
10, 223500, Note_on_c, 4, 51, 84
10, 223544, Note_on_c, 4, 51, 0
10, 223560, Note_on_c, 4, 50, 84
10, 223604, Note_on_c, 4, 50, 0
10, 223620, Note_on_c, 4, 46, 84
10, 223664, Note_on_c, 4, 46, 0
10, 223680, Note_on_c, 4, 48, 84
10, 223724, Note_on_c, 4, 48, 0
10, 223740, Note_on_c, 4, 50, 84
10, 223784, Note_on_c, 4, 50, 0
10, 223800, Note_on_c, 4, 51, 84
10, 223919, Note_on_c, 4, 51, 0
10, 223980, Note_on_c, 4, 51, 84
10, 223980, Note_on_c, 4, 43, 84
10, 224035, Note_on_c, 4, 51, 0
10, 224035, Note_on_c, 4, 43, 0
10, 224040, Note_on_c, 4, 55, 92
10, 224040, Note_on_c, 4, 51, 92
10, 224219, Note_on_c, 4, 55, 0
10, 224219, Note_on_c, 4, 51, 0
10, 224220, Note_on_c, 4, 51, 84
10, 224220, Note_on_c, 4, 43, 84
10, 224275, Note_on_c, 4, 51, 0
10, 224275, Note_on_c, 4, 43, 0
10, 224280, Note_on_c, 4, 53, 84
10, 224280, Note_on_c, 4, 46, 84
10, 224399, Note_on_c, 4, 53, 0
10, 224399, Note_on_c, 4, 46, 0
10, 224460, Note_on_c, 4, 53, 84
10, 224460, Note_on_c, 4, 46, 84
10, 224515, Note_on_c, 4, 53, 0
10, 224515, Note_on_c, 4, 46, 0
10, 224520, Note_on_c, 4, 56, 92
10, 224520, Note_on_c, 4, 53, 92
10, 224699, Note_on_c, 4, 56, 0
10, 224699, Note_on_c, 4, 53, 0
10, 224700, Note_on_c, 4, 53, 84
10, 224700, Note_on_c, 4, 46, 84
10, 224755, Note_on_c, 4, 53, 0
10, 224755, Note_on_c, 4, 46, 0
10, 224760, Note_on_c, 4, 51, 84
10, 224760, Note_on_c, 4, 43, 84
10, 224815, Note_on_c, 4, 51, 0
10, 224815, Note_on_c, 4, 43, 0
10, 224820, Note_on_c, 4, 51, 84
10, 224820, Note_on_c, 4, 43, 84
10, 224875, Note_on_c, 4, 51, 0
10, 224875, Note_on_c, 4, 43, 0
10, 224880, Note_on_c, 4, 51, 84
10, 224880, Note_on_c, 4, 43, 84
10, 224935, Note_on_c, 4, 51, 0
10, 224935, Note_on_c, 4, 43, 0
10, 224940, Note_on_c, 4, 51, 84
10, 224940, Note_on_c, 4, 43, 84
10, 224995, Note_on_c, 4, 51, 0
10, 224995, Note_on_c, 4, 43, 0
10, 225000, Note_on_c, 4, 55, 92
10, 225000, Note_on_c, 4, 51, 92
10, 225179, Note_on_c, 4, 55, 0
10, 225179, Note_on_c, 4, 51, 0
10, 225180, Note_on_c, 4, 51, 84
10, 225180, Note_on_c, 4, 43, 84
10, 225235, Note_on_c, 4, 51, 0
10, 225235, Note_on_c, 4, 43, 0
10, 225240, Note_on_c, 4, 53, 84
10, 225240, Note_on_c, 4, 46, 84
10, 225295, Note_on_c, 4, 53, 0
10, 225295, Note_on_c, 4, 46, 0
10, 225300, Note_on_c, 4, 53, 84
10, 225300, Note_on_c, 4, 46, 84
10, 225355, Note_on_c, 4, 53, 0
10, 225355, Note_on_c, 4, 46, 0
10, 225360, Note_on_c, 4, 53, 84
10, 225360, Note_on_c, 4, 46, 84
10, 225415, Note_on_c, 4, 53, 0
10, 225415, Note_on_c, 4, 46, 0
10, 225420, Note_on_c, 4, 53, 84
10, 225420, Note_on_c, 4, 46, 84
10, 225475, Note_on_c, 4, 53, 0
10, 225475, Note_on_c, 4, 46, 0
10, 225480, Note_on_c, 4, 56, 92
10, 225480, Note_on_c, 4, 53, 92
10, 225659, Note_on_c, 4, 56, 0
10, 225659, Note_on_c, 4, 53, 0
10, 225660, Note_on_c, 4, 53, 84
10, 225660, Note_on_c, 4, 46, 84
10, 225715, Note_on_c, 4, 53, 0
10, 225715, Note_on_c, 4, 46, 0
10, 225720, Note_on_c, 4, 55, 84
10, 225720, Note_on_c, 4, 51, 84
10, 225779, Note_on_c, 4, 55, 0
10, 225779, Note_on_c, 4, 51, 0
10, 225780, Note_on_c, 4, 51, 84
10, 225780, Note_on_c, 4, 43, 84
10, 225835, Note_on_c, 4, 51, 0
10, 225835, Note_on_c, 4, 43, 0
10, 225840, Note_on_c, 4, 51, 84
10, 225840, Note_on_c, 4, 43, 84
10, 225884, Note_on_c, 4, 51, 0
10, 225884, Note_on_c, 4, 43, 0
10, 225900, Note_on_c, 4, 51, 84
10, 225900, Note_on_c, 4, 43, 84
10, 225944, Note_on_c, 4, 51, 0
10, 225944, Note_on_c, 4, 43, 0
10, 225960, Note_on_c, 4, 55, 92
10, 225960, Note_on_c, 4, 51, 92
10, 226019, Note_on_c, 4, 55, 0
10, 226019, Note_on_c, 4, 51, 0
10, 226020, Note_on_c, 4, 51, 84
10, 226020, Note_on_c, 4, 43, 84
10, 226075, Note_on_c, 4, 51, 0
10, 226075, Note_on_c, 4, 43, 0
10, 226080, Note_on_c, 4, 51, 84
10, 226080, Note_on_c, 4, 43, 84
10, 226124, Note_on_c, 4, 51, 0
10, 226124, Note_on_c, 4, 43, 0
10, 226140, Note_on_c, 4, 51, 84
10, 226140, Note_on_c, 4, 43, 84
10, 226184, Note_on_c, 4, 51, 0
10, 226184, Note_on_c, 4, 43, 0
10, 226200, Note_on_c, 4, 53, 84
10, 226200, Note_on_c, 4, 46, 84
10, 226255, Note_on_c, 4, 53, 0
10, 226255, Note_on_c, 4, 46, 0
10, 226260, Note_on_c, 4, 53, 84
10, 226260, Note_on_c, 4, 46, 84
10, 226315, Note_on_c, 4, 53, 0
10, 226315, Note_on_c, 4, 46, 0
10, 226320, Note_on_c, 4, 53, 84
10, 226320, Note_on_c, 4, 46, 84
10, 226375, Note_on_c, 4, 53, 0
10, 226375, Note_on_c, 4, 46, 0
10, 226380, Note_on_c, 4, 53, 84
10, 226380, Note_on_c, 4, 46, 84
10, 226435, Note_on_c, 4, 53, 0
10, 226435, Note_on_c, 4, 46, 0
10, 226440, Note_on_c, 4, 56, 92
10, 226440, Note_on_c, 4, 53, 92
10, 226499, Note_on_c, 4, 56, 0
10, 226499, Note_on_c, 4, 53, 0
10, 226500, Note_on_c, 4, 53, 84
10, 226500, Note_on_c, 4, 46, 84
10, 226555, Note_on_c, 4, 53, 0
10, 226555, Note_on_c, 4, 46, 0
10, 226560, Note_on_c, 4, 53, 84
10, 226560, Note_on_c, 4, 46, 84
10, 226604, Note_on_c, 4, 53, 0
10, 226604, Note_on_c, 4, 46, 0
10, 226620, Note_on_c, 4, 53, 84
10, 226620, Note_on_c, 4, 46, 84
10, 226664, Note_on_c, 4, 53, 0
10, 226664, Note_on_c, 4, 46, 0
10, 226680, Note_on_c, 4, 55, 84
10, 226680, Note_on_c, 4, 51, 84
10, 226739, Note_on_c, 4, 55, 0
10, 226739, Note_on_c, 4, 51, 0
10, 226740, Note_on_c, 4, 58, 84
10, 226740, Note_on_c, 4, 55, 84
10, 226795, Note_on_c, 4, 58, 0
10, 226795, Note_on_c, 4, 55, 0
10, 226800, Note_on_c, 4, 58, 84
10, 226800, Note_on_c, 4, 55, 84
10, 226844, Note_on_c, 4, 58, 0
10, 226844, Note_on_c, 4, 55, 0
10, 226860, Note_on_c, 4, 58, 84
10, 226860, Note_on_c, 4, 55, 84
10, 226904, Note_on_c, 4, 58, 0
10, 226904, Note_on_c, 4, 55, 0
10, 226920, Note_on_c, 4, 63, 92
10, 226920, Note_on_c, 4, 58, 92
10, 227099, Note_on_c, 4, 63, 0
10, 227099, Note_on_c, 4, 58, 0
10, 227100, Note_on_c, 4, 58, 84
10, 227100, Note_on_c, 4, 55, 84
10, 227155, Note_on_c, 4, 58, 0
10, 227155, Note_on_c, 4, 55, 0
10, 227160, Note_on_c, 4, 58, 84
10, 227160, Note_on_c, 4, 56, 84
10, 227215, Note_on_c, 4, 58, 0
10, 227215, Note_on_c, 4, 56, 0
10, 227220, Note_on_c, 4, 58, 84
10, 227220, Note_on_c, 4, 56, 84
10, 227275, Note_on_c, 4, 58, 0
10, 227275, Note_on_c, 4, 56, 0
10, 227280, Note_on_c, 4, 58, 84
10, 227280, Note_on_c, 4, 56, 84
10, 227335, Note_on_c, 4, 58, 0
10, 227335, Note_on_c, 4, 56, 0
10, 227340, Note_on_c, 4, 58, 84
10, 227340, Note_on_c, 4, 56, 84
10, 227395, Note_on_c, 4, 58, 0
10, 227395, Note_on_c, 4, 56, 0
10, 227400, Note_on_c, 4, 65, 92
10, 227400, Note_on_c, 4, 58, 92
10, 227571, Note_on_c, 4, 58, 0
10, 227579, Note_on_c, 4, 65, 0
10, 227580, Note_on_c, 4, 58, 84
10, 227580, Note_on_c, 4, 56, 84
10, 227635, Note_on_c, 4, 58, 0
10, 227635, Note_on_c, 4, 56, 0
10, 227640, Note_on_c, 4, 58, 84
10, 227640, Note_on_c, 4, 55, 84
10, 227684, Note_on_c, 4, 58, 0
10, 227684, Note_on_c, 4, 55, 0
10, 227700, Note_on_c, 4, 58, 84
10, 227700, Note_on_c, 4, 55, 84
10, 227744, Note_on_c, 4, 58, 0
10, 227744, Note_on_c, 4, 55, 0
10, 227760, Note_on_c, 4, 58, 84
10, 227760, Note_on_c, 4, 55, 84
10, 227804, Note_on_c, 4, 58, 0
10, 227804, Note_on_c, 4, 55, 0
10, 227820, Note_on_c, 4, 58, 84
10, 227820, Note_on_c, 4, 55, 84
10, 227864, Note_on_c, 4, 58, 0
10, 227864, Note_on_c, 4, 55, 0
10, 227880, Note_on_c, 4, 63, 92
10, 227880, Note_on_c, 4, 58, 92
10, 227939, Note_on_c, 4, 63, 0
10, 227939, Note_on_c, 4, 58, 0
10, 227940, Note_on_c, 4, 58, 84
10, 227940, Note_on_c, 4, 55, 84
10, 227995, Note_on_c, 4, 58, 0
10, 227995, Note_on_c, 4, 55, 0
10, 228000, Note_on_c, 4, 58, 84
10, 228000, Note_on_c, 4, 55, 84
10, 228044, Note_on_c, 4, 58, 0
10, 228044, Note_on_c, 4, 55, 0
10, 228060, Note_on_c, 4, 58, 84
10, 228060, Note_on_c, 4, 55, 84
10, 228104, Note_on_c, 4, 58, 0
10, 228104, Note_on_c, 4, 55, 0
10, 228120, Note_on_c, 4, 58, 84
10, 228120, Note_on_c, 4, 56, 84
10, 228175, Note_on_c, 4, 58, 0
10, 228175, Note_on_c, 4, 56, 0
10, 228180, Note_on_c, 4, 58, 84
10, 228180, Note_on_c, 4, 56, 84
10, 228235, Note_on_c, 4, 58, 0
10, 228235, Note_on_c, 4, 56, 0
10, 228240, Note_on_c, 4, 58, 84
10, 228240, Note_on_c, 4, 56, 84
10, 228295, Note_on_c, 4, 58, 0
10, 228295, Note_on_c, 4, 56, 0
10, 228300, Note_on_c, 4, 58, 84
10, 228300, Note_on_c, 4, 56, 84
10, 228355, Note_on_c, 4, 58, 0
10, 228355, Note_on_c, 4, 56, 0
10, 228360, Note_on_c, 4, 65, 92
10, 228360, Note_on_c, 4, 58, 92
10, 228419, Note_on_c, 4, 65, 0
10, 228419, Note_on_c, 4, 58, 0
10, 228420, Note_on_c, 4, 58, 84
10, 228420, Note_on_c, 4, 56, 84
10, 228475, Note_on_c, 4, 58, 0
10, 228475, Note_on_c, 4, 56, 0
10, 228480, Note_on_c, 4, 58, 84
10, 228480, Note_on_c, 4, 56, 84
10, 228524, Note_on_c, 4, 58, 0
10, 228524, Note_on_c, 4, 56, 0
10, 228540, Note_on_c, 4, 58, 84
10, 228540, Note_on_c, 4, 56, 84
10, 228584, Note_on_c, 4, 58, 0
10, 228584, Note_on_c, 4, 56, 0
10, 228600, Note_on_c, 4, 58, 92
10, 228600, Note_on_c, 4, 55, 92
10, 228655, Note_on_c, 4, 58, 0
10, 228655, Note_on_c, 4, 55, 0
10, 228660, Note_on_c, 4, 58, 84
10, 228660, Note_on_c, 4, 55, 84
10, 228715, Note_on_c, 4, 58, 0
10, 228715, Note_on_c, 4, 55, 0
10, 228720, Note_on_c, 4, 58, 84
10, 228720, Note_on_c, 4, 55, 84
10, 228775, Note_on_c, 4, 58, 0
10, 228775, Note_on_c, 4, 55, 0
10, 228780, Note_on_c, 4, 58, 84
10, 228780, Note_on_c, 4, 55, 84
10, 228835, Note_on_c, 4, 58, 0
10, 228835, Note_on_c, 4, 55, 0
10, 228840, Note_on_c, 4, 58, 92
10, 228840, Note_on_c, 4, 56, 92
10, 228895, Note_on_c, 4, 58, 0
10, 228895, Note_on_c, 4, 56, 0
10, 228900, Note_on_c, 4, 58, 84
10, 228900, Note_on_c, 4, 56, 84
10, 228955, Note_on_c, 4, 58, 0
10, 228955, Note_on_c, 4, 56, 0
10, 228960, Note_on_c, 4, 58, 84
10, 228960, Note_on_c, 4, 56, 84
10, 229015, Note_on_c, 4, 58, 0
10, 229015, Note_on_c, 4, 56, 0
10, 229020, Note_on_c, 4, 58, 84
10, 229020, Note_on_c, 4, 56, 84
10, 229075, Note_on_c, 4, 58, 0
10, 229075, Note_on_c, 4, 56, 0
10, 229080, Note_on_c, 4, 58, 92
10, 229080, Note_on_c, 4, 55, 92
10, 229135, Note_on_c, 4, 58, 0
10, 229135, Note_on_c, 4, 55, 0
10, 229140, Note_on_c, 4, 58, 84
10, 229140, Note_on_c, 4, 55, 84
10, 229195, Note_on_c, 4, 58, 0
10, 229195, Note_on_c, 4, 55, 0
10, 229200, Note_on_c, 4, 58, 84
10, 229200, Note_on_c, 4, 55, 84
10, 229255, Note_on_c, 4, 58, 0
10, 229255, Note_on_c, 4, 55, 0
10, 229260, Note_on_c, 4, 58, 84
10, 229260, Note_on_c, 4, 55, 84
10, 229315, Note_on_c, 4, 58, 0
10, 229315, Note_on_c, 4, 55, 0
10, 229320, Note_on_c, 4, 58, 92
10, 229320, Note_on_c, 4, 56, 92
10, 229375, Note_on_c, 4, 58, 0
10, 229375, Note_on_c, 4, 56, 0
10, 229380, Note_on_c, 4, 58, 84
10, 229380, Note_on_c, 4, 56, 84
10, 229435, Note_on_c, 4, 58, 0
10, 229435, Note_on_c, 4, 56, 0
10, 229440, Note_on_c, 4, 58, 84
10, 229440, Note_on_c, 4, 56, 84
10, 229495, Note_on_c, 4, 58, 0
10, 229495, Note_on_c, 4, 56, 0
10, 229500, Note_on_c, 4, 58, 84
10, 229500, Note_on_c, 4, 56, 84
10, 229555, Note_on_c, 4, 58, 0
10, 229555, Note_on_c, 4, 56, 0
10, 229560, Note_on_c, 4, 58, 84
10, 229560, Note_on_c, 4, 55, 84
10, 229615, Note_on_c, 4, 58, 0
10, 229615, Note_on_c, 4, 55, 0
10, 229620, Note_on_c, 4, 51, 84
10, 229675, Note_on_c, 4, 51, 0
10, 229680, Note_on_c, 4, 53, 84
10, 229735, Note_on_c, 4, 53, 0
10, 229740, Note_on_c, 4, 55, 84
10, 229795, Note_on_c, 4, 55, 0
10, 229800, Note_on_c, 4, 56, 92
10, 229855, Note_on_c, 4, 56, 0
10, 229860, Note_on_c, 4, 55, 84
10, 229915, Note_on_c, 4, 55, 0
10, 229920, Note_on_c, 4, 56, 84
10, 229975, Note_on_c, 4, 56, 0
10, 229980, Note_on_c, 4, 57, 84
10, 230035, Note_on_c, 4, 57, 0
10, 230040, Note_on_c, 4, 58, 92
10, 230095, Note_on_c, 4, 58, 0
10, 230100, Note_on_c, 4, 57, 84
10, 230155, Note_on_c, 4, 57, 0
10, 230160, Note_on_c, 4, 58, 84
10, 230215, Note_on_c, 4, 58, 0
10, 230220, Note_on_c, 4, 59, 84
10, 230275, Note_on_c, 4, 59, 0
10, 230280, Note_on_c, 4, 60, 92
10, 230335, Note_on_c, 4, 60, 0
10, 230340, Note_on_c, 4, 59, 84
10, 230395, Note_on_c, 4, 59, 0
10, 230400, Note_on_c, 4, 60, 84
10, 230455, Note_on_c, 4, 60, 0
10, 230460, Note_on_c, 4, 62, 84
10, 230515, Note_on_c, 4, 62, 0
10, 230520, Note_on_c, 4, 63, 84
10, 230631, Note_on_c, 4, 63, 0
10, 230640, Note_on_c, 4, 60, 84
10, 230640, Note_on_c, 4, 48, 84
10, 230759, Note_on_c, 4, 60, 0
10, 230759, Note_on_c, 4, 48, 0
10, 230880, Note_on_c, 4, 56, 84
10, 230880, Note_on_c, 4, 44, 84
10, 230999, Note_on_c, 4, 56, 0
10, 230999, Note_on_c, 4, 44, 0
10, 231120, Note_on_c, 4, 53, 84
10, 231120, Note_on_c, 4, 41, 84
10, 231239, Note_on_c, 4, 53, 0
10, 231239, Note_on_c, 4, 41, 0
10, 231360, Note_on_c, 4, 58, 84
10, 231360, Note_on_c, 4, 46, 84
10, 231479, Note_on_c, 4, 58, 0
10, 231479, Note_on_c, 4, 46, 0
10, 231600, Note_on_c, 4, 60, 92
10, 231600, Note_on_c, 4, 48, 92
10, 231719, Note_on_c, 4, 60, 0
10, 231719, Note_on_c, 4, 48, 0
10, 231840, Note_on_c, 4, 56, 84
10, 231840, Note_on_c, 4, 44, 84
10, 231959, Note_on_c, 4, 56, 0
10, 231959, Note_on_c, 4, 44, 0
10, 232080, Note_on_c, 4, 53, 84
10, 232080, Note_on_c, 4, 41, 84
10, 232199, Note_on_c, 4, 53, 0
10, 232199, Note_on_c, 4, 41, 0
10, 232320, Note_on_c, 4, 58, 84
10, 232320, Note_on_c, 4, 46, 84
10, 232431, Note_on_c, 4, 58, 0
10, 232431, Note_on_c, 4, 46, 0
10, 232440, Note_on_c, 4, 51, 84
10, 232484, Note_on_c, 4, 51, 0
10, 232500, Note_on_c, 4, 46, 84
10, 232544, Note_on_c, 4, 46, 0
10, 232560, Note_on_c, 4, 51, 84
10, 232604, Note_on_c, 4, 51, 0
10, 232620, Note_on_c, 4, 46, 84
10, 232664, Note_on_c, 4, 46, 0
10, 232680, Note_on_c, 4, 51, 84
10, 232724, Note_on_c, 4, 51, 0
10, 232740, Note_on_c, 4, 46, 84
10, 232784, Note_on_c, 4, 46, 0
10, 232800, Note_on_c, 4, 55, 92
10, 232844, Note_on_c, 4, 55, 0
10, 232860, Note_on_c, 4, 51, 84
10, 232904, Note_on_c, 4, 51, 0
10, 232920, Note_on_c, 4, 55, 84
10, 232964, Note_on_c, 4, 55, 0
10, 232980, Note_on_c, 4, 51, 84
10, 233024, Note_on_c, 4, 51, 0
10, 233040, Note_on_c, 4, 55, 84
10, 233084, Note_on_c, 4, 55, 0
10, 233100, Note_on_c, 4, 51, 84
10, 233144, Note_on_c, 4, 51, 0
10, 233160, Note_on_c, 4, 55, 84
10, 233204, Note_on_c, 4, 55, 0
10, 233220, Note_on_c, 4, 51, 84
10, 233264, Note_on_c, 4, 51, 0
10, 233280, Note_on_c, 4, 58, 92
10, 233280, Note_on_c, 4, 46, 92
10, 233324, Note_on_c, 4, 58, 0
10, 233324, Note_on_c, 4, 46, 0
10, 233340, Note_on_c, 4, 55, 84
10, 233340, Note_on_c, 4, 43, 84
10, 233384, Note_on_c, 4, 55, 0
10, 233384, Note_on_c, 4, 43, 0
10, 233400, Note_on_c, 4, 58, 84
10, 233400, Note_on_c, 4, 46, 84
10, 233444, Note_on_c, 4, 58, 0
10, 233444, Note_on_c, 4, 46, 0
10, 233460, Note_on_c, 4, 55, 84
10, 233460, Note_on_c, 4, 43, 84
10, 233504, Note_on_c, 4, 55, 0
10, 233504, Note_on_c, 4, 43, 0
10, 233520, Note_on_c, 4, 51, 92
10, 233564, Note_on_c, 4, 51, 0
10, 233580, Note_on_c, 4, 46, 84
10, 233624, Note_on_c, 4, 46, 0
10, 233640, Note_on_c, 4, 51, 84
10, 233684, Note_on_c, 4, 51, 0
10, 233700, Note_on_c, 4, 46, 84
10, 233744, Note_on_c, 4, 46, 0
10, 233760, Note_on_c, 4, 55, 92
10, 233804, Note_on_c, 4, 55, 0
10, 233820, Note_on_c, 4, 51, 84
10, 233864, Note_on_c, 4, 51, 0
10, 233880, Note_on_c, 4, 55, 84
10, 233924, Note_on_c, 4, 55, 0
10, 233940, Note_on_c, 4, 51, 84
10, 233984, Note_on_c, 4, 51, 0
10, 234000, Note_on_c, 4, 58, 92
10, 234044, Note_on_c, 4, 58, 0
10, 234060, Note_on_c, 4, 55, 84
10, 234104, Note_on_c, 4, 55, 0
10, 234120, Note_on_c, 4, 58, 84
10, 234164, Note_on_c, 4, 58, 0
10, 234180, Note_on_c, 4, 55, 84
10, 234224, Note_on_c, 4, 55, 0
10, 234240, Note_on_c, 4, 63, 92
10, 234284, Note_on_c, 4, 63, 0
10, 234300, Note_on_c, 4, 58, 84
10, 234344, Note_on_c, 4, 58, 0
10, 234360, Note_on_c, 4, 63, 84
10, 234404, Note_on_c, 4, 63, 0
10, 234420, Note_on_c, 4, 63, 84
10, 234464, Note_on_c, 4, 63, 0
10, 234480, Note_on_c, 4, 62, 84
10, 234524, Note_on_c, 4, 62, 0
10, 234540, Note_on_c, 4, 60, 84
10, 234584, Note_on_c, 4, 60, 0
10, 234600, Note_on_c, 4, 58, 85
10, 234644, Note_on_c, 4, 58, 0
10, 234660, Note_on_c, 4, 56, 85
10, 234704, Note_on_c, 4, 56, 0
10, 234720, Note_on_c, 4, 55, 85
10, 234764, Note_on_c, 4, 55, 0
10, 234780, Note_on_c, 4, 53, 85
10, 234824, Note_on_c, 4, 53, 0
10, 234840, Note_on_c, 4, 51, 86
10, 234884, Note_on_c, 4, 51, 0
10, 234900, Note_on_c, 4, 51, 86
10, 234944, Note_on_c, 4, 51, 0
10, 234960, Note_on_c, 4, 50, 86
10, 235004, Note_on_c, 4, 50, 0
10, 235020, Note_on_c, 4, 48, 86
10, 235064, Note_on_c, 4, 48, 0
10, 235080, Note_on_c, 4, 46, 87
10, 235124, Note_on_c, 4, 46, 0
10, 235140, Note_on_c, 4, 44, 87
10, 235184, Note_on_c, 4, 44, 0
10, 235200, Note_on_c, 4, 43, 87
10, 235244, Note_on_c, 4, 43, 0
10, 235260, Note_on_c, 4, 41, 87
10, 235304, Note_on_c, 4, 41, 0
10, 235320, Note_on_c, 4, 39, 88
10, 235364, Note_on_c, 4, 39, 0
10, 235380, Note_on_c, 4, 39, 88
10, 235424, Note_on_c, 4, 39, 0
10, 235440, Note_on_c, 4, 41, 88
10, 235484, Note_on_c, 4, 41, 0
10, 235500, Note_on_c, 4, 43, 88
10, 235544, Note_on_c, 4, 43, 0
10, 235560, Note_on_c, 4, 44, 89
10, 235604, Note_on_c, 4, 44, 0
10, 235620, Note_on_c, 4, 46, 89
10, 235664, Note_on_c, 4, 46, 0
10, 235680, Note_on_c, 4, 48, 89
10, 235724, Note_on_c, 4, 48, 0
10, 235740, Note_on_c, 4, 50, 89
10, 235784, Note_on_c, 4, 50, 0
10, 235800, Note_on_c, 4, 51, 90
10, 235844, Note_on_c, 4, 51, 0
10, 235860, Note_on_c, 4, 51, 90
10, 235904, Note_on_c, 4, 51, 0
10, 235920, Note_on_c, 4, 53, 90
10, 235964, Note_on_c, 4, 53, 0
10, 235980, Note_on_c, 4, 55, 90
10, 236024, Note_on_c, 4, 55, 0
10, 236040, Note_on_c, 4, 56, 91
10, 236084, Note_on_c, 4, 56, 0
10, 236100, Note_on_c, 4, 58, 91
10, 236144, Note_on_c, 4, 58, 0
10, 236160, Note_on_c, 4, 60, 91
10, 236204, Note_on_c, 4, 60, 0
10, 236220, Note_on_c, 4, 62, 91
10, 236264, Note_on_c, 4, 62, 0
10, 236280, Note_on_c, 4, 63, 84
10, 236519, Note_on_c, 4, 63, 0
10, 236760, Note_on_c, 4, 58, 84
10, 236760, Note_on_c, 4, 55, 84
10, 236999, Note_on_c, 4, 58, 0
10, 236999, Note_on_c, 4, 55, 0
10, 237240, Note_on_c, 4, 58, 84
10, 237240, Note_on_c, 4, 55, 84
10, 237359, Note_on_c, 4, 58, 0
10, 237359, Note_on_c, 4, 55, 0
10, 237480, Note_on_c, 4, 58, 84
10, 237480, Note_on_c, 4, 55, 84
10, 237599, Note_on_c, 4, 58, 0
10, 237599, Note_on_c, 4, 55, 0
10, 237720, Note_on_c, 4, 58, 84
10, 237720, Note_on_c, 4, 55, 84
10, 237839, Note_on_c, 4, 58, 0
10, 237839, Note_on_c, 4, 55, 0
10, 237960, Note_on_c, 4, 58, 84
10, 237960, Note_on_c, 4, 55, 84
10, 238079, Note_on_c, 4, 58, 0
10, 238079, Note_on_c, 4, 55, 0
10, 238200, Note_on_c, 4, 58, 84
10, 238200, Note_on_c, 4, 55, 84
10, 238319, Note_on_c, 4, 58, 0
10, 238319, Note_on_c, 4, 55, 0
10, 238680, Note_on_c, 4, 63, 84
10, 238680, Note_on_c, 4, 51, 84
10, 238799, Note_on_c, 4, 63, 0
10, 238799, Note_on_c, 4, 51, 0
10, 239160, Note_on_c, 4, 63, 84
10, 239160, Note_on_c, 4, 51, 84
10, 239279, Note_on_c, 4, 63, 0
10, 239279, Note_on_c, 4, 51, 0
10, 239400, Note_on_c, 4, 63, 84
10, 239400, Note_on_c, 4, 51, 84
10, 239519, Note_on_c, 4, 63, 0
10, 239519, Note_on_c, 4, 51, 0
10, 239640, Note_on_c, 4, 63, 84
10, 239640, Note_on_c, 4, 51, 84
10, 239759, Note_on_c, 4, 63, 0
10, 239759, Note_on_c, 4, 51, 0
10, 239880, Note_on_c, 4, 63, 84
10, 239880, Note_on_c, 4, 51, 84
10, 239999, Note_on_c, 4, 63, 0
10, 239999, Note_on_c, 4, 51, 0
10, 240120, Note_on_c, 4, 63, 84
10, 240120, Note_on_c, 4, 51, 84
10, 240175, Note_on_c, 4, 63, 0
10, 240175, Note_on_c, 4, 51, 0
10, 240180, Note_on_c, 4, 51, 84
10, 240235, Note_on_c, 4, 51, 0
10, 240240, Note_on_c, 4, 53, 84
10, 240295, Note_on_c, 4, 53, 0
10, 240300, Note_on_c, 4, 55, 84
10, 240355, Note_on_c, 4, 55, 0
10, 240360, Note_on_c, 4, 56, 84
10, 240415, Note_on_c, 4, 56, 0
10, 240420, Note_on_c, 4, 58, 84
10, 240475, Note_on_c, 4, 58, 0
10, 240480, Note_on_c, 4, 60, 84
10, 240535, Note_on_c, 4, 60, 0
10, 240540, Note_on_c, 4, 62, 84
10, 240595, Note_on_c, 4, 62, 0
10, 240600, Note_on_c, 4, 63, 84
10, 240655, Note_on_c, 4, 63, 0
10, 240660, Note_on_c, 4, 51, 84
10, 240715, Note_on_c, 4, 51, 0
10, 240720, Note_on_c, 4, 53, 84
10, 240775, Note_on_c, 4, 53, 0
10, 240780, Note_on_c, 4, 55, 84
10, 240835, Note_on_c, 4, 55, 0
10, 240840, Note_on_c, 4, 56, 84
10, 240895, Note_on_c, 4, 56, 0
10, 240900, Note_on_c, 4, 58, 84
10, 240955, Note_on_c, 4, 58, 0
10, 240960, Note_on_c, 4, 60, 84
10, 241015, Note_on_c, 4, 60, 0
10, 241020, Note_on_c, 4, 62, 84
10, 241075, Note_on_c, 4, 62, 0
10, 241080, Note_on_c, 4, 63, 84
10, 241080, Note_on_c, 4, 51, 84
10, 241199, Note_on_c, 4, 63, 0
10, 241199, Note_on_c, 4, 51, 0
10, 241560, Note_on_c, 4, 63, 84
10, 241560, Note_on_c, 4, 51, 84
10, 241679, Note_on_c, 4, 63, 0
10, 241679, Note_on_c, 4, 51, 0
10, 242040, Note_on_c, 4, 63, 84
10, 242040, Note_on_c, 4, 51, 84
10, 242279, Note_on_c, 4, 63, 0
10, 242279, Note_on_c, 4, 51, 0
10, 242279, End_track
11, 0, Start_track
11, 0, Title_t, "French Horn I in F"
11, 0, MIDI_port, 0
11, 0, Program_c, 5, 60
11, 0, Control_c, 5, 7, 96
11, 0, Control_c, 5, 10, 45
11, 0, Control_c, 5, 11, 127
11, 144600, Note_on_c, 5, 65, 52
11, 145064, Note_on_c, 5, 65, 0
11, 145080, Note_on_c, 5, 72, 52
11, 145544, Note_on_c, 5, 72, 0
11, 145560, Note_on_c, 5, 60, 52
11, 146024, Note_on_c, 5, 60, 0
11, 146040, Note_on_c, 5, 65, 52
11, 146279, Note_on_c, 5, 65, 0
11, 146279, End_track
12, 0, Start_track
12, 0, Title_t, "French Horn I and II in E-flat"
12, 0, MIDI_port, 0
12, 0, Program_c, 6, 60
12, 0, Control_c, 6, 7, 96
12, 0, Control_c, 6, 10, 45
12, 0, Control_c, 6, 11, 127
12, 3000, Note_on_c, 6, 46, 84
12, 3000, Note_on_c, 6, 65, 84
12, 3239, Note_on_c, 6, 46, 0
12, 3239, Note_on_c, 6, 65, 0
12, 3480, Note_on_c, 6, 46, 84
12, 3480, Note_on_c, 6, 65, 84
12, 3659, Note_on_c, 6, 46, 0
12, 3659, Note_on_c, 6, 65, 0
12, 3720, Note_on_c, 6, 46, 84
12, 3720, Note_on_c, 6, 65, 84
12, 3899, Note_on_c, 6, 46, 0
12, 3899, Note_on_c, 6, 65, 0
12, 3960, Note_on_c, 6, 46, 84
12, 3960, Note_on_c, 6, 65, 84
12, 4139, Note_on_c, 6, 46, 0
12, 4139, Note_on_c, 6, 65, 0
12, 4200, Note_on_c, 6, 65, 92
12, 4200, Note_on_c, 6, 46, 92
12, 4379, Note_on_c, 6, 65, 0
12, 4379, Note_on_c, 6, 46, 0
12, 4680, Note_on_c, 6, 68, 92
12, 4680, Note_on_c, 6, 46, 92
12, 4904, Note_on_c, 6, 68, 0
12, 4904, Note_on_c, 6, 46, 0
12, 4920, Note_on_c, 6, 68, 92
12, 4920, Note_on_c, 6, 46, 92
12, 5399, Note_on_c, 6, 68, 0
12, 5399, Note_on_c, 6, 46, 0
12, 13560, Note_on_c, 6, 58, 84
12, 13560, Note_on_c, 6, 46, 84
12, 13649, Note_on_c, 6, 58, 0
12, 13649, Note_on_c, 6, 46, 0
12, 13680, Note_on_c, 6, 46, 84
12, 13680, Note_on_c, 6, 58, 84
12, 13769, Note_on_c, 6, 46, 0
12, 13769, Note_on_c, 6, 58, 0
12, 13800, Note_on_c, 6, 46, 84
12, 13800, Note_on_c, 6, 58, 84
12, 13889, Note_on_c, 6, 46, 0
12, 13889, Note_on_c, 6, 58, 0
12, 14520, Note_on_c, 6, 58, 52
12, 14520, Note_on_c, 6, 46, 52
12, 14879, Note_on_c, 6, 58, 0
12, 14879, Note_on_c, 6, 46, 0
12, 17400, Note_on_c, 6, 46, 84
12, 17400, Note_on_c, 6, 58, 84
12, 17489, Note_on_c, 6, 46, 0
12, 17489, Note_on_c, 6, 58, 0
12, 17520, Note_on_c, 6, 46, 84
12, 17520, Note_on_c, 6, 58, 84
12, 17609, Note_on_c, 6, 46, 0
12, 17609, Note_on_c, 6, 58, 0
12, 17640, Note_on_c, 6, 46, 84
12, 17640, Note_on_c, 6, 58, 84
12, 17729, Note_on_c, 6, 46, 0
12, 17729, Note_on_c, 6, 58, 0
12, 18360, Note_on_c, 6, 46, 52
12, 18360, Note_on_c, 6, 58, 52
12, 18719, Note_on_c, 6, 46, 0
12, 18719, Note_on_c, 6, 58, 0
12, 51480, Note_on_c, 6, 51, 52
12, 51480, Note_on_c, 6, 63, 52
12, 51944, Note_on_c, 6, 51, 0
12, 51944, Note_on_c, 6, 63, 0
12, 51960, Note_on_c, 6, 58, 52
12, 51960, Note_on_c, 6, 70, 52
12, 52424, Note_on_c, 6, 58, 0
12, 52424, Note_on_c, 6, 70, 0
12, 52440, Note_on_c, 6, 58, 52
12, 52440, Note_on_c, 6, 46, 52
12, 52904, Note_on_c, 6, 58, 0
12, 52904, Note_on_c, 6, 46, 0
12, 52920, Note_on_c, 6, 51, 52
12, 52920, Note_on_c, 6, 63, 52
12, 53384, Note_on_c, 6, 51, 0
12, 53384, Note_on_c, 6, 63, 0
12, 53392, Control_c, 6, 11, 96
12, 53400, Note_on_c, 6, 63, 68
12, 53400, Note_on_c, 6, 55, 68
12, 53400, Control_c, 6, 11, 96
12, 53440, Control_c, 6, 11, 99
12, 53480, Control_c, 6, 11, 101
12, 53520, Control_c, 6, 11, 104
12, 53560, Control_c, 6, 11, 106
12, 53600, Control_c, 6, 11, 109
12, 53624, Note_on_c, 6, 63, 0
12, 53624, Note_on_c, 6, 55, 0
12, 53640, Note_on_c, 6, 65, 68
12, 53640, Note_on_c, 6, 58, 68
12, 53640, Control_c, 6, 11, 112
12, 53680, Control_c, 6, 11, 114
12, 53720, Control_c, 6, 11, 117
12, 53760, Control_c, 6, 11, 119
12, 53800, Control_c, 6, 11, 122
12, 53840, Control_c, 6, 11, 127
12, 53864, Note_on_c, 6, 65, 0
12, 53864, Note_on_c, 6, 58, 0
12, 53880, Note_on_c, 6, 63, 76
12, 53880, Control_c, 6, 11, 127
12, 53880, Note_on_c, 6, 55, 76
12, 54224, Note_on_c, 6, 63, 0
12, 54224, Note_on_c, 6, 55, 0
12, 54240, Note_on_c, 6, 67, 68
12, 54240, Note_on_c, 6, 58, 68
12, 54329, Note_on_c, 6, 67, 0
12, 54329, Note_on_c, 6, 58, 0
12, 54360, Note_on_c, 6, 68, 68
12, 54360, Note_on_c, 6, 58, 68
12, 54449, Note_on_c, 6, 68, 0
12, 54449, Note_on_c, 6, 58, 0
12, 54480, Note_on_c, 6, 58, 64
12, 54480, Note_on_c, 6, 65, 64
12, 54569, Note_on_c, 6, 58, 0
12, 54569, Note_on_c, 6, 65, 0
12, 54600, Note_on_c, 6, 63, 60
12, 54600, Note_on_c, 6, 67, 60
12, 54689, Note_on_c, 6, 63, 0
12, 54689, Note_on_c, 6, 67, 0
12, 54720, Note_on_c, 6, 51, 56
12, 54720, Note_on_c, 6, 63, 56
12, 54809, Note_on_c, 6, 51, 0
12, 54809, Note_on_c, 6, 63, 0
12, 54840, Note_on_c, 6, 67, 52
12, 54840, Note_on_c, 6, 51, 52
12, 55079, Note_on_c, 6, 67, 0
12, 55079, Note_on_c, 6, 51, 0
12, 55080, Note_on_c, 6, 46, 52
12, 55080, Note_on_c, 6, 65, 52
12, 55199, Note_on_c, 6, 46, 0
12, 55199, Note_on_c, 6, 65, 0
12, 55440, Note_on_c, 6, 58, 76
12, 55440, Note_on_c, 6, 46, 76
12, 55529, Note_on_c, 6, 58, 0
12, 55529, Note_on_c, 6, 46, 0
12, 55560, Note_on_c, 6, 58, 76
12, 55560, Note_on_c, 6, 46, 76
12, 55649, Note_on_c, 6, 58, 0
12, 55649, Note_on_c, 6, 46, 0
12, 55680, Note_on_c, 6, 46, 76
12, 55680, Note_on_c, 6, 58, 76
12, 55769, Note_on_c, 6, 46, 0
12, 55769, Note_on_c, 6, 58, 0
12, 55920, Note_on_c, 6, 46, 76
12, 55920, Note_on_c, 6, 58, 76
12, 56009, Note_on_c, 6, 46, 0
12, 56009, Note_on_c, 6, 58, 0
12, 56040, Note_on_c, 6, 58, 76
12, 56040, Note_on_c, 6, 46, 76
12, 56129, Note_on_c, 6, 58, 0
12, 56129, Note_on_c, 6, 46, 0
12, 56160, Note_on_c, 6, 46, 76
12, 56160, Note_on_c, 6, 58, 76
12, 56249, Note_on_c, 6, 46, 0
12, 56249, Note_on_c, 6, 58, 0
12, 56400, Note_on_c, 6, 58, 76
12, 56400, Note_on_c, 6, 46, 76
12, 56489, Note_on_c, 6, 58, 0
12, 56489, Note_on_c, 6, 46, 0
12, 56520, Note_on_c, 6, 46, 76
12, 56520, Note_on_c, 6, 58, 76
12, 56609, Note_on_c, 6, 46, 0
12, 56609, Note_on_c, 6, 58, 0
12, 56640, Note_on_c, 6, 58, 76
12, 56640, Note_on_c, 6, 46, 76
12, 56729, Note_on_c, 6, 58, 0
12, 56729, Note_on_c, 6, 46, 0
12, 56880, Note_on_c, 6, 46, 76
12, 56880, Note_on_c, 6, 58, 76
12, 56969, Note_on_c, 6, 46, 0
12, 56969, Note_on_c, 6, 58, 0
12, 57000, Note_on_c, 6, 46, 76
12, 57000, Note_on_c, 6, 58, 76
12, 57089, Note_on_c, 6, 46, 0
12, 57089, Note_on_c, 6, 58, 0
12, 57120, Note_on_c, 6, 46, 76
12, 57120, Note_on_c, 6, 58, 76
12, 57209, Note_on_c, 6, 46, 0
12, 57209, Note_on_c, 6, 58, 0
12, 57240, Note_on_c, 6, 63, 76
12, 57240, Note_on_c, 6, 55, 76
12, 57344, Note_on_c, 6, 63, 0
12, 57344, Note_on_c, 6, 55, 0
12, 57360, Note_on_c, 6, 55, 76
12, 57360, Note_on_c, 6, 63, 76
12, 57464, Note_on_c, 6, 55, 0
12, 57464, Note_on_c, 6, 63, 0
12, 57480, Note_on_c, 6, 65, 76
12, 57480, Note_on_c, 6, 58, 76
12, 57584, Note_on_c, 6, 65, 0
12, 57584, Note_on_c, 6, 58, 0
12, 57600, Note_on_c, 6, 65, 76
12, 57600, Note_on_c, 6, 58, 76
12, 57704, Note_on_c, 6, 65, 0
12, 57704, Note_on_c, 6, 58, 0
12, 57720, Note_on_c, 6, 55, 84
12, 57720, Note_on_c, 6, 63, 84
12, 57839, Note_on_c, 6, 55, 0
12, 57839, Note_on_c, 6, 63, 0
12, 58080, Note_on_c, 6, 67, 76
12, 58184, Note_on_c, 6, 67, 0
12, 58200, Note_on_c, 6, 65, 76
12, 58200, Note_on_c, 6, 68, 76
12, 58304, Note_on_c, 6, 65, 0
12, 58304, Note_on_c, 6, 68, 0
12, 58320, Note_on_c, 6, 46, 76
12, 58320, Note_on_c, 6, 65, 76
12, 58424, Note_on_c, 6, 46, 0
12, 58424, Note_on_c, 6, 65, 0
12, 58440, Note_on_c, 6, 67, 76
12, 58440, Note_on_c, 6, 51, 76
12, 58544, Note_on_c, 6, 67, 0
12, 58544, Note_on_c, 6, 51, 0
12, 58560, Note_on_c, 6, 51, 76
12, 58560, Note_on_c, 6, 63, 76
12, 58664, Note_on_c, 6, 51, 0
12, 58664, Note_on_c, 6, 63, 0
12, 58680, Note_on_c, 6, 51, 76
12, 58680, Note_on_c, 6, 67, 76
12, 58919, Note_on_c, 6, 51, 0
12, 58919, Note_on_c, 6, 67, 0
12, 58920, Note_on_c, 6, 46, 76
12, 58920, Note_on_c, 6, 65, 76
12, 59039, Note_on_c, 6, 46, 0
12, 59039, Note_on_c, 6, 65, 0
12, 59640, Note_on_c, 6, 65, 76
12, 59640, Note_on_c, 6, 58, 76
12, 59729, Note_on_c, 6, 65, 0
12, 59729, Note_on_c, 6, 58, 0
12, 59760, Note_on_c, 6, 65, 76
12, 59760, Note_on_c, 6, 58, 76
12, 59849, Note_on_c, 6, 65, 0
12, 59849, Note_on_c, 6, 58, 0
12, 59880, Note_on_c, 6, 58, 76
12, 59880, Note_on_c, 6, 65, 76
12, 59969, Note_on_c, 6, 58, 0
12, 59969, Note_on_c, 6, 65, 0
12, 60600, Note_on_c, 6, 58, 52
12, 60600, Note_on_c, 6, 65, 52
12, 60959, Note_on_c, 6, 58, 0
12, 60959, Note_on_c, 6, 65, 0
12, 61080, Note_on_c, 6, 63, 52
12, 61544, Note_on_c, 6, 63, 0
12, 61560, Note_on_c, 6, 63, 52
12, 61560, Note_on_c, 6, 65, 52
12, 62024, Note_on_c, 6, 63, 0
12, 62024, Note_on_c, 6, 65, 0
12, 62040, Note_on_c, 6, 67, 52
12, 62040, Note_on_c, 6, 63, 52
12, 62144, Note_on_c, 6, 67, 0
12, 62144, Note_on_c, 6, 63, 0
12, 62160, Note_on_c, 6, 55, 52
12, 62160, Note_on_c, 6, 63, 52
12, 62264, Note_on_c, 6, 55, 0
12, 62264, Note_on_c, 6, 63, 0
12, 62280, Note_on_c, 6, 58, 52
12, 62280, Note_on_c, 6, 65, 52
12, 62384, Note_on_c, 6, 58, 0
12, 62384, Note_on_c, 6, 65, 0
12, 62400, Note_on_c, 6, 58, 52
12, 62400, Note_on_c, 6, 65, 52
12, 62504, Note_on_c, 6, 58, 0
12, 62504, Note_on_c, 6, 65, 0
12, 62520, Note_on_c, 6, 63, 52
12, 62520, Note_on_c, 6, 55, 52
12, 62639, Note_on_c, 6, 63, 0
12, 62639, Note_on_c, 6, 55, 0
12, 63120, Note_on_c, 6, 70, 76
12, 63120, Note_on_c, 6, 46, 76
12, 63209, Note_on_c, 6, 70, 0
12, 63209, Note_on_c, 6, 46, 0
12, 63240, Note_on_c, 6, 70, 76
12, 63240, Note_on_c, 6, 46, 76
12, 63329, Note_on_c, 6, 70, 0
12, 63329, Note_on_c, 6, 46, 0
12, 63360, Note_on_c, 6, 46, 76
12, 63360, Note_on_c, 6, 70, 76
12, 63449, Note_on_c, 6, 46, 0
12, 63449, Note_on_c, 6, 70, 0
12, 63480, Note_on_c, 6, 46, 76
12, 63480, Note_on_c, 6, 70, 76
12, 63584, Note_on_c, 6, 46, 0
12, 63584, Note_on_c, 6, 70, 0
12, 63600, Note_on_c, 6, 70, 76
12, 63600, Note_on_c, 6, 46, 76
12, 63704, Note_on_c, 6, 70, 0
12, 63704, Note_on_c, 6, 46, 0
12, 63720, Note_on_c, 6, 70, 76
12, 63720, Note_on_c, 6, 46, 76
12, 63839, Note_on_c, 6, 70, 0
12, 63839, Note_on_c, 6, 46, 0
12, 64080, Note_on_c, 6, 46, 76
12, 64080, Note_on_c, 6, 70, 76
12, 64184, Note_on_c, 6, 46, 0
12, 64184, Note_on_c, 6, 70, 0
12, 64200, Note_on_c, 6, 70, 76
12, 64200, Note_on_c, 6, 46, 76
12, 64304, Note_on_c, 6, 70, 0
12, 64304, Note_on_c, 6, 46, 0
12, 64320, Note_on_c, 6, 46, 76
12, 64320, Note_on_c, 6, 70, 76
12, 64424, Note_on_c, 6, 46, 0
12, 64424, Note_on_c, 6, 70, 0
12, 64440, Note_on_c, 6, 46, 76
12, 64440, Note_on_c, 6, 70, 76
12, 64799, Note_on_c, 6, 46, 0
12, 64799, Note_on_c, 6, 70, 0
12, 65040, Note_on_c, 6, 51, 76
12, 65040, Note_on_c, 6, 63, 76
12, 65129, Note_on_c, 6, 51, 0
12, 65129, Note_on_c, 6, 63, 0
12, 65160, Note_on_c, 6, 51, 76
12, 65160, Note_on_c, 6, 63, 76
12, 65249, Note_on_c, 6, 51, 0
12, 65249, Note_on_c, 6, 63, 0
12, 65280, Note_on_c, 6, 63, 76
12, 65280, Note_on_c, 6, 51, 76
12, 65369, Note_on_c, 6, 63, 0
12, 65369, Note_on_c, 6, 51, 0
12, 65520, Note_on_c, 6, 65, 76
12, 65520, Note_on_c, 6, 51, 76
12, 65624, Note_on_c, 6, 65, 0
12, 65624, Note_on_c, 6, 51, 0
12, 65640, Note_on_c, 6, 51, 76
12, 65640, Note_on_c, 6, 65, 76
12, 65744, Note_on_c, 6, 51, 0
12, 65744, Note_on_c, 6, 65, 0
12, 65760, Note_on_c, 6, 65, 76
12, 65760, Note_on_c, 6, 51, 76
12, 65864, Note_on_c, 6, 65, 0
12, 65864, Note_on_c, 6, 51, 0
12, 65880, Note_on_c, 6, 51, 76
12, 65880, Note_on_c, 6, 67, 76
12, 65984, Note_on_c, 6, 51, 0
12, 65984, Note_on_c, 6, 67, 0
12, 66000, Note_on_c, 6, 46, 76
12, 66000, Note_on_c, 6, 67, 76
12, 66104, Note_on_c, 6, 46, 0
12, 66104, Note_on_c, 6, 67, 0
12, 66120, Note_on_c, 6, 46, 76
12, 66120, Note_on_c, 6, 65, 76
12, 66224, Note_on_c, 6, 46, 0
12, 66224, Note_on_c, 6, 65, 0
12, 66240, Note_on_c, 6, 65, 76
12, 66240, Note_on_c, 6, 46, 76
12, 66344, Note_on_c, 6, 65, 0
12, 66344, Note_on_c, 6, 46, 0
12, 66360, Note_on_c, 6, 51, 76
12, 66360, Note_on_c, 6, 63, 76
12, 66479, Note_on_c, 6, 51, 0
12, 66479, Note_on_c, 6, 63, 0
12, 70200, Note_on_c, 6, 67, 84
12, 70200, Note_on_c, 6, 55, 84
12, 70379, Note_on_c, 6, 67, 0
12, 70379, Note_on_c, 6, 55, 0
12, 70440, Note_on_c, 6, 67, 84
12, 70440, Note_on_c, 6, 55, 84
12, 70619, Note_on_c, 6, 67, 0
12, 70619, Note_on_c, 6, 55, 0
12, 70680, Note_on_c, 6, 55, 84
12, 70680, Note_on_c, 6, 67, 84
12, 70859, Note_on_c, 6, 55, 0
12, 70859, Note_on_c, 6, 67, 0
12, 90120, Note_on_c, 6, 58, 84
12, 90120, Note_on_c, 6, 70, 84
12, 90569, Note_on_c, 6, 58, 0
12, 90569, Note_on_c, 6, 70, 0
12, 90600, Note_on_c, 6, 51, 76
12, 90600, Note_on_c, 6, 63, 76
12, 90839, Note_on_c, 6, 51, 0
12, 90839, Note_on_c, 6, 63, 0
12, 91800, Note_on_c, 6, 51, 76
12, 91800, Note_on_c, 6, 63, 76
12, 92264, Note_on_c, 6, 51, 0
12, 92264, Note_on_c, 6, 63, 0
12, 92280, Note_on_c, 6, 70, 76
12, 92280, Note_on_c, 6, 58, 76
12, 92504, Note_on_c, 6, 70, 0
12, 92504, Note_on_c, 6, 58, 0
12, 92520, Note_on_c, 6, 58, 76
12, 92520, Note_on_c, 6, 46, 76
12, 92759, Note_on_c, 6, 58, 0
12, 92759, Note_on_c, 6, 46, 0
12, 123960, Note_on_c, 6, 55, 76
12, 124424, Note_on_c, 6, 55, 0
12, 124440, Note_on_c, 6, 55, 76
12, 124904, Note_on_c, 6, 55, 0
12, 124920, Note_on_c, 6, 55, 76
12, 125144, Note_on_c, 6, 55, 0
12, 125160, Note_on_c, 6, 55, 76
12, 125384, Note_on_c, 6, 55, 0
12, 125400, Note_on_c, 6, 55, 76
12, 125759, Note_on_c, 6, 55, 0
12, 127800, Note_on_c, 6, 55, 76
12, 128264, Note_on_c, 6, 55, 0
12, 128280, Note_on_c, 6, 55, 76
12, 128744, Note_on_c, 6, 55, 0
12, 128760, Note_on_c, 6, 55, 76
12, 128924, Note_on_c, 6, 55, 0
12, 128940, Note_on_c, 6, 55, 76
12, 128984, Note_on_c, 6, 55, 0
12, 129000, Note_on_c, 6, 55, 76
12, 129164, Note_on_c, 6, 55, 0
12, 129180, Note_on_c, 6, 55, 76
12, 129224, Note_on_c, 6, 55, 0
12, 129240, Note_on_c, 6, 55, 76
12, 129599, Note_on_c, 6, 55, 0
12, 135000, Note_on_c, 6, 55, 76
12, 135239, Note_on_c, 6, 55, 0
12, 135480, Note_on_c, 6, 55, 76
12, 135719, Note_on_c, 6, 55, 0
12, 135960, Note_on_c, 6, 55, 76
12, 136199, Note_on_c, 6, 55, 0
12, 136440, Note_on_c, 6, 55, 76
12, 136679, Note_on_c, 6, 55, 0
12, 136920, Note_on_c, 6, 55, 76
12, 137159, Note_on_c, 6, 55, 0
12, 137400, Note_on_c, 6, 55, 76
12, 137639, Note_on_c, 6, 55, 0
12, 137880, Note_on_c, 6, 55, 52
12, 140744, Note_on_c, 6, 55, 0
12, 140752, Control_c, 6, 11, 96
12, 140760, Control_c, 6, 11, 96
12, 140760, Note_on_c, 6, 55, 68
12, 140800, Control_c, 6, 11, 99
12, 140840, Control_c, 6, 11, 101
12, 140880, Control_c, 6, 11, 104
12, 140920, Control_c, 6, 11, 106
12, 140960, Control_c, 6, 11, 109
12, 140984, Note_on_c, 6, 55, 0
12, 141000, Note_on_c, 6, 55, 68
12, 141000, Control_c, 6, 11, 112
12, 141040, Control_c, 6, 11, 114
12, 141080, Control_c, 6, 11, 117
12, 141120, Control_c, 6, 11, 119
12, 141160, Control_c, 6, 11, 122
12, 141200, Control_c, 6, 11, 127
12, 141224, Note_on_c, 6, 55, 0
12, 141240, Note_on_c, 6, 55, 76
12, 141300, Control_c, 6, 11, 112
12, 141335, Control_c, 6, 11, 109
12, 141370, Control_c, 6, 11, 107
12, 141405, Control_c, 6, 11, 104
12, 141440, Control_c, 6, 11, 101
12, 141475, Control_c, 6, 11, 99
12, 141510, Control_c, 6, 11, 96
12, 141545, Control_c, 6, 11, 93
12, 141580, Control_c, 6, 11, 91
12, 141615, Control_c, 6, 11, 88
12, 141650, Control_c, 6, 11, 85
12, 141685, Control_c, 6, 11, 80
12, 141824, Note_on_c, 6, 55, 0
12, 141840, Note_on_c, 6, 55, 76
12, 142064, Note_on_c, 6, 55, 0
12, 142080, Note_on_c, 6, 55, 76
12, 142184, Note_on_c, 6, 55, 0
12, 142200, Note_on_c, 6, 55, 76
12, 142559, Note_on_c, 6, 55, 0
12, 147000, Control_c, 6, 11, 127
12, 147480, Note_on_c, 6, 46, 52
12, 147944, Note_on_c, 6, 46, 0
12, 147960, Note_on_c, 6, 51, 52
12, 148079, Note_on_c, 6, 51, 0
12, 160560, Note_on_c, 6, 51, 76
12, 160649, Note_on_c, 6, 51, 0
12, 160680, Note_on_c, 6, 55, 84
12, 161024, Note_on_c, 6, 55, 0
12, 161040, Note_on_c, 6, 51, 76
12, 161129, Note_on_c, 6, 51, 0
12, 161160, Note_on_c, 6, 46, 76
12, 161489, Note_on_c, 6, 46, 0
12, 161520, Note_on_c, 6, 58, 76
12, 161609, Note_on_c, 6, 58, 0
12, 161640, Note_on_c, 6, 65, 76
12, 161729, Note_on_c, 6, 65, 0
12, 161760, Note_on_c, 6, 46, 76
12, 161849, Note_on_c, 6, 46, 0
12, 161880, Note_on_c, 6, 51, 76
12, 161969, Note_on_c, 6, 51, 0
12, 162000, Note_on_c, 6, 55, 76
12, 162089, Note_on_c, 6, 55, 0
12, 162120, Note_on_c, 6, 58, 76
12, 162329, Note_on_c, 6, 58, 0
12, 162360, Note_on_c, 6, 58, 76
12, 162569, Note_on_c, 6, 58, 0
12, 162600, Note_on_c, 6, 58, 76
12, 162809, Note_on_c, 6, 58, 0
12, 165960, Note_on_c, 6, 51, 84
12, 166664, Note_on_c, 6, 51, 0
12, 166680, Note_on_c, 6, 58, 84
12, 167144, Note_on_c, 6, 58, 0
12, 167160, Note_on_c, 6, 46, 84
12, 167624, Note_on_c, 6, 46, 0
12, 167640, Note_on_c, 6, 51, 84
12, 167984, Note_on_c, 6, 51, 0
12, 168000, Note_on_c, 6, 63, 84
12, 168104, Note_on_c, 6, 63, 0
12, 168120, Note_on_c, 6, 58, 84
12, 168224, Note_on_c, 6, 58, 0
12, 168240, Note_on_c, 6, 58, 84
12, 168344, Note_on_c, 6, 58, 0
12, 168360, Note_on_c, 6, 58, 84
12, 168464, Note_on_c, 6, 58, 0
12, 168480, Note_on_c, 6, 58, 84
12, 168584, Note_on_c, 6, 58, 0
12, 168600, Note_on_c, 6, 55, 84
12, 168944, Note_on_c, 6, 55, 0
12, 168960, Note_on_c, 6, 55, 84
12, 169064, Note_on_c, 6, 55, 0
12, 169080, Note_on_c, 6, 55, 84
12, 169184, Note_on_c, 6, 55, 0
12, 169200, Note_on_c, 6, 55, 84
12, 169304, Note_on_c, 6, 55, 0
12, 169320, Note_on_c, 6, 55, 84
12, 169424, Note_on_c, 6, 55, 0
12, 169440, Note_on_c, 6, 55, 84
12, 169544, Note_on_c, 6, 55, 0
12, 169560, Note_on_c, 6, 55, 84
12, 169664, Note_on_c, 6, 55, 0
12, 169680, Note_on_c, 6, 51, 84
12, 169784, Note_on_c, 6, 51, 0
12, 169800, Note_on_c, 6, 51, 84
12, 169904, Note_on_c, 6, 51, 0
12, 169920, Note_on_c, 6, 51, 84
12, 170024, Note_on_c, 6, 51, 0
12, 170040, Note_on_c, 6, 51, 84
12, 170144, Note_on_c, 6, 51, 0
12, 170160, Note_on_c, 6, 51, 84
12, 170264, Note_on_c, 6, 51, 0
12, 170280, Note_on_c, 6, 51, 84
12, 170384, Note_on_c, 6, 51, 0
12, 170400, Note_on_c, 6, 51, 84
12, 170504, Note_on_c, 6, 51, 0
12, 170520, Note_on_c, 6, 51, 84
12, 170639, Note_on_c, 6, 51, 0
12, 171600, Note_on_c, 6, 46, 84
12, 171824, Note_on_c, 6, 46, 0
12, 171840, Note_on_c, 6, 46, 84
12, 171944, Note_on_c, 6, 46, 0
12, 171960, Note_on_c, 6, 46, 84
12, 172064, Note_on_c, 6, 46, 0
12, 172080, Note_on_c, 6, 51, 84
12, 172184, Note_on_c, 6, 51, 0
12, 172200, Note_on_c, 6, 51, 84
12, 172304, Note_on_c, 6, 51, 0
12, 172320, Note_on_c, 6, 51, 84
12, 172424, Note_on_c, 6, 51, 0
12, 172440, Note_on_c, 6, 46, 84
12, 172904, Note_on_c, 6, 46, 0
12, 172920, Note_on_c, 6, 51, 84
12, 173144, Note_on_c, 6, 51, 0
12, 173160, Note_on_c, 6, 51, 84
12, 173399, Note_on_c, 6, 51, 0
12, 175320, Note_on_c, 6, 46, 84
12, 175544, Note_on_c, 6, 46, 0
12, 175560, Note_on_c, 6, 46, 84
12, 175784, Note_on_c, 6, 46, 0
12, 175800, Note_on_c, 6, 46, 84
12, 176024, Note_on_c, 6, 46, 0
12, 176040, Note_on_c, 6, 46, 84
12, 176264, Note_on_c, 6, 46, 0
12, 176280, Note_on_c, 6, 46, 84
12, 176504, Note_on_c, 6, 46, 0
12, 176520, Note_on_c, 6, 46, 84
12, 176744, Note_on_c, 6, 46, 0
12, 176760, Note_on_c, 6, 46, 84
12, 176984, Note_on_c, 6, 46, 0
12, 177000, Note_on_c, 6, 46, 84
12, 177224, Note_on_c, 6, 46, 0
12, 177240, Note_on_c, 6, 58, 84
12, 177344, Note_on_c, 6, 58, 0
12, 177360, Note_on_c, 6, 46, 84
12, 177464, Note_on_c, 6, 46, 0
12, 177480, Note_on_c, 6, 58, 84
12, 177584, Note_on_c, 6, 58, 0
12, 177600, Note_on_c, 6, 46, 84
12, 177704, Note_on_c, 6, 46, 0
12, 177720, Note_on_c, 6, 58, 84
12, 177824, Note_on_c, 6, 58, 0
12, 177840, Note_on_c, 6, 46, 84
12, 177944, Note_on_c, 6, 46, 0
12, 177960, Note_on_c, 6, 58, 84
12, 178064, Note_on_c, 6, 58, 0
12, 178080, Note_on_c, 6, 46, 84
12, 178184, Note_on_c, 6, 46, 0
12, 178200, Note_on_c, 6, 58, 84
12, 178304, Note_on_c, 6, 58, 0
12, 178320, Note_on_c, 6, 46, 84
12, 178424, Note_on_c, 6, 46, 0
12, 178440, Note_on_c, 6, 58, 84
12, 178544, Note_on_c, 6, 58, 0
12, 178560, Note_on_c, 6, 46, 84
12, 178664, Note_on_c, 6, 46, 0
12, 178680, Note_on_c, 6, 58, 84
12, 178784, Note_on_c, 6, 58, 0
12, 178800, Note_on_c, 6, 46, 84
12, 178904, Note_on_c, 6, 46, 0
12, 178920, Note_on_c, 6, 58, 84
12, 179024, Note_on_c, 6, 58, 0
12, 179040, Note_on_c, 6, 46, 84
12, 179144, Note_on_c, 6, 46, 0
12, 179160, Note_on_c, 6, 65, 84
12, 180359, Note_on_c, 6, 65, 0
12, 181320, Note_on_c, 6, 58, 92
12, 181320, Note_on_c, 6, 46, 92
12, 181769, Note_on_c, 6, 58, 0
12, 181769, Note_on_c, 6, 46, 0
12, 181800, Note_on_c, 6, 65, 92
12, 181800, Note_on_c, 6, 58, 92
12, 182369, Note_on_c, 6, 65, 0
12, 182369, Note_on_c, 6, 58, 0
12, 185760, Note_on_c, 6, 63, 52
12, 185879, Note_on_c, 6, 63, 0
12, 185880, Note_on_c, 6, 67, 52
12, 185880, Note_on_c, 6, 63, 52
12, 186119, Note_on_c, 6, 67, 0
12, 186119, Note_on_c, 6, 63, 0
12, 186120, Note_on_c, 6, 58, 52
12, 186120, Note_on_c, 6, 65, 52
12, 186239, Note_on_c, 6, 58, 0
12, 186239, Note_on_c, 6, 65, 0
12, 186600, Note_on_c, 6, 66, 52
12, 186600, Note_on_c, 6, 51, 52
12, 186809, Note_on_c, 6, 66, 0
12, 186809, Note_on_c, 6, 51, 0
12, 186810, Note_on_c, 6, 46, 52
12, 186810, Note_on_c, 6, 65, 52
12, 186835, Note_on_c, 6, 46, 0
12, 186835, Note_on_c, 6, 65, 0
12, 186840, Note_on_c, 6, 65, 52
12, 186840, Note_on_c, 6, 46, 52
12, 187079, Note_on_c, 6, 65, 0
12, 187079, Note_on_c, 6, 46, 0
12, 187560, Note_on_c, 6, 50, 68
12, 187560, Note_on_c, 6, 68, 68
12, 187769, Note_on_c, 6, 50, 0
12, 187769, Note_on_c, 6, 68, 0
12, 187770, Note_on_c, 6, 51, 52
12, 187770, Note_on_c, 6, 67, 52
12, 187795, Note_on_c, 6, 51, 0
12, 187795, Note_on_c, 6, 67, 0
12, 187800, Note_on_c, 6, 51, 52
12, 187800, Note_on_c, 6, 67, 52
12, 188039, Note_on_c, 6, 51, 0
12, 188039, Note_on_c, 6, 67, 0
12, 188220, Control_c, 6, 11, 96
12, 188280, Note_on_c, 6, 51, 68
12, 188280, Control_c, 6, 11, 96
12, 188300, Control_c, 6, 11, 97
12, 188320, Control_c, 6, 11, 99
12, 188340, Control_c, 6, 11, 100
12, 188360, Control_c, 6, 11, 101
12, 188380, Control_c, 6, 11, 102
12, 188400, Control_c, 6, 11, 104
12, 188420, Control_c, 6, 11, 105
12, 188440, Control_c, 6, 11, 106
12, 188460, Control_c, 6, 11, 108
12, 188480, Control_c, 6, 11, 109
12, 188500, Control_c, 6, 11, 110
12, 188511, Note_on_c, 6, 51, 0
12, 188520, Control_c, 6, 11, 112
12, 188520, Note_on_c, 6, 70, 68
12, 188520, Note_on_c, 6, 50, 68
12, 188540, Control_c, 6, 11, 113
12, 188560, Control_c, 6, 11, 114
12, 188580, Control_c, 6, 11, 115
12, 188600, Control_c, 6, 11, 117
12, 188620, Control_c, 6, 11, 118
12, 188640, Control_c, 6, 11, 119
12, 188660, Control_c, 6, 11, 121
12, 188680, Control_c, 6, 11, 122
12, 188700, Control_c, 6, 11, 123
12, 188720, Control_c, 6, 11, 124
12, 188729, Note_on_c, 6, 50, 0
12, 188730, Note_on_c, 6, 51, 68
12, 188740, Control_c, 6, 11, 127
12, 188751, Note_on_c, 6, 70, 0
12, 188755, Note_on_c, 6, 51, 0
12, 188760, Note_on_c, 6, 70, 76
12, 188760, Note_on_c, 6, 51, 76
12, 188790, Control_c, 6, 11, 112
12, 188809, Control_c, 6, 11, 111
12, 188828, Control_c, 6, 11, 109
12, 188846, Control_c, 6, 11, 108
12, 188865, Control_c, 6, 11, 107
12, 188884, Control_c, 6, 11, 105
12, 188903, Control_c, 6, 11, 104
12, 188921, Control_c, 6, 11, 103
12, 188940, Control_c, 6, 11, 101
12, 188959, Control_c, 6, 11, 100
12, 188978, Control_c, 6, 11, 99
12, 188996, Control_c, 6, 11, 97
12, 189015, Control_c, 6, 11, 96
12, 189034, Control_c, 6, 11, 95
12, 189053, Control_c, 6, 11, 93
12, 189071, Control_c, 6, 11, 92
12, 189090, Control_c, 6, 11, 91
12, 189109, Control_c, 6, 11, 89
12, 189111, Note_on_c, 6, 70, 0
12, 189111, Note_on_c, 6, 51, 0
12, 189120, Note_on_c, 6, 70, 76
12, 189120, Note_on_c, 6, 63, 76
12, 189128, Control_c, 6, 11, 88
12, 189146, Control_c, 6, 11, 87
12, 189165, Control_c, 6, 11, 85
12, 189184, Control_c, 6, 11, 84
12, 189203, Control_c, 6, 11, 83
12, 189221, Control_c, 6, 11, 80
12, 189239, Note_on_c, 6, 70, 0
12, 189239, Note_on_c, 6, 63, 0
12, 189240, Note_on_c, 6, 68, 76
12, 189240, Note_on_c, 6, 63, 76
12, 189351, Note_on_c, 6, 68, 0
12, 189351, Note_on_c, 6, 63, 0
12, 189360, Note_on_c, 6, 68, 76
12, 189360, Note_on_c, 6, 58, 76
12, 189479, Note_on_c, 6, 68, 0
12, 189479, Note_on_c, 6, 58, 0
12, 189480, Note_on_c, 6, 58, 76
12, 189480, Note_on_c, 6, 67, 76
12, 189591, Note_on_c, 6, 58, 0
12, 189591, Note_on_c, 6, 67, 0
12, 189600, Note_on_c, 6, 67, 76
12, 189600, Note_on_c, 6, 51, 76
12, 189711, Note_on_c, 6, 67, 0
12, 189711, Note_on_c, 6, 51, 0
12, 189720, Note_on_c, 6, 67, 76
12, 189720, Control_c, 6, 11, 80
12, 189720, Note_on_c, 6, 51, 76
12, 189730, Control_c, 6, 11, 83
12, 189740, Control_c, 6, 11, 85
12, 189750, Control_c, 6, 11, 88
12, 189760, Control_c, 6, 11, 91
12, 189770, Control_c, 6, 11, 93
12, 189780, Control_c, 6, 11, 96
12, 189790, Control_c, 6, 11, 99
12, 189800, Control_c, 6, 11, 101
12, 189810, Control_c, 6, 11, 104
12, 189820, Control_c, 6, 11, 107
12, 189830, Control_c, 6, 11, 109
12, 189840, Control_c, 6, 11, 112
12, 189850, Control_c, 6, 11, 109
12, 189860, Control_c, 6, 11, 107
12, 189870, Control_c, 6, 11, 104
12, 189880, Control_c, 6, 11, 101
12, 189890, Control_c, 6, 11, 99
12, 189900, Control_c, 6, 11, 96
12, 189910, Control_c, 6, 11, 93
12, 189920, Control_c, 6, 11, 91
12, 189930, Control_c, 6, 11, 88
12, 189940, Control_c, 6, 11, 85
12, 189950, Control_c, 6, 11, 80
12, 189959, Note_on_c, 6, 67, 0
12, 189959, Note_on_c, 6, 51, 0
12, 189960, Note_on_c, 6, 65, 76
12, 189960, Note_on_c, 6, 46, 76
12, 190079, Note_on_c, 6, 65, 0
12, 190079, Note_on_c, 6, 46, 0
12, 190140, Control_c, 6, 11, 96
12, 190200, Note_on_c, 6, 58, 68
12, 190200, Note_on_c, 6, 46, 68
12, 190911, Note_on_c, 6, 58, 0
12, 190911, Note_on_c, 6, 46, 0
12, 190920, Note_on_c, 6, 58, 68
12, 190920, Note_on_c, 6, 46, 68
12, 191121, Note_on_c, 6, 58, 0
12, 191121, Note_on_c, 6, 46, 0
12, 191130, Note_on_c, 6, 58, 68
12, 191130, Note_on_c, 6, 46, 68
12, 191155, Note_on_c, 6, 58, 0
12, 191155, Note_on_c, 6, 46, 0
12, 191160, Note_on_c, 6, 58, 68
12, 191160, Note_on_c, 6, 46, 68
12, 191871, Note_on_c, 6, 58, 0
12, 191871, Note_on_c, 6, 46, 0
12, 191880, Note_on_c, 6, 58, 68
12, 191880, Note_on_c, 6, 46, 68
12, 192081, Note_on_c, 6, 58, 0
12, 192081, Note_on_c, 6, 46, 0
12, 192090, Note_on_c, 6, 46, 68
12, 192090, Note_on_c, 6, 58, 68
12, 192115, Note_on_c, 6, 46, 0
12, 192115, Note_on_c, 6, 58, 0
12, 192120, Control_c, 6, 11, 96
12, 192120, Note_on_c, 6, 51, 68
12, 192120, Note_on_c, 6, 63, 68
12, 192151, Control_c, 6, 11, 97
12, 192182, Control_c, 6, 11, 98
12, 192213, Control_c, 6, 11, 99
12, 192244, Control_c, 6, 11, 100
12, 192275, Control_c, 6, 11, 101
12, 192306, Control_c, 6, 11, 102
12, 192337, Control_c, 6, 11, 103
12, 192368, Control_c, 6, 11, 104
12, 192399, Control_c, 6, 11, 105
12, 192430, Control_c, 6, 11, 106
12, 192461, Control_c, 6, 11, 107
12, 192492, Control_c, 6, 11, 108
12, 192523, Control_c, 6, 11, 109
12, 192554, Control_c, 6, 11, 110
12, 192585, Control_c, 6, 11, 111
12, 192591, Note_on_c, 6, 51, 0
12, 192591, Note_on_c, 6, 63, 0
12, 192600, Note_on_c, 6, 51, 68
12, 192600, Note_on_c, 6, 65, 68
12, 192615, Control_c, 6, 11, 112
12, 192646, Control_c, 6, 11, 113
12, 192677, Control_c, 6, 11, 114
12, 192708, Control_c, 6, 11, 115
12, 192739, Control_c, 6, 11, 116
12, 192770, Control_c, 6, 11, 117
12, 192801, Control_c, 6, 11, 118
12, 192832, Control_c, 6, 11, 119
12, 192863, Control_c, 6, 11, 120
12, 192894, Control_c, 6, 11, 121
12, 192925, Control_c, 6, 11, 122
12, 192956, Control_c, 6, 11, 123
12, 192987, Control_c, 6, 11, 124
12, 193018, Control_c, 6, 11, 125
12, 193071, Note_on_c, 6, 51, 0
12, 193071, Note_on_c, 6, 65, 0
12, 193078, Control_c, 6, 11, 96
12, 193080, Control_c, 6, 11, 96
12, 193080, Note_on_c, 6, 67, 68
12, 193080, Note_on_c, 6, 51, 68
12, 193093, Control_c, 6, 11, 98
12, 193107, Control_c, 6, 11, 99
12, 193120, Control_c, 6, 11, 101
12, 193133, Control_c, 6, 11, 103
12, 193147, Control_c, 6, 11, 105
12, 193160, Control_c, 6, 11, 106
12, 193173, Control_c, 6, 11, 108
12, 193187, Control_c, 6, 11, 110
12, 193200, Control_c, 6, 11, 112
12, 193213, Control_c, 6, 11, 113
12, 193227, Control_c, 6, 11, 115
12, 193240, Control_c, 6, 11, 117
12, 193253, Control_c, 6, 11, 118
12, 193267, Control_c, 6, 11, 120
12, 193280, Control_c, 6, 11, 122
12, 193293, Control_c, 6, 11, 124
12, 193307, Control_c, 6, 11, 125
12, 193319, Note_on_c, 6, 67, 0
12, 193319, Note_on_c, 6, 51, 0
12, 193320, Control_c, 6, 11, 127
12, 193320, Note_on_c, 6, 46, 68
12, 193320, Note_on_c, 6, 65, 68
12, 193333, Control_c, 6, 11, 125
12, 193347, Control_c, 6, 11, 124
12, 193360, Control_c, 6, 11, 122
12, 193373, Control_c, 6, 11, 120
12, 193387, Control_c, 6, 11, 118
12, 193400, Control_c, 6, 11, 117
12, 193413, Control_c, 6, 11, 115
12, 193427, Control_c, 6, 11, 113
12, 193440, Control_c, 6, 11, 112
12, 193453, Control_c, 6, 11, 110
12, 193467, Control_c, 6, 11, 108
12, 193480, Control_c, 6, 11, 106
12, 193493, Control_c, 6, 11, 105
12, 193507, Control_c, 6, 11, 103
12, 193520, Control_c, 6, 11, 101
12, 193533, Control_c, 6, 11, 99
12, 193547, Control_c, 6, 11, 96
12, 193551, Note_on_c, 6, 46, 0
12, 193551, Note_on_c, 6, 65, 0
12, 193560, Note_on_c, 6, 51, 68
12, 193560, Note_on_c, 6, 67, 68
12, 193671, Note_on_c, 6, 51, 0
12, 193671, Note_on_c, 6, 67, 0
12, 193680, Control_c, 6, 11, 96
12, 193680, Note_on_c, 6, 46, 68
12, 193680, Note_on_c, 6, 58, 68
12, 193700, Control_c, 6, 11, 98
12, 193720, Control_c, 6, 11, 99
12, 193740, Control_c, 6, 11, 101
12, 193760, Control_c, 6, 11, 103
12, 193780, Control_c, 6, 11, 105
12, 193791, Note_on_c, 6, 46, 0
12, 193791, Note_on_c, 6, 58, 0
12, 193800, Control_c, 6, 11, 106
12, 193800, Note_on_c, 6, 58, 68
12, 193800, Note_on_c, 6, 46, 68
12, 193820, Control_c, 6, 11, 108
12, 193840, Control_c, 6, 11, 110
12, 193860, Control_c, 6, 11, 112
12, 193880, Control_c, 6, 11, 113
12, 193900, Control_c, 6, 11, 115
12, 193911, Note_on_c, 6, 58, 0
12, 193911, Note_on_c, 6, 46, 0
12, 193920, Note_on_c, 6, 58, 68
12, 193920, Note_on_c, 6, 46, 68
12, 193920, Control_c, 6, 11, 117
12, 193940, Control_c, 6, 11, 118
12, 193960, Control_c, 6, 11, 120
12, 193980, Control_c, 6, 11, 122
12, 194000, Control_c, 6, 11, 124
12, 194020, Control_c, 6, 11, 127
12, 194031, Note_on_c, 6, 58, 0
12, 194031, Note_on_c, 6, 46, 0
12, 194040, Note_on_c, 6, 46, 52
12, 194040, Note_on_c, 6, 58, 52
12, 194575, Note_on_c, 6, 46, 0
12, 194575, Note_on_c, 6, 58, 0
12, 194580, Note_on_c, 6, 58, 52
12, 194580, Note_on_c, 6, 70, 52
12, 194624, Note_on_c, 6, 58, 0
12, 194624, Note_on_c, 6, 70, 0
12, 194640, Note_on_c, 6, 70, 52
12, 194640, Note_on_c, 6, 65, 52
12, 194684, Note_on_c, 6, 70, 0
12, 194684, Note_on_c, 6, 65, 0
12, 194700, Note_on_c, 6, 70, 52
12, 194700, Note_on_c, 6, 58, 52
12, 194744, Note_on_c, 6, 70, 0
12, 194744, Note_on_c, 6, 58, 0
12, 194760, Note_on_c, 6, 65, 52
12, 194760, Note_on_c, 6, 70, 52
12, 194804, Note_on_c, 6, 65, 0
12, 194804, Note_on_c, 6, 70, 0
12, 194820, Note_on_c, 6, 58, 52
12, 194820, Note_on_c, 6, 70, 52
12, 194864, Note_on_c, 6, 58, 0
12, 194864, Note_on_c, 6, 70, 0
12, 194880, Note_on_c, 6, 65, 52
12, 194880, Note_on_c, 6, 70, 52
12, 194924, Note_on_c, 6, 65, 0
12, 194924, Note_on_c, 6, 70, 0
12, 194940, Note_on_c, 6, 70, 52
12, 194940, Note_on_c, 6, 58, 52
12, 194984, Note_on_c, 6, 70, 0
12, 194984, Note_on_c, 6, 58, 0
12, 195000, Note_on_c, 6, 58, 52
12, 195000, Note_on_c, 6, 46, 52
12, 195535, Note_on_c, 6, 58, 0
12, 195535, Note_on_c, 6, 46, 0
12, 195540, Note_on_c, 6, 58, 52
12, 195540, Note_on_c, 6, 70, 52
12, 195584, Note_on_c, 6, 58, 0
12, 195584, Note_on_c, 6, 70, 0
12, 195600, Note_on_c, 6, 65, 52
12, 195600, Note_on_c, 6, 70, 52
12, 195644, Note_on_c, 6, 65, 0
12, 195644, Note_on_c, 6, 70, 0
12, 195660, Note_on_c, 6, 58, 52
12, 195660, Note_on_c, 6, 70, 52
12, 195704, Note_on_c, 6, 58, 0
12, 195704, Note_on_c, 6, 70, 0
12, 195720, Note_on_c, 6, 65, 52
12, 195720, Note_on_c, 6, 70, 52
12, 195764, Note_on_c, 6, 65, 0
12, 195764, Note_on_c, 6, 70, 0
12, 195780, Note_on_c, 6, 58, 52
12, 195780, Note_on_c, 6, 70, 52
12, 195824, Note_on_c, 6, 58, 0
12, 195824, Note_on_c, 6, 70, 0
12, 195840, Note_on_c, 6, 70, 52
12, 195840, Note_on_c, 6, 65, 52
12, 195884, Note_on_c, 6, 70, 0
12, 195884, Note_on_c, 6, 65, 0
12, 195900, Note_on_c, 6, 70, 52
12, 195900, Note_on_c, 6, 58, 52
12, 195944, Note_on_c, 6, 70, 0
12, 195944, Note_on_c, 6, 58, 0
12, 195960, Note_on_c, 6, 70, 52
12, 195960, Note_on_c, 6, 63, 52
12, 196079, Note_on_c, 6, 70, 0
12, 196079, Note_on_c, 6, 63, 0
12, 196260, Note_on_c, 6, 67, 53
12, 196260, Note_on_c, 6, 51, 53
12, 196311, Note_on_c, 6, 67, 0
12, 196311, Note_on_c, 6, 51, 0
12, 196320, Note_on_c, 6, 63, 54
12, 196320, Note_on_c, 6, 70, 54
12, 196371, Note_on_c, 6, 63, 0
12, 196371, Note_on_c, 6, 70, 0
12, 196380, Note_on_c, 6, 51, 56
12, 196380, Note_on_c, 6, 67, 56
12, 196439, Note_on_c, 6, 51, 0
12, 196439, Note_on_c, 6, 67, 0
12, 196740, Note_on_c, 6, 51, 64
12, 196740, Note_on_c, 6, 65, 64
12, 196791, Note_on_c, 6, 51, 0
12, 196791, Note_on_c, 6, 65, 0
12, 196800, Note_on_c, 6, 68, 65
12, 196800, Note_on_c, 6, 63, 65
12, 196851, Note_on_c, 6, 68, 0
12, 196851, Note_on_c, 6, 63, 0
12, 196860, Note_on_c, 6, 51, 66
12, 196860, Note_on_c, 6, 65, 66
12, 196911, Note_on_c, 6, 51, 0
12, 196911, Note_on_c, 6, 65, 0
12, 196918, Control_c, 6, 11, 96
12, 196920, Note_on_c, 6, 51, 68
12, 196920, Control_c, 6, 11, 96
12, 196920, Note_on_c, 6, 67, 68
12, 196940, Control_c, 6, 11, 99
12, 196960, Control_c, 6, 11, 101
12, 196980, Control_c, 6, 11, 104
12, 197000, Control_c, 6, 11, 106
12, 197020, Control_c, 6, 11, 109
12, 197040, Control_c, 6, 11, 112
12, 197060, Control_c, 6, 11, 114
12, 197080, Control_c, 6, 11, 117
12, 197100, Control_c, 6, 11, 119
12, 197120, Control_c, 6, 11, 122
12, 197140, Control_c, 6, 11, 124
12, 197159, Note_on_c, 6, 51, 0
12, 197159, Note_on_c, 6, 67, 0
12, 197160, Note_on_c, 6, 46, 68
12, 197160, Control_c, 6, 11, 127
12, 197160, Note_on_c, 6, 70, 68
12, 197180, Control_c, 6, 11, 124
12, 197200, Control_c, 6, 11, 122
12, 197220, Control_c, 6, 11, 119
12, 197240, Control_c, 6, 11, 117
12, 197260, Control_c, 6, 11, 114
12, 197280, Control_c, 6, 11, 112
12, 197300, Control_c, 6, 11, 109
12, 197320, Control_c, 6, 11, 106
12, 197339, Note_on_c, 6, 70, 0
12, 197340, Note_on_c, 6, 68, 68
12, 197340, Control_c, 6, 11, 104
12, 197360, Control_c, 6, 11, 101
12, 197380, Control_c, 6, 11, 96
12, 197391, Note_on_c, 6, 46, 0
12, 197395, Note_on_c, 6, 68, 0
12, 197400, Note_on_c, 6, 67, 68
12, 197400, Note_on_c, 6, 51, 68
12, 197519, Note_on_c, 6, 67, 0
12, 197519, Note_on_c, 6, 51, 0
12, 197730, Control_c, 6, 11, 127
12, 197760, Note_on_c, 6, 63, 84
12, 197871, Note_on_c, 6, 63, 0
12, 197880, Note_on_c, 6, 67, 92
12, 198000, Note_on_c, 6, 46, 84
12, 198089, Note_on_c, 6, 46, 0
12, 198120, Note_on_c, 6, 46, 92
12, 198224, Note_on_c, 6, 67, 0
12, 198240, Note_on_c, 6, 63, 84
12, 198351, Note_on_c, 6, 63, 0
12, 198360, Note_on_c, 6, 62, 92
12, 198464, Note_on_c, 6, 46, 0
12, 198480, Note_on_c, 6, 46, 84
12, 198569, Note_on_c, 6, 46, 0
12, 198600, Note_on_c, 6, 46, 92
12, 198704, Note_on_c, 6, 62, 0
12, 198720, Note_on_c, 6, 65, 84
12, 198831, Note_on_c, 6, 65, 0
12, 198840, Note_on_c, 6, 68, 92
12, 198944, Note_on_c, 6, 46, 0
12, 198960, Note_on_c, 6, 46, 84
12, 199049, Note_on_c, 6, 46, 0
12, 199080, Note_on_c, 6, 46, 92
12, 199184, Note_on_c, 6, 68, 0
12, 199200, Note_on_c, 6, 65, 84
12, 199311, Note_on_c, 6, 65, 0
12, 199320, Note_on_c, 6, 63, 92
12, 199424, Note_on_c, 6, 46, 0
12, 199440, Note_on_c, 6, 46, 84
12, 199529, Note_on_c, 6, 46, 0
12, 199560, Note_on_c, 6, 46, 92
12, 199664, Note_on_c, 6, 63, 0
12, 199680, Note_on_c, 6, 67, 84
12, 199791, Note_on_c, 6, 67, 0
12, 199800, Note_on_c, 6, 70, 84
12, 199855, Note_on_c, 6, 46, 0
12, 199860, Note_on_c, 6, 46, 84
12, 199915, Note_on_c, 6, 46, 0
12, 199920, Note_on_c, 6, 46, 84
12, 199975, Note_on_c, 6, 46, 0
12, 199979, Note_on_c, 6, 70, 0
12, 199980, Note_on_c, 6, 46, 84
12, 200035, Note_on_c, 6, 46, 0
12, 200040, Note_on_c, 6, 70, 84
12, 200100, Note_on_c, 6, 46, 84
12, 200155, Note_on_c, 6, 46, 0
12, 200160, Note_on_c, 6, 46, 84
12, 200215, Note_on_c, 6, 46, 0
12, 200219, Note_on_c, 6, 70, 0
12, 200220, Note_on_c, 6, 46, 84
12, 200275, Note_on_c, 6, 46, 0
12, 200280, Note_on_c, 6, 70, 92
12, 200340, Note_on_c, 6, 46, 84
12, 200395, Note_on_c, 6, 46, 0
12, 200400, Note_on_c, 6, 46, 84
12, 200455, Note_on_c, 6, 46, 0
12, 200460, Note_on_c, 6, 46, 84
12, 200515, Note_on_c, 6, 46, 0
12, 200520, Note_on_c, 6, 46, 84
12, 200575, Note_on_c, 6, 46, 0
12, 200580, Note_on_c, 6, 46, 84
12, 200624, Note_on_c, 6, 70, 0
12, 200635, Note_on_c, 6, 46, 0
12, 200640, Note_on_c, 6, 67, 84
12, 200640, Note_on_c, 6, 46, 84
12, 200695, Note_on_c, 6, 46, 0
12, 200700, Note_on_c, 6, 46, 84
12, 200751, Note_on_c, 6, 67, 0
12, 200755, Note_on_c, 6, 46, 0
12, 200760, Note_on_c, 6, 46, 84
12, 200760, Note_on_c, 6, 70, 84
12, 200815, Note_on_c, 6, 46, 0
12, 200819, Note_on_c, 6, 70, 0
12, 200820, Note_on_c, 6, 68, 84
12, 200820, Note_on_c, 6, 46, 84
12, 200875, Note_on_c, 6, 68, 0
12, 200875, Note_on_c, 6, 46, 0
12, 200880, Note_on_c, 6, 65, 84
12, 200880, Note_on_c, 6, 46, 84
12, 200935, Note_on_c, 6, 46, 0
12, 200940, Note_on_c, 6, 46, 84
12, 200969, Note_on_c, 6, 65, 0
12, 200995, Note_on_c, 6, 46, 0
12, 201000, Note_on_c, 6, 46, 84
12, 201000, Note_on_c, 6, 68, 84
12, 201055, Note_on_c, 6, 46, 0
12, 201059, Note_on_c, 6, 68, 0
12, 201060, Note_on_c, 6, 46, 84
12, 201060, Note_on_c, 6, 67, 84
12, 201115, Note_on_c, 6, 46, 0
12, 201115, Note_on_c, 6, 67, 0
12, 201120, Note_on_c, 6, 63, 84
12, 201120, Note_on_c, 6, 46, 84
12, 201175, Note_on_c, 6, 46, 0
12, 201180, Note_on_c, 6, 46, 84
12, 201209, Note_on_c, 6, 63, 0
12, 201235, Note_on_c, 6, 46, 0
12, 201240, Note_on_c, 6, 46, 84
12, 201240, Note_on_c, 6, 67, 84
12, 201295, Note_on_c, 6, 46, 0
12, 201300, Note_on_c, 6, 46, 84
12, 201355, Note_on_c, 6, 46, 0
12, 201360, Note_on_c, 6, 46, 84
12, 201415, Note_on_c, 6, 46, 0
12, 201420, Note_on_c, 6, 46, 84
12, 201475, Note_on_c, 6, 46, 0
12, 201479, Note_on_c, 6, 67, 0
12, 201480, Note_on_c, 6, 46, 84
12, 201480, Note_on_c, 6, 65, 84
12, 201591, Note_on_c, 6, 65, 0
12, 201599, Note_on_c, 6, 46, 0
12, 201600, Note_on_c, 6, 58, 84
12, 201659, Note_on_c, 6, 58, 0
12, 201660, Note_on_c, 6, 57, 84
12, 201715, Note_on_c, 6, 57, 0
12, 201720, Note_on_c, 6, 58, 84
12, 201764, Note_on_c, 6, 58, 0
12, 201780, Note_on_c, 6, 60, 84
12, 201824, Note_on_c, 6, 60, 0
12, 201840, Note_on_c, 6, 62, 84
12, 201840, Note_on_c, 6, 46, 84
12, 201884, Note_on_c, 6, 62, 0
12, 201900, Note_on_c, 6, 63, 84
12, 201929, Note_on_c, 6, 46, 0
12, 201944, Note_on_c, 6, 63, 0
12, 201960, Note_on_c, 6, 65, 84
12, 201960, Note_on_c, 6, 46, 92
12, 202004, Note_on_c, 6, 65, 0
12, 202020, Note_on_c, 6, 67, 84
12, 202064, Note_on_c, 6, 67, 0
12, 202080, Note_on_c, 6, 68, 84
12, 202124, Note_on_c, 6, 68, 0
12, 202140, Note_on_c, 6, 67, 84
12, 202184, Note_on_c, 6, 67, 0
12, 202200, Note_on_c, 6, 68, 84
12, 202289, Note_on_c, 6, 68, 0
12, 202304, Note_on_c, 6, 46, 0
12, 202320, Note_on_c, 6, 68, 84
12, 202320, Note_on_c, 6, 46, 84
12, 202409, Note_on_c, 6, 68, 0
12, 202409, Note_on_c, 6, 46, 0
12, 202440, Note_on_c, 6, 46, 92
12, 202440, Note_on_c, 6, 68, 84
12, 202529, Note_on_c, 6, 68, 0
12, 202560, Note_on_c, 6, 58, 84
12, 202619, Note_on_c, 6, 58, 0
12, 202620, Note_on_c, 6, 57, 84
12, 202675, Note_on_c, 6, 57, 0
12, 202680, Note_on_c, 6, 58, 84
12, 202724, Note_on_c, 6, 58, 0
12, 202740, Note_on_c, 6, 60, 84
12, 202784, Note_on_c, 6, 46, 0
12, 202784, Note_on_c, 6, 60, 0
12, 202800, Note_on_c, 6, 62, 84
12, 202800, Note_on_c, 6, 46, 84
12, 202844, Note_on_c, 6, 62, 0
12, 202860, Note_on_c, 6, 63, 84
12, 202904, Note_on_c, 6, 63, 0
12, 202911, Note_on_c, 6, 46, 0
12, 202920, Note_on_c, 6, 65, 84
12, 202920, Note_on_c, 6, 46, 84
12, 202964, Note_on_c, 6, 65, 0
12, 202980, Note_on_c, 6, 67, 84
12, 203024, Note_on_c, 6, 67, 0
12, 203031, Note_on_c, 6, 46, 0
12, 203040, Note_on_c, 6, 68, 84
12, 203040, Note_on_c, 6, 46, 84
12, 203084, Note_on_c, 6, 68, 0
12, 203100, Note_on_c, 6, 67, 84
12, 203144, Note_on_c, 6, 67, 0
12, 203151, Note_on_c, 6, 46, 0
12, 203160, Note_on_c, 6, 68, 84
12, 203160, Note_on_c, 6, 46, 84
12, 203271, Note_on_c, 6, 46, 0
12, 203280, Note_on_c, 6, 46, 84
12, 203391, Note_on_c, 6, 46, 0
12, 203400, Note_on_c, 6, 46, 84
12, 203519, Note_on_c, 6, 68, 0
12, 203520, Note_on_c, 6, 69, 84
12, 203631, Note_on_c, 6, 69, 0
12, 203640, Note_on_c, 6, 70, 92
12, 203751, Note_on_c, 6, 46, 0
12, 203760, Note_on_c, 6, 51, 84
12, 203871, Note_on_c, 6, 51, 0
12, 203880, Note_on_c, 6, 51, 92
12, 203984, Note_on_c, 6, 70, 0
12, 204000, Note_on_c, 6, 67, 84
12, 204111, Note_on_c, 6, 67, 0
12, 204120, Note_on_c, 6, 65, 92
12, 204224, Note_on_c, 6, 51, 0
12, 204240, Note_on_c, 6, 51, 84
12, 204351, Note_on_c, 6, 51, 0
12, 204360, Note_on_c, 6, 51, 92
12, 204464, Note_on_c, 6, 65, 0
12, 204480, Note_on_c, 6, 72, 84
12, 204591, Note_on_c, 6, 72, 0
12, 204600, Note_on_c, 6, 63, 92
12, 204651, Note_on_c, 6, 51, 0
12, 204660, Note_on_c, 6, 46, 84
12, 204715, Note_on_c, 6, 46, 0
12, 204720, Note_on_c, 6, 46, 84
12, 204775, Note_on_c, 6, 46, 0
12, 204780, Note_on_c, 6, 46, 84
12, 204839, Note_on_c, 6, 63, 0
12, 204839, Note_on_c, 6, 46, 0
12, 204840, Note_on_c, 6, 67, 84
12, 204900, Note_on_c, 6, 46, 84
12, 204955, Note_on_c, 6, 46, 0
12, 204960, Note_on_c, 6, 46, 84
12, 205015, Note_on_c, 6, 46, 0
12, 205019, Note_on_c, 6, 67, 0
12, 205020, Note_on_c, 6, 46, 84
12, 205020, Note_on_c, 6, 65, 84
12, 205075, Note_on_c, 6, 46, 0
12, 205075, Note_on_c, 6, 65, 0
12, 205080, Note_on_c, 6, 63, 84
12, 205080, Note_on_c, 6, 51, 84
12, 205199, Note_on_c, 6, 63, 0
12, 205199, Note_on_c, 6, 51, 0
12, 205560, Control_c, 6, 11, 96
12, 205680, Note_on_c, 6, 58, 68
12, 205680, Note_on_c, 6, 70, 68
12, 205911, Note_on_c, 6, 58, 0
12, 205911, Note_on_c, 6, 70, 0
12, 205920, Note_on_c, 6, 67, 68
12, 205920, Note_on_c, 6, 55, 68
12, 205975, Note_on_c, 6, 67, 0
12, 205975, Note_on_c, 6, 55, 0
12, 205980, Note_on_c, 6, 63, 68
12, 205980, Note_on_c, 6, 51, 68
12, 206035, Note_on_c, 6, 63, 0
12, 206035, Note_on_c, 6, 51, 0
12, 206040, Note_on_c, 6, 58, 68
12, 206040, Note_on_c, 6, 46, 68
12, 206040, Control_c, 6, 11, 96
12, 206080, Control_c, 6, 11, 97
12, 206120, Control_c, 6, 11, 99
12, 206160, Control_c, 6, 11, 100
12, 206200, Control_c, 6, 11, 101
12, 206240, Control_c, 6, 11, 102
12, 206280, Control_c, 6, 11, 104
12, 206320, Control_c, 6, 11, 105
12, 206360, Control_c, 6, 11, 106
12, 206400, Control_c, 6, 11, 108
12, 206440, Control_c, 6, 11, 109
12, 206480, Control_c, 6, 11, 110
12, 206519, Note_on_c, 6, 58, 0
12, 206519, Note_on_c, 6, 46, 0
12, 206520, Control_c, 6, 11, 112
12, 206520, Note_on_c, 6, 58, 68
12, 206520, Note_on_c, 6, 65, 68
12, 206560, Control_c, 6, 11, 113
12, 206600, Control_c, 6, 11, 114
12, 206640, Control_c, 6, 11, 115
12, 206680, Control_c, 6, 11, 117
12, 206720, Control_c, 6, 11, 118
12, 206760, Control_c, 6, 11, 119
12, 206800, Control_c, 6, 11, 121
12, 206840, Control_c, 6, 11, 122
12, 206880, Control_c, 6, 11, 123
12, 206920, Control_c, 6, 11, 124
12, 206960, Control_c, 6, 11, 127
12, 206991, Note_on_c, 6, 58, 0
12, 206991, Note_on_c, 6, 65, 0
12, 207000, Note_on_c, 6, 55, 52
12, 207000, Note_on_c, 6, 63, 52
12, 207239, Note_on_c, 6, 55, 0
12, 207239, Note_on_c, 6, 63, 0
12, 207480, Control_c, 6, 11, 96
12, 207520, Note_on_c, 6, 70, 68
12, 207520, Note_on_c, 6, 58, 68
12, 207555, Note_on_c, 6, 70, 0
12, 207555, Note_on_c, 6, 58, 0
12, 207560, Note_on_c, 6, 58, 68
12, 207560, Note_on_c, 6, 70, 68
12, 207595, Note_on_c, 6, 58, 0
12, 207595, Note_on_c, 6, 70, 0
12, 207600, Note_on_c, 6, 70, 68
12, 207600, Note_on_c, 6, 58, 68
12, 207635, Note_on_c, 6, 70, 0
12, 207635, Note_on_c, 6, 58, 0
12, 207640, Note_on_c, 6, 70, 68
12, 207640, Note_on_c, 6, 58, 68
12, 207675, Note_on_c, 6, 70, 0
12, 207675, Note_on_c, 6, 58, 0
12, 207680, Note_on_c, 6, 58, 68
12, 207680, Note_on_c, 6, 70, 68
12, 207715, Note_on_c, 6, 58, 0
12, 207715, Note_on_c, 6, 70, 0
12, 207720, Note_on_c, 6, 70, 68
12, 207720, Note_on_c, 6, 58, 68
12, 207759, Note_on_c, 6, 70, 0
12, 207759, Note_on_c, 6, 58, 0
12, 207760, Note_on_c, 6, 55, 68
12, 207760, Note_on_c, 6, 67, 68
12, 207795, Note_on_c, 6, 55, 0
12, 207795, Note_on_c, 6, 67, 0
12, 207800, Note_on_c, 6, 55, 68
12, 207800, Note_on_c, 6, 67, 68
12, 207829, Note_on_c, 6, 55, 0
12, 207829, Note_on_c, 6, 67, 0
12, 207840, Note_on_c, 6, 67, 68
12, 207840, Note_on_c, 6, 55, 68
12, 207879, Note_on_c, 6, 67, 0
12, 207879, Note_on_c, 6, 55, 0
12, 207880, Note_on_c, 6, 51, 68
12, 207880, Note_on_c, 6, 63, 68
12, 207915, Note_on_c, 6, 51, 0
12, 207915, Note_on_c, 6, 63, 0
12, 207920, Note_on_c, 6, 51, 68
12, 207920, Note_on_c, 6, 63, 68
12, 207955, Note_on_c, 6, 51, 0
12, 207955, Note_on_c, 6, 63, 0
12, 207960, Note_on_c, 6, 46, 68
12, 207960, Note_on_c, 6, 58, 68
12, 207960, Control_c, 6, 11, 96
12, 208000, Control_c, 6, 11, 97
12, 208040, Control_c, 6, 11, 99
12, 208080, Control_c, 6, 11, 100
12, 208120, Control_c, 6, 11, 101
12, 208160, Control_c, 6, 11, 102
12, 208200, Control_c, 6, 11, 104
12, 208240, Control_c, 6, 11, 105
12, 208280, Control_c, 6, 11, 106
12, 208320, Control_c, 6, 11, 108
12, 208360, Control_c, 6, 11, 109
12, 208400, Control_c, 6, 11, 110
12, 208431, Note_on_c, 6, 46, 0
12, 208431, Note_on_c, 6, 58, 0
12, 208440, Note_on_c, 6, 51, 68
12, 208440, Control_c, 6, 11, 112
12, 208440, Note_on_c, 6, 63, 68
12, 208480, Control_c, 6, 11, 113
12, 208520, Control_c, 6, 11, 114
12, 208560, Control_c, 6, 11, 115
12, 208600, Control_c, 6, 11, 117
12, 208640, Control_c, 6, 11, 118
12, 208680, Control_c, 6, 11, 119
12, 208720, Control_c, 6, 11, 121
12, 208760, Control_c, 6, 11, 122
12, 208800, Control_c, 6, 11, 123
12, 208840, Control_c, 6, 11, 124
12, 208880, Control_c, 6, 11, 126
12, 208920, Control_c, 6, 11, 96
12, 209399, Note_on_c, 6, 51, 0
12, 209399, Note_on_c, 6, 63, 0
12, 209400, Note_on_c, 6, 51, 68
12, 209400, Note_on_c, 6, 63, 68
12, 210464, Note_on_c, 6, 51, 0
12, 210464, Note_on_c, 6, 63, 0
12, 210480, Note_on_c, 6, 63, 68
12, 210480, Note_on_c, 6, 51, 68
12, 210569, Note_on_c, 6, 63, 0
12, 210569, Note_on_c, 6, 51, 0
12, 210600, Note_on_c, 6, 63, 68
12, 210600, Note_on_c, 6, 51, 68
12, 210689, Note_on_c, 6, 63, 0
12, 210689, Note_on_c, 6, 51, 0
12, 210720, Note_on_c, 6, 51, 68
12, 210720, Note_on_c, 6, 63, 68
12, 210809, Note_on_c, 6, 51, 0
12, 210809, Note_on_c, 6, 63, 0
12, 210840, Note_on_c, 6, 51, 68
12, 210840, Note_on_c, 6, 63, 68
12, 210959, Note_on_c, 6, 51, 0
12, 210959, Note_on_c, 6, 63, 0
12, 211320, Control_c, 6, 11, 127
12, 211800, Note_on_c, 6, 63, 60
12, 211800, Note_on_c, 6, 51, 60
12, 211979, Note_on_c, 6, 63, 0
12, 211979, Note_on_c, 6, 51, 0
12, 212040, Note_on_c, 6, 51, 60
12, 212040, Note_on_c, 6, 63, 60
12, 212219, Note_on_c, 6, 51, 0
12, 212219, Note_on_c, 6, 63, 0
12, 212280, Note_on_c, 6, 63, 60
12, 212280, Note_on_c, 6, 51, 60
12, 212751, Note_on_c, 6, 63, 0
12, 212751, Note_on_c, 6, 51, 0
12, 212758, Control_c, 6, 11, 112
12, 212760, Note_on_c, 6, 51, 76
12, 212760, Control_c, 6, 11, 112
12, 212760, Note_on_c, 6, 63, 76
12, 212824, Control_c, 6, 11, 113
12, 212888, Control_c, 6, 11, 114
12, 212939, Note_on_c, 6, 51, 0
12, 212939, Note_on_c, 6, 63, 0
12, 212952, Control_c, 6, 11, 115
12, 213000, Note_on_c, 6, 51, 76
12, 213000, Note_on_c, 6, 63, 76
12, 213016, Control_c, 6, 11, 116
12, 213080, Control_c, 6, 11, 117
12, 213144, Control_c, 6, 11, 118
12, 213179, Note_on_c, 6, 51, 0
12, 213179, Note_on_c, 6, 63, 0
12, 213208, Control_c, 6, 11, 119
12, 213240, Note_on_c, 6, 63, 76
12, 213240, Note_on_c, 6, 51, 76
12, 213272, Control_c, 6, 11, 120
12, 213336, Control_c, 6, 11, 121
12, 213400, Control_c, 6, 11, 122
12, 213464, Control_c, 6, 11, 123
12, 213528, Control_c, 6, 11, 124
12, 213592, Control_c, 6, 11, 125
12, 213656, Control_c, 6, 11, 127
12, 213711, Note_on_c, 6, 63, 0
12, 213711, Note_on_c, 6, 51, 0
12, 213720, Note_on_c, 6, 63, 76
12, 213720, Note_on_c, 6, 51, 76
12, 213899, Note_on_c, 6, 63, 0
12, 213899, Note_on_c, 6, 51, 0
12, 213960, Note_on_c, 6, 51, 76
12, 213960, Note_on_c, 6, 63, 76
12, 214139, Note_on_c, 6, 51, 0
12, 214139, Note_on_c, 6, 63, 0
12, 214200, Note_on_c, 6, 63, 76
12, 214200, Note_on_c, 6, 51, 76
12, 214679, Note_on_c, 6, 63, 0
12, 214679, Note_on_c, 6, 51, 0
12, 215640, Note_on_c, 6, 67, 84
12, 215640, Note_on_c, 6, 55, 84
12, 216119, Note_on_c, 6, 67, 0
12, 216119, Note_on_c, 6, 55, 0
12, 221880, Note_on_c, 6, 67, 84
12, 221880, Note_on_c, 6, 55, 84
12, 222479, Note_on_c, 6, 67, 0
12, 222479, Note_on_c, 6, 55, 0
12, 222600, Note_on_c, 6, 55, 84
12, 222600, Note_on_c, 6, 67, 84
12, 222719, Note_on_c, 6, 55, 0
12, 222719, Note_on_c, 6, 67, 0
12, 223980, Note_on_c, 6, 55, 84
12, 223980, Note_on_c, 6, 63, 84
12, 224035, Note_on_c, 6, 55, 0
12, 224035, Note_on_c, 6, 63, 0
12, 224040, Note_on_c, 6, 63, 92
12, 224040, Note_on_c, 6, 67, 92
12, 224219, Note_on_c, 6, 63, 0
12, 224219, Note_on_c, 6, 67, 0
12, 224220, Note_on_c, 6, 63, 84
12, 224220, Note_on_c, 6, 55, 84
12, 224275, Note_on_c, 6, 63, 0
12, 224275, Note_on_c, 6, 55, 0
12, 224280, Note_on_c, 6, 58, 84
12, 224280, Note_on_c, 6, 65, 84
12, 224399, Note_on_c, 6, 58, 0
12, 224399, Note_on_c, 6, 65, 0
12, 224460, Note_on_c, 6, 58, 84
12, 224460, Note_on_c, 6, 65, 84
12, 224515, Note_on_c, 6, 58, 0
12, 224515, Note_on_c, 6, 65, 0
12, 224520, Note_on_c, 6, 68, 92
12, 224520, Note_on_c, 6, 65, 92
12, 224699, Note_on_c, 6, 68, 0
12, 224699, Note_on_c, 6, 65, 0
12, 224700, Note_on_c, 6, 58, 84
12, 224700, Note_on_c, 6, 65, 84
12, 224755, Note_on_c, 6, 58, 0
12, 224755, Note_on_c, 6, 65, 0
12, 224760, Note_on_c, 6, 55, 84
12, 224760, Note_on_c, 6, 63, 84
12, 224815, Note_on_c, 6, 55, 0
12, 224815, Note_on_c, 6, 63, 0
12, 224820, Note_on_c, 6, 63, 84
12, 224820, Note_on_c, 6, 55, 84
12, 224875, Note_on_c, 6, 63, 0
12, 224875, Note_on_c, 6, 55, 0
12, 224880, Note_on_c, 6, 63, 84
12, 224880, Note_on_c, 6, 55, 84
12, 224935, Note_on_c, 6, 63, 0
12, 224935, Note_on_c, 6, 55, 0
12, 224940, Note_on_c, 6, 55, 84
12, 224940, Note_on_c, 6, 63, 84
12, 224995, Note_on_c, 6, 55, 0
12, 224995, Note_on_c, 6, 63, 0
12, 225000, Note_on_c, 6, 67, 92
12, 225000, Note_on_c, 6, 63, 92
12, 225179, Note_on_c, 6, 67, 0
12, 225179, Note_on_c, 6, 63, 0
12, 225180, Note_on_c, 6, 55, 84
12, 225180, Note_on_c, 6, 63, 84
12, 225235, Note_on_c, 6, 55, 0
12, 225235, Note_on_c, 6, 63, 0
12, 225240, Note_on_c, 6, 58, 84
12, 225240, Note_on_c, 6, 65, 84
12, 225295, Note_on_c, 6, 58, 0
12, 225295, Note_on_c, 6, 65, 0
12, 225300, Note_on_c, 6, 65, 84
12, 225300, Note_on_c, 6, 58, 84
12, 225355, Note_on_c, 6, 65, 0
12, 225355, Note_on_c, 6, 58, 0
12, 225360, Note_on_c, 6, 58, 84
12, 225360, Note_on_c, 6, 65, 84
12, 225415, Note_on_c, 6, 58, 0
12, 225415, Note_on_c, 6, 65, 0
12, 225420, Note_on_c, 6, 65, 84
12, 225420, Note_on_c, 6, 58, 84
12, 225475, Note_on_c, 6, 65, 0
12, 225475, Note_on_c, 6, 58, 0
12, 225480, Note_on_c, 6, 68, 92
12, 225480, Note_on_c, 6, 65, 92
12, 225659, Note_on_c, 6, 68, 0
12, 225659, Note_on_c, 6, 65, 0
12, 225660, Note_on_c, 6, 65, 84
12, 225660, Note_on_c, 6, 58, 84
12, 225715, Note_on_c, 6, 65, 0
12, 225715, Note_on_c, 6, 58, 0
12, 225720, Note_on_c, 6, 63, 84
12, 225720, Note_on_c, 6, 55, 84
12, 225775, Note_on_c, 6, 63, 0
12, 225775, Note_on_c, 6, 55, 0
12, 225780, Note_on_c, 6, 63, 84
12, 225780, Note_on_c, 6, 55, 84
12, 225835, Note_on_c, 6, 63, 0
12, 225835, Note_on_c, 6, 55, 0
12, 225840, Note_on_c, 6, 55, 84
12, 225840, Note_on_c, 6, 63, 84
12, 225895, Note_on_c, 6, 55, 0
12, 225895, Note_on_c, 6, 63, 0
12, 225900, Note_on_c, 6, 55, 84
12, 225900, Note_on_c, 6, 63, 84
12, 225955, Note_on_c, 6, 55, 0
12, 225955, Note_on_c, 6, 63, 0
12, 225960, Note_on_c, 6, 67, 92
12, 225960, Note_on_c, 6, 63, 92
12, 226019, Note_on_c, 6, 67, 0
12, 226019, Note_on_c, 6, 63, 0
12, 226020, Note_on_c, 6, 55, 84
12, 226020, Note_on_c, 6, 63, 84
12, 226075, Note_on_c, 6, 55, 0
12, 226075, Note_on_c, 6, 63, 0
12, 226080, Note_on_c, 6, 63, 84
12, 226080, Note_on_c, 6, 55, 84
12, 226124, Note_on_c, 6, 63, 0
12, 226124, Note_on_c, 6, 55, 0
12, 226140, Note_on_c, 6, 63, 84
12, 226140, Note_on_c, 6, 55, 84
12, 226184, Note_on_c, 6, 63, 0
12, 226184, Note_on_c, 6, 55, 0
12, 226200, Note_on_c, 6, 65, 84
12, 226200, Note_on_c, 6, 58, 84
12, 226255, Note_on_c, 6, 65, 0
12, 226255, Note_on_c, 6, 58, 0
12, 226260, Note_on_c, 6, 65, 84
12, 226260, Note_on_c, 6, 58, 84
12, 226315, Note_on_c, 6, 65, 0
12, 226315, Note_on_c, 6, 58, 0
12, 226320, Note_on_c, 6, 65, 84
12, 226320, Note_on_c, 6, 58, 84
12, 226375, Note_on_c, 6, 65, 0
12, 226375, Note_on_c, 6, 58, 0
12, 226380, Note_on_c, 6, 65, 84
12, 226380, Note_on_c, 6, 58, 84
12, 226435, Note_on_c, 6, 65, 0
12, 226435, Note_on_c, 6, 58, 0
12, 226440, Note_on_c, 6, 65, 92
12, 226440, Note_on_c, 6, 68, 92
12, 226499, Note_on_c, 6, 65, 0
12, 226499, Note_on_c, 6, 68, 0
12, 226500, Note_on_c, 6, 58, 84
12, 226500, Note_on_c, 6, 65, 84
12, 226555, Note_on_c, 6, 58, 0
12, 226555, Note_on_c, 6, 65, 0
12, 226560, Note_on_c, 6, 58, 84
12, 226560, Note_on_c, 6, 65, 84
12, 226604, Note_on_c, 6, 58, 0
12, 226604, Note_on_c, 6, 65, 0
12, 226620, Note_on_c, 6, 65, 84
12, 226620, Note_on_c, 6, 58, 84
12, 226664, Note_on_c, 6, 65, 0
12, 226664, Note_on_c, 6, 58, 0
12, 226680, Note_on_c, 6, 70, 92
12, 226680, Note_on_c, 6, 58, 92
12, 227144, Note_on_c, 6, 70, 0
12, 227144, Note_on_c, 6, 58, 0
12, 227160, Note_on_c, 6, 46, 92
12, 227160, Note_on_c, 6, 70, 92
12, 227624, Note_on_c, 6, 46, 0
12, 227624, Note_on_c, 6, 70, 0
12, 227640, Note_on_c, 6, 46, 84
12, 227640, Note_on_c, 6, 70, 84
12, 227695, Note_on_c, 6, 46, 0
12, 227695, Note_on_c, 6, 70, 0
12, 227700, Note_on_c, 6, 70, 84
12, 227700, Note_on_c, 6, 46, 84
12, 227755, Note_on_c, 6, 70, 0
12, 227755, Note_on_c, 6, 46, 0
12, 227760, Note_on_c, 6, 46, 84
12, 227760, Note_on_c, 6, 70, 84
12, 227815, Note_on_c, 6, 46, 0
12, 227815, Note_on_c, 6, 70, 0
12, 227820, Note_on_c, 6, 46, 84
12, 227820, Note_on_c, 6, 70, 84
12, 227875, Note_on_c, 6, 46, 0
12, 227875, Note_on_c, 6, 70, 0
12, 227880, Note_on_c, 6, 70, 84
12, 227880, Note_on_c, 6, 46, 84
12, 227935, Note_on_c, 6, 70, 0
12, 227935, Note_on_c, 6, 46, 0
12, 227940, Note_on_c, 6, 70, 84
12, 227940, Note_on_c, 6, 46, 84
12, 227995, Note_on_c, 6, 70, 0
12, 227995, Note_on_c, 6, 46, 0
12, 228000, Note_on_c, 6, 70, 84
12, 228000, Note_on_c, 6, 46, 84
12, 228055, Note_on_c, 6, 70, 0
12, 228055, Note_on_c, 6, 46, 0
12, 228060, Note_on_c, 6, 46, 84
12, 228060, Note_on_c, 6, 70, 84
12, 228115, Note_on_c, 6, 46, 0
12, 228115, Note_on_c, 6, 70, 0
12, 228120, Note_on_c, 6, 46, 92
12, 228120, Note_on_c, 6, 70, 92
12, 228175, Note_on_c, 6, 46, 0
12, 228175, Note_on_c, 6, 70, 0
12, 228180, Note_on_c, 6, 46, 84
12, 228180, Note_on_c, 6, 70, 84
12, 228235, Note_on_c, 6, 46, 0
12, 228235, Note_on_c, 6, 70, 0
12, 228240, Note_on_c, 6, 70, 84
12, 228240, Note_on_c, 6, 46, 84
12, 228295, Note_on_c, 6, 70, 0
12, 228295, Note_on_c, 6, 46, 0
12, 228300, Note_on_c, 6, 46, 84
12, 228300, Note_on_c, 6, 70, 84
12, 228355, Note_on_c, 6, 46, 0
12, 228355, Note_on_c, 6, 70, 0
12, 228360, Note_on_c, 6, 46, 84
12, 228360, Note_on_c, 6, 70, 84
12, 228415, Note_on_c, 6, 46, 0
12, 228415, Note_on_c, 6, 70, 0
12, 228420, Note_on_c, 6, 70, 84
12, 228420, Note_on_c, 6, 46, 84
12, 228475, Note_on_c, 6, 70, 0
12, 228475, Note_on_c, 6, 46, 0
12, 228480, Note_on_c, 6, 70, 84
12, 228480, Note_on_c, 6, 46, 84
12, 228535, Note_on_c, 6, 70, 0
12, 228535, Note_on_c, 6, 46, 0
12, 228540, Note_on_c, 6, 70, 84
12, 228540, Note_on_c, 6, 46, 84
12, 228595, Note_on_c, 6, 70, 0
12, 228595, Note_on_c, 6, 46, 0
12, 228600, Note_on_c, 6, 70, 92
12, 228600, Note_on_c, 6, 46, 92
12, 228655, Note_on_c, 6, 70, 0
12, 228655, Note_on_c, 6, 46, 0
12, 228660, Note_on_c, 6, 70, 84
12, 228660, Note_on_c, 6, 46, 84
12, 228715, Note_on_c, 6, 70, 0
12, 228715, Note_on_c, 6, 46, 0
12, 228720, Note_on_c, 6, 70, 84
12, 228720, Note_on_c, 6, 46, 84
12, 228775, Note_on_c, 6, 70, 0
12, 228775, Note_on_c, 6, 46, 0
12, 228780, Note_on_c, 6, 46, 84
12, 228780, Note_on_c, 6, 70, 84
12, 228835, Note_on_c, 6, 46, 0
12, 228835, Note_on_c, 6, 70, 0
12, 228840, Note_on_c, 6, 46, 84
12, 228840, Note_on_c, 6, 70, 84
12, 228895, Note_on_c, 6, 46, 0
12, 228895, Note_on_c, 6, 70, 0
12, 228900, Note_on_c, 6, 46, 84
12, 228900, Note_on_c, 6, 70, 84
12, 228955, Note_on_c, 6, 46, 0
12, 228955, Note_on_c, 6, 70, 0
12, 228960, Note_on_c, 6, 46, 84
12, 228960, Note_on_c, 6, 70, 84
12, 229015, Note_on_c, 6, 46, 0
12, 229015, Note_on_c, 6, 70, 0
12, 229020, Note_on_c, 6, 70, 84
12, 229020, Note_on_c, 6, 46, 84
12, 229075, Note_on_c, 6, 70, 0
12, 229075, Note_on_c, 6, 46, 0
12, 229080, Note_on_c, 6, 70, 92
12, 229080, Note_on_c, 6, 46, 92
12, 229135, Note_on_c, 6, 70, 0
12, 229135, Note_on_c, 6, 46, 0
12, 229140, Note_on_c, 6, 70, 84
12, 229140, Note_on_c, 6, 46, 84
12, 229195, Note_on_c, 6, 70, 0
12, 229195, Note_on_c, 6, 46, 0
12, 229200, Note_on_c, 6, 70, 84
12, 229200, Note_on_c, 6, 46, 84
12, 229255, Note_on_c, 6, 70, 0
12, 229255, Note_on_c, 6, 46, 0
12, 229260, Note_on_c, 6, 70, 84
12, 229260, Note_on_c, 6, 46, 84
12, 229315, Note_on_c, 6, 70, 0
12, 229315, Note_on_c, 6, 46, 0
12, 229320, Note_on_c, 6, 70, 84
12, 229320, Note_on_c, 6, 46, 84
12, 229375, Note_on_c, 6, 70, 0
12, 229375, Note_on_c, 6, 46, 0
12, 229380, Note_on_c, 6, 70, 84
12, 229380, Note_on_c, 6, 46, 84
12, 229435, Note_on_c, 6, 70, 0
12, 229435, Note_on_c, 6, 46, 0
12, 229440, Note_on_c, 6, 70, 84
12, 229440, Note_on_c, 6, 46, 84
12, 229495, Note_on_c, 6, 70, 0
12, 229495, Note_on_c, 6, 46, 0
12, 229500, Note_on_c, 6, 70, 84
12, 229500, Note_on_c, 6, 46, 84
12, 229555, Note_on_c, 6, 70, 0
12, 229555, Note_on_c, 6, 46, 0
12, 229560, Note_on_c, 6, 70, 84
12, 229560, Note_on_c, 6, 46, 84
12, 229679, Note_on_c, 6, 70, 0
12, 229679, Note_on_c, 6, 46, 0
12, 229800, Note_on_c, 6, 63, 92
12, 229800, Note_on_c, 6, 51, 92
12, 229919, Note_on_c, 6, 63, 0
12, 229919, Note_on_c, 6, 51, 0
12, 230040, Note_on_c, 6, 63, 92
12, 230040, Note_on_c, 6, 51, 92
12, 230159, Note_on_c, 6, 63, 0
12, 230159, Note_on_c, 6, 51, 0
12, 230280, Note_on_c, 6, 63, 92
12, 230280, Note_on_c, 6, 51, 92
12, 230399, Note_on_c, 6, 63, 0
12, 230399, Note_on_c, 6, 51, 0
12, 230520, Note_on_c, 6, 63, 84
12, 230520, Note_on_c, 6, 51, 84
12, 230639, Note_on_c, 6, 63, 0
12, 230639, Note_on_c, 6, 51, 0
12, 230760, Note_on_c, 6, 63, 84
12, 230760, Note_on_c, 6, 51, 84
12, 230879, Note_on_c, 6, 63, 0
12, 230879, Note_on_c, 6, 51, 0
12, 231240, Note_on_c, 6, 58, 84
12, 231240, Note_on_c, 6, 46, 84
12, 231351, Note_on_c, 6, 58, 0
12, 231351, Note_on_c, 6, 46, 0
12, 231360, Note_on_c, 6, 58, 84
12, 231360, Note_on_c, 6, 46, 84
12, 231471, Note_on_c, 6, 58, 0
12, 231471, Note_on_c, 6, 46, 0
12, 231480, Note_on_c, 6, 63, 92
12, 231480, Note_on_c, 6, 51, 92
12, 231599, Note_on_c, 6, 63, 0
12, 231599, Note_on_c, 6, 51, 0
12, 231720, Note_on_c, 6, 63, 84
12, 231720, Note_on_c, 6, 51, 84
12, 231839, Note_on_c, 6, 63, 0
12, 231839, Note_on_c, 6, 51, 0
12, 232200, Note_on_c, 6, 58, 84
12, 232200, Note_on_c, 6, 46, 84
12, 232311, Note_on_c, 6, 58, 0
12, 232311, Note_on_c, 6, 46, 0
12, 232320, Note_on_c, 6, 58, 84
12, 232320, Note_on_c, 6, 46, 84
12, 232431, Note_on_c, 6, 58, 0
12, 232431, Note_on_c, 6, 46, 0
12, 232440, Note_on_c, 6, 63, 84
12, 232440, Note_on_c, 6, 51, 84
12, 232559, Note_on_c, 6, 63, 0
12, 232559, Note_on_c, 6, 51, 0
12, 232800, Note_on_c, 6, 67, 92
12, 232800, Note_on_c, 6, 55, 92
12, 232844, Note_on_c, 6, 67, 0
12, 232844, Note_on_c, 6, 55, 0
12, 232860, Note_on_c, 6, 63, 84
12, 232860, Note_on_c, 6, 51, 84
12, 232904, Note_on_c, 6, 63, 0
12, 232904, Note_on_c, 6, 51, 0
12, 232920, Note_on_c, 6, 67, 84
12, 232920, Note_on_c, 6, 55, 84
12, 232964, Note_on_c, 6, 67, 0
12, 232964, Note_on_c, 6, 55, 0
12, 232980, Note_on_c, 6, 63, 84
12, 232980, Note_on_c, 6, 51, 84
12, 233024, Note_on_c, 6, 63, 0
12, 233024, Note_on_c, 6, 51, 0
12, 233280, Note_on_c, 6, 70, 92
12, 233280, Note_on_c, 6, 58, 92
12, 233324, Note_on_c, 6, 70, 0
12, 233324, Note_on_c, 6, 58, 0
12, 233340, Note_on_c, 6, 67, 84
12, 233340, Note_on_c, 6, 55, 84
12, 233384, Note_on_c, 6, 67, 0
12, 233384, Note_on_c, 6, 55, 0
12, 233400, Note_on_c, 6, 70, 84
12, 233400, Note_on_c, 6, 58, 84
12, 233444, Note_on_c, 6, 70, 0
12, 233444, Note_on_c, 6, 58, 0
12, 233460, Note_on_c, 6, 67, 84
12, 233460, Note_on_c, 6, 55, 84
12, 233504, Note_on_c, 6, 67, 0
12, 233504, Note_on_c, 6, 55, 0
12, 233520, Note_on_c, 6, 63, 84
12, 233520, Note_on_c, 6, 51, 84
12, 233564, Note_on_c, 6, 63, 0
12, 233564, Note_on_c, 6, 51, 0
12, 233580, Note_on_c, 6, 58, 84
12, 233580, Note_on_c, 6, 46, 84
12, 233624, Note_on_c, 6, 58, 0
12, 233624, Note_on_c, 6, 46, 0
12, 233640, Note_on_c, 6, 63, 84
12, 233640, Note_on_c, 6, 51, 84
12, 233684, Note_on_c, 6, 63, 0
12, 233684, Note_on_c, 6, 51, 0
12, 233700, Note_on_c, 6, 58, 84
12, 233700, Note_on_c, 6, 46, 84
12, 233744, Note_on_c, 6, 58, 0
12, 233744, Note_on_c, 6, 46, 0
12, 233760, Note_on_c, 6, 67, 92
12, 233760, Note_on_c, 6, 55, 92
12, 233804, Note_on_c, 6, 67, 0
12, 233804, Note_on_c, 6, 55, 0
12, 233820, Note_on_c, 6, 63, 84
12, 233820, Note_on_c, 6, 51, 84
12, 233864, Note_on_c, 6, 63, 0
12, 233864, Note_on_c, 6, 51, 0
12, 233880, Note_on_c, 6, 67, 84
12, 233880, Note_on_c, 6, 55, 84
12, 233924, Note_on_c, 6, 67, 0
12, 233924, Note_on_c, 6, 55, 0
12, 233940, Note_on_c, 6, 63, 84
12, 233940, Note_on_c, 6, 51, 84
12, 233984, Note_on_c, 6, 63, 0
12, 233984, Note_on_c, 6, 51, 0
12, 234000, Note_on_c, 6, 70, 92
12, 234000, Note_on_c, 6, 58, 92
12, 234044, Note_on_c, 6, 70, 0
12, 234044, Note_on_c, 6, 58, 0
12, 234060, Note_on_c, 6, 67, 84
12, 234060, Note_on_c, 6, 55, 84
12, 234104, Note_on_c, 6, 67, 0
12, 234104, Note_on_c, 6, 55, 0
12, 234120, Note_on_c, 6, 70, 84
12, 234120, Note_on_c, 6, 58, 84
12, 234164, Note_on_c, 6, 70, 0
12, 234164, Note_on_c, 6, 58, 0
12, 234180, Note_on_c, 6, 67, 84
12, 234180, Note_on_c, 6, 55, 84
12, 234224, Note_on_c, 6, 67, 0
12, 234224, Note_on_c, 6, 55, 0
12, 234240, Note_on_c, 6, 70, 92
12, 234240, Note_on_c, 6, 58, 92
12, 234284, Note_on_c, 6, 70, 0
12, 234284, Note_on_c, 6, 58, 0
12, 234300, Note_on_c, 6, 67, 84
12, 234300, Note_on_c, 6, 55, 84
12, 234344, Note_on_c, 6, 67, 0
12, 234344, Note_on_c, 6, 55, 0
12, 234360, Note_on_c, 6, 67, 84
12, 234360, Note_on_c, 6, 51, 84
12, 234831, Note_on_c, 6, 67, 0
12, 234831, Note_on_c, 6, 51, 0
12, 234840, Note_on_c, 6, 67, 86
12, 234840, Note_on_c, 6, 51, 86
12, 235311, Note_on_c, 6, 67, 0
12, 235311, Note_on_c, 6, 51, 0
12, 235320, Note_on_c, 6, 67, 88
12, 235320, Note_on_c, 6, 51, 88
12, 235431, Note_on_c, 6, 67, 0
12, 235431, Note_on_c, 6, 51, 0
12, 235440, Note_on_c, 6, 67, 88
12, 235440, Note_on_c, 6, 51, 88
12, 235551, Note_on_c, 6, 67, 0
12, 235551, Note_on_c, 6, 51, 0
12, 235560, Note_on_c, 6, 67, 89
12, 235560, Note_on_c, 6, 51, 89
12, 235671, Note_on_c, 6, 67, 0
12, 235671, Note_on_c, 6, 51, 0
12, 235680, Note_on_c, 6, 67, 89
12, 235680, Note_on_c, 6, 51, 89
12, 235791, Note_on_c, 6, 67, 0
12, 235791, Note_on_c, 6, 51, 0
12, 235800, Note_on_c, 6, 67, 90
12, 235800, Note_on_c, 6, 51, 90
12, 235911, Note_on_c, 6, 67, 0
12, 235911, Note_on_c, 6, 51, 0
12, 235920, Note_on_c, 6, 67, 90
12, 235920, Note_on_c, 6, 51, 90
12, 236031, Note_on_c, 6, 67, 0
12, 236031, Note_on_c, 6, 51, 0
12, 236040, Note_on_c, 6, 67, 91
12, 236040, Note_on_c, 6, 51, 91
12, 236151, Note_on_c, 6, 67, 0
12, 236151, Note_on_c, 6, 51, 0
12, 236160, Note_on_c, 6, 67, 91
12, 236160, Note_on_c, 6, 51, 91
12, 236271, Note_on_c, 6, 67, 0
12, 236271, Note_on_c, 6, 51, 0
12, 236280, Note_on_c, 6, 67, 84
12, 236280, Note_on_c, 6, 51, 84
12, 236519, Note_on_c, 6, 67, 0
12, 236519, Note_on_c, 6, 51, 0
12, 236760, Note_on_c, 6, 67, 84
12, 236760, Note_on_c, 6, 51, 84
12, 236999, Note_on_c, 6, 67, 0
12, 236999, Note_on_c, 6, 51, 0
12, 237240, Note_on_c, 6, 67, 84
12, 237240, Note_on_c, 6, 51, 84
12, 237359, Note_on_c, 6, 67, 0
12, 237359, Note_on_c, 6, 51, 0
12, 237480, Note_on_c, 6, 67, 84
12, 237480, Note_on_c, 6, 51, 84
12, 237599, Note_on_c, 6, 67, 0
12, 237599, Note_on_c, 6, 51, 0
12, 237720, Note_on_c, 6, 67, 84
12, 237720, Note_on_c, 6, 51, 84
12, 237839, Note_on_c, 6, 67, 0
12, 237839, Note_on_c, 6, 51, 0
12, 237960, Note_on_c, 6, 67, 84
12, 237960, Note_on_c, 6, 51, 84
12, 238079, Note_on_c, 6, 67, 0
12, 238079, Note_on_c, 6, 51, 0
12, 238200, Note_on_c, 6, 67, 84
12, 238200, Note_on_c, 6, 51, 84
12, 238319, Note_on_c, 6, 67, 0
12, 238319, Note_on_c, 6, 51, 0
12, 238680, Note_on_c, 6, 67, 84
12, 238680, Note_on_c, 6, 51, 84
12, 238799, Note_on_c, 6, 67, 0
12, 238799, Note_on_c, 6, 51, 0
12, 239160, Note_on_c, 6, 63, 84
12, 239160, Note_on_c, 6, 51, 84
12, 239279, Note_on_c, 6, 63, 0
12, 239279, Note_on_c, 6, 51, 0
12, 239400, Note_on_c, 6, 63, 84
12, 239400, Note_on_c, 6, 51, 84
12, 239519, Note_on_c, 6, 63, 0
12, 239519, Note_on_c, 6, 51, 0
12, 239640, Note_on_c, 6, 63, 84
12, 239640, Note_on_c, 6, 51, 84
12, 239759, Note_on_c, 6, 63, 0
12, 239759, Note_on_c, 6, 51, 0
12, 239880, Note_on_c, 6, 63, 84
12, 239880, Note_on_c, 6, 51, 84
12, 239999, Note_on_c, 6, 63, 0
12, 239999, Note_on_c, 6, 51, 0
12, 240120, Note_on_c, 6, 63, 84
12, 240120, Note_on_c, 6, 51, 84
12, 240655, Note_on_c, 6, 63, 0
12, 240655, Note_on_c, 6, 51, 0
12, 240660, Note_on_c, 6, 63, 84
12, 240660, Note_on_c, 6, 51, 84
12, 240715, Note_on_c, 6, 63, 0
12, 240715, Note_on_c, 6, 51, 0
12, 240720, Note_on_c, 6, 63, 84
12, 240720, Note_on_c, 6, 51, 84
12, 240775, Note_on_c, 6, 63, 0
12, 240775, Note_on_c, 6, 51, 0
12, 240780, Note_on_c, 6, 63, 84
12, 240780, Note_on_c, 6, 51, 84
12, 240835, Note_on_c, 6, 63, 0
12, 240835, Note_on_c, 6, 51, 0
12, 240840, Note_on_c, 6, 63, 84
12, 240840, Note_on_c, 6, 51, 84
12, 240895, Note_on_c, 6, 63, 0
12, 240895, Note_on_c, 6, 51, 0
12, 240900, Note_on_c, 6, 63, 84
12, 240900, Note_on_c, 6, 51, 84
12, 240955, Note_on_c, 6, 63, 0
12, 240955, Note_on_c, 6, 51, 0
12, 240960, Note_on_c, 6, 63, 84
12, 240960, Note_on_c, 6, 51, 84
12, 241015, Note_on_c, 6, 63, 0
12, 241015, Note_on_c, 6, 51, 0
12, 241020, Note_on_c, 6, 63, 84
12, 241020, Note_on_c, 6, 51, 84
12, 241075, Note_on_c, 6, 63, 0
12, 241075, Note_on_c, 6, 51, 0
12, 241080, Note_on_c, 6, 63, 84
12, 241080, Note_on_c, 6, 51, 84
12, 241199, Note_on_c, 6, 63, 0
12, 241199, Note_on_c, 6, 51, 0
12, 241560, Note_on_c, 6, 63, 84
12, 241560, Note_on_c, 6, 51, 84
12, 241679, Note_on_c, 6, 63, 0
12, 241679, Note_on_c, 6, 51, 0
12, 242040, Note_on_c, 6, 63, 84
12, 242040, Note_on_c, 6, 51, 84
12, 242279, Note_on_c, 6, 63, 0
12, 242279, Note_on_c, 6, 51, 0
12, 242279, End_track
13, 0, Start_track
13, 0, Title_t, "French Horn III in E-flat"
13, 0, MIDI_port, 0
13, 0, Program_c, 7, 60
13, 0, Control_c, 7, 7, 96
13, 0, Control_c, 7, 10, 50
13, 0, Control_c, 7, 11, 127
13, 3000, Note_on_c, 7, 58, 84
13, 3239, Note_on_c, 7, 58, 0
13, 3480, Note_on_c, 7, 58, 84
13, 3659, Note_on_c, 7, 58, 0
13, 3720, Note_on_c, 7, 58, 84
13, 3899, Note_on_c, 7, 58, 0
13, 3960, Note_on_c, 7, 58, 84
13, 4139, Note_on_c, 7, 58, 0
13, 4200, Note_on_c, 7, 58, 92
13, 4379, Note_on_c, 7, 58, 0
13, 4680, Note_on_c, 7, 65, 92
13, 4904, Note_on_c, 7, 65, 0
13, 4920, Note_on_c, 7, 65, 92
13, 5399, Note_on_c, 7, 65, 0
13, 13560, Note_on_c, 7, 58, 84
13, 13649, Note_on_c, 7, 58, 0
13, 13680, Note_on_c, 7, 58, 84
13, 13769, Note_on_c, 7, 58, 0
13, 13800, Note_on_c, 7, 58, 84
13, 13889, Note_on_c, 7, 58, 0
13, 14520, Note_on_c, 7, 58, 52
13, 14879, Note_on_c, 7, 58, 0
13, 17400, Note_on_c, 7, 58, 84
13, 17489, Note_on_c, 7, 58, 0
13, 17520, Note_on_c, 7, 58, 84
13, 17609, Note_on_c, 7, 58, 0
13, 17640, Note_on_c, 7, 58, 84
13, 17729, Note_on_c, 7, 58, 0
13, 18360, Note_on_c, 7, 58, 52
13, 18719, Note_on_c, 7, 58, 0
13, 53160, Control_c, 7, 11, 96
13, 53400, Note_on_c, 7, 58, 68
13, 53400, Control_c, 7, 11, 96
13, 53440, Control_c, 7, 11, 99
13, 53480, Control_c, 7, 11, 101
13, 53520, Control_c, 7, 11, 104
13, 53560, Control_c, 7, 11, 106
13, 53600, Control_c, 7, 11, 109
13, 53624, Note_on_c, 7, 58, 0
13, 53640, Note_on_c, 7, 58, 68
13, 53640, Control_c, 7, 11, 112
13, 53680, Control_c, 7, 11, 114
13, 53720, Control_c, 7, 11, 117
13, 53760, Control_c, 7, 11, 119
13, 53800, Control_c, 7, 11, 122
13, 53840, Control_c, 7, 11, 124
13, 53864, Note_on_c, 7, 58, 0
13, 53880, Control_c, 7, 11, 127
13, 53880, Note_on_c, 7, 58, 76
13, 54224, Note_on_c, 7, 58, 0
13, 54240, Note_on_c, 7, 58, 68
13, 54329, Note_on_c, 7, 58, 0
13, 54360, Note_on_c, 7, 58, 68
13, 54449, Note_on_c, 7, 58, 0
13, 54480, Note_on_c, 7, 58, 64
13, 54569, Note_on_c, 7, 58, 0
13, 54600, Note_on_c, 7, 63, 60
13, 54689, Note_on_c, 7, 63, 0
13, 54720, Note_on_c, 7, 63, 56
13, 54809, Note_on_c, 7, 63, 0
13, 54840, Note_on_c, 7, 63, 52
13, 55079, Note_on_c, 7, 63, 0
13, 55080, Note_on_c, 7, 58, 52
13, 55199, Note_on_c, 7, 58, 0
13, 55440, Note_on_c, 7, 67, 76
13, 55529, Note_on_c, 7, 67, 0
13, 55560, Note_on_c, 7, 67, 76
13, 55649, Note_on_c, 7, 67, 0
13, 55680, Note_on_c, 7, 67, 76
13, 55769, Note_on_c, 7, 67, 0
13, 55920, Note_on_c, 7, 68, 76
13, 56009, Note_on_c, 7, 68, 0
13, 56040, Note_on_c, 7, 68, 76
13, 56129, Note_on_c, 7, 68, 0
13, 56160, Note_on_c, 7, 68, 76
13, 56249, Note_on_c, 7, 68, 0
13, 56400, Note_on_c, 7, 65, 76
13, 56489, Note_on_c, 7, 65, 0
13, 56520, Note_on_c, 7, 65, 76
13, 56609, Note_on_c, 7, 65, 0
13, 56640, Note_on_c, 7, 65, 76
13, 56729, Note_on_c, 7, 65, 0
13, 56880, Note_on_c, 7, 63, 76
13, 56969, Note_on_c, 7, 63, 0
13, 57000, Note_on_c, 7, 63, 76
13, 57089, Note_on_c, 7, 63, 0
13, 57120, Note_on_c, 7, 63, 76
13, 57209, Note_on_c, 7, 63, 0
13, 57240, Note_on_c, 7, 67, 76
13, 57344, Note_on_c, 7, 67, 0
13, 57360, Note_on_c, 7, 67, 76
13, 57464, Note_on_c, 7, 67, 0
13, 57480, Note_on_c, 7, 65, 76
13, 57584, Note_on_c, 7, 65, 0
13, 57600, Note_on_c, 7, 65, 76
13, 57704, Note_on_c, 7, 65, 0
13, 57720, Note_on_c, 7, 67, 84
13, 57839, Note_on_c, 7, 67, 0
13, 58320, Note_on_c, 7, 58, 76
13, 58424, Note_on_c, 7, 58, 0
13, 58440, Note_on_c, 7, 63, 76
13, 58544, Note_on_c, 7, 63, 0
13, 58560, Note_on_c, 7, 63, 76
13, 58664, Note_on_c, 7, 63, 0
13, 58680, Note_on_c, 7, 63, 76
13, 58919, Note_on_c, 7, 63, 0
13, 58920, Note_on_c, 7, 58, 76
13, 59039, Note_on_c, 7, 58, 0
13, 63120, Note_on_c, 7, 58, 76
13, 63209, Note_on_c, 7, 58, 0
13, 63240, Note_on_c, 7, 58, 76
13, 63329, Note_on_c, 7, 58, 0
13, 63360, Note_on_c, 7, 58, 76
13, 63449, Note_on_c, 7, 58, 0
13, 63480, Note_on_c, 7, 58, 76
13, 63584, Note_on_c, 7, 58, 0
13, 63600, Note_on_c, 7, 58, 76
13, 63704, Note_on_c, 7, 58, 0
13, 63720, Note_on_c, 7, 58, 76
13, 63839, Note_on_c, 7, 58, 0
13, 64080, Note_on_c, 7, 58, 76
13, 64184, Note_on_c, 7, 58, 0
13, 64200, Note_on_c, 7, 58, 76
13, 64304, Note_on_c, 7, 58, 0
13, 64320, Note_on_c, 7, 58, 76
13, 64424, Note_on_c, 7, 58, 0
13, 64440, Note_on_c, 7, 58, 76
13, 64799, Note_on_c, 7, 58, 0
13, 65040, Note_on_c, 7, 58, 76
13, 65129, Note_on_c, 7, 58, 0
13, 65160, Note_on_c, 7, 58, 76
13, 65249, Note_on_c, 7, 58, 0
13, 65280, Note_on_c, 7, 58, 76
13, 65369, Note_on_c, 7, 58, 0
13, 65520, Note_on_c, 7, 63, 76
13, 65624, Note_on_c, 7, 63, 0
13, 65640, Note_on_c, 7, 63, 76
13, 65744, Note_on_c, 7, 63, 0
13, 65760, Note_on_c, 7, 63, 76
13, 65864, Note_on_c, 7, 63, 0
13, 65880, Note_on_c, 7, 63, 76
13, 65984, Note_on_c, 7, 63, 0
13, 66000, Note_on_c, 7, 63, 76
13, 66104, Note_on_c, 7, 63, 0
13, 66120, Note_on_c, 7, 58, 76
13, 66224, Note_on_c, 7, 58, 0
13, 66240, Note_on_c, 7, 58, 76
13, 66344, Note_on_c, 7, 58, 0
13, 66360, Note_on_c, 7, 55, 76
13, 66479, Note_on_c, 7, 55, 0
13, 70200, Note_on_c, 7, 67, 84
13, 70379, Note_on_c, 7, 67, 0
13, 70440, Note_on_c, 7, 67, 84
13, 70619, Note_on_c, 7, 67, 0
13, 70680, Note_on_c, 7, 67, 84
13, 70859, Note_on_c, 7, 67, 0
13, 123960, Note_on_c, 7, 67, 76
13, 124424, Note_on_c, 7, 67, 0
13, 124440, Note_on_c, 7, 67, 76
13, 124904, Note_on_c, 7, 67, 0
13, 124920, Note_on_c, 7, 67, 76
13, 125144, Note_on_c, 7, 67, 0
13, 125160, Note_on_c, 7, 67, 76
13, 125384, Note_on_c, 7, 67, 0
13, 125400, Note_on_c, 7, 67, 76
13, 125759, Note_on_c, 7, 67, 0
13, 127800, Note_on_c, 7, 67, 76
13, 128264, Note_on_c, 7, 67, 0
13, 128280, Note_on_c, 7, 67, 76
13, 128744, Note_on_c, 7, 67, 0
13, 128760, Note_on_c, 7, 67, 76
13, 128924, Note_on_c, 7, 67, 0
13, 128940, Note_on_c, 7, 67, 76
13, 128984, Note_on_c, 7, 67, 0
13, 129000, Note_on_c, 7, 67, 76
13, 129164, Note_on_c, 7, 67, 0
13, 129180, Note_on_c, 7, 67, 76
13, 129224, Note_on_c, 7, 67, 0
13, 129240, Note_on_c, 7, 67, 76
13, 129599, Note_on_c, 7, 67, 0
13, 135000, Note_on_c, 7, 67, 76
13, 135239, Note_on_c, 7, 67, 0
13, 135480, Note_on_c, 7, 67, 76
13, 135719, Note_on_c, 7, 67, 0
13, 135960, Note_on_c, 7, 67, 76
13, 136199, Note_on_c, 7, 67, 0
13, 136440, Note_on_c, 7, 67, 76
13, 136679, Note_on_c, 7, 67, 0
13, 136920, Note_on_c, 7, 67, 76
13, 137159, Note_on_c, 7, 67, 0
13, 137400, Note_on_c, 7, 67, 76
13, 137639, Note_on_c, 7, 67, 0
13, 137880, Note_on_c, 7, 67, 52
13, 140744, Note_on_c, 7, 67, 0
13, 140752, Control_c, 7, 11, 96
13, 140760, Note_on_c, 7, 67, 68
13, 140760, Control_c, 7, 11, 96
13, 140800, Control_c, 7, 11, 99
13, 140840, Control_c, 7, 11, 101
13, 140880, Control_c, 7, 11, 104
13, 140920, Control_c, 7, 11, 106
13, 140960, Control_c, 7, 11, 109
13, 140984, Note_on_c, 7, 67, 0
13, 141000, Note_on_c, 7, 67, 68
13, 141000, Control_c, 7, 11, 112
13, 141040, Control_c, 7, 11, 114
13, 141080, Control_c, 7, 11, 117
13, 141120, Control_c, 7, 11, 119
13, 141160, Control_c, 7, 11, 122
13, 141200, Control_c, 7, 11, 127
13, 141224, Note_on_c, 7, 67, 0
13, 141240, Note_on_c, 7, 67, 76
13, 141300, Control_c, 7, 11, 112
13, 141335, Control_c, 7, 11, 109
13, 141370, Control_c, 7, 11, 107
13, 141405, Control_c, 7, 11, 104
13, 141440, Control_c, 7, 11, 101
13, 141475, Control_c, 7, 11, 99
13, 141510, Control_c, 7, 11, 96
13, 141545, Control_c, 7, 11, 93
13, 141580, Control_c, 7, 11, 91
13, 141615, Control_c, 7, 11, 88
13, 141650, Control_c, 7, 11, 85
13, 141685, Control_c, 7, 11, 80
13, 141824, Note_on_c, 7, 67, 0
13, 141840, Note_on_c, 7, 67, 76
13, 142064, Note_on_c, 7, 67, 0
13, 142080, Note_on_c, 7, 67, 76
13, 142184, Note_on_c, 7, 67, 0
13, 142200, Note_on_c, 7, 67, 76
13, 142559, Note_on_c, 7, 67, 0
13, 147000, Control_c, 7, 11, 127
13, 147480, Note_on_c, 7, 58, 52
13, 147944, Note_on_c, 7, 58, 0
13, 147960, Note_on_c, 7, 63, 52
13, 148079, Note_on_c, 7, 63, 0
13, 160560, Note_on_c, 7, 63, 76
13, 160649, Note_on_c, 7, 63, 0
13, 160680, Note_on_c, 7, 67, 84
13, 161024, Note_on_c, 7, 67, 0
13, 161040, Note_on_c, 7, 63, 76
13, 161129, Note_on_c, 7, 63, 0
13, 161160, Note_on_c, 7, 58, 76
13, 161489, Note_on_c, 7, 58, 0
13, 161520, Note_on_c, 7, 65, 76
13, 161609, Note_on_c, 7, 65, 0
13, 161640, Note_on_c, 7, 68, 76
13, 161729, Note_on_c, 7, 68, 0
13, 161760, Note_on_c, 7, 65, 76
13, 161849, Note_on_c, 7, 65, 0
13, 161880, Note_on_c, 7, 63, 76
13, 161969, Note_on_c, 7, 63, 0
13, 162000, Note_on_c, 7, 67, 76
13, 162089, Note_on_c, 7, 67, 0
13, 162120, Note_on_c, 7, 70, 76
13, 162329, Note_on_c, 7, 70, 0
13, 162360, Note_on_c, 7, 70, 76
13, 162569, Note_on_c, 7, 70, 0
13, 162600, Note_on_c, 7, 70, 76
13, 162809, Note_on_c, 7, 70, 0
13, 165960, Note_on_c, 7, 63, 84
13, 166664, Note_on_c, 7, 63, 0
13, 166680, Note_on_c, 7, 70, 84
13, 167144, Note_on_c, 7, 70, 0
13, 167160, Note_on_c, 7, 58, 84
13, 167624, Note_on_c, 7, 58, 0
13, 167640, Note_on_c, 7, 63, 84
13, 167984, Note_on_c, 7, 63, 0
13, 168000, Note_on_c, 7, 67, 84
13, 168104, Note_on_c, 7, 67, 0
13, 168120, Note_on_c, 7, 65, 84
13, 168224, Note_on_c, 7, 65, 0
13, 168240, Note_on_c, 7, 65, 84
13, 168344, Note_on_c, 7, 65, 0
13, 168360, Note_on_c, 7, 65, 84
13, 168464, Note_on_c, 7, 65, 0
13, 168480, Note_on_c, 7, 65, 84
13, 168584, Note_on_c, 7, 65, 0
13, 168600, Note_on_c, 7, 63, 84
13, 168944, Note_on_c, 7, 63, 0
13, 168960, Note_on_c, 7, 67, 84
13, 169064, Note_on_c, 7, 67, 0
13, 169080, Note_on_c, 7, 67, 84
13, 169184, Note_on_c, 7, 67, 0
13, 169200, Note_on_c, 7, 67, 84
13, 169304, Note_on_c, 7, 67, 0
13, 169320, Note_on_c, 7, 67, 84
13, 169424, Note_on_c, 7, 67, 0
13, 169440, Note_on_c, 7, 67, 84
13, 169544, Note_on_c, 7, 67, 0
13, 169560, Note_on_c, 7, 67, 84
13, 169664, Note_on_c, 7, 67, 0
13, 169680, Note_on_c, 7, 63, 84
13, 169784, Note_on_c, 7, 63, 0
13, 169800, Note_on_c, 7, 63, 84
13, 169904, Note_on_c, 7, 63, 0
13, 169920, Note_on_c, 7, 63, 84
13, 170024, Note_on_c, 7, 63, 0
13, 170040, Note_on_c, 7, 63, 84
13, 170144, Note_on_c, 7, 63, 0
13, 170160, Note_on_c, 7, 63, 84
13, 170264, Note_on_c, 7, 63, 0
13, 170280, Note_on_c, 7, 63, 84
13, 170384, Note_on_c, 7, 63, 0
13, 170400, Note_on_c, 7, 63, 84
13, 170504, Note_on_c, 7, 63, 0
13, 170520, Note_on_c, 7, 63, 84
13, 170639, Note_on_c, 7, 63, 0
13, 171600, Note_on_c, 7, 58, 84
13, 171824, Note_on_c, 7, 58, 0
13, 171840, Note_on_c, 7, 58, 84
13, 171944, Note_on_c, 7, 58, 0
13, 171960, Note_on_c, 7, 58, 84
13, 172064, Note_on_c, 7, 58, 0
13, 172080, Note_on_c, 7, 63, 84
13, 172184, Note_on_c, 7, 63, 0
13, 172200, Note_on_c, 7, 63, 84
13, 172304, Note_on_c, 7, 63, 0
13, 172320, Note_on_c, 7, 63, 84
13, 172424, Note_on_c, 7, 63, 0
13, 172440, Note_on_c, 7, 58, 84
13, 172904, Note_on_c, 7, 58, 0
13, 172920, Note_on_c, 7, 63, 84
13, 173144, Note_on_c, 7, 63, 0
13, 173160, Note_on_c, 7, 63, 84
13, 173399, Note_on_c, 7, 63, 0
13, 175320, Note_on_c, 7, 58, 84
13, 175544, Note_on_c, 7, 58, 0
13, 175560, Note_on_c, 7, 58, 84
13, 175784, Note_on_c, 7, 58, 0
13, 175800, Note_on_c, 7, 58, 84
13, 176024, Note_on_c, 7, 58, 0
13, 176040, Note_on_c, 7, 58, 84
13, 176264, Note_on_c, 7, 58, 0
13, 176280, Note_on_c, 7, 58, 84
13, 176504, Note_on_c, 7, 58, 0
13, 176520, Note_on_c, 7, 58, 84
13, 176744, Note_on_c, 7, 58, 0
13, 176760, Note_on_c, 7, 58, 84
13, 176984, Note_on_c, 7, 58, 0
13, 177000, Note_on_c, 7, 58, 84
13, 177224, Note_on_c, 7, 58, 0
13, 177240, Note_on_c, 7, 65, 84
13, 177344, Note_on_c, 7, 65, 0
13, 177360, Note_on_c, 7, 58, 84
13, 177464, Note_on_c, 7, 58, 0
13, 177480, Note_on_c, 7, 65, 84
13, 177584, Note_on_c, 7, 65, 0
13, 177600, Note_on_c, 7, 58, 84
13, 177704, Note_on_c, 7, 58, 0
13, 177720, Note_on_c, 7, 65, 84
13, 177824, Note_on_c, 7, 65, 0
13, 177840, Note_on_c, 7, 58, 84
13, 177944, Note_on_c, 7, 58, 0
13, 177960, Note_on_c, 7, 65, 84
13, 178064, Note_on_c, 7, 65, 0
13, 178080, Note_on_c, 7, 58, 84
13, 178184, Note_on_c, 7, 58, 0
13, 178200, Note_on_c, 7, 65, 84
13, 178304, Note_on_c, 7, 65, 0
13, 178320, Note_on_c, 7, 58, 84
13, 178424, Note_on_c, 7, 58, 0
13, 178440, Note_on_c, 7, 65, 84
13, 178544, Note_on_c, 7, 65, 0
13, 178560, Note_on_c, 7, 58, 84
13, 178664, Note_on_c, 7, 58, 0
13, 178680, Note_on_c, 7, 65, 84
13, 178784, Note_on_c, 7, 65, 0
13, 178800, Note_on_c, 7, 58, 84
13, 178904, Note_on_c, 7, 58, 0
13, 178920, Note_on_c, 7, 65, 84
13, 179024, Note_on_c, 7, 65, 0
13, 179040, Note_on_c, 7, 58, 84
13, 179144, Note_on_c, 7, 58, 0
13, 179160, Note_on_c, 7, 68, 84
13, 180359, Note_on_c, 7, 68, 0
13, 181320, Note_on_c, 7, 65, 92
13, 181769, Note_on_c, 7, 65, 0
13, 181800, Note_on_c, 7, 68, 92
13, 182369, Note_on_c, 7, 68, 0
13, 182520, Note_on_c, 7, 58, 52
13, 182751, Note_on_c, 7, 58, 0
13, 182760, Note_on_c, 7, 58, 52
13, 182991, Note_on_c, 7, 58, 0
13, 183000, Note_on_c, 7, 58, 52
13, 183359, Note_on_c, 7, 58, 0
13, 185280, Note_on_c, 7, 63, 52
13, 185391, Note_on_c, 7, 63, 0
13, 185400, Note_on_c, 7, 63, 52
13, 185519, Note_on_c, 7, 63, 0
13, 185520, Note_on_c, 7, 68, 52
13, 185639, Note_on_c, 7, 68, 0
13, 185640, Note_on_c, 7, 67, 52
13, 185759, Note_on_c, 7, 67, 0
13, 185760, Note_on_c, 7, 63, 52
13, 185871, Note_on_c, 7, 63, 0
13, 185880, Note_on_c, 7, 58, 52
13, 186239, Note_on_c, 7, 58, 0
13, 186600, Note_on_c, 7, 63, 52
13, 186809, Note_on_c, 7, 63, 0
13, 186810, Note_on_c, 7, 58, 52
13, 186835, Note_on_c, 7, 58, 0
13, 186840, Note_on_c, 7, 58, 52
13, 187079, Note_on_c, 7, 58, 0
13, 187560, Note_on_c, 7, 65, 68
13, 187769, Note_on_c, 7, 65, 0
13, 187770, Note_on_c, 7, 63, 52
13, 187795, Note_on_c, 7, 63, 0
13, 187800, Note_on_c, 7, 63, 52
13, 188039, Note_on_c, 7, 63, 0
13, 188500, Control_c, 7, 11, 110
13, 188520, Note_on_c, 7, 68, 68
13, 188520, Control_c, 7, 11, 112
13, 188540, Control_c, 7, 11, 113
13, 188560, Control_c, 7, 11, 114
13, 188580, Control_c, 7, 11, 115
13, 188600, Control_c, 7, 11, 117
13, 188620, Control_c, 7, 11, 118
13, 188640, Control_c, 7, 11, 119
13, 188660, Control_c, 7, 11, 121
13, 188680, Control_c, 7, 11, 122
13, 188700, Control_c, 7, 11, 123
13, 188720, Control_c, 7, 11, 124
13, 188729, Note_on_c, 7, 68, 0
13, 188730, Note_on_c, 7, 67, 68
13, 188740, Control_c, 7, 11, 127
13, 188755, Note_on_c, 7, 67, 0
13, 188760, Note_on_c, 7, 67, 76
13, 188790, Control_c, 7, 11, 112
13, 188809, Control_c, 7, 11, 111
13, 188828, Control_c, 7, 11, 109
13, 188846, Control_c, 7, 11, 108
13, 188865, Control_c, 7, 11, 107
13, 188884, Control_c, 7, 11, 105
13, 188903, Control_c, 7, 11, 104
13, 188921, Control_c, 7, 11, 103
13, 188940, Control_c, 7, 11, 101
13, 188959, Control_c, 7, 11, 100
13, 188978, Control_c, 7, 11, 99
13, 188996, Control_c, 7, 11, 97
13, 189015, Control_c, 7, 11, 96
13, 189034, Control_c, 7, 11, 95
13, 189053, Control_c, 7, 11, 93
13, 189071, Control_c, 7, 11, 92
13, 189090, Control_c, 7, 11, 91
13, 189104, Note_on_c, 7, 67, 0
13, 189109, Control_c, 7, 11, 89
13, 189120, Note_on_c, 7, 67, 76
13, 189128, Control_c, 7, 11, 88
13, 189146, Control_c, 7, 11, 87
13, 189165, Control_c, 7, 11, 85
13, 189184, Control_c, 7, 11, 84
13, 189203, Control_c, 7, 11, 83
13, 189221, Control_c, 7, 11, 80
13, 189239, Note_on_c, 7, 67, 0
13, 189240, Note_on_c, 7, 67, 76
13, 189351, Note_on_c, 7, 67, 0
13, 189360, Note_on_c, 7, 65, 76
13, 189479, Note_on_c, 7, 65, 0
13, 189480, Note_on_c, 7, 65, 76
13, 189591, Note_on_c, 7, 65, 0
13, 189600, Note_on_c, 7, 63, 76
13, 189711, Note_on_c, 7, 63, 0
13, 189720, Note_on_c, 7, 63, 76
13, 189959, Note_on_c, 7, 63, 0
13, 189960, Note_on_c, 7, 58, 76
13, 190079, Note_on_c, 7, 58, 0
13, 192120, Control_c, 7, 11, 127
13, 192600, Note_on_c, 7, 63, 68
13, 193071, Note_on_c, 7, 63, 0
13, 193078, Control_c, 7, 11, 96
13, 193080, Note_on_c, 7, 63, 68
13, 193080, Control_c, 7, 11, 96
13, 193093, Control_c, 7, 11, 98
13, 193107, Control_c, 7, 11, 99
13, 193120, Control_c, 7, 11, 101
13, 193133, Control_c, 7, 11, 103
13, 193147, Control_c, 7, 11, 105
13, 193160, Control_c, 7, 11, 106
13, 193173, Control_c, 7, 11, 108
13, 193187, Control_c, 7, 11, 110
13, 193200, Control_c, 7, 11, 112
13, 193213, Control_c, 7, 11, 113
13, 193227, Control_c, 7, 11, 115
13, 193240, Control_c, 7, 11, 117
13, 193253, Control_c, 7, 11, 118
13, 193267, Control_c, 7, 11, 120
13, 193280, Control_c, 7, 11, 122
13, 193293, Control_c, 7, 11, 124
13, 193307, Control_c, 7, 11, 125
13, 193319, Note_on_c, 7, 63, 0
13, 193320, Control_c, 7, 11, 127
13, 193320, Note_on_c, 7, 58, 68
13, 193333, Control_c, 7, 11, 125
13, 193347, Control_c, 7, 11, 124
13, 193360, Control_c, 7, 11, 122
13, 193373, Control_c, 7, 11, 120
13, 193387, Control_c, 7, 11, 118
13, 193400, Control_c, 7, 11, 117
13, 193413, Control_c, 7, 11, 115
13, 193427, Control_c, 7, 11, 113
13, 193440, Control_c, 7, 11, 112
13, 193453, Control_c, 7, 11, 110
13, 193467, Control_c, 7, 11, 108
13, 193480, Control_c, 7, 11, 106
13, 193493, Control_c, 7, 11, 105
13, 193507, Control_c, 7, 11, 103
13, 193520, Control_c, 7, 11, 101
13, 193533, Control_c, 7, 11, 99
13, 193547, Control_c, 7, 11, 96
13, 193551, Note_on_c, 7, 58, 0
13, 193560, Note_on_c, 7, 63, 68
13, 193679, Note_on_c, 7, 63, 0
13, 194520, Control_c, 7, 11, 127
13, 194580, Note_on_c, 7, 65, 52
13, 194624, Note_on_c, 7, 65, 0
13, 194640, Note_on_c, 7, 68, 52
13, 194684, Note_on_c, 7, 68, 0
13, 194700, Note_on_c, 7, 65, 52
13, 194744, Note_on_c, 7, 65, 0
13, 194760, Note_on_c, 7, 68, 52
13, 194804, Note_on_c, 7, 68, 0
13, 194820, Note_on_c, 7, 65, 52
13, 194864, Note_on_c, 7, 65, 0
13, 194880, Note_on_c, 7, 68, 52
13, 194924, Note_on_c, 7, 68, 0
13, 194940, Note_on_c, 7, 65, 52
13, 194984, Note_on_c, 7, 65, 0
13, 195540, Note_on_c, 7, 65, 52
13, 195584, Note_on_c, 7, 65, 0
13, 195600, Note_on_c, 7, 68, 52
13, 195644, Note_on_c, 7, 68, 0
13, 195660, Note_on_c, 7, 65, 52
13, 195704, Note_on_c, 7, 65, 0
13, 195720, Note_on_c, 7, 68, 52
13, 195764, Note_on_c, 7, 68, 0
13, 195780, Note_on_c, 7, 65, 52
13, 195824, Note_on_c, 7, 65, 0
13, 195840, Note_on_c, 7, 68, 52
13, 195884, Note_on_c, 7, 68, 0
13, 195900, Note_on_c, 7, 65, 52
13, 195944, Note_on_c, 7, 65, 0
13, 195960, Note_on_c, 7, 67, 52
13, 196079, Note_on_c, 7, 67, 0
13, 196260, Note_on_c, 7, 63, 53
13, 196315, Note_on_c, 7, 63, 0
13, 196320, Note_on_c, 7, 67, 54
13, 196375, Note_on_c, 7, 67, 0
13, 196380, Note_on_c, 7, 63, 56
13, 196439, Note_on_c, 7, 63, 0
13, 196740, Note_on_c, 7, 63, 64
13, 196795, Note_on_c, 7, 63, 0
13, 196800, Note_on_c, 7, 65, 65
13, 196855, Note_on_c, 7, 65, 0
13, 196860, Note_on_c, 7, 63, 66
13, 196915, Note_on_c, 7, 63, 0
13, 196918, Control_c, 7, 11, 96
13, 196920, Note_on_c, 7, 63, 68
13, 196920, Control_c, 7, 11, 96
13, 196940, Control_c, 7, 11, 99
13, 196960, Control_c, 7, 11, 101
13, 196980, Control_c, 7, 11, 104
13, 197000, Control_c, 7, 11, 106
13, 197020, Control_c, 7, 11, 109
13, 197040, Control_c, 7, 11, 112
13, 197060, Control_c, 7, 11, 114
13, 197080, Control_c, 7, 11, 117
13, 197100, Control_c, 7, 11, 119
13, 197120, Control_c, 7, 11, 122
13, 197140, Control_c, 7, 11, 124
13, 197159, Note_on_c, 7, 63, 0
13, 197160, Control_c, 7, 11, 127
13, 197160, Note_on_c, 7, 65, 68
13, 197180, Control_c, 7, 11, 124
13, 197200, Control_c, 7, 11, 122
13, 197220, Control_c, 7, 11, 119
13, 197240, Control_c, 7, 11, 117
13, 197260, Control_c, 7, 11, 114
13, 197280, Control_c, 7, 11, 112
13, 197300, Control_c, 7, 11, 109
13, 197320, Control_c, 7, 11, 106
13, 197340, Control_c, 7, 11, 104
13, 197360, Control_c, 7, 11, 101
13, 197380, Control_c, 7, 11, 96
13, 197391, Note_on_c, 7, 65, 0
13, 197400, Note_on_c, 7, 63, 68
13, 197519, Note_on_c, 7, 63, 0
13, 197730, Control_c, 7, 11, 127
13, 198000, Note_on_c, 7, 58, 84
13, 198089, Note_on_c, 7, 58, 0
13, 198120, Note_on_c, 7, 58, 92
13, 198464, Note_on_c, 7, 58, 0
13, 198480, Note_on_c, 7, 58, 84
13, 198569, Note_on_c, 7, 58, 0
13, 198600, Note_on_c, 7, 58, 92
13, 198944, Note_on_c, 7, 58, 0
13, 198960, Note_on_c, 7, 58, 84
13, 199049, Note_on_c, 7, 58, 0
13, 199080, Note_on_c, 7, 58, 92
13, 199424, Note_on_c, 7, 58, 0
13, 199440, Note_on_c, 7, 58, 84
13, 199529, Note_on_c, 7, 58, 0
13, 199560, Note_on_c, 7, 58, 92
13, 199851, Note_on_c, 7, 58, 0
13, 199860, Note_on_c, 7, 63, 84
13, 199915, Note_on_c, 7, 63, 0
13, 199920, Note_on_c, 7, 63, 84
13, 199975, Note_on_c, 7, 63, 0
13, 199980, Note_on_c, 7, 63, 84
13, 200039, Note_on_c, 7, 63, 0
13, 200100, Note_on_c, 7, 65, 84
13, 200155, Note_on_c, 7, 65, 0
13, 200160, Note_on_c, 7, 65, 84
13, 200215, Note_on_c, 7, 65, 0
13, 200220, Note_on_c, 7, 65, 84
13, 200279, Note_on_c, 7, 65, 0
13, 200340, Note_on_c, 7, 63, 84
13, 200395, Note_on_c, 7, 63, 0
13, 200400, Note_on_c, 7, 63, 84
13, 200455, Note_on_c, 7, 63, 0
13, 200460, Note_on_c, 7, 63, 84
13, 200515, Note_on_c, 7, 63, 0
13, 200520, Note_on_c, 7, 63, 84
13, 200575, Note_on_c, 7, 63, 0
13, 200580, Note_on_c, 7, 58, 84
13, 200635, Note_on_c, 7, 58, 0
13, 200640, Note_on_c, 7, 58, 84
13, 200695, Note_on_c, 7, 58, 0
13, 200700, Note_on_c, 7, 58, 84
13, 200755, Note_on_c, 7, 58, 0
13, 200760, Note_on_c, 7, 58, 84
13, 200815, Note_on_c, 7, 58, 0
13, 200820, Note_on_c, 7, 58, 84
13, 200875, Note_on_c, 7, 58, 0
13, 200880, Note_on_c, 7, 58, 84
13, 200935, Note_on_c, 7, 58, 0
13, 200940, Note_on_c, 7, 58, 84
13, 200995, Note_on_c, 7, 58, 0
13, 201000, Note_on_c, 7, 58, 84
13, 201055, Note_on_c, 7, 58, 0
13, 201060, Note_on_c, 7, 58, 84
13, 201115, Note_on_c, 7, 58, 0
13, 201120, Note_on_c, 7, 58, 84
13, 201175, Note_on_c, 7, 58, 0
13, 201180, Note_on_c, 7, 58, 84
13, 201235, Note_on_c, 7, 58, 0
13, 201240, Note_on_c, 7, 58, 84
13, 201295, Note_on_c, 7, 58, 0
13, 201300, Note_on_c, 7, 58, 84
13, 201355, Note_on_c, 7, 58, 0
13, 201360, Note_on_c, 7, 58, 84
13, 201415, Note_on_c, 7, 58, 0
13, 201420, Note_on_c, 7, 58, 84
13, 201475, Note_on_c, 7, 58, 0
13, 201480, Note_on_c, 7, 58, 84
13, 201599, Note_on_c, 7, 58, 0
13, 201840, Note_on_c, 7, 58, 84
13, 201929, Note_on_c, 7, 58, 0
13, 201960, Note_on_c, 7, 58, 92
13, 202304, Note_on_c, 7, 58, 0
13, 202320, Note_on_c, 7, 58, 84
13, 202409, Note_on_c, 7, 58, 0
13, 202440, Note_on_c, 7, 58, 92
13, 202784, Note_on_c, 7, 58, 0
13, 202800, Note_on_c, 7, 58, 84
13, 202911, Note_on_c, 7, 58, 0
13, 202920, Note_on_c, 7, 58, 84
13, 203031, Note_on_c, 7, 58, 0
13, 203040, Note_on_c, 7, 58, 84
13, 203271, Note_on_c, 7, 58, 0
13, 203280, Note_on_c, 7, 58, 84
13, 203391, Note_on_c, 7, 58, 0
13, 203400, Note_on_c, 7, 58, 84
13, 203751, Note_on_c, 7, 58, 0
13, 203760, Note_on_c, 7, 63, 84
13, 203871, Note_on_c, 7, 63, 0
13, 203880, Note_on_c, 7, 63, 92
13, 204224, Note_on_c, 7, 63, 0
13, 204240, Note_on_c, 7, 63, 84
13, 204351, Note_on_c, 7, 63, 0
13, 204360, Note_on_c, 7, 63, 92
13, 204651, Note_on_c, 7, 63, 0
13, 204660, Note_on_c, 7, 58, 84
13, 204715, Note_on_c, 7, 58, 0
13, 204720, Note_on_c, 7, 58, 84
13, 204775, Note_on_c, 7, 58, 0
13, 204780, Note_on_c, 7, 58, 84
13, 204839, Note_on_c, 7, 58, 0
13, 204900, Note_on_c, 7, 58, 84
13, 204955, Note_on_c, 7, 58, 0
13, 204960, Note_on_c, 7, 58, 84
13, 205015, Note_on_c, 7, 58, 0
13, 205020, Note_on_c, 7, 58, 84
13, 205075, Note_on_c, 7, 58, 0
13, 205080, Note_on_c, 7, 58, 84
13, 205199, Note_on_c, 7, 58, 0
13, 208400, Control_c, 7, 11, 110
13, 208440, Note_on_c, 7, 67, 68
13, 208440, Control_c, 7, 11, 112
13, 208480, Control_c, 7, 11, 113
13, 208520, Control_c, 7, 11, 114
13, 208560, Control_c, 7, 11, 115
13, 208600, Control_c, 7, 11, 117
13, 208640, Control_c, 7, 11, 118
13, 208680, Control_c, 7, 11, 119
13, 208720, Control_c, 7, 11, 121
13, 208760, Control_c, 7, 11, 122
13, 208800, Control_c, 7, 11, 123
13, 208840, Control_c, 7, 11, 124
13, 208880, Control_c, 7, 11, 127
13, 208919, Note_on_c, 7, 67, 0
13, 208920, Note_on_c, 7, 68, 52
13, 209039, Note_on_c, 7, 68, 0
13, 213720, Note_on_c, 7, 66, 76
13, 213899, Note_on_c, 7, 66, 0
13, 213960, Note_on_c, 7, 66, 76
13, 214139, Note_on_c, 7, 66, 0
13, 214200, Note_on_c, 7, 66, 76
13, 214679, Note_on_c, 7, 66, 0
13, 221880, Note_on_c, 7, 67, 84
13, 222479, Note_on_c, 7, 67, 0
13, 222600, Note_on_c, 7, 67, 84
13, 222719, Note_on_c, 7, 67, 0
13, 224940, Note_on_c, 7, 58, 84
13, 224995, Note_on_c, 7, 58, 0
13, 225000, Note_on_c, 7, 63, 92
13, 225179, Note_on_c, 7, 63, 0
13, 225180, Note_on_c, 7, 58, 84
13, 225235, Note_on_c, 7, 58, 0
13, 225420, Note_on_c, 7, 58, 84
13, 225475, Note_on_c, 7, 58, 0
13, 225480, Note_on_c, 7, 58, 92
13, 225651, Note_on_c, 7, 58, 0
13, 225660, Note_on_c, 7, 58, 84
13, 225715, Note_on_c, 7, 58, 0
13, 225780, Note_on_c, 7, 58, 84
13, 225835, Note_on_c, 7, 58, 0
13, 225840, Note_on_c, 7, 58, 84
13, 225895, Note_on_c, 7, 58, 0
13, 225900, Note_on_c, 7, 58, 84
13, 225955, Note_on_c, 7, 58, 0
13, 225960, Note_on_c, 7, 63, 92
13, 226019, Note_on_c, 7, 63, 0
13, 226020, Note_on_c, 7, 58, 84
13, 226075, Note_on_c, 7, 58, 0
13, 226080, Note_on_c, 7, 58, 84
13, 226124, Note_on_c, 7, 58, 0
13, 226140, Note_on_c, 7, 58, 84
13, 226184, Note_on_c, 7, 58, 0
13, 226260, Note_on_c, 7, 58, 84
13, 226315, Note_on_c, 7, 58, 0
13, 226320, Note_on_c, 7, 58, 84
13, 226375, Note_on_c, 7, 58, 0
13, 226380, Note_on_c, 7, 58, 84
13, 226435, Note_on_c, 7, 58, 0
13, 226440, Note_on_c, 7, 65, 92
13, 226499, Note_on_c, 7, 65, 0
13, 226500, Note_on_c, 7, 58, 84
13, 226555, Note_on_c, 7, 58, 0
13, 226560, Note_on_c, 7, 58, 84
13, 226604, Note_on_c, 7, 58, 0
13, 226620, Note_on_c, 7, 58, 84
13, 226664, Note_on_c, 7, 58, 0
13, 226680, Note_on_c, 7, 63, 84
13, 226735, Note_on_c, 7, 63, 0
13, 226740, Note_on_c, 7, 63, 84
13, 226795, Note_on_c, 7, 63, 0
13, 226800, Note_on_c, 7, 63, 84
13, 226855, Note_on_c, 7, 63, 0
13, 226860, Note_on_c, 7, 63, 84
13, 226915, Note_on_c, 7, 63, 0
13, 226920, Note_on_c, 7, 58, 92
13, 227099, Note_on_c, 7, 58, 0
13, 227100, Note_on_c, 7, 63, 84
13, 227155, Note_on_c, 7, 63, 0
13, 227160, Note_on_c, 7, 65, 84
13, 227215, Note_on_c, 7, 65, 0
13, 227220, Note_on_c, 7, 65, 84
13, 227275, Note_on_c, 7, 65, 0
13, 227280, Note_on_c, 7, 65, 84
13, 227335, Note_on_c, 7, 65, 0
13, 227340, Note_on_c, 7, 65, 84
13, 227395, Note_on_c, 7, 65, 0
13, 227400, Note_on_c, 7, 58, 92
13, 227579, Note_on_c, 7, 58, 0
13, 227580, Note_on_c, 7, 65, 84
13, 227635, Note_on_c, 7, 65, 0
13, 227640, Note_on_c, 7, 63, 84
13, 227695, Note_on_c, 7, 63, 0
13, 227700, Note_on_c, 7, 63, 84
13, 227755, Note_on_c, 7, 63, 0
13, 227760, Note_on_c, 7, 63, 84
13, 227815, Note_on_c, 7, 63, 0
13, 227820, Note_on_c, 7, 63, 84
13, 227875, Note_on_c, 7, 63, 0
13, 227880, Note_on_c, 7, 67, 92
13, 227939, Note_on_c, 7, 67, 0
13, 227940, Note_on_c, 7, 63, 84
13, 227995, Note_on_c, 7, 63, 0
13, 228000, Note_on_c, 7, 63, 84
13, 228044, Note_on_c, 7, 63, 0
13, 228060, Note_on_c, 7, 63, 84
13, 228104, Note_on_c, 7, 63, 0
13, 228120, Note_on_c, 7, 58, 84
13, 228164, Note_on_c, 7, 58, 0
13, 228180, Note_on_c, 7, 65, 84
13, 228224, Note_on_c, 7, 65, 0
13, 228240, Note_on_c, 7, 65, 84
13, 228284, Note_on_c, 7, 65, 0
13, 228300, Note_on_c, 7, 65, 84
13, 228344, Note_on_c, 7, 65, 0
13, 228360, Note_on_c, 7, 68, 92
13, 228419, Note_on_c, 7, 68, 0
13, 228420, Note_on_c, 7, 65, 84
13, 228475, Note_on_c, 7, 65, 0
13, 228480, Note_on_c, 7, 65, 84
13, 228524, Note_on_c, 7, 65, 0
13, 228540, Note_on_c, 7, 65, 84
13, 228584, Note_on_c, 7, 65, 0
13, 228600, Note_on_c, 7, 63, 92
13, 228655, Note_on_c, 7, 63, 0
13, 228660, Note_on_c, 7, 63, 84
13, 228715, Note_on_c, 7, 63, 0
13, 228720, Note_on_c, 7, 67, 84
13, 228775, Note_on_c, 7, 67, 0
13, 228780, Note_on_c, 7, 63, 84
13, 228835, Note_on_c, 7, 63, 0
13, 228840, Note_on_c, 7, 58, 92
13, 228895, Note_on_c, 7, 58, 0
13, 228900, Note_on_c, 7, 65, 84
13, 228955, Note_on_c, 7, 65, 0
13, 228960, Note_on_c, 7, 68, 84
13, 229015, Note_on_c, 7, 68, 0
13, 229020, Note_on_c, 7, 65, 84
13, 229075, Note_on_c, 7, 65, 0
13, 229080, Note_on_c, 7, 63, 92
13, 229135, Note_on_c, 7, 63, 0
13, 229140, Note_on_c, 7, 63, 84
13, 229195, Note_on_c, 7, 63, 0
13, 229200, Note_on_c, 7, 67, 84
13, 229255, Note_on_c, 7, 67, 0
13, 229260, Note_on_c, 7, 63, 84
13, 229315, Note_on_c, 7, 63, 0
13, 229320, Note_on_c, 7, 58, 92
13, 229375, Note_on_c, 7, 58, 0
13, 229380, Note_on_c, 7, 65, 84
13, 229435, Note_on_c, 7, 65, 0
13, 229440, Note_on_c, 7, 68, 84
13, 229495, Note_on_c, 7, 68, 0
13, 229500, Note_on_c, 7, 65, 84
13, 229555, Note_on_c, 7, 65, 0
13, 229560, Note_on_c, 7, 63, 84
13, 229679, Note_on_c, 7, 63, 0
13, 229800, Note_on_c, 7, 63, 92
13, 229919, Note_on_c, 7, 63, 0
13, 230040, Note_on_c, 7, 63, 92
13, 230159, Note_on_c, 7, 63, 0
13, 230280, Note_on_c, 7, 63, 92
13, 230399, Note_on_c, 7, 63, 0
13, 230520, Note_on_c, 7, 63, 84
13, 230639, Note_on_c, 7, 63, 0
13, 230760, Note_on_c, 7, 63, 84
13, 230879, Note_on_c, 7, 63, 0
13, 231240, Note_on_c, 7, 58, 84
13, 231351, Note_on_c, 7, 58, 0
13, 231360, Note_on_c, 7, 58, 84
13, 231471, Note_on_c, 7, 58, 0
13, 231480, Note_on_c, 7, 63, 92
13, 231599, Note_on_c, 7, 63, 0
13, 231720, Note_on_c, 7, 63, 84
13, 231839, Note_on_c, 7, 63, 0
13, 232200, Note_on_c, 7, 58, 84
13, 232311, Note_on_c, 7, 58, 0
13, 232320, Note_on_c, 7, 58, 84
13, 232431, Note_on_c, 7, 58, 0
13, 232440, Note_on_c, 7, 63, 84
13, 232559, Note_on_c, 7, 63, 0
13, 232800, Note_on_c, 7, 67, 92
13, 232844, Note_on_c, 7, 67, 0
13, 232860, Note_on_c, 7, 63, 84
13, 232904, Note_on_c, 7, 63, 0
13, 232920, Note_on_c, 7, 67, 84
13, 232964, Note_on_c, 7, 67, 0
13, 232980, Note_on_c, 7, 63, 84
13, 233024, Note_on_c, 7, 63, 0
13, 233280, Note_on_c, 7, 58, 92
13, 233324, Note_on_c, 7, 58, 0
13, 233340, Note_on_c, 7, 55, 84
13, 233384, Note_on_c, 7, 55, 0
13, 233400, Note_on_c, 7, 58, 84
13, 233444, Note_on_c, 7, 58, 0
13, 233460, Note_on_c, 7, 55, 84
13, 233504, Note_on_c, 7, 55, 0
13, 233520, Note_on_c, 7, 63, 92
13, 233564, Note_on_c, 7, 63, 0
13, 233580, Note_on_c, 7, 58, 84
13, 233624, Note_on_c, 7, 58, 0
13, 233640, Note_on_c, 7, 63, 84
13, 233684, Note_on_c, 7, 63, 0
13, 233700, Note_on_c, 7, 58, 84
13, 233744, Note_on_c, 7, 58, 0
13, 233760, Note_on_c, 7, 67, 92
13, 233804, Note_on_c, 7, 67, 0
13, 233820, Note_on_c, 7, 63, 84
13, 233864, Note_on_c, 7, 63, 0
13, 233880, Note_on_c, 7, 67, 84
13, 233924, Note_on_c, 7, 67, 0
13, 233940, Note_on_c, 7, 63, 84
13, 233984, Note_on_c, 7, 63, 0
13, 234000, Note_on_c, 7, 67, 92
13, 234044, Note_on_c, 7, 67, 0
13, 234060, Note_on_c, 7, 63, 84
13, 234104, Note_on_c, 7, 63, 0
13, 234120, Note_on_c, 7, 67, 84
13, 234164, Note_on_c, 7, 67, 0
13, 234180, Note_on_c, 7, 63, 84
13, 234224, Note_on_c, 7, 63, 0
13, 234240, Note_on_c, 7, 67, 92
13, 234284, Note_on_c, 7, 67, 0
13, 234300, Note_on_c, 7, 63, 84
13, 234344, Note_on_c, 7, 63, 0
13, 234360, Note_on_c, 7, 63, 84
13, 234831, Note_on_c, 7, 63, 0
13, 234840, Note_on_c, 7, 63, 86
13, 235311, Note_on_c, 7, 63, 0
13, 235320, Note_on_c, 7, 63, 88
13, 235431, Note_on_c, 7, 63, 0
13, 235440, Note_on_c, 7, 63, 88
13, 235551, Note_on_c, 7, 63, 0
13, 235560, Note_on_c, 7, 63, 89
13, 235671, Note_on_c, 7, 63, 0
13, 235680, Note_on_c, 7, 63, 89
13, 235791, Note_on_c, 7, 63, 0
13, 235800, Note_on_c, 7, 63, 90
13, 235911, Note_on_c, 7, 63, 0
13, 235920, Note_on_c, 7, 63, 90
13, 236031, Note_on_c, 7, 63, 0
13, 236040, Note_on_c, 7, 63, 91
13, 236151, Note_on_c, 7, 63, 0
13, 236160, Note_on_c, 7, 63, 91
13, 236271, Note_on_c, 7, 63, 0
13, 236280, Note_on_c, 7, 63, 84
13, 236519, Note_on_c, 7, 63, 0
13, 236760, Note_on_c, 7, 63, 84
13, 236999, Note_on_c, 7, 63, 0
13, 237240, Note_on_c, 7, 63, 84
13, 237359, Note_on_c, 7, 63, 0
13, 237480, Note_on_c, 7, 63, 84
13, 237599, Note_on_c, 7, 63, 0
13, 237720, Note_on_c, 7, 63, 84
13, 237839, Note_on_c, 7, 63, 0
13, 237960, Note_on_c, 7, 63, 84
13, 238079, Note_on_c, 7, 63, 0
13, 238200, Note_on_c, 7, 63, 84
13, 238319, Note_on_c, 7, 63, 0
13, 238680, Note_on_c, 7, 63, 84
13, 238799, Note_on_c, 7, 63, 0
13, 239160, Note_on_c, 7, 58, 84
13, 239279, Note_on_c, 7, 58, 0
13, 239400, Note_on_c, 7, 58, 84
13, 239519, Note_on_c, 7, 58, 0
13, 239640, Note_on_c, 7, 58, 84
13, 239759, Note_on_c, 7, 58, 0
13, 239880, Note_on_c, 7, 58, 84
13, 239999, Note_on_c, 7, 58, 0
13, 240120, Note_on_c, 7, 63, 84
13, 240655, Note_on_c, 7, 63, 0
13, 240660, Note_on_c, 7, 67, 84
13, 240715, Note_on_c, 7, 67, 0
13, 240720, Note_on_c, 7, 67, 84
13, 240775, Note_on_c, 7, 67, 0
13, 240780, Note_on_c, 7, 67, 84
13, 240835, Note_on_c, 7, 67, 0
13, 240840, Note_on_c, 7, 67, 84
13, 240895, Note_on_c, 7, 67, 0
13, 240900, Note_on_c, 7, 67, 84
13, 240955, Note_on_c, 7, 67, 0
13, 240960, Note_on_c, 7, 67, 84
13, 241015, Note_on_c, 7, 67, 0
13, 241020, Note_on_c, 7, 67, 84
13, 241075, Note_on_c, 7, 67, 0
13, 241080, Note_on_c, 7, 67, 84
13, 241199, Note_on_c, 7, 67, 0
13, 241560, Note_on_c, 7, 67, 84
13, 241679, Note_on_c, 7, 67, 0
13, 242040, Note_on_c, 7, 63, 84
13, 242279, Note_on_c, 7, 63, 0
13, 242279, End_track
14, 0, Start_track
14, 0, Title_t, "Trumpet in E-flat"
14, 0, MIDI_port, 0
14, 0, Program_c, 8, 56
14, 0, Control_c, 8, 7, 96
14, 0, Control_c, 8, 10, 60
14, 0, Control_c, 8, 11, 127
14, 3000, Note_on_c, 8, 70, 84
14, 3000, Note_on_c, 8, 58, 84
14, 3239, Note_on_c, 8, 70, 0
14, 3239, Note_on_c, 8, 58, 0
14, 3480, Note_on_c, 8, 70, 84
14, 3480, Note_on_c, 8, 58, 84
14, 3659, Note_on_c, 8, 70, 0
14, 3659, Note_on_c, 8, 58, 0
14, 3720, Note_on_c, 8, 58, 84
14, 3720, Note_on_c, 8, 70, 84
14, 3899, Note_on_c, 8, 58, 0
14, 3899, Note_on_c, 8, 70, 0
14, 3960, Note_on_c, 8, 58, 84
14, 3960, Note_on_c, 8, 70, 84
14, 4139, Note_on_c, 8, 58, 0
14, 4139, Note_on_c, 8, 70, 0
14, 4440, Note_on_c, 8, 70, 92
14, 4440, Note_on_c, 8, 58, 92
14, 4679, Note_on_c, 8, 70, 0
14, 4679, Note_on_c, 8, 58, 0
14, 4920, Note_on_c, 8, 70, 92
14, 4920, Note_on_c, 8, 58, 92
14, 5399, Note_on_c, 8, 70, 0
14, 5399, Note_on_c, 8, 58, 0
14, 13560, Note_on_c, 8, 58, 84
14, 13560, Note_on_c, 8, 70, 84
14, 13649, Note_on_c, 8, 58, 0
14, 13649, Note_on_c, 8, 70, 0
14, 13680, Note_on_c, 8, 70, 84
14, 13680, Note_on_c, 8, 58, 84
14, 13769, Note_on_c, 8, 70, 0
14, 13769, Note_on_c, 8, 58, 0
14, 13800, Note_on_c, 8, 58, 84
14, 13800, Note_on_c, 8, 70, 84
14, 13889, Note_on_c, 8, 58, 0
14, 13889, Note_on_c, 8, 70, 0
14, 14520, Note_on_c, 8, 58, 52
14, 14520, Note_on_c, 8, 70, 52
14, 14879, Note_on_c, 8, 58, 0
14, 14879, Note_on_c, 8, 70, 0
14, 17400, Note_on_c, 8, 70, 84
14, 17400, Note_on_c, 8, 58, 84
14, 17489, Note_on_c, 8, 70, 0
14, 17489, Note_on_c, 8, 58, 0
14, 17520, Note_on_c, 8, 70, 84
14, 17520, Note_on_c, 8, 58, 84
14, 17609, Note_on_c, 8, 70, 0
14, 17609, Note_on_c, 8, 58, 0
14, 17640, Note_on_c, 8, 70, 84
14, 17640, Note_on_c, 8, 58, 84
14, 17729, Note_on_c, 8, 70, 0
14, 17729, Note_on_c, 8, 58, 0
14, 18360, Note_on_c, 8, 58, 52
14, 18360, Note_on_c, 8, 70, 52
14, 18719, Note_on_c, 8, 58, 0
14, 18719, Note_on_c, 8, 70, 0
14, 55320, Note_on_c, 8, 63, 76
14, 55784, Note_on_c, 8, 63, 0
14, 55800, Note_on_c, 8, 70, 76
14, 56264, Note_on_c, 8, 70, 0
14, 56280, Note_on_c, 8, 58, 76
14, 56744, Note_on_c, 8, 58, 0
14, 56760, Note_on_c, 8, 63, 76
14, 57224, Note_on_c, 8, 63, 0
14, 57240, Note_on_c, 8, 75, 76
14, 57240, Note_on_c, 8, 63, 76
14, 57464, Note_on_c, 8, 75, 0
14, 57464, Note_on_c, 8, 63, 0
14, 57480, Note_on_c, 8, 70, 76
14, 57480, Note_on_c, 8, 58, 76
14, 57704, Note_on_c, 8, 70, 0
14, 57704, Note_on_c, 8, 58, 0
14, 57720, Note_on_c, 8, 75, 84
14, 57720, Note_on_c, 8, 63, 84
14, 57839, Note_on_c, 8, 75, 0
14, 57839, Note_on_c, 8, 63, 0
14, 58320, Note_on_c, 8, 70, 76
14, 58320, Note_on_c, 8, 58, 76
14, 58424, Note_on_c, 8, 70, 0
14, 58424, Note_on_c, 8, 58, 0
14, 58440, Note_on_c, 8, 63, 76
14, 58440, Note_on_c, 8, 75, 76
14, 58544, Note_on_c, 8, 63, 0
14, 58544, Note_on_c, 8, 75, 0
14, 58560, Note_on_c, 8, 75, 76
14, 58560, Note_on_c, 8, 63, 76
14, 58664, Note_on_c, 8, 75, 0
14, 58664, Note_on_c, 8, 63, 0
14, 58680, Note_on_c, 8, 58, 76
14, 58680, Note_on_c, 8, 70, 76
14, 58799, Note_on_c, 8, 58, 0
14, 58799, Note_on_c, 8, 70, 0
14, 58920, Note_on_c, 8, 58, 76
14, 58920, Note_on_c, 8, 70, 76
14, 59039, Note_on_c, 8, 58, 0
14, 59039, Note_on_c, 8, 70, 0
14, 63000, Note_on_c, 8, 70, 76
14, 63000, Note_on_c, 8, 58, 76
14, 63119, Note_on_c, 8, 70, 0
14, 63119, Note_on_c, 8, 58, 0
14, 63480, Note_on_c, 8, 58, 76
14, 63480, Note_on_c, 8, 70, 76
14, 63584, Note_on_c, 8, 58, 0
14, 63584, Note_on_c, 8, 70, 0
14, 63600, Note_on_c, 8, 70, 76
14, 63600, Note_on_c, 8, 58, 76
14, 63704, Note_on_c, 8, 70, 0
14, 63704, Note_on_c, 8, 58, 0
14, 63720, Note_on_c, 8, 70, 76
14, 63720, Note_on_c, 8, 58, 76
14, 63839, Note_on_c, 8, 70, 0
14, 63839, Note_on_c, 8, 58, 0
14, 63960, Note_on_c, 8, 58, 76
14, 63960, Note_on_c, 8, 70, 76
14, 64079, Note_on_c, 8, 58, 0
14, 64079, Note_on_c, 8, 70, 0
14, 64200, Note_on_c, 8, 70, 76
14, 64200, Note_on_c, 8, 58, 76
14, 64319, Note_on_c, 8, 70, 0
14, 64319, Note_on_c, 8, 58, 0
14, 64440, Note_on_c, 8, 58, 76
14, 64440, Note_on_c, 8, 70, 76
14, 64799, Note_on_c, 8, 58, 0
14, 64799, Note_on_c, 8, 70, 0
14, 64920, Note_on_c, 8, 75, 76
14, 64920, Note_on_c, 8, 63, 76
14, 65399, Note_on_c, 8, 75, 0
14, 65399, Note_on_c, 8, 63, 0
14, 65400, Note_on_c, 8, 75, 76
14, 65400, Note_on_c, 8, 63, 76
14, 65879, Note_on_c, 8, 75, 0
14, 65879, Note_on_c, 8, 63, 0
14, 65880, Note_on_c, 8, 58, 76
14, 65880, Note_on_c, 8, 70, 76
14, 66119, Note_on_c, 8, 58, 0
14, 66119, Note_on_c, 8, 70, 0
14, 66120, Note_on_c, 8, 70, 76
14, 66120, Note_on_c, 8, 58, 76
14, 66359, Note_on_c, 8, 70, 0
14, 66359, Note_on_c, 8, 58, 0
14, 66360, Note_on_c, 8, 63, 76
14, 66479, Note_on_c, 8, 63, 0
14, 70200, Note_on_c, 8, 67, 84
14, 70379, Note_on_c, 8, 67, 0
14, 70440, Note_on_c, 8, 67, 84
14, 70619, Note_on_c, 8, 67, 0
14, 70680, Note_on_c, 8, 67, 84
14, 70859, Note_on_c, 8, 67, 0
14, 165960, Note_on_c, 8, 63, 84
14, 165960, Note_on_c, 8, 75, 84
14, 166664, Note_on_c, 8, 63, 0
14, 166664, Note_on_c, 8, 75, 0
14, 166680, Note_on_c, 8, 58, 84
14, 166680, Note_on_c, 8, 70, 84
14, 167144, Note_on_c, 8, 58, 0
14, 167144, Note_on_c, 8, 70, 0
14, 167160, Note_on_c, 8, 58, 84
14, 167160, Note_on_c, 8, 70, 84
14, 167624, Note_on_c, 8, 58, 0
14, 167624, Note_on_c, 8, 70, 0
14, 167640, Note_on_c, 8, 75, 84
14, 167640, Note_on_c, 8, 63, 84
14, 167984, Note_on_c, 8, 75, 0
14, 167984, Note_on_c, 8, 63, 0
14, 168000, Note_on_c, 8, 58, 84
14, 168000, Note_on_c, 8, 70, 84
14, 168104, Note_on_c, 8, 58, 0
14, 168104, Note_on_c, 8, 70, 0
14, 168120, Note_on_c, 8, 70, 84
14, 168120, Note_on_c, 8, 58, 84
14, 168224, Note_on_c, 8, 70, 0
14, 168224, Note_on_c, 8, 58, 0
14, 168240, Note_on_c, 8, 58, 84
14, 168240, Note_on_c, 8, 70, 84
14, 168344, Note_on_c, 8, 58, 0
14, 168344, Note_on_c, 8, 70, 0
14, 168360, Note_on_c, 8, 70, 84
14, 168360, Note_on_c, 8, 58, 84
14, 168464, Note_on_c, 8, 70, 0
14, 168464, Note_on_c, 8, 58, 0
14, 168480, Note_on_c, 8, 58, 84
14, 168480, Note_on_c, 8, 70, 84
14, 168584, Note_on_c, 8, 58, 0
14, 168584, Note_on_c, 8, 70, 0
14, 168600, Note_on_c, 8, 70, 84
14, 168600, Note_on_c, 8, 58, 84
14, 168944, Note_on_c, 8, 70, 0
14, 168944, Note_on_c, 8, 58, 0
14, 168960, Note_on_c, 8, 79, 84
14, 168960, Note_on_c, 8, 67, 84
14, 169064, Note_on_c, 8, 79, 0
14, 169064, Note_on_c, 8, 67, 0
14, 169080, Note_on_c, 8, 79, 84
14, 169080, Note_on_c, 8, 67, 84
14, 169184, Note_on_c, 8, 79, 0
14, 169184, Note_on_c, 8, 67, 0
14, 169200, Note_on_c, 8, 67, 84
14, 169200, Note_on_c, 8, 79, 84
14, 169304, Note_on_c, 8, 67, 0
14, 169304, Note_on_c, 8, 79, 0
14, 169320, Note_on_c, 8, 67, 84
14, 169320, Note_on_c, 8, 79, 84
14, 169424, Note_on_c, 8, 67, 0
14, 169424, Note_on_c, 8, 79, 0
14, 169440, Note_on_c, 8, 79, 84
14, 169440, Note_on_c, 8, 67, 84
14, 169544, Note_on_c, 8, 79, 0
14, 169544, Note_on_c, 8, 67, 0
14, 169560, Note_on_c, 8, 67, 84
14, 169560, Note_on_c, 8, 79, 84
14, 169904, Note_on_c, 8, 67, 0
14, 169904, Note_on_c, 8, 79, 0
14, 169920, Note_on_c, 8, 63, 84
14, 169920, Note_on_c, 8, 75, 84
14, 170024, Note_on_c, 8, 63, 0
14, 170024, Note_on_c, 8, 75, 0
14, 170040, Note_on_c, 8, 63, 84
14, 170040, Note_on_c, 8, 75, 84
14, 170144, Note_on_c, 8, 63, 0
14, 170144, Note_on_c, 8, 75, 0
14, 170160, Note_on_c, 8, 75, 84
14, 170160, Note_on_c, 8, 63, 84
14, 170264, Note_on_c, 8, 75, 0
14, 170264, Note_on_c, 8, 63, 0
14, 170280, Note_on_c, 8, 75, 84
14, 170280, Note_on_c, 8, 63, 84
14, 170384, Note_on_c, 8, 75, 0
14, 170384, Note_on_c, 8, 63, 0
14, 170400, Note_on_c, 8, 63, 84
14, 170400, Note_on_c, 8, 75, 84
14, 170504, Note_on_c, 8, 63, 0
14, 170504, Note_on_c, 8, 75, 0
14, 170520, Note_on_c, 8, 75, 84
14, 170520, Note_on_c, 8, 63, 84
14, 170759, Note_on_c, 8, 75, 0
14, 170759, Note_on_c, 8, 63, 0
14, 171600, Note_on_c, 8, 58, 84
14, 171600, Note_on_c, 8, 70, 84
14, 171824, Note_on_c, 8, 58, 0
14, 171824, Note_on_c, 8, 70, 0
14, 171840, Note_on_c, 8, 58, 84
14, 171840, Note_on_c, 8, 70, 84
14, 171944, Note_on_c, 8, 58, 0
14, 171944, Note_on_c, 8, 70, 0
14, 171960, Note_on_c, 8, 58, 84
14, 171960, Note_on_c, 8, 70, 84
14, 172064, Note_on_c, 8, 58, 0
14, 172064, Note_on_c, 8, 70, 0
14, 172080, Note_on_c, 8, 63, 84
14, 172080, Note_on_c, 8, 75, 84
14, 172184, Note_on_c, 8, 63, 0
14, 172184, Note_on_c, 8, 75, 0
14, 172200, Note_on_c, 8, 75, 84
14, 172200, Note_on_c, 8, 63, 84
14, 172304, Note_on_c, 8, 75, 0
14, 172304, Note_on_c, 8, 63, 0
14, 172320, Note_on_c, 8, 75, 84
14, 172320, Note_on_c, 8, 63, 84
14, 172424, Note_on_c, 8, 75, 0
14, 172424, Note_on_c, 8, 63, 0
14, 172440, Note_on_c, 8, 70, 84
14, 172440, Note_on_c, 8, 58, 84
14, 172904, Note_on_c, 8, 70, 0
14, 172904, Note_on_c, 8, 58, 0
14, 172920, Note_on_c, 8, 75, 84
14, 172920, Note_on_c, 8, 63, 84
14, 173144, Note_on_c, 8, 75, 0
14, 173144, Note_on_c, 8, 63, 0
14, 173160, Note_on_c, 8, 63, 84
14, 173399, Note_on_c, 8, 63, 0
14, 175320, Note_on_c, 8, 58, 84
14, 175320, Note_on_c, 8, 70, 84
14, 175544, Note_on_c, 8, 58, 0
14, 175544, Note_on_c, 8, 70, 0
14, 175560, Note_on_c, 8, 58, 84
14, 175560, Note_on_c, 8, 70, 84
14, 175784, Note_on_c, 8, 58, 0
14, 175784, Note_on_c, 8, 70, 0
14, 175800, Note_on_c, 8, 70, 84
14, 175800, Note_on_c, 8, 58, 84
14, 176024, Note_on_c, 8, 70, 0
14, 176024, Note_on_c, 8, 58, 0
14, 176040, Note_on_c, 8, 58, 84
14, 176040, Note_on_c, 8, 70, 84
14, 176264, Note_on_c, 8, 58, 0
14, 176264, Note_on_c, 8, 70, 0
14, 176280, Note_on_c, 8, 70, 84
14, 176280, Note_on_c, 8, 58, 84
14, 176504, Note_on_c, 8, 70, 0
14, 176504, Note_on_c, 8, 58, 0
14, 176520, Note_on_c, 8, 58, 84
14, 176520, Note_on_c, 8, 70, 84
14, 176744, Note_on_c, 8, 58, 0
14, 176744, Note_on_c, 8, 70, 0
14, 176760, Note_on_c, 8, 70, 84
14, 176760, Note_on_c, 8, 58, 84
14, 176984, Note_on_c, 8, 70, 0
14, 176984, Note_on_c, 8, 58, 0
14, 177000, Note_on_c, 8, 70, 84
14, 177000, Note_on_c, 8, 58, 84
14, 177224, Note_on_c, 8, 70, 0
14, 177224, Note_on_c, 8, 58, 0
14, 177240, Note_on_c, 8, 70, 84
14, 177344, Note_on_c, 8, 70, 0
14, 177360, Note_on_c, 8, 58, 84
14, 177464, Note_on_c, 8, 58, 0
14, 177480, Note_on_c, 8, 70, 84
14, 177584, Note_on_c, 8, 70, 0
14, 177600, Note_on_c, 8, 58, 84
14, 177704, Note_on_c, 8, 58, 0
14, 177720, Note_on_c, 8, 70, 84
14, 177824, Note_on_c, 8, 70, 0
14, 177840, Note_on_c, 8, 58, 84
14, 177944, Note_on_c, 8, 58, 0
14, 177960, Note_on_c, 8, 70, 84
14, 178064, Note_on_c, 8, 70, 0
14, 178080, Note_on_c, 8, 58, 84
14, 178184, Note_on_c, 8, 58, 0
14, 178200, Note_on_c, 8, 70, 84
14, 178304, Note_on_c, 8, 70, 0
14, 178320, Note_on_c, 8, 58, 84
14, 178424, Note_on_c, 8, 58, 0
14, 178440, Note_on_c, 8, 70, 84
14, 178544, Note_on_c, 8, 70, 0
14, 178560, Note_on_c, 8, 58, 84
14, 178664, Note_on_c, 8, 58, 0
14, 178680, Note_on_c, 8, 70, 84
14, 178784, Note_on_c, 8, 70, 0
14, 178800, Note_on_c, 8, 58, 84
14, 178904, Note_on_c, 8, 58, 0
14, 178920, Note_on_c, 8, 70, 84
14, 179024, Note_on_c, 8, 70, 0
14, 179040, Note_on_c, 8, 58, 84
14, 179144, Note_on_c, 8, 58, 0
14, 179160, Note_on_c, 8, 77, 84
14, 180359, Note_on_c, 8, 77, 0
14, 181020, Note_on_c, 8, 58, 84
14, 181020, Note_on_c, 8, 70, 84
14, 181071, Note_on_c, 8, 58, 0
14, 181071, Note_on_c, 8, 70, 0
14, 181080, Note_on_c, 8, 70, 84
14, 181080, Note_on_c, 8, 58, 84
14, 181319, Note_on_c, 8, 70, 0
14, 181319, Note_on_c, 8, 58, 0
14, 181500, Note_on_c, 8, 58, 84
14, 181500, Note_on_c, 8, 70, 84
14, 181551, Note_on_c, 8, 58, 0
14, 181551, Note_on_c, 8, 70, 0
14, 181560, Note_on_c, 8, 70, 84
14, 181560, Note_on_c, 8, 58, 84
14, 181799, Note_on_c, 8, 70, 0
14, 181799, Note_on_c, 8, 58, 0
14, 181980, Note_on_c, 8, 70, 84
14, 181980, Note_on_c, 8, 58, 84
14, 182031, Note_on_c, 8, 70, 0
14, 182031, Note_on_c, 8, 58, 0
14, 182040, Note_on_c, 8, 58, 84
14, 182040, Note_on_c, 8, 70, 84
14, 182369, Note_on_c, 8, 58, 0
14, 182369, Note_on_c, 8, 70, 0
14, 198000, Note_on_c, 8, 70, 84
14, 198000, Note_on_c, 8, 58, 84
14, 198111, Note_on_c, 8, 70, 0
14, 198111, Note_on_c, 8, 58, 0
14, 198120, Note_on_c, 8, 58, 92
14, 198120, Note_on_c, 8, 70, 92
14, 198464, Note_on_c, 8, 58, 0
14, 198464, Note_on_c, 8, 70, 0
14, 198480, Note_on_c, 8, 58, 84
14, 198480, Note_on_c, 8, 70, 84
14, 198569, Note_on_c, 8, 58, 0
14, 198569, Note_on_c, 8, 70, 0
14, 198600, Note_on_c, 8, 70, 92
14, 198600, Note_on_c, 8, 58, 92
14, 198944, Note_on_c, 8, 70, 0
14, 198944, Note_on_c, 8, 58, 0
14, 198960, Note_on_c, 8, 58, 84
14, 198960, Note_on_c, 8, 70, 84
14, 199049, Note_on_c, 8, 58, 0
14, 199049, Note_on_c, 8, 70, 0
14, 199080, Note_on_c, 8, 70, 92
14, 199080, Note_on_c, 8, 58, 92
14, 199424, Note_on_c, 8, 70, 0
14, 199424, Note_on_c, 8, 58, 0
14, 199440, Note_on_c, 8, 70, 84
14, 199440, Note_on_c, 8, 58, 84
14, 199551, Note_on_c, 8, 70, 0
14, 199551, Note_on_c, 8, 58, 0
14, 199560, Note_on_c, 8, 70, 92
14, 199560, Note_on_c, 8, 58, 92
14, 199904, Note_on_c, 8, 70, 0
14, 199904, Note_on_c, 8, 58, 0
14, 199920, Note_on_c, 8, 75, 84
14, 199920, Note_on_c, 8, 67, 84
14, 200039, Note_on_c, 8, 75, 0
14, 200039, Note_on_c, 8, 67, 0
14, 200160, Note_on_c, 8, 77, 84
14, 200160, Note_on_c, 8, 70, 84
14, 200271, Note_on_c, 8, 77, 0
14, 200271, Note_on_c, 8, 70, 0
14, 200280, Note_on_c, 8, 67, 92
14, 200280, Note_on_c, 8, 75, 92
14, 200384, Note_on_c, 8, 67, 0
14, 200384, Note_on_c, 8, 75, 0
14, 200400, Note_on_c, 8, 58, 84
14, 200400, Note_on_c, 8, 70, 84
14, 200455, Note_on_c, 8, 58, 0
14, 200455, Note_on_c, 8, 70, 0
14, 200460, Note_on_c, 8, 70, 84
14, 200460, Note_on_c, 8, 58, 84
14, 200515, Note_on_c, 8, 70, 0
14, 200515, Note_on_c, 8, 58, 0
14, 200520, Note_on_c, 8, 70, 84
14, 200520, Note_on_c, 8, 58, 84
14, 200575, Note_on_c, 8, 70, 0
14, 200575, Note_on_c, 8, 58, 0
14, 200580, Note_on_c, 8, 58, 84
14, 200580, Note_on_c, 8, 70, 84
14, 200635, Note_on_c, 8, 58, 0
14, 200635, Note_on_c, 8, 70, 0
14, 200640, Note_on_c, 8, 58, 84
14, 200640, Note_on_c, 8, 70, 84
14, 200695, Note_on_c, 8, 58, 0
14, 200695, Note_on_c, 8, 70, 0
14, 200700, Note_on_c, 8, 58, 84
14, 200700, Note_on_c, 8, 70, 84
14, 200755, Note_on_c, 8, 58, 0
14, 200755, Note_on_c, 8, 70, 0
14, 200760, Note_on_c, 8, 70, 84
14, 200760, Note_on_c, 8, 58, 84
14, 200815, Note_on_c, 8, 70, 0
14, 200815, Note_on_c, 8, 58, 0
14, 200820, Note_on_c, 8, 70, 84
14, 200820, Note_on_c, 8, 58, 84
14, 200875, Note_on_c, 8, 70, 0
14, 200875, Note_on_c, 8, 58, 0
14, 200880, Note_on_c, 8, 58, 84
14, 200880, Note_on_c, 8, 70, 84
14, 200935, Note_on_c, 8, 58, 0
14, 200935, Note_on_c, 8, 70, 0
14, 200940, Note_on_c, 8, 58, 84
14, 200940, Note_on_c, 8, 70, 84
14, 200995, Note_on_c, 8, 58, 0
14, 200995, Note_on_c, 8, 70, 0
14, 201000, Note_on_c, 8, 58, 84
14, 201000, Note_on_c, 8, 70, 84
14, 201055, Note_on_c, 8, 58, 0
14, 201055, Note_on_c, 8, 70, 0
14, 201060, Note_on_c, 8, 70, 84
14, 201060, Note_on_c, 8, 58, 84
14, 201115, Note_on_c, 8, 70, 0
14, 201115, Note_on_c, 8, 58, 0
14, 201120, Note_on_c, 8, 70, 84
14, 201120, Note_on_c, 8, 58, 84
14, 201175, Note_on_c, 8, 70, 0
14, 201175, Note_on_c, 8, 58, 0
14, 201180, Note_on_c, 8, 70, 84
14, 201180, Note_on_c, 8, 58, 84
14, 201235, Note_on_c, 8, 70, 0
14, 201235, Note_on_c, 8, 58, 0
14, 201240, Note_on_c, 8, 58, 84
14, 201240, Note_on_c, 8, 70, 84
14, 201471, Note_on_c, 8, 58, 0
14, 201471, Note_on_c, 8, 70, 0
14, 201480, Note_on_c, 8, 58, 84
14, 201480, Note_on_c, 8, 70, 84
14, 201599, Note_on_c, 8, 58, 0
14, 201599, Note_on_c, 8, 70, 0
14, 201840, Note_on_c, 8, 70, 84
14, 201840, Note_on_c, 8, 58, 84
14, 201929, Note_on_c, 8, 70, 0
14, 201929, Note_on_c, 8, 58, 0
14, 201960, Note_on_c, 8, 58, 92
14, 201960, Note_on_c, 8, 70, 92
14, 202304, Note_on_c, 8, 58, 0
14, 202304, Note_on_c, 8, 70, 0
14, 202320, Note_on_c, 8, 58, 84
14, 202320, Note_on_c, 8, 70, 84
14, 202409, Note_on_c, 8, 58, 0
14, 202409, Note_on_c, 8, 70, 0
14, 202440, Note_on_c, 8, 58, 92
14, 202440, Note_on_c, 8, 70, 92
14, 202784, Note_on_c, 8, 58, 0
14, 202784, Note_on_c, 8, 70, 0
14, 202800, Note_on_c, 8, 58, 84
14, 202800, Note_on_c, 8, 70, 84
14, 202911, Note_on_c, 8, 58, 0
14, 202911, Note_on_c, 8, 70, 0
14, 202920, Note_on_c, 8, 70, 84
14, 202920, Note_on_c, 8, 58, 84
14, 203031, Note_on_c, 8, 70, 0
14, 203031, Note_on_c, 8, 58, 0
14, 203040, Note_on_c, 8, 58, 84
14, 203040, Note_on_c, 8, 70, 84
14, 203151, Note_on_c, 8, 58, 0
14, 203151, Note_on_c, 8, 70, 0
14, 203160, Note_on_c, 8, 70, 84
14, 203160, Note_on_c, 8, 58, 84
14, 203271, Note_on_c, 8, 70, 0
14, 203271, Note_on_c, 8, 58, 0
14, 203280, Note_on_c, 8, 70, 84
14, 203280, Note_on_c, 8, 58, 84
14, 203391, Note_on_c, 8, 70, 0
14, 203391, Note_on_c, 8, 58, 0
14, 203400, Note_on_c, 8, 58, 84
14, 203400, Note_on_c, 8, 70, 84
14, 203751, Note_on_c, 8, 58, 0
14, 203751, Note_on_c, 8, 70, 0
14, 203760, Note_on_c, 8, 63, 84
14, 203760, Note_on_c, 8, 75, 84
14, 203871, Note_on_c, 8, 63, 0
14, 203871, Note_on_c, 8, 75, 0
14, 203880, Note_on_c, 8, 75, 92
14, 203880, Note_on_c, 8, 63, 92
14, 204224, Note_on_c, 8, 75, 0
14, 204224, Note_on_c, 8, 63, 0
14, 204240, Note_on_c, 8, 63, 84
14, 204240, Note_on_c, 8, 75, 84
14, 204351, Note_on_c, 8, 63, 0
14, 204351, Note_on_c, 8, 75, 0
14, 204360, Note_on_c, 8, 63, 92
14, 204360, Note_on_c, 8, 75, 92
14, 204651, Note_on_c, 8, 63, 0
14, 204651, Note_on_c, 8, 75, 0
14, 204660, Note_on_c, 8, 58, 84
14, 204660, Note_on_c, 8, 70, 84
14, 204715, Note_on_c, 8, 58, 0
14, 204715, Note_on_c, 8, 70, 0
14, 204720, Note_on_c, 8, 58, 84
14, 204720, Note_on_c, 8, 70, 84
14, 204775, Note_on_c, 8, 58, 0
14, 204775, Note_on_c, 8, 70, 0
14, 204780, Note_on_c, 8, 70, 84
14, 204780, Note_on_c, 8, 58, 84
14, 204839, Note_on_c, 8, 70, 0
14, 204839, Note_on_c, 8, 58, 0
14, 204900, Note_on_c, 8, 58, 84
14, 204900, Note_on_c, 8, 70, 84
14, 204955, Note_on_c, 8, 58, 0
14, 204955, Note_on_c, 8, 70, 0
14, 204960, Note_on_c, 8, 70, 84
14, 204960, Note_on_c, 8, 58, 84
14, 205015, Note_on_c, 8, 70, 0
14, 205015, Note_on_c, 8, 58, 0
14, 205020, Note_on_c, 8, 58, 84
14, 205020, Note_on_c, 8, 70, 84
14, 205075, Note_on_c, 8, 58, 0
14, 205075, Note_on_c, 8, 70, 0
14, 205080, Note_on_c, 8, 67, 84
14, 205080, Note_on_c, 8, 63, 84
14, 205199, Note_on_c, 8, 67, 0
14, 205199, Note_on_c, 8, 63, 0
14, 213720, Note_on_c, 8, 63, 76
14, 213720, Note_on_c, 8, 75, 76
14, 213951, Note_on_c, 8, 63, 0
14, 213951, Note_on_c, 8, 75, 0
14, 213960, Note_on_c, 8, 75, 76
14, 213960, Note_on_c, 8, 63, 76
14, 214191, Note_on_c, 8, 75, 0
14, 214191, Note_on_c, 8, 63, 0
14, 214200, Note_on_c, 8, 63, 76
14, 214200, Note_on_c, 8, 75, 76
14, 214679, Note_on_c, 8, 63, 0
14, 214679, Note_on_c, 8, 75, 0
14, 215640, Note_on_c, 8, 79, 84
14, 215640, Note_on_c, 8, 67, 84
14, 216119, Note_on_c, 8, 79, 0
14, 216119, Note_on_c, 8, 67, 0
14, 221880, Note_on_c, 8, 67, 84
14, 221880, Note_on_c, 8, 79, 84
14, 222479, Note_on_c, 8, 67, 0
14, 222479, Note_on_c, 8, 79, 0
14, 222600, Note_on_c, 8, 67, 84
14, 222600, Note_on_c, 8, 79, 84
14, 222719, Note_on_c, 8, 67, 0
14, 222719, Note_on_c, 8, 79, 0
14, 225720, Note_on_c, 8, 63, 84
14, 225720, Note_on_c, 8, 75, 84
14, 225839, Note_on_c, 8, 63, 0
14, 225839, Note_on_c, 8, 75, 0
14, 226200, Note_on_c, 8, 58, 84
14, 226200, Note_on_c, 8, 70, 84
14, 226319, Note_on_c, 8, 58, 0
14, 226319, Note_on_c, 8, 70, 0
14, 226680, Note_on_c, 8, 75, 84
14, 226680, Note_on_c, 8, 63, 84
14, 226735, Note_on_c, 8, 75, 0
14, 226735, Note_on_c, 8, 63, 0
14, 226740, Note_on_c, 8, 58, 84
14, 226740, Note_on_c, 8, 70, 84
14, 226795, Note_on_c, 8, 58, 0
14, 226795, Note_on_c, 8, 70, 0
14, 226800, Note_on_c, 8, 58, 84
14, 226800, Note_on_c, 8, 70, 84
14, 226855, Note_on_c, 8, 58, 0
14, 226855, Note_on_c, 8, 70, 0
14, 226860, Note_on_c, 8, 70, 84
14, 226860, Note_on_c, 8, 58, 84
14, 226915, Note_on_c, 8, 70, 0
14, 226915, Note_on_c, 8, 58, 0
14, 226920, Note_on_c, 8, 70, 92
14, 226920, Note_on_c, 8, 58, 92
14, 227211, Note_on_c, 8, 70, 0
14, 227211, Note_on_c, 8, 58, 0
14, 227220, Note_on_c, 8, 58, 84
14, 227220, Note_on_c, 8, 70, 84
14, 227275, Note_on_c, 8, 58, 0
14, 227275, Note_on_c, 8, 70, 0
14, 227280, Note_on_c, 8, 70, 84
14, 227280, Note_on_c, 8, 58, 84
14, 227335, Note_on_c, 8, 70, 0
14, 227335, Note_on_c, 8, 58, 0
14, 227340, Note_on_c, 8, 58, 84
14, 227340, Note_on_c, 8, 70, 84
14, 227395, Note_on_c, 8, 58, 0
14, 227395, Note_on_c, 8, 70, 0
14, 227400, Note_on_c, 8, 58, 92
14, 227400, Note_on_c, 8, 70, 92
14, 227639, Note_on_c, 8, 58, 0
14, 227639, Note_on_c, 8, 70, 0
14, 227640, Note_on_c, 8, 58, 84
14, 227640, Note_on_c, 8, 70, 84
14, 227751, Note_on_c, 8, 58, 0
14, 227751, Note_on_c, 8, 70, 0
14, 227760, Note_on_c, 8, 58, 84
14, 227760, Note_on_c, 8, 70, 84
14, 227871, Note_on_c, 8, 58, 0
14, 227871, Note_on_c, 8, 70, 0
14, 227880, Note_on_c, 8, 70, 84
14, 227880, Note_on_c, 8, 58, 84
14, 227991, Note_on_c, 8, 70, 0
14, 227991, Note_on_c, 8, 58, 0
14, 228000, Note_on_c, 8, 58, 84
14, 228000, Note_on_c, 8, 70, 84
14, 228111, Note_on_c, 8, 58, 0
14, 228111, Note_on_c, 8, 70, 0
14, 228120, Note_on_c, 8, 58, 92
14, 228120, Note_on_c, 8, 70, 92
14, 228231, Note_on_c, 8, 58, 0
14, 228231, Note_on_c, 8, 70, 0
14, 228240, Note_on_c, 8, 70, 84
14, 228240, Note_on_c, 8, 58, 84
14, 228351, Note_on_c, 8, 70, 0
14, 228351, Note_on_c, 8, 58, 0
14, 228360, Note_on_c, 8, 58, 84
14, 228360, Note_on_c, 8, 70, 84
14, 228471, Note_on_c, 8, 58, 0
14, 228471, Note_on_c, 8, 70, 0
14, 228480, Note_on_c, 8, 58, 84
14, 228480, Note_on_c, 8, 70, 84
14, 228591, Note_on_c, 8, 58, 0
14, 228591, Note_on_c, 8, 70, 0
14, 228600, Note_on_c, 8, 58, 92
14, 228600, Note_on_c, 8, 70, 92
14, 228711, Note_on_c, 8, 58, 0
14, 228711, Note_on_c, 8, 70, 0
14, 228720, Note_on_c, 8, 58, 84
14, 228720, Note_on_c, 8, 70, 84
14, 228831, Note_on_c, 8, 58, 0
14, 228831, Note_on_c, 8, 70, 0
14, 228840, Note_on_c, 8, 70, 84
14, 228840, Note_on_c, 8, 58, 84
14, 228951, Note_on_c, 8, 70, 0
14, 228951, Note_on_c, 8, 58, 0
14, 228960, Note_on_c, 8, 58, 84
14, 228960, Note_on_c, 8, 70, 84
14, 229071, Note_on_c, 8, 58, 0
14, 229071, Note_on_c, 8, 70, 0
14, 229080, Note_on_c, 8, 58, 92
14, 229080, Note_on_c, 8, 70, 92
14, 229191, Note_on_c, 8, 58, 0
14, 229191, Note_on_c, 8, 70, 0
14, 229200, Note_on_c, 8, 58, 84
14, 229200, Note_on_c, 8, 70, 84
14, 229311, Note_on_c, 8, 58, 0
14, 229311, Note_on_c, 8, 70, 0
14, 229320, Note_on_c, 8, 58, 84
14, 229320, Note_on_c, 8, 70, 84
14, 229431, Note_on_c, 8, 58, 0
14, 229431, Note_on_c, 8, 70, 0
14, 229440, Note_on_c, 8, 58, 84
14, 229440, Note_on_c, 8, 70, 84
14, 229551, Note_on_c, 8, 58, 0
14, 229551, Note_on_c, 8, 70, 0
14, 229560, Note_on_c, 8, 70, 84
14, 229560, Note_on_c, 8, 58, 84
14, 229679, Note_on_c, 8, 70, 0
14, 229679, Note_on_c, 8, 58, 0
14, 229800, Note_on_c, 8, 75, 92
14, 229800, Note_on_c, 8, 63, 92
14, 229919, Note_on_c, 8, 75, 0
14, 229919, Note_on_c, 8, 63, 0
14, 230040, Note_on_c, 8, 75, 92
14, 230040, Note_on_c, 8, 63, 92
14, 230159, Note_on_c, 8, 75, 0
14, 230159, Note_on_c, 8, 63, 0
14, 230280, Note_on_c, 8, 75, 92
14, 230280, Note_on_c, 8, 63, 92
14, 230399, Note_on_c, 8, 75, 0
14, 230399, Note_on_c, 8, 63, 0
14, 230520, Note_on_c, 8, 75, 84
14, 230520, Note_on_c, 8, 63, 84
14, 230639, Note_on_c, 8, 75, 0
14, 230639, Note_on_c, 8, 63, 0
14, 230760, Note_on_c, 8, 75, 84
14, 230760, Note_on_c, 8, 63, 84
14, 230879, Note_on_c, 8, 75, 0
14, 230879, Note_on_c, 8, 63, 0
14, 231240, Note_on_c, 8, 70, 84
14, 231240, Note_on_c, 8, 58, 84
14, 231351, Note_on_c, 8, 70, 0
14, 231351, Note_on_c, 8, 58, 0
14, 231360, Note_on_c, 8, 70, 84
14, 231360, Note_on_c, 8, 58, 84
14, 231471, Note_on_c, 8, 70, 0
14, 231471, Note_on_c, 8, 58, 0
14, 231480, Note_on_c, 8, 75, 92
14, 231480, Note_on_c, 8, 63, 92
14, 231599, Note_on_c, 8, 75, 0
14, 231599, Note_on_c, 8, 63, 0
14, 231720, Note_on_c, 8, 75, 84
14, 231720, Note_on_c, 8, 63, 84
14, 231839, Note_on_c, 8, 75, 0
14, 231839, Note_on_c, 8, 63, 0
14, 232200, Note_on_c, 8, 70, 84
14, 232200, Note_on_c, 8, 58, 84
14, 232311, Note_on_c, 8, 70, 0
14, 232311, Note_on_c, 8, 58, 0
14, 232320, Note_on_c, 8, 70, 84
14, 232320, Note_on_c, 8, 58, 84
14, 232431, Note_on_c, 8, 70, 0
14, 232431, Note_on_c, 8, 58, 0
14, 232440, Note_on_c, 8, 75, 84
14, 232440, Note_on_c, 8, 63, 84
14, 232559, Note_on_c, 8, 75, 0
14, 232559, Note_on_c, 8, 63, 0
14, 232920, Note_on_c, 8, 75, 84
14, 232920, Note_on_c, 8, 63, 84
14, 233039, Note_on_c, 8, 75, 0
14, 233039, Note_on_c, 8, 63, 0
14, 233520, Note_on_c, 8, 63, 92
14, 233571, Note_on_c, 8, 63, 0
14, 233580, Note_on_c, 8, 58, 84
14, 233631, Note_on_c, 8, 58, 0
14, 233640, Note_on_c, 8, 63, 84
14, 233691, Note_on_c, 8, 63, 0
14, 233700, Note_on_c, 8, 58, 84
14, 233751, Note_on_c, 8, 58, 0
14, 233760, Note_on_c, 8, 67, 92
14, 233811, Note_on_c, 8, 67, 0
14, 233820, Note_on_c, 8, 63, 84
14, 233871, Note_on_c, 8, 63, 0
14, 233880, Note_on_c, 8, 67, 84
14, 233931, Note_on_c, 8, 67, 0
14, 233940, Note_on_c, 8, 63, 84
14, 233991, Note_on_c, 8, 63, 0
14, 234000, Note_on_c, 8, 70, 92
14, 234051, Note_on_c, 8, 70, 0
14, 234060, Note_on_c, 8, 67, 84
14, 234111, Note_on_c, 8, 67, 0
14, 234120, Note_on_c, 8, 70, 84
14, 234171, Note_on_c, 8, 70, 0
14, 234180, Note_on_c, 8, 67, 84
14, 234231, Note_on_c, 8, 67, 0
14, 234240, Note_on_c, 8, 75, 92
14, 234240, Note_on_c, 8, 63, 92
14, 234291, Note_on_c, 8, 75, 0
14, 234291, Note_on_c, 8, 63, 0
14, 234300, Note_on_c, 8, 70, 84
14, 234300, Note_on_c, 8, 58, 84
14, 234351, Note_on_c, 8, 70, 0
14, 234351, Note_on_c, 8, 58, 0
14, 234360, Note_on_c, 8, 75, 84
14, 234360, Note_on_c, 8, 63, 84
14, 234831, Note_on_c, 8, 75, 0
14, 234831, Note_on_c, 8, 63, 0
14, 234840, Note_on_c, 8, 75, 86
14, 234840, Note_on_c, 8, 63, 86
14, 235311, Note_on_c, 8, 75, 0
14, 235311, Note_on_c, 8, 63, 0
14, 235320, Note_on_c, 8, 75, 88
14, 235320, Note_on_c, 8, 63, 88
14, 235439, Note_on_c, 8, 75, 0
14, 235439, Note_on_c, 8, 63, 0
14, 235440, Note_on_c, 8, 75, 88
14, 235440, Note_on_c, 8, 63, 88
14, 235559, Note_on_c, 8, 75, 0
14, 235559, Note_on_c, 8, 63, 0
14, 235560, Note_on_c, 8, 75, 89
14, 235560, Note_on_c, 8, 63, 89
14, 235679, Note_on_c, 8, 75, 0
14, 235679, Note_on_c, 8, 63, 0
14, 235680, Note_on_c, 8, 75, 89
14, 235680, Note_on_c, 8, 63, 89
14, 235799, Note_on_c, 8, 75, 0
14, 235799, Note_on_c, 8, 63, 0
14, 235800, Note_on_c, 8, 75, 90
14, 235800, Note_on_c, 8, 63, 90
14, 235919, Note_on_c, 8, 75, 0
14, 235919, Note_on_c, 8, 63, 0
14, 235920, Note_on_c, 8, 75, 90
14, 235920, Note_on_c, 8, 63, 90
14, 236039, Note_on_c, 8, 75, 0
14, 236039, Note_on_c, 8, 63, 0
14, 236040, Note_on_c, 8, 75, 91
14, 236040, Note_on_c, 8, 63, 91
14, 236159, Note_on_c, 8, 75, 0
14, 236159, Note_on_c, 8, 63, 0
14, 236160, Note_on_c, 8, 75, 91
14, 236160, Note_on_c, 8, 63, 91
14, 236279, Note_on_c, 8, 75, 0
14, 236279, Note_on_c, 8, 63, 0
14, 236280, Note_on_c, 8, 75, 84
14, 236280, Note_on_c, 8, 63, 84
14, 236519, Note_on_c, 8, 75, 0
14, 236519, Note_on_c, 8, 63, 0
14, 236760, Note_on_c, 8, 75, 84
14, 236760, Note_on_c, 8, 63, 84
14, 236999, Note_on_c, 8, 75, 0
14, 236999, Note_on_c, 8, 63, 0
14, 237240, Note_on_c, 8, 75, 84
14, 237240, Note_on_c, 8, 63, 84
14, 237359, Note_on_c, 8, 75, 0
14, 237359, Note_on_c, 8, 63, 0
14, 237480, Note_on_c, 8, 75, 84
14, 237480, Note_on_c, 8, 63, 84
14, 237599, Note_on_c, 8, 75, 0
14, 237599, Note_on_c, 8, 63, 0
14, 237720, Note_on_c, 8, 75, 84
14, 237720, Note_on_c, 8, 63, 84
14, 237839, Note_on_c, 8, 75, 0
14, 237839, Note_on_c, 8, 63, 0
14, 237960, Note_on_c, 8, 75, 84
14, 237960, Note_on_c, 8, 63, 84
14, 238079, Note_on_c, 8, 75, 0
14, 238079, Note_on_c, 8, 63, 0
14, 238200, Note_on_c, 8, 75, 84
14, 238200, Note_on_c, 8, 63, 84
14, 238319, Note_on_c, 8, 75, 0
14, 238319, Note_on_c, 8, 63, 0
14, 238680, Note_on_c, 8, 70, 84
14, 238680, Note_on_c, 8, 67, 84
14, 238799, Note_on_c, 8, 70, 0
14, 238799, Note_on_c, 8, 67, 0
14, 239160, Note_on_c, 8, 70, 84
14, 239160, Note_on_c, 8, 67, 84
14, 239279, Note_on_c, 8, 70, 0
14, 239279, Note_on_c, 8, 67, 0
14, 239400, Note_on_c, 8, 70, 84
14, 239400, Note_on_c, 8, 67, 84
14, 239519, Note_on_c, 8, 70, 0
14, 239519, Note_on_c, 8, 67, 0
14, 239640, Note_on_c, 8, 70, 84
14, 239640, Note_on_c, 8, 67, 84
14, 239759, Note_on_c, 8, 70, 0
14, 239759, Note_on_c, 8, 67, 0
14, 239880, Note_on_c, 8, 70, 84
14, 239880, Note_on_c, 8, 67, 84
14, 239999, Note_on_c, 8, 70, 0
14, 239999, Note_on_c, 8, 67, 0
14, 240120, Note_on_c, 8, 75, 84
14, 240120, Note_on_c, 8, 63, 84
14, 240655, Note_on_c, 8, 75, 0
14, 240655, Note_on_c, 8, 63, 0
14, 240660, Note_on_c, 8, 75, 84
14, 240660, Note_on_c, 8, 63, 84
14, 240715, Note_on_c, 8, 75, 0
14, 240715, Note_on_c, 8, 63, 0
14, 240720, Note_on_c, 8, 75, 84
14, 240720, Note_on_c, 8, 63, 84
14, 240775, Note_on_c, 8, 75, 0
14, 240775, Note_on_c, 8, 63, 0
14, 240780, Note_on_c, 8, 75, 84
14, 240780, Note_on_c, 8, 63, 84
14, 240835, Note_on_c, 8, 75, 0
14, 240835, Note_on_c, 8, 63, 0
14, 240840, Note_on_c, 8, 75, 84
14, 240840, Note_on_c, 8, 63, 84
14, 240895, Note_on_c, 8, 75, 0
14, 240895, Note_on_c, 8, 63, 0
14, 240900, Note_on_c, 8, 75, 84
14, 240900, Note_on_c, 8, 63, 84
14, 240955, Note_on_c, 8, 75, 0
14, 240955, Note_on_c, 8, 63, 0
14, 240960, Note_on_c, 8, 75, 84
14, 240960, Note_on_c, 8, 63, 84
14, 241015, Note_on_c, 8, 75, 0
14, 241015, Note_on_c, 8, 63, 0
14, 241020, Note_on_c, 8, 75, 84
14, 241020, Note_on_c, 8, 63, 84
14, 241075, Note_on_c, 8, 75, 0
14, 241075, Note_on_c, 8, 63, 0
14, 241080, Note_on_c, 8, 63, 84
14, 241199, Note_on_c, 8, 63, 0
14, 241560, Note_on_c, 8, 75, 84
14, 241560, Note_on_c, 8, 63, 84
14, 241679, Note_on_c, 8, 75, 0
14, 241679, Note_on_c, 8, 63, 0
14, 242040, Note_on_c, 8, 75, 84
14, 242040, Note_on_c, 8, 63, 84
14, 242279, Note_on_c, 8, 75, 0
14, 242279, Note_on_c, 8, 63, 0
14, 242279, End_track
15, 0, Start_track
15, 0, Title_t, "Timpani"
15, 0, MIDI_port, 0
15, 0, Program_c, 10, 47
15, 0, Control_c, 10, 7, 96
15, 0, Control_c, 10, 10, 25
15, 0, Control_c, 10, 11, 127
15, 3000, Note_on_c, 10, 46, 84
15, 3239, Note_on_c, 10, 46, 0
15, 3480, Note_on_c, 10, 46, 84
15, 3659, Note_on_c, 10, 46, 0
15, 3720, Note_on_c, 10, 46, 84
15, 3899, Note_on_c, 10, 46, 0
15, 3960, Note_on_c, 10, 46, 84
15, 4139, Note_on_c, 10, 46, 0
15, 4440, Note_on_c, 10, 46, 92
15, 4679, Note_on_c, 10, 46, 0
15, 4920, Note_on_c, 10, 46, 92
15, 5039, Note_on_c, 10, 46, 0
15, 13560, Note_on_c, 10, 46, 84
15, 13649, Note_on_c, 10, 46, 0
15, 13680, Note_on_c, 10, 46, 84
15, 13769, Note_on_c, 10, 46, 0
15, 13800, Note_on_c, 10, 46, 84
15, 13889, Note_on_c, 10, 46, 0
15, 14520, Note_on_c, 10, 46, 52
15, 14639, Note_on_c, 10, 46, 0
15, 17400, Note_on_c, 10, 46, 84
15, 17489, Note_on_c, 10, 46, 0
15, 17520, Note_on_c, 10, 46, 84
15, 17609, Note_on_c, 10, 46, 0
15, 17640, Note_on_c, 10, 46, 84
15, 17729, Note_on_c, 10, 46, 0
15, 18360, Note_on_c, 10, 46, 52
15, 18479, Note_on_c, 10, 46, 0
15, 55320, Note_on_c, 10, 51, 76
15, 55559, Note_on_c, 10, 51, 0
15, 55800, Note_on_c, 10, 46, 76
15, 56039, Note_on_c, 10, 46, 0
15, 56280, Note_on_c, 10, 46, 76
15, 56519, Note_on_c, 10, 46, 0
15, 56760, Note_on_c, 10, 51, 76
15, 56999, Note_on_c, 10, 51, 0
15, 57240, Note_on_c, 10, 51, 76
15, 57479, Note_on_c, 10, 51, 0
15, 57480, Note_on_c, 10, 46, 76
15, 57719, Note_on_c, 10, 46, 0
15, 57720, Note_on_c, 10, 51, 84
15, 57839, Note_on_c, 10, 51, 0
15, 58320, Note_on_c, 10, 46, 76
15, 58439, Note_on_c, 10, 46, 0
15, 58440, Note_on_c, 10, 51, 76
15, 58559, Note_on_c, 10, 51, 0
15, 58560, Note_on_c, 10, 51, 76
15, 58679, Note_on_c, 10, 51, 0
15, 58680, Note_on_c, 10, 46, 76
15, 58799, Note_on_c, 10, 46, 0
15, 58920, Note_on_c, 10, 46, 76
15, 59039, Note_on_c, 10, 46, 0
15, 63000, Note_on_c, 10, 46, 76
15, 63119, Note_on_c, 10, 46, 0
15, 63480, Note_on_c, 10, 46, 76
15, 63599, Note_on_c, 10, 46, 0
15, 63600, Note_on_c, 10, 46, 76
15, 63719, Note_on_c, 10, 46, 0
15, 63720, Note_on_c, 10, 46, 76
15, 63839, Note_on_c, 10, 46, 0
15, 63960, Note_on_c, 10, 46, 76
15, 64079, Note_on_c, 10, 46, 0
15, 64200, Note_on_c, 10, 46, 76
15, 64319, Note_on_c, 10, 46, 0
15, 64440, Note_on_c, 10, 46, 76
15, 64559, Note_on_c, 10, 46, 0
15, 64920, Note_on_c, 10, 51, 76
15, 65039, Note_on_c, 10, 51, 0
15, 65400, Note_on_c, 10, 51, 76
15, 65519, Note_on_c, 10, 51, 0
15, 65880, Note_on_c, 10, 46, 76
15, 65999, Note_on_c, 10, 46, 0
15, 66120, Note_on_c, 10, 46, 76
15, 66239, Note_on_c, 10, 46, 0
15, 66360, Note_on_c, 10, 51, 76
15, 66479, Note_on_c, 10, 51, 0
15, 166200, Note_on_c, 10, 51, 84
15, 166439, Note_on_c, 10, 51, 0
15, 166680, Note_on_c, 10, 46, 84
15, 166919, Note_on_c, 10, 46, 0
15, 167160, Note_on_c, 10, 46, 84
15, 167399, Note_on_c, 10, 46, 0
15, 167640, Note_on_c, 10, 51, 84
15, 167879, Note_on_c, 10, 51, 0
15, 168120, Note_on_c, 10, 46, 84
15, 168359, Note_on_c, 10, 46, 0
15, 168600, Note_on_c, 10, 46, 84
15, 168839, Note_on_c, 10, 46, 0
15, 169800, Note_on_c, 10, 51, 84
15, 170039, Note_on_c, 10, 51, 0
15, 170040, Note_on_c, 10, 51, 84
15, 170279, Note_on_c, 10, 51, 0
15, 170280, Note_on_c, 10, 51, 84
15, 170519, Note_on_c, 10, 51, 0
15, 170520, Note_on_c, 10, 51, 84
15, 170759, Note_on_c, 10, 51, 0
15, 171600, Note_on_c, 10, 46, 84
15, 171719, Note_on_c, 10, 46, 0
15, 171720, Note_on_c, 10, 46, 84
15, 171839, Note_on_c, 10, 46, 0
15, 171840, Note_on_c, 10, 46, 84
15, 171959, Note_on_c, 10, 46, 0
15, 171960, Note_on_c, 10, 51, 84
15, 172019, Note_on_c, 10, 51, 0
15, 172020, Note_on_c, 10, 51, 84
15, 172079, Note_on_c, 10, 51, 0
15, 172080, Note_on_c, 10, 51, 84
15, 172139, Note_on_c, 10, 51, 0
15, 172140, Note_on_c, 10, 51, 84
15, 172199, Note_on_c, 10, 51, 0
15, 172200, Note_on_c, 10, 51, 84
15, 172259, Note_on_c, 10, 51, 0
15, 172260, Note_on_c, 10, 51, 84
15, 172319, Note_on_c, 10, 51, 0
15, 172320, Note_on_c, 10, 51, 84
15, 172379, Note_on_c, 10, 51, 0
15, 172380, Note_on_c, 10, 51, 84
15, 172439, Note_on_c, 10, 51, 0
15, 172440, Note_on_c, 10, 46, 84
15, 172679, Note_on_c, 10, 46, 0
15, 172920, Note_on_c, 10, 46, 84
15, 173159, Note_on_c, 10, 46, 0
15, 173400, Note_on_c, 10, 46, 84
15, 173639, Note_on_c, 10, 46, 0
15, 173880, Note_on_c, 10, 46, 84
15, 174119, Note_on_c, 10, 46, 0
15, 175320, Note_on_c, 10, 46, 84
15, 175559, Note_on_c, 10, 46, 0
15, 175560, Note_on_c, 10, 46, 84
15, 175799, Note_on_c, 10, 46, 0
15, 175800, Note_on_c, 10, 46, 84
15, 176039, Note_on_c, 10, 46, 0
15, 176040, Note_on_c, 10, 46, 84
15, 176279, Note_on_c, 10, 46, 0
15, 176280, Note_on_c, 10, 46, 84
15, 176519, Note_on_c, 10, 46, 0
15, 176520, Note_on_c, 10, 46, 84
15, 176759, Note_on_c, 10, 46, 0
15, 176760, Note_on_c, 10, 46, 84
15, 176999, Note_on_c, 10, 46, 0
15, 177000, Note_on_c, 10, 46, 84
15, 177239, Note_on_c, 10, 46, 0
15, 177240, Note_on_c, 10, 46, 84
15, 177269, Note_on_c, 10, 46, 0
15, 177270, Note_on_c, 10, 46, 84
15, 177299, Note_on_c, 10, 46, 0
15, 177300, Note_on_c, 10, 46, 84
15, 177329, Note_on_c, 10, 46, 0
15, 177330, Note_on_c, 10, 46, 84
15, 177359, Note_on_c, 10, 46, 0
15, 177360, Note_on_c, 10, 46, 84
15, 177389, Note_on_c, 10, 46, 0
15, 177390, Note_on_c, 10, 46, 84
15, 177419, Note_on_c, 10, 46, 0
15, 177420, Note_on_c, 10, 46, 84
15, 177449, Note_on_c, 10, 46, 0
15, 177450, Note_on_c, 10, 46, 84
15, 177479, Note_on_c, 10, 46, 0
15, 177480, Note_on_c, 10, 46, 84
15, 177509, Note_on_c, 10, 46, 0
15, 177510, Note_on_c, 10, 46, 84
15, 177539, Note_on_c, 10, 46, 0
15, 177540, Note_on_c, 10, 46, 84
15, 177569, Note_on_c, 10, 46, 0
15, 177570, Note_on_c, 10, 46, 84
15, 177599, Note_on_c, 10, 46, 0
15, 177600, Note_on_c, 10, 46, 84
15, 177629, Note_on_c, 10, 46, 0
15, 177630, Note_on_c, 10, 46, 84
15, 177659, Note_on_c, 10, 46, 0
15, 177660, Note_on_c, 10, 46, 84
15, 177689, Note_on_c, 10, 46, 0
15, 177690, Note_on_c, 10, 46, 84
15, 177719, Note_on_c, 10, 46, 0
15, 177720, Note_on_c, 10, 46, 84
15, 177749, Note_on_c, 10, 46, 0
15, 177750, Note_on_c, 10, 46, 84
15, 177779, Note_on_c, 10, 46, 0
15, 177780, Note_on_c, 10, 46, 84
15, 177809, Note_on_c, 10, 46, 0
15, 177810, Note_on_c, 10, 46, 84
15, 177839, Note_on_c, 10, 46, 0
15, 177840, Note_on_c, 10, 46, 84
15, 177869, Note_on_c, 10, 46, 0
15, 177870, Note_on_c, 10, 46, 84
15, 177899, Note_on_c, 10, 46, 0
15, 177900, Note_on_c, 10, 46, 84
15, 177929, Note_on_c, 10, 46, 0
15, 177930, Note_on_c, 10, 46, 84
15, 177959, Note_on_c, 10, 46, 0
15, 177960, Note_on_c, 10, 46, 84
15, 177989, Note_on_c, 10, 46, 0
15, 177990, Note_on_c, 10, 46, 84
15, 178019, Note_on_c, 10, 46, 0
15, 178020, Note_on_c, 10, 46, 84
15, 178049, Note_on_c, 10, 46, 0
15, 178050, Note_on_c, 10, 46, 84
15, 178079, Note_on_c, 10, 46, 0
15, 178080, Note_on_c, 10, 46, 84
15, 178109, Note_on_c, 10, 46, 0
15, 178110, Note_on_c, 10, 46, 84
15, 178139, Note_on_c, 10, 46, 0
15, 178140, Note_on_c, 10, 46, 84
15, 178169, Note_on_c, 10, 46, 0
15, 178170, Note_on_c, 10, 46, 84
15, 178199, Note_on_c, 10, 46, 0
15, 178200, Note_on_c, 10, 46, 84
15, 178229, Note_on_c, 10, 46, 0
15, 178230, Note_on_c, 10, 46, 84
15, 178259, Note_on_c, 10, 46, 0
15, 178260, Note_on_c, 10, 46, 84
15, 178289, Note_on_c, 10, 46, 0
15, 178290, Note_on_c, 10, 46, 84
15, 178319, Note_on_c, 10, 46, 0
15, 178320, Note_on_c, 10, 46, 84
15, 178349, Note_on_c, 10, 46, 0
15, 178350, Note_on_c, 10, 46, 84
15, 178379, Note_on_c, 10, 46, 0
15, 178380, Note_on_c, 10, 46, 84
15, 178409, Note_on_c, 10, 46, 0
15, 178410, Note_on_c, 10, 46, 84
15, 178439, Note_on_c, 10, 46, 0
15, 178440, Note_on_c, 10, 46, 84
15, 178469, Note_on_c, 10, 46, 0
15, 178470, Note_on_c, 10, 46, 84
15, 178499, Note_on_c, 10, 46, 0
15, 178500, Note_on_c, 10, 46, 84
15, 178529, Note_on_c, 10, 46, 0
15, 178530, Note_on_c, 10, 46, 84
15, 178559, Note_on_c, 10, 46, 0
15, 178560, Note_on_c, 10, 46, 84
15, 178589, Note_on_c, 10, 46, 0
15, 178590, Note_on_c, 10, 46, 84
15, 178619, Note_on_c, 10, 46, 0
15, 178620, Note_on_c, 10, 46, 84
15, 178649, Note_on_c, 10, 46, 0
15, 178650, Note_on_c, 10, 46, 84
15, 178679, Note_on_c, 10, 46, 0
15, 178680, Note_on_c, 10, 46, 84
15, 178709, Note_on_c, 10, 46, 0
15, 178710, Note_on_c, 10, 46, 84
15, 178739, Note_on_c, 10, 46, 0
15, 178740, Note_on_c, 10, 46, 84
15, 178769, Note_on_c, 10, 46, 0
15, 178770, Note_on_c, 10, 46, 84
15, 178799, Note_on_c, 10, 46, 0
15, 178800, Note_on_c, 10, 46, 84
15, 178829, Note_on_c, 10, 46, 0
15, 178830, Note_on_c, 10, 46, 84
15, 178859, Note_on_c, 10, 46, 0
15, 178860, Note_on_c, 10, 46, 84
15, 178889, Note_on_c, 10, 46, 0
15, 178890, Note_on_c, 10, 46, 84
15, 178919, Note_on_c, 10, 46, 0
15, 178920, Note_on_c, 10, 46, 84
15, 178949, Note_on_c, 10, 46, 0
15, 178950, Note_on_c, 10, 46, 84
15, 178979, Note_on_c, 10, 46, 0
15, 178980, Note_on_c, 10, 46, 84
15, 179009, Note_on_c, 10, 46, 0
15, 179010, Note_on_c, 10, 46, 84
15, 179039, Note_on_c, 10, 46, 0
15, 179040, Note_on_c, 10, 46, 84
15, 179069, Note_on_c, 10, 46, 0
15, 179070, Note_on_c, 10, 46, 84
15, 179099, Note_on_c, 10, 46, 0
15, 179100, Note_on_c, 10, 46, 84
15, 179129, Note_on_c, 10, 46, 0
15, 179130, Note_on_c, 10, 46, 84
15, 179159, Note_on_c, 10, 46, 0
15, 179160, Note_on_c, 10, 46, 84
15, 179279, Note_on_c, 10, 46, 0
15, 179400, Note_on_c, 10, 46, 84
15, 179519, Note_on_c, 10, 46, 0
15, 179640, Note_on_c, 10, 46, 84
15, 179759, Note_on_c, 10, 46, 0
15, 179880, Note_on_c, 10, 46, 84
15, 179999, Note_on_c, 10, 46, 0
15, 180120, Note_on_c, 10, 46, 84
15, 180239, Note_on_c, 10, 46, 0
15, 181020, Note_on_c, 10, 46, 84
15, 181079, Note_on_c, 10, 46, 0
15, 181080, Note_on_c, 10, 46, 84
15, 181319, Note_on_c, 10, 46, 0
15, 181500, Note_on_c, 10, 46, 84
15, 181559, Note_on_c, 10, 46, 0
15, 181560, Note_on_c, 10, 46, 84
15, 181799, Note_on_c, 10, 46, 0
15, 181980, Note_on_c, 10, 46, 84
15, 182039, Note_on_c, 10, 46, 0
15, 182040, Note_on_c, 10, 46, 84
15, 182399, Note_on_c, 10, 46, 0
15, 190920, Note_on_c, 10, 46, 44
15, 191039, Note_on_c, 10, 46, 0
15, 191040, Note_on_c, 10, 46, 44
15, 191159, Note_on_c, 10, 46, 0
15, 191880, Note_on_c, 10, 46, 44
15, 191999, Note_on_c, 10, 46, 0
15, 192000, Note_on_c, 10, 46, 44
15, 192119, Note_on_c, 10, 46, 0
15, 192360, Note_on_c, 10, 46, 44
15, 192479, Note_on_c, 10, 46, 0
15, 192480, Note_on_c, 10, 46, 44
15, 192599, Note_on_c, 10, 46, 0
15, 192840, Note_on_c, 10, 46, 44
15, 192959, Note_on_c, 10, 46, 0
15, 192960, Note_on_c, 10, 46, 44
15, 193079, Note_on_c, 10, 46, 0
15, 193200, Note_on_c, 10, 46, 52
15, 193319, Note_on_c, 10, 46, 0
15, 193440, Note_on_c, 10, 46, 52
15, 193559, Note_on_c, 10, 46, 0
15, 193560, Note_on_c, 10, 46, 44
15, 193679, Note_on_c, 10, 46, 0
15, 194760, Note_on_c, 10, 46, 44
15, 194879, Note_on_c, 10, 46, 0
15, 194880, Note_on_c, 10, 46, 44
15, 194999, Note_on_c, 10, 46, 0
15, 195720, Note_on_c, 10, 46, 44
15, 195839, Note_on_c, 10, 46, 0
15, 195840, Note_on_c, 10, 46, 44
15, 195959, Note_on_c, 10, 46, 0
15, 196200, Note_on_c, 10, 46, 44
15, 196319, Note_on_c, 10, 46, 0
15, 196320, Note_on_c, 10, 46, 46
15, 196439, Note_on_c, 10, 46, 0
15, 196680, Note_on_c, 10, 46, 54
15, 196799, Note_on_c, 10, 46, 0
15, 196800, Note_on_c, 10, 46, 57
15, 196919, Note_on_c, 10, 46, 0
15, 197040, Note_on_c, 10, 46, 52
15, 197159, Note_on_c, 10, 46, 0
15, 197280, Note_on_c, 10, 46, 52
15, 197399, Note_on_c, 10, 46, 0
15, 197400, Note_on_c, 10, 46, 52
15, 197519, Note_on_c, 10, 46, 0
15, 198000, Note_on_c, 10, 46, 84
15, 198119, Note_on_c, 10, 46, 0
15, 198120, Note_on_c, 10, 46, 84
15, 198239, Note_on_c, 10, 46, 0
15, 198480, Note_on_c, 10, 46, 84
15, 198599, Note_on_c, 10, 46, 0
15, 198600, Note_on_c, 10, 46, 84
15, 198719, Note_on_c, 10, 46, 0
15, 198960, Note_on_c, 10, 46, 84
15, 199079, Note_on_c, 10, 46, 0
15, 199080, Note_on_c, 10, 46, 84
15, 199199, Note_on_c, 10, 46, 0
15, 199440, Note_on_c, 10, 46, 84
15, 199559, Note_on_c, 10, 46, 0
15, 199560, Note_on_c, 10, 46, 84
15, 199679, Note_on_c, 10, 46, 0
15, 199800, Note_on_c, 10, 46, 84
15, 199919, Note_on_c, 10, 46, 0
15, 200040, Note_on_c, 10, 46, 84
15, 200159, Note_on_c, 10, 46, 0
15, 200280, Note_on_c, 10, 46, 92
15, 200519, Note_on_c, 10, 46, 0
15, 200640, Note_on_c, 10, 46, 84
15, 200759, Note_on_c, 10, 46, 0
15, 200760, Note_on_c, 10, 46, 84
15, 200789, Note_on_c, 10, 46, 0
15, 200790, Note_on_c, 10, 46, 84
15, 200819, Note_on_c, 10, 46, 0
15, 200820, Note_on_c, 10, 46, 84
15, 200849, Note_on_c, 10, 46, 0
15, 200850, Note_on_c, 10, 46, 84
15, 200879, Note_on_c, 10, 46, 0
15, 200880, Note_on_c, 10, 46, 84
15, 200909, Note_on_c, 10, 46, 0
15, 200910, Note_on_c, 10, 46, 84
15, 200939, Note_on_c, 10, 46, 0
15, 200940, Note_on_c, 10, 46, 84
15, 200969, Note_on_c, 10, 46, 0
15, 200970, Note_on_c, 10, 46, 84
15, 200999, Note_on_c, 10, 46, 0
15, 201000, Note_on_c, 10, 46, 84
15, 201029, Note_on_c, 10, 46, 0
15, 201030, Note_on_c, 10, 46, 84
15, 201059, Note_on_c, 10, 46, 0
15, 201060, Note_on_c, 10, 46, 84
15, 201089, Note_on_c, 10, 46, 0
15, 201090, Note_on_c, 10, 46, 84
15, 201119, Note_on_c, 10, 46, 0
15, 201120, Note_on_c, 10, 46, 84
15, 201149, Note_on_c, 10, 46, 0
15, 201150, Note_on_c, 10, 46, 84
15, 201179, Note_on_c, 10, 46, 0
15, 201180, Note_on_c, 10, 46, 84
15, 201209, Note_on_c, 10, 46, 0
15, 201210, Note_on_c, 10, 46, 84
15, 201239, Note_on_c, 10, 46, 0
15, 201240, Note_on_c, 10, 46, 84
15, 201359, Note_on_c, 10, 46, 0
15, 201360, Note_on_c, 10, 46, 84
15, 201479, Note_on_c, 10, 46, 0
15, 201480, Note_on_c, 10, 46, 84
15, 201599, Note_on_c, 10, 46, 0
15, 201720, Note_on_c, 10, 46, 84
15, 201839, Note_on_c, 10, 46, 0
15, 202200, Note_on_c, 10, 46, 84
15, 202319, Note_on_c, 10, 46, 0
15, 202320, Note_on_c, 10, 46, 84
15, 202439, Note_on_c, 10, 46, 0
15, 202440, Note_on_c, 10, 46, 84
15, 202559, Note_on_c, 10, 46, 0
15, 202680, Note_on_c, 10, 46, 84
15, 202799, Note_on_c, 10, 46, 0
15, 203160, Note_on_c, 10, 46, 84
15, 203279, Note_on_c, 10, 46, 0
15, 203280, Note_on_c, 10, 46, 84
15, 203399, Note_on_c, 10, 46, 0
15, 203400, Note_on_c, 10, 46, 84
15, 203519, Note_on_c, 10, 46, 0
15, 203640, Note_on_c, 10, 51, 84
15, 203759, Note_on_c, 10, 51, 0
15, 203760, Note_on_c, 10, 51, 84
15, 203879, Note_on_c, 10, 51, 0
15, 203880, Note_on_c, 10, 51, 84
15, 203999, Note_on_c, 10, 51, 0
15, 204240, Note_on_c, 10, 51, 84
15, 204359, Note_on_c, 10, 51, 0
15, 204360, Note_on_c, 10, 51, 84
15, 204479, Note_on_c, 10, 51, 0
15, 204600, Note_on_c, 10, 51, 84
15, 204719, Note_on_c, 10, 51, 0
15, 204840, Note_on_c, 10, 46, 84
15, 204959, Note_on_c, 10, 46, 0
15, 205080, Note_on_c, 10, 51, 84
15, 205199, Note_on_c, 10, 51, 0
15, 213720, Note_on_c, 10, 51, 76
15, 213839, Note_on_c, 10, 51, 0
15, 213960, Note_on_c, 10, 51, 76
15, 214079, Note_on_c, 10, 51, 0
15, 214200, Note_on_c, 10, 51, 76
15, 214319, Note_on_c, 10, 51, 0
15, 225720, Note_on_c, 10, 51, 84
15, 225839, Note_on_c, 10, 51, 0
15, 226200, Note_on_c, 10, 46, 84
15, 226319, Note_on_c, 10, 46, 0
15, 226680, Note_on_c, 10, 51, 84
15, 226799, Note_on_c, 10, 51, 0
15, 227160, Note_on_c, 10, 46, 84
15, 227279, Note_on_c, 10, 46, 0
15, 227640, Note_on_c, 10, 51, 84
15, 227759, Note_on_c, 10, 51, 0
15, 227880, Note_on_c, 10, 51, 84
15, 227999, Note_on_c, 10, 51, 0
15, 228120, Note_on_c, 10, 46, 84
15, 228239, Note_on_c, 10, 46, 0
15, 228360, Note_on_c, 10, 46, 84
15, 228479, Note_on_c, 10, 46, 0
15, 228600, Note_on_c, 10, 51, 84
15, 228719, Note_on_c, 10, 51, 0
15, 228720, Note_on_c, 10, 51, 84
15, 228839, Note_on_c, 10, 51, 0
15, 228840, Note_on_c, 10, 46, 84
15, 228959, Note_on_c, 10, 46, 0
15, 228960, Note_on_c, 10, 46, 84
15, 229079, Note_on_c, 10, 46, 0
15, 229080, Note_on_c, 10, 51, 84
15, 229199, Note_on_c, 10, 51, 0
15, 229200, Note_on_c, 10, 51, 84
15, 229319, Note_on_c, 10, 51, 0
15, 229320, Note_on_c, 10, 46, 84
15, 229439, Note_on_c, 10, 46, 0
15, 229440, Note_on_c, 10, 46, 84
15, 229559, Note_on_c, 10, 46, 0
15, 229560, Note_on_c, 10, 51, 84
15, 229679, Note_on_c, 10, 51, 0
15, 229800, Note_on_c, 10, 51, 84
15, 229919, Note_on_c, 10, 51, 0
15, 230040, Note_on_c, 10, 51, 84
15, 230159, Note_on_c, 10, 51, 0
15, 230280, Note_on_c, 10, 51, 84
15, 230399, Note_on_c, 10, 51, 0
15, 230520, Note_on_c, 10, 51, 84
15, 230639, Note_on_c, 10, 51, 0
15, 230760, Note_on_c, 10, 51, 84
15, 230879, Note_on_c, 10, 51, 0
15, 231240, Note_on_c, 10, 46, 84
15, 231359, Note_on_c, 10, 46, 0
15, 231360, Note_on_c, 10, 46, 84
15, 231479, Note_on_c, 10, 46, 0
15, 231480, Note_on_c, 10, 51, 92
15, 231599, Note_on_c, 10, 51, 0
15, 231720, Note_on_c, 10, 51, 84
15, 231839, Note_on_c, 10, 51, 0
15, 232200, Note_on_c, 10, 46, 84
15, 232319, Note_on_c, 10, 46, 0
15, 232320, Note_on_c, 10, 46, 84
15, 232439, Note_on_c, 10, 46, 0
15, 232440, Note_on_c, 10, 51, 84
15, 232559, Note_on_c, 10, 51, 0
15, 232920, Note_on_c, 10, 51, 84
15, 233039, Note_on_c, 10, 51, 0
15, 233400, Note_on_c, 10, 51, 84
15, 233519, Note_on_c, 10, 51, 0
15, 233640, Note_on_c, 10, 51, 84
15, 233759, Note_on_c, 10, 51, 0
15, 233880, Note_on_c, 10, 51, 84
15, 233999, Note_on_c, 10, 51, 0
15, 234120, Note_on_c, 10, 51, 84
15, 234239, Note_on_c, 10, 51, 0
15, 234360, Note_on_c, 10, 51, 84
15, 234479, Note_on_c, 10, 51, 0
15, 234780, Note_on_c, 10, 46, 85
15, 234799, Note_on_c, 10, 46, 0
15, 234800, Note_on_c, 10, 46, 85
15, 234819, Note_on_c, 10, 46, 0
15, 234820, Note_on_c, 10, 46, 85
15, 234839, Note_on_c, 10, 46, 0
15, 234840, Note_on_c, 10, 51, 86
15, 234959, Note_on_c, 10, 51, 0
15, 235260, Note_on_c, 10, 46, 87
15, 235279, Note_on_c, 10, 46, 0
15, 235280, Note_on_c, 10, 46, 87
15, 235299, Note_on_c, 10, 46, 0
15, 235300, Note_on_c, 10, 46, 87
15, 235319, Note_on_c, 10, 46, 0
15, 235320, Note_on_c, 10, 51, 88
15, 235379, Note_on_c, 10, 51, 0
15, 235380, Note_on_c, 10, 46, 88
15, 235439, Note_on_c, 10, 46, 0
15, 235440, Note_on_c, 10, 51, 88
15, 235499, Note_on_c, 10, 51, 0
15, 235500, Note_on_c, 10, 46, 88
15, 235559, Note_on_c, 10, 46, 0
15, 235560, Note_on_c, 10, 51, 89
15, 235619, Note_on_c, 10, 51, 0
15, 235620, Note_on_c, 10, 46, 89
15, 235679, Note_on_c, 10, 46, 0
15, 235680, Note_on_c, 10, 51, 89
15, 235739, Note_on_c, 10, 51, 0
15, 235740, Note_on_c, 10, 46, 89
15, 235799, Note_on_c, 10, 46, 0
15, 235800, Note_on_c, 10, 51, 90
15, 235859, Note_on_c, 10, 51, 0
15, 235860, Note_on_c, 10, 46, 90
15, 235919, Note_on_c, 10, 46, 0
15, 235920, Note_on_c, 10, 51, 90
15, 235979, Note_on_c, 10, 51, 0
15, 235980, Note_on_c, 10, 46, 90
15, 236039, Note_on_c, 10, 46, 0
15, 236040, Note_on_c, 10, 51, 91
15, 236099, Note_on_c, 10, 51, 0
15, 236100, Note_on_c, 10, 46, 91
15, 236159, Note_on_c, 10, 46, 0
15, 236160, Note_on_c, 10, 51, 91
15, 236219, Note_on_c, 10, 51, 0
15, 236220, Note_on_c, 10, 46, 91
15, 236279, Note_on_c, 10, 46, 0
15, 236280, Note_on_c, 10, 51, 84
15, 236519, Note_on_c, 10, 51, 0
15, 236760, Note_on_c, 10, 51, 84
15, 236999, Note_on_c, 10, 51, 0
15, 237240, Note_on_c, 10, 51, 84
15, 237359, Note_on_c, 10, 51, 0
15, 237480, Note_on_c, 10, 51, 84
15, 237599, Note_on_c, 10, 51, 0
15, 237720, Note_on_c, 10, 51, 84
15, 237839, Note_on_c, 10, 51, 0
15, 237960, Note_on_c, 10, 51, 84
15, 238079, Note_on_c, 10, 51, 0
15, 238200, Note_on_c, 10, 51, 84
15, 238319, Note_on_c, 10, 51, 0
15, 238680, Note_on_c, 10, 51, 84
15, 238799, Note_on_c, 10, 51, 0
15, 239160, Note_on_c, 10, 51, 84
15, 239279, Note_on_c, 10, 51, 0
15, 239400, Note_on_c, 10, 51, 84
15, 239519, Note_on_c, 10, 51, 0
15, 239640, Note_on_c, 10, 51, 84
15, 239759, Note_on_c, 10, 51, 0
15, 239880, Note_on_c, 10, 51, 84
15, 239999, Note_on_c, 10, 51, 0
15, 240120, Note_on_c, 10, 51, 80
15, 240134, Note_on_c, 10, 51, 0
15, 240135, Note_on_c, 10, 51, 84
15, 240149, Note_on_c, 10, 51, 0
15, 240150, Note_on_c, 10, 51, 81
15, 240164, Note_on_c, 10, 51, 0
15, 240165, Note_on_c, 10, 51, 86
15, 240179, Note_on_c, 10, 51, 0
15, 240180, Note_on_c, 10, 51, 84
15, 240194, Note_on_c, 10, 51, 0
15, 240195, Note_on_c, 10, 51, 83
15, 240209, Note_on_c, 10, 51, 0
15, 240210, Note_on_c, 10, 51, 82
15, 240224, Note_on_c, 10, 51, 0
15, 240225, Note_on_c, 10, 51, 87
15, 240239, Note_on_c, 10, 51, 0
15, 240240, Note_on_c, 10, 51, 86
15, 240254, Note_on_c, 10, 51, 0
15, 240255, Note_on_c, 10, 51, 85
15, 240269, Note_on_c, 10, 51, 0
15, 240270, Note_on_c, 10, 51, 81
15, 240284, Note_on_c, 10, 51, 0
15, 240285, Note_on_c, 10, 51, 86
15, 240299, Note_on_c, 10, 51, 0
15, 240300, Note_on_c, 10, 51, 85
15, 240314, Note_on_c, 10, 51, 0
15, 240315, Note_on_c, 10, 51, 84
15, 240329, Note_on_c, 10, 51, 0
15, 240330, Note_on_c, 10, 51, 82
15, 240344, Note_on_c, 10, 51, 0
15, 240345, Note_on_c, 10, 51, 80
15, 240359, Note_on_c, 10, 51, 0
15, 240360, Note_on_c, 10, 51, 80
15, 240374, Note_on_c, 10, 51, 0
15, 240375, Note_on_c, 10, 51, 82
15, 240389, Note_on_c, 10, 51, 0
15, 240390, Note_on_c, 10, 51, 81
15, 240404, Note_on_c, 10, 51, 0
15, 240405, Note_on_c, 10, 51, 81
15, 240419, Note_on_c, 10, 51, 0
15, 240420, Note_on_c, 10, 51, 87
15, 240434, Note_on_c, 10, 51, 0
15, 240435, Note_on_c, 10, 51, 83
15, 240449, Note_on_c, 10, 51, 0
15, 240450, Note_on_c, 10, 51, 80
15, 240464, Note_on_c, 10, 51, 0
15, 240465, Note_on_c, 10, 51, 80
15, 240479, Note_on_c, 10, 51, 0
15, 240480, Note_on_c, 10, 51, 80
15, 240494, Note_on_c, 10, 51, 0
15, 240495, Note_on_c, 10, 51, 83
15, 240509, Note_on_c, 10, 51, 0
15, 240510, Note_on_c, 10, 51, 84
15, 240524, Note_on_c, 10, 51, 0
15, 240525, Note_on_c, 10, 51, 84
15, 240539, Note_on_c, 10, 51, 0
15, 240540, Note_on_c, 10, 51, 84
15, 240554, Note_on_c, 10, 51, 0
15, 240555, Note_on_c, 10, 51, 84
15, 240569, Note_on_c, 10, 51, 0
15, 240570, Note_on_c, 10, 51, 81
15, 240584, Note_on_c, 10, 51, 0
15, 240585, Note_on_c, 10, 51, 85
15, 240599, Note_on_c, 10, 51, 0
15, 240600, Note_on_c, 10, 51, 83
15, 240614, Note_on_c, 10, 51, 0
15, 240615, Note_on_c, 10, 51, 82
15, 240629, Note_on_c, 10, 51, 0
15, 240630, Note_on_c, 10, 51, 80
15, 240644, Note_on_c, 10, 51, 0
15, 240645, Note_on_c, 10, 51, 84
15, 240659, Note_on_c, 10, 51, 0
15, 240660, Note_on_c, 10, 51, 86
15, 240674, Note_on_c, 10, 51, 0
15, 240675, Note_on_c, 10, 51, 86
15, 240689, Note_on_c, 10, 51, 0
15, 240690, Note_on_c, 10, 51, 84
15, 240704, Note_on_c, 10, 51, 0
15, 240705, Note_on_c, 10, 51, 82
15, 240719, Note_on_c, 10, 51, 0
15, 240720, Note_on_c, 10, 51, 87
15, 240734, Note_on_c, 10, 51, 0
15, 240735, Note_on_c, 10, 51, 85
15, 240749, Note_on_c, 10, 51, 0
15, 240750, Note_on_c, 10, 51, 87
15, 240764, Note_on_c, 10, 51, 0
15, 240765, Note_on_c, 10, 51, 87
15, 240779, Note_on_c, 10, 51, 0
15, 240780, Note_on_c, 10, 51, 84
15, 240794, Note_on_c, 10, 51, 0
15, 240795, Note_on_c, 10, 51, 81
15, 240809, Note_on_c, 10, 51, 0
15, 240810, Note_on_c, 10, 51, 83
15, 240824, Note_on_c, 10, 51, 0
15, 240825, Note_on_c, 10, 51, 81
15, 240839, Note_on_c, 10, 51, 0
15, 240840, Note_on_c, 10, 51, 86
15, 240854, Note_on_c, 10, 51, 0
15, 240855, Note_on_c, 10, 51, 81
15, 240869, Note_on_c, 10, 51, 0
15, 240870, Note_on_c, 10, 51, 86
15, 240884, Note_on_c, 10, 51, 0
15, 240885, Note_on_c, 10, 51, 86
15, 240899, Note_on_c, 10, 51, 0
15, 240900, Note_on_c, 10, 51, 87
15, 240914, Note_on_c, 10, 51, 0
15, 240915, Note_on_c, 10, 51, 87
15, 240929, Note_on_c, 10, 51, 0
15, 240930, Note_on_c, 10, 51, 84
15, 240944, Note_on_c, 10, 51, 0
15, 240945, Note_on_c, 10, 51, 83
15, 240959, Note_on_c, 10, 51, 0
15, 240960, Note_on_c, 10, 51, 82
15, 240974, Note_on_c, 10, 51, 0
15, 240975, Note_on_c, 10, 51, 82
15, 240989, Note_on_c, 10, 51, 0
15, 240990, Note_on_c, 10, 51, 86
15, 241004, Note_on_c, 10, 51, 0
15, 241005, Note_on_c, 10, 51, 80
15, 241019, Note_on_c, 10, 51, 0
15, 241020, Note_on_c, 10, 51, 83
15, 241034, Note_on_c, 10, 51, 0
15, 241035, Note_on_c, 10, 51, 80
15, 241049, Note_on_c, 10, 51, 0
15, 241050, Note_on_c, 10, 51, 85
15, 241064, Note_on_c, 10, 51, 0
15, 241065, Note_on_c, 10, 51, 80
15, 241079, Note_on_c, 10, 51, 0
15, 241080, Note_on_c, 10, 51, 84
15, 241199, Note_on_c, 10, 51, 0
15, 241560, Note_on_c, 10, 51, 84
15, 241679, Note_on_c, 10, 51, 0
15, 242040, Note_on_c, 10, 51, 84
15, 242279, Note_on_c, 10, 51, 0
15, 242279, End_track
16, 0, Start_track
16, 0, Title_t, "Violin I"
16, 0, MIDI_port, 0
16, 0, Program_c, 11, 48
16, 0, Control_c, 11, 7, 96
16, 0, Control_c, 11, 10, 48
16, 0, Control_c, 11, 11, 127
16, 80, Note_on_c, 11, 62, 84
16, 99, Note_on_c, 11, 62, 0
16, 100, Note_on_c, 11, 74, 84
16, 119, Note_on_c, 11, 74, 0
16, 120, Note_on_c, 11, 86, 84
16, 411, Note_on_c, 11, 86, 0
16, 420, Note_on_c, 11, 84, 84
16, 471, Note_on_c, 11, 84, 0
16, 480, Note_on_c, 11, 82, 84
16, 531, Note_on_c, 11, 82, 0
16, 540, Note_on_c, 11, 81, 84
16, 591, Note_on_c, 11, 81, 0
16, 600, Note_on_c, 11, 82, 84
16, 651, Note_on_c, 11, 82, 0
16, 660, Note_on_c, 11, 81, 84
16, 711, Note_on_c, 11, 81, 0
16, 720, Note_on_c, 11, 79, 84
16, 771, Note_on_c, 11, 79, 0
16, 780, Note_on_c, 11, 78, 84
16, 831, Note_on_c, 11, 78, 0
16, 840, Note_on_c, 11, 79, 84
16, 891, Note_on_c, 11, 79, 0
16, 900, Note_on_c, 11, 77, 84
16, 951, Note_on_c, 11, 77, 0
16, 960, Note_on_c, 11, 75, 84
16, 1011, Note_on_c, 11, 75, 0
16, 1020, Note_on_c, 11, 74, 84
16, 1071, Note_on_c, 11, 74, 0
16, 1080, Note_on_c, 11, 75, 84
16, 1131, Note_on_c, 11, 75, 0
16, 1140, Note_on_c, 11, 74, 84
16, 1191, Note_on_c, 11, 74, 0
16, 1200, Note_on_c, 11, 72, 84
16, 1251, Note_on_c, 11, 72, 0
16, 1260, Note_on_c, 11, 70, 84
16, 1311, Note_on_c, 11, 70, 0
16, 1320, Note_on_c, 11, 72, 84
16, 1371, Note_on_c, 11, 72, 0
16, 1380, Note_on_c, 11, 70, 84
16, 1431, Note_on_c, 11, 70, 0
16, 1440, Note_on_c, 11, 69, 84
16, 1491, Note_on_c, 11, 69, 0
16, 1500, Note_on_c, 11, 67, 84
16, 1551, Note_on_c, 11, 67, 0
16, 1560, Note_on_c, 11, 68, 84
16, 1611, Note_on_c, 11, 68, 0
16, 1620, Note_on_c, 11, 68, 84
16, 1671, Note_on_c, 11, 68, 0
16, 1680, Note_on_c, 11, 68, 84
16, 1731, Note_on_c, 11, 68, 0
16, 1740, Note_on_c, 11, 68, 84
16, 1791, Note_on_c, 11, 68, 0
16, 1800, Note_on_c, 11, 68, 84
16, 1851, Note_on_c, 11, 68, 0
16, 1860, Note_on_c, 11, 68, 84
16, 1911, Note_on_c, 11, 68, 0
16, 1920, Note_on_c, 11, 68, 84
16, 1971, Note_on_c, 11, 68, 0
16, 1980, Note_on_c, 11, 68, 84
16, 2031, Note_on_c, 11, 68, 0
16, 2040, Note_on_c, 11, 68, 84
16, 2279, Note_on_c, 11, 68, 0
16, 2460, Note_on_c, 11, 74, 84
16, 2511, Note_on_c, 11, 74, 0
16, 2520, Note_on_c, 11, 74, 84
16, 2639, Note_on_c, 11, 74, 0
16, 2700, Note_on_c, 11, 77, 84
16, 2751, Note_on_c, 11, 77, 0
16, 2760, Note_on_c, 11, 77, 84
16, 2879, Note_on_c, 11, 77, 0
16, 2940, Note_on_c, 11, 80, 84
16, 2991, Note_on_c, 11, 80, 0
16, 3000, Note_on_c, 11, 80, 84
16, 3239, Note_on_c, 11, 80, 0
16, 3480, Note_on_c, 11, 62, 84
16, 3480, Note_on_c, 11, 70, 84
16, 3480, Note_on_c, 11, 80, 84
16, 3659, Note_on_c, 11, 62, 0
16, 3659, Note_on_c, 11, 70, 0
16, 3659, Note_on_c, 11, 80, 0
16, 3720, Note_on_c, 11, 62, 84
16, 3720, Note_on_c, 11, 80, 84
16, 3720, Note_on_c, 11, 70, 84
16, 3899, Note_on_c, 11, 62, 0
16, 3899, Note_on_c, 11, 80, 0
16, 3899, Note_on_c, 11, 70, 0
16, 3960, Note_on_c, 11, 70, 92
16, 3960, Note_on_c, 11, 62, 92
16, 3960, Note_on_c, 11, 80, 92
16, 4139, Note_on_c, 11, 70, 0
16, 4139, Note_on_c, 11, 62, 0
16, 4139, Note_on_c, 11, 80, 0
16, 4440, Note_on_c, 11, 77, 92
16, 4440, Note_on_c, 11, 62, 92
16, 4440, Note_on_c, 11, 70, 92
16, 4679, Note_on_c, 11, 77, 0
16, 4679, Note_on_c, 11, 62, 0
16, 4679, Note_on_c, 11, 70, 0
16, 4920, Note_on_c, 11, 62, 92
16, 5339, Note_on_c, 11, 62, 0
16, 5398, Program_c, 11, 45
16, 5400, Note_on_c, 11, 63, 44
16, 5519, Note_on_c, 11, 63, 0
16, 5880, Note_on_c, 11, 70, 44
16, 5999, Note_on_c, 11, 70, 0
16, 6360, Note_on_c, 11, 58, 44
16, 6479, Note_on_c, 11, 58, 0
16, 6840, Note_on_c, 11, 63, 44
16, 6959, Note_on_c, 11, 63, 0
16, 7320, Note_on_c, 11, 63, 44
16, 7439, Note_on_c, 11, 63, 0
16, 7560, Note_on_c, 11, 62, 44
16, 7679, Note_on_c, 11, 62, 0
16, 7800, Note_on_c, 11, 63, 44
16, 8039, Note_on_c, 11, 63, 0
16, 8160, Note_on_c, 11, 64, 44
16, 8279, Note_on_c, 11, 64, 0
16, 8280, Note_on_c, 11, 65, 44
16, 8399, Note_on_c, 11, 65, 0
16, 8400, Note_on_c, 11, 62, 44
16, 8519, Note_on_c, 11, 62, 0
16, 8520, Note_on_c, 11, 63, 44
16, 8639, Note_on_c, 11, 63, 0
16, 8640, Note_on_c, 11, 57, 44
16, 8759, Note_on_c, 11, 57, 0
16, 8760, Note_on_c, 11, 58, 44
16, 8999, Note_on_c, 11, 58, 0
16, 9240, Note_on_c, 11, 63, 44
16, 9479, Note_on_c, 11, 63, 0
16, 9720, Note_on_c, 11, 70, 44
16, 9959, Note_on_c, 11, 70, 0
16, 10200, Note_on_c, 11, 58, 44
16, 10439, Note_on_c, 11, 58, 0
16, 10680, Note_on_c, 11, 63, 44
16, 10919, Note_on_c, 11, 63, 0
16, 11160, Note_on_c, 11, 63, 44
16, 11279, Note_on_c, 11, 63, 0
16, 11400, Note_on_c, 11, 62, 44
16, 11519, Note_on_c, 11, 62, 0
16, 11640, Note_on_c, 11, 63, 44
16, 11759, Note_on_c, 11, 63, 0
16, 12000, Note_on_c, 11, 64, 44
16, 12119, Note_on_c, 11, 64, 0
16, 12120, Note_on_c, 11, 65, 44
16, 12209, Note_on_c, 11, 65, 0
16, 12240, Note_on_c, 11, 62, 44
16, 12329, Note_on_c, 11, 62, 0
16, 12360, Note_on_c, 11, 63, 44
16, 12449, Note_on_c, 11, 63, 0
16, 12480, Note_on_c, 11, 57, 44
16, 12569, Note_on_c, 11, 57, 0
16, 12600, Note_on_c, 11, 58, 44
16, 12779, Note_on_c, 11, 58, 0
16, 14880, Note_on_c, 11, 68, 44
16, 14999, Note_on_c, 11, 68, 0
16, 15000, Note_on_c, 11, 67, 44
16, 15119, Note_on_c, 11, 67, 0
16, 15480, Note_on_c, 11, 68, 44
16, 15599, Note_on_c, 11, 68, 0
16, 15960, Note_on_c, 11, 70, 44
16, 16079, Note_on_c, 11, 70, 0
16, 16200, Note_on_c, 11, 70, 44
16, 16319, Note_on_c, 11, 70, 0
16, 16440, Note_on_c, 11, 63, 44
16, 16559, Note_on_c, 11, 63, 0
16, 16800, Program_c, 11, 48
16, 16920, Note_on_c, 11, 70, 84
16, 16920, Note_on_c, 11, 82, 84
16, 17024, Note_on_c, 11, 70, 0
16, 17024, Note_on_c, 11, 82, 0
16, 17040, Note_on_c, 11, 70, 84
16, 17040, Note_on_c, 11, 82, 84
16, 17144, Note_on_c, 11, 70, 0
16, 17144, Note_on_c, 11, 82, 0
16, 17160, Note_on_c, 11, 70, 84
16, 17160, Note_on_c, 11, 82, 84
16, 17279, Note_on_c, 11, 70, 0
16, 17279, Note_on_c, 11, 82, 0
16, 17880, Note_on_c, 11, 82, 52
16, 17880, Note_on_c, 11, 70, 52
16, 18239, Note_on_c, 11, 82, 0
16, 18239, Note_on_c, 11, 70, 0
16, 18240, Program_c, 11, 45
16, 18720, Note_on_c, 11, 68, 52
16, 18839, Note_on_c, 11, 68, 0
16, 18840, Note_on_c, 11, 67, 52
16, 18959, Note_on_c, 11, 67, 0
16, 19320, Note_on_c, 11, 68, 52
16, 19439, Note_on_c, 11, 68, 0
16, 19800, Note_on_c, 11, 70, 52
16, 19919, Note_on_c, 11, 70, 0
16, 20040, Note_on_c, 11, 70, 52
16, 20159, Note_on_c, 11, 70, 0
16, 20280, Note_on_c, 11, 63, 52
16, 20399, Note_on_c, 11, 63, 0
16, 20760, Program_c, 11, 48
16, 21840, Note_on_c, 11, 68, 52
16, 21929, Note_on_c, 11, 68, 0
16, 21960, Note_on_c, 11, 68, 52
16, 22049, Note_on_c, 11, 68, 0
16, 22080, Note_on_c, 11, 68, 52
16, 22169, Note_on_c, 11, 68, 0
16, 22200, Note_on_c, 11, 68, 52
16, 22439, Note_on_c, 11, 68, 0
16, 22440, Note_on_c, 11, 67, 52
16, 22559, Note_on_c, 11, 67, 0
16, 23280, Note_on_c, 11, 72, 52
16, 23399, Note_on_c, 11, 72, 0
16, 23400, Note_on_c, 11, 70, 52
16, 23519, Note_on_c, 11, 70, 0
16, 23520, Note_on_c, 11, 67, 52
16, 23639, Note_on_c, 11, 67, 0
16, 23640, Note_on_c, 11, 68, 52
16, 23759, Note_on_c, 11, 68, 0
16, 23760, Note_on_c, 11, 70, 52
16, 23879, Note_on_c, 11, 70, 0
16, 23880, Note_on_c, 11, 67, 52
16, 23999, Note_on_c, 11, 67, 0
16, 24000, Note_on_c, 11, 75, 52
16, 24119, Note_on_c, 11, 75, 0
16, 24120, Note_on_c, 11, 74, 52
16, 24239, Note_on_c, 11, 74, 0
16, 24240, Note_on_c, 11, 77, 52
16, 24359, Note_on_c, 11, 77, 0
16, 24360, Note_on_c, 11, 70, 52
16, 24479, Note_on_c, 11, 70, 0
16, 24480, Note_on_c, 11, 68, 52
16, 24599, Note_on_c, 11, 68, 0
16, 24600, Note_on_c, 11, 67, 52
16, 24719, Note_on_c, 11, 67, 0
16, 25680, Note_on_c, 11, 68, 52
16, 25769, Note_on_c, 11, 68, 0
16, 25800, Note_on_c, 11, 68, 52
16, 25889, Note_on_c, 11, 68, 0
16, 25920, Note_on_c, 11, 68, 52
16, 26009, Note_on_c, 11, 68, 0
16, 26040, Note_on_c, 11, 68, 52
16, 26279, Note_on_c, 11, 68, 0
16, 26280, Note_on_c, 11, 67, 52
16, 26399, Note_on_c, 11, 67, 0
16, 27120, Note_on_c, 11, 72, 52
16, 27239, Note_on_c, 11, 72, 0
16, 27240, Note_on_c, 11, 70, 52
16, 27359, Note_on_c, 11, 70, 0
16, 27360, Note_on_c, 11, 67, 52
16, 27479, Note_on_c, 11, 67, 0
16, 27480, Note_on_c, 11, 68, 52
16, 27599, Note_on_c, 11, 68, 0
16, 27600, Note_on_c, 11, 70, 52
16, 27719, Note_on_c, 11, 70, 0
16, 27720, Note_on_c, 11, 67, 52
16, 27839, Note_on_c, 11, 67, 0
16, 27840, Note_on_c, 11, 75, 52
16, 27959, Note_on_c, 11, 75, 0
16, 27960, Note_on_c, 11, 74, 52
16, 28079, Note_on_c, 11, 74, 0
16, 28080, Note_on_c, 11, 77, 52
16, 28199, Note_on_c, 11, 77, 0
16, 28200, Note_on_c, 11, 70, 52
16, 28319, Note_on_c, 11, 70, 0
16, 28920, Control_c, 11, 11, 96
16, 29280, Note_on_c, 11, 82, 68
16, 29399, Note_on_c, 11, 82, 0
16, 29400, Control_c, 11, 11, 96
16, 29400, Note_on_c, 11, 80, 68
16, 29440, Control_c, 11, 11, 99
16, 29480, Control_c, 11, 11, 101
16, 29519, Note_on_c, 11, 80, 0
16, 29520, Note_on_c, 11, 82, 68
16, 29520, Control_c, 11, 11, 104
16, 29560, Control_c, 11, 11, 106
16, 29600, Control_c, 11, 11, 109
16, 29639, Note_on_c, 11, 82, 0
16, 29640, Note_on_c, 11, 83, 68
16, 29640, Control_c, 11, 11, 112
16, 29680, Control_c, 11, 11, 114
16, 29720, Control_c, 11, 11, 117
16, 29759, Note_on_c, 11, 83, 0
16, 29760, Control_c, 11, 11, 119
16, 29760, Note_on_c, 11, 84, 68
16, 29800, Control_c, 11, 11, 122
16, 29840, Control_c, 11, 11, 127
16, 29864, Note_on_c, 11, 84, 0
16, 29880, Note_on_c, 11, 75, 52
16, 30119, Note_on_c, 11, 75, 0
16, 30120, Note_on_c, 11, 74, 52
16, 30239, Note_on_c, 11, 74, 0
16, 30960, Note_on_c, 11, 80, 52
16, 31079, Note_on_c, 11, 80, 0
16, 31080, Note_on_c, 11, 77, 52
16, 31199, Note_on_c, 11, 77, 0
16, 31200, Note_on_c, 11, 75, 52
16, 31304, Note_on_c, 11, 75, 0
16, 31320, Note_on_c, 11, 74, 52
16, 31439, Note_on_c, 11, 74, 0
16, 31440, Note_on_c, 11, 80, 52
16, 31559, Note_on_c, 11, 80, 0
16, 31560, Note_on_c, 11, 77, 52
16, 31679, Note_on_c, 11, 77, 0
16, 31680, Note_on_c, 11, 74, 52
16, 31784, Note_on_c, 11, 74, 0
16, 31800, Note_on_c, 11, 75, 52
16, 32039, Note_on_c, 11, 75, 0
16, 32760, Control_c, 11, 11, 96
16, 33120, Note_on_c, 11, 82, 68
16, 33239, Note_on_c, 11, 82, 0
16, 33240, Control_c, 11, 11, 96
16, 33240, Note_on_c, 11, 80, 68
16, 33280, Control_c, 11, 11, 99
16, 33320, Control_c, 11, 11, 101
16, 33359, Note_on_c, 11, 80, 0
16, 33360, Control_c, 11, 11, 104
16, 33360, Note_on_c, 11, 82, 68
16, 33400, Control_c, 11, 11, 106
16, 33440, Control_c, 11, 11, 109
16, 33479, Note_on_c, 11, 82, 0
16, 33480, Note_on_c, 11, 83, 68
16, 33480, Control_c, 11, 11, 112
16, 33520, Control_c, 11, 11, 114
16, 33560, Control_c, 11, 11, 117
16, 33599, Note_on_c, 11, 83, 0
16, 33600, Control_c, 11, 11, 119
16, 33600, Note_on_c, 11, 84, 68
16, 33640, Control_c, 11, 11, 122
16, 33680, Control_c, 11, 11, 127
16, 33704, Note_on_c, 11, 84, 0
16, 33720, Note_on_c, 11, 75, 52
16, 33959, Note_on_c, 11, 75, 0
16, 33960, Note_on_c, 11, 74, 52
16, 34079, Note_on_c, 11, 74, 0
16, 34800, Note_on_c, 11, 80, 52
16, 34919, Note_on_c, 11, 80, 0
16, 34920, Note_on_c, 11, 77, 52
16, 35039, Note_on_c, 11, 77, 0
16, 35040, Note_on_c, 11, 75, 52
16, 35144, Note_on_c, 11, 75, 0
16, 35160, Note_on_c, 11, 74, 52
16, 35279, Note_on_c, 11, 74, 0
16, 35280, Note_on_c, 11, 80, 52
16, 35399, Note_on_c, 11, 80, 0
16, 35400, Note_on_c, 11, 77, 52
16, 35519, Note_on_c, 11, 77, 0
16, 35520, Note_on_c, 11, 74, 52
16, 35624, Note_on_c, 11, 74, 0
16, 35640, Note_on_c, 11, 75, 52
16, 35879, Note_on_c, 11, 75, 0
16, 36120, Note_on_c, 11, 75, 48
16, 36584, Note_on_c, 11, 75, 0
16, 36600, Note_on_c, 11, 82, 48
16, 37064, Note_on_c, 11, 82, 0
16, 37080, Note_on_c, 11, 70, 48
16, 37544, Note_on_c, 11, 70, 0
16, 37560, Note_on_c, 11, 75, 48
16, 38024, Note_on_c, 11, 75, 0
16, 38036, Control_c, 11, 11, 96
16, 38040, Note_on_c, 11, 75, 68
16, 38040, Control_c, 11, 11, 96
16, 38080, Control_c, 11, 11, 97
16, 38120, Control_c, 11, 11, 99
16, 38160, Control_c, 11, 11, 100
16, 38200, Control_c, 11, 11, 101
16, 38240, Control_c, 11, 11, 102
16, 38264, Note_on_c, 11, 75, 0
16, 38280, Control_c, 11, 11, 104
16, 38280, Note_on_c, 11, 74, 68
16, 38320, Control_c, 11, 11, 105
16, 38360, Control_c, 11, 11, 106
16, 38400, Control_c, 11, 11, 108
16, 38440, Control_c, 11, 11, 109
16, 38480, Control_c, 11, 11, 110
16, 38504, Note_on_c, 11, 74, 0
16, 38520, Note_on_c, 11, 75, 68
16, 38520, Control_c, 11, 11, 112
16, 38560, Control_c, 11, 11, 113
16, 38600, Control_c, 11, 11, 114
16, 38640, Control_c, 11, 11, 115
16, 38680, Control_c, 11, 11, 117
16, 38720, Control_c, 11, 11, 118
16, 38760, Control_c, 11, 11, 119
16, 38800, Control_c, 11, 11, 121
16, 38840, Control_c, 11, 11, 122
16, 38864, Note_on_c, 11, 75, 0
16, 38880, Note_on_c, 11, 76, 68
16, 38880, Control_c, 11, 11, 123
16, 38920, Control_c, 11, 11, 124
16, 38960, Control_c, 11, 11, 127
16, 38969, Note_on_c, 11, 76, 0
16, 39000, Note_on_c, 11, 77, 52
16, 39089, Note_on_c, 11, 77, 0
16, 39120, Note_on_c, 11, 74, 52
16, 39209, Note_on_c, 11, 74, 0
16, 39240, Note_on_c, 11, 75, 52
16, 39329, Note_on_c, 11, 75, 0
16, 39360, Note_on_c, 11, 69, 52
16, 39449, Note_on_c, 11, 69, 0
16, 39480, Note_on_c, 11, 70, 52
16, 39719, Note_on_c, 11, 70, 0
16, 39960, Note_on_c, 11, 75, 48
16, 40424, Note_on_c, 11, 75, 0
16, 40440, Note_on_c, 11, 82, 48
16, 40904, Note_on_c, 11, 82, 0
16, 40920, Note_on_c, 11, 70, 48
16, 41384, Note_on_c, 11, 70, 0
16, 41400, Note_on_c, 11, 75, 48
16, 41864, Note_on_c, 11, 75, 0
16, 41878, Control_c, 11, 11, 96
16, 41880, Control_c, 11, 11, 96
16, 41880, Note_on_c, 11, 75, 68
16, 41920, Control_c, 11, 11, 97
16, 41960, Control_c, 11, 11, 99
16, 42000, Control_c, 11, 11, 100
16, 42040, Control_c, 11, 11, 101
16, 42080, Control_c, 11, 11, 102
16, 42104, Note_on_c, 11, 75, 0
16, 42120, Control_c, 11, 11, 104
16, 42120, Note_on_c, 11, 74, 68
16, 42160, Control_c, 11, 11, 105
16, 42200, Control_c, 11, 11, 106
16, 42240, Control_c, 11, 11, 108
16, 42280, Control_c, 11, 11, 109
16, 42320, Control_c, 11, 11, 110
16, 42344, Note_on_c, 11, 74, 0
16, 42360, Note_on_c, 11, 75, 68
16, 42360, Control_c, 11, 11, 112
16, 42400, Control_c, 11, 11, 113
16, 42440, Control_c, 11, 11, 114
16, 42480, Control_c, 11, 11, 115
16, 42520, Control_c, 11, 11, 117
16, 42560, Control_c, 11, 11, 118
16, 42600, Control_c, 11, 11, 119
16, 42640, Control_c, 11, 11, 121
16, 42680, Control_c, 11, 11, 122
16, 42704, Note_on_c, 11, 75, 0
16, 42720, Note_on_c, 11, 76, 68
16, 42720, Control_c, 11, 11, 123
16, 42760, Control_c, 11, 11, 124
16, 42800, Control_c, 11, 11, 127
16, 42809, Note_on_c, 11, 76, 0
16, 42840, Note_on_c, 11, 77, 52
16, 42929, Note_on_c, 11, 77, 0
16, 42960, Note_on_c, 11, 74, 52
16, 43049, Note_on_c, 11, 74, 0
16, 43080, Note_on_c, 11, 75, 52
16, 43169, Note_on_c, 11, 75, 0
16, 43200, Note_on_c, 11, 69, 52
16, 43289, Note_on_c, 11, 69, 0
16, 43320, Note_on_c, 11, 70, 52
16, 43559, Note_on_c, 11, 70, 0
16, 44280, Note_on_c, 11, 82, 76
16, 44369, Note_on_c, 11, 82, 0
16, 44400, Note_on_c, 11, 82, 76
16, 44489, Note_on_c, 11, 82, 0
16, 44520, Note_on_c, 11, 82, 76
16, 44609, Note_on_c, 11, 82, 0
16, 45000, Control_c, 11, 11, 96
16, 45240, Note_on_c, 11, 82, 68
16, 45584, Note_on_c, 11, 82, 0
16, 45600, Note_on_c, 11, 80, 68
16, 45719, Note_on_c, 11, 80, 0
16, 45720, Note_on_c, 11, 79, 68
16, 45720, Control_c, 11, 11, 96
16, 45760, Control_c, 11, 11, 97
16, 45800, Control_c, 11, 11, 99
16, 45840, Control_c, 11, 11, 100
16, 45880, Control_c, 11, 11, 101
16, 45920, Control_c, 11, 11, 102
16, 45960, Control_c, 11, 11, 104
16, 46000, Control_c, 11, 11, 105
16, 46040, Control_c, 11, 11, 106
16, 46080, Control_c, 11, 11, 108
16, 46120, Control_c, 11, 11, 109
16, 46160, Control_c, 11, 11, 110
16, 46199, Note_on_c, 11, 79, 0
16, 46200, Note_on_c, 11, 80, 68
16, 46200, Control_c, 11, 11, 112
16, 46240, Control_c, 11, 11, 113
16, 46280, Control_c, 11, 11, 114
16, 46320, Control_c, 11, 11, 115
16, 46360, Control_c, 11, 11, 117
16, 46400, Control_c, 11, 11, 118
16, 46440, Control_c, 11, 11, 119
16, 46480, Control_c, 11, 11, 121
16, 46520, Control_c, 11, 11, 122
16, 46560, Control_c, 11, 11, 123
16, 46600, Control_c, 11, 11, 124
16, 46640, Control_c, 11, 11, 127
16, 46664, Note_on_c, 11, 80, 0
16, 46680, Note_on_c, 11, 82, 52
16, 46859, Note_on_c, 11, 82, 0
16, 46920, Note_on_c, 11, 82, 52
16, 47099, Note_on_c, 11, 82, 0
16, 47160, Note_on_c, 11, 75, 52
16, 47399, Note_on_c, 11, 75, 0
16, 48120, Note_on_c, 11, 82, 76
16, 48209, Note_on_c, 11, 82, 0
16, 48240, Note_on_c, 11, 82, 76
16, 48329, Note_on_c, 11, 82, 0
16, 48360, Note_on_c, 11, 82, 76
16, 48449, Note_on_c, 11, 82, 0
16, 48840, Control_c, 11, 11, 96
16, 49080, Note_on_c, 11, 82, 68
16, 49424, Note_on_c, 11, 82, 0
16, 49440, Note_on_c, 11, 80, 68
16, 49559, Note_on_c, 11, 80, 0
16, 49560, Note_on_c, 11, 79, 68
16, 49560, Control_c, 11, 11, 96
16, 49600, Control_c, 11, 11, 97
16, 49640, Control_c, 11, 11, 99
16, 49680, Control_c, 11, 11, 100
16, 49720, Control_c, 11, 11, 101
16, 49760, Control_c, 11, 11, 102
16, 49800, Control_c, 11, 11, 104
16, 49840, Control_c, 11, 11, 105
16, 49880, Control_c, 11, 11, 106
16, 49920, Control_c, 11, 11, 108
16, 49960, Control_c, 11, 11, 109
16, 50000, Control_c, 11, 11, 110
16, 50039, Note_on_c, 11, 79, 0
16, 50040, Note_on_c, 11, 80, 68
16, 50040, Control_c, 11, 11, 112
16, 50080, Control_c, 11, 11, 113
16, 50120, Control_c, 11, 11, 114
16, 50160, Control_c, 11, 11, 115
16, 50200, Control_c, 11, 11, 117
16, 50240, Control_c, 11, 11, 118
16, 50280, Control_c, 11, 11, 119
16, 50320, Control_c, 11, 11, 121
16, 50360, Control_c, 11, 11, 122
16, 50400, Control_c, 11, 11, 123
16, 50440, Control_c, 11, 11, 124
16, 50480, Control_c, 11, 11, 127
16, 50504, Note_on_c, 11, 80, 0
16, 50520, Note_on_c, 11, 82, 52
16, 50699, Note_on_c, 11, 82, 0
16, 50760, Note_on_c, 11, 82, 52
16, 50939, Note_on_c, 11, 82, 0
16, 51000, Note_on_c, 11, 75, 52
16, 51239, Note_on_c, 11, 75, 0
16, 51540, Note_on_c, 11, 55, 52
16, 51599, Note_on_c, 11, 55, 0
16, 51600, Note_on_c, 11, 58, 52
16, 51659, Note_on_c, 11, 58, 0
16, 51660, Note_on_c, 11, 63, 52
16, 51719, Note_on_c, 11, 63, 0
16, 51720, Note_on_c, 11, 67, 52
16, 51779, Note_on_c, 11, 67, 0
16, 51780, Note_on_c, 11, 70, 52
16, 51839, Note_on_c, 11, 70, 0
16, 51840, Note_on_c, 11, 75, 52
16, 51899, Note_on_c, 11, 75, 0
16, 51900, Note_on_c, 11, 79, 52
16, 51951, Note_on_c, 11, 79, 0
16, 51960, Note_on_c, 11, 80, 52
16, 52019, Note_on_c, 11, 80, 0
16, 52020, Note_on_c, 11, 77, 52
16, 52079, Note_on_c, 11, 77, 0
16, 52080, Note_on_c, 11, 74, 52
16, 52139, Note_on_c, 11, 74, 0
16, 52140, Note_on_c, 11, 70, 52
16, 52199, Note_on_c, 11, 70, 0
16, 52200, Note_on_c, 11, 68, 52
16, 52259, Note_on_c, 11, 68, 0
16, 52260, Note_on_c, 11, 65, 52
16, 52319, Note_on_c, 11, 65, 0
16, 52320, Note_on_c, 11, 62, 52
16, 52379, Note_on_c, 11, 62, 0
16, 52380, Note_on_c, 11, 58, 52
16, 52431, Note_on_c, 11, 58, 0
16, 52440, Note_on_c, 11, 56, 52
16, 52499, Note_on_c, 11, 56, 0
16, 52500, Note_on_c, 11, 58, 52
16, 52559, Note_on_c, 11, 58, 0
16, 52560, Note_on_c, 11, 62, 52
16, 52619, Note_on_c, 11, 62, 0
16, 52620, Note_on_c, 11, 65, 52
16, 52679, Note_on_c, 11, 65, 0
16, 52680, Note_on_c, 11, 68, 52
16, 52739, Note_on_c, 11, 68, 0
16, 52740, Note_on_c, 11, 70, 52
16, 52799, Note_on_c, 11, 70, 0
16, 52800, Note_on_c, 11, 74, 52
16, 52859, Note_on_c, 11, 74, 0
16, 52860, Note_on_c, 11, 77, 52
16, 52911, Note_on_c, 11, 77, 0
16, 52920, Note_on_c, 11, 79, 52
16, 52964, Note_on_c, 11, 79, 0
16, 52980, Note_on_c, 11, 67, 52
16, 53024, Note_on_c, 11, 67, 0
16, 53040, Note_on_c, 11, 68, 52
16, 53084, Note_on_c, 11, 68, 0
16, 53100, Note_on_c, 11, 70, 52
16, 53144, Note_on_c, 11, 70, 0
16, 53160, Note_on_c, 11, 72, 52
16, 53204, Note_on_c, 11, 72, 0
16, 53220, Note_on_c, 11, 74, 52
16, 53264, Note_on_c, 11, 74, 0
16, 53280, Note_on_c, 11, 75, 52
16, 53324, Note_on_c, 11, 75, 0
16, 53340, Note_on_c, 11, 77, 52
16, 53384, Note_on_c, 11, 77, 0
16, 53400, Note_on_c, 11, 79, 52
16, 53459, Note_on_c, 11, 79, 0
16, 53460, Note_on_c, 11, 78, 54
16, 53519, Note_on_c, 11, 78, 0
16, 53520, Note_on_c, 11, 79, 56
16, 53579, Note_on_c, 11, 79, 0
16, 53580, Note_on_c, 11, 75, 58
16, 53631, Note_on_c, 11, 75, 0
16, 53640, Note_on_c, 11, 80, 60
16, 53699, Note_on_c, 11, 80, 0
16, 53700, Note_on_c, 11, 79, 62
16, 53759, Note_on_c, 11, 79, 0
16, 53760, Note_on_c, 11, 80, 64
16, 53819, Note_on_c, 11, 80, 0
16, 53820, Note_on_c, 11, 77, 66
16, 53871, Note_on_c, 11, 77, 0
16, 53880, Note_on_c, 11, 79, 76
16, 53939, Note_on_c, 11, 79, 0
16, 53940, Note_on_c, 11, 77, 68
16, 53999, Note_on_c, 11, 77, 0
16, 54000, Note_on_c, 11, 75, 68
16, 54059, Note_on_c, 11, 75, 0
16, 54060, Note_on_c, 11, 73, 68
16, 54111, Note_on_c, 11, 73, 0
16, 54120, Note_on_c, 11, 72, 68
16, 54179, Note_on_c, 11, 72, 0
16, 54180, Note_on_c, 11, 73, 68
16, 54239, Note_on_c, 11, 73, 0
16, 54240, Note_on_c, 11, 70, 68
16, 54299, Note_on_c, 11, 70, 0
16, 54300, Note_on_c, 11, 72, 68
16, 54351, Note_on_c, 11, 72, 0
16, 54360, Note_on_c, 11, 68, 68
16, 54419, Note_on_c, 11, 68, 0
16, 54420, Note_on_c, 11, 72, 66
16, 54479, Note_on_c, 11, 72, 0
16, 54480, Note_on_c, 11, 70, 64
16, 54539, Note_on_c, 11, 70, 0
16, 54540, Note_on_c, 11, 68, 62
16, 54599, Note_on_c, 11, 68, 0
16, 54600, Note_on_c, 11, 67, 60
16, 54659, Note_on_c, 11, 67, 0
16, 54660, Note_on_c, 11, 70, 58
16, 54719, Note_on_c, 11, 70, 0
16, 54720, Note_on_c, 11, 72, 56
16, 54779, Note_on_c, 11, 72, 0
16, 54780, Note_on_c, 11, 74, 54
16, 54831, Note_on_c, 11, 74, 0
16, 54840, Note_on_c, 11, 75, 52
16, 54899, Note_on_c, 11, 75, 0
16, 54900, Note_on_c, 11, 79, 52
16, 54959, Note_on_c, 11, 79, 0
16, 54960, Note_on_c, 11, 77, 52
16, 55019, Note_on_c, 11, 77, 0
16, 55020, Note_on_c, 11, 75, 52
16, 55079, Note_on_c, 11, 75, 0
16, 55080, Note_on_c, 11, 74, 52
16, 55139, Note_on_c, 11, 74, 0
16, 55140, Note_on_c, 11, 77, 52
16, 55199, Note_on_c, 11, 77, 0
16, 55200, Note_on_c, 11, 82, 52
16, 55259, Note_on_c, 11, 82, 0
16, 55260, Note_on_c, 11, 80, 52
16, 55311, Note_on_c, 11, 80, 0
16, 55320, Note_on_c, 11, 79, 76
16, 55679, Note_on_c, 11, 79, 0
16, 55680, Note_on_c, 11, 75, 76
16, 55784, Note_on_c, 11, 75, 0
16, 55800, Note_on_c, 11, 74, 76
16, 56159, Note_on_c, 11, 74, 0
16, 56160, Note_on_c, 11, 77, 76
16, 56264, Note_on_c, 11, 77, 0
16, 56280, Note_on_c, 11, 80, 76
16, 56639, Note_on_c, 11, 80, 0
16, 56640, Note_on_c, 11, 77, 76
16, 56744, Note_on_c, 11, 77, 0
16, 56760, Note_on_c, 11, 75, 76
16, 57119, Note_on_c, 11, 75, 0
16, 57120, Note_on_c, 11, 79, 76
16, 57224, Note_on_c, 11, 79, 0
16, 57240, Note_on_c, 11, 82, 76
16, 57419, Note_on_c, 11, 82, 0
16, 57480, Note_on_c, 11, 82, 76
16, 57659, Note_on_c, 11, 82, 0
16, 57720, Note_on_c, 11, 82, 84
16, 58064, Note_on_c, 11, 82, 0
16, 58080, Note_on_c, 11, 79, 76
16, 58184, Note_on_c, 11, 79, 0
16, 58200, Note_on_c, 11, 82, 76
16, 58259, Note_on_c, 11, 82, 0
16, 58260, Note_on_c, 11, 80, 76
16, 58311, Note_on_c, 11, 80, 0
16, 58320, Note_on_c, 11, 77, 76
16, 58409, Note_on_c, 11, 77, 0
16, 58440, Note_on_c, 11, 80, 76
16, 58499, Note_on_c, 11, 80, 0
16, 58500, Note_on_c, 11, 79, 76
16, 58551, Note_on_c, 11, 79, 0
16, 58560, Note_on_c, 11, 75, 76
16, 58649, Note_on_c, 11, 75, 0
16, 58680, Note_on_c, 11, 79, 76
16, 58919, Note_on_c, 11, 79, 0
16, 58920, Note_on_c, 11, 77, 76
16, 59039, Note_on_c, 11, 77, 0
16, 59280, Note_on_c, 11, 58, 52
16, 59339, Note_on_c, 11, 58, 0
16, 59340, Note_on_c, 11, 60, 52
16, 59399, Note_on_c, 11, 60, 0
16, 59400, Note_on_c, 11, 62, 52
16, 59459, Note_on_c, 11, 62, 0
16, 59460, Note_on_c, 11, 64, 52
16, 59519, Note_on_c, 11, 64, 0
16, 59520, Note_on_c, 11, 65, 52
16, 59579, Note_on_c, 11, 65, 0
16, 59580, Note_on_c, 11, 64, 52
16, 59631, Note_on_c, 11, 64, 0
16, 59640, Note_on_c, 11, 65, 76
16, 59699, Note_on_c, 11, 65, 0
16, 59700, Note_on_c, 11, 67, 75
16, 59759, Note_on_c, 11, 67, 0
16, 59760, Note_on_c, 11, 68, 73
16, 59819, Note_on_c, 11, 68, 0
16, 59820, Note_on_c, 11, 67, 72
16, 59879, Note_on_c, 11, 67, 0
16, 59880, Note_on_c, 11, 65, 70
16, 59939, Note_on_c, 11, 65, 0
16, 59940, Note_on_c, 11, 63, 69
16, 59999, Note_on_c, 11, 63, 0
16, 60000, Note_on_c, 11, 62, 67
16, 60059, Note_on_c, 11, 62, 0
16, 60060, Note_on_c, 11, 60, 66
16, 60119, Note_on_c, 11, 60, 0
16, 60120, Note_on_c, 11, 58, 64
16, 60179, Note_on_c, 11, 58, 0
16, 60180, Note_on_c, 11, 57, 63
16, 60239, Note_on_c, 11, 57, 0
16, 60240, Note_on_c, 11, 58, 61
16, 60299, Note_on_c, 11, 58, 0
16, 60300, Note_on_c, 11, 60, 60
16, 60359, Note_on_c, 11, 60, 0
16, 60360, Note_on_c, 11, 62, 58
16, 60419, Note_on_c, 11, 62, 0
16, 60420, Note_on_c, 11, 63, 57
16, 60479, Note_on_c, 11, 63, 0
16, 60480, Note_on_c, 11, 65, 55
16, 60539, Note_on_c, 11, 65, 0
16, 60540, Note_on_c, 11, 64, 54
16, 60591, Note_on_c, 11, 64, 0
16, 60600, Note_on_c, 11, 65, 52
16, 60959, Note_on_c, 11, 65, 0
16, 61140, Note_on_c, 11, 70, 52
16, 61199, Note_on_c, 11, 70, 0
16, 61200, Note_on_c, 11, 75, 52
16, 61259, Note_on_c, 11, 75, 0
16, 61260, Note_on_c, 11, 70, 52
16, 61319, Note_on_c, 11, 70, 0
16, 61320, Note_on_c, 11, 68, 52
16, 61379, Note_on_c, 11, 68, 0
16, 61380, Note_on_c, 11, 67, 52
16, 61439, Note_on_c, 11, 67, 0
16, 61440, Note_on_c, 11, 65, 52
16, 61499, Note_on_c, 11, 65, 0
16, 61500, Note_on_c, 11, 63, 52
16, 61551, Note_on_c, 11, 63, 0
16, 61560, Note_on_c, 11, 59, 52
16, 61619, Note_on_c, 11, 59, 0
16, 61620, Note_on_c, 11, 60, 52
16, 61679, Note_on_c, 11, 60, 0
16, 61680, Note_on_c, 11, 65, 52
16, 61739, Note_on_c, 11, 65, 0
16, 61740, Note_on_c, 11, 68, 52
16, 61799, Note_on_c, 11, 68, 0
16, 61800, Note_on_c, 11, 72, 52
16, 61859, Note_on_c, 11, 72, 0
16, 61860, Note_on_c, 11, 77, 52
16, 61919, Note_on_c, 11, 77, 0
16, 61920, Note_on_c, 11, 80, 52
16, 61979, Note_on_c, 11, 80, 0
16, 61980, Note_on_c, 11, 77, 52
16, 62031, Note_on_c, 11, 77, 0
16, 62040, Note_on_c, 11, 79, 52
16, 62099, Note_on_c, 11, 79, 0
16, 62100, Note_on_c, 11, 75, 52
16, 62159, Note_on_c, 11, 75, 0
16, 62160, Note_on_c, 11, 70, 52
16, 62219, Note_on_c, 11, 70, 0
16, 62220, Note_on_c, 11, 67, 52
16, 62279, Note_on_c, 11, 67, 0
16, 62280, Note_on_c, 11, 68, 52
16, 62339, Note_on_c, 11, 68, 0
16, 62340, Note_on_c, 11, 74, 52
16, 62399, Note_on_c, 11, 74, 0
16, 62400, Note_on_c, 11, 70, 52
16, 62459, Note_on_c, 11, 70, 0
16, 62460, Note_on_c, 11, 68, 52
16, 62511, Note_on_c, 11, 68, 0
16, 62520, Note_on_c, 11, 67, 52
16, 62759, Note_on_c, 11, 67, 0
16, 62880, Note_on_c, 11, 70, 76
16, 62939, Note_on_c, 11, 70, 0
16, 62940, Note_on_c, 11, 69, 76
16, 62999, Note_on_c, 11, 69, 0
16, 63000, Note_on_c, 11, 70, 76
16, 63059, Note_on_c, 11, 70, 0
16, 63060, Note_on_c, 11, 72, 76
16, 63119, Note_on_c, 11, 72, 0
16, 63120, Note_on_c, 11, 74, 76
16, 63179, Note_on_c, 11, 74, 0
16, 63180, Note_on_c, 11, 75, 76
16, 63239, Note_on_c, 11, 75, 0
16, 63240, Note_on_c, 11, 77, 76
16, 63299, Note_on_c, 11, 77, 0
16, 63300, Note_on_c, 11, 79, 76
16, 63359, Note_on_c, 11, 79, 0
16, 63360, Note_on_c, 11, 80, 76
16, 63419, Note_on_c, 11, 80, 0
16, 63420, Note_on_c, 11, 79, 76
16, 63471, Note_on_c, 11, 79, 0
16, 63480, Note_on_c, 11, 80, 76
16, 63569, Note_on_c, 11, 80, 0
16, 63600, Note_on_c, 11, 80, 76
16, 63689, Note_on_c, 11, 80, 0
16, 63720, Note_on_c, 11, 80, 76
16, 63809, Note_on_c, 11, 80, 0
16, 63840, Note_on_c, 11, 70, 76
16, 63899, Note_on_c, 11, 70, 0
16, 63900, Note_on_c, 11, 69, 76
16, 63959, Note_on_c, 11, 69, 0
16, 63960, Note_on_c, 11, 70, 76
16, 64019, Note_on_c, 11, 70, 0
16, 64020, Note_on_c, 11, 72, 76
16, 64079, Note_on_c, 11, 72, 0
16, 64080, Note_on_c, 11, 74, 76
16, 64139, Note_on_c, 11, 74, 0
16, 64140, Note_on_c, 11, 75, 76
16, 64199, Note_on_c, 11, 75, 0
16, 64200, Note_on_c, 11, 77, 76
16, 64259, Note_on_c, 11, 77, 0
16, 64260, Note_on_c, 11, 79, 76
16, 64319, Note_on_c, 11, 79, 0
16, 64320, Note_on_c, 11, 80, 76
16, 64379, Note_on_c, 11, 80, 0
16, 64380, Note_on_c, 11, 79, 76
16, 64431, Note_on_c, 11, 79, 0
16, 64440, Note_on_c, 11, 80, 76
16, 64799, Note_on_c, 11, 80, 0
16, 64800, Note_on_c, 11, 81, 76
16, 64919, Note_on_c, 11, 81, 0
16, 64920, Note_on_c, 11, 82, 76
16, 65279, Note_on_c, 11, 82, 0
16, 65280, Note_on_c, 11, 79, 76
16, 65384, Note_on_c, 11, 79, 0
16, 65400, Note_on_c, 11, 77, 76
16, 65759, Note_on_c, 11, 77, 0
16, 65760, Note_on_c, 11, 84, 76
16, 65864, Note_on_c, 11, 84, 0
16, 65880, Note_on_c, 11, 75, 76
16, 66119, Note_on_c, 11, 75, 0
16, 66120, Note_on_c, 11, 79, 76
16, 66299, Note_on_c, 11, 79, 0
16, 66300, Note_on_c, 11, 77, 76
16, 66351, Note_on_c, 11, 77, 0
16, 66360, Note_on_c, 11, 75, 76
16, 66464, Note_on_c, 11, 75, 0
16, 66480, Note_on_c, 11, 63, 52
16, 66531, Note_on_c, 11, 63, 0
16, 66540, Note_on_c, 11, 62, 52
16, 66591, Note_on_c, 11, 62, 0
16, 66600, Note_on_c, 11, 63, 52
16, 66651, Note_on_c, 11, 63, 0
16, 66660, Note_on_c, 11, 65, 52
16, 66711, Note_on_c, 11, 65, 0
16, 66720, Note_on_c, 11, 67, 52
16, 66771, Note_on_c, 11, 67, 0
16, 66780, Note_on_c, 11, 68, 52
16, 66831, Note_on_c, 11, 68, 0
16, 66840, Note_on_c, 11, 70, 68
16, 67199, Note_on_c, 11, 70, 0
16, 67200, Note_on_c, 11, 67, 52
16, 67304, Note_on_c, 11, 67, 0
16, 67320, Note_on_c, 11, 65, 52
16, 67424, Note_on_c, 11, 65, 0
16, 67440, Note_on_c, 11, 67, 52
16, 67491, Note_on_c, 11, 67, 0
16, 67500, Note_on_c, 11, 65, 52
16, 67551, Note_on_c, 11, 65, 0
16, 67560, Note_on_c, 11, 67, 52
16, 67611, Note_on_c, 11, 67, 0
16, 67620, Note_on_c, 11, 68, 52
16, 67671, Note_on_c, 11, 68, 0
16, 67680, Note_on_c, 11, 70, 52
16, 67731, Note_on_c, 11, 70, 0
16, 67740, Note_on_c, 11, 72, 52
16, 67791, Note_on_c, 11, 72, 0
16, 67800, Note_on_c, 11, 73, 68
16, 68159, Note_on_c, 11, 73, 0
16, 68160, Note_on_c, 11, 70, 52
16, 68264, Note_on_c, 11, 70, 0
16, 68280, Note_on_c, 11, 69, 52
16, 68369, Note_on_c, 11, 69, 0
16, 68400, Note_on_c, 11, 75, 55
16, 68489, Note_on_c, 11, 75, 0
16, 68520, Note_on_c, 11, 77, 58
16, 68609, Note_on_c, 11, 77, 0
16, 68640, Note_on_c, 11, 71, 61
16, 68729, Note_on_c, 11, 71, 0
16, 68760, Note_on_c, 11, 72, 64
16, 68849, Note_on_c, 11, 72, 0
16, 68880, Note_on_c, 11, 79, 67
16, 68969, Note_on_c, 11, 79, 0
16, 69000, Note_on_c, 11, 81, 70
16, 69089, Note_on_c, 11, 81, 0
16, 69120, Note_on_c, 11, 72, 73
16, 69209, Note_on_c, 11, 72, 0
16, 69240, Note_on_c, 11, 71, 76
16, 69329, Note_on_c, 11, 71, 0
16, 69360, Note_on_c, 11, 79, 76
16, 69449, Note_on_c, 11, 79, 0
16, 69480, Note_on_c, 11, 81, 76
16, 69569, Note_on_c, 11, 81, 0
16, 69600, Note_on_c, 11, 72, 76
16, 69689, Note_on_c, 11, 72, 0
16, 69720, Note_on_c, 11, 71, 76
16, 69809, Note_on_c, 11, 71, 0
16, 69840, Note_on_c, 11, 79, 76
16, 69929, Note_on_c, 11, 79, 0
16, 69960, Note_on_c, 11, 81, 76
16, 70049, Note_on_c, 11, 81, 0
16, 70080, Note_on_c, 11, 72, 76
16, 70169, Note_on_c, 11, 72, 0
16, 70200, Note_on_c, 11, 71, 84
16, 70379, Note_on_c, 11, 71, 0
16, 70440, Note_on_c, 11, 79, 84
16, 70440, Note_on_c, 11, 62, 84
16, 70440, Note_on_c, 11, 55, 84
16, 70440, Note_on_c, 11, 71, 84
16, 70619, Note_on_c, 11, 79, 0
16, 70619, Note_on_c, 11, 62, 0
16, 70619, Note_on_c, 11, 55, 0
16, 70619, Note_on_c, 11, 71, 0
16, 70680, Note_on_c, 11, 71, 84
16, 70680, Note_on_c, 11, 79, 84
16, 70680, Note_on_c, 11, 62, 84
16, 70680, Note_on_c, 11, 55, 84
16, 70859, Note_on_c, 11, 71, 0
16, 70859, Note_on_c, 11, 79, 0
16, 70859, Note_on_c, 11, 62, 0
16, 70859, Note_on_c, 11, 55, 0
16, 71160, Note_on_c, 11, 72, 52
16, 71624, Note_on_c, 11, 72, 0
16, 71640, Note_on_c, 11, 79, 52
16, 72104, Note_on_c, 11, 79, 0
16, 72120, Note_on_c, 11, 67, 52
16, 72584, Note_on_c, 11, 67, 0
16, 72600, Note_on_c, 11, 72, 52
16, 72944, Note_on_c, 11, 72, 0
16, 72960, Note_on_c, 11, 75, 52
16, 73049, Note_on_c, 11, 75, 0
16, 73080, Note_on_c, 11, 74, 52
16, 73169, Note_on_c, 11, 74, 0
16, 73200, Note_on_c, 11, 72, 52
16, 73289, Note_on_c, 11, 72, 0
16, 73320, Note_on_c, 11, 71, 52
16, 73409, Note_on_c, 11, 71, 0
16, 73440, Note_on_c, 11, 74, 52
16, 73529, Note_on_c, 11, 74, 0
16, 73560, Note_on_c, 11, 72, 52
16, 73904, Note_on_c, 11, 72, 0
16, 73920, Note_on_c, 11, 79, 52
16, 74009, Note_on_c, 11, 79, 0
16, 74040, Note_on_c, 11, 77, 52
16, 74129, Note_on_c, 11, 77, 0
16, 74160, Note_on_c, 11, 75, 52
16, 74249, Note_on_c, 11, 75, 0
16, 74280, Note_on_c, 11, 74, 52
16, 74369, Note_on_c, 11, 74, 0
16, 74400, Note_on_c, 11, 77, 52
16, 74624, Note_on_c, 11, 77, 0
16, 74640, Note_on_c, 11, 76, 52
16, 74691, Note_on_c, 11, 76, 0
16, 74700, Note_on_c, 11, 74, 52
16, 74751, Note_on_c, 11, 74, 0
16, 74760, Note_on_c, 11, 76, 52
16, 74811, Note_on_c, 11, 76, 0
16, 74820, Note_on_c, 11, 77, 52
16, 74871, Note_on_c, 11, 77, 0
16, 74880, Note_on_c, 11, 79, 52
16, 74931, Note_on_c, 11, 79, 0
16, 74940, Note_on_c, 11, 80, 52
16, 74991, Note_on_c, 11, 80, 0
16, 75000, Note_on_c, 11, 82, 52
16, 75089, Note_on_c, 11, 82, 0
16, 75120, Note_on_c, 11, 82, 52
16, 75209, Note_on_c, 11, 82, 0
16, 75240, Note_on_c, 11, 82, 52
16, 75329, Note_on_c, 11, 82, 0
16, 75360, Note_on_c, 11, 82, 52
16, 75449, Note_on_c, 11, 82, 0
16, 75480, Note_on_c, 11, 80, 52
16, 75599, Note_on_c, 11, 80, 0
16, 75600, Note_on_c, 11, 84, 52
16, 75704, Note_on_c, 11, 84, 0
16, 75720, Note_on_c, 11, 77, 52
16, 75809, Note_on_c, 11, 77, 0
16, 76080, Note_on_c, 11, 79, 52
16, 76169, Note_on_c, 11, 79, 0
16, 76200, Note_on_c, 11, 72, 52
16, 76289, Note_on_c, 11, 72, 0
16, 76320, Note_on_c, 11, 82, 52
16, 76409, Note_on_c, 11, 82, 0
16, 76440, Note_on_c, 11, 80, 52
16, 76559, Note_on_c, 11, 80, 0
16, 76560, Note_on_c, 11, 84, 52
16, 76664, Note_on_c, 11, 84, 0
16, 76680, Note_on_c, 11, 77, 52
16, 76769, Note_on_c, 11, 77, 0
16, 77040, Note_on_c, 11, 77, 52
16, 77129, Note_on_c, 11, 77, 0
16, 77160, Note_on_c, 11, 76, 52
16, 77249, Note_on_c, 11, 76, 0
16, 77280, Note_on_c, 11, 84, 52
16, 77369, Note_on_c, 11, 84, 0
16, 77400, Note_on_c, 11, 77, 52
16, 77489, Note_on_c, 11, 77, 0
16, 77520, Note_on_c, 11, 75, 52
16, 77609, Note_on_c, 11, 75, 0
16, 77640, Note_on_c, 11, 74, 52
16, 77729, Note_on_c, 11, 74, 0
16, 77760, Note_on_c, 11, 77, 52
16, 77984, Note_on_c, 11, 77, 0
16, 78000, Note_on_c, 11, 75, 52
16, 78059, Note_on_c, 11, 75, 0
16, 78060, Note_on_c, 11, 74, 52
16, 78111, Note_on_c, 11, 74, 0
16, 78120, Note_on_c, 11, 72, 52
16, 78209, Note_on_c, 11, 72, 0
16, 78240, Note_on_c, 11, 63, 52
16, 78329, Note_on_c, 11, 63, 0
16, 78360, Note_on_c, 11, 62, 52
16, 78651, Note_on_c, 11, 62, 0
16, 78660, Note_on_c, 11, 63, 52
16, 78711, Note_on_c, 11, 63, 0
16, 78720, Note_on_c, 11, 65, 52
16, 78771, Note_on_c, 11, 65, 0
16, 78780, Note_on_c, 11, 67, 52
16, 78831, Note_on_c, 11, 67, 0
16, 78840, Note_on_c, 11, 68, 52
16, 78944, Note_on_c, 11, 68, 0
16, 78960, Note_on_c, 11, 69, 52
16, 79064, Note_on_c, 11, 69, 0
16, 79080, Note_on_c, 11, 70, 52
16, 79184, Note_on_c, 11, 70, 0
16, 79200, Note_on_c, 11, 71, 52
16, 79304, Note_on_c, 11, 71, 0
16, 79320, Note_on_c, 11, 72, 52
16, 79424, Note_on_c, 11, 72, 0
16, 79440, Note_on_c, 11, 78, 52
16, 79559, Note_on_c, 11, 78, 0
16, 79560, Note_on_c, 11, 80, 68
16, 79799, Note_on_c, 11, 80, 0
16, 79800, Note_on_c, 11, 80, 52
16, 79919, Note_on_c, 11, 80, 0
16, 79920, Note_on_c, 11, 78, 52
16, 80039, Note_on_c, 11, 78, 0
16, 80040, Note_on_c, 11, 79, 52
16, 80144, Note_on_c, 11, 79, 0
16, 80160, Note_on_c, 11, 79, 52
16, 80249, Note_on_c, 11, 79, 0
16, 80280, Note_on_c, 11, 79, 52
16, 80369, Note_on_c, 11, 79, 0
16, 80400, Note_on_c, 11, 79, 52
16, 80519, Note_on_c, 11, 79, 0
16, 80520, Note_on_c, 11, 80, 68
16, 80759, Note_on_c, 11, 80, 0
16, 80760, Note_on_c, 11, 80, 52
16, 80879, Note_on_c, 11, 80, 0
16, 80880, Note_on_c, 11, 78, 52
16, 80999, Note_on_c, 11, 78, 0
16, 81000, Note_on_c, 11, 79, 52
16, 81104, Note_on_c, 11, 79, 0
16, 81120, Note_on_c, 11, 79, 52
16, 81209, Note_on_c, 11, 79, 0
16, 81240, Note_on_c, 11, 79, 52
16, 81329, Note_on_c, 11, 79, 0
16, 85080, Note_on_c, 11, 79, 84
16, 85529, Note_on_c, 11, 79, 0
16, 85560, Note_on_c, 11, 84, 76
16, 86024, Note_on_c, 11, 84, 0
16, 86040, Note_on_c, 11, 72, 76
16, 86504, Note_on_c, 11, 72, 0
16, 86520, Note_on_c, 11, 77, 76
16, 86864, Note_on_c, 11, 77, 0
16, 86880, Note_on_c, 11, 80, 76
16, 86969, Note_on_c, 11, 80, 0
16, 87000, Note_on_c, 11, 79, 76
16, 87089, Note_on_c, 11, 79, 0
16, 87120, Note_on_c, 11, 77, 76
16, 87209, Note_on_c, 11, 77, 0
16, 87240, Note_on_c, 11, 76, 76
16, 87329, Note_on_c, 11, 76, 0
16, 87360, Note_on_c, 11, 79, 76
16, 87449, Note_on_c, 11, 79, 0
16, 87480, Note_on_c, 11, 77, 76
16, 87824, Note_on_c, 11, 77, 0
16, 87840, Note_on_c, 11, 81, 76
16, 87929, Note_on_c, 11, 81, 0
16, 87960, Note_on_c, 11, 79, 76
16, 88049, Note_on_c, 11, 79, 0
16, 88080, Note_on_c, 11, 77, 76
16, 88169, Note_on_c, 11, 77, 0
16, 88200, Note_on_c, 11, 76, 76
16, 88289, Note_on_c, 11, 76, 0
16, 88320, Note_on_c, 11, 79, 76
16, 88409, Note_on_c, 11, 79, 0
16, 88440, Note_on_c, 11, 72, 76
16, 88544, Note_on_c, 11, 72, 0
16, 88560, Note_on_c, 11, 69, 76
16, 88611, Note_on_c, 11, 69, 0
16, 88620, Note_on_c, 11, 67, 76
16, 88671, Note_on_c, 11, 67, 0
16, 88680, Note_on_c, 11, 69, 76
16, 88731, Note_on_c, 11, 69, 0
16, 88740, Note_on_c, 11, 70, 76
16, 88791, Note_on_c, 11, 70, 0
16, 88800, Note_on_c, 11, 72, 76
16, 88851, Note_on_c, 11, 72, 0
16, 88860, Note_on_c, 11, 73, 76
16, 88911, Note_on_c, 11, 73, 0
16, 88920, Note_on_c, 11, 75, 76
16, 89039, Note_on_c, 11, 75, 0
16, 89880, Note_on_c, 11, 82, 84
16, 90329, Note_on_c, 11, 82, 0
16, 90360, Note_on_c, 11, 87, 76
16, 90449, Note_on_c, 11, 87, 0
16, 90480, Note_on_c, 11, 85, 76
16, 90569, Note_on_c, 11, 85, 0
16, 90600, Note_on_c, 11, 84, 76
16, 90689, Note_on_c, 11, 84, 0
16, 90720, Note_on_c, 11, 87, 76
16, 90809, Note_on_c, 11, 87, 0
16, 90840, Note_on_c, 11, 85, 76
16, 90929, Note_on_c, 11, 85, 0
16, 90960, Note_on_c, 11, 84, 76
16, 91049, Note_on_c, 11, 84, 0
16, 91080, Note_on_c, 11, 82, 76
16, 91169, Note_on_c, 11, 82, 0
16, 91200, Note_on_c, 11, 85, 76
16, 91289, Note_on_c, 11, 85, 0
16, 91320, Note_on_c, 11, 84, 76
16, 91799, Note_on_c, 11, 84, 0
16, 91800, Note_on_c, 11, 82, 76
16, 92159, Note_on_c, 11, 82, 0
16, 92160, Note_on_c, 11, 84, 76
16, 92264, Note_on_c, 11, 84, 0
16, 92280, Note_on_c, 11, 85, 76
16, 92744, Note_on_c, 11, 85, 0
16, 92760, Note_on_c, 11, 84, 76
16, 93119, Note_on_c, 11, 84, 0
16, 93120, Note_on_c, 11, 86, 76
16, 93179, Note_on_c, 11, 86, 0
16, 93180, Note_on_c, 11, 84, 76
16, 93239, Note_on_c, 11, 84, 0
16, 93240, Note_on_c, 11, 83, 76
16, 93359, Note_on_c, 11, 83, 0
16, 93720, Note_on_c, 11, 75, 84
16, 94169, Note_on_c, 11, 75, 0
16, 94200, Note_on_c, 11, 81, 76
16, 94379, Note_on_c, 11, 81, 0
16, 94440, Note_on_c, 11, 69, 76
16, 94619, Note_on_c, 11, 69, 0
16, 94680, Note_on_c, 11, 81, 76
16, 94859, Note_on_c, 11, 81, 0
16, 94920, Note_on_c, 11, 69, 76
16, 95099, Note_on_c, 11, 69, 0
16, 95160, Note_on_c, 11, 79, 80
16, 95339, Note_on_c, 11, 79, 0
16, 95400, Note_on_c, 11, 67, 80
16, 95579, Note_on_c, 11, 67, 0
16, 95640, Note_on_c, 11, 79, 80
16, 95819, Note_on_c, 11, 79, 0
16, 95880, Note_on_c, 11, 67, 80
16, 96059, Note_on_c, 11, 67, 0
16, 96120, Note_on_c, 11, 77, 80
16, 96299, Note_on_c, 11, 77, 0
16, 96360, Note_on_c, 11, 65, 80
16, 96539, Note_on_c, 11, 65, 0
16, 96600, Note_on_c, 11, 77, 80
16, 96704, Note_on_c, 11, 77, 0
16, 96720, Note_on_c, 11, 65, 80
16, 96824, Note_on_c, 11, 65, 0
16, 96840, Note_on_c, 11, 77, 80
16, 96944, Note_on_c, 11, 77, 0
16, 96960, Note_on_c, 11, 65, 80
16, 97064, Note_on_c, 11, 65, 0
16, 97080, Note_on_c, 11, 77, 84
16, 97131, Note_on_c, 11, 77, 0
16, 97140, Note_on_c, 11, 77, 84
16, 97191, Note_on_c, 11, 77, 0
16, 97200, Note_on_c, 11, 77, 84
16, 97251, Note_on_c, 11, 77, 0
16, 97260, Note_on_c, 11, 77, 84
16, 97311, Note_on_c, 11, 77, 0
16, 97320, Note_on_c, 11, 77, 84
16, 97371, Note_on_c, 11, 77, 0
16, 97380, Note_on_c, 11, 77, 84
16, 97431, Note_on_c, 11, 77, 0
16, 97440, Note_on_c, 11, 77, 84
16, 97491, Note_on_c, 11, 77, 0
16, 97500, Note_on_c, 11, 77, 84
16, 97551, Note_on_c, 11, 77, 0
16, 97560, Note_on_c, 11, 77, 84
16, 97611, Note_on_c, 11, 77, 0
16, 97620, Note_on_c, 11, 77, 84
16, 97671, Note_on_c, 11, 77, 0
16, 97680, Note_on_c, 11, 77, 84
16, 97731, Note_on_c, 11, 77, 0
16, 97740, Note_on_c, 11, 77, 84
16, 97791, Note_on_c, 11, 77, 0
16, 97800, Note_on_c, 11, 77, 84
16, 97851, Note_on_c, 11, 77, 0
16, 97860, Note_on_c, 11, 77, 84
16, 97911, Note_on_c, 11, 77, 0
16, 97920, Note_on_c, 11, 77, 84
16, 97971, Note_on_c, 11, 77, 0
16, 97980, Note_on_c, 11, 77, 84
16, 98031, Note_on_c, 11, 77, 0
16, 98040, Note_on_c, 11, 77, 84
16, 98091, Note_on_c, 11, 77, 0
16, 98100, Note_on_c, 11, 77, 84
16, 98151, Note_on_c, 11, 77, 0
16, 98160, Note_on_c, 11, 77, 84
16, 98211, Note_on_c, 11, 77, 0
16, 98220, Note_on_c, 11, 77, 84
16, 98271, Note_on_c, 11, 77, 0
16, 98280, Note_on_c, 11, 77, 84
16, 98331, Note_on_c, 11, 77, 0
16, 98340, Note_on_c, 11, 77, 84
16, 98391, Note_on_c, 11, 77, 0
16, 98400, Note_on_c, 11, 77, 84
16, 98451, Note_on_c, 11, 77, 0
16, 98460, Note_on_c, 11, 77, 84
16, 98511, Note_on_c, 11, 77, 0
16, 98520, Note_on_c, 11, 77, 84
16, 98571, Note_on_c, 11, 77, 0
16, 98580, Note_on_c, 11, 77, 84
16, 98631, Note_on_c, 11, 77, 0
16, 98640, Note_on_c, 11, 77, 84
16, 98691, Note_on_c, 11, 77, 0
16, 98700, Note_on_c, 11, 77, 84
16, 98751, Note_on_c, 11, 77, 0
16, 98760, Note_on_c, 11, 77, 84
16, 98811, Note_on_c, 11, 77, 0
16, 98820, Note_on_c, 11, 77, 84
16, 98871, Note_on_c, 11, 77, 0
16, 98880, Note_on_c, 11, 77, 84
16, 98931, Note_on_c, 11, 77, 0
16, 98940, Note_on_c, 11, 77, 84
16, 98991, Note_on_c, 11, 77, 0
16, 99000, Note_on_c, 11, 78, 52
16, 99359, Note_on_c, 11, 78, 0
16, 99360, Note_on_c, 11, 74, 52
16, 99464, Note_on_c, 11, 74, 0
16, 99480, Note_on_c, 11, 73, 52
16, 99839, Note_on_c, 11, 73, 0
16, 99840, Note_on_c, 11, 76, 52
16, 99944, Note_on_c, 11, 76, 0
16, 99960, Note_on_c, 11, 79, 52
16, 100319, Note_on_c, 11, 79, 0
16, 100320, Note_on_c, 11, 76, 52
16, 100424, Note_on_c, 11, 76, 0
16, 100440, Note_on_c, 11, 74, 52
16, 100799, Note_on_c, 11, 74, 0
16, 100800, Note_on_c, 11, 78, 52
16, 100904, Note_on_c, 11, 78, 0
16, 100912, Control_c, 11, 11, 96
16, 100920, Control_c, 11, 11, 96
16, 100920, Note_on_c, 11, 81, 68
16, 100960, Control_c, 11, 11, 99
16, 101000, Control_c, 11, 11, 101
16, 101040, Control_c, 11, 11, 104
16, 101080, Control_c, 11, 11, 106
16, 101120, Control_c, 11, 11, 109
16, 101144, Note_on_c, 11, 81, 0
16, 101160, Control_c, 11, 11, 112
16, 101160, Note_on_c, 11, 81, 68
16, 101200, Control_c, 11, 11, 114
16, 101240, Control_c, 11, 11, 117
16, 101280, Control_c, 11, 11, 119
16, 101320, Control_c, 11, 11, 122
16, 101360, Control_c, 11, 11, 127
16, 101384, Note_on_c, 11, 81, 0
16, 101400, Note_on_c, 11, 81, 76
16, 101460, Control_c, 11, 11, 112
16, 101640, Control_c, 11, 11, 112
16, 101667, Control_c, 11, 11, 108
16, 101693, Control_c, 11, 11, 105
16, 101720, Control_c, 11, 11, 101
16, 101744, Note_on_c, 11, 81, 0
16, 101747, Control_c, 11, 11, 98
16, 101760, Note_on_c, 11, 78, 76
16, 101773, Control_c, 11, 11, 94
16, 101800, Control_c, 11, 11, 91
16, 101827, Control_c, 11, 11, 87
16, 101853, Control_c, 11, 11, 80
16, 101864, Note_on_c, 11, 78, 0
16, 101880, Note_on_c, 11, 81, 76
16, 101939, Note_on_c, 11, 81, 0
16, 101940, Note_on_c, 11, 79, 76
16, 101991, Note_on_c, 11, 79, 0
16, 102000, Note_on_c, 11, 76, 76
16, 102089, Note_on_c, 11, 76, 0
16, 102120, Note_on_c, 11, 79, 76
16, 102179, Note_on_c, 11, 79, 0
16, 102180, Note_on_c, 11, 78, 76
16, 102231, Note_on_c, 11, 78, 0
16, 102240, Note_on_c, 11, 74, 76
16, 102329, Note_on_c, 11, 74, 0
16, 102360, Note_on_c, 11, 78, 76
16, 102599, Note_on_c, 11, 78, 0
16, 102600, Note_on_c, 11, 76, 76
16, 102719, Note_on_c, 11, 76, 0
16, 102832, Control_c, 11, 11, 96
16, 102840, Note_on_c, 11, 62, 68
16, 102891, Note_on_c, 11, 62, 0
16, 102900, Note_on_c, 11, 64, 68
16, 102951, Note_on_c, 11, 64, 0
16, 102960, Note_on_c, 11, 66, 68
16, 103011, Note_on_c, 11, 66, 0
16, 103020, Note_on_c, 11, 67, 68
16, 103071, Note_on_c, 11, 67, 0
16, 103080, Note_on_c, 11, 69, 68
16, 103131, Note_on_c, 11, 69, 0
16, 103140, Note_on_c, 11, 71, 68
16, 103191, Note_on_c, 11, 71, 0
16, 103200, Note_on_c, 11, 73, 68
16, 103251, Note_on_c, 11, 73, 0
16, 103260, Note_on_c, 11, 74, 68
16, 103311, Note_on_c, 11, 74, 0
16, 103320, Note_on_c, 11, 76, 68
16, 103371, Note_on_c, 11, 76, 0
16, 103380, Note_on_c, 11, 78, 68
16, 103431, Note_on_c, 11, 78, 0
16, 103440, Note_on_c, 11, 79, 68
16, 103491, Note_on_c, 11, 79, 0
16, 103500, Note_on_c, 11, 78, 68
16, 103551, Note_on_c, 11, 78, 0
16, 103560, Note_on_c, 11, 76, 68
16, 103611, Note_on_c, 11, 76, 0
16, 103620, Note_on_c, 11, 74, 68
16, 103671, Note_on_c, 11, 74, 0
16, 103680, Note_on_c, 11, 73, 68
16, 103731, Note_on_c, 11, 73, 0
16, 103740, Note_on_c, 11, 71, 68
16, 103791, Note_on_c, 11, 71, 0
16, 103800, Note_on_c, 11, 69, 68
16, 103851, Note_on_c, 11, 69, 0
16, 103860, Note_on_c, 11, 68, 68
16, 103911, Note_on_c, 11, 68, 0
16, 103920, Note_on_c, 11, 69, 68
16, 103971, Note_on_c, 11, 69, 0
16, 103980, Note_on_c, 11, 71, 68
16, 104031, Note_on_c, 11, 71, 0
16, 104040, Note_on_c, 11, 73, 68
16, 104091, Note_on_c, 11, 73, 0
16, 104100, Note_on_c, 11, 69, 68
16, 104151, Note_on_c, 11, 69, 0
16, 104160, Note_on_c, 11, 71, 68
16, 104211, Note_on_c, 11, 71, 0
16, 104220, Note_on_c, 11, 73, 68
16, 104271, Note_on_c, 11, 73, 0
16, 104280, Note_on_c, 11, 74, 68
16, 104331, Note_on_c, 11, 74, 0
16, 104340, Note_on_c, 11, 62, 68
16, 104391, Note_on_c, 11, 62, 0
16, 104400, Note_on_c, 11, 64, 68
16, 104451, Note_on_c, 11, 64, 0
16, 104460, Note_on_c, 11, 66, 68
16, 104511, Note_on_c, 11, 66, 0
16, 104520, Note_on_c, 11, 67, 68
16, 104571, Note_on_c, 11, 67, 0
16, 104580, Note_on_c, 11, 69, 68
16, 104631, Note_on_c, 11, 69, 0
16, 104640, Note_on_c, 11, 71, 68
16, 104691, Note_on_c, 11, 71, 0
16, 104700, Note_on_c, 11, 73, 68
16, 104751, Note_on_c, 11, 73, 0
16, 104760, Note_on_c, 11, 74, 68
16, 104760, Control_c, 11, 11, 96
16, 104811, Note_on_c, 11, 74, 0
16, 104820, Control_c, 11, 11, 98
16, 104820, Note_on_c, 11, 78, 68
16, 104871, Note_on_c, 11, 78, 0
16, 104880, Note_on_c, 11, 76, 68
16, 104880, Control_c, 11, 11, 100
16, 104931, Note_on_c, 11, 76, 0
16, 104940, Control_c, 11, 11, 102
16, 104940, Note_on_c, 11, 74, 68
16, 104991, Note_on_c, 11, 74, 0
16, 105000, Note_on_c, 11, 73, 68
16, 105000, Control_c, 11, 11, 104
16, 105051, Note_on_c, 11, 73, 0
16, 105060, Note_on_c, 11, 74, 68
16, 105060, Control_c, 11, 11, 106
16, 105111, Note_on_c, 11, 74, 0
16, 105120, Note_on_c, 11, 71, 68
16, 105120, Control_c, 11, 11, 108
16, 105171, Note_on_c, 11, 71, 0
16, 105180, Control_c, 11, 11, 110
16, 105180, Note_on_c, 11, 73, 68
16, 105231, Note_on_c, 11, 73, 0
16, 105240, Note_on_c, 11, 74, 68
16, 105240, Control_c, 11, 11, 112
16, 105291, Note_on_c, 11, 74, 0
16, 105300, Control_c, 11, 11, 113
16, 105300, Note_on_c, 11, 73, 68
16, 105351, Note_on_c, 11, 73, 0
16, 105360, Control_c, 11, 11, 115
16, 105360, Note_on_c, 11, 74, 68
16, 105411, Note_on_c, 11, 74, 0
16, 105420, Note_on_c, 11, 73, 68
16, 105420, Control_c, 11, 11, 117
16, 105471, Note_on_c, 11, 73, 0
16, 105480, Control_c, 11, 11, 119
16, 105480, Note_on_c, 11, 74, 68
16, 105531, Note_on_c, 11, 74, 0
16, 105540, Control_c, 11, 11, 121
16, 105540, Note_on_c, 11, 73, 68
16, 105591, Note_on_c, 11, 73, 0
16, 105600, Note_on_c, 11, 74, 68
16, 105600, Control_c, 11, 11, 123
16, 105651, Note_on_c, 11, 74, 0
16, 105660, Control_c, 11, 11, 127
16, 105660, Note_on_c, 11, 75, 68
16, 105711, Note_on_c, 11, 75, 0
16, 105720, Note_on_c, 11, 76, 52
16, 105771, Note_on_c, 11, 76, 0
16, 105780, Note_on_c, 11, 69, 52
16, 105831, Note_on_c, 11, 69, 0
16, 105840, Note_on_c, 11, 71, 52
16, 105891, Note_on_c, 11, 71, 0
16, 105900, Note_on_c, 11, 73, 52
16, 105951, Note_on_c, 11, 73, 0
16, 105960, Note_on_c, 11, 74, 52
16, 106011, Note_on_c, 11, 74, 0
16, 106020, Note_on_c, 11, 69, 52
16, 106071, Note_on_c, 11, 69, 0
16, 106080, Note_on_c, 11, 66, 52
16, 106131, Note_on_c, 11, 66, 0
16, 106140, Note_on_c, 11, 62, 52
16, 106191, Note_on_c, 11, 62, 0
16, 106200, Note_on_c, 11, 57, 52
16, 106251, Note_on_c, 11, 57, 0
16, 106260, Note_on_c, 11, 62, 52
16, 106311, Note_on_c, 11, 62, 0
16, 106320, Note_on_c, 11, 66, 52
16, 106371, Note_on_c, 11, 66, 0
16, 106380, Note_on_c, 11, 69, 52
16, 106431, Note_on_c, 11, 69, 0
16, 106440, Note_on_c, 11, 57, 52
16, 106559, Note_on_c, 11, 57, 0
16, 106680, Note_on_c, 11, 67, 52
16, 106739, Note_on_c, 11, 67, 0
16, 106740, Note_on_c, 11, 64, 52
16, 106799, Note_on_c, 11, 64, 0
16, 106800, Note_on_c, 11, 67, 52
16, 106859, Note_on_c, 11, 67, 0
16, 106860, Note_on_c, 11, 64, 52
16, 106919, Note_on_c, 11, 64, 0
16, 106920, Note_on_c, 11, 67, 52
16, 106979, Note_on_c, 11, 67, 0
16, 106980, Note_on_c, 11, 64, 52
16, 107039, Note_on_c, 11, 64, 0
16, 107040, Note_on_c, 11, 67, 52
16, 107099, Note_on_c, 11, 67, 0
16, 107100, Note_on_c, 11, 64, 52
16, 107151, Note_on_c, 11, 64, 0
16, 107160, Note_on_c, 11, 67, 52
16, 107219, Note_on_c, 11, 67, 0
16, 107220, Note_on_c, 11, 64, 52
16, 107279, Note_on_c, 11, 64, 0
16, 107280, Note_on_c, 11, 67, 52
16, 107339, Note_on_c, 11, 67, 0
16, 107340, Note_on_c, 11, 64, 52
16, 107399, Note_on_c, 11, 64, 0
16, 107400, Note_on_c, 11, 67, 52
16, 107459, Note_on_c, 11, 67, 0
16, 107460, Note_on_c, 11, 64, 52
16, 107519, Note_on_c, 11, 64, 0
16, 107520, Note_on_c, 11, 67, 52
16, 107579, Note_on_c, 11, 67, 0
16, 107580, Note_on_c, 11, 64, 52
16, 107631, Note_on_c, 11, 64, 0
16, 107640, Note_on_c, 11, 67, 52
16, 107699, Note_on_c, 11, 67, 0
16, 107700, Note_on_c, 11, 64, 52
16, 107759, Note_on_c, 11, 64, 0
16, 107760, Note_on_c, 11, 67, 52
16, 107819, Note_on_c, 11, 67, 0
16, 107820, Note_on_c, 11, 64, 52
16, 107879, Note_on_c, 11, 64, 0
16, 107880, Note_on_c, 11, 67, 52
16, 107939, Note_on_c, 11, 67, 0
16, 107940, Note_on_c, 11, 64, 52
16, 107999, Note_on_c, 11, 64, 0
16, 108000, Note_on_c, 11, 67, 52
16, 108059, Note_on_c, 11, 67, 0
16, 108060, Note_on_c, 11, 64, 52
16, 108111, Note_on_c, 11, 64, 0
16, 108120, Note_on_c, 11, 61, 52
16, 108179, Note_on_c, 11, 61, 0
16, 108180, Note_on_c, 11, 64, 52
16, 108239, Note_on_c, 11, 64, 0
16, 108240, Note_on_c, 11, 61, 52
16, 108299, Note_on_c, 11, 61, 0
16, 108300, Note_on_c, 11, 64, 52
16, 108359, Note_on_c, 11, 64, 0
16, 108360, Note_on_c, 11, 61, 52
16, 108419, Note_on_c, 11, 61, 0
16, 108420, Note_on_c, 11, 64, 52
16, 108479, Note_on_c, 11, 64, 0
16, 108480, Note_on_c, 11, 61, 52
16, 108539, Note_on_c, 11, 61, 0
16, 108540, Note_on_c, 11, 64, 52
16, 108591, Note_on_c, 11, 64, 0
16, 108600, Note_on_c, 11, 69, 52
16, 108659, Note_on_c, 11, 69, 0
16, 108660, Note_on_c, 11, 57, 52
16, 108719, Note_on_c, 11, 57, 0
16, 108720, Note_on_c, 11, 62, 52
16, 108779, Note_on_c, 11, 62, 0
16, 108780, Note_on_c, 11, 57, 52
16, 108839, Note_on_c, 11, 57, 0
16, 108840, Note_on_c, 11, 62, 52
16, 108899, Note_on_c, 11, 62, 0
16, 108900, Note_on_c, 11, 57, 52
16, 108959, Note_on_c, 11, 57, 0
16, 108960, Note_on_c, 11, 62, 52
16, 109019, Note_on_c, 11, 62, 0
16, 109020, Note_on_c, 11, 57, 52
16, 109071, Note_on_c, 11, 57, 0
16, 109080, Note_on_c, 11, 62, 52
16, 109139, Note_on_c, 11, 62, 0
16, 109140, Note_on_c, 11, 59, 52
16, 109199, Note_on_c, 11, 59, 0
16, 109200, Note_on_c, 11, 62, 52
16, 109259, Note_on_c, 11, 62, 0
16, 109260, Note_on_c, 11, 59, 52
16, 109319, Note_on_c, 11, 59, 0
16, 109320, Note_on_c, 11, 62, 52
16, 109379, Note_on_c, 11, 62, 0
16, 109380, Note_on_c, 11, 59, 52
16, 109439, Note_on_c, 11, 59, 0
16, 109440, Note_on_c, 11, 62, 52
16, 109499, Note_on_c, 11, 62, 0
16, 109500, Note_on_c, 11, 59, 52
16, 109551, Note_on_c, 11, 59, 0
16, 109560, Note_on_c, 11, 66, 52
16, 109611, Note_on_c, 11, 66, 0
16, 109620, Note_on_c, 11, 62, 52
16, 109671, Note_on_c, 11, 62, 0
16, 109680, Note_on_c, 11, 66, 52
16, 109731, Note_on_c, 11, 66, 0
16, 109740, Note_on_c, 11, 62, 52
16, 109791, Note_on_c, 11, 62, 0
16, 109800, Note_on_c, 11, 61, 52
16, 109851, Note_on_c, 11, 61, 0
16, 109860, Note_on_c, 11, 64, 52
16, 109911, Note_on_c, 11, 64, 0
16, 109920, Note_on_c, 11, 67, 52
16, 109971, Note_on_c, 11, 67, 0
16, 109980, Note_on_c, 11, 73, 52
16, 110031, Note_on_c, 11, 73, 0
16, 110040, Note_on_c, 11, 74, 52
16, 110040, Note_on_c, 11, 66, 52
16, 110107, Note_on_c, 11, 74, 0
16, 110107, Note_on_c, 11, 66, 0
16, 110120, Note_on_c, 11, 69, 52
16, 110187, Note_on_c, 11, 69, 0
16, 110200, Note_on_c, 11, 67, 52
16, 110267, Note_on_c, 11, 67, 0
16, 110280, Note_on_c, 11, 66, 52
16, 110347, Note_on_c, 11, 66, 0
16, 110360, Note_on_c, 11, 64, 52
16, 110427, Note_on_c, 11, 64, 0
16, 110440, Note_on_c, 11, 62, 52
16, 110507, Note_on_c, 11, 62, 0
16, 110520, Note_on_c, 11, 58, 76
16, 110599, Note_on_c, 11, 58, 0
16, 110600, Note_on_c, 11, 57, 52
16, 110667, Note_on_c, 11, 57, 0
16, 110680, Note_on_c, 11, 57, 52
16, 110739, Note_on_c, 11, 57, 0
16, 110760, Note_on_c, 11, 76, 76
16, 110827, Note_on_c, 11, 76, 0
16, 110840, Note_on_c, 11, 76, 52
16, 110907, Note_on_c, 11, 76, 0
16, 110920, Note_on_c, 11, 76, 52
16, 110987, Note_on_c, 11, 76, 0
16, 111000, Note_on_c, 11, 59, 52
16, 111079, Note_on_c, 11, 59, 0
16, 111080, Note_on_c, 11, 57, 52
16, 111147, Note_on_c, 11, 57, 0
16, 111160, Note_on_c, 11, 57, 52
16, 111219, Note_on_c, 11, 57, 0
16, 111240, Note_on_c, 11, 79, 76
16, 111307, Note_on_c, 11, 79, 0
16, 111320, Note_on_c, 11, 79, 52
16, 111387, Note_on_c, 11, 79, 0
16, 111400, Note_on_c, 11, 79, 52
16, 111467, Note_on_c, 11, 79, 0
16, 111480, Note_on_c, 11, 58, 52
16, 111559, Note_on_c, 11, 58, 0
16, 111560, Note_on_c, 11, 57, 52
16, 111627, Note_on_c, 11, 57, 0
16, 111640, Note_on_c, 11, 57, 52
16, 111699, Note_on_c, 11, 57, 0
16, 111720, Note_on_c, 11, 85, 76
16, 111787, Note_on_c, 11, 85, 0
16, 111800, Note_on_c, 11, 85, 52
16, 111867, Note_on_c, 11, 85, 0
16, 111880, Note_on_c, 11, 85, 52
16, 111947, Note_on_c, 11, 85, 0
16, 111960, Note_on_c, 11, 71, 52
16, 112039, Note_on_c, 11, 71, 0
16, 112040, Note_on_c, 11, 69, 52
16, 112107, Note_on_c, 11, 69, 0
16, 112120, Note_on_c, 11, 69, 52
16, 112179, Note_on_c, 11, 69, 0
16, 112200, Note_on_c, 11, 69, 52
16, 112279, Note_on_c, 11, 69, 0
16, 112280, Note_on_c, 11, 67, 52
16, 112347, Note_on_c, 11, 67, 0
16, 112360, Note_on_c, 11, 67, 52
16, 112419, Note_on_c, 11, 67, 0
16, 112440, Note_on_c, 11, 67, 52
16, 112519, Note_on_c, 11, 67, 0
16, 112520, Note_on_c, 11, 66, 52
16, 112587, Note_on_c, 11, 66, 0
16, 112600, Note_on_c, 11, 66, 52
16, 112659, Note_on_c, 11, 66, 0
16, 112680, Note_on_c, 11, 74, 52
16, 112680, Note_on_c, 11, 86, 52
16, 112747, Note_on_c, 11, 74, 0
16, 112747, Note_on_c, 11, 86, 0
16, 112760, Note_on_c, 11, 74, 52
16, 112760, Note_on_c, 11, 86, 52
16, 112827, Note_on_c, 11, 74, 0
16, 112827, Note_on_c, 11, 86, 0
16, 112840, Note_on_c, 11, 74, 52
16, 112840, Note_on_c, 11, 86, 52
16, 112907, Note_on_c, 11, 74, 0
16, 112907, Note_on_c, 11, 86, 0
16, 112920, Note_on_c, 11, 69, 76
16, 112999, Note_on_c, 11, 69, 0
16, 113000, Note_on_c, 11, 67, 52
16, 113067, Note_on_c, 11, 67, 0
16, 113080, Note_on_c, 11, 67, 52
16, 113139, Note_on_c, 11, 67, 0
16, 113160, Note_on_c, 11, 76, 52
16, 113160, Note_on_c, 11, 86, 52
16, 113227, Note_on_c, 11, 76, 0
16, 113227, Note_on_c, 11, 86, 0
16, 113240, Note_on_c, 11, 86, 52
16, 113240, Note_on_c, 11, 76, 52
16, 113307, Note_on_c, 11, 86, 0
16, 113307, Note_on_c, 11, 76, 0
16, 113320, Note_on_c, 11, 86, 52
16, 113320, Note_on_c, 11, 76, 52
16, 113387, Note_on_c, 11, 86, 0
16, 113387, Note_on_c, 11, 76, 0
16, 113400, Note_on_c, 11, 86, 52
16, 113400, Note_on_c, 11, 78, 52
16, 113467, Note_on_c, 11, 86, 0
16, 113467, Note_on_c, 11, 78, 0
16, 113480, Note_on_c, 11, 86, 52
16, 113480, Note_on_c, 11, 78, 52
16, 113547, Note_on_c, 11, 86, 0
16, 113547, Note_on_c, 11, 78, 0
16, 113560, Note_on_c, 11, 78, 52
16, 113560, Note_on_c, 11, 86, 52
16, 113627, Note_on_c, 11, 78, 0
16, 113627, Note_on_c, 11, 86, 0
16, 113640, Note_on_c, 11, 76, 52
16, 113640, Note_on_c, 11, 85, 52
16, 113707, Note_on_c, 11, 76, 0
16, 113707, Note_on_c, 11, 85, 0
16, 113720, Note_on_c, 11, 76, 52
16, 113720, Note_on_c, 11, 85, 52
16, 113787, Note_on_c, 11, 76, 0
16, 113787, Note_on_c, 11, 85, 0
16, 113800, Note_on_c, 11, 85, 52
16, 113800, Note_on_c, 11, 76, 52
16, 113867, Note_on_c, 11, 85, 0
16, 113867, Note_on_c, 11, 76, 0
16, 113880, Note_on_c, 11, 78, 52
16, 113880, Note_on_c, 11, 86, 52
16, 113947, Note_on_c, 11, 78, 0
16, 113947, Note_on_c, 11, 86, 0
16, 113960, Note_on_c, 11, 74, 57
16, 113960, Note_on_c, 11, 86, 57
16, 114027, Note_on_c, 11, 74, 0
16, 114027, Note_on_c, 11, 86, 0
16, 114040, Note_on_c, 11, 74, 62
16, 114040, Note_on_c, 11, 86, 62
16, 114107, Note_on_c, 11, 74, 0
16, 114107, Note_on_c, 11, 86, 0
16, 114120, Note_on_c, 11, 86, 68
16, 114120, Note_on_c, 11, 74, 68
16, 114187, Note_on_c, 11, 86, 0
16, 114187, Note_on_c, 11, 74, 0
16, 114200, Note_on_c, 11, 86, 73
16, 114200, Note_on_c, 11, 74, 73
16, 114267, Note_on_c, 11, 86, 0
16, 114267, Note_on_c, 11, 74, 0
16, 114280, Note_on_c, 11, 74, 78
16, 114280, Note_on_c, 11, 86, 78
16, 114347, Note_on_c, 11, 74, 0
16, 114347, Note_on_c, 11, 86, 0
16, 114360, Note_on_c, 11, 74, 84
16, 114360, Note_on_c, 11, 86, 84
16, 114427, Note_on_c, 11, 74, 0
16, 114427, Note_on_c, 11, 86, 0
16, 114440, Note_on_c, 11, 74, 84
16, 114440, Note_on_c, 11, 86, 84
16, 114507, Note_on_c, 11, 74, 0
16, 114507, Note_on_c, 11, 86, 0
16, 114520, Note_on_c, 11, 86, 84
16, 114520, Note_on_c, 11, 74, 84
16, 114587, Note_on_c, 11, 86, 0
16, 114587, Note_on_c, 11, 74, 0
16, 114600, Note_on_c, 11, 86, 84
16, 114600, Note_on_c, 11, 74, 84
16, 114667, Note_on_c, 11, 86, 0
16, 114667, Note_on_c, 11, 74, 0
16, 114680, Note_on_c, 11, 74, 84
16, 114680, Note_on_c, 11, 86, 84
16, 114747, Note_on_c, 11, 74, 0
16, 114747, Note_on_c, 11, 86, 0
16, 114760, Note_on_c, 11, 86, 84
16, 114760, Note_on_c, 11, 74, 84
16, 114827, Note_on_c, 11, 86, 0
16, 114827, Note_on_c, 11, 74, 0
16, 114840, Note_on_c, 11, 86, 84
16, 114840, Note_on_c, 11, 74, 84
16, 114907, Note_on_c, 11, 86, 0
16, 114907, Note_on_c, 11, 74, 0
16, 114920, Note_on_c, 11, 74, 84
16, 114920, Note_on_c, 11, 86, 84
16, 114987, Note_on_c, 11, 74, 0
16, 114987, Note_on_c, 11, 86, 0
16, 115000, Note_on_c, 11, 74, 84
16, 115000, Note_on_c, 11, 86, 84
16, 115067, Note_on_c, 11, 74, 0
16, 115067, Note_on_c, 11, 86, 0
16, 115080, Note_on_c, 11, 86, 84
16, 115080, Note_on_c, 11, 74, 84
16, 115147, Note_on_c, 11, 86, 0
16, 115147, Note_on_c, 11, 74, 0
16, 115160, Note_on_c, 11, 86, 84
16, 115160, Note_on_c, 11, 74, 84
16, 115227, Note_on_c, 11, 86, 0
16, 115227, Note_on_c, 11, 74, 0
16, 115240, Note_on_c, 11, 74, 84
16, 115240, Note_on_c, 11, 86, 84
16, 115307, Note_on_c, 11, 74, 0
16, 115307, Note_on_c, 11, 86, 0
16, 115320, Note_on_c, 11, 86, 84
16, 115320, Note_on_c, 11, 74, 84
16, 115387, Note_on_c, 11, 86, 0
16, 115387, Note_on_c, 11, 74, 0
16, 115400, Note_on_c, 11, 86, 84
16, 115400, Note_on_c, 11, 74, 84
16, 115467, Note_on_c, 11, 86, 0
16, 115467, Note_on_c, 11, 74, 0
16, 115480, Note_on_c, 11, 86, 84
16, 115480, Note_on_c, 11, 74, 84
16, 115547, Note_on_c, 11, 86, 0
16, 115547, Note_on_c, 11, 74, 0
16, 115560, Note_on_c, 11, 76, 84
16, 115560, Note_on_c, 11, 85, 84
16, 115627, Note_on_c, 11, 76, 0
16, 115627, Note_on_c, 11, 85, 0
16, 115640, Note_on_c, 11, 76, 84
16, 115640, Note_on_c, 11, 85, 84
16, 115707, Note_on_c, 11, 76, 0
16, 115707, Note_on_c, 11, 85, 0
16, 115720, Note_on_c, 11, 85, 84
16, 115720, Note_on_c, 11, 76, 84
16, 115787, Note_on_c, 11, 85, 0
16, 115787, Note_on_c, 11, 76, 0
16, 115800, Note_on_c, 11, 86, 84
16, 115800, Note_on_c, 11, 74, 84
16, 115851, Note_on_c, 11, 86, 0
16, 115851, Note_on_c, 11, 74, 0
16, 115860, Note_on_c, 11, 62, 84
16, 115919, Note_on_c, 11, 62, 0
16, 115920, Note_on_c, 11, 64, 84
16, 115979, Note_on_c, 11, 64, 0
16, 115980, Note_on_c, 11, 66, 84
16, 116039, Note_on_c, 11, 66, 0
16, 116040, Note_on_c, 11, 67, 84
16, 116099, Note_on_c, 11, 67, 0
16, 116100, Note_on_c, 11, 69, 84
16, 116159, Note_on_c, 11, 69, 0
16, 116160, Note_on_c, 11, 70, 84
16, 116219, Note_on_c, 11, 70, 0
16, 116220, Note_on_c, 11, 72, 84
16, 116271, Note_on_c, 11, 72, 0
16, 116280, Note_on_c, 11, 74, 76
16, 116459, Note_on_c, 11, 74, 0
16, 116520, Note_on_c, 11, 74, 76
16, 116684, Note_on_c, 11, 74, 0
16, 116700, Note_on_c, 11, 74, 76
16, 116744, Note_on_c, 11, 74, 0
16, 116760, Note_on_c, 11, 74, 76
16, 116939, Note_on_c, 11, 74, 0
16, 117000, Note_on_c, 11, 74, 76
16, 117164, Note_on_c, 11, 74, 0
16, 117180, Note_on_c, 11, 74, 76
16, 117224, Note_on_c, 11, 74, 0
16, 117240, Note_on_c, 11, 74, 76
16, 117404, Note_on_c, 11, 74, 0
16, 117420, Note_on_c, 11, 72, 76
16, 117464, Note_on_c, 11, 72, 0
16, 117480, Note_on_c, 11, 70, 76
16, 117644, Note_on_c, 11, 70, 0
16, 117660, Note_on_c, 11, 69, 76
16, 117704, Note_on_c, 11, 69, 0
16, 117720, Note_on_c, 11, 70, 76
16, 117884, Note_on_c, 11, 70, 0
16, 117900, Note_on_c, 11, 72, 76
16, 117944, Note_on_c, 11, 72, 0
16, 117960, Note_on_c, 11, 70, 76
16, 118124, Note_on_c, 11, 70, 0
16, 118140, Note_on_c, 11, 69, 76
16, 118171, Note_on_c, 11, 69, 0
16, 118180, Note_on_c, 11, 69, 76
16, 118199, Note_on_c, 11, 69, 0
16, 118200, Note_on_c, 11, 67, 76
16, 118364, Note_on_c, 11, 67, 0
16, 118380, Note_on_c, 11, 66, 76
16, 118424, Note_on_c, 11, 66, 0
16, 118440, Note_on_c, 11, 67, 76
16, 118604, Note_on_c, 11, 67, 0
16, 118620, Note_on_c, 11, 70, 76
16, 118664, Note_on_c, 11, 70, 0
16, 118680, Note_on_c, 11, 69, 76
16, 118844, Note_on_c, 11, 69, 0
16, 118860, Note_on_c, 11, 70, 76
16, 118904, Note_on_c, 11, 70, 0
16, 118920, Note_on_c, 11, 72, 76
16, 119084, Note_on_c, 11, 72, 0
16, 119100, Note_on_c, 11, 69, 76
16, 119144, Note_on_c, 11, 69, 0
16, 119160, Note_on_c, 11, 66, 76
16, 119324, Note_on_c, 11, 66, 0
16, 119340, Note_on_c, 11, 67, 76
16, 119384, Note_on_c, 11, 67, 0
16, 119400, Note_on_c, 11, 69, 76
16, 119564, Note_on_c, 11, 69, 0
16, 119580, Note_on_c, 11, 66, 76
16, 119624, Note_on_c, 11, 66, 0
16, 119640, Note_on_c, 11, 67, 76
16, 119699, Note_on_c, 11, 67, 0
16, 119700, Note_on_c, 11, 62, 76
16, 119759, Note_on_c, 11, 62, 0
16, 119760, Note_on_c, 11, 64, 76
16, 119819, Note_on_c, 11, 64, 0
16, 119820, Note_on_c, 11, 66, 76
16, 119879, Note_on_c, 11, 66, 0
16, 119880, Note_on_c, 11, 67, 76
16, 119939, Note_on_c, 11, 67, 0
16, 119940, Note_on_c, 11, 69, 76
16, 119999, Note_on_c, 11, 69, 0
16, 120000, Note_on_c, 11, 70, 76
16, 120059, Note_on_c, 11, 70, 0
16, 120060, Note_on_c, 11, 72, 76
16, 120111, Note_on_c, 11, 72, 0
16, 120120, Note_on_c, 11, 62, 76
16, 120120, Note_on_c, 11, 74, 76
16, 120299, Note_on_c, 11, 62, 0
16, 120299, Note_on_c, 11, 74, 0
16, 120360, Note_on_c, 11, 74, 76
16, 120360, Note_on_c, 11, 62, 76
16, 120524, Note_on_c, 11, 74, 0
16, 120524, Note_on_c, 11, 62, 0
16, 120540, Note_on_c, 11, 62, 76
16, 120540, Note_on_c, 11, 74, 76
16, 120584, Note_on_c, 11, 62, 0
16, 120584, Note_on_c, 11, 74, 0
16, 120600, Note_on_c, 11, 74, 76
16, 120600, Note_on_c, 11, 62, 76
16, 120779, Note_on_c, 11, 74, 0
16, 120779, Note_on_c, 11, 62, 0
16, 120840, Note_on_c, 11, 62, 76
16, 120840, Note_on_c, 11, 74, 76
16, 121004, Note_on_c, 11, 62, 0
16, 121004, Note_on_c, 11, 74, 0
16, 121020, Note_on_c, 11, 62, 76
16, 121020, Note_on_c, 11, 74, 76
16, 121064, Note_on_c, 11, 62, 0
16, 121064, Note_on_c, 11, 74, 0
16, 121080, Note_on_c, 11, 74, 76
16, 121080, Note_on_c, 11, 62, 76
16, 121244, Note_on_c, 11, 74, 0
16, 121244, Note_on_c, 11, 62, 0
16, 121260, Note_on_c, 11, 72, 76
16, 121304, Note_on_c, 11, 72, 0
16, 121320, Note_on_c, 11, 70, 76
16, 121484, Note_on_c, 11, 70, 0
16, 121500, Note_on_c, 11, 69, 76
16, 121544, Note_on_c, 11, 69, 0
16, 121560, Note_on_c, 11, 70, 76
16, 121724, Note_on_c, 11, 70, 0
16, 121740, Note_on_c, 11, 72, 76
16, 121784, Note_on_c, 11, 72, 0
16, 121800, Note_on_c, 11, 70, 76
16, 121964, Note_on_c, 11, 70, 0
16, 121980, Note_on_c, 11, 69, 76
16, 122011, Note_on_c, 11, 69, 0
16, 122020, Note_on_c, 11, 69, 76
16, 122039, Note_on_c, 11, 69, 0
16, 122040, Note_on_c, 11, 67, 76
16, 122204, Note_on_c, 11, 67, 0
16, 122220, Note_on_c, 11, 66, 76
16, 122264, Note_on_c, 11, 66, 0
16, 122280, Note_on_c, 11, 67, 76
16, 122444, Note_on_c, 11, 67, 0
16, 122460, Note_on_c, 11, 70, 76
16, 122504, Note_on_c, 11, 70, 0
16, 122520, Note_on_c, 11, 69, 76
16, 122684, Note_on_c, 11, 69, 0
16, 122700, Note_on_c, 11, 70, 76
16, 122744, Note_on_c, 11, 70, 0
16, 122760, Note_on_c, 11, 72, 76
16, 122924, Note_on_c, 11, 72, 0
16, 122940, Note_on_c, 11, 69, 76
16, 122984, Note_on_c, 11, 69, 0
16, 123000, Note_on_c, 11, 66, 76
16, 123164, Note_on_c, 11, 66, 0
16, 123180, Note_on_c, 11, 67, 76
16, 123224, Note_on_c, 11, 67, 0
16, 123240, Note_on_c, 11, 69, 76
16, 123404, Note_on_c, 11, 69, 0
16, 123420, Note_on_c, 11, 66, 76
16, 123464, Note_on_c, 11, 66, 0
16, 123480, Note_on_c, 11, 67, 76
16, 123599, Note_on_c, 11, 67, 0
16, 123960, Note_on_c, 11, 72, 84
16, 124409, Note_on_c, 11, 72, 0
16, 124440, Note_on_c, 11, 79, 84
16, 124889, Note_on_c, 11, 79, 0
16, 124920, Note_on_c, 11, 67, 84
16, 125369, Note_on_c, 11, 67, 0
16, 125400, Note_on_c, 11, 72, 84
16, 125849, Note_on_c, 11, 72, 0
16, 125880, Note_on_c, 11, 84, 76
16, 126059, Note_on_c, 11, 84, 0
16, 126120, Note_on_c, 11, 84, 76
16, 126284, Note_on_c, 11, 84, 0
16, 126300, Note_on_c, 11, 84, 76
16, 126344, Note_on_c, 11, 84, 0
16, 126360, Note_on_c, 11, 81, 76
16, 126539, Note_on_c, 11, 81, 0
16, 126600, Note_on_c, 11, 81, 76
16, 126764, Note_on_c, 11, 81, 0
16, 126780, Note_on_c, 11, 81, 76
16, 126824, Note_on_c, 11, 81, 0
16, 126840, Note_on_c, 11, 78, 76
16, 127004, Note_on_c, 11, 78, 0
16, 127020, Note_on_c, 11, 79, 76
16, 127064, Note_on_c, 11, 79, 0
16, 127080, Note_on_c, 11, 81, 76
16, 127244, Note_on_c, 11, 81, 0
16, 127260, Note_on_c, 11, 78, 76
16, 127304, Note_on_c, 11, 78, 0
16, 127320, Note_on_c, 11, 79, 76
16, 127439, Note_on_c, 11, 79, 0
16, 127800, Note_on_c, 11, 72, 84
16, 128249, Note_on_c, 11, 72, 0
16, 128280, Note_on_c, 11, 79, 84
16, 128729, Note_on_c, 11, 79, 0
16, 128760, Note_on_c, 11, 67, 84
16, 129209, Note_on_c, 11, 67, 0
16, 129240, Note_on_c, 11, 72, 84
16, 129689, Note_on_c, 11, 72, 0
16, 129720, Note_on_c, 11, 84, 76
16, 129899, Note_on_c, 11, 84, 0
16, 129960, Note_on_c, 11, 84, 76
16, 130124, Note_on_c, 11, 84, 0
16, 130140, Note_on_c, 11, 84, 76
16, 130184, Note_on_c, 11, 84, 0
16, 130200, Note_on_c, 11, 81, 76
16, 130379, Note_on_c, 11, 81, 0
16, 130440, Note_on_c, 11, 81, 76
16, 130604, Note_on_c, 11, 81, 0
16, 130620, Note_on_c, 11, 81, 76
16, 130664, Note_on_c, 11, 81, 0
16, 130680, Note_on_c, 11, 78, 76
16, 130844, Note_on_c, 11, 78, 0
16, 130860, Note_on_c, 11, 79, 76
16, 130904, Note_on_c, 11, 79, 0
16, 130920, Note_on_c, 11, 81, 76
16, 131084, Note_on_c, 11, 81, 0
16, 131100, Note_on_c, 11, 78, 76
16, 131144, Note_on_c, 11, 78, 0
16, 131160, Note_on_c, 11, 79, 76
16, 131324, Note_on_c, 11, 79, 0
16, 131340, Note_on_c, 11, 79, 76
16, 131384, Note_on_c, 11, 79, 0
16, 131400, Note_on_c, 11, 84, 84
16, 131564, Note_on_c, 11, 84, 0
16, 131580, Note_on_c, 11, 84, 76
16, 131624, Note_on_c, 11, 84, 0
16, 131640, Note_on_c, 11, 84, 76
16, 131804, Note_on_c, 11, 84, 0
16, 131820, Note_on_c, 11, 84, 76
16, 131864, Note_on_c, 11, 84, 0
16, 131880, Note_on_c, 11, 84, 76
16, 132044, Note_on_c, 11, 84, 0
16, 132060, Note_on_c, 11, 84, 76
16, 132104, Note_on_c, 11, 84, 0
16, 132120, Note_on_c, 11, 81, 76
16, 132284, Note_on_c, 11, 81, 0
16, 132300, Note_on_c, 11, 81, 76
16, 132344, Note_on_c, 11, 81, 0
16, 132360, Note_on_c, 11, 81, 76
16, 132524, Note_on_c, 11, 81, 0
16, 132540, Note_on_c, 11, 81, 76
16, 132584, Note_on_c, 11, 81, 0
16, 132600, Note_on_c, 11, 78, 76
16, 132764, Note_on_c, 11, 78, 0
16, 132780, Note_on_c, 11, 79, 76
16, 132824, Note_on_c, 11, 79, 0
16, 132840, Note_on_c, 11, 81, 76
16, 133004, Note_on_c, 11, 81, 0
16, 133020, Note_on_c, 11, 78, 76
16, 133064, Note_on_c, 11, 78, 0
16, 133080, Note_on_c, 11, 79, 76
16, 133244, Note_on_c, 11, 79, 0
16, 133260, Note_on_c, 11, 81, 76
16, 133304, Note_on_c, 11, 81, 0
16, 133320, Note_on_c, 11, 82, 76
16, 133484, Note_on_c, 11, 82, 0
16, 133500, Note_on_c, 11, 79, 76
16, 133544, Note_on_c, 11, 79, 0
16, 133560, Note_on_c, 11, 78, 76
16, 133724, Note_on_c, 11, 78, 0
16, 133740, Note_on_c, 11, 79, 76
16, 133784, Note_on_c, 11, 79, 0
16, 133800, Note_on_c, 11, 81, 76
16, 133964, Note_on_c, 11, 81, 0
16, 133980, Note_on_c, 11, 78, 76
16, 134024, Note_on_c, 11, 78, 0
16, 134040, Note_on_c, 11, 79, 76
16, 134204, Note_on_c, 11, 79, 0
16, 134220, Note_on_c, 11, 81, 76
16, 134264, Note_on_c, 11, 81, 0
16, 134280, Note_on_c, 11, 82, 76
16, 134444, Note_on_c, 11, 82, 0
16, 134460, Note_on_c, 11, 79, 76
16, 134504, Note_on_c, 11, 79, 0
16, 134520, Note_on_c, 11, 78, 76
16, 134684, Note_on_c, 11, 78, 0
16, 134700, Note_on_c, 11, 79, 76
16, 134744, Note_on_c, 11, 79, 0
16, 134760, Note_on_c, 11, 81, 76
16, 134924, Note_on_c, 11, 81, 0
16, 134940, Note_on_c, 11, 78, 76
16, 134984, Note_on_c, 11, 78, 0
16, 135000, Note_on_c, 11, 79, 76
16, 135179, Note_on_c, 11, 79, 0
16, 135240, Note_on_c, 11, 62, 76
16, 135240, Note_on_c, 11, 78, 76
16, 135240, Note_on_c, 11, 69, 76
16, 135464, Note_on_c, 11, 62, 0
16, 135464, Note_on_c, 11, 78, 0
16, 135464, Note_on_c, 11, 69, 0
16, 135480, Note_on_c, 11, 55, 76
16, 135480, Note_on_c, 11, 79, 76
16, 135480, Note_on_c, 11, 70, 76
16, 135480, Note_on_c, 11, 62, 76
16, 135704, Note_on_c, 11, 55, 0
16, 135704, Note_on_c, 11, 79, 0
16, 135704, Note_on_c, 11, 70, 0
16, 135704, Note_on_c, 11, 62, 0
16, 135720, Note_on_c, 11, 62, 76
16, 135720, Note_on_c, 11, 69, 76
16, 135720, Note_on_c, 11, 78, 76
16, 135944, Note_on_c, 11, 62, 0
16, 135944, Note_on_c, 11, 69, 0
16, 135944, Note_on_c, 11, 78, 0
16, 135960, Note_on_c, 11, 70, 76
16, 135960, Note_on_c, 11, 79, 76
16, 135960, Note_on_c, 11, 55, 76
16, 135960, Note_on_c, 11, 62, 76
16, 136184, Note_on_c, 11, 70, 0
16, 136184, Note_on_c, 11, 79, 0
16, 136184, Note_on_c, 11, 55, 0
16, 136184, Note_on_c, 11, 62, 0
16, 136200, Note_on_c, 11, 62, 76
16, 136200, Note_on_c, 11, 69, 76
16, 136200, Note_on_c, 11, 78, 76
16, 136424, Note_on_c, 11, 62, 0
16, 136424, Note_on_c, 11, 69, 0
16, 136424, Note_on_c, 11, 78, 0
16, 136440, Note_on_c, 11, 62, 76
16, 136440, Note_on_c, 11, 55, 76
16, 136440, Note_on_c, 11, 79, 76
16, 136440, Note_on_c, 11, 70, 76
16, 136664, Note_on_c, 11, 62, 0
16, 136664, Note_on_c, 11, 55, 0
16, 136664, Note_on_c, 11, 79, 0
16, 136664, Note_on_c, 11, 70, 0
16, 136680, Note_on_c, 11, 69, 76
16, 136680, Note_on_c, 11, 78, 76
16, 136680, Note_on_c, 11, 62, 76
16, 136904, Note_on_c, 11, 69, 0
16, 136904, Note_on_c, 11, 78, 0
16, 136904, Note_on_c, 11, 62, 0
16, 136920, Note_on_c, 11, 79, 76
16, 136920, Note_on_c, 11, 70, 76
16, 136920, Note_on_c, 11, 62, 76
16, 136920, Note_on_c, 11, 55, 76
16, 137159, Note_on_c, 11, 79, 0
16, 137159, Note_on_c, 11, 70, 0
16, 137159, Note_on_c, 11, 62, 0
16, 137159, Note_on_c, 11, 55, 0
16, 137400, Note_on_c, 11, 55, 76
16, 137400, Note_on_c, 11, 79, 76
16, 137400, Note_on_c, 11, 62, 76
16, 137400, Note_on_c, 11, 70, 76
16, 137639, Note_on_c, 11, 55, 0
16, 137639, Note_on_c, 11, 79, 0
16, 137639, Note_on_c, 11, 62, 0
16, 137639, Note_on_c, 11, 70, 0
16, 137880, Note_on_c, 11, 55, 52
16, 137880, Note_on_c, 11, 67, 52
16, 137999, Note_on_c, 11, 55, 0
16, 137999, Note_on_c, 11, 67, 0
16, 138720, Note_on_c, 11, 72, 48
16, 138839, Note_on_c, 11, 72, 0
16, 138840, Note_on_c, 11, 76, 48
16, 139199, Note_on_c, 11, 76, 0
16, 139200, Note_on_c, 11, 72, 48
16, 139304, Note_on_c, 11, 72, 0
16, 139320, Note_on_c, 11, 71, 48
16, 139679, Note_on_c, 11, 71, 0
16, 139680, Note_on_c, 11, 74, 48
16, 139784, Note_on_c, 11, 74, 0
16, 139800, Note_on_c, 11, 77, 48
16, 140159, Note_on_c, 11, 77, 0
16, 140160, Note_on_c, 11, 74, 48
16, 140264, Note_on_c, 11, 74, 0
16, 140280, Note_on_c, 11, 72, 48
16, 140639, Note_on_c, 11, 72, 0
16, 140640, Note_on_c, 11, 76, 48
16, 140744, Note_on_c, 11, 76, 0
16, 140752, Control_c, 11, 11, 96
16, 140760, Control_c, 11, 11, 96
16, 140760, Note_on_c, 11, 79, 68
16, 140800, Control_c, 11, 11, 99
16, 140840, Control_c, 11, 11, 101
16, 140880, Control_c, 11, 11, 104
16, 140920, Control_c, 11, 11, 106
16, 140939, Note_on_c, 11, 79, 0
16, 140960, Control_c, 11, 11, 109
16, 141000, Note_on_c, 11, 79, 68
16, 141000, Control_c, 11, 11, 112
16, 141040, Control_c, 11, 11, 114
16, 141080, Control_c, 11, 11, 117
16, 141120, Control_c, 11, 11, 119
16, 141160, Control_c, 11, 11, 122
16, 141179, Note_on_c, 11, 79, 0
16, 141200, Control_c, 11, 11, 127
16, 141240, Note_on_c, 11, 79, 76
16, 141360, Control_c, 11, 11, 112
16, 141390, Control_c, 11, 11, 109
16, 141420, Control_c, 11, 11, 107
16, 141450, Control_c, 11, 11, 104
16, 141480, Control_c, 11, 11, 101
16, 141510, Control_c, 11, 11, 99
16, 141540, Control_c, 11, 11, 96
16, 141570, Control_c, 11, 11, 93
16, 141584, Note_on_c, 11, 79, 0
16, 141600, Note_on_c, 11, 76, 76
16, 141600, Control_c, 11, 11, 91
16, 141630, Control_c, 11, 11, 88
16, 141660, Control_c, 11, 11, 85
16, 141690, Control_c, 11, 11, 80
16, 141704, Note_on_c, 11, 76, 0
16, 141720, Note_on_c, 11, 79, 76
16, 141779, Note_on_c, 11, 79, 0
16, 141780, Note_on_c, 11, 77, 76
16, 141831, Note_on_c, 11, 77, 0
16, 141840, Note_on_c, 11, 74, 76
16, 141929, Note_on_c, 11, 74, 0
16, 141960, Note_on_c, 11, 77, 76
16, 142019, Note_on_c, 11, 77, 0
16, 142020, Note_on_c, 11, 76, 76
16, 142071, Note_on_c, 11, 76, 0
16, 142080, Note_on_c, 11, 72, 76
16, 142169, Note_on_c, 11, 72, 0
16, 142200, Note_on_c, 11, 76, 76
16, 142439, Note_on_c, 11, 76, 0
16, 142440, Note_on_c, 11, 74, 76
16, 142559, Note_on_c, 11, 74, 0
16, 142678, Control_c, 11, 11, 96
16, 142680, Note_on_c, 11, 67, 60
16, 142739, Note_on_c, 11, 67, 0
16, 142740, Note_on_c, 11, 66, 60
16, 142799, Note_on_c, 11, 66, 0
16, 142800, Note_on_c, 11, 67, 60
16, 142859, Note_on_c, 11, 67, 0
16, 142860, Note_on_c, 11, 66, 60
16, 142919, Note_on_c, 11, 66, 0
16, 142920, Note_on_c, 11, 67, 60
16, 142979, Note_on_c, 11, 67, 0
16, 142980, Note_on_c, 11, 66, 60
16, 143039, Note_on_c, 11, 66, 0
16, 143040, Note_on_c, 11, 67, 60
16, 143099, Note_on_c, 11, 67, 0
16, 143100, Note_on_c, 11, 66, 60
16, 143151, Note_on_c, 11, 66, 0
16, 143160, Note_on_c, 11, 67, 60
16, 143219, Note_on_c, 11, 67, 0
16, 143220, Note_on_c, 11, 66, 60
16, 143279, Note_on_c, 11, 66, 0
16, 143280, Note_on_c, 11, 67, 60
16, 143339, Note_on_c, 11, 67, 0
16, 143340, Note_on_c, 11, 66, 60
16, 143399, Note_on_c, 11, 66, 0
16, 143400, Note_on_c, 11, 67, 60
16, 143459, Note_on_c, 11, 67, 0
16, 143460, Note_on_c, 11, 66, 60
16, 143519, Note_on_c, 11, 66, 0
16, 143520, Note_on_c, 11, 67, 60
16, 143579, Note_on_c, 11, 67, 0
16, 143580, Note_on_c, 11, 66, 60
16, 143631, Note_on_c, 11, 66, 0
16, 143640, Note_on_c, 11, 67, 60
16, 143699, Note_on_c, 11, 67, 0
16, 143700, Note_on_c, 11, 66, 60
16, 143759, Note_on_c, 11, 66, 0
16, 143760, Note_on_c, 11, 67, 60
16, 143819, Note_on_c, 11, 67, 0
16, 143820, Note_on_c, 11, 66, 60
16, 143879, Note_on_c, 11, 66, 0
16, 143880, Note_on_c, 11, 67, 60
16, 143939, Note_on_c, 11, 67, 0
16, 143940, Note_on_c, 11, 66, 60
16, 143999, Note_on_c, 11, 66, 0
16, 144000, Note_on_c, 11, 67, 60
16, 144059, Note_on_c, 11, 67, 0
16, 144060, Note_on_c, 11, 66, 60
16, 144111, Note_on_c, 11, 66, 0
16, 144118, Control_c, 11, 11, 112
16, 144120, Note_on_c, 11, 67, 52
16, 144179, Note_on_c, 11, 67, 0
16, 144180, Note_on_c, 11, 71, 52
16, 144239, Note_on_c, 11, 71, 0
16, 144240, Note_on_c, 11, 72, 52
16, 144299, Note_on_c, 11, 72, 0
16, 144300, Note_on_c, 11, 71, 52
16, 144359, Note_on_c, 11, 71, 0
16, 144360, Note_on_c, 11, 72, 52
16, 144419, Note_on_c, 11, 72, 0
16, 144420, Note_on_c, 11, 71, 52
16, 144479, Note_on_c, 11, 71, 0
16, 144480, Note_on_c, 11, 72, 52
16, 144539, Note_on_c, 11, 72, 0
16, 144540, Note_on_c, 11, 71, 52
16, 144591, Note_on_c, 11, 71, 0
16, 144600, Note_on_c, 11, 72, 52
16, 144659, Note_on_c, 11, 72, 0
16, 144660, Note_on_c, 11, 71, 52
16, 144719, Note_on_c, 11, 71, 0
16, 144720, Note_on_c, 11, 72, 52
16, 144779, Note_on_c, 11, 72, 0
16, 144780, Note_on_c, 11, 71, 52
16, 144839, Note_on_c, 11, 71, 0
16, 144840, Note_on_c, 11, 72, 52
16, 144899, Note_on_c, 11, 72, 0
16, 144900, Note_on_c, 11, 71, 52
16, 144959, Note_on_c, 11, 71, 0
16, 144960, Note_on_c, 11, 72, 52
16, 145019, Note_on_c, 11, 72, 0
16, 145020, Note_on_c, 11, 71, 52
16, 145071, Note_on_c, 11, 71, 0
16, 145080, Note_on_c, 11, 72, 52
16, 145139, Note_on_c, 11, 72, 0
16, 145140, Note_on_c, 11, 71, 52
16, 145199, Note_on_c, 11, 71, 0
16, 145200, Note_on_c, 11, 72, 52
16, 145259, Note_on_c, 11, 72, 0
16, 145260, Note_on_c, 11, 71, 52
16, 145319, Note_on_c, 11, 71, 0
16, 145320, Note_on_c, 11, 72, 52
16, 145379, Note_on_c, 11, 72, 0
16, 145380, Note_on_c, 11, 71, 52
16, 145439, Note_on_c, 11, 71, 0
16, 145440, Note_on_c, 11, 72, 52
16, 145499, Note_on_c, 11, 72, 0
16, 145500, Note_on_c, 11, 71, 52
16, 145551, Note_on_c, 11, 71, 0
16, 145560, Note_on_c, 11, 72, 52
16, 145619, Note_on_c, 11, 72, 0
16, 145620, Note_on_c, 11, 71, 52
16, 145679, Note_on_c, 11, 71, 0
16, 145680, Note_on_c, 11, 72, 52
16, 145739, Note_on_c, 11, 72, 0
16, 145740, Note_on_c, 11, 71, 52
16, 145799, Note_on_c, 11, 71, 0
16, 145800, Note_on_c, 11, 72, 52
16, 145859, Note_on_c, 11, 72, 0
16, 145860, Note_on_c, 11, 71, 52
16, 145919, Note_on_c, 11, 71, 0
16, 145920, Note_on_c, 11, 72, 52
16, 145979, Note_on_c, 11, 72, 0
16, 145980, Note_on_c, 11, 71, 52
16, 146031, Note_on_c, 11, 71, 0
16, 146038, Control_c, 11, 11, 127
16, 146040, Note_on_c, 11, 72, 44
16, 146084, Note_on_c, 11, 72, 0
16, 146100, Note_on_c, 11, 59, 44
16, 146159, Note_on_c, 11, 59, 0
16, 146160, Note_on_c, 11, 60, 44
16, 146219, Note_on_c, 11, 60, 0
16, 146220, Note_on_c, 11, 59, 44
16, 146279, Note_on_c, 11, 59, 0
16, 146280, Note_on_c, 11, 60, 44
16, 146339, Note_on_c, 11, 60, 0
16, 146340, Note_on_c, 11, 59, 44
16, 146399, Note_on_c, 11, 59, 0
16, 146400, Note_on_c, 11, 60, 44
16, 146459, Note_on_c, 11, 60, 0
16, 146460, Note_on_c, 11, 59, 44
16, 146511, Note_on_c, 11, 59, 0
16, 146520, Note_on_c, 11, 58, 44
16, 146579, Note_on_c, 11, 58, 0
16, 146580, Note_on_c, 11, 57, 45
16, 146639, Note_on_c, 11, 57, 0
16, 146640, Note_on_c, 11, 58, 46
16, 146699, Note_on_c, 11, 58, 0
16, 146700, Note_on_c, 11, 57, 47
16, 146759, Note_on_c, 11, 57, 0
16, 146760, Note_on_c, 11, 58, 48
16, 146819, Note_on_c, 11, 58, 0
16, 146820, Note_on_c, 11, 57, 49
16, 146879, Note_on_c, 11, 57, 0
16, 146880, Note_on_c, 11, 58, 50
16, 146939, Note_on_c, 11, 58, 0
16, 146940, Note_on_c, 11, 57, 51
16, 146991, Note_on_c, 11, 57, 0
16, 147000, Note_on_c, 11, 58, 52
16, 147059, Note_on_c, 11, 58, 0
16, 147060, Note_on_c, 11, 57, 53
16, 147119, Note_on_c, 11, 57, 0
16, 147120, Note_on_c, 11, 58, 54
16, 147179, Note_on_c, 11, 58, 0
16, 147180, Note_on_c, 11, 57, 55
16, 147239, Note_on_c, 11, 57, 0
16, 147240, Note_on_c, 11, 58, 56
16, 147299, Note_on_c, 11, 58, 0
16, 147300, Note_on_c, 11, 57, 57
16, 147359, Note_on_c, 11, 57, 0
16, 147360, Note_on_c, 11, 58, 58
16, 147419, Note_on_c, 11, 58, 0
16, 147420, Note_on_c, 11, 57, 59
16, 147471, Note_on_c, 11, 57, 0
16, 147480, Note_on_c, 11, 58, 60
16, 147539, Note_on_c, 11, 58, 0
16, 147540, Note_on_c, 11, 57, 58
16, 147599, Note_on_c, 11, 57, 0
16, 147600, Note_on_c, 11, 58, 56
16, 147659, Note_on_c, 11, 58, 0
16, 147660, Note_on_c, 11, 57, 54
16, 147719, Note_on_c, 11, 57, 0
16, 147720, Note_on_c, 11, 58, 52
16, 147779, Note_on_c, 11, 58, 0
16, 147780, Note_on_c, 11, 57, 50
16, 147839, Note_on_c, 11, 57, 0
16, 147840, Note_on_c, 11, 58, 48
16, 147899, Note_on_c, 11, 58, 0
16, 147900, Note_on_c, 11, 57, 46
16, 147951, Note_on_c, 11, 57, 0
16, 147960, Note_on_c, 11, 58, 44
16, 148011, Note_on_c, 11, 58, 0
16, 148020, Note_on_c, 11, 75, 44
16, 148071, Note_on_c, 11, 75, 0
16, 148080, Note_on_c, 11, 77, 44
16, 148131, Note_on_c, 11, 77, 0
16, 148140, Note_on_c, 11, 75, 44
16, 148191, Note_on_c, 11, 75, 0
16, 148200, Note_on_c, 11, 74, 44
16, 148251, Note_on_c, 11, 74, 0
16, 148260, Note_on_c, 11, 75, 44
16, 148311, Note_on_c, 11, 75, 0
16, 148320, Note_on_c, 11, 77, 44
16, 148371, Note_on_c, 11, 77, 0
16, 148380, Note_on_c, 11, 79, 44
16, 148431, Note_on_c, 11, 79, 0
16, 148440, Note_on_c, 11, 80, 44
16, 148491, Note_on_c, 11, 80, 0
16, 148500, Note_on_c, 11, 82, 44
16, 148551, Note_on_c, 11, 82, 0
16, 148560, Note_on_c, 11, 84, 44
16, 148611, Note_on_c, 11, 84, 0
16, 148620, Note_on_c, 11, 82, 44
16, 148671, Note_on_c, 11, 82, 0
16, 148680, Note_on_c, 11, 80, 44
16, 148731, Note_on_c, 11, 80, 0
16, 148740, Note_on_c, 11, 79, 44
16, 148791, Note_on_c, 11, 79, 0
16, 148800, Note_on_c, 11, 77, 44
16, 148851, Note_on_c, 11, 77, 0
16, 148860, Note_on_c, 11, 75, 44
16, 148911, Note_on_c, 11, 75, 0
16, 148920, Note_on_c, 11, 74, 44
16, 148971, Note_on_c, 11, 74, 0
16, 148980, Note_on_c, 11, 75, 44
16, 149031, Note_on_c, 11, 75, 0
16, 149040, Note_on_c, 11, 77, 44
16, 149091, Note_on_c, 11, 77, 0
16, 149100, Note_on_c, 11, 75, 44
16, 149151, Note_on_c, 11, 75, 0
16, 149160, Note_on_c, 11, 74, 44
16, 149211, Note_on_c, 11, 74, 0
16, 149220, Note_on_c, 11, 72, 44
16, 149271, Note_on_c, 11, 72, 0
16, 149280, Note_on_c, 11, 70, 44
16, 149331, Note_on_c, 11, 70, 0
16, 149340, Note_on_c, 11, 68, 44
16, 149391, Note_on_c, 11, 68, 0
16, 149400, Note_on_c, 11, 67, 44
16, 149451, Note_on_c, 11, 67, 0
16, 149460, Note_on_c, 11, 70, 44
16, 149511, Note_on_c, 11, 70, 0
16, 149520, Note_on_c, 11, 75, 44
16, 149571, Note_on_c, 11, 75, 0
16, 149580, Note_on_c, 11, 74, 44
16, 149631, Note_on_c, 11, 74, 0
16, 149640, Note_on_c, 11, 72, 44
16, 149691, Note_on_c, 11, 72, 0
16, 149700, Note_on_c, 11, 70, 44
16, 149751, Note_on_c, 11, 70, 0
16, 149760, Note_on_c, 11, 68, 44
16, 149811, Note_on_c, 11, 68, 0
16, 149820, Note_on_c, 11, 67, 44
16, 149871, Note_on_c, 11, 67, 0
16, 149880, Note_on_c, 11, 65, 44
16, 149931, Note_on_c, 11, 65, 0
16, 149940, Note_on_c, 11, 68, 44
16, 149991, Note_on_c, 11, 68, 0
16, 150000, Note_on_c, 11, 68, 44
16, 150051, Note_on_c, 11, 68, 0
16, 150060, Note_on_c, 11, 68, 44
16, 150111, Note_on_c, 11, 68, 0
16, 150120, Note_on_c, 11, 68, 44
16, 150171, Note_on_c, 11, 68, 0
16, 150180, Note_on_c, 11, 68, 44
16, 150231, Note_on_c, 11, 68, 0
16, 150240, Note_on_c, 11, 70, 44
16, 150291, Note_on_c, 11, 70, 0
16, 150300, Note_on_c, 11, 68, 44
16, 150351, Note_on_c, 11, 68, 0
16, 150360, Note_on_c, 11, 67, 44
16, 150411, Note_on_c, 11, 67, 0
16, 150420, Note_on_c, 11, 70, 44
16, 150471, Note_on_c, 11, 70, 0
16, 150480, Note_on_c, 11, 72, 44
16, 150531, Note_on_c, 11, 72, 0
16, 150540, Note_on_c, 11, 70, 44
16, 150591, Note_on_c, 11, 70, 0
16, 150600, Note_on_c, 11, 68, 44
16, 150651, Note_on_c, 11, 68, 0
16, 150660, Note_on_c, 11, 67, 44
16, 150711, Note_on_c, 11, 67, 0
16, 150720, Note_on_c, 11, 65, 44
16, 150771, Note_on_c, 11, 65, 0
16, 150780, Note_on_c, 11, 63, 44
16, 150831, Note_on_c, 11, 63, 0
16, 150840, Note_on_c, 11, 62, 44
16, 150891, Note_on_c, 11, 62, 0
16, 150900, Note_on_c, 11, 63, 44
16, 150951, Note_on_c, 11, 63, 0
16, 150960, Note_on_c, 11, 65, 44
16, 151011, Note_on_c, 11, 65, 0
16, 151020, Note_on_c, 11, 63, 44
16, 151071, Note_on_c, 11, 63, 0
16, 151080, Note_on_c, 11, 62, 44
16, 151131, Note_on_c, 11, 62, 0
16, 151140, Note_on_c, 11, 60, 44
16, 151191, Note_on_c, 11, 60, 0
16, 151200, Note_on_c, 11, 58, 44
16, 151251, Note_on_c, 11, 58, 0
16, 151260, Note_on_c, 11, 60, 44
16, 151311, Note_on_c, 11, 60, 0
16, 151320, Note_on_c, 11, 61, 44
16, 151371, Note_on_c, 11, 61, 0
16, 151380, Note_on_c, 11, 60, 44
16, 151431, Note_on_c, 11, 60, 0
16, 151440, Note_on_c, 11, 58, 44
16, 151491, Note_on_c, 11, 58, 0
16, 151500, Note_on_c, 11, 60, 44
16, 151551, Note_on_c, 11, 60, 0
16, 151560, Note_on_c, 11, 61, 44
16, 151611, Note_on_c, 11, 61, 0
16, 151620, Note_on_c, 11, 60, 44
16, 151671, Note_on_c, 11, 60, 0
16, 151680, Note_on_c, 11, 58, 44
16, 151731, Note_on_c, 11, 58, 0
16, 151740, Note_on_c, 11, 56, 44
16, 151791, Note_on_c, 11, 56, 0
16, 151800, Note_on_c, 11, 55, 44
16, 151904, Note_on_c, 11, 55, 0
16, 151920, Note_on_c, 11, 67, 44
16, 152091, Note_on_c, 11, 67, 0
16, 152100, Note_on_c, 11, 68, 44
16, 152151, Note_on_c, 11, 68, 0
16, 152160, Note_on_c, 11, 70, 44
16, 152211, Note_on_c, 11, 70, 0
16, 152220, Note_on_c, 11, 72, 44
16, 152271, Note_on_c, 11, 72, 0
16, 152280, Note_on_c, 11, 73, 44
16, 152369, Note_on_c, 11, 73, 0
16, 152400, Note_on_c, 11, 73, 44
16, 152489, Note_on_c, 11, 73, 0
16, 152520, Note_on_c, 11, 70, 44
16, 152609, Note_on_c, 11, 70, 0
16, 152640, Note_on_c, 11, 75, 44
16, 152864, Note_on_c, 11, 75, 0
16, 152880, Note_on_c, 11, 72, 44
16, 152999, Note_on_c, 11, 72, 0
16, 153000, Note_on_c, 11, 73, 44
16, 153344, Note_on_c, 11, 73, 0
16, 153360, Note_on_c, 11, 70, 44
16, 153479, Note_on_c, 11, 70, 0
16, 153480, Note_on_c, 11, 75, 44
16, 153824, Note_on_c, 11, 75, 0
16, 153840, Note_on_c, 11, 72, 44
16, 153959, Note_on_c, 11, 72, 0
16, 153960, Note_on_c, 11, 73, 44
16, 154251, Note_on_c, 11, 73, 0
16, 154260, Note_on_c, 11, 72, 44
16, 154311, Note_on_c, 11, 72, 0
16, 154320, Note_on_c, 11, 70, 44
16, 154371, Note_on_c, 11, 70, 0
16, 154380, Note_on_c, 11, 68, 44
16, 154431, Note_on_c, 11, 68, 0
16, 154440, Note_on_c, 11, 67, 44
16, 154491, Note_on_c, 11, 67, 0
16, 154500, Note_on_c, 11, 68, 44
16, 154551, Note_on_c, 11, 68, 0
16, 154560, Note_on_c, 11, 67, 44
16, 154611, Note_on_c, 11, 67, 0
16, 154620, Note_on_c, 11, 65, 44
16, 154671, Note_on_c, 11, 65, 0
16, 154680, Note_on_c, 11, 64, 44
16, 154799, Note_on_c, 11, 64, 0
16, 157560, Control_c, 11, 11, 64
16, 157800, Note_on_c, 11, 75, 76
16, 157800, Control_c, 11, 11, 64
16, 157873, Control_c, 11, 11, 66
16, 157947, Control_c, 11, 11, 68
16, 157979, Note_on_c, 11, 75, 0
16, 158020, Control_c, 11, 11, 69
16, 158040, Note_on_c, 11, 68, 76
16, 158093, Control_c, 11, 11, 71
16, 158167, Control_c, 11, 11, 73
16, 158219, Note_on_c, 11, 68, 0
16, 158240, Control_c, 11, 11, 75
16, 158280, Note_on_c, 11, 77, 76
16, 158313, Control_c, 11, 11, 76
16, 158387, Control_c, 11, 11, 78
16, 158459, Note_on_c, 11, 77, 0
16, 158460, Control_c, 11, 11, 80
16, 158520, Note_on_c, 11, 65, 76
16, 158533, Control_c, 11, 11, 82
16, 158607, Control_c, 11, 11, 83
16, 158624, Note_on_c, 11, 65, 0
16, 158640, Note_on_c, 11, 80, 76
16, 158680, Control_c, 11, 11, 85
16, 158691, Note_on_c, 11, 80, 0
16, 158700, Note_on_c, 11, 79, 76
16, 158751, Note_on_c, 11, 79, 0
16, 158753, Control_c, 11, 11, 87
16, 158760, Note_on_c, 11, 77, 76
16, 158811, Note_on_c, 11, 77, 0
16, 158820, Note_on_c, 11, 75, 76
16, 158827, Control_c, 11, 11, 89
16, 158871, Note_on_c, 11, 75, 0
16, 158880, Note_on_c, 11, 74, 76
16, 158900, Control_c, 11, 11, 90
16, 158931, Note_on_c, 11, 74, 0
16, 158940, Note_on_c, 11, 72, 76
16, 158973, Control_c, 11, 11, 92
16, 158991, Note_on_c, 11, 72, 0
16, 159000, Note_on_c, 11, 71, 76
16, 159047, Control_c, 11, 11, 94
16, 159051, Note_on_c, 11, 71, 0
16, 159060, Note_on_c, 11, 72, 76
16, 159111, Note_on_c, 11, 72, 0
16, 159120, Note_on_c, 11, 74, 76
16, 159120, Control_c, 11, 11, 96
16, 159171, Note_on_c, 11, 74, 0
16, 159180, Note_on_c, 11, 72, 76
16, 159193, Control_c, 11, 11, 97
16, 159231, Note_on_c, 11, 72, 0
16, 159240, Note_on_c, 11, 71, 76
16, 159267, Control_c, 11, 11, 99
16, 159291, Note_on_c, 11, 71, 0
16, 159300, Note_on_c, 11, 68, 76
16, 159340, Control_c, 11, 11, 101
16, 159351, Note_on_c, 11, 68, 0
16, 159360, Note_on_c, 11, 67, 76
16, 159411, Note_on_c, 11, 67, 0
16, 159413, Control_c, 11, 11, 103
16, 159420, Note_on_c, 11, 65, 76
16, 159471, Note_on_c, 11, 65, 0
16, 159480, Note_on_c, 11, 63, 76
16, 159487, Control_c, 11, 11, 104
16, 159560, Control_c, 11, 11, 106
16, 159584, Note_on_c, 11, 63, 0
16, 159600, Note_on_c, 11, 75, 76
16, 159633, Control_c, 11, 11, 108
16, 159651, Note_on_c, 11, 75, 0
16, 159660, Note_on_c, 11, 74, 76
16, 159707, Control_c, 11, 11, 110
16, 159711, Note_on_c, 11, 74, 0
16, 159720, Note_on_c, 11, 72, 76
16, 159771, Note_on_c, 11, 72, 0
16, 159780, Control_c, 11, 11, 111
16, 159780, Note_on_c, 11, 70, 76
16, 159831, Note_on_c, 11, 70, 0
16, 159840, Note_on_c, 11, 68, 76
16, 159853, Control_c, 11, 11, 113
16, 159891, Note_on_c, 11, 68, 0
16, 159900, Note_on_c, 11, 67, 76
16, 159927, Control_c, 11, 11, 115
16, 159951, Note_on_c, 11, 67, 0
16, 159960, Note_on_c, 11, 65, 76
16, 160000, Control_c, 11, 11, 117
16, 160064, Note_on_c, 11, 65, 0
16, 160073, Control_c, 11, 11, 118
16, 160080, Note_on_c, 11, 80, 76
16, 160147, Control_c, 11, 11, 120
16, 160199, Note_on_c, 11, 80, 0
16, 160220, Control_c, 11, 11, 122
16, 160260, Note_on_c, 11, 62, 76
16, 160293, Control_c, 11, 11, 124
16, 160311, Note_on_c, 11, 62, 0
16, 160320, Note_on_c, 11, 63, 76
16, 160367, Control_c, 11, 11, 127
16, 160371, Note_on_c, 11, 63, 0
16, 160380, Note_on_c, 11, 65, 76
16, 160431, Note_on_c, 11, 65, 0
16, 160440, Note_on_c, 11, 75, 76
16, 160440, Note_on_c, 11, 67, 76
16, 160904, Note_on_c, 11, 75, 0
16, 160904, Note_on_c, 11, 67, 0
16, 160920, Note_on_c, 11, 70, 84
16, 161369, Note_on_c, 11, 70, 0
16, 161400, Note_on_c, 11, 82, 84
16, 161849, Note_on_c, 11, 82, 0
16, 161880, Note_on_c, 11, 75, 76
16, 162224, Note_on_c, 11, 75, 0
16, 162240, Note_on_c, 11, 72, 76
16, 162329, Note_on_c, 11, 72, 0
16, 162360, Note_on_c, 11, 74, 76
16, 162449, Note_on_c, 11, 74, 0
16, 162480, Note_on_c, 11, 75, 76
16, 162569, Note_on_c, 11, 75, 0
16, 162600, Note_on_c, 11, 77, 76
16, 162689, Note_on_c, 11, 77, 0
16, 162720, Note_on_c, 11, 74, 76
16, 162809, Note_on_c, 11, 74, 0
16, 162840, Note_on_c, 11, 75, 76
16, 163184, Note_on_c, 11, 75, 0
16, 163200, Note_on_c, 11, 80, 76
16, 163289, Note_on_c, 11, 80, 0
16, 163320, Note_on_c, 11, 77, 76
16, 163409, Note_on_c, 11, 77, 0
16, 163440, Note_on_c, 11, 79, 76
16, 163529, Note_on_c, 11, 79, 0
16, 163560, Note_on_c, 11, 80, 76
16, 163649, Note_on_c, 11, 80, 0
16, 163680, Note_on_c, 11, 77, 76
16, 163769, Note_on_c, 11, 77, 0
16, 163800, Note_on_c, 11, 79, 76
16, 163889, Note_on_c, 11, 79, 0
16, 163920, Note_on_c, 11, 80, 76
16, 164009, Note_on_c, 11, 80, 0
16, 164040, Note_on_c, 11, 82, 76
16, 164129, Note_on_c, 11, 82, 0
16, 164160, Note_on_c, 11, 80, 76
16, 164249, Note_on_c, 11, 80, 0
16, 164280, Note_on_c, 11, 79, 76
16, 164369, Note_on_c, 11, 79, 0
16, 164400, Note_on_c, 11, 80, 76
16, 164489, Note_on_c, 11, 80, 0
16, 164520, Note_on_c, 11, 82, 76
16, 164609, Note_on_c, 11, 82, 0
16, 164640, Note_on_c, 11, 79, 76
16, 164729, Note_on_c, 11, 79, 0
16, 164760, Note_on_c, 11, 80, 76
16, 164849, Note_on_c, 11, 80, 0
16, 164880, Note_on_c, 11, 82, 76
16, 164969, Note_on_c, 11, 82, 0
16, 165000, Note_on_c, 11, 84, 76
16, 165089, Note_on_c, 11, 84, 0
16, 165120, Note_on_c, 11, 80, 76
16, 165209, Note_on_c, 11, 80, 0
16, 165240, Note_on_c, 11, 82, 76
16, 165329, Note_on_c, 11, 82, 0
16, 165360, Note_on_c, 11, 84, 76
16, 165449, Note_on_c, 11, 84, 0
16, 165480, Note_on_c, 11, 85, 76
16, 165569, Note_on_c, 11, 85, 0
16, 165600, Note_on_c, 11, 82, 76
16, 165689, Note_on_c, 11, 82, 0
16, 165720, Note_on_c, 11, 84, 76
16, 165809, Note_on_c, 11, 84, 0
16, 165840, Note_on_c, 11, 86, 76
16, 165929, Note_on_c, 11, 86, 0
16, 165960, Note_on_c, 11, 87, 76
16, 166049, Note_on_c, 11, 87, 0
16, 166080, Note_on_c, 11, 89, 76
16, 166169, Note_on_c, 11, 89, 0
16, 166200, Note_on_c, 11, 91, 84
16, 166319, Note_on_c, 11, 91, 0
16, 166440, Note_on_c, 11, 75, 92
16, 166889, Note_on_c, 11, 75, 0
16, 166920, Note_on_c, 11, 70, 84
16, 167384, Note_on_c, 11, 70, 0
16, 167400, Note_on_c, 11, 82, 84
16, 167864, Note_on_c, 11, 82, 0
16, 167880, Note_on_c, 11, 82, 84
16, 168344, Note_on_c, 11, 82, 0
16, 168360, Note_on_c, 11, 82, 84
16, 168824, Note_on_c, 11, 82, 0
16, 168840, Note_on_c, 11, 87, 84
16, 169304, Note_on_c, 11, 87, 0
16, 169320, Note_on_c, 11, 86, 84
16, 169784, Note_on_c, 11, 86, 0
16, 169800, Note_on_c, 11, 84, 84
16, 170264, Note_on_c, 11, 84, 0
16, 170280, Note_on_c, 11, 82, 84
16, 170744, Note_on_c, 11, 82, 0
16, 170760, Note_on_c, 11, 80, 84
16, 171224, Note_on_c, 11, 80, 0
16, 171240, Note_on_c, 11, 79, 84
16, 171464, Note_on_c, 11, 79, 0
16, 171480, Note_on_c, 11, 80, 84
16, 171531, Note_on_c, 11, 80, 0
16, 171540, Note_on_c, 11, 80, 84
16, 171591, Note_on_c, 11, 80, 0
16, 171600, Note_on_c, 11, 82, 84
16, 171651, Note_on_c, 11, 82, 0
16, 171660, Note_on_c, 11, 82, 84
16, 171711, Note_on_c, 11, 82, 0
16, 171720, Note_on_c, 11, 82, 84
16, 171771, Note_on_c, 11, 82, 0
16, 171780, Note_on_c, 11, 82, 84
16, 171831, Note_on_c, 11, 82, 0
16, 171840, Note_on_c, 11, 82, 84
16, 171891, Note_on_c, 11, 82, 0
16, 171900, Note_on_c, 11, 82, 84
16, 171951, Note_on_c, 11, 82, 0
16, 171960, Note_on_c, 11, 82, 84
16, 172011, Note_on_c, 11, 82, 0
16, 172020, Note_on_c, 11, 87, 84
16, 172071, Note_on_c, 11, 87, 0
16, 172080, Note_on_c, 11, 87, 84
16, 172131, Note_on_c, 11, 87, 0
16, 172140, Note_on_c, 11, 87, 84
16, 172191, Note_on_c, 11, 87, 0
16, 172200, Note_on_c, 11, 87, 84
16, 172251, Note_on_c, 11, 87, 0
16, 172260, Note_on_c, 11, 87, 84
16, 172311, Note_on_c, 11, 87, 0
16, 172320, Note_on_c, 11, 87, 84
16, 172371, Note_on_c, 11, 87, 0
16, 172380, Note_on_c, 11, 87, 84
16, 172431, Note_on_c, 11, 87, 0
16, 172440, Note_on_c, 11, 86, 84
16, 172619, Note_on_c, 11, 86, 0
16, 173160, Note_on_c, 11, 79, 84
16, 173339, Note_on_c, 11, 79, 0
16, 173400, Note_on_c, 11, 72, 84
16, 173579, Note_on_c, 11, 72, 0
16, 173640, Note_on_c, 11, 84, 84
16, 173819, Note_on_c, 11, 84, 0
16, 174120, Note_on_c, 11, 77, 84
16, 174299, Note_on_c, 11, 77, 0
16, 174360, Note_on_c, 11, 70, 84
16, 174449, Note_on_c, 11, 70, 0
16, 174480, Note_on_c, 11, 82, 84
16, 174569, Note_on_c, 11, 82, 0
16, 174720, Note_on_c, 11, 75, 84
16, 174809, Note_on_c, 11, 75, 0
16, 174840, Note_on_c, 11, 68, 84
16, 174929, Note_on_c, 11, 68, 0
16, 174960, Note_on_c, 11, 80, 84
16, 175049, Note_on_c, 11, 80, 0
16, 175200, Note_on_c, 11, 74, 84
16, 175289, Note_on_c, 11, 74, 0
16, 175320, Note_on_c, 11, 67, 84
16, 175409, Note_on_c, 11, 67, 0
16, 175440, Note_on_c, 11, 79, 84
16, 175529, Note_on_c, 11, 79, 0
16, 175560, Note_on_c, 11, 72, 84
16, 175649, Note_on_c, 11, 72, 0
16, 175680, Note_on_c, 11, 65, 84
16, 175769, Note_on_c, 11, 65, 0
16, 175800, Note_on_c, 11, 75, 84
16, 175889, Note_on_c, 11, 75, 0
16, 175920, Note_on_c, 11, 69, 84
16, 176009, Note_on_c, 11, 69, 0
16, 176040, Note_on_c, 11, 62, 84
16, 176129, Note_on_c, 11, 62, 0
16, 176160, Note_on_c, 11, 74, 84
16, 176249, Note_on_c, 11, 74, 0
16, 176280, Note_on_c, 11, 60, 84
16, 176369, Note_on_c, 11, 60, 0
16, 176400, Note_on_c, 11, 72, 84
16, 176489, Note_on_c, 11, 72, 0
16, 176520, Note_on_c, 11, 65, 84
16, 176609, Note_on_c, 11, 65, 0
16, 176640, Note_on_c, 11, 58, 84
16, 176729, Note_on_c, 11, 58, 0
16, 176760, Note_on_c, 11, 68, 84
16, 176864, Note_on_c, 11, 68, 0
16, 176880, Note_on_c, 11, 63, 84
16, 176984, Note_on_c, 11, 63, 0
16, 177000, Note_on_c, 11, 56, 84
16, 177104, Note_on_c, 11, 56, 0
16, 177120, Note_on_c, 11, 68, 84
16, 177224, Note_on_c, 11, 68, 0
16, 177240, Note_on_c, 11, 56, 84
16, 177344, Note_on_c, 11, 56, 0
16, 177360, Note_on_c, 11, 68, 84
16, 177464, Note_on_c, 11, 68, 0
16, 177480, Note_on_c, 11, 65, 84
16, 177584, Note_on_c, 11, 65, 0
16, 177600, Note_on_c, 11, 62, 84
16, 177704, Note_on_c, 11, 62, 0
16, 177720, Note_on_c, 11, 74, 84
16, 177824, Note_on_c, 11, 74, 0
16, 177840, Note_on_c, 11, 68, 84
16, 177944, Note_on_c, 11, 68, 0
16, 177960, Note_on_c, 11, 65, 84
16, 178064, Note_on_c, 11, 65, 0
16, 178080, Note_on_c, 11, 77, 84
16, 178184, Note_on_c, 11, 77, 0
16, 178200, Note_on_c, 11, 74, 84
16, 178304, Note_on_c, 11, 74, 0
16, 178320, Note_on_c, 11, 80, 84
16, 178424, Note_on_c, 11, 80, 0
16, 178440, Note_on_c, 11, 77, 84
16, 178544, Note_on_c, 11, 77, 0
16, 178560, Note_on_c, 11, 86, 84
16, 178664, Note_on_c, 11, 86, 0
16, 178680, Note_on_c, 11, 80, 84
16, 178784, Note_on_c, 11, 80, 0
16, 178800, Note_on_c, 11, 89, 84
16, 178904, Note_on_c, 11, 89, 0
16, 178920, Note_on_c, 11, 89, 84
16, 179024, Note_on_c, 11, 89, 0
16, 179040, Note_on_c, 11, 89, 84
16, 179144, Note_on_c, 11, 89, 0
16, 179160, Note_on_c, 11, 89, 84
16, 179211, Note_on_c, 11, 89, 0
16, 179220, Note_on_c, 11, 89, 84
16, 179271, Note_on_c, 11, 89, 0
16, 179280, Note_on_c, 11, 89, 84
16, 179331, Note_on_c, 11, 89, 0
16, 179340, Note_on_c, 11, 89, 84
16, 179391, Note_on_c, 11, 89, 0
16, 179400, Note_on_c, 11, 89, 84
16, 179451, Note_on_c, 11, 89, 0
16, 179460, Note_on_c, 11, 89, 84
16, 179511, Note_on_c, 11, 89, 0
16, 179520, Note_on_c, 11, 89, 84
16, 179571, Note_on_c, 11, 89, 0
16, 179580, Note_on_c, 11, 89, 84
16, 179631, Note_on_c, 11, 89, 0
16, 179640, Note_on_c, 11, 89, 84
16, 179691, Note_on_c, 11, 89, 0
16, 179700, Note_on_c, 11, 89, 84
16, 179751, Note_on_c, 11, 89, 0
16, 179760, Note_on_c, 11, 89, 84
16, 179811, Note_on_c, 11, 89, 0
16, 179820, Note_on_c, 11, 89, 84
16, 179871, Note_on_c, 11, 89, 0
16, 179880, Note_on_c, 11, 89, 84
16, 179931, Note_on_c, 11, 89, 0
16, 179940, Note_on_c, 11, 89, 84
16, 179991, Note_on_c, 11, 89, 0
16, 180000, Note_on_c, 11, 89, 84
16, 180051, Note_on_c, 11, 89, 0
16, 180060, Note_on_c, 11, 89, 84
16, 180111, Note_on_c, 11, 89, 0
16, 180120, Note_on_c, 11, 89, 84
16, 180224, Note_on_c, 11, 89, 0
16, 180240, Note_on_c, 11, 80, 84
16, 180464, Note_on_c, 11, 80, 0
16, 180480, Note_on_c, 11, 82, 84
16, 180704, Note_on_c, 11, 82, 0
16, 180720, Note_on_c, 11, 83, 84
16, 180944, Note_on_c, 11, 83, 0
16, 180960, Note_on_c, 11, 84, 92
16, 181079, Note_on_c, 11, 84, 0
16, 181080, Note_on_c, 11, 84, 84
16, 182024, Note_on_c, 11, 84, 0
16, 182040, Note_on_c, 11, 74, 92
16, 182369, Note_on_c, 11, 74, 0
16, 186240, Note_on_c, 11, 63, 52
16, 186351, Note_on_c, 11, 63, 0
16, 186360, Note_on_c, 11, 67, 52
16, 186591, Note_on_c, 11, 67, 0
16, 186600, Note_on_c, 11, 63, 52
16, 186809, Note_on_c, 11, 63, 0
16, 186810, Note_on_c, 11, 62, 52
16, 186835, Note_on_c, 11, 62, 0
16, 186840, Note_on_c, 11, 62, 52
16, 187199, Note_on_c, 11, 62, 0
16, 187200, Note_on_c, 11, 65, 52
16, 187311, Note_on_c, 11, 65, 0
16, 187320, Note_on_c, 11, 68, 52
16, 187559, Note_on_c, 11, 68, 0
16, 187560, Note_on_c, 11, 65, 68
16, 187769, Note_on_c, 11, 65, 0
16, 187770, Note_on_c, 11, 63, 52
16, 187795, Note_on_c, 11, 63, 0
16, 187800, Note_on_c, 11, 63, 52
16, 188159, Note_on_c, 11, 63, 0
16, 188160, Note_on_c, 11, 67, 52
16, 188271, Note_on_c, 11, 67, 0
16, 188276, Control_c, 11, 11, 96
16, 188280, Control_c, 11, 11, 96
16, 188280, Note_on_c, 11, 70, 68
16, 188300, Control_c, 11, 11, 97
16, 188320, Control_c, 11, 11, 99
16, 188340, Control_c, 11, 11, 100
16, 188360, Control_c, 11, 11, 101
16, 188380, Control_c, 11, 11, 102
16, 188400, Control_c, 11, 11, 104
16, 188420, Control_c, 11, 11, 105
16, 188440, Control_c, 11, 11, 106
16, 188460, Control_c, 11, 11, 108
16, 188480, Control_c, 11, 11, 109
16, 188500, Control_c, 11, 11, 110
16, 188511, Note_on_c, 11, 70, 0
16, 188520, Note_on_c, 11, 70, 68
16, 188520, Control_c, 11, 11, 112
16, 188540, Control_c, 11, 11, 113
16, 188560, Control_c, 11, 11, 114
16, 188580, Control_c, 11, 11, 115
16, 188600, Control_c, 11, 11, 117
16, 188620, Control_c, 11, 11, 118
16, 188640, Control_c, 11, 11, 119
16, 188660, Control_c, 11, 11, 121
16, 188680, Control_c, 11, 11, 122
16, 188700, Control_c, 11, 11, 123
16, 188720, Control_c, 11, 11, 124
16, 188740, Control_c, 11, 11, 127
16, 188751, Note_on_c, 11, 70, 0
16, 188760, Note_on_c, 11, 70, 76
16, 188790, Control_c, 11, 11, 112
16, 188809, Control_c, 11, 11, 111
16, 188828, Control_c, 11, 11, 109
16, 188846, Control_c, 11, 11, 108
16, 188865, Control_c, 11, 11, 107
16, 188884, Control_c, 11, 11, 105
16, 188903, Control_c, 11, 11, 104
16, 188921, Control_c, 11, 11, 103
16, 188940, Control_c, 11, 11, 101
16, 188959, Control_c, 11, 11, 100
16, 188978, Control_c, 11, 11, 99
16, 188996, Control_c, 11, 11, 97
16, 189015, Control_c, 11, 11, 96
16, 189034, Control_c, 11, 11, 95
16, 189053, Control_c, 11, 11, 93
16, 189071, Control_c, 11, 11, 92
16, 189090, Control_c, 11, 11, 91
16, 189104, Note_on_c, 11, 70, 0
16, 189109, Control_c, 11, 11, 89
16, 189120, Note_on_c, 11, 70, 76
16, 189128, Control_c, 11, 11, 88
16, 189146, Control_c, 11, 11, 87
16, 189165, Control_c, 11, 11, 85
16, 189184, Control_c, 11, 11, 84
16, 189203, Control_c, 11, 11, 83
16, 189221, Control_c, 11, 11, 80
16, 189239, Note_on_c, 11, 70, 0
16, 189240, Note_on_c, 11, 68, 76
16, 189351, Note_on_c, 11, 68, 0
16, 189360, Note_on_c, 11, 68, 76
16, 189479, Note_on_c, 11, 68, 0
16, 189480, Note_on_c, 11, 67, 76
16, 189591, Note_on_c, 11, 67, 0
16, 189600, Note_on_c, 11, 67, 76
16, 189720, Control_c, 11, 11, 80
16, 189730, Control_c, 11, 11, 83
16, 189740, Control_c, 11, 11, 85
16, 189750, Control_c, 11, 11, 88
16, 189760, Control_c, 11, 11, 91
16, 189770, Control_c, 11, 11, 93
16, 189780, Control_c, 11, 11, 96
16, 189790, Control_c, 11, 11, 99
16, 189800, Control_c, 11, 11, 101
16, 189810, Control_c, 11, 11, 104
16, 189820, Control_c, 11, 11, 107
16, 189830, Control_c, 11, 11, 109
16, 189840, Control_c, 11, 11, 112
16, 189850, Control_c, 11, 11, 109
16, 189860, Control_c, 11, 11, 107
16, 189870, Control_c, 11, 11, 104
16, 189880, Control_c, 11, 11, 101
16, 189890, Control_c, 11, 11, 99
16, 189900, Control_c, 11, 11, 96
16, 189910, Control_c, 11, 11, 93
16, 189920, Control_c, 11, 11, 91
16, 189930, Control_c, 11, 11, 88
16, 189940, Control_c, 11, 11, 85
16, 189950, Control_c, 11, 11, 80
16, 189959, Note_on_c, 11, 67, 0
16, 189960, Note_on_c, 11, 65, 76
16, 190079, Note_on_c, 11, 65, 0
16, 190125, Control_c, 11, 11, 96
16, 190140, Note_on_c, 11, 58, 68
16, 190184, Note_on_c, 11, 58, 0
16, 190200, Note_on_c, 11, 58, 68
16, 190259, Note_on_c, 11, 58, 0
16, 190260, Note_on_c, 11, 68, 68
16, 190319, Note_on_c, 11, 68, 0
16, 190380, Note_on_c, 11, 67, 68
16, 190424, Note_on_c, 11, 67, 0
16, 190440, Note_on_c, 11, 67, 68
16, 190499, Note_on_c, 11, 67, 0
16, 190500, Note_on_c, 11, 65, 68
16, 190559, Note_on_c, 11, 65, 0
16, 190605, Control_c, 11, 11, 112
16, 190620, Note_on_c, 11, 63, 60
16, 190664, Note_on_c, 11, 63, 0
16, 190680, Note_on_c, 11, 63, 60
16, 190799, Note_on_c, 11, 63, 0
16, 190800, Note_on_c, 11, 62, 60
16, 190855, Note_on_c, 11, 62, 0
16, 190860, Note_on_c, 11, 63, 60
16, 190904, Note_on_c, 11, 63, 0
16, 190920, Note_on_c, 11, 65, 60
16, 190964, Note_on_c, 11, 65, 0
16, 190980, Note_on_c, 11, 67, 60
16, 191024, Note_on_c, 11, 67, 0
16, 191040, Note_on_c, 11, 68, 60
16, 191084, Note_on_c, 11, 68, 0
16, 191100, Note_on_c, 11, 70, 60
16, 191144, Note_on_c, 11, 70, 0
16, 191160, Note_on_c, 11, 71, 60
16, 191219, Note_on_c, 11, 71, 0
16, 191220, Note_on_c, 11, 72, 60
16, 191279, Note_on_c, 11, 72, 0
16, 191340, Note_on_c, 11, 70, 60
16, 191384, Note_on_c, 11, 70, 0
16, 191400, Note_on_c, 11, 70, 60
16, 191459, Note_on_c, 11, 70, 0
16, 191460, Note_on_c, 11, 68, 60
16, 191519, Note_on_c, 11, 68, 0
16, 191565, Control_c, 11, 11, 127
16, 191580, Note_on_c, 11, 67, 52
16, 191624, Note_on_c, 11, 67, 0
16, 191640, Note_on_c, 11, 67, 52
16, 191759, Note_on_c, 11, 67, 0
16, 191760, Note_on_c, 11, 65, 52
16, 191815, Note_on_c, 11, 65, 0
16, 191820, Note_on_c, 11, 64, 52
16, 191864, Note_on_c, 11, 64, 0
16, 191880, Note_on_c, 11, 65, 52
16, 191924, Note_on_c, 11, 65, 0
16, 191940, Note_on_c, 11, 66, 52
16, 191984, Note_on_c, 11, 66, 0
16, 192000, Note_on_c, 11, 67, 52
16, 192044, Note_on_c, 11, 67, 0
16, 192060, Note_on_c, 11, 68, 52
16, 192104, Note_on_c, 11, 68, 0
16, 192112, Control_c, 11, 11, 96
16, 192120, Note_on_c, 11, 69, 68
16, 192120, Control_c, 11, 11, 96
16, 192160, Control_c, 11, 11, 97
16, 192200, Control_c, 11, 11, 99
16, 192240, Control_c, 11, 11, 100
16, 192280, Control_c, 11, 11, 101
16, 192320, Control_c, 11, 11, 102
16, 192359, Note_on_c, 11, 69, 0
16, 192360, Note_on_c, 11, 70, 68
16, 192360, Control_c, 11, 11, 104
16, 192400, Control_c, 11, 11, 105
16, 192440, Control_c, 11, 11, 106
16, 192479, Note_on_c, 11, 70, 0
16, 192480, Control_c, 11, 11, 108
16, 192520, Control_c, 11, 11, 109
16, 192540, Note_on_c, 11, 70, 68
16, 192560, Control_c, 11, 11, 110
16, 192599, Note_on_c, 11, 70, 0
16, 192600, Control_c, 11, 11, 112
16, 192600, Note_on_c, 11, 71, 68
16, 192640, Control_c, 11, 11, 113
16, 192680, Control_c, 11, 11, 114
16, 192720, Control_c, 11, 11, 115
16, 192760, Control_c, 11, 11, 117
16, 192800, Control_c, 11, 11, 118
16, 192839, Note_on_c, 11, 71, 0
16, 192840, Note_on_c, 11, 72, 68
16, 192840, Control_c, 11, 11, 119
16, 192880, Control_c, 11, 11, 121
16, 192920, Control_c, 11, 11, 122
16, 192959, Note_on_c, 11, 72, 0
16, 192960, Control_c, 11, 11, 123
16, 193000, Control_c, 11, 11, 124
16, 193020, Note_on_c, 11, 72, 68
16, 193040, Control_c, 11, 11, 127
16, 193075, Note_on_c, 11, 72, 0
16, 193080, Control_c, 11, 11, 96
16, 193080, Note_on_c, 11, 67, 68
16, 193090, Control_c, 11, 11, 97
16, 193100, Control_c, 11, 11, 99
16, 193110, Control_c, 11, 11, 100
16, 193120, Control_c, 11, 11, 101
16, 193130, Control_c, 11, 11, 102
16, 193140, Control_c, 11, 11, 104
16, 193150, Control_c, 11, 11, 105
16, 193160, Control_c, 11, 11, 106
16, 193170, Control_c, 11, 11, 108
16, 193180, Control_c, 11, 11, 109
16, 193190, Control_c, 11, 11, 110
16, 193200, Control_c, 11, 11, 112
16, 193210, Control_c, 11, 11, 113
16, 193220, Control_c, 11, 11, 114
16, 193230, Control_c, 11, 11, 115
16, 193240, Control_c, 11, 11, 117
16, 193250, Control_c, 11, 11, 118
16, 193260, Control_c, 11, 11, 119
16, 193270, Control_c, 11, 11, 121
16, 193280, Control_c, 11, 11, 122
16, 193290, Control_c, 11, 11, 123
16, 193300, Control_c, 11, 11, 124
16, 193310, Control_c, 11, 11, 126
16, 193319, Note_on_c, 11, 67, 0
16, 193320, Note_on_c, 11, 70, 68
16, 193320, Control_c, 11, 11, 127
16, 193330, Control_c, 11, 11, 126
16, 193340, Control_c, 11, 11, 124
16, 193350, Control_c, 11, 11, 123
16, 193360, Control_c, 11, 11, 122
16, 193370, Control_c, 11, 11, 121
16, 193380, Control_c, 11, 11, 119
16, 193390, Control_c, 11, 11, 118
16, 193400, Control_c, 11, 11, 117
16, 193410, Control_c, 11, 11, 115
16, 193420, Control_c, 11, 11, 114
16, 193430, Control_c, 11, 11, 113
16, 193440, Control_c, 11, 11, 112
16, 193450, Control_c, 11, 11, 110
16, 193460, Control_c, 11, 11, 109
16, 193470, Control_c, 11, 11, 108
16, 193480, Control_c, 11, 11, 106
16, 193490, Control_c, 11, 11, 105
16, 193499, Note_on_c, 11, 70, 0
16, 193500, Control_c, 11, 11, 104
16, 193500, Note_on_c, 11, 68, 68
16, 193510, Control_c, 11, 11, 102
16, 193520, Control_c, 11, 11, 101
16, 193530, Control_c, 11, 11, 100
16, 193540, Control_c, 11, 11, 99
16, 193550, Control_c, 11, 11, 96
16, 193555, Note_on_c, 11, 68, 0
16, 193560, Note_on_c, 11, 67, 68
16, 193560, Control_c, 11, 11, 96
16, 193580, Control_c, 11, 11, 97
16, 193600, Control_c, 11, 11, 99
16, 193619, Note_on_c, 11, 67, 0
16, 193620, Control_c, 11, 11, 100
16, 193620, Note_on_c, 11, 70, 68
16, 193640, Control_c, 11, 11, 101
16, 193660, Control_c, 11, 11, 102
16, 193679, Note_on_c, 11, 70, 0
16, 193680, Note_on_c, 11, 69, 68
16, 193680, Control_c, 11, 11, 104
16, 193700, Control_c, 11, 11, 105
16, 193720, Control_c, 11, 11, 106
16, 193739, Note_on_c, 11, 69, 0
16, 193740, Control_c, 11, 11, 108
16, 193740, Note_on_c, 11, 70, 68
16, 193760, Control_c, 11, 11, 109
16, 193780, Control_c, 11, 11, 110
16, 193799, Note_on_c, 11, 70, 0
16, 193800, Control_c, 11, 11, 112
16, 193800, Note_on_c, 11, 68, 68
16, 193820, Control_c, 11, 11, 113
16, 193840, Control_c, 11, 11, 114
16, 193859, Note_on_c, 11, 68, 0
16, 193860, Note_on_c, 11, 67, 68
16, 193860, Control_c, 11, 11, 115
16, 193880, Control_c, 11, 11, 117
16, 193900, Control_c, 11, 11, 118
16, 193919, Note_on_c, 11, 67, 0
16, 193920, Control_c, 11, 11, 119
16, 193920, Note_on_c, 11, 65, 68
16, 193940, Control_c, 11, 11, 121
16, 193960, Control_c, 11, 11, 122
16, 193979, Note_on_c, 11, 65, 0
16, 193980, Control_c, 11, 11, 123
16, 193980, Note_on_c, 11, 63, 68
16, 194000, Control_c, 11, 11, 124
16, 194020, Control_c, 11, 11, 127
16, 194035, Note_on_c, 11, 63, 0
16, 194040, Note_on_c, 11, 62, 52
16, 194159, Note_on_c, 11, 62, 0
16, 194610, Note_on_c, 11, 70, 52
16, 194631, Note_on_c, 11, 70, 0
16, 194640, Note_on_c, 11, 70, 52
16, 194721, Note_on_c, 11, 70, 0
16, 194730, Note_on_c, 11, 74, 52
16, 194751, Note_on_c, 11, 74, 0
16, 194760, Note_on_c, 11, 74, 52
16, 194841, Note_on_c, 11, 74, 0
16, 194850, Note_on_c, 11, 77, 52
16, 194871, Note_on_c, 11, 77, 0
16, 194880, Note_on_c, 11, 77, 52
16, 194961, Note_on_c, 11, 77, 0
16, 194970, Note_on_c, 11, 80, 52
16, 194991, Note_on_c, 11, 80, 0
16, 195000, Note_on_c, 11, 80, 52
16, 195119, Note_on_c, 11, 80, 0
16, 195570, Note_on_c, 11, 74, 52
16, 195591, Note_on_c, 11, 74, 0
16, 195600, Note_on_c, 11, 74, 52
16, 195681, Note_on_c, 11, 74, 0
16, 195690, Note_on_c, 11, 77, 52
16, 195711, Note_on_c, 11, 77, 0
16, 195720, Note_on_c, 11, 77, 52
16, 195801, Note_on_c, 11, 77, 0
16, 195810, Note_on_c, 11, 82, 52
16, 195831, Note_on_c, 11, 82, 0
16, 195840, Note_on_c, 11, 82, 52
16, 195921, Note_on_c, 11, 82, 0
16, 195930, Note_on_c, 11, 86, 52
16, 195951, Note_on_c, 11, 86, 0
16, 196050, Note_on_c, 11, 87, 53
16, 196071, Note_on_c, 11, 87, 0
16, 196080, Note_on_c, 11, 87, 54
16, 196161, Note_on_c, 11, 87, 0
16, 196170, Note_on_c, 11, 82, 55
16, 196191, Note_on_c, 11, 82, 0
16, 196200, Note_on_c, 11, 82, 56
16, 196281, Note_on_c, 11, 82, 0
16, 196290, Note_on_c, 11, 79, 57
16, 196311, Note_on_c, 11, 79, 0
16, 196320, Note_on_c, 11, 79, 58
16, 196401, Note_on_c, 11, 79, 0
16, 196410, Note_on_c, 11, 75, 59
16, 196431, Note_on_c, 11, 75, 0
16, 196530, Note_on_c, 11, 87, 61
16, 196551, Note_on_c, 11, 87, 0
16, 196560, Note_on_c, 11, 87, 62
16, 196641, Note_on_c, 11, 87, 0
16, 196650, Note_on_c, 11, 84, 63
16, 196671, Note_on_c, 11, 84, 0
16, 196680, Note_on_c, 11, 84, 64
16, 196761, Note_on_c, 11, 84, 0
16, 196770, Note_on_c, 11, 80, 65
16, 196791, Note_on_c, 11, 80, 0
16, 196800, Note_on_c, 11, 80, 66
16, 196881, Note_on_c, 11, 80, 0
16, 196890, Note_on_c, 11, 77, 67
16, 196911, Note_on_c, 11, 77, 0
16, 197010, Note_on_c, 11, 87, 58
16, 197035, Note_on_c, 11, 87, 0
16, 197040, Note_on_c, 11, 87, 60
16, 197125, Note_on_c, 11, 87, 0
16, 197130, Note_on_c, 11, 82, 66
16, 197155, Note_on_c, 11, 82, 0
16, 197250, Note_on_c, 11, 86, 62
16, 197275, Note_on_c, 11, 86, 0
16, 197280, Note_on_c, 11, 86, 60
16, 197365, Note_on_c, 11, 86, 0
16, 197370, Note_on_c, 11, 82, 54
16, 197395, Note_on_c, 11, 82, 0
16, 197400, Note_on_c, 11, 87, 52
16, 197429, Note_on_c, 11, 87, 0
16, 197440, Note_on_c, 11, 79, 52
16, 197469, Note_on_c, 11, 79, 0
16, 197480, Note_on_c, 11, 82, 52
16, 197509, Note_on_c, 11, 82, 0
16, 197520, Note_on_c, 11, 75, 52
16, 197549, Note_on_c, 11, 75, 0
16, 197560, Note_on_c, 11, 79, 52
16, 197589, Note_on_c, 11, 79, 0
16, 197600, Note_on_c, 11, 70, 52
16, 197629, Note_on_c, 11, 70, 0
16, 197640, Note_on_c, 11, 75, 52
16, 197669, Note_on_c, 11, 75, 0
16, 197680, Note_on_c, 11, 67, 52
16, 197709, Note_on_c, 11, 67, 0
16, 197720, Note_on_c, 11, 70, 52
16, 197749, Note_on_c, 11, 70, 0
16, 197760, Note_on_c, 11, 63, 84
16, 197789, Note_on_c, 11, 63, 0
16, 197800, Note_on_c, 11, 67, 84
16, 197829, Note_on_c, 11, 67, 0
16, 197840, Note_on_c, 11, 58, 84
16, 197869, Note_on_c, 11, 58, 0
16, 197880, Note_on_c, 11, 63, 84
16, 197915, Note_on_c, 11, 63, 0
16, 197920, Note_on_c, 11, 55, 84
16, 197955, Note_on_c, 11, 55, 0
16, 197960, Note_on_c, 11, 58, 84
16, 197995, Note_on_c, 11, 58, 0
16, 198000, Note_on_c, 11, 63, 84
16, 198035, Note_on_c, 11, 63, 0
16, 198040, Note_on_c, 11, 67, 84
16, 198075, Note_on_c, 11, 67, 0
16, 198080, Note_on_c, 11, 70, 84
16, 198115, Note_on_c, 11, 70, 0
16, 198120, Note_on_c, 11, 75, 84
16, 198155, Note_on_c, 11, 75, 0
16, 198160, Note_on_c, 11, 79, 84
16, 198195, Note_on_c, 11, 79, 0
16, 198200, Note_on_c, 11, 82, 84
16, 198235, Note_on_c, 11, 82, 0
16, 198240, Note_on_c, 11, 82, 84
16, 198275, Note_on_c, 11, 82, 0
16, 198280, Note_on_c, 11, 82, 84
16, 198315, Note_on_c, 11, 82, 0
16, 198320, Note_on_c, 11, 82, 84
16, 198355, Note_on_c, 11, 82, 0
16, 198360, Note_on_c, 11, 58, 84
16, 198395, Note_on_c, 11, 58, 0
16, 198400, Note_on_c, 11, 62, 84
16, 198435, Note_on_c, 11, 62, 0
16, 198440, Note_on_c, 11, 65, 84
16, 198475, Note_on_c, 11, 65, 0
16, 198480, Note_on_c, 11, 68, 84
16, 198515, Note_on_c, 11, 68, 0
16, 198520, Note_on_c, 11, 70, 84
16, 198555, Note_on_c, 11, 70, 0
16, 198560, Note_on_c, 11, 74, 84
16, 198595, Note_on_c, 11, 74, 0
16, 198600, Note_on_c, 11, 77, 84
16, 198635, Note_on_c, 11, 77, 0
16, 198640, Note_on_c, 11, 80, 84
16, 198675, Note_on_c, 11, 80, 0
16, 198680, Note_on_c, 11, 82, 84
16, 198715, Note_on_c, 11, 82, 0
16, 198720, Note_on_c, 11, 82, 84
16, 198755, Note_on_c, 11, 82, 0
16, 198760, Note_on_c, 11, 82, 84
16, 198795, Note_on_c, 11, 82, 0
16, 198800, Note_on_c, 11, 82, 84
16, 198835, Note_on_c, 11, 82, 0
16, 198840, Note_on_c, 11, 82, 84
16, 198875, Note_on_c, 11, 82, 0
16, 198880, Note_on_c, 11, 74, 84
16, 198915, Note_on_c, 11, 74, 0
16, 198920, Note_on_c, 11, 77, 84
16, 198955, Note_on_c, 11, 77, 0
16, 198960, Note_on_c, 11, 70, 84
16, 198995, Note_on_c, 11, 70, 0
16, 199000, Note_on_c, 11, 74, 84
16, 199035, Note_on_c, 11, 74, 0
16, 199040, Note_on_c, 11, 65, 84
16, 199075, Note_on_c, 11, 65, 0
16, 199080, Note_on_c, 11, 70, 84
16, 199115, Note_on_c, 11, 70, 0
16, 199120, Note_on_c, 11, 62, 84
16, 199155, Note_on_c, 11, 62, 0
16, 199160, Note_on_c, 11, 65, 84
16, 199195, Note_on_c, 11, 65, 0
16, 199200, Note_on_c, 11, 58, 84
16, 199235, Note_on_c, 11, 58, 0
16, 199240, Note_on_c, 11, 58, 84
16, 199275, Note_on_c, 11, 58, 0
16, 199280, Note_on_c, 11, 58, 84
16, 199315, Note_on_c, 11, 58, 0
16, 199320, Note_on_c, 11, 58, 84
16, 199355, Note_on_c, 11, 58, 0
16, 199360, Note_on_c, 11, 63, 84
16, 199395, Note_on_c, 11, 63, 0
16, 199400, Note_on_c, 11, 67, 84
16, 199435, Note_on_c, 11, 67, 0
16, 199440, Note_on_c, 11, 70, 84
16, 199475, Note_on_c, 11, 70, 0
16, 199480, Note_on_c, 11, 75, 84
16, 199515, Note_on_c, 11, 75, 0
16, 199520, Note_on_c, 11, 79, 84
16, 199555, Note_on_c, 11, 79, 0
16, 199560, Note_on_c, 11, 82, 84
16, 199595, Note_on_c, 11, 82, 0
16, 199600, Note_on_c, 11, 82, 84
16, 199635, Note_on_c, 11, 82, 0
16, 199640, Note_on_c, 11, 82, 84
16, 199675, Note_on_c, 11, 82, 0
16, 199680, Note_on_c, 11, 82, 84
16, 199715, Note_on_c, 11, 82, 0
16, 199720, Note_on_c, 11, 82, 84
16, 199755, Note_on_c, 11, 82, 0
16, 199760, Note_on_c, 11, 82, 84
16, 199795, Note_on_c, 11, 82, 0
16, 199800, Note_on_c, 11, 63, 84
16, 199835, Note_on_c, 11, 63, 0
16, 199840, Note_on_c, 11, 67, 84
16, 199875, Note_on_c, 11, 67, 0
16, 199880, Note_on_c, 11, 70, 84
16, 199915, Note_on_c, 11, 70, 0
16, 199920, Note_on_c, 11, 75, 84
16, 199955, Note_on_c, 11, 75, 0
16, 199960, Note_on_c, 11, 79, 84
16, 199995, Note_on_c, 11, 79, 0
16, 200000, Note_on_c, 11, 82, 84
16, 200035, Note_on_c, 11, 82, 0
16, 200040, Note_on_c, 11, 62, 84
16, 200075, Note_on_c, 11, 62, 0
16, 200080, Note_on_c, 11, 65, 84
16, 200115, Note_on_c, 11, 65, 0
16, 200120, Note_on_c, 11, 70, 84
16, 200155, Note_on_c, 11, 70, 0
16, 200160, Note_on_c, 11, 74, 84
16, 200195, Note_on_c, 11, 74, 0
16, 200200, Note_on_c, 11, 77, 84
16, 200235, Note_on_c, 11, 77, 0
16, 200240, Note_on_c, 11, 82, 84
16, 200275, Note_on_c, 11, 82, 0
16, 200280, Note_on_c, 11, 63, 92
16, 200315, Note_on_c, 11, 63, 0
16, 200320, Note_on_c, 11, 67, 84
16, 200355, Note_on_c, 11, 67, 0
16, 200360, Note_on_c, 11, 70, 84
16, 200395, Note_on_c, 11, 70, 0
16, 200400, Note_on_c, 11, 75, 84
16, 200435, Note_on_c, 11, 75, 0
16, 200440, Note_on_c, 11, 79, 84
16, 200475, Note_on_c, 11, 79, 0
16, 200480, Note_on_c, 11, 82, 84
16, 200515, Note_on_c, 11, 82, 0
16, 200520, Note_on_c, 11, 82, 84
16, 200555, Note_on_c, 11, 82, 0
16, 200560, Note_on_c, 11, 82, 84
16, 200595, Note_on_c, 11, 82, 0
16, 200600, Note_on_c, 11, 82, 84
16, 200635, Note_on_c, 11, 82, 0
16, 200640, Note_on_c, 11, 82, 84
16, 200675, Note_on_c, 11, 82, 0
16, 200680, Note_on_c, 11, 82, 84
16, 200715, Note_on_c, 11, 82, 0
16, 200720, Note_on_c, 11, 82, 84
16, 200755, Note_on_c, 11, 82, 0
16, 200760, Note_on_c, 11, 82, 84
16, 200795, Note_on_c, 11, 82, 0
16, 200800, Note_on_c, 11, 82, 84
16, 200835, Note_on_c, 11, 82, 0
16, 200840, Note_on_c, 11, 82, 84
16, 200875, Note_on_c, 11, 82, 0
16, 200880, Note_on_c, 11, 82, 84
16, 200915, Note_on_c, 11, 82, 0
16, 200920, Note_on_c, 11, 82, 84
16, 200955, Note_on_c, 11, 82, 0
16, 200960, Note_on_c, 11, 82, 84
16, 200995, Note_on_c, 11, 82, 0
16, 201000, Note_on_c, 11, 82, 84
16, 201035, Note_on_c, 11, 82, 0
16, 201040, Note_on_c, 11, 82, 84
16, 201075, Note_on_c, 11, 82, 0
16, 201080, Note_on_c, 11, 82, 84
16, 201115, Note_on_c, 11, 82, 0
16, 201120, Note_on_c, 11, 82, 84
16, 201155, Note_on_c, 11, 82, 0
16, 201160, Note_on_c, 11, 82, 84
16, 201195, Note_on_c, 11, 82, 0
16, 201200, Note_on_c, 11, 82, 84
16, 201235, Note_on_c, 11, 82, 0
16, 201240, Note_on_c, 11, 82, 84
16, 201275, Note_on_c, 11, 82, 0
16, 201280, Note_on_c, 11, 82, 84
16, 201315, Note_on_c, 11, 82, 0
16, 201320, Note_on_c, 11, 82, 84
16, 201355, Note_on_c, 11, 82, 0
16, 201360, Note_on_c, 11, 82, 84
16, 201395, Note_on_c, 11, 82, 0
16, 201400, Note_on_c, 11, 82, 84
16, 201435, Note_on_c, 11, 82, 0
16, 201440, Note_on_c, 11, 82, 84
16, 201475, Note_on_c, 11, 82, 0
16, 201480, Note_on_c, 11, 82, 84
16, 201515, Note_on_c, 11, 82, 0
16, 201520, Note_on_c, 11, 82, 84
16, 201555, Note_on_c, 11, 82, 0
16, 201560, Note_on_c, 11, 82, 84
16, 201595, Note_on_c, 11, 82, 0
16, 201600, Note_on_c, 11, 82, 84
16, 201635, Note_on_c, 11, 82, 0
16, 201640, Note_on_c, 11, 82, 84
16, 201675, Note_on_c, 11, 82, 0
16, 201680, Note_on_c, 11, 82, 84
16, 201715, Note_on_c, 11, 82, 0
16, 201720, Note_on_c, 11, 82, 84
16, 201755, Note_on_c, 11, 82, 0
16, 201760, Note_on_c, 11, 82, 84
16, 201795, Note_on_c, 11, 82, 0
16, 201800, Note_on_c, 11, 82, 84
16, 201835, Note_on_c, 11, 82, 0
16, 201840, Note_on_c, 11, 82, 84
16, 201875, Note_on_c, 11, 82, 0
16, 201880, Note_on_c, 11, 82, 84
16, 201915, Note_on_c, 11, 82, 0
16, 201920, Note_on_c, 11, 82, 84
16, 201955, Note_on_c, 11, 82, 0
16, 201960, Note_on_c, 11, 82, 84
16, 201995, Note_on_c, 11, 82, 0
16, 202000, Note_on_c, 11, 82, 84
16, 202035, Note_on_c, 11, 82, 0
16, 202040, Note_on_c, 11, 82, 84
16, 202075, Note_on_c, 11, 82, 0
16, 202080, Note_on_c, 11, 82, 84
16, 202115, Note_on_c, 11, 82, 0
16, 202120, Note_on_c, 11, 82, 84
16, 202155, Note_on_c, 11, 82, 0
16, 202160, Note_on_c, 11, 82, 84
16, 202195, Note_on_c, 11, 82, 0
16, 202200, Note_on_c, 11, 82, 84
16, 202235, Note_on_c, 11, 82, 0
16, 202240, Note_on_c, 11, 77, 84
16, 202275, Note_on_c, 11, 77, 0
16, 202280, Note_on_c, 11, 74, 84
16, 202315, Note_on_c, 11, 74, 0
16, 202320, Note_on_c, 11, 70, 84
16, 202355, Note_on_c, 11, 70, 0
16, 202360, Note_on_c, 11, 65, 84
16, 202395, Note_on_c, 11, 65, 0
16, 202400, Note_on_c, 11, 62, 84
16, 202435, Note_on_c, 11, 62, 0
16, 202440, Note_on_c, 11, 58, 84
16, 202475, Note_on_c, 11, 58, 0
16, 202480, Note_on_c, 11, 62, 84
16, 202515, Note_on_c, 11, 62, 0
16, 202520, Note_on_c, 11, 65, 84
16, 202555, Note_on_c, 11, 65, 0
16, 202560, Note_on_c, 11, 70, 84
16, 202595, Note_on_c, 11, 70, 0
16, 202600, Note_on_c, 11, 74, 84
16, 202635, Note_on_c, 11, 74, 0
16, 202640, Note_on_c, 11, 77, 84
16, 202675, Note_on_c, 11, 77, 0
16, 202680, Note_on_c, 11, 82, 84
16, 202715, Note_on_c, 11, 82, 0
16, 202720, Note_on_c, 11, 82, 84
16, 202755, Note_on_c, 11, 82, 0
16, 202760, Note_on_c, 11, 82, 84
16, 202795, Note_on_c, 11, 82, 0
16, 202800, Note_on_c, 11, 82, 84
16, 202835, Note_on_c, 11, 82, 0
16, 202840, Note_on_c, 11, 82, 84
16, 202875, Note_on_c, 11, 82, 0
16, 202880, Note_on_c, 11, 82, 84
16, 202915, Note_on_c, 11, 82, 0
16, 202920, Note_on_c, 11, 82, 84
16, 202955, Note_on_c, 11, 82, 0
16, 202960, Note_on_c, 11, 82, 84
16, 202995, Note_on_c, 11, 82, 0
16, 203000, Note_on_c, 11, 82, 84
16, 203035, Note_on_c, 11, 82, 0
16, 203040, Note_on_c, 11, 82, 84
16, 203075, Note_on_c, 11, 82, 0
16, 203080, Note_on_c, 11, 82, 84
16, 203115, Note_on_c, 11, 82, 0
16, 203120, Note_on_c, 11, 82, 84
16, 203155, Note_on_c, 11, 82, 0
16, 203160, Note_on_c, 11, 82, 84
16, 203195, Note_on_c, 11, 82, 0
16, 203200, Note_on_c, 11, 82, 84
16, 203235, Note_on_c, 11, 82, 0
16, 203240, Note_on_c, 11, 82, 84
16, 203275, Note_on_c, 11, 82, 0
16, 203280, Note_on_c, 11, 82, 84
16, 203315, Note_on_c, 11, 82, 0
16, 203320, Note_on_c, 11, 82, 84
16, 203355, Note_on_c, 11, 82, 0
16, 203360, Note_on_c, 11, 82, 84
16, 203395, Note_on_c, 11, 82, 0
16, 203400, Note_on_c, 11, 82, 84
16, 203435, Note_on_c, 11, 82, 0
16, 203440, Note_on_c, 11, 82, 84
16, 203475, Note_on_c, 11, 82, 0
16, 203480, Note_on_c, 11, 82, 84
16, 203515, Note_on_c, 11, 82, 0
16, 203520, Note_on_c, 11, 82, 84
16, 203555, Note_on_c, 11, 82, 0
16, 203560, Note_on_c, 11, 82, 84
16, 203595, Note_on_c, 11, 82, 0
16, 203600, Note_on_c, 11, 82, 84
16, 203635, Note_on_c, 11, 82, 0
16, 203640, Note_on_c, 11, 82, 84
16, 203675, Note_on_c, 11, 82, 0
16, 203680, Note_on_c, 11, 63, 84
16, 203715, Note_on_c, 11, 63, 0
16, 203720, Note_on_c, 11, 67, 84
16, 203755, Note_on_c, 11, 67, 0
16, 203760, Note_on_c, 11, 70, 84
16, 203795, Note_on_c, 11, 70, 0
16, 203800, Note_on_c, 11, 75, 84
16, 203835, Note_on_c, 11, 75, 0
16, 203840, Note_on_c, 11, 79, 84
16, 203875, Note_on_c, 11, 79, 0
16, 203880, Note_on_c, 11, 82, 84
16, 203915, Note_on_c, 11, 82, 0
16, 203920, Note_on_c, 11, 87, 84
16, 203955, Note_on_c, 11, 87, 0
16, 203960, Note_on_c, 11, 87, 84
16, 203995, Note_on_c, 11, 87, 0
16, 204000, Note_on_c, 11, 87, 84
16, 204035, Note_on_c, 11, 87, 0
16, 204040, Note_on_c, 11, 87, 84
16, 204075, Note_on_c, 11, 87, 0
16, 204080, Note_on_c, 11, 87, 84
16, 204115, Note_on_c, 11, 87, 0
16, 204120, Note_on_c, 11, 87, 84
16, 204155, Note_on_c, 11, 87, 0
16, 204160, Note_on_c, 11, 63, 84
16, 204195, Note_on_c, 11, 63, 0
16, 204200, Note_on_c, 11, 68, 84
16, 204235, Note_on_c, 11, 68, 0
16, 204240, Note_on_c, 11, 72, 84
16, 204275, Note_on_c, 11, 72, 0
16, 204280, Note_on_c, 11, 75, 84
16, 204315, Note_on_c, 11, 75, 0
16, 204320, Note_on_c, 11, 80, 84
16, 204355, Note_on_c, 11, 80, 0
16, 204360, Note_on_c, 11, 84, 84
16, 204395, Note_on_c, 11, 84, 0
16, 204400, Note_on_c, 11, 87, 84
16, 204435, Note_on_c, 11, 87, 0
16, 204440, Note_on_c, 11, 87, 84
16, 204475, Note_on_c, 11, 87, 0
16, 204480, Note_on_c, 11, 87, 84
16, 204515, Note_on_c, 11, 87, 0
16, 204520, Note_on_c, 11, 87, 84
16, 204555, Note_on_c, 11, 87, 0
16, 204560, Note_on_c, 11, 87, 84
16, 204595, Note_on_c, 11, 87, 0
16, 204600, Note_on_c, 11, 87, 84
16, 204635, Note_on_c, 11, 87, 0
16, 204640, Note_on_c, 11, 82, 84
16, 204675, Note_on_c, 11, 82, 0
16, 204680, Note_on_c, 11, 82, 84
16, 204715, Note_on_c, 11, 82, 0
16, 204720, Note_on_c, 11, 82, 84
16, 204755, Note_on_c, 11, 82, 0
16, 204760, Note_on_c, 11, 82, 84
16, 204795, Note_on_c, 11, 82, 0
16, 204800, Note_on_c, 11, 82, 84
16, 204835, Note_on_c, 11, 82, 0
16, 204840, Note_on_c, 11, 82, 84
16, 204875, Note_on_c, 11, 82, 0
16, 204880, Note_on_c, 11, 82, 84
16, 204915, Note_on_c, 11, 82, 0
16, 204920, Note_on_c, 11, 82, 84
16, 204955, Note_on_c, 11, 82, 0
16, 204960, Note_on_c, 11, 82, 84
16, 204995, Note_on_c, 11, 82, 0
16, 205000, Note_on_c, 11, 82, 84
16, 205035, Note_on_c, 11, 82, 0
16, 205040, Note_on_c, 11, 82, 84
16, 205075, Note_on_c, 11, 82, 0
16, 205080, Note_on_c, 11, 82, 84
16, 205191, Note_on_c, 11, 82, 0
16, 205200, Note_on_c, 11, 87, 52
16, 205319, Note_on_c, 11, 87, 0
16, 205440, Note_on_c, 11, 82, 52
16, 205559, Note_on_c, 11, 82, 0
16, 205680, Note_on_c, 11, 79, 52
16, 205799, Note_on_c, 11, 79, 0
16, 205920, Note_on_c, 11, 75, 52
16, 206031, Note_on_c, 11, 75, 0
16, 206040, Note_on_c, 11, 74, 52
16, 206159, Note_on_c, 11, 74, 0
16, 206280, Note_on_c, 11, 77, 56
16, 206309, Note_on_c, 11, 77, 0
16, 206320, Note_on_c, 11, 79, 56
16, 206349, Note_on_c, 11, 79, 0
16, 206360, Note_on_c, 11, 80, 57
16, 206389, Note_on_c, 11, 80, 0
16, 206400, Note_on_c, 11, 79, 58
16, 206429, Note_on_c, 11, 79, 0
16, 206440, Note_on_c, 11, 77, 58
16, 206469, Note_on_c, 11, 77, 0
16, 206480, Note_on_c, 11, 75, 59
16, 206509, Note_on_c, 11, 75, 0
16, 206520, Note_on_c, 11, 74, 60
16, 206549, Note_on_c, 11, 74, 0
16, 206560, Note_on_c, 11, 75, 60
16, 206589, Note_on_c, 11, 75, 0
16, 206600, Note_on_c, 11, 77, 61
16, 206629, Note_on_c, 11, 77, 0
16, 206640, Note_on_c, 11, 75, 62
16, 206669, Note_on_c, 11, 75, 0
16, 206680, Note_on_c, 11, 74, 62
16, 206709, Note_on_c, 11, 74, 0
16, 206720, Note_on_c, 11, 72, 63
16, 206749, Note_on_c, 11, 72, 0
16, 206760, Note_on_c, 11, 70, 64
16, 206789, Note_on_c, 11, 70, 0
16, 206800, Note_on_c, 11, 72, 64
16, 206829, Note_on_c, 11, 72, 0
16, 206840, Note_on_c, 11, 70, 65
16, 206869, Note_on_c, 11, 70, 0
16, 206880, Note_on_c, 11, 68, 66
16, 206909, Note_on_c, 11, 68, 0
16, 206920, Note_on_c, 11, 67, 66
16, 206949, Note_on_c, 11, 67, 0
16, 206960, Note_on_c, 11, 65, 67
16, 206989, Note_on_c, 11, 65, 0
16, 207000, Note_on_c, 11, 63, 52
16, 207111, Note_on_c, 11, 63, 0
16, 207120, Note_on_c, 11, 87, 52
16, 207239, Note_on_c, 11, 87, 0
16, 207360, Note_on_c, 11, 82, 52
16, 207479, Note_on_c, 11, 82, 0
16, 207600, Note_on_c, 11, 79, 52
16, 207719, Note_on_c, 11, 79, 0
16, 207840, Note_on_c, 11, 75, 52
16, 207951, Note_on_c, 11, 75, 0
16, 207958, Control_c, 11, 11, 96
16, 207960, Note_on_c, 11, 74, 68
16, 207960, Control_c, 11, 11, 96
16, 208000, Control_c, 11, 11, 97
16, 208040, Control_c, 11, 11, 99
16, 208080, Control_c, 11, 11, 100
16, 208120, Control_c, 11, 11, 101
16, 208160, Control_c, 11, 11, 102
16, 208200, Control_c, 11, 11, 104
16, 208240, Control_c, 11, 11, 105
16, 208280, Control_c, 11, 11, 106
16, 208320, Control_c, 11, 11, 108
16, 208360, Control_c, 11, 11, 109
16, 208400, Control_c, 11, 11, 110
16, 208431, Note_on_c, 11, 74, 0
16, 208440, Control_c, 11, 11, 112
16, 208440, Note_on_c, 11, 73, 68
16, 208479, Note_on_c, 11, 73, 0
16, 208480, Note_on_c, 11, 75, 68
16, 208480, Control_c, 11, 11, 113
16, 208515, Note_on_c, 11, 75, 0
16, 208520, Control_c, 11, 11, 114
16, 208520, Note_on_c, 11, 77, 68
16, 208549, Note_on_c, 11, 77, 0
16, 208560, Control_c, 11, 11, 115
16, 208560, Note_on_c, 11, 75, 68
16, 208589, Note_on_c, 11, 75, 0
16, 208600, Control_c, 11, 11, 117
16, 208600, Note_on_c, 11, 73, 68
16, 208629, Note_on_c, 11, 73, 0
16, 208640, Control_c, 11, 11, 118
16, 208640, Note_on_c, 11, 72, 68
16, 208669, Note_on_c, 11, 72, 0
16, 208680, Note_on_c, 11, 70, 68
16, 208680, Control_c, 11, 11, 119
16, 208709, Note_on_c, 11, 70, 0
16, 208720, Note_on_c, 11, 68, 68
16, 208720, Control_c, 11, 11, 121
16, 208749, Note_on_c, 11, 68, 0
16, 208760, Control_c, 11, 11, 122
16, 208760, Note_on_c, 11, 67, 68
16, 208789, Note_on_c, 11, 67, 0
16, 208800, Control_c, 11, 11, 123
16, 208800, Note_on_c, 11, 65, 68
16, 208829, Note_on_c, 11, 65, 0
16, 208840, Control_c, 11, 11, 124
16, 208840, Note_on_c, 11, 63, 68
16, 208869, Note_on_c, 11, 63, 0
16, 208880, Note_on_c, 11, 61, 68
16, 208880, Control_c, 11, 11, 127
16, 208909, Note_on_c, 11, 61, 0
16, 208920, Note_on_c, 11, 60, 52
16, 208964, Note_on_c, 11, 60, 0
16, 208980, Note_on_c, 11, 63, 52
16, 209024, Note_on_c, 11, 63, 0
16, 209040, Note_on_c, 11, 72, 52
16, 209211, Note_on_c, 11, 72, 0
16, 209220, Note_on_c, 11, 63, 52
16, 209264, Note_on_c, 11, 63, 0
16, 209280, Note_on_c, 11, 68, 52
16, 209451, Note_on_c, 11, 68, 0
16, 209460, Note_on_c, 11, 63, 52
16, 209504, Note_on_c, 11, 63, 0
16, 209520, Note_on_c, 11, 67, 52
16, 209691, Note_on_c, 11, 67, 0
16, 209700, Note_on_c, 11, 63, 52
16, 209744, Note_on_c, 11, 63, 0
16, 209760, Note_on_c, 11, 70, 52
16, 209931, Note_on_c, 11, 70, 0
16, 209940, Note_on_c, 11, 63, 52
16, 209984, Note_on_c, 11, 63, 0
16, 210000, Note_on_c, 11, 73, 52
16, 210171, Note_on_c, 11, 73, 0
16, 210180, Note_on_c, 11, 63, 52
16, 210224, Note_on_c, 11, 63, 0
16, 210240, Note_on_c, 11, 70, 52
16, 210411, Note_on_c, 11, 70, 0
16, 210420, Note_on_c, 11, 63, 52
16, 210464, Note_on_c, 11, 63, 0
16, 210480, Note_on_c, 11, 68, 52
16, 210659, Note_on_c, 11, 68, 0
16, 210660, Note_on_c, 11, 63, 52
16, 210704, Note_on_c, 11, 63, 0
16, 210720, Note_on_c, 11, 68, 52
16, 210764, Note_on_c, 11, 68, 0
16, 210780, Note_on_c, 11, 72, 52
16, 210824, Note_on_c, 11, 72, 0
16, 210832, Control_c, 11, 11, 80
16, 210840, Control_c, 11, 11, 80
16, 210840, Note_on_c, 11, 75, 76
16, 210920, Control_c, 11, 11, 81
16, 211000, Control_c, 11, 11, 83
16, 211019, Note_on_c, 11, 75, 0
16, 211080, Note_on_c, 11, 75, 76
16, 211080, Control_c, 11, 11, 84
16, 211160, Control_c, 11, 11, 85
16, 211240, Control_c, 11, 11, 87
16, 211259, Note_on_c, 11, 75, 0
16, 211320, Note_on_c, 11, 75, 76
16, 211320, Control_c, 11, 11, 88
16, 211400, Control_c, 11, 11, 89
16, 211480, Control_c, 11, 11, 90
16, 211560, Control_c, 11, 11, 92
16, 211640, Control_c, 11, 11, 93
16, 211720, Control_c, 11, 11, 94
16, 211791, Note_on_c, 11, 75, 0
16, 211800, Note_on_c, 11, 78, 76
16, 211800, Control_c, 11, 11, 96
16, 211880, Control_c, 11, 11, 97
16, 211960, Control_c, 11, 11, 98
16, 211979, Note_on_c, 11, 78, 0
16, 212040, Control_c, 11, 11, 100
16, 212040, Note_on_c, 11, 78, 76
16, 212120, Control_c, 11, 11, 101
16, 212200, Control_c, 11, 11, 102
16, 212219, Note_on_c, 11, 78, 0
16, 212280, Control_c, 11, 11, 104
16, 212280, Note_on_c, 11, 78, 76
16, 212360, Control_c, 11, 11, 105
16, 212440, Control_c, 11, 11, 106
16, 212520, Control_c, 11, 11, 107
16, 212600, Control_c, 11, 11, 109
16, 212680, Control_c, 11, 11, 110
16, 212751, Note_on_c, 11, 78, 0
16, 212760, Control_c, 11, 11, 111
16, 212760, Note_on_c, 11, 82, 76
16, 212840, Control_c, 11, 11, 113
16, 212920, Control_c, 11, 11, 114
16, 212939, Note_on_c, 11, 82, 0
16, 213000, Control_c, 11, 11, 115
16, 213000, Note_on_c, 11, 82, 76
16, 213080, Control_c, 11, 11, 117
16, 213160, Control_c, 11, 11, 118
16, 213179, Note_on_c, 11, 82, 0
16, 213240, Control_c, 11, 11, 119
16, 213240, Note_on_c, 11, 82, 76
16, 213320, Control_c, 11, 11, 120
16, 213400, Control_c, 11, 11, 122
16, 213480, Control_c, 11, 11, 123
16, 213560, Control_c, 11, 11, 124
16, 213640, Control_c, 11, 11, 127
16, 213711, Note_on_c, 11, 82, 0
16, 213720, Note_on_c, 11, 87, 76
16, 213899, Note_on_c, 11, 87, 0
16, 213960, Note_on_c, 11, 87, 76
16, 214139, Note_on_c, 11, 87, 0
16, 214200, Note_on_c, 11, 87, 76
16, 214671, Note_on_c, 11, 87, 0
16, 214680, Note_on_c, 11, 90, 76
16, 214859, Note_on_c, 11, 90, 0
16, 214920, Note_on_c, 11, 90, 78
16, 215099, Note_on_c, 11, 90, 0
16, 215160, Note_on_c, 11, 90, 80
16, 215195, Note_on_c, 11, 90, 0
16, 215200, Note_on_c, 11, 90, 80
16, 215235, Note_on_c, 11, 90, 0
16, 215240, Note_on_c, 11, 90, 80
16, 215275, Note_on_c, 11, 90, 0
16, 215280, Note_on_c, 11, 90, 81
16, 215315, Note_on_c, 11, 90, 0
16, 215320, Note_on_c, 11, 90, 81
16, 215355, Note_on_c, 11, 90, 0
16, 215360, Note_on_c, 11, 90, 81
16, 215395, Note_on_c, 11, 90, 0
16, 215400, Note_on_c, 11, 90, 82
16, 215435, Note_on_c, 11, 90, 0
16, 215440, Note_on_c, 11, 90, 82
16, 215475, Note_on_c, 11, 90, 0
16, 215480, Note_on_c, 11, 90, 82
16, 215515, Note_on_c, 11, 90, 0
16, 215520, Note_on_c, 11, 90, 83
16, 215555, Note_on_c, 11, 90, 0
16, 215560, Note_on_c, 11, 90, 83
16, 215595, Note_on_c, 11, 90, 0
16, 215600, Note_on_c, 11, 90, 83
16, 215635, Note_on_c, 11, 90, 0
16, 215640, Note_on_c, 11, 91, 84
16, 215675, Note_on_c, 11, 91, 0
16, 215680, Note_on_c, 11, 91, 84
16, 215715, Note_on_c, 11, 91, 0
16, 215720, Note_on_c, 11, 91, 84
16, 215755, Note_on_c, 11, 91, 0
16, 215760, Note_on_c, 11, 91, 84
16, 215795, Note_on_c, 11, 91, 0
16, 215800, Note_on_c, 11, 91, 84
16, 215835, Note_on_c, 11, 91, 0
16, 215840, Note_on_c, 11, 91, 84
16, 215875, Note_on_c, 11, 91, 0
16, 215880, Note_on_c, 11, 91, 84
16, 215915, Note_on_c, 11, 91, 0
16, 215920, Note_on_c, 11, 91, 84
16, 215955, Note_on_c, 11, 91, 0
16, 215960, Note_on_c, 11, 91, 84
16, 215995, Note_on_c, 11, 91, 0
16, 216000, Note_on_c, 11, 91, 84
16, 216035, Note_on_c, 11, 91, 0
16, 216040, Note_on_c, 11, 91, 84
16, 216075, Note_on_c, 11, 91, 0
16, 216080, Note_on_c, 11, 91, 84
16, 216115, Note_on_c, 11, 91, 0
16, 216120, Note_on_c, 11, 91, 84
16, 216155, Note_on_c, 11, 91, 0
16, 216160, Note_on_c, 11, 91, 84
16, 216195, Note_on_c, 11, 91, 0
16, 216200, Note_on_c, 11, 91, 84
16, 216235, Note_on_c, 11, 91, 0
16, 216240, Note_on_c, 11, 91, 84
16, 216275, Note_on_c, 11, 91, 0
16, 216280, Note_on_c, 11, 91, 84
16, 216315, Note_on_c, 11, 91, 0
16, 216320, Note_on_c, 11, 91, 84
16, 216355, Note_on_c, 11, 91, 0
16, 216360, Note_on_c, 11, 90, 84
16, 216395, Note_on_c, 11, 90, 0
16, 216400, Note_on_c, 11, 90, 84
16, 216435, Note_on_c, 11, 90, 0
16, 216440, Note_on_c, 11, 90, 84
16, 216475, Note_on_c, 11, 90, 0
16, 216480, Note_on_c, 11, 90, 84
16, 216515, Note_on_c, 11, 90, 0
16, 216520, Note_on_c, 11, 90, 84
16, 216555, Note_on_c, 11, 90, 0
16, 216560, Note_on_c, 11, 90, 84
16, 216595, Note_on_c, 11, 90, 0
16, 216600, Note_on_c, 11, 91, 84
16, 216711, Note_on_c, 11, 91, 0
16, 216720, Note_on_c, 11, 74, 52
16, 216764, Note_on_c, 11, 74, 0
16, 216780, Note_on_c, 11, 74, 52
16, 216824, Note_on_c, 11, 74, 0
16, 216960, Note_on_c, 11, 70, 52
16, 217004, Note_on_c, 11, 70, 0
16, 217020, Note_on_c, 11, 70, 52
16, 217064, Note_on_c, 11, 70, 0
16, 217200, Note_on_c, 11, 69, 52
16, 217244, Note_on_c, 11, 69, 0
16, 217260, Note_on_c, 11, 69, 52
16, 217304, Note_on_c, 11, 69, 0
16, 217440, Note_on_c, 11, 72, 52
16, 217484, Note_on_c, 11, 72, 0
16, 217500, Note_on_c, 11, 72, 52
16, 217544, Note_on_c, 11, 72, 0
16, 217680, Note_on_c, 11, 75, 52
16, 217735, Note_on_c, 11, 75, 0
16, 217740, Note_on_c, 11, 75, 52
16, 217799, Note_on_c, 11, 75, 0
16, 217920, Note_on_c, 11, 69, 52
16, 217975, Note_on_c, 11, 69, 0
16, 217980, Note_on_c, 11, 69, 52
16, 218039, Note_on_c, 11, 69, 0
16, 218160, Note_on_c, 11, 71, 56
16, 218215, Note_on_c, 11, 71, 0
16, 218220, Note_on_c, 11, 71, 58
16, 218279, Note_on_c, 11, 71, 0
16, 218400, Note_on_c, 11, 77, 64
16, 218455, Note_on_c, 11, 77, 0
16, 218460, Note_on_c, 11, 77, 66
16, 218519, Note_on_c, 11, 77, 0
16, 218640, Note_on_c, 11, 80, 64
16, 218695, Note_on_c, 11, 80, 0
16, 218700, Note_on_c, 11, 80, 62
16, 218759, Note_on_c, 11, 80, 0
16, 218880, Note_on_c, 11, 71, 56
16, 218935, Note_on_c, 11, 71, 0
16, 218940, Note_on_c, 11, 71, 54
16, 218999, Note_on_c, 11, 71, 0
16, 219120, Note_on_c, 11, 74, 52
16, 219175, Note_on_c, 11, 74, 0
16, 219180, Note_on_c, 11, 74, 52
16, 219239, Note_on_c, 11, 74, 0
16, 219360, Note_on_c, 11, 72, 52
16, 219415, Note_on_c, 11, 72, 0
16, 219420, Note_on_c, 11, 72, 52
16, 219479, Note_on_c, 11, 72, 0
16, 219600, Note_on_c, 11, 75, 52
16, 219655, Note_on_c, 11, 75, 0
16, 219660, Note_on_c, 11, 75, 52
16, 219719, Note_on_c, 11, 75, 0
16, 219840, Note_on_c, 11, 66, 52
16, 219895, Note_on_c, 11, 66, 0
16, 219900, Note_on_c, 11, 66, 52
16, 219959, Note_on_c, 11, 66, 0
16, 220080, Note_on_c, 11, 67, 56
16, 220135, Note_on_c, 11, 67, 0
16, 220140, Note_on_c, 11, 67, 58
16, 220199, Note_on_c, 11, 67, 0
16, 220320, Note_on_c, 11, 74, 64
16, 220375, Note_on_c, 11, 74, 0
16, 220380, Note_on_c, 11, 74, 66
16, 220439, Note_on_c, 11, 74, 0
16, 220560, Note_on_c, 11, 75, 64
16, 220615, Note_on_c, 11, 75, 0
16, 220620, Note_on_c, 11, 75, 62
16, 220679, Note_on_c, 11, 75, 0
16, 220800, Note_on_c, 11, 66, 56
16, 220855, Note_on_c, 11, 66, 0
16, 220860, Note_on_c, 11, 66, 54
16, 220919, Note_on_c, 11, 66, 0
16, 221040, Note_on_c, 11, 67, 50
16, 221095, Note_on_c, 11, 67, 0
16, 221100, Note_on_c, 11, 67, 49
16, 221159, Note_on_c, 11, 67, 0
16, 221280, Note_on_c, 11, 68, 46
16, 221335, Note_on_c, 11, 68, 0
16, 221340, Note_on_c, 11, 68, 45
16, 221399, Note_on_c, 11, 68, 0
16, 221520, Note_on_c, 11, 67, 44
16, 221575, Note_on_c, 11, 67, 0
16, 221580, Note_on_c, 11, 67, 44
16, 221639, Note_on_c, 11, 67, 0
16, 221760, Note_on_c, 11, 66, 44
16, 221760, Note_on_c, 11, 57, 44
16, 221815, Note_on_c, 11, 66, 0
16, 221815, Note_on_c, 11, 57, 0
16, 221820, Note_on_c, 11, 57, 44
16, 221820, Note_on_c, 11, 66, 44
16, 221875, Note_on_c, 11, 57, 0
16, 221875, Note_on_c, 11, 66, 0
16, 221880, Note_on_c, 11, 67, 84
16, 221905, Note_on_c, 11, 67, 0
16, 221910, Note_on_c, 11, 79, 84
16, 221935, Note_on_c, 11, 79, 0
16, 221940, Note_on_c, 11, 79, 84
16, 221965, Note_on_c, 11, 79, 0
16, 221970, Note_on_c, 11, 79, 84
16, 221995, Note_on_c, 11, 79, 0
16, 222000, Note_on_c, 11, 79, 84
16, 222025, Note_on_c, 11, 79, 0
16, 222030, Note_on_c, 11, 79, 84
16, 222055, Note_on_c, 11, 79, 0
16, 222060, Note_on_c, 11, 79, 84
16, 222085, Note_on_c, 11, 79, 0
16, 222090, Note_on_c, 11, 79, 84
16, 222115, Note_on_c, 11, 79, 0
16, 222120, Note_on_c, 11, 79, 84
16, 222145, Note_on_c, 11, 79, 0
16, 222150, Note_on_c, 11, 79, 84
16, 222175, Note_on_c, 11, 79, 0
16, 222180, Note_on_c, 11, 79, 84
16, 222205, Note_on_c, 11, 79, 0
16, 222210, Note_on_c, 11, 79, 84
16, 222235, Note_on_c, 11, 79, 0
16, 222240, Note_on_c, 11, 79, 84
16, 222265, Note_on_c, 11, 79, 0
16, 222270, Note_on_c, 11, 79, 84
16, 222295, Note_on_c, 11, 79, 0
16, 222300, Note_on_c, 11, 79, 84
16, 222325, Note_on_c, 11, 79, 0
16, 222330, Note_on_c, 11, 79, 84
16, 222355, Note_on_c, 11, 79, 0
16, 222360, Note_on_c, 11, 79, 84
16, 222385, Note_on_c, 11, 79, 0
16, 222390, Note_on_c, 11, 79, 84
16, 222415, Note_on_c, 11, 79, 0
16, 222420, Note_on_c, 11, 77, 84
16, 222445, Note_on_c, 11, 77, 0
16, 222450, Note_on_c, 11, 77, 84
16, 222475, Note_on_c, 11, 77, 0
16, 222480, Note_on_c, 11, 75, 84
16, 222505, Note_on_c, 11, 75, 0
16, 222510, Note_on_c, 11, 75, 84
16, 222535, Note_on_c, 11, 75, 0
16, 222540, Note_on_c, 11, 74, 84
16, 222565, Note_on_c, 11, 74, 0
16, 222570, Note_on_c, 11, 74, 84
16, 222595, Note_on_c, 11, 74, 0
16, 222600, Note_on_c, 11, 75, 84
16, 222625, Note_on_c, 11, 75, 0
16, 222630, Note_on_c, 11, 75, 84
16, 222655, Note_on_c, 11, 75, 0
16, 222660, Note_on_c, 11, 74, 84
16, 222685, Note_on_c, 11, 74, 0
16, 222690, Note_on_c, 11, 74, 84
16, 222715, Note_on_c, 11, 74, 0
16, 222720, Note_on_c, 11, 72, 84
16, 222745, Note_on_c, 11, 72, 0
16, 222750, Note_on_c, 11, 72, 84
16, 222775, Note_on_c, 11, 72, 0
16, 222780, Note_on_c, 11, 70, 84
16, 222805, Note_on_c, 11, 70, 0
16, 222810, Note_on_c, 11, 70, 84
16, 222835, Note_on_c, 11, 70, 0
16, 222840, Note_on_c, 11, 72, 84
16, 222865, Note_on_c, 11, 72, 0
16, 222870, Note_on_c, 11, 72, 84
16, 222895, Note_on_c, 11, 72, 0
16, 222900, Note_on_c, 11, 70, 84
16, 222925, Note_on_c, 11, 70, 0
16, 222930, Note_on_c, 11, 70, 84
16, 222955, Note_on_c, 11, 70, 0
16, 222960, Note_on_c, 11, 69, 84
16, 222985, Note_on_c, 11, 69, 0
16, 222990, Note_on_c, 11, 69, 84
16, 223015, Note_on_c, 11, 69, 0
16, 223020, Note_on_c, 11, 67, 84
16, 223045, Note_on_c, 11, 67, 0
16, 223050, Note_on_c, 11, 67, 84
16, 223075, Note_on_c, 11, 67, 0
16, 223080, Note_on_c, 11, 68, 84
16, 223105, Note_on_c, 11, 68, 0
16, 223110, Note_on_c, 11, 68, 84
16, 223135, Note_on_c, 11, 68, 0
16, 223140, Note_on_c, 11, 67, 84
16, 223165, Note_on_c, 11, 67, 0
16, 223170, Note_on_c, 11, 67, 84
16, 223195, Note_on_c, 11, 67, 0
16, 223200, Note_on_c, 11, 65, 84
16, 223225, Note_on_c, 11, 65, 0
16, 223230, Note_on_c, 11, 65, 84
16, 223255, Note_on_c, 11, 65, 0
16, 223260, Note_on_c, 11, 63, 84
16, 223285, Note_on_c, 11, 63, 0
16, 223290, Note_on_c, 11, 63, 84
16, 223315, Note_on_c, 11, 63, 0
16, 223320, Note_on_c, 11, 62, 84
16, 223345, Note_on_c, 11, 62, 0
16, 223350, Note_on_c, 11, 62, 84
16, 223375, Note_on_c, 11, 62, 0
16, 223380, Note_on_c, 11, 63, 84
16, 223405, Note_on_c, 11, 63, 0
16, 223410, Note_on_c, 11, 63, 84
16, 223435, Note_on_c, 11, 63, 0
16, 223440, Note_on_c, 11, 65, 84
16, 223465, Note_on_c, 11, 65, 0
16, 223470, Note_on_c, 11, 65, 84
16, 223495, Note_on_c, 11, 65, 0
16, 223500, Note_on_c, 11, 63, 84
16, 223525, Note_on_c, 11, 63, 0
16, 223530, Note_on_c, 11, 63, 84
16, 223555, Note_on_c, 11, 63, 0
16, 223560, Note_on_c, 11, 62, 84
16, 223585, Note_on_c, 11, 62, 0
16, 223590, Note_on_c, 11, 62, 84
16, 223615, Note_on_c, 11, 62, 0
16, 223620, Note_on_c, 11, 58, 84
16, 223645, Note_on_c, 11, 58, 0
16, 223650, Note_on_c, 11, 58, 84
16, 223675, Note_on_c, 11, 58, 0
16, 223680, Note_on_c, 11, 60, 84
16, 223705, Note_on_c, 11, 60, 0
16, 223710, Note_on_c, 11, 60, 84
16, 223735, Note_on_c, 11, 60, 0
16, 223740, Note_on_c, 11, 62, 84
16, 223765, Note_on_c, 11, 62, 0
16, 223770, Note_on_c, 11, 62, 84
16, 223795, Note_on_c, 11, 62, 0
16, 223800, Note_on_c, 11, 63, 84
16, 223825, Note_on_c, 11, 63, 0
16, 223830, Note_on_c, 11, 63, 84
16, 223855, Note_on_c, 11, 63, 0
16, 223860, Note_on_c, 11, 58, 84
16, 223885, Note_on_c, 11, 58, 0
16, 223890, Note_on_c, 11, 58, 84
16, 223915, Note_on_c, 11, 58, 0
16, 223920, Note_on_c, 11, 63, 84
16, 223945, Note_on_c, 11, 63, 0
16, 223950, Note_on_c, 11, 63, 84
16, 223975, Note_on_c, 11, 63, 0
16, 223980, Note_on_c, 11, 67, 84
16, 224005, Note_on_c, 11, 67, 0
16, 224010, Note_on_c, 11, 67, 84
16, 224035, Note_on_c, 11, 67, 0
16, 224040, Note_on_c, 11, 70, 84
16, 224065, Note_on_c, 11, 70, 0
16, 224070, Note_on_c, 11, 70, 84
16, 224095, Note_on_c, 11, 70, 0
16, 224100, Note_on_c, 11, 67, 84
16, 224125, Note_on_c, 11, 67, 0
16, 224130, Note_on_c, 11, 67, 84
16, 224155, Note_on_c, 11, 67, 0
16, 224160, Note_on_c, 11, 63, 84
16, 224185, Note_on_c, 11, 63, 0
16, 224190, Note_on_c, 11, 63, 84
16, 224215, Note_on_c, 11, 63, 0
16, 224220, Note_on_c, 11, 58, 84
16, 224245, Note_on_c, 11, 58, 0
16, 224250, Note_on_c, 11, 58, 84
16, 224275, Note_on_c, 11, 58, 0
16, 224280, Note_on_c, 11, 65, 84
16, 224305, Note_on_c, 11, 65, 0
16, 224310, Note_on_c, 11, 65, 84
16, 224335, Note_on_c, 11, 65, 0
16, 224340, Note_on_c, 11, 58, 84
16, 224365, Note_on_c, 11, 58, 0
16, 224370, Note_on_c, 11, 58, 84
16, 224395, Note_on_c, 11, 58, 0
16, 224400, Note_on_c, 11, 65, 84
16, 224425, Note_on_c, 11, 65, 0
16, 224430, Note_on_c, 11, 65, 84
16, 224455, Note_on_c, 11, 65, 0
16, 224460, Note_on_c, 11, 68, 84
16, 224485, Note_on_c, 11, 68, 0
16, 224490, Note_on_c, 11, 68, 84
16, 224515, Note_on_c, 11, 68, 0
16, 224520, Note_on_c, 11, 70, 84
16, 224545, Note_on_c, 11, 70, 0
16, 224550, Note_on_c, 11, 70, 84
16, 224575, Note_on_c, 11, 70, 0
16, 224580, Note_on_c, 11, 68, 84
16, 224605, Note_on_c, 11, 68, 0
16, 224610, Note_on_c, 11, 68, 84
16, 224635, Note_on_c, 11, 68, 0
16, 224640, Note_on_c, 11, 65, 84
16, 224665, Note_on_c, 11, 65, 0
16, 224670, Note_on_c, 11, 65, 84
16, 224695, Note_on_c, 11, 65, 0
16, 224700, Note_on_c, 11, 58, 84
16, 224725, Note_on_c, 11, 58, 0
16, 224730, Note_on_c, 11, 58, 84
16, 224755, Note_on_c, 11, 58, 0
16, 224760, Note_on_c, 11, 67, 84
16, 224785, Note_on_c, 11, 67, 0
16, 224790, Note_on_c, 11, 67, 84
16, 224815, Note_on_c, 11, 67, 0
16, 224820, Note_on_c, 11, 63, 84
16, 224845, Note_on_c, 11, 63, 0
16, 224850, Note_on_c, 11, 63, 84
16, 224875, Note_on_c, 11, 63, 0
16, 224880, Note_on_c, 11, 67, 84
16, 224905, Note_on_c, 11, 67, 0
16, 224910, Note_on_c, 11, 67, 84
16, 224935, Note_on_c, 11, 67, 0
16, 224940, Note_on_c, 11, 70, 84
16, 224965, Note_on_c, 11, 70, 0
16, 224970, Note_on_c, 11, 70, 84
16, 224995, Note_on_c, 11, 70, 0
16, 225000, Note_on_c, 11, 75, 84
16, 225025, Note_on_c, 11, 75, 0
16, 225030, Note_on_c, 11, 75, 84
16, 225055, Note_on_c, 11, 75, 0
16, 225060, Note_on_c, 11, 70, 84
16, 225085, Note_on_c, 11, 70, 0
16, 225090, Note_on_c, 11, 70, 84
16, 225115, Note_on_c, 11, 70, 0
16, 225120, Note_on_c, 11, 67, 84
16, 225145, Note_on_c, 11, 67, 0
16, 225150, Note_on_c, 11, 67, 84
16, 225175, Note_on_c, 11, 67, 0
16, 225180, Note_on_c, 11, 63, 84
16, 225205, Note_on_c, 11, 63, 0
16, 225210, Note_on_c, 11, 63, 84
16, 225235, Note_on_c, 11, 63, 0
16, 225240, Note_on_c, 11, 65, 84
16, 225265, Note_on_c, 11, 65, 0
16, 225270, Note_on_c, 11, 65, 84
16, 225295, Note_on_c, 11, 65, 0
16, 225300, Note_on_c, 11, 65, 84
16, 225325, Note_on_c, 11, 65, 0
16, 225330, Note_on_c, 11, 65, 84
16, 225355, Note_on_c, 11, 65, 0
16, 225360, Note_on_c, 11, 68, 84
16, 225385, Note_on_c, 11, 68, 0
16, 225390, Note_on_c, 11, 68, 84
16, 225415, Note_on_c, 11, 68, 0
16, 225420, Note_on_c, 11, 74, 84
16, 225445, Note_on_c, 11, 74, 0
16, 225450, Note_on_c, 11, 74, 84
16, 225475, Note_on_c, 11, 74, 0
16, 225480, Note_on_c, 11, 77, 84
16, 225505, Note_on_c, 11, 77, 0
16, 225510, Note_on_c, 11, 77, 84
16, 225535, Note_on_c, 11, 77, 0
16, 225540, Note_on_c, 11, 74, 84
16, 225565, Note_on_c, 11, 74, 0
16, 225570, Note_on_c, 11, 74, 84
16, 225595, Note_on_c, 11, 74, 0
16, 225600, Note_on_c, 11, 68, 84
16, 225625, Note_on_c, 11, 68, 0
16, 225630, Note_on_c, 11, 68, 84
16, 225655, Note_on_c, 11, 68, 0
16, 225660, Note_on_c, 11, 65, 84
16, 225685, Note_on_c, 11, 65, 0
16, 225690, Note_on_c, 11, 65, 84
16, 225715, Note_on_c, 11, 65, 0
16, 225720, Note_on_c, 11, 67, 84
16, 225745, Note_on_c, 11, 67, 0
16, 225750, Note_on_c, 11, 67, 84
16, 225775, Note_on_c, 11, 67, 0
16, 225780, Note_on_c, 11, 67, 84
16, 225805, Note_on_c, 11, 67, 0
16, 225810, Note_on_c, 11, 67, 84
16, 225835, Note_on_c, 11, 67, 0
16, 225840, Note_on_c, 11, 70, 84
16, 225865, Note_on_c, 11, 70, 0
16, 225870, Note_on_c, 11, 70, 84
16, 225895, Note_on_c, 11, 70, 0
16, 225900, Note_on_c, 11, 75, 84
16, 225925, Note_on_c, 11, 75, 0
16, 225930, Note_on_c, 11, 75, 84
16, 225955, Note_on_c, 11, 75, 0
16, 225960, Note_on_c, 11, 79, 84
16, 225985, Note_on_c, 11, 79, 0
16, 225990, Note_on_c, 11, 79, 84
16, 226015, Note_on_c, 11, 79, 0
16, 226020, Note_on_c, 11, 75, 84
16, 226045, Note_on_c, 11, 75, 0
16, 226050, Note_on_c, 11, 75, 84
16, 226075, Note_on_c, 11, 75, 0
16, 226080, Note_on_c, 11, 70, 84
16, 226105, Note_on_c, 11, 70, 0
16, 226110, Note_on_c, 11, 70, 84
16, 226135, Note_on_c, 11, 70, 0
16, 226140, Note_on_c, 11, 67, 84
16, 226165, Note_on_c, 11, 67, 0
16, 226170, Note_on_c, 11, 67, 84
16, 226195, Note_on_c, 11, 67, 0
16, 226200, Note_on_c, 11, 68, 84
16, 226225, Note_on_c, 11, 68, 0
16, 226230, Note_on_c, 11, 68, 84
16, 226255, Note_on_c, 11, 68, 0
16, 226260, Note_on_c, 11, 68, 84
16, 226285, Note_on_c, 11, 68, 0
16, 226290, Note_on_c, 11, 68, 84
16, 226315, Note_on_c, 11, 68, 0
16, 226320, Note_on_c, 11, 74, 84
16, 226345, Note_on_c, 11, 74, 0
16, 226350, Note_on_c, 11, 74, 84
16, 226375, Note_on_c, 11, 74, 0
16, 226380, Note_on_c, 11, 77, 84
16, 226405, Note_on_c, 11, 77, 0
16, 226410, Note_on_c, 11, 77, 84
16, 226435, Note_on_c, 11, 77, 0
16, 226440, Note_on_c, 11, 80, 84
16, 226465, Note_on_c, 11, 80, 0
16, 226470, Note_on_c, 11, 80, 84
16, 226495, Note_on_c, 11, 80, 0
16, 226500, Note_on_c, 11, 77, 84
16, 226525, Note_on_c, 11, 77, 0
16, 226530, Note_on_c, 11, 77, 84
16, 226555, Note_on_c, 11, 77, 0
16, 226560, Note_on_c, 11, 74, 84
16, 226585, Note_on_c, 11, 74, 0
16, 226590, Note_on_c, 11, 74, 84
16, 226615, Note_on_c, 11, 74, 0
16, 226620, Note_on_c, 11, 68, 84
16, 226645, Note_on_c, 11, 68, 0
16, 226650, Note_on_c, 11, 68, 84
16, 226675, Note_on_c, 11, 68, 0
16, 226680, Note_on_c, 11, 67, 84
16, 226705, Note_on_c, 11, 67, 0
16, 226710, Note_on_c, 11, 82, 84
16, 226735, Note_on_c, 11, 82, 0
16, 226740, Note_on_c, 11, 82, 84
16, 226765, Note_on_c, 11, 82, 0
16, 226770, Note_on_c, 11, 82, 84
16, 226795, Note_on_c, 11, 82, 0
16, 226800, Note_on_c, 11, 82, 84
16, 226825, Note_on_c, 11, 82, 0
16, 226830, Note_on_c, 11, 82, 84
16, 226855, Note_on_c, 11, 82, 0
16, 226860, Note_on_c, 11, 82, 84
16, 226885, Note_on_c, 11, 82, 0
16, 226890, Note_on_c, 11, 82, 84
16, 226915, Note_on_c, 11, 82, 0
16, 226920, Note_on_c, 11, 82, 84
16, 226945, Note_on_c, 11, 82, 0
16, 226950, Note_on_c, 11, 82, 84
16, 226975, Note_on_c, 11, 82, 0
16, 226980, Note_on_c, 11, 82, 84
16, 227005, Note_on_c, 11, 82, 0
16, 227010, Note_on_c, 11, 82, 84
16, 227035, Note_on_c, 11, 82, 0
16, 227040, Note_on_c, 11, 82, 84
16, 227065, Note_on_c, 11, 82, 0
16, 227070, Note_on_c, 11, 82, 84
16, 227095, Note_on_c, 11, 82, 0
16, 227100, Note_on_c, 11, 82, 84
16, 227125, Note_on_c, 11, 82, 0
16, 227130, Note_on_c, 11, 82, 84
16, 227155, Note_on_c, 11, 82, 0
16, 227160, Note_on_c, 11, 82, 84
16, 227185, Note_on_c, 11, 82, 0
16, 227190, Note_on_c, 11, 82, 84
16, 227215, Note_on_c, 11, 82, 0
16, 227220, Note_on_c, 11, 82, 84
16, 227245, Note_on_c, 11, 82, 0
16, 227250, Note_on_c, 11, 82, 84
16, 227275, Note_on_c, 11, 82, 0
16, 227280, Note_on_c, 11, 82, 84
16, 227305, Note_on_c, 11, 82, 0
16, 227310, Note_on_c, 11, 82, 84
16, 227335, Note_on_c, 11, 82, 0
16, 227340, Note_on_c, 11, 82, 84
16, 227365, Note_on_c, 11, 82, 0
16, 227370, Note_on_c, 11, 82, 84
16, 227395, Note_on_c, 11, 82, 0
16, 227400, Note_on_c, 11, 82, 84
16, 227425, Note_on_c, 11, 82, 0
16, 227430, Note_on_c, 11, 82, 84
16, 227455, Note_on_c, 11, 82, 0
16, 227460, Note_on_c, 11, 82, 84
16, 227485, Note_on_c, 11, 82, 0
16, 227490, Note_on_c, 11, 82, 84
16, 227515, Note_on_c, 11, 82, 0
16, 227520, Note_on_c, 11, 82, 84
16, 227545, Note_on_c, 11, 82, 0
16, 227550, Note_on_c, 11, 82, 84
16, 227575, Note_on_c, 11, 82, 0
16, 227580, Note_on_c, 11, 82, 84
16, 227605, Note_on_c, 11, 82, 0
16, 227610, Note_on_c, 11, 82, 84
16, 227635, Note_on_c, 11, 82, 0
16, 227640, Note_on_c, 11, 82, 84
16, 227665, Note_on_c, 11, 82, 0
16, 227670, Note_on_c, 11, 82, 84
16, 227695, Note_on_c, 11, 82, 0
16, 227700, Note_on_c, 11, 82, 84
16, 227725, Note_on_c, 11, 82, 0
16, 227730, Note_on_c, 11, 82, 84
16, 227755, Note_on_c, 11, 82, 0
16, 227760, Note_on_c, 11, 82, 84
16, 227785, Note_on_c, 11, 82, 0
16, 227790, Note_on_c, 11, 82, 84
16, 227815, Note_on_c, 11, 82, 0
16, 227820, Note_on_c, 11, 82, 84
16, 227845, Note_on_c, 11, 82, 0
16, 227850, Note_on_c, 11, 82, 84
16, 227875, Note_on_c, 11, 82, 0
16, 227880, Note_on_c, 11, 82, 84
16, 227905, Note_on_c, 11, 82, 0
16, 227910, Note_on_c, 11, 82, 84
16, 227935, Note_on_c, 11, 82, 0
16, 227940, Note_on_c, 11, 82, 84
16, 227965, Note_on_c, 11, 82, 0
16, 227970, Note_on_c, 11, 82, 84
16, 227995, Note_on_c, 11, 82, 0
16, 228000, Note_on_c, 11, 82, 84
16, 228025, Note_on_c, 11, 82, 0
16, 228030, Note_on_c, 11, 82, 84
16, 228055, Note_on_c, 11, 82, 0
16, 228060, Note_on_c, 11, 82, 84
16, 228085, Note_on_c, 11, 82, 0
16, 228090, Note_on_c, 11, 82, 84
16, 228115, Note_on_c, 11, 82, 0
16, 228120, Note_on_c, 11, 82, 84
16, 228145, Note_on_c, 11, 82, 0
16, 228150, Note_on_c, 11, 82, 84
16, 228175, Note_on_c, 11, 82, 0
16, 228180, Note_on_c, 11, 82, 84
16, 228205, Note_on_c, 11, 82, 0
16, 228210, Note_on_c, 11, 82, 84
16, 228235, Note_on_c, 11, 82, 0
16, 228240, Note_on_c, 11, 82, 84
16, 228265, Note_on_c, 11, 82, 0
16, 228270, Note_on_c, 11, 82, 84
16, 228295, Note_on_c, 11, 82, 0
16, 228300, Note_on_c, 11, 82, 84
16, 228325, Note_on_c, 11, 82, 0
16, 228330, Note_on_c, 11, 82, 84
16, 228355, Note_on_c, 11, 82, 0
16, 228360, Note_on_c, 11, 82, 84
16, 228385, Note_on_c, 11, 82, 0
16, 228390, Note_on_c, 11, 82, 84
16, 228415, Note_on_c, 11, 82, 0
16, 228420, Note_on_c, 11, 82, 84
16, 228445, Note_on_c, 11, 82, 0
16, 228450, Note_on_c, 11, 82, 84
16, 228475, Note_on_c, 11, 82, 0
16, 228480, Note_on_c, 11, 82, 84
16, 228505, Note_on_c, 11, 82, 0
16, 228510, Note_on_c, 11, 82, 84
16, 228535, Note_on_c, 11, 82, 0
16, 228540, Note_on_c, 11, 82, 84
16, 228565, Note_on_c, 11, 82, 0
16, 228570, Note_on_c, 11, 82, 84
16, 228595, Note_on_c, 11, 82, 0
16, 228600, Note_on_c, 11, 82, 84
16, 228625, Note_on_c, 11, 82, 0
16, 228630, Note_on_c, 11, 82, 84
16, 228655, Note_on_c, 11, 82, 0
16, 228660, Note_on_c, 11, 82, 84
16, 228685, Note_on_c, 11, 82, 0
16, 228690, Note_on_c, 11, 82, 84
16, 228715, Note_on_c, 11, 82, 0
16, 228720, Note_on_c, 11, 82, 84
16, 228745, Note_on_c, 11, 82, 0
16, 228750, Note_on_c, 11, 82, 84
16, 228775, Note_on_c, 11, 82, 0
16, 228780, Note_on_c, 11, 82, 84
16, 228805, Note_on_c, 11, 82, 0
16, 228810, Note_on_c, 11, 82, 84
16, 228835, Note_on_c, 11, 82, 0
16, 228840, Note_on_c, 11, 82, 92
16, 228865, Note_on_c, 11, 82, 0
16, 228870, Note_on_c, 11, 82, 84
16, 228895, Note_on_c, 11, 82, 0
16, 228900, Note_on_c, 11, 82, 84
16, 228925, Note_on_c, 11, 82, 0
16, 228930, Note_on_c, 11, 82, 84
16, 228955, Note_on_c, 11, 82, 0
16, 228960, Note_on_c, 11, 82, 84
16, 228985, Note_on_c, 11, 82, 0
16, 228990, Note_on_c, 11, 82, 84
16, 229015, Note_on_c, 11, 82, 0
16, 229020, Note_on_c, 11, 82, 84
16, 229045, Note_on_c, 11, 82, 0
16, 229050, Note_on_c, 11, 82, 84
16, 229075, Note_on_c, 11, 82, 0
16, 229080, Note_on_c, 11, 82, 92
16, 229105, Note_on_c, 11, 82, 0
16, 229110, Note_on_c, 11, 82, 84
16, 229135, Note_on_c, 11, 82, 0
16, 229140, Note_on_c, 11, 82, 84
16, 229165, Note_on_c, 11, 82, 0
16, 229170, Note_on_c, 11, 82, 84
16, 229195, Note_on_c, 11, 82, 0
16, 229200, Note_on_c, 11, 82, 84
16, 229225, Note_on_c, 11, 82, 0
16, 229230, Note_on_c, 11, 82, 84
16, 229255, Note_on_c, 11, 82, 0
16, 229260, Note_on_c, 11, 82, 84
16, 229285, Note_on_c, 11, 82, 0
16, 229290, Note_on_c, 11, 82, 84
16, 229315, Note_on_c, 11, 82, 0
16, 229320, Note_on_c, 11, 82, 92
16, 229345, Note_on_c, 11, 82, 0
16, 229350, Note_on_c, 11, 82, 84
16, 229375, Note_on_c, 11, 82, 0
16, 229380, Note_on_c, 11, 82, 84
16, 229405, Note_on_c, 11, 82, 0
16, 229410, Note_on_c, 11, 82, 84
16, 229435, Note_on_c, 11, 82, 0
16, 229440, Note_on_c, 11, 82, 84
16, 229465, Note_on_c, 11, 82, 0
16, 229470, Note_on_c, 11, 82, 84
16, 229495, Note_on_c, 11, 82, 0
16, 229500, Note_on_c, 11, 82, 84
16, 229525, Note_on_c, 11, 82, 0
16, 229530, Note_on_c, 11, 82, 84
16, 229555, Note_on_c, 11, 82, 0
16, 229560, Note_on_c, 11, 82, 84
16, 229615, Note_on_c, 11, 82, 0
16, 229620, Note_on_c, 11, 63, 84
16, 229645, Note_on_c, 11, 63, 0
16, 229650, Note_on_c, 11, 63, 84
16, 229675, Note_on_c, 11, 63, 0
16, 229680, Note_on_c, 11, 65, 84
16, 229705, Note_on_c, 11, 65, 0
16, 229710, Note_on_c, 11, 65, 84
16, 229735, Note_on_c, 11, 65, 0
16, 229740, Note_on_c, 11, 67, 84
16, 229765, Note_on_c, 11, 67, 0
16, 229770, Note_on_c, 11, 67, 84
16, 229795, Note_on_c, 11, 67, 0
16, 229800, Note_on_c, 11, 68, 92
16, 229825, Note_on_c, 11, 68, 0
16, 229830, Note_on_c, 11, 68, 84
16, 229855, Note_on_c, 11, 68, 0
16, 229860, Note_on_c, 11, 67, 84
16, 229885, Note_on_c, 11, 67, 0
16, 229890, Note_on_c, 11, 67, 84
16, 229915, Note_on_c, 11, 67, 0
16, 229920, Note_on_c, 11, 68, 84
16, 229945, Note_on_c, 11, 68, 0
16, 229950, Note_on_c, 11, 68, 84
16, 229975, Note_on_c, 11, 68, 0
16, 229980, Note_on_c, 11, 69, 84
16, 230005, Note_on_c, 11, 69, 0
16, 230010, Note_on_c, 11, 69, 84
16, 230035, Note_on_c, 11, 69, 0
16, 230040, Note_on_c, 11, 70, 92
16, 230065, Note_on_c, 11, 70, 0
16, 230070, Note_on_c, 11, 70, 84
16, 230095, Note_on_c, 11, 70, 0
16, 230100, Note_on_c, 11, 69, 84
16, 230125, Note_on_c, 11, 69, 0
16, 230130, Note_on_c, 11, 69, 84
16, 230155, Note_on_c, 11, 69, 0
16, 230160, Note_on_c, 11, 70, 84
16, 230185, Note_on_c, 11, 70, 0
16, 230190, Note_on_c, 11, 70, 84
16, 230215, Note_on_c, 11, 70, 0
16, 230220, Note_on_c, 11, 71, 84
16, 230245, Note_on_c, 11, 71, 0
16, 230250, Note_on_c, 11, 71, 84
16, 230275, Note_on_c, 11, 71, 0
16, 230280, Note_on_c, 11, 72, 92
16, 230305, Note_on_c, 11, 72, 0
16, 230310, Note_on_c, 11, 72, 84
16, 230335, Note_on_c, 11, 72, 0
16, 230340, Note_on_c, 11, 71, 84
16, 230365, Note_on_c, 11, 71, 0
16, 230370, Note_on_c, 11, 71, 84
16, 230395, Note_on_c, 11, 71, 0
16, 230400, Note_on_c, 11, 72, 84
16, 230425, Note_on_c, 11, 72, 0
16, 230430, Note_on_c, 11, 72, 84
16, 230455, Note_on_c, 11, 72, 0
16, 230460, Note_on_c, 11, 74, 84
16, 230485, Note_on_c, 11, 74, 0
16, 230490, Note_on_c, 11, 74, 84
16, 230515, Note_on_c, 11, 74, 0
16, 230520, Note_on_c, 11, 75, 84
16, 230545, Note_on_c, 11, 75, 0
16, 230550, Note_on_c, 11, 75, 84
16, 230575, Note_on_c, 11, 75, 0
16, 230580, Note_on_c, 11, 72, 84
16, 230605, Note_on_c, 11, 72, 0
16, 230610, Note_on_c, 11, 72, 84
16, 230635, Note_on_c, 11, 72, 0
16, 230640, Note_on_c, 11, 71, 84
16, 230665, Note_on_c, 11, 71, 0
16, 230670, Note_on_c, 11, 71, 84
16, 230695, Note_on_c, 11, 71, 0
16, 230700, Note_on_c, 11, 72, 84
16, 230725, Note_on_c, 11, 72, 0
16, 230730, Note_on_c, 11, 72, 84
16, 230755, Note_on_c, 11, 72, 0
16, 230760, Note_on_c, 11, 67, 84
16, 230785, Note_on_c, 11, 67, 0
16, 230790, Note_on_c, 11, 67, 84
16, 230815, Note_on_c, 11, 67, 0
16, 230820, Note_on_c, 11, 68, 84
16, 230845, Note_on_c, 11, 68, 0
16, 230850, Note_on_c, 11, 68, 84
16, 230875, Note_on_c, 11, 68, 0
16, 230880, Note_on_c, 11, 72, 84
16, 230905, Note_on_c, 11, 72, 0
16, 230910, Note_on_c, 11, 72, 84
16, 230935, Note_on_c, 11, 72, 0
16, 230940, Note_on_c, 11, 68, 84
16, 230965, Note_on_c, 11, 68, 0
16, 230970, Note_on_c, 11, 68, 84
16, 230995, Note_on_c, 11, 68, 0
16, 231000, Note_on_c, 11, 64, 84
16, 231025, Note_on_c, 11, 64, 0
16, 231030, Note_on_c, 11, 64, 84
16, 231055, Note_on_c, 11, 64, 0
16, 231060, Note_on_c, 11, 65, 84
16, 231085, Note_on_c, 11, 65, 0
16, 231090, Note_on_c, 11, 65, 84
16, 231115, Note_on_c, 11, 65, 0
16, 231120, Note_on_c, 11, 68, 84
16, 231145, Note_on_c, 11, 68, 0
16, 231150, Note_on_c, 11, 68, 84
16, 231175, Note_on_c, 11, 68, 0
16, 231180, Note_on_c, 11, 65, 84
16, 231205, Note_on_c, 11, 65, 0
16, 231210, Note_on_c, 11, 65, 84
16, 231235, Note_on_c, 11, 65, 0
16, 231240, Note_on_c, 11, 69, 84
16, 231265, Note_on_c, 11, 69, 0
16, 231270, Note_on_c, 11, 69, 84
16, 231295, Note_on_c, 11, 69, 0
16, 231300, Note_on_c, 11, 70, 84
16, 231325, Note_on_c, 11, 70, 0
16, 231330, Note_on_c, 11, 70, 84
16, 231355, Note_on_c, 11, 70, 0
16, 231360, Note_on_c, 11, 74, 84
16, 231385, Note_on_c, 11, 74, 0
16, 231390, Note_on_c, 11, 74, 84
16, 231415, Note_on_c, 11, 74, 0
16, 231420, Note_on_c, 11, 70, 84
16, 231445, Note_on_c, 11, 70, 0
16, 231450, Note_on_c, 11, 70, 84
16, 231475, Note_on_c, 11, 70, 0
16, 231480, Note_on_c, 11, 71, 92
16, 231505, Note_on_c, 11, 71, 0
16, 231510, Note_on_c, 11, 71, 84
16, 231535, Note_on_c, 11, 71, 0
16, 231540, Note_on_c, 11, 72, 84
16, 231565, Note_on_c, 11, 72, 0
16, 231570, Note_on_c, 11, 72, 84
16, 231595, Note_on_c, 11, 72, 0
16, 231600, Note_on_c, 11, 75, 84
16, 231625, Note_on_c, 11, 75, 0
16, 231630, Note_on_c, 11, 75, 84
16, 231655, Note_on_c, 11, 75, 0
16, 231660, Note_on_c, 11, 72, 84
16, 231685, Note_on_c, 11, 72, 0
16, 231690, Note_on_c, 11, 72, 84
16, 231715, Note_on_c, 11, 72, 0
16, 231720, Note_on_c, 11, 67, 84
16, 231745, Note_on_c, 11, 67, 0
16, 231750, Note_on_c, 11, 67, 84
16, 231775, Note_on_c, 11, 67, 0
16, 231780, Note_on_c, 11, 68, 84
16, 231805, Note_on_c, 11, 68, 0
16, 231810, Note_on_c, 11, 68, 84
16, 231835, Note_on_c, 11, 68, 0
16, 231840, Note_on_c, 11, 72, 84
16, 231865, Note_on_c, 11, 72, 0
16, 231870, Note_on_c, 11, 72, 84
16, 231895, Note_on_c, 11, 72, 0
16, 231900, Note_on_c, 11, 68, 84
16, 231925, Note_on_c, 11, 68, 0
16, 231930, Note_on_c, 11, 68, 84
16, 231955, Note_on_c, 11, 68, 0
16, 231960, Note_on_c, 11, 64, 84
16, 231985, Note_on_c, 11, 64, 0
16, 231990, Note_on_c, 11, 64, 84
16, 232015, Note_on_c, 11, 64, 0
16, 232020, Note_on_c, 11, 65, 84
16, 232045, Note_on_c, 11, 65, 0
16, 232050, Note_on_c, 11, 65, 84
16, 232075, Note_on_c, 11, 65, 0
16, 232080, Note_on_c, 11, 68, 84
16, 232105, Note_on_c, 11, 68, 0
16, 232110, Note_on_c, 11, 68, 84
16, 232135, Note_on_c, 11, 68, 0
16, 232140, Note_on_c, 11, 65, 84
16, 232165, Note_on_c, 11, 65, 0
16, 232170, Note_on_c, 11, 65, 84
16, 232195, Note_on_c, 11, 65, 0
16, 232200, Note_on_c, 11, 69, 84
16, 232225, Note_on_c, 11, 69, 0
16, 232230, Note_on_c, 11, 69, 84
16, 232255, Note_on_c, 11, 69, 0
16, 232260, Note_on_c, 11, 70, 84
16, 232285, Note_on_c, 11, 70, 0
16, 232290, Note_on_c, 11, 70, 84
16, 232315, Note_on_c, 11, 70, 0
16, 232320, Note_on_c, 11, 74, 84
16, 232345, Note_on_c, 11, 74, 0
16, 232350, Note_on_c, 11, 74, 84
16, 232375, Note_on_c, 11, 74, 0
16, 232380, Note_on_c, 11, 70, 84
16, 232405, Note_on_c, 11, 70, 0
16, 232410, Note_on_c, 11, 70, 84
16, 232435, Note_on_c, 11, 70, 0
16, 232440, Note_on_c, 11, 75, 84
16, 232495, Note_on_c, 11, 75, 0
16, 232500, Note_on_c, 11, 58, 84
16, 232525, Note_on_c, 11, 58, 0
16, 232530, Note_on_c, 11, 58, 84
16, 232555, Note_on_c, 11, 58, 0
16, 232560, Note_on_c, 11, 63, 84
16, 232585, Note_on_c, 11, 63, 0
16, 232590, Note_on_c, 11, 63, 84
16, 232615, Note_on_c, 11, 63, 0
16, 232620, Note_on_c, 11, 58, 84
16, 232645, Note_on_c, 11, 58, 0
16, 232650, Note_on_c, 11, 58, 84
16, 232675, Note_on_c, 11, 58, 0
16, 232680, Note_on_c, 11, 63, 84
16, 232705, Note_on_c, 11, 63, 0
16, 232710, Note_on_c, 11, 63, 84
16, 232735, Note_on_c, 11, 63, 0
16, 232740, Note_on_c, 11, 58, 84
16, 232765, Note_on_c, 11, 58, 0
16, 232770, Note_on_c, 11, 58, 84
16, 232795, Note_on_c, 11, 58, 0
16, 232800, Note_on_c, 11, 67, 92
16, 232825, Note_on_c, 11, 67, 0
16, 232830, Note_on_c, 11, 67, 84
16, 232855, Note_on_c, 11, 67, 0
16, 232860, Note_on_c, 11, 63, 84
16, 232885, Note_on_c, 11, 63, 0
16, 232890, Note_on_c, 11, 63, 84
16, 232915, Note_on_c, 11, 63, 0
16, 232920, Note_on_c, 11, 67, 84
16, 232945, Note_on_c, 11, 67, 0
16, 232950, Note_on_c, 11, 67, 84
16, 232975, Note_on_c, 11, 67, 0
16, 232980, Note_on_c, 11, 63, 84
16, 233005, Note_on_c, 11, 63, 0
16, 233010, Note_on_c, 11, 63, 84
16, 233035, Note_on_c, 11, 63, 0
16, 233040, Note_on_c, 11, 67, 84
16, 233065, Note_on_c, 11, 67, 0
16, 233070, Note_on_c, 11, 67, 84
16, 233095, Note_on_c, 11, 67, 0
16, 233100, Note_on_c, 11, 63, 84
16, 233125, Note_on_c, 11, 63, 0
16, 233130, Note_on_c, 11, 63, 84
16, 233155, Note_on_c, 11, 63, 0
16, 233160, Note_on_c, 11, 67, 84
16, 233185, Note_on_c, 11, 67, 0
16, 233190, Note_on_c, 11, 67, 84
16, 233215, Note_on_c, 11, 67, 0
16, 233220, Note_on_c, 11, 63, 84
16, 233245, Note_on_c, 11, 63, 0
16, 233250, Note_on_c, 11, 63, 84
16, 233275, Note_on_c, 11, 63, 0
16, 233280, Note_on_c, 11, 70, 92
16, 233305, Note_on_c, 11, 70, 0
16, 233310, Note_on_c, 11, 70, 84
16, 233335, Note_on_c, 11, 70, 0
16, 233340, Note_on_c, 11, 67, 84
16, 233365, Note_on_c, 11, 67, 0
16, 233370, Note_on_c, 11, 67, 84
16, 233395, Note_on_c, 11, 67, 0
16, 233400, Note_on_c, 11, 70, 84
16, 233425, Note_on_c, 11, 70, 0
16, 233430, Note_on_c, 11, 70, 84
16, 233455, Note_on_c, 11, 70, 0
16, 233460, Note_on_c, 11, 67, 84
16, 233485, Note_on_c, 11, 67, 0
16, 233490, Note_on_c, 11, 67, 84
16, 233515, Note_on_c, 11, 67, 0
16, 233520, Note_on_c, 11, 75, 92
16, 233545, Note_on_c, 11, 75, 0
16, 233550, Note_on_c, 11, 75, 84
16, 233575, Note_on_c, 11, 75, 0
16, 233580, Note_on_c, 11, 70, 84
16, 233605, Note_on_c, 11, 70, 0
16, 233610, Note_on_c, 11, 70, 84
16, 233635, Note_on_c, 11, 70, 0
16, 233640, Note_on_c, 11, 75, 84
16, 233665, Note_on_c, 11, 75, 0
16, 233670, Note_on_c, 11, 75, 84
16, 233695, Note_on_c, 11, 75, 0
16, 233700, Note_on_c, 11, 70, 84
16, 233725, Note_on_c, 11, 70, 0
16, 233730, Note_on_c, 11, 70, 84
16, 233755, Note_on_c, 11, 70, 0
16, 233760, Note_on_c, 11, 79, 92
16, 233785, Note_on_c, 11, 79, 0
16, 233790, Note_on_c, 11, 79, 84
16, 233815, Note_on_c, 11, 79, 0
16, 233820, Note_on_c, 11, 75, 84
16, 233845, Note_on_c, 11, 75, 0
16, 233850, Note_on_c, 11, 75, 84
16, 233875, Note_on_c, 11, 75, 0
16, 233880, Note_on_c, 11, 79, 84
16, 233905, Note_on_c, 11, 79, 0
16, 233910, Note_on_c, 11, 79, 84
16, 233935, Note_on_c, 11, 79, 0
16, 233940, Note_on_c, 11, 75, 84
16, 233965, Note_on_c, 11, 75, 0
16, 233970, Note_on_c, 11, 75, 84
16, 233995, Note_on_c, 11, 75, 0
16, 234000, Note_on_c, 11, 82, 92
16, 234025, Note_on_c, 11, 82, 0
16, 234030, Note_on_c, 11, 82, 84
16, 234055, Note_on_c, 11, 82, 0
16, 234060, Note_on_c, 11, 79, 84
16, 234085, Note_on_c, 11, 79, 0
16, 234090, Note_on_c, 11, 79, 84
16, 234115, Note_on_c, 11, 79, 0
16, 234120, Note_on_c, 11, 82, 84
16, 234145, Note_on_c, 11, 82, 0
16, 234150, Note_on_c, 11, 82, 84
16, 234175, Note_on_c, 11, 82, 0
16, 234180, Note_on_c, 11, 79, 84
16, 234205, Note_on_c, 11, 79, 0
16, 234210, Note_on_c, 11, 79, 84
16, 234235, Note_on_c, 11, 79, 0
16, 234240, Note_on_c, 11, 87, 92
16, 234265, Note_on_c, 11, 87, 0
16, 234270, Note_on_c, 11, 87, 84
16, 234295, Note_on_c, 11, 87, 0
16, 234300, Note_on_c, 11, 82, 84
16, 234325, Note_on_c, 11, 82, 0
16, 234330, Note_on_c, 11, 82, 84
16, 234355, Note_on_c, 11, 82, 0
16, 234360, Note_on_c, 11, 87, 84
16, 234385, Note_on_c, 11, 87, 0
16, 234390, Note_on_c, 11, 87, 84
16, 234415, Note_on_c, 11, 87, 0
16, 234420, Note_on_c, 11, 87, 84
16, 234445, Note_on_c, 11, 87, 0
16, 234450, Note_on_c, 11, 87, 84
16, 234475, Note_on_c, 11, 87, 0
16, 234480, Note_on_c, 11, 87, 84
16, 234505, Note_on_c, 11, 87, 0
16, 234510, Note_on_c, 11, 87, 84
16, 234535, Note_on_c, 11, 87, 0
16, 234540, Note_on_c, 11, 87, 84
16, 234565, Note_on_c, 11, 87, 0
16, 234570, Note_on_c, 11, 87, 84
16, 234595, Note_on_c, 11, 87, 0
16, 234600, Note_on_c, 11, 87, 85
16, 234625, Note_on_c, 11, 87, 0
16, 234630, Note_on_c, 11, 87, 85
16, 234655, Note_on_c, 11, 87, 0
16, 234660, Note_on_c, 11, 87, 85
16, 234685, Note_on_c, 11, 87, 0
16, 234690, Note_on_c, 11, 87, 85
16, 234715, Note_on_c, 11, 87, 0
16, 234720, Note_on_c, 11, 87, 85
16, 234745, Note_on_c, 11, 87, 0
16, 234750, Note_on_c, 11, 87, 85
16, 234775, Note_on_c, 11, 87, 0
16, 234780, Note_on_c, 11, 87, 85
16, 234805, Note_on_c, 11, 87, 0
16, 234810, Note_on_c, 11, 87, 85
16, 234835, Note_on_c, 11, 87, 0
16, 234840, Note_on_c, 11, 87, 86
16, 234865, Note_on_c, 11, 87, 0
16, 234870, Note_on_c, 11, 91, 86
16, 234895, Note_on_c, 11, 91, 0
16, 234900, Note_on_c, 11, 91, 86
16, 234925, Note_on_c, 11, 91, 0
16, 234930, Note_on_c, 11, 91, 86
16, 234955, Note_on_c, 11, 91, 0
16, 234960, Note_on_c, 11, 91, 86
16, 234985, Note_on_c, 11, 91, 0
16, 234990, Note_on_c, 11, 91, 86
16, 235015, Note_on_c, 11, 91, 0
16, 235020, Note_on_c, 11, 91, 86
16, 235045, Note_on_c, 11, 91, 0
16, 235050, Note_on_c, 11, 91, 86
16, 235075, Note_on_c, 11, 91, 0
16, 235080, Note_on_c, 11, 91, 87
16, 235105, Note_on_c, 11, 91, 0
16, 235110, Note_on_c, 11, 91, 87
16, 235135, Note_on_c, 11, 91, 0
16, 235140, Note_on_c, 11, 91, 87
16, 235165, Note_on_c, 11, 91, 0
16, 235170, Note_on_c, 11, 91, 87
16, 235195, Note_on_c, 11, 91, 0
16, 235200, Note_on_c, 11, 91, 87
16, 235225, Note_on_c, 11, 91, 0
16, 235230, Note_on_c, 11, 91, 87
16, 235255, Note_on_c, 11, 91, 0
16, 235260, Note_on_c, 11, 91, 87
16, 235285, Note_on_c, 11, 91, 0
16, 235290, Note_on_c, 11, 91, 87
16, 235315, Note_on_c, 11, 91, 0
16, 235320, Note_on_c, 11, 91, 88
16, 235345, Note_on_c, 11, 91, 0
16, 235350, Note_on_c, 11, 91, 88
16, 235375, Note_on_c, 11, 91, 0
16, 235380, Note_on_c, 11, 91, 88
16, 235405, Note_on_c, 11, 91, 0
16, 235410, Note_on_c, 11, 91, 88
16, 235435, Note_on_c, 11, 91, 0
16, 235440, Note_on_c, 11, 91, 88
16, 235465, Note_on_c, 11, 91, 0
16, 235470, Note_on_c, 11, 91, 88
16, 235495, Note_on_c, 11, 91, 0
16, 235500, Note_on_c, 11, 91, 88
16, 235525, Note_on_c, 11, 91, 0
16, 235530, Note_on_c, 11, 91, 88
16, 235555, Note_on_c, 11, 91, 0
16, 235560, Note_on_c, 11, 91, 89
16, 235585, Note_on_c, 11, 91, 0
16, 235590, Note_on_c, 11, 91, 89
16, 235615, Note_on_c, 11, 91, 0
16, 235620, Note_on_c, 11, 91, 89
16, 235645, Note_on_c, 11, 91, 0
16, 235650, Note_on_c, 11, 91, 89
16, 235675, Note_on_c, 11, 91, 0
16, 235680, Note_on_c, 11, 91, 89
16, 235705, Note_on_c, 11, 91, 0
16, 235710, Note_on_c, 11, 91, 89
16, 235735, Note_on_c, 11, 91, 0
16, 235740, Note_on_c, 11, 91, 89
16, 235765, Note_on_c, 11, 91, 0
16, 235770, Note_on_c, 11, 91, 89
16, 235795, Note_on_c, 11, 91, 0
16, 235800, Note_on_c, 11, 91, 90
16, 235825, Note_on_c, 11, 91, 0
16, 235830, Note_on_c, 11, 91, 90
16, 235855, Note_on_c, 11, 91, 0
16, 235860, Note_on_c, 11, 91, 90
16, 235885, Note_on_c, 11, 91, 0
16, 235890, Note_on_c, 11, 91, 90
16, 235915, Note_on_c, 11, 91, 0
16, 235920, Note_on_c, 11, 91, 90
16, 235945, Note_on_c, 11, 91, 0
16, 235950, Note_on_c, 11, 91, 90
16, 235975, Note_on_c, 11, 91, 0
16, 235980, Note_on_c, 11, 91, 90
16, 236005, Note_on_c, 11, 91, 0
16, 236010, Note_on_c, 11, 91, 90
16, 236035, Note_on_c, 11, 91, 0
16, 236040, Note_on_c, 11, 91, 91
16, 236065, Note_on_c, 11, 91, 0
16, 236070, Note_on_c, 11, 91, 91
16, 236095, Note_on_c, 11, 91, 0
16, 236100, Note_on_c, 11, 91, 91
16, 236125, Note_on_c, 11, 91, 0
16, 236130, Note_on_c, 11, 91, 91
16, 236155, Note_on_c, 11, 91, 0
16, 236160, Note_on_c, 11, 91, 91
16, 236185, Note_on_c, 11, 91, 0
16, 236190, Note_on_c, 11, 91, 91
16, 236215, Note_on_c, 11, 91, 0
16, 236220, Note_on_c, 11, 91, 91
16, 236245, Note_on_c, 11, 91, 0
16, 236250, Note_on_c, 11, 91, 91
16, 236275, Note_on_c, 11, 91, 0
16, 236280, Note_on_c, 11, 91, 84
16, 236511, Note_on_c, 11, 91, 0
16, 236520, Note_on_c, 11, 79, 84
16, 236520, Note_on_c, 11, 70, 84
16, 236520, Note_on_c, 11, 63, 84
16, 236520, Note_on_c, 11, 55, 84
16, 236759, Note_on_c, 11, 79, 0
16, 236759, Note_on_c, 11, 70, 0
16, 236759, Note_on_c, 11, 63, 0
16, 236759, Note_on_c, 11, 55, 0
16, 237000, Note_on_c, 11, 82, 84
16, 237000, Note_on_c, 11, 70, 84
16, 237000, Note_on_c, 11, 63, 84
16, 237000, Note_on_c, 11, 55, 84
16, 237239, Note_on_c, 11, 82, 0
16, 237239, Note_on_c, 11, 70, 0
16, 237239, Note_on_c, 11, 63, 0
16, 237239, Note_on_c, 11, 55, 0
16, 237360, Note_on_c, 11, 79, 84
16, 237360, Note_on_c, 11, 70, 84
16, 237360, Note_on_c, 11, 63, 84
16, 237360, Note_on_c, 11, 55, 84
16, 237479, Note_on_c, 11, 79, 0
16, 237479, Note_on_c, 11, 70, 0
16, 237479, Note_on_c, 11, 63, 0
16, 237479, Note_on_c, 11, 55, 0
16, 237600, Note_on_c, 11, 82, 84
16, 237600, Note_on_c, 11, 70, 84
16, 237600, Note_on_c, 11, 63, 84
16, 237600, Note_on_c, 11, 55, 84
16, 237719, Note_on_c, 11, 82, 0
16, 237719, Note_on_c, 11, 70, 0
16, 237719, Note_on_c, 11, 63, 0
16, 237719, Note_on_c, 11, 55, 0
16, 237840, Note_on_c, 11, 82, 84
16, 237840, Note_on_c, 11, 70, 84
16, 237840, Note_on_c, 11, 63, 84
16, 237840, Note_on_c, 11, 55, 84
16, 237959, Note_on_c, 11, 82, 0
16, 237959, Note_on_c, 11, 70, 0
16, 237959, Note_on_c, 11, 63, 0
16, 237959, Note_on_c, 11, 55, 0
16, 238080, Note_on_c, 11, 82, 84
16, 238080, Note_on_c, 11, 70, 84
16, 238080, Note_on_c, 11, 63, 84
16, 238080, Note_on_c, 11, 55, 84
16, 238199, Note_on_c, 11, 82, 0
16, 238199, Note_on_c, 11, 70, 0
16, 238199, Note_on_c, 11, 63, 0
16, 238199, Note_on_c, 11, 55, 0
16, 238440, Note_on_c, 11, 82, 84
16, 238440, Note_on_c, 11, 70, 84
16, 238440, Note_on_c, 11, 63, 84
16, 238440, Note_on_c, 11, 55, 84
16, 238559, Note_on_c, 11, 82, 0
16, 238559, Note_on_c, 11, 70, 0
16, 238559, Note_on_c, 11, 63, 0
16, 238559, Note_on_c, 11, 55, 0
16, 238920, Note_on_c, 11, 87, 84
16, 238920, Note_on_c, 11, 79, 84
16, 238920, Note_on_c, 11, 70, 84
16, 239039, Note_on_c, 11, 87, 0
16, 239039, Note_on_c, 11, 79, 0
16, 239039, Note_on_c, 11, 70, 0
16, 239280, Note_on_c, 11, 87, 84
16, 239280, Note_on_c, 11, 79, 84
16, 239280, Note_on_c, 11, 70, 84
16, 239399, Note_on_c, 11, 87, 0
16, 239399, Note_on_c, 11, 79, 0
16, 239399, Note_on_c, 11, 70, 0
16, 239520, Note_on_c, 11, 87, 84
16, 239520, Note_on_c, 11, 79, 84
16, 239520, Note_on_c, 11, 70, 84
16, 239639, Note_on_c, 11, 87, 0
16, 239639, Note_on_c, 11, 79, 0
16, 239639, Note_on_c, 11, 70, 0
16, 239760, Note_on_c, 11, 87, 84
16, 239760, Note_on_c, 11, 79, 84
16, 239760, Note_on_c, 11, 70, 84
16, 239879, Note_on_c, 11, 87, 0
16, 239879, Note_on_c, 11, 79, 0
16, 239879, Note_on_c, 11, 70, 0
16, 240000, Note_on_c, 11, 87, 84
16, 240000, Note_on_c, 11, 79, 84
16, 240000, Note_on_c, 11, 70, 84
16, 240111, Note_on_c, 11, 87, 0
16, 240111, Note_on_c, 11, 79, 0
16, 240111, Note_on_c, 11, 70, 0
16, 240120, Note_on_c, 11, 87, 84
16, 240120, Note_on_c, 11, 79, 84
16, 240120, Note_on_c, 11, 70, 84
16, 240239, Note_on_c, 11, 87, 0
16, 240239, Note_on_c, 11, 79, 0
16, 240239, Note_on_c, 11, 70, 0
16, 240660, Note_on_c, 11, 75, 84
16, 240685, Note_on_c, 11, 75, 0
16, 240690, Note_on_c, 11, 75, 84
16, 240715, Note_on_c, 11, 75, 0
16, 240720, Note_on_c, 11, 77, 84
16, 240745, Note_on_c, 11, 77, 0
16, 240750, Note_on_c, 11, 77, 84
16, 240775, Note_on_c, 11, 77, 0
16, 240780, Note_on_c, 11, 79, 84
16, 240805, Note_on_c, 11, 79, 0
16, 240810, Note_on_c, 11, 79, 84
16, 240835, Note_on_c, 11, 79, 0
16, 240840, Note_on_c, 11, 80, 84
16, 240865, Note_on_c, 11, 80, 0
16, 240870, Note_on_c, 11, 80, 84
16, 240895, Note_on_c, 11, 80, 0
16, 240900, Note_on_c, 11, 82, 84
16, 240925, Note_on_c, 11, 82, 0
16, 240930, Note_on_c, 11, 82, 84
16, 240955, Note_on_c, 11, 82, 0
16, 240960, Note_on_c, 11, 84, 84
16, 240985, Note_on_c, 11, 84, 0
16, 240990, Note_on_c, 11, 84, 84
16, 241015, Note_on_c, 11, 84, 0
16, 241020, Note_on_c, 11, 86, 84
16, 241045, Note_on_c, 11, 86, 0
16, 241050, Note_on_c, 11, 86, 84
16, 241075, Note_on_c, 11, 86, 0
16, 241080, Note_on_c, 11, 87, 84
16, 241199, Note_on_c, 11, 87, 0
16, 241560, Note_on_c, 11, 82, 84
16, 241560, Note_on_c, 11, 70, 84
16, 241560, Note_on_c, 11, 63, 84
16, 241560, Note_on_c, 11, 55, 84
16, 241679, Note_on_c, 11, 82, 0
16, 241679, Note_on_c, 11, 70, 0
16, 241679, Note_on_c, 11, 63, 0
16, 241679, Note_on_c, 11, 55, 0
16, 242040, Note_on_c, 11, 75, 84
16, 242040, Note_on_c, 11, 63, 84
16, 242040, Note_on_c, 11, 55, 84
16, 242279, Note_on_c, 11, 75, 0
16, 242279, Note_on_c, 11, 63, 0
16, 242279, Note_on_c, 11, 55, 0
16, 242279, End_track
17, 0, Start_track
17, 0, Title_t, "Violin II"
17, 0, MIDI_port, 0
17, 0, Program_c, 12, 48
17, 0, Control_c, 12, 7, 96
17, 0, Control_c, 12, 10, 24
17, 0, Control_c, 12, 11, 127
17, 120, Note_on_c, 12, 62, 84
17, 120, Note_on_c, 12, 74, 84
17, 411, Note_on_c, 12, 74, 0
17, 420, Note_on_c, 12, 72, 84
17, 464, Note_on_c, 12, 62, 0
17, 471, Note_on_c, 12, 72, 0
17, 480, Note_on_c, 12, 70, 84
17, 531, Note_on_c, 12, 70, 0
17, 540, Note_on_c, 12, 69, 84
17, 591, Note_on_c, 12, 69, 0
17, 600, Note_on_c, 12, 70, 84
17, 651, Note_on_c, 12, 70, 0
17, 660, Note_on_c, 12, 69, 84
17, 711, Note_on_c, 12, 69, 0
17, 720, Note_on_c, 12, 67, 84
17, 771, Note_on_c, 12, 67, 0
17, 780, Note_on_c, 12, 66, 84
17, 831, Note_on_c, 12, 66, 0
17, 840, Note_on_c, 12, 67, 84
17, 891, Note_on_c, 12, 67, 0
17, 900, Note_on_c, 12, 65, 84
17, 951, Note_on_c, 12, 65, 0
17, 960, Note_on_c, 12, 63, 84
17, 1011, Note_on_c, 12, 63, 0
17, 1020, Note_on_c, 12, 62, 84
17, 1071, Note_on_c, 12, 62, 0
17, 1080, Note_on_c, 12, 63, 84
17, 1131, Note_on_c, 12, 63, 0
17, 1140, Note_on_c, 12, 74, 84
17, 1191, Note_on_c, 12, 74, 0
17, 1200, Note_on_c, 12, 72, 84
17, 1251, Note_on_c, 12, 72, 0
17, 1260, Note_on_c, 12, 70, 84
17, 1311, Note_on_c, 12, 70, 0
17, 1320, Note_on_c, 12, 72, 84
17, 1371, Note_on_c, 12, 72, 0
17, 1380, Note_on_c, 12, 70, 84
17, 1431, Note_on_c, 12, 70, 0
17, 1440, Note_on_c, 12, 69, 84
17, 1491, Note_on_c, 12, 69, 0
17, 1500, Note_on_c, 12, 67, 84
17, 1551, Note_on_c, 12, 67, 0
17, 1560, Note_on_c, 12, 68, 84
17, 1611, Note_on_c, 12, 68, 0
17, 1620, Note_on_c, 12, 70, 84
17, 1671, Note_on_c, 12, 70, 0
17, 1680, Note_on_c, 12, 72, 84
17, 1731, Note_on_c, 12, 72, 0
17, 1740, Note_on_c, 12, 70, 84
17, 1791, Note_on_c, 12, 70, 0
17, 1800, Note_on_c, 12, 68, 84
17, 1851, Note_on_c, 12, 68, 0
17, 1860, Note_on_c, 12, 70, 84
17, 1911, Note_on_c, 12, 70, 0
17, 1920, Note_on_c, 12, 68, 84
17, 1971, Note_on_c, 12, 68, 0
17, 1980, Note_on_c, 12, 67, 84
17, 2031, Note_on_c, 12, 67, 0
17, 2040, Note_on_c, 12, 65, 84
17, 2091, Note_on_c, 12, 65, 0
17, 2100, Note_on_c, 12, 67, 84
17, 2151, Note_on_c, 12, 67, 0
17, 2160, Note_on_c, 12, 68, 84
17, 2211, Note_on_c, 12, 68, 0
17, 2220, Note_on_c, 12, 70, 84
17, 2271, Note_on_c, 12, 70, 0
17, 2280, Note_on_c, 12, 68, 84
17, 2331, Note_on_c, 12, 68, 0
17, 2340, Note_on_c, 12, 67, 84
17, 2391, Note_on_c, 12, 67, 0
17, 2400, Note_on_c, 12, 65, 84
17, 2451, Note_on_c, 12, 65, 0
17, 2460, Note_on_c, 12, 63, 84
17, 2511, Note_on_c, 12, 63, 0
17, 2520, Note_on_c, 12, 62, 84
17, 2639, Note_on_c, 12, 62, 0
17, 2700, Note_on_c, 12, 68, 84
17, 2751, Note_on_c, 12, 68, 0
17, 2760, Note_on_c, 12, 68, 84
17, 2879, Note_on_c, 12, 68, 0
17, 2940, Note_on_c, 12, 74, 84
17, 2991, Note_on_c, 12, 74, 0
17, 3000, Note_on_c, 12, 74, 84
17, 3239, Note_on_c, 12, 74, 0
17, 3480, Note_on_c, 12, 62, 84
17, 3480, Note_on_c, 12, 70, 84
17, 3480, Note_on_c, 12, 77, 84
17, 3659, Note_on_c, 12, 62, 0
17, 3659, Note_on_c, 12, 70, 0
17, 3659, Note_on_c, 12, 77, 0
17, 3720, Note_on_c, 12, 62, 84
17, 3720, Note_on_c, 12, 77, 84
17, 3720, Note_on_c, 12, 70, 84
17, 3899, Note_on_c, 12, 62, 0
17, 3899, Note_on_c, 12, 77, 0
17, 3899, Note_on_c, 12, 70, 0
17, 3960, Note_on_c, 12, 70, 92
17, 3960, Note_on_c, 12, 77, 92
17, 3960, Note_on_c, 12, 62, 92
17, 4139, Note_on_c, 12, 70, 0
17, 4139, Note_on_c, 12, 77, 0
17, 4139, Note_on_c, 12, 62, 0
17, 4440, Note_on_c, 12, 65, 92
17, 4440, Note_on_c, 12, 58, 92
17, 4440, Note_on_c, 12, 74, 92
17, 4679, Note_on_c, 12, 65, 0
17, 4679, Note_on_c, 12, 58, 0
17, 4679, Note_on_c, 12, 74, 0
17, 4920, Note_on_c, 12, 56, 92
17, 5339, Note_on_c, 12, 56, 0
17, 5398, Program_c, 12, 45
17, 5400, Note_on_c, 12, 63, 44
17, 5519, Note_on_c, 12, 63, 0
17, 5880, Note_on_c, 12, 70, 44
17, 5999, Note_on_c, 12, 70, 0
17, 6360, Note_on_c, 12, 58, 44
17, 6479, Note_on_c, 12, 58, 0
17, 6840, Note_on_c, 12, 63, 44
17, 6959, Note_on_c, 12, 63, 0
17, 7320, Note_on_c, 12, 63, 44
17, 7439, Note_on_c, 12, 63, 0
17, 7560, Note_on_c, 12, 62, 44
17, 7679, Note_on_c, 12, 62, 0
17, 7800, Note_on_c, 12, 63, 44
17, 8039, Note_on_c, 12, 63, 0
17, 8160, Note_on_c, 12, 64, 44
17, 8279, Note_on_c, 12, 64, 0
17, 8280, Note_on_c, 12, 65, 44
17, 8399, Note_on_c, 12, 65, 0
17, 8400, Note_on_c, 12, 62, 44
17, 8519, Note_on_c, 12, 62, 0
17, 8520, Note_on_c, 12, 63, 44
17, 8639, Note_on_c, 12, 63, 0
17, 8640, Note_on_c, 12, 57, 44
17, 8759, Note_on_c, 12, 57, 0
17, 8760, Note_on_c, 12, 58, 44
17, 8999, Note_on_c, 12, 58, 0
17, 9240, Note_on_c, 12, 63, 44
17, 9479, Note_on_c, 12, 63, 0
17, 9720, Note_on_c, 12, 70, 44
17, 9959, Note_on_c, 12, 70, 0
17, 10200, Note_on_c, 12, 58, 44
17, 10439, Note_on_c, 12, 58, 0
17, 10680, Note_on_c, 12, 63, 44
17, 10919, Note_on_c, 12, 63, 0
17, 11160, Note_on_c, 12, 63, 44
17, 11279, Note_on_c, 12, 63, 0
17, 11400, Note_on_c, 12, 62, 44
17, 11519, Note_on_c, 12, 62, 0
17, 11640, Note_on_c, 12, 63, 44
17, 11759, Note_on_c, 12, 63, 0
17, 12000, Note_on_c, 12, 64, 44
17, 12119, Note_on_c, 12, 64, 0
17, 12120, Note_on_c, 12, 65, 44
17, 12209, Note_on_c, 12, 65, 0
17, 12240, Note_on_c, 12, 62, 44
17, 12329, Note_on_c, 12, 62, 0
17, 12360, Note_on_c, 12, 63, 44
17, 12449, Note_on_c, 12, 63, 0
17, 12480, Note_on_c, 12, 57, 44
17, 12569, Note_on_c, 12, 57, 0
17, 12600, Note_on_c, 12, 58, 44
17, 12779, Note_on_c, 12, 58, 0
17, 14880, Note_on_c, 12, 68, 44
17, 14999, Note_on_c, 12, 68, 0
17, 15000, Note_on_c, 12, 67, 44
17, 15119, Note_on_c, 12, 67, 0
17, 15480, Note_on_c, 12, 68, 44
17, 15599, Note_on_c, 12, 68, 0
17, 15960, Note_on_c, 12, 70, 44
17, 16079, Note_on_c, 12, 70, 0
17, 16200, Note_on_c, 12, 70, 44
17, 16319, Note_on_c, 12, 70, 0
17, 16440, Note_on_c, 12, 63, 44
17, 16559, Note_on_c, 12, 63, 0
17, 16800, Program_c, 12, 48
17, 16920, Note_on_c, 12, 70, 84
17, 16920, Note_on_c, 12, 82, 84
17, 17024, Note_on_c, 12, 70, 0
17, 17024, Note_on_c, 12, 82, 0
17, 17040, Note_on_c, 12, 70, 84
17, 17040, Note_on_c, 12, 82, 84
17, 17144, Note_on_c, 12, 70, 0
17, 17144, Note_on_c, 12, 82, 0
17, 17160, Note_on_c, 12, 70, 84
17, 17160, Note_on_c, 12, 82, 84
17, 17279, Note_on_c, 12, 70, 0
17, 17279, Note_on_c, 12, 82, 0
17, 17880, Note_on_c, 12, 82, 52
17, 17880, Note_on_c, 12, 70, 52
17, 18239, Note_on_c, 12, 82, 0
17, 18239, Note_on_c, 12, 70, 0
17, 18240, Program_c, 12, 45
17, 18720, Note_on_c, 12, 68, 52
17, 18839, Note_on_c, 12, 68, 0
17, 18840, Note_on_c, 12, 67, 52
17, 18959, Note_on_c, 12, 67, 0
17, 19320, Note_on_c, 12, 68, 52
17, 19439, Note_on_c, 12, 68, 0
17, 19800, Note_on_c, 12, 70, 52
17, 19919, Note_on_c, 12, 70, 0
17, 20040, Note_on_c, 12, 70, 52
17, 20159, Note_on_c, 12, 70, 0
17, 20280, Note_on_c, 12, 63, 52
17, 20399, Note_on_c, 12, 63, 0
17, 20730, Program_c, 12, 48
17, 20760, Note_on_c, 12, 63, 48
17, 21224, Note_on_c, 12, 63, 0
17, 21240, Note_on_c, 12, 70, 48
17, 21704, Note_on_c, 12, 70, 0
17, 21720, Note_on_c, 12, 58, 48
17, 22184, Note_on_c, 12, 58, 0
17, 22200, Note_on_c, 12, 63, 48
17, 22664, Note_on_c, 12, 63, 0
17, 22680, Note_on_c, 12, 63, 48
17, 22859, Note_on_c, 12, 63, 0
17, 22920, Note_on_c, 12, 62, 48
17, 23099, Note_on_c, 12, 62, 0
17, 23160, Note_on_c, 12, 63, 48
17, 23459, Note_on_c, 12, 63, 0
17, 23520, Note_on_c, 12, 64, 48
17, 23609, Note_on_c, 12, 64, 0
17, 23640, Note_on_c, 12, 65, 48
17, 23729, Note_on_c, 12, 65, 0
17, 23760, Note_on_c, 12, 62, 48
17, 23849, Note_on_c, 12, 62, 0
17, 23880, Note_on_c, 12, 63, 48
17, 23969, Note_on_c, 12, 63, 0
17, 24000, Note_on_c, 12, 57, 48
17, 24089, Note_on_c, 12, 57, 0
17, 24120, Note_on_c, 12, 58, 48
17, 24299, Note_on_c, 12, 58, 0
17, 24600, Note_on_c, 12, 63, 48
17, 25064, Note_on_c, 12, 63, 0
17, 25080, Note_on_c, 12, 70, 48
17, 25544, Note_on_c, 12, 70, 0
17, 25560, Note_on_c, 12, 58, 48
17, 26024, Note_on_c, 12, 58, 0
17, 26040, Note_on_c, 12, 63, 48
17, 26504, Note_on_c, 12, 63, 0
17, 26520, Note_on_c, 12, 63, 48
17, 26699, Note_on_c, 12, 63, 0
17, 26760, Note_on_c, 12, 62, 48
17, 26939, Note_on_c, 12, 62, 0
17, 27000, Note_on_c, 12, 63, 48
17, 27299, Note_on_c, 12, 63, 0
17, 27360, Note_on_c, 12, 64, 48
17, 27449, Note_on_c, 12, 64, 0
17, 27480, Note_on_c, 12, 65, 48
17, 27569, Note_on_c, 12, 65, 0
17, 27600, Note_on_c, 12, 62, 48
17, 27689, Note_on_c, 12, 62, 0
17, 27720, Note_on_c, 12, 63, 48
17, 27809, Note_on_c, 12, 63, 0
17, 27840, Note_on_c, 12, 57, 48
17, 27929, Note_on_c, 12, 57, 0
17, 27960, Note_on_c, 12, 58, 48
17, 28199, Note_on_c, 12, 58, 0
17, 28920, Note_on_c, 12, 70, 76
17, 29009, Note_on_c, 12, 70, 0
17, 29040, Note_on_c, 12, 70, 76
17, 29129, Note_on_c, 12, 70, 0
17, 29160, Note_on_c, 12, 70, 76
17, 29249, Note_on_c, 12, 70, 0
17, 29880, Note_on_c, 12, 70, 52
17, 30224, Note_on_c, 12, 70, 0
17, 30240, Note_on_c, 12, 68, 52
17, 30359, Note_on_c, 12, 68, 0
17, 30360, Note_on_c, 12, 67, 52
17, 30839, Note_on_c, 12, 67, 0
17, 30840, Note_on_c, 12, 68, 52
17, 31304, Note_on_c, 12, 68, 0
17, 31320, Note_on_c, 12, 70, 52
17, 31499, Note_on_c, 12, 70, 0
17, 31560, Note_on_c, 12, 70, 52
17, 31739, Note_on_c, 12, 70, 0
17, 31800, Note_on_c, 12, 63, 52
17, 32039, Note_on_c, 12, 63, 0
17, 32760, Note_on_c, 12, 70, 76
17, 32849, Note_on_c, 12, 70, 0
17, 32880, Note_on_c, 12, 70, 76
17, 32969, Note_on_c, 12, 70, 0
17, 33000, Note_on_c, 12, 70, 76
17, 33089, Note_on_c, 12, 70, 0
17, 33720, Note_on_c, 12, 70, 52
17, 34064, Note_on_c, 12, 70, 0
17, 34080, Note_on_c, 12, 68, 52
17, 34199, Note_on_c, 12, 68, 0
17, 34200, Note_on_c, 12, 67, 52
17, 34679, Note_on_c, 12, 67, 0
17, 34680, Note_on_c, 12, 68, 52
17, 35144, Note_on_c, 12, 68, 0
17, 35160, Note_on_c, 12, 70, 52
17, 35339, Note_on_c, 12, 70, 0
17, 35400, Note_on_c, 12, 70, 52
17, 35579, Note_on_c, 12, 70, 0
17, 35640, Note_on_c, 12, 63, 52
17, 35879, Note_on_c, 12, 63, 0
17, 37160, Note_on_c, 12, 58, 52
17, 37219, Note_on_c, 12, 58, 0
17, 37240, Note_on_c, 12, 60, 52
17, 37299, Note_on_c, 12, 60, 0
17, 37320, Note_on_c, 12, 62, 52
17, 37379, Note_on_c, 12, 62, 0
17, 37400, Note_on_c, 12, 63, 52
17, 37459, Note_on_c, 12, 63, 0
17, 37480, Note_on_c, 12, 65, 52
17, 37539, Note_on_c, 12, 65, 0
17, 37560, Note_on_c, 12, 67, 52
17, 37619, Note_on_c, 12, 67, 0
17, 37640, Note_on_c, 12, 70, 52
17, 37699, Note_on_c, 12, 70, 0
17, 37720, Note_on_c, 12, 72, 52
17, 37779, Note_on_c, 12, 72, 0
17, 37800, Note_on_c, 12, 74, 52
17, 37859, Note_on_c, 12, 74, 0
17, 37880, Note_on_c, 12, 75, 52
17, 37939, Note_on_c, 12, 75, 0
17, 37960, Note_on_c, 12, 77, 52
17, 38019, Note_on_c, 12, 77, 0
17, 38040, Note_on_c, 12, 79, 52
17, 38111, Note_on_c, 12, 79, 0
17, 38120, Note_on_c, 12, 70, 53
17, 38191, Note_on_c, 12, 70, 0
17, 38200, Note_on_c, 12, 70, 54
17, 38271, Note_on_c, 12, 70, 0
17, 38280, Note_on_c, 12, 70, 56
17, 38351, Note_on_c, 12, 70, 0
17, 38360, Note_on_c, 12, 70, 57
17, 38431, Note_on_c, 12, 70, 0
17, 38440, Note_on_c, 12, 70, 58
17, 38511, Note_on_c, 12, 70, 0
17, 38520, Note_on_c, 12, 70, 60
17, 38591, Note_on_c, 12, 70, 0
17, 38600, Note_on_c, 12, 70, 61
17, 38671, Note_on_c, 12, 70, 0
17, 38680, Note_on_c, 12, 70, 62
17, 38751, Note_on_c, 12, 70, 0
17, 38760, Note_on_c, 12, 70, 64
17, 38831, Note_on_c, 12, 70, 0
17, 38840, Note_on_c, 12, 70, 65
17, 38911, Note_on_c, 12, 70, 0
17, 38920, Note_on_c, 12, 70, 66
17, 38991, Note_on_c, 12, 70, 0
17, 39000, Note_on_c, 12, 68, 52
17, 39071, Note_on_c, 12, 68, 0
17, 39080, Note_on_c, 12, 68, 52
17, 39151, Note_on_c, 12, 68, 0
17, 39160, Note_on_c, 12, 68, 52
17, 39231, Note_on_c, 12, 68, 0
17, 39240, Note_on_c, 12, 67, 52
17, 39311, Note_on_c, 12, 67, 0
17, 39320, Note_on_c, 12, 67, 52
17, 39391, Note_on_c, 12, 67, 0
17, 39400, Note_on_c, 12, 66, 52
17, 39471, Note_on_c, 12, 66, 0
17, 39480, Note_on_c, 12, 65, 52
17, 39719, Note_on_c, 12, 65, 0
17, 41000, Note_on_c, 12, 58, 52
17, 41059, Note_on_c, 12, 58, 0
17, 41080, Note_on_c, 12, 60, 52
17, 41139, Note_on_c, 12, 60, 0
17, 41160, Note_on_c, 12, 62, 52
17, 41219, Note_on_c, 12, 62, 0
17, 41240, Note_on_c, 12, 63, 52
17, 41299, Note_on_c, 12, 63, 0
17, 41320, Note_on_c, 12, 65, 52
17, 41379, Note_on_c, 12, 65, 0
17, 41400, Note_on_c, 12, 67, 52
17, 41459, Note_on_c, 12, 67, 0
17, 41480, Note_on_c, 12, 70, 52
17, 41539, Note_on_c, 12, 70, 0
17, 41560, Note_on_c, 12, 72, 52
17, 41619, Note_on_c, 12, 72, 0
17, 41640, Note_on_c, 12, 74, 52
17, 41699, Note_on_c, 12, 74, 0
17, 41720, Note_on_c, 12, 75, 52
17, 41779, Note_on_c, 12, 75, 0
17, 41800, Note_on_c, 12, 77, 52
17, 41859, Note_on_c, 12, 77, 0
17, 41880, Note_on_c, 12, 79, 52
17, 41951, Note_on_c, 12, 79, 0
17, 41960, Note_on_c, 12, 70, 53
17, 42031, Note_on_c, 12, 70, 0
17, 42040, Note_on_c, 12, 70, 54
17, 42111, Note_on_c, 12, 70, 0
17, 42120, Note_on_c, 12, 70, 56
17, 42191, Note_on_c, 12, 70, 0
17, 42200, Note_on_c, 12, 70, 57
17, 42271, Note_on_c, 12, 70, 0
17, 42280, Note_on_c, 12, 70, 58
17, 42351, Note_on_c, 12, 70, 0
17, 42360, Note_on_c, 12, 70, 60
17, 42431, Note_on_c, 12, 70, 0
17, 42440, Note_on_c, 12, 70, 61
17, 42511, Note_on_c, 12, 70, 0
17, 42520, Note_on_c, 12, 70, 62
17, 42591, Note_on_c, 12, 70, 0
17, 42600, Note_on_c, 12, 70, 64
17, 42671, Note_on_c, 12, 70, 0
17, 42680, Note_on_c, 12, 70, 65
17, 42751, Note_on_c, 12, 70, 0
17, 42760, Note_on_c, 12, 70, 66
17, 42831, Note_on_c, 12, 70, 0
17, 42840, Note_on_c, 12, 68, 52
17, 42911, Note_on_c, 12, 68, 0
17, 42920, Note_on_c, 12, 68, 52
17, 42991, Note_on_c, 12, 68, 0
17, 43000, Note_on_c, 12, 68, 52
17, 43071, Note_on_c, 12, 68, 0
17, 43080, Note_on_c, 12, 67, 52
17, 43151, Note_on_c, 12, 67, 0
17, 43160, Note_on_c, 12, 67, 52
17, 43231, Note_on_c, 12, 67, 0
17, 43240, Note_on_c, 12, 66, 52
17, 43311, Note_on_c, 12, 66, 0
17, 43320, Note_on_c, 12, 65, 52
17, 43559, Note_on_c, 12, 65, 0
17, 43880, Note_on_c, 12, 72, 52
17, 43959, Note_on_c, 12, 72, 0
17, 43960, Note_on_c, 12, 70, 52
17, 44031, Note_on_c, 12, 70, 0
17, 44040, Note_on_c, 12, 68, 52
17, 44099, Note_on_c, 12, 68, 0
17, 44120, Note_on_c, 12, 68, 52
17, 44199, Note_on_c, 12, 68, 0
17, 44200, Note_on_c, 12, 67, 52
17, 44271, Note_on_c, 12, 67, 0
17, 44280, Note_on_c, 12, 65, 52
17, 44339, Note_on_c, 12, 65, 0
17, 44360, Note_on_c, 12, 65, 52
17, 44439, Note_on_c, 12, 65, 0
17, 44440, Note_on_c, 12, 63, 52
17, 44511, Note_on_c, 12, 63, 0
17, 44520, Note_on_c, 12, 62, 52
17, 44639, Note_on_c, 12, 62, 0
17, 44840, Note_on_c, 12, 80, 54
17, 44919, Note_on_c, 12, 80, 0
17, 44920, Note_on_c, 12, 79, 57
17, 44991, Note_on_c, 12, 79, 0
17, 45000, Note_on_c, 12, 77, 60
17, 45059, Note_on_c, 12, 77, 0
17, 45080, Note_on_c, 12, 77, 62
17, 45159, Note_on_c, 12, 77, 0
17, 45160, Note_on_c, 12, 75, 65
17, 45231, Note_on_c, 12, 75, 0
17, 45240, Note_on_c, 12, 74, 52
17, 45591, Note_on_c, 12, 74, 0
17, 45600, Note_on_c, 12, 74, 52
17, 45711, Note_on_c, 12, 74, 0
17, 45720, Note_on_c, 12, 75, 52
17, 45791, Note_on_c, 12, 75, 0
17, 45800, Note_on_c, 12, 73, 53
17, 45871, Note_on_c, 12, 73, 0
17, 45880, Note_on_c, 12, 73, 54
17, 45951, Note_on_c, 12, 73, 0
17, 45960, Note_on_c, 12, 73, 56
17, 46031, Note_on_c, 12, 73, 0
17, 46040, Note_on_c, 12, 73, 57
17, 46111, Note_on_c, 12, 73, 0
17, 46120, Note_on_c, 12, 73, 58
17, 46191, Note_on_c, 12, 73, 0
17, 46200, Note_on_c, 12, 72, 60
17, 46271, Note_on_c, 12, 72, 0
17, 46280, Note_on_c, 12, 75, 61
17, 46351, Note_on_c, 12, 75, 0
17, 46360, Note_on_c, 12, 75, 62
17, 46431, Note_on_c, 12, 75, 0
17, 46440, Note_on_c, 12, 77, 64
17, 46511, Note_on_c, 12, 77, 0
17, 46520, Note_on_c, 12, 77, 65
17, 46591, Note_on_c, 12, 77, 0
17, 46600, Note_on_c, 12, 77, 66
17, 46671, Note_on_c, 12, 77, 0
17, 46680, Note_on_c, 12, 74, 52
17, 46751, Note_on_c, 12, 74, 0
17, 46760, Note_on_c, 12, 80, 52
17, 46831, Note_on_c, 12, 80, 0
17, 46840, Note_on_c, 12, 79, 52
17, 46911, Note_on_c, 12, 79, 0
17, 46920, Note_on_c, 12, 77, 52
17, 46991, Note_on_c, 12, 77, 0
17, 47000, Note_on_c, 12, 75, 52
17, 47071, Note_on_c, 12, 75, 0
17, 47080, Note_on_c, 12, 74, 52
17, 47151, Note_on_c, 12, 74, 0
17, 47160, Note_on_c, 12, 75, 52
17, 47231, Note_on_c, 12, 75, 0
17, 47240, Note_on_c, 12, 70, 52
17, 47311, Note_on_c, 12, 70, 0
17, 47320, Note_on_c, 12, 70, 52
17, 47391, Note_on_c, 12, 70, 0
17, 47400, Note_on_c, 12, 67, 52
17, 47519, Note_on_c, 12, 67, 0
17, 47720, Note_on_c, 12, 72, 52
17, 47799, Note_on_c, 12, 72, 0
17, 47800, Note_on_c, 12, 70, 52
17, 47871, Note_on_c, 12, 70, 0
17, 47880, Note_on_c, 12, 68, 52
17, 47939, Note_on_c, 12, 68, 0
17, 47960, Note_on_c, 12, 68, 52
17, 48039, Note_on_c, 12, 68, 0
17, 48040, Note_on_c, 12, 67, 52
17, 48111, Note_on_c, 12, 67, 0
17, 48120, Note_on_c, 12, 65, 52
17, 48179, Note_on_c, 12, 65, 0
17, 48200, Note_on_c, 12, 65, 52
17, 48279, Note_on_c, 12, 65, 0
17, 48280, Note_on_c, 12, 63, 52
17, 48351, Note_on_c, 12, 63, 0
17, 48360, Note_on_c, 12, 62, 52
17, 48479, Note_on_c, 12, 62, 0
17, 48680, Note_on_c, 12, 80, 54
17, 48759, Note_on_c, 12, 80, 0
17, 48760, Note_on_c, 12, 79, 57
17, 48831, Note_on_c, 12, 79, 0
17, 48840, Note_on_c, 12, 77, 60
17, 48899, Note_on_c, 12, 77, 0
17, 48920, Note_on_c, 12, 77, 62
17, 48999, Note_on_c, 12, 77, 0
17, 49000, Note_on_c, 12, 75, 65
17, 49071, Note_on_c, 12, 75, 0
17, 49080, Note_on_c, 12, 74, 52
17, 49431, Note_on_c, 12, 74, 0
17, 49440, Note_on_c, 12, 74, 52
17, 49551, Note_on_c, 12, 74, 0
17, 49560, Note_on_c, 12, 75, 52
17, 49631, Note_on_c, 12, 75, 0
17, 49640, Note_on_c, 12, 73, 53
17, 49711, Note_on_c, 12, 73, 0
17, 49720, Note_on_c, 12, 73, 54
17, 49791, Note_on_c, 12, 73, 0
17, 49800, Note_on_c, 12, 73, 56
17, 49871, Note_on_c, 12, 73, 0
17, 49880, Note_on_c, 12, 73, 57
17, 49951, Note_on_c, 12, 73, 0
17, 49960, Note_on_c, 12, 73, 58
17, 50031, Note_on_c, 12, 73, 0
17, 50040, Note_on_c, 12, 72, 60
17, 50111, Note_on_c, 12, 72, 0
17, 50120, Note_on_c, 12, 75, 61
17, 50191, Note_on_c, 12, 75, 0
17, 50200, Note_on_c, 12, 75, 62
17, 50271, Note_on_c, 12, 75, 0
17, 50280, Note_on_c, 12, 77, 64
17, 50351, Note_on_c, 12, 77, 0
17, 50360, Note_on_c, 12, 77, 65
17, 50431, Note_on_c, 12, 77, 0
17, 50440, Note_on_c, 12, 77, 66
17, 50511, Note_on_c, 12, 77, 0
17, 50520, Note_on_c, 12, 74, 52
17, 50591, Note_on_c, 12, 74, 0
17, 50600, Note_on_c, 12, 80, 52
17, 50671, Note_on_c, 12, 80, 0
17, 50680, Note_on_c, 12, 79, 52
17, 50751, Note_on_c, 12, 79, 0
17, 50760, Note_on_c, 12, 77, 52
17, 50831, Note_on_c, 12, 77, 0
17, 50840, Note_on_c, 12, 75, 52
17, 50911, Note_on_c, 12, 75, 0
17, 50920, Note_on_c, 12, 74, 52
17, 50991, Note_on_c, 12, 74, 0
17, 51000, Note_on_c, 12, 75, 52
17, 51071, Note_on_c, 12, 75, 0
17, 51080, Note_on_c, 12, 70, 52
17, 51151, Note_on_c, 12, 70, 0
17, 51160, Note_on_c, 12, 70, 52
17, 51231, Note_on_c, 12, 70, 0
17, 51240, Note_on_c, 12, 67, 52
17, 51359, Note_on_c, 12, 67, 0
17, 51600, Note_on_c, 12, 70, 52
17, 51600, Note_on_c, 12, 58, 52
17, 51704, Note_on_c, 12, 70, 0
17, 51704, Note_on_c, 12, 58, 0
17, 51720, Note_on_c, 12, 70, 52
17, 51720, Note_on_c, 12, 58, 52
17, 51824, Note_on_c, 12, 70, 0
17, 51824, Note_on_c, 12, 58, 0
17, 51840, Note_on_c, 12, 70, 52
17, 51840, Note_on_c, 12, 58, 52
17, 51959, Note_on_c, 12, 70, 0
17, 51959, Note_on_c, 12, 58, 0
17, 52080, Note_on_c, 12, 58, 52
17, 52080, Note_on_c, 12, 68, 52
17, 52184, Note_on_c, 12, 58, 0
17, 52184, Note_on_c, 12, 68, 0
17, 52200, Note_on_c, 12, 58, 52
17, 52200, Note_on_c, 12, 68, 52
17, 52304, Note_on_c, 12, 58, 0
17, 52304, Note_on_c, 12, 68, 0
17, 52320, Note_on_c, 12, 68, 52
17, 52320, Note_on_c, 12, 58, 52
17, 52439, Note_on_c, 12, 68, 0
17, 52439, Note_on_c, 12, 58, 0
17, 52560, Note_on_c, 12, 58, 52
17, 52560, Note_on_c, 12, 65, 52
17, 52664, Note_on_c, 12, 58, 0
17, 52664, Note_on_c, 12, 65, 0
17, 52680, Note_on_c, 12, 65, 52
17, 52680, Note_on_c, 12, 58, 52
17, 52784, Note_on_c, 12, 65, 0
17, 52784, Note_on_c, 12, 58, 0
17, 52800, Note_on_c, 12, 65, 52
17, 52800, Note_on_c, 12, 58, 52
17, 52919, Note_on_c, 12, 65, 0
17, 52919, Note_on_c, 12, 58, 0
17, 53040, Note_on_c, 12, 67, 52
17, 53040, Note_on_c, 12, 58, 52
17, 53144, Note_on_c, 12, 67, 0
17, 53144, Note_on_c, 12, 58, 0
17, 53160, Note_on_c, 12, 67, 52
17, 53160, Note_on_c, 12, 58, 52
17, 53264, Note_on_c, 12, 67, 0
17, 53264, Note_on_c, 12, 58, 0
17, 53280, Note_on_c, 12, 67, 52
17, 53280, Note_on_c, 12, 58, 52
17, 53384, Note_on_c, 12, 67, 0
17, 53384, Note_on_c, 12, 58, 0
17, 53400, Note_on_c, 12, 67, 52
17, 53459, Note_on_c, 12, 67, 0
17, 53460, Note_on_c, 12, 66, 54
17, 53519, Note_on_c, 12, 66, 0
17, 53520, Note_on_c, 12, 67, 56
17, 53579, Note_on_c, 12, 67, 0
17, 53580, Note_on_c, 12, 63, 58
17, 53631, Note_on_c, 12, 63, 0
17, 53640, Note_on_c, 12, 68, 60
17, 53699, Note_on_c, 12, 68, 0
17, 53700, Note_on_c, 12, 67, 62
17, 53759, Note_on_c, 12, 67, 0
17, 53760, Note_on_c, 12, 68, 64
17, 53819, Note_on_c, 12, 68, 0
17, 53820, Note_on_c, 12, 65, 66
17, 53871, Note_on_c, 12, 65, 0
17, 53880, Note_on_c, 12, 67, 76
17, 53939, Note_on_c, 12, 67, 0
17, 53940, Note_on_c, 12, 65, 68
17, 53999, Note_on_c, 12, 65, 0
17, 54000, Note_on_c, 12, 63, 68
17, 54059, Note_on_c, 12, 63, 0
17, 54060, Note_on_c, 12, 61, 68
17, 54111, Note_on_c, 12, 61, 0
17, 54120, Note_on_c, 12, 60, 68
17, 54179, Note_on_c, 12, 60, 0
17, 54180, Note_on_c, 12, 61, 68
17, 54239, Note_on_c, 12, 61, 0
17, 54240, Note_on_c, 12, 58, 68
17, 54299, Note_on_c, 12, 58, 0
17, 54300, Note_on_c, 12, 60, 68
17, 54351, Note_on_c, 12, 60, 0
17, 54360, Note_on_c, 12, 56, 68
17, 54419, Note_on_c, 12, 56, 0
17, 54420, Note_on_c, 12, 60, 66
17, 54479, Note_on_c, 12, 60, 0
17, 54480, Note_on_c, 12, 58, 64
17, 54539, Note_on_c, 12, 58, 0
17, 54540, Note_on_c, 12, 56, 62
17, 54599, Note_on_c, 12, 56, 0
17, 54600, Note_on_c, 12, 55, 60
17, 54659, Note_on_c, 12, 55, 0
17, 54660, Note_on_c, 12, 58, 58
17, 54719, Note_on_c, 12, 58, 0
17, 54720, Note_on_c, 12, 60, 56
17, 54779, Note_on_c, 12, 60, 0
17, 54780, Note_on_c, 12, 62, 54
17, 54831, Note_on_c, 12, 62, 0
17, 54840, Note_on_c, 12, 63, 52
17, 54899, Note_on_c, 12, 63, 0
17, 54900, Note_on_c, 12, 67, 52
17, 54959, Note_on_c, 12, 67, 0
17, 54960, Note_on_c, 12, 65, 52
17, 55019, Note_on_c, 12, 65, 0
17, 55020, Note_on_c, 12, 63, 52
17, 55079, Note_on_c, 12, 63, 0
17, 55080, Note_on_c, 12, 62, 52
17, 55139, Note_on_c, 12, 62, 0
17, 55140, Note_on_c, 12, 58, 52
17, 55199, Note_on_c, 12, 58, 0
17, 55200, Note_on_c, 12, 60, 52
17, 55259, Note_on_c, 12, 60, 0
17, 55260, Note_on_c, 12, 62, 52
17, 55311, Note_on_c, 12, 62, 0
17, 55320, Note_on_c, 12, 63, 76
17, 55371, Note_on_c, 12, 63, 0
17, 55380, Note_on_c, 12, 58, 76
17, 55380, Note_on_c, 12, 67, 76
17, 55431, Note_on_c, 12, 58, 0
17, 55431, Note_on_c, 12, 67, 0
17, 55440, Note_on_c, 12, 58, 76
17, 55440, Note_on_c, 12, 67, 76
17, 55491, Note_on_c, 12, 58, 0
17, 55491, Note_on_c, 12, 67, 0
17, 55500, Note_on_c, 12, 67, 76
17, 55500, Note_on_c, 12, 58, 76
17, 55551, Note_on_c, 12, 67, 0
17, 55551, Note_on_c, 12, 58, 0
17, 55560, Note_on_c, 12, 58, 76
17, 55560, Note_on_c, 12, 67, 76
17, 55611, Note_on_c, 12, 58, 0
17, 55611, Note_on_c, 12, 67, 0
17, 55620, Note_on_c, 12, 67, 76
17, 55620, Note_on_c, 12, 58, 76
17, 55671, Note_on_c, 12, 67, 0
17, 55671, Note_on_c, 12, 58, 0
17, 55680, Note_on_c, 12, 58, 76
17, 55680, Note_on_c, 12, 67, 76
17, 55731, Note_on_c, 12, 58, 0
17, 55731, Note_on_c, 12, 67, 0
17, 55740, Note_on_c, 12, 58, 76
17, 55740, Note_on_c, 12, 67, 76
17, 55791, Note_on_c, 12, 58, 0
17, 55791, Note_on_c, 12, 67, 0
17, 55800, Note_on_c, 12, 68, 76
17, 55800, Note_on_c, 12, 58, 76
17, 55851, Note_on_c, 12, 68, 0
17, 55851, Note_on_c, 12, 58, 0
17, 55860, Note_on_c, 12, 68, 76
17, 55860, Note_on_c, 12, 58, 76
17, 55911, Note_on_c, 12, 68, 0
17, 55911, Note_on_c, 12, 58, 0
17, 55920, Note_on_c, 12, 58, 76
17, 55920, Note_on_c, 12, 68, 76
17, 55971, Note_on_c, 12, 58, 0
17, 55971, Note_on_c, 12, 68, 0
17, 55980, Note_on_c, 12, 68, 76
17, 55980, Note_on_c, 12, 58, 76
17, 56031, Note_on_c, 12, 68, 0
17, 56031, Note_on_c, 12, 58, 0
17, 56040, Note_on_c, 12, 58, 76
17, 56040, Note_on_c, 12, 68, 76
17, 56091, Note_on_c, 12, 58, 0
17, 56091, Note_on_c, 12, 68, 0
17, 56100, Note_on_c, 12, 68, 76
17, 56100, Note_on_c, 12, 58, 76
17, 56151, Note_on_c, 12, 68, 0
17, 56151, Note_on_c, 12, 58, 0
17, 56160, Note_on_c, 12, 68, 76
17, 56160, Note_on_c, 12, 58, 76
17, 56211, Note_on_c, 12, 68, 0
17, 56211, Note_on_c, 12, 58, 0
17, 56220, Note_on_c, 12, 68, 76
17, 56220, Note_on_c, 12, 58, 76
17, 56271, Note_on_c, 12, 68, 0
17, 56271, Note_on_c, 12, 58, 0
17, 56280, Note_on_c, 12, 62, 76
17, 56280, Note_on_c, 12, 58, 76
17, 56331, Note_on_c, 12, 62, 0
17, 56331, Note_on_c, 12, 58, 0
17, 56340, Note_on_c, 12, 58, 76
17, 56340, Note_on_c, 12, 62, 76
17, 56391, Note_on_c, 12, 58, 0
17, 56391, Note_on_c, 12, 62, 0
17, 56400, Note_on_c, 12, 62, 76
17, 56400, Note_on_c, 12, 58, 76
17, 56451, Note_on_c, 12, 62, 0
17, 56451, Note_on_c, 12, 58, 0
17, 56460, Note_on_c, 12, 58, 76
17, 56460, Note_on_c, 12, 62, 76
17, 56511, Note_on_c, 12, 58, 0
17, 56511, Note_on_c, 12, 62, 0
17, 56520, Note_on_c, 12, 58, 76
17, 56520, Note_on_c, 12, 62, 76
17, 56571, Note_on_c, 12, 58, 0
17, 56571, Note_on_c, 12, 62, 0
17, 56580, Note_on_c, 12, 58, 76
17, 56580, Note_on_c, 12, 62, 76
17, 56631, Note_on_c, 12, 58, 0
17, 56631, Note_on_c, 12, 62, 0
17, 56640, Note_on_c, 12, 62, 76
17, 56640, Note_on_c, 12, 58, 76
17, 56691, Note_on_c, 12, 62, 0
17, 56691, Note_on_c, 12, 58, 0
17, 56700, Note_on_c, 12, 62, 76
17, 56700, Note_on_c, 12, 58, 76
17, 56751, Note_on_c, 12, 62, 0
17, 56751, Note_on_c, 12, 58, 0
17, 56760, Note_on_c, 12, 58, 76
17, 56760, Note_on_c, 12, 63, 76
17, 56811, Note_on_c, 12, 58, 0
17, 56811, Note_on_c, 12, 63, 0
17, 56820, Note_on_c, 12, 58, 76
17, 56820, Note_on_c, 12, 63, 76
17, 56871, Note_on_c, 12, 58, 0
17, 56871, Note_on_c, 12, 63, 0
17, 56880, Note_on_c, 12, 58, 76
17, 56880, Note_on_c, 12, 63, 76
17, 56931, Note_on_c, 12, 58, 0
17, 56931, Note_on_c, 12, 63, 0
17, 56940, Note_on_c, 12, 58, 76
17, 56940, Note_on_c, 12, 63, 76
17, 56991, Note_on_c, 12, 58, 0
17, 56991, Note_on_c, 12, 63, 0
17, 57000, Note_on_c, 12, 63, 76
17, 57000, Note_on_c, 12, 58, 76
17, 57051, Note_on_c, 12, 63, 0
17, 57051, Note_on_c, 12, 58, 0
17, 57060, Note_on_c, 12, 58, 76
17, 57060, Note_on_c, 12, 63, 76
17, 57111, Note_on_c, 12, 58, 0
17, 57111, Note_on_c, 12, 63, 0
17, 57120, Note_on_c, 12, 58, 76
17, 57120, Note_on_c, 12, 63, 76
17, 57171, Note_on_c, 12, 58, 0
17, 57171, Note_on_c, 12, 63, 0
17, 57180, Note_on_c, 12, 63, 76
17, 57180, Note_on_c, 12, 58, 76
17, 57231, Note_on_c, 12, 63, 0
17, 57231, Note_on_c, 12, 58, 0
17, 57240, Note_on_c, 12, 67, 76
17, 57240, Note_on_c, 12, 58, 76
17, 57291, Note_on_c, 12, 67, 0
17, 57291, Note_on_c, 12, 58, 0
17, 57300, Note_on_c, 12, 58, 76
17, 57300, Note_on_c, 12, 67, 76
17, 57351, Note_on_c, 12, 58, 0
17, 57351, Note_on_c, 12, 67, 0
17, 57360, Note_on_c, 12, 67, 76
17, 57360, Note_on_c, 12, 58, 76
17, 57411, Note_on_c, 12, 67, 0
17, 57411, Note_on_c, 12, 58, 0
17, 57420, Note_on_c, 12, 67, 76
17, 57420, Note_on_c, 12, 58, 76
17, 57471, Note_on_c, 12, 67, 0
17, 57471, Note_on_c, 12, 58, 0
17, 57480, Note_on_c, 12, 58, 76
17, 57480, Note_on_c, 12, 68, 76
17, 57531, Note_on_c, 12, 58, 0
17, 57531, Note_on_c, 12, 68, 0
17, 57540, Note_on_c, 12, 58, 76
17, 57540, Note_on_c, 12, 68, 76
17, 57591, Note_on_c, 12, 58, 0
17, 57591, Note_on_c, 12, 68, 0
17, 57600, Note_on_c, 12, 58, 76
17, 57600, Note_on_c, 12, 68, 76
17, 57651, Note_on_c, 12, 58, 0
17, 57651, Note_on_c, 12, 68, 0
17, 57660, Note_on_c, 12, 58, 76
17, 57660, Note_on_c, 12, 68, 76
17, 57711, Note_on_c, 12, 58, 0
17, 57711, Note_on_c, 12, 68, 0
17, 57720, Note_on_c, 12, 67, 84
17, 57771, Note_on_c, 12, 67, 0
17, 57780, Note_on_c, 12, 66, 76
17, 57831, Note_on_c, 12, 66, 0
17, 57840, Note_on_c, 12, 67, 76
17, 57891, Note_on_c, 12, 67, 0
17, 57900, Note_on_c, 12, 65, 76
17, 57951, Note_on_c, 12, 65, 0
17, 57960, Note_on_c, 12, 64, 76
17, 58011, Note_on_c, 12, 64, 0
17, 58020, Note_on_c, 12, 65, 76
17, 58071, Note_on_c, 12, 65, 0
17, 58080, Note_on_c, 12, 67, 76
17, 58131, Note_on_c, 12, 67, 0
17, 58140, Note_on_c, 12, 60, 76
17, 58191, Note_on_c, 12, 60, 0
17, 58200, Note_on_c, 12, 68, 76
17, 58251, Note_on_c, 12, 68, 0
17, 58260, Note_on_c, 12, 60, 76
17, 58311, Note_on_c, 12, 60, 0
17, 58320, Note_on_c, 12, 65, 76
17, 58371, Note_on_c, 12, 65, 0
17, 58380, Note_on_c, 12, 70, 76
17, 58431, Note_on_c, 12, 70, 0
17, 58440, Note_on_c, 12, 67, 76
17, 58491, Note_on_c, 12, 67, 0
17, 58500, Note_on_c, 12, 70, 76
17, 58551, Note_on_c, 12, 70, 0
17, 58560, Note_on_c, 12, 66, 76
17, 58611, Note_on_c, 12, 66, 0
17, 58620, Note_on_c, 12, 72, 76
17, 58671, Note_on_c, 12, 72, 0
17, 58680, Note_on_c, 12, 75, 76
17, 58731, Note_on_c, 12, 75, 0
17, 58740, Note_on_c, 12, 70, 76
17, 58791, Note_on_c, 12, 70, 0
17, 58800, Note_on_c, 12, 67, 76
17, 58851, Note_on_c, 12, 67, 0
17, 58860, Note_on_c, 12, 63, 76
17, 58911, Note_on_c, 12, 63, 0
17, 58920, Note_on_c, 12, 62, 76
17, 59039, Note_on_c, 12, 62, 0
17, 59640, Note_on_c, 12, 58, 76
17, 59640, Note_on_c, 12, 68, 76
17, 59729, Note_on_c, 12, 58, 0
17, 59729, Note_on_c, 12, 68, 0
17, 59760, Note_on_c, 12, 58, 76
17, 59760, Note_on_c, 12, 68, 76
17, 59849, Note_on_c, 12, 58, 0
17, 59849, Note_on_c, 12, 68, 0
17, 59880, Note_on_c, 12, 68, 76
17, 59880, Note_on_c, 12, 58, 76
17, 59969, Note_on_c, 12, 68, 0
17, 59969, Note_on_c, 12, 58, 0
17, 60600, Note_on_c, 12, 58, 52
17, 60600, Note_on_c, 12, 68, 52
17, 60959, Note_on_c, 12, 58, 0
17, 60959, Note_on_c, 12, 68, 0
17, 61200, Note_on_c, 12, 63, 52
17, 61200, Note_on_c, 12, 58, 52
17, 61304, Note_on_c, 12, 63, 0
17, 61304, Note_on_c, 12, 58, 0
17, 61320, Note_on_c, 12, 58, 52
17, 61320, Note_on_c, 12, 63, 52
17, 61424, Note_on_c, 12, 58, 0
17, 61424, Note_on_c, 12, 63, 0
17, 61440, Note_on_c, 12, 63, 52
17, 61440, Note_on_c, 12, 58, 52
17, 61559, Note_on_c, 12, 63, 0
17, 61559, Note_on_c, 12, 58, 0
17, 61680, Note_on_c, 12, 56, 52
17, 61680, Note_on_c, 12, 65, 52
17, 61784, Note_on_c, 12, 56, 0
17, 61784, Note_on_c, 12, 65, 0
17, 61800, Note_on_c, 12, 56, 52
17, 61800, Note_on_c, 12, 65, 52
17, 61904, Note_on_c, 12, 56, 0
17, 61904, Note_on_c, 12, 65, 0
17, 61920, Note_on_c, 12, 56, 52
17, 61920, Note_on_c, 12, 65, 52
17, 62039, Note_on_c, 12, 56, 0
17, 62039, Note_on_c, 12, 65, 0
17, 62160, Note_on_c, 12, 67, 52
17, 62160, Note_on_c, 12, 58, 52
17, 62279, Note_on_c, 12, 67, 0
17, 62279, Note_on_c, 12, 58, 0
17, 62400, Note_on_c, 12, 58, 52
17, 62400, Note_on_c, 12, 68, 52
17, 62504, Note_on_c, 12, 58, 0
17, 62504, Note_on_c, 12, 68, 0
17, 62520, Note_on_c, 12, 58, 52
17, 62520, Note_on_c, 12, 67, 52
17, 62759, Note_on_c, 12, 58, 0
17, 62759, Note_on_c, 12, 67, 0
17, 62880, Note_on_c, 12, 58, 76
17, 62939, Note_on_c, 12, 58, 0
17, 62940, Note_on_c, 12, 57, 76
17, 62999, Note_on_c, 12, 57, 0
17, 63000, Note_on_c, 12, 58, 76
17, 63059, Note_on_c, 12, 58, 0
17, 63060, Note_on_c, 12, 60, 76
17, 63119, Note_on_c, 12, 60, 0
17, 63120, Note_on_c, 12, 62, 76
17, 63179, Note_on_c, 12, 62, 0
17, 63180, Note_on_c, 12, 63, 76
17, 63239, Note_on_c, 12, 63, 0
17, 63240, Note_on_c, 12, 65, 76
17, 63299, Note_on_c, 12, 65, 0
17, 63300, Note_on_c, 12, 67, 76
17, 63359, Note_on_c, 12, 67, 0
17, 63360, Note_on_c, 12, 68, 76
17, 63419, Note_on_c, 12, 68, 0
17, 63420, Note_on_c, 12, 67, 76
17, 63471, Note_on_c, 12, 67, 0
17, 63480, Note_on_c, 12, 68, 76
17, 63524, Note_on_c, 12, 68, 0
17, 63540, Note_on_c, 12, 70, 76
17, 63584, Note_on_c, 12, 70, 0
17, 63600, Note_on_c, 12, 72, 76
17, 63644, Note_on_c, 12, 72, 0
17, 63660, Note_on_c, 12, 70, 76
17, 63704, Note_on_c, 12, 70, 0
17, 63720, Note_on_c, 12, 68, 76
17, 63764, Note_on_c, 12, 68, 0
17, 63780, Note_on_c, 12, 67, 76
17, 63824, Note_on_c, 12, 67, 0
17, 63840, Note_on_c, 12, 65, 76
17, 63884, Note_on_c, 12, 65, 0
17, 63900, Note_on_c, 12, 63, 76
17, 63944, Note_on_c, 12, 63, 0
17, 63960, Note_on_c, 12, 58, 76
17, 64019, Note_on_c, 12, 58, 0
17, 64020, Note_on_c, 12, 60, 76
17, 64079, Note_on_c, 12, 60, 0
17, 64080, Note_on_c, 12, 62, 76
17, 64139, Note_on_c, 12, 62, 0
17, 64140, Note_on_c, 12, 63, 76
17, 64199, Note_on_c, 12, 63, 0
17, 64200, Note_on_c, 12, 65, 76
17, 64259, Note_on_c, 12, 65, 0
17, 64260, Note_on_c, 12, 67, 76
17, 64319, Note_on_c, 12, 67, 0
17, 64320, Note_on_c, 12, 68, 76
17, 64379, Note_on_c, 12, 68, 0
17, 64380, Note_on_c, 12, 67, 76
17, 64431, Note_on_c, 12, 67, 0
17, 64440, Note_on_c, 12, 58, 76
17, 64440, Note_on_c, 12, 68, 76
17, 64799, Note_on_c, 12, 58, 0
17, 64799, Note_on_c, 12, 68, 0
17, 64800, Note_on_c, 12, 69, 76
17, 64919, Note_on_c, 12, 69, 0
17, 64920, Note_on_c, 12, 70, 76
17, 65279, Note_on_c, 12, 70, 0
17, 65280, Note_on_c, 12, 67, 76
17, 65384, Note_on_c, 12, 67, 0
17, 65400, Note_on_c, 12, 65, 76
17, 65759, Note_on_c, 12, 65, 0
17, 65760, Note_on_c, 12, 72, 76
17, 65864, Note_on_c, 12, 72, 0
17, 65880, Note_on_c, 12, 63, 76
17, 66119, Note_on_c, 12, 63, 0
17, 66120, Note_on_c, 12, 67, 76
17, 66299, Note_on_c, 12, 67, 0
17, 66300, Note_on_c, 12, 65, 76
17, 66351, Note_on_c, 12, 65, 0
17, 66360, Note_on_c, 12, 63, 76
17, 66479, Note_on_c, 12, 63, 0
17, 66840, Note_on_c, 12, 64, 76
17, 66899, Note_on_c, 12, 64, 0
17, 66900, Note_on_c, 12, 64, 52
17, 67304, Note_on_c, 12, 64, 0
17, 67320, Note_on_c, 12, 65, 52
17, 67784, Note_on_c, 12, 65, 0
17, 67800, Note_on_c, 12, 64, 68
17, 68159, Note_on_c, 12, 64, 0
17, 68160, Note_on_c, 12, 67, 52
17, 68264, Note_on_c, 12, 67, 0
17, 68280, Note_on_c, 12, 66, 52
17, 68331, Note_on_c, 12, 66, 0
17, 68340, Note_on_c, 12, 66, 53
17, 68391, Note_on_c, 12, 66, 0
17, 68400, Note_on_c, 12, 66, 55
17, 68451, Note_on_c, 12, 66, 0
17, 68460, Note_on_c, 12, 66, 56
17, 68511, Note_on_c, 12, 66, 0
17, 68520, Note_on_c, 12, 65, 58
17, 68571, Note_on_c, 12, 65, 0
17, 68580, Note_on_c, 12, 65, 59
17, 68631, Note_on_c, 12, 65, 0
17, 68640, Note_on_c, 12, 65, 61
17, 68691, Note_on_c, 12, 65, 0
17, 68700, Note_on_c, 12, 65, 62
17, 68751, Note_on_c, 12, 65, 0
17, 68760, Note_on_c, 12, 67, 64
17, 68811, Note_on_c, 12, 67, 0
17, 68820, Note_on_c, 12, 67, 65
17, 68871, Note_on_c, 12, 67, 0
17, 68880, Note_on_c, 12, 72, 67
17, 68931, Note_on_c, 12, 72, 0
17, 68940, Note_on_c, 12, 72, 68
17, 68991, Note_on_c, 12, 72, 0
17, 69000, Note_on_c, 12, 72, 70
17, 69051, Note_on_c, 12, 72, 0
17, 69060, Note_on_c, 12, 72, 71
17, 69111, Note_on_c, 12, 72, 0
17, 69120, Note_on_c, 12, 69, 73
17, 69171, Note_on_c, 12, 69, 0
17, 69180, Note_on_c, 12, 69, 74
17, 69231, Note_on_c, 12, 69, 0
17, 69240, Note_on_c, 12, 67, 76
17, 69329, Note_on_c, 12, 67, 0
17, 69360, Note_on_c, 12, 71, 76
17, 69449, Note_on_c, 12, 71, 0
17, 69480, Note_on_c, 12, 72, 76
17, 69569, Note_on_c, 12, 72, 0
17, 69600, Note_on_c, 12, 69, 76
17, 69689, Note_on_c, 12, 69, 0
17, 69720, Note_on_c, 12, 67, 76
17, 69809, Note_on_c, 12, 67, 0
17, 69840, Note_on_c, 12, 71, 76
17, 69929, Note_on_c, 12, 71, 0
17, 69960, Note_on_c, 12, 72, 76
17, 70049, Note_on_c, 12, 72, 0
17, 70080, Note_on_c, 12, 69, 76
17, 70169, Note_on_c, 12, 69, 0
17, 70200, Note_on_c, 12, 67, 84
17, 70379, Note_on_c, 12, 67, 0
17, 70440, Note_on_c, 12, 55, 84
17, 70440, Note_on_c, 12, 62, 84
17, 70440, Note_on_c, 12, 71, 84
17, 70619, Note_on_c, 12, 55, 0
17, 70619, Note_on_c, 12, 62, 0
17, 70619, Note_on_c, 12, 71, 0
17, 70680, Note_on_c, 12, 71, 84
17, 70680, Note_on_c, 12, 55, 84
17, 70680, Note_on_c, 12, 62, 84
17, 70859, Note_on_c, 12, 71, 0
17, 70859, Note_on_c, 12, 55, 0
17, 70859, Note_on_c, 12, 62, 0
17, 74040, Note_on_c, 12, 67, 52
17, 74504, Note_on_c, 12, 67, 0
17, 74520, Note_on_c, 12, 72, 52
17, 74984, Note_on_c, 12, 72, 0
17, 75000, Note_on_c, 12, 60, 52
17, 75464, Note_on_c, 12, 60, 0
17, 75480, Note_on_c, 12, 65, 52
17, 75824, Note_on_c, 12, 65, 0
17, 75840, Note_on_c, 12, 68, 52
17, 75929, Note_on_c, 12, 68, 0
17, 75960, Note_on_c, 12, 67, 52
17, 76049, Note_on_c, 12, 67, 0
17, 76080, Note_on_c, 12, 65, 52
17, 76169, Note_on_c, 12, 65, 0
17, 76200, Note_on_c, 12, 64, 52
17, 76289, Note_on_c, 12, 64, 0
17, 76320, Note_on_c, 12, 67, 52
17, 76409, Note_on_c, 12, 67, 0
17, 76440, Note_on_c, 12, 65, 52
17, 76784, Note_on_c, 12, 65, 0
17, 76800, Note_on_c, 12, 72, 52
17, 76889, Note_on_c, 12, 72, 0
17, 76920, Note_on_c, 12, 70, 52
17, 77009, Note_on_c, 12, 70, 0
17, 77040, Note_on_c, 12, 68, 52
17, 77129, Note_on_c, 12, 68, 0
17, 77160, Note_on_c, 12, 67, 52
17, 77249, Note_on_c, 12, 67, 0
17, 77280, Note_on_c, 12, 70, 52
17, 77369, Note_on_c, 12, 70, 0
17, 77400, Note_on_c, 12, 68, 52
17, 77489, Note_on_c, 12, 68, 0
17, 77520, Note_on_c, 12, 67, 52
17, 77609, Note_on_c, 12, 67, 0
17, 77640, Note_on_c, 12, 65, 52
17, 77729, Note_on_c, 12, 65, 0
17, 77760, Note_on_c, 12, 68, 52
17, 77849, Note_on_c, 12, 68, 0
17, 77880, Note_on_c, 12, 67, 52
17, 77969, Note_on_c, 12, 67, 0
17, 78000, Note_on_c, 12, 65, 52
17, 78089, Note_on_c, 12, 65, 0
17, 78120, Note_on_c, 12, 63, 52
17, 78209, Note_on_c, 12, 63, 0
17, 78240, Note_on_c, 12, 72, 52
17, 78464, Note_on_c, 12, 72, 0
17, 78480, Note_on_c, 12, 71, 52
17, 78531, Note_on_c, 12, 71, 0
17, 78540, Note_on_c, 12, 69, 52
17, 78591, Note_on_c, 12, 69, 0
17, 78600, Note_on_c, 12, 71, 52
17, 78651, Note_on_c, 12, 71, 0
17, 78660, Note_on_c, 12, 72, 52
17, 78711, Note_on_c, 12, 72, 0
17, 78720, Note_on_c, 12, 74, 52
17, 78771, Note_on_c, 12, 74, 0
17, 78780, Note_on_c, 12, 75, 52
17, 78831, Note_on_c, 12, 75, 0
17, 78840, Note_on_c, 12, 77, 52
17, 78929, Note_on_c, 12, 77, 0
17, 78960, Note_on_c, 12, 77, 52
17, 79049, Note_on_c, 12, 77, 0
17, 79080, Note_on_c, 12, 77, 52
17, 79169, Note_on_c, 12, 77, 0
17, 79200, Note_on_c, 12, 77, 52
17, 79289, Note_on_c, 12, 77, 0
17, 79320, Note_on_c, 12, 75, 52
17, 79439, Note_on_c, 12, 75, 0
17, 79440, Note_on_c, 12, 79, 52
17, 79544, Note_on_c, 12, 79, 0
17, 79560, Note_on_c, 12, 72, 52
17, 79649, Note_on_c, 12, 72, 0
17, 79920, Note_on_c, 12, 74, 52
17, 80009, Note_on_c, 12, 74, 0
17, 80040, Note_on_c, 12, 67, 52
17, 80129, Note_on_c, 12, 67, 0
17, 80160, Note_on_c, 12, 77, 52
17, 80249, Note_on_c, 12, 77, 0
17, 80280, Note_on_c, 12, 75, 52
17, 80399, Note_on_c, 12, 75, 0
17, 80400, Note_on_c, 12, 79, 52
17, 80504, Note_on_c, 12, 79, 0
17, 80520, Note_on_c, 12, 72, 52
17, 80609, Note_on_c, 12, 72, 0
17, 80640, Note_on_c, 12, 75, 52
17, 80729, Note_on_c, 12, 75, 0
17, 80760, Note_on_c, 12, 74, 52
17, 80849, Note_on_c, 12, 74, 0
17, 80880, Note_on_c, 12, 72, 52
17, 80969, Note_on_c, 12, 72, 0
17, 81000, Note_on_c, 12, 71, 52
17, 81089, Note_on_c, 12, 71, 0
17, 81120, Note_on_c, 12, 74, 52
17, 81209, Note_on_c, 12, 74, 0
17, 81240, Note_on_c, 12, 67, 52
17, 81359, Note_on_c, 12, 67, 0
17, 81360, Note_on_c, 12, 70, 52
17, 81531, Note_on_c, 12, 70, 0
17, 81540, Note_on_c, 12, 68, 52
17, 81591, Note_on_c, 12, 68, 0
17, 81600, Note_on_c, 12, 67, 52
17, 81651, Note_on_c, 12, 67, 0
17, 81660, Note_on_c, 12, 65, 52
17, 81711, Note_on_c, 12, 65, 0
17, 81720, Note_on_c, 12, 64, 52
17, 81824, Note_on_c, 12, 64, 0
17, 81840, Note_on_c, 12, 72, 52
17, 81891, Note_on_c, 12, 72, 0
17, 81900, Note_on_c, 12, 71, 52
17, 81951, Note_on_c, 12, 71, 0
17, 81960, Note_on_c, 12, 72, 52
17, 82011, Note_on_c, 12, 72, 0
17, 82020, Note_on_c, 12, 74, 52
17, 82071, Note_on_c, 12, 74, 0
17, 82080, Note_on_c, 12, 75, 52
17, 82131, Note_on_c, 12, 75, 0
17, 82140, Note_on_c, 12, 76, 52
17, 82191, Note_on_c, 12, 76, 0
17, 82200, Note_on_c, 12, 77, 52
17, 82304, Note_on_c, 12, 77, 0
17, 82320, Note_on_c, 12, 72, 52
17, 82439, Note_on_c, 12, 72, 0
17, 82440, Note_on_c, 12, 73, 68
17, 82679, Note_on_c, 12, 73, 0
17, 82680, Note_on_c, 12, 73, 52
17, 82799, Note_on_c, 12, 73, 0
17, 82800, Note_on_c, 12, 71, 52
17, 82919, Note_on_c, 12, 71, 0
17, 82920, Note_on_c, 12, 72, 52
17, 83024, Note_on_c, 12, 72, 0
17, 83040, Note_on_c, 12, 72, 52
17, 83129, Note_on_c, 12, 72, 0
17, 83160, Note_on_c, 12, 72, 52
17, 83249, Note_on_c, 12, 72, 0
17, 83280, Note_on_c, 12, 72, 52
17, 83399, Note_on_c, 12, 72, 0
17, 83400, Note_on_c, 12, 73, 68
17, 83638, Control_c, 12, 11, 80
17, 83639, Note_on_c, 12, 73, 0
17, 83640, Note_on_c, 12, 73, 76
17, 83640, Control_c, 12, 11, 80
17, 83700, Control_c, 12, 11, 82
17, 83759, Note_on_c, 12, 73, 0
17, 83760, Control_c, 12, 11, 84
17, 83760, Note_on_c, 12, 71, 76
17, 83820, Control_c, 12, 11, 86
17, 83879, Note_on_c, 12, 71, 0
17, 83880, Control_c, 12, 11, 88
17, 83880, Note_on_c, 12, 72, 76
17, 83940, Control_c, 12, 11, 90
17, 83984, Note_on_c, 12, 72, 0
17, 84000, Note_on_c, 12, 72, 76
17, 84000, Control_c, 12, 11, 92
17, 84060, Control_c, 12, 11, 94
17, 84089, Note_on_c, 12, 72, 0
17, 84120, Note_on_c, 12, 72, 76
17, 84120, Control_c, 12, 11, 96
17, 84180, Control_c, 12, 11, 98
17, 84240, Control_c, 12, 11, 100
17, 84300, Control_c, 12, 11, 102
17, 84360, Control_c, 12, 11, 104
17, 84420, Control_c, 12, 11, 105
17, 84480, Control_c, 12, 11, 107
17, 84540, Control_c, 12, 11, 109
17, 84600, Control_c, 12, 11, 111
17, 84660, Control_c, 12, 11, 113
17, 84704, Note_on_c, 12, 72, 0
17, 84720, Note_on_c, 12, 71, 76
17, 84720, Control_c, 12, 11, 115
17, 84780, Control_c, 12, 11, 117
17, 84809, Note_on_c, 12, 71, 0
17, 84840, Note_on_c, 12, 72, 76
17, 84840, Control_c, 12, 11, 119
17, 84900, Control_c, 12, 11, 121
17, 84929, Note_on_c, 12, 72, 0
17, 84960, Control_c, 12, 11, 123
17, 84960, Note_on_c, 12, 69, 76
17, 85020, Control_c, 12, 11, 127
17, 85049, Note_on_c, 12, 69, 0
17, 85080, Note_on_c, 12, 71, 76
17, 85169, Note_on_c, 12, 71, 0
17, 85200, Note_on_c, 12, 72, 76
17, 85289, Note_on_c, 12, 72, 0
17, 85320, Note_on_c, 12, 74, 76
17, 85409, Note_on_c, 12, 74, 0
17, 85440, Note_on_c, 12, 71, 76
17, 85529, Note_on_c, 12, 71, 0
17, 85560, Note_on_c, 12, 67, 76
17, 85799, Note_on_c, 12, 67, 0
17, 87300, Note_on_c, 12, 60, 76
17, 87351, Note_on_c, 12, 60, 0
17, 87360, Note_on_c, 12, 62, 76
17, 87411, Note_on_c, 12, 62, 0
17, 87420, Note_on_c, 12, 64, 76
17, 87471, Note_on_c, 12, 64, 0
17, 87480, Note_on_c, 12, 65, 76
17, 87599, Note_on_c, 12, 65, 0
17, 87960, Note_on_c, 12, 72, 84
17, 88409, Note_on_c, 12, 72, 0
17, 88440, Note_on_c, 12, 77, 76
17, 88784, Note_on_c, 12, 77, 0
17, 88800, Note_on_c, 12, 77, 76
17, 88889, Note_on_c, 12, 77, 0
17, 88920, Note_on_c, 12, 75, 76
17, 89009, Note_on_c, 12, 75, 0
17, 89040, Note_on_c, 12, 73, 76
17, 89129, Note_on_c, 12, 73, 0
17, 89160, Note_on_c, 12, 72, 76
17, 89249, Note_on_c, 12, 72, 0
17, 89280, Note_on_c, 12, 75, 76
17, 89369, Note_on_c, 12, 75, 0
17, 89400, Note_on_c, 12, 73, 76
17, 89504, Note_on_c, 12, 73, 0
17, 89520, Note_on_c, 12, 70, 76
17, 89571, Note_on_c, 12, 70, 0
17, 89580, Note_on_c, 12, 69, 76
17, 89631, Note_on_c, 12, 69, 0
17, 89640, Note_on_c, 12, 70, 76
17, 89691, Note_on_c, 12, 70, 0
17, 89700, Note_on_c, 12, 72, 76
17, 89751, Note_on_c, 12, 72, 0
17, 89760, Note_on_c, 12, 73, 76
17, 89811, Note_on_c, 12, 73, 0
17, 89820, Note_on_c, 12, 75, 76
17, 89871, Note_on_c, 12, 75, 0
17, 89880, Note_on_c, 12, 77, 76
17, 89969, Note_on_c, 12, 77, 0
17, 90000, Note_on_c, 12, 75, 76
17, 90089, Note_on_c, 12, 75, 0
17, 90120, Note_on_c, 12, 74, 76
17, 90209, Note_on_c, 12, 74, 0
17, 90240, Note_on_c, 12, 77, 76
17, 90329, Note_on_c, 12, 77, 0
17, 90360, Note_on_c, 12, 75, 76
17, 90464, Note_on_c, 12, 75, 0
17, 90480, Note_on_c, 12, 67, 76
17, 90531, Note_on_c, 12, 67, 0
17, 90540, Note_on_c, 12, 65, 76
17, 90591, Note_on_c, 12, 65, 0
17, 90600, Note_on_c, 12, 67, 76
17, 90651, Note_on_c, 12, 67, 0
17, 90660, Note_on_c, 12, 68, 76
17, 90711, Note_on_c, 12, 68, 0
17, 90720, Note_on_c, 12, 70, 76
17, 90771, Note_on_c, 12, 70, 0
17, 90780, Note_on_c, 12, 72, 76
17, 90831, Note_on_c, 12, 72, 0
17, 90840, Note_on_c, 12, 73, 76
17, 90944, Note_on_c, 12, 73, 0
17, 90960, Note_on_c, 12, 74, 76
17, 91064, Note_on_c, 12, 74, 0
17, 91080, Note_on_c, 12, 75, 76
17, 91184, Note_on_c, 12, 75, 0
17, 91200, Note_on_c, 12, 70, 76
17, 91424, Note_on_c, 12, 70, 0
17, 91440, Note_on_c, 12, 68, 76
17, 91491, Note_on_c, 12, 68, 0
17, 91500, Note_on_c, 12, 67, 76
17, 91551, Note_on_c, 12, 67, 0
17, 91560, Note_on_c, 12, 68, 76
17, 91611, Note_on_c, 12, 68, 0
17, 91620, Note_on_c, 12, 72, 76
17, 91671, Note_on_c, 12, 72, 0
17, 91680, Note_on_c, 12, 70, 76
17, 91731, Note_on_c, 12, 70, 0
17, 91740, Note_on_c, 12, 68, 76
17, 91791, Note_on_c, 12, 68, 0
17, 91800, Note_on_c, 12, 67, 76
17, 92039, Note_on_c, 12, 67, 0
17, 92040, Note_on_c, 12, 66, 76
17, 92279, Note_on_c, 12, 66, 0
17, 92280, Note_on_c, 12, 65, 76
17, 92384, Note_on_c, 12, 65, 0
17, 92400, Note_on_c, 12, 70, 76
17, 92451, Note_on_c, 12, 70, 0
17, 92460, Note_on_c, 12, 69, 76
17, 92511, Note_on_c, 12, 69, 0
17, 92520, Note_on_c, 12, 70, 76
17, 92571, Note_on_c, 12, 70, 0
17, 92580, Note_on_c, 12, 73, 76
17, 92631, Note_on_c, 12, 73, 0
17, 92640, Note_on_c, 12, 72, 76
17, 92691, Note_on_c, 12, 72, 0
17, 92700, Note_on_c, 12, 70, 76
17, 92751, Note_on_c, 12, 70, 0
17, 92760, Note_on_c, 12, 69, 76
17, 92999, Note_on_c, 12, 69, 0
17, 93000, Note_on_c, 12, 68, 76
17, 93224, Note_on_c, 12, 68, 0
17, 93240, Note_on_c, 12, 67, 84
17, 93689, Note_on_c, 12, 67, 0
17, 93720, Note_on_c, 12, 72, 76
17, 93944, Note_on_c, 12, 72, 0
17, 93960, Note_on_c, 12, 60, 76
17, 94199, Note_on_c, 12, 60, 0
17, 94440, Note_on_c, 12, 82, 76
17, 94904, Note_on_c, 12, 82, 0
17, 94920, Note_on_c, 12, 70, 76
17, 95099, Note_on_c, 12, 70, 0
17, 95160, Note_on_c, 12, 82, 80
17, 95339, Note_on_c, 12, 82, 0
17, 95400, Note_on_c, 12, 70, 80
17, 95579, Note_on_c, 12, 70, 0
17, 95640, Note_on_c, 12, 81, 80
17, 95819, Note_on_c, 12, 81, 0
17, 95880, Note_on_c, 12, 69, 80
17, 96059, Note_on_c, 12, 69, 0
17, 96120, Note_on_c, 12, 81, 80
17, 96299, Note_on_c, 12, 81, 0
17, 96360, Note_on_c, 12, 69, 80
17, 96539, Note_on_c, 12, 69, 0
17, 96600, Note_on_c, 12, 81, 80
17, 96704, Note_on_c, 12, 81, 0
17, 96720, Note_on_c, 12, 69, 80
17, 96824, Note_on_c, 12, 69, 0
17, 96840, Note_on_c, 12, 81, 80
17, 96944, Note_on_c, 12, 81, 0
17, 96960, Note_on_c, 12, 69, 80
17, 97064, Note_on_c, 12, 69, 0
17, 97080, Note_on_c, 12, 83, 84
17, 97131, Note_on_c, 12, 83, 0
17, 97140, Note_on_c, 12, 71, 84
17, 97191, Note_on_c, 12, 71, 0
17, 97200, Note_on_c, 12, 71, 84
17, 97251, Note_on_c, 12, 71, 0
17, 97260, Note_on_c, 12, 71, 84
17, 97311, Note_on_c, 12, 71, 0
17, 97320, Note_on_c, 12, 71, 84
17, 97371, Note_on_c, 12, 71, 0
17, 97380, Note_on_c, 12, 71, 84
17, 97431, Note_on_c, 12, 71, 0
17, 97440, Note_on_c, 12, 71, 84
17, 97491, Note_on_c, 12, 71, 0
17, 97500, Note_on_c, 12, 71, 84
17, 97551, Note_on_c, 12, 71, 0
17, 97560, Note_on_c, 12, 71, 84
17, 97611, Note_on_c, 12, 71, 0
17, 97620, Note_on_c, 12, 71, 84
17, 97671, Note_on_c, 12, 71, 0
17, 97680, Note_on_c, 12, 71, 84
17, 97731, Note_on_c, 12, 71, 0
17, 97740, Note_on_c, 12, 71, 84
17, 97791, Note_on_c, 12, 71, 0
17, 97800, Note_on_c, 12, 71, 84
17, 97851, Note_on_c, 12, 71, 0
17, 97860, Note_on_c, 12, 71, 84
17, 97911, Note_on_c, 12, 71, 0
17, 97920, Note_on_c, 12, 71, 84
17, 97971, Note_on_c, 12, 71, 0
17, 97980, Note_on_c, 12, 71, 84
17, 98031, Note_on_c, 12, 71, 0
17, 98040, Note_on_c, 12, 71, 84
17, 98091, Note_on_c, 12, 71, 0
17, 98100, Note_on_c, 12, 71, 84
17, 98151, Note_on_c, 12, 71, 0
17, 98160, Note_on_c, 12, 71, 84
17, 98211, Note_on_c, 12, 71, 0
17, 98220, Note_on_c, 12, 71, 84
17, 98271, Note_on_c, 12, 71, 0
17, 98280, Note_on_c, 12, 71, 84
17, 98331, Note_on_c, 12, 71, 0
17, 98340, Note_on_c, 12, 71, 84
17, 98391, Note_on_c, 12, 71, 0
17, 98400, Note_on_c, 12, 71, 84
17, 98451, Note_on_c, 12, 71, 0
17, 98460, Note_on_c, 12, 71, 84
17, 98511, Note_on_c, 12, 71, 0
17, 98520, Note_on_c, 12, 71, 84
17, 98571, Note_on_c, 12, 71, 0
17, 98580, Note_on_c, 12, 71, 84
17, 98631, Note_on_c, 12, 71, 0
17, 98640, Note_on_c, 12, 71, 84
17, 98691, Note_on_c, 12, 71, 0
17, 98700, Note_on_c, 12, 71, 84
17, 98751, Note_on_c, 12, 71, 0
17, 98760, Note_on_c, 12, 71, 84
17, 98819, Note_on_c, 12, 71, 0
17, 98820, Note_on_c, 12, 71, 84
17, 98879, Note_on_c, 12, 71, 0
17, 98880, Note_on_c, 12, 71, 84
17, 98939, Note_on_c, 12, 71, 0
17, 98940, Note_on_c, 12, 71, 84
17, 98999, Note_on_c, 12, 71, 0
17, 99000, Note_on_c, 12, 71, 52
17, 99104, Note_on_c, 12, 71, 0
17, 99120, Note_on_c, 12, 62, 52
17, 99224, Note_on_c, 12, 62, 0
17, 99240, Note_on_c, 12, 62, 52
17, 99344, Note_on_c, 12, 62, 0
17, 99360, Note_on_c, 12, 62, 52
17, 99479, Note_on_c, 12, 62, 0
17, 99600, Note_on_c, 12, 64, 52
17, 99600, Note_on_c, 12, 61, 52
17, 99704, Note_on_c, 12, 64, 0
17, 99704, Note_on_c, 12, 61, 0
17, 99720, Note_on_c, 12, 61, 52
17, 99720, Note_on_c, 12, 64, 52
17, 99824, Note_on_c, 12, 61, 0
17, 99824, Note_on_c, 12, 64, 0
17, 99840, Note_on_c, 12, 64, 52
17, 99840, Note_on_c, 12, 61, 52
17, 99959, Note_on_c, 12, 64, 0
17, 99959, Note_on_c, 12, 61, 0
17, 100080, Note_on_c, 12, 61, 52
17, 100080, Note_on_c, 12, 64, 52
17, 100184, Note_on_c, 12, 61, 0
17, 100184, Note_on_c, 12, 64, 0
17, 100200, Note_on_c, 12, 64, 52
17, 100200, Note_on_c, 12, 61, 52
17, 100304, Note_on_c, 12, 64, 0
17, 100304, Note_on_c, 12, 61, 0
17, 100320, Note_on_c, 12, 64, 52
17, 100320, Note_on_c, 12, 61, 52
17, 100439, Note_on_c, 12, 64, 0
17, 100439, Note_on_c, 12, 61, 0
17, 100560, Note_on_c, 12, 62, 52
17, 100664, Note_on_c, 12, 62, 0
17, 100680, Note_on_c, 12, 62, 52
17, 100784, Note_on_c, 12, 62, 0
17, 100800, Note_on_c, 12, 62, 52
17, 100919, Note_on_c, 12, 62, 0
17, 101040, Note_on_c, 12, 57, 56
17, 101040, Note_on_c, 12, 64, 56
17, 101159, Note_on_c, 12, 57, 0
17, 101159, Note_on_c, 12, 64, 0
17, 101280, Note_on_c, 12, 57, 64
17, 101280, Note_on_c, 12, 67, 64
17, 101399, Note_on_c, 12, 57, 0
17, 101399, Note_on_c, 12, 67, 0
17, 101520, Note_on_c, 12, 57, 76
17, 101520, Note_on_c, 12, 66, 76
17, 101624, Note_on_c, 12, 57, 0
17, 101624, Note_on_c, 12, 66, 0
17, 101640, Note_on_c, 12, 57, 68
17, 101640, Note_on_c, 12, 66, 68
17, 101744, Note_on_c, 12, 57, 0
17, 101744, Note_on_c, 12, 66, 0
17, 101760, Note_on_c, 12, 57, 60
17, 101760, Note_on_c, 12, 66, 60
17, 101879, Note_on_c, 12, 57, 0
17, 101879, Note_on_c, 12, 66, 0
17, 102000, Note_on_c, 12, 67, 52
17, 102000, Note_on_c, 12, 57, 52
17, 102119, Note_on_c, 12, 67, 0
17, 102119, Note_on_c, 12, 57, 0
17, 102240, Note_on_c, 12, 57, 52
17, 102240, Note_on_c, 12, 66, 52
17, 102359, Note_on_c, 12, 57, 0
17, 102359, Note_on_c, 12, 66, 0
17, 102480, Note_on_c, 12, 68, 52
17, 102599, Note_on_c, 12, 68, 0
17, 102600, Note_on_c, 12, 69, 52
17, 102719, Note_on_c, 12, 69, 0
17, 106920, Note_on_c, 12, 70, 52
17, 107039, Note_on_c, 12, 70, 0
17, 107040, Note_on_c, 12, 69, 52
17, 107159, Note_on_c, 12, 69, 0
17, 107400, Note_on_c, 12, 71, 52
17, 107519, Note_on_c, 12, 71, 0
17, 107520, Note_on_c, 12, 69, 52
17, 107639, Note_on_c, 12, 69, 0
17, 107880, Note_on_c, 12, 70, 52
17, 107999, Note_on_c, 12, 70, 0
17, 108000, Note_on_c, 12, 69, 52
17, 108119, Note_on_c, 12, 69, 0
17, 108360, Note_on_c, 12, 69, 52
17, 108479, Note_on_c, 12, 69, 0
17, 108480, Note_on_c, 12, 67, 52
17, 108599, Note_on_c, 12, 67, 0
17, 108840, Note_on_c, 12, 67, 52
17, 108959, Note_on_c, 12, 67, 0
17, 108960, Note_on_c, 12, 66, 52
17, 109079, Note_on_c, 12, 66, 0
17, 109320, Note_on_c, 12, 69, 52
17, 109439, Note_on_c, 12, 69, 0
17, 109440, Note_on_c, 12, 67, 52
17, 109559, Note_on_c, 12, 67, 0
17, 109800, Note_on_c, 12, 68, 52
17, 109919, Note_on_c, 12, 68, 0
17, 109920, Note_on_c, 12, 69, 52
17, 110024, Note_on_c, 12, 69, 0
17, 110040, Note_on_c, 12, 62, 52
17, 110107, Note_on_c, 12, 62, 0
17, 110120, Note_on_c, 12, 69, 52
17, 110187, Note_on_c, 12, 69, 0
17, 110200, Note_on_c, 12, 67, 52
17, 110267, Note_on_c, 12, 67, 0
17, 110280, Note_on_c, 12, 66, 52
17, 110347, Note_on_c, 12, 66, 0
17, 110360, Note_on_c, 12, 64, 52
17, 110427, Note_on_c, 12, 64, 0
17, 110440, Note_on_c, 12, 62, 52
17, 110507, Note_on_c, 12, 62, 0
17, 110520, Note_on_c, 12, 58, 76
17, 110599, Note_on_c, 12, 58, 0
17, 110600, Note_on_c, 12, 57, 52
17, 110667, Note_on_c, 12, 57, 0
17, 110680, Note_on_c, 12, 57, 52
17, 110739, Note_on_c, 12, 57, 0
17, 110760, Note_on_c, 12, 73, 76
17, 110827, Note_on_c, 12, 73, 0
17, 110840, Note_on_c, 12, 73, 52
17, 110907, Note_on_c, 12, 73, 0
17, 110920, Note_on_c, 12, 73, 52
17, 110987, Note_on_c, 12, 73, 0
17, 111000, Note_on_c, 12, 59, 52
17, 111079, Note_on_c, 12, 59, 0
17, 111080, Note_on_c, 12, 57, 52
17, 111147, Note_on_c, 12, 57, 0
17, 111160, Note_on_c, 12, 57, 52
17, 111219, Note_on_c, 12, 57, 0
17, 111240, Note_on_c, 12, 76, 76
17, 111307, Note_on_c, 12, 76, 0
17, 111320, Note_on_c, 12, 76, 52
17, 111387, Note_on_c, 12, 76, 0
17, 111400, Note_on_c, 12, 76, 52
17, 111467, Note_on_c, 12, 76, 0
17, 111480, Note_on_c, 12, 58, 52
17, 111559, Note_on_c, 12, 58, 0
17, 111560, Note_on_c, 12, 57, 52
17, 111627, Note_on_c, 12, 57, 0
17, 111640, Note_on_c, 12, 57, 52
17, 111699, Note_on_c, 12, 57, 0
17, 111720, Note_on_c, 12, 79, 76
17, 111787, Note_on_c, 12, 79, 0
17, 111800, Note_on_c, 12, 79, 52
17, 111867, Note_on_c, 12, 79, 0
17, 111880, Note_on_c, 12, 79, 52
17, 111947, Note_on_c, 12, 79, 0
17, 111960, Note_on_c, 12, 59, 52
17, 112039, Note_on_c, 12, 59, 0
17, 112040, Note_on_c, 12, 57, 52
17, 112107, Note_on_c, 12, 57, 0
17, 112120, Note_on_c, 12, 57, 52
17, 112179, Note_on_c, 12, 57, 0
17, 112200, Note_on_c, 12, 57, 52
17, 112279, Note_on_c, 12, 57, 0
17, 112280, Note_on_c, 12, 55, 52
17, 112347, Note_on_c, 12, 55, 0
17, 112360, Note_on_c, 12, 55, 52
17, 112419, Note_on_c, 12, 55, 0
17, 112440, Note_on_c, 12, 67, 52
17, 112519, Note_on_c, 12, 67, 0
17, 112520, Note_on_c, 12, 66, 52
17, 112587, Note_on_c, 12, 66, 0
17, 112600, Note_on_c, 12, 66, 52
17, 112659, Note_on_c, 12, 66, 0
17, 112680, Note_on_c, 12, 69, 52
17, 112680, Note_on_c, 12, 81, 52
17, 112747, Note_on_c, 12, 69, 0
17, 112747, Note_on_c, 12, 81, 0
17, 112760, Note_on_c, 12, 69, 52
17, 112760, Note_on_c, 12, 81, 52
17, 112827, Note_on_c, 12, 69, 0
17, 112827, Note_on_c, 12, 81, 0
17, 112840, Note_on_c, 12, 81, 52
17, 112840, Note_on_c, 12, 69, 52
17, 112907, Note_on_c, 12, 81, 0
17, 112907, Note_on_c, 12, 69, 0
17, 112920, Note_on_c, 12, 69, 76
17, 112999, Note_on_c, 12, 69, 0
17, 113000, Note_on_c, 12, 67, 52
17, 113067, Note_on_c, 12, 67, 0
17, 113080, Note_on_c, 12, 67, 52
17, 113139, Note_on_c, 12, 67, 0
17, 113160, Note_on_c, 12, 71, 52
17, 113160, Note_on_c, 12, 83, 52
17, 113227, Note_on_c, 12, 71, 0
17, 113227, Note_on_c, 12, 83, 0
17, 113240, Note_on_c, 12, 71, 52
17, 113240, Note_on_c, 12, 83, 52
17, 113307, Note_on_c, 12, 71, 0
17, 113307, Note_on_c, 12, 83, 0
17, 113320, Note_on_c, 12, 71, 52
17, 113320, Note_on_c, 12, 83, 52
17, 113387, Note_on_c, 12, 71, 0
17, 113387, Note_on_c, 12, 83, 0
17, 113400, Note_on_c, 12, 81, 52
17, 113400, Note_on_c, 12, 69, 52
17, 113467, Note_on_c, 12, 81, 0
17, 113467, Note_on_c, 12, 69, 0
17, 113480, Note_on_c, 12, 69, 52
17, 113480, Note_on_c, 12, 81, 52
17, 113547, Note_on_c, 12, 69, 0
17, 113547, Note_on_c, 12, 81, 0
17, 113560, Note_on_c, 12, 81, 52
17, 113560, Note_on_c, 12, 69, 52
17, 113627, Note_on_c, 12, 81, 0
17, 113627, Note_on_c, 12, 69, 0
17, 113640, Note_on_c, 12, 69, 52
17, 113640, Note_on_c, 12, 79, 52
17, 113707, Note_on_c, 12, 69, 0
17, 113707, Note_on_c, 12, 79, 0
17, 113720, Note_on_c, 12, 69, 52
17, 113720, Note_on_c, 12, 79, 52
17, 113787, Note_on_c, 12, 69, 0
17, 113787, Note_on_c, 12, 79, 0
17, 113800, Note_on_c, 12, 69, 52
17, 113800, Note_on_c, 12, 79, 52
17, 113867, Note_on_c, 12, 69, 0
17, 113867, Note_on_c, 12, 79, 0
17, 113880, Note_on_c, 12, 78, 52
17, 113880, Note_on_c, 12, 69, 52
17, 114119, Note_on_c, 12, 78, 0
17, 114119, Note_on_c, 12, 69, 0
17, 114360, Note_on_c, 12, 69, 84
17, 114360, Note_on_c, 12, 78, 84
17, 114427, Note_on_c, 12, 69, 0
17, 114427, Note_on_c, 12, 78, 0
17, 114440, Note_on_c, 12, 78, 84
17, 114440, Note_on_c, 12, 69, 84
17, 114507, Note_on_c, 12, 78, 0
17, 114507, Note_on_c, 12, 69, 0
17, 114520, Note_on_c, 12, 69, 84
17, 114520, Note_on_c, 12, 78, 84
17, 114587, Note_on_c, 12, 69, 0
17, 114587, Note_on_c, 12, 78, 0
17, 114600, Note_on_c, 12, 78, 84
17, 114600, Note_on_c, 12, 69, 84
17, 114667, Note_on_c, 12, 78, 0
17, 114667, Note_on_c, 12, 69, 0
17, 114680, Note_on_c, 12, 78, 84
17, 114680, Note_on_c, 12, 69, 84
17, 114747, Note_on_c, 12, 78, 0
17, 114747, Note_on_c, 12, 69, 0
17, 114760, Note_on_c, 12, 69, 84
17, 114760, Note_on_c, 12, 78, 84
17, 114827, Note_on_c, 12, 69, 0
17, 114827, Note_on_c, 12, 78, 0
17, 114840, Note_on_c, 12, 79, 84
17, 114907, Note_on_c, 12, 79, 0
17, 114920, Note_on_c, 12, 79, 84
17, 114987, Note_on_c, 12, 79, 0
17, 115000, Note_on_c, 12, 79, 84
17, 115067, Note_on_c, 12, 79, 0
17, 115080, Note_on_c, 12, 80, 84
17, 115147, Note_on_c, 12, 80, 0
17, 115160, Note_on_c, 12, 80, 84
17, 115227, Note_on_c, 12, 80, 0
17, 115240, Note_on_c, 12, 80, 84
17, 115307, Note_on_c, 12, 80, 0
17, 115320, Note_on_c, 12, 81, 84
17, 115320, Note_on_c, 12, 69, 84
17, 115387, Note_on_c, 12, 81, 0
17, 115387, Note_on_c, 12, 69, 0
17, 115400, Note_on_c, 12, 69, 84
17, 115400, Note_on_c, 12, 81, 84
17, 115467, Note_on_c, 12, 69, 0
17, 115467, Note_on_c, 12, 81, 0
17, 115480, Note_on_c, 12, 81, 84
17, 115480, Note_on_c, 12, 69, 84
17, 115547, Note_on_c, 12, 81, 0
17, 115547, Note_on_c, 12, 69, 0
17, 115560, Note_on_c, 12, 69, 84
17, 115560, Note_on_c, 12, 79, 84
17, 115627, Note_on_c, 12, 69, 0
17, 115627, Note_on_c, 12, 79, 0
17, 115640, Note_on_c, 12, 69, 84
17, 115640, Note_on_c, 12, 79, 84
17, 115707, Note_on_c, 12, 69, 0
17, 115707, Note_on_c, 12, 79, 0
17, 115720, Note_on_c, 12, 79, 84
17, 115720, Note_on_c, 12, 69, 84
17, 115787, Note_on_c, 12, 79, 0
17, 115787, Note_on_c, 12, 69, 0
17, 115800, Note_on_c, 12, 69, 84
17, 115800, Note_on_c, 12, 78, 84
17, 115919, Note_on_c, 12, 69, 0
17, 115919, Note_on_c, 12, 78, 0
17, 116280, Note_on_c, 12, 58, 76
17, 116331, Note_on_c, 12, 58, 0
17, 116340, Note_on_c, 12, 58, 76
17, 116391, Note_on_c, 12, 58, 0
17, 116400, Note_on_c, 12, 62, 76
17, 116451, Note_on_c, 12, 62, 0
17, 116460, Note_on_c, 12, 62, 76
17, 116511, Note_on_c, 12, 62, 0
17, 116520, Note_on_c, 12, 58, 76
17, 116571, Note_on_c, 12, 58, 0
17, 116580, Note_on_c, 12, 58, 76
17, 116631, Note_on_c, 12, 58, 0
17, 116640, Note_on_c, 12, 62, 76
17, 116691, Note_on_c, 12, 62, 0
17, 116700, Note_on_c, 12, 62, 76
17, 116751, Note_on_c, 12, 62, 0
17, 116760, Note_on_c, 12, 60, 76
17, 116811, Note_on_c, 12, 60, 0
17, 116820, Note_on_c, 12, 60, 76
17, 116871, Note_on_c, 12, 60, 0
17, 116880, Note_on_c, 12, 62, 76
17, 116931, Note_on_c, 12, 62, 0
17, 116940, Note_on_c, 12, 62, 76
17, 116991, Note_on_c, 12, 62, 0
17, 117000, Note_on_c, 12, 60, 76
17, 117051, Note_on_c, 12, 60, 0
17, 117060, Note_on_c, 12, 60, 76
17, 117111, Note_on_c, 12, 60, 0
17, 117120, Note_on_c, 12, 62, 76
17, 117171, Note_on_c, 12, 62, 0
17, 117180, Note_on_c, 12, 62, 76
17, 117231, Note_on_c, 12, 62, 0
17, 117240, Note_on_c, 12, 57, 76
17, 117291, Note_on_c, 12, 57, 0
17, 117300, Note_on_c, 12, 57, 76
17, 117351, Note_on_c, 12, 57, 0
17, 117360, Note_on_c, 12, 62, 76
17, 117411, Note_on_c, 12, 62, 0
17, 117420, Note_on_c, 12, 62, 76
17, 117471, Note_on_c, 12, 62, 0
17, 117480, Note_on_c, 12, 57, 76
17, 117531, Note_on_c, 12, 57, 0
17, 117540, Note_on_c, 12, 57, 76
17, 117591, Note_on_c, 12, 57, 0
17, 117600, Note_on_c, 12, 62, 76
17, 117651, Note_on_c, 12, 62, 0
17, 117660, Note_on_c, 12, 62, 76
17, 117711, Note_on_c, 12, 62, 0
17, 117720, Note_on_c, 12, 58, 76
17, 117771, Note_on_c, 12, 58, 0
17, 117780, Note_on_c, 12, 58, 76
17, 117831, Note_on_c, 12, 58, 0
17, 117840, Note_on_c, 12, 62, 76
17, 117891, Note_on_c, 12, 62, 0
17, 117900, Note_on_c, 12, 62, 76
17, 117951, Note_on_c, 12, 62, 0
17, 117960, Note_on_c, 12, 58, 76
17, 118011, Note_on_c, 12, 58, 0
17, 118020, Note_on_c, 12, 58, 76
17, 118071, Note_on_c, 12, 58, 0
17, 118080, Note_on_c, 12, 62, 76
17, 118131, Note_on_c, 12, 62, 0
17, 118140, Note_on_c, 12, 62, 76
17, 118191, Note_on_c, 12, 62, 0
17, 118200, Note_on_c, 12, 58, 76
17, 118251, Note_on_c, 12, 58, 0
17, 118260, Note_on_c, 12, 58, 76
17, 118311, Note_on_c, 12, 58, 0
17, 118320, Note_on_c, 12, 62, 76
17, 118371, Note_on_c, 12, 62, 0
17, 118380, Note_on_c, 12, 62, 76
17, 118431, Note_on_c, 12, 62, 0
17, 118440, Note_on_c, 12, 58, 76
17, 118491, Note_on_c, 12, 58, 0
17, 118500, Note_on_c, 12, 58, 76
17, 118551, Note_on_c, 12, 58, 0
17, 118560, Note_on_c, 12, 62, 76
17, 118611, Note_on_c, 12, 62, 0
17, 118620, Note_on_c, 12, 62, 76
17, 118671, Note_on_c, 12, 62, 0
17, 118680, Note_on_c, 12, 60, 76
17, 118731, Note_on_c, 12, 60, 0
17, 118740, Note_on_c, 12, 60, 76
17, 118791, Note_on_c, 12, 60, 0
17, 118800, Note_on_c, 12, 62, 76
17, 118851, Note_on_c, 12, 62, 0
17, 118860, Note_on_c, 12, 62, 76
17, 118911, Note_on_c, 12, 62, 0
17, 118920, Note_on_c, 12, 60, 76
17, 118971, Note_on_c, 12, 60, 0
17, 118980, Note_on_c, 12, 60, 76
17, 119031, Note_on_c, 12, 60, 0
17, 119040, Note_on_c, 12, 62, 76
17, 119091, Note_on_c, 12, 62, 0
17, 119100, Note_on_c, 12, 62, 76
17, 119151, Note_on_c, 12, 62, 0
17, 119160, Note_on_c, 12, 60, 76
17, 119211, Note_on_c, 12, 60, 0
17, 119220, Note_on_c, 12, 60, 76
17, 119271, Note_on_c, 12, 60, 0
17, 119280, Note_on_c, 12, 62, 76
17, 119331, Note_on_c, 12, 62, 0
17, 119340, Note_on_c, 12, 62, 76
17, 119391, Note_on_c, 12, 62, 0
17, 119400, Note_on_c, 12, 60, 76
17, 119451, Note_on_c, 12, 60, 0
17, 119460, Note_on_c, 12, 60, 76
17, 119511, Note_on_c, 12, 60, 0
17, 119520, Note_on_c, 12, 62, 76
17, 119571, Note_on_c, 12, 62, 0
17, 119580, Note_on_c, 12, 62, 76
17, 119631, Note_on_c, 12, 62, 0
17, 119640, Note_on_c, 12, 58, 76
17, 119759, Note_on_c, 12, 58, 0
17, 120120, Note_on_c, 12, 58, 76
17, 120171, Note_on_c, 12, 58, 0
17, 120180, Note_on_c, 12, 58, 76
17, 120231, Note_on_c, 12, 58, 0
17, 120240, Note_on_c, 12, 62, 76
17, 120291, Note_on_c, 12, 62, 0
17, 120300, Note_on_c, 12, 62, 76
17, 120351, Note_on_c, 12, 62, 0
17, 120360, Note_on_c, 12, 58, 76
17, 120411, Note_on_c, 12, 58, 0
17, 120420, Note_on_c, 12, 58, 76
17, 120471, Note_on_c, 12, 58, 0
17, 120480, Note_on_c, 12, 62, 76
17, 120531, Note_on_c, 12, 62, 0
17, 120540, Note_on_c, 12, 62, 76
17, 120591, Note_on_c, 12, 62, 0
17, 120600, Note_on_c, 12, 60, 76
17, 120651, Note_on_c, 12, 60, 0
17, 120660, Note_on_c, 12, 60, 76
17, 120711, Note_on_c, 12, 60, 0
17, 120720, Note_on_c, 12, 62, 76
17, 120771, Note_on_c, 12, 62, 0
17, 120780, Note_on_c, 12, 62, 76
17, 120831, Note_on_c, 12, 62, 0
17, 120840, Note_on_c, 12, 60, 76
17, 120891, Note_on_c, 12, 60, 0
17, 120900, Note_on_c, 12, 60, 76
17, 120951, Note_on_c, 12, 60, 0
17, 120960, Note_on_c, 12, 62, 76
17, 121011, Note_on_c, 12, 62, 0
17, 121020, Note_on_c, 12, 62, 76
17, 121071, Note_on_c, 12, 62, 0
17, 121080, Note_on_c, 12, 57, 76
17, 121131, Note_on_c, 12, 57, 0
17, 121140, Note_on_c, 12, 57, 76
17, 121191, Note_on_c, 12, 57, 0
17, 121200, Note_on_c, 12, 62, 76
17, 121251, Note_on_c, 12, 62, 0
17, 121260, Note_on_c, 12, 62, 76
17, 121311, Note_on_c, 12, 62, 0
17, 121320, Note_on_c, 12, 66, 76
17, 121371, Note_on_c, 12, 66, 0
17, 121380, Note_on_c, 12, 66, 76
17, 121431, Note_on_c, 12, 66, 0
17, 121440, Note_on_c, 12, 62, 76
17, 121491, Note_on_c, 12, 62, 0
17, 121500, Note_on_c, 12, 62, 76
17, 121551, Note_on_c, 12, 62, 0
17, 121560, Note_on_c, 12, 62, 76
17, 121611, Note_on_c, 12, 62, 0
17, 121620, Note_on_c, 12, 62, 76
17, 121671, Note_on_c, 12, 62, 0
17, 121680, Note_on_c, 12, 62, 76
17, 121731, Note_on_c, 12, 62, 0
17, 121740, Note_on_c, 12, 62, 76
17, 121791, Note_on_c, 12, 62, 0
17, 121800, Note_on_c, 12, 67, 76
17, 121851, Note_on_c, 12, 67, 0
17, 121860, Note_on_c, 12, 67, 76
17, 121911, Note_on_c, 12, 67, 0
17, 121920, Note_on_c, 12, 62, 76
17, 121971, Note_on_c, 12, 62, 0
17, 121980, Note_on_c, 12, 62, 76
17, 122031, Note_on_c, 12, 62, 0
17, 122040, Note_on_c, 12, 62, 76
17, 122091, Note_on_c, 12, 62, 0
17, 122100, Note_on_c, 12, 62, 76
17, 122151, Note_on_c, 12, 62, 0
17, 122160, Note_on_c, 12, 62, 76
17, 122211, Note_on_c, 12, 62, 0
17, 122220, Note_on_c, 12, 62, 76
17, 122271, Note_on_c, 12, 62, 0
17, 122280, Note_on_c, 12, 58, 76
17, 122331, Note_on_c, 12, 58, 0
17, 122340, Note_on_c, 12, 58, 76
17, 122391, Note_on_c, 12, 58, 0
17, 122400, Note_on_c, 12, 62, 76
17, 122451, Note_on_c, 12, 62, 0
17, 122460, Note_on_c, 12, 62, 76
17, 122511, Note_on_c, 12, 62, 0
17, 122520, Note_on_c, 12, 60, 76
17, 122571, Note_on_c, 12, 60, 0
17, 122580, Note_on_c, 12, 60, 76
17, 122631, Note_on_c, 12, 60, 0
17, 122640, Note_on_c, 12, 62, 76
17, 122691, Note_on_c, 12, 62, 0
17, 122700, Note_on_c, 12, 62, 76
17, 122751, Note_on_c, 12, 62, 0
17, 122760, Note_on_c, 12, 60, 76
17, 122811, Note_on_c, 12, 60, 0
17, 122820, Note_on_c, 12, 60, 76
17, 122871, Note_on_c, 12, 60, 0
17, 122880, Note_on_c, 12, 62, 76
17, 122931, Note_on_c, 12, 62, 0
17, 122940, Note_on_c, 12, 62, 76
17, 122991, Note_on_c, 12, 62, 0
17, 123000, Note_on_c, 12, 60, 76
17, 123051, Note_on_c, 12, 60, 0
17, 123060, Note_on_c, 12, 60, 76
17, 123111, Note_on_c, 12, 60, 0
17, 123120, Note_on_c, 12, 62, 76
17, 123171, Note_on_c, 12, 62, 0
17, 123180, Note_on_c, 12, 62, 76
17, 123231, Note_on_c, 12, 62, 0
17, 123240, Note_on_c, 12, 62, 76
17, 123291, Note_on_c, 12, 62, 0
17, 123300, Note_on_c, 12, 62, 76
17, 123351, Note_on_c, 12, 62, 0
17, 123360, Note_on_c, 12, 62, 76
17, 123411, Note_on_c, 12, 62, 0
17, 123420, Note_on_c, 12, 62, 76
17, 123471, Note_on_c, 12, 62, 0
17, 123480, Note_on_c, 12, 62, 76
17, 123599, Note_on_c, 12, 62, 0
17, 124200, Note_on_c, 12, 55, 76
17, 124200, Note_on_c, 12, 63, 76
17, 124200, Note_on_c, 12, 72, 76
17, 124439, Note_on_c, 12, 55, 0
17, 124439, Note_on_c, 12, 63, 0
17, 124439, Note_on_c, 12, 72, 0
17, 124680, Note_on_c, 12, 62, 76
17, 124680, Note_on_c, 12, 71, 76
17, 124680, Note_on_c, 12, 55, 76
17, 124919, Note_on_c, 12, 62, 0
17, 124919, Note_on_c, 12, 71, 0
17, 124919, Note_on_c, 12, 55, 0
17, 125160, Note_on_c, 12, 65, 76
17, 125160, Note_on_c, 12, 74, 76
17, 125160, Note_on_c, 12, 55, 76
17, 125399, Note_on_c, 12, 65, 0
17, 125399, Note_on_c, 12, 74, 0
17, 125399, Note_on_c, 12, 55, 0
17, 125640, Note_on_c, 12, 72, 76
17, 125640, Note_on_c, 12, 63, 76
17, 125640, Note_on_c, 12, 55, 76
17, 125864, Note_on_c, 12, 72, 0
17, 125864, Note_on_c, 12, 63, 0
17, 125864, Note_on_c, 12, 55, 0
17, 125880, Note_on_c, 12, 60, 76
17, 125931, Note_on_c, 12, 60, 0
17, 125940, Note_on_c, 12, 60, 76
17, 125991, Note_on_c, 12, 60, 0
17, 126000, Note_on_c, 12, 63, 76
17, 126051, Note_on_c, 12, 63, 0
17, 126060, Note_on_c, 12, 63, 76
17, 126111, Note_on_c, 12, 63, 0
17, 126120, Note_on_c, 12, 60, 76
17, 126171, Note_on_c, 12, 60, 0
17, 126180, Note_on_c, 12, 60, 76
17, 126231, Note_on_c, 12, 60, 0
17, 126240, Note_on_c, 12, 63, 76
17, 126291, Note_on_c, 12, 63, 0
17, 126300, Note_on_c, 12, 63, 76
17, 126351, Note_on_c, 12, 63, 0
17, 126360, Note_on_c, 12, 60, 76
17, 126411, Note_on_c, 12, 60, 0
17, 126420, Note_on_c, 12, 60, 76
17, 126471, Note_on_c, 12, 60, 0
17, 126480, Note_on_c, 12, 62, 76
17, 126531, Note_on_c, 12, 62, 0
17, 126540, Note_on_c, 12, 62, 76
17, 126591, Note_on_c, 12, 62, 0
17, 126600, Note_on_c, 12, 60, 76
17, 126651, Note_on_c, 12, 60, 0
17, 126660, Note_on_c, 12, 60, 76
17, 126711, Note_on_c, 12, 60, 0
17, 126720, Note_on_c, 12, 62, 76
17, 126771, Note_on_c, 12, 62, 0
17, 126780, Note_on_c, 12, 62, 76
17, 126831, Note_on_c, 12, 62, 0
17, 126840, Note_on_c, 12, 60, 76
17, 126891, Note_on_c, 12, 60, 0
17, 126900, Note_on_c, 12, 60, 76
17, 126951, Note_on_c, 12, 60, 0
17, 126960, Note_on_c, 12, 62, 76
17, 127011, Note_on_c, 12, 62, 0
17, 127020, Note_on_c, 12, 62, 76
17, 127071, Note_on_c, 12, 62, 0
17, 127080, Note_on_c, 12, 60, 76
17, 127131, Note_on_c, 12, 60, 0
17, 127140, Note_on_c, 12, 60, 76
17, 127191, Note_on_c, 12, 60, 0
17, 127200, Note_on_c, 12, 62, 76
17, 127251, Note_on_c, 12, 62, 0
17, 127260, Note_on_c, 12, 62, 76
17, 127311, Note_on_c, 12, 62, 0
17, 127320, Note_on_c, 12, 58, 76
17, 127439, Note_on_c, 12, 58, 0
17, 127800, Note_on_c, 12, 60, 76
17, 128024, Note_on_c, 12, 60, 0
17, 128040, Note_on_c, 12, 72, 76
17, 128040, Note_on_c, 12, 63, 76
17, 128040, Note_on_c, 12, 55, 76
17, 128279, Note_on_c, 12, 72, 0
17, 128279, Note_on_c, 12, 63, 0
17, 128279, Note_on_c, 12, 55, 0
17, 128520, Note_on_c, 12, 71, 76
17, 128520, Note_on_c, 12, 55, 76
17, 128520, Note_on_c, 12, 62, 76
17, 128759, Note_on_c, 12, 71, 0
17, 128759, Note_on_c, 12, 55, 0
17, 128759, Note_on_c, 12, 62, 0
17, 129000, Note_on_c, 12, 55, 76
17, 129000, Note_on_c, 12, 74, 76
17, 129000, Note_on_c, 12, 65, 76
17, 129239, Note_on_c, 12, 55, 0
17, 129239, Note_on_c, 12, 74, 0
17, 129239, Note_on_c, 12, 65, 0
17, 129480, Note_on_c, 12, 63, 76
17, 129480, Note_on_c, 12, 72, 76
17, 129480, Note_on_c, 12, 55, 76
17, 129704, Note_on_c, 12, 63, 0
17, 129704, Note_on_c, 12, 72, 0
17, 129704, Note_on_c, 12, 55, 0
17, 129720, Note_on_c, 12, 60, 76
17, 129771, Note_on_c, 12, 60, 0
17, 129780, Note_on_c, 12, 60, 76
17, 129831, Note_on_c, 12, 60, 0
17, 129840, Note_on_c, 12, 63, 76
17, 129891, Note_on_c, 12, 63, 0
17, 129900, Note_on_c, 12, 63, 76
17, 129951, Note_on_c, 12, 63, 0
17, 129960, Note_on_c, 12, 60, 76
17, 130011, Note_on_c, 12, 60, 0
17, 130020, Note_on_c, 12, 60, 76
17, 130071, Note_on_c, 12, 60, 0
17, 130080, Note_on_c, 12, 63, 76
17, 130131, Note_on_c, 12, 63, 0
17, 130140, Note_on_c, 12, 63, 76
17, 130191, Note_on_c, 12, 63, 0
17, 130200, Note_on_c, 12, 60, 76
17, 130251, Note_on_c, 12, 60, 0
17, 130260, Note_on_c, 12, 60, 76
17, 130311, Note_on_c, 12, 60, 0
17, 130320, Note_on_c, 12, 62, 76
17, 130371, Note_on_c, 12, 62, 0
17, 130380, Note_on_c, 12, 62, 76
17, 130431, Note_on_c, 12, 62, 0
17, 130440, Note_on_c, 12, 60, 76
17, 130491, Note_on_c, 12, 60, 0
17, 130500, Note_on_c, 12, 60, 76
17, 130551, Note_on_c, 12, 60, 0
17, 130560, Note_on_c, 12, 62, 76
17, 130611, Note_on_c, 12, 62, 0
17, 130620, Note_on_c, 12, 62, 76
17, 130671, Note_on_c, 12, 62, 0
17, 130680, Note_on_c, 12, 60, 76
17, 130731, Note_on_c, 12, 60, 0
17, 130740, Note_on_c, 12, 60, 76
17, 130791, Note_on_c, 12, 60, 0
17, 130800, Note_on_c, 12, 62, 76
17, 130851, Note_on_c, 12, 62, 0
17, 130860, Note_on_c, 12, 62, 76
17, 130911, Note_on_c, 12, 62, 0
17, 130920, Note_on_c, 12, 60, 76
17, 130971, Note_on_c, 12, 60, 0
17, 130980, Note_on_c, 12, 60, 76
17, 131031, Note_on_c, 12, 60, 0
17, 131040, Note_on_c, 12, 62, 76
17, 131091, Note_on_c, 12, 62, 0
17, 131100, Note_on_c, 12, 62, 76
17, 131151, Note_on_c, 12, 62, 0
17, 131160, Note_on_c, 12, 59, 76
17, 131264, Note_on_c, 12, 59, 0
17, 131280, Note_on_c, 12, 77, 76
17, 131331, Note_on_c, 12, 77, 0
17, 131340, Note_on_c, 12, 77, 76
17, 131391, Note_on_c, 12, 77, 0
17, 131400, Note_on_c, 12, 75, 76
17, 131451, Note_on_c, 12, 75, 0
17, 131460, Note_on_c, 12, 75, 76
17, 131511, Note_on_c, 12, 75, 0
17, 131520, Note_on_c, 12, 74, 76
17, 131571, Note_on_c, 12, 74, 0
17, 131580, Note_on_c, 12, 74, 76
17, 131631, Note_on_c, 12, 74, 0
17, 131640, Note_on_c, 12, 72, 76
17, 131691, Note_on_c, 12, 72, 0
17, 131700, Note_on_c, 12, 72, 76
17, 131751, Note_on_c, 12, 72, 0
17, 131760, Note_on_c, 12, 75, 76
17, 131811, Note_on_c, 12, 75, 0
17, 131820, Note_on_c, 12, 75, 76
17, 131871, Note_on_c, 12, 75, 0
17, 131880, Note_on_c, 12, 72, 76
17, 131931, Note_on_c, 12, 72, 0
17, 131940, Note_on_c, 12, 72, 76
17, 131991, Note_on_c, 12, 72, 0
17, 132000, Note_on_c, 12, 75, 76
17, 132051, Note_on_c, 12, 75, 0
17, 132060, Note_on_c, 12, 75, 76
17, 132111, Note_on_c, 12, 75, 0
17, 132120, Note_on_c, 12, 72, 76
17, 132171, Note_on_c, 12, 72, 0
17, 132180, Note_on_c, 12, 72, 76
17, 132231, Note_on_c, 12, 72, 0
17, 132240, Note_on_c, 12, 74, 76
17, 132291, Note_on_c, 12, 74, 0
17, 132300, Note_on_c, 12, 74, 76
17, 132351, Note_on_c, 12, 74, 0
17, 132360, Note_on_c, 12, 72, 76
17, 132411, Note_on_c, 12, 72, 0
17, 132420, Note_on_c, 12, 72, 76
17, 132471, Note_on_c, 12, 72, 0
17, 132480, Note_on_c, 12, 74, 76
17, 132531, Note_on_c, 12, 74, 0
17, 132540, Note_on_c, 12, 74, 76
17, 132591, Note_on_c, 12, 74, 0
17, 132600, Note_on_c, 12, 72, 76
17, 132651, Note_on_c, 12, 72, 0
17, 132660, Note_on_c, 12, 72, 76
17, 132711, Note_on_c, 12, 72, 0
17, 132720, Note_on_c, 12, 74, 76
17, 132771, Note_on_c, 12, 74, 0
17, 132780, Note_on_c, 12, 74, 76
17, 132831, Note_on_c, 12, 74, 0
17, 132840, Note_on_c, 12, 72, 76
17, 132891, Note_on_c, 12, 72, 0
17, 132900, Note_on_c, 12, 72, 76
17, 132951, Note_on_c, 12, 72, 0
17, 132960, Note_on_c, 12, 74, 76
17, 133011, Note_on_c, 12, 74, 0
17, 133020, Note_on_c, 12, 74, 76
17, 133071, Note_on_c, 12, 74, 0
17, 133080, Note_on_c, 12, 70, 76
17, 133131, Note_on_c, 12, 70, 0
17, 133140, Note_on_c, 12, 74, 76
17, 133191, Note_on_c, 12, 74, 0
17, 133200, Note_on_c, 12, 70, 76
17, 133251, Note_on_c, 12, 70, 0
17, 133260, Note_on_c, 12, 67, 76
17, 133311, Note_on_c, 12, 67, 0
17, 133320, Note_on_c, 12, 70, 76
17, 133371, Note_on_c, 12, 70, 0
17, 133380, Note_on_c, 12, 74, 76
17, 133431, Note_on_c, 12, 74, 0
17, 133440, Note_on_c, 12, 70, 76
17, 133491, Note_on_c, 12, 70, 0
17, 133500, Note_on_c, 12, 67, 76
17, 133551, Note_on_c, 12, 67, 0
17, 133560, Note_on_c, 12, 72, 76
17, 133611, Note_on_c, 12, 72, 0
17, 133620, Note_on_c, 12, 74, 76
17, 133671, Note_on_c, 12, 74, 0
17, 133680, Note_on_c, 12, 72, 76
17, 133731, Note_on_c, 12, 72, 0
17, 133740, Note_on_c, 12, 69, 76
17, 133791, Note_on_c, 12, 69, 0
17, 133800, Note_on_c, 12, 72, 76
17, 133851, Note_on_c, 12, 72, 0
17, 133860, Note_on_c, 12, 74, 76
17, 133911, Note_on_c, 12, 74, 0
17, 133920, Note_on_c, 12, 72, 76
17, 133971, Note_on_c, 12, 72, 0
17, 133980, Note_on_c, 12, 69, 76
17, 134031, Note_on_c, 12, 69, 0
17, 134040, Note_on_c, 12, 70, 76
17, 134091, Note_on_c, 12, 70, 0
17, 134100, Note_on_c, 12, 74, 76
17, 134151, Note_on_c, 12, 74, 0
17, 134160, Note_on_c, 12, 70, 76
17, 134211, Note_on_c, 12, 70, 0
17, 134220, Note_on_c, 12, 67, 76
17, 134271, Note_on_c, 12, 67, 0
17, 134280, Note_on_c, 12, 70, 76
17, 134331, Note_on_c, 12, 70, 0
17, 134340, Note_on_c, 12, 74, 76
17, 134391, Note_on_c, 12, 74, 0
17, 134400, Note_on_c, 12, 70, 76
17, 134451, Note_on_c, 12, 70, 0
17, 134460, Note_on_c, 12, 67, 76
17, 134511, Note_on_c, 12, 67, 0
17, 134520, Note_on_c, 12, 72, 76
17, 134571, Note_on_c, 12, 72, 0
17, 134580, Note_on_c, 12, 74, 76
17, 134631, Note_on_c, 12, 74, 0
17, 134640, Note_on_c, 12, 72, 76
17, 134691, Note_on_c, 12, 72, 0
17, 134700, Note_on_c, 12, 69, 76
17, 134751, Note_on_c, 12, 69, 0
17, 134760, Note_on_c, 12, 72, 76
17, 134811, Note_on_c, 12, 72, 0
17, 134820, Note_on_c, 12, 74, 76
17, 134871, Note_on_c, 12, 74, 0
17, 134880, Note_on_c, 12, 72, 76
17, 134931, Note_on_c, 12, 72, 0
17, 134940, Note_on_c, 12, 69, 76
17, 134991, Note_on_c, 12, 69, 0
17, 135000, Note_on_c, 12, 70, 76
17, 135051, Note_on_c, 12, 70, 0
17, 135060, Note_on_c, 12, 74, 76
17, 135111, Note_on_c, 12, 74, 0
17, 135120, Note_on_c, 12, 70, 76
17, 135171, Note_on_c, 12, 70, 0
17, 135180, Note_on_c, 12, 67, 76
17, 135231, Note_on_c, 12, 67, 0
17, 135240, Note_on_c, 12, 72, 76
17, 135291, Note_on_c, 12, 72, 0
17, 135300, Note_on_c, 12, 74, 76
17, 135351, Note_on_c, 12, 74, 0
17, 135360, Note_on_c, 12, 72, 76
17, 135411, Note_on_c, 12, 72, 0
17, 135420, Note_on_c, 12, 69, 76
17, 135471, Note_on_c, 12, 69, 0
17, 135480, Note_on_c, 12, 70, 76
17, 135531, Note_on_c, 12, 70, 0
17, 135540, Note_on_c, 12, 74, 76
17, 135591, Note_on_c, 12, 74, 0
17, 135600, Note_on_c, 12, 70, 76
17, 135651, Note_on_c, 12, 70, 0
17, 135660, Note_on_c, 12, 67, 76
17, 135711, Note_on_c, 12, 67, 0
17, 135720, Note_on_c, 12, 72, 76
17, 135771, Note_on_c, 12, 72, 0
17, 135780, Note_on_c, 12, 74, 76
17, 135831, Note_on_c, 12, 74, 0
17, 135840, Note_on_c, 12, 72, 76
17, 135891, Note_on_c, 12, 72, 0
17, 135900, Note_on_c, 12, 69, 76
17, 135951, Note_on_c, 12, 69, 0
17, 135960, Note_on_c, 12, 70, 76
17, 136011, Note_on_c, 12, 70, 0
17, 136020, Note_on_c, 12, 74, 76
17, 136071, Note_on_c, 12, 74, 0
17, 136080, Note_on_c, 12, 70, 76
17, 136131, Note_on_c, 12, 70, 0
17, 136140, Note_on_c, 12, 67, 76
17, 136191, Note_on_c, 12, 67, 0
17, 136200, Note_on_c, 12, 72, 76
17, 136251, Note_on_c, 12, 72, 0
17, 136260, Note_on_c, 12, 74, 76
17, 136311, Note_on_c, 12, 74, 0
17, 136320, Note_on_c, 12, 72, 76
17, 136371, Note_on_c, 12, 72, 0
17, 136380, Note_on_c, 12, 69, 76
17, 136431, Note_on_c, 12, 69, 0
17, 136440, Note_on_c, 12, 70, 76
17, 136491, Note_on_c, 12, 70, 0
17, 136500, Note_on_c, 12, 74, 76
17, 136551, Note_on_c, 12, 74, 0
17, 136560, Note_on_c, 12, 70, 76
17, 136611, Note_on_c, 12, 70, 0
17, 136620, Note_on_c, 12, 67, 76
17, 136671, Note_on_c, 12, 67, 0
17, 136680, Note_on_c, 12, 72, 76
17, 136731, Note_on_c, 12, 72, 0
17, 136740, Note_on_c, 12, 74, 76
17, 136791, Note_on_c, 12, 74, 0
17, 136800, Note_on_c, 12, 72, 76
17, 136851, Note_on_c, 12, 72, 0
17, 136860, Note_on_c, 12, 69, 76
17, 136911, Note_on_c, 12, 69, 0
17, 136920, Note_on_c, 12, 70, 76
17, 136920, Note_on_c, 12, 62, 76
17, 137159, Note_on_c, 12, 70, 0
17, 137159, Note_on_c, 12, 62, 0
17, 137400, Note_on_c, 12, 70, 76
17, 137400, Note_on_c, 12, 55, 76
17, 137400, Note_on_c, 12, 79, 76
17, 137400, Note_on_c, 12, 62, 76
17, 137639, Note_on_c, 12, 70, 0
17, 137639, Note_on_c, 12, 55, 0
17, 137639, Note_on_c, 12, 79, 0
17, 137639, Note_on_c, 12, 62, 0
17, 137880, Note_on_c, 12, 55, 52
17, 137880, Note_on_c, 12, 67, 52
17, 137999, Note_on_c, 12, 55, 0
17, 137999, Note_on_c, 12, 67, 0
17, 138960, Note_on_c, 12, 55, 52
17, 138960, Note_on_c, 12, 64, 52
17, 139049, Note_on_c, 12, 55, 0
17, 139049, Note_on_c, 12, 64, 0
17, 139080, Note_on_c, 12, 64, 52
17, 139080, Note_on_c, 12, 55, 52
17, 139169, Note_on_c, 12, 64, 0
17, 139169, Note_on_c, 12, 55, 0
17, 139200, Note_on_c, 12, 64, 52
17, 139200, Note_on_c, 12, 55, 52
17, 139289, Note_on_c, 12, 64, 0
17, 139289, Note_on_c, 12, 55, 0
17, 139440, Note_on_c, 12, 55, 52
17, 139440, Note_on_c, 12, 65, 52
17, 139529, Note_on_c, 12, 55, 0
17, 139529, Note_on_c, 12, 65, 0
17, 139560, Note_on_c, 12, 65, 52
17, 139560, Note_on_c, 12, 55, 52
17, 139649, Note_on_c, 12, 65, 0
17, 139649, Note_on_c, 12, 55, 0
17, 139680, Note_on_c, 12, 65, 52
17, 139680, Note_on_c, 12, 55, 52
17, 139769, Note_on_c, 12, 65, 0
17, 139769, Note_on_c, 12, 55, 0
17, 139920, Note_on_c, 12, 55, 52
17, 139920, Note_on_c, 12, 65, 52
17, 140009, Note_on_c, 12, 55, 0
17, 140009, Note_on_c, 12, 65, 0
17, 140040, Note_on_c, 12, 55, 52
17, 140040, Note_on_c, 12, 65, 52
17, 140129, Note_on_c, 12, 55, 0
17, 140129, Note_on_c, 12, 65, 0
17, 140160, Note_on_c, 12, 55, 52
17, 140160, Note_on_c, 12, 65, 52
17, 140249, Note_on_c, 12, 55, 0
17, 140249, Note_on_c, 12, 65, 0
17, 140400, Note_on_c, 12, 64, 52
17, 140400, Note_on_c, 12, 55, 52
17, 140489, Note_on_c, 12, 64, 0
17, 140489, Note_on_c, 12, 55, 0
17, 140520, Note_on_c, 12, 64, 52
17, 140520, Note_on_c, 12, 55, 52
17, 140609, Note_on_c, 12, 64, 0
17, 140609, Note_on_c, 12, 55, 0
17, 140640, Note_on_c, 12, 55, 52
17, 140640, Note_on_c, 12, 64, 52
17, 140729, Note_on_c, 12, 55, 0
17, 140729, Note_on_c, 12, 64, 0
17, 140880, Note_on_c, 12, 64, 56
17, 140880, Note_on_c, 12, 55, 56
17, 140999, Note_on_c, 12, 64, 0
17, 140999, Note_on_c, 12, 55, 0
17, 141120, Note_on_c, 12, 62, 64
17, 141120, Note_on_c, 12, 55, 64
17, 141239, Note_on_c, 12, 62, 0
17, 141239, Note_on_c, 12, 55, 0
17, 141360, Note_on_c, 12, 67, 76
17, 141360, Note_on_c, 12, 55, 76
17, 141464, Note_on_c, 12, 67, 0
17, 141464, Note_on_c, 12, 55, 0
17, 141480, Note_on_c, 12, 67, 63
17, 141480, Note_on_c, 12, 55, 63
17, 141584, Note_on_c, 12, 67, 0
17, 141584, Note_on_c, 12, 55, 0
17, 141600, Note_on_c, 12, 67, 58
17, 141600, Note_on_c, 12, 55, 58
17, 141719, Note_on_c, 12, 67, 0
17, 141719, Note_on_c, 12, 55, 0
17, 141840, Note_on_c, 12, 55, 52
17, 141840, Note_on_c, 12, 67, 52
17, 141944, Note_on_c, 12, 55, 0
17, 141944, Note_on_c, 12, 67, 0
17, 141960, Note_on_c, 12, 55, 52
17, 141960, Note_on_c, 12, 67, 52
17, 142064, Note_on_c, 12, 55, 0
17, 142064, Note_on_c, 12, 67, 0
17, 142080, Note_on_c, 12, 67, 52
17, 142080, Note_on_c, 12, 55, 52
17, 142199, Note_on_c, 12, 67, 0
17, 142199, Note_on_c, 12, 55, 0
17, 142320, Note_on_c, 12, 66, 52
17, 142439, Note_on_c, 12, 66, 0
17, 142440, Note_on_c, 12, 67, 52
17, 142544, Note_on_c, 12, 67, 0
17, 142560, Note_on_c, 12, 60, 44
17, 142679, Note_on_c, 12, 60, 0
17, 142680, Note_on_c, 12, 63, 44
17, 143039, Note_on_c, 12, 63, 0
17, 143040, Note_on_c, 12, 60, 44
17, 143144, Note_on_c, 12, 60, 0
17, 143160, Note_on_c, 12, 59, 44
17, 143519, Note_on_c, 12, 59, 0
17, 143520, Note_on_c, 12, 62, 44
17, 143624, Note_on_c, 12, 62, 0
17, 143640, Note_on_c, 12, 65, 44
17, 143999, Note_on_c, 12, 65, 0
17, 144000, Note_on_c, 12, 62, 44
17, 144104, Note_on_c, 12, 62, 0
17, 144120, Note_on_c, 12, 60, 44
17, 144359, Note_on_c, 12, 60, 0
17, 144480, Note_on_c, 12, 68, 44
17, 144599, Note_on_c, 12, 68, 0
17, 144600, Note_on_c, 12, 65, 44
17, 144959, Note_on_c, 12, 65, 0
17, 144960, Note_on_c, 12, 68, 44
17, 145064, Note_on_c, 12, 68, 0
17, 145080, Note_on_c, 12, 70, 44
17, 145439, Note_on_c, 12, 70, 0
17, 145440, Note_on_c, 12, 67, 44
17, 145544, Note_on_c, 12, 67, 0
17, 145560, Note_on_c, 12, 64, 44
17, 145919, Note_on_c, 12, 64, 0
17, 145920, Note_on_c, 12, 67, 44
17, 146024, Note_on_c, 12, 67, 0
17, 146040, Note_on_c, 12, 68, 44
17, 146159, Note_on_c, 12, 68, 0
17, 147960, Note_on_c, 12, 63, 44
17, 148424, Note_on_c, 12, 63, 0
17, 148440, Note_on_c, 12, 58, 44
17, 148904, Note_on_c, 12, 58, 0
17, 148920, Note_on_c, 12, 70, 44
17, 149384, Note_on_c, 12, 70, 0
17, 149400, Note_on_c, 12, 63, 44
17, 149744, Note_on_c, 12, 63, 0
17, 149760, Note_on_c, 12, 60, 44
17, 149849, Note_on_c, 12, 60, 0
17, 149880, Note_on_c, 12, 62, 44
17, 149969, Note_on_c, 12, 62, 0
17, 150000, Note_on_c, 12, 63, 44
17, 150089, Note_on_c, 12, 63, 0
17, 150120, Note_on_c, 12, 65, 44
17, 150209, Note_on_c, 12, 65, 0
17, 150240, Note_on_c, 12, 62, 44
17, 150329, Note_on_c, 12, 62, 0
17, 150360, Note_on_c, 12, 63, 44
17, 150704, Note_on_c, 12, 63, 0
17, 150720, Note_on_c, 12, 68, 44
17, 150809, Note_on_c, 12, 68, 0
17, 150840, Note_on_c, 12, 65, 44
17, 150929, Note_on_c, 12, 65, 0
17, 150960, Note_on_c, 12, 67, 44
17, 151049, Note_on_c, 12, 67, 0
17, 151080, Note_on_c, 12, 68, 44
17, 151169, Note_on_c, 12, 68, 0
17, 151200, Note_on_c, 12, 68, 44
17, 151424, Note_on_c, 12, 68, 0
17, 151440, Note_on_c, 12, 70, 44
17, 151491, Note_on_c, 12, 70, 0
17, 151500, Note_on_c, 12, 68, 44
17, 151551, Note_on_c, 12, 68, 0
17, 151560, Note_on_c, 12, 67, 44
17, 151611, Note_on_c, 12, 67, 0
17, 151620, Note_on_c, 12, 68, 44
17, 151671, Note_on_c, 12, 68, 0
17, 151680, Note_on_c, 12, 70, 44
17, 151731, Note_on_c, 12, 70, 0
17, 151740, Note_on_c, 12, 72, 44
17, 151791, Note_on_c, 12, 72, 0
17, 151800, Note_on_c, 12, 73, 44
17, 151851, Note_on_c, 12, 73, 0
17, 151860, Note_on_c, 12, 75, 44
17, 151911, Note_on_c, 12, 75, 0
17, 151920, Note_on_c, 12, 77, 44
17, 151971, Note_on_c, 12, 77, 0
17, 151980, Note_on_c, 12, 75, 44
17, 152031, Note_on_c, 12, 75, 0
17, 152040, Note_on_c, 12, 73, 44
17, 152091, Note_on_c, 12, 73, 0
17, 152100, Note_on_c, 12, 72, 44
17, 152151, Note_on_c, 12, 72, 0
17, 152160, Note_on_c, 12, 70, 44
17, 152211, Note_on_c, 12, 70, 0
17, 152220, Note_on_c, 12, 68, 44
17, 152271, Note_on_c, 12, 68, 0
17, 152280, Note_on_c, 12, 67, 44
17, 152331, Note_on_c, 12, 67, 0
17, 152340, Note_on_c, 12, 68, 44
17, 152391, Note_on_c, 12, 68, 0
17, 152400, Note_on_c, 12, 70, 44
17, 152451, Note_on_c, 12, 70, 0
17, 152460, Note_on_c, 12, 68, 44
17, 152511, Note_on_c, 12, 68, 0
17, 152520, Note_on_c, 12, 67, 44
17, 152571, Note_on_c, 12, 67, 0
17, 152580, Note_on_c, 12, 65, 44
17, 152631, Note_on_c, 12, 65, 0
17, 152640, Note_on_c, 12, 63, 44
17, 152691, Note_on_c, 12, 63, 0
17, 152700, Note_on_c, 12, 61, 44
17, 152751, Note_on_c, 12, 61, 0
17, 152760, Note_on_c, 12, 60, 44
17, 152811, Note_on_c, 12, 60, 0
17, 152820, Note_on_c, 12, 63, 44
17, 152871, Note_on_c, 12, 63, 0
17, 152880, Note_on_c, 12, 68, 44
17, 152931, Note_on_c, 12, 68, 0
17, 152940, Note_on_c, 12, 67, 44
17, 152991, Note_on_c, 12, 67, 0
17, 153000, Note_on_c, 12, 65, 44
17, 153051, Note_on_c, 12, 65, 0
17, 153060, Note_on_c, 12, 63, 44
17, 153111, Note_on_c, 12, 63, 0
17, 153120, Note_on_c, 12, 61, 44
17, 153171, Note_on_c, 12, 61, 0
17, 153180, Note_on_c, 12, 60, 44
17, 153231, Note_on_c, 12, 60, 0
17, 153240, Note_on_c, 12, 58, 44
17, 153291, Note_on_c, 12, 58, 0
17, 153300, Note_on_c, 12, 61, 44
17, 153351, Note_on_c, 12, 61, 0
17, 153360, Note_on_c, 12, 61, 44
17, 153411, Note_on_c, 12, 61, 0
17, 153420, Note_on_c, 12, 61, 44
17, 153471, Note_on_c, 12, 61, 0
17, 153480, Note_on_c, 12, 61, 44
17, 153531, Note_on_c, 12, 61, 0
17, 153540, Note_on_c, 12, 61, 44
17, 153591, Note_on_c, 12, 61, 0
17, 153600, Note_on_c, 12, 63, 44
17, 153651, Note_on_c, 12, 63, 0
17, 153660, Note_on_c, 12, 61, 44
17, 153711, Note_on_c, 12, 61, 0
17, 153720, Note_on_c, 12, 60, 44
17, 153771, Note_on_c, 12, 60, 0
17, 153780, Note_on_c, 12, 63, 44
17, 153831, Note_on_c, 12, 63, 0
17, 153840, Note_on_c, 12, 68, 44
17, 153891, Note_on_c, 12, 68, 0
17, 153900, Note_on_c, 12, 67, 44
17, 153951, Note_on_c, 12, 67, 0
17, 153960, Note_on_c, 12, 65, 44
17, 154011, Note_on_c, 12, 65, 0
17, 154020, Note_on_c, 12, 65, 44
17, 154071, Note_on_c, 12, 65, 0
17, 154080, Note_on_c, 12, 67, 44
17, 154131, Note_on_c, 12, 67, 0
17, 154140, Note_on_c, 12, 68, 44
17, 154191, Note_on_c, 12, 68, 0
17, 154200, Note_on_c, 12, 70, 44
17, 154319, Note_on_c, 12, 70, 0
17, 154560, Note_on_c, 12, 73, 44
17, 154731, Note_on_c, 12, 73, 0
17, 154740, Note_on_c, 12, 67, 44
17, 154791, Note_on_c, 12, 67, 0
17, 154800, Note_on_c, 12, 72, 44
17, 154851, Note_on_c, 12, 72, 0
17, 154860, Note_on_c, 12, 70, 44
17, 154911, Note_on_c, 12, 70, 0
17, 154920, Note_on_c, 12, 68, 44
17, 154971, Note_on_c, 12, 68, 0
17, 154980, Note_on_c, 12, 67, 44
17, 155031, Note_on_c, 12, 67, 0
17, 155040, Note_on_c, 12, 68, 44
17, 155091, Note_on_c, 12, 68, 0
17, 155100, Note_on_c, 12, 70, 44
17, 155151, Note_on_c, 12, 70, 0
17, 155160, Note_on_c, 12, 67, 44
17, 155504, Note_on_c, 12, 67, 0
17, 155520, Note_on_c, 12, 65, 44
17, 155571, Note_on_c, 12, 65, 0
17, 155580, Note_on_c, 12, 63, 44
17, 155631, Note_on_c, 12, 63, 0
17, 155640, Note_on_c, 12, 72, 44
17, 155744, Note_on_c, 12, 72, 0
17, 155760, Note_on_c, 12, 58, 44
17, 155811, Note_on_c, 12, 58, 0
17, 155820, Note_on_c, 12, 60, 44
17, 155871, Note_on_c, 12, 60, 0
17, 155880, Note_on_c, 12, 62, 44
17, 155931, Note_on_c, 12, 62, 0
17, 155940, Note_on_c, 12, 63, 44
17, 155991, Note_on_c, 12, 63, 0
17, 156000, Note_on_c, 12, 65, 44
17, 156051, Note_on_c, 12, 65, 0
17, 156060, Note_on_c, 12, 67, 44
17, 156111, Note_on_c, 12, 67, 0
17, 156120, Note_on_c, 12, 68, 44
17, 156224, Note_on_c, 12, 68, 0
17, 156240, Note_on_c, 12, 65, 44
17, 156291, Note_on_c, 12, 65, 0
17, 156300, Note_on_c, 12, 67, 44
17, 156351, Note_on_c, 12, 67, 0
17, 156360, Note_on_c, 12, 68, 44
17, 156411, Note_on_c, 12, 68, 0
17, 156420, Note_on_c, 12, 70, 44
17, 156471, Note_on_c, 12, 70, 0
17, 156480, Note_on_c, 12, 72, 44
17, 156531, Note_on_c, 12, 72, 0
17, 156540, Note_on_c, 12, 74, 44
17, 156591, Note_on_c, 12, 74, 0
17, 156600, Note_on_c, 12, 75, 44
17, 156704, Note_on_c, 12, 75, 0
17, 156720, Note_on_c, 12, 67, 44
17, 156839, Note_on_c, 12, 67, 0
17, 156840, Note_on_c, 12, 68, 44
17, 157184, Note_on_c, 12, 68, 0
17, 157200, Note_on_c, 12, 65, 44
17, 157319, Note_on_c, 12, 65, 0
17, 157320, Note_on_c, 12, 70, 44
17, 157664, Note_on_c, 12, 70, 0
17, 157680, Note_on_c, 12, 67, 44
17, 157784, Note_on_c, 12, 67, 0
17, 157798, Control_c, 12, 11, 64
17, 157800, Control_c, 12, 11, 64
17, 157800, Note_on_c, 12, 68, 76
17, 157867, Control_c, 12, 11, 66
17, 157904, Note_on_c, 12, 68, 0
17, 157920, Note_on_c, 12, 60, 76
17, 157933, Control_c, 12, 11, 68
17, 158000, Control_c, 12, 11, 69
17, 158067, Control_c, 12, 11, 71
17, 158091, Note_on_c, 12, 60, 0
17, 158100, Note_on_c, 12, 70, 76
17, 158133, Control_c, 12, 11, 73
17, 158151, Note_on_c, 12, 70, 0
17, 158160, Note_on_c, 12, 68, 76
17, 158200, Control_c, 12, 11, 75
17, 158211, Note_on_c, 12, 68, 0
17, 158220, Note_on_c, 12, 67, 76
17, 158267, Control_c, 12, 11, 76
17, 158271, Note_on_c, 12, 67, 0
17, 158280, Note_on_c, 12, 65, 76
17, 158331, Note_on_c, 12, 65, 0
17, 158333, Control_c, 12, 11, 78
17, 158340, Note_on_c, 12, 63, 76
17, 158391, Note_on_c, 12, 63, 0
17, 158400, Note_on_c, 12, 62, 76
17, 158400, Control_c, 12, 11, 80
17, 158451, Note_on_c, 12, 62, 0
17, 158460, Note_on_c, 12, 60, 76
17, 158467, Control_c, 12, 11, 82
17, 158511, Note_on_c, 12, 60, 0
17, 158520, Note_on_c, 12, 59, 76
17, 158533, Control_c, 12, 11, 83
17, 158600, Control_c, 12, 11, 85
17, 158639, Note_on_c, 12, 59, 0
17, 158667, Control_c, 12, 11, 87
17, 158733, Control_c, 12, 11, 89
17, 158760, Note_on_c, 12, 74, 76
17, 158800, Control_c, 12, 11, 90
17, 158867, Control_c, 12, 11, 92
17, 158933, Control_c, 12, 11, 94
17, 158939, Note_on_c, 12, 74, 0
17, 159000, Control_c, 12, 11, 96
17, 159000, Note_on_c, 12, 67, 76
17, 159067, Control_c, 12, 11, 97
17, 159133, Control_c, 12, 11, 99
17, 159179, Note_on_c, 12, 67, 0
17, 159200, Control_c, 12, 11, 101
17, 159240, Note_on_c, 12, 79, 76
17, 159267, Control_c, 12, 11, 103
17, 159333, Control_c, 12, 11, 104
17, 159400, Control_c, 12, 11, 106
17, 159467, Control_c, 12, 11, 108
17, 159533, Control_c, 12, 11, 110
17, 159584, Note_on_c, 12, 79, 0
17, 159600, Note_on_c, 12, 79, 76
17, 159600, Control_c, 12, 11, 111
17, 159667, Control_c, 12, 11, 113
17, 159719, Note_on_c, 12, 79, 0
17, 159720, Note_on_c, 12, 80, 76
17, 159733, Control_c, 12, 11, 115
17, 159800, Control_c, 12, 11, 117
17, 159867, Control_c, 12, 11, 118
17, 159933, Control_c, 12, 11, 120
17, 160000, Control_c, 12, 11, 122
17, 160064, Note_on_c, 12, 80, 0
17, 160067, Control_c, 12, 11, 124
17, 160080, Note_on_c, 12, 77, 76
17, 160133, Control_c, 12, 11, 127
17, 160199, Note_on_c, 12, 77, 0
17, 160200, Note_on_c, 12, 82, 76
17, 160679, Note_on_c, 12, 82, 0
17, 163560, Note_on_c, 12, 70, 84
17, 163799, Note_on_c, 12, 70, 0
17, 163800, Note_on_c, 12, 70, 76
17, 164024, Note_on_c, 12, 70, 0
17, 164040, Note_on_c, 12, 63, 76
17, 164219, Note_on_c, 12, 63, 0
17, 164520, Note_on_c, 12, 72, 84
17, 164759, Note_on_c, 12, 72, 0
17, 164760, Note_on_c, 12, 72, 76
17, 164984, Note_on_c, 12, 72, 0
17, 165000, Note_on_c, 12, 65, 76
17, 165179, Note_on_c, 12, 65, 0
17, 165360, Note_on_c, 12, 67, 76
17, 165411, Note_on_c, 12, 67, 0
17, 165420, Note_on_c, 12, 68, 76
17, 165471, Note_on_c, 12, 68, 0
17, 165480, Note_on_c, 12, 70, 76
17, 165531, Note_on_c, 12, 70, 0
17, 165540, Note_on_c, 12, 68, 76
17, 165591, Note_on_c, 12, 68, 0
17, 165600, Note_on_c, 12, 70, 76
17, 165651, Note_on_c, 12, 70, 0
17, 165660, Note_on_c, 12, 67, 76
17, 165711, Note_on_c, 12, 67, 0
17, 165720, Note_on_c, 12, 68, 76
17, 165771, Note_on_c, 12, 68, 0
17, 165780, Note_on_c, 12, 67, 76
17, 165831, Note_on_c, 12, 67, 0
17, 165840, Note_on_c, 12, 68, 76
17, 165891, Note_on_c, 12, 68, 0
17, 165900, Note_on_c, 12, 70, 76
17, 165951, Note_on_c, 12, 70, 0
17, 165960, Note_on_c, 12, 72, 76
17, 166011, Note_on_c, 12, 72, 0
17, 166020, Note_on_c, 12, 65, 76
17, 166071, Note_on_c, 12, 65, 0
17, 166080, Note_on_c, 12, 67, 76
17, 166131, Note_on_c, 12, 67, 0
17, 166140, Note_on_c, 12, 68, 76
17, 166191, Note_on_c, 12, 68, 0
17, 166200, Note_on_c, 12, 70, 84
17, 166304, Note_on_c, 12, 70, 0
17, 166320, Note_on_c, 12, 70, 84
17, 166371, Note_on_c, 12, 70, 0
17, 166380, Note_on_c, 12, 72, 84
17, 166431, Note_on_c, 12, 72, 0
17, 166440, Note_on_c, 12, 74, 84
17, 166491, Note_on_c, 12, 74, 0
17, 166500, Note_on_c, 12, 75, 84
17, 166551, Note_on_c, 12, 75, 0
17, 166560, Note_on_c, 12, 77, 84
17, 166611, Note_on_c, 12, 77, 0
17, 166620, Note_on_c, 12, 79, 84
17, 166671, Note_on_c, 12, 79, 0
17, 166680, Note_on_c, 12, 80, 84
17, 166731, Note_on_c, 12, 80, 0
17, 166740, Note_on_c, 12, 82, 84
17, 166791, Note_on_c, 12, 82, 0
17, 166800, Note_on_c, 12, 84, 84
17, 166851, Note_on_c, 12, 84, 0
17, 166860, Note_on_c, 12, 82, 84
17, 166911, Note_on_c, 12, 82, 0
17, 166920, Note_on_c, 12, 80, 84
17, 166971, Note_on_c, 12, 80, 0
17, 166980, Note_on_c, 12, 79, 84
17, 167031, Note_on_c, 12, 79, 0
17, 167040, Note_on_c, 12, 77, 84
17, 167091, Note_on_c, 12, 77, 0
17, 167100, Note_on_c, 12, 75, 84
17, 167151, Note_on_c, 12, 75, 0
17, 167160, Note_on_c, 12, 77, 84
17, 167211, Note_on_c, 12, 77, 0
17, 167220, Note_on_c, 12, 75, 84
17, 167271, Note_on_c, 12, 75, 0
17, 167280, Note_on_c, 12, 74, 84
17, 167331, Note_on_c, 12, 74, 0
17, 167340, Note_on_c, 12, 72, 84
17, 167391, Note_on_c, 12, 72, 0
17, 167400, Note_on_c, 12, 70, 84
17, 167451, Note_on_c, 12, 70, 0
17, 167460, Note_on_c, 12, 68, 84
17, 167511, Note_on_c, 12, 68, 0
17, 167520, Note_on_c, 12, 67, 84
17, 167571, Note_on_c, 12, 67, 0
17, 167580, Note_on_c, 12, 65, 84
17, 167631, Note_on_c, 12, 65, 0
17, 167640, Note_on_c, 12, 67, 84
17, 167759, Note_on_c, 12, 67, 0
17, 168240, Note_on_c, 12, 70, 84
17, 168291, Note_on_c, 12, 70, 0
17, 168300, Note_on_c, 12, 70, 84
17, 168351, Note_on_c, 12, 70, 0
17, 168360, Note_on_c, 12, 65, 84
17, 168411, Note_on_c, 12, 65, 0
17, 168420, Note_on_c, 12, 65, 84
17, 168471, Note_on_c, 12, 65, 0
17, 168480, Note_on_c, 12, 77, 84
17, 168531, Note_on_c, 12, 77, 0
17, 168540, Note_on_c, 12, 77, 84
17, 168591, Note_on_c, 12, 77, 0
17, 168600, Note_on_c, 12, 79, 84
17, 169184, Note_on_c, 12, 79, 0
17, 169200, Note_on_c, 12, 77, 84
17, 169251, Note_on_c, 12, 77, 0
17, 169260, Note_on_c, 12, 77, 84
17, 169311, Note_on_c, 12, 77, 0
17, 169320, Note_on_c, 12, 65, 84
17, 169371, Note_on_c, 12, 65, 0
17, 169380, Note_on_c, 12, 65, 84
17, 169431, Note_on_c, 12, 65, 0
17, 169440, Note_on_c, 12, 77, 84
17, 169491, Note_on_c, 12, 77, 0
17, 169500, Note_on_c, 12, 77, 84
17, 169551, Note_on_c, 12, 77, 0
17, 169560, Note_on_c, 12, 75, 84
17, 169679, Note_on_c, 12, 75, 0
17, 170160, Note_on_c, 12, 68, 84
17, 170211, Note_on_c, 12, 68, 0
17, 170220, Note_on_c, 12, 68, 84
17, 170271, Note_on_c, 12, 68, 0
17, 170280, Note_on_c, 12, 58, 84
17, 170331, Note_on_c, 12, 58, 0
17, 170340, Note_on_c, 12, 58, 84
17, 170391, Note_on_c, 12, 58, 0
17, 170400, Note_on_c, 12, 70, 84
17, 170451, Note_on_c, 12, 70, 0
17, 170460, Note_on_c, 12, 70, 84
17, 170511, Note_on_c, 12, 70, 0
17, 170520, Note_on_c, 12, 72, 84
17, 170639, Note_on_c, 12, 72, 0
17, 171120, Note_on_c, 12, 70, 84
17, 171171, Note_on_c, 12, 70, 0
17, 171180, Note_on_c, 12, 70, 84
17, 171231, Note_on_c, 12, 70, 0
17, 171240, Note_on_c, 12, 58, 84
17, 171291, Note_on_c, 12, 58, 0
17, 171300, Note_on_c, 12, 58, 84
17, 171351, Note_on_c, 12, 58, 0
17, 171360, Note_on_c, 12, 70, 84
17, 171411, Note_on_c, 12, 70, 0
17, 171420, Note_on_c, 12, 70, 84
17, 171471, Note_on_c, 12, 70, 0
17, 171480, Note_on_c, 12, 68, 84
17, 171531, Note_on_c, 12, 68, 0
17, 171540, Note_on_c, 12, 68, 84
17, 171591, Note_on_c, 12, 68, 0
17, 171600, Note_on_c, 12, 70, 84
17, 171651, Note_on_c, 12, 70, 0
17, 171660, Note_on_c, 12, 70, 84
17, 171711, Note_on_c, 12, 70, 0
17, 171720, Note_on_c, 12, 70, 84
17, 171771, Note_on_c, 12, 70, 0
17, 171780, Note_on_c, 12, 70, 84
17, 171831, Note_on_c, 12, 70, 0
17, 171840, Note_on_c, 12, 70, 84
17, 171891, Note_on_c, 12, 70, 0
17, 171900, Note_on_c, 12, 70, 84
17, 171951, Note_on_c, 12, 70, 0
17, 171960, Note_on_c, 12, 70, 84
17, 172011, Note_on_c, 12, 70, 0
17, 172020, Note_on_c, 12, 75, 84
17, 172071, Note_on_c, 12, 75, 0
17, 172080, Note_on_c, 12, 75, 84
17, 172131, Note_on_c, 12, 75, 0
17, 172140, Note_on_c, 12, 75, 84
17, 172191, Note_on_c, 12, 75, 0
17, 172200, Note_on_c, 12, 75, 84
17, 172251, Note_on_c, 12, 75, 0
17, 172260, Note_on_c, 12, 75, 84
17, 172311, Note_on_c, 12, 75, 0
17, 172320, Note_on_c, 12, 75, 84
17, 172371, Note_on_c, 12, 75, 0
17, 172380, Note_on_c, 12, 75, 84
17, 172431, Note_on_c, 12, 75, 0
17, 172440, Note_on_c, 12, 74, 84
17, 172619, Note_on_c, 12, 74, 0
17, 172680, Note_on_c, 12, 74, 84
17, 172859, Note_on_c, 12, 74, 0
17, 172920, Note_on_c, 12, 67, 84
17, 173099, Note_on_c, 12, 67, 0
17, 173160, Note_on_c, 12, 79, 84
17, 173339, Note_on_c, 12, 79, 0
17, 173640, Note_on_c, 12, 72, 84
17, 173819, Note_on_c, 12, 72, 0
17, 173880, Note_on_c, 12, 65, 84
17, 174059, Note_on_c, 12, 65, 0
17, 174120, Note_on_c, 12, 77, 84
17, 174299, Note_on_c, 12, 77, 0
17, 174480, Note_on_c, 12, 70, 84
17, 174569, Note_on_c, 12, 70, 0
17, 174600, Note_on_c, 12, 63, 84
17, 174689, Note_on_c, 12, 63, 0
17, 174720, Note_on_c, 12, 75, 84
17, 174809, Note_on_c, 12, 75, 0
17, 174960, Note_on_c, 12, 68, 84
17, 175049, Note_on_c, 12, 68, 0
17, 175080, Note_on_c, 12, 62, 84
17, 175169, Note_on_c, 12, 62, 0
17, 175200, Note_on_c, 12, 74, 84
17, 175289, Note_on_c, 12, 74, 0
17, 175320, Note_on_c, 12, 67, 84
17, 175409, Note_on_c, 12, 67, 0
17, 175440, Note_on_c, 12, 55, 84
17, 175529, Note_on_c, 12, 55, 0
17, 175560, Note_on_c, 12, 60, 84
17, 175649, Note_on_c, 12, 60, 0
17, 175680, Note_on_c, 12, 65, 84
17, 175769, Note_on_c, 12, 65, 0
17, 175800, Note_on_c, 12, 58, 84
17, 175889, Note_on_c, 12, 58, 0
17, 175920, Note_on_c, 12, 63, 84
17, 176009, Note_on_c, 12, 63, 0
17, 176040, Note_on_c, 12, 68, 84
17, 176129, Note_on_c, 12, 68, 0
17, 176160, Note_on_c, 12, 56, 84
17, 176249, Note_on_c, 12, 56, 0
17, 176280, Note_on_c, 12, 67, 84
17, 176369, Note_on_c, 12, 67, 0
17, 176400, Note_on_c, 12, 60, 84
17, 176489, Note_on_c, 12, 60, 0
17, 176520, Note_on_c, 12, 65, 84
17, 176609, Note_on_c, 12, 65, 0
17, 176640, Note_on_c, 12, 70, 84
17, 176729, Note_on_c, 12, 70, 0
17, 176760, Note_on_c, 12, 63, 84
17, 176864, Note_on_c, 12, 63, 0
17, 176880, Note_on_c, 12, 68, 84
17, 176984, Note_on_c, 12, 68, 0
17, 177000, Note_on_c, 12, 74, 84
17, 177104, Note_on_c, 12, 74, 0
17, 177120, Note_on_c, 12, 56, 84
17, 177224, Note_on_c, 12, 56, 0
17, 177240, Note_on_c, 12, 62, 84
17, 177344, Note_on_c, 12, 62, 0
17, 177360, Note_on_c, 12, 56, 84
17, 177464, Note_on_c, 12, 56, 0
17, 177480, Note_on_c, 12, 62, 84
17, 177584, Note_on_c, 12, 62, 0
17, 177600, Note_on_c, 12, 56, 84
17, 177704, Note_on_c, 12, 56, 0
17, 177720, Note_on_c, 12, 65, 84
17, 177824, Note_on_c, 12, 65, 0
17, 177840, Note_on_c, 12, 62, 84
17, 177944, Note_on_c, 12, 62, 0
17, 177960, Note_on_c, 12, 68, 84
17, 178064, Note_on_c, 12, 68, 0
17, 178080, Note_on_c, 12, 62, 84
17, 178184, Note_on_c, 12, 62, 0
17, 178200, Note_on_c, 12, 68, 84
17, 178304, Note_on_c, 12, 68, 0
17, 178320, Note_on_c, 12, 65, 84
17, 178424, Note_on_c, 12, 65, 0
17, 178440, Note_on_c, 12, 74, 84
17, 178544, Note_on_c, 12, 74, 0
17, 178560, Note_on_c, 12, 68, 84
17, 178664, Note_on_c, 12, 68, 0
17, 178680, Note_on_c, 12, 77, 84
17, 178784, Note_on_c, 12, 77, 0
17, 178800, Note_on_c, 12, 74, 84
17, 178904, Note_on_c, 12, 74, 0
17, 178920, Note_on_c, 12, 80, 84
17, 179024, Note_on_c, 12, 80, 0
17, 179040, Note_on_c, 12, 80, 84
17, 179144, Note_on_c, 12, 80, 0
17, 179160, Note_on_c, 12, 80, 84
17, 179211, Note_on_c, 12, 80, 0
17, 179220, Note_on_c, 12, 80, 84
17, 179271, Note_on_c, 12, 80, 0
17, 179280, Note_on_c, 12, 80, 84
17, 179331, Note_on_c, 12, 80, 0
17, 179340, Note_on_c, 12, 80, 84
17, 179391, Note_on_c, 12, 80, 0
17, 179400, Note_on_c, 12, 80, 84
17, 179451, Note_on_c, 12, 80, 0
17, 179460, Note_on_c, 12, 80, 84
17, 179511, Note_on_c, 12, 80, 0
17, 179520, Note_on_c, 12, 80, 84
17, 179571, Note_on_c, 12, 80, 0
17, 179580, Note_on_c, 12, 80, 84
17, 179631, Note_on_c, 12, 80, 0
17, 179640, Note_on_c, 12, 80, 84
17, 179691, Note_on_c, 12, 80, 0
17, 179700, Note_on_c, 12, 80, 84
17, 179751, Note_on_c, 12, 80, 0
17, 179760, Note_on_c, 12, 80, 84
17, 179811, Note_on_c, 12, 80, 0
17, 179820, Note_on_c, 12, 80, 84
17, 179871, Note_on_c, 12, 80, 0
17, 179880, Note_on_c, 12, 80, 84
17, 179931, Note_on_c, 12, 80, 0
17, 179940, Note_on_c, 12, 80, 84
17, 179991, Note_on_c, 12, 80, 0
17, 180000, Note_on_c, 12, 80, 84
17, 180051, Note_on_c, 12, 80, 0
17, 180060, Note_on_c, 12, 80, 84
17, 180111, Note_on_c, 12, 80, 0
17, 180120, Note_on_c, 12, 80, 84
17, 180224, Note_on_c, 12, 80, 0
17, 180240, Note_on_c, 12, 68, 84
17, 180464, Note_on_c, 12, 68, 0
17, 180480, Note_on_c, 12, 68, 84
17, 180704, Note_on_c, 12, 68, 0
17, 180720, Note_on_c, 12, 68, 84
17, 180944, Note_on_c, 12, 68, 0
17, 180960, Note_on_c, 12, 68, 92
17, 181079, Note_on_c, 12, 68, 0
17, 181080, Note_on_c, 12, 68, 84
17, 182024, Note_on_c, 12, 68, 0
17, 182040, Note_on_c, 12, 68, 92
17, 182369, Note_on_c, 12, 68, 0
17, 186240, Note_on_c, 12, 58, 52
17, 186351, Note_on_c, 12, 58, 0
17, 186360, Note_on_c, 12, 58, 52
17, 186599, Note_on_c, 12, 58, 0
17, 186600, Note_on_c, 12, 60, 52
17, 186809, Note_on_c, 12, 60, 0
17, 186810, Note_on_c, 12, 58, 52
17, 186835, Note_on_c, 12, 58, 0
17, 186840, Note_on_c, 12, 58, 52
17, 187199, Note_on_c, 12, 58, 0
17, 187200, Note_on_c, 12, 60, 52
17, 187259, Note_on_c, 12, 60, 0
17, 187260, Note_on_c, 12, 58, 52
17, 187315, Note_on_c, 12, 58, 0
17, 187320, Note_on_c, 12, 56, 52
17, 187559, Note_on_c, 12, 56, 0
17, 187560, Note_on_c, 12, 62, 68
17, 187769, Note_on_c, 12, 62, 0
17, 187770, Note_on_c, 12, 60, 52
17, 187795, Note_on_c, 12, 60, 0
17, 187800, Note_on_c, 12, 60, 52
17, 188159, Note_on_c, 12, 60, 0
17, 188160, Note_on_c, 12, 63, 52
17, 188271, Note_on_c, 12, 63, 0
17, 188278, Control_c, 12, 11, 96
17, 188280, Note_on_c, 12, 63, 68
17, 188280, Control_c, 12, 11, 96
17, 188300, Control_c, 12, 11, 97
17, 188320, Control_c, 12, 11, 99
17, 188340, Control_c, 12, 11, 100
17, 188360, Control_c, 12, 11, 101
17, 188380, Control_c, 12, 11, 102
17, 188400, Control_c, 12, 11, 104
17, 188420, Control_c, 12, 11, 105
17, 188440, Control_c, 12, 11, 106
17, 188460, Control_c, 12, 11, 108
17, 188480, Control_c, 12, 11, 109
17, 188500, Control_c, 12, 11, 110
17, 188519, Note_on_c, 12, 63, 0
17, 188520, Control_c, 12, 11, 112
17, 188520, Note_on_c, 12, 68, 68
17, 188540, Control_c, 12, 11, 113
17, 188560, Control_c, 12, 11, 114
17, 188580, Control_c, 12, 11, 115
17, 188600, Control_c, 12, 11, 117
17, 188620, Control_c, 12, 11, 118
17, 188640, Control_c, 12, 11, 119
17, 188660, Control_c, 12, 11, 121
17, 188680, Control_c, 12, 11, 122
17, 188700, Control_c, 12, 11, 123
17, 188720, Control_c, 12, 11, 124
17, 188729, Note_on_c, 12, 68, 0
17, 188730, Note_on_c, 12, 67, 68
17, 188740, Control_c, 12, 11, 127
17, 188755, Note_on_c, 12, 67, 0
17, 188760, Note_on_c, 12, 67, 76
17, 188790, Control_c, 12, 11, 112
17, 188809, Control_c, 12, 11, 111
17, 188828, Control_c, 12, 11, 109
17, 188846, Control_c, 12, 11, 108
17, 188865, Control_c, 12, 11, 107
17, 188884, Control_c, 12, 11, 105
17, 188903, Control_c, 12, 11, 104
17, 188921, Control_c, 12, 11, 103
17, 188940, Control_c, 12, 11, 101
17, 188959, Control_c, 12, 11, 100
17, 188978, Control_c, 12, 11, 99
17, 188996, Control_c, 12, 11, 97
17, 189015, Control_c, 12, 11, 96
17, 189034, Control_c, 12, 11, 95
17, 189053, Control_c, 12, 11, 93
17, 189071, Control_c, 12, 11, 92
17, 189090, Control_c, 12, 11, 91
17, 189104, Note_on_c, 12, 67, 0
17, 189109, Control_c, 12, 11, 89
17, 189120, Note_on_c, 12, 67, 76
17, 189128, Control_c, 12, 11, 88
17, 189146, Control_c, 12, 11, 87
17, 189165, Control_c, 12, 11, 85
17, 189184, Control_c, 12, 11, 84
17, 189203, Control_c, 12, 11, 83
17, 189221, Control_c, 12, 11, 80
17, 189239, Note_on_c, 12, 67, 0
17, 189240, Note_on_c, 12, 67, 76
17, 189351, Note_on_c, 12, 67, 0
17, 189360, Note_on_c, 12, 65, 76
17, 189591, Note_on_c, 12, 65, 0
17, 189600, Note_on_c, 12, 63, 76
17, 189720, Control_c, 12, 11, 80
17, 189730, Control_c, 12, 11, 83
17, 189740, Control_c, 12, 11, 85
17, 189750, Control_c, 12, 11, 88
17, 189760, Control_c, 12, 11, 91
17, 189770, Control_c, 12, 11, 93
17, 189780, Control_c, 12, 11, 96
17, 189790, Control_c, 12, 11, 99
17, 189800, Control_c, 12, 11, 101
17, 189810, Control_c, 12, 11, 104
17, 189820, Control_c, 12, 11, 107
17, 189830, Control_c, 12, 11, 109
17, 189840, Control_c, 12, 11, 112
17, 189850, Control_c, 12, 11, 109
17, 189860, Control_c, 12, 11, 107
17, 189870, Control_c, 12, 11, 104
17, 189880, Control_c, 12, 11, 101
17, 189890, Control_c, 12, 11, 99
17, 189900, Control_c, 12, 11, 96
17, 189910, Control_c, 12, 11, 93
17, 189920, Control_c, 12, 11, 91
17, 189930, Control_c, 12, 11, 88
17, 189940, Control_c, 12, 11, 85
17, 189950, Control_c, 12, 11, 80
17, 189959, Note_on_c, 12, 63, 0
17, 189960, Note_on_c, 12, 62, 76
17, 190079, Note_on_c, 12, 62, 0
17, 190125, Control_c, 12, 11, 96
17, 190320, Note_on_c, 12, 56, 68
17, 190320, Note_on_c, 12, 62, 68
17, 190439, Note_on_c, 12, 56, 0
17, 190439, Note_on_c, 12, 62, 0
17, 190560, Note_on_c, 12, 56, 68
17, 190560, Note_on_c, 12, 62, 68
17, 190679, Note_on_c, 12, 56, 0
17, 190679, Note_on_c, 12, 62, 0
17, 190680, Control_c, 12, 11, 112
17, 190800, Note_on_c, 12, 56, 60
17, 190800, Note_on_c, 12, 62, 60
17, 190919, Note_on_c, 12, 56, 0
17, 190919, Note_on_c, 12, 62, 0
17, 191040, Note_on_c, 12, 56, 60
17, 191040, Note_on_c, 12, 62, 60
17, 191159, Note_on_c, 12, 56, 0
17, 191159, Note_on_c, 12, 62, 0
17, 191280, Note_on_c, 12, 56, 60
17, 191280, Note_on_c, 12, 62, 60
17, 191399, Note_on_c, 12, 56, 0
17, 191399, Note_on_c, 12, 62, 0
17, 191520, Note_on_c, 12, 62, 60
17, 191520, Note_on_c, 12, 56, 60
17, 191565, Control_c, 12, 11, 127
17, 191639, Note_on_c, 12, 62, 0
17, 191639, Note_on_c, 12, 56, 0
17, 191760, Note_on_c, 12, 56, 52
17, 191760, Note_on_c, 12, 62, 52
17, 191879, Note_on_c, 12, 56, 0
17, 191879, Note_on_c, 12, 62, 0
17, 192000, Note_on_c, 12, 58, 52
17, 192000, Note_on_c, 12, 65, 52
17, 192119, Note_on_c, 12, 58, 0
17, 192119, Note_on_c, 12, 65, 0
17, 192240, Note_on_c, 12, 67, 54
17, 192240, Note_on_c, 12, 58, 54
17, 192359, Note_on_c, 12, 67, 0
17, 192359, Note_on_c, 12, 58, 0
17, 192480, Note_on_c, 12, 58, 58
17, 192480, Note_on_c, 12, 67, 58
17, 192599, Note_on_c, 12, 58, 0
17, 192599, Note_on_c, 12, 67, 0
17, 192720, Note_on_c, 12, 65, 62
17, 192720, Note_on_c, 12, 60, 62
17, 192839, Note_on_c, 12, 65, 0
17, 192839, Note_on_c, 12, 60, 0
17, 192960, Note_on_c, 12, 65, 66
17, 192960, Note_on_c, 12, 60, 66
17, 193079, Note_on_c, 12, 65, 0
17, 193079, Note_on_c, 12, 60, 0
17, 193185, Control_c, 12, 11, 112
17, 193200, Note_on_c, 12, 58, 68
17, 193200, Note_on_c, 12, 67, 68
17, 193210, Control_c, 12, 11, 113
17, 193220, Control_c, 12, 11, 114
17, 193230, Control_c, 12, 11, 115
17, 193240, Control_c, 12, 11, 117
17, 193250, Control_c, 12, 11, 118
17, 193260, Control_c, 12, 11, 119
17, 193270, Control_c, 12, 11, 121
17, 193280, Control_c, 12, 11, 122
17, 193290, Control_c, 12, 11, 123
17, 193300, Control_c, 12, 11, 124
17, 193310, Control_c, 12, 11, 126
17, 193319, Note_on_c, 12, 58, 0
17, 193319, Note_on_c, 12, 67, 0
17, 193320, Control_c, 12, 11, 127
17, 193430, Control_c, 12, 11, 113
17, 193440, Note_on_c, 12, 58, 68
17, 193440, Note_on_c, 12, 65, 68
17, 193440, Control_c, 12, 11, 112
17, 193450, Control_c, 12, 11, 110
17, 193460, Control_c, 12, 11, 109
17, 193470, Control_c, 12, 11, 108
17, 193480, Control_c, 12, 11, 106
17, 193490, Control_c, 12, 11, 105
17, 193500, Control_c, 12, 11, 104
17, 193510, Control_c, 12, 11, 102
17, 193520, Control_c, 12, 11, 101
17, 193530, Control_c, 12, 11, 100
17, 193540, Control_c, 12, 11, 99
17, 193550, Control_c, 12, 11, 96
17, 193551, Note_on_c, 12, 58, 0
17, 193551, Note_on_c, 12, 65, 0
17, 193560, Control_c, 12, 11, 96
17, 193560, Note_on_c, 12, 63, 68
17, 193580, Control_c, 12, 11, 97
17, 193600, Control_c, 12, 11, 99
17, 193615, Note_on_c, 12, 63, 0
17, 193620, Note_on_c, 12, 70, 68
17, 193620, Control_c, 12, 11, 100
17, 193640, Control_c, 12, 11, 101
17, 193660, Control_c, 12, 11, 102
17, 193679, Note_on_c, 12, 70, 0
17, 193680, Control_c, 12, 11, 104
17, 193680, Note_on_c, 12, 69, 68
17, 193700, Control_c, 12, 11, 105
17, 193720, Control_c, 12, 11, 106
17, 193739, Note_on_c, 12, 69, 0
17, 193740, Note_on_c, 12, 70, 68
17, 193740, Control_c, 12, 11, 108
17, 193760, Control_c, 12, 11, 109
17, 193780, Control_c, 12, 11, 110
17, 193799, Note_on_c, 12, 70, 0
17, 193800, Control_c, 12, 11, 112
17, 193800, Note_on_c, 12, 68, 68
17, 193820, Control_c, 12, 11, 113
17, 193840, Control_c, 12, 11, 114
17, 193859, Note_on_c, 12, 68, 0
17, 193860, Note_on_c, 12, 67, 68
17, 193860, Control_c, 12, 11, 115
17, 193880, Control_c, 12, 11, 117
17, 193900, Control_c, 12, 11, 118
17, 193919, Note_on_c, 12, 67, 0
17, 193920, Control_c, 12, 11, 119
17, 193920, Note_on_c, 12, 65, 68
17, 193940, Control_c, 12, 11, 121
17, 193960, Control_c, 12, 11, 122
17, 193979, Note_on_c, 12, 65, 0
17, 193980, Note_on_c, 12, 63, 68
17, 193980, Control_c, 12, 11, 123
17, 194000, Control_c, 12, 11, 124
17, 194020, Control_c, 12, 11, 127
17, 194035, Note_on_c, 12, 63, 0
17, 194040, Note_on_c, 12, 62, 52
17, 194159, Note_on_c, 12, 62, 0
17, 194610, Note_on_c, 12, 58, 52
17, 194631, Note_on_c, 12, 58, 0
17, 194640, Note_on_c, 12, 58, 52
17, 194721, Note_on_c, 12, 58, 0
17, 194730, Note_on_c, 12, 62, 52
17, 194751, Note_on_c, 12, 62, 0
17, 194760, Note_on_c, 12, 62, 52
17, 194841, Note_on_c, 12, 62, 0
17, 194850, Note_on_c, 12, 65, 52
17, 194871, Note_on_c, 12, 65, 0
17, 194880, Note_on_c, 12, 65, 52
17, 194961, Note_on_c, 12, 65, 0
17, 194970, Note_on_c, 12, 68, 52
17, 194991, Note_on_c, 12, 68, 0
17, 195000, Note_on_c, 12, 68, 52
17, 195119, Note_on_c, 12, 68, 0
17, 195570, Note_on_c, 12, 62, 52
17, 195591, Note_on_c, 12, 62, 0
17, 195600, Note_on_c, 12, 62, 52
17, 195681, Note_on_c, 12, 62, 0
17, 195690, Note_on_c, 12, 65, 52
17, 195711, Note_on_c, 12, 65, 0
17, 195720, Note_on_c, 12, 65, 52
17, 195801, Note_on_c, 12, 65, 0
17, 195810, Note_on_c, 12, 70, 52
17, 195831, Note_on_c, 12, 70, 0
17, 195840, Note_on_c, 12, 70, 52
17, 195921, Note_on_c, 12, 70, 0
17, 195930, Note_on_c, 12, 74, 52
17, 195951, Note_on_c, 12, 74, 0
17, 196050, Note_on_c, 12, 75, 53
17, 196071, Note_on_c, 12, 75, 0
17, 196080, Note_on_c, 12, 75, 54
17, 196161, Note_on_c, 12, 75, 0
17, 196170, Note_on_c, 12, 70, 55
17, 196191, Note_on_c, 12, 70, 0
17, 196200, Note_on_c, 12, 70, 56
17, 196281, Note_on_c, 12, 70, 0
17, 196290, Note_on_c, 12, 67, 57
17, 196311, Note_on_c, 12, 67, 0
17, 196320, Note_on_c, 12, 67, 58
17, 196401, Note_on_c, 12, 67, 0
17, 196410, Note_on_c, 12, 63, 59
17, 196431, Note_on_c, 12, 63, 0
17, 196530, Note_on_c, 12, 75, 61
17, 196551, Note_on_c, 12, 75, 0
17, 196560, Note_on_c, 12, 75, 62
17, 196641, Note_on_c, 12, 75, 0
17, 196650, Note_on_c, 12, 72, 63
17, 196671, Note_on_c, 12, 72, 0
17, 196680, Note_on_c, 12, 72, 64
17, 196761, Note_on_c, 12, 72, 0
17, 196770, Note_on_c, 12, 68, 65
17, 196791, Note_on_c, 12, 68, 0
17, 196800, Note_on_c, 12, 68, 66
17, 196881, Note_on_c, 12, 68, 0
17, 196890, Note_on_c, 12, 65, 67
17, 196911, Note_on_c, 12, 65, 0
17, 197010, Note_on_c, 12, 75, 58
17, 197035, Note_on_c, 12, 75, 0
17, 197040, Note_on_c, 12, 75, 60
17, 197125, Note_on_c, 12, 75, 0
17, 197130, Note_on_c, 12, 70, 66
17, 197155, Note_on_c, 12, 70, 0
17, 197250, Note_on_c, 12, 74, 62
17, 197275, Note_on_c, 12, 74, 0
17, 197280, Note_on_c, 12, 74, 60
17, 197365, Note_on_c, 12, 74, 0
17, 197370, Note_on_c, 12, 70, 54
17, 197395, Note_on_c, 12, 70, 0
17, 197400, Note_on_c, 12, 75, 52
17, 197511, Note_on_c, 12, 75, 0
17, 197520, Note_on_c, 12, 75, 52
17, 197549, Note_on_c, 12, 75, 0
17, 197560, Note_on_c, 12, 79, 52
17, 197589, Note_on_c, 12, 79, 0
17, 197600, Note_on_c, 12, 70, 52
17, 197629, Note_on_c, 12, 70, 0
17, 197640, Note_on_c, 12, 75, 52
17, 197669, Note_on_c, 12, 75, 0
17, 197680, Note_on_c, 12, 67, 52
17, 197709, Note_on_c, 12, 67, 0
17, 197720, Note_on_c, 12, 70, 52
17, 197749, Note_on_c, 12, 70, 0
17, 197760, Note_on_c, 12, 58, 84
17, 197795, Note_on_c, 12, 58, 0
17, 197800, Note_on_c, 12, 58, 84
17, 197835, Note_on_c, 12, 58, 0
17, 197840, Note_on_c, 12, 58, 84
17, 197875, Note_on_c, 12, 58, 0
17, 197880, Note_on_c, 12, 63, 84
17, 197915, Note_on_c, 12, 63, 0
17, 197920, Note_on_c, 12, 63, 84
17, 197955, Note_on_c, 12, 63, 0
17, 197960, Note_on_c, 12, 63, 84
17, 197995, Note_on_c, 12, 63, 0
17, 198000, Note_on_c, 12, 63, 84
17, 198035, Note_on_c, 12, 63, 0
17, 198040, Note_on_c, 12, 63, 84
17, 198075, Note_on_c, 12, 63, 0
17, 198080, Note_on_c, 12, 63, 84
17, 198115, Note_on_c, 12, 63, 0
17, 198120, Note_on_c, 12, 63, 84
17, 198155, Note_on_c, 12, 63, 0
17, 198160, Note_on_c, 12, 63, 84
17, 198195, Note_on_c, 12, 63, 0
17, 198200, Note_on_c, 12, 63, 84
17, 198235, Note_on_c, 12, 63, 0
17, 198240, Note_on_c, 12, 58, 84
17, 198275, Note_on_c, 12, 58, 0
17, 198280, Note_on_c, 12, 58, 84
17, 198315, Note_on_c, 12, 58, 0
17, 198320, Note_on_c, 12, 58, 84
17, 198355, Note_on_c, 12, 58, 0
17, 198360, Note_on_c, 12, 58, 84
17, 198395, Note_on_c, 12, 58, 0
17, 198400, Note_on_c, 12, 58, 84
17, 198435, Note_on_c, 12, 58, 0
17, 198440, Note_on_c, 12, 58, 84
17, 198475, Note_on_c, 12, 58, 0
17, 198480, Note_on_c, 12, 58, 84
17, 198515, Note_on_c, 12, 58, 0
17, 198520, Note_on_c, 12, 58, 84
17, 198555, Note_on_c, 12, 58, 0
17, 198560, Note_on_c, 12, 58, 84
17, 198595, Note_on_c, 12, 58, 0
17, 198600, Note_on_c, 12, 58, 84
17, 198635, Note_on_c, 12, 58, 0
17, 198640, Note_on_c, 12, 58, 84
17, 198675, Note_on_c, 12, 58, 0
17, 198680, Note_on_c, 12, 58, 84
17, 198715, Note_on_c, 12, 58, 0
17, 198720, Note_on_c, 12, 62, 84
17, 198755, Note_on_c, 12, 62, 0
17, 198760, Note_on_c, 12, 62, 84
17, 198795, Note_on_c, 12, 62, 0
17, 198800, Note_on_c, 12, 62, 84
17, 198835, Note_on_c, 12, 62, 0
17, 198840, Note_on_c, 12, 65, 84
17, 198875, Note_on_c, 12, 65, 0
17, 198880, Note_on_c, 12, 65, 84
17, 198915, Note_on_c, 12, 65, 0
17, 198920, Note_on_c, 12, 65, 84
17, 198955, Note_on_c, 12, 65, 0
17, 198960, Note_on_c, 12, 65, 84
17, 198995, Note_on_c, 12, 65, 0
17, 199000, Note_on_c, 12, 65, 84
17, 199035, Note_on_c, 12, 65, 0
17, 199040, Note_on_c, 12, 65, 84
17, 199075, Note_on_c, 12, 65, 0
17, 199080, Note_on_c, 12, 65, 84
17, 199115, Note_on_c, 12, 65, 0
17, 199120, Note_on_c, 12, 65, 84
17, 199155, Note_on_c, 12, 65, 0
17, 199160, Note_on_c, 12, 65, 84
17, 199195, Note_on_c, 12, 65, 0
17, 199200, Note_on_c, 12, 62, 84
17, 199235, Note_on_c, 12, 62, 0
17, 199240, Note_on_c, 12, 62, 84
17, 199275, Note_on_c, 12, 62, 0
17, 199280, Note_on_c, 12, 62, 84
17, 199315, Note_on_c, 12, 62, 0
17, 199320, Note_on_c, 12, 63, 84
17, 199355, Note_on_c, 12, 63, 0
17, 199360, Note_on_c, 12, 58, 84
17, 199395, Note_on_c, 12, 58, 0
17, 199400, Note_on_c, 12, 58, 84
17, 199435, Note_on_c, 12, 58, 0
17, 199440, Note_on_c, 12, 58, 84
17, 199475, Note_on_c, 12, 58, 0
17, 199480, Note_on_c, 12, 58, 84
17, 199515, Note_on_c, 12, 58, 0
17, 199520, Note_on_c, 12, 58, 84
17, 199555, Note_on_c, 12, 58, 0
17, 199560, Note_on_c, 12, 58, 84
17, 199595, Note_on_c, 12, 58, 0
17, 199600, Note_on_c, 12, 58, 84
17, 199635, Note_on_c, 12, 58, 0
17, 199640, Note_on_c, 12, 58, 84
17, 199675, Note_on_c, 12, 58, 0
17, 199680, Note_on_c, 12, 63, 84
17, 199715, Note_on_c, 12, 63, 0
17, 199720, Note_on_c, 12, 63, 84
17, 199755, Note_on_c, 12, 63, 0
17, 199760, Note_on_c, 12, 63, 84
17, 199795, Note_on_c, 12, 63, 0
17, 199800, Note_on_c, 12, 67, 84
17, 199835, Note_on_c, 12, 67, 0
17, 199840, Note_on_c, 12, 67, 84
17, 199875, Note_on_c, 12, 67, 0
17, 199880, Note_on_c, 12, 67, 84
17, 199915, Note_on_c, 12, 67, 0
17, 199920, Note_on_c, 12, 67, 84
17, 199955, Note_on_c, 12, 67, 0
17, 199960, Note_on_c, 12, 67, 84
17, 199995, Note_on_c, 12, 67, 0
17, 200000, Note_on_c, 12, 67, 84
17, 200035, Note_on_c, 12, 67, 0
17, 200040, Note_on_c, 12, 68, 84
17, 200075, Note_on_c, 12, 68, 0
17, 200080, Note_on_c, 12, 68, 84
17, 200115, Note_on_c, 12, 68, 0
17, 200120, Note_on_c, 12, 68, 84
17, 200155, Note_on_c, 12, 68, 0
17, 200160, Note_on_c, 12, 68, 84
17, 200195, Note_on_c, 12, 68, 0
17, 200200, Note_on_c, 12, 68, 84
17, 200235, Note_on_c, 12, 68, 0
17, 200240, Note_on_c, 12, 68, 84
17, 200275, Note_on_c, 12, 68, 0
17, 200280, Note_on_c, 12, 67, 92
17, 200315, Note_on_c, 12, 67, 0
17, 200320, Note_on_c, 12, 67, 84
17, 200355, Note_on_c, 12, 67, 0
17, 200360, Note_on_c, 12, 67, 84
17, 200395, Note_on_c, 12, 67, 0
17, 200400, Note_on_c, 12, 67, 84
17, 200435, Note_on_c, 12, 67, 0
17, 200440, Note_on_c, 12, 67, 84
17, 200475, Note_on_c, 12, 67, 0
17, 200480, Note_on_c, 12, 67, 84
17, 200515, Note_on_c, 12, 67, 0
17, 200520, Note_on_c, 12, 67, 84
17, 200555, Note_on_c, 12, 67, 0
17, 200560, Note_on_c, 12, 67, 84
17, 200595, Note_on_c, 12, 67, 0
17, 200600, Note_on_c, 12, 67, 84
17, 200635, Note_on_c, 12, 67, 0
17, 200640, Note_on_c, 12, 64, 84
17, 200675, Note_on_c, 12, 64, 0
17, 200680, Note_on_c, 12, 64, 84
17, 200715, Note_on_c, 12, 64, 0
17, 200720, Note_on_c, 12, 64, 84
17, 200755, Note_on_c, 12, 64, 0
17, 200760, Note_on_c, 12, 65, 84
17, 200795, Note_on_c, 12, 65, 0
17, 200800, Note_on_c, 12, 65, 84
17, 200800, Note_on_c, 12, 70, 84
17, 200835, Note_on_c, 12, 65, 0
17, 200835, Note_on_c, 12, 70, 0
17, 200840, Note_on_c, 12, 65, 84
17, 200840, Note_on_c, 12, 70, 84
17, 200875, Note_on_c, 12, 65, 0
17, 200875, Note_on_c, 12, 70, 0
17, 200880, Note_on_c, 12, 70, 84
17, 200880, Note_on_c, 12, 62, 84
17, 200915, Note_on_c, 12, 70, 0
17, 200915, Note_on_c, 12, 62, 0
17, 200920, Note_on_c, 12, 70, 84
17, 200920, Note_on_c, 12, 62, 84
17, 200955, Note_on_c, 12, 70, 0
17, 200955, Note_on_c, 12, 62, 0
17, 200960, Note_on_c, 12, 70, 84
17, 200960, Note_on_c, 12, 62, 84
17, 200995, Note_on_c, 12, 70, 0
17, 200995, Note_on_c, 12, 62, 0
17, 201000, Note_on_c, 12, 70, 84
17, 201000, Note_on_c, 12, 63, 84
17, 201035, Note_on_c, 12, 70, 0
17, 201035, Note_on_c, 12, 63, 0
17, 201040, Note_on_c, 12, 70, 84
17, 201040, Note_on_c, 12, 63, 84
17, 201075, Note_on_c, 12, 70, 0
17, 201075, Note_on_c, 12, 63, 0
17, 201080, Note_on_c, 12, 63, 84
17, 201080, Note_on_c, 12, 70, 84
17, 201115, Note_on_c, 12, 63, 0
17, 201115, Note_on_c, 12, 70, 0
17, 201120, Note_on_c, 12, 66, 84
17, 201155, Note_on_c, 12, 66, 0
17, 201160, Note_on_c, 12, 66, 84
17, 201195, Note_on_c, 12, 66, 0
17, 201200, Note_on_c, 12, 66, 84
17, 201235, Note_on_c, 12, 66, 0
17, 201240, Note_on_c, 12, 70, 84
17, 201240, Note_on_c, 12, 63, 84
17, 201275, Note_on_c, 12, 70, 0
17, 201275, Note_on_c, 12, 63, 0
17, 201280, Note_on_c, 12, 70, 84
17, 201280, Note_on_c, 12, 63, 84
17, 201315, Note_on_c, 12, 70, 0
17, 201315, Note_on_c, 12, 63, 0
17, 201320, Note_on_c, 12, 70, 84
17, 201320, Note_on_c, 12, 63, 84
17, 201355, Note_on_c, 12, 70, 0
17, 201355, Note_on_c, 12, 63, 0
17, 201360, Note_on_c, 12, 70, 84
17, 201360, Note_on_c, 12, 63, 84
17, 201395, Note_on_c, 12, 70, 0
17, 201395, Note_on_c, 12, 63, 0
17, 201400, Note_on_c, 12, 70, 84
17, 201400, Note_on_c, 12, 63, 84
17, 201435, Note_on_c, 12, 70, 0
17, 201435, Note_on_c, 12, 63, 0
17, 201440, Note_on_c, 12, 63, 84
17, 201440, Note_on_c, 12, 70, 84
17, 201475, Note_on_c, 12, 63, 0
17, 201475, Note_on_c, 12, 70, 0
17, 201480, Note_on_c, 12, 62, 84
17, 201480, Note_on_c, 12, 70, 84
17, 201515, Note_on_c, 12, 62, 0
17, 201515, Note_on_c, 12, 70, 0
17, 201520, Note_on_c, 12, 62, 84
17, 201520, Note_on_c, 12, 70, 84
17, 201555, Note_on_c, 12, 62, 0
17, 201555, Note_on_c, 12, 70, 0
17, 201560, Note_on_c, 12, 62, 84
17, 201560, Note_on_c, 12, 70, 84
17, 201595, Note_on_c, 12, 62, 0
17, 201595, Note_on_c, 12, 70, 0
17, 201600, Note_on_c, 12, 70, 84
17, 201600, Note_on_c, 12, 62, 84
17, 201635, Note_on_c, 12, 70, 0
17, 201635, Note_on_c, 12, 62, 0
17, 201640, Note_on_c, 12, 70, 84
17, 201640, Note_on_c, 12, 62, 84
17, 201675, Note_on_c, 12, 70, 0
17, 201675, Note_on_c, 12, 62, 0
17, 201680, Note_on_c, 12, 70, 84
17, 201680, Note_on_c, 12, 62, 84
17, 201715, Note_on_c, 12, 70, 0
17, 201715, Note_on_c, 12, 62, 0
17, 201720, Note_on_c, 12, 70, 84
17, 201755, Note_on_c, 12, 70, 0
17, 201760, Note_on_c, 12, 70, 84
17, 201795, Note_on_c, 12, 70, 0
17, 201800, Note_on_c, 12, 70, 84
17, 201835, Note_on_c, 12, 70, 0
17, 201840, Note_on_c, 12, 70, 84
17, 201875, Note_on_c, 12, 70, 0
17, 201880, Note_on_c, 12, 70, 84
17, 201915, Note_on_c, 12, 70, 0
17, 201920, Note_on_c, 12, 70, 84
17, 201955, Note_on_c, 12, 70, 0
17, 201960, Note_on_c, 12, 70, 84
17, 201995, Note_on_c, 12, 70, 0
17, 202000, Note_on_c, 12, 70, 84
17, 202035, Note_on_c, 12, 70, 0
17, 202040, Note_on_c, 12, 70, 84
17, 202075, Note_on_c, 12, 70, 0
17, 202080, Note_on_c, 12, 70, 84
17, 202115, Note_on_c, 12, 70, 0
17, 202120, Note_on_c, 12, 70, 84
17, 202155, Note_on_c, 12, 70, 0
17, 202160, Note_on_c, 12, 70, 84
17, 202195, Note_on_c, 12, 70, 0
17, 202200, Note_on_c, 12, 77, 84
17, 202235, Note_on_c, 12, 77, 0
17, 202240, Note_on_c, 12, 77, 84
17, 202275, Note_on_c, 12, 77, 0
17, 202280, Note_on_c, 12, 79, 84
17, 202315, Note_on_c, 12, 79, 0
17, 202320, Note_on_c, 12, 80, 84
17, 202355, Note_on_c, 12, 80, 0
17, 202360, Note_on_c, 12, 80, 84
17, 202395, Note_on_c, 12, 80, 0
17, 202400, Note_on_c, 12, 79, 84
17, 202435, Note_on_c, 12, 79, 0
17, 202440, Note_on_c, 12, 77, 84
17, 202475, Note_on_c, 12, 77, 0
17, 202480, Note_on_c, 12, 77, 84
17, 202515, Note_on_c, 12, 77, 0
17, 202520, Note_on_c, 12, 75, 84
17, 202555, Note_on_c, 12, 75, 0
17, 202560, Note_on_c, 12, 74, 84
17, 202595, Note_on_c, 12, 74, 0
17, 202600, Note_on_c, 12, 74, 84
17, 202635, Note_on_c, 12, 74, 0
17, 202640, Note_on_c, 12, 72, 84
17, 202675, Note_on_c, 12, 72, 0
17, 202680, Note_on_c, 12, 70, 84
17, 202715, Note_on_c, 12, 70, 0
17, 202720, Note_on_c, 12, 70, 84
17, 202755, Note_on_c, 12, 70, 0
17, 202760, Note_on_c, 12, 70, 84
17, 202795, Note_on_c, 12, 70, 0
17, 202800, Note_on_c, 12, 70, 84
17, 202835, Note_on_c, 12, 70, 0
17, 202840, Note_on_c, 12, 70, 84
17, 202875, Note_on_c, 12, 70, 0
17, 202880, Note_on_c, 12, 70, 84
17, 202915, Note_on_c, 12, 70, 0
17, 202920, Note_on_c, 12, 70, 84
17, 202955, Note_on_c, 12, 70, 0
17, 202960, Note_on_c, 12, 70, 84
17, 202995, Note_on_c, 12, 70, 0
17, 203000, Note_on_c, 12, 70, 84
17, 203035, Note_on_c, 12, 70, 0
17, 203040, Note_on_c, 12, 70, 84
17, 203075, Note_on_c, 12, 70, 0
17, 203080, Note_on_c, 12, 70, 84
17, 203115, Note_on_c, 12, 70, 0
17, 203120, Note_on_c, 12, 70, 84
17, 203155, Note_on_c, 12, 70, 0
17, 203160, Note_on_c, 12, 70, 84
17, 203195, Note_on_c, 12, 70, 0
17, 203200, Note_on_c, 12, 77, 84
17, 203235, Note_on_c, 12, 77, 0
17, 203240, Note_on_c, 12, 77, 84
17, 203275, Note_on_c, 12, 77, 0
17, 203280, Note_on_c, 12, 70, 84
17, 203315, Note_on_c, 12, 70, 0
17, 203320, Note_on_c, 12, 77, 84
17, 203355, Note_on_c, 12, 77, 0
17, 203360, Note_on_c, 12, 77, 84
17, 203395, Note_on_c, 12, 77, 0
17, 203400, Note_on_c, 12, 70, 84
17, 203435, Note_on_c, 12, 70, 0
17, 203440, Note_on_c, 12, 77, 84
17, 203475, Note_on_c, 12, 77, 0
17, 203480, Note_on_c, 12, 77, 84
17, 203515, Note_on_c, 12, 77, 0
17, 203520, Note_on_c, 12, 78, 84
17, 203555, Note_on_c, 12, 78, 0
17, 203560, Note_on_c, 12, 78, 84
17, 203595, Note_on_c, 12, 78, 0
17, 203600, Note_on_c, 12, 78, 84
17, 203635, Note_on_c, 12, 78, 0
17, 203640, Note_on_c, 12, 79, 84
17, 203675, Note_on_c, 12, 79, 0
17, 203680, Note_on_c, 12, 79, 84
17, 203715, Note_on_c, 12, 79, 0
17, 203720, Note_on_c, 12, 79, 84
17, 203755, Note_on_c, 12, 79, 0
17, 203760, Note_on_c, 12, 79, 84
17, 203795, Note_on_c, 12, 79, 0
17, 203800, Note_on_c, 12, 79, 84
17, 203835, Note_on_c, 12, 79, 0
17, 203840, Note_on_c, 12, 79, 84
17, 203875, Note_on_c, 12, 79, 0
17, 203880, Note_on_c, 12, 79, 84
17, 203915, Note_on_c, 12, 79, 0
17, 203920, Note_on_c, 12, 79, 84
17, 203955, Note_on_c, 12, 79, 0
17, 203960, Note_on_c, 12, 79, 84
17, 203995, Note_on_c, 12, 79, 0
17, 204000, Note_on_c, 12, 75, 84
17, 204035, Note_on_c, 12, 75, 0
17, 204040, Note_on_c, 12, 75, 84
17, 204075, Note_on_c, 12, 75, 0
17, 204080, Note_on_c, 12, 75, 84
17, 204115, Note_on_c, 12, 75, 0
17, 204120, Note_on_c, 12, 75, 84
17, 204155, Note_on_c, 12, 75, 0
17, 204160, Note_on_c, 12, 75, 84
17, 204195, Note_on_c, 12, 75, 0
17, 204200, Note_on_c, 12, 75, 84
17, 204235, Note_on_c, 12, 75, 0
17, 204240, Note_on_c, 12, 75, 84
17, 204275, Note_on_c, 12, 75, 0
17, 204280, Note_on_c, 12, 75, 84
17, 204315, Note_on_c, 12, 75, 0
17, 204320, Note_on_c, 12, 75, 84
17, 204355, Note_on_c, 12, 75, 0
17, 204360, Note_on_c, 12, 75, 84
17, 204395, Note_on_c, 12, 75, 0
17, 204400, Note_on_c, 12, 80, 84
17, 204435, Note_on_c, 12, 80, 0
17, 204440, Note_on_c, 12, 80, 84
17, 204475, Note_on_c, 12, 80, 0
17, 204480, Note_on_c, 12, 77, 84
17, 204515, Note_on_c, 12, 77, 0
17, 204520, Note_on_c, 12, 77, 84
17, 204555, Note_on_c, 12, 77, 0
17, 204560, Note_on_c, 12, 77, 84
17, 204595, Note_on_c, 12, 77, 0
17, 204600, Note_on_c, 12, 79, 84
17, 204635, Note_on_c, 12, 79, 0
17, 204640, Note_on_c, 12, 70, 84
17, 204640, Note_on_c, 12, 67, 84
17, 204675, Note_on_c, 12, 70, 0
17, 204675, Note_on_c, 12, 67, 0
17, 204680, Note_on_c, 12, 67, 84
17, 204680, Note_on_c, 12, 70, 84
17, 204715, Note_on_c, 12, 67, 0
17, 204715, Note_on_c, 12, 70, 0
17, 204720, Note_on_c, 12, 67, 84
17, 204720, Note_on_c, 12, 70, 84
17, 204755, Note_on_c, 12, 67, 0
17, 204755, Note_on_c, 12, 70, 0
17, 204760, Note_on_c, 12, 70, 84
17, 204760, Note_on_c, 12, 67, 84
17, 204795, Note_on_c, 12, 70, 0
17, 204795, Note_on_c, 12, 67, 0
17, 204800, Note_on_c, 12, 67, 84
17, 204800, Note_on_c, 12, 70, 84
17, 204835, Note_on_c, 12, 67, 0
17, 204835, Note_on_c, 12, 70, 0
17, 204840, Note_on_c, 12, 68, 84
17, 204840, Note_on_c, 12, 70, 84
17, 204875, Note_on_c, 12, 68, 0
17, 204875, Note_on_c, 12, 70, 0
17, 204880, Note_on_c, 12, 70, 84
17, 204880, Note_on_c, 12, 68, 84
17, 204915, Note_on_c, 12, 70, 0
17, 204915, Note_on_c, 12, 68, 0
17, 204920, Note_on_c, 12, 68, 84
17, 204920, Note_on_c, 12, 70, 84
17, 204955, Note_on_c, 12, 68, 0
17, 204955, Note_on_c, 12, 70, 0
17, 204960, Note_on_c, 12, 70, 84
17, 204960, Note_on_c, 12, 68, 84
17, 204995, Note_on_c, 12, 70, 0
17, 204995, Note_on_c, 12, 68, 0
17, 205000, Note_on_c, 12, 70, 84
17, 205000, Note_on_c, 12, 68, 84
17, 205035, Note_on_c, 12, 70, 0
17, 205035, Note_on_c, 12, 68, 0
17, 205040, Note_on_c, 12, 70, 84
17, 205040, Note_on_c, 12, 68, 84
17, 205075, Note_on_c, 12, 70, 0
17, 205075, Note_on_c, 12, 68, 0
17, 205080, Note_on_c, 12, 67, 84
17, 205080, Note_on_c, 12, 70, 84
17, 205191, Note_on_c, 12, 67, 0
17, 205191, Note_on_c, 12, 70, 0
17, 205200, Note_on_c, 12, 67, 52
17, 205319, Note_on_c, 12, 67, 0
17, 205440, Note_on_c, 12, 70, 52
17, 205559, Note_on_c, 12, 70, 0
17, 205680, Note_on_c, 12, 75, 52
17, 205799, Note_on_c, 12, 75, 0
17, 205920, Note_on_c, 12, 79, 52
17, 206039, Note_on_c, 12, 79, 0
17, 206040, Note_on_c, 12, 80, 52
17, 206079, Note_on_c, 12, 80, 0
17, 206080, Note_on_c, 12, 82, 52
17, 206115, Note_on_c, 12, 82, 0
17, 206120, Note_on_c, 12, 84, 53
17, 206149, Note_on_c, 12, 84, 0
17, 206160, Note_on_c, 12, 82, 54
17, 206189, Note_on_c, 12, 82, 0
17, 206200, Note_on_c, 12, 80, 54
17, 206229, Note_on_c, 12, 80, 0
17, 206240, Note_on_c, 12, 79, 55
17, 206269, Note_on_c, 12, 79, 0
17, 206280, Note_on_c, 12, 77, 56
17, 206309, Note_on_c, 12, 77, 0
17, 206320, Note_on_c, 12, 79, 56
17, 206349, Note_on_c, 12, 79, 0
17, 206360, Note_on_c, 12, 80, 57
17, 206389, Note_on_c, 12, 80, 0
17, 206400, Note_on_c, 12, 79, 58
17, 206429, Note_on_c, 12, 79, 0
17, 206440, Note_on_c, 12, 77, 58
17, 206469, Note_on_c, 12, 77, 0
17, 206480, Note_on_c, 12, 75, 59
17, 206509, Note_on_c, 12, 75, 0
17, 206520, Note_on_c, 12, 74, 60
17, 206549, Note_on_c, 12, 74, 0
17, 206560, Note_on_c, 12, 75, 60
17, 206589, Note_on_c, 12, 75, 0
17, 206600, Note_on_c, 12, 77, 61
17, 206629, Note_on_c, 12, 77, 0
17, 206640, Note_on_c, 12, 75, 62
17, 206669, Note_on_c, 12, 75, 0
17, 206680, Note_on_c, 12, 74, 62
17, 206709, Note_on_c, 12, 74, 0
17, 206720, Note_on_c, 12, 72, 63
17, 206749, Note_on_c, 12, 72, 0
17, 206760, Note_on_c, 12, 70, 64
17, 206789, Note_on_c, 12, 70, 0
17, 206800, Note_on_c, 12, 72, 64
17, 206829, Note_on_c, 12, 72, 0
17, 206840, Note_on_c, 12, 70, 65
17, 206869, Note_on_c, 12, 70, 0
17, 206880, Note_on_c, 12, 68, 66
17, 206909, Note_on_c, 12, 68, 0
17, 206920, Note_on_c, 12, 67, 66
17, 206949, Note_on_c, 12, 67, 0
17, 206960, Note_on_c, 12, 65, 67
17, 206989, Note_on_c, 12, 65, 0
17, 207000, Note_on_c, 12, 63, 52
17, 207111, Note_on_c, 12, 63, 0
17, 207120, Note_on_c, 12, 67, 52
17, 207239, Note_on_c, 12, 67, 0
17, 207360, Note_on_c, 12, 70, 52
17, 207479, Note_on_c, 12, 70, 0
17, 207585, Control_c, 12, 11, 96
17, 207600, Note_on_c, 12, 75, 68
17, 207711, Note_on_c, 12, 75, 0
17, 207840, Note_on_c, 12, 79, 68
17, 207951, Note_on_c, 12, 79, 0
17, 207960, Control_c, 12, 11, 96
17, 207960, Note_on_c, 12, 80, 68
17, 207999, Note_on_c, 12, 80, 0
17, 208000, Note_on_c, 12, 82, 68
17, 208000, Control_c, 12, 11, 97
17, 208035, Note_on_c, 12, 82, 0
17, 208040, Control_c, 12, 11, 99
17, 208040, Note_on_c, 12, 84, 68
17, 208069, Note_on_c, 12, 84, 0
17, 208080, Control_c, 12, 11, 100
17, 208080, Note_on_c, 12, 82, 68
17, 208109, Note_on_c, 12, 82, 0
17, 208120, Control_c, 12, 11, 101
17, 208120, Note_on_c, 12, 80, 68
17, 208149, Note_on_c, 12, 80, 0
17, 208160, Control_c, 12, 11, 102
17, 208160, Note_on_c, 12, 79, 68
17, 208189, Note_on_c, 12, 79, 0
17, 208200, Note_on_c, 12, 77, 68
17, 208200, Control_c, 12, 11, 104
17, 208229, Note_on_c, 12, 77, 0
17, 208240, Control_c, 12, 11, 105
17, 208240, Note_on_c, 12, 75, 68
17, 208269, Note_on_c, 12, 75, 0
17, 208280, Note_on_c, 12, 74, 68
17, 208280, Control_c, 12, 11, 106
17, 208309, Note_on_c, 12, 74, 0
17, 208320, Control_c, 12, 11, 108
17, 208320, Note_on_c, 12, 72, 68
17, 208349, Note_on_c, 12, 72, 0
17, 208360, Control_c, 12, 11, 109
17, 208360, Note_on_c, 12, 70, 68
17, 208389, Note_on_c, 12, 70, 0
17, 208400, Note_on_c, 12, 68, 68
17, 208400, Control_c, 12, 11, 110
17, 208429, Note_on_c, 12, 68, 0
17, 208440, Control_c, 12, 11, 112
17, 208440, Note_on_c, 12, 67, 68
17, 208480, Control_c, 12, 11, 113
17, 208520, Control_c, 12, 11, 114
17, 208560, Control_c, 12, 11, 115
17, 208595, Note_on_c, 12, 67, 0
17, 208600, Control_c, 12, 11, 117
17, 208600, Note_on_c, 12, 73, 68
17, 208629, Note_on_c, 12, 73, 0
17, 208640, Control_c, 12, 11, 118
17, 208640, Note_on_c, 12, 72, 68
17, 208669, Note_on_c, 12, 72, 0
17, 208680, Note_on_c, 12, 70, 68
17, 208680, Control_c, 12, 11, 119
17, 208709, Note_on_c, 12, 70, 0
17, 208720, Control_c, 12, 11, 121
17, 208720, Note_on_c, 12, 68, 68
17, 208749, Note_on_c, 12, 68, 0
17, 208760, Note_on_c, 12, 67, 68
17, 208760, Control_c, 12, 11, 122
17, 208789, Note_on_c, 12, 67, 0
17, 208800, Control_c, 12, 11, 123
17, 208800, Note_on_c, 12, 65, 68
17, 208829, Note_on_c, 12, 65, 0
17, 208840, Note_on_c, 12, 63, 68
17, 208840, Control_c, 12, 11, 124
17, 208869, Note_on_c, 12, 63, 0
17, 208880, Control_c, 12, 11, 127
17, 208880, Note_on_c, 12, 61, 68
17, 208919, Note_on_c, 12, 61, 0
17, 208920, Note_on_c, 12, 60, 52
17, 208964, Note_on_c, 12, 60, 0
17, 208980, Note_on_c, 12, 60, 52
17, 208980, Note_on_c, 12, 63, 52
17, 209024, Note_on_c, 12, 60, 0
17, 209024, Note_on_c, 12, 63, 0
17, 209040, Note_on_c, 12, 63, 52
17, 209040, Note_on_c, 12, 60, 52
17, 209211, Note_on_c, 12, 63, 0
17, 209211, Note_on_c, 12, 60, 0
17, 209220, Note_on_c, 12, 63, 52
17, 209220, Note_on_c, 12, 60, 52
17, 209275, Note_on_c, 12, 63, 0
17, 209275, Note_on_c, 12, 60, 0
17, 209280, Note_on_c, 12, 60, 52
17, 209280, Note_on_c, 12, 63, 52
17, 209451, Note_on_c, 12, 60, 0
17, 209451, Note_on_c, 12, 63, 0
17, 209460, Note_on_c, 12, 63, 52
17, 209460, Note_on_c, 12, 61, 52
17, 209504, Note_on_c, 12, 63, 0
17, 209504, Note_on_c, 12, 61, 0
17, 209520, Note_on_c, 12, 61, 52
17, 209520, Note_on_c, 12, 63, 52
17, 209691, Note_on_c, 12, 61, 0
17, 209691, Note_on_c, 12, 63, 0
17, 209700, Note_on_c, 12, 61, 52
17, 209700, Note_on_c, 12, 63, 52
17, 209744, Note_on_c, 12, 61, 0
17, 209744, Note_on_c, 12, 63, 0
17, 209760, Note_on_c, 12, 63, 52
17, 209760, Note_on_c, 12, 61, 52
17, 209931, Note_on_c, 12, 63, 0
17, 209931, Note_on_c, 12, 61, 0
17, 209940, Note_on_c, 12, 63, 52
17, 209940, Note_on_c, 12, 61, 52
17, 209984, Note_on_c, 12, 63, 0
17, 209984, Note_on_c, 12, 61, 0
17, 210000, Note_on_c, 12, 63, 52
17, 210000, Note_on_c, 12, 61, 52
17, 210171, Note_on_c, 12, 63, 0
17, 210171, Note_on_c, 12, 61, 0
17, 210180, Note_on_c, 12, 63, 52
17, 210180, Note_on_c, 12, 61, 52
17, 210224, Note_on_c, 12, 63, 0
17, 210224, Note_on_c, 12, 61, 0
17, 210240, Note_on_c, 12, 61, 52
17, 210240, Note_on_c, 12, 63, 52
17, 210359, Note_on_c, 12, 61, 0
17, 210360, Note_on_c, 12, 60, 52
17, 210404, Note_on_c, 12, 60, 0
17, 210411, Note_on_c, 12, 63, 0
17, 210420, Note_on_c, 12, 63, 52
17, 210420, Note_on_c, 12, 60, 52
17, 210464, Note_on_c, 12, 63, 0
17, 210464, Note_on_c, 12, 60, 0
17, 210480, Note_on_c, 12, 63, 52
17, 210480, Note_on_c, 12, 60, 52
17, 210651, Note_on_c, 12, 63, 0
17, 210651, Note_on_c, 12, 60, 0
17, 210660, Note_on_c, 12, 63, 52
17, 210660, Note_on_c, 12, 60, 52
17, 210715, Note_on_c, 12, 63, 0
17, 210715, Note_on_c, 12, 60, 0
17, 210720, Note_on_c, 12, 63, 52
17, 210720, Note_on_c, 12, 60, 52
17, 210775, Note_on_c, 12, 63, 0
17, 210775, Note_on_c, 12, 60, 0
17, 210780, Note_on_c, 12, 60, 52
17, 210780, Note_on_c, 12, 63, 52
17, 210835, Note_on_c, 12, 60, 0
17, 210835, Note_on_c, 12, 63, 0
17, 210840, Note_on_c, 12, 63, 52
17, 210840, Note_on_c, 12, 60, 52
17, 210875, Note_on_c, 12, 63, 0
17, 210875, Note_on_c, 12, 60, 0
17, 210880, Note_on_c, 12, 60, 52
17, 210919, Note_on_c, 12, 60, 0
17, 210920, Note_on_c, 12, 63, 52
17, 210959, Note_on_c, 12, 63, 0
17, 211000, Note_on_c, 12, 60, 52
17, 211039, Note_on_c, 12, 60, 0
17, 211040, Note_on_c, 12, 63, 52
17, 211079, Note_on_c, 12, 63, 0
17, 211120, Note_on_c, 12, 58, 53
17, 211159, Note_on_c, 12, 58, 0
17, 211160, Note_on_c, 12, 63, 53
17, 211199, Note_on_c, 12, 63, 0
17, 211240, Note_on_c, 12, 61, 54
17, 211279, Note_on_c, 12, 61, 0
17, 211280, Note_on_c, 12, 63, 54
17, 211319, Note_on_c, 12, 63, 0
17, 211360, Note_on_c, 12, 60, 55
17, 211399, Note_on_c, 12, 60, 0
17, 211400, Note_on_c, 12, 63, 55
17, 211439, Note_on_c, 12, 63, 0
17, 211480, Note_on_c, 12, 60, 56
17, 211519, Note_on_c, 12, 60, 0
17, 211520, Note_on_c, 12, 63, 56
17, 211559, Note_on_c, 12, 63, 0
17, 211600, Note_on_c, 12, 60, 57
17, 211639, Note_on_c, 12, 60, 0
17, 211640, Note_on_c, 12, 63, 57
17, 211679, Note_on_c, 12, 63, 0
17, 211720, Note_on_c, 12, 60, 58
17, 211759, Note_on_c, 12, 60, 0
17, 211760, Note_on_c, 12, 63, 58
17, 211799, Note_on_c, 12, 63, 0
17, 211840, Note_on_c, 12, 60, 59
17, 211879, Note_on_c, 12, 60, 0
17, 211880, Note_on_c, 12, 63, 60
17, 211919, Note_on_c, 12, 63, 0
17, 211960, Note_on_c, 12, 63, 60
17, 211999, Note_on_c, 12, 63, 0
17, 212000, Note_on_c, 12, 66, 61
17, 212039, Note_on_c, 12, 66, 0
17, 212080, Note_on_c, 12, 63, 61
17, 212119, Note_on_c, 12, 63, 0
17, 212120, Note_on_c, 12, 66, 62
17, 212159, Note_on_c, 12, 66, 0
17, 212200, Note_on_c, 12, 63, 62
17, 212239, Note_on_c, 12, 63, 0
17, 212240, Note_on_c, 12, 66, 63
17, 212279, Note_on_c, 12, 66, 0
17, 212320, Note_on_c, 12, 63, 63
17, 212359, Note_on_c, 12, 63, 0
17, 212360, Note_on_c, 12, 66, 64
17, 212399, Note_on_c, 12, 66, 0
17, 212440, Note_on_c, 12, 63, 64
17, 212479, Note_on_c, 12, 63, 0
17, 212480, Note_on_c, 12, 66, 65
17, 212519, Note_on_c, 12, 66, 0
17, 212560, Note_on_c, 12, 63, 65
17, 212599, Note_on_c, 12, 63, 0
17, 212600, Note_on_c, 12, 66, 66
17, 212639, Note_on_c, 12, 66, 0
17, 212680, Note_on_c, 12, 63, 66
17, 212719, Note_on_c, 12, 63, 0
17, 212720, Note_on_c, 12, 66, 67
17, 212759, Note_on_c, 12, 66, 0
17, 212800, Note_on_c, 12, 63, 68
17, 212839, Note_on_c, 12, 63, 0
17, 212840, Note_on_c, 12, 66, 68
17, 212879, Note_on_c, 12, 66, 0
17, 212920, Note_on_c, 12, 63, 69
17, 212959, Note_on_c, 12, 63, 0
17, 212960, Note_on_c, 12, 66, 69
17, 212999, Note_on_c, 12, 66, 0
17, 213040, Note_on_c, 12, 63, 70
17, 213079, Note_on_c, 12, 63, 0
17, 213080, Note_on_c, 12, 66, 70
17, 213119, Note_on_c, 12, 66, 0
17, 213160, Note_on_c, 12, 63, 71
17, 213199, Note_on_c, 12, 63, 0
17, 213200, Note_on_c, 12, 66, 71
17, 213239, Note_on_c, 12, 66, 0
17, 213280, Note_on_c, 12, 63, 72
17, 213319, Note_on_c, 12, 63, 0
17, 213320, Note_on_c, 12, 66, 72
17, 213359, Note_on_c, 12, 66, 0
17, 213400, Note_on_c, 12, 66, 73
17, 213439, Note_on_c, 12, 66, 0
17, 213440, Note_on_c, 12, 70, 73
17, 213479, Note_on_c, 12, 70, 0
17, 213520, Note_on_c, 12, 66, 74
17, 213559, Note_on_c, 12, 66, 0
17, 213560, Note_on_c, 12, 70, 74
17, 213599, Note_on_c, 12, 70, 0
17, 213640, Note_on_c, 12, 66, 75
17, 213679, Note_on_c, 12, 66, 0
17, 213680, Note_on_c, 12, 70, 75
17, 213719, Note_on_c, 12, 70, 0
17, 213760, Note_on_c, 12, 66, 76
17, 213799, Note_on_c, 12, 66, 0
17, 213800, Note_on_c, 12, 75, 76
17, 213839, Note_on_c, 12, 75, 0
17, 213880, Note_on_c, 12, 66, 76
17, 213919, Note_on_c, 12, 66, 0
17, 213920, Note_on_c, 12, 75, 76
17, 213959, Note_on_c, 12, 75, 0
17, 214000, Note_on_c, 12, 66, 76
17, 214039, Note_on_c, 12, 66, 0
17, 214040, Note_on_c, 12, 75, 76
17, 214079, Note_on_c, 12, 75, 0
17, 214120, Note_on_c, 12, 66, 76
17, 214159, Note_on_c, 12, 66, 0
17, 214160, Note_on_c, 12, 75, 76
17, 214199, Note_on_c, 12, 75, 0
17, 214240, Note_on_c, 12, 69, 76
17, 214279, Note_on_c, 12, 69, 0
17, 214280, Note_on_c, 12, 78, 76
17, 214319, Note_on_c, 12, 78, 0
17, 214360, Note_on_c, 12, 69, 76
17, 214399, Note_on_c, 12, 69, 0
17, 214400, Note_on_c, 12, 78, 76
17, 214439, Note_on_c, 12, 78, 0
17, 214480, Note_on_c, 12, 69, 76
17, 214519, Note_on_c, 12, 69, 0
17, 214520, Note_on_c, 12, 78, 76
17, 214559, Note_on_c, 12, 78, 0
17, 214600, Note_on_c, 12, 69, 76
17, 214639, Note_on_c, 12, 69, 0
17, 214640, Note_on_c, 12, 78, 76
17, 214679, Note_on_c, 12, 78, 0
17, 214720, Note_on_c, 12, 78, 76
17, 214759, Note_on_c, 12, 78, 0
17, 214760, Note_on_c, 12, 81, 76
17, 214799, Note_on_c, 12, 81, 0
17, 214840, Note_on_c, 12, 78, 77
17, 214879, Note_on_c, 12, 78, 0
17, 214880, Note_on_c, 12, 81, 77
17, 214919, Note_on_c, 12, 81, 0
17, 214960, Note_on_c, 12, 78, 78
17, 214999, Note_on_c, 12, 78, 0
17, 215000, Note_on_c, 12, 81, 78
17, 215039, Note_on_c, 12, 81, 0
17, 215080, Note_on_c, 12, 78, 79
17, 215119, Note_on_c, 12, 78, 0
17, 215120, Note_on_c, 12, 81, 79
17, 215155, Note_on_c, 12, 81, 0
17, 215160, Note_on_c, 12, 81, 80
17, 215195, Note_on_c, 12, 81, 0
17, 215200, Note_on_c, 12, 84, 80
17, 215235, Note_on_c, 12, 84, 0
17, 215240, Note_on_c, 12, 84, 80
17, 215275, Note_on_c, 12, 84, 0
17, 215280, Note_on_c, 12, 84, 81
17, 215315, Note_on_c, 12, 84, 0
17, 215320, Note_on_c, 12, 84, 81
17, 215355, Note_on_c, 12, 84, 0
17, 215360, Note_on_c, 12, 84, 81
17, 215395, Note_on_c, 12, 84, 0
17, 215400, Note_on_c, 12, 84, 82
17, 215435, Note_on_c, 12, 84, 0
17, 215440, Note_on_c, 12, 84, 82
17, 215475, Note_on_c, 12, 84, 0
17, 215480, Note_on_c, 12, 84, 82
17, 215515, Note_on_c, 12, 84, 0
17, 215520, Note_on_c, 12, 84, 83
17, 215555, Note_on_c, 12, 84, 0
17, 215560, Note_on_c, 12, 84, 83
17, 215595, Note_on_c, 12, 84, 0
17, 215600, Note_on_c, 12, 84, 83
17, 215635, Note_on_c, 12, 84, 0
17, 215640, Note_on_c, 12, 82, 84
17, 215675, Note_on_c, 12, 82, 0
17, 215680, Note_on_c, 12, 82, 84
17, 215715, Note_on_c, 12, 82, 0
17, 215720, Note_on_c, 12, 82, 84
17, 215755, Note_on_c, 12, 82, 0
17, 215760, Note_on_c, 12, 82, 84
17, 215795, Note_on_c, 12, 82, 0
17, 215800, Note_on_c, 12, 82, 84
17, 215835, Note_on_c, 12, 82, 0
17, 215840, Note_on_c, 12, 82, 84
17, 215875, Note_on_c, 12, 82, 0
17, 215880, Note_on_c, 12, 82, 84
17, 215915, Note_on_c, 12, 82, 0
17, 215920, Note_on_c, 12, 82, 84
17, 215955, Note_on_c, 12, 82, 0
17, 215960, Note_on_c, 12, 82, 84
17, 215995, Note_on_c, 12, 82, 0
17, 216000, Note_on_c, 12, 82, 84
17, 216035, Note_on_c, 12, 82, 0
17, 216040, Note_on_c, 12, 82, 84
17, 216075, Note_on_c, 12, 82, 0
17, 216080, Note_on_c, 12, 82, 84
17, 216115, Note_on_c, 12, 82, 0
17, 216120, Note_on_c, 12, 81, 84
17, 216155, Note_on_c, 12, 81, 0
17, 216160, Note_on_c, 12, 81, 84
17, 216195, Note_on_c, 12, 81, 0
17, 216200, Note_on_c, 12, 81, 84
17, 216235, Note_on_c, 12, 81, 0
17, 216240, Note_on_c, 12, 81, 84
17, 216275, Note_on_c, 12, 81, 0
17, 216280, Note_on_c, 12, 81, 84
17, 216315, Note_on_c, 12, 81, 0
17, 216320, Note_on_c, 12, 81, 84
17, 216355, Note_on_c, 12, 81, 0
17, 216360, Note_on_c, 12, 81, 84
17, 216395, Note_on_c, 12, 81, 0
17, 216400, Note_on_c, 12, 81, 84
17, 216435, Note_on_c, 12, 81, 0
17, 216440, Note_on_c, 12, 81, 84
17, 216475, Note_on_c, 12, 81, 0
17, 216480, Note_on_c, 12, 81, 84
17, 216515, Note_on_c, 12, 81, 0
17, 216520, Note_on_c, 12, 81, 84
17, 216555, Note_on_c, 12, 81, 0
17, 216560, Note_on_c, 12, 81, 84
17, 216595, Note_on_c, 12, 81, 0
17, 216600, Note_on_c, 12, 79, 84
17, 216711, Note_on_c, 12, 79, 0
17, 216720, Note_on_c, 12, 70, 52
17, 216764, Note_on_c, 12, 70, 0
17, 216780, Note_on_c, 12, 70, 52
17, 216824, Note_on_c, 12, 70, 0
17, 216960, Note_on_c, 12, 67, 52
17, 217004, Note_on_c, 12, 67, 0
17, 217020, Note_on_c, 12, 67, 52
17, 217064, Note_on_c, 12, 67, 0
17, 217200, Note_on_c, 12, 66, 52
17, 217244, Note_on_c, 12, 66, 0
17, 217260, Note_on_c, 12, 66, 52
17, 217304, Note_on_c, 12, 66, 0
17, 217440, Note_on_c, 12, 69, 52
17, 217484, Note_on_c, 12, 69, 0
17, 217500, Note_on_c, 12, 69, 52
17, 217544, Note_on_c, 12, 69, 0
17, 217680, Note_on_c, 12, 72, 52
17, 217735, Note_on_c, 12, 72, 0
17, 217740, Note_on_c, 12, 72, 52
17, 217799, Note_on_c, 12, 72, 0
17, 217920, Note_on_c, 12, 66, 52
17, 217975, Note_on_c, 12, 66, 0
17, 217980, Note_on_c, 12, 66, 52
17, 218039, Note_on_c, 12, 66, 0
17, 218160, Note_on_c, 12, 62, 56
17, 218215, Note_on_c, 12, 62, 0
17, 218220, Note_on_c, 12, 62, 58
17, 218279, Note_on_c, 12, 62, 0
17, 218400, Note_on_c, 12, 74, 64
17, 218455, Note_on_c, 12, 74, 0
17, 218460, Note_on_c, 12, 74, 66
17, 218519, Note_on_c, 12, 74, 0
17, 218640, Note_on_c, 12, 77, 64
17, 218695, Note_on_c, 12, 77, 0
17, 218700, Note_on_c, 12, 77, 62
17, 218759, Note_on_c, 12, 77, 0
17, 218880, Note_on_c, 12, 62, 56
17, 218935, Note_on_c, 12, 62, 0
17, 218940, Note_on_c, 12, 62, 54
17, 218999, Note_on_c, 12, 62, 0
17, 219120, Note_on_c, 12, 65, 52
17, 219175, Note_on_c, 12, 65, 0
17, 219180, Note_on_c, 12, 65, 52
17, 219239, Note_on_c, 12, 65, 0
17, 219360, Note_on_c, 12, 63, 52
17, 219415, Note_on_c, 12, 63, 0
17, 219420, Note_on_c, 12, 63, 52
17, 219479, Note_on_c, 12, 63, 0
17, 219600, Note_on_c, 12, 66, 52
17, 219655, Note_on_c, 12, 66, 0
17, 219660, Note_on_c, 12, 66, 52
17, 219719, Note_on_c, 12, 66, 0
17, 219840, Note_on_c, 12, 63, 52
17, 219895, Note_on_c, 12, 63, 0
17, 219900, Note_on_c, 12, 63, 52
17, 219959, Note_on_c, 12, 63, 0
17, 220080, Note_on_c, 12, 62, 56
17, 220135, Note_on_c, 12, 62, 0
17, 220140, Note_on_c, 12, 62, 58
17, 220199, Note_on_c, 12, 62, 0
17, 220320, Note_on_c, 12, 68, 64
17, 220375, Note_on_c, 12, 68, 0
17, 220380, Note_on_c, 12, 68, 66
17, 220439, Note_on_c, 12, 68, 0
17, 220560, Note_on_c, 12, 67, 64
17, 220615, Note_on_c, 12, 67, 0
17, 220620, Note_on_c, 12, 67, 62
17, 220679, Note_on_c, 12, 67, 0
17, 220800, Note_on_c, 12, 63, 56
17, 220855, Note_on_c, 12, 63, 0
17, 220860, Note_on_c, 12, 63, 54
17, 220919, Note_on_c, 12, 63, 0
17, 221040, Note_on_c, 12, 62, 50
17, 221095, Note_on_c, 12, 62, 0
17, 221100, Note_on_c, 12, 62, 49
17, 221159, Note_on_c, 12, 62, 0
17, 221280, Note_on_c, 12, 62, 46
17, 221335, Note_on_c, 12, 62, 0
17, 221340, Note_on_c, 12, 62, 45
17, 221399, Note_on_c, 12, 62, 0
17, 221520, Note_on_c, 12, 72, 44
17, 221575, Note_on_c, 12, 72, 0
17, 221580, Note_on_c, 12, 72, 44
17, 221639, Note_on_c, 12, 72, 0
17, 221760, Note_on_c, 12, 60, 44
17, 221815, Note_on_c, 12, 60, 0
17, 221820, Note_on_c, 12, 60, 44
17, 221875, Note_on_c, 12, 60, 0
17, 221880, Note_on_c, 12, 67, 84
17, 221880, Note_on_c, 12, 58, 84
17, 221905, Note_on_c, 12, 67, 0
17, 221905, Note_on_c, 12, 58, 0
17, 221910, Note_on_c, 12, 79, 84
17, 221935, Note_on_c, 12, 79, 0
17, 221940, Note_on_c, 12, 79, 84
17, 221965, Note_on_c, 12, 79, 0
17, 221970, Note_on_c, 12, 79, 84
17, 221995, Note_on_c, 12, 79, 0
17, 222000, Note_on_c, 12, 79, 84
17, 222025, Note_on_c, 12, 79, 0
17, 222030, Note_on_c, 12, 79, 84
17, 222055, Note_on_c, 12, 79, 0
17, 222060, Note_on_c, 12, 79, 84
17, 222085, Note_on_c, 12, 79, 0
17, 222090, Note_on_c, 12, 79, 84
17, 222115, Note_on_c, 12, 79, 0
17, 222120, Note_on_c, 12, 79, 84
17, 222145, Note_on_c, 12, 79, 0
17, 222150, Note_on_c, 12, 79, 84
17, 222175, Note_on_c, 12, 79, 0
17, 222180, Note_on_c, 12, 79, 84
17, 222205, Note_on_c, 12, 79, 0
17, 222210, Note_on_c, 12, 79, 84
17, 222235, Note_on_c, 12, 79, 0
17, 222240, Note_on_c, 12, 79, 84
17, 222265, Note_on_c, 12, 79, 0
17, 222270, Note_on_c, 12, 79, 84
17, 222295, Note_on_c, 12, 79, 0
17, 222300, Note_on_c, 12, 79, 84
17, 222325, Note_on_c, 12, 79, 0
17, 222330, Note_on_c, 12, 79, 84
17, 222355, Note_on_c, 12, 79, 0
17, 222360, Note_on_c, 12, 79, 84
17, 222385, Note_on_c, 12, 79, 0
17, 222390, Note_on_c, 12, 79, 84
17, 222415, Note_on_c, 12, 79, 0
17, 222420, Note_on_c, 12, 77, 84
17, 222445, Note_on_c, 12, 77, 0
17, 222450, Note_on_c, 12, 77, 84
17, 222475, Note_on_c, 12, 77, 0
17, 222480, Note_on_c, 12, 75, 84
17, 222505, Note_on_c, 12, 75, 0
17, 222510, Note_on_c, 12, 75, 84
17, 222535, Note_on_c, 12, 75, 0
17, 222540, Note_on_c, 12, 74, 84
17, 222565, Note_on_c, 12, 74, 0
17, 222570, Note_on_c, 12, 74, 84
17, 222595, Note_on_c, 12, 74, 0
17, 222600, Note_on_c, 12, 75, 84
17, 222625, Note_on_c, 12, 75, 0
17, 222630, Note_on_c, 12, 75, 84
17, 222655, Note_on_c, 12, 75, 0
17, 222660, Note_on_c, 12, 74, 84
17, 222685, Note_on_c, 12, 74, 0
17, 222690, Note_on_c, 12, 74, 84
17, 222715, Note_on_c, 12, 74, 0
17, 222720, Note_on_c, 12, 72, 84
17, 222745, Note_on_c, 12, 72, 0
17, 222750, Note_on_c, 12, 72, 84
17, 222775, Note_on_c, 12, 72, 0
17, 222780, Note_on_c, 12, 70, 84
17, 222805, Note_on_c, 12, 70, 0
17, 222810, Note_on_c, 12, 70, 84
17, 222835, Note_on_c, 12, 70, 0
17, 222840, Note_on_c, 12, 72, 84
17, 222865, Note_on_c, 12, 72, 0
17, 222870, Note_on_c, 12, 72, 84
17, 222895, Note_on_c, 12, 72, 0
17, 222900, Note_on_c, 12, 70, 84
17, 222925, Note_on_c, 12, 70, 0
17, 222930, Note_on_c, 12, 70, 84
17, 222955, Note_on_c, 12, 70, 0
17, 222960, Note_on_c, 12, 69, 84
17, 222985, Note_on_c, 12, 69, 0
17, 222990, Note_on_c, 12, 69, 84
17, 223015, Note_on_c, 12, 69, 0
17, 223020, Note_on_c, 12, 67, 84
17, 223045, Note_on_c, 12, 67, 0
17, 223050, Note_on_c, 12, 67, 84
17, 223075, Note_on_c, 12, 67, 0
17, 223080, Note_on_c, 12, 68, 84
17, 223105, Note_on_c, 12, 68, 0
17, 223110, Note_on_c, 12, 68, 84
17, 223135, Note_on_c, 12, 68, 0
17, 223140, Note_on_c, 12, 67, 84
17, 223165, Note_on_c, 12, 67, 0
17, 223170, Note_on_c, 12, 67, 84
17, 223195, Note_on_c, 12, 67, 0
17, 223200, Note_on_c, 12, 65, 84
17, 223225, Note_on_c, 12, 65, 0
17, 223230, Note_on_c, 12, 65, 84
17, 223255, Note_on_c, 12, 65, 0
17, 223260, Note_on_c, 12, 63, 84
17, 223285, Note_on_c, 12, 63, 0
17, 223290, Note_on_c, 12, 63, 84
17, 223315, Note_on_c, 12, 63, 0
17, 223320, Note_on_c, 12, 62, 84
17, 223345, Note_on_c, 12, 62, 0
17, 223350, Note_on_c, 12, 62, 84
17, 223375, Note_on_c, 12, 62, 0
17, 223380, Note_on_c, 12, 63, 84
17, 223405, Note_on_c, 12, 63, 0
17, 223410, Note_on_c, 12, 63, 84
17, 223435, Note_on_c, 12, 63, 0
17, 223440, Note_on_c, 12, 65, 84
17, 223465, Note_on_c, 12, 65, 0
17, 223470, Note_on_c, 12, 65, 84
17, 223495, Note_on_c, 12, 65, 0
17, 223500, Note_on_c, 12, 63, 84
17, 223525, Note_on_c, 12, 63, 0
17, 223530, Note_on_c, 12, 63, 84
17, 223555, Note_on_c, 12, 63, 0
17, 223560, Note_on_c, 12, 62, 84
17, 223585, Note_on_c, 12, 62, 0
17, 223590, Note_on_c, 12, 62, 84
17, 223615, Note_on_c, 12, 62, 0
17, 223620, Note_on_c, 12, 58, 84
17, 223645, Note_on_c, 12, 58, 0
17, 223650, Note_on_c, 12, 58, 84
17, 223675, Note_on_c, 12, 58, 0
17, 223680, Note_on_c, 12, 60, 84
17, 223705, Note_on_c, 12, 60, 0
17, 223710, Note_on_c, 12, 60, 84
17, 223735, Note_on_c, 12, 60, 0
17, 223740, Note_on_c, 12, 62, 84
17, 223765, Note_on_c, 12, 62, 0
17, 223770, Note_on_c, 12, 62, 84
17, 223795, Note_on_c, 12, 62, 0
17, 223800, Note_on_c, 12, 63, 84
17, 223919, Note_on_c, 12, 63, 0
17, 224760, Note_on_c, 12, 63, 84
17, 224785, Note_on_c, 12, 63, 0
17, 224790, Note_on_c, 12, 63, 84
17, 224815, Note_on_c, 12, 63, 0
17, 224820, Note_on_c, 12, 58, 84
17, 224845, Note_on_c, 12, 58, 0
17, 224850, Note_on_c, 12, 58, 84
17, 224875, Note_on_c, 12, 58, 0
17, 224880, Note_on_c, 12, 63, 84
17, 224905, Note_on_c, 12, 63, 0
17, 224910, Note_on_c, 12, 63, 84
17, 224935, Note_on_c, 12, 63, 0
17, 224940, Note_on_c, 12, 67, 84
17, 224965, Note_on_c, 12, 67, 0
17, 224970, Note_on_c, 12, 67, 84
17, 224995, Note_on_c, 12, 67, 0
17, 225000, Note_on_c, 12, 70, 84
17, 225025, Note_on_c, 12, 70, 0
17, 225030, Note_on_c, 12, 70, 84
17, 225055, Note_on_c, 12, 70, 0
17, 225060, Note_on_c, 12, 67, 84
17, 225085, Note_on_c, 12, 67, 0
17, 225090, Note_on_c, 12, 67, 84
17, 225115, Note_on_c, 12, 67, 0
17, 225120, Note_on_c, 12, 63, 84
17, 225145, Note_on_c, 12, 63, 0
17, 225150, Note_on_c, 12, 63, 84
17, 225175, Note_on_c, 12, 63, 0
17, 225180, Note_on_c, 12, 58, 84
17, 225205, Note_on_c, 12, 58, 0
17, 225210, Note_on_c, 12, 58, 84
17, 225235, Note_on_c, 12, 58, 0
17, 225240, Note_on_c, 12, 62, 84
17, 225265, Note_on_c, 12, 62, 0
17, 225270, Note_on_c, 12, 62, 84
17, 225295, Note_on_c, 12, 62, 0
17, 225300, Note_on_c, 12, 62, 84
17, 225325, Note_on_c, 12, 62, 0
17, 225330, Note_on_c, 12, 62, 84
17, 225355, Note_on_c, 12, 62, 0
17, 225360, Note_on_c, 12, 65, 84
17, 225385, Note_on_c, 12, 65, 0
17, 225390, Note_on_c, 12, 65, 84
17, 225415, Note_on_c, 12, 65, 0
17, 225420, Note_on_c, 12, 68, 84
17, 225445, Note_on_c, 12, 68, 0
17, 225450, Note_on_c, 12, 68, 84
17, 225475, Note_on_c, 12, 68, 0
17, 225480, Note_on_c, 12, 74, 84
17, 225505, Note_on_c, 12, 74, 0
17, 225510, Note_on_c, 12, 74, 84
17, 225535, Note_on_c, 12, 74, 0
17, 225540, Note_on_c, 12, 68, 84
17, 225565, Note_on_c, 12, 68, 0
17, 225570, Note_on_c, 12, 68, 84
17, 225595, Note_on_c, 12, 68, 0
17, 225600, Note_on_c, 12, 65, 84
17, 225625, Note_on_c, 12, 65, 0
17, 225630, Note_on_c, 12, 65, 84
17, 225655, Note_on_c, 12, 65, 0
17, 225660, Note_on_c, 12, 62, 84
17, 225685, Note_on_c, 12, 62, 0
17, 225690, Note_on_c, 12, 62, 84
17, 225715, Note_on_c, 12, 62, 0
17, 225720, Note_on_c, 12, 63, 84
17, 225745, Note_on_c, 12, 63, 0
17, 225750, Note_on_c, 12, 63, 84
17, 225775, Note_on_c, 12, 63, 0
17, 225780, Note_on_c, 12, 63, 84
17, 225805, Note_on_c, 12, 63, 0
17, 225810, Note_on_c, 12, 63, 84
17, 225835, Note_on_c, 12, 63, 0
17, 225840, Note_on_c, 12, 67, 84
17, 225865, Note_on_c, 12, 67, 0
17, 225870, Note_on_c, 12, 67, 84
17, 225895, Note_on_c, 12, 67, 0
17, 225900, Note_on_c, 12, 70, 84
17, 225925, Note_on_c, 12, 70, 0
17, 225930, Note_on_c, 12, 70, 84
17, 225955, Note_on_c, 12, 70, 0
17, 225960, Note_on_c, 12, 75, 84
17, 225985, Note_on_c, 12, 75, 0
17, 225990, Note_on_c, 12, 75, 84
17, 226015, Note_on_c, 12, 75, 0
17, 226020, Note_on_c, 12, 70, 84
17, 226045, Note_on_c, 12, 70, 0
17, 226050, Note_on_c, 12, 70, 84
17, 226075, Note_on_c, 12, 70, 0
17, 226080, Note_on_c, 12, 67, 84
17, 226105, Note_on_c, 12, 67, 0
17, 226110, Note_on_c, 12, 67, 84
17, 226135, Note_on_c, 12, 67, 0
17, 226140, Note_on_c, 12, 63, 84
17, 226165, Note_on_c, 12, 63, 0
17, 226170, Note_on_c, 12, 63, 84
17, 226195, Note_on_c, 12, 63, 0
17, 226200, Note_on_c, 12, 65, 84
17, 226225, Note_on_c, 12, 65, 0
17, 226230, Note_on_c, 12, 65, 84
17, 226255, Note_on_c, 12, 65, 0
17, 226260, Note_on_c, 12, 65, 84
17, 226285, Note_on_c, 12, 65, 0
17, 226290, Note_on_c, 12, 65, 84
17, 226315, Note_on_c, 12, 65, 0
17, 226320, Note_on_c, 12, 68, 84
17, 226345, Note_on_c, 12, 68, 0
17, 226350, Note_on_c, 12, 68, 84
17, 226375, Note_on_c, 12, 68, 0
17, 226380, Note_on_c, 12, 74, 84
17, 226405, Note_on_c, 12, 74, 0
17, 226410, Note_on_c, 12, 74, 84
17, 226435, Note_on_c, 12, 74, 0
17, 226440, Note_on_c, 12, 77, 84
17, 226465, Note_on_c, 12, 77, 0
17, 226470, Note_on_c, 12, 77, 84
17, 226495, Note_on_c, 12, 77, 0
17, 226500, Note_on_c, 12, 74, 84
17, 226525, Note_on_c, 12, 74, 0
17, 226530, Note_on_c, 12, 74, 84
17, 226555, Note_on_c, 12, 74, 0
17, 226560, Note_on_c, 12, 68, 84
17, 226585, Note_on_c, 12, 68, 0
17, 226590, Note_on_c, 12, 68, 84
17, 226615, Note_on_c, 12, 68, 0
17, 226620, Note_on_c, 12, 65, 84
17, 226645, Note_on_c, 12, 65, 0
17, 226650, Note_on_c, 12, 65, 84
17, 226675, Note_on_c, 12, 65, 0
17, 226680, Note_on_c, 12, 63, 84
17, 226705, Note_on_c, 12, 63, 0
17, 226710, Note_on_c, 12, 70, 84
17, 226735, Note_on_c, 12, 70, 0
17, 226740, Note_on_c, 12, 70, 84
17, 226765, Note_on_c, 12, 70, 0
17, 226770, Note_on_c, 12, 70, 84
17, 226795, Note_on_c, 12, 70, 0
17, 226800, Note_on_c, 12, 70, 84
17, 226825, Note_on_c, 12, 70, 0
17, 226830, Note_on_c, 12, 70, 84
17, 226855, Note_on_c, 12, 70, 0
17, 226860, Note_on_c, 12, 70, 84
17, 226885, Note_on_c, 12, 70, 0
17, 226890, Note_on_c, 12, 70, 84
17, 226915, Note_on_c, 12, 70, 0
17, 226920, Note_on_c, 12, 70, 84
17, 226945, Note_on_c, 12, 70, 0
17, 226950, Note_on_c, 12, 70, 84
17, 226975, Note_on_c, 12, 70, 0
17, 226980, Note_on_c, 12, 70, 84
17, 227005, Note_on_c, 12, 70, 0
17, 227010, Note_on_c, 12, 70, 84
17, 227035, Note_on_c, 12, 70, 0
17, 227040, Note_on_c, 12, 70, 84
17, 227065, Note_on_c, 12, 70, 0
17, 227070, Note_on_c, 12, 70, 84
17, 227095, Note_on_c, 12, 70, 0
17, 227100, Note_on_c, 12, 70, 84
17, 227125, Note_on_c, 12, 70, 0
17, 227130, Note_on_c, 12, 70, 84
17, 227155, Note_on_c, 12, 70, 0
17, 227160, Note_on_c, 12, 70, 84
17, 227185, Note_on_c, 12, 70, 0
17, 227190, Note_on_c, 12, 70, 84
17, 227215, Note_on_c, 12, 70, 0
17, 227220, Note_on_c, 12, 70, 84
17, 227245, Note_on_c, 12, 70, 0
17, 227250, Note_on_c, 12, 70, 84
17, 227275, Note_on_c, 12, 70, 0
17, 227280, Note_on_c, 12, 70, 84
17, 227305, Note_on_c, 12, 70, 0
17, 227310, Note_on_c, 12, 70, 84
17, 227335, Note_on_c, 12, 70, 0
17, 227340, Note_on_c, 12, 70, 84
17, 227365, Note_on_c, 12, 70, 0
17, 227370, Note_on_c, 12, 70, 84
17, 227395, Note_on_c, 12, 70, 0
17, 227400, Note_on_c, 12, 70, 84
17, 227425, Note_on_c, 12, 70, 0
17, 227430, Note_on_c, 12, 70, 84
17, 227455, Note_on_c, 12, 70, 0
17, 227460, Note_on_c, 12, 70, 84
17, 227485, Note_on_c, 12, 70, 0
17, 227490, Note_on_c, 12, 70, 84
17, 227515, Note_on_c, 12, 70, 0
17, 227520, Note_on_c, 12, 70, 84
17, 227545, Note_on_c, 12, 70, 0
17, 227550, Note_on_c, 12, 70, 84
17, 227575, Note_on_c, 12, 70, 0
17, 227580, Note_on_c, 12, 70, 84
17, 227605, Note_on_c, 12, 70, 0
17, 227610, Note_on_c, 12, 70, 84
17, 227635, Note_on_c, 12, 70, 0
17, 227640, Note_on_c, 12, 70, 84
17, 227665, Note_on_c, 12, 70, 0
17, 227670, Note_on_c, 12, 70, 84
17, 227695, Note_on_c, 12, 70, 0
17, 227700, Note_on_c, 12, 70, 84
17, 227725, Note_on_c, 12, 70, 0
17, 227730, Note_on_c, 12, 70, 84
17, 227755, Note_on_c, 12, 70, 0
17, 227760, Note_on_c, 12, 70, 84
17, 227785, Note_on_c, 12, 70, 0
17, 227790, Note_on_c, 12, 70, 84
17, 227815, Note_on_c, 12, 70, 0
17, 227820, Note_on_c, 12, 70, 84
17, 227845, Note_on_c, 12, 70, 0
17, 227850, Note_on_c, 12, 70, 84
17, 227875, Note_on_c, 12, 70, 0
17, 227880, Note_on_c, 12, 70, 84
17, 227905, Note_on_c, 12, 70, 0
17, 227910, Note_on_c, 12, 70, 84
17, 227935, Note_on_c, 12, 70, 0
17, 227940, Note_on_c, 12, 70, 84
17, 227965, Note_on_c, 12, 70, 0
17, 227970, Note_on_c, 12, 70, 84
17, 227995, Note_on_c, 12, 70, 0
17, 228000, Note_on_c, 12, 70, 84
17, 228025, Note_on_c, 12, 70, 0
17, 228030, Note_on_c, 12, 70, 84
17, 228055, Note_on_c, 12, 70, 0
17, 228060, Note_on_c, 12, 70, 84
17, 228085, Note_on_c, 12, 70, 0
17, 228090, Note_on_c, 12, 70, 84
17, 228115, Note_on_c, 12, 70, 0
17, 228120, Note_on_c, 12, 70, 84
17, 228145, Note_on_c, 12, 70, 0
17, 228150, Note_on_c, 12, 70, 84
17, 228175, Note_on_c, 12, 70, 0
17, 228180, Note_on_c, 12, 70, 84
17, 228205, Note_on_c, 12, 70, 0
17, 228210, Note_on_c, 12, 70, 84
17, 228235, Note_on_c, 12, 70, 0
17, 228240, Note_on_c, 12, 70, 84
17, 228265, Note_on_c, 12, 70, 0
17, 228270, Note_on_c, 12, 70, 84
17, 228295, Note_on_c, 12, 70, 0
17, 228300, Note_on_c, 12, 70, 84
17, 228325, Note_on_c, 12, 70, 0
17, 228330, Note_on_c, 12, 70, 84
17, 228355, Note_on_c, 12, 70, 0
17, 228360, Note_on_c, 12, 70, 84
17, 228385, Note_on_c, 12, 70, 0
17, 228390, Note_on_c, 12, 70, 84
17, 228415, Note_on_c, 12, 70, 0
17, 228420, Note_on_c, 12, 70, 84
17, 228445, Note_on_c, 12, 70, 0
17, 228450, Note_on_c, 12, 70, 84
17, 228475, Note_on_c, 12, 70, 0
17, 228480, Note_on_c, 12, 70, 84
17, 228505, Note_on_c, 12, 70, 0
17, 228510, Note_on_c, 12, 70, 84
17, 228535, Note_on_c, 12, 70, 0
17, 228540, Note_on_c, 12, 70, 84
17, 228565, Note_on_c, 12, 70, 0
17, 228570, Note_on_c, 12, 70, 84
17, 228595, Note_on_c, 12, 70, 0
17, 228600, Note_on_c, 12, 70, 84
17, 228625, Note_on_c, 12, 70, 0
17, 228630, Note_on_c, 12, 70, 84
17, 228655, Note_on_c, 12, 70, 0
17, 228660, Note_on_c, 12, 70, 84
17, 228685, Note_on_c, 12, 70, 0
17, 228690, Note_on_c, 12, 70, 84
17, 228715, Note_on_c, 12, 70, 0
17, 228720, Note_on_c, 12, 70, 84
17, 228745, Note_on_c, 12, 70, 0
17, 228750, Note_on_c, 12, 70, 84
17, 228775, Note_on_c, 12, 70, 0
17, 228780, Note_on_c, 12, 70, 84
17, 228805, Note_on_c, 12, 70, 0
17, 228810, Note_on_c, 12, 70, 84
17, 228835, Note_on_c, 12, 70, 0
17, 228840, Note_on_c, 12, 70, 92
17, 228865, Note_on_c, 12, 70, 0
17, 228870, Note_on_c, 12, 70, 84
17, 228895, Note_on_c, 12, 70, 0
17, 228900, Note_on_c, 12, 70, 84
17, 228925, Note_on_c, 12, 70, 0
17, 228930, Note_on_c, 12, 70, 84
17, 228955, Note_on_c, 12, 70, 0
17, 228960, Note_on_c, 12, 70, 84
17, 228985, Note_on_c, 12, 70, 0
17, 228990, Note_on_c, 12, 70, 84
17, 229015, Note_on_c, 12, 70, 0
17, 229020, Note_on_c, 12, 70, 84
17, 229045, Note_on_c, 12, 70, 0
17, 229050, Note_on_c, 12, 70, 84
17, 229075, Note_on_c, 12, 70, 0
17, 229080, Note_on_c, 12, 70, 92
17, 229105, Note_on_c, 12, 70, 0
17, 229110, Note_on_c, 12, 70, 84
17, 229135, Note_on_c, 12, 70, 0
17, 229140, Note_on_c, 12, 70, 84
17, 229165, Note_on_c, 12, 70, 0
17, 229170, Note_on_c, 12, 70, 84
17, 229195, Note_on_c, 12, 70, 0
17, 229200, Note_on_c, 12, 70, 84
17, 229225, Note_on_c, 12, 70, 0
17, 229230, Note_on_c, 12, 70, 84
17, 229255, Note_on_c, 12, 70, 0
17, 229260, Note_on_c, 12, 70, 84
17, 229285, Note_on_c, 12, 70, 0
17, 229290, Note_on_c, 12, 70, 84
17, 229315, Note_on_c, 12, 70, 0
17, 229320, Note_on_c, 12, 70, 92
17, 229345, Note_on_c, 12, 70, 0
17, 229350, Note_on_c, 12, 70, 84
17, 229375, Note_on_c, 12, 70, 0
17, 229380, Note_on_c, 12, 70, 84
17, 229405, Note_on_c, 12, 70, 0
17, 229410, Note_on_c, 12, 70, 84
17, 229435, Note_on_c, 12, 70, 0
17, 229440, Note_on_c, 12, 70, 84
17, 229465, Note_on_c, 12, 70, 0
17, 229470, Note_on_c, 12, 70, 84
17, 229495, Note_on_c, 12, 70, 0
17, 229500, Note_on_c, 12, 70, 84
17, 229525, Note_on_c, 12, 70, 0
17, 229530, Note_on_c, 12, 70, 84
17, 229555, Note_on_c, 12, 70, 0
17, 229560, Note_on_c, 12, 70, 84
17, 229615, Note_on_c, 12, 70, 0
17, 229620, Note_on_c, 12, 63, 84
17, 229645, Note_on_c, 12, 63, 0
17, 229650, Note_on_c, 12, 63, 84
17, 229675, Note_on_c, 12, 63, 0
17, 229680, Note_on_c, 12, 65, 84
17, 229705, Note_on_c, 12, 65, 0
17, 229710, Note_on_c, 12, 65, 84
17, 229735, Note_on_c, 12, 65, 0
17, 229740, Note_on_c, 12, 67, 84
17, 229765, Note_on_c, 12, 67, 0
17, 229770, Note_on_c, 12, 67, 84
17, 229795, Note_on_c, 12, 67, 0
17, 229800, Note_on_c, 12, 68, 92
17, 229825, Note_on_c, 12, 68, 0
17, 229830, Note_on_c, 12, 68, 84
17, 229855, Note_on_c, 12, 68, 0
17, 229860, Note_on_c, 12, 67, 84
17, 229885, Note_on_c, 12, 67, 0
17, 229890, Note_on_c, 12, 67, 84
17, 229915, Note_on_c, 12, 67, 0
17, 229920, Note_on_c, 12, 68, 84
17, 229945, Note_on_c, 12, 68, 0
17, 229950, Note_on_c, 12, 68, 84
17, 229975, Note_on_c, 12, 68, 0
17, 229980, Note_on_c, 12, 69, 84
17, 230005, Note_on_c, 12, 69, 0
17, 230010, Note_on_c, 12, 69, 84
17, 230035, Note_on_c, 12, 69, 0
17, 230040, Note_on_c, 12, 70, 92
17, 230065, Note_on_c, 12, 70, 0
17, 230070, Note_on_c, 12, 70, 84
17, 230095, Note_on_c, 12, 70, 0
17, 230100, Note_on_c, 12, 69, 84
17, 230125, Note_on_c, 12, 69, 0
17, 230130, Note_on_c, 12, 69, 84
17, 230155, Note_on_c, 12, 69, 0
17, 230160, Note_on_c, 12, 70, 84
17, 230185, Note_on_c, 12, 70, 0
17, 230190, Note_on_c, 12, 70, 84
17, 230215, Note_on_c, 12, 70, 0
17, 230220, Note_on_c, 12, 71, 84
17, 230245, Note_on_c, 12, 71, 0
17, 230250, Note_on_c, 12, 71, 84
17, 230275, Note_on_c, 12, 71, 0
17, 230280, Note_on_c, 12, 72, 92
17, 230305, Note_on_c, 12, 72, 0
17, 230310, Note_on_c, 12, 72, 84
17, 230335, Note_on_c, 12, 72, 0
17, 230340, Note_on_c, 12, 71, 84
17, 230365, Note_on_c, 12, 71, 0
17, 230370, Note_on_c, 12, 71, 84
17, 230395, Note_on_c, 12, 71, 0
17, 230400, Note_on_c, 12, 72, 84
17, 230425, Note_on_c, 12, 72, 0
17, 230430, Note_on_c, 12, 72, 84
17, 230455, Note_on_c, 12, 72, 0
17, 230460, Note_on_c, 12, 74, 84
17, 230485, Note_on_c, 12, 74, 0
17, 230490, Note_on_c, 12, 74, 84
17, 230515, Note_on_c, 12, 74, 0
17, 230520, Note_on_c, 12, 75, 84
17, 230545, Note_on_c, 12, 75, 0
17, 230550, Note_on_c, 12, 75, 84
17, 230575, Note_on_c, 12, 75, 0
17, 230580, Note_on_c, 12, 72, 84
17, 230605, Note_on_c, 12, 72, 0
17, 230610, Note_on_c, 12, 72, 84
17, 230635, Note_on_c, 12, 72, 0
17, 230640, Note_on_c, 12, 71, 84
17, 230665, Note_on_c, 12, 71, 0
17, 230670, Note_on_c, 12, 71, 84
17, 230695, Note_on_c, 12, 71, 0
17, 230700, Note_on_c, 12, 72, 84
17, 230725, Note_on_c, 12, 72, 0
17, 230730, Note_on_c, 12, 72, 84
17, 230755, Note_on_c, 12, 72, 0
17, 230760, Note_on_c, 12, 67, 84
17, 230785, Note_on_c, 12, 67, 0
17, 230790, Note_on_c, 12, 67, 84
17, 230815, Note_on_c, 12, 67, 0
17, 230820, Note_on_c, 12, 68, 84
17, 230845, Note_on_c, 12, 68, 0
17, 230850, Note_on_c, 12, 68, 84
17, 230875, Note_on_c, 12, 68, 0
17, 230880, Note_on_c, 12, 72, 84
17, 230905, Note_on_c, 12, 72, 0
17, 230910, Note_on_c, 12, 72, 84
17, 230935, Note_on_c, 12, 72, 0
17, 230940, Note_on_c, 12, 68, 84
17, 230965, Note_on_c, 12, 68, 0
17, 230970, Note_on_c, 12, 68, 84
17, 230995, Note_on_c, 12, 68, 0
17, 231000, Note_on_c, 12, 64, 84
17, 231025, Note_on_c, 12, 64, 0
17, 231030, Note_on_c, 12, 64, 84
17, 231055, Note_on_c, 12, 64, 0
17, 231060, Note_on_c, 12, 65, 84
17, 231085, Note_on_c, 12, 65, 0
17, 231090, Note_on_c, 12, 65, 84
17, 231115, Note_on_c, 12, 65, 0
17, 231120, Note_on_c, 12, 68, 84
17, 231145, Note_on_c, 12, 68, 0
17, 231150, Note_on_c, 12, 68, 84
17, 231175, Note_on_c, 12, 68, 0
17, 231180, Note_on_c, 12, 65, 84
17, 231205, Note_on_c, 12, 65, 0
17, 231210, Note_on_c, 12, 65, 84
17, 231235, Note_on_c, 12, 65, 0
17, 231240, Note_on_c, 12, 69, 84
17, 231265, Note_on_c, 12, 69, 0
17, 231270, Note_on_c, 12, 69, 84
17, 231295, Note_on_c, 12, 69, 0
17, 231300, Note_on_c, 12, 70, 84
17, 231325, Note_on_c, 12, 70, 0
17, 231330, Note_on_c, 12, 70, 84
17, 231355, Note_on_c, 12, 70, 0
17, 231360, Note_on_c, 12, 74, 84
17, 231385, Note_on_c, 12, 74, 0
17, 231390, Note_on_c, 12, 74, 84
17, 231415, Note_on_c, 12, 74, 0
17, 231420, Note_on_c, 12, 70, 84
17, 231445, Note_on_c, 12, 70, 0
17, 231450, Note_on_c, 12, 70, 84
17, 231475, Note_on_c, 12, 70, 0
17, 231480, Note_on_c, 12, 71, 92
17, 231505, Note_on_c, 12, 71, 0
17, 231510, Note_on_c, 12, 71, 84
17, 231535, Note_on_c, 12, 71, 0
17, 231540, Note_on_c, 12, 72, 84
17, 231565, Note_on_c, 12, 72, 0
17, 231570, Note_on_c, 12, 72, 84
17, 231595, Note_on_c, 12, 72, 0
17, 231600, Note_on_c, 12, 75, 84
17, 231625, Note_on_c, 12, 75, 0
17, 231630, Note_on_c, 12, 75, 84
17, 231655, Note_on_c, 12, 75, 0
17, 231660, Note_on_c, 12, 72, 84
17, 231685, Note_on_c, 12, 72, 0
17, 231690, Note_on_c, 12, 72, 84
17, 231715, Note_on_c, 12, 72, 0
17, 231720, Note_on_c, 12, 67, 84
17, 231745, Note_on_c, 12, 67, 0
17, 231750, Note_on_c, 12, 67, 84
17, 231775, Note_on_c, 12, 67, 0
17, 231780, Note_on_c, 12, 68, 84
17, 231805, Note_on_c, 12, 68, 0
17, 231810, Note_on_c, 12, 68, 84
17, 231835, Note_on_c, 12, 68, 0
17, 231840, Note_on_c, 12, 72, 84
17, 231865, Note_on_c, 12, 72, 0
17, 231870, Note_on_c, 12, 72, 84
17, 231895, Note_on_c, 12, 72, 0
17, 231900, Note_on_c, 12, 68, 84
17, 231925, Note_on_c, 12, 68, 0
17, 231930, Note_on_c, 12, 68, 84
17, 231955, Note_on_c, 12, 68, 0
17, 231960, Note_on_c, 12, 64, 84
17, 231985, Note_on_c, 12, 64, 0
17, 231990, Note_on_c, 12, 64, 84
17, 232015, Note_on_c, 12, 64, 0
17, 232020, Note_on_c, 12, 65, 84
17, 232045, Note_on_c, 12, 65, 0
17, 232050, Note_on_c, 12, 65, 84
17, 232075, Note_on_c, 12, 65, 0
17, 232080, Note_on_c, 12, 68, 84
17, 232105, Note_on_c, 12, 68, 0
17, 232110, Note_on_c, 12, 68, 84
17, 232135, Note_on_c, 12, 68, 0
17, 232140, Note_on_c, 12, 65, 84
17, 232165, Note_on_c, 12, 65, 0
17, 232170, Note_on_c, 12, 65, 84
17, 232195, Note_on_c, 12, 65, 0
17, 232200, Note_on_c, 12, 69, 84
17, 232225, Note_on_c, 12, 69, 0
17, 232230, Note_on_c, 12, 69, 84
17, 232255, Note_on_c, 12, 69, 0
17, 232260, Note_on_c, 12, 70, 84
17, 232285, Note_on_c, 12, 70, 0
17, 232290, Note_on_c, 12, 70, 84
17, 232315, Note_on_c, 12, 70, 0
17, 232320, Note_on_c, 12, 74, 84
17, 232345, Note_on_c, 12, 74, 0
17, 232350, Note_on_c, 12, 74, 84
17, 232375, Note_on_c, 12, 74, 0
17, 232380, Note_on_c, 12, 70, 84
17, 232405, Note_on_c, 12, 70, 0
17, 232410, Note_on_c, 12, 70, 84
17, 232435, Note_on_c, 12, 70, 0
17, 232440, Note_on_c, 12, 75, 84
17, 232495, Note_on_c, 12, 75, 0
17, 232500, Note_on_c, 12, 58, 84
17, 232525, Note_on_c, 12, 58, 0
17, 232530, Note_on_c, 12, 58, 84
17, 232555, Note_on_c, 12, 58, 0
17, 232560, Note_on_c, 12, 63, 84
17, 232585, Note_on_c, 12, 63, 0
17, 232590, Note_on_c, 12, 63, 84
17, 232615, Note_on_c, 12, 63, 0
17, 232620, Note_on_c, 12, 58, 84
17, 232645, Note_on_c, 12, 58, 0
17, 232650, Note_on_c, 12, 58, 84
17, 232675, Note_on_c, 12, 58, 0
17, 232680, Note_on_c, 12, 63, 84
17, 232705, Note_on_c, 12, 63, 0
17, 232710, Note_on_c, 12, 63, 84
17, 232735, Note_on_c, 12, 63, 0
17, 232740, Note_on_c, 12, 58, 84
17, 232765, Note_on_c, 12, 58, 0
17, 232770, Note_on_c, 12, 58, 84
17, 232795, Note_on_c, 12, 58, 0
17, 232800, Note_on_c, 12, 67, 92
17, 232825, Note_on_c, 12, 67, 0
17, 232830, Note_on_c, 12, 67, 84
17, 232855, Note_on_c, 12, 67, 0
17, 232860, Note_on_c, 12, 63, 84
17, 232885, Note_on_c, 12, 63, 0
17, 232890, Note_on_c, 12, 63, 84
17, 232915, Note_on_c, 12, 63, 0
17, 232920, Note_on_c, 12, 67, 84
17, 232945, Note_on_c, 12, 67, 0
17, 232950, Note_on_c, 12, 67, 84
17, 232975, Note_on_c, 12, 67, 0
17, 232980, Note_on_c, 12, 63, 84
17, 233005, Note_on_c, 12, 63, 0
17, 233010, Note_on_c, 12, 63, 84
17, 233035, Note_on_c, 12, 63, 0
17, 233040, Note_on_c, 12, 67, 84
17, 233065, Note_on_c, 12, 67, 0
17, 233070, Note_on_c, 12, 67, 84
17, 233095, Note_on_c, 12, 67, 0
17, 233100, Note_on_c, 12, 63, 84
17, 233125, Note_on_c, 12, 63, 0
17, 233130, Note_on_c, 12, 63, 84
17, 233155, Note_on_c, 12, 63, 0
17, 233160, Note_on_c, 12, 67, 84
17, 233185, Note_on_c, 12, 67, 0
17, 233190, Note_on_c, 12, 67, 84
17, 233215, Note_on_c, 12, 67, 0
17, 233220, Note_on_c, 12, 63, 84
17, 233245, Note_on_c, 12, 63, 0
17, 233250, Note_on_c, 12, 63, 84
17, 233275, Note_on_c, 12, 63, 0
17, 233280, Note_on_c, 12, 58, 92
17, 233305, Note_on_c, 12, 58, 0
17, 233310, Note_on_c, 12, 58, 84
17, 233335, Note_on_c, 12, 58, 0
17, 233340, Note_on_c, 12, 55, 84
17, 233365, Note_on_c, 12, 55, 0
17, 233370, Note_on_c, 12, 55, 84
17, 233395, Note_on_c, 12, 55, 0
17, 233400, Note_on_c, 12, 58, 84
17, 233425, Note_on_c, 12, 58, 0
17, 233430, Note_on_c, 12, 58, 84
17, 233455, Note_on_c, 12, 58, 0
17, 233460, Note_on_c, 12, 55, 84
17, 233485, Note_on_c, 12, 55, 0
17, 233490, Note_on_c, 12, 55, 84
17, 233515, Note_on_c, 12, 55, 0
17, 233520, Note_on_c, 12, 63, 92
17, 233545, Note_on_c, 12, 63, 0
17, 233550, Note_on_c, 12, 63, 84
17, 233575, Note_on_c, 12, 63, 0
17, 233580, Note_on_c, 12, 58, 84
17, 233605, Note_on_c, 12, 58, 0
17, 233610, Note_on_c, 12, 58, 84
17, 233635, Note_on_c, 12, 58, 0
17, 233640, Note_on_c, 12, 63, 84
17, 233665, Note_on_c, 12, 63, 0
17, 233670, Note_on_c, 12, 63, 84
17, 233695, Note_on_c, 12, 63, 0
17, 233700, Note_on_c, 12, 58, 84
17, 233725, Note_on_c, 12, 58, 0
17, 233730, Note_on_c, 12, 58, 84
17, 233755, Note_on_c, 12, 58, 0
17, 233760, Note_on_c, 12, 67, 92
17, 233785, Note_on_c, 12, 67, 0
17, 233790, Note_on_c, 12, 67, 84
17, 233815, Note_on_c, 12, 67, 0
17, 233820, Note_on_c, 12, 63, 84
17, 233845, Note_on_c, 12, 63, 0
17, 233850, Note_on_c, 12, 63, 84
17, 233875, Note_on_c, 12, 63, 0
17, 233880, Note_on_c, 12, 67, 84
17, 233905, Note_on_c, 12, 67, 0
17, 233910, Note_on_c, 12, 67, 84
17, 233935, Note_on_c, 12, 67, 0
17, 233940, Note_on_c, 12, 63, 84
17, 233965, Note_on_c, 12, 63, 0
17, 233970, Note_on_c, 12, 63, 84
17, 233995, Note_on_c, 12, 63, 0
17, 234000, Note_on_c, 12, 70, 92
17, 234025, Note_on_c, 12, 70, 0
17, 234030, Note_on_c, 12, 70, 84
17, 234055, Note_on_c, 12, 70, 0
17, 234060, Note_on_c, 12, 67, 84
17, 234085, Note_on_c, 12, 67, 0
17, 234090, Note_on_c, 12, 67, 84
17, 234115, Note_on_c, 12, 67, 0
17, 234120, Note_on_c, 12, 70, 84
17, 234145, Note_on_c, 12, 70, 0
17, 234150, Note_on_c, 12, 70, 84
17, 234175, Note_on_c, 12, 70, 0
17, 234180, Note_on_c, 12, 67, 84
17, 234205, Note_on_c, 12, 67, 0
17, 234210, Note_on_c, 12, 67, 84
17, 234235, Note_on_c, 12, 67, 0
17, 234240, Note_on_c, 12, 75, 92
17, 234265, Note_on_c, 12, 75, 0
17, 234270, Note_on_c, 12, 75, 84
17, 234295, Note_on_c, 12, 75, 0
17, 234300, Note_on_c, 12, 70, 84
17, 234325, Note_on_c, 12, 70, 0
17, 234330, Note_on_c, 12, 70, 84
17, 234355, Note_on_c, 12, 70, 0
17, 234360, Note_on_c, 12, 75, 84
17, 234385, Note_on_c, 12, 75, 0
17, 234390, Note_on_c, 12, 79, 84
17, 234415, Note_on_c, 12, 79, 0
17, 234420, Note_on_c, 12, 79, 84
17, 234445, Note_on_c, 12, 79, 0
17, 234450, Note_on_c, 12, 79, 84
17, 234475, Note_on_c, 12, 79, 0
17, 234480, Note_on_c, 12, 79, 84
17, 234505, Note_on_c, 12, 79, 0
17, 234510, Note_on_c, 12, 79, 84
17, 234535, Note_on_c, 12, 79, 0
17, 234540, Note_on_c, 12, 79, 84
17, 234565, Note_on_c, 12, 79, 0
17, 234570, Note_on_c, 12, 79, 84
17, 234595, Note_on_c, 12, 79, 0
17, 234600, Note_on_c, 12, 79, 85
17, 234625, Note_on_c, 12, 79, 0
17, 234630, Note_on_c, 12, 79, 85
17, 234655, Note_on_c, 12, 79, 0
17, 234660, Note_on_c, 12, 79, 85
17, 234685, Note_on_c, 12, 79, 0
17, 234690, Note_on_c, 12, 79, 85
17, 234715, Note_on_c, 12, 79, 0
17, 234720, Note_on_c, 12, 79, 85
17, 234745, Note_on_c, 12, 79, 0
17, 234750, Note_on_c, 12, 79, 85
17, 234775, Note_on_c, 12, 79, 0
17, 234780, Note_on_c, 12, 79, 85
17, 234805, Note_on_c, 12, 79, 0
17, 234810, Note_on_c, 12, 79, 85
17, 234835, Note_on_c, 12, 79, 0
17, 234840, Note_on_c, 12, 79, 86
17, 234865, Note_on_c, 12, 79, 0
17, 234870, Note_on_c, 12, 75, 86
17, 234870, Note_on_c, 12, 87, 86
17, 234895, Note_on_c, 12, 75, 0
17, 234895, Note_on_c, 12, 87, 0
17, 234900, Note_on_c, 12, 75, 86
17, 234900, Note_on_c, 12, 87, 86
17, 234925, Note_on_c, 12, 75, 0
17, 234925, Note_on_c, 12, 87, 0
17, 234930, Note_on_c, 12, 87, 86
17, 234930, Note_on_c, 12, 75, 86
17, 234955, Note_on_c, 12, 87, 0
17, 234955, Note_on_c, 12, 75, 0
17, 234960, Note_on_c, 12, 75, 86
17, 234960, Note_on_c, 12, 87, 86
17, 234985, Note_on_c, 12, 75, 0
17, 234985, Note_on_c, 12, 87, 0
17, 234990, Note_on_c, 12, 75, 86
17, 234990, Note_on_c, 12, 87, 86
17, 235015, Note_on_c, 12, 75, 0
17, 235015, Note_on_c, 12, 87, 0
17, 235020, Note_on_c, 12, 87, 86
17, 235020, Note_on_c, 12, 75, 86
17, 235045, Note_on_c, 12, 87, 0
17, 235045, Note_on_c, 12, 75, 0
17, 235050, Note_on_c, 12, 75, 86
17, 235050, Note_on_c, 12, 87, 86
17, 235075, Note_on_c, 12, 75, 0
17, 235075, Note_on_c, 12, 87, 0
17, 235080, Note_on_c, 12, 87, 87
17, 235080, Note_on_c, 12, 75, 87
17, 235105, Note_on_c, 12, 87, 0
17, 235105, Note_on_c, 12, 75, 0
17, 235110, Note_on_c, 12, 75, 87
17, 235110, Note_on_c, 12, 87, 87
17, 235135, Note_on_c, 12, 75, 0
17, 235135, Note_on_c, 12, 87, 0
17, 235140, Note_on_c, 12, 75, 87
17, 235140, Note_on_c, 12, 87, 87
17, 235165, Note_on_c, 12, 75, 0
17, 235165, Note_on_c, 12, 87, 0
17, 235170, Note_on_c, 12, 75, 87
17, 235170, Note_on_c, 12, 87, 87
17, 235195, Note_on_c, 12, 75, 0
17, 235195, Note_on_c, 12, 87, 0
17, 235200, Note_on_c, 12, 75, 87
17, 235200, Note_on_c, 12, 87, 87
17, 235225, Note_on_c, 12, 75, 0
17, 235225, Note_on_c, 12, 87, 0
17, 235230, Note_on_c, 12, 75, 87
17, 235230, Note_on_c, 12, 87, 87
17, 235255, Note_on_c, 12, 75, 0
17, 235255, Note_on_c, 12, 87, 0
17, 235260, Note_on_c, 12, 87, 87
17, 235260, Note_on_c, 12, 75, 87
17, 235285, Note_on_c, 12, 87, 0
17, 235285, Note_on_c, 12, 75, 0
17, 235290, Note_on_c, 12, 87, 87
17, 235290, Note_on_c, 12, 75, 87
17, 235315, Note_on_c, 12, 87, 0
17, 235315, Note_on_c, 12, 75, 0
17, 235320, Note_on_c, 12, 75, 88
17, 235320, Note_on_c, 12, 87, 88
17, 235345, Note_on_c, 12, 75, 0
17, 235345, Note_on_c, 12, 87, 0
17, 235350, Note_on_c, 12, 87, 88
17, 235350, Note_on_c, 12, 75, 88
17, 235375, Note_on_c, 12, 87, 0
17, 235375, Note_on_c, 12, 75, 0
17, 235380, Note_on_c, 12, 87, 88
17, 235380, Note_on_c, 12, 75, 88
17, 235405, Note_on_c, 12, 87, 0
17, 235405, Note_on_c, 12, 75, 0
17, 235410, Note_on_c, 12, 87, 88
17, 235410, Note_on_c, 12, 75, 88
17, 235435, Note_on_c, 12, 87, 0
17, 235435, Note_on_c, 12, 75, 0
17, 235440, Note_on_c, 12, 87, 88
17, 235440, Note_on_c, 12, 75, 88
17, 235465, Note_on_c, 12, 87, 0
17, 235465, Note_on_c, 12, 75, 0
17, 235470, Note_on_c, 12, 87, 88
17, 235470, Note_on_c, 12, 75, 88
17, 235495, Note_on_c, 12, 87, 0
17, 235495, Note_on_c, 12, 75, 0
17, 235500, Note_on_c, 12, 87, 88
17, 235500, Note_on_c, 12, 75, 88
17, 235525, Note_on_c, 12, 87, 0
17, 235525, Note_on_c, 12, 75, 0
17, 235530, Note_on_c, 12, 87, 88
17, 235530, Note_on_c, 12, 75, 88
17, 235555, Note_on_c, 12, 87, 0
17, 235555, Note_on_c, 12, 75, 0
17, 235560, Note_on_c, 12, 75, 89
17, 235560, Note_on_c, 12, 87, 89
17, 235585, Note_on_c, 12, 75, 0
17, 235585, Note_on_c, 12, 87, 0
17, 235590, Note_on_c, 12, 87, 89
17, 235590, Note_on_c, 12, 75, 89
17, 235615, Note_on_c, 12, 87, 0
17, 235615, Note_on_c, 12, 75, 0
17, 235620, Note_on_c, 12, 87, 89
17, 235620, Note_on_c, 12, 75, 89
17, 235645, Note_on_c, 12, 87, 0
17, 235645, Note_on_c, 12, 75, 0
17, 235650, Note_on_c, 12, 75, 89
17, 235650, Note_on_c, 12, 87, 89
17, 235675, Note_on_c, 12, 75, 0
17, 235675, Note_on_c, 12, 87, 0
17, 235680, Note_on_c, 12, 75, 89
17, 235680, Note_on_c, 12, 87, 89
17, 235705, Note_on_c, 12, 75, 0
17, 235705, Note_on_c, 12, 87, 0
17, 235710, Note_on_c, 12, 87, 89
17, 235710, Note_on_c, 12, 75, 89
17, 235735, Note_on_c, 12, 87, 0
17, 235735, Note_on_c, 12, 75, 0
17, 235740, Note_on_c, 12, 75, 89
17, 235740, Note_on_c, 12, 87, 89
17, 235765, Note_on_c, 12, 75, 0
17, 235765, Note_on_c, 12, 87, 0
17, 235770, Note_on_c, 12, 75, 89
17, 235770, Note_on_c, 12, 87, 89
17, 235795, Note_on_c, 12, 75, 0
17, 235795, Note_on_c, 12, 87, 0
17, 235800, Note_on_c, 12, 87, 90
17, 235800, Note_on_c, 12, 75, 90
17, 235825, Note_on_c, 12, 87, 0
17, 235825, Note_on_c, 12, 75, 0
17, 235830, Note_on_c, 12, 87, 90
17, 235830, Note_on_c, 12, 75, 90
17, 235855, Note_on_c, 12, 87, 0
17, 235855, Note_on_c, 12, 75, 0
17, 235860, Note_on_c, 12, 87, 90
17, 235860, Note_on_c, 12, 75, 90
17, 235885, Note_on_c, 12, 87, 0
17, 235885, Note_on_c, 12, 75, 0
17, 235890, Note_on_c, 12, 87, 90
17, 235890, Note_on_c, 12, 75, 90
17, 235915, Note_on_c, 12, 87, 0
17, 235915, Note_on_c, 12, 75, 0
17, 235920, Note_on_c, 12, 87, 90
17, 235920, Note_on_c, 12, 75, 90
17, 235945, Note_on_c, 12, 87, 0
17, 235945, Note_on_c, 12, 75, 0
17, 235950, Note_on_c, 12, 75, 90
17, 235950, Note_on_c, 12, 87, 90
17, 235975, Note_on_c, 12, 75, 0
17, 235975, Note_on_c, 12, 87, 0
17, 235980, Note_on_c, 12, 75, 90
17, 235980, Note_on_c, 12, 87, 90
17, 236005, Note_on_c, 12, 75, 0
17, 236005, Note_on_c, 12, 87, 0
17, 236010, Note_on_c, 12, 87, 90
17, 236010, Note_on_c, 12, 75, 90
17, 236035, Note_on_c, 12, 87, 0
17, 236035, Note_on_c, 12, 75, 0
17, 236040, Note_on_c, 12, 87, 91
17, 236040, Note_on_c, 12, 75, 91
17, 236065, Note_on_c, 12, 87, 0
17, 236065, Note_on_c, 12, 75, 0
17, 236070, Note_on_c, 12, 75, 91
17, 236070, Note_on_c, 12, 87, 91
17, 236095, Note_on_c, 12, 75, 0
17, 236095, Note_on_c, 12, 87, 0
17, 236100, Note_on_c, 12, 75, 91
17, 236100, Note_on_c, 12, 87, 91
17, 236125, Note_on_c, 12, 75, 0
17, 236125, Note_on_c, 12, 87, 0
17, 236130, Note_on_c, 12, 87, 91
17, 236130, Note_on_c, 12, 75, 91
17, 236155, Note_on_c, 12, 87, 0
17, 236155, Note_on_c, 12, 75, 0
17, 236160, Note_on_c, 12, 75, 91
17, 236160, Note_on_c, 12, 87, 91
17, 236185, Note_on_c, 12, 75, 0
17, 236185, Note_on_c, 12, 87, 0
17, 236190, Note_on_c, 12, 75, 91
17, 236190, Note_on_c, 12, 87, 91
17, 236215, Note_on_c, 12, 75, 0
17, 236215, Note_on_c, 12, 87, 0
17, 236220, Note_on_c, 12, 75, 91
17, 236220, Note_on_c, 12, 87, 91
17, 236245, Note_on_c, 12, 75, 0
17, 236245, Note_on_c, 12, 87, 0
17, 236250, Note_on_c, 12, 87, 91
17, 236250, Note_on_c, 12, 75, 91
17, 236275, Note_on_c, 12, 87, 0
17, 236275, Note_on_c, 12, 75, 0
17, 236280, Note_on_c, 12, 75, 84
17, 236280, Note_on_c, 12, 87, 84
17, 236511, Note_on_c, 12, 75, 0
17, 236511, Note_on_c, 12, 87, 0
17, 236520, Note_on_c, 12, 70, 84
17, 236520, Note_on_c, 12, 55, 84
17, 236520, Note_on_c, 12, 63, 84
17, 236520, Note_on_c, 12, 79, 84
17, 236759, Note_on_c, 12, 70, 0
17, 236759, Note_on_c, 12, 55, 0
17, 236759, Note_on_c, 12, 63, 0
17, 236759, Note_on_c, 12, 79, 0
17, 237000, Note_on_c, 12, 70, 84
17, 237000, Note_on_c, 12, 63, 84
17, 237000, Note_on_c, 12, 55, 84
17, 237000, Note_on_c, 12, 79, 84
17, 237239, Note_on_c, 12, 70, 0
17, 237239, Note_on_c, 12, 63, 0
17, 237239, Note_on_c, 12, 55, 0
17, 237239, Note_on_c, 12, 79, 0
17, 237360, Note_on_c, 12, 70, 84
17, 237360, Note_on_c, 12, 55, 84
17, 237360, Note_on_c, 12, 79, 84
17, 237360, Note_on_c, 12, 63, 84
17, 237479, Note_on_c, 12, 70, 0
17, 237479, Note_on_c, 12, 55, 0
17, 237479, Note_on_c, 12, 79, 0
17, 237479, Note_on_c, 12, 63, 0
17, 237600, Note_on_c, 12, 79, 84
17, 237600, Note_on_c, 12, 55, 84
17, 237600, Note_on_c, 12, 70, 84
17, 237600, Note_on_c, 12, 63, 84
17, 237719, Note_on_c, 12, 79, 0
17, 237719, Note_on_c, 12, 55, 0
17, 237719, Note_on_c, 12, 70, 0
17, 237719, Note_on_c, 12, 63, 0
17, 237840, Note_on_c, 12, 55, 84
17, 237840, Note_on_c, 12, 63, 84
17, 237840, Note_on_c, 12, 79, 84
17, 237840, Note_on_c, 12, 70, 84
17, 237959, Note_on_c, 12, 55, 0
17, 237959, Note_on_c, 12, 63, 0
17, 237959, Note_on_c, 12, 79, 0
17, 237959, Note_on_c, 12, 70, 0
17, 238080, Note_on_c, 12, 70, 84
17, 238080, Note_on_c, 12, 63, 84
17, 238080, Note_on_c, 12, 79, 84
17, 238080, Note_on_c, 12, 55, 84
17, 238199, Note_on_c, 12, 70, 0
17, 238199, Note_on_c, 12, 63, 0
17, 238199, Note_on_c, 12, 79, 0
17, 238199, Note_on_c, 12, 55, 0
17, 238440, Note_on_c, 12, 70, 84
17, 238440, Note_on_c, 12, 55, 84
17, 238440, Note_on_c, 12, 63, 84
17, 238440, Note_on_c, 12, 79, 84
17, 238559, Note_on_c, 12, 70, 0
17, 238559, Note_on_c, 12, 55, 0
17, 238559, Note_on_c, 12, 63, 0
17, 238559, Note_on_c, 12, 79, 0
17, 238920, Note_on_c, 12, 63, 84
17, 238920, Note_on_c, 12, 79, 84
17, 238920, Note_on_c, 12, 70, 84
17, 239039, Note_on_c, 12, 63, 0
17, 239039, Note_on_c, 12, 79, 0
17, 239039, Note_on_c, 12, 70, 0
17, 239280, Note_on_c, 12, 79, 84
17, 239280, Note_on_c, 12, 63, 84
17, 239280, Note_on_c, 12, 70, 84
17, 239399, Note_on_c, 12, 79, 0
17, 239399, Note_on_c, 12, 63, 0
17, 239399, Note_on_c, 12, 70, 0
17, 239520, Note_on_c, 12, 63, 84
17, 239520, Note_on_c, 12, 79, 84
17, 239520, Note_on_c, 12, 70, 84
17, 239639, Note_on_c, 12, 63, 0
17, 239639, Note_on_c, 12, 79, 0
17, 239639, Note_on_c, 12, 70, 0
17, 239760, Note_on_c, 12, 63, 84
17, 239760, Note_on_c, 12, 70, 84
17, 239760, Note_on_c, 12, 79, 84
17, 239879, Note_on_c, 12, 63, 0
17, 239879, Note_on_c, 12, 70, 0
17, 239879, Note_on_c, 12, 79, 0
17, 240000, Note_on_c, 12, 63, 84
17, 240000, Note_on_c, 12, 79, 84
17, 240000, Note_on_c, 12, 70, 84
17, 240111, Note_on_c, 12, 79, 0
17, 240111, Note_on_c, 12, 70, 0
17, 240119, Note_on_c, 12, 63, 0
17, 240120, Note_on_c, 12, 70, 84
17, 240120, Note_on_c, 12, 79, 84
17, 240120, Note_on_c, 12, 63, 84
17, 240239, Note_on_c, 12, 70, 0
17, 240239, Note_on_c, 12, 79, 0
17, 240239, Note_on_c, 12, 63, 0
17, 240660, Note_on_c, 12, 63, 84
17, 240685, Note_on_c, 12, 63, 0
17, 240690, Note_on_c, 12, 63, 84
17, 240715, Note_on_c, 12, 63, 0
17, 240720, Note_on_c, 12, 65, 84
17, 240745, Note_on_c, 12, 65, 0
17, 240750, Note_on_c, 12, 65, 84
17, 240775, Note_on_c, 12, 65, 0
17, 240780, Note_on_c, 12, 67, 84
17, 240805, Note_on_c, 12, 67, 0
17, 240810, Note_on_c, 12, 67, 84
17, 240835, Note_on_c, 12, 67, 0
17, 240840, Note_on_c, 12, 68, 84
17, 240865, Note_on_c, 12, 68, 0
17, 240870, Note_on_c, 12, 68, 84
17, 240895, Note_on_c, 12, 68, 0
17, 240900, Note_on_c, 12, 70, 84
17, 240925, Note_on_c, 12, 70, 0
17, 240930, Note_on_c, 12, 70, 84
17, 240955, Note_on_c, 12, 70, 0
17, 240960, Note_on_c, 12, 72, 84
17, 240985, Note_on_c, 12, 72, 0
17, 240990, Note_on_c, 12, 72, 84
17, 241015, Note_on_c, 12, 72, 0
17, 241020, Note_on_c, 12, 74, 84
17, 241045, Note_on_c, 12, 74, 0
17, 241050, Note_on_c, 12, 74, 84
17, 241075, Note_on_c, 12, 74, 0
17, 241080, Note_on_c, 12, 75, 84
17, 241080, Note_on_c, 12, 63, 84
17, 241080, Note_on_c, 12, 55, 84
17, 241199, Note_on_c, 12, 75, 0
17, 241199, Note_on_c, 12, 63, 0
17, 241199, Note_on_c, 12, 55, 0
17, 241560, Note_on_c, 12, 70, 84
17, 241560, Note_on_c, 12, 79, 84
17, 241560, Note_on_c, 12, 63, 84
17, 241560, Note_on_c, 12, 55, 84
17, 241679, Note_on_c, 12, 70, 0
17, 241679, Note_on_c, 12, 79, 0
17, 241679, Note_on_c, 12, 63, 0
17, 241679, Note_on_c, 12, 55, 0
17, 242040, Note_on_c, 12, 75, 84
17, 242040, Note_on_c, 12, 63, 84
17, 242040, Note_on_c, 12, 55, 84
17, 242279, Note_on_c, 12, 75, 0
17, 242279, Note_on_c, 12, 63, 0
17, 242279, Note_on_c, 12, 55, 0
17, 242279, End_track
18, 0, Start_track
18, 0, Title_t, "Viola "
18, 0, MIDI_port, 0
18, 0, Program_c, 13, 48
18, 0, Control_c, 13, 11, 127
18, 0, Control_c, 13, 10, 70
18, 0, Control_c, 13, 7, 96
18, 120, Note_on_c, 13, 62, 84
18, 120, Note_on_c, 13, 50, 84
18, 411, Note_on_c, 13, 62, 0
18, 411, Note_on_c, 13, 50, 0
18, 420, Note_on_c, 13, 60, 84
18, 471, Note_on_c, 13, 60, 0
18, 480, Note_on_c, 13, 58, 84
18, 531, Note_on_c, 13, 58, 0
18, 540, Note_on_c, 13, 57, 84
18, 591, Note_on_c, 13, 57, 0
18, 600, Note_on_c, 13, 58, 84
18, 651, Note_on_c, 13, 58, 0
18, 660, Note_on_c, 13, 57, 84
18, 711, Note_on_c, 13, 57, 0
18, 720, Note_on_c, 13, 55, 84
18, 771, Note_on_c, 13, 55, 0
18, 780, Note_on_c, 13, 54, 84
18, 831, Note_on_c, 13, 54, 0
18, 840, Note_on_c, 13, 55, 84
18, 891, Note_on_c, 13, 55, 0
18, 900, Note_on_c, 13, 65, 84
18, 951, Note_on_c, 13, 65, 0
18, 960, Note_on_c, 13, 63, 84
18, 1011, Note_on_c, 13, 63, 0
18, 1020, Note_on_c, 13, 62, 84
18, 1071, Note_on_c, 13, 62, 0
18, 1080, Note_on_c, 13, 63, 84
18, 1131, Note_on_c, 13, 63, 0
18, 1140, Note_on_c, 13, 62, 84
18, 1191, Note_on_c, 13, 62, 0
18, 1200, Note_on_c, 13, 60, 84
18, 1251, Note_on_c, 13, 60, 0
18, 1260, Note_on_c, 13, 58, 84
18, 1311, Note_on_c, 13, 58, 0
18, 1320, Note_on_c, 13, 60, 84
18, 1371, Note_on_c, 13, 60, 0
18, 1380, Note_on_c, 13, 58, 84
18, 1431, Note_on_c, 13, 58, 0
18, 1440, Note_on_c, 13, 57, 84
18, 1491, Note_on_c, 13, 57, 0
18, 1500, Note_on_c, 13, 55, 84
18, 1551, Note_on_c, 13, 55, 0
18, 1560, Note_on_c, 13, 56, 84
18, 1664, Note_on_c, 13, 56, 0
18, 1680, Note_on_c, 13, 68, 84
18, 1731, Note_on_c, 13, 68, 0
18, 1740, Note_on_c, 13, 67, 84
18, 1791, Note_on_c, 13, 67, 0
18, 1800, Note_on_c, 13, 65, 84
18, 1851, Note_on_c, 13, 65, 0
18, 1860, Note_on_c, 13, 67, 84
18, 1911, Note_on_c, 13, 67, 0
18, 1920, Note_on_c, 13, 65, 84
18, 1971, Note_on_c, 13, 65, 0
18, 1980, Note_on_c, 13, 63, 84
18, 2031, Note_on_c, 13, 63, 0
18, 2040, Note_on_c, 13, 62, 84
18, 2091, Note_on_c, 13, 62, 0
18, 2100, Note_on_c, 13, 63, 84
18, 2151, Note_on_c, 13, 63, 0
18, 2160, Note_on_c, 13, 65, 84
18, 2211, Note_on_c, 13, 65, 0
18, 2220, Note_on_c, 13, 67, 84
18, 2271, Note_on_c, 13, 67, 0
18, 2280, Note_on_c, 13, 65, 84
18, 2331, Note_on_c, 13, 65, 0
18, 2340, Note_on_c, 13, 63, 84
18, 2391, Note_on_c, 13, 63, 0
18, 2400, Note_on_c, 13, 62, 84
18, 2451, Note_on_c, 13, 62, 0
18, 2460, Note_on_c, 13, 60, 84
18, 2511, Note_on_c, 13, 60, 0
18, 2520, Note_on_c, 13, 58, 84
18, 2639, Note_on_c, 13, 58, 0
18, 2700, Note_on_c, 13, 62, 84
18, 2751, Note_on_c, 13, 62, 0
18, 2760, Note_on_c, 13, 62, 84
18, 2879, Note_on_c, 13, 62, 0
18, 2940, Note_on_c, 13, 65, 84
18, 2991, Note_on_c, 13, 65, 0
18, 3000, Note_on_c, 13, 65, 84
18, 3179, Note_on_c, 13, 65, 0
18, 3480, Note_on_c, 13, 62, 84
18, 3659, Note_on_c, 13, 62, 0
18, 3720, Note_on_c, 13, 65, 84
18, 3899, Note_on_c, 13, 65, 0
18, 3960, Note_on_c, 13, 70, 92
18, 4139, Note_on_c, 13, 70, 0
18, 4440, Note_on_c, 13, 58, 92
18, 4440, Note_on_c, 13, 70, 92
18, 4440, Note_on_c, 13, 65, 92
18, 4679, Note_on_c, 13, 58, 0
18, 4679, Note_on_c, 13, 70, 0
18, 4679, Note_on_c, 13, 65, 0
18, 4920, Note_on_c, 13, 58, 92
18, 5339, Note_on_c, 13, 58, 0
18, 5398, Program_c, 13, 45
18, 5400, Note_on_c, 13, 63, 44
18, 5519, Note_on_c, 13, 63, 0
18, 5880, Note_on_c, 13, 70, 44
18, 5999, Note_on_c, 13, 70, 0
18, 6360, Note_on_c, 13, 58, 44
18, 6479, Note_on_c, 13, 58, 0
18, 6840, Note_on_c, 13, 63, 44
18, 6959, Note_on_c, 13, 63, 0
18, 7320, Note_on_c, 13, 63, 44
18, 7439, Note_on_c, 13, 63, 0
18, 7560, Note_on_c, 13, 62, 44
18, 7679, Note_on_c, 13, 62, 0
18, 7800, Note_on_c, 13, 63, 44
18, 8039, Note_on_c, 13, 63, 0
18, 8160, Note_on_c, 13, 64, 44
18, 8279, Note_on_c, 13, 64, 0
18, 8280, Note_on_c, 13, 65, 44
18, 8399, Note_on_c, 13, 65, 0
18, 8400, Note_on_c, 13, 62, 44
18, 8519, Note_on_c, 13, 62, 0
18, 8520, Note_on_c, 13, 63, 44
18, 8639, Note_on_c, 13, 63, 0
18, 8640, Note_on_c, 13, 57, 44
18, 8759, Note_on_c, 13, 57, 0
18, 8760, Note_on_c, 13, 58, 44
18, 8999, Note_on_c, 13, 58, 0
18, 9240, Note_on_c, 13, 63, 44
18, 9479, Note_on_c, 13, 63, 0
18, 9720, Note_on_c, 13, 70, 44
18, 9959, Note_on_c, 13, 70, 0
18, 10200, Note_on_c, 13, 58, 44
18, 10439, Note_on_c, 13, 58, 0
18, 10680, Note_on_c, 13, 63, 44
18, 10919, Note_on_c, 13, 63, 0
18, 11160, Note_on_c, 13, 63, 44
18, 11279, Note_on_c, 13, 63, 0
18, 11400, Note_on_c, 13, 62, 44
18, 11519, Note_on_c, 13, 62, 0
18, 11640, Note_on_c, 13, 63, 44
18, 11759, Note_on_c, 13, 63, 0
18, 12000, Note_on_c, 13, 64, 44
18, 12119, Note_on_c, 13, 64, 0
18, 12120, Note_on_c, 13, 65, 44
18, 12209, Note_on_c, 13, 65, 0
18, 12240, Note_on_c, 13, 62, 44
18, 12329, Note_on_c, 13, 62, 0
18, 12360, Note_on_c, 13, 63, 44
18, 12449, Note_on_c, 13, 63, 0
18, 12480, Note_on_c, 13, 57, 44
18, 12569, Note_on_c, 13, 57, 0
18, 12600, Note_on_c, 13, 58, 44
18, 12779, Note_on_c, 13, 58, 0
18, 14880, Note_on_c, 13, 56, 44
18, 14999, Note_on_c, 13, 56, 0
18, 15000, Note_on_c, 13, 55, 44
18, 15119, Note_on_c, 13, 55, 0
18, 15480, Note_on_c, 13, 56, 44
18, 15599, Note_on_c, 13, 56, 0
18, 15960, Note_on_c, 13, 58, 44
18, 16079, Note_on_c, 13, 58, 0
18, 16200, Note_on_c, 13, 58, 44
18, 16319, Note_on_c, 13, 58, 0
18, 16440, Note_on_c, 13, 51, 44
18, 16559, Note_on_c, 13, 51, 0
18, 16890, Program_c, 13, 48
18, 16920, Note_on_c, 13, 58, 84
18, 17024, Note_on_c, 13, 58, 0
18, 17040, Note_on_c, 13, 58, 84
18, 17144, Note_on_c, 13, 58, 0
18, 17160, Note_on_c, 13, 58, 84
18, 17279, Note_on_c, 13, 58, 0
18, 17880, Note_on_c, 13, 58, 52
18, 18239, Note_on_c, 13, 58, 0
18, 18360, Program_c, 13, 45
18, 18720, Note_on_c, 13, 56, 52
18, 18839, Note_on_c, 13, 56, 0
18, 18840, Note_on_c, 13, 55, 52
18, 18959, Note_on_c, 13, 55, 0
18, 19320, Note_on_c, 13, 56, 52
18, 19439, Note_on_c, 13, 56, 0
18, 19800, Note_on_c, 13, 58, 52
18, 19919, Note_on_c, 13, 58, 0
18, 20040, Note_on_c, 13, 58, 52
18, 20159, Note_on_c, 13, 58, 0
18, 20280, Note_on_c, 13, 51, 52
18, 20399, Note_on_c, 13, 51, 0
18, 35640, Program_c, 13, 48
18, 36000, Note_on_c, 13, 70, 52
18, 36059, Note_on_c, 13, 70, 0
18, 36060, Note_on_c, 13, 68, 52
18, 36111, Note_on_c, 13, 68, 0
18, 36120, Note_on_c, 13, 67, 52
18, 36179, Note_on_c, 13, 67, 0
18, 36200, Note_on_c, 13, 70, 52
18, 36259, Note_on_c, 13, 70, 0
18, 36280, Note_on_c, 13, 68, 52
18, 36339, Note_on_c, 13, 68, 0
18, 36360, Note_on_c, 13, 67, 52
18, 36419, Note_on_c, 13, 67, 0
18, 36440, Note_on_c, 13, 65, 52
18, 36499, Note_on_c, 13, 65, 0
18, 36520, Note_on_c, 13, 63, 52
18, 36579, Note_on_c, 13, 63, 0
18, 36600, Note_on_c, 13, 62, 52
18, 36659, Note_on_c, 13, 62, 0
18, 36680, Note_on_c, 13, 65, 52
18, 36739, Note_on_c, 13, 65, 0
18, 36760, Note_on_c, 13, 68, 52
18, 36819, Note_on_c, 13, 68, 0
18, 36840, Note_on_c, 13, 67, 52
18, 36899, Note_on_c, 13, 67, 0
18, 36920, Note_on_c, 13, 65, 52
18, 36979, Note_on_c, 13, 65, 0
18, 37000, Note_on_c, 13, 63, 52
18, 37059, Note_on_c, 13, 63, 0
18, 37080, Note_on_c, 13, 62, 52
18, 37139, Note_on_c, 13, 62, 0
18, 37160, Note_on_c, 13, 60, 52
18, 37219, Note_on_c, 13, 60, 0
18, 37240, Note_on_c, 13, 58, 52
18, 37299, Note_on_c, 13, 58, 0
18, 37320, Note_on_c, 13, 56, 52
18, 37379, Note_on_c, 13, 56, 0
18, 37400, Note_on_c, 13, 55, 52
18, 37459, Note_on_c, 13, 55, 0
18, 37480, Note_on_c, 13, 53, 52
18, 37539, Note_on_c, 13, 53, 0
18, 37560, Note_on_c, 13, 51, 52
18, 37619, Note_on_c, 13, 51, 0
18, 37640, Note_on_c, 13, 55, 52
18, 37699, Note_on_c, 13, 55, 0
18, 37720, Note_on_c, 13, 56, 52
18, 37779, Note_on_c, 13, 56, 0
18, 37800, Note_on_c, 13, 58, 52
18, 37859, Note_on_c, 13, 58, 0
18, 37880, Note_on_c, 13, 60, 52
18, 37939, Note_on_c, 13, 60, 0
18, 37960, Note_on_c, 13, 62, 52
18, 38019, Note_on_c, 13, 62, 0
18, 38040, Note_on_c, 13, 63, 52
18, 38111, Note_on_c, 13, 63, 0
18, 38120, Note_on_c, 13, 67, 53
18, 38191, Note_on_c, 13, 67, 0
18, 38200, Note_on_c, 13, 67, 54
18, 38271, Note_on_c, 13, 67, 0
18, 38280, Note_on_c, 13, 68, 56
18, 38351, Note_on_c, 13, 68, 0
18, 38360, Note_on_c, 13, 68, 57
18, 38431, Note_on_c, 13, 68, 0
18, 38440, Note_on_c, 13, 68, 58
18, 38511, Note_on_c, 13, 68, 0
18, 38520, Note_on_c, 13, 67, 60
18, 38591, Note_on_c, 13, 67, 0
18, 38600, Note_on_c, 13, 67, 61
18, 38671, Note_on_c, 13, 67, 0
18, 38680, Note_on_c, 13, 67, 62
18, 38751, Note_on_c, 13, 67, 0
18, 38760, Note_on_c, 13, 67, 64
18, 38831, Note_on_c, 13, 67, 0
18, 38840, Note_on_c, 13, 67, 65
18, 38911, Note_on_c, 13, 67, 0
18, 38920, Note_on_c, 13, 67, 66
18, 38991, Note_on_c, 13, 67, 0
18, 39000, Note_on_c, 13, 65, 52
18, 39071, Note_on_c, 13, 65, 0
18, 39080, Note_on_c, 13, 65, 52
18, 39151, Note_on_c, 13, 65, 0
18, 39160, Note_on_c, 13, 65, 52
18, 39231, Note_on_c, 13, 65, 0
18, 39240, Note_on_c, 13, 65, 52
18, 39311, Note_on_c, 13, 65, 0
18, 39320, Note_on_c, 13, 63, 52
18, 39391, Note_on_c, 13, 63, 0
18, 39400, Note_on_c, 13, 63, 52
18, 39471, Note_on_c, 13, 63, 0
18, 39480, Note_on_c, 13, 62, 52
18, 39719, Note_on_c, 13, 62, 0
18, 39840, Note_on_c, 13, 70, 52
18, 39899, Note_on_c, 13, 70, 0
18, 39900, Note_on_c, 13, 68, 52
18, 39951, Note_on_c, 13, 68, 0
18, 39960, Note_on_c, 13, 67, 52
18, 40019, Note_on_c, 13, 67, 0
18, 40040, Note_on_c, 13, 70, 52
18, 40099, Note_on_c, 13, 70, 0
18, 40120, Note_on_c, 13, 68, 52
18, 40179, Note_on_c, 13, 68, 0
18, 40200, Note_on_c, 13, 67, 52
18, 40259, Note_on_c, 13, 67, 0
18, 40280, Note_on_c, 13, 65, 52
18, 40339, Note_on_c, 13, 65, 0
18, 40360, Note_on_c, 13, 63, 52
18, 40419, Note_on_c, 13, 63, 0
18, 40440, Note_on_c, 13, 62, 52
18, 40499, Note_on_c, 13, 62, 0
18, 40520, Note_on_c, 13, 65, 52
18, 40579, Note_on_c, 13, 65, 0
18, 40600, Note_on_c, 13, 68, 52
18, 40659, Note_on_c, 13, 68, 0
18, 40680, Note_on_c, 13, 67, 52
18, 40739, Note_on_c, 13, 67, 0
18, 40760, Note_on_c, 13, 65, 52
18, 40819, Note_on_c, 13, 65, 0
18, 40840, Note_on_c, 13, 63, 52
18, 40899, Note_on_c, 13, 63, 0
18, 40920, Note_on_c, 13, 62, 52
18, 40979, Note_on_c, 13, 62, 0
18, 41000, Note_on_c, 13, 60, 52
18, 41059, Note_on_c, 13, 60, 0
18, 41080, Note_on_c, 13, 58, 52
18, 41139, Note_on_c, 13, 58, 0
18, 41160, Note_on_c, 13, 56, 52
18, 41219, Note_on_c, 13, 56, 0
18, 41240, Note_on_c, 13, 55, 52
18, 41299, Note_on_c, 13, 55, 0
18, 41320, Note_on_c, 13, 53, 52
18, 41379, Note_on_c, 13, 53, 0
18, 41400, Note_on_c, 13, 51, 52
18, 41459, Note_on_c, 13, 51, 0
18, 41480, Note_on_c, 13, 55, 52
18, 41539, Note_on_c, 13, 55, 0
18, 41560, Note_on_c, 13, 56, 52
18, 41619, Note_on_c, 13, 56, 0
18, 41640, Note_on_c, 13, 58, 52
18, 41699, Note_on_c, 13, 58, 0
18, 41720, Note_on_c, 13, 60, 52
18, 41779, Note_on_c, 13, 60, 0
18, 41800, Note_on_c, 13, 62, 52
18, 41859, Note_on_c, 13, 62, 0
18, 41880, Note_on_c, 13, 63, 52
18, 41951, Note_on_c, 13, 63, 0
18, 41960, Note_on_c, 13, 67, 53
18, 42031, Note_on_c, 13, 67, 0
18, 42040, Note_on_c, 13, 67, 54
18, 42111, Note_on_c, 13, 67, 0
18, 42120, Note_on_c, 13, 68, 56
18, 42191, Note_on_c, 13, 68, 0
18, 42200, Note_on_c, 13, 68, 57
18, 42271, Note_on_c, 13, 68, 0
18, 42280, Note_on_c, 13, 68, 58
18, 42351, Note_on_c, 13, 68, 0
18, 42360, Note_on_c, 13, 67, 60
18, 42431, Note_on_c, 13, 67, 0
18, 42440, Note_on_c, 13, 67, 61
18, 42511, Note_on_c, 13, 67, 0
18, 42520, Note_on_c, 13, 67, 62
18, 42591, Note_on_c, 13, 67, 0
18, 42600, Note_on_c, 13, 67, 64
18, 42671, Note_on_c, 13, 67, 0
18, 42680, Note_on_c, 13, 67, 65
18, 42751, Note_on_c, 13, 67, 0
18, 42760, Note_on_c, 13, 67, 66
18, 42831, Note_on_c, 13, 67, 0
18, 42840, Note_on_c, 13, 65, 52
18, 42911, Note_on_c, 13, 65, 0
18, 42920, Note_on_c, 13, 65, 52
18, 42991, Note_on_c, 13, 65, 0
18, 43000, Note_on_c, 13, 65, 52
18, 43071, Note_on_c, 13, 65, 0
18, 43080, Note_on_c, 13, 65, 52
18, 43151, Note_on_c, 13, 65, 0
18, 43160, Note_on_c, 13, 63, 52
18, 43231, Note_on_c, 13, 63, 0
18, 43240, Note_on_c, 13, 63, 52
18, 43311, Note_on_c, 13, 63, 0
18, 43320, Note_on_c, 13, 62, 52
18, 43559, Note_on_c, 13, 62, 0
18, 43880, Note_on_c, 13, 68, 52
18, 43959, Note_on_c, 13, 68, 0
18, 43960, Note_on_c, 13, 67, 52
18, 44031, Note_on_c, 13, 67, 0
18, 44040, Note_on_c, 13, 65, 52
18, 44099, Note_on_c, 13, 65, 0
18, 44120, Note_on_c, 13, 65, 52
18, 44199, Note_on_c, 13, 65, 0
18, 44200, Note_on_c, 13, 63, 52
18, 44271, Note_on_c, 13, 63, 0
18, 44280, Note_on_c, 13, 62, 52
18, 44339, Note_on_c, 13, 62, 0
18, 44360, Note_on_c, 13, 62, 52
18, 44439, Note_on_c, 13, 62, 0
18, 44440, Note_on_c, 13, 60, 52
18, 44511, Note_on_c, 13, 60, 0
18, 44520, Note_on_c, 13, 58, 52
18, 44639, Note_on_c, 13, 58, 0
18, 44840, Note_on_c, 13, 72, 54
18, 44919, Note_on_c, 13, 72, 0
18, 44920, Note_on_c, 13, 70, 57
18, 44991, Note_on_c, 13, 70, 0
18, 45000, Note_on_c, 13, 68, 60
18, 45059, Note_on_c, 13, 68, 0
18, 45080, Note_on_c, 13, 68, 62
18, 45159, Note_on_c, 13, 68, 0
18, 45160, Note_on_c, 13, 67, 65
18, 45231, Note_on_c, 13, 67, 0
18, 45240, Note_on_c, 13, 65, 52
18, 45584, Note_on_c, 13, 65, 0
18, 45600, Note_on_c, 13, 65, 52
18, 45704, Note_on_c, 13, 65, 0
18, 45720, Note_on_c, 13, 67, 52
18, 45791, Note_on_c, 13, 67, 0
18, 45800, Note_on_c, 13, 70, 53
18, 45871, Note_on_c, 13, 70, 0
18, 45880, Note_on_c, 13, 70, 54
18, 45951, Note_on_c, 13, 70, 0
18, 45960, Note_on_c, 13, 70, 56
18, 46031, Note_on_c, 13, 70, 0
18, 46040, Note_on_c, 13, 70, 57
18, 46111, Note_on_c, 13, 70, 0
18, 46120, Note_on_c, 13, 70, 58
18, 46191, Note_on_c, 13, 70, 0
18, 46200, Note_on_c, 13, 68, 60
18, 46271, Note_on_c, 13, 68, 0
18, 46280, Note_on_c, 13, 72, 61
18, 46351, Note_on_c, 13, 72, 0
18, 46360, Note_on_c, 13, 72, 62
18, 46431, Note_on_c, 13, 72, 0
18, 46440, Note_on_c, 13, 71, 64
18, 46511, Note_on_c, 13, 71, 0
18, 46520, Note_on_c, 13, 71, 65
18, 46591, Note_on_c, 13, 71, 0
18, 46600, Note_on_c, 13, 71, 66
18, 46671, Note_on_c, 13, 71, 0
18, 46680, Note_on_c, 13, 68, 52
18, 46751, Note_on_c, 13, 68, 0
18, 46760, Note_on_c, 13, 65, 52
18, 46831, Note_on_c, 13, 65, 0
18, 46840, Note_on_c, 13, 67, 52
18, 46911, Note_on_c, 13, 67, 0
18, 46920, Note_on_c, 13, 68, 52
18, 46991, Note_on_c, 13, 68, 0
18, 47000, Note_on_c, 13, 67, 52
18, 47071, Note_on_c, 13, 67, 0
18, 47080, Note_on_c, 13, 68, 52
18, 47151, Note_on_c, 13, 68, 0
18, 47160, Note_on_c, 13, 67, 52
18, 47231, Note_on_c, 13, 67, 0
18, 47240, Note_on_c, 13, 67, 52
18, 47311, Note_on_c, 13, 67, 0
18, 47320, Note_on_c, 13, 67, 52
18, 47391, Note_on_c, 13, 67, 0
18, 47400, Note_on_c, 13, 63, 52
18, 47519, Note_on_c, 13, 63, 0
18, 47720, Note_on_c, 13, 68, 52
18, 47799, Note_on_c, 13, 68, 0
18, 47800, Note_on_c, 13, 67, 52
18, 47871, Note_on_c, 13, 67, 0
18, 47880, Note_on_c, 13, 65, 52
18, 47939, Note_on_c, 13, 65, 0
18, 47960, Note_on_c, 13, 65, 52
18, 48039, Note_on_c, 13, 65, 0
18, 48040, Note_on_c, 13, 63, 52
18, 48111, Note_on_c, 13, 63, 0
18, 48120, Note_on_c, 13, 62, 52
18, 48179, Note_on_c, 13, 62, 0
18, 48200, Note_on_c, 13, 62, 52
18, 48279, Note_on_c, 13, 62, 0
18, 48280, Note_on_c, 13, 60, 52
18, 48351, Note_on_c, 13, 60, 0
18, 48360, Note_on_c, 13, 58, 52
18, 48479, Note_on_c, 13, 58, 0
18, 48680, Note_on_c, 13, 72, 54
18, 48759, Note_on_c, 13, 72, 0
18, 48760, Note_on_c, 13, 70, 57
18, 48831, Note_on_c, 13, 70, 0
18, 48840, Note_on_c, 13, 68, 60
18, 48899, Note_on_c, 13, 68, 0
18, 48920, Note_on_c, 13, 68, 62
18, 48999, Note_on_c, 13, 68, 0
18, 49000, Note_on_c, 13, 67, 65
18, 49071, Note_on_c, 13, 67, 0
18, 49080, Note_on_c, 13, 65, 52
18, 49424, Note_on_c, 13, 65, 0
18, 49440, Note_on_c, 13, 65, 52
18, 49544, Note_on_c, 13, 65, 0
18, 49560, Note_on_c, 13, 67, 52
18, 49631, Note_on_c, 13, 67, 0
18, 49640, Note_on_c, 13, 70, 53
18, 49711, Note_on_c, 13, 70, 0
18, 49720, Note_on_c, 13, 70, 54
18, 49791, Note_on_c, 13, 70, 0
18, 49800, Note_on_c, 13, 70, 56
18, 49871, Note_on_c, 13, 70, 0
18, 49880, Note_on_c, 13, 70, 57
18, 49951, Note_on_c, 13, 70, 0
18, 49960, Note_on_c, 13, 70, 58
18, 50031, Note_on_c, 13, 70, 0
18, 50040, Note_on_c, 13, 68, 60
18, 50111, Note_on_c, 13, 68, 0
18, 50120, Note_on_c, 13, 72, 61
18, 50191, Note_on_c, 13, 72, 0
18, 50200, Note_on_c, 13, 72, 62
18, 50271, Note_on_c, 13, 72, 0
18, 50280, Note_on_c, 13, 71, 64
18, 50351, Note_on_c, 13, 71, 0
18, 50360, Note_on_c, 13, 71, 65
18, 50431, Note_on_c, 13, 71, 0
18, 50440, Note_on_c, 13, 71, 66
18, 50511, Note_on_c, 13, 71, 0
18, 50520, Note_on_c, 13, 68, 52
18, 50591, Note_on_c, 13, 68, 0
18, 50600, Note_on_c, 13, 65, 52
18, 50671, Note_on_c, 13, 65, 0
18, 50680, Note_on_c, 13, 67, 52
18, 50751, Note_on_c, 13, 67, 0
18, 50760, Note_on_c, 13, 68, 52
18, 50831, Note_on_c, 13, 68, 0
18, 50840, Note_on_c, 13, 67, 52
18, 50911, Note_on_c, 13, 67, 0
18, 50920, Note_on_c, 13, 68, 52
18, 50991, Note_on_c, 13, 68, 0
18, 51000, Note_on_c, 13, 67, 52
18, 51071, Note_on_c, 13, 67, 0
18, 51080, Note_on_c, 13, 67, 52
18, 51151, Note_on_c, 13, 67, 0
18, 51160, Note_on_c, 13, 67, 52
18, 51231, Note_on_c, 13, 67, 0
18, 51240, Note_on_c, 13, 63, 52
18, 51359, Note_on_c, 13, 63, 0
18, 51600, Note_on_c, 13, 63, 52
18, 51704, Note_on_c, 13, 63, 0
18, 51720, Note_on_c, 13, 63, 52
18, 51824, Note_on_c, 13, 63, 0
18, 51840, Note_on_c, 13, 63, 52
18, 51959, Note_on_c, 13, 63, 0
18, 52080, Note_on_c, 13, 65, 52
18, 52184, Note_on_c, 13, 65, 0
18, 52200, Note_on_c, 13, 65, 52
18, 52304, Note_on_c, 13, 65, 0
18, 52320, Note_on_c, 13, 65, 52
18, 52439, Note_on_c, 13, 65, 0
18, 52560, Note_on_c, 13, 56, 52
18, 52664, Note_on_c, 13, 56, 0
18, 52680, Note_on_c, 13, 62, 52
18, 52784, Note_on_c, 13, 62, 0
18, 52800, Note_on_c, 13, 62, 52
18, 52919, Note_on_c, 13, 62, 0
18, 53040, Note_on_c, 13, 63, 52
18, 53144, Note_on_c, 13, 63, 0
18, 53160, Note_on_c, 13, 63, 52
18, 53264, Note_on_c, 13, 63, 0
18, 53280, Note_on_c, 13, 63, 52
18, 53399, Note_on_c, 13, 63, 0
18, 53520, Note_on_c, 13, 58, 56
18, 53639, Note_on_c, 13, 58, 0
18, 53760, Note_on_c, 13, 58, 64
18, 53879, Note_on_c, 13, 58, 0
18, 54000, Note_on_c, 13, 55, 76
18, 54104, Note_on_c, 13, 55, 0
18, 54120, Note_on_c, 13, 67, 68
18, 54224, Note_on_c, 13, 67, 0
18, 54240, Note_on_c, 13, 60, 68
18, 54344, Note_on_c, 13, 60, 0
18, 54360, Note_on_c, 13, 60, 68
18, 54464, Note_on_c, 13, 60, 0
18, 54480, Note_on_c, 13, 65, 64
18, 54584, Note_on_c, 13, 65, 0
18, 54600, Note_on_c, 13, 58, 60
18, 54704, Note_on_c, 13, 58, 0
18, 54720, Note_on_c, 13, 63, 56
18, 54824, Note_on_c, 13, 63, 0
18, 54840, Note_on_c, 13, 55, 52
18, 54959, Note_on_c, 13, 55, 0
18, 54960, Note_on_c, 13, 57, 52
18, 55079, Note_on_c, 13, 57, 0
18, 55080, Note_on_c, 13, 58, 52
18, 55184, Note_on_c, 13, 58, 0
18, 55200, Note_on_c, 13, 58, 52
18, 55304, Note_on_c, 13, 58, 0
18, 55320, Note_on_c, 13, 67, 76
18, 55679, Note_on_c, 13, 67, 0
18, 55680, Note_on_c, 13, 63, 76
18, 55784, Note_on_c, 13, 63, 0
18, 55800, Note_on_c, 13, 62, 76
18, 56159, Note_on_c, 13, 62, 0
18, 56160, Note_on_c, 13, 65, 76
18, 56264, Note_on_c, 13, 65, 0
18, 56280, Note_on_c, 13, 68, 76
18, 56639, Note_on_c, 13, 68, 0
18, 56640, Note_on_c, 13, 65, 76
18, 56744, Note_on_c, 13, 65, 0
18, 56760, Note_on_c, 13, 63, 76
18, 57119, Note_on_c, 13, 63, 0
18, 57120, Note_on_c, 13, 67, 76
18, 57224, Note_on_c, 13, 67, 0
18, 57240, Note_on_c, 13, 70, 76
18, 57419, Note_on_c, 13, 70, 0
18, 57480, Note_on_c, 13, 70, 76
18, 57659, Note_on_c, 13, 70, 0
18, 57720, Note_on_c, 13, 70, 84
18, 58064, Note_on_c, 13, 70, 0
18, 58080, Note_on_c, 13, 67, 76
18, 58184, Note_on_c, 13, 67, 0
18, 58200, Note_on_c, 13, 70, 76
18, 58259, Note_on_c, 13, 70, 0
18, 58260, Note_on_c, 13, 68, 76
18, 58311, Note_on_c, 13, 68, 0
18, 58320, Note_on_c, 13, 65, 76
18, 58409, Note_on_c, 13, 65, 0
18, 58440, Note_on_c, 13, 68, 76
18, 58499, Note_on_c, 13, 68, 0
18, 58500, Note_on_c, 13, 67, 76
18, 58551, Note_on_c, 13, 67, 0
18, 58560, Note_on_c, 13, 63, 76
18, 58649, Note_on_c, 13, 63, 0
18, 58680, Note_on_c, 13, 67, 76
18, 58919, Note_on_c, 13, 67, 0
18, 58920, Note_on_c, 13, 65, 76
18, 59039, Note_on_c, 13, 65, 0
18, 59640, Note_on_c, 13, 65, 76
18, 59640, Note_on_c, 13, 62, 76
18, 59729, Note_on_c, 13, 65, 0
18, 59729, Note_on_c, 13, 62, 0
18, 59760, Note_on_c, 13, 62, 76
18, 59760, Note_on_c, 13, 65, 76
18, 59849, Note_on_c, 13, 62, 0
18, 59849, Note_on_c, 13, 65, 0
18, 59880, Note_on_c, 13, 65, 76
18, 59880, Note_on_c, 13, 62, 76
18, 59969, Note_on_c, 13, 65, 0
18, 59969, Note_on_c, 13, 62, 0
18, 60600, Note_on_c, 13, 62, 52
18, 60959, Note_on_c, 13, 62, 0
18, 61200, Note_on_c, 13, 55, 52
18, 61319, Note_on_c, 13, 55, 0
18, 61320, Note_on_c, 13, 55, 52
18, 61439, Note_on_c, 13, 55, 0
18, 61440, Note_on_c, 13, 55, 52
18, 61559, Note_on_c, 13, 55, 0
18, 61680, Note_on_c, 13, 60, 52
18, 61680, Note_on_c, 13, 63, 52
18, 61799, Note_on_c, 13, 60, 0
18, 61799, Note_on_c, 13, 63, 0
18, 61800, Note_on_c, 13, 60, 52
18, 61800, Note_on_c, 13, 63, 52
18, 61919, Note_on_c, 13, 60, 0
18, 61919, Note_on_c, 13, 63, 0
18, 61920, Note_on_c, 13, 63, 52
18, 61920, Note_on_c, 13, 60, 52
18, 62039, Note_on_c, 13, 63, 0
18, 62039, Note_on_c, 13, 60, 0
18, 62160, Note_on_c, 13, 63, 52
18, 62279, Note_on_c, 13, 63, 0
18, 62400, Note_on_c, 13, 65, 52
18, 62459, Note_on_c, 13, 65, 0
18, 62460, Note_on_c, 13, 62, 52
18, 62511, Note_on_c, 13, 62, 0
18, 62520, Note_on_c, 13, 63, 76
18, 62564, Note_on_c, 13, 63, 0
18, 62580, Note_on_c, 13, 70, 76
18, 62624, Note_on_c, 13, 70, 0
18, 62640, Note_on_c, 13, 68, 76
18, 62684, Note_on_c, 13, 68, 0
18, 62700, Note_on_c, 13, 67, 76
18, 62744, Note_on_c, 13, 67, 0
18, 62760, Note_on_c, 13, 65, 76
18, 62804, Note_on_c, 13, 65, 0
18, 62820, Note_on_c, 13, 63, 76
18, 62864, Note_on_c, 13, 63, 0
18, 62880, Note_on_c, 13, 62, 76
18, 62924, Note_on_c, 13, 62, 0
18, 62940, Note_on_c, 13, 60, 76
18, 62984, Note_on_c, 13, 60, 0
18, 63000, Note_on_c, 13, 58, 76
18, 63051, Note_on_c, 13, 58, 0
18, 63060, Note_on_c, 13, 57, 76
18, 63111, Note_on_c, 13, 57, 0
18, 63120, Note_on_c, 13, 58, 76
18, 63171, Note_on_c, 13, 58, 0
18, 63180, Note_on_c, 13, 60, 76
18, 63231, Note_on_c, 13, 60, 0
18, 63240, Note_on_c, 13, 62, 76
18, 63291, Note_on_c, 13, 62, 0
18, 63300, Note_on_c, 13, 63, 76
18, 63351, Note_on_c, 13, 63, 0
18, 63360, Note_on_c, 13, 65, 76
18, 63411, Note_on_c, 13, 65, 0
18, 63420, Note_on_c, 13, 64, 76
18, 63471, Note_on_c, 13, 64, 0
18, 63480, Note_on_c, 13, 65, 76
18, 63531, Note_on_c, 13, 65, 0
18, 63540, Note_on_c, 13, 67, 76
18, 63591, Note_on_c, 13, 67, 0
18, 63600, Note_on_c, 13, 68, 76
18, 63651, Note_on_c, 13, 68, 0
18, 63660, Note_on_c, 13, 67, 76
18, 63711, Note_on_c, 13, 67, 0
18, 63720, Note_on_c, 13, 65, 76
18, 63771, Note_on_c, 13, 65, 0
18, 63780, Note_on_c, 13, 63, 76
18, 63831, Note_on_c, 13, 63, 0
18, 63840, Note_on_c, 13, 62, 76
18, 63891, Note_on_c, 13, 62, 0
18, 63900, Note_on_c, 13, 60, 76
18, 63951, Note_on_c, 13, 60, 0
18, 63960, Note_on_c, 13, 58, 76
18, 64011, Note_on_c, 13, 58, 0
18, 64020, Note_on_c, 13, 57, 76
18, 64071, Note_on_c, 13, 57, 0
18, 64080, Note_on_c, 13, 58, 76
18, 64131, Note_on_c, 13, 58, 0
18, 64140, Note_on_c, 13, 60, 76
18, 64191, Note_on_c, 13, 60, 0
18, 64200, Note_on_c, 13, 62, 76
18, 64251, Note_on_c, 13, 62, 0
18, 64260, Note_on_c, 13, 63, 76
18, 64311, Note_on_c, 13, 63, 0
18, 64320, Note_on_c, 13, 65, 76
18, 64371, Note_on_c, 13, 65, 0
18, 64380, Note_on_c, 13, 63, 76
18, 64431, Note_on_c, 13, 63, 0
18, 64440, Note_on_c, 13, 65, 76
18, 64440, Note_on_c, 13, 62, 76
18, 64799, Note_on_c, 13, 65, 0
18, 64799, Note_on_c, 13, 62, 0
18, 64920, Note_on_c, 13, 58, 76
18, 64920, Note_on_c, 13, 63, 76
18, 64971, Note_on_c, 13, 58, 0
18, 64971, Note_on_c, 13, 63, 0
18, 64980, Note_on_c, 13, 58, 76
18, 64980, Note_on_c, 13, 63, 76
18, 65031, Note_on_c, 13, 58, 0
18, 65031, Note_on_c, 13, 63, 0
18, 65040, Note_on_c, 13, 63, 76
18, 65040, Note_on_c, 13, 58, 76
18, 65091, Note_on_c, 13, 63, 0
18, 65091, Note_on_c, 13, 58, 0
18, 65100, Note_on_c, 13, 63, 76
18, 65100, Note_on_c, 13, 58, 76
18, 65151, Note_on_c, 13, 63, 0
18, 65151, Note_on_c, 13, 58, 0
18, 65160, Note_on_c, 13, 58, 76
18, 65160, Note_on_c, 13, 63, 76
18, 65211, Note_on_c, 13, 58, 0
18, 65211, Note_on_c, 13, 63, 0
18, 65220, Note_on_c, 13, 58, 76
18, 65220, Note_on_c, 13, 63, 76
18, 65271, Note_on_c, 13, 58, 0
18, 65271, Note_on_c, 13, 63, 0
18, 65280, Note_on_c, 13, 58, 76
18, 65280, Note_on_c, 13, 63, 76
18, 65331, Note_on_c, 13, 58, 0
18, 65331, Note_on_c, 13, 63, 0
18, 65340, Note_on_c, 13, 58, 76
18, 65340, Note_on_c, 13, 63, 76
18, 65391, Note_on_c, 13, 58, 0
18, 65391, Note_on_c, 13, 63, 0
18, 65400, Note_on_c, 13, 63, 76
18, 65400, Note_on_c, 13, 60, 76
18, 65451, Note_on_c, 13, 63, 0
18, 65451, Note_on_c, 13, 60, 0
18, 65460, Note_on_c, 13, 56, 76
18, 65460, Note_on_c, 13, 60, 76
18, 65511, Note_on_c, 13, 56, 0
18, 65511, Note_on_c, 13, 60, 0
18, 65520, Note_on_c, 13, 56, 76
18, 65520, Note_on_c, 13, 60, 76
18, 65571, Note_on_c, 13, 56, 0
18, 65571, Note_on_c, 13, 60, 0
18, 65580, Note_on_c, 13, 60, 76
18, 65580, Note_on_c, 13, 56, 76
18, 65631, Note_on_c, 13, 60, 0
18, 65631, Note_on_c, 13, 56, 0
18, 65640, Note_on_c, 13, 60, 76
18, 65640, Note_on_c, 13, 56, 76
18, 65691, Note_on_c, 13, 60, 0
18, 65691, Note_on_c, 13, 56, 0
18, 65700, Note_on_c, 13, 60, 76
18, 65700, Note_on_c, 13, 56, 76
18, 65751, Note_on_c, 13, 60, 0
18, 65751, Note_on_c, 13, 56, 0
18, 65760, Note_on_c, 13, 56, 76
18, 65760, Note_on_c, 13, 60, 76
18, 65811, Note_on_c, 13, 56, 0
18, 65811, Note_on_c, 13, 60, 0
18, 65820, Note_on_c, 13, 60, 76
18, 65820, Note_on_c, 13, 56, 76
18, 65871, Note_on_c, 13, 60, 0
18, 65871, Note_on_c, 13, 56, 0
18, 65880, Note_on_c, 13, 55, 76
18, 65880, Note_on_c, 13, 58, 76
18, 65931, Note_on_c, 13, 55, 0
18, 65931, Note_on_c, 13, 58, 0
18, 65940, Note_on_c, 13, 55, 76
18, 65940, Note_on_c, 13, 58, 76
18, 65991, Note_on_c, 13, 55, 0
18, 65991, Note_on_c, 13, 58, 0
18, 66000, Note_on_c, 13, 58, 76
18, 66000, Note_on_c, 13, 55, 76
18, 66051, Note_on_c, 13, 58, 0
18, 66051, Note_on_c, 13, 55, 0
18, 66060, Note_on_c, 13, 55, 76
18, 66060, Note_on_c, 13, 58, 76
18, 66111, Note_on_c, 13, 55, 0
18, 66111, Note_on_c, 13, 58, 0
18, 66120, Note_on_c, 13, 56, 76
18, 66120, Note_on_c, 13, 58, 76
18, 66171, Note_on_c, 13, 56, 0
18, 66171, Note_on_c, 13, 58, 0
18, 66180, Note_on_c, 13, 58, 76
18, 66180, Note_on_c, 13, 56, 76
18, 66231, Note_on_c, 13, 58, 0
18, 66231, Note_on_c, 13, 56, 0
18, 66240, Note_on_c, 13, 56, 76
18, 66240, Note_on_c, 13, 58, 76
18, 66291, Note_on_c, 13, 56, 0
18, 66291, Note_on_c, 13, 58, 0
18, 66300, Note_on_c, 13, 56, 76
18, 66300, Note_on_c, 13, 58, 76
18, 66351, Note_on_c, 13, 56, 0
18, 66351, Note_on_c, 13, 58, 0
18, 66360, Note_on_c, 13, 55, 76
18, 66360, Note_on_c, 13, 58, 76
18, 66479, Note_on_c, 13, 55, 0
18, 66479, Note_on_c, 13, 58, 0
18, 66840, Note_on_c, 13, 61, 76
18, 66899, Note_on_c, 13, 61, 0
18, 66900, Note_on_c, 13, 61, 52
18, 67199, Note_on_c, 13, 61, 0
18, 67200, Note_on_c, 13, 58, 52
18, 67304, Note_on_c, 13, 58, 0
18, 67320, Note_on_c, 13, 60, 52
18, 67784, Note_on_c, 13, 60, 0
18, 67800, Note_on_c, 13, 67, 68
18, 68159, Note_on_c, 13, 67, 0
18, 68160, Note_on_c, 13, 61, 52
18, 68264, Note_on_c, 13, 61, 0
18, 68280, Note_on_c, 13, 63, 52
18, 68331, Note_on_c, 13, 63, 0
18, 68340, Note_on_c, 13, 63, 53
18, 68391, Note_on_c, 13, 63, 0
18, 68400, Note_on_c, 13, 63, 55
18, 68451, Note_on_c, 13, 63, 0
18, 68460, Note_on_c, 13, 63, 56
18, 68511, Note_on_c, 13, 63, 0
18, 68520, Note_on_c, 13, 68, 58
18, 68571, Note_on_c, 13, 68, 0
18, 68580, Note_on_c, 13, 68, 59
18, 68631, Note_on_c, 13, 68, 0
18, 68640, Note_on_c, 13, 68, 61
18, 68691, Note_on_c, 13, 68, 0
18, 68700, Note_on_c, 13, 68, 62
18, 68751, Note_on_c, 13, 68, 0
18, 68760, Note_on_c, 13, 67, 64
18, 68811, Note_on_c, 13, 67, 0
18, 68820, Note_on_c, 13, 67, 65
18, 68871, Note_on_c, 13, 67, 0
18, 68880, Note_on_c, 13, 63, 67
18, 68931, Note_on_c, 13, 63, 0
18, 68940, Note_on_c, 13, 63, 68
18, 68991, Note_on_c, 13, 63, 0
18, 69000, Note_on_c, 13, 63, 70
18, 69051, Note_on_c, 13, 63, 0
18, 69060, Note_on_c, 13, 63, 71
18, 69111, Note_on_c, 13, 63, 0
18, 69120, Note_on_c, 13, 63, 73
18, 69171, Note_on_c, 13, 63, 0
18, 69180, Note_on_c, 13, 63, 74
18, 69231, Note_on_c, 13, 63, 0
18, 69240, Note_on_c, 13, 62, 76
18, 69291, Note_on_c, 13, 62, 0
18, 69300, Note_on_c, 13, 62, 76
18, 69351, Note_on_c, 13, 62, 0
18, 69360, Note_on_c, 13, 62, 76
18, 69411, Note_on_c, 13, 62, 0
18, 69420, Note_on_c, 13, 62, 76
18, 69471, Note_on_c, 13, 62, 0
18, 69480, Note_on_c, 13, 63, 76
18, 69531, Note_on_c, 13, 63, 0
18, 69540, Note_on_c, 13, 63, 76
18, 69591, Note_on_c, 13, 63, 0
18, 69600, Note_on_c, 13, 63, 76
18, 69651, Note_on_c, 13, 63, 0
18, 69660, Note_on_c, 13, 63, 76
18, 69711, Note_on_c, 13, 63, 0
18, 69720, Note_on_c, 13, 62, 76
18, 69771, Note_on_c, 13, 62, 0
18, 69780, Note_on_c, 13, 62, 76
18, 69831, Note_on_c, 13, 62, 0
18, 69840, Note_on_c, 13, 62, 76
18, 69891, Note_on_c, 13, 62, 0
18, 69900, Note_on_c, 13, 62, 76
18, 69951, Note_on_c, 13, 62, 0
18, 69960, Note_on_c, 13, 63, 76
18, 70011, Note_on_c, 13, 63, 0
18, 70020, Note_on_c, 13, 63, 76
18, 70071, Note_on_c, 13, 63, 0
18, 70080, Note_on_c, 13, 63, 76
18, 70131, Note_on_c, 13, 63, 0
18, 70140, Note_on_c, 13, 63, 76
18, 70191, Note_on_c, 13, 63, 0
18, 70200, Note_on_c, 13, 62, 84
18, 70379, Note_on_c, 13, 62, 0
18, 70440, Note_on_c, 13, 55, 84
18, 70440, Note_on_c, 13, 67, 84
18, 70619, Note_on_c, 13, 55, 0
18, 70619, Note_on_c, 13, 67, 0
18, 70680, Note_on_c, 13, 67, 84
18, 70680, Note_on_c, 13, 55, 84
18, 70859, Note_on_c, 13, 67, 0
18, 70859, Note_on_c, 13, 55, 0
18, 77880, Note_on_c, 13, 60, 52
18, 78344, Note_on_c, 13, 60, 0
18, 78360, Note_on_c, 13, 67, 52
18, 78824, Note_on_c, 13, 67, 0
18, 78840, Note_on_c, 13, 55, 52
18, 79304, Note_on_c, 13, 55, 0
18, 79320, Note_on_c, 13, 60, 52
18, 79664, Note_on_c, 13, 60, 0
18, 79680, Note_on_c, 13, 63, 52
18, 79769, Note_on_c, 13, 63, 0
18, 79800, Note_on_c, 13, 62, 52
18, 79889, Note_on_c, 13, 62, 0
18, 79920, Note_on_c, 13, 60, 52
18, 80009, Note_on_c, 13, 60, 0
18, 80040, Note_on_c, 13, 59, 52
18, 80129, Note_on_c, 13, 59, 0
18, 80160, Note_on_c, 13, 62, 52
18, 80249, Note_on_c, 13, 62, 0
18, 80280, Note_on_c, 13, 60, 52
18, 80624, Note_on_c, 13, 60, 0
18, 80640, Note_on_c, 13, 67, 52
18, 80729, Note_on_c, 13, 67, 0
18, 80760, Note_on_c, 13, 65, 52
18, 80849, Note_on_c, 13, 65, 0
18, 80880, Note_on_c, 13, 63, 52
18, 80969, Note_on_c, 13, 63, 0
18, 81000, Note_on_c, 13, 62, 52
18, 81089, Note_on_c, 13, 62, 0
18, 81120, Note_on_c, 13, 65, 52
18, 81344, Note_on_c, 13, 65, 0
18, 81360, Note_on_c, 13, 64, 52
18, 81411, Note_on_c, 13, 64, 0
18, 81420, Note_on_c, 13, 62, 52
18, 81471, Note_on_c, 13, 62, 0
18, 81480, Note_on_c, 13, 64, 52
18, 81531, Note_on_c, 13, 64, 0
18, 81540, Note_on_c, 13, 65, 52
18, 81591, Note_on_c, 13, 65, 0
18, 81600, Note_on_c, 13, 67, 52
18, 81651, Note_on_c, 13, 67, 0
18, 81660, Note_on_c, 13, 68, 52
18, 81711, Note_on_c, 13, 68, 0
18, 81720, Note_on_c, 13, 70, 52
18, 81809, Note_on_c, 13, 70, 0
18, 81840, Note_on_c, 13, 70, 52
18, 81929, Note_on_c, 13, 70, 0
18, 81960, Note_on_c, 13, 70, 52
18, 82049, Note_on_c, 13, 70, 0
18, 82080, Note_on_c, 13, 70, 52
18, 82169, Note_on_c, 13, 70, 0
18, 82200, Note_on_c, 13, 68, 52
18, 82319, Note_on_c, 13, 68, 0
18, 82320, Note_on_c, 13, 72, 52
18, 82424, Note_on_c, 13, 72, 0
18, 82440, Note_on_c, 13, 65, 52
18, 82529, Note_on_c, 13, 65, 0
18, 82800, Note_on_c, 13, 67, 52
18, 82889, Note_on_c, 13, 67, 0
18, 82920, Note_on_c, 13, 60, 52
18, 83009, Note_on_c, 13, 60, 0
18, 83040, Note_on_c, 13, 70, 52
18, 83129, Note_on_c, 13, 70, 0
18, 83160, Note_on_c, 13, 68, 52
18, 83279, Note_on_c, 13, 68, 0
18, 83280, Note_on_c, 13, 72, 52
18, 83384, Note_on_c, 13, 72, 0
18, 83400, Note_on_c, 13, 65, 52
18, 83489, Note_on_c, 13, 65, 0
18, 83520, Note_on_c, 13, 68, 52
18, 83609, Note_on_c, 13, 68, 0
18, 83640, Note_on_c, 13, 67, 52
18, 83729, Note_on_c, 13, 67, 0
18, 83760, Note_on_c, 13, 65, 54
18, 83849, Note_on_c, 13, 65, 0
18, 83880, Note_on_c, 13, 64, 56
18, 83969, Note_on_c, 13, 64, 0
18, 84000, Note_on_c, 13, 67, 58
18, 84089, Note_on_c, 13, 67, 0
18, 84120, Note_on_c, 13, 65, 60
18, 84209, Note_on_c, 13, 65, 0
18, 84240, Note_on_c, 13, 63, 62
18, 84329, Note_on_c, 13, 63, 0
18, 84360, Note_on_c, 13, 62, 64
18, 84449, Note_on_c, 13, 62, 0
18, 84480, Note_on_c, 13, 65, 66
18, 84569, Note_on_c, 13, 65, 0
18, 84600, Note_on_c, 13, 63, 68
18, 84689, Note_on_c, 13, 63, 0
18, 84720, Note_on_c, 13, 62, 70
18, 84809, Note_on_c, 13, 62, 0
18, 84840, Note_on_c, 13, 60, 72
18, 84929, Note_on_c, 13, 60, 0
18, 84960, Note_on_c, 13, 63, 74
18, 85049, Note_on_c, 13, 63, 0
18, 85080, Note_on_c, 13, 62, 76
18, 85169, Note_on_c, 13, 62, 0
18, 85200, Note_on_c, 13, 60, 76
18, 85289, Note_on_c, 13, 60, 0
18, 85320, Note_on_c, 13, 59, 76
18, 85409, Note_on_c, 13, 59, 0
18, 85440, Note_on_c, 13, 62, 76
18, 85664, Note_on_c, 13, 62, 0
18, 85680, Note_on_c, 13, 60, 76
18, 85731, Note_on_c, 13, 60, 0
18, 85740, Note_on_c, 13, 59, 76
18, 85791, Note_on_c, 13, 59, 0
18, 85800, Note_on_c, 13, 60, 76
18, 85851, Note_on_c, 13, 60, 0
18, 85860, Note_on_c, 13, 62, 76
18, 85911, Note_on_c, 13, 62, 0
18, 85920, Note_on_c, 13, 64, 76
18, 85971, Note_on_c, 13, 64, 0
18, 85980, Note_on_c, 13, 65, 76
18, 86031, Note_on_c, 13, 65, 0
18, 86040, Note_on_c, 13, 67, 76
18, 86091, Note_on_c, 13, 67, 0
18, 86100, Note_on_c, 13, 68, 76
18, 86151, Note_on_c, 13, 68, 0
18, 86160, Note_on_c, 13, 67, 76
18, 86211, Note_on_c, 13, 67, 0
18, 86220, Note_on_c, 13, 65, 76
18, 86271, Note_on_c, 13, 65, 0
18, 86280, Note_on_c, 13, 64, 76
18, 86331, Note_on_c, 13, 64, 0
18, 86340, Note_on_c, 13, 65, 76
18, 86391, Note_on_c, 13, 65, 0
18, 86400, Note_on_c, 13, 67, 76
18, 86451, Note_on_c, 13, 67, 0
18, 86460, Note_on_c, 13, 64, 76
18, 86511, Note_on_c, 13, 64, 0
18, 86520, Note_on_c, 13, 60, 76
18, 86624, Note_on_c, 13, 60, 0
18, 86640, Note_on_c, 13, 60, 76
18, 86759, Note_on_c, 13, 60, 0
18, 86760, Note_on_c, 13, 61, 84
18, 86999, Note_on_c, 13, 61, 0
18, 87000, Note_on_c, 13, 61, 76
18, 87119, Note_on_c, 13, 61, 0
18, 87120, Note_on_c, 13, 59, 76
18, 87239, Note_on_c, 13, 59, 0
18, 87240, Note_on_c, 13, 60, 76
18, 87344, Note_on_c, 13, 60, 0
18, 87360, Note_on_c, 13, 60, 76
18, 87449, Note_on_c, 13, 60, 0
18, 87480, Note_on_c, 13, 60, 76
18, 87569, Note_on_c, 13, 60, 0
18, 87600, Note_on_c, 13, 60, 76
18, 87719, Note_on_c, 13, 60, 0
18, 87720, Note_on_c, 13, 61, 84
18, 87959, Note_on_c, 13, 61, 0
18, 87960, Note_on_c, 13, 61, 76
18, 88079, Note_on_c, 13, 61, 0
18, 88080, Note_on_c, 13, 59, 76
18, 88199, Note_on_c, 13, 59, 0
18, 88200, Note_on_c, 13, 60, 76
18, 88304, Note_on_c, 13, 60, 0
18, 88320, Note_on_c, 13, 60, 76
18, 88409, Note_on_c, 13, 60, 0
18, 88440, Note_on_c, 13, 60, 76
18, 88559, Note_on_c, 13, 60, 0
18, 88920, Note_on_c, 13, 65, 84
18, 89369, Note_on_c, 13, 65, 0
18, 89400, Note_on_c, 13, 70, 76
18, 89489, Note_on_c, 13, 70, 0
18, 89520, Note_on_c, 13, 68, 76
18, 89609, Note_on_c, 13, 68, 0
18, 89640, Note_on_c, 13, 67, 76
18, 89729, Note_on_c, 13, 67, 0
18, 89760, Note_on_c, 13, 70, 76
18, 89849, Note_on_c, 13, 70, 0
18, 89880, Note_on_c, 13, 68, 76
18, 89969, Note_on_c, 13, 68, 0
18, 90000, Note_on_c, 13, 67, 76
18, 90089, Note_on_c, 13, 67, 0
18, 90120, Note_on_c, 13, 65, 76
18, 90209, Note_on_c, 13, 65, 0
18, 90240, Note_on_c, 13, 68, 76
18, 90329, Note_on_c, 13, 68, 0
18, 90360, Note_on_c, 13, 67, 76
18, 90464, Note_on_c, 13, 67, 0
18, 90480, Note_on_c, 13, 63, 76
18, 90531, Note_on_c, 13, 63, 0
18, 90540, Note_on_c, 13, 62, 76
18, 90591, Note_on_c, 13, 62, 0
18, 90600, Note_on_c, 13, 63, 76
18, 90651, Note_on_c, 13, 63, 0
18, 90660, Note_on_c, 13, 65, 76
18, 90711, Note_on_c, 13, 65, 0
18, 90720, Note_on_c, 13, 67, 76
18, 90771, Note_on_c, 13, 67, 0
18, 90780, Note_on_c, 13, 68, 76
18, 90831, Note_on_c, 13, 68, 0
18, 90840, Note_on_c, 13, 70, 76
18, 90944, Note_on_c, 13, 70, 0
18, 90960, Note_on_c, 13, 68, 76
18, 91064, Note_on_c, 13, 68, 0
18, 91080, Note_on_c, 13, 67, 76
18, 91184, Note_on_c, 13, 67, 0
18, 91200, Note_on_c, 13, 67, 76
18, 91304, Note_on_c, 13, 67, 0
18, 91320, Note_on_c, 13, 63, 76
18, 91544, Note_on_c, 13, 63, 0
18, 91560, Note_on_c, 13, 63, 76
18, 91904, Note_on_c, 13, 63, 0
18, 91920, Note_on_c, 13, 63, 76
18, 91971, Note_on_c, 13, 63, 0
18, 91980, Note_on_c, 13, 62, 76
18, 92031, Note_on_c, 13, 62, 0
18, 92040, Note_on_c, 13, 63, 76
18, 92091, Note_on_c, 13, 63, 0
18, 92100, Note_on_c, 13, 66, 76
18, 92151, Note_on_c, 13, 66, 0
18, 92160, Note_on_c, 13, 65, 76
18, 92211, Note_on_c, 13, 65, 0
18, 92220, Note_on_c, 13, 63, 76
18, 92271, Note_on_c, 13, 63, 0
18, 92280, Note_on_c, 13, 61, 76
18, 92519, Note_on_c, 13, 61, 0
18, 92520, Note_on_c, 13, 65, 76
18, 92811, Note_on_c, 13, 65, 0
18, 92820, Note_on_c, 13, 60, 76
18, 92871, Note_on_c, 13, 60, 0
18, 92880, Note_on_c, 13, 62, 76
18, 92931, Note_on_c, 13, 62, 0
18, 92940, Note_on_c, 13, 64, 76
18, 92991, Note_on_c, 13, 64, 0
18, 93000, Note_on_c, 13, 65, 76
18, 93051, Note_on_c, 13, 65, 0
18, 93060, Note_on_c, 13, 67, 76
18, 93111, Note_on_c, 13, 67, 0
18, 93120, Note_on_c, 13, 65, 76
18, 93171, Note_on_c, 13, 65, 0
18, 93180, Note_on_c, 13, 63, 76
18, 93231, Note_on_c, 13, 63, 0
18, 93240, Note_on_c, 13, 62, 76
18, 93329, Note_on_c, 13, 62, 0
18, 93360, Note_on_c, 13, 60, 76
18, 93449, Note_on_c, 13, 60, 0
18, 93480, Note_on_c, 13, 59, 76
18, 93569, Note_on_c, 13, 59, 0
18, 93600, Note_on_c, 13, 62, 76
18, 93689, Note_on_c, 13, 62, 0
18, 93720, Note_on_c, 13, 60, 76
18, 93959, Note_on_c, 13, 60, 0
18, 94200, Note_on_c, 13, 62, 76
18, 94664, Note_on_c, 13, 62, 0
18, 94680, Note_on_c, 13, 67, 76
18, 94859, Note_on_c, 13, 67, 0
18, 94920, Note_on_c, 13, 55, 76
18, 95099, Note_on_c, 13, 55, 0
18, 95160, Note_on_c, 13, 51, 80
18, 95339, Note_on_c, 13, 51, 0
18, 95400, Note_on_c, 13, 63, 80
18, 95579, Note_on_c, 13, 63, 0
18, 95640, Note_on_c, 13, 64, 80
18, 95819, Note_on_c, 13, 64, 0
18, 95880, Note_on_c, 13, 52, 80
18, 96059, Note_on_c, 13, 52, 0
18, 96120, Note_on_c, 13, 50, 80
18, 96299, Note_on_c, 13, 50, 0
18, 96360, Note_on_c, 13, 62, 80
18, 96704, Note_on_c, 13, 62, 0
18, 96720, Note_on_c, 13, 62, 80
18, 96824, Note_on_c, 13, 62, 0
18, 96840, Note_on_c, 13, 74, 80
18, 96944, Note_on_c, 13, 74, 0
18, 96960, Note_on_c, 13, 62, 80
18, 97064, Note_on_c, 13, 62, 0
18, 97080, Note_on_c, 13, 74, 84
18, 97131, Note_on_c, 13, 74, 0
18, 97140, Note_on_c, 13, 62, 84
18, 97191, Note_on_c, 13, 62, 0
18, 97200, Note_on_c, 13, 62, 84
18, 97251, Note_on_c, 13, 62, 0
18, 97260, Note_on_c, 13, 62, 84
18, 97311, Note_on_c, 13, 62, 0
18, 97320, Note_on_c, 13, 62, 84
18, 97371, Note_on_c, 13, 62, 0
18, 97380, Note_on_c, 13, 62, 84
18, 97431, Note_on_c, 13, 62, 0
18, 97440, Note_on_c, 13, 62, 84
18, 97491, Note_on_c, 13, 62, 0
18, 97500, Note_on_c, 13, 62, 84
18, 97551, Note_on_c, 13, 62, 0
18, 97560, Note_on_c, 13, 62, 84
18, 97611, Note_on_c, 13, 62, 0
18, 97620, Note_on_c, 13, 62, 84
18, 97671, Note_on_c, 13, 62, 0
18, 97680, Note_on_c, 13, 62, 84
18, 97731, Note_on_c, 13, 62, 0
18, 97740, Note_on_c, 13, 62, 84
18, 97791, Note_on_c, 13, 62, 0
18, 97800, Note_on_c, 13, 62, 84
18, 97851, Note_on_c, 13, 62, 0
18, 97860, Note_on_c, 13, 62, 84
18, 97911, Note_on_c, 13, 62, 0
18, 97920, Note_on_c, 13, 62, 84
18, 97971, Note_on_c, 13, 62, 0
18, 97980, Note_on_c, 13, 62, 84
18, 98031, Note_on_c, 13, 62, 0
18, 98040, Note_on_c, 13, 62, 84
18, 98091, Note_on_c, 13, 62, 0
18, 98100, Note_on_c, 13, 62, 84
18, 98151, Note_on_c, 13, 62, 0
18, 98160, Note_on_c, 13, 62, 84
18, 98211, Note_on_c, 13, 62, 0
18, 98220, Note_on_c, 13, 62, 84
18, 98271, Note_on_c, 13, 62, 0
18, 98280, Note_on_c, 13, 62, 84
18, 98331, Note_on_c, 13, 62, 0
18, 98340, Note_on_c, 13, 62, 84
18, 98391, Note_on_c, 13, 62, 0
18, 98400, Note_on_c, 13, 62, 84
18, 98451, Note_on_c, 13, 62, 0
18, 98460, Note_on_c, 13, 62, 84
18, 98511, Note_on_c, 13, 62, 0
18, 98520, Note_on_c, 13, 62, 84
18, 98571, Note_on_c, 13, 62, 0
18, 98580, Note_on_c, 13, 62, 84
18, 98631, Note_on_c, 13, 62, 0
18, 98640, Note_on_c, 13, 62, 84
18, 98691, Note_on_c, 13, 62, 0
18, 98700, Note_on_c, 13, 62, 84
18, 98751, Note_on_c, 13, 62, 0
18, 98760, Note_on_c, 13, 62, 84
18, 98811, Note_on_c, 13, 62, 0
18, 98820, Note_on_c, 13, 62, 84
18, 98871, Note_on_c, 13, 62, 0
18, 98880, Note_on_c, 13, 62, 84
18, 98931, Note_on_c, 13, 62, 0
18, 98940, Note_on_c, 13, 62, 84
18, 98991, Note_on_c, 13, 62, 0
18, 99000, Note_on_c, 13, 62, 52
18, 99104, Note_on_c, 13, 62, 0
18, 99120, Note_on_c, 13, 59, 52
18, 99224, Note_on_c, 13, 59, 0
18, 99240, Note_on_c, 13, 59, 52
18, 99344, Note_on_c, 13, 59, 0
18, 99360, Note_on_c, 13, 59, 52
18, 99479, Note_on_c, 13, 59, 0
18, 99600, Note_on_c, 13, 58, 52
18, 99704, Note_on_c, 13, 58, 0
18, 99720, Note_on_c, 13, 58, 52
18, 99824, Note_on_c, 13, 58, 0
18, 99840, Note_on_c, 13, 58, 52
18, 99959, Note_on_c, 13, 58, 0
18, 100080, Note_on_c, 13, 58, 52
18, 100184, Note_on_c, 13, 58, 0
18, 100200, Note_on_c, 13, 58, 52
18, 100304, Note_on_c, 13, 58, 0
18, 100320, Note_on_c, 13, 58, 52
18, 100439, Note_on_c, 13, 58, 0
18, 100560, Note_on_c, 13, 59, 52
18, 100664, Note_on_c, 13, 59, 0
18, 100680, Note_on_c, 13, 59, 52
18, 100784, Note_on_c, 13, 59, 0
18, 100800, Note_on_c, 13, 59, 52
18, 100919, Note_on_c, 13, 59, 0
18, 101040, Note_on_c, 13, 61, 56
18, 101159, Note_on_c, 13, 61, 0
18, 101280, Note_on_c, 13, 61, 64
18, 101399, Note_on_c, 13, 61, 0
18, 101520, Note_on_c, 13, 62, 76
18, 101624, Note_on_c, 13, 62, 0
18, 101640, Note_on_c, 13, 62, 68
18, 101744, Note_on_c, 13, 62, 0
18, 101760, Note_on_c, 13, 62, 60
18, 101879, Note_on_c, 13, 62, 0
18, 102000, Note_on_c, 13, 64, 52
18, 102104, Note_on_c, 13, 64, 0
18, 102120, Note_on_c, 13, 57, 52
18, 102224, Note_on_c, 13, 57, 0
18, 102240, Note_on_c, 13, 62, 52
18, 102359, Note_on_c, 13, 62, 0
18, 102480, Note_on_c, 13, 62, 52
18, 102599, Note_on_c, 13, 62, 0
18, 102600, Note_on_c, 13, 61, 52
18, 102719, Note_on_c, 13, 61, 0
18, 106680, Note_on_c, 13, 58, 52
18, 106799, Note_on_c, 13, 58, 0
18, 106800, Note_on_c, 13, 57, 52
18, 106919, Note_on_c, 13, 57, 0
18, 107160, Note_on_c, 13, 59, 52
18, 107279, Note_on_c, 13, 59, 0
18, 107280, Note_on_c, 13, 57, 52
18, 107399, Note_on_c, 13, 57, 0
18, 107640, Note_on_c, 13, 58, 52
18, 107759, Note_on_c, 13, 58, 0
18, 107760, Note_on_c, 13, 57, 52
18, 107879, Note_on_c, 13, 57, 0
18, 108120, Note_on_c, 13, 57, 52
18, 108239, Note_on_c, 13, 57, 0
18, 108240, Note_on_c, 13, 55, 52
18, 108359, Note_on_c, 13, 55, 0
18, 108600, Note_on_c, 13, 55, 52
18, 108719, Note_on_c, 13, 55, 0
18, 108720, Note_on_c, 13, 54, 52
18, 108839, Note_on_c, 13, 54, 0
18, 109080, Note_on_c, 13, 57, 52
18, 109199, Note_on_c, 13, 57, 0
18, 109200, Note_on_c, 13, 55, 52
18, 109319, Note_on_c, 13, 55, 0
18, 109560, Note_on_c, 13, 56, 52
18, 109679, Note_on_c, 13, 56, 0
18, 109680, Note_on_c, 13, 57, 52
18, 109784, Note_on_c, 13, 57, 0
18, 109800, Note_on_c, 13, 56, 52
18, 109919, Note_on_c, 13, 56, 0
18, 109920, Note_on_c, 13, 57, 52
18, 110024, Note_on_c, 13, 57, 0
18, 110040, Note_on_c, 13, 50, 52
18, 110107, Note_on_c, 13, 50, 0
18, 110120, Note_on_c, 13, 69, 52
18, 110187, Note_on_c, 13, 69, 0
18, 110200, Note_on_c, 13, 67, 52
18, 110267, Note_on_c, 13, 67, 0
18, 110280, Note_on_c, 13, 66, 52
18, 110347, Note_on_c, 13, 66, 0
18, 110360, Note_on_c, 13, 64, 52
18, 110427, Note_on_c, 13, 64, 0
18, 110440, Note_on_c, 13, 62, 52
18, 110507, Note_on_c, 13, 62, 0
18, 110520, Note_on_c, 13, 58, 76
18, 110599, Note_on_c, 13, 58, 0
18, 110600, Note_on_c, 13, 57, 52
18, 110667, Note_on_c, 13, 57, 0
18, 110680, Note_on_c, 13, 57, 52
18, 110739, Note_on_c, 13, 57, 0
18, 110760, Note_on_c, 13, 67, 76
18, 110827, Note_on_c, 13, 67, 0
18, 110840, Note_on_c, 13, 67, 52
18, 110907, Note_on_c, 13, 67, 0
18, 110920, Note_on_c, 13, 67, 52
18, 110987, Note_on_c, 13, 67, 0
18, 111000, Note_on_c, 13, 59, 52
18, 111079, Note_on_c, 13, 59, 0
18, 111080, Note_on_c, 13, 57, 52
18, 111147, Note_on_c, 13, 57, 0
18, 111160, Note_on_c, 13, 57, 52
18, 111219, Note_on_c, 13, 57, 0
18, 111240, Note_on_c, 13, 73, 76
18, 111307, Note_on_c, 13, 73, 0
18, 111320, Note_on_c, 13, 73, 52
18, 111387, Note_on_c, 13, 73, 0
18, 111400, Note_on_c, 13, 73, 52
18, 111467, Note_on_c, 13, 73, 0
18, 111480, Note_on_c, 13, 58, 52
18, 111559, Note_on_c, 13, 58, 0
18, 111560, Note_on_c, 13, 57, 52
18, 111627, Note_on_c, 13, 57, 0
18, 111640, Note_on_c, 13, 57, 52
18, 111699, Note_on_c, 13, 57, 0
18, 111720, Note_on_c, 13, 76, 76
18, 111787, Note_on_c, 13, 76, 0
18, 111800, Note_on_c, 13, 76, 52
18, 111867, Note_on_c, 13, 76, 0
18, 111880, Note_on_c, 13, 76, 52
18, 111947, Note_on_c, 13, 76, 0
18, 111960, Note_on_c, 13, 59, 52
18, 112039, Note_on_c, 13, 59, 0
18, 112040, Note_on_c, 13, 57, 52
18, 112107, Note_on_c, 13, 57, 0
18, 112120, Note_on_c, 13, 57, 52
18, 112179, Note_on_c, 13, 57, 0
18, 112200, Note_on_c, 13, 57, 52
18, 112279, Note_on_c, 13, 57, 0
18, 112280, Note_on_c, 13, 55, 52
18, 112347, Note_on_c, 13, 55, 0
18, 112360, Note_on_c, 13, 55, 52
18, 112419, Note_on_c, 13, 55, 0
18, 112440, Note_on_c, 13, 55, 52
18, 112519, Note_on_c, 13, 55, 0
18, 112520, Note_on_c, 13, 54, 52
18, 112587, Note_on_c, 13, 54, 0
18, 112600, Note_on_c, 13, 54, 52
18, 112659, Note_on_c, 13, 54, 0
18, 112680, Note_on_c, 13, 66, 52
18, 112747, Note_on_c, 13, 66, 0
18, 112760, Note_on_c, 13, 66, 52
18, 112827, Note_on_c, 13, 66, 0
18, 112840, Note_on_c, 13, 66, 52
18, 112907, Note_on_c, 13, 66, 0
18, 112920, Note_on_c, 13, 57, 76
18, 112999, Note_on_c, 13, 57, 0
18, 113000, Note_on_c, 13, 55, 52
18, 113067, Note_on_c, 13, 55, 0
18, 113080, Note_on_c, 13, 55, 52
18, 113139, Note_on_c, 13, 55, 0
18, 113160, Note_on_c, 13, 67, 52
18, 113227, Note_on_c, 13, 67, 0
18, 113240, Note_on_c, 13, 67, 52
18, 113307, Note_on_c, 13, 67, 0
18, 113320, Note_on_c, 13, 67, 52
18, 113387, Note_on_c, 13, 67, 0
18, 113400, Note_on_c, 13, 57, 52
18, 113467, Note_on_c, 13, 57, 0
18, 113480, Note_on_c, 13, 69, 52
18, 113547, Note_on_c, 13, 69, 0
18, 113560, Note_on_c, 13, 69, 52
18, 113627, Note_on_c, 13, 69, 0
18, 113640, Note_on_c, 13, 69, 52
18, 113707, Note_on_c, 13, 69, 0
18, 113720, Note_on_c, 13, 69, 52
18, 113787, Note_on_c, 13, 69, 0
18, 113800, Note_on_c, 13, 69, 52
18, 113867, Note_on_c, 13, 69, 0
18, 113880, Note_on_c, 13, 62, 52
18, 114119, Note_on_c, 13, 62, 0
18, 114360, Note_on_c, 13, 60, 84
18, 114427, Note_on_c, 13, 60, 0
18, 114440, Note_on_c, 13, 72, 84
18, 114507, Note_on_c, 13, 72, 0
18, 114520, Note_on_c, 13, 72, 84
18, 114587, Note_on_c, 13, 72, 0
18, 114600, Note_on_c, 13, 72, 84
18, 114667, Note_on_c, 13, 72, 0
18, 114680, Note_on_c, 13, 72, 84
18, 114747, Note_on_c, 13, 72, 0
18, 114760, Note_on_c, 13, 72, 84
18, 114827, Note_on_c, 13, 72, 0
18, 114840, Note_on_c, 13, 71, 84
18, 114907, Note_on_c, 13, 71, 0
18, 114920, Note_on_c, 13, 62, 84
18, 114987, Note_on_c, 13, 62, 0
18, 115000, Note_on_c, 13, 62, 84
18, 115067, Note_on_c, 13, 62, 0
18, 115080, Note_on_c, 13, 65, 84
18, 115147, Note_on_c, 13, 65, 0
18, 115160, Note_on_c, 13, 65, 84
18, 115227, Note_on_c, 13, 65, 0
18, 115240, Note_on_c, 13, 65, 84
18, 115307, Note_on_c, 13, 65, 0
18, 115320, Note_on_c, 13, 66, 84
18, 115387, Note_on_c, 13, 66, 0
18, 115400, Note_on_c, 13, 66, 84
18, 115467, Note_on_c, 13, 66, 0
18, 115480, Note_on_c, 13, 66, 84
18, 115547, Note_on_c, 13, 66, 0
18, 115560, Note_on_c, 13, 64, 84
18, 115560, Note_on_c, 13, 57, 84
18, 115627, Note_on_c, 13, 64, 0
18, 115627, Note_on_c, 13, 57, 0
18, 115640, Note_on_c, 13, 64, 84
18, 115640, Note_on_c, 13, 57, 84
18, 115707, Note_on_c, 13, 64, 0
18, 115707, Note_on_c, 13, 57, 0
18, 115720, Note_on_c, 13, 57, 84
18, 115720, Note_on_c, 13, 64, 84
18, 115787, Note_on_c, 13, 57, 0
18, 115787, Note_on_c, 13, 64, 0
18, 115800, Note_on_c, 13, 62, 84
18, 115919, Note_on_c, 13, 62, 0
18, 116280, Note_on_c, 13, 55, 76
18, 116331, Note_on_c, 13, 55, 0
18, 116340, Note_on_c, 13, 55, 76
18, 116391, Note_on_c, 13, 55, 0
18, 116400, Note_on_c, 13, 50, 76
18, 116451, Note_on_c, 13, 50, 0
18, 116460, Note_on_c, 13, 50, 76
18, 116511, Note_on_c, 13, 50, 0
18, 116520, Note_on_c, 13, 55, 76
18, 116571, Note_on_c, 13, 55, 0
18, 116580, Note_on_c, 13, 55, 76
18, 116631, Note_on_c, 13, 55, 0
18, 116640, Note_on_c, 13, 50, 76
18, 116691, Note_on_c, 13, 50, 0
18, 116700, Note_on_c, 13, 50, 76
18, 116751, Note_on_c, 13, 50, 0
18, 116760, Note_on_c, 13, 57, 76
18, 116811, Note_on_c, 13, 57, 0
18, 116820, Note_on_c, 13, 57, 76
18, 116871, Note_on_c, 13, 57, 0
18, 116880, Note_on_c, 13, 50, 76
18, 116931, Note_on_c, 13, 50, 0
18, 116940, Note_on_c, 13, 50, 76
18, 116991, Note_on_c, 13, 50, 0
18, 117000, Note_on_c, 13, 57, 76
18, 117051, Note_on_c, 13, 57, 0
18, 117060, Note_on_c, 13, 57, 76
18, 117111, Note_on_c, 13, 57, 0
18, 117120, Note_on_c, 13, 50, 76
18, 117171, Note_on_c, 13, 50, 0
18, 117180, Note_on_c, 13, 50, 76
18, 117231, Note_on_c, 13, 50, 0
18, 117240, Note_on_c, 13, 54, 76
18, 117291, Note_on_c, 13, 54, 0
18, 117300, Note_on_c, 13, 54, 76
18, 117351, Note_on_c, 13, 54, 0
18, 117360, Note_on_c, 13, 50, 76
18, 117411, Note_on_c, 13, 50, 0
18, 117420, Note_on_c, 13, 50, 76
18, 117471, Note_on_c, 13, 50, 0
18, 117480, Note_on_c, 13, 54, 76
18, 117531, Note_on_c, 13, 54, 0
18, 117540, Note_on_c, 13, 54, 76
18, 117591, Note_on_c, 13, 54, 0
18, 117600, Note_on_c, 13, 50, 76
18, 117651, Note_on_c, 13, 50, 0
18, 117660, Note_on_c, 13, 50, 76
18, 117711, Note_on_c, 13, 50, 0
18, 117720, Note_on_c, 13, 55, 76
18, 117771, Note_on_c, 13, 55, 0
18, 117780, Note_on_c, 13, 55, 76
18, 117831, Note_on_c, 13, 55, 0
18, 117840, Note_on_c, 13, 50, 76
18, 117891, Note_on_c, 13, 50, 0
18, 117900, Note_on_c, 13, 50, 76
18, 117951, Note_on_c, 13, 50, 0
18, 117960, Note_on_c, 13, 55, 76
18, 118011, Note_on_c, 13, 55, 0
18, 118020, Note_on_c, 13, 55, 76
18, 118071, Note_on_c, 13, 55, 0
18, 118080, Note_on_c, 13, 50, 76
18, 118131, Note_on_c, 13, 50, 0
18, 118140, Note_on_c, 13, 50, 76
18, 118191, Note_on_c, 13, 50, 0
18, 118200, Note_on_c, 13, 55, 76
18, 118251, Note_on_c, 13, 55, 0
18, 118260, Note_on_c, 13, 55, 76
18, 118311, Note_on_c, 13, 55, 0
18, 118320, Note_on_c, 13, 50, 76
18, 118371, Note_on_c, 13, 50, 0
18, 118380, Note_on_c, 13, 50, 76
18, 118431, Note_on_c, 13, 50, 0
18, 118440, Note_on_c, 13, 55, 76
18, 118491, Note_on_c, 13, 55, 0
18, 118500, Note_on_c, 13, 55, 76
18, 118551, Note_on_c, 13, 55, 0
18, 118560, Note_on_c, 13, 50, 76
18, 118611, Note_on_c, 13, 50, 0
18, 118620, Note_on_c, 13, 50, 76
18, 118671, Note_on_c, 13, 50, 0
18, 118680, Note_on_c, 13, 54, 76
18, 118731, Note_on_c, 13, 54, 0
18, 118740, Note_on_c, 13, 54, 76
18, 118791, Note_on_c, 13, 54, 0
18, 118800, Note_on_c, 13, 50, 76
18, 118851, Note_on_c, 13, 50, 0
18, 118860, Note_on_c, 13, 50, 76
18, 118911, Note_on_c, 13, 50, 0
18, 118920, Note_on_c, 13, 54, 76
18, 118971, Note_on_c, 13, 54, 0
18, 118980, Note_on_c, 13, 54, 76
18, 119031, Note_on_c, 13, 54, 0
18, 119040, Note_on_c, 13, 50, 76
18, 119091, Note_on_c, 13, 50, 0
18, 119100, Note_on_c, 13, 50, 76
18, 119151, Note_on_c, 13, 50, 0
18, 119160, Note_on_c, 13, 57, 76
18, 119211, Note_on_c, 13, 57, 0
18, 119220, Note_on_c, 13, 57, 76
18, 119271, Note_on_c, 13, 57, 0
18, 119280, Note_on_c, 13, 50, 76
18, 119331, Note_on_c, 13, 50, 0
18, 119340, Note_on_c, 13, 50, 76
18, 119391, Note_on_c, 13, 50, 0
18, 119400, Note_on_c, 13, 54, 76
18, 119451, Note_on_c, 13, 54, 0
18, 119460, Note_on_c, 13, 54, 76
18, 119511, Note_on_c, 13, 54, 0
18, 119520, Note_on_c, 13, 50, 76
18, 119571, Note_on_c, 13, 50, 0
18, 119580, Note_on_c, 13, 50, 76
18, 119631, Note_on_c, 13, 50, 0
18, 119640, Note_on_c, 13, 55, 76
18, 119759, Note_on_c, 13, 55, 0
18, 120120, Note_on_c, 13, 55, 76
18, 120171, Note_on_c, 13, 55, 0
18, 120180, Note_on_c, 13, 55, 76
18, 120231, Note_on_c, 13, 55, 0
18, 120240, Note_on_c, 13, 58, 76
18, 120291, Note_on_c, 13, 58, 0
18, 120300, Note_on_c, 13, 58, 76
18, 120351, Note_on_c, 13, 58, 0
18, 120360, Note_on_c, 13, 55, 76
18, 120411, Note_on_c, 13, 55, 0
18, 120420, Note_on_c, 13, 55, 76
18, 120471, Note_on_c, 13, 55, 0
18, 120480, Note_on_c, 13, 58, 76
18, 120531, Note_on_c, 13, 58, 0
18, 120540, Note_on_c, 13, 58, 76
18, 120591, Note_on_c, 13, 58, 0
18, 120600, Note_on_c, 13, 57, 76
18, 120651, Note_on_c, 13, 57, 0
18, 120660, Note_on_c, 13, 57, 76
18, 120711, Note_on_c, 13, 57, 0
18, 120720, Note_on_c, 13, 60, 76
18, 120771, Note_on_c, 13, 60, 0
18, 120780, Note_on_c, 13, 60, 76
18, 120831, Note_on_c, 13, 60, 0
18, 120840, Note_on_c, 13, 57, 76
18, 120891, Note_on_c, 13, 57, 0
18, 120900, Note_on_c, 13, 57, 76
18, 120951, Note_on_c, 13, 57, 0
18, 120960, Note_on_c, 13, 60, 76
18, 121011, Note_on_c, 13, 60, 0
18, 121020, Note_on_c, 13, 60, 76
18, 121071, Note_on_c, 13, 60, 0
18, 121080, Note_on_c, 13, 54, 76
18, 121131, Note_on_c, 13, 54, 0
18, 121140, Note_on_c, 13, 54, 76
18, 121191, Note_on_c, 13, 54, 0
18, 121200, Note_on_c, 13, 57, 76
18, 121251, Note_on_c, 13, 57, 0
18, 121260, Note_on_c, 13, 57, 76
18, 121311, Note_on_c, 13, 57, 0
18, 121320, Note_on_c, 13, 60, 76
18, 121371, Note_on_c, 13, 60, 0
18, 121380, Note_on_c, 13, 60, 76
18, 121431, Note_on_c, 13, 60, 0
18, 121440, Note_on_c, 13, 60, 76
18, 121491, Note_on_c, 13, 60, 0
18, 121500, Note_on_c, 13, 60, 76
18, 121551, Note_on_c, 13, 60, 0
18, 121560, Note_on_c, 13, 58, 76
18, 121611, Note_on_c, 13, 58, 0
18, 121620, Note_on_c, 13, 58, 76
18, 121671, Note_on_c, 13, 58, 0
18, 121680, Note_on_c, 13, 58, 76
18, 121731, Note_on_c, 13, 58, 0
18, 121740, Note_on_c, 13, 58, 76
18, 121791, Note_on_c, 13, 58, 0
18, 121800, Note_on_c, 13, 62, 76
18, 121851, Note_on_c, 13, 62, 0
18, 121860, Note_on_c, 13, 62, 76
18, 121911, Note_on_c, 13, 62, 0
18, 121920, Note_on_c, 13, 58, 76
18, 121971, Note_on_c, 13, 58, 0
18, 121980, Note_on_c, 13, 58, 76
18, 122031, Note_on_c, 13, 58, 0
18, 122040, Note_on_c, 13, 58, 76
18, 122091, Note_on_c, 13, 58, 0
18, 122100, Note_on_c, 13, 58, 76
18, 122151, Note_on_c, 13, 58, 0
18, 122160, Note_on_c, 13, 58, 76
18, 122211, Note_on_c, 13, 58, 0
18, 122220, Note_on_c, 13, 58, 76
18, 122271, Note_on_c, 13, 58, 0
18, 122280, Note_on_c, 13, 55, 76
18, 122331, Note_on_c, 13, 55, 0
18, 122340, Note_on_c, 13, 55, 76
18, 122391, Note_on_c, 13, 55, 0
18, 122400, Note_on_c, 13, 50, 76
18, 122451, Note_on_c, 13, 50, 0
18, 122460, Note_on_c, 13, 50, 76
18, 122511, Note_on_c, 13, 50, 0
18, 122520, Note_on_c, 13, 54, 76
18, 122571, Note_on_c, 13, 54, 0
18, 122580, Note_on_c, 13, 54, 76
18, 122631, Note_on_c, 13, 54, 0
18, 122640, Note_on_c, 13, 50, 76
18, 122691, Note_on_c, 13, 50, 0
18, 122700, Note_on_c, 13, 50, 76
18, 122751, Note_on_c, 13, 50, 0
18, 122760, Note_on_c, 13, 54, 76
18, 122811, Note_on_c, 13, 54, 0
18, 122820, Note_on_c, 13, 54, 76
18, 122871, Note_on_c, 13, 54, 0
18, 122880, Note_on_c, 13, 50, 76
18, 122931, Note_on_c, 13, 50, 0
18, 122940, Note_on_c, 13, 50, 76
18, 122991, Note_on_c, 13, 50, 0
18, 123000, Note_on_c, 13, 57, 76
18, 123051, Note_on_c, 13, 57, 0
18, 123060, Note_on_c, 13, 57, 76
18, 123111, Note_on_c, 13, 57, 0
18, 123120, Note_on_c, 13, 60, 76
18, 123171, Note_on_c, 13, 60, 0
18, 123180, Note_on_c, 13, 60, 76
18, 123231, Note_on_c, 13, 60, 0
18, 123240, Note_on_c, 13, 60, 76
18, 123291, Note_on_c, 13, 60, 0
18, 123300, Note_on_c, 13, 60, 76
18, 123351, Note_on_c, 13, 60, 0
18, 123360, Note_on_c, 13, 60, 76
18, 123411, Note_on_c, 13, 60, 0
18, 123420, Note_on_c, 13, 60, 76
18, 123471, Note_on_c, 13, 60, 0
18, 123480, Note_on_c, 13, 58, 76
18, 123531, Note_on_c, 13, 58, 0
18, 123540, Note_on_c, 13, 48, 76
18, 123540, Note_on_c, 13, 51, 76
18, 123599, Note_on_c, 13, 48, 0
18, 123599, Note_on_c, 13, 51, 0
18, 123600, Note_on_c, 13, 50, 76
18, 123600, Note_on_c, 13, 53, 76
18, 123659, Note_on_c, 13, 50, 0
18, 123659, Note_on_c, 13, 53, 0
18, 123660, Note_on_c, 13, 55, 76
18, 123660, Note_on_c, 13, 51, 76
18, 123719, Note_on_c, 13, 55, 0
18, 123719, Note_on_c, 13, 51, 0
18, 123720, Note_on_c, 13, 57, 76
18, 123720, Note_on_c, 13, 53, 76
18, 123779, Note_on_c, 13, 57, 0
18, 123779, Note_on_c, 13, 53, 0
18, 123780, Note_on_c, 13, 55, 76
18, 123780, Note_on_c, 13, 59, 76
18, 123839, Note_on_c, 13, 55, 0
18, 123839, Note_on_c, 13, 59, 0
18, 123840, Note_on_c, 13, 57, 76
18, 123840, Note_on_c, 13, 60, 76
18, 123899, Note_on_c, 13, 57, 0
18, 123899, Note_on_c, 13, 60, 0
18, 123900, Note_on_c, 13, 59, 76
18, 123900, Note_on_c, 13, 62, 76
18, 123951, Note_on_c, 13, 59, 0
18, 123951, Note_on_c, 13, 62, 0
18, 123960, Note_on_c, 13, 63, 76
18, 123960, Note_on_c, 13, 60, 76
18, 124139, Note_on_c, 13, 63, 0
18, 124139, Note_on_c, 13, 60, 0
18, 124200, Note_on_c, 13, 63, 76
18, 124200, Note_on_c, 13, 60, 76
18, 124364, Note_on_c, 13, 63, 0
18, 124364, Note_on_c, 13, 60, 0
18, 124380, Note_on_c, 13, 63, 76
18, 124380, Note_on_c, 13, 60, 76
18, 124424, Note_on_c, 13, 63, 0
18, 124424, Note_on_c, 13, 60, 0
18, 124440, Note_on_c, 13, 63, 76
18, 124440, Note_on_c, 13, 60, 76
18, 124559, Note_on_c, 13, 63, 0
18, 124559, Note_on_c, 13, 60, 0
18, 124560, Note_on_c, 13, 59, 76
18, 124560, Note_on_c, 13, 62, 76
18, 124664, Note_on_c, 13, 59, 0
18, 124664, Note_on_c, 13, 62, 0
18, 124680, Note_on_c, 13, 62, 76
18, 124680, Note_on_c, 13, 59, 76
18, 124844, Note_on_c, 13, 62, 0
18, 124844, Note_on_c, 13, 59, 0
18, 124860, Note_on_c, 13, 60, 76
18, 124860, Note_on_c, 13, 63, 76
18, 124904, Note_on_c, 13, 60, 0
18, 124904, Note_on_c, 13, 63, 0
18, 124920, Note_on_c, 13, 65, 76
18, 124920, Note_on_c, 13, 62, 76
18, 125084, Note_on_c, 13, 65, 0
18, 125084, Note_on_c, 13, 62, 0
18, 125100, Note_on_c, 13, 65, 76
18, 125100, Note_on_c, 13, 62, 76
18, 125144, Note_on_c, 13, 65, 0
18, 125144, Note_on_c, 13, 62, 0
18, 125160, Note_on_c, 13, 65, 76
18, 125160, Note_on_c, 13, 62, 76
18, 125324, Note_on_c, 13, 65, 0
18, 125324, Note_on_c, 13, 62, 0
18, 125340, Note_on_c, 13, 62, 76
18, 125340, Note_on_c, 13, 65, 76
18, 125384, Note_on_c, 13, 62, 0
18, 125384, Note_on_c, 13, 65, 0
18, 125400, Note_on_c, 13, 65, 76
18, 125400, Note_on_c, 13, 62, 76
18, 125639, Note_on_c, 13, 65, 0
18, 125639, Note_on_c, 13, 62, 0
18, 125640, Note_on_c, 13, 60, 76
18, 125640, Note_on_c, 13, 63, 76
18, 125759, Note_on_c, 13, 60, 0
18, 125759, Note_on_c, 13, 63, 0
18, 125880, Note_on_c, 13, 56, 84
18, 126329, Note_on_c, 13, 56, 0
18, 126360, Note_on_c, 13, 54, 84
18, 126809, Note_on_c, 13, 54, 0
18, 126840, Note_on_c, 13, 50, 76
18, 127019, Note_on_c, 13, 50, 0
18, 127080, Note_on_c, 13, 50, 76
18, 127259, Note_on_c, 13, 50, 0
18, 127320, Note_on_c, 13, 55, 76
18, 127371, Note_on_c, 13, 55, 0
18, 127380, Note_on_c, 13, 51, 76
18, 127380, Note_on_c, 13, 48, 76
18, 127439, Note_on_c, 13, 51, 0
18, 127439, Note_on_c, 13, 48, 0
18, 127440, Note_on_c, 13, 50, 76
18, 127440, Note_on_c, 13, 53, 76
18, 127499, Note_on_c, 13, 50, 0
18, 127499, Note_on_c, 13, 53, 0
18, 127500, Note_on_c, 13, 51, 76
18, 127500, Note_on_c, 13, 55, 76
18, 127559, Note_on_c, 13, 51, 0
18, 127559, Note_on_c, 13, 55, 0
18, 127560, Note_on_c, 13, 53, 76
18, 127560, Note_on_c, 13, 57, 76
18, 127619, Note_on_c, 13, 53, 0
18, 127619, Note_on_c, 13, 57, 0
18, 127620, Note_on_c, 13, 59, 76
18, 127620, Note_on_c, 13, 55, 76
18, 127679, Note_on_c, 13, 59, 0
18, 127679, Note_on_c, 13, 55, 0
18, 127680, Note_on_c, 13, 57, 76
18, 127680, Note_on_c, 13, 60, 76
18, 127739, Note_on_c, 13, 57, 0
18, 127739, Note_on_c, 13, 60, 0
18, 127740, Note_on_c, 13, 59, 76
18, 127740, Note_on_c, 13, 62, 76
18, 127791, Note_on_c, 13, 59, 0
18, 127791, Note_on_c, 13, 62, 0
18, 127800, Note_on_c, 13, 63, 76
18, 127800, Note_on_c, 13, 60, 76
18, 127979, Note_on_c, 13, 63, 0
18, 127979, Note_on_c, 13, 60, 0
18, 128040, Note_on_c, 13, 63, 76
18, 128040, Note_on_c, 13, 60, 76
18, 128204, Note_on_c, 13, 63, 0
18, 128204, Note_on_c, 13, 60, 0
18, 128220, Note_on_c, 13, 60, 76
18, 128220, Note_on_c, 13, 63, 76
18, 128264, Note_on_c, 13, 60, 0
18, 128264, Note_on_c, 13, 63, 0
18, 128280, Note_on_c, 13, 63, 76
18, 128280, Note_on_c, 13, 60, 76
18, 128399, Note_on_c, 13, 63, 0
18, 128399, Note_on_c, 13, 60, 0
18, 128400, Note_on_c, 13, 62, 76
18, 128400, Note_on_c, 13, 59, 76
18, 128504, Note_on_c, 13, 62, 0
18, 128504, Note_on_c, 13, 59, 0
18, 128520, Note_on_c, 13, 62, 76
18, 128520, Note_on_c, 13, 59, 76
18, 128684, Note_on_c, 13, 62, 0
18, 128684, Note_on_c, 13, 59, 0
18, 128700, Note_on_c, 13, 63, 76
18, 128700, Note_on_c, 13, 60, 76
18, 128744, Note_on_c, 13, 63, 0
18, 128744, Note_on_c, 13, 60, 0
18, 128760, Note_on_c, 13, 65, 76
18, 128760, Note_on_c, 13, 62, 76
18, 128924, Note_on_c, 13, 65, 0
18, 128924, Note_on_c, 13, 62, 0
18, 128940, Note_on_c, 13, 65, 76
18, 128940, Note_on_c, 13, 62, 76
18, 128984, Note_on_c, 13, 65, 0
18, 128984, Note_on_c, 13, 62, 0
18, 129000, Note_on_c, 13, 62, 76
18, 129000, Note_on_c, 13, 65, 76
18, 129164, Note_on_c, 13, 62, 0
18, 129164, Note_on_c, 13, 65, 0
18, 129180, Note_on_c, 13, 62, 76
18, 129180, Note_on_c, 13, 65, 76
18, 129224, Note_on_c, 13, 62, 0
18, 129224, Note_on_c, 13, 65, 0
18, 129240, Note_on_c, 13, 65, 76
18, 129240, Note_on_c, 13, 62, 76
18, 129479, Note_on_c, 13, 65, 0
18, 129479, Note_on_c, 13, 62, 0
18, 129480, Note_on_c, 13, 60, 76
18, 129480, Note_on_c, 13, 63, 76
18, 129599, Note_on_c, 13, 60, 0
18, 129599, Note_on_c, 13, 63, 0
18, 129720, Note_on_c, 13, 56, 84
18, 130169, Note_on_c, 13, 56, 0
18, 130200, Note_on_c, 13, 54, 84
18, 130649, Note_on_c, 13, 54, 0
18, 130680, Note_on_c, 13, 50, 76
18, 130904, Note_on_c, 13, 50, 0
18, 130920, Note_on_c, 13, 50, 76
18, 131144, Note_on_c, 13, 50, 0
18, 131160, Note_on_c, 13, 55, 76
18, 131264, Note_on_c, 13, 55, 0
18, 131280, Note_on_c, 13, 65, 76
18, 131331, Note_on_c, 13, 65, 0
18, 131340, Note_on_c, 13, 65, 76
18, 131391, Note_on_c, 13, 65, 0
18, 131400, Note_on_c, 13, 63, 76
18, 131451, Note_on_c, 13, 63, 0
18, 131460, Note_on_c, 13, 63, 76
18, 131511, Note_on_c, 13, 63, 0
18, 131520, Note_on_c, 13, 62, 76
18, 131571, Note_on_c, 13, 62, 0
18, 131580, Note_on_c, 13, 62, 76
18, 131631, Note_on_c, 13, 62, 0
18, 131640, Note_on_c, 13, 60, 76
18, 131691, Note_on_c, 13, 60, 0
18, 131700, Note_on_c, 13, 60, 76
18, 131751, Note_on_c, 13, 60, 0
18, 131760, Note_on_c, 13, 63, 76
18, 131811, Note_on_c, 13, 63, 0
18, 131820, Note_on_c, 13, 63, 76
18, 131871, Note_on_c, 13, 63, 0
18, 131880, Note_on_c, 13, 60, 76
18, 131931, Note_on_c, 13, 60, 0
18, 131940, Note_on_c, 13, 60, 76
18, 131991, Note_on_c, 13, 60, 0
18, 132000, Note_on_c, 13, 63, 76
18, 132051, Note_on_c, 13, 63, 0
18, 132060, Note_on_c, 13, 63, 76
18, 132111, Note_on_c, 13, 63, 0
18, 132120, Note_on_c, 13, 60, 76
18, 132171, Note_on_c, 13, 60, 0
18, 132180, Note_on_c, 13, 60, 76
18, 132231, Note_on_c, 13, 60, 0
18, 132240, Note_on_c, 13, 62, 76
18, 132291, Note_on_c, 13, 62, 0
18, 132300, Note_on_c, 13, 62, 76
18, 132351, Note_on_c, 13, 62, 0
18, 132360, Note_on_c, 13, 60, 76
18, 132411, Note_on_c, 13, 60, 0
18, 132420, Note_on_c, 13, 60, 76
18, 132471, Note_on_c, 13, 60, 0
18, 132480, Note_on_c, 13, 62, 76
18, 132531, Note_on_c, 13, 62, 0
18, 132540, Note_on_c, 13, 62, 76
18, 132591, Note_on_c, 13, 62, 0
18, 132600, Note_on_c, 13, 60, 76
18, 132651, Note_on_c, 13, 60, 0
18, 132660, Note_on_c, 13, 60, 76
18, 132711, Note_on_c, 13, 60, 0
18, 132720, Note_on_c, 13, 62, 76
18, 132771, Note_on_c, 13, 62, 0
18, 132780, Note_on_c, 13, 62, 76
18, 132831, Note_on_c, 13, 62, 0
18, 132840, Note_on_c, 13, 60, 76
18, 132891, Note_on_c, 13, 60, 0
18, 132900, Note_on_c, 13, 60, 76
18, 132951, Note_on_c, 13, 60, 0
18, 132960, Note_on_c, 13, 62, 76
18, 133011, Note_on_c, 13, 62, 0
18, 133020, Note_on_c, 13, 62, 76
18, 133071, Note_on_c, 13, 62, 0
18, 133080, Note_on_c, 13, 58, 76
18, 133131, Note_on_c, 13, 58, 0
18, 133140, Note_on_c, 13, 62, 76
18, 133191, Note_on_c, 13, 62, 0
18, 133200, Note_on_c, 13, 58, 76
18, 133251, Note_on_c, 13, 58, 0
18, 133260, Note_on_c, 13, 55, 76
18, 133311, Note_on_c, 13, 55, 0
18, 133320, Note_on_c, 13, 58, 76
18, 133371, Note_on_c, 13, 58, 0
18, 133380, Note_on_c, 13, 62, 76
18, 133431, Note_on_c, 13, 62, 0
18, 133440, Note_on_c, 13, 58, 76
18, 133491, Note_on_c, 13, 58, 0
18, 133500, Note_on_c, 13, 55, 76
18, 133551, Note_on_c, 13, 55, 0
18, 133560, Note_on_c, 13, 60, 76
18, 133611, Note_on_c, 13, 60, 0
18, 133620, Note_on_c, 13, 62, 76
18, 133671, Note_on_c, 13, 62, 0
18, 133680, Note_on_c, 13, 60, 76
18, 133731, Note_on_c, 13, 60, 0
18, 133740, Note_on_c, 13, 57, 76
18, 133791, Note_on_c, 13, 57, 0
18, 133800, Note_on_c, 13, 60, 76
18, 133851, Note_on_c, 13, 60, 0
18, 133860, Note_on_c, 13, 62, 76
18, 133911, Note_on_c, 13, 62, 0
18, 133920, Note_on_c, 13, 60, 76
18, 133971, Note_on_c, 13, 60, 0
18, 133980, Note_on_c, 13, 57, 76
18, 134031, Note_on_c, 13, 57, 0
18, 134040, Note_on_c, 13, 58, 76
18, 134091, Note_on_c, 13, 58, 0
18, 134100, Note_on_c, 13, 62, 76
18, 134151, Note_on_c, 13, 62, 0
18, 134160, Note_on_c, 13, 58, 76
18, 134211, Note_on_c, 13, 58, 0
18, 134220, Note_on_c, 13, 55, 76
18, 134271, Note_on_c, 13, 55, 0
18, 134280, Note_on_c, 13, 58, 76
18, 134331, Note_on_c, 13, 58, 0
18, 134340, Note_on_c, 13, 62, 76
18, 134391, Note_on_c, 13, 62, 0
18, 134400, Note_on_c, 13, 58, 76
18, 134451, Note_on_c, 13, 58, 0
18, 134460, Note_on_c, 13, 55, 76
18, 134511, Note_on_c, 13, 55, 0
18, 134520, Note_on_c, 13, 60, 76
18, 134571, Note_on_c, 13, 60, 0
18, 134580, Note_on_c, 13, 62, 76
18, 134631, Note_on_c, 13, 62, 0
18, 134640, Note_on_c, 13, 60, 76
18, 134691, Note_on_c, 13, 60, 0
18, 134700, Note_on_c, 13, 57, 76
18, 134751, Note_on_c, 13, 57, 0
18, 134760, Note_on_c, 13, 60, 76
18, 134811, Note_on_c, 13, 60, 0
18, 134820, Note_on_c, 13, 62, 76
18, 134871, Note_on_c, 13, 62, 0
18, 134880, Note_on_c, 13, 60, 76
18, 134931, Note_on_c, 13, 60, 0
18, 134940, Note_on_c, 13, 57, 76
18, 134991, Note_on_c, 13, 57, 0
18, 135000, Note_on_c, 13, 58, 76
18, 135051, Note_on_c, 13, 58, 0
18, 135060, Note_on_c, 13, 62, 76
18, 135111, Note_on_c, 13, 62, 0
18, 135120, Note_on_c, 13, 58, 76
18, 135171, Note_on_c, 13, 58, 0
18, 135180, Note_on_c, 13, 55, 76
18, 135231, Note_on_c, 13, 55, 0
18, 135240, Note_on_c, 13, 60, 76
18, 135291, Note_on_c, 13, 60, 0
18, 135300, Note_on_c, 13, 62, 76
18, 135351, Note_on_c, 13, 62, 0
18, 135360, Note_on_c, 13, 60, 76
18, 135411, Note_on_c, 13, 60, 0
18, 135420, Note_on_c, 13, 57, 76
18, 135471, Note_on_c, 13, 57, 0
18, 135480, Note_on_c, 13, 58, 76
18, 135531, Note_on_c, 13, 58, 0
18, 135540, Note_on_c, 13, 62, 76
18, 135591, Note_on_c, 13, 62, 0
18, 135600, Note_on_c, 13, 58, 76
18, 135651, Note_on_c, 13, 58, 0
18, 135660, Note_on_c, 13, 55, 76
18, 135711, Note_on_c, 13, 55, 0
18, 135720, Note_on_c, 13, 60, 76
18, 135771, Note_on_c, 13, 60, 0
18, 135780, Note_on_c, 13, 62, 76
18, 135831, Note_on_c, 13, 62, 0
18, 135840, Note_on_c, 13, 60, 76
18, 135891, Note_on_c, 13, 60, 0
18, 135900, Note_on_c, 13, 57, 76
18, 135951, Note_on_c, 13, 57, 0
18, 135960, Note_on_c, 13, 58, 76
18, 136011, Note_on_c, 13, 58, 0
18, 136020, Note_on_c, 13, 62, 76
18, 136071, Note_on_c, 13, 62, 0
18, 136080, Note_on_c, 13, 58, 76
18, 136131, Note_on_c, 13, 58, 0
18, 136140, Note_on_c, 13, 55, 76
18, 136191, Note_on_c, 13, 55, 0
18, 136200, Note_on_c, 13, 60, 76
18, 136251, Note_on_c, 13, 60, 0
18, 136260, Note_on_c, 13, 62, 76
18, 136311, Note_on_c, 13, 62, 0
18, 136320, Note_on_c, 13, 60, 76
18, 136371, Note_on_c, 13, 60, 0
18, 136380, Note_on_c, 13, 57, 76
18, 136431, Note_on_c, 13, 57, 0
18, 136440, Note_on_c, 13, 58, 76
18, 136491, Note_on_c, 13, 58, 0
18, 136500, Note_on_c, 13, 62, 76
18, 136551, Note_on_c, 13, 62, 0
18, 136560, Note_on_c, 13, 58, 76
18, 136611, Note_on_c, 13, 58, 0
18, 136620, Note_on_c, 13, 55, 76
18, 136671, Note_on_c, 13, 55, 0
18, 136680, Note_on_c, 13, 60, 76
18, 136731, Note_on_c, 13, 60, 0
18, 136740, Note_on_c, 13, 62, 76
18, 136791, Note_on_c, 13, 62, 0
18, 136800, Note_on_c, 13, 60, 76
18, 136851, Note_on_c, 13, 60, 0
18, 136860, Note_on_c, 13, 57, 76
18, 136911, Note_on_c, 13, 57, 0
18, 136920, Note_on_c, 13, 58, 76
18, 137159, Note_on_c, 13, 58, 0
18, 137400, Note_on_c, 13, 67, 76
18, 137400, Note_on_c, 13, 55, 76
18, 137639, Note_on_c, 13, 67, 0
18, 137639, Note_on_c, 13, 55, 0
18, 137880, Note_on_c, 13, 55, 52
18, 137999, Note_on_c, 13, 55, 0
18, 138960, Note_on_c, 13, 60, 52
18, 139049, Note_on_c, 13, 60, 0
18, 139080, Note_on_c, 13, 60, 52
18, 139169, Note_on_c, 13, 60, 0
18, 139200, Note_on_c, 13, 60, 52
18, 139289, Note_on_c, 13, 60, 0
18, 139440, Note_on_c, 13, 62, 52
18, 139529, Note_on_c, 13, 62, 0
18, 139560, Note_on_c, 13, 62, 52
18, 139649, Note_on_c, 13, 62, 0
18, 139680, Note_on_c, 13, 62, 52
18, 139769, Note_on_c, 13, 62, 0
18, 139920, Note_on_c, 13, 62, 52
18, 139920, Note_on_c, 13, 59, 52
18, 140009, Note_on_c, 13, 62, 0
18, 140009, Note_on_c, 13, 59, 0
18, 140040, Note_on_c, 13, 59, 52
18, 140040, Note_on_c, 13, 62, 52
18, 140129, Note_on_c, 13, 59, 0
18, 140129, Note_on_c, 13, 62, 0
18, 140160, Note_on_c, 13, 62, 52
18, 140160, Note_on_c, 13, 59, 52
18, 140249, Note_on_c, 13, 62, 0
18, 140249, Note_on_c, 13, 59, 0
18, 140400, Note_on_c, 13, 64, 52
18, 140400, Note_on_c, 13, 60, 52
18, 140489, Note_on_c, 13, 64, 0
18, 140489, Note_on_c, 13, 60, 0
18, 140520, Note_on_c, 13, 60, 52
18, 140609, Note_on_c, 13, 60, 0
18, 140640, Note_on_c, 13, 60, 52
18, 140729, Note_on_c, 13, 60, 0
18, 140880, Note_on_c, 13, 60, 56
18, 140999, Note_on_c, 13, 60, 0
18, 141120, Note_on_c, 13, 59, 64
18, 141239, Note_on_c, 13, 59, 0
18, 141360, Note_on_c, 13, 60, 76
18, 141464, Note_on_c, 13, 60, 0
18, 141480, Note_on_c, 13, 60, 63
18, 141584, Note_on_c, 13, 60, 0
18, 141600, Note_on_c, 13, 64, 58
18, 141719, Note_on_c, 13, 64, 0
18, 141840, Note_on_c, 13, 62, 52
18, 141840, Note_on_c, 13, 65, 52
18, 141959, Note_on_c, 13, 62, 0
18, 141959, Note_on_c, 13, 65, 0
18, 142080, Note_on_c, 13, 64, 52
18, 142080, Note_on_c, 13, 60, 52
18, 142199, Note_on_c, 13, 64, 0
18, 142199, Note_on_c, 13, 60, 0
18, 142320, Note_on_c, 13, 60, 52
18, 142439, Note_on_c, 13, 60, 0
18, 142440, Note_on_c, 13, 59, 52
18, 142559, Note_on_c, 13, 59, 0
18, 144480, Note_on_c, 13, 53, 44
18, 144599, Note_on_c, 13, 53, 0
18, 144600, Note_on_c, 13, 56, 44
18, 144959, Note_on_c, 13, 56, 0
18, 144960, Note_on_c, 13, 53, 44
18, 145064, Note_on_c, 13, 53, 0
18, 145080, Note_on_c, 13, 52, 44
18, 145439, Note_on_c, 13, 52, 0
18, 145440, Note_on_c, 13, 55, 44
18, 145544, Note_on_c, 13, 55, 0
18, 145560, Note_on_c, 13, 58, 44
18, 145919, Note_on_c, 13, 58, 0
18, 145920, Note_on_c, 13, 55, 44
18, 146024, Note_on_c, 13, 55, 0
18, 146040, Note_on_c, 13, 53, 44
18, 146159, Note_on_c, 13, 53, 0
18, 146460, Control_c, 13, 11, 96
18, 146520, Note_on_c, 13, 50, 60
18, 146520, Control_c, 13, 11, 96
18, 146560, Control_c, 13, 11, 97
18, 146600, Control_c, 13, 11, 99
18, 146640, Control_c, 13, 11, 100
18, 146680, Control_c, 13, 11, 101
18, 146720, Control_c, 13, 11, 102
18, 146760, Control_c, 13, 11, 104
18, 146800, Control_c, 13, 11, 105
18, 146840, Control_c, 13, 11, 106
18, 146879, Note_on_c, 13, 50, 0
18, 146880, Note_on_c, 13, 53, 60
18, 146880, Control_c, 13, 11, 108
18, 146920, Control_c, 13, 11, 109
18, 146960, Control_c, 13, 11, 110
18, 146984, Note_on_c, 13, 53, 0
18, 147000, Note_on_c, 13, 56, 60
18, 147000, Control_c, 13, 11, 112
18, 147040, Control_c, 13, 11, 113
18, 147080, Control_c, 13, 11, 114
18, 147120, Control_c, 13, 11, 115
18, 147160, Control_c, 13, 11, 117
18, 147200, Control_c, 13, 11, 118
18, 147240, Control_c, 13, 11, 119
18, 147280, Control_c, 13, 11, 121
18, 147320, Control_c, 13, 11, 122
18, 147359, Note_on_c, 13, 56, 0
18, 147360, Control_c, 13, 11, 123
18, 147360, Note_on_c, 13, 53, 60
18, 147400, Control_c, 13, 11, 124
18, 147440, Control_c, 13, 11, 127
18, 147464, Note_on_c, 13, 53, 0
18, 147480, Note_on_c, 13, 50, 60
18, 147480, Control_c, 13, 11, 127
18, 147520, Control_c, 13, 11, 124
18, 147560, Control_c, 13, 11, 122
18, 147600, Control_c, 13, 11, 119
18, 147640, Control_c, 13, 11, 117
18, 147680, Control_c, 13, 11, 114
18, 147720, Control_c, 13, 11, 112
18, 147760, Control_c, 13, 11, 109
18, 147800, Control_c, 13, 11, 106
18, 147839, Note_on_c, 13, 50, 0
18, 147840, Note_on_c, 13, 53, 60
18, 147840, Control_c, 13, 11, 104
18, 147880, Control_c, 13, 11, 101
18, 147920, Control_c, 13, 11, 96
18, 147944, Note_on_c, 13, 53, 0
18, 147960, Note_on_c, 13, 55, 60
18, 148079, Note_on_c, 13, 55, 0
18, 151080, Control_c, 13, 11, 127
18, 151320, Note_on_c, 13, 58, 44
18, 151784, Note_on_c, 13, 58, 0
18, 151800, Note_on_c, 13, 51, 44
18, 152264, Note_on_c, 13, 51, 0
18, 152280, Note_on_c, 13, 63, 44
18, 152744, Note_on_c, 13, 63, 0
18, 152760, Note_on_c, 13, 56, 44
18, 153104, Note_on_c, 13, 56, 0
18, 153120, Note_on_c, 13, 53, 44
18, 153209, Note_on_c, 13, 53, 0
18, 153240, Note_on_c, 13, 55, 44
18, 153329, Note_on_c, 13, 55, 0
18, 153360, Note_on_c, 13, 56, 44
18, 153449, Note_on_c, 13, 56, 0
18, 153480, Note_on_c, 13, 58, 44
18, 153569, Note_on_c, 13, 58, 0
18, 153600, Note_on_c, 13, 55, 44
18, 153689, Note_on_c, 13, 55, 0
18, 153720, Note_on_c, 13, 56, 44
18, 154064, Note_on_c, 13, 56, 0
18, 154080, Note_on_c, 13, 61, 44
18, 154169, Note_on_c, 13, 61, 0
18, 154200, Note_on_c, 13, 58, 44
18, 154289, Note_on_c, 13, 58, 0
18, 154320, Note_on_c, 13, 60, 44
18, 154409, Note_on_c, 13, 60, 0
18, 154440, Note_on_c, 13, 61, 44
18, 154529, Note_on_c, 13, 61, 0
18, 154560, Note_on_c, 13, 58, 44
18, 154649, Note_on_c, 13, 58, 0
18, 154680, Note_on_c, 13, 60, 44
18, 154784, Note_on_c, 13, 60, 0
18, 154800, Note_on_c, 13, 64, 44
18, 154904, Note_on_c, 13, 64, 0
18, 154920, Note_on_c, 13, 65, 60
18, 155159, Note_on_c, 13, 65, 0
18, 155160, Note_on_c, 13, 65, 44
18, 155264, Note_on_c, 13, 65, 0
18, 155280, Note_on_c, 13, 58, 44
18, 155384, Note_on_c, 13, 58, 0
18, 155400, Note_on_c, 13, 63, 44
18, 155504, Note_on_c, 13, 63, 0
18, 155520, Note_on_c, 13, 65, 44
18, 155571, Note_on_c, 13, 65, 0
18, 155580, Note_on_c, 13, 67, 44
18, 155631, Note_on_c, 13, 67, 0
18, 155640, Note_on_c, 13, 68, 44
18, 155691, Note_on_c, 13, 68, 0
18, 155700, Note_on_c, 13, 70, 44
18, 155751, Note_on_c, 13, 70, 0
18, 155760, Note_on_c, 13, 72, 44
18, 155811, Note_on_c, 13, 72, 0
18, 155820, Note_on_c, 13, 70, 44
18, 155871, Note_on_c, 13, 70, 0
18, 155880, Note_on_c, 13, 68, 44
18, 155931, Note_on_c, 13, 68, 0
18, 155940, Note_on_c, 13, 67, 44
18, 155991, Note_on_c, 13, 67, 0
18, 156000, Note_on_c, 13, 65, 44
18, 156051, Note_on_c, 13, 65, 0
18, 156060, Note_on_c, 13, 63, 44
18, 156111, Note_on_c, 13, 63, 0
18, 156120, Note_on_c, 13, 62, 44
18, 156171, Note_on_c, 13, 62, 0
18, 156180, Note_on_c, 13, 63, 44
18, 156231, Note_on_c, 13, 63, 0
18, 156240, Note_on_c, 13, 65, 44
18, 156291, Note_on_c, 13, 65, 0
18, 156300, Note_on_c, 13, 63, 44
18, 156351, Note_on_c, 13, 63, 0
18, 156360, Note_on_c, 13, 62, 44
18, 156411, Note_on_c, 13, 62, 0
18, 156420, Note_on_c, 13, 60, 44
18, 156471, Note_on_c, 13, 60, 0
18, 156480, Note_on_c, 13, 58, 44
18, 156531, Note_on_c, 13, 58, 0
18, 156540, Note_on_c, 13, 56, 44
18, 156591, Note_on_c, 13, 56, 0
18, 156600, Note_on_c, 13, 55, 44
18, 156651, Note_on_c, 13, 55, 0
18, 156660, Note_on_c, 13, 58, 44
18, 156711, Note_on_c, 13, 58, 0
18, 156720, Note_on_c, 13, 63, 44
18, 156771, Note_on_c, 13, 63, 0
18, 156780, Note_on_c, 13, 62, 44
18, 156831, Note_on_c, 13, 62, 0
18, 156840, Note_on_c, 13, 60, 44
18, 156891, Note_on_c, 13, 60, 0
18, 156900, Note_on_c, 13, 58, 44
18, 156951, Note_on_c, 13, 58, 0
18, 156960, Note_on_c, 13, 56, 44
18, 157011, Note_on_c, 13, 56, 0
18, 157020, Note_on_c, 13, 55, 44
18, 157071, Note_on_c, 13, 55, 0
18, 157080, Note_on_c, 13, 53, 44
18, 157131, Note_on_c, 13, 53, 0
18, 157140, Note_on_c, 13, 56, 44
18, 157191, Note_on_c, 13, 56, 0
18, 157200, Note_on_c, 13, 56, 44
18, 157251, Note_on_c, 13, 56, 0
18, 157260, Note_on_c, 13, 56, 44
18, 157311, Note_on_c, 13, 56, 0
18, 157320, Note_on_c, 13, 56, 44
18, 157371, Note_on_c, 13, 56, 0
18, 157380, Note_on_c, 13, 56, 44
18, 157431, Note_on_c, 13, 56, 0
18, 157440, Note_on_c, 13, 58, 44
18, 157491, Note_on_c, 13, 58, 0
18, 157500, Note_on_c, 13, 56, 44
18, 157544, Note_on_c, 13, 56, 0
18, 157552, Control_c, 13, 11, 64
18, 157560, Note_on_c, 13, 55, 76
18, 157611, Note_on_c, 13, 55, 0
18, 157620, Note_on_c, 13, 58, 76
18, 157671, Note_on_c, 13, 58, 0
18, 157680, Note_on_c, 13, 63, 76
18, 157731, Note_on_c, 13, 63, 0
18, 157740, Note_on_c, 13, 62, 76
18, 157791, Note_on_c, 13, 62, 0
18, 157800, Note_on_c, 13, 60, 76
18, 157800, Control_c, 13, 11, 64
18, 157851, Note_on_c, 13, 60, 0
18, 157860, Note_on_c, 13, 63, 76
18, 157873, Control_c, 13, 11, 66
18, 157911, Note_on_c, 13, 63, 0
18, 157920, Note_on_c, 13, 65, 76
18, 157947, Control_c, 13, 11, 68
18, 157971, Note_on_c, 13, 65, 0
18, 157980, Note_on_c, 13, 63, 76
18, 158020, Control_c, 13, 11, 69
18, 158031, Note_on_c, 13, 63, 0
18, 158040, Note_on_c, 13, 62, 76
18, 158093, Control_c, 13, 11, 71
18, 158159, Note_on_c, 13, 62, 0
18, 158167, Control_c, 13, 11, 73
18, 158240, Control_c, 13, 11, 75
18, 158280, Note_on_c, 13, 62, 76
18, 158313, Control_c, 13, 11, 76
18, 158387, Control_c, 13, 11, 78
18, 158459, Note_on_c, 13, 62, 0
18, 158460, Control_c, 13, 11, 80
18, 158520, Note_on_c, 13, 55, 76
18, 158533, Control_c, 13, 11, 82
18, 158607, Control_c, 13, 11, 83
18, 158680, Control_c, 13, 11, 85
18, 158699, Note_on_c, 13, 55, 0
18, 158753, Control_c, 13, 11, 87
18, 158760, Note_on_c, 13, 67, 76
18, 158827, Control_c, 13, 11, 89
18, 158900, Control_c, 13, 11, 90
18, 158939, Note_on_c, 13, 67, 0
18, 158973, Control_c, 13, 11, 92
18, 159047, Control_c, 13, 11, 94
18, 159120, Note_on_c, 13, 59, 76
18, 159120, Control_c, 13, 11, 96
18, 159171, Note_on_c, 13, 59, 0
18, 159180, Note_on_c, 13, 60, 76
18, 159193, Control_c, 13, 11, 97
18, 159231, Note_on_c, 13, 60, 0
18, 159240, Note_on_c, 13, 62, 76
18, 159267, Control_c, 13, 11, 99
18, 159291, Note_on_c, 13, 62, 0
18, 159300, Note_on_c, 13, 55, 76
18, 159340, Control_c, 13, 11, 101
18, 159351, Note_on_c, 13, 55, 0
18, 159360, Note_on_c, 13, 57, 76
18, 159411, Note_on_c, 13, 57, 0
18, 159413, Control_c, 13, 11, 103
18, 159420, Note_on_c, 13, 59, 76
18, 159471, Note_on_c, 13, 59, 0
18, 159480, Note_on_c, 13, 60, 76
18, 159487, Control_c, 13, 11, 104
18, 159560, Control_c, 13, 11, 106
18, 159633, Control_c, 13, 11, 108
18, 159707, Control_c, 13, 11, 110
18, 159719, Note_on_c, 13, 60, 0
18, 159780, Control_c, 13, 11, 111
18, 159840, Note_on_c, 13, 63, 76
18, 159853, Control_c, 13, 11, 113
18, 159927, Control_c, 13, 11, 115
18, 159944, Note_on_c, 13, 63, 0
18, 159960, Note_on_c, 13, 65, 76
18, 160000, Control_c, 13, 11, 117
18, 160011, Note_on_c, 13, 65, 0
18, 160020, Note_on_c, 13, 63, 76
18, 160071, Note_on_c, 13, 63, 0
18, 160073, Control_c, 13, 11, 118
18, 160080, Note_on_c, 13, 62, 76
18, 160131, Note_on_c, 13, 62, 0
18, 160140, Note_on_c, 13, 60, 76
18, 160147, Control_c, 13, 11, 120
18, 160191, Note_on_c, 13, 60, 0
18, 160200, Note_on_c, 13, 58, 76
18, 160220, Control_c, 13, 11, 122
18, 160251, Note_on_c, 13, 58, 0
18, 160260, Note_on_c, 13, 60, 76
18, 160293, Control_c, 13, 11, 124
18, 160311, Note_on_c, 13, 60, 0
18, 160320, Note_on_c, 13, 58, 76
18, 160367, Control_c, 13, 11, 127
18, 160371, Note_on_c, 13, 58, 0
18, 160380, Note_on_c, 13, 56, 76
18, 160431, Note_on_c, 13, 56, 0
18, 160440, Note_on_c, 13, 55, 76
18, 160664, Note_on_c, 13, 55, 0
18, 160680, Note_on_c, 13, 63, 76
18, 161144, Note_on_c, 13, 63, 0
18, 161160, Note_on_c, 13, 62, 76
18, 161211, Note_on_c, 13, 62, 0
18, 161220, Note_on_c, 13, 63, 76
18, 161271, Note_on_c, 13, 63, 0
18, 161280, Note_on_c, 13, 65, 76
18, 161331, Note_on_c, 13, 65, 0
18, 161340, Note_on_c, 13, 67, 76
18, 161391, Note_on_c, 13, 67, 0
18, 161400, Note_on_c, 13, 68, 76
18, 161504, Note_on_c, 13, 68, 0
18, 161520, Note_on_c, 13, 50, 76
18, 161571, Note_on_c, 13, 50, 0
18, 161580, Note_on_c, 13, 51, 76
18, 161631, Note_on_c, 13, 51, 0
18, 161640, Note_on_c, 13, 53, 76
18, 161744, Note_on_c, 13, 53, 0
18, 161760, Note_on_c, 13, 55, 76
18, 161811, Note_on_c, 13, 55, 0
18, 161820, Note_on_c, 13, 56, 76
18, 161871, Note_on_c, 13, 56, 0
18, 161880, Note_on_c, 13, 58, 76
18, 161984, Note_on_c, 13, 58, 0
18, 162000, Note_on_c, 13, 55, 76
18, 162119, Note_on_c, 13, 55, 0
18, 162120, Note_on_c, 13, 56, 76
18, 162464, Note_on_c, 13, 56, 0
18, 162480, Note_on_c, 13, 53, 76
18, 162599, Note_on_c, 13, 53, 0
18, 162600, Note_on_c, 13, 58, 76
18, 162944, Note_on_c, 13, 58, 0
18, 162960, Note_on_c, 13, 55, 76
18, 163079, Note_on_c, 13, 55, 0
18, 163080, Note_on_c, 13, 56, 76
18, 163424, Note_on_c, 13, 56, 0
18, 163440, Note_on_c, 13, 57, 76
18, 163559, Note_on_c, 13, 57, 0
18, 163560, Note_on_c, 13, 58, 76
18, 163799, Note_on_c, 13, 58, 0
18, 164040, Note_on_c, 13, 58, 84
18, 164279, Note_on_c, 13, 58, 0
18, 164280, Note_on_c, 13, 58, 76
18, 164504, Note_on_c, 13, 58, 0
18, 164520, Note_on_c, 13, 55, 76
18, 164699, Note_on_c, 13, 55, 0
18, 165000, Note_on_c, 13, 61, 84
18, 165239, Note_on_c, 13, 61, 0
18, 165240, Note_on_c, 13, 61, 76
18, 165464, Note_on_c, 13, 61, 0
18, 165480, Note_on_c, 13, 51, 76
18, 165824, Note_on_c, 13, 51, 0
18, 165840, Note_on_c, 13, 60, 76
18, 165891, Note_on_c, 13, 60, 0
18, 165900, Note_on_c, 13, 58, 76
18, 165951, Note_on_c, 13, 58, 0
18, 165960, Note_on_c, 13, 56, 76
18, 166011, Note_on_c, 13, 56, 0
18, 166020, Note_on_c, 13, 56, 76
18, 166071, Note_on_c, 13, 56, 0
18, 166080, Note_on_c, 13, 55, 76
18, 166131, Note_on_c, 13, 55, 0
18, 166140, Note_on_c, 13, 53, 76
18, 166191, Note_on_c, 13, 53, 0
18, 166200, Note_on_c, 13, 51, 84
18, 166304, Note_on_c, 13, 51, 0
18, 166320, Note_on_c, 13, 55, 84
18, 166371, Note_on_c, 13, 55, 0
18, 166380, Note_on_c, 13, 56, 84
18, 166431, Note_on_c, 13, 56, 0
18, 166440, Note_on_c, 13, 58, 84
18, 166491, Note_on_c, 13, 58, 0
18, 166500, Note_on_c, 13, 60, 84
18, 166551, Note_on_c, 13, 60, 0
18, 166560, Note_on_c, 13, 62, 84
18, 166611, Note_on_c, 13, 62, 0
18, 166620, Note_on_c, 13, 63, 84
18, 166671, Note_on_c, 13, 63, 0
18, 166680, Note_on_c, 13, 65, 84
18, 166731, Note_on_c, 13, 65, 0
18, 166740, Note_on_c, 13, 67, 84
18, 166791, Note_on_c, 13, 67, 0
18, 166800, Note_on_c, 13, 68, 84
18, 166851, Note_on_c, 13, 68, 0
18, 166860, Note_on_c, 13, 67, 84
18, 166911, Note_on_c, 13, 67, 0
18, 166920, Note_on_c, 13, 65, 84
18, 166971, Note_on_c, 13, 65, 0
18, 166980, Note_on_c, 13, 63, 84
18, 167031, Note_on_c, 13, 63, 0
18, 167040, Note_on_c, 13, 62, 84
18, 167091, Note_on_c, 13, 62, 0
18, 167100, Note_on_c, 13, 60, 84
18, 167151, Note_on_c, 13, 60, 0
18, 167160, Note_on_c, 13, 62, 84
18, 167211, Note_on_c, 13, 62, 0
18, 167220, Note_on_c, 13, 60, 84
18, 167271, Note_on_c, 13, 60, 0
18, 167280, Note_on_c, 13, 58, 84
18, 167331, Note_on_c, 13, 58, 0
18, 167340, Note_on_c, 13, 56, 84
18, 167391, Note_on_c, 13, 56, 0
18, 167400, Note_on_c, 13, 55, 84
18, 167451, Note_on_c, 13, 55, 0
18, 167460, Note_on_c, 13, 53, 84
18, 167511, Note_on_c, 13, 53, 0
18, 167520, Note_on_c, 13, 51, 84
18, 167571, Note_on_c, 13, 51, 0
18, 167580, Note_on_c, 13, 50, 84
18, 167631, Note_on_c, 13, 50, 0
18, 167640, Note_on_c, 13, 51, 84
18, 167744, Note_on_c, 13, 51, 0
18, 167760, Note_on_c, 13, 63, 84
18, 167811, Note_on_c, 13, 63, 0
18, 167820, Note_on_c, 13, 63, 84
18, 167871, Note_on_c, 13, 63, 0
18, 167880, Note_on_c, 13, 58, 84
18, 167931, Note_on_c, 13, 58, 0
18, 167940, Note_on_c, 13, 58, 84
18, 167991, Note_on_c, 13, 58, 0
18, 168000, Note_on_c, 13, 70, 84
18, 168051, Note_on_c, 13, 70, 0
18, 168060, Note_on_c, 13, 70, 84
18, 168111, Note_on_c, 13, 70, 0
18, 168120, Note_on_c, 13, 58, 84
18, 168239, Note_on_c, 13, 58, 0
18, 168720, Note_on_c, 13, 63, 84
18, 168771, Note_on_c, 13, 63, 0
18, 168780, Note_on_c, 13, 63, 84
18, 168831, Note_on_c, 13, 63, 0
18, 168840, Note_on_c, 13, 58, 84
18, 168891, Note_on_c, 13, 58, 0
18, 168900, Note_on_c, 13, 58, 84
18, 168951, Note_on_c, 13, 58, 0
18, 168960, Note_on_c, 13, 70, 84
18, 169011, Note_on_c, 13, 70, 0
18, 169020, Note_on_c, 13, 70, 84
18, 169071, Note_on_c, 13, 70, 0
18, 169080, Note_on_c, 13, 71, 84
18, 169199, Note_on_c, 13, 71, 0
18, 169680, Note_on_c, 13, 67, 84
18, 169731, Note_on_c, 13, 67, 0
18, 169740, Note_on_c, 13, 67, 84
18, 169791, Note_on_c, 13, 67, 0
18, 169800, Note_on_c, 13, 55, 84
18, 169851, Note_on_c, 13, 55, 0
18, 169860, Note_on_c, 13, 55, 84
18, 169911, Note_on_c, 13, 55, 0
18, 169920, Note_on_c, 13, 67, 84
18, 169971, Note_on_c, 13, 67, 0
18, 169980, Note_on_c, 13, 67, 84
18, 170031, Note_on_c, 13, 67, 0
18, 170040, Note_on_c, 13, 68, 84
18, 170159, Note_on_c, 13, 68, 0
18, 170640, Note_on_c, 13, 63, 84
18, 170691, Note_on_c, 13, 63, 0
18, 170700, Note_on_c, 13, 63, 84
18, 170751, Note_on_c, 13, 63, 0
18, 170760, Note_on_c, 13, 51, 84
18, 170811, Note_on_c, 13, 51, 0
18, 170820, Note_on_c, 13, 51, 84
18, 170871, Note_on_c, 13, 51, 0
18, 170880, Note_on_c, 13, 63, 84
18, 170931, Note_on_c, 13, 63, 0
18, 170940, Note_on_c, 13, 63, 84
18, 170991, Note_on_c, 13, 63, 0
18, 171000, Note_on_c, 13, 55, 84
18, 171119, Note_on_c, 13, 55, 0
18, 171360, Note_on_c, 13, 67, 84
18, 171411, Note_on_c, 13, 67, 0
18, 171420, Note_on_c, 13, 67, 84
18, 171471, Note_on_c, 13, 67, 0
18, 171480, Note_on_c, 13, 60, 84
18, 171531, Note_on_c, 13, 60, 0
18, 171540, Note_on_c, 13, 60, 84
18, 171591, Note_on_c, 13, 60, 0
18, 171600, Note_on_c, 13, 62, 84
18, 171651, Note_on_c, 13, 62, 0
18, 171660, Note_on_c, 13, 62, 84
18, 171711, Note_on_c, 13, 62, 0
18, 171720, Note_on_c, 13, 63, 84
18, 171771, Note_on_c, 13, 63, 0
18, 171780, Note_on_c, 13, 63, 84
18, 171831, Note_on_c, 13, 63, 0
18, 171840, Note_on_c, 13, 65, 84
18, 171891, Note_on_c, 13, 65, 0
18, 171900, Note_on_c, 13, 65, 84
18, 171951, Note_on_c, 13, 65, 0
18, 171960, Note_on_c, 13, 66, 84
18, 172011, Note_on_c, 13, 66, 0
18, 172020, Note_on_c, 13, 54, 84
18, 172071, Note_on_c, 13, 54, 0
18, 172080, Note_on_c, 13, 55, 84
18, 172131, Note_on_c, 13, 55, 0
18, 172140, Note_on_c, 13, 55, 84
18, 172191, Note_on_c, 13, 55, 0
18, 172200, Note_on_c, 13, 56, 84
18, 172251, Note_on_c, 13, 56, 0
18, 172260, Note_on_c, 13, 56, 84
18, 172311, Note_on_c, 13, 56, 0
18, 172320, Note_on_c, 13, 57, 84
18, 172371, Note_on_c, 13, 57, 0
18, 172380, Note_on_c, 13, 57, 84
18, 172431, Note_on_c, 13, 57, 0
18, 172440, Note_on_c, 13, 58, 84
18, 172619, Note_on_c, 13, 58, 0
18, 172680, Note_on_c, 13, 58, 84
18, 172859, Note_on_c, 13, 58, 0
18, 172920, Note_on_c, 13, 51, 84
18, 173099, Note_on_c, 13, 51, 0
18, 173160, Note_on_c, 13, 63, 84
18, 173339, Note_on_c, 13, 63, 0
18, 173640, Note_on_c, 13, 56, 84
18, 173819, Note_on_c, 13, 56, 0
18, 173880, Note_on_c, 13, 50, 84
18, 174059, Note_on_c, 13, 50, 0
18, 174120, Note_on_c, 13, 62, 84
18, 174299, Note_on_c, 13, 62, 0
18, 174480, Note_on_c, 13, 55, 84
18, 174569, Note_on_c, 13, 55, 0
18, 174600, Note_on_c, 13, 48, 84
18, 174689, Note_on_c, 13, 48, 0
18, 174720, Note_on_c, 13, 60, 84
18, 174809, Note_on_c, 13, 60, 0
18, 174960, Note_on_c, 13, 65, 84
18, 175049, Note_on_c, 13, 65, 0
18, 175080, Note_on_c, 13, 58, 84
18, 175169, Note_on_c, 13, 58, 0
18, 175200, Note_on_c, 13, 70, 84
18, 175289, Note_on_c, 13, 70, 0
18, 175320, Note_on_c, 13, 63, 84
18, 175409, Note_on_c, 13, 63, 0
18, 175440, Note_on_c, 13, 51, 84
18, 175529, Note_on_c, 13, 51, 0
18, 175560, Note_on_c, 13, 57, 84
18, 175649, Note_on_c, 13, 57, 0
18, 175680, Note_on_c, 13, 62, 84
18, 175769, Note_on_c, 13, 62, 0
18, 175800, Note_on_c, 13, 55, 84
18, 175889, Note_on_c, 13, 55, 0
18, 175920, Note_on_c, 13, 60, 84
18, 176009, Note_on_c, 13, 60, 0
18, 176040, Note_on_c, 13, 65, 84
18, 176129, Note_on_c, 13, 65, 0
18, 176160, Note_on_c, 13, 53, 84
18, 176249, Note_on_c, 13, 53, 0
18, 176280, Note_on_c, 13, 63, 84
18, 176369, Note_on_c, 13, 63, 0
18, 176400, Note_on_c, 13, 56, 84
18, 176489, Note_on_c, 13, 56, 0
18, 176520, Note_on_c, 13, 62, 84
18, 176609, Note_on_c, 13, 62, 0
18, 176640, Note_on_c, 13, 67, 84
18, 176729, Note_on_c, 13, 67, 0
18, 176760, Note_on_c, 13, 60, 84
18, 176864, Note_on_c, 13, 60, 0
18, 176880, Note_on_c, 13, 65, 84
18, 176984, Note_on_c, 13, 65, 0
18, 177000, Note_on_c, 13, 65, 84
18, 177104, Note_on_c, 13, 65, 0
18, 177120, Note_on_c, 13, 53, 84
18, 177224, Note_on_c, 13, 53, 0
18, 177240, Note_on_c, 13, 53, 84
18, 177344, Note_on_c, 13, 53, 0
18, 177360, Note_on_c, 13, 50, 84
18, 177464, Note_on_c, 13, 50, 0
18, 177480, Note_on_c, 13, 56, 84
18, 177584, Note_on_c, 13, 56, 0
18, 177600, Note_on_c, 13, 53, 84
18, 177704, Note_on_c, 13, 53, 0
18, 177720, Note_on_c, 13, 56, 84
18, 177824, Note_on_c, 13, 56, 0
18, 177840, Note_on_c, 13, 53, 84
18, 177944, Note_on_c, 13, 53, 0
18, 177960, Note_on_c, 13, 62, 84
18, 178064, Note_on_c, 13, 62, 0
18, 178080, Note_on_c, 13, 56, 84
18, 178184, Note_on_c, 13, 56, 0
18, 178200, Note_on_c, 13, 65, 84
18, 178304, Note_on_c, 13, 65, 0
18, 178320, Note_on_c, 13, 62, 84
18, 178424, Note_on_c, 13, 62, 0
18, 178440, Note_on_c, 13, 68, 84
18, 178544, Note_on_c, 13, 68, 0
18, 178560, Note_on_c, 13, 65, 84
18, 178664, Note_on_c, 13, 65, 0
18, 178680, Note_on_c, 13, 74, 84
18, 178784, Note_on_c, 13, 74, 0
18, 178800, Note_on_c, 13, 56, 84
18, 178904, Note_on_c, 13, 56, 0
18, 178920, Note_on_c, 13, 53, 84
18, 179024, Note_on_c, 13, 53, 0
18, 179040, Note_on_c, 13, 50, 84
18, 179144, Note_on_c, 13, 50, 0
18, 179160, Note_on_c, 13, 62, 84
18, 179211, Note_on_c, 13, 62, 0
18, 179220, Note_on_c, 13, 62, 84
18, 179271, Note_on_c, 13, 62, 0
18, 179280, Note_on_c, 13, 63, 84
18, 179331, Note_on_c, 13, 63, 0
18, 179340, Note_on_c, 13, 63, 84
18, 179391, Note_on_c, 13, 63, 0
18, 179400, Note_on_c, 13, 62, 84
18, 179451, Note_on_c, 13, 62, 0
18, 179460, Note_on_c, 13, 62, 84
18, 179511, Note_on_c, 13, 62, 0
18, 179520, Note_on_c, 13, 63, 84
18, 179571, Note_on_c, 13, 63, 0
18, 179580, Note_on_c, 13, 63, 84
18, 179631, Note_on_c, 13, 63, 0
18, 179640, Note_on_c, 13, 62, 84
18, 179691, Note_on_c, 13, 62, 0
18, 179700, Note_on_c, 13, 62, 84
18, 179751, Note_on_c, 13, 62, 0
18, 179760, Note_on_c, 13, 63, 84
18, 179811, Note_on_c, 13, 63, 0
18, 179820, Note_on_c, 13, 63, 84
18, 179871, Note_on_c, 13, 63, 0
18, 179880, Note_on_c, 13, 62, 84
18, 179931, Note_on_c, 13, 62, 0
18, 179940, Note_on_c, 13, 62, 84
18, 179991, Note_on_c, 13, 62, 0
18, 180000, Note_on_c, 13, 63, 84
18, 180051, Note_on_c, 13, 63, 0
18, 180060, Note_on_c, 13, 63, 84
18, 180111, Note_on_c, 13, 63, 0
18, 180120, Note_on_c, 13, 62, 84
18, 180224, Note_on_c, 13, 62, 0
18, 180240, Note_on_c, 13, 62, 84
18, 180464, Note_on_c, 13, 62, 0
18, 180480, Note_on_c, 13, 62, 84
18, 180704, Note_on_c, 13, 62, 0
18, 180720, Note_on_c, 13, 62, 84
18, 180944, Note_on_c, 13, 62, 0
18, 180960, Note_on_c, 13, 62, 92
18, 181079, Note_on_c, 13, 62, 0
18, 181080, Note_on_c, 13, 62, 84
18, 181544, Note_on_c, 13, 62, 0
18, 181560, Note_on_c, 13, 65, 84
18, 181560, Note_on_c, 13, 58, 84
18, 182024, Note_on_c, 13, 65, 0
18, 182024, Note_on_c, 13, 58, 0
18, 182040, Note_on_c, 13, 65, 92
18, 182040, Note_on_c, 13, 58, 92
18, 182369, Note_on_c, 13, 65, 0
18, 182369, Note_on_c, 13, 58, 0
18, 186240, Note_on_c, 13, 55, 52
18, 186359, Note_on_c, 13, 55, 0
18, 186360, Note_on_c, 13, 55, 52
18, 186599, Note_on_c, 13, 55, 0
18, 186600, Note_on_c, 13, 54, 52
18, 186809, Note_on_c, 13, 54, 0
18, 186810, Note_on_c, 13, 53, 52
18, 186835, Note_on_c, 13, 53, 0
18, 186840, Note_on_c, 13, 53, 52
18, 187199, Note_on_c, 13, 53, 0
18, 187200, Note_on_c, 13, 53, 52
18, 187311, Note_on_c, 13, 53, 0
18, 187320, Note_on_c, 13, 60, 52
18, 187559, Note_on_c, 13, 60, 0
18, 187560, Note_on_c, 13, 56, 68
18, 187769, Note_on_c, 13, 56, 0
18, 187770, Note_on_c, 13, 55, 52
18, 187795, Note_on_c, 13, 55, 0
18, 187800, Note_on_c, 13, 55, 52
18, 188159, Note_on_c, 13, 55, 0
18, 188160, Note_on_c, 13, 58, 52
18, 188271, Note_on_c, 13, 58, 0
18, 188278, Control_c, 13, 11, 96
18, 188280, Control_c, 13, 11, 96
18, 188280, Note_on_c, 13, 58, 68
18, 188300, Control_c, 13, 11, 97
18, 188320, Control_c, 13, 11, 99
18, 188340, Control_c, 13, 11, 100
18, 188360, Control_c, 13, 11, 101
18, 188380, Control_c, 13, 11, 102
18, 188400, Control_c, 13, 11, 104
18, 188420, Control_c, 13, 11, 105
18, 188440, Control_c, 13, 11, 106
18, 188460, Control_c, 13, 11, 108
18, 188480, Control_c, 13, 11, 109
18, 188500, Control_c, 13, 11, 110
18, 188519, Note_on_c, 13, 58, 0
18, 188520, Control_c, 13, 11, 112
18, 188520, Note_on_c, 13, 65, 68
18, 188540, Control_c, 13, 11, 113
18, 188560, Control_c, 13, 11, 114
18, 188580, Control_c, 13, 11, 115
18, 188600, Control_c, 13, 11, 117
18, 188620, Control_c, 13, 11, 118
18, 188640, Control_c, 13, 11, 119
18, 188660, Control_c, 13, 11, 121
18, 188680, Control_c, 13, 11, 122
18, 188700, Control_c, 13, 11, 123
18, 188720, Control_c, 13, 11, 124
18, 188729, Note_on_c, 13, 65, 0
18, 188730, Note_on_c, 13, 63, 68
18, 188740, Control_c, 13, 11, 127
18, 188755, Note_on_c, 13, 63, 0
18, 188760, Note_on_c, 13, 63, 76
18, 188790, Control_c, 13, 11, 112
18, 188809, Control_c, 13, 11, 111
18, 188828, Control_c, 13, 11, 109
18, 188846, Control_c, 13, 11, 108
18, 188865, Control_c, 13, 11, 107
18, 188884, Control_c, 13, 11, 105
18, 188903, Control_c, 13, 11, 104
18, 188921, Control_c, 13, 11, 103
18, 188940, Control_c, 13, 11, 101
18, 188959, Control_c, 13, 11, 100
18, 188978, Control_c, 13, 11, 99
18, 188996, Control_c, 13, 11, 97
18, 189015, Control_c, 13, 11, 96
18, 189034, Control_c, 13, 11, 95
18, 189053, Control_c, 13, 11, 93
18, 189071, Control_c, 13, 11, 92
18, 189090, Control_c, 13, 11, 91
18, 189104, Note_on_c, 13, 63, 0
18, 189109, Control_c, 13, 11, 89
18, 189120, Note_on_c, 13, 63, 76
18, 189128, Control_c, 13, 11, 88
18, 189146, Control_c, 13, 11, 87
18, 189165, Control_c, 13, 11, 85
18, 189184, Control_c, 13, 11, 84
18, 189203, Control_c, 13, 11, 83
18, 189221, Control_c, 13, 11, 80
18, 189239, Note_on_c, 13, 63, 0
18, 189240, Note_on_c, 13, 63, 76
18, 189351, Note_on_c, 13, 63, 0
18, 189360, Note_on_c, 13, 58, 76
18, 189591, Note_on_c, 13, 58, 0
18, 189600, Note_on_c, 13, 57, 76
18, 189719, Note_on_c, 13, 57, 0
18, 189720, Note_on_c, 13, 57, 76
18, 189720, Control_c, 13, 11, 80
18, 189730, Control_c, 13, 11, 83
18, 189740, Control_c, 13, 11, 85
18, 189750, Control_c, 13, 11, 88
18, 189760, Control_c, 13, 11, 91
18, 189770, Control_c, 13, 11, 93
18, 189780, Control_c, 13, 11, 96
18, 189790, Control_c, 13, 11, 99
18, 189800, Control_c, 13, 11, 101
18, 189810, Control_c, 13, 11, 104
18, 189820, Control_c, 13, 11, 107
18, 189830, Control_c, 13, 11, 109
18, 189840, Control_c, 13, 11, 112
18, 189850, Control_c, 13, 11, 109
18, 189860, Control_c, 13, 11, 107
18, 189870, Control_c, 13, 11, 104
18, 189880, Control_c, 13, 11, 101
18, 189890, Control_c, 13, 11, 99
18, 189900, Control_c, 13, 11, 96
18, 189910, Control_c, 13, 11, 93
18, 189920, Control_c, 13, 11, 91
18, 189929, Note_on_c, 13, 57, 0
18, 189930, Control_c, 13, 11, 88
18, 189930, Note_on_c, 13, 58, 76
18, 189940, Control_c, 13, 11, 85
18, 189950, Control_c, 13, 11, 80
18, 189955, Note_on_c, 13, 58, 0
18, 189960, Note_on_c, 13, 58, 76
18, 190049, Note_on_c, 13, 58, 0
18, 190125, Control_c, 13, 11, 96
18, 190320, Note_on_c, 13, 58, 68
18, 190439, Note_on_c, 13, 58, 0
18, 190560, Note_on_c, 13, 58, 68
18, 190605, Control_c, 13, 11, 112
18, 190679, Note_on_c, 13, 58, 0
18, 190800, Note_on_c, 13, 58, 60
18, 190919, Note_on_c, 13, 58, 0
18, 191040, Note_on_c, 13, 58, 60
18, 191159, Note_on_c, 13, 58, 0
18, 191280, Note_on_c, 13, 58, 60
18, 191399, Note_on_c, 13, 58, 0
18, 191520, Note_on_c, 13, 58, 60
18, 191565, Control_c, 13, 11, 127
18, 191639, Note_on_c, 13, 58, 0
18, 191760, Note_on_c, 13, 58, 52
18, 191879, Note_on_c, 13, 58, 0
18, 192000, Note_on_c, 13, 56, 52
18, 192000, Note_on_c, 13, 62, 52
18, 192119, Note_on_c, 13, 56, 0
18, 192119, Note_on_c, 13, 62, 0
18, 192200, Control_c, 13, 11, 99
18, 192240, Note_on_c, 13, 55, 68
18, 192240, Control_c, 13, 11, 100
18, 192240, Note_on_c, 13, 63, 68
18, 192280, Control_c, 13, 11, 101
18, 192320, Control_c, 13, 11, 102
18, 192359, Note_on_c, 13, 55, 0
18, 192359, Note_on_c, 13, 63, 0
18, 192360, Control_c, 13, 11, 104
18, 192400, Control_c, 13, 11, 105
18, 192440, Control_c, 13, 11, 106
18, 192480, Control_c, 13, 11, 108
18, 192480, Note_on_c, 13, 63, 68
18, 192520, Control_c, 13, 11, 109
18, 192560, Control_c, 13, 11, 110
18, 192599, Note_on_c, 13, 63, 0
18, 192600, Control_c, 13, 11, 112
18, 192640, Control_c, 13, 11, 113
18, 192680, Control_c, 13, 11, 114
18, 192720, Control_c, 13, 11, 115
18, 192720, Note_on_c, 13, 63, 68
18, 192760, Control_c, 13, 11, 117
18, 192800, Control_c, 13, 11, 118
18, 192839, Note_on_c, 13, 63, 0
18, 192840, Control_c, 13, 11, 119
18, 192880, Control_c, 13, 11, 121
18, 192920, Control_c, 13, 11, 122
18, 192960, Note_on_c, 13, 63, 68
18, 192960, Control_c, 13, 11, 123
18, 193000, Control_c, 13, 11, 124
18, 193040, Control_c, 13, 11, 127
18, 193079, Note_on_c, 13, 63, 0
18, 193080, Control_c, 13, 11, 96
18, 193090, Control_c, 13, 11, 97
18, 193100, Control_c, 13, 11, 99
18, 193110, Control_c, 13, 11, 100
18, 193120, Control_c, 13, 11, 101
18, 193130, Control_c, 13, 11, 102
18, 193140, Control_c, 13, 11, 104
18, 193150, Control_c, 13, 11, 105
18, 193160, Control_c, 13, 11, 106
18, 193170, Control_c, 13, 11, 108
18, 193180, Control_c, 13, 11, 109
18, 193190, Control_c, 13, 11, 110
18, 193200, Control_c, 13, 11, 112
18, 193200, Note_on_c, 13, 63, 68
18, 193210, Control_c, 13, 11, 113
18, 193220, Control_c, 13, 11, 114
18, 193230, Control_c, 13, 11, 115
18, 193240, Control_c, 13, 11, 117
18, 193250, Control_c, 13, 11, 118
18, 193260, Control_c, 13, 11, 119
18, 193270, Control_c, 13, 11, 121
18, 193280, Control_c, 13, 11, 122
18, 193290, Control_c, 13, 11, 123
18, 193300, Control_c, 13, 11, 124
18, 193310, Control_c, 13, 11, 126
18, 193319, Note_on_c, 13, 63, 0
18, 193320, Control_c, 13, 11, 127
18, 193330, Control_c, 13, 11, 126
18, 193340, Control_c, 13, 11, 124
18, 193350, Control_c, 13, 11, 123
18, 193360, Control_c, 13, 11, 122
18, 193370, Control_c, 13, 11, 121
18, 193380, Control_c, 13, 11, 119
18, 193390, Control_c, 13, 11, 118
18, 193400, Control_c, 13, 11, 117
18, 193410, Control_c, 13, 11, 115
18, 193420, Control_c, 13, 11, 114
18, 193430, Control_c, 13, 11, 113
18, 193440, Note_on_c, 13, 62, 68
18, 193440, Control_c, 13, 11, 112
18, 193450, Control_c, 13, 11, 110
18, 193460, Control_c, 13, 11, 109
18, 193470, Control_c, 13, 11, 108
18, 193480, Control_c, 13, 11, 106
18, 193490, Control_c, 13, 11, 105
18, 193500, Control_c, 13, 11, 104
18, 193510, Control_c, 13, 11, 102
18, 193520, Control_c, 13, 11, 101
18, 193530, Control_c, 13, 11, 100
18, 193540, Control_c, 13, 11, 99
18, 193550, Control_c, 13, 11, 96
18, 193551, Note_on_c, 13, 62, 0
18, 193560, Control_c, 13, 11, 96
18, 193560, Note_on_c, 13, 63, 68
18, 193580, Control_c, 13, 11, 97
18, 193600, Control_c, 13, 11, 99
18, 193615, Note_on_c, 13, 63, 0
18, 193620, Control_c, 13, 11, 100
18, 193620, Note_on_c, 13, 58, 68
18, 193640, Control_c, 13, 11, 101
18, 193660, Control_c, 13, 11, 102
18, 193679, Note_on_c, 13, 58, 0
18, 193680, Control_c, 13, 11, 104
18, 193680, Note_on_c, 13, 57, 68
18, 193700, Control_c, 13, 11, 105
18, 193720, Control_c, 13, 11, 106
18, 193739, Note_on_c, 13, 57, 0
18, 193740, Control_c, 13, 11, 108
18, 193740, Note_on_c, 13, 58, 68
18, 193760, Control_c, 13, 11, 109
18, 193780, Control_c, 13, 11, 110
18, 193799, Note_on_c, 13, 58, 0
18, 193800, Note_on_c, 13, 56, 68
18, 193800, Control_c, 13, 11, 112
18, 193820, Control_c, 13, 11, 113
18, 193840, Control_c, 13, 11, 114
18, 193859, Note_on_c, 13, 56, 0
18, 193860, Note_on_c, 13, 55, 68
18, 193860, Control_c, 13, 11, 115
18, 193880, Control_c, 13, 11, 117
18, 193900, Control_c, 13, 11, 118
18, 193919, Note_on_c, 13, 55, 0
18, 193920, Control_c, 13, 11, 119
18, 193920, Note_on_c, 13, 53, 68
18, 193940, Control_c, 13, 11, 121
18, 193960, Control_c, 13, 11, 122
18, 193979, Note_on_c, 13, 53, 0
18, 193980, Control_c, 13, 11, 123
18, 193980, Note_on_c, 13, 51, 68
18, 194000, Control_c, 13, 11, 124
18, 194020, Control_c, 13, 11, 127
18, 194035, Note_on_c, 13, 51, 0
18, 194040, Note_on_c, 13, 58, 52
18, 194159, Note_on_c, 13, 58, 0
18, 194560, Note_on_c, 13, 58, 52
18, 194589, Note_on_c, 13, 58, 0
18, 194600, Note_on_c, 13, 58, 52
18, 194629, Note_on_c, 13, 58, 0
18, 194640, Note_on_c, 13, 58, 52
18, 194669, Note_on_c, 13, 58, 0
18, 194680, Note_on_c, 13, 58, 52
18, 194709, Note_on_c, 13, 58, 0
18, 194720, Note_on_c, 13, 58, 52
18, 194749, Note_on_c, 13, 58, 0
18, 194760, Note_on_c, 13, 56, 52
18, 194789, Note_on_c, 13, 56, 0
18, 194800, Note_on_c, 13, 55, 52
18, 194829, Note_on_c, 13, 55, 0
18, 194840, Note_on_c, 13, 53, 52
18, 194869, Note_on_c, 13, 53, 0
18, 194880, Note_on_c, 13, 51, 52
18, 194909, Note_on_c, 13, 51, 0
18, 194920, Note_on_c, 13, 50, 52
18, 194949, Note_on_c, 13, 50, 0
18, 194960, Note_on_c, 13, 60, 52
18, 194989, Note_on_c, 13, 60, 0
18, 195000, Note_on_c, 13, 58, 52
18, 195119, Note_on_c, 13, 58, 0
18, 195520, Note_on_c, 13, 56, 52
18, 195549, Note_on_c, 13, 56, 0
18, 195560, Note_on_c, 13, 56, 52
18, 195589, Note_on_c, 13, 56, 0
18, 195600, Note_on_c, 13, 56, 52
18, 195629, Note_on_c, 13, 56, 0
18, 195640, Note_on_c, 13, 56, 52
18, 195669, Note_on_c, 13, 56, 0
18, 195680, Note_on_c, 13, 55, 52
18, 195709, Note_on_c, 13, 55, 0
18, 195720, Note_on_c, 13, 53, 52
18, 195749, Note_on_c, 13, 53, 0
18, 195760, Note_on_c, 13, 63, 52
18, 195789, Note_on_c, 13, 63, 0
18, 195800, Note_on_c, 13, 62, 52
18, 195829, Note_on_c, 13, 62, 0
18, 195840, Note_on_c, 13, 60, 52
18, 195869, Note_on_c, 13, 60, 0
18, 195880, Note_on_c, 13, 58, 52
18, 195909, Note_on_c, 13, 58, 0
18, 195920, Note_on_c, 13, 56, 52
18, 195949, Note_on_c, 13, 56, 0
18, 195960, Note_on_c, 13, 55, 52
18, 196079, Note_on_c, 13, 55, 0
18, 196240, Note_on_c, 13, 67, 52
18, 196269, Note_on_c, 13, 67, 0
18, 196280, Note_on_c, 13, 63, 53
18, 196309, Note_on_c, 13, 63, 0
18, 196320, Note_on_c, 13, 58, 54
18, 196349, Note_on_c, 13, 58, 0
18, 196360, Note_on_c, 13, 63, 55
18, 196389, Note_on_c, 13, 63, 0
18, 196400, Note_on_c, 13, 55, 56
18, 196429, Note_on_c, 13, 55, 0
18, 196440, Note_on_c, 13, 56, 57
18, 196559, Note_on_c, 13, 56, 0
18, 196720, Note_on_c, 13, 68, 63
18, 196749, Note_on_c, 13, 68, 0
18, 196760, Note_on_c, 13, 65, 64
18, 196789, Note_on_c, 13, 65, 0
18, 196800, Note_on_c, 13, 60, 65
18, 196829, Note_on_c, 13, 60, 0
18, 196840, Note_on_c, 13, 65, 66
18, 196869, Note_on_c, 13, 65, 0
18, 196880, Note_on_c, 13, 56, 67
18, 196909, Note_on_c, 13, 56, 0
18, 196920, Note_on_c, 13, 58, 52
18, 197039, Note_on_c, 13, 58, 0
18, 197200, Note_on_c, 13, 58, 52
18, 197235, Note_on_c, 13, 58, 0
18, 197240, Note_on_c, 13, 58, 52
18, 197275, Note_on_c, 13, 58, 0
18, 197280, Note_on_c, 13, 58, 52
18, 197315, Note_on_c, 13, 58, 0
18, 197320, Note_on_c, 13, 58, 52
18, 197355, Note_on_c, 13, 58, 0
18, 197360, Note_on_c, 13, 58, 52
18, 197395, Note_on_c, 13, 58, 0
18, 197400, Note_on_c, 13, 63, 52
18, 197519, Note_on_c, 13, 63, 0
18, 197760, Note_on_c, 13, 55, 84
18, 197795, Note_on_c, 13, 55, 0
18, 197800, Note_on_c, 13, 55, 84
18, 197835, Note_on_c, 13, 55, 0
18, 197840, Note_on_c, 13, 55, 84
18, 197875, Note_on_c, 13, 55, 0
18, 197880, Note_on_c, 13, 58, 84
18, 197915, Note_on_c, 13, 58, 0
18, 197920, Note_on_c, 13, 58, 84
18, 197955, Note_on_c, 13, 58, 0
18, 197960, Note_on_c, 13, 58, 84
18, 197995, Note_on_c, 13, 58, 0
18, 198000, Note_on_c, 13, 58, 84
18, 198035, Note_on_c, 13, 58, 0
18, 198040, Note_on_c, 13, 58, 84
18, 198075, Note_on_c, 13, 58, 0
18, 198080, Note_on_c, 13, 58, 84
18, 198115, Note_on_c, 13, 58, 0
18, 198120, Note_on_c, 13, 58, 84
18, 198155, Note_on_c, 13, 58, 0
18, 198160, Note_on_c, 13, 58, 84
18, 198195, Note_on_c, 13, 58, 0
18, 198200, Note_on_c, 13, 58, 84
18, 198235, Note_on_c, 13, 58, 0
18, 198240, Note_on_c, 13, 55, 84
18, 198275, Note_on_c, 13, 55, 0
18, 198280, Note_on_c, 13, 55, 84
18, 198315, Note_on_c, 13, 55, 0
18, 198320, Note_on_c, 13, 55, 84
18, 198355, Note_on_c, 13, 55, 0
18, 198360, Note_on_c, 13, 53, 84
18, 198395, Note_on_c, 13, 53, 0
18, 198400, Note_on_c, 13, 53, 84
18, 198435, Note_on_c, 13, 53, 0
18, 198440, Note_on_c, 13, 53, 84
18, 198475, Note_on_c, 13, 53, 0
18, 198480, Note_on_c, 13, 53, 84
18, 198515, Note_on_c, 13, 53, 0
18, 198520, Note_on_c, 13, 53, 84
18, 198555, Note_on_c, 13, 53, 0
18, 198560, Note_on_c, 13, 53, 84
18, 198595, Note_on_c, 13, 53, 0
18, 198600, Note_on_c, 13, 53, 84
18, 198635, Note_on_c, 13, 53, 0
18, 198640, Note_on_c, 13, 53, 84
18, 198675, Note_on_c, 13, 53, 0
18, 198680, Note_on_c, 13, 53, 84
18, 198715, Note_on_c, 13, 53, 0
18, 198720, Note_on_c, 13, 56, 84
18, 198755, Note_on_c, 13, 56, 0
18, 198760, Note_on_c, 13, 56, 84
18, 198795, Note_on_c, 13, 56, 0
18, 198800, Note_on_c, 13, 56, 84
18, 198835, Note_on_c, 13, 56, 0
18, 198840, Note_on_c, 13, 58, 84
18, 198875, Note_on_c, 13, 58, 0
18, 198880, Note_on_c, 13, 58, 84
18, 198915, Note_on_c, 13, 58, 0
18, 198920, Note_on_c, 13, 58, 84
18, 198955, Note_on_c, 13, 58, 0
18, 198960, Note_on_c, 13, 58, 84
18, 198995, Note_on_c, 13, 58, 0
18, 199000, Note_on_c, 13, 58, 84
18, 199035, Note_on_c, 13, 58, 0
18, 199040, Note_on_c, 13, 58, 84
18, 199075, Note_on_c, 13, 58, 0
18, 199080, Note_on_c, 13, 58, 84
18, 199115, Note_on_c, 13, 58, 0
18, 199120, Note_on_c, 13, 58, 84
18, 199155, Note_on_c, 13, 58, 0
18, 199160, Note_on_c, 13, 58, 84
18, 199195, Note_on_c, 13, 58, 0
18, 199200, Note_on_c, 13, 56, 84
18, 199235, Note_on_c, 13, 56, 0
18, 199240, Note_on_c, 13, 56, 84
18, 199275, Note_on_c, 13, 56, 0
18, 199280, Note_on_c, 13, 56, 84
18, 199315, Note_on_c, 13, 56, 0
18, 199320, Note_on_c, 13, 55, 84
18, 199355, Note_on_c, 13, 55, 0
18, 199360, Note_on_c, 13, 55, 84
18, 199395, Note_on_c, 13, 55, 0
18, 199400, Note_on_c, 13, 55, 84
18, 199435, Note_on_c, 13, 55, 0
18, 199440, Note_on_c, 13, 55, 84
18, 199475, Note_on_c, 13, 55, 0
18, 199480, Note_on_c, 13, 55, 84
18, 199515, Note_on_c, 13, 55, 0
18, 199520, Note_on_c, 13, 55, 84
18, 199555, Note_on_c, 13, 55, 0
18, 199560, Note_on_c, 13, 55, 84
18, 199595, Note_on_c, 13, 55, 0
18, 199600, Note_on_c, 13, 55, 84
18, 199635, Note_on_c, 13, 55, 0
18, 199640, Note_on_c, 13, 55, 84
18, 199675, Note_on_c, 13, 55, 0
18, 199680, Note_on_c, 13, 58, 84
18, 199715, Note_on_c, 13, 58, 0
18, 199720, Note_on_c, 13, 58, 84
18, 199755, Note_on_c, 13, 58, 0
18, 199760, Note_on_c, 13, 58, 84
18, 199795, Note_on_c, 13, 58, 0
18, 199800, Note_on_c, 13, 63, 84
18, 199835, Note_on_c, 13, 63, 0
18, 199840, Note_on_c, 13, 63, 84
18, 199875, Note_on_c, 13, 63, 0
18, 199880, Note_on_c, 13, 63, 84
18, 199915, Note_on_c, 13, 63, 0
18, 199920, Note_on_c, 13, 63, 84
18, 199955, Note_on_c, 13, 63, 0
18, 199960, Note_on_c, 13, 63, 84
18, 199995, Note_on_c, 13, 63, 0
18, 200000, Note_on_c, 13, 63, 84
18, 200035, Note_on_c, 13, 63, 0
18, 200040, Note_on_c, 13, 65, 84
18, 200075, Note_on_c, 13, 65, 0
18, 200080, Note_on_c, 13, 65, 84
18, 200115, Note_on_c, 13, 65, 0
18, 200120, Note_on_c, 13, 65, 84
18, 200155, Note_on_c, 13, 65, 0
18, 200160, Note_on_c, 13, 65, 84
18, 200195, Note_on_c, 13, 65, 0
18, 200200, Note_on_c, 13, 65, 84
18, 200235, Note_on_c, 13, 65, 0
18, 200240, Note_on_c, 13, 65, 84
18, 200275, Note_on_c, 13, 65, 0
18, 200280, Note_on_c, 13, 63, 92
18, 200315, Note_on_c, 13, 63, 0
18, 200320, Note_on_c, 13, 63, 84
18, 200355, Note_on_c, 13, 63, 0
18, 200360, Note_on_c, 13, 63, 84
18, 200395, Note_on_c, 13, 63, 0
18, 200400, Note_on_c, 13, 63, 84
18, 200435, Note_on_c, 13, 63, 0
18, 200440, Note_on_c, 13, 63, 84
18, 200475, Note_on_c, 13, 63, 0
18, 200480, Note_on_c, 13, 63, 84
18, 200515, Note_on_c, 13, 63, 0
18, 200520, Note_on_c, 13, 63, 84
18, 200555, Note_on_c, 13, 63, 0
18, 200560, Note_on_c, 13, 63, 84
18, 200595, Note_on_c, 13, 63, 0
18, 200600, Note_on_c, 13, 63, 84
18, 200635, Note_on_c, 13, 63, 0
18, 200640, Note_on_c, 13, 58, 84
18, 200675, Note_on_c, 13, 58, 0
18, 200680, Note_on_c, 13, 58, 84
18, 200715, Note_on_c, 13, 58, 0
18, 200720, Note_on_c, 13, 58, 84
18, 200755, Note_on_c, 13, 58, 0
18, 200760, Note_on_c, 13, 58, 84
18, 200795, Note_on_c, 13, 58, 0
18, 200800, Note_on_c, 13, 58, 84
18, 200835, Note_on_c, 13, 58, 0
18, 200840, Note_on_c, 13, 58, 84
18, 200875, Note_on_c, 13, 58, 0
18, 200880, Note_on_c, 13, 58, 84
18, 200915, Note_on_c, 13, 58, 0
18, 200920, Note_on_c, 13, 58, 84
18, 200955, Note_on_c, 13, 58, 0
18, 200960, Note_on_c, 13, 58, 84
18, 200995, Note_on_c, 13, 58, 0
18, 201000, Note_on_c, 13, 58, 84
18, 201035, Note_on_c, 13, 58, 0
18, 201040, Note_on_c, 13, 58, 84
18, 201075, Note_on_c, 13, 58, 0
18, 201080, Note_on_c, 13, 58, 84
18, 201115, Note_on_c, 13, 58, 0
18, 201120, Note_on_c, 13, 58, 84
18, 201155, Note_on_c, 13, 58, 0
18, 201160, Note_on_c, 13, 58, 84
18, 201195, Note_on_c, 13, 58, 0
18, 201200, Note_on_c, 13, 58, 84
18, 201235, Note_on_c, 13, 58, 0
18, 201240, Note_on_c, 13, 58, 84
18, 201275, Note_on_c, 13, 58, 0
18, 201280, Note_on_c, 13, 58, 84
18, 201315, Note_on_c, 13, 58, 0
18, 201320, Note_on_c, 13, 58, 84
18, 201355, Note_on_c, 13, 58, 0
18, 201360, Note_on_c, 13, 58, 84
18, 201395, Note_on_c, 13, 58, 0
18, 201400, Note_on_c, 13, 58, 84
18, 201435, Note_on_c, 13, 58, 0
18, 201440, Note_on_c, 13, 58, 84
18, 201475, Note_on_c, 13, 58, 0
18, 201480, Note_on_c, 13, 58, 84
18, 201515, Note_on_c, 13, 58, 0
18, 201520, Note_on_c, 13, 58, 84
18, 201555, Note_on_c, 13, 58, 0
18, 201560, Note_on_c, 13, 58, 84
18, 201595, Note_on_c, 13, 58, 0
18, 201600, Note_on_c, 13, 58, 84
18, 201635, Note_on_c, 13, 58, 0
18, 201640, Note_on_c, 13, 58, 84
18, 201675, Note_on_c, 13, 58, 0
18, 201680, Note_on_c, 13, 58, 84
18, 201715, Note_on_c, 13, 58, 0
18, 201720, Note_on_c, 13, 58, 84
18, 201755, Note_on_c, 13, 58, 0
18, 201760, Note_on_c, 13, 58, 84
18, 201795, Note_on_c, 13, 58, 0
18, 201800, Note_on_c, 13, 58, 84
18, 201835, Note_on_c, 13, 58, 0
18, 201840, Note_on_c, 13, 58, 84
18, 201875, Note_on_c, 13, 58, 0
18, 201880, Note_on_c, 13, 58, 84
18, 201915, Note_on_c, 13, 58, 0
18, 201920, Note_on_c, 13, 58, 84
18, 201955, Note_on_c, 13, 58, 0
18, 201960, Note_on_c, 13, 58, 84
18, 201995, Note_on_c, 13, 58, 0
18, 202000, Note_on_c, 13, 58, 84
18, 202035, Note_on_c, 13, 58, 0
18, 202040, Note_on_c, 13, 58, 84
18, 202075, Note_on_c, 13, 58, 0
18, 202080, Note_on_c, 13, 58, 84
18, 202115, Note_on_c, 13, 58, 0
18, 202120, Note_on_c, 13, 58, 84
18, 202155, Note_on_c, 13, 58, 0
18, 202160, Note_on_c, 13, 58, 84
18, 202195, Note_on_c, 13, 58, 0
18, 202200, Note_on_c, 13, 65, 84
18, 202235, Note_on_c, 13, 65, 0
18, 202240, Note_on_c, 13, 65, 84
18, 202275, Note_on_c, 13, 65, 0
18, 202280, Note_on_c, 13, 67, 84
18, 202315, Note_on_c, 13, 67, 0
18, 202320, Note_on_c, 13, 68, 84
18, 202355, Note_on_c, 13, 68, 0
18, 202360, Note_on_c, 13, 68, 84
18, 202395, Note_on_c, 13, 68, 0
18, 202400, Note_on_c, 13, 67, 84
18, 202435, Note_on_c, 13, 67, 0
18, 202440, Note_on_c, 13, 65, 84
18, 202475, Note_on_c, 13, 65, 0
18, 202480, Note_on_c, 13, 65, 84
18, 202515, Note_on_c, 13, 65, 0
18, 202520, Note_on_c, 13, 63, 84
18, 202555, Note_on_c, 13, 63, 0
18, 202560, Note_on_c, 13, 62, 84
18, 202595, Note_on_c, 13, 62, 0
18, 202600, Note_on_c, 13, 62, 84
18, 202635, Note_on_c, 13, 62, 0
18, 202640, Note_on_c, 13, 60, 84
18, 202675, Note_on_c, 13, 60, 0
18, 202680, Note_on_c, 13, 58, 84
18, 202715, Note_on_c, 13, 58, 0
18, 202720, Note_on_c, 13, 58, 84
18, 202755, Note_on_c, 13, 58, 0
18, 202760, Note_on_c, 13, 58, 84
18, 202795, Note_on_c, 13, 58, 0
18, 202800, Note_on_c, 13, 58, 84
18, 202835, Note_on_c, 13, 58, 0
18, 202840, Note_on_c, 13, 58, 84
18, 202875, Note_on_c, 13, 58, 0
18, 202880, Note_on_c, 13, 58, 84
18, 202915, Note_on_c, 13, 58, 0
18, 202920, Note_on_c, 13, 58, 84
18, 202955, Note_on_c, 13, 58, 0
18, 202960, Note_on_c, 13, 58, 84
18, 202995, Note_on_c, 13, 58, 0
18, 203000, Note_on_c, 13, 58, 84
18, 203035, Note_on_c, 13, 58, 0
18, 203040, Note_on_c, 13, 58, 84
18, 203075, Note_on_c, 13, 58, 0
18, 203080, Note_on_c, 13, 58, 84
18, 203115, Note_on_c, 13, 58, 0
18, 203120, Note_on_c, 13, 58, 84
18, 203155, Note_on_c, 13, 58, 0
18, 203160, Note_on_c, 13, 58, 84
18, 203195, Note_on_c, 13, 58, 0
18, 203200, Note_on_c, 13, 65, 84
18, 203235, Note_on_c, 13, 65, 0
18, 203240, Note_on_c, 13, 65, 84
18, 203275, Note_on_c, 13, 65, 0
18, 203280, Note_on_c, 13, 58, 84
18, 203315, Note_on_c, 13, 58, 0
18, 203320, Note_on_c, 13, 65, 84
18, 203355, Note_on_c, 13, 65, 0
18, 203360, Note_on_c, 13, 65, 84
18, 203395, Note_on_c, 13, 65, 0
18, 203400, Note_on_c, 13, 58, 84
18, 203435, Note_on_c, 13, 58, 0
18, 203440, Note_on_c, 13, 65, 84
18, 203475, Note_on_c, 13, 65, 0
18, 203480, Note_on_c, 13, 65, 84
18, 203515, Note_on_c, 13, 65, 0
18, 203520, Note_on_c, 13, 66, 84
18, 203555, Note_on_c, 13, 66, 0
18, 203560, Note_on_c, 13, 66, 84
18, 203595, Note_on_c, 13, 66, 0
18, 203600, Note_on_c, 13, 66, 84
18, 203635, Note_on_c, 13, 66, 0
18, 203640, Note_on_c, 13, 67, 84
18, 203675, Note_on_c, 13, 67, 0
18, 203680, Note_on_c, 13, 63, 84
18, 203715, Note_on_c, 13, 63, 0
18, 203720, Note_on_c, 13, 63, 84
18, 203755, Note_on_c, 13, 63, 0
18, 203760, Note_on_c, 13, 63, 84
18, 203795, Note_on_c, 13, 63, 0
18, 203800, Note_on_c, 13, 63, 84
18, 203835, Note_on_c, 13, 63, 0
18, 203840, Note_on_c, 13, 63, 84
18, 203875, Note_on_c, 13, 63, 0
18, 203880, Note_on_c, 13, 63, 84
18, 203915, Note_on_c, 13, 63, 0
18, 203920, Note_on_c, 13, 63, 84
18, 203955, Note_on_c, 13, 63, 0
18, 203960, Note_on_c, 13, 63, 84
18, 203995, Note_on_c, 13, 63, 0
18, 204000, Note_on_c, 13, 58, 84
18, 204035, Note_on_c, 13, 58, 0
18, 204040, Note_on_c, 13, 58, 84
18, 204075, Note_on_c, 13, 58, 0
18, 204080, Note_on_c, 13, 58, 84
18, 204115, Note_on_c, 13, 58, 0
18, 204120, Note_on_c, 13, 56, 84
18, 204155, Note_on_c, 13, 56, 0
18, 204160, Note_on_c, 13, 56, 84
18, 204195, Note_on_c, 13, 56, 0
18, 204200, Note_on_c, 13, 56, 84
18, 204235, Note_on_c, 13, 56, 0
18, 204240, Note_on_c, 13, 56, 84
18, 204275, Note_on_c, 13, 56, 0
18, 204280, Note_on_c, 13, 56, 84
18, 204315, Note_on_c, 13, 56, 0
18, 204320, Note_on_c, 13, 56, 84
18, 204355, Note_on_c, 13, 56, 0
18, 204360, Note_on_c, 13, 56, 84
18, 204395, Note_on_c, 13, 56, 0
18, 204400, Note_on_c, 13, 60, 84
18, 204435, Note_on_c, 13, 60, 0
18, 204440, Note_on_c, 13, 60, 84
18, 204475, Note_on_c, 13, 60, 0
18, 204480, Note_on_c, 13, 56, 84
18, 204515, Note_on_c, 13, 56, 0
18, 204520, Note_on_c, 13, 56, 84
18, 204555, Note_on_c, 13, 56, 0
18, 204560, Note_on_c, 13, 56, 84
18, 204595, Note_on_c, 13, 56, 0
18, 204600, Note_on_c, 13, 55, 84
18, 204635, Note_on_c, 13, 55, 0
18, 204640, Note_on_c, 13, 58, 84
18, 204640, Note_on_c, 13, 63, 84
18, 204675, Note_on_c, 13, 58, 0
18, 204675, Note_on_c, 13, 63, 0
18, 204680, Note_on_c, 13, 63, 84
18, 204680, Note_on_c, 13, 58, 84
18, 204715, Note_on_c, 13, 63, 0
18, 204715, Note_on_c, 13, 58, 0
18, 204720, Note_on_c, 13, 63, 84
18, 204720, Note_on_c, 13, 58, 84
18, 204755, Note_on_c, 13, 63, 0
18, 204755, Note_on_c, 13, 58, 0
18, 204760, Note_on_c, 13, 63, 84
18, 204760, Note_on_c, 13, 58, 84
18, 204795, Note_on_c, 13, 63, 0
18, 204795, Note_on_c, 13, 58, 0
18, 204800, Note_on_c, 13, 58, 84
18, 204800, Note_on_c, 13, 63, 84
18, 204835, Note_on_c, 13, 58, 0
18, 204835, Note_on_c, 13, 63, 0
18, 204840, Note_on_c, 13, 62, 84
18, 204840, Note_on_c, 13, 58, 84
18, 204875, Note_on_c, 13, 62, 0
18, 204875, Note_on_c, 13, 58, 0
18, 204880, Note_on_c, 13, 58, 84
18, 204880, Note_on_c, 13, 62, 84
18, 204915, Note_on_c, 13, 58, 0
18, 204915, Note_on_c, 13, 62, 0
18, 204920, Note_on_c, 13, 58, 84
18, 204920, Note_on_c, 13, 62, 84
18, 204955, Note_on_c, 13, 58, 0
18, 204955, Note_on_c, 13, 62, 0
18, 204960, Note_on_c, 13, 58, 84
18, 204960, Note_on_c, 13, 62, 84
18, 204995, Note_on_c, 13, 58, 0
18, 204995, Note_on_c, 13, 62, 0
18, 205000, Note_on_c, 13, 58, 84
18, 205000, Note_on_c, 13, 62, 84
18, 205035, Note_on_c, 13, 58, 0
18, 205035, Note_on_c, 13, 62, 0
18, 205040, Note_on_c, 13, 58, 84
18, 205040, Note_on_c, 13, 62, 84
18, 205075, Note_on_c, 13, 58, 0
18, 205075, Note_on_c, 13, 62, 0
18, 205080, Note_on_c, 13, 58, 84
18, 205080, Note_on_c, 13, 63, 84
18, 205191, Note_on_c, 13, 58, 0
18, 205191, Note_on_c, 13, 63, 0
18, 205200, Note_on_c, 13, 51, 52
18, 205319, Note_on_c, 13, 51, 0
18, 205440, Note_on_c, 13, 55, 52
18, 205559, Note_on_c, 13, 55, 0
18, 205680, Note_on_c, 13, 58, 52
18, 205799, Note_on_c, 13, 58, 0
18, 205920, Note_on_c, 13, 63, 52
18, 206039, Note_on_c, 13, 63, 0
18, 206040, Note_on_c, 13, 65, 52
18, 206159, Note_on_c, 13, 65, 0
18, 206280, Note_on_c, 13, 65, 52
18, 206309, Note_on_c, 13, 65, 0
18, 206320, Note_on_c, 13, 67, 52
18, 206349, Note_on_c, 13, 67, 0
18, 206360, Note_on_c, 13, 68, 53
18, 206389, Note_on_c, 13, 68, 0
18, 206400, Note_on_c, 13, 67, 54
18, 206429, Note_on_c, 13, 67, 0
18, 206440, Note_on_c, 13, 65, 55
18, 206469, Note_on_c, 13, 65, 0
18, 206480, Note_on_c, 13, 63, 56
18, 206509, Note_on_c, 13, 63, 0
18, 206520, Note_on_c, 13, 62, 57
18, 206549, Note_on_c, 13, 62, 0
18, 206560, Note_on_c, 13, 63, 58
18, 206589, Note_on_c, 13, 63, 0
18, 206600, Note_on_c, 13, 65, 59
18, 206629, Note_on_c, 13, 65, 0
18, 206640, Note_on_c, 13, 63, 60
18, 206669, Note_on_c, 13, 63, 0
18, 206680, Note_on_c, 13, 62, 60
18, 206709, Note_on_c, 13, 62, 0
18, 206720, Note_on_c, 13, 60, 61
18, 206749, Note_on_c, 13, 60, 0
18, 206760, Note_on_c, 13, 58, 62
18, 206789, Note_on_c, 13, 58, 0
18, 206800, Note_on_c, 13, 60, 63
18, 206829, Note_on_c, 13, 60, 0
18, 206840, Note_on_c, 13, 58, 64
18, 206869, Note_on_c, 13, 58, 0
18, 206880, Note_on_c, 13, 56, 65
18, 206909, Note_on_c, 13, 56, 0
18, 206920, Note_on_c, 13, 55, 66
18, 206949, Note_on_c, 13, 55, 0
18, 206960, Note_on_c, 13, 53, 67
18, 206989, Note_on_c, 13, 53, 0
18, 207000, Note_on_c, 13, 51, 52
18, 207111, Note_on_c, 13, 51, 0
18, 207120, Note_on_c, 13, 51, 52
18, 207239, Note_on_c, 13, 51, 0
18, 207360, Note_on_c, 13, 55, 52
18, 207479, Note_on_c, 13, 55, 0
18, 207600, Note_on_c, 13, 58, 52
18, 207719, Note_on_c, 13, 58, 0
18, 207840, Note_on_c, 13, 63, 52
18, 207959, Note_on_c, 13, 63, 0
18, 207960, Note_on_c, 13, 68, 52
18, 207999, Note_on_c, 13, 68, 0
18, 208000, Note_on_c, 13, 70, 52
18, 208035, Note_on_c, 13, 70, 0
18, 208040, Note_on_c, 13, 72, 53
18, 208069, Note_on_c, 13, 72, 0
18, 208080, Note_on_c, 13, 70, 54
18, 208109, Note_on_c, 13, 70, 0
18, 208120, Note_on_c, 13, 68, 54
18, 208149, Note_on_c, 13, 68, 0
18, 208160, Note_on_c, 13, 67, 55
18, 208189, Note_on_c, 13, 67, 0
18, 208200, Note_on_c, 13, 65, 56
18, 208229, Note_on_c, 13, 65, 0
18, 208240, Note_on_c, 13, 63, 56
18, 208269, Note_on_c, 13, 63, 0
18, 208280, Note_on_c, 13, 62, 57
18, 208309, Note_on_c, 13, 62, 0
18, 208320, Note_on_c, 13, 60, 58
18, 208349, Note_on_c, 13, 60, 0
18, 208360, Note_on_c, 13, 58, 58
18, 208389, Note_on_c, 13, 58, 0
18, 208400, Note_on_c, 13, 56, 59
18, 208429, Note_on_c, 13, 56, 0
18, 208440, Note_on_c, 13, 55, 60
18, 208469, Note_on_c, 13, 55, 0
18, 208480, Note_on_c, 13, 51, 60
18, 208509, Note_on_c, 13, 51, 0
18, 208520, Note_on_c, 13, 53, 61
18, 208549, Note_on_c, 13, 53, 0
18, 208560, Note_on_c, 13, 55, 62
18, 208589, Note_on_c, 13, 55, 0
18, 208600, Note_on_c, 13, 55, 62
18, 208629, Note_on_c, 13, 55, 0
18, 208640, Note_on_c, 13, 56, 63
18, 208669, Note_on_c, 13, 56, 0
18, 208680, Note_on_c, 13, 58, 64
18, 208709, Note_on_c, 13, 58, 0
18, 208720, Note_on_c, 13, 60, 64
18, 208749, Note_on_c, 13, 60, 0
18, 208760, Note_on_c, 13, 61, 65
18, 208789, Note_on_c, 13, 61, 0
18, 208800, Note_on_c, 13, 63, 66
18, 208829, Note_on_c, 13, 63, 0
18, 208840, Note_on_c, 13, 65, 66
18, 208869, Note_on_c, 13, 65, 0
18, 208880, Note_on_c, 13, 67, 67
18, 208909, Note_on_c, 13, 67, 0
18, 208920, Note_on_c, 13, 68, 52
18, 208975, Note_on_c, 13, 68, 0
18, 208980, Note_on_c, 13, 51, 52
18, 209035, Note_on_c, 13, 51, 0
18, 209040, Note_on_c, 13, 51, 52
18, 209211, Note_on_c, 13, 51, 0
18, 209220, Note_on_c, 13, 51, 52
18, 209275, Note_on_c, 13, 51, 0
18, 209280, Note_on_c, 13, 51, 52
18, 209451, Note_on_c, 13, 51, 0
18, 209460, Note_on_c, 13, 51, 52
18, 209504, Note_on_c, 13, 51, 0
18, 209520, Note_on_c, 13, 51, 52
18, 209691, Note_on_c, 13, 51, 0
18, 209700, Note_on_c, 13, 51, 52
18, 209744, Note_on_c, 13, 51, 0
18, 209760, Note_on_c, 13, 51, 52
18, 209931, Note_on_c, 13, 51, 0
18, 209940, Note_on_c, 13, 51, 52
18, 209984, Note_on_c, 13, 51, 0
18, 210000, Note_on_c, 13, 51, 52
18, 210171, Note_on_c, 13, 51, 0
18, 210180, Note_on_c, 13, 51, 52
18, 210224, Note_on_c, 13, 51, 0
18, 210240, Note_on_c, 13, 51, 52
18, 210411, Note_on_c, 13, 51, 0
18, 210420, Note_on_c, 13, 51, 52
18, 210464, Note_on_c, 13, 51, 0
18, 210480, Note_on_c, 13, 51, 52
18, 210655, Note_on_c, 13, 51, 0
18, 210660, Note_on_c, 13, 56, 52
18, 210704, Note_on_c, 13, 56, 0
18, 210720, Note_on_c, 13, 60, 52
18, 210764, Note_on_c, 13, 60, 0
18, 210780, Note_on_c, 13, 63, 52
18, 210824, Note_on_c, 13, 63, 0
18, 210840, Note_on_c, 13, 68, 52
18, 210879, Note_on_c, 13, 68, 0
18, 210880, Note_on_c, 13, 56, 52
18, 210919, Note_on_c, 13, 56, 0
18, 210920, Note_on_c, 13, 60, 52
18, 210959, Note_on_c, 13, 60, 0
18, 211000, Note_on_c, 13, 56, 52
18, 211039, Note_on_c, 13, 56, 0
18, 211040, Note_on_c, 13, 60, 52
18, 211079, Note_on_c, 13, 60, 0
18, 211120, Note_on_c, 13, 55, 53
18, 211159, Note_on_c, 13, 55, 0
18, 211160, Note_on_c, 13, 58, 53
18, 211199, Note_on_c, 13, 58, 0
18, 211240, Note_on_c, 13, 58, 54
18, 211279, Note_on_c, 13, 58, 0
18, 211280, Note_on_c, 13, 61, 54
18, 211319, Note_on_c, 13, 61, 0
18, 211360, Note_on_c, 13, 56, 55
18, 211399, Note_on_c, 13, 56, 0
18, 211400, Note_on_c, 13, 60, 55
18, 211439, Note_on_c, 13, 60, 0
18, 211480, Note_on_c, 13, 56, 56
18, 211519, Note_on_c, 13, 56, 0
18, 211520, Note_on_c, 13, 60, 56
18, 211559, Note_on_c, 13, 60, 0
18, 211600, Note_on_c, 13, 56, 57
18, 211639, Note_on_c, 13, 56, 0
18, 211640, Note_on_c, 13, 60, 57
18, 211679, Note_on_c, 13, 60, 0
18, 211720, Note_on_c, 13, 56, 58
18, 211759, Note_on_c, 13, 56, 0
18, 211760, Note_on_c, 13, 60, 58
18, 211799, Note_on_c, 13, 60, 0
18, 211840, Note_on_c, 13, 57, 59
18, 211879, Note_on_c, 13, 57, 0
18, 211880, Note_on_c, 13, 60, 60
18, 211919, Note_on_c, 13, 60, 0
18, 211960, Note_on_c, 13, 60, 60
18, 211999, Note_on_c, 13, 60, 0
18, 212000, Note_on_c, 13, 63, 61
18, 212039, Note_on_c, 13, 63, 0
18, 212080, Note_on_c, 13, 60, 61
18, 212119, Note_on_c, 13, 60, 0
18, 212120, Note_on_c, 13, 63, 62
18, 212159, Note_on_c, 13, 63, 0
18, 212200, Note_on_c, 13, 60, 62
18, 212239, Note_on_c, 13, 60, 0
18, 212240, Note_on_c, 13, 63, 63
18, 212279, Note_on_c, 13, 63, 0
18, 212320, Note_on_c, 13, 60, 63
18, 212359, Note_on_c, 13, 60, 0
18, 212360, Note_on_c, 13, 63, 64
18, 212399, Note_on_c, 13, 63, 0
18, 212440, Note_on_c, 13, 60, 64
18, 212479, Note_on_c, 13, 60, 0
18, 212480, Note_on_c, 13, 63, 65
18, 212519, Note_on_c, 13, 63, 0
18, 212560, Note_on_c, 13, 60, 65
18, 212599, Note_on_c, 13, 60, 0
18, 212600, Note_on_c, 13, 63, 66
18, 212639, Note_on_c, 13, 63, 0
18, 212680, Note_on_c, 13, 60, 66
18, 212719, Note_on_c, 13, 60, 0
18, 212720, Note_on_c, 13, 63, 67
18, 212759, Note_on_c, 13, 63, 0
18, 212800, Note_on_c, 13, 58, 68
18, 212839, Note_on_c, 13, 58, 0
18, 212840, Note_on_c, 13, 63, 68
18, 212879, Note_on_c, 13, 63, 0
18, 212920, Note_on_c, 13, 58, 69
18, 212959, Note_on_c, 13, 58, 0
18, 212960, Note_on_c, 13, 63, 69
18, 212999, Note_on_c, 13, 63, 0
18, 213040, Note_on_c, 13, 58, 70
18, 213079, Note_on_c, 13, 58, 0
18, 213080, Note_on_c, 13, 63, 70
18, 213119, Note_on_c, 13, 63, 0
18, 213160, Note_on_c, 13, 59, 71
18, 213199, Note_on_c, 13, 59, 0
18, 213200, Note_on_c, 13, 63, 71
18, 213239, Note_on_c, 13, 63, 0
18, 213280, Note_on_c, 13, 58, 72
18, 213319, Note_on_c, 13, 58, 0
18, 213320, Note_on_c, 13, 63, 72
18, 213359, Note_on_c, 13, 63, 0
18, 213400, Note_on_c, 13, 63, 73
18, 213439, Note_on_c, 13, 63, 0
18, 213440, Note_on_c, 13, 66, 73
18, 213479, Note_on_c, 13, 66, 0
18, 213520, Note_on_c, 13, 63, 74
18, 213559, Note_on_c, 13, 63, 0
18, 213560, Note_on_c, 13, 66, 74
18, 213599, Note_on_c, 13, 66, 0
18, 213640, Note_on_c, 13, 63, 75
18, 213679, Note_on_c, 13, 63, 0
18, 213680, Note_on_c, 13, 66, 75
18, 213719, Note_on_c, 13, 66, 0
18, 213760, Note_on_c, 13, 63, 76
18, 213799, Note_on_c, 13, 63, 0
18, 213800, Note_on_c, 13, 66, 76
18, 213839, Note_on_c, 13, 66, 0
18, 213880, Note_on_c, 13, 63, 76
18, 213919, Note_on_c, 13, 63, 0
18, 213920, Note_on_c, 13, 66, 76
18, 213959, Note_on_c, 13, 66, 0
18, 214000, Note_on_c, 13, 63, 76
18, 214039, Note_on_c, 13, 63, 0
18, 214040, Note_on_c, 13, 66, 76
18, 214079, Note_on_c, 13, 66, 0
18, 214120, Note_on_c, 13, 63, 76
18, 214159, Note_on_c, 13, 63, 0
18, 214160, Note_on_c, 13, 66, 76
18, 214199, Note_on_c, 13, 66, 0
18, 214240, Note_on_c, 13, 66, 76
18, 214279, Note_on_c, 13, 66, 0
18, 214280, Note_on_c, 13, 69, 76
18, 214319, Note_on_c, 13, 69, 0
18, 214360, Note_on_c, 13, 66, 76
18, 214399, Note_on_c, 13, 66, 0
18, 214400, Note_on_c, 13, 69, 76
18, 214439, Note_on_c, 13, 69, 0
18, 214480, Note_on_c, 13, 66, 76
18, 214519, Note_on_c, 13, 66, 0
18, 214520, Note_on_c, 13, 69, 76
18, 214559, Note_on_c, 13, 69, 0
18, 214600, Note_on_c, 13, 66, 76
18, 214639, Note_on_c, 13, 66, 0
18, 214640, Note_on_c, 13, 69, 76
18, 214679, Note_on_c, 13, 69, 0
18, 214720, Note_on_c, 13, 69, 76
18, 214759, Note_on_c, 13, 69, 0
18, 214760, Note_on_c, 13, 66, 76
18, 214799, Note_on_c, 13, 66, 0
18, 214840, Note_on_c, 13, 69, 77
18, 214879, Note_on_c, 13, 69, 0
18, 214880, Note_on_c, 13, 66, 77
18, 214919, Note_on_c, 13, 66, 0
18, 214960, Note_on_c, 13, 69, 78
18, 214999, Note_on_c, 13, 69, 0
18, 215000, Note_on_c, 13, 66, 78
18, 215039, Note_on_c, 13, 66, 0
18, 215080, Note_on_c, 13, 69, 79
18, 215119, Note_on_c, 13, 69, 0
18, 215120, Note_on_c, 13, 66, 79
18, 215155, Note_on_c, 13, 66, 0
18, 215160, Note_on_c, 13, 62, 80
18, 215195, Note_on_c, 13, 62, 0
18, 215200, Note_on_c, 13, 69, 80
18, 215235, Note_on_c, 13, 69, 0
18, 215240, Note_on_c, 13, 69, 80
18, 215275, Note_on_c, 13, 69, 0
18, 215280, Note_on_c, 13, 69, 81
18, 215315, Note_on_c, 13, 69, 0
18, 215320, Note_on_c, 13, 69, 81
18, 215355, Note_on_c, 13, 69, 0
18, 215360, Note_on_c, 13, 69, 81
18, 215395, Note_on_c, 13, 69, 0
18, 215400, Note_on_c, 13, 69, 82
18, 215435, Note_on_c, 13, 69, 0
18, 215440, Note_on_c, 13, 69, 82
18, 215475, Note_on_c, 13, 69, 0
18, 215480, Note_on_c, 13, 69, 82
18, 215515, Note_on_c, 13, 69, 0
18, 215520, Note_on_c, 13, 69, 83
18, 215555, Note_on_c, 13, 69, 0
18, 215560, Note_on_c, 13, 69, 83
18, 215595, Note_on_c, 13, 69, 0
18, 215600, Note_on_c, 13, 69, 83
18, 215635, Note_on_c, 13, 69, 0
18, 215640, Note_on_c, 13, 67, 84
18, 215675, Note_on_c, 13, 67, 0
18, 215680, Note_on_c, 13, 74, 84
18, 215680, Note_on_c, 13, 62, 84
18, 215715, Note_on_c, 13, 74, 0
18, 215715, Note_on_c, 13, 62, 0
18, 215720, Note_on_c, 13, 62, 84
18, 215720, Note_on_c, 13, 74, 84
18, 215755, Note_on_c, 13, 62, 0
18, 215755, Note_on_c, 13, 74, 0
18, 215760, Note_on_c, 13, 74, 84
18, 215760, Note_on_c, 13, 62, 84
18, 215795, Note_on_c, 13, 74, 0
18, 215795, Note_on_c, 13, 62, 0
18, 215800, Note_on_c, 13, 62, 84
18, 215800, Note_on_c, 13, 74, 84
18, 215835, Note_on_c, 13, 62, 0
18, 215835, Note_on_c, 13, 74, 0
18, 215840, Note_on_c, 13, 74, 84
18, 215840, Note_on_c, 13, 62, 84
18, 215875, Note_on_c, 13, 74, 0
18, 215875, Note_on_c, 13, 62, 0
18, 215880, Note_on_c, 13, 62, 84
18, 215880, Note_on_c, 13, 74, 84
18, 215915, Note_on_c, 13, 62, 0
18, 215915, Note_on_c, 13, 74, 0
18, 215920, Note_on_c, 13, 62, 84
18, 215920, Note_on_c, 13, 74, 84
18, 215955, Note_on_c, 13, 62, 0
18, 215955, Note_on_c, 13, 74, 0
18, 215960, Note_on_c, 13, 74, 84
18, 215960, Note_on_c, 13, 62, 84
18, 215995, Note_on_c, 13, 74, 0
18, 215995, Note_on_c, 13, 62, 0
18, 216000, Note_on_c, 13, 62, 84
18, 216000, Note_on_c, 13, 74, 84
18, 216035, Note_on_c, 13, 62, 0
18, 216035, Note_on_c, 13, 74, 0
18, 216040, Note_on_c, 13, 62, 84
18, 216040, Note_on_c, 13, 74, 84
18, 216075, Note_on_c, 13, 62, 0
18, 216075, Note_on_c, 13, 74, 0
18, 216080, Note_on_c, 13, 62, 84
18, 216080, Note_on_c, 13, 74, 84
18, 216115, Note_on_c, 13, 62, 0
18, 216115, Note_on_c, 13, 74, 0
18, 216120, Note_on_c, 13, 72, 84
18, 216120, Note_on_c, 13, 62, 84
18, 216155, Note_on_c, 13, 72, 0
18, 216155, Note_on_c, 13, 62, 0
18, 216160, Note_on_c, 13, 72, 84
18, 216160, Note_on_c, 13, 62, 84
18, 216195, Note_on_c, 13, 72, 0
18, 216195, Note_on_c, 13, 62, 0
18, 216200, Note_on_c, 13, 62, 84
18, 216200, Note_on_c, 13, 72, 84
18, 216235, Note_on_c, 13, 62, 0
18, 216235, Note_on_c, 13, 72, 0
18, 216240, Note_on_c, 13, 72, 84
18, 216240, Note_on_c, 13, 62, 84
18, 216275, Note_on_c, 13, 72, 0
18, 216275, Note_on_c, 13, 62, 0
18, 216280, Note_on_c, 13, 62, 84
18, 216280, Note_on_c, 13, 72, 84
18, 216315, Note_on_c, 13, 62, 0
18, 216315, Note_on_c, 13, 72, 0
18, 216320, Note_on_c, 13, 72, 84
18, 216320, Note_on_c, 13, 62, 84
18, 216355, Note_on_c, 13, 72, 0
18, 216355, Note_on_c, 13, 62, 0
18, 216360, Note_on_c, 13, 62, 84
18, 216360, Note_on_c, 13, 72, 84
18, 216395, Note_on_c, 13, 62, 0
18, 216395, Note_on_c, 13, 72, 0
18, 216400, Note_on_c, 13, 62, 84
18, 216400, Note_on_c, 13, 72, 84
18, 216435, Note_on_c, 13, 62, 0
18, 216435, Note_on_c, 13, 72, 0
18, 216440, Note_on_c, 13, 62, 84
18, 216440, Note_on_c, 13, 72, 84
18, 216475, Note_on_c, 13, 62, 0
18, 216475, Note_on_c, 13, 72, 0
18, 216480, Note_on_c, 13, 72, 84
18, 216480, Note_on_c, 13, 62, 84
18, 216515, Note_on_c, 13, 72, 0
18, 216515, Note_on_c, 13, 62, 0
18, 216520, Note_on_c, 13, 62, 84
18, 216520, Note_on_c, 13, 72, 84
18, 216555, Note_on_c, 13, 62, 0
18, 216555, Note_on_c, 13, 72, 0
18, 216560, Note_on_c, 13, 62, 84
18, 216560, Note_on_c, 13, 72, 84
18, 216595, Note_on_c, 13, 62, 0
18, 216595, Note_on_c, 13, 72, 0
18, 216600, Note_on_c, 13, 62, 84
18, 216600, Note_on_c, 13, 70, 84
18, 216711, Note_on_c, 13, 62, 0
18, 216711, Note_on_c, 13, 70, 0
18, 216720, Note_on_c, 13, 67, 52
18, 216764, Note_on_c, 13, 67, 0
18, 216780, Note_on_c, 13, 67, 52
18, 216824, Note_on_c, 13, 67, 0
18, 216960, Note_on_c, 13, 62, 52
18, 217004, Note_on_c, 13, 62, 0
18, 217020, Note_on_c, 13, 62, 52
18, 217064, Note_on_c, 13, 62, 0
18, 217200, Note_on_c, 13, 60, 52
18, 217200, Note_on_c, 13, 63, 52
18, 217244, Note_on_c, 13, 60, 0
18, 217244, Note_on_c, 13, 63, 0
18, 217260, Note_on_c, 13, 63, 52
18, 217260, Note_on_c, 13, 60, 52
18, 217304, Note_on_c, 13, 63, 0
18, 217304, Note_on_c, 13, 60, 0
18, 217440, Note_on_c, 13, 54, 52
18, 217440, Note_on_c, 13, 57, 52
18, 217484, Note_on_c, 13, 54, 0
18, 217484, Note_on_c, 13, 57, 0
18, 217500, Note_on_c, 13, 57, 52
18, 217500, Note_on_c, 13, 54, 52
18, 217544, Note_on_c, 13, 57, 0
18, 217544, Note_on_c, 13, 54, 0
18, 217680, Note_on_c, 13, 57, 52
18, 217680, Note_on_c, 13, 54, 52
18, 217735, Note_on_c, 13, 57, 0
18, 217735, Note_on_c, 13, 54, 0
18, 217740, Note_on_c, 13, 57, 52
18, 217740, Note_on_c, 13, 54, 52
18, 217799, Note_on_c, 13, 57, 0
18, 217799, Note_on_c, 13, 54, 0
18, 217920, Note_on_c, 13, 60, 52
18, 217920, Note_on_c, 13, 63, 52
18, 217975, Note_on_c, 13, 60, 0
18, 217975, Note_on_c, 13, 63, 0
18, 217980, Note_on_c, 13, 63, 52
18, 217980, Note_on_c, 13, 60, 52
18, 218039, Note_on_c, 13, 63, 0
18, 218039, Note_on_c, 13, 60, 0
18, 218160, Note_on_c, 13, 65, 56
18, 218160, Note_on_c, 13, 68, 56
18, 218215, Note_on_c, 13, 65, 0
18, 218215, Note_on_c, 13, 68, 0
18, 218220, Note_on_c, 13, 68, 58
18, 218220, Note_on_c, 13, 65, 58
18, 218279, Note_on_c, 13, 68, 0
18, 218279, Note_on_c, 13, 65, 0
18, 218400, Note_on_c, 13, 59, 64
18, 218400, Note_on_c, 13, 62, 64
18, 218455, Note_on_c, 13, 59, 0
18, 218455, Note_on_c, 13, 62, 0
18, 218460, Note_on_c, 13, 62, 66
18, 218460, Note_on_c, 13, 59, 66
18, 218519, Note_on_c, 13, 62, 0
18, 218519, Note_on_c, 13, 59, 0
18, 218640, Note_on_c, 13, 62, 64
18, 218640, Note_on_c, 13, 59, 64
18, 218695, Note_on_c, 13, 62, 0
18, 218695, Note_on_c, 13, 59, 0
18, 218700, Note_on_c, 13, 62, 62
18, 218700, Note_on_c, 13, 59, 62
18, 218759, Note_on_c, 13, 62, 0
18, 218759, Note_on_c, 13, 59, 0
18, 218880, Note_on_c, 13, 68, 56
18, 218880, Note_on_c, 13, 65, 56
18, 218935, Note_on_c, 13, 68, 0
18, 218935, Note_on_c, 13, 65, 0
18, 218940, Note_on_c, 13, 68, 54
18, 218940, Note_on_c, 13, 65, 54
18, 218999, Note_on_c, 13, 68, 0
18, 218999, Note_on_c, 13, 65, 0
18, 219120, Note_on_c, 13, 59, 52
18, 219120, Note_on_c, 13, 68, 52
18, 219175, Note_on_c, 13, 59, 0
18, 219175, Note_on_c, 13, 68, 0
18, 219180, Note_on_c, 13, 68, 52
18, 219180, Note_on_c, 13, 59, 52
18, 219239, Note_on_c, 13, 68, 0
18, 219239, Note_on_c, 13, 59, 0
18, 219360, Note_on_c, 13, 60, 52
18, 219360, Note_on_c, 13, 67, 52
18, 219415, Note_on_c, 13, 60, 0
18, 219415, Note_on_c, 13, 67, 0
18, 219420, Note_on_c, 13, 60, 52
18, 219420, Note_on_c, 13, 67, 52
18, 219479, Note_on_c, 13, 60, 0
18, 219479, Note_on_c, 13, 67, 0
18, 219600, Note_on_c, 13, 56, 52
18, 219600, Note_on_c, 13, 60, 52
18, 219655, Note_on_c, 13, 56, 0
18, 219655, Note_on_c, 13, 60, 0
18, 219660, Note_on_c, 13, 60, 52
18, 219660, Note_on_c, 13, 56, 52
18, 219719, Note_on_c, 13, 60, 0
18, 219719, Note_on_c, 13, 56, 0
18, 219840, Note_on_c, 13, 60, 52
18, 219840, Note_on_c, 13, 57, 52
18, 219895, Note_on_c, 13, 60, 0
18, 219895, Note_on_c, 13, 57, 0
18, 219900, Note_on_c, 13, 57, 52
18, 219900, Note_on_c, 13, 60, 52
18, 219959, Note_on_c, 13, 57, 0
18, 219959, Note_on_c, 13, 60, 0
18, 220080, Note_on_c, 13, 58, 56
18, 220135, Note_on_c, 13, 58, 0
18, 220140, Note_on_c, 13, 58, 58
18, 220199, Note_on_c, 13, 58, 0
18, 220320, Note_on_c, 13, 65, 64
18, 220320, Note_on_c, 13, 59, 64
18, 220375, Note_on_c, 13, 65, 0
18, 220375, Note_on_c, 13, 59, 0
18, 220380, Note_on_c, 13, 59, 66
18, 220380, Note_on_c, 13, 65, 66
18, 220439, Note_on_c, 13, 59, 0
18, 220439, Note_on_c, 13, 65, 0
18, 220560, Note_on_c, 13, 63, 64
18, 220560, Note_on_c, 13, 60, 64
18, 220615, Note_on_c, 13, 63, 0
18, 220615, Note_on_c, 13, 60, 0
18, 220620, Note_on_c, 13, 63, 62
18, 220620, Note_on_c, 13, 60, 62
18, 220679, Note_on_c, 13, 63, 0
18, 220679, Note_on_c, 13, 60, 0
18, 220800, Note_on_c, 13, 60, 56
18, 220800, Note_on_c, 13, 57, 56
18, 220855, Note_on_c, 13, 60, 0
18, 220855, Note_on_c, 13, 57, 0
18, 220860, Note_on_c, 13, 57, 54
18, 220860, Note_on_c, 13, 60, 54
18, 220919, Note_on_c, 13, 57, 0
18, 220919, Note_on_c, 13, 60, 0
18, 221040, Note_on_c, 13, 58, 50
18, 221095, Note_on_c, 13, 58, 0
18, 221100, Note_on_c, 13, 58, 49
18, 221159, Note_on_c, 13, 58, 0
18, 221280, Note_on_c, 13, 53, 46
18, 221280, Note_on_c, 13, 59, 46
18, 221335, Note_on_c, 13, 53, 0
18, 221335, Note_on_c, 13, 59, 0
18, 221340, Note_on_c, 13, 53, 45
18, 221340, Note_on_c, 13, 59, 45
18, 221399, Note_on_c, 13, 53, 0
18, 221399, Note_on_c, 13, 59, 0
18, 221520, Note_on_c, 13, 55, 44
18, 221520, Note_on_c, 13, 52, 44
18, 221575, Note_on_c, 13, 55, 0
18, 221575, Note_on_c, 13, 52, 0
18, 221580, Note_on_c, 13, 55, 44
18, 221580, Note_on_c, 13, 52, 44
18, 221639, Note_on_c, 13, 55, 0
18, 221639, Note_on_c, 13, 52, 0
18, 221760, Note_on_c, 13, 51, 44
18, 221760, Note_on_c, 13, 55, 44
18, 221815, Note_on_c, 13, 51, 0
18, 221815, Note_on_c, 13, 55, 0
18, 221820, Note_on_c, 13, 55, 44
18, 221820, Note_on_c, 13, 51, 44
18, 221879, Note_on_c, 13, 55, 0
18, 221879, Note_on_c, 13, 51, 0
18, 221880, Note_on_c, 13, 50, 84
18, 221880, Note_on_c, 13, 55, 84
18, 221905, Note_on_c, 13, 50, 0
18, 221905, Note_on_c, 13, 55, 0
18, 221910, Note_on_c, 13, 67, 84
18, 221935, Note_on_c, 13, 67, 0
18, 221940, Note_on_c, 13, 67, 84
18, 221965, Note_on_c, 13, 67, 0
18, 221970, Note_on_c, 13, 67, 84
18, 221995, Note_on_c, 13, 67, 0
18, 222000, Note_on_c, 13, 67, 84
18, 222025, Note_on_c, 13, 67, 0
18, 222030, Note_on_c, 13, 67, 84
18, 222055, Note_on_c, 13, 67, 0
18, 222060, Note_on_c, 13, 67, 84
18, 222085, Note_on_c, 13, 67, 0
18, 222090, Note_on_c, 13, 67, 84
18, 222115, Note_on_c, 13, 67, 0
18, 222120, Note_on_c, 13, 67, 84
18, 222145, Note_on_c, 13, 67, 0
18, 222150, Note_on_c, 13, 67, 84
18, 222175, Note_on_c, 13, 67, 0
18, 222180, Note_on_c, 13, 67, 84
18, 222205, Note_on_c, 13, 67, 0
18, 222210, Note_on_c, 13, 67, 84
18, 222235, Note_on_c, 13, 67, 0
18, 222240, Note_on_c, 13, 67, 84
18, 222265, Note_on_c, 13, 67, 0
18, 222270, Note_on_c, 13, 67, 84
18, 222295, Note_on_c, 13, 67, 0
18, 222300, Note_on_c, 13, 67, 84
18, 222325, Note_on_c, 13, 67, 0
18, 222330, Note_on_c, 13, 67, 84
18, 222355, Note_on_c, 13, 67, 0
18, 222360, Note_on_c, 13, 67, 84
18, 222385, Note_on_c, 13, 67, 0
18, 222390, Note_on_c, 13, 67, 84
18, 222415, Note_on_c, 13, 67, 0
18, 222420, Note_on_c, 13, 65, 84
18, 222445, Note_on_c, 13, 65, 0
18, 222450, Note_on_c, 13, 65, 84
18, 222475, Note_on_c, 13, 65, 0
18, 222480, Note_on_c, 13, 63, 84
18, 222505, Note_on_c, 13, 63, 0
18, 222510, Note_on_c, 13, 63, 84
18, 222535, Note_on_c, 13, 63, 0
18, 222540, Note_on_c, 13, 62, 84
18, 222565, Note_on_c, 13, 62, 0
18, 222570, Note_on_c, 13, 62, 84
18, 222595, Note_on_c, 13, 62, 0
18, 222600, Note_on_c, 13, 63, 84
18, 222625, Note_on_c, 13, 63, 0
18, 222630, Note_on_c, 13, 63, 84
18, 222655, Note_on_c, 13, 63, 0
18, 222660, Note_on_c, 13, 62, 84
18, 222685, Note_on_c, 13, 62, 0
18, 222690, Note_on_c, 13, 62, 84
18, 222715, Note_on_c, 13, 62, 0
18, 222720, Note_on_c, 13, 60, 84
18, 222745, Note_on_c, 13, 60, 0
18, 222750, Note_on_c, 13, 60, 84
18, 222775, Note_on_c, 13, 60, 0
18, 222780, Note_on_c, 13, 58, 84
18, 222805, Note_on_c, 13, 58, 0
18, 222810, Note_on_c, 13, 58, 84
18, 222835, Note_on_c, 13, 58, 0
18, 222840, Note_on_c, 13, 60, 84
18, 222865, Note_on_c, 13, 60, 0
18, 222870, Note_on_c, 13, 60, 84
18, 222895, Note_on_c, 13, 60, 0
18, 222900, Note_on_c, 13, 58, 84
18, 222925, Note_on_c, 13, 58, 0
18, 222930, Note_on_c, 13, 58, 84
18, 222955, Note_on_c, 13, 58, 0
18, 222960, Note_on_c, 13, 57, 84
18, 222985, Note_on_c, 13, 57, 0
18, 222990, Note_on_c, 13, 57, 84
18, 223015, Note_on_c, 13, 57, 0
18, 223020, Note_on_c, 13, 55, 84
18, 223045, Note_on_c, 13, 55, 0
18, 223050, Note_on_c, 13, 55, 84
18, 223075, Note_on_c, 13, 55, 0
18, 223080, Note_on_c, 13, 56, 84
18, 223105, Note_on_c, 13, 56, 0
18, 223110, Note_on_c, 13, 56, 84
18, 223135, Note_on_c, 13, 56, 0
18, 223140, Note_on_c, 13, 67, 84
18, 223165, Note_on_c, 13, 67, 0
18, 223170, Note_on_c, 13, 67, 84
18, 223195, Note_on_c, 13, 67, 0
18, 223200, Note_on_c, 13, 65, 84
18, 223225, Note_on_c, 13, 65, 0
18, 223230, Note_on_c, 13, 65, 84
18, 223255, Note_on_c, 13, 65, 0
18, 223260, Note_on_c, 13, 63, 84
18, 223285, Note_on_c, 13, 63, 0
18, 223290, Note_on_c, 13, 63, 84
18, 223315, Note_on_c, 13, 63, 0
18, 223320, Note_on_c, 13, 62, 84
18, 223345, Note_on_c, 13, 62, 0
18, 223350, Note_on_c, 13, 62, 84
18, 223375, Note_on_c, 13, 62, 0
18, 223380, Note_on_c, 13, 63, 84
18, 223405, Note_on_c, 13, 63, 0
18, 223410, Note_on_c, 13, 63, 84
18, 223435, Note_on_c, 13, 63, 0
18, 223440, Note_on_c, 13, 65, 84
18, 223465, Note_on_c, 13, 65, 0
18, 223470, Note_on_c, 13, 65, 84
18, 223495, Note_on_c, 13, 65, 0
18, 223500, Note_on_c, 13, 63, 84
18, 223525, Note_on_c, 13, 63, 0
18, 223530, Note_on_c, 13, 63, 84
18, 223555, Note_on_c, 13, 63, 0
18, 223560, Note_on_c, 13, 62, 84
18, 223585, Note_on_c, 13, 62, 0
18, 223590, Note_on_c, 13, 62, 84
18, 223615, Note_on_c, 13, 62, 0
18, 223620, Note_on_c, 13, 58, 84
18, 223645, Note_on_c, 13, 58, 0
18, 223650, Note_on_c, 13, 58, 84
18, 223675, Note_on_c, 13, 58, 0
18, 223680, Note_on_c, 13, 60, 84
18, 223705, Note_on_c, 13, 60, 0
18, 223710, Note_on_c, 13, 60, 84
18, 223735, Note_on_c, 13, 60, 0
18, 223740, Note_on_c, 13, 62, 84
18, 223765, Note_on_c, 13, 62, 0
18, 223770, Note_on_c, 13, 62, 84
18, 223795, Note_on_c, 13, 62, 0
18, 223800, Note_on_c, 13, 63, 84
18, 223919, Note_on_c, 13, 63, 0
18, 225720, Note_on_c, 13, 58, 84
18, 225745, Note_on_c, 13, 58, 0
18, 225750, Note_on_c, 13, 58, 84
18, 225775, Note_on_c, 13, 58, 0
18, 225780, Note_on_c, 13, 58, 84
18, 225805, Note_on_c, 13, 58, 0
18, 225810, Note_on_c, 13, 58, 84
18, 225835, Note_on_c, 13, 58, 0
18, 225840, Note_on_c, 13, 63, 84
18, 225865, Note_on_c, 13, 63, 0
18, 225870, Note_on_c, 13, 63, 84
18, 225895, Note_on_c, 13, 63, 0
18, 225900, Note_on_c, 13, 67, 84
18, 225925, Note_on_c, 13, 67, 0
18, 225930, Note_on_c, 13, 67, 84
18, 225955, Note_on_c, 13, 67, 0
18, 225960, Note_on_c, 13, 70, 84
18, 225985, Note_on_c, 13, 70, 0
18, 225990, Note_on_c, 13, 70, 84
18, 226015, Note_on_c, 13, 70, 0
18, 226020, Note_on_c, 13, 67, 84
18, 226045, Note_on_c, 13, 67, 0
18, 226050, Note_on_c, 13, 67, 84
18, 226075, Note_on_c, 13, 67, 0
18, 226080, Note_on_c, 13, 63, 84
18, 226105, Note_on_c, 13, 63, 0
18, 226110, Note_on_c, 13, 63, 84
18, 226135, Note_on_c, 13, 63, 0
18, 226140, Note_on_c, 13, 58, 84
18, 226165, Note_on_c, 13, 58, 0
18, 226170, Note_on_c, 13, 58, 84
18, 226195, Note_on_c, 13, 58, 0
18, 226200, Note_on_c, 13, 62, 84
18, 226225, Note_on_c, 13, 62, 0
18, 226230, Note_on_c, 13, 62, 84
18, 226255, Note_on_c, 13, 62, 0
18, 226260, Note_on_c, 13, 62, 84
18, 226285, Note_on_c, 13, 62, 0
18, 226290, Note_on_c, 13, 62, 84
18, 226315, Note_on_c, 13, 62, 0
18, 226320, Note_on_c, 13, 65, 84
18, 226345, Note_on_c, 13, 65, 0
18, 226350, Note_on_c, 13, 65, 84
18, 226375, Note_on_c, 13, 65, 0
18, 226380, Note_on_c, 13, 68, 84
18, 226405, Note_on_c, 13, 68, 0
18, 226410, Note_on_c, 13, 68, 84
18, 226435, Note_on_c, 13, 68, 0
18, 226440, Note_on_c, 13, 74, 84
18, 226465, Note_on_c, 13, 74, 0
18, 226470, Note_on_c, 13, 74, 84
18, 226495, Note_on_c, 13, 74, 0
18, 226500, Note_on_c, 13, 68, 84
18, 226525, Note_on_c, 13, 68, 0
18, 226530, Note_on_c, 13, 68, 84
18, 226555, Note_on_c, 13, 68, 0
18, 226560, Note_on_c, 13, 65, 84
18, 226585, Note_on_c, 13, 65, 0
18, 226590, Note_on_c, 13, 65, 84
18, 226615, Note_on_c, 13, 65, 0
18, 226620, Note_on_c, 13, 62, 84
18, 226645, Note_on_c, 13, 62, 0
18, 226650, Note_on_c, 13, 62, 84
18, 226675, Note_on_c, 13, 62, 0
18, 226680, Note_on_c, 13, 58, 84
18, 226799, Note_on_c, 13, 58, 0
18, 226860, Note_on_c, 13, 63, 84
18, 226915, Note_on_c, 13, 63, 0
18, 226920, Note_on_c, 13, 67, 92
18, 227099, Note_on_c, 13, 67, 0
18, 227100, Note_on_c, 13, 63, 84
18, 227155, Note_on_c, 13, 63, 0
18, 227160, Note_on_c, 13, 62, 84
18, 227279, Note_on_c, 13, 62, 0
18, 227340, Note_on_c, 13, 65, 84
18, 227395, Note_on_c, 13, 65, 0
18, 227400, Note_on_c, 13, 68, 92
18, 227579, Note_on_c, 13, 68, 0
18, 227580, Note_on_c, 13, 65, 84
18, 227635, Note_on_c, 13, 65, 0
18, 227640, Note_on_c, 13, 63, 84
18, 227695, Note_on_c, 13, 63, 0
18, 227700, Note_on_c, 13, 63, 84
18, 227755, Note_on_c, 13, 63, 0
18, 227760, Note_on_c, 13, 63, 84
18, 227815, Note_on_c, 13, 63, 0
18, 227820, Note_on_c, 13, 63, 84
18, 227875, Note_on_c, 13, 63, 0
18, 227880, Note_on_c, 13, 67, 92
18, 227939, Note_on_c, 13, 67, 0
18, 227940, Note_on_c, 13, 63, 84
18, 227995, Note_on_c, 13, 63, 0
18, 228000, Note_on_c, 13, 63, 84
18, 228044, Note_on_c, 13, 63, 0
18, 228060, Note_on_c, 13, 63, 84
18, 228104, Note_on_c, 13, 63, 0
18, 228120, Note_on_c, 13, 62, 84
18, 228164, Note_on_c, 13, 62, 0
18, 228180, Note_on_c, 13, 65, 84
18, 228224, Note_on_c, 13, 65, 0
18, 228240, Note_on_c, 13, 65, 84
18, 228284, Note_on_c, 13, 65, 0
18, 228300, Note_on_c, 13, 65, 84
18, 228344, Note_on_c, 13, 65, 0
18, 228360, Note_on_c, 13, 68, 92
18, 228419, Note_on_c, 13, 68, 0
18, 228420, Note_on_c, 13, 65, 84
18, 228475, Note_on_c, 13, 65, 0
18, 228480, Note_on_c, 13, 65, 84
18, 228524, Note_on_c, 13, 65, 0
18, 228540, Note_on_c, 13, 65, 84
18, 228584, Note_on_c, 13, 65, 0
18, 228600, Note_on_c, 13, 63, 92
18, 228644, Note_on_c, 13, 63, 0
18, 228660, Note_on_c, 13, 63, 84
18, 228704, Note_on_c, 13, 63, 0
18, 228720, Note_on_c, 13, 67, 84
18, 228764, Note_on_c, 13, 67, 0
18, 228780, Note_on_c, 13, 63, 84
18, 228824, Note_on_c, 13, 63, 0
18, 228840, Note_on_c, 13, 62, 92
18, 228884, Note_on_c, 13, 62, 0
18, 228900, Note_on_c, 13, 65, 84
18, 228944, Note_on_c, 13, 65, 0
18, 228960, Note_on_c, 13, 68, 84
18, 229004, Note_on_c, 13, 68, 0
18, 229020, Note_on_c, 13, 65, 84
18, 229064, Note_on_c, 13, 65, 0
18, 229080, Note_on_c, 13, 63, 92
18, 229124, Note_on_c, 13, 63, 0
18, 229140, Note_on_c, 13, 63, 84
18, 229184, Note_on_c, 13, 63, 0
18, 229200, Note_on_c, 13, 67, 84
18, 229244, Note_on_c, 13, 67, 0
18, 229260, Note_on_c, 13, 63, 84
18, 229304, Note_on_c, 13, 63, 0
18, 229320, Note_on_c, 13, 62, 92
18, 229364, Note_on_c, 13, 62, 0
18, 229380, Note_on_c, 13, 65, 84
18, 229424, Note_on_c, 13, 65, 0
18, 229440, Note_on_c, 13, 68, 84
18, 229484, Note_on_c, 13, 68, 0
18, 229500, Note_on_c, 13, 65, 84
18, 229544, Note_on_c, 13, 65, 0
18, 229560, Note_on_c, 13, 67, 84
18, 229615, Note_on_c, 13, 67, 0
18, 229620, Note_on_c, 13, 51, 84
18, 229645, Note_on_c, 13, 51, 0
18, 229650, Note_on_c, 13, 51, 84
18, 229675, Note_on_c, 13, 51, 0
18, 229680, Note_on_c, 13, 53, 84
18, 229705, Note_on_c, 13, 53, 0
18, 229710, Note_on_c, 13, 53, 84
18, 229735, Note_on_c, 13, 53, 0
18, 229740, Note_on_c, 13, 55, 84
18, 229765, Note_on_c, 13, 55, 0
18, 229770, Note_on_c, 13, 55, 84
18, 229795, Note_on_c, 13, 55, 0
18, 229800, Note_on_c, 13, 56, 92
18, 229825, Note_on_c, 13, 56, 0
18, 229830, Note_on_c, 13, 56, 84
18, 229855, Note_on_c, 13, 56, 0
18, 229860, Note_on_c, 13, 55, 84
18, 229885, Note_on_c, 13, 55, 0
18, 229890, Note_on_c, 13, 55, 84
18, 229915, Note_on_c, 13, 55, 0
18, 229920, Note_on_c, 13, 56, 84
18, 229945, Note_on_c, 13, 56, 0
18, 229950, Note_on_c, 13, 56, 84
18, 229975, Note_on_c, 13, 56, 0
18, 229980, Note_on_c, 13, 57, 84
18, 230005, Note_on_c, 13, 57, 0
18, 230010, Note_on_c, 13, 57, 84
18, 230035, Note_on_c, 13, 57, 0
18, 230040, Note_on_c, 13, 58, 92
18, 230065, Note_on_c, 13, 58, 0
18, 230070, Note_on_c, 13, 58, 84
18, 230095, Note_on_c, 13, 58, 0
18, 230100, Note_on_c, 13, 57, 84
18, 230125, Note_on_c, 13, 57, 0
18, 230130, Note_on_c, 13, 57, 84
18, 230155, Note_on_c, 13, 57, 0
18, 230160, Note_on_c, 13, 58, 84
18, 230185, Note_on_c, 13, 58, 0
18, 230190, Note_on_c, 13, 58, 84
18, 230215, Note_on_c, 13, 58, 0
18, 230220, Note_on_c, 13, 59, 84
18, 230245, Note_on_c, 13, 59, 0
18, 230250, Note_on_c, 13, 59, 84
18, 230275, Note_on_c, 13, 59, 0
18, 230280, Note_on_c, 13, 60, 92
18, 230305, Note_on_c, 13, 60, 0
18, 230310, Note_on_c, 13, 60, 84
18, 230335, Note_on_c, 13, 60, 0
18, 230340, Note_on_c, 13, 59, 84
18, 230365, Note_on_c, 13, 59, 0
18, 230370, Note_on_c, 13, 59, 84
18, 230395, Note_on_c, 13, 59, 0
18, 230400, Note_on_c, 13, 60, 84
18, 230425, Note_on_c, 13, 60, 0
18, 230430, Note_on_c, 13, 60, 84
18, 230455, Note_on_c, 13, 60, 0
18, 230460, Note_on_c, 13, 62, 84
18, 230485, Note_on_c, 13, 62, 0
18, 230490, Note_on_c, 13, 62, 84
18, 230515, Note_on_c, 13, 62, 0
18, 230520, Note_on_c, 13, 63, 84
18, 230545, Note_on_c, 13, 63, 0
18, 230550, Note_on_c, 13, 63, 84
18, 230575, Note_on_c, 13, 63, 0
18, 230580, Note_on_c, 13, 60, 84
18, 230605, Note_on_c, 13, 60, 0
18, 230610, Note_on_c, 13, 60, 84
18, 230635, Note_on_c, 13, 60, 0
18, 230640, Note_on_c, 13, 59, 84
18, 230665, Note_on_c, 13, 59, 0
18, 230670, Note_on_c, 13, 59, 84
18, 230695, Note_on_c, 13, 59, 0
18, 230700, Note_on_c, 13, 60, 84
18, 230725, Note_on_c, 13, 60, 0
18, 230730, Note_on_c, 13, 60, 84
18, 230755, Note_on_c, 13, 60, 0
18, 230760, Note_on_c, 13, 55, 84
18, 230785, Note_on_c, 13, 55, 0
18, 230790, Note_on_c, 13, 55, 84
18, 230815, Note_on_c, 13, 55, 0
18, 230820, Note_on_c, 13, 56, 84
18, 230845, Note_on_c, 13, 56, 0
18, 230850, Note_on_c, 13, 56, 84
18, 230875, Note_on_c, 13, 56, 0
18, 230880, Note_on_c, 13, 60, 84
18, 230905, Note_on_c, 13, 60, 0
18, 230910, Note_on_c, 13, 60, 84
18, 230935, Note_on_c, 13, 60, 0
18, 230940, Note_on_c, 13, 56, 84
18, 230965, Note_on_c, 13, 56, 0
18, 230970, Note_on_c, 13, 56, 84
18, 230995, Note_on_c, 13, 56, 0
18, 231000, Note_on_c, 13, 52, 84
18, 231025, Note_on_c, 13, 52, 0
18, 231030, Note_on_c, 13, 52, 84
18, 231055, Note_on_c, 13, 52, 0
18, 231060, Note_on_c, 13, 53, 84
18, 231085, Note_on_c, 13, 53, 0
18, 231090, Note_on_c, 13, 53, 84
18, 231115, Note_on_c, 13, 53, 0
18, 231120, Note_on_c, 13, 56, 84
18, 231145, Note_on_c, 13, 56, 0
18, 231150, Note_on_c, 13, 56, 84
18, 231175, Note_on_c, 13, 56, 0
18, 231180, Note_on_c, 13, 53, 84
18, 231205, Note_on_c, 13, 53, 0
18, 231210, Note_on_c, 13, 53, 84
18, 231235, Note_on_c, 13, 53, 0
18, 231240, Note_on_c, 13, 57, 84
18, 231265, Note_on_c, 13, 57, 0
18, 231270, Note_on_c, 13, 57, 84
18, 231295, Note_on_c, 13, 57, 0
18, 231300, Note_on_c, 13, 58, 84
18, 231325, Note_on_c, 13, 58, 0
18, 231330, Note_on_c, 13, 58, 84
18, 231355, Note_on_c, 13, 58, 0
18, 231360, Note_on_c, 13, 62, 84
18, 231385, Note_on_c, 13, 62, 0
18, 231390, Note_on_c, 13, 62, 84
18, 231415, Note_on_c, 13, 62, 0
18, 231420, Note_on_c, 13, 58, 84
18, 231445, Note_on_c, 13, 58, 0
18, 231450, Note_on_c, 13, 58, 84
18, 231475, Note_on_c, 13, 58, 0
18, 231480, Note_on_c, 13, 59, 92
18, 231505, Note_on_c, 13, 59, 0
18, 231510, Note_on_c, 13, 59, 84
18, 231535, Note_on_c, 13, 59, 0
18, 231540, Note_on_c, 13, 60, 84
18, 231565, Note_on_c, 13, 60, 0
18, 231570, Note_on_c, 13, 60, 84
18, 231595, Note_on_c, 13, 60, 0
18, 231600, Note_on_c, 13, 63, 84
18, 231625, Note_on_c, 13, 63, 0
18, 231630, Note_on_c, 13, 63, 84
18, 231655, Note_on_c, 13, 63, 0
18, 231660, Note_on_c, 13, 60, 84
18, 231685, Note_on_c, 13, 60, 0
18, 231690, Note_on_c, 13, 60, 84
18, 231715, Note_on_c, 13, 60, 0
18, 231720, Note_on_c, 13, 55, 84
18, 231745, Note_on_c, 13, 55, 0
18, 231750, Note_on_c, 13, 55, 84
18, 231775, Note_on_c, 13, 55, 0
18, 231780, Note_on_c, 13, 56, 84
18, 231805, Note_on_c, 13, 56, 0
18, 231810, Note_on_c, 13, 56, 84
18, 231835, Note_on_c, 13, 56, 0
18, 231840, Note_on_c, 13, 60, 84
18, 231865, Note_on_c, 13, 60, 0
18, 231870, Note_on_c, 13, 60, 84
18, 231895, Note_on_c, 13, 60, 0
18, 231900, Note_on_c, 13, 56, 84
18, 231925, Note_on_c, 13, 56, 0
18, 231930, Note_on_c, 13, 56, 84
18, 231955, Note_on_c, 13, 56, 0
18, 231960, Note_on_c, 13, 52, 84
18, 231985, Note_on_c, 13, 52, 0
18, 231990, Note_on_c, 13, 52, 84
18, 232015, Note_on_c, 13, 52, 0
18, 232020, Note_on_c, 13, 53, 84
18, 232045, Note_on_c, 13, 53, 0
18, 232050, Note_on_c, 13, 53, 84
18, 232075, Note_on_c, 13, 53, 0
18, 232080, Note_on_c, 13, 56, 84
18, 232105, Note_on_c, 13, 56, 0
18, 232110, Note_on_c, 13, 56, 84
18, 232135, Note_on_c, 13, 56, 0
18, 232140, Note_on_c, 13, 53, 84
18, 232165, Note_on_c, 13, 53, 0
18, 232170, Note_on_c, 13, 53, 84
18, 232195, Note_on_c, 13, 53, 0
18, 232200, Note_on_c, 13, 57, 84
18, 232225, Note_on_c, 13, 57, 0
18, 232230, Note_on_c, 13, 57, 84
18, 232255, Note_on_c, 13, 57, 0
18, 232260, Note_on_c, 13, 58, 84
18, 232285, Note_on_c, 13, 58, 0
18, 232290, Note_on_c, 13, 58, 84
18, 232315, Note_on_c, 13, 58, 0
18, 232320, Note_on_c, 13, 62, 84
18, 232345, Note_on_c, 13, 62, 0
18, 232350, Note_on_c, 13, 62, 84
18, 232375, Note_on_c, 13, 62, 0
18, 232380, Note_on_c, 13, 58, 84
18, 232405, Note_on_c, 13, 58, 0
18, 232410, Note_on_c, 13, 58, 84
18, 232435, Note_on_c, 13, 58, 0
18, 232500, Note_on_c, 13, 58, 84
18, 232544, Note_on_c, 13, 58, 0
18, 232560, Note_on_c, 13, 63, 84
18, 232604, Note_on_c, 13, 63, 0
18, 232620, Note_on_c, 13, 58, 84
18, 232664, Note_on_c, 13, 58, 0
18, 232680, Note_on_c, 13, 63, 84
18, 232724, Note_on_c, 13, 63, 0
18, 232740, Note_on_c, 13, 58, 84
18, 232784, Note_on_c, 13, 58, 0
18, 232800, Note_on_c, 13, 55, 92
18, 232844, Note_on_c, 13, 55, 0
18, 232860, Note_on_c, 13, 51, 84
18, 232904, Note_on_c, 13, 51, 0
18, 232920, Note_on_c, 13, 55, 84
18, 232964, Note_on_c, 13, 55, 0
18, 232980, Note_on_c, 13, 51, 84
18, 233024, Note_on_c, 13, 51, 0
18, 233040, Note_on_c, 13, 55, 84
18, 233084, Note_on_c, 13, 55, 0
18, 233100, Note_on_c, 13, 51, 84
18, 233144, Note_on_c, 13, 51, 0
18, 233160, Note_on_c, 13, 55, 84
18, 233204, Note_on_c, 13, 55, 0
18, 233220, Note_on_c, 13, 51, 84
18, 233264, Note_on_c, 13, 51, 0
18, 233280, Note_on_c, 13, 58, 92
18, 233324, Note_on_c, 13, 58, 0
18, 233340, Note_on_c, 13, 55, 84
18, 233384, Note_on_c, 13, 55, 0
18, 233400, Note_on_c, 13, 58, 84
18, 233451, Note_on_c, 13, 58, 0
18, 233460, Note_on_c, 13, 55, 84
18, 233511, Note_on_c, 13, 55, 0
18, 233520, Note_on_c, 13, 63, 92
18, 233571, Note_on_c, 13, 63, 0
18, 233580, Note_on_c, 13, 58, 84
18, 233631, Note_on_c, 13, 58, 0
18, 233640, Note_on_c, 13, 63, 84
18, 233691, Note_on_c, 13, 63, 0
18, 233700, Note_on_c, 13, 58, 84
18, 233751, Note_on_c, 13, 58, 0
18, 233760, Note_on_c, 13, 67, 92
18, 233811, Note_on_c, 13, 67, 0
18, 233820, Note_on_c, 13, 63, 84
18, 233871, Note_on_c, 13, 63, 0
18, 233880, Note_on_c, 13, 67, 84
18, 233931, Note_on_c, 13, 67, 0
18, 233940, Note_on_c, 13, 63, 84
18, 233991, Note_on_c, 13, 63, 0
18, 234000, Note_on_c, 13, 70, 92
18, 234051, Note_on_c, 13, 70, 0
18, 234060, Note_on_c, 13, 67, 84
18, 234111, Note_on_c, 13, 67, 0
18, 234120, Note_on_c, 13, 70, 84
18, 234171, Note_on_c, 13, 70, 0
18, 234180, Note_on_c, 13, 67, 84
18, 234231, Note_on_c, 13, 67, 0
18, 234240, Note_on_c, 13, 75, 92
18, 234291, Note_on_c, 13, 75, 0
18, 234300, Note_on_c, 13, 70, 84
18, 234351, Note_on_c, 13, 70, 0
18, 234360, Note_on_c, 13, 75, 84
18, 234404, Note_on_c, 13, 75, 0
18, 234420, Note_on_c, 13, 75, 84
18, 234464, Note_on_c, 13, 75, 0
18, 234480, Note_on_c, 13, 74, 84
18, 234524, Note_on_c, 13, 74, 0
18, 234540, Note_on_c, 13, 72, 84
18, 234584, Note_on_c, 13, 72, 0
18, 234600, Note_on_c, 13, 70, 85
18, 234644, Note_on_c, 13, 70, 0
18, 234660, Note_on_c, 13, 68, 85
18, 234704, Note_on_c, 13, 68, 0
18, 234720, Note_on_c, 13, 67, 85
18, 234764, Note_on_c, 13, 67, 0
18, 234780, Note_on_c, 13, 65, 85
18, 234824, Note_on_c, 13, 65, 0
18, 234840, Note_on_c, 13, 63, 86
18, 234884, Note_on_c, 13, 63, 0
18, 234900, Note_on_c, 13, 63, 86
18, 234944, Note_on_c, 13, 63, 0
18, 234960, Note_on_c, 13, 62, 86
18, 235004, Note_on_c, 13, 62, 0
18, 235020, Note_on_c, 13, 60, 86
18, 235064, Note_on_c, 13, 60, 0
18, 235080, Note_on_c, 13, 58, 87
18, 235124, Note_on_c, 13, 58, 0
18, 235140, Note_on_c, 13, 56, 87
18, 235184, Note_on_c, 13, 56, 0
18, 235200, Note_on_c, 13, 55, 87
18, 235244, Note_on_c, 13, 55, 0
18, 235260, Note_on_c, 13, 53, 87
18, 235304, Note_on_c, 13, 53, 0
18, 235320, Note_on_c, 13, 51, 88
18, 235364, Note_on_c, 13, 51, 0
18, 235380, Note_on_c, 13, 51, 88
18, 235424, Note_on_c, 13, 51, 0
18, 235440, Note_on_c, 13, 53, 88
18, 235484, Note_on_c, 13, 53, 0
18, 235500, Note_on_c, 13, 55, 88
18, 235544, Note_on_c, 13, 55, 0
18, 235560, Note_on_c, 13, 56, 89
18, 235604, Note_on_c, 13, 56, 0
18, 235620, Note_on_c, 13, 58, 89
18, 235664, Note_on_c, 13, 58, 0
18, 235680, Note_on_c, 13, 60, 89
18, 235724, Note_on_c, 13, 60, 0
18, 235740, Note_on_c, 13, 62, 89
18, 235784, Note_on_c, 13, 62, 0
18, 235800, Note_on_c, 13, 63, 90
18, 235844, Note_on_c, 13, 63, 0
18, 235860, Note_on_c, 13, 63, 90
18, 235904, Note_on_c, 13, 63, 0
18, 235920, Note_on_c, 13, 65, 90
18, 235964, Note_on_c, 13, 65, 0
18, 235980, Note_on_c, 13, 67, 90
18, 236024, Note_on_c, 13, 67, 0
18, 236040, Note_on_c, 13, 68, 91
18, 236084, Note_on_c, 13, 68, 0
18, 236100, Note_on_c, 13, 70, 91
18, 236144, Note_on_c, 13, 70, 0
18, 236160, Note_on_c, 13, 72, 91
18, 236204, Note_on_c, 13, 72, 0
18, 236220, Note_on_c, 13, 74, 91
18, 236264, Note_on_c, 13, 74, 0
18, 236280, Note_on_c, 13, 75, 84
18, 236280, Note_on_c, 13, 63, 84
18, 236519, Note_on_c, 13, 75, 0
18, 236519, Note_on_c, 13, 63, 0
18, 236760, Note_on_c, 13, 63, 84
18, 236999, Note_on_c, 13, 63, 0
18, 237240, Note_on_c, 13, 63, 84
18, 237419, Note_on_c, 13, 63, 0
18, 237480, Note_on_c, 13, 67, 84
18, 237659, Note_on_c, 13, 67, 0
18, 237720, Note_on_c, 13, 70, 84
18, 237899, Note_on_c, 13, 70, 0
18, 237960, Note_on_c, 13, 67, 84
18, 238139, Note_on_c, 13, 67, 0
18, 238200, Note_on_c, 13, 63, 84
18, 238439, Note_on_c, 13, 63, 0
18, 238680, Note_on_c, 13, 63, 84
18, 238919, Note_on_c, 13, 63, 0
18, 239160, Note_on_c, 13, 63, 84
18, 239391, Note_on_c, 13, 63, 0
18, 239400, Note_on_c, 13, 75, 84
18, 239631, Note_on_c, 13, 75, 0
18, 239640, Note_on_c, 13, 70, 84
18, 239871, Note_on_c, 13, 70, 0
18, 239880, Note_on_c, 13, 67, 84
18, 240111, Note_on_c, 13, 67, 0
18, 240120, Note_on_c, 13, 63, 84
18, 240239, Note_on_c, 13, 63, 0
18, 240660, Note_on_c, 13, 51, 84
18, 240685, Note_on_c, 13, 51, 0
18, 240690, Note_on_c, 13, 51, 84
18, 240715, Note_on_c, 13, 51, 0
18, 240720, Note_on_c, 13, 53, 84
18, 240745, Note_on_c, 13, 53, 0
18, 240750, Note_on_c, 13, 53, 84
18, 240775, Note_on_c, 13, 53, 0
18, 240780, Note_on_c, 13, 55, 84
18, 240805, Note_on_c, 13, 55, 0
18, 240810, Note_on_c, 13, 55, 84
18, 240835, Note_on_c, 13, 55, 0
18, 240840, Note_on_c, 13, 56, 84
18, 240865, Note_on_c, 13, 56, 0
18, 240870, Note_on_c, 13, 56, 84
18, 240895, Note_on_c, 13, 56, 0
18, 240900, Note_on_c, 13, 58, 84
18, 240925, Note_on_c, 13, 58, 0
18, 240930, Note_on_c, 13, 58, 84
18, 240955, Note_on_c, 13, 58, 0
18, 240960, Note_on_c, 13, 60, 84
18, 240985, Note_on_c, 13, 60, 0
18, 240990, Note_on_c, 13, 60, 84
18, 241015, Note_on_c, 13, 60, 0
18, 241020, Note_on_c, 13, 62, 84
18, 241045, Note_on_c, 13, 62, 0
18, 241050, Note_on_c, 13, 62, 84
18, 241075, Note_on_c, 13, 62, 0
18, 241080, Note_on_c, 13, 63, 84
18, 241199, Note_on_c, 13, 63, 0
18, 241560, Note_on_c, 13, 75, 84
18, 241679, Note_on_c, 13, 75, 0
18, 242040, Note_on_c, 13, 63, 84
18, 242279, Note_on_c, 13, 63, 0
18, 242279, End_track
19, 0, Start_track
19, 0, Title_t, "Cello"
19, 0, MIDI_port, 0
19, 0, Program_c, 14, 48
19, 0, Control_c, 14, 7, 96
19, 0, Control_c, 14, 10, 90
19, 0, Control_c, 14, 11, 127
19, 120, Note_on_c, 14, 62, 84
19, 479, Note_on_c, 14, 62, 0
19, 840, Note_on_c, 14, 55, 84
19, 891, Note_on_c, 14, 55, 0
19, 900, Note_on_c, 14, 53, 84
19, 951, Note_on_c, 14, 53, 0
19, 960, Note_on_c, 14, 51, 84
19, 1011, Note_on_c, 14, 51, 0
19, 1020, Note_on_c, 14, 50, 84
19, 1071, Note_on_c, 14, 50, 0
19, 1080, Note_on_c, 14, 51, 84
19, 1131, Note_on_c, 14, 51, 0
19, 1140, Note_on_c, 14, 50, 84
19, 1191, Note_on_c, 14, 50, 0
19, 1200, Note_on_c, 14, 48, 84
19, 1251, Note_on_c, 14, 48, 0
19, 1260, Note_on_c, 14, 46, 84
19, 1311, Note_on_c, 14, 46, 0
19, 1320, Note_on_c, 14, 48, 84
19, 1371, Note_on_c, 14, 48, 0
19, 1380, Note_on_c, 14, 46, 84
19, 1431, Note_on_c, 14, 46, 0
19, 1440, Note_on_c, 14, 45, 84
19, 1491, Note_on_c, 14, 45, 0
19, 1500, Note_on_c, 14, 43, 84
19, 1551, Note_on_c, 14, 43, 0
19, 1560, Note_on_c, 14, 44, 84
19, 1664, Note_on_c, 14, 44, 0
19, 1680, Note_on_c, 14, 56, 84
19, 1731, Note_on_c, 14, 56, 0
19, 1740, Note_on_c, 14, 55, 84
19, 1791, Note_on_c, 14, 55, 0
19, 1800, Note_on_c, 14, 53, 84
19, 1851, Note_on_c, 14, 53, 0
19, 1860, Note_on_c, 14, 55, 84
19, 1911, Note_on_c, 14, 55, 0
19, 1920, Note_on_c, 14, 53, 84
19, 1971, Note_on_c, 14, 53, 0
19, 1980, Note_on_c, 14, 51, 84
19, 2031, Note_on_c, 14, 51, 0
19, 2040, Note_on_c, 14, 50, 84
19, 2091, Note_on_c, 14, 50, 0
19, 2100, Note_on_c, 14, 51, 84
19, 2151, Note_on_c, 14, 51, 0
19, 2160, Note_on_c, 14, 53, 84
19, 2211, Note_on_c, 14, 53, 0
19, 2220, Note_on_c, 14, 55, 84
19, 2271, Note_on_c, 14, 55, 0
19, 2280, Note_on_c, 14, 53, 84
19, 2331, Note_on_c, 14, 53, 0
19, 2340, Note_on_c, 14, 51, 84
19, 2391, Note_on_c, 14, 51, 0
19, 2400, Note_on_c, 14, 50, 84
19, 2451, Note_on_c, 14, 50, 0
19, 2460, Note_on_c, 14, 48, 84
19, 2511, Note_on_c, 14, 48, 0
19, 2520, Note_on_c, 14, 46, 84
19, 2744, Note_on_c, 14, 46, 0
19, 2760, Note_on_c, 14, 46, 84
19, 2984, Note_on_c, 14, 46, 0
19, 3000, Note_on_c, 14, 46, 84
19, 3179, Note_on_c, 14, 46, 0
19, 3480, Note_on_c, 14, 50, 84
19, 3659, Note_on_c, 14, 50, 0
19, 3720, Note_on_c, 14, 53, 84
19, 3899, Note_on_c, 14, 53, 0
19, 3960, Note_on_c, 14, 58, 92
19, 4139, Note_on_c, 14, 58, 0
19, 4440, Note_on_c, 14, 46, 92
19, 4679, Note_on_c, 14, 46, 0
19, 4920, Note_on_c, 14, 46, 92
19, 5339, Note_on_c, 14, 46, 0
19, 5398, Program_c, 14, 45
19, 5400, Note_on_c, 14, 51, 44
19, 5519, Note_on_c, 14, 51, 0
19, 5880, Note_on_c, 14, 58, 44
19, 5999, Note_on_c, 14, 58, 0
19, 6360, Note_on_c, 14, 46, 44
19, 6479, Note_on_c, 14, 46, 0
19, 6840, Note_on_c, 14, 51, 44
19, 6959, Note_on_c, 14, 51, 0
19, 7320, Note_on_c, 14, 51, 44
19, 7439, Note_on_c, 14, 51, 0
19, 7560, Note_on_c, 14, 50, 44
19, 7679, Note_on_c, 14, 50, 0
19, 7800, Note_on_c, 14, 51, 44
19, 8039, Note_on_c, 14, 51, 0
19, 8160, Note_on_c, 14, 52, 44
19, 8279, Note_on_c, 14, 52, 0
19, 8280, Note_on_c, 14, 53, 44
19, 8399, Note_on_c, 14, 53, 0
19, 8400, Note_on_c, 14, 50, 44
19, 8519, Note_on_c, 14, 50, 0
19, 8520, Note_on_c, 14, 51, 44
19, 8639, Note_on_c, 14, 51, 0
19, 8640, Note_on_c, 14, 45, 44
19, 8759, Note_on_c, 14, 45, 0
19, 8760, Note_on_c, 14, 46, 44
19, 8999, Note_on_c, 14, 46, 0
19, 9240, Note_on_c, 14, 51, 44
19, 9479, Note_on_c, 14, 51, 0
19, 9720, Note_on_c, 14, 58, 44
19, 9959, Note_on_c, 14, 58, 0
19, 10200, Note_on_c, 14, 46, 44
19, 10439, Note_on_c, 14, 46, 0
19, 10680, Note_on_c, 14, 51, 44
19, 10919, Note_on_c, 14, 51, 0
19, 11160, Note_on_c, 14, 51, 44
19, 11279, Note_on_c, 14, 51, 0
19, 11400, Note_on_c, 14, 50, 44
19, 11519, Note_on_c, 14, 50, 0
19, 11640, Note_on_c, 14, 51, 44
19, 11759, Note_on_c, 14, 51, 0
19, 12000, Note_on_c, 14, 52, 44
19, 12119, Note_on_c, 14, 52, 0
19, 12120, Note_on_c, 14, 53, 44
19, 12209, Note_on_c, 14, 53, 0
19, 12240, Note_on_c, 14, 50, 44
19, 12329, Note_on_c, 14, 50, 0
19, 12360, Note_on_c, 14, 51, 44
19, 12449, Note_on_c, 14, 51, 0
19, 12480, Note_on_c, 14, 45, 44
19, 12569, Note_on_c, 14, 45, 0
19, 12600, Note_on_c, 14, 46, 44
19, 12779, Note_on_c, 14, 46, 0
19, 14880, Note_on_c, 14, 56, 44
19, 14999, Note_on_c, 14, 56, 0
19, 15000, Note_on_c, 14, 55, 44
19, 15119, Note_on_c, 14, 55, 0
19, 15480, Note_on_c, 14, 56, 44
19, 15599, Note_on_c, 14, 56, 0
19, 15960, Note_on_c, 14, 58, 44
19, 16079, Note_on_c, 14, 58, 0
19, 16200, Note_on_c, 14, 58, 44
19, 16319, Note_on_c, 14, 58, 0
19, 16440, Note_on_c, 14, 51, 44
19, 16559, Note_on_c, 14, 51, 0
19, 16890, Program_c, 14, 48
19, 16920, Note_on_c, 14, 46, 84
19, 17024, Note_on_c, 14, 46, 0
19, 17040, Note_on_c, 14, 46, 84
19, 17144, Note_on_c, 14, 46, 0
19, 17160, Note_on_c, 14, 46, 84
19, 17279, Note_on_c, 14, 46, 0
19, 17880, Note_on_c, 14, 46, 52
19, 18239, Note_on_c, 14, 46, 0
19, 18360, Program_c, 14, 45
19, 18720, Note_on_c, 14, 56, 52
19, 18839, Note_on_c, 14, 56, 0
19, 18840, Note_on_c, 14, 55, 52
19, 18959, Note_on_c, 14, 55, 0
19, 19320, Note_on_c, 14, 56, 52
19, 19439, Note_on_c, 14, 56, 0
19, 19800, Note_on_c, 14, 58, 52
19, 19919, Note_on_c, 14, 58, 0
19, 20040, Note_on_c, 14, 58, 52
19, 20159, Note_on_c, 14, 58, 0
19, 20280, Note_on_c, 14, 51, 52
19, 20399, Note_on_c, 14, 51, 0
19, 20730, Program_c, 14, 48
19, 20880, Note_on_c, 14, 51, 48
19, 20969, Note_on_c, 14, 51, 0
19, 21000, Note_on_c, 14, 51, 48
19, 21089, Note_on_c, 14, 51, 0
19, 21120, Note_on_c, 14, 51, 48
19, 21209, Note_on_c, 14, 51, 0
19, 21240, Note_on_c, 14, 51, 48
19, 21479, Note_on_c, 14, 51, 0
19, 21480, Note_on_c, 14, 50, 48
19, 21599, Note_on_c, 14, 50, 0
19, 22800, Note_on_c, 14, 58, 48
19, 22919, Note_on_c, 14, 58, 0
19, 22920, Note_on_c, 14, 56, 48
19, 23039, Note_on_c, 14, 56, 0
19, 23040, Note_on_c, 14, 53, 48
19, 23159, Note_on_c, 14, 53, 0
19, 23160, Note_on_c, 14, 55, 48
19, 23504, Note_on_c, 14, 55, 0
19, 23520, Note_on_c, 14, 48, 48
19, 23639, Note_on_c, 14, 48, 0
19, 23640, Note_on_c, 14, 53, 48
19, 23759, Note_on_c, 14, 53, 0
19, 23760, Note_on_c, 14, 46, 48
19, 23879, Note_on_c, 14, 46, 0
19, 23880, Note_on_c, 14, 51, 48
19, 23999, Note_on_c, 14, 51, 0
19, 24000, Note_on_c, 14, 48, 48
19, 24104, Note_on_c, 14, 48, 0
19, 24120, Note_on_c, 14, 46, 48
19, 24359, Note_on_c, 14, 46, 0
19, 24720, Note_on_c, 14, 51, 48
19, 24809, Note_on_c, 14, 51, 0
19, 24840, Note_on_c, 14, 51, 48
19, 24929, Note_on_c, 14, 51, 0
19, 24960, Note_on_c, 14, 51, 48
19, 25049, Note_on_c, 14, 51, 0
19, 25080, Note_on_c, 14, 51, 48
19, 25319, Note_on_c, 14, 51, 0
19, 25320, Note_on_c, 14, 50, 48
19, 25439, Note_on_c, 14, 50, 0
19, 26640, Note_on_c, 14, 58, 48
19, 26759, Note_on_c, 14, 58, 0
19, 26760, Note_on_c, 14, 56, 48
19, 26879, Note_on_c, 14, 56, 0
19, 26880, Note_on_c, 14, 53, 48
19, 26999, Note_on_c, 14, 53, 0
19, 27000, Note_on_c, 14, 55, 48
19, 27344, Note_on_c, 14, 55, 0
19, 27360, Note_on_c, 14, 48, 48
19, 27479, Note_on_c, 14, 48, 0
19, 27480, Note_on_c, 14, 53, 48
19, 27599, Note_on_c, 14, 53, 0
19, 27600, Note_on_c, 14, 46, 48
19, 27719, Note_on_c, 14, 46, 0
19, 27720, Note_on_c, 14, 51, 48
19, 27839, Note_on_c, 14, 51, 0
19, 27840, Note_on_c, 14, 48, 48
19, 27944, Note_on_c, 14, 48, 0
19, 27960, Note_on_c, 14, 46, 48
19, 28199, Note_on_c, 14, 46, 0
19, 28320, Note_on_c, 14, 58, 52
19, 28439, Note_on_c, 14, 58, 0
19, 28440, Note_on_c, 14, 56, 52
19, 28559, Note_on_c, 14, 56, 0
19, 28560, Note_on_c, 14, 58, 52
19, 28679, Note_on_c, 14, 58, 0
19, 28680, Note_on_c, 14, 59, 52
19, 28799, Note_on_c, 14, 59, 0
19, 28800, Note_on_c, 14, 60, 52
19, 28904, Note_on_c, 14, 60, 0
19, 28920, Note_on_c, 14, 51, 52
19, 29159, Note_on_c, 14, 51, 0
19, 29160, Note_on_c, 14, 50, 52
19, 29279, Note_on_c, 14, 50, 0
19, 29370, Control_c, 14, 11, 96
19, 29400, Control_c, 14, 11, 96
19, 29440, Control_c, 14, 11, 99
19, 29480, Control_c, 14, 11, 101
19, 29520, Note_on_c, 14, 46, 68
19, 29520, Control_c, 14, 11, 104
19, 29560, Control_c, 14, 11, 106
19, 29600, Control_c, 14, 11, 109
19, 29639, Note_on_c, 14, 46, 0
19, 29640, Control_c, 14, 11, 112
19, 29640, Note_on_c, 14, 50, 68
19, 29680, Control_c, 14, 11, 114
19, 29720, Control_c, 14, 11, 117
19, 29759, Note_on_c, 14, 50, 0
19, 29760, Note_on_c, 14, 53, 68
19, 29760, Control_c, 14, 11, 119
19, 29800, Control_c, 14, 11, 122
19, 29840, Control_c, 14, 11, 127
19, 29864, Note_on_c, 14, 53, 0
19, 29880, Note_on_c, 14, 56, 52
19, 30224, Note_on_c, 14, 56, 0
19, 30240, Note_on_c, 14, 58, 52
19, 30359, Note_on_c, 14, 58, 0
19, 30360, Note_on_c, 14, 63, 52
19, 30479, Note_on_c, 14, 63, 0
19, 30480, Note_on_c, 14, 58, 52
19, 30599, Note_on_c, 14, 58, 0
19, 30600, Note_on_c, 14, 55, 52
19, 30719, Note_on_c, 14, 55, 0
19, 30720, Note_on_c, 14, 51, 52
19, 30824, Note_on_c, 14, 51, 0
19, 30840, Note_on_c, 14, 48, 52
19, 31199, Note_on_c, 14, 48, 0
19, 31200, Note_on_c, 14, 47, 52
19, 31319, Note_on_c, 14, 47, 0
19, 31320, Note_on_c, 14, 46, 52
19, 31439, Note_on_c, 14, 46, 0
19, 31440, Note_on_c, 14, 50, 52
19, 31559, Note_on_c, 14, 50, 0
19, 31560, Note_on_c, 14, 53, 52
19, 31679, Note_on_c, 14, 53, 0
19, 31680, Note_on_c, 14, 56, 52
19, 31784, Note_on_c, 14, 56, 0
19, 31800, Note_on_c, 14, 55, 52
19, 31919, Note_on_c, 14, 55, 0
19, 31920, Note_on_c, 14, 58, 52
19, 32024, Note_on_c, 14, 58, 0
19, 32040, Note_on_c, 14, 51, 52
19, 32144, Note_on_c, 14, 51, 0
19, 32160, Note_on_c, 14, 58, 52
19, 32279, Note_on_c, 14, 58, 0
19, 32280, Note_on_c, 14, 56, 52
19, 32399, Note_on_c, 14, 56, 0
19, 32400, Note_on_c, 14, 58, 52
19, 32519, Note_on_c, 14, 58, 0
19, 32520, Note_on_c, 14, 59, 52
19, 32639, Note_on_c, 14, 59, 0
19, 32640, Note_on_c, 14, 60, 52
19, 32744, Note_on_c, 14, 60, 0
19, 32760, Note_on_c, 14, 51, 52
19, 32999, Note_on_c, 14, 51, 0
19, 33000, Note_on_c, 14, 50, 52
19, 33119, Note_on_c, 14, 50, 0
19, 33210, Control_c, 14, 11, 96
19, 33240, Control_c, 14, 11, 96
19, 33280, Control_c, 14, 11, 99
19, 33320, Control_c, 14, 11, 101
19, 33360, Note_on_c, 14, 46, 68
19, 33360, Control_c, 14, 11, 104
19, 33400, Control_c, 14, 11, 106
19, 33440, Control_c, 14, 11, 109
19, 33479, Note_on_c, 14, 46, 0
19, 33480, Note_on_c, 14, 50, 68
19, 33480, Control_c, 14, 11, 112
19, 33520, Control_c, 14, 11, 114
19, 33560, Control_c, 14, 11, 117
19, 33599, Note_on_c, 14, 50, 0
19, 33600, Control_c, 14, 11, 119
19, 33600, Note_on_c, 14, 53, 68
19, 33640, Control_c, 14, 11, 122
19, 33680, Control_c, 14, 11, 127
19, 33704, Note_on_c, 14, 53, 0
19, 33720, Note_on_c, 14, 56, 52
19, 34064, Note_on_c, 14, 56, 0
19, 34080, Note_on_c, 14, 58, 52
19, 34199, Note_on_c, 14, 58, 0
19, 34200, Note_on_c, 14, 63, 52
19, 34319, Note_on_c, 14, 63, 0
19, 34320, Note_on_c, 14, 58, 52
19, 34439, Note_on_c, 14, 58, 0
19, 34440, Note_on_c, 14, 55, 52
19, 34559, Note_on_c, 14, 55, 0
19, 34560, Note_on_c, 14, 51, 52
19, 34664, Note_on_c, 14, 51, 0
19, 34680, Note_on_c, 14, 48, 52
19, 35039, Note_on_c, 14, 48, 0
19, 35040, Note_on_c, 14, 47, 52
19, 35159, Note_on_c, 14, 47, 0
19, 35160, Note_on_c, 14, 46, 52
19, 35279, Note_on_c, 14, 46, 0
19, 35280, Note_on_c, 14, 50, 52
19, 35399, Note_on_c, 14, 50, 0
19, 35400, Note_on_c, 14, 53, 52
19, 35519, Note_on_c, 14, 53, 0
19, 35520, Note_on_c, 14, 56, 52
19, 35624, Note_on_c, 14, 56, 0
19, 35640, Note_on_c, 14, 55, 52
19, 35759, Note_on_c, 14, 55, 0
19, 35760, Note_on_c, 14, 58, 52
19, 35864, Note_on_c, 14, 58, 0
19, 35880, Note_on_c, 14, 51, 52
19, 35999, Note_on_c, 14, 51, 0
19, 37640, Note_on_c, 14, 60, 52
19, 37699, Note_on_c, 14, 60, 0
19, 37720, Note_on_c, 14, 58, 52
19, 37779, Note_on_c, 14, 58, 0
19, 37800, Note_on_c, 14, 56, 52
19, 37859, Note_on_c, 14, 56, 0
19, 37880, Note_on_c, 14, 55, 52
19, 37939, Note_on_c, 14, 55, 0
19, 37960, Note_on_c, 14, 53, 52
19, 38019, Note_on_c, 14, 53, 0
19, 38040, Note_on_c, 14, 51, 52
19, 38111, Note_on_c, 14, 51, 0
19, 38120, Note_on_c, 14, 63, 53
19, 38191, Note_on_c, 14, 63, 0
19, 38200, Note_on_c, 14, 63, 54
19, 38271, Note_on_c, 14, 63, 0
19, 38280, Note_on_c, 14, 65, 56
19, 38351, Note_on_c, 14, 65, 0
19, 38360, Note_on_c, 14, 65, 57
19, 38431, Note_on_c, 14, 65, 0
19, 38440, Note_on_c, 14, 65, 58
19, 38511, Note_on_c, 14, 65, 0
19, 38520, Note_on_c, 14, 63, 60
19, 38591, Note_on_c, 14, 63, 0
19, 38600, Note_on_c, 14, 63, 61
19, 38671, Note_on_c, 14, 63, 0
19, 38680, Note_on_c, 14, 61, 62
19, 38751, Note_on_c, 14, 61, 0
19, 38760, Note_on_c, 14, 60, 64
19, 38831, Note_on_c, 14, 60, 0
19, 38840, Note_on_c, 14, 60, 65
19, 38911, Note_on_c, 14, 60, 0
19, 38920, Note_on_c, 14, 60, 66
19, 38991, Note_on_c, 14, 60, 0
19, 39000, Note_on_c, 14, 60, 52
19, 39071, Note_on_c, 14, 60, 0
19, 39080, Note_on_c, 14, 60, 52
19, 39151, Note_on_c, 14, 60, 0
19, 39160, Note_on_c, 14, 59, 52
19, 39231, Note_on_c, 14, 59, 0
19, 39240, Note_on_c, 14, 58, 52
19, 39311, Note_on_c, 14, 58, 0
19, 39320, Note_on_c, 14, 58, 52
19, 39391, Note_on_c, 14, 58, 0
19, 39400, Note_on_c, 14, 58, 52
19, 39471, Note_on_c, 14, 58, 0
19, 39480, Note_on_c, 14, 58, 52
19, 39551, Note_on_c, 14, 58, 0
19, 39560, Note_on_c, 14, 57, 52
19, 39631, Note_on_c, 14, 57, 0
19, 39640, Note_on_c, 14, 58, 52
19, 39711, Note_on_c, 14, 58, 0
19, 39720, Note_on_c, 14, 46, 52
19, 39839, Note_on_c, 14, 46, 0
19, 41480, Note_on_c, 14, 60, 52
19, 41539, Note_on_c, 14, 60, 0
19, 41560, Note_on_c, 14, 58, 52
19, 41619, Note_on_c, 14, 58, 0
19, 41640, Note_on_c, 14, 56, 52
19, 41699, Note_on_c, 14, 56, 0
19, 41720, Note_on_c, 14, 55, 52
19, 41779, Note_on_c, 14, 55, 0
19, 41800, Note_on_c, 14, 53, 52
19, 41859, Note_on_c, 14, 53, 0
19, 41880, Note_on_c, 14, 51, 52
19, 41951, Note_on_c, 14, 51, 0
19, 41960, Note_on_c, 14, 63, 53
19, 42031, Note_on_c, 14, 63, 0
19, 42040, Note_on_c, 14, 63, 54
19, 42111, Note_on_c, 14, 63, 0
19, 42120, Note_on_c, 14, 65, 56
19, 42191, Note_on_c, 14, 65, 0
19, 42200, Note_on_c, 14, 65, 57
19, 42271, Note_on_c, 14, 65, 0
19, 42280, Note_on_c, 14, 65, 58
19, 42351, Note_on_c, 14, 65, 0
19, 42360, Note_on_c, 14, 63, 60
19, 42431, Note_on_c, 14, 63, 0
19, 42440, Note_on_c, 14, 63, 61
19, 42511, Note_on_c, 14, 63, 0
19, 42520, Note_on_c, 14, 61, 62
19, 42591, Note_on_c, 14, 61, 0
19, 42600, Note_on_c, 14, 60, 64
19, 42671, Note_on_c, 14, 60, 0
19, 42680, Note_on_c, 14, 60, 65
19, 42751, Note_on_c, 14, 60, 0
19, 42760, Note_on_c, 14, 60, 66
19, 42831, Note_on_c, 14, 60, 0
19, 42840, Note_on_c, 14, 60, 52
19, 42911, Note_on_c, 14, 60, 0
19, 42920, Note_on_c, 14, 60, 52
19, 42991, Note_on_c, 14, 60, 0
19, 43000, Note_on_c, 14, 59, 52
19, 43071, Note_on_c, 14, 59, 0
19, 43080, Note_on_c, 14, 58, 52
19, 43151, Note_on_c, 14, 58, 0
19, 43160, Note_on_c, 14, 58, 52
19, 43231, Note_on_c, 14, 58, 0
19, 43240, Note_on_c, 14, 58, 52
19, 43311, Note_on_c, 14, 58, 0
19, 43320, Note_on_c, 14, 58, 52
19, 43391, Note_on_c, 14, 58, 0
19, 43400, Note_on_c, 14, 57, 52
19, 43471, Note_on_c, 14, 57, 0
19, 43480, Note_on_c, 14, 58, 52
19, 43551, Note_on_c, 14, 58, 0
19, 43560, Note_on_c, 14, 46, 52
19, 43664, Note_on_c, 14, 46, 0
19, 43680, Note_on_c, 14, 46, 52
19, 43739, Note_on_c, 14, 46, 0
19, 43740, Note_on_c, 14, 48, 52
19, 43791, Note_on_c, 14, 48, 0
19, 43800, Note_on_c, 14, 50, 52
19, 43859, Note_on_c, 14, 50, 0
19, 43880, Note_on_c, 14, 50, 52
19, 43959, Note_on_c, 14, 50, 0
19, 43960, Note_on_c, 14, 51, 52
19, 44031, Note_on_c, 14, 51, 0
19, 44040, Note_on_c, 14, 53, 52
19, 44099, Note_on_c, 14, 53, 0
19, 44120, Note_on_c, 14, 53, 52
19, 44199, Note_on_c, 14, 53, 0
19, 44200, Note_on_c, 14, 55, 52
19, 44271, Note_on_c, 14, 55, 0
19, 44280, Note_on_c, 14, 56, 52
19, 44519, Note_on_c, 14, 56, 0
19, 44640, Note_on_c, 14, 58, 52
19, 44699, Note_on_c, 14, 58, 0
19, 44700, Note_on_c, 14, 60, 52
19, 44751, Note_on_c, 14, 60, 0
19, 44760, Note_on_c, 14, 62, 52
19, 44819, Note_on_c, 14, 62, 0
19, 44840, Note_on_c, 14, 62, 54
19, 44919, Note_on_c, 14, 62, 0
19, 44920, Note_on_c, 14, 63, 57
19, 44991, Note_on_c, 14, 63, 0
19, 45000, Note_on_c, 14, 65, 60
19, 45059, Note_on_c, 14, 65, 0
19, 45080, Note_on_c, 14, 65, 62
19, 45159, Note_on_c, 14, 65, 0
19, 45160, Note_on_c, 14, 67, 65
19, 45231, Note_on_c, 14, 67, 0
19, 45240, Note_on_c, 14, 68, 52
19, 45584, Note_on_c, 14, 68, 0
19, 45600, Note_on_c, 14, 58, 52
19, 45704, Note_on_c, 14, 58, 0
19, 45720, Note_on_c, 14, 63, 52
19, 45791, Note_on_c, 14, 63, 0
19, 45800, Note_on_c, 14, 63, 53
19, 45871, Note_on_c, 14, 63, 0
19, 45880, Note_on_c, 14, 63, 54
19, 45951, Note_on_c, 14, 63, 0
19, 45960, Note_on_c, 14, 63, 56
19, 46031, Note_on_c, 14, 63, 0
19, 46040, Note_on_c, 14, 63, 57
19, 46111, Note_on_c, 14, 63, 0
19, 46120, Note_on_c, 14, 63, 58
19, 46191, Note_on_c, 14, 63, 0
19, 46200, Note_on_c, 14, 63, 60
19, 46271, Note_on_c, 14, 63, 0
19, 46280, Note_on_c, 14, 63, 61
19, 46351, Note_on_c, 14, 63, 0
19, 46360, Note_on_c, 14, 63, 62
19, 46431, Note_on_c, 14, 63, 0
19, 46440, Note_on_c, 14, 63, 64
19, 46511, Note_on_c, 14, 63, 0
19, 46520, Note_on_c, 14, 63, 65
19, 46591, Note_on_c, 14, 63, 0
19, 46600, Note_on_c, 14, 63, 66
19, 46671, Note_on_c, 14, 63, 0
19, 46680, Note_on_c, 14, 63, 52
19, 46751, Note_on_c, 14, 63, 0
19, 46760, Note_on_c, 14, 63, 52
19, 46831, Note_on_c, 14, 63, 0
19, 46840, Note_on_c, 14, 63, 52
19, 46911, Note_on_c, 14, 63, 0
19, 46920, Note_on_c, 14, 63, 52
19, 46991, Note_on_c, 14, 63, 0
19, 47000, Note_on_c, 14, 63, 52
19, 47071, Note_on_c, 14, 63, 0
19, 47080, Note_on_c, 14, 63, 52
19, 47151, Note_on_c, 14, 63, 0
19, 47160, Note_on_c, 14, 63, 52
19, 47399, Note_on_c, 14, 63, 0
19, 47520, Note_on_c, 14, 46, 52
19, 47579, Note_on_c, 14, 46, 0
19, 47580, Note_on_c, 14, 48, 52
19, 47631, Note_on_c, 14, 48, 0
19, 47640, Note_on_c, 14, 50, 52
19, 47699, Note_on_c, 14, 50, 0
19, 47720, Note_on_c, 14, 50, 52
19, 47799, Note_on_c, 14, 50, 0
19, 47800, Note_on_c, 14, 51, 52
19, 47871, Note_on_c, 14, 51, 0
19, 47880, Note_on_c, 14, 53, 52
19, 47939, Note_on_c, 14, 53, 0
19, 47960, Note_on_c, 14, 53, 52
19, 48039, Note_on_c, 14, 53, 0
19, 48040, Note_on_c, 14, 55, 52
19, 48111, Note_on_c, 14, 55, 0
19, 48120, Note_on_c, 14, 56, 52
19, 48359, Note_on_c, 14, 56, 0
19, 48480, Note_on_c, 14, 58, 52
19, 48539, Note_on_c, 14, 58, 0
19, 48540, Note_on_c, 14, 60, 52
19, 48591, Note_on_c, 14, 60, 0
19, 48600, Note_on_c, 14, 62, 52
19, 48659, Note_on_c, 14, 62, 0
19, 48680, Note_on_c, 14, 62, 54
19, 48759, Note_on_c, 14, 62, 0
19, 48760, Note_on_c, 14, 63, 57
19, 48831, Note_on_c, 14, 63, 0
19, 48840, Note_on_c, 14, 65, 60
19, 48899, Note_on_c, 14, 65, 0
19, 48920, Note_on_c, 14, 65, 62
19, 48999, Note_on_c, 14, 65, 0
19, 49000, Note_on_c, 14, 67, 65
19, 49071, Note_on_c, 14, 67, 0
19, 49080, Note_on_c, 14, 68, 52
19, 49424, Note_on_c, 14, 68, 0
19, 49440, Note_on_c, 14, 58, 52
19, 49544, Note_on_c, 14, 58, 0
19, 49560, Note_on_c, 14, 63, 52
19, 49631, Note_on_c, 14, 63, 0
19, 49640, Note_on_c, 14, 63, 53
19, 49711, Note_on_c, 14, 63, 0
19, 49720, Note_on_c, 14, 63, 54
19, 49791, Note_on_c, 14, 63, 0
19, 49800, Note_on_c, 14, 63, 56
19, 49871, Note_on_c, 14, 63, 0
19, 49880, Note_on_c, 14, 63, 57
19, 49951, Note_on_c, 14, 63, 0
19, 49960, Note_on_c, 14, 63, 58
19, 50031, Note_on_c, 14, 63, 0
19, 50040, Note_on_c, 14, 63, 60
19, 50111, Note_on_c, 14, 63, 0
19, 50120, Note_on_c, 14, 63, 61
19, 50191, Note_on_c, 14, 63, 0
19, 50200, Note_on_c, 14, 63, 62
19, 50271, Note_on_c, 14, 63, 0
19, 50280, Note_on_c, 14, 63, 64
19, 50351, Note_on_c, 14, 63, 0
19, 50360, Note_on_c, 14, 63, 65
19, 50431, Note_on_c, 14, 63, 0
19, 50440, Note_on_c, 14, 63, 66
19, 50511, Note_on_c, 14, 63, 0
19, 50520, Note_on_c, 14, 63, 52
19, 50591, Note_on_c, 14, 63, 0
19, 50600, Note_on_c, 14, 63, 52
19, 50671, Note_on_c, 14, 63, 0
19, 50680, Note_on_c, 14, 63, 52
19, 50751, Note_on_c, 14, 63, 0
19, 50760, Note_on_c, 14, 63, 52
19, 50831, Note_on_c, 14, 63, 0
19, 50840, Note_on_c, 14, 63, 52
19, 50911, Note_on_c, 14, 63, 0
19, 50920, Note_on_c, 14, 63, 52
19, 50991, Note_on_c, 14, 63, 0
19, 51000, Note_on_c, 14, 63, 52
19, 51239, Note_on_c, 14, 63, 0
19, 51420, Program_c, 14, 45
19, 51480, Note_on_c, 14, 51, 52
19, 51719, Note_on_c, 14, 51, 0
19, 51960, Note_on_c, 14, 58, 52
19, 52199, Note_on_c, 14, 58, 0
19, 52440, Note_on_c, 14, 46, 52
19, 52679, Note_on_c, 14, 46, 0
19, 52920, Note_on_c, 14, 51, 52
19, 53159, Note_on_c, 14, 51, 0
19, 53400, Note_on_c, 14, 51, 52
19, 53639, Note_on_c, 14, 51, 0
19, 53640, Note_on_c, 14, 50, 60
19, 53879, Note_on_c, 14, 50, 0
19, 53880, Note_on_c, 14, 51, 68
19, 54119, Note_on_c, 14, 51, 0
19, 54240, Note_on_c, 14, 52, 68
19, 54359, Note_on_c, 14, 52, 0
19, 54360, Note_on_c, 14, 53, 68
19, 54479, Note_on_c, 14, 53, 0
19, 54480, Note_on_c, 14, 50, 64
19, 54599, Note_on_c, 14, 50, 0
19, 54600, Note_on_c, 14, 51, 60
19, 54719, Note_on_c, 14, 51, 0
19, 54720, Note_on_c, 14, 45, 56
19, 54839, Note_on_c, 14, 45, 0
19, 54840, Note_on_c, 14, 46, 52
19, 54959, Note_on_c, 14, 46, 0
19, 54960, Note_on_c, 14, 58, 52
19, 55079, Note_on_c, 14, 58, 0
19, 55080, Note_on_c, 14, 46, 52
19, 55199, Note_on_c, 14, 46, 0
19, 55290, Program_c, 14, 48
19, 55320, Note_on_c, 14, 39, 76
19, 55371, Note_on_c, 14, 39, 0
19, 55380, Note_on_c, 14, 41, 76
19, 55431, Note_on_c, 14, 41, 0
19, 55440, Note_on_c, 14, 43, 76
19, 55491, Note_on_c, 14, 43, 0
19, 55500, Note_on_c, 14, 44, 76
19, 55551, Note_on_c, 14, 44, 0
19, 55560, Note_on_c, 14, 46, 76
19, 55611, Note_on_c, 14, 46, 0
19, 55620, Note_on_c, 14, 48, 76
19, 55671, Note_on_c, 14, 48, 0
19, 55680, Note_on_c, 14, 50, 76
19, 55731, Note_on_c, 14, 50, 0
19, 55740, Note_on_c, 14, 51, 76
19, 55791, Note_on_c, 14, 51, 0
19, 55800, Note_on_c, 14, 53, 76
19, 55851, Note_on_c, 14, 53, 0
19, 55860, Note_on_c, 14, 55, 76
19, 55911, Note_on_c, 14, 55, 0
19, 55920, Note_on_c, 14, 56, 76
19, 55971, Note_on_c, 14, 56, 0
19, 55980, Note_on_c, 14, 55, 76
19, 56031, Note_on_c, 14, 55, 0
19, 56040, Note_on_c, 14, 53, 76
19, 56091, Note_on_c, 14, 53, 0
19, 56100, Note_on_c, 14, 51, 76
19, 56151, Note_on_c, 14, 51, 0
19, 56160, Note_on_c, 14, 50, 76
19, 56211, Note_on_c, 14, 50, 0
19, 56220, Note_on_c, 14, 48, 76
19, 56271, Note_on_c, 14, 48, 0
19, 56280, Note_on_c, 14, 46, 76
19, 56331, Note_on_c, 14, 46, 0
19, 56340, Note_on_c, 14, 48, 76
19, 56391, Note_on_c, 14, 48, 0
19, 56400, Note_on_c, 14, 50, 76
19, 56451, Note_on_c, 14, 50, 0
19, 56460, Note_on_c, 14, 51, 76
19, 56511, Note_on_c, 14, 51, 0
19, 56520, Note_on_c, 14, 53, 76
19, 56571, Note_on_c, 14, 53, 0
19, 56580, Note_on_c, 14, 55, 76
19, 56631, Note_on_c, 14, 55, 0
19, 56640, Note_on_c, 14, 56, 76
19, 56691, Note_on_c, 14, 56, 0
19, 56700, Note_on_c, 14, 53, 76
19, 56751, Note_on_c, 14, 53, 0
19, 56760, Note_on_c, 14, 55, 76
19, 56811, Note_on_c, 14, 55, 0
19, 56820, Note_on_c, 14, 56, 76
19, 56871, Note_on_c, 14, 56, 0
19, 56880, Note_on_c, 14, 58, 76
19, 56931, Note_on_c, 14, 58, 0
19, 56940, Note_on_c, 14, 60, 76
19, 56991, Note_on_c, 14, 60, 0
19, 57000, Note_on_c, 14, 58, 76
19, 57051, Note_on_c, 14, 58, 0
19, 57060, Note_on_c, 14, 56, 76
19, 57111, Note_on_c, 14, 56, 0
19, 57120, Note_on_c, 14, 55, 76
19, 57171, Note_on_c, 14, 55, 0
19, 57180, Note_on_c, 14, 53, 76
19, 57231, Note_on_c, 14, 53, 0
19, 57240, Note_on_c, 14, 51, 76
19, 57291, Note_on_c, 14, 51, 0
19, 57300, Note_on_c, 14, 55, 76
19, 57351, Note_on_c, 14, 55, 0
19, 57360, Note_on_c, 14, 53, 76
19, 57411, Note_on_c, 14, 53, 0
19, 57420, Note_on_c, 14, 51, 76
19, 57471, Note_on_c, 14, 51, 0
19, 57480, Note_on_c, 14, 50, 76
19, 57531, Note_on_c, 14, 50, 0
19, 57540, Note_on_c, 14, 46, 76
19, 57591, Note_on_c, 14, 46, 0
19, 57600, Note_on_c, 14, 48, 76
19, 57651, Note_on_c, 14, 48, 0
19, 57660, Note_on_c, 14, 50, 76
19, 57711, Note_on_c, 14, 50, 0
19, 57720, Note_on_c, 14, 51, 84
19, 57771, Note_on_c, 14, 51, 0
19, 57780, Note_on_c, 14, 50, 76
19, 57831, Note_on_c, 14, 50, 0
19, 57840, Note_on_c, 14, 51, 76
19, 57891, Note_on_c, 14, 51, 0
19, 57900, Note_on_c, 14, 49, 76
19, 57951, Note_on_c, 14, 49, 0
19, 57960, Note_on_c, 14, 48, 76
19, 58011, Note_on_c, 14, 48, 0
19, 58020, Note_on_c, 14, 50, 76
19, 58071, Note_on_c, 14, 50, 0
19, 58080, Note_on_c, 14, 52, 76
19, 58131, Note_on_c, 14, 52, 0
19, 58140, Note_on_c, 14, 48, 76
19, 58191, Note_on_c, 14, 48, 0
19, 58200, Note_on_c, 14, 53, 76
19, 58251, Note_on_c, 14, 53, 0
19, 58260, Note_on_c, 14, 51, 76
19, 58311, Note_on_c, 14, 51, 0
19, 58320, Note_on_c, 14, 50, 76
19, 58371, Note_on_c, 14, 50, 0
19, 58380, Note_on_c, 14, 46, 76
19, 58431, Note_on_c, 14, 46, 0
19, 58440, Note_on_c, 14, 51, 76
19, 58491, Note_on_c, 14, 51, 0
19, 58500, Note_on_c, 14, 50, 76
19, 58551, Note_on_c, 14, 50, 0
19, 58560, Note_on_c, 14, 51, 76
19, 58611, Note_on_c, 14, 51, 0
19, 58620, Note_on_c, 14, 45, 76
19, 58671, Note_on_c, 14, 45, 0
19, 58680, Note_on_c, 14, 46, 76
19, 58731, Note_on_c, 14, 46, 0
19, 58740, Note_on_c, 14, 51, 76
19, 58791, Note_on_c, 14, 51, 0
19, 58800, Note_on_c, 14, 55, 76
19, 58851, Note_on_c, 14, 55, 0
19, 58860, Note_on_c, 14, 58, 76
19, 58911, Note_on_c, 14, 58, 0
19, 58920, Note_on_c, 14, 46, 76
19, 59039, Note_on_c, 14, 46, 0
19, 59640, Note_on_c, 14, 46, 76
19, 59729, Note_on_c, 14, 46, 0
19, 59760, Note_on_c, 14, 46, 76
19, 59849, Note_on_c, 14, 46, 0
19, 59880, Note_on_c, 14, 46, 76
19, 59969, Note_on_c, 14, 46, 0
19, 60600, Note_on_c, 14, 46, 52
19, 60959, Note_on_c, 14, 46, 0
19, 61050, Program_c, 14, 45
19, 61080, Note_on_c, 14, 55, 52
19, 61199, Note_on_c, 14, 55, 0
19, 61560, Note_on_c, 14, 56, 52
19, 61679, Note_on_c, 14, 56, 0
19, 62040, Note_on_c, 14, 58, 52
19, 62159, Note_on_c, 14, 58, 0
19, 62280, Note_on_c, 14, 46, 52
19, 62399, Note_on_c, 14, 46, 0
19, 62490, Program_c, 14, 48
19, 62520, Note_on_c, 14, 51, 76
19, 62564, Note_on_c, 14, 51, 0
19, 62580, Note_on_c, 14, 58, 76
19, 62624, Note_on_c, 14, 58, 0
19, 62640, Note_on_c, 14, 56, 76
19, 62684, Note_on_c, 14, 56, 0
19, 62700, Note_on_c, 14, 55, 76
19, 62744, Note_on_c, 14, 55, 0
19, 62760, Note_on_c, 14, 53, 76
19, 62804, Note_on_c, 14, 53, 0
19, 62820, Note_on_c, 14, 51, 76
19, 62864, Note_on_c, 14, 51, 0
19, 62880, Note_on_c, 14, 50, 76
19, 62924, Note_on_c, 14, 50, 0
19, 62940, Note_on_c, 14, 48, 76
19, 62984, Note_on_c, 14, 48, 0
19, 63000, Note_on_c, 14, 46, 76
19, 63051, Note_on_c, 14, 46, 0
19, 63060, Note_on_c, 14, 45, 76
19, 63111, Note_on_c, 14, 45, 0
19, 63120, Note_on_c, 14, 46, 76
19, 63171, Note_on_c, 14, 46, 0
19, 63180, Note_on_c, 14, 48, 76
19, 63231, Note_on_c, 14, 48, 0
19, 63240, Note_on_c, 14, 50, 76
19, 63291, Note_on_c, 14, 50, 0
19, 63300, Note_on_c, 14, 51, 76
19, 63351, Note_on_c, 14, 51, 0
19, 63360, Note_on_c, 14, 53, 76
19, 63411, Note_on_c, 14, 53, 0
19, 63420, Note_on_c, 14, 52, 76
19, 63471, Note_on_c, 14, 52, 0
19, 63480, Note_on_c, 14, 53, 76
19, 63531, Note_on_c, 14, 53, 0
19, 63540, Note_on_c, 14, 55, 76
19, 63591, Note_on_c, 14, 55, 0
19, 63600, Note_on_c, 14, 56, 76
19, 63651, Note_on_c, 14, 56, 0
19, 63660, Note_on_c, 14, 55, 76
19, 63711, Note_on_c, 14, 55, 0
19, 63720, Note_on_c, 14, 53, 76
19, 63771, Note_on_c, 14, 53, 0
19, 63780, Note_on_c, 14, 51, 76
19, 63831, Note_on_c, 14, 51, 0
19, 63840, Note_on_c, 14, 50, 76
19, 63891, Note_on_c, 14, 50, 0
19, 63900, Note_on_c, 14, 48, 76
19, 63951, Note_on_c, 14, 48, 0
19, 63960, Note_on_c, 14, 46, 76
19, 64064, Note_on_c, 14, 46, 0
19, 64080, Note_on_c, 14, 56, 76
19, 64131, Note_on_c, 14, 56, 0
19, 64140, Note_on_c, 14, 55, 76
19, 64191, Note_on_c, 14, 55, 0
19, 64200, Note_on_c, 14, 53, 76
19, 64251, Note_on_c, 14, 53, 0
19, 64260, Note_on_c, 14, 51, 76
19, 64311, Note_on_c, 14, 51, 0
19, 64320, Note_on_c, 14, 50, 76
19, 64371, Note_on_c, 14, 50, 0
19, 64380, Note_on_c, 14, 51, 76
19, 64431, Note_on_c, 14, 51, 0
19, 64440, Note_on_c, 14, 46, 76
19, 64799, Note_on_c, 14, 46, 0
19, 64920, Note_on_c, 14, 43, 76
19, 64971, Note_on_c, 14, 43, 0
19, 64980, Note_on_c, 14, 44, 76
19, 65031, Note_on_c, 14, 44, 0
19, 65040, Note_on_c, 14, 46, 76
19, 65091, Note_on_c, 14, 46, 0
19, 65100, Note_on_c, 14, 48, 76
19, 65151, Note_on_c, 14, 48, 0
19, 65160, Note_on_c, 14, 50, 76
19, 65211, Note_on_c, 14, 50, 0
19, 65220, Note_on_c, 14, 51, 76
19, 65271, Note_on_c, 14, 51, 0
19, 65280, Note_on_c, 14, 53, 76
19, 65331, Note_on_c, 14, 53, 0
19, 65340, Note_on_c, 14, 55, 76
19, 65391, Note_on_c, 14, 55, 0
19, 65400, Note_on_c, 14, 56, 76
19, 65451, Note_on_c, 14, 56, 0
19, 65460, Note_on_c, 14, 55, 76
19, 65511, Note_on_c, 14, 55, 0
19, 65520, Note_on_c, 14, 53, 76
19, 65571, Note_on_c, 14, 53, 0
19, 65580, Note_on_c, 14, 51, 76
19, 65631, Note_on_c, 14, 51, 0
19, 65640, Note_on_c, 14, 50, 76
19, 65691, Note_on_c, 14, 50, 0
19, 65700, Note_on_c, 14, 48, 76
19, 65751, Note_on_c, 14, 48, 0
19, 65760, Note_on_c, 14, 46, 76
19, 65811, Note_on_c, 14, 46, 0
19, 65820, Note_on_c, 14, 44, 76
19, 65871, Note_on_c, 14, 44, 0
19, 65880, Note_on_c, 14, 46, 76
19, 65931, Note_on_c, 14, 46, 0
19, 65940, Note_on_c, 14, 51, 76
19, 65991, Note_on_c, 14, 51, 0
19, 66000, Note_on_c, 14, 55, 76
19, 66051, Note_on_c, 14, 55, 0
19, 66060, Note_on_c, 14, 58, 76
19, 66111, Note_on_c, 14, 58, 0
19, 66120, Note_on_c, 14, 46, 76
19, 66171, Note_on_c, 14, 46, 0
19, 66180, Note_on_c, 14, 58, 76
19, 66231, Note_on_c, 14, 58, 0
19, 66240, Note_on_c, 14, 46, 76
19, 66291, Note_on_c, 14, 46, 0
19, 66300, Note_on_c, 14, 46, 76
19, 66351, Note_on_c, 14, 46, 0
19, 66360, Note_on_c, 14, 51, 76
19, 66479, Note_on_c, 14, 51, 0
19, 66840, Note_on_c, 14, 55, 76
19, 66899, Note_on_c, 14, 55, 0
19, 66900, Note_on_c, 14, 55, 52
19, 67319, Note_on_c, 14, 55, 0
19, 67320, Note_on_c, 14, 56, 52
19, 67784, Note_on_c, 14, 56, 0
19, 67800, Note_on_c, 14, 58, 68
19, 68264, Note_on_c, 14, 58, 0
19, 68280, Note_on_c, 14, 60, 52
19, 68331, Note_on_c, 14, 60, 0
19, 68340, Note_on_c, 14, 60, 53
19, 68391, Note_on_c, 14, 60, 0
19, 68400, Note_on_c, 14, 60, 55
19, 68451, Note_on_c, 14, 60, 0
19, 68460, Note_on_c, 14, 60, 56
19, 68511, Note_on_c, 14, 60, 0
19, 68520, Note_on_c, 14, 62, 58
19, 68571, Note_on_c, 14, 62, 0
19, 68580, Note_on_c, 14, 62, 59
19, 68631, Note_on_c, 14, 62, 0
19, 68640, Note_on_c, 14, 62, 61
19, 68691, Note_on_c, 14, 62, 0
19, 68700, Note_on_c, 14, 62, 62
19, 68751, Note_on_c, 14, 62, 0
19, 68760, Note_on_c, 14, 63, 64
19, 68811, Note_on_c, 14, 63, 0
19, 68820, Note_on_c, 14, 63, 65
19, 68871, Note_on_c, 14, 63, 0
19, 68880, Note_on_c, 14, 63, 67
19, 68931, Note_on_c, 14, 63, 0
19, 68940, Note_on_c, 14, 63, 68
19, 68991, Note_on_c, 14, 63, 0
19, 69000, Note_on_c, 14, 54, 70
19, 69051, Note_on_c, 14, 54, 0
19, 69060, Note_on_c, 14, 54, 71
19, 69111, Note_on_c, 14, 54, 0
19, 69120, Note_on_c, 14, 54, 73
19, 69171, Note_on_c, 14, 54, 0
19, 69180, Note_on_c, 14, 54, 74
19, 69231, Note_on_c, 14, 54, 0
19, 69240, Note_on_c, 14, 55, 76
19, 69291, Note_on_c, 14, 55, 0
19, 69300, Note_on_c, 14, 55, 76
19, 69351, Note_on_c, 14, 55, 0
19, 69360, Note_on_c, 14, 55, 76
19, 69411, Note_on_c, 14, 55, 0
19, 69420, Note_on_c, 14, 55, 76
19, 69471, Note_on_c, 14, 55, 0
19, 69480, Note_on_c, 14, 54, 76
19, 69531, Note_on_c, 14, 54, 0
19, 69540, Note_on_c, 14, 54, 76
19, 69591, Note_on_c, 14, 54, 0
19, 69600, Note_on_c, 14, 54, 76
19, 69651, Note_on_c, 14, 54, 0
19, 69660, Note_on_c, 14, 54, 76
19, 69711, Note_on_c, 14, 54, 0
19, 69720, Note_on_c, 14, 55, 76
19, 69771, Note_on_c, 14, 55, 0
19, 69780, Note_on_c, 14, 55, 76
19, 69831, Note_on_c, 14, 55, 0
19, 69840, Note_on_c, 14, 55, 76
19, 69891, Note_on_c, 14, 55, 0
19, 69900, Note_on_c, 14, 55, 76
19, 69951, Note_on_c, 14, 55, 0
19, 69960, Note_on_c, 14, 54, 76
19, 70011, Note_on_c, 14, 54, 0
19, 70020, Note_on_c, 14, 54, 76
19, 70071, Note_on_c, 14, 54, 0
19, 70080, Note_on_c, 14, 54, 76
19, 70131, Note_on_c, 14, 54, 0
19, 70140, Note_on_c, 14, 54, 76
19, 70191, Note_on_c, 14, 54, 0
19, 70200, Note_on_c, 14, 55, 84
19, 70379, Note_on_c, 14, 55, 0
19, 70440, Note_on_c, 14, 43, 84
19, 70619, Note_on_c, 14, 43, 0
19, 70680, Note_on_c, 14, 43, 84
19, 70859, Note_on_c, 14, 43, 0
19, 71280, Note_on_c, 14, 60, 52
19, 71384, Note_on_c, 14, 60, 0
19, 71400, Note_on_c, 14, 60, 52
19, 71504, Note_on_c, 14, 60, 0
19, 71520, Note_on_c, 14, 60, 52
19, 71624, Note_on_c, 14, 60, 0
19, 71640, Note_on_c, 14, 60, 52
19, 71879, Note_on_c, 14, 60, 0
19, 71880, Note_on_c, 14, 59, 52
19, 71999, Note_on_c, 14, 59, 0
19, 80760, Note_on_c, 14, 55, 52
19, 81224, Note_on_c, 14, 55, 0
19, 81240, Note_on_c, 14, 60, 52
19, 81704, Note_on_c, 14, 60, 0
19, 81720, Note_on_c, 14, 48, 52
19, 82184, Note_on_c, 14, 48, 0
19, 82200, Note_on_c, 14, 53, 52
19, 82544, Note_on_c, 14, 53, 0
19, 82560, Note_on_c, 14, 56, 52
19, 82649, Note_on_c, 14, 56, 0
19, 82680, Note_on_c, 14, 55, 52
19, 82769, Note_on_c, 14, 55, 0
19, 82800, Note_on_c, 14, 53, 52
19, 82889, Note_on_c, 14, 53, 0
19, 82920, Note_on_c, 14, 52, 52
19, 83009, Note_on_c, 14, 52, 0
19, 83040, Note_on_c, 14, 55, 52
19, 83129, Note_on_c, 14, 55, 0
19, 83160, Note_on_c, 14, 53, 52
19, 83504, Note_on_c, 14, 53, 0
19, 83520, Note_on_c, 14, 60, 52
19, 83609, Note_on_c, 14, 60, 0
19, 83640, Note_on_c, 14, 58, 52
19, 83729, Note_on_c, 14, 58, 0
19, 83760, Note_on_c, 14, 56, 54
19, 83849, Note_on_c, 14, 56, 0
19, 83880, Note_on_c, 14, 55, 56
19, 83969, Note_on_c, 14, 55, 0
19, 84000, Note_on_c, 14, 58, 58
19, 84089, Note_on_c, 14, 58, 0
19, 84120, Note_on_c, 14, 56, 60
19, 84209, Note_on_c, 14, 56, 0
19, 84240, Note_on_c, 14, 55, 62
19, 84329, Note_on_c, 14, 55, 0
19, 84360, Note_on_c, 14, 53, 64
19, 84449, Note_on_c, 14, 53, 0
19, 84480, Note_on_c, 14, 56, 66
19, 84569, Note_on_c, 14, 56, 0
19, 84600, Note_on_c, 14, 55, 68
19, 84689, Note_on_c, 14, 55, 0
19, 84720, Note_on_c, 14, 53, 70
19, 84809, Note_on_c, 14, 53, 0
19, 84840, Note_on_c, 14, 51, 72
19, 84929, Note_on_c, 14, 51, 0
19, 84960, Note_on_c, 14, 55, 74
19, 85049, Note_on_c, 14, 55, 0
19, 85080, Note_on_c, 14, 53, 76
19, 85169, Note_on_c, 14, 53, 0
19, 85200, Note_on_c, 14, 51, 76
19, 85289, Note_on_c, 14, 51, 0
19, 85320, Note_on_c, 14, 50, 76
19, 85409, Note_on_c, 14, 50, 0
19, 85440, Note_on_c, 14, 53, 76
19, 85664, Note_on_c, 14, 53, 0
19, 85680, Note_on_c, 14, 52, 76
19, 85731, Note_on_c, 14, 52, 0
19, 85740, Note_on_c, 14, 50, 76
19, 85791, Note_on_c, 14, 50, 0
19, 85800, Note_on_c, 14, 52, 76
19, 85851, Note_on_c, 14, 52, 0
19, 85860, Note_on_c, 14, 53, 76
19, 85911, Note_on_c, 14, 53, 0
19, 85920, Note_on_c, 14, 55, 76
19, 85971, Note_on_c, 14, 55, 0
19, 85980, Note_on_c, 14, 56, 76
19, 86031, Note_on_c, 14, 56, 0
19, 86040, Note_on_c, 14, 58, 76
19, 86129, Note_on_c, 14, 58, 0
19, 86160, Note_on_c, 14, 58, 76
19, 86249, Note_on_c, 14, 58, 0
19, 86280, Note_on_c, 14, 58, 76
19, 86369, Note_on_c, 14, 58, 0
19, 86400, Note_on_c, 14, 58, 76
19, 86489, Note_on_c, 14, 58, 0
19, 86520, Note_on_c, 14, 56, 76
19, 86639, Note_on_c, 14, 56, 0
19, 86640, Note_on_c, 14, 60, 76
19, 86744, Note_on_c, 14, 60, 0
19, 86760, Note_on_c, 14, 53, 76
19, 86849, Note_on_c, 14, 53, 0
19, 87120, Note_on_c, 14, 55, 76
19, 87209, Note_on_c, 14, 55, 0
19, 87240, Note_on_c, 14, 48, 76
19, 87329, Note_on_c, 14, 48, 0
19, 87360, Note_on_c, 14, 58, 76
19, 87449, Note_on_c, 14, 58, 0
19, 87480, Note_on_c, 14, 56, 76
19, 87599, Note_on_c, 14, 56, 0
19, 87600, Note_on_c, 14, 60, 76
19, 87704, Note_on_c, 14, 60, 0
19, 87720, Note_on_c, 14, 53, 76
19, 87809, Note_on_c, 14, 53, 0
19, 88080, Note_on_c, 14, 55, 76
19, 88169, Note_on_c, 14, 55, 0
19, 88200, Note_on_c, 14, 48, 76
19, 88289, Note_on_c, 14, 48, 0
19, 88320, Note_on_c, 14, 58, 76
19, 88409, Note_on_c, 14, 58, 0
19, 88440, Note_on_c, 14, 57, 76
19, 88544, Note_on_c, 14, 57, 0
19, 88560, Note_on_c, 14, 53, 76
19, 88611, Note_on_c, 14, 53, 0
19, 88620, Note_on_c, 14, 52, 76
19, 88671, Note_on_c, 14, 52, 0
19, 88680, Note_on_c, 14, 53, 76
19, 88731, Note_on_c, 14, 53, 0
19, 88740, Note_on_c, 14, 55, 76
19, 88791, Note_on_c, 14, 55, 0
19, 88800, Note_on_c, 14, 57, 76
19, 88851, Note_on_c, 14, 57, 0
19, 88860, Note_on_c, 14, 58, 76
19, 88911, Note_on_c, 14, 58, 0
19, 88920, Note_on_c, 14, 60, 76
19, 89024, Note_on_c, 14, 60, 0
19, 89040, Note_on_c, 14, 58, 76
19, 89144, Note_on_c, 14, 58, 0
19, 89160, Note_on_c, 14, 57, 76
19, 89264, Note_on_c, 14, 57, 0
19, 89280, Note_on_c, 14, 60, 76
19, 89384, Note_on_c, 14, 60, 0
19, 89400, Note_on_c, 14, 58, 76
19, 89519, Note_on_c, 14, 58, 0
19, 90840, Note_on_c, 14, 51, 84
19, 91289, Note_on_c, 14, 51, 0
19, 91320, Note_on_c, 14, 56, 76
19, 91784, Note_on_c, 14, 56, 0
19, 91800, Note_on_c, 14, 63, 76
19, 91979, Note_on_c, 14, 63, 0
19, 92040, Note_on_c, 14, 51, 76
19, 92219, Note_on_c, 14, 51, 0
19, 92280, Note_on_c, 14, 58, 76
19, 92744, Note_on_c, 14, 58, 0
19, 92760, Note_on_c, 14, 65, 76
19, 92984, Note_on_c, 14, 65, 0
19, 93000, Note_on_c, 14, 53, 76
19, 93344, Note_on_c, 14, 53, 0
19, 93360, Note_on_c, 14, 51, 76
19, 93464, Note_on_c, 14, 51, 0
19, 93480, Note_on_c, 14, 50, 76
19, 93584, Note_on_c, 14, 50, 0
19, 93600, Note_on_c, 14, 53, 76
19, 93704, Note_on_c, 14, 53, 0
19, 93720, Note_on_c, 14, 51, 76
19, 93824, Note_on_c, 14, 51, 0
19, 93840, Note_on_c, 14, 60, 76
19, 93891, Note_on_c, 14, 60, 0
19, 93900, Note_on_c, 14, 59, 76
19, 93951, Note_on_c, 14, 59, 0
19, 93960, Note_on_c, 14, 60, 76
19, 94011, Note_on_c, 14, 60, 0
19, 94020, Note_on_c, 14, 58, 76
19, 94071, Note_on_c, 14, 58, 0
19, 94080, Note_on_c, 14, 56, 76
19, 94131, Note_on_c, 14, 56, 0
19, 94140, Note_on_c, 14, 55, 76
19, 94191, Note_on_c, 14, 55, 0
19, 94200, Note_on_c, 14, 54, 76
19, 94304, Note_on_c, 14, 54, 0
19, 94320, Note_on_c, 14, 50, 76
19, 94371, Note_on_c, 14, 50, 0
19, 94380, Note_on_c, 14, 49, 76
19, 94431, Note_on_c, 14, 49, 0
19, 94440, Note_on_c, 14, 50, 76
19, 94491, Note_on_c, 14, 50, 0
19, 94500, Note_on_c, 14, 48, 76
19, 94551, Note_on_c, 14, 48, 0
19, 94560, Note_on_c, 14, 46, 76
19, 94611, Note_on_c, 14, 46, 0
19, 94620, Note_on_c, 14, 45, 76
19, 94671, Note_on_c, 14, 45, 0
19, 94680, Note_on_c, 14, 43, 76
19, 94784, Note_on_c, 14, 43, 0
19, 94800, Note_on_c, 14, 55, 76
19, 94851, Note_on_c, 14, 55, 0
19, 94860, Note_on_c, 14, 54, 76
19, 94911, Note_on_c, 14, 54, 0
19, 94920, Note_on_c, 14, 55, 76
19, 94971, Note_on_c, 14, 55, 0
19, 94980, Note_on_c, 14, 57, 76
19, 95031, Note_on_c, 14, 57, 0
19, 95040, Note_on_c, 14, 58, 76
19, 95091, Note_on_c, 14, 58, 0
19, 95100, Note_on_c, 14, 55, 76
19, 95151, Note_on_c, 14, 55, 0
19, 95160, Note_on_c, 14, 51, 80
19, 95264, Note_on_c, 14, 51, 0
19, 95280, Note_on_c, 14, 51, 80
19, 95331, Note_on_c, 14, 51, 0
19, 95340, Note_on_c, 14, 50, 80
19, 95391, Note_on_c, 14, 50, 0
19, 95400, Note_on_c, 14, 51, 80
19, 95451, Note_on_c, 14, 51, 0
19, 95460, Note_on_c, 14, 53, 80
19, 95511, Note_on_c, 14, 53, 0
19, 95520, Note_on_c, 14, 51, 80
19, 95571, Note_on_c, 14, 51, 0
19, 95580, Note_on_c, 14, 50, 80
19, 95631, Note_on_c, 14, 50, 0
19, 95640, Note_on_c, 14, 49, 80
19, 95744, Note_on_c, 14, 49, 0
19, 95760, Note_on_c, 14, 49, 80
19, 95811, Note_on_c, 14, 49, 0
19, 95820, Note_on_c, 14, 47, 80
19, 95871, Note_on_c, 14, 47, 0
19, 95880, Note_on_c, 14, 49, 80
19, 95931, Note_on_c, 14, 49, 0
19, 95940, Note_on_c, 14, 50, 80
19, 95991, Note_on_c, 14, 50, 0
19, 96000, Note_on_c, 14, 52, 80
19, 96051, Note_on_c, 14, 52, 0
19, 96060, Note_on_c, 14, 49, 80
19, 96111, Note_on_c, 14, 49, 0
19, 96120, Note_on_c, 14, 50, 80
19, 96224, Note_on_c, 14, 50, 0
19, 96240, Note_on_c, 14, 52, 80
19, 96291, Note_on_c, 14, 52, 0
19, 96300, Note_on_c, 14, 53, 80
19, 96351, Note_on_c, 14, 53, 0
19, 96360, Note_on_c, 14, 55, 80
19, 96411, Note_on_c, 14, 55, 0
19, 96420, Note_on_c, 14, 57, 80
19, 96471, Note_on_c, 14, 57, 0
19, 96480, Note_on_c, 14, 59, 80
19, 96531, Note_on_c, 14, 59, 0
19, 96540, Note_on_c, 14, 61, 80
19, 96591, Note_on_c, 14, 61, 0
19, 96600, Note_on_c, 14, 62, 80
19, 96651, Note_on_c, 14, 62, 0
19, 96660, Note_on_c, 14, 61, 80
19, 96711, Note_on_c, 14, 61, 0
19, 96720, Note_on_c, 14, 62, 80
19, 96771, Note_on_c, 14, 62, 0
19, 96780, Note_on_c, 14, 61, 80
19, 96831, Note_on_c, 14, 61, 0
19, 96840, Note_on_c, 14, 62, 80
19, 96891, Note_on_c, 14, 62, 0
19, 96900, Note_on_c, 14, 57, 80
19, 96951, Note_on_c, 14, 57, 0
19, 96960, Note_on_c, 14, 53, 80
19, 97011, Note_on_c, 14, 53, 0
19, 97020, Note_on_c, 14, 50, 80
19, 97071, Note_on_c, 14, 50, 0
19, 97080, Note_on_c, 14, 56, 84
19, 97184, Note_on_c, 14, 56, 0
19, 97200, Note_on_c, 14, 56, 84
19, 97304, Note_on_c, 14, 56, 0
19, 97320, Note_on_c, 14, 56, 84
19, 97424, Note_on_c, 14, 56, 0
19, 97440, Note_on_c, 14, 56, 84
19, 97544, Note_on_c, 14, 56, 0
19, 97560, Note_on_c, 14, 56, 84
19, 97664, Note_on_c, 14, 56, 0
19, 97680, Note_on_c, 14, 56, 84
19, 97784, Note_on_c, 14, 56, 0
19, 97800, Note_on_c, 14, 56, 84
19, 97904, Note_on_c, 14, 56, 0
19, 97920, Note_on_c, 14, 56, 84
19, 98024, Note_on_c, 14, 56, 0
19, 98040, Note_on_c, 14, 55, 84
19, 98144, Note_on_c, 14, 55, 0
19, 98160, Note_on_c, 14, 55, 84
19, 98264, Note_on_c, 14, 55, 0
19, 98280, Note_on_c, 14, 55, 84
19, 98384, Note_on_c, 14, 55, 0
19, 98400, Note_on_c, 14, 55, 84
19, 98504, Note_on_c, 14, 55, 0
19, 98520, Note_on_c, 14, 55, 84
19, 98624, Note_on_c, 14, 55, 0
19, 98640, Note_on_c, 14, 55, 84
19, 98744, Note_on_c, 14, 55, 0
19, 98760, Note_on_c, 14, 55, 84
19, 98864, Note_on_c, 14, 55, 0
19, 98880, Note_on_c, 14, 55, 84
19, 98984, Note_on_c, 14, 55, 0
19, 99000, Note_on_c, 14, 54, 52
19, 99239, Note_on_c, 14, 54, 0
19, 99420, Program_c, 14, 45
19, 99480, Note_on_c, 14, 54, 52
19, 99719, Note_on_c, 14, 54, 0
19, 99960, Note_on_c, 14, 54, 52
19, 100199, Note_on_c, 14, 54, 0
19, 100440, Note_on_c, 14, 59, 52
19, 100679, Note_on_c, 14, 59, 0
19, 100920, Note_on_c, 14, 61, 52
19, 101159, Note_on_c, 14, 61, 0
19, 101160, Note_on_c, 14, 57, 60
19, 101399, Note_on_c, 14, 57, 0
19, 101400, Note_on_c, 14, 62, 68
19, 101639, Note_on_c, 14, 62, 0
19, 101760, Note_on_c, 14, 50, 56
19, 101879, Note_on_c, 14, 50, 0
19, 101880, Note_on_c, 14, 49, 52
19, 101999, Note_on_c, 14, 49, 0
19, 102000, Note_on_c, 14, 45, 52
19, 102119, Note_on_c, 14, 45, 0
19, 102120, Note_on_c, 14, 50, 52
19, 102239, Note_on_c, 14, 50, 0
19, 102240, Note_on_c, 14, 54, 52
19, 102359, Note_on_c, 14, 54, 0
19, 102360, Note_on_c, 14, 45, 52
19, 102479, Note_on_c, 14, 45, 0
19, 102480, Note_on_c, 14, 57, 52
19, 102599, Note_on_c, 14, 57, 0
19, 102600, Note_on_c, 14, 45, 52
19, 102719, Note_on_c, 14, 45, 0
19, 106680, Note_on_c, 14, 45, 52
19, 106919, Note_on_c, 14, 45, 0
19, 107160, Note_on_c, 14, 45, 52
19, 107399, Note_on_c, 14, 45, 0
19, 107640, Note_on_c, 14, 45, 52
19, 107879, Note_on_c, 14, 45, 0
19, 108120, Note_on_c, 14, 55, 52
19, 108359, Note_on_c, 14, 55, 0
19, 108600, Note_on_c, 14, 54, 52
19, 108839, Note_on_c, 14, 54, 0
19, 109080, Note_on_c, 14, 55, 52
19, 109319, Note_on_c, 14, 55, 0
19, 109560, Note_on_c, 14, 57, 52
19, 109679, Note_on_c, 14, 57, 0
19, 109800, Note_on_c, 14, 45, 52
19, 109919, Note_on_c, 14, 45, 0
19, 110025, Program_c, 14, 48
19, 110040, Note_on_c, 14, 50, 52
19, 110107, Note_on_c, 14, 50, 0
19, 110120, Note_on_c, 14, 57, 52
19, 110187, Note_on_c, 14, 57, 0
19, 110200, Note_on_c, 14, 55, 52
19, 110267, Note_on_c, 14, 55, 0
19, 110280, Note_on_c, 14, 54, 52
19, 110347, Note_on_c, 14, 54, 0
19, 110360, Note_on_c, 14, 52, 52
19, 110427, Note_on_c, 14, 52, 0
19, 110440, Note_on_c, 14, 50, 52
19, 110507, Note_on_c, 14, 50, 0
19, 110520, Note_on_c, 14, 46, 76
19, 110599, Note_on_c, 14, 46, 0
19, 110600, Note_on_c, 14, 45, 52
19, 110667, Note_on_c, 14, 45, 0
19, 110680, Note_on_c, 14, 45, 52
19, 110739, Note_on_c, 14, 45, 0
19, 111000, Note_on_c, 14, 47, 52
19, 111079, Note_on_c, 14, 47, 0
19, 111080, Note_on_c, 14, 45, 52
19, 111147, Note_on_c, 14, 45, 0
19, 111160, Note_on_c, 14, 45, 52
19, 111219, Note_on_c, 14, 45, 0
19, 111480, Note_on_c, 14, 46, 52
19, 111559, Note_on_c, 14, 46, 0
19, 111560, Note_on_c, 14, 45, 52
19, 111627, Note_on_c, 14, 45, 0
19, 111640, Note_on_c, 14, 45, 52
19, 111699, Note_on_c, 14, 45, 0
19, 111960, Note_on_c, 14, 47, 52
19, 112039, Note_on_c, 14, 47, 0
19, 112040, Note_on_c, 14, 45, 52
19, 112107, Note_on_c, 14, 45, 0
19, 112120, Note_on_c, 14, 45, 52
19, 112179, Note_on_c, 14, 45, 0
19, 112200, Note_on_c, 14, 45, 52
19, 112279, Note_on_c, 14, 45, 0
19, 112280, Note_on_c, 14, 43, 52
19, 112347, Note_on_c, 14, 43, 0
19, 112360, Note_on_c, 14, 43, 52
19, 112419, Note_on_c, 14, 43, 0
19, 112440, Note_on_c, 14, 43, 52
19, 112519, Note_on_c, 14, 43, 0
19, 112520, Note_on_c, 14, 42, 52
19, 112587, Note_on_c, 14, 42, 0
19, 112600, Note_on_c, 14, 42, 52
19, 112659, Note_on_c, 14, 42, 0
19, 112680, Note_on_c, 14, 54, 52
19, 112747, Note_on_c, 14, 54, 0
19, 112760, Note_on_c, 14, 54, 52
19, 112827, Note_on_c, 14, 54, 0
19, 112840, Note_on_c, 14, 54, 52
19, 112907, Note_on_c, 14, 54, 0
19, 112920, Note_on_c, 14, 45, 76
19, 112999, Note_on_c, 14, 45, 0
19, 113000, Note_on_c, 14, 43, 52
19, 113067, Note_on_c, 14, 43, 0
19, 113080, Note_on_c, 14, 43, 52
19, 113139, Note_on_c, 14, 43, 0
19, 113160, Note_on_c, 14, 55, 52
19, 113227, Note_on_c, 14, 55, 0
19, 113240, Note_on_c, 14, 55, 52
19, 113307, Note_on_c, 14, 55, 0
19, 113320, Note_on_c, 14, 55, 52
19, 113387, Note_on_c, 14, 55, 0
19, 113400, Note_on_c, 14, 45, 52
19, 113467, Note_on_c, 14, 45, 0
19, 113480, Note_on_c, 14, 57, 52
19, 113547, Note_on_c, 14, 57, 0
19, 113560, Note_on_c, 14, 57, 52
19, 113627, Note_on_c, 14, 57, 0
19, 113640, Note_on_c, 14, 45, 52
19, 113707, Note_on_c, 14, 45, 0
19, 113720, Note_on_c, 14, 57, 52
19, 113787, Note_on_c, 14, 57, 0
19, 113800, Note_on_c, 14, 57, 52
19, 113867, Note_on_c, 14, 57, 0
19, 113880, Note_on_c, 14, 50, 52
19, 114119, Note_on_c, 14, 50, 0
19, 114360, Note_on_c, 14, 60, 84
19, 114427, Note_on_c, 14, 60, 0
19, 114440, Note_on_c, 14, 60, 84
19, 114507, Note_on_c, 14, 60, 0
19, 114520, Note_on_c, 14, 60, 84
19, 114587, Note_on_c, 14, 60, 0
19, 114600, Note_on_c, 14, 60, 84
19, 114667, Note_on_c, 14, 60, 0
19, 114680, Note_on_c, 14, 60, 84
19, 114747, Note_on_c, 14, 60, 0
19, 114760, Note_on_c, 14, 60, 84
19, 114827, Note_on_c, 14, 60, 0
19, 114840, Note_on_c, 14, 59, 84
19, 114907, Note_on_c, 14, 59, 0
19, 114920, Note_on_c, 14, 59, 84
19, 114987, Note_on_c, 14, 59, 0
19, 115000, Note_on_c, 14, 59, 84
19, 115067, Note_on_c, 14, 59, 0
19, 115080, Note_on_c, 14, 58, 84
19, 115147, Note_on_c, 14, 58, 0
19, 115160, Note_on_c, 14, 58, 84
19, 115227, Note_on_c, 14, 58, 0
19, 115240, Note_on_c, 14, 58, 84
19, 115307, Note_on_c, 14, 58, 0
19, 115320, Note_on_c, 14, 57, 84
19, 115387, Note_on_c, 14, 57, 0
19, 115400, Note_on_c, 14, 57, 84
19, 115467, Note_on_c, 14, 57, 0
19, 115480, Note_on_c, 14, 57, 84
19, 115547, Note_on_c, 14, 57, 0
19, 115560, Note_on_c, 14, 45, 84
19, 115627, Note_on_c, 14, 45, 0
19, 115640, Note_on_c, 14, 45, 84
19, 115707, Note_on_c, 14, 45, 0
19, 115720, Note_on_c, 14, 45, 84
19, 115787, Note_on_c, 14, 45, 0
19, 115800, Note_on_c, 14, 49, 84
19, 115919, Note_on_c, 14, 49, 0
19, 116280, Note_on_c, 14, 43, 84
19, 116729, Note_on_c, 14, 43, 0
19, 116760, Note_on_c, 14, 50, 84
19, 117209, Note_on_c, 14, 50, 0
19, 117240, Note_on_c, 14, 38, 84
19, 117689, Note_on_c, 14, 38, 0
19, 117720, Note_on_c, 14, 43, 84
19, 118169, Note_on_c, 14, 43, 0
19, 118200, Note_on_c, 14, 43, 76
19, 118379, Note_on_c, 14, 43, 0
19, 118440, Note_on_c, 14, 43, 76
19, 118619, Note_on_c, 14, 43, 0
19, 118680, Note_on_c, 14, 50, 76
19, 118859, Note_on_c, 14, 50, 0
19, 118920, Note_on_c, 14, 50, 76
19, 119099, Note_on_c, 14, 50, 0
19, 119160, Note_on_c, 14, 38, 76
19, 119339, Note_on_c, 14, 38, 0
19, 119400, Note_on_c, 14, 38, 76
19, 119579, Note_on_c, 14, 38, 0
19, 119640, Note_on_c, 14, 43, 76
19, 119759, Note_on_c, 14, 43, 0
19, 120120, Note_on_c, 14, 43, 84
19, 120569, Note_on_c, 14, 43, 0
19, 120600, Note_on_c, 14, 50, 84
19, 121049, Note_on_c, 14, 50, 0
19, 121080, Note_on_c, 14, 38, 84
19, 121529, Note_on_c, 14, 38, 0
19, 121560, Note_on_c, 14, 43, 84
19, 122009, Note_on_c, 14, 43, 0
19, 122040, Note_on_c, 14, 43, 76
19, 122264, Note_on_c, 14, 43, 0
19, 122280, Note_on_c, 14, 43, 76
19, 122504, Note_on_c, 14, 43, 0
19, 122520, Note_on_c, 14, 50, 76
19, 122744, Note_on_c, 14, 50, 0
19, 122760, Note_on_c, 14, 50, 76
19, 122984, Note_on_c, 14, 50, 0
19, 123000, Note_on_c, 14, 38, 76
19, 123224, Note_on_c, 14, 38, 0
19, 123240, Note_on_c, 14, 38, 76
19, 123464, Note_on_c, 14, 38, 0
19, 123480, Note_on_c, 14, 43, 76
19, 123599, Note_on_c, 14, 43, 0
19, 123960, Note_on_c, 14, 43, 76
19, 124027, Note_on_c, 14, 43, 0
19, 124040, Note_on_c, 14, 55, 76
19, 124107, Note_on_c, 14, 55, 0
19, 124120, Note_on_c, 14, 55, 76
19, 124187, Note_on_c, 14, 55, 0
19, 124200, Note_on_c, 14, 55, 76
19, 124267, Note_on_c, 14, 55, 0
19, 124280, Note_on_c, 14, 51, 76
19, 124347, Note_on_c, 14, 51, 0
19, 124360, Note_on_c, 14, 48, 76
19, 124427, Note_on_c, 14, 48, 0
19, 124440, Note_on_c, 14, 43, 76
19, 124507, Note_on_c, 14, 43, 0
19, 124520, Note_on_c, 14, 55, 76
19, 124587, Note_on_c, 14, 55, 0
19, 124600, Note_on_c, 14, 55, 76
19, 124667, Note_on_c, 14, 55, 0
19, 124680, Note_on_c, 14, 55, 76
19, 124747, Note_on_c, 14, 55, 0
19, 124760, Note_on_c, 14, 50, 76
19, 124827, Note_on_c, 14, 50, 0
19, 124840, Note_on_c, 14, 47, 76
19, 124907, Note_on_c, 14, 47, 0
19, 124920, Note_on_c, 14, 43, 76
19, 124987, Note_on_c, 14, 43, 0
19, 125000, Note_on_c, 14, 55, 76
19, 125067, Note_on_c, 14, 55, 0
19, 125080, Note_on_c, 14, 54, 76
19, 125147, Note_on_c, 14, 54, 0
19, 125160, Note_on_c, 14, 55, 76
19, 125227, Note_on_c, 14, 55, 0
19, 125240, Note_on_c, 14, 57, 76
19, 125307, Note_on_c, 14, 57, 0
19, 125320, Note_on_c, 14, 59, 76
19, 125387, Note_on_c, 14, 59, 0
19, 125400, Note_on_c, 14, 60, 76
19, 125467, Note_on_c, 14, 60, 0
19, 125480, Note_on_c, 14, 55, 76
19, 125547, Note_on_c, 14, 55, 0
19, 125560, Note_on_c, 14, 51, 76
19, 125627, Note_on_c, 14, 51, 0
19, 125640, Note_on_c, 14, 55, 76
19, 125707, Note_on_c, 14, 55, 0
19, 125720, Note_on_c, 14, 51, 76
19, 125787, Note_on_c, 14, 51, 0
19, 125800, Note_on_c, 14, 48, 76
19, 125867, Note_on_c, 14, 48, 0
19, 125880, Note_on_c, 14, 44, 84
19, 126329, Note_on_c, 14, 44, 0
19, 126360, Note_on_c, 14, 42, 84
19, 126809, Note_on_c, 14, 42, 0
19, 126840, Note_on_c, 14, 38, 76
19, 127019, Note_on_c, 14, 38, 0
19, 127080, Note_on_c, 14, 38, 76
19, 127259, Note_on_c, 14, 38, 0
19, 127320, Note_on_c, 14, 43, 76
19, 127559, Note_on_c, 14, 43, 0
19, 127800, Note_on_c, 14, 43, 76
19, 127867, Note_on_c, 14, 43, 0
19, 127880, Note_on_c, 14, 55, 76
19, 127947, Note_on_c, 14, 55, 0
19, 127960, Note_on_c, 14, 55, 76
19, 128027, Note_on_c, 14, 55, 0
19, 128040, Note_on_c, 14, 55, 76
19, 128107, Note_on_c, 14, 55, 0
19, 128120, Note_on_c, 14, 51, 76
19, 128187, Note_on_c, 14, 51, 0
19, 128200, Note_on_c, 14, 48, 76
19, 128267, Note_on_c, 14, 48, 0
19, 128280, Note_on_c, 14, 43, 76
19, 128347, Note_on_c, 14, 43, 0
19, 128360, Note_on_c, 14, 55, 76
19, 128427, Note_on_c, 14, 55, 0
19, 128440, Note_on_c, 14, 55, 76
19, 128507, Note_on_c, 14, 55, 0
19, 128520, Note_on_c, 14, 55, 76
19, 128587, Note_on_c, 14, 55, 0
19, 128600, Note_on_c, 14, 50, 76
19, 128667, Note_on_c, 14, 50, 0
19, 128680, Note_on_c, 14, 47, 76
19, 128747, Note_on_c, 14, 47, 0
19, 128760, Note_on_c, 14, 43, 76
19, 128827, Note_on_c, 14, 43, 0
19, 128840, Note_on_c, 14, 55, 76
19, 128907, Note_on_c, 14, 55, 0
19, 128920, Note_on_c, 14, 54, 76
19, 128987, Note_on_c, 14, 54, 0
19, 129000, Note_on_c, 14, 55, 76
19, 129067, Note_on_c, 14, 55, 0
19, 129080, Note_on_c, 14, 57, 76
19, 129147, Note_on_c, 14, 57, 0
19, 129160, Note_on_c, 14, 59, 76
19, 129227, Note_on_c, 14, 59, 0
19, 129240, Note_on_c, 14, 60, 76
19, 129307, Note_on_c, 14, 60, 0
19, 129320, Note_on_c, 14, 55, 76
19, 129387, Note_on_c, 14, 55, 0
19, 129400, Note_on_c, 14, 51, 76
19, 129467, Note_on_c, 14, 51, 0
19, 129480, Note_on_c, 14, 55, 76
19, 129547, Note_on_c, 14, 55, 0
19, 129560, Note_on_c, 14, 51, 76
19, 129627, Note_on_c, 14, 51, 0
19, 129640, Note_on_c, 14, 48, 76
19, 129707, Note_on_c, 14, 48, 0
19, 129720, Note_on_c, 14, 44, 84
19, 130169, Note_on_c, 14, 44, 0
19, 130200, Note_on_c, 14, 42, 84
19, 130649, Note_on_c, 14, 42, 0
19, 130680, Note_on_c, 14, 38, 76
19, 130904, Note_on_c, 14, 38, 0
19, 130920, Note_on_c, 14, 38, 76
19, 131144, Note_on_c, 14, 38, 0
19, 131160, Note_on_c, 14, 43, 76
19, 131384, Note_on_c, 14, 43, 0
19, 131400, Note_on_c, 14, 44, 84
19, 131624, Note_on_c, 14, 44, 0
19, 131640, Note_on_c, 14, 44, 76
19, 131864, Note_on_c, 14, 44, 0
19, 131880, Note_on_c, 14, 44, 76
19, 132104, Note_on_c, 14, 44, 0
19, 132120, Note_on_c, 14, 42, 76
19, 132344, Note_on_c, 14, 42, 0
19, 132360, Note_on_c, 14, 42, 76
19, 132584, Note_on_c, 14, 42, 0
19, 132600, Note_on_c, 14, 38, 76
19, 132824, Note_on_c, 14, 38, 0
19, 132840, Note_on_c, 14, 50, 76
19, 133064, Note_on_c, 14, 50, 0
19, 133080, Note_on_c, 14, 55, 76
19, 133304, Note_on_c, 14, 55, 0
19, 133320, Note_on_c, 14, 55, 76
19, 133544, Note_on_c, 14, 55, 0
19, 133560, Note_on_c, 14, 50, 76
19, 133784, Note_on_c, 14, 50, 0
19, 133800, Note_on_c, 14, 50, 76
19, 134024, Note_on_c, 14, 50, 0
19, 134040, Note_on_c, 14, 55, 76
19, 134264, Note_on_c, 14, 55, 0
19, 134280, Note_on_c, 14, 55, 76
19, 134504, Note_on_c, 14, 55, 0
19, 134520, Note_on_c, 14, 50, 76
19, 134744, Note_on_c, 14, 50, 0
19, 134760, Note_on_c, 14, 50, 76
19, 134984, Note_on_c, 14, 50, 0
19, 135000, Note_on_c, 14, 55, 76
19, 135104, Note_on_c, 14, 55, 0
19, 135120, Note_on_c, 14, 55, 76
19, 135224, Note_on_c, 14, 55, 0
19, 135240, Note_on_c, 14, 50, 76
19, 135344, Note_on_c, 14, 50, 0
19, 135360, Note_on_c, 14, 62, 76
19, 135464, Note_on_c, 14, 62, 0
19, 135480, Note_on_c, 14, 55, 76
19, 135584, Note_on_c, 14, 55, 0
19, 135600, Note_on_c, 14, 55, 76
19, 135704, Note_on_c, 14, 55, 0
19, 135720, Note_on_c, 14, 50, 76
19, 135824, Note_on_c, 14, 50, 0
19, 135840, Note_on_c, 14, 62, 76
19, 135944, Note_on_c, 14, 62, 0
19, 135960, Note_on_c, 14, 55, 76
19, 136064, Note_on_c, 14, 55, 0
19, 136080, Note_on_c, 14, 55, 76
19, 136184, Note_on_c, 14, 55, 0
19, 136200, Note_on_c, 14, 50, 76
19, 136304, Note_on_c, 14, 50, 0
19, 136320, Note_on_c, 14, 62, 76
19, 136424, Note_on_c, 14, 62, 0
19, 136440, Note_on_c, 14, 55, 76
19, 136544, Note_on_c, 14, 55, 0
19, 136560, Note_on_c, 14, 55, 76
19, 136664, Note_on_c, 14, 55, 0
19, 136680, Note_on_c, 14, 50, 76
19, 136784, Note_on_c, 14, 50, 0
19, 136800, Note_on_c, 14, 62, 76
19, 136904, Note_on_c, 14, 62, 0
19, 136920, Note_on_c, 14, 55, 76
19, 137159, Note_on_c, 14, 55, 0
19, 137400, Note_on_c, 14, 55, 76
19, 137639, Note_on_c, 14, 55, 0
19, 137880, Note_on_c, 14, 43, 52
19, 137999, Note_on_c, 14, 43, 0
19, 138360, Program_c, 14, 45
19, 138840, Note_on_c, 14, 48, 52
19, 138959, Note_on_c, 14, 48, 0
19, 139320, Note_on_c, 14, 55, 52
19, 139439, Note_on_c, 14, 55, 0
19, 139800, Note_on_c, 14, 43, 52
19, 139919, Note_on_c, 14, 43, 0
19, 140280, Note_on_c, 14, 48, 52
19, 140399, Note_on_c, 14, 48, 0
19, 140760, Note_on_c, 14, 60, 52
19, 140999, Note_on_c, 14, 60, 0
19, 141000, Note_on_c, 14, 55, 60
19, 141239, Note_on_c, 14, 55, 0
19, 141240, Note_on_c, 14, 52, 76
19, 141479, Note_on_c, 14, 52, 0
19, 141600, Note_on_c, 14, 48, 52
19, 141719, Note_on_c, 14, 48, 0
19, 141720, Note_on_c, 14, 47, 52
19, 141839, Note_on_c, 14, 47, 0
19, 141840, Note_on_c, 14, 43, 52
19, 141959, Note_on_c, 14, 43, 0
19, 141960, Note_on_c, 14, 48, 52
19, 142079, Note_on_c, 14, 48, 0
19, 142080, Note_on_c, 14, 52, 52
19, 142199, Note_on_c, 14, 52, 0
19, 142200, Note_on_c, 14, 43, 52
19, 142319, Note_on_c, 14, 43, 0
19, 142320, Note_on_c, 14, 55, 52
19, 142439, Note_on_c, 14, 55, 0
19, 142440, Note_on_c, 14, 43, 52
19, 142559, Note_on_c, 14, 43, 0
19, 146040, Control_c, 14, 11, 96
19, 146040, Program_c, 14, 48
19, 146400, Note_on_c, 14, 53, 60
19, 146519, Note_on_c, 14, 53, 0
19, 146520, Control_c, 14, 11, 96
19, 146520, Note_on_c, 14, 56, 60
19, 146560, Control_c, 14, 11, 97
19, 146600, Control_c, 14, 11, 99
19, 146640, Control_c, 14, 11, 100
19, 146680, Control_c, 14, 11, 101
19, 146720, Control_c, 14, 11, 102
19, 146760, Control_c, 14, 11, 104
19, 146800, Control_c, 14, 11, 105
19, 146840, Control_c, 14, 11, 106
19, 146879, Note_on_c, 14, 56, 0
19, 146880, Control_c, 14, 11, 108
19, 146880, Note_on_c, 14, 53, 60
19, 146920, Control_c, 14, 11, 109
19, 146960, Control_c, 14, 11, 110
19, 146984, Note_on_c, 14, 53, 0
19, 147000, Control_c, 14, 11, 112
19, 147000, Note_on_c, 14, 50, 60
19, 147040, Control_c, 14, 11, 113
19, 147080, Control_c, 14, 11, 114
19, 147120, Control_c, 14, 11, 115
19, 147160, Control_c, 14, 11, 117
19, 147200, Control_c, 14, 11, 118
19, 147240, Control_c, 14, 11, 119
19, 147280, Control_c, 14, 11, 121
19, 147320, Control_c, 14, 11, 122
19, 147359, Note_on_c, 14, 50, 0
19, 147360, Control_c, 14, 11, 123
19, 147360, Note_on_c, 14, 53, 60
19, 147400, Control_c, 14, 11, 124
19, 147440, Control_c, 14, 11, 127
19, 147464, Note_on_c, 14, 53, 0
19, 147480, Control_c, 14, 11, 127
19, 147480, Note_on_c, 14, 50, 60
19, 147520, Control_c, 14, 11, 124
19, 147560, Control_c, 14, 11, 122
19, 147600, Control_c, 14, 11, 119
19, 147640, Control_c, 14, 11, 117
19, 147680, Control_c, 14, 11, 114
19, 147720, Control_c, 14, 11, 112
19, 147760, Control_c, 14, 11, 109
19, 147800, Control_c, 14, 11, 106
19, 147839, Note_on_c, 14, 50, 0
19, 147840, Note_on_c, 14, 44, 60
19, 147840, Control_c, 14, 11, 104
19, 147880, Control_c, 14, 11, 101
19, 147920, Control_c, 14, 11, 96
19, 147944, Note_on_c, 14, 44, 0
19, 147960, Note_on_c, 14, 43, 60
19, 148079, Note_on_c, 14, 43, 0
19, 154680, Control_c, 14, 11, 127
19, 155160, Note_on_c, 14, 51, 52
19, 155624, Note_on_c, 14, 51, 0
19, 155640, Note_on_c, 14, 46, 52
19, 156104, Note_on_c, 14, 46, 0
19, 156120, Note_on_c, 14, 58, 52
19, 156584, Note_on_c, 14, 58, 0
19, 156600, Note_on_c, 14, 51, 52
19, 156944, Note_on_c, 14, 51, 0
19, 156960, Note_on_c, 14, 48, 52
19, 157049, Note_on_c, 14, 48, 0
19, 157080, Note_on_c, 14, 50, 52
19, 157169, Note_on_c, 14, 50, 0
19, 157200, Note_on_c, 14, 51, 52
19, 157289, Note_on_c, 14, 51, 0
19, 157320, Note_on_c, 14, 53, 52
19, 157409, Note_on_c, 14, 53, 0
19, 157440, Note_on_c, 14, 50, 52
19, 157529, Note_on_c, 14, 50, 0
19, 157560, Note_on_c, 14, 51, 52
19, 157904, Note_on_c, 14, 51, 0
19, 157920, Note_on_c, 14, 56, 53
19, 158009, Note_on_c, 14, 56, 0
19, 158040, Note_on_c, 14, 53, 54
19, 158129, Note_on_c, 14, 53, 0
19, 158160, Note_on_c, 14, 55, 55
19, 158249, Note_on_c, 14, 55, 0
19, 158280, Note_on_c, 14, 56, 56
19, 158369, Note_on_c, 14, 56, 0
19, 158400, Note_on_c, 14, 53, 57
19, 158489, Note_on_c, 14, 53, 0
19, 158520, Note_on_c, 14, 55, 58
19, 158699, Note_on_c, 14, 55, 0
19, 159240, Note_on_c, 14, 55, 65
19, 159419, Note_on_c, 14, 55, 0
19, 159480, Note_on_c, 14, 48, 67
19, 159659, Note_on_c, 14, 48, 0
19, 159720, Note_on_c, 14, 60, 69
19, 159899, Note_on_c, 14, 60, 0
19, 159960, Note_on_c, 14, 62, 71
19, 160199, Note_on_c, 14, 62, 0
19, 160260, Note_on_c, 14, 46, 74
19, 160311, Note_on_c, 14, 46, 0
19, 160320, Note_on_c, 14, 48, 74
19, 160371, Note_on_c, 14, 48, 0
19, 160380, Note_on_c, 14, 50, 75
19, 160431, Note_on_c, 14, 50, 0
19, 160440, Note_on_c, 14, 51, 76
19, 160491, Note_on_c, 14, 51, 0
19, 160500, Note_on_c, 14, 51, 76
19, 160551, Note_on_c, 14, 51, 0
19, 160560, Note_on_c, 14, 53, 76
19, 160611, Note_on_c, 14, 53, 0
19, 160620, Note_on_c, 14, 51, 76
19, 160671, Note_on_c, 14, 51, 0
19, 160680, Note_on_c, 14, 50, 76
19, 160731, Note_on_c, 14, 50, 0
19, 160740, Note_on_c, 14, 51, 76
19, 160791, Note_on_c, 14, 51, 0
19, 160800, Note_on_c, 14, 53, 76
19, 160851, Note_on_c, 14, 53, 0
19, 160860, Note_on_c, 14, 55, 76
19, 160911, Note_on_c, 14, 55, 0
19, 160920, Note_on_c, 14, 56, 76
19, 160971, Note_on_c, 14, 56, 0
19, 160980, Note_on_c, 14, 58, 76
19, 161031, Note_on_c, 14, 58, 0
19, 161040, Note_on_c, 14, 60, 76
19, 161091, Note_on_c, 14, 60, 0
19, 161100, Note_on_c, 14, 58, 76
19, 161151, Note_on_c, 14, 58, 0
19, 161160, Note_on_c, 14, 56, 76
19, 161211, Note_on_c, 14, 56, 0
19, 161220, Note_on_c, 14, 55, 76
19, 161271, Note_on_c, 14, 55, 0
19, 161280, Note_on_c, 14, 53, 76
19, 161331, Note_on_c, 14, 53, 0
19, 161340, Note_on_c, 14, 51, 76
19, 161391, Note_on_c, 14, 51, 0
19, 161400, Note_on_c, 14, 50, 76
19, 161451, Note_on_c, 14, 50, 0
19, 161460, Note_on_c, 14, 51, 76
19, 161511, Note_on_c, 14, 51, 0
19, 161520, Note_on_c, 14, 53, 76
19, 161571, Note_on_c, 14, 53, 0
19, 161580, Note_on_c, 14, 51, 76
19, 161631, Note_on_c, 14, 51, 0
19, 161640, Note_on_c, 14, 50, 76
19, 161691, Note_on_c, 14, 50, 0
19, 161700, Note_on_c, 14, 48, 76
19, 161751, Note_on_c, 14, 48, 0
19, 161760, Note_on_c, 14, 46, 76
19, 161811, Note_on_c, 14, 46, 0
19, 161820, Note_on_c, 14, 44, 76
19, 161871, Note_on_c, 14, 44, 0
19, 161880, Note_on_c, 14, 43, 76
19, 161931, Note_on_c, 14, 43, 0
19, 161940, Note_on_c, 14, 46, 76
19, 161991, Note_on_c, 14, 46, 0
19, 162000, Note_on_c, 14, 51, 76
19, 162051, Note_on_c, 14, 51, 0
19, 162060, Note_on_c, 14, 50, 76
19, 162111, Note_on_c, 14, 50, 0
19, 162120, Note_on_c, 14, 48, 76
19, 162171, Note_on_c, 14, 48, 0
19, 162180, Note_on_c, 14, 46, 76
19, 162231, Note_on_c, 14, 46, 0
19, 162240, Note_on_c, 14, 44, 76
19, 162291, Note_on_c, 14, 44, 0
19, 162300, Note_on_c, 14, 43, 76
19, 162351, Note_on_c, 14, 43, 0
19, 162360, Note_on_c, 14, 41, 76
19, 162411, Note_on_c, 14, 41, 0
19, 162420, Note_on_c, 14, 44, 76
19, 162471, Note_on_c, 14, 44, 0
19, 162480, Note_on_c, 14, 44, 76
19, 162531, Note_on_c, 14, 44, 0
19, 162540, Note_on_c, 14, 44, 76
19, 162591, Note_on_c, 14, 44, 0
19, 162600, Note_on_c, 14, 44, 76
19, 162651, Note_on_c, 14, 44, 0
19, 162660, Note_on_c, 14, 44, 76
19, 162711, Note_on_c, 14, 44, 0
19, 162720, Note_on_c, 14, 46, 76
19, 162771, Note_on_c, 14, 46, 0
19, 162780, Note_on_c, 14, 44, 76
19, 162831, Note_on_c, 14, 44, 0
19, 162840, Note_on_c, 14, 43, 76
19, 162891, Note_on_c, 14, 43, 0
19, 162900, Note_on_c, 14, 46, 76
19, 162951, Note_on_c, 14, 46, 0
19, 162960, Note_on_c, 14, 51, 76
19, 163011, Note_on_c, 14, 51, 0
19, 163020, Note_on_c, 14, 50, 76
19, 163071, Note_on_c, 14, 50, 0
19, 163080, Note_on_c, 14, 48, 76
19, 163131, Note_on_c, 14, 48, 0
19, 163140, Note_on_c, 14, 50, 76
19, 163191, Note_on_c, 14, 50, 0
19, 163200, Note_on_c, 14, 51, 76
19, 163251, Note_on_c, 14, 51, 0
19, 163260, Note_on_c, 14, 48, 76
19, 163311, Note_on_c, 14, 48, 0
19, 163320, Note_on_c, 14, 50, 76
19, 163371, Note_on_c, 14, 50, 0
19, 163380, Note_on_c, 14, 51, 76
19, 163431, Note_on_c, 14, 51, 0
19, 163440, Note_on_c, 14, 53, 76
19, 163491, Note_on_c, 14, 53, 0
19, 163500, Note_on_c, 14, 51, 76
19, 163551, Note_on_c, 14, 51, 0
19, 163560, Note_on_c, 14, 50, 76
19, 163611, Note_on_c, 14, 50, 0
19, 163620, Note_on_c, 14, 46, 76
19, 163671, Note_on_c, 14, 46, 0
19, 163680, Note_on_c, 14, 48, 76
19, 163731, Note_on_c, 14, 48, 0
19, 163740, Note_on_c, 14, 50, 76
19, 163791, Note_on_c, 14, 50, 0
19, 163800, Note_on_c, 14, 51, 76
19, 163851, Note_on_c, 14, 51, 0
19, 163860, Note_on_c, 14, 50, 76
19, 163911, Note_on_c, 14, 50, 0
19, 163920, Note_on_c, 14, 51, 76
19, 163971, Note_on_c, 14, 51, 0
19, 163980, Note_on_c, 14, 53, 76
19, 164031, Note_on_c, 14, 53, 0
19, 164040, Note_on_c, 14, 55, 76
19, 164091, Note_on_c, 14, 55, 0
19, 164100, Note_on_c, 14, 56, 76
19, 164151, Note_on_c, 14, 56, 0
19, 164160, Note_on_c, 14, 55, 76
19, 164211, Note_on_c, 14, 55, 0
19, 164220, Note_on_c, 14, 53, 76
19, 164271, Note_on_c, 14, 53, 0
19, 164280, Note_on_c, 14, 52, 76
19, 164331, Note_on_c, 14, 52, 0
19, 164340, Note_on_c, 14, 53, 76
19, 164391, Note_on_c, 14, 53, 0
19, 164400, Note_on_c, 14, 55, 76
19, 164451, Note_on_c, 14, 55, 0
19, 164460, Note_on_c, 14, 53, 76
19, 164511, Note_on_c, 14, 53, 0
19, 164520, Note_on_c, 14, 52, 76
19, 164571, Note_on_c, 14, 52, 0
19, 164580, Note_on_c, 14, 48, 76
19, 164631, Note_on_c, 14, 48, 0
19, 164640, Note_on_c, 14, 50, 76
19, 164691, Note_on_c, 14, 50, 0
19, 164700, Note_on_c, 14, 52, 76
19, 164751, Note_on_c, 14, 52, 0
19, 164760, Note_on_c, 14, 53, 76
19, 164811, Note_on_c, 14, 53, 0
19, 164820, Note_on_c, 14, 52, 76
19, 164871, Note_on_c, 14, 52, 0
19, 164880, Note_on_c, 14, 53, 76
19, 164931, Note_on_c, 14, 53, 0
19, 164940, Note_on_c, 14, 55, 76
19, 164991, Note_on_c, 14, 55, 0
19, 165000, Note_on_c, 14, 56, 76
19, 165051, Note_on_c, 14, 56, 0
19, 165060, Note_on_c, 14, 55, 76
19, 165111, Note_on_c, 14, 55, 0
19, 165120, Note_on_c, 14, 56, 76
19, 165171, Note_on_c, 14, 56, 0
19, 165180, Note_on_c, 14, 53, 76
19, 165231, Note_on_c, 14, 53, 0
19, 165240, Note_on_c, 14, 55, 76
19, 165344, Note_on_c, 14, 55, 0
19, 165360, Note_on_c, 14, 51, 76
19, 165464, Note_on_c, 14, 51, 0
19, 165480, Note_on_c, 14, 63, 84
19, 165719, Note_on_c, 14, 63, 0
19, 165720, Note_on_c, 14, 63, 76
19, 165944, Note_on_c, 14, 63, 0
19, 165960, Note_on_c, 14, 56, 84
19, 166304, Note_on_c, 14, 56, 0
19, 166320, Note_on_c, 14, 55, 84
19, 166371, Note_on_c, 14, 55, 0
19, 166380, Note_on_c, 14, 53, 84
19, 166431, Note_on_c, 14, 53, 0
19, 166440, Note_on_c, 14, 51, 92
19, 166679, Note_on_c, 14, 51, 0
19, 166680, Note_on_c, 14, 51, 84
19, 166904, Note_on_c, 14, 51, 0
19, 166920, Note_on_c, 14, 50, 84
19, 167384, Note_on_c, 14, 50, 0
19, 167400, Note_on_c, 14, 44, 84
19, 167864, Note_on_c, 14, 44, 0
19, 167880, Note_on_c, 14, 43, 84
19, 168344, Note_on_c, 14, 43, 0
19, 168360, Note_on_c, 14, 44, 84
19, 168824, Note_on_c, 14, 44, 0
19, 168840, Note_on_c, 14, 43, 84
19, 169304, Note_on_c, 14, 43, 0
19, 169320, Note_on_c, 14, 47, 84
19, 169784, Note_on_c, 14, 47, 0
19, 169800, Note_on_c, 14, 48, 84
19, 170024, Note_on_c, 14, 48, 0
19, 170040, Note_on_c, 14, 53, 84
19, 170264, Note_on_c, 14, 53, 0
19, 170280, Note_on_c, 14, 55, 84
19, 170504, Note_on_c, 14, 55, 0
19, 170520, Note_on_c, 14, 56, 84
19, 170744, Note_on_c, 14, 56, 0
19, 170760, Note_on_c, 14, 44, 84
19, 170984, Note_on_c, 14, 44, 0
19, 171000, Note_on_c, 14, 51, 84
19, 171224, Note_on_c, 14, 51, 0
19, 171240, Note_on_c, 14, 52, 84
19, 171464, Note_on_c, 14, 52, 0
19, 171480, Note_on_c, 14, 53, 84
19, 171584, Note_on_c, 14, 53, 0
19, 171600, Note_on_c, 14, 53, 84
19, 171704, Note_on_c, 14, 53, 0
19, 171720, Note_on_c, 14, 54, 84
19, 171824, Note_on_c, 14, 54, 0
19, 171840, Note_on_c, 14, 50, 84
19, 171944, Note_on_c, 14, 50, 0
19, 171960, Note_on_c, 14, 51, 84
19, 172064, Note_on_c, 14, 51, 0
19, 172080, Note_on_c, 14, 49, 84
19, 172184, Note_on_c, 14, 49, 0
19, 172200, Note_on_c, 14, 48, 84
19, 172304, Note_on_c, 14, 48, 0
19, 172320, Note_on_c, 14, 47, 84
19, 172424, Note_on_c, 14, 47, 0
19, 172440, Note_on_c, 14, 46, 84
19, 172499, Note_on_c, 14, 46, 0
19, 172500, Note_on_c, 14, 45, 84
19, 172559, Note_on_c, 14, 45, 0
19, 172560, Note_on_c, 14, 46, 84
19, 172619, Note_on_c, 14, 46, 0
19, 172620, Note_on_c, 14, 45, 84
19, 172679, Note_on_c, 14, 45, 0
19, 172680, Note_on_c, 14, 46, 84
19, 172739, Note_on_c, 14, 46, 0
19, 172740, Note_on_c, 14, 45, 84
19, 172799, Note_on_c, 14, 45, 0
19, 172800, Note_on_c, 14, 46, 84
19, 172859, Note_on_c, 14, 46, 0
19, 172860, Note_on_c, 14, 45, 84
19, 172911, Note_on_c, 14, 45, 0
19, 172920, Note_on_c, 14, 46, 84
19, 172979, Note_on_c, 14, 46, 0
19, 172980, Note_on_c, 14, 45, 84
19, 173039, Note_on_c, 14, 45, 0
19, 173040, Note_on_c, 14, 46, 84
19, 173099, Note_on_c, 14, 46, 0
19, 173100, Note_on_c, 14, 45, 84
19, 173159, Note_on_c, 14, 45, 0
19, 173160, Note_on_c, 14, 46, 84
19, 173219, Note_on_c, 14, 46, 0
19, 173220, Note_on_c, 14, 45, 84
19, 173279, Note_on_c, 14, 45, 0
19, 173280, Note_on_c, 14, 46, 84
19, 173339, Note_on_c, 14, 46, 0
19, 173340, Note_on_c, 14, 45, 84
19, 173391, Note_on_c, 14, 45, 0
19, 173400, Note_on_c, 14, 46, 84
19, 173459, Note_on_c, 14, 46, 0
19, 173460, Note_on_c, 14, 45, 84
19, 173519, Note_on_c, 14, 45, 0
19, 173520, Note_on_c, 14, 46, 84
19, 173579, Note_on_c, 14, 46, 0
19, 173580, Note_on_c, 14, 45, 84
19, 173639, Note_on_c, 14, 45, 0
19, 173640, Note_on_c, 14, 46, 84
19, 173699, Note_on_c, 14, 46, 0
19, 173700, Note_on_c, 14, 45, 84
19, 173759, Note_on_c, 14, 45, 0
19, 173760, Note_on_c, 14, 46, 84
19, 173819, Note_on_c, 14, 46, 0
19, 173820, Note_on_c, 14, 45, 84
19, 173871, Note_on_c, 14, 45, 0
19, 173880, Note_on_c, 14, 46, 84
19, 173939, Note_on_c, 14, 46, 0
19, 173940, Note_on_c, 14, 45, 84
19, 173999, Note_on_c, 14, 45, 0
19, 174000, Note_on_c, 14, 46, 84
19, 174059, Note_on_c, 14, 46, 0
19, 174060, Note_on_c, 14, 45, 84
19, 174119, Note_on_c, 14, 45, 0
19, 174120, Note_on_c, 14, 46, 84
19, 174179, Note_on_c, 14, 46, 0
19, 174180, Note_on_c, 14, 45, 84
19, 174239, Note_on_c, 14, 45, 0
19, 174240, Note_on_c, 14, 46, 84
19, 174299, Note_on_c, 14, 46, 0
19, 174300, Note_on_c, 14, 45, 84
19, 174351, Note_on_c, 14, 45, 0
19, 174360, Note_on_c, 14, 46, 84
19, 174419, Note_on_c, 14, 46, 0
19, 174420, Note_on_c, 14, 45, 84
19, 174479, Note_on_c, 14, 45, 0
19, 174480, Note_on_c, 14, 46, 84
19, 174539, Note_on_c, 14, 46, 0
19, 174540, Note_on_c, 14, 45, 84
19, 174599, Note_on_c, 14, 45, 0
19, 174600, Note_on_c, 14, 46, 84
19, 174659, Note_on_c, 14, 46, 0
19, 174660, Note_on_c, 14, 45, 84
19, 174719, Note_on_c, 14, 45, 0
19, 174720, Note_on_c, 14, 46, 84
19, 174779, Note_on_c, 14, 46, 0
19, 174780, Note_on_c, 14, 45, 84
19, 174831, Note_on_c, 14, 45, 0
19, 174840, Note_on_c, 14, 46, 84
19, 174899, Note_on_c, 14, 46, 0
19, 174900, Note_on_c, 14, 45, 84
19, 174959, Note_on_c, 14, 45, 0
19, 174960, Note_on_c, 14, 46, 84
19, 175019, Note_on_c, 14, 46, 0
19, 175020, Note_on_c, 14, 45, 84
19, 175079, Note_on_c, 14, 45, 0
19, 175080, Note_on_c, 14, 46, 84
19, 175139, Note_on_c, 14, 46, 0
19, 175140, Note_on_c, 14, 45, 84
19, 175199, Note_on_c, 14, 45, 0
19, 175200, Note_on_c, 14, 46, 84
19, 175259, Note_on_c, 14, 46, 0
19, 175260, Note_on_c, 14, 45, 84
19, 175311, Note_on_c, 14, 45, 0
19, 175320, Note_on_c, 14, 46, 84
19, 175424, Note_on_c, 14, 46, 0
19, 175440, Note_on_c, 14, 58, 84
19, 175559, Note_on_c, 14, 58, 0
19, 175560, Note_on_c, 14, 57, 84
19, 175679, Note_on_c, 14, 57, 0
19, 175680, Note_on_c, 14, 56, 84
19, 175799, Note_on_c, 14, 56, 0
19, 175800, Note_on_c, 14, 55, 84
19, 175919, Note_on_c, 14, 55, 0
19, 175920, Note_on_c, 14, 54, 84
19, 176024, Note_on_c, 14, 54, 0
19, 176040, Note_on_c, 14, 53, 84
19, 176279, Note_on_c, 14, 53, 0
19, 176280, Note_on_c, 14, 51, 84
19, 176384, Note_on_c, 14, 51, 0
19, 176400, Note_on_c, 14, 51, 84
19, 176519, Note_on_c, 14, 51, 0
19, 176520, Note_on_c, 14, 50, 84
19, 176639, Note_on_c, 14, 50, 0
19, 176640, Note_on_c, 14, 49, 84
19, 176759, Note_on_c, 14, 49, 0
19, 176760, Note_on_c, 14, 48, 84
19, 176879, Note_on_c, 14, 48, 0
19, 176880, Note_on_c, 14, 47, 84
19, 176984, Note_on_c, 14, 47, 0
19, 177000, Note_on_c, 14, 46, 84
19, 177059, Note_on_c, 14, 46, 0
19, 177060, Note_on_c, 14, 45, 84
19, 177119, Note_on_c, 14, 45, 0
19, 177120, Note_on_c, 14, 46, 84
19, 177179, Note_on_c, 14, 46, 0
19, 177180, Note_on_c, 14, 45, 84
19, 177231, Note_on_c, 14, 45, 0
19, 177240, Note_on_c, 14, 46, 84
19, 177299, Note_on_c, 14, 46, 0
19, 177300, Note_on_c, 14, 45, 84
19, 177359, Note_on_c, 14, 45, 0
19, 177360, Note_on_c, 14, 46, 84
19, 177419, Note_on_c, 14, 46, 0
19, 177420, Note_on_c, 14, 45, 84
19, 177479, Note_on_c, 14, 45, 0
19, 177480, Note_on_c, 14, 46, 84
19, 177539, Note_on_c, 14, 46, 0
19, 177540, Note_on_c, 14, 45, 84
19, 177599, Note_on_c, 14, 45, 0
19, 177600, Note_on_c, 14, 46, 84
19, 177659, Note_on_c, 14, 46, 0
19, 177660, Note_on_c, 14, 45, 84
19, 177711, Note_on_c, 14, 45, 0
19, 177720, Note_on_c, 14, 46, 84
19, 177779, Note_on_c, 14, 46, 0
19, 177780, Note_on_c, 14, 45, 84
19, 177839, Note_on_c, 14, 45, 0
19, 177840, Note_on_c, 14, 46, 84
19, 177899, Note_on_c, 14, 46, 0
19, 177900, Note_on_c, 14, 45, 84
19, 177959, Note_on_c, 14, 45, 0
19, 177960, Note_on_c, 14, 46, 84
19, 178019, Note_on_c, 14, 46, 0
19, 178020, Note_on_c, 14, 45, 84
19, 178079, Note_on_c, 14, 45, 0
19, 178080, Note_on_c, 14, 46, 84
19, 178139, Note_on_c, 14, 46, 0
19, 178140, Note_on_c, 14, 45, 84
19, 178191, Note_on_c, 14, 45, 0
19, 178200, Note_on_c, 14, 46, 84
19, 178259, Note_on_c, 14, 46, 0
19, 178260, Note_on_c, 14, 45, 84
19, 178319, Note_on_c, 14, 45, 0
19, 178320, Note_on_c, 14, 46, 84
19, 178379, Note_on_c, 14, 46, 0
19, 178380, Note_on_c, 14, 45, 84
19, 178439, Note_on_c, 14, 45, 0
19, 178440, Note_on_c, 14, 46, 84
19, 178499, Note_on_c, 14, 46, 0
19, 178500, Note_on_c, 14, 45, 84
19, 178559, Note_on_c, 14, 45, 0
19, 178560, Note_on_c, 14, 46, 84
19, 178619, Note_on_c, 14, 46, 0
19, 178620, Note_on_c, 14, 45, 84
19, 178671, Note_on_c, 14, 45, 0
19, 178680, Note_on_c, 14, 46, 84
19, 178739, Note_on_c, 14, 46, 0
19, 178740, Note_on_c, 14, 45, 84
19, 178799, Note_on_c, 14, 45, 0
19, 178800, Note_on_c, 14, 46, 84
19, 178859, Note_on_c, 14, 46, 0
19, 178860, Note_on_c, 14, 45, 84
19, 178919, Note_on_c, 14, 45, 0
19, 178920, Note_on_c, 14, 46, 84
19, 178979, Note_on_c, 14, 46, 0
19, 178980, Note_on_c, 14, 45, 84
19, 179039, Note_on_c, 14, 45, 0
19, 179040, Note_on_c, 14, 46, 84
19, 179099, Note_on_c, 14, 46, 0
19, 179100, Note_on_c, 14, 45, 84
19, 179151, Note_on_c, 14, 45, 0
19, 179160, Note_on_c, 14, 46, 84
19, 179279, Note_on_c, 14, 46, 0
19, 179280, Note_on_c, 14, 47, 84
19, 179399, Note_on_c, 14, 47, 0
19, 179400, Note_on_c, 14, 46, 84
19, 179519, Note_on_c, 14, 46, 0
19, 179520, Note_on_c, 14, 47, 84
19, 179624, Note_on_c, 14, 47, 0
19, 179640, Note_on_c, 14, 46, 84
19, 179759, Note_on_c, 14, 46, 0
19, 179760, Note_on_c, 14, 47, 84
19, 179879, Note_on_c, 14, 47, 0
19, 179880, Note_on_c, 14, 46, 84
19, 179999, Note_on_c, 14, 46, 0
19, 180000, Note_on_c, 14, 47, 84
19, 180104, Note_on_c, 14, 47, 0
19, 180120, Note_on_c, 14, 46, 84
19, 180299, Note_on_c, 14, 46, 0
19, 180360, Note_on_c, 14, 58, 84
19, 180539, Note_on_c, 14, 58, 0
19, 180600, Note_on_c, 14, 58, 84
19, 180779, Note_on_c, 14, 58, 0
19, 180840, Note_on_c, 14, 58, 84
19, 181019, Note_on_c, 14, 58, 0
19, 181080, Note_on_c, 14, 58, 84
19, 181184, Note_on_c, 14, 58, 0
19, 181200, Note_on_c, 14, 56, 84
19, 181251, Note_on_c, 14, 56, 0
19, 181260, Note_on_c, 14, 55, 84
19, 181311, Note_on_c, 14, 55, 0
19, 181320, Note_on_c, 14, 53, 84
19, 181371, Note_on_c, 14, 53, 0
19, 181380, Note_on_c, 14, 51, 84
19, 181431, Note_on_c, 14, 51, 0
19, 181440, Note_on_c, 14, 50, 84
19, 181491, Note_on_c, 14, 50, 0
19, 181500, Note_on_c, 14, 48, 84
19, 181551, Note_on_c, 14, 48, 0
19, 181560, Note_on_c, 14, 46, 84
19, 181664, Note_on_c, 14, 46, 0
19, 181680, Note_on_c, 14, 48, 84
19, 181731, Note_on_c, 14, 48, 0
19, 181740, Note_on_c, 14, 50, 84
19, 181791, Note_on_c, 14, 50, 0
19, 181800, Note_on_c, 14, 51, 84
19, 181851, Note_on_c, 14, 51, 0
19, 181860, Note_on_c, 14, 53, 84
19, 181911, Note_on_c, 14, 53, 0
19, 181920, Note_on_c, 14, 55, 84
19, 181971, Note_on_c, 14, 55, 0
19, 181980, Note_on_c, 14, 56, 84
19, 182031, Note_on_c, 14, 56, 0
19, 182040, Note_on_c, 14, 58, 92
19, 182369, Note_on_c, 14, 58, 0
19, 186360, Note_on_c, 14, 39, 52
19, 186599, Note_on_c, 14, 39, 0
19, 186600, Note_on_c, 14, 45, 52
19, 186809, Note_on_c, 14, 45, 0
19, 186810, Note_on_c, 14, 46, 52
19, 186835, Note_on_c, 14, 46, 0
19, 186840, Note_on_c, 14, 46, 52
19, 187199, Note_on_c, 14, 46, 0
19, 187200, Note_on_c, 14, 44, 52
19, 187259, Note_on_c, 14, 44, 0
19, 187260, Note_on_c, 14, 43, 52
19, 187315, Note_on_c, 14, 43, 0
19, 187320, Note_on_c, 14, 41, 52
19, 187559, Note_on_c, 14, 41, 0
19, 187560, Note_on_c, 14, 47, 68
19, 187769, Note_on_c, 14, 47, 0
19, 187770, Note_on_c, 14, 48, 52
19, 187795, Note_on_c, 14, 48, 0
19, 187800, Note_on_c, 14, 48, 52
19, 188159, Note_on_c, 14, 48, 0
19, 188160, Note_on_c, 14, 46, 52
19, 188219, Note_on_c, 14, 46, 0
19, 188220, Note_on_c, 14, 44, 52
19, 188275, Note_on_c, 14, 44, 0
19, 188278, Control_c, 14, 11, 96
19, 188280, Control_c, 14, 11, 96
19, 188280, Note_on_c, 14, 43, 68
19, 188300, Control_c, 14, 11, 97
19, 188320, Control_c, 14, 11, 99
19, 188340, Control_c, 14, 11, 100
19, 188360, Control_c, 14, 11, 101
19, 188380, Control_c, 14, 11, 102
19, 188400, Control_c, 14, 11, 104
19, 188420, Control_c, 14, 11, 105
19, 188440, Control_c, 14, 11, 106
19, 188460, Control_c, 14, 11, 108
19, 188480, Control_c, 14, 11, 109
19, 188500, Control_c, 14, 11, 110
19, 188519, Note_on_c, 14, 43, 0
19, 188520, Control_c, 14, 11, 112
19, 188520, Note_on_c, 14, 50, 68
19, 188540, Control_c, 14, 11, 113
19, 188560, Control_c, 14, 11, 114
19, 188580, Control_c, 14, 11, 115
19, 188600, Control_c, 14, 11, 117
19, 188620, Control_c, 14, 11, 118
19, 188640, Control_c, 14, 11, 119
19, 188660, Control_c, 14, 11, 121
19, 188680, Control_c, 14, 11, 122
19, 188700, Control_c, 14, 11, 123
19, 188720, Control_c, 14, 11, 124
19, 188729, Note_on_c, 14, 50, 0
19, 188730, Note_on_c, 14, 51, 68
19, 188740, Control_c, 14, 11, 127
19, 188755, Note_on_c, 14, 51, 0
19, 188760, Note_on_c, 14, 51, 76
19, 188790, Control_c, 14, 11, 112
19, 188809, Control_c, 14, 11, 111
19, 188828, Control_c, 14, 11, 109
19, 188846, Control_c, 14, 11, 108
19, 188865, Control_c, 14, 11, 107
19, 188884, Control_c, 14, 11, 105
19, 188903, Control_c, 14, 11, 104
19, 188921, Control_c, 14, 11, 103
19, 188940, Control_c, 14, 11, 101
19, 188959, Control_c, 14, 11, 100
19, 188978, Control_c, 14, 11, 99
19, 188996, Control_c, 14, 11, 97
19, 189015, Control_c, 14, 11, 96
19, 189034, Control_c, 14, 11, 95
19, 189053, Control_c, 14, 11, 93
19, 189071, Control_c, 14, 11, 92
19, 189090, Control_c, 14, 11, 91
19, 189104, Note_on_c, 14, 51, 0
19, 189109, Control_c, 14, 11, 89
19, 189120, Note_on_c, 14, 49, 76
19, 189128, Control_c, 14, 11, 88
19, 189146, Control_c, 14, 11, 87
19, 189165, Control_c, 14, 11, 85
19, 189184, Control_c, 14, 11, 84
19, 189203, Control_c, 14, 11, 83
19, 189221, Control_c, 14, 11, 80
19, 189231, Note_on_c, 14, 49, 0
19, 189240, Note_on_c, 14, 48, 76
19, 189359, Note_on_c, 14, 48, 0
19, 189360, Note_on_c, 14, 50, 76
19, 189479, Note_on_c, 14, 50, 0
19, 189480, Note_on_c, 14, 51, 76
19, 189599, Note_on_c, 14, 51, 0
19, 189600, Note_on_c, 14, 48, 76
19, 189711, Note_on_c, 14, 48, 0
19, 189720, Note_on_c, 14, 46, 76
19, 189809, Note_on_c, 14, 46, 0
19, 189840, Note_on_c, 14, 58, 76
19, 189929, Note_on_c, 14, 58, 0
19, 189960, Note_on_c, 14, 46, 76
19, 190049, Note_on_c, 14, 46, 0
19, 190198, Program_c, 14, 45
19, 190198, Control_c, 14, 11, 127
19, 190200, Note_on_c, 14, 46, 52
19, 190319, Note_on_c, 14, 46, 0
19, 190440, Note_on_c, 14, 50, 52
19, 190559, Note_on_c, 14, 50, 0
19, 190680, Note_on_c, 14, 53, 52
19, 190799, Note_on_c, 14, 53, 0
19, 190920, Note_on_c, 14, 58, 52
19, 191039, Note_on_c, 14, 58, 0
19, 191160, Note_on_c, 14, 46, 52
19, 191279, Note_on_c, 14, 46, 0
19, 191400, Note_on_c, 14, 50, 52
19, 191519, Note_on_c, 14, 50, 0
19, 191640, Note_on_c, 14, 53, 52
19, 191759, Note_on_c, 14, 53, 0
19, 191880, Note_on_c, 14, 44, 52
19, 191999, Note_on_c, 14, 44, 0
19, 192120, Note_on_c, 14, 43, 52
19, 192239, Note_on_c, 14, 43, 0
19, 192360, Note_on_c, 14, 55, 56
19, 192479, Note_on_c, 14, 55, 0
19, 192600, Note_on_c, 14, 44, 60
19, 192719, Note_on_c, 14, 44, 0
19, 192840, Note_on_c, 14, 56, 64
19, 192959, Note_on_c, 14, 56, 0
19, 193080, Note_on_c, 14, 58, 52
19, 193199, Note_on_c, 14, 58, 0
19, 193320, Note_on_c, 14, 46, 68
19, 193439, Note_on_c, 14, 46, 0
19, 193560, Note_on_c, 14, 51, 52
19, 193679, Note_on_c, 14, 51, 0
19, 193800, Program_c, 14, 48
19, 194040, Note_on_c, 14, 46, 52
19, 194075, Note_on_c, 14, 46, 0
19, 194080, Note_on_c, 14, 50, 52
19, 194115, Note_on_c, 14, 50, 0
19, 194120, Note_on_c, 14, 53, 52
19, 194155, Note_on_c, 14, 53, 0
19, 194160, Note_on_c, 14, 56, 52
19, 194195, Note_on_c, 14, 56, 0
19, 194200, Note_on_c, 14, 53, 52
19, 194235, Note_on_c, 14, 53, 0
19, 194240, Note_on_c, 14, 50, 52
19, 194275, Note_on_c, 14, 50, 0
19, 194280, Note_on_c, 14, 46, 52
19, 194315, Note_on_c, 14, 46, 0
19, 194320, Note_on_c, 14, 50, 52
19, 194355, Note_on_c, 14, 50, 0
19, 194360, Note_on_c, 14, 53, 52
19, 194395, Note_on_c, 14, 53, 0
19, 194400, Note_on_c, 14, 56, 52
19, 194435, Note_on_c, 14, 56, 0
19, 194440, Note_on_c, 14, 53, 52
19, 194475, Note_on_c, 14, 53, 0
19, 194480, Note_on_c, 14, 50, 52
19, 194515, Note_on_c, 14, 50, 0
19, 194520, Note_on_c, 14, 46, 52
19, 194555, Note_on_c, 14, 46, 0
19, 194560, Note_on_c, 14, 50, 52
19, 194595, Note_on_c, 14, 50, 0
19, 194600, Note_on_c, 14, 53, 52
19, 194635, Note_on_c, 14, 53, 0
19, 194640, Note_on_c, 14, 56, 52
19, 194675, Note_on_c, 14, 56, 0
19, 194680, Note_on_c, 14, 53, 52
19, 194715, Note_on_c, 14, 53, 0
19, 194720, Note_on_c, 14, 50, 52
19, 194755, Note_on_c, 14, 50, 0
19, 194760, Note_on_c, 14, 46, 52
19, 194795, Note_on_c, 14, 46, 0
19, 194800, Note_on_c, 14, 50, 52
19, 194835, Note_on_c, 14, 50, 0
19, 194840, Note_on_c, 14, 53, 52
19, 194875, Note_on_c, 14, 53, 0
19, 194880, Note_on_c, 14, 56, 52
19, 194915, Note_on_c, 14, 56, 0
19, 194920, Note_on_c, 14, 53, 52
19, 194955, Note_on_c, 14, 53, 0
19, 194960, Note_on_c, 14, 50, 52
19, 194995, Note_on_c, 14, 50, 0
19, 195000, Note_on_c, 14, 46, 52
19, 195035, Note_on_c, 14, 46, 0
19, 195040, Note_on_c, 14, 50, 52
19, 195075, Note_on_c, 14, 50, 0
19, 195080, Note_on_c, 14, 53, 52
19, 195115, Note_on_c, 14, 53, 0
19, 195120, Note_on_c, 14, 56, 52
19, 195155, Note_on_c, 14, 56, 0
19, 195160, Note_on_c, 14, 53, 52
19, 195195, Note_on_c, 14, 53, 0
19, 195200, Note_on_c, 14, 50, 52
19, 195235, Note_on_c, 14, 50, 0
19, 195240, Note_on_c, 14, 46, 52
19, 195275, Note_on_c, 14, 46, 0
19, 195280, Note_on_c, 14, 50, 52
19, 195315, Note_on_c, 14, 50, 0
19, 195320, Note_on_c, 14, 53, 52
19, 195355, Note_on_c, 14, 53, 0
19, 195360, Note_on_c, 14, 56, 52
19, 195395, Note_on_c, 14, 56, 0
19, 195400, Note_on_c, 14, 53, 52
19, 195435, Note_on_c, 14, 53, 0
19, 195440, Note_on_c, 14, 50, 52
19, 195475, Note_on_c, 14, 50, 0
19, 195480, Note_on_c, 14, 46, 52
19, 195515, Note_on_c, 14, 46, 0
19, 195520, Note_on_c, 14, 50, 52
19, 195555, Note_on_c, 14, 50, 0
19, 195560, Note_on_c, 14, 53, 52
19, 195595, Note_on_c, 14, 53, 0
19, 195600, Note_on_c, 14, 56, 52
19, 195635, Note_on_c, 14, 56, 0
19, 195640, Note_on_c, 14, 53, 52
19, 195675, Note_on_c, 14, 53, 0
19, 195680, Note_on_c, 14, 50, 52
19, 195715, Note_on_c, 14, 50, 0
19, 195720, Note_on_c, 14, 46, 52
19, 195755, Note_on_c, 14, 46, 0
19, 195760, Note_on_c, 14, 50, 52
19, 195795, Note_on_c, 14, 50, 0
19, 195800, Note_on_c, 14, 53, 52
19, 195835, Note_on_c, 14, 53, 0
19, 195840, Note_on_c, 14, 44, 52
19, 195875, Note_on_c, 14, 44, 0
19, 195880, Note_on_c, 14, 50, 52
19, 195915, Note_on_c, 14, 50, 0
19, 195920, Note_on_c, 14, 53, 52
19, 195955, Note_on_c, 14, 53, 0
19, 195960, Note_on_c, 14, 43, 52
19, 195995, Note_on_c, 14, 43, 0
19, 196000, Note_on_c, 14, 46, 52
19, 196035, Note_on_c, 14, 46, 0
19, 196040, Note_on_c, 14, 51, 52
19, 196075, Note_on_c, 14, 51, 0
19, 196080, Note_on_c, 14, 55, 52
19, 196115, Note_on_c, 14, 55, 0
19, 196120, Note_on_c, 14, 51, 52
19, 196155, Note_on_c, 14, 51, 0
19, 196160, Note_on_c, 14, 46, 52
19, 196195, Note_on_c, 14, 46, 0
19, 196200, Note_on_c, 14, 43, 52
19, 196235, Note_on_c, 14, 43, 0
19, 196240, Note_on_c, 14, 46, 52
19, 196275, Note_on_c, 14, 46, 0
19, 196280, Note_on_c, 14, 51, 53
19, 196315, Note_on_c, 14, 51, 0
19, 196320, Note_on_c, 14, 55, 54
19, 196355, Note_on_c, 14, 55, 0
19, 196360, Note_on_c, 14, 51, 55
19, 196395, Note_on_c, 14, 51, 0
19, 196400, Note_on_c, 14, 46, 56
19, 196435, Note_on_c, 14, 46, 0
19, 196440, Note_on_c, 14, 44, 57
19, 196475, Note_on_c, 14, 44, 0
19, 196480, Note_on_c, 14, 48, 58
19, 196515, Note_on_c, 14, 48, 0
19, 196520, Note_on_c, 14, 53, 59
19, 196555, Note_on_c, 14, 53, 0
19, 196560, Note_on_c, 14, 56, 60
19, 196595, Note_on_c, 14, 56, 0
19, 196600, Note_on_c, 14, 53, 60
19, 196635, Note_on_c, 14, 53, 0
19, 196640, Note_on_c, 14, 48, 61
19, 196675, Note_on_c, 14, 48, 0
19, 196680, Note_on_c, 14, 44, 62
19, 196715, Note_on_c, 14, 44, 0
19, 196720, Note_on_c, 14, 48, 63
19, 196755, Note_on_c, 14, 48, 0
19, 196760, Note_on_c, 14, 53, 64
19, 196795, Note_on_c, 14, 53, 0
19, 196800, Note_on_c, 14, 56, 65
19, 196835, Note_on_c, 14, 56, 0
19, 196840, Note_on_c, 14, 53, 66
19, 196875, Note_on_c, 14, 53, 0
19, 196880, Note_on_c, 14, 48, 67
19, 196915, Note_on_c, 14, 48, 0
19, 196920, Note_on_c, 14, 46, 52
19, 196955, Note_on_c, 14, 46, 0
19, 196960, Note_on_c, 14, 51, 52
19, 196995, Note_on_c, 14, 51, 0
19, 197000, Note_on_c, 14, 55, 52
19, 197035, Note_on_c, 14, 55, 0
19, 197040, Note_on_c, 14, 58, 52
19, 197075, Note_on_c, 14, 58, 0
19, 197080, Note_on_c, 14, 55, 52
19, 197115, Note_on_c, 14, 55, 0
19, 197120, Note_on_c, 14, 51, 52
19, 197155, Note_on_c, 14, 51, 0
19, 197160, Note_on_c, 14, 46, 52
19, 197195, Note_on_c, 14, 46, 0
19, 197200, Note_on_c, 14, 58, 52
19, 197235, Note_on_c, 14, 58, 0
19, 197240, Note_on_c, 14, 46, 52
19, 197275, Note_on_c, 14, 46, 0
19, 197280, Note_on_c, 14, 46, 52
19, 197315, Note_on_c, 14, 46, 0
19, 197320, Note_on_c, 14, 46, 52
19, 197355, Note_on_c, 14, 46, 0
19, 197360, Note_on_c, 14, 46, 52
19, 197395, Note_on_c, 14, 46, 0
19, 197400, Note_on_c, 14, 51, 52
19, 197519, Note_on_c, 14, 51, 0
19, 197760, Note_on_c, 14, 51, 84
19, 197871, Note_on_c, 14, 51, 0
19, 197880, Note_on_c, 14, 55, 92
19, 198224, Note_on_c, 14, 55, 0
19, 198240, Note_on_c, 14, 51, 84
19, 198351, Note_on_c, 14, 51, 0
19, 198360, Note_on_c, 14, 50, 92
19, 198704, Note_on_c, 14, 50, 0
19, 198720, Note_on_c, 14, 53, 84
19, 198831, Note_on_c, 14, 53, 0
19, 198840, Note_on_c, 14, 56, 92
19, 199184, Note_on_c, 14, 56, 0
19, 199200, Note_on_c, 14, 53, 84
19, 199311, Note_on_c, 14, 53, 0
19, 199320, Note_on_c, 14, 51, 92
19, 199664, Note_on_c, 14, 51, 0
19, 199680, Note_on_c, 14, 55, 84
19, 199791, Note_on_c, 14, 55, 0
19, 199800, Note_on_c, 14, 58, 84
19, 199979, Note_on_c, 14, 58, 0
19, 200040, Note_on_c, 14, 58, 84
19, 200219, Note_on_c, 14, 58, 0
19, 200280, Note_on_c, 14, 58, 92
19, 200624, Note_on_c, 14, 58, 0
19, 200640, Note_on_c, 14, 55, 84
19, 200751, Note_on_c, 14, 55, 0
19, 200760, Note_on_c, 14, 58, 84
19, 200819, Note_on_c, 14, 58, 0
19, 200820, Note_on_c, 14, 56, 84
19, 200875, Note_on_c, 14, 56, 0
19, 200880, Note_on_c, 14, 53, 84
19, 200969, Note_on_c, 14, 53, 0
19, 201000, Note_on_c, 14, 56, 84
19, 201059, Note_on_c, 14, 56, 0
19, 201060, Note_on_c, 14, 55, 84
19, 201115, Note_on_c, 14, 55, 0
19, 201120, Note_on_c, 14, 51, 84
19, 201209, Note_on_c, 14, 51, 0
19, 201240, Note_on_c, 14, 55, 84
19, 201479, Note_on_c, 14, 55, 0
19, 201480, Note_on_c, 14, 53, 84
19, 201591, Note_on_c, 14, 53, 0
19, 201600, Note_on_c, 14, 46, 84
19, 201629, Note_on_c, 14, 46, 0
19, 201640, Note_on_c, 14, 46, 84
19, 201669, Note_on_c, 14, 46, 0
19, 201680, Note_on_c, 14, 45, 84
19, 201709, Note_on_c, 14, 45, 0
19, 201720, Note_on_c, 14, 46, 84
19, 201749, Note_on_c, 14, 46, 0
19, 201760, Note_on_c, 14, 46, 84
19, 201789, Note_on_c, 14, 46, 0
19, 201800, Note_on_c, 14, 45, 84
19, 201829, Note_on_c, 14, 45, 0
19, 201840, Note_on_c, 14, 46, 84
19, 201869, Note_on_c, 14, 46, 0
19, 201880, Note_on_c, 14, 46, 84
19, 201909, Note_on_c, 14, 46, 0
19, 201920, Note_on_c, 14, 48, 84
19, 201949, Note_on_c, 14, 48, 0
19, 201960, Note_on_c, 14, 50, 84
19, 201989, Note_on_c, 14, 50, 0
19, 202000, Note_on_c, 14, 50, 84
19, 202029, Note_on_c, 14, 50, 0
19, 202040, Note_on_c, 14, 51, 84
19, 202069, Note_on_c, 14, 51, 0
19, 202080, Note_on_c, 14, 53, 84
19, 202109, Note_on_c, 14, 53, 0
19, 202120, Note_on_c, 14, 53, 84
19, 202149, Note_on_c, 14, 53, 0
19, 202160, Note_on_c, 14, 55, 84
19, 202189, Note_on_c, 14, 55, 0
19, 202200, Note_on_c, 14, 56, 84
19, 202289, Note_on_c, 14, 56, 0
19, 202320, Note_on_c, 14, 56, 84
19, 202409, Note_on_c, 14, 56, 0
19, 202440, Note_on_c, 14, 56, 84
19, 202529, Note_on_c, 14, 56, 0
19, 202560, Note_on_c, 14, 46, 84
19, 202589, Note_on_c, 14, 46, 0
19, 202600, Note_on_c, 14, 46, 84
19, 202629, Note_on_c, 14, 46, 0
19, 202640, Note_on_c, 14, 45, 84
19, 202669, Note_on_c, 14, 45, 0
19, 202680, Note_on_c, 14, 46, 84
19, 202709, Note_on_c, 14, 46, 0
19, 202720, Note_on_c, 14, 46, 84
19, 202749, Note_on_c, 14, 46, 0
19, 202760, Note_on_c, 14, 48, 84
19, 202789, Note_on_c, 14, 48, 0
19, 202800, Note_on_c, 14, 50, 84
19, 202829, Note_on_c, 14, 50, 0
19, 202840, Note_on_c, 14, 50, 84
19, 202869, Note_on_c, 14, 50, 0
19, 202880, Note_on_c, 14, 51, 84
19, 202909, Note_on_c, 14, 51, 0
19, 202920, Note_on_c, 14, 53, 84
19, 202949, Note_on_c, 14, 53, 0
19, 202960, Note_on_c, 14, 53, 84
19, 202989, Note_on_c, 14, 53, 0
19, 203000, Note_on_c, 14, 55, 84
19, 203029, Note_on_c, 14, 55, 0
19, 203040, Note_on_c, 14, 56, 84
19, 203069, Note_on_c, 14, 56, 0
19, 203080, Note_on_c, 14, 56, 84
19, 203109, Note_on_c, 14, 56, 0
19, 203120, Note_on_c, 14, 55, 84
19, 203149, Note_on_c, 14, 55, 0
19, 203160, Note_on_c, 14, 56, 84
19, 203519, Note_on_c, 14, 56, 0
19, 203520, Note_on_c, 14, 57, 84
19, 203631, Note_on_c, 14, 57, 0
19, 203640, Note_on_c, 14, 58, 92
19, 203984, Note_on_c, 14, 58, 0
19, 204000, Note_on_c, 14, 55, 84
19, 204111, Note_on_c, 14, 55, 0
19, 204120, Note_on_c, 14, 53, 92
19, 204464, Note_on_c, 14, 53, 0
19, 204480, Note_on_c, 14, 60, 84
19, 204591, Note_on_c, 14, 60, 0
19, 204600, Note_on_c, 14, 51, 92
19, 204839, Note_on_c, 14, 51, 0
19, 204840, Note_on_c, 14, 55, 84
19, 205019, Note_on_c, 14, 55, 0
19, 205020, Note_on_c, 14, 53, 84
19, 205075, Note_on_c, 14, 53, 0
19, 205080, Note_on_c, 14, 51, 84
19, 205199, Note_on_c, 14, 51, 0
19, 205560, Note_on_c, 14, 51, 52
19, 205679, Note_on_c, 14, 51, 0
19, 206040, Note_on_c, 14, 46, 52
19, 206159, Note_on_c, 14, 46, 0
19, 206280, Note_on_c, 14, 53, 52
19, 206309, Note_on_c, 14, 53, 0
19, 206320, Note_on_c, 14, 55, 52
19, 206349, Note_on_c, 14, 55, 0
19, 206360, Note_on_c, 14, 56, 53
19, 206389, Note_on_c, 14, 56, 0
19, 206400, Note_on_c, 14, 55, 54
19, 206429, Note_on_c, 14, 55, 0
19, 206440, Note_on_c, 14, 53, 55
19, 206469, Note_on_c, 14, 53, 0
19, 206480, Note_on_c, 14, 51, 56
19, 206509, Note_on_c, 14, 51, 0
19, 206520, Note_on_c, 14, 50, 57
19, 206549, Note_on_c, 14, 50, 0
19, 206560, Note_on_c, 14, 51, 58
19, 206589, Note_on_c, 14, 51, 0
19, 206600, Note_on_c, 14, 53, 59
19, 206629, Note_on_c, 14, 53, 0
19, 206640, Note_on_c, 14, 51, 60
19, 206669, Note_on_c, 14, 51, 0
19, 206680, Note_on_c, 14, 50, 60
19, 206709, Note_on_c, 14, 50, 0
19, 206720, Note_on_c, 14, 48, 61
19, 206749, Note_on_c, 14, 48, 0
19, 206760, Note_on_c, 14, 46, 62
19, 206789, Note_on_c, 14, 46, 0
19, 206800, Note_on_c, 14, 48, 63
19, 206829, Note_on_c, 14, 48, 0
19, 206840, Note_on_c, 14, 46, 64
19, 206869, Note_on_c, 14, 46, 0
19, 206880, Note_on_c, 14, 44, 65
19, 206909, Note_on_c, 14, 44, 0
19, 206920, Note_on_c, 14, 43, 66
19, 206949, Note_on_c, 14, 43, 0
19, 206960, Note_on_c, 14, 41, 67
19, 206989, Note_on_c, 14, 41, 0
19, 207000, Note_on_c, 14, 39, 52
19, 207239, Note_on_c, 14, 39, 0
19, 207480, Note_on_c, 14, 51, 52
19, 207599, Note_on_c, 14, 51, 0
19, 207720, Note_on_c, 14, 51, 52
19, 207839, Note_on_c, 14, 51, 0
19, 207960, Note_on_c, 14, 46, 52
19, 208079, Note_on_c, 14, 46, 0
19, 208440, Note_on_c, 14, 39, 60
19, 208469, Note_on_c, 14, 39, 0
19, 208480, Note_on_c, 14, 39, 60
19, 208509, Note_on_c, 14, 39, 0
19, 208520, Note_on_c, 14, 41, 61
19, 208549, Note_on_c, 14, 41, 0
19, 208560, Note_on_c, 14, 43, 62
19, 208589, Note_on_c, 14, 43, 0
19, 208600, Note_on_c, 14, 43, 62
19, 208629, Note_on_c, 14, 43, 0
19, 208640, Note_on_c, 14, 44, 63
19, 208669, Note_on_c, 14, 44, 0
19, 208680, Note_on_c, 14, 46, 64
19, 208709, Note_on_c, 14, 46, 0
19, 208720, Note_on_c, 14, 48, 64
19, 208749, Note_on_c, 14, 48, 0
19, 208760, Note_on_c, 14, 49, 65
19, 208789, Note_on_c, 14, 49, 0
19, 208800, Note_on_c, 14, 51, 66
19, 208829, Note_on_c, 14, 51, 0
19, 208840, Note_on_c, 14, 53, 66
19, 208869, Note_on_c, 14, 53, 0
19, 208880, Note_on_c, 14, 55, 67
19, 208909, Note_on_c, 14, 55, 0
19, 208920, Note_on_c, 14, 44, 52
19, 209009, Note_on_c, 14, 44, 0
19, 209100, Note_on_c, 14, 39, 52
19, 209144, Note_on_c, 14, 39, 0
19, 209160, Note_on_c, 14, 44, 52
19, 209249, Note_on_c, 14, 44, 0
19, 209340, Note_on_c, 14, 39, 52
19, 209384, Note_on_c, 14, 39, 0
19, 209400, Note_on_c, 14, 46, 52
19, 209489, Note_on_c, 14, 46, 0
19, 209580, Note_on_c, 14, 39, 52
19, 209624, Note_on_c, 14, 39, 0
19, 209640, Note_on_c, 14, 46, 52
19, 209729, Note_on_c, 14, 46, 0
19, 209820, Note_on_c, 14, 39, 52
19, 209864, Note_on_c, 14, 39, 0
19, 209880, Note_on_c, 14, 43, 52
19, 209969, Note_on_c, 14, 43, 0
19, 210060, Note_on_c, 14, 39, 52
19, 210104, Note_on_c, 14, 39, 0
19, 210120, Note_on_c, 14, 43, 52
19, 210209, Note_on_c, 14, 43, 0
19, 210300, Note_on_c, 14, 39, 52
19, 210344, Note_on_c, 14, 39, 0
19, 210360, Note_on_c, 14, 44, 52
19, 210449, Note_on_c, 14, 44, 0
19, 210540, Note_on_c, 14, 39, 52
19, 210584, Note_on_c, 14, 39, 0
19, 210600, Note_on_c, 14, 44, 52
19, 210644, Note_on_c, 14, 44, 0
19, 210660, Note_on_c, 14, 56, 52
19, 210704, Note_on_c, 14, 56, 0
19, 210720, Note_on_c, 14, 51, 52
19, 210764, Note_on_c, 14, 51, 0
19, 210780, Note_on_c, 14, 48, 52
19, 210824, Note_on_c, 14, 48, 0
19, 210840, Note_on_c, 14, 44, 52
19, 210929, Note_on_c, 14, 44, 0
19, 210960, Note_on_c, 14, 48, 52
19, 211049, Note_on_c, 14, 48, 0
19, 211080, Note_on_c, 14, 49, 53
19, 211169, Note_on_c, 14, 49, 0
19, 211200, Note_on_c, 14, 43, 54
19, 211289, Note_on_c, 14, 43, 0
19, 211320, Note_on_c, 14, 44, 55
19, 211409, Note_on_c, 14, 44, 0
19, 211440, Note_on_c, 14, 48, 56
19, 211529, Note_on_c, 14, 48, 0
19, 211560, Note_on_c, 14, 51, 57
19, 211649, Note_on_c, 14, 51, 0
19, 211680, Note_on_c, 14, 44, 58
19, 211769, Note_on_c, 14, 44, 0
19, 211800, Note_on_c, 14, 45, 59
19, 211889, Note_on_c, 14, 45, 0
19, 211920, Note_on_c, 14, 48, 60
19, 212009, Note_on_c, 14, 48, 0
19, 212040, Note_on_c, 14, 51, 61
19, 212129, Note_on_c, 14, 51, 0
19, 212160, Note_on_c, 14, 46, 62
19, 212249, Note_on_c, 14, 46, 0
19, 212280, Note_on_c, 14, 45, 63
19, 212369, Note_on_c, 14, 45, 0
19, 212400, Note_on_c, 14, 48, 64
19, 212489, Note_on_c, 14, 48, 0
19, 212520, Note_on_c, 14, 51, 65
19, 212609, Note_on_c, 14, 51, 0
19, 212640, Note_on_c, 14, 45, 66
19, 212729, Note_on_c, 14, 45, 0
19, 212760, Note_on_c, 14, 46, 67
19, 212849, Note_on_c, 14, 46, 0
19, 212880, Note_on_c, 14, 51, 68
19, 212969, Note_on_c, 14, 51, 0
19, 213000, Note_on_c, 14, 54, 69
19, 213089, Note_on_c, 14, 54, 0
19, 213120, Note_on_c, 14, 47, 70
19, 213209, Note_on_c, 14, 47, 0
19, 213240, Note_on_c, 14, 46, 71
19, 213329, Note_on_c, 14, 46, 0
19, 213360, Note_on_c, 14, 51, 72
19, 213449, Note_on_c, 14, 51, 0
19, 213480, Note_on_c, 14, 54, 73
19, 213569, Note_on_c, 14, 54, 0
19, 213600, Note_on_c, 14, 46, 74
19, 213689, Note_on_c, 14, 46, 0
19, 213720, Note_on_c, 14, 47, 76
19, 213809, Note_on_c, 14, 47, 0
19, 213840, Note_on_c, 14, 51, 76
19, 213929, Note_on_c, 14, 51, 0
19, 213960, Note_on_c, 14, 54, 76
19, 214049, Note_on_c, 14, 54, 0
19, 214080, Note_on_c, 14, 47, 76
19, 214169, Note_on_c, 14, 47, 0
19, 214200, Note_on_c, 14, 48, 76
19, 214289, Note_on_c, 14, 48, 0
19, 214320, Note_on_c, 14, 54, 76
19, 214409, Note_on_c, 14, 54, 0
19, 214440, Note_on_c, 14, 57, 76
19, 214529, Note_on_c, 14, 57, 0
19, 214560, Note_on_c, 14, 48, 76
19, 214649, Note_on_c, 14, 48, 0
19, 214680, Note_on_c, 14, 49, 76
19, 214769, Note_on_c, 14, 49, 0
19, 214800, Note_on_c, 14, 54, 77
19, 214889, Note_on_c, 14, 54, 0
19, 214920, Note_on_c, 14, 57, 78
19, 215009, Note_on_c, 14, 57, 0
19, 215040, Note_on_c, 14, 61, 79
19, 215129, Note_on_c, 14, 61, 0
19, 215160, Note_on_c, 14, 50, 80
19, 215249, Note_on_c, 14, 50, 0
19, 215280, Note_on_c, 14, 54, 81
19, 215369, Note_on_c, 14, 54, 0
19, 215400, Note_on_c, 14, 57, 82
19, 215489, Note_on_c, 14, 57, 0
19, 215520, Note_on_c, 14, 62, 83
19, 215609, Note_on_c, 14, 62, 0
19, 215640, Note_on_c, 14, 50, 84
19, 215729, Note_on_c, 14, 50, 0
19, 215760, Note_on_c, 14, 55, 84
19, 215849, Note_on_c, 14, 55, 0
19, 215880, Note_on_c, 14, 58, 84
19, 215969, Note_on_c, 14, 58, 0
19, 216000, Note_on_c, 14, 62, 84
19, 216089, Note_on_c, 14, 62, 0
19, 216120, Note_on_c, 14, 50, 84
19, 216231, Note_on_c, 14, 50, 0
19, 216240, Note_on_c, 14, 62, 84
19, 216351, Note_on_c, 14, 62, 0
19, 216360, Note_on_c, 14, 50, 84
19, 216471, Note_on_c, 14, 50, 0
19, 216480, Note_on_c, 14, 62, 84
19, 216591, Note_on_c, 14, 62, 0
19, 216600, Note_on_c, 14, 43, 76
19, 216635, Note_on_c, 14, 43, 0
19, 216640, Note_on_c, 14, 43, 52
19, 216675, Note_on_c, 14, 43, 0
19, 216680, Note_on_c, 14, 43, 52
19, 216715, Note_on_c, 14, 43, 0
19, 216720, Note_on_c, 14, 43, 52
19, 216755, Note_on_c, 14, 43, 0
19, 216760, Note_on_c, 14, 43, 52
19, 216795, Note_on_c, 14, 43, 0
19, 216800, Note_on_c, 14, 43, 52
19, 216835, Note_on_c, 14, 43, 0
19, 216840, Note_on_c, 14, 43, 52
19, 216875, Note_on_c, 14, 43, 0
19, 216880, Note_on_c, 14, 43, 52
19, 216915, Note_on_c, 14, 43, 0
19, 216920, Note_on_c, 14, 43, 52
19, 216955, Note_on_c, 14, 43, 0
19, 216960, Note_on_c, 14, 43, 52
19, 216995, Note_on_c, 14, 43, 0
19, 217000, Note_on_c, 14, 43, 52
19, 217035, Note_on_c, 14, 43, 0
19, 217040, Note_on_c, 14, 43, 52
19, 217075, Note_on_c, 14, 43, 0
19, 217080, Note_on_c, 14, 43, 52
19, 217115, Note_on_c, 14, 43, 0
19, 217120, Note_on_c, 14, 43, 52
19, 217155, Note_on_c, 14, 43, 0
19, 217160, Note_on_c, 14, 43, 52
19, 217195, Note_on_c, 14, 43, 0
19, 217200, Note_on_c, 14, 43, 52
19, 217235, Note_on_c, 14, 43, 0
19, 217240, Note_on_c, 14, 43, 52
19, 217275, Note_on_c, 14, 43, 0
19, 217280, Note_on_c, 14, 43, 52
19, 217315, Note_on_c, 14, 43, 0
19, 217320, Note_on_c, 14, 43, 52
19, 217355, Note_on_c, 14, 43, 0
19, 217360, Note_on_c, 14, 43, 52
19, 217395, Note_on_c, 14, 43, 0
19, 217400, Note_on_c, 14, 43, 52
19, 217435, Note_on_c, 14, 43, 0
19, 217440, Note_on_c, 14, 43, 52
19, 217475, Note_on_c, 14, 43, 0
19, 217480, Note_on_c, 14, 43, 52
19, 217515, Note_on_c, 14, 43, 0
19, 217520, Note_on_c, 14, 43, 52
19, 217555, Note_on_c, 14, 43, 0
19, 217560, Note_on_c, 14, 43, 52
19, 217595, Note_on_c, 14, 43, 0
19, 217600, Note_on_c, 14, 43, 52
19, 217635, Note_on_c, 14, 43, 0
19, 217640, Note_on_c, 14, 43, 52
19, 217675, Note_on_c, 14, 43, 0
19, 217680, Note_on_c, 14, 43, 52
19, 217715, Note_on_c, 14, 43, 0
19, 217720, Note_on_c, 14, 43, 52
19, 217755, Note_on_c, 14, 43, 0
19, 217760, Note_on_c, 14, 43, 52
19, 217795, Note_on_c, 14, 43, 0
19, 217800, Note_on_c, 14, 43, 52
19, 217835, Note_on_c, 14, 43, 0
19, 217840, Note_on_c, 14, 43, 52
19, 217875, Note_on_c, 14, 43, 0
19, 217880, Note_on_c, 14, 43, 52
19, 217915, Note_on_c, 14, 43, 0
19, 217920, Note_on_c, 14, 43, 52
19, 217955, Note_on_c, 14, 43, 0
19, 217960, Note_on_c, 14, 43, 52
19, 217995, Note_on_c, 14, 43, 0
19, 218000, Note_on_c, 14, 43, 52
19, 218035, Note_on_c, 14, 43, 0
19, 218040, Note_on_c, 14, 43, 52
19, 218075, Note_on_c, 14, 43, 0
19, 218080, Note_on_c, 14, 43, 53
19, 218115, Note_on_c, 14, 43, 0
19, 218120, Note_on_c, 14, 43, 54
19, 218155, Note_on_c, 14, 43, 0
19, 218160, Note_on_c, 14, 43, 56
19, 218195, Note_on_c, 14, 43, 0
19, 218200, Note_on_c, 14, 43, 57
19, 218235, Note_on_c, 14, 43, 0
19, 218240, Note_on_c, 14, 43, 58
19, 218275, Note_on_c, 14, 43, 0
19, 218280, Note_on_c, 14, 43, 60
19, 218315, Note_on_c, 14, 43, 0
19, 218320, Note_on_c, 14, 43, 61
19, 218355, Note_on_c, 14, 43, 0
19, 218360, Note_on_c, 14, 43, 62
19, 218395, Note_on_c, 14, 43, 0
19, 218400, Note_on_c, 14, 43, 64
19, 218435, Note_on_c, 14, 43, 0
19, 218440, Note_on_c, 14, 43, 65
19, 218475, Note_on_c, 14, 43, 0
19, 218480, Note_on_c, 14, 43, 66
19, 218515, Note_on_c, 14, 43, 0
19, 218520, Note_on_c, 14, 43, 68
19, 218555, Note_on_c, 14, 43, 0
19, 218560, Note_on_c, 14, 43, 67
19, 218595, Note_on_c, 14, 43, 0
19, 218600, Note_on_c, 14, 43, 66
19, 218635, Note_on_c, 14, 43, 0
19, 218640, Note_on_c, 14, 43, 64
19, 218675, Note_on_c, 14, 43, 0
19, 218680, Note_on_c, 14, 43, 63
19, 218715, Note_on_c, 14, 43, 0
19, 218720, Note_on_c, 14, 43, 62
19, 218755, Note_on_c, 14, 43, 0
19, 218760, Note_on_c, 14, 43, 60
19, 218795, Note_on_c, 14, 43, 0
19, 218800, Note_on_c, 14, 43, 59
19, 218835, Note_on_c, 14, 43, 0
19, 218840, Note_on_c, 14, 43, 58
19, 218875, Note_on_c, 14, 43, 0
19, 218880, Note_on_c, 14, 43, 56
19, 218915, Note_on_c, 14, 43, 0
19, 218920, Note_on_c, 14, 43, 55
19, 218955, Note_on_c, 14, 43, 0
19, 218960, Note_on_c, 14, 43, 54
19, 218995, Note_on_c, 14, 43, 0
19, 219000, Note_on_c, 14, 43, 52
19, 219035, Note_on_c, 14, 43, 0
19, 219040, Note_on_c, 14, 43, 52
19, 219075, Note_on_c, 14, 43, 0
19, 219080, Note_on_c, 14, 43, 52
19, 219115, Note_on_c, 14, 43, 0
19, 219120, Note_on_c, 14, 43, 52
19, 219155, Note_on_c, 14, 43, 0
19, 219160, Note_on_c, 14, 43, 52
19, 219195, Note_on_c, 14, 43, 0
19, 219200, Note_on_c, 14, 43, 52
19, 219235, Note_on_c, 14, 43, 0
19, 219240, Note_on_c, 14, 43, 52
19, 219275, Note_on_c, 14, 43, 0
19, 219280, Note_on_c, 14, 43, 52
19, 219315, Note_on_c, 14, 43, 0
19, 219320, Note_on_c, 14, 43, 52
19, 219355, Note_on_c, 14, 43, 0
19, 219360, Note_on_c, 14, 43, 52
19, 219395, Note_on_c, 14, 43, 0
19, 219400, Note_on_c, 14, 43, 52
19, 219435, Note_on_c, 14, 43, 0
19, 219440, Note_on_c, 14, 43, 52
19, 219475, Note_on_c, 14, 43, 0
19, 219480, Note_on_c, 14, 43, 52
19, 219515, Note_on_c, 14, 43, 0
19, 219520, Note_on_c, 14, 43, 52
19, 219555, Note_on_c, 14, 43, 0
19, 219560, Note_on_c, 14, 43, 52
19, 219595, Note_on_c, 14, 43, 0
19, 219600, Note_on_c, 14, 43, 52
19, 219635, Note_on_c, 14, 43, 0
19, 219640, Note_on_c, 14, 43, 52
19, 219675, Note_on_c, 14, 43, 0
19, 219680, Note_on_c, 14, 43, 52
19, 219715, Note_on_c, 14, 43, 0
19, 219720, Note_on_c, 14, 43, 52
19, 219755, Note_on_c, 14, 43, 0
19, 219760, Note_on_c, 14, 43, 52
19, 219795, Note_on_c, 14, 43, 0
19, 219800, Note_on_c, 14, 43, 52
19, 219835, Note_on_c, 14, 43, 0
19, 219840, Note_on_c, 14, 43, 52
19, 219875, Note_on_c, 14, 43, 0
19, 219880, Note_on_c, 14, 43, 52
19, 219915, Note_on_c, 14, 43, 0
19, 219920, Note_on_c, 14, 43, 52
19, 219955, Note_on_c, 14, 43, 0
19, 219960, Note_on_c, 14, 43, 52
19, 219995, Note_on_c, 14, 43, 0
19, 220000, Note_on_c, 14, 43, 53
19, 220035, Note_on_c, 14, 43, 0
19, 220040, Note_on_c, 14, 43, 54
19, 220075, Note_on_c, 14, 43, 0
19, 220080, Note_on_c, 14, 43, 56
19, 220115, Note_on_c, 14, 43, 0
19, 220120, Note_on_c, 14, 43, 57
19, 220155, Note_on_c, 14, 43, 0
19, 220160, Note_on_c, 14, 43, 58
19, 220195, Note_on_c, 14, 43, 0
19, 220200, Note_on_c, 14, 43, 60
19, 220235, Note_on_c, 14, 43, 0
19, 220240, Note_on_c, 14, 43, 61
19, 220275, Note_on_c, 14, 43, 0
19, 220280, Note_on_c, 14, 43, 62
19, 220315, Note_on_c, 14, 43, 0
19, 220320, Note_on_c, 14, 43, 64
19, 220355, Note_on_c, 14, 43, 0
19, 220360, Note_on_c, 14, 43, 65
19, 220395, Note_on_c, 14, 43, 0
19, 220400, Note_on_c, 14, 43, 66
19, 220435, Note_on_c, 14, 43, 0
19, 220440, Note_on_c, 14, 43, 68
19, 220475, Note_on_c, 14, 43, 0
19, 220480, Note_on_c, 14, 43, 67
19, 220515, Note_on_c, 14, 43, 0
19, 220520, Note_on_c, 14, 43, 66
19, 220555, Note_on_c, 14, 43, 0
19, 220560, Note_on_c, 14, 43, 64
19, 220595, Note_on_c, 14, 43, 0
19, 220600, Note_on_c, 14, 43, 63
19, 220635, Note_on_c, 14, 43, 0
19, 220640, Note_on_c, 14, 43, 62
19, 220675, Note_on_c, 14, 43, 0
19, 220680, Note_on_c, 14, 43, 60
19, 220715, Note_on_c, 14, 43, 0
19, 220720, Note_on_c, 14, 43, 59
19, 220755, Note_on_c, 14, 43, 0
19, 220760, Note_on_c, 14, 43, 58
19, 220795, Note_on_c, 14, 43, 0
19, 220800, Note_on_c, 14, 43, 56
19, 220835, Note_on_c, 14, 43, 0
19, 220840, Note_on_c, 14, 43, 55
19, 220875, Note_on_c, 14, 43, 0
19, 220880, Note_on_c, 14, 43, 54
19, 220915, Note_on_c, 14, 43, 0
19, 220920, Note_on_c, 14, 43, 52
19, 220955, Note_on_c, 14, 43, 0
19, 220960, Note_on_c, 14, 43, 52
19, 220995, Note_on_c, 14, 43, 0
19, 221000, Note_on_c, 14, 43, 51
19, 221035, Note_on_c, 14, 43, 0
19, 221040, Note_on_c, 14, 43, 50
19, 221075, Note_on_c, 14, 43, 0
19, 221080, Note_on_c, 14, 43, 50
19, 221115, Note_on_c, 14, 43, 0
19, 221120, Note_on_c, 14, 43, 49
19, 221155, Note_on_c, 14, 43, 0
19, 221160, Note_on_c, 14, 43, 48
19, 221195, Note_on_c, 14, 43, 0
19, 221200, Note_on_c, 14, 43, 48
19, 221235, Note_on_c, 14, 43, 0
19, 221240, Note_on_c, 14, 43, 47
19, 221275, Note_on_c, 14, 43, 0
19, 221280, Note_on_c, 14, 43, 46
19, 221315, Note_on_c, 14, 43, 0
19, 221320, Note_on_c, 14, 43, 46
19, 221355, Note_on_c, 14, 43, 0
19, 221360, Note_on_c, 14, 43, 45
19, 221395, Note_on_c, 14, 43, 0
19, 221400, Note_on_c, 14, 43, 44
19, 221435, Note_on_c, 14, 43, 0
19, 221440, Note_on_c, 14, 43, 44
19, 221475, Note_on_c, 14, 43, 0
19, 221480, Note_on_c, 14, 43, 44
19, 221515, Note_on_c, 14, 43, 0
19, 221520, Note_on_c, 14, 43, 44
19, 221555, Note_on_c, 14, 43, 0
19, 221560, Note_on_c, 14, 43, 44
19, 221595, Note_on_c, 14, 43, 0
19, 221600, Note_on_c, 14, 43, 44
19, 221635, Note_on_c, 14, 43, 0
19, 221640, Note_on_c, 14, 43, 44
19, 221675, Note_on_c, 14, 43, 0
19, 221680, Note_on_c, 14, 43, 44
19, 221715, Note_on_c, 14, 43, 0
19, 221720, Note_on_c, 14, 43, 44
19, 221755, Note_on_c, 14, 43, 0
19, 221760, Note_on_c, 14, 43, 44
19, 221795, Note_on_c, 14, 43, 0
19, 221800, Note_on_c, 14, 43, 44
19, 221835, Note_on_c, 14, 43, 0
19, 221840, Note_on_c, 14, 43, 44
19, 221875, Note_on_c, 14, 43, 0
19, 221880, Note_on_c, 14, 43, 84
19, 221935, Note_on_c, 14, 43, 0
19, 221940, Note_on_c, 14, 55, 84
19, 221995, Note_on_c, 14, 55, 0
19, 222000, Note_on_c, 14, 55, 84
19, 222055, Note_on_c, 14, 55, 0
19, 222060, Note_on_c, 14, 55, 84
19, 222115, Note_on_c, 14, 55, 0
19, 222120, Note_on_c, 14, 55, 84
19, 222175, Note_on_c, 14, 55, 0
19, 222180, Note_on_c, 14, 55, 84
19, 222235, Note_on_c, 14, 55, 0
19, 222240, Note_on_c, 14, 55, 84
19, 222295, Note_on_c, 14, 55, 0
19, 222300, Note_on_c, 14, 55, 84
19, 222355, Note_on_c, 14, 55, 0
19, 222360, Note_on_c, 14, 55, 84
19, 222404, Note_on_c, 14, 55, 0
19, 222420, Note_on_c, 14, 53, 84
19, 222464, Note_on_c, 14, 53, 0
19, 222480, Note_on_c, 14, 51, 84
19, 222524, Note_on_c, 14, 51, 0
19, 222540, Note_on_c, 14, 50, 84
19, 222584, Note_on_c, 14, 50, 0
19, 222600, Note_on_c, 14, 51, 84
19, 222644, Note_on_c, 14, 51, 0
19, 222660, Note_on_c, 14, 50, 84
19, 222704, Note_on_c, 14, 50, 0
19, 222720, Note_on_c, 14, 48, 84
19, 222764, Note_on_c, 14, 48, 0
19, 222780, Note_on_c, 14, 46, 84
19, 222824, Note_on_c, 14, 46, 0
19, 222840, Note_on_c, 14, 48, 84
19, 222884, Note_on_c, 14, 48, 0
19, 222900, Note_on_c, 14, 58, 84
19, 222944, Note_on_c, 14, 58, 0
19, 222960, Note_on_c, 14, 57, 84
19, 223004, Note_on_c, 14, 57, 0
19, 223020, Note_on_c, 14, 55, 84
19, 223064, Note_on_c, 14, 55, 0
19, 223080, Note_on_c, 14, 56, 84
19, 223124, Note_on_c, 14, 56, 0
19, 223140, Note_on_c, 14, 55, 84
19, 223184, Note_on_c, 14, 55, 0
19, 223200, Note_on_c, 14, 53, 84
19, 223244, Note_on_c, 14, 53, 0
19, 223260, Note_on_c, 14, 51, 84
19, 223304, Note_on_c, 14, 51, 0
19, 223320, Note_on_c, 14, 50, 84
19, 223364, Note_on_c, 14, 50, 0
19, 223380, Note_on_c, 14, 51, 84
19, 223424, Note_on_c, 14, 51, 0
19, 223440, Note_on_c, 14, 53, 84
19, 223484, Note_on_c, 14, 53, 0
19, 223500, Note_on_c, 14, 51, 84
19, 223544, Note_on_c, 14, 51, 0
19, 223560, Note_on_c, 14, 50, 84
19, 223604, Note_on_c, 14, 50, 0
19, 223620, Note_on_c, 14, 46, 84
19, 223664, Note_on_c, 14, 46, 0
19, 223680, Note_on_c, 14, 48, 84
19, 223724, Note_on_c, 14, 48, 0
19, 223740, Note_on_c, 14, 50, 84
19, 223784, Note_on_c, 14, 50, 0
19, 223800, Note_on_c, 14, 51, 84
19, 223919, Note_on_c, 14, 51, 0
19, 224280, Note_on_c, 14, 46, 84
19, 224399, Note_on_c, 14, 46, 0
19, 224760, Note_on_c, 14, 51, 84
19, 224879, Note_on_c, 14, 51, 0
19, 225240, Note_on_c, 14, 46, 84
19, 225359, Note_on_c, 14, 46, 0
19, 225720, Note_on_c, 14, 51, 84
19, 225839, Note_on_c, 14, 51, 0
19, 226020, Note_on_c, 14, 51, 84
19, 226075, Note_on_c, 14, 51, 0
19, 226080, Note_on_c, 14, 51, 84
19, 226135, Note_on_c, 14, 51, 0
19, 226140, Note_on_c, 14, 51, 84
19, 226195, Note_on_c, 14, 51, 0
19, 226200, Note_on_c, 14, 46, 84
19, 226319, Note_on_c, 14, 46, 0
19, 226500, Note_on_c, 14, 46, 84
19, 226555, Note_on_c, 14, 46, 0
19, 226560, Note_on_c, 14, 46, 84
19, 226615, Note_on_c, 14, 46, 0
19, 226620, Note_on_c, 14, 46, 84
19, 226675, Note_on_c, 14, 46, 0
19, 226680, Note_on_c, 14, 51, 84
19, 226799, Note_on_c, 14, 51, 0
19, 226860, Note_on_c, 14, 51, 84
19, 226915, Note_on_c, 14, 51, 0
19, 226920, Note_on_c, 14, 55, 92
19, 227099, Note_on_c, 14, 55, 0
19, 227100, Note_on_c, 14, 51, 84
19, 227155, Note_on_c, 14, 51, 0
19, 227160, Note_on_c, 14, 50, 84
19, 227279, Note_on_c, 14, 50, 0
19, 227340, Note_on_c, 14, 53, 84
19, 227395, Note_on_c, 14, 53, 0
19, 227400, Note_on_c, 14, 56, 92
19, 227579, Note_on_c, 14, 56, 0
19, 227580, Note_on_c, 14, 53, 84
19, 227635, Note_on_c, 14, 53, 0
19, 227640, Note_on_c, 14, 51, 84
19, 227695, Note_on_c, 14, 51, 0
19, 227700, Note_on_c, 14, 51, 84
19, 227755, Note_on_c, 14, 51, 0
19, 227760, Note_on_c, 14, 51, 84
19, 227815, Note_on_c, 14, 51, 0
19, 227820, Note_on_c, 14, 51, 84
19, 227875, Note_on_c, 14, 51, 0
19, 227880, Note_on_c, 14, 55, 92
19, 227939, Note_on_c, 14, 55, 0
19, 227940, Note_on_c, 14, 51, 84
19, 227995, Note_on_c, 14, 51, 0
19, 228000, Note_on_c, 14, 51, 84
19, 228044, Note_on_c, 14, 51, 0
19, 228060, Note_on_c, 14, 51, 84
19, 228104, Note_on_c, 14, 51, 0
19, 228120, Note_on_c, 14, 50, 84
19, 228164, Note_on_c, 14, 50, 0
19, 228180, Note_on_c, 14, 53, 84
19, 228224, Note_on_c, 14, 53, 0
19, 228240, Note_on_c, 14, 53, 84
19, 228284, Note_on_c, 14, 53, 0
19, 228300, Note_on_c, 14, 53, 84
19, 228344, Note_on_c, 14, 53, 0
19, 228360, Note_on_c, 14, 56, 92
19, 228419, Note_on_c, 14, 56, 0
19, 228420, Note_on_c, 14, 53, 84
19, 228475, Note_on_c, 14, 53, 0
19, 228480, Note_on_c, 14, 53, 84
19, 228524, Note_on_c, 14, 53, 0
19, 228540, Note_on_c, 14, 53, 84
19, 228584, Note_on_c, 14, 53, 0
19, 228600, Note_on_c, 14, 51, 92
19, 228644, Note_on_c, 14, 51, 0
19, 228660, Note_on_c, 14, 51, 84
19, 228704, Note_on_c, 14, 51, 0
19, 228720, Note_on_c, 14, 55, 84
19, 228764, Note_on_c, 14, 55, 0
19, 228780, Note_on_c, 14, 51, 84
19, 228824, Note_on_c, 14, 51, 0
19, 228840, Note_on_c, 14, 50, 92
19, 228884, Note_on_c, 14, 50, 0
19, 228900, Note_on_c, 14, 53, 84
19, 228944, Note_on_c, 14, 53, 0
19, 228960, Note_on_c, 14, 56, 84
19, 229004, Note_on_c, 14, 56, 0
19, 229020, Note_on_c, 14, 53, 84
19, 229064, Note_on_c, 14, 53, 0
19, 229080, Note_on_c, 14, 51, 92
19, 229124, Note_on_c, 14, 51, 0
19, 229140, Note_on_c, 14, 51, 84
19, 229184, Note_on_c, 14, 51, 0
19, 229200, Note_on_c, 14, 55, 84
19, 229244, Note_on_c, 14, 55, 0
19, 229260, Note_on_c, 14, 51, 84
19, 229304, Note_on_c, 14, 51, 0
19, 229320, Note_on_c, 14, 50, 92
19, 229364, Note_on_c, 14, 50, 0
19, 229380, Note_on_c, 14, 53, 84
19, 229424, Note_on_c, 14, 53, 0
19, 229440, Note_on_c, 14, 56, 84
19, 229484, Note_on_c, 14, 56, 0
19, 229500, Note_on_c, 14, 53, 84
19, 229544, Note_on_c, 14, 53, 0
19, 229560, Note_on_c, 14, 51, 84
19, 229615, Note_on_c, 14, 51, 0
19, 229620, Note_on_c, 14, 51, 84
19, 229675, Note_on_c, 14, 51, 0
19, 229680, Note_on_c, 14, 53, 84
19, 229735, Note_on_c, 14, 53, 0
19, 229740, Note_on_c, 14, 55, 84
19, 229795, Note_on_c, 14, 55, 0
19, 229800, Note_on_c, 14, 56, 92
19, 229855, Note_on_c, 14, 56, 0
19, 229860, Note_on_c, 14, 55, 84
19, 229915, Note_on_c, 14, 55, 0
19, 229920, Note_on_c, 14, 56, 84
19, 229975, Note_on_c, 14, 56, 0
19, 229980, Note_on_c, 14, 57, 84
19, 230035, Note_on_c, 14, 57, 0
19, 230040, Note_on_c, 14, 58, 92
19, 230095, Note_on_c, 14, 58, 0
19, 230100, Note_on_c, 14, 57, 84
19, 230155, Note_on_c, 14, 57, 0
19, 230160, Note_on_c, 14, 58, 84
19, 230215, Note_on_c, 14, 58, 0
19, 230220, Note_on_c, 14, 59, 84
19, 230275, Note_on_c, 14, 59, 0
19, 230280, Note_on_c, 14, 60, 92
19, 230335, Note_on_c, 14, 60, 0
19, 230340, Note_on_c, 14, 59, 84
19, 230395, Note_on_c, 14, 59, 0
19, 230400, Note_on_c, 14, 60, 84
19, 230455, Note_on_c, 14, 60, 0
19, 230460, Note_on_c, 14, 62, 84
19, 230515, Note_on_c, 14, 62, 0
19, 230520, Note_on_c, 14, 63, 84
19, 230575, Note_on_c, 14, 63, 0
19, 230580, Note_on_c, 14, 60, 84
19, 230635, Note_on_c, 14, 60, 0
19, 230640, Note_on_c, 14, 59, 84
19, 230695, Note_on_c, 14, 59, 0
19, 230700, Note_on_c, 14, 60, 84
19, 230755, Note_on_c, 14, 60, 0
19, 230760, Note_on_c, 14, 55, 84
19, 230815, Note_on_c, 14, 55, 0
19, 230820, Note_on_c, 14, 56, 84
19, 230875, Note_on_c, 14, 56, 0
19, 230880, Note_on_c, 14, 60, 84
19, 230935, Note_on_c, 14, 60, 0
19, 230940, Note_on_c, 14, 56, 84
19, 230995, Note_on_c, 14, 56, 0
19, 231000, Note_on_c, 14, 52, 84
19, 231055, Note_on_c, 14, 52, 0
19, 231060, Note_on_c, 14, 53, 84
19, 231115, Note_on_c, 14, 53, 0
19, 231120, Note_on_c, 14, 56, 84
19, 231175, Note_on_c, 14, 56, 0
19, 231180, Note_on_c, 14, 53, 84
19, 231235, Note_on_c, 14, 53, 0
19, 231240, Note_on_c, 14, 57, 84
19, 231295, Note_on_c, 14, 57, 0
19, 231300, Note_on_c, 14, 58, 84
19, 231355, Note_on_c, 14, 58, 0
19, 231360, Note_on_c, 14, 62, 84
19, 231415, Note_on_c, 14, 62, 0
19, 231420, Note_on_c, 14, 58, 84
19, 231475, Note_on_c, 14, 58, 0
19, 231480, Note_on_c, 14, 59, 92
19, 231535, Note_on_c, 14, 59, 0
19, 231540, Note_on_c, 14, 60, 84
19, 231595, Note_on_c, 14, 60, 0
19, 231600, Note_on_c, 14, 63, 84
19, 231655, Note_on_c, 14, 63, 0
19, 231660, Note_on_c, 14, 60, 84
19, 231715, Note_on_c, 14, 60, 0
19, 231720, Note_on_c, 14, 55, 84
19, 231775, Note_on_c, 14, 55, 0
19, 231780, Note_on_c, 14, 56, 84
19, 231835, Note_on_c, 14, 56, 0
19, 231840, Note_on_c, 14, 60, 84
19, 231895, Note_on_c, 14, 60, 0
19, 231900, Note_on_c, 14, 56, 84
19, 231955, Note_on_c, 14, 56, 0
19, 231960, Note_on_c, 14, 52, 84
19, 232015, Note_on_c, 14, 52, 0
19, 232020, Note_on_c, 14, 53, 84
19, 232075, Note_on_c, 14, 53, 0
19, 232080, Note_on_c, 14, 56, 84
19, 232135, Note_on_c, 14, 56, 0
19, 232140, Note_on_c, 14, 53, 84
19, 232195, Note_on_c, 14, 53, 0
19, 232200, Note_on_c, 14, 45, 84
19, 232255, Note_on_c, 14, 45, 0
19, 232260, Note_on_c, 14, 46, 84
19, 232315, Note_on_c, 14, 46, 0
19, 232320, Note_on_c, 14, 50, 84
19, 232375, Note_on_c, 14, 50, 0
19, 232380, Note_on_c, 14, 46, 84
19, 232435, Note_on_c, 14, 46, 0
19, 232440, Note_on_c, 14, 51, 84
19, 232484, Note_on_c, 14, 51, 0
19, 232500, Note_on_c, 14, 46, 84
19, 232544, Note_on_c, 14, 46, 0
19, 232560, Note_on_c, 14, 51, 84
19, 232604, Note_on_c, 14, 51, 0
19, 232620, Note_on_c, 14, 46, 84
19, 232664, Note_on_c, 14, 46, 0
19, 232680, Note_on_c, 14, 51, 84
19, 232724, Note_on_c, 14, 51, 0
19, 232740, Note_on_c, 14, 46, 84
19, 232784, Note_on_c, 14, 46, 0
19, 232800, Note_on_c, 14, 55, 92
19, 232844, Note_on_c, 14, 55, 0
19, 232860, Note_on_c, 14, 51, 84
19, 232904, Note_on_c, 14, 51, 0
19, 232920, Note_on_c, 14, 55, 84
19, 232964, Note_on_c, 14, 55, 0
19, 232980, Note_on_c, 14, 51, 84
19, 233024, Note_on_c, 14, 51, 0
19, 233040, Note_on_c, 14, 55, 84
19, 233084, Note_on_c, 14, 55, 0
19, 233100, Note_on_c, 14, 51, 84
19, 233144, Note_on_c, 14, 51, 0
19, 233160, Note_on_c, 14, 55, 84
19, 233204, Note_on_c, 14, 55, 0
19, 233220, Note_on_c, 14, 51, 84
19, 233264, Note_on_c, 14, 51, 0
19, 233280, Note_on_c, 14, 46, 92
19, 233324, Note_on_c, 14, 46, 0
19, 233340, Note_on_c, 14, 43, 84
19, 233384, Note_on_c, 14, 43, 0
19, 233400, Note_on_c, 14, 46, 84
19, 233451, Note_on_c, 14, 46, 0
19, 233460, Note_on_c, 14, 43, 84
19, 233511, Note_on_c, 14, 43, 0
19, 233520, Note_on_c, 14, 51, 92
19, 233571, Note_on_c, 14, 51, 0
19, 233580, Note_on_c, 14, 46, 84
19, 233631, Note_on_c, 14, 46, 0
19, 233640, Note_on_c, 14, 51, 84
19, 233691, Note_on_c, 14, 51, 0
19, 233700, Note_on_c, 14, 46, 84
19, 233751, Note_on_c, 14, 46, 0
19, 233760, Note_on_c, 14, 55, 92
19, 233811, Note_on_c, 14, 55, 0
19, 233820, Note_on_c, 14, 51, 84
19, 233871, Note_on_c, 14, 51, 0
19, 233880, Note_on_c, 14, 55, 84
19, 233931, Note_on_c, 14, 55, 0
19, 233940, Note_on_c, 14, 51, 84
19, 233991, Note_on_c, 14, 51, 0
19, 234000, Note_on_c, 14, 58, 92
19, 234051, Note_on_c, 14, 58, 0
19, 234060, Note_on_c, 14, 55, 84
19, 234111, Note_on_c, 14, 55, 0
19, 234120, Note_on_c, 14, 58, 84
19, 234171, Note_on_c, 14, 58, 0
19, 234180, Note_on_c, 14, 55, 84
19, 234231, Note_on_c, 14, 55, 0
19, 234240, Note_on_c, 14, 63, 92
19, 234291, Note_on_c, 14, 63, 0
19, 234300, Note_on_c, 14, 58, 84
19, 234351, Note_on_c, 14, 58, 0
19, 234360, Note_on_c, 14, 63, 84
19, 234404, Note_on_c, 14, 63, 0
19, 234420, Note_on_c, 14, 63, 84
19, 234464, Note_on_c, 14, 63, 0
19, 234480, Note_on_c, 14, 62, 84
19, 234524, Note_on_c, 14, 62, 0
19, 234540, Note_on_c, 14, 60, 84
19, 234584, Note_on_c, 14, 60, 0
19, 234600, Note_on_c, 14, 58, 85
19, 234644, Note_on_c, 14, 58, 0
19, 234660, Note_on_c, 14, 56, 85
19, 234704, Note_on_c, 14, 56, 0
19, 234720, Note_on_c, 14, 55, 85
19, 234764, Note_on_c, 14, 55, 0
19, 234780, Note_on_c, 14, 53, 85
19, 234824, Note_on_c, 14, 53, 0
19, 234840, Note_on_c, 14, 51, 86
19, 234884, Note_on_c, 14, 51, 0
19, 234900, Note_on_c, 14, 51, 86
19, 234944, Note_on_c, 14, 51, 0
19, 234960, Note_on_c, 14, 50, 86
19, 235004, Note_on_c, 14, 50, 0
19, 235020, Note_on_c, 14, 48, 86
19, 235064, Note_on_c, 14, 48, 0
19, 235080, Note_on_c, 14, 46, 87
19, 235124, Note_on_c, 14, 46, 0
19, 235140, Note_on_c, 14, 44, 87
19, 235184, Note_on_c, 14, 44, 0
19, 235200, Note_on_c, 14, 43, 87
19, 235244, Note_on_c, 14, 43, 0
19, 235260, Note_on_c, 14, 41, 87
19, 235304, Note_on_c, 14, 41, 0
19, 235320, Note_on_c, 14, 39, 88
19, 235364, Note_on_c, 14, 39, 0
19, 235380, Note_on_c, 14, 39, 88
19, 235424, Note_on_c, 14, 39, 0
19, 235440, Note_on_c, 14, 41, 88
19, 235484, Note_on_c, 14, 41, 0
19, 235500, Note_on_c, 14, 43, 88
19, 235544, Note_on_c, 14, 43, 0
19, 235560, Note_on_c, 14, 44, 89
19, 235604, Note_on_c, 14, 44, 0
19, 235620, Note_on_c, 14, 46, 89
19, 235664, Note_on_c, 14, 46, 0
19, 235680, Note_on_c, 14, 48, 89
19, 235724, Note_on_c, 14, 48, 0
19, 235740, Note_on_c, 14, 50, 89
19, 235784, Note_on_c, 14, 50, 0
19, 235800, Note_on_c, 14, 51, 90
19, 235844, Note_on_c, 14, 51, 0
19, 235860, Note_on_c, 14, 51, 90
19, 235904, Note_on_c, 14, 51, 0
19, 235920, Note_on_c, 14, 53, 90
19, 235964, Note_on_c, 14, 53, 0
19, 235980, Note_on_c, 14, 55, 90
19, 236024, Note_on_c, 14, 55, 0
19, 236040, Note_on_c, 14, 56, 91
19, 236084, Note_on_c, 14, 56, 0
19, 236100, Note_on_c, 14, 58, 91
19, 236144, Note_on_c, 14, 58, 0
19, 236160, Note_on_c, 14, 60, 91
19, 236204, Note_on_c, 14, 60, 0
19, 236220, Note_on_c, 14, 62, 91
19, 236264, Note_on_c, 14, 62, 0
19, 236280, Note_on_c, 14, 63, 84
19, 236519, Note_on_c, 14, 63, 0
19, 236760, Note_on_c, 14, 51, 84
19, 236999, Note_on_c, 14, 51, 0
19, 237240, Note_on_c, 14, 51, 84
19, 237419, Note_on_c, 14, 51, 0
19, 237480, Note_on_c, 14, 55, 84
19, 237659, Note_on_c, 14, 55, 0
19, 237720, Note_on_c, 14, 58, 84
19, 237899, Note_on_c, 14, 58, 0
19, 237960, Note_on_c, 14, 55, 84
19, 238139, Note_on_c, 14, 55, 0
19, 238200, Note_on_c, 14, 51, 84
19, 238439, Note_on_c, 14, 51, 0
19, 238680, Note_on_c, 14, 51, 84
19, 238919, Note_on_c, 14, 51, 0
19, 239160, Note_on_c, 14, 51, 84
19, 239391, Note_on_c, 14, 51, 0
19, 239400, Note_on_c, 14, 63, 84
19, 239631, Note_on_c, 14, 63, 0
19, 239640, Note_on_c, 14, 58, 84
19, 239871, Note_on_c, 14, 58, 0
19, 239880, Note_on_c, 14, 55, 84
19, 240111, Note_on_c, 14, 55, 0
19, 240120, Note_on_c, 14, 51, 84
19, 240239, Note_on_c, 14, 51, 0
19, 240660, Note_on_c, 14, 51, 84
19, 240715, Note_on_c, 14, 51, 0
19, 240720, Note_on_c, 14, 53, 84
19, 240775, Note_on_c, 14, 53, 0
19, 240780, Note_on_c, 14, 55, 84
19, 240835, Note_on_c, 14, 55, 0
19, 240840, Note_on_c, 14, 56, 84
19, 240895, Note_on_c, 14, 56, 0
19, 240900, Note_on_c, 14, 58, 84
19, 240955, Note_on_c, 14, 58, 0
19, 240960, Note_on_c, 14, 60, 84
19, 241015, Note_on_c, 14, 60, 0
19, 241020, Note_on_c, 14, 62, 84
19, 241075, Note_on_c, 14, 62, 0
19, 241080, Note_on_c, 14, 63, 84
19, 241199, Note_on_c, 14, 63, 0
19, 241560, Note_on_c, 14, 51, 84
19, 241679, Note_on_c, 14, 51, 0
19, 242040, Note_on_c, 14, 51, 84
19, 242279, Note_on_c, 14, 51, 0
19, 242279, End_track
20, 0, Start_track
20, 0, Title_t, "Contrabass"
20, 0, MIDI_port, 0
20, 0, Program_c, 15, 48
20, 0, Control_c, 15, 7, 88
20, 0, Control_c, 15, 10, 100
20, 0, Control_c, 15, 11, 127
20, 120, Note_on_c, 15, 50, 84
20, 479, Note_on_c, 15, 50, 0
20, 840, Note_on_c, 15, 43, 84
20, 891, Note_on_c, 15, 43, 0
20, 900, Note_on_c, 15, 41, 84
20, 951, Note_on_c, 15, 41, 0
20, 960, Note_on_c, 15, 39, 84
20, 1011, Note_on_c, 15, 39, 0
20, 1020, Note_on_c, 15, 38, 84
20, 1071, Note_on_c, 15, 38, 0
20, 1080, Note_on_c, 15, 39, 84
20, 1131, Note_on_c, 15, 39, 0
20, 1140, Note_on_c, 15, 38, 84
20, 1191, Note_on_c, 15, 38, 0
20, 1200, Note_on_c, 15, 36, 84
20, 1251, Note_on_c, 15, 36, 0
20, 1260, Note_on_c, 15, 34, 84
20, 1311, Note_on_c, 15, 34, 0
20, 1320, Note_on_c, 15, 36, 84
20, 1371, Note_on_c, 15, 36, 0
20, 1380, Note_on_c, 15, 34, 84
20, 1431, Note_on_c, 15, 34, 0
20, 1440, Note_on_c, 15, 33, 84
20, 1491, Note_on_c, 15, 33, 0
20, 1500, Note_on_c, 15, 31, 84
20, 1551, Note_on_c, 15, 31, 0
20, 1560, Note_on_c, 15, 32, 84
20, 1664, Note_on_c, 15, 32, 0
20, 1680, Note_on_c, 15, 44, 84
20, 1731, Note_on_c, 15, 44, 0
20, 1740, Note_on_c, 15, 43, 84
20, 1791, Note_on_c, 15, 43, 0
20, 1800, Note_on_c, 15, 41, 84
20, 1851, Note_on_c, 15, 41, 0
20, 1860, Note_on_c, 15, 43, 84
20, 1911, Note_on_c, 15, 43, 0
20, 1920, Note_on_c, 15, 41, 84
20, 1971, Note_on_c, 15, 41, 0
20, 1980, Note_on_c, 15, 39, 84
20, 2031, Note_on_c, 15, 39, 0
20, 2040, Note_on_c, 15, 38, 84
20, 2091, Note_on_c, 15, 38, 0
20, 2100, Note_on_c, 15, 39, 84
20, 2151, Note_on_c, 15, 39, 0
20, 2160, Note_on_c, 15, 41, 84
20, 2211, Note_on_c, 15, 41, 0
20, 2220, Note_on_c, 15, 43, 84
20, 2271, Note_on_c, 15, 43, 0
20, 2280, Note_on_c, 15, 41, 84
20, 2331, Note_on_c, 15, 41, 0
20, 2340, Note_on_c, 15, 39, 84
20, 2391, Note_on_c, 15, 39, 0
20, 2400, Note_on_c, 15, 38, 84
20, 2451, Note_on_c, 15, 38, 0
20, 2460, Note_on_c, 15, 36, 84
20, 2511, Note_on_c, 15, 36, 0
20, 2520, Note_on_c, 15, 34, 84
20, 2744, Note_on_c, 15, 34, 0
20, 2760, Note_on_c, 15, 34, 84
20, 2984, Note_on_c, 15, 34, 0
20, 3000, Note_on_c, 15, 34, 84
20, 3179, Note_on_c, 15, 34, 0
20, 3480, Note_on_c, 15, 38, 84
20, 3659, Note_on_c, 15, 38, 0
20, 3720, Note_on_c, 15, 41, 84
20, 3899, Note_on_c, 15, 41, 0
20, 3960, Note_on_c, 15, 46, 92
20, 4139, Note_on_c, 15, 46, 0
20, 4440, Note_on_c, 15, 34, 92
20, 4679, Note_on_c, 15, 34, 0
20, 4920, Note_on_c, 15, 34, 92
20, 5339, Note_on_c, 15, 34, 0
20, 5398, Program_c, 15, 45
20, 5400, Note_on_c, 15, 39, 44
20, 5519, Note_on_c, 15, 39, 0
20, 5880, Note_on_c, 15, 46, 44
20, 5999, Note_on_c, 15, 46, 0
20, 6360, Note_on_c, 15, 34, 44
20, 6479, Note_on_c, 15, 34, 0
20, 6840, Note_on_c, 15, 39, 44
20, 6959, Note_on_c, 15, 39, 0
20, 7320, Note_on_c, 15, 39, 44
20, 7439, Note_on_c, 15, 39, 0
20, 7560, Note_on_c, 15, 38, 44
20, 7679, Note_on_c, 15, 38, 0
20, 7800, Note_on_c, 15, 39, 44
20, 8039, Note_on_c, 15, 39, 0
20, 8160, Note_on_c, 15, 40, 44
20, 8279, Note_on_c, 15, 40, 0
20, 8280, Note_on_c, 15, 41, 44
20, 8399, Note_on_c, 15, 41, 0
20, 8400, Note_on_c, 15, 38, 44
20, 8519, Note_on_c, 15, 38, 0
20, 8520, Note_on_c, 15, 39, 44
20, 8639, Note_on_c, 15, 39, 0
20, 8640, Note_on_c, 15, 33, 44
20, 8759, Note_on_c, 15, 33, 0
20, 8760, Note_on_c, 15, 34, 44
20, 8999, Note_on_c, 15, 34, 0
20, 9240, Note_on_c, 15, 39, 44
20, 9479, Note_on_c, 15, 39, 0
20, 9720, Note_on_c, 15, 46, 44
20, 9959, Note_on_c, 15, 46, 0
20, 10200, Note_on_c, 15, 34, 44
20, 10439, Note_on_c, 15, 34, 0
20, 10680, Note_on_c, 15, 39, 44
20, 10919, Note_on_c, 15, 39, 0
20, 11160, Note_on_c, 15, 39, 44
20, 11279, Note_on_c, 15, 39, 0
20, 11400, Note_on_c, 15, 38, 44
20, 11519, Note_on_c, 15, 38, 0
20, 11640, Note_on_c, 15, 39, 44
20, 11759, Note_on_c, 15, 39, 0
20, 12000, Note_on_c, 15, 40, 44
20, 12119, Note_on_c, 15, 40, 0
20, 12120, Note_on_c, 15, 41, 44
20, 12209, Note_on_c, 15, 41, 0
20, 12240, Note_on_c, 15, 38, 44
20, 12329, Note_on_c, 15, 38, 0
20, 12360, Note_on_c, 15, 39, 44
20, 12449, Note_on_c, 15, 39, 0
20, 12480, Note_on_c, 15, 33, 44
20, 12569, Note_on_c, 15, 33, 0
20, 12600, Note_on_c, 15, 34, 44
20, 12779, Note_on_c, 15, 34, 0
20, 14880, Note_on_c, 15, 44, 44
20, 14999, Note_on_c, 15, 44, 0
20, 15000, Note_on_c, 15, 43, 44
20, 15119, Note_on_c, 15, 43, 0
20, 15480, Note_on_c, 15, 44, 44
20, 15599, Note_on_c, 15, 44, 0
20, 15960, Note_on_c, 15, 46, 44
20, 16079, Note_on_c, 15, 46, 0
20, 16200, Note_on_c, 15, 46, 44
20, 16319, Note_on_c, 15, 46, 0
20, 16440, Note_on_c, 15, 39, 44
20, 16559, Note_on_c, 15, 39, 0
20, 16890, Program_c, 15, 48
20, 16920, Note_on_c, 15, 34, 84
20, 17024, Note_on_c, 15, 34, 0
20, 17040, Note_on_c, 15, 34, 84
20, 17144, Note_on_c, 15, 34, 0
20, 17160, Note_on_c, 15, 34, 84
20, 17279, Note_on_c, 15, 34, 0
20, 17880, Note_on_c, 15, 34, 52
20, 18239, Note_on_c, 15, 34, 0
20, 18360, Program_c, 15, 45
20, 18720, Note_on_c, 15, 44, 44
20, 18839, Note_on_c, 15, 44, 0
20, 18840, Note_on_c, 15, 43, 44
20, 18959, Note_on_c, 15, 43, 0
20, 19320, Note_on_c, 15, 44, 44
20, 19439, Note_on_c, 15, 44, 0
20, 19800, Note_on_c, 15, 46, 44
20, 19919, Note_on_c, 15, 46, 0
20, 20040, Note_on_c, 15, 46, 44
20, 20159, Note_on_c, 15, 46, 0
20, 20280, Note_on_c, 15, 39, 44
20, 20399, Note_on_c, 15, 39, 0
20, 51420, Program_c, 15, 45
20, 51480, Note_on_c, 15, 39, 52
20, 51719, Note_on_c, 15, 39, 0
20, 51960, Note_on_c, 15, 46, 52
20, 52199, Note_on_c, 15, 46, 0
20, 52440, Note_on_c, 15, 34, 52
20, 52679, Note_on_c, 15, 34, 0
20, 52920, Note_on_c, 15, 39, 52
20, 53159, Note_on_c, 15, 39, 0
20, 53400, Note_on_c, 15, 39, 52
20, 53639, Note_on_c, 15, 39, 0
20, 53640, Note_on_c, 15, 38, 60
20, 53879, Note_on_c, 15, 38, 0
20, 53880, Note_on_c, 15, 39, 68
20, 54119, Note_on_c, 15, 39, 0
20, 54240, Note_on_c, 15, 40, 68
20, 54359, Note_on_c, 15, 40, 0
20, 54360, Note_on_c, 15, 41, 68
20, 54479, Note_on_c, 15, 41, 0
20, 54480, Note_on_c, 15, 38, 64
20, 54599, Note_on_c, 15, 38, 0
20, 54600, Note_on_c, 15, 39, 60
20, 54719, Note_on_c, 15, 39, 0
20, 54720, Note_on_c, 15, 33, 56
20, 54839, Note_on_c, 15, 33, 0
20, 54840, Note_on_c, 15, 34, 52
20, 54959, Note_on_c, 15, 34, 0
20, 54960, Note_on_c, 15, 46, 52
20, 55079, Note_on_c, 15, 46, 0
20, 55080, Note_on_c, 15, 34, 52
20, 55199, Note_on_c, 15, 34, 0
20, 55290, Program_c, 15, 48
20, 55320, Note_on_c, 15, 27, 76
20, 55371, Note_on_c, 15, 27, 0
20, 55380, Note_on_c, 15, 29, 76
20, 55431, Note_on_c, 15, 29, 0
20, 55440, Note_on_c, 15, 31, 76
20, 55491, Note_on_c, 15, 31, 0
20, 55500, Note_on_c, 15, 32, 76
20, 55551, Note_on_c, 15, 32, 0
20, 55560, Note_on_c, 15, 34, 76
20, 55611, Note_on_c, 15, 34, 0
20, 55620, Note_on_c, 15, 36, 76
20, 55671, Note_on_c, 15, 36, 0
20, 55680, Note_on_c, 15, 38, 76
20, 55731, Note_on_c, 15, 38, 0
20, 55740, Note_on_c, 15, 39, 76
20, 55791, Note_on_c, 15, 39, 0
20, 55800, Note_on_c, 15, 41, 76
20, 55851, Note_on_c, 15, 41, 0
20, 55860, Note_on_c, 15, 43, 76
20, 55911, Note_on_c, 15, 43, 0
20, 55920, Note_on_c, 15, 44, 76
20, 55971, Note_on_c, 15, 44, 0
20, 55980, Note_on_c, 15, 43, 76
20, 56031, Note_on_c, 15, 43, 0
20, 56040, Note_on_c, 15, 41, 76
20, 56091, Note_on_c, 15, 41, 0
20, 56100, Note_on_c, 15, 39, 76
20, 56151, Note_on_c, 15, 39, 0
20, 56160, Note_on_c, 15, 38, 76
20, 56211, Note_on_c, 15, 38, 0
20, 56220, Note_on_c, 15, 36, 76
20, 56271, Note_on_c, 15, 36, 0
20, 56280, Note_on_c, 15, 34, 76
20, 56331, Note_on_c, 15, 34, 0
20, 56340, Note_on_c, 15, 36, 76
20, 56391, Note_on_c, 15, 36, 0
20, 56400, Note_on_c, 15, 38, 76
20, 56451, Note_on_c, 15, 38, 0
20, 56460, Note_on_c, 15, 39, 76
20, 56511, Note_on_c, 15, 39, 0
20, 56520, Note_on_c, 15, 41, 76
20, 56571, Note_on_c, 15, 41, 0
20, 56580, Note_on_c, 15, 43, 76
20, 56631, Note_on_c, 15, 43, 0
20, 56640, Note_on_c, 15, 44, 76
20, 56691, Note_on_c, 15, 44, 0
20, 56700, Note_on_c, 15, 41, 76
20, 56751, Note_on_c, 15, 41, 0
20, 56760, Note_on_c, 15, 43, 76
20, 56811, Note_on_c, 15, 43, 0
20, 56820, Note_on_c, 15, 44, 76
20, 56871, Note_on_c, 15, 44, 0
20, 56880, Note_on_c, 15, 46, 76
20, 56931, Note_on_c, 15, 46, 0
20, 56940, Note_on_c, 15, 48, 76
20, 56991, Note_on_c, 15, 48, 0
20, 57000, Note_on_c, 15, 46, 76
20, 57051, Note_on_c, 15, 46, 0
20, 57060, Note_on_c, 15, 44, 76
20, 57111, Note_on_c, 15, 44, 0
20, 57120, Note_on_c, 15, 43, 76
20, 57171, Note_on_c, 15, 43, 0
20, 57180, Note_on_c, 15, 41, 76
20, 57231, Note_on_c, 15, 41, 0
20, 57240, Note_on_c, 15, 39, 76
20, 57291, Note_on_c, 15, 39, 0
20, 57300, Note_on_c, 15, 43, 76
20, 57351, Note_on_c, 15, 43, 0
20, 57360, Note_on_c, 15, 41, 76
20, 57411, Note_on_c, 15, 41, 0
20, 57420, Note_on_c, 15, 39, 76
20, 57471, Note_on_c, 15, 39, 0
20, 57480, Note_on_c, 15, 38, 76
20, 57531, Note_on_c, 15, 38, 0
20, 57540, Note_on_c, 15, 34, 76
20, 57591, Note_on_c, 15, 34, 0
20, 57600, Note_on_c, 15, 36, 76
20, 57651, Note_on_c, 15, 36, 0
20, 57660, Note_on_c, 15, 38, 76
20, 57711, Note_on_c, 15, 38, 0
20, 57720, Note_on_c, 15, 39, 84
20, 57771, Note_on_c, 15, 39, 0
20, 57780, Note_on_c, 15, 38, 76
20, 57831, Note_on_c, 15, 38, 0
20, 57840, Note_on_c, 15, 39, 76
20, 57891, Note_on_c, 15, 39, 0
20, 57900, Note_on_c, 15, 37, 76
20, 57951, Note_on_c, 15, 37, 0
20, 57960, Note_on_c, 15, 36, 76
20, 58011, Note_on_c, 15, 36, 0
20, 58020, Note_on_c, 15, 38, 76
20, 58071, Note_on_c, 15, 38, 0
20, 58080, Note_on_c, 15, 40, 76
20, 58131, Note_on_c, 15, 40, 0
20, 58140, Note_on_c, 15, 36, 76
20, 58191, Note_on_c, 15, 36, 0
20, 58200, Note_on_c, 15, 41, 76
20, 58251, Note_on_c, 15, 41, 0
20, 58260, Note_on_c, 15, 39, 76
20, 58311, Note_on_c, 15, 39, 0
20, 58320, Note_on_c, 15, 38, 76
20, 58371, Note_on_c, 15, 38, 0
20, 58380, Note_on_c, 15, 34, 76
20, 58431, Note_on_c, 15, 34, 0
20, 58440, Note_on_c, 15, 39, 76
20, 58491, Note_on_c, 15, 39, 0
20, 58500, Note_on_c, 15, 38, 76
20, 58551, Note_on_c, 15, 38, 0
20, 58560, Note_on_c, 15, 39, 76
20, 58611, Note_on_c, 15, 39, 0
20, 58620, Note_on_c, 15, 33, 76
20, 58671, Note_on_c, 15, 33, 0
20, 58680, Note_on_c, 15, 34, 76
20, 58731, Note_on_c, 15, 34, 0
20, 58740, Note_on_c, 15, 39, 76
20, 58791, Note_on_c, 15, 39, 0
20, 58800, Note_on_c, 15, 43, 76
20, 58851, Note_on_c, 15, 43, 0
20, 58860, Note_on_c, 15, 46, 76
20, 58911, Note_on_c, 15, 46, 0
20, 58920, Note_on_c, 15, 34, 76
20, 59039, Note_on_c, 15, 34, 0
20, 59640, Note_on_c, 15, 34, 76
20, 59729, Note_on_c, 15, 34, 0
20, 59760, Note_on_c, 15, 34, 76
20, 59849, Note_on_c, 15, 34, 0
20, 59880, Note_on_c, 15, 34, 76
20, 59969, Note_on_c, 15, 34, 0
20, 60600, Note_on_c, 15, 34, 52
20, 60959, Note_on_c, 15, 34, 0
20, 61050, Program_c, 15, 45
20, 61080, Note_on_c, 15, 43, 52
20, 61199, Note_on_c, 15, 43, 0
20, 61560, Note_on_c, 15, 44, 52
20, 61679, Note_on_c, 15, 44, 0
20, 62040, Note_on_c, 15, 46, 52
20, 62159, Note_on_c, 15, 46, 0
20, 62280, Note_on_c, 15, 34, 52
20, 62399, Note_on_c, 15, 34, 0
20, 62490, Program_c, 15, 48
20, 62520, Note_on_c, 15, 39, 76
20, 62564, Note_on_c, 15, 39, 0
20, 62580, Note_on_c, 15, 46, 76
20, 62624, Note_on_c, 15, 46, 0
20, 62640, Note_on_c, 15, 44, 76
20, 62684, Note_on_c, 15, 44, 0
20, 62700, Note_on_c, 15, 43, 76
20, 62744, Note_on_c, 15, 43, 0
20, 62760, Note_on_c, 15, 41, 76
20, 62804, Note_on_c, 15, 41, 0
20, 62820, Note_on_c, 15, 39, 76
20, 62864, Note_on_c, 15, 39, 0
20, 62880, Note_on_c, 15, 38, 76
20, 62924, Note_on_c, 15, 38, 0
20, 62940, Note_on_c, 15, 36, 76
20, 62984, Note_on_c, 15, 36, 0
20, 63000, Note_on_c, 15, 34, 76
20, 63051, Note_on_c, 15, 34, 0
20, 63060, Note_on_c, 15, 33, 76
20, 63111, Note_on_c, 15, 33, 0
20, 63120, Note_on_c, 15, 34, 76
20, 63171, Note_on_c, 15, 34, 0
20, 63180, Note_on_c, 15, 36, 76
20, 63231, Note_on_c, 15, 36, 0
20, 63240, Note_on_c, 15, 38, 76
20, 63291, Note_on_c, 15, 38, 0
20, 63300, Note_on_c, 15, 39, 76
20, 63351, Note_on_c, 15, 39, 0
20, 63360, Note_on_c, 15, 41, 76
20, 63411, Note_on_c, 15, 41, 0
20, 63420, Note_on_c, 15, 40, 76
20, 63471, Note_on_c, 15, 40, 0
20, 63480, Note_on_c, 15, 41, 76
20, 63531, Note_on_c, 15, 41, 0
20, 63540, Note_on_c, 15, 43, 76
20, 63591, Note_on_c, 15, 43, 0
20, 63600, Note_on_c, 15, 44, 76
20, 63651, Note_on_c, 15, 44, 0
20, 63660, Note_on_c, 15, 43, 76
20, 63711, Note_on_c, 15, 43, 0
20, 63720, Note_on_c, 15, 41, 76
20, 63771, Note_on_c, 15, 41, 0
20, 63780, Note_on_c, 15, 39, 76
20, 63831, Note_on_c, 15, 39, 0
20, 63840, Note_on_c, 15, 38, 76
20, 63891, Note_on_c, 15, 38, 0
20, 63900, Note_on_c, 15, 36, 76
20, 63951, Note_on_c, 15, 36, 0
20, 63960, Note_on_c, 15, 34, 76
20, 64064, Note_on_c, 15, 34, 0
20, 64080, Note_on_c, 15, 44, 76
20, 64131, Note_on_c, 15, 44, 0
20, 64140, Note_on_c, 15, 43, 76
20, 64191, Note_on_c, 15, 43, 0
20, 64200, Note_on_c, 15, 41, 76
20, 64251, Note_on_c, 15, 41, 0
20, 64260, Note_on_c, 15, 39, 76
20, 64311, Note_on_c, 15, 39, 0
20, 64320, Note_on_c, 15, 38, 76
20, 64371, Note_on_c, 15, 38, 0
20, 64380, Note_on_c, 15, 39, 76
20, 64431, Note_on_c, 15, 39, 0
20, 64440, Note_on_c, 15, 34, 76
20, 64799, Note_on_c, 15, 34, 0
20, 64920, Note_on_c, 15, 31, 76
20, 64971, Note_on_c, 15, 31, 0
20, 64980, Note_on_c, 15, 32, 76
20, 65031, Note_on_c, 15, 32, 0
20, 65040, Note_on_c, 15, 34, 76
20, 65091, Note_on_c, 15, 34, 0
20, 65100, Note_on_c, 15, 36, 76
20, 65151, Note_on_c, 15, 36, 0
20, 65160, Note_on_c, 15, 38, 76
20, 65211, Note_on_c, 15, 38, 0
20, 65220, Note_on_c, 15, 39, 76
20, 65271, Note_on_c, 15, 39, 0
20, 65280, Note_on_c, 15, 41, 76
20, 65331, Note_on_c, 15, 41, 0
20, 65340, Note_on_c, 15, 43, 76
20, 65391, Note_on_c, 15, 43, 0
20, 65400, Note_on_c, 15, 44, 76
20, 65451, Note_on_c, 15, 44, 0
20, 65460, Note_on_c, 15, 43, 76
20, 65511, Note_on_c, 15, 43, 0
20, 65520, Note_on_c, 15, 41, 76
20, 65571, Note_on_c, 15, 41, 0
20, 65580, Note_on_c, 15, 39, 76
20, 65631, Note_on_c, 15, 39, 0
20, 65640, Note_on_c, 15, 38, 76
20, 65691, Note_on_c, 15, 38, 0
20, 65700, Note_on_c, 15, 36, 76
20, 65751, Note_on_c, 15, 36, 0
20, 65760, Note_on_c, 15, 34, 76
20, 65811, Note_on_c, 15, 34, 0
20, 65820, Note_on_c, 15, 32, 76
20, 65871, Note_on_c, 15, 32, 0
20, 65880, Note_on_c, 15, 34, 76
20, 65931, Note_on_c, 15, 34, 0
20, 65940, Note_on_c, 15, 39, 76
20, 65991, Note_on_c, 15, 39, 0
20, 66000, Note_on_c, 15, 43, 76
20, 66051, Note_on_c, 15, 43, 0
20, 66060, Note_on_c, 15, 46, 76
20, 66111, Note_on_c, 15, 46, 0
20, 66120, Note_on_c, 15, 34, 76
20, 66171, Note_on_c, 15, 34, 0
20, 66180, Note_on_c, 15, 46, 76
20, 66231, Note_on_c, 15, 46, 0
20, 66240, Note_on_c, 15, 34, 76
20, 66291, Note_on_c, 15, 34, 0
20, 66300, Note_on_c, 15, 34, 76
20, 66351, Note_on_c, 15, 34, 0
20, 66360, Note_on_c, 15, 39, 76
20, 66479, Note_on_c, 15, 39, 0
20, 69240, Note_on_c, 15, 31, 76
20, 69344, Note_on_c, 15, 31, 0
20, 69360, Note_on_c, 15, 31, 76
20, 69464, Note_on_c, 15, 31, 0
20, 69480, Note_on_c, 15, 31, 76
20, 69584, Note_on_c, 15, 31, 0
20, 69600, Note_on_c, 15, 31, 76
20, 69704, Note_on_c, 15, 31, 0
20, 69720, Note_on_c, 15, 31, 76
20, 69824, Note_on_c, 15, 31, 0
20, 69840, Note_on_c, 15, 31, 76
20, 69944, Note_on_c, 15, 31, 0
20, 69960, Note_on_c, 15, 31, 76
20, 70064, Note_on_c, 15, 31, 0
20, 70080, Note_on_c, 15, 31, 76
20, 70184, Note_on_c, 15, 31, 0
20, 70200, Note_on_c, 15, 31, 84
20, 70379, Note_on_c, 15, 31, 0
20, 70440, Note_on_c, 15, 31, 84
20, 70619, Note_on_c, 15, 31, 0
20, 70680, Note_on_c, 15, 31, 84
20, 70859, Note_on_c, 15, 31, 0
20, 80760, Note_on_c, 15, 43, 52
20, 81224, Note_on_c, 15, 43, 0
20, 81240, Note_on_c, 15, 48, 52
20, 81704, Note_on_c, 15, 48, 0
20, 81720, Note_on_c, 15, 36, 52
20, 82184, Note_on_c, 15, 36, 0
20, 82200, Note_on_c, 15, 41, 52
20, 82544, Note_on_c, 15, 41, 0
20, 82560, Note_on_c, 15, 44, 52
20, 82649, Note_on_c, 15, 44, 0
20, 82680, Note_on_c, 15, 43, 52
20, 82769, Note_on_c, 15, 43, 0
20, 82800, Note_on_c, 15, 41, 52
20, 82889, Note_on_c, 15, 41, 0
20, 82920, Note_on_c, 15, 40, 52
20, 83009, Note_on_c, 15, 40, 0
20, 83040, Note_on_c, 15, 43, 52
20, 83129, Note_on_c, 15, 43, 0
20, 83160, Note_on_c, 15, 41, 52
20, 83504, Note_on_c, 15, 41, 0
20, 83520, Note_on_c, 15, 48, 52
20, 83609, Note_on_c, 15, 48, 0
20, 83640, Note_on_c, 15, 46, 52
20, 83729, Note_on_c, 15, 46, 0
20, 83760, Note_on_c, 15, 44, 54
20, 83849, Note_on_c, 15, 44, 0
20, 83880, Note_on_c, 15, 43, 56
20, 83969, Note_on_c, 15, 43, 0
20, 84000, Note_on_c, 15, 46, 58
20, 84089, Note_on_c, 15, 46, 0
20, 84120, Note_on_c, 15, 44, 60
20, 84209, Note_on_c, 15, 44, 0
20, 84240, Note_on_c, 15, 43, 62
20, 84329, Note_on_c, 15, 43, 0
20, 84360, Note_on_c, 15, 41, 64
20, 84449, Note_on_c, 15, 41, 0
20, 84480, Note_on_c, 15, 44, 66
20, 84569, Note_on_c, 15, 44, 0
20, 84600, Note_on_c, 15, 43, 68
20, 84689, Note_on_c, 15, 43, 0
20, 84720, Note_on_c, 15, 41, 70
20, 84809, Note_on_c, 15, 41, 0
20, 84840, Note_on_c, 15, 39, 72
20, 84929, Note_on_c, 15, 39, 0
20, 84960, Note_on_c, 15, 43, 74
20, 85049, Note_on_c, 15, 43, 0
20, 85080, Note_on_c, 15, 41, 76
20, 85169, Note_on_c, 15, 41, 0
20, 85200, Note_on_c, 15, 39, 76
20, 85289, Note_on_c, 15, 39, 0
20, 85320, Note_on_c, 15, 38, 76
20, 85409, Note_on_c, 15, 38, 0
20, 85440, Note_on_c, 15, 41, 76
20, 85664, Note_on_c, 15, 41, 0
20, 85680, Note_on_c, 15, 40, 76
20, 85731, Note_on_c, 15, 40, 0
20, 85740, Note_on_c, 15, 38, 76
20, 85791, Note_on_c, 15, 38, 0
20, 85800, Note_on_c, 15, 40, 76
20, 85851, Note_on_c, 15, 40, 0
20, 85860, Note_on_c, 15, 41, 76
20, 85911, Note_on_c, 15, 41, 0
20, 85920, Note_on_c, 15, 43, 76
20, 85971, Note_on_c, 15, 43, 0
20, 85980, Note_on_c, 15, 44, 76
20, 86031, Note_on_c, 15, 44, 0
20, 86040, Note_on_c, 15, 46, 76
20, 86129, Note_on_c, 15, 46, 0
20, 86160, Note_on_c, 15, 46, 76
20, 86249, Note_on_c, 15, 46, 0
20, 86280, Note_on_c, 15, 46, 76
20, 86369, Note_on_c, 15, 46, 0
20, 86400, Note_on_c, 15, 46, 76
20, 86489, Note_on_c, 15, 46, 0
20, 86520, Note_on_c, 15, 44, 76
20, 86639, Note_on_c, 15, 44, 0
20, 86640, Note_on_c, 15, 48, 76
20, 86744, Note_on_c, 15, 48, 0
20, 86760, Note_on_c, 15, 41, 76
20, 86849, Note_on_c, 15, 41, 0
20, 87120, Note_on_c, 15, 43, 76
20, 87209, Note_on_c, 15, 43, 0
20, 87240, Note_on_c, 15, 36, 76
20, 87329, Note_on_c, 15, 36, 0
20, 87360, Note_on_c, 15, 46, 76
20, 87449, Note_on_c, 15, 46, 0
20, 87480, Note_on_c, 15, 44, 76
20, 87599, Note_on_c, 15, 44, 0
20, 87600, Note_on_c, 15, 48, 76
20, 87704, Note_on_c, 15, 48, 0
20, 87720, Note_on_c, 15, 41, 76
20, 87809, Note_on_c, 15, 41, 0
20, 88080, Note_on_c, 15, 43, 76
20, 88169, Note_on_c, 15, 43, 0
20, 88200, Note_on_c, 15, 36, 76
20, 88289, Note_on_c, 15, 36, 0
20, 88320, Note_on_c, 15, 46, 76
20, 88409, Note_on_c, 15, 46, 0
20, 88440, Note_on_c, 15, 45, 76
20, 88544, Note_on_c, 15, 45, 0
20, 88560, Note_on_c, 15, 41, 76
20, 88611, Note_on_c, 15, 41, 0
20, 88620, Note_on_c, 15, 40, 76
20, 88671, Note_on_c, 15, 40, 0
20, 88680, Note_on_c, 15, 41, 76
20, 88731, Note_on_c, 15, 41, 0
20, 88740, Note_on_c, 15, 43, 76
20, 88791, Note_on_c, 15, 43, 0
20, 88800, Note_on_c, 15, 45, 76
20, 88851, Note_on_c, 15, 45, 0
20, 88860, Note_on_c, 15, 46, 76
20, 88911, Note_on_c, 15, 46, 0
20, 88920, Note_on_c, 15, 48, 76
20, 89024, Note_on_c, 15, 48, 0
20, 89040, Note_on_c, 15, 46, 76
20, 89144, Note_on_c, 15, 46, 0
20, 89160, Note_on_c, 15, 45, 76
20, 89264, Note_on_c, 15, 45, 0
20, 89280, Note_on_c, 15, 48, 76
20, 89384, Note_on_c, 15, 48, 0
20, 89400, Note_on_c, 15, 46, 76
20, 89519, Note_on_c, 15, 46, 0
20, 90840, Note_on_c, 15, 39, 84
20, 91289, Note_on_c, 15, 39, 0
20, 91320, Note_on_c, 15, 44, 76
20, 91784, Note_on_c, 15, 44, 0
20, 91800, Note_on_c, 15, 51, 76
20, 91979, Note_on_c, 15, 51, 0
20, 92040, Note_on_c, 15, 39, 76
20, 92219, Note_on_c, 15, 39, 0
20, 92280, Note_on_c, 15, 46, 76
20, 92744, Note_on_c, 15, 46, 0
20, 92760, Note_on_c, 15, 53, 76
20, 92984, Note_on_c, 15, 53, 0
20, 93000, Note_on_c, 15, 41, 76
20, 93344, Note_on_c, 15, 41, 0
20, 93360, Note_on_c, 15, 39, 76
20, 93464, Note_on_c, 15, 39, 0
20, 93480, Note_on_c, 15, 38, 76
20, 93584, Note_on_c, 15, 38, 0
20, 93600, Note_on_c, 15, 41, 76
20, 93704, Note_on_c, 15, 41, 0
20, 93720, Note_on_c, 15, 39, 76
20, 93824, Note_on_c, 15, 39, 0
20, 93840, Note_on_c, 15, 48, 76
20, 93891, Note_on_c, 15, 48, 0
20, 93900, Note_on_c, 15, 47, 76
20, 93951, Note_on_c, 15, 47, 0
20, 93960, Note_on_c, 15, 48, 76
20, 94011, Note_on_c, 15, 48, 0
20, 94020, Note_on_c, 15, 46, 76
20, 94071, Note_on_c, 15, 46, 0
20, 94080, Note_on_c, 15, 44, 76
20, 94131, Note_on_c, 15, 44, 0
20, 94140, Note_on_c, 15, 43, 76
20, 94191, Note_on_c, 15, 43, 0
20, 94200, Note_on_c, 15, 42, 76
20, 94304, Note_on_c, 15, 42, 0
20, 94320, Note_on_c, 15, 38, 76
20, 94371, Note_on_c, 15, 38, 0
20, 94380, Note_on_c, 15, 37, 76
20, 94431, Note_on_c, 15, 37, 0
20, 94440, Note_on_c, 15, 38, 76
20, 94491, Note_on_c, 15, 38, 0
20, 94500, Note_on_c, 15, 36, 76
20, 94551, Note_on_c, 15, 36, 0
20, 94560, Note_on_c, 15, 34, 76
20, 94611, Note_on_c, 15, 34, 0
20, 94620, Note_on_c, 15, 33, 76
20, 94671, Note_on_c, 15, 33, 0
20, 94680, Note_on_c, 15, 31, 76
20, 94784, Note_on_c, 15, 31, 0
20, 94800, Note_on_c, 15, 43, 76
20, 94851, Note_on_c, 15, 43, 0
20, 94860, Note_on_c, 15, 42, 76
20, 94911, Note_on_c, 15, 42, 0
20, 94920, Note_on_c, 15, 43, 76
20, 94971, Note_on_c, 15, 43, 0
20, 94980, Note_on_c, 15, 45, 76
20, 95031, Note_on_c, 15, 45, 0
20, 95040, Note_on_c, 15, 46, 76
20, 95091, Note_on_c, 15, 46, 0
20, 95100, Note_on_c, 15, 43, 76
20, 95151, Note_on_c, 15, 43, 0
20, 95160, Note_on_c, 15, 39, 80
20, 95264, Note_on_c, 15, 39, 0
20, 95280, Note_on_c, 15, 39, 80
20, 95331, Note_on_c, 15, 39, 0
20, 95340, Note_on_c, 15, 38, 80
20, 95391, Note_on_c, 15, 38, 0
20, 95400, Note_on_c, 15, 39, 80
20, 95451, Note_on_c, 15, 39, 0
20, 95460, Note_on_c, 15, 41, 80
20, 95511, Note_on_c, 15, 41, 0
20, 95520, Note_on_c, 15, 39, 80
20, 95571, Note_on_c, 15, 39, 0
20, 95580, Note_on_c, 15, 38, 80
20, 95631, Note_on_c, 15, 38, 0
20, 95640, Note_on_c, 15, 37, 80
20, 95744, Note_on_c, 15, 37, 0
20, 95760, Note_on_c, 15, 37, 80
20, 95811, Note_on_c, 15, 37, 0
20, 95820, Note_on_c, 15, 35, 80
20, 95871, Note_on_c, 15, 35, 0
20, 95880, Note_on_c, 15, 37, 80
20, 95931, Note_on_c, 15, 37, 0
20, 95940, Note_on_c, 15, 38, 80
20, 95991, Note_on_c, 15, 38, 0
20, 96000, Note_on_c, 15, 40, 80
20, 96051, Note_on_c, 15, 40, 0
20, 96060, Note_on_c, 15, 37, 80
20, 96111, Note_on_c, 15, 37, 0
20, 96120, Note_on_c, 15, 38, 80
20, 96224, Note_on_c, 15, 38, 0
20, 96240, Note_on_c, 15, 40, 80
20, 96291, Note_on_c, 15, 40, 0
20, 96300, Note_on_c, 15, 41, 80
20, 96351, Note_on_c, 15, 41, 0
20, 96360, Note_on_c, 15, 43, 80
20, 96411, Note_on_c, 15, 43, 0
20, 96420, Note_on_c, 15, 45, 80
20, 96471, Note_on_c, 15, 45, 0
20, 96480, Note_on_c, 15, 47, 80
20, 96531, Note_on_c, 15, 47, 0
20, 96540, Note_on_c, 15, 49, 80
20, 96591, Note_on_c, 15, 49, 0
20, 96600, Note_on_c, 15, 50, 80
20, 96651, Note_on_c, 15, 50, 0
20, 96660, Note_on_c, 15, 49, 80
20, 96711, Note_on_c, 15, 49, 0
20, 96720, Note_on_c, 15, 50, 80
20, 96771, Note_on_c, 15, 50, 0
20, 96780, Note_on_c, 15, 49, 80
20, 96831, Note_on_c, 15, 49, 0
20, 96840, Note_on_c, 15, 50, 80
20, 96891, Note_on_c, 15, 50, 0
20, 96900, Note_on_c, 15, 45, 80
20, 96951, Note_on_c, 15, 45, 0
20, 96960, Note_on_c, 15, 41, 80
20, 97011, Note_on_c, 15, 41, 0
20, 97020, Note_on_c, 15, 38, 80
20, 97071, Note_on_c, 15, 38, 0
20, 97080, Note_on_c, 15, 44, 84
20, 97184, Note_on_c, 15, 44, 0
20, 97200, Note_on_c, 15, 44, 84
20, 97304, Note_on_c, 15, 44, 0
20, 97320, Note_on_c, 15, 44, 84
20, 97424, Note_on_c, 15, 44, 0
20, 97440, Note_on_c, 15, 44, 84
20, 97544, Note_on_c, 15, 44, 0
20, 97560, Note_on_c, 15, 44, 84
20, 97664, Note_on_c, 15, 44, 0
20, 97680, Note_on_c, 15, 44, 84
20, 97784, Note_on_c, 15, 44, 0
20, 97800, Note_on_c, 15, 44, 84
20, 97904, Note_on_c, 15, 44, 0
20, 97920, Note_on_c, 15, 44, 84
20, 98024, Note_on_c, 15, 44, 0
20, 98040, Note_on_c, 15, 43, 84
20, 98144, Note_on_c, 15, 43, 0
20, 98160, Note_on_c, 15, 43, 84
20, 98264, Note_on_c, 15, 43, 0
20, 98280, Note_on_c, 15, 43, 84
20, 98384, Note_on_c, 15, 43, 0
20, 98400, Note_on_c, 15, 43, 84
20, 98504, Note_on_c, 15, 43, 0
20, 98520, Note_on_c, 15, 43, 84
20, 98624, Note_on_c, 15, 43, 0
20, 98640, Note_on_c, 15, 43, 84
20, 98744, Note_on_c, 15, 43, 0
20, 98760, Note_on_c, 15, 43, 84
20, 98864, Note_on_c, 15, 43, 0
20, 98880, Note_on_c, 15, 43, 84
20, 98984, Note_on_c, 15, 43, 0
20, 99000, Note_on_c, 15, 42, 52
20, 99239, Note_on_c, 15, 42, 0
20, 99420, Program_c, 15, 45
20, 99480, Note_on_c, 15, 42, 52
20, 99719, Note_on_c, 15, 42, 0
20, 99960, Note_on_c, 15, 42, 52
20, 100199, Note_on_c, 15, 42, 0
20, 100440, Note_on_c, 15, 47, 52
20, 100679, Note_on_c, 15, 47, 0
20, 100920, Note_on_c, 15, 49, 52
20, 101159, Note_on_c, 15, 49, 0
20, 101160, Note_on_c, 15, 45, 60
20, 101399, Note_on_c, 15, 45, 0
20, 101400, Note_on_c, 15, 50, 68
20, 101639, Note_on_c, 15, 50, 0
20, 101760, Note_on_c, 15, 38, 56
20, 101879, Note_on_c, 15, 38, 0
20, 101880, Note_on_c, 15, 37, 52
20, 101999, Note_on_c, 15, 37, 0
20, 102000, Note_on_c, 15, 33, 52
20, 102119, Note_on_c, 15, 33, 0
20, 102120, Note_on_c, 15, 38, 52
20, 102239, Note_on_c, 15, 38, 0
20, 102240, Note_on_c, 15, 42, 52
20, 102359, Note_on_c, 15, 42, 0
20, 102360, Note_on_c, 15, 33, 52
20, 102479, Note_on_c, 15, 33, 0
20, 102480, Note_on_c, 15, 45, 52
20, 102599, Note_on_c, 15, 45, 0
20, 102600, Note_on_c, 15, 33, 52
20, 102719, Note_on_c, 15, 33, 0
20, 106680, Note_on_c, 15, 33, 52
20, 106919, Note_on_c, 15, 33, 0
20, 107160, Note_on_c, 15, 33, 52
20, 107399, Note_on_c, 15, 33, 0
20, 107640, Note_on_c, 15, 33, 52
20, 107879, Note_on_c, 15, 33, 0
20, 108120, Note_on_c, 15, 43, 52
20, 108359, Note_on_c, 15, 43, 0
20, 108600, Note_on_c, 15, 42, 52
20, 108839, Note_on_c, 15, 42, 0
20, 109080, Note_on_c, 15, 43, 52
20, 109319, Note_on_c, 15, 43, 0
20, 109560, Note_on_c, 15, 45, 52
20, 109679, Note_on_c, 15, 45, 0
20, 109800, Note_on_c, 15, 33, 52
20, 109919, Note_on_c, 15, 33, 0
20, 110025, Program_c, 15, 48
20, 110040, Note_on_c, 15, 38, 52
20, 110107, Note_on_c, 15, 38, 0
20, 110120, Note_on_c, 15, 45, 52
20, 110187, Note_on_c, 15, 45, 0
20, 110200, Note_on_c, 15, 43, 52
20, 110267, Note_on_c, 15, 43, 0
20, 110280, Note_on_c, 15, 42, 52
20, 110347, Note_on_c, 15, 42, 0
20, 110360, Note_on_c, 15, 40, 52
20, 110427, Note_on_c, 15, 40, 0
20, 110440, Note_on_c, 15, 38, 52
20, 110507, Note_on_c, 15, 38, 0
20, 110520, Note_on_c, 15, 34, 76
20, 110599, Note_on_c, 15, 34, 0
20, 110600, Note_on_c, 15, 33, 52
20, 110667, Note_on_c, 15, 33, 0
20, 110680, Note_on_c, 15, 33, 52
20, 110739, Note_on_c, 15, 33, 0
20, 111000, Note_on_c, 15, 35, 52
20, 111079, Note_on_c, 15, 35, 0
20, 111080, Note_on_c, 15, 33, 52
20, 111147, Note_on_c, 15, 33, 0
20, 111160, Note_on_c, 15, 33, 52
20, 111219, Note_on_c, 15, 33, 0
20, 111480, Note_on_c, 15, 34, 52
20, 111559, Note_on_c, 15, 34, 0
20, 111560, Note_on_c, 15, 33, 52
20, 111627, Note_on_c, 15, 33, 0
20, 111640, Note_on_c, 15, 33, 52
20, 111699, Note_on_c, 15, 33, 0
20, 111960, Note_on_c, 15, 35, 52
20, 112039, Note_on_c, 15, 35, 0
20, 112040, Note_on_c, 15, 33, 52
20, 112107, Note_on_c, 15, 33, 0
20, 112120, Note_on_c, 15, 33, 52
20, 112179, Note_on_c, 15, 33, 0
20, 112200, Note_on_c, 15, 33, 52
20, 112279, Note_on_c, 15, 33, 0
20, 112280, Note_on_c, 15, 31, 52
20, 112347, Note_on_c, 15, 31, 0
20, 112360, Note_on_c, 15, 31, 52
20, 112419, Note_on_c, 15, 31, 0
20, 112440, Note_on_c, 15, 31, 52
20, 112519, Note_on_c, 15, 31, 0
20, 112520, Note_on_c, 15, 30, 52
20, 112587, Note_on_c, 15, 30, 0
20, 112600, Note_on_c, 15, 30, 52
20, 112659, Note_on_c, 15, 30, 0
20, 112680, Note_on_c, 15, 42, 52
20, 112747, Note_on_c, 15, 42, 0
20, 112760, Note_on_c, 15, 42, 52
20, 112827, Note_on_c, 15, 42, 0
20, 112840, Note_on_c, 15, 42, 52
20, 112907, Note_on_c, 15, 42, 0
20, 112920, Note_on_c, 15, 33, 76
20, 112999, Note_on_c, 15, 33, 0
20, 113000, Note_on_c, 15, 31, 52
20, 113067, Note_on_c, 15, 31, 0
20, 113080, Note_on_c, 15, 31, 52
20, 113139, Note_on_c, 15, 31, 0
20, 113160, Note_on_c, 15, 43, 52
20, 113227, Note_on_c, 15, 43, 0
20, 113240, Note_on_c, 15, 43, 52
20, 113307, Note_on_c, 15, 43, 0
20, 113320, Note_on_c, 15, 43, 52
20, 113387, Note_on_c, 15, 43, 0
20, 113400, Note_on_c, 15, 33, 52
20, 113467, Note_on_c, 15, 33, 0
20, 113480, Note_on_c, 15, 45, 52
20, 113547, Note_on_c, 15, 45, 0
20, 113560, Note_on_c, 15, 45, 52
20, 113627, Note_on_c, 15, 45, 0
20, 113640, Note_on_c, 15, 33, 52
20, 113707, Note_on_c, 15, 33, 0
20, 113720, Note_on_c, 15, 45, 52
20, 113787, Note_on_c, 15, 45, 0
20, 113800, Note_on_c, 15, 45, 52
20, 113867, Note_on_c, 15, 45, 0
20, 113880, Note_on_c, 15, 38, 52
20, 114119, Note_on_c, 15, 38, 0
20, 114360, Note_on_c, 15, 48, 84
20, 114427, Note_on_c, 15, 48, 0
20, 114440, Note_on_c, 15, 48, 84
20, 114507, Note_on_c, 15, 48, 0
20, 114520, Note_on_c, 15, 48, 84
20, 114587, Note_on_c, 15, 48, 0
20, 114600, Note_on_c, 15, 48, 84
20, 114667, Note_on_c, 15, 48, 0
20, 114680, Note_on_c, 15, 48, 84
20, 114747, Note_on_c, 15, 48, 0
20, 114760, Note_on_c, 15, 48, 84
20, 114827, Note_on_c, 15, 48, 0
20, 114840, Note_on_c, 15, 47, 84
20, 114907, Note_on_c, 15, 47, 0
20, 114920, Note_on_c, 15, 47, 84
20, 114987, Note_on_c, 15, 47, 0
20, 115000, Note_on_c, 15, 47, 84
20, 115067, Note_on_c, 15, 47, 0
20, 115080, Note_on_c, 15, 46, 84
20, 115147, Note_on_c, 15, 46, 0
20, 115160, Note_on_c, 15, 46, 84
20, 115227, Note_on_c, 15, 46, 0
20, 115240, Note_on_c, 15, 46, 84
20, 115307, Note_on_c, 15, 46, 0
20, 115320, Note_on_c, 15, 45, 84
20, 115387, Note_on_c, 15, 45, 0
20, 115400, Note_on_c, 15, 45, 84
20, 115467, Note_on_c, 15, 45, 0
20, 115480, Note_on_c, 15, 45, 84
20, 115547, Note_on_c, 15, 45, 0
20, 115560, Note_on_c, 15, 33, 84
20, 115627, Note_on_c, 15, 33, 0
20, 115640, Note_on_c, 15, 33, 84
20, 115707, Note_on_c, 15, 33, 0
20, 115720, Note_on_c, 15, 33, 84
20, 115787, Note_on_c, 15, 33, 0
20, 115800, Note_on_c, 15, 37, 84
20, 115919, Note_on_c, 15, 37, 0
20, 116280, Note_on_c, 15, 43, 84
20, 116729, Note_on_c, 15, 43, 0
20, 116760, Note_on_c, 15, 50, 84
20, 117209, Note_on_c, 15, 50, 0
20, 117240, Note_on_c, 15, 38, 84
20, 117689, Note_on_c, 15, 38, 0
20, 117720, Note_on_c, 15, 43, 84
20, 118169, Note_on_c, 15, 43, 0
20, 118200, Note_on_c, 15, 43, 76
20, 118379, Note_on_c, 15, 43, 0
20, 118440, Note_on_c, 15, 43, 76
20, 118619, Note_on_c, 15, 43, 0
20, 118680, Note_on_c, 15, 50, 76
20, 118859, Note_on_c, 15, 50, 0
20, 118920, Note_on_c, 15, 50, 76
20, 119099, Note_on_c, 15, 50, 0
20, 119160, Note_on_c, 15, 38, 76
20, 119339, Note_on_c, 15, 38, 0
20, 119400, Note_on_c, 15, 38, 76
20, 119579, Note_on_c, 15, 38, 0
20, 119640, Note_on_c, 15, 43, 76
20, 119759, Note_on_c, 15, 43, 0
20, 120120, Note_on_c, 15, 43, 84
20, 120569, Note_on_c, 15, 43, 0
20, 120600, Note_on_c, 15, 50, 84
20, 121049, Note_on_c, 15, 50, 0
20, 121080, Note_on_c, 15, 38, 84
20, 121529, Note_on_c, 15, 38, 0
20, 121560, Note_on_c, 15, 43, 84
20, 122009, Note_on_c, 15, 43, 0
20, 122040, Note_on_c, 15, 43, 76
20, 122264, Note_on_c, 15, 43, 0
20, 122280, Note_on_c, 15, 43, 76
20, 122504, Note_on_c, 15, 43, 0
20, 122520, Note_on_c, 15, 50, 76
20, 122744, Note_on_c, 15, 50, 0
20, 122760, Note_on_c, 15, 50, 76
20, 122984, Note_on_c, 15, 50, 0
20, 123000, Note_on_c, 15, 38, 76
20, 123224, Note_on_c, 15, 38, 0
20, 123240, Note_on_c, 15, 38, 76
20, 123464, Note_on_c, 15, 38, 0
20, 123480, Note_on_c, 15, 43, 76
20, 123599, Note_on_c, 15, 43, 0
20, 123960, Note_on_c, 15, 31, 76
20, 124027, Note_on_c, 15, 31, 0
20, 124040, Note_on_c, 15, 43, 76
20, 124107, Note_on_c, 15, 43, 0
20, 124120, Note_on_c, 15, 43, 76
20, 124187, Note_on_c, 15, 43, 0
20, 124200, Note_on_c, 15, 43, 76
20, 124267, Note_on_c, 15, 43, 0
20, 124280, Note_on_c, 15, 39, 76
20, 124347, Note_on_c, 15, 39, 0
20, 124360, Note_on_c, 15, 36, 76
20, 124427, Note_on_c, 15, 36, 0
20, 124440, Note_on_c, 15, 31, 76
20, 124507, Note_on_c, 15, 31, 0
20, 124520, Note_on_c, 15, 43, 76
20, 124587, Note_on_c, 15, 43, 0
20, 124600, Note_on_c, 15, 43, 76
20, 124667, Note_on_c, 15, 43, 0
20, 124680, Note_on_c, 15, 43, 76
20, 124747, Note_on_c, 15, 43, 0
20, 124760, Note_on_c, 15, 38, 76
20, 124827, Note_on_c, 15, 38, 0
20, 124840, Note_on_c, 15, 35, 76
20, 124907, Note_on_c, 15, 35, 0
20, 124920, Note_on_c, 15, 31, 76
20, 124987, Note_on_c, 15, 31, 0
20, 125000, Note_on_c, 15, 43, 76
20, 125067, Note_on_c, 15, 43, 0
20, 125080, Note_on_c, 15, 42, 76
20, 125147, Note_on_c, 15, 42, 0
20, 125160, Note_on_c, 15, 43, 76
20, 125227, Note_on_c, 15, 43, 0
20, 125240, Note_on_c, 15, 45, 76
20, 125307, Note_on_c, 15, 45, 0
20, 125320, Note_on_c, 15, 47, 76
20, 125387, Note_on_c, 15, 47, 0
20, 125400, Note_on_c, 15, 48, 76
20, 125467, Note_on_c, 15, 48, 0
20, 125480, Note_on_c, 15, 43, 76
20, 125547, Note_on_c, 15, 43, 0
20, 125560, Note_on_c, 15, 39, 76
20, 125627, Note_on_c, 15, 39, 0
20, 125640, Note_on_c, 15, 43, 76
20, 125707, Note_on_c, 15, 43, 0
20, 125720, Note_on_c, 15, 39, 76
20, 125787, Note_on_c, 15, 39, 0
20, 125800, Note_on_c, 15, 36, 76
20, 125867, Note_on_c, 15, 36, 0
20, 125880, Note_on_c, 15, 32, 84
20, 126329, Note_on_c, 15, 32, 0
20, 126360, Note_on_c, 15, 30, 84
20, 126809, Note_on_c, 15, 30, 0
20, 126840, Note_on_c, 15, 26, 76
20, 127019, Note_on_c, 15, 26, 0
20, 127080, Note_on_c, 15, 26, 76
20, 127259, Note_on_c, 15, 26, 0
20, 127320, Note_on_c, 15, 31, 76
20, 127559, Note_on_c, 15, 31, 0
20, 127800, Note_on_c, 15, 31, 76
20, 127867, Note_on_c, 15, 31, 0
20, 127880, Note_on_c, 15, 43, 76
20, 127947, Note_on_c, 15, 43, 0
20, 127960, Note_on_c, 15, 43, 76
20, 128027, Note_on_c, 15, 43, 0
20, 128040, Note_on_c, 15, 43, 76
20, 128107, Note_on_c, 15, 43, 0
20, 128120, Note_on_c, 15, 39, 76
20, 128187, Note_on_c, 15, 39, 0
20, 128200, Note_on_c, 15, 36, 76
20, 128267, Note_on_c, 15, 36, 0
20, 128280, Note_on_c, 15, 31, 76
20, 128347, Note_on_c, 15, 31, 0
20, 128360, Note_on_c, 15, 43, 76
20, 128427, Note_on_c, 15, 43, 0
20, 128440, Note_on_c, 15, 43, 76
20, 128507, Note_on_c, 15, 43, 0
20, 128520, Note_on_c, 15, 43, 76
20, 128587, Note_on_c, 15, 43, 0
20, 128600, Note_on_c, 15, 38, 76
20, 128667, Note_on_c, 15, 38, 0
20, 128680, Note_on_c, 15, 35, 76
20, 128747, Note_on_c, 15, 35, 0
20, 128760, Note_on_c, 15, 31, 76
20, 128827, Note_on_c, 15, 31, 0
20, 128840, Note_on_c, 15, 43, 76
20, 128907, Note_on_c, 15, 43, 0
20, 128920, Note_on_c, 15, 42, 76
20, 128987, Note_on_c, 15, 42, 0
20, 129000, Note_on_c, 15, 43, 76
20, 129067, Note_on_c, 15, 43, 0
20, 129080, Note_on_c, 15, 45, 76
20, 129147, Note_on_c, 15, 45, 0
20, 129160, Note_on_c, 15, 47, 76
20, 129227, Note_on_c, 15, 47, 0
20, 129240, Note_on_c, 15, 48, 76
20, 129307, Note_on_c, 15, 48, 0
20, 129320, Note_on_c, 15, 43, 76
20, 129387, Note_on_c, 15, 43, 0
20, 129400, Note_on_c, 15, 39, 76
20, 129467, Note_on_c, 15, 39, 0
20, 129480, Note_on_c, 15, 43, 76
20, 129547, Note_on_c, 15, 43, 0
20, 129560, Note_on_c, 15, 39, 76
20, 129627, Note_on_c, 15, 39, 0
20, 129640, Note_on_c, 15, 36, 76
20, 129707, Note_on_c, 15, 36, 0
20, 129720, Note_on_c, 15, 32, 84
20, 130169, Note_on_c, 15, 32, 0
20, 130200, Note_on_c, 15, 30, 84
20, 130649, Note_on_c, 15, 30, 0
20, 130680, Note_on_c, 15, 26, 76
20, 130904, Note_on_c, 15, 26, 0
20, 130920, Note_on_c, 15, 26, 76
20, 131144, Note_on_c, 15, 26, 0
20, 131160, Note_on_c, 15, 31, 76
20, 131384, Note_on_c, 15, 31, 0
20, 131400, Note_on_c, 15, 32, 84
20, 131624, Note_on_c, 15, 32, 0
20, 131640, Note_on_c, 15, 32, 76
20, 131864, Note_on_c, 15, 32, 0
20, 131880, Note_on_c, 15, 32, 76
20, 132104, Note_on_c, 15, 32, 0
20, 132120, Note_on_c, 15, 30, 76
20, 132344, Note_on_c, 15, 30, 0
20, 132360, Note_on_c, 15, 30, 76
20, 132584, Note_on_c, 15, 30, 0
20, 132600, Note_on_c, 15, 26, 76
20, 132824, Note_on_c, 15, 26, 0
20, 132840, Note_on_c, 15, 38, 76
20, 133064, Note_on_c, 15, 38, 0
20, 133080, Note_on_c, 15, 43, 76
20, 133304, Note_on_c, 15, 43, 0
20, 133320, Note_on_c, 15, 43, 76
20, 133544, Note_on_c, 15, 43, 0
20, 133560, Note_on_c, 15, 38, 76
20, 133784, Note_on_c, 15, 38, 0
20, 133800, Note_on_c, 15, 38, 76
20, 134024, Note_on_c, 15, 38, 0
20, 134040, Note_on_c, 15, 43, 76
20, 134264, Note_on_c, 15, 43, 0
20, 134280, Note_on_c, 15, 43, 76
20, 134504, Note_on_c, 15, 43, 0
20, 134520, Note_on_c, 15, 38, 76
20, 134744, Note_on_c, 15, 38, 0
20, 134760, Note_on_c, 15, 38, 76
20, 134984, Note_on_c, 15, 38, 0
20, 135000, Note_on_c, 15, 43, 76
20, 135104, Note_on_c, 15, 43, 0
20, 135120, Note_on_c, 15, 43, 76
20, 135224, Note_on_c, 15, 43, 0
20, 135240, Note_on_c, 15, 38, 76
20, 135344, Note_on_c, 15, 38, 0
20, 135360, Note_on_c, 15, 50, 76
20, 135464, Note_on_c, 15, 50, 0
20, 135480, Note_on_c, 15, 43, 76
20, 135584, Note_on_c, 15, 43, 0
20, 135600, Note_on_c, 15, 43, 76
20, 135704, Note_on_c, 15, 43, 0
20, 135720, Note_on_c, 15, 38, 76
20, 135824, Note_on_c, 15, 38, 0
20, 135840, Note_on_c, 15, 50, 76
20, 135944, Note_on_c, 15, 50, 0
20, 135960, Note_on_c, 15, 43, 76
20, 136064, Note_on_c, 15, 43, 0
20, 136080, Note_on_c, 15, 43, 76
20, 136184, Note_on_c, 15, 43, 0
20, 136200, Note_on_c, 15, 38, 76
20, 136304, Note_on_c, 15, 38, 0
20, 136320, Note_on_c, 15, 50, 76
20, 136424, Note_on_c, 15, 50, 0
20, 136440, Note_on_c, 15, 43, 76
20, 136544, Note_on_c, 15, 43, 0
20, 136560, Note_on_c, 15, 43, 76
20, 136664, Note_on_c, 15, 43, 0
20, 136680, Note_on_c, 15, 38, 76
20, 136784, Note_on_c, 15, 38, 0
20, 136800, Note_on_c, 15, 50, 76
20, 136904, Note_on_c, 15, 50, 0
20, 136920, Note_on_c, 15, 43, 76
20, 137159, Note_on_c, 15, 43, 0
20, 137400, Note_on_c, 15, 43, 76
20, 137639, Note_on_c, 15, 43, 0
20, 137880, Note_on_c, 15, 31, 52
20, 137999, Note_on_c, 15, 31, 0
20, 138360, Program_c, 15, 45
20, 138840, Note_on_c, 15, 36, 52
20, 138959, Note_on_c, 15, 36, 0
20, 139320, Note_on_c, 15, 43, 52
20, 139439, Note_on_c, 15, 43, 0
20, 139800, Note_on_c, 15, 31, 52
20, 139919, Note_on_c, 15, 31, 0
20, 140280, Note_on_c, 15, 36, 52
20, 140399, Note_on_c, 15, 36, 0
20, 140760, Note_on_c, 15, 48, 52
20, 140999, Note_on_c, 15, 48, 0
20, 141000, Note_on_c, 15, 43, 60
20, 141239, Note_on_c, 15, 43, 0
20, 141240, Note_on_c, 15, 40, 76
20, 141479, Note_on_c, 15, 40, 0
20, 141600, Note_on_c, 15, 36, 52
20, 141719, Note_on_c, 15, 36, 0
20, 141720, Note_on_c, 15, 35, 52
20, 141839, Note_on_c, 15, 35, 0
20, 141840, Note_on_c, 15, 31, 52
20, 141959, Note_on_c, 15, 31, 0
20, 141960, Note_on_c, 15, 36, 52
20, 142079, Note_on_c, 15, 36, 0
20, 142080, Note_on_c, 15, 40, 52
20, 142199, Note_on_c, 15, 40, 0
20, 142200, Note_on_c, 15, 31, 52
20, 142319, Note_on_c, 15, 31, 0
20, 142320, Note_on_c, 15, 43, 52
20, 142439, Note_on_c, 15, 43, 0
20, 142440, Note_on_c, 15, 31, 52
20, 142559, Note_on_c, 15, 31, 0
20, 146040, Control_c, 15, 11, 96
20, 146040, Program_c, 15, 48
20, 146400, Note_on_c, 15, 41, 60
20, 146519, Note_on_c, 15, 41, 0
20, 146520, Note_on_c, 15, 44, 60
20, 146520, Control_c, 15, 11, 96
20, 146560, Control_c, 15, 11, 97
20, 146600, Control_c, 15, 11, 99
20, 146640, Control_c, 15, 11, 100
20, 146680, Control_c, 15, 11, 101
20, 146720, Control_c, 15, 11, 102
20, 146760, Control_c, 15, 11, 104
20, 146800, Control_c, 15, 11, 105
20, 146840, Control_c, 15, 11, 106
20, 146879, Note_on_c, 15, 44, 0
20, 146880, Control_c, 15, 11, 108
20, 146880, Note_on_c, 15, 41, 60
20, 146920, Control_c, 15, 11, 109
20, 146960, Control_c, 15, 11, 110
20, 146984, Note_on_c, 15, 41, 0
20, 147000, Note_on_c, 15, 38, 60
20, 147000, Control_c, 15, 11, 112
20, 147040, Control_c, 15, 11, 113
20, 147080, Control_c, 15, 11, 114
20, 147120, Control_c, 15, 11, 115
20, 147160, Control_c, 15, 11, 117
20, 147200, Control_c, 15, 11, 118
20, 147240, Control_c, 15, 11, 119
20, 147280, Control_c, 15, 11, 121
20, 147320, Control_c, 15, 11, 122
20, 147359, Note_on_c, 15, 38, 0
20, 147360, Control_c, 15, 11, 123
20, 147360, Note_on_c, 15, 41, 60
20, 147400, Control_c, 15, 11, 124
20, 147440, Control_c, 15, 11, 127
20, 147464, Note_on_c, 15, 41, 0
20, 147480, Note_on_c, 15, 38, 60
20, 147480, Control_c, 15, 11, 127
20, 147520, Control_c, 15, 11, 124
20, 147560, Control_c, 15, 11, 122
20, 147600, Control_c, 15, 11, 119
20, 147640, Control_c, 15, 11, 117
20, 147680, Control_c, 15, 11, 114
20, 147720, Control_c, 15, 11, 112
20, 147760, Control_c, 15, 11, 109
20, 147800, Control_c, 15, 11, 106
20, 147839, Note_on_c, 15, 38, 0
20, 147840, Note_on_c, 15, 32, 60
20, 147840, Control_c, 15, 11, 104
20, 147880, Control_c, 15, 11, 101
20, 147920, Control_c, 15, 11, 96
20, 147944, Note_on_c, 15, 32, 0
20, 147960, Note_on_c, 15, 31, 60
20, 148079, Note_on_c, 15, 31, 0
20, 154680, Control_c, 15, 11, 127
20, 155160, Note_on_c, 15, 39, 52
20, 155624, Note_on_c, 15, 39, 0
20, 155640, Note_on_c, 15, 34, 52
20, 156104, Note_on_c, 15, 34, 0
20, 156120, Note_on_c, 15, 46, 52
20, 156584, Note_on_c, 15, 46, 0
20, 156600, Note_on_c, 15, 39, 52
20, 156944, Note_on_c, 15, 39, 0
20, 156960, Note_on_c, 15, 36, 52
20, 157049, Note_on_c, 15, 36, 0
20, 157080, Note_on_c, 15, 38, 52
20, 157169, Note_on_c, 15, 38, 0
20, 157200, Note_on_c, 15, 39, 52
20, 157289, Note_on_c, 15, 39, 0
20, 157320, Note_on_c, 15, 41, 52
20, 157409, Note_on_c, 15, 41, 0
20, 157440, Note_on_c, 15, 38, 52
20, 157529, Note_on_c, 15, 38, 0
20, 157560, Note_on_c, 15, 39, 52
20, 157904, Note_on_c, 15, 39, 0
20, 157920, Note_on_c, 15, 44, 53
20, 158009, Note_on_c, 15, 44, 0
20, 158040, Note_on_c, 15, 41, 54
20, 158129, Note_on_c, 15, 41, 0
20, 158160, Note_on_c, 15, 43, 55
20, 158249, Note_on_c, 15, 43, 0
20, 158280, Note_on_c, 15, 44, 56
20, 158369, Note_on_c, 15, 44, 0
20, 158400, Note_on_c, 15, 41, 57
20, 158489, Note_on_c, 15, 41, 0
20, 158520, Note_on_c, 15, 43, 58
20, 158699, Note_on_c, 15, 43, 0
20, 159240, Note_on_c, 15, 43, 65
20, 159419, Note_on_c, 15, 43, 0
20, 159480, Note_on_c, 15, 36, 67
20, 159659, Note_on_c, 15, 36, 0
20, 159720, Note_on_c, 15, 48, 69
20, 159899, Note_on_c, 15, 48, 0
20, 159960, Note_on_c, 15, 50, 71
20, 160199, Note_on_c, 15, 50, 0
20, 160260, Note_on_c, 15, 34, 74
20, 160311, Note_on_c, 15, 34, 0
20, 160320, Note_on_c, 15, 36, 74
20, 160371, Note_on_c, 15, 36, 0
20, 160380, Note_on_c, 15, 38, 75
20, 160431, Note_on_c, 15, 38, 0
20, 160440, Note_on_c, 15, 39, 76
20, 160491, Note_on_c, 15, 39, 0
20, 160500, Note_on_c, 15, 39, 76
20, 160551, Note_on_c, 15, 39, 0
20, 160560, Note_on_c, 15, 41, 76
20, 160611, Note_on_c, 15, 41, 0
20, 160620, Note_on_c, 15, 39, 76
20, 160671, Note_on_c, 15, 39, 0
20, 160680, Note_on_c, 15, 38, 76
20, 160731, Note_on_c, 15, 38, 0
20, 160740, Note_on_c, 15, 39, 76
20, 160791, Note_on_c, 15, 39, 0
20, 160800, Note_on_c, 15, 41, 76
20, 160851, Note_on_c, 15, 41, 0
20, 160860, Note_on_c, 15, 43, 76
20, 160911, Note_on_c, 15, 43, 0
20, 160920, Note_on_c, 15, 44, 76
20, 160971, Note_on_c, 15, 44, 0
20, 160980, Note_on_c, 15, 46, 76
20, 161031, Note_on_c, 15, 46, 0
20, 161040, Note_on_c, 15, 48, 76
20, 161091, Note_on_c, 15, 48, 0
20, 161100, Note_on_c, 15, 46, 76
20, 161151, Note_on_c, 15, 46, 0
20, 161160, Note_on_c, 15, 44, 76
20, 161211, Note_on_c, 15, 44, 0
20, 161220, Note_on_c, 15, 43, 76
20, 161271, Note_on_c, 15, 43, 0
20, 161280, Note_on_c, 15, 41, 76
20, 161331, Note_on_c, 15, 41, 0
20, 161340, Note_on_c, 15, 39, 76
20, 161391, Note_on_c, 15, 39, 0
20, 161400, Note_on_c, 15, 38, 76
20, 161451, Note_on_c, 15, 38, 0
20, 161460, Note_on_c, 15, 39, 76
20, 161511, Note_on_c, 15, 39, 0
20, 161520, Note_on_c, 15, 41, 76
20, 161571, Note_on_c, 15, 41, 0
20, 161580, Note_on_c, 15, 39, 76
20, 161631, Note_on_c, 15, 39, 0
20, 161640, Note_on_c, 15, 38, 76
20, 161691, Note_on_c, 15, 38, 0
20, 161700, Note_on_c, 15, 36, 76
20, 161751, Note_on_c, 15, 36, 0
20, 161760, Note_on_c, 15, 34, 76
20, 161811, Note_on_c, 15, 34, 0
20, 161820, Note_on_c, 15, 32, 76
20, 161871, Note_on_c, 15, 32, 0
20, 161880, Note_on_c, 15, 31, 76
20, 161931, Note_on_c, 15, 31, 0
20, 161940, Note_on_c, 15, 34, 76
20, 161991, Note_on_c, 15, 34, 0
20, 162000, Note_on_c, 15, 39, 76
20, 162051, Note_on_c, 15, 39, 0
20, 162060, Note_on_c, 15, 38, 76
20, 162111, Note_on_c, 15, 38, 0
20, 162120, Note_on_c, 15, 36, 76
20, 162171, Note_on_c, 15, 36, 0
20, 162180, Note_on_c, 15, 34, 76
20, 162231, Note_on_c, 15, 34, 0
20, 162240, Note_on_c, 15, 32, 76
20, 162291, Note_on_c, 15, 32, 0
20, 162300, Note_on_c, 15, 31, 76
20, 162351, Note_on_c, 15, 31, 0
20, 162360, Note_on_c, 15, 29, 76
20, 162411, Note_on_c, 15, 29, 0
20, 162420, Note_on_c, 15, 32, 76
20, 162471, Note_on_c, 15, 32, 0
20, 162480, Note_on_c, 15, 32, 76
20, 162531, Note_on_c, 15, 32, 0
20, 162540, Note_on_c, 15, 32, 76
20, 162591, Note_on_c, 15, 32, 0
20, 162600, Note_on_c, 15, 32, 76
20, 162651, Note_on_c, 15, 32, 0
20, 162660, Note_on_c, 15, 32, 76
20, 162711, Note_on_c, 15, 32, 0
20, 162720, Note_on_c, 15, 34, 76
20, 162771, Note_on_c, 15, 34, 0
20, 162780, Note_on_c, 15, 32, 76
20, 162831, Note_on_c, 15, 32, 0
20, 162840, Note_on_c, 15, 31, 76
20, 162891, Note_on_c, 15, 31, 0
20, 162900, Note_on_c, 15, 34, 76
20, 162951, Note_on_c, 15, 34, 0
20, 162960, Note_on_c, 15, 39, 76
20, 163011, Note_on_c, 15, 39, 0
20, 163020, Note_on_c, 15, 38, 76
20, 163071, Note_on_c, 15, 38, 0
20, 163080, Note_on_c, 15, 36, 76
20, 163131, Note_on_c, 15, 36, 0
20, 163140, Note_on_c, 15, 38, 76
20, 163191, Note_on_c, 15, 38, 0
20, 163200, Note_on_c, 15, 39, 76
20, 163251, Note_on_c, 15, 39, 0
20, 163260, Note_on_c, 15, 36, 76
20, 163311, Note_on_c, 15, 36, 0
20, 163320, Note_on_c, 15, 38, 76
20, 163371, Note_on_c, 15, 38, 0
20, 163380, Note_on_c, 15, 39, 76
20, 163431, Note_on_c, 15, 39, 0
20, 163440, Note_on_c, 15, 41, 76
20, 163491, Note_on_c, 15, 41, 0
20, 163500, Note_on_c, 15, 39, 76
20, 163551, Note_on_c, 15, 39, 0
20, 163560, Note_on_c, 15, 38, 76
20, 163611, Note_on_c, 15, 38, 0
20, 163620, Note_on_c, 15, 34, 76
20, 163671, Note_on_c, 15, 34, 0
20, 163680, Note_on_c, 15, 36, 76
20, 163731, Note_on_c, 15, 36, 0
20, 163740, Note_on_c, 15, 38, 76
20, 163791, Note_on_c, 15, 38, 0
20, 163800, Note_on_c, 15, 39, 76
20, 163851, Note_on_c, 15, 39, 0
20, 163860, Note_on_c, 15, 38, 76
20, 163911, Note_on_c, 15, 38, 0
20, 163920, Note_on_c, 15, 39, 76
20, 163971, Note_on_c, 15, 39, 0
20, 163980, Note_on_c, 15, 41, 76
20, 164031, Note_on_c, 15, 41, 0
20, 164040, Note_on_c, 15, 43, 76
20, 164091, Note_on_c, 15, 43, 0
20, 164100, Note_on_c, 15, 44, 76
20, 164151, Note_on_c, 15, 44, 0
20, 164160, Note_on_c, 15, 43, 76
20, 164211, Note_on_c, 15, 43, 0
20, 164220, Note_on_c, 15, 41, 76
20, 164271, Note_on_c, 15, 41, 0
20, 164280, Note_on_c, 15, 40, 76
20, 164331, Note_on_c, 15, 40, 0
20, 164340, Note_on_c, 15, 41, 76
20, 164391, Note_on_c, 15, 41, 0
20, 164400, Note_on_c, 15, 43, 76
20, 164451, Note_on_c, 15, 43, 0
20, 164460, Note_on_c, 15, 41, 76
20, 164511, Note_on_c, 15, 41, 0
20, 164520, Note_on_c, 15, 40, 76
20, 164571, Note_on_c, 15, 40, 0
20, 164580, Note_on_c, 15, 36, 76
20, 164631, Note_on_c, 15, 36, 0
20, 164640, Note_on_c, 15, 38, 76
20, 164691, Note_on_c, 15, 38, 0
20, 164700, Note_on_c, 15, 40, 76
20, 164751, Note_on_c, 15, 40, 0
20, 164760, Note_on_c, 15, 41, 76
20, 164811, Note_on_c, 15, 41, 0
20, 164820, Note_on_c, 15, 40, 76
20, 164871, Note_on_c, 15, 40, 0
20, 164880, Note_on_c, 15, 41, 76
20, 164931, Note_on_c, 15, 41, 0
20, 164940, Note_on_c, 15, 43, 76
20, 164991, Note_on_c, 15, 43, 0
20, 165000, Note_on_c, 15, 44, 76
20, 165051, Note_on_c, 15, 44, 0
20, 165060, Note_on_c, 15, 43, 76
20, 165111, Note_on_c, 15, 43, 0
20, 165120, Note_on_c, 15, 44, 76
20, 165171, Note_on_c, 15, 44, 0
20, 165180, Note_on_c, 15, 41, 76
20, 165231, Note_on_c, 15, 41, 0
20, 165240, Note_on_c, 15, 43, 76
20, 165344, Note_on_c, 15, 43, 0
20, 165360, Note_on_c, 15, 39, 76
20, 165464, Note_on_c, 15, 39, 0
20, 165480, Note_on_c, 15, 51, 84
20, 165719, Note_on_c, 15, 51, 0
20, 165720, Note_on_c, 15, 51, 76
20, 165944, Note_on_c, 15, 51, 0
20, 165960, Note_on_c, 15, 44, 84
20, 166304, Note_on_c, 15, 44, 0
20, 166320, Note_on_c, 15, 43, 84
20, 166371, Note_on_c, 15, 43, 0
20, 166380, Note_on_c, 15, 41, 84
20, 166431, Note_on_c, 15, 41, 0
20, 166440, Note_on_c, 15, 39, 92
20, 166679, Note_on_c, 15, 39, 0
20, 166680, Note_on_c, 15, 39, 84
20, 166904, Note_on_c, 15, 39, 0
20, 166920, Note_on_c, 15, 38, 84
20, 167384, Note_on_c, 15, 38, 0
20, 167400, Note_on_c, 15, 32, 84
20, 167864, Note_on_c, 15, 32, 0
20, 167880, Note_on_c, 15, 31, 84
20, 168344, Note_on_c, 15, 31, 0
20, 168360, Note_on_c, 15, 32, 84
20, 168824, Note_on_c, 15, 32, 0
20, 168840, Note_on_c, 15, 31, 84
20, 169304, Note_on_c, 15, 31, 0
20, 169320, Note_on_c, 15, 35, 84
20, 169784, Note_on_c, 15, 35, 0
20, 169800, Note_on_c, 15, 36, 84
20, 170024, Note_on_c, 15, 36, 0
20, 170040, Note_on_c, 15, 41, 84
20, 170264, Note_on_c, 15, 41, 0
20, 170280, Note_on_c, 15, 43, 84
20, 170504, Note_on_c, 15, 43, 0
20, 170520, Note_on_c, 15, 44, 84
20, 170744, Note_on_c, 15, 44, 0
20, 170760, Note_on_c, 15, 32, 84
20, 170984, Note_on_c, 15, 32, 0
20, 171000, Note_on_c, 15, 39, 84
20, 171224, Note_on_c, 15, 39, 0
20, 171240, Note_on_c, 15, 40, 84
20, 171464, Note_on_c, 15, 40, 0
20, 171480, Note_on_c, 15, 41, 84
20, 171584, Note_on_c, 15, 41, 0
20, 171600, Note_on_c, 15, 41, 84
20, 171704, Note_on_c, 15, 41, 0
20, 171720, Note_on_c, 15, 42, 84
20, 171824, Note_on_c, 15, 42, 0
20, 171840, Note_on_c, 15, 38, 84
20, 171944, Note_on_c, 15, 38, 0
20, 171960, Note_on_c, 15, 39, 84
20, 172064, Note_on_c, 15, 39, 0
20, 172080, Note_on_c, 15, 37, 84
20, 172184, Note_on_c, 15, 37, 0
20, 172200, Note_on_c, 15, 36, 84
20, 172304, Note_on_c, 15, 36, 0
20, 172320, Note_on_c, 15, 35, 84
20, 172424, Note_on_c, 15, 35, 0
20, 172440, Note_on_c, 15, 34, 84
20, 172499, Note_on_c, 15, 34, 0
20, 172500, Note_on_c, 15, 33, 84
20, 172559, Note_on_c, 15, 33, 0
20, 172560, Note_on_c, 15, 34, 84
20, 172619, Note_on_c, 15, 34, 0
20, 172620, Note_on_c, 15, 33, 84
20, 172679, Note_on_c, 15, 33, 0
20, 172680, Note_on_c, 15, 34, 84
20, 172739, Note_on_c, 15, 34, 0
20, 172740, Note_on_c, 15, 33, 84
20, 172799, Note_on_c, 15, 33, 0
20, 172800, Note_on_c, 15, 34, 84
20, 172859, Note_on_c, 15, 34, 0
20, 172860, Note_on_c, 15, 33, 84
20, 172911, Note_on_c, 15, 33, 0
20, 172920, Note_on_c, 15, 34, 84
20, 172979, Note_on_c, 15, 34, 0
20, 172980, Note_on_c, 15, 33, 84
20, 173039, Note_on_c, 15, 33, 0
20, 173040, Note_on_c, 15, 34, 84
20, 173099, Note_on_c, 15, 34, 0
20, 173100, Note_on_c, 15, 33, 84
20, 173159, Note_on_c, 15, 33, 0
20, 173160, Note_on_c, 15, 34, 84
20, 173219, Note_on_c, 15, 34, 0
20, 173220, Note_on_c, 15, 33, 84
20, 173279, Note_on_c, 15, 33, 0
20, 173280, Note_on_c, 15, 34, 84
20, 173339, Note_on_c, 15, 34, 0
20, 173340, Note_on_c, 15, 33, 84
20, 173391, Note_on_c, 15, 33, 0
20, 173400, Note_on_c, 15, 34, 84
20, 173459, Note_on_c, 15, 34, 0
20, 173460, Note_on_c, 15, 33, 84
20, 173519, Note_on_c, 15, 33, 0
20, 173520, Note_on_c, 15, 34, 84
20, 173579, Note_on_c, 15, 34, 0
20, 173580, Note_on_c, 15, 33, 84
20, 173639, Note_on_c, 15, 33, 0
20, 173640, Note_on_c, 15, 34, 84
20, 173699, Note_on_c, 15, 34, 0
20, 173700, Note_on_c, 15, 33, 84
20, 173759, Note_on_c, 15, 33, 0
20, 173760, Note_on_c, 15, 34, 84
20, 173819, Note_on_c, 15, 34, 0
20, 173820, Note_on_c, 15, 33, 84
20, 173871, Note_on_c, 15, 33, 0
20, 173880, Note_on_c, 15, 34, 84
20, 173939, Note_on_c, 15, 34, 0
20, 173940, Note_on_c, 15, 33, 84
20, 173999, Note_on_c, 15, 33, 0
20, 174000, Note_on_c, 15, 34, 84
20, 174059, Note_on_c, 15, 34, 0
20, 174060, Note_on_c, 15, 33, 84
20, 174119, Note_on_c, 15, 33, 0
20, 174120, Note_on_c, 15, 34, 84
20, 174179, Note_on_c, 15, 34, 0
20, 174180, Note_on_c, 15, 33, 84
20, 174239, Note_on_c, 15, 33, 0
20, 174240, Note_on_c, 15, 34, 84
20, 174299, Note_on_c, 15, 34, 0
20, 174300, Note_on_c, 15, 33, 84
20, 174351, Note_on_c, 15, 33, 0
20, 174360, Note_on_c, 15, 34, 84
20, 174419, Note_on_c, 15, 34, 0
20, 174420, Note_on_c, 15, 33, 84
20, 174479, Note_on_c, 15, 33, 0
20, 174480, Note_on_c, 15, 34, 84
20, 174539, Note_on_c, 15, 34, 0
20, 174540, Note_on_c, 15, 33, 84
20, 174599, Note_on_c, 15, 33, 0
20, 174600, Note_on_c, 15, 34, 84
20, 174659, Note_on_c, 15, 34, 0
20, 174660, Note_on_c, 15, 33, 84
20, 174719, Note_on_c, 15, 33, 0
20, 174720, Note_on_c, 15, 34, 84
20, 174779, Note_on_c, 15, 34, 0
20, 174780, Note_on_c, 15, 33, 84
20, 174831, Note_on_c, 15, 33, 0
20, 174840, Note_on_c, 15, 34, 84
20, 174899, Note_on_c, 15, 34, 0
20, 174900, Note_on_c, 15, 33, 84
20, 174959, Note_on_c, 15, 33, 0
20, 174960, Note_on_c, 15, 34, 84
20, 175019, Note_on_c, 15, 34, 0
20, 175020, Note_on_c, 15, 33, 84
20, 175079, Note_on_c, 15, 33, 0
20, 175080, Note_on_c, 15, 34, 84
20, 175139, Note_on_c, 15, 34, 0
20, 175140, Note_on_c, 15, 33, 84
20, 175199, Note_on_c, 15, 33, 0
20, 175200, Note_on_c, 15, 34, 84
20, 175259, Note_on_c, 15, 34, 0
20, 175260, Note_on_c, 15, 33, 84
20, 175311, Note_on_c, 15, 33, 0
20, 175320, Note_on_c, 15, 34, 84
20, 175379, Note_on_c, 15, 34, 0
20, 175380, Note_on_c, 15, 33, 84
20, 175439, Note_on_c, 15, 33, 0
20, 175440, Note_on_c, 15, 34, 84
20, 175499, Note_on_c, 15, 34, 0
20, 175500, Note_on_c, 15, 33, 84
20, 175559, Note_on_c, 15, 33, 0
20, 175560, Note_on_c, 15, 34, 84
20, 175619, Note_on_c, 15, 34, 0
20, 175620, Note_on_c, 15, 33, 84
20, 175679, Note_on_c, 15, 33, 0
20, 175680, Note_on_c, 15, 34, 84
20, 175739, Note_on_c, 15, 34, 0
20, 175740, Note_on_c, 15, 33, 84
20, 175791, Note_on_c, 15, 33, 0
20, 175800, Note_on_c, 15, 34, 84
20, 175859, Note_on_c, 15, 34, 0
20, 175860, Note_on_c, 15, 33, 84
20, 175919, Note_on_c, 15, 33, 0
20, 175920, Note_on_c, 15, 34, 84
20, 175979, Note_on_c, 15, 34, 0
20, 175980, Note_on_c, 15, 33, 84
20, 176039, Note_on_c, 15, 33, 0
20, 176040, Note_on_c, 15, 34, 84
20, 176099, Note_on_c, 15, 34, 0
20, 176100, Note_on_c, 15, 33, 84
20, 176159, Note_on_c, 15, 33, 0
20, 176160, Note_on_c, 15, 34, 84
20, 176219, Note_on_c, 15, 34, 0
20, 176220, Note_on_c, 15, 33, 84
20, 176271, Note_on_c, 15, 33, 0
20, 176280, Note_on_c, 15, 34, 84
20, 176339, Note_on_c, 15, 34, 0
20, 176340, Note_on_c, 15, 33, 84
20, 176399, Note_on_c, 15, 33, 0
20, 176400, Note_on_c, 15, 34, 84
20, 176459, Note_on_c, 15, 34, 0
20, 176460, Note_on_c, 15, 33, 84
20, 176519, Note_on_c, 15, 33, 0
20, 176520, Note_on_c, 15, 34, 84
20, 176579, Note_on_c, 15, 34, 0
20, 176580, Note_on_c, 15, 33, 84
20, 176639, Note_on_c, 15, 33, 0
20, 176640, Note_on_c, 15, 34, 84
20, 176699, Note_on_c, 15, 34, 0
20, 176700, Note_on_c, 15, 33, 84
20, 176751, Note_on_c, 15, 33, 0
20, 176760, Note_on_c, 15, 34, 84
20, 176819, Note_on_c, 15, 34, 0
20, 176820, Note_on_c, 15, 33, 84
20, 176879, Note_on_c, 15, 33, 0
20, 176880, Note_on_c, 15, 34, 84
20, 176939, Note_on_c, 15, 34, 0
20, 176940, Note_on_c, 15, 33, 84
20, 176999, Note_on_c, 15, 33, 0
20, 177000, Note_on_c, 15, 34, 84
20, 177059, Note_on_c, 15, 34, 0
20, 177060, Note_on_c, 15, 33, 84
20, 177119, Note_on_c, 15, 33, 0
20, 177120, Note_on_c, 15, 34, 84
20, 177179, Note_on_c, 15, 34, 0
20, 177180, Note_on_c, 15, 33, 84
20, 177231, Note_on_c, 15, 33, 0
20, 177240, Note_on_c, 15, 34, 84
20, 177299, Note_on_c, 15, 34, 0
20, 177300, Note_on_c, 15, 33, 84
20, 177359, Note_on_c, 15, 33, 0
20, 177360, Note_on_c, 15, 34, 84
20, 177419, Note_on_c, 15, 34, 0
20, 177420, Note_on_c, 15, 33, 84
20, 177479, Note_on_c, 15, 33, 0
20, 177480, Note_on_c, 15, 34, 84
20, 177539, Note_on_c, 15, 34, 0
20, 177540, Note_on_c, 15, 33, 84
20, 177599, Note_on_c, 15, 33, 0
20, 177600, Note_on_c, 15, 34, 84
20, 177659, Note_on_c, 15, 34, 0
20, 177660, Note_on_c, 15, 33, 84
20, 177711, Note_on_c, 15, 33, 0
20, 177720, Note_on_c, 15, 34, 84
20, 177779, Note_on_c, 15, 34, 0
20, 177780, Note_on_c, 15, 33, 84
20, 177839, Note_on_c, 15, 33, 0
20, 177840, Note_on_c, 15, 34, 84
20, 177899, Note_on_c, 15, 34, 0
20, 177900, Note_on_c, 15, 33, 84
20, 177959, Note_on_c, 15, 33, 0
20, 177960, Note_on_c, 15, 34, 84
20, 178019, Note_on_c, 15, 34, 0
20, 178020, Note_on_c, 15, 33, 84
20, 178079, Note_on_c, 15, 33, 0
20, 178080, Note_on_c, 15, 34, 84
20, 178139, Note_on_c, 15, 34, 0
20, 178140, Note_on_c, 15, 33, 84
20, 178191, Note_on_c, 15, 33, 0
20, 178200, Note_on_c, 15, 34, 84
20, 178259, Note_on_c, 15, 34, 0
20, 178260, Note_on_c, 15, 33, 84
20, 178319, Note_on_c, 15, 33, 0
20, 178320, Note_on_c, 15, 34, 84
20, 178379, Note_on_c, 15, 34, 0
20, 178380, Note_on_c, 15, 33, 84
20, 178439, Note_on_c, 15, 33, 0
20, 178440, Note_on_c, 15, 34, 84
20, 178499, Note_on_c, 15, 34, 0
20, 178500, Note_on_c, 15, 33, 84
20, 178559, Note_on_c, 15, 33, 0
20, 178560, Note_on_c, 15, 34, 84
20, 178619, Note_on_c, 15, 34, 0
20, 178620, Note_on_c, 15, 33, 84
20, 178671, Note_on_c, 15, 33, 0
20, 178680, Note_on_c, 15, 34, 84
20, 178739, Note_on_c, 15, 34, 0
20, 178740, Note_on_c, 15, 33, 84
20, 178799, Note_on_c, 15, 33, 0
20, 178800, Note_on_c, 15, 34, 84
20, 178859, Note_on_c, 15, 34, 0
20, 178860, Note_on_c, 15, 33, 84
20, 178919, Note_on_c, 15, 33, 0
20, 178920, Note_on_c, 15, 34, 84
20, 178979, Note_on_c, 15, 34, 0
20, 178980, Note_on_c, 15, 33, 84
20, 179039, Note_on_c, 15, 33, 0
20, 179040, Note_on_c, 15, 34, 84
20, 179099, Note_on_c, 15, 34, 0
20, 179100, Note_on_c, 15, 33, 84
20, 179151, Note_on_c, 15, 33, 0
20, 179160, Note_on_c, 15, 34, 84
20, 179279, Note_on_c, 15, 34, 0
20, 179280, Note_on_c, 15, 35, 84
20, 179399, Note_on_c, 15, 35, 0
20, 179400, Note_on_c, 15, 34, 84
20, 179519, Note_on_c, 15, 34, 0
20, 179520, Note_on_c, 15, 35, 84
20, 179624, Note_on_c, 15, 35, 0
20, 179640, Note_on_c, 15, 34, 84
20, 179759, Note_on_c, 15, 34, 0
20, 179760, Note_on_c, 15, 35, 84
20, 179879, Note_on_c, 15, 35, 0
20, 179880, Note_on_c, 15, 34, 84
20, 179999, Note_on_c, 15, 34, 0
20, 180000, Note_on_c, 15, 35, 84
20, 180104, Note_on_c, 15, 35, 0
20, 180120, Note_on_c, 15, 34, 84
20, 180299, Note_on_c, 15, 34, 0
20, 180360, Note_on_c, 15, 46, 84
20, 180539, Note_on_c, 15, 46, 0
20, 180600, Note_on_c, 15, 46, 84
20, 180779, Note_on_c, 15, 46, 0
20, 180840, Note_on_c, 15, 46, 84
20, 181019, Note_on_c, 15, 46, 0
20, 181080, Note_on_c, 15, 46, 84
20, 181184, Note_on_c, 15, 46, 0
20, 181200, Note_on_c, 15, 44, 84
20, 181251, Note_on_c, 15, 44, 0
20, 181260, Note_on_c, 15, 43, 84
20, 181311, Note_on_c, 15, 43, 0
20, 181320, Note_on_c, 15, 41, 84
20, 181371, Note_on_c, 15, 41, 0
20, 181380, Note_on_c, 15, 39, 84
20, 181431, Note_on_c, 15, 39, 0
20, 181440, Note_on_c, 15, 38, 84
20, 181491, Note_on_c, 15, 38, 0
20, 181500, Note_on_c, 15, 36, 84
20, 181551, Note_on_c, 15, 36, 0
20, 181560, Note_on_c, 15, 34, 84
20, 181664, Note_on_c, 15, 34, 0
20, 181680, Note_on_c, 15, 36, 84
20, 181731, Note_on_c, 15, 36, 0
20, 181740, Note_on_c, 15, 38, 84
20, 181791, Note_on_c, 15, 38, 0
20, 181800, Note_on_c, 15, 39, 84
20, 181851, Note_on_c, 15, 39, 0
20, 181860, Note_on_c, 15, 41, 84
20, 181911, Note_on_c, 15, 41, 0
20, 181920, Note_on_c, 15, 43, 84
20, 181971, Note_on_c, 15, 43, 0
20, 181980, Note_on_c, 15, 44, 84
20, 182031, Note_on_c, 15, 44, 0
20, 182040, Note_on_c, 15, 46, 92
20, 182369, Note_on_c, 15, 46, 0
20, 186360, Note_on_c, 15, 27, 52
20, 186599, Note_on_c, 15, 27, 0
20, 186600, Note_on_c, 15, 33, 52
20, 186809, Note_on_c, 15, 33, 0
20, 186810, Note_on_c, 15, 34, 52
20, 186835, Note_on_c, 15, 34, 0
20, 186840, Note_on_c, 15, 34, 52
20, 187199, Note_on_c, 15, 34, 0
20, 187200, Note_on_c, 15, 32, 52
20, 187259, Note_on_c, 15, 32, 0
20, 187260, Note_on_c, 15, 31, 52
20, 187315, Note_on_c, 15, 31, 0
20, 187320, Note_on_c, 15, 29, 52
20, 187559, Note_on_c, 15, 29, 0
20, 187560, Note_on_c, 15, 35, 68
20, 187769, Note_on_c, 15, 35, 0
20, 187770, Note_on_c, 15, 36, 52
20, 187795, Note_on_c, 15, 36, 0
20, 187800, Note_on_c, 15, 36, 52
20, 188159, Note_on_c, 15, 36, 0
20, 188160, Note_on_c, 15, 34, 52
20, 188219, Note_on_c, 15, 34, 0
20, 188220, Note_on_c, 15, 32, 52
20, 188275, Note_on_c, 15, 32, 0
20, 188278, Control_c, 15, 11, 96
20, 188280, Control_c, 15, 11, 96
20, 188280, Note_on_c, 15, 31, 68
20, 188300, Control_c, 15, 11, 97
20, 188320, Control_c, 15, 11, 99
20, 188340, Control_c, 15, 11, 100
20, 188360, Control_c, 15, 11, 101
20, 188380, Control_c, 15, 11, 102
20, 188400, Control_c, 15, 11, 104
20, 188420, Control_c, 15, 11, 105
20, 188440, Control_c, 15, 11, 106
20, 188460, Control_c, 15, 11, 108
20, 188480, Control_c, 15, 11, 109
20, 188500, Control_c, 15, 11, 110
20, 188519, Note_on_c, 15, 31, 0
20, 188520, Control_c, 15, 11, 112
20, 188520, Note_on_c, 15, 38, 68
20, 188540, Control_c, 15, 11, 113
20, 188560, Control_c, 15, 11, 114
20, 188580, Control_c, 15, 11, 115
20, 188600, Control_c, 15, 11, 117
20, 188620, Control_c, 15, 11, 118
20, 188640, Control_c, 15, 11, 119
20, 188660, Control_c, 15, 11, 121
20, 188680, Control_c, 15, 11, 122
20, 188700, Control_c, 15, 11, 123
20, 188720, Control_c, 15, 11, 124
20, 188729, Note_on_c, 15, 38, 0
20, 188730, Note_on_c, 15, 39, 68
20, 188740, Control_c, 15, 11, 127
20, 188755, Note_on_c, 15, 39, 0
20, 188760, Note_on_c, 15, 39, 76
20, 188790, Control_c, 15, 11, 112
20, 188809, Control_c, 15, 11, 111
20, 188828, Control_c, 15, 11, 109
20, 188846, Control_c, 15, 11, 108
20, 188865, Control_c, 15, 11, 107
20, 188884, Control_c, 15, 11, 105
20, 188903, Control_c, 15, 11, 104
20, 188921, Control_c, 15, 11, 103
20, 188940, Control_c, 15, 11, 101
20, 188959, Control_c, 15, 11, 100
20, 188978, Control_c, 15, 11, 99
20, 188996, Control_c, 15, 11, 97
20, 189015, Control_c, 15, 11, 96
20, 189034, Control_c, 15, 11, 95
20, 189053, Control_c, 15, 11, 93
20, 189071, Control_c, 15, 11, 92
20, 189090, Control_c, 15, 11, 91
20, 189104, Note_on_c, 15, 39, 0
20, 189109, Control_c, 15, 11, 89
20, 189120, Note_on_c, 15, 37, 76
20, 189128, Control_c, 15, 11, 88
20, 189146, Control_c, 15, 11, 87
20, 189165, Control_c, 15, 11, 85
20, 189184, Control_c, 15, 11, 84
20, 189203, Control_c, 15, 11, 83
20, 189221, Control_c, 15, 11, 80
20, 189231, Note_on_c, 15, 37, 0
20, 189240, Note_on_c, 15, 36, 76
20, 189359, Note_on_c, 15, 36, 0
20, 189360, Note_on_c, 15, 38, 76
20, 189479, Note_on_c, 15, 38, 0
20, 189480, Note_on_c, 15, 39, 76
20, 189599, Note_on_c, 15, 39, 0
20, 189600, Note_on_c, 15, 36, 76
20, 189711, Note_on_c, 15, 36, 0
20, 189720, Note_on_c, 15, 34, 76
20, 189809, Note_on_c, 15, 34, 0
20, 189840, Note_on_c, 15, 46, 76
20, 189929, Note_on_c, 15, 46, 0
20, 189960, Note_on_c, 15, 34, 76
20, 190049, Note_on_c, 15, 34, 0
20, 190198, Control_c, 15, 11, 127
20, 190198, Program_c, 15, 45
20, 190200, Note_on_c, 15, 34, 52
20, 190319, Note_on_c, 15, 34, 0
20, 190440, Note_on_c, 15, 38, 52
20, 190559, Note_on_c, 15, 38, 0
20, 190680, Note_on_c, 15, 41, 52
20, 190799, Note_on_c, 15, 41, 0
20, 190920, Note_on_c, 15, 46, 52
20, 191039, Note_on_c, 15, 46, 0
20, 191160, Note_on_c, 15, 34, 52
20, 191279, Note_on_c, 15, 34, 0
20, 191400, Note_on_c, 15, 38, 52
20, 191519, Note_on_c, 15, 38, 0
20, 191640, Note_on_c, 15, 41, 52
20, 191759, Note_on_c, 15, 41, 0
20, 191880, Note_on_c, 15, 32, 52
20, 191999, Note_on_c, 15, 32, 0
20, 192120, Note_on_c, 15, 31, 52
20, 192239, Note_on_c, 15, 31, 0
20, 192360, Note_on_c, 15, 43, 56
20, 192479, Note_on_c, 15, 43, 0
20, 192600, Note_on_c, 15, 32, 60
20, 192719, Note_on_c, 15, 32, 0
20, 192840, Note_on_c, 15, 44, 64
20, 192959, Note_on_c, 15, 44, 0
20, 193080, Note_on_c, 15, 46, 52
20, 193199, Note_on_c, 15, 46, 0
20, 193320, Note_on_c, 15, 34, 68
20, 193439, Note_on_c, 15, 34, 0
20, 193560, Note_on_c, 15, 39, 52
20, 193679, Note_on_c, 15, 39, 0
20, 194040, Note_on_c, 15, 34, 52
20, 194159, Note_on_c, 15, 34, 0
20, 194460, Program_c, 15, 48
20, 194560, Note_on_c, 15, 46, 52
20, 194589, Note_on_c, 15, 46, 0
20, 194600, Note_on_c, 15, 46, 52
20, 194629, Note_on_c, 15, 46, 0
20, 194640, Note_on_c, 15, 46, 52
20, 194669, Note_on_c, 15, 46, 0
20, 194680, Note_on_c, 15, 46, 52
20, 194709, Note_on_c, 15, 46, 0
20, 194720, Note_on_c, 15, 46, 52
20, 194749, Note_on_c, 15, 46, 0
20, 194760, Note_on_c, 15, 44, 52
20, 194789, Note_on_c, 15, 44, 0
20, 194800, Note_on_c, 15, 43, 52
20, 194829, Note_on_c, 15, 43, 0
20, 194840, Note_on_c, 15, 41, 52
20, 194869, Note_on_c, 15, 41, 0
20, 194880, Note_on_c, 15, 39, 52
20, 194909, Note_on_c, 15, 39, 0
20, 194920, Note_on_c, 15, 38, 52
20, 194949, Note_on_c, 15, 38, 0
20, 194960, Note_on_c, 15, 36, 52
20, 194989, Note_on_c, 15, 36, 0
20, 195000, Note_on_c, 15, 34, 52
20, 195119, Note_on_c, 15, 34, 0
20, 195520, Note_on_c, 15, 44, 52
20, 195549, Note_on_c, 15, 44, 0
20, 195560, Note_on_c, 15, 44, 52
20, 195589, Note_on_c, 15, 44, 0
20, 195600, Note_on_c, 15, 44, 52
20, 195629, Note_on_c, 15, 44, 0
20, 195640, Note_on_c, 15, 44, 52
20, 195669, Note_on_c, 15, 44, 0
20, 195680, Note_on_c, 15, 43, 52
20, 195709, Note_on_c, 15, 43, 0
20, 195720, Note_on_c, 15, 41, 52
20, 195749, Note_on_c, 15, 41, 0
20, 195760, Note_on_c, 15, 39, 52
20, 195789, Note_on_c, 15, 39, 0
20, 195800, Note_on_c, 15, 38, 52
20, 195829, Note_on_c, 15, 38, 0
20, 195840, Note_on_c, 15, 36, 52
20, 195869, Note_on_c, 15, 36, 0
20, 195880, Note_on_c, 15, 34, 52
20, 195909, Note_on_c, 15, 34, 0
20, 195920, Note_on_c, 15, 32, 52
20, 195949, Note_on_c, 15, 32, 0
20, 195960, Note_on_c, 15, 31, 52
20, 196079, Note_on_c, 15, 31, 0
20, 196240, Note_on_c, 15, 43, 52
20, 196269, Note_on_c, 15, 43, 0
20, 196280, Note_on_c, 15, 39, 53
20, 196309, Note_on_c, 15, 39, 0
20, 196320, Note_on_c, 15, 34, 54
20, 196349, Note_on_c, 15, 34, 0
20, 196360, Note_on_c, 15, 39, 55
20, 196389, Note_on_c, 15, 39, 0
20, 196400, Note_on_c, 15, 31, 56
20, 196429, Note_on_c, 15, 31, 0
20, 196440, Note_on_c, 15, 32, 57
20, 196559, Note_on_c, 15, 32, 0
20, 196720, Note_on_c, 15, 44, 63
20, 196749, Note_on_c, 15, 44, 0
20, 196760, Note_on_c, 15, 41, 64
20, 196789, Note_on_c, 15, 41, 0
20, 196800, Note_on_c, 15, 36, 65
20, 196829, Note_on_c, 15, 36, 0
20, 196840, Note_on_c, 15, 41, 66
20, 196869, Note_on_c, 15, 41, 0
20, 196880, Note_on_c, 15, 32, 67
20, 196909, Note_on_c, 15, 32, 0
20, 196920, Note_on_c, 15, 34, 52
20, 197039, Note_on_c, 15, 34, 0
20, 197200, Note_on_c, 15, 34, 52
20, 197229, Note_on_c, 15, 34, 0
20, 197240, Note_on_c, 15, 34, 52
20, 197269, Note_on_c, 15, 34, 0
20, 197280, Note_on_c, 15, 34, 52
20, 197309, Note_on_c, 15, 34, 0
20, 197320, Note_on_c, 15, 34, 52
20, 197349, Note_on_c, 15, 34, 0
20, 197360, Note_on_c, 15, 34, 52
20, 197389, Note_on_c, 15, 34, 0
20, 197400, Note_on_c, 15, 39, 52
20, 197519, Note_on_c, 15, 39, 0
20, 197760, Note_on_c, 15, 39, 84
20, 197879, Note_on_c, 15, 39, 0
20, 197880, Note_on_c, 15, 43, 92
20, 198224, Note_on_c, 15, 43, 0
20, 198240, Note_on_c, 15, 39, 84
20, 198351, Note_on_c, 15, 39, 0
20, 198360, Note_on_c, 15, 38, 92
20, 198704, Note_on_c, 15, 38, 0
20, 198720, Note_on_c, 15, 41, 84
20, 198831, Note_on_c, 15, 41, 0
20, 198840, Note_on_c, 15, 44, 92
20, 199184, Note_on_c, 15, 44, 0
20, 199200, Note_on_c, 15, 41, 84
20, 199311, Note_on_c, 15, 41, 0
20, 199320, Note_on_c, 15, 39, 92
20, 199664, Note_on_c, 15, 39, 0
20, 199680, Note_on_c, 15, 43, 84
20, 199791, Note_on_c, 15, 43, 0
20, 199800, Note_on_c, 15, 46, 84
20, 199979, Note_on_c, 15, 46, 0
20, 200040, Note_on_c, 15, 46, 84
20, 200219, Note_on_c, 15, 46, 0
20, 200280, Note_on_c, 15, 46, 92
20, 200624, Note_on_c, 15, 46, 0
20, 200640, Note_on_c, 15, 43, 84
20, 200751, Note_on_c, 15, 43, 0
20, 200760, Note_on_c, 15, 46, 84
20, 200819, Note_on_c, 15, 46, 0
20, 200820, Note_on_c, 15, 44, 84
20, 200875, Note_on_c, 15, 44, 0
20, 200880, Note_on_c, 15, 41, 84
20, 200969, Note_on_c, 15, 41, 0
20, 201000, Note_on_c, 15, 44, 84
20, 201059, Note_on_c, 15, 44, 0
20, 201060, Note_on_c, 15, 43, 84
20, 201115, Note_on_c, 15, 43, 0
20, 201120, Note_on_c, 15, 39, 84
20, 201209, Note_on_c, 15, 39, 0
20, 201240, Note_on_c, 15, 43, 84
20, 201479, Note_on_c, 15, 43, 0
20, 201480, Note_on_c, 15, 41, 84
20, 201591, Note_on_c, 15, 41, 0
20, 201600, Note_on_c, 15, 34, 84
20, 201629, Note_on_c, 15, 34, 0
20, 201640, Note_on_c, 15, 34, 84
20, 201669, Note_on_c, 15, 34, 0
20, 201680, Note_on_c, 15, 33, 84
20, 201709, Note_on_c, 15, 33, 0
20, 201720, Note_on_c, 15, 34, 84
20, 201749, Note_on_c, 15, 34, 0
20, 201760, Note_on_c, 15, 34, 84
20, 201789, Note_on_c, 15, 34, 0
20, 201800, Note_on_c, 15, 33, 84
20, 201829, Note_on_c, 15, 33, 0
20, 201840, Note_on_c, 15, 34, 84
20, 201869, Note_on_c, 15, 34, 0
20, 201880, Note_on_c, 15, 34, 84
20, 201909, Note_on_c, 15, 34, 0
20, 201920, Note_on_c, 15, 36, 84
20, 201949, Note_on_c, 15, 36, 0
20, 201960, Note_on_c, 15, 38, 84
20, 201989, Note_on_c, 15, 38, 0
20, 202000, Note_on_c, 15, 38, 84
20, 202029, Note_on_c, 15, 38, 0
20, 202040, Note_on_c, 15, 39, 84
20, 202069, Note_on_c, 15, 39, 0
20, 202080, Note_on_c, 15, 41, 84
20, 202109, Note_on_c, 15, 41, 0
20, 202120, Note_on_c, 15, 41, 84
20, 202149, Note_on_c, 15, 41, 0
20, 202160, Note_on_c, 15, 43, 84
20, 202189, Note_on_c, 15, 43, 0
20, 202200, Note_on_c, 15, 44, 84
20, 202289, Note_on_c, 15, 44, 0
20, 202320, Note_on_c, 15, 44, 84
20, 202409, Note_on_c, 15, 44, 0
20, 202440, Note_on_c, 15, 44, 84
20, 202529, Note_on_c, 15, 44, 0
20, 202560, Note_on_c, 15, 34, 84
20, 202589, Note_on_c, 15, 34, 0
20, 202600, Note_on_c, 15, 34, 84
20, 202629, Note_on_c, 15, 34, 0
20, 202640, Note_on_c, 15, 33, 84
20, 202669, Note_on_c, 15, 33, 0
20, 202680, Note_on_c, 15, 34, 84
20, 202709, Note_on_c, 15, 34, 0
20, 202720, Note_on_c, 15, 34, 84
20, 202749, Note_on_c, 15, 34, 0
20, 202760, Note_on_c, 15, 36, 84
20, 202789, Note_on_c, 15, 36, 0
20, 202800, Note_on_c, 15, 38, 84
20, 202829, Note_on_c, 15, 38, 0
20, 202840, Note_on_c, 15, 38, 84
20, 202869, Note_on_c, 15, 38, 0
20, 202880, Note_on_c, 15, 39, 84
20, 202909, Note_on_c, 15, 39, 0
20, 202920, Note_on_c, 15, 41, 84
20, 202949, Note_on_c, 15, 41, 0
20, 202960, Note_on_c, 15, 41, 84
20, 202989, Note_on_c, 15, 41, 0
20, 203000, Note_on_c, 15, 43, 84
20, 203029, Note_on_c, 15, 43, 0
20, 203040, Note_on_c, 15, 44, 84
20, 203069, Note_on_c, 15, 44, 0
20, 203080, Note_on_c, 15, 44, 84
20, 203109, Note_on_c, 15, 44, 0
20, 203120, Note_on_c, 15, 43, 84
20, 203149, Note_on_c, 15, 43, 0
20, 203160, Note_on_c, 15, 44, 84
20, 203519, Note_on_c, 15, 44, 0
20, 203520, Note_on_c, 15, 45, 84
20, 203631, Note_on_c, 15, 45, 0
20, 203640, Note_on_c, 15, 46, 92
20, 203984, Note_on_c, 15, 46, 0
20, 204000, Note_on_c, 15, 43, 84
20, 204111, Note_on_c, 15, 43, 0
20, 204120, Note_on_c, 15, 41, 92
20, 204464, Note_on_c, 15, 41, 0
20, 204480, Note_on_c, 15, 48, 84
20, 204591, Note_on_c, 15, 48, 0
20, 204600, Note_on_c, 15, 39, 92
20, 204839, Note_on_c, 15, 39, 0
20, 204840, Note_on_c, 15, 43, 84
20, 205019, Note_on_c, 15, 43, 0
20, 205020, Note_on_c, 15, 41, 84
20, 205075, Note_on_c, 15, 41, 0
20, 205080, Note_on_c, 15, 39, 84
20, 205199, Note_on_c, 15, 39, 0
20, 205560, Note_on_c, 15, 39, 52
20, 205679, Note_on_c, 15, 39, 0
20, 206040, Note_on_c, 15, 34, 52
20, 206159, Note_on_c, 15, 34, 0
20, 206280, Note_on_c, 15, 41, 52
20, 206309, Note_on_c, 15, 41, 0
20, 206320, Note_on_c, 15, 43, 52
20, 206349, Note_on_c, 15, 43, 0
20, 206360, Note_on_c, 15, 44, 53
20, 206389, Note_on_c, 15, 44, 0
20, 206400, Note_on_c, 15, 43, 54
20, 206429, Note_on_c, 15, 43, 0
20, 206440, Note_on_c, 15, 41, 55
20, 206469, Note_on_c, 15, 41, 0
20, 206480, Note_on_c, 15, 39, 56
20, 206509, Note_on_c, 15, 39, 0
20, 206520, Note_on_c, 15, 38, 57
20, 206549, Note_on_c, 15, 38, 0
20, 206560, Note_on_c, 15, 39, 58
20, 206589, Note_on_c, 15, 39, 0
20, 206600, Note_on_c, 15, 41, 59
20, 206629, Note_on_c, 15, 41, 0
20, 206640, Note_on_c, 15, 39, 60
20, 206669, Note_on_c, 15, 39, 0
20, 206680, Note_on_c, 15, 38, 60
20, 206709, Note_on_c, 15, 38, 0
20, 206720, Note_on_c, 15, 36, 61
20, 206749, Note_on_c, 15, 36, 0
20, 206760, Note_on_c, 15, 46, 62
20, 206789, Note_on_c, 15, 46, 0
20, 206800, Note_on_c, 15, 48, 63
20, 206829, Note_on_c, 15, 48, 0
20, 206840, Note_on_c, 15, 46, 64
20, 206869, Note_on_c, 15, 46, 0
20, 206880, Note_on_c, 15, 44, 65
20, 206909, Note_on_c, 15, 44, 0
20, 206920, Note_on_c, 15, 43, 66
20, 206949, Note_on_c, 15, 43, 0
20, 206960, Note_on_c, 15, 41, 67
20, 206989, Note_on_c, 15, 41, 0
20, 207000, Note_on_c, 15, 39, 52
20, 207239, Note_on_c, 15, 39, 0
20, 207480, Note_on_c, 15, 39, 52
20, 207599, Note_on_c, 15, 39, 0
20, 207720, Note_on_c, 15, 39, 52
20, 207839, Note_on_c, 15, 39, 0
20, 207960, Note_on_c, 15, 34, 52
20, 208079, Note_on_c, 15, 34, 0
20, 208440, Note_on_c, 15, 39, 60
20, 208469, Note_on_c, 15, 39, 0
20, 208480, Note_on_c, 15, 39, 60
20, 208509, Note_on_c, 15, 39, 0
20, 208520, Note_on_c, 15, 41, 61
20, 208549, Note_on_c, 15, 41, 0
20, 208560, Note_on_c, 15, 43, 62
20, 208589, Note_on_c, 15, 43, 0
20, 208600, Note_on_c, 15, 31, 62
20, 208629, Note_on_c, 15, 31, 0
20, 208640, Note_on_c, 15, 32, 63
20, 208669, Note_on_c, 15, 32, 0
20, 208680, Note_on_c, 15, 34, 64
20, 208709, Note_on_c, 15, 34, 0
20, 208720, Note_on_c, 15, 36, 64
20, 208749, Note_on_c, 15, 36, 0
20, 208760, Note_on_c, 15, 37, 65
20, 208789, Note_on_c, 15, 37, 0
20, 208800, Note_on_c, 15, 39, 66
20, 208829, Note_on_c, 15, 39, 0
20, 208840, Note_on_c, 15, 41, 66
20, 208869, Note_on_c, 15, 41, 0
20, 208880, Note_on_c, 15, 43, 67
20, 208909, Note_on_c, 15, 43, 0
20, 208920, Note_on_c, 15, 44, 52
20, 209009, Note_on_c, 15, 44, 0
20, 209100, Note_on_c, 15, 39, 52
20, 209144, Note_on_c, 15, 39, 0
20, 209160, Note_on_c, 15, 44, 52
20, 209249, Note_on_c, 15, 44, 0
20, 209340, Note_on_c, 15, 39, 52
20, 209384, Note_on_c, 15, 39, 0
20, 209400, Note_on_c, 15, 46, 52
20, 209489, Note_on_c, 15, 46, 0
20, 209580, Note_on_c, 15, 39, 52
20, 209624, Note_on_c, 15, 39, 0
20, 209640, Note_on_c, 15, 46, 52
20, 209729, Note_on_c, 15, 46, 0
20, 209820, Note_on_c, 15, 39, 52
20, 209864, Note_on_c, 15, 39, 0
20, 209880, Note_on_c, 15, 43, 52
20, 209969, Note_on_c, 15, 43, 0
20, 210060, Note_on_c, 15, 39, 52
20, 210104, Note_on_c, 15, 39, 0
20, 210120, Note_on_c, 15, 43, 52
20, 210209, Note_on_c, 15, 43, 0
20, 210300, Note_on_c, 15, 39, 52
20, 210344, Note_on_c, 15, 39, 0
20, 210360, Note_on_c, 15, 44, 52
20, 210449, Note_on_c, 15, 44, 0
20, 210540, Note_on_c, 15, 39, 52
20, 210584, Note_on_c, 15, 39, 0
20, 210600, Note_on_c, 15, 44, 52
20, 210644, Note_on_c, 15, 44, 0
20, 210660, Note_on_c, 15, 44, 52
20, 210704, Note_on_c, 15, 44, 0
20, 210720, Note_on_c, 15, 39, 52
20, 210764, Note_on_c, 15, 39, 0
20, 210780, Note_on_c, 15, 36, 52
20, 210824, Note_on_c, 15, 36, 0
20, 210840, Note_on_c, 15, 32, 52
20, 210929, Note_on_c, 15, 32, 0
20, 210960, Note_on_c, 15, 36, 52
20, 211049, Note_on_c, 15, 36, 0
20, 211080, Note_on_c, 15, 37, 53
20, 211169, Note_on_c, 15, 37, 0
20, 211200, Note_on_c, 15, 31, 54
20, 211289, Note_on_c, 15, 31, 0
20, 211320, Note_on_c, 15, 32, 55
20, 211409, Note_on_c, 15, 32, 0
20, 211440, Note_on_c, 15, 36, 56
20, 211529, Note_on_c, 15, 36, 0
20, 211560, Note_on_c, 15, 39, 57
20, 211649, Note_on_c, 15, 39, 0
20, 211680, Note_on_c, 15, 32, 58
20, 211769, Note_on_c, 15, 32, 0
20, 211800, Note_on_c, 15, 33, 59
20, 211889, Note_on_c, 15, 33, 0
20, 211920, Note_on_c, 15, 36, 60
20, 212009, Note_on_c, 15, 36, 0
20, 212040, Note_on_c, 15, 39, 61
20, 212129, Note_on_c, 15, 39, 0
20, 212160, Note_on_c, 15, 34, 62
20, 212249, Note_on_c, 15, 34, 0
20, 212280, Note_on_c, 15, 33, 63
20, 212369, Note_on_c, 15, 33, 0
20, 212400, Note_on_c, 15, 36, 64
20, 212489, Note_on_c, 15, 36, 0
20, 212520, Note_on_c, 15, 39, 65
20, 212609, Note_on_c, 15, 39, 0
20, 212640, Note_on_c, 15, 33, 66
20, 212729, Note_on_c, 15, 33, 0
20, 212760, Note_on_c, 15, 34, 67
20, 212849, Note_on_c, 15, 34, 0
20, 212880, Note_on_c, 15, 39, 68
20, 212969, Note_on_c, 15, 39, 0
20, 213000, Note_on_c, 15, 42, 69
20, 213089, Note_on_c, 15, 42, 0
20, 213120, Note_on_c, 15, 35, 70
20, 213209, Note_on_c, 15, 35, 0
20, 213240, Note_on_c, 15, 34, 71
20, 213329, Note_on_c, 15, 34, 0
20, 213360, Note_on_c, 15, 39, 72
20, 213449, Note_on_c, 15, 39, 0
20, 213480, Note_on_c, 15, 42, 73
20, 213569, Note_on_c, 15, 42, 0
20, 213600, Note_on_c, 15, 34, 74
20, 213689, Note_on_c, 15, 34, 0
20, 213720, Note_on_c, 15, 35, 76
20, 213809, Note_on_c, 15, 35, 0
20, 213840, Note_on_c, 15, 39, 76
20, 213929, Note_on_c, 15, 39, 0
20, 213960, Note_on_c, 15, 42, 76
20, 214049, Note_on_c, 15, 42, 0
20, 214080, Note_on_c, 15, 35, 76
20, 214169, Note_on_c, 15, 35, 0
20, 214200, Note_on_c, 15, 36, 76
20, 214289, Note_on_c, 15, 36, 0
20, 214320, Note_on_c, 15, 42, 76
20, 214409, Note_on_c, 15, 42, 0
20, 214440, Note_on_c, 15, 45, 76
20, 214529, Note_on_c, 15, 45, 0
20, 214560, Note_on_c, 15, 36, 76
20, 214649, Note_on_c, 15, 36, 0
20, 214680, Note_on_c, 15, 37, 76
20, 214769, Note_on_c, 15, 37, 0
20, 214800, Note_on_c, 15, 42, 77
20, 214889, Note_on_c, 15, 42, 0
20, 214920, Note_on_c, 15, 45, 78
20, 215009, Note_on_c, 15, 45, 0
20, 215040, Note_on_c, 15, 49, 79
20, 215129, Note_on_c, 15, 49, 0
20, 215160, Note_on_c, 15, 38, 80
20, 215249, Note_on_c, 15, 38, 0
20, 215280, Note_on_c, 15, 42, 81
20, 215369, Note_on_c, 15, 42, 0
20, 215400, Note_on_c, 15, 45, 82
20, 215489, Note_on_c, 15, 45, 0
20, 215520, Note_on_c, 15, 50, 83
20, 215609, Note_on_c, 15, 50, 0
20, 215640, Note_on_c, 15, 38, 84
20, 215729, Note_on_c, 15, 38, 0
20, 215760, Note_on_c, 15, 43, 84
20, 215849, Note_on_c, 15, 43, 0
20, 215880, Note_on_c, 15, 46, 84
20, 215969, Note_on_c, 15, 46, 0
20, 216000, Note_on_c, 15, 50, 84
20, 216089, Note_on_c, 15, 50, 0
20, 216120, Note_on_c, 15, 38, 84
20, 216231, Note_on_c, 15, 38, 0
20, 216240, Note_on_c, 15, 50, 84
20, 216351, Note_on_c, 15, 50, 0
20, 216360, Note_on_c, 15, 38, 84
20, 216471, Note_on_c, 15, 38, 0
20, 216480, Note_on_c, 15, 50, 84
20, 216591, Note_on_c, 15, 50, 0
20, 216600, Note_on_c, 15, 31, 76
20, 216719, Note_on_c, 15, 31, 0
20, 217080, Note_on_c, 15, 31, 52
20, 217199, Note_on_c, 15, 31, 0
20, 217560, Note_on_c, 15, 31, 52
20, 217679, Note_on_c, 15, 31, 0
20, 218040, Note_on_c, 15, 31, 52
20, 218159, Note_on_c, 15, 31, 0
20, 218520, Note_on_c, 15, 31, 68
20, 218639, Note_on_c, 15, 31, 0
20, 219000, Note_on_c, 15, 31, 52
20, 219119, Note_on_c, 15, 31, 0
20, 219240, Note_on_c, 15, 31, 52
20, 219359, Note_on_c, 15, 31, 0
20, 219480, Note_on_c, 15, 31, 52
20, 219599, Note_on_c, 15, 31, 0
20, 219720, Note_on_c, 15, 31, 52
20, 219839, Note_on_c, 15, 31, 0
20, 219960, Note_on_c, 15, 31, 52
20, 220079, Note_on_c, 15, 31, 0
20, 220200, Note_on_c, 15, 31, 60
20, 220319, Note_on_c, 15, 31, 0
20, 220440, Note_on_c, 15, 31, 68
20, 220559, Note_on_c, 15, 31, 0
20, 220680, Note_on_c, 15, 31, 60
20, 220799, Note_on_c, 15, 31, 0
20, 220920, Note_on_c, 15, 31, 52
20, 221039, Note_on_c, 15, 31, 0
20, 221160, Note_on_c, 15, 31, 48
20, 221279, Note_on_c, 15, 31, 0
20, 221400, Note_on_c, 15, 31, 44
20, 221519, Note_on_c, 15, 31, 0
20, 221640, Note_on_c, 15, 31, 44
20, 221759, Note_on_c, 15, 31, 0
20, 221880, Note_on_c, 15, 31, 84
20, 221935, Note_on_c, 15, 31, 0
20, 221940, Note_on_c, 15, 43, 84
20, 221995, Note_on_c, 15, 43, 0
20, 222000, Note_on_c, 15, 43, 84
20, 222055, Note_on_c, 15, 43, 0
20, 222060, Note_on_c, 15, 43, 84
20, 222115, Note_on_c, 15, 43, 0
20, 222120, Note_on_c, 15, 43, 84
20, 222175, Note_on_c, 15, 43, 0
20, 222180, Note_on_c, 15, 43, 84
20, 222235, Note_on_c, 15, 43, 0
20, 222240, Note_on_c, 15, 43, 84
20, 222295, Note_on_c, 15, 43, 0
20, 222300, Note_on_c, 15, 43, 84
20, 222355, Note_on_c, 15, 43, 0
20, 222360, Note_on_c, 15, 43, 84
20, 222404, Note_on_c, 15, 43, 0
20, 222420, Note_on_c, 15, 41, 84
20, 222464, Note_on_c, 15, 41, 0
20, 222480, Note_on_c, 15, 39, 84
20, 222524, Note_on_c, 15, 39, 0
20, 222540, Note_on_c, 15, 38, 84
20, 222584, Note_on_c, 15, 38, 0
20, 222600, Note_on_c, 15, 39, 84
20, 222644, Note_on_c, 15, 39, 0
20, 222660, Note_on_c, 15, 38, 84
20, 222704, Note_on_c, 15, 38, 0
20, 222720, Note_on_c, 15, 36, 84
20, 222764, Note_on_c, 15, 36, 0
20, 222780, Note_on_c, 15, 34, 84
20, 222824, Note_on_c, 15, 34, 0
20, 222840, Note_on_c, 15, 36, 84
20, 222884, Note_on_c, 15, 36, 0
20, 222900, Note_on_c, 15, 46, 84
20, 222944, Note_on_c, 15, 46, 0
20, 222960, Note_on_c, 15, 45, 84
20, 223004, Note_on_c, 15, 45, 0
20, 223020, Note_on_c, 15, 43, 84
20, 223064, Note_on_c, 15, 43, 0
20, 223080, Note_on_c, 15, 44, 84
20, 223124, Note_on_c, 15, 44, 0
20, 223140, Note_on_c, 15, 43, 84
20, 223184, Note_on_c, 15, 43, 0
20, 223200, Note_on_c, 15, 41, 84
20, 223244, Note_on_c, 15, 41, 0
20, 223260, Note_on_c, 15, 39, 84
20, 223304, Note_on_c, 15, 39, 0
20, 223320, Note_on_c, 15, 38, 84
20, 223364, Note_on_c, 15, 38, 0
20, 223380, Note_on_c, 15, 39, 84
20, 223424, Note_on_c, 15, 39, 0
20, 223440, Note_on_c, 15, 41, 84
20, 223484, Note_on_c, 15, 41, 0
20, 223500, Note_on_c, 15, 39, 84
20, 223544, Note_on_c, 15, 39, 0
20, 223560, Note_on_c, 15, 38, 84
20, 223604, Note_on_c, 15, 38, 0
20, 223620, Note_on_c, 15, 34, 84
20, 223664, Note_on_c, 15, 34, 0
20, 223680, Note_on_c, 15, 36, 84
20, 223724, Note_on_c, 15, 36, 0
20, 223740, Note_on_c, 15, 38, 84
20, 223784, Note_on_c, 15, 38, 0
20, 223800, Note_on_c, 15, 39, 84
20, 223919, Note_on_c, 15, 39, 0
20, 224280, Note_on_c, 15, 34, 84
20, 224399, Note_on_c, 15, 34, 0
20, 224760, Note_on_c, 15, 39, 84
20, 224879, Note_on_c, 15, 39, 0
20, 225240, Note_on_c, 15, 34, 84
20, 225359, Note_on_c, 15, 34, 0
20, 225720, Note_on_c, 15, 39, 84
20, 225839, Note_on_c, 15, 39, 0
20, 226020, Note_on_c, 15, 39, 84
20, 226075, Note_on_c, 15, 39, 0
20, 226080, Note_on_c, 15, 39, 84
20, 226135, Note_on_c, 15, 39, 0
20, 226140, Note_on_c, 15, 39, 84
20, 226195, Note_on_c, 15, 39, 0
20, 226200, Note_on_c, 15, 34, 84
20, 226319, Note_on_c, 15, 34, 0
20, 226500, Note_on_c, 15, 34, 84
20, 226555, Note_on_c, 15, 34, 0
20, 226560, Note_on_c, 15, 34, 84
20, 226615, Note_on_c, 15, 34, 0
20, 226620, Note_on_c, 15, 34, 84
20, 226675, Note_on_c, 15, 34, 0
20, 226680, Note_on_c, 15, 39, 84
20, 226799, Note_on_c, 15, 39, 0
20, 226860, Note_on_c, 15, 39, 84
20, 226915, Note_on_c, 15, 39, 0
20, 226920, Note_on_c, 15, 43, 92
20, 227099, Note_on_c, 15, 43, 0
20, 227100, Note_on_c, 15, 39, 84
20, 227155, Note_on_c, 15, 39, 0
20, 227160, Note_on_c, 15, 38, 84
20, 227279, Note_on_c, 15, 38, 0
20, 227340, Note_on_c, 15, 41, 84
20, 227395, Note_on_c, 15, 41, 0
20, 227400, Note_on_c, 15, 44, 92
20, 227579, Note_on_c, 15, 44, 0
20, 227580, Note_on_c, 15, 41, 84
20, 227635, Note_on_c, 15, 41, 0
20, 227640, Note_on_c, 15, 39, 84
20, 227695, Note_on_c, 15, 39, 0
20, 227700, Note_on_c, 15, 39, 84
20, 227755, Note_on_c, 15, 39, 0
20, 227760, Note_on_c, 15, 39, 84
20, 227815, Note_on_c, 15, 39, 0
20, 227820, Note_on_c, 15, 39, 84
20, 227875, Note_on_c, 15, 39, 0
20, 227880, Note_on_c, 15, 43, 92
20, 227939, Note_on_c, 15, 43, 0
20, 227940, Note_on_c, 15, 39, 84
20, 227995, Note_on_c, 15, 39, 0
20, 228000, Note_on_c, 15, 39, 84
20, 228044, Note_on_c, 15, 39, 0
20, 228060, Note_on_c, 15, 39, 84
20, 228104, Note_on_c, 15, 39, 0
20, 228120, Note_on_c, 15, 38, 84
20, 228164, Note_on_c, 15, 38, 0
20, 228180, Note_on_c, 15, 41, 84
20, 228224, Note_on_c, 15, 41, 0
20, 228240, Note_on_c, 15, 41, 84
20, 228284, Note_on_c, 15, 41, 0
20, 228300, Note_on_c, 15, 41, 84
20, 228344, Note_on_c, 15, 41, 0
20, 228360, Note_on_c, 15, 44, 92
20, 228419, Note_on_c, 15, 44, 0
20, 228420, Note_on_c, 15, 41, 84
20, 228475, Note_on_c, 15, 41, 0
20, 228480, Note_on_c, 15, 41, 84
20, 228524, Note_on_c, 15, 41, 0
20, 228540, Note_on_c, 15, 41, 84
20, 228584, Note_on_c, 15, 41, 0
20, 228600, Note_on_c, 15, 39, 92
20, 228644, Note_on_c, 15, 39, 0
20, 228660, Note_on_c, 15, 39, 84
20, 228704, Note_on_c, 15, 39, 0
20, 228720, Note_on_c, 15, 43, 84
20, 228764, Note_on_c, 15, 43, 0
20, 228780, Note_on_c, 15, 39, 84
20, 228824, Note_on_c, 15, 39, 0
20, 228840, Note_on_c, 15, 38, 92
20, 228884, Note_on_c, 15, 38, 0
20, 228900, Note_on_c, 15, 41, 84
20, 228944, Note_on_c, 15, 41, 0
20, 228960, Note_on_c, 15, 44, 84
20, 229004, Note_on_c, 15, 44, 0
20, 229020, Note_on_c, 15, 41, 84
20, 229064, Note_on_c, 15, 41, 0
20, 229080, Note_on_c, 15, 39, 92
20, 229124, Note_on_c, 15, 39, 0
20, 229140, Note_on_c, 15, 39, 84
20, 229184, Note_on_c, 15, 39, 0
20, 229200, Note_on_c, 15, 43, 84
20, 229244, Note_on_c, 15, 43, 0
20, 229260, Note_on_c, 15, 39, 84
20, 229304, Note_on_c, 15, 39, 0
20, 229320, Note_on_c, 15, 38, 92
20, 229364, Note_on_c, 15, 38, 0
20, 229380, Note_on_c, 15, 41, 84
20, 229424, Note_on_c, 15, 41, 0
20, 229440, Note_on_c, 15, 44, 84
20, 229484, Note_on_c, 15, 44, 0
20, 229500, Note_on_c, 15, 41, 84
20, 229544, Note_on_c, 15, 41, 0
20, 229560, Note_on_c, 15, 39, 84
20, 229615, Note_on_c, 15, 39, 0
20, 229620, Note_on_c, 15, 39, 84
20, 229675, Note_on_c, 15, 39, 0
20, 229680, Note_on_c, 15, 41, 84
20, 229735, Note_on_c, 15, 41, 0
20, 229740, Note_on_c, 15, 43, 84
20, 229795, Note_on_c, 15, 43, 0
20, 229800, Note_on_c, 15, 44, 92
20, 229855, Note_on_c, 15, 44, 0
20, 229860, Note_on_c, 15, 43, 84
20, 229915, Note_on_c, 15, 43, 0
20, 229920, Note_on_c, 15, 44, 84
20, 229975, Note_on_c, 15, 44, 0
20, 229980, Note_on_c, 15, 45, 84
20, 230035, Note_on_c, 15, 45, 0
20, 230040, Note_on_c, 15, 46, 92
20, 230095, Note_on_c, 15, 46, 0
20, 230100, Note_on_c, 15, 45, 84
20, 230155, Note_on_c, 15, 45, 0
20, 230160, Note_on_c, 15, 46, 84
20, 230215, Note_on_c, 15, 46, 0
20, 230220, Note_on_c, 15, 47, 84
20, 230275, Note_on_c, 15, 47, 0
20, 230280, Note_on_c, 15, 48, 92
20, 230335, Note_on_c, 15, 48, 0
20, 230340, Note_on_c, 15, 47, 84
20, 230395, Note_on_c, 15, 47, 0
20, 230400, Note_on_c, 15, 48, 84
20, 230455, Note_on_c, 15, 48, 0
20, 230460, Note_on_c, 15, 50, 84
20, 230515, Note_on_c, 15, 50, 0
20, 230520, Note_on_c, 15, 51, 84
20, 230575, Note_on_c, 15, 51, 0
20, 230580, Note_on_c, 15, 48, 84
20, 230635, Note_on_c, 15, 48, 0
20, 230640, Note_on_c, 15, 47, 84
20, 230695, Note_on_c, 15, 47, 0
20, 230700, Note_on_c, 15, 48, 84
20, 230755, Note_on_c, 15, 48, 0
20, 230760, Note_on_c, 15, 43, 84
20, 230815, Note_on_c, 15, 43, 0
20, 230820, Note_on_c, 15, 44, 84
20, 230875, Note_on_c, 15, 44, 0
20, 230880, Note_on_c, 15, 48, 84
20, 230935, Note_on_c, 15, 48, 0
20, 230940, Note_on_c, 15, 44, 84
20, 230995, Note_on_c, 15, 44, 0
20, 231000, Note_on_c, 15, 40, 84
20, 231055, Note_on_c, 15, 40, 0
20, 231060, Note_on_c, 15, 41, 84
20, 231115, Note_on_c, 15, 41, 0
20, 231120, Note_on_c, 15, 44, 84
20, 231175, Note_on_c, 15, 44, 0
20, 231180, Note_on_c, 15, 41, 84
20, 231235, Note_on_c, 15, 41, 0
20, 231240, Note_on_c, 15, 45, 84
20, 231295, Note_on_c, 15, 45, 0
20, 231300, Note_on_c, 15, 46, 84
20, 231355, Note_on_c, 15, 46, 0
20, 231360, Note_on_c, 15, 50, 84
20, 231415, Note_on_c, 15, 50, 0
20, 231420, Note_on_c, 15, 46, 84
20, 231475, Note_on_c, 15, 46, 0
20, 231480, Note_on_c, 15, 47, 92
20, 231535, Note_on_c, 15, 47, 0
20, 231540, Note_on_c, 15, 48, 84
20, 231595, Note_on_c, 15, 48, 0
20, 231600, Note_on_c, 15, 51, 84
20, 231655, Note_on_c, 15, 51, 0
20, 231660, Note_on_c, 15, 48, 84
20, 231715, Note_on_c, 15, 48, 0
20, 231720, Note_on_c, 15, 43, 84
20, 231775, Note_on_c, 15, 43, 0
20, 231780, Note_on_c, 15, 44, 84
20, 231835, Note_on_c, 15, 44, 0
20, 231840, Note_on_c, 15, 48, 84
20, 231895, Note_on_c, 15, 48, 0
20, 231900, Note_on_c, 15, 44, 84
20, 231955, Note_on_c, 15, 44, 0
20, 231960, Note_on_c, 15, 40, 84
20, 232015, Note_on_c, 15, 40, 0
20, 232020, Note_on_c, 15, 41, 84
20, 232075, Note_on_c, 15, 41, 0
20, 232080, Note_on_c, 15, 44, 84
20, 232135, Note_on_c, 15, 44, 0
20, 232140, Note_on_c, 15, 41, 84
20, 232195, Note_on_c, 15, 41, 0
20, 232200, Note_on_c, 15, 33, 84
20, 232255, Note_on_c, 15, 33, 0
20, 232260, Note_on_c, 15, 34, 84
20, 232315, Note_on_c, 15, 34, 0
20, 232320, Note_on_c, 15, 38, 84
20, 232375, Note_on_c, 15, 38, 0
20, 232380, Note_on_c, 15, 34, 84
20, 232435, Note_on_c, 15, 34, 0
20, 232440, Note_on_c, 15, 39, 84
20, 232484, Note_on_c, 15, 39, 0
20, 232500, Note_on_c, 15, 34, 84
20, 232544, Note_on_c, 15, 34, 0
20, 232560, Note_on_c, 15, 39, 84
20, 232604, Note_on_c, 15, 39, 0
20, 232620, Note_on_c, 15, 34, 84
20, 232664, Note_on_c, 15, 34, 0
20, 232680, Note_on_c, 15, 39, 84
20, 232724, Note_on_c, 15, 39, 0
20, 232740, Note_on_c, 15, 34, 84
20, 232784, Note_on_c, 15, 34, 0
20, 232800, Note_on_c, 15, 43, 92
20, 232844, Note_on_c, 15, 43, 0
20, 232860, Note_on_c, 15, 39, 84
20, 232904, Note_on_c, 15, 39, 0
20, 232920, Note_on_c, 15, 43, 84
20, 232964, Note_on_c, 15, 43, 0
20, 232980, Note_on_c, 15, 39, 84
20, 233024, Note_on_c, 15, 39, 0
20, 233040, Note_on_c, 15, 43, 84
20, 233084, Note_on_c, 15, 43, 0
20, 233100, Note_on_c, 15, 39, 84
20, 233144, Note_on_c, 15, 39, 0
20, 233160, Note_on_c, 15, 43, 84
20, 233204, Note_on_c, 15, 43, 0
20, 233220, Note_on_c, 15, 39, 84
20, 233264, Note_on_c, 15, 39, 0
20, 233280, Note_on_c, 15, 34, 92
20, 233324, Note_on_c, 15, 34, 0
20, 233340, Note_on_c, 15, 31, 84
20, 233384, Note_on_c, 15, 31, 0
20, 233400, Note_on_c, 15, 34, 84
20, 233451, Note_on_c, 15, 34, 0
20, 233460, Note_on_c, 15, 31, 84
20, 233511, Note_on_c, 15, 31, 0
20, 233520, Note_on_c, 15, 39, 92
20, 233571, Note_on_c, 15, 39, 0
20, 233580, Note_on_c, 15, 34, 84
20, 233631, Note_on_c, 15, 34, 0
20, 233640, Note_on_c, 15, 39, 84
20, 233691, Note_on_c, 15, 39, 0
20, 233700, Note_on_c, 15, 34, 84
20, 233751, Note_on_c, 15, 34, 0
20, 233760, Note_on_c, 15, 43, 92
20, 233811, Note_on_c, 15, 43, 0
20, 233820, Note_on_c, 15, 39, 84
20, 233871, Note_on_c, 15, 39, 0
20, 233880, Note_on_c, 15, 43, 84
20, 233931, Note_on_c, 15, 43, 0
20, 233940, Note_on_c, 15, 39, 84
20, 233991, Note_on_c, 15, 39, 0
20, 234000, Note_on_c, 15, 46, 92
20, 234051, Note_on_c, 15, 46, 0
20, 234060, Note_on_c, 15, 43, 84
20, 234111, Note_on_c, 15, 43, 0
20, 234120, Note_on_c, 15, 46, 84
20, 234171, Note_on_c, 15, 46, 0
20, 234180, Note_on_c, 15, 43, 84
20, 234231, Note_on_c, 15, 43, 0
20, 234240, Note_on_c, 15, 51, 92
20, 234291, Note_on_c, 15, 51, 0
20, 234300, Note_on_c, 15, 46, 84
20, 234351, Note_on_c, 15, 46, 0
20, 234360, Note_on_c, 15, 51, 84
20, 234404, Note_on_c, 15, 51, 0
20, 234420, Note_on_c, 15, 51, 84
20, 234464, Note_on_c, 15, 51, 0
20, 234480, Note_on_c, 15, 50, 84
20, 234524, Note_on_c, 15, 50, 0
20, 234540, Note_on_c, 15, 48, 84
20, 234584, Note_on_c, 15, 48, 0
20, 234600, Note_on_c, 15, 46, 85
20, 234644, Note_on_c, 15, 46, 0
20, 234660, Note_on_c, 15, 44, 85
20, 234704, Note_on_c, 15, 44, 0
20, 234720, Note_on_c, 15, 43, 85
20, 234764, Note_on_c, 15, 43, 0
20, 234780, Note_on_c, 15, 41, 85
20, 234824, Note_on_c, 15, 41, 0
20, 234840, Note_on_c, 15, 39, 86
20, 234884, Note_on_c, 15, 39, 0
20, 234900, Note_on_c, 15, 51, 86
20, 234944, Note_on_c, 15, 51, 0
20, 234960, Note_on_c, 15, 50, 86
20, 235004, Note_on_c, 15, 50, 0
20, 235020, Note_on_c, 15, 48, 86
20, 235064, Note_on_c, 15, 48, 0
20, 235080, Note_on_c, 15, 46, 87
20, 235124, Note_on_c, 15, 46, 0
20, 235140, Note_on_c, 15, 44, 87
20, 235184, Note_on_c, 15, 44, 0
20, 235200, Note_on_c, 15, 43, 87
20, 235244, Note_on_c, 15, 43, 0
20, 235260, Note_on_c, 15, 41, 87
20, 235304, Note_on_c, 15, 41, 0
20, 235320, Note_on_c, 15, 39, 88
20, 235364, Note_on_c, 15, 39, 0
20, 235380, Note_on_c, 15, 39, 88
20, 235424, Note_on_c, 15, 39, 0
20, 235440, Note_on_c, 15, 41, 88
20, 235484, Note_on_c, 15, 41, 0
20, 235500, Note_on_c, 15, 43, 88
20, 235544, Note_on_c, 15, 43, 0
20, 235560, Note_on_c, 15, 44, 89
20, 235604, Note_on_c, 15, 44, 0
20, 235620, Note_on_c, 15, 46, 89
20, 235664, Note_on_c, 15, 46, 0
20, 235680, Note_on_c, 15, 48, 89
20, 235724, Note_on_c, 15, 48, 0
20, 235740, Note_on_c, 15, 50, 89
20, 235784, Note_on_c, 15, 50, 0
20, 235800, Note_on_c, 15, 51, 90
20, 235844, Note_on_c, 15, 51, 0
20, 235860, Note_on_c, 15, 39, 90
20, 235904, Note_on_c, 15, 39, 0
20, 235920, Note_on_c, 15, 41, 90
20, 235964, Note_on_c, 15, 41, 0
20, 235980, Note_on_c, 15, 43, 90
20, 236024, Note_on_c, 15, 43, 0
20, 236040, Note_on_c, 15, 44, 91
20, 236084, Note_on_c, 15, 44, 0
20, 236100, Note_on_c, 15, 46, 91
20, 236144, Note_on_c, 15, 46, 0
20, 236160, Note_on_c, 15, 48, 91
20, 236204, Note_on_c, 15, 48, 0
20, 236220, Note_on_c, 15, 50, 91
20, 236264, Note_on_c, 15, 50, 0
20, 236280, Note_on_c, 15, 51, 84
20, 236519, Note_on_c, 15, 51, 0
20, 236760, Note_on_c, 15, 39, 84
20, 236999, Note_on_c, 15, 39, 0
20, 237240, Note_on_c, 15, 39, 84
20, 237419, Note_on_c, 15, 39, 0
20, 237480, Note_on_c, 15, 43, 84
20, 237659, Note_on_c, 15, 43, 0
20, 237720, Note_on_c, 15, 46, 84
20, 237899, Note_on_c, 15, 46, 0
20, 237960, Note_on_c, 15, 43, 84
20, 238139, Note_on_c, 15, 43, 0
20, 238200, Note_on_c, 15, 39, 84
20, 238439, Note_on_c, 15, 39, 0
20, 238680, Note_on_c, 15, 39, 84
20, 238919, Note_on_c, 15, 39, 0
20, 239160, Note_on_c, 15, 39, 84
20, 239391, Note_on_c, 15, 39, 0
20, 239400, Note_on_c, 15, 51, 84
20, 239631, Note_on_c, 15, 51, 0
20, 239640, Note_on_c, 15, 46, 84
20, 239871, Note_on_c, 15, 46, 0
20, 239880, Note_on_c, 15, 43, 84
20, 240111, Note_on_c, 15, 43, 0
20, 240120, Note_on_c, 15, 39, 84
20, 240239, Note_on_c, 15, 39, 0
20, 240660, Note_on_c, 15, 39, 84
20, 240715, Note_on_c, 15, 39, 0
20, 240720, Note_on_c, 15, 41, 84
20, 240775, Note_on_c, 15, 41, 0
20, 240780, Note_on_c, 15, 43, 84
20, 240835, Note_on_c, 15, 43, 0
20, 240840, Note_on_c, 15, 44, 84
20, 240895, Note_on_c, 15, 44, 0
20, 240900, Note_on_c, 15, 46, 84
20, 240955, Note_on_c, 15, 46, 0
20, 240960, Note_on_c, 15, 48, 84
20, 241015, Note_on_c, 15, 48, 0
20, 241020, Note_on_c, 15, 50, 84
20, 241075, Note_on_c, 15, 50, 0
20, 241080, Note_on_c, 15, 51, 84
20, 241199, Note_on_c, 15, 51, 0
20, 241560, Note_on_c, 15, 39, 84
20, 241679, Note_on_c, 15, 39, 0
20, 242040, Note_on_c, 15, 39, 84
20, 242279, Note_on_c, 15, 39, 0
20, 242279, End_track
21, 0, Start_track
21, 0, Title_t, "Ludwig van Beethoven - Symphony No. 3, Op.55 (Eroica) - No. 4 Finale"
21, 0, MIDI_port, 0
21, 0, End_track
0, 0, End_of_file
