0, 0, Header, 1, 16, 240
1, 0, Start_track
1, 0, Sequencer_specific, 10, 0, 0, 91, 35, 1, 0, 5, 6, 42, 0
1, 0, Title_t, "Ludwig van Beethoven - Symphony No. 8 in F Major, Op.93"
1, 0, Instrument_name_t, "Conductor Track"
1, 0, SMPTE_offset, 96, 0, 3, 0, 0
1, 0, MIDI_port, 0
1, 0, Marker_t, "Originally Sequenced 26 Apr 1998"
1, 0, Key_signature, -2, "major"
1, 0, Tempo, 1363636
1, 0, Time_signature, 2, 2, 24, 8
1, 39600, Tempo, 476190
1, 39600, End_track
2, 0, Start_track
2, 0, Title_t, "2nd Movement - Allegretto scherzando"
2, 0, MIDI_port, 0
2, 0, End_track
3, 0, Start_track
3, 0, Title_t, "Sequenced by D. L. Viens 21 Oct 2000"
3, 0, MIDI_port, 0
3, 0, End_track
4, 0, Start_track
4, 0, Title_t, "dlviens@empire.net"
4, 0, MIDI_port, 0
4, 0, End_track
5, 0, Start_track
5, 0, MIDI_port, 0
5, 0, End_track
6, 0, Start_track
6, 0, Title_t, "Flute"
6, 0, MIDI_port, 0
6, 0, Program_c, 0, 73
6, 0, Control_c, 0, 7, 80
6, 0, Control_c, 0, 10, 60
6, 0, Control_c, 0, 11, 127
6, 4020, Note_on_c, 0, 81, 84
6, 4041, Note_on_c, 0, 81, 0
6, 4050, Note_on_c, 0, 84, 84
6, 4071, Note_on_c, 0, 84, 0
6, 4080, Note_on_c, 0, 87, 92
6, 4251, Note_on_c, 0, 87, 0
6, 4260, Note_on_c, 0, 84, 52
6, 4281, Note_on_c, 0, 84, 0
6, 4290, Note_on_c, 0, 82, 52
6, 4311, Note_on_c, 0, 82, 0
6, 4320, Note_on_c, 0, 81, 52
6, 4364, Note_on_c, 0, 81, 0
6, 4380, Note_on_c, 0, 82, 52
6, 4401, Note_on_c, 0, 82, 0
6, 4410, Note_on_c, 0, 84, 52
6, 4431, Note_on_c, 0, 84, 0
6, 4440, Note_on_c, 0, 77, 52
6, 4484, Note_on_c, 0, 77, 0
6, 4500, Note_on_c, 0, 79, 52
6, 4521, Note_on_c, 0, 79, 0
6, 4530, Note_on_c, 0, 81, 52
6, 4551, Note_on_c, 0, 81, 0
6, 4560, Note_on_c, 0, 82, 52
6, 4679, Note_on_c, 0, 82, 0
6, 6900, Note_on_c, 0, 84, 52
6, 6921, Note_on_c, 0, 84, 0
6, 6930, Note_on_c, 0, 86, 52
6, 6951, Note_on_c, 0, 86, 0
6, 6960, Note_on_c, 0, 82, 52
6, 7049, Note_on_c, 0, 82, 0
6, 11700, Note_on_c, 0, 84, 52
6, 11700, Note_on_c, 0, 88, 52
6, 11744, Note_on_c, 0, 84, 0
6, 11744, Note_on_c, 0, 88, 0
6, 11760, Note_on_c, 0, 89, 84
6, 11760, Note_on_c, 0, 84, 84
6, 11819, Note_on_c, 0, 89, 0
6, 11819, Note_on_c, 0, 84, 0
6, 13260, Note_on_c, 0, 77, 44
6, 13304, Note_on_c, 0, 77, 0
6, 13320, Note_on_c, 0, 87, 44
6, 13364, Note_on_c, 0, 87, 0
6, 13500, Note_on_c, 0, 86, 44
6, 13544, Note_on_c, 0, 86, 0
6, 13560, Note_on_c, 0, 85, 44
6, 13604, Note_on_c, 0, 85, 0
6, 15180, Note_on_c, 0, 84, 63
6, 15299, Note_on_c, 0, 84, 0
6, 15300, Note_on_c, 0, 81, 66
6, 15329, Note_on_c, 0, 81, 0
6, 15330, Note_on_c, 0, 89, 52
6, 15355, Note_on_c, 0, 89, 0
6, 15360, Note_on_c, 0, 88, 52
6, 15404, Note_on_c, 0, 88, 0
6, 15420, Note_on_c, 0, 88, 52
6, 15464, Note_on_c, 0, 88, 0
6, 15480, Note_on_c, 0, 88, 52
6, 15524, Note_on_c, 0, 88, 0
6, 15540, Note_on_c, 0, 89, 52
6, 15554, Note_on_c, 0, 89, 0
6, 15555, Note_on_c, 0, 88, 52
6, 15569, Note_on_c, 0, 88, 0
6, 15570, Note_on_c, 0, 86, 52
6, 15584, Note_on_c, 0, 86, 0
6, 15585, Note_on_c, 0, 88, 52
6, 15596, Note_on_c, 0, 88, 0
6, 15600, Note_on_c, 0, 89, 52
6, 15719, Note_on_c, 0, 89, 0
6, 16020, Note_on_c, 0, 82, 52
6, 16079, Note_on_c, 0, 82, 0
6, 16080, Note_on_c, 0, 81, 52
6, 16139, Note_on_c, 0, 81, 0
6, 16500, Note_on_c, 0, 84, 52
6, 16559, Note_on_c, 0, 84, 0
6, 16560, Note_on_c, 0, 82, 52
6, 16619, Note_on_c, 0, 82, 0
6, 16980, Note_on_c, 0, 86, 52
6, 17039, Note_on_c, 0, 86, 0
6, 17040, Note_on_c, 0, 84, 52
6, 17099, Note_on_c, 0, 84, 0
6, 17700, Note_on_c, 0, 86, 66
6, 17759, Note_on_c, 0, 86, 0
6, 17760, Note_on_c, 0, 84, 68
6, 17819, Note_on_c, 0, 84, 0
6, 18300, Note_on_c, 0, 86, 47
6, 18359, Note_on_c, 0, 86, 0
6, 18360, Note_on_c, 0, 84, 44
6, 18419, Note_on_c, 0, 84, 0
6, 18540, Note_on_c, 0, 87, 44
6, 18599, Note_on_c, 0, 87, 0
6, 18600, Note_on_c, 0, 86, 44
6, 18655, Note_on_c, 0, 86, 0
6, 18660, Note_on_c, 0, 84, 44
6, 18719, Note_on_c, 0, 84, 0
6, 18720, Note_on_c, 0, 82, 44
6, 18779, Note_on_c, 0, 82, 0
6, 24960, Note_on_c, 0, 87, 84
6, 25131, Note_on_c, 0, 87, 0
6, 25140, Note_on_c, 0, 84, 76
6, 25184, Note_on_c, 0, 84, 0
6, 25200, Note_on_c, 0, 86, 84
6, 25371, Note_on_c, 0, 86, 0
6, 25380, Note_on_c, 0, 82, 76
6, 25424, Note_on_c, 0, 82, 0
6, 25440, Note_on_c, 0, 84, 76
6, 25484, Note_on_c, 0, 84, 0
6, 25500, Note_on_c, 0, 81, 76
6, 25544, Note_on_c, 0, 81, 0
6, 25560, Note_on_c, 0, 77, 76
6, 25604, Note_on_c, 0, 77, 0
6, 25620, Note_on_c, 0, 81, 76
6, 25664, Note_on_c, 0, 81, 0
6, 25680, Note_on_c, 0, 82, 76
6, 25724, Note_on_c, 0, 82, 0
6, 25740, Note_on_c, 0, 86, 76
6, 25784, Note_on_c, 0, 86, 0
6, 25800, Note_on_c, 0, 89, 76
6, 25844, Note_on_c, 0, 89, 0
6, 25860, Note_on_c, 0, 86, 76
6, 25904, Note_on_c, 0, 86, 0
6, 25920, Note_on_c, 0, 87, 76
6, 25975, Note_on_c, 0, 87, 0
6, 25980, Note_on_c, 0, 87, 84
6, 26091, Note_on_c, 0, 87, 0
6, 26100, Note_on_c, 0, 84, 76
6, 26114, Note_on_c, 0, 84, 0
6, 26115, Note_on_c, 0, 86, 76
6, 26129, Note_on_c, 0, 86, 0
6, 26130, Note_on_c, 0, 82, 76
6, 26144, Note_on_c, 0, 82, 0
6, 26145, Note_on_c, 0, 84, 76
6, 26159, Note_on_c, 0, 84, 0
6, 26160, Note_on_c, 0, 86, 76
6, 26215, Note_on_c, 0, 86, 0
6, 26220, Note_on_c, 0, 86, 84
6, 26331, Note_on_c, 0, 86, 0
6, 26340, Note_on_c, 0, 82, 76
6, 26354, Note_on_c, 0, 82, 0
6, 26355, Note_on_c, 0, 84, 76
6, 26369, Note_on_c, 0, 84, 0
6, 26370, Note_on_c, 0, 81, 76
6, 26384, Note_on_c, 0, 81, 0
6, 26385, Note_on_c, 0, 82, 76
6, 26399, Note_on_c, 0, 82, 0
6, 26400, Note_on_c, 0, 84, 76
6, 26444, Note_on_c, 0, 84, 0
6, 26460, Note_on_c, 0, 81, 76
6, 26504, Note_on_c, 0, 81, 0
6, 26520, Note_on_c, 0, 77, 76
6, 26564, Note_on_c, 0, 77, 0
6, 26580, Note_on_c, 0, 81, 76
6, 26624, Note_on_c, 0, 81, 0
6, 26640, Note_on_c, 0, 82, 84
6, 26729, Note_on_c, 0, 82, 0
6, 27420, Note_on_c, 0, 84, 52
6, 27464, Note_on_c, 0, 84, 0
6, 27480, Note_on_c, 0, 77, 52
6, 27524, Note_on_c, 0, 77, 0
6, 27540, Note_on_c, 0, 87, 52
6, 27540, Note_on_c, 0, 84, 52
6, 27584, Note_on_c, 0, 87, 0
6, 27584, Note_on_c, 0, 84, 0
6, 27600, Note_on_c, 0, 86, 84
6, 27600, Note_on_c, 0, 82, 84
6, 27644, Note_on_c, 0, 86, 0
6, 27644, Note_on_c, 0, 82, 0
6, 28860, Note_on_c, 0, 87, 50
6, 28904, Note_on_c, 0, 87, 0
6, 28920, Note_on_c, 0, 86, 48
6, 28964, Note_on_c, 0, 86, 0
6, 29100, Note_on_c, 0, 82, 44
6, 29144, Note_on_c, 0, 82, 0
6, 29160, Note_on_c, 0, 92, 44
6, 29204, Note_on_c, 0, 92, 0
6, 29340, Note_on_c, 0, 91, 44
6, 29384, Note_on_c, 0, 91, 0
6, 29400, Note_on_c, 0, 90, 44
6, 29444, Note_on_c, 0, 90, 0
6, 29880, Note_on_c, 0, 77, 49
6, 29939, Note_on_c, 0, 77, 0
6, 29940, Note_on_c, 0, 87, 50
6, 29999, Note_on_c, 0, 87, 0
6, 30000, Note_on_c, 0, 86, 50
6, 30059, Note_on_c, 0, 86, 0
6, 30060, Note_on_c, 0, 84, 51
6, 30119, Note_on_c, 0, 84, 0
6, 30120, Note_on_c, 0, 82, 52
6, 30179, Note_on_c, 0, 82, 0
6, 31020, Note_on_c, 0, 89, 65
6, 31139, Note_on_c, 0, 89, 0
6, 31140, Note_on_c, 0, 86, 67
6, 31169, Note_on_c, 0, 86, 0
6, 31170, Note_on_c, 0, 82, 52
6, 31195, Note_on_c, 0, 82, 0
6, 31200, Note_on_c, 0, 81, 52
6, 31244, Note_on_c, 0, 81, 0
6, 31260, Note_on_c, 0, 81, 52
6, 31304, Note_on_c, 0, 81, 0
6, 31320, Note_on_c, 0, 81, 52
6, 31364, Note_on_c, 0, 81, 0
6, 31380, Note_on_c, 0, 82, 52
6, 31394, Note_on_c, 0, 82, 0
6, 31395, Note_on_c, 0, 81, 52
6, 31409, Note_on_c, 0, 81, 0
6, 31410, Note_on_c, 0, 79, 52
6, 31424, Note_on_c, 0, 79, 0
6, 31425, Note_on_c, 0, 81, 52
6, 31436, Note_on_c, 0, 81, 0
6, 31440, Note_on_c, 0, 82, 52
6, 31499, Note_on_c, 0, 82, 0
6, 31620, Note_on_c, 0, 79, 52
6, 31679, Note_on_c, 0, 79, 0
6, 31680, Note_on_c, 0, 77, 52
6, 31739, Note_on_c, 0, 77, 0
6, 31860, Note_on_c, 0, 75, 52
6, 31919, Note_on_c, 0, 75, 0
6, 31920, Note_on_c, 0, 74, 52
6, 31979, Note_on_c, 0, 74, 0
6, 32100, Note_on_c, 0, 80, 52
6, 32159, Note_on_c, 0, 80, 0
6, 32160, Note_on_c, 0, 79, 52
6, 32219, Note_on_c, 0, 79, 0
6, 32340, Note_on_c, 0, 77, 52
6, 32399, Note_on_c, 0, 77, 0
6, 32400, Note_on_c, 0, 75, 52
6, 32459, Note_on_c, 0, 75, 0
6, 32580, Note_on_c, 0, 82, 52
6, 32639, Note_on_c, 0, 82, 0
6, 32640, Note_on_c, 0, 80, 52
6, 32699, Note_on_c, 0, 80, 0
6, 32820, Note_on_c, 0, 79, 52
6, 32879, Note_on_c, 0, 79, 0
6, 32880, Note_on_c, 0, 77, 52
6, 32939, Note_on_c, 0, 77, 0
6, 33060, Note_on_c, 0, 84, 52
6, 33119, Note_on_c, 0, 84, 0
6, 33120, Note_on_c, 0, 82, 53
6, 33175, Note_on_c, 0, 82, 0
6, 33180, Note_on_c, 0, 80, 55
6, 33239, Note_on_c, 0, 80, 0
6, 33240, Note_on_c, 0, 79, 56
6, 33295, Note_on_c, 0, 79, 0
6, 33300, Note_on_c, 0, 77, 58
6, 33359, Note_on_c, 0, 77, 0
6, 33360, Note_on_c, 0, 84, 60
6, 33415, Note_on_c, 0, 84, 0
6, 33420, Note_on_c, 0, 82, 61
6, 33479, Note_on_c, 0, 82, 0
6, 33480, Note_on_c, 0, 80, 63
6, 33535, Note_on_c, 0, 80, 0
6, 33540, Note_on_c, 0, 79, 64
6, 33599, Note_on_c, 0, 79, 0
6, 33600, Note_on_c, 0, 77, 66
6, 33655, Note_on_c, 0, 77, 0
6, 33660, Note_on_c, 0, 84, 68
6, 33719, Note_on_c, 0, 84, 0
6, 33720, Note_on_c, 0, 82, 66
6, 33775, Note_on_c, 0, 82, 0
6, 33780, Note_on_c, 0, 80, 64
6, 33839, Note_on_c, 0, 80, 0
6, 33840, Note_on_c, 0, 79, 62
6, 33895, Note_on_c, 0, 79, 0
6, 33900, Note_on_c, 0, 77, 60
6, 33959, Note_on_c, 0, 77, 0
6, 33960, Note_on_c, 0, 84, 58
6, 34015, Note_on_c, 0, 84, 0
6, 34020, Note_on_c, 0, 82, 56
6, 34079, Note_on_c, 0, 82, 0
6, 34080, Note_on_c, 0, 80, 54
6, 34135, Note_on_c, 0, 80, 0
6, 34140, Note_on_c, 0, 79, 52
6, 34199, Note_on_c, 0, 79, 0
6, 34200, Note_on_c, 0, 77, 52
6, 34255, Note_on_c, 0, 77, 0
6, 34260, Note_on_c, 0, 84, 44
6, 34319, Note_on_c, 0, 84, 0
6, 34320, Note_on_c, 0, 82, 44
6, 34375, Note_on_c, 0, 82, 0
6, 34380, Note_on_c, 0, 80, 44
6, 34439, Note_on_c, 0, 80, 0
6, 34440, Note_on_c, 0, 79, 44
6, 34495, Note_on_c, 0, 79, 0
6, 34500, Note_on_c, 0, 80, 44
6, 34739, Note_on_c, 0, 80, 0
6, 36480, Note_on_c, 0, 89, 84
6, 36480, Note_on_c, 0, 86, 84
6, 36505, Note_on_c, 0, 89, 0
6, 36505, Note_on_c, 0, 86, 0
6, 36510, Note_on_c, 0, 86, 84
6, 36510, Note_on_c, 0, 89, 84
6, 36535, Note_on_c, 0, 86, 0
6, 36535, Note_on_c, 0, 89, 0
6, 36540, Note_on_c, 0, 86, 84
6, 36540, Note_on_c, 0, 89, 84
6, 36565, Note_on_c, 0, 86, 0
6, 36565, Note_on_c, 0, 89, 0
6, 36570, Note_on_c, 0, 86, 84
6, 36570, Note_on_c, 0, 89, 84
6, 36595, Note_on_c, 0, 86, 0
6, 36595, Note_on_c, 0, 89, 0
6, 36600, Note_on_c, 0, 86, 84
6, 36600, Note_on_c, 0, 89, 84
6, 36659, Note_on_c, 0, 86, 0
6, 36659, Note_on_c, 0, 89, 0
6, 36960, Note_on_c, 0, 91, 84
6, 36960, Note_on_c, 0, 87, 84
6, 36985, Note_on_c, 0, 91, 0
6, 36985, Note_on_c, 0, 87, 0
6, 36990, Note_on_c, 0, 91, 84
6, 36990, Note_on_c, 0, 87, 84
6, 37015, Note_on_c, 0, 91, 0
6, 37015, Note_on_c, 0, 87, 0
6, 37020, Note_on_c, 0, 87, 84
6, 37020, Note_on_c, 0, 91, 84
6, 37045, Note_on_c, 0, 87, 0
6, 37045, Note_on_c, 0, 91, 0
6, 37050, Note_on_c, 0, 87, 84
6, 37050, Note_on_c, 0, 91, 84
6, 37075, Note_on_c, 0, 87, 0
6, 37075, Note_on_c, 0, 91, 0
6, 37080, Note_on_c, 0, 87, 84
6, 37080, Note_on_c, 0, 91, 84
6, 37139, Note_on_c, 0, 87, 0
6, 37139, Note_on_c, 0, 91, 0
6, 37440, Note_on_c, 0, 87, 44
6, 37440, Note_on_c, 0, 91, 44
6, 37484, Note_on_c, 0, 87, 0
6, 37484, Note_on_c, 0, 91, 0
6, 37500, Note_on_c, 0, 91, 44
6, 37500, Note_on_c, 0, 87, 44
6, 37544, Note_on_c, 0, 91, 0
6, 37544, Note_on_c, 0, 87, 0
6, 37560, Note_on_c, 0, 89, 44
6, 37560, Note_on_c, 0, 86, 44
6, 37604, Note_on_c, 0, 89, 0
6, 37604, Note_on_c, 0, 86, 0
6, 37620, Note_on_c, 0, 89, 44
6, 37620, Note_on_c, 0, 84, 44
6, 37664, Note_on_c, 0, 89, 0
6, 37664, Note_on_c, 0, 84, 0
6, 37680, Note_on_c, 0, 86, 44
6, 37680, Note_on_c, 0, 89, 44
6, 37724, Note_on_c, 0, 86, 0
6, 37724, Note_on_c, 0, 89, 0
6, 37740, Note_on_c, 0, 87, 44
6, 37740, Note_on_c, 0, 91, 44
6, 37784, Note_on_c, 0, 87, 0
6, 37784, Note_on_c, 0, 91, 0
6, 37800, Note_on_c, 0, 89, 44
6, 37800, Note_on_c, 0, 86, 44
6, 37844, Note_on_c, 0, 89, 0
6, 37844, Note_on_c, 0, 86, 0
6, 37860, Note_on_c, 0, 84, 44
6, 37860, Note_on_c, 0, 89, 44
6, 37904, Note_on_c, 0, 84, 0
6, 37904, Note_on_c, 0, 89, 0
6, 37920, Note_on_c, 0, 89, 44
6, 37920, Note_on_c, 0, 86, 44
6, 37979, Note_on_c, 0, 89, 0
6, 37979, Note_on_c, 0, 86, 0
6, 38010, Note_on_c, 0, 84, 51
6, 38010, Note_on_c, 0, 89, 51
6, 38039, Note_on_c, 0, 84, 0
6, 38039, Note_on_c, 0, 89, 0
6, 38040, Note_on_c, 0, 89, 54
6, 38040, Note_on_c, 0, 86, 54
6, 38099, Note_on_c, 0, 89, 0
6, 38099, Note_on_c, 0, 86, 0
6, 38130, Note_on_c, 0, 84, 61
6, 38130, Note_on_c, 0, 89, 61
6, 38159, Note_on_c, 0, 84, 0
6, 38159, Note_on_c, 0, 89, 0
6, 38160, Note_on_c, 0, 86, 64
6, 38160, Note_on_c, 0, 89, 64
6, 38219, Note_on_c, 0, 86, 0
6, 38219, Note_on_c, 0, 89, 0
6, 38250, Note_on_c, 0, 89, 71
6, 38250, Note_on_c, 0, 84, 71
6, 38279, Note_on_c, 0, 89, 0
6, 38279, Note_on_c, 0, 84, 0
6, 38280, Note_on_c, 0, 89, 74
6, 38280, Note_on_c, 0, 86, 74
6, 38339, Note_on_c, 0, 89, 0
6, 38339, Note_on_c, 0, 86, 0
6, 38370, Note_on_c, 0, 89, 81
6, 38370, Note_on_c, 0, 84, 81
6, 38395, Note_on_c, 0, 89, 0
6, 38395, Note_on_c, 0, 84, 0
6, 38400, Note_on_c, 0, 89, 84
6, 38400, Note_on_c, 0, 86, 84
6, 38425, Note_on_c, 0, 89, 0
6, 38425, Note_on_c, 0, 86, 0
6, 38430, Note_on_c, 0, 82, 84
6, 38455, Note_on_c, 0, 82, 0
6, 38460, Note_on_c, 0, 82, 84
6, 38485, Note_on_c, 0, 82, 0
6, 38490, Note_on_c, 0, 82, 84
6, 38515, Note_on_c, 0, 82, 0
6, 38520, Note_on_c, 0, 82, 84
6, 38545, Note_on_c, 0, 82, 0
6, 38550, Note_on_c, 0, 82, 84
6, 38575, Note_on_c, 0, 82, 0
6, 38580, Note_on_c, 0, 82, 84
6, 38605, Note_on_c, 0, 82, 0
6, 38610, Note_on_c, 0, 82, 84
6, 38635, Note_on_c, 0, 82, 0
6, 38640, Note_on_c, 0, 82, 84
6, 38759, Note_on_c, 0, 82, 0
6, 38759, End_track
7, 0, Start_track
7, 0, Title_t, "Oboe"
7, 0, MIDI_port, 0
7, 0, Program_c, 1, 68
7, 0, Control_c, 1, 7, 76
7, 0, Control_c, 1, 10, 70
7, 0, Control_c, 1, 11, 127
7, 0, Note_on_c, 1, 77, 44
7, 0, Note_on_c, 1, 74, 44
7, 44, Note_on_c, 1, 77, 0
7, 44, Note_on_c, 1, 74, 0
7, 60, Note_on_c, 1, 74, 44
7, 60, Note_on_c, 1, 77, 44
7, 104, Note_on_c, 1, 74, 0
7, 104, Note_on_c, 1, 77, 0
7, 120, Note_on_c, 1, 74, 44
7, 120, Note_on_c, 1, 77, 44
7, 164, Note_on_c, 1, 74, 0
7, 164, Note_on_c, 1, 77, 0
7, 180, Note_on_c, 1, 74, 44
7, 180, Note_on_c, 1, 77, 44
7, 224, Note_on_c, 1, 74, 0
7, 224, Note_on_c, 1, 77, 0
7, 240, Note_on_c, 1, 74, 44
7, 240, Note_on_c, 1, 77, 44
7, 284, Note_on_c, 1, 74, 0
7, 284, Note_on_c, 1, 77, 0
7, 300, Note_on_c, 1, 77, 44
7, 300, Note_on_c, 1, 74, 44
7, 344, Note_on_c, 1, 77, 0
7, 344, Note_on_c, 1, 74, 0
7, 360, Note_on_c, 1, 74, 44
7, 360, Note_on_c, 1, 77, 44
7, 404, Note_on_c, 1, 74, 0
7, 404, Note_on_c, 1, 77, 0
7, 420, Note_on_c, 1, 77, 44
7, 420, Note_on_c, 1, 74, 44
7, 464, Note_on_c, 1, 77, 0
7, 464, Note_on_c, 1, 74, 0
7, 480, Note_on_c, 1, 77, 44
7, 480, Note_on_c, 1, 74, 44
7, 524, Note_on_c, 1, 77, 0
7, 524, Note_on_c, 1, 74, 0
7, 540, Note_on_c, 1, 77, 44
7, 540, Note_on_c, 1, 74, 44
7, 584, Note_on_c, 1, 77, 0
7, 584, Note_on_c, 1, 74, 0
7, 600, Note_on_c, 1, 77, 44
7, 600, Note_on_c, 1, 74, 44
7, 644, Note_on_c, 1, 77, 0
7, 644, Note_on_c, 1, 74, 0
7, 660, Note_on_c, 1, 77, 44
7, 660, Note_on_c, 1, 74, 44
7, 704, Note_on_c, 1, 77, 0
7, 704, Note_on_c, 1, 74, 0
7, 720, Note_on_c, 1, 74, 44
7, 720, Note_on_c, 1, 77, 44
7, 764, Note_on_c, 1, 74, 0
7, 764, Note_on_c, 1, 77, 0
7, 780, Note_on_c, 1, 74, 44
7, 780, Note_on_c, 1, 77, 44
7, 824, Note_on_c, 1, 74, 0
7, 824, Note_on_c, 1, 77, 0
7, 840, Note_on_c, 1, 77, 44
7, 840, Note_on_c, 1, 74, 44
7, 884, Note_on_c, 1, 77, 0
7, 884, Note_on_c, 1, 74, 0
7, 900, Note_on_c, 1, 74, 44
7, 900, Note_on_c, 1, 77, 44
7, 944, Note_on_c, 1, 74, 0
7, 944, Note_on_c, 1, 77, 0
7, 960, Note_on_c, 1, 75, 44
7, 960, Note_on_c, 1, 77, 44
7, 1004, Note_on_c, 1, 75, 0
7, 1004, Note_on_c, 1, 77, 0
7, 1020, Note_on_c, 1, 77, 44
7, 1020, Note_on_c, 1, 72, 44
7, 1064, Note_on_c, 1, 77, 0
7, 1064, Note_on_c, 1, 72, 0
7, 1080, Note_on_c, 1, 72, 44
7, 1080, Note_on_c, 1, 77, 44
7, 1124, Note_on_c, 1, 72, 0
7, 1124, Note_on_c, 1, 77, 0
7, 1140, Note_on_c, 1, 77, 44
7, 1140, Note_on_c, 1, 72, 44
7, 1184, Note_on_c, 1, 77, 0
7, 1184, Note_on_c, 1, 72, 0
7, 1200, Note_on_c, 1, 74, 44
7, 1200, Note_on_c, 1, 77, 44
7, 1244, Note_on_c, 1, 74, 0
7, 1244, Note_on_c, 1, 77, 0
7, 1260, Note_on_c, 1, 74, 44
7, 1260, Note_on_c, 1, 77, 44
7, 1304, Note_on_c, 1, 74, 0
7, 1304, Note_on_c, 1, 77, 0
7, 1320, Note_on_c, 1, 77, 44
7, 1320, Note_on_c, 1, 74, 44
7, 1364, Note_on_c, 1, 77, 0
7, 1364, Note_on_c, 1, 74, 0
7, 1380, Note_on_c, 1, 77, 44
7, 1380, Note_on_c, 1, 74, 44
7, 1424, Note_on_c, 1, 77, 0
7, 1424, Note_on_c, 1, 74, 0
7, 1440, Note_on_c, 1, 74, 44
7, 1440, Note_on_c, 1, 77, 44
7, 1484, Note_on_c, 1, 74, 0
7, 1484, Note_on_c, 1, 77, 0
7, 1500, Note_on_c, 1, 77, 44
7, 1500, Note_on_c, 1, 74, 44
7, 1544, Note_on_c, 1, 77, 0
7, 1544, Note_on_c, 1, 74, 0
7, 1560, Note_on_c, 1, 77, 44
7, 1560, Note_on_c, 1, 74, 44
7, 1604, Note_on_c, 1, 77, 0
7, 1604, Note_on_c, 1, 74, 0
7, 1620, Note_on_c, 1, 78, 44
7, 1620, Note_on_c, 1, 74, 44
7, 1664, Note_on_c, 1, 78, 0
7, 1664, Note_on_c, 1, 74, 0
7, 1680, Note_on_c, 1, 79, 44
7, 1680, Note_on_c, 1, 74, 44
7, 1724, Note_on_c, 1, 79, 0
7, 1724, Note_on_c, 1, 74, 0
7, 1740, Note_on_c, 1, 79, 44
7, 1740, Note_on_c, 1, 74, 44
7, 1784, Note_on_c, 1, 79, 0
7, 1784, Note_on_c, 1, 74, 0
7, 1800, Note_on_c, 1, 79, 44
7, 1800, Note_on_c, 1, 74, 44
7, 1844, Note_on_c, 1, 79, 0
7, 1844, Note_on_c, 1, 74, 0
7, 1860, Note_on_c, 1, 79, 44
7, 1860, Note_on_c, 1, 74, 44
7, 1904, Note_on_c, 1, 79, 0
7, 1904, Note_on_c, 1, 74, 0
7, 1920, Note_on_c, 1, 74, 44
7, 1920, Note_on_c, 1, 79, 44
7, 1964, Note_on_c, 1, 74, 0
7, 1964, Note_on_c, 1, 79, 0
7, 1980, Note_on_c, 1, 79, 44
7, 1980, Note_on_c, 1, 74, 44
7, 2024, Note_on_c, 1, 79, 0
7, 2024, Note_on_c, 1, 74, 0
7, 2040, Note_on_c, 1, 79, 44
7, 2040, Note_on_c, 1, 74, 44
7, 2084, Note_on_c, 1, 79, 0
7, 2084, Note_on_c, 1, 74, 0
7, 2100, Note_on_c, 1, 79, 44
7, 2100, Note_on_c, 1, 74, 44
7, 2144, Note_on_c, 1, 79, 0
7, 2144, Note_on_c, 1, 74, 0
7, 2160, Note_on_c, 1, 79, 44
7, 2160, Note_on_c, 1, 74, 44
7, 2204, Note_on_c, 1, 79, 0
7, 2204, Note_on_c, 1, 74, 0
7, 2220, Note_on_c, 1, 79, 44
7, 2220, Note_on_c, 1, 74, 44
7, 2264, Note_on_c, 1, 79, 0
7, 2264, Note_on_c, 1, 74, 0
7, 2280, Note_on_c, 1, 79, 44
7, 2280, Note_on_c, 1, 74, 44
7, 2324, Note_on_c, 1, 79, 0
7, 2324, Note_on_c, 1, 74, 0
7, 2340, Note_on_c, 1, 79, 44
7, 2340, Note_on_c, 1, 74, 44
7, 2384, Note_on_c, 1, 79, 0
7, 2384, Note_on_c, 1, 74, 0
7, 2400, Note_on_c, 1, 79, 44
7, 2400, Note_on_c, 1, 74, 44
7, 2444, Note_on_c, 1, 79, 0
7, 2444, Note_on_c, 1, 74, 0
7, 2460, Note_on_c, 1, 79, 44
7, 2460, Note_on_c, 1, 74, 44
7, 2504, Note_on_c, 1, 79, 0
7, 2504, Note_on_c, 1, 74, 0
7, 2520, Note_on_c, 1, 74, 44
7, 2520, Note_on_c, 1, 79, 44
7, 2564, Note_on_c, 1, 74, 0
7, 2564, Note_on_c, 1, 79, 0
7, 2580, Note_on_c, 1, 74, 44
7, 2580, Note_on_c, 1, 79, 44
7, 2624, Note_on_c, 1, 74, 0
7, 2624, Note_on_c, 1, 79, 0
7, 2640, Note_on_c, 1, 78, 44
7, 2640, Note_on_c, 1, 74, 44
7, 2684, Note_on_c, 1, 78, 0
7, 2684, Note_on_c, 1, 74, 0
7, 2700, Note_on_c, 1, 78, 44
7, 2700, Note_on_c, 1, 74, 44
7, 2744, Note_on_c, 1, 78, 0
7, 2744, Note_on_c, 1, 74, 0
7, 2760, Note_on_c, 1, 74, 44
7, 2760, Note_on_c, 1, 78, 44
7, 2804, Note_on_c, 1, 74, 0
7, 2804, Note_on_c, 1, 78, 0
7, 2820, Note_on_c, 1, 74, 44
7, 2820, Note_on_c, 1, 78, 44
7, 2864, Note_on_c, 1, 74, 0
7, 2864, Note_on_c, 1, 78, 0
7, 2880, Note_on_c, 1, 74, 44
7, 2880, Note_on_c, 1, 79, 44
7, 2924, Note_on_c, 1, 74, 0
7, 2924, Note_on_c, 1, 79, 0
7, 2940, Note_on_c, 1, 74, 44
7, 2940, Note_on_c, 1, 79, 44
7, 2984, Note_on_c, 1, 74, 0
7, 2984, Note_on_c, 1, 79, 0
7, 3000, Note_on_c, 1, 74, 44
7, 3000, Note_on_c, 1, 79, 44
7, 3044, Note_on_c, 1, 74, 0
7, 3044, Note_on_c, 1, 79, 0
7, 3060, Note_on_c, 1, 79, 44
7, 3060, Note_on_c, 1, 74, 44
7, 3104, Note_on_c, 1, 79, 0
7, 3104, Note_on_c, 1, 74, 0
7, 3120, Note_on_c, 1, 74, 44
7, 3120, Note_on_c, 1, 79, 44
7, 3164, Note_on_c, 1, 74, 0
7, 3164, Note_on_c, 1, 79, 0
7, 3180, Note_on_c, 1, 74, 44
7, 3180, Note_on_c, 1, 79, 44
7, 3224, Note_on_c, 1, 74, 0
7, 3224, Note_on_c, 1, 79, 0
7, 3240, Note_on_c, 1, 79, 44
7, 3240, Note_on_c, 1, 74, 44
7, 3284, Note_on_c, 1, 79, 0
7, 3284, Note_on_c, 1, 74, 0
7, 3300, Note_on_c, 1, 74, 44
7, 3300, Note_on_c, 1, 79, 44
7, 3344, Note_on_c, 1, 74, 0
7, 3344, Note_on_c, 1, 79, 0
7, 3360, Note_on_c, 1, 79, 44
7, 3360, Note_on_c, 1, 75, 44
7, 3404, Note_on_c, 1, 79, 0
7, 3404, Note_on_c, 1, 75, 0
7, 3420, Note_on_c, 1, 75, 44
7, 3420, Note_on_c, 1, 79, 44
7, 3464, Note_on_c, 1, 75, 0
7, 3464, Note_on_c, 1, 79, 0
7, 3480, Note_on_c, 1, 79, 44
7, 3480, Note_on_c, 1, 75, 44
7, 3524, Note_on_c, 1, 79, 0
7, 3524, Note_on_c, 1, 75, 0
7, 3540, Note_on_c, 1, 79, 44
7, 3540, Note_on_c, 1, 75, 44
7, 3584, Note_on_c, 1, 79, 0
7, 3584, Note_on_c, 1, 75, 0
7, 3600, Note_on_c, 1, 79, 44
7, 3600, Note_on_c, 1, 75, 44
7, 3644, Note_on_c, 1, 79, 0
7, 3644, Note_on_c, 1, 75, 0
7, 3660, Note_on_c, 1, 75, 44
7, 3660, Note_on_c, 1, 79, 44
7, 3704, Note_on_c, 1, 75, 0
7, 3704, Note_on_c, 1, 79, 0
7, 3720, Note_on_c, 1, 75, 44
7, 3720, Note_on_c, 1, 79, 44
7, 3764, Note_on_c, 1, 75, 0
7, 3764, Note_on_c, 1, 79, 0
7, 3780, Note_on_c, 1, 75, 44
7, 3780, Note_on_c, 1, 79, 44
7, 3824, Note_on_c, 1, 75, 0
7, 3824, Note_on_c, 1, 79, 0
7, 3840, Note_on_c, 1, 79, 44
7, 3840, Note_on_c, 1, 75, 44
7, 3884, Note_on_c, 1, 79, 0
7, 3884, Note_on_c, 1, 75, 0
7, 3900, Note_on_c, 1, 75, 44
7, 3900, Note_on_c, 1, 79, 44
7, 3944, Note_on_c, 1, 75, 0
7, 3944, Note_on_c, 1, 79, 0
7, 3960, Note_on_c, 1, 75, 44
7, 3960, Note_on_c, 1, 79, 44
7, 4004, Note_on_c, 1, 75, 0
7, 4004, Note_on_c, 1, 79, 0
7, 4020, Note_on_c, 1, 75, 84
7, 4020, Note_on_c, 1, 81, 84
7, 4251, Note_on_c, 1, 75, 0
7, 4251, Note_on_c, 1, 81, 0
7, 4260, Note_on_c, 1, 75, 52
7, 4260, Note_on_c, 1, 81, 52
7, 4304, Note_on_c, 1, 75, 0
7, 4304, Note_on_c, 1, 81, 0
7, 4320, Note_on_c, 1, 75, 52
7, 4320, Note_on_c, 1, 81, 52
7, 4364, Note_on_c, 1, 75, 0
7, 4364, Note_on_c, 1, 81, 0
7, 4380, Note_on_c, 1, 81, 52
7, 4380, Note_on_c, 1, 77, 52
7, 4424, Note_on_c, 1, 81, 0
7, 4424, Note_on_c, 1, 77, 0
7, 4440, Note_on_c, 1, 81, 52
7, 4440, Note_on_c, 1, 77, 52
7, 4484, Note_on_c, 1, 81, 0
7, 4484, Note_on_c, 1, 77, 0
7, 4500, Note_on_c, 1, 77, 52
7, 4500, Note_on_c, 1, 81, 52
7, 4544, Note_on_c, 1, 77, 0
7, 4544, Note_on_c, 1, 81, 0
7, 4560, Note_on_c, 1, 82, 52
7, 4560, Note_on_c, 1, 77, 52
7, 4604, Note_on_c, 1, 82, 0
7, 4604, Note_on_c, 1, 77, 0
7, 4620, Note_on_c, 1, 74, 52
7, 4620, Note_on_c, 1, 77, 52
7, 4664, Note_on_c, 1, 74, 0
7, 4664, Note_on_c, 1, 77, 0
7, 4680, Note_on_c, 1, 77, 52
7, 4680, Note_on_c, 1, 74, 52
7, 4724, Note_on_c, 1, 77, 0
7, 4724, Note_on_c, 1, 74, 0
7, 4740, Note_on_c, 1, 74, 52
7, 4740, Note_on_c, 1, 77, 52
7, 4784, Note_on_c, 1, 74, 0
7, 4784, Note_on_c, 1, 77, 0
7, 4800, Note_on_c, 1, 77, 52
7, 4800, Note_on_c, 1, 75, 52
7, 4844, Note_on_c, 1, 77, 0
7, 4844, Note_on_c, 1, 75, 0
7, 4860, Note_on_c, 1, 75, 52
7, 4860, Note_on_c, 1, 77, 52
7, 4904, Note_on_c, 1, 75, 0
7, 4904, Note_on_c, 1, 77, 0
7, 4920, Note_on_c, 1, 77, 52
7, 4920, Note_on_c, 1, 75, 52
7, 4964, Note_on_c, 1, 77, 0
7, 4964, Note_on_c, 1, 75, 0
7, 4980, Note_on_c, 1, 75, 52
7, 4980, Note_on_c, 1, 77, 52
7, 5024, Note_on_c, 1, 75, 0
7, 5024, Note_on_c, 1, 77, 0
7, 5040, Note_on_c, 1, 77, 52
7, 5040, Note_on_c, 1, 74, 52
7, 5084, Note_on_c, 1, 77, 0
7, 5084, Note_on_c, 1, 74, 0
7, 5100, Note_on_c, 1, 77, 52
7, 5100, Note_on_c, 1, 74, 52
7, 5144, Note_on_c, 1, 77, 0
7, 5144, Note_on_c, 1, 74, 0
7, 5160, Note_on_c, 1, 77, 52
7, 5160, Note_on_c, 1, 74, 52
7, 5204, Note_on_c, 1, 77, 0
7, 5204, Note_on_c, 1, 74, 0
7, 5220, Note_on_c, 1, 74, 52
7, 5220, Note_on_c, 1, 77, 52
7, 5264, Note_on_c, 1, 74, 0
7, 5264, Note_on_c, 1, 77, 0
7, 5280, Note_on_c, 1, 72, 52
7, 5280, Note_on_c, 1, 77, 52
7, 5324, Note_on_c, 1, 72, 0
7, 5324, Note_on_c, 1, 77, 0
7, 5340, Note_on_c, 1, 77, 52
7, 5340, Note_on_c, 1, 72, 52
7, 5384, Note_on_c, 1, 77, 0
7, 5384, Note_on_c, 1, 72, 0
7, 5400, Note_on_c, 1, 72, 52
7, 5400, Note_on_c, 1, 77, 52
7, 5444, Note_on_c, 1, 72, 0
7, 5444, Note_on_c, 1, 77, 0
7, 5460, Note_on_c, 1, 72, 52
7, 5460, Note_on_c, 1, 77, 52
7, 5504, Note_on_c, 1, 72, 0
7, 5504, Note_on_c, 1, 77, 0
7, 5520, Note_on_c, 1, 77, 52
7, 5520, Note_on_c, 1, 74, 52
7, 5564, Note_on_c, 1, 77, 0
7, 5564, Note_on_c, 1, 74, 0
7, 5580, Note_on_c, 1, 74, 52
7, 5580, Note_on_c, 1, 77, 52
7, 5624, Note_on_c, 1, 74, 0
7, 5624, Note_on_c, 1, 77, 0
7, 5640, Note_on_c, 1, 77, 52
7, 5640, Note_on_c, 1, 74, 52
7, 5684, Note_on_c, 1, 77, 0
7, 5684, Note_on_c, 1, 74, 0
7, 5700, Note_on_c, 1, 77, 52
7, 5700, Note_on_c, 1, 74, 52
7, 5744, Note_on_c, 1, 77, 0
7, 5744, Note_on_c, 1, 74, 0
7, 5760, Note_on_c, 1, 75, 52
7, 5760, Note_on_c, 1, 77, 52
7, 5804, Note_on_c, 1, 75, 0
7, 5804, Note_on_c, 1, 77, 0
7, 5820, Note_on_c, 1, 77, 52
7, 5820, Note_on_c, 1, 75, 52
7, 5864, Note_on_c, 1, 77, 0
7, 5864, Note_on_c, 1, 75, 0
7, 5880, Note_on_c, 1, 75, 52
7, 5880, Note_on_c, 1, 77, 52
7, 5924, Note_on_c, 1, 75, 0
7, 5924, Note_on_c, 1, 77, 0
7, 5940, Note_on_c, 1, 77, 52
7, 5940, Note_on_c, 1, 75, 52
7, 5984, Note_on_c, 1, 77, 0
7, 5984, Note_on_c, 1, 75, 0
7, 6000, Note_on_c, 1, 74, 52
7, 6000, Note_on_c, 1, 77, 52
7, 6044, Note_on_c, 1, 74, 0
7, 6044, Note_on_c, 1, 77, 0
7, 6060, Note_on_c, 1, 77, 52
7, 6060, Note_on_c, 1, 74, 52
7, 6104, Note_on_c, 1, 77, 0
7, 6104, Note_on_c, 1, 74, 0
7, 6120, Note_on_c, 1, 77, 52
7, 6120, Note_on_c, 1, 74, 52
7, 6164, Note_on_c, 1, 77, 0
7, 6164, Note_on_c, 1, 74, 0
7, 6180, Note_on_c, 1, 75, 76
7, 6180, Note_on_c, 1, 79, 76
7, 6224, Note_on_c, 1, 75, 0
7, 6224, Note_on_c, 1, 79, 0
7, 6240, Note_on_c, 1, 77, 76
7, 6240, Note_on_c, 1, 74, 76
7, 6284, Note_on_c, 1, 77, 0
7, 6284, Note_on_c, 1, 74, 0
7, 6300, Note_on_c, 1, 79, 84
7, 6300, Note_on_c, 1, 75, 84
7, 6344, Note_on_c, 1, 79, 0
7, 6344, Note_on_c, 1, 75, 0
7, 6360, Note_on_c, 1, 74, 76
7, 6360, Note_on_c, 1, 77, 76
7, 6404, Note_on_c, 1, 74, 0
7, 6404, Note_on_c, 1, 77, 0
7, 6420, Note_on_c, 1, 75, 84
7, 6420, Note_on_c, 1, 79, 84
7, 6464, Note_on_c, 1, 75, 0
7, 6464, Note_on_c, 1, 79, 0
7, 6480, Note_on_c, 1, 77, 76
7, 6480, Note_on_c, 1, 74, 76
7, 6599, Note_on_c, 1, 77, 0
7, 6599, Note_on_c, 1, 74, 0
7, 6900, Note_on_c, 1, 75, 52
7, 6921, Note_on_c, 1, 75, 0
7, 6930, Note_on_c, 1, 77, 52
7, 6951, Note_on_c, 1, 77, 0
7, 6960, Note_on_c, 1, 74, 52
7, 7004, Note_on_c, 1, 74, 0
7, 7020, Note_on_c, 1, 77, 52
7, 7020, Note_on_c, 1, 74, 52
7, 7064, Note_on_c, 1, 77, 0
7, 7064, Note_on_c, 1, 74, 0
7, 7080, Note_on_c, 1, 77, 52
7, 7080, Note_on_c, 1, 74, 52
7, 7124, Note_on_c, 1, 77, 0
7, 7124, Note_on_c, 1, 74, 0
7, 7140, Note_on_c, 1, 75, 76
7, 7140, Note_on_c, 1, 79, 76
7, 7184, Note_on_c, 1, 75, 0
7, 7184, Note_on_c, 1, 79, 0
7, 7200, Note_on_c, 1, 74, 76
7, 7200, Note_on_c, 1, 77, 76
7, 7244, Note_on_c, 1, 74, 0
7, 7244, Note_on_c, 1, 77, 0
7, 7260, Note_on_c, 1, 79, 84
7, 7260, Note_on_c, 1, 75, 84
7, 7304, Note_on_c, 1, 79, 0
7, 7304, Note_on_c, 1, 75, 0
7, 7320, Note_on_c, 1, 77, 76
7, 7320, Note_on_c, 1, 74, 76
7, 7364, Note_on_c, 1, 77, 0
7, 7364, Note_on_c, 1, 74, 0
7, 7380, Note_on_c, 1, 75, 84
7, 7380, Note_on_c, 1, 79, 84
7, 7424, Note_on_c, 1, 75, 0
7, 7424, Note_on_c, 1, 79, 0
7, 7440, Note_on_c, 1, 77, 76
7, 7440, Note_on_c, 1, 74, 76
7, 7559, Note_on_c, 1, 77, 0
7, 7559, Note_on_c, 1, 74, 0
7, 7620, Note_on_c, 1, 79, 76
7, 7620, Note_on_c, 1, 75, 76
7, 7675, Note_on_c, 1, 79, 0
7, 7675, Note_on_c, 1, 75, 0
7, 7680, Note_on_c, 1, 77, 72
7, 7680, Note_on_c, 1, 74, 72
7, 7799, Note_on_c, 1, 77, 0
7, 7799, Note_on_c, 1, 74, 0
7, 7860, Note_on_c, 1, 75, 60
7, 7860, Note_on_c, 1, 79, 60
7, 7915, Note_on_c, 1, 75, 0
7, 7915, Note_on_c, 1, 79, 0
7, 7920, Note_on_c, 1, 77, 56
7, 7920, Note_on_c, 1, 74, 56
7, 8039, Note_on_c, 1, 77, 0
7, 8039, Note_on_c, 1, 74, 0
7, 8100, Note_on_c, 1, 75, 44
7, 8100, Note_on_c, 1, 79, 44
7, 8125, Note_on_c, 1, 75, 0
7, 8125, Note_on_c, 1, 79, 0
7, 8130, Note_on_c, 1, 77, 44
7, 8130, Note_on_c, 1, 81, 44
7, 8155, Note_on_c, 1, 77, 0
7, 8155, Note_on_c, 1, 81, 0
7, 8160, Note_on_c, 1, 77, 44
7, 8160, Note_on_c, 1, 74, 44
7, 8204, Note_on_c, 1, 77, 0
7, 8204, Note_on_c, 1, 74, 0
7, 8220, Note_on_c, 1, 74, 44
7, 8220, Note_on_c, 1, 82, 44
7, 8264, Note_on_c, 1, 74, 0
7, 8264, Note_on_c, 1, 82, 0
7, 8280, Note_on_c, 1, 82, 46
7, 8280, Note_on_c, 1, 74, 46
7, 8324, Note_on_c, 1, 82, 0
7, 8324, Note_on_c, 1, 74, 0
7, 8340, Note_on_c, 1, 82, 48
7, 8340, Note_on_c, 1, 74, 48
7, 8384, Note_on_c, 1, 82, 0
7, 8384, Note_on_c, 1, 74, 0
7, 8400, Note_on_c, 1, 74, 50
7, 8400, Note_on_c, 1, 82, 50
7, 8444, Note_on_c, 1, 74, 0
7, 8444, Note_on_c, 1, 82, 0
7, 8460, Note_on_c, 1, 74, 52
7, 8460, Note_on_c, 1, 82, 52
7, 8504, Note_on_c, 1, 74, 0
7, 8504, Note_on_c, 1, 82, 0
7, 8520, Note_on_c, 1, 74, 54
7, 8520, Note_on_c, 1, 82, 54
7, 8564, Note_on_c, 1, 74, 0
7, 8564, Note_on_c, 1, 82, 0
7, 8580, Note_on_c, 1, 74, 56
7, 8580, Note_on_c, 1, 82, 56
7, 8624, Note_on_c, 1, 74, 0
7, 8624, Note_on_c, 1, 82, 0
7, 8640, Note_on_c, 1, 79, 58
7, 8640, Note_on_c, 1, 82, 58
7, 8684, Note_on_c, 1, 79, 0
7, 8684, Note_on_c, 1, 82, 0
7, 8700, Note_on_c, 1, 79, 61
7, 8700, Note_on_c, 1, 82, 61
7, 8744, Note_on_c, 1, 79, 0
7, 8744, Note_on_c, 1, 82, 0
7, 8760, Note_on_c, 1, 79, 63
7, 8760, Note_on_c, 1, 82, 63
7, 8804, Note_on_c, 1, 79, 0
7, 8804, Note_on_c, 1, 82, 0
7, 8820, Note_on_c, 1, 82, 65
7, 8820, Note_on_c, 1, 79, 65
7, 8864, Note_on_c, 1, 82, 0
7, 8864, Note_on_c, 1, 79, 0
7, 8880, Note_on_c, 1, 79, 67
7, 8880, Note_on_c, 1, 82, 67
7, 8924, Note_on_c, 1, 79, 0
7, 8924, Note_on_c, 1, 82, 0
7, 8940, Note_on_c, 1, 79, 69
7, 8940, Note_on_c, 1, 82, 69
7, 8984, Note_on_c, 1, 79, 0
7, 8984, Note_on_c, 1, 82, 0
7, 9000, Note_on_c, 1, 82, 71
7, 9000, Note_on_c, 1, 79, 71
7, 9044, Note_on_c, 1, 82, 0
7, 9044, Note_on_c, 1, 79, 0
7, 9060, Note_on_c, 1, 79, 73
7, 9060, Note_on_c, 1, 82, 73
7, 9104, Note_on_c, 1, 79, 0
7, 9104, Note_on_c, 1, 82, 0
7, 9120, Note_on_c, 1, 82, 76
7, 9120, Note_on_c, 1, 79, 76
7, 9164, Note_on_c, 1, 82, 0
7, 9164, Note_on_c, 1, 79, 0
7, 9180, Note_on_c, 1, 84, 76
7, 9180, Note_on_c, 1, 82, 76
7, 9224, Note_on_c, 1, 84, 0
7, 9224, Note_on_c, 1, 82, 0
7, 9240, Note_on_c, 1, 84, 76
7, 9240, Note_on_c, 1, 82, 76
7, 9284, Note_on_c, 1, 84, 0
7, 9284, Note_on_c, 1, 82, 0
7, 9300, Note_on_c, 1, 82, 76
7, 9300, Note_on_c, 1, 84, 76
7, 9344, Note_on_c, 1, 82, 0
7, 9344, Note_on_c, 1, 84, 0
7, 9360, Note_on_c, 1, 81, 76
7, 9360, Note_on_c, 1, 84, 76
7, 9404, Note_on_c, 1, 81, 0
7, 9404, Note_on_c, 1, 84, 0
7, 9420, Note_on_c, 1, 84, 76
7, 9420, Note_on_c, 1, 81, 76
7, 9464, Note_on_c, 1, 84, 0
7, 9464, Note_on_c, 1, 81, 0
7, 9480, Note_on_c, 1, 84, 76
7, 9480, Note_on_c, 1, 81, 76
7, 9524, Note_on_c, 1, 84, 0
7, 9524, Note_on_c, 1, 81, 0
7, 9540, Note_on_c, 1, 84, 76
7, 9540, Note_on_c, 1, 81, 76
7, 9584, Note_on_c, 1, 84, 0
7, 9584, Note_on_c, 1, 81, 0
7, 9600, Note_on_c, 1, 76, 76
7, 9600, Note_on_c, 1, 84, 76
7, 9644, Note_on_c, 1, 76, 0
7, 9644, Note_on_c, 1, 84, 0
7, 9660, Note_on_c, 1, 76, 76
7, 9660, Note_on_c, 1, 84, 76
7, 9704, Note_on_c, 1, 76, 0
7, 9704, Note_on_c, 1, 84, 0
7, 9720, Note_on_c, 1, 76, 76
7, 9720, Note_on_c, 1, 84, 76
7, 9764, Note_on_c, 1, 76, 0
7, 9764, Note_on_c, 1, 84, 0
7, 9780, Note_on_c, 1, 84, 76
7, 9780, Note_on_c, 1, 76, 76
7, 9824, Note_on_c, 1, 84, 0
7, 9824, Note_on_c, 1, 76, 0
7, 9840, Note_on_c, 1, 77, 76
7, 9840, Note_on_c, 1, 84, 76
7, 9884, Note_on_c, 1, 77, 0
7, 9884, Note_on_c, 1, 84, 0
7, 9900, Note_on_c, 1, 84, 76
7, 9900, Note_on_c, 1, 77, 76
7, 9944, Note_on_c, 1, 84, 0
7, 9944, Note_on_c, 1, 77, 0
7, 9960, Note_on_c, 1, 84, 76
7, 9960, Note_on_c, 1, 77, 76
7, 10004, Note_on_c, 1, 84, 0
7, 10004, Note_on_c, 1, 77, 0
7, 10020, Note_on_c, 1, 77, 76
7, 10020, Note_on_c, 1, 84, 76
7, 10064, Note_on_c, 1, 77, 0
7, 10064, Note_on_c, 1, 84, 0
7, 10080, Note_on_c, 1, 79, 76
7, 10080, Note_on_c, 1, 84, 76
7, 10124, Note_on_c, 1, 79, 0
7, 10124, Note_on_c, 1, 84, 0
7, 10140, Note_on_c, 1, 79, 76
7, 10140, Note_on_c, 1, 84, 76
7, 10184, Note_on_c, 1, 79, 0
7, 10184, Note_on_c, 1, 84, 0
7, 10200, Note_on_c, 1, 84, 76
7, 10200, Note_on_c, 1, 79, 76
7, 10244, Note_on_c, 1, 84, 0
7, 10244, Note_on_c, 1, 79, 0
7, 10260, Note_on_c, 1, 84, 76
7, 10260, Note_on_c, 1, 79, 76
7, 10304, Note_on_c, 1, 84, 0
7, 10304, Note_on_c, 1, 79, 0
7, 10320, Note_on_c, 1, 84, 76
7, 10320, Note_on_c, 1, 77, 76
7, 10364, Note_on_c, 1, 84, 0
7, 10364, Note_on_c, 1, 77, 0
7, 10380, Note_on_c, 1, 77, 76
7, 10380, Note_on_c, 1, 84, 76
7, 10424, Note_on_c, 1, 77, 0
7, 10424, Note_on_c, 1, 84, 0
7, 10440, Note_on_c, 1, 84, 76
7, 10440, Note_on_c, 1, 77, 76
7, 10484, Note_on_c, 1, 84, 0
7, 10484, Note_on_c, 1, 77, 0
7, 10500, Note_on_c, 1, 84, 76
7, 10500, Note_on_c, 1, 77, 76
7, 10544, Note_on_c, 1, 84, 0
7, 10544, Note_on_c, 1, 77, 0
7, 10560, Note_on_c, 1, 76, 76
7, 10560, Note_on_c, 1, 84, 76
7, 10604, Note_on_c, 1, 76, 0
7, 10604, Note_on_c, 1, 84, 0
7, 10620, Note_on_c, 1, 84, 76
7, 10620, Note_on_c, 1, 76, 76
7, 10664, Note_on_c, 1, 84, 0
7, 10664, Note_on_c, 1, 76, 0
7, 10680, Note_on_c, 1, 84, 76
7, 10680, Note_on_c, 1, 76, 76
7, 10724, Note_on_c, 1, 84, 0
7, 10724, Note_on_c, 1, 76, 0
7, 10740, Note_on_c, 1, 84, 76
7, 10740, Note_on_c, 1, 76, 76
7, 10784, Note_on_c, 1, 84, 0
7, 10784, Note_on_c, 1, 76, 0
7, 10800, Note_on_c, 1, 77, 84
7, 10889, Note_on_c, 1, 77, 0
7, 11340, Note_on_c, 1, 74, 52
7, 11384, Note_on_c, 1, 74, 0
7, 11400, Note_on_c, 1, 71, 52
7, 11444, Note_on_c, 1, 71, 0
7, 11580, Note_on_c, 1, 79, 52
7, 11624, Note_on_c, 1, 79, 0
7, 11640, Note_on_c, 1, 72, 52
7, 11684, Note_on_c, 1, 72, 0
7, 11760, Note_on_c, 1, 77, 84
7, 11760, Note_on_c, 1, 81, 84
7, 11819, Note_on_c, 1, 77, 0
7, 11819, Note_on_c, 1, 81, 0
7, 12300, Note_on_c, 1, 74, 52
7, 12344, Note_on_c, 1, 74, 0
7, 12360, Note_on_c, 1, 71, 52
7, 12404, Note_on_c, 1, 71, 0
7, 12540, Note_on_c, 1, 67, 52
7, 12584, Note_on_c, 1, 67, 0
7, 12600, Note_on_c, 1, 77, 51
7, 12644, Note_on_c, 1, 77, 0
7, 12780, Note_on_c, 1, 76, 49
7, 12824, Note_on_c, 1, 76, 0
7, 12840, Note_on_c, 1, 72, 48
7, 12884, Note_on_c, 1, 72, 0
7, 13020, Note_on_c, 1, 82, 46
7, 13064, Note_on_c, 1, 82, 0
7, 13080, Note_on_c, 1, 81, 46
7, 13124, Note_on_c, 1, 81, 0
7, 13260, Note_on_c, 1, 65, 44
7, 13260, Note_on_c, 1, 77, 44
7, 13304, Note_on_c, 1, 65, 0
7, 13304, Note_on_c, 1, 77, 0
7, 13320, Note_on_c, 1, 65, 44
7, 13320, Note_on_c, 1, 77, 44
7, 13364, Note_on_c, 1, 65, 0
7, 13364, Note_on_c, 1, 77, 0
7, 13500, Note_on_c, 1, 65, 44
7, 13500, Note_on_c, 1, 77, 44
7, 13544, Note_on_c, 1, 65, 0
7, 13544, Note_on_c, 1, 77, 0
7, 13560, Note_on_c, 1, 77, 44
7, 13560, Note_on_c, 1, 65, 44
7, 13604, Note_on_c, 1, 77, 0
7, 13604, Note_on_c, 1, 65, 0
7, 13800, Note_on_c, 1, 72, 44
7, 13859, Note_on_c, 1, 72, 0
7, 13860, Note_on_c, 1, 77, 45
7, 13919, Note_on_c, 1, 77, 0
7, 13920, Note_on_c, 1, 76, 47
7, 13979, Note_on_c, 1, 76, 0
7, 13980, Note_on_c, 1, 74, 48
7, 14039, Note_on_c, 1, 74, 0
7, 14040, Note_on_c, 1, 72, 50
7, 14099, Note_on_c, 1, 72, 0
7, 14100, Note_on_c, 1, 82, 52
7, 14100, Note_on_c, 1, 76, 52
7, 14159, Note_on_c, 1, 82, 0
7, 14159, Note_on_c, 1, 76, 0
7, 14160, Note_on_c, 1, 77, 53
7, 14160, Note_on_c, 1, 81, 53
7, 14219, Note_on_c, 1, 77, 0
7, 14219, Note_on_c, 1, 81, 0
7, 14220, Note_on_c, 1, 79, 55
7, 14220, Note_on_c, 1, 70, 55
7, 14279, Note_on_c, 1, 79, 0
7, 14279, Note_on_c, 1, 70, 0
7, 14280, Note_on_c, 1, 77, 56
7, 14280, Note_on_c, 1, 69, 56
7, 14339, Note_on_c, 1, 77, 0
7, 14339, Note_on_c, 1, 69, 0
7, 14640, Control_c, 1, 11, 96
7, 14760, Note_on_c, 1, 72, 68
7, 14760, Control_c, 1, 11, 96
7, 14800, Control_c, 1, 11, 99
7, 14840, Control_c, 1, 11, 101
7, 14880, Control_c, 1, 11, 104
7, 14920, Control_c, 1, 11, 106
7, 14960, Control_c, 1, 11, 109
7, 15000, Control_c, 1, 11, 112
7, 15040, Control_c, 1, 11, 114
7, 15080, Control_c, 1, 11, 117
7, 15120, Control_c, 1, 11, 119
7, 15160, Control_c, 1, 11, 122
7, 15171, Note_on_c, 1, 72, 0
7, 15180, Note_on_c, 1, 72, 68
7, 15200, Control_c, 1, 11, 124
7, 15240, Control_c, 1, 11, 96
7, 15240, Note_on_c, 1, 72, 68
7, 15299, Note_on_c, 1, 72, 0
7, 15300, Note_on_c, 1, 81, 68
7, 15329, Note_on_c, 1, 81, 0
7, 15330, Note_on_c, 1, 77, 68
7, 15355, Note_on_c, 1, 77, 0
7, 15360, Note_on_c, 1, 76, 68
7, 15404, Note_on_c, 1, 72, 0
7, 15404, Note_on_c, 1, 76, 0
7, 15420, Note_on_c, 1, 76, 68
7, 15420, Note_on_c, 1, 82, 68
7, 15464, Note_on_c, 1, 76, 0
7, 15464, Note_on_c, 1, 82, 0
7, 15480, Note_on_c, 1, 82, 68
7, 15480, Note_on_c, 1, 76, 68
7, 15524, Note_on_c, 1, 82, 0
7, 15524, Note_on_c, 1, 76, 0
7, 15540, Note_on_c, 1, 82, 68
7, 15540, Note_on_c, 1, 76, 68
7, 15584, Note_on_c, 1, 82, 0
7, 15584, Note_on_c, 1, 76, 0
7, 15600, Note_on_c, 1, 77, 68
7, 15600, Note_on_c, 1, 81, 68
7, 15719, Note_on_c, 1, 77, 0
7, 15719, Note_on_c, 1, 81, 0
7, 15930, Control_c, 1, 11, 127
7, 16020, Note_on_c, 1, 79, 52
7, 16079, Note_on_c, 1, 79, 0
7, 16080, Note_on_c, 1, 77, 52
7, 16139, Note_on_c, 1, 77, 0
7, 16500, Note_on_c, 1, 81, 52
7, 16559, Note_on_c, 1, 81, 0
7, 16560, Note_on_c, 1, 79, 52
7, 16619, Note_on_c, 1, 79, 0
7, 16980, Note_on_c, 1, 82, 52
7, 17039, Note_on_c, 1, 82, 0
7, 17040, Note_on_c, 1, 81, 52
7, 17099, Note_on_c, 1, 81, 0
7, 17700, Note_on_c, 1, 82, 66
7, 17759, Note_on_c, 1, 82, 0
7, 17760, Note_on_c, 1, 81, 68
7, 17819, Note_on_c, 1, 81, 0
7, 18300, Note_on_c, 1, 82, 47
7, 18359, Note_on_c, 1, 82, 0
7, 18360, Note_on_c, 1, 81, 44
7, 18419, Note_on_c, 1, 81, 0
7, 18660, Note_on_c, 1, 75, 44
7, 18719, Note_on_c, 1, 75, 0
7, 18720, Note_on_c, 1, 70, 44
7, 18720, Note_on_c, 1, 74, 44
7, 18775, Note_on_c, 1, 70, 0
7, 18775, Note_on_c, 1, 74, 0
7, 18780, Note_on_c, 1, 77, 44
7, 18780, Note_on_c, 1, 74, 44
7, 18824, Note_on_c, 1, 77, 0
7, 18824, Note_on_c, 1, 74, 0
7, 18840, Note_on_c, 1, 77, 44
7, 18840, Note_on_c, 1, 74, 44
7, 18884, Note_on_c, 1, 77, 0
7, 18884, Note_on_c, 1, 74, 0
7, 18900, Note_on_c, 1, 74, 44
7, 18900, Note_on_c, 1, 77, 44
7, 18944, Note_on_c, 1, 74, 0
7, 18944, Note_on_c, 1, 77, 0
7, 18960, Note_on_c, 1, 77, 44
7, 18960, Note_on_c, 1, 74, 44
7, 19004, Note_on_c, 1, 77, 0
7, 19004, Note_on_c, 1, 74, 0
7, 19020, Note_on_c, 1, 77, 44
7, 19020, Note_on_c, 1, 74, 44
7, 19064, Note_on_c, 1, 77, 0
7, 19064, Note_on_c, 1, 74, 0
7, 19080, Note_on_c, 1, 77, 44
7, 19080, Note_on_c, 1, 74, 44
7, 19124, Note_on_c, 1, 77, 0
7, 19124, Note_on_c, 1, 74, 0
7, 19140, Note_on_c, 1, 77, 44
7, 19140, Note_on_c, 1, 74, 44
7, 19184, Note_on_c, 1, 77, 0
7, 19184, Note_on_c, 1, 74, 0
7, 19200, Note_on_c, 1, 77, 44
7, 19200, Note_on_c, 1, 74, 44
7, 19244, Note_on_c, 1, 77, 0
7, 19244, Note_on_c, 1, 74, 0
7, 19260, Note_on_c, 1, 74, 44
7, 19260, Note_on_c, 1, 77, 44
7, 19304, Note_on_c, 1, 74, 0
7, 19304, Note_on_c, 1, 77, 0
7, 19320, Note_on_c, 1, 77, 44
7, 19320, Note_on_c, 1, 74, 44
7, 19364, Note_on_c, 1, 77, 0
7, 19364, Note_on_c, 1, 74, 0
7, 19380, Note_on_c, 1, 74, 44
7, 19380, Note_on_c, 1, 77, 44
7, 19424, Note_on_c, 1, 74, 0
7, 19424, Note_on_c, 1, 77, 0
7, 19440, Note_on_c, 1, 77, 44
7, 19440, Note_on_c, 1, 74, 44
7, 19484, Note_on_c, 1, 77, 0
7, 19484, Note_on_c, 1, 74, 0
7, 19500, Note_on_c, 1, 74, 44
7, 19500, Note_on_c, 1, 77, 44
7, 19544, Note_on_c, 1, 74, 0
7, 19544, Note_on_c, 1, 77, 0
7, 19560, Note_on_c, 1, 77, 44
7, 19560, Note_on_c, 1, 74, 44
7, 19604, Note_on_c, 1, 77, 0
7, 19604, Note_on_c, 1, 74, 0
7, 19620, Note_on_c, 1, 74, 44
7, 19620, Note_on_c, 1, 77, 44
7, 19664, Note_on_c, 1, 74, 0
7, 19664, Note_on_c, 1, 77, 0
7, 19680, Note_on_c, 1, 77, 44
7, 19680, Note_on_c, 1, 75, 44
7, 19724, Note_on_c, 1, 77, 0
7, 19724, Note_on_c, 1, 75, 0
7, 19740, Note_on_c, 1, 77, 44
7, 19740, Note_on_c, 1, 75, 44
7, 19784, Note_on_c, 1, 77, 0
7, 19784, Note_on_c, 1, 75, 0
7, 19800, Note_on_c, 1, 75, 44
7, 19800, Note_on_c, 1, 77, 44
7, 19844, Note_on_c, 1, 75, 0
7, 19844, Note_on_c, 1, 77, 0
7, 19860, Note_on_c, 1, 77, 44
7, 19860, Note_on_c, 1, 75, 44
7, 19904, Note_on_c, 1, 77, 0
7, 19904, Note_on_c, 1, 75, 0
7, 19920, Note_on_c, 1, 74, 44
7, 19920, Note_on_c, 1, 77, 44
7, 19964, Note_on_c, 1, 74, 0
7, 19964, Note_on_c, 1, 77, 0
7, 19980, Note_on_c, 1, 74, 44
7, 19980, Note_on_c, 1, 77, 44
7, 20024, Note_on_c, 1, 74, 0
7, 20024, Note_on_c, 1, 77, 0
7, 20040, Note_on_c, 1, 74, 44
7, 20040, Note_on_c, 1, 77, 44
7, 20084, Note_on_c, 1, 74, 0
7, 20084, Note_on_c, 1, 77, 0
7, 20100, Note_on_c, 1, 77, 44
7, 20100, Note_on_c, 1, 74, 44
7, 20144, Note_on_c, 1, 77, 0
7, 20144, Note_on_c, 1, 74, 0
7, 20160, Note_on_c, 1, 74, 44
7, 20160, Note_on_c, 1, 77, 44
7, 20204, Note_on_c, 1, 74, 0
7, 20204, Note_on_c, 1, 77, 0
7, 20220, Note_on_c, 1, 77, 44
7, 20220, Note_on_c, 1, 74, 44
7, 20264, Note_on_c, 1, 77, 0
7, 20264, Note_on_c, 1, 74, 0
7, 20280, Note_on_c, 1, 77, 44
7, 20280, Note_on_c, 1, 74, 44
7, 20324, Note_on_c, 1, 77, 0
7, 20324, Note_on_c, 1, 74, 0
7, 20340, Note_on_c, 1, 74, 44
7, 20340, Note_on_c, 1, 77, 44
7, 20384, Note_on_c, 1, 74, 0
7, 20384, Note_on_c, 1, 77, 0
7, 20400, Note_on_c, 1, 77, 44
7, 20400, Note_on_c, 1, 74, 44
7, 20444, Note_on_c, 1, 77, 0
7, 20444, Note_on_c, 1, 74, 0
7, 20460, Note_on_c, 1, 77, 44
7, 20460, Note_on_c, 1, 74, 44
7, 20504, Note_on_c, 1, 77, 0
7, 20504, Note_on_c, 1, 74, 0
7, 20520, Note_on_c, 1, 77, 44
7, 20520, Note_on_c, 1, 74, 44
7, 20564, Note_on_c, 1, 77, 0
7, 20564, Note_on_c, 1, 74, 0
7, 20580, Note_on_c, 1, 77, 44
7, 20580, Note_on_c, 1, 74, 44
7, 20624, Note_on_c, 1, 77, 0
7, 20624, Note_on_c, 1, 74, 0
7, 20640, Note_on_c, 1, 77, 44
7, 20640, Note_on_c, 1, 74, 44
7, 20684, Note_on_c, 1, 77, 0
7, 20684, Note_on_c, 1, 74, 0
7, 20700, Note_on_c, 1, 74, 44
7, 20700, Note_on_c, 1, 77, 44
7, 20744, Note_on_c, 1, 74, 0
7, 20744, Note_on_c, 1, 77, 0
7, 20760, Note_on_c, 1, 77, 44
7, 20760, Note_on_c, 1, 74, 44
7, 20804, Note_on_c, 1, 77, 0
7, 20804, Note_on_c, 1, 74, 0
7, 20820, Note_on_c, 1, 77, 44
7, 20820, Note_on_c, 1, 74, 44
7, 20864, Note_on_c, 1, 77, 0
7, 20864, Note_on_c, 1, 74, 0
7, 20880, Note_on_c, 1, 74, 44
7, 20880, Note_on_c, 1, 77, 44
7, 20924, Note_on_c, 1, 74, 0
7, 20924, Note_on_c, 1, 77, 0
7, 20940, Note_on_c, 1, 74, 44
7, 20940, Note_on_c, 1, 77, 44
7, 20984, Note_on_c, 1, 74, 0
7, 20984, Note_on_c, 1, 77, 0
7, 21000, Note_on_c, 1, 74, 44
7, 21000, Note_on_c, 1, 77, 44
7, 21044, Note_on_c, 1, 74, 0
7, 21044, Note_on_c, 1, 77, 0
7, 21060, Note_on_c, 1, 74, 44
7, 21060, Note_on_c, 1, 77, 44
7, 21104, Note_on_c, 1, 74, 0
7, 21104, Note_on_c, 1, 77, 0
7, 21120, Note_on_c, 1, 74, 44
7, 21120, Note_on_c, 1, 77, 44
7, 21164, Note_on_c, 1, 74, 0
7, 21164, Note_on_c, 1, 77, 0
7, 21180, Note_on_c, 1, 74, 44
7, 21180, Note_on_c, 1, 77, 44
7, 21224, Note_on_c, 1, 74, 0
7, 21224, Note_on_c, 1, 77, 0
7, 21240, Note_on_c, 1, 77, 44
7, 21240, Note_on_c, 1, 74, 44
7, 21284, Note_on_c, 1, 77, 0
7, 21284, Note_on_c, 1, 74, 0
7, 21300, Note_on_c, 1, 74, 44
7, 21300, Note_on_c, 1, 77, 44
7, 21344, Note_on_c, 1, 74, 0
7, 21344, Note_on_c, 1, 77, 0
7, 21360, Note_on_c, 1, 75, 44
7, 21360, Note_on_c, 1, 77, 44
7, 21404, Note_on_c, 1, 75, 0
7, 21404, Note_on_c, 1, 77, 0
7, 21420, Note_on_c, 1, 77, 44
7, 21420, Note_on_c, 1, 75, 44
7, 21464, Note_on_c, 1, 77, 0
7, 21464, Note_on_c, 1, 75, 0
7, 21480, Note_on_c, 1, 75, 44
7, 21480, Note_on_c, 1, 77, 44
7, 21524, Note_on_c, 1, 75, 0
7, 21524, Note_on_c, 1, 77, 0
7, 21540, Note_on_c, 1, 72, 44
7, 21540, Note_on_c, 1, 77, 44
7, 21584, Note_on_c, 1, 72, 0
7, 21584, Note_on_c, 1, 77, 0
7, 21600, Note_on_c, 1, 74, 44
7, 21600, Note_on_c, 1, 77, 44
7, 21644, Note_on_c, 1, 74, 0
7, 21644, Note_on_c, 1, 77, 0
7, 21660, Note_on_c, 1, 74, 44
7, 21660, Note_on_c, 1, 77, 44
7, 21704, Note_on_c, 1, 74, 0
7, 21704, Note_on_c, 1, 77, 0
7, 21720, Note_on_c, 1, 77, 44
7, 21720, Note_on_c, 1, 74, 44
7, 21764, Note_on_c, 1, 77, 0
7, 21764, Note_on_c, 1, 74, 0
7, 21780, Note_on_c, 1, 74, 44
7, 21780, Note_on_c, 1, 77, 44
7, 21824, Note_on_c, 1, 74, 0
7, 21824, Note_on_c, 1, 77, 0
7, 21840, Note_on_c, 1, 77, 44
7, 21840, Note_on_c, 1, 72, 44
7, 21884, Note_on_c, 1, 77, 0
7, 21884, Note_on_c, 1, 72, 0
7, 21900, Note_on_c, 1, 72, 44
7, 21900, Note_on_c, 1, 77, 44
7, 21944, Note_on_c, 1, 72, 0
7, 21944, Note_on_c, 1, 77, 0
7, 21960, Note_on_c, 1, 77, 44
7, 21960, Note_on_c, 1, 72, 44
7, 22004, Note_on_c, 1, 77, 0
7, 22004, Note_on_c, 1, 72, 0
7, 22020, Note_on_c, 1, 77, 44
7, 22020, Note_on_c, 1, 72, 44
7, 22064, Note_on_c, 1, 77, 0
7, 22064, Note_on_c, 1, 72, 0
7, 22080, Note_on_c, 1, 74, 44
7, 22080, Note_on_c, 1, 77, 44
7, 22124, Note_on_c, 1, 74, 0
7, 22124, Note_on_c, 1, 77, 0
7, 22140, Note_on_c, 1, 77, 44
7, 22140, Note_on_c, 1, 74, 44
7, 22184, Note_on_c, 1, 77, 0
7, 22184, Note_on_c, 1, 74, 0
7, 22200, Note_on_c, 1, 74, 44
7, 22200, Note_on_c, 1, 77, 44
7, 22244, Note_on_c, 1, 74, 0
7, 22244, Note_on_c, 1, 77, 0
7, 22260, Note_on_c, 1, 74, 44
7, 22260, Note_on_c, 1, 77, 44
7, 22304, Note_on_c, 1, 74, 0
7, 22304, Note_on_c, 1, 77, 0
7, 22320, Note_on_c, 1, 77, 44
7, 22320, Note_on_c, 1, 72, 44
7, 22364, Note_on_c, 1, 77, 0
7, 22364, Note_on_c, 1, 72, 0
7, 22380, Note_on_c, 1, 77, 44
7, 22380, Note_on_c, 1, 72, 44
7, 22424, Note_on_c, 1, 77, 0
7, 22424, Note_on_c, 1, 72, 0
7, 22440, Note_on_c, 1, 77, 44
7, 22440, Note_on_c, 1, 72, 44
7, 22484, Note_on_c, 1, 77, 0
7, 22484, Note_on_c, 1, 72, 0
7, 22500, Note_on_c, 1, 72, 44
7, 22500, Note_on_c, 1, 77, 44
7, 22544, Note_on_c, 1, 72, 0
7, 22544, Note_on_c, 1, 77, 0
7, 22560, Note_on_c, 1, 77, 44
7, 22560, Note_on_c, 1, 74, 44
7, 22604, Note_on_c, 1, 77, 0
7, 22604, Note_on_c, 1, 74, 0
7, 22620, Note_on_c, 1, 74, 44
7, 22620, Note_on_c, 1, 77, 44
7, 22664, Note_on_c, 1, 74, 0
7, 22664, Note_on_c, 1, 77, 0
7, 22680, Note_on_c, 1, 74, 44
7, 22680, Note_on_c, 1, 77, 44
7, 22724, Note_on_c, 1, 74, 0
7, 22724, Note_on_c, 1, 77, 0
7, 22740, Note_on_c, 1, 74, 44
7, 22740, Note_on_c, 1, 77, 44
7, 22784, Note_on_c, 1, 74, 0
7, 22784, Note_on_c, 1, 77, 0
7, 22800, Note_on_c, 1, 77, 44
7, 22800, Note_on_c, 1, 72, 44
7, 22844, Note_on_c, 1, 77, 0
7, 22844, Note_on_c, 1, 72, 0
7, 22860, Note_on_c, 1, 72, 46
7, 22860, Note_on_c, 1, 77, 46
7, 22904, Note_on_c, 1, 72, 0
7, 22904, Note_on_c, 1, 77, 0
7, 22920, Note_on_c, 1, 72, 49
7, 22920, Note_on_c, 1, 77, 49
7, 22964, Note_on_c, 1, 72, 0
7, 22964, Note_on_c, 1, 77, 0
7, 22980, Note_on_c, 1, 77, 52
7, 22980, Note_on_c, 1, 72, 52
7, 23024, Note_on_c, 1, 77, 0
7, 23024, Note_on_c, 1, 72, 0
7, 23040, Note_on_c, 1, 77, 54
7, 23040, Note_on_c, 1, 74, 54
7, 23084, Note_on_c, 1, 77, 0
7, 23084, Note_on_c, 1, 74, 0
7, 23100, Note_on_c, 1, 74, 57
7, 23100, Note_on_c, 1, 77, 57
7, 23144, Note_on_c, 1, 74, 0
7, 23144, Note_on_c, 1, 77, 0
7, 23160, Note_on_c, 1, 74, 60
7, 23160, Note_on_c, 1, 77, 60
7, 23204, Note_on_c, 1, 74, 0
7, 23204, Note_on_c, 1, 77, 0
7, 23220, Note_on_c, 1, 74, 62
7, 23220, Note_on_c, 1, 77, 62
7, 23264, Note_on_c, 1, 74, 0
7, 23264, Note_on_c, 1, 77, 0
7, 23280, Note_on_c, 1, 72, 65
7, 23280, Note_on_c, 1, 76, 65
7, 23324, Note_on_c, 1, 72, 0
7, 23324, Note_on_c, 1, 76, 0
7, 23340, Note_on_c, 1, 72, 68
7, 23340, Note_on_c, 1, 84, 68
7, 23384, Note_on_c, 1, 72, 0
7, 23384, Note_on_c, 1, 84, 0
7, 23400, Note_on_c, 1, 72, 70
7, 23400, Note_on_c, 1, 84, 70
7, 23444, Note_on_c, 1, 72, 0
7, 23444, Note_on_c, 1, 84, 0
7, 23460, Note_on_c, 1, 72, 73
7, 23460, Note_on_c, 1, 84, 73
7, 23504, Note_on_c, 1, 72, 0
7, 23504, Note_on_c, 1, 84, 0
7, 23520, Note_on_c, 1, 84, 76
7, 23520, Note_on_c, 1, 72, 76
7, 23564, Note_on_c, 1, 84, 0
7, 23564, Note_on_c, 1, 72, 0
7, 23580, Note_on_c, 1, 72, 76
7, 23580, Note_on_c, 1, 84, 76
7, 23624, Note_on_c, 1, 72, 0
7, 23624, Note_on_c, 1, 84, 0
7, 23640, Note_on_c, 1, 72, 76
7, 23640, Note_on_c, 1, 84, 76
7, 23684, Note_on_c, 1, 72, 0
7, 23684, Note_on_c, 1, 84, 0
7, 23700, Note_on_c, 1, 72, 76
7, 23700, Note_on_c, 1, 84, 76
7, 23744, Note_on_c, 1, 72, 0
7, 23744, Note_on_c, 1, 84, 0
7, 23760, Note_on_c, 1, 84, 76
7, 23760, Note_on_c, 1, 72, 76
7, 23804, Note_on_c, 1, 84, 0
7, 23804, Note_on_c, 1, 72, 0
7, 23820, Note_on_c, 1, 72, 76
7, 23820, Note_on_c, 1, 84, 76
7, 23864, Note_on_c, 1, 72, 0
7, 23864, Note_on_c, 1, 84, 0
7, 23880, Note_on_c, 1, 84, 76
7, 23880, Note_on_c, 1, 72, 76
7, 23924, Note_on_c, 1, 84, 0
7, 23924, Note_on_c, 1, 72, 0
7, 23940, Note_on_c, 1, 72, 76
7, 23940, Note_on_c, 1, 84, 76
7, 23984, Note_on_c, 1, 72, 0
7, 23984, Note_on_c, 1, 84, 0
7, 24000, Note_on_c, 1, 84, 76
7, 24000, Note_on_c, 1, 72, 76
7, 24044, Note_on_c, 1, 84, 0
7, 24044, Note_on_c, 1, 72, 0
7, 24060, Note_on_c, 1, 72, 76
7, 24060, Note_on_c, 1, 84, 76
7, 24104, Note_on_c, 1, 72, 0
7, 24104, Note_on_c, 1, 84, 0
7, 24120, Note_on_c, 1, 72, 76
7, 24120, Note_on_c, 1, 84, 76
7, 24164, Note_on_c, 1, 72, 0
7, 24164, Note_on_c, 1, 84, 0
7, 24180, Note_on_c, 1, 72, 76
7, 24180, Note_on_c, 1, 84, 76
7, 24224, Note_on_c, 1, 72, 0
7, 24224, Note_on_c, 1, 84, 0
7, 24240, Note_on_c, 1, 84, 76
7, 24240, Note_on_c, 1, 72, 76
7, 24299, Note_on_c, 1, 84, 0
7, 24299, Note_on_c, 1, 72, 0
7, 24960, Note_on_c, 1, 75, 84
7, 25131, Note_on_c, 1, 75, 0
7, 25140, Note_on_c, 1, 72, 76
7, 25184, Note_on_c, 1, 72, 0
7, 25200, Note_on_c, 1, 74, 84
7, 25371, Note_on_c, 1, 74, 0
7, 25380, Note_on_c, 1, 70, 76
7, 25424, Note_on_c, 1, 70, 0
7, 25440, Note_on_c, 1, 72, 76
7, 25484, Note_on_c, 1, 72, 0
7, 25500, Note_on_c, 1, 69, 76
7, 25544, Note_on_c, 1, 69, 0
7, 25560, Note_on_c, 1, 65, 76
7, 25604, Note_on_c, 1, 65, 0
7, 25620, Note_on_c, 1, 69, 76
7, 25664, Note_on_c, 1, 69, 0
7, 25680, Note_on_c, 1, 70, 76
7, 25724, Note_on_c, 1, 70, 0
7, 25740, Note_on_c, 1, 74, 76
7, 25784, Note_on_c, 1, 74, 0
7, 25800, Note_on_c, 1, 77, 76
7, 25844, Note_on_c, 1, 77, 0
7, 25860, Note_on_c, 1, 74, 76
7, 25904, Note_on_c, 1, 74, 0
7, 25920, Note_on_c, 1, 75, 76
7, 25975, Note_on_c, 1, 75, 0
7, 25980, Note_on_c, 1, 75, 84
7, 26091, Note_on_c, 1, 75, 0
7, 26100, Note_on_c, 1, 72, 76
7, 26114, Note_on_c, 1, 72, 0
7, 26115, Note_on_c, 1, 74, 76
7, 26129, Note_on_c, 1, 74, 0
7, 26130, Note_on_c, 1, 70, 76
7, 26144, Note_on_c, 1, 70, 0
7, 26145, Note_on_c, 1, 72, 76
7, 26159, Note_on_c, 1, 72, 0
7, 26160, Note_on_c, 1, 74, 76
7, 26215, Note_on_c, 1, 74, 0
7, 26220, Note_on_c, 1, 74, 84
7, 26331, Note_on_c, 1, 74, 0
7, 26340, Note_on_c, 1, 70, 76
7, 26354, Note_on_c, 1, 70, 0
7, 26355, Note_on_c, 1, 72, 76
7, 26369, Note_on_c, 1, 72, 0
7, 26370, Note_on_c, 1, 69, 76
7, 26384, Note_on_c, 1, 69, 0
7, 26385, Note_on_c, 1, 70, 76
7, 26399, Note_on_c, 1, 70, 0
7, 26400, Note_on_c, 1, 72, 76
7, 26444, Note_on_c, 1, 72, 0
7, 26460, Note_on_c, 1, 69, 76
7, 26504, Note_on_c, 1, 69, 0
7, 26520, Note_on_c, 1, 65, 76
7, 26564, Note_on_c, 1, 65, 0
7, 26580, Note_on_c, 1, 69, 76
7, 26624, Note_on_c, 1, 69, 0
7, 26640, Note_on_c, 1, 70, 84
7, 26729, Note_on_c, 1, 70, 0
7, 27180, Note_on_c, 1, 79, 52
7, 27224, Note_on_c, 1, 79, 0
7, 27240, Note_on_c, 1, 76, 52
7, 27284, Note_on_c, 1, 76, 0
7, 27600, Note_on_c, 1, 86, 84
7, 27600, Note_on_c, 1, 74, 84
7, 27644, Note_on_c, 1, 86, 0
7, 27644, Note_on_c, 1, 74, 0
7, 28140, Note_on_c, 1, 79, 52
7, 28184, Note_on_c, 1, 79, 0
7, 28200, Note_on_c, 1, 76, 52
7, 28244, Note_on_c, 1, 76, 0
7, 28380, Note_on_c, 1, 72, 52
7, 28424, Note_on_c, 1, 72, 0
7, 28440, Note_on_c, 1, 82, 51
7, 28484, Note_on_c, 1, 82, 0
7, 28620, Note_on_c, 1, 81, 49
7, 28664, Note_on_c, 1, 81, 0
7, 28680, Note_on_c, 1, 77, 48
7, 28724, Note_on_c, 1, 77, 0
7, 28860, Note_on_c, 1, 75, 46
7, 28904, Note_on_c, 1, 75, 0
7, 28920, Note_on_c, 1, 74, 46
7, 28964, Note_on_c, 1, 74, 0
7, 29100, Note_on_c, 1, 70, 44
7, 29144, Note_on_c, 1, 70, 0
7, 29160, Note_on_c, 1, 80, 44
7, 29204, Note_on_c, 1, 80, 0
7, 29340, Note_on_c, 1, 79, 44
7, 29384, Note_on_c, 1, 79, 0
7, 29400, Note_on_c, 1, 78, 44
7, 29444, Note_on_c, 1, 78, 0
7, 29640, Note_on_c, 1, 77, 46
7, 29699, Note_on_c, 1, 77, 0
7, 29700, Note_on_c, 1, 82, 48
7, 29759, Note_on_c, 1, 82, 0
7, 29760, Note_on_c, 1, 81, 49
7, 29819, Note_on_c, 1, 81, 0
7, 29820, Note_on_c, 1, 79, 50
7, 29879, Note_on_c, 1, 79, 0
7, 29880, Note_on_c, 1, 77, 52
7, 29939, Note_on_c, 1, 77, 0
7, 29940, Note_on_c, 1, 75, 53
7, 29940, Note_on_c, 1, 81, 53
7, 29999, Note_on_c, 1, 75, 0
7, 29999, Note_on_c, 1, 81, 0
7, 30000, Note_on_c, 1, 82, 54
7, 30000, Note_on_c, 1, 74, 54
7, 30059, Note_on_c, 1, 82, 0
7, 30059, Note_on_c, 1, 74, 0
7, 30060, Note_on_c, 1, 75, 56
7, 30060, Note_on_c, 1, 81, 56
7, 30119, Note_on_c, 1, 75, 0
7, 30119, Note_on_c, 1, 81, 0
7, 30120, Note_on_c, 1, 82, 57
7, 30120, Note_on_c, 1, 74, 57
7, 30179, Note_on_c, 1, 82, 0
7, 30179, Note_on_c, 1, 74, 0
7, 30480, Control_c, 1, 11, 96
7, 30535, Control_c, 1, 11, 99
7, 30590, Control_c, 1, 11, 101
7, 30600, Note_on_c, 1, 77, 68
7, 30645, Control_c, 1, 11, 104
7, 30700, Control_c, 1, 11, 106
7, 30755, Control_c, 1, 11, 109
7, 30810, Control_c, 1, 11, 112
7, 30865, Control_c, 1, 11, 114
7, 30920, Control_c, 1, 11, 117
7, 30975, Control_c, 1, 11, 119
7, 31019, Note_on_c, 1, 77, 0
7, 31030, Control_c, 1, 11, 122
7, 31085, Control_c, 1, 11, 124
7, 31200, Control_c, 1, 11, 127
7, 31260, Note_on_c, 1, 75, 52
7, 31260, Note_on_c, 1, 72, 52
7, 31304, Note_on_c, 1, 75, 0
7, 31304, Note_on_c, 1, 72, 0
7, 31320, Note_on_c, 1, 75, 52
7, 31320, Note_on_c, 1, 72, 52
7, 31364, Note_on_c, 1, 75, 0
7, 31364, Note_on_c, 1, 72, 0
7, 31380, Note_on_c, 1, 74, 52
7, 31380, Note_on_c, 1, 77, 52
7, 31394, Note_on_c, 1, 74, 0
7, 31394, Note_on_c, 1, 77, 0
7, 31395, Note_on_c, 1, 72, 52
7, 31395, Note_on_c, 1, 75, 52
7, 31409, Note_on_c, 1, 72, 0
7, 31409, Note_on_c, 1, 75, 0
7, 31410, Note_on_c, 1, 70, 52
7, 31410, Note_on_c, 1, 74, 52
7, 31424, Note_on_c, 1, 70, 0
7, 31424, Note_on_c, 1, 74, 0
7, 31425, Note_on_c, 1, 75, 52
7, 31425, Note_on_c, 1, 72, 52
7, 31439, Note_on_c, 1, 75, 0
7, 31439, Note_on_c, 1, 72, 0
7, 31440, Note_on_c, 1, 70, 52
7, 31440, Note_on_c, 1, 74, 52
7, 31499, Note_on_c, 1, 70, 0
7, 31499, Note_on_c, 1, 74, 0
7, 31620, Note_on_c, 1, 75, 52
7, 31679, Note_on_c, 1, 75, 0
7, 31680, Note_on_c, 1, 74, 52
7, 31739, Note_on_c, 1, 74, 0
7, 31860, Note_on_c, 1, 72, 52
7, 31919, Note_on_c, 1, 72, 0
7, 31920, Note_on_c, 1, 70, 52
7, 31979, Note_on_c, 1, 70, 0
7, 32100, Note_on_c, 1, 77, 52
7, 32159, Note_on_c, 1, 77, 0
7, 32160, Note_on_c, 1, 75, 52
7, 32219, Note_on_c, 1, 75, 0
7, 32340, Note_on_c, 1, 74, 52
7, 32399, Note_on_c, 1, 74, 0
7, 32400, Note_on_c, 1, 72, 52
7, 32459, Note_on_c, 1, 72, 0
7, 32580, Note_on_c, 1, 79, 52
7, 32639, Note_on_c, 1, 79, 0
7, 32640, Note_on_c, 1, 77, 52
7, 32699, Note_on_c, 1, 77, 0
7, 32820, Note_on_c, 1, 75, 52
7, 32879, Note_on_c, 1, 75, 0
7, 32880, Note_on_c, 1, 74, 52
7, 32939, Note_on_c, 1, 74, 0
7, 33060, Note_on_c, 1, 80, 52
7, 33119, Note_on_c, 1, 80, 0
7, 33120, Note_on_c, 1, 79, 53
7, 33175, Note_on_c, 1, 79, 0
7, 33180, Note_on_c, 1, 77, 55
7, 33239, Note_on_c, 1, 77, 0
7, 33240, Note_on_c, 1, 75, 56
7, 33295, Note_on_c, 1, 75, 0
7, 33300, Note_on_c, 1, 74, 58
7, 33359, Note_on_c, 1, 74, 0
7, 33360, Note_on_c, 1, 80, 60
7, 33415, Note_on_c, 1, 80, 0
7, 33420, Note_on_c, 1, 79, 61
7, 33479, Note_on_c, 1, 79, 0
7, 33480, Note_on_c, 1, 77, 63
7, 33535, Note_on_c, 1, 77, 0
7, 33540, Note_on_c, 1, 75, 64
7, 33599, Note_on_c, 1, 75, 0
7, 33600, Note_on_c, 1, 74, 66
7, 33655, Note_on_c, 1, 74, 0
7, 33660, Note_on_c, 1, 80, 68
7, 33719, Note_on_c, 1, 80, 0
7, 33720, Note_on_c, 1, 79, 66
7, 33775, Note_on_c, 1, 79, 0
7, 33780, Note_on_c, 1, 77, 64
7, 33839, Note_on_c, 1, 77, 0
7, 33840, Note_on_c, 1, 75, 62
7, 33895, Note_on_c, 1, 75, 0
7, 33900, Note_on_c, 1, 74, 60
7, 33959, Note_on_c, 1, 74, 0
7, 33960, Note_on_c, 1, 80, 58
7, 34015, Note_on_c, 1, 80, 0
7, 34020, Note_on_c, 1, 79, 56
7, 34079, Note_on_c, 1, 79, 0
7, 34080, Note_on_c, 1, 77, 54
7, 34135, Note_on_c, 1, 77, 0
7, 34140, Note_on_c, 1, 75, 52
7, 34199, Note_on_c, 1, 75, 0
7, 34200, Note_on_c, 1, 74, 52
7, 34255, Note_on_c, 1, 74, 0
7, 34260, Note_on_c, 1, 80, 44
7, 34319, Note_on_c, 1, 80, 0
7, 34320, Note_on_c, 1, 79, 44
7, 34375, Note_on_c, 1, 79, 0
7, 34380, Note_on_c, 1, 77, 44
7, 34439, Note_on_c, 1, 77, 0
7, 34440, Note_on_c, 1, 75, 44
7, 34495, Note_on_c, 1, 75, 0
7, 34500, Note_on_c, 1, 74, 44
7, 34739, Note_on_c, 1, 74, 0
7, 35220, Note_on_c, 1, 70, 44
7, 35241, Note_on_c, 1, 70, 0
7, 35250, Note_on_c, 1, 72, 44
7, 35271, Note_on_c, 1, 72, 0
7, 35280, Note_on_c, 1, 74, 44
7, 35335, Note_on_c, 1, 74, 0
7, 35340, Note_on_c, 1, 74, 44
7, 35340, Note_on_c, 1, 70, 44
7, 35361, Note_on_c, 1, 74, 0
7, 35361, Note_on_c, 1, 70, 0
7, 35370, Note_on_c, 1, 75, 44
7, 35370, Note_on_c, 1, 72, 44
7, 35391, Note_on_c, 1, 75, 0
7, 35391, Note_on_c, 1, 72, 0
7, 35400, Note_on_c, 1, 77, 44
7, 35400, Note_on_c, 1, 74, 44
7, 35444, Note_on_c, 1, 77, 0
7, 35444, Note_on_c, 1, 74, 0
7, 35460, Note_on_c, 1, 77, 44
7, 35460, Note_on_c, 1, 74, 44
7, 35481, Note_on_c, 1, 77, 0
7, 35481, Note_on_c, 1, 74, 0
7, 35490, Note_on_c, 1, 79, 44
7, 35490, Note_on_c, 1, 75, 44
7, 35511, Note_on_c, 1, 79, 0
7, 35511, Note_on_c, 1, 75, 0
7, 35520, Note_on_c, 1, 80, 44
7, 35520, Note_on_c, 1, 74, 44
7, 35541, Note_on_c, 1, 80, 0
7, 35541, Note_on_c, 1, 74, 0
7, 35550, Note_on_c, 1, 74, 44
7, 35550, Note_on_c, 1, 80, 44
7, 35571, Note_on_c, 1, 74, 0
7, 35571, Note_on_c, 1, 80, 0
7, 35580, Note_on_c, 1, 80, 44
7, 35580, Note_on_c, 1, 74, 44
7, 35601, Note_on_c, 1, 80, 0
7, 35601, Note_on_c, 1, 74, 0
7, 35610, Note_on_c, 1, 80, 44
7, 35610, Note_on_c, 1, 74, 44
7, 35631, Note_on_c, 1, 80, 0
7, 35631, Note_on_c, 1, 74, 0
7, 35640, Note_on_c, 1, 74, 44
7, 35640, Note_on_c, 1, 80, 44
7, 35699, Note_on_c, 1, 74, 0
7, 35699, Note_on_c, 1, 80, 0
7, 36000, Note_on_c, 1, 75, 44
7, 36000, Note_on_c, 1, 79, 44
7, 36021, Note_on_c, 1, 75, 0
7, 36021, Note_on_c, 1, 79, 0
7, 36030, Note_on_c, 1, 79, 44
7, 36030, Note_on_c, 1, 75, 44
7, 36051, Note_on_c, 1, 79, 0
7, 36051, Note_on_c, 1, 75, 0
7, 36060, Note_on_c, 1, 75, 44
7, 36060, Note_on_c, 1, 79, 44
7, 36081, Note_on_c, 1, 75, 0
7, 36081, Note_on_c, 1, 79, 0
7, 36090, Note_on_c, 1, 79, 44
7, 36090, Note_on_c, 1, 75, 44
7, 36111, Note_on_c, 1, 79, 0
7, 36111, Note_on_c, 1, 75, 0
7, 36120, Note_on_c, 1, 75, 44
7, 36120, Note_on_c, 1, 79, 44
7, 36179, Note_on_c, 1, 75, 0
7, 36179, Note_on_c, 1, 79, 0
7, 36480, Note_on_c, 1, 80, 84
7, 36480, Note_on_c, 1, 77, 84
7, 36501, Note_on_c, 1, 80, 0
7, 36501, Note_on_c, 1, 77, 0
7, 36510, Note_on_c, 1, 77, 84
7, 36510, Note_on_c, 1, 80, 84
7, 36531, Note_on_c, 1, 77, 0
7, 36531, Note_on_c, 1, 80, 0
7, 36540, Note_on_c, 1, 80, 84
7, 36540, Note_on_c, 1, 77, 84
7, 36561, Note_on_c, 1, 80, 0
7, 36561, Note_on_c, 1, 77, 0
7, 36570, Note_on_c, 1, 77, 84
7, 36570, Note_on_c, 1, 80, 84
7, 36591, Note_on_c, 1, 77, 0
7, 36591, Note_on_c, 1, 80, 0
7, 36600, Note_on_c, 1, 80, 84
7, 36600, Note_on_c, 1, 77, 84
7, 36659, Note_on_c, 1, 80, 0
7, 36659, Note_on_c, 1, 77, 0
7, 36960, Note_on_c, 1, 79, 84
7, 36960, Note_on_c, 1, 75, 84
7, 36981, Note_on_c, 1, 79, 0
7, 36981, Note_on_c, 1, 75, 0
7, 36990, Note_on_c, 1, 75, 84
7, 36990, Note_on_c, 1, 79, 84
7, 37011, Note_on_c, 1, 75, 0
7, 37011, Note_on_c, 1, 79, 0
7, 37020, Note_on_c, 1, 79, 84
7, 37020, Note_on_c, 1, 75, 84
7, 37041, Note_on_c, 1, 79, 0
7, 37041, Note_on_c, 1, 75, 0
7, 37050, Note_on_c, 1, 79, 84
7, 37050, Note_on_c, 1, 75, 84
7, 37071, Note_on_c, 1, 79, 0
7, 37071, Note_on_c, 1, 75, 0
7, 37080, Note_on_c, 1, 79, 84
7, 37080, Note_on_c, 1, 75, 84
7, 37139, Note_on_c, 1, 79, 0
7, 37139, Note_on_c, 1, 75, 0
7, 37440, Note_on_c, 1, 75, 44
7, 37440, Note_on_c, 1, 79, 44
7, 37484, Note_on_c, 1, 75, 0
7, 37484, Note_on_c, 1, 79, 0
7, 37500, Note_on_c, 1, 75, 44
7, 37500, Note_on_c, 1, 79, 44
7, 37544, Note_on_c, 1, 75, 0
7, 37544, Note_on_c, 1, 79, 0
7, 37560, Note_on_c, 1, 77, 44
7, 37560, Note_on_c, 1, 74, 44
7, 37604, Note_on_c, 1, 77, 0
7, 37604, Note_on_c, 1, 74, 0
7, 37620, Note_on_c, 1, 72, 44
7, 37620, Note_on_c, 1, 77, 44
7, 37664, Note_on_c, 1, 72, 0
7, 37664, Note_on_c, 1, 77, 0
7, 37680, Note_on_c, 1, 74, 44
7, 37680, Note_on_c, 1, 77, 44
7, 37724, Note_on_c, 1, 74, 0
7, 37724, Note_on_c, 1, 77, 0
7, 37740, Note_on_c, 1, 79, 44
7, 37740, Note_on_c, 1, 75, 44
7, 37784, Note_on_c, 1, 79, 0
7, 37784, Note_on_c, 1, 75, 0
7, 37800, Note_on_c, 1, 74, 44
7, 37800, Note_on_c, 1, 77, 44
7, 37844, Note_on_c, 1, 74, 0
7, 37844, Note_on_c, 1, 77, 0
7, 37860, Note_on_c, 1, 77, 44
7, 37860, Note_on_c, 1, 72, 44
7, 37904, Note_on_c, 1, 77, 0
7, 37904, Note_on_c, 1, 72, 0
7, 37920, Note_on_c, 1, 82, 44
7, 37920, Note_on_c, 1, 74, 44
7, 37979, Note_on_c, 1, 82, 0
7, 37979, Note_on_c, 1, 74, 0
7, 38010, Note_on_c, 1, 72, 51
7, 38010, Note_on_c, 1, 81, 51
7, 38035, Note_on_c, 1, 72, 0
7, 38035, Note_on_c, 1, 81, 0
7, 38040, Note_on_c, 1, 74, 54
7, 38040, Note_on_c, 1, 82, 54
7, 38099, Note_on_c, 1, 74, 0
7, 38099, Note_on_c, 1, 82, 0
7, 38130, Note_on_c, 1, 72, 61
7, 38130, Note_on_c, 1, 81, 61
7, 38155, Note_on_c, 1, 72, 0
7, 38155, Note_on_c, 1, 81, 0
7, 38160, Note_on_c, 1, 74, 64
7, 38160, Note_on_c, 1, 82, 64
7, 38219, Note_on_c, 1, 74, 0
7, 38219, Note_on_c, 1, 82, 0
7, 38250, Note_on_c, 1, 72, 71
7, 38250, Note_on_c, 1, 81, 71
7, 38275, Note_on_c, 1, 72, 0
7, 38275, Note_on_c, 1, 81, 0
7, 38280, Note_on_c, 1, 74, 74
7, 38280, Note_on_c, 1, 82, 74
7, 38339, Note_on_c, 1, 74, 0
7, 38339, Note_on_c, 1, 82, 0
7, 38370, Note_on_c, 1, 72, 81
7, 38370, Note_on_c, 1, 81, 81
7, 38395, Note_on_c, 1, 72, 0
7, 38395, Note_on_c, 1, 81, 0
7, 38400, Note_on_c, 1, 82, 84
7, 38400, Note_on_c, 1, 74, 84
7, 38421, Note_on_c, 1, 82, 0
7, 38421, Note_on_c, 1, 74, 0
7, 38430, Note_on_c, 1, 70, 84
7, 38430, Note_on_c, 1, 82, 84
7, 38451, Note_on_c, 1, 70, 0
7, 38451, Note_on_c, 1, 82, 0
7, 38460, Note_on_c, 1, 82, 84
7, 38460, Note_on_c, 1, 70, 84
7, 38481, Note_on_c, 1, 82, 0
7, 38481, Note_on_c, 1, 70, 0
7, 38490, Note_on_c, 1, 82, 84
7, 38490, Note_on_c, 1, 70, 84
7, 38511, Note_on_c, 1, 82, 0
7, 38511, Note_on_c, 1, 70, 0
7, 38520, Note_on_c, 1, 82, 84
7, 38520, Note_on_c, 1, 70, 84
7, 38541, Note_on_c, 1, 82, 0
7, 38541, Note_on_c, 1, 70, 0
7, 38550, Note_on_c, 1, 70, 84
7, 38550, Note_on_c, 1, 82, 84
7, 38571, Note_on_c, 1, 70, 0
7, 38571, Note_on_c, 1, 82, 0
7, 38580, Note_on_c, 1, 70, 84
7, 38580, Note_on_c, 1, 82, 84
7, 38601, Note_on_c, 1, 70, 0
7, 38601, Note_on_c, 1, 82, 0
7, 38610, Note_on_c, 1, 82, 84
7, 38610, Note_on_c, 1, 70, 84
7, 38631, Note_on_c, 1, 82, 0
7, 38631, Note_on_c, 1, 70, 0
7, 38640, Note_on_c, 1, 82, 84
7, 38640, Note_on_c, 1, 70, 84
7, 38759, Note_on_c, 1, 82, 0
7, 38759, Note_on_c, 1, 70, 0
7, 38759, End_track
8, 0, Start_track
8, 0, Title_t, "Clarinet in B-flat"
8, 0, MIDI_port, 0
8, 0, Program_c, 2, 71
8, 0, Control_c, 2, 7, 88
8, 0, Control_c, 2, 10, 75
8, 0, Control_c, 2, 11, 127
8, 0, Note_on_c, 2, 70, 44
8, 0, Note_on_c, 2, 65, 44
8, 44, Note_on_c, 2, 70, 0
8, 44, Note_on_c, 2, 65, 0
8, 60, Note_on_c, 2, 70, 44
8, 60, Note_on_c, 2, 65, 44
8, 104, Note_on_c, 2, 70, 0
8, 104, Note_on_c, 2, 65, 0
8, 120, Note_on_c, 2, 70, 44
8, 120, Note_on_c, 2, 65, 44
8, 164, Note_on_c, 2, 70, 0
8, 164, Note_on_c, 2, 65, 0
8, 180, Note_on_c, 2, 70, 44
8, 180, Note_on_c, 2, 65, 44
8, 224, Note_on_c, 2, 70, 0
8, 224, Note_on_c, 2, 65, 0
8, 240, Note_on_c, 2, 70, 44
8, 240, Note_on_c, 2, 65, 44
8, 284, Note_on_c, 2, 70, 0
8, 284, Note_on_c, 2, 65, 0
8, 300, Note_on_c, 2, 70, 44
8, 300, Note_on_c, 2, 65, 44
8, 344, Note_on_c, 2, 70, 0
8, 344, Note_on_c, 2, 65, 0
8, 360, Note_on_c, 2, 70, 44
8, 360, Note_on_c, 2, 65, 44
8, 404, Note_on_c, 2, 70, 0
8, 404, Note_on_c, 2, 65, 0
8, 420, Note_on_c, 2, 70, 44
8, 420, Note_on_c, 2, 65, 44
8, 464, Note_on_c, 2, 70, 0
8, 464, Note_on_c, 2, 65, 0
8, 480, Note_on_c, 2, 70, 44
8, 480, Note_on_c, 2, 65, 44
8, 524, Note_on_c, 2, 70, 0
8, 524, Note_on_c, 2, 65, 0
8, 540, Note_on_c, 2, 70, 44
8, 540, Note_on_c, 2, 65, 44
8, 584, Note_on_c, 2, 70, 0
8, 584, Note_on_c, 2, 65, 0
8, 600, Note_on_c, 2, 70, 44
8, 600, Note_on_c, 2, 65, 44
8, 644, Note_on_c, 2, 70, 0
8, 644, Note_on_c, 2, 65, 0
8, 660, Note_on_c, 2, 70, 44
8, 660, Note_on_c, 2, 65, 44
8, 704, Note_on_c, 2, 70, 0
8, 704, Note_on_c, 2, 65, 0
8, 720, Note_on_c, 2, 70, 44
8, 720, Note_on_c, 2, 65, 44
8, 764, Note_on_c, 2, 70, 0
8, 764, Note_on_c, 2, 65, 0
8, 780, Note_on_c, 2, 70, 44
8, 780, Note_on_c, 2, 65, 44
8, 824, Note_on_c, 2, 70, 0
8, 824, Note_on_c, 2, 65, 0
8, 840, Note_on_c, 2, 70, 44
8, 840, Note_on_c, 2, 65, 44
8, 884, Note_on_c, 2, 70, 0
8, 884, Note_on_c, 2, 65, 0
8, 900, Note_on_c, 2, 70, 44
8, 900, Note_on_c, 2, 65, 44
8, 944, Note_on_c, 2, 70, 0
8, 944, Note_on_c, 2, 65, 0
8, 960, Note_on_c, 2, 72, 44
8, 960, Note_on_c, 2, 65, 44
8, 1004, Note_on_c, 2, 72, 0
8, 1004, Note_on_c, 2, 65, 0
8, 1020, Note_on_c, 2, 69, 44
8, 1020, Note_on_c, 2, 65, 44
8, 1064, Note_on_c, 2, 69, 0
8, 1064, Note_on_c, 2, 65, 0
8, 1080, Note_on_c, 2, 69, 44
8, 1080, Note_on_c, 2, 65, 44
8, 1124, Note_on_c, 2, 69, 0
8, 1124, Note_on_c, 2, 65, 0
8, 1140, Note_on_c, 2, 69, 44
8, 1140, Note_on_c, 2, 65, 44
8, 1184, Note_on_c, 2, 69, 0
8, 1184, Note_on_c, 2, 65, 0
8, 1200, Note_on_c, 2, 70, 44
8, 1200, Note_on_c, 2, 65, 44
8, 1244, Note_on_c, 2, 70, 0
8, 1244, Note_on_c, 2, 65, 0
8, 1260, Note_on_c, 2, 70, 44
8, 1260, Note_on_c, 2, 65, 44
8, 1304, Note_on_c, 2, 70, 0
8, 1304, Note_on_c, 2, 65, 0
8, 1320, Note_on_c, 2, 70, 44
8, 1320, Note_on_c, 2, 65, 44
8, 1364, Note_on_c, 2, 70, 0
8, 1364, Note_on_c, 2, 65, 0
8, 1380, Note_on_c, 2, 70, 44
8, 1380, Note_on_c, 2, 65, 44
8, 1424, Note_on_c, 2, 70, 0
8, 1424, Note_on_c, 2, 65, 0
8, 1440, Note_on_c, 2, 70, 44
8, 1440, Note_on_c, 2, 65, 44
8, 1484, Note_on_c, 2, 70, 0
8, 1484, Note_on_c, 2, 65, 0
8, 1500, Note_on_c, 2, 70, 44
8, 1500, Note_on_c, 2, 65, 44
8, 1544, Note_on_c, 2, 70, 0
8, 1544, Note_on_c, 2, 65, 0
8, 1560, Note_on_c, 2, 70, 44
8, 1560, Note_on_c, 2, 65, 44
8, 1604, Note_on_c, 2, 70, 0
8, 1604, Note_on_c, 2, 65, 0
8, 1620, Note_on_c, 2, 70, 44
8, 1620, Note_on_c, 2, 66, 44
8, 1664, Note_on_c, 2, 70, 0
8, 1664, Note_on_c, 2, 66, 0
8, 1680, Note_on_c, 2, 70, 44
8, 1680, Note_on_c, 2, 67, 44
8, 1724, Note_on_c, 2, 70, 0
8, 1724, Note_on_c, 2, 67, 0
8, 1740, Note_on_c, 2, 70, 44
8, 1740, Note_on_c, 2, 67, 44
8, 1784, Note_on_c, 2, 70, 0
8, 1784, Note_on_c, 2, 67, 0
8, 1800, Note_on_c, 2, 70, 44
8, 1800, Note_on_c, 2, 67, 44
8, 1844, Note_on_c, 2, 70, 0
8, 1844, Note_on_c, 2, 67, 0
8, 1860, Note_on_c, 2, 70, 44
8, 1860, Note_on_c, 2, 67, 44
8, 1904, Note_on_c, 2, 70, 0
8, 1904, Note_on_c, 2, 67, 0
8, 1920, Note_on_c, 2, 70, 44
8, 1920, Note_on_c, 2, 67, 44
8, 1964, Note_on_c, 2, 70, 0
8, 1964, Note_on_c, 2, 67, 0
8, 1980, Note_on_c, 2, 70, 44
8, 1980, Note_on_c, 2, 67, 44
8, 2024, Note_on_c, 2, 70, 0
8, 2024, Note_on_c, 2, 67, 0
8, 2040, Note_on_c, 2, 70, 44
8, 2040, Note_on_c, 2, 67, 44
8, 2084, Note_on_c, 2, 70, 0
8, 2084, Note_on_c, 2, 67, 0
8, 2100, Note_on_c, 2, 70, 44
8, 2100, Note_on_c, 2, 67, 44
8, 2144, Note_on_c, 2, 70, 0
8, 2144, Note_on_c, 2, 67, 0
8, 2160, Note_on_c, 2, 70, 44
8, 2160, Note_on_c, 2, 67, 44
8, 2204, Note_on_c, 2, 70, 0
8, 2204, Note_on_c, 2, 67, 0
8, 2220, Note_on_c, 2, 70, 44
8, 2220, Note_on_c, 2, 67, 44
8, 2264, Note_on_c, 2, 70, 0
8, 2264, Note_on_c, 2, 67, 0
8, 2280, Note_on_c, 2, 70, 44
8, 2280, Note_on_c, 2, 67, 44
8, 2324, Note_on_c, 2, 70, 0
8, 2324, Note_on_c, 2, 67, 0
8, 2340, Note_on_c, 2, 70, 44
8, 2340, Note_on_c, 2, 67, 44
8, 2384, Note_on_c, 2, 70, 0
8, 2384, Note_on_c, 2, 67, 0
8, 2400, Note_on_c, 2, 70, 44
8, 2400, Note_on_c, 2, 67, 44
8, 2444, Note_on_c, 2, 70, 0
8, 2444, Note_on_c, 2, 67, 0
8, 2460, Note_on_c, 2, 70, 44
8, 2460, Note_on_c, 2, 67, 44
8, 2504, Note_on_c, 2, 70, 0
8, 2504, Note_on_c, 2, 67, 0
8, 2520, Note_on_c, 2, 70, 44
8, 2520, Note_on_c, 2, 67, 44
8, 2564, Note_on_c, 2, 70, 0
8, 2564, Note_on_c, 2, 67, 0
8, 2580, Note_on_c, 2, 70, 44
8, 2580, Note_on_c, 2, 67, 44
8, 2624, Note_on_c, 2, 70, 0
8, 2624, Note_on_c, 2, 67, 0
8, 2640, Note_on_c, 2, 66, 44
8, 2640, Note_on_c, 2, 69, 44
8, 2684, Note_on_c, 2, 66, 0
8, 2684, Note_on_c, 2, 69, 0
8, 2700, Note_on_c, 2, 66, 44
8, 2700, Note_on_c, 2, 69, 44
8, 2744, Note_on_c, 2, 66, 0
8, 2744, Note_on_c, 2, 69, 0
8, 2760, Note_on_c, 2, 66, 44
8, 2760, Note_on_c, 2, 69, 44
8, 2804, Note_on_c, 2, 66, 0
8, 2804, Note_on_c, 2, 69, 0
8, 2820, Note_on_c, 2, 66, 44
8, 2820, Note_on_c, 2, 69, 44
8, 2864, Note_on_c, 2, 66, 0
8, 2864, Note_on_c, 2, 69, 0
8, 2880, Note_on_c, 2, 70, 44
8, 2880, Note_on_c, 2, 67, 44
8, 2924, Note_on_c, 2, 70, 0
8, 2924, Note_on_c, 2, 67, 0
8, 2940, Note_on_c, 2, 70, 44
8, 2940, Note_on_c, 2, 67, 44
8, 2984, Note_on_c, 2, 70, 0
8, 2984, Note_on_c, 2, 67, 0
8, 3000, Note_on_c, 2, 70, 44
8, 3000, Note_on_c, 2, 67, 44
8, 3044, Note_on_c, 2, 70, 0
8, 3044, Note_on_c, 2, 67, 0
8, 3060, Note_on_c, 2, 70, 44
8, 3060, Note_on_c, 2, 67, 44
8, 3104, Note_on_c, 2, 70, 0
8, 3104, Note_on_c, 2, 67, 0
8, 3120, Note_on_c, 2, 70, 44
8, 3120, Note_on_c, 2, 67, 44
8, 3164, Note_on_c, 2, 70, 0
8, 3164, Note_on_c, 2, 67, 0
8, 3180, Note_on_c, 2, 70, 44
8, 3180, Note_on_c, 2, 67, 44
8, 3224, Note_on_c, 2, 70, 0
8, 3224, Note_on_c, 2, 67, 0
8, 3240, Note_on_c, 2, 70, 44
8, 3240, Note_on_c, 2, 67, 44
8, 3284, Note_on_c, 2, 70, 0
8, 3284, Note_on_c, 2, 67, 0
8, 3300, Note_on_c, 2, 70, 44
8, 3300, Note_on_c, 2, 67, 44
8, 3344, Note_on_c, 2, 70, 0
8, 3344, Note_on_c, 2, 67, 0
8, 3360, Note_on_c, 2, 70, 44
8, 3360, Note_on_c, 2, 67, 44
8, 3404, Note_on_c, 2, 70, 0
8, 3404, Note_on_c, 2, 67, 0
8, 3420, Note_on_c, 2, 70, 44
8, 3420, Note_on_c, 2, 67, 44
8, 3464, Note_on_c, 2, 70, 0
8, 3464, Note_on_c, 2, 67, 0
8, 3480, Note_on_c, 2, 70, 44
8, 3480, Note_on_c, 2, 67, 44
8, 3524, Note_on_c, 2, 70, 0
8, 3524, Note_on_c, 2, 67, 0
8, 3540, Note_on_c, 2, 70, 44
8, 3540, Note_on_c, 2, 67, 44
8, 3584, Note_on_c, 2, 70, 0
8, 3584, Note_on_c, 2, 67, 0
8, 3600, Note_on_c, 2, 70, 44
8, 3600, Note_on_c, 2, 67, 44
8, 3644, Note_on_c, 2, 70, 0
8, 3644, Note_on_c, 2, 67, 0
8, 3660, Note_on_c, 2, 70, 44
8, 3660, Note_on_c, 2, 67, 44
8, 3704, Note_on_c, 2, 70, 0
8, 3704, Note_on_c, 2, 67, 0
8, 3720, Note_on_c, 2, 70, 44
8, 3720, Note_on_c, 2, 67, 44
8, 3764, Note_on_c, 2, 70, 0
8, 3764, Note_on_c, 2, 67, 0
8, 3780, Note_on_c, 2, 70, 44
8, 3780, Note_on_c, 2, 67, 44
8, 3824, Note_on_c, 2, 70, 0
8, 3824, Note_on_c, 2, 67, 0
8, 3840, Note_on_c, 2, 70, 44
8, 3840, Note_on_c, 2, 67, 44
8, 3884, Note_on_c, 2, 70, 0
8, 3884, Note_on_c, 2, 67, 0
8, 3900, Note_on_c, 2, 70, 44
8, 3900, Note_on_c, 2, 67, 44
8, 3944, Note_on_c, 2, 70, 0
8, 3944, Note_on_c, 2, 67, 0
8, 3960, Note_on_c, 2, 70, 44
8, 3960, Note_on_c, 2, 67, 44
8, 4004, Note_on_c, 2, 70, 0
8, 4004, Note_on_c, 2, 67, 0
8, 4020, Note_on_c, 2, 69, 84
8, 4251, Note_on_c, 2, 69, 0
8, 4260, Note_on_c, 2, 72, 52
8, 4260, Note_on_c, 2, 69, 52
8, 4304, Note_on_c, 2, 72, 0
8, 4304, Note_on_c, 2, 69, 0
8, 4320, Note_on_c, 2, 72, 52
8, 4320, Note_on_c, 2, 69, 52
8, 4364, Note_on_c, 2, 72, 0
8, 4364, Note_on_c, 2, 69, 0
8, 4380, Note_on_c, 2, 72, 52
8, 4380, Note_on_c, 2, 69, 52
8, 4424, Note_on_c, 2, 72, 0
8, 4424, Note_on_c, 2, 69, 0
8, 4440, Note_on_c, 2, 72, 52
8, 4440, Note_on_c, 2, 69, 52
8, 4484, Note_on_c, 2, 72, 0
8, 4484, Note_on_c, 2, 69, 0
8, 4500, Note_on_c, 2, 72, 52
8, 4500, Note_on_c, 2, 69, 52
8, 4544, Note_on_c, 2, 72, 0
8, 4544, Note_on_c, 2, 69, 0
8, 4560, Note_on_c, 2, 74, 52
8, 4560, Note_on_c, 2, 70, 52
8, 4604, Note_on_c, 2, 74, 0
8, 4604, Note_on_c, 2, 70, 0
8, 4620, Note_on_c, 2, 70, 52
8, 4620, Note_on_c, 2, 65, 52
8, 4664, Note_on_c, 2, 70, 0
8, 4664, Note_on_c, 2, 65, 0
8, 4680, Note_on_c, 2, 70, 52
8, 4680, Note_on_c, 2, 65, 52
8, 4724, Note_on_c, 2, 70, 0
8, 4724, Note_on_c, 2, 65, 0
8, 4740, Note_on_c, 2, 70, 52
8, 4740, Note_on_c, 2, 65, 52
8, 4784, Note_on_c, 2, 70, 0
8, 4784, Note_on_c, 2, 65, 0
8, 4800, Note_on_c, 2, 72, 52
8, 4800, Note_on_c, 2, 65, 52
8, 4844, Note_on_c, 2, 72, 0
8, 4844, Note_on_c, 2, 65, 0
8, 4860, Note_on_c, 2, 72, 52
8, 4860, Note_on_c, 2, 65, 52
8, 4904, Note_on_c, 2, 72, 0
8, 4904, Note_on_c, 2, 65, 0
8, 4920, Note_on_c, 2, 72, 52
8, 4920, Note_on_c, 2, 65, 52
8, 4964, Note_on_c, 2, 72, 0
8, 4964, Note_on_c, 2, 65, 0
8, 4980, Note_on_c, 2, 72, 52
8, 4980, Note_on_c, 2, 65, 52
8, 5024, Note_on_c, 2, 72, 0
8, 5024, Note_on_c, 2, 65, 0
8, 5040, Note_on_c, 2, 70, 52
8, 5040, Note_on_c, 2, 65, 52
8, 5084, Note_on_c, 2, 70, 0
8, 5084, Note_on_c, 2, 65, 0
8, 5100, Note_on_c, 2, 70, 52
8, 5100, Note_on_c, 2, 65, 52
8, 5144, Note_on_c, 2, 70, 0
8, 5144, Note_on_c, 2, 65, 0
8, 5160, Note_on_c, 2, 70, 52
8, 5160, Note_on_c, 2, 65, 52
8, 5204, Note_on_c, 2, 70, 0
8, 5204, Note_on_c, 2, 65, 0
8, 5220, Note_on_c, 2, 70, 52
8, 5220, Note_on_c, 2, 65, 52
8, 5264, Note_on_c, 2, 70, 0
8, 5264, Note_on_c, 2, 65, 0
8, 5280, Note_on_c, 2, 69, 52
8, 5280, Note_on_c, 2, 65, 52
8, 5324, Note_on_c, 2, 69, 0
8, 5324, Note_on_c, 2, 65, 0
8, 5340, Note_on_c, 2, 69, 52
8, 5340, Note_on_c, 2, 65, 52
8, 5384, Note_on_c, 2, 69, 0
8, 5384, Note_on_c, 2, 65, 0
8, 5400, Note_on_c, 2, 69, 52
8, 5400, Note_on_c, 2, 65, 52
8, 5444, Note_on_c, 2, 69, 0
8, 5444, Note_on_c, 2, 65, 0
8, 5460, Note_on_c, 2, 69, 52
8, 5460, Note_on_c, 2, 65, 52
8, 5504, Note_on_c, 2, 69, 0
8, 5504, Note_on_c, 2, 65, 0
8, 5520, Note_on_c, 2, 70, 52
8, 5520, Note_on_c, 2, 65, 52
8, 5564, Note_on_c, 2, 70, 0
8, 5564, Note_on_c, 2, 65, 0
8, 5580, Note_on_c, 2, 70, 52
8, 5580, Note_on_c, 2, 65, 52
8, 5624, Note_on_c, 2, 70, 0
8, 5624, Note_on_c, 2, 65, 0
8, 5640, Note_on_c, 2, 70, 52
8, 5640, Note_on_c, 2, 65, 52
8, 5684, Note_on_c, 2, 70, 0
8, 5684, Note_on_c, 2, 65, 0
8, 5700, Note_on_c, 2, 70, 52
8, 5700, Note_on_c, 2, 65, 52
8, 5744, Note_on_c, 2, 70, 0
8, 5744, Note_on_c, 2, 65, 0
8, 5760, Note_on_c, 2, 72, 52
8, 5760, Note_on_c, 2, 65, 52
8, 5804, Note_on_c, 2, 72, 0
8, 5804, Note_on_c, 2, 65, 0
8, 5820, Note_on_c, 2, 72, 52
8, 5820, Note_on_c, 2, 65, 52
8, 5864, Note_on_c, 2, 72, 0
8, 5864, Note_on_c, 2, 65, 0
8, 5880, Note_on_c, 2, 72, 52
8, 5880, Note_on_c, 2, 65, 52
8, 5924, Note_on_c, 2, 72, 0
8, 5924, Note_on_c, 2, 65, 0
8, 5940, Note_on_c, 2, 72, 52
8, 5940, Note_on_c, 2, 65, 52
8, 5984, Note_on_c, 2, 72, 0
8, 5984, Note_on_c, 2, 65, 0
8, 6000, Note_on_c, 2, 70, 52
8, 6000, Note_on_c, 2, 65, 52
8, 6044, Note_on_c, 2, 70, 0
8, 6044, Note_on_c, 2, 65, 0
8, 6060, Note_on_c, 2, 70, 52
8, 6060, Note_on_c, 2, 65, 52
8, 6104, Note_on_c, 2, 70, 0
8, 6104, Note_on_c, 2, 65, 0
8, 6120, Note_on_c, 2, 70, 52
8, 6120, Note_on_c, 2, 65, 52
8, 6164, Note_on_c, 2, 70, 0
8, 6164, Note_on_c, 2, 65, 0
8, 6180, Note_on_c, 2, 67, 76
8, 6180, Note_on_c, 2, 70, 76
8, 6224, Note_on_c, 2, 67, 0
8, 6224, Note_on_c, 2, 70, 0
8, 6240, Note_on_c, 2, 70, 76
8, 6240, Note_on_c, 2, 65, 76
8, 6284, Note_on_c, 2, 70, 0
8, 6284, Note_on_c, 2, 65, 0
8, 6300, Note_on_c, 2, 70, 84
8, 6300, Note_on_c, 2, 67, 84
8, 6344, Note_on_c, 2, 70, 0
8, 6344, Note_on_c, 2, 67, 0
8, 6360, Note_on_c, 2, 70, 76
8, 6360, Note_on_c, 2, 65, 76
8, 6404, Note_on_c, 2, 70, 0
8, 6404, Note_on_c, 2, 65, 0
8, 6420, Note_on_c, 2, 70, 84
8, 6420, Note_on_c, 2, 67, 84
8, 6464, Note_on_c, 2, 70, 0
8, 6464, Note_on_c, 2, 67, 0
8, 6480, Note_on_c, 2, 70, 76
8, 6480, Note_on_c, 2, 65, 76
8, 6599, Note_on_c, 2, 70, 0
8, 6599, Note_on_c, 2, 65, 0
8, 7020, Note_on_c, 2, 70, 52
8, 7020, Note_on_c, 2, 65, 52
8, 7064, Note_on_c, 2, 70, 0
8, 7064, Note_on_c, 2, 65, 0
8, 7080, Note_on_c, 2, 70, 52
8, 7080, Note_on_c, 2, 65, 52
8, 7124, Note_on_c, 2, 70, 0
8, 7124, Note_on_c, 2, 65, 0
8, 7140, Note_on_c, 2, 70, 76
8, 7140, Note_on_c, 2, 67, 76
8, 7184, Note_on_c, 2, 70, 0
8, 7184, Note_on_c, 2, 67, 0
8, 7200, Note_on_c, 2, 70, 76
8, 7200, Note_on_c, 2, 65, 76
8, 7244, Note_on_c, 2, 70, 0
8, 7244, Note_on_c, 2, 65, 0
8, 7260, Note_on_c, 2, 70, 84
8, 7260, Note_on_c, 2, 67, 84
8, 7304, Note_on_c, 2, 70, 0
8, 7304, Note_on_c, 2, 67, 0
8, 7320, Note_on_c, 2, 70, 76
8, 7320, Note_on_c, 2, 65, 76
8, 7364, Note_on_c, 2, 70, 0
8, 7364, Note_on_c, 2, 65, 0
8, 7380, Note_on_c, 2, 70, 84
8, 7380, Note_on_c, 2, 67, 84
8, 7424, Note_on_c, 2, 70, 0
8, 7424, Note_on_c, 2, 67, 0
8, 7440, Note_on_c, 2, 70, 76
8, 7440, Note_on_c, 2, 65, 76
8, 7559, Note_on_c, 2, 70, 0
8, 7559, Note_on_c, 2, 65, 0
8, 7620, Note_on_c, 2, 70, 76
8, 7620, Note_on_c, 2, 67, 76
8, 7675, Note_on_c, 2, 70, 0
8, 7675, Note_on_c, 2, 67, 0
8, 7680, Note_on_c, 2, 70, 72
8, 7680, Note_on_c, 2, 65, 72
8, 7799, Note_on_c, 2, 70, 0
8, 7799, Note_on_c, 2, 65, 0
8, 7860, Note_on_c, 2, 67, 60
8, 7860, Note_on_c, 2, 70, 60
8, 7915, Note_on_c, 2, 67, 0
8, 7915, Note_on_c, 2, 70, 0
8, 7920, Note_on_c, 2, 70, 56
8, 7920, Note_on_c, 2, 65, 56
8, 8039, Note_on_c, 2, 70, 0
8, 8039, Note_on_c, 2, 65, 0
8, 8100, Note_on_c, 2, 67, 44
8, 8100, Note_on_c, 2, 63, 44
8, 8125, Note_on_c, 2, 67, 0
8, 8125, Note_on_c, 2, 63, 0
8, 8130, Note_on_c, 2, 69, 44
8, 8130, Note_on_c, 2, 65, 44
8, 8155, Note_on_c, 2, 69, 0
8, 8155, Note_on_c, 2, 65, 0
8, 8160, Note_on_c, 2, 62, 44
8, 8160, Note_on_c, 2, 65, 44
8, 8204, Note_on_c, 2, 62, 0
8, 8204, Note_on_c, 2, 65, 0
8, 8220, Note_on_c, 2, 70, 44
8, 8220, Note_on_c, 2, 62, 44
8, 8264, Note_on_c, 2, 70, 0
8, 8264, Note_on_c, 2, 62, 0
8, 8280, Note_on_c, 2, 70, 46
8, 8280, Note_on_c, 2, 62, 46
8, 8324, Note_on_c, 2, 70, 0
8, 8324, Note_on_c, 2, 62, 0
8, 8340, Note_on_c, 2, 62, 48
8, 8340, Note_on_c, 2, 70, 48
8, 8384, Note_on_c, 2, 62, 0
8, 8384, Note_on_c, 2, 70, 0
8, 8400, Note_on_c, 2, 70, 50
8, 8400, Note_on_c, 2, 62, 50
8, 8444, Note_on_c, 2, 70, 0
8, 8444, Note_on_c, 2, 62, 0
8, 8460, Note_on_c, 2, 62, 52
8, 8460, Note_on_c, 2, 70, 52
8, 8504, Note_on_c, 2, 62, 0
8, 8504, Note_on_c, 2, 70, 0
8, 8520, Note_on_c, 2, 70, 54
8, 8520, Note_on_c, 2, 62, 54
8, 8564, Note_on_c, 2, 70, 0
8, 8564, Note_on_c, 2, 62, 0
8, 8580, Note_on_c, 2, 62, 56
8, 8580, Note_on_c, 2, 70, 56
8, 8624, Note_on_c, 2, 62, 0
8, 8624, Note_on_c, 2, 70, 0
8, 8640, Note_on_c, 2, 70, 58
8, 8640, Note_on_c, 2, 67, 58
8, 8684, Note_on_c, 2, 70, 0
8, 8684, Note_on_c, 2, 67, 0
8, 8700, Note_on_c, 2, 67, 61
8, 8700, Note_on_c, 2, 70, 61
8, 8744, Note_on_c, 2, 67, 0
8, 8744, Note_on_c, 2, 70, 0
8, 8760, Note_on_c, 2, 67, 63
8, 8760, Note_on_c, 2, 70, 63
8, 8804, Note_on_c, 2, 67, 0
8, 8804, Note_on_c, 2, 70, 0
8, 8820, Note_on_c, 2, 70, 65
8, 8820, Note_on_c, 2, 67, 65
8, 8864, Note_on_c, 2, 70, 0
8, 8864, Note_on_c, 2, 67, 0
8, 8880, Note_on_c, 2, 70, 67
8, 8880, Note_on_c, 2, 67, 67
8, 8924, Note_on_c, 2, 70, 0
8, 8924, Note_on_c, 2, 67, 0
8, 8940, Note_on_c, 2, 70, 69
8, 8940, Note_on_c, 2, 67, 69
8, 8984, Note_on_c, 2, 70, 0
8, 8984, Note_on_c, 2, 67, 0
8, 9000, Note_on_c, 2, 70, 71
8, 9000, Note_on_c, 2, 67, 71
8, 9044, Note_on_c, 2, 70, 0
8, 9044, Note_on_c, 2, 67, 0
8, 9060, Note_on_c, 2, 67, 73
8, 9060, Note_on_c, 2, 70, 73
8, 9104, Note_on_c, 2, 67, 0
8, 9104, Note_on_c, 2, 70, 0
8, 9120, Note_on_c, 2, 67, 76
8, 9120, Note_on_c, 2, 70, 76
8, 9164, Note_on_c, 2, 67, 0
8, 9164, Note_on_c, 2, 70, 0
8, 9180, Note_on_c, 2, 67, 76
8, 9180, Note_on_c, 2, 70, 76
8, 9224, Note_on_c, 2, 67, 0
8, 9224, Note_on_c, 2, 70, 0
8, 9240, Note_on_c, 2, 70, 76
8, 9240, Note_on_c, 2, 67, 76
8, 9284, Note_on_c, 2, 70, 0
8, 9284, Note_on_c, 2, 67, 0
8, 9300, Note_on_c, 2, 67, 76
8, 9300, Note_on_c, 2, 70, 76
8, 9344, Note_on_c, 2, 67, 0
8, 9344, Note_on_c, 2, 70, 0
8, 9360, Note_on_c, 2, 69, 76
8, 9360, Note_on_c, 2, 65, 76
8, 9404, Note_on_c, 2, 69, 0
8, 9404, Note_on_c, 2, 65, 0
8, 9420, Note_on_c, 2, 69, 76
8, 9420, Note_on_c, 2, 65, 76
8, 9464, Note_on_c, 2, 69, 0
8, 9464, Note_on_c, 2, 65, 0
8, 9480, Note_on_c, 2, 65, 76
8, 9480, Note_on_c, 2, 69, 76
8, 9524, Note_on_c, 2, 65, 0
8, 9524, Note_on_c, 2, 69, 0
8, 9540, Note_on_c, 2, 65, 76
8, 9540, Note_on_c, 2, 69, 76
8, 9584, Note_on_c, 2, 65, 0
8, 9584, Note_on_c, 2, 69, 0
8, 9600, Note_on_c, 2, 64, 76
8, 9600, Note_on_c, 2, 67, 76
8, 9644, Note_on_c, 2, 64, 0
8, 9644, Note_on_c, 2, 67, 0
8, 9660, Note_on_c, 2, 67, 76
8, 9660, Note_on_c, 2, 64, 76
8, 9704, Note_on_c, 2, 67, 0
8, 9704, Note_on_c, 2, 64, 0
8, 9720, Note_on_c, 2, 67, 76
8, 9720, Note_on_c, 2, 64, 76
8, 9764, Note_on_c, 2, 67, 0
8, 9764, Note_on_c, 2, 64, 0
8, 9780, Note_on_c, 2, 64, 76
8, 9780, Note_on_c, 2, 67, 76
8, 9824, Note_on_c, 2, 64, 0
8, 9824, Note_on_c, 2, 67, 0
8, 9840, Note_on_c, 2, 69, 76
8, 9840, Note_on_c, 2, 65, 76
8, 9884, Note_on_c, 2, 69, 0
8, 9884, Note_on_c, 2, 65, 0
8, 9900, Note_on_c, 2, 65, 76
8, 9900, Note_on_c, 2, 69, 76
8, 9944, Note_on_c, 2, 65, 0
8, 9944, Note_on_c, 2, 69, 0
8, 9960, Note_on_c, 2, 65, 76
8, 9960, Note_on_c, 2, 69, 76
8, 10004, Note_on_c, 2, 65, 0
8, 10004, Note_on_c, 2, 69, 0
8, 10020, Note_on_c, 2, 69, 76
8, 10020, Note_on_c, 2, 65, 76
8, 10064, Note_on_c, 2, 69, 0
8, 10064, Note_on_c, 2, 65, 0
8, 10080, Note_on_c, 2, 70, 76
8, 10080, Note_on_c, 2, 67, 76
8, 10124, Note_on_c, 2, 70, 0
8, 10124, Note_on_c, 2, 67, 0
8, 10140, Note_on_c, 2, 67, 76
8, 10140, Note_on_c, 2, 70, 76
8, 10184, Note_on_c, 2, 67, 0
8, 10184, Note_on_c, 2, 70, 0
8, 10200, Note_on_c, 2, 67, 76
8, 10200, Note_on_c, 2, 70, 76
8, 10244, Note_on_c, 2, 67, 0
8, 10244, Note_on_c, 2, 70, 0
8, 10260, Note_on_c, 2, 70, 76
8, 10260, Note_on_c, 2, 67, 76
8, 10304, Note_on_c, 2, 70, 0
8, 10304, Note_on_c, 2, 67, 0
8, 10320, Note_on_c, 2, 69, 76
8, 10320, Note_on_c, 2, 65, 76
8, 10364, Note_on_c, 2, 69, 0
8, 10364, Note_on_c, 2, 65, 0
8, 10380, Note_on_c, 2, 69, 76
8, 10380, Note_on_c, 2, 65, 76
8, 10424, Note_on_c, 2, 69, 0
8, 10424, Note_on_c, 2, 65, 0
8, 10440, Note_on_c, 2, 69, 76
8, 10440, Note_on_c, 2, 65, 76
8, 10484, Note_on_c, 2, 69, 0
8, 10484, Note_on_c, 2, 65, 0
8, 10500, Note_on_c, 2, 69, 76
8, 10500, Note_on_c, 2, 65, 76
8, 10544, Note_on_c, 2, 69, 0
8, 10544, Note_on_c, 2, 65, 0
8, 10560, Note_on_c, 2, 64, 76
8, 10560, Note_on_c, 2, 67, 76
8, 10604, Note_on_c, 2, 64, 0
8, 10604, Note_on_c, 2, 67, 0
8, 10620, Note_on_c, 2, 67, 76
8, 10620, Note_on_c, 2, 64, 76
8, 10664, Note_on_c, 2, 67, 0
8, 10664, Note_on_c, 2, 64, 0
8, 10680, Note_on_c, 2, 67, 76
8, 10680, Note_on_c, 2, 64, 76
8, 10724, Note_on_c, 2, 67, 0
8, 10724, Note_on_c, 2, 64, 0
8, 10740, Note_on_c, 2, 67, 76
8, 10740, Note_on_c, 2, 64, 76
8, 10784, Note_on_c, 2, 67, 0
8, 10784, Note_on_c, 2, 64, 0
8, 10800, Note_on_c, 2, 65, 84
8, 10800, Note_on_c, 2, 69, 84
8, 10889, Note_on_c, 2, 65, 0
8, 10889, Note_on_c, 2, 69, 0
8, 11580, Note_on_c, 2, 67, 52
8, 11624, Note_on_c, 2, 67, 0
8, 11640, Note_on_c, 2, 60, 52
8, 11684, Note_on_c, 2, 60, 0
8, 11760, Note_on_c, 2, 69, 84
8, 11760, Note_on_c, 2, 65, 84
8, 11819, Note_on_c, 2, 69, 0
8, 11819, Note_on_c, 2, 65, 0
8, 12780, Note_on_c, 2, 64, 51
8, 12824, Note_on_c, 2, 64, 0
8, 12840, Note_on_c, 2, 60, 50
8, 12884, Note_on_c, 2, 60, 0
8, 13020, Note_on_c, 2, 70, 47
8, 13064, Note_on_c, 2, 70, 0
8, 13080, Note_on_c, 2, 69, 46
8, 13124, Note_on_c, 2, 69, 0
8, 13260, Note_on_c, 2, 65, 44
8, 13304, Note_on_c, 2, 65, 0
8, 13320, Note_on_c, 2, 75, 44
8, 13364, Note_on_c, 2, 75, 0
8, 13500, Note_on_c, 2, 74, 44
8, 13544, Note_on_c, 2, 74, 0
8, 13560, Note_on_c, 2, 73, 44
8, 13604, Note_on_c, 2, 73, 0
8, 13800, Note_on_c, 2, 60, 44
8, 13859, Note_on_c, 2, 60, 0
8, 13860, Note_on_c, 2, 65, 45
8, 13919, Note_on_c, 2, 65, 0
8, 13920, Note_on_c, 2, 64, 47
8, 13979, Note_on_c, 2, 64, 0
8, 13980, Note_on_c, 2, 62, 48
8, 14039, Note_on_c, 2, 62, 0
8, 14040, Note_on_c, 2, 60, 50
8, 14099, Note_on_c, 2, 60, 0
8, 14100, Note_on_c, 2, 70, 52
8, 14100, Note_on_c, 2, 64, 52
8, 14159, Note_on_c, 2, 70, 0
8, 14159, Note_on_c, 2, 64, 0
8, 14160, Note_on_c, 2, 65, 53
8, 14160, Note_on_c, 2, 69, 53
8, 14219, Note_on_c, 2, 65, 0
8, 14219, Note_on_c, 2, 69, 0
8, 14220, Note_on_c, 2, 67, 55
8, 14220, Note_on_c, 2, 58, 55
8, 14279, Note_on_c, 2, 67, 0
8, 14279, Note_on_c, 2, 58, 0
8, 14280, Note_on_c, 2, 65, 56
8, 14280, Note_on_c, 2, 57, 56
8, 14339, Note_on_c, 2, 65, 0
8, 14339, Note_on_c, 2, 57, 0
8, 14640, Control_c, 2, 11, 96
8, 14760, Note_on_c, 2, 60, 68
8, 14760, Control_c, 2, 11, 96
8, 14800, Control_c, 2, 11, 99
8, 14840, Control_c, 2, 11, 101
8, 14880, Control_c, 2, 11, 104
8, 14920, Control_c, 2, 11, 106
8, 14960, Control_c, 2, 11, 109
8, 15000, Control_c, 2, 11, 112
8, 15040, Control_c, 2, 11, 114
8, 15080, Control_c, 2, 11, 117
8, 15120, Control_c, 2, 11, 119
8, 15160, Control_c, 2, 11, 122
8, 15171, Note_on_c, 2, 60, 0
8, 15180, Note_on_c, 2, 60, 68
8, 15200, Control_c, 2, 11, 124
8, 15240, Control_c, 2, 11, 127
8, 15299, Note_on_c, 2, 60, 0
8, 15300, Note_on_c, 2, 72, 52
8, 15300, Note_on_c, 2, 69, 52
8, 15329, Note_on_c, 2, 72, 0
8, 15329, Note_on_c, 2, 69, 0
8, 15330, Note_on_c, 2, 69, 52
8, 15330, Note_on_c, 2, 65, 52
8, 15355, Note_on_c, 2, 69, 0
8, 15355, Note_on_c, 2, 65, 0
8, 15360, Note_on_c, 2, 64, 52
8, 15360, Note_on_c, 2, 67, 52
8, 15404, Note_on_c, 2, 64, 0
8, 15404, Note_on_c, 2, 67, 0
8, 15420, Note_on_c, 2, 67, 52
8, 15420, Note_on_c, 2, 70, 52
8, 15464, Note_on_c, 2, 67, 0
8, 15464, Note_on_c, 2, 70, 0
8, 15480, Note_on_c, 2, 70, 52
8, 15480, Note_on_c, 2, 67, 52
8, 15524, Note_on_c, 2, 70, 0
8, 15524, Note_on_c, 2, 67, 0
8, 15540, Note_on_c, 2, 67, 52
8, 15540, Note_on_c, 2, 70, 52
8, 15584, Note_on_c, 2, 67, 0
8, 15584, Note_on_c, 2, 70, 0
8, 15600, Note_on_c, 2, 69, 52
8, 15600, Note_on_c, 2, 65, 52
8, 15719, Note_on_c, 2, 69, 0
8, 15719, Note_on_c, 2, 65, 0
8, 15780, Note_on_c, 2, 70, 52
8, 15780, Note_on_c, 2, 74, 52
8, 15839, Note_on_c, 2, 70, 0
8, 15839, Note_on_c, 2, 74, 0
8, 15840, Note_on_c, 2, 69, 52
8, 15840, Note_on_c, 2, 72, 52
8, 15899, Note_on_c, 2, 69, 0
8, 15899, Note_on_c, 2, 72, 0
8, 16020, Note_on_c, 2, 70, 52
8, 16020, Note_on_c, 2, 67, 52
8, 16079, Note_on_c, 2, 70, 0
8, 16079, Note_on_c, 2, 67, 0
8, 16080, Note_on_c, 2, 69, 52
8, 16080, Note_on_c, 2, 65, 52
8, 16139, Note_on_c, 2, 69, 0
8, 16139, Note_on_c, 2, 65, 0
8, 16260, Note_on_c, 2, 72, 52
8, 16260, Note_on_c, 2, 75, 52
8, 16319, Note_on_c, 2, 72, 0
8, 16319, Note_on_c, 2, 75, 0
8, 16320, Note_on_c, 2, 70, 52
8, 16320, Note_on_c, 2, 74, 52
8, 16379, Note_on_c, 2, 70, 0
8, 16379, Note_on_c, 2, 74, 0
8, 16500, Note_on_c, 2, 72, 52
8, 16500, Note_on_c, 2, 69, 52
8, 16559, Note_on_c, 2, 72, 0
8, 16559, Note_on_c, 2, 69, 0
8, 16560, Note_on_c, 2, 70, 52
8, 16560, Note_on_c, 2, 67, 52
8, 16619, Note_on_c, 2, 70, 0
8, 16619, Note_on_c, 2, 67, 0
8, 16740, Note_on_c, 2, 74, 52
8, 16740, Note_on_c, 2, 77, 52
8, 16799, Note_on_c, 2, 74, 0
8, 16799, Note_on_c, 2, 77, 0
8, 16800, Note_on_c, 2, 75, 52
8, 16800, Note_on_c, 2, 72, 52
8, 16859, Note_on_c, 2, 75, 0
8, 16859, Note_on_c, 2, 72, 0
8, 16980, Note_on_c, 2, 74, 52
8, 16980, Note_on_c, 2, 70, 52
8, 17039, Note_on_c, 2, 74, 0
8, 17039, Note_on_c, 2, 70, 0
8, 17040, Note_on_c, 2, 69, 52
8, 17040, Note_on_c, 2, 72, 52
8, 17099, Note_on_c, 2, 69, 0
8, 17099, Note_on_c, 2, 72, 0
8, 17220, Note_on_c, 2, 79, 56
8, 17220, Note_on_c, 2, 75, 56
8, 17279, Note_on_c, 2, 79, 0
8, 17279, Note_on_c, 2, 75, 0
8, 17280, Note_on_c, 2, 74, 57
8, 17280, Note_on_c, 2, 77, 57
8, 17335, Note_on_c, 2, 74, 0
8, 17335, Note_on_c, 2, 77, 0
8, 17340, Note_on_c, 2, 72, 58
8, 17340, Note_on_c, 2, 75, 58
8, 17399, Note_on_c, 2, 72, 0
8, 17399, Note_on_c, 2, 75, 0
8, 17400, Note_on_c, 2, 74, 60
8, 17400, Note_on_c, 2, 70, 60
8, 17455, Note_on_c, 2, 74, 0
8, 17455, Note_on_c, 2, 70, 0
8, 17460, Note_on_c, 2, 72, 61
8, 17460, Note_on_c, 2, 69, 61
8, 17519, Note_on_c, 2, 72, 0
8, 17519, Note_on_c, 2, 69, 0
8, 17520, Note_on_c, 2, 75, 62
8, 17520, Note_on_c, 2, 79, 62
8, 17575, Note_on_c, 2, 75, 0
8, 17575, Note_on_c, 2, 79, 0
8, 17580, Note_on_c, 2, 77, 64
8, 17580, Note_on_c, 2, 74, 64
8, 17639, Note_on_c, 2, 77, 0
8, 17639, Note_on_c, 2, 74, 0
8, 17640, Note_on_c, 2, 75, 65
8, 17640, Note_on_c, 2, 72, 65
8, 17695, Note_on_c, 2, 75, 0
8, 17695, Note_on_c, 2, 72, 0
8, 17700, Note_on_c, 2, 74, 66
8, 17700, Note_on_c, 2, 70, 66
8, 17759, Note_on_c, 2, 74, 0
8, 17759, Note_on_c, 2, 70, 0
8, 17760, Note_on_c, 2, 69, 68
8, 17760, Note_on_c, 2, 72, 68
8, 17815, Note_on_c, 2, 69, 0
8, 17815, Note_on_c, 2, 72, 0
8, 17820, Note_on_c, 2, 75, 68
8, 17820, Note_on_c, 2, 79, 68
8, 17879, Note_on_c, 2, 75, 0
8, 17879, Note_on_c, 2, 79, 0
8, 17880, Note_on_c, 2, 77, 66
8, 17880, Note_on_c, 2, 74, 66
8, 17935, Note_on_c, 2, 77, 0
8, 17935, Note_on_c, 2, 74, 0
8, 17940, Note_on_c, 2, 75, 64
8, 17940, Note_on_c, 2, 72, 64
8, 17999, Note_on_c, 2, 75, 0
8, 17999, Note_on_c, 2, 72, 0
8, 18000, Note_on_c, 2, 70, 61
8, 18000, Note_on_c, 2, 74, 61
8, 18055, Note_on_c, 2, 70, 0
8, 18055, Note_on_c, 2, 74, 0
8, 18060, Note_on_c, 2, 72, 59
8, 18060, Note_on_c, 2, 69, 59
8, 18119, Note_on_c, 2, 72, 0
8, 18119, Note_on_c, 2, 69, 0
8, 18120, Note_on_c, 2, 79, 56
8, 18120, Note_on_c, 2, 75, 56
8, 18175, Note_on_c, 2, 79, 0
8, 18175, Note_on_c, 2, 75, 0
8, 18180, Note_on_c, 2, 77, 54
8, 18180, Note_on_c, 2, 74, 54
8, 18239, Note_on_c, 2, 77, 0
8, 18239, Note_on_c, 2, 74, 0
8, 18240, Note_on_c, 2, 75, 52
8, 18240, Note_on_c, 2, 72, 52
8, 18295, Note_on_c, 2, 75, 0
8, 18295, Note_on_c, 2, 72, 0
8, 18300, Note_on_c, 2, 74, 49
8, 18300, Note_on_c, 2, 70, 49
8, 18359, Note_on_c, 2, 74, 0
8, 18359, Note_on_c, 2, 70, 0
8, 18360, Note_on_c, 2, 72, 47
8, 18360, Note_on_c, 2, 69, 47
8, 18415, Note_on_c, 2, 72, 0
8, 18415, Note_on_c, 2, 69, 0
8, 18420, Note_on_c, 2, 79, 44
8, 18420, Note_on_c, 2, 75, 44
8, 18479, Note_on_c, 2, 79, 0
8, 18479, Note_on_c, 2, 75, 0
8, 18480, Note_on_c, 2, 77, 44
8, 18480, Note_on_c, 2, 74, 44
8, 18535, Note_on_c, 2, 77, 0
8, 18535, Note_on_c, 2, 74, 0
8, 18540, Note_on_c, 2, 75, 44
8, 18540, Note_on_c, 2, 72, 44
8, 18599, Note_on_c, 2, 75, 0
8, 18599, Note_on_c, 2, 72, 0
8, 18600, Note_on_c, 2, 74, 44
8, 18600, Note_on_c, 2, 70, 44
8, 18655, Note_on_c, 2, 74, 0
8, 18655, Note_on_c, 2, 70, 0
8, 18660, Note_on_c, 2, 63, 44
8, 18660, Note_on_c, 2, 72, 44
8, 18719, Note_on_c, 2, 63, 0
8, 18719, Note_on_c, 2, 72, 0
8, 18720, Note_on_c, 2, 62, 44
8, 18720, Note_on_c, 2, 70, 44
8, 18775, Note_on_c, 2, 62, 0
8, 18775, Note_on_c, 2, 70, 0
8, 18780, Note_on_c, 2, 65, 44
8, 18780, Note_on_c, 2, 70, 44
8, 18824, Note_on_c, 2, 65, 0
8, 18824, Note_on_c, 2, 70, 0
8, 18840, Note_on_c, 2, 70, 44
8, 18840, Note_on_c, 2, 65, 44
8, 18884, Note_on_c, 2, 70, 0
8, 18884, Note_on_c, 2, 65, 0
8, 18900, Note_on_c, 2, 65, 44
8, 18900, Note_on_c, 2, 70, 44
8, 18944, Note_on_c, 2, 65, 0
8, 18944, Note_on_c, 2, 70, 0
8, 18960, Note_on_c, 2, 65, 44
8, 18960, Note_on_c, 2, 70, 44
8, 19004, Note_on_c, 2, 65, 0
8, 19004, Note_on_c, 2, 70, 0
8, 19020, Note_on_c, 2, 70, 44
8, 19020, Note_on_c, 2, 65, 44
8, 19064, Note_on_c, 2, 70, 0
8, 19064, Note_on_c, 2, 65, 0
8, 19080, Note_on_c, 2, 70, 44
8, 19080, Note_on_c, 2, 65, 44
8, 19124, Note_on_c, 2, 70, 0
8, 19124, Note_on_c, 2, 65, 0
8, 19140, Note_on_c, 2, 70, 44
8, 19140, Note_on_c, 2, 65, 44
8, 19184, Note_on_c, 2, 70, 0
8, 19184, Note_on_c, 2, 65, 0
8, 19200, Note_on_c, 2, 65, 44
8, 19200, Note_on_c, 2, 70, 44
8, 19244, Note_on_c, 2, 65, 0
8, 19244, Note_on_c, 2, 70, 0
8, 19260, Note_on_c, 2, 65, 44
8, 19260, Note_on_c, 2, 70, 44
8, 19304, Note_on_c, 2, 65, 0
8, 19304, Note_on_c, 2, 70, 0
8, 19320, Note_on_c, 2, 70, 44
8, 19320, Note_on_c, 2, 65, 44
8, 19364, Note_on_c, 2, 70, 0
8, 19364, Note_on_c, 2, 65, 0
8, 19380, Note_on_c, 2, 70, 44
8, 19380, Note_on_c, 2, 65, 44
8, 19424, Note_on_c, 2, 70, 0
8, 19424, Note_on_c, 2, 65, 0
8, 19440, Note_on_c, 2, 65, 44
8, 19440, Note_on_c, 2, 70, 44
8, 19484, Note_on_c, 2, 65, 0
8, 19484, Note_on_c, 2, 70, 0
8, 19500, Note_on_c, 2, 65, 44
8, 19500, Note_on_c, 2, 70, 44
8, 19544, Note_on_c, 2, 65, 0
8, 19544, Note_on_c, 2, 70, 0
8, 19560, Note_on_c, 2, 70, 44
8, 19560, Note_on_c, 2, 65, 44
8, 19604, Note_on_c, 2, 70, 0
8, 19604, Note_on_c, 2, 65, 0
8, 19620, Note_on_c, 2, 65, 44
8, 19620, Note_on_c, 2, 70, 44
8, 19664, Note_on_c, 2, 65, 0
8, 19664, Note_on_c, 2, 70, 0
8, 19680, Note_on_c, 2, 72, 44
8, 19680, Note_on_c, 2, 65, 44
8, 19724, Note_on_c, 2, 72, 0
8, 19724, Note_on_c, 2, 65, 0
8, 19740, Note_on_c, 2, 72, 44
8, 19740, Note_on_c, 2, 65, 44
8, 19784, Note_on_c, 2, 72, 0
8, 19784, Note_on_c, 2, 65, 0
8, 19800, Note_on_c, 2, 72, 44
8, 19800, Note_on_c, 2, 65, 44
8, 19844, Note_on_c, 2, 72, 0
8, 19844, Note_on_c, 2, 65, 0
8, 19860, Note_on_c, 2, 65, 44
8, 19860, Note_on_c, 2, 72, 44
8, 19904, Note_on_c, 2, 65, 0
8, 19904, Note_on_c, 2, 72, 0
8, 19920, Note_on_c, 2, 65, 44
8, 19920, Note_on_c, 2, 70, 44
8, 19964, Note_on_c, 2, 65, 0
8, 19964, Note_on_c, 2, 70, 0
8, 19980, Note_on_c, 2, 70, 44
8, 19980, Note_on_c, 2, 65, 44
8, 20024, Note_on_c, 2, 70, 0
8, 20024, Note_on_c, 2, 65, 0
8, 20040, Note_on_c, 2, 65, 44
8, 20040, Note_on_c, 2, 70, 44
8, 20084, Note_on_c, 2, 65, 0
8, 20084, Note_on_c, 2, 70, 0
8, 20100, Note_on_c, 2, 65, 44
8, 20100, Note_on_c, 2, 70, 44
8, 20144, Note_on_c, 2, 65, 0
8, 20144, Note_on_c, 2, 70, 0
8, 20160, Note_on_c, 2, 70, 44
8, 20160, Note_on_c, 2, 65, 44
8, 20204, Note_on_c, 2, 70, 0
8, 20204, Note_on_c, 2, 65, 0
8, 20220, Note_on_c, 2, 70, 44
8, 20220, Note_on_c, 2, 65, 44
8, 20264, Note_on_c, 2, 70, 0
8, 20264, Note_on_c, 2, 65, 0
8, 20280, Note_on_c, 2, 65, 44
8, 20280, Note_on_c, 2, 70, 44
8, 20324, Note_on_c, 2, 65, 0
8, 20324, Note_on_c, 2, 70, 0
8, 20340, Note_on_c, 2, 70, 44
8, 20340, Note_on_c, 2, 65, 44
8, 20384, Note_on_c, 2, 70, 0
8, 20384, Note_on_c, 2, 65, 0
8, 20400, Note_on_c, 2, 70, 44
8, 20400, Note_on_c, 2, 65, 44
8, 20444, Note_on_c, 2, 70, 0
8, 20444, Note_on_c, 2, 65, 0
8, 20460, Note_on_c, 2, 65, 44
8, 20460, Note_on_c, 2, 70, 44
8, 20504, Note_on_c, 2, 65, 0
8, 20504, Note_on_c, 2, 70, 0
8, 20520, Note_on_c, 2, 65, 44
8, 20520, Note_on_c, 2, 70, 44
8, 20564, Note_on_c, 2, 65, 0
8, 20564, Note_on_c, 2, 70, 0
8, 20580, Note_on_c, 2, 65, 44
8, 20580, Note_on_c, 2, 70, 44
8, 20624, Note_on_c, 2, 65, 0
8, 20624, Note_on_c, 2, 70, 0
8, 20640, Note_on_c, 2, 70, 44
8, 20640, Note_on_c, 2, 65, 44
8, 20684, Note_on_c, 2, 70, 0
8, 20684, Note_on_c, 2, 65, 0
8, 20700, Note_on_c, 2, 70, 44
8, 20700, Note_on_c, 2, 65, 44
8, 20744, Note_on_c, 2, 70, 0
8, 20744, Note_on_c, 2, 65, 0
8, 20760, Note_on_c, 2, 70, 44
8, 20760, Note_on_c, 2, 65, 44
8, 20804, Note_on_c, 2, 70, 0
8, 20804, Note_on_c, 2, 65, 0
8, 20820, Note_on_c, 2, 70, 44
8, 20820, Note_on_c, 2, 65, 44
8, 20864, Note_on_c, 2, 70, 0
8, 20864, Note_on_c, 2, 65, 0
8, 20880, Note_on_c, 2, 70, 44
8, 20880, Note_on_c, 2, 65, 44
8, 20924, Note_on_c, 2, 70, 0
8, 20924, Note_on_c, 2, 65, 0
8, 20940, Note_on_c, 2, 65, 44
8, 20940, Note_on_c, 2, 70, 44
8, 20984, Note_on_c, 2, 65, 0
8, 20984, Note_on_c, 2, 70, 0
8, 21000, Note_on_c, 2, 65, 44
8, 21000, Note_on_c, 2, 70, 44
8, 21044, Note_on_c, 2, 65, 0
8, 21044, Note_on_c, 2, 70, 0
8, 21060, Note_on_c, 2, 65, 44
8, 21060, Note_on_c, 2, 70, 44
8, 21104, Note_on_c, 2, 65, 0
8, 21104, Note_on_c, 2, 70, 0
8, 21120, Note_on_c, 2, 70, 44
8, 21120, Note_on_c, 2, 65, 44
8, 21164, Note_on_c, 2, 70, 0
8, 21164, Note_on_c, 2, 65, 0
8, 21180, Note_on_c, 2, 65, 44
8, 21180, Note_on_c, 2, 70, 44
8, 21224, Note_on_c, 2, 65, 0
8, 21224, Note_on_c, 2, 70, 0
8, 21240, Note_on_c, 2, 70, 44
8, 21240, Note_on_c, 2, 65, 44
8, 21284, Note_on_c, 2, 70, 0
8, 21284, Note_on_c, 2, 65, 0
8, 21300, Note_on_c, 2, 70, 44
8, 21300, Note_on_c, 2, 65, 44
8, 21344, Note_on_c, 2, 70, 0
8, 21344, Note_on_c, 2, 65, 0
8, 21360, Note_on_c, 2, 65, 44
8, 21360, Note_on_c, 2, 72, 44
8, 21404, Note_on_c, 2, 65, 0
8, 21404, Note_on_c, 2, 72, 0
8, 21420, Note_on_c, 2, 72, 44
8, 21420, Note_on_c, 2, 65, 44
8, 21464, Note_on_c, 2, 72, 0
8, 21464, Note_on_c, 2, 65, 0
8, 21480, Note_on_c, 2, 65, 44
8, 21480, Note_on_c, 2, 72, 44
8, 21524, Note_on_c, 2, 65, 0
8, 21524, Note_on_c, 2, 72, 0
8, 21540, Note_on_c, 2, 65, 44
8, 21540, Note_on_c, 2, 69, 44
8, 21584, Note_on_c, 2, 65, 0
8, 21584, Note_on_c, 2, 69, 0
8, 21600, Note_on_c, 2, 70, 44
8, 21600, Note_on_c, 2, 65, 44
8, 21644, Note_on_c, 2, 70, 0
8, 21644, Note_on_c, 2, 65, 0
8, 21660, Note_on_c, 2, 65, 44
8, 21660, Note_on_c, 2, 70, 44
8, 21704, Note_on_c, 2, 65, 0
8, 21704, Note_on_c, 2, 70, 0
8, 21720, Note_on_c, 2, 70, 44
8, 21720, Note_on_c, 2, 65, 44
8, 21764, Note_on_c, 2, 70, 0
8, 21764, Note_on_c, 2, 65, 0
8, 21780, Note_on_c, 2, 65, 44
8, 21780, Note_on_c, 2, 70, 44
8, 21824, Note_on_c, 2, 65, 0
8, 21824, Note_on_c, 2, 70, 0
8, 21840, Note_on_c, 2, 69, 44
8, 21840, Note_on_c, 2, 65, 44
8, 21884, Note_on_c, 2, 69, 0
8, 21884, Note_on_c, 2, 65, 0
8, 21900, Note_on_c, 2, 69, 44
8, 21900, Note_on_c, 2, 65, 44
8, 21944, Note_on_c, 2, 69, 0
8, 21944, Note_on_c, 2, 65, 0
8, 21960, Note_on_c, 2, 69, 44
8, 21960, Note_on_c, 2, 65, 44
8, 22004, Note_on_c, 2, 69, 0
8, 22004, Note_on_c, 2, 65, 0
8, 22020, Note_on_c, 2, 65, 44
8, 22020, Note_on_c, 2, 69, 44
8, 22064, Note_on_c, 2, 65, 0
8, 22064, Note_on_c, 2, 69, 0
8, 22080, Note_on_c, 2, 70, 44
8, 22080, Note_on_c, 2, 65, 44
8, 22124, Note_on_c, 2, 70, 0
8, 22124, Note_on_c, 2, 65, 0
8, 22140, Note_on_c, 2, 65, 44
8, 22140, Note_on_c, 2, 70, 44
8, 22184, Note_on_c, 2, 65, 0
8, 22184, Note_on_c, 2, 70, 0
8, 22200, Note_on_c, 2, 65, 44
8, 22200, Note_on_c, 2, 70, 44
8, 22244, Note_on_c, 2, 65, 0
8, 22244, Note_on_c, 2, 70, 0
8, 22260, Note_on_c, 2, 70, 44
8, 22260, Note_on_c, 2, 65, 44
8, 22304, Note_on_c, 2, 70, 0
8, 22304, Note_on_c, 2, 65, 0
8, 22320, Note_on_c, 2, 69, 44
8, 22320, Note_on_c, 2, 65, 44
8, 22364, Note_on_c, 2, 69, 0
8, 22364, Note_on_c, 2, 65, 0
8, 22380, Note_on_c, 2, 65, 44
8, 22380, Note_on_c, 2, 69, 44
8, 22424, Note_on_c, 2, 65, 0
8, 22424, Note_on_c, 2, 69, 0
8, 22440, Note_on_c, 2, 69, 44
8, 22440, Note_on_c, 2, 65, 44
8, 22484, Note_on_c, 2, 69, 0
8, 22484, Note_on_c, 2, 65, 0
8, 22500, Note_on_c, 2, 69, 44
8, 22500, Note_on_c, 2, 65, 44
8, 22544, Note_on_c, 2, 69, 0
8, 22544, Note_on_c, 2, 65, 0
8, 22560, Note_on_c, 2, 70, 44
8, 22560, Note_on_c, 2, 65, 44
8, 22604, Note_on_c, 2, 70, 0
8, 22604, Note_on_c, 2, 65, 0
8, 22620, Note_on_c, 2, 70, 44
8, 22620, Note_on_c, 2, 65, 44
8, 22664, Note_on_c, 2, 70, 0
8, 22664, Note_on_c, 2, 65, 0
8, 22680, Note_on_c, 2, 70, 44
8, 22680, Note_on_c, 2, 65, 44
8, 22724, Note_on_c, 2, 70, 0
8, 22724, Note_on_c, 2, 65, 0
8, 22740, Note_on_c, 2, 65, 44
8, 22740, Note_on_c, 2, 70, 44
8, 22784, Note_on_c, 2, 65, 0
8, 22784, Note_on_c, 2, 70, 0
8, 22800, Note_on_c, 2, 69, 44
8, 22800, Note_on_c, 2, 65, 44
8, 22844, Note_on_c, 2, 69, 0
8, 22844, Note_on_c, 2, 65, 0
8, 22860, Note_on_c, 2, 69, 46
8, 22860, Note_on_c, 2, 65, 46
8, 22904, Note_on_c, 2, 69, 0
8, 22904, Note_on_c, 2, 65, 0
8, 22920, Note_on_c, 2, 65, 49
8, 22920, Note_on_c, 2, 69, 49
8, 22964, Note_on_c, 2, 65, 0
8, 22964, Note_on_c, 2, 69, 0
8, 22980, Note_on_c, 2, 65, 52
8, 22980, Note_on_c, 2, 69, 52
8, 23024, Note_on_c, 2, 65, 0
8, 23024, Note_on_c, 2, 69, 0
8, 23040, Note_on_c, 2, 70, 54
8, 23040, Note_on_c, 2, 65, 54
8, 23084, Note_on_c, 2, 70, 0
8, 23084, Note_on_c, 2, 65, 0
8, 23100, Note_on_c, 2, 70, 57
8, 23100, Note_on_c, 2, 65, 57
8, 23144, Note_on_c, 2, 70, 0
8, 23144, Note_on_c, 2, 65, 0
8, 23160, Note_on_c, 2, 70, 60
8, 23160, Note_on_c, 2, 65, 60
8, 23204, Note_on_c, 2, 70, 0
8, 23204, Note_on_c, 2, 65, 0
8, 23220, Note_on_c, 2, 70, 62
8, 23220, Note_on_c, 2, 65, 62
8, 23264, Note_on_c, 2, 70, 0
8, 23264, Note_on_c, 2, 65, 0
8, 23280, Note_on_c, 2, 64, 65
8, 23280, Note_on_c, 2, 67, 65
8, 23324, Note_on_c, 2, 64, 0
8, 23324, Note_on_c, 2, 67, 0
8, 23340, Note_on_c, 2, 60, 68
8, 23340, Note_on_c, 2, 72, 68
8, 23384, Note_on_c, 2, 60, 0
8, 23384, Note_on_c, 2, 72, 0
8, 23400, Note_on_c, 2, 72, 70
8, 23400, Note_on_c, 2, 60, 70
8, 23444, Note_on_c, 2, 72, 0
8, 23444, Note_on_c, 2, 60, 0
8, 23460, Note_on_c, 2, 60, 73
8, 23460, Note_on_c, 2, 72, 73
8, 23504, Note_on_c, 2, 60, 0
8, 23504, Note_on_c, 2, 72, 0
8, 23520, Note_on_c, 2, 72, 76
8, 23520, Note_on_c, 2, 60, 76
8, 23564, Note_on_c, 2, 72, 0
8, 23564, Note_on_c, 2, 60, 0
8, 23580, Note_on_c, 2, 60, 76
8, 23580, Note_on_c, 2, 72, 76
8, 23624, Note_on_c, 2, 60, 0
8, 23624, Note_on_c, 2, 72, 0
8, 23640, Note_on_c, 2, 60, 76
8, 23640, Note_on_c, 2, 72, 76
8, 23684, Note_on_c, 2, 60, 0
8, 23684, Note_on_c, 2, 72, 0
8, 23700, Note_on_c, 2, 72, 76
8, 23700, Note_on_c, 2, 60, 76
8, 23744, Note_on_c, 2, 72, 0
8, 23744, Note_on_c, 2, 60, 0
8, 23760, Note_on_c, 2, 60, 76
8, 23760, Note_on_c, 2, 72, 76
8, 23804, Note_on_c, 2, 60, 0
8, 23804, Note_on_c, 2, 72, 0
8, 23820, Note_on_c, 2, 60, 76
8, 23820, Note_on_c, 2, 72, 76
8, 23864, Note_on_c, 2, 60, 0
8, 23864, Note_on_c, 2, 72, 0
8, 23880, Note_on_c, 2, 72, 76
8, 23880, Note_on_c, 2, 60, 76
8, 23924, Note_on_c, 2, 72, 0
8, 23924, Note_on_c, 2, 60, 0
8, 23940, Note_on_c, 2, 60, 76
8, 23940, Note_on_c, 2, 72, 76
8, 23984, Note_on_c, 2, 60, 0
8, 23984, Note_on_c, 2, 72, 0
8, 24000, Note_on_c, 2, 60, 76
8, 24000, Note_on_c, 2, 72, 76
8, 24044, Note_on_c, 2, 60, 0
8, 24044, Note_on_c, 2, 72, 0
8, 24060, Note_on_c, 2, 60, 76
8, 24060, Note_on_c, 2, 72, 76
8, 24104, Note_on_c, 2, 60, 0
8, 24104, Note_on_c, 2, 72, 0
8, 24120, Note_on_c, 2, 72, 76
8, 24120, Note_on_c, 2, 60, 76
8, 24164, Note_on_c, 2, 72, 0
8, 24164, Note_on_c, 2, 60, 0
8, 24180, Note_on_c, 2, 72, 76
8, 24180, Note_on_c, 2, 60, 76
8, 24224, Note_on_c, 2, 72, 0
8, 24224, Note_on_c, 2, 60, 0
8, 24240, Note_on_c, 2, 60, 76
8, 24240, Note_on_c, 2, 72, 76
8, 24284, Note_on_c, 2, 60, 0
8, 24284, Note_on_c, 2, 72, 0
8, 24300, Note_on_c, 2, 69, 76
8, 24329, Note_on_c, 2, 69, 0
8, 24330, Note_on_c, 2, 70, 76
8, 24355, Note_on_c, 2, 70, 0
8, 24360, Note_on_c, 2, 70, 76
8, 24389, Note_on_c, 2, 70, 0
8, 24390, Note_on_c, 2, 72, 76
8, 24415, Note_on_c, 2, 72, 0
8, 24420, Note_on_c, 2, 72, 76
8, 24449, Note_on_c, 2, 72, 0
8, 24450, Note_on_c, 2, 74, 76
8, 24475, Note_on_c, 2, 74, 0
8, 24480, Note_on_c, 2, 75, 84
8, 24651, Note_on_c, 2, 75, 0
8, 24660, Note_on_c, 2, 72, 76
8, 24704, Note_on_c, 2, 72, 0
8, 24720, Note_on_c, 2, 74, 84
8, 24891, Note_on_c, 2, 74, 0
8, 24900, Note_on_c, 2, 70, 76
8, 24944, Note_on_c, 2, 70, 0
8, 24960, Note_on_c, 2, 72, 76
8, 25004, Note_on_c, 2, 72, 0
8, 25020, Note_on_c, 2, 69, 76
8, 25064, Note_on_c, 2, 69, 0
8, 25080, Note_on_c, 2, 65, 76
8, 25124, Note_on_c, 2, 65, 0
8, 25140, Note_on_c, 2, 69, 76
8, 25184, Note_on_c, 2, 69, 0
8, 25200, Note_on_c, 2, 70, 76
8, 25244, Note_on_c, 2, 70, 0
8, 25260, Note_on_c, 2, 74, 76
8, 25304, Note_on_c, 2, 74, 0
8, 25320, Note_on_c, 2, 77, 76
8, 25364, Note_on_c, 2, 77, 0
8, 25380, Note_on_c, 2, 74, 76
8, 25424, Note_on_c, 2, 74, 0
8, 25440, Note_on_c, 2, 75, 76
8, 25495, Note_on_c, 2, 75, 0
8, 25500, Note_on_c, 2, 75, 84
8, 25611, Note_on_c, 2, 75, 0
8, 25620, Note_on_c, 2, 72, 76
8, 25634, Note_on_c, 2, 72, 0
8, 25635, Note_on_c, 2, 74, 76
8, 25649, Note_on_c, 2, 74, 0
8, 25650, Note_on_c, 2, 70, 76
8, 25664, Note_on_c, 2, 70, 0
8, 25665, Note_on_c, 2, 72, 76
8, 25679, Note_on_c, 2, 72, 0
8, 25680, Note_on_c, 2, 74, 76
8, 25735, Note_on_c, 2, 74, 0
8, 25740, Note_on_c, 2, 74, 84
8, 25851, Note_on_c, 2, 74, 0
8, 25860, Note_on_c, 2, 70, 76
8, 25874, Note_on_c, 2, 70, 0
8, 25875, Note_on_c, 2, 72, 76
8, 25889, Note_on_c, 2, 72, 0
8, 25890, Note_on_c, 2, 69, 76
8, 25904, Note_on_c, 2, 69, 0
8, 25905, Note_on_c, 2, 70, 76
8, 25919, Note_on_c, 2, 70, 0
8, 25920, Note_on_c, 2, 72, 76
8, 25964, Note_on_c, 2, 72, 0
8, 25980, Note_on_c, 2, 69, 76
8, 26024, Note_on_c, 2, 69, 0
8, 26040, Note_on_c, 2, 65, 76
8, 26084, Note_on_c, 2, 65, 0
8, 26100, Note_on_c, 2, 69, 76
8, 26144, Note_on_c, 2, 69, 0
8, 26160, Note_on_c, 2, 70, 76
8, 26204, Note_on_c, 2, 70, 0
8, 26220, Note_on_c, 2, 74, 76
8, 26264, Note_on_c, 2, 74, 0
8, 26280, Note_on_c, 2, 77, 76
8, 26324, Note_on_c, 2, 77, 0
8, 26340, Note_on_c, 2, 74, 76
8, 26384, Note_on_c, 2, 74, 0
8, 26400, Note_on_c, 2, 75, 76
8, 26455, Note_on_c, 2, 75, 0
8, 26460, Note_on_c, 2, 75, 76
8, 26571, Note_on_c, 2, 75, 0
8, 26580, Note_on_c, 2, 72, 76
8, 26594, Note_on_c, 2, 72, 0
8, 26595, Note_on_c, 2, 74, 76
8, 26609, Note_on_c, 2, 74, 0
8, 26610, Note_on_c, 2, 70, 76
8, 26624, Note_on_c, 2, 70, 0
8, 26625, Note_on_c, 2, 72, 76
8, 26639, Note_on_c, 2, 72, 0
8, 26640, Note_on_c, 2, 74, 84
8, 26640, Note_on_c, 2, 70, 84
8, 26729, Note_on_c, 2, 74, 0
8, 26729, Note_on_c, 2, 70, 0
8, 27180, Note_on_c, 2, 67, 52
8, 27224, Note_on_c, 2, 67, 0
8, 27240, Note_on_c, 2, 64, 52
8, 27284, Note_on_c, 2, 64, 0
8, 27420, Note_on_c, 2, 72, 52
8, 27464, Note_on_c, 2, 72, 0
8, 27480, Note_on_c, 2, 65, 52
8, 27524, Note_on_c, 2, 65, 0
8, 27600, Note_on_c, 2, 74, 84
8, 27600, Note_on_c, 2, 70, 84
8, 27644, Note_on_c, 2, 74, 0
8, 27644, Note_on_c, 2, 70, 0
8, 28140, Note_on_c, 2, 67, 52
8, 28184, Note_on_c, 2, 67, 0
8, 28200, Note_on_c, 2, 64, 52
8, 28244, Note_on_c, 2, 64, 0
8, 28380, Note_on_c, 2, 60, 52
8, 28424, Note_on_c, 2, 60, 0
8, 28440, Note_on_c, 2, 70, 51
8, 28484, Note_on_c, 2, 70, 0
8, 28620, Note_on_c, 2, 69, 49
8, 28664, Note_on_c, 2, 69, 0
8, 28680, Note_on_c, 2, 65, 48
8, 28724, Note_on_c, 2, 65, 0
8, 29100, Note_on_c, 2, 58, 44
8, 29144, Note_on_c, 2, 58, 0
8, 29160, Note_on_c, 2, 68, 44
8, 29204, Note_on_c, 2, 68, 0
8, 29340, Note_on_c, 2, 67, 44
8, 29384, Note_on_c, 2, 67, 0
8, 29400, Note_on_c, 2, 66, 44
8, 29444, Note_on_c, 2, 66, 0
8, 29640, Note_on_c, 2, 65, 46
8, 29699, Note_on_c, 2, 65, 0
8, 29700, Note_on_c, 2, 70, 48
8, 29759, Note_on_c, 2, 70, 0
8, 29760, Note_on_c, 2, 69, 49
8, 29819, Note_on_c, 2, 69, 0
8, 29820, Note_on_c, 2, 67, 50
8, 29879, Note_on_c, 2, 67, 0
8, 29880, Note_on_c, 2, 65, 52
8, 29939, Note_on_c, 2, 65, 0
8, 29940, Note_on_c, 2, 75, 53
8, 29940, Note_on_c, 2, 69, 53
8, 29999, Note_on_c, 2, 75, 0
8, 29999, Note_on_c, 2, 69, 0
8, 30000, Note_on_c, 2, 74, 54
8, 30000, Note_on_c, 2, 70, 54
8, 30059, Note_on_c, 2, 74, 0
8, 30059, Note_on_c, 2, 70, 0
8, 30060, Note_on_c, 2, 72, 56
8, 30060, Note_on_c, 2, 63, 56
8, 30119, Note_on_c, 2, 72, 0
8, 30119, Note_on_c, 2, 63, 0
8, 30120, Note_on_c, 2, 70, 57
8, 30120, Note_on_c, 2, 62, 57
8, 30179, Note_on_c, 2, 70, 0
8, 30179, Note_on_c, 2, 62, 0
8, 30480, Control_c, 2, 11, 96
8, 30600, Note_on_c, 2, 65, 68
8, 30600, Control_c, 2, 11, 96
8, 30645, Control_c, 2, 11, 99
8, 30690, Control_c, 2, 11, 101
8, 30735, Control_c, 2, 11, 104
8, 30780, Control_c, 2, 11, 106
8, 30825, Control_c, 2, 11, 109
8, 30870, Control_c, 2, 11, 112
8, 30915, Control_c, 2, 11, 114
8, 30960, Control_c, 2, 11, 117
8, 31005, Control_c, 2, 11, 119
8, 31011, Note_on_c, 2, 65, 0
8, 31020, Note_on_c, 2, 77, 68
8, 31050, Control_c, 2, 11, 122
8, 31095, Control_c, 2, 11, 124
8, 31139, Note_on_c, 2, 77, 0
8, 31140, Control_c, 2, 11, 127
8, 31140, Note_on_c, 2, 74, 52
8, 31169, Note_on_c, 2, 74, 0
8, 31170, Note_on_c, 2, 70, 52
8, 31195, Note_on_c, 2, 70, 0
8, 31200, Note_on_c, 2, 69, 52
8, 31244, Note_on_c, 2, 69, 0
8, 31260, Note_on_c, 2, 65, 52
8, 31260, Note_on_c, 2, 69, 52
8, 31304, Note_on_c, 2, 65, 0
8, 31304, Note_on_c, 2, 69, 0
8, 31320, Note_on_c, 2, 65, 52
8, 31320, Note_on_c, 2, 69, 52
8, 31364, Note_on_c, 2, 65, 0
8, 31364, Note_on_c, 2, 69, 0
8, 31380, Note_on_c, 2, 69, 52
8, 31380, Note_on_c, 2, 65, 52
8, 31424, Note_on_c, 2, 69, 0
8, 31424, Note_on_c, 2, 65, 0
8, 31440, Note_on_c, 2, 70, 52
8, 31440, Note_on_c, 2, 65, 52
8, 31499, Note_on_c, 2, 70, 0
8, 31499, Note_on_c, 2, 65, 0
8, 31620, Note_on_c, 2, 67, 52
8, 31620, Note_on_c, 2, 63, 52
8, 31679, Note_on_c, 2, 67, 0
8, 31679, Note_on_c, 2, 63, 0
8, 31680, Note_on_c, 2, 62, 52
8, 31680, Note_on_c, 2, 65, 52
8, 31739, Note_on_c, 2, 62, 0
8, 31739, Note_on_c, 2, 65, 0
8, 31860, Note_on_c, 2, 63, 52
8, 31860, Note_on_c, 2, 60, 52
8, 31919, Note_on_c, 2, 63, 0
8, 31919, Note_on_c, 2, 60, 0
8, 31920, Note_on_c, 2, 62, 52
8, 31920, Note_on_c, 2, 58, 52
8, 31979, Note_on_c, 2, 62, 0
8, 31979, Note_on_c, 2, 58, 0
8, 32100, Note_on_c, 2, 65, 52
8, 32100, Note_on_c, 2, 68, 52
8, 32159, Note_on_c, 2, 65, 0
8, 32159, Note_on_c, 2, 68, 0
8, 32160, Note_on_c, 2, 67, 52
8, 32160, Note_on_c, 2, 63, 52
8, 32219, Note_on_c, 2, 67, 0
8, 32219, Note_on_c, 2, 63, 0
8, 32340, Note_on_c, 2, 65, 52
8, 32340, Note_on_c, 2, 62, 52
8, 32399, Note_on_c, 2, 65, 0
8, 32399, Note_on_c, 2, 62, 0
8, 32400, Note_on_c, 2, 60, 52
8, 32400, Note_on_c, 2, 63, 52
8, 32459, Note_on_c, 2, 60, 0
8, 32459, Note_on_c, 2, 63, 0
8, 32580, Note_on_c, 2, 67, 52
8, 32580, Note_on_c, 2, 70, 52
8, 32639, Note_on_c, 2, 67, 0
8, 32639, Note_on_c, 2, 70, 0
8, 32640, Note_on_c, 2, 68, 52
8, 32640, Note_on_c, 2, 65, 52
8, 32699, Note_on_c, 2, 68, 0
8, 32699, Note_on_c, 2, 65, 0
8, 32820, Note_on_c, 2, 63, 52
8, 32820, Note_on_c, 2, 67, 52
8, 32879, Note_on_c, 2, 63, 0
8, 32879, Note_on_c, 2, 67, 0
8, 32880, Note_on_c, 2, 65, 52
8, 32880, Note_on_c, 2, 62, 52
8, 32939, Note_on_c, 2, 65, 0
8, 32939, Note_on_c, 2, 62, 0
8, 33060, Note_on_c, 2, 72, 56
8, 33060, Note_on_c, 2, 68, 56
8, 33119, Note_on_c, 2, 72, 0
8, 33119, Note_on_c, 2, 68, 0
8, 33120, Note_on_c, 2, 70, 57
8, 33120, Note_on_c, 2, 67, 57
8, 33175, Note_on_c, 2, 70, 0
8, 33175, Note_on_c, 2, 67, 0
8, 33180, Note_on_c, 2, 65, 58
8, 33180, Note_on_c, 2, 68, 58
8, 33239, Note_on_c, 2, 65, 0
8, 33239, Note_on_c, 2, 68, 0
8, 33240, Note_on_c, 2, 67, 60
8, 33240, Note_on_c, 2, 63, 60
8, 33295, Note_on_c, 2, 67, 0
8, 33295, Note_on_c, 2, 63, 0
8, 33300, Note_on_c, 2, 62, 61
8, 33300, Note_on_c, 2, 65, 61
8, 33359, Note_on_c, 2, 62, 0
8, 33359, Note_on_c, 2, 65, 0
8, 33360, Note_on_c, 2, 72, 62
8, 33360, Note_on_c, 2, 68, 62
8, 33415, Note_on_c, 2, 72, 0
8, 33415, Note_on_c, 2, 68, 0
8, 33420, Note_on_c, 2, 70, 64
8, 33420, Note_on_c, 2, 67, 64
8, 33479, Note_on_c, 2, 70, 0
8, 33479, Note_on_c, 2, 67, 0
8, 33480, Note_on_c, 2, 65, 65
8, 33480, Note_on_c, 2, 68, 65
8, 33535, Note_on_c, 2, 65, 0
8, 33535, Note_on_c, 2, 68, 0
8, 33540, Note_on_c, 2, 67, 66
8, 33540, Note_on_c, 2, 63, 66
8, 33599, Note_on_c, 2, 67, 0
8, 33599, Note_on_c, 2, 63, 0
8, 33600, Note_on_c, 2, 65, 68
8, 33600, Note_on_c, 2, 62, 68
8, 33655, Note_on_c, 2, 65, 0
8, 33655, Note_on_c, 2, 62, 0
8, 33660, Note_on_c, 2, 72, 68
8, 33660, Note_on_c, 2, 68, 68
8, 33719, Note_on_c, 2, 72, 0
8, 33719, Note_on_c, 2, 68, 0
8, 33720, Note_on_c, 2, 70, 66
8, 33720, Note_on_c, 2, 67, 66
8, 33775, Note_on_c, 2, 70, 0
8, 33775, Note_on_c, 2, 67, 0
8, 33780, Note_on_c, 2, 68, 64
8, 33780, Note_on_c, 2, 65, 64
8, 33839, Note_on_c, 2, 68, 0
8, 33839, Note_on_c, 2, 65, 0
8, 33840, Note_on_c, 2, 67, 62
8, 33840, Note_on_c, 2, 63, 62
8, 33895, Note_on_c, 2, 67, 0
8, 33895, Note_on_c, 2, 63, 0
8, 33900, Note_on_c, 2, 62, 60
8, 33900, Note_on_c, 2, 65, 60
8, 33959, Note_on_c, 2, 62, 0
8, 33959, Note_on_c, 2, 65, 0
8, 33960, Note_on_c, 2, 72, 58
8, 33960, Note_on_c, 2, 68, 58
8, 34015, Note_on_c, 2, 72, 0
8, 34015, Note_on_c, 2, 68, 0
8, 34020, Note_on_c, 2, 70, 56
8, 34020, Note_on_c, 2, 67, 56
8, 34079, Note_on_c, 2, 70, 0
8, 34079, Note_on_c, 2, 67, 0
8, 34080, Note_on_c, 2, 68, 54
8, 34080, Note_on_c, 2, 65, 54
8, 34135, Note_on_c, 2, 68, 0
8, 34135, Note_on_c, 2, 65, 0
8, 34140, Note_on_c, 2, 63, 52
8, 34140, Note_on_c, 2, 67, 52
8, 34199, Note_on_c, 2, 63, 0
8, 34199, Note_on_c, 2, 67, 0
8, 34200, Note_on_c, 2, 65, 52
8, 34200, Note_on_c, 2, 62, 52
8, 34255, Note_on_c, 2, 65, 0
8, 34255, Note_on_c, 2, 62, 0
8, 34260, Note_on_c, 2, 72, 44
8, 34260, Note_on_c, 2, 68, 44
8, 34319, Note_on_c, 2, 72, 0
8, 34319, Note_on_c, 2, 68, 0
8, 34320, Note_on_c, 2, 67, 44
8, 34320, Note_on_c, 2, 70, 44
8, 34375, Note_on_c, 2, 67, 0
8, 34375, Note_on_c, 2, 70, 0
8, 34380, Note_on_c, 2, 68, 44
8, 34380, Note_on_c, 2, 65, 44
8, 34439, Note_on_c, 2, 68, 0
8, 34439, Note_on_c, 2, 65, 0
8, 34440, Note_on_c, 2, 67, 44
8, 34440, Note_on_c, 2, 63, 44
8, 34495, Note_on_c, 2, 67, 0
8, 34495, Note_on_c, 2, 63, 0
8, 34500, Note_on_c, 2, 65, 44
8, 34500, Note_on_c, 2, 68, 44
8, 34739, Note_on_c, 2, 65, 0
8, 34739, Note_on_c, 2, 68, 0
8, 35220, Note_on_c, 2, 58, 44
8, 35241, Note_on_c, 2, 58, 0
8, 35250, Note_on_c, 2, 60, 44
8, 35271, Note_on_c, 2, 60, 0
8, 35280, Note_on_c, 2, 62, 44
8, 35324, Note_on_c, 2, 62, 0
8, 35340, Note_on_c, 2, 58, 44
8, 35340, Note_on_c, 2, 62, 44
8, 35361, Note_on_c, 2, 58, 0
8, 35361, Note_on_c, 2, 62, 0
8, 35370, Note_on_c, 2, 60, 44
8, 35370, Note_on_c, 2, 63, 44
8, 35391, Note_on_c, 2, 60, 0
8, 35391, Note_on_c, 2, 63, 0
8, 35400, Note_on_c, 2, 65, 44
8, 35400, Note_on_c, 2, 62, 44
8, 35444, Note_on_c, 2, 65, 0
8, 35444, Note_on_c, 2, 62, 0
8, 35460, Note_on_c, 2, 62, 44
8, 35460, Note_on_c, 2, 65, 44
8, 35481, Note_on_c, 2, 62, 0
8, 35481, Note_on_c, 2, 65, 0
8, 35490, Note_on_c, 2, 67, 44
8, 35490, Note_on_c, 2, 63, 44
8, 35511, Note_on_c, 2, 67, 0
8, 35511, Note_on_c, 2, 63, 0
8, 35520, Note_on_c, 2, 65, 44
8, 35520, Note_on_c, 2, 68, 44
8, 35541, Note_on_c, 2, 65, 0
8, 35541, Note_on_c, 2, 68, 0
8, 35550, Note_on_c, 2, 65, 44
8, 35550, Note_on_c, 2, 68, 44
8, 35571, Note_on_c, 2, 65, 0
8, 35571, Note_on_c, 2, 68, 0
8, 35580, Note_on_c, 2, 65, 44
8, 35580, Note_on_c, 2, 68, 44
8, 35601, Note_on_c, 2, 65, 0
8, 35601, Note_on_c, 2, 68, 0
8, 35610, Note_on_c, 2, 65, 44
8, 35610, Note_on_c, 2, 68, 44
8, 35631, Note_on_c, 2, 65, 0
8, 35631, Note_on_c, 2, 68, 0
8, 35640, Note_on_c, 2, 68, 44
8, 35640, Note_on_c, 2, 65, 44
8, 35699, Note_on_c, 2, 68, 0
8, 35699, Note_on_c, 2, 65, 0
8, 36000, Note_on_c, 2, 63, 44
8, 36000, Note_on_c, 2, 67, 44
8, 36021, Note_on_c, 2, 63, 0
8, 36021, Note_on_c, 2, 67, 0
8, 36030, Note_on_c, 2, 67, 44
8, 36030, Note_on_c, 2, 63, 44
8, 36051, Note_on_c, 2, 67, 0
8, 36051, Note_on_c, 2, 63, 0
8, 36060, Note_on_c, 2, 67, 44
8, 36060, Note_on_c, 2, 63, 44
8, 36081, Note_on_c, 2, 67, 0
8, 36081, Note_on_c, 2, 63, 0
8, 36090, Note_on_c, 2, 63, 44
8, 36090, Note_on_c, 2, 67, 44
8, 36111, Note_on_c, 2, 63, 0
8, 36111, Note_on_c, 2, 67, 0
8, 36120, Note_on_c, 2, 67, 44
8, 36120, Note_on_c, 2, 63, 44
8, 36179, Note_on_c, 2, 67, 0
8, 36179, Note_on_c, 2, 63, 0
8, 36480, Note_on_c, 2, 77, 84
8, 36480, Note_on_c, 2, 74, 84
8, 36501, Note_on_c, 2, 77, 0
8, 36501, Note_on_c, 2, 74, 0
8, 36510, Note_on_c, 2, 74, 84
8, 36510, Note_on_c, 2, 77, 84
8, 36531, Note_on_c, 2, 74, 0
8, 36531, Note_on_c, 2, 77, 0
8, 36540, Note_on_c, 2, 77, 84
8, 36540, Note_on_c, 2, 74, 84
8, 36561, Note_on_c, 2, 77, 0
8, 36561, Note_on_c, 2, 74, 0
8, 36570, Note_on_c, 2, 74, 84
8, 36570, Note_on_c, 2, 77, 84
8, 36591, Note_on_c, 2, 74, 0
8, 36591, Note_on_c, 2, 77, 0
8, 36600, Note_on_c, 2, 77, 84
8, 36600, Note_on_c, 2, 74, 84
8, 36659, Note_on_c, 2, 77, 0
8, 36659, Note_on_c, 2, 74, 0
8, 36960, Note_on_c, 2, 75, 84
8, 36960, Note_on_c, 2, 79, 84
8, 36981, Note_on_c, 2, 75, 0
8, 36981, Note_on_c, 2, 79, 0
8, 36990, Note_on_c, 2, 79, 84
8, 36990, Note_on_c, 2, 75, 84
8, 37011, Note_on_c, 2, 79, 0
8, 37011, Note_on_c, 2, 75, 0
8, 37020, Note_on_c, 2, 79, 84
8, 37020, Note_on_c, 2, 75, 84
8, 37041, Note_on_c, 2, 79, 0
8, 37041, Note_on_c, 2, 75, 0
8, 37050, Note_on_c, 2, 75, 84
8, 37050, Note_on_c, 2, 79, 84
8, 37071, Note_on_c, 2, 75, 0
8, 37071, Note_on_c, 2, 79, 0
8, 37080, Note_on_c, 2, 79, 84
8, 37080, Note_on_c, 2, 75, 84
8, 37139, Note_on_c, 2, 79, 0
8, 37139, Note_on_c, 2, 75, 0
8, 37440, Note_on_c, 2, 67, 44
8, 37440, Note_on_c, 2, 63, 44
8, 37484, Note_on_c, 2, 67, 0
8, 37484, Note_on_c, 2, 63, 0
8, 37500, Note_on_c, 2, 63, 44
8, 37500, Note_on_c, 2, 67, 44
8, 37544, Note_on_c, 2, 63, 0
8, 37544, Note_on_c, 2, 67, 0
8, 37560, Note_on_c, 2, 65, 44
8, 37560, Note_on_c, 2, 62, 44
8, 37604, Note_on_c, 2, 65, 0
8, 37604, Note_on_c, 2, 62, 0
8, 37620, Note_on_c, 2, 69, 44
8, 37620, Note_on_c, 2, 60, 44
8, 37664, Note_on_c, 2, 69, 0
8, 37664, Note_on_c, 2, 60, 0
8, 37680, Note_on_c, 2, 62, 44
8, 37680, Note_on_c, 2, 70, 44
8, 37724, Note_on_c, 2, 62, 0
8, 37724, Note_on_c, 2, 70, 0
8, 37740, Note_on_c, 2, 67, 44
8, 37740, Note_on_c, 2, 63, 44
8, 37784, Note_on_c, 2, 67, 0
8, 37784, Note_on_c, 2, 63, 0
8, 37800, Note_on_c, 2, 65, 44
8, 37800, Note_on_c, 2, 62, 44
8, 37844, Note_on_c, 2, 65, 0
8, 37844, Note_on_c, 2, 62, 0
8, 37860, Note_on_c, 2, 60, 44
8, 37860, Note_on_c, 2, 69, 44
8, 37904, Note_on_c, 2, 60, 0
8, 37904, Note_on_c, 2, 69, 0
8, 37920, Note_on_c, 2, 62, 44
8, 37920, Note_on_c, 2, 70, 44
8, 37979, Note_on_c, 2, 62, 0
8, 37979, Note_on_c, 2, 70, 0
8, 38010, Note_on_c, 2, 60, 51
8, 38010, Note_on_c, 2, 69, 51
8, 38035, Note_on_c, 2, 60, 0
8, 38035, Note_on_c, 2, 69, 0
8, 38040, Note_on_c, 2, 62, 54
8, 38040, Note_on_c, 2, 70, 54
8, 38099, Note_on_c, 2, 62, 0
8, 38099, Note_on_c, 2, 70, 0
8, 38130, Note_on_c, 2, 69, 61
8, 38130, Note_on_c, 2, 60, 61
8, 38155, Note_on_c, 2, 69, 0
8, 38155, Note_on_c, 2, 60, 0
8, 38160, Note_on_c, 2, 70, 64
8, 38160, Note_on_c, 2, 62, 64
8, 38219, Note_on_c, 2, 70, 0
8, 38219, Note_on_c, 2, 62, 0
8, 38250, Note_on_c, 2, 69, 71
8, 38250, Note_on_c, 2, 60, 71
8, 38275, Note_on_c, 2, 69, 0
8, 38275, Note_on_c, 2, 60, 0
8, 38280, Note_on_c, 2, 62, 74
8, 38280, Note_on_c, 2, 70, 74
8, 38339, Note_on_c, 2, 62, 0
8, 38339, Note_on_c, 2, 70, 0
8, 38370, Note_on_c, 2, 69, 81
8, 38370, Note_on_c, 2, 60, 81
8, 38395, Note_on_c, 2, 69, 0
8, 38395, Note_on_c, 2, 60, 0
8, 38400, Note_on_c, 2, 62, 84
8, 38400, Note_on_c, 2, 70, 84
8, 38421, Note_on_c, 2, 62, 0
8, 38421, Note_on_c, 2, 70, 0
8, 38430, Note_on_c, 2, 82, 84
8, 38430, Note_on_c, 2, 70, 84
8, 38451, Note_on_c, 2, 82, 0
8, 38451, Note_on_c, 2, 70, 0
8, 38460, Note_on_c, 2, 82, 84
8, 38460, Note_on_c, 2, 70, 84
8, 38481, Note_on_c, 2, 82, 0
8, 38481, Note_on_c, 2, 70, 0
8, 38490, Note_on_c, 2, 70, 84
8, 38490, Note_on_c, 2, 82, 84
8, 38511, Note_on_c, 2, 70, 0
8, 38511, Note_on_c, 2, 82, 0
8, 38520, Note_on_c, 2, 82, 84
8, 38520, Note_on_c, 2, 70, 84
8, 38541, Note_on_c, 2, 82, 0
8, 38541, Note_on_c, 2, 70, 0
8, 38550, Note_on_c, 2, 82, 84
8, 38550, Note_on_c, 2, 70, 84
8, 38571, Note_on_c, 2, 82, 0
8, 38571, Note_on_c, 2, 70, 0
8, 38580, Note_on_c, 2, 70, 84
8, 38580, Note_on_c, 2, 82, 84
8, 38601, Note_on_c, 2, 70, 0
8, 38601, Note_on_c, 2, 82, 0
8, 38610, Note_on_c, 2, 82, 84
8, 38610, Note_on_c, 2, 70, 84
8, 38631, Note_on_c, 2, 82, 0
8, 38631, Note_on_c, 2, 70, 0
8, 38640, Note_on_c, 2, 70, 84
8, 38640, Note_on_c, 2, 82, 84
8, 38759, Note_on_c, 2, 70, 0
8, 38759, Note_on_c, 2, 82, 0
8, 38759, End_track
9, 0, Start_track
9, 0, Title_t, "Bassoon"
9, 0, MIDI_port, 0
9, 0, Program_c, 3, 70
9, 0, Control_c, 3, 7, 96
9, 0, Control_c, 3, 10, 65
9, 0, Control_c, 3, 11, 127
9, 0, Note_on_c, 3, 62, 44
9, 0, Note_on_c, 3, 58, 44
9, 44, Note_on_c, 3, 62, 0
9, 44, Note_on_c, 3, 58, 0
9, 60, Note_on_c, 3, 62, 44
9, 60, Note_on_c, 3, 58, 44
9, 104, Note_on_c, 3, 62, 0
9, 104, Note_on_c, 3, 58, 0
9, 120, Note_on_c, 3, 62, 44
9, 120, Note_on_c, 3, 58, 44
9, 164, Note_on_c, 3, 62, 0
9, 164, Note_on_c, 3, 58, 0
9, 180, Note_on_c, 3, 62, 44
9, 180, Note_on_c, 3, 58, 44
9, 224, Note_on_c, 3, 62, 0
9, 224, Note_on_c, 3, 58, 0
9, 240, Note_on_c, 3, 62, 44
9, 240, Note_on_c, 3, 58, 44
9, 284, Note_on_c, 3, 62, 0
9, 284, Note_on_c, 3, 58, 0
9, 300, Note_on_c, 3, 62, 44
9, 300, Note_on_c, 3, 58, 44
9, 344, Note_on_c, 3, 62, 0
9, 344, Note_on_c, 3, 58, 0
9, 360, Note_on_c, 3, 62, 44
9, 360, Note_on_c, 3, 58, 44
9, 404, Note_on_c, 3, 62, 0
9, 404, Note_on_c, 3, 58, 0
9, 420, Note_on_c, 3, 62, 44
9, 420, Note_on_c, 3, 58, 44
9, 464, Note_on_c, 3, 62, 0
9, 464, Note_on_c, 3, 58, 0
9, 480, Note_on_c, 3, 62, 44
9, 480, Note_on_c, 3, 58, 44
9, 524, Note_on_c, 3, 62, 0
9, 524, Note_on_c, 3, 58, 0
9, 540, Note_on_c, 3, 62, 44
9, 540, Note_on_c, 3, 58, 44
9, 584, Note_on_c, 3, 62, 0
9, 584, Note_on_c, 3, 58, 0
9, 600, Note_on_c, 3, 62, 44
9, 600, Note_on_c, 3, 58, 44
9, 644, Note_on_c, 3, 62, 0
9, 644, Note_on_c, 3, 58, 0
9, 660, Note_on_c, 3, 62, 44
9, 660, Note_on_c, 3, 58, 44
9, 704, Note_on_c, 3, 62, 0
9, 704, Note_on_c, 3, 58, 0
9, 720, Note_on_c, 3, 62, 44
9, 720, Note_on_c, 3, 58, 44
9, 764, Note_on_c, 3, 62, 0
9, 764, Note_on_c, 3, 58, 0
9, 780, Note_on_c, 3, 62, 44
9, 780, Note_on_c, 3, 58, 44
9, 824, Note_on_c, 3, 62, 0
9, 824, Note_on_c, 3, 58, 0
9, 840, Note_on_c, 3, 62, 44
9, 840, Note_on_c, 3, 58, 44
9, 884, Note_on_c, 3, 62, 0
9, 884, Note_on_c, 3, 58, 0
9, 900, Note_on_c, 3, 62, 44
9, 900, Note_on_c, 3, 58, 44
9, 944, Note_on_c, 3, 62, 0
9, 944, Note_on_c, 3, 58, 0
9, 960, Note_on_c, 3, 63, 44
9, 960, Note_on_c, 3, 60, 44
9, 1004, Note_on_c, 3, 63, 0
9, 1004, Note_on_c, 3, 60, 0
9, 1020, Note_on_c, 3, 60, 44
9, 1020, Note_on_c, 3, 57, 44
9, 1064, Note_on_c, 3, 60, 0
9, 1064, Note_on_c, 3, 57, 0
9, 1080, Note_on_c, 3, 60, 44
9, 1080, Note_on_c, 3, 57, 44
9, 1124, Note_on_c, 3, 60, 0
9, 1124, Note_on_c, 3, 57, 0
9, 1140, Note_on_c, 3, 60, 44
9, 1140, Note_on_c, 3, 57, 44
9, 1184, Note_on_c, 3, 60, 0
9, 1184, Note_on_c, 3, 57, 0
9, 1200, Note_on_c, 3, 62, 44
9, 1200, Note_on_c, 3, 58, 44
9, 1244, Note_on_c, 3, 62, 0
9, 1244, Note_on_c, 3, 58, 0
9, 1260, Note_on_c, 3, 62, 44
9, 1260, Note_on_c, 3, 58, 44
9, 1304, Note_on_c, 3, 62, 0
9, 1304, Note_on_c, 3, 58, 0
9, 1320, Note_on_c, 3, 62, 44
9, 1320, Note_on_c, 3, 58, 44
9, 1364, Note_on_c, 3, 62, 0
9, 1364, Note_on_c, 3, 58, 0
9, 1380, Note_on_c, 3, 62, 44
9, 1380, Note_on_c, 3, 58, 44
9, 1424, Note_on_c, 3, 62, 0
9, 1424, Note_on_c, 3, 58, 0
9, 1440, Note_on_c, 3, 62, 44
9, 1440, Note_on_c, 3, 58, 44
9, 1484, Note_on_c, 3, 62, 0
9, 1484, Note_on_c, 3, 58, 0
9, 1500, Note_on_c, 3, 62, 44
9, 1500, Note_on_c, 3, 58, 44
9, 1544, Note_on_c, 3, 62, 0
9, 1544, Note_on_c, 3, 58, 0
9, 1560, Note_on_c, 3, 62, 44
9, 1560, Note_on_c, 3, 58, 44
9, 1604, Note_on_c, 3, 62, 0
9, 1604, Note_on_c, 3, 58, 0
9, 1620, Note_on_c, 3, 62, 44
9, 1620, Note_on_c, 3, 58, 44
9, 1664, Note_on_c, 3, 62, 0
9, 1664, Note_on_c, 3, 58, 0
9, 1680, Note_on_c, 3, 62, 44
9, 1680, Note_on_c, 3, 58, 44
9, 1724, Note_on_c, 3, 62, 0
9, 1724, Note_on_c, 3, 58, 0
9, 1740, Note_on_c, 3, 58, 44
9, 1740, Note_on_c, 3, 55, 44
9, 1784, Note_on_c, 3, 58, 0
9, 1784, Note_on_c, 3, 55, 0
9, 1800, Note_on_c, 3, 58, 44
9, 1800, Note_on_c, 3, 55, 44
9, 1844, Note_on_c, 3, 58, 0
9, 1844, Note_on_c, 3, 55, 0
9, 1860, Note_on_c, 3, 58, 44
9, 1860, Note_on_c, 3, 55, 44
9, 1904, Note_on_c, 3, 58, 0
9, 1904, Note_on_c, 3, 55, 0
9, 1920, Note_on_c, 3, 58, 44
9, 1920, Note_on_c, 3, 55, 44
9, 1964, Note_on_c, 3, 58, 0
9, 1964, Note_on_c, 3, 55, 0
9, 1980, Note_on_c, 3, 58, 44
9, 1980, Note_on_c, 3, 55, 44
9, 2024, Note_on_c, 3, 58, 0
9, 2024, Note_on_c, 3, 55, 0
9, 2040, Note_on_c, 3, 58, 44
9, 2040, Note_on_c, 3, 55, 44
9, 2084, Note_on_c, 3, 58, 0
9, 2084, Note_on_c, 3, 55, 0
9, 2100, Note_on_c, 3, 58, 44
9, 2100, Note_on_c, 3, 55, 44
9, 2144, Note_on_c, 3, 58, 0
9, 2144, Note_on_c, 3, 55, 0
9, 2160, Note_on_c, 3, 58, 44
9, 2160, Note_on_c, 3, 55, 44
9, 2204, Note_on_c, 3, 58, 0
9, 2204, Note_on_c, 3, 55, 0
9, 2220, Note_on_c, 3, 55, 44
9, 2220, Note_on_c, 3, 58, 44
9, 2264, Note_on_c, 3, 55, 0
9, 2264, Note_on_c, 3, 58, 0
9, 2280, Note_on_c, 3, 58, 44
9, 2280, Note_on_c, 3, 55, 44
9, 2324, Note_on_c, 3, 58, 0
9, 2324, Note_on_c, 3, 55, 0
9, 2340, Note_on_c, 3, 58, 44
9, 2340, Note_on_c, 3, 55, 44
9, 2384, Note_on_c, 3, 58, 0
9, 2384, Note_on_c, 3, 55, 0
9, 2400, Note_on_c, 3, 58, 44
9, 2400, Note_on_c, 3, 55, 44
9, 2444, Note_on_c, 3, 58, 0
9, 2444, Note_on_c, 3, 55, 0
9, 2460, Note_on_c, 3, 58, 44
9, 2460, Note_on_c, 3, 55, 44
9, 2504, Note_on_c, 3, 58, 0
9, 2504, Note_on_c, 3, 55, 0
9, 2520, Note_on_c, 3, 58, 44
9, 2520, Note_on_c, 3, 55, 44
9, 2564, Note_on_c, 3, 58, 0
9, 2564, Note_on_c, 3, 55, 0
9, 2580, Note_on_c, 3, 58, 44
9, 2580, Note_on_c, 3, 55, 44
9, 2624, Note_on_c, 3, 58, 0
9, 2624, Note_on_c, 3, 55, 0
9, 2640, Note_on_c, 3, 60, 44
9, 2640, Note_on_c, 3, 57, 44
9, 2684, Note_on_c, 3, 60, 0
9, 2684, Note_on_c, 3, 57, 0
9, 2700, Note_on_c, 3, 60, 44
9, 2700, Note_on_c, 3, 57, 44
9, 2744, Note_on_c, 3, 60, 0
9, 2744, Note_on_c, 3, 57, 0
9, 2760, Note_on_c, 3, 57, 44
9, 2760, Note_on_c, 3, 54, 44
9, 2804, Note_on_c, 3, 57, 0
9, 2804, Note_on_c, 3, 54, 0
9, 2820, Note_on_c, 3, 54, 44
9, 2820, Note_on_c, 3, 57, 44
9, 2864, Note_on_c, 3, 54, 0
9, 2864, Note_on_c, 3, 57, 0
9, 2880, Note_on_c, 3, 58, 44
9, 2880, Note_on_c, 3, 55, 44
9, 2924, Note_on_c, 3, 58, 0
9, 2924, Note_on_c, 3, 55, 0
9, 2940, Note_on_c, 3, 58, 44
9, 2940, Note_on_c, 3, 55, 44
9, 2984, Note_on_c, 3, 58, 0
9, 2984, Note_on_c, 3, 55, 0
9, 3000, Note_on_c, 3, 58, 44
9, 3000, Note_on_c, 3, 55, 44
9, 3044, Note_on_c, 3, 58, 0
9, 3044, Note_on_c, 3, 55, 0
9, 3060, Note_on_c, 3, 58, 44
9, 3060, Note_on_c, 3, 55, 44
9, 3104, Note_on_c, 3, 58, 0
9, 3104, Note_on_c, 3, 55, 0
9, 3120, Note_on_c, 3, 58, 44
9, 3120, Note_on_c, 3, 55, 44
9, 3164, Note_on_c, 3, 58, 0
9, 3164, Note_on_c, 3, 55, 0
9, 3180, Note_on_c, 3, 58, 44
9, 3180, Note_on_c, 3, 55, 44
9, 3224, Note_on_c, 3, 58, 0
9, 3224, Note_on_c, 3, 55, 0
9, 3240, Note_on_c, 3, 58, 44
9, 3240, Note_on_c, 3, 55, 44
9, 3284, Note_on_c, 3, 58, 0
9, 3284, Note_on_c, 3, 55, 0
9, 3300, Note_on_c, 3, 58, 44
9, 3300, Note_on_c, 3, 55, 44
9, 3344, Note_on_c, 3, 58, 0
9, 3344, Note_on_c, 3, 55, 0
9, 3360, Note_on_c, 3, 51, 44
9, 3360, Note_on_c, 3, 55, 44
9, 3404, Note_on_c, 3, 51, 0
9, 3404, Note_on_c, 3, 55, 0
9, 3420, Note_on_c, 3, 55, 44
9, 3420, Note_on_c, 3, 51, 44
9, 3464, Note_on_c, 3, 55, 0
9, 3464, Note_on_c, 3, 51, 0
9, 3480, Note_on_c, 3, 55, 44
9, 3480, Note_on_c, 3, 51, 44
9, 3524, Note_on_c, 3, 55, 0
9, 3524, Note_on_c, 3, 51, 0
9, 3540, Note_on_c, 3, 55, 44
9, 3540, Note_on_c, 3, 51, 44
9, 3584, Note_on_c, 3, 55, 0
9, 3584, Note_on_c, 3, 51, 0
9, 3600, Note_on_c, 3, 55, 44
9, 3600, Note_on_c, 3, 51, 44
9, 3644, Note_on_c, 3, 55, 0
9, 3644, Note_on_c, 3, 51, 0
9, 3660, Note_on_c, 3, 55, 44
9, 3660, Note_on_c, 3, 51, 44
9, 3704, Note_on_c, 3, 55, 0
9, 3704, Note_on_c, 3, 51, 0
9, 3720, Note_on_c, 3, 55, 44
9, 3720, Note_on_c, 3, 51, 44
9, 3764, Note_on_c, 3, 55, 0
9, 3764, Note_on_c, 3, 51, 0
9, 3780, Note_on_c, 3, 55, 44
9, 3780, Note_on_c, 3, 51, 44
9, 3824, Note_on_c, 3, 55, 0
9, 3824, Note_on_c, 3, 51, 0
9, 3840, Note_on_c, 3, 55, 44
9, 3840, Note_on_c, 3, 51, 44
9, 3884, Note_on_c, 3, 55, 0
9, 3884, Note_on_c, 3, 51, 0
9, 3900, Note_on_c, 3, 55, 44
9, 3900, Note_on_c, 3, 51, 44
9, 3944, Note_on_c, 3, 55, 0
9, 3944, Note_on_c, 3, 51, 0
9, 3960, Note_on_c, 3, 55, 44
9, 3960, Note_on_c, 3, 51, 44
9, 4004, Note_on_c, 3, 55, 0
9, 4004, Note_on_c, 3, 51, 0
9, 4020, Note_on_c, 3, 57, 84
9, 4020, Note_on_c, 3, 53, 84
9, 4251, Note_on_c, 3, 57, 0
9, 4251, Note_on_c, 3, 53, 0
9, 4260, Note_on_c, 3, 63, 52
9, 4260, Note_on_c, 3, 60, 52
9, 4304, Note_on_c, 3, 63, 0
9, 4304, Note_on_c, 3, 60, 0
9, 4320, Note_on_c, 3, 63, 52
9, 4320, Note_on_c, 3, 60, 52
9, 4364, Note_on_c, 3, 63, 0
9, 4364, Note_on_c, 3, 60, 0
9, 4380, Note_on_c, 3, 60, 52
9, 4380, Note_on_c, 3, 57, 52
9, 4424, Note_on_c, 3, 60, 0
9, 4424, Note_on_c, 3, 57, 0
9, 4440, Note_on_c, 3, 60, 52
9, 4440, Note_on_c, 3, 57, 52
9, 4484, Note_on_c, 3, 60, 0
9, 4484, Note_on_c, 3, 57, 0
9, 4500, Note_on_c, 3, 60, 52
9, 4500, Note_on_c, 3, 57, 52
9, 4544, Note_on_c, 3, 60, 0
9, 4544, Note_on_c, 3, 57, 0
9, 4560, Note_on_c, 3, 62, 52
9, 4560, Note_on_c, 3, 58, 52
9, 4604, Note_on_c, 3, 62, 0
9, 4604, Note_on_c, 3, 58, 0
9, 4620, Note_on_c, 3, 62, 52
9, 4620, Note_on_c, 3, 58, 52
9, 4664, Note_on_c, 3, 62, 0
9, 4664, Note_on_c, 3, 58, 0
9, 4680, Note_on_c, 3, 62, 52
9, 4680, Note_on_c, 3, 58, 52
9, 4724, Note_on_c, 3, 62, 0
9, 4724, Note_on_c, 3, 58, 0
9, 4740, Note_on_c, 3, 62, 52
9, 4740, Note_on_c, 3, 58, 52
9, 4784, Note_on_c, 3, 62, 0
9, 4784, Note_on_c, 3, 58, 0
9, 4800, Note_on_c, 3, 63, 52
9, 4800, Note_on_c, 3, 60, 52
9, 4844, Note_on_c, 3, 63, 0
9, 4844, Note_on_c, 3, 60, 0
9, 4860, Note_on_c, 3, 63, 52
9, 4860, Note_on_c, 3, 60, 52
9, 4904, Note_on_c, 3, 63, 0
9, 4904, Note_on_c, 3, 60, 0
9, 4920, Note_on_c, 3, 63, 52
9, 4920, Note_on_c, 3, 60, 52
9, 4964, Note_on_c, 3, 63, 0
9, 4964, Note_on_c, 3, 60, 0
9, 4980, Note_on_c, 3, 63, 52
9, 4980, Note_on_c, 3, 60, 52
9, 5024, Note_on_c, 3, 63, 0
9, 5024, Note_on_c, 3, 60, 0
9, 5040, Note_on_c, 3, 62, 52
9, 5040, Note_on_c, 3, 58, 52
9, 5084, Note_on_c, 3, 62, 0
9, 5084, Note_on_c, 3, 58, 0
9, 5100, Note_on_c, 3, 62, 52
9, 5100, Note_on_c, 3, 58, 52
9, 5144, Note_on_c, 3, 62, 0
9, 5144, Note_on_c, 3, 58, 0
9, 5160, Note_on_c, 3, 62, 52
9, 5160, Note_on_c, 3, 58, 52
9, 5204, Note_on_c, 3, 62, 0
9, 5204, Note_on_c, 3, 58, 0
9, 5220, Note_on_c, 3, 62, 52
9, 5220, Note_on_c, 3, 58, 52
9, 5264, Note_on_c, 3, 62, 0
9, 5264, Note_on_c, 3, 58, 0
9, 5280, Note_on_c, 3, 60, 52
9, 5280, Note_on_c, 3, 57, 52
9, 5324, Note_on_c, 3, 60, 0
9, 5324, Note_on_c, 3, 57, 0
9, 5340, Note_on_c, 3, 60, 52
9, 5340, Note_on_c, 3, 57, 52
9, 5384, Note_on_c, 3, 60, 0
9, 5384, Note_on_c, 3, 57, 0
9, 5400, Note_on_c, 3, 57, 52
9, 5400, Note_on_c, 3, 60, 52
9, 5444, Note_on_c, 3, 57, 0
9, 5444, Note_on_c, 3, 60, 0
9, 5460, Note_on_c, 3, 60, 52
9, 5460, Note_on_c, 3, 57, 52
9, 5504, Note_on_c, 3, 60, 0
9, 5504, Note_on_c, 3, 57, 0
9, 5520, Note_on_c, 3, 62, 52
9, 5520, Note_on_c, 3, 58, 52
9, 5564, Note_on_c, 3, 62, 0
9, 5564, Note_on_c, 3, 58, 0
9, 5580, Note_on_c, 3, 62, 52
9, 5580, Note_on_c, 3, 58, 52
9, 5624, Note_on_c, 3, 62, 0
9, 5624, Note_on_c, 3, 58, 0
9, 5640, Note_on_c, 3, 62, 52
9, 5640, Note_on_c, 3, 58, 52
9, 5684, Note_on_c, 3, 62, 0
9, 5684, Note_on_c, 3, 58, 0
9, 5700, Note_on_c, 3, 62, 52
9, 5700, Note_on_c, 3, 58, 52
9, 5744, Note_on_c, 3, 62, 0
9, 5744, Note_on_c, 3, 58, 0
9, 5760, Note_on_c, 3, 63, 52
9, 5760, Note_on_c, 3, 60, 52
9, 5804, Note_on_c, 3, 63, 0
9, 5804, Note_on_c, 3, 60, 0
9, 5820, Note_on_c, 3, 63, 52
9, 5820, Note_on_c, 3, 60, 52
9, 5864, Note_on_c, 3, 63, 0
9, 5864, Note_on_c, 3, 60, 0
9, 5880, Note_on_c, 3, 63, 52
9, 5880, Note_on_c, 3, 60, 52
9, 5924, Note_on_c, 3, 63, 0
9, 5924, Note_on_c, 3, 60, 0
9, 5940, Note_on_c, 3, 63, 52
9, 5940, Note_on_c, 3, 60, 52
9, 5984, Note_on_c, 3, 63, 0
9, 5984, Note_on_c, 3, 60, 0
9, 6000, Note_on_c, 3, 62, 52
9, 6000, Note_on_c, 3, 58, 52
9, 6044, Note_on_c, 3, 62, 0
9, 6044, Note_on_c, 3, 58, 0
9, 6060, Note_on_c, 3, 62, 52
9, 6060, Note_on_c, 3, 58, 52
9, 6104, Note_on_c, 3, 62, 0
9, 6104, Note_on_c, 3, 58, 0
9, 6120, Note_on_c, 3, 62, 52
9, 6120, Note_on_c, 3, 58, 52
9, 6164, Note_on_c, 3, 62, 0
9, 6164, Note_on_c, 3, 58, 0
9, 6180, Note_on_c, 3, 63, 76
9, 6180, Note_on_c, 3, 58, 76
9, 6224, Note_on_c, 3, 63, 0
9, 6224, Note_on_c, 3, 58, 0
9, 6240, Note_on_c, 3, 62, 76
9, 6240, Note_on_c, 3, 58, 76
9, 6284, Note_on_c, 3, 62, 0
9, 6284, Note_on_c, 3, 58, 0
9, 6300, Note_on_c, 3, 58, 84
9, 6300, Note_on_c, 3, 63, 84
9, 6344, Note_on_c, 3, 58, 0
9, 6344, Note_on_c, 3, 63, 0
9, 6360, Note_on_c, 3, 62, 76
9, 6360, Note_on_c, 3, 58, 76
9, 6404, Note_on_c, 3, 62, 0
9, 6404, Note_on_c, 3, 58, 0
9, 6420, Note_on_c, 3, 63, 84
9, 6420, Note_on_c, 3, 58, 84
9, 6464, Note_on_c, 3, 63, 0
9, 6464, Note_on_c, 3, 58, 0
9, 6480, Note_on_c, 3, 62, 76
9, 6480, Note_on_c, 3, 58, 76
9, 6599, Note_on_c, 3, 62, 0
9, 6599, Note_on_c, 3, 58, 0
9, 7020, Note_on_c, 3, 62, 52
9, 7020, Note_on_c, 3, 58, 52
9, 7064, Note_on_c, 3, 62, 0
9, 7064, Note_on_c, 3, 58, 0
9, 7080, Note_on_c, 3, 62, 52
9, 7080, Note_on_c, 3, 58, 52
9, 7124, Note_on_c, 3, 62, 0
9, 7124, Note_on_c, 3, 58, 0
9, 7140, Note_on_c, 3, 63, 76
9, 7140, Note_on_c, 3, 58, 76
9, 7184, Note_on_c, 3, 63, 0
9, 7184, Note_on_c, 3, 58, 0
9, 7200, Note_on_c, 3, 62, 76
9, 7200, Note_on_c, 3, 58, 76
9, 7244, Note_on_c, 3, 62, 0
9, 7244, Note_on_c, 3, 58, 0
9, 7260, Note_on_c, 3, 63, 84
9, 7260, Note_on_c, 3, 58, 84
9, 7304, Note_on_c, 3, 63, 0
9, 7304, Note_on_c, 3, 58, 0
9, 7320, Note_on_c, 3, 62, 76
9, 7320, Note_on_c, 3, 58, 76
9, 7364, Note_on_c, 3, 62, 0
9, 7364, Note_on_c, 3, 58, 0
9, 7380, Note_on_c, 3, 63, 84
9, 7380, Note_on_c, 3, 58, 84
9, 7424, Note_on_c, 3, 63, 0
9, 7424, Note_on_c, 3, 58, 0
9, 7440, Note_on_c, 3, 62, 76
9, 7440, Note_on_c, 3, 58, 76
9, 7559, Note_on_c, 3, 62, 0
9, 7559, Note_on_c, 3, 58, 0
9, 7620, Note_on_c, 3, 63, 76
9, 7620, Note_on_c, 3, 58, 76
9, 7675, Note_on_c, 3, 63, 0
9, 7675, Note_on_c, 3, 58, 0
9, 7680, Note_on_c, 3, 62, 72
9, 7680, Note_on_c, 3, 58, 72
9, 7799, Note_on_c, 3, 62, 0
9, 7799, Note_on_c, 3, 58, 0
9, 7860, Note_on_c, 3, 58, 60
9, 7860, Note_on_c, 3, 63, 60
9, 7915, Note_on_c, 3, 58, 0
9, 7915, Note_on_c, 3, 63, 0
9, 7920, Note_on_c, 3, 62, 56
9, 7920, Note_on_c, 3, 58, 56
9, 8039, Note_on_c, 3, 62, 0
9, 8039, Note_on_c, 3, 58, 0
9, 8100, Note_on_c, 3, 55, 44
9, 8100, Note_on_c, 3, 51, 44
9, 8125, Note_on_c, 3, 55, 0
9, 8125, Note_on_c, 3, 51, 0
9, 8130, Note_on_c, 3, 53, 44
9, 8130, Note_on_c, 3, 57, 44
9, 8155, Note_on_c, 3, 53, 0
9, 8155, Note_on_c, 3, 57, 0
9, 8160, Note_on_c, 3, 50, 44
9, 8160, Note_on_c, 3, 53, 44
9, 8204, Note_on_c, 3, 50, 0
9, 8204, Note_on_c, 3, 53, 0
9, 8220, Note_on_c, 3, 58, 44
9, 8220, Note_on_c, 3, 46, 44
9, 8264, Note_on_c, 3, 58, 0
9, 8264, Note_on_c, 3, 46, 0
9, 8280, Note_on_c, 3, 46, 46
9, 8280, Note_on_c, 3, 58, 46
9, 8324, Note_on_c, 3, 46, 0
9, 8324, Note_on_c, 3, 58, 0
9, 8340, Note_on_c, 3, 58, 48
9, 8340, Note_on_c, 3, 46, 48
9, 8384, Note_on_c, 3, 58, 0
9, 8384, Note_on_c, 3, 46, 0
9, 8400, Note_on_c, 3, 58, 50
9, 8400, Note_on_c, 3, 46, 50
9, 8444, Note_on_c, 3, 58, 0
9, 8444, Note_on_c, 3, 46, 0
9, 8460, Note_on_c, 3, 46, 52
9, 8460, Note_on_c, 3, 58, 52
9, 8504, Note_on_c, 3, 46, 0
9, 8504, Note_on_c, 3, 58, 0
9, 8520, Note_on_c, 3, 58, 54
9, 8520, Note_on_c, 3, 46, 54
9, 8564, Note_on_c, 3, 58, 0
9, 8564, Note_on_c, 3, 46, 0
9, 8580, Note_on_c, 3, 46, 56
9, 8580, Note_on_c, 3, 58, 56
9, 8624, Note_on_c, 3, 46, 0
9, 8624, Note_on_c, 3, 58, 0
9, 8640, Note_on_c, 3, 60, 58
9, 8640, Note_on_c, 3, 48, 58
9, 8684, Note_on_c, 3, 60, 0
9, 8684, Note_on_c, 3, 48, 0
9, 8700, Note_on_c, 3, 48, 61
9, 8700, Note_on_c, 3, 60, 61
9, 8744, Note_on_c, 3, 48, 0
9, 8744, Note_on_c, 3, 60, 0
9, 8760, Note_on_c, 3, 48, 63
9, 8760, Note_on_c, 3, 60, 63
9, 8804, Note_on_c, 3, 48, 0
9, 8804, Note_on_c, 3, 60, 0
9, 8820, Note_on_c, 3, 60, 65
9, 8820, Note_on_c, 3, 48, 65
9, 8864, Note_on_c, 3, 60, 0
9, 8864, Note_on_c, 3, 48, 0
9, 8880, Note_on_c, 3, 60, 67
9, 8880, Note_on_c, 3, 48, 67
9, 8924, Note_on_c, 3, 60, 0
9, 8924, Note_on_c, 3, 48, 0
9, 8940, Note_on_c, 3, 60, 69
9, 8940, Note_on_c, 3, 48, 69
9, 8984, Note_on_c, 3, 60, 0
9, 8984, Note_on_c, 3, 48, 0
9, 9000, Note_on_c, 3, 60, 71
9, 9000, Note_on_c, 3, 48, 71
9, 9044, Note_on_c, 3, 60, 0
9, 9044, Note_on_c, 3, 48, 0
9, 9060, Note_on_c, 3, 48, 73
9, 9060, Note_on_c, 3, 60, 73
9, 9104, Note_on_c, 3, 48, 0
9, 9104, Note_on_c, 3, 60, 0
9, 9120, Note_on_c, 3, 48, 76
9, 9120, Note_on_c, 3, 60, 76
9, 9164, Note_on_c, 3, 48, 0
9, 9164, Note_on_c, 3, 60, 0
9, 9180, Note_on_c, 3, 48, 76
9, 9180, Note_on_c, 3, 58, 76
9, 9224, Note_on_c, 3, 48, 0
9, 9224, Note_on_c, 3, 58, 0
9, 9240, Note_on_c, 3, 58, 76
9, 9240, Note_on_c, 3, 48, 76
9, 9284, Note_on_c, 3, 58, 0
9, 9284, Note_on_c, 3, 48, 0
9, 9300, Note_on_c, 3, 48, 76
9, 9300, Note_on_c, 3, 58, 76
9, 9344, Note_on_c, 3, 48, 0
9, 9344, Note_on_c, 3, 58, 0
9, 9360, Note_on_c, 3, 57, 76
9, 9360, Note_on_c, 3, 48, 76
9, 9404, Note_on_c, 3, 57, 0
9, 9404, Note_on_c, 3, 48, 0
9, 9420, Note_on_c, 3, 57, 76
9, 9420, Note_on_c, 3, 48, 76
9, 9464, Note_on_c, 3, 57, 0
9, 9464, Note_on_c, 3, 48, 0
9, 9480, Note_on_c, 3, 48, 76
9, 9480, Note_on_c, 3, 57, 76
9, 9524, Note_on_c, 3, 48, 0
9, 9524, Note_on_c, 3, 57, 0
9, 9540, Note_on_c, 3, 48, 76
9, 9540, Note_on_c, 3, 57, 76
9, 9584, Note_on_c, 3, 48, 0
9, 9584, Note_on_c, 3, 57, 0
9, 9600, Note_on_c, 3, 48, 76
9, 9600, Note_on_c, 3, 55, 76
9, 9644, Note_on_c, 3, 48, 0
9, 9644, Note_on_c, 3, 55, 0
9, 9660, Note_on_c, 3, 48, 76
9, 9660, Note_on_c, 3, 55, 76
9, 9704, Note_on_c, 3, 48, 0
9, 9704, Note_on_c, 3, 55, 0
9, 9720, Note_on_c, 3, 48, 76
9, 9720, Note_on_c, 3, 55, 76
9, 9764, Note_on_c, 3, 48, 0
9, 9764, Note_on_c, 3, 55, 0
9, 9780, Note_on_c, 3, 55, 76
9, 9780, Note_on_c, 3, 48, 76
9, 9824, Note_on_c, 3, 55, 0
9, 9824, Note_on_c, 3, 48, 0
9, 9840, Note_on_c, 3, 57, 76
9, 9840, Note_on_c, 3, 48, 76
9, 9884, Note_on_c, 3, 57, 0
9, 9884, Note_on_c, 3, 48, 0
9, 9900, Note_on_c, 3, 48, 76
9, 9900, Note_on_c, 3, 57, 76
9, 9944, Note_on_c, 3, 48, 0
9, 9944, Note_on_c, 3, 57, 0
9, 9960, Note_on_c, 3, 48, 76
9, 9960, Note_on_c, 3, 57, 76
9, 10004, Note_on_c, 3, 48, 0
9, 10004, Note_on_c, 3, 57, 0
9, 10020, Note_on_c, 3, 57, 76
9, 10020, Note_on_c, 3, 48, 76
9, 10064, Note_on_c, 3, 57, 0
9, 10064, Note_on_c, 3, 48, 0
9, 10080, Note_on_c, 3, 58, 76
9, 10080, Note_on_c, 3, 48, 76
9, 10124, Note_on_c, 3, 58, 0
9, 10124, Note_on_c, 3, 48, 0
9, 10140, Note_on_c, 3, 48, 76
9, 10140, Note_on_c, 3, 58, 76
9, 10184, Note_on_c, 3, 48, 0
9, 10184, Note_on_c, 3, 58, 0
9, 10200, Note_on_c, 3, 48, 76
9, 10200, Note_on_c, 3, 58, 76
9, 10244, Note_on_c, 3, 48, 0
9, 10244, Note_on_c, 3, 58, 0
9, 10260, Note_on_c, 3, 58, 76
9, 10260, Note_on_c, 3, 48, 76
9, 10304, Note_on_c, 3, 58, 0
9, 10304, Note_on_c, 3, 48, 0
9, 10320, Note_on_c, 3, 57, 76
9, 10320, Note_on_c, 3, 48, 76
9, 10364, Note_on_c, 3, 57, 0
9, 10364, Note_on_c, 3, 48, 0
9, 10380, Note_on_c, 3, 57, 76
9, 10380, Note_on_c, 3, 48, 76
9, 10424, Note_on_c, 3, 57, 0
9, 10424, Note_on_c, 3, 48, 0
9, 10440, Note_on_c, 3, 57, 76
9, 10440, Note_on_c, 3, 48, 76
9, 10484, Note_on_c, 3, 57, 0
9, 10484, Note_on_c, 3, 48, 0
9, 10500, Note_on_c, 3, 57, 76
9, 10500, Note_on_c, 3, 48, 76
9, 10544, Note_on_c, 3, 57, 0
9, 10544, Note_on_c, 3, 48, 0
9, 10560, Note_on_c, 3, 48, 76
9, 10560, Note_on_c, 3, 55, 76
9, 10604, Note_on_c, 3, 48, 0
9, 10604, Note_on_c, 3, 55, 0
9, 10620, Note_on_c, 3, 55, 76
9, 10620, Note_on_c, 3, 48, 76
9, 10664, Note_on_c, 3, 55, 0
9, 10664, Note_on_c, 3, 48, 0
9, 10680, Note_on_c, 3, 55, 76
9, 10680, Note_on_c, 3, 48, 76
9, 10724, Note_on_c, 3, 55, 0
9, 10724, Note_on_c, 3, 48, 0
9, 10740, Note_on_c, 3, 55, 76
9, 10740, Note_on_c, 3, 48, 76
9, 10784, Note_on_c, 3, 55, 0
9, 10784, Note_on_c, 3, 48, 0
9, 10800, Note_on_c, 3, 41, 84
9, 10800, Note_on_c, 3, 53, 84
9, 10889, Note_on_c, 3, 41, 0
9, 10889, Note_on_c, 3, 53, 0
9, 11340, Note_on_c, 3, 62, 52
9, 11384, Note_on_c, 3, 62, 0
9, 11400, Note_on_c, 3, 59, 52
9, 11444, Note_on_c, 3, 59, 0
9, 11580, Note_on_c, 3, 55, 52
9, 11624, Note_on_c, 3, 55, 0
9, 11640, Note_on_c, 3, 48, 52
9, 11684, Note_on_c, 3, 48, 0
9, 11760, Note_on_c, 3, 57, 84
9, 11760, Note_on_c, 3, 53, 84
9, 11819, Note_on_c, 3, 57, 0
9, 11819, Note_on_c, 3, 53, 0
9, 12300, Note_on_c, 3, 62, 52
9, 12344, Note_on_c, 3, 62, 0
9, 12360, Note_on_c, 3, 59, 52
9, 12404, Note_on_c, 3, 59, 0
9, 12540, Note_on_c, 3, 55, 52
9, 12584, Note_on_c, 3, 55, 0
9, 12600, Note_on_c, 3, 65, 51
9, 12644, Note_on_c, 3, 65, 0
9, 12780, Note_on_c, 3, 52, 49
9, 12824, Note_on_c, 3, 52, 0
9, 12840, Note_on_c, 3, 48, 48
9, 12884, Note_on_c, 3, 48, 0
9, 13020, Note_on_c, 3, 58, 46
9, 13064, Note_on_c, 3, 58, 0
9, 13080, Note_on_c, 3, 57, 46
9, 13124, Note_on_c, 3, 57, 0
9, 13260, Note_on_c, 3, 53, 44
9, 13304, Note_on_c, 3, 53, 0
9, 13320, Note_on_c, 3, 63, 44
9, 13364, Note_on_c, 3, 63, 0
9, 13500, Note_on_c, 3, 62, 44
9, 13544, Note_on_c, 3, 62, 0
9, 13560, Note_on_c, 3, 61, 44
9, 13604, Note_on_c, 3, 61, 0
9, 13800, Note_on_c, 3, 48, 44
9, 13859, Note_on_c, 3, 48, 0
9, 13860, Note_on_c, 3, 53, 45
9, 13919, Note_on_c, 3, 53, 0
9, 13920, Note_on_c, 3, 52, 47
9, 13979, Note_on_c, 3, 52, 0
9, 13980, Note_on_c, 3, 50, 48
9, 14039, Note_on_c, 3, 50, 0
9, 14040, Note_on_c, 3, 48, 50
9, 14099, Note_on_c, 3, 48, 0
9, 14100, Note_on_c, 3, 55, 52
9, 14100, Note_on_c, 3, 58, 52
9, 14159, Note_on_c, 3, 55, 0
9, 14159, Note_on_c, 3, 58, 0
9, 14160, Note_on_c, 3, 57, 53
9, 14160, Note_on_c, 3, 53, 53
9, 14219, Note_on_c, 3, 57, 0
9, 14219, Note_on_c, 3, 53, 0
9, 14220, Note_on_c, 3, 55, 55
9, 14220, Note_on_c, 3, 48, 55
9, 14279, Note_on_c, 3, 55, 0
9, 14279, Note_on_c, 3, 48, 0
9, 14280, Note_on_c, 3, 41, 56
9, 14280, Note_on_c, 3, 53, 56
9, 14339, Note_on_c, 3, 41, 0
9, 14339, Note_on_c, 3, 53, 0
9, 14640, Control_c, 3, 11, 96
9, 14760, Note_on_c, 3, 48, 68
9, 14760, Control_c, 3, 11, 96
9, 14805, Control_c, 3, 11, 99
9, 14850, Control_c, 3, 11, 101
9, 14895, Control_c, 3, 11, 104
9, 14940, Control_c, 3, 11, 106
9, 14985, Control_c, 3, 11, 109
9, 15030, Control_c, 3, 11, 112
9, 15075, Control_c, 3, 11, 114
9, 15120, Control_c, 3, 11, 117
9, 15165, Control_c, 3, 11, 119
9, 15171, Note_on_c, 3, 48, 0
9, 15180, Note_on_c, 3, 48, 68
9, 15180, Note_on_c, 3, 60, 68
9, 15210, Control_c, 3, 11, 122
9, 15255, Control_c, 3, 11, 124
9, 15299, Note_on_c, 3, 48, 0
9, 15299, Note_on_c, 3, 60, 0
9, 15300, Control_c, 3, 11, 127
9, 15300, Note_on_c, 3, 53, 52
9, 15300, Note_on_c, 3, 41, 52
9, 15329, Note_on_c, 3, 53, 0
9, 15329, Note_on_c, 3, 41, 0
9, 15330, Note_on_c, 3, 57, 52
9, 15330, Note_on_c, 3, 45, 52
9, 15359, Note_on_c, 3, 57, 0
9, 15359, Note_on_c, 3, 45, 0
9, 15360, Note_on_c, 3, 48, 52
9, 15360, Note_on_c, 3, 60, 52
9, 15404, Note_on_c, 3, 48, 0
9, 15404, Note_on_c, 3, 60, 0
9, 15420, Note_on_c, 3, 48, 52
9, 15420, Note_on_c, 3, 58, 52
9, 15464, Note_on_c, 3, 48, 0
9, 15464, Note_on_c, 3, 58, 0
9, 15480, Note_on_c, 3, 58, 52
9, 15480, Note_on_c, 3, 48, 52
9, 15524, Note_on_c, 3, 58, 0
9, 15524, Note_on_c, 3, 48, 0
9, 15540, Note_on_c, 3, 58, 52
9, 15540, Note_on_c, 3, 48, 52
9, 15584, Note_on_c, 3, 58, 0
9, 15584, Note_on_c, 3, 48, 0
9, 15600, Note_on_c, 3, 57, 52
9, 15600, Note_on_c, 3, 53, 52
9, 15719, Note_on_c, 3, 57, 0
9, 15719, Note_on_c, 3, 53, 0
9, 15780, Note_on_c, 3, 62, 52
9, 15780, Note_on_c, 3, 58, 52
9, 15839, Note_on_c, 3, 62, 0
9, 15839, Note_on_c, 3, 58, 0
9, 15840, Note_on_c, 3, 60, 52
9, 15840, Note_on_c, 3, 57, 52
9, 15899, Note_on_c, 3, 60, 0
9, 15899, Note_on_c, 3, 57, 0
9, 16020, Note_on_c, 3, 58, 52
9, 16020, Note_on_c, 3, 55, 52
9, 16079, Note_on_c, 3, 58, 0
9, 16079, Note_on_c, 3, 55, 0
9, 16080, Note_on_c, 3, 53, 52
9, 16080, Note_on_c, 3, 57, 52
9, 16139, Note_on_c, 3, 53, 0
9, 16139, Note_on_c, 3, 57, 0
9, 16260, Note_on_c, 3, 60, 52
9, 16260, Note_on_c, 3, 63, 52
9, 16319, Note_on_c, 3, 60, 0
9, 16319, Note_on_c, 3, 63, 0
9, 16320, Note_on_c, 3, 62, 52
9, 16320, Note_on_c, 3, 58, 52
9, 16379, Note_on_c, 3, 62, 0
9, 16379, Note_on_c, 3, 58, 0
9, 16500, Note_on_c, 3, 57, 52
9, 16500, Note_on_c, 3, 60, 52
9, 16559, Note_on_c, 3, 57, 0
9, 16559, Note_on_c, 3, 60, 0
9, 16560, Note_on_c, 3, 58, 52
9, 16560, Note_on_c, 3, 55, 52
9, 16619, Note_on_c, 3, 58, 0
9, 16619, Note_on_c, 3, 55, 0
9, 16740, Note_on_c, 3, 65, 52
9, 16740, Note_on_c, 3, 62, 52
9, 16799, Note_on_c, 3, 65, 0
9, 16799, Note_on_c, 3, 62, 0
9, 16800, Note_on_c, 3, 60, 52
9, 16800, Note_on_c, 3, 63, 52
9, 16859, Note_on_c, 3, 60, 0
9, 16859, Note_on_c, 3, 63, 0
9, 16980, Note_on_c, 3, 58, 52
9, 16980, Note_on_c, 3, 62, 52
9, 17039, Note_on_c, 3, 58, 0
9, 17039, Note_on_c, 3, 62, 0
9, 17040, Note_on_c, 3, 57, 52
9, 17040, Note_on_c, 3, 60, 52
9, 17099, Note_on_c, 3, 57, 0
9, 17099, Note_on_c, 3, 60, 0
9, 17220, Note_on_c, 3, 63, 52
9, 17220, Note_on_c, 3, 67, 52
9, 17279, Note_on_c, 3, 63, 0
9, 17279, Note_on_c, 3, 67, 0
9, 17280, Note_on_c, 3, 65, 53
9, 17280, Note_on_c, 3, 62, 53
9, 17335, Note_on_c, 3, 65, 0
9, 17335, Note_on_c, 3, 62, 0
9, 17340, Note_on_c, 3, 60, 55
9, 17340, Note_on_c, 3, 63, 55
9, 17399, Note_on_c, 3, 60, 0
9, 17399, Note_on_c, 3, 63, 0
9, 17400, Note_on_c, 3, 58, 57
9, 17400, Note_on_c, 3, 62, 57
9, 17455, Note_on_c, 3, 58, 0
9, 17455, Note_on_c, 3, 62, 0
9, 17460, Note_on_c, 3, 60, 59
9, 17460, Note_on_c, 3, 57, 59
9, 17519, Note_on_c, 3, 60, 0
9, 17519, Note_on_c, 3, 57, 0
9, 17520, Note_on_c, 3, 67, 60
9, 17520, Note_on_c, 3, 63, 60
9, 17575, Note_on_c, 3, 67, 0
9, 17575, Note_on_c, 3, 63, 0
9, 17580, Note_on_c, 3, 65, 62
9, 17580, Note_on_c, 3, 62, 62
9, 17639, Note_on_c, 3, 65, 0
9, 17639, Note_on_c, 3, 62, 0
9, 17640, Note_on_c, 3, 60, 64
9, 17640, Note_on_c, 3, 63, 64
9, 17695, Note_on_c, 3, 60, 0
9, 17695, Note_on_c, 3, 63, 0
9, 17700, Note_on_c, 3, 58, 66
9, 17700, Note_on_c, 3, 62, 66
9, 17759, Note_on_c, 3, 58, 0
9, 17759, Note_on_c, 3, 62, 0
9, 17760, Note_on_c, 3, 57, 68
9, 17760, Note_on_c, 3, 60, 68
9, 17815, Note_on_c, 3, 57, 0
9, 17815, Note_on_c, 3, 60, 0
9, 17820, Note_on_c, 3, 63, 68
9, 17820, Note_on_c, 3, 67, 68
9, 17879, Note_on_c, 3, 63, 0
9, 17879, Note_on_c, 3, 67, 0
9, 17880, Note_on_c, 3, 62, 66
9, 17880, Note_on_c, 3, 65, 66
9, 17935, Note_on_c, 3, 62, 0
9, 17935, Note_on_c, 3, 65, 0
9, 17940, Note_on_c, 3, 63, 64
9, 17940, Note_on_c, 3, 60, 64
9, 17999, Note_on_c, 3, 63, 0
9, 17999, Note_on_c, 3, 60, 0
9, 18000, Note_on_c, 3, 58, 61
9, 18000, Note_on_c, 3, 62, 61
9, 18055, Note_on_c, 3, 58, 0
9, 18055, Note_on_c, 3, 62, 0
9, 18060, Note_on_c, 3, 60, 59
9, 18060, Note_on_c, 3, 57, 59
9, 18119, Note_on_c, 3, 60, 0
9, 18119, Note_on_c, 3, 57, 0
9, 18120, Note_on_c, 3, 67, 56
9, 18120, Note_on_c, 3, 63, 56
9, 18175, Note_on_c, 3, 67, 0
9, 18175, Note_on_c, 3, 63, 0
9, 18180, Note_on_c, 3, 65, 54
9, 18180, Note_on_c, 3, 62, 54
9, 18239, Note_on_c, 3, 65, 0
9, 18239, Note_on_c, 3, 62, 0
9, 18240, Note_on_c, 3, 63, 52
9, 18240, Note_on_c, 3, 60, 52
9, 18295, Note_on_c, 3, 63, 0
9, 18295, Note_on_c, 3, 60, 0
9, 18300, Note_on_c, 3, 62, 49
9, 18300, Note_on_c, 3, 58, 49
9, 18359, Note_on_c, 3, 62, 0
9, 18359, Note_on_c, 3, 58, 0
9, 18360, Note_on_c, 3, 60, 47
9, 18360, Note_on_c, 3, 57, 47
9, 18415, Note_on_c, 3, 60, 0
9, 18415, Note_on_c, 3, 57, 0
9, 18420, Note_on_c, 3, 67, 44
9, 18420, Note_on_c, 3, 63, 44
9, 18479, Note_on_c, 3, 67, 0
9, 18479, Note_on_c, 3, 63, 0
9, 18480, Note_on_c, 3, 62, 44
9, 18480, Note_on_c, 3, 65, 44
9, 18535, Note_on_c, 3, 62, 0
9, 18535, Note_on_c, 3, 65, 0
9, 18540, Note_on_c, 3, 63, 44
9, 18540, Note_on_c, 3, 60, 44
9, 18599, Note_on_c, 3, 63, 0
9, 18599, Note_on_c, 3, 60, 0
9, 18600, Note_on_c, 3, 58, 44
9, 18600, Note_on_c, 3, 62, 44
9, 18655, Note_on_c, 3, 58, 0
9, 18655, Note_on_c, 3, 62, 0
9, 18660, Note_on_c, 3, 60, 44
9, 18660, Note_on_c, 3, 57, 44
9, 18719, Note_on_c, 3, 60, 0
9, 18719, Note_on_c, 3, 57, 0
9, 18720, Note_on_c, 3, 58, 44
9, 18720, Note_on_c, 3, 62, 44
9, 18775, Note_on_c, 3, 58, 0
9, 18775, Note_on_c, 3, 62, 0
9, 18780, Note_on_c, 3, 58, 44
9, 18780, Note_on_c, 3, 62, 44
9, 18824, Note_on_c, 3, 58, 0
9, 18824, Note_on_c, 3, 62, 0
9, 18840, Note_on_c, 3, 58, 44
9, 18840, Note_on_c, 3, 62, 44
9, 18884, Note_on_c, 3, 58, 0
9, 18884, Note_on_c, 3, 62, 0
9, 18900, Note_on_c, 3, 62, 44
9, 18900, Note_on_c, 3, 58, 44
9, 18944, Note_on_c, 3, 62, 0
9, 18944, Note_on_c, 3, 58, 0
9, 18960, Note_on_c, 3, 62, 44
9, 18960, Note_on_c, 3, 58, 44
9, 19004, Note_on_c, 3, 62, 0
9, 19004, Note_on_c, 3, 58, 0
9, 19020, Note_on_c, 3, 58, 44
9, 19020, Note_on_c, 3, 62, 44
9, 19064, Note_on_c, 3, 58, 0
9, 19064, Note_on_c, 3, 62, 0
9, 19080, Note_on_c, 3, 62, 44
9, 19080, Note_on_c, 3, 58, 44
9, 19124, Note_on_c, 3, 62, 0
9, 19124, Note_on_c, 3, 58, 0
9, 19140, Note_on_c, 3, 58, 44
9, 19140, Note_on_c, 3, 62, 44
9, 19184, Note_on_c, 3, 58, 0
9, 19184, Note_on_c, 3, 62, 0
9, 19200, Note_on_c, 3, 62, 44
9, 19200, Note_on_c, 3, 58, 44
9, 19244, Note_on_c, 3, 62, 0
9, 19244, Note_on_c, 3, 58, 0
9, 19260, Note_on_c, 3, 58, 44
9, 19260, Note_on_c, 3, 62, 44
9, 19304, Note_on_c, 3, 58, 0
9, 19304, Note_on_c, 3, 62, 0
9, 19320, Note_on_c, 3, 62, 44
9, 19320, Note_on_c, 3, 58, 44
9, 19364, Note_on_c, 3, 62, 0
9, 19364, Note_on_c, 3, 58, 0
9, 19380, Note_on_c, 3, 62, 44
9, 19380, Note_on_c, 3, 58, 44
9, 19424, Note_on_c, 3, 62, 0
9, 19424, Note_on_c, 3, 58, 0
9, 19440, Note_on_c, 3, 58, 44
9, 19440, Note_on_c, 3, 62, 44
9, 19484, Note_on_c, 3, 58, 0
9, 19484, Note_on_c, 3, 62, 0
9, 19500, Note_on_c, 3, 62, 44
9, 19500, Note_on_c, 3, 58, 44
9, 19544, Note_on_c, 3, 62, 0
9, 19544, Note_on_c, 3, 58, 0
9, 19560, Note_on_c, 3, 62, 44
9, 19560, Note_on_c, 3, 58, 44
9, 19604, Note_on_c, 3, 62, 0
9, 19604, Note_on_c, 3, 58, 0
9, 19620, Note_on_c, 3, 62, 44
9, 19620, Note_on_c, 3, 58, 44
9, 19664, Note_on_c, 3, 62, 0
9, 19664, Note_on_c, 3, 58, 0
9, 19680, Note_on_c, 3, 63, 44
9, 19680, Note_on_c, 3, 60, 44
9, 19724, Note_on_c, 3, 63, 0
9, 19724, Note_on_c, 3, 60, 0
9, 19740, Note_on_c, 3, 60, 44
9, 19740, Note_on_c, 3, 63, 44
9, 19784, Note_on_c, 3, 60, 0
9, 19784, Note_on_c, 3, 63, 0
9, 19800, Note_on_c, 3, 60, 44
9, 19800, Note_on_c, 3, 63, 44
9, 19844, Note_on_c, 3, 60, 0
9, 19844, Note_on_c, 3, 63, 0
9, 19860, Note_on_c, 3, 63, 44
9, 19860, Note_on_c, 3, 60, 44
9, 19904, Note_on_c, 3, 63, 0
9, 19904, Note_on_c, 3, 60, 0
9, 19920, Note_on_c, 3, 62, 44
9, 19920, Note_on_c, 3, 58, 44
9, 19964, Note_on_c, 3, 62, 0
9, 19964, Note_on_c, 3, 58, 0
9, 19980, Note_on_c, 3, 62, 44
9, 19980, Note_on_c, 3, 58, 44
9, 20024, Note_on_c, 3, 62, 0
9, 20024, Note_on_c, 3, 58, 0
9, 20040, Note_on_c, 3, 62, 44
9, 20040, Note_on_c, 3, 58, 44
9, 20084, Note_on_c, 3, 62, 0
9, 20084, Note_on_c, 3, 58, 0
9, 20100, Note_on_c, 3, 62, 44
9, 20100, Note_on_c, 3, 58, 44
9, 20144, Note_on_c, 3, 62, 0
9, 20144, Note_on_c, 3, 58, 0
9, 20160, Note_on_c, 3, 58, 44
9, 20160, Note_on_c, 3, 62, 44
9, 20204, Note_on_c, 3, 58, 0
9, 20204, Note_on_c, 3, 62, 0
9, 20220, Note_on_c, 3, 62, 44
9, 20220, Note_on_c, 3, 58, 44
9, 20264, Note_on_c, 3, 62, 0
9, 20264, Note_on_c, 3, 58, 0
9, 20280, Note_on_c, 3, 58, 44
9, 20280, Note_on_c, 3, 62, 44
9, 20324, Note_on_c, 3, 58, 0
9, 20324, Note_on_c, 3, 62, 0
9, 20340, Note_on_c, 3, 62, 44
9, 20340, Note_on_c, 3, 58, 44
9, 20384, Note_on_c, 3, 62, 0
9, 20384, Note_on_c, 3, 58, 0
9, 20400, Note_on_c, 3, 62, 44
9, 20400, Note_on_c, 3, 58, 44
9, 20444, Note_on_c, 3, 62, 0
9, 20444, Note_on_c, 3, 58, 0
9, 20460, Note_on_c, 3, 62, 44
9, 20460, Note_on_c, 3, 58, 44
9, 20504, Note_on_c, 3, 62, 0
9, 20504, Note_on_c, 3, 58, 0
9, 20520, Note_on_c, 3, 58, 44
9, 20520, Note_on_c, 3, 62, 44
9, 20564, Note_on_c, 3, 58, 0
9, 20564, Note_on_c, 3, 62, 0
9, 20580, Note_on_c, 3, 58, 44
9, 20580, Note_on_c, 3, 62, 44
9, 20624, Note_on_c, 3, 58, 0
9, 20624, Note_on_c, 3, 62, 0
9, 20640, Note_on_c, 3, 58, 44
9, 20640, Note_on_c, 3, 62, 44
9, 20684, Note_on_c, 3, 58, 0
9, 20684, Note_on_c, 3, 62, 0
9, 20700, Note_on_c, 3, 58, 44
9, 20700, Note_on_c, 3, 62, 44
9, 20744, Note_on_c, 3, 58, 0
9, 20744, Note_on_c, 3, 62, 0
9, 20760, Note_on_c, 3, 58, 44
9, 20760, Note_on_c, 3, 62, 44
9, 20804, Note_on_c, 3, 58, 0
9, 20804, Note_on_c, 3, 62, 0
9, 20820, Note_on_c, 3, 62, 44
9, 20820, Note_on_c, 3, 58, 44
9, 20864, Note_on_c, 3, 62, 0
9, 20864, Note_on_c, 3, 58, 0
9, 20880, Note_on_c, 3, 62, 44
9, 20880, Note_on_c, 3, 58, 44
9, 20924, Note_on_c, 3, 62, 0
9, 20924, Note_on_c, 3, 58, 0
9, 20940, Note_on_c, 3, 62, 44
9, 20940, Note_on_c, 3, 58, 44
9, 20984, Note_on_c, 3, 62, 0
9, 20984, Note_on_c, 3, 58, 0
9, 21000, Note_on_c, 3, 58, 44
9, 21000, Note_on_c, 3, 62, 44
9, 21044, Note_on_c, 3, 58, 0
9, 21044, Note_on_c, 3, 62, 0
9, 21060, Note_on_c, 3, 58, 44
9, 21060, Note_on_c, 3, 62, 44
9, 21104, Note_on_c, 3, 58, 0
9, 21104, Note_on_c, 3, 62, 0
9, 21120, Note_on_c, 3, 62, 44
9, 21120, Note_on_c, 3, 58, 44
9, 21164, Note_on_c, 3, 62, 0
9, 21164, Note_on_c, 3, 58, 0
9, 21180, Note_on_c, 3, 58, 44
9, 21180, Note_on_c, 3, 62, 44
9, 21224, Note_on_c, 3, 58, 0
9, 21224, Note_on_c, 3, 62, 0
9, 21240, Note_on_c, 3, 58, 44
9, 21240, Note_on_c, 3, 62, 44
9, 21284, Note_on_c, 3, 58, 0
9, 21284, Note_on_c, 3, 62, 0
9, 21300, Note_on_c, 3, 58, 44
9, 21300, Note_on_c, 3, 62, 44
9, 21344, Note_on_c, 3, 58, 0
9, 21344, Note_on_c, 3, 62, 0
9, 21360, Note_on_c, 3, 63, 44
9, 21360, Note_on_c, 3, 60, 44
9, 21404, Note_on_c, 3, 63, 0
9, 21404, Note_on_c, 3, 60, 0
9, 21420, Note_on_c, 3, 60, 44
9, 21420, Note_on_c, 3, 63, 44
9, 21464, Note_on_c, 3, 60, 0
9, 21464, Note_on_c, 3, 63, 0
9, 21480, Note_on_c, 3, 60, 44
9, 21480, Note_on_c, 3, 63, 44
9, 21524, Note_on_c, 3, 60, 0
9, 21524, Note_on_c, 3, 63, 0
9, 21540, Note_on_c, 3, 57, 44
9, 21540, Note_on_c, 3, 60, 44
9, 21584, Note_on_c, 3, 57, 0
9, 21584, Note_on_c, 3, 60, 0
9, 21600, Note_on_c, 3, 58, 44
9, 21600, Note_on_c, 3, 62, 44
9, 21644, Note_on_c, 3, 58, 0
9, 21644, Note_on_c, 3, 62, 0
9, 21660, Note_on_c, 3, 62, 44
9, 21660, Note_on_c, 3, 58, 44
9, 21704, Note_on_c, 3, 62, 0
9, 21704, Note_on_c, 3, 58, 0
9, 21720, Note_on_c, 3, 62, 44
9, 21720, Note_on_c, 3, 58, 44
9, 21764, Note_on_c, 3, 62, 0
9, 21764, Note_on_c, 3, 58, 0
9, 21780, Note_on_c, 3, 62, 44
9, 21780, Note_on_c, 3, 58, 44
9, 21824, Note_on_c, 3, 62, 0
9, 21824, Note_on_c, 3, 58, 0
9, 21840, Note_on_c, 3, 60, 44
9, 21840, Note_on_c, 3, 57, 44
9, 21884, Note_on_c, 3, 60, 0
9, 21884, Note_on_c, 3, 57, 0
9, 21900, Note_on_c, 3, 60, 44
9, 21900, Note_on_c, 3, 57, 44
9, 21944, Note_on_c, 3, 60, 0
9, 21944, Note_on_c, 3, 57, 0
9, 21960, Note_on_c, 3, 57, 44
9, 21960, Note_on_c, 3, 60, 44
9, 22004, Note_on_c, 3, 57, 0
9, 22004, Note_on_c, 3, 60, 0
9, 22020, Note_on_c, 3, 60, 44
9, 22020, Note_on_c, 3, 57, 44
9, 22064, Note_on_c, 3, 60, 0
9, 22064, Note_on_c, 3, 57, 0
9, 22080, Note_on_c, 3, 62, 44
9, 22080, Note_on_c, 3, 58, 44
9, 22124, Note_on_c, 3, 62, 0
9, 22124, Note_on_c, 3, 58, 0
9, 22140, Note_on_c, 3, 62, 44
9, 22140, Note_on_c, 3, 58, 44
9, 22184, Note_on_c, 3, 62, 0
9, 22184, Note_on_c, 3, 58, 0
9, 22200, Note_on_c, 3, 58, 44
9, 22200, Note_on_c, 3, 62, 44
9, 22244, Note_on_c, 3, 58, 0
9, 22244, Note_on_c, 3, 62, 0
9, 22260, Note_on_c, 3, 58, 44
9, 22260, Note_on_c, 3, 62, 44
9, 22304, Note_on_c, 3, 58, 0
9, 22304, Note_on_c, 3, 62, 0
9, 22320, Note_on_c, 3, 57, 44
9, 22320, Note_on_c, 3, 60, 44
9, 22364, Note_on_c, 3, 57, 0
9, 22364, Note_on_c, 3, 60, 0
9, 22380, Note_on_c, 3, 57, 44
9, 22380, Note_on_c, 3, 60, 44
9, 22424, Note_on_c, 3, 57, 0
9, 22424, Note_on_c, 3, 60, 0
9, 22440, Note_on_c, 3, 57, 44
9, 22440, Note_on_c, 3, 60, 44
9, 22484, Note_on_c, 3, 57, 0
9, 22484, Note_on_c, 3, 60, 0
9, 22500, Note_on_c, 3, 57, 44
9, 22500, Note_on_c, 3, 60, 44
9, 22544, Note_on_c, 3, 57, 0
9, 22544, Note_on_c, 3, 60, 0
9, 22560, Note_on_c, 3, 58, 44
9, 22560, Note_on_c, 3, 62, 44
9, 22604, Note_on_c, 3, 58, 0
9, 22604, Note_on_c, 3, 62, 0
9, 22620, Note_on_c, 3, 62, 44
9, 22620, Note_on_c, 3, 58, 44
9, 22664, Note_on_c, 3, 62, 0
9, 22664, Note_on_c, 3, 58, 0
9, 22680, Note_on_c, 3, 62, 44
9, 22680, Note_on_c, 3, 58, 44
9, 22724, Note_on_c, 3, 62, 0
9, 22724, Note_on_c, 3, 58, 0
9, 22740, Note_on_c, 3, 58, 44
9, 22740, Note_on_c, 3, 62, 44
9, 22784, Note_on_c, 3, 58, 0
9, 22784, Note_on_c, 3, 62, 0
9, 22800, Note_on_c, 3, 57, 44
9, 22800, Note_on_c, 3, 60, 44
9, 22844, Note_on_c, 3, 57, 0
9, 22844, Note_on_c, 3, 60, 0
9, 22860, Note_on_c, 3, 60, 46
9, 22860, Note_on_c, 3, 57, 46
9, 22904, Note_on_c, 3, 60, 0
9, 22904, Note_on_c, 3, 57, 0
9, 22920, Note_on_c, 3, 57, 49
9, 22920, Note_on_c, 3, 60, 49
9, 22964, Note_on_c, 3, 57, 0
9, 22964, Note_on_c, 3, 60, 0
9, 22980, Note_on_c, 3, 57, 52
9, 22980, Note_on_c, 3, 60, 52
9, 23024, Note_on_c, 3, 57, 0
9, 23024, Note_on_c, 3, 60, 0
9, 23040, Note_on_c, 3, 62, 54
9, 23040, Note_on_c, 3, 58, 54
9, 23084, Note_on_c, 3, 62, 0
9, 23084, Note_on_c, 3, 58, 0
9, 23100, Note_on_c, 3, 62, 57
9, 23100, Note_on_c, 3, 58, 57
9, 23144, Note_on_c, 3, 62, 0
9, 23144, Note_on_c, 3, 58, 0
9, 23160, Note_on_c, 3, 58, 60
9, 23160, Note_on_c, 3, 62, 60
9, 23204, Note_on_c, 3, 58, 0
9, 23204, Note_on_c, 3, 62, 0
9, 23220, Note_on_c, 3, 58, 62
9, 23220, Note_on_c, 3, 62, 62
9, 23264, Note_on_c, 3, 58, 0
9, 23264, Note_on_c, 3, 62, 0
9, 23280, Note_on_c, 3, 52, 65
9, 23280, Note_on_c, 3, 55, 65
9, 23324, Note_on_c, 3, 52, 0
9, 23324, Note_on_c, 3, 55, 0
9, 23340, Note_on_c, 3, 60, 68
9, 23340, Note_on_c, 3, 48, 68
9, 23384, Note_on_c, 3, 60, 0
9, 23384, Note_on_c, 3, 48, 0
9, 23400, Note_on_c, 3, 48, 70
9, 23400, Note_on_c, 3, 60, 70
9, 23444, Note_on_c, 3, 48, 0
9, 23444, Note_on_c, 3, 60, 0
9, 23460, Note_on_c, 3, 60, 73
9, 23460, Note_on_c, 3, 48, 73
9, 23504, Note_on_c, 3, 60, 0
9, 23504, Note_on_c, 3, 48, 0
9, 23520, Note_on_c, 3, 48, 76
9, 23520, Note_on_c, 3, 60, 76
9, 23564, Note_on_c, 3, 48, 0
9, 23564, Note_on_c, 3, 60, 0
9, 23580, Note_on_c, 3, 60, 76
9, 23580, Note_on_c, 3, 48, 76
9, 23624, Note_on_c, 3, 60, 0
9, 23624, Note_on_c, 3, 48, 0
9, 23640, Note_on_c, 3, 60, 76
9, 23640, Note_on_c, 3, 48, 76
9, 23684, Note_on_c, 3, 60, 0
9, 23684, Note_on_c, 3, 48, 0
9, 23700, Note_on_c, 3, 48, 76
9, 23700, Note_on_c, 3, 60, 76
9, 23744, Note_on_c, 3, 48, 0
9, 23744, Note_on_c, 3, 60, 0
9, 23760, Note_on_c, 3, 60, 76
9, 23760, Note_on_c, 3, 48, 76
9, 23804, Note_on_c, 3, 60, 0
9, 23804, Note_on_c, 3, 48, 0
9, 23820, Note_on_c, 3, 60, 76
9, 23820, Note_on_c, 3, 48, 76
9, 23864, Note_on_c, 3, 60, 0
9, 23864, Note_on_c, 3, 48, 0
9, 23880, Note_on_c, 3, 48, 76
9, 23880, Note_on_c, 3, 60, 76
9, 23924, Note_on_c, 3, 48, 0
9, 23924, Note_on_c, 3, 60, 0
9, 23940, Note_on_c, 3, 60, 76
9, 23940, Note_on_c, 3, 48, 76
9, 23984, Note_on_c, 3, 60, 0
9, 23984, Note_on_c, 3, 48, 0
9, 24000, Note_on_c, 3, 60, 76
9, 24000, Note_on_c, 3, 48, 76
9, 24044, Note_on_c, 3, 60, 0
9, 24044, Note_on_c, 3, 48, 0
9, 24060, Note_on_c, 3, 48, 76
9, 24060, Note_on_c, 3, 60, 76
9, 24104, Note_on_c, 3, 48, 0
9, 24104, Note_on_c, 3, 60, 0
9, 24120, Note_on_c, 3, 48, 76
9, 24120, Note_on_c, 3, 60, 76
9, 24164, Note_on_c, 3, 48, 0
9, 24164, Note_on_c, 3, 60, 0
9, 24180, Note_on_c, 3, 60, 76
9, 24180, Note_on_c, 3, 48, 76
9, 24224, Note_on_c, 3, 60, 0
9, 24224, Note_on_c, 3, 48, 0
9, 24240, Note_on_c, 3, 48, 76
9, 24240, Note_on_c, 3, 60, 76
9, 24284, Note_on_c, 3, 48, 0
9, 24284, Note_on_c, 3, 60, 0
9, 24300, Note_on_c, 3, 57, 76
9, 24329, Note_on_c, 3, 57, 0
9, 24330, Note_on_c, 3, 58, 76
9, 24355, Note_on_c, 3, 58, 0
9, 24360, Note_on_c, 3, 58, 76
9, 24389, Note_on_c, 3, 58, 0
9, 24390, Note_on_c, 3, 60, 76
9, 24415, Note_on_c, 3, 60, 0
9, 24420, Note_on_c, 3, 60, 76
9, 24449, Note_on_c, 3, 60, 0
9, 24450, Note_on_c, 3, 62, 76
9, 24475, Note_on_c, 3, 62, 0
9, 24480, Note_on_c, 3, 63, 84
9, 24651, Note_on_c, 3, 63, 0
9, 24660, Note_on_c, 3, 60, 76
9, 24704, Note_on_c, 3, 60, 0
9, 24720, Note_on_c, 3, 62, 84
9, 24891, Note_on_c, 3, 62, 0
9, 24900, Note_on_c, 3, 58, 76
9, 24944, Note_on_c, 3, 58, 0
9, 24960, Note_on_c, 3, 60, 76
9, 25004, Note_on_c, 3, 60, 0
9, 25020, Note_on_c, 3, 57, 76
9, 25064, Note_on_c, 3, 57, 0
9, 25080, Note_on_c, 3, 53, 76
9, 25124, Note_on_c, 3, 53, 0
9, 25140, Note_on_c, 3, 57, 76
9, 25184, Note_on_c, 3, 57, 0
9, 25200, Note_on_c, 3, 58, 76
9, 25244, Note_on_c, 3, 58, 0
9, 25260, Note_on_c, 3, 62, 76
9, 25304, Note_on_c, 3, 62, 0
9, 25320, Note_on_c, 3, 65, 76
9, 25364, Note_on_c, 3, 65, 0
9, 25380, Note_on_c, 3, 62, 76
9, 25424, Note_on_c, 3, 62, 0
9, 25440, Note_on_c, 3, 63, 76
9, 25495, Note_on_c, 3, 63, 0
9, 25500, Note_on_c, 3, 63, 84
9, 25611, Note_on_c, 3, 63, 0
9, 25620, Note_on_c, 3, 60, 76
9, 25634, Note_on_c, 3, 60, 0
9, 25635, Note_on_c, 3, 62, 76
9, 25649, Note_on_c, 3, 62, 0
9, 25650, Note_on_c, 3, 58, 76
9, 25664, Note_on_c, 3, 58, 0
9, 25665, Note_on_c, 3, 60, 76
9, 25679, Note_on_c, 3, 60, 0
9, 25680, Note_on_c, 3, 62, 76
9, 25735, Note_on_c, 3, 62, 0
9, 25740, Note_on_c, 3, 62, 84
9, 25851, Note_on_c, 3, 62, 0
9, 25860, Note_on_c, 3, 58, 76
9, 25874, Note_on_c, 3, 58, 0
9, 25875, Note_on_c, 3, 60, 76
9, 25889, Note_on_c, 3, 60, 0
9, 25890, Note_on_c, 3, 57, 76
9, 25904, Note_on_c, 3, 57, 0
9, 25905, Note_on_c, 3, 58, 76
9, 25919, Note_on_c, 3, 58, 0
9, 25920, Note_on_c, 3, 60, 76
9, 25964, Note_on_c, 3, 60, 0
9, 25980, Note_on_c, 3, 57, 76
9, 26024, Note_on_c, 3, 57, 0
9, 26040, Note_on_c, 3, 53, 76
9, 26084, Note_on_c, 3, 53, 0
9, 26100, Note_on_c, 3, 57, 76
9, 26144, Note_on_c, 3, 57, 0
9, 26160, Note_on_c, 3, 58, 76
9, 26204, Note_on_c, 3, 58, 0
9, 26220, Note_on_c, 3, 62, 76
9, 26264, Note_on_c, 3, 62, 0
9, 26280, Note_on_c, 3, 65, 76
9, 26324, Note_on_c, 3, 65, 0
9, 26340, Note_on_c, 3, 62, 76
9, 26384, Note_on_c, 3, 62, 0
9, 26400, Note_on_c, 3, 63, 76
9, 26455, Note_on_c, 3, 63, 0
9, 26460, Note_on_c, 3, 63, 76
9, 26571, Note_on_c, 3, 63, 0
9, 26580, Note_on_c, 3, 60, 76
9, 26594, Note_on_c, 3, 60, 0
9, 26595, Note_on_c, 3, 62, 76
9, 26609, Note_on_c, 3, 62, 0
9, 26610, Note_on_c, 3, 58, 76
9, 26624, Note_on_c, 3, 58, 0
9, 26625, Note_on_c, 3, 60, 76
9, 26639, Note_on_c, 3, 60, 0
9, 26640, Note_on_c, 3, 62, 84
9, 26640, Note_on_c, 3, 58, 84
9, 26729, Note_on_c, 3, 62, 0
9, 26729, Note_on_c, 3, 58, 0
9, 27180, Note_on_c, 3, 55, 52
9, 27224, Note_on_c, 3, 55, 0
9, 27240, Note_on_c, 3, 52, 52
9, 27284, Note_on_c, 3, 52, 0
9, 27420, Note_on_c, 3, 60, 52
9, 27464, Note_on_c, 3, 60, 0
9, 27480, Note_on_c, 3, 53, 52
9, 27524, Note_on_c, 3, 53, 0
9, 27600, Note_on_c, 3, 62, 84
9, 27600, Note_on_c, 3, 58, 84
9, 27644, Note_on_c, 3, 62, 0
9, 27644, Note_on_c, 3, 58, 0
9, 28140, Note_on_c, 3, 55, 52
9, 28184, Note_on_c, 3, 55, 0
9, 28200, Note_on_c, 3, 52, 52
9, 28244, Note_on_c, 3, 52, 0
9, 28380, Note_on_c, 3, 48, 52
9, 28424, Note_on_c, 3, 48, 0
9, 28440, Note_on_c, 3, 58, 51
9, 28484, Note_on_c, 3, 58, 0
9, 28620, Note_on_c, 3, 57, 49
9, 28664, Note_on_c, 3, 57, 0
9, 28680, Note_on_c, 3, 53, 48
9, 28724, Note_on_c, 3, 53, 0
9, 28860, Note_on_c, 3, 63, 46
9, 28904, Note_on_c, 3, 63, 0
9, 28920, Note_on_c, 3, 62, 46
9, 28964, Note_on_c, 3, 62, 0
9, 29100, Note_on_c, 3, 46, 44
9, 29144, Note_on_c, 3, 46, 0
9, 29160, Note_on_c, 3, 56, 44
9, 29204, Note_on_c, 3, 56, 0
9, 29340, Note_on_c, 3, 55, 44
9, 29384, Note_on_c, 3, 55, 0
9, 29400, Note_on_c, 3, 54, 44
9, 29444, Note_on_c, 3, 54, 0
9, 29640, Note_on_c, 3, 53, 46
9, 29699, Note_on_c, 3, 53, 0
9, 29700, Note_on_c, 3, 58, 48
9, 29759, Note_on_c, 3, 58, 0
9, 29760, Note_on_c, 3, 57, 49
9, 29819, Note_on_c, 3, 57, 0
9, 29820, Note_on_c, 3, 55, 50
9, 29879, Note_on_c, 3, 55, 0
9, 29880, Note_on_c, 3, 53, 52
9, 29939, Note_on_c, 3, 53, 0
9, 29940, Note_on_c, 3, 57, 53
9, 29940, Note_on_c, 3, 63, 53
9, 29999, Note_on_c, 3, 57, 0
9, 29999, Note_on_c, 3, 63, 0
9, 30000, Note_on_c, 3, 62, 54
9, 30000, Note_on_c, 3, 58, 54
9, 30059, Note_on_c, 3, 62, 0
9, 30059, Note_on_c, 3, 58, 0
9, 30060, Note_on_c, 3, 60, 56
9, 30060, Note_on_c, 3, 57, 56
9, 30119, Note_on_c, 3, 60, 0
9, 30119, Note_on_c, 3, 57, 0
9, 30120, Note_on_c, 3, 58, 57
9, 30179, Note_on_c, 3, 58, 0
9, 30480, Control_c, 3, 11, 96
9, 30600, Note_on_c, 3, 53, 68
9, 30600, Control_c, 3, 11, 96
9, 30645, Control_c, 3, 11, 99
9, 30690, Control_c, 3, 11, 101
9, 30735, Control_c, 3, 11, 104
9, 30780, Control_c, 3, 11, 106
9, 30825, Control_c, 3, 11, 109
9, 30870, Control_c, 3, 11, 112
9, 30915, Control_c, 3, 11, 114
9, 30960, Control_c, 3, 11, 117
9, 31005, Control_c, 3, 11, 119
9, 31011, Note_on_c, 3, 53, 0
9, 31020, Note_on_c, 3, 65, 68
9, 31050, Control_c, 3, 11, 122
9, 31095, Control_c, 3, 11, 124
9, 31139, Note_on_c, 3, 65, 0
9, 31140, Control_c, 3, 11, 127
9, 31140, Note_on_c, 3, 62, 52
9, 31169, Note_on_c, 3, 62, 0
9, 31170, Note_on_c, 3, 58, 52
9, 31195, Note_on_c, 3, 58, 0
9, 31200, Note_on_c, 3, 57, 52
9, 31244, Note_on_c, 3, 57, 0
9, 31260, Note_on_c, 3, 63, 52
9, 31260, Note_on_c, 3, 60, 52
9, 31304, Note_on_c, 3, 63, 0
9, 31304, Note_on_c, 3, 60, 0
9, 31320, Note_on_c, 3, 60, 52
9, 31320, Note_on_c, 3, 63, 52
9, 31364, Note_on_c, 3, 60, 0
9, 31364, Note_on_c, 3, 63, 0
9, 31380, Note_on_c, 3, 63, 52
9, 31380, Note_on_c, 3, 60, 52
9, 31424, Note_on_c, 3, 63, 0
9, 31424, Note_on_c, 3, 60, 0
9, 31440, Note_on_c, 3, 62, 52
9, 31440, Note_on_c, 3, 58, 52
9, 31499, Note_on_c, 3, 62, 0
9, 31499, Note_on_c, 3, 58, 0
9, 31620, Note_on_c, 3, 51, 52
9, 31620, Note_on_c, 3, 55, 52
9, 31679, Note_on_c, 3, 51, 0
9, 31679, Note_on_c, 3, 55, 0
9, 31680, Note_on_c, 3, 50, 52
9, 31680, Note_on_c, 3, 53, 52
9, 31739, Note_on_c, 3, 50, 0
9, 31739, Note_on_c, 3, 53, 0
9, 31860, Note_on_c, 3, 48, 52
9, 31860, Note_on_c, 3, 51, 52
9, 31919, Note_on_c, 3, 48, 0
9, 31919, Note_on_c, 3, 51, 0
9, 31920, Note_on_c, 3, 46, 52
9, 31920, Note_on_c, 3, 50, 52
9, 31979, Note_on_c, 3, 46, 0
9, 31979, Note_on_c, 3, 50, 0
9, 32100, Note_on_c, 3, 53, 52
9, 32100, Note_on_c, 3, 56, 52
9, 32159, Note_on_c, 3, 53, 0
9, 32159, Note_on_c, 3, 56, 0
9, 32160, Note_on_c, 3, 55, 52
9, 32160, Note_on_c, 3, 51, 52
9, 32219, Note_on_c, 3, 55, 0
9, 32219, Note_on_c, 3, 51, 0
9, 32340, Note_on_c, 3, 53, 52
9, 32340, Note_on_c, 3, 50, 52
9, 32399, Note_on_c, 3, 53, 0
9, 32399, Note_on_c, 3, 50, 0
9, 32400, Note_on_c, 3, 51, 52
9, 32400, Note_on_c, 3, 48, 52
9, 32459, Note_on_c, 3, 51, 0
9, 32459, Note_on_c, 3, 48, 0
9, 32580, Note_on_c, 3, 55, 52
9, 32580, Note_on_c, 3, 58, 52
9, 32639, Note_on_c, 3, 55, 0
9, 32639, Note_on_c, 3, 58, 0
9, 32640, Note_on_c, 3, 53, 52
9, 32640, Note_on_c, 3, 56, 52
9, 32699, Note_on_c, 3, 53, 0
9, 32699, Note_on_c, 3, 56, 0
9, 32820, Note_on_c, 3, 51, 52
9, 32820, Note_on_c, 3, 55, 52
9, 32879, Note_on_c, 3, 51, 0
9, 32879, Note_on_c, 3, 55, 0
9, 32880, Note_on_c, 3, 53, 52
9, 32880, Note_on_c, 3, 50, 52
9, 32939, Note_on_c, 3, 53, 0
9, 32939, Note_on_c, 3, 50, 0
9, 33060, Note_on_c, 3, 60, 52
9, 33060, Note_on_c, 3, 56, 52
9, 33119, Note_on_c, 3, 60, 0
9, 33119, Note_on_c, 3, 56, 0
9, 33120, Note_on_c, 3, 58, 53
9, 33120, Note_on_c, 3, 55, 53
9, 33175, Note_on_c, 3, 58, 0
9, 33175, Note_on_c, 3, 55, 0
9, 33180, Note_on_c, 3, 53, 55
9, 33180, Note_on_c, 3, 56, 55
9, 33239, Note_on_c, 3, 53, 0
9, 33239, Note_on_c, 3, 56, 0
9, 33240, Note_on_c, 3, 55, 57
9, 33240, Note_on_c, 3, 51, 57
9, 33295, Note_on_c, 3, 55, 0
9, 33295, Note_on_c, 3, 51, 0
9, 33300, Note_on_c, 3, 50, 59
9, 33300, Note_on_c, 3, 53, 59
9, 33359, Note_on_c, 3, 50, 0
9, 33359, Note_on_c, 3, 53, 0
9, 33360, Note_on_c, 3, 60, 60
9, 33360, Note_on_c, 3, 56, 60
9, 33415, Note_on_c, 3, 60, 0
9, 33415, Note_on_c, 3, 56, 0
9, 33420, Note_on_c, 3, 58, 62
9, 33420, Note_on_c, 3, 55, 62
9, 33479, Note_on_c, 3, 58, 0
9, 33479, Note_on_c, 3, 55, 0
9, 33480, Note_on_c, 3, 53, 64
9, 33480, Note_on_c, 3, 56, 64
9, 33535, Note_on_c, 3, 53, 0
9, 33535, Note_on_c, 3, 56, 0
9, 33540, Note_on_c, 3, 55, 66
9, 33540, Note_on_c, 3, 51, 66
9, 33599, Note_on_c, 3, 55, 0
9, 33599, Note_on_c, 3, 51, 0
9, 33600, Note_on_c, 3, 53, 68
9, 33600, Note_on_c, 3, 50, 68
9, 33655, Note_on_c, 3, 53, 0
9, 33655, Note_on_c, 3, 50, 0
9, 33660, Note_on_c, 3, 56, 68
9, 33660, Note_on_c, 3, 60, 68
9, 33719, Note_on_c, 3, 56, 0
9, 33719, Note_on_c, 3, 60, 0
9, 33720, Note_on_c, 3, 55, 68
9, 33720, Note_on_c, 3, 58, 68
9, 33775, Note_on_c, 3, 55, 0
9, 33775, Note_on_c, 3, 58, 0
9, 33780, Note_on_c, 3, 56, 66
9, 33780, Note_on_c, 3, 53, 66
9, 33839, Note_on_c, 3, 56, 0
9, 33839, Note_on_c, 3, 53, 0
9, 33840, Note_on_c, 3, 51, 63
9, 33840, Note_on_c, 3, 55, 63
9, 33895, Note_on_c, 3, 51, 0
9, 33895, Note_on_c, 3, 55, 0
9, 33900, Note_on_c, 3, 50, 60
9, 33900, Note_on_c, 3, 53, 60
9, 33959, Note_on_c, 3, 50, 0
9, 33959, Note_on_c, 3, 53, 0
9, 33960, Note_on_c, 3, 56, 58
9, 33960, Note_on_c, 3, 60, 58
9, 34015, Note_on_c, 3, 56, 0
9, 34015, Note_on_c, 3, 60, 0
9, 34020, Note_on_c, 3, 55, 55
9, 34020, Note_on_c, 3, 58, 55
9, 34079, Note_on_c, 3, 55, 0
9, 34079, Note_on_c, 3, 58, 0
9, 34080, Note_on_c, 3, 53, 52
9, 34080, Note_on_c, 3, 56, 52
9, 34135, Note_on_c, 3, 53, 0
9, 34135, Note_on_c, 3, 56, 0
9, 34140, Note_on_c, 3, 55, 52
9, 34140, Note_on_c, 3, 51, 52
9, 34199, Note_on_c, 3, 55, 0
9, 34199, Note_on_c, 3, 51, 0
9, 34200, Note_on_c, 3, 50, 52
9, 34200, Note_on_c, 3, 53, 52
9, 34255, Note_on_c, 3, 50, 0
9, 34255, Note_on_c, 3, 53, 0
9, 34260, Note_on_c, 3, 60, 44
9, 34260, Note_on_c, 3, 56, 44
9, 34319, Note_on_c, 3, 60, 0
9, 34319, Note_on_c, 3, 56, 0
9, 34320, Note_on_c, 3, 58, 44
9, 34320, Note_on_c, 3, 55, 44
9, 34375, Note_on_c, 3, 58, 0
9, 34375, Note_on_c, 3, 55, 0
9, 34380, Note_on_c, 3, 53, 44
9, 34380, Note_on_c, 3, 56, 44
9, 34439, Note_on_c, 3, 53, 0
9, 34439, Note_on_c, 3, 56, 0
9, 34440, Note_on_c, 3, 55, 44
9, 34440, Note_on_c, 3, 51, 44
9, 34495, Note_on_c, 3, 55, 0
9, 34495, Note_on_c, 3, 51, 0
9, 34500, Note_on_c, 3, 56, 44
9, 34500, Note_on_c, 3, 53, 44
9, 34739, Note_on_c, 3, 56, 0
9, 34739, Note_on_c, 3, 53, 0
9, 35460, Note_on_c, 3, 53, 44
9, 35460, Note_on_c, 3, 50, 44
9, 35481, Note_on_c, 3, 53, 0
9, 35481, Note_on_c, 3, 50, 0
9, 35490, Note_on_c, 3, 55, 44
9, 35490, Note_on_c, 3, 51, 44
9, 35511, Note_on_c, 3, 55, 0
9, 35511, Note_on_c, 3, 51, 0
9, 35520, Note_on_c, 3, 56, 44
9, 35520, Note_on_c, 3, 53, 44
9, 35541, Note_on_c, 3, 56, 0
9, 35541, Note_on_c, 3, 53, 0
9, 35550, Note_on_c, 3, 56, 44
9, 35550, Note_on_c, 3, 53, 44
9, 35571, Note_on_c, 3, 56, 0
9, 35571, Note_on_c, 3, 53, 0
9, 35580, Note_on_c, 3, 56, 44
9, 35580, Note_on_c, 3, 53, 44
9, 35601, Note_on_c, 3, 56, 0
9, 35601, Note_on_c, 3, 53, 0
9, 35610, Note_on_c, 3, 53, 44
9, 35610, Note_on_c, 3, 56, 44
9, 35631, Note_on_c, 3, 53, 0
9, 35631, Note_on_c, 3, 56, 0
9, 35640, Note_on_c, 3, 53, 44
9, 35640, Note_on_c, 3, 56, 44
9, 35699, Note_on_c, 3, 53, 0
9, 35699, Note_on_c, 3, 56, 0
9, 36000, Note_on_c, 3, 55, 44
9, 36000, Note_on_c, 3, 51, 44
9, 36021, Note_on_c, 3, 55, 0
9, 36021, Note_on_c, 3, 51, 0
9, 36030, Note_on_c, 3, 55, 44
9, 36030, Note_on_c, 3, 51, 44
9, 36051, Note_on_c, 3, 55, 0
9, 36051, Note_on_c, 3, 51, 0
9, 36060, Note_on_c, 3, 55, 44
9, 36060, Note_on_c, 3, 51, 44
9, 36081, Note_on_c, 3, 55, 0
9, 36081, Note_on_c, 3, 51, 0
9, 36090, Note_on_c, 3, 51, 44
9, 36090, Note_on_c, 3, 55, 44
9, 36111, Note_on_c, 3, 51, 0
9, 36111, Note_on_c, 3, 55, 0
9, 36120, Note_on_c, 3, 55, 44
9, 36120, Note_on_c, 3, 51, 44
9, 36179, Note_on_c, 3, 55, 0
9, 36179, Note_on_c, 3, 51, 0
9, 36480, Note_on_c, 3, 65, 84
9, 36480, Note_on_c, 3, 62, 84
9, 36501, Note_on_c, 3, 65, 0
9, 36501, Note_on_c, 3, 62, 0
9, 36510, Note_on_c, 3, 62, 84
9, 36510, Note_on_c, 3, 65, 84
9, 36531, Note_on_c, 3, 62, 0
9, 36531, Note_on_c, 3, 65, 0
9, 36540, Note_on_c, 3, 65, 84
9, 36540, Note_on_c, 3, 62, 84
9, 36561, Note_on_c, 3, 65, 0
9, 36561, Note_on_c, 3, 62, 0
9, 36570, Note_on_c, 3, 65, 84
9, 36570, Note_on_c, 3, 62, 84
9, 36591, Note_on_c, 3, 65, 0
9, 36591, Note_on_c, 3, 62, 0
9, 36600, Note_on_c, 3, 65, 84
9, 36600, Note_on_c, 3, 62, 84
9, 36659, Note_on_c, 3, 65, 0
9, 36659, Note_on_c, 3, 62, 0
9, 36960, Note_on_c, 3, 67, 84
9, 36960, Note_on_c, 3, 63, 84
9, 36981, Note_on_c, 3, 67, 0
9, 36981, Note_on_c, 3, 63, 0
9, 36990, Note_on_c, 3, 63, 84
9, 36990, Note_on_c, 3, 67, 84
9, 37011, Note_on_c, 3, 63, 0
9, 37011, Note_on_c, 3, 67, 0
9, 37020, Note_on_c, 3, 67, 84
9, 37020, Note_on_c, 3, 63, 84
9, 37041, Note_on_c, 3, 67, 0
9, 37041, Note_on_c, 3, 63, 0
9, 37050, Note_on_c, 3, 63, 84
9, 37050, Note_on_c, 3, 67, 84
9, 37071, Note_on_c, 3, 63, 0
9, 37071, Note_on_c, 3, 67, 0
9, 37080, Note_on_c, 3, 67, 84
9, 37080, Note_on_c, 3, 63, 84
9, 37139, Note_on_c, 3, 67, 0
9, 37139, Note_on_c, 3, 63, 0
9, 37440, Note_on_c, 3, 51, 44
9, 37484, Note_on_c, 3, 51, 0
9, 37500, Note_on_c, 3, 51, 44
9, 37544, Note_on_c, 3, 51, 0
9, 37560, Note_on_c, 3, 53, 44
9, 37604, Note_on_c, 3, 53, 0
9, 37620, Note_on_c, 3, 41, 44
9, 37664, Note_on_c, 3, 41, 0
9, 37680, Note_on_c, 3, 46, 44
9, 37724, Note_on_c, 3, 46, 0
9, 37740, Note_on_c, 3, 51, 44
9, 37784, Note_on_c, 3, 51, 0
9, 37800, Note_on_c, 3, 53, 44
9, 37844, Note_on_c, 3, 53, 0
9, 37860, Note_on_c, 3, 41, 44
9, 37904, Note_on_c, 3, 41, 0
9, 37920, Note_on_c, 3, 46, 44
9, 37979, Note_on_c, 3, 46, 0
9, 38010, Note_on_c, 3, 41, 51
9, 38035, Note_on_c, 3, 41, 0
9, 38040, Note_on_c, 3, 46, 54
9, 38099, Note_on_c, 3, 46, 0
9, 38130, Note_on_c, 3, 41, 61
9, 38155, Note_on_c, 3, 41, 0
9, 38160, Note_on_c, 3, 46, 64
9, 38219, Note_on_c, 3, 46, 0
9, 38250, Note_on_c, 3, 41, 71
9, 38275, Note_on_c, 3, 41, 0
9, 38280, Note_on_c, 3, 46, 74
9, 38339, Note_on_c, 3, 46, 0
9, 38370, Note_on_c, 3, 41, 81
9, 38395, Note_on_c, 3, 41, 0
9, 38400, Note_on_c, 3, 46, 84
9, 38421, Note_on_c, 3, 46, 0
9, 38430, Note_on_c, 3, 46, 84
9, 38451, Note_on_c, 3, 46, 0
9, 38460, Note_on_c, 3, 46, 84
9, 38481, Note_on_c, 3, 46, 0
9, 38490, Note_on_c, 3, 46, 84
9, 38511, Note_on_c, 3, 46, 0
9, 38520, Note_on_c, 3, 46, 84
9, 38541, Note_on_c, 3, 46, 0
9, 38550, Note_on_c, 3, 46, 84
9, 38571, Note_on_c, 3, 46, 0
9, 38580, Note_on_c, 3, 46, 84
9, 38601, Note_on_c, 3, 46, 0
9, 38610, Note_on_c, 3, 46, 84
9, 38631, Note_on_c, 3, 46, 0
9, 38640, Note_on_c, 3, 46, 84
9, 38759, Note_on_c, 3, 46, 0
9, 38759, End_track
10, 0, Start_track
10, 0, Title_t, "French Horn in B-flat "
10, 0, MIDI_port, 0
10, 0, Program_c, 4, 60
10, 0, Control_c, 4, 7, 96
10, 0, Control_c, 4, 10, 45
10, 0, Control_c, 4, 11, 127
10, 0, Note_on_c, 4, 65, 44
10, 0, Note_on_c, 4, 53, 44
10, 44, Note_on_c, 4, 65, 0
10, 44, Note_on_c, 4, 53, 0
10, 60, Note_on_c, 4, 65, 44
10, 60, Note_on_c, 4, 53, 44
10, 104, Note_on_c, 4, 65, 0
10, 104, Note_on_c, 4, 53, 0
10, 120, Note_on_c, 4, 53, 44
10, 120, Note_on_c, 4, 65, 44
10, 164, Note_on_c, 4, 53, 0
10, 164, Note_on_c, 4, 65, 0
10, 180, Note_on_c, 4, 65, 44
10, 180, Note_on_c, 4, 53, 44
10, 224, Note_on_c, 4, 65, 0
10, 224, Note_on_c, 4, 53, 0
10, 240, Note_on_c, 4, 65, 44
10, 240, Note_on_c, 4, 53, 44
10, 284, Note_on_c, 4, 65, 0
10, 284, Note_on_c, 4, 53, 0
10, 300, Note_on_c, 4, 65, 44
10, 300, Note_on_c, 4, 53, 44
10, 344, Note_on_c, 4, 65, 0
10, 344, Note_on_c, 4, 53, 0
10, 360, Note_on_c, 4, 53, 44
10, 360, Note_on_c, 4, 65, 44
10, 404, Note_on_c, 4, 53, 0
10, 404, Note_on_c, 4, 65, 0
10, 420, Note_on_c, 4, 65, 44
10, 420, Note_on_c, 4, 53, 44
10, 464, Note_on_c, 4, 65, 0
10, 464, Note_on_c, 4, 53, 0
10, 480, Note_on_c, 4, 53, 44
10, 480, Note_on_c, 4, 65, 44
10, 524, Note_on_c, 4, 53, 0
10, 524, Note_on_c, 4, 65, 0
10, 540, Note_on_c, 4, 53, 44
10, 540, Note_on_c, 4, 65, 44
10, 584, Note_on_c, 4, 53, 0
10, 584, Note_on_c, 4, 65, 0
10, 600, Note_on_c, 4, 65, 44
10, 600, Note_on_c, 4, 53, 44
10, 644, Note_on_c, 4, 65, 0
10, 644, Note_on_c, 4, 53, 0
10, 660, Note_on_c, 4, 65, 44
10, 660, Note_on_c, 4, 53, 44
10, 704, Note_on_c, 4, 65, 0
10, 704, Note_on_c, 4, 53, 0
10, 720, Note_on_c, 4, 53, 44
10, 720, Note_on_c, 4, 65, 44
10, 764, Note_on_c, 4, 53, 0
10, 764, Note_on_c, 4, 65, 0
10, 780, Note_on_c, 4, 53, 44
10, 780, Note_on_c, 4, 65, 44
10, 824, Note_on_c, 4, 53, 0
10, 824, Note_on_c, 4, 65, 0
10, 840, Note_on_c, 4, 65, 44
10, 840, Note_on_c, 4, 53, 44
10, 884, Note_on_c, 4, 65, 0
10, 884, Note_on_c, 4, 53, 0
10, 900, Note_on_c, 4, 65, 44
10, 900, Note_on_c, 4, 53, 44
10, 944, Note_on_c, 4, 65, 0
10, 944, Note_on_c, 4, 53, 0
10, 960, Note_on_c, 4, 65, 44
10, 960, Note_on_c, 4, 53, 44
10, 1004, Note_on_c, 4, 65, 0
10, 1004, Note_on_c, 4, 53, 0
10, 1020, Note_on_c, 4, 53, 44
10, 1020, Note_on_c, 4, 65, 44
10, 1064, Note_on_c, 4, 53, 0
10, 1064, Note_on_c, 4, 65, 0
10, 1080, Note_on_c, 4, 65, 44
10, 1080, Note_on_c, 4, 53, 44
10, 1124, Note_on_c, 4, 65, 0
10, 1124, Note_on_c, 4, 53, 0
10, 1140, Note_on_c, 4, 65, 44
10, 1140, Note_on_c, 4, 53, 44
10, 1184, Note_on_c, 4, 65, 0
10, 1184, Note_on_c, 4, 53, 0
10, 1200, Note_on_c, 4, 53, 44
10, 1200, Note_on_c, 4, 65, 44
10, 1244, Note_on_c, 4, 53, 0
10, 1244, Note_on_c, 4, 65, 0
10, 1260, Note_on_c, 4, 53, 44
10, 1260, Note_on_c, 4, 65, 44
10, 1304, Note_on_c, 4, 53, 0
10, 1304, Note_on_c, 4, 65, 0
10, 1320, Note_on_c, 4, 65, 44
10, 1320, Note_on_c, 4, 53, 44
10, 1364, Note_on_c, 4, 65, 0
10, 1364, Note_on_c, 4, 53, 0
10, 1380, Note_on_c, 4, 53, 44
10, 1380, Note_on_c, 4, 65, 44
10, 1424, Note_on_c, 4, 53, 0
10, 1424, Note_on_c, 4, 65, 0
10, 1440, Note_on_c, 4, 53, 44
10, 1440, Note_on_c, 4, 65, 44
10, 1484, Note_on_c, 4, 53, 0
10, 1484, Note_on_c, 4, 65, 0
10, 1500, Note_on_c, 4, 53, 44
10, 1500, Note_on_c, 4, 65, 44
10, 1544, Note_on_c, 4, 53, 0
10, 1544, Note_on_c, 4, 65, 0
10, 1560, Note_on_c, 4, 65, 44
10, 1560, Note_on_c, 4, 53, 44
10, 1604, Note_on_c, 4, 65, 0
10, 1604, Note_on_c, 4, 53, 0
10, 1620, Note_on_c, 4, 62, 44
10, 1620, Note_on_c, 4, 50, 44
10, 1664, Note_on_c, 4, 62, 0
10, 1664, Note_on_c, 4, 50, 0
10, 1680, Note_on_c, 4, 50, 44
10, 1680, Note_on_c, 4, 62, 44
10, 1724, Note_on_c, 4, 50, 0
10, 1724, Note_on_c, 4, 62, 0
10, 1740, Note_on_c, 4, 62, 44
10, 1740, Note_on_c, 4, 50, 44
10, 1784, Note_on_c, 4, 62, 0
10, 1784, Note_on_c, 4, 50, 0
10, 1800, Note_on_c, 4, 62, 44
10, 1800, Note_on_c, 4, 50, 44
10, 1844, Note_on_c, 4, 62, 0
10, 1844, Note_on_c, 4, 50, 0
10, 1860, Note_on_c, 4, 50, 44
10, 1860, Note_on_c, 4, 62, 44
10, 1904, Note_on_c, 4, 50, 0
10, 1904, Note_on_c, 4, 62, 0
10, 1920, Note_on_c, 4, 62, 44
10, 1920, Note_on_c, 4, 50, 44
10, 1964, Note_on_c, 4, 62, 0
10, 1964, Note_on_c, 4, 50, 0
10, 1980, Note_on_c, 4, 50, 44
10, 1980, Note_on_c, 4, 62, 44
10, 2024, Note_on_c, 4, 50, 0
10, 2024, Note_on_c, 4, 62, 0
10, 2040, Note_on_c, 4, 50, 44
10, 2040, Note_on_c, 4, 62, 44
10, 2084, Note_on_c, 4, 50, 0
10, 2084, Note_on_c, 4, 62, 0
10, 2100, Note_on_c, 4, 62, 44
10, 2100, Note_on_c, 4, 50, 44
10, 2144, Note_on_c, 4, 62, 0
10, 2144, Note_on_c, 4, 50, 0
10, 2160, Note_on_c, 4, 62, 44
10, 2160, Note_on_c, 4, 50, 44
10, 2204, Note_on_c, 4, 62, 0
10, 2204, Note_on_c, 4, 50, 0
10, 2220, Note_on_c, 4, 50, 44
10, 2220, Note_on_c, 4, 62, 44
10, 2264, Note_on_c, 4, 50, 0
10, 2264, Note_on_c, 4, 62, 0
10, 2280, Note_on_c, 4, 62, 44
10, 2280, Note_on_c, 4, 50, 44
10, 2324, Note_on_c, 4, 62, 0
10, 2324, Note_on_c, 4, 50, 0
10, 2340, Note_on_c, 4, 62, 44
10, 2340, Note_on_c, 4, 50, 44
10, 2384, Note_on_c, 4, 62, 0
10, 2384, Note_on_c, 4, 50, 0
10, 2400, Note_on_c, 4, 62, 44
10, 2400, Note_on_c, 4, 50, 44
10, 2444, Note_on_c, 4, 62, 0
10, 2444, Note_on_c, 4, 50, 0
10, 2460, Note_on_c, 4, 62, 44
10, 2460, Note_on_c, 4, 50, 44
10, 2504, Note_on_c, 4, 62, 0
10, 2504, Note_on_c, 4, 50, 0
10, 2520, Note_on_c, 4, 50, 44
10, 2520, Note_on_c, 4, 62, 44
10, 2564, Note_on_c, 4, 50, 0
10, 2564, Note_on_c, 4, 62, 0
10, 2580, Note_on_c, 4, 62, 44
10, 2580, Note_on_c, 4, 50, 44
10, 2624, Note_on_c, 4, 62, 0
10, 2624, Note_on_c, 4, 50, 0
10, 2640, Note_on_c, 4, 62, 44
10, 2640, Note_on_c, 4, 50, 44
10, 2684, Note_on_c, 4, 62, 0
10, 2684, Note_on_c, 4, 50, 0
10, 2700, Note_on_c, 4, 50, 44
10, 2700, Note_on_c, 4, 62, 44
10, 2744, Note_on_c, 4, 50, 0
10, 2744, Note_on_c, 4, 62, 0
10, 2760, Note_on_c, 4, 50, 44
10, 2760, Note_on_c, 4, 62, 44
10, 2804, Note_on_c, 4, 50, 0
10, 2804, Note_on_c, 4, 62, 0
10, 2820, Note_on_c, 4, 62, 44
10, 2820, Note_on_c, 4, 50, 44
10, 2864, Note_on_c, 4, 62, 0
10, 2864, Note_on_c, 4, 50, 0
10, 2880, Note_on_c, 4, 62, 44
10, 2880, Note_on_c, 4, 50, 44
10, 2924, Note_on_c, 4, 62, 0
10, 2924, Note_on_c, 4, 50, 0
10, 2940, Note_on_c, 4, 50, 44
10, 2940, Note_on_c, 4, 62, 44
10, 2984, Note_on_c, 4, 50, 0
10, 2984, Note_on_c, 4, 62, 0
10, 3000, Note_on_c, 4, 62, 44
10, 3000, Note_on_c, 4, 50, 44
10, 3044, Note_on_c, 4, 62, 0
10, 3044, Note_on_c, 4, 50, 0
10, 3060, Note_on_c, 4, 62, 44
10, 3060, Note_on_c, 4, 50, 44
10, 3104, Note_on_c, 4, 62, 0
10, 3104, Note_on_c, 4, 50, 0
10, 3120, Note_on_c, 4, 50, 44
10, 3120, Note_on_c, 4, 62, 44
10, 3164, Note_on_c, 4, 50, 0
10, 3164, Note_on_c, 4, 62, 0
10, 3180, Note_on_c, 4, 62, 44
10, 3180, Note_on_c, 4, 50, 44
10, 3224, Note_on_c, 4, 62, 0
10, 3224, Note_on_c, 4, 50, 0
10, 3240, Note_on_c, 4, 62, 44
10, 3240, Note_on_c, 4, 50, 44
10, 3284, Note_on_c, 4, 62, 0
10, 3284, Note_on_c, 4, 50, 0
10, 3300, Note_on_c, 4, 58, 44
10, 3300, Note_on_c, 4, 62, 44
10, 3344, Note_on_c, 4, 58, 0
10, 3344, Note_on_c, 4, 62, 0
10, 3360, Note_on_c, 4, 63, 44
10, 3360, Note_on_c, 4, 58, 44
10, 3404, Note_on_c, 4, 63, 0
10, 3404, Note_on_c, 4, 58, 0
10, 3420, Note_on_c, 4, 63, 44
10, 3420, Note_on_c, 4, 58, 44
10, 3464, Note_on_c, 4, 63, 0
10, 3464, Note_on_c, 4, 58, 0
10, 3480, Note_on_c, 4, 58, 44
10, 3480, Note_on_c, 4, 63, 44
10, 3524, Note_on_c, 4, 58, 0
10, 3524, Note_on_c, 4, 63, 0
10, 3540, Note_on_c, 4, 58, 44
10, 3540, Note_on_c, 4, 63, 44
10, 3584, Note_on_c, 4, 58, 0
10, 3584, Note_on_c, 4, 63, 0
10, 3600, Note_on_c, 4, 63, 44
10, 3600, Note_on_c, 4, 58, 44
10, 3644, Note_on_c, 4, 63, 0
10, 3644, Note_on_c, 4, 58, 0
10, 3660, Note_on_c, 4, 58, 44
10, 3660, Note_on_c, 4, 63, 44
10, 3704, Note_on_c, 4, 58, 0
10, 3704, Note_on_c, 4, 63, 0
10, 3720, Note_on_c, 4, 58, 44
10, 3720, Note_on_c, 4, 63, 44
10, 3764, Note_on_c, 4, 58, 0
10, 3764, Note_on_c, 4, 63, 0
10, 3780, Note_on_c, 4, 58, 44
10, 3780, Note_on_c, 4, 63, 44
10, 3824, Note_on_c, 4, 58, 0
10, 3824, Note_on_c, 4, 63, 0
10, 3840, Note_on_c, 4, 63, 44
10, 3840, Note_on_c, 4, 58, 44
10, 3884, Note_on_c, 4, 63, 0
10, 3884, Note_on_c, 4, 58, 0
10, 3900, Note_on_c, 4, 63, 44
10, 3900, Note_on_c, 4, 58, 44
10, 3944, Note_on_c, 4, 63, 0
10, 3944, Note_on_c, 4, 58, 0
10, 3960, Note_on_c, 4, 58, 44
10, 3960, Note_on_c, 4, 63, 44
10, 4004, Note_on_c, 4, 58, 0
10, 4004, Note_on_c, 4, 63, 0
10, 4020, Note_on_c, 4, 65, 84
10, 4020, Note_on_c, 4, 53, 84
10, 4251, Note_on_c, 4, 65, 0
10, 4251, Note_on_c, 4, 53, 0
10, 4260, Note_on_c, 4, 65, 52
10, 4260, Note_on_c, 4, 53, 52
10, 4304, Note_on_c, 4, 65, 0
10, 4304, Note_on_c, 4, 53, 0
10, 4320, Note_on_c, 4, 53, 52
10, 4320, Note_on_c, 4, 65, 52
10, 4364, Note_on_c, 4, 53, 0
10, 4364, Note_on_c, 4, 65, 0
10, 4380, Note_on_c, 4, 65, 52
10, 4380, Note_on_c, 4, 53, 52
10, 4424, Note_on_c, 4, 65, 0
10, 4424, Note_on_c, 4, 53, 0
10, 4440, Note_on_c, 4, 53, 52
10, 4440, Note_on_c, 4, 65, 52
10, 4484, Note_on_c, 4, 53, 0
10, 4484, Note_on_c, 4, 65, 0
10, 4500, Note_on_c, 4, 53, 52
10, 4500, Note_on_c, 4, 65, 52
10, 4544, Note_on_c, 4, 53, 0
10, 4544, Note_on_c, 4, 65, 0
10, 4560, Note_on_c, 4, 65, 52
10, 4560, Note_on_c, 4, 53, 52
10, 4604, Note_on_c, 4, 65, 0
10, 4604, Note_on_c, 4, 53, 0
10, 4620, Note_on_c, 4, 65, 52
10, 4620, Note_on_c, 4, 53, 52
10, 4664, Note_on_c, 4, 65, 0
10, 4664, Note_on_c, 4, 53, 0
10, 4680, Note_on_c, 4, 53, 52
10, 4680, Note_on_c, 4, 65, 52
10, 4724, Note_on_c, 4, 53, 0
10, 4724, Note_on_c, 4, 65, 0
10, 4740, Note_on_c, 4, 65, 52
10, 4740, Note_on_c, 4, 53, 52
10, 4784, Note_on_c, 4, 65, 0
10, 4784, Note_on_c, 4, 53, 0
10, 4800, Note_on_c, 4, 65, 52
10, 4800, Note_on_c, 4, 53, 52
10, 4844, Note_on_c, 4, 65, 0
10, 4844, Note_on_c, 4, 53, 0
10, 4860, Note_on_c, 4, 65, 52
10, 4860, Note_on_c, 4, 53, 52
10, 4904, Note_on_c, 4, 65, 0
10, 4904, Note_on_c, 4, 53, 0
10, 4920, Note_on_c, 4, 65, 52
10, 4920, Note_on_c, 4, 53, 52
10, 4964, Note_on_c, 4, 65, 0
10, 4964, Note_on_c, 4, 53, 0
10, 4980, Note_on_c, 4, 53, 52
10, 4980, Note_on_c, 4, 65, 52
10, 5024, Note_on_c, 4, 53, 0
10, 5024, Note_on_c, 4, 65, 0
10, 5040, Note_on_c, 4, 65, 52
10, 5040, Note_on_c, 4, 53, 52
10, 5084, Note_on_c, 4, 65, 0
10, 5084, Note_on_c, 4, 53, 0
10, 5100, Note_on_c, 4, 65, 52
10, 5100, Note_on_c, 4, 53, 52
10, 5144, Note_on_c, 4, 65, 0
10, 5144, Note_on_c, 4, 53, 0
10, 5160, Note_on_c, 4, 53, 52
10, 5160, Note_on_c, 4, 65, 52
10, 5204, Note_on_c, 4, 53, 0
10, 5204, Note_on_c, 4, 65, 0
10, 5220, Note_on_c, 4, 53, 52
10, 5220, Note_on_c, 4, 65, 52
10, 5264, Note_on_c, 4, 53, 0
10, 5264, Note_on_c, 4, 65, 0
10, 5280, Note_on_c, 4, 65, 52
10, 5280, Note_on_c, 4, 53, 52
10, 5324, Note_on_c, 4, 65, 0
10, 5324, Note_on_c, 4, 53, 0
10, 5340, Note_on_c, 4, 53, 52
10, 5340, Note_on_c, 4, 65, 52
10, 5384, Note_on_c, 4, 53, 0
10, 5384, Note_on_c, 4, 65, 0
10, 5400, Note_on_c, 4, 53, 52
10, 5400, Note_on_c, 4, 65, 52
10, 5444, Note_on_c, 4, 53, 0
10, 5444, Note_on_c, 4, 65, 0
10, 5460, Note_on_c, 4, 53, 52
10, 5460, Note_on_c, 4, 65, 52
10, 5504, Note_on_c, 4, 53, 0
10, 5504, Note_on_c, 4, 65, 0
10, 5520, Note_on_c, 4, 65, 52
10, 5520, Note_on_c, 4, 53, 52
10, 5564, Note_on_c, 4, 65, 0
10, 5564, Note_on_c, 4, 53, 0
10, 5580, Note_on_c, 4, 65, 52
10, 5580, Note_on_c, 4, 53, 52
10, 5624, Note_on_c, 4, 65, 0
10, 5624, Note_on_c, 4, 53, 0
10, 5640, Note_on_c, 4, 53, 52
10, 5640, Note_on_c, 4, 65, 52
10, 5684, Note_on_c, 4, 53, 0
10, 5684, Note_on_c, 4, 65, 0
10, 5700, Note_on_c, 4, 65, 52
10, 5700, Note_on_c, 4, 53, 52
10, 5744, Note_on_c, 4, 65, 0
10, 5744, Note_on_c, 4, 53, 0
10, 5760, Note_on_c, 4, 65, 52
10, 5760, Note_on_c, 4, 53, 52
10, 5804, Note_on_c, 4, 65, 0
10, 5804, Note_on_c, 4, 53, 0
10, 5820, Note_on_c, 4, 53, 52
10, 5820, Note_on_c, 4, 65, 52
10, 5864, Note_on_c, 4, 53, 0
10, 5864, Note_on_c, 4, 65, 0
10, 5880, Note_on_c, 4, 65, 52
10, 5880, Note_on_c, 4, 53, 52
10, 5924, Note_on_c, 4, 65, 0
10, 5924, Note_on_c, 4, 53, 0
10, 5940, Note_on_c, 4, 65, 52
10, 5940, Note_on_c, 4, 53, 52
10, 5984, Note_on_c, 4, 65, 0
10, 5984, Note_on_c, 4, 53, 0
10, 6000, Note_on_c, 4, 53, 52
10, 6000, Note_on_c, 4, 65, 52
10, 6044, Note_on_c, 4, 53, 0
10, 6044, Note_on_c, 4, 65, 0
10, 6060, Note_on_c, 4, 46, 52
10, 6060, Note_on_c, 4, 58, 52
10, 6104, Note_on_c, 4, 46, 0
10, 6104, Note_on_c, 4, 58, 0
10, 6120, Note_on_c, 4, 58, 52
10, 6120, Note_on_c, 4, 46, 52
10, 6164, Note_on_c, 4, 58, 0
10, 6164, Note_on_c, 4, 46, 0
10, 6180, Note_on_c, 4, 46, 76
10, 6180, Note_on_c, 4, 58, 76
10, 6224, Note_on_c, 4, 46, 0
10, 6224, Note_on_c, 4, 58, 0
10, 6240, Note_on_c, 4, 58, 76
10, 6240, Note_on_c, 4, 46, 76
10, 6284, Note_on_c, 4, 58, 0
10, 6284, Note_on_c, 4, 46, 0
10, 6300, Note_on_c, 4, 58, 84
10, 6300, Note_on_c, 4, 46, 84
10, 6344, Note_on_c, 4, 58, 0
10, 6344, Note_on_c, 4, 46, 0
10, 6360, Note_on_c, 4, 46, 76
10, 6360, Note_on_c, 4, 58, 76
10, 6404, Note_on_c, 4, 46, 0
10, 6404, Note_on_c, 4, 58, 0
10, 6420, Note_on_c, 4, 46, 84
10, 6420, Note_on_c, 4, 58, 84
10, 6464, Note_on_c, 4, 46, 0
10, 6464, Note_on_c, 4, 58, 0
10, 6480, Note_on_c, 4, 58, 76
10, 6480, Note_on_c, 4, 46, 76
10, 6599, Note_on_c, 4, 58, 0
10, 6599, Note_on_c, 4, 46, 0
10, 6660, Note_on_c, 4, 53, 52
10, 6660, Note_on_c, 4, 65, 52
10, 6704, Note_on_c, 4, 53, 0
10, 6704, Note_on_c, 4, 65, 0
10, 6720, Note_on_c, 4, 58, 52
10, 6720, Note_on_c, 4, 46, 52
10, 6764, Note_on_c, 4, 58, 0
10, 6764, Note_on_c, 4, 46, 0
10, 6780, Note_on_c, 4, 65, 52
10, 6780, Note_on_c, 4, 53, 52
10, 6824, Note_on_c, 4, 65, 0
10, 6824, Note_on_c, 4, 53, 0
10, 6840, Note_on_c, 4, 46, 52
10, 6840, Note_on_c, 4, 58, 52
10, 6884, Note_on_c, 4, 46, 0
10, 6884, Note_on_c, 4, 58, 0
10, 6900, Note_on_c, 4, 53, 52
10, 6900, Note_on_c, 4, 65, 52
10, 6944, Note_on_c, 4, 53, 0
10, 6944, Note_on_c, 4, 65, 0
10, 6960, Note_on_c, 4, 58, 52
10, 6960, Note_on_c, 4, 46, 52
10, 7004, Note_on_c, 4, 58, 0
10, 7004, Note_on_c, 4, 46, 0
10, 7020, Note_on_c, 4, 46, 52
10, 7020, Note_on_c, 4, 58, 52
10, 7064, Note_on_c, 4, 46, 0
10, 7064, Note_on_c, 4, 58, 0
10, 7080, Note_on_c, 4, 46, 52
10, 7080, Note_on_c, 4, 58, 52
10, 7124, Note_on_c, 4, 46, 0
10, 7124, Note_on_c, 4, 58, 0
10, 7140, Note_on_c, 4, 46, 76
10, 7140, Note_on_c, 4, 58, 76
10, 7184, Note_on_c, 4, 46, 0
10, 7184, Note_on_c, 4, 58, 0
10, 7200, Note_on_c, 4, 58, 76
10, 7200, Note_on_c, 4, 46, 76
10, 7244, Note_on_c, 4, 58, 0
10, 7244, Note_on_c, 4, 46, 0
10, 7260, Note_on_c, 4, 58, 84
10, 7260, Note_on_c, 4, 46, 84
10, 7304, Note_on_c, 4, 58, 0
10, 7304, Note_on_c, 4, 46, 0
10, 7320, Note_on_c, 4, 46, 76
10, 7320, Note_on_c, 4, 58, 76
10, 7364, Note_on_c, 4, 46, 0
10, 7364, Note_on_c, 4, 58, 0
10, 7380, Note_on_c, 4, 58, 84
10, 7380, Note_on_c, 4, 46, 84
10, 7424, Note_on_c, 4, 58, 0
10, 7424, Note_on_c, 4, 46, 0
10, 7440, Note_on_c, 4, 58, 76
10, 7440, Note_on_c, 4, 46, 76
10, 7559, Note_on_c, 4, 58, 0
10, 7559, Note_on_c, 4, 46, 0
10, 7620, Note_on_c, 4, 46, 76
10, 7620, Note_on_c, 4, 58, 76
10, 7675, Note_on_c, 4, 46, 0
10, 7675, Note_on_c, 4, 58, 0
10, 7680, Note_on_c, 4, 58, 72
10, 7680, Note_on_c, 4, 46, 72
10, 7799, Note_on_c, 4, 58, 0
10, 7799, Note_on_c, 4, 46, 0
10, 7860, Note_on_c, 4, 58, 60
10, 7860, Note_on_c, 4, 46, 60
10, 7915, Note_on_c, 4, 58, 0
10, 7915, Note_on_c, 4, 46, 0
10, 7920, Note_on_c, 4, 46, 56
10, 7920, Note_on_c, 4, 58, 56
10, 8039, Note_on_c, 4, 46, 0
10, 8039, Note_on_c, 4, 58, 0
10, 8100, Note_on_c, 4, 46, 44
10, 8100, Note_on_c, 4, 58, 44
10, 8125, Note_on_c, 4, 46, 0
10, 8125, Note_on_c, 4, 58, 0
10, 8130, Note_on_c, 4, 46, 44
10, 8130, Note_on_c, 4, 58, 44
10, 8155, Note_on_c, 4, 46, 0
10, 8155, Note_on_c, 4, 58, 0
10, 8160, Note_on_c, 4, 58, 44
10, 8160, Note_on_c, 4, 46, 44
10, 8204, Note_on_c, 4, 58, 0
10, 8204, Note_on_c, 4, 46, 0
10, 8220, Note_on_c, 4, 58, 44
10, 8220, Note_on_c, 4, 62, 44
10, 8264, Note_on_c, 4, 58, 0
10, 8264, Note_on_c, 4, 62, 0
10, 8280, Note_on_c, 4, 58, 46
10, 8280, Note_on_c, 4, 62, 46
10, 8324, Note_on_c, 4, 58, 0
10, 8324, Note_on_c, 4, 62, 0
10, 8340, Note_on_c, 4, 62, 48
10, 8340, Note_on_c, 4, 58, 48
10, 8384, Note_on_c, 4, 62, 0
10, 8384, Note_on_c, 4, 58, 0
10, 8400, Note_on_c, 4, 58, 50
10, 8400, Note_on_c, 4, 62, 50
10, 8444, Note_on_c, 4, 58, 0
10, 8444, Note_on_c, 4, 62, 0
10, 8460, Note_on_c, 4, 58, 52
10, 8460, Note_on_c, 4, 62, 52
10, 8504, Note_on_c, 4, 58, 0
10, 8504, Note_on_c, 4, 62, 0
10, 8520, Note_on_c, 4, 62, 54
10, 8520, Note_on_c, 4, 58, 54
10, 8564, Note_on_c, 4, 62, 0
10, 8564, Note_on_c, 4, 58, 0
10, 8580, Note_on_c, 4, 62, 56
10, 8580, Note_on_c, 4, 58, 56
10, 8624, Note_on_c, 4, 62, 0
10, 8624, Note_on_c, 4, 58, 0
10, 8640, Note_on_c, 4, 58, 58
10, 8640, Note_on_c, 4, 60, 58
10, 8684, Note_on_c, 4, 58, 0
10, 8684, Note_on_c, 4, 60, 0
10, 8700, Note_on_c, 4, 58, 61
10, 8700, Note_on_c, 4, 60, 61
10, 8744, Note_on_c, 4, 58, 0
10, 8744, Note_on_c, 4, 60, 0
10, 8760, Note_on_c, 4, 58, 63
10, 8760, Note_on_c, 4, 60, 63
10, 8804, Note_on_c, 4, 58, 0
10, 8804, Note_on_c, 4, 60, 0
10, 8820, Note_on_c, 4, 60, 65
10, 8820, Note_on_c, 4, 58, 65
10, 8864, Note_on_c, 4, 60, 0
10, 8864, Note_on_c, 4, 58, 0
10, 8880, Note_on_c, 4, 60, 67
10, 8880, Note_on_c, 4, 58, 67
10, 8924, Note_on_c, 4, 60, 0
10, 8924, Note_on_c, 4, 58, 0
10, 8940, Note_on_c, 4, 60, 69
10, 8940, Note_on_c, 4, 58, 69
10, 8984, Note_on_c, 4, 60, 0
10, 8984, Note_on_c, 4, 58, 0
10, 9000, Note_on_c, 4, 60, 71
10, 9000, Note_on_c, 4, 58, 71
10, 9044, Note_on_c, 4, 60, 0
10, 9044, Note_on_c, 4, 58, 0
10, 9060, Note_on_c, 4, 58, 73
10, 9060, Note_on_c, 4, 60, 73
10, 9104, Note_on_c, 4, 58, 0
10, 9104, Note_on_c, 4, 60, 0
10, 9120, Note_on_c, 4, 58, 76
10, 9120, Note_on_c, 4, 60, 76
10, 9164, Note_on_c, 4, 58, 0
10, 9164, Note_on_c, 4, 60, 0
10, 9180, Note_on_c, 4, 60, 76
10, 9224, Note_on_c, 4, 60, 0
10, 9240, Note_on_c, 4, 60, 76
10, 9284, Note_on_c, 4, 60, 0
10, 9300, Note_on_c, 4, 60, 76
10, 9344, Note_on_c, 4, 60, 0
10, 9360, Note_on_c, 4, 60, 76
10, 9404, Note_on_c, 4, 60, 0
10, 9420, Note_on_c, 4, 60, 76
10, 9464, Note_on_c, 4, 60, 0
10, 9480, Note_on_c, 4, 60, 76
10, 9524, Note_on_c, 4, 60, 0
10, 9540, Note_on_c, 4, 60, 76
10, 9584, Note_on_c, 4, 60, 0
10, 9600, Note_on_c, 4, 60, 76
10, 9644, Note_on_c, 4, 60, 0
10, 9660, Note_on_c, 4, 60, 76
10, 9704, Note_on_c, 4, 60, 0
10, 9720, Note_on_c, 4, 60, 76
10, 9764, Note_on_c, 4, 60, 0
10, 9780, Note_on_c, 4, 60, 76
10, 9824, Note_on_c, 4, 60, 0
10, 9840, Note_on_c, 4, 60, 76
10, 9884, Note_on_c, 4, 60, 0
10, 9900, Note_on_c, 4, 60, 76
10, 9944, Note_on_c, 4, 60, 0
10, 9960, Note_on_c, 4, 60, 76
10, 10004, Note_on_c, 4, 60, 0
10, 10020, Note_on_c, 4, 60, 76
10, 10064, Note_on_c, 4, 60, 0
10, 10080, Note_on_c, 4, 60, 76
10, 10124, Note_on_c, 4, 60, 0
10, 10140, Note_on_c, 4, 60, 76
10, 10184, Note_on_c, 4, 60, 0
10, 10200, Note_on_c, 4, 60, 76
10, 10244, Note_on_c, 4, 60, 0
10, 10260, Note_on_c, 4, 60, 76
10, 10304, Note_on_c, 4, 60, 0
10, 10320, Note_on_c, 4, 60, 76
10, 10364, Note_on_c, 4, 60, 0
10, 10380, Note_on_c, 4, 60, 76
10, 10424, Note_on_c, 4, 60, 0
10, 10440, Note_on_c, 4, 60, 76
10, 10484, Note_on_c, 4, 60, 0
10, 10500, Note_on_c, 4, 60, 76
10, 10544, Note_on_c, 4, 60, 0
10, 10560, Note_on_c, 4, 60, 76
10, 10604, Note_on_c, 4, 60, 0
10, 10620, Note_on_c, 4, 60, 76
10, 10664, Note_on_c, 4, 60, 0
10, 10680, Note_on_c, 4, 60, 76
10, 10724, Note_on_c, 4, 60, 0
10, 10740, Note_on_c, 4, 60, 76
10, 10784, Note_on_c, 4, 60, 0
10, 10800, Note_on_c, 4, 53, 84
10, 10800, Note_on_c, 4, 41, 84
10, 10889, Note_on_c, 4, 53, 0
10, 10889, Note_on_c, 4, 41, 0
10, 11760, Note_on_c, 4, 65, 84
10, 11760, Note_on_c, 4, 53, 84
10, 11819, Note_on_c, 4, 65, 0
10, 11819, Note_on_c, 4, 53, 0
10, 13260, Note_on_c, 4, 53, 44
10, 13260, Note_on_c, 4, 65, 44
10, 13304, Note_on_c, 4, 53, 0
10, 13304, Note_on_c, 4, 65, 0
10, 13320, Note_on_c, 4, 53, 44
10, 13320, Note_on_c, 4, 65, 44
10, 13364, Note_on_c, 4, 53, 0
10, 13364, Note_on_c, 4, 65, 0
10, 13500, Note_on_c, 4, 65, 44
10, 13500, Note_on_c, 4, 53, 44
10, 13544, Note_on_c, 4, 65, 0
10, 13544, Note_on_c, 4, 53, 0
10, 13560, Note_on_c, 4, 53, 44
10, 13560, Note_on_c, 4, 65, 44
10, 13604, Note_on_c, 4, 53, 0
10, 13604, Note_on_c, 4, 65, 0
10, 14220, Note_on_c, 4, 60, 50
10, 14331, Note_on_c, 4, 60, 0
10, 14340, Note_on_c, 4, 60, 52
10, 14399, Note_on_c, 4, 60, 0
10, 15165, Control_c, 4, 11, 119
10, 15180, Note_on_c, 4, 60, 64
10, 15210, Control_c, 4, 11, 122
10, 15255, Control_c, 4, 11, 124
10, 15291, Note_on_c, 4, 60, 0
10, 15300, Control_c, 4, 11, 127
10, 15300, Note_on_c, 4, 60, 52
10, 15355, Note_on_c, 4, 60, 0
10, 15360, Note_on_c, 4, 60, 52
10, 15404, Note_on_c, 4, 60, 0
10, 15420, Note_on_c, 4, 60, 52
10, 15464, Note_on_c, 4, 60, 0
10, 15480, Note_on_c, 4, 60, 52
10, 15524, Note_on_c, 4, 60, 0
10, 15540, Note_on_c, 4, 60, 52
10, 15584, Note_on_c, 4, 60, 0
10, 15600, Note_on_c, 4, 60, 52
10, 15600, Note_on_c, 4, 53, 52
10, 15719, Note_on_c, 4, 60, 0
10, 15719, Note_on_c, 4, 53, 0
10, 15780, Note_on_c, 4, 41, 52
10, 15780, Note_on_c, 4, 53, 52
10, 15899, Note_on_c, 4, 41, 0
10, 15899, Note_on_c, 4, 53, 0
10, 16020, Note_on_c, 4, 53, 52
10, 16020, Note_on_c, 4, 41, 52
10, 16139, Note_on_c, 4, 53, 0
10, 16139, Note_on_c, 4, 41, 0
10, 16260, Note_on_c, 4, 41, 52
10, 16260, Note_on_c, 4, 53, 52
10, 16379, Note_on_c, 4, 41, 0
10, 16379, Note_on_c, 4, 53, 0
10, 16500, Note_on_c, 4, 53, 52
10, 16500, Note_on_c, 4, 41, 52
10, 16619, Note_on_c, 4, 53, 0
10, 16619, Note_on_c, 4, 41, 0
10, 16740, Note_on_c, 4, 41, 52
10, 16740, Note_on_c, 4, 53, 52
10, 16859, Note_on_c, 4, 41, 0
10, 16859, Note_on_c, 4, 53, 0
10, 16980, Note_on_c, 4, 53, 52
10, 16980, Note_on_c, 4, 41, 52
10, 17099, Note_on_c, 4, 53, 0
10, 17099, Note_on_c, 4, 41, 0
10, 17220, Note_on_c, 4, 53, 52
10, 17220, Note_on_c, 4, 41, 52
10, 17331, Note_on_c, 4, 53, 0
10, 17331, Note_on_c, 4, 41, 0
10, 17340, Note_on_c, 4, 53, 55
10, 17340, Note_on_c, 4, 41, 55
10, 17451, Note_on_c, 4, 53, 0
10, 17451, Note_on_c, 4, 41, 0
10, 17460, Note_on_c, 4, 41, 59
10, 17460, Note_on_c, 4, 53, 59
10, 17571, Note_on_c, 4, 41, 0
10, 17571, Note_on_c, 4, 53, 0
10, 17580, Note_on_c, 4, 53, 62
10, 17580, Note_on_c, 4, 41, 62
10, 17691, Note_on_c, 4, 53, 0
10, 17691, Note_on_c, 4, 41, 0
10, 17700, Note_on_c, 4, 53, 66
10, 17700, Note_on_c, 4, 41, 66
10, 17811, Note_on_c, 4, 53, 0
10, 17811, Note_on_c, 4, 41, 0
10, 17820, Note_on_c, 4, 53, 68
10, 17820, Note_on_c, 4, 41, 68
10, 17931, Note_on_c, 4, 53, 0
10, 17931, Note_on_c, 4, 41, 0
10, 17940, Note_on_c, 4, 53, 64
10, 17940, Note_on_c, 4, 41, 64
10, 18051, Note_on_c, 4, 53, 0
10, 18051, Note_on_c, 4, 41, 0
10, 18060, Note_on_c, 4, 53, 59
10, 18060, Note_on_c, 4, 41, 59
10, 18171, Note_on_c, 4, 53, 0
10, 18171, Note_on_c, 4, 41, 0
10, 18180, Note_on_c, 4, 41, 54
10, 18180, Note_on_c, 4, 53, 54
10, 18291, Note_on_c, 4, 41, 0
10, 18291, Note_on_c, 4, 53, 0
10, 18300, Note_on_c, 4, 41, 49
10, 18300, Note_on_c, 4, 53, 49
10, 18411, Note_on_c, 4, 41, 0
10, 18411, Note_on_c, 4, 53, 0
10, 18420, Note_on_c, 4, 53, 44
10, 18420, Note_on_c, 4, 41, 44
10, 18531, Note_on_c, 4, 53, 0
10, 18531, Note_on_c, 4, 41, 0
10, 18540, Note_on_c, 4, 41, 44
10, 18540, Note_on_c, 4, 53, 44
10, 18651, Note_on_c, 4, 41, 0
10, 18651, Note_on_c, 4, 53, 0
10, 18660, Note_on_c, 4, 60, 44
10, 18660, Note_on_c, 4, 53, 44
10, 18719, Note_on_c, 4, 60, 0
10, 18719, Note_on_c, 4, 53, 0
10, 18720, Note_on_c, 4, 58, 44
10, 18720, Note_on_c, 4, 50, 44
10, 18775, Note_on_c, 4, 58, 0
10, 18775, Note_on_c, 4, 50, 0
10, 18780, Note_on_c, 4, 65, 44
10, 18780, Note_on_c, 4, 53, 44
10, 18824, Note_on_c, 4, 65, 0
10, 18824, Note_on_c, 4, 53, 0
10, 18840, Note_on_c, 4, 53, 44
10, 18840, Note_on_c, 4, 65, 44
10, 18884, Note_on_c, 4, 53, 0
10, 18884, Note_on_c, 4, 65, 0
10, 18900, Note_on_c, 4, 53, 44
10, 18900, Note_on_c, 4, 65, 44
10, 18944, Note_on_c, 4, 53, 0
10, 18944, Note_on_c, 4, 65, 0
10, 18960, Note_on_c, 4, 65, 44
10, 18960, Note_on_c, 4, 53, 44
10, 19004, Note_on_c, 4, 65, 0
10, 19004, Note_on_c, 4, 53, 0
10, 19020, Note_on_c, 4, 65, 44
10, 19020, Note_on_c, 4, 53, 44
10, 19064, Note_on_c, 4, 65, 0
10, 19064, Note_on_c, 4, 53, 0
10, 19080, Note_on_c, 4, 65, 44
10, 19080, Note_on_c, 4, 53, 44
10, 19124, Note_on_c, 4, 65, 0
10, 19124, Note_on_c, 4, 53, 0
10, 19140, Note_on_c, 4, 65, 44
10, 19140, Note_on_c, 4, 53, 44
10, 19184, Note_on_c, 4, 65, 0
10, 19184, Note_on_c, 4, 53, 0
10, 19200, Note_on_c, 4, 53, 44
10, 19200, Note_on_c, 4, 65, 44
10, 19244, Note_on_c, 4, 53, 0
10, 19244, Note_on_c, 4, 65, 0
10, 19260, Note_on_c, 4, 53, 44
10, 19260, Note_on_c, 4, 65, 44
10, 19304, Note_on_c, 4, 53, 0
10, 19304, Note_on_c, 4, 65, 0
10, 19320, Note_on_c, 4, 53, 44
10, 19320, Note_on_c, 4, 65, 44
10, 19364, Note_on_c, 4, 53, 0
10, 19364, Note_on_c, 4, 65, 0
10, 19380, Note_on_c, 4, 53, 44
10, 19380, Note_on_c, 4, 65, 44
10, 19424, Note_on_c, 4, 53, 0
10, 19424, Note_on_c, 4, 65, 0
10, 19440, Note_on_c, 4, 53, 44
10, 19440, Note_on_c, 4, 65, 44
10, 19484, Note_on_c, 4, 53, 0
10, 19484, Note_on_c, 4, 65, 0
10, 19500, Note_on_c, 4, 53, 44
10, 19500, Note_on_c, 4, 65, 44
10, 19544, Note_on_c, 4, 53, 0
10, 19544, Note_on_c, 4, 65, 0
10, 19560, Note_on_c, 4, 65, 44
10, 19560, Note_on_c, 4, 53, 44
10, 19604, Note_on_c, 4, 65, 0
10, 19604, Note_on_c, 4, 53, 0
10, 19620, Note_on_c, 4, 53, 44
10, 19620, Note_on_c, 4, 65, 44
10, 19664, Note_on_c, 4, 53, 0
10, 19664, Note_on_c, 4, 65, 0
10, 19680, Note_on_c, 4, 53, 44
10, 19680, Note_on_c, 4, 65, 44
10, 19724, Note_on_c, 4, 53, 0
10, 19724, Note_on_c, 4, 65, 0
10, 19740, Note_on_c, 4, 53, 44
10, 19740, Note_on_c, 4, 65, 44
10, 19784, Note_on_c, 4, 53, 0
10, 19784, Note_on_c, 4, 65, 0
10, 19800, Note_on_c, 4, 65, 44
10, 19800, Note_on_c, 4, 53, 44
10, 19844, Note_on_c, 4, 65, 0
10, 19844, Note_on_c, 4, 53, 0
10, 19860, Note_on_c, 4, 65, 44
10, 19860, Note_on_c, 4, 53, 44
10, 19904, Note_on_c, 4, 65, 0
10, 19904, Note_on_c, 4, 53, 0
10, 19920, Note_on_c, 4, 65, 44
10, 19920, Note_on_c, 4, 53, 44
10, 19964, Note_on_c, 4, 65, 0
10, 19964, Note_on_c, 4, 53, 0
10, 19980, Note_on_c, 4, 53, 44
10, 19980, Note_on_c, 4, 65, 44
10, 20024, Note_on_c, 4, 53, 0
10, 20024, Note_on_c, 4, 65, 0
10, 20040, Note_on_c, 4, 65, 44
10, 20040, Note_on_c, 4, 53, 44
10, 20084, Note_on_c, 4, 65, 0
10, 20084, Note_on_c, 4, 53, 0
10, 20100, Note_on_c, 4, 65, 44
10, 20100, Note_on_c, 4, 53, 44
10, 20144, Note_on_c, 4, 65, 0
10, 20144, Note_on_c, 4, 53, 0
10, 20160, Note_on_c, 4, 65, 44
10, 20160, Note_on_c, 4, 53, 44
10, 20204, Note_on_c, 4, 65, 0
10, 20204, Note_on_c, 4, 53, 0
10, 20220, Note_on_c, 4, 65, 44
10, 20220, Note_on_c, 4, 53, 44
10, 20264, Note_on_c, 4, 65, 0
10, 20264, Note_on_c, 4, 53, 0
10, 20280, Note_on_c, 4, 53, 44
10, 20280, Note_on_c, 4, 65, 44
10, 20324, Note_on_c, 4, 53, 0
10, 20324, Note_on_c, 4, 65, 0
10, 20340, Note_on_c, 4, 53, 44
10, 20340, Note_on_c, 4, 65, 44
10, 20384, Note_on_c, 4, 53, 0
10, 20384, Note_on_c, 4, 65, 0
10, 20400, Note_on_c, 4, 53, 44
10, 20400, Note_on_c, 4, 65, 44
10, 20444, Note_on_c, 4, 53, 0
10, 20444, Note_on_c, 4, 65, 0
10, 20460, Note_on_c, 4, 53, 44
10, 20460, Note_on_c, 4, 65, 44
10, 20504, Note_on_c, 4, 53, 0
10, 20504, Note_on_c, 4, 65, 0
10, 20520, Note_on_c, 4, 65, 44
10, 20520, Note_on_c, 4, 53, 44
10, 20564, Note_on_c, 4, 65, 0
10, 20564, Note_on_c, 4, 53, 0
10, 20580, Note_on_c, 4, 65, 44
10, 20580, Note_on_c, 4, 53, 44
10, 20624, Note_on_c, 4, 65, 0
10, 20624, Note_on_c, 4, 53, 0
10, 20640, Note_on_c, 4, 65, 44
10, 20640, Note_on_c, 4, 53, 44
10, 20684, Note_on_c, 4, 65, 0
10, 20684, Note_on_c, 4, 53, 0
10, 20700, Note_on_c, 4, 65, 44
10, 20700, Note_on_c, 4, 53, 44
10, 20744, Note_on_c, 4, 65, 0
10, 20744, Note_on_c, 4, 53, 0
10, 20760, Note_on_c, 4, 53, 44
10, 20760, Note_on_c, 4, 65, 44
10, 20804, Note_on_c, 4, 53, 0
10, 20804, Note_on_c, 4, 65, 0
10, 20820, Note_on_c, 4, 53, 44
10, 20820, Note_on_c, 4, 65, 44
10, 20864, Note_on_c, 4, 53, 0
10, 20864, Note_on_c, 4, 65, 0
10, 20880, Note_on_c, 4, 65, 44
10, 20880, Note_on_c, 4, 53, 44
10, 20924, Note_on_c, 4, 65, 0
10, 20924, Note_on_c, 4, 53, 0
10, 20940, Note_on_c, 4, 65, 44
10, 20940, Note_on_c, 4, 53, 44
10, 20984, Note_on_c, 4, 65, 0
10, 20984, Note_on_c, 4, 53, 0
10, 21000, Note_on_c, 4, 53, 44
10, 21000, Note_on_c, 4, 65, 44
10, 21044, Note_on_c, 4, 53, 0
10, 21044, Note_on_c, 4, 65, 0
10, 21060, Note_on_c, 4, 53, 44
10, 21060, Note_on_c, 4, 65, 44
10, 21104, Note_on_c, 4, 53, 0
10, 21104, Note_on_c, 4, 65, 0
10, 21120, Note_on_c, 4, 65, 44
10, 21120, Note_on_c, 4, 53, 44
10, 21164, Note_on_c, 4, 65, 0
10, 21164, Note_on_c, 4, 53, 0
10, 21180, Note_on_c, 4, 65, 44
10, 21180, Note_on_c, 4, 53, 44
10, 21224, Note_on_c, 4, 65, 0
10, 21224, Note_on_c, 4, 53, 0
10, 21240, Note_on_c, 4, 65, 44
10, 21240, Note_on_c, 4, 53, 44
10, 21284, Note_on_c, 4, 65, 0
10, 21284, Note_on_c, 4, 53, 0
10, 21300, Note_on_c, 4, 53, 44
10, 21300, Note_on_c, 4, 65, 44
10, 21344, Note_on_c, 4, 53, 0
10, 21344, Note_on_c, 4, 65, 0
10, 21360, Note_on_c, 4, 53, 44
10, 21360, Note_on_c, 4, 65, 44
10, 21404, Note_on_c, 4, 53, 0
10, 21404, Note_on_c, 4, 65, 0
10, 21420, Note_on_c, 4, 53, 44
10, 21420, Note_on_c, 4, 65, 44
10, 21464, Note_on_c, 4, 53, 0
10, 21464, Note_on_c, 4, 65, 0
10, 21480, Note_on_c, 4, 65, 44
10, 21480, Note_on_c, 4, 53, 44
10, 21524, Note_on_c, 4, 65, 0
10, 21524, Note_on_c, 4, 53, 0
10, 21540, Note_on_c, 4, 53, 44
10, 21540, Note_on_c, 4, 65, 44
10, 21584, Note_on_c, 4, 53, 0
10, 21584, Note_on_c, 4, 65, 0
10, 21600, Note_on_c, 4, 65, 44
10, 21600, Note_on_c, 4, 53, 44
10, 21644, Note_on_c, 4, 65, 0
10, 21644, Note_on_c, 4, 53, 0
10, 21660, Note_on_c, 4, 65, 44
10, 21660, Note_on_c, 4, 53, 44
10, 21704, Note_on_c, 4, 65, 0
10, 21704, Note_on_c, 4, 53, 0
10, 21720, Note_on_c, 4, 65, 44
10, 21720, Note_on_c, 4, 53, 44
10, 21764, Note_on_c, 4, 65, 0
10, 21764, Note_on_c, 4, 53, 0
10, 21780, Note_on_c, 4, 65, 44
10, 21780, Note_on_c, 4, 53, 44
10, 21824, Note_on_c, 4, 65, 0
10, 21824, Note_on_c, 4, 53, 0
10, 21840, Note_on_c, 4, 53, 44
10, 21840, Note_on_c, 4, 65, 44
10, 21884, Note_on_c, 4, 53, 0
10, 21884, Note_on_c, 4, 65, 0
10, 21900, Note_on_c, 4, 65, 44
10, 21900, Note_on_c, 4, 53, 44
10, 21944, Note_on_c, 4, 65, 0
10, 21944, Note_on_c, 4, 53, 0
10, 21960, Note_on_c, 4, 65, 44
10, 21960, Note_on_c, 4, 53, 44
10, 22004, Note_on_c, 4, 65, 0
10, 22004, Note_on_c, 4, 53, 0
10, 22020, Note_on_c, 4, 65, 44
10, 22020, Note_on_c, 4, 53, 44
10, 22064, Note_on_c, 4, 65, 0
10, 22064, Note_on_c, 4, 53, 0
10, 22080, Note_on_c, 4, 65, 44
10, 22080, Note_on_c, 4, 53, 44
10, 22124, Note_on_c, 4, 65, 0
10, 22124, Note_on_c, 4, 53, 0
10, 22140, Note_on_c, 4, 65, 44
10, 22140, Note_on_c, 4, 53, 44
10, 22184, Note_on_c, 4, 65, 0
10, 22184, Note_on_c, 4, 53, 0
10, 22200, Note_on_c, 4, 53, 44
10, 22200, Note_on_c, 4, 65, 44
10, 22244, Note_on_c, 4, 53, 0
10, 22244, Note_on_c, 4, 65, 0
10, 22260, Note_on_c, 4, 65, 44
10, 22260, Note_on_c, 4, 53, 44
10, 22304, Note_on_c, 4, 65, 0
10, 22304, Note_on_c, 4, 53, 0
10, 22320, Note_on_c, 4, 65, 44
10, 22320, Note_on_c, 4, 53, 44
10, 22364, Note_on_c, 4, 65, 0
10, 22364, Note_on_c, 4, 53, 0
10, 22380, Note_on_c, 4, 65, 44
10, 22380, Note_on_c, 4, 53, 44
10, 22424, Note_on_c, 4, 65, 0
10, 22424, Note_on_c, 4, 53, 0
10, 22440, Note_on_c, 4, 65, 44
10, 22440, Note_on_c, 4, 53, 44
10, 22484, Note_on_c, 4, 65, 0
10, 22484, Note_on_c, 4, 53, 0
10, 22500, Note_on_c, 4, 65, 44
10, 22500, Note_on_c, 4, 53, 44
10, 22544, Note_on_c, 4, 65, 0
10, 22544, Note_on_c, 4, 53, 0
10, 22560, Note_on_c, 4, 65, 44
10, 22560, Note_on_c, 4, 53, 44
10, 22604, Note_on_c, 4, 65, 0
10, 22604, Note_on_c, 4, 53, 0
10, 22620, Note_on_c, 4, 65, 44
10, 22620, Note_on_c, 4, 53, 44
10, 22664, Note_on_c, 4, 65, 0
10, 22664, Note_on_c, 4, 53, 0
10, 22680, Note_on_c, 4, 53, 44
10, 22680, Note_on_c, 4, 65, 44
10, 22724, Note_on_c, 4, 53, 0
10, 22724, Note_on_c, 4, 65, 0
10, 22740, Note_on_c, 4, 65, 44
10, 22740, Note_on_c, 4, 53, 44
10, 22784, Note_on_c, 4, 65, 0
10, 22784, Note_on_c, 4, 53, 0
10, 22800, Note_on_c, 4, 65, 44
10, 22800, Note_on_c, 4, 53, 44
10, 22844, Note_on_c, 4, 65, 0
10, 22844, Note_on_c, 4, 53, 0
10, 22860, Note_on_c, 4, 65, 46
10, 22860, Note_on_c, 4, 53, 46
10, 22904, Note_on_c, 4, 65, 0
10, 22904, Note_on_c, 4, 53, 0
10, 22920, Note_on_c, 4, 65, 49
10, 22920, Note_on_c, 4, 53, 49
10, 22964, Note_on_c, 4, 65, 0
10, 22964, Note_on_c, 4, 53, 0
10, 22980, Note_on_c, 4, 65, 52
10, 22980, Note_on_c, 4, 53, 52
10, 23024, Note_on_c, 4, 65, 0
10, 23024, Note_on_c, 4, 53, 0
10, 23040, Note_on_c, 4, 53, 54
10, 23040, Note_on_c, 4, 65, 54
10, 23084, Note_on_c, 4, 53, 0
10, 23084, Note_on_c, 4, 65, 0
10, 23100, Note_on_c, 4, 65, 57
10, 23100, Note_on_c, 4, 53, 57
10, 23144, Note_on_c, 4, 65, 0
10, 23144, Note_on_c, 4, 53, 0
10, 23160, Note_on_c, 4, 53, 60
10, 23160, Note_on_c, 4, 65, 60
10, 23204, Note_on_c, 4, 53, 0
10, 23204, Note_on_c, 4, 65, 0
10, 23220, Note_on_c, 4, 65, 62
10, 23220, Note_on_c, 4, 53, 62
10, 23264, Note_on_c, 4, 65, 0
10, 23264, Note_on_c, 4, 53, 0
10, 23280, Note_on_c, 4, 60, 65
10, 23399, Note_on_c, 4, 60, 0
10, 24300, Note_on_c, 4, 65, 76
10, 24300, Note_on_c, 4, 53, 76
10, 24344, Note_on_c, 4, 65, 0
10, 24344, Note_on_c, 4, 53, 0
10, 24360, Note_on_c, 4, 65, 76
10, 24360, Note_on_c, 4, 53, 76
10, 24404, Note_on_c, 4, 65, 0
10, 24404, Note_on_c, 4, 53, 0
10, 24420, Note_on_c, 4, 65, 76
10, 24420, Note_on_c, 4, 53, 76
10, 24464, Note_on_c, 4, 65, 0
10, 24464, Note_on_c, 4, 53, 0
10, 24480, Note_on_c, 4, 65, 76
10, 24480, Note_on_c, 4, 53, 76
10, 24524, Note_on_c, 4, 65, 0
10, 24524, Note_on_c, 4, 53, 0
10, 24540, Note_on_c, 4, 53, 76
10, 24540, Note_on_c, 4, 65, 76
10, 24584, Note_on_c, 4, 53, 0
10, 24584, Note_on_c, 4, 65, 0
10, 24600, Note_on_c, 4, 65, 76
10, 24600, Note_on_c, 4, 53, 76
10, 24644, Note_on_c, 4, 65, 0
10, 24644, Note_on_c, 4, 53, 0
10, 24660, Note_on_c, 4, 53, 76
10, 24660, Note_on_c, 4, 65, 76
10, 24704, Note_on_c, 4, 53, 0
10, 24704, Note_on_c, 4, 65, 0
10, 24720, Note_on_c, 4, 53, 76
10, 24720, Note_on_c, 4, 65, 76
10, 24764, Note_on_c, 4, 53, 0
10, 24764, Note_on_c, 4, 65, 0
10, 24780, Note_on_c, 4, 65, 76
10, 24780, Note_on_c, 4, 53, 76
10, 24824, Note_on_c, 4, 65, 0
10, 24824, Note_on_c, 4, 53, 0
10, 24840, Note_on_c, 4, 53, 76
10, 24840, Note_on_c, 4, 65, 76
10, 24884, Note_on_c, 4, 53, 0
10, 24884, Note_on_c, 4, 65, 0
10, 24900, Note_on_c, 4, 65, 76
10, 24900, Note_on_c, 4, 53, 76
10, 24944, Note_on_c, 4, 65, 0
10, 24944, Note_on_c, 4, 53, 0
10, 24960, Note_on_c, 4, 53, 76
10, 24960, Note_on_c, 4, 65, 76
10, 25004, Note_on_c, 4, 53, 0
10, 25004, Note_on_c, 4, 65, 0
10, 25020, Note_on_c, 4, 53, 76
10, 25020, Note_on_c, 4, 65, 76
10, 25064, Note_on_c, 4, 53, 0
10, 25064, Note_on_c, 4, 65, 0
10, 25080, Note_on_c, 4, 53, 76
10, 25080, Note_on_c, 4, 65, 76
10, 25124, Note_on_c, 4, 53, 0
10, 25124, Note_on_c, 4, 65, 0
10, 25140, Note_on_c, 4, 65, 76
10, 25140, Note_on_c, 4, 53, 76
10, 25184, Note_on_c, 4, 65, 0
10, 25184, Note_on_c, 4, 53, 0
10, 25200, Note_on_c, 4, 65, 76
10, 25200, Note_on_c, 4, 53, 76
10, 25244, Note_on_c, 4, 65, 0
10, 25244, Note_on_c, 4, 53, 0
10, 25260, Note_on_c, 4, 53, 76
10, 25260, Note_on_c, 4, 65, 76
10, 25304, Note_on_c, 4, 53, 0
10, 25304, Note_on_c, 4, 65, 0
10, 25320, Note_on_c, 4, 53, 76
10, 25320, Note_on_c, 4, 65, 76
10, 25364, Note_on_c, 4, 53, 0
10, 25364, Note_on_c, 4, 65, 0
10, 25380, Note_on_c, 4, 65, 76
10, 25380, Note_on_c, 4, 53, 76
10, 25424, Note_on_c, 4, 65, 0
10, 25424, Note_on_c, 4, 53, 0
10, 25440, Note_on_c, 4, 53, 76
10, 25440, Note_on_c, 4, 65, 76
10, 25484, Note_on_c, 4, 53, 0
10, 25484, Note_on_c, 4, 65, 0
10, 25500, Note_on_c, 4, 65, 76
10, 25500, Note_on_c, 4, 53, 76
10, 25544, Note_on_c, 4, 65, 0
10, 25544, Note_on_c, 4, 53, 0
10, 25560, Note_on_c, 4, 53, 76
10, 25560, Note_on_c, 4, 65, 76
10, 25604, Note_on_c, 4, 53, 0
10, 25604, Note_on_c, 4, 65, 0
10, 25620, Note_on_c, 4, 53, 76
10, 25620, Note_on_c, 4, 65, 76
10, 25664, Note_on_c, 4, 53, 0
10, 25664, Note_on_c, 4, 65, 0
10, 25680, Note_on_c, 4, 53, 76
10, 25680, Note_on_c, 4, 65, 76
10, 25724, Note_on_c, 4, 53, 0
10, 25724, Note_on_c, 4, 65, 0
10, 25740, Note_on_c, 4, 65, 76
10, 25740, Note_on_c, 4, 53, 76
10, 25784, Note_on_c, 4, 65, 0
10, 25784, Note_on_c, 4, 53, 0
10, 25800, Note_on_c, 4, 65, 76
10, 25800, Note_on_c, 4, 53, 76
10, 25844, Note_on_c, 4, 65, 0
10, 25844, Note_on_c, 4, 53, 0
10, 25860, Note_on_c, 4, 65, 76
10, 25860, Note_on_c, 4, 53, 76
10, 25904, Note_on_c, 4, 65, 0
10, 25904, Note_on_c, 4, 53, 0
10, 25920, Note_on_c, 4, 65, 76
10, 25920, Note_on_c, 4, 53, 76
10, 25964, Note_on_c, 4, 65, 0
10, 25964, Note_on_c, 4, 53, 0
10, 25980, Note_on_c, 4, 53, 76
10, 25980, Note_on_c, 4, 65, 76
10, 26024, Note_on_c, 4, 53, 0
10, 26024, Note_on_c, 4, 65, 0
10, 26040, Note_on_c, 4, 53, 76
10, 26040, Note_on_c, 4, 65, 76
10, 26084, Note_on_c, 4, 53, 0
10, 26084, Note_on_c, 4, 65, 0
10, 26100, Note_on_c, 4, 53, 76
10, 26100, Note_on_c, 4, 65, 76
10, 26144, Note_on_c, 4, 53, 0
10, 26144, Note_on_c, 4, 65, 0
10, 26160, Note_on_c, 4, 53, 76
10, 26160, Note_on_c, 4, 65, 76
10, 26204, Note_on_c, 4, 53, 0
10, 26204, Note_on_c, 4, 65, 0
10, 26220, Note_on_c, 4, 65, 76
10, 26220, Note_on_c, 4, 53, 76
10, 26264, Note_on_c, 4, 65, 0
10, 26264, Note_on_c, 4, 53, 0
10, 26280, Note_on_c, 4, 65, 76
10, 26280, Note_on_c, 4, 53, 76
10, 26324, Note_on_c, 4, 65, 0
10, 26324, Note_on_c, 4, 53, 0
10, 26340, Note_on_c, 4, 65, 76
10, 26340, Note_on_c, 4, 53, 76
10, 26384, Note_on_c, 4, 65, 0
10, 26384, Note_on_c, 4, 53, 0
10, 26400, Note_on_c, 4, 53, 76
10, 26400, Note_on_c, 4, 65, 76
10, 26444, Note_on_c, 4, 53, 0
10, 26444, Note_on_c, 4, 65, 0
10, 26460, Note_on_c, 4, 65, 76
10, 26460, Note_on_c, 4, 53, 76
10, 26504, Note_on_c, 4, 65, 0
10, 26504, Note_on_c, 4, 53, 0
10, 26520, Note_on_c, 4, 53, 76
10, 26520, Note_on_c, 4, 65, 76
10, 26564, Note_on_c, 4, 53, 0
10, 26564, Note_on_c, 4, 65, 0
10, 26580, Note_on_c, 4, 65, 76
10, 26580, Note_on_c, 4, 53, 76
10, 26624, Note_on_c, 4, 65, 0
10, 26624, Note_on_c, 4, 53, 0
10, 26640, Note_on_c, 4, 58, 84
10, 26640, Note_on_c, 4, 46, 84
10, 26759, Note_on_c, 4, 58, 0
10, 26759, Note_on_c, 4, 46, 0
10, 27600, Note_on_c, 4, 58, 84
10, 27600, Note_on_c, 4, 46, 84
10, 27644, Note_on_c, 4, 58, 0
10, 27644, Note_on_c, 4, 46, 0
10, 29880, Note_on_c, 4, 53, 53
10, 29880, Note_on_c, 4, 65, 53
10, 29939, Note_on_c, 4, 53, 0
10, 29939, Note_on_c, 4, 65, 0
10, 29940, Note_on_c, 4, 63, 54
10, 29940, Note_on_c, 4, 60, 54
10, 29999, Note_on_c, 4, 63, 0
10, 29999, Note_on_c, 4, 60, 0
10, 30000, Note_on_c, 4, 58, 54
10, 30000, Note_on_c, 4, 62, 54
10, 30059, Note_on_c, 4, 58, 0
10, 30059, Note_on_c, 4, 62, 0
10, 30060, Note_on_c, 4, 60, 55
10, 30060, Note_on_c, 4, 53, 55
10, 30119, Note_on_c, 4, 60, 0
10, 30119, Note_on_c, 4, 53, 0
10, 30120, Note_on_c, 4, 58, 56
10, 30120, Note_on_c, 4, 50, 56
10, 30179, Note_on_c, 4, 58, 0
10, 30179, Note_on_c, 4, 50, 0
10, 31080, Note_on_c, 4, 65, 67
10, 31080, Note_on_c, 4, 53, 67
10, 31139, Note_on_c, 4, 65, 0
10, 31139, Note_on_c, 4, 53, 0
10, 31140, Note_on_c, 4, 46, 52
10, 31140, Note_on_c, 4, 58, 52
10, 31169, Note_on_c, 4, 46, 0
10, 31169, Note_on_c, 4, 58, 0
10, 31170, Note_on_c, 4, 50, 52
10, 31170, Note_on_c, 4, 62, 52
10, 31195, Note_on_c, 4, 50, 0
10, 31195, Note_on_c, 4, 62, 0
10, 31200, Note_on_c, 4, 53, 52
10, 31200, Note_on_c, 4, 65, 52
10, 31244, Note_on_c, 4, 53, 0
10, 31244, Note_on_c, 4, 65, 0
10, 31260, Note_on_c, 4, 60, 52
10, 31260, Note_on_c, 4, 53, 52
10, 31304, Note_on_c, 4, 60, 0
10, 31304, Note_on_c, 4, 53, 0
10, 31320, Note_on_c, 4, 60, 52
10, 31320, Note_on_c, 4, 53, 52
10, 31364, Note_on_c, 4, 60, 0
10, 31364, Note_on_c, 4, 53, 0
10, 31380, Note_on_c, 4, 60, 52
10, 31380, Note_on_c, 4, 53, 52
10, 31424, Note_on_c, 4, 60, 0
10, 31424, Note_on_c, 4, 53, 0
10, 31440, Note_on_c, 4, 58, 52
10, 31440, Note_on_c, 4, 46, 52
10, 31499, Note_on_c, 4, 58, 0
10, 31499, Note_on_c, 4, 46, 0
10, 31620, Note_on_c, 4, 58, 52
10, 31620, Note_on_c, 4, 46, 52
10, 31739, Note_on_c, 4, 58, 0
10, 31739, Note_on_c, 4, 46, 0
10, 31860, Note_on_c, 4, 46, 52
10, 31860, Note_on_c, 4, 58, 52
10, 31979, Note_on_c, 4, 46, 0
10, 31979, Note_on_c, 4, 58, 0
10, 32100, Note_on_c, 4, 58, 52
10, 32100, Note_on_c, 4, 46, 52
10, 32219, Note_on_c, 4, 58, 0
10, 32219, Note_on_c, 4, 46, 0
10, 32340, Note_on_c, 4, 58, 52
10, 32340, Note_on_c, 4, 46, 52
10, 32459, Note_on_c, 4, 58, 0
10, 32459, Note_on_c, 4, 46, 0
10, 32580, Note_on_c, 4, 46, 52
10, 32580, Note_on_c, 4, 58, 52
10, 32699, Note_on_c, 4, 46, 0
10, 32699, Note_on_c, 4, 58, 0
10, 32820, Note_on_c, 4, 58, 52
10, 32820, Note_on_c, 4, 46, 52
10, 32939, Note_on_c, 4, 58, 0
10, 32939, Note_on_c, 4, 46, 0
10, 33060, Control_c, 4, 11, 96
10, 33060, Note_on_c, 4, 58, 68
10, 33060, Note_on_c, 4, 46, 68
10, 33105, Control_c, 4, 11, 99
10, 33150, Control_c, 4, 11, 101
10, 33171, Note_on_c, 4, 58, 0
10, 33171, Note_on_c, 4, 46, 0
10, 33180, Note_on_c, 4, 58, 68
10, 33180, Note_on_c, 4, 46, 68
10, 33195, Control_c, 4, 11, 104
10, 33240, Control_c, 4, 11, 106
10, 33285, Control_c, 4, 11, 109
10, 33291, Note_on_c, 4, 58, 0
10, 33291, Note_on_c, 4, 46, 0
10, 33300, Note_on_c, 4, 58, 68
10, 33300, Note_on_c, 4, 46, 68
10, 33330, Control_c, 4, 11, 112
10, 33375, Control_c, 4, 11, 114
10, 33411, Note_on_c, 4, 58, 0
10, 33411, Note_on_c, 4, 46, 0
10, 33420, Control_c, 4, 11, 117
10, 33420, Note_on_c, 4, 46, 68
10, 33420, Note_on_c, 4, 58, 68
10, 33465, Control_c, 4, 11, 119
10, 33510, Control_c, 4, 11, 122
10, 33531, Note_on_c, 4, 46, 0
10, 33531, Note_on_c, 4, 58, 0
10, 33540, Note_on_c, 4, 58, 68
10, 33540, Note_on_c, 4, 46, 68
10, 33555, Control_c, 4, 11, 124
10, 33600, Control_c, 4, 11, 127
10, 33651, Note_on_c, 4, 58, 0
10, 33651, Note_on_c, 4, 46, 0
10, 33660, Note_on_c, 4, 58, 68
10, 33660, Note_on_c, 4, 46, 68
10, 33660, Control_c, 4, 11, 127
10, 33695, Control_c, 4, 11, 124
10, 33730, Control_c, 4, 11, 122
10, 33765, Control_c, 4, 11, 119
10, 33771, Note_on_c, 4, 58, 0
10, 33771, Note_on_c, 4, 46, 0
10, 33780, Note_on_c, 4, 46, 68
10, 33780, Note_on_c, 4, 58, 68
10, 33800, Control_c, 4, 11, 117
10, 33835, Control_c, 4, 11, 114
10, 33870, Control_c, 4, 11, 112
10, 33891, Note_on_c, 4, 46, 0
10, 33891, Note_on_c, 4, 58, 0
10, 33900, Note_on_c, 4, 46, 68
10, 33900, Note_on_c, 4, 58, 68
10, 33905, Control_c, 4, 11, 109
10, 33940, Control_c, 4, 11, 106
10, 33975, Control_c, 4, 11, 104
10, 34010, Control_c, 4, 11, 101
10, 34011, Note_on_c, 4, 46, 0
10, 34011, Note_on_c, 4, 58, 0
10, 34020, Note_on_c, 4, 46, 68
10, 34020, Note_on_c, 4, 58, 68
10, 34045, Control_c, 4, 11, 99
10, 34131, Note_on_c, 4, 46, 0
10, 34131, Note_on_c, 4, 58, 0
10, 34140, Control_c, 4, 11, 96
10, 34140, Note_on_c, 4, 58, 68
10, 34140, Note_on_c, 4, 46, 68
10, 34251, Note_on_c, 4, 58, 0
10, 34251, Note_on_c, 4, 46, 0
10, 34260, Note_on_c, 4, 58, 60
10, 34260, Note_on_c, 4, 46, 60
10, 34371, Note_on_c, 4, 58, 0
10, 34371, Note_on_c, 4, 46, 0
10, 34380, Note_on_c, 4, 58, 60
10, 34380, Note_on_c, 4, 46, 60
10, 34491, Note_on_c, 4, 58, 0
10, 34491, Note_on_c, 4, 46, 0
10, 34500, Note_on_c, 4, 58, 60
10, 34500, Note_on_c, 4, 46, 60
10, 34739, Note_on_c, 4, 58, 0
10, 34739, Note_on_c, 4, 46, 0
10, 35040, Control_c, 4, 11, 127
10, 35220, Note_on_c, 4, 58, 44
10, 35220, Note_on_c, 4, 46, 44
10, 35241, Note_on_c, 4, 58, 0
10, 35241, Note_on_c, 4, 46, 0
10, 35250, Note_on_c, 4, 46, 44
10, 35250, Note_on_c, 4, 58, 44
10, 35271, Note_on_c, 4, 46, 0
10, 35271, Note_on_c, 4, 58, 0
10, 35280, Note_on_c, 4, 46, 44
10, 35280, Note_on_c, 4, 58, 44
10, 35324, Note_on_c, 4, 46, 0
10, 35324, Note_on_c, 4, 58, 0
10, 35340, Note_on_c, 4, 58, 44
10, 35340, Note_on_c, 4, 46, 44
10, 35361, Note_on_c, 4, 58, 0
10, 35361, Note_on_c, 4, 46, 0
10, 35370, Note_on_c, 4, 46, 44
10, 35370, Note_on_c, 4, 58, 44
10, 35391, Note_on_c, 4, 46, 0
10, 35391, Note_on_c, 4, 58, 0
10, 35400, Note_on_c, 4, 58, 44
10, 35400, Note_on_c, 4, 46, 44
10, 35444, Note_on_c, 4, 58, 0
10, 35444, Note_on_c, 4, 46, 0
10, 35460, Note_on_c, 4, 58, 44
10, 35460, Note_on_c, 4, 46, 44
10, 35481, Note_on_c, 4, 58, 0
10, 35481, Note_on_c, 4, 46, 0
10, 35490, Note_on_c, 4, 46, 44
10, 35490, Note_on_c, 4, 58, 44
10, 35511, Note_on_c, 4, 46, 0
10, 35511, Note_on_c, 4, 58, 0
10, 35520, Note_on_c, 4, 46, 44
10, 35520, Note_on_c, 4, 58, 44
10, 35541, Note_on_c, 4, 46, 0
10, 35541, Note_on_c, 4, 58, 0
10, 35550, Note_on_c, 4, 58, 44
10, 35550, Note_on_c, 4, 46, 44
10, 35571, Note_on_c, 4, 58, 0
10, 35571, Note_on_c, 4, 46, 0
10, 35580, Note_on_c, 4, 46, 44
10, 35580, Note_on_c, 4, 58, 44
10, 35601, Note_on_c, 4, 46, 0
10, 35601, Note_on_c, 4, 58, 0
10, 35610, Note_on_c, 4, 58, 44
10, 35610, Note_on_c, 4, 46, 44
10, 35631, Note_on_c, 4, 58, 0
10, 35631, Note_on_c, 4, 46, 0
10, 35640, Note_on_c, 4, 46, 44
10, 35640, Note_on_c, 4, 58, 44
10, 35699, Note_on_c, 4, 46, 0
10, 35699, Note_on_c, 4, 58, 0
10, 36000, Note_on_c, 4, 58, 44
10, 36021, Note_on_c, 4, 58, 0
10, 36030, Note_on_c, 4, 58, 44
10, 36051, Note_on_c, 4, 58, 0
10, 36060, Note_on_c, 4, 58, 44
10, 36081, Note_on_c, 4, 58, 0
10, 36090, Note_on_c, 4, 58, 44
10, 36111, Note_on_c, 4, 58, 0
10, 36120, Note_on_c, 4, 58, 44
10, 36179, Note_on_c, 4, 58, 0
10, 36480, Note_on_c, 4, 46, 84
10, 36480, Note_on_c, 4, 58, 84
10, 36501, Note_on_c, 4, 46, 0
10, 36501, Note_on_c, 4, 58, 0
10, 36510, Note_on_c, 4, 58, 84
10, 36510, Note_on_c, 4, 46, 84
10, 36531, Note_on_c, 4, 58, 0
10, 36531, Note_on_c, 4, 46, 0
10, 36540, Note_on_c, 4, 58, 84
10, 36540, Note_on_c, 4, 46, 84
10, 36561, Note_on_c, 4, 58, 0
10, 36561, Note_on_c, 4, 46, 0
10, 36570, Note_on_c, 4, 46, 84
10, 36570, Note_on_c, 4, 58, 84
10, 36591, Note_on_c, 4, 46, 0
10, 36591, Note_on_c, 4, 58, 0
10, 36600, Note_on_c, 4, 46, 84
10, 36600, Note_on_c, 4, 58, 84
10, 36659, Note_on_c, 4, 46, 0
10, 36659, Note_on_c, 4, 58, 0
10, 36960, Note_on_c, 4, 58, 84
10, 36981, Note_on_c, 4, 58, 0
10, 36990, Note_on_c, 4, 58, 84
10, 37011, Note_on_c, 4, 58, 0
10, 37020, Note_on_c, 4, 58, 84
10, 37041, Note_on_c, 4, 58, 0
10, 37050, Note_on_c, 4, 58, 84
10, 37071, Note_on_c, 4, 58, 0
10, 37080, Note_on_c, 4, 58, 84
10, 37139, Note_on_c, 4, 58, 0
10, 37920, Note_on_c, 4, 65, 44
10, 37920, Note_on_c, 4, 53, 44
10, 37979, Note_on_c, 4, 65, 0
10, 37979, Note_on_c, 4, 53, 0
10, 38010, Note_on_c, 4, 53, 51
10, 38010, Note_on_c, 4, 65, 51
10, 38035, Note_on_c, 4, 53, 0
10, 38035, Note_on_c, 4, 65, 0
10, 38040, Note_on_c, 4, 65, 54
10, 38040, Note_on_c, 4, 53, 54
10, 38099, Note_on_c, 4, 65, 0
10, 38099, Note_on_c, 4, 53, 0
10, 38130, Note_on_c, 4, 53, 61
10, 38130, Note_on_c, 4, 65, 61
10, 38155, Note_on_c, 4, 53, 0
10, 38155, Note_on_c, 4, 65, 0
10, 38160, Note_on_c, 4, 53, 64
10, 38160, Note_on_c, 4, 65, 64
10, 38219, Note_on_c, 4, 53, 0
10, 38219, Note_on_c, 4, 65, 0
10, 38250, Note_on_c, 4, 65, 71
10, 38250, Note_on_c, 4, 53, 71
10, 38275, Note_on_c, 4, 65, 0
10, 38275, Note_on_c, 4, 53, 0
10, 38280, Note_on_c, 4, 65, 74
10, 38280, Note_on_c, 4, 53, 74
10, 38339, Note_on_c, 4, 65, 0
10, 38339, Note_on_c, 4, 53, 0
10, 38370, Note_on_c, 4, 65, 81
10, 38370, Note_on_c, 4, 53, 81
10, 38395, Note_on_c, 4, 65, 0
10, 38395, Note_on_c, 4, 53, 0
10, 38400, Note_on_c, 4, 58, 84
10, 38400, Note_on_c, 4, 46, 84
10, 38421, Note_on_c, 4, 58, 0
10, 38421, Note_on_c, 4, 46, 0
10, 38430, Note_on_c, 4, 46, 84
10, 38430, Note_on_c, 4, 58, 84
10, 38451, Note_on_c, 4, 46, 0
10, 38451, Note_on_c, 4, 58, 0
10, 38460, Note_on_c, 4, 58, 84
10, 38460, Note_on_c, 4, 46, 84
10, 38481, Note_on_c, 4, 58, 0
10, 38481, Note_on_c, 4, 46, 0
10, 38490, Note_on_c, 4, 46, 84
10, 38490, Note_on_c, 4, 58, 84
10, 38511, Note_on_c, 4, 46, 0
10, 38511, Note_on_c, 4, 58, 0
10, 38520, Note_on_c, 4, 58, 84
10, 38520, Note_on_c, 4, 46, 84
10, 38541, Note_on_c, 4, 58, 0
10, 38541, Note_on_c, 4, 46, 0
10, 38550, Note_on_c, 4, 58, 84
10, 38550, Note_on_c, 4, 46, 84
10, 38571, Note_on_c, 4, 58, 0
10, 38571, Note_on_c, 4, 46, 0
10, 38580, Note_on_c, 4, 46, 84
10, 38580, Note_on_c, 4, 58, 84
10, 38601, Note_on_c, 4, 46, 0
10, 38601, Note_on_c, 4, 58, 0
10, 38610, Note_on_c, 4, 58, 84
10, 38610, Note_on_c, 4, 46, 84
10, 38631, Note_on_c, 4, 58, 0
10, 38631, Note_on_c, 4, 46, 0
10, 38640, Note_on_c, 4, 46, 84
10, 38640, Note_on_c, 4, 58, 84
10, 38759, Note_on_c, 4, 46, 0
10, 38759, Note_on_c, 4, 58, 0
10, 38759, End_track
11, 0, Start_track
11, 0, Title_t, "Violin I"
11, 0, MIDI_port, 0
11, 0, Program_c, 11, 48
11, 0, Control_c, 11, 7, 96
11, 0, Control_c, 11, 10, 48
11, 0, Control_c, 11, 11, 127
11, 420, Note_on_c, 11, 76, 44
11, 441, Note_on_c, 11, 76, 0
11, 450, Note_on_c, 11, 79, 44
11, 471, Note_on_c, 11, 79, 0
11, 480, Note_on_c, 11, 77, 44
11, 524, Note_on_c, 11, 77, 0
11, 540, Note_on_c, 11, 76, 44
11, 561, Note_on_c, 11, 76, 0
11, 570, Note_on_c, 11, 79, 44
11, 591, Note_on_c, 11, 79, 0
11, 600, Note_on_c, 11, 77, 44
11, 644, Note_on_c, 11, 77, 0
11, 660, Note_on_c, 11, 76, 44
11, 681, Note_on_c, 11, 76, 0
11, 690, Note_on_c, 11, 79, 44
11, 711, Note_on_c, 11, 79, 0
11, 720, Note_on_c, 11, 77, 44
11, 899, Note_on_c, 11, 77, 0
11, 900, Note_on_c, 11, 74, 44
11, 955, Note_on_c, 11, 74, 0
11, 960, Note_on_c, 11, 74, 44
11, 989, Note_on_c, 11, 74, 0
11, 990, Note_on_c, 11, 72, 44
11, 1011, Note_on_c, 11, 72, 0
11, 1020, Note_on_c, 11, 72, 44
11, 1041, Note_on_c, 11, 72, 0
11, 1050, Note_on_c, 11, 74, 44
11, 1071, Note_on_c, 11, 74, 0
11, 1080, Note_on_c, 11, 75, 44
11, 1124, Note_on_c, 11, 75, 0
11, 1140, Note_on_c, 11, 72, 44
11, 1161, Note_on_c, 11, 72, 0
11, 1170, Note_on_c, 11, 74, 44
11, 1191, Note_on_c, 11, 74, 0
11, 1200, Note_on_c, 11, 70, 44
11, 1319, Note_on_c, 11, 70, 0
11, 2100, Note_on_c, 11, 73, 44
11, 2121, Note_on_c, 11, 73, 0
11, 2130, Note_on_c, 11, 75, 44
11, 2151, Note_on_c, 11, 75, 0
11, 2160, Note_on_c, 11, 74, 44
11, 2204, Note_on_c, 11, 74, 0
11, 2220, Note_on_c, 11, 73, 44
11, 2241, Note_on_c, 11, 73, 0
11, 2250, Note_on_c, 11, 75, 44
11, 2271, Note_on_c, 11, 75, 0
11, 2280, Note_on_c, 11, 74, 44
11, 2324, Note_on_c, 11, 74, 0
11, 2340, Note_on_c, 11, 73, 44
11, 2361, Note_on_c, 11, 73, 0
11, 2370, Note_on_c, 11, 75, 44
11, 2391, Note_on_c, 11, 75, 0
11, 2400, Note_on_c, 11, 74, 44
11, 2579, Note_on_c, 11, 74, 0
11, 2580, Note_on_c, 11, 82, 44
11, 2635, Note_on_c, 11, 82, 0
11, 2640, Note_on_c, 11, 82, 44
11, 2669, Note_on_c, 11, 82, 0
11, 2670, Note_on_c, 11, 81, 44
11, 2695, Note_on_c, 11, 81, 0
11, 2700, Note_on_c, 11, 81, 44
11, 2721, Note_on_c, 11, 81, 0
11, 2730, Note_on_c, 11, 82, 44
11, 2751, Note_on_c, 11, 82, 0
11, 2760, Note_on_c, 11, 84, 44
11, 2804, Note_on_c, 11, 84, 0
11, 2820, Note_on_c, 11, 81, 44
11, 2841, Note_on_c, 11, 81, 0
11, 2850, Note_on_c, 11, 82, 44
11, 2871, Note_on_c, 11, 82, 0
11, 2880, Note_on_c, 11, 79, 44
11, 2999, Note_on_c, 11, 79, 0
11, 3780, Note_on_c, 11, 81, 44
11, 3801, Note_on_c, 11, 81, 0
11, 3810, Note_on_c, 11, 84, 44
11, 3831, Note_on_c, 11, 84, 0
11, 3840, Note_on_c, 11, 82, 44
11, 3884, Note_on_c, 11, 82, 0
11, 3900, Note_on_c, 11, 81, 44
11, 3921, Note_on_c, 11, 81, 0
11, 3930, Note_on_c, 11, 84, 44
11, 3951, Note_on_c, 11, 84, 0
11, 3960, Note_on_c, 11, 82, 44
11, 4004, Note_on_c, 11, 82, 0
11, 4020, Note_on_c, 11, 81, 84
11, 4041, Note_on_c, 11, 81, 0
11, 4050, Note_on_c, 11, 84, 84
11, 4071, Note_on_c, 11, 84, 0
11, 4080, Note_on_c, 11, 87, 92
11, 4109, Note_on_c, 11, 87, 0
11, 4110, Note_on_c, 11, 87, 84
11, 4251, Note_on_c, 11, 87, 0
11, 4260, Note_on_c, 11, 84, 52
11, 4281, Note_on_c, 11, 84, 0
11, 4290, Note_on_c, 11, 82, 52
11, 4311, Note_on_c, 11, 82, 0
11, 4320, Note_on_c, 11, 81, 52
11, 4364, Note_on_c, 11, 81, 0
11, 4380, Note_on_c, 11, 82, 52
11, 4401, Note_on_c, 11, 82, 0
11, 4410, Note_on_c, 11, 84, 52
11, 4431, Note_on_c, 11, 84, 0
11, 4440, Note_on_c, 11, 77, 52
11, 4484, Note_on_c, 11, 77, 0
11, 4500, Note_on_c, 11, 79, 52
11, 4521, Note_on_c, 11, 79, 0
11, 4530, Note_on_c, 11, 81, 52
11, 4551, Note_on_c, 11, 81, 0
11, 4560, Note_on_c, 11, 82, 52
11, 4679, Note_on_c, 11, 82, 0
11, 4740, Note_on_c, 11, 77, 52
11, 4761, Note_on_c, 11, 77, 0
11, 4770, Note_on_c, 11, 79, 52
11, 4791, Note_on_c, 11, 79, 0
11, 4800, Note_on_c, 11, 72, 52
11, 4889, Note_on_c, 11, 72, 0
11, 4980, Note_on_c, 11, 75, 52
11, 5001, Note_on_c, 11, 75, 0
11, 5010, Note_on_c, 11, 77, 52
11, 5031, Note_on_c, 11, 77, 0
11, 5040, Note_on_c, 11, 74, 52
11, 5129, Note_on_c, 11, 74, 0
11, 5220, Note_on_c, 11, 74, 52
11, 5241, Note_on_c, 11, 74, 0
11, 5250, Note_on_c, 11, 75, 52
11, 5271, Note_on_c, 11, 75, 0
11, 5280, Note_on_c, 11, 72, 52
11, 5324, Note_on_c, 11, 72, 0
11, 5340, Note_on_c, 11, 72, 52
11, 5361, Note_on_c, 11, 72, 0
11, 5370, Note_on_c, 11, 74, 52
11, 5391, Note_on_c, 11, 74, 0
11, 5400, Note_on_c, 11, 72, 52
11, 5444, Note_on_c, 11, 72, 0
11, 5460, Note_on_c, 11, 72, 52
11, 5481, Note_on_c, 11, 72, 0
11, 5490, Note_on_c, 11, 74, 52
11, 5511, Note_on_c, 11, 74, 0
11, 5520, Note_on_c, 11, 70, 52
11, 5639, Note_on_c, 11, 70, 0
11, 5700, Note_on_c, 11, 77, 52
11, 5721, Note_on_c, 11, 77, 0
11, 5730, Note_on_c, 11, 79, 52
11, 5751, Note_on_c, 11, 79, 0
11, 5760, Note_on_c, 11, 79, 52
11, 5789, Note_on_c, 11, 79, 0
11, 5790, Note_on_c, 11, 72, 52
11, 5819, Note_on_c, 11, 72, 0
11, 5940, Note_on_c, 11, 75, 52
11, 5961, Note_on_c, 11, 75, 0
11, 5970, Note_on_c, 11, 77, 52
11, 5991, Note_on_c, 11, 77, 0
11, 6000, Note_on_c, 11, 77, 52
11, 6029, Note_on_c, 11, 77, 0
11, 6030, Note_on_c, 11, 70, 52
11, 6059, Note_on_c, 11, 70, 0
11, 6180, Note_on_c, 11, 79, 76
11, 6201, Note_on_c, 11, 79, 0
11, 6210, Note_on_c, 11, 81, 76
11, 6231, Note_on_c, 11, 81, 0
11, 6240, Note_on_c, 11, 77, 76
11, 6284, Note_on_c, 11, 77, 0
11, 6300, Note_on_c, 11, 79, 84
11, 6321, Note_on_c, 11, 79, 0
11, 6330, Note_on_c, 11, 81, 76
11, 6351, Note_on_c, 11, 81, 0
11, 6360, Note_on_c, 11, 77, 76
11, 6404, Note_on_c, 11, 77, 0
11, 6420, Note_on_c, 11, 79, 84
11, 6441, Note_on_c, 11, 79, 0
11, 6450, Note_on_c, 11, 81, 76
11, 6471, Note_on_c, 11, 81, 0
11, 6480, Note_on_c, 11, 77, 76
11, 6599, Note_on_c, 11, 77, 0
11, 6660, Note_on_c, 11, 72, 52
11, 6681, Note_on_c, 11, 72, 0
11, 6690, Note_on_c, 11, 74, 52
11, 6711, Note_on_c, 11, 74, 0
11, 6720, Note_on_c, 11, 70, 52
11, 6775, Note_on_c, 11, 70, 0
11, 6780, Note_on_c, 11, 72, 52
11, 6805, Note_on_c, 11, 72, 0
11, 6810, Note_on_c, 11, 74, 52
11, 6835, Note_on_c, 11, 74, 0
11, 6840, Note_on_c, 11, 70, 52
11, 6895, Note_on_c, 11, 70, 0
11, 6900, Note_on_c, 11, 72, 52
11, 6925, Note_on_c, 11, 72, 0
11, 6930, Note_on_c, 11, 74, 52
11, 6955, Note_on_c, 11, 74, 0
11, 6960, Note_on_c, 11, 70, 52
11, 7079, Note_on_c, 11, 70, 0
11, 7140, Note_on_c, 11, 79, 76
11, 7165, Note_on_c, 11, 79, 0
11, 7170, Note_on_c, 11, 81, 76
11, 7195, Note_on_c, 11, 81, 0
11, 7200, Note_on_c, 11, 77, 76
11, 7255, Note_on_c, 11, 77, 0
11, 7260, Note_on_c, 11, 79, 84
11, 7285, Note_on_c, 11, 79, 0
11, 7290, Note_on_c, 11, 81, 76
11, 7315, Note_on_c, 11, 81, 0
11, 7320, Note_on_c, 11, 77, 76
11, 7375, Note_on_c, 11, 77, 0
11, 7380, Note_on_c, 11, 79, 84
11, 7405, Note_on_c, 11, 79, 0
11, 7410, Note_on_c, 11, 81, 76
11, 7435, Note_on_c, 11, 81, 0
11, 7440, Note_on_c, 11, 77, 76
11, 7559, Note_on_c, 11, 77, 0
11, 7620, Note_on_c, 11, 79, 76
11, 7645, Note_on_c, 11, 79, 0
11, 7650, Note_on_c, 11, 81, 75
11, 7675, Note_on_c, 11, 81, 0
11, 7680, Note_on_c, 11, 77, 73
11, 7799, Note_on_c, 11, 77, 0
11, 7860, Note_on_c, 11, 79, 62
11, 7885, Note_on_c, 11, 79, 0
11, 7890, Note_on_c, 11, 81, 60
11, 7915, Note_on_c, 11, 81, 0
11, 7920, Note_on_c, 11, 77, 59
11, 8039, Note_on_c, 11, 77, 0
11, 8580, Note_on_c, 11, 81, 62
11, 8601, Note_on_c, 11, 81, 0
11, 8610, Note_on_c, 11, 84, 63
11, 8631, Note_on_c, 11, 84, 0
11, 8640, Note_on_c, 11, 82, 64
11, 8729, Note_on_c, 11, 82, 0
11, 9060, Note_on_c, 11, 81, 74
11, 9081, Note_on_c, 11, 81, 0
11, 9090, Note_on_c, 11, 84, 75
11, 9111, Note_on_c, 11, 84, 0
11, 9120, Note_on_c, 11, 82, 76
11, 9291, Note_on_c, 11, 82, 0
11, 9300, Note_on_c, 11, 79, 76
11, 9321, Note_on_c, 11, 79, 0
11, 9360, Note_on_c, 11, 81, 84
11, 9389, Note_on_c, 11, 81, 0
11, 9390, Note_on_c, 11, 81, 76
11, 9531, Note_on_c, 11, 81, 0
11, 9540, Note_on_c, 11, 77, 76
11, 9561, Note_on_c, 11, 77, 0
11, 9600, Note_on_c, 11, 79, 76
11, 9621, Note_on_c, 11, 79, 0
11, 9660, Note_on_c, 11, 76, 76
11, 9681, Note_on_c, 11, 76, 0
11, 9720, Note_on_c, 11, 72, 76
11, 9741, Note_on_c, 11, 72, 0
11, 9780, Note_on_c, 11, 76, 76
11, 9801, Note_on_c, 11, 76, 0
11, 9840, Note_on_c, 11, 77, 76
11, 9861, Note_on_c, 11, 77, 0
11, 9900, Note_on_c, 11, 81, 76
11, 9921, Note_on_c, 11, 81, 0
11, 9960, Note_on_c, 11, 84, 76
11, 9981, Note_on_c, 11, 84, 0
11, 10020, Note_on_c, 11, 81, 76
11, 10041, Note_on_c, 11, 81, 0
11, 10080, Note_on_c, 11, 82, 76
11, 10135, Note_on_c, 11, 82, 0
11, 10140, Note_on_c, 11, 82, 84
11, 10251, Note_on_c, 11, 82, 0
11, 10260, Note_on_c, 11, 79, 76
11, 10274, Note_on_c, 11, 79, 0
11, 10275, Note_on_c, 11, 81, 76
11, 10289, Note_on_c, 11, 81, 0
11, 10290, Note_on_c, 11, 77, 76
11, 10304, Note_on_c, 11, 77, 0
11, 10305, Note_on_c, 11, 79, 76
11, 10319, Note_on_c, 11, 79, 0
11, 10320, Note_on_c, 11, 81, 76
11, 10375, Note_on_c, 11, 81, 0
11, 10380, Note_on_c, 11, 81, 84
11, 10491, Note_on_c, 11, 81, 0
11, 10500, Note_on_c, 11, 77, 76
11, 10514, Note_on_c, 11, 77, 0
11, 10515, Note_on_c, 11, 79, 76
11, 10529, Note_on_c, 11, 79, 0
11, 10530, Note_on_c, 11, 75, 76
11, 10544, Note_on_c, 11, 75, 0
11, 10545, Note_on_c, 11, 77, 76
11, 10559, Note_on_c, 11, 77, 0
11, 10560, Note_on_c, 11, 79, 76
11, 10604, Note_on_c, 11, 79, 0
11, 10620, Note_on_c, 11, 76, 76
11, 10664, Note_on_c, 11, 76, 0
11, 10680, Note_on_c, 11, 72, 76
11, 10724, Note_on_c, 11, 72, 0
11, 10740, Note_on_c, 11, 76, 76
11, 10784, Note_on_c, 11, 76, 0
11, 10800, Note_on_c, 11, 77, 84
11, 10814, Note_on_c, 11, 77, 0
11, 10815, Note_on_c, 11, 65, 84
11, 10829, Note_on_c, 11, 65, 0
11, 10830, Note_on_c, 11, 65, 84
11, 10844, Note_on_c, 11, 65, 0
11, 10845, Note_on_c, 11, 65, 84
11, 10859, Note_on_c, 11, 65, 0
11, 10860, Note_on_c, 11, 65, 84
11, 10874, Note_on_c, 11, 65, 0
11, 10875, Note_on_c, 11, 65, 84
11, 10889, Note_on_c, 11, 65, 0
11, 10890, Note_on_c, 11, 65, 84
11, 10904, Note_on_c, 11, 65, 0
11, 10905, Note_on_c, 11, 65, 84
11, 10919, Note_on_c, 11, 65, 0
11, 10920, Note_on_c, 11, 65, 84
11, 10934, Note_on_c, 11, 65, 0
11, 10935, Note_on_c, 11, 65, 84
11, 10994, Note_on_c, 11, 65, 0
11, 11220, Note_on_c, 11, 69, 52
11, 11264, Note_on_c, 11, 69, 0
11, 11280, Note_on_c, 11, 65, 52
11, 11324, Note_on_c, 11, 65, 0
11, 11460, Note_on_c, 11, 77, 52
11, 11504, Note_on_c, 11, 77, 0
11, 11520, Note_on_c, 11, 76, 52
11, 11564, Note_on_c, 11, 76, 0
11, 11700, Note_on_c, 11, 82, 52
11, 11755, Note_on_c, 11, 82, 0
11, 11760, Note_on_c, 11, 81, 84
11, 11774, Note_on_c, 11, 81, 0
11, 11775, Note_on_c, 11, 65, 84
11, 11789, Note_on_c, 11, 65, 0
11, 11790, Note_on_c, 11, 65, 84
11, 11804, Note_on_c, 11, 65, 0
11, 11805, Note_on_c, 11, 65, 84
11, 11819, Note_on_c, 11, 65, 0
11, 11820, Note_on_c, 11, 65, 84
11, 11834, Note_on_c, 11, 65, 0
11, 11835, Note_on_c, 11, 65, 84
11, 11849, Note_on_c, 11, 65, 0
11, 11850, Note_on_c, 11, 65, 84
11, 11864, Note_on_c, 11, 65, 0
11, 11865, Note_on_c, 11, 65, 84
11, 11879, Note_on_c, 11, 65, 0
11, 11880, Note_on_c, 11, 65, 84
11, 11939, Note_on_c, 11, 65, 0
11, 12180, Note_on_c, 11, 69, 52
11, 12224, Note_on_c, 11, 69, 0
11, 12240, Note_on_c, 11, 65, 52
11, 12284, Note_on_c, 11, 65, 0
11, 12420, Note_on_c, 11, 71, 51
11, 12464, Note_on_c, 11, 71, 0
11, 12480, Note_on_c, 11, 67, 50
11, 12524, Note_on_c, 11, 67, 0
11, 12660, Note_on_c, 11, 77, 49
11, 12704, Note_on_c, 11, 77, 0
11, 12720, Note_on_c, 11, 76, 48
11, 12764, Note_on_c, 11, 76, 0
11, 12900, Note_on_c, 11, 72, 47
11, 12944, Note_on_c, 11, 72, 0
11, 12960, Note_on_c, 11, 82, 46
11, 13004, Note_on_c, 11, 82, 0
11, 13140, Note_on_c, 11, 81, 44
11, 13184, Note_on_c, 11, 81, 0
11, 13200, Note_on_c, 11, 77, 44
11, 13244, Note_on_c, 11, 77, 0
11, 13380, Note_on_c, 11, 75, 44
11, 13424, Note_on_c, 11, 75, 0
11, 13440, Note_on_c, 11, 74, 44
11, 13484, Note_on_c, 11, 74, 0
11, 13560, Control_c, 11, 11, 96
11, 13620, Note_on_c, 11, 73, 60
11, 13675, Note_on_c, 11, 73, 0
11, 13680, Control_c, 11, 11, 96
11, 13680, Note_on_c, 11, 72, 60
11, 13705, Control_c, 11, 11, 97
11, 13730, Control_c, 11, 11, 99
11, 13755, Control_c, 11, 11, 100
11, 13780, Control_c, 11, 11, 101
11, 13805, Control_c, 11, 11, 102
11, 13830, Control_c, 11, 11, 104
11, 13855, Control_c, 11, 11, 105
11, 13880, Control_c, 11, 11, 106
11, 13905, Control_c, 11, 11, 108
11, 13919, Note_on_c, 11, 72, 0
11, 13920, Note_on_c, 11, 72, 60
11, 13930, Control_c, 11, 11, 109
11, 13955, Control_c, 11, 11, 110
11, 13980, Control_c, 11, 11, 112
11, 14005, Control_c, 11, 11, 113
11, 14030, Control_c, 11, 11, 114
11, 14055, Control_c, 11, 11, 115
11, 14080, Control_c, 11, 11, 117
11, 14105, Control_c, 11, 11, 118
11, 14130, Control_c, 11, 11, 119
11, 14155, Control_c, 11, 11, 121
11, 14180, Control_c, 11, 11, 122
11, 14205, Control_c, 11, 11, 123
11, 14211, Note_on_c, 11, 72, 0
11, 14220, Note_on_c, 11, 84, 60
11, 14230, Control_c, 11, 11, 124
11, 14255, Control_c, 11, 11, 126
11, 14280, Control_c, 11, 11, 127
11, 14339, Note_on_c, 11, 84, 0
11, 14340, Note_on_c, 11, 81, 52
11, 14369, Note_on_c, 11, 81, 0
11, 14370, Note_on_c, 11, 77, 52
11, 14391, Note_on_c, 11, 77, 0
11, 14400, Note_on_c, 11, 76, 52
11, 14444, Note_on_c, 11, 76, 0
11, 14460, Note_on_c, 11, 76, 52
11, 14504, Note_on_c, 11, 76, 0
11, 14520, Note_on_c, 11, 76, 52
11, 14564, Note_on_c, 11, 76, 0
11, 14580, Note_on_c, 11, 77, 52
11, 14594, Note_on_c, 11, 77, 0
11, 14595, Note_on_c, 11, 76, 52
11, 14609, Note_on_c, 11, 76, 0
11, 14610, Note_on_c, 11, 74, 52
11, 14624, Note_on_c, 11, 74, 0
11, 14625, Note_on_c, 11, 76, 52
11, 14636, Note_on_c, 11, 76, 0
11, 14640, Note_on_c, 11, 77, 52
11, 14699, Note_on_c, 11, 77, 0
11, 14760, Note_on_c, 11, 72, 52
11, 14819, Note_on_c, 11, 72, 0
11, 14820, Note_on_c, 11, 77, 53
11, 14879, Note_on_c, 11, 77, 0
11, 14880, Note_on_c, 11, 76, 55
11, 14939, Note_on_c, 11, 76, 0
11, 14940, Note_on_c, 11, 74, 56
11, 14999, Note_on_c, 11, 74, 0
11, 15000, Note_on_c, 11, 72, 58
11, 15059, Note_on_c, 11, 72, 0
11, 15060, Note_on_c, 11, 82, 60
11, 15119, Note_on_c, 11, 82, 0
11, 15120, Note_on_c, 11, 81, 61
11, 15179, Note_on_c, 11, 81, 0
11, 15180, Note_on_c, 11, 79, 63
11, 15239, Note_on_c, 11, 79, 0
11, 15240, Note_on_c, 11, 77, 64
11, 15299, Note_on_c, 11, 77, 0
11, 15420, Note_on_c, 11, 67, 52
11, 15441, Note_on_c, 11, 67, 0
11, 15450, Note_on_c, 11, 70, 52
11, 15471, Note_on_c, 11, 70, 0
11, 15480, Note_on_c, 11, 76, 52
11, 15501, Note_on_c, 11, 76, 0
11, 15510, Note_on_c, 11, 79, 52
11, 15531, Note_on_c, 11, 79, 0
11, 15540, Note_on_c, 11, 82, 52
11, 15561, Note_on_c, 11, 82, 0
11, 15570, Note_on_c, 11, 76, 52
11, 15591, Note_on_c, 11, 76, 0
11, 15600, Note_on_c, 11, 77, 52
11, 15644, Note_on_c, 11, 77, 0
11, 15660, Note_on_c, 11, 76, 52
11, 15681, Note_on_c, 11, 76, 0
11, 15690, Note_on_c, 11, 79, 52
11, 15711, Note_on_c, 11, 79, 0
11, 15720, Note_on_c, 11, 77, 52
11, 15764, Note_on_c, 11, 77, 0
11, 16140, Note_on_c, 11, 76, 52
11, 16161, Note_on_c, 11, 76, 0
11, 16170, Note_on_c, 11, 79, 52
11, 16191, Note_on_c, 11, 79, 0
11, 16200, Note_on_c, 11, 77, 52
11, 16244, Note_on_c, 11, 77, 0
11, 16620, Note_on_c, 11, 76, 52
11, 16641, Note_on_c, 11, 76, 0
11, 16650, Note_on_c, 11, 79, 52
11, 16671, Note_on_c, 11, 79, 0
11, 16680, Note_on_c, 11, 77, 52
11, 16724, Note_on_c, 11, 77, 0
11, 17100, Note_on_c, 11, 76, 52
11, 17121, Note_on_c, 11, 76, 0
11, 17130, Note_on_c, 11, 79, 52
11, 17151, Note_on_c, 11, 79, 0
11, 17160, Note_on_c, 11, 77, 52
11, 17204, Note_on_c, 11, 77, 0
11, 18420, Note_on_c, 11, 77, 44
11, 18531, Note_on_c, 11, 77, 0
11, 18540, Note_on_c, 11, 77, 44
11, 18651, Note_on_c, 11, 77, 0
11, 18660, Note_on_c, 11, 77, 44
11, 18839, Note_on_c, 11, 77, 0
11, 19140, Note_on_c, 11, 76, 44
11, 19161, Note_on_c, 11, 76, 0
11, 19170, Note_on_c, 11, 79, 44
11, 19191, Note_on_c, 11, 79, 0
11, 19200, Note_on_c, 11, 77, 44
11, 19244, Note_on_c, 11, 77, 0
11, 19260, Note_on_c, 11, 76, 44
11, 19281, Note_on_c, 11, 76, 0
11, 19290, Note_on_c, 11, 79, 44
11, 19311, Note_on_c, 11, 79, 0
11, 19320, Note_on_c, 11, 77, 44
11, 19364, Note_on_c, 11, 77, 0
11, 19380, Note_on_c, 11, 76, 44
11, 19401, Note_on_c, 11, 76, 0
11, 19410, Note_on_c, 11, 79, 44
11, 19431, Note_on_c, 11, 79, 0
11, 19440, Note_on_c, 11, 77, 44
11, 19619, Note_on_c, 11, 77, 0
11, 19620, Note_on_c, 11, 74, 44
11, 19675, Note_on_c, 11, 74, 0
11, 19680, Note_on_c, 11, 74, 44
11, 19709, Note_on_c, 11, 74, 0
11, 19710, Note_on_c, 11, 72, 44
11, 19731, Note_on_c, 11, 72, 0
11, 19740, Note_on_c, 11, 72, 44
11, 19761, Note_on_c, 11, 72, 0
11, 19770, Note_on_c, 11, 74, 44
11, 19791, Note_on_c, 11, 74, 0
11, 19800, Note_on_c, 11, 75, 44
11, 19844, Note_on_c, 11, 75, 0
11, 19860, Note_on_c, 11, 72, 44
11, 19881, Note_on_c, 11, 72, 0
11, 19890, Note_on_c, 11, 74, 44
11, 19911, Note_on_c, 11, 74, 0
11, 19920, Note_on_c, 11, 70, 44
11, 20039, Note_on_c, 11, 70, 0
11, 20820, Note_on_c, 11, 76, 44
11, 20849, Note_on_c, 11, 76, 0
11, 20850, Note_on_c, 11, 79, 44
11, 20875, Note_on_c, 11, 79, 0
11, 20880, Note_on_c, 11, 79, 44
11, 20909, Note_on_c, 11, 79, 0
11, 20910, Note_on_c, 11, 77, 44
11, 20935, Note_on_c, 11, 77, 0
11, 20940, Note_on_c, 11, 76, 44
11, 20969, Note_on_c, 11, 76, 0
11, 20970, Note_on_c, 11, 79, 44
11, 20995, Note_on_c, 11, 79, 0
11, 21000, Note_on_c, 11, 79, 44
11, 21029, Note_on_c, 11, 79, 0
11, 21030, Note_on_c, 11, 77, 44
11, 21055, Note_on_c, 11, 77, 0
11, 21060, Note_on_c, 11, 76, 44
11, 21089, Note_on_c, 11, 76, 0
11, 21090, Note_on_c, 11, 79, 44
11, 21115, Note_on_c, 11, 79, 0
11, 21120, Note_on_c, 11, 79, 44
11, 21149, Note_on_c, 11, 79, 0
11, 21150, Note_on_c, 11, 77, 44
11, 21175, Note_on_c, 11, 77, 0
11, 21180, Note_on_c, 11, 77, 44
11, 21209, Note_on_c, 11, 77, 0
11, 21210, Note_on_c, 11, 76, 44
11, 21235, Note_on_c, 11, 76, 0
11, 21240, Note_on_c, 11, 76, 44
11, 21269, Note_on_c, 11, 76, 0
11, 21270, Note_on_c, 11, 77, 44
11, 21295, Note_on_c, 11, 77, 0
11, 21300, Note_on_c, 11, 77, 44
11, 21329, Note_on_c, 11, 77, 0
11, 21330, Note_on_c, 11, 74, 44
11, 21355, Note_on_c, 11, 74, 0
11, 21360, Note_on_c, 11, 74, 44
11, 21389, Note_on_c, 11, 74, 0
11, 21390, Note_on_c, 11, 72, 44
11, 21415, Note_on_c, 11, 72, 0
11, 21420, Note_on_c, 11, 72, 44
11, 21449, Note_on_c, 11, 72, 0
11, 21450, Note_on_c, 11, 74, 44
11, 21475, Note_on_c, 11, 74, 0
11, 21480, Note_on_c, 11, 74, 44
11, 21509, Note_on_c, 11, 74, 0
11, 21510, Note_on_c, 11, 75, 44
11, 21535, Note_on_c, 11, 75, 0
11, 21540, Note_on_c, 11, 75, 44
11, 21569, Note_on_c, 11, 75, 0
11, 21570, Note_on_c, 11, 72, 44
11, 21595, Note_on_c, 11, 72, 0
11, 21600, Note_on_c, 11, 70, 44
11, 21719, Note_on_c, 11, 70, 0
11, 21780, Note_on_c, 11, 70, 44
11, 21809, Note_on_c, 11, 70, 0
11, 21810, Note_on_c, 11, 74, 44
11, 21835, Note_on_c, 11, 74, 0
11, 21840, Note_on_c, 11, 74, 44
11, 21869, Note_on_c, 11, 74, 0
11, 21870, Note_on_c, 11, 72, 44
11, 21895, Note_on_c, 11, 72, 0
11, 21900, Note_on_c, 11, 72, 44
11, 21929, Note_on_c, 11, 72, 0
11, 21930, Note_on_c, 11, 74, 44
11, 21955, Note_on_c, 11, 74, 0
11, 21960, Note_on_c, 11, 74, 44
11, 21989, Note_on_c, 11, 74, 0
11, 21990, Note_on_c, 11, 75, 44
11, 22015, Note_on_c, 11, 75, 0
11, 22020, Note_on_c, 11, 75, 44
11, 22049, Note_on_c, 11, 75, 0
11, 22050, Note_on_c, 11, 72, 44
11, 22075, Note_on_c, 11, 72, 0
11, 22080, Control_c, 11, 11, 127
11, 22080, Note_on_c, 11, 79, 44
11, 22095, Control_c, 11, 11, 126
11, 22110, Control_c, 11, 11, 125
11, 22125, Control_c, 11, 11, 123
11, 22139, Note_on_c, 11, 79, 0
11, 22140, Control_c, 11, 11, 122
11, 22140, Note_on_c, 11, 77, 44
11, 22155, Control_c, 11, 11, 121
11, 22170, Control_c, 11, 11, 120
11, 22185, Control_c, 11, 11, 118
11, 22200, Control_c, 11, 11, 117
11, 22215, Control_c, 11, 11, 116
11, 22230, Control_c, 11, 11, 115
11, 22245, Control_c, 11, 11, 113
11, 22251, Note_on_c, 11, 77, 0
11, 22258, Control_c, 11, 11, 127
11, 22260, Note_on_c, 11, 70, 44
11, 22289, Note_on_c, 11, 70, 0
11, 22290, Note_on_c, 11, 74, 44
11, 22315, Note_on_c, 11, 74, 0
11, 22320, Note_on_c, 11, 74, 44
11, 22349, Note_on_c, 11, 74, 0
11, 22350, Note_on_c, 11, 72, 44
11, 22375, Note_on_c, 11, 72, 0
11, 22380, Note_on_c, 11, 72, 44
11, 22409, Note_on_c, 11, 72, 0
11, 22410, Note_on_c, 11, 74, 44
11, 22435, Note_on_c, 11, 74, 0
11, 22440, Note_on_c, 11, 74, 44
11, 22469, Note_on_c, 11, 74, 0
11, 22470, Note_on_c, 11, 75, 44
11, 22495, Note_on_c, 11, 75, 0
11, 22500, Note_on_c, 11, 75, 44
11, 22529, Note_on_c, 11, 75, 0
11, 22530, Note_on_c, 11, 72, 44
11, 22555, Note_on_c, 11, 72, 0
11, 22560, Control_c, 11, 11, 127
11, 22560, Note_on_c, 11, 72, 44
11, 22575, Control_c, 11, 11, 126
11, 22590, Control_c, 11, 11, 125
11, 22605, Control_c, 11, 11, 123
11, 22619, Note_on_c, 11, 72, 0
11, 22620, Control_c, 11, 11, 122
11, 22620, Note_on_c, 11, 70, 44
11, 22635, Control_c, 11, 11, 121
11, 22650, Control_c, 11, 11, 120
11, 22665, Control_c, 11, 11, 118
11, 22680, Control_c, 11, 11, 117
11, 22695, Control_c, 11, 11, 116
11, 22710, Control_c, 11, 11, 115
11, 22725, Control_c, 11, 11, 113
11, 22731, Note_on_c, 11, 70, 0
11, 22738, Control_c, 11, 11, 127
11, 22740, Note_on_c, 11, 70, 44
11, 22769, Note_on_c, 11, 70, 0
11, 22770, Note_on_c, 11, 74, 44
11, 22795, Note_on_c, 11, 74, 0
11, 22800, Note_on_c, 11, 74, 44
11, 22829, Note_on_c, 11, 74, 0
11, 22830, Note_on_c, 11, 72, 45
11, 22855, Note_on_c, 11, 72, 0
11, 22860, Note_on_c, 11, 72, 46
11, 22889, Note_on_c, 11, 72, 0
11, 22890, Note_on_c, 11, 74, 48
11, 22915, Note_on_c, 11, 74, 0
11, 22920, Note_on_c, 11, 74, 49
11, 22949, Note_on_c, 11, 74, 0
11, 22950, Note_on_c, 11, 75, 50
11, 22975, Note_on_c, 11, 75, 0
11, 22980, Note_on_c, 11, 75, 52
11, 23009, Note_on_c, 11, 75, 0
11, 23010, Note_on_c, 11, 72, 53
11, 23035, Note_on_c, 11, 72, 0
11, 23040, Note_on_c, 11, 75, 54
11, 23069, Note_on_c, 11, 75, 0
11, 23070, Note_on_c, 11, 74, 56
11, 23095, Note_on_c, 11, 74, 0
11, 23100, Note_on_c, 11, 74, 57
11, 23129, Note_on_c, 11, 74, 0
11, 23130, Note_on_c, 11, 75, 58
11, 23155, Note_on_c, 11, 75, 0
11, 23160, Note_on_c, 11, 75, 60
11, 23189, Note_on_c, 11, 75, 0
11, 23190, Note_on_c, 11, 77, 61
11, 23215, Note_on_c, 11, 77, 0
11, 23220, Note_on_c, 11, 77, 62
11, 23249, Note_on_c, 11, 77, 0
11, 23250, Note_on_c, 11, 74, 64
11, 23275, Note_on_c, 11, 74, 0
11, 23280, Note_on_c, 11, 77, 65
11, 23309, Note_on_c, 11, 77, 0
11, 23310, Note_on_c, 11, 76, 66
11, 23335, Note_on_c, 11, 76, 0
11, 23340, Note_on_c, 11, 76, 68
11, 23369, Note_on_c, 11, 76, 0
11, 23370, Note_on_c, 11, 77, 69
11, 23395, Note_on_c, 11, 77, 0
11, 23400, Note_on_c, 11, 77, 70
11, 23429, Note_on_c, 11, 77, 0
11, 23430, Note_on_c, 11, 79, 72
11, 23455, Note_on_c, 11, 79, 0
11, 23460, Note_on_c, 11, 79, 73
11, 23489, Note_on_c, 11, 79, 0
11, 23490, Note_on_c, 11, 81, 74
11, 23515, Note_on_c, 11, 81, 0
11, 23520, Note_on_c, 11, 82, 76
11, 23691, Note_on_c, 11, 82, 0
11, 23700, Note_on_c, 11, 79, 76
11, 23744, Note_on_c, 11, 79, 0
11, 23760, Note_on_c, 11, 81, 84
11, 23789, Note_on_c, 11, 81, 0
11, 23790, Note_on_c, 11, 81, 76
11, 23931, Note_on_c, 11, 81, 0
11, 23940, Note_on_c, 11, 77, 76
11, 23984, Note_on_c, 11, 77, 0
11, 24000, Note_on_c, 11, 79, 76
11, 24044, Note_on_c, 11, 79, 0
11, 24060, Note_on_c, 11, 76, 76
11, 24104, Note_on_c, 11, 76, 0
11, 24120, Note_on_c, 11, 72, 76
11, 24164, Note_on_c, 11, 72, 0
11, 24180, Note_on_c, 11, 76, 76
11, 24224, Note_on_c, 11, 76, 0
11, 24240, Note_on_c, 11, 77, 76
11, 24299, Note_on_c, 11, 77, 0
11, 24960, Note_on_c, 11, 75, 84
11, 24989, Note_on_c, 11, 75, 0
11, 24990, Note_on_c, 11, 75, 76
11, 25131, Note_on_c, 11, 75, 0
11, 25140, Note_on_c, 11, 72, 76
11, 25184, Note_on_c, 11, 72, 0
11, 25200, Note_on_c, 11, 74, 84
11, 25229, Note_on_c, 11, 74, 0
11, 25230, Note_on_c, 11, 74, 76
11, 25371, Note_on_c, 11, 74, 0
11, 25380, Note_on_c, 11, 70, 76
11, 25424, Note_on_c, 11, 70, 0
11, 25440, Note_on_c, 11, 72, 76
11, 25484, Note_on_c, 11, 72, 0
11, 25500, Note_on_c, 11, 69, 76
11, 25544, Note_on_c, 11, 69, 0
11, 25560, Note_on_c, 11, 65, 76
11, 25604, Note_on_c, 11, 65, 0
11, 25620, Note_on_c, 11, 69, 76
11, 25664, Note_on_c, 11, 69, 0
11, 25680, Note_on_c, 11, 70, 76
11, 25724, Note_on_c, 11, 70, 0
11, 25740, Note_on_c, 11, 74, 76
11, 25784, Note_on_c, 11, 74, 0
11, 25800, Note_on_c, 11, 77, 76
11, 25844, Note_on_c, 11, 77, 0
11, 25860, Note_on_c, 11, 74, 76
11, 25904, Note_on_c, 11, 74, 0
11, 25920, Note_on_c, 11, 75, 76
11, 25975, Note_on_c, 11, 75, 0
11, 25980, Note_on_c, 11, 75, 84
11, 26091, Note_on_c, 11, 75, 0
11, 26100, Note_on_c, 11, 72, 76
11, 26114, Note_on_c, 11, 72, 0
11, 26115, Note_on_c, 11, 74, 76
11, 26129, Note_on_c, 11, 74, 0
11, 26130, Note_on_c, 11, 70, 76
11, 26144, Note_on_c, 11, 70, 0
11, 26145, Note_on_c, 11, 72, 76
11, 26159, Note_on_c, 11, 72, 0
11, 26160, Note_on_c, 11, 74, 76
11, 26215, Note_on_c, 11, 74, 0
11, 26220, Note_on_c, 11, 74, 84
11, 26331, Note_on_c, 11, 74, 0
11, 26340, Note_on_c, 11, 82, 76
11, 26354, Note_on_c, 11, 82, 0
11, 26355, Note_on_c, 11, 84, 76
11, 26369, Note_on_c, 11, 84, 0
11, 26370, Note_on_c, 11, 81, 76
11, 26384, Note_on_c, 11, 81, 0
11, 26385, Note_on_c, 11, 82, 76
11, 26399, Note_on_c, 11, 82, 0
11, 26400, Note_on_c, 11, 84, 76
11, 26444, Note_on_c, 11, 84, 0
11, 26460, Note_on_c, 11, 81, 76
11, 26504, Note_on_c, 11, 81, 0
11, 26520, Note_on_c, 11, 77, 76
11, 26564, Note_on_c, 11, 77, 0
11, 26580, Note_on_c, 11, 81, 76
11, 26624, Note_on_c, 11, 81, 0
11, 26640, Note_on_c, 11, 82, 84
11, 26654, Note_on_c, 11, 82, 0
11, 26655, Note_on_c, 11, 70, 84
11, 26669, Note_on_c, 11, 70, 0
11, 26670, Note_on_c, 11, 70, 84
11, 26684, Note_on_c, 11, 70, 0
11, 26685, Note_on_c, 11, 70, 84
11, 26699, Note_on_c, 11, 70, 0
11, 26700, Note_on_c, 11, 70, 84
11, 26714, Note_on_c, 11, 70, 0
11, 26715, Note_on_c, 11, 70, 84
11, 26729, Note_on_c, 11, 70, 0
11, 26730, Note_on_c, 11, 70, 84
11, 26744, Note_on_c, 11, 70, 0
11, 26745, Note_on_c, 11, 70, 84
11, 26759, Note_on_c, 11, 70, 0
11, 26760, Note_on_c, 11, 70, 84
11, 26819, Note_on_c, 11, 70, 0
11, 27060, Note_on_c, 11, 74, 52
11, 27104, Note_on_c, 11, 74, 0
11, 27120, Note_on_c, 11, 70, 52
11, 27164, Note_on_c, 11, 70, 0
11, 27300, Note_on_c, 11, 82, 52
11, 27344, Note_on_c, 11, 82, 0
11, 27360, Note_on_c, 11, 81, 52
11, 27404, Note_on_c, 11, 81, 0
11, 27540, Note_on_c, 11, 81, 52
11, 27584, Note_on_c, 11, 81, 0
11, 27600, Note_on_c, 11, 82, 84
11, 27614, Note_on_c, 11, 82, 0
11, 27615, Note_on_c, 11, 70, 84
11, 27629, Note_on_c, 11, 70, 0
11, 27630, Note_on_c, 11, 70, 84
11, 27644, Note_on_c, 11, 70, 0
11, 27645, Note_on_c, 11, 70, 84
11, 27659, Note_on_c, 11, 70, 0
11, 27660, Note_on_c, 11, 70, 84
11, 27674, Note_on_c, 11, 70, 0
11, 27675, Note_on_c, 11, 70, 84
11, 27689, Note_on_c, 11, 70, 0
11, 27690, Note_on_c, 11, 70, 84
11, 27704, Note_on_c, 11, 70, 0
11, 27705, Note_on_c, 11, 70, 84
11, 27719, Note_on_c, 11, 70, 0
11, 27720, Note_on_c, 11, 70, 84
11, 27779, Note_on_c, 11, 70, 0
11, 28020, Note_on_c, 11, 74, 52
11, 28064, Note_on_c, 11, 74, 0
11, 28080, Note_on_c, 11, 70, 52
11, 28124, Note_on_c, 11, 70, 0
11, 28260, Note_on_c, 11, 76, 52
11, 28304, Note_on_c, 11, 76, 0
11, 28320, Note_on_c, 11, 72, 51
11, 28364, Note_on_c, 11, 72, 0
11, 28500, Note_on_c, 11, 82, 48
11, 28544, Note_on_c, 11, 82, 0
11, 28560, Note_on_c, 11, 81, 48
11, 28604, Note_on_c, 11, 81, 0
11, 28740, Note_on_c, 11, 65, 45
11, 28784, Note_on_c, 11, 65, 0
11, 28800, Note_on_c, 11, 75, 44
11, 28844, Note_on_c, 11, 75, 0
11, 28980, Note_on_c, 11, 74, 44
11, 29024, Note_on_c, 11, 74, 0
11, 29040, Note_on_c, 11, 70, 44
11, 29084, Note_on_c, 11, 70, 0
11, 29220, Note_on_c, 11, 80, 44
11, 29264, Note_on_c, 11, 80, 0
11, 29280, Note_on_c, 11, 79, 44
11, 29324, Note_on_c, 11, 79, 0
11, 29430, Control_c, 11, 11, 96
11, 29460, Note_on_c, 11, 78, 60
11, 29504, Note_on_c, 11, 78, 0
11, 29520, Control_c, 11, 11, 96
11, 29520, Note_on_c, 11, 77, 60
11, 29545, Control_c, 11, 11, 97
11, 29570, Control_c, 11, 11, 99
11, 29595, Control_c, 11, 11, 100
11, 29620, Control_c, 11, 11, 101
11, 29645, Control_c, 11, 11, 102
11, 29670, Control_c, 11, 11, 104
11, 29695, Control_c, 11, 11, 105
11, 29720, Control_c, 11, 11, 106
11, 29745, Control_c, 11, 11, 108
11, 29759, Note_on_c, 11, 77, 0
11, 29760, Note_on_c, 11, 77, 60
11, 29770, Control_c, 11, 11, 109
11, 29795, Control_c, 11, 11, 110
11, 29820, Control_c, 11, 11, 112
11, 29845, Control_c, 11, 11, 113
11, 29870, Control_c, 11, 11, 114
11, 29895, Control_c, 11, 11, 115
11, 29920, Control_c, 11, 11, 117
11, 29945, Control_c, 11, 11, 118
11, 29970, Control_c, 11, 11, 119
11, 29995, Control_c, 11, 11, 121
11, 30020, Control_c, 11, 11, 122
11, 30045, Control_c, 11, 11, 123
11, 30051, Note_on_c, 11, 77, 0
11, 30060, Note_on_c, 11, 77, 60
11, 30070, Control_c, 11, 11, 124
11, 30095, Control_c, 11, 11, 126
11, 30120, Control_c, 11, 11, 127
11, 30179, Note_on_c, 11, 77, 0
11, 30180, Note_on_c, 11, 86, 52
11, 30209, Note_on_c, 11, 86, 0
11, 30210, Note_on_c, 11, 82, 52
11, 30235, Note_on_c, 11, 82, 0
11, 30240, Note_on_c, 11, 81, 52
11, 30284, Note_on_c, 11, 81, 0
11, 30300, Note_on_c, 11, 81, 52
11, 30344, Note_on_c, 11, 81, 0
11, 30360, Note_on_c, 11, 81, 52
11, 30404, Note_on_c, 11, 81, 0
11, 30420, Note_on_c, 11, 82, 52
11, 30434, Note_on_c, 11, 82, 0
11, 30435, Note_on_c, 11, 81, 52
11, 30449, Note_on_c, 11, 81, 0
11, 30450, Note_on_c, 11, 79, 52
11, 30464, Note_on_c, 11, 79, 0
11, 30465, Note_on_c, 11, 81, 52
11, 30476, Note_on_c, 11, 81, 0
11, 30480, Note_on_c, 11, 82, 52
11, 30539, Note_on_c, 11, 82, 0
11, 30600, Note_on_c, 11, 77, 52
11, 30659, Note_on_c, 11, 77, 0
11, 30660, Note_on_c, 11, 82, 53
11, 30719, Note_on_c, 11, 82, 0
11, 30720, Note_on_c, 11, 81, 55
11, 30779, Note_on_c, 11, 81, 0
11, 30780, Note_on_c, 11, 79, 56
11, 30839, Note_on_c, 11, 79, 0
11, 30840, Note_on_c, 11, 77, 58
11, 30899, Note_on_c, 11, 77, 0
11, 30900, Note_on_c, 11, 87, 60
11, 30959, Note_on_c, 11, 87, 0
11, 30960, Note_on_c, 11, 86, 61
11, 31019, Note_on_c, 11, 86, 0
11, 31020, Note_on_c, 11, 84, 63
11, 31079, Note_on_c, 11, 84, 0
11, 31080, Note_on_c, 11, 82, 64
11, 31139, Note_on_c, 11, 82, 0
11, 31260, Note_on_c, 11, 60, 52
11, 31281, Note_on_c, 11, 60, 0
11, 31290, Note_on_c, 11, 63, 52
11, 31311, Note_on_c, 11, 63, 0
11, 31320, Note_on_c, 11, 69, 52
11, 31341, Note_on_c, 11, 69, 0
11, 31350, Note_on_c, 11, 72, 52
11, 31371, Note_on_c, 11, 72, 0
11, 31380, Note_on_c, 11, 75, 52
11, 31401, Note_on_c, 11, 75, 0
11, 31410, Note_on_c, 11, 81, 52
11, 31431, Note_on_c, 11, 81, 0
11, 31440, Note_on_c, 11, 82, 52
11, 31484, Note_on_c, 11, 82, 0
11, 31500, Note_on_c, 11, 81, 52
11, 31521, Note_on_c, 11, 81, 0
11, 31530, Note_on_c, 11, 84, 52
11, 31551, Note_on_c, 11, 84, 0
11, 31560, Note_on_c, 11, 82, 52
11, 31604, Note_on_c, 11, 82, 0
11, 31980, Note_on_c, 11, 81, 52
11, 32001, Note_on_c, 11, 81, 0
11, 32010, Note_on_c, 11, 84, 52
11, 32031, Note_on_c, 11, 84, 0
11, 32040, Note_on_c, 11, 82, 52
11, 32084, Note_on_c, 11, 82, 0
11, 32460, Note_on_c, 11, 81, 52
11, 32481, Note_on_c, 11, 81, 0
11, 32490, Note_on_c, 11, 84, 52
11, 32511, Note_on_c, 11, 84, 0
11, 32520, Note_on_c, 11, 82, 52
11, 32564, Note_on_c, 11, 82, 0
11, 32940, Note_on_c, 11, 81, 52
11, 32961, Note_on_c, 11, 81, 0
11, 32970, Note_on_c, 11, 84, 52
11, 32991, Note_on_c, 11, 84, 0
11, 33000, Note_on_c, 11, 82, 52
11, 33044, Note_on_c, 11, 82, 0
11, 34260, Note_on_c, 11, 82, 44
11, 34371, Note_on_c, 11, 82, 0
11, 34380, Note_on_c, 11, 82, 44
11, 34491, Note_on_c, 11, 82, 0
11, 34500, Note_on_c, 11, 82, 44
11, 34739, Note_on_c, 11, 82, 0
11, 35730, Note_on_c, 11, 79, 44
11, 35744, Note_on_c, 11, 79, 0
11, 35745, Note_on_c, 11, 82, 44
11, 35759, Note_on_c, 11, 82, 0
11, 35760, Note_on_c, 11, 80, 44
11, 35804, Note_on_c, 11, 80, 0
11, 36210, Note_on_c, 11, 77, 44
11, 36224, Note_on_c, 11, 77, 0
11, 36225, Note_on_c, 11, 80, 44
11, 36239, Note_on_c, 11, 80, 0
11, 36240, Note_on_c, 11, 79, 44
11, 36284, Note_on_c, 11, 79, 0
11, 36450, Note_on_c, 11, 79, 84
11, 36464, Note_on_c, 11, 79, 0
11, 36465, Note_on_c, 11, 82, 84
11, 36479, Note_on_c, 11, 82, 0
11, 36480, Note_on_c, 11, 80, 84
11, 36501, Note_on_c, 11, 80, 0
11, 36510, Note_on_c, 11, 79, 84
11, 36524, Note_on_c, 11, 79, 0
11, 36525, Note_on_c, 11, 82, 84
11, 36539, Note_on_c, 11, 82, 0
11, 36540, Note_on_c, 11, 80, 84
11, 36561, Note_on_c, 11, 80, 0
11, 36570, Note_on_c, 11, 79, 84
11, 36584, Note_on_c, 11, 79, 0
11, 36585, Note_on_c, 11, 82, 84
11, 36599, Note_on_c, 11, 82, 0
11, 36600, Note_on_c, 11, 80, 84
11, 36644, Note_on_c, 11, 80, 0
11, 36930, Note_on_c, 11, 77, 84
11, 36944, Note_on_c, 11, 77, 0
11, 36945, Note_on_c, 11, 80, 84
11, 36959, Note_on_c, 11, 80, 0
11, 36960, Note_on_c, 11, 79, 84
11, 36981, Note_on_c, 11, 79, 0
11, 36990, Note_on_c, 11, 77, 84
11, 37004, Note_on_c, 11, 77, 0
11, 37005, Note_on_c, 11, 80, 84
11, 37019, Note_on_c, 11, 80, 0
11, 37020, Note_on_c, 11, 79, 84
11, 37041, Note_on_c, 11, 79, 0
11, 37050, Note_on_c, 11, 77, 84
11, 37064, Note_on_c, 11, 77, 0
11, 37065, Note_on_c, 11, 80, 84
11, 37079, Note_on_c, 11, 80, 0
11, 37080, Note_on_c, 11, 79, 84
11, 37124, Note_on_c, 11, 79, 0
11, 37440, Note_on_c, 11, 79, 44
11, 37455, Note_on_c, 11, 79, 0
11, 37460, Note_on_c, 11, 79, 44
11, 37475, Note_on_c, 11, 79, 0
11, 37480, Note_on_c, 11, 79, 44
11, 37495, Note_on_c, 11, 79, 0
11, 37500, Note_on_c, 11, 79, 44
11, 37515, Note_on_c, 11, 79, 0
11, 37520, Note_on_c, 11, 79, 44
11, 37535, Note_on_c, 11, 79, 0
11, 37540, Note_on_c, 11, 79, 44
11, 37555, Note_on_c, 11, 79, 0
11, 37560, Note_on_c, 11, 77, 44
11, 37575, Note_on_c, 11, 77, 0
11, 37580, Note_on_c, 11, 77, 44
11, 37595, Note_on_c, 11, 77, 0
11, 37600, Note_on_c, 11, 77, 44
11, 37615, Note_on_c, 11, 77, 0
11, 37620, Note_on_c, 11, 81, 44
11, 37635, Note_on_c, 11, 81, 0
11, 37640, Note_on_c, 11, 81, 44
11, 37655, Note_on_c, 11, 81, 0
11, 37660, Note_on_c, 11, 81, 44
11, 37675, Note_on_c, 11, 81, 0
11, 37680, Note_on_c, 11, 82, 44
11, 37695, Note_on_c, 11, 82, 0
11, 37700, Note_on_c, 11, 82, 44
11, 37715, Note_on_c, 11, 82, 0
11, 37720, Note_on_c, 11, 82, 44
11, 37735, Note_on_c, 11, 82, 0
11, 37740, Note_on_c, 11, 79, 44
11, 37755, Note_on_c, 11, 79, 0
11, 37760, Note_on_c, 11, 79, 44
11, 37775, Note_on_c, 11, 79, 0
11, 37780, Note_on_c, 11, 79, 44
11, 37795, Note_on_c, 11, 79, 0
11, 37800, Note_on_c, 11, 77, 44
11, 37815, Note_on_c, 11, 77, 0
11, 37820, Note_on_c, 11, 77, 44
11, 37835, Note_on_c, 11, 77, 0
11, 37840, Note_on_c, 11, 77, 44
11, 37855, Note_on_c, 11, 77, 0
11, 37860, Note_on_c, 11, 81, 44
11, 37875, Note_on_c, 11, 81, 0
11, 37880, Note_on_c, 11, 81, 44
11, 37895, Note_on_c, 11, 81, 0
11, 37900, Note_on_c, 11, 81, 44
11, 37915, Note_on_c, 11, 81, 0
11, 37920, Note_on_c, 11, 82, 44
11, 37931, Note_on_c, 11, 82, 0
11, 37935, Note_on_c, 11, 82, 45
11, 37946, Note_on_c, 11, 82, 0
11, 37950, Note_on_c, 11, 79, 46
11, 37961, Note_on_c, 11, 79, 0
11, 37965, Note_on_c, 11, 79, 47
11, 37976, Note_on_c, 11, 79, 0
11, 37980, Note_on_c, 11, 77, 49
11, 37991, Note_on_c, 11, 77, 0
11, 37995, Note_on_c, 11, 77, 50
11, 38006, Note_on_c, 11, 77, 0
11, 38010, Note_on_c, 11, 81, 51
11, 38021, Note_on_c, 11, 81, 0
11, 38025, Note_on_c, 11, 81, 52
11, 38036, Note_on_c, 11, 81, 0
11, 38040, Note_on_c, 11, 82, 54
11, 38051, Note_on_c, 11, 82, 0
11, 38055, Note_on_c, 11, 82, 55
11, 38066, Note_on_c, 11, 82, 0
11, 38070, Note_on_c, 11, 79, 56
11, 38081, Note_on_c, 11, 79, 0
11, 38085, Note_on_c, 11, 79, 57
11, 38096, Note_on_c, 11, 79, 0
11, 38100, Note_on_c, 11, 77, 59
11, 38111, Note_on_c, 11, 77, 0
11, 38115, Note_on_c, 11, 77, 60
11, 38126, Note_on_c, 11, 77, 0
11, 38130, Note_on_c, 11, 81, 61
11, 38141, Note_on_c, 11, 81, 0
11, 38145, Note_on_c, 11, 81, 62
11, 38156, Note_on_c, 11, 81, 0
11, 38160, Note_on_c, 11, 82, 64
11, 38171, Note_on_c, 11, 82, 0
11, 38175, Note_on_c, 11, 82, 65
11, 38186, Note_on_c, 11, 82, 0
11, 38190, Note_on_c, 11, 79, 66
11, 38201, Note_on_c, 11, 79, 0
11, 38205, Note_on_c, 11, 79, 67
11, 38216, Note_on_c, 11, 79, 0
11, 38220, Note_on_c, 11, 77, 69
11, 38231, Note_on_c, 11, 77, 0
11, 38235, Note_on_c, 11, 77, 70
11, 38246, Note_on_c, 11, 77, 0
11, 38250, Note_on_c, 11, 81, 71
11, 38261, Note_on_c, 11, 81, 0
11, 38265, Note_on_c, 11, 81, 72
11, 38276, Note_on_c, 11, 81, 0
11, 38280, Note_on_c, 11, 82, 74
11, 38291, Note_on_c, 11, 82, 0
11, 38295, Note_on_c, 11, 82, 75
11, 38306, Note_on_c, 11, 82, 0
11, 38310, Note_on_c, 11, 79, 76
11, 38321, Note_on_c, 11, 79, 0
11, 38325, Note_on_c, 11, 79, 77
11, 38336, Note_on_c, 11, 79, 0
11, 38340, Note_on_c, 11, 77, 79
11, 38351, Note_on_c, 11, 77, 0
11, 38355, Note_on_c, 11, 77, 80
11, 38366, Note_on_c, 11, 77, 0
11, 38370, Note_on_c, 11, 81, 81
11, 38381, Note_on_c, 11, 81, 0
11, 38385, Note_on_c, 11, 81, 82
11, 38396, Note_on_c, 11, 81, 0
11, 38400, Note_on_c, 11, 82, 84
11, 38411, Note_on_c, 11, 82, 0
11, 38415, Note_on_c, 11, 58, 84
11, 38426, Note_on_c, 11, 58, 0
11, 38430, Note_on_c, 11, 58, 84
11, 38441, Note_on_c, 11, 58, 0
11, 38445, Note_on_c, 11, 58, 84
11, 38456, Note_on_c, 11, 58, 0
11, 38460, Note_on_c, 11, 58, 84
11, 38471, Note_on_c, 11, 58, 0
11, 38475, Note_on_c, 11, 58, 84
11, 38486, Note_on_c, 11, 58, 0
11, 38490, Note_on_c, 11, 58, 84
11, 38501, Note_on_c, 11, 58, 0
11, 38505, Note_on_c, 11, 58, 84
11, 38516, Note_on_c, 11, 58, 0
11, 38520, Note_on_c, 11, 58, 84
11, 38531, Note_on_c, 11, 58, 0
11, 38535, Note_on_c, 11, 58, 84
11, 38546, Note_on_c, 11, 58, 0
11, 38550, Note_on_c, 11, 58, 84
11, 38561, Note_on_c, 11, 58, 0
11, 38565, Note_on_c, 11, 58, 84
11, 38576, Note_on_c, 11, 58, 0
11, 38580, Note_on_c, 11, 58, 84
11, 38591, Note_on_c, 11, 58, 0
11, 38595, Note_on_c, 11, 58, 84
11, 38606, Note_on_c, 11, 58, 0
11, 38610, Note_on_c, 11, 58, 84
11, 38621, Note_on_c, 11, 58, 0
11, 38625, Note_on_c, 11, 58, 84
11, 38636, Note_on_c, 11, 58, 0
11, 38640, Note_on_c, 11, 58, 84
11, 38759, Note_on_c, 11, 58, 0
11, 38759, End_track
12, 0, Start_track
12, 0, Title_t, "Violin II"
12, 0, MIDI_port, 0
12, 0, Program_c, 12, 48
12, 0, Control_c, 12, 7, 96
12, 0, Control_c, 12, 10, 24
12, 0, Control_c, 12, 11, 127
12, 240, Program_c, 12, 45
12, 480, Note_on_c, 12, 58, 40
12, 599, Note_on_c, 12, 58, 0
12, 600, Note_on_c, 12, 62, 40
12, 719, Note_on_c, 12, 62, 0
12, 720, Note_on_c, 12, 65, 40
12, 839, Note_on_c, 12, 65, 0
12, 900, Note_on_c, 12, 70, 40
12, 959, Note_on_c, 12, 70, 0
12, 960, Note_on_c, 12, 69, 40
12, 1079, Note_on_c, 12, 69, 0
12, 1080, Note_on_c, 12, 63, 40
12, 1080, Note_on_c, 12, 60, 40
12, 1199, Note_on_c, 12, 63, 0
12, 1199, Note_on_c, 12, 60, 0
12, 1200, Note_on_c, 12, 58, 40
12, 1200, Note_on_c, 12, 62, 40
12, 1319, Note_on_c, 12, 58, 0
12, 1319, Note_on_c, 12, 62, 0
12, 2160, Note_on_c, 12, 58, 40
12, 2279, Note_on_c, 12, 58, 0
12, 2280, Note_on_c, 12, 62, 40
12, 2399, Note_on_c, 12, 62, 0
12, 2400, Note_on_c, 12, 67, 40
12, 2519, Note_on_c, 12, 67, 0
12, 2580, Note_on_c, 12, 70, 40
12, 2639, Note_on_c, 12, 70, 0
12, 2640, Note_on_c, 12, 69, 40
12, 2759, Note_on_c, 12, 69, 0
12, 2760, Note_on_c, 12, 69, 40
12, 2879, Note_on_c, 12, 69, 0
12, 2880, Note_on_c, 12, 67, 40
12, 2999, Note_on_c, 12, 67, 0
12, 3600, Program_c, 12, 48
12, 3840, Note_on_c, 12, 70, 44
12, 3899, Note_on_c, 12, 70, 0
12, 3960, Note_on_c, 12, 70, 44
12, 4015, Note_on_c, 12, 70, 0
12, 4020, Note_on_c, 12, 69, 84
12, 4041, Note_on_c, 12, 69, 0
12, 4050, Note_on_c, 12, 72, 84
12, 4071, Note_on_c, 12, 72, 0
12, 4080, Note_on_c, 12, 75, 92
12, 4109, Note_on_c, 12, 75, 0
12, 4110, Note_on_c, 12, 75, 84
12, 4251, Note_on_c, 12, 75, 0
12, 4260, Note_on_c, 12, 72, 52
12, 4281, Note_on_c, 12, 72, 0
12, 4290, Note_on_c, 12, 70, 52
12, 4311, Note_on_c, 12, 70, 0
12, 4320, Note_on_c, 12, 69, 52
12, 4364, Note_on_c, 12, 69, 0
12, 4380, Note_on_c, 12, 70, 52
12, 4401, Note_on_c, 12, 70, 0
12, 4410, Note_on_c, 12, 72, 52
12, 4431, Note_on_c, 12, 72, 0
12, 4440, Note_on_c, 12, 65, 52
12, 4484, Note_on_c, 12, 65, 0
12, 4500, Note_on_c, 12, 67, 52
12, 4521, Note_on_c, 12, 67, 0
12, 4530, Note_on_c, 12, 69, 52
12, 4551, Note_on_c, 12, 69, 0
12, 4560, Note_on_c, 12, 70, 52
12, 4679, Note_on_c, 12, 70, 0
12, 4860, Note_on_c, 12, 60, 52
12, 4860, Note_on_c, 12, 63, 52
12, 4919, Note_on_c, 12, 60, 0
12, 4919, Note_on_c, 12, 63, 0
12, 5100, Note_on_c, 12, 62, 52
12, 5100, Note_on_c, 12, 58, 52
12, 5159, Note_on_c, 12, 62, 0
12, 5159, Note_on_c, 12, 58, 0
12, 5340, Note_on_c, 12, 63, 52
12, 5340, Note_on_c, 12, 60, 52
12, 5399, Note_on_c, 12, 63, 0
12, 5399, Note_on_c, 12, 60, 0
12, 5460, Note_on_c, 12, 63, 52
12, 5460, Note_on_c, 12, 60, 52
12, 5515, Note_on_c, 12, 63, 0
12, 5515, Note_on_c, 12, 60, 0
12, 5520, Note_on_c, 12, 58, 52
12, 5520, Note_on_c, 12, 62, 52
12, 5639, Note_on_c, 12, 58, 0
12, 5639, Note_on_c, 12, 62, 0
12, 5760, Note_on_c, 12, 65, 52
12, 5781, Note_on_c, 12, 65, 0
12, 5790, Note_on_c, 12, 67, 52
12, 5811, Note_on_c, 12, 67, 0
12, 5820, Note_on_c, 12, 60, 52
12, 5864, Note_on_c, 12, 60, 0
12, 6000, Note_on_c, 12, 65, 52
12, 6021, Note_on_c, 12, 65, 0
12, 6030, Note_on_c, 12, 67, 52
12, 6051, Note_on_c, 12, 67, 0
12, 6060, Note_on_c, 12, 58, 52
12, 6104, Note_on_c, 12, 58, 0
12, 6180, Note_on_c, 12, 67, 76
12, 6201, Note_on_c, 12, 67, 0
12, 6210, Note_on_c, 12, 69, 76
12, 6231, Note_on_c, 12, 69, 0
12, 6240, Note_on_c, 12, 65, 76
12, 6284, Note_on_c, 12, 65, 0
12, 6300, Note_on_c, 12, 67, 84
12, 6321, Note_on_c, 12, 67, 0
12, 6330, Note_on_c, 12, 69, 76
12, 6351, Note_on_c, 12, 69, 0
12, 6360, Note_on_c, 12, 65, 76
12, 6404, Note_on_c, 12, 65, 0
12, 6420, Note_on_c, 12, 67, 84
12, 6441, Note_on_c, 12, 67, 0
12, 6450, Note_on_c, 12, 69, 76
12, 6471, Note_on_c, 12, 69, 0
12, 6480, Note_on_c, 12, 65, 76
12, 6599, Note_on_c, 12, 65, 0
12, 6660, Note_on_c, 12, 63, 52
12, 6681, Note_on_c, 12, 63, 0
12, 6690, Note_on_c, 12, 65, 52
12, 6711, Note_on_c, 12, 65, 0
12, 6720, Note_on_c, 12, 62, 52
12, 6775, Note_on_c, 12, 62, 0
12, 6780, Note_on_c, 12, 63, 52
12, 6805, Note_on_c, 12, 63, 0
12, 6810, Note_on_c, 12, 65, 52
12, 6835, Note_on_c, 12, 65, 0
12, 6840, Note_on_c, 12, 62, 52
12, 6895, Note_on_c, 12, 62, 0
12, 6900, Note_on_c, 12, 63, 52
12, 6925, Note_on_c, 12, 63, 0
12, 6930, Note_on_c, 12, 65, 52
12, 6955, Note_on_c, 12, 65, 0
12, 6960, Note_on_c, 12, 62, 52
12, 7079, Note_on_c, 12, 62, 0
12, 7140, Note_on_c, 12, 67, 76
12, 7165, Note_on_c, 12, 67, 0
12, 7170, Note_on_c, 12, 69, 76
12, 7195, Note_on_c, 12, 69, 0
12, 7200, Note_on_c, 12, 65, 76
12, 7255, Note_on_c, 12, 65, 0
12, 7260, Note_on_c, 12, 67, 84
12, 7285, Note_on_c, 12, 67, 0
12, 7290, Note_on_c, 12, 69, 76
12, 7315, Note_on_c, 12, 69, 0
12, 7320, Note_on_c, 12, 65, 76
12, 7375, Note_on_c, 12, 65, 0
12, 7380, Note_on_c, 12, 67, 84
12, 7405, Note_on_c, 12, 67, 0
12, 7410, Note_on_c, 12, 69, 76
12, 7435, Note_on_c, 12, 69, 0
12, 7440, Note_on_c, 12, 65, 76
12, 7559, Note_on_c, 12, 65, 0
12, 7620, Note_on_c, 12, 67, 73
12, 7645, Note_on_c, 12, 67, 0
12, 7650, Note_on_c, 12, 69, 72
12, 7675, Note_on_c, 12, 69, 0
12, 7680, Note_on_c, 12, 65, 70
12, 7799, Note_on_c, 12, 65, 0
12, 7860, Note_on_c, 12, 67, 60
12, 7885, Note_on_c, 12, 67, 0
12, 7890, Note_on_c, 12, 69, 59
12, 7915, Note_on_c, 12, 69, 0
12, 7920, Note_on_c, 12, 65, 57
12, 8039, Note_on_c, 12, 65, 0
12, 8460, Note_on_c, 12, 69, 54
12, 8481, Note_on_c, 12, 69, 0
12, 8490, Note_on_c, 12, 72, 55
12, 8511, Note_on_c, 12, 72, 0
12, 8520, Note_on_c, 12, 70, 56
12, 8564, Note_on_c, 12, 70, 0
12, 8940, Note_on_c, 12, 71, 70
12, 8961, Note_on_c, 12, 71, 0
12, 8970, Note_on_c, 12, 74, 71
12, 8991, Note_on_c, 12, 74, 0
12, 9000, Note_on_c, 12, 72, 72
12, 9044, Note_on_c, 12, 72, 0
12, 9060, Note_on_c, 12, 69, 74
12, 9081, Note_on_c, 12, 69, 0
12, 9090, Note_on_c, 12, 72, 75
12, 9111, Note_on_c, 12, 72, 0
12, 9120, Note_on_c, 12, 70, 76
12, 9291, Note_on_c, 12, 70, 0
12, 9300, Note_on_c, 12, 67, 76
12, 9344, Note_on_c, 12, 67, 0
12, 9360, Note_on_c, 12, 69, 84
12, 9389, Note_on_c, 12, 69, 0
12, 9390, Note_on_c, 12, 69, 84
12, 9531, Note_on_c, 12, 69, 0
12, 9540, Note_on_c, 12, 65, 76
12, 9584, Note_on_c, 12, 65, 0
12, 9600, Note_on_c, 12, 67, 76
12, 9644, Note_on_c, 12, 67, 0
12, 9660, Note_on_c, 12, 64, 76
12, 9704, Note_on_c, 12, 64, 0
12, 9720, Note_on_c, 12, 60, 76
12, 9764, Note_on_c, 12, 60, 0
12, 9780, Note_on_c, 12, 64, 76
12, 9824, Note_on_c, 12, 64, 0
12, 9840, Note_on_c, 12, 65, 76
12, 9884, Note_on_c, 12, 65, 0
12, 9900, Note_on_c, 12, 69, 76
12, 9944, Note_on_c, 12, 69, 0
12, 9960, Note_on_c, 12, 72, 76
12, 10004, Note_on_c, 12, 72, 0
12, 10020, Note_on_c, 12, 69, 76
12, 10064, Note_on_c, 12, 69, 0
12, 10080, Note_on_c, 12, 70, 76
12, 10135, Note_on_c, 12, 70, 0
12, 10140, Note_on_c, 12, 70, 84
12, 10251, Note_on_c, 12, 70, 0
12, 10260, Note_on_c, 12, 67, 76
12, 10274, Note_on_c, 12, 67, 0
12, 10275, Note_on_c, 12, 69, 76
12, 10289, Note_on_c, 12, 69, 0
12, 10290, Note_on_c, 12, 65, 76
12, 10304, Note_on_c, 12, 65, 0
12, 10305, Note_on_c, 12, 67, 76
12, 10319, Note_on_c, 12, 67, 0
12, 10320, Note_on_c, 12, 69, 76
12, 10375, Note_on_c, 12, 69, 0
12, 10380, Note_on_c, 12, 69, 84
12, 10491, Note_on_c, 12, 69, 0
12, 10500, Note_on_c, 12, 65, 76
12, 10514, Note_on_c, 12, 65, 0
12, 10515, Note_on_c, 12, 67, 76
12, 10529, Note_on_c, 12, 67, 0
12, 10530, Note_on_c, 12, 63, 76
12, 10544, Note_on_c, 12, 63, 0
12, 10545, Note_on_c, 12, 65, 76
12, 10559, Note_on_c, 12, 65, 0
12, 10560, Note_on_c, 12, 67, 76
12, 10604, Note_on_c, 12, 67, 0
12, 10620, Note_on_c, 12, 64, 76
12, 10664, Note_on_c, 12, 64, 0
12, 10680, Note_on_c, 12, 60, 76
12, 10724, Note_on_c, 12, 60, 0
12, 10740, Note_on_c, 12, 64, 76
12, 10784, Note_on_c, 12, 64, 0
12, 10800, Note_on_c, 12, 65, 84
12, 10814, Note_on_c, 12, 65, 0
12, 10815, Note_on_c, 12, 65, 84
12, 10829, Note_on_c, 12, 65, 0
12, 10830, Note_on_c, 12, 65, 84
12, 10844, Note_on_c, 12, 65, 0
12, 10845, Note_on_c, 12, 65, 84
12, 10859, Note_on_c, 12, 65, 0
12, 10860, Note_on_c, 12, 65, 84
12, 10874, Note_on_c, 12, 65, 0
12, 10875, Note_on_c, 12, 65, 84
12, 10889, Note_on_c, 12, 65, 0
12, 10890, Note_on_c, 12, 65, 84
12, 10904, Note_on_c, 12, 65, 0
12, 10905, Note_on_c, 12, 65, 84
12, 10919, Note_on_c, 12, 65, 0
12, 10920, Note_on_c, 12, 65, 84
12, 10979, Note_on_c, 12, 65, 0
12, 11460, Note_on_c, 12, 62, 52
12, 11460, Note_on_c, 12, 65, 52
12, 11504, Note_on_c, 12, 62, 0
12, 11504, Note_on_c, 12, 65, 0
12, 11520, Note_on_c, 12, 64, 52
12, 11564, Note_on_c, 12, 64, 0
12, 11700, Note_on_c, 12, 76, 52
12, 11700, Note_on_c, 12, 67, 52
12, 11755, Note_on_c, 12, 76, 0
12, 11755, Note_on_c, 12, 67, 0
12, 11760, Note_on_c, 12, 77, 84
12, 11760, Note_on_c, 12, 69, 84
12, 11774, Note_on_c, 12, 77, 0
12, 11774, Note_on_c, 12, 69, 0
12, 11775, Note_on_c, 12, 65, 84
12, 11789, Note_on_c, 12, 65, 0
12, 11790, Note_on_c, 12, 65, 84
12, 11804, Note_on_c, 12, 65, 0
12, 11805, Note_on_c, 12, 65, 84
12, 11819, Note_on_c, 12, 65, 0
12, 11820, Note_on_c, 12, 65, 84
12, 11834, Note_on_c, 12, 65, 0
12, 11835, Note_on_c, 12, 65, 84
12, 11849, Note_on_c, 12, 65, 0
12, 11850, Note_on_c, 12, 65, 84
12, 11864, Note_on_c, 12, 65, 0
12, 11865, Note_on_c, 12, 65, 84
12, 11879, Note_on_c, 12, 65, 0
12, 11880, Note_on_c, 12, 65, 84
12, 11939, Note_on_c, 12, 65, 0
12, 12660, Note_on_c, 12, 65, 50
12, 12704, Note_on_c, 12, 65, 0
12, 12720, Note_on_c, 12, 64, 49
12, 12764, Note_on_c, 12, 64, 0
12, 12900, Note_on_c, 12, 60, 47
12, 12944, Note_on_c, 12, 60, 0
12, 12960, Note_on_c, 12, 70, 46
12, 13004, Note_on_c, 12, 70, 0
12, 13140, Note_on_c, 12, 69, 44
12, 13184, Note_on_c, 12, 69, 0
12, 13200, Note_on_c, 12, 65, 44
12, 13244, Note_on_c, 12, 65, 0
12, 13380, Note_on_c, 12, 63, 44
12, 13424, Note_on_c, 12, 63, 0
12, 13440, Note_on_c, 12, 62, 44
12, 13484, Note_on_c, 12, 62, 0
12, 13590, Control_c, 12, 11, 96
12, 13620, Note_on_c, 12, 61, 60
12, 13675, Note_on_c, 12, 61, 0
12, 13680, Control_c, 12, 11, 96
12, 13680, Note_on_c, 12, 60, 60
12, 13730, Control_c, 12, 11, 99
12, 13780, Control_c, 12, 11, 101
12, 13830, Control_c, 12, 11, 104
12, 13880, Control_c, 12, 11, 106
12, 13919, Note_on_c, 12, 60, 0
12, 13920, Note_on_c, 12, 60, 60
12, 13930, Control_c, 12, 11, 109
12, 13980, Control_c, 12, 11, 112
12, 14030, Control_c, 12, 11, 114
12, 14080, Control_c, 12, 11, 117
12, 14130, Control_c, 12, 11, 119
12, 14180, Control_c, 12, 11, 122
12, 14219, Note_on_c, 12, 60, 0
12, 14220, Note_on_c, 12, 72, 60
12, 14230, Control_c, 12, 11, 124
12, 14280, Control_c, 12, 11, 127
12, 14339, Note_on_c, 12, 72, 0
12, 14340, Note_on_c, 12, 69, 52
12, 14369, Note_on_c, 12, 69, 0
12, 14370, Note_on_c, 12, 65, 52
12, 14395, Note_on_c, 12, 65, 0
12, 14400, Note_on_c, 12, 67, 52
12, 14444, Note_on_c, 12, 67, 0
12, 14460, Note_on_c, 12, 67, 52
12, 14504, Note_on_c, 12, 67, 0
12, 14520, Note_on_c, 12, 67, 52
12, 14564, Note_on_c, 12, 67, 0
12, 14580, Note_on_c, 12, 69, 52
12, 14594, Note_on_c, 12, 69, 0
12, 14595, Note_on_c, 12, 67, 52
12, 14609, Note_on_c, 12, 67, 0
12, 14610, Note_on_c, 12, 65, 52
12, 14624, Note_on_c, 12, 65, 0
12, 14625, Note_on_c, 12, 67, 52
12, 14636, Note_on_c, 12, 67, 0
12, 14640, Note_on_c, 12, 65, 52
12, 14699, Note_on_c, 12, 65, 0
12, 14760, Note_on_c, 12, 60, 52
12, 14819, Note_on_c, 12, 60, 0
12, 14820, Note_on_c, 12, 65, 53
12, 14879, Note_on_c, 12, 65, 0
12, 14880, Note_on_c, 12, 64, 55
12, 14939, Note_on_c, 12, 64, 0
12, 14940, Note_on_c, 12, 62, 56
12, 14999, Note_on_c, 12, 62, 0
12, 15000, Note_on_c, 12, 60, 58
12, 15059, Note_on_c, 12, 60, 0
12, 15060, Note_on_c, 12, 70, 60
12, 15119, Note_on_c, 12, 70, 0
12, 15120, Note_on_c, 12, 69, 61
12, 15179, Note_on_c, 12, 69, 0
12, 15180, Note_on_c, 12, 67, 63
12, 15239, Note_on_c, 12, 67, 0
12, 15240, Note_on_c, 12, 65, 64
12, 15299, Note_on_c, 12, 65, 0
12, 15420, Note_on_c, 12, 64, 52
12, 15441, Note_on_c, 12, 64, 0
12, 15450, Note_on_c, 12, 58, 52
12, 15471, Note_on_c, 12, 58, 0
12, 15480, Note_on_c, 12, 58, 52
12, 15501, Note_on_c, 12, 58, 0
12, 15510, Note_on_c, 12, 60, 52
12, 15531, Note_on_c, 12, 60, 0
12, 15540, Note_on_c, 12, 58, 52
12, 15561, Note_on_c, 12, 58, 0
12, 15570, Note_on_c, 12, 60, 52
12, 15591, Note_on_c, 12, 60, 0
12, 15600, Note_on_c, 12, 57, 52
12, 15711, Note_on_c, 12, 57, 0
12, 15720, Note_on_c, 12, 65, 52
12, 15831, Note_on_c, 12, 65, 0
12, 15900, Note_on_c, 12, 64, 52
12, 15921, Note_on_c, 12, 64, 0
12, 15930, Note_on_c, 12, 67, 52
12, 15951, Note_on_c, 12, 67, 0
12, 15960, Note_on_c, 12, 65, 52
12, 16004, Note_on_c, 12, 65, 0
12, 16200, Note_on_c, 12, 65, 52
12, 16319, Note_on_c, 12, 65, 0
12, 16380, Note_on_c, 12, 64, 52
12, 16401, Note_on_c, 12, 64, 0
12, 16410, Note_on_c, 12, 67, 52
12, 16431, Note_on_c, 12, 67, 0
12, 16440, Note_on_c, 12, 65, 52
12, 16484, Note_on_c, 12, 65, 0
12, 16680, Note_on_c, 12, 65, 52
12, 16799, Note_on_c, 12, 65, 0
12, 16860, Note_on_c, 12, 64, 52
12, 16881, Note_on_c, 12, 64, 0
12, 16890, Note_on_c, 12, 67, 52
12, 16911, Note_on_c, 12, 67, 0
12, 16920, Note_on_c, 12, 65, 52
12, 16964, Note_on_c, 12, 65, 0
12, 17160, Note_on_c, 12, 65, 52
12, 17279, Note_on_c, 12, 65, 0
12, 18420, Note_on_c, 12, 65, 44
12, 18531, Note_on_c, 12, 65, 0
12, 18540, Note_on_c, 12, 65, 44
12, 18651, Note_on_c, 12, 65, 0
12, 18660, Note_on_c, 12, 65, 44
12, 18839, Note_on_c, 12, 65, 0
12, 18960, Program_c, 12, 45
12, 19200, Note_on_c, 12, 58, 40
12, 19319, Note_on_c, 12, 58, 0
12, 19320, Note_on_c, 12, 62, 40
12, 19439, Note_on_c, 12, 62, 0
12, 19440, Note_on_c, 12, 65, 40
12, 19559, Note_on_c, 12, 65, 0
12, 19620, Note_on_c, 12, 70, 40
12, 19679, Note_on_c, 12, 70, 0
12, 19680, Note_on_c, 12, 69, 40
12, 19799, Note_on_c, 12, 69, 0
12, 19800, Note_on_c, 12, 60, 40
12, 19800, Note_on_c, 12, 63, 40
12, 19919, Note_on_c, 12, 60, 0
12, 19919, Note_on_c, 12, 63, 0
12, 19920, Note_on_c, 12, 62, 40
12, 19920, Note_on_c, 12, 58, 40
12, 20039, Note_on_c, 12, 62, 0
12, 20039, Note_on_c, 12, 58, 0
12, 20940, Note_on_c, 12, 58, 40
12, 20999, Note_on_c, 12, 58, 0
12, 21060, Note_on_c, 12, 62, 40
12, 21119, Note_on_c, 12, 62, 0
12, 21180, Note_on_c, 12, 65, 40
12, 21239, Note_on_c, 12, 65, 0
12, 21300, Note_on_c, 12, 70, 40
12, 21359, Note_on_c, 12, 70, 0
12, 21420, Note_on_c, 12, 69, 40
12, 21479, Note_on_c, 12, 69, 0
12, 21540, Note_on_c, 12, 63, 40
12, 21540, Note_on_c, 12, 60, 40
12, 21599, Note_on_c, 12, 63, 0
12, 21599, Note_on_c, 12, 60, 0
12, 21660, Note_on_c, 12, 62, 40
12, 21660, Note_on_c, 12, 58, 40
12, 21719, Note_on_c, 12, 62, 0
12, 21719, Note_on_c, 12, 58, 0
12, 21780, Note_on_c, 12, 70, 40
12, 21839, Note_on_c, 12, 70, 0
12, 21900, Note_on_c, 12, 69, 40
12, 21959, Note_on_c, 12, 69, 0
12, 22020, Note_on_c, 12, 60, 40
12, 22079, Note_on_c, 12, 60, 0
12, 22140, Note_on_c, 12, 62, 40
12, 22199, Note_on_c, 12, 62, 0
12, 22260, Note_on_c, 12, 70, 40
12, 22319, Note_on_c, 12, 70, 0
12, 22380, Note_on_c, 12, 69, 40
12, 22439, Note_on_c, 12, 69, 0
12, 22500, Note_on_c, 12, 60, 40
12, 22559, Note_on_c, 12, 60, 0
12, 22620, Note_on_c, 12, 62, 40
12, 22671, Note_on_c, 12, 62, 0
12, 22680, Program_c, 12, 48
12, 22740, Note_on_c, 12, 58, 44
12, 22769, Note_on_c, 12, 58, 0
12, 22770, Note_on_c, 12, 62, 44
12, 22795, Note_on_c, 12, 62, 0
12, 22800, Note_on_c, 12, 62, 44
12, 22829, Note_on_c, 12, 62, 0
12, 22830, Note_on_c, 12, 60, 45
12, 22855, Note_on_c, 12, 60, 0
12, 22860, Note_on_c, 12, 60, 46
12, 22889, Note_on_c, 12, 60, 0
12, 22890, Note_on_c, 12, 62, 48
12, 22915, Note_on_c, 12, 62, 0
12, 22920, Note_on_c, 12, 62, 49
12, 22949, Note_on_c, 12, 62, 0
12, 22950, Note_on_c, 12, 63, 50
12, 22975, Note_on_c, 12, 63, 0
12, 22980, Note_on_c, 12, 63, 52
12, 23009, Note_on_c, 12, 63, 0
12, 23010, Note_on_c, 12, 60, 53
12, 23035, Note_on_c, 12, 60, 0
12, 23040, Note_on_c, 12, 63, 54
12, 23069, Note_on_c, 12, 63, 0
12, 23070, Note_on_c, 12, 62, 56
12, 23095, Note_on_c, 12, 62, 0
12, 23100, Note_on_c, 12, 62, 57
12, 23129, Note_on_c, 12, 62, 0
12, 23130, Note_on_c, 12, 63, 58
12, 23155, Note_on_c, 12, 63, 0
12, 23160, Note_on_c, 12, 63, 60
12, 23189, Note_on_c, 12, 63, 0
12, 23190, Note_on_c, 12, 65, 61
12, 23215, Note_on_c, 12, 65, 0
12, 23220, Note_on_c, 12, 65, 62
12, 23249, Note_on_c, 12, 65, 0
12, 23250, Note_on_c, 12, 62, 64
12, 23275, Note_on_c, 12, 62, 0
12, 23280, Note_on_c, 12, 65, 65
12, 23309, Note_on_c, 12, 65, 0
12, 23310, Note_on_c, 12, 64, 66
12, 23335, Note_on_c, 12, 64, 0
12, 23340, Note_on_c, 12, 64, 68
12, 23369, Note_on_c, 12, 64, 0
12, 23370, Note_on_c, 12, 65, 69
12, 23395, Note_on_c, 12, 65, 0
12, 23400, Note_on_c, 12, 65, 70
12, 23429, Note_on_c, 12, 65, 0
12, 23430, Note_on_c, 12, 67, 72
12, 23455, Note_on_c, 12, 67, 0
12, 23460, Note_on_c, 12, 67, 73
12, 23489, Note_on_c, 12, 67, 0
12, 23490, Note_on_c, 12, 69, 74
12, 23515, Note_on_c, 12, 69, 0
12, 23520, Note_on_c, 12, 70, 76
12, 23691, Note_on_c, 12, 70, 0
12, 23700, Note_on_c, 12, 67, 76
12, 23744, Note_on_c, 12, 67, 0
12, 23760, Note_on_c, 12, 69, 84
12, 23789, Note_on_c, 12, 69, 0
12, 23790, Note_on_c, 12, 69, 76
12, 23931, Note_on_c, 12, 69, 0
12, 23940, Note_on_c, 12, 65, 76
12, 23984, Note_on_c, 12, 65, 0
12, 24000, Note_on_c, 12, 67, 76
12, 24044, Note_on_c, 12, 67, 0
12, 24060, Note_on_c, 12, 64, 76
12, 24104, Note_on_c, 12, 64, 0
12, 24120, Note_on_c, 12, 60, 76
12, 24164, Note_on_c, 12, 60, 0
12, 24180, Note_on_c, 12, 64, 76
12, 24224, Note_on_c, 12, 64, 0
12, 24240, Note_on_c, 12, 65, 76
12, 24299, Note_on_c, 12, 65, 0
12, 24960, Note_on_c, 12, 63, 84
12, 24989, Note_on_c, 12, 63, 0
12, 24990, Note_on_c, 12, 63, 76
12, 25131, Note_on_c, 12, 63, 0
12, 25140, Note_on_c, 12, 60, 76
12, 25184, Note_on_c, 12, 60, 0
12, 25200, Note_on_c, 12, 62, 84
12, 25229, Note_on_c, 12, 62, 0
12, 25230, Note_on_c, 12, 62, 76
12, 25371, Note_on_c, 12, 62, 0
12, 25380, Note_on_c, 12, 58, 76
12, 25424, Note_on_c, 12, 58, 0
12, 25440, Note_on_c, 12, 60, 76
12, 25484, Note_on_c, 12, 60, 0
12, 25500, Note_on_c, 12, 57, 76
12, 25544, Note_on_c, 12, 57, 0
12, 25560, Note_on_c, 12, 65, 76
12, 25604, Note_on_c, 12, 65, 0
12, 25620, Note_on_c, 12, 57, 76
12, 25664, Note_on_c, 12, 57, 0
12, 25680, Note_on_c, 12, 58, 76
12, 25724, Note_on_c, 12, 58, 0
12, 25740, Note_on_c, 12, 62, 76
12, 25784, Note_on_c, 12, 62, 0
12, 25800, Note_on_c, 12, 65, 76
12, 25844, Note_on_c, 12, 65, 0
12, 25860, Note_on_c, 12, 62, 76
12, 25904, Note_on_c, 12, 62, 0
12, 25920, Note_on_c, 12, 63, 76
12, 25975, Note_on_c, 12, 63, 0
12, 25980, Note_on_c, 12, 63, 84
12, 26091, Note_on_c, 12, 63, 0
12, 26100, Note_on_c, 12, 60, 76
12, 26114, Note_on_c, 12, 60, 0
12, 26115, Note_on_c, 12, 62, 76
12, 26129, Note_on_c, 12, 62, 0
12, 26130, Note_on_c, 12, 58, 76
12, 26144, Note_on_c, 12, 58, 0
12, 26145, Note_on_c, 12, 60, 76
12, 26159, Note_on_c, 12, 60, 0
12, 26160, Note_on_c, 12, 62, 76
12, 26215, Note_on_c, 12, 62, 0
12, 26220, Note_on_c, 12, 62, 84
12, 26331, Note_on_c, 12, 62, 0
12, 26340, Note_on_c, 12, 58, 76
12, 26354, Note_on_c, 12, 58, 0
12, 26355, Note_on_c, 12, 60, 76
12, 26369, Note_on_c, 12, 60, 0
12, 26370, Note_on_c, 12, 57, 76
12, 26384, Note_on_c, 12, 57, 0
12, 26385, Note_on_c, 12, 58, 76
12, 26399, Note_on_c, 12, 58, 0
12, 26400, Note_on_c, 12, 60, 76
12, 26444, Note_on_c, 12, 60, 0
12, 26460, Note_on_c, 12, 57, 76
12, 26504, Note_on_c, 12, 57, 0
12, 26520, Note_on_c, 12, 65, 76
12, 26564, Note_on_c, 12, 65, 0
12, 26580, Note_on_c, 12, 57, 76
12, 26624, Note_on_c, 12, 57, 0
12, 26640, Note_on_c, 12, 58, 84
12, 26654, Note_on_c, 12, 58, 0
12, 26655, Note_on_c, 12, 58, 84
12, 26669, Note_on_c, 12, 58, 0
12, 26670, Note_on_c, 12, 58, 84
12, 26684, Note_on_c, 12, 58, 0
12, 26685, Note_on_c, 12, 58, 84
12, 26699, Note_on_c, 12, 58, 0
12, 26700, Note_on_c, 12, 58, 84
12, 26714, Note_on_c, 12, 58, 0
12, 26715, Note_on_c, 12, 58, 84
12, 26729, Note_on_c, 12, 58, 0
12, 26730, Note_on_c, 12, 58, 84
12, 26744, Note_on_c, 12, 58, 0
12, 26745, Note_on_c, 12, 58, 84
12, 26759, Note_on_c, 12, 58, 0
12, 26760, Note_on_c, 12, 58, 84
12, 26819, Note_on_c, 12, 58, 0
12, 27060, Note_on_c, 12, 62, 52
12, 27104, Note_on_c, 12, 62, 0
12, 27120, Note_on_c, 12, 58, 52
12, 27164, Note_on_c, 12, 58, 0
12, 27300, Note_on_c, 12, 70, 52
12, 27344, Note_on_c, 12, 70, 0
12, 27360, Note_on_c, 12, 69, 52
12, 27404, Note_on_c, 12, 69, 0
12, 27540, Note_on_c, 12, 75, 52
12, 27584, Note_on_c, 12, 75, 0
12, 27600, Note_on_c, 12, 74, 84
12, 27614, Note_on_c, 12, 74, 0
12, 27615, Note_on_c, 12, 58, 84
12, 27629, Note_on_c, 12, 58, 0
12, 27630, Note_on_c, 12, 58, 84
12, 27644, Note_on_c, 12, 58, 0
12, 27645, Note_on_c, 12, 58, 84
12, 27659, Note_on_c, 12, 58, 0
12, 27660, Note_on_c, 12, 58, 84
12, 27674, Note_on_c, 12, 58, 0
12, 27675, Note_on_c, 12, 58, 84
12, 27689, Note_on_c, 12, 58, 0
12, 27690, Note_on_c, 12, 58, 84
12, 27704, Note_on_c, 12, 58, 0
12, 27705, Note_on_c, 12, 58, 84
12, 27719, Note_on_c, 12, 58, 0
12, 27720, Note_on_c, 12, 58, 84
12, 27779, Note_on_c, 12, 58, 0
12, 28020, Note_on_c, 12, 62, 52
12, 28064, Note_on_c, 12, 62, 0
12, 28080, Note_on_c, 12, 58, 52
12, 28124, Note_on_c, 12, 58, 0
12, 28260, Note_on_c, 12, 64, 52
12, 28304, Note_on_c, 12, 64, 0
12, 28320, Note_on_c, 12, 60, 51
12, 28364, Note_on_c, 12, 60, 0
12, 28500, Note_on_c, 12, 70, 49
12, 28544, Note_on_c, 12, 70, 0
12, 28560, Note_on_c, 12, 69, 49
12, 28604, Note_on_c, 12, 69, 0
12, 28740, Note_on_c, 12, 65, 47
12, 28784, Note_on_c, 12, 65, 0
12, 28800, Note_on_c, 12, 63, 46
12, 28844, Note_on_c, 12, 63, 0
12, 28980, Note_on_c, 12, 62, 44
12, 29024, Note_on_c, 12, 62, 0
12, 29040, Note_on_c, 12, 58, 44
12, 29084, Note_on_c, 12, 58, 0
12, 29220, Note_on_c, 12, 68, 44
12, 29264, Note_on_c, 12, 68, 0
12, 29280, Note_on_c, 12, 67, 44
12, 29324, Note_on_c, 12, 67, 0
12, 29400, Control_c, 12, 11, 96
12, 29460, Note_on_c, 12, 66, 60
12, 29504, Note_on_c, 12, 66, 0
12, 29520, Note_on_c, 12, 65, 60
12, 29520, Control_c, 12, 11, 96
12, 29545, Control_c, 12, 11, 97
12, 29570, Control_c, 12, 11, 99
12, 29595, Control_c, 12, 11, 100
12, 29620, Control_c, 12, 11, 101
12, 29645, Control_c, 12, 11, 102
12, 29670, Control_c, 12, 11, 104
12, 29695, Control_c, 12, 11, 105
12, 29720, Control_c, 12, 11, 106
12, 29745, Control_c, 12, 11, 108
12, 29759, Note_on_c, 12, 65, 0
12, 29760, Note_on_c, 12, 65, 60
12, 29770, Control_c, 12, 11, 109
12, 29795, Control_c, 12, 11, 110
12, 29820, Control_c, 12, 11, 112
12, 29845, Control_c, 12, 11, 113
12, 29870, Control_c, 12, 11, 114
12, 29895, Control_c, 12, 11, 115
12, 29920, Control_c, 12, 11, 117
12, 29945, Control_c, 12, 11, 118
12, 29970, Control_c, 12, 11, 119
12, 29995, Control_c, 12, 11, 121
12, 30020, Control_c, 12, 11, 122
12, 30045, Control_c, 12, 11, 123
12, 30051, Note_on_c, 12, 65, 0
12, 30060, Note_on_c, 12, 65, 60
12, 30070, Control_c, 12, 11, 124
12, 30095, Control_c, 12, 11, 126
12, 30120, Control_c, 12, 11, 127
12, 30179, Note_on_c, 12, 65, 0
12, 30180, Note_on_c, 12, 74, 52
12, 30209, Note_on_c, 12, 74, 0
12, 30210, Note_on_c, 12, 70, 52
12, 30235, Note_on_c, 12, 70, 0
12, 30240, Note_on_c, 12, 69, 52
12, 30284, Note_on_c, 12, 69, 0
12, 30300, Note_on_c, 12, 63, 52
12, 30344, Note_on_c, 12, 63, 0
12, 30360, Note_on_c, 12, 63, 52
12, 30404, Note_on_c, 12, 63, 0
12, 30420, Note_on_c, 12, 65, 52
12, 30434, Note_on_c, 12, 65, 0
12, 30435, Note_on_c, 12, 63, 52
12, 30449, Note_on_c, 12, 63, 0
12, 30450, Note_on_c, 12, 62, 52
12, 30464, Note_on_c, 12, 62, 0
12, 30465, Note_on_c, 12, 63, 52
12, 30476, Note_on_c, 12, 63, 0
12, 30480, Note_on_c, 12, 62, 52
12, 30539, Note_on_c, 12, 62, 0
12, 30600, Note_on_c, 12, 65, 52
12, 30659, Note_on_c, 12, 65, 0
12, 30660, Note_on_c, 12, 70, 53
12, 30719, Note_on_c, 12, 70, 0
12, 30720, Note_on_c, 12, 69, 55
12, 30779, Note_on_c, 12, 69, 0
12, 30780, Note_on_c, 12, 67, 56
12, 30839, Note_on_c, 12, 67, 0
12, 30840, Note_on_c, 12, 65, 58
12, 30899, Note_on_c, 12, 65, 0
12, 30900, Note_on_c, 12, 75, 60
12, 30959, Note_on_c, 12, 75, 0
12, 30960, Note_on_c, 12, 74, 61
12, 31019, Note_on_c, 12, 74, 0
12, 31020, Note_on_c, 12, 72, 63
12, 31079, Note_on_c, 12, 72, 0
12, 31080, Note_on_c, 12, 70, 64
12, 31139, Note_on_c, 12, 70, 0
12, 31260, Note_on_c, 12, 63, 52
12, 31281, Note_on_c, 12, 63, 0
12, 31290, Note_on_c, 12, 60, 52
12, 31311, Note_on_c, 12, 60, 0
12, 31320, Note_on_c, 12, 63, 52
12, 31341, Note_on_c, 12, 63, 0
12, 31350, Note_on_c, 12, 60, 52
12, 31371, Note_on_c, 12, 60, 0
12, 31380, Note_on_c, 12, 63, 52
12, 31401, Note_on_c, 12, 63, 0
12, 31410, Note_on_c, 12, 63, 52
12, 31431, Note_on_c, 12, 63, 0
12, 31440, Note_on_c, 12, 62, 52
12, 31484, Note_on_c, 12, 62, 0
12, 31560, Note_on_c, 12, 70, 52
12, 31604, Note_on_c, 12, 70, 0
12, 31740, Note_on_c, 12, 69, 52
12, 31761, Note_on_c, 12, 69, 0
12, 31770, Note_on_c, 12, 72, 52
12, 31791, Note_on_c, 12, 72, 0
12, 31800, Note_on_c, 12, 70, 52
12, 31844, Note_on_c, 12, 70, 0
12, 32040, Note_on_c, 12, 70, 52
12, 32151, Note_on_c, 12, 70, 0
12, 32220, Note_on_c, 12, 69, 52
12, 32241, Note_on_c, 12, 69, 0
12, 32250, Note_on_c, 12, 72, 52
12, 32271, Note_on_c, 12, 72, 0
12, 32280, Note_on_c, 12, 70, 52
12, 32324, Note_on_c, 12, 70, 0
12, 32520, Note_on_c, 12, 70, 52
12, 32639, Note_on_c, 12, 70, 0
12, 32700, Note_on_c, 12, 69, 52
12, 32721, Note_on_c, 12, 69, 0
12, 32730, Note_on_c, 12, 72, 52
12, 32751, Note_on_c, 12, 72, 0
12, 32760, Note_on_c, 12, 70, 52
12, 32804, Note_on_c, 12, 70, 0
12, 33000, Note_on_c, 12, 70, 52
12, 33119, Note_on_c, 12, 70, 0
12, 34260, Note_on_c, 12, 70, 44
12, 34371, Note_on_c, 12, 70, 0
12, 34380, Note_on_c, 12, 70, 44
12, 34491, Note_on_c, 12, 70, 0
12, 34500, Note_on_c, 12, 70, 44
12, 34739, Note_on_c, 12, 70, 0
12, 36450, Note_on_c, 12, 67, 84
12, 36450, Note_on_c, 12, 58, 84
12, 36471, Note_on_c, 12, 67, 0
12, 36471, Note_on_c, 12, 58, 0
12, 36480, Note_on_c, 12, 58, 84
12, 36480, Note_on_c, 12, 68, 84
12, 36501, Note_on_c, 12, 58, 0
12, 36501, Note_on_c, 12, 68, 0
12, 36510, Note_on_c, 12, 58, 84
12, 36510, Note_on_c, 12, 68, 84
12, 36531, Note_on_c, 12, 58, 0
12, 36531, Note_on_c, 12, 68, 0
12, 36540, Note_on_c, 12, 58, 84
12, 36540, Note_on_c, 12, 68, 84
12, 36561, Note_on_c, 12, 58, 0
12, 36561, Note_on_c, 12, 68, 0
12, 36570, Note_on_c, 12, 58, 84
12, 36570, Note_on_c, 12, 68, 84
12, 36591, Note_on_c, 12, 58, 0
12, 36591, Note_on_c, 12, 68, 0
12, 36600, Note_on_c, 12, 68, 84
12, 36600, Note_on_c, 12, 58, 84
12, 36659, Note_on_c, 12, 68, 0
12, 36659, Note_on_c, 12, 58, 0
12, 36690, Note_on_c, 12, 67, 44
12, 36704, Note_on_c, 12, 67, 0
12, 36705, Note_on_c, 12, 70, 44
12, 36719, Note_on_c, 12, 70, 0
12, 36720, Note_on_c, 12, 68, 44
12, 36809, Note_on_c, 12, 68, 0
12, 36930, Note_on_c, 12, 65, 84
12, 36930, Note_on_c, 12, 58, 84
12, 36951, Note_on_c, 12, 65, 0
12, 36951, Note_on_c, 12, 58, 0
12, 36960, Note_on_c, 12, 58, 84
12, 36960, Note_on_c, 12, 67, 84
12, 36981, Note_on_c, 12, 58, 0
12, 36981, Note_on_c, 12, 67, 0
12, 36990, Note_on_c, 12, 58, 84
12, 36990, Note_on_c, 12, 67, 84
12, 37011, Note_on_c, 12, 58, 0
12, 37011, Note_on_c, 12, 67, 0
12, 37020, Note_on_c, 12, 67, 84
12, 37020, Note_on_c, 12, 58, 84
12, 37041, Note_on_c, 12, 67, 0
12, 37041, Note_on_c, 12, 58, 0
12, 37050, Note_on_c, 12, 58, 84
12, 37050, Note_on_c, 12, 67, 84
12, 37071, Note_on_c, 12, 58, 0
12, 37071, Note_on_c, 12, 67, 0
12, 37080, Note_on_c, 12, 67, 84
12, 37080, Note_on_c, 12, 58, 84
12, 37139, Note_on_c, 12, 67, 0
12, 37139, Note_on_c, 12, 58, 0
12, 37170, Note_on_c, 12, 65, 44
12, 37184, Note_on_c, 12, 65, 0
12, 37185, Note_on_c, 12, 68, 44
12, 37199, Note_on_c, 12, 68, 0
12, 37200, Note_on_c, 12, 67, 44
12, 37289, Note_on_c, 12, 67, 0
12, 37440, Note_on_c, 12, 67, 44
12, 37455, Note_on_c, 12, 67, 0
12, 37460, Note_on_c, 12, 67, 44
12, 37475, Note_on_c, 12, 67, 0
12, 37480, Note_on_c, 12, 67, 44
12, 37495, Note_on_c, 12, 67, 0
12, 37500, Note_on_c, 12, 67, 44
12, 37515, Note_on_c, 12, 67, 0
12, 37520, Note_on_c, 12, 67, 44
12, 37535, Note_on_c, 12, 67, 0
12, 37540, Note_on_c, 12, 67, 44
12, 37555, Note_on_c, 12, 67, 0
12, 37560, Note_on_c, 12, 65, 44
12, 37575, Note_on_c, 12, 65, 0
12, 37580, Note_on_c, 12, 65, 44
12, 37595, Note_on_c, 12, 65, 0
12, 37600, Note_on_c, 12, 65, 44
12, 37615, Note_on_c, 12, 65, 0
12, 37620, Note_on_c, 12, 63, 44
12, 37635, Note_on_c, 12, 63, 0
12, 37640, Note_on_c, 12, 63, 44
12, 37655, Note_on_c, 12, 63, 0
12, 37660, Note_on_c, 12, 63, 44
12, 37675, Note_on_c, 12, 63, 0
12, 37680, Note_on_c, 12, 62, 44
12, 37695, Note_on_c, 12, 62, 0
12, 37700, Note_on_c, 12, 62, 44
12, 37715, Note_on_c, 12, 62, 0
12, 37720, Note_on_c, 12, 62, 44
12, 37735, Note_on_c, 12, 62, 0
12, 37740, Note_on_c, 12, 67, 44
12, 37755, Note_on_c, 12, 67, 0
12, 37760, Note_on_c, 12, 67, 44
12, 37775, Note_on_c, 12, 67, 0
12, 37780, Note_on_c, 12, 67, 44
12, 37795, Note_on_c, 12, 67, 0
12, 37800, Note_on_c, 12, 65, 44
12, 37815, Note_on_c, 12, 65, 0
12, 37820, Note_on_c, 12, 65, 44
12, 37835, Note_on_c, 12, 65, 0
12, 37840, Note_on_c, 12, 65, 44
12, 37855, Note_on_c, 12, 65, 0
12, 37860, Note_on_c, 12, 63, 44
12, 37875, Note_on_c, 12, 63, 0
12, 37880, Note_on_c, 12, 63, 44
12, 37895, Note_on_c, 12, 63, 0
12, 37900, Note_on_c, 12, 63, 44
12, 37915, Note_on_c, 12, 63, 0
12, 37920, Note_on_c, 12, 62, 44
12, 37931, Note_on_c, 12, 62, 0
12, 37935, Note_on_c, 12, 62, 45
12, 37946, Note_on_c, 12, 62, 0
12, 37950, Note_on_c, 12, 67, 46
12, 37961, Note_on_c, 12, 67, 0
12, 37965, Note_on_c, 12, 67, 47
12, 37976, Note_on_c, 12, 67, 0
12, 37980, Note_on_c, 12, 65, 49
12, 37991, Note_on_c, 12, 65, 0
12, 37995, Note_on_c, 12, 65, 50
12, 38006, Note_on_c, 12, 65, 0
12, 38010, Note_on_c, 12, 63, 51
12, 38021, Note_on_c, 12, 63, 0
12, 38025, Note_on_c, 12, 63, 52
12, 38036, Note_on_c, 12, 63, 0
12, 38040, Note_on_c, 12, 62, 54
12, 38051, Note_on_c, 12, 62, 0
12, 38055, Note_on_c, 12, 62, 55
12, 38066, Note_on_c, 12, 62, 0
12, 38070, Note_on_c, 12, 67, 56
12, 38081, Note_on_c, 12, 67, 0
12, 38085, Note_on_c, 12, 67, 57
12, 38096, Note_on_c, 12, 67, 0
12, 38100, Note_on_c, 12, 65, 59
12, 38111, Note_on_c, 12, 65, 0
12, 38115, Note_on_c, 12, 65, 60
12, 38126, Note_on_c, 12, 65, 0
12, 38130, Note_on_c, 12, 63, 61
12, 38141, Note_on_c, 12, 63, 0
12, 38145, Note_on_c, 12, 63, 62
12, 38156, Note_on_c, 12, 63, 0
12, 38160, Note_on_c, 12, 62, 64
12, 38171, Note_on_c, 12, 62, 0
12, 38175, Note_on_c, 12, 62, 65
12, 38186, Note_on_c, 12, 62, 0
12, 38190, Note_on_c, 12, 67, 66
12, 38201, Note_on_c, 12, 67, 0
12, 38205, Note_on_c, 12, 67, 67
12, 38216, Note_on_c, 12, 67, 0
12, 38220, Note_on_c, 12, 65, 69
12, 38231, Note_on_c, 12, 65, 0
12, 38235, Note_on_c, 12, 65, 70
12, 38246, Note_on_c, 12, 65, 0
12, 38250, Note_on_c, 12, 63, 71
12, 38261, Note_on_c, 12, 63, 0
12, 38265, Note_on_c, 12, 63, 72
12, 38276, Note_on_c, 12, 63, 0
12, 38280, Note_on_c, 12, 62, 74
12, 38291, Note_on_c, 12, 62, 0
12, 38295, Note_on_c, 12, 62, 75
12, 38306, Note_on_c, 12, 62, 0
12, 38310, Note_on_c, 12, 67, 76
12, 38321, Note_on_c, 12, 67, 0
12, 38325, Note_on_c, 12, 67, 77
12, 38336, Note_on_c, 12, 67, 0
12, 38340, Note_on_c, 12, 65, 79
12, 38351, Note_on_c, 12, 65, 0
12, 38355, Note_on_c, 12, 65, 80
12, 38366, Note_on_c, 12, 65, 0
12, 38370, Note_on_c, 12, 63, 81
12, 38381, Note_on_c, 12, 63, 0
12, 38385, Note_on_c, 12, 63, 82
12, 38396, Note_on_c, 12, 63, 0
12, 38400, Note_on_c, 12, 62, 84
12, 38411, Note_on_c, 12, 62, 0
12, 38415, Note_on_c, 12, 58, 84
12, 38426, Note_on_c, 12, 58, 0
12, 38430, Note_on_c, 12, 58, 84
12, 38441, Note_on_c, 12, 58, 0
12, 38445, Note_on_c, 12, 58, 84
12, 38456, Note_on_c, 12, 58, 0
12, 38460, Note_on_c, 12, 58, 84
12, 38471, Note_on_c, 12, 58, 0
12, 38475, Note_on_c, 12, 58, 84
12, 38486, Note_on_c, 12, 58, 0
12, 38490, Note_on_c, 12, 58, 84
12, 38501, Note_on_c, 12, 58, 0
12, 38505, Note_on_c, 12, 58, 84
12, 38516, Note_on_c, 12, 58, 0
12, 38520, Note_on_c, 12, 58, 84
12, 38531, Note_on_c, 12, 58, 0
12, 38535, Note_on_c, 12, 58, 84
12, 38546, Note_on_c, 12, 58, 0
12, 38550, Note_on_c, 12, 58, 84
12, 38561, Note_on_c, 12, 58, 0
12, 38565, Note_on_c, 12, 58, 84
12, 38576, Note_on_c, 12, 58, 0
12, 38580, Note_on_c, 12, 58, 84
12, 38591, Note_on_c, 12, 58, 0
12, 38595, Note_on_c, 12, 58, 84
12, 38606, Note_on_c, 12, 58, 0
12, 38610, Note_on_c, 12, 58, 84
12, 38621, Note_on_c, 12, 58, 0
12, 38625, Note_on_c, 12, 58, 84
12, 38636, Note_on_c, 12, 58, 0
12, 38640, Note_on_c, 12, 58, 84
12, 38759, Note_on_c, 12, 58, 0
12, 38759, End_track
13, 0, Start_track
13, 0, Title_t, "Viola "
13, 0, MIDI_port, 0
13, 0, Program_c, 13, 48
13, 0, Control_c, 13, 11, 127
13, 0, Control_c, 13, 10, 70
13, 0, Control_c, 13, 7, 96
13, 720, Program_c, 13, 45
13, 1080, Note_on_c, 13, 53, 40
13, 1199, Note_on_c, 13, 53, 0
13, 1200, Note_on_c, 13, 53, 40
13, 1319, Note_on_c, 13, 53, 0
13, 1680, Note_on_c, 13, 55, 40
13, 1799, Note_on_c, 13, 55, 0
13, 1800, Note_on_c, 13, 58, 40
13, 1919, Note_on_c, 13, 58, 0
13, 1920, Note_on_c, 13, 58, 40
13, 2039, Note_on_c, 13, 58, 0
13, 2100, Note_on_c, 13, 67, 40
13, 2159, Note_on_c, 13, 67, 0
13, 2160, Note_on_c, 13, 66, 40
13, 2279, Note_on_c, 13, 66, 0
13, 2280, Note_on_c, 13, 60, 40
13, 2399, Note_on_c, 13, 60, 0
13, 2400, Note_on_c, 13, 58, 40
13, 2519, Note_on_c, 13, 58, 0
13, 3600, Program_c, 13, 48
13, 3840, Note_on_c, 13, 67, 44
13, 3899, Note_on_c, 13, 67, 0
13, 3960, Note_on_c, 13, 67, 44
13, 4015, Note_on_c, 13, 67, 0
13, 4020, Note_on_c, 13, 57, 84
13, 4041, Note_on_c, 13, 57, 0
13, 4050, Note_on_c, 13, 60, 84
13, 4071, Note_on_c, 13, 60, 0
13, 4080, Note_on_c, 13, 63, 92
13, 4109, Note_on_c, 13, 63, 0
13, 4110, Note_on_c, 13, 63, 84
13, 4251, Note_on_c, 13, 63, 0
13, 4260, Note_on_c, 13, 60, 52
13, 4281, Note_on_c, 13, 60, 0
13, 4290, Note_on_c, 13, 58, 52
13, 4311, Note_on_c, 13, 58, 0
13, 4320, Note_on_c, 13, 57, 52
13, 4364, Note_on_c, 13, 57, 0
13, 4380, Note_on_c, 13, 58, 52
13, 4401, Note_on_c, 13, 58, 0
13, 4410, Note_on_c, 13, 60, 52
13, 4431, Note_on_c, 13, 60, 0
13, 4440, Note_on_c, 13, 53, 52
13, 4484, Note_on_c, 13, 53, 0
13, 4500, Note_on_c, 13, 55, 52
13, 4521, Note_on_c, 13, 55, 0
13, 4530, Note_on_c, 13, 57, 52
13, 4551, Note_on_c, 13, 57, 0
13, 4560, Note_on_c, 13, 58, 52
13, 4679, Note_on_c, 13, 58, 0
13, 4860, Note_on_c, 13, 53, 52
13, 4919, Note_on_c, 13, 53, 0
13, 5100, Note_on_c, 13, 53, 52
13, 5159, Note_on_c, 13, 53, 0
13, 5340, Note_on_c, 13, 53, 52
13, 5399, Note_on_c, 13, 53, 0
13, 5460, Note_on_c, 13, 53, 52
13, 5515, Note_on_c, 13, 53, 0
13, 5520, Note_on_c, 13, 53, 52
13, 5639, Note_on_c, 13, 53, 0
13, 5760, Note_on_c, 13, 53, 52
13, 5781, Note_on_c, 13, 53, 0
13, 5790, Note_on_c, 13, 55, 52
13, 5811, Note_on_c, 13, 55, 0
13, 5820, Note_on_c, 13, 53, 52
13, 5864, Note_on_c, 13, 53, 0
13, 6000, Note_on_c, 13, 53, 52
13, 6021, Note_on_c, 13, 53, 0
13, 6030, Note_on_c, 13, 55, 52
13, 6051, Note_on_c, 13, 55, 0
13, 6060, Note_on_c, 13, 53, 52
13, 6104, Note_on_c, 13, 53, 0
13, 6180, Note_on_c, 13, 63, 76
13, 6201, Note_on_c, 13, 63, 0
13, 6210, Note_on_c, 13, 65, 76
13, 6231, Note_on_c, 13, 65, 0
13, 6240, Note_on_c, 13, 62, 76
13, 6284, Note_on_c, 13, 62, 0
13, 6300, Note_on_c, 13, 63, 84
13, 6321, Note_on_c, 13, 63, 0
13, 6330, Note_on_c, 13, 65, 76
13, 6351, Note_on_c, 13, 65, 0
13, 6360, Note_on_c, 13, 62, 76
13, 6404, Note_on_c, 13, 62, 0
13, 6420, Note_on_c, 13, 63, 84
13, 6441, Note_on_c, 13, 63, 0
13, 6450, Note_on_c, 13, 65, 76
13, 6471, Note_on_c, 13, 65, 0
13, 6480, Note_on_c, 13, 62, 76
13, 6599, Note_on_c, 13, 62, 0
13, 6660, Note_on_c, 13, 57, 52
13, 6681, Note_on_c, 13, 57, 0
13, 6690, Note_on_c, 13, 53, 52
13, 6711, Note_on_c, 13, 53, 0
13, 6720, Note_on_c, 13, 58, 52
13, 6775, Note_on_c, 13, 58, 0
13, 6780, Note_on_c, 13, 57, 52
13, 6805, Note_on_c, 13, 57, 0
13, 6810, Note_on_c, 13, 53, 52
13, 6835, Note_on_c, 13, 53, 0
13, 6840, Note_on_c, 13, 58, 52
13, 6895, Note_on_c, 13, 58, 0
13, 6900, Note_on_c, 13, 57, 52
13, 6925, Note_on_c, 13, 57, 0
13, 6930, Note_on_c, 13, 53, 52
13, 6955, Note_on_c, 13, 53, 0
13, 6960, Note_on_c, 13, 58, 52
13, 7079, Note_on_c, 13, 58, 0
13, 7140, Note_on_c, 13, 63, 76
13, 7165, Note_on_c, 13, 63, 0
13, 7170, Note_on_c, 13, 65, 76
13, 7195, Note_on_c, 13, 65, 0
13, 7200, Note_on_c, 13, 62, 76
13, 7255, Note_on_c, 13, 62, 0
13, 7260, Note_on_c, 13, 63, 84
13, 7285, Note_on_c, 13, 63, 0
13, 7290, Note_on_c, 13, 65, 76
13, 7315, Note_on_c, 13, 65, 0
13, 7320, Note_on_c, 13, 62, 76
13, 7375, Note_on_c, 13, 62, 0
13, 7380, Note_on_c, 13, 63, 84
13, 7405, Note_on_c, 13, 63, 0
13, 7410, Note_on_c, 13, 65, 76
13, 7435, Note_on_c, 13, 65, 0
13, 7440, Note_on_c, 13, 62, 76
13, 7559, Note_on_c, 13, 62, 0
13, 7620, Note_on_c, 13, 63, 73
13, 7645, Note_on_c, 13, 63, 0
13, 7650, Note_on_c, 13, 65, 72
13, 7675, Note_on_c, 13, 65, 0
13, 7680, Note_on_c, 13, 62, 70
13, 7799, Note_on_c, 13, 62, 0
13, 7860, Note_on_c, 13, 63, 60
13, 7885, Note_on_c, 13, 63, 0
13, 7890, Note_on_c, 13, 65, 59
13, 7915, Note_on_c, 13, 65, 0
13, 7920, Note_on_c, 13, 62, 57
13, 8039, Note_on_c, 13, 62, 0
13, 8340, Note_on_c, 13, 57, 50
13, 8361, Note_on_c, 13, 57, 0
13, 8370, Note_on_c, 13, 60, 51
13, 8391, Note_on_c, 13, 60, 0
13, 8400, Note_on_c, 13, 58, 52
13, 8444, Note_on_c, 13, 58, 0
13, 8820, Note_on_c, 13, 59, 66
13, 8841, Note_on_c, 13, 59, 0
13, 8850, Note_on_c, 13, 62, 67
13, 8871, Note_on_c, 13, 62, 0
13, 8880, Note_on_c, 13, 60, 68
13, 8924, Note_on_c, 13, 60, 0
13, 9060, Note_on_c, 13, 57, 74
13, 9081, Note_on_c, 13, 57, 0
13, 9090, Note_on_c, 13, 60, 75
13, 9111, Note_on_c, 13, 60, 0
13, 9120, Note_on_c, 13, 58, 76
13, 9291, Note_on_c, 13, 58, 0
13, 9300, Note_on_c, 13, 55, 76
13, 9344, Note_on_c, 13, 55, 0
13, 9360, Note_on_c, 13, 57, 84
13, 9389, Note_on_c, 13, 57, 0
13, 9390, Note_on_c, 13, 57, 76
13, 9531, Note_on_c, 13, 57, 0
13, 9540, Note_on_c, 13, 53, 76
13, 9584, Note_on_c, 13, 53, 0
13, 9600, Note_on_c, 13, 55, 76
13, 9644, Note_on_c, 13, 55, 0
13, 9660, Note_on_c, 13, 52, 76
13, 9704, Note_on_c, 13, 52, 0
13, 9720, Note_on_c, 13, 48, 76
13, 9764, Note_on_c, 13, 48, 0
13, 9780, Note_on_c, 13, 52, 76
13, 9824, Note_on_c, 13, 52, 0
13, 9840, Note_on_c, 13, 53, 76
13, 9884, Note_on_c, 13, 53, 0
13, 9900, Note_on_c, 13, 57, 76
13, 9944, Note_on_c, 13, 57, 0
13, 9960, Note_on_c, 13, 60, 76
13, 10004, Note_on_c, 13, 60, 0
13, 10020, Note_on_c, 13, 57, 76
13, 10064, Note_on_c, 13, 57, 0
13, 10080, Note_on_c, 13, 58, 76
13, 10135, Note_on_c, 13, 58, 0
13, 10140, Note_on_c, 13, 58, 84
13, 10251, Note_on_c, 13, 58, 0
13, 10260, Note_on_c, 13, 55, 76
13, 10274, Note_on_c, 13, 55, 0
13, 10275, Note_on_c, 13, 57, 76
13, 10289, Note_on_c, 13, 57, 0
13, 10290, Note_on_c, 13, 53, 76
13, 10304, Note_on_c, 13, 53, 0
13, 10305, Note_on_c, 13, 55, 76
13, 10319, Note_on_c, 13, 55, 0
13, 10320, Note_on_c, 13, 57, 76
13, 10375, Note_on_c, 13, 57, 0
13, 10380, Note_on_c, 13, 57, 84
13, 10491, Note_on_c, 13, 57, 0
13, 10500, Note_on_c, 13, 53, 76
13, 10514, Note_on_c, 13, 53, 0
13, 10515, Note_on_c, 13, 55, 76
13, 10529, Note_on_c, 13, 55, 0
13, 10530, Note_on_c, 13, 51, 76
13, 10544, Note_on_c, 13, 51, 0
13, 10545, Note_on_c, 13, 53, 76
13, 10559, Note_on_c, 13, 53, 0
13, 10560, Note_on_c, 13, 55, 76
13, 10604, Note_on_c, 13, 55, 0
13, 10620, Note_on_c, 13, 52, 76
13, 10664, Note_on_c, 13, 52, 0
13, 10680, Note_on_c, 13, 48, 76
13, 10724, Note_on_c, 13, 48, 0
13, 10740, Note_on_c, 13, 52, 76
13, 10784, Note_on_c, 13, 52, 0
13, 10800, Note_on_c, 13, 53, 84
13, 10814, Note_on_c, 13, 53, 0
13, 10815, Note_on_c, 13, 53, 84
13, 10829, Note_on_c, 13, 53, 0
13, 10830, Note_on_c, 13, 53, 84
13, 10844, Note_on_c, 13, 53, 0
13, 10845, Note_on_c, 13, 53, 84
13, 10859, Note_on_c, 13, 53, 0
13, 10860, Note_on_c, 13, 53, 84
13, 10874, Note_on_c, 13, 53, 0
13, 10875, Note_on_c, 13, 53, 84
13, 10889, Note_on_c, 13, 53, 0
13, 10890, Note_on_c, 13, 53, 84
13, 10904, Note_on_c, 13, 53, 0
13, 10905, Note_on_c, 13, 53, 84
13, 10919, Note_on_c, 13, 53, 0
13, 10920, Note_on_c, 13, 53, 84
13, 10979, Note_on_c, 13, 53, 0
13, 11220, Note_on_c, 13, 57, 52
13, 11264, Note_on_c, 13, 57, 0
13, 11280, Note_on_c, 13, 53, 52
13, 11324, Note_on_c, 13, 53, 0
13, 11460, Note_on_c, 13, 59, 52
13, 11504, Note_on_c, 13, 59, 0
13, 11520, Note_on_c, 13, 60, 52
13, 11564, Note_on_c, 13, 60, 0
13, 11700, Note_on_c, 13, 60, 52
13, 11700, Note_on_c, 13, 48, 52
13, 11755, Note_on_c, 13, 60, 0
13, 11755, Note_on_c, 13, 48, 0
13, 11760, Note_on_c, 13, 53, 84
13, 11760, Note_on_c, 13, 65, 84
13, 11774, Note_on_c, 13, 53, 0
13, 11774, Note_on_c, 13, 65, 0
13, 11775, Note_on_c, 13, 53, 84
13, 11789, Note_on_c, 13, 53, 0
13, 11790, Note_on_c, 13, 53, 84
13, 11804, Note_on_c, 13, 53, 0
13, 11805, Note_on_c, 13, 53, 84
13, 11819, Note_on_c, 13, 53, 0
13, 11820, Note_on_c, 13, 53, 84
13, 11834, Note_on_c, 13, 53, 0
13, 11835, Note_on_c, 13, 53, 84
13, 11849, Note_on_c, 13, 53, 0
13, 11850, Note_on_c, 13, 53, 84
13, 11864, Note_on_c, 13, 53, 0
13, 11865, Note_on_c, 13, 53, 84
13, 11879, Note_on_c, 13, 53, 0
13, 11880, Note_on_c, 13, 53, 84
13, 11939, Note_on_c, 13, 53, 0
13, 12180, Note_on_c, 13, 57, 52
13, 12224, Note_on_c, 13, 57, 0
13, 12240, Note_on_c, 13, 53, 52
13, 12284, Note_on_c, 13, 53, 0
13, 12420, Note_on_c, 13, 59, 52
13, 12464, Note_on_c, 13, 59, 0
13, 12480, Note_on_c, 13, 55, 51
13, 12524, Note_on_c, 13, 55, 0
13, 12660, Note_on_c, 13, 53, 49
13, 12704, Note_on_c, 13, 53, 0
13, 12720, Note_on_c, 13, 52, 49
13, 12764, Note_on_c, 13, 52, 0
13, 12900, Note_on_c, 13, 48, 47
13, 12944, Note_on_c, 13, 48, 0
13, 12960, Note_on_c, 13, 58, 46
13, 13004, Note_on_c, 13, 58, 0
13, 13140, Note_on_c, 13, 57, 44
13, 13184, Note_on_c, 13, 57, 0
13, 13200, Note_on_c, 13, 53, 44
13, 13244, Note_on_c, 13, 53, 0
13, 13380, Note_on_c, 13, 51, 44
13, 13424, Note_on_c, 13, 51, 0
13, 13440, Note_on_c, 13, 50, 44
13, 13499, Note_on_c, 13, 50, 0
13, 13560, Control_c, 13, 11, 96
13, 13620, Note_on_c, 13, 49, 60
13, 13679, Note_on_c, 13, 49, 0
13, 13680, Note_on_c, 13, 48, 60
13, 13680, Control_c, 13, 11, 96
13, 13730, Control_c, 13, 11, 99
13, 13780, Control_c, 13, 11, 101
13, 13830, Control_c, 13, 11, 104
13, 13880, Control_c, 13, 11, 106
13, 13919, Note_on_c, 13, 48, 0
13, 13920, Note_on_c, 13, 48, 60
13, 13930, Control_c, 13, 11, 109
13, 13980, Control_c, 13, 11, 112
13, 14030, Control_c, 13, 11, 114
13, 14080, Control_c, 13, 11, 117
13, 14130, Control_c, 13, 11, 119
13, 14180, Control_c, 13, 11, 122
13, 14219, Note_on_c, 13, 48, 0
13, 14220, Note_on_c, 13, 60, 60
13, 14230, Control_c, 13, 11, 124
13, 14280, Control_c, 13, 11, 127
13, 14339, Note_on_c, 13, 60, 0
13, 14340, Note_on_c, 13, 57, 52
13, 14369, Note_on_c, 13, 57, 0
13, 14370, Note_on_c, 13, 60, 52
13, 14395, Note_on_c, 13, 60, 0
13, 14400, Note_on_c, 13, 58, 52
13, 14444, Note_on_c, 13, 58, 0
13, 14460, Note_on_c, 13, 58, 52
13, 14504, Note_on_c, 13, 58, 0
13, 14520, Note_on_c, 13, 58, 52
13, 14564, Note_on_c, 13, 58, 0
13, 14580, Note_on_c, 13, 60, 52
13, 14594, Note_on_c, 13, 60, 0
13, 14595, Note_on_c, 13, 58, 52
13, 14609, Note_on_c, 13, 58, 0
13, 14610, Note_on_c, 13, 57, 52
13, 14624, Note_on_c, 13, 57, 0
13, 14625, Note_on_c, 13, 58, 52
13, 14636, Note_on_c, 13, 58, 0
13, 14640, Note_on_c, 13, 57, 52
13, 14699, Note_on_c, 13, 57, 0
13, 14760, Note_on_c, 13, 48, 52
13, 14819, Note_on_c, 13, 48, 0
13, 14820, Note_on_c, 13, 53, 53
13, 14879, Note_on_c, 13, 53, 0
13, 14880, Note_on_c, 13, 52, 55
13, 14939, Note_on_c, 13, 52, 0
13, 14940, Note_on_c, 13, 50, 56
13, 14999, Note_on_c, 13, 50, 0
13, 15000, Note_on_c, 13, 48, 58
13, 15059, Note_on_c, 13, 48, 0
13, 15060, Note_on_c, 13, 58, 60
13, 15119, Note_on_c, 13, 58, 0
13, 15120, Note_on_c, 13, 57, 61
13, 15179, Note_on_c, 13, 57, 0
13, 15180, Note_on_c, 13, 55, 63
13, 15239, Note_on_c, 13, 55, 0
13, 15240, Note_on_c, 13, 53, 64
13, 15299, Note_on_c, 13, 53, 0
13, 15420, Note_on_c, 13, 58, 52
13, 15441, Note_on_c, 13, 58, 0
13, 15450, Note_on_c, 13, 55, 52
13, 15471, Note_on_c, 13, 55, 0
13, 15480, Note_on_c, 13, 55, 52
13, 15501, Note_on_c, 13, 55, 0
13, 15510, Note_on_c, 13, 58, 52
13, 15531, Note_on_c, 13, 58, 0
13, 15540, Note_on_c, 13, 55, 52
13, 15561, Note_on_c, 13, 55, 0
13, 15570, Note_on_c, 13, 58, 52
13, 15591, Note_on_c, 13, 58, 0
13, 15600, Note_on_c, 13, 53, 52
13, 15711, Note_on_c, 13, 53, 0
13, 15720, Note_on_c, 13, 53, 52
13, 15831, Note_on_c, 13, 53, 0
13, 15900, Note_on_c, 13, 52, 52
13, 15921, Note_on_c, 13, 52, 0
13, 15930, Note_on_c, 13, 55, 52
13, 15951, Note_on_c, 13, 55, 0
13, 15960, Note_on_c, 13, 53, 52
13, 16004, Note_on_c, 13, 53, 0
13, 16200, Note_on_c, 13, 53, 52
13, 16319, Note_on_c, 13, 53, 0
13, 16380, Note_on_c, 13, 52, 52
13, 16401, Note_on_c, 13, 52, 0
13, 16410, Note_on_c, 13, 55, 52
13, 16431, Note_on_c, 13, 55, 0
13, 16440, Note_on_c, 13, 53, 52
13, 16484, Note_on_c, 13, 53, 0
13, 16680, Note_on_c, 13, 53, 52
13, 16799, Note_on_c, 13, 53, 0
13, 16860, Note_on_c, 13, 52, 52
13, 16881, Note_on_c, 13, 52, 0
13, 16890, Note_on_c, 13, 55, 52
13, 16911, Note_on_c, 13, 55, 0
13, 16920, Note_on_c, 13, 53, 52
13, 16964, Note_on_c, 13, 53, 0
13, 17160, Note_on_c, 13, 53, 52
13, 17279, Note_on_c, 13, 53, 0
13, 18420, Note_on_c, 13, 57, 44
13, 18479, Note_on_c, 13, 57, 0
13, 18480, Note_on_c, 13, 58, 44
13, 18535, Note_on_c, 13, 58, 0
13, 18540, Note_on_c, 13, 60, 44
13, 18599, Note_on_c, 13, 60, 0
13, 18600, Note_on_c, 13, 62, 44
13, 18655, Note_on_c, 13, 62, 0
13, 18660, Note_on_c, 13, 53, 44
13, 18839, Note_on_c, 13, 53, 0
13, 19680, Program_c, 13, 45
13, 19800, Note_on_c, 13, 53, 40
13, 19919, Note_on_c, 13, 53, 0
13, 19920, Note_on_c, 13, 53, 40
13, 20039, Note_on_c, 13, 53, 0
13, 20880, Note_on_c, 13, 58, 40
13, 20939, Note_on_c, 13, 58, 0
13, 21000, Note_on_c, 13, 62, 40
13, 21059, Note_on_c, 13, 62, 0
13, 21120, Note_on_c, 13, 65, 40
13, 21179, Note_on_c, 13, 65, 0
13, 21240, Note_on_c, 13, 70, 40
13, 21299, Note_on_c, 13, 70, 0
13, 21360, Note_on_c, 13, 69, 40
13, 21419, Note_on_c, 13, 69, 0
13, 21480, Note_on_c, 13, 63, 40
13, 21480, Note_on_c, 13, 60, 40
13, 21539, Note_on_c, 13, 63, 0
13, 21539, Note_on_c, 13, 60, 0
13, 21540, Note_on_c, 13, 53, 40
13, 21599, Note_on_c, 13, 53, 0
13, 21660, Note_on_c, 13, 53, 40
13, 21719, Note_on_c, 13, 53, 0
13, 21780, Note_on_c, 13, 62, 40
13, 21839, Note_on_c, 13, 62, 0
13, 21900, Note_on_c, 13, 60, 40
13, 21959, Note_on_c, 13, 60, 0
13, 22020, Note_on_c, 13, 53, 40
13, 22020, Note_on_c, 13, 57, 40
13, 22079, Note_on_c, 13, 53, 0
13, 22079, Note_on_c, 13, 57, 0
13, 22140, Note_on_c, 13, 53, 40
13, 22140, Note_on_c, 13, 58, 40
13, 22199, Note_on_c, 13, 53, 0
13, 22199, Note_on_c, 13, 58, 0
13, 22260, Note_on_c, 13, 62, 40
13, 22319, Note_on_c, 13, 62, 0
13, 22380, Note_on_c, 13, 60, 40
13, 22439, Note_on_c, 13, 60, 0
13, 22500, Note_on_c, 13, 57, 40
13, 22500, Note_on_c, 13, 53, 40
13, 22559, Note_on_c, 13, 57, 0
13, 22559, Note_on_c, 13, 53, 0
13, 22620, Note_on_c, 13, 58, 40
13, 22620, Note_on_c, 13, 53, 40
13, 22679, Note_on_c, 13, 58, 0
13, 22679, Note_on_c, 13, 53, 0
13, 22800, Program_c, 13, 48
13, 22860, Note_on_c, 13, 57, 46
13, 22889, Note_on_c, 13, 57, 0
13, 22890, Note_on_c, 13, 58, 48
13, 22915, Note_on_c, 13, 58, 0
13, 22920, Note_on_c, 13, 58, 49
13, 22949, Note_on_c, 13, 58, 0
13, 22950, Note_on_c, 13, 60, 50
13, 22975, Note_on_c, 13, 60, 0
13, 22980, Note_on_c, 13, 60, 52
13, 23009, Note_on_c, 13, 60, 0
13, 23010, Note_on_c, 13, 57, 53
13, 23039, Note_on_c, 13, 57, 0
13, 23100, Note_on_c, 13, 58, 57
13, 23129, Note_on_c, 13, 58, 0
13, 23130, Note_on_c, 13, 60, 58
13, 23155, Note_on_c, 13, 60, 0
13, 23160, Note_on_c, 13, 60, 60
13, 23189, Note_on_c, 13, 60, 0
13, 23190, Note_on_c, 13, 62, 61
13, 23215, Note_on_c, 13, 62, 0
13, 23220, Note_on_c, 13, 62, 62
13, 23249, Note_on_c, 13, 62, 0
13, 23250, Note_on_c, 13, 58, 64
13, 23279, Note_on_c, 13, 58, 0
13, 23340, Note_on_c, 13, 52, 68
13, 23369, Note_on_c, 13, 52, 0
13, 23370, Note_on_c, 13, 53, 69
13, 23395, Note_on_c, 13, 53, 0
13, 23400, Note_on_c, 13, 53, 70
13, 23429, Note_on_c, 13, 53, 0
13, 23430, Note_on_c, 13, 55, 72
13, 23455, Note_on_c, 13, 55, 0
13, 23460, Note_on_c, 13, 55, 73
13, 23489, Note_on_c, 13, 55, 0
13, 23490, Note_on_c, 13, 57, 74
13, 23515, Note_on_c, 13, 57, 0
13, 23520, Note_on_c, 13, 58, 76
13, 23691, Note_on_c, 13, 58, 0
13, 23700, Note_on_c, 13, 55, 76
13, 23744, Note_on_c, 13, 55, 0
13, 23760, Note_on_c, 13, 57, 84
13, 23789, Note_on_c, 13, 57, 0
13, 23790, Note_on_c, 13, 57, 76
13, 23931, Note_on_c, 13, 57, 0
13, 23940, Note_on_c, 13, 53, 76
13, 23984, Note_on_c, 13, 53, 0
13, 24000, Note_on_c, 13, 55, 76
13, 24044, Note_on_c, 13, 55, 0
13, 24060, Note_on_c, 13, 52, 76
13, 24104, Note_on_c, 13, 52, 0
13, 24120, Note_on_c, 13, 48, 76
13, 24164, Note_on_c, 13, 48, 0
13, 24180, Note_on_c, 13, 52, 76
13, 24224, Note_on_c, 13, 52, 0
13, 24240, Note_on_c, 13, 53, 76
13, 24299, Note_on_c, 13, 53, 0
13, 24960, Note_on_c, 13, 63, 84
13, 24989, Note_on_c, 13, 63, 0
13, 24990, Note_on_c, 13, 63, 76
13, 25131, Note_on_c, 13, 63, 0
13, 25140, Note_on_c, 13, 60, 76
13, 25184, Note_on_c, 13, 60, 0
13, 25200, Note_on_c, 13, 62, 84
13, 25229, Note_on_c, 13, 62, 0
13, 25230, Note_on_c, 13, 62, 76
13, 25371, Note_on_c, 13, 62, 0
13, 25380, Note_on_c, 13, 58, 76
13, 25424, Note_on_c, 13, 58, 0
13, 25440, Note_on_c, 13, 60, 76
13, 25484, Note_on_c, 13, 60, 0
13, 25500, Note_on_c, 13, 57, 76
13, 25544, Note_on_c, 13, 57, 0
13, 25560, Note_on_c, 13, 53, 76
13, 25604, Note_on_c, 13, 53, 0
13, 25620, Note_on_c, 13, 57, 76
13, 25664, Note_on_c, 13, 57, 0
13, 25680, Note_on_c, 13, 58, 76
13, 25724, Note_on_c, 13, 58, 0
13, 25740, Note_on_c, 13, 62, 76
13, 25784, Note_on_c, 13, 62, 0
13, 25800, Note_on_c, 13, 65, 76
13, 25844, Note_on_c, 13, 65, 0
13, 25860, Note_on_c, 13, 62, 76
13, 25904, Note_on_c, 13, 62, 0
13, 25920, Note_on_c, 13, 63, 76
13, 25975, Note_on_c, 13, 63, 0
13, 25980, Note_on_c, 13, 63, 84
13, 26091, Note_on_c, 13, 63, 0
13, 26100, Note_on_c, 13, 60, 76
13, 26114, Note_on_c, 13, 60, 0
13, 26115, Note_on_c, 13, 62, 76
13, 26129, Note_on_c, 13, 62, 0
13, 26130, Note_on_c, 13, 58, 76
13, 26144, Note_on_c, 13, 58, 0
13, 26145, Note_on_c, 13, 60, 76
13, 26159, Note_on_c, 13, 60, 0
13, 26160, Note_on_c, 13, 62, 76
13, 26215, Note_on_c, 13, 62, 0
13, 26220, Note_on_c, 13, 62, 84
13, 26331, Note_on_c, 13, 62, 0
13, 26340, Note_on_c, 13, 58, 76
13, 26354, Note_on_c, 13, 58, 0
13, 26355, Note_on_c, 13, 60, 76
13, 26369, Note_on_c, 13, 60, 0
13, 26370, Note_on_c, 13, 57, 76
13, 26384, Note_on_c, 13, 57, 0
13, 26385, Note_on_c, 13, 58, 76
13, 26399, Note_on_c, 13, 58, 0
13, 26400, Note_on_c, 13, 60, 76
13, 26444, Note_on_c, 13, 60, 0
13, 26460, Note_on_c, 13, 57, 76
13, 26504, Note_on_c, 13, 57, 0
13, 26520, Note_on_c, 13, 53, 76
13, 26564, Note_on_c, 13, 53, 0
13, 26580, Note_on_c, 13, 57, 76
13, 26624, Note_on_c, 13, 57, 0
13, 26640, Note_on_c, 13, 58, 84
13, 26654, Note_on_c, 13, 58, 0
13, 26655, Note_on_c, 13, 58, 84
13, 26669, Note_on_c, 13, 58, 0
13, 26670, Note_on_c, 13, 58, 84
13, 26684, Note_on_c, 13, 58, 0
13, 26685, Note_on_c, 13, 58, 84
13, 26699, Note_on_c, 13, 58, 0
13, 26700, Note_on_c, 13, 58, 84
13, 26714, Note_on_c, 13, 58, 0
13, 26715, Note_on_c, 13, 58, 84
13, 26729, Note_on_c, 13, 58, 0
13, 26730, Note_on_c, 13, 58, 84
13, 26744, Note_on_c, 13, 58, 0
13, 26745, Note_on_c, 13, 58, 84
13, 26759, Note_on_c, 13, 58, 0
13, 26760, Note_on_c, 13, 58, 84
13, 26819, Note_on_c, 13, 58, 0
13, 27300, Note_on_c, 13, 58, 52
13, 27344, Note_on_c, 13, 58, 0
13, 27360, Note_on_c, 13, 57, 52
13, 27404, Note_on_c, 13, 57, 0
13, 27540, Note_on_c, 13, 60, 52
13, 27540, Note_on_c, 13, 53, 52
13, 27584, Note_on_c, 13, 60, 0
13, 27584, Note_on_c, 13, 53, 0
13, 27600, Note_on_c, 13, 58, 84
13, 27614, Note_on_c, 13, 58, 0
13, 27615, Note_on_c, 13, 58, 84
13, 27629, Note_on_c, 13, 58, 0
13, 27630, Note_on_c, 13, 58, 84
13, 27644, Note_on_c, 13, 58, 0
13, 27645, Note_on_c, 13, 58, 84
13, 27659, Note_on_c, 13, 58, 0
13, 27660, Note_on_c, 13, 58, 84
13, 27674, Note_on_c, 13, 58, 0
13, 27675, Note_on_c, 13, 58, 84
13, 27689, Note_on_c, 13, 58, 0
13, 27690, Note_on_c, 13, 58, 84
13, 27704, Note_on_c, 13, 58, 0
13, 27705, Note_on_c, 13, 58, 84
13, 27719, Note_on_c, 13, 58, 0
13, 27720, Note_on_c, 13, 58, 84
13, 27779, Note_on_c, 13, 58, 0
13, 28260, Note_on_c, 13, 52, 52
13, 28304, Note_on_c, 13, 52, 0
13, 28320, Note_on_c, 13, 48, 52
13, 28364, Note_on_c, 13, 48, 0
13, 28500, Note_on_c, 13, 58, 52
13, 28544, Note_on_c, 13, 58, 0
13, 28560, Note_on_c, 13, 57, 51
13, 28604, Note_on_c, 13, 57, 0
13, 28740, Note_on_c, 13, 53, 48
13, 28784, Note_on_c, 13, 53, 0
13, 28800, Note_on_c, 13, 51, 47
13, 28844, Note_on_c, 13, 51, 0
13, 28980, Note_on_c, 13, 50, 44
13, 29024, Note_on_c, 13, 50, 0
13, 29040, Note_on_c, 13, 58, 44
13, 29084, Note_on_c, 13, 58, 0
13, 29220, Note_on_c, 13, 56, 44
13, 29264, Note_on_c, 13, 56, 0
13, 29280, Note_on_c, 13, 55, 44
13, 29324, Note_on_c, 13, 55, 0
13, 29430, Control_c, 13, 11, 96
13, 29460, Note_on_c, 13, 54, 60
13, 29504, Note_on_c, 13, 54, 0
13, 29520, Note_on_c, 13, 53, 60
13, 29520, Control_c, 13, 11, 96
13, 29575, Control_c, 13, 11, 99
13, 29630, Control_c, 13, 11, 101
13, 29685, Control_c, 13, 11, 104
13, 29740, Control_c, 13, 11, 106
13, 29759, Note_on_c, 13, 53, 0
13, 29760, Note_on_c, 13, 53, 60
13, 29795, Control_c, 13, 11, 109
13, 29850, Control_c, 13, 11, 112
13, 29905, Control_c, 13, 11, 114
13, 29960, Control_c, 13, 11, 117
13, 30015, Control_c, 13, 11, 119
13, 30051, Note_on_c, 13, 53, 0
13, 30060, Note_on_c, 13, 65, 60
13, 30070, Control_c, 13, 11, 122
13, 30125, Control_c, 13, 11, 124
13, 30179, Note_on_c, 13, 65, 0
13, 30180, Control_c, 13, 11, 127
13, 30180, Note_on_c, 13, 62, 52
13, 30209, Note_on_c, 13, 62, 0
13, 30210, Note_on_c, 13, 58, 52
13, 30235, Note_on_c, 13, 58, 0
13, 30240, Note_on_c, 13, 57, 52
13, 30284, Note_on_c, 13, 57, 0
13, 30300, Note_on_c, 13, 60, 52
13, 30344, Note_on_c, 13, 60, 0
13, 30360, Note_on_c, 13, 60, 52
13, 30404, Note_on_c, 13, 60, 0
13, 30420, Note_on_c, 13, 62, 52
13, 30434, Note_on_c, 13, 62, 0
13, 30435, Note_on_c, 13, 60, 52
13, 30449, Note_on_c, 13, 60, 0
13, 30450, Note_on_c, 13, 58, 52
13, 30464, Note_on_c, 13, 58, 0
13, 30465, Note_on_c, 13, 60, 52
13, 30476, Note_on_c, 13, 60, 0
13, 30480, Note_on_c, 13, 58, 52
13, 30539, Note_on_c, 13, 58, 0
13, 30600, Note_on_c, 13, 53, 52
13, 30659, Note_on_c, 13, 53, 0
13, 30660, Note_on_c, 13, 58, 53
13, 30719, Note_on_c, 13, 58, 0
13, 30720, Note_on_c, 13, 57, 55
13, 30779, Note_on_c, 13, 57, 0
13, 30780, Note_on_c, 13, 55, 56
13, 30839, Note_on_c, 13, 55, 0
13, 30840, Note_on_c, 13, 53, 58
13, 30899, Note_on_c, 13, 53, 0
13, 30900, Note_on_c, 13, 63, 60
13, 30959, Note_on_c, 13, 63, 0
13, 30960, Note_on_c, 13, 62, 61
13, 31019, Note_on_c, 13, 62, 0
13, 31020, Note_on_c, 13, 60, 63
13, 31079, Note_on_c, 13, 60, 0
13, 31080, Note_on_c, 13, 58, 64
13, 31139, Note_on_c, 13, 58, 0
13, 31260, Note_on_c, 13, 60, 52
13, 31281, Note_on_c, 13, 60, 0
13, 31290, Note_on_c, 13, 57, 52
13, 31311, Note_on_c, 13, 57, 0
13, 31320, Note_on_c, 13, 60, 52
13, 31341, Note_on_c, 13, 60, 0
13, 31350, Note_on_c, 13, 57, 52
13, 31371, Note_on_c, 13, 57, 0
13, 31380, Note_on_c, 13, 60, 52
13, 31401, Note_on_c, 13, 60, 0
13, 31410, Note_on_c, 13, 60, 52
13, 31431, Note_on_c, 13, 60, 0
13, 31440, Note_on_c, 13, 58, 52
13, 31529, Note_on_c, 13, 58, 0
13, 31560, Note_on_c, 13, 58, 52
13, 31649, Note_on_c, 13, 58, 0
13, 31740, Note_on_c, 13, 57, 52
13, 31761, Note_on_c, 13, 57, 0
13, 31770, Note_on_c, 13, 60, 52
13, 31791, Note_on_c, 13, 60, 0
13, 31800, Note_on_c, 13, 58, 52
13, 31844, Note_on_c, 13, 58, 0
13, 32040, Note_on_c, 13, 58, 52
13, 32159, Note_on_c, 13, 58, 0
13, 32220, Note_on_c, 13, 57, 52
13, 32241, Note_on_c, 13, 57, 0
13, 32250, Note_on_c, 13, 60, 52
13, 32271, Note_on_c, 13, 60, 0
13, 32280, Note_on_c, 13, 58, 52
13, 32324, Note_on_c, 13, 58, 0
13, 32520, Note_on_c, 13, 58, 52
13, 32639, Note_on_c, 13, 58, 0
13, 32700, Note_on_c, 13, 57, 52
13, 32721, Note_on_c, 13, 57, 0
13, 32730, Note_on_c, 13, 60, 52
13, 32751, Note_on_c, 13, 60, 0
13, 32760, Note_on_c, 13, 58, 52
13, 32804, Note_on_c, 13, 58, 0
13, 33000, Note_on_c, 13, 58, 52
13, 33119, Note_on_c, 13, 58, 0
13, 34260, Note_on_c, 13, 50, 44
13, 34319, Note_on_c, 13, 50, 0
13, 34320, Note_on_c, 13, 51, 44
13, 34375, Note_on_c, 13, 51, 0
13, 34380, Note_on_c, 13, 53, 44
13, 34439, Note_on_c, 13, 53, 0
13, 34440, Note_on_c, 13, 55, 44
13, 34495, Note_on_c, 13, 55, 0
13, 34500, Note_on_c, 13, 50, 44
13, 34739, Note_on_c, 13, 50, 0
13, 36450, Note_on_c, 13, 55, 84
13, 36450, Note_on_c, 13, 51, 84
13, 36471, Note_on_c, 13, 55, 0
13, 36471, Note_on_c, 13, 51, 0
13, 36480, Note_on_c, 13, 53, 84
13, 36480, Note_on_c, 13, 56, 84
13, 36501, Note_on_c, 13, 53, 0
13, 36501, Note_on_c, 13, 56, 0
13, 36510, Note_on_c, 13, 53, 84
13, 36510, Note_on_c, 13, 56, 84
13, 36531, Note_on_c, 13, 53, 0
13, 36531, Note_on_c, 13, 56, 0
13, 36540, Note_on_c, 13, 53, 84
13, 36540, Note_on_c, 13, 56, 84
13, 36561, Note_on_c, 13, 53, 0
13, 36561, Note_on_c, 13, 56, 0
13, 36570, Note_on_c, 13, 53, 84
13, 36570, Note_on_c, 13, 56, 84
13, 36591, Note_on_c, 13, 53, 0
13, 36591, Note_on_c, 13, 56, 0
13, 36600, Note_on_c, 13, 56, 84
13, 36600, Note_on_c, 13, 53, 84
13, 36659, Note_on_c, 13, 56, 0
13, 36659, Note_on_c, 13, 53, 0
13, 36690, Note_on_c, 13, 55, 44
13, 36704, Note_on_c, 13, 55, 0
13, 36705, Note_on_c, 13, 58, 44
13, 36719, Note_on_c, 13, 58, 0
13, 36720, Note_on_c, 13, 56, 44
13, 36809, Note_on_c, 13, 56, 0
13, 36930, Note_on_c, 13, 53, 84
13, 36930, Note_on_c, 13, 50, 84
13, 36951, Note_on_c, 13, 53, 0
13, 36951, Note_on_c, 13, 50, 0
13, 36960, Note_on_c, 13, 51, 84
13, 36960, Note_on_c, 13, 55, 84
13, 36981, Note_on_c, 13, 51, 0
13, 36981, Note_on_c, 13, 55, 0
13, 36990, Note_on_c, 13, 51, 84
13, 36990, Note_on_c, 13, 55, 84
13, 37011, Note_on_c, 13, 51, 0
13, 37011, Note_on_c, 13, 55, 0
13, 37020, Note_on_c, 13, 55, 84
13, 37020, Note_on_c, 13, 51, 84
13, 37041, Note_on_c, 13, 55, 0
13, 37041, Note_on_c, 13, 51, 0
13, 37050, Note_on_c, 13, 51, 84
13, 37050, Note_on_c, 13, 55, 84
13, 37071, Note_on_c, 13, 51, 0
13, 37071, Note_on_c, 13, 55, 0
13, 37080, Note_on_c, 13, 55, 84
13, 37080, Note_on_c, 13, 51, 84
13, 37139, Note_on_c, 13, 55, 0
13, 37139, Note_on_c, 13, 51, 0
13, 37170, Note_on_c, 13, 53, 44
13, 37184, Note_on_c, 13, 53, 0
13, 37185, Note_on_c, 13, 56, 44
13, 37199, Note_on_c, 13, 56, 0
13, 37200, Note_on_c, 13, 55, 44
13, 37289, Note_on_c, 13, 55, 0
13, 37440, Note_on_c, 13, 63, 44
13, 37455, Note_on_c, 13, 63, 0
13, 37460, Note_on_c, 13, 63, 44
13, 37475, Note_on_c, 13, 63, 0
13, 37480, Note_on_c, 13, 63, 44
13, 37495, Note_on_c, 13, 63, 0
13, 37500, Note_on_c, 13, 63, 44
13, 37515, Note_on_c, 13, 63, 0
13, 37520, Note_on_c, 13, 63, 44
13, 37535, Note_on_c, 13, 63, 0
13, 37540, Note_on_c, 13, 63, 44
13, 37555, Note_on_c, 13, 63, 0
13, 37560, Note_on_c, 13, 62, 44
13, 37575, Note_on_c, 13, 62, 0
13, 37580, Note_on_c, 13, 62, 44
13, 37595, Note_on_c, 13, 62, 0
13, 37600, Note_on_c, 13, 62, 44
13, 37615, Note_on_c, 13, 62, 0
13, 37620, Note_on_c, 13, 60, 44
13, 37635, Note_on_c, 13, 60, 0
13, 37640, Note_on_c, 13, 60, 44
13, 37655, Note_on_c, 13, 60, 0
13, 37660, Note_on_c, 13, 60, 44
13, 37675, Note_on_c, 13, 60, 0
13, 37680, Note_on_c, 13, 58, 44
13, 37695, Note_on_c, 13, 58, 0
13, 37700, Note_on_c, 13, 58, 44
13, 37715, Note_on_c, 13, 58, 0
13, 37720, Note_on_c, 13, 58, 44
13, 37735, Note_on_c, 13, 58, 0
13, 37740, Note_on_c, 13, 63, 44
13, 37755, Note_on_c, 13, 63, 0
13, 37760, Note_on_c, 13, 63, 44
13, 37775, Note_on_c, 13, 63, 0
13, 37780, Note_on_c, 13, 63, 44
13, 37795, Note_on_c, 13, 63, 0
13, 37800, Note_on_c, 13, 62, 44
13, 37815, Note_on_c, 13, 62, 0
13, 37820, Note_on_c, 13, 62, 44
13, 37835, Note_on_c, 13, 62, 0
13, 37840, Note_on_c, 13, 62, 44
13, 37855, Note_on_c, 13, 62, 0
13, 37860, Note_on_c, 13, 60, 44
13, 37875, Note_on_c, 13, 60, 0
13, 37880, Note_on_c, 13, 60, 44
13, 37895, Note_on_c, 13, 60, 0
13, 37900, Note_on_c, 13, 60, 44
13, 37915, Note_on_c, 13, 60, 0
13, 37920, Note_on_c, 13, 58, 44
13, 37931, Note_on_c, 13, 58, 0
13, 37935, Note_on_c, 13, 58, 45
13, 37946, Note_on_c, 13, 58, 0
13, 37950, Note_on_c, 13, 63, 46
13, 37961, Note_on_c, 13, 63, 0
13, 37965, Note_on_c, 13, 63, 47
13, 37976, Note_on_c, 13, 63, 0
13, 37980, Note_on_c, 13, 62, 49
13, 37991, Note_on_c, 13, 62, 0
13, 37995, Note_on_c, 13, 62, 50
13, 38006, Note_on_c, 13, 62, 0
13, 38010, Note_on_c, 13, 60, 51
13, 38021, Note_on_c, 13, 60, 0
13, 38025, Note_on_c, 13, 60, 52
13, 38036, Note_on_c, 13, 60, 0
13, 38040, Note_on_c, 13, 58, 54
13, 38051, Note_on_c, 13, 58, 0
13, 38055, Note_on_c, 13, 58, 55
13, 38066, Note_on_c, 13, 58, 0
13, 38070, Note_on_c, 13, 63, 56
13, 38081, Note_on_c, 13, 63, 0
13, 38085, Note_on_c, 13, 63, 57
13, 38096, Note_on_c, 13, 63, 0
13, 38100, Note_on_c, 13, 62, 59
13, 38111, Note_on_c, 13, 62, 0
13, 38115, Note_on_c, 13, 62, 60
13, 38126, Note_on_c, 13, 62, 0
13, 38130, Note_on_c, 13, 60, 61
13, 38141, Note_on_c, 13, 60, 0
13, 38145, Note_on_c, 13, 60, 62
13, 38156, Note_on_c, 13, 60, 0
13, 38160, Note_on_c, 13, 58, 64
13, 38171, Note_on_c, 13, 58, 0
13, 38175, Note_on_c, 13, 58, 65
13, 38186, Note_on_c, 13, 58, 0
13, 38190, Note_on_c, 13, 63, 66
13, 38201, Note_on_c, 13, 63, 0
13, 38205, Note_on_c, 13, 63, 67
13, 38216, Note_on_c, 13, 63, 0
13, 38220, Note_on_c, 13, 62, 69
13, 38231, Note_on_c, 13, 62, 0
13, 38235, Note_on_c, 13, 62, 70
13, 38246, Note_on_c, 13, 62, 0
13, 38250, Note_on_c, 13, 60, 71
13, 38261, Note_on_c, 13, 60, 0
13, 38265, Note_on_c, 13, 60, 72
13, 38276, Note_on_c, 13, 60, 0
13, 38280, Note_on_c, 13, 58, 74
13, 38291, Note_on_c, 13, 58, 0
13, 38295, Note_on_c, 13, 58, 75
13, 38306, Note_on_c, 13, 58, 0
13, 38310, Note_on_c, 13, 63, 76
13, 38321, Note_on_c, 13, 63, 0
13, 38325, Note_on_c, 13, 63, 77
13, 38336, Note_on_c, 13, 63, 0
13, 38340, Note_on_c, 13, 62, 79
13, 38351, Note_on_c, 13, 62, 0
13, 38355, Note_on_c, 13, 62, 80
13, 38366, Note_on_c, 13, 62, 0
13, 38370, Note_on_c, 13, 60, 81
13, 38381, Note_on_c, 13, 60, 0
13, 38385, Note_on_c, 13, 60, 82
13, 38396, Note_on_c, 13, 60, 0
13, 38400, Note_on_c, 13, 58, 84
13, 38411, Note_on_c, 13, 58, 0
13, 38415, Note_on_c, 13, 58, 84
13, 38426, Note_on_c, 13, 58, 0
13, 38430, Note_on_c, 13, 58, 84
13, 38441, Note_on_c, 13, 58, 0
13, 38445, Note_on_c, 13, 58, 84
13, 38456, Note_on_c, 13, 58, 0
13, 38460, Note_on_c, 13, 58, 84
13, 38471, Note_on_c, 13, 58, 0
13, 38475, Note_on_c, 13, 58, 84
13, 38486, Note_on_c, 13, 58, 0
13, 38490, Note_on_c, 13, 58, 84
13, 38501, Note_on_c, 13, 58, 0
13, 38505, Note_on_c, 13, 58, 84
13, 38516, Note_on_c, 13, 58, 0
13, 38520, Note_on_c, 13, 58, 84
13, 38531, Note_on_c, 13, 58, 0
13, 38535, Note_on_c, 13, 58, 84
13, 38546, Note_on_c, 13, 58, 0
13, 38550, Note_on_c, 13, 58, 84
13, 38561, Note_on_c, 13, 58, 0
13, 38565, Note_on_c, 13, 58, 84
13, 38576, Note_on_c, 13, 58, 0
13, 38580, Note_on_c, 13, 58, 84
13, 38591, Note_on_c, 13, 58, 0
13, 38595, Note_on_c, 13, 58, 84
13, 38606, Note_on_c, 13, 58, 0
13, 38610, Note_on_c, 13, 58, 84
13, 38621, Note_on_c, 13, 58, 0
13, 38625, Note_on_c, 13, 58, 84
13, 38636, Note_on_c, 13, 58, 0
13, 38640, Note_on_c, 13, 58, 84
13, 38759, Note_on_c, 13, 58, 0
13, 38759, End_track
14, 0, Start_track
14, 0, Title_t, "Cello"
14, 0, MIDI_port, 0
14, 0, Program_c, 14, 48
14, 0, Control_c, 14, 7, 96
14, 0, Control_c, 14, 10, 90
14, 0, Control_c, 14, 11, 127
14, 1200, Note_on_c, 14, 46, 44
14, 1289, Note_on_c, 14, 46, 0
14, 1380, Note_on_c, 14, 46, 44
14, 1401, Note_on_c, 14, 46, 0
14, 1410, Note_on_c, 14, 48, 44
14, 1431, Note_on_c, 14, 48, 0
14, 1440, Note_on_c, 14, 50, 44
14, 1484, Note_on_c, 14, 50, 0
14, 1500, Note_on_c, 14, 50, 44
14, 1521, Note_on_c, 14, 50, 0
14, 1530, Note_on_c, 14, 51, 44
14, 1551, Note_on_c, 14, 51, 0
14, 1560, Note_on_c, 14, 53, 44
14, 1604, Note_on_c, 14, 53, 0
14, 1620, Note_on_c, 14, 54, 44
14, 1641, Note_on_c, 14, 54, 0
14, 1650, Note_on_c, 14, 50, 44
14, 1671, Note_on_c, 14, 50, 0
14, 1680, Note_on_c, 14, 55, 44
14, 1799, Note_on_c, 14, 55, 0
14, 2880, Note_on_c, 14, 43, 44
14, 2969, Note_on_c, 14, 43, 0
14, 3060, Note_on_c, 14, 43, 44
14, 3081, Note_on_c, 14, 43, 0
14, 3090, Note_on_c, 14, 45, 44
14, 3111, Note_on_c, 14, 45, 0
14, 3120, Note_on_c, 14, 46, 44
14, 3164, Note_on_c, 14, 46, 0
14, 3180, Note_on_c, 14, 46, 44
14, 3201, Note_on_c, 14, 46, 0
14, 3210, Note_on_c, 14, 48, 44
14, 3231, Note_on_c, 14, 48, 0
14, 3240, Note_on_c, 14, 50, 44
14, 3284, Note_on_c, 14, 50, 0
14, 3300, Note_on_c, 14, 50, 44
14, 3321, Note_on_c, 14, 50, 0
14, 3330, Note_on_c, 14, 46, 44
14, 3351, Note_on_c, 14, 46, 0
14, 3360, Note_on_c, 14, 51, 44
14, 3479, Note_on_c, 14, 51, 0
14, 4020, Note_on_c, 14, 41, 84
14, 4251, Note_on_c, 14, 41, 0
14, 4260, Note_on_c, 14, 41, 52
14, 4304, Note_on_c, 14, 41, 0
14, 4320, Note_on_c, 14, 41, 52
14, 4364, Note_on_c, 14, 41, 0
14, 4380, Note_on_c, 14, 41, 52
14, 4424, Note_on_c, 14, 41, 0
14, 4440, Note_on_c, 14, 41, 52
14, 4484, Note_on_c, 14, 41, 0
14, 4500, Note_on_c, 14, 41, 52
14, 4544, Note_on_c, 14, 41, 0
14, 4560, Note_on_c, 14, 46, 52
14, 4604, Note_on_c, 14, 46, 0
14, 4620, Note_on_c, 14, 53, 52
14, 4641, Note_on_c, 14, 53, 0
14, 4650, Note_on_c, 14, 55, 52
14, 4671, Note_on_c, 14, 55, 0
14, 4680, Note_on_c, 14, 46, 52
14, 4724, Note_on_c, 14, 46, 0
14, 4860, Note_on_c, 14, 45, 52
14, 4881, Note_on_c, 14, 45, 0
14, 4890, Note_on_c, 14, 48, 52
14, 4911, Note_on_c, 14, 48, 0
14, 4920, Note_on_c, 14, 41, 52
14, 4964, Note_on_c, 14, 41, 0
14, 5100, Note_on_c, 14, 46, 52
14, 5121, Note_on_c, 14, 46, 0
14, 5130, Note_on_c, 14, 50, 52
14, 5151, Note_on_c, 14, 50, 0
14, 5160, Note_on_c, 14, 41, 52
14, 5204, Note_on_c, 14, 41, 0
14, 5340, Note_on_c, 14, 53, 52
14, 5395, Note_on_c, 14, 53, 0
14, 5400, Note_on_c, 14, 41, 52
14, 5455, Note_on_c, 14, 41, 0
14, 5460, Note_on_c, 14, 53, 52
14, 5515, Note_on_c, 14, 53, 0
14, 5520, Note_on_c, 14, 46, 52
14, 5575, Note_on_c, 14, 46, 0
14, 5580, Note_on_c, 14, 53, 52
14, 5601, Note_on_c, 14, 53, 0
14, 5610, Note_on_c, 14, 55, 52
14, 5631, Note_on_c, 14, 55, 0
14, 5640, Note_on_c, 14, 46, 52
14, 5699, Note_on_c, 14, 46, 0
14, 5820, Note_on_c, 14, 45, 52
14, 5841, Note_on_c, 14, 45, 0
14, 5850, Note_on_c, 14, 48, 52
14, 5871, Note_on_c, 14, 48, 0
14, 5880, Note_on_c, 14, 41, 52
14, 5924, Note_on_c, 14, 41, 0
14, 6060, Note_on_c, 14, 46, 52
14, 6081, Note_on_c, 14, 46, 0
14, 6090, Note_on_c, 14, 50, 52
14, 6111, Note_on_c, 14, 50, 0
14, 6120, Note_on_c, 14, 46, 52
14, 6164, Note_on_c, 14, 46, 0
14, 6180, Note_on_c, 14, 51, 76
14, 6224, Note_on_c, 14, 51, 0
14, 6240, Note_on_c, 14, 46, 76
14, 6284, Note_on_c, 14, 46, 0
14, 6300, Note_on_c, 14, 51, 84
14, 6344, Note_on_c, 14, 51, 0
14, 6360, Note_on_c, 14, 46, 76
14, 6404, Note_on_c, 14, 46, 0
14, 6420, Note_on_c, 14, 51, 84
14, 6464, Note_on_c, 14, 51, 0
14, 6480, Note_on_c, 14, 46, 76
14, 6599, Note_on_c, 14, 46, 0
14, 7140, Note_on_c, 14, 51, 76
14, 7184, Note_on_c, 14, 51, 0
14, 7200, Note_on_c, 14, 46, 76
14, 7244, Note_on_c, 14, 46, 0
14, 7260, Note_on_c, 14, 51, 84
14, 7304, Note_on_c, 14, 51, 0
14, 7320, Note_on_c, 14, 46, 76
14, 7364, Note_on_c, 14, 46, 0
14, 7380, Note_on_c, 14, 51, 84
14, 7424, Note_on_c, 14, 51, 0
14, 7440, Note_on_c, 14, 46, 76
14, 7559, Note_on_c, 14, 46, 0
14, 7620, Note_on_c, 14, 51, 73
14, 7675, Note_on_c, 14, 51, 0
14, 7680, Note_on_c, 14, 46, 70
14, 7799, Note_on_c, 14, 46, 0
14, 7860, Note_on_c, 14, 51, 60
14, 7915, Note_on_c, 14, 51, 0
14, 7920, Note_on_c, 14, 46, 57
14, 8039, Note_on_c, 14, 46, 0
14, 8220, Note_on_c, 14, 45, 46
14, 8241, Note_on_c, 14, 45, 0
14, 8250, Note_on_c, 14, 48, 47
14, 8271, Note_on_c, 14, 48, 0
14, 8280, Note_on_c, 14, 46, 48
14, 8324, Note_on_c, 14, 46, 0
14, 8700, Note_on_c, 14, 47, 62
14, 8721, Note_on_c, 14, 47, 0
14, 8730, Note_on_c, 14, 50, 63
14, 8751, Note_on_c, 14, 50, 0
14, 8760, Note_on_c, 14, 48, 64
14, 8804, Note_on_c, 14, 48, 0
14, 9180, Note_on_c, 14, 47, 76
14, 9201, Note_on_c, 14, 47, 0
14, 9210, Note_on_c, 14, 50, 76
14, 9231, Note_on_c, 14, 50, 0
14, 9240, Note_on_c, 14, 48, 76
14, 9284, Note_on_c, 14, 48, 0
14, 9420, Note_on_c, 14, 47, 76
14, 9441, Note_on_c, 14, 47, 0
14, 9450, Note_on_c, 14, 50, 76
14, 9471, Note_on_c, 14, 50, 0
14, 9480, Note_on_c, 14, 48, 76
14, 9524, Note_on_c, 14, 48, 0
14, 9660, Note_on_c, 14, 47, 76
14, 9681, Note_on_c, 14, 47, 0
14, 9690, Note_on_c, 14, 50, 76
14, 9711, Note_on_c, 14, 50, 0
14, 9720, Note_on_c, 14, 48, 76
14, 9764, Note_on_c, 14, 48, 0
14, 9900, Note_on_c, 14, 47, 76
14, 9921, Note_on_c, 14, 47, 0
14, 9930, Note_on_c, 14, 50, 76
14, 9951, Note_on_c, 14, 50, 0
14, 9960, Note_on_c, 14, 48, 76
14, 10004, Note_on_c, 14, 48, 0
14, 10140, Note_on_c, 14, 47, 76
14, 10161, Note_on_c, 14, 47, 0
14, 10170, Note_on_c, 14, 50, 76
14, 10191, Note_on_c, 14, 50, 0
14, 10200, Note_on_c, 14, 48, 76
14, 10244, Note_on_c, 14, 48, 0
14, 10380, Note_on_c, 14, 47, 76
14, 10401, Note_on_c, 14, 47, 0
14, 10410, Note_on_c, 14, 50, 76
14, 10431, Note_on_c, 14, 50, 0
14, 10440, Note_on_c, 14, 48, 76
14, 10484, Note_on_c, 14, 48, 0
14, 10620, Note_on_c, 14, 47, 76
14, 10641, Note_on_c, 14, 47, 0
14, 10650, Note_on_c, 14, 50, 76
14, 10671, Note_on_c, 14, 50, 0
14, 10680, Note_on_c, 14, 48, 76
14, 10735, Note_on_c, 14, 48, 0
14, 10740, Note_on_c, 14, 48, 76
14, 10795, Note_on_c, 14, 48, 0
14, 10800, Note_on_c, 14, 41, 84
14, 10814, Note_on_c, 14, 41, 0
14, 10815, Note_on_c, 14, 43, 84
14, 10829, Note_on_c, 14, 43, 0
14, 10830, Note_on_c, 14, 45, 84
14, 10844, Note_on_c, 14, 45, 0
14, 10845, Note_on_c, 14, 46, 84
14, 10859, Note_on_c, 14, 46, 0
14, 10860, Note_on_c, 14, 48, 84
14, 10874, Note_on_c, 14, 48, 0
14, 10875, Note_on_c, 14, 46, 84
14, 10889, Note_on_c, 14, 46, 0
14, 10890, Note_on_c, 14, 45, 84
14, 10904, Note_on_c, 14, 45, 0
14, 10905, Note_on_c, 14, 43, 84
14, 10919, Note_on_c, 14, 43, 0
14, 10920, Note_on_c, 14, 41, 84
14, 10975, Note_on_c, 14, 41, 0
14, 10980, Note_on_c, 14, 60, 52
14, 11024, Note_on_c, 14, 60, 0
14, 11040, Note_on_c, 14, 57, 52
14, 11084, Note_on_c, 14, 57, 0
14, 11100, Note_on_c, 14, 53, 52
14, 11144, Note_on_c, 14, 53, 0
14, 11160, Note_on_c, 14, 57, 52
14, 11204, Note_on_c, 14, 57, 0
14, 11220, Note_on_c, 14, 61, 52
14, 11264, Note_on_c, 14, 61, 0
14, 11280, Note_on_c, 14, 62, 52
14, 11324, Note_on_c, 14, 62, 0
14, 11400, Note_on_c, 14, 59, 52
14, 11444, Note_on_c, 14, 59, 0
14, 11520, Note_on_c, 14, 60, 52
14, 11564, Note_on_c, 14, 60, 0
14, 11580, Note_on_c, 14, 48, 52
14, 11624, Note_on_c, 14, 48, 0
14, 11760, Note_on_c, 14, 41, 84
14, 11774, Note_on_c, 14, 41, 0
14, 11775, Note_on_c, 14, 43, 84
14, 11789, Note_on_c, 14, 43, 0
14, 11790, Note_on_c, 14, 45, 84
14, 11804, Note_on_c, 14, 45, 0
14, 11805, Note_on_c, 14, 46, 84
14, 11819, Note_on_c, 14, 46, 0
14, 11820, Note_on_c, 14, 48, 84
14, 11834, Note_on_c, 14, 48, 0
14, 11835, Note_on_c, 14, 46, 84
14, 11849, Note_on_c, 14, 46, 0
14, 11850, Note_on_c, 14, 45, 84
14, 11864, Note_on_c, 14, 45, 0
14, 11865, Note_on_c, 14, 43, 84
14, 11879, Note_on_c, 14, 43, 0
14, 11880, Note_on_c, 14, 41, 84
14, 11935, Note_on_c, 14, 41, 0
14, 11940, Note_on_c, 14, 60, 52
14, 11984, Note_on_c, 14, 60, 0
14, 12000, Note_on_c, 14, 57, 52
14, 12044, Note_on_c, 14, 57, 0
14, 12060, Note_on_c, 14, 53, 52
14, 12104, Note_on_c, 14, 53, 0
14, 12120, Note_on_c, 14, 57, 52
14, 12164, Note_on_c, 14, 57, 0
14, 12180, Note_on_c, 14, 61, 52
14, 12224, Note_on_c, 14, 61, 0
14, 12240, Note_on_c, 14, 62, 52
14, 12284, Note_on_c, 14, 62, 0
14, 12360, Note_on_c, 14, 59, 52
14, 12404, Note_on_c, 14, 59, 0
14, 12480, Note_on_c, 14, 55, 51
14, 12539, Note_on_c, 14, 55, 0
14, 12600, Note_on_c, 14, 65, 50
14, 12659, Note_on_c, 14, 65, 0
14, 12720, Note_on_c, 14, 64, 49
14, 12779, Note_on_c, 14, 64, 0
14, 12840, Note_on_c, 14, 48, 48
14, 12899, Note_on_c, 14, 48, 0
14, 12960, Note_on_c, 14, 58, 47
14, 13019, Note_on_c, 14, 58, 0
14, 13080, Note_on_c, 14, 57, 46
14, 13124, Note_on_c, 14, 57, 0
14, 13200, Note_on_c, 14, 53, 44
14, 13259, Note_on_c, 14, 53, 0
14, 13320, Note_on_c, 14, 63, 44
14, 13379, Note_on_c, 14, 63, 0
14, 13440, Note_on_c, 14, 62, 44
14, 13499, Note_on_c, 14, 62, 0
14, 13560, Note_on_c, 14, 61, 44
14, 13619, Note_on_c, 14, 61, 0
14, 13680, Note_on_c, 14, 60, 44
14, 13799, Note_on_c, 14, 60, 0
14, 14205, Control_c, 14, 11, 119
14, 14220, Note_on_c, 14, 60, 60
14, 14228, Control_c, 14, 11, 121
14, 14250, Control_c, 14, 11, 122
14, 14273, Control_c, 14, 11, 123
14, 14295, Control_c, 14, 11, 124
14, 14318, Control_c, 14, 11, 127
14, 14339, Note_on_c, 14, 60, 0
14, 14340, Note_on_c, 14, 53, 52
14, 14369, Note_on_c, 14, 53, 0
14, 14370, Note_on_c, 14, 57, 52
14, 14395, Note_on_c, 14, 57, 0
14, 14400, Note_on_c, 14, 60, 52
14, 14444, Note_on_c, 14, 60, 0
14, 14460, Note_on_c, 14, 48, 52
14, 14504, Note_on_c, 14, 48, 0
14, 14520, Note_on_c, 14, 48, 52
14, 14564, Note_on_c, 14, 48, 0
14, 14580, Note_on_c, 14, 48, 52
14, 14624, Note_on_c, 14, 48, 0
14, 14640, Note_on_c, 14, 53, 52
14, 14759, Note_on_c, 14, 53, 0
14, 14880, Note_on_c, 14, 48, 52
14, 14939, Note_on_c, 14, 48, 0
14, 14940, Note_on_c, 14, 53, 54
14, 14999, Note_on_c, 14, 53, 0
14, 15000, Note_on_c, 14, 52, 56
14, 15059, Note_on_c, 14, 52, 0
14, 15060, Note_on_c, 14, 55, 58
14, 15119, Note_on_c, 14, 55, 0
14, 15120, Note_on_c, 14, 53, 60
14, 15179, Note_on_c, 14, 53, 0
14, 15180, Note_on_c, 14, 58, 62
14, 15239, Note_on_c, 14, 58, 0
14, 15240, Note_on_c, 14, 57, 64
14, 15299, Note_on_c, 14, 57, 0
14, 15360, Program_c, 14, 45
14, 15420, Note_on_c, 14, 48, 44
14, 15479, Note_on_c, 14, 48, 0
14, 15480, Note_on_c, 14, 48, 44
14, 15539, Note_on_c, 14, 48, 0
14, 15540, Note_on_c, 14, 48, 44
14, 15599, Note_on_c, 14, 48, 0
14, 15600, Note_on_c, 14, 53, 44
14, 15719, Note_on_c, 14, 53, 0
14, 15720, Note_on_c, 14, 41, 44
14, 15839, Note_on_c, 14, 41, 0
14, 15960, Note_on_c, 14, 41, 44
14, 16079, Note_on_c, 14, 41, 0
14, 16200, Note_on_c, 14, 41, 44
14, 16319, Note_on_c, 14, 41, 0
14, 16440, Note_on_c, 14, 41, 44
14, 16559, Note_on_c, 14, 41, 0
14, 16680, Note_on_c, 14, 41, 44
14, 16799, Note_on_c, 14, 41, 0
14, 16920, Note_on_c, 14, 41, 44
14, 17039, Note_on_c, 14, 41, 0
14, 17160, Note_on_c, 14, 41, 44
14, 17279, Note_on_c, 14, 41, 0
14, 18240, Program_c, 14, 48
14, 18420, Note_on_c, 14, 41, 44
14, 18479, Note_on_c, 14, 41, 0
14, 18480, Note_on_c, 14, 43, 44
14, 18535, Note_on_c, 14, 43, 0
14, 18540, Note_on_c, 14, 45, 44
14, 18599, Note_on_c, 14, 45, 0
14, 18600, Note_on_c, 14, 46, 44
14, 18655, Note_on_c, 14, 46, 0
14, 18660, Note_on_c, 14, 53, 44
14, 18719, Note_on_c, 14, 53, 0
14, 18720, Note_on_c, 14, 58, 44
14, 18839, Note_on_c, 14, 58, 0
14, 19920, Note_on_c, 14, 46, 44
14, 20039, Note_on_c, 14, 46, 0
14, 20100, Note_on_c, 14, 46, 44
14, 20121, Note_on_c, 14, 46, 0
14, 20130, Note_on_c, 14, 48, 44
14, 20151, Note_on_c, 14, 48, 0
14, 20160, Note_on_c, 14, 50, 44
14, 20204, Note_on_c, 14, 50, 0
14, 20220, Note_on_c, 14, 50, 44
14, 20241, Note_on_c, 14, 50, 0
14, 20250, Note_on_c, 14, 51, 44
14, 20271, Note_on_c, 14, 51, 0
14, 20280, Note_on_c, 14, 53, 44
14, 20324, Note_on_c, 14, 53, 0
14, 20340, Note_on_c, 14, 55, 44
14, 20361, Note_on_c, 14, 55, 0
14, 20370, Note_on_c, 14, 57, 44
14, 20391, Note_on_c, 14, 57, 0
14, 20400, Note_on_c, 14, 58, 44
14, 20519, Note_on_c, 14, 58, 0
14, 21600, Note_on_c, 14, 46, 44
14, 21644, Note_on_c, 14, 46, 0
14, 21660, Note_on_c, 14, 46, 44
14, 21681, Note_on_c, 14, 46, 0
14, 21690, Note_on_c, 14, 48, 44
14, 21711, Note_on_c, 14, 48, 0
14, 21720, Note_on_c, 14, 50, 44
14, 21764, Note_on_c, 14, 50, 0
14, 21780, Note_on_c, 14, 50, 44
14, 21824, Note_on_c, 14, 50, 0
14, 21840, Note_on_c, 14, 51, 44
14, 22079, Note_on_c, 14, 51, 0
14, 22080, Note_on_c, 14, 50, 44
14, 22135, Note_on_c, 14, 50, 0
14, 22140, Note_on_c, 14, 46, 44
14, 22161, Note_on_c, 14, 46, 0
14, 22170, Note_on_c, 14, 48, 44
14, 22191, Note_on_c, 14, 48, 0
14, 22200, Note_on_c, 14, 50, 44
14, 22244, Note_on_c, 14, 50, 0
14, 22260, Note_on_c, 14, 50, 44
14, 22304, Note_on_c, 14, 50, 0
14, 22320, Note_on_c, 14, 51, 44
14, 22559, Note_on_c, 14, 51, 0
14, 22560, Note_on_c, 14, 50, 44
14, 22615, Note_on_c, 14, 50, 0
14, 22620, Note_on_c, 14, 46, 44
14, 22641, Note_on_c, 14, 46, 0
14, 22650, Note_on_c, 14, 48, 44
14, 22671, Note_on_c, 14, 48, 0
14, 22680, Note_on_c, 14, 50, 44
14, 22724, Note_on_c, 14, 50, 0
14, 22860, Note_on_c, 14, 41, 46
14, 22885, Note_on_c, 14, 41, 0
14, 22890, Note_on_c, 14, 41, 48
14, 22915, Note_on_c, 14, 41, 0
14, 22920, Note_on_c, 14, 53, 49
14, 22979, Note_on_c, 14, 53, 0
14, 23100, Note_on_c, 14, 46, 57
14, 23125, Note_on_c, 14, 46, 0
14, 23130, Note_on_c, 14, 46, 58
14, 23155, Note_on_c, 14, 46, 0
14, 23160, Note_on_c, 14, 58, 60
14, 23219, Note_on_c, 14, 58, 0
14, 23340, Note_on_c, 14, 48, 68
14, 23361, Note_on_c, 14, 48, 0
14, 23370, Note_on_c, 14, 50, 69
14, 23391, Note_on_c, 14, 50, 0
14, 23400, Note_on_c, 14, 52, 70
14, 23444, Note_on_c, 14, 52, 0
14, 23460, Note_on_c, 14, 52, 73
14, 23481, Note_on_c, 14, 52, 0
14, 23490, Note_on_c, 14, 53, 74
14, 23511, Note_on_c, 14, 53, 0
14, 23520, Note_on_c, 14, 55, 76
14, 23691, Note_on_c, 14, 55, 0
14, 23700, Note_on_c, 14, 52, 76
14, 23744, Note_on_c, 14, 52, 0
14, 23760, Note_on_c, 14, 53, 84
14, 23789, Note_on_c, 14, 53, 0
14, 23790, Note_on_c, 14, 53, 76
14, 23931, Note_on_c, 14, 53, 0
14, 23940, Note_on_c, 14, 57, 76
14, 23984, Note_on_c, 14, 57, 0
14, 24000, Note_on_c, 14, 58, 76
14, 24044, Note_on_c, 14, 58, 0
14, 24060, Note_on_c, 14, 58, 76
14, 24104, Note_on_c, 14, 58, 0
14, 24120, Note_on_c, 14, 58, 76
14, 24164, Note_on_c, 14, 58, 0
14, 24180, Note_on_c, 14, 58, 76
14, 24224, Note_on_c, 14, 58, 0
14, 24240, Note_on_c, 14, 57, 76
14, 24284, Note_on_c, 14, 57, 0
14, 24300, Note_on_c, 14, 41, 76
14, 24344, Note_on_c, 14, 41, 0
14, 24360, Note_on_c, 14, 41, 76
14, 24404, Note_on_c, 14, 41, 0
14, 24420, Note_on_c, 14, 41, 76
14, 24464, Note_on_c, 14, 41, 0
14, 24480, Note_on_c, 14, 41, 76
14, 24524, Note_on_c, 14, 41, 0
14, 24540, Note_on_c, 14, 40, 76
14, 24561, Note_on_c, 14, 40, 0
14, 24570, Note_on_c, 14, 43, 76
14, 24591, Note_on_c, 14, 43, 0
14, 24600, Note_on_c, 14, 41, 76
14, 24644, Note_on_c, 14, 41, 0
14, 24780, Note_on_c, 14, 40, 76
14, 24801, Note_on_c, 14, 40, 0
14, 24810, Note_on_c, 14, 43, 76
14, 24831, Note_on_c, 14, 43, 0
14, 24840, Note_on_c, 14, 41, 76
14, 24884, Note_on_c, 14, 41, 0
14, 25020, Note_on_c, 14, 40, 76
14, 25041, Note_on_c, 14, 40, 0
14, 25050, Note_on_c, 14, 43, 76
14, 25071, Note_on_c, 14, 43, 0
14, 25080, Note_on_c, 14, 41, 76
14, 25124, Note_on_c, 14, 41, 0
14, 25260, Note_on_c, 14, 40, 76
14, 25281, Note_on_c, 14, 40, 0
14, 25290, Note_on_c, 14, 43, 76
14, 25311, Note_on_c, 14, 43, 0
14, 25320, Note_on_c, 14, 41, 76
14, 25364, Note_on_c, 14, 41, 0
14, 25500, Note_on_c, 14, 40, 76
14, 25521, Note_on_c, 14, 40, 0
14, 25530, Note_on_c, 14, 43, 76
14, 25551, Note_on_c, 14, 43, 0
14, 25560, Note_on_c, 14, 41, 76
14, 25604, Note_on_c, 14, 41, 0
14, 25740, Note_on_c, 14, 40, 76
14, 25761, Note_on_c, 14, 40, 0
14, 25770, Note_on_c, 14, 43, 76
14, 25791, Note_on_c, 14, 43, 0
14, 25800, Note_on_c, 14, 41, 76
14, 25844, Note_on_c, 14, 41, 0
14, 25980, Note_on_c, 14, 40, 76
14, 26001, Note_on_c, 14, 40, 0
14, 26010, Note_on_c, 14, 43, 76
14, 26031, Note_on_c, 14, 43, 0
14, 26040, Note_on_c, 14, 41, 76
14, 26084, Note_on_c, 14, 41, 0
14, 26220, Note_on_c, 14, 40, 76
14, 26241, Note_on_c, 14, 40, 0
14, 26250, Note_on_c, 14, 43, 76
14, 26271, Note_on_c, 14, 43, 0
14, 26280, Note_on_c, 14, 41, 76
14, 26324, Note_on_c, 14, 41, 0
14, 26460, Note_on_c, 14, 40, 76
14, 26481, Note_on_c, 14, 40, 0
14, 26490, Note_on_c, 14, 43, 76
14, 26511, Note_on_c, 14, 43, 0
14, 26520, Note_on_c, 14, 41, 76
14, 26564, Note_on_c, 14, 41, 0
14, 26580, Note_on_c, 14, 41, 76
14, 26624, Note_on_c, 14, 41, 0
14, 26640, Note_on_c, 14, 46, 84
14, 26654, Note_on_c, 14, 46, 0
14, 26655, Note_on_c, 14, 48, 84
14, 26669, Note_on_c, 14, 48, 0
14, 26670, Note_on_c, 14, 50, 84
14, 26684, Note_on_c, 14, 50, 0
14, 26685, Note_on_c, 14, 51, 84
14, 26699, Note_on_c, 14, 51, 0
14, 26700, Note_on_c, 14, 53, 84
14, 26714, Note_on_c, 14, 53, 0
14, 26715, Note_on_c, 14, 51, 84
14, 26729, Note_on_c, 14, 51, 0
14, 26730, Note_on_c, 14, 50, 84
14, 26744, Note_on_c, 14, 50, 0
14, 26745, Note_on_c, 14, 48, 84
14, 26756, Note_on_c, 14, 48, 0
14, 26760, Note_on_c, 14, 46, 84
14, 26804, Note_on_c, 14, 46, 0
14, 26820, Note_on_c, 14, 53, 52
14, 26864, Note_on_c, 14, 53, 0
14, 26880, Note_on_c, 14, 50, 52
14, 26924, Note_on_c, 14, 50, 0
14, 26940, Note_on_c, 14, 46, 52
14, 26984, Note_on_c, 14, 46, 0
14, 27000, Note_on_c, 14, 50, 52
14, 27044, Note_on_c, 14, 50, 0
14, 27060, Note_on_c, 14, 54, 52
14, 27104, Note_on_c, 14, 54, 0
14, 27120, Note_on_c, 14, 55, 52
14, 27164, Note_on_c, 14, 55, 0
14, 27240, Note_on_c, 14, 52, 52
14, 27284, Note_on_c, 14, 52, 0
14, 27360, Note_on_c, 14, 53, 52
14, 27404, Note_on_c, 14, 53, 0
14, 27480, Note_on_c, 14, 65, 52
14, 27524, Note_on_c, 14, 65, 0
14, 27600, Note_on_c, 14, 46, 84
14, 27614, Note_on_c, 14, 46, 0
14, 27615, Note_on_c, 14, 48, 84
14, 27629, Note_on_c, 14, 48, 0
14, 27630, Note_on_c, 14, 50, 84
14, 27644, Note_on_c, 14, 50, 0
14, 27645, Note_on_c, 14, 51, 84
14, 27659, Note_on_c, 14, 51, 0
14, 27660, Note_on_c, 14, 53, 84
14, 27674, Note_on_c, 14, 53, 0
14, 27675, Note_on_c, 14, 51, 84
14, 27689, Note_on_c, 14, 51, 0
14, 27690, Note_on_c, 14, 50, 84
14, 27704, Note_on_c, 14, 50, 0
14, 27705, Note_on_c, 14, 48, 84
14, 27716, Note_on_c, 14, 48, 0
14, 27720, Note_on_c, 14, 46, 84
14, 27764, Note_on_c, 14, 46, 0
14, 27780, Note_on_c, 14, 53, 52
14, 27824, Note_on_c, 14, 53, 0
14, 27840, Note_on_c, 14, 50, 52
14, 27884, Note_on_c, 14, 50, 0
14, 27900, Note_on_c, 14, 46, 52
14, 27944, Note_on_c, 14, 46, 0
14, 27960, Note_on_c, 14, 50, 52
14, 28004, Note_on_c, 14, 50, 0
14, 28020, Note_on_c, 14, 54, 52
14, 28064, Note_on_c, 14, 54, 0
14, 28080, Note_on_c, 14, 55, 52
14, 28139, Note_on_c, 14, 55, 0
14, 28200, Note_on_c, 14, 52, 52
14, 28259, Note_on_c, 14, 52, 0
14, 28320, Note_on_c, 14, 48, 51
14, 28364, Note_on_c, 14, 48, 0
14, 28440, Note_on_c, 14, 58, 50
14, 28499, Note_on_c, 14, 58, 0
14, 28560, Note_on_c, 14, 57, 49
14, 28619, Note_on_c, 14, 57, 0
14, 28680, Note_on_c, 14, 53, 48
14, 28739, Note_on_c, 14, 53, 0
14, 28800, Note_on_c, 14, 63, 47
14, 28859, Note_on_c, 14, 63, 0
14, 28920, Note_on_c, 14, 62, 46
14, 28979, Note_on_c, 14, 62, 0
14, 29040, Note_on_c, 14, 46, 44
14, 29099, Note_on_c, 14, 46, 0
14, 29160, Note_on_c, 14, 56, 44
14, 29219, Note_on_c, 14, 56, 0
14, 29280, Note_on_c, 14, 55, 44
14, 29339, Note_on_c, 14, 55, 0
14, 29400, Note_on_c, 14, 54, 44
14, 29459, Note_on_c, 14, 54, 0
14, 29520, Note_on_c, 14, 53, 44
14, 29579, Note_on_c, 14, 53, 0
14, 30033, Control_c, 14, 11, 120
14, 30060, Note_on_c, 14, 65, 60
14, 30070, Control_c, 14, 11, 122
14, 30107, Control_c, 14, 11, 124
14, 30143, Control_c, 14, 11, 125
14, 30178, Control_c, 14, 11, 127
14, 30179, Note_on_c, 14, 65, 0
14, 30180, Note_on_c, 14, 58, 52
14, 30209, Note_on_c, 14, 58, 0
14, 30210, Note_on_c, 14, 62, 52
14, 30235, Note_on_c, 14, 62, 0
14, 30240, Note_on_c, 14, 65, 52
14, 30284, Note_on_c, 14, 65, 0
14, 30300, Note_on_c, 14, 53, 52
14, 30344, Note_on_c, 14, 53, 0
14, 30360, Note_on_c, 14, 53, 52
14, 30404, Note_on_c, 14, 53, 0
14, 30420, Note_on_c, 14, 53, 52
14, 30464, Note_on_c, 14, 53, 0
14, 30480, Note_on_c, 14, 58, 52
14, 30569, Note_on_c, 14, 58, 0
14, 30720, Note_on_c, 14, 53, 52
14, 30779, Note_on_c, 14, 53, 0
14, 30780, Note_on_c, 14, 58, 54
14, 30839, Note_on_c, 14, 58, 0
14, 30840, Note_on_c, 14, 57, 56
14, 30899, Note_on_c, 14, 57, 0
14, 30900, Note_on_c, 14, 60, 58
14, 30959, Note_on_c, 14, 60, 0
14, 30960, Note_on_c, 14, 58, 60
14, 31019, Note_on_c, 14, 58, 0
14, 31020, Note_on_c, 14, 63, 62
14, 31079, Note_on_c, 14, 63, 0
14, 31080, Note_on_c, 14, 62, 64
14, 31139, Note_on_c, 14, 62, 0
14, 31200, Program_c, 14, 45
14, 31260, Note_on_c, 14, 53, 44
14, 31319, Note_on_c, 14, 53, 0
14, 31320, Note_on_c, 14, 53, 44
14, 31379, Note_on_c, 14, 53, 0
14, 31380, Note_on_c, 14, 53, 44
14, 31439, Note_on_c, 14, 53, 0
14, 31440, Note_on_c, 14, 58, 44
14, 31559, Note_on_c, 14, 58, 0
14, 31560, Note_on_c, 14, 46, 44
14, 31679, Note_on_c, 14, 46, 0
14, 31800, Note_on_c, 14, 46, 44
14, 31919, Note_on_c, 14, 46, 0
14, 32040, Note_on_c, 14, 46, 44
14, 32159, Note_on_c, 14, 46, 0
14, 32280, Note_on_c, 14, 46, 44
14, 32399, Note_on_c, 14, 46, 0
14, 32520, Note_on_c, 14, 46, 44
14, 32639, Note_on_c, 14, 46, 0
14, 32760, Note_on_c, 14, 46, 44
14, 32879, Note_on_c, 14, 46, 0
14, 33000, Note_on_c, 14, 46, 44
14, 33119, Note_on_c, 14, 46, 0
14, 34080, Program_c, 14, 48
14, 34260, Note_on_c, 14, 46, 44
14, 34319, Note_on_c, 14, 46, 0
14, 34320, Note_on_c, 14, 48, 44
14, 34375, Note_on_c, 14, 48, 0
14, 34380, Note_on_c, 14, 50, 44
14, 34439, Note_on_c, 14, 50, 0
14, 34440, Note_on_c, 14, 51, 44
14, 34495, Note_on_c, 14, 51, 0
14, 34500, Note_on_c, 14, 53, 44
14, 34679, Note_on_c, 14, 53, 0
14, 34740, Note_on_c, 14, 46, 44
14, 34761, Note_on_c, 14, 46, 0
14, 34770, Note_on_c, 14, 48, 44
14, 34791, Note_on_c, 14, 48, 0
14, 34800, Note_on_c, 14, 50, 44
14, 34844, Note_on_c, 14, 50, 0
14, 34860, Note_on_c, 14, 50, 44
14, 34881, Note_on_c, 14, 50, 0
14, 34890, Note_on_c, 14, 51, 44
14, 34911, Note_on_c, 14, 51, 0
14, 34920, Note_on_c, 14, 53, 44
14, 34964, Note_on_c, 14, 53, 0
14, 34980, Note_on_c, 14, 53, 44
14, 35001, Note_on_c, 14, 53, 0
14, 35010, Note_on_c, 14, 55, 44
14, 35031, Note_on_c, 14, 55, 0
14, 35040, Note_on_c, 14, 56, 44
14, 35159, Note_on_c, 14, 56, 0
14, 36450, Note_on_c, 14, 51, 84
14, 36471, Note_on_c, 14, 51, 0
14, 36480, Note_on_c, 14, 46, 84
14, 36501, Note_on_c, 14, 46, 0
14, 36510, Note_on_c, 14, 46, 84
14, 36531, Note_on_c, 14, 46, 0
14, 36540, Note_on_c, 14, 46, 84
14, 36561, Note_on_c, 14, 46, 0
14, 36570, Note_on_c, 14, 46, 84
14, 36591, Note_on_c, 14, 46, 0
14, 36600, Note_on_c, 14, 46, 84
14, 36659, Note_on_c, 14, 46, 0
14, 36930, Note_on_c, 14, 46, 84
14, 36951, Note_on_c, 14, 46, 0
14, 36960, Note_on_c, 14, 51, 84
14, 36981, Note_on_c, 14, 51, 0
14, 36990, Note_on_c, 14, 51, 84
14, 37011, Note_on_c, 14, 51, 0
14, 37020, Note_on_c, 14, 51, 84
14, 37041, Note_on_c, 14, 51, 0
14, 37050, Note_on_c, 14, 51, 84
14, 37071, Note_on_c, 14, 51, 0
14, 37080, Note_on_c, 14, 51, 84
14, 37139, Note_on_c, 14, 51, 0
14, 37440, Note_on_c, 14, 51, 44
14, 37500, Note_on_c, 14, 51, 44
14, 37529, Note_on_c, 14, 51, 0
14, 37560, Note_on_c, 14, 53, 44
14, 37589, Note_on_c, 14, 51, 0
14, 37620, Note_on_c, 14, 41, 44
14, 37649, Note_on_c, 14, 53, 0
14, 37680, Note_on_c, 14, 46, 44
14, 37709, Note_on_c, 14, 41, 0
14, 37740, Note_on_c, 14, 51, 44
14, 37769, Note_on_c, 14, 46, 0
14, 37800, Note_on_c, 14, 53, 44
14, 37829, Note_on_c, 14, 51, 0
14, 37860, Note_on_c, 14, 41, 44
14, 37889, Note_on_c, 14, 53, 0
14, 37920, Note_on_c, 14, 46, 44
14, 37949, Note_on_c, 14, 41, 0
14, 37979, Note_on_c, 14, 46, 0
14, 38010, Note_on_c, 14, 41, 51
14, 38035, Note_on_c, 14, 41, 0
14, 38040, Note_on_c, 14, 46, 54
14, 38099, Note_on_c, 14, 46, 0
14, 38130, Note_on_c, 14, 41, 61
14, 38155, Note_on_c, 14, 41, 0
14, 38160, Note_on_c, 14, 46, 64
14, 38219, Note_on_c, 14, 46, 0
14, 38250, Note_on_c, 14, 41, 71
14, 38275, Note_on_c, 14, 41, 0
14, 38280, Note_on_c, 14, 46, 74
14, 38339, Note_on_c, 14, 46, 0
14, 38370, Note_on_c, 14, 41, 81
14, 38395, Note_on_c, 14, 41, 0
14, 38400, Note_on_c, 14, 46, 84
14, 38421, Note_on_c, 14, 46, 0
14, 38430, Note_on_c, 14, 46, 84
14, 38451, Note_on_c, 14, 46, 0
14, 38460, Note_on_c, 14, 46, 84
14, 38481, Note_on_c, 14, 46, 0
14, 38490, Note_on_c, 14, 46, 84
14, 38511, Note_on_c, 14, 46, 0
14, 38520, Note_on_c, 14, 46, 84
14, 38541, Note_on_c, 14, 46, 0
14, 38550, Note_on_c, 14, 46, 84
14, 38571, Note_on_c, 14, 46, 0
14, 38580, Note_on_c, 14, 46, 84
14, 38601, Note_on_c, 14, 46, 0
14, 38610, Note_on_c, 14, 46, 84
14, 38631, Note_on_c, 14, 46, 0
14, 38640, Note_on_c, 14, 46, 84
14, 38759, Note_on_c, 14, 46, 0
14, 38759, End_track
15, 0, Start_track
15, 0, Title_t, "Contrabass"
15, 0, MIDI_port, 0
15, 0, Program_c, 15, 48
15, 0, Control_c, 15, 7, 88
15, 0, Control_c, 15, 10, 100
15, 0, Control_c, 15, 11, 127
15, 1200, Note_on_c, 15, 34, 44
15, 1289, Note_on_c, 15, 34, 0
15, 1380, Note_on_c, 15, 34, 44
15, 1401, Note_on_c, 15, 34, 0
15, 1410, Note_on_c, 15, 36, 44
15, 1431, Note_on_c, 15, 36, 0
15, 1440, Note_on_c, 15, 38, 44
15, 1484, Note_on_c, 15, 38, 0
15, 1500, Note_on_c, 15, 38, 44
15, 1521, Note_on_c, 15, 38, 0
15, 1530, Note_on_c, 15, 39, 44
15, 1551, Note_on_c, 15, 39, 0
15, 1560, Note_on_c, 15, 41, 44
15, 1604, Note_on_c, 15, 41, 0
15, 1620, Note_on_c, 15, 42, 44
15, 1641, Note_on_c, 15, 42, 0
15, 1650, Note_on_c, 15, 38, 44
15, 1671, Note_on_c, 15, 38, 0
15, 1680, Note_on_c, 15, 43, 44
15, 1799, Note_on_c, 15, 43, 0
15, 2880, Note_on_c, 15, 31, 44
15, 2969, Note_on_c, 15, 31, 0
15, 3060, Note_on_c, 15, 31, 44
15, 3081, Note_on_c, 15, 31, 0
15, 3090, Note_on_c, 15, 33, 44
15, 3111, Note_on_c, 15, 33, 0
15, 3120, Note_on_c, 15, 34, 44
15, 3164, Note_on_c, 15, 34, 0
15, 3180, Note_on_c, 15, 34, 44
15, 3201, Note_on_c, 15, 34, 0
15, 3210, Note_on_c, 15, 36, 44
15, 3231, Note_on_c, 15, 36, 0
15, 3240, Note_on_c, 15, 38, 44
15, 3284, Note_on_c, 15, 38, 0
15, 3300, Note_on_c, 15, 38, 44
15, 3321, Note_on_c, 15, 38, 0
15, 3330, Note_on_c, 15, 34, 44
15, 3351, Note_on_c, 15, 34, 0
15, 3360, Note_on_c, 15, 39, 44
15, 3479, Note_on_c, 15, 39, 0
15, 4020, Note_on_c, 15, 29, 84
15, 4251, Note_on_c, 15, 29, 0
15, 4260, Note_on_c, 15, 29, 52
15, 4304, Note_on_c, 15, 29, 0
15, 4320, Note_on_c, 15, 29, 52
15, 4364, Note_on_c, 15, 29, 0
15, 4380, Note_on_c, 15, 29, 52
15, 4424, Note_on_c, 15, 29, 0
15, 4440, Note_on_c, 15, 29, 52
15, 4484, Note_on_c, 15, 29, 0
15, 4500, Note_on_c, 15, 29, 52
15, 4544, Note_on_c, 15, 29, 0
15, 4560, Note_on_c, 15, 34, 52
15, 4604, Note_on_c, 15, 34, 0
15, 4620, Note_on_c, 15, 41, 52
15, 4641, Note_on_c, 15, 41, 0
15, 4650, Note_on_c, 15, 43, 52
15, 4671, Note_on_c, 15, 43, 0
15, 4680, Note_on_c, 15, 34, 52
15, 4724, Note_on_c, 15, 34, 0
15, 4860, Note_on_c, 15, 33, 52
15, 4881, Note_on_c, 15, 33, 0
15, 4890, Note_on_c, 15, 36, 52
15, 4911, Note_on_c, 15, 36, 0
15, 4920, Note_on_c, 15, 29, 52
15, 4964, Note_on_c, 15, 29, 0
15, 5100, Note_on_c, 15, 34, 52
15, 5121, Note_on_c, 15, 34, 0
15, 5130, Note_on_c, 15, 38, 52
15, 5151, Note_on_c, 15, 38, 0
15, 5160, Note_on_c, 15, 29, 52
15, 5204, Note_on_c, 15, 29, 0
15, 5340, Note_on_c, 15, 41, 52
15, 5395, Note_on_c, 15, 41, 0
15, 5400, Note_on_c, 15, 29, 52
15, 5455, Note_on_c, 15, 29, 0
15, 5460, Note_on_c, 15, 41, 52
15, 5515, Note_on_c, 15, 41, 0
15, 5520, Note_on_c, 15, 34, 52
15, 5575, Note_on_c, 15, 34, 0
15, 5580, Note_on_c, 15, 41, 52
15, 5601, Note_on_c, 15, 41, 0
15, 5610, Note_on_c, 15, 43, 52
15, 5631, Note_on_c, 15, 43, 0
15, 5640, Note_on_c, 15, 34, 52
15, 5699, Note_on_c, 15, 34, 0
15, 5820, Note_on_c, 15, 33, 52
15, 5841, Note_on_c, 15, 33, 0
15, 5850, Note_on_c, 15, 36, 52
15, 5871, Note_on_c, 15, 36, 0
15, 5880, Note_on_c, 15, 29, 52
15, 5924, Note_on_c, 15, 29, 0
15, 6060, Note_on_c, 15, 34, 52
15, 6081, Note_on_c, 15, 34, 0
15, 6090, Note_on_c, 15, 38, 52
15, 6111, Note_on_c, 15, 38, 0
15, 6120, Note_on_c, 15, 34, 52
15, 6164, Note_on_c, 15, 34, 0
15, 6180, Note_on_c, 15, 39, 76
15, 6224, Note_on_c, 15, 39, 0
15, 6240, Note_on_c, 15, 34, 76
15, 6284, Note_on_c, 15, 34, 0
15, 6300, Note_on_c, 15, 39, 84
15, 6344, Note_on_c, 15, 39, 0
15, 6360, Note_on_c, 15, 34, 76
15, 6404, Note_on_c, 15, 34, 0
15, 6420, Note_on_c, 15, 39, 84
15, 6464, Note_on_c, 15, 39, 0
15, 6480, Note_on_c, 15, 34, 76
15, 6599, Note_on_c, 15, 34, 0
15, 7140, Note_on_c, 15, 39, 76
15, 7184, Note_on_c, 15, 39, 0
15, 7200, Note_on_c, 15, 34, 76
15, 7244, Note_on_c, 15, 34, 0
15, 7260, Note_on_c, 15, 39, 84
15, 7304, Note_on_c, 15, 39, 0
15, 7320, Note_on_c, 15, 34, 76
15, 7364, Note_on_c, 15, 34, 0
15, 7380, Note_on_c, 15, 39, 84
15, 7424, Note_on_c, 15, 39, 0
15, 7440, Note_on_c, 15, 34, 76
15, 7559, Note_on_c, 15, 34, 0
15, 7620, Note_on_c, 15, 39, 73
15, 7675, Note_on_c, 15, 39, 0
15, 7680, Note_on_c, 15, 34, 70
15, 7799, Note_on_c, 15, 34, 0
15, 7860, Note_on_c, 15, 39, 60
15, 7915, Note_on_c, 15, 39, 0
15, 7920, Note_on_c, 15, 34, 57
15, 8039, Note_on_c, 15, 34, 0
15, 8220, Note_on_c, 15, 33, 46
15, 8241, Note_on_c, 15, 33, 0
15, 8250, Note_on_c, 15, 36, 47
15, 8271, Note_on_c, 15, 36, 0
15, 8280, Note_on_c, 15, 34, 48
15, 8324, Note_on_c, 15, 34, 0
15, 8700, Note_on_c, 15, 35, 62
15, 8721, Note_on_c, 15, 35, 0
15, 8730, Note_on_c, 15, 38, 63
15, 8751, Note_on_c, 15, 38, 0
15, 8760, Note_on_c, 15, 36, 64
15, 8804, Note_on_c, 15, 36, 0
15, 9180, Note_on_c, 15, 35, 76
15, 9201, Note_on_c, 15, 35, 0
15, 9210, Note_on_c, 15, 38, 76
15, 9231, Note_on_c, 15, 38, 0
15, 9240, Note_on_c, 15, 36, 76
15, 9284, Note_on_c, 15, 36, 0
15, 9420, Note_on_c, 15, 35, 76
15, 9441, Note_on_c, 15, 35, 0
15, 9450, Note_on_c, 15, 38, 76
15, 9471, Note_on_c, 15, 38, 0
15, 9480, Note_on_c, 15, 36, 76
15, 9524, Note_on_c, 15, 36, 0
15, 9660, Note_on_c, 15, 35, 76
15, 9681, Note_on_c, 15, 35, 0
15, 9690, Note_on_c, 15, 38, 76
15, 9711, Note_on_c, 15, 38, 0
15, 9720, Note_on_c, 15, 36, 76
15, 9764, Note_on_c, 15, 36, 0
15, 9900, Note_on_c, 15, 35, 76
15, 9921, Note_on_c, 15, 35, 0
15, 9930, Note_on_c, 15, 38, 76
15, 9951, Note_on_c, 15, 38, 0
15, 9960, Note_on_c, 15, 36, 76
15, 10004, Note_on_c, 15, 36, 0
15, 10140, Note_on_c, 15, 35, 76
15, 10161, Note_on_c, 15, 35, 0
15, 10170, Note_on_c, 15, 38, 76
15, 10191, Note_on_c, 15, 38, 0
15, 10200, Note_on_c, 15, 36, 76
15, 10244, Note_on_c, 15, 36, 0
15, 10380, Note_on_c, 15, 35, 76
15, 10401, Note_on_c, 15, 35, 0
15, 10410, Note_on_c, 15, 38, 76
15, 10431, Note_on_c, 15, 38, 0
15, 10440, Note_on_c, 15, 36, 76
15, 10484, Note_on_c, 15, 36, 0
15, 10620, Note_on_c, 15, 35, 76
15, 10641, Note_on_c, 15, 35, 0
15, 10650, Note_on_c, 15, 38, 76
15, 10671, Note_on_c, 15, 38, 0
15, 10680, Note_on_c, 15, 36, 76
15, 10735, Note_on_c, 15, 36, 0
15, 10740, Note_on_c, 15, 36, 76
15, 10795, Note_on_c, 15, 36, 0
15, 10800, Note_on_c, 15, 29, 84
15, 10814, Note_on_c, 15, 29, 0
15, 10815, Note_on_c, 15, 31, 84
15, 10829, Note_on_c, 15, 31, 0
15, 10830, Note_on_c, 15, 33, 84
15, 10844, Note_on_c, 15, 33, 0
15, 10845, Note_on_c, 15, 34, 84
15, 10859, Note_on_c, 15, 34, 0
15, 10860, Note_on_c, 15, 36, 84
15, 10874, Note_on_c, 15, 36, 0
15, 10875, Note_on_c, 15, 34, 84
15, 10889, Note_on_c, 15, 34, 0
15, 10890, Note_on_c, 15, 33, 84
15, 10904, Note_on_c, 15, 33, 0
15, 10905, Note_on_c, 15, 31, 84
15, 10919, Note_on_c, 15, 31, 0
15, 10920, Note_on_c, 15, 29, 84
15, 10975, Note_on_c, 15, 29, 0
15, 10980, Note_on_c, 15, 48, 52
15, 11024, Note_on_c, 15, 48, 0
15, 11040, Note_on_c, 15, 45, 52
15, 11084, Note_on_c, 15, 45, 0
15, 11100, Note_on_c, 15, 41, 52
15, 11144, Note_on_c, 15, 41, 0
15, 11160, Note_on_c, 15, 45, 52
15, 11204, Note_on_c, 15, 45, 0
15, 11220, Note_on_c, 15, 49, 52
15, 11264, Note_on_c, 15, 49, 0
15, 11280, Note_on_c, 15, 50, 52
15, 11324, Note_on_c, 15, 50, 0
15, 11400, Note_on_c, 15, 47, 52
15, 11444, Note_on_c, 15, 47, 0
15, 11520, Note_on_c, 15, 48, 52
15, 11564, Note_on_c, 15, 48, 0
15, 11580, Note_on_c, 15, 36, 52
15, 11624, Note_on_c, 15, 36, 0
15, 11760, Note_on_c, 15, 29, 84
15, 11774, Note_on_c, 15, 29, 0
15, 11775, Note_on_c, 15, 31, 84
15, 11789, Note_on_c, 15, 31, 0
15, 11790, Note_on_c, 15, 33, 84
15, 11804, Note_on_c, 15, 33, 0
15, 11805, Note_on_c, 15, 34, 84
15, 11819, Note_on_c, 15, 34, 0
15, 11820, Note_on_c, 15, 36, 84
15, 11834, Note_on_c, 15, 36, 0
15, 11835, Note_on_c, 15, 34, 84
15, 11849, Note_on_c, 15, 34, 0
15, 11850, Note_on_c, 15, 33, 84
15, 11864, Note_on_c, 15, 33, 0
15, 11865, Note_on_c, 15, 31, 84
15, 11879, Note_on_c, 15, 31, 0
15, 11880, Note_on_c, 15, 29, 84
15, 11935, Note_on_c, 15, 29, 0
15, 11940, Note_on_c, 15, 48, 52
15, 11984, Note_on_c, 15, 48, 0
15, 12000, Note_on_c, 15, 45, 52
15, 12044, Note_on_c, 15, 45, 0
15, 12060, Note_on_c, 15, 41, 52
15, 12104, Note_on_c, 15, 41, 0
15, 12120, Note_on_c, 15, 45, 52
15, 12164, Note_on_c, 15, 45, 0
15, 12180, Note_on_c, 15, 49, 52
15, 12224, Note_on_c, 15, 49, 0
15, 12240, Note_on_c, 15, 50, 52
15, 12284, Note_on_c, 15, 50, 0
15, 12360, Note_on_c, 15, 47, 52
15, 12404, Note_on_c, 15, 47, 0
15, 12480, Note_on_c, 15, 43, 51
15, 12539, Note_on_c, 15, 43, 0
15, 12600, Note_on_c, 15, 53, 50
15, 12659, Note_on_c, 15, 53, 0
15, 12720, Note_on_c, 15, 52, 49
15, 12779, Note_on_c, 15, 52, 0
15, 12840, Note_on_c, 15, 36, 48
15, 12899, Note_on_c, 15, 36, 0
15, 12960, Note_on_c, 15, 46, 47
15, 13019, Note_on_c, 15, 46, 0
15, 13080, Note_on_c, 15, 45, 46
15, 13124, Note_on_c, 15, 45, 0
15, 13200, Note_on_c, 15, 41, 44
15, 13259, Note_on_c, 15, 41, 0
15, 13320, Note_on_c, 15, 51, 44
15, 13379, Note_on_c, 15, 51, 0
15, 13440, Note_on_c, 15, 50, 44
15, 13499, Note_on_c, 15, 50, 0
15, 13560, Note_on_c, 15, 49, 44
15, 13619, Note_on_c, 15, 49, 0
15, 13680, Note_on_c, 15, 48, 44
15, 13799, Note_on_c, 15, 48, 0
15, 14205, Control_c, 15, 11, 119
15, 14220, Note_on_c, 15, 48, 60
15, 14228, Control_c, 15, 11, 121
15, 14250, Control_c, 15, 11, 122
15, 14273, Control_c, 15, 11, 123
15, 14295, Control_c, 15, 11, 124
15, 14318, Control_c, 15, 11, 127
15, 14339, Note_on_c, 15, 48, 0
15, 14340, Note_on_c, 15, 41, 52
15, 14369, Note_on_c, 15, 41, 0
15, 14370, Note_on_c, 15, 45, 52
15, 14395, Note_on_c, 15, 45, 0
15, 14400, Note_on_c, 15, 48, 52
15, 14444, Note_on_c, 15, 48, 0
15, 14460, Note_on_c, 15, 36, 52
15, 14504, Note_on_c, 15, 36, 0
15, 14520, Note_on_c, 15, 36, 52
15, 14564, Note_on_c, 15, 36, 0
15, 14580, Note_on_c, 15, 36, 52
15, 14624, Note_on_c, 15, 36, 0
15, 14640, Note_on_c, 15, 41, 52
15, 14759, Note_on_c, 15, 41, 0
15, 14880, Note_on_c, 15, 36, 52
15, 14939, Note_on_c, 15, 36, 0
15, 14940, Note_on_c, 15, 41, 54
15, 14999, Note_on_c, 15, 41, 0
15, 15000, Note_on_c, 15, 40, 56
15, 15059, Note_on_c, 15, 40, 0
15, 15060, Note_on_c, 15, 43, 58
15, 15119, Note_on_c, 15, 43, 0
15, 15120, Note_on_c, 15, 41, 60
15, 15179, Note_on_c, 15, 41, 0
15, 15180, Note_on_c, 15, 46, 62
15, 15239, Note_on_c, 15, 46, 0
15, 15240, Note_on_c, 15, 45, 64
15, 15299, Note_on_c, 15, 45, 0
15, 15360, Program_c, 15, 45
15, 15420, Note_on_c, 15, 36, 44
15, 15479, Note_on_c, 15, 36, 0
15, 15480, Note_on_c, 15, 36, 44
15, 15539, Note_on_c, 15, 36, 0
15, 15540, Note_on_c, 15, 36, 44
15, 15599, Note_on_c, 15, 36, 0
15, 15600, Note_on_c, 15, 41, 44
15, 15719, Note_on_c, 15, 41, 0
15, 15720, Note_on_c, 15, 29, 44
15, 15839, Note_on_c, 15, 29, 0
15, 15960, Note_on_c, 15, 29, 44
15, 16079, Note_on_c, 15, 29, 0
15, 16200, Note_on_c, 15, 29, 44
15, 16319, Note_on_c, 15, 29, 0
15, 16440, Note_on_c, 15, 29, 44
15, 16559, Note_on_c, 15, 29, 0
15, 16680, Note_on_c, 15, 29, 44
15, 16799, Note_on_c, 15, 29, 0
15, 16920, Note_on_c, 15, 29, 44
15, 17039, Note_on_c, 15, 29, 0
15, 17160, Note_on_c, 15, 29, 44
15, 17279, Note_on_c, 15, 29, 0
15, 18240, Program_c, 15, 48
15, 18420, Note_on_c, 15, 29, 44
15, 18479, Note_on_c, 15, 29, 0
15, 18480, Note_on_c, 15, 31, 44
15, 18535, Note_on_c, 15, 31, 0
15, 18540, Note_on_c, 15, 33, 44
15, 18599, Note_on_c, 15, 33, 0
15, 18600, Note_on_c, 15, 34, 44
15, 18655, Note_on_c, 15, 34, 0
15, 18660, Note_on_c, 15, 41, 44
15, 18719, Note_on_c, 15, 41, 0
15, 18720, Note_on_c, 15, 46, 44
15, 18839, Note_on_c, 15, 46, 0
15, 19920, Note_on_c, 15, 34, 44
15, 20039, Note_on_c, 15, 34, 0
15, 20100, Note_on_c, 15, 34, 44
15, 20121, Note_on_c, 15, 34, 0
15, 20130, Note_on_c, 15, 36, 44
15, 20151, Note_on_c, 15, 36, 0
15, 20160, Note_on_c, 15, 38, 44
15, 20204, Note_on_c, 15, 38, 0
15, 20220, Note_on_c, 15, 38, 44
15, 20241, Note_on_c, 15, 38, 0
15, 20250, Note_on_c, 15, 39, 44
15, 20271, Note_on_c, 15, 39, 0
15, 20280, Note_on_c, 15, 41, 44
15, 20324, Note_on_c, 15, 41, 0
15, 20340, Note_on_c, 15, 43, 44
15, 20361, Note_on_c, 15, 43, 0
15, 20370, Note_on_c, 15, 45, 44
15, 20391, Note_on_c, 15, 45, 0
15, 20400, Note_on_c, 15, 46, 44
15, 20519, Note_on_c, 15, 46, 0
15, 21600, Note_on_c, 15, 34, 44
15, 21644, Note_on_c, 15, 34, 0
15, 21660, Note_on_c, 15, 34, 44
15, 21681, Note_on_c, 15, 34, 0
15, 21690, Note_on_c, 15, 36, 44
15, 21711, Note_on_c, 15, 36, 0
15, 21720, Note_on_c, 15, 38, 44
15, 21764, Note_on_c, 15, 38, 0
15, 21780, Note_on_c, 15, 38, 44
15, 21824, Note_on_c, 15, 38, 0
15, 21840, Note_on_c, 15, 39, 44
15, 22079, Note_on_c, 15, 39, 0
15, 22080, Note_on_c, 15, 38, 44
15, 22135, Note_on_c, 15, 38, 0
15, 22140, Note_on_c, 15, 34, 44
15, 22161, Note_on_c, 15, 34, 0
15, 22170, Note_on_c, 15, 36, 44
15, 22191, Note_on_c, 15, 36, 0
15, 22200, Note_on_c, 15, 38, 44
15, 22244, Note_on_c, 15, 38, 0
15, 22260, Note_on_c, 15, 38, 44
15, 22304, Note_on_c, 15, 38, 0
15, 22320, Note_on_c, 15, 39, 44
15, 22559, Note_on_c, 15, 39, 0
15, 22560, Note_on_c, 15, 38, 44
15, 22615, Note_on_c, 15, 38, 0
15, 22620, Note_on_c, 15, 34, 44
15, 22641, Note_on_c, 15, 34, 0
15, 22650, Note_on_c, 15, 36, 44
15, 22671, Note_on_c, 15, 36, 0
15, 22680, Note_on_c, 15, 38, 44
15, 22724, Note_on_c, 15, 38, 0
15, 22860, Note_on_c, 15, 29, 46
15, 22885, Note_on_c, 15, 29, 0
15, 22890, Note_on_c, 15, 29, 48
15, 22915, Note_on_c, 15, 29, 0
15, 22920, Note_on_c, 15, 41, 49
15, 22979, Note_on_c, 15, 41, 0
15, 23100, Note_on_c, 15, 34, 57
15, 23125, Note_on_c, 15, 34, 0
15, 23130, Note_on_c, 15, 34, 58
15, 23155, Note_on_c, 15, 34, 0
15, 23160, Note_on_c, 15, 46, 60
15, 23219, Note_on_c, 15, 46, 0
15, 23340, Note_on_c, 15, 36, 68
15, 23361, Note_on_c, 15, 36, 0
15, 23370, Note_on_c, 15, 38, 69
15, 23391, Note_on_c, 15, 38, 0
15, 23400, Note_on_c, 15, 40, 70
15, 23444, Note_on_c, 15, 40, 0
15, 23460, Note_on_c, 15, 40, 73
15, 23481, Note_on_c, 15, 40, 0
15, 23490, Note_on_c, 15, 41, 74
15, 23511, Note_on_c, 15, 41, 0
15, 23520, Note_on_c, 15, 43, 76
15, 23691, Note_on_c, 15, 43, 0
15, 23700, Note_on_c, 15, 40, 76
15, 23744, Note_on_c, 15, 40, 0
15, 23760, Note_on_c, 15, 41, 84
15, 23789, Note_on_c, 15, 41, 0
15, 23790, Note_on_c, 15, 41, 76
15, 23931, Note_on_c, 15, 41, 0
15, 23940, Note_on_c, 15, 45, 76
15, 23984, Note_on_c, 15, 45, 0
15, 24000, Note_on_c, 15, 46, 76
15, 24044, Note_on_c, 15, 46, 0
15, 24060, Note_on_c, 15, 46, 76
15, 24104, Note_on_c, 15, 46, 0
15, 24120, Note_on_c, 15, 46, 76
15, 24164, Note_on_c, 15, 46, 0
15, 24180, Note_on_c, 15, 46, 76
15, 24224, Note_on_c, 15, 46, 0
15, 24240, Note_on_c, 15, 45, 76
15, 24284, Note_on_c, 15, 45, 0
15, 24300, Note_on_c, 15, 29, 76
15, 24344, Note_on_c, 15, 29, 0
15, 24360, Note_on_c, 15, 29, 76
15, 24404, Note_on_c, 15, 29, 0
15, 24420, Note_on_c, 15, 29, 76
15, 24464, Note_on_c, 15, 29, 0
15, 24480, Note_on_c, 15, 29, 76
15, 24524, Note_on_c, 15, 29, 0
15, 24540, Note_on_c, 15, 28, 76
15, 24561, Note_on_c, 15, 28, 0
15, 24570, Note_on_c, 15, 31, 76
15, 24591, Note_on_c, 15, 31, 0
15, 24600, Note_on_c, 15, 29, 76
15, 24644, Note_on_c, 15, 29, 0
15, 24780, Note_on_c, 15, 28, 76
15, 24801, Note_on_c, 15, 28, 0
15, 24810, Note_on_c, 15, 31, 76
15, 24831, Note_on_c, 15, 31, 0
15, 24840, Note_on_c, 15, 29, 76
15, 24884, Note_on_c, 15, 29, 0
15, 25020, Note_on_c, 15, 28, 76
15, 25041, Note_on_c, 15, 28, 0
15, 25050, Note_on_c, 15, 31, 76
15, 25071, Note_on_c, 15, 31, 0
15, 25080, Note_on_c, 15, 29, 76
15, 25124, Note_on_c, 15, 29, 0
15, 25260, Note_on_c, 15, 28, 76
15, 25281, Note_on_c, 15, 28, 0
15, 25290, Note_on_c, 15, 31, 76
15, 25311, Note_on_c, 15, 31, 0
15, 25320, Note_on_c, 15, 29, 76
15, 25364, Note_on_c, 15, 29, 0
15, 25500, Note_on_c, 15, 28, 76
15, 25521, Note_on_c, 15, 28, 0
15, 25530, Note_on_c, 15, 31, 76
15, 25551, Note_on_c, 15, 31, 0
15, 25560, Note_on_c, 15, 29, 76
15, 25604, Note_on_c, 15, 29, 0
15, 25740, Note_on_c, 15, 28, 76
15, 25761, Note_on_c, 15, 28, 0
15, 25770, Note_on_c, 15, 31, 76
15, 25791, Note_on_c, 15, 31, 0
15, 25800, Note_on_c, 15, 29, 76
15, 25844, Note_on_c, 15, 29, 0
15, 25980, Note_on_c, 15, 28, 76
15, 26001, Note_on_c, 15, 28, 0
15, 26010, Note_on_c, 15, 31, 76
15, 26031, Note_on_c, 15, 31, 0
15, 26040, Note_on_c, 15, 29, 76
15, 26084, Note_on_c, 15, 29, 0
15, 26220, Note_on_c, 15, 28, 76
15, 26241, Note_on_c, 15, 28, 0
15, 26250, Note_on_c, 15, 31, 76
15, 26271, Note_on_c, 15, 31, 0
15, 26280, Note_on_c, 15, 29, 76
15, 26324, Note_on_c, 15, 29, 0
15, 26460, Note_on_c, 15, 28, 76
15, 26481, Note_on_c, 15, 28, 0
15, 26490, Note_on_c, 15, 31, 76
15, 26511, Note_on_c, 15, 31, 0
15, 26520, Note_on_c, 15, 29, 76
15, 26564, Note_on_c, 15, 29, 0
15, 26580, Note_on_c, 15, 29, 76
15, 26624, Note_on_c, 15, 29, 0
15, 26640, Note_on_c, 15, 34, 84
15, 26654, Note_on_c, 15, 34, 0
15, 26655, Note_on_c, 15, 36, 84
15, 26669, Note_on_c, 15, 36, 0
15, 26670, Note_on_c, 15, 38, 84
15, 26684, Note_on_c, 15, 38, 0
15, 26685, Note_on_c, 15, 39, 84
15, 26699, Note_on_c, 15, 39, 0
15, 26700, Note_on_c, 15, 41, 84
15, 26714, Note_on_c, 15, 41, 0
15, 26715, Note_on_c, 15, 39, 84
15, 26729, Note_on_c, 15, 39, 0
15, 26730, Note_on_c, 15, 38, 84
15, 26744, Note_on_c, 15, 38, 0
15, 26745, Note_on_c, 15, 36, 84
15, 26756, Note_on_c, 15, 36, 0
15, 26760, Note_on_c, 15, 34, 84
15, 26804, Note_on_c, 15, 34, 0
15, 26820, Note_on_c, 15, 41, 52
15, 26864, Note_on_c, 15, 41, 0
15, 26880, Note_on_c, 15, 38, 52
15, 26924, Note_on_c, 15, 38, 0
15, 26940, Note_on_c, 15, 34, 52
15, 26984, Note_on_c, 15, 34, 0
15, 27000, Note_on_c, 15, 38, 52
15, 27044, Note_on_c, 15, 38, 0
15, 27060, Note_on_c, 15, 42, 52
15, 27104, Note_on_c, 15, 42, 0
15, 27120, Note_on_c, 15, 43, 52
15, 27164, Note_on_c, 15, 43, 0
15, 27240, Note_on_c, 15, 40, 52
15, 27284, Note_on_c, 15, 40, 0
15, 27360, Note_on_c, 15, 41, 52
15, 27404, Note_on_c, 15, 41, 0
15, 27480, Note_on_c, 15, 53, 52
15, 27524, Note_on_c, 15, 53, 0
15, 27600, Note_on_c, 15, 34, 84
15, 27614, Note_on_c, 15, 34, 0
15, 27615, Note_on_c, 15, 36, 84
15, 27629, Note_on_c, 15, 36, 0
15, 27630, Note_on_c, 15, 38, 84
15, 27644, Note_on_c, 15, 38, 0
15, 27645, Note_on_c, 15, 39, 84
15, 27659, Note_on_c, 15, 39, 0
15, 27660, Note_on_c, 15, 41, 84
15, 27674, Note_on_c, 15, 41, 0
15, 27675, Note_on_c, 15, 39, 84
15, 27689, Note_on_c, 15, 39, 0
15, 27690, Note_on_c, 15, 38, 84
15, 27704, Note_on_c, 15, 38, 0
15, 27705, Note_on_c, 15, 36, 84
15, 27716, Note_on_c, 15, 36, 0
15, 27720, Note_on_c, 15, 34, 84
15, 27764, Note_on_c, 15, 34, 0
15, 27780, Note_on_c, 15, 41, 52
15, 27824, Note_on_c, 15, 41, 0
15, 27840, Note_on_c, 15, 38, 52
15, 27884, Note_on_c, 15, 38, 0
15, 27900, Note_on_c, 15, 34, 52
15, 27944, Note_on_c, 15, 34, 0
15, 27960, Note_on_c, 15, 38, 52
15, 28004, Note_on_c, 15, 38, 0
15, 28020, Note_on_c, 15, 42, 52
15, 28064, Note_on_c, 15, 42, 0
15, 28080, Note_on_c, 15, 43, 52
15, 28139, Note_on_c, 15, 43, 0
15, 28200, Note_on_c, 15, 40, 52
15, 28259, Note_on_c, 15, 40, 0
15, 28320, Note_on_c, 15, 36, 51
15, 28364, Note_on_c, 15, 36, 0
15, 28440, Note_on_c, 15, 46, 50
15, 28499, Note_on_c, 15, 46, 0
15, 28560, Note_on_c, 15, 45, 49
15, 28619, Note_on_c, 15, 45, 0
15, 28680, Note_on_c, 15, 41, 48
15, 28739, Note_on_c, 15, 41, 0
15, 28800, Note_on_c, 15, 51, 47
15, 28859, Note_on_c, 15, 51, 0
15, 28920, Note_on_c, 15, 50, 46
15, 28979, Note_on_c, 15, 50, 0
15, 29040, Note_on_c, 15, 34, 44
15, 29099, Note_on_c, 15, 34, 0
15, 29160, Note_on_c, 15, 44, 44
15, 29219, Note_on_c, 15, 44, 0
15, 29280, Note_on_c, 15, 43, 44
15, 29339, Note_on_c, 15, 43, 0
15, 29400, Note_on_c, 15, 42, 44
15, 29459, Note_on_c, 15, 42, 0
15, 29520, Note_on_c, 15, 41, 44
15, 29579, Note_on_c, 15, 41, 0
15, 30033, Control_c, 15, 11, 120
15, 30060, Note_on_c, 15, 53, 60
15, 30070, Control_c, 15, 11, 122
15, 30107, Control_c, 15, 11, 124
15, 30143, Control_c, 15, 11, 125
15, 30178, Control_c, 15, 11, 127
15, 30179, Note_on_c, 15, 53, 0
15, 30180, Note_on_c, 15, 46, 52
15, 30209, Note_on_c, 15, 46, 0
15, 30210, Note_on_c, 15, 50, 52
15, 30235, Note_on_c, 15, 50, 0
15, 30240, Note_on_c, 15, 53, 52
15, 30284, Note_on_c, 15, 53, 0
15, 30300, Note_on_c, 15, 41, 52
15, 30344, Note_on_c, 15, 41, 0
15, 30360, Note_on_c, 15, 41, 52
15, 30404, Note_on_c, 15, 41, 0
15, 30420, Note_on_c, 15, 41, 52
15, 30464, Note_on_c, 15, 41, 0
15, 30480, Note_on_c, 15, 46, 52
15, 30569, Note_on_c, 15, 46, 0
15, 30720, Note_on_c, 15, 41, 52
15, 30779, Note_on_c, 15, 41, 0
15, 30780, Note_on_c, 15, 46, 54
15, 30839, Note_on_c, 15, 46, 0
15, 30840, Note_on_c, 15, 45, 56
15, 30899, Note_on_c, 15, 45, 0
15, 30900, Note_on_c, 15, 48, 58
15, 30959, Note_on_c, 15, 48, 0
15, 30960, Note_on_c, 15, 46, 60
15, 31019, Note_on_c, 15, 46, 0
15, 31020, Note_on_c, 15, 51, 62
15, 31079, Note_on_c, 15, 51, 0
15, 31080, Note_on_c, 15, 50, 64
15, 31139, Note_on_c, 15, 50, 0
15, 31200, Program_c, 15, 45
15, 31260, Note_on_c, 15, 41, 44
15, 31319, Note_on_c, 15, 41, 0
15, 31320, Note_on_c, 15, 41, 44
15, 31379, Note_on_c, 15, 41, 0
15, 31380, Note_on_c, 15, 41, 44
15, 31439, Note_on_c, 15, 41, 0
15, 31440, Note_on_c, 15, 46, 44
15, 31559, Note_on_c, 15, 46, 0
15, 31560, Note_on_c, 15, 34, 44
15, 31679, Note_on_c, 15, 34, 0
15, 31800, Note_on_c, 15, 34, 44
15, 31919, Note_on_c, 15, 34, 0
15, 32040, Note_on_c, 15, 34, 44
15, 32159, Note_on_c, 15, 34, 0
15, 32280, Note_on_c, 15, 34, 44
15, 32399, Note_on_c, 15, 34, 0
15, 32520, Note_on_c, 15, 34, 44
15, 32639, Note_on_c, 15, 34, 0
15, 32760, Note_on_c, 15, 34, 44
15, 32879, Note_on_c, 15, 34, 0
15, 33000, Note_on_c, 15, 34, 44
15, 33119, Note_on_c, 15, 34, 0
15, 34080, Program_c, 15, 48
15, 34260, Note_on_c, 15, 34, 44
15, 34319, Note_on_c, 15, 34, 0
15, 34320, Note_on_c, 15, 36, 44
15, 34375, Note_on_c, 15, 36, 0
15, 34380, Note_on_c, 15, 38, 44
15, 34439, Note_on_c, 15, 38, 0
15, 34440, Note_on_c, 15, 39, 44
15, 34495, Note_on_c, 15, 39, 0
15, 34500, Note_on_c, 15, 41, 44
15, 34679, Note_on_c, 15, 41, 0
15, 34740, Note_on_c, 15, 34, 44
15, 34761, Note_on_c, 15, 34, 0
15, 34770, Note_on_c, 15, 36, 44
15, 34791, Note_on_c, 15, 36, 0
15, 34800, Note_on_c, 15, 38, 44
15, 34844, Note_on_c, 15, 38, 0
15, 34860, Note_on_c, 15, 38, 44
15, 34881, Note_on_c, 15, 38, 0
15, 34890, Note_on_c, 15, 39, 44
15, 34911, Note_on_c, 15, 39, 0
15, 34920, Note_on_c, 15, 41, 44
15, 34964, Note_on_c, 15, 41, 0
15, 34980, Note_on_c, 15, 41, 44
15, 35001, Note_on_c, 15, 41, 0
15, 35010, Note_on_c, 15, 43, 44
15, 35031, Note_on_c, 15, 43, 0
15, 35040, Note_on_c, 15, 44, 44
15, 35159, Note_on_c, 15, 44, 0
15, 36450, Note_on_c, 15, 39, 84
15, 36471, Note_on_c, 15, 39, 0
15, 36480, Note_on_c, 15, 34, 84
15, 36501, Note_on_c, 15, 34, 0
15, 36510, Note_on_c, 15, 34, 84
15, 36531, Note_on_c, 15, 34, 0
15, 36540, Note_on_c, 15, 34, 84
15, 36561, Note_on_c, 15, 34, 0
15, 36570, Note_on_c, 15, 34, 84
15, 36591, Note_on_c, 15, 34, 0
15, 36600, Note_on_c, 15, 34, 84
15, 36659, Note_on_c, 15, 34, 0
15, 36930, Note_on_c, 15, 34, 84
15, 36951, Note_on_c, 15, 34, 0
15, 36960, Note_on_c, 15, 39, 84
15, 36981, Note_on_c, 15, 39, 0
15, 36990, Note_on_c, 15, 39, 84
15, 37011, Note_on_c, 15, 39, 0
15, 37020, Note_on_c, 15, 39, 84
15, 37041, Note_on_c, 15, 39, 0
15, 37050, Note_on_c, 15, 39, 84
15, 37071, Note_on_c, 15, 39, 0
15, 37080, Note_on_c, 15, 39, 84
15, 37139, Note_on_c, 15, 39, 0
15, 37440, Note_on_c, 15, 39, 44
15, 37500, Note_on_c, 15, 39, 44
15, 37529, Note_on_c, 15, 39, 0
15, 37560, Note_on_c, 15, 41, 44
15, 37589, Note_on_c, 15, 39, 0
15, 37620, Note_on_c, 15, 29, 44
15, 37649, Note_on_c, 15, 41, 0
15, 37680, Note_on_c, 15, 34, 44
15, 37709, Note_on_c, 15, 29, 0
15, 37740, Note_on_c, 15, 39, 44
15, 37769, Note_on_c, 15, 34, 0
15, 37800, Note_on_c, 15, 41, 44
15, 37829, Note_on_c, 15, 39, 0
15, 37860, Note_on_c, 15, 29, 44
15, 37889, Note_on_c, 15, 41, 0
15, 37920, Note_on_c, 15, 34, 44
15, 37949, Note_on_c, 15, 29, 0
15, 37979, Note_on_c, 15, 34, 0
15, 38010, Note_on_c, 15, 29, 51
15, 38035, Note_on_c, 15, 29, 0
15, 38040, Note_on_c, 15, 34, 54
15, 38099, Note_on_c, 15, 34, 0
15, 38130, Note_on_c, 15, 29, 61
15, 38155, Note_on_c, 15, 29, 0
15, 38160, Note_on_c, 15, 34, 64
15, 38219, Note_on_c, 15, 34, 0
15, 38250, Note_on_c, 15, 29, 71
15, 38275, Note_on_c, 15, 29, 0
15, 38280, Note_on_c, 15, 34, 74
15, 38339, Note_on_c, 15, 34, 0
15, 38370, Note_on_c, 15, 29, 81
15, 38395, Note_on_c, 15, 29, 0
15, 38400, Note_on_c, 15, 34, 84
15, 38421, Note_on_c, 15, 34, 0
15, 38430, Note_on_c, 15, 34, 84
15, 38451, Note_on_c, 15, 34, 0
15, 38460, Note_on_c, 15, 34, 84
15, 38481, Note_on_c, 15, 34, 0
15, 38490, Note_on_c, 15, 34, 84
15, 38511, Note_on_c, 15, 34, 0
15, 38520, Note_on_c, 15, 34, 84
15, 38541, Note_on_c, 15, 34, 0
15, 38550, Note_on_c, 15, 34, 84
15, 38571, Note_on_c, 15, 34, 0
15, 38580, Note_on_c, 15, 34, 84
15, 38601, Note_on_c, 15, 34, 0
15, 38610, Note_on_c, 15, 34, 84
15, 38631, Note_on_c, 15, 34, 0
15, 38640, Note_on_c, 15, 34, 84
15, 38759, Note_on_c, 15, 34, 0
15, 38759, End_track
16, 0, Start_track
16, 0, Title_t, "Ludwig van Beethoven - Symphony No. 8 in F Major, Op.93 - 2. Allegretto scherzando"
16, 0, MIDI_port, 0
16, 0, End_track
0, 0, End_of_file
