0, 0, Header, 1, 19, 240
1, 0, Start_track
1, 0, Sequencer_specific, 10, 0, 0, 91, 35, 1, 0, 5, 6, 42, 0
1, 0, Title_t, "Ludwig van Beethoven - Symphony No. 8 in F Major, Op.93"
1, 0, Instrument_name_t, "Conductor Track"
1, 0, SMPTE_offset, 96, 0, 3, 0, 0
1, 0, MIDI_port, 0
1, 0, Marker_t, "Originally Sequenced 20 Apr 1998"
1, 0, Key_signature, -1, "major"
1, 0, Tempo, 289855
1, 0, Time_signature, 3, 2, 24, 8
1, 30240, Tempo, 289855
1, 30300, Tempo, 291262
1, 30360, Tempo, 294117
1, 30420, Tempo, 295566
1, 30480, Tempo, 298507
1, 30540, Tempo, 300000
1, 30600, Tempo, 301507
1, 30660, Tempo, 304568
1, 30720, Tempo, 306122
1, 30780, Tempo, 309278
1, 30840, Tempo, 310880
1, 30900, Tempo, 314136
1, 30960, Tempo, 289855
1, 36000, Tempo, 289855
1, 36042, Tempo, 291262
1, 36084, Tempo, 292682
1, 36128, Tempo, 294117
1, 36170, Tempo, 295566
1, 36212, Tempo, 297029
1, 36254, Tempo, 298507
1, 36296, Tempo, 300000
1, 36338, Tempo, 301507
1, 36382, Tempo, 303030
1, 36424, Tempo, 304568
1, 36466, Tempo, 306122
1, 36508, Tempo, 307692
1, 36550, Tempo, 309278
1, 36592, Tempo, 310880
1, 36636, Tempo, 312500
1, 36678, Tempo, 314136
1, 36720, Tempo, 289855
1, 104400, Tempo, 289855
1, 104460, Tempo, 291262
1, 104520, Tempo, 294117
1, 104580, Tempo, 295566
1, 104640, Tempo, 298507
1, 104700, Tempo, 300000
1, 104760, Tempo, 301507
1, 104820, Tempo, 304568
1, 104880, Tempo, 306122
1, 104940, Tempo, 309278
1, 105000, Tempo, 310880
1, 105060, Tempo, 314136
1, 105120, Tempo, 289855
1, 110160, Tempo, 289855
1, 110202, Tempo, 291262
1, 110244, Tempo, 292682
1, 110288, Tempo, 294117
1, 110330, Tempo, 295566
1, 110372, Tempo, 297029
1, 110414, Tempo, 298507
1, 110456, Tempo, 300000
1, 110498, Tempo, 301507
1, 110542, Tempo, 303030
1, 110584, Tempo, 304568
1, 110626, Tempo, 306122
1, 110668, Tempo, 307692
1, 110710, Tempo, 309278
1, 110752, Tempo, 310880
1, 110796, Tempo, 312500
1, 110838, Tempo, 314136
1, 110880, Tempo, 289855
1, 246240, Tempo, 289855
1, 246300, Tempo, 291262
1, 246360, Tempo, 294117
1, 246420, Tempo, 295566
1, 246480, Tempo, 298507
1, 246540, Tempo, 300000
1, 246600, Tempo, 301507
1, 246660, Tempo, 304568
1, 246720, Tempo, 306122
1, 246780, Tempo, 309278
1, 246840, Tempo, 310880
1, 246900, Tempo, 314136
1, 246960, Tempo, 315789
1, 247680, Tempo, 289855
1, 252000, Tempo, 289855
1, 252060, Tempo, 291262
1, 252120, Tempo, 294117
1, 252180, Tempo, 295566
1, 252240, Tempo, 298507
1, 252300, Tempo, 300000
1, 252360, Tempo, 301507
1, 252420, Tempo, 304568
1, 252480, Tempo, 306122
1, 252540, Tempo, 309278
1, 252600, Tempo, 310880
1, 252660, Tempo, 314136
1, 252720, Tempo, 289855
1, 312960, Tempo, 2000000
1, 313200, Tempo, 289855
1, 345600, Tempo, 1363636
1, 345600, End_track
2, 0, Start_track
2, 0, Title_t, "1st Movement - Allegro vivace con brio"
2, 0, MIDI_port, 0
2, 0, End_track
3, 0, Start_track
3, 0, Title_t, "Sequenced by D. L. Viens 18 Oct 2000"
3, 0, MIDI_port, 0
3, 0, End_track
4, 0, Start_track
4, 0, Title_t, "dlviens@empire.net"
4, 0, MIDI_port, 0
4, 0, End_track
5, 0, Start_track
5, 0, MIDI_port, 0
5, 0, End_track
6, 0, Start_track
6, 0, Title_t, "Flute"
6, 0, MIDI_port, 0
6, 0, Program_c, 0, 73
6, 0, Control_c, 0, 7, 88
6, 0, Control_c, 0, 10, 60
6, 0, Control_c, 0, 11, 127
6, 0, Note_on_c, 0, 89, 76
6, 0, Note_on_c, 0, 84, 76
6, 1184, Note_on_c, 0, 89, 0
6, 1184, Note_on_c, 0, 84, 0
6, 1200, Note_on_c, 0, 84, 76
6, 1289, Note_on_c, 0, 84, 0
6, 1320, Note_on_c, 0, 89, 76
6, 1320, Note_on_c, 0, 84, 76
6, 1409, Note_on_c, 0, 89, 0
6, 1409, Note_on_c, 0, 84, 0
6, 1440, Note_on_c, 0, 84, 76
6, 1440, Note_on_c, 0, 89, 76
6, 1559, Note_on_c, 0, 89, 0
6, 1560, Note_on_c, 0, 88, 76
6, 1664, Note_on_c, 0, 84, 0
6, 1664, Note_on_c, 0, 88, 0
6, 1680, Note_on_c, 0, 84, 76
6, 1680, Note_on_c, 0, 88, 76
6, 1769, Note_on_c, 0, 84, 0
6, 1769, Note_on_c, 0, 88, 0
6, 1800, Note_on_c, 0, 84, 76
6, 1800, Note_on_c, 0, 89, 76
6, 1889, Note_on_c, 0, 84, 0
6, 1889, Note_on_c, 0, 89, 0
6, 1920, Note_on_c, 0, 84, 76
6, 1920, Note_on_c, 0, 91, 76
6, 2009, Note_on_c, 0, 84, 0
6, 2009, Note_on_c, 0, 91, 0
6, 2040, Note_on_c, 0, 89, 76
6, 2040, Note_on_c, 0, 84, 76
6, 2129, Note_on_c, 0, 89, 0
6, 2129, Note_on_c, 0, 84, 0
6, 2160, Note_on_c, 0, 88, 76
6, 2160, Note_on_c, 0, 84, 76
6, 2399, Note_on_c, 0, 88, 0
6, 2399, Note_on_c, 0, 84, 0
6, 5280, Note_on_c, 0, 88, 52
6, 5519, Note_on_c, 0, 88, 0
6, 5520, Note_on_c, 0, 89, 52
6, 5759, Note_on_c, 0, 89, 0
6, 6480, Note_on_c, 0, 91, 76
6, 6480, Note_on_c, 0, 84, 76
6, 7184, Note_on_c, 0, 91, 0
6, 7184, Note_on_c, 0, 84, 0
6, 7200, Note_on_c, 0, 84, 76
6, 7200, Note_on_c, 0, 89, 76
6, 7319, Note_on_c, 0, 84, 0
6, 7319, Note_on_c, 0, 89, 0
6, 7440, Note_on_c, 0, 84, 76
6, 7440, Note_on_c, 0, 89, 76
6, 7559, Note_on_c, 0, 84, 0
6, 7559, Note_on_c, 0, 89, 0
6, 7680, Note_on_c, 0, 84, 76
6, 7680, Note_on_c, 0, 91, 76
6, 7799, Note_on_c, 0, 84, 0
6, 7799, Note_on_c, 0, 91, 0
6, 7920, Note_on_c, 0, 84, 76
6, 7920, Note_on_c, 0, 89, 76
6, 8159, Note_on_c, 0, 84, 0
6, 8159, Note_on_c, 0, 89, 0
6, 9300, Note_on_c, 0, 84, 76
6, 9300, Note_on_c, 0, 89, 76
6, 9351, Note_on_c, 0, 84, 0
6, 9351, Note_on_c, 0, 89, 0
6, 9360, Note_on_c, 0, 86, 76
6, 9360, Note_on_c, 0, 89, 76
6, 9599, Note_on_c, 0, 86, 0
6, 9599, Note_on_c, 0, 89, 0
6, 10740, Note_on_c, 0, 89, 76
6, 10740, Note_on_c, 0, 86, 76
6, 10791, Note_on_c, 0, 89, 0
6, 10791, Note_on_c, 0, 86, 0
6, 10800, Note_on_c, 0, 89, 76
6, 10800, Note_on_c, 0, 86, 76
6, 11039, Note_on_c, 0, 89, 0
6, 11039, Note_on_c, 0, 86, 0
6, 12180, Note_on_c, 0, 89, 76
6, 12180, Note_on_c, 0, 86, 76
6, 12231, Note_on_c, 0, 89, 0
6, 12231, Note_on_c, 0, 86, 0
6, 12240, Note_on_c, 0, 88, 76
6, 12240, Note_on_c, 0, 84, 76
6, 12704, Note_on_c, 0, 88, 0
6, 12704, Note_on_c, 0, 84, 0
6, 12720, Note_on_c, 0, 84, 76
6, 12720, Note_on_c, 0, 88, 76
6, 12839, Note_on_c, 0, 84, 0
6, 12839, Note_on_c, 0, 88, 0
6, 12960, Note_on_c, 0, 84, 76
6, 12960, Note_on_c, 0, 88, 76
6, 13079, Note_on_c, 0, 84, 0
6, 13079, Note_on_c, 0, 88, 0
6, 13200, Note_on_c, 0, 84, 76
6, 13200, Note_on_c, 0, 88, 76
6, 13319, Note_on_c, 0, 84, 0
6, 13319, Note_on_c, 0, 88, 0
6, 13440, Note_on_c, 0, 88, 76
6, 13440, Note_on_c, 0, 84, 76
6, 13559, Note_on_c, 0, 88, 0
6, 13559, Note_on_c, 0, 84, 0
6, 13680, Note_on_c, 0, 89, 76
6, 13680, Note_on_c, 0, 84, 76
6, 15051, Note_on_c, 0, 89, 0
6, 15051, Note_on_c, 0, 84, 0
6, 15060, Note_on_c, 0, 89, 76
6, 15060, Note_on_c, 0, 84, 76
6, 15111, Note_on_c, 0, 89, 0
6, 15111, Note_on_c, 0, 84, 0
6, 15120, Note_on_c, 0, 86, 76
6, 15120, Note_on_c, 0, 89, 76
6, 16491, Note_on_c, 0, 86, 0
6, 16491, Note_on_c, 0, 89, 0
6, 16500, Note_on_c, 0, 89, 76
6, 16500, Note_on_c, 0, 86, 76
6, 16551, Note_on_c, 0, 89, 0
6, 16551, Note_on_c, 0, 86, 0
6, 16560, Note_on_c, 0, 86, 76
6, 17931, Note_on_c, 0, 86, 0
6, 17940, Note_on_c, 0, 86, 76
6, 17991, Note_on_c, 0, 86, 0
6, 18000, Note_on_c, 0, 86, 76
6, 19371, Note_on_c, 0, 86, 0
6, 19380, Note_on_c, 0, 86, 76
6, 19431, Note_on_c, 0, 86, 0
6, 19440, Note_on_c, 0, 86, 76
6, 19904, Note_on_c, 0, 86, 0
6, 19920, Note_on_c, 0, 86, 84
6, 20091, Note_on_c, 0, 86, 0
6, 20100, Note_on_c, 0, 86, 76
6, 20151, Note_on_c, 0, 86, 0
6, 20160, Note_on_c, 0, 86, 76
6, 20624, Note_on_c, 0, 86, 0
6, 20640, Note_on_c, 0, 86, 84
6, 20811, Note_on_c, 0, 86, 0
6, 20820, Note_on_c, 0, 86, 76
6, 20871, Note_on_c, 0, 86, 0
6, 20880, Note_on_c, 0, 86, 76
6, 20999, Note_on_c, 0, 86, 0
6, 21360, Note_on_c, 0, 86, 84
6, 21479, Note_on_c, 0, 86, 0
6, 21600, Note_on_c, 0, 86, 76
6, 21719, Note_on_c, 0, 86, 0
6, 22080, Note_on_c, 0, 86, 84
6, 22199, Note_on_c, 0, 86, 0
6, 22320, Note_on_c, 0, 86, 76
6, 22439, Note_on_c, 0, 86, 0
6, 32160, Note_on_c, 0, 79, 48
6, 32249, Note_on_c, 0, 79, 0
6, 32280, Note_on_c, 0, 79, 48
6, 32519, Note_on_c, 0, 79, 0
6, 32520, Note_on_c, 0, 81, 48
6, 32639, Note_on_c, 0, 81, 0
6, 32640, Note_on_c, 0, 83, 48
6, 32759, Note_on_c, 0, 83, 0
6, 32760, Note_on_c, 0, 84, 48
6, 32864, Note_on_c, 0, 84, 0
6, 32880, Note_on_c, 0, 79, 48
6, 32969, Note_on_c, 0, 79, 0
6, 33000, Note_on_c, 0, 79, 48
6, 33239, Note_on_c, 0, 79, 0
6, 33240, Note_on_c, 0, 83, 48
6, 33359, Note_on_c, 0, 83, 0
6, 33360, Note_on_c, 0, 84, 48
6, 33479, Note_on_c, 0, 84, 0
6, 33480, Note_on_c, 0, 86, 48
6, 33584, Note_on_c, 0, 86, 0
6, 33600, Note_on_c, 0, 79, 48
6, 33689, Note_on_c, 0, 79, 0
6, 33720, Note_on_c, 0, 79, 48
6, 33959, Note_on_c, 0, 79, 0
6, 33960, Note_on_c, 0, 84, 48
6, 34079, Note_on_c, 0, 84, 0
6, 34080, Note_on_c, 0, 86, 48
6, 34199, Note_on_c, 0, 86, 0
6, 34200, Note_on_c, 0, 88, 48
6, 34319, Note_on_c, 0, 88, 0
6, 34320, Note_on_c, 0, 89, 48
6, 34439, Note_on_c, 0, 89, 0
6, 34440, Note_on_c, 0, 88, 48
6, 34544, Note_on_c, 0, 88, 0
6, 34560, Note_on_c, 0, 86, 48
6, 34784, Note_on_c, 0, 86, 0
6, 34800, Note_on_c, 0, 91, 48
6, 35399, Note_on_c, 0, 91, 0
6, 35400, Note_on_c, 0, 90, 48
6, 35519, Note_on_c, 0, 90, 0
6, 35520, Note_on_c, 0, 86, 48
6, 35639, Note_on_c, 0, 86, 0
6, 35640, Note_on_c, 0, 88, 48
6, 35744, Note_on_c, 0, 88, 0
6, 35760, Note_on_c, 0, 89, 48
6, 36119, Note_on_c, 0, 89, 0
6, 36120, Note_on_c, 0, 88, 48
6, 36239, Note_on_c, 0, 88, 0
6, 36240, Note_on_c, 0, 84, 48
6, 36359, Note_on_c, 0, 84, 0
6, 36360, Note_on_c, 0, 86, 48
6, 36464, Note_on_c, 0, 86, 0
6, 36480, Note_on_c, 0, 84, 52
6, 36480, Note_on_c, 0, 87, 52
6, 36720, Control_c, 0, 11, 112
6, 38864, Note_on_c, 0, 84, 0
6, 38864, Note_on_c, 0, 87, 0
6, 38880, Note_on_c, 0, 87, 52
6, 39059, Note_on_c, 0, 87, 0
6, 39120, Control_c, 0, 11, 64
6, 39360, Note_on_c, 0, 84, 76
6, 39539, Note_on_c, 0, 84, 0
6, 39600, Note_on_c, 0, 84, 76
6, 39600, Note_on_c, 0, 87, 76
6, 41040, Control_c, 0, 11, 64
6, 41280, Control_c, 0, 11, 69
6, 41520, Control_c, 0, 11, 75
6, 41744, Note_on_c, 0, 84, 0
6, 41744, Note_on_c, 0, 87, 0
6, 41760, Control_c, 0, 11, 80
6, 41760, Note_on_c, 0, 84, 76
6, 41760, Note_on_c, 0, 87, 76
6, 41939, Note_on_c, 0, 84, 0
6, 41939, Note_on_c, 0, 87, 0
6, 42000, Control_c, 0, 11, 85
6, 42240, Control_c, 0, 11, 90
6, 42240, Note_on_c, 0, 84, 76
6, 42419, Note_on_c, 0, 84, 0
6, 42480, Note_on_c, 0, 89, 76
6, 42480, Note_on_c, 0, 86, 76
6, 42480, Control_c, 0, 11, 96
6, 42720, Control_c, 0, 11, 101
6, 42960, Control_c, 0, 11, 106
6, 43184, Note_on_c, 0, 89, 0
6, 43184, Note_on_c, 0, 86, 0
6, 43200, Control_c, 0, 11, 111
6, 43200, Note_on_c, 0, 86, 76
6, 43200, Note_on_c, 0, 89, 76
6, 43379, Note_on_c, 0, 86, 0
6, 43379, Note_on_c, 0, 89, 0
6, 43440, Control_c, 0, 11, 117
6, 43680, Note_on_c, 0, 86, 76
6, 43680, Control_c, 0, 11, 127
6, 43859, Note_on_c, 0, 86, 0
6, 43920, Note_on_c, 0, 91, 84
6, 43920, Note_on_c, 0, 88, 84
6, 44099, Note_on_c, 0, 91, 0
6, 44099, Note_on_c, 0, 88, 0
6, 44640, Note_on_c, 0, 89, 84
6, 44640, Note_on_c, 0, 92, 84
6, 44879, Note_on_c, 0, 89, 0
6, 44879, Note_on_c, 0, 92, 0
6, 45360, Note_on_c, 0, 93, 84
6, 45360, Note_on_c, 0, 90, 84
6, 45539, Note_on_c, 0, 93, 0
6, 45539, Note_on_c, 0, 90, 0
6, 46080, Note_on_c, 0, 79, 84
6, 46080, Note_on_c, 0, 91, 84
6, 46259, Note_on_c, 0, 79, 0
6, 46259, Note_on_c, 0, 91, 0
6, 46560, Note_on_c, 0, 91, 76
6, 46560, Note_on_c, 0, 79, 76
6, 46739, Note_on_c, 0, 91, 0
6, 46739, Note_on_c, 0, 79, 0
6, 46800, Note_on_c, 0, 86, 84
6, 46800, Note_on_c, 0, 91, 84
6, 46979, Note_on_c, 0, 86, 0
6, 46979, Note_on_c, 0, 91, 0
6, 47280, Note_on_c, 0, 86, 84
6, 47280, Note_on_c, 0, 91, 84
6, 47459, Note_on_c, 0, 86, 0
6, 47459, Note_on_c, 0, 91, 0
6, 47520, Note_on_c, 0, 88, 84
6, 47520, Note_on_c, 0, 91, 84
6, 47699, Note_on_c, 0, 88, 0
6, 47699, Note_on_c, 0, 91, 0
6, 48000, Note_on_c, 0, 93, 84
6, 48000, Note_on_c, 0, 81, 84
6, 48179, Note_on_c, 0, 93, 0
6, 48179, Note_on_c, 0, 81, 0
6, 48240, Note_on_c, 0, 89, 84
6, 48240, Note_on_c, 0, 77, 84
6, 48419, Note_on_c, 0, 89, 0
6, 48419, Note_on_c, 0, 77, 0
6, 48720, Note_on_c, 0, 74, 84
6, 48720, Note_on_c, 0, 86, 84
6, 48899, Note_on_c, 0, 74, 0
6, 48899, Note_on_c, 0, 86, 0
6, 48960, Note_on_c, 0, 79, 84
6, 48960, Note_on_c, 0, 91, 84
6, 49139, Note_on_c, 0, 79, 0
6, 49139, Note_on_c, 0, 91, 0
6, 49440, Note_on_c, 0, 79, 84
6, 49619, Note_on_c, 0, 79, 0
6, 49680, Note_on_c, 0, 84, 84
6, 49680, Note_on_c, 0, 88, 84
6, 49851, Note_on_c, 0, 84, 0
6, 49851, Note_on_c, 0, 88, 0
6, 49860, Note_on_c, 0, 88, 84
6, 49860, Note_on_c, 0, 84, 84
6, 49911, Note_on_c, 0, 88, 0
6, 49911, Note_on_c, 0, 84, 0
6, 49920, Note_on_c, 0, 83, 84
6, 49920, Note_on_c, 0, 86, 84
6, 50099, Note_on_c, 0, 83, 0
6, 50099, Note_on_c, 0, 86, 0
6, 50160, Note_on_c, 0, 89, 84
6, 50160, Note_on_c, 0, 86, 84
6, 50331, Note_on_c, 0, 89, 0
6, 50331, Note_on_c, 0, 86, 0
6, 50340, Note_on_c, 0, 89, 84
6, 50340, Note_on_c, 0, 86, 84
6, 50391, Note_on_c, 0, 89, 0
6, 50391, Note_on_c, 0, 86, 0
6, 50400, Note_on_c, 0, 84, 84
6, 50400, Note_on_c, 0, 88, 84
6, 50579, Note_on_c, 0, 84, 0
6, 50579, Note_on_c, 0, 88, 0
6, 50640, Note_on_c, 0, 93, 84
6, 50640, Note_on_c, 0, 89, 84
6, 50811, Note_on_c, 0, 93, 0
6, 50811, Note_on_c, 0, 89, 0
6, 50820, Note_on_c, 0, 93, 84
6, 50820, Note_on_c, 0, 89, 84
6, 50871, Note_on_c, 0, 93, 0
6, 50871, Note_on_c, 0, 89, 0
6, 50880, Note_on_c, 0, 91, 84
6, 50880, Note_on_c, 0, 88, 84
6, 51059, Note_on_c, 0, 91, 0
6, 51059, Note_on_c, 0, 88, 0
6, 51120, Note_on_c, 0, 93, 84
6, 51120, Note_on_c, 0, 89, 84
6, 51291, Note_on_c, 0, 93, 0
6, 51291, Note_on_c, 0, 89, 0
6, 51300, Note_on_c, 0, 93, 84
6, 51300, Note_on_c, 0, 89, 84
6, 51351, Note_on_c, 0, 93, 0
6, 51351, Note_on_c, 0, 89, 0
6, 51360, Note_on_c, 0, 91, 84
6, 51360, Note_on_c, 0, 88, 84
6, 51539, Note_on_c, 0, 91, 0
6, 51539, Note_on_c, 0, 88, 0
6, 51600, Note_on_c, 0, 91, 48
6, 51839, Note_on_c, 0, 91, 0
6, 51840, Note_on_c, 0, 90, 48
6, 52319, Note_on_c, 0, 90, 0
6, 52320, Note_on_c, 0, 91, 48
6, 52559, Note_on_c, 0, 91, 0
6, 52560, Note_on_c, 0, 89, 48
6, 53039, Note_on_c, 0, 89, 0
6, 53040, Note_on_c, 0, 88, 48
6, 53279, Note_on_c, 0, 88, 0
6, 53280, Note_on_c, 0, 86, 48
6, 53759, Note_on_c, 0, 86, 0
6, 53760, Note_on_c, 0, 84, 48
6, 53999, Note_on_c, 0, 84, 0
6, 54000, Note_on_c, 0, 83, 48
6, 54479, Note_on_c, 0, 83, 0
6, 54480, Note_on_c, 0, 84, 48
6, 54719, Note_on_c, 0, 84, 0
6, 54720, Note_on_c, 0, 86, 48
6, 55199, Note_on_c, 0, 86, 0
6, 55200, Note_on_c, 0, 84, 52
6, 55200, Note_on_c, 0, 88, 52
6, 55439, Note_on_c, 0, 88, 0
6, 55440, Note_on_c, 0, 89, 52
6, 55904, Note_on_c, 0, 89, 0
6, 55919, Note_on_c, 0, 84, 0
6, 55920, Note_on_c, 0, 86, 52
6, 55920, Note_on_c, 0, 89, 52
6, 56159, Note_on_c, 0, 86, 0
6, 56159, Note_on_c, 0, 89, 0
6, 56160, Note_on_c, 0, 84, 52
6, 56160, Note_on_c, 0, 88, 52
6, 56639, Note_on_c, 0, 84, 0
6, 56639, Note_on_c, 0, 88, 0
6, 56640, Note_on_c, 0, 86, 52
6, 56640, Note_on_c, 0, 83, 52
6, 56864, Note_on_c, 0, 86, 0
6, 56864, Note_on_c, 0, 83, 0
6, 56880, Note_on_c, 0, 84, 84
6, 56880, Note_on_c, 0, 88, 84
6, 57051, Note_on_c, 0, 84, 0
6, 57051, Note_on_c, 0, 88, 0
6, 57060, Note_on_c, 0, 88, 84
6, 57060, Note_on_c, 0, 84, 84
6, 57111, Note_on_c, 0, 88, 0
6, 57111, Note_on_c, 0, 84, 0
6, 57120, Note_on_c, 0, 86, 84
6, 57120, Note_on_c, 0, 83, 84
6, 57299, Note_on_c, 0, 86, 0
6, 57299, Note_on_c, 0, 83, 0
6, 57360, Note_on_c, 0, 86, 84
6, 57360, Note_on_c, 0, 89, 84
6, 57531, Note_on_c, 0, 86, 0
6, 57531, Note_on_c, 0, 89, 0
6, 57540, Note_on_c, 0, 89, 84
6, 57540, Note_on_c, 0, 86, 84
6, 57591, Note_on_c, 0, 89, 0
6, 57591, Note_on_c, 0, 86, 0
6, 57600, Note_on_c, 0, 84, 84
6, 57600, Note_on_c, 0, 88, 84
6, 57779, Note_on_c, 0, 84, 0
6, 57779, Note_on_c, 0, 88, 0
6, 57840, Note_on_c, 0, 89, 84
6, 57840, Note_on_c, 0, 93, 84
6, 58011, Note_on_c, 0, 89, 0
6, 58011, Note_on_c, 0, 93, 0
6, 58020, Note_on_c, 0, 89, 84
6, 58020, Note_on_c, 0, 93, 84
6, 58071, Note_on_c, 0, 89, 0
6, 58071, Note_on_c, 0, 93, 0
6, 58080, Note_on_c, 0, 88, 84
6, 58080, Note_on_c, 0, 91, 84
6, 58259, Note_on_c, 0, 88, 0
6, 58259, Note_on_c, 0, 91, 0
6, 58320, Note_on_c, 0, 93, 84
6, 58320, Note_on_c, 0, 89, 84
6, 58491, Note_on_c, 0, 93, 0
6, 58491, Note_on_c, 0, 89, 0
6, 58500, Note_on_c, 0, 89, 84
6, 58500, Note_on_c, 0, 93, 84
6, 58551, Note_on_c, 0, 89, 0
6, 58551, Note_on_c, 0, 93, 0
6, 58560, Note_on_c, 0, 91, 84
6, 58560, Note_on_c, 0, 88, 84
6, 58739, Note_on_c, 0, 91, 0
6, 58739, Note_on_c, 0, 88, 0
6, 60960, Note_on_c, 0, 91, 48
6, 61199, Note_on_c, 0, 91, 0
6, 61200, Note_on_c, 0, 89, 48
6, 61679, Note_on_c, 0, 89, 0
6, 61680, Note_on_c, 0, 88, 48
6, 61919, Note_on_c, 0, 88, 0
6, 61920, Note_on_c, 0, 86, 48
6, 62399, Note_on_c, 0, 86, 0
6, 62400, Note_on_c, 0, 82, 52
6, 62400, Note_on_c, 0, 84, 52
6, 62624, Note_on_c, 0, 84, 0
6, 62639, Note_on_c, 0, 82, 0
6, 62640, Note_on_c, 0, 81, 52
6, 62640, Note_on_c, 0, 84, 52
6, 63119, Note_on_c, 0, 81, 0
6, 63119, Note_on_c, 0, 84, 0
6, 63120, Note_on_c, 0, 86, 52
6, 63120, Note_on_c, 0, 89, 52
6, 63359, Note_on_c, 0, 86, 0
6, 63359, Note_on_c, 0, 89, 0
6, 63360, Note_on_c, 0, 88, 52
6, 63360, Note_on_c, 0, 84, 52
6, 63839, Note_on_c, 0, 88, 0
6, 63839, Note_on_c, 0, 84, 0
6, 63840, Note_on_c, 0, 86, 52
6, 63840, Note_on_c, 0, 83, 52
6, 64064, Note_on_c, 0, 86, 0
6, 64064, Note_on_c, 0, 83, 0
6, 64080, Note_on_c, 0, 76, 52
6, 64080, Note_on_c, 0, 84, 52
6, 64319, Note_on_c, 0, 76, 0
6, 64319, Note_on_c, 0, 84, 0
6, 64800, Note_on_c, 0, 89, 52
6, 64919, Note_on_c, 0, 89, 0
6, 64920, Note_on_c, 0, 88, 56
6, 65039, Note_on_c, 0, 88, 0
6, 65040, Note_on_c, 0, 89, 60
6, 65159, Note_on_c, 0, 89, 0
6, 65160, Note_on_c, 0, 88, 64
6, 65279, Note_on_c, 0, 88, 0
6, 65280, Note_on_c, 0, 86, 68
6, 65399, Note_on_c, 0, 86, 0
6, 65400, Note_on_c, 0, 84, 72
6, 65504, Note_on_c, 0, 84, 0
6, 65520, Note_on_c, 0, 84, 76
6, 65699, Note_on_c, 0, 84, 0
6, 65760, Note_on_c, 0, 88, 84
6, 66119, Note_on_c, 0, 88, 0
6, 66120, Note_on_c, 0, 84, 76
6, 66224, Note_on_c, 0, 84, 0
6, 66240, Note_on_c, 0, 83, 84
6, 66479, Note_on_c, 0, 83, 0
6, 66600, Note_on_c, 0, 83, 76
6, 66689, Note_on_c, 0, 83, 0
6, 66720, Note_on_c, 0, 84, 76
6, 66720, Note_on_c, 0, 91, 76
6, 66809, Note_on_c, 0, 84, 0
6, 66809, Note_on_c, 0, 91, 0
6, 66840, Note_on_c, 0, 89, 76
6, 66840, Note_on_c, 0, 86, 76
6, 66929, Note_on_c, 0, 89, 0
6, 66929, Note_on_c, 0, 86, 0
6, 66960, Note_on_c, 0, 88, 84
6, 67139, Note_on_c, 0, 88, 0
6, 67320, Note_on_c, 0, 79, 76
6, 67320, Note_on_c, 0, 91, 76
6, 67409, Note_on_c, 0, 79, 0
6, 67409, Note_on_c, 0, 91, 0
6, 67440, Note_on_c, 0, 88, 76
6, 67440, Note_on_c, 0, 79, 76
6, 67529, Note_on_c, 0, 88, 0
6, 67529, Note_on_c, 0, 79, 0
6, 67560, Note_on_c, 0, 84, 76
6, 67560, Note_on_c, 0, 79, 76
6, 67649, Note_on_c, 0, 84, 0
6, 67649, Note_on_c, 0, 79, 0
6, 67680, Note_on_c, 0, 83, 84
6, 67680, Note_on_c, 0, 79, 84
6, 67859, Note_on_c, 0, 83, 0
6, 67859, Note_on_c, 0, 79, 0
6, 68040, Note_on_c, 0, 83, 76
6, 68129, Note_on_c, 0, 83, 0
6, 68160, Note_on_c, 0, 91, 76
6, 68160, Note_on_c, 0, 84, 76
6, 68249, Note_on_c, 0, 91, 0
6, 68249, Note_on_c, 0, 84, 0
6, 68280, Note_on_c, 0, 89, 76
6, 68280, Note_on_c, 0, 86, 76
6, 68369, Note_on_c, 0, 89, 0
6, 68369, Note_on_c, 0, 86, 0
6, 68400, Note_on_c, 0, 88, 84
6, 71264, Note_on_c, 0, 88, 0
6, 71280, Note_on_c, 0, 84, 92
6, 71519, Note_on_c, 0, 84, 0
6, 72000, Note_on_c, 0, 84, 92
6, 72239, Note_on_c, 0, 84, 0
6, 72720, Note_on_c, 0, 84, 92
6, 72959, Note_on_c, 0, 84, 0
6, 73440, Note_on_c, 0, 84, 92
6, 73679, Note_on_c, 0, 84, 0
6, 73800, Note_on_c, 0, 84, 84
6, 73800, Note_on_c, 0, 88, 84
6, 73904, Note_on_c, 0, 84, 0
6, 73904, Note_on_c, 0, 88, 0
6, 73920, Note_on_c, 0, 84, 84
6, 73920, Note_on_c, 0, 88, 84
6, 74024, Note_on_c, 0, 84, 0
6, 74024, Note_on_c, 0, 88, 0
6, 74040, Note_on_c, 0, 84, 84
6, 74040, Note_on_c, 0, 88, 84
6, 74144, Note_on_c, 0, 84, 0
6, 74144, Note_on_c, 0, 88, 0
6, 74160, Note_on_c, 0, 89, 76
6, 74160, Note_on_c, 0, 84, 76
6, 75344, Note_on_c, 0, 89, 0
6, 75344, Note_on_c, 0, 84, 0
6, 75360, Note_on_c, 0, 84, 76
6, 75449, Note_on_c, 0, 84, 0
6, 75480, Note_on_c, 0, 89, 76
6, 75480, Note_on_c, 0, 84, 76
6, 75569, Note_on_c, 0, 89, 0
6, 75569, Note_on_c, 0, 84, 0
6, 75600, Note_on_c, 0, 84, 76
6, 75600, Note_on_c, 0, 89, 76
6, 75719, Note_on_c, 0, 89, 0
6, 75720, Note_on_c, 0, 88, 76
6, 75824, Note_on_c, 0, 84, 0
6, 75824, Note_on_c, 0, 88, 0
6, 75840, Note_on_c, 0, 84, 76
6, 75840, Note_on_c, 0, 88, 76
6, 75929, Note_on_c, 0, 84, 0
6, 75929, Note_on_c, 0, 88, 0
6, 75960, Note_on_c, 0, 84, 76
6, 75960, Note_on_c, 0, 89, 76
6, 76049, Note_on_c, 0, 84, 0
6, 76049, Note_on_c, 0, 89, 0
6, 76080, Note_on_c, 0, 84, 76
6, 76080, Note_on_c, 0, 91, 76
6, 76169, Note_on_c, 0, 84, 0
6, 76169, Note_on_c, 0, 91, 0
6, 76200, Note_on_c, 0, 84, 76
6, 76200, Note_on_c, 0, 89, 76
6, 76289, Note_on_c, 0, 84, 0
6, 76289, Note_on_c, 0, 89, 0
6, 76320, Note_on_c, 0, 84, 76
6, 76320, Note_on_c, 0, 88, 76
6, 76559, Note_on_c, 0, 84, 0
6, 76559, Note_on_c, 0, 88, 0
6, 79440, Note_on_c, 0, 88, 52
6, 79679, Note_on_c, 0, 88, 0
6, 79680, Note_on_c, 0, 89, 52
6, 79919, Note_on_c, 0, 89, 0
6, 80640, Note_on_c, 0, 91, 76
6, 80640, Note_on_c, 0, 84, 76
6, 81344, Note_on_c, 0, 91, 0
6, 81344, Note_on_c, 0, 84, 0
6, 81360, Note_on_c, 0, 89, 76
6, 81360, Note_on_c, 0, 84, 76
6, 81479, Note_on_c, 0, 89, 0
6, 81479, Note_on_c, 0, 84, 0
6, 81600, Note_on_c, 0, 84, 76
6, 81600, Note_on_c, 0, 89, 76
6, 81719, Note_on_c, 0, 84, 0
6, 81719, Note_on_c, 0, 89, 0
6, 81840, Note_on_c, 0, 91, 76
6, 81840, Note_on_c, 0, 84, 76
6, 81959, Note_on_c, 0, 91, 0
6, 81959, Note_on_c, 0, 84, 0
6, 82080, Note_on_c, 0, 84, 76
6, 82080, Note_on_c, 0, 89, 76
6, 82319, Note_on_c, 0, 84, 0
6, 82319, Note_on_c, 0, 89, 0
6, 83460, Note_on_c, 0, 84, 76
6, 83460, Note_on_c, 0, 89, 76
6, 83511, Note_on_c, 0, 84, 0
6, 83511, Note_on_c, 0, 89, 0
6, 83520, Note_on_c, 0, 86, 76
6, 83520, Note_on_c, 0, 89, 76
6, 83759, Note_on_c, 0, 86, 0
6, 83759, Note_on_c, 0, 89, 0
6, 84900, Note_on_c, 0, 86, 76
6, 84900, Note_on_c, 0, 89, 76
6, 84951, Note_on_c, 0, 86, 0
6, 84951, Note_on_c, 0, 89, 0
6, 84960, Note_on_c, 0, 86, 76
6, 84960, Note_on_c, 0, 89, 76
6, 85199, Note_on_c, 0, 86, 0
6, 85199, Note_on_c, 0, 89, 0
6, 86340, Note_on_c, 0, 86, 76
6, 86340, Note_on_c, 0, 89, 76
6, 86391, Note_on_c, 0, 86, 0
6, 86391, Note_on_c, 0, 89, 0
6, 86400, Note_on_c, 0, 88, 76
6, 86400, Note_on_c, 0, 84, 76
6, 86864, Note_on_c, 0, 88, 0
6, 86864, Note_on_c, 0, 84, 0
6, 86880, Note_on_c, 0, 84, 76
6, 86880, Note_on_c, 0, 88, 76
6, 86999, Note_on_c, 0, 84, 0
6, 86999, Note_on_c, 0, 88, 0
6, 87120, Note_on_c, 0, 84, 76
6, 87120, Note_on_c, 0, 88, 76
6, 87239, Note_on_c, 0, 84, 0
6, 87239, Note_on_c, 0, 88, 0
6, 87360, Note_on_c, 0, 88, 76
6, 87360, Note_on_c, 0, 84, 76
6, 87479, Note_on_c, 0, 88, 0
6, 87479, Note_on_c, 0, 84, 0
6, 87600, Note_on_c, 0, 88, 76
6, 87600, Note_on_c, 0, 84, 76
6, 87719, Note_on_c, 0, 88, 0
6, 87719, Note_on_c, 0, 84, 0
6, 87840, Note_on_c, 0, 89, 76
6, 87840, Note_on_c, 0, 84, 76
6, 89211, Note_on_c, 0, 89, 0
6, 89211, Note_on_c, 0, 84, 0
6, 89220, Note_on_c, 0, 89, 76
6, 89220, Note_on_c, 0, 84, 76
6, 89271, Note_on_c, 0, 89, 0
6, 89271, Note_on_c, 0, 84, 0
6, 89280, Note_on_c, 0, 89, 76
6, 89280, Note_on_c, 0, 86, 76
6, 90651, Note_on_c, 0, 89, 0
6, 90651, Note_on_c, 0, 86, 0
6, 90660, Note_on_c, 0, 89, 76
6, 90660, Note_on_c, 0, 86, 76
6, 90711, Note_on_c, 0, 89, 0
6, 90711, Note_on_c, 0, 86, 0
6, 90720, Note_on_c, 0, 86, 76
6, 92091, Note_on_c, 0, 86, 0
6, 92100, Note_on_c, 0, 86, 76
6, 92151, Note_on_c, 0, 86, 0
6, 92160, Note_on_c, 0, 86, 76
6, 93531, Note_on_c, 0, 86, 0
6, 93540, Note_on_c, 0, 86, 76
6, 93591, Note_on_c, 0, 86, 0
6, 93600, Note_on_c, 0, 86, 76
6, 94064, Note_on_c, 0, 86, 0
6, 94080, Note_on_c, 0, 86, 84
6, 94251, Note_on_c, 0, 86, 0
6, 94260, Note_on_c, 0, 86, 76
6, 94311, Note_on_c, 0, 86, 0
6, 94320, Note_on_c, 0, 86, 76
6, 94784, Note_on_c, 0, 86, 0
6, 94800, Note_on_c, 0, 86, 84
6, 94971, Note_on_c, 0, 86, 0
6, 94980, Note_on_c, 0, 86, 76
6, 95031, Note_on_c, 0, 86, 0
6, 95040, Note_on_c, 0, 86, 76
6, 95159, Note_on_c, 0, 86, 0
6, 95520, Note_on_c, 0, 86, 84
6, 95639, Note_on_c, 0, 86, 0
6, 95760, Note_on_c, 0, 86, 76
6, 95879, Note_on_c, 0, 86, 0
6, 96240, Note_on_c, 0, 86, 84
6, 96359, Note_on_c, 0, 86, 0
6, 96480, Note_on_c, 0, 86, 76
6, 96599, Note_on_c, 0, 86, 0
6, 106320, Note_on_c, 0, 79, 48
6, 106409, Note_on_c, 0, 79, 0
6, 106440, Note_on_c, 0, 79, 48
6, 106679, Note_on_c, 0, 79, 0
6, 106680, Note_on_c, 0, 81, 48
6, 106799, Note_on_c, 0, 81, 0
6, 106800, Note_on_c, 0, 83, 48
6, 106919, Note_on_c, 0, 83, 0
6, 106920, Note_on_c, 0, 84, 48
6, 107024, Note_on_c, 0, 84, 0
6, 107040, Note_on_c, 0, 79, 48
6, 107129, Note_on_c, 0, 79, 0
6, 107160, Note_on_c, 0, 79, 48
6, 107399, Note_on_c, 0, 79, 0
6, 107400, Note_on_c, 0, 83, 48
6, 107519, Note_on_c, 0, 83, 0
6, 107520, Note_on_c, 0, 84, 48
6, 107639, Note_on_c, 0, 84, 0
6, 107640, Note_on_c, 0, 86, 48
6, 107744, Note_on_c, 0, 86, 0
6, 107760, Note_on_c, 0, 79, 48
6, 107849, Note_on_c, 0, 79, 0
6, 107880, Note_on_c, 0, 79, 48
6, 108119, Note_on_c, 0, 79, 0
6, 108120, Note_on_c, 0, 84, 48
6, 108239, Note_on_c, 0, 84, 0
6, 108240, Note_on_c, 0, 86, 48
6, 108359, Note_on_c, 0, 86, 0
6, 108360, Note_on_c, 0, 88, 48
6, 108479, Note_on_c, 0, 88, 0
6, 108480, Note_on_c, 0, 89, 48
6, 108599, Note_on_c, 0, 89, 0
6, 108600, Note_on_c, 0, 88, 48
6, 108704, Note_on_c, 0, 88, 0
6, 108720, Note_on_c, 0, 86, 48
6, 108944, Note_on_c, 0, 86, 0
6, 108960, Note_on_c, 0, 91, 48
6, 109559, Note_on_c, 0, 91, 0
6, 109560, Note_on_c, 0, 90, 48
6, 109679, Note_on_c, 0, 90, 0
6, 109680, Note_on_c, 0, 86, 48
6, 109799, Note_on_c, 0, 86, 0
6, 109800, Note_on_c, 0, 88, 48
6, 109904, Note_on_c, 0, 88, 0
6, 109920, Note_on_c, 0, 89, 48
6, 110279, Note_on_c, 0, 89, 0
6, 110280, Note_on_c, 0, 88, 48
6, 110399, Note_on_c, 0, 88, 0
6, 110400, Note_on_c, 0, 84, 48
6, 110519, Note_on_c, 0, 84, 0
6, 110520, Note_on_c, 0, 86, 48
6, 110624, Note_on_c, 0, 86, 0
6, 110640, Note_on_c, 0, 84, 52
6, 110640, Note_on_c, 0, 87, 52
6, 110880, Control_c, 0, 11, 112
6, 113024, Note_on_c, 0, 84, 0
6, 113024, Note_on_c, 0, 87, 0
6, 113040, Note_on_c, 0, 87, 52
6, 113219, Note_on_c, 0, 87, 0
6, 113280, Control_c, 0, 11, 64
6, 113520, Note_on_c, 0, 84, 76
6, 113699, Note_on_c, 0, 84, 0
6, 113760, Note_on_c, 0, 87, 76
6, 113760, Note_on_c, 0, 84, 76
6, 115200, Control_c, 0, 11, 64
6, 115440, Control_c, 0, 11, 69
6, 115680, Control_c, 0, 11, 75
6, 115904, Note_on_c, 0, 87, 0
6, 115904, Note_on_c, 0, 84, 0
6, 115920, Note_on_c, 0, 84, 76
6, 115920, Control_c, 0, 11, 80
6, 115920, Note_on_c, 0, 87, 76
6, 116099, Note_on_c, 0, 84, 0
6, 116099, Note_on_c, 0, 87, 0
6, 116160, Control_c, 0, 11, 85
6, 116400, Control_c, 0, 11, 90
6, 116400, Note_on_c, 0, 84, 76
6, 116579, Note_on_c, 0, 84, 0
6, 116640, Control_c, 0, 11, 96
6, 116640, Note_on_c, 0, 89, 76
6, 116640, Note_on_c, 0, 86, 76
6, 116880, Control_c, 0, 11, 101
6, 117120, Control_c, 0, 11, 106
6, 117344, Note_on_c, 0, 89, 0
6, 117344, Note_on_c, 0, 86, 0
6, 117360, Note_on_c, 0, 89, 76
6, 117360, Control_c, 0, 11, 111
6, 117360, Note_on_c, 0, 86, 76
6, 117539, Note_on_c, 0, 89, 0
6, 117539, Note_on_c, 0, 86, 0
6, 117600, Control_c, 0, 11, 117
6, 117840, Control_c, 0, 11, 127
6, 117840, Note_on_c, 0, 86, 76
6, 118019, Note_on_c, 0, 86, 0
6, 118080, Note_on_c, 0, 91, 84
6, 118080, Note_on_c, 0, 88, 84
6, 118259, Note_on_c, 0, 91, 0
6, 118259, Note_on_c, 0, 88, 0
6, 118800, Note_on_c, 0, 92, 84
6, 118800, Note_on_c, 0, 89, 84
6, 119039, Note_on_c, 0, 92, 0
6, 119039, Note_on_c, 0, 89, 0
6, 119520, Note_on_c, 0, 90, 84
6, 119520, Note_on_c, 0, 93, 84
6, 119699, Note_on_c, 0, 90, 0
6, 119699, Note_on_c, 0, 93, 0
6, 120240, Note_on_c, 0, 79, 84
6, 120240, Note_on_c, 0, 91, 84
6, 120419, Note_on_c, 0, 79, 0
6, 120419, Note_on_c, 0, 91, 0
6, 120720, Note_on_c, 0, 91, 76
6, 120720, Note_on_c, 0, 79, 76
6, 120899, Note_on_c, 0, 91, 0
6, 120899, Note_on_c, 0, 79, 0
6, 120960, Note_on_c, 0, 91, 84
6, 120960, Note_on_c, 0, 86, 84
6, 121139, Note_on_c, 0, 91, 0
6, 121139, Note_on_c, 0, 86, 0
6, 121440, Note_on_c, 0, 91, 84
6, 121440, Note_on_c, 0, 86, 84
6, 121619, Note_on_c, 0, 91, 0
6, 121619, Note_on_c, 0, 86, 0
6, 121680, Note_on_c, 0, 91, 84
6, 121680, Note_on_c, 0, 88, 84
6, 121859, Note_on_c, 0, 91, 0
6, 121859, Note_on_c, 0, 88, 0
6, 122160, Note_on_c, 0, 93, 84
6, 122160, Note_on_c, 0, 81, 84
6, 122339, Note_on_c, 0, 93, 0
6, 122339, Note_on_c, 0, 81, 0
6, 122400, Note_on_c, 0, 89, 84
6, 122400, Note_on_c, 0, 77, 84
6, 122579, Note_on_c, 0, 89, 0
6, 122579, Note_on_c, 0, 77, 0
6, 122880, Note_on_c, 0, 74, 84
6, 122880, Note_on_c, 0, 86, 84
6, 123059, Note_on_c, 0, 74, 0
6, 123059, Note_on_c, 0, 86, 0
6, 123120, Note_on_c, 0, 79, 84
6, 123120, Note_on_c, 0, 91, 84
6, 123299, Note_on_c, 0, 79, 0
6, 123299, Note_on_c, 0, 91, 0
6, 123600, Note_on_c, 0, 79, 84
6, 123779, Note_on_c, 0, 79, 0
6, 123840, Note_on_c, 0, 84, 84
6, 123840, Note_on_c, 0, 88, 84
6, 124011, Note_on_c, 0, 84, 0
6, 124011, Note_on_c, 0, 88, 0
6, 124020, Note_on_c, 0, 84, 84
6, 124020, Note_on_c, 0, 88, 84
6, 124071, Note_on_c, 0, 84, 0
6, 124071, Note_on_c, 0, 88, 0
6, 124080, Note_on_c, 0, 83, 84
6, 124080, Note_on_c, 0, 86, 84
6, 124259, Note_on_c, 0, 83, 0
6, 124259, Note_on_c, 0, 86, 0
6, 124320, Note_on_c, 0, 86, 84
6, 124320, Note_on_c, 0, 89, 84
6, 124491, Note_on_c, 0, 86, 0
6, 124491, Note_on_c, 0, 89, 0
6, 124500, Note_on_c, 0, 86, 84
6, 124500, Note_on_c, 0, 89, 84
6, 124551, Note_on_c, 0, 86, 0
6, 124551, Note_on_c, 0, 89, 0
6, 124560, Note_on_c, 0, 88, 84
6, 124560, Note_on_c, 0, 84, 84
6, 124739, Note_on_c, 0, 88, 0
6, 124739, Note_on_c, 0, 84, 0
6, 124800, Note_on_c, 0, 89, 84
6, 124800, Note_on_c, 0, 93, 84
6, 124971, Note_on_c, 0, 89, 0
6, 124971, Note_on_c, 0, 93, 0
6, 124980, Note_on_c, 0, 89, 84
6, 124980, Note_on_c, 0, 93, 84
6, 125031, Note_on_c, 0, 89, 0
6, 125031, Note_on_c, 0, 93, 0
6, 125040, Note_on_c, 0, 88, 84
6, 125040, Note_on_c, 0, 91, 84
6, 125219, Note_on_c, 0, 88, 0
6, 125219, Note_on_c, 0, 91, 0
6, 125280, Note_on_c, 0, 93, 84
6, 125280, Note_on_c, 0, 89, 84
6, 125451, Note_on_c, 0, 93, 0
6, 125451, Note_on_c, 0, 89, 0
6, 125460, Note_on_c, 0, 89, 84
6, 125460, Note_on_c, 0, 93, 84
6, 125511, Note_on_c, 0, 89, 0
6, 125511, Note_on_c, 0, 93, 0
6, 125520, Note_on_c, 0, 91, 84
6, 125520, Note_on_c, 0, 88, 84
6, 125699, Note_on_c, 0, 91, 0
6, 125699, Note_on_c, 0, 88, 0
6, 125760, Note_on_c, 0, 91, 48
6, 125999, Note_on_c, 0, 91, 0
6, 126000, Note_on_c, 0, 90, 48
6, 126479, Note_on_c, 0, 90, 0
6, 126480, Note_on_c, 0, 91, 48
6, 126719, Note_on_c, 0, 91, 0
6, 126720, Note_on_c, 0, 89, 48
6, 127199, Note_on_c, 0, 89, 0
6, 127200, Note_on_c, 0, 88, 48
6, 127439, Note_on_c, 0, 88, 0
6, 127440, Note_on_c, 0, 86, 48
6, 127919, Note_on_c, 0, 86, 0
6, 127920, Note_on_c, 0, 84, 48
6, 128159, Note_on_c, 0, 84, 0
6, 128160, Note_on_c, 0, 83, 48
6, 128639, Note_on_c, 0, 83, 0
6, 128640, Note_on_c, 0, 84, 48
6, 128879, Note_on_c, 0, 84, 0
6, 128880, Note_on_c, 0, 86, 48
6, 129359, Note_on_c, 0, 86, 0
6, 129360, Note_on_c, 0, 88, 52
6, 129360, Note_on_c, 0, 84, 52
6, 129599, Note_on_c, 0, 88, 0
6, 129600, Note_on_c, 0, 89, 52
6, 130064, Note_on_c, 0, 89, 0
6, 130079, Note_on_c, 0, 84, 0
6, 130080, Note_on_c, 0, 89, 52
6, 130080, Note_on_c, 0, 86, 52
6, 130319, Note_on_c, 0, 89, 0
6, 130319, Note_on_c, 0, 86, 0
6, 130320, Note_on_c, 0, 88, 52
6, 130320, Note_on_c, 0, 84, 52
6, 130799, Note_on_c, 0, 88, 0
6, 130799, Note_on_c, 0, 84, 0
6, 130800, Note_on_c, 0, 83, 52
6, 130800, Note_on_c, 0, 86, 52
6, 131024, Note_on_c, 0, 83, 0
6, 131024, Note_on_c, 0, 86, 0
6, 131040, Note_on_c, 0, 84, 84
6, 131040, Note_on_c, 0, 88, 84
6, 131211, Note_on_c, 0, 84, 0
6, 131211, Note_on_c, 0, 88, 0
6, 131220, Note_on_c, 0, 84, 84
6, 131220, Note_on_c, 0, 88, 84
6, 131271, Note_on_c, 0, 84, 0
6, 131271, Note_on_c, 0, 88, 0
6, 131280, Note_on_c, 0, 86, 84
6, 131280, Note_on_c, 0, 83, 84
6, 131459, Note_on_c, 0, 86, 0
6, 131459, Note_on_c, 0, 83, 0
6, 131520, Note_on_c, 0, 89, 84
6, 131520, Note_on_c, 0, 86, 84
6, 131691, Note_on_c, 0, 89, 0
6, 131691, Note_on_c, 0, 86, 0
6, 131700, Note_on_c, 0, 86, 84
6, 131700, Note_on_c, 0, 89, 84
6, 131751, Note_on_c, 0, 86, 0
6, 131751, Note_on_c, 0, 89, 0
6, 131760, Note_on_c, 0, 84, 84
6, 131760, Note_on_c, 0, 88, 84
6, 131939, Note_on_c, 0, 84, 0
6, 131939, Note_on_c, 0, 88, 0
6, 132000, Note_on_c, 0, 93, 84
6, 132000, Note_on_c, 0, 89, 84
6, 132171, Note_on_c, 0, 93, 0
6, 132171, Note_on_c, 0, 89, 0
6, 132180, Note_on_c, 0, 93, 84
6, 132180, Note_on_c, 0, 89, 84
6, 132231, Note_on_c, 0, 93, 0
6, 132231, Note_on_c, 0, 89, 0
6, 132240, Note_on_c, 0, 88, 84
6, 132240, Note_on_c, 0, 91, 84
6, 132419, Note_on_c, 0, 88, 0
6, 132419, Note_on_c, 0, 91, 0
6, 132480, Note_on_c, 0, 89, 84
6, 132480, Note_on_c, 0, 93, 84
6, 132651, Note_on_c, 0, 89, 0
6, 132651, Note_on_c, 0, 93, 0
6, 132660, Note_on_c, 0, 89, 84
6, 132660, Note_on_c, 0, 93, 84
6, 132711, Note_on_c, 0, 89, 0
6, 132711, Note_on_c, 0, 93, 0
6, 132720, Note_on_c, 0, 91, 84
6, 132720, Note_on_c, 0, 88, 84
6, 132899, Note_on_c, 0, 91, 0
6, 132899, Note_on_c, 0, 88, 0
6, 135120, Note_on_c, 0, 91, 48
6, 135359, Note_on_c, 0, 91, 0
6, 135360, Note_on_c, 0, 89, 48
6, 135839, Note_on_c, 0, 89, 0
6, 135840, Note_on_c, 0, 88, 48
6, 136079, Note_on_c, 0, 88, 0
6, 136080, Note_on_c, 0, 86, 48
6, 136559, Note_on_c, 0, 86, 0
6, 136560, Note_on_c, 0, 82, 52
6, 136560, Note_on_c, 0, 84, 52
6, 136784, Note_on_c, 0, 84, 0
6, 136799, Note_on_c, 0, 82, 0
6, 136800, Note_on_c, 0, 84, 52
6, 136800, Note_on_c, 0, 81, 52
6, 137279, Note_on_c, 0, 84, 0
6, 137279, Note_on_c, 0, 81, 0
6, 137280, Note_on_c, 0, 89, 52
6, 137280, Note_on_c, 0, 86, 52
6, 137519, Note_on_c, 0, 89, 0
6, 137519, Note_on_c, 0, 86, 0
6, 137520, Note_on_c, 0, 84, 52
6, 137520, Note_on_c, 0, 88, 52
6, 137999, Note_on_c, 0, 84, 0
6, 137999, Note_on_c, 0, 88, 0
6, 138000, Note_on_c, 0, 83, 52
6, 138000, Note_on_c, 0, 86, 52
6, 138224, Note_on_c, 0, 83, 0
6, 138224, Note_on_c, 0, 86, 0
6, 138240, Note_on_c, 0, 76, 52
6, 138240, Note_on_c, 0, 84, 52
6, 138479, Note_on_c, 0, 76, 0
6, 138479, Note_on_c, 0, 84, 0
6, 138960, Note_on_c, 0, 89, 52
6, 139079, Note_on_c, 0, 89, 0
6, 139080, Note_on_c, 0, 88, 56
6, 139199, Note_on_c, 0, 88, 0
6, 139200, Note_on_c, 0, 89, 60
6, 139319, Note_on_c, 0, 89, 0
6, 139320, Note_on_c, 0, 88, 64
6, 139439, Note_on_c, 0, 88, 0
6, 139440, Note_on_c, 0, 86, 68
6, 139559, Note_on_c, 0, 86, 0
6, 139560, Note_on_c, 0, 84, 72
6, 139664, Note_on_c, 0, 84, 0
6, 139680, Note_on_c, 0, 84, 76
6, 139859, Note_on_c, 0, 84, 0
6, 139920, Note_on_c, 0, 88, 84
6, 140279, Note_on_c, 0, 88, 0
6, 140280, Note_on_c, 0, 84, 76
6, 140384, Note_on_c, 0, 84, 0
6, 140400, Note_on_c, 0, 83, 84
6, 140639, Note_on_c, 0, 83, 0
6, 140760, Note_on_c, 0, 83, 76
6, 140849, Note_on_c, 0, 83, 0
6, 140880, Note_on_c, 0, 84, 76
6, 140880, Note_on_c, 0, 91, 76
6, 140969, Note_on_c, 0, 84, 0
6, 140969, Note_on_c, 0, 91, 0
6, 141000, Note_on_c, 0, 86, 76
6, 141000, Note_on_c, 0, 89, 76
6, 141089, Note_on_c, 0, 86, 0
6, 141089, Note_on_c, 0, 89, 0
6, 141120, Note_on_c, 0, 88, 84
6, 141299, Note_on_c, 0, 88, 0
6, 141480, Note_on_c, 0, 91, 76
6, 141480, Note_on_c, 0, 79, 76
6, 141569, Note_on_c, 0, 91, 0
6, 141569, Note_on_c, 0, 79, 0
6, 141600, Note_on_c, 0, 88, 76
6, 141600, Note_on_c, 0, 79, 76
6, 141689, Note_on_c, 0, 88, 0
6, 141689, Note_on_c, 0, 79, 0
6, 141720, Note_on_c, 0, 84, 76
6, 141720, Note_on_c, 0, 79, 76
6, 141809, Note_on_c, 0, 84, 0
6, 141809, Note_on_c, 0, 79, 0
6, 141840, Note_on_c, 0, 79, 84
6, 141840, Note_on_c, 0, 83, 84
6, 142019, Note_on_c, 0, 79, 0
6, 142019, Note_on_c, 0, 83, 0
6, 142200, Note_on_c, 0, 83, 76
6, 142289, Note_on_c, 0, 83, 0
6, 142320, Note_on_c, 0, 91, 76
6, 142320, Note_on_c, 0, 84, 76
6, 142409, Note_on_c, 0, 91, 0
6, 142409, Note_on_c, 0, 84, 0
6, 142440, Note_on_c, 0, 86, 76
6, 142440, Note_on_c, 0, 89, 76
6, 142529, Note_on_c, 0, 86, 0
6, 142529, Note_on_c, 0, 89, 0
6, 142560, Note_on_c, 0, 88, 84
6, 145424, Note_on_c, 0, 88, 0
6, 145440, Note_on_c, 0, 84, 92
6, 145679, Note_on_c, 0, 84, 0
6, 146160, Note_on_c, 0, 84, 92
6, 146399, Note_on_c, 0, 84, 0
6, 146880, Note_on_c, 0, 84, 92
6, 147119, Note_on_c, 0, 84, 0
6, 147600, Note_on_c, 0, 84, 92
6, 147839, Note_on_c, 0, 84, 0
6, 147960, Note_on_c, 0, 84, 84
6, 148064, Note_on_c, 0, 84, 0
6, 148080, Note_on_c, 0, 84, 84
6, 148184, Note_on_c, 0, 84, 0
6, 148200, Note_on_c, 0, 84, 84
6, 148304, Note_on_c, 0, 84, 0
6, 148320, Note_on_c, 0, 84, 84
6, 148559, Note_on_c, 0, 84, 0
6, 153360, Note_on_c, 0, 86, 48
6, 153599, Note_on_c, 0, 86, 0
6, 153600, Note_on_c, 0, 83, 48
6, 153719, Note_on_c, 0, 83, 0
6, 153720, Note_on_c, 0, 84, 48
6, 153824, Note_on_c, 0, 84, 0
6, 153840, Note_on_c, 0, 86, 48
6, 153929, Note_on_c, 0, 86, 0
6, 153960, Note_on_c, 0, 83, 48
6, 154049, Note_on_c, 0, 83, 0
6, 154080, Note_on_c, 0, 88, 84
6, 156944, Note_on_c, 0, 88, 0
6, 156960, Note_on_c, 0, 84, 84
6, 157139, Note_on_c, 0, 84, 0
6, 162000, Note_on_c, 0, 84, 48
6, 162239, Note_on_c, 0, 84, 0
6, 162240, Note_on_c, 0, 81, 48
6, 162359, Note_on_c, 0, 81, 0
6, 162360, Note_on_c, 0, 82, 48
6, 162464, Note_on_c, 0, 82, 0
6, 162480, Note_on_c, 0, 84, 48
6, 162569, Note_on_c, 0, 84, 0
6, 162600, Note_on_c, 0, 81, 48
6, 162689, Note_on_c, 0, 81, 0
6, 162720, Note_on_c, 0, 86, 84
6, 162720, Note_on_c, 0, 82, 84
6, 165584, Note_on_c, 0, 86, 0
6, 165584, Note_on_c, 0, 82, 0
6, 165600, Note_on_c, 0, 82, 84
6, 165779, Note_on_c, 0, 82, 0
6, 170640, Note_on_c, 0, 89, 48
6, 170879, Note_on_c, 0, 89, 0
6, 170880, Note_on_c, 0, 86, 48
6, 170999, Note_on_c, 0, 86, 0
6, 171000, Note_on_c, 0, 88, 48
6, 171104, Note_on_c, 0, 88, 0
6, 171120, Note_on_c, 0, 89, 48
6, 171209, Note_on_c, 0, 89, 0
6, 171240, Note_on_c, 0, 86, 48
6, 171329, Note_on_c, 0, 86, 0
6, 171360, Note_on_c, 0, 93, 84
6, 171360, Note_on_c, 0, 81, 84
6, 174224, Note_on_c, 0, 93, 0
6, 174224, Note_on_c, 0, 81, 0
6, 174240, Note_on_c, 0, 81, 84
6, 174240, Note_on_c, 0, 93, 84
6, 174479, Note_on_c, 0, 81, 0
6, 174479, Note_on_c, 0, 93, 0
6, 174960, Note_on_c, 0, 81, 92
6, 174960, Note_on_c, 0, 93, 92
6, 175199, Note_on_c, 0, 81, 0
6, 175199, Note_on_c, 0, 93, 0
6, 175320, Note_on_c, 0, 93, 84
6, 175320, Note_on_c, 0, 81, 84
6, 175424, Note_on_c, 0, 93, 0
6, 175424, Note_on_c, 0, 81, 0
6, 175440, Note_on_c, 0, 81, 84
6, 175440, Note_on_c, 0, 93, 84
6, 175544, Note_on_c, 0, 81, 0
6, 175544, Note_on_c, 0, 93, 0
6, 175560, Note_on_c, 0, 93, 84
6, 175560, Note_on_c, 0, 81, 84
6, 175664, Note_on_c, 0, 93, 0
6, 175664, Note_on_c, 0, 81, 0
6, 175680, Note_on_c, 0, 93, 84
6, 175680, Note_on_c, 0, 81, 84
6, 175919, Note_on_c, 0, 93, 0
6, 175919, Note_on_c, 0, 81, 0
6, 176400, Note_on_c, 0, 93, 92
6, 176400, Note_on_c, 0, 81, 92
6, 176639, Note_on_c, 0, 93, 0
6, 176639, Note_on_c, 0, 81, 0
6, 176760, Note_on_c, 0, 93, 84
6, 176760, Note_on_c, 0, 81, 84
6, 176864, Note_on_c, 0, 93, 0
6, 176864, Note_on_c, 0, 81, 0
6, 176880, Note_on_c, 0, 81, 84
6, 176880, Note_on_c, 0, 93, 84
6, 176984, Note_on_c, 0, 81, 0
6, 176984, Note_on_c, 0, 93, 0
6, 177000, Note_on_c, 0, 93, 84
6, 177000, Note_on_c, 0, 81, 84
6, 177104, Note_on_c, 0, 93, 0
6, 177104, Note_on_c, 0, 81, 0
6, 177120, Note_on_c, 0, 93, 84
6, 177120, Note_on_c, 0, 81, 84
6, 177359, Note_on_c, 0, 93, 0
6, 177359, Note_on_c, 0, 81, 0
6, 178080, Note_on_c, 0, 89, 92
6, 178080, Note_on_c, 0, 86, 92
6, 178559, Note_on_c, 0, 89, 0
6, 178559, Note_on_c, 0, 86, 0
6, 179520, Note_on_c, 0, 86, 92
6, 179520, Note_on_c, 0, 91, 92
6, 179999, Note_on_c, 0, 86, 0
6, 179999, Note_on_c, 0, 91, 0
6, 180240, Note_on_c, 0, 88, 92
6, 180719, Note_on_c, 0, 88, 0
6, 180720, Note_on_c, 0, 89, 84
6, 180839, Note_on_c, 0, 89, 0
6, 180960, Note_on_c, 0, 85, 92
6, 181439, Note_on_c, 0, 85, 0
6, 181440, Note_on_c, 0, 86, 84
6, 181559, Note_on_c, 0, 86, 0
6, 181680, Note_on_c, 0, 88, 92
6, 182159, Note_on_c, 0, 88, 0
6, 182160, Note_on_c, 0, 89, 84
6, 182279, Note_on_c, 0, 89, 0
6, 182400, Note_on_c, 0, 90, 92
6, 182879, Note_on_c, 0, 90, 0
6, 182880, Note_on_c, 0, 91, 84
6, 183119, Note_on_c, 0, 91, 0
6, 183600, Note_on_c, 0, 86, 84
6, 183839, Note_on_c, 0, 86, 0
6, 183840, Note_on_c, 0, 83, 84
6, 183959, Note_on_c, 0, 83, 0
6, 183960, Note_on_c, 0, 84, 84
6, 184064, Note_on_c, 0, 84, 0
6, 184080, Note_on_c, 0, 86, 84
6, 184169, Note_on_c, 0, 86, 0
6, 184200, Note_on_c, 0, 83, 84
6, 184289, Note_on_c, 0, 83, 0
6, 185040, Note_on_c, 0, 87, 84
6, 185279, Note_on_c, 0, 87, 0
6, 185280, Note_on_c, 0, 84, 84
6, 185399, Note_on_c, 0, 84, 0
6, 185400, Note_on_c, 0, 86, 84
6, 185504, Note_on_c, 0, 86, 0
6, 185520, Note_on_c, 0, 87, 84
6, 185609, Note_on_c, 0, 87, 0
6, 185640, Note_on_c, 0, 84, 84
6, 185729, Note_on_c, 0, 84, 0
6, 186720, Note_on_c, 0, 83, 92
6, 186839, Note_on_c, 0, 83, 0
6, 186840, Note_on_c, 0, 84, 84
6, 186944, Note_on_c, 0, 84, 0
6, 186960, Note_on_c, 0, 86, 84
6, 187049, Note_on_c, 0, 86, 0
6, 187080, Note_on_c, 0, 83, 84
6, 187169, Note_on_c, 0, 83, 0
6, 187200, Note_on_c, 0, 84, 84
6, 187379, Note_on_c, 0, 84, 0
6, 188400, Note_on_c, 0, 84, 84
6, 188879, Note_on_c, 0, 84, 0
6, 188880, Note_on_c, 0, 80, 84
6, 188999, Note_on_c, 0, 80, 0
6, 189000, Note_on_c, 0, 82, 84
6, 189104, Note_on_c, 0, 82, 0
6, 189120, Note_on_c, 0, 84, 84
6, 189209, Note_on_c, 0, 84, 0
6, 189240, Note_on_c, 0, 80, 84
6, 189329, Note_on_c, 0, 80, 0
6, 189360, Note_on_c, 0, 77, 84
6, 189539, Note_on_c, 0, 77, 0
6, 189600, Note_on_c, 0, 89, 92
6, 189600, Note_on_c, 0, 84, 92
6, 190049, Note_on_c, 0, 89, 0
6, 190049, Note_on_c, 0, 84, 0
6, 190080, Note_on_c, 0, 85, 84
6, 190319, Note_on_c, 0, 85, 0
6, 190320, Note_on_c, 0, 82, 84
6, 190439, Note_on_c, 0, 82, 0
6, 190440, Note_on_c, 0, 84, 84
6, 190544, Note_on_c, 0, 84, 0
6, 190560, Note_on_c, 0, 85, 84
6, 190649, Note_on_c, 0, 85, 0
6, 190680, Note_on_c, 0, 82, 84
6, 190769, Note_on_c, 0, 82, 0
6, 190800, Note_on_c, 0, 77, 84
6, 190979, Note_on_c, 0, 77, 0
6, 191040, Note_on_c, 0, 89, 92
6, 191040, Note_on_c, 0, 85, 92
6, 191519, Note_on_c, 0, 89, 0
6, 191519, Note_on_c, 0, 85, 0
6, 191760, Note_on_c, 0, 91, 92
6, 191760, Note_on_c, 0, 85, 92
6, 192209, Note_on_c, 0, 91, 0
6, 192209, Note_on_c, 0, 85, 0
6, 192240, Note_on_c, 0, 91, 84
6, 192240, Note_on_c, 0, 84, 84
6, 192419, Note_on_c, 0, 91, 0
6, 192419, Note_on_c, 0, 84, 0
6, 192480, Note_on_c, 0, 91, 92
6, 192480, Note_on_c, 0, 88, 92
6, 192929, Note_on_c, 0, 91, 0
6, 192929, Note_on_c, 0, 88, 0
6, 192960, Note_on_c, 0, 92, 84
6, 192960, Note_on_c, 0, 89, 84
6, 193139, Note_on_c, 0, 92, 0
6, 193139, Note_on_c, 0, 89, 0
6, 193200, Note_on_c, 0, 75, 92
6, 193200, Note_on_c, 0, 87, 92
6, 193319, Note_on_c, 0, 75, 0
6, 193319, Note_on_c, 0, 87, 0
6, 193320, Note_on_c, 0, 89, 84
6, 193320, Note_on_c, 0, 77, 84
6, 193424, Note_on_c, 0, 89, 0
6, 193424, Note_on_c, 0, 77, 0
6, 193440, Note_on_c, 0, 90, 84
6, 193440, Note_on_c, 0, 78, 84
6, 193529, Note_on_c, 0, 90, 0
6, 193529, Note_on_c, 0, 78, 0
6, 193560, Note_on_c, 0, 88, 84
6, 193560, Note_on_c, 0, 76, 84
6, 193649, Note_on_c, 0, 88, 0
6, 193649, Note_on_c, 0, 76, 0
6, 193680, Note_on_c, 0, 89, 84
6, 193680, Note_on_c, 0, 77, 84
6, 193859, Note_on_c, 0, 89, 0
6, 193859, Note_on_c, 0, 77, 0
6, 193920, Note_on_c, 0, 84, 92
6, 194039, Note_on_c, 0, 84, 0
6, 194040, Note_on_c, 0, 85, 84
6, 194144, Note_on_c, 0, 85, 0
6, 194160, Note_on_c, 0, 87, 84
6, 194249, Note_on_c, 0, 87, 0
6, 194280, Note_on_c, 0, 84, 84
6, 194369, Note_on_c, 0, 84, 0
6, 194400, Note_on_c, 0, 89, 84
6, 194400, Note_on_c, 0, 85, 84
6, 194489, Note_on_c, 0, 89, 0
6, 194489, Note_on_c, 0, 85, 0
6, 194640, Note_on_c, 0, 85, 92
6, 194640, Note_on_c, 0, 89, 92
6, 195119, Note_on_c, 0, 85, 0
6, 195119, Note_on_c, 0, 89, 0
6, 195360, Note_on_c, 0, 89, 92
6, 195360, Note_on_c, 0, 85, 92
6, 195839, Note_on_c, 0, 89, 0
6, 195839, Note_on_c, 0, 85, 0
6, 196080, Note_on_c, 0, 85, 92
6, 196080, Note_on_c, 0, 89, 92
6, 196559, Note_on_c, 0, 85, 0
6, 196559, Note_on_c, 0, 89, 0
6, 196800, Note_on_c, 0, 89, 92
6, 196800, Note_on_c, 0, 85, 92
6, 197249, Note_on_c, 0, 89, 0
6, 197249, Note_on_c, 0, 85, 0
6, 197280, Note_on_c, 0, 89, 84
6, 197280, Note_on_c, 0, 85, 84
6, 197399, Note_on_c, 0, 89, 0
6, 197399, Note_on_c, 0, 85, 0
6, 197520, Note_on_c, 0, 89, 92
6, 197520, Note_on_c, 0, 85, 92
6, 197999, Note_on_c, 0, 89, 0
6, 197999, Note_on_c, 0, 85, 0
6, 198240, Note_on_c, 0, 89, 92
6, 198240, Note_on_c, 0, 85, 92
6, 198719, Note_on_c, 0, 89, 0
6, 198719, Note_on_c, 0, 85, 0
6, 198960, Note_on_c, 0, 89, 92
6, 198960, Note_on_c, 0, 85, 92
6, 199439, Note_on_c, 0, 89, 0
6, 199439, Note_on_c, 0, 85, 0
6, 199680, Note_on_c, 0, 89, 92
6, 199680, Note_on_c, 0, 85, 92
6, 200129, Note_on_c, 0, 89, 0
6, 200129, Note_on_c, 0, 85, 0
6, 200160, Note_on_c, 0, 89, 84
6, 200160, Note_on_c, 0, 86, 84
6, 200279, Note_on_c, 0, 89, 0
6, 200279, Note_on_c, 0, 86, 0
6, 200400, Note_on_c, 0, 89, 92
6, 200400, Note_on_c, 0, 86, 92
6, 200879, Note_on_c, 0, 89, 0
6, 200879, Note_on_c, 0, 86, 0
6, 201120, Note_on_c, 0, 86, 92
6, 201120, Note_on_c, 0, 89, 92
6, 201599, Note_on_c, 0, 86, 0
6, 201599, Note_on_c, 0, 89, 0
6, 201840, Note_on_c, 0, 86, 92
6, 201840, Note_on_c, 0, 89, 92
6, 202319, Note_on_c, 0, 86, 0
6, 202319, Note_on_c, 0, 89, 0
6, 202560, Note_on_c, 0, 86, 92
6, 202560, Note_on_c, 0, 89, 92
6, 203039, Note_on_c, 0, 86, 0
6, 203039, Note_on_c, 0, 89, 0
6, 203040, Note_on_c, 0, 86, 84
6, 203040, Note_on_c, 0, 89, 84
6, 203159, Note_on_c, 0, 86, 0
6, 203159, Note_on_c, 0, 89, 0
6, 203280, Note_on_c, 0, 89, 92
6, 203280, Note_on_c, 0, 86, 92
6, 204449, Note_on_c, 0, 89, 0
6, 204449, Note_on_c, 0, 86, 0
6, 204480, Note_on_c, 0, 86, 84
6, 204480, Note_on_c, 0, 89, 84
6, 204599, Note_on_c, 0, 86, 0
6, 204599, Note_on_c, 0, 89, 0
6, 204720, Note_on_c, 0, 89, 92
6, 204720, Note_on_c, 0, 86, 92
6, 205889, Note_on_c, 0, 89, 0
6, 205889, Note_on_c, 0, 86, 0
6, 205920, Note_on_c, 0, 86, 92
6, 205920, Note_on_c, 0, 89, 92
6, 206009, Note_on_c, 0, 86, 0
6, 206009, Note_on_c, 0, 89, 0
6, 206160, Note_on_c, 0, 89, 84
6, 206160, Note_on_c, 0, 86, 84
6, 206249, Note_on_c, 0, 89, 0
6, 206249, Note_on_c, 0, 86, 0
6, 206640, Note_on_c, 0, 90, 92
6, 206640, Note_on_c, 0, 87, 92
6, 206729, Note_on_c, 0, 90, 0
6, 206729, Note_on_c, 0, 87, 0
6, 206880, Note_on_c, 0, 90, 84
6, 206880, Note_on_c, 0, 87, 84
6, 206969, Note_on_c, 0, 90, 0
6, 206969, Note_on_c, 0, 87, 0
6, 207360, Note_on_c, 0, 88, 92
6, 207360, Note_on_c, 0, 91, 92
6, 207449, Note_on_c, 0, 88, 0
6, 207449, Note_on_c, 0, 91, 0
6, 207600, Note_on_c, 0, 88, 84
6, 207600, Note_on_c, 0, 91, 84
6, 207689, Note_on_c, 0, 88, 0
6, 207689, Note_on_c, 0, 91, 0
6, 208080, Note_on_c, 0, 88, 92
6, 208080, Note_on_c, 0, 91, 92
6, 208169, Note_on_c, 0, 88, 0
6, 208169, Note_on_c, 0, 91, 0
6, 208320, Note_on_c, 0, 91, 84
6, 208320, Note_on_c, 0, 88, 84
6, 208409, Note_on_c, 0, 91, 0
6, 208409, Note_on_c, 0, 88, 0
6, 208800, Note_on_c, 0, 88, 88
6, 208800, Note_on_c, 0, 91, 88
6, 208889, Note_on_c, 0, 88, 0
6, 208889, Note_on_c, 0, 91, 0
6, 209040, Note_on_c, 0, 88, 88
6, 209040, Note_on_c, 0, 91, 88
6, 210119, Note_on_c, 0, 88, 0
6, 210119, Note_on_c, 0, 91, 0
6, 210120, Note_on_c, 0, 93, 88
6, 210120, Note_on_c, 0, 89, 88
6, 210224, Note_on_c, 0, 93, 0
6, 210224, Note_on_c, 0, 89, 0
6, 210240, Note_on_c, 0, 89, 92
6, 210240, Note_on_c, 0, 93, 92
6, 211424, Note_on_c, 0, 89, 0
6, 211424, Note_on_c, 0, 93, 0
6, 211440, Note_on_c, 0, 93, 92
6, 211440, Note_on_c, 0, 84, 92
6, 211664, Note_on_c, 0, 93, 0
6, 211664, Note_on_c, 0, 84, 0
6, 211680, Note_on_c, 0, 84, 92
6, 211680, Note_on_c, 0, 91, 92
6, 212144, Note_on_c, 0, 84, 0
6, 212144, Note_on_c, 0, 91, 0
6, 212160, Note_on_c, 0, 89, 92
6, 212160, Note_on_c, 0, 84, 92
6, 212384, Note_on_c, 0, 89, 0
6, 212384, Note_on_c, 0, 84, 0
6, 212400, Note_on_c, 0, 88, 92
6, 212400, Note_on_c, 0, 84, 92
6, 213104, Note_on_c, 0, 88, 0
6, 213104, Note_on_c, 0, 84, 0
6, 213120, Note_on_c, 0, 91, 92
6, 213120, Note_on_c, 0, 88, 92
6, 214304, Note_on_c, 0, 91, 0
6, 214304, Note_on_c, 0, 88, 0
6, 214320, Note_on_c, 0, 91, 92
6, 214320, Note_on_c, 0, 88, 92
6, 214544, Note_on_c, 0, 91, 0
6, 214544, Note_on_c, 0, 88, 0
6, 214560, Note_on_c, 0, 93, 92
6, 214560, Note_on_c, 0, 89, 92
6, 215024, Note_on_c, 0, 93, 0
6, 215024, Note_on_c, 0, 89, 0
6, 215040, Note_on_c, 0, 88, 92
6, 215040, Note_on_c, 0, 91, 92
6, 215264, Note_on_c, 0, 88, 0
6, 215264, Note_on_c, 0, 91, 0
6, 215280, Note_on_c, 0, 89, 92
6, 215280, Note_on_c, 0, 93, 92
6, 215399, Note_on_c, 0, 89, 0
6, 215399, Note_on_c, 0, 93, 0
6, 215520, Note_on_c, 0, 84, 48
6, 215624, Note_on_c, 0, 84, 0
6, 215760, Note_on_c, 0, 84, 48
6, 215864, Note_on_c, 0, 84, 0
6, 216000, Note_on_c, 0, 84, 48
6, 216239, Note_on_c, 0, 84, 0
6, 216240, Note_on_c, 0, 81, 48
6, 216359, Note_on_c, 0, 81, 0
6, 216360, Note_on_c, 0, 82, 48
6, 216464, Note_on_c, 0, 82, 0
6, 216480, Note_on_c, 0, 84, 48
6, 216569, Note_on_c, 0, 84, 0
6, 216600, Note_on_c, 0, 81, 48
6, 216689, Note_on_c, 0, 81, 0
6, 216720, Note_on_c, 0, 77, 48
6, 217184, Note_on_c, 0, 77, 0
6, 217200, Note_on_c, 0, 72, 48
6, 217289, Note_on_c, 0, 72, 0
6, 217320, Note_on_c, 0, 77, 48
6, 217409, Note_on_c, 0, 77, 0
6, 217440, Note_on_c, 0, 77, 48
6, 217559, Note_on_c, 0, 77, 0
6, 217560, Note_on_c, 0, 76, 48
6, 217664, Note_on_c, 0, 76, 0
6, 217680, Note_on_c, 0, 76, 48
6, 217769, Note_on_c, 0, 76, 0
6, 217800, Note_on_c, 0, 77, 48
6, 217889, Note_on_c, 0, 77, 0
6, 217920, Note_on_c, 0, 79, 48
6, 218009, Note_on_c, 0, 79, 0
6, 218040, Note_on_c, 0, 81, 48
6, 218129, Note_on_c, 0, 81, 0
6, 218160, Note_on_c, 0, 82, 76
6, 218160, Note_on_c, 0, 79, 76
6, 218399, Note_on_c, 0, 82, 0
6, 218399, Note_on_c, 0, 79, 0
6, 218880, Note_on_c, 0, 82, 48
6, 219119, Note_on_c, 0, 82, 0
6, 219120, Note_on_c, 0, 79, 48
6, 219239, Note_on_c, 0, 79, 0
6, 219240, Note_on_c, 0, 81, 48
6, 219359, Note_on_c, 0, 81, 0
6, 219360, Note_on_c, 0, 82, 48
6, 219479, Note_on_c, 0, 82, 0
6, 219480, Note_on_c, 0, 83, 48
6, 219599, Note_on_c, 0, 83, 0
6, 219600, Note_on_c, 0, 84, 48
6, 220079, Note_on_c, 0, 84, 0
6, 220080, Note_on_c, 0, 82, 48
6, 220319, Note_on_c, 0, 82, 0
6, 220320, Note_on_c, 0, 81, 48
6, 220439, Note_on_c, 0, 81, 0
6, 220440, Note_on_c, 0, 84, 48
6, 220544, Note_on_c, 0, 84, 0
6, 220560, Note_on_c, 0, 77, 48
6, 220799, Note_on_c, 0, 77, 0
6, 220800, Note_on_c, 0, 79, 48
6, 221024, Note_on_c, 0, 79, 0
6, 221040, Note_on_c, 0, 79, 48
6, 221519, Note_on_c, 0, 79, 0
6, 221520, Note_on_c, 0, 81, 48
6, 221759, Note_on_c, 0, 81, 0
6, 222480, Control_c, 0, 11, 111
6, 223200, Note_on_c, 0, 84, 76
6, 223380, Control_c, 0, 11, 115
6, 223560, Control_c, 0, 11, 119
6, 223649, Note_on_c, 0, 84, 0
6, 223650, Note_on_c, 0, 86, 76
6, 223679, Note_on_c, 0, 86, 0
6, 223680, Note_on_c, 0, 84, 76
6, 223740, Control_c, 0, 11, 123
6, 223799, Note_on_c, 0, 84, 0
6, 223800, Note_on_c, 0, 82, 76
6, 223904, Note_on_c, 0, 82, 0
6, 223920, Note_on_c, 0, 81, 76
6, 223920, Control_c, 0, 11, 127
6, 223920, Note_on_c, 0, 77, 76
6, 224159, Note_on_c, 0, 81, 0
6, 224159, Note_on_c, 0, 77, 0
6, 225300, Note_on_c, 0, 84, 76
6, 225300, Note_on_c, 0, 89, 76
6, 225351, Note_on_c, 0, 84, 0
6, 225351, Note_on_c, 0, 89, 0
6, 225360, Note_on_c, 0, 86, 76
6, 225360, Note_on_c, 0, 89, 76
6, 225599, Note_on_c, 0, 86, 0
6, 225599, Note_on_c, 0, 89, 0
6, 226740, Note_on_c, 0, 86, 76
6, 226740, Note_on_c, 0, 89, 76
6, 226791, Note_on_c, 0, 86, 0
6, 226791, Note_on_c, 0, 89, 0
6, 226800, Note_on_c, 0, 86, 76
6, 226800, Note_on_c, 0, 89, 76
6, 227039, Note_on_c, 0, 86, 0
6, 227039, Note_on_c, 0, 89, 0
6, 227460, Note_on_c, 0, 89, 76
6, 227460, Note_on_c, 0, 86, 76
6, 227511, Note_on_c, 0, 89, 0
6, 227511, Note_on_c, 0, 86, 0
6, 227520, Note_on_c, 0, 86, 76
6, 227520, Note_on_c, 0, 89, 76
6, 227759, Note_on_c, 0, 86, 0
6, 227759, Note_on_c, 0, 89, 0
6, 228180, Note_on_c, 0, 86, 76
6, 228180, Note_on_c, 0, 91, 76
6, 228231, Note_on_c, 0, 86, 0
6, 228231, Note_on_c, 0, 91, 0
6, 228240, Note_on_c, 0, 91, 76
6, 228240, Note_on_c, 0, 88, 76
6, 228479, Note_on_c, 0, 91, 0
6, 228479, Note_on_c, 0, 88, 0
6, 228900, Note_on_c, 0, 88, 76
6, 228900, Note_on_c, 0, 84, 76
6, 228951, Note_on_c, 0, 88, 0
6, 228951, Note_on_c, 0, 84, 0
6, 228960, Note_on_c, 0, 88, 76
6, 228960, Note_on_c, 0, 84, 76
6, 229079, Note_on_c, 0, 88, 0
6, 229079, Note_on_c, 0, 84, 0
6, 229200, Note_on_c, 0, 84, 76
6, 229200, Note_on_c, 0, 88, 76
6, 229319, Note_on_c, 0, 84, 0
6, 229319, Note_on_c, 0, 88, 0
6, 229440, Note_on_c, 0, 84, 76
6, 229440, Note_on_c, 0, 88, 76
6, 229559, Note_on_c, 0, 84, 0
6, 229559, Note_on_c, 0, 88, 0
6, 229680, Note_on_c, 0, 89, 84
6, 229680, Note_on_c, 0, 84, 84
6, 231044, Note_on_c, 0, 89, 0
6, 231044, Note_on_c, 0, 84, 0
6, 231060, Note_on_c, 0, 89, 84
6, 231060, Note_on_c, 0, 84, 84
6, 231111, Note_on_c, 0, 89, 0
6, 231111, Note_on_c, 0, 84, 0
6, 231120, Note_on_c, 0, 83, 84
6, 231120, Note_on_c, 0, 89, 84
6, 232484, Note_on_c, 0, 83, 0
6, 232484, Note_on_c, 0, 89, 0
6, 232500, Note_on_c, 0, 89, 84
6, 232500, Note_on_c, 0, 83, 84
6, 232551, Note_on_c, 0, 89, 0
6, 232551, Note_on_c, 0, 83, 0
6, 232560, Note_on_c, 0, 89, 84
6, 232560, Note_on_c, 0, 86, 84
6, 233924, Note_on_c, 0, 89, 0
6, 233924, Note_on_c, 0, 86, 0
6, 233940, Note_on_c, 0, 89, 84
6, 233940, Note_on_c, 0, 86, 84
6, 233991, Note_on_c, 0, 89, 0
6, 233991, Note_on_c, 0, 86, 0
6, 234000, Note_on_c, 0, 86, 84
6, 234000, Note_on_c, 0, 89, 84
6, 235364, Note_on_c, 0, 86, 0
6, 235364, Note_on_c, 0, 89, 0
6, 235380, Note_on_c, 0, 89, 84
6, 235380, Note_on_c, 0, 86, 84
6, 235431, Note_on_c, 0, 89, 0
6, 235431, Note_on_c, 0, 86, 0
6, 235440, Note_on_c, 0, 89, 84
6, 235440, Note_on_c, 0, 86, 84
6, 235904, Note_on_c, 0, 89, 0
6, 235904, Note_on_c, 0, 86, 0
6, 235920, Note_on_c, 0, 89, 92
6, 235920, Note_on_c, 0, 86, 92
6, 236084, Note_on_c, 0, 89, 0
6, 236084, Note_on_c, 0, 86, 0
6, 236100, Note_on_c, 0, 86, 84
6, 236100, Note_on_c, 0, 89, 84
6, 236151, Note_on_c, 0, 86, 0
6, 236151, Note_on_c, 0, 89, 0
6, 236160, Note_on_c, 0, 86, 84
6, 236160, Note_on_c, 0, 89, 84
6, 236624, Note_on_c, 0, 86, 0
6, 236624, Note_on_c, 0, 89, 0
6, 236640, Note_on_c, 0, 89, 92
6, 236640, Note_on_c, 0, 86, 92
6, 236804, Note_on_c, 0, 89, 0
6, 236804, Note_on_c, 0, 86, 0
6, 236820, Note_on_c, 0, 89, 84
6, 236820, Note_on_c, 0, 86, 84
6, 236871, Note_on_c, 0, 89, 0
6, 236871, Note_on_c, 0, 86, 0
6, 236880, Note_on_c, 0, 86, 84
6, 236880, Note_on_c, 0, 89, 84
6, 236999, Note_on_c, 0, 86, 0
6, 236999, Note_on_c, 0, 89, 0
6, 237360, Note_on_c, 0, 86, 92
6, 237479, Note_on_c, 0, 86, 0
6, 237600, Note_on_c, 0, 77, 84
6, 237719, Note_on_c, 0, 77, 0
6, 238080, Note_on_c, 0, 86, 92
6, 238199, Note_on_c, 0, 86, 0
6, 238320, Note_on_c, 0, 77, 84
6, 238439, Note_on_c, 0, 77, 0
6, 240480, Note_on_c, 0, 76, 52
6, 240599, Note_on_c, 0, 76, 0
6, 240960, Note_on_c, 0, 84, 52
6, 241079, Note_on_c, 0, 84, 0
6, 241200, Note_on_c, 0, 75, 52
6, 241439, Note_on_c, 0, 75, 0
6, 253440, Note_on_c, 0, 74, 44
6, 253529, Note_on_c, 0, 74, 0
6, 253560, Note_on_c, 0, 77, 44
6, 253649, Note_on_c, 0, 77, 0
6, 253680, Note_on_c, 0, 80, 44
6, 253769, Note_on_c, 0, 80, 0
6, 253800, Note_on_c, 0, 83, 44
6, 253889, Note_on_c, 0, 83, 0
6, 253920, Note_on_c, 0, 86, 44
6, 254009, Note_on_c, 0, 86, 0
6, 254040, Note_on_c, 0, 89, 44
6, 254129, Note_on_c, 0, 89, 0
6, 254160, Note_on_c, 0, 92, 44
6, 254339, Note_on_c, 0, 92, 0
6, 254640, Note_on_c, 0, 89, 44
6, 254819, Note_on_c, 0, 89, 0
6, 254880, Note_on_c, 0, 86, 44
6, 255059, Note_on_c, 0, 86, 0
6, 256320, Note_on_c, 0, 74, 44
6, 256409, Note_on_c, 0, 74, 0
6, 256440, Note_on_c, 0, 77, 44
6, 256529, Note_on_c, 0, 77, 0
6, 256560, Note_on_c, 0, 80, 44
6, 256649, Note_on_c, 0, 80, 0
6, 256680, Note_on_c, 0, 83, 44
6, 256769, Note_on_c, 0, 83, 0
6, 256800, Note_on_c, 0, 86, 44
6, 256889, Note_on_c, 0, 86, 0
6, 256920, Note_on_c, 0, 89, 44
6, 257009, Note_on_c, 0, 89, 0
6, 257040, Note_on_c, 0, 92, 44
6, 257219, Note_on_c, 0, 92, 0
6, 257520, Note_on_c, 0, 89, 47
6, 257699, Note_on_c, 0, 89, 0
6, 257760, Note_on_c, 0, 86, 49
6, 257939, Note_on_c, 0, 86, 0
6, 258480, Note_on_c, 0, 82, 62
6, 258659, Note_on_c, 0, 82, 0
6, 258960, Note_on_c, 0, 91, 57
6, 259139, Note_on_c, 0, 91, 0
6, 259200, Note_on_c, 0, 88, 59
6, 259379, Note_on_c, 0, 88, 0
6, 259920, Note_on_c, 0, 84, 72
6, 259920, Note_on_c, 0, 81, 72
6, 260099, Note_on_c, 0, 84, 0
6, 260099, Note_on_c, 0, 81, 0
6, 260640, Note_on_c, 0, 85, 77
6, 260640, Note_on_c, 0, 82, 77
6, 260819, Note_on_c, 0, 85, 0
6, 260819, Note_on_c, 0, 82, 0
6, 261360, Note_on_c, 0, 83, 82
6, 261360, Note_on_c, 0, 86, 82
6, 261539, Note_on_c, 0, 83, 0
6, 261539, Note_on_c, 0, 86, 0
6, 262080, Note_on_c, 0, 84, 87
6, 262080, Note_on_c, 0, 88, 87
6, 262259, Note_on_c, 0, 84, 0
6, 262259, Note_on_c, 0, 88, 0
6, 262800, Note_on_c, 0, 88, 84
6, 262800, Note_on_c, 0, 84, 84
6, 262979, Note_on_c, 0, 88, 0
6, 262979, Note_on_c, 0, 84, 0
6, 263280, Note_on_c, 0, 88, 84
6, 263280, Note_on_c, 0, 84, 84
6, 263459, Note_on_c, 0, 88, 0
6, 263459, Note_on_c, 0, 84, 0
6, 263520, Note_on_c, 0, 84, 84
6, 263520, Note_on_c, 0, 89, 84
6, 263699, Note_on_c, 0, 84, 0
6, 263699, Note_on_c, 0, 89, 0
6, 264000, Note_on_c, 0, 86, 84
6, 264179, Note_on_c, 0, 86, 0
6, 264240, Note_on_c, 0, 82, 84
6, 264419, Note_on_c, 0, 82, 0
6, 264720, Note_on_c, 0, 79, 84
6, 264899, Note_on_c, 0, 79, 0
6, 264960, Note_on_c, 0, 84, 84
6, 265139, Note_on_c, 0, 84, 0
6, 265440, Note_on_c, 0, 84, 84
6, 265619, Note_on_c, 0, 84, 0
6, 265680, Note_on_c, 0, 81, 84
6, 265680, Note_on_c, 0, 89, 84
6, 265851, Note_on_c, 0, 81, 0
6, 265851, Note_on_c, 0, 89, 0
6, 265860, Note_on_c, 0, 89, 84
6, 265860, Note_on_c, 0, 81, 84
6, 265911, Note_on_c, 0, 89, 0
6, 265911, Note_on_c, 0, 81, 0
6, 265920, Note_on_c, 0, 88, 84
6, 265920, Note_on_c, 0, 79, 84
6, 266099, Note_on_c, 0, 88, 0
6, 266099, Note_on_c, 0, 79, 0
6, 266160, Note_on_c, 0, 82, 84
6, 266160, Note_on_c, 0, 91, 84
6, 266331, Note_on_c, 0, 82, 0
6, 266331, Note_on_c, 0, 91, 0
6, 266340, Note_on_c, 0, 82, 84
6, 266340, Note_on_c, 0, 91, 84
6, 266391, Note_on_c, 0, 82, 0
6, 266391, Note_on_c, 0, 91, 0
6, 266400, Note_on_c, 0, 89, 84
6, 266400, Note_on_c, 0, 81, 84
6, 266579, Note_on_c, 0, 89, 0
6, 266579, Note_on_c, 0, 81, 0
6, 266640, Note_on_c, 0, 82, 84
6, 266640, Note_on_c, 0, 86, 84
6, 266811, Note_on_c, 0, 82, 0
6, 266811, Note_on_c, 0, 86, 0
6, 266820, Note_on_c, 0, 86, 84
6, 266820, Note_on_c, 0, 82, 84
6, 266871, Note_on_c, 0, 86, 0
6, 266871, Note_on_c, 0, 82, 0
6, 266880, Note_on_c, 0, 84, 84
6, 266880, Note_on_c, 0, 81, 84
6, 267059, Note_on_c, 0, 84, 0
6, 267059, Note_on_c, 0, 81, 0
6, 267120, Note_on_c, 0, 82, 84
6, 267120, Note_on_c, 0, 86, 84
6, 267291, Note_on_c, 0, 82, 0
6, 267291, Note_on_c, 0, 86, 0
6, 267300, Note_on_c, 0, 82, 84
6, 267300, Note_on_c, 0, 86, 84
6, 267351, Note_on_c, 0, 82, 0
6, 267351, Note_on_c, 0, 86, 0
6, 267360, Note_on_c, 0, 81, 84
6, 267360, Note_on_c, 0, 84, 84
6, 267539, Note_on_c, 0, 81, 0
6, 267539, Note_on_c, 0, 84, 0
6, 269760, Note_on_c, 0, 84, 48
6, 269999, Note_on_c, 0, 84, 0
6, 270000, Note_on_c, 0, 82, 48
6, 270479, Note_on_c, 0, 82, 0
6, 270480, Note_on_c, 0, 81, 48
6, 270719, Note_on_c, 0, 81, 0
6, 270720, Note_on_c, 0, 79, 48
6, 271199, Note_on_c, 0, 79, 0
6, 271200, Note_on_c, 0, 81, 48
6, 271439, Note_on_c, 0, 81, 0
6, 271440, Note_on_c, 0, 82, 48
6, 271919, Note_on_c, 0, 82, 0
6, 271920, Note_on_c, 0, 86, 48
6, 272159, Note_on_c, 0, 86, 0
6, 272160, Note_on_c, 0, 84, 48
6, 272639, Note_on_c, 0, 84, 0
6, 272640, Note_on_c, 0, 88, 48
6, 272864, Note_on_c, 0, 88, 0
6, 272880, Note_on_c, 0, 81, 84
6, 272880, Note_on_c, 0, 89, 84
6, 273051, Note_on_c, 0, 81, 0
6, 273051, Note_on_c, 0, 89, 0
6, 273060, Note_on_c, 0, 81, 84
6, 273060, Note_on_c, 0, 89, 84
6, 273111, Note_on_c, 0, 81, 0
6, 273111, Note_on_c, 0, 89, 0
6, 273120, Note_on_c, 0, 79, 84
6, 273120, Note_on_c, 0, 88, 84
6, 273299, Note_on_c, 0, 79, 0
6, 273299, Note_on_c, 0, 88, 0
6, 273360, Note_on_c, 0, 82, 84
6, 273360, Note_on_c, 0, 91, 84
6, 273531, Note_on_c, 0, 82, 0
6, 273531, Note_on_c, 0, 91, 0
6, 273540, Note_on_c, 0, 91, 84
6, 273540, Note_on_c, 0, 82, 84
6, 273591, Note_on_c, 0, 91, 0
6, 273591, Note_on_c, 0, 82, 0
6, 273600, Note_on_c, 0, 81, 84
6, 273600, Note_on_c, 0, 89, 84
6, 273779, Note_on_c, 0, 81, 0
6, 273779, Note_on_c, 0, 89, 0
6, 273840, Note_on_c, 0, 86, 84
6, 273840, Note_on_c, 0, 82, 84
6, 274011, Note_on_c, 0, 86, 0
6, 274011, Note_on_c, 0, 82, 0
6, 274020, Note_on_c, 0, 86, 84
6, 274020, Note_on_c, 0, 82, 84
6, 274071, Note_on_c, 0, 86, 0
6, 274071, Note_on_c, 0, 82, 0
6, 274080, Note_on_c, 0, 84, 84
6, 274080, Note_on_c, 0, 81, 84
6, 274259, Note_on_c, 0, 84, 0
6, 274259, Note_on_c, 0, 81, 0
6, 274320, Note_on_c, 0, 82, 84
6, 274320, Note_on_c, 0, 86, 84
6, 274491, Note_on_c, 0, 82, 0
6, 274491, Note_on_c, 0, 86, 0
6, 274500, Note_on_c, 0, 86, 84
6, 274500, Note_on_c, 0, 82, 84
6, 274551, Note_on_c, 0, 86, 0
6, 274551, Note_on_c, 0, 82, 0
6, 274560, Note_on_c, 0, 84, 84
6, 274560, Note_on_c, 0, 81, 84
6, 274739, Note_on_c, 0, 84, 0
6, 274739, Note_on_c, 0, 81, 0
6, 277680, Note_on_c, 0, 84, 48
6, 277680, Note_on_c, 0, 89, 48
6, 277919, Note_on_c, 0, 89, 0
6, 277920, Note_on_c, 0, 88, 48
6, 278399, Note_on_c, 0, 84, 0
6, 278399, Note_on_c, 0, 88, 0
6, 278400, Note_on_c, 0, 87, 48
6, 278400, Note_on_c, 0, 84, 48
6, 278639, Note_on_c, 0, 87, 0
6, 278639, Note_on_c, 0, 84, 0
6, 278640, Note_on_c, 0, 82, 48
6, 278640, Note_on_c, 0, 86, 48
6, 279104, Note_on_c, 0, 82, 0
6, 279104, Note_on_c, 0, 86, 0
6, 279120, Note_on_c, 0, 86, 48
6, 279120, Note_on_c, 0, 82, 48
6, 279359, Note_on_c, 0, 86, 0
6, 279359, Note_on_c, 0, 82, 0
6, 279360, Note_on_c, 0, 81, 48
6, 279360, Note_on_c, 0, 84, 48
6, 279839, Note_on_c, 0, 81, 0
6, 279839, Note_on_c, 0, 84, 0
6, 279840, Note_on_c, 0, 88, 48
6, 279840, Note_on_c, 0, 79, 48
6, 280064, Note_on_c, 0, 88, 0
6, 280064, Note_on_c, 0, 79, 0
6, 280080, Note_on_c, 0, 89, 48
6, 280080, Note_on_c, 0, 81, 48
6, 280319, Note_on_c, 0, 89, 0
6, 280319, Note_on_c, 0, 81, 0
6, 280800, Control_c, 0, 11, 80
6, 281040, Note_on_c, 0, 82, 76
6, 281040, Note_on_c, 0, 79, 76
6, 281040, Control_c, 0, 11, 80
6, 281080, Control_c, 0, 11, 84
6, 281120, Control_c, 0, 11, 88
6, 281160, Control_c, 0, 11, 92
6, 281200, Control_c, 0, 11, 96
6, 281240, Control_c, 0, 11, 100
6, 281280, Control_c, 0, 11, 104
6, 281320, Control_c, 0, 11, 107
6, 281360, Control_c, 0, 11, 111
6, 281399, Note_on_c, 0, 82, 0
6, 281399, Note_on_c, 0, 79, 0
6, 281400, Note_on_c, 0, 81, 76
6, 281400, Note_on_c, 0, 84, 76
6, 281400, Control_c, 0, 11, 115
6, 281440, Control_c, 0, 11, 119
6, 281480, Control_c, 0, 11, 123
6, 281504, Note_on_c, 0, 81, 0
6, 281504, Note_on_c, 0, 84, 0
6, 281520, Note_on_c, 0, 77, 76
6, 281520, Control_c, 0, 11, 127
6, 281520, Note_on_c, 0, 81, 76
6, 281699, Note_on_c, 0, 77, 0
6, 281699, Note_on_c, 0, 81, 0
6, 281760, Note_on_c, 0, 93, 84
6, 281760, Note_on_c, 0, 84, 84
6, 282119, Note_on_c, 0, 93, 0
6, 282120, Note_on_c, 0, 89, 76
6, 282209, Note_on_c, 0, 84, 0
6, 282224, Note_on_c, 0, 89, 0
6, 282240, Note_on_c, 0, 88, 84
6, 282240, Note_on_c, 0, 84, 84
6, 282479, Note_on_c, 0, 88, 0
6, 282479, Note_on_c, 0, 84, 0
6, 282600, Note_on_c, 0, 88, 76
6, 282600, Note_on_c, 0, 84, 76
6, 282689, Note_on_c, 0, 88, 0
6, 282689, Note_on_c, 0, 84, 0
6, 282720, Note_on_c, 0, 84, 76
6, 282809, Note_on_c, 0, 84, 0
6, 282840, Note_on_c, 0, 84, 76
6, 282840, Note_on_c, 0, 91, 76
6, 282929, Note_on_c, 0, 84, 0
6, 282929, Note_on_c, 0, 91, 0
6, 282960, Note_on_c, 0, 93, 84
6, 282960, Note_on_c, 0, 84, 84
6, 283139, Note_on_c, 0, 93, 0
6, 283139, Note_on_c, 0, 84, 0
6, 283320, Note_on_c, 0, 84, 76
6, 283409, Note_on_c, 0, 84, 0
6, 283440, Note_on_c, 0, 81, 76
6, 283529, Note_on_c, 0, 81, 0
6, 283560, Note_on_c, 0, 89, 76
6, 283560, Note_on_c, 0, 84, 76
6, 283649, Note_on_c, 0, 89, 0
6, 283649, Note_on_c, 0, 84, 0
6, 283680, Note_on_c, 0, 88, 84
6, 283680, Note_on_c, 0, 84, 84
6, 283859, Note_on_c, 0, 88, 0
6, 283859, Note_on_c, 0, 84, 0
6, 284040, Note_on_c, 0, 88, 76
6, 284040, Note_on_c, 0, 84, 76
6, 284129, Note_on_c, 0, 88, 0
6, 284129, Note_on_c, 0, 84, 0
6, 284160, Note_on_c, 0, 84, 76
6, 284249, Note_on_c, 0, 84, 0
6, 284280, Note_on_c, 0, 91, 76
6, 284369, Note_on_c, 0, 91, 0
6, 284400, Note_on_c, 0, 89, 84
6, 284400, Note_on_c, 0, 93, 84
6, 287264, Note_on_c, 0, 89, 0
6, 287264, Note_on_c, 0, 93, 0
6, 287280, Note_on_c, 0, 89, 92
6, 287280, Note_on_c, 0, 77, 92
6, 287519, Note_on_c, 0, 89, 0
6, 287519, Note_on_c, 0, 77, 0
6, 288000, Note_on_c, 0, 77, 92
6, 288000, Note_on_c, 0, 89, 92
6, 288239, Note_on_c, 0, 77, 0
6, 288239, Note_on_c, 0, 89, 0
6, 288720, Note_on_c, 0, 77, 92
6, 288720, Note_on_c, 0, 89, 92
6, 288959, Note_on_c, 0, 77, 0
6, 288959, Note_on_c, 0, 89, 0
6, 289440, Note_on_c, 0, 89, 92
6, 289440, Note_on_c, 0, 77, 92
6, 289679, Note_on_c, 0, 89, 0
6, 289679, Note_on_c, 0, 77, 0
6, 289800, Note_on_c, 0, 77, 84
6, 289800, Note_on_c, 0, 89, 84
6, 289904, Note_on_c, 0, 77, 0
6, 289904, Note_on_c, 0, 89, 0
6, 289920, Note_on_c, 0, 77, 84
6, 289920, Note_on_c, 0, 89, 84
6, 290024, Note_on_c, 0, 77, 0
6, 290024, Note_on_c, 0, 89, 0
6, 290040, Note_on_c, 0, 77, 84
6, 290040, Note_on_c, 0, 89, 84
6, 290144, Note_on_c, 0, 77, 0
6, 290144, Note_on_c, 0, 89, 0
6, 290160, Note_on_c, 0, 89, 84
6, 290160, Note_on_c, 0, 77, 84
6, 290399, Note_on_c, 0, 89, 0
6, 290399, Note_on_c, 0, 77, 0
6, 295440, Note_on_c, 0, 78, 44
6, 295544, Note_on_c, 0, 78, 0
6, 295680, Note_on_c, 0, 78, 44
6, 295769, Note_on_c, 0, 78, 0
6, 295920, Note_on_c, 0, 77, 44
6, 296159, Note_on_c, 0, 77, 0
6, 296880, Note_on_c, 0, 80, 44
6, 296984, Note_on_c, 0, 80, 0
6, 297120, Note_on_c, 0, 80, 44
6, 297209, Note_on_c, 0, 80, 0
6, 297360, Note_on_c, 0, 80, 44
6, 298784, Note_on_c, 0, 80, 0
6, 298800, Note_on_c, 0, 82, 44
6, 301664, Note_on_c, 0, 82, 0
6, 301678, Control_c, 0, 11, 48
6, 301680, Note_on_c, 0, 84, 84
6, 301860, Control_c, 0, 11, 51
6, 302040, Control_c, 0, 11, 55
6, 302220, Control_c, 0, 11, 58
6, 302400, Control_c, 0, 11, 61
6, 302580, Control_c, 0, 11, 64
6, 302760, Control_c, 0, 11, 68
6, 302940, Control_c, 0, 11, 71
6, 303104, Note_on_c, 0, 84, 0
6, 303120, Note_on_c, 0, 86, 84
6, 303120, Control_c, 0, 11, 74
6, 303300, Control_c, 0, 11, 78
6, 303480, Control_c, 0, 11, 81
6, 303660, Control_c, 0, 11, 84
6, 303840, Control_c, 0, 11, 88
6, 304020, Control_c, 0, 11, 91
6, 304200, Control_c, 0, 11, 94
6, 304380, Control_c, 0, 11, 97
6, 304544, Note_on_c, 0, 86, 0
6, 304560, Note_on_c, 0, 84, 84
6, 304560, Control_c, 0, 11, 101
6, 304740, Control_c, 0, 11, 104
6, 304920, Control_c, 0, 11, 107
6, 305100, Control_c, 0, 11, 111
6, 305280, Control_c, 0, 11, 114
6, 305460, Control_c, 0, 11, 117
6, 305640, Control_c, 0, 11, 120
6, 305820, Control_c, 0, 11, 124
6, 305879, Note_on_c, 0, 84, 0
6, 305880, Note_on_c, 0, 89, 84
6, 305984, Note_on_c, 0, 89, 0
6, 306000, Note_on_c, 0, 84, 84
6, 306000, Control_c, 0, 11, 127
6, 306000, Note_on_c, 0, 89, 84
6, 306359, Note_on_c, 0, 84, 0
6, 306359, Note_on_c, 0, 89, 0
6, 306720, Note_on_c, 0, 89, 92
6, 306720, Note_on_c, 0, 84, 92
6, 307079, Note_on_c, 0, 89, 0
6, 307079, Note_on_c, 0, 84, 0
6, 307440, Note_on_c, 0, 88, 92
6, 307440, Note_on_c, 0, 91, 92
6, 307799, Note_on_c, 0, 88, 0
6, 307799, Note_on_c, 0, 91, 0
6, 308160, Note_on_c, 0, 88, 92
6, 308160, Note_on_c, 0, 91, 92
6, 308519, Note_on_c, 0, 88, 0
6, 308519, Note_on_c, 0, 91, 0
6, 308880, Note_on_c, 0, 88, 92
6, 308880, Note_on_c, 0, 91, 92
6, 309239, Note_on_c, 0, 88, 0
6, 309239, Note_on_c, 0, 91, 0
6, 309600, Note_on_c, 0, 93, 92
6, 309600, Note_on_c, 0, 89, 92
6, 309959, Note_on_c, 0, 93, 0
6, 309959, Note_on_c, 0, 89, 0
6, 310080, Note_on_c, 0, 84, 84
6, 310080, Note_on_c, 0, 91, 84
6, 310199, Note_on_c, 0, 84, 0
6, 310199, Note_on_c, 0, 91, 0
6, 310320, Note_on_c, 0, 89, 92
6, 310320, Note_on_c, 0, 93, 92
6, 310439, Note_on_c, 0, 89, 0
6, 310439, Note_on_c, 0, 93, 0
6, 310560, Note_on_c, 0, 84, 84
6, 310560, Note_on_c, 0, 89, 84
6, 310679, Note_on_c, 0, 84, 0
6, 310679, Note_on_c, 0, 89, 0
6, 310800, Note_on_c, 0, 91, 84
6, 310800, Note_on_c, 0, 88, 84
6, 310919, Note_on_c, 0, 91, 0
6, 310919, Note_on_c, 0, 88, 0
6, 311040, Note_on_c, 0, 89, 92
6, 311040, Note_on_c, 0, 93, 92
6, 311159, Note_on_c, 0, 89, 0
6, 311159, Note_on_c, 0, 93, 0
6, 311280, Note_on_c, 0, 89, 84
6, 311280, Note_on_c, 0, 84, 84
6, 311399, Note_on_c, 0, 89, 0
6, 311399, Note_on_c, 0, 84, 0
6, 311520, Note_on_c, 0, 91, 84
6, 311520, Note_on_c, 0, 88, 84
6, 311639, Note_on_c, 0, 91, 0
6, 311639, Note_on_c, 0, 88, 0
6, 311760, Note_on_c, 0, 93, 92
6, 311760, Note_on_c, 0, 89, 92
6, 311879, Note_on_c, 0, 93, 0
6, 311879, Note_on_c, 0, 89, 0
6, 312000, Note_on_c, 0, 89, 84
6, 312000, Note_on_c, 0, 84, 84
6, 312119, Note_on_c, 0, 89, 0
6, 312119, Note_on_c, 0, 84, 0
6, 312240, Note_on_c, 0, 88, 84
6, 312240, Note_on_c, 0, 91, 84
6, 312359, Note_on_c, 0, 88, 0
6, 312359, Note_on_c, 0, 91, 0
6, 312720, Note_on_c, 0, 91, 92
6, 312720, Note_on_c, 0, 88, 92
6, 313199, Note_on_c, 0, 91, 0
6, 313199, Note_on_c, 0, 88, 0
6, 313680, Control_c, 0, 11, 80
6, 313920, Note_on_c, 0, 72, 76
6, 313920, Note_on_c, 0, 84, 76
6, 316080, Control_c, 0, 11, 80
6, 316320, Control_c, 0, 11, 84
6, 316560, Control_c, 0, 11, 88
6, 316800, Control_c, 0, 11, 92
6, 317040, Control_c, 0, 11, 96
6, 317280, Control_c, 0, 11, 100
6, 317520, Control_c, 0, 11, 104
6, 317760, Control_c, 0, 11, 107
6, 318000, Control_c, 0, 11, 111
6, 318240, Control_c, 0, 11, 115
6, 318480, Control_c, 0, 11, 119
6, 318720, Control_c, 0, 11, 123
6, 318944, Note_on_c, 0, 72, 0
6, 318944, Note_on_c, 0, 84, 0
6, 318960, Note_on_c, 0, 79, 76
6, 318960, Control_c, 0, 11, 127
6, 319424, Note_on_c, 0, 79, 0
6, 319440, Note_on_c, 0, 77, 84
6, 319664, Note_on_c, 0, 77, 0
6, 319680, Note_on_c, 0, 79, 76
6, 320144, Note_on_c, 0, 79, 0
6, 320160, Note_on_c, 0, 77, 84
6, 320384, Note_on_c, 0, 77, 0
6, 320400, Note_on_c, 0, 79, 76
6, 320864, Note_on_c, 0, 79, 0
6, 320880, Note_on_c, 0, 77, 84
6, 321104, Note_on_c, 0, 77, 0
6, 321120, Note_on_c, 0, 79, 76
6, 321584, Note_on_c, 0, 79, 0
6, 321600, Note_on_c, 0, 81, 84
6, 321824, Note_on_c, 0, 81, 0
6, 321840, Note_on_c, 0, 82, 76
6, 322304, Note_on_c, 0, 82, 0
6, 322320, Note_on_c, 0, 84, 84
6, 322544, Note_on_c, 0, 84, 0
6, 322560, Note_on_c, 0, 86, 76
6, 323024, Note_on_c, 0, 86, 0
6, 323040, Note_on_c, 0, 76, 84
6, 323040, Note_on_c, 0, 88, 84
6, 323264, Note_on_c, 0, 76, 0
6, 323264, Note_on_c, 0, 88, 0
6, 323280, Note_on_c, 0, 77, 76
6, 323280, Note_on_c, 0, 89, 76
6, 323504, Note_on_c, 0, 77, 0
6, 323520, Note_on_c, 0, 84, 76
6, 323744, Note_on_c, 0, 89, 0
6, 323744, Note_on_c, 0, 84, 0
6, 323760, Note_on_c, 0, 91, 84
6, 323760, Note_on_c, 0, 84, 84
6, 323984, Note_on_c, 0, 91, 0
6, 323984, Note_on_c, 0, 84, 0
6, 324000, Note_on_c, 0, 89, 76
6, 324000, Note_on_c, 0, 84, 76
6, 324224, Note_on_c, 0, 84, 0
6, 324464, Note_on_c, 0, 89, 0
6, 324480, Note_on_c, 0, 89, 84
6, 324600, Note_on_c, 0, 91, 76
6, 324704, Note_on_c, 0, 89, 0
6, 324704, Note_on_c, 0, 91, 0
6, 324720, Note_on_c, 0, 92, 92
6, 324720, Note_on_c, 0, 89, 92
6, 325904, Note_on_c, 0, 92, 0
6, 325904, Note_on_c, 0, 89, 0
6, 325920, Note_on_c, 0, 89, 92
6, 325920, Note_on_c, 0, 93, 92
6, 326144, Note_on_c, 0, 89, 0
6, 326144, Note_on_c, 0, 93, 0
6, 326160, Note_on_c, 0, 89, 92
6, 326160, Note_on_c, 0, 93, 92
6, 326279, Note_on_c, 0, 89, 0
6, 326279, Note_on_c, 0, 93, 0
6, 326400, Note_on_c, 0, 89, 92
6, 326519, Note_on_c, 0, 89, 0
6, 326520, Note_on_c, 0, 91, 92
6, 326520, Note_on_c, 0, 88, 92
6, 326624, Note_on_c, 0, 91, 0
6, 326624, Note_on_c, 0, 88, 0
6, 326640, Note_on_c, 0, 93, 92
6, 326640, Note_on_c, 0, 89, 92
6, 326729, Note_on_c, 0, 93, 0
6, 326729, Note_on_c, 0, 89, 0
6, 326760, Note_on_c, 0, 89, 92
6, 326849, Note_on_c, 0, 89, 0
6, 326880, Note_on_c, 0, 93, 92
6, 326880, Note_on_c, 0, 89, 92
6, 326999, Note_on_c, 0, 93, 0
6, 326999, Note_on_c, 0, 89, 0
6, 327120, Note_on_c, 0, 89, 92
6, 327239, Note_on_c, 0, 89, 0
6, 327240, Note_on_c, 0, 91, 92
6, 327240, Note_on_c, 0, 88, 92
6, 327344, Note_on_c, 0, 91, 0
6, 327344, Note_on_c, 0, 88, 0
6, 327360, Note_on_c, 0, 93, 92
6, 327360, Note_on_c, 0, 89, 92
6, 327449, Note_on_c, 0, 93, 0
6, 327449, Note_on_c, 0, 89, 0
6, 327480, Note_on_c, 0, 89, 92
6, 327569, Note_on_c, 0, 89, 0
6, 327600, Note_on_c, 0, 93, 92
6, 327600, Note_on_c, 0, 89, 92
6, 327719, Note_on_c, 0, 93, 0
6, 327719, Note_on_c, 0, 89, 0
6, 327840, Note_on_c, 0, 89, 92
6, 327959, Note_on_c, 0, 89, 0
6, 327960, Note_on_c, 0, 88, 92
6, 327960, Note_on_c, 0, 91, 92
6, 328064, Note_on_c, 0, 88, 0
6, 328064, Note_on_c, 0, 91, 0
6, 328080, Note_on_c, 0, 89, 92
6, 328080, Note_on_c, 0, 93, 92
6, 328169, Note_on_c, 0, 89, 0
6, 328169, Note_on_c, 0, 93, 0
6, 328200, Note_on_c, 0, 89, 92
6, 328289, Note_on_c, 0, 89, 0
6, 328320, Note_on_c, 0, 91, 92
6, 328320, Note_on_c, 0, 88, 92
6, 328439, Note_on_c, 0, 91, 0
6, 328439, Note_on_c, 0, 88, 0
6, 328560, Note_on_c, 0, 91, 92
6, 328560, Note_on_c, 0, 88, 92
6, 328679, Note_on_c, 0, 91, 0
6, 328679, Note_on_c, 0, 88, 0
6, 328800, Note_on_c, 0, 88, 92
6, 328800, Note_on_c, 0, 91, 92
6, 328919, Note_on_c, 0, 88, 0
6, 328919, Note_on_c, 0, 91, 0
6, 329040, Note_on_c, 0, 89, 92
6, 329040, Note_on_c, 0, 93, 92
6, 329159, Note_on_c, 0, 89, 0
6, 329159, Note_on_c, 0, 93, 0
6, 329280, Note_on_c, 0, 89, 92
6, 329399, Note_on_c, 0, 89, 0
6, 329400, Note_on_c, 0, 91, 92
6, 329400, Note_on_c, 0, 88, 92
6, 329504, Note_on_c, 0, 91, 0
6, 329504, Note_on_c, 0, 88, 0
6, 329520, Note_on_c, 0, 93, 92
6, 329520, Note_on_c, 0, 89, 92
6, 329609, Note_on_c, 0, 93, 0
6, 329609, Note_on_c, 0, 89, 0
6, 329640, Note_on_c, 0, 89, 92
6, 329729, Note_on_c, 0, 89, 0
6, 329760, Note_on_c, 0, 89, 92
6, 329760, Note_on_c, 0, 93, 92
6, 329879, Note_on_c, 0, 89, 0
6, 329879, Note_on_c, 0, 93, 0
6, 330000, Note_on_c, 0, 89, 92
6, 330119, Note_on_c, 0, 89, 0
6, 330120, Note_on_c, 0, 88, 92
6, 330120, Note_on_c, 0, 91, 92
6, 330224, Note_on_c, 0, 88, 0
6, 330224, Note_on_c, 0, 91, 0
6, 330240, Note_on_c, 0, 89, 92
6, 330240, Note_on_c, 0, 93, 92
6, 330329, Note_on_c, 0, 89, 0
6, 330329, Note_on_c, 0, 93, 0
6, 330360, Note_on_c, 0, 89, 92
6, 330449, Note_on_c, 0, 89, 0
6, 330480, Note_on_c, 0, 93, 92
6, 330480, Note_on_c, 0, 89, 92
6, 330599, Note_on_c, 0, 93, 0
6, 330599, Note_on_c, 0, 89, 0
6, 330720, Note_on_c, 0, 89, 92
6, 330839, Note_on_c, 0, 89, 0
6, 330840, Note_on_c, 0, 91, 92
6, 330840, Note_on_c, 0, 88, 92
6, 330944, Note_on_c, 0, 91, 0
6, 330944, Note_on_c, 0, 88, 0
6, 330960, Note_on_c, 0, 89, 92
6, 330960, Note_on_c, 0, 93, 92
6, 331049, Note_on_c, 0, 89, 0
6, 331049, Note_on_c, 0, 93, 0
6, 331080, Note_on_c, 0, 89, 92
6, 331169, Note_on_c, 0, 89, 0
6, 331200, Note_on_c, 0, 91, 92
6, 331200, Note_on_c, 0, 88, 92
6, 331319, Note_on_c, 0, 91, 0
6, 331319, Note_on_c, 0, 88, 0
6, 331440, Note_on_c, 0, 91, 92
6, 331440, Note_on_c, 0, 88, 92
6, 331559, Note_on_c, 0, 91, 0
6, 331559, Note_on_c, 0, 88, 0
6, 331680, Note_on_c, 0, 88, 92
6, 331680, Note_on_c, 0, 91, 92
6, 331799, Note_on_c, 0, 88, 0
6, 331799, Note_on_c, 0, 91, 0
6, 332640, Note_on_c, 0, 89, 92
6, 332640, Note_on_c, 0, 93, 92
6, 332759, Note_on_c, 0, 89, 0
6, 332759, Note_on_c, 0, 93, 0
6, 332880, Note_on_c, 0, 89, 92
6, 332880, Note_on_c, 0, 93, 92
6, 332999, Note_on_c, 0, 89, 0
6, 332999, Note_on_c, 0, 93, 0
6, 333120, Note_on_c, 0, 89, 92
6, 333120, Note_on_c, 0, 93, 92
6, 333239, Note_on_c, 0, 89, 0
6, 333239, Note_on_c, 0, 93, 0
6, 334800, Note_on_c, 0, 76, 52
6, 335024, Note_on_c, 0, 76, 0
6, 335040, Note_on_c, 0, 76, 52
6, 335264, Note_on_c, 0, 76, 0
6, 335280, Note_on_c, 0, 76, 52
6, 335519, Note_on_c, 0, 76, 0
6, 336240, Note_on_c, 0, 77, 52
6, 336464, Note_on_c, 0, 77, 0
6, 336480, Note_on_c, 0, 77, 52
6, 336704, Note_on_c, 0, 77, 0
6, 336720, Note_on_c, 0, 77, 52
6, 336959, Note_on_c, 0, 77, 0
6, 337680, Control_c, 0, 11, 127
6, 337680, Note_on_c, 0, 77, 52
6, 337860, Control_c, 0, 11, 126
6, 337904, Note_on_c, 0, 77, 0
6, 337920, Note_on_c, 0, 77, 52
6, 338040, Control_c, 0, 11, 125
6, 338159, Note_on_c, 0, 77, 0
6, 338220, Control_c, 0, 11, 123
6, 338400, Control_c, 0, 11, 122
6, 338580, Control_c, 0, 11, 121
6, 338760, Control_c, 0, 11, 120
6, 338940, Control_c, 0, 11, 118
6, 339120, Note_on_c, 0, 77, 52
6, 339120, Control_c, 0, 11, 117
6, 339300, Control_c, 0, 11, 116
6, 339344, Note_on_c, 0, 77, 0
6, 339360, Note_on_c, 0, 77, 52
6, 339480, Control_c, 0, 11, 115
6, 339599, Note_on_c, 0, 77, 0
6, 339660, Control_c, 0, 11, 127
6, 339840, Note_on_c, 0, 77, 44
6, 340544, Note_on_c, 0, 77, 0
6, 340560, Note_on_c, 0, 77, 44
6, 341264, Note_on_c, 0, 77, 0
6, 341280, Note_on_c, 0, 77, 44
6, 341399, Note_on_c, 0, 77, 0
6, 341520, Note_on_c, 0, 77, 44
6, 341520, Note_on_c, 0, 81, 44
6, 341639, Note_on_c, 0, 77, 0
6, 341639, Note_on_c, 0, 81, 0
6, 341760, Note_on_c, 0, 81, 44
6, 341760, Note_on_c, 0, 84, 44
6, 341879, Note_on_c, 0, 81, 0
6, 341879, Note_on_c, 0, 84, 0
6, 342000, Note_on_c, 0, 89, 44
6, 342000, Note_on_c, 0, 81, 44
6, 342239, Note_on_c, 0, 89, 0
6, 342239, Note_on_c, 0, 81, 0
6, 342239, End_track
7, 0, Start_track
7, 0, Title_t, "Oboe"
7, 0, MIDI_port, 0
7, 0, Program_c, 1, 68
7, 0, Control_c, 1, 7, 80
7, 0, Control_c, 1, 10, 70
7, 0, Control_c, 1, 11, 127
7, 0, Note_on_c, 1, 81, 76
7, 0, Note_on_c, 1, 77, 76
7, 1184, Note_on_c, 1, 81, 0
7, 1184, Note_on_c, 1, 77, 0
7, 1200, Note_on_c, 1, 81, 76
7, 1200, Note_on_c, 1, 72, 76
7, 1289, Note_on_c, 1, 81, 0
7, 1289, Note_on_c, 1, 72, 0
7, 1320, Note_on_c, 1, 81, 76
7, 1320, Note_on_c, 1, 77, 76
7, 1409, Note_on_c, 1, 81, 0
7, 1409, Note_on_c, 1, 77, 0
7, 1440, Note_on_c, 1, 82, 76
7, 1440, Note_on_c, 1, 77, 76
7, 1559, Note_on_c, 1, 77, 0
7, 1560, Note_on_c, 1, 76, 76
7, 1664, Note_on_c, 1, 82, 0
7, 1664, Note_on_c, 1, 76, 0
7, 1680, Note_on_c, 1, 76, 76
7, 1680, Note_on_c, 1, 82, 76
7, 1769, Note_on_c, 1, 76, 0
7, 1769, Note_on_c, 1, 82, 0
7, 1800, Note_on_c, 1, 77, 76
7, 1889, Note_on_c, 1, 77, 0
7, 1920, Note_on_c, 1, 79, 76
7, 2009, Note_on_c, 1, 79, 0
7, 2040, Note_on_c, 1, 77, 76
7, 2040, Note_on_c, 1, 81, 76
7, 2129, Note_on_c, 1, 77, 0
7, 2129, Note_on_c, 1, 81, 0
7, 2160, Note_on_c, 1, 82, 76
7, 2160, Note_on_c, 1, 79, 76
7, 2399, Note_on_c, 1, 82, 0
7, 2399, Note_on_c, 1, 79, 0
7, 3600, Note_on_c, 1, 76, 48
7, 4304, Note_on_c, 1, 76, 0
7, 4320, Note_on_c, 1, 77, 48
7, 4544, Note_on_c, 1, 77, 0
7, 4560, Note_on_c, 1, 72, 52
7, 4560, Note_on_c, 1, 77, 52
7, 4799, Note_on_c, 1, 72, 0
7, 4799, Note_on_c, 1, 77, 0
7, 4800, Note_on_c, 1, 79, 52
7, 4800, Note_on_c, 1, 76, 52
7, 5024, Note_on_c, 1, 79, 0
7, 5024, Note_on_c, 1, 76, 0
7, 5040, Note_on_c, 1, 79, 52
7, 5040, Note_on_c, 1, 76, 52
7, 5519, Note_on_c, 1, 79, 0
7, 5519, Note_on_c, 1, 76, 0
7, 5520, Note_on_c, 1, 81, 52
7, 5520, Note_on_c, 1, 77, 52
7, 5759, Note_on_c, 1, 81, 0
7, 5759, Note_on_c, 1, 77, 0
7, 6480, Note_on_c, 1, 82, 76
7, 6480, Note_on_c, 1, 79, 76
7, 7184, Note_on_c, 1, 82, 0
7, 7184, Note_on_c, 1, 79, 0
7, 7200, Note_on_c, 1, 77, 76
7, 7200, Note_on_c, 1, 81, 76
7, 7319, Note_on_c, 1, 77, 0
7, 7319, Note_on_c, 1, 81, 0
7, 7440, Note_on_c, 1, 77, 76
7, 7440, Note_on_c, 1, 81, 76
7, 7559, Note_on_c, 1, 77, 0
7, 7559, Note_on_c, 1, 81, 0
7, 7680, Note_on_c, 1, 79, 76
7, 7680, Note_on_c, 1, 82, 76
7, 7799, Note_on_c, 1, 79, 0
7, 7799, Note_on_c, 1, 82, 0
7, 7920, Note_on_c, 1, 77, 76
7, 7920, Note_on_c, 1, 81, 76
7, 8159, Note_on_c, 1, 77, 0
7, 8159, Note_on_c, 1, 81, 0
7, 9300, Note_on_c, 1, 81, 76
7, 9300, Note_on_c, 1, 77, 76
7, 9351, Note_on_c, 1, 81, 0
7, 9351, Note_on_c, 1, 77, 0
7, 9360, Note_on_c, 1, 77, 76
7, 9360, Note_on_c, 1, 82, 76
7, 9599, Note_on_c, 1, 77, 0
7, 9599, Note_on_c, 1, 82, 0
7, 10740, Note_on_c, 1, 82, 76
7, 10740, Note_on_c, 1, 77, 76
7, 10791, Note_on_c, 1, 82, 0
7, 10791, Note_on_c, 1, 77, 0
7, 10800, Note_on_c, 1, 79, 76
7, 10800, Note_on_c, 1, 77, 76
7, 11039, Note_on_c, 1, 79, 0
7, 11039, Note_on_c, 1, 77, 0
7, 12180, Note_on_c, 1, 77, 76
7, 12180, Note_on_c, 1, 79, 76
7, 12231, Note_on_c, 1, 77, 0
7, 12231, Note_on_c, 1, 79, 0
7, 12240, Note_on_c, 1, 79, 76
7, 12240, Note_on_c, 1, 76, 76
7, 12704, Note_on_c, 1, 79, 0
7, 12704, Note_on_c, 1, 76, 0
7, 12720, Note_on_c, 1, 79, 76
7, 12720, Note_on_c, 1, 76, 76
7, 12839, Note_on_c, 1, 79, 0
7, 12839, Note_on_c, 1, 76, 0
7, 12960, Note_on_c, 1, 76, 76
7, 12960, Note_on_c, 1, 79, 76
7, 13079, Note_on_c, 1, 76, 0
7, 13079, Note_on_c, 1, 79, 0
7, 13200, Note_on_c, 1, 79, 76
7, 13200, Note_on_c, 1, 82, 76
7, 13319, Note_on_c, 1, 79, 0
7, 13319, Note_on_c, 1, 82, 0
7, 13440, Note_on_c, 1, 76, 76
7, 13440, Note_on_c, 1, 79, 76
7, 13559, Note_on_c, 1, 76, 0
7, 13559, Note_on_c, 1, 79, 0
7, 13680, Note_on_c, 1, 81, 76
7, 13680, Note_on_c, 1, 77, 76
7, 15051, Note_on_c, 1, 81, 0
7, 15051, Note_on_c, 1, 77, 0
7, 15060, Note_on_c, 1, 77, 76
7, 15060, Note_on_c, 1, 81, 76
7, 15111, Note_on_c, 1, 77, 0
7, 15111, Note_on_c, 1, 81, 0
7, 15120, Note_on_c, 1, 77, 76
7, 15120, Note_on_c, 1, 82, 76
7, 16491, Note_on_c, 1, 77, 0
7, 16491, Note_on_c, 1, 82, 0
7, 16500, Note_on_c, 1, 77, 76
7, 16500, Note_on_c, 1, 82, 76
7, 16551, Note_on_c, 1, 77, 0
7, 16551, Note_on_c, 1, 82, 0
7, 16560, Note_on_c, 1, 74, 76
7, 16560, Note_on_c, 1, 82, 76
7, 17931, Note_on_c, 1, 74, 0
7, 17931, Note_on_c, 1, 82, 0
7, 17940, Note_on_c, 1, 82, 76
7, 17940, Note_on_c, 1, 74, 76
7, 17991, Note_on_c, 1, 82, 0
7, 17991, Note_on_c, 1, 74, 0
7, 18000, Note_on_c, 1, 74, 76
7, 18000, Note_on_c, 1, 82, 76
7, 19371, Note_on_c, 1, 74, 0
7, 19371, Note_on_c, 1, 82, 0
7, 19380, Note_on_c, 1, 74, 76
7, 19380, Note_on_c, 1, 82, 76
7, 19431, Note_on_c, 1, 74, 0
7, 19431, Note_on_c, 1, 82, 0
7, 19440, Note_on_c, 1, 74, 76
7, 19440, Note_on_c, 1, 82, 76
7, 19904, Note_on_c, 1, 74, 0
7, 19904, Note_on_c, 1, 82, 0
7, 19920, Note_on_c, 1, 74, 84
7, 19920, Note_on_c, 1, 82, 84
7, 20091, Note_on_c, 1, 74, 0
7, 20091, Note_on_c, 1, 82, 0
7, 20100, Note_on_c, 1, 82, 76
7, 20100, Note_on_c, 1, 74, 76
7, 20151, Note_on_c, 1, 82, 0
7, 20151, Note_on_c, 1, 74, 0
7, 20160, Note_on_c, 1, 74, 76
7, 20160, Note_on_c, 1, 82, 76
7, 20624, Note_on_c, 1, 74, 0
7, 20624, Note_on_c, 1, 82, 0
7, 20640, Note_on_c, 1, 74, 84
7, 20640, Note_on_c, 1, 82, 84
7, 20811, Note_on_c, 1, 74, 0
7, 20811, Note_on_c, 1, 82, 0
7, 20820, Note_on_c, 1, 74, 76
7, 20820, Note_on_c, 1, 82, 76
7, 20871, Note_on_c, 1, 74, 0
7, 20871, Note_on_c, 1, 82, 0
7, 20880, Note_on_c, 1, 74, 76
7, 20880, Note_on_c, 1, 82, 76
7, 20999, Note_on_c, 1, 74, 0
7, 20999, Note_on_c, 1, 82, 0
7, 21360, Note_on_c, 1, 74, 84
7, 21360, Note_on_c, 1, 82, 84
7, 21479, Note_on_c, 1, 74, 0
7, 21479, Note_on_c, 1, 82, 0
7, 21600, Note_on_c, 1, 74, 76
7, 21719, Note_on_c, 1, 74, 0
7, 22080, Note_on_c, 1, 82, 84
7, 22080, Note_on_c, 1, 74, 84
7, 22199, Note_on_c, 1, 82, 0
7, 22199, Note_on_c, 1, 74, 0
7, 22320, Note_on_c, 1, 74, 76
7, 22439, Note_on_c, 1, 74, 0
7, 32160, Note_on_c, 1, 67, 48
7, 32249, Note_on_c, 1, 67, 0
7, 32280, Note_on_c, 1, 67, 48
7, 32519, Note_on_c, 1, 67, 0
7, 32520, Note_on_c, 1, 69, 48
7, 32639, Note_on_c, 1, 69, 0
7, 32640, Note_on_c, 1, 71, 48
7, 32759, Note_on_c, 1, 71, 0
7, 32760, Note_on_c, 1, 72, 48
7, 32864, Note_on_c, 1, 72, 0
7, 32880, Note_on_c, 1, 67, 48
7, 32969, Note_on_c, 1, 67, 0
7, 33000, Note_on_c, 1, 67, 48
7, 33239, Note_on_c, 1, 67, 0
7, 33240, Note_on_c, 1, 71, 48
7, 33359, Note_on_c, 1, 71, 0
7, 33360, Note_on_c, 1, 72, 48
7, 33479, Note_on_c, 1, 72, 0
7, 33480, Note_on_c, 1, 74, 48
7, 33584, Note_on_c, 1, 74, 0
7, 33600, Note_on_c, 1, 67, 48
7, 33659, Note_on_c, 1, 67, 0
7, 33720, Note_on_c, 1, 67, 48
7, 33959, Note_on_c, 1, 67, 0
7, 33960, Note_on_c, 1, 72, 48
7, 34079, Note_on_c, 1, 72, 0
7, 34080, Note_on_c, 1, 74, 48
7, 34199, Note_on_c, 1, 74, 0
7, 34200, Note_on_c, 1, 76, 48
7, 34319, Note_on_c, 1, 76, 0
7, 34320, Note_on_c, 1, 77, 48
7, 34439, Note_on_c, 1, 77, 0
7, 34440, Note_on_c, 1, 76, 48
7, 34544, Note_on_c, 1, 76, 0
7, 34560, Note_on_c, 1, 74, 48
7, 34784, Note_on_c, 1, 74, 0
7, 34800, Note_on_c, 1, 79, 48
7, 35399, Note_on_c, 1, 79, 0
7, 35400, Note_on_c, 1, 78, 48
7, 35519, Note_on_c, 1, 78, 0
7, 35520, Note_on_c, 1, 74, 48
7, 35639, Note_on_c, 1, 74, 0
7, 35640, Note_on_c, 1, 76, 48
7, 35744, Note_on_c, 1, 76, 0
7, 35760, Note_on_c, 1, 77, 48
7, 36119, Note_on_c, 1, 77, 0
7, 36120, Note_on_c, 1, 76, 48
7, 36239, Note_on_c, 1, 76, 0
7, 36240, Note_on_c, 1, 72, 48
7, 36359, Note_on_c, 1, 72, 0
7, 36360, Note_on_c, 1, 74, 48
7, 36464, Note_on_c, 1, 74, 0
7, 36480, Note_on_c, 1, 72, 52
7, 36480, Note_on_c, 1, 75, 52
7, 36720, Control_c, 1, 11, 112
7, 38864, Note_on_c, 1, 72, 0
7, 38864, Note_on_c, 1, 75, 0
7, 38880, Note_on_c, 1, 75, 52
7, 39059, Note_on_c, 1, 75, 0
7, 39120, Control_c, 1, 11, 64
7, 39360, Note_on_c, 1, 72, 76
7, 39539, Note_on_c, 1, 72, 0
7, 39600, Note_on_c, 1, 75, 76
7, 39600, Note_on_c, 1, 72, 76
7, 41040, Control_c, 1, 11, 64
7, 41280, Control_c, 1, 11, 69
7, 41520, Control_c, 1, 11, 75
7, 41744, Note_on_c, 1, 75, 0
7, 41744, Note_on_c, 1, 72, 0
7, 41760, Note_on_c, 1, 72, 76
7, 41760, Control_c, 1, 11, 80
7, 41760, Note_on_c, 1, 75, 76
7, 41939, Note_on_c, 1, 72, 0
7, 41939, Note_on_c, 1, 75, 0
7, 42000, Control_c, 1, 11, 85
7, 42240, Control_c, 1, 11, 90
7, 42240, Note_on_c, 1, 72, 76
7, 42419, Note_on_c, 1, 72, 0
7, 42480, Note_on_c, 1, 74, 76
7, 42480, Control_c, 1, 11, 96
7, 42480, Note_on_c, 1, 77, 76
7, 42720, Control_c, 1, 11, 101
7, 42960, Control_c, 1, 11, 106
7, 43184, Note_on_c, 1, 74, 0
7, 43184, Note_on_c, 1, 77, 0
7, 43200, Note_on_c, 1, 74, 76
7, 43200, Note_on_c, 1, 77, 76
7, 43200, Control_c, 1, 11, 111
7, 43379, Note_on_c, 1, 74, 0
7, 43379, Note_on_c, 1, 77, 0
7, 43440, Control_c, 1, 11, 117
7, 43680, Control_c, 1, 11, 127
7, 43680, Note_on_c, 1, 74, 76
7, 43859, Note_on_c, 1, 74, 0
7, 43920, Note_on_c, 1, 76, 84
7, 43920, Note_on_c, 1, 79, 84
7, 44099, Note_on_c, 1, 76, 0
7, 44099, Note_on_c, 1, 79, 0
7, 44640, Note_on_c, 1, 80, 84
7, 44640, Note_on_c, 1, 77, 84
7, 44819, Note_on_c, 1, 80, 0
7, 44819, Note_on_c, 1, 77, 0
7, 45360, Note_on_c, 1, 78, 84
7, 45360, Note_on_c, 1, 81, 84
7, 45539, Note_on_c, 1, 78, 0
7, 45539, Note_on_c, 1, 81, 0
7, 46080, Note_on_c, 1, 79, 84
7, 46080, Note_on_c, 1, 83, 84
7, 46259, Note_on_c, 1, 79, 0
7, 46259, Note_on_c, 1, 83, 0
7, 46560, Note_on_c, 1, 79, 76
7, 46560, Note_on_c, 1, 83, 76
7, 46739, Note_on_c, 1, 79, 0
7, 46739, Note_on_c, 1, 83, 0
7, 46800, Note_on_c, 1, 79, 84
7, 46800, Note_on_c, 1, 83, 84
7, 46979, Note_on_c, 1, 79, 0
7, 46979, Note_on_c, 1, 83, 0
7, 47280, Note_on_c, 1, 83, 84
7, 47280, Note_on_c, 1, 79, 84
7, 47459, Note_on_c, 1, 83, 0
7, 47459, Note_on_c, 1, 79, 0
7, 47520, Note_on_c, 1, 79, 84
7, 47520, Note_on_c, 1, 84, 84
7, 47699, Note_on_c, 1, 79, 0
7, 47699, Note_on_c, 1, 84, 0
7, 48000, Note_on_c, 1, 81, 84
7, 48179, Note_on_c, 1, 81, 0
7, 48240, Note_on_c, 1, 77, 84
7, 48419, Note_on_c, 1, 77, 0
7, 48720, Note_on_c, 1, 74, 84
7, 48899, Note_on_c, 1, 74, 0
7, 48960, Note_on_c, 1, 79, 84
7, 49139, Note_on_c, 1, 79, 0
7, 49440, Note_on_c, 1, 67, 84
7, 49619, Note_on_c, 1, 67, 0
7, 49680, Note_on_c, 1, 76, 84
7, 49680, Note_on_c, 1, 72, 84
7, 49851, Note_on_c, 1, 76, 0
7, 49851, Note_on_c, 1, 72, 0
7, 49860, Note_on_c, 1, 76, 84
7, 49860, Note_on_c, 1, 72, 84
7, 49911, Note_on_c, 1, 76, 0
7, 49911, Note_on_c, 1, 72, 0
7, 49920, Note_on_c, 1, 71, 84
7, 49920, Note_on_c, 1, 74, 84
7, 50099, Note_on_c, 1, 71, 0
7, 50099, Note_on_c, 1, 74, 0
7, 50160, Note_on_c, 1, 74, 84
7, 50160, Note_on_c, 1, 77, 84
7, 50331, Note_on_c, 1, 74, 0
7, 50331, Note_on_c, 1, 77, 0
7, 50340, Note_on_c, 1, 77, 84
7, 50340, Note_on_c, 1, 74, 84
7, 50391, Note_on_c, 1, 77, 0
7, 50391, Note_on_c, 1, 74, 0
7, 50400, Note_on_c, 1, 72, 84
7, 50400, Note_on_c, 1, 76, 84
7, 50579, Note_on_c, 1, 72, 0
7, 50579, Note_on_c, 1, 76, 0
7, 50640, Note_on_c, 1, 77, 84
7, 50640, Note_on_c, 1, 81, 84
7, 50811, Note_on_c, 1, 77, 0
7, 50811, Note_on_c, 1, 81, 0
7, 50820, Note_on_c, 1, 81, 84
7, 50820, Note_on_c, 1, 77, 84
7, 50871, Note_on_c, 1, 81, 0
7, 50871, Note_on_c, 1, 77, 0
7, 50880, Note_on_c, 1, 79, 84
7, 50880, Note_on_c, 1, 76, 84
7, 51059, Note_on_c, 1, 79, 0
7, 51059, Note_on_c, 1, 76, 0
7, 51120, Note_on_c, 1, 77, 84
7, 51120, Note_on_c, 1, 81, 84
7, 51291, Note_on_c, 1, 77, 0
7, 51291, Note_on_c, 1, 81, 0
7, 51300, Note_on_c, 1, 77, 84
7, 51300, Note_on_c, 1, 81, 84
7, 51351, Note_on_c, 1, 77, 0
7, 51351, Note_on_c, 1, 81, 0
7, 51360, Note_on_c, 1, 79, 84
7, 51360, Note_on_c, 1, 76, 84
7, 51539, Note_on_c, 1, 79, 0
7, 51539, Note_on_c, 1, 76, 0
7, 51600, Note_on_c, 1, 79, 48
7, 51839, Note_on_c, 1, 79, 0
7, 51840, Note_on_c, 1, 78, 48
7, 52319, Note_on_c, 1, 78, 0
7, 52320, Note_on_c, 1, 79, 48
7, 52559, Note_on_c, 1, 79, 0
7, 52560, Note_on_c, 1, 77, 48
7, 53039, Note_on_c, 1, 77, 0
7, 53040, Note_on_c, 1, 76, 48
7, 53279, Note_on_c, 1, 76, 0
7, 53280, Note_on_c, 1, 74, 48
7, 53759, Note_on_c, 1, 74, 0
7, 53760, Note_on_c, 1, 72, 48
7, 53999, Note_on_c, 1, 72, 0
7, 54000, Note_on_c, 1, 71, 48
7, 54479, Note_on_c, 1, 71, 0
7, 54480, Note_on_c, 1, 72, 48
7, 54719, Note_on_c, 1, 72, 0
7, 54720, Note_on_c, 1, 74, 48
7, 55199, Note_on_c, 1, 74, 0
7, 55200, Note_on_c, 1, 76, 48
7, 55439, Note_on_c, 1, 76, 0
7, 55440, Note_on_c, 1, 77, 48
7, 55919, Note_on_c, 1, 77, 0
7, 55920, Note_on_c, 1, 81, 48
7, 56159, Note_on_c, 1, 81, 0
7, 56160, Note_on_c, 1, 79, 48
7, 56639, Note_on_c, 1, 79, 0
7, 56640, Note_on_c, 1, 77, 48
7, 56864, Note_on_c, 1, 77, 0
7, 56880, Note_on_c, 1, 76, 84
7, 56880, Note_on_c, 1, 72, 84
7, 57051, Note_on_c, 1, 76, 0
7, 57051, Note_on_c, 1, 72, 0
7, 57060, Note_on_c, 1, 76, 84
7, 57060, Note_on_c, 1, 72, 84
7, 57111, Note_on_c, 1, 76, 0
7, 57111, Note_on_c, 1, 72, 0
7, 57120, Note_on_c, 1, 71, 84
7, 57120, Note_on_c, 1, 74, 84
7, 57299, Note_on_c, 1, 71, 0
7, 57299, Note_on_c, 1, 74, 0
7, 57360, Note_on_c, 1, 74, 84
7, 57360, Note_on_c, 1, 77, 84
7, 57531, Note_on_c, 1, 74, 0
7, 57531, Note_on_c, 1, 77, 0
7, 57540, Note_on_c, 1, 77, 84
7, 57540, Note_on_c, 1, 74, 84
7, 57591, Note_on_c, 1, 77, 0
7, 57591, Note_on_c, 1, 74, 0
7, 57600, Note_on_c, 1, 76, 84
7, 57600, Note_on_c, 1, 72, 84
7, 57779, Note_on_c, 1, 76, 0
7, 57779, Note_on_c, 1, 72, 0
7, 57840, Note_on_c, 1, 77, 84
7, 57840, Note_on_c, 1, 81, 84
7, 58011, Note_on_c, 1, 77, 0
7, 58011, Note_on_c, 1, 81, 0
7, 58020, Note_on_c, 1, 77, 84
7, 58020, Note_on_c, 1, 81, 84
7, 58071, Note_on_c, 1, 77, 0
7, 58071, Note_on_c, 1, 81, 0
7, 58080, Note_on_c, 1, 76, 84
7, 58080, Note_on_c, 1, 79, 84
7, 58259, Note_on_c, 1, 76, 0
7, 58259, Note_on_c, 1, 79, 0
7, 58320, Note_on_c, 1, 81, 84
7, 58320, Note_on_c, 1, 77, 84
7, 58491, Note_on_c, 1, 81, 0
7, 58491, Note_on_c, 1, 77, 0
7, 58500, Note_on_c, 1, 81, 84
7, 58500, Note_on_c, 1, 77, 84
7, 58551, Note_on_c, 1, 81, 0
7, 58551, Note_on_c, 1, 77, 0
7, 58560, Note_on_c, 1, 76, 84
7, 58560, Note_on_c, 1, 79, 84
7, 58739, Note_on_c, 1, 76, 0
7, 58739, Note_on_c, 1, 79, 0
7, 60960, Note_on_c, 1, 79, 48
7, 61199, Note_on_c, 1, 79, 0
7, 61200, Note_on_c, 1, 77, 48
7, 61679, Note_on_c, 1, 77, 0
7, 61680, Note_on_c, 1, 76, 48
7, 61919, Note_on_c, 1, 76, 0
7, 61920, Note_on_c, 1, 74, 48
7, 62399, Note_on_c, 1, 74, 0
7, 62400, Note_on_c, 1, 72, 48
7, 62624, Note_on_c, 1, 72, 0
7, 62640, Note_on_c, 1, 72, 48
7, 63119, Note_on_c, 1, 72, 0
7, 63120, Note_on_c, 1, 81, 48
7, 63359, Note_on_c, 1, 81, 0
7, 63360, Note_on_c, 1, 79, 48
7, 63839, Note_on_c, 1, 79, 0
7, 63840, Note_on_c, 1, 77, 48
7, 64064, Note_on_c, 1, 77, 0
7, 64080, Note_on_c, 1, 76, 48
7, 64319, Note_on_c, 1, 76, 0
7, 64800, Note_on_c, 1, 77, 52
7, 64919, Note_on_c, 1, 77, 0
7, 64920, Note_on_c, 1, 76, 56
7, 65039, Note_on_c, 1, 76, 0
7, 65040, Note_on_c, 1, 77, 60
7, 65159, Note_on_c, 1, 77, 0
7, 65160, Note_on_c, 1, 76, 64
7, 65279, Note_on_c, 1, 76, 0
7, 65280, Note_on_c, 1, 74, 68
7, 65399, Note_on_c, 1, 74, 0
7, 65400, Note_on_c, 1, 72, 72
7, 65504, Note_on_c, 1, 72, 0
7, 65520, Note_on_c, 1, 72, 76
7, 65699, Note_on_c, 1, 72, 0
7, 65760, Note_on_c, 1, 76, 84
7, 66119, Note_on_c, 1, 76, 0
7, 66120, Note_on_c, 1, 72, 76
7, 66224, Note_on_c, 1, 72, 0
7, 66240, Note_on_c, 1, 71, 84
7, 66479, Note_on_c, 1, 71, 0
7, 66600, Note_on_c, 1, 71, 76
7, 66689, Note_on_c, 1, 71, 0
7, 66720, Note_on_c, 1, 79, 76
7, 66720, Note_on_c, 1, 72, 76
7, 66809, Note_on_c, 1, 79, 0
7, 66809, Note_on_c, 1, 72, 0
7, 66840, Note_on_c, 1, 74, 76
7, 66840, Note_on_c, 1, 77, 76
7, 66929, Note_on_c, 1, 74, 0
7, 66929, Note_on_c, 1, 77, 0
7, 66960, Note_on_c, 1, 76, 84
7, 67139, Note_on_c, 1, 76, 0
7, 67320, Note_on_c, 1, 76, 76
7, 67320, Note_on_c, 1, 79, 76
7, 67409, Note_on_c, 1, 76, 0
7, 67409, Note_on_c, 1, 79, 0
7, 67440, Note_on_c, 1, 76, 76
7, 67529, Note_on_c, 1, 76, 0
7, 67560, Note_on_c, 1, 72, 76
7, 67649, Note_on_c, 1, 72, 0
7, 67680, Note_on_c, 1, 71, 84
7, 67859, Note_on_c, 1, 71, 0
7, 68040, Note_on_c, 1, 71, 76
7, 68129, Note_on_c, 1, 71, 0
7, 68160, Note_on_c, 1, 72, 76
7, 68160, Note_on_c, 1, 79, 76
7, 68249, Note_on_c, 1, 72, 0
7, 68249, Note_on_c, 1, 79, 0
7, 68280, Note_on_c, 1, 77, 76
7, 68280, Note_on_c, 1, 74, 76
7, 68369, Note_on_c, 1, 77, 0
7, 68369, Note_on_c, 1, 74, 0
7, 68400, Note_on_c, 1, 76, 84
7, 68400, Note_on_c, 1, 84, 84
7, 71264, Note_on_c, 1, 76, 0
7, 71264, Note_on_c, 1, 84, 0
7, 71280, Note_on_c, 1, 84, 92
7, 71280, Note_on_c, 1, 72, 92
7, 71519, Note_on_c, 1, 84, 0
7, 71519, Note_on_c, 1, 72, 0
7, 72000, Note_on_c, 1, 84, 92
7, 72000, Note_on_c, 1, 72, 92
7, 72239, Note_on_c, 1, 84, 0
7, 72239, Note_on_c, 1, 72, 0
7, 72720, Note_on_c, 1, 72, 92
7, 72720, Note_on_c, 1, 84, 92
7, 72959, Note_on_c, 1, 72, 0
7, 72959, Note_on_c, 1, 84, 0
7, 73440, Note_on_c, 1, 84, 92
7, 73440, Note_on_c, 1, 72, 92
7, 73679, Note_on_c, 1, 84, 0
7, 73679, Note_on_c, 1, 72, 0
7, 73800, Note_on_c, 1, 79, 84
7, 73800, Note_on_c, 1, 82, 84
7, 73904, Note_on_c, 1, 79, 0
7, 73904, Note_on_c, 1, 82, 0
7, 73920, Note_on_c, 1, 79, 84
7, 73920, Note_on_c, 1, 82, 84
7, 74024, Note_on_c, 1, 79, 0
7, 74024, Note_on_c, 1, 82, 0
7, 74040, Note_on_c, 1, 79, 84
7, 74040, Note_on_c, 1, 82, 84
7, 74144, Note_on_c, 1, 79, 0
7, 74144, Note_on_c, 1, 82, 0
7, 74160, Note_on_c, 1, 77, 76
7, 74160, Note_on_c, 1, 81, 76
7, 75344, Note_on_c, 1, 77, 0
7, 75344, Note_on_c, 1, 81, 0
7, 75360, Note_on_c, 1, 72, 76
7, 75360, Note_on_c, 1, 81, 76
7, 75449, Note_on_c, 1, 72, 0
7, 75449, Note_on_c, 1, 81, 0
7, 75480, Note_on_c, 1, 81, 76
7, 75480, Note_on_c, 1, 77, 76
7, 75569, Note_on_c, 1, 81, 0
7, 75569, Note_on_c, 1, 77, 0
7, 75600, Note_on_c, 1, 77, 76
7, 75600, Note_on_c, 1, 82, 76
7, 75719, Note_on_c, 1, 77, 0
7, 75720, Note_on_c, 1, 76, 76
7, 75824, Note_on_c, 1, 82, 0
7, 75824, Note_on_c, 1, 76, 0
7, 75840, Note_on_c, 1, 76, 76
7, 75840, Note_on_c, 1, 82, 76
7, 75929, Note_on_c, 1, 76, 0
7, 75929, Note_on_c, 1, 82, 0
7, 75960, Note_on_c, 1, 77, 76
7, 76049, Note_on_c, 1, 77, 0
7, 76080, Note_on_c, 1, 79, 76
7, 76169, Note_on_c, 1, 79, 0
7, 76200, Note_on_c, 1, 77, 76
7, 76200, Note_on_c, 1, 81, 76
7, 76289, Note_on_c, 1, 77, 0
7, 76289, Note_on_c, 1, 81, 0
7, 76320, Note_on_c, 1, 82, 76
7, 76320, Note_on_c, 1, 79, 76
7, 76559, Note_on_c, 1, 82, 0
7, 76559, Note_on_c, 1, 79, 0
7, 77760, Note_on_c, 1, 76, 48
7, 78464, Note_on_c, 1, 76, 0
7, 78480, Note_on_c, 1, 77, 48
7, 78704, Note_on_c, 1, 77, 0
7, 78720, Note_on_c, 1, 77, 52
7, 78720, Note_on_c, 1, 72, 52
7, 78959, Note_on_c, 1, 77, 0
7, 78959, Note_on_c, 1, 72, 0
7, 78960, Note_on_c, 1, 79, 52
7, 78960, Note_on_c, 1, 76, 52
7, 79184, Note_on_c, 1, 79, 0
7, 79184, Note_on_c, 1, 76, 0
7, 79200, Note_on_c, 1, 79, 52
7, 79200, Note_on_c, 1, 76, 52
7, 79679, Note_on_c, 1, 79, 0
7, 79679, Note_on_c, 1, 76, 0
7, 79680, Note_on_c, 1, 77, 52
7, 79680, Note_on_c, 1, 81, 52
7, 79919, Note_on_c, 1, 77, 0
7, 79919, Note_on_c, 1, 81, 0
7, 80640, Note_on_c, 1, 82, 76
7, 80640, Note_on_c, 1, 79, 76
7, 81344, Note_on_c, 1, 82, 0
7, 81344, Note_on_c, 1, 79, 0
7, 81360, Note_on_c, 1, 81, 76
7, 81360, Note_on_c, 1, 77, 76
7, 81479, Note_on_c, 1, 81, 0
7, 81479, Note_on_c, 1, 77, 0
7, 81600, Note_on_c, 1, 77, 76
7, 81600, Note_on_c, 1, 81, 76
7, 81719, Note_on_c, 1, 77, 0
7, 81719, Note_on_c, 1, 81, 0
7, 81840, Note_on_c, 1, 79, 76
7, 81840, Note_on_c, 1, 82, 76
7, 81959, Note_on_c, 1, 79, 0
7, 81959, Note_on_c, 1, 82, 0
7, 82080, Note_on_c, 1, 81, 76
7, 82080, Note_on_c, 1, 77, 76
7, 82319, Note_on_c, 1, 81, 0
7, 82319, Note_on_c, 1, 77, 0
7, 83460, Note_on_c, 1, 81, 76
7, 83460, Note_on_c, 1, 77, 76
7, 83511, Note_on_c, 1, 81, 0
7, 83511, Note_on_c, 1, 77, 0
7, 83520, Note_on_c, 1, 77, 76
7, 83520, Note_on_c, 1, 82, 76
7, 83759, Note_on_c, 1, 77, 0
7, 83759, Note_on_c, 1, 82, 0
7, 84900, Note_on_c, 1, 82, 76
7, 84900, Note_on_c, 1, 77, 76
7, 84951, Note_on_c, 1, 82, 0
7, 84951, Note_on_c, 1, 77, 0
7, 84960, Note_on_c, 1, 79, 76
7, 84960, Note_on_c, 1, 77, 76
7, 85199, Note_on_c, 1, 79, 0
7, 85199, Note_on_c, 1, 77, 0
7, 86340, Note_on_c, 1, 77, 76
7, 86340, Note_on_c, 1, 79, 76
7, 86391, Note_on_c, 1, 77, 0
7, 86391, Note_on_c, 1, 79, 0
7, 86400, Note_on_c, 1, 76, 76
7, 86400, Note_on_c, 1, 79, 76
7, 86864, Note_on_c, 1, 76, 0
7, 86864, Note_on_c, 1, 79, 0
7, 86880, Note_on_c, 1, 79, 76
7, 86880, Note_on_c, 1, 76, 76
7, 86999, Note_on_c, 1, 79, 0
7, 86999, Note_on_c, 1, 76, 0
7, 87120, Note_on_c, 1, 76, 76
7, 87120, Note_on_c, 1, 79, 76
7, 87239, Note_on_c, 1, 76, 0
7, 87239, Note_on_c, 1, 79, 0
7, 87360, Note_on_c, 1, 79, 76
7, 87360, Note_on_c, 1, 82, 76
7, 87479, Note_on_c, 1, 79, 0
7, 87479, Note_on_c, 1, 82, 0
7, 87600, Note_on_c, 1, 76, 76
7, 87600, Note_on_c, 1, 79, 76
7, 87719, Note_on_c, 1, 76, 0
7, 87719, Note_on_c, 1, 79, 0
7, 87840, Note_on_c, 1, 81, 76
7, 87840, Note_on_c, 1, 77, 76
7, 89211, Note_on_c, 1, 81, 0
7, 89211, Note_on_c, 1, 77, 0
7, 89220, Note_on_c, 1, 77, 76
7, 89220, Note_on_c, 1, 81, 76
7, 89271, Note_on_c, 1, 77, 0
7, 89271, Note_on_c, 1, 81, 0
7, 89280, Note_on_c, 1, 82, 76
7, 89280, Note_on_c, 1, 77, 76
7, 90651, Note_on_c, 1, 82, 0
7, 90651, Note_on_c, 1, 77, 0
7, 90660, Note_on_c, 1, 82, 76
7, 90660, Note_on_c, 1, 77, 76
7, 90711, Note_on_c, 1, 82, 0
7, 90711, Note_on_c, 1, 77, 0
7, 90720, Note_on_c, 1, 74, 76
7, 90720, Note_on_c, 1, 82, 76
7, 92091, Note_on_c, 1, 74, 0
7, 92091, Note_on_c, 1, 82, 0
7, 92100, Note_on_c, 1, 74, 76
7, 92100, Note_on_c, 1, 82, 76
7, 92151, Note_on_c, 1, 74, 0
7, 92151, Note_on_c, 1, 82, 0
7, 92160, Note_on_c, 1, 82, 76
7, 92160, Note_on_c, 1, 74, 76
7, 93531, Note_on_c, 1, 82, 0
7, 93531, Note_on_c, 1, 74, 0
7, 93540, Note_on_c, 1, 74, 76
7, 93540, Note_on_c, 1, 82, 76
7, 93591, Note_on_c, 1, 74, 0
7, 93591, Note_on_c, 1, 82, 0
7, 93600, Note_on_c, 1, 74, 76
7, 93600, Note_on_c, 1, 82, 76
7, 94064, Note_on_c, 1, 74, 0
7, 94064, Note_on_c, 1, 82, 0
7, 94080, Note_on_c, 1, 82, 84
7, 94080, Note_on_c, 1, 74, 84
7, 94251, Note_on_c, 1, 82, 0
7, 94251, Note_on_c, 1, 74, 0
7, 94260, Note_on_c, 1, 82, 76
7, 94260, Note_on_c, 1, 74, 76
7, 94311, Note_on_c, 1, 82, 0
7, 94311, Note_on_c, 1, 74, 0
7, 94320, Note_on_c, 1, 82, 76
7, 94320, Note_on_c, 1, 74, 76
7, 94784, Note_on_c, 1, 82, 0
7, 94784, Note_on_c, 1, 74, 0
7, 94800, Note_on_c, 1, 82, 84
7, 94800, Note_on_c, 1, 74, 84
7, 94971, Note_on_c, 1, 82, 0
7, 94971, Note_on_c, 1, 74, 0
7, 94980, Note_on_c, 1, 82, 76
7, 94980, Note_on_c, 1, 74, 76
7, 95031, Note_on_c, 1, 82, 0
7, 95031, Note_on_c, 1, 74, 0
7, 95040, Note_on_c, 1, 82, 76
7, 95040, Note_on_c, 1, 74, 76
7, 95159, Note_on_c, 1, 82, 0
7, 95159, Note_on_c, 1, 74, 0
7, 95520, Note_on_c, 1, 74, 84
7, 95520, Note_on_c, 1, 82, 84
7, 95639, Note_on_c, 1, 74, 0
7, 95639, Note_on_c, 1, 82, 0
7, 95760, Note_on_c, 1, 74, 76
7, 95879, Note_on_c, 1, 74, 0
7, 96240, Note_on_c, 1, 74, 84
7, 96240, Note_on_c, 1, 82, 84
7, 96359, Note_on_c, 1, 74, 0
7, 96359, Note_on_c, 1, 82, 0
7, 96480, Note_on_c, 1, 74, 76
7, 96599, Note_on_c, 1, 74, 0
7, 106320, Note_on_c, 1, 67, 48
7, 106409, Note_on_c, 1, 67, 0
7, 106440, Note_on_c, 1, 67, 48
7, 106679, Note_on_c, 1, 67, 0
7, 106680, Note_on_c, 1, 69, 48
7, 106799, Note_on_c, 1, 69, 0
7, 106800, Note_on_c, 1, 71, 48
7, 106919, Note_on_c, 1, 71, 0
7, 106920, Note_on_c, 1, 72, 48
7, 107024, Note_on_c, 1, 72, 0
7, 107040, Note_on_c, 1, 67, 48
7, 107129, Note_on_c, 1, 67, 0
7, 107160, Note_on_c, 1, 67, 48
7, 107399, Note_on_c, 1, 67, 0
7, 107400, Note_on_c, 1, 71, 48
7, 107519, Note_on_c, 1, 71, 0
7, 107520, Note_on_c, 1, 72, 48
7, 107639, Note_on_c, 1, 72, 0
7, 107640, Note_on_c, 1, 74, 48
7, 107744, Note_on_c, 1, 74, 0
7, 107760, Note_on_c, 1, 67, 48
7, 107819, Note_on_c, 1, 67, 0
7, 107880, Note_on_c, 1, 67, 48
7, 108119, Note_on_c, 1, 67, 0
7, 108120, Note_on_c, 1, 72, 48
7, 108239, Note_on_c, 1, 72, 0
7, 108240, Note_on_c, 1, 74, 48
7, 108359, Note_on_c, 1, 74, 0
7, 108360, Note_on_c, 1, 76, 48
7, 108479, Note_on_c, 1, 76, 0
7, 108480, Note_on_c, 1, 77, 48
7, 108599, Note_on_c, 1, 77, 0
7, 108600, Note_on_c, 1, 76, 48
7, 108704, Note_on_c, 1, 76, 0
7, 108720, Note_on_c, 1, 74, 48
7, 108944, Note_on_c, 1, 74, 0
7, 108960, Note_on_c, 1, 79, 48
7, 109559, Note_on_c, 1, 79, 0
7, 109560, Note_on_c, 1, 78, 48
7, 109679, Note_on_c, 1, 78, 0
7, 109680, Note_on_c, 1, 74, 48
7, 109799, Note_on_c, 1, 74, 0
7, 109800, Note_on_c, 1, 76, 48
7, 109904, Note_on_c, 1, 76, 0
7, 109920, Note_on_c, 1, 77, 48
7, 110279, Note_on_c, 1, 77, 0
7, 110280, Note_on_c, 1, 76, 48
7, 110399, Note_on_c, 1, 76, 0
7, 110400, Note_on_c, 1, 72, 48
7, 110519, Note_on_c, 1, 72, 0
7, 110520, Note_on_c, 1, 74, 48
7, 110624, Note_on_c, 1, 74, 0
7, 110640, Note_on_c, 1, 75, 52
7, 110640, Note_on_c, 1, 72, 52
7, 110880, Control_c, 1, 11, 112
7, 113024, Note_on_c, 1, 75, 0
7, 113024, Note_on_c, 1, 72, 0
7, 113040, Note_on_c, 1, 75, 52
7, 113219, Note_on_c, 1, 75, 0
7, 113280, Control_c, 1, 11, 64
7, 113520, Note_on_c, 1, 72, 76
7, 113699, Note_on_c, 1, 72, 0
7, 113760, Note_on_c, 1, 75, 76
7, 113760, Note_on_c, 1, 72, 76
7, 115200, Control_c, 1, 11, 64
7, 115440, Control_c, 1, 11, 69
7, 115680, Control_c, 1, 11, 75
7, 115904, Note_on_c, 1, 75, 0
7, 115904, Note_on_c, 1, 72, 0
7, 115920, Note_on_c, 1, 72, 76
7, 115920, Note_on_c, 1, 75, 76
7, 115920, Control_c, 1, 11, 80
7, 116099, Note_on_c, 1, 72, 0
7, 116099, Note_on_c, 1, 75, 0
7, 116160, Control_c, 1, 11, 85
7, 116400, Control_c, 1, 11, 90
7, 116400, Note_on_c, 1, 72, 76
7, 116579, Note_on_c, 1, 72, 0
7, 116640, Note_on_c, 1, 74, 76
7, 116640, Note_on_c, 1, 77, 76
7, 116640, Control_c, 1, 11, 96
7, 116880, Control_c, 1, 11, 101
7, 117120, Control_c, 1, 11, 106
7, 117344, Note_on_c, 1, 74, 0
7, 117344, Note_on_c, 1, 77, 0
7, 117360, Note_on_c, 1, 77, 76
7, 117360, Note_on_c, 1, 74, 76
7, 117360, Control_c, 1, 11, 111
7, 117539, Note_on_c, 1, 77, 0
7, 117539, Note_on_c, 1, 74, 0
7, 117600, Control_c, 1, 11, 117
7, 117840, Control_c, 1, 11, 127
7, 117840, Note_on_c, 1, 74, 76
7, 118019, Note_on_c, 1, 74, 0
7, 118080, Note_on_c, 1, 76, 84
7, 118080, Note_on_c, 1, 79, 84
7, 118259, Note_on_c, 1, 76, 0
7, 118259, Note_on_c, 1, 79, 0
7, 118800, Note_on_c, 1, 77, 84
7, 118800, Note_on_c, 1, 80, 84
7, 118979, Note_on_c, 1, 77, 0
7, 118979, Note_on_c, 1, 80, 0
7, 119520, Note_on_c, 1, 78, 84
7, 119520, Note_on_c, 1, 81, 84
7, 119699, Note_on_c, 1, 78, 0
7, 119699, Note_on_c, 1, 81, 0
7, 120240, Note_on_c, 1, 83, 84
7, 120240, Note_on_c, 1, 79, 84
7, 120419, Note_on_c, 1, 83, 0
7, 120419, Note_on_c, 1, 79, 0
7, 120720, Note_on_c, 1, 83, 76
7, 120720, Note_on_c, 1, 79, 76
7, 120899, Note_on_c, 1, 83, 0
7, 120899, Note_on_c, 1, 79, 0
7, 120960, Note_on_c, 1, 79, 84
7, 120960, Note_on_c, 1, 83, 84
7, 121139, Note_on_c, 1, 79, 0
7, 121139, Note_on_c, 1, 83, 0
7, 121440, Note_on_c, 1, 79, 84
7, 121440, Note_on_c, 1, 83, 84
7, 121619, Note_on_c, 1, 79, 0
7, 121619, Note_on_c, 1, 83, 0
7, 121680, Note_on_c, 1, 84, 84
7, 121680, Note_on_c, 1, 79, 84
7, 121859, Note_on_c, 1, 84, 0
7, 121859, Note_on_c, 1, 79, 0
7, 122160, Note_on_c, 1, 81, 84
7, 122339, Note_on_c, 1, 81, 0
7, 122400, Note_on_c, 1, 77, 84
7, 122579, Note_on_c, 1, 77, 0
7, 122880, Note_on_c, 1, 74, 84
7, 123059, Note_on_c, 1, 74, 0
7, 123120, Note_on_c, 1, 79, 84
7, 123299, Note_on_c, 1, 79, 0
7, 123600, Note_on_c, 1, 67, 84
7, 123779, Note_on_c, 1, 67, 0
7, 123840, Note_on_c, 1, 72, 84
7, 123840, Note_on_c, 1, 76, 84
7, 124011, Note_on_c, 1, 72, 0
7, 124011, Note_on_c, 1, 76, 0
7, 124020, Note_on_c, 1, 72, 84
7, 124020, Note_on_c, 1, 76, 84
7, 124071, Note_on_c, 1, 72, 0
7, 124071, Note_on_c, 1, 76, 0
7, 124080, Note_on_c, 1, 74, 84
7, 124080, Note_on_c, 1, 71, 84
7, 124259, Note_on_c, 1, 74, 0
7, 124259, Note_on_c, 1, 71, 0
7, 124320, Note_on_c, 1, 77, 84
7, 124320, Note_on_c, 1, 74, 84
7, 124491, Note_on_c, 1, 77, 0
7, 124491, Note_on_c, 1, 74, 0
7, 124500, Note_on_c, 1, 74, 84
7, 124500, Note_on_c, 1, 77, 84
7, 124551, Note_on_c, 1, 74, 0
7, 124551, Note_on_c, 1, 77, 0
7, 124560, Note_on_c, 1, 76, 84
7, 124560, Note_on_c, 1, 72, 84
7, 124739, Note_on_c, 1, 76, 0
7, 124739, Note_on_c, 1, 72, 0
7, 124800, Note_on_c, 1, 81, 84
7, 124800, Note_on_c, 1, 77, 84
7, 124971, Note_on_c, 1, 81, 0
7, 124971, Note_on_c, 1, 77, 0
7, 124980, Note_on_c, 1, 77, 84
7, 124980, Note_on_c, 1, 81, 84
7, 125031, Note_on_c, 1, 77, 0
7, 125031, Note_on_c, 1, 81, 0
7, 125040, Note_on_c, 1, 76, 84
7, 125040, Note_on_c, 1, 79, 84
7, 125219, Note_on_c, 1, 76, 0
7, 125219, Note_on_c, 1, 79, 0
7, 125280, Note_on_c, 1, 77, 84
7, 125280, Note_on_c, 1, 81, 84
7, 125451, Note_on_c, 1, 77, 0
7, 125451, Note_on_c, 1, 81, 0
7, 125460, Note_on_c, 1, 81, 84
7, 125460, Note_on_c, 1, 77, 84
7, 125511, Note_on_c, 1, 81, 0
7, 125511, Note_on_c, 1, 77, 0
7, 125520, Note_on_c, 1, 79, 84
7, 125520, Note_on_c, 1, 76, 84
7, 125699, Note_on_c, 1, 79, 0
7, 125699, Note_on_c, 1, 76, 0
7, 125760, Note_on_c, 1, 79, 48
7, 125999, Note_on_c, 1, 79, 0
7, 126000, Note_on_c, 1, 78, 48
7, 126479, Note_on_c, 1, 78, 0
7, 126480, Note_on_c, 1, 79, 48
7, 126719, Note_on_c, 1, 79, 0
7, 126720, Note_on_c, 1, 77, 48
7, 127199, Note_on_c, 1, 77, 0
7, 127200, Note_on_c, 1, 76, 48
7, 127439, Note_on_c, 1, 76, 0
7, 127440, Note_on_c, 1, 74, 48
7, 127919, Note_on_c, 1, 74, 0
7, 127920, Note_on_c, 1, 72, 48
7, 128159, Note_on_c, 1, 72, 0
7, 128160, Note_on_c, 1, 71, 48
7, 128639, Note_on_c, 1, 71, 0
7, 128640, Note_on_c, 1, 72, 48
7, 128879, Note_on_c, 1, 72, 0
7, 128880, Note_on_c, 1, 74, 48
7, 129359, Note_on_c, 1, 74, 0
7, 129360, Note_on_c, 1, 76, 48
7, 129599, Note_on_c, 1, 76, 0
7, 129600, Note_on_c, 1, 77, 48
7, 130079, Note_on_c, 1, 77, 0
7, 130080, Note_on_c, 1, 81, 48
7, 130319, Note_on_c, 1, 81, 0
7, 130320, Note_on_c, 1, 79, 48
7, 130799, Note_on_c, 1, 79, 0
7, 130800, Note_on_c, 1, 77, 48
7, 131024, Note_on_c, 1, 77, 0
7, 131040, Note_on_c, 1, 76, 84
7, 131040, Note_on_c, 1, 72, 84
7, 131211, Note_on_c, 1, 76, 0
7, 131211, Note_on_c, 1, 72, 0
7, 131220, Note_on_c, 1, 72, 84
7, 131220, Note_on_c, 1, 76, 84
7, 131271, Note_on_c, 1, 72, 0
7, 131271, Note_on_c, 1, 76, 0
7, 131280, Note_on_c, 1, 71, 84
7, 131280, Note_on_c, 1, 74, 84
7, 131459, Note_on_c, 1, 71, 0
7, 131459, Note_on_c, 1, 74, 0
7, 131520, Note_on_c, 1, 74, 84
7, 131520, Note_on_c, 1, 77, 84
7, 131691, Note_on_c, 1, 74, 0
7, 131691, Note_on_c, 1, 77, 0
7, 131700, Note_on_c, 1, 74, 84
7, 131700, Note_on_c, 1, 77, 84
7, 131751, Note_on_c, 1, 74, 0
7, 131751, Note_on_c, 1, 77, 0
7, 131760, Note_on_c, 1, 76, 84
7, 131760, Note_on_c, 1, 72, 84
7, 131939, Note_on_c, 1, 76, 0
7, 131939, Note_on_c, 1, 72, 0
7, 132000, Note_on_c, 1, 81, 84
7, 132000, Note_on_c, 1, 77, 84
7, 132171, Note_on_c, 1, 81, 0
7, 132171, Note_on_c, 1, 77, 0
7, 132180, Note_on_c, 1, 77, 84
7, 132180, Note_on_c, 1, 81, 84
7, 132231, Note_on_c, 1, 77, 0
7, 132231, Note_on_c, 1, 81, 0
7, 132240, Note_on_c, 1, 76, 84
7, 132240, Note_on_c, 1, 79, 84
7, 132419, Note_on_c, 1, 76, 0
7, 132419, Note_on_c, 1, 79, 0
7, 132480, Note_on_c, 1, 77, 84
7, 132480, Note_on_c, 1, 81, 84
7, 132651, Note_on_c, 1, 77, 0
7, 132651, Note_on_c, 1, 81, 0
7, 132660, Note_on_c, 1, 77, 84
7, 132660, Note_on_c, 1, 81, 84
7, 132711, Note_on_c, 1, 77, 0
7, 132711, Note_on_c, 1, 81, 0
7, 132720, Note_on_c, 1, 79, 84
7, 132720, Note_on_c, 1, 76, 84
7, 132899, Note_on_c, 1, 79, 0
7, 132899, Note_on_c, 1, 76, 0
7, 135120, Note_on_c, 1, 79, 48
7, 135359, Note_on_c, 1, 79, 0
7, 135360, Note_on_c, 1, 77, 48
7, 135839, Note_on_c, 1, 77, 0
7, 135840, Note_on_c, 1, 76, 48
7, 136079, Note_on_c, 1, 76, 0
7, 136080, Note_on_c, 1, 74, 48
7, 136559, Note_on_c, 1, 74, 0
7, 136560, Note_on_c, 1, 72, 48
7, 136784, Note_on_c, 1, 72, 0
7, 136800, Note_on_c, 1, 72, 48
7, 137279, Note_on_c, 1, 72, 0
7, 137280, Note_on_c, 1, 81, 48
7, 137519, Note_on_c, 1, 81, 0
7, 137520, Note_on_c, 1, 79, 48
7, 137999, Note_on_c, 1, 79, 0
7, 138000, Note_on_c, 1, 77, 48
7, 138224, Note_on_c, 1, 77, 0
7, 138240, Note_on_c, 1, 76, 48
7, 138479, Note_on_c, 1, 76, 0
7, 138960, Note_on_c, 1, 77, 52
7, 139079, Note_on_c, 1, 77, 0
7, 139080, Note_on_c, 1, 76, 56
7, 139199, Note_on_c, 1, 76, 0
7, 139200, Note_on_c, 1, 77, 60
7, 139319, Note_on_c, 1, 77, 0
7, 139320, Note_on_c, 1, 76, 64
7, 139439, Note_on_c, 1, 76, 0
7, 139440, Note_on_c, 1, 74, 68
7, 139559, Note_on_c, 1, 74, 0
7, 139560, Note_on_c, 1, 72, 72
7, 139664, Note_on_c, 1, 72, 0
7, 139680, Note_on_c, 1, 72, 76
7, 139859, Note_on_c, 1, 72, 0
7, 139920, Note_on_c, 1, 76, 84
7, 140279, Note_on_c, 1, 76, 0
7, 140280, Note_on_c, 1, 72, 76
7, 140384, Note_on_c, 1, 72, 0
7, 140400, Note_on_c, 1, 71, 84
7, 140639, Note_on_c, 1, 71, 0
7, 140760, Note_on_c, 1, 71, 76
7, 140849, Note_on_c, 1, 71, 0
7, 140880, Note_on_c, 1, 79, 76
7, 140880, Note_on_c, 1, 72, 76
7, 140969, Note_on_c, 1, 79, 0
7, 140969, Note_on_c, 1, 72, 0
7, 141000, Note_on_c, 1, 74, 76
7, 141000, Note_on_c, 1, 77, 76
7, 141089, Note_on_c, 1, 74, 0
7, 141089, Note_on_c, 1, 77, 0
7, 141120, Note_on_c, 1, 76, 84
7, 141299, Note_on_c, 1, 76, 0
7, 141480, Note_on_c, 1, 79, 76
7, 141480, Note_on_c, 1, 76, 76
7, 141569, Note_on_c, 1, 79, 0
7, 141569, Note_on_c, 1, 76, 0
7, 141600, Note_on_c, 1, 76, 76
7, 141689, Note_on_c, 1, 76, 0
7, 141720, Note_on_c, 1, 72, 76
7, 141809, Note_on_c, 1, 72, 0
7, 141840, Note_on_c, 1, 71, 84
7, 142019, Note_on_c, 1, 71, 0
7, 142200, Note_on_c, 1, 71, 76
7, 142289, Note_on_c, 1, 71, 0
7, 142320, Note_on_c, 1, 72, 76
7, 142320, Note_on_c, 1, 79, 76
7, 142409, Note_on_c, 1, 72, 0
7, 142409, Note_on_c, 1, 79, 0
7, 142440, Note_on_c, 1, 77, 76
7, 142440, Note_on_c, 1, 74, 76
7, 142529, Note_on_c, 1, 77, 0
7, 142529, Note_on_c, 1, 74, 0
7, 142560, Note_on_c, 1, 76, 84
7, 142560, Note_on_c, 1, 84, 84
7, 145424, Note_on_c, 1, 76, 0
7, 145424, Note_on_c, 1, 84, 0
7, 145440, Note_on_c, 1, 72, 92
7, 145440, Note_on_c, 1, 84, 92
7, 145679, Note_on_c, 1, 72, 0
7, 145679, Note_on_c, 1, 84, 0
7, 146160, Note_on_c, 1, 84, 92
7, 146160, Note_on_c, 1, 72, 92
7, 146399, Note_on_c, 1, 84, 0
7, 146399, Note_on_c, 1, 72, 0
7, 146880, Note_on_c, 1, 72, 92
7, 146880, Note_on_c, 1, 84, 92
7, 147119, Note_on_c, 1, 72, 0
7, 147119, Note_on_c, 1, 84, 0
7, 147600, Note_on_c, 1, 84, 92
7, 147600, Note_on_c, 1, 72, 92
7, 147839, Note_on_c, 1, 84, 0
7, 147839, Note_on_c, 1, 72, 0
7, 147960, Note_on_c, 1, 72, 84
7, 147960, Note_on_c, 1, 84, 84
7, 148064, Note_on_c, 1, 72, 0
7, 148064, Note_on_c, 1, 84, 0
7, 148080, Note_on_c, 1, 84, 84
7, 148080, Note_on_c, 1, 72, 84
7, 148184, Note_on_c, 1, 84, 0
7, 148184, Note_on_c, 1, 72, 0
7, 148200, Note_on_c, 1, 84, 84
7, 148200, Note_on_c, 1, 72, 84
7, 148304, Note_on_c, 1, 84, 0
7, 148304, Note_on_c, 1, 72, 0
7, 148320, Note_on_c, 1, 72, 84
7, 148320, Note_on_c, 1, 84, 84
7, 148559, Note_on_c, 1, 72, 0
7, 148559, Note_on_c, 1, 84, 0
7, 152640, Note_on_c, 1, 77, 48
7, 152879, Note_on_c, 1, 77, 0
7, 152880, Note_on_c, 1, 74, 48
7, 152999, Note_on_c, 1, 74, 0
7, 153000, Note_on_c, 1, 76, 48
7, 153104, Note_on_c, 1, 76, 0
7, 153120, Note_on_c, 1, 77, 48
7, 153209, Note_on_c, 1, 77, 0
7, 153240, Note_on_c, 1, 74, 48
7, 153329, Note_on_c, 1, 74, 0
7, 153360, Note_on_c, 1, 71, 48
7, 153599, Note_on_c, 1, 71, 0
7, 154080, Note_on_c, 1, 84, 84
7, 154080, Note_on_c, 1, 76, 84
7, 156944, Note_on_c, 1, 84, 0
7, 156944, Note_on_c, 1, 76, 0
7, 156960, Note_on_c, 1, 84, 84
7, 156960, Note_on_c, 1, 72, 84
7, 157139, Note_on_c, 1, 84, 0
7, 157139, Note_on_c, 1, 72, 0
7, 161280, Note_on_c, 1, 75, 48
7, 161519, Note_on_c, 1, 75, 0
7, 161520, Note_on_c, 1, 72, 48
7, 161639, Note_on_c, 1, 72, 0
7, 161640, Note_on_c, 1, 74, 48
7, 161744, Note_on_c, 1, 74, 0
7, 161760, Note_on_c, 1, 75, 48
7, 161849, Note_on_c, 1, 75, 0
7, 161880, Note_on_c, 1, 72, 48
7, 161969, Note_on_c, 1, 72, 0
7, 162000, Note_on_c, 1, 69, 48
7, 162239, Note_on_c, 1, 69, 0
7, 162720, Note_on_c, 1, 86, 84
7, 162720, Note_on_c, 1, 74, 84
7, 165584, Note_on_c, 1, 86, 0
7, 165584, Note_on_c, 1, 74, 0
7, 165600, Note_on_c, 1, 82, 84
7, 165600, Note_on_c, 1, 70, 84
7, 165779, Note_on_c, 1, 82, 0
7, 165779, Note_on_c, 1, 70, 0
7, 169920, Note_on_c, 1, 79, 48
7, 170159, Note_on_c, 1, 79, 0
7, 170160, Note_on_c, 1, 76, 48
7, 170279, Note_on_c, 1, 76, 0
7, 170280, Note_on_c, 1, 77, 48
7, 170384, Note_on_c, 1, 77, 0
7, 170400, Note_on_c, 1, 79, 48
7, 170489, Note_on_c, 1, 79, 0
7, 170520, Note_on_c, 1, 76, 48
7, 170609, Note_on_c, 1, 76, 0
7, 170640, Note_on_c, 1, 77, 48
7, 170879, Note_on_c, 1, 77, 0
7, 171360, Note_on_c, 1, 81, 84
7, 171360, Note_on_c, 1, 69, 84
7, 174224, Note_on_c, 1, 81, 0
7, 174224, Note_on_c, 1, 69, 0
7, 174240, Note_on_c, 1, 81, 84
7, 174240, Note_on_c, 1, 69, 84
7, 174479, Note_on_c, 1, 81, 0
7, 174479, Note_on_c, 1, 69, 0
7, 174960, Note_on_c, 1, 81, 92
7, 174960, Note_on_c, 1, 69, 92
7, 175199, Note_on_c, 1, 81, 0
7, 175199, Note_on_c, 1, 69, 0
7, 175320, Note_on_c, 1, 69, 84
7, 175320, Note_on_c, 1, 81, 84
7, 175424, Note_on_c, 1, 69, 0
7, 175424, Note_on_c, 1, 81, 0
7, 175440, Note_on_c, 1, 69, 84
7, 175440, Note_on_c, 1, 81, 84
7, 175544, Note_on_c, 1, 69, 0
7, 175544, Note_on_c, 1, 81, 0
7, 175560, Note_on_c, 1, 69, 84
7, 175560, Note_on_c, 1, 81, 84
7, 175664, Note_on_c, 1, 69, 0
7, 175664, Note_on_c, 1, 81, 0
7, 175680, Note_on_c, 1, 69, 84
7, 175680, Note_on_c, 1, 81, 84
7, 175919, Note_on_c, 1, 69, 0
7, 175919, Note_on_c, 1, 81, 0
7, 176400, Note_on_c, 1, 81, 92
7, 176400, Note_on_c, 1, 69, 92
7, 176639, Note_on_c, 1, 81, 0
7, 176639, Note_on_c, 1, 69, 0
7, 176760, Note_on_c, 1, 69, 84
7, 176760, Note_on_c, 1, 81, 84
7, 176864, Note_on_c, 1, 69, 0
7, 176864, Note_on_c, 1, 81, 0
7, 176880, Note_on_c, 1, 81, 84
7, 176880, Note_on_c, 1, 69, 84
7, 176984, Note_on_c, 1, 81, 0
7, 176984, Note_on_c, 1, 69, 0
7, 177000, Note_on_c, 1, 81, 84
7, 177000, Note_on_c, 1, 69, 84
7, 177104, Note_on_c, 1, 81, 0
7, 177104, Note_on_c, 1, 69, 0
7, 177120, Note_on_c, 1, 69, 84
7, 177120, Note_on_c, 1, 81, 84
7, 177359, Note_on_c, 1, 69, 0
7, 177359, Note_on_c, 1, 81, 0
7, 178080, Note_on_c, 1, 77, 92
7, 178080, Note_on_c, 1, 81, 92
7, 178559, Note_on_c, 1, 77, 0
7, 178559, Note_on_c, 1, 81, 0
7, 179520, Note_on_c, 1, 82, 92
7, 179520, Note_on_c, 1, 79, 92
7, 179999, Note_on_c, 1, 82, 0
7, 179999, Note_on_c, 1, 79, 0
7, 180240, Note_on_c, 1, 76, 92
7, 180719, Note_on_c, 1, 76, 0
7, 180720, Note_on_c, 1, 77, 84
7, 180839, Note_on_c, 1, 77, 0
7, 180960, Note_on_c, 1, 73, 92
7, 181439, Note_on_c, 1, 73, 0
7, 181440, Note_on_c, 1, 74, 84
7, 181559, Note_on_c, 1, 74, 0
7, 181680, Note_on_c, 1, 76, 92
7, 182159, Note_on_c, 1, 76, 0
7, 182160, Note_on_c, 1, 77, 84
7, 182279, Note_on_c, 1, 77, 0
7, 182400, Note_on_c, 1, 78, 92
7, 182879, Note_on_c, 1, 78, 0
7, 182880, Note_on_c, 1, 79, 84
7, 183119, Note_on_c, 1, 79, 0
7, 183600, Note_on_c, 1, 74, 84
7, 183839, Note_on_c, 1, 74, 0
7, 183840, Note_on_c, 1, 71, 84
7, 183959, Note_on_c, 1, 71, 0
7, 183960, Note_on_c, 1, 72, 84
7, 184064, Note_on_c, 1, 72, 0
7, 184080, Note_on_c, 1, 74, 84
7, 184169, Note_on_c, 1, 74, 0
7, 184200, Note_on_c, 1, 71, 84
7, 184289, Note_on_c, 1, 71, 0
7, 185040, Note_on_c, 1, 75, 84
7, 185279, Note_on_c, 1, 75, 0
7, 185280, Note_on_c, 1, 72, 84
7, 185399, Note_on_c, 1, 72, 0
7, 185400, Note_on_c, 1, 74, 84
7, 185504, Note_on_c, 1, 74, 0
7, 185520, Note_on_c, 1, 75, 84
7, 185609, Note_on_c, 1, 75, 0
7, 185640, Note_on_c, 1, 72, 84
7, 185729, Note_on_c, 1, 72, 0
7, 187440, Note_on_c, 1, 79, 92
7, 187559, Note_on_c, 1, 79, 0
7, 187560, Note_on_c, 1, 80, 84
7, 187664, Note_on_c, 1, 80, 0
7, 187680, Note_on_c, 1, 82, 84
7, 187769, Note_on_c, 1, 82, 0
7, 187800, Note_on_c, 1, 79, 84
7, 187889, Note_on_c, 1, 79, 0
7, 187920, Note_on_c, 1, 80, 84
7, 188099, Note_on_c, 1, 80, 0
7, 188400, Note_on_c, 1, 84, 84
7, 188879, Note_on_c, 1, 84, 0
7, 188880, Note_on_c, 1, 80, 84
7, 188999, Note_on_c, 1, 80, 0
7, 189000, Note_on_c, 1, 82, 84
7, 189104, Note_on_c, 1, 82, 0
7, 189120, Note_on_c, 1, 84, 84
7, 189209, Note_on_c, 1, 84, 0
7, 189240, Note_on_c, 1, 80, 84
7, 189329, Note_on_c, 1, 80, 0
7, 189360, Note_on_c, 1, 77, 84
7, 189539, Note_on_c, 1, 77, 0
7, 189600, Note_on_c, 1, 77, 92
7, 189600, Note_on_c, 1, 80, 92
7, 190049, Note_on_c, 1, 77, 0
7, 190049, Note_on_c, 1, 80, 0
7, 190080, Note_on_c, 1, 73, 84
7, 190319, Note_on_c, 1, 73, 0
7, 190320, Note_on_c, 1, 82, 84
7, 190439, Note_on_c, 1, 82, 0
7, 190440, Note_on_c, 1, 84, 84
7, 190544, Note_on_c, 1, 84, 0
7, 190560, Note_on_c, 1, 85, 84
7, 190649, Note_on_c, 1, 85, 0
7, 190680, Note_on_c, 1, 82, 84
7, 190769, Note_on_c, 1, 82, 0
7, 190800, Note_on_c, 1, 77, 84
7, 190979, Note_on_c, 1, 77, 0
7, 191040, Note_on_c, 1, 77, 92
7, 191040, Note_on_c, 1, 82, 92
7, 191519, Note_on_c, 1, 77, 0
7, 191519, Note_on_c, 1, 82, 0
7, 191760, Note_on_c, 1, 79, 92
7, 191760, Note_on_c, 1, 82, 92
7, 192209, Note_on_c, 1, 79, 0
7, 192209, Note_on_c, 1, 82, 0
7, 192240, Note_on_c, 1, 82, 84
7, 192240, Note_on_c, 1, 79, 84
7, 192419, Note_on_c, 1, 82, 0
7, 192419, Note_on_c, 1, 79, 0
7, 192480, Note_on_c, 1, 82, 92
7, 192480, Note_on_c, 1, 79, 92
7, 192929, Note_on_c, 1, 82, 0
7, 192929, Note_on_c, 1, 79, 0
7, 192960, Note_on_c, 1, 77, 84
7, 192960, Note_on_c, 1, 80, 84
7, 193139, Note_on_c, 1, 77, 0
7, 193139, Note_on_c, 1, 80, 0
7, 193200, Note_on_c, 1, 68, 92
7, 193200, Note_on_c, 1, 80, 92
7, 193649, Note_on_c, 1, 68, 0
7, 193649, Note_on_c, 1, 80, 0
7, 193680, Note_on_c, 1, 68, 84
7, 193680, Note_on_c, 1, 80, 84
7, 193859, Note_on_c, 1, 68, 0
7, 193859, Note_on_c, 1, 80, 0
7, 193920, Note_on_c, 1, 80, 92
7, 193920, Note_on_c, 1, 68, 92
7, 194369, Note_on_c, 1, 80, 0
7, 194369, Note_on_c, 1, 68, 0
7, 194400, Note_on_c, 1, 80, 84
7, 194400, Note_on_c, 1, 68, 84
7, 194489, Note_on_c, 1, 80, 0
7, 194489, Note_on_c, 1, 68, 0
7, 194640, Note_on_c, 1, 68, 92
7, 194640, Note_on_c, 1, 80, 92
7, 195119, Note_on_c, 1, 68, 0
7, 195119, Note_on_c, 1, 80, 0
7, 195360, Note_on_c, 1, 68, 92
7, 195360, Note_on_c, 1, 80, 92
7, 195839, Note_on_c, 1, 68, 0
7, 195839, Note_on_c, 1, 80, 0
7, 196080, Note_on_c, 1, 68, 92
7, 196080, Note_on_c, 1, 80, 92
7, 196559, Note_on_c, 1, 68, 0
7, 196559, Note_on_c, 1, 80, 0
7, 196800, Note_on_c, 1, 68, 92
7, 196800, Note_on_c, 1, 80, 92
7, 197249, Note_on_c, 1, 68, 0
7, 197249, Note_on_c, 1, 80, 0
7, 197280, Note_on_c, 1, 82, 84
7, 197280, Note_on_c, 1, 70, 84
7, 197399, Note_on_c, 1, 82, 0
7, 197399, Note_on_c, 1, 70, 0
7, 197520, Note_on_c, 1, 82, 92
7, 197520, Note_on_c, 1, 70, 92
7, 197999, Note_on_c, 1, 82, 0
7, 197999, Note_on_c, 1, 70, 0
7, 198240, Note_on_c, 1, 82, 92
7, 198240, Note_on_c, 1, 70, 92
7, 198719, Note_on_c, 1, 82, 0
7, 198719, Note_on_c, 1, 70, 0
7, 198960, Note_on_c, 1, 82, 92
7, 198960, Note_on_c, 1, 70, 92
7, 199439, Note_on_c, 1, 82, 0
7, 199439, Note_on_c, 1, 70, 0
7, 199680, Note_on_c, 1, 82, 92
7, 199680, Note_on_c, 1, 70, 92
7, 200129, Note_on_c, 1, 82, 0
7, 200129, Note_on_c, 1, 70, 0
7, 200160, Note_on_c, 1, 83, 84
7, 200160, Note_on_c, 1, 71, 84
7, 200279, Note_on_c, 1, 83, 0
7, 200279, Note_on_c, 1, 71, 0
7, 200400, Note_on_c, 1, 80, 92
7, 200400, Note_on_c, 1, 77, 92
7, 200879, Note_on_c, 1, 80, 0
7, 200879, Note_on_c, 1, 77, 0
7, 201120, Note_on_c, 1, 80, 92
7, 201120, Note_on_c, 1, 77, 92
7, 201599, Note_on_c, 1, 80, 0
7, 201599, Note_on_c, 1, 77, 0
7, 201840, Note_on_c, 1, 80, 92
7, 201840, Note_on_c, 1, 77, 92
7, 202319, Note_on_c, 1, 80, 0
7, 202319, Note_on_c, 1, 77, 0
7, 202560, Note_on_c, 1, 77, 92
7, 202560, Note_on_c, 1, 80, 92
7, 203009, Note_on_c, 1, 77, 0
7, 203009, Note_on_c, 1, 80, 0
7, 203040, Note_on_c, 1, 77, 84
7, 203040, Note_on_c, 1, 80, 84
7, 203159, Note_on_c, 1, 77, 0
7, 203159, Note_on_c, 1, 80, 0
7, 203280, Note_on_c, 1, 77, 92
7, 203280, Note_on_c, 1, 80, 92
7, 204449, Note_on_c, 1, 77, 0
7, 204449, Note_on_c, 1, 80, 0
7, 204480, Note_on_c, 1, 80, 84
7, 204480, Note_on_c, 1, 77, 84
7, 204599, Note_on_c, 1, 80, 0
7, 204599, Note_on_c, 1, 77, 0
7, 204720, Note_on_c, 1, 80, 92
7, 204720, Note_on_c, 1, 77, 92
7, 205889, Note_on_c, 1, 80, 0
7, 205889, Note_on_c, 1, 77, 0
7, 205920, Note_on_c, 1, 77, 92
7, 205920, Note_on_c, 1, 80, 92
7, 206009, Note_on_c, 1, 77, 0
7, 206009, Note_on_c, 1, 80, 0
7, 206160, Note_on_c, 1, 77, 84
7, 206160, Note_on_c, 1, 80, 84
7, 206249, Note_on_c, 1, 77, 0
7, 206249, Note_on_c, 1, 80, 0
7, 206640, Note_on_c, 1, 78, 92
7, 206640, Note_on_c, 1, 81, 92
7, 206729, Note_on_c, 1, 78, 0
7, 206729, Note_on_c, 1, 81, 0
7, 206880, Note_on_c, 1, 81, 84
7, 206880, Note_on_c, 1, 78, 84
7, 206969, Note_on_c, 1, 81, 0
7, 206969, Note_on_c, 1, 78, 0
7, 207360, Note_on_c, 1, 82, 92
7, 207360, Note_on_c, 1, 79, 92
7, 207449, Note_on_c, 1, 82, 0
7, 207449, Note_on_c, 1, 79, 0
7, 207600, Note_on_c, 1, 79, 84
7, 207600, Note_on_c, 1, 82, 84
7, 207689, Note_on_c, 1, 79, 0
7, 207689, Note_on_c, 1, 82, 0
7, 208080, Note_on_c, 1, 82, 92
7, 208080, Note_on_c, 1, 79, 92
7, 208169, Note_on_c, 1, 82, 0
7, 208169, Note_on_c, 1, 79, 0
7, 208320, Note_on_c, 1, 82, 84
7, 208320, Note_on_c, 1, 79, 84
7, 208409, Note_on_c, 1, 82, 0
7, 208409, Note_on_c, 1, 79, 0
7, 208800, Note_on_c, 1, 82, 88
7, 208800, Note_on_c, 1, 79, 88
7, 208889, Note_on_c, 1, 82, 0
7, 208889, Note_on_c, 1, 79, 0
7, 209040, Note_on_c, 1, 82, 88
7, 209040, Note_on_c, 1, 79, 88
7, 210119, Note_on_c, 1, 82, 0
7, 210119, Note_on_c, 1, 79, 0
7, 210120, Note_on_c, 1, 81, 88
7, 210120, Note_on_c, 1, 77, 88
7, 210224, Note_on_c, 1, 81, 0
7, 210224, Note_on_c, 1, 77, 0
7, 210240, Note_on_c, 1, 84, 92
7, 210240, Note_on_c, 1, 81, 92
7, 211424, Note_on_c, 1, 84, 0
7, 211424, Note_on_c, 1, 81, 0
7, 211440, Note_on_c, 1, 84, 92
7, 211440, Note_on_c, 1, 81, 92
7, 211664, Note_on_c, 1, 84, 0
7, 211664, Note_on_c, 1, 81, 0
7, 211680, Note_on_c, 1, 82, 92
7, 211680, Note_on_c, 1, 79, 92
7, 212144, Note_on_c, 1, 82, 0
7, 212144, Note_on_c, 1, 79, 0
7, 212160, Note_on_c, 1, 77, 92
7, 212160, Note_on_c, 1, 81, 92
7, 212384, Note_on_c, 1, 77, 0
7, 212384, Note_on_c, 1, 81, 0
7, 212400, Note_on_c, 1, 76, 92
7, 212400, Note_on_c, 1, 79, 92
7, 213104, Note_on_c, 1, 76, 0
7, 213104, Note_on_c, 1, 79, 0
7, 213120, Note_on_c, 1, 84, 92
7, 213120, Note_on_c, 1, 79, 92
7, 214304, Note_on_c, 1, 84, 0
7, 214304, Note_on_c, 1, 79, 0
7, 214320, Note_on_c, 1, 84, 92
7, 214320, Note_on_c, 1, 79, 92
7, 214544, Note_on_c, 1, 84, 0
7, 214544, Note_on_c, 1, 79, 0
7, 214560, Note_on_c, 1, 81, 92
7, 214560, Note_on_c, 1, 84, 92
7, 215024, Note_on_c, 1, 81, 0
7, 215024, Note_on_c, 1, 84, 0
7, 215040, Note_on_c, 1, 79, 92
7, 215040, Note_on_c, 1, 84, 92
7, 215264, Note_on_c, 1, 79, 0
7, 215264, Note_on_c, 1, 84, 0
7, 215280, Note_on_c, 1, 81, 92
7, 215280, Note_on_c, 1, 84, 92
7, 215399, Note_on_c, 1, 81, 0
7, 215399, Note_on_c, 1, 84, 0
7, 217440, Note_on_c, 1, 82, 48
7, 217799, Note_on_c, 1, 82, 0
7, 217800, Note_on_c, 1, 81, 48
7, 217904, Note_on_c, 1, 81, 0
7, 217920, Note_on_c, 1, 79, 48
7, 218009, Note_on_c, 1, 79, 0
7, 218040, Note_on_c, 1, 77, 48
7, 218129, Note_on_c, 1, 77, 0
7, 218160, Note_on_c, 1, 70, 76
7, 218160, Note_on_c, 1, 76, 76
7, 218399, Note_on_c, 1, 70, 0
7, 218399, Note_on_c, 1, 76, 0
7, 219600, Note_on_c, 1, 79, 48
7, 219839, Note_on_c, 1, 79, 0
7, 219840, Note_on_c, 1, 77, 48
7, 219959, Note_on_c, 1, 77, 0
7, 219960, Note_on_c, 1, 76, 48
7, 220079, Note_on_c, 1, 76, 0
7, 220080, Note_on_c, 1, 74, 48
7, 220199, Note_on_c, 1, 74, 0
7, 220200, Note_on_c, 1, 72, 48
7, 220304, Note_on_c, 1, 72, 0
7, 220320, Note_on_c, 1, 72, 48
7, 220544, Note_on_c, 1, 72, 0
7, 220560, Note_on_c, 1, 72, 48
7, 220799, Note_on_c, 1, 72, 0
7, 220800, Note_on_c, 1, 76, 48
7, 221024, Note_on_c, 1, 76, 0
7, 221040, Note_on_c, 1, 76, 48
7, 221519, Note_on_c, 1, 76, 0
7, 221520, Note_on_c, 1, 77, 48
7, 221759, Note_on_c, 1, 77, 0
7, 222480, Control_c, 1, 11, 111
7, 223200, Note_on_c, 1, 72, 76
7, 223380, Control_c, 1, 11, 115
7, 223560, Control_c, 1, 11, 119
7, 223740, Control_c, 1, 11, 123
7, 223904, Note_on_c, 1, 72, 0
7, 223920, Note_on_c, 1, 77, 76
7, 223920, Control_c, 1, 11, 127
7, 223920, Note_on_c, 1, 81, 76
7, 224159, Note_on_c, 1, 77, 0
7, 224159, Note_on_c, 1, 81, 0
7, 225300, Note_on_c, 1, 72, 76
7, 225300, Note_on_c, 1, 81, 76
7, 225351, Note_on_c, 1, 72, 0
7, 225351, Note_on_c, 1, 81, 0
7, 225360, Note_on_c, 1, 74, 76
7, 225360, Note_on_c, 1, 82, 76
7, 225599, Note_on_c, 1, 74, 0
7, 225599, Note_on_c, 1, 82, 0
7, 226740, Note_on_c, 1, 74, 76
7, 226740, Note_on_c, 1, 82, 76
7, 226791, Note_on_c, 1, 74, 0
7, 226791, Note_on_c, 1, 82, 0
7, 226800, Note_on_c, 1, 83, 76
7, 226800, Note_on_c, 1, 74, 76
7, 227039, Note_on_c, 1, 83, 0
7, 227039, Note_on_c, 1, 74, 0
7, 227460, Note_on_c, 1, 83, 76
7, 227460, Note_on_c, 1, 74, 76
7, 227511, Note_on_c, 1, 83, 0
7, 227511, Note_on_c, 1, 74, 0
7, 227520, Note_on_c, 1, 83, 76
7, 227520, Note_on_c, 1, 74, 76
7, 227759, Note_on_c, 1, 83, 0
7, 227759, Note_on_c, 1, 74, 0
7, 228180, Note_on_c, 1, 83, 76
7, 228180, Note_on_c, 1, 74, 76
7, 228231, Note_on_c, 1, 83, 0
7, 228231, Note_on_c, 1, 74, 0
7, 228240, Note_on_c, 1, 84, 76
7, 228240, Note_on_c, 1, 76, 76
7, 228479, Note_on_c, 1, 84, 0
7, 228479, Note_on_c, 1, 76, 0
7, 228900, Note_on_c, 1, 79, 76
7, 228900, Note_on_c, 1, 82, 76
7, 228951, Note_on_c, 1, 79, 0
7, 228951, Note_on_c, 1, 82, 0
7, 228960, Note_on_c, 1, 82, 76
7, 228960, Note_on_c, 1, 79, 76
7, 229079, Note_on_c, 1, 82, 0
7, 229079, Note_on_c, 1, 79, 0
7, 229200, Note_on_c, 1, 79, 76
7, 229200, Note_on_c, 1, 82, 76
7, 229319, Note_on_c, 1, 79, 0
7, 229319, Note_on_c, 1, 82, 0
7, 229440, Note_on_c, 1, 82, 76
7, 229440, Note_on_c, 1, 79, 76
7, 229559, Note_on_c, 1, 82, 0
7, 229559, Note_on_c, 1, 79, 0
7, 229680, Note_on_c, 1, 81, 84
7, 229680, Note_on_c, 1, 77, 84
7, 231044, Note_on_c, 1, 81, 0
7, 231044, Note_on_c, 1, 77, 0
7, 231060, Note_on_c, 1, 77, 84
7, 231060, Note_on_c, 1, 81, 84
7, 231111, Note_on_c, 1, 77, 0
7, 231111, Note_on_c, 1, 81, 0
7, 231120, Note_on_c, 1, 80, 84
7, 231120, Note_on_c, 1, 77, 84
7, 232484, Note_on_c, 1, 80, 0
7, 232484, Note_on_c, 1, 77, 0
7, 232500, Note_on_c, 1, 77, 84
7, 232500, Note_on_c, 1, 80, 84
7, 232551, Note_on_c, 1, 77, 0
7, 232551, Note_on_c, 1, 80, 0
7, 232560, Note_on_c, 1, 74, 84
7, 232560, Note_on_c, 1, 83, 84
7, 233924, Note_on_c, 1, 74, 0
7, 233924, Note_on_c, 1, 83, 0
7, 233940, Note_on_c, 1, 83, 84
7, 233940, Note_on_c, 1, 74, 84
7, 233991, Note_on_c, 1, 83, 0
7, 233991, Note_on_c, 1, 74, 0
7, 234000, Note_on_c, 1, 74, 84
7, 234000, Note_on_c, 1, 83, 84
7, 235364, Note_on_c, 1, 74, 0
7, 235364, Note_on_c, 1, 83, 0
7, 235380, Note_on_c, 1, 83, 84
7, 235380, Note_on_c, 1, 74, 84
7, 235431, Note_on_c, 1, 83, 0
7, 235431, Note_on_c, 1, 74, 0
7, 235440, Note_on_c, 1, 74, 84
7, 235440, Note_on_c, 1, 83, 84
7, 235904, Note_on_c, 1, 74, 0
7, 235904, Note_on_c, 1, 83, 0
7, 235920, Note_on_c, 1, 83, 92
7, 235920, Note_on_c, 1, 74, 92
7, 236084, Note_on_c, 1, 83, 0
7, 236084, Note_on_c, 1, 74, 0
7, 236100, Note_on_c, 1, 74, 84
7, 236100, Note_on_c, 1, 83, 84
7, 236151, Note_on_c, 1, 74, 0
7, 236151, Note_on_c, 1, 83, 0
7, 236160, Note_on_c, 1, 83, 84
7, 236160, Note_on_c, 1, 74, 84
7, 236624, Note_on_c, 1, 83, 0
7, 236624, Note_on_c, 1, 74, 0
7, 236640, Note_on_c, 1, 74, 92
7, 236640, Note_on_c, 1, 83, 92
7, 236804, Note_on_c, 1, 74, 0
7, 236804, Note_on_c, 1, 83, 0
7, 236820, Note_on_c, 1, 83, 84
7, 236820, Note_on_c, 1, 74, 84
7, 236871, Note_on_c, 1, 83, 0
7, 236871, Note_on_c, 1, 74, 0
7, 236880, Note_on_c, 1, 74, 84
7, 236880, Note_on_c, 1, 83, 84
7, 236999, Note_on_c, 1, 74, 0
7, 236999, Note_on_c, 1, 83, 0
7, 237360, Note_on_c, 1, 86, 92
7, 237360, Note_on_c, 1, 77, 92
7, 237479, Note_on_c, 1, 86, 0
7, 237479, Note_on_c, 1, 77, 0
7, 237600, Note_on_c, 1, 74, 84
7, 237600, Note_on_c, 1, 77, 84
7, 237719, Note_on_c, 1, 74, 0
7, 237719, Note_on_c, 1, 77, 0
7, 238080, Note_on_c, 1, 77, 92
7, 238080, Note_on_c, 1, 86, 92
7, 238199, Note_on_c, 1, 77, 0
7, 238199, Note_on_c, 1, 86, 0
7, 238320, Note_on_c, 1, 77, 84
7, 238320, Note_on_c, 1, 74, 84
7, 238439, Note_on_c, 1, 77, 0
7, 238439, Note_on_c, 1, 74, 0
7, 248160, Note_on_c, 1, 72, 48
7, 248249, Note_on_c, 1, 72, 0
7, 248280, Note_on_c, 1, 72, 48
7, 248519, Note_on_c, 1, 72, 0
7, 248520, Note_on_c, 1, 74, 48
7, 248639, Note_on_c, 1, 74, 0
7, 248640, Note_on_c, 1, 76, 48
7, 248759, Note_on_c, 1, 76, 0
7, 248760, Note_on_c, 1, 77, 48
7, 248864, Note_on_c, 1, 77, 0
7, 248880, Note_on_c, 1, 72, 48
7, 248969, Note_on_c, 1, 72, 0
7, 249000, Note_on_c, 1, 72, 48
7, 249239, Note_on_c, 1, 72, 0
7, 249240, Note_on_c, 1, 76, 48
7, 249359, Note_on_c, 1, 76, 0
7, 249360, Note_on_c, 1, 77, 48
7, 249479, Note_on_c, 1, 77, 0
7, 249480, Note_on_c, 1, 79, 48
7, 249584, Note_on_c, 1, 79, 0
7, 249600, Note_on_c, 1, 72, 48
7, 249689, Note_on_c, 1, 72, 0
7, 249720, Note_on_c, 1, 72, 48
7, 249959, Note_on_c, 1, 72, 0
7, 249960, Note_on_c, 1, 77, 48
7, 250079, Note_on_c, 1, 77, 0
7, 250080, Note_on_c, 1, 79, 48
7, 250199, Note_on_c, 1, 79, 0
7, 250200, Note_on_c, 1, 81, 48
7, 250319, Note_on_c, 1, 81, 0
7, 250320, Note_on_c, 1, 82, 48
7, 250439, Note_on_c, 1, 82, 0
7, 250440, Note_on_c, 1, 81, 48
7, 250544, Note_on_c, 1, 81, 0
7, 250560, Note_on_c, 1, 79, 48
7, 250799, Note_on_c, 1, 79, 0
7, 251760, Note_on_c, 1, 82, 52
7, 252119, Note_on_c, 1, 82, 0
7, 252120, Note_on_c, 1, 81, 52
7, 252239, Note_on_c, 1, 81, 0
7, 252240, Note_on_c, 1, 77, 52
7, 252359, Note_on_c, 1, 77, 0
7, 252360, Note_on_c, 1, 79, 52
7, 252464, Note_on_c, 1, 79, 0
7, 252480, Note_on_c, 1, 80, 52
7, 252480, Note_on_c, 1, 77, 52
7, 252720, Control_c, 1, 11, 112
7, 254864, Note_on_c, 1, 80, 0
7, 254864, Note_on_c, 1, 77, 0
7, 254880, Note_on_c, 1, 80, 52
7, 255059, Note_on_c, 1, 80, 0
7, 255120, Control_c, 1, 11, 48
7, 255360, Note_on_c, 1, 77, 84
7, 255539, Note_on_c, 1, 77, 0
7, 255600, Note_on_c, 1, 80, 84
7, 255600, Note_on_c, 1, 77, 84
7, 257040, Control_c, 1, 11, 48
7, 257280, Control_c, 1, 11, 51
7, 257520, Control_c, 1, 11, 55
7, 257744, Note_on_c, 1, 80, 0
7, 257744, Note_on_c, 1, 77, 0
7, 257760, Note_on_c, 1, 80, 84
7, 257760, Control_c, 1, 11, 58
7, 257939, Note_on_c, 1, 80, 0
7, 258000, Control_c, 1, 11, 61
7, 258240, Note_on_c, 1, 77, 84
7, 258240, Control_c, 1, 11, 64
7, 258419, Note_on_c, 1, 77, 0
7, 258480, Note_on_c, 1, 76, 92
7, 258480, Control_c, 1, 11, 68
7, 258659, Note_on_c, 1, 76, 0
7, 258720, Control_c, 1, 11, 71
7, 258960, Control_c, 1, 11, 74
7, 259200, Note_on_c, 1, 82, 92
7, 259200, Control_c, 1, 11, 78
7, 259379, Note_on_c, 1, 82, 0
7, 259440, Control_c, 1, 11, 81
7, 259680, Note_on_c, 1, 79, 84
7, 259680, Control_c, 1, 11, 84
7, 259859, Note_on_c, 1, 79, 0
7, 259920, Control_c, 1, 11, 88
7, 259920, Note_on_c, 1, 84, 92
7, 259920, Note_on_c, 1, 81, 92
7, 260099, Note_on_c, 1, 84, 0
7, 260099, Note_on_c, 1, 81, 0
7, 260160, Control_c, 1, 11, 91
7, 260400, Control_c, 1, 11, 94
7, 260640, Note_on_c, 1, 73, 92
7, 260640, Note_on_c, 1, 82, 92
7, 260640, Control_c, 1, 11, 97
7, 260819, Note_on_c, 1, 73, 0
7, 260819, Note_on_c, 1, 82, 0
7, 260880, Control_c, 1, 11, 101
7, 261120, Control_c, 1, 11, 104
7, 261360, Note_on_c, 1, 74, 92
7, 261360, Control_c, 1, 11, 107
7, 261360, Note_on_c, 1, 83, 92
7, 261539, Note_on_c, 1, 74, 0
7, 261539, Note_on_c, 1, 83, 0
7, 261600, Control_c, 1, 11, 111
7, 261840, Control_c, 1, 11, 114
7, 262080, Control_c, 1, 11, 117
7, 262080, Note_on_c, 1, 84, 92
7, 262080, Note_on_c, 1, 76, 92
7, 262259, Note_on_c, 1, 84, 0
7, 262259, Note_on_c, 1, 76, 0
7, 262320, Control_c, 1, 11, 120
7, 262560, Control_c, 1, 11, 124
7, 262800, Note_on_c, 1, 76, 84
7, 262800, Control_c, 1, 11, 127
7, 262800, Note_on_c, 1, 84, 84
7, 262919, Note_on_c, 1, 76, 0
7, 262979, Note_on_c, 1, 84, 0
7, 263280, Note_on_c, 1, 79, 84
7, 263280, Note_on_c, 1, 76, 84
7, 263459, Note_on_c, 1, 79, 0
7, 263459, Note_on_c, 1, 76, 0
7, 263520, Note_on_c, 1, 77, 84
7, 263520, Note_on_c, 1, 81, 84
7, 263699, Note_on_c, 1, 77, 0
7, 263699, Note_on_c, 1, 81, 0
7, 264000, Note_on_c, 1, 86, 84
7, 264000, Note_on_c, 1, 74, 84
7, 264179, Note_on_c, 1, 86, 0
7, 264179, Note_on_c, 1, 74, 0
7, 264240, Note_on_c, 1, 82, 84
7, 264240, Note_on_c, 1, 70, 84
7, 264419, Note_on_c, 1, 82, 0
7, 264419, Note_on_c, 1, 70, 0
7, 264720, Note_on_c, 1, 67, 84
7, 264720, Note_on_c, 1, 79, 84
7, 264899, Note_on_c, 1, 67, 0
7, 264899, Note_on_c, 1, 79, 0
7, 264960, Note_on_c, 1, 72, 84
7, 264960, Note_on_c, 1, 84, 84
7, 265139, Note_on_c, 1, 72, 0
7, 265139, Note_on_c, 1, 84, 0
7, 265440, Note_on_c, 1, 72, 84
7, 265619, Note_on_c, 1, 72, 0
7, 265680, Note_on_c, 1, 77, 84
7, 265680, Note_on_c, 1, 81, 84
7, 265851, Note_on_c, 1, 77, 0
7, 265851, Note_on_c, 1, 81, 0
7, 265860, Note_on_c, 1, 77, 84
7, 265860, Note_on_c, 1, 81, 84
7, 265911, Note_on_c, 1, 77, 0
7, 265911, Note_on_c, 1, 81, 0
7, 265920, Note_on_c, 1, 79, 84
7, 265920, Note_on_c, 1, 76, 84
7, 266099, Note_on_c, 1, 79, 0
7, 266099, Note_on_c, 1, 76, 0
7, 266160, Note_on_c, 1, 79, 84
7, 266160, Note_on_c, 1, 82, 84
7, 266331, Note_on_c, 1, 79, 0
7, 266331, Note_on_c, 1, 82, 0
7, 266340, Note_on_c, 1, 82, 84
7, 266340, Note_on_c, 1, 79, 84
7, 266391, Note_on_c, 1, 82, 0
7, 266391, Note_on_c, 1, 79, 0
7, 266400, Note_on_c, 1, 77, 84
7, 266400, Note_on_c, 1, 81, 84
7, 266579, Note_on_c, 1, 77, 0
7, 266579, Note_on_c, 1, 81, 0
7, 266640, Note_on_c, 1, 82, 84
7, 266640, Note_on_c, 1, 86, 84
7, 266811, Note_on_c, 1, 82, 0
7, 266811, Note_on_c, 1, 86, 0
7, 266820, Note_on_c, 1, 82, 84
7, 266820, Note_on_c, 1, 86, 84
7, 266871, Note_on_c, 1, 82, 0
7, 266871, Note_on_c, 1, 86, 0
7, 266880, Note_on_c, 1, 84, 84
7, 266880, Note_on_c, 1, 81, 84
7, 267059, Note_on_c, 1, 84, 0
7, 267059, Note_on_c, 1, 81, 0
7, 267120, Note_on_c, 1, 86, 84
7, 267120, Note_on_c, 1, 82, 84
7, 267291, Note_on_c, 1, 86, 0
7, 267291, Note_on_c, 1, 82, 0
7, 267300, Note_on_c, 1, 86, 84
7, 267300, Note_on_c, 1, 82, 84
7, 267351, Note_on_c, 1, 86, 0
7, 267351, Note_on_c, 1, 82, 0
7, 267360, Note_on_c, 1, 81, 84
7, 267360, Note_on_c, 1, 84, 84
7, 267539, Note_on_c, 1, 81, 0
7, 267539, Note_on_c, 1, 84, 0
7, 267600, Note_on_c, 1, 84, 48
7, 267839, Note_on_c, 1, 84, 0
7, 267840, Note_on_c, 1, 83, 48
7, 268319, Note_on_c, 1, 83, 0
7, 268320, Note_on_c, 1, 84, 48
7, 268559, Note_on_c, 1, 84, 0
7, 268560, Note_on_c, 1, 82, 48
7, 269039, Note_on_c, 1, 82, 0
7, 269040, Note_on_c, 1, 81, 48
7, 269279, Note_on_c, 1, 81, 0
7, 269280, Note_on_c, 1, 79, 48
7, 269759, Note_on_c, 1, 79, 0
7, 269760, Note_on_c, 1, 77, 48
7, 269999, Note_on_c, 1, 77, 0
7, 270000, Note_on_c, 1, 76, 48
7, 270479, Note_on_c, 1, 76, 0
7, 270480, Note_on_c, 1, 77, 48
7, 270719, Note_on_c, 1, 77, 0
7, 270720, Note_on_c, 1, 79, 48
7, 270959, Note_on_c, 1, 79, 0
7, 270960, Note_on_c, 1, 72, 48
7, 271199, Note_on_c, 1, 72, 0
7, 271200, Note_on_c, 1, 77, 48
7, 271424, Note_on_c, 1, 77, 0
7, 271440, Note_on_c, 1, 77, 48
7, 271919, Note_on_c, 1, 77, 0
7, 271920, Note_on_c, 1, 82, 48
7, 272159, Note_on_c, 1, 82, 0
7, 272160, Note_on_c, 1, 81, 48
7, 272639, Note_on_c, 1, 81, 0
7, 272640, Note_on_c, 1, 79, 48
7, 272864, Note_on_c, 1, 79, 0
7, 272880, Note_on_c, 1, 81, 84
7, 272880, Note_on_c, 1, 77, 84
7, 273051, Note_on_c, 1, 81, 0
7, 273051, Note_on_c, 1, 77, 0
7, 273060, Note_on_c, 1, 77, 84
7, 273060, Note_on_c, 1, 81, 84
7, 273111, Note_on_c, 1, 77, 0
7, 273111, Note_on_c, 1, 81, 0
7, 273120, Note_on_c, 1, 79, 84
7, 273120, Note_on_c, 1, 76, 84
7, 273299, Note_on_c, 1, 79, 0
7, 273299, Note_on_c, 1, 76, 0
7, 273360, Note_on_c, 1, 79, 84
7, 273360, Note_on_c, 1, 82, 84
7, 273531, Note_on_c, 1, 79, 0
7, 273531, Note_on_c, 1, 82, 0
7, 273540, Note_on_c, 1, 82, 84
7, 273540, Note_on_c, 1, 79, 84
7, 273591, Note_on_c, 1, 82, 0
7, 273591, Note_on_c, 1, 79, 0
7, 273600, Note_on_c, 1, 77, 84
7, 273600, Note_on_c, 1, 81, 84
7, 273779, Note_on_c, 1, 77, 0
7, 273779, Note_on_c, 1, 81, 0
7, 273840, Note_on_c, 1, 82, 84
7, 273840, Note_on_c, 1, 86, 84
7, 274011, Note_on_c, 1, 82, 0
7, 274011, Note_on_c, 1, 86, 0
7, 274020, Note_on_c, 1, 82, 84
7, 274020, Note_on_c, 1, 86, 84
7, 274071, Note_on_c, 1, 82, 0
7, 274071, Note_on_c, 1, 86, 0
7, 274080, Note_on_c, 1, 81, 84
7, 274080, Note_on_c, 1, 84, 84
7, 274259, Note_on_c, 1, 81, 0
7, 274259, Note_on_c, 1, 84, 0
7, 274320, Note_on_c, 1, 82, 84
7, 274320, Note_on_c, 1, 86, 84
7, 274491, Note_on_c, 1, 82, 0
7, 274491, Note_on_c, 1, 86, 0
7, 274500, Note_on_c, 1, 86, 84
7, 274500, Note_on_c, 1, 82, 84
7, 274551, Note_on_c, 1, 86, 0
7, 274551, Note_on_c, 1, 82, 0
7, 274560, Note_on_c, 1, 81, 84
7, 274560, Note_on_c, 1, 84, 84
7, 274739, Note_on_c, 1, 81, 0
7, 274739, Note_on_c, 1, 84, 0
7, 275520, Note_on_c, 1, 72, 48
7, 276240, Note_on_c, 1, 84, 48
7, 276479, Note_on_c, 1, 84, 0
7, 276480, Note_on_c, 1, 82, 48
7, 276959, Note_on_c, 1, 82, 0
7, 276960, Note_on_c, 1, 81, 48
7, 277199, Note_on_c, 1, 81, 0
7, 277200, Note_on_c, 1, 79, 48
7, 277679, Note_on_c, 1, 79, 0
7, 277680, Note_on_c, 1, 77, 48
7, 277919, Note_on_c, 1, 77, 0
7, 277920, Note_on_c, 1, 76, 48
7, 278384, Note_on_c, 1, 72, 0
7, 278399, Note_on_c, 1, 76, 0
7, 278400, Note_on_c, 1, 75, 48
7, 278400, Note_on_c, 1, 72, 48
7, 278639, Note_on_c, 1, 75, 0
7, 278639, Note_on_c, 1, 72, 0
7, 278640, Note_on_c, 1, 70, 48
7, 278640, Note_on_c, 1, 74, 48
7, 279104, Note_on_c, 1, 70, 0
7, 279104, Note_on_c, 1, 74, 0
7, 279120, Note_on_c, 1, 70, 48
7, 279120, Note_on_c, 1, 74, 48
7, 279359, Note_on_c, 1, 70, 0
7, 279359, Note_on_c, 1, 74, 0
7, 279360, Note_on_c, 1, 69, 48
7, 279360, Note_on_c, 1, 72, 48
7, 279839, Note_on_c, 1, 69, 0
7, 279839, Note_on_c, 1, 72, 0
7, 279840, Note_on_c, 1, 67, 48
7, 279840, Note_on_c, 1, 76, 48
7, 280064, Note_on_c, 1, 67, 0
7, 280064, Note_on_c, 1, 76, 0
7, 280080, Note_on_c, 1, 69, 48
7, 280080, Note_on_c, 1, 77, 48
7, 280319, Note_on_c, 1, 69, 0
7, 280319, Note_on_c, 1, 77, 0
7, 280800, Note_on_c, 1, 82, 52
7, 280919, Note_on_c, 1, 82, 0
7, 280920, Note_on_c, 1, 81, 56
7, 281039, Note_on_c, 1, 81, 0
7, 281040, Note_on_c, 1, 82, 60
7, 281159, Note_on_c, 1, 82, 0
7, 281160, Note_on_c, 1, 81, 64
7, 281279, Note_on_c, 1, 81, 0
7, 281280, Note_on_c, 1, 79, 68
7, 281399, Note_on_c, 1, 79, 0
7, 281400, Note_on_c, 1, 77, 72
7, 281504, Note_on_c, 1, 77, 0
7, 281520, Note_on_c, 1, 77, 76
7, 281699, Note_on_c, 1, 77, 0
7, 281760, Note_on_c, 1, 72, 84
7, 281760, Note_on_c, 1, 81, 84
7, 282119, Note_on_c, 1, 81, 0
7, 282120, Note_on_c, 1, 77, 76
7, 282209, Note_on_c, 1, 72, 0
7, 282224, Note_on_c, 1, 77, 0
7, 282240, Note_on_c, 1, 72, 84
7, 282240, Note_on_c, 1, 76, 84
7, 282479, Note_on_c, 1, 72, 0
7, 282479, Note_on_c, 1, 76, 0
7, 282600, Note_on_c, 1, 79, 76
7, 282600, Note_on_c, 1, 76, 76
7, 282689, Note_on_c, 1, 79, 0
7, 282689, Note_on_c, 1, 76, 0
7, 282720, Note_on_c, 1, 84, 76
7, 282720, Note_on_c, 1, 77, 76
7, 282809, Note_on_c, 1, 84, 0
7, 282809, Note_on_c, 1, 77, 0
7, 282840, Note_on_c, 1, 82, 76
7, 282840, Note_on_c, 1, 79, 76
7, 282929, Note_on_c, 1, 82, 0
7, 282929, Note_on_c, 1, 79, 0
7, 282960, Note_on_c, 1, 81, 84
7, 282960, Note_on_c, 1, 77, 84
7, 283139, Note_on_c, 1, 81, 0
7, 283139, Note_on_c, 1, 77, 0
7, 283320, Note_on_c, 1, 72, 76
7, 283409, Note_on_c, 1, 72, 0
7, 283440, Note_on_c, 1, 69, 76
7, 283440, Note_on_c, 1, 81, 76
7, 283529, Note_on_c, 1, 69, 0
7, 283529, Note_on_c, 1, 81, 0
7, 283560, Note_on_c, 1, 81, 76
7, 283560, Note_on_c, 1, 77, 76
7, 283649, Note_on_c, 1, 81, 0
7, 283649, Note_on_c, 1, 77, 0
7, 283680, Note_on_c, 1, 79, 84
7, 283680, Note_on_c, 1, 82, 84
7, 283859, Note_on_c, 1, 79, 0
7, 283859, Note_on_c, 1, 82, 0
7, 284040, Note_on_c, 1, 72, 76
7, 284040, Note_on_c, 1, 76, 76
7, 284129, Note_on_c, 1, 72, 0
7, 284129, Note_on_c, 1, 76, 0
7, 284160, Note_on_c, 1, 84, 76
7, 284160, Note_on_c, 1, 77, 76
7, 284249, Note_on_c, 1, 84, 0
7, 284249, Note_on_c, 1, 77, 0
7, 284280, Note_on_c, 1, 82, 76
7, 284280, Note_on_c, 1, 79, 76
7, 284369, Note_on_c, 1, 82, 0
7, 284369, Note_on_c, 1, 79, 0
7, 284400, Note_on_c, 1, 81, 84
7, 284400, Note_on_c, 1, 77, 84
7, 287264, Note_on_c, 1, 81, 0
7, 287264, Note_on_c, 1, 77, 0
7, 287280, Note_on_c, 1, 77, 92
7, 287280, Note_on_c, 1, 65, 92
7, 287519, Note_on_c, 1, 77, 0
7, 287519, Note_on_c, 1, 65, 0
7, 288000, Note_on_c, 1, 65, 92
7, 288000, Note_on_c, 1, 77, 92
7, 288239, Note_on_c, 1, 65, 0
7, 288239, Note_on_c, 1, 77, 0
7, 288720, Note_on_c, 1, 77, 92
7, 288720, Note_on_c, 1, 65, 92
7, 288959, Note_on_c, 1, 77, 0
7, 288959, Note_on_c, 1, 65, 0
7, 289440, Note_on_c, 1, 65, 92
7, 289440, Note_on_c, 1, 77, 92
7, 289679, Note_on_c, 1, 65, 0
7, 289679, Note_on_c, 1, 77, 0
7, 289800, Note_on_c, 1, 77, 84
7, 289800, Note_on_c, 1, 65, 84
7, 289904, Note_on_c, 1, 77, 0
7, 289904, Note_on_c, 1, 65, 0
7, 289920, Note_on_c, 1, 65, 84
7, 289920, Note_on_c, 1, 77, 84
7, 290024, Note_on_c, 1, 65, 0
7, 290024, Note_on_c, 1, 77, 0
7, 290040, Note_on_c, 1, 77, 84
7, 290040, Note_on_c, 1, 65, 84
7, 290144, Note_on_c, 1, 77, 0
7, 290144, Note_on_c, 1, 65, 0
7, 290160, Note_on_c, 1, 65, 84
7, 290160, Note_on_c, 1, 77, 84
7, 290399, Note_on_c, 1, 65, 0
7, 290399, Note_on_c, 1, 77, 0
7, 295440, Note_on_c, 1, 75, 44
7, 295544, Note_on_c, 1, 75, 0
7, 295680, Note_on_c, 1, 75, 44
7, 295769, Note_on_c, 1, 75, 0
7, 295920, Note_on_c, 1, 73, 44
7, 296159, Note_on_c, 1, 73, 0
7, 296880, Note_on_c, 1, 77, 44
7, 296984, Note_on_c, 1, 77, 0
7, 297120, Note_on_c, 1, 77, 44
7, 297209, Note_on_c, 1, 77, 0
7, 297360, Note_on_c, 1, 77, 44
7, 298784, Note_on_c, 1, 77, 0
7, 298800, Note_on_c, 1, 80, 44
7, 300224, Note_on_c, 1, 80, 0
7, 300240, Note_on_c, 1, 78, 44
7, 301424, Note_on_c, 1, 78, 0
7, 301438, Control_c, 1, 11, 112
7, 301440, Note_on_c, 1, 79, 52
7, 301664, Note_on_c, 1, 79, 0
7, 301680, Note_on_c, 1, 82, 52
7, 301680, Control_c, 1, 11, 112
7, 301800, Control_c, 1, 11, 113
7, 301920, Control_c, 1, 11, 115
7, 302040, Control_c, 1, 11, 116
7, 302160, Control_c, 1, 11, 117
7, 302280, Control_c, 1, 11, 118
7, 302400, Control_c, 1, 11, 120
7, 302520, Control_c, 1, 11, 121
7, 302640, Control_c, 1, 11, 122
7, 302760, Control_c, 1, 11, 123
7, 302880, Note_on_c, 1, 72, 52
7, 302880, Control_c, 1, 11, 125
7, 303000, Control_c, 1, 11, 126
7, 303104, Note_on_c, 1, 82, 0
7, 303104, Note_on_c, 1, 72, 0
7, 303118, Control_c, 1, 11, 64
7, 303120, Note_on_c, 1, 83, 84
7, 303120, Note_on_c, 1, 74, 84
7, 303240, Control_c, 1, 11, 67
7, 303360, Control_c, 1, 11, 69
7, 303480, Control_c, 1, 11, 72
7, 303600, Control_c, 1, 11, 75
7, 303720, Control_c, 1, 11, 77
7, 303840, Control_c, 1, 11, 80
7, 303960, Control_c, 1, 11, 82
7, 304080, Control_c, 1, 11, 85
7, 304200, Control_c, 1, 11, 88
7, 304304, Note_on_c, 1, 83, 0
7, 304320, Note_on_c, 1, 80, 84
7, 304320, Control_c, 1, 11, 90
7, 304440, Control_c, 1, 11, 93
7, 304544, Note_on_c, 1, 74, 0
7, 304544, Note_on_c, 1, 80, 0
7, 304560, Control_c, 1, 11, 96
7, 304560, Note_on_c, 1, 72, 84
7, 304560, Note_on_c, 1, 81, 84
7, 304680, Control_c, 1, 11, 98
7, 304800, Control_c, 1, 11, 101
7, 304920, Control_c, 1, 11, 103
7, 305040, Control_c, 1, 11, 106
7, 305160, Control_c, 1, 11, 109
7, 305280, Control_c, 1, 11, 111
7, 305400, Control_c, 1, 11, 114
7, 305520, Control_c, 1, 11, 117
7, 305640, Control_c, 1, 11, 119
7, 305760, Control_c, 1, 11, 122
7, 305880, Control_c, 1, 11, 124
7, 305984, Note_on_c, 1, 72, 0
7, 305984, Note_on_c, 1, 81, 0
7, 306000, Note_on_c, 1, 81, 84
7, 306000, Note_on_c, 1, 84, 84
7, 306000, Control_c, 1, 11, 127
7, 306359, Note_on_c, 1, 81, 0
7, 306359, Note_on_c, 1, 84, 0
7, 306720, Note_on_c, 1, 81, 92
7, 306720, Note_on_c, 1, 84, 92
7, 307079, Note_on_c, 1, 81, 0
7, 307079, Note_on_c, 1, 84, 0
7, 307440, Note_on_c, 1, 85, 92
7, 307440, Note_on_c, 1, 82, 92
7, 307799, Note_on_c, 1, 85, 0
7, 307799, Note_on_c, 1, 82, 0
7, 308160, Note_on_c, 1, 85, 92
7, 308160, Note_on_c, 1, 82, 92
7, 308519, Note_on_c, 1, 85, 0
7, 308519, Note_on_c, 1, 82, 0
7, 308880, Note_on_c, 1, 82, 92
7, 308880, Note_on_c, 1, 85, 92
7, 309239, Note_on_c, 1, 82, 0
7, 309239, Note_on_c, 1, 85, 0
7, 309600, Note_on_c, 1, 84, 92
7, 309600, Note_on_c, 1, 81, 92
7, 309959, Note_on_c, 1, 84, 0
7, 309959, Note_on_c, 1, 81, 0
7, 310080, Note_on_c, 1, 79, 84
7, 310080, Note_on_c, 1, 82, 84
7, 310199, Note_on_c, 1, 79, 0
7, 310199, Note_on_c, 1, 82, 0
7, 310320, Note_on_c, 1, 81, 92
7, 310320, Note_on_c, 1, 77, 92
7, 310439, Note_on_c, 1, 81, 0
7, 310439, Note_on_c, 1, 77, 0
7, 310560, Note_on_c, 1, 72, 84
7, 310560, Note_on_c, 1, 77, 84
7, 310679, Note_on_c, 1, 72, 0
7, 310679, Note_on_c, 1, 77, 0
7, 310800, Note_on_c, 1, 79, 84
7, 310800, Note_on_c, 1, 76, 84
7, 310919, Note_on_c, 1, 79, 0
7, 310919, Note_on_c, 1, 76, 0
7, 311040, Note_on_c, 1, 77, 92
7, 311040, Note_on_c, 1, 81, 92
7, 311159, Note_on_c, 1, 77, 0
7, 311159, Note_on_c, 1, 81, 0
7, 311280, Note_on_c, 1, 77, 84
7, 311280, Note_on_c, 1, 72, 84
7, 311399, Note_on_c, 1, 77, 0
7, 311399, Note_on_c, 1, 72, 0
7, 311520, Note_on_c, 1, 79, 84
7, 311520, Note_on_c, 1, 76, 84
7, 311639, Note_on_c, 1, 79, 0
7, 311639, Note_on_c, 1, 76, 0
7, 311760, Note_on_c, 1, 81, 92
7, 311760, Note_on_c, 1, 77, 92
7, 311879, Note_on_c, 1, 81, 0
7, 311879, Note_on_c, 1, 77, 0
7, 312000, Note_on_c, 1, 77, 84
7, 312000, Note_on_c, 1, 72, 84
7, 312119, Note_on_c, 1, 77, 0
7, 312119, Note_on_c, 1, 72, 0
7, 312240, Note_on_c, 1, 76, 84
7, 312240, Note_on_c, 1, 79, 84
7, 312359, Note_on_c, 1, 76, 0
7, 312359, Note_on_c, 1, 79, 0
7, 312720, Note_on_c, 1, 82, 92
7, 312720, Note_on_c, 1, 79, 92
7, 313199, Note_on_c, 1, 82, 0
7, 313199, Note_on_c, 1, 79, 0
7, 317280, Control_c, 1, 11, 80
7, 317520, Note_on_c, 1, 84, 76
7, 317520, Note_on_c, 1, 72, 76
7, 317520, Control_c, 1, 11, 80
7, 317640, Control_c, 1, 11, 84
7, 317760, Control_c, 1, 11, 88
7, 317880, Control_c, 1, 11, 92
7, 318000, Control_c, 1, 11, 96
7, 318120, Control_c, 1, 11, 100
7, 318240, Control_c, 1, 11, 104
7, 318360, Control_c, 1, 11, 107
7, 318480, Control_c, 1, 11, 111
7, 318600, Control_c, 1, 11, 115
7, 318720, Control_c, 1, 11, 119
7, 318840, Control_c, 1, 11, 123
7, 318944, Note_on_c, 1, 84, 0
7, 318944, Note_on_c, 1, 72, 0
7, 318960, Control_c, 1, 11, 127
7, 318960, Note_on_c, 1, 79, 76
7, 318960, Note_on_c, 1, 70, 76
7, 319424, Note_on_c, 1, 79, 0
7, 319424, Note_on_c, 1, 70, 0
7, 319440, Note_on_c, 1, 69, 84
7, 319440, Note_on_c, 1, 77, 84
7, 319664, Note_on_c, 1, 69, 0
7, 319664, Note_on_c, 1, 77, 0
7, 319680, Note_on_c, 1, 70, 76
7, 319680, Note_on_c, 1, 79, 76
7, 320144, Note_on_c, 1, 70, 0
7, 320144, Note_on_c, 1, 79, 0
7, 320160, Note_on_c, 1, 77, 84
7, 320160, Note_on_c, 1, 69, 84
7, 320384, Note_on_c, 1, 77, 0
7, 320384, Note_on_c, 1, 69, 0
7, 320400, Note_on_c, 1, 79, 76
7, 320400, Note_on_c, 1, 70, 76
7, 320864, Note_on_c, 1, 79, 0
7, 320864, Note_on_c, 1, 70, 0
7, 320880, Note_on_c, 1, 69, 84
7, 320880, Note_on_c, 1, 77, 84
7, 321104, Note_on_c, 1, 69, 0
7, 321104, Note_on_c, 1, 77, 0
7, 321120, Note_on_c, 1, 79, 76
7, 321120, Note_on_c, 1, 70, 76
7, 321344, Note_on_c, 1, 70, 0
7, 321360, Note_on_c, 1, 72, 76
7, 321584, Note_on_c, 1, 79, 0
7, 321584, Note_on_c, 1, 72, 0
7, 321600, Note_on_c, 1, 81, 84
7, 321600, Note_on_c, 1, 72, 84
7, 321824, Note_on_c, 1, 81, 0
7, 321824, Note_on_c, 1, 72, 0
7, 321840, Note_on_c, 1, 82, 76
7, 321840, Note_on_c, 1, 74, 76
7, 322304, Note_on_c, 1, 82, 0
7, 322304, Note_on_c, 1, 74, 0
7, 322320, Note_on_c, 1, 84, 84
7, 322320, Note_on_c, 1, 72, 84
7, 322544, Note_on_c, 1, 84, 0
7, 322544, Note_on_c, 1, 72, 0
7, 322560, Note_on_c, 1, 86, 76
7, 322560, Note_on_c, 1, 74, 76
7, 323024, Note_on_c, 1, 86, 0
7, 323024, Note_on_c, 1, 74, 0
7, 323040, Note_on_c, 1, 76, 84
7, 323264, Note_on_c, 1, 76, 0
7, 323280, Note_on_c, 1, 77, 76
7, 323520, Note_on_c, 1, 72, 76
7, 323744, Note_on_c, 1, 77, 0
7, 323744, Note_on_c, 1, 72, 0
7, 323760, Note_on_c, 1, 72, 84
7, 323760, Note_on_c, 1, 79, 84
7, 323984, Note_on_c, 1, 72, 0
7, 323984, Note_on_c, 1, 79, 0
7, 324000, Note_on_c, 1, 81, 76
7, 324000, Note_on_c, 1, 72, 76
7, 324464, Note_on_c, 1, 81, 0
7, 324464, Note_on_c, 1, 72, 0
7, 324480, Note_on_c, 1, 82, 84
7, 324480, Note_on_c, 1, 74, 84
7, 324704, Note_on_c, 1, 82, 0
7, 324704, Note_on_c, 1, 74, 0
7, 324720, Note_on_c, 1, 80, 92
7, 324720, Note_on_c, 1, 83, 92
7, 325904, Note_on_c, 1, 80, 0
7, 325904, Note_on_c, 1, 83, 0
7, 325920, Note_on_c, 1, 84, 92
7, 325920, Note_on_c, 1, 81, 92
7, 326144, Note_on_c, 1, 84, 0
7, 326144, Note_on_c, 1, 81, 0
7, 326160, Note_on_c, 1, 81, 92
7, 326160, Note_on_c, 1, 77, 92
7, 326279, Note_on_c, 1, 81, 0
7, 326279, Note_on_c, 1, 77, 0
7, 326400, Note_on_c, 1, 77, 92
7, 326400, Note_on_c, 1, 69, 92
7, 326519, Note_on_c, 1, 77, 0
7, 326519, Note_on_c, 1, 69, 0
7, 326520, Note_on_c, 1, 79, 92
7, 326520, Note_on_c, 1, 72, 92
7, 326624, Note_on_c, 1, 79, 0
7, 326624, Note_on_c, 1, 72, 0
7, 326640, Note_on_c, 1, 77, 92
7, 326640, Note_on_c, 1, 81, 92
7, 326729, Note_on_c, 1, 77, 0
7, 326729, Note_on_c, 1, 81, 0
7, 326760, Note_on_c, 1, 77, 92
7, 326760, Note_on_c, 1, 69, 92
7, 326849, Note_on_c, 1, 77, 0
7, 326849, Note_on_c, 1, 69, 0
7, 326880, Note_on_c, 1, 77, 92
7, 326880, Note_on_c, 1, 81, 92
7, 326999, Note_on_c, 1, 77, 0
7, 326999, Note_on_c, 1, 81, 0
7, 327120, Note_on_c, 1, 69, 92
7, 327120, Note_on_c, 1, 77, 92
7, 327239, Note_on_c, 1, 69, 0
7, 327239, Note_on_c, 1, 77, 0
7, 327240, Note_on_c, 1, 72, 92
7, 327240, Note_on_c, 1, 79, 92
7, 327344, Note_on_c, 1, 72, 0
7, 327344, Note_on_c, 1, 79, 0
7, 327360, Note_on_c, 1, 81, 92
7, 327360, Note_on_c, 1, 77, 92
7, 327449, Note_on_c, 1, 81, 0
7, 327449, Note_on_c, 1, 77, 0
7, 327480, Note_on_c, 1, 69, 92
7, 327480, Note_on_c, 1, 77, 92
7, 327569, Note_on_c, 1, 69, 0
7, 327569, Note_on_c, 1, 77, 0
7, 327600, Note_on_c, 1, 81, 92
7, 327600, Note_on_c, 1, 77, 92
7, 327719, Note_on_c, 1, 81, 0
7, 327719, Note_on_c, 1, 77, 0
7, 327840, Note_on_c, 1, 77, 92
7, 327840, Note_on_c, 1, 69, 92
7, 327959, Note_on_c, 1, 77, 0
7, 327959, Note_on_c, 1, 69, 0
7, 327960, Note_on_c, 1, 72, 92
7, 327960, Note_on_c, 1, 79, 92
7, 328064, Note_on_c, 1, 72, 0
7, 328064, Note_on_c, 1, 79, 0
7, 328080, Note_on_c, 1, 77, 92
7, 328080, Note_on_c, 1, 81, 92
7, 328169, Note_on_c, 1, 77, 0
7, 328169, Note_on_c, 1, 81, 0
7, 328200, Note_on_c, 1, 69, 92
7, 328200, Note_on_c, 1, 77, 92
7, 328289, Note_on_c, 1, 69, 0
7, 328289, Note_on_c, 1, 77, 0
7, 328320, Note_on_c, 1, 72, 92
7, 328320, Note_on_c, 1, 79, 92
7, 328439, Note_on_c, 1, 72, 0
7, 328439, Note_on_c, 1, 79, 0
7, 328560, Note_on_c, 1, 72, 92
7, 328560, Note_on_c, 1, 79, 92
7, 328679, Note_on_c, 1, 72, 0
7, 328679, Note_on_c, 1, 79, 0
7, 328800, Note_on_c, 1, 72, 92
7, 328800, Note_on_c, 1, 79, 92
7, 328919, Note_on_c, 1, 72, 0
7, 328919, Note_on_c, 1, 79, 0
7, 329040, Note_on_c, 1, 77, 92
7, 329040, Note_on_c, 1, 81, 92
7, 329159, Note_on_c, 1, 77, 0
7, 329159, Note_on_c, 1, 81, 0
7, 329280, Note_on_c, 1, 77, 92
7, 329280, Note_on_c, 1, 69, 92
7, 329399, Note_on_c, 1, 77, 0
7, 329399, Note_on_c, 1, 69, 0
7, 329400, Note_on_c, 1, 72, 92
7, 329400, Note_on_c, 1, 79, 92
7, 329504, Note_on_c, 1, 72, 0
7, 329504, Note_on_c, 1, 79, 0
7, 329520, Note_on_c, 1, 81, 92
7, 329520, Note_on_c, 1, 77, 92
7, 329609, Note_on_c, 1, 81, 0
7, 329609, Note_on_c, 1, 77, 0
7, 329640, Note_on_c, 1, 77, 92
7, 329640, Note_on_c, 1, 69, 92
7, 329729, Note_on_c, 1, 77, 0
7, 329729, Note_on_c, 1, 69, 0
7, 329760, Note_on_c, 1, 81, 92
7, 329760, Note_on_c, 1, 77, 92
7, 329879, Note_on_c, 1, 81, 0
7, 329879, Note_on_c, 1, 77, 0
7, 330000, Note_on_c, 1, 77, 92
7, 330000, Note_on_c, 1, 69, 92
7, 330119, Note_on_c, 1, 77, 0
7, 330119, Note_on_c, 1, 69, 0
7, 330120, Note_on_c, 1, 72, 92
7, 330120, Note_on_c, 1, 79, 92
7, 330224, Note_on_c, 1, 72, 0
7, 330224, Note_on_c, 1, 79, 0
7, 330240, Note_on_c, 1, 81, 92
7, 330240, Note_on_c, 1, 77, 92
7, 330329, Note_on_c, 1, 81, 0
7, 330329, Note_on_c, 1, 77, 0
7, 330360, Note_on_c, 1, 77, 92
7, 330360, Note_on_c, 1, 69, 92
7, 330449, Note_on_c, 1, 77, 0
7, 330449, Note_on_c, 1, 69, 0
7, 330480, Note_on_c, 1, 77, 92
7, 330480, Note_on_c, 1, 81, 92
7, 330599, Note_on_c, 1, 77, 0
7, 330599, Note_on_c, 1, 81, 0
7, 330720, Note_on_c, 1, 77, 92
7, 330720, Note_on_c, 1, 69, 92
7, 330839, Note_on_c, 1, 77, 0
7, 330839, Note_on_c, 1, 69, 0
7, 330840, Note_on_c, 1, 79, 92
7, 330840, Note_on_c, 1, 72, 92
7, 330944, Note_on_c, 1, 79, 0
7, 330944, Note_on_c, 1, 72, 0
7, 330960, Note_on_c, 1, 81, 92
7, 330960, Note_on_c, 1, 77, 92
7, 331049, Note_on_c, 1, 81, 0
7, 331049, Note_on_c, 1, 77, 0
7, 331080, Note_on_c, 1, 77, 92
7, 331080, Note_on_c, 1, 69, 92
7, 331169, Note_on_c, 1, 77, 0
7, 331169, Note_on_c, 1, 69, 0
7, 331200, Note_on_c, 1, 76, 92
7, 331200, Note_on_c, 1, 79, 92
7, 331319, Note_on_c, 1, 76, 0
7, 331319, Note_on_c, 1, 79, 0
7, 331440, Note_on_c, 1, 76, 92
7, 331440, Note_on_c, 1, 79, 92
7, 331559, Note_on_c, 1, 76, 0
7, 331559, Note_on_c, 1, 79, 0
7, 331680, Note_on_c, 1, 79, 92
7, 331680, Note_on_c, 1, 76, 92
7, 331799, Note_on_c, 1, 79, 0
7, 331799, Note_on_c, 1, 76, 0
7, 332640, Note_on_c, 1, 77, 92
7, 332640, Note_on_c, 1, 81, 92
7, 332759, Note_on_c, 1, 77, 0
7, 332759, Note_on_c, 1, 81, 0
7, 332880, Note_on_c, 1, 81, 92
7, 332880, Note_on_c, 1, 77, 92
7, 332999, Note_on_c, 1, 81, 0
7, 332999, Note_on_c, 1, 77, 0
7, 333120, Note_on_c, 1, 77, 92
7, 333120, Note_on_c, 1, 81, 92
7, 333239, Note_on_c, 1, 77, 0
7, 333239, Note_on_c, 1, 81, 0
7, 334800, Note_on_c, 1, 76, 52
7, 335024, Note_on_c, 1, 76, 0
7, 335040, Note_on_c, 1, 76, 52
7, 335264, Note_on_c, 1, 76, 0
7, 335280, Note_on_c, 1, 76, 52
7, 335519, Note_on_c, 1, 76, 0
7, 336240, Note_on_c, 1, 77, 52
7, 336464, Note_on_c, 1, 77, 0
7, 336480, Note_on_c, 1, 77, 52
7, 336704, Note_on_c, 1, 77, 0
7, 336720, Note_on_c, 1, 77, 52
7, 336959, Note_on_c, 1, 77, 0
7, 337680, Control_c, 1, 11, 127
7, 337680, Note_on_c, 1, 77, 52
7, 337860, Control_c, 1, 11, 126
7, 337904, Note_on_c, 1, 77, 0
7, 337920, Note_on_c, 1, 77, 52
7, 338040, Control_c, 1, 11, 125
7, 338159, Note_on_c, 1, 77, 0
7, 338220, Control_c, 1, 11, 123
7, 338400, Control_c, 1, 11, 122
7, 338580, Control_c, 1, 11, 121
7, 338760, Control_c, 1, 11, 120
7, 338940, Control_c, 1, 11, 118
7, 339120, Note_on_c, 1, 77, 52
7, 339120, Control_c, 1, 11, 117
7, 339300, Control_c, 1, 11, 116
7, 339344, Note_on_c, 1, 77, 0
7, 339360, Note_on_c, 1, 77, 52
7, 339480, Control_c, 1, 11, 115
7, 339599, Note_on_c, 1, 77, 0
7, 339660, Control_c, 1, 11, 127
7, 339840, Note_on_c, 1, 77, 44
7, 340544, Note_on_c, 1, 77, 0
7, 340560, Note_on_c, 1, 77, 44
7, 341264, Note_on_c, 1, 77, 0
7, 341280, Note_on_c, 1, 77, 44
7, 341280, Note_on_c, 1, 72, 44
7, 341399, Note_on_c, 1, 77, 0
7, 341399, Note_on_c, 1, 72, 0
7, 341520, Note_on_c, 1, 77, 44
7, 341520, Note_on_c, 1, 69, 44
7, 341639, Note_on_c, 1, 77, 0
7, 341639, Note_on_c, 1, 69, 0
7, 341760, Note_on_c, 1, 72, 44
7, 341760, Note_on_c, 1, 77, 44
7, 341879, Note_on_c, 1, 72, 0
7, 341879, Note_on_c, 1, 77, 0
7, 342000, Note_on_c, 1, 77, 44
7, 342000, Note_on_c, 1, 65, 44
7, 342239, Note_on_c, 1, 77, 0
7, 342239, Note_on_c, 1, 65, 0
7, 342239, End_track
8, 0, Start_track
8, 0, Title_t, "Clarinet in B-flat"
8, 0, MIDI_port, 0
8, 0, Program_c, 2, 71
8, 0, Control_c, 2, 7, 88
8, 0, Control_c, 2, 10, 75
8, 0, Control_c, 2, 11, 127
8, 0, Note_on_c, 2, 77, 76
8, 0, Note_on_c, 2, 69, 76
8, 1184, Note_on_c, 2, 77, 0
8, 1184, Note_on_c, 2, 69, 0
8, 1200, Note_on_c, 2, 72, 76
8, 1200, Note_on_c, 2, 69, 76
8, 1289, Note_on_c, 2, 72, 0
8, 1289, Note_on_c, 2, 69, 0
8, 1320, Note_on_c, 2, 69, 76
8, 1320, Note_on_c, 2, 77, 76
8, 1409, Note_on_c, 2, 69, 0
8, 1409, Note_on_c, 2, 77, 0
8, 1440, Note_on_c, 2, 70, 76
8, 1440, Note_on_c, 2, 77, 76
8, 1559, Note_on_c, 2, 77, 0
8, 1560, Note_on_c, 2, 76, 76
8, 1664, Note_on_c, 2, 70, 0
8, 1664, Note_on_c, 2, 76, 0
8, 1680, Note_on_c, 2, 72, 76
8, 1680, Note_on_c, 2, 64, 76
8, 1769, Note_on_c, 2, 72, 0
8, 1769, Note_on_c, 2, 64, 0
8, 1800, Note_on_c, 2, 74, 76
8, 1800, Note_on_c, 2, 65, 76
8, 1889, Note_on_c, 2, 74, 0
8, 1889, Note_on_c, 2, 65, 0
8, 1920, Note_on_c, 2, 67, 76
8, 1920, Note_on_c, 2, 76, 76
8, 2009, Note_on_c, 2, 67, 0
8, 2009, Note_on_c, 2, 76, 0
8, 2040, Note_on_c, 2, 69, 76
8, 2040, Note_on_c, 2, 77, 76
8, 2129, Note_on_c, 2, 69, 0
8, 2129, Note_on_c, 2, 77, 0
8, 2160, Note_on_c, 2, 70, 76
8, 2160, Note_on_c, 2, 79, 76
8, 2399, Note_on_c, 2, 70, 0
8, 2399, Note_on_c, 2, 79, 0
8, 2880, Note_on_c, 2, 64, 48
8, 2880, Note_on_c, 2, 70, 48
8, 3119, Note_on_c, 2, 70, 0
8, 3120, Note_on_c, 2, 67, 48
8, 3239, Note_on_c, 2, 67, 0
8, 3240, Note_on_c, 2, 69, 48
8, 3359, Note_on_c, 2, 69, 0
8, 3360, Note_on_c, 2, 70, 48
8, 3479, Note_on_c, 2, 70, 0
8, 3480, Note_on_c, 2, 71, 48
8, 3599, Note_on_c, 2, 71, 0
8, 3600, Note_on_c, 2, 72, 48
8, 4064, Note_on_c, 2, 64, 0
8, 4079, Note_on_c, 2, 72, 0
8, 4080, Note_on_c, 2, 70, 48
8, 4080, Note_on_c, 2, 64, 48
8, 4304, Note_on_c, 2, 70, 0
8, 4304, Note_on_c, 2, 64, 0
8, 4320, Note_on_c, 2, 69, 48
8, 4320, Note_on_c, 2, 65, 48
8, 4439, Note_on_c, 2, 69, 0
8, 4440, Note_on_c, 2, 72, 48
8, 4544, Note_on_c, 2, 72, 0
8, 4559, Note_on_c, 2, 65, 0
8, 4560, Note_on_c, 2, 60, 48
8, 4560, Note_on_c, 2, 65, 48
8, 4799, Note_on_c, 2, 60, 0
8, 4799, Note_on_c, 2, 65, 0
8, 4800, Note_on_c, 2, 64, 48
8, 4800, Note_on_c, 2, 67, 48
8, 5024, Note_on_c, 2, 64, 0
8, 5024, Note_on_c, 2, 67, 0
8, 5040, Note_on_c, 2, 67, 48
8, 5040, Note_on_c, 2, 64, 48
8, 5519, Note_on_c, 2, 67, 0
8, 5519, Note_on_c, 2, 64, 0
8, 5520, Note_on_c, 2, 69, 48
8, 5520, Note_on_c, 2, 65, 48
8, 5759, Note_on_c, 2, 69, 0
8, 5759, Note_on_c, 2, 65, 0
8, 6480, Note_on_c, 2, 84, 76
8, 6480, Note_on_c, 2, 72, 76
8, 6944, Note_on_c, 2, 84, 0
8, 6944, Note_on_c, 2, 72, 0
8, 6960, Note_on_c, 2, 70, 76
8, 6960, Note_on_c, 2, 82, 76
8, 7184, Note_on_c, 2, 70, 0
8, 7184, Note_on_c, 2, 82, 0
8, 7200, Note_on_c, 2, 69, 76
8, 7200, Note_on_c, 2, 81, 76
8, 7319, Note_on_c, 2, 69, 0
8, 7319, Note_on_c, 2, 81, 0
8, 7440, Note_on_c, 2, 69, 76
8, 7440, Note_on_c, 2, 77, 76
8, 7559, Note_on_c, 2, 69, 0
8, 7559, Note_on_c, 2, 77, 0
8, 7680, Note_on_c, 2, 79, 76
8, 7680, Note_on_c, 2, 70, 76
8, 7799, Note_on_c, 2, 79, 0
8, 7799, Note_on_c, 2, 70, 0
8, 7920, Note_on_c, 2, 69, 76
8, 7920, Note_on_c, 2, 77, 76
8, 8159, Note_on_c, 2, 69, 0
8, 8159, Note_on_c, 2, 77, 0
8, 9300, Note_on_c, 2, 69, 76
8, 9300, Note_on_c, 2, 72, 76
8, 9351, Note_on_c, 2, 69, 0
8, 9351, Note_on_c, 2, 72, 0
8, 9360, Note_on_c, 2, 74, 76
8, 9360, Note_on_c, 2, 70, 76
8, 9599, Note_on_c, 2, 74, 0
8, 9599, Note_on_c, 2, 70, 0
8, 10740, Note_on_c, 2, 74, 76
8, 10740, Note_on_c, 2, 70, 76
8, 10791, Note_on_c, 2, 74, 0
8, 10791, Note_on_c, 2, 70, 0
8, 10800, Note_on_c, 2, 67, 76
8, 10800, Note_on_c, 2, 74, 76
8, 11039, Note_on_c, 2, 67, 0
8, 11039, Note_on_c, 2, 74, 0
8, 12180, Note_on_c, 2, 74, 76
8, 12180, Note_on_c, 2, 67, 76
8, 12231, Note_on_c, 2, 74, 0
8, 12231, Note_on_c, 2, 67, 0
8, 12240, Note_on_c, 2, 70, 76
8, 12240, Note_on_c, 2, 67, 76
8, 12704, Note_on_c, 2, 70, 0
8, 12704, Note_on_c, 2, 67, 0
8, 12720, Note_on_c, 2, 67, 76
8, 12720, Note_on_c, 2, 70, 76
8, 12839, Note_on_c, 2, 67, 0
8, 12839, Note_on_c, 2, 70, 0
8, 12960, Note_on_c, 2, 67, 76
8, 12960, Note_on_c, 2, 70, 76
8, 13079, Note_on_c, 2, 67, 0
8, 13079, Note_on_c, 2, 70, 0
8, 13200, Note_on_c, 2, 67, 76
8, 13200, Note_on_c, 2, 70, 76
8, 13319, Note_on_c, 2, 67, 0
8, 13319, Note_on_c, 2, 70, 0
8, 13440, Note_on_c, 2, 67, 76
8, 13440, Note_on_c, 2, 64, 76
8, 13559, Note_on_c, 2, 67, 0
8, 13559, Note_on_c, 2, 64, 0
8, 13680, Note_on_c, 2, 65, 76
8, 13680, Note_on_c, 2, 69, 76
8, 15051, Note_on_c, 2, 65, 0
8, 15051, Note_on_c, 2, 69, 0
8, 15060, Note_on_c, 2, 69, 76
8, 15060, Note_on_c, 2, 65, 76
8, 15111, Note_on_c, 2, 69, 0
8, 15111, Note_on_c, 2, 65, 0
8, 15120, Note_on_c, 2, 70, 76
8, 15120, Note_on_c, 2, 65, 76
8, 16491, Note_on_c, 2, 70, 0
8, 16491, Note_on_c, 2, 65, 0
8, 16500, Note_on_c, 2, 70, 76
8, 16500, Note_on_c, 2, 65, 76
8, 16551, Note_on_c, 2, 70, 0
8, 16551, Note_on_c, 2, 65, 0
8, 16560, Note_on_c, 2, 68, 76
8, 16560, Note_on_c, 2, 74, 76
8, 17931, Note_on_c, 2, 68, 0
8, 17931, Note_on_c, 2, 74, 0
8, 17940, Note_on_c, 2, 74, 76
8, 17940, Note_on_c, 2, 68, 76
8, 17991, Note_on_c, 2, 74, 0
8, 17991, Note_on_c, 2, 68, 0
8, 18000, Note_on_c, 2, 74, 76
8, 18000, Note_on_c, 2, 68, 76
8, 19371, Note_on_c, 2, 74, 0
8, 19371, Note_on_c, 2, 68, 0
8, 19380, Note_on_c, 2, 68, 76
8, 19380, Note_on_c, 2, 74, 76
8, 19431, Note_on_c, 2, 68, 0
8, 19431, Note_on_c, 2, 74, 0
8, 19440, Note_on_c, 2, 74, 76
8, 19440, Note_on_c, 2, 68, 76
8, 19904, Note_on_c, 2, 74, 0
8, 19904, Note_on_c, 2, 68, 0
8, 19920, Note_on_c, 2, 68, 84
8, 19920, Note_on_c, 2, 74, 84
8, 20091, Note_on_c, 2, 68, 0
8, 20091, Note_on_c, 2, 74, 0
8, 20100, Note_on_c, 2, 74, 76
8, 20100, Note_on_c, 2, 68, 76
8, 20151, Note_on_c, 2, 74, 0
8, 20151, Note_on_c, 2, 68, 0
8, 20160, Note_on_c, 2, 68, 76
8, 20160, Note_on_c, 2, 74, 76
8, 20624, Note_on_c, 2, 68, 0
8, 20624, Note_on_c, 2, 74, 0
8, 20640, Note_on_c, 2, 68, 84
8, 20640, Note_on_c, 2, 74, 84
8, 20811, Note_on_c, 2, 68, 0
8, 20811, Note_on_c, 2, 74, 0
8, 20820, Note_on_c, 2, 68, 76
8, 20820, Note_on_c, 2, 74, 76
8, 20871, Note_on_c, 2, 68, 0
8, 20871, Note_on_c, 2, 74, 0
8, 20880, Note_on_c, 2, 68, 76
8, 20880, Note_on_c, 2, 74, 76
8, 20999, Note_on_c, 2, 68, 0
8, 20999, Note_on_c, 2, 74, 0
8, 21360, Note_on_c, 2, 68, 84
8, 21360, Note_on_c, 2, 74, 84
8, 21479, Note_on_c, 2, 68, 0
8, 21479, Note_on_c, 2, 74, 0
8, 21600, Note_on_c, 2, 68, 76
8, 21600, Note_on_c, 2, 74, 76
8, 21719, Note_on_c, 2, 68, 0
8, 21719, Note_on_c, 2, 74, 0
8, 22080, Note_on_c, 2, 74, 84
8, 22080, Note_on_c, 2, 68, 84
8, 22199, Note_on_c, 2, 74, 0
8, 22199, Note_on_c, 2, 68, 0
8, 22320, Note_on_c, 2, 74, 76
8, 22320, Note_on_c, 2, 68, 76
8, 22439, Note_on_c, 2, 74, 0
8, 22439, Note_on_c, 2, 68, 0
8, 43920, Note_on_c, 2, 67, 84
8, 43920, Note_on_c, 2, 64, 84
8, 44099, Note_on_c, 2, 67, 0
8, 44099, Note_on_c, 2, 64, 0
8, 44640, Note_on_c, 2, 68, 84
8, 44640, Note_on_c, 2, 65, 84
8, 44819, Note_on_c, 2, 68, 0
8, 44819, Note_on_c, 2, 65, 0
8, 45360, Note_on_c, 2, 69, 84
8, 45360, Note_on_c, 2, 66, 84
8, 45539, Note_on_c, 2, 69, 0
8, 45539, Note_on_c, 2, 66, 0
8, 46080, Note_on_c, 2, 71, 84
8, 46080, Note_on_c, 2, 67, 84
8, 46259, Note_on_c, 2, 71, 0
8, 46259, Note_on_c, 2, 67, 0
8, 46560, Note_on_c, 2, 71, 76
8, 46560, Note_on_c, 2, 67, 76
8, 46739, Note_on_c, 2, 71, 0
8, 46739, Note_on_c, 2, 67, 0
8, 46800, Note_on_c, 2, 74, 84
8, 46800, Note_on_c, 2, 71, 84
8, 46979, Note_on_c, 2, 74, 0
8, 46979, Note_on_c, 2, 71, 0
8, 47280, Note_on_c, 2, 74, 84
8, 47280, Note_on_c, 2, 71, 84
8, 47459, Note_on_c, 2, 74, 0
8, 47459, Note_on_c, 2, 71, 0
8, 47520, Note_on_c, 2, 72, 84
8, 47520, Note_on_c, 2, 76, 84
8, 47699, Note_on_c, 2, 72, 0
8, 47699, Note_on_c, 2, 76, 0
8, 48000, Note_on_c, 2, 81, 84
8, 48000, Note_on_c, 2, 69, 84
8, 48179, Note_on_c, 2, 81, 0
8, 48179, Note_on_c, 2, 69, 0
8, 48240, Note_on_c, 2, 77, 84
8, 48240, Note_on_c, 2, 65, 84
8, 48419, Note_on_c, 2, 77, 0
8, 48419, Note_on_c, 2, 65, 0
8, 48720, Note_on_c, 2, 74, 84
8, 48720, Note_on_c, 2, 62, 84
8, 48899, Note_on_c, 2, 74, 0
8, 48899, Note_on_c, 2, 62, 0
8, 48960, Note_on_c, 2, 79, 84
8, 48960, Note_on_c, 2, 67, 84
8, 49139, Note_on_c, 2, 79, 0
8, 49139, Note_on_c, 2, 67, 0
8, 49440, Note_on_c, 2, 67, 84
8, 49619, Note_on_c, 2, 67, 0
8, 49680, Note_on_c, 2, 64, 84
8, 49680, Note_on_c, 2, 67, 84
8, 49851, Note_on_c, 2, 64, 0
8, 49851, Note_on_c, 2, 67, 0
8, 49860, Note_on_c, 2, 67, 84
8, 49860, Note_on_c, 2, 64, 84
8, 49911, Note_on_c, 2, 67, 0
8, 49911, Note_on_c, 2, 64, 0
8, 49920, Note_on_c, 2, 68, 84
8, 49920, Note_on_c, 2, 65, 84
8, 50099, Note_on_c, 2, 68, 0
8, 50099, Note_on_c, 2, 65, 0
8, 50160, Note_on_c, 2, 65, 84
8, 50160, Note_on_c, 2, 68, 84
8, 50331, Note_on_c, 2, 65, 0
8, 50331, Note_on_c, 2, 68, 0
8, 50340, Note_on_c, 2, 68, 84
8, 50340, Note_on_c, 2, 65, 84
8, 50391, Note_on_c, 2, 68, 0
8, 50391, Note_on_c, 2, 65, 0
8, 50400, Note_on_c, 2, 64, 84
8, 50400, Note_on_c, 2, 67, 84
8, 50579, Note_on_c, 2, 64, 0
8, 50579, Note_on_c, 2, 67, 0
8, 50640, Note_on_c, 2, 69, 84
8, 50640, Note_on_c, 2, 65, 84
8, 50811, Note_on_c, 2, 69, 0
8, 50811, Note_on_c, 2, 65, 0
8, 50820, Note_on_c, 2, 69, 84
8, 50820, Note_on_c, 2, 65, 84
8, 50871, Note_on_c, 2, 69, 0
8, 50871, Note_on_c, 2, 65, 0
8, 50880, Note_on_c, 2, 64, 84
8, 50880, Note_on_c, 2, 67, 84
8, 51059, Note_on_c, 2, 64, 0
8, 51059, Note_on_c, 2, 67, 0
8, 51120, Note_on_c, 2, 65, 84
8, 51120, Note_on_c, 2, 69, 84
8, 51291, Note_on_c, 2, 65, 0
8, 51291, Note_on_c, 2, 69, 0
8, 51300, Note_on_c, 2, 65, 84
8, 51300, Note_on_c, 2, 69, 84
8, 51351, Note_on_c, 2, 65, 0
8, 51351, Note_on_c, 2, 69, 0
8, 51360, Note_on_c, 2, 67, 84
8, 51360, Note_on_c, 2, 64, 84
8, 51539, Note_on_c, 2, 67, 0
8, 51539, Note_on_c, 2, 64, 0
8, 53760, Note_on_c, 2, 67, 48
8, 53760, Note_on_c, 2, 79, 48
8, 53999, Note_on_c, 2, 67, 0
8, 53999, Note_on_c, 2, 79, 0
8, 54000, Note_on_c, 2, 65, 48
8, 54000, Note_on_c, 2, 77, 48
8, 54479, Note_on_c, 2, 65, 0
8, 54479, Note_on_c, 2, 77, 0
8, 54480, Note_on_c, 2, 76, 48
8, 54480, Note_on_c, 2, 64, 48
8, 54719, Note_on_c, 2, 76, 0
8, 54719, Note_on_c, 2, 64, 0
8, 54720, Note_on_c, 2, 62, 48
8, 54720, Note_on_c, 2, 74, 48
8, 55199, Note_on_c, 2, 62, 0
8, 55199, Note_on_c, 2, 74, 0
8, 55200, Note_on_c, 2, 72, 48
8, 55200, Note_on_c, 2, 60, 48
8, 55424, Note_on_c, 2, 72, 0
8, 55424, Note_on_c, 2, 60, 0
8, 55440, Note_on_c, 2, 60, 48
8, 55440, Note_on_c, 2, 72, 48
8, 55919, Note_on_c, 2, 60, 0
8, 55919, Note_on_c, 2, 72, 0
8, 55920, Note_on_c, 2, 69, 48
8, 55920, Note_on_c, 2, 65, 48
8, 56159, Note_on_c, 2, 69, 0
8, 56159, Note_on_c, 2, 65, 0
8, 56160, Note_on_c, 2, 67, 48
8, 56160, Note_on_c, 2, 64, 48
8, 56639, Note_on_c, 2, 67, 0
8, 56639, Note_on_c, 2, 64, 0
8, 56640, Note_on_c, 2, 71, 48
8, 56640, Note_on_c, 2, 62, 48
8, 56864, Note_on_c, 2, 71, 0
8, 56864, Note_on_c, 2, 62, 0
8, 56880, Note_on_c, 2, 64, 84
8, 56880, Note_on_c, 2, 67, 84
8, 57051, Note_on_c, 2, 64, 0
8, 57051, Note_on_c, 2, 67, 0
8, 57060, Note_on_c, 2, 64, 84
8, 57060, Note_on_c, 2, 67, 84
8, 57111, Note_on_c, 2, 64, 0
8, 57111, Note_on_c, 2, 67, 0
8, 57120, Note_on_c, 2, 65, 84
8, 57120, Note_on_c, 2, 68, 84
8, 57299, Note_on_c, 2, 65, 0
8, 57299, Note_on_c, 2, 68, 0
8, 57360, Note_on_c, 2, 65, 84
8, 57360, Note_on_c, 2, 68, 84
8, 57531, Note_on_c, 2, 65, 0
8, 57531, Note_on_c, 2, 68, 0
8, 57540, Note_on_c, 2, 68, 84
8, 57540, Note_on_c, 2, 65, 84
8, 57591, Note_on_c, 2, 68, 0
8, 57591, Note_on_c, 2, 65, 0
8, 57600, Note_on_c, 2, 67, 84
8, 57600, Note_on_c, 2, 64, 84
8, 57779, Note_on_c, 2, 67, 0
8, 57779, Note_on_c, 2, 64, 0
8, 57840, Note_on_c, 2, 69, 84
8, 57840, Note_on_c, 2, 65, 84
8, 58011, Note_on_c, 2, 69, 0
8, 58011, Note_on_c, 2, 65, 0
8, 58020, Note_on_c, 2, 69, 84
8, 58020, Note_on_c, 2, 65, 84
8, 58071, Note_on_c, 2, 69, 0
8, 58071, Note_on_c, 2, 65, 0
8, 58080, Note_on_c, 2, 64, 84
8, 58080, Note_on_c, 2, 67, 84
8, 58259, Note_on_c, 2, 64, 0
8, 58259, Note_on_c, 2, 67, 0
8, 58320, Note_on_c, 2, 65, 84
8, 58320, Note_on_c, 2, 69, 84
8, 58491, Note_on_c, 2, 65, 0
8, 58491, Note_on_c, 2, 69, 0
8, 58500, Note_on_c, 2, 65, 84
8, 58500, Note_on_c, 2, 69, 84
8, 58551, Note_on_c, 2, 65, 0
8, 58551, Note_on_c, 2, 69, 0
8, 58560, Note_on_c, 2, 64, 84
8, 58560, Note_on_c, 2, 67, 84
8, 58739, Note_on_c, 2, 64, 0
8, 58739, Note_on_c, 2, 67, 0
8, 60240, Note_on_c, 2, 67, 48
8, 60240, Note_on_c, 2, 79, 48
8, 60479, Note_on_c, 2, 67, 0
8, 60479, Note_on_c, 2, 79, 0
8, 60480, Note_on_c, 2, 65, 48
8, 60480, Note_on_c, 2, 77, 48
8, 60959, Note_on_c, 2, 65, 0
8, 60959, Note_on_c, 2, 77, 0
8, 60960, Note_on_c, 2, 76, 48
8, 60960, Note_on_c, 2, 64, 48
8, 61199, Note_on_c, 2, 76, 0
8, 61199, Note_on_c, 2, 64, 0
8, 61200, Note_on_c, 2, 74, 48
8, 61200, Note_on_c, 2, 62, 48
8, 61679, Note_on_c, 2, 74, 0
8, 61679, Note_on_c, 2, 62, 0
8, 61680, Note_on_c, 2, 72, 48
8, 61680, Note_on_c, 2, 60, 48
8, 61919, Note_on_c, 2, 72, 0
8, 61919, Note_on_c, 2, 60, 0
8, 61920, Note_on_c, 2, 71, 48
8, 61920, Note_on_c, 2, 59, 48
8, 62399, Note_on_c, 2, 71, 0
8, 62399, Note_on_c, 2, 59, 0
8, 62400, Note_on_c, 2, 70, 48
8, 62400, Note_on_c, 2, 58, 48
8, 62639, Note_on_c, 2, 70, 0
8, 62639, Note_on_c, 2, 58, 0
8, 62640, Note_on_c, 2, 69, 48
8, 62640, Note_on_c, 2, 57, 48
8, 63119, Note_on_c, 2, 69, 0
8, 63119, Note_on_c, 2, 57, 0
8, 63120, Note_on_c, 2, 77, 48
8, 63120, Note_on_c, 2, 69, 48
8, 63359, Note_on_c, 2, 77, 0
8, 63359, Note_on_c, 2, 69, 0
8, 63360, Note_on_c, 2, 67, 48
8, 63360, Note_on_c, 2, 76, 48
8, 63839, Note_on_c, 2, 67, 0
8, 63839, Note_on_c, 2, 76, 0
8, 63840, Note_on_c, 2, 71, 48
8, 63840, Note_on_c, 2, 74, 48
8, 64064, Note_on_c, 2, 71, 0
8, 64064, Note_on_c, 2, 74, 0
8, 64080, Note_on_c, 2, 72, 48
8, 64080, Note_on_c, 2, 65, 48
8, 64319, Note_on_c, 2, 72, 0
8, 64319, Note_on_c, 2, 65, 0
8, 64800, Control_c, 2, 11, 80
8, 65040, Control_c, 2, 11, 88
8, 65040, Note_on_c, 2, 77, 76
8, 65040, Note_on_c, 2, 74, 76
8, 65080, Control_c, 2, 11, 91
8, 65120, Control_c, 2, 11, 95
8, 65160, Control_c, 2, 11, 98
8, 65200, Control_c, 2, 11, 101
8, 65240, Control_c, 2, 11, 104
8, 65280, Control_c, 2, 11, 108
8, 65320, Control_c, 2, 11, 111
8, 65360, Control_c, 2, 11, 114
8, 65399, Note_on_c, 2, 77, 0
8, 65399, Note_on_c, 2, 74, 0
8, 65400, Control_c, 2, 11, 117
8, 65400, Note_on_c, 2, 76, 76
8, 65400, Note_on_c, 2, 79, 76
8, 65440, Control_c, 2, 11, 121
8, 65480, Control_c, 2, 11, 127
8, 65504, Note_on_c, 2, 76, 0
8, 65504, Note_on_c, 2, 79, 0
8, 65520, Note_on_c, 2, 72, 76
8, 65520, Note_on_c, 2, 76, 76
8, 65699, Note_on_c, 2, 72, 0
8, 65699, Note_on_c, 2, 76, 0
8, 65760, Note_on_c, 2, 76, 84
8, 66119, Note_on_c, 2, 76, 0
8, 66120, Note_on_c, 2, 72, 76
8, 66224, Note_on_c, 2, 72, 0
8, 66240, Note_on_c, 2, 71, 84
8, 66240, Note_on_c, 2, 67, 84
8, 66479, Note_on_c, 2, 71, 0
8, 66479, Note_on_c, 2, 67, 0
8, 66600, Note_on_c, 2, 79, 76
8, 66600, Note_on_c, 2, 67, 76
8, 66689, Note_on_c, 2, 79, 0
8, 66689, Note_on_c, 2, 67, 0
8, 66720, Note_on_c, 2, 67, 76
8, 66720, Note_on_c, 2, 79, 76
8, 66809, Note_on_c, 2, 67, 0
8, 66809, Note_on_c, 2, 79, 0
8, 66840, Note_on_c, 2, 77, 76
8, 66840, Note_on_c, 2, 65, 76
8, 66929, Note_on_c, 2, 77, 0
8, 66929, Note_on_c, 2, 65, 0
8, 66960, Note_on_c, 2, 76, 84
8, 66960, Note_on_c, 2, 64, 84
8, 67139, Note_on_c, 2, 76, 0
8, 67139, Note_on_c, 2, 64, 0
8, 67320, Note_on_c, 2, 72, 76
8, 67320, Note_on_c, 2, 64, 76
8, 67409, Note_on_c, 2, 72, 0
8, 67409, Note_on_c, 2, 64, 0
8, 67440, Note_on_c, 2, 64, 76
8, 67440, Note_on_c, 2, 72, 76
8, 67529, Note_on_c, 2, 64, 0
8, 67529, Note_on_c, 2, 72, 0
8, 67560, Note_on_c, 2, 64, 76
8, 67560, Note_on_c, 2, 72, 76
8, 67649, Note_on_c, 2, 64, 0
8, 67649, Note_on_c, 2, 72, 0
8, 67680, Note_on_c, 2, 71, 84
8, 67680, Note_on_c, 2, 65, 84
8, 67859, Note_on_c, 2, 71, 0
8, 67859, Note_on_c, 2, 65, 0
8, 68040, Note_on_c, 2, 67, 76
8, 68040, Note_on_c, 2, 79, 76
8, 68129, Note_on_c, 2, 67, 0
8, 68129, Note_on_c, 2, 79, 0
8, 68160, Note_on_c, 2, 79, 76
8, 68160, Note_on_c, 2, 67, 76
8, 68249, Note_on_c, 2, 79, 0
8, 68249, Note_on_c, 2, 67, 0
8, 68280, Note_on_c, 2, 77, 76
8, 68280, Note_on_c, 2, 65, 76
8, 68369, Note_on_c, 2, 77, 0
8, 68369, Note_on_c, 2, 65, 0
8, 68400, Note_on_c, 2, 72, 84
8, 68400, Note_on_c, 2, 76, 84
8, 71264, Note_on_c, 2, 72, 0
8, 71264, Note_on_c, 2, 76, 0
8, 71280, Note_on_c, 2, 72, 92
8, 71519, Note_on_c, 2, 72, 0
8, 72000, Note_on_c, 2, 72, 92
8, 72000, Note_on_c, 2, 60, 92
8, 72239, Note_on_c, 2, 72, 0
8, 72239, Note_on_c, 2, 60, 0
8, 72720, Note_on_c, 2, 72, 92
8, 72720, Note_on_c, 2, 60, 92
8, 72959, Note_on_c, 2, 72, 0
8, 72959, Note_on_c, 2, 60, 0
8, 73440, Note_on_c, 2, 72, 92
8, 73440, Note_on_c, 2, 60, 92
8, 73679, Note_on_c, 2, 72, 0
8, 73679, Note_on_c, 2, 60, 0
8, 73800, Note_on_c, 2, 79, 84
8, 73800, Note_on_c, 2, 70, 84
8, 73904, Note_on_c, 2, 79, 0
8, 73904, Note_on_c, 2, 70, 0
8, 73920, Note_on_c, 2, 79, 84
8, 73920, Note_on_c, 2, 70, 84
8, 74024, Note_on_c, 2, 79, 0
8, 74024, Note_on_c, 2, 70, 0
8, 74040, Note_on_c, 2, 79, 84
8, 74040, Note_on_c, 2, 70, 84
8, 74144, Note_on_c, 2, 79, 0
8, 74144, Note_on_c, 2, 70, 0
8, 74160, Note_on_c, 2, 69, 76
8, 74160, Note_on_c, 2, 77, 76
8, 75344, Note_on_c, 2, 69, 0
8, 75344, Note_on_c, 2, 77, 0
8, 75360, Note_on_c, 2, 69, 76
8, 75360, Note_on_c, 2, 72, 76
8, 75449, Note_on_c, 2, 69, 0
8, 75449, Note_on_c, 2, 72, 0
8, 75480, Note_on_c, 2, 69, 76
8, 75480, Note_on_c, 2, 77, 76
8, 75569, Note_on_c, 2, 69, 0
8, 75569, Note_on_c, 2, 77, 0
8, 75600, Note_on_c, 2, 77, 76
8, 75600, Note_on_c, 2, 70, 76
8, 75719, Note_on_c, 2, 77, 0
8, 75720, Note_on_c, 2, 76, 76
8, 75824, Note_on_c, 2, 70, 0
8, 75824, Note_on_c, 2, 76, 0
8, 75840, Note_on_c, 2, 72, 76
8, 75840, Note_on_c, 2, 64, 76
8, 75929, Note_on_c, 2, 72, 0
8, 75929, Note_on_c, 2, 64, 0
8, 75960, Note_on_c, 2, 65, 76
8, 75960, Note_on_c, 2, 74, 76
8, 76049, Note_on_c, 2, 65, 0
8, 76049, Note_on_c, 2, 74, 0
8, 76080, Note_on_c, 2, 76, 76
8, 76080, Note_on_c, 2, 67, 76
8, 76169, Note_on_c, 2, 76, 0
8, 76169, Note_on_c, 2, 67, 0
8, 76200, Note_on_c, 2, 69, 76
8, 76200, Note_on_c, 2, 77, 76
8, 76289, Note_on_c, 2, 69, 0
8, 76289, Note_on_c, 2, 77, 0
8, 76320, Note_on_c, 2, 70, 76
8, 76320, Note_on_c, 2, 79, 76
8, 76559, Note_on_c, 2, 70, 0
8, 76559, Note_on_c, 2, 79, 0
8, 77040, Note_on_c, 2, 64, 48
8, 77040, Note_on_c, 2, 70, 48
8, 77279, Note_on_c, 2, 70, 0
8, 77280, Note_on_c, 2, 67, 48
8, 77399, Note_on_c, 2, 67, 0
8, 77400, Note_on_c, 2, 69, 48
8, 77519, Note_on_c, 2, 69, 0
8, 77520, Note_on_c, 2, 70, 48
8, 77639, Note_on_c, 2, 70, 0
8, 77640, Note_on_c, 2, 71, 48
8, 77759, Note_on_c, 2, 71, 0
8, 77760, Note_on_c, 2, 72, 48
8, 78224, Note_on_c, 2, 64, 0
8, 78239, Note_on_c, 2, 72, 0
8, 78240, Note_on_c, 2, 70, 48
8, 78240, Note_on_c, 2, 64, 48
8, 78464, Note_on_c, 2, 70, 0
8, 78464, Note_on_c, 2, 64, 0
8, 78480, Note_on_c, 2, 69, 48
8, 78480, Note_on_c, 2, 65, 48
8, 78599, Note_on_c, 2, 69, 0
8, 78600, Note_on_c, 2, 72, 48
8, 78704, Note_on_c, 2, 72, 0
8, 78719, Note_on_c, 2, 65, 0
8, 78720, Note_on_c, 2, 60, 48
8, 78720, Note_on_c, 2, 65, 48
8, 78959, Note_on_c, 2, 60, 0
8, 78959, Note_on_c, 2, 65, 0
8, 78960, Note_on_c, 2, 67, 48
8, 78960, Note_on_c, 2, 64, 48
8, 79184, Note_on_c, 2, 67, 0
8, 79184, Note_on_c, 2, 64, 0
8, 79200, Note_on_c, 2, 64, 48
8, 79200, Note_on_c, 2, 67, 48
8, 79679, Note_on_c, 2, 64, 0
8, 79679, Note_on_c, 2, 67, 0
8, 79680, Note_on_c, 2, 69, 48
8, 79680, Note_on_c, 2, 65, 48
8, 79919, Note_on_c, 2, 69, 0
8, 79919, Note_on_c, 2, 65, 0
8, 80640, Note_on_c, 2, 84, 76
8, 80640, Note_on_c, 2, 72, 76
8, 81104, Note_on_c, 2, 84, 0
8, 81104, Note_on_c, 2, 72, 0
8, 81120, Note_on_c, 2, 82, 76
8, 81120, Note_on_c, 2, 70, 76
8, 81344, Note_on_c, 2, 82, 0
8, 81344, Note_on_c, 2, 70, 0
8, 81360, Note_on_c, 2, 81, 76
8, 81360, Note_on_c, 2, 69, 76
8, 81479, Note_on_c, 2, 81, 0
8, 81479, Note_on_c, 2, 69, 0
8, 81600, Note_on_c, 2, 69, 76
8, 81600, Note_on_c, 2, 77, 76
8, 81719, Note_on_c, 2, 69, 0
8, 81719, Note_on_c, 2, 77, 0
8, 81840, Note_on_c, 2, 70, 76
8, 81840, Note_on_c, 2, 79, 76
8, 81959, Note_on_c, 2, 70, 0
8, 81959, Note_on_c, 2, 79, 0
8, 82080, Note_on_c, 2, 77, 76
8, 82080, Note_on_c, 2, 69, 76
8, 82319, Note_on_c, 2, 77, 0
8, 82319, Note_on_c, 2, 69, 0
8, 83460, Note_on_c, 2, 72, 76
8, 83460, Note_on_c, 2, 69, 76
8, 83511, Note_on_c, 2, 72, 0
8, 83511, Note_on_c, 2, 69, 0
8, 83520, Note_on_c, 2, 70, 76
8, 83520, Note_on_c, 2, 74, 76
8, 83759, Note_on_c, 2, 70, 0
8, 83759, Note_on_c, 2, 74, 0
8, 84900, Note_on_c, 2, 74, 76
8, 84900, Note_on_c, 2, 70, 76
8, 84951, Note_on_c, 2, 74, 0
8, 84951, Note_on_c, 2, 70, 0
8, 84960, Note_on_c, 2, 74, 76
8, 84960, Note_on_c, 2, 67, 76
8, 85199, Note_on_c, 2, 74, 0
8, 85199, Note_on_c, 2, 67, 0
8, 86340, Note_on_c, 2, 74, 76
8, 86340, Note_on_c, 2, 67, 76
8, 86391, Note_on_c, 2, 74, 0
8, 86391, Note_on_c, 2, 67, 0
8, 86400, Note_on_c, 2, 67, 76
8, 86400, Note_on_c, 2, 70, 76
8, 86864, Note_on_c, 2, 67, 0
8, 86864, Note_on_c, 2, 70, 0
8, 86880, Note_on_c, 2, 70, 76
8, 86880, Note_on_c, 2, 67, 76
8, 86999, Note_on_c, 2, 70, 0
8, 86999, Note_on_c, 2, 67, 0
8, 87120, Note_on_c, 2, 70, 76
8, 87120, Note_on_c, 2, 67, 76
8, 87239, Note_on_c, 2, 70, 0
8, 87239, Note_on_c, 2, 67, 0
8, 87360, Note_on_c, 2, 67, 76
8, 87360, Note_on_c, 2, 70, 76
8, 87479, Note_on_c, 2, 67, 0
8, 87479, Note_on_c, 2, 70, 0
8, 87600, Note_on_c, 2, 67, 76
8, 87600, Note_on_c, 2, 64, 76
8, 87719, Note_on_c, 2, 67, 0
8, 87719, Note_on_c, 2, 64, 0
8, 87840, Note_on_c, 2, 69, 76
8, 87840, Note_on_c, 2, 65, 76
8, 89211, Note_on_c, 2, 69, 0
8, 89211, Note_on_c, 2, 65, 0
8, 89220, Note_on_c, 2, 69, 76
8, 89220, Note_on_c, 2, 65, 76
8, 89271, Note_on_c, 2, 69, 0
8, 89271, Note_on_c, 2, 65, 0
8, 89280, Note_on_c, 2, 70, 76
8, 89280, Note_on_c, 2, 65, 76
8, 90651, Note_on_c, 2, 70, 0
8, 90651, Note_on_c, 2, 65, 0
8, 90660, Note_on_c, 2, 70, 76
8, 90660, Note_on_c, 2, 65, 76
8, 90711, Note_on_c, 2, 70, 0
8, 90711, Note_on_c, 2, 65, 0
8, 90720, Note_on_c, 2, 74, 76
8, 90720, Note_on_c, 2, 68, 76
8, 92091, Note_on_c, 2, 74, 0
8, 92091, Note_on_c, 2, 68, 0
8, 92100, Note_on_c, 2, 68, 76
8, 92100, Note_on_c, 2, 74, 76
8, 92151, Note_on_c, 2, 68, 0
8, 92151, Note_on_c, 2, 74, 0
8, 92160, Note_on_c, 2, 74, 76
8, 92160, Note_on_c, 2, 68, 76
8, 93531, Note_on_c, 2, 74, 0
8, 93531, Note_on_c, 2, 68, 0
8, 93540, Note_on_c, 2, 74, 76
8, 93540, Note_on_c, 2, 68, 76
8, 93591, Note_on_c, 2, 74, 0
8, 93591, Note_on_c, 2, 68, 0
8, 93600, Note_on_c, 2, 74, 76
8, 93600, Note_on_c, 2, 68, 76
8, 94064, Note_on_c, 2, 74, 0
8, 94064, Note_on_c, 2, 68, 0
8, 94080, Note_on_c, 2, 68, 84
8, 94080, Note_on_c, 2, 74, 84
8, 94251, Note_on_c, 2, 68, 0
8, 94251, Note_on_c, 2, 74, 0
8, 94260, Note_on_c, 2, 68, 76
8, 94260, Note_on_c, 2, 74, 76
8, 94311, Note_on_c, 2, 68, 0
8, 94311, Note_on_c, 2, 74, 0
8, 94320, Note_on_c, 2, 74, 76
8, 94320, Note_on_c, 2, 68, 76
8, 94784, Note_on_c, 2, 74, 0
8, 94784, Note_on_c, 2, 68, 0
8, 94800, Note_on_c, 2, 74, 84
8, 94800, Note_on_c, 2, 68, 84
8, 94971, Note_on_c, 2, 74, 0
8, 94971, Note_on_c, 2, 68, 0
8, 94980, Note_on_c, 2, 74, 76
8, 94980, Note_on_c, 2, 68, 76
8, 95031, Note_on_c, 2, 74, 0
8, 95031, Note_on_c, 2, 68, 0
8, 95040, Note_on_c, 2, 74, 76
8, 95040, Note_on_c, 2, 68, 76
8, 95159, Note_on_c, 2, 74, 0
8, 95159, Note_on_c, 2, 68, 0
8, 95520, Note_on_c, 2, 74, 84
8, 95520, Note_on_c, 2, 68, 84
8, 95639, Note_on_c, 2, 74, 0
8, 95639, Note_on_c, 2, 68, 0
8, 95760, Note_on_c, 2, 74, 76
8, 95760, Note_on_c, 2, 68, 76
8, 95879, Note_on_c, 2, 74, 0
8, 95879, Note_on_c, 2, 68, 0
8, 96240, Note_on_c, 2, 68, 84
8, 96240, Note_on_c, 2, 74, 84
8, 96359, Note_on_c, 2, 68, 0
8, 96359, Note_on_c, 2, 74, 0
8, 96480, Note_on_c, 2, 74, 76
8, 96480, Note_on_c, 2, 68, 76
8, 96599, Note_on_c, 2, 74, 0
8, 96599, Note_on_c, 2, 68, 0
8, 118080, Note_on_c, 2, 67, 84
8, 118080, Note_on_c, 2, 64, 84
8, 118259, Note_on_c, 2, 67, 0
8, 118259, Note_on_c, 2, 64, 0
8, 118800, Note_on_c, 2, 65, 84
8, 118800, Note_on_c, 2, 68, 84
8, 118979, Note_on_c, 2, 65, 0
8, 118979, Note_on_c, 2, 68, 0
8, 119520, Note_on_c, 2, 66, 84
8, 119520, Note_on_c, 2, 69, 84
8, 119699, Note_on_c, 2, 66, 0
8, 119699, Note_on_c, 2, 69, 0
8, 120240, Note_on_c, 2, 71, 84
8, 120240, Note_on_c, 2, 67, 84
8, 120419, Note_on_c, 2, 71, 0
8, 120419, Note_on_c, 2, 67, 0
8, 120720, Note_on_c, 2, 71, 76
8, 120720, Note_on_c, 2, 67, 76
8, 120899, Note_on_c, 2, 71, 0
8, 120899, Note_on_c, 2, 67, 0
8, 120960, Note_on_c, 2, 71, 84
8, 120960, Note_on_c, 2, 74, 84
8, 121139, Note_on_c, 2, 71, 0
8, 121139, Note_on_c, 2, 74, 0
8, 121440, Note_on_c, 2, 71, 84
8, 121440, Note_on_c, 2, 74, 84
8, 121619, Note_on_c, 2, 71, 0
8, 121619, Note_on_c, 2, 74, 0
8, 121680, Note_on_c, 2, 72, 84
8, 121680, Note_on_c, 2, 76, 84
8, 121859, Note_on_c, 2, 72, 0
8, 121859, Note_on_c, 2, 76, 0
8, 122160, Note_on_c, 2, 69, 84
8, 122160, Note_on_c, 2, 81, 84
8, 122339, Note_on_c, 2, 69, 0
8, 122339, Note_on_c, 2, 81, 0
8, 122400, Note_on_c, 2, 65, 84
8, 122400, Note_on_c, 2, 77, 84
8, 122579, Note_on_c, 2, 65, 0
8, 122579, Note_on_c, 2, 77, 0
8, 122880, Note_on_c, 2, 62, 84
8, 122880, Note_on_c, 2, 74, 84
8, 123059, Note_on_c, 2, 62, 0
8, 123059, Note_on_c, 2, 74, 0
8, 123120, Note_on_c, 2, 67, 84
8, 123120, Note_on_c, 2, 79, 84
8, 123299, Note_on_c, 2, 67, 0
8, 123299, Note_on_c, 2, 79, 0
8, 123600, Note_on_c, 2, 67, 84
8, 123779, Note_on_c, 2, 67, 0
8, 123840, Note_on_c, 2, 67, 84
8, 123840, Note_on_c, 2, 64, 84
8, 124011, Note_on_c, 2, 67, 0
8, 124011, Note_on_c, 2, 64, 0
8, 124020, Note_on_c, 2, 64, 84
8, 124020, Note_on_c, 2, 67, 84
8, 124071, Note_on_c, 2, 64, 0
8, 124071, Note_on_c, 2, 67, 0
8, 124080, Note_on_c, 2, 68, 84
8, 124080, Note_on_c, 2, 65, 84
8, 124259, Note_on_c, 2, 68, 0
8, 124259, Note_on_c, 2, 65, 0
8, 124320, Note_on_c, 2, 68, 84
8, 124320, Note_on_c, 2, 65, 84
8, 124491, Note_on_c, 2, 68, 0
8, 124491, Note_on_c, 2, 65, 0
8, 124500, Note_on_c, 2, 65, 84
8, 124500, Note_on_c, 2, 68, 84
8, 124551, Note_on_c, 2, 65, 0
8, 124551, Note_on_c, 2, 68, 0
8, 124560, Note_on_c, 2, 67, 84
8, 124560, Note_on_c, 2, 64, 84
8, 124739, Note_on_c, 2, 67, 0
8, 124739, Note_on_c, 2, 64, 0
8, 124800, Note_on_c, 2, 65, 84
8, 124800, Note_on_c, 2, 69, 84
8, 124971, Note_on_c, 2, 65, 0
8, 124971, Note_on_c, 2, 69, 0
8, 124980, Note_on_c, 2, 69, 84
8, 124980, Note_on_c, 2, 65, 84
8, 125031, Note_on_c, 2, 69, 0
8, 125031, Note_on_c, 2, 65, 0
8, 125040, Note_on_c, 2, 64, 84
8, 125040, Note_on_c, 2, 67, 84
8, 125219, Note_on_c, 2, 64, 0
8, 125219, Note_on_c, 2, 67, 0
8, 125280, Note_on_c, 2, 65, 84
8, 125280, Note_on_c, 2, 69, 84
8, 125451, Note_on_c, 2, 65, 0
8, 125451, Note_on_c, 2, 69, 0
8, 125460, Note_on_c, 2, 69, 84
8, 125460, Note_on_c, 2, 65, 84
8, 125511, Note_on_c, 2, 69, 0
8, 125511, Note_on_c, 2, 65, 0
8, 125520, Note_on_c, 2, 64, 84
8, 125520, Note_on_c, 2, 67, 84
8, 125699, Note_on_c, 2, 64, 0
8, 125699, Note_on_c, 2, 67, 0
8, 127920, Note_on_c, 2, 67, 48
8, 127920, Note_on_c, 2, 79, 48
8, 128159, Note_on_c, 2, 67, 0
8, 128159, Note_on_c, 2, 79, 0
8, 128160, Note_on_c, 2, 65, 48
8, 128160, Note_on_c, 2, 77, 48
8, 128639, Note_on_c, 2, 65, 0
8, 128639, Note_on_c, 2, 77, 0
8, 128640, Note_on_c, 2, 76, 48
8, 128640, Note_on_c, 2, 64, 48
8, 128879, Note_on_c, 2, 76, 0
8, 128879, Note_on_c, 2, 64, 0
8, 128880, Note_on_c, 2, 62, 48
8, 128880, Note_on_c, 2, 74, 48
8, 129359, Note_on_c, 2, 62, 0
8, 129359, Note_on_c, 2, 74, 0
8, 129360, Note_on_c, 2, 72, 48
8, 129360, Note_on_c, 2, 60, 48
8, 129584, Note_on_c, 2, 72, 0
8, 129584, Note_on_c, 2, 60, 0
8, 129600, Note_on_c, 2, 72, 48
8, 129600, Note_on_c, 2, 60, 48
8, 130079, Note_on_c, 2, 72, 0
8, 130079, Note_on_c, 2, 60, 0
8, 130080, Note_on_c, 2, 69, 48
8, 130080, Note_on_c, 2, 65, 48
8, 130319, Note_on_c, 2, 69, 0
8, 130319, Note_on_c, 2, 65, 0
8, 130320, Note_on_c, 2, 67, 48
8, 130320, Note_on_c, 2, 64, 48
8, 130799, Note_on_c, 2, 67, 0
8, 130799, Note_on_c, 2, 64, 0
8, 130800, Note_on_c, 2, 62, 48
8, 130800, Note_on_c, 2, 71, 48
8, 131024, Note_on_c, 2, 62, 0
8, 131024, Note_on_c, 2, 71, 0
8, 131040, Note_on_c, 2, 67, 84
8, 131040, Note_on_c, 2, 64, 84
8, 131211, Note_on_c, 2, 67, 0
8, 131211, Note_on_c, 2, 64, 0
8, 131220, Note_on_c, 2, 64, 84
8, 131220, Note_on_c, 2, 67, 84
8, 131271, Note_on_c, 2, 64, 0
8, 131271, Note_on_c, 2, 67, 0
8, 131280, Note_on_c, 2, 68, 84
8, 131280, Note_on_c, 2, 65, 84
8, 131459, Note_on_c, 2, 68, 0
8, 131459, Note_on_c, 2, 65, 0
8, 131520, Note_on_c, 2, 68, 84
8, 131520, Note_on_c, 2, 65, 84
8, 131691, Note_on_c, 2, 68, 0
8, 131691, Note_on_c, 2, 65, 0
8, 131700, Note_on_c, 2, 68, 84
8, 131700, Note_on_c, 2, 65, 84
8, 131751, Note_on_c, 2, 68, 0
8, 131751, Note_on_c, 2, 65, 0
8, 131760, Note_on_c, 2, 67, 84
8, 131760, Note_on_c, 2, 64, 84
8, 131939, Note_on_c, 2, 67, 0
8, 131939, Note_on_c, 2, 64, 0
8, 132000, Note_on_c, 2, 69, 84
8, 132000, Note_on_c, 2, 65, 84
8, 132171, Note_on_c, 2, 69, 0
8, 132171, Note_on_c, 2, 65, 0
8, 132180, Note_on_c, 2, 69, 84
8, 132180, Note_on_c, 2, 65, 84
8, 132231, Note_on_c, 2, 69, 0
8, 132231, Note_on_c, 2, 65, 0
8, 132240, Note_on_c, 2, 64, 84
8, 132240, Note_on_c, 2, 67, 84
8, 132419, Note_on_c, 2, 64, 0
8, 132419, Note_on_c, 2, 67, 0
8, 132480, Note_on_c, 2, 65, 84
8, 132480, Note_on_c, 2, 69, 84
8, 132651, Note_on_c, 2, 65, 0
8, 132651, Note_on_c, 2, 69, 0
8, 132660, Note_on_c, 2, 65, 84
8, 132660, Note_on_c, 2, 69, 84
8, 132711, Note_on_c, 2, 65, 0
8, 132711, Note_on_c, 2, 69, 0
8, 132720, Note_on_c, 2, 64, 84
8, 132720, Note_on_c, 2, 67, 84
8, 132899, Note_on_c, 2, 64, 0
8, 132899, Note_on_c, 2, 67, 0
8, 134400, Note_on_c, 2, 79, 48
8, 134400, Note_on_c, 2, 67, 48
8, 134639, Note_on_c, 2, 79, 0
8, 134639, Note_on_c, 2, 67, 0
8, 134640, Note_on_c, 2, 77, 48
8, 134640, Note_on_c, 2, 65, 48
8, 135119, Note_on_c, 2, 77, 0
8, 135119, Note_on_c, 2, 65, 0
8, 135120, Note_on_c, 2, 64, 48
8, 135120, Note_on_c, 2, 76, 48
8, 135359, Note_on_c, 2, 64, 0
8, 135359, Note_on_c, 2, 76, 0
8, 135360, Note_on_c, 2, 62, 48
8, 135360, Note_on_c, 2, 74, 48
8, 135839, Note_on_c, 2, 62, 0
8, 135839, Note_on_c, 2, 74, 0
8, 135840, Note_on_c, 2, 60, 48
8, 135840, Note_on_c, 2, 72, 48
8, 136079, Note_on_c, 2, 60, 0
8, 136079, Note_on_c, 2, 72, 0
8, 136080, Note_on_c, 2, 71, 48
8, 136080, Note_on_c, 2, 59, 48
8, 136559, Note_on_c, 2, 71, 0
8, 136559, Note_on_c, 2, 59, 0
8, 136560, Note_on_c, 2, 70, 48
8, 136560, Note_on_c, 2, 58, 48
8, 136799, Note_on_c, 2, 70, 0
8, 136799, Note_on_c, 2, 58, 0
8, 136800, Note_on_c, 2, 57, 48
8, 136800, Note_on_c, 2, 69, 48
8, 137279, Note_on_c, 2, 57, 0
8, 137279, Note_on_c, 2, 69, 0
8, 137280, Note_on_c, 2, 69, 48
8, 137280, Note_on_c, 2, 77, 48
8, 137519, Note_on_c, 2, 69, 0
8, 137519, Note_on_c, 2, 77, 0
8, 137520, Note_on_c, 2, 76, 48
8, 137520, Note_on_c, 2, 67, 48
8, 137999, Note_on_c, 2, 76, 0
8, 137999, Note_on_c, 2, 67, 0
8, 138000, Note_on_c, 2, 71, 48
8, 138000, Note_on_c, 2, 74, 48
8, 138224, Note_on_c, 2, 71, 0
8, 138224, Note_on_c, 2, 74, 0
8, 138240, Note_on_c, 2, 65, 48
8, 138240, Note_on_c, 2, 72, 48
8, 138479, Note_on_c, 2, 65, 0
8, 138479, Note_on_c, 2, 72, 0
8, 138960, Control_c, 2, 11, 80
8, 139200, Note_on_c, 2, 77, 76
8, 139200, Note_on_c, 2, 74, 76
8, 139200, Control_c, 2, 11, 88
8, 139240, Control_c, 2, 11, 91
8, 139280, Control_c, 2, 11, 95
8, 139320, Control_c, 2, 11, 98
8, 139360, Control_c, 2, 11, 101
8, 139400, Control_c, 2, 11, 104
8, 139440, Control_c, 2, 11, 108
8, 139480, Control_c, 2, 11, 111
8, 139520, Control_c, 2, 11, 114
8, 139559, Note_on_c, 2, 77, 0
8, 139559, Note_on_c, 2, 74, 0
8, 139560, Control_c, 2, 11, 117
8, 139560, Note_on_c, 2, 76, 76
8, 139560, Note_on_c, 2, 79, 76
8, 139600, Control_c, 2, 11, 121
8, 139640, Control_c, 2, 11, 127
8, 139664, Note_on_c, 2, 76, 0
8, 139664, Note_on_c, 2, 79, 0
8, 139680, Note_on_c, 2, 76, 76
8, 139680, Note_on_c, 2, 72, 76
8, 139859, Note_on_c, 2, 76, 0
8, 139859, Note_on_c, 2, 72, 0
8, 139920, Note_on_c, 2, 76, 84
8, 140279, Note_on_c, 2, 76, 0
8, 140280, Note_on_c, 2, 72, 76
8, 140384, Note_on_c, 2, 72, 0
8, 140400, Note_on_c, 2, 71, 84
8, 140400, Note_on_c, 2, 67, 84
8, 140639, Note_on_c, 2, 71, 0
8, 140639, Note_on_c, 2, 67, 0
8, 140760, Note_on_c, 2, 79, 76
8, 140760, Note_on_c, 2, 67, 76
8, 140849, Note_on_c, 2, 79, 0
8, 140849, Note_on_c, 2, 67, 0
8, 140880, Note_on_c, 2, 79, 76
8, 140880, Note_on_c, 2, 67, 76
8, 140969, Note_on_c, 2, 79, 0
8, 140969, Note_on_c, 2, 67, 0
8, 141000, Note_on_c, 2, 77, 76
8, 141000, Note_on_c, 2, 65, 76
8, 141089, Note_on_c, 2, 77, 0
8, 141089, Note_on_c, 2, 65, 0
8, 141120, Note_on_c, 2, 76, 84
8, 141120, Note_on_c, 2, 64, 84
8, 141299, Note_on_c, 2, 76, 0
8, 141299, Note_on_c, 2, 64, 0
8, 141480, Note_on_c, 2, 64, 76
8, 141480, Note_on_c, 2, 72, 76
8, 141569, Note_on_c, 2, 64, 0
8, 141569, Note_on_c, 2, 72, 0
8, 141600, Note_on_c, 2, 72, 76
8, 141600, Note_on_c, 2, 64, 76
8, 141689, Note_on_c, 2, 72, 0
8, 141689, Note_on_c, 2, 64, 0
8, 141720, Note_on_c, 2, 64, 76
8, 141720, Note_on_c, 2, 72, 76
8, 141809, Note_on_c, 2, 64, 0
8, 141809, Note_on_c, 2, 72, 0
8, 141840, Note_on_c, 2, 71, 84
8, 141840, Note_on_c, 2, 65, 84
8, 142019, Note_on_c, 2, 71, 0
8, 142019, Note_on_c, 2, 65, 0
8, 142200, Note_on_c, 2, 67, 76
8, 142200, Note_on_c, 2, 79, 76
8, 142289, Note_on_c, 2, 67, 0
8, 142289, Note_on_c, 2, 79, 0
8, 142320, Note_on_c, 2, 79, 76
8, 142320, Note_on_c, 2, 67, 76
8, 142409, Note_on_c, 2, 79, 0
8, 142409, Note_on_c, 2, 67, 0
8, 142440, Note_on_c, 2, 77, 76
8, 142440, Note_on_c, 2, 65, 76
8, 142529, Note_on_c, 2, 77, 0
8, 142529, Note_on_c, 2, 65, 0
8, 142560, Note_on_c, 2, 76, 84
8, 142560, Note_on_c, 2, 72, 84
8, 145424, Note_on_c, 2, 76, 0
8, 145424, Note_on_c, 2, 72, 0
8, 145440, Note_on_c, 2, 72, 92
8, 145679, Note_on_c, 2, 72, 0
8, 146160, Note_on_c, 2, 72, 92
8, 146160, Note_on_c, 2, 60, 92
8, 146399, Note_on_c, 2, 72, 0
8, 146399, Note_on_c, 2, 60, 0
8, 146880, Note_on_c, 2, 60, 92
8, 146880, Note_on_c, 2, 72, 92
8, 147119, Note_on_c, 2, 60, 0
8, 147119, Note_on_c, 2, 72, 0
8, 147600, Note_on_c, 2, 72, 92
8, 147600, Note_on_c, 2, 60, 92
8, 147839, Note_on_c, 2, 72, 0
8, 147839, Note_on_c, 2, 60, 0
8, 147960, Note_on_c, 2, 72, 84
8, 147960, Note_on_c, 2, 60, 84
8, 148064, Note_on_c, 2, 72, 0
8, 148064, Note_on_c, 2, 60, 0
8, 148080, Note_on_c, 2, 72, 84
8, 148080, Note_on_c, 2, 60, 84
8, 148184, Note_on_c, 2, 72, 0
8, 148184, Note_on_c, 2, 60, 0
8, 148200, Note_on_c, 2, 60, 84
8, 148200, Note_on_c, 2, 72, 84
8, 148304, Note_on_c, 2, 60, 0
8, 148304, Note_on_c, 2, 72, 0
8, 148320, Note_on_c, 2, 72, 84
8, 148320, Note_on_c, 2, 60, 84
8, 148559, Note_on_c, 2, 72, 0
8, 148559, Note_on_c, 2, 60, 0
8, 151920, Note_on_c, 2, 74, 48
8, 152159, Note_on_c, 2, 74, 0
8, 152160, Note_on_c, 2, 71, 48
8, 152279, Note_on_c, 2, 71, 0
8, 152280, Note_on_c, 2, 72, 48
8, 152384, Note_on_c, 2, 72, 0
8, 152400, Note_on_c, 2, 74, 48
8, 152489, Note_on_c, 2, 74, 0
8, 152520, Note_on_c, 2, 71, 48
8, 152609, Note_on_c, 2, 71, 0
8, 152640, Note_on_c, 2, 67, 48
8, 152879, Note_on_c, 2, 67, 0
8, 154080, Note_on_c, 2, 72, 84
8, 154080, Note_on_c, 2, 67, 84
8, 156944, Note_on_c, 2, 72, 0
8, 156944, Note_on_c, 2, 67, 0
8, 156960, Note_on_c, 2, 60, 84
8, 156960, Note_on_c, 2, 72, 84
8, 157139, Note_on_c, 2, 60, 0
8, 157139, Note_on_c, 2, 72, 0
8, 160560, Note_on_c, 2, 72, 48
8, 160799, Note_on_c, 2, 72, 0
8, 160800, Note_on_c, 2, 69, 48
8, 160919, Note_on_c, 2, 69, 0
8, 160920, Note_on_c, 2, 70, 48
8, 161024, Note_on_c, 2, 70, 0
8, 161040, Note_on_c, 2, 72, 48
8, 161129, Note_on_c, 2, 72, 0
8, 161160, Note_on_c, 2, 69, 48
8, 161249, Note_on_c, 2, 69, 0
8, 161280, Note_on_c, 2, 63, 48
8, 161519, Note_on_c, 2, 63, 0
8, 162720, Note_on_c, 2, 82, 84
8, 162720, Note_on_c, 2, 70, 84
8, 165584, Note_on_c, 2, 82, 0
8, 165584, Note_on_c, 2, 70, 0
8, 165600, Note_on_c, 2, 70, 84
8, 165600, Note_on_c, 2, 82, 84
8, 165779, Note_on_c, 2, 70, 0
8, 165779, Note_on_c, 2, 82, 0
8, 169200, Note_on_c, 2, 76, 48
8, 169439, Note_on_c, 2, 76, 0
8, 169440, Note_on_c, 2, 73, 48
8, 169559, Note_on_c, 2, 73, 0
8, 169560, Note_on_c, 2, 74, 48
8, 169664, Note_on_c, 2, 74, 0
8, 169680, Note_on_c, 2, 76, 48
8, 169769, Note_on_c, 2, 76, 0
8, 169800, Note_on_c, 2, 73, 48
8, 169889, Note_on_c, 2, 73, 0
8, 169920, Note_on_c, 2, 67, 48
8, 170159, Note_on_c, 2, 67, 0
8, 170640, Note_on_c, 2, 69, 48
8, 170640, Note_on_c, 2, 77, 48
8, 170879, Note_on_c, 2, 69, 0
8, 170879, Note_on_c, 2, 77, 0
8, 170880, Note_on_c, 2, 74, 48
8, 170880, Note_on_c, 2, 65, 48
8, 170999, Note_on_c, 2, 74, 0
8, 170999, Note_on_c, 2, 65, 0
8, 171000, Note_on_c, 2, 67, 48
8, 171000, Note_on_c, 2, 76, 48
8, 171104, Note_on_c, 2, 67, 0
8, 171104, Note_on_c, 2, 76, 0
8, 171120, Note_on_c, 2, 77, 48
8, 171120, Note_on_c, 2, 69, 48
8, 171209, Note_on_c, 2, 77, 0
8, 171209, Note_on_c, 2, 69, 0
8, 171240, Note_on_c, 2, 74, 48
8, 171240, Note_on_c, 2, 65, 48
8, 171329, Note_on_c, 2, 74, 0
8, 171329, Note_on_c, 2, 65, 0
8, 171360, Note_on_c, 2, 81, 84
8, 171360, Note_on_c, 2, 69, 84
8, 174224, Note_on_c, 2, 81, 0
8, 174224, Note_on_c, 2, 69, 0
8, 174240, Note_on_c, 2, 81, 84
8, 174240, Note_on_c, 2, 69, 84
8, 174479, Note_on_c, 2, 81, 0
8, 174479, Note_on_c, 2, 69, 0
8, 174960, Note_on_c, 2, 81, 92
8, 174960, Note_on_c, 2, 69, 92
8, 175199, Note_on_c, 2, 81, 0
8, 175199, Note_on_c, 2, 69, 0
8, 175320, Note_on_c, 2, 69, 84
8, 175320, Note_on_c, 2, 81, 84
8, 175424, Note_on_c, 2, 69, 0
8, 175424, Note_on_c, 2, 81, 0
8, 175440, Note_on_c, 2, 81, 84
8, 175440, Note_on_c, 2, 69, 84
8, 175544, Note_on_c, 2, 81, 0
8, 175544, Note_on_c, 2, 69, 0
8, 175560, Note_on_c, 2, 69, 84
8, 175560, Note_on_c, 2, 81, 84
8, 175664, Note_on_c, 2, 69, 0
8, 175664, Note_on_c, 2, 81, 0
8, 175680, Note_on_c, 2, 81, 84
8, 175680, Note_on_c, 2, 69, 84
8, 175919, Note_on_c, 2, 81, 0
8, 175919, Note_on_c, 2, 69, 0
8, 176400, Note_on_c, 2, 81, 92
8, 176400, Note_on_c, 2, 69, 92
8, 176639, Note_on_c, 2, 81, 0
8, 176639, Note_on_c, 2, 69, 0
8, 176760, Note_on_c, 2, 81, 84
8, 176760, Note_on_c, 2, 69, 84
8, 176864, Note_on_c, 2, 81, 0
8, 176864, Note_on_c, 2, 69, 0
8, 176880, Note_on_c, 2, 69, 84
8, 176880, Note_on_c, 2, 81, 84
8, 176984, Note_on_c, 2, 69, 0
8, 176984, Note_on_c, 2, 81, 0
8, 177000, Note_on_c, 2, 81, 84
8, 177000, Note_on_c, 2, 69, 84
8, 177104, Note_on_c, 2, 81, 0
8, 177104, Note_on_c, 2, 69, 0
8, 177120, Note_on_c, 2, 69, 84
8, 177120, Note_on_c, 2, 81, 84
8, 177359, Note_on_c, 2, 69, 0
8, 177359, Note_on_c, 2, 81, 0
8, 178080, Note_on_c, 2, 65, 92
8, 178080, Note_on_c, 2, 69, 92
8, 178559, Note_on_c, 2, 65, 0
8, 178559, Note_on_c, 2, 69, 0
8, 179520, Note_on_c, 2, 70, 92
8, 179520, Note_on_c, 2, 67, 92
8, 179999, Note_on_c, 2, 70, 0
8, 179999, Note_on_c, 2, 67, 0
8, 182640, Note_on_c, 2, 74, 84
8, 183119, Note_on_c, 2, 74, 0
8, 183120, Note_on_c, 2, 70, 84
8, 183239, Note_on_c, 2, 70, 0
8, 183240, Note_on_c, 2, 72, 84
8, 183344, Note_on_c, 2, 72, 0
8, 183360, Note_on_c, 2, 74, 84
8, 183449, Note_on_c, 2, 74, 0
8, 183480, Note_on_c, 2, 70, 84
8, 183569, Note_on_c, 2, 70, 0
8, 183600, Note_on_c, 2, 67, 84
8, 184304, Note_on_c, 2, 67, 0
8, 184320, Note_on_c, 2, 75, 84
8, 184559, Note_on_c, 2, 75, 0
8, 184560, Note_on_c, 2, 72, 84
8, 184679, Note_on_c, 2, 72, 0
8, 184680, Note_on_c, 2, 74, 84
8, 184784, Note_on_c, 2, 74, 0
8, 184800, Note_on_c, 2, 75, 84
8, 184889, Note_on_c, 2, 75, 0
8, 184920, Note_on_c, 2, 72, 84
8, 185009, Note_on_c, 2, 72, 0
8, 185040, Note_on_c, 2, 67, 84
8, 185744, Note_on_c, 2, 67, 0
8, 185760, Note_on_c, 2, 77, 84
8, 185939, Note_on_c, 2, 77, 0
8, 186000, Note_on_c, 2, 74, 92
8, 186119, Note_on_c, 2, 74, 0
8, 186120, Note_on_c, 2, 75, 84
8, 186224, Note_on_c, 2, 75, 0
8, 186240, Note_on_c, 2, 77, 84
8, 186329, Note_on_c, 2, 77, 0
8, 186360, Note_on_c, 2, 74, 84
8, 186449, Note_on_c, 2, 74, 0
8, 186480, Note_on_c, 2, 75, 84
8, 186659, Note_on_c, 2, 75, 0
8, 186720, Note_on_c, 2, 71, 92
8, 186839, Note_on_c, 2, 71, 0
8, 186840, Note_on_c, 2, 72, 84
8, 186944, Note_on_c, 2, 72, 0
8, 186960, Note_on_c, 2, 74, 84
8, 187049, Note_on_c, 2, 74, 0
8, 187080, Note_on_c, 2, 71, 84
8, 187169, Note_on_c, 2, 71, 0
8, 187200, Note_on_c, 2, 72, 84
8, 187379, Note_on_c, 2, 72, 0
8, 187440, Note_on_c, 2, 67, 92
8, 187559, Note_on_c, 2, 67, 0
8, 187560, Note_on_c, 2, 68, 84
8, 187664, Note_on_c, 2, 68, 0
8, 187680, Note_on_c, 2, 70, 84
8, 187769, Note_on_c, 2, 70, 0
8, 187800, Note_on_c, 2, 67, 84
8, 187889, Note_on_c, 2, 67, 0
8, 187920, Note_on_c, 2, 68, 84
8, 188099, Note_on_c, 2, 68, 0
8, 188160, Note_on_c, 2, 76, 84
8, 188279, Note_on_c, 2, 76, 0
8, 188280, Note_on_c, 2, 77, 84
8, 188384, Note_on_c, 2, 77, 0
8, 188400, Note_on_c, 2, 79, 84
8, 188489, Note_on_c, 2, 79, 0
8, 188520, Note_on_c, 2, 76, 84
8, 188609, Note_on_c, 2, 76, 0
8, 188640, Note_on_c, 2, 77, 84
8, 188879, Note_on_c, 2, 77, 0
8, 188880, Note_on_c, 2, 72, 84
8, 188999, Note_on_c, 2, 72, 0
8, 189000, Note_on_c, 2, 70, 84
8, 189104, Note_on_c, 2, 70, 0
8, 189120, Note_on_c, 2, 68, 84
8, 189209, Note_on_c, 2, 68, 0
8, 189240, Note_on_c, 2, 72, 84
8, 189329, Note_on_c, 2, 72, 0
8, 189360, Note_on_c, 2, 65, 84
8, 189539, Note_on_c, 2, 65, 0
8, 189600, Note_on_c, 2, 72, 92
8, 189600, Note_on_c, 2, 68, 92
8, 190049, Note_on_c, 2, 72, 0
8, 190049, Note_on_c, 2, 68, 0
8, 190080, Note_on_c, 2, 73, 84
8, 190080, Note_on_c, 2, 70, 84
8, 190304, Note_on_c, 2, 73, 0
8, 190319, Note_on_c, 2, 70, 0
8, 190320, Note_on_c, 2, 73, 84
8, 190439, Note_on_c, 2, 73, 0
8, 190440, Note_on_c, 2, 72, 84
8, 190544, Note_on_c, 2, 72, 0
8, 190560, Note_on_c, 2, 70, 84
8, 190649, Note_on_c, 2, 70, 0
8, 190680, Note_on_c, 2, 73, 84
8, 190769, Note_on_c, 2, 73, 0
8, 190800, Note_on_c, 2, 65, 84
8, 190979, Note_on_c, 2, 65, 0
8, 191040, Note_on_c, 2, 70, 92
8, 191040, Note_on_c, 2, 73, 92
8, 191489, Note_on_c, 2, 70, 0
8, 191489, Note_on_c, 2, 73, 0
8, 191520, Note_on_c, 2, 73, 84
8, 191520, Note_on_c, 2, 70, 84
8, 191699, Note_on_c, 2, 73, 0
8, 191699, Note_on_c, 2, 70, 0
8, 191760, Note_on_c, 2, 73, 92
8, 191879, Note_on_c, 2, 73, 0
8, 191880, Note_on_c, 2, 72, 84
8, 191984, Note_on_c, 2, 72, 0
8, 192000, Note_on_c, 2, 70, 84
8, 192089, Note_on_c, 2, 70, 0
8, 192120, Note_on_c, 2, 73, 84
8, 192209, Note_on_c, 2, 73, 0
8, 192240, Note_on_c, 2, 67, 84
8, 192419, Note_on_c, 2, 67, 0
8, 192480, Note_on_c, 2, 70, 92
8, 192599, Note_on_c, 2, 70, 0
8, 192600, Note_on_c, 2, 68, 84
8, 192704, Note_on_c, 2, 68, 0
8, 192720, Note_on_c, 2, 67, 84
8, 192809, Note_on_c, 2, 67, 0
8, 192840, Note_on_c, 2, 70, 84
8, 192929, Note_on_c, 2, 70, 0
8, 192960, Note_on_c, 2, 68, 84
8, 193139, Note_on_c, 2, 68, 0
8, 193200, Note_on_c, 2, 78, 92
8, 193319, Note_on_c, 2, 78, 0
8, 193320, Note_on_c, 2, 77, 84
8, 193424, Note_on_c, 2, 77, 0
8, 193440, Note_on_c, 2, 75, 84
8, 193529, Note_on_c, 2, 75, 0
8, 193560, Note_on_c, 2, 78, 84
8, 193649, Note_on_c, 2, 78, 0
8, 193680, Note_on_c, 2, 77, 84
8, 193859, Note_on_c, 2, 77, 0
8, 193920, Note_on_c, 2, 75, 92
8, 194039, Note_on_c, 2, 75, 0
8, 194040, Note_on_c, 2, 73, 84
8, 194144, Note_on_c, 2, 73, 0
8, 194160, Note_on_c, 2, 72, 84
8, 194249, Note_on_c, 2, 72, 0
8, 194280, Note_on_c, 2, 75, 84
8, 194369, Note_on_c, 2, 75, 0
8, 194400, Note_on_c, 2, 73, 84
8, 194400, Note_on_c, 2, 77, 84
8, 194489, Note_on_c, 2, 73, 0
8, 194489, Note_on_c, 2, 77, 0
8, 194640, Note_on_c, 2, 77, 92
8, 194640, Note_on_c, 2, 73, 92
8, 195119, Note_on_c, 2, 77, 0
8, 195119, Note_on_c, 2, 73, 0
8, 195360, Note_on_c, 2, 77, 92
8, 195360, Note_on_c, 2, 73, 92
8, 195839, Note_on_c, 2, 77, 0
8, 195839, Note_on_c, 2, 73, 0
8, 196080, Note_on_c, 2, 73, 92
8, 196080, Note_on_c, 2, 77, 92
8, 196559, Note_on_c, 2, 73, 0
8, 196559, Note_on_c, 2, 77, 0
8, 196800, Note_on_c, 2, 73, 92
8, 196800, Note_on_c, 2, 77, 92
8, 197249, Note_on_c, 2, 73, 0
8, 197249, Note_on_c, 2, 77, 0
8, 197280, Note_on_c, 2, 73, 84
8, 197280, Note_on_c, 2, 77, 84
8, 197399, Note_on_c, 2, 73, 0
8, 197399, Note_on_c, 2, 77, 0
8, 197520, Note_on_c, 2, 73, 92
8, 197520, Note_on_c, 2, 77, 92
8, 197999, Note_on_c, 2, 73, 0
8, 197999, Note_on_c, 2, 77, 0
8, 198240, Note_on_c, 2, 77, 92
8, 198240, Note_on_c, 2, 73, 92
8, 198719, Note_on_c, 2, 77, 0
8, 198719, Note_on_c, 2, 73, 0
8, 198960, Note_on_c, 2, 77, 92
8, 198960, Note_on_c, 2, 73, 92
8, 199439, Note_on_c, 2, 77, 0
8, 199439, Note_on_c, 2, 73, 0
8, 199680, Note_on_c, 2, 73, 92
8, 199680, Note_on_c, 2, 77, 92
8, 200129, Note_on_c, 2, 73, 0
8, 200129, Note_on_c, 2, 77, 0
8, 200160, Note_on_c, 2, 74, 84
8, 200160, Note_on_c, 2, 71, 84
8, 200279, Note_on_c, 2, 74, 0
8, 200279, Note_on_c, 2, 71, 0
8, 200400, Note_on_c, 2, 74, 92
8, 200400, Note_on_c, 2, 71, 92
8, 200879, Note_on_c, 2, 74, 0
8, 200879, Note_on_c, 2, 71, 0
8, 201120, Note_on_c, 2, 71, 92
8, 201120, Note_on_c, 2, 74, 92
8, 201599, Note_on_c, 2, 71, 0
8, 201599, Note_on_c, 2, 74, 0
8, 201840, Note_on_c, 2, 71, 92
8, 201840, Note_on_c, 2, 74, 92
8, 202319, Note_on_c, 2, 71, 0
8, 202319, Note_on_c, 2, 74, 0
8, 202560, Note_on_c, 2, 71, 92
8, 202560, Note_on_c, 2, 74, 92
8, 203009, Note_on_c, 2, 71, 0
8, 203009, Note_on_c, 2, 74, 0
8, 203040, Note_on_c, 2, 71, 84
8, 203040, Note_on_c, 2, 74, 84
8, 203159, Note_on_c, 2, 71, 0
8, 203159, Note_on_c, 2, 74, 0
8, 203280, Note_on_c, 2, 74, 92
8, 203280, Note_on_c, 2, 71, 92
8, 204449, Note_on_c, 2, 74, 0
8, 204449, Note_on_c, 2, 71, 0
8, 204480, Note_on_c, 2, 74, 84
8, 204480, Note_on_c, 2, 71, 84
8, 204599, Note_on_c, 2, 74, 0
8, 204599, Note_on_c, 2, 71, 0
8, 204720, Note_on_c, 2, 71, 92
8, 204720, Note_on_c, 2, 74, 92
8, 205889, Note_on_c, 2, 71, 0
8, 205889, Note_on_c, 2, 74, 0
8, 205920, Note_on_c, 2, 74, 92
8, 205920, Note_on_c, 2, 71, 92
8, 206009, Note_on_c, 2, 74, 0
8, 206009, Note_on_c, 2, 71, 0
8, 206160, Note_on_c, 2, 65, 84
8, 206160, Note_on_c, 2, 74, 84
8, 206249, Note_on_c, 2, 65, 0
8, 206249, Note_on_c, 2, 74, 0
8, 206640, Note_on_c, 2, 66, 92
8, 206640, Note_on_c, 2, 75, 92
8, 206729, Note_on_c, 2, 66, 0
8, 206729, Note_on_c, 2, 75, 0
8, 206880, Note_on_c, 2, 66, 84
8, 206880, Note_on_c, 2, 75, 84
8, 206969, Note_on_c, 2, 66, 0
8, 206969, Note_on_c, 2, 75, 0
8, 207360, Note_on_c, 2, 67, 92
8, 207360, Note_on_c, 2, 76, 92
8, 207449, Note_on_c, 2, 67, 0
8, 207449, Note_on_c, 2, 76, 0
8, 207600, Note_on_c, 2, 76, 84
8, 207600, Note_on_c, 2, 67, 84
8, 207689, Note_on_c, 2, 76, 0
8, 207689, Note_on_c, 2, 67, 0
8, 208080, Note_on_c, 2, 79, 92
8, 208080, Note_on_c, 2, 70, 92
8, 208169, Note_on_c, 2, 79, 0
8, 208169, Note_on_c, 2, 70, 0
8, 208320, Note_on_c, 2, 79, 84
8, 208320, Note_on_c, 2, 70, 84
8, 208409, Note_on_c, 2, 79, 0
8, 208409, Note_on_c, 2, 70, 0
8, 208800, Note_on_c, 2, 70, 88
8, 208800, Note_on_c, 2, 79, 88
8, 208889, Note_on_c, 2, 70, 0
8, 208889, Note_on_c, 2, 79, 0
8, 209040, Note_on_c, 2, 82, 88
8, 209040, Note_on_c, 2, 79, 88
8, 210119, Note_on_c, 2, 82, 0
8, 210119, Note_on_c, 2, 79, 0
8, 210120, Note_on_c, 2, 77, 88
8, 210120, Note_on_c, 2, 81, 88
8, 210224, Note_on_c, 2, 77, 0
8, 210224, Note_on_c, 2, 81, 0
8, 210240, Note_on_c, 2, 81, 92
8, 210240, Note_on_c, 2, 77, 92
8, 211424, Note_on_c, 2, 81, 0
8, 211424, Note_on_c, 2, 77, 0
8, 211440, Note_on_c, 2, 81, 92
8, 211440, Note_on_c, 2, 77, 92
8, 211664, Note_on_c, 2, 81, 0
8, 211664, Note_on_c, 2, 77, 0
8, 211680, Note_on_c, 2, 79, 92
8, 211680, Note_on_c, 2, 70, 92
8, 212144, Note_on_c, 2, 79, 0
8, 212144, Note_on_c, 2, 70, 0
8, 212160, Note_on_c, 2, 77, 92
8, 212160, Note_on_c, 2, 69, 92
8, 212384, Note_on_c, 2, 77, 0
8, 212384, Note_on_c, 2, 69, 0
8, 212400, Note_on_c, 2, 76, 92
8, 212400, Note_on_c, 2, 67, 92
8, 213104, Note_on_c, 2, 76, 0
8, 213104, Note_on_c, 2, 67, 0
8, 213120, Note_on_c, 2, 76, 92
8, 213120, Note_on_c, 2, 79, 92
8, 214304, Note_on_c, 2, 76, 0
8, 214304, Note_on_c, 2, 79, 0
8, 214320, Note_on_c, 2, 79, 92
8, 214320, Note_on_c, 2, 76, 92
8, 214544, Note_on_c, 2, 79, 0
8, 214544, Note_on_c, 2, 76, 0
8, 214560, Note_on_c, 2, 77, 92
8, 214560, Note_on_c, 2, 81, 92
8, 215024, Note_on_c, 2, 77, 0
8, 215024, Note_on_c, 2, 81, 0
8, 215040, Note_on_c, 2, 79, 92
8, 215040, Note_on_c, 2, 76, 92
8, 215264, Note_on_c, 2, 79, 0
8, 215264, Note_on_c, 2, 76, 0
8, 215280, Note_on_c, 2, 81, 92
8, 215280, Note_on_c, 2, 77, 92
8, 215399, Note_on_c, 2, 81, 0
8, 215399, Note_on_c, 2, 77, 0
8, 215520, Note_on_c, 2, 72, 48
8, 215624, Note_on_c, 2, 72, 0
8, 215760, Note_on_c, 2, 72, 48
8, 215864, Note_on_c, 2, 72, 0
8, 216000, Note_on_c, 2, 72, 48
8, 216239, Note_on_c, 2, 72, 0
8, 216240, Note_on_c, 2, 69, 48
8, 216359, Note_on_c, 2, 69, 0
8, 216360, Note_on_c, 2, 70, 48
8, 216464, Note_on_c, 2, 70, 0
8, 216480, Note_on_c, 2, 72, 48
8, 216569, Note_on_c, 2, 72, 0
8, 216600, Note_on_c, 2, 69, 48
8, 216689, Note_on_c, 2, 69, 0
8, 216720, Note_on_c, 2, 65, 48
8, 217184, Note_on_c, 2, 65, 0
8, 217200, Note_on_c, 2, 60, 48
8, 217289, Note_on_c, 2, 60, 0
8, 217320, Note_on_c, 2, 65, 48
8, 217409, Note_on_c, 2, 65, 0
8, 217440, Note_on_c, 2, 65, 48
8, 217559, Note_on_c, 2, 65, 0
8, 217560, Note_on_c, 2, 64, 48
8, 217664, Note_on_c, 2, 64, 0
8, 217680, Note_on_c, 2, 60, 48
8, 217680, Note_on_c, 2, 64, 48
8, 217769, Note_on_c, 2, 60, 0
8, 217769, Note_on_c, 2, 64, 0
8, 217800, Note_on_c, 2, 65, 48
8, 217800, Note_on_c, 2, 62, 48
8, 217889, Note_on_c, 2, 65, 0
8, 217889, Note_on_c, 2, 62, 0
8, 217920, Note_on_c, 2, 67, 48
8, 217920, Note_on_c, 2, 64, 48
8, 218009, Note_on_c, 2, 67, 0
8, 218009, Note_on_c, 2, 64, 0
8, 218040, Note_on_c, 2, 69, 48
8, 218040, Note_on_c, 2, 65, 48
8, 218129, Note_on_c, 2, 69, 0
8, 218129, Note_on_c, 2, 65, 0
8, 218160, Note_on_c, 2, 67, 76
8, 218160, Note_on_c, 2, 70, 76
8, 218399, Note_on_c, 2, 67, 0
8, 218399, Note_on_c, 2, 70, 0
8, 218880, Note_on_c, 2, 70, 48
8, 218880, Note_on_c, 2, 67, 48
8, 219119, Note_on_c, 2, 70, 0
8, 219240, Note_on_c, 2, 69, 48
8, 219359, Note_on_c, 2, 69, 0
8, 219360, Note_on_c, 2, 70, 48
8, 219479, Note_on_c, 2, 70, 0
8, 219480, Note_on_c, 2, 71, 48
8, 219599, Note_on_c, 2, 71, 0
8, 219600, Note_on_c, 2, 72, 48
8, 219839, Note_on_c, 2, 67, 0
8, 219840, Note_on_c, 2, 65, 48
8, 220079, Note_on_c, 2, 72, 0
8, 220079, Note_on_c, 2, 65, 0
8, 220080, Note_on_c, 2, 70, 48
8, 220080, Note_on_c, 2, 67, 48
8, 220304, Note_on_c, 2, 67, 0
8, 220319, Note_on_c, 2, 70, 0
8, 220320, Note_on_c, 2, 69, 48
8, 220320, Note_on_c, 2, 65, 48
8, 220439, Note_on_c, 2, 69, 0
8, 220440, Note_on_c, 2, 72, 48
8, 220544, Note_on_c, 2, 65, 0
8, 220544, Note_on_c, 2, 72, 0
8, 220560, Note_on_c, 2, 60, 48
8, 220560, Note_on_c, 2, 65, 48
8, 220799, Note_on_c, 2, 60, 0
8, 220799, Note_on_c, 2, 65, 0
8, 220800, Note_on_c, 2, 67, 48
8, 220800, Note_on_c, 2, 64, 48
8, 221024, Note_on_c, 2, 67, 0
8, 221024, Note_on_c, 2, 64, 0
8, 221040, Note_on_c, 2, 67, 48
8, 221040, Note_on_c, 2, 64, 48
8, 221519, Note_on_c, 2, 67, 0
8, 221519, Note_on_c, 2, 64, 0
8, 221520, Note_on_c, 2, 65, 48
8, 221520, Note_on_c, 2, 69, 48
8, 221759, Note_on_c, 2, 65, 0
8, 221759, Note_on_c, 2, 69, 0
8, 223020, Control_c, 2, 11, 107
8, 223200, Note_on_c, 2, 60, 76
8, 223200, Control_c, 2, 11, 111
8, 223200, Note_on_c, 2, 72, 76
8, 223380, Control_c, 2, 11, 115
8, 223560, Control_c, 2, 11, 119
8, 223649, Note_on_c, 2, 72, 0
8, 223650, Note_on_c, 2, 74, 76
8, 223679, Note_on_c, 2, 74, 0
8, 223680, Note_on_c, 2, 72, 76
8, 223740, Control_c, 2, 11, 123
8, 223799, Note_on_c, 2, 72, 0
8, 223800, Note_on_c, 2, 70, 76
8, 223904, Note_on_c, 2, 60, 0
8, 223904, Note_on_c, 2, 70, 0
8, 223920, Note_on_c, 2, 77, 76
8, 223920, Note_on_c, 2, 69, 76
8, 224159, Note_on_c, 2, 77, 0
8, 224159, Note_on_c, 2, 69, 0
8, 225300, Note_on_c, 2, 69, 76
8, 225300, Note_on_c, 2, 72, 76
8, 225351, Note_on_c, 2, 69, 0
8, 225351, Note_on_c, 2, 72, 0
8, 225360, Note_on_c, 2, 70, 76
8, 225360, Note_on_c, 2, 74, 76
8, 225599, Note_on_c, 2, 70, 0
8, 225599, Note_on_c, 2, 74, 0
8, 226740, Note_on_c, 2, 70, 76
8, 226740, Note_on_c, 2, 74, 76
8, 226791, Note_on_c, 2, 70, 0
8, 226791, Note_on_c, 2, 74, 0
8, 226800, Note_on_c, 2, 74, 76
8, 226800, Note_on_c, 2, 71, 76
8, 227039, Note_on_c, 2, 74, 0
8, 227039, Note_on_c, 2, 71, 0
8, 227460, Note_on_c, 2, 71, 76
8, 227460, Note_on_c, 2, 74, 76
8, 227511, Note_on_c, 2, 71, 0
8, 227511, Note_on_c, 2, 74, 0
8, 227520, Note_on_c, 2, 74, 76
8, 227520, Note_on_c, 2, 71, 76
8, 227759, Note_on_c, 2, 74, 0
8, 227759, Note_on_c, 2, 71, 0
8, 228180, Note_on_c, 2, 71, 76
8, 228180, Note_on_c, 2, 74, 76
8, 228231, Note_on_c, 2, 71, 0
8, 228231, Note_on_c, 2, 74, 0
8, 228240, Note_on_c, 2, 76, 76
8, 228240, Note_on_c, 2, 72, 76
8, 228479, Note_on_c, 2, 76, 0
8, 228479, Note_on_c, 2, 72, 0
8, 228900, Note_on_c, 2, 70, 76
8, 228900, Note_on_c, 2, 76, 76
8, 228951, Note_on_c, 2, 70, 0
8, 228951, Note_on_c, 2, 76, 0
8, 228960, Note_on_c, 2, 76, 76
8, 228960, Note_on_c, 2, 70, 76
8, 229079, Note_on_c, 2, 76, 0
8, 229079, Note_on_c, 2, 70, 0
8, 229200, Note_on_c, 2, 76, 76
8, 229200, Note_on_c, 2, 70, 76
8, 229319, Note_on_c, 2, 76, 0
8, 229319, Note_on_c, 2, 70, 0
8, 229440, Note_on_c, 2, 70, 76
8, 229440, Note_on_c, 2, 76, 76
8, 229559, Note_on_c, 2, 70, 0
8, 229559, Note_on_c, 2, 76, 0
8, 229680, Note_on_c, 2, 72, 84
8, 229680, Note_on_c, 2, 69, 84
8, 231044, Note_on_c, 2, 72, 0
8, 231044, Note_on_c, 2, 69, 0
8, 231060, Note_on_c, 2, 69, 84
8, 231060, Note_on_c, 2, 72, 84
8, 231111, Note_on_c, 2, 69, 0
8, 231111, Note_on_c, 2, 72, 0
8, 231120, Note_on_c, 2, 68, 84
8, 231120, Note_on_c, 2, 71, 84
8, 232484, Note_on_c, 2, 68, 0
8, 232484, Note_on_c, 2, 71, 0
8, 232500, Note_on_c, 2, 68, 84
8, 232500, Note_on_c, 2, 71, 84
8, 232551, Note_on_c, 2, 68, 0
8, 232551, Note_on_c, 2, 71, 0
8, 232560, Note_on_c, 2, 71, 84
8, 232560, Note_on_c, 2, 80, 84
8, 233924, Note_on_c, 2, 71, 0
8, 233924, Note_on_c, 2, 80, 0
8, 233940, Note_on_c, 2, 80, 84
8, 233940, Note_on_c, 2, 71, 84
8, 233991, Note_on_c, 2, 80, 0
8, 233991, Note_on_c, 2, 71, 0
8, 234000, Note_on_c, 2, 71, 84
8, 234000, Note_on_c, 2, 80, 84
8, 235364, Note_on_c, 2, 71, 0
8, 235364, Note_on_c, 2, 80, 0
8, 235380, Note_on_c, 2, 80, 84
8, 235380, Note_on_c, 2, 71, 84
8, 235431, Note_on_c, 2, 80, 0
8, 235431, Note_on_c, 2, 71, 0
8, 235440, Note_on_c, 2, 71, 84
8, 235440, Note_on_c, 2, 80, 84
8, 235904, Note_on_c, 2, 71, 0
8, 235904, Note_on_c, 2, 80, 0
8, 235920, Note_on_c, 2, 80, 92
8, 235920, Note_on_c, 2, 71, 92
8, 236084, Note_on_c, 2, 80, 0
8, 236084, Note_on_c, 2, 71, 0
8, 236100, Note_on_c, 2, 71, 84
8, 236100, Note_on_c, 2, 80, 84
8, 236151, Note_on_c, 2, 71, 0
8, 236151, Note_on_c, 2, 80, 0
8, 236160, Note_on_c, 2, 80, 84
8, 236160, Note_on_c, 2, 71, 84
8, 236624, Note_on_c, 2, 80, 0
8, 236624, Note_on_c, 2, 71, 0
8, 236640, Note_on_c, 2, 71, 92
8, 236640, Note_on_c, 2, 80, 92
8, 236804, Note_on_c, 2, 71, 0
8, 236804, Note_on_c, 2, 80, 0
8, 236820, Note_on_c, 2, 80, 84
8, 236820, Note_on_c, 2, 71, 84
8, 236871, Note_on_c, 2, 80, 0
8, 236871, Note_on_c, 2, 71, 0
8, 236880, Note_on_c, 2, 80, 84
8, 236880, Note_on_c, 2, 71, 84
8, 236999, Note_on_c, 2, 80, 0
8, 236999, Note_on_c, 2, 71, 0
8, 237360, Note_on_c, 2, 71, 92
8, 237360, Note_on_c, 2, 80, 92
8, 237479, Note_on_c, 2, 71, 0
8, 237479, Note_on_c, 2, 80, 0
8, 237600, Note_on_c, 2, 71, 84
8, 237600, Note_on_c, 2, 80, 84
8, 237719, Note_on_c, 2, 71, 0
8, 237719, Note_on_c, 2, 80, 0
8, 238080, Note_on_c, 2, 80, 92
8, 238080, Note_on_c, 2, 71, 92
8, 238199, Note_on_c, 2, 80, 0
8, 238199, Note_on_c, 2, 71, 0
8, 238320, Note_on_c, 2, 71, 84
8, 238320, Note_on_c, 2, 80, 84
8, 238439, Note_on_c, 2, 71, 0
8, 238439, Note_on_c, 2, 80, 0
8, 241200, Note_on_c, 2, 65, 52
8, 241379, Note_on_c, 2, 65, 0
8, 241680, Note_on_c, 2, 75, 52
8, 241859, Note_on_c, 2, 75, 0
8, 241920, Note_on_c, 2, 65, 52
8, 242099, Note_on_c, 2, 65, 0
8, 242400, Note_on_c, 2, 75, 52
8, 242519, Note_on_c, 2, 75, 0
8, 242640, Note_on_c, 2, 74, 52
8, 242759, Note_on_c, 2, 74, 0
8, 242880, Note_on_c, 2, 70, 52
8, 242999, Note_on_c, 2, 70, 0
8, 243120, Note_on_c, 2, 65, 52
8, 243239, Note_on_c, 2, 65, 0
8, 243360, Note_on_c, 2, 63, 52
8, 243479, Note_on_c, 2, 63, 0
8, 243600, Note_on_c, 2, 60, 52
8, 243719, Note_on_c, 2, 60, 0
8, 243840, Note_on_c, 2, 57, 52
8, 243959, Note_on_c, 2, 57, 0
8, 244080, Note_on_c, 2, 58, 52
8, 244199, Note_on_c, 2, 58, 0
8, 244320, Note_on_c, 2, 65, 52
8, 244439, Note_on_c, 2, 65, 0
8, 244560, Note_on_c, 2, 70, 52
8, 244679, Note_on_c, 2, 70, 0
8, 244800, Note_on_c, 2, 69, 52
8, 244919, Note_on_c, 2, 69, 0
8, 245040, Note_on_c, 2, 74, 52
8, 245159, Note_on_c, 2, 74, 0
8, 245280, Note_on_c, 2, 71, 52
8, 245399, Note_on_c, 2, 71, 0
8, 245520, Note_on_c, 2, 67, 52
8, 245639, Note_on_c, 2, 67, 0
8, 245760, Note_on_c, 2, 72, 52
8, 245879, Note_on_c, 2, 72, 0
8, 246000, Note_on_c, 2, 69, 52
8, 246119, Note_on_c, 2, 69, 0
8, 246240, Note_on_c, 2, 65, 52
8, 246359, Note_on_c, 2, 65, 0
8, 246480, Note_on_c, 2, 70, 52
8, 246599, Note_on_c, 2, 70, 0
8, 246720, Note_on_c, 2, 67, 52
8, 246959, Note_on_c, 2, 67, 0
8, 249600, Note_on_c, 2, 60, 48
8, 249689, Note_on_c, 2, 60, 0
8, 249720, Note_on_c, 2, 60, 48
8, 249959, Note_on_c, 2, 60, 0
8, 249960, Note_on_c, 2, 65, 48
8, 250079, Note_on_c, 2, 65, 0
8, 250080, Note_on_c, 2, 67, 48
8, 250199, Note_on_c, 2, 67, 0
8, 250200, Note_on_c, 2, 69, 48
8, 250319, Note_on_c, 2, 69, 0
8, 250320, Note_on_c, 2, 70, 48
8, 250439, Note_on_c, 2, 70, 0
8, 250440, Note_on_c, 2, 69, 48
8, 250544, Note_on_c, 2, 69, 0
8, 250560, Note_on_c, 2, 67, 48
8, 250784, Note_on_c, 2, 67, 0
8, 250800, Note_on_c, 2, 72, 48
8, 251399, Note_on_c, 2, 72, 0
8, 251400, Note_on_c, 2, 71, 48
8, 251519, Note_on_c, 2, 71, 0
8, 251520, Note_on_c, 2, 67, 48
8, 251639, Note_on_c, 2, 67, 0
8, 251640, Note_on_c, 2, 69, 48
8, 251744, Note_on_c, 2, 69, 0
8, 251760, Note_on_c, 2, 70, 48
8, 252119, Note_on_c, 2, 70, 0
8, 252120, Note_on_c, 2, 69, 48
8, 252239, Note_on_c, 2, 69, 0
8, 252240, Note_on_c, 2, 65, 48
8, 252359, Note_on_c, 2, 65, 0
8, 252360, Note_on_c, 2, 67, 48
8, 252464, Note_on_c, 2, 67, 0
8, 252480, Note_on_c, 2, 68, 52
8, 252480, Note_on_c, 2, 65, 52
8, 252720, Control_c, 2, 11, 112
8, 254864, Note_on_c, 2, 68, 0
8, 254864, Note_on_c, 2, 65, 0
8, 254880, Note_on_c, 2, 68, 52
8, 255059, Note_on_c, 2, 68, 0
8, 255120, Control_c, 2, 11, 48
8, 255360, Note_on_c, 2, 65, 84
8, 255539, Note_on_c, 2, 65, 0
8, 255600, Note_on_c, 2, 68, 84
8, 255600, Note_on_c, 2, 65, 84
8, 257040, Control_c, 2, 11, 48
8, 257280, Control_c, 2, 11, 51
8, 257520, Control_c, 2, 11, 55
8, 257744, Note_on_c, 2, 68, 0
8, 257744, Note_on_c, 2, 65, 0
8, 257760, Note_on_c, 2, 68, 84
8, 257760, Control_c, 2, 11, 58
8, 257939, Note_on_c, 2, 68, 0
8, 258000, Control_c, 2, 11, 61
8, 258240, Note_on_c, 2, 65, 84
8, 258240, Control_c, 2, 11, 64
8, 258419, Note_on_c, 2, 65, 0
8, 258480, Note_on_c, 2, 64, 92
8, 258480, Control_c, 2, 11, 68
8, 258659, Note_on_c, 2, 64, 0
8, 258720, Control_c, 2, 11, 71
8, 258960, Control_c, 2, 11, 74
8, 259200, Control_c, 2, 11, 78
8, 259200, Note_on_c, 2, 70, 92
8, 259379, Note_on_c, 2, 70, 0
8, 259440, Control_c, 2, 11, 81
8, 259680, Note_on_c, 2, 67, 92
8, 259680, Control_c, 2, 11, 84
8, 259859, Note_on_c, 2, 67, 0
8, 259920, Note_on_c, 2, 69, 92
8, 259920, Note_on_c, 2, 72, 92
8, 259920, Control_c, 2, 11, 88
8, 260099, Note_on_c, 2, 69, 0
8, 260099, Note_on_c, 2, 72, 0
8, 260160, Control_c, 2, 11, 91
8, 260400, Control_c, 2, 11, 94
8, 260640, Control_c, 2, 11, 97
8, 260640, Note_on_c, 2, 70, 92
8, 260640, Note_on_c, 2, 73, 92
8, 260819, Note_on_c, 2, 70, 0
8, 260819, Note_on_c, 2, 73, 0
8, 260880, Control_c, 2, 11, 101
8, 261120, Control_c, 2, 11, 104
8, 261360, Note_on_c, 2, 74, 92
8, 261360, Control_c, 2, 11, 107
8, 261360, Note_on_c, 2, 71, 92
8, 261539, Note_on_c, 2, 74, 0
8, 261539, Note_on_c, 2, 71, 0
8, 261600, Control_c, 2, 11, 111
8, 261840, Control_c, 2, 11, 114
8, 262080, Note_on_c, 2, 76, 92
8, 262080, Note_on_c, 2, 72, 92
8, 262080, Control_c, 2, 11, 117
8, 262259, Note_on_c, 2, 76, 0
8, 262259, Note_on_c, 2, 72, 0
8, 262320, Control_c, 2, 11, 120
8, 262560, Control_c, 2, 11, 124
8, 262800, Control_c, 2, 11, 127
8, 262800, Note_on_c, 2, 76, 84
8, 262800, Note_on_c, 2, 72, 84
8, 262979, Note_on_c, 2, 76, 0
8, 262979, Note_on_c, 2, 72, 0
8, 263280, Note_on_c, 2, 72, 84
8, 263280, Note_on_c, 2, 76, 84
8, 263459, Note_on_c, 2, 72, 0
8, 263459, Note_on_c, 2, 76, 0
8, 263520, Note_on_c, 2, 77, 84
8, 263520, Note_on_c, 2, 72, 84
8, 263699, Note_on_c, 2, 77, 0
8, 263699, Note_on_c, 2, 72, 0
8, 264000, Note_on_c, 2, 74, 84
8, 264179, Note_on_c, 2, 74, 0
8, 264240, Note_on_c, 2, 70, 84
8, 264419, Note_on_c, 2, 70, 0
8, 264720, Note_on_c, 2, 67, 84
8, 264899, Note_on_c, 2, 67, 0
8, 264960, Note_on_c, 2, 72, 84
8, 265139, Note_on_c, 2, 72, 0
8, 265440, Note_on_c, 2, 72, 84
8, 265619, Note_on_c, 2, 72, 0
8, 265680, Note_on_c, 2, 77, 84
8, 265680, Note_on_c, 2, 65, 84
8, 265851, Note_on_c, 2, 77, 0
8, 265851, Note_on_c, 2, 65, 0
8, 265860, Note_on_c, 2, 77, 84
8, 265860, Note_on_c, 2, 65, 84
8, 265911, Note_on_c, 2, 77, 0
8, 265911, Note_on_c, 2, 65, 0
8, 265920, Note_on_c, 2, 76, 84
8, 265920, Note_on_c, 2, 64, 84
8, 266099, Note_on_c, 2, 76, 0
8, 266099, Note_on_c, 2, 64, 0
8, 266160, Note_on_c, 2, 76, 84
8, 266160, Note_on_c, 2, 64, 84
8, 266331, Note_on_c, 2, 76, 0
8, 266331, Note_on_c, 2, 64, 0
8, 266340, Note_on_c, 2, 76, 84
8, 266340, Note_on_c, 2, 64, 84
8, 266391, Note_on_c, 2, 76, 0
8, 266391, Note_on_c, 2, 64, 0
8, 266400, Note_on_c, 2, 65, 84
8, 266400, Note_on_c, 2, 77, 84
8, 266579, Note_on_c, 2, 65, 0
8, 266579, Note_on_c, 2, 77, 0
8, 266640, Note_on_c, 2, 74, 84
8, 266640, Note_on_c, 2, 62, 84
8, 266811, Note_on_c, 2, 74, 0
8, 266811, Note_on_c, 2, 62, 0
8, 266820, Note_on_c, 2, 64, 84
8, 266820, Note_on_c, 2, 76, 84
8, 266871, Note_on_c, 2, 64, 0
8, 266871, Note_on_c, 2, 76, 0
8, 266880, Note_on_c, 2, 77, 84
8, 266880, Note_on_c, 2, 65, 84
8, 267059, Note_on_c, 2, 77, 0
8, 267059, Note_on_c, 2, 65, 0
8, 267120, Note_on_c, 2, 74, 84
8, 267120, Note_on_c, 2, 62, 84
8, 267291, Note_on_c, 2, 74, 0
8, 267291, Note_on_c, 2, 62, 0
8, 267300, Note_on_c, 2, 76, 84
8, 267300, Note_on_c, 2, 64, 84
8, 267351, Note_on_c, 2, 76, 0
8, 267351, Note_on_c, 2, 64, 0
8, 267360, Note_on_c, 2, 77, 48
8, 267360, Note_on_c, 2, 65, 48
8, 267539, Note_on_c, 2, 77, 0
8, 267539, Note_on_c, 2, 65, 0
8, 267600, Note_on_c, 2, 72, 48
8, 267839, Note_on_c, 2, 72, 0
8, 267840, Note_on_c, 2, 71, 48
8, 268319, Note_on_c, 2, 71, 0
8, 268320, Note_on_c, 2, 72, 48
8, 268559, Note_on_c, 2, 72, 0
8, 268560, Note_on_c, 2, 70, 48
8, 269039, Note_on_c, 2, 70, 0
8, 269040, Note_on_c, 2, 69, 48
8, 269279, Note_on_c, 2, 69, 0
8, 269280, Note_on_c, 2, 67, 48
8, 269759, Note_on_c, 2, 67, 0
8, 269760, Note_on_c, 2, 65, 48
8, 269999, Note_on_c, 2, 65, 0
8, 270000, Note_on_c, 2, 64, 48
8, 270479, Note_on_c, 2, 64, 0
8, 270480, Note_on_c, 2, 65, 48
8, 270719, Note_on_c, 2, 65, 0
8, 270720, Note_on_c, 2, 67, 48
8, 271199, Note_on_c, 2, 67, 0
8, 271200, Note_on_c, 2, 69, 48
8, 271439, Note_on_c, 2, 69, 0
8, 271440, Note_on_c, 2, 65, 48
8, 271440, Note_on_c, 2, 70, 48
8, 271919, Note_on_c, 2, 65, 0
8, 271919, Note_on_c, 2, 70, 0
8, 271920, Note_on_c, 2, 74, 48
8, 271920, Note_on_c, 2, 70, 48
8, 272159, Note_on_c, 2, 74, 0
8, 272159, Note_on_c, 2, 70, 0
8, 272160, Note_on_c, 2, 69, 48
8, 272160, Note_on_c, 2, 72, 48
8, 272639, Note_on_c, 2, 69, 0
8, 272639, Note_on_c, 2, 72, 0
8, 272640, Note_on_c, 2, 67, 48
8, 272640, Note_on_c, 2, 76, 48
8, 272864, Note_on_c, 2, 67, 0
8, 272864, Note_on_c, 2, 76, 0
8, 272880, Note_on_c, 2, 69, 84
8, 272880, Note_on_c, 2, 77, 84
8, 273051, Note_on_c, 2, 69, 0
8, 273051, Note_on_c, 2, 77, 0
8, 273060, Note_on_c, 2, 65, 84
8, 273060, Note_on_c, 2, 77, 84
8, 273111, Note_on_c, 2, 65, 0
8, 273111, Note_on_c, 2, 77, 0
8, 273120, Note_on_c, 2, 64, 84
8, 273120, Note_on_c, 2, 76, 84
8, 273299, Note_on_c, 2, 64, 0
8, 273299, Note_on_c, 2, 76, 0
8, 273360, Note_on_c, 2, 64, 84
8, 273360, Note_on_c, 2, 76, 84
8, 273531, Note_on_c, 2, 64, 0
8, 273531, Note_on_c, 2, 76, 0
8, 273540, Note_on_c, 2, 76, 84
8, 273540, Note_on_c, 2, 64, 84
8, 273591, Note_on_c, 2, 76, 0
8, 273591, Note_on_c, 2, 64, 0
8, 273600, Note_on_c, 2, 65, 84
8, 273600, Note_on_c, 2, 77, 84
8, 273779, Note_on_c, 2, 65, 0
8, 273779, Note_on_c, 2, 77, 0
8, 273840, Note_on_c, 2, 62, 84
8, 273840, Note_on_c, 2, 74, 84
8, 274011, Note_on_c, 2, 62, 0
8, 274011, Note_on_c, 2, 74, 0
8, 274020, Note_on_c, 2, 76, 84
8, 274020, Note_on_c, 2, 64, 84
8, 274071, Note_on_c, 2, 76, 0
8, 274071, Note_on_c, 2, 64, 0
8, 274080, Note_on_c, 2, 77, 84
8, 274080, Note_on_c, 2, 65, 84
8, 274259, Note_on_c, 2, 77, 0
8, 274259, Note_on_c, 2, 65, 0
8, 274320, Note_on_c, 2, 74, 84
8, 274320, Note_on_c, 2, 62, 84
8, 274491, Note_on_c, 2, 74, 0
8, 274491, Note_on_c, 2, 62, 0
8, 274500, Note_on_c, 2, 76, 84
8, 274500, Note_on_c, 2, 64, 84
8, 274551, Note_on_c, 2, 76, 0
8, 274551, Note_on_c, 2, 64, 0
8, 274560, Note_on_c, 2, 65, 84
8, 274560, Note_on_c, 2, 77, 84
8, 274739, Note_on_c, 2, 65, 0
8, 274739, Note_on_c, 2, 77, 0
8, 276240, Note_on_c, 2, 72, 48
8, 276479, Note_on_c, 2, 72, 0
8, 276480, Note_on_c, 2, 70, 48
8, 276959, Note_on_c, 2, 70, 0
8, 276960, Note_on_c, 2, 69, 48
8, 277199, Note_on_c, 2, 69, 0
8, 277200, Note_on_c, 2, 67, 48
8, 277679, Note_on_c, 2, 67, 0
8, 277680, Note_on_c, 2, 60, 48
8, 277680, Note_on_c, 2, 65, 48
8, 277919, Note_on_c, 2, 65, 0
8, 277920, Note_on_c, 2, 64, 48
8, 278384, Note_on_c, 2, 60, 0
8, 278399, Note_on_c, 2, 64, 0
8, 278400, Note_on_c, 2, 60, 48
8, 278400, Note_on_c, 2, 63, 48
8, 278639, Note_on_c, 2, 60, 0
8, 278639, Note_on_c, 2, 63, 0
8, 278640, Note_on_c, 2, 62, 48
8, 278640, Note_on_c, 2, 53, 48
8, 279104, Note_on_c, 2, 62, 0
8, 279119, Note_on_c, 2, 53, 0
8, 279120, Note_on_c, 2, 62, 48
8, 279120, Note_on_c, 2, 58, 48
8, 279359, Note_on_c, 2, 62, 0
8, 279359, Note_on_c, 2, 58, 0
8, 279360, Note_on_c, 2, 57, 48
8, 279360, Note_on_c, 2, 60, 48
8, 279839, Note_on_c, 2, 57, 0
8, 279839, Note_on_c, 2, 60, 0
8, 279840, Note_on_c, 2, 64, 48
8, 279840, Note_on_c, 2, 55, 48
8, 280064, Note_on_c, 2, 64, 0
8, 280064, Note_on_c, 2, 55, 0
8, 280080, Note_on_c, 2, 65, 48
8, 280080, Note_on_c, 2, 57, 48
8, 280319, Note_on_c, 2, 65, 0
8, 280319, Note_on_c, 2, 57, 0
8, 280800, Note_on_c, 2, 70, 52
8, 280919, Note_on_c, 2, 70, 0
8, 280920, Note_on_c, 2, 69, 56
8, 281039, Note_on_c, 2, 69, 0
8, 281040, Note_on_c, 2, 70, 60
8, 281159, Note_on_c, 2, 70, 0
8, 281160, Note_on_c, 2, 69, 64
8, 281279, Note_on_c, 2, 69, 0
8, 281280, Note_on_c, 2, 67, 68
8, 281399, Note_on_c, 2, 67, 0
8, 281400, Note_on_c, 2, 65, 72
8, 281504, Note_on_c, 2, 65, 0
8, 281520, Note_on_c, 2, 65, 76
8, 281699, Note_on_c, 2, 65, 0
8, 281760, Note_on_c, 2, 81, 84
8, 281760, Note_on_c, 2, 69, 84
8, 282119, Note_on_c, 2, 81, 0
8, 282119, Note_on_c, 2, 69, 0
8, 282120, Note_on_c, 2, 65, 76
8, 282120, Note_on_c, 2, 77, 76
8, 282224, Note_on_c, 2, 65, 0
8, 282224, Note_on_c, 2, 77, 0
8, 282240, Note_on_c, 2, 76, 84
8, 282240, Note_on_c, 2, 64, 84
8, 282479, Note_on_c, 2, 76, 0
8, 282479, Note_on_c, 2, 64, 0
8, 282600, Note_on_c, 2, 76, 76
8, 282600, Note_on_c, 2, 67, 76
8, 282689, Note_on_c, 2, 76, 0
8, 282689, Note_on_c, 2, 67, 0
8, 282720, Note_on_c, 2, 72, 76
8, 282720, Note_on_c, 2, 77, 76
8, 282809, Note_on_c, 2, 72, 0
8, 282809, Note_on_c, 2, 77, 0
8, 282840, Note_on_c, 2, 79, 76
8, 282840, Note_on_c, 2, 70, 76
8, 282929, Note_on_c, 2, 79, 0
8, 282929, Note_on_c, 2, 70, 0
8, 282960, Note_on_c, 2, 81, 84
8, 282960, Note_on_c, 2, 69, 84
8, 283079, Note_on_c, 2, 81, 0
8, 283079, Note_on_c, 2, 69, 0
8, 283320, Note_on_c, 2, 72, 76
8, 283409, Note_on_c, 2, 72, 0
8, 283440, Note_on_c, 2, 69, 76
8, 283529, Note_on_c, 2, 69, 0
8, 283560, Note_on_c, 2, 77, 76
8, 283560, Note_on_c, 2, 69, 76
8, 283649, Note_on_c, 2, 77, 0
8, 283649, Note_on_c, 2, 69, 0
8, 283680, Note_on_c, 2, 70, 84
8, 283680, Note_on_c, 2, 76, 84
8, 283799, Note_on_c, 2, 70, 0
8, 283799, Note_on_c, 2, 76, 0
8, 284040, Note_on_c, 2, 76, 76
8, 284040, Note_on_c, 2, 64, 76
8, 284129, Note_on_c, 2, 76, 0
8, 284129, Note_on_c, 2, 64, 0
8, 284160, Note_on_c, 2, 72, 76
8, 284160, Note_on_c, 2, 65, 76
8, 284249, Note_on_c, 2, 72, 0
8, 284249, Note_on_c, 2, 65, 0
8, 284280, Note_on_c, 2, 67, 76
8, 284280, Note_on_c, 2, 70, 76
8, 284369, Note_on_c, 2, 67, 0
8, 284369, Note_on_c, 2, 70, 0
8, 284400, Note_on_c, 2, 69, 84
8, 287264, Note_on_c, 2, 69, 0
8, 287280, Note_on_c, 2, 65, 92
8, 287519, Note_on_c, 2, 65, 0
8, 288000, Note_on_c, 2, 65, 92
8, 288000, Note_on_c, 2, 77, 92
8, 288239, Note_on_c, 2, 65, 0
8, 288239, Note_on_c, 2, 77, 0
8, 288720, Note_on_c, 2, 77, 92
8, 288720, Note_on_c, 2, 65, 92
8, 288959, Note_on_c, 2, 77, 0
8, 288959, Note_on_c, 2, 65, 0
8, 289440, Note_on_c, 2, 65, 92
8, 289440, Note_on_c, 2, 77, 92
8, 289679, Note_on_c, 2, 65, 0
8, 289679, Note_on_c, 2, 77, 0
8, 289800, Note_on_c, 2, 65, 84
8, 289800, Note_on_c, 2, 77, 84
8, 289904, Note_on_c, 2, 65, 0
8, 289904, Note_on_c, 2, 77, 0
8, 289920, Note_on_c, 2, 77, 84
8, 289920, Note_on_c, 2, 65, 84
8, 290024, Note_on_c, 2, 77, 0
8, 290024, Note_on_c, 2, 65, 0
8, 290040, Note_on_c, 2, 65, 84
8, 290040, Note_on_c, 2, 77, 84
8, 290144, Note_on_c, 2, 65, 0
8, 290144, Note_on_c, 2, 77, 0
8, 290160, Note_on_c, 2, 65, 84
8, 290160, Note_on_c, 2, 77, 84
8, 290399, Note_on_c, 2, 65, 0
8, 290399, Note_on_c, 2, 77, 0
8, 292320, Note_on_c, 2, 80, 48
8, 293264, Note_on_c, 2, 80, 0
8, 293280, Note_on_c, 2, 77, 48
8, 293399, Note_on_c, 2, 77, 0
8, 293400, Note_on_c, 2, 78, 48
8, 293519, Note_on_c, 2, 78, 0
8, 293520, Note_on_c, 2, 80, 48
8, 293639, Note_on_c, 2, 80, 0
8, 293640, Note_on_c, 2, 77, 48
8, 293759, Note_on_c, 2, 77, 0
8, 293760, Note_on_c, 2, 73, 48
8, 294239, Note_on_c, 2, 73, 0
8, 294240, Note_on_c, 2, 68, 48
8, 294359, Note_on_c, 2, 68, 0
8, 294360, Note_on_c, 2, 73, 48
8, 294464, Note_on_c, 2, 73, 0
8, 294480, Note_on_c, 2, 73, 48
8, 294599, Note_on_c, 2, 73, 0
8, 294600, Note_on_c, 2, 72, 48
8, 294704, Note_on_c, 2, 72, 0
8, 294720, Note_on_c, 2, 72, 48
8, 294839, Note_on_c, 2, 72, 0
8, 294840, Note_on_c, 2, 73, 48
8, 294959, Note_on_c, 2, 73, 0
8, 294960, Note_on_c, 2, 75, 48
8, 295079, Note_on_c, 2, 75, 0
8, 295080, Note_on_c, 2, 77, 48
8, 295184, Note_on_c, 2, 77, 0
8, 295200, Note_on_c, 2, 78, 48
8, 295439, Note_on_c, 2, 78, 0
8, 295440, Note_on_c, 2, 68, 44
8, 295649, Note_on_c, 2, 68, 0
8, 295680, Note_on_c, 2, 68, 44
8, 295859, Note_on_c, 2, 68, 0
8, 295920, Note_on_c, 2, 68, 44
8, 295920, Note_on_c, 2, 75, 44
8, 296039, Note_on_c, 2, 75, 0
8, 296040, Note_on_c, 2, 73, 44
8, 296144, Note_on_c, 2, 73, 0
8, 296159, Note_on_c, 2, 68, 0
8, 296160, Note_on_c, 2, 73, 44
8, 296279, Note_on_c, 2, 73, 0
8, 296280, Note_on_c, 2, 75, 44
8, 296399, Note_on_c, 2, 75, 0
8, 296400, Note_on_c, 2, 77, 44
8, 296519, Note_on_c, 2, 77, 0
8, 296520, Note_on_c, 2, 78, 44
8, 296624, Note_on_c, 2, 78, 0
8, 296640, Note_on_c, 2, 80, 44
8, 296879, Note_on_c, 2, 80, 0
8, 296880, Note_on_c, 2, 73, 44
8, 296880, Note_on_c, 2, 68, 44
8, 297089, Note_on_c, 2, 73, 0
8, 297089, Note_on_c, 2, 68, 0
8, 297120, Note_on_c, 2, 68, 44
8, 297120, Note_on_c, 2, 73, 44
8, 297299, Note_on_c, 2, 68, 0
8, 297299, Note_on_c, 2, 73, 0
8, 297360, Note_on_c, 2, 73, 44
8, 297360, Note_on_c, 2, 68, 44
8, 298784, Note_on_c, 2, 73, 0
8, 298784, Note_on_c, 2, 68, 0
8, 298800, Note_on_c, 2, 74, 44
8, 298800, Note_on_c, 2, 68, 44
8, 299999, Note_on_c, 2, 68, 0
8, 300000, Note_on_c, 2, 70, 44
8, 300224, Note_on_c, 2, 74, 0
8, 300224, Note_on_c, 2, 70, 0
8, 300240, Note_on_c, 2, 70, 44
8, 300240, Note_on_c, 2, 75, 44
8, 301424, Note_on_c, 2, 75, 0
8, 301438, Control_c, 2, 11, 48
8, 301440, Note_on_c, 2, 76, 84
8, 301664, Note_on_c, 2, 70, 0
8, 301664, Note_on_c, 2, 76, 0
8, 301680, Note_on_c, 2, 76, 84
8, 301680, Control_c, 2, 11, 48
8, 301680, Note_on_c, 2, 70, 84
8, 301860, Control_c, 2, 11, 51
8, 302040, Control_c, 2, 11, 55
8, 302220, Control_c, 2, 11, 58
8, 302400, Control_c, 2, 11, 61
8, 302580, Control_c, 2, 11, 64
8, 302624, Note_on_c, 2, 70, 0
8, 302640, Note_on_c, 2, 67, 84
8, 302760, Control_c, 2, 11, 68
8, 302864, Note_on_c, 2, 76, 0
8, 302864, Note_on_c, 2, 67, 0
8, 302880, Note_on_c, 2, 64, 84
8, 302880, Note_on_c, 2, 67, 84
8, 302940, Control_c, 2, 11, 71
8, 303104, Note_on_c, 2, 64, 0
8, 303104, Note_on_c, 2, 67, 0
8, 303120, Note_on_c, 2, 68, 84
8, 303120, Control_c, 2, 11, 74
8, 303120, Note_on_c, 2, 65, 84
8, 303300, Control_c, 2, 11, 78
8, 303480, Control_c, 2, 11, 81
8, 303660, Control_c, 2, 11, 84
8, 303840, Control_c, 2, 11, 88
8, 304020, Control_c, 2, 11, 91
8, 304200, Control_c, 2, 11, 94
8, 304380, Control_c, 2, 11, 97
8, 304544, Note_on_c, 2, 68, 0
8, 304544, Note_on_c, 2, 65, 0
8, 304560, Note_on_c, 2, 69, 84
8, 304560, Control_c, 2, 11, 101
8, 304560, Note_on_c, 2, 65, 84
8, 304740, Control_c, 2, 11, 104
8, 304920, Control_c, 2, 11, 107
8, 305100, Control_c, 2, 11, 111
8, 305280, Control_c, 2, 11, 114
8, 305460, Control_c, 2, 11, 117
8, 305640, Control_c, 2, 11, 120
8, 305820, Control_c, 2, 11, 124
8, 305984, Note_on_c, 2, 69, 0
8, 305984, Note_on_c, 2, 65, 0
8, 306000, Control_c, 2, 11, 127
8, 306000, Note_on_c, 2, 72, 84
8, 306000, Note_on_c, 2, 69, 84
8, 306239, Note_on_c, 2, 72, 0
8, 306239, Note_on_c, 2, 69, 0
8, 306240, Note_on_c, 2, 65, 84
8, 306240, Note_on_c, 2, 69, 84
8, 306359, Note_on_c, 2, 65, 0
8, 306359, Note_on_c, 2, 69, 0
8, 306360, Note_on_c, 2, 67, 84
8, 306360, Note_on_c, 2, 70, 84
8, 306464, Note_on_c, 2, 67, 0
8, 306464, Note_on_c, 2, 70, 0
8, 306480, Note_on_c, 2, 72, 84
8, 306480, Note_on_c, 2, 69, 84
8, 306569, Note_on_c, 2, 72, 0
8, 306569, Note_on_c, 2, 69, 0
8, 306600, Note_on_c, 2, 69, 84
8, 306600, Note_on_c, 2, 65, 84
8, 306689, Note_on_c, 2, 69, 0
8, 306689, Note_on_c, 2, 65, 0
8, 306720, Note_on_c, 2, 72, 92
8, 306720, Note_on_c, 2, 69, 92
8, 306959, Note_on_c, 2, 72, 0
8, 306959, Note_on_c, 2, 69, 0
8, 306960, Note_on_c, 2, 65, 84
8, 306960, Note_on_c, 2, 69, 84
8, 307079, Note_on_c, 2, 65, 0
8, 307079, Note_on_c, 2, 69, 0
8, 307080, Note_on_c, 2, 67, 84
8, 307080, Note_on_c, 2, 70, 84
8, 307184, Note_on_c, 2, 67, 0
8, 307184, Note_on_c, 2, 70, 0
8, 307200, Note_on_c, 2, 72, 84
8, 307200, Note_on_c, 2, 69, 84
8, 307289, Note_on_c, 2, 72, 0
8, 307289, Note_on_c, 2, 69, 0
8, 307320, Note_on_c, 2, 69, 84
8, 307320, Note_on_c, 2, 65, 84
8, 307409, Note_on_c, 2, 69, 0
8, 307409, Note_on_c, 2, 65, 0
8, 307440, Note_on_c, 2, 73, 92
8, 307440, Note_on_c, 2, 70, 92
8, 307679, Note_on_c, 2, 73, 0
8, 307679, Note_on_c, 2, 70, 0
8, 307680, Note_on_c, 2, 67, 84
8, 307680, Note_on_c, 2, 70, 84
8, 307799, Note_on_c, 2, 67, 0
8, 307799, Note_on_c, 2, 70, 0
8, 307800, Note_on_c, 2, 69, 84
8, 307800, Note_on_c, 2, 72, 84
8, 307904, Note_on_c, 2, 69, 0
8, 307904, Note_on_c, 2, 72, 0
8, 307920, Note_on_c, 2, 70, 84
8, 307920, Note_on_c, 2, 67, 84
8, 308009, Note_on_c, 2, 70, 0
8, 308009, Note_on_c, 2, 67, 0
8, 308040, Note_on_c, 2, 65, 84
8, 308040, Note_on_c, 2, 69, 84
8, 308129, Note_on_c, 2, 65, 0
8, 308129, Note_on_c, 2, 69, 0
8, 308160, Note_on_c, 2, 70, 92
8, 308160, Note_on_c, 2, 73, 92
8, 308399, Note_on_c, 2, 70, 0
8, 308399, Note_on_c, 2, 73, 0
8, 308400, Note_on_c, 2, 67, 84
8, 308400, Note_on_c, 2, 70, 84
8, 308519, Note_on_c, 2, 67, 0
8, 308519, Note_on_c, 2, 70, 0
8, 308520, Note_on_c, 2, 69, 84
8, 308520, Note_on_c, 2, 72, 84
8, 308624, Note_on_c, 2, 69, 0
8, 308624, Note_on_c, 2, 72, 0
8, 308640, Note_on_c, 2, 70, 84
8, 308640, Note_on_c, 2, 67, 84
8, 308729, Note_on_c, 2, 70, 0
8, 308729, Note_on_c, 2, 67, 0
8, 308760, Note_on_c, 2, 69, 84
8, 308760, Note_on_c, 2, 65, 84
8, 308849, Note_on_c, 2, 69, 0
8, 308849, Note_on_c, 2, 65, 0
8, 308880, Note_on_c, 2, 73, 92
8, 308880, Note_on_c, 2, 70, 92
8, 309119, Note_on_c, 2, 73, 0
8, 309119, Note_on_c, 2, 70, 0
8, 309120, Note_on_c, 2, 73, 84
8, 309120, Note_on_c, 2, 70, 84
8, 309239, Note_on_c, 2, 73, 0
8, 309239, Note_on_c, 2, 70, 0
8, 309240, Note_on_c, 2, 69, 84
8, 309240, Note_on_c, 2, 72, 84
8, 309344, Note_on_c, 2, 69, 0
8, 309344, Note_on_c, 2, 72, 0
8, 309360, Note_on_c, 2, 67, 84
8, 309360, Note_on_c, 2, 70, 84
8, 309449, Note_on_c, 2, 67, 0
8, 309449, Note_on_c, 2, 70, 0
8, 309480, Note_on_c, 2, 68, 84
8, 309480, Note_on_c, 2, 71, 84
8, 309569, Note_on_c, 2, 68, 0
8, 309569, Note_on_c, 2, 71, 0
8, 309600, Note_on_c, 2, 72, 92
8, 309600, Note_on_c, 2, 69, 92
8, 309689, Note_on_c, 2, 72, 0
8, 309689, Note_on_c, 2, 69, 0
8, 309720, Note_on_c, 2, 72, 84
8, 309839, Note_on_c, 2, 72, 0
8, 309840, Note_on_c, 2, 74, 84
8, 309959, Note_on_c, 2, 74, 0
8, 309960, Note_on_c, 2, 72, 84
8, 310079, Note_on_c, 2, 72, 0
8, 310080, Note_on_c, 2, 74, 84
8, 310199, Note_on_c, 2, 74, 0
8, 310200, Note_on_c, 2, 76, 84
8, 310304, Note_on_c, 2, 76, 0
8, 310320, Note_on_c, 2, 77, 92
8, 310439, Note_on_c, 2, 77, 0
8, 310560, Note_on_c, 2, 72, 84
8, 310560, Note_on_c, 2, 77, 84
8, 310679, Note_on_c, 2, 72, 0
8, 310679, Note_on_c, 2, 77, 0
8, 310800, Note_on_c, 2, 76, 84
8, 310800, Note_on_c, 2, 79, 84
8, 310919, Note_on_c, 2, 76, 0
8, 310919, Note_on_c, 2, 79, 0
8, 311040, Note_on_c, 2, 77, 92
8, 311040, Note_on_c, 2, 81, 92
8, 311159, Note_on_c, 2, 77, 0
8, 311159, Note_on_c, 2, 81, 0
8, 311280, Note_on_c, 2, 72, 84
8, 311280, Note_on_c, 2, 77, 84
8, 311399, Note_on_c, 2, 72, 0
8, 311399, Note_on_c, 2, 77, 0
8, 311520, Note_on_c, 2, 76, 84
8, 311520, Note_on_c, 2, 79, 84
8, 311639, Note_on_c, 2, 76, 0
8, 311639, Note_on_c, 2, 79, 0
8, 311760, Note_on_c, 2, 81, 92
8, 311760, Note_on_c, 2, 77, 92
8, 311879, Note_on_c, 2, 81, 0
8, 311879, Note_on_c, 2, 77, 0
8, 312000, Note_on_c, 2, 77, 84
8, 312000, Note_on_c, 2, 72, 84
8, 312119, Note_on_c, 2, 77, 0
8, 312119, Note_on_c, 2, 72, 0
8, 312240, Note_on_c, 2, 76, 84
8, 312240, Note_on_c, 2, 79, 84
8, 312359, Note_on_c, 2, 76, 0
8, 312359, Note_on_c, 2, 79, 0
8, 312720, Note_on_c, 2, 76, 92
8, 312720, Note_on_c, 2, 82, 92
8, 313199, Note_on_c, 2, 76, 0
8, 313199, Note_on_c, 2, 82, 0
8, 313920, Note_on_c, 2, 79, 52
8, 313920, Note_on_c, 2, 70, 52
8, 314399, Note_on_c, 2, 79, 0
8, 314399, Note_on_c, 2, 70, 0
8, 314400, Note_on_c, 2, 69, 52
8, 314400, Note_on_c, 2, 77, 52
8, 314639, Note_on_c, 2, 69, 0
8, 314639, Note_on_c, 2, 77, 0
8, 317280, Control_c, 2, 11, 80
8, 317520, Note_on_c, 2, 67, 76
8, 317520, Control_c, 2, 11, 80
8, 317640, Control_c, 2, 11, 84
8, 317760, Control_c, 2, 11, 88
8, 317880, Control_c, 2, 11, 92
8, 317999, Note_on_c, 2, 67, 0
8, 318000, Control_c, 2, 11, 96
8, 318000, Note_on_c, 2, 65, 76
8, 318120, Control_c, 2, 11, 100
8, 318224, Note_on_c, 2, 65, 0
8, 318240, Note_on_c, 2, 67, 76
8, 318240, Control_c, 2, 11, 104
8, 318360, Control_c, 2, 11, 107
8, 318480, Control_c, 2, 11, 111
8, 318600, Control_c, 2, 11, 115
8, 318719, Note_on_c, 2, 67, 0
8, 318720, Note_on_c, 2, 69, 76
8, 318720, Control_c, 2, 11, 119
8, 318840, Control_c, 2, 11, 123
8, 318944, Note_on_c, 2, 69, 0
8, 318960, Note_on_c, 2, 79, 76
8, 318960, Control_c, 2, 11, 127
8, 318960, Note_on_c, 2, 70, 76
8, 319424, Note_on_c, 2, 79, 0
8, 319424, Note_on_c, 2, 70, 0
8, 319440, Note_on_c, 2, 69, 84
8, 319440, Note_on_c, 2, 77, 84
8, 319664, Note_on_c, 2, 69, 0
8, 319664, Note_on_c, 2, 77, 0
8, 319680, Note_on_c, 2, 79, 76
8, 319680, Note_on_c, 2, 70, 76
8, 320144, Note_on_c, 2, 79, 0
8, 320144, Note_on_c, 2, 70, 0
8, 320160, Note_on_c, 2, 69, 84
8, 320160, Note_on_c, 2, 77, 84
8, 320384, Note_on_c, 2, 69, 0
8, 320384, Note_on_c, 2, 77, 0
8, 320400, Note_on_c, 2, 79, 76
8, 320400, Note_on_c, 2, 70, 76
8, 320864, Note_on_c, 2, 79, 0
8, 320864, Note_on_c, 2, 70, 0
8, 320880, Note_on_c, 2, 77, 84
8, 320880, Note_on_c, 2, 69, 84
8, 321104, Note_on_c, 2, 77, 0
8, 321104, Note_on_c, 2, 69, 0
8, 321120, Note_on_c, 2, 70, 76
8, 321120, Note_on_c, 2, 79, 76
8, 321344, Note_on_c, 2, 70, 0
8, 321360, Note_on_c, 2, 72, 76
8, 321584, Note_on_c, 2, 79, 0
8, 321584, Note_on_c, 2, 72, 0
8, 321600, Note_on_c, 2, 72, 84
8, 321600, Note_on_c, 2, 81, 84
8, 321824, Note_on_c, 2, 72, 0
8, 321824, Note_on_c, 2, 81, 0
8, 321840, Note_on_c, 2, 74, 76
8, 321840, Note_on_c, 2, 82, 76
8, 322064, Note_on_c, 2, 74, 0
8, 322064, Note_on_c, 2, 82, 0
8, 322080, Note_on_c, 2, 65, 76
8, 322080, Note_on_c, 2, 70, 76
8, 322304, Note_on_c, 2, 65, 0
8, 322304, Note_on_c, 2, 70, 0
8, 322320, Note_on_c, 2, 72, 84
8, 322320, Note_on_c, 2, 63, 84
8, 322544, Note_on_c, 2, 72, 0
8, 322544, Note_on_c, 2, 63, 0
8, 322560, Note_on_c, 2, 62, 76
8, 322560, Note_on_c, 2, 74, 76
8, 322784, Note_on_c, 2, 62, 0
8, 322800, Note_on_c, 2, 70, 76
8, 323024, Note_on_c, 2, 74, 0
8, 323024, Note_on_c, 2, 70, 0
8, 323040, Note_on_c, 2, 76, 84
8, 323040, Note_on_c, 2, 67, 84
8, 323264, Note_on_c, 2, 76, 0
8, 323264, Note_on_c, 2, 67, 0
8, 323280, Note_on_c, 2, 77, 76
8, 323280, Note_on_c, 2, 65, 76
8, 323744, Note_on_c, 2, 77, 0
8, 323744, Note_on_c, 2, 65, 0
8, 323760, Note_on_c, 2, 79, 84
8, 323760, Note_on_c, 2, 67, 84
8, 323984, Note_on_c, 2, 79, 0
8, 323984, Note_on_c, 2, 67, 0
8, 324000, Note_on_c, 2, 81, 76
8, 324000, Note_on_c, 2, 69, 76
8, 324464, Note_on_c, 2, 81, 0
8, 324464, Note_on_c, 2, 69, 0
8, 324480, Note_on_c, 2, 82, 84
8, 324480, Note_on_c, 2, 70, 84
8, 324584, Note_on_c, 2, 82, 0
8, 324584, Note_on_c, 2, 70, 0
8, 324600, Note_on_c, 2, 77, 76
8, 324704, Note_on_c, 2, 77, 0
8, 324720, Note_on_c, 2, 77, 92
8, 324720, Note_on_c, 2, 80, 92
8, 325904, Note_on_c, 2, 77, 0
8, 325904, Note_on_c, 2, 80, 0
8, 325920, Note_on_c, 2, 77, 92
8, 325920, Note_on_c, 2, 81, 92
8, 326144, Note_on_c, 2, 77, 0
8, 326144, Note_on_c, 2, 81, 0
8, 326160, Note_on_c, 2, 77, 92
8, 326160, Note_on_c, 2, 81, 92
8, 326279, Note_on_c, 2, 77, 0
8, 326279, Note_on_c, 2, 81, 0
8, 326400, Note_on_c, 2, 77, 92
8, 326400, Note_on_c, 2, 69, 92
8, 326519, Note_on_c, 2, 77, 0
8, 326519, Note_on_c, 2, 69, 0
8, 326520, Note_on_c, 2, 72, 92
8, 326520, Note_on_c, 2, 79, 92
8, 326624, Note_on_c, 2, 72, 0
8, 326624, Note_on_c, 2, 79, 0
8, 326640, Note_on_c, 2, 77, 92
8, 326640, Note_on_c, 2, 81, 92
8, 326729, Note_on_c, 2, 77, 0
8, 326729, Note_on_c, 2, 81, 0
8, 326760, Note_on_c, 2, 77, 92
8, 326760, Note_on_c, 2, 69, 92
8, 326849, Note_on_c, 2, 77, 0
8, 326849, Note_on_c, 2, 69, 0
8, 326880, Note_on_c, 2, 77, 92
8, 326880, Note_on_c, 2, 81, 92
8, 326999, Note_on_c, 2, 77, 0
8, 326999, Note_on_c, 2, 81, 0
8, 327120, Note_on_c, 2, 69, 92
8, 327120, Note_on_c, 2, 77, 92
8, 327239, Note_on_c, 2, 69, 0
8, 327239, Note_on_c, 2, 77, 0
8, 327240, Note_on_c, 2, 72, 92
8, 327240, Note_on_c, 2, 79, 92
8, 327344, Note_on_c, 2, 72, 0
8, 327344, Note_on_c, 2, 79, 0
8, 327360, Note_on_c, 2, 77, 92
8, 327360, Note_on_c, 2, 81, 92
8, 327449, Note_on_c, 2, 77, 0
8, 327449, Note_on_c, 2, 81, 0
8, 327480, Note_on_c, 2, 77, 92
8, 327480, Note_on_c, 2, 69, 92
8, 327569, Note_on_c, 2, 77, 0
8, 327569, Note_on_c, 2, 69, 0
8, 327600, Note_on_c, 2, 81, 92
8, 327600, Note_on_c, 2, 77, 92
8, 327719, Note_on_c, 2, 81, 0
8, 327719, Note_on_c, 2, 77, 0
8, 327840, Note_on_c, 2, 77, 92
8, 327840, Note_on_c, 2, 69, 92
8, 327959, Note_on_c, 2, 77, 0
8, 327959, Note_on_c, 2, 69, 0
8, 327960, Note_on_c, 2, 72, 92
8, 327960, Note_on_c, 2, 79, 92
8, 328064, Note_on_c, 2, 72, 0
8, 328064, Note_on_c, 2, 79, 0
8, 328080, Note_on_c, 2, 81, 92
8, 328080, Note_on_c, 2, 77, 92
8, 328169, Note_on_c, 2, 81, 0
8, 328169, Note_on_c, 2, 77, 0
8, 328200, Note_on_c, 2, 77, 92
8, 328200, Note_on_c, 2, 69, 92
8, 328289, Note_on_c, 2, 77, 0
8, 328289, Note_on_c, 2, 69, 0
8, 328320, Note_on_c, 2, 79, 92
8, 328320, Note_on_c, 2, 76, 92
8, 328439, Note_on_c, 2, 79, 0
8, 328439, Note_on_c, 2, 76, 0
8, 328560, Note_on_c, 2, 76, 92
8, 328560, Note_on_c, 2, 79, 92
8, 328679, Note_on_c, 2, 76, 0
8, 328679, Note_on_c, 2, 79, 0
8, 328800, Note_on_c, 2, 76, 92
8, 328800, Note_on_c, 2, 79, 92
8, 328919, Note_on_c, 2, 76, 0
8, 328919, Note_on_c, 2, 79, 0
8, 329040, Note_on_c, 2, 77, 92
8, 329040, Note_on_c, 2, 81, 92
8, 329159, Note_on_c, 2, 77, 0
8, 329159, Note_on_c, 2, 81, 0
8, 329280, Note_on_c, 2, 69, 92
8, 329280, Note_on_c, 2, 77, 92
8, 329399, Note_on_c, 2, 69, 0
8, 329399, Note_on_c, 2, 77, 0
8, 329400, Note_on_c, 2, 72, 92
8, 329400, Note_on_c, 2, 79, 92
8, 329504, Note_on_c, 2, 72, 0
8, 329504, Note_on_c, 2, 79, 0
8, 329520, Note_on_c, 2, 77, 92
8, 329520, Note_on_c, 2, 81, 92
8, 329609, Note_on_c, 2, 77, 0
8, 329609, Note_on_c, 2, 81, 0
8, 329640, Note_on_c, 2, 77, 92
8, 329640, Note_on_c, 2, 69, 92
8, 329729, Note_on_c, 2, 77, 0
8, 329729, Note_on_c, 2, 69, 0
8, 329760, Note_on_c, 2, 77, 92
8, 329760, Note_on_c, 2, 81, 92
8, 329879, Note_on_c, 2, 77, 0
8, 329879, Note_on_c, 2, 81, 0
8, 330000, Note_on_c, 2, 69, 92
8, 330000, Note_on_c, 2, 77, 92
8, 330119, Note_on_c, 2, 69, 0
8, 330119, Note_on_c, 2, 77, 0
8, 330120, Note_on_c, 2, 72, 92
8, 330120, Note_on_c, 2, 79, 92
8, 330224, Note_on_c, 2, 72, 0
8, 330224, Note_on_c, 2, 79, 0
8, 330240, Note_on_c, 2, 77, 92
8, 330240, Note_on_c, 2, 81, 92
8, 330329, Note_on_c, 2, 77, 0
8, 330329, Note_on_c, 2, 81, 0
8, 330360, Note_on_c, 2, 77, 92
8, 330360, Note_on_c, 2, 69, 92
8, 330449, Note_on_c, 2, 77, 0
8, 330449, Note_on_c, 2, 69, 0
8, 330480, Note_on_c, 2, 77, 92
8, 330480, Note_on_c, 2, 81, 92
8, 330599, Note_on_c, 2, 77, 0
8, 330599, Note_on_c, 2, 81, 0
8, 330720, Note_on_c, 2, 69, 92
8, 330720, Note_on_c, 2, 77, 92
8, 330839, Note_on_c, 2, 69, 0
8, 330839, Note_on_c, 2, 77, 0
8, 330840, Note_on_c, 2, 72, 92
8, 330840, Note_on_c, 2, 79, 92
8, 330944, Note_on_c, 2, 72, 0
8, 330944, Note_on_c, 2, 79, 0
8, 330960, Note_on_c, 2, 77, 92
8, 330960, Note_on_c, 2, 81, 92
8, 331049, Note_on_c, 2, 77, 0
8, 331049, Note_on_c, 2, 81, 0
8, 331080, Note_on_c, 2, 69, 92
8, 331080, Note_on_c, 2, 77, 92
8, 331169, Note_on_c, 2, 69, 0
8, 331169, Note_on_c, 2, 77, 0
8, 331200, Note_on_c, 2, 79, 92
8, 331200, Note_on_c, 2, 76, 92
8, 331319, Note_on_c, 2, 79, 0
8, 331319, Note_on_c, 2, 76, 0
8, 331440, Note_on_c, 2, 79, 92
8, 331440, Note_on_c, 2, 76, 92
8, 331559, Note_on_c, 2, 79, 0
8, 331559, Note_on_c, 2, 76, 0
8, 331680, Note_on_c, 2, 79, 92
8, 331680, Note_on_c, 2, 76, 92
8, 331799, Note_on_c, 2, 79, 0
8, 331799, Note_on_c, 2, 76, 0
8, 332640, Note_on_c, 2, 81, 92
8, 332640, Note_on_c, 2, 77, 92
8, 332759, Note_on_c, 2, 81, 0
8, 332759, Note_on_c, 2, 77, 0
8, 332880, Note_on_c, 2, 81, 92
8, 332880, Note_on_c, 2, 77, 92
8, 332999, Note_on_c, 2, 81, 0
8, 332999, Note_on_c, 2, 77, 0
8, 333120, Note_on_c, 2, 77, 92
8, 333120, Note_on_c, 2, 81, 92
8, 333239, Note_on_c, 2, 77, 0
8, 333239, Note_on_c, 2, 81, 0
8, 334800, Note_on_c, 2, 67, 52
8, 334800, Note_on_c, 2, 70, 52
8, 335024, Note_on_c, 2, 67, 0
8, 335024, Note_on_c, 2, 70, 0
8, 335040, Note_on_c, 2, 67, 52
8, 335040, Note_on_c, 2, 70, 52
8, 335264, Note_on_c, 2, 67, 0
8, 335264, Note_on_c, 2, 70, 0
8, 335280, Note_on_c, 2, 67, 52
8, 335280, Note_on_c, 2, 70, 52
8, 335519, Note_on_c, 2, 67, 0
8, 335519, Note_on_c, 2, 70, 0
8, 336240, Note_on_c, 2, 69, 52
8, 336240, Note_on_c, 2, 65, 52
8, 336464, Note_on_c, 2, 69, 0
8, 336464, Note_on_c, 2, 65, 0
8, 336480, Note_on_c, 2, 65, 52
8, 336480, Note_on_c, 2, 69, 52
8, 336704, Note_on_c, 2, 65, 0
8, 336704, Note_on_c, 2, 69, 0
8, 336720, Note_on_c, 2, 65, 52
8, 336720, Note_on_c, 2, 69, 52
8, 336959, Note_on_c, 2, 65, 0
8, 336959, Note_on_c, 2, 69, 0
8, 337680, Note_on_c, 2, 65, 52
8, 337680, Note_on_c, 2, 69, 52
8, 337680, Control_c, 2, 11, 127
8, 337860, Control_c, 2, 11, 126
8, 337904, Note_on_c, 2, 65, 0
8, 337904, Note_on_c, 2, 69, 0
8, 337920, Note_on_c, 2, 69, 52
8, 337920, Note_on_c, 2, 65, 52
8, 338040, Control_c, 2, 11, 125
8, 338159, Note_on_c, 2, 69, 0
8, 338159, Note_on_c, 2, 65, 0
8, 338220, Control_c, 2, 11, 123
8, 338400, Control_c, 2, 11, 122
8, 338580, Control_c, 2, 11, 121
8, 338760, Control_c, 2, 11, 120
8, 338940, Control_c, 2, 11, 118
8, 339120, Note_on_c, 2, 65, 52
8, 339120, Control_c, 2, 11, 117
8, 339120, Note_on_c, 2, 69, 52
8, 339300, Control_c, 2, 11, 116
8, 339344, Note_on_c, 2, 65, 0
8, 339344, Note_on_c, 2, 69, 0
8, 339360, Note_on_c, 2, 65, 52
8, 339360, Note_on_c, 2, 69, 52
8, 339480, Control_c, 2, 11, 115
8, 339599, Note_on_c, 2, 65, 0
8, 339599, Note_on_c, 2, 69, 0
8, 339660, Control_c, 2, 11, 127
8, 339840, Note_on_c, 2, 65, 44
8, 339840, Note_on_c, 2, 69, 44
8, 340544, Note_on_c, 2, 65, 0
8, 340544, Note_on_c, 2, 69, 0
8, 340560, Note_on_c, 2, 69, 44
8, 340560, Note_on_c, 2, 65, 44
8, 341264, Note_on_c, 2, 69, 0
8, 341264, Note_on_c, 2, 65, 0
8, 341280, Note_on_c, 2, 69, 44
8, 341280, Note_on_c, 2, 65, 44
8, 341399, Note_on_c, 2, 69, 0
8, 341399, Note_on_c, 2, 65, 0
8, 341520, Note_on_c, 2, 69, 44
8, 341520, Note_on_c, 2, 65, 44
8, 341639, Note_on_c, 2, 69, 0
8, 341639, Note_on_c, 2, 65, 0
8, 341760, Note_on_c, 2, 65, 44
8, 341760, Note_on_c, 2, 69, 44
8, 341879, Note_on_c, 2, 65, 0
8, 341879, Note_on_c, 2, 69, 0
8, 342000, Note_on_c, 2, 69, 44
8, 342000, Note_on_c, 2, 65, 44
8, 342239, Note_on_c, 2, 69, 0
8, 342239, Note_on_c, 2, 65, 0
8, 342239, End_track
9, 0, Start_track
9, 0, Title_t, "Bassoon"
9, 0, MIDI_port, 0
9, 0, Program_c, 3, 70
9, 0, Control_c, 3, 7, 96
9, 0, Control_c, 3, 10, 65
9, 0, Control_c, 3, 11, 127
9, 0, Note_on_c, 3, 60, 76
9, 0, Note_on_c, 3, 57, 76
9, 1184, Note_on_c, 3, 60, 0
9, 1184, Note_on_c, 3, 57, 0
9, 1200, Note_on_c, 3, 57, 76
9, 1200, Note_on_c, 3, 53, 76
9, 1289, Note_on_c, 3, 57, 0
9, 1289, Note_on_c, 3, 53, 0
9, 1320, Note_on_c, 3, 53, 76
9, 1320, Note_on_c, 3, 57, 76
9, 1409, Note_on_c, 3, 53, 0
9, 1409, Note_on_c, 3, 57, 0
9, 1440, Note_on_c, 3, 55, 76
9, 1440, Note_on_c, 3, 58, 76
9, 1664, Note_on_c, 3, 55, 0
9, 1664, Note_on_c, 3, 58, 0
9, 1680, Note_on_c, 3, 58, 76
9, 1680, Note_on_c, 3, 55, 76
9, 1769, Note_on_c, 3, 58, 0
9, 1769, Note_on_c, 3, 55, 0
9, 1800, Note_on_c, 3, 57, 76
9, 1800, Note_on_c, 3, 53, 76
9, 1889, Note_on_c, 3, 57, 0
9, 1889, Note_on_c, 3, 53, 0
9, 1920, Note_on_c, 3, 55, 76
9, 1920, Note_on_c, 3, 52, 76
9, 2009, Note_on_c, 3, 55, 0
9, 2009, Note_on_c, 3, 52, 0
9, 2040, Note_on_c, 3, 50, 76
9, 2040, Note_on_c, 3, 53, 76
9, 2129, Note_on_c, 3, 50, 0
9, 2129, Note_on_c, 3, 53, 0
9, 2160, Note_on_c, 3, 48, 76
9, 2160, Note_on_c, 3, 52, 76
9, 2399, Note_on_c, 3, 48, 0
9, 2399, Note_on_c, 3, 52, 0
9, 2880, Note_on_c, 3, 55, 48
9, 2880, Note_on_c, 3, 48, 48
9, 4064, Note_on_c, 3, 55, 0
9, 4064, Note_on_c, 3, 48, 0
9, 4080, Note_on_c, 3, 55, 48
9, 4080, Note_on_c, 3, 48, 48
9, 4304, Note_on_c, 3, 55, 0
9, 4304, Note_on_c, 3, 48, 0
9, 4320, Note_on_c, 3, 57, 48
9, 4320, Note_on_c, 3, 53, 48
9, 4559, Note_on_c, 3, 57, 0
9, 4559, Note_on_c, 3, 53, 0
9, 4560, Note_on_c, 3, 53, 48
9, 4560, Note_on_c, 3, 45, 48
9, 4799, Note_on_c, 3, 53, 0
9, 4799, Note_on_c, 3, 45, 0
9, 4800, Note_on_c, 3, 48, 48
9, 4800, Note_on_c, 3, 55, 48
9, 5024, Note_on_c, 3, 48, 0
9, 5024, Note_on_c, 3, 55, 0
9, 5040, Note_on_c, 3, 55, 48
9, 5040, Note_on_c, 3, 48, 48
9, 5519, Note_on_c, 3, 55, 0
9, 5519, Note_on_c, 3, 48, 0
9, 5520, Note_on_c, 3, 53, 48
9, 5520, Note_on_c, 3, 57, 48
9, 5759, Note_on_c, 3, 53, 0
9, 5759, Note_on_c, 3, 57, 0
9, 6480, Note_on_c, 3, 55, 76
9, 6569, Note_on_c, 3, 55, 0
9, 6600, Note_on_c, 3, 55, 76
9, 6689, Note_on_c, 3, 55, 0
9, 6720, Note_on_c, 3, 57, 76
9, 6809, Note_on_c, 3, 57, 0
9, 6840, Note_on_c, 3, 58, 76
9, 6929, Note_on_c, 3, 58, 0
9, 6960, Note_on_c, 3, 60, 76
9, 7049, Note_on_c, 3, 60, 0
9, 7080, Note_on_c, 3, 62, 76
9, 7169, Note_on_c, 3, 62, 0
9, 7200, Note_on_c, 3, 57, 76
9, 7200, Note_on_c, 3, 53, 76
9, 7319, Note_on_c, 3, 57, 0
9, 7319, Note_on_c, 3, 53, 0
9, 7440, Note_on_c, 3, 53, 76
9, 7440, Note_on_c, 3, 57, 76
9, 7559, Note_on_c, 3, 53, 0
9, 7559, Note_on_c, 3, 57, 0
9, 7680, Note_on_c, 3, 58, 76
9, 7680, Note_on_c, 3, 55, 76
9, 7799, Note_on_c, 3, 58, 0
9, 7799, Note_on_c, 3, 55, 0
9, 7920, Note_on_c, 3, 53, 76
9, 7920, Note_on_c, 3, 57, 76
9, 8159, Note_on_c, 3, 53, 0
9, 8159, Note_on_c, 3, 57, 0
9, 9300, Note_on_c, 3, 53, 76
9, 9300, Note_on_c, 3, 57, 76
9, 9351, Note_on_c, 3, 53, 0
9, 9351, Note_on_c, 3, 57, 0
9, 9360, Note_on_c, 3, 50, 76
9, 9360, Note_on_c, 3, 62, 76
9, 9599, Note_on_c, 3, 50, 0
9, 9599, Note_on_c, 3, 62, 0
9, 10740, Note_on_c, 3, 62, 76
9, 10740, Note_on_c, 3, 50, 76
9, 10791, Note_on_c, 3, 62, 0
9, 10791, Note_on_c, 3, 50, 0
9, 10800, Note_on_c, 3, 58, 76
9, 10800, Note_on_c, 3, 46, 76
9, 11039, Note_on_c, 3, 58, 0
9, 11039, Note_on_c, 3, 46, 0
9, 12180, Note_on_c, 3, 46, 76
9, 12180, Note_on_c, 3, 58, 76
9, 12231, Note_on_c, 3, 46, 0
9, 12231, Note_on_c, 3, 58, 0
9, 12240, Note_on_c, 3, 55, 76
9, 12240, Note_on_c, 3, 58, 76
9, 12704, Note_on_c, 3, 55, 0
9, 12704, Note_on_c, 3, 58, 0
9, 12720, Note_on_c, 3, 58, 76
9, 12720, Note_on_c, 3, 55, 76
9, 12839, Note_on_c, 3, 58, 0
9, 12839, Note_on_c, 3, 55, 0
9, 12960, Note_on_c, 3, 55, 76
9, 12960, Note_on_c, 3, 58, 76
9, 13079, Note_on_c, 3, 55, 0
9, 13079, Note_on_c, 3, 58, 0
9, 13200, Note_on_c, 3, 55, 76
9, 13200, Note_on_c, 3, 58, 76
9, 13319, Note_on_c, 3, 55, 0
9, 13319, Note_on_c, 3, 58, 0
9, 13440, Note_on_c, 3, 55, 76
9, 13440, Note_on_c, 3, 52, 76
9, 13559, Note_on_c, 3, 55, 0
9, 13559, Note_on_c, 3, 52, 0
9, 13680, Note_on_c, 3, 53, 76
9, 13680, Note_on_c, 3, 57, 76
9, 15051, Note_on_c, 3, 53, 0
9, 15051, Note_on_c, 3, 57, 0
9, 15060, Note_on_c, 3, 53, 76
9, 15060, Note_on_c, 3, 57, 76
9, 15111, Note_on_c, 3, 53, 0
9, 15111, Note_on_c, 3, 57, 0
9, 15120, Note_on_c, 3, 50, 76
9, 15120, Note_on_c, 3, 58, 76
9, 16491, Note_on_c, 3, 50, 0
9, 16491, Note_on_c, 3, 58, 0
9, 16500, Note_on_c, 3, 58, 76
9, 16500, Note_on_c, 3, 50, 76
9, 16551, Note_on_c, 3, 58, 0
9, 16551, Note_on_c, 3, 50, 0
9, 16560, Note_on_c, 3, 56, 76
9, 16560, Note_on_c, 3, 53, 76
9, 17931, Note_on_c, 3, 56, 0
9, 17931, Note_on_c, 3, 53, 0
9, 17940, Note_on_c, 3, 53, 76
9, 17940, Note_on_c, 3, 56, 76
9, 17991, Note_on_c, 3, 53, 0
9, 17991, Note_on_c, 3, 56, 0
9, 18000, Note_on_c, 3, 53, 76
9, 18000, Note_on_c, 3, 56, 76
9, 19371, Note_on_c, 3, 53, 0
9, 19371, Note_on_c, 3, 56, 0
9, 19380, Note_on_c, 3, 53, 76
9, 19380, Note_on_c, 3, 56, 76
9, 19431, Note_on_c, 3, 53, 0
9, 19431, Note_on_c, 3, 56, 0
9, 19440, Note_on_c, 3, 56, 76
9, 19440, Note_on_c, 3, 53, 76
9, 19904, Note_on_c, 3, 56, 0
9, 19904, Note_on_c, 3, 53, 0
9, 19920, Note_on_c, 3, 56, 84
9, 19920, Note_on_c, 3, 53, 84
9, 20091, Note_on_c, 3, 56, 0
9, 20091, Note_on_c, 3, 53, 0
9, 20100, Note_on_c, 3, 53, 76
9, 20100, Note_on_c, 3, 56, 76
9, 20151, Note_on_c, 3, 53, 0
9, 20151, Note_on_c, 3, 56, 0
9, 20160, Note_on_c, 3, 56, 76
9, 20160, Note_on_c, 3, 53, 76
9, 20624, Note_on_c, 3, 56, 0
9, 20624, Note_on_c, 3, 53, 0
9, 20640, Note_on_c, 3, 56, 84
9, 20640, Note_on_c, 3, 53, 84
9, 20811, Note_on_c, 3, 56, 0
9, 20811, Note_on_c, 3, 53, 0
9, 20820, Note_on_c, 3, 53, 76
9, 20820, Note_on_c, 3, 56, 76
9, 20871, Note_on_c, 3, 53, 0
9, 20871, Note_on_c, 3, 56, 0
9, 20880, Note_on_c, 3, 56, 76
9, 20880, Note_on_c, 3, 53, 76
9, 20999, Note_on_c, 3, 56, 0
9, 20999, Note_on_c, 3, 53, 0
9, 21360, Note_on_c, 3, 56, 84
9, 21360, Note_on_c, 3, 53, 84
9, 21479, Note_on_c, 3, 56, 0
9, 21479, Note_on_c, 3, 53, 0
9, 21600, Note_on_c, 3, 56, 76
9, 21600, Note_on_c, 3, 53, 76
9, 21719, Note_on_c, 3, 56, 0
9, 21719, Note_on_c, 3, 53, 0
9, 22080, Note_on_c, 3, 53, 84
9, 22080, Note_on_c, 3, 56, 84
9, 22199, Note_on_c, 3, 53, 0
9, 22199, Note_on_c, 3, 56, 0
9, 22320, Note_on_c, 3, 56, 76
9, 22320, Note_on_c, 3, 53, 76
9, 22439, Note_on_c, 3, 56, 0
9, 22439, Note_on_c, 3, 53, 0
9, 25200, Note_on_c, 3, 57, 52
9, 25379, Note_on_c, 3, 57, 0
9, 25680, Note_on_c, 3, 67, 52
9, 25859, Note_on_c, 3, 67, 0
9, 25920, Note_on_c, 3, 57, 52
9, 26099, Note_on_c, 3, 57, 0
9, 26400, Note_on_c, 3, 67, 52
9, 26579, Note_on_c, 3, 67, 0
9, 26640, Note_on_c, 3, 66, 52
9, 26819, Note_on_c, 3, 66, 0
9, 26880, Note_on_c, 3, 62, 52
9, 27059, Note_on_c, 3, 62, 0
9, 27120, Note_on_c, 3, 57, 52
9, 27299, Note_on_c, 3, 57, 0
9, 27360, Note_on_c, 3, 55, 52
9, 27539, Note_on_c, 3, 55, 0
9, 27600, Note_on_c, 3, 52, 52
9, 27779, Note_on_c, 3, 52, 0
9, 27840, Note_on_c, 3, 49, 52
9, 28019, Note_on_c, 3, 49, 0
9, 28080, Note_on_c, 3, 54, 52
9, 28259, Note_on_c, 3, 54, 0
9, 28320, Note_on_c, 3, 50, 52
9, 28499, Note_on_c, 3, 50, 0
9, 28560, Note_on_c, 3, 45, 52
9, 28739, Note_on_c, 3, 45, 0
9, 28800, Note_on_c, 3, 45, 52
9, 28979, Note_on_c, 3, 45, 0
9, 29040, Note_on_c, 3, 48, 52
9, 29219, Note_on_c, 3, 48, 0
9, 29280, Note_on_c, 3, 54, 52
9, 29459, Note_on_c, 3, 54, 0
9, 29520, Note_on_c, 3, 47, 52
9, 29699, Note_on_c, 3, 47, 0
9, 29760, Note_on_c, 3, 50, 52
9, 29939, Note_on_c, 3, 50, 0
9, 30000, Note_on_c, 3, 55, 52
9, 30179, Note_on_c, 3, 55, 0
9, 30240, Note_on_c, 3, 48, 52
9, 30464, Note_on_c, 3, 48, 0
9, 30480, Note_on_c, 3, 60, 52
9, 30704, Note_on_c, 3, 60, 0
9, 30720, Note_on_c, 3, 60, 52
9, 30944, Note_on_c, 3, 60, 0
9, 30960, Note_on_c, 3, 59, 52
9, 31199, Note_on_c, 3, 59, 0
9, 32160, Note_on_c, 3, 55, 48
9, 32249, Note_on_c, 3, 55, 0
9, 32280, Note_on_c, 3, 55, 48
9, 32519, Note_on_c, 3, 55, 0
9, 32520, Note_on_c, 3, 57, 48
9, 32639, Note_on_c, 3, 57, 0
9, 32640, Note_on_c, 3, 59, 48
9, 32759, Note_on_c, 3, 59, 0
9, 32760, Note_on_c, 3, 60, 48
9, 32864, Note_on_c, 3, 60, 0
9, 32880, Note_on_c, 3, 55, 48
9, 32969, Note_on_c, 3, 55, 0
9, 33000, Note_on_c, 3, 55, 48
9, 33239, Note_on_c, 3, 55, 0
9, 33240, Note_on_c, 3, 59, 48
9, 33359, Note_on_c, 3, 59, 0
9, 33360, Note_on_c, 3, 60, 48
9, 33479, Note_on_c, 3, 60, 0
9, 33480, Note_on_c, 3, 62, 48
9, 33584, Note_on_c, 3, 62, 0
9, 33600, Note_on_c, 3, 55, 48
9, 33689, Note_on_c, 3, 55, 0
9, 33720, Note_on_c, 3, 55, 48
9, 33959, Note_on_c, 3, 55, 0
9, 33960, Note_on_c, 3, 60, 48
9, 34079, Note_on_c, 3, 60, 0
9, 34080, Note_on_c, 3, 62, 48
9, 34199, Note_on_c, 3, 62, 0
9, 34200, Note_on_c, 3, 64, 48
9, 34319, Note_on_c, 3, 64, 0
9, 34320, Note_on_c, 3, 65, 48
9, 34439, Note_on_c, 3, 65, 0
9, 34440, Note_on_c, 3, 64, 48
9, 34544, Note_on_c, 3, 64, 0
9, 34560, Note_on_c, 3, 62, 48
9, 34784, Note_on_c, 3, 62, 0
9, 34800, Note_on_c, 3, 67, 48
9, 35399, Note_on_c, 3, 67, 0
9, 35400, Note_on_c, 3, 66, 48
9, 35519, Note_on_c, 3, 66, 0
9, 35520, Note_on_c, 3, 62, 48
9, 35639, Note_on_c, 3, 62, 0
9, 35640, Note_on_c, 3, 64, 48
9, 35744, Note_on_c, 3, 64, 0
9, 35760, Note_on_c, 3, 65, 48
9, 36119, Note_on_c, 3, 65, 0
9, 36120, Note_on_c, 3, 64, 48
9, 36239, Note_on_c, 3, 64, 0
9, 36240, Note_on_c, 3, 60, 48
9, 36359, Note_on_c, 3, 60, 0
9, 36360, Note_on_c, 3, 62, 48
9, 36464, Note_on_c, 3, 62, 0
9, 36480, Note_on_c, 3, 63, 52
9, 36480, Note_on_c, 3, 60, 52
9, 36720, Control_c, 3, 11, 112
9, 38864, Note_on_c, 3, 63, 0
9, 38864, Note_on_c, 3, 60, 0
9, 38880, Note_on_c, 3, 63, 52
9, 38880, Note_on_c, 3, 60, 52
9, 39059, Note_on_c, 3, 63, 0
9, 39059, Note_on_c, 3, 60, 0
9, 39120, Control_c, 3, 11, 64
9, 39360, Note_on_c, 3, 60, 76
9, 39360, Note_on_c, 3, 57, 76
9, 39539, Note_on_c, 3, 60, 0
9, 39539, Note_on_c, 3, 57, 0
9, 39600, Note_on_c, 3, 60, 76
9, 39600, Note_on_c, 3, 63, 76
9, 41744, Note_on_c, 3, 60, 0
9, 41744, Note_on_c, 3, 63, 0
9, 41760, Note_on_c, 3, 63, 76
9, 41760, Control_c, 3, 11, 64
9, 41760, Note_on_c, 3, 60, 76
9, 41939, Note_on_c, 3, 63, 0
9, 41939, Note_on_c, 3, 60, 0
9, 41940, Control_c, 3, 11, 69
9, 42120, Control_c, 3, 11, 75
9, 42240, Note_on_c, 3, 60, 76
9, 42240, Note_on_c, 3, 57, 76
9, 42300, Control_c, 3, 11, 80
9, 42419, Note_on_c, 3, 60, 0
9, 42419, Note_on_c, 3, 57, 0
9, 42480, Control_c, 3, 11, 85
9, 42480, Note_on_c, 3, 65, 76
9, 42480, Note_on_c, 3, 62, 76
9, 42660, Control_c, 3, 11, 90
9, 42840, Control_c, 3, 11, 96
9, 43020, Control_c, 3, 11, 101
9, 43184, Note_on_c, 3, 65, 0
9, 43184, Note_on_c, 3, 62, 0
9, 43200, Note_on_c, 3, 65, 76
9, 43200, Note_on_c, 3, 62, 76
9, 43200, Control_c, 3, 11, 106
9, 43379, Note_on_c, 3, 65, 0
9, 43379, Note_on_c, 3, 62, 0
9, 43380, Control_c, 3, 11, 111
9, 43560, Control_c, 3, 11, 117
9, 43680, Note_on_c, 3, 62, 76
9, 43680, Note_on_c, 3, 59, 76
9, 43740, Control_c, 3, 11, 127
9, 43859, Note_on_c, 3, 62, 0
9, 43859, Note_on_c, 3, 59, 0
9, 43920, Note_on_c, 3, 58, 84
9, 43920, Note_on_c, 3, 61, 84
9, 44099, Note_on_c, 3, 58, 0
9, 44099, Note_on_c, 3, 61, 0
9, 44640, Note_on_c, 3, 56, 84
9, 44640, Note_on_c, 3, 53, 84
9, 44819, Note_on_c, 3, 56, 0
9, 44819, Note_on_c, 3, 53, 0
9, 45360, Note_on_c, 3, 60, 84
9, 45360, Note_on_c, 3, 63, 84
9, 45539, Note_on_c, 3, 60, 0
9, 45539, Note_on_c, 3, 63, 0
9, 46080, Note_on_c, 3, 59, 84
9, 46080, Note_on_c, 3, 62, 84
9, 46259, Note_on_c, 3, 59, 0
9, 46259, Note_on_c, 3, 62, 0
9, 46560, Note_on_c, 3, 62, 76
9, 46560, Note_on_c, 3, 59, 76
9, 46739, Note_on_c, 3, 62, 0
9, 46739, Note_on_c, 3, 59, 0
9, 46800, Note_on_c, 3, 62, 84
9, 46800, Note_on_c, 3, 59, 84
9, 46979, Note_on_c, 3, 62, 0
9, 46979, Note_on_c, 3, 59, 0
9, 47280, Note_on_c, 3, 59, 84
9, 47280, Note_on_c, 3, 62, 84
9, 47459, Note_on_c, 3, 59, 0
9, 47459, Note_on_c, 3, 62, 0
9, 47520, Note_on_c, 3, 60, 84
9, 47520, Note_on_c, 3, 64, 84
9, 47699, Note_on_c, 3, 60, 0
9, 47699, Note_on_c, 3, 64, 0
9, 48000, Note_on_c, 3, 57, 84
9, 48179, Note_on_c, 3, 57, 0
9, 48240, Note_on_c, 3, 65, 84
9, 48240, Note_on_c, 3, 53, 84
9, 48419, Note_on_c, 3, 65, 0
9, 48419, Note_on_c, 3, 53, 0
9, 48720, Note_on_c, 3, 62, 84
9, 48720, Note_on_c, 3, 50, 84
9, 48899, Note_on_c, 3, 62, 0
9, 48899, Note_on_c, 3, 50, 0
9, 48960, Note_on_c, 3, 55, 84
9, 48960, Note_on_c, 3, 67, 84
9, 49139, Note_on_c, 3, 55, 0
9, 49139, Note_on_c, 3, 67, 0
9, 49440, Note_on_c, 3, 43, 84
9, 49440, Note_on_c, 3, 55, 84
9, 49619, Note_on_c, 3, 43, 0
9, 49619, Note_on_c, 3, 55, 0
9, 49680, Note_on_c, 3, 64, 84
9, 49680, Note_on_c, 3, 60, 84
9, 49851, Note_on_c, 3, 64, 0
9, 49851, Note_on_c, 3, 60, 0
9, 49860, Note_on_c, 3, 64, 84
9, 49860, Note_on_c, 3, 60, 84
9, 49911, Note_on_c, 3, 64, 0
9, 49911, Note_on_c, 3, 60, 0
9, 49920, Note_on_c, 3, 62, 84
9, 49920, Note_on_c, 3, 59, 84
9, 50099, Note_on_c, 3, 62, 0
9, 50099, Note_on_c, 3, 59, 0
9, 50160, Note_on_c, 3, 62, 84
9, 50160, Note_on_c, 3, 59, 84
9, 50331, Note_on_c, 3, 62, 0
9, 50331, Note_on_c, 3, 59, 0
9, 50340, Note_on_c, 3, 59, 84
9, 50340, Note_on_c, 3, 62, 84
9, 50391, Note_on_c, 3, 59, 0
9, 50391, Note_on_c, 3, 62, 0
9, 50400, Note_on_c, 3, 60, 84
9, 50400, Note_on_c, 3, 64, 84
9, 50579, Note_on_c, 3, 60, 0
9, 50579, Note_on_c, 3, 64, 0
9, 50640, Note_on_c, 3, 53, 84
9, 50640, Note_on_c, 3, 57, 84
9, 50811, Note_on_c, 3, 53, 0
9, 50811, Note_on_c, 3, 57, 0
9, 50820, Note_on_c, 3, 57, 84
9, 50820, Note_on_c, 3, 53, 84
9, 50871, Note_on_c, 3, 57, 0
9, 50871, Note_on_c, 3, 53, 0
9, 50880, Note_on_c, 3, 52, 84
9, 50880, Note_on_c, 3, 55, 84
9, 51059, Note_on_c, 3, 52, 0
9, 51059, Note_on_c, 3, 55, 0
9, 51120, Note_on_c, 3, 57, 84
9, 51120, Note_on_c, 3, 53, 84
9, 51291, Note_on_c, 3, 57, 0
9, 51291, Note_on_c, 3, 53, 0
9, 51300, Note_on_c, 3, 53, 84
9, 51300, Note_on_c, 3, 57, 84
9, 51351, Note_on_c, 3, 53, 0
9, 51351, Note_on_c, 3, 57, 0
9, 51360, Note_on_c, 3, 52, 84
9, 51360, Note_on_c, 3, 55, 84
9, 51539, Note_on_c, 3, 52, 0
9, 51539, Note_on_c, 3, 55, 0
9, 52320, Note_on_c, 3, 55, 52
9, 53040, Note_on_c, 3, 67, 48
9, 53279, Note_on_c, 3, 67, 0
9, 53280, Note_on_c, 3, 65, 48
9, 53759, Note_on_c, 3, 65, 0
9, 53760, Note_on_c, 3, 64, 48
9, 53999, Note_on_c, 3, 64, 0
9, 54000, Note_on_c, 3, 62, 48
9, 54479, Note_on_c, 3, 62, 0
9, 54480, Note_on_c, 3, 60, 48
9, 54719, Note_on_c, 3, 60, 0
9, 54720, Note_on_c, 3, 59, 48
9, 55184, Note_on_c, 3, 55, 0
9, 55199, Note_on_c, 3, 59, 0
9, 55200, Note_on_c, 3, 55, 52
9, 55200, Note_on_c, 3, 58, 48
9, 55439, Note_on_c, 3, 55, 0
9, 55439, Note_on_c, 3, 58, 0
9, 55440, Note_on_c, 3, 53, 52
9, 55440, Note_on_c, 3, 57, 48
9, 55919, Note_on_c, 3, 53, 0
9, 55919, Note_on_c, 3, 57, 0
9, 55920, Note_on_c, 3, 65, 48
9, 55920, Note_on_c, 3, 50, 52
9, 56039, Note_on_c, 3, 65, 0
9, 56040, Note_on_c, 3, 62, 48
9, 56159, Note_on_c, 3, 50, 0
9, 56159, Note_on_c, 3, 62, 0
9, 56160, Note_on_c, 3, 55, 52
9, 56160, Note_on_c, 3, 67, 48
9, 56639, Note_on_c, 3, 55, 0
9, 56639, Note_on_c, 3, 67, 0
9, 56640, Note_on_c, 3, 43, 52
9, 56640, Note_on_c, 3, 55, 48
9, 56864, Note_on_c, 3, 43, 0
9, 56864, Note_on_c, 3, 55, 0
9, 56880, Note_on_c, 3, 60, 84
9, 56880, Note_on_c, 3, 64, 84
9, 57051, Note_on_c, 3, 60, 0
9, 57051, Note_on_c, 3, 64, 0
9, 57060, Note_on_c, 3, 64, 84
9, 57060, Note_on_c, 3, 60, 84
9, 57111, Note_on_c, 3, 64, 0
9, 57111, Note_on_c, 3, 60, 0
9, 57120, Note_on_c, 3, 62, 84
9, 57120, Note_on_c, 3, 59, 84
9, 57299, Note_on_c, 3, 62, 0
9, 57299, Note_on_c, 3, 59, 0
9, 57360, Note_on_c, 3, 59, 84
9, 57360, Note_on_c, 3, 62, 84
9, 57531, Note_on_c, 3, 59, 0
9, 57531, Note_on_c, 3, 62, 0
9, 57540, Note_on_c, 3, 62, 84
9, 57540, Note_on_c, 3, 59, 84
9, 57591, Note_on_c, 3, 62, 0
9, 57591, Note_on_c, 3, 59, 0
9, 57600, Note_on_c, 3, 64, 84
9, 57600, Note_on_c, 3, 60, 84
9, 57779, Note_on_c, 3, 64, 0
9, 57779, Note_on_c, 3, 60, 0
9, 57840, Note_on_c, 3, 57, 84
9, 57840, Note_on_c, 3, 53, 84
9, 58011, Note_on_c, 3, 57, 0
9, 58011, Note_on_c, 3, 53, 0
9, 58020, Note_on_c, 3, 57, 84
9, 58020, Note_on_c, 3, 53, 84
9, 58071, Note_on_c, 3, 57, 0
9, 58071, Note_on_c, 3, 53, 0
9, 58080, Note_on_c, 3, 55, 84
9, 58080, Note_on_c, 3, 52, 84
9, 58259, Note_on_c, 3, 55, 0
9, 58259, Note_on_c, 3, 52, 0
9, 58320, Note_on_c, 3, 53, 84
9, 58320, Note_on_c, 3, 57, 84
9, 58491, Note_on_c, 3, 53, 0
9, 58491, Note_on_c, 3, 57, 0
9, 58500, Note_on_c, 3, 53, 84
9, 58500, Note_on_c, 3, 57, 84
9, 58551, Note_on_c, 3, 53, 0
9, 58551, Note_on_c, 3, 57, 0
9, 58560, Note_on_c, 3, 52, 84
9, 58560, Note_on_c, 3, 55, 84
9, 58739, Note_on_c, 3, 52, 0
9, 58739, Note_on_c, 3, 55, 0
9, 58800, Note_on_c, 3, 67, 48
9, 59039, Note_on_c, 3, 67, 0
9, 59040, Note_on_c, 3, 66, 48
9, 59519, Note_on_c, 3, 66, 0
9, 59520, Note_on_c, 3, 67, 48
9, 59520, Note_on_c, 3, 55, 52
9, 59759, Note_on_c, 3, 67, 0
9, 59760, Note_on_c, 3, 65, 48
9, 60239, Note_on_c, 3, 65, 0
9, 60240, Note_on_c, 3, 64, 48
9, 60479, Note_on_c, 3, 64, 0
9, 60480, Note_on_c, 3, 62, 48
9, 60959, Note_on_c, 3, 62, 0
9, 60960, Note_on_c, 3, 60, 48
9, 61199, Note_on_c, 3, 60, 0
9, 61200, Note_on_c, 3, 59, 48
9, 61679, Note_on_c, 3, 59, 0
9, 61680, Note_on_c, 3, 60, 48
9, 61919, Note_on_c, 3, 60, 0
9, 61920, Note_on_c, 3, 62, 48
9, 62399, Note_on_c, 3, 62, 0
9, 62400, Note_on_c, 3, 64, 48
9, 62624, Note_on_c, 3, 55, 0
9, 62639, Note_on_c, 3, 64, 0
9, 62640, Note_on_c, 3, 53, 52
9, 62640, Note_on_c, 3, 65, 52
9, 63119, Note_on_c, 3, 53, 0
9, 63119, Note_on_c, 3, 65, 0
9, 63120, Note_on_c, 3, 50, 52
9, 63120, Note_on_c, 3, 62, 52
9, 63359, Note_on_c, 3, 50, 0
9, 63359, Note_on_c, 3, 62, 0
9, 63360, Note_on_c, 3, 67, 52
9, 63360, Note_on_c, 3, 55, 52
9, 63839, Note_on_c, 3, 67, 0
9, 63839, Note_on_c, 3, 55, 0
9, 63840, Note_on_c, 3, 55, 52
9, 63840, Note_on_c, 3, 43, 52
9, 64064, Note_on_c, 3, 55, 0
9, 64064, Note_on_c, 3, 43, 0
9, 64080, Note_on_c, 3, 48, 52
9, 64080, Note_on_c, 3, 60, 52
9, 64319, Note_on_c, 3, 48, 0
9, 64319, Note_on_c, 3, 60, 0
9, 64800, Note_on_c, 3, 65, 52
9, 64919, Note_on_c, 3, 65, 0
9, 64920, Note_on_c, 3, 64, 56
9, 65039, Note_on_c, 3, 64, 0
9, 65040, Note_on_c, 3, 65, 60
9, 65159, Note_on_c, 3, 65, 0
9, 65160, Note_on_c, 3, 64, 64
9, 65279, Note_on_c, 3, 64, 0
9, 65280, Note_on_c, 3, 62, 68
9, 65399, Note_on_c, 3, 62, 0
9, 65400, Note_on_c, 3, 60, 72
9, 65504, Note_on_c, 3, 60, 0
9, 65520, Note_on_c, 3, 60, 76
9, 65699, Note_on_c, 3, 60, 0
9, 65760, Note_on_c, 3, 64, 84
9, 66119, Note_on_c, 3, 64, 0
9, 66120, Note_on_c, 3, 60, 76
9, 66224, Note_on_c, 3, 60, 0
9, 66240, Note_on_c, 3, 59, 84
9, 66240, Note_on_c, 3, 55, 84
9, 66479, Note_on_c, 3, 59, 0
9, 66479, Note_on_c, 3, 55, 0
9, 66600, Note_on_c, 3, 55, 76
9, 66600, Note_on_c, 3, 59, 76
9, 66689, Note_on_c, 3, 55, 0
9, 66689, Note_on_c, 3, 59, 0
9, 66720, Note_on_c, 3, 57, 76
9, 66720, Note_on_c, 3, 60, 76
9, 66809, Note_on_c, 3, 57, 0
9, 66809, Note_on_c, 3, 60, 0
9, 66840, Note_on_c, 3, 62, 76
9, 66840, Note_on_c, 3, 59, 76
9, 66929, Note_on_c, 3, 62, 0
9, 66929, Note_on_c, 3, 59, 0
9, 66960, Note_on_c, 3, 64, 84
9, 66960, Note_on_c, 3, 60, 84
9, 67139, Note_on_c, 3, 64, 0
9, 67139, Note_on_c, 3, 60, 0
9, 67320, Note_on_c, 3, 64, 76
9, 67320, Note_on_c, 3, 60, 76
9, 67409, Note_on_c, 3, 64, 0
9, 67409, Note_on_c, 3, 60, 0
9, 67440, Note_on_c, 3, 60, 76
9, 67440, Note_on_c, 3, 64, 76
9, 67529, Note_on_c, 3, 60, 0
9, 67529, Note_on_c, 3, 64, 0
9, 67560, Note_on_c, 3, 48, 76
9, 67560, Note_on_c, 3, 60, 76
9, 67649, Note_on_c, 3, 48, 0
9, 67649, Note_on_c, 3, 60, 0
9, 67680, Note_on_c, 3, 55, 84
9, 67680, Note_on_c, 3, 59, 84
9, 67859, Note_on_c, 3, 55, 0
9, 67859, Note_on_c, 3, 59, 0
9, 68040, Note_on_c, 3, 59, 76
9, 68040, Note_on_c, 3, 55, 76
9, 68129, Note_on_c, 3, 59, 0
9, 68129, Note_on_c, 3, 55, 0
9, 68160, Note_on_c, 3, 57, 76
9, 68160, Note_on_c, 3, 60, 76
9, 68249, Note_on_c, 3, 57, 0
9, 68249, Note_on_c, 3, 60, 0
9, 68280, Note_on_c, 3, 59, 76
9, 68280, Note_on_c, 3, 62, 76
9, 68369, Note_on_c, 3, 59, 0
9, 68369, Note_on_c, 3, 62, 0
9, 68400, Note_on_c, 3, 64, 84
9, 68400, Note_on_c, 3, 60, 84
9, 71264, Note_on_c, 3, 64, 0
9, 71264, Note_on_c, 3, 60, 0
9, 71280, Note_on_c, 3, 60, 92
9, 71280, Note_on_c, 3, 48, 92
9, 71519, Note_on_c, 3, 60, 0
9, 71519, Note_on_c, 3, 48, 0
9, 72000, Note_on_c, 3, 48, 92
9, 72000, Note_on_c, 3, 60, 92
9, 72239, Note_on_c, 3, 48, 0
9, 72239, Note_on_c, 3, 60, 0
9, 72720, Note_on_c, 3, 48, 92
9, 72720, Note_on_c, 3, 60, 92
9, 72959, Note_on_c, 3, 48, 0
9, 72959, Note_on_c, 3, 60, 0
9, 73440, Note_on_c, 3, 48, 92
9, 73440, Note_on_c, 3, 60, 92
9, 73679, Note_on_c, 3, 48, 0
9, 73679, Note_on_c, 3, 60, 0
9, 73800, Note_on_c, 3, 58, 84
9, 73800, Note_on_c, 3, 55, 84
9, 73904, Note_on_c, 3, 58, 0
9, 73904, Note_on_c, 3, 55, 0
9, 73920, Note_on_c, 3, 58, 84
9, 73920, Note_on_c, 3, 55, 84
9, 74024, Note_on_c, 3, 58, 0
9, 74024, Note_on_c, 3, 55, 0
9, 74040, Note_on_c, 3, 55, 84
9, 74040, Note_on_c, 3, 58, 84
9, 74144, Note_on_c, 3, 55, 0
9, 74144, Note_on_c, 3, 58, 0
9, 74160, Note_on_c, 3, 57, 76
9, 74160, Note_on_c, 3, 60, 76
9, 75344, Note_on_c, 3, 57, 0
9, 75344, Note_on_c, 3, 60, 0
9, 75360, Note_on_c, 3, 57, 76
9, 75360, Note_on_c, 3, 53, 76
9, 75449, Note_on_c, 3, 57, 0
9, 75449, Note_on_c, 3, 53, 0
9, 75480, Note_on_c, 3, 57, 76
9, 75480, Note_on_c, 3, 53, 76
9, 75569, Note_on_c, 3, 57, 0
9, 75569, Note_on_c, 3, 53, 0
9, 75600, Note_on_c, 3, 55, 76
9, 75600, Note_on_c, 3, 58, 76
9, 75824, Note_on_c, 3, 55, 0
9, 75824, Note_on_c, 3, 58, 0
9, 75840, Note_on_c, 3, 55, 76
9, 75840, Note_on_c, 3, 58, 76
9, 75929, Note_on_c, 3, 55, 0
9, 75929, Note_on_c, 3, 58, 0
9, 75960, Note_on_c, 3, 57, 76
9, 75960, Note_on_c, 3, 53, 76
9, 76049, Note_on_c, 3, 57, 0
9, 76049, Note_on_c, 3, 53, 0
9, 76080, Note_on_c, 3, 52, 76
9, 76080, Note_on_c, 3, 55, 76
9, 76169, Note_on_c, 3, 52, 0
9, 76169, Note_on_c, 3, 55, 0
9, 76200, Note_on_c, 3, 50, 76
9, 76200, Note_on_c, 3, 53, 76
9, 76289, Note_on_c, 3, 50, 0
9, 76289, Note_on_c, 3, 53, 0
9, 76320, Note_on_c, 3, 52, 76
9, 76320, Note_on_c, 3, 48, 76
9, 76559, Note_on_c, 3, 52, 0
9, 76559, Note_on_c, 3, 48, 0
9, 77040, Note_on_c, 3, 55, 48
9, 77040, Note_on_c, 3, 48, 48
9, 78224, Note_on_c, 3, 55, 0
9, 78224, Note_on_c, 3, 48, 0
9, 78240, Note_on_c, 3, 48, 48
9, 78240, Note_on_c, 3, 55, 48
9, 78464, Note_on_c, 3, 48, 0
9, 78464, Note_on_c, 3, 55, 0
9, 78480, Note_on_c, 3, 53, 48
9, 78480, Note_on_c, 3, 57, 48
9, 78719, Note_on_c, 3, 53, 0
9, 78719, Note_on_c, 3, 57, 0
9, 78720, Note_on_c, 3, 45, 48
9, 78720, Note_on_c, 3, 53, 48
9, 78959, Note_on_c, 3, 45, 0
9, 78959, Note_on_c, 3, 53, 0
9, 78960, Note_on_c, 3, 55, 48
9, 78960, Note_on_c, 3, 48, 48
9, 79184, Note_on_c, 3, 55, 0
9, 79184, Note_on_c, 3, 48, 0
9, 79200, Note_on_c, 3, 48, 48
9, 79200, Note_on_c, 3, 55, 48
9, 79679, Note_on_c, 3, 48, 0
9, 79679, Note_on_c, 3, 55, 0
9, 79680, Note_on_c, 3, 57, 48
9, 79680, Note_on_c, 3, 53, 48
9, 79919, Note_on_c, 3, 57, 0
9, 79919, Note_on_c, 3, 53, 0
9, 80640, Note_on_c, 3, 55, 76
9, 80729, Note_on_c, 3, 55, 0
9, 80760, Note_on_c, 3, 55, 76
9, 80849, Note_on_c, 3, 55, 0
9, 80880, Note_on_c, 3, 57, 76
9, 80969, Note_on_c, 3, 57, 0
9, 81000, Note_on_c, 3, 58, 76
9, 81089, Note_on_c, 3, 58, 0
9, 81120, Note_on_c, 3, 60, 76
9, 81209, Note_on_c, 3, 60, 0
9, 81240, Note_on_c, 3, 62, 76
9, 81329, Note_on_c, 3, 62, 0
9, 81360, Note_on_c, 3, 57, 76
9, 81360, Note_on_c, 3, 53, 76
9, 81479, Note_on_c, 3, 57, 0
9, 81479, Note_on_c, 3, 53, 0
9, 81600, Note_on_c, 3, 57, 76
9, 81600, Note_on_c, 3, 53, 76
9, 81719, Note_on_c, 3, 57, 0
9, 81719, Note_on_c, 3, 53, 0
9, 81840, Note_on_c, 3, 58, 76
9, 81840, Note_on_c, 3, 55, 76
9, 81959, Note_on_c, 3, 58, 0
9, 81959, Note_on_c, 3, 55, 0
9, 82080, Note_on_c, 3, 53, 76
9, 82080, Note_on_c, 3, 57, 76
9, 82319, Note_on_c, 3, 53, 0
9, 82319, Note_on_c, 3, 57, 0
9, 83460, Note_on_c, 3, 57, 76
9, 83460, Note_on_c, 3, 53, 76
9, 83511, Note_on_c, 3, 57, 0
9, 83511, Note_on_c, 3, 53, 0
9, 83520, Note_on_c, 3, 62, 76
9, 83520, Note_on_c, 3, 50, 76
9, 83759, Note_on_c, 3, 62, 0
9, 83759, Note_on_c, 3, 50, 0
9, 84900, Note_on_c, 3, 62, 76
9, 84900, Note_on_c, 3, 50, 76
9, 84951, Note_on_c, 3, 62, 0
9, 84951, Note_on_c, 3, 50, 0
9, 84960, Note_on_c, 3, 58, 76
9, 84960, Note_on_c, 3, 46, 76
9, 85199, Note_on_c, 3, 58, 0
9, 85199, Note_on_c, 3, 46, 0
9, 86340, Note_on_c, 3, 58, 76
9, 86340, Note_on_c, 3, 46, 76
9, 86391, Note_on_c, 3, 58, 0
9, 86391, Note_on_c, 3, 46, 0
9, 86400, Note_on_c, 3, 55, 76
9, 86400, Note_on_c, 3, 58, 76
9, 86864, Note_on_c, 3, 55, 0
9, 86864, Note_on_c, 3, 58, 0
9, 86880, Note_on_c, 3, 55, 76
9, 86880, Note_on_c, 3, 58, 76
9, 86999, Note_on_c, 3, 55, 0
9, 86999, Note_on_c, 3, 58, 0
9, 87120, Note_on_c, 3, 58, 76
9, 87120, Note_on_c, 3, 55, 76
9, 87239, Note_on_c, 3, 58, 0
9, 87239, Note_on_c, 3, 55, 0
9, 87360, Note_on_c, 3, 55, 76
9, 87360, Note_on_c, 3, 58, 76
9, 87479, Note_on_c, 3, 55, 0
9, 87479, Note_on_c, 3, 58, 0
9, 87600, Note_on_c, 3, 52, 76
9, 87600, Note_on_c, 3, 55, 76
9, 87719, Note_on_c, 3, 52, 0
9, 87719, Note_on_c, 3, 55, 0
9, 87840, Note_on_c, 3, 53, 76
9, 87840, Note_on_c, 3, 57, 76
9, 89211, Note_on_c, 3, 53, 0
9, 89211, Note_on_c, 3, 57, 0
9, 89220, Note_on_c, 3, 57, 76
9, 89220, Note_on_c, 3, 53, 76
9, 89271, Note_on_c, 3, 57, 0
9, 89271, Note_on_c, 3, 53, 0
9, 89280, Note_on_c, 3, 50, 76
9, 89280, Note_on_c, 3, 58, 76
9, 90651, Note_on_c, 3, 50, 0
9, 90651, Note_on_c, 3, 58, 0
9, 90660, Note_on_c, 3, 50, 76
9, 90660, Note_on_c, 3, 58, 76
9, 90711, Note_on_c, 3, 50, 0
9, 90711, Note_on_c, 3, 58, 0
9, 90720, Note_on_c, 3, 56, 76
9, 90720, Note_on_c, 3, 53, 76
9, 92091, Note_on_c, 3, 56, 0
9, 92091, Note_on_c, 3, 53, 0
9, 92100, Note_on_c, 3, 53, 76
9, 92100, Note_on_c, 3, 56, 76
9, 92151, Note_on_c, 3, 53, 0
9, 92151, Note_on_c, 3, 56, 0
9, 92160, Note_on_c, 3, 56, 76
9, 92160, Note_on_c, 3, 53, 76
9, 93531, Note_on_c, 3, 56, 0
9, 93531, Note_on_c, 3, 53, 0
9, 93540, Note_on_c, 3, 56, 76
9, 93540, Note_on_c, 3, 53, 76
9, 93591, Note_on_c, 3, 56, 0
9, 93591, Note_on_c, 3, 53, 0
9, 93600, Note_on_c, 3, 56, 76
9, 93600, Note_on_c, 3, 53, 76
9, 94064, Note_on_c, 3, 56, 0
9, 94064, Note_on_c, 3, 53, 0
9, 94080, Note_on_c, 3, 56, 84
9, 94080, Note_on_c, 3, 53, 84
9, 94251, Note_on_c, 3, 56, 0
9, 94251, Note_on_c, 3, 53, 0
9, 94260, Note_on_c, 3, 56, 76
9, 94260, Note_on_c, 3, 53, 76
9, 94311, Note_on_c, 3, 56, 0
9, 94311, Note_on_c, 3, 53, 0
9, 94320, Note_on_c, 3, 56, 76
9, 94320, Note_on_c, 3, 53, 76
9, 94784, Note_on_c, 3, 56, 0
9, 94784, Note_on_c, 3, 53, 0
9, 94800, Note_on_c, 3, 56, 84
9, 94800, Note_on_c, 3, 53, 84
9, 94971, Note_on_c, 3, 56, 0
9, 94971, Note_on_c, 3, 53, 0
9, 94980, Note_on_c, 3, 56, 76
9, 94980, Note_on_c, 3, 53, 76
9, 95031, Note_on_c, 3, 56, 0
9, 95031, Note_on_c, 3, 53, 0
9, 95040, Note_on_c, 3, 53, 76
9, 95040, Note_on_c, 3, 56, 76
9, 95159, Note_on_c, 3, 53, 0
9, 95159, Note_on_c, 3, 56, 0
9, 95520, Note_on_c, 3, 53, 84
9, 95520, Note_on_c, 3, 56, 84
9, 95639, Note_on_c, 3, 53, 0
9, 95639, Note_on_c, 3, 56, 0
9, 95760, Note_on_c, 3, 56, 76
9, 95760, Note_on_c, 3, 53, 76
9, 95879, Note_on_c, 3, 56, 0
9, 95879, Note_on_c, 3, 53, 0
9, 96240, Note_on_c, 3, 53, 84
9, 96240, Note_on_c, 3, 56, 84
9, 96359, Note_on_c, 3, 53, 0
9, 96359, Note_on_c, 3, 56, 0
9, 96480, Note_on_c, 3, 56, 76
9, 96480, Note_on_c, 3, 53, 76
9, 96599, Note_on_c, 3, 56, 0
9, 96599, Note_on_c, 3, 53, 0
9, 99360, Note_on_c, 3, 57, 52
9, 99539, Note_on_c, 3, 57, 0
9, 99840, Note_on_c, 3, 67, 52
9, 100019, Note_on_c, 3, 67, 0
9, 100080, Note_on_c, 3, 57, 52
9, 100259, Note_on_c, 3, 57, 0
9, 100560, Note_on_c, 3, 67, 52
9, 100739, Note_on_c, 3, 67, 0
9, 100800, Note_on_c, 3, 66, 52
9, 100979, Note_on_c, 3, 66, 0
9, 101040, Note_on_c, 3, 62, 52
9, 101219, Note_on_c, 3, 62, 0
9, 101280, Note_on_c, 3, 57, 52
9, 101459, Note_on_c, 3, 57, 0
9, 101520, Note_on_c, 3, 55, 52
9, 101699, Note_on_c, 3, 55, 0
9, 101760, Note_on_c, 3, 52, 52
9, 101939, Note_on_c, 3, 52, 0
9, 102000, Note_on_c, 3, 49, 52
9, 102179, Note_on_c, 3, 49, 0
9, 102240, Note_on_c, 3, 54, 52
9, 102419, Note_on_c, 3, 54, 0
9, 102480, Note_on_c, 3, 50, 52
9, 102659, Note_on_c, 3, 50, 0
9, 102720, Note_on_c, 3, 45, 52
9, 102899, Note_on_c, 3, 45, 0
9, 102960, Note_on_c, 3, 45, 52
9, 103139, Note_on_c, 3, 45, 0
9, 103200, Note_on_c, 3, 48, 52
9, 103379, Note_on_c, 3, 48, 0
9, 103440, Note_on_c, 3, 54, 52
9, 103619, Note_on_c, 3, 54, 0
9, 103680, Note_on_c, 3, 47, 52
9, 103859, Note_on_c, 3, 47, 0
9, 103920, Note_on_c, 3, 50, 52
9, 104099, Note_on_c, 3, 50, 0
9, 104160, Note_on_c, 3, 55, 52
9, 104339, Note_on_c, 3, 55, 0
9, 104400, Note_on_c, 3, 48, 52
9, 104624, Note_on_c, 3, 48, 0
9, 104640, Note_on_c, 3, 60, 52
9, 104864, Note_on_c, 3, 60, 0
9, 104880, Note_on_c, 3, 60, 52
9, 105104, Note_on_c, 3, 60, 0
9, 105120, Note_on_c, 3, 59, 52
9, 105359, Note_on_c, 3, 59, 0
9, 106320, Note_on_c, 3, 55, 48
9, 106409, Note_on_c, 3, 55, 0
9, 106440, Note_on_c, 3, 55, 48
9, 106679, Note_on_c, 3, 55, 0
9, 106680, Note_on_c, 3, 57, 48
9, 106799, Note_on_c, 3, 57, 0
9, 106800, Note_on_c, 3, 59, 48
9, 106919, Note_on_c, 3, 59, 0
9, 106920, Note_on_c, 3, 60, 48
9, 107024, Note_on_c, 3, 60, 0
9, 107040, Note_on_c, 3, 55, 48
9, 107129, Note_on_c, 3, 55, 0
9, 107160, Note_on_c, 3, 55, 48
9, 107399, Note_on_c, 3, 55, 0
9, 107400, Note_on_c, 3, 59, 48
9, 107519, Note_on_c, 3, 59, 0
9, 107520, Note_on_c, 3, 60, 48
9, 107639, Note_on_c, 3, 60, 0
9, 107640, Note_on_c, 3, 62, 48
9, 107744, Note_on_c, 3, 62, 0
9, 107760, Note_on_c, 3, 55, 48
9, 107849, Note_on_c, 3, 55, 0
9, 107880, Note_on_c, 3, 55, 48
9, 108119, Note_on_c, 3, 55, 0
9, 108120, Note_on_c, 3, 60, 48
9, 108239, Note_on_c, 3, 60, 0
9, 108240, Note_on_c, 3, 62, 48
9, 108359, Note_on_c, 3, 62, 0
9, 108360, Note_on_c, 3, 64, 48
9, 108479, Note_on_c, 3, 64, 0
9, 108480, Note_on_c, 3, 65, 48
9, 108599, Note_on_c, 3, 65, 0
9, 108600, Note_on_c, 3, 64, 48
9, 108704, Note_on_c, 3, 64, 0
9, 108720, Note_on_c, 3, 62, 48
9, 108944, Note_on_c, 3, 62, 0
9, 108960, Note_on_c, 3, 67, 48
9, 109559, Note_on_c, 3, 67, 0
9, 109560, Note_on_c, 3, 66, 48
9, 109679, Note_on_c, 3, 66, 0
9, 109680, Note_on_c, 3, 62, 48
9, 109799, Note_on_c, 3, 62, 0
9, 109800, Note_on_c, 3, 64, 48
9, 109904, Note_on_c, 3, 64, 0
9, 109920, Note_on_c, 3, 65, 48
9, 110279, Note_on_c, 3, 65, 0
9, 110280, Note_on_c, 3, 64, 48
9, 110399, Note_on_c, 3, 64, 0
9, 110400, Note_on_c, 3, 60, 48
9, 110519, Note_on_c, 3, 60, 0
9, 110520, Note_on_c, 3, 62, 48
9, 110624, Note_on_c, 3, 62, 0
9, 110640, Note_on_c, 3, 63, 52
9, 110640, Note_on_c, 3, 60, 52
9, 110880, Control_c, 3, 11, 112
9, 113024, Note_on_c, 3, 63, 0
9, 113024, Note_on_c, 3, 60, 0
9, 113040, Note_on_c, 3, 63, 52
9, 113040, Note_on_c, 3, 60, 52
9, 113219, Note_on_c, 3, 63, 0
9, 113219, Note_on_c, 3, 60, 0
9, 113280, Control_c, 3, 11, 64
9, 113520, Note_on_c, 3, 57, 76
9, 113520, Note_on_c, 3, 60, 76
9, 113699, Note_on_c, 3, 57, 0
9, 113699, Note_on_c, 3, 60, 0
9, 113760, Note_on_c, 3, 63, 76
9, 113760, Note_on_c, 3, 60, 76
9, 115904, Note_on_c, 3, 63, 0
9, 115904, Note_on_c, 3, 60, 0
9, 115920, Control_c, 3, 11, 64
9, 115920, Note_on_c, 3, 60, 76
9, 115920, Note_on_c, 3, 63, 76
9, 116099, Note_on_c, 3, 60, 0
9, 116099, Note_on_c, 3, 63, 0
9, 116100, Control_c, 3, 11, 69
9, 116280, Control_c, 3, 11, 75
9, 116400, Note_on_c, 3, 57, 76
9, 116400, Note_on_c, 3, 60, 76
9, 116460, Control_c, 3, 11, 80
9, 116579, Note_on_c, 3, 57, 0
9, 116579, Note_on_c, 3, 60, 0
9, 116640, Note_on_c, 3, 65, 76
9, 116640, Note_on_c, 3, 62, 76
9, 116640, Control_c, 3, 11, 85
9, 116820, Control_c, 3, 11, 90
9, 117000, Control_c, 3, 11, 96
9, 117180, Control_c, 3, 11, 101
9, 117344, Note_on_c, 3, 65, 0
9, 117344, Note_on_c, 3, 62, 0
9, 117360, Control_c, 3, 11, 106
9, 117360, Note_on_c, 3, 62, 76
9, 117360, Note_on_c, 3, 65, 76
9, 117539, Note_on_c, 3, 62, 0
9, 117539, Note_on_c, 3, 65, 0
9, 117540, Control_c, 3, 11, 111
9, 117720, Control_c, 3, 11, 117
9, 117840, Note_on_c, 3, 62, 76
9, 117840, Note_on_c, 3, 59, 76
9, 117900, Control_c, 3, 11, 127
9, 118019, Note_on_c, 3, 62, 0
9, 118019, Note_on_c, 3, 59, 0
9, 118080, Note_on_c, 3, 61, 84
9, 118080, Note_on_c, 3, 58, 84
9, 118259, Note_on_c, 3, 61, 0
9, 118259, Note_on_c, 3, 58, 0
9, 118800, Note_on_c, 3, 53, 84
9, 118800, Note_on_c, 3, 56, 84
9, 118979, Note_on_c, 3, 53, 0
9, 118979, Note_on_c, 3, 56, 0
9, 119520, Note_on_c, 3, 60, 84
9, 119520, Note_on_c, 3, 63, 84
9, 119699, Note_on_c, 3, 60, 0
9, 119699, Note_on_c, 3, 63, 0
9, 120240, Note_on_c, 3, 62, 84
9, 120240, Note_on_c, 3, 59, 84
9, 120419, Note_on_c, 3, 62, 0
9, 120419, Note_on_c, 3, 59, 0
9, 120720, Note_on_c, 3, 59, 76
9, 120720, Note_on_c, 3, 62, 76
9, 120899, Note_on_c, 3, 59, 0
9, 120899, Note_on_c, 3, 62, 0
9, 120960, Note_on_c, 3, 62, 84
9, 120960, Note_on_c, 3, 59, 84
9, 121139, Note_on_c, 3, 62, 0
9, 121139, Note_on_c, 3, 59, 0
9, 121440, Note_on_c, 3, 59, 84
9, 121440, Note_on_c, 3, 62, 84
9, 121619, Note_on_c, 3, 59, 0
9, 121619, Note_on_c, 3, 62, 0
9, 121680, Note_on_c, 3, 60, 84
9, 121680, Note_on_c, 3, 64, 84
9, 121859, Note_on_c, 3, 60, 0
9, 121859, Note_on_c, 3, 64, 0
9, 122160, Note_on_c, 3, 57, 84
9, 122339, Note_on_c, 3, 57, 0
9, 122400, Note_on_c, 3, 53, 84
9, 122400, Note_on_c, 3, 65, 84
9, 122579, Note_on_c, 3, 53, 0
9, 122579, Note_on_c, 3, 65, 0
9, 122880, Note_on_c, 3, 50, 84
9, 122880, Note_on_c, 3, 62, 84
9, 123059, Note_on_c, 3, 50, 0
9, 123059, Note_on_c, 3, 62, 0
9, 123120, Note_on_c, 3, 67, 84
9, 123120, Note_on_c, 3, 55, 84
9, 123299, Note_on_c, 3, 67, 0
9, 123299, Note_on_c, 3, 55, 0
9, 123600, Note_on_c, 3, 43, 84
9, 123600, Note_on_c, 3, 55, 84
9, 123779, Note_on_c, 3, 43, 0
9, 123779, Note_on_c, 3, 55, 0
9, 123840, Note_on_c, 3, 64, 84
9, 123840, Note_on_c, 3, 60, 84
9, 124011, Note_on_c, 3, 64, 0
9, 124011, Note_on_c, 3, 60, 0
9, 124020, Note_on_c, 3, 60, 84
9, 124020, Note_on_c, 3, 64, 84
9, 124071, Note_on_c, 3, 60, 0
9, 124071, Note_on_c, 3, 64, 0
9, 124080, Note_on_c, 3, 62, 84
9, 124080, Note_on_c, 3, 59, 84
9, 124259, Note_on_c, 3, 62, 0
9, 124259, Note_on_c, 3, 59, 0
9, 124320, Note_on_c, 3, 62, 84
9, 124320, Note_on_c, 3, 59, 84
9, 124491, Note_on_c, 3, 62, 0
9, 124491, Note_on_c, 3, 59, 0
9, 124500, Note_on_c, 3, 59, 84
9, 124500, Note_on_c, 3, 62, 84
9, 124551, Note_on_c, 3, 59, 0
9, 124551, Note_on_c, 3, 62, 0
9, 124560, Note_on_c, 3, 60, 84
9, 124560, Note_on_c, 3, 64, 84
9, 124739, Note_on_c, 3, 60, 0
9, 124739, Note_on_c, 3, 64, 0
9, 124800, Note_on_c, 3, 53, 84
9, 124800, Note_on_c, 3, 57, 84
9, 124971, Note_on_c, 3, 53, 0
9, 124971, Note_on_c, 3, 57, 0
9, 124980, Note_on_c, 3, 53, 84
9, 124980, Note_on_c, 3, 57, 84
9, 125031, Note_on_c, 3, 53, 0
9, 125031, Note_on_c, 3, 57, 0
9, 125040, Note_on_c, 3, 52, 84
9, 125040, Note_on_c, 3, 55, 84
9, 125219, Note_on_c, 3, 52, 0
9, 125219, Note_on_c, 3, 55, 0
9, 125280, Note_on_c, 3, 53, 84
9, 125280, Note_on_c, 3, 57, 84
9, 125451, Note_on_c, 3, 53, 0
9, 125451, Note_on_c, 3, 57, 0
9, 125460, Note_on_c, 3, 53, 84
9, 125460, Note_on_c, 3, 57, 84
9, 125511, Note_on_c, 3, 53, 0
9, 125511, Note_on_c, 3, 57, 0
9, 125520, Note_on_c, 3, 52, 84
9, 125520, Note_on_c, 3, 55, 84
9, 125699, Note_on_c, 3, 52, 0
9, 125699, Note_on_c, 3, 55, 0
9, 126480, Note_on_c, 3, 55, 52
9, 127200, Note_on_c, 3, 67, 48
9, 127439, Note_on_c, 3, 67, 0
9, 127440, Note_on_c, 3, 65, 48
9, 127919, Note_on_c, 3, 65, 0
9, 127920, Note_on_c, 3, 64, 48
9, 128159, Note_on_c, 3, 64, 0
9, 128160, Note_on_c, 3, 62, 48
9, 128639, Note_on_c, 3, 62, 0
9, 128640, Note_on_c, 3, 60, 48
9, 128879, Note_on_c, 3, 60, 0
9, 128880, Note_on_c, 3, 59, 48
9, 129344, Note_on_c, 3, 55, 0
9, 129359, Note_on_c, 3, 59, 0
9, 129360, Note_on_c, 3, 55, 52
9, 129360, Note_on_c, 3, 58, 48
9, 129599, Note_on_c, 3, 55, 0
9, 129599, Note_on_c, 3, 58, 0
9, 129600, Note_on_c, 3, 53, 52
9, 129600, Note_on_c, 3, 57, 48
9, 130079, Note_on_c, 3, 53, 0
9, 130079, Note_on_c, 3, 57, 0
9, 130080, Note_on_c, 3, 65, 48
9, 130080, Note_on_c, 3, 50, 52
9, 130199, Note_on_c, 3, 65, 0
9, 130200, Note_on_c, 3, 62, 48
9, 130319, Note_on_c, 3, 50, 0
9, 130319, Note_on_c, 3, 62, 0
9, 130320, Note_on_c, 3, 55, 52
9, 130320, Note_on_c, 3, 67, 48
9, 130799, Note_on_c, 3, 55, 0
9, 130799, Note_on_c, 3, 67, 0
9, 130800, Note_on_c, 3, 43, 52
9, 130800, Note_on_c, 3, 55, 48
9, 131024, Note_on_c, 3, 43, 0
9, 131024, Note_on_c, 3, 55, 0
9, 131040, Note_on_c, 3, 60, 84
9, 131040, Note_on_c, 3, 64, 84
9, 131211, Note_on_c, 3, 60, 0
9, 131211, Note_on_c, 3, 64, 0
9, 131220, Note_on_c, 3, 64, 84
9, 131220, Note_on_c, 3, 60, 84
9, 131271, Note_on_c, 3, 64, 0
9, 131271, Note_on_c, 3, 60, 0
9, 131280, Note_on_c, 3, 59, 84
9, 131280, Note_on_c, 3, 62, 84
9, 131459, Note_on_c, 3, 59, 0
9, 131459, Note_on_c, 3, 62, 0
9, 131520, Note_on_c, 3, 62, 84
9, 131520, Note_on_c, 3, 59, 84
9, 131691, Note_on_c, 3, 62, 0
9, 131691, Note_on_c, 3, 59, 0
9, 131700, Note_on_c, 3, 62, 84
9, 131700, Note_on_c, 3, 59, 84
9, 131751, Note_on_c, 3, 62, 0
9, 131751, Note_on_c, 3, 59, 0
9, 131760, Note_on_c, 3, 64, 84
9, 131760, Note_on_c, 3, 60, 84
9, 131939, Note_on_c, 3, 64, 0
9, 131939, Note_on_c, 3, 60, 0
9, 132000, Note_on_c, 3, 53, 84
9, 132000, Note_on_c, 3, 57, 84
9, 132171, Note_on_c, 3, 53, 0
9, 132171, Note_on_c, 3, 57, 0
9, 132180, Note_on_c, 3, 53, 84
9, 132180, Note_on_c, 3, 57, 84
9, 132231, Note_on_c, 3, 53, 0
9, 132231, Note_on_c, 3, 57, 0
9, 132240, Note_on_c, 3, 55, 84
9, 132240, Note_on_c, 3, 52, 84
9, 132419, Note_on_c, 3, 55, 0
9, 132419, Note_on_c, 3, 52, 0
9, 132480, Note_on_c, 3, 57, 84
9, 132480, Note_on_c, 3, 53, 84
9, 132651, Note_on_c, 3, 57, 0
9, 132651, Note_on_c, 3, 53, 0
9, 132660, Note_on_c, 3, 53, 84
9, 132660, Note_on_c, 3, 57, 84
9, 132711, Note_on_c, 3, 53, 0
9, 132711, Note_on_c, 3, 57, 0
9, 132720, Note_on_c, 3, 52, 84
9, 132720, Note_on_c, 3, 55, 84
9, 132899, Note_on_c, 3, 52, 0
9, 132899, Note_on_c, 3, 55, 0
9, 132960, Note_on_c, 3, 67, 48
9, 133199, Note_on_c, 3, 67, 0
9, 133200, Note_on_c, 3, 66, 48
9, 133679, Note_on_c, 3, 66, 0
9, 133680, Note_on_c, 3, 67, 48
9, 133680, Note_on_c, 3, 55, 52
9, 133919, Note_on_c, 3, 67, 0
9, 133920, Note_on_c, 3, 65, 48
9, 134399, Note_on_c, 3, 65, 0
9, 134400, Note_on_c, 3, 64, 48
9, 134639, Note_on_c, 3, 64, 0
9, 134640, Note_on_c, 3, 62, 48
9, 135119, Note_on_c, 3, 62, 0
9, 135120, Note_on_c, 3, 60, 48
9, 135359, Note_on_c, 3, 60, 0
9, 135360, Note_on_c, 3, 59, 48
9, 135839, Note_on_c, 3, 59, 0
9, 135840, Note_on_c, 3, 60, 48
9, 136079, Note_on_c, 3, 60, 0
9, 136080, Note_on_c, 3, 62, 48
9, 136559, Note_on_c, 3, 62, 0
9, 136560, Note_on_c, 3, 64, 48
9, 136784, Note_on_c, 3, 55, 0
9, 136799, Note_on_c, 3, 64, 0
9, 136800, Note_on_c, 3, 53, 52
9, 136800, Note_on_c, 3, 65, 52
9, 137279, Note_on_c, 3, 53, 0
9, 137279, Note_on_c, 3, 65, 0
9, 137280, Note_on_c, 3, 50, 52
9, 137280, Note_on_c, 3, 62, 52
9, 137519, Note_on_c, 3, 50, 0
9, 137519, Note_on_c, 3, 62, 0
9, 137520, Note_on_c, 3, 55, 52
9, 137520, Note_on_c, 3, 67, 52
9, 137999, Note_on_c, 3, 55, 0
9, 137999, Note_on_c, 3, 67, 0
9, 138000, Note_on_c, 3, 43, 52
9, 138000, Note_on_c, 3, 55, 52
9, 138224, Note_on_c, 3, 43, 0
9, 138224, Note_on_c, 3, 55, 0
9, 138240, Note_on_c, 3, 60, 52
9, 138240, Note_on_c, 3, 48, 52
9, 138479, Note_on_c, 3, 60, 0
9, 138479, Note_on_c, 3, 48, 0
9, 138960, Note_on_c, 3, 65, 52
9, 139079, Note_on_c, 3, 65, 0
9, 139080, Note_on_c, 3, 64, 56
9, 139199, Note_on_c, 3, 64, 0
9, 139200, Note_on_c, 3, 65, 60
9, 139319, Note_on_c, 3, 65, 0
9, 139320, Note_on_c, 3, 64, 64
9, 139439, Note_on_c, 3, 64, 0
9, 139440, Note_on_c, 3, 62, 68
9, 139559, Note_on_c, 3, 62, 0
9, 139560, Note_on_c, 3, 60, 72
9, 139664, Note_on_c, 3, 60, 0
9, 139680, Note_on_c, 3, 60, 76
9, 139859, Note_on_c, 3, 60, 0
9, 139920, Note_on_c, 3, 64, 84
9, 140279, Note_on_c, 3, 64, 0
9, 140280, Note_on_c, 3, 60, 76
9, 140384, Note_on_c, 3, 60, 0
9, 140400, Note_on_c, 3, 55, 84
9, 140400, Note_on_c, 3, 59, 84
9, 140639, Note_on_c, 3, 55, 0
9, 140639, Note_on_c, 3, 59, 0
9, 140760, Note_on_c, 3, 59, 76
9, 140760, Note_on_c, 3, 55, 76
9, 140849, Note_on_c, 3, 59, 0
9, 140849, Note_on_c, 3, 55, 0
9, 140880, Note_on_c, 3, 60, 76
9, 140880, Note_on_c, 3, 57, 76
9, 140969, Note_on_c, 3, 60, 0
9, 140969, Note_on_c, 3, 57, 0
9, 141000, Note_on_c, 3, 59, 76
9, 141000, Note_on_c, 3, 62, 76
9, 141089, Note_on_c, 3, 59, 0
9, 141089, Note_on_c, 3, 62, 0
9, 141120, Note_on_c, 3, 60, 84
9, 141120, Note_on_c, 3, 64, 84
9, 141299, Note_on_c, 3, 60, 0
9, 141299, Note_on_c, 3, 64, 0
9, 141480, Note_on_c, 3, 60, 76
9, 141480, Note_on_c, 3, 64, 76
9, 141569, Note_on_c, 3, 60, 0
9, 141569, Note_on_c, 3, 64, 0
9, 141600, Note_on_c, 3, 64, 76
9, 141600, Note_on_c, 3, 60, 76
9, 141689, Note_on_c, 3, 64, 0
9, 141689, Note_on_c, 3, 60, 0
9, 141720, Note_on_c, 3, 48, 76
9, 141720, Note_on_c, 3, 60, 76
9, 141809, Note_on_c, 3, 48, 0
9, 141809, Note_on_c, 3, 60, 0
9, 141840, Note_on_c, 3, 55, 84
9, 141840, Note_on_c, 3, 59, 84
9, 142019, Note_on_c, 3, 55, 0
9, 142019, Note_on_c, 3, 59, 0
9, 142200, Note_on_c, 3, 59, 76
9, 142200, Note_on_c, 3, 55, 76
9, 142289, Note_on_c, 3, 59, 0
9, 142289, Note_on_c, 3, 55, 0
9, 142320, Note_on_c, 3, 57, 76
9, 142320, Note_on_c, 3, 60, 76
9, 142409, Note_on_c, 3, 57, 0
9, 142409, Note_on_c, 3, 60, 0
9, 142440, Note_on_c, 3, 59, 76
9, 142440, Note_on_c, 3, 62, 76
9, 142529, Note_on_c, 3, 59, 0
9, 142529, Note_on_c, 3, 62, 0
9, 142560, Note_on_c, 3, 64, 84
9, 142560, Note_on_c, 3, 60, 84
9, 145424, Note_on_c, 3, 64, 0
9, 145424, Note_on_c, 3, 60, 0
9, 145440, Note_on_c, 3, 48, 92
9, 145440, Note_on_c, 3, 60, 92
9, 145679, Note_on_c, 3, 48, 0
9, 145679, Note_on_c, 3, 60, 0
9, 146160, Note_on_c, 3, 60, 92
9, 146160, Note_on_c, 3, 48, 92
9, 146399, Note_on_c, 3, 60, 0
9, 146399, Note_on_c, 3, 48, 0
9, 146880, Note_on_c, 3, 60, 92
9, 146880, Note_on_c, 3, 48, 92
9, 147119, Note_on_c, 3, 60, 0
9, 147119, Note_on_c, 3, 48, 0
9, 147600, Note_on_c, 3, 60, 92
9, 147600, Note_on_c, 3, 48, 92
9, 147839, Note_on_c, 3, 60, 0
9, 147839, Note_on_c, 3, 48, 0
9, 147960, Note_on_c, 3, 48, 84
9, 148064, Note_on_c, 3, 48, 0
9, 148080, Note_on_c, 3, 48, 84
9, 148184, Note_on_c, 3, 48, 0
9, 148200, Note_on_c, 3, 48, 84
9, 148304, Note_on_c, 3, 48, 0
9, 148320, Note_on_c, 3, 48, 84
9, 148559, Note_on_c, 3, 48, 0
9, 151200, Note_on_c, 3, 65, 48
9, 151439, Note_on_c, 3, 65, 0
9, 151440, Note_on_c, 3, 62, 48
9, 151559, Note_on_c, 3, 62, 0
9, 151560, Note_on_c, 3, 64, 48
9, 151664, Note_on_c, 3, 64, 0
9, 151680, Note_on_c, 3, 65, 48
9, 151769, Note_on_c, 3, 65, 0
9, 151800, Note_on_c, 3, 62, 48
9, 151889, Note_on_c, 3, 62, 0
9, 151920, Note_on_c, 3, 59, 48
9, 152159, Note_on_c, 3, 59, 0
9, 154080, Note_on_c, 3, 64, 84
9, 154080, Note_on_c, 3, 60, 84
9, 156944, Note_on_c, 3, 64, 0
9, 156944, Note_on_c, 3, 60, 0
9, 156960, Note_on_c, 3, 48, 84
9, 156960, Note_on_c, 3, 60, 84
9, 157139, Note_on_c, 3, 48, 0
9, 157139, Note_on_c, 3, 60, 0
9, 159840, Note_on_c, 3, 63, 48
9, 160079, Note_on_c, 3, 63, 0
9, 160080, Note_on_c, 3, 60, 48
9, 160199, Note_on_c, 3, 60, 0
9, 160200, Note_on_c, 3, 62, 48
9, 160304, Note_on_c, 3, 62, 0
9, 160320, Note_on_c, 3, 63, 48
9, 160409, Note_on_c, 3, 63, 0
9, 160440, Note_on_c, 3, 60, 48
9, 160529, Note_on_c, 3, 60, 0
9, 160560, Note_on_c, 3, 57, 48
9, 160799, Note_on_c, 3, 57, 0
9, 162720, Note_on_c, 3, 62, 84
9, 162720, Note_on_c, 3, 58, 84
9, 165584, Note_on_c, 3, 62, 0
9, 165584, Note_on_c, 3, 58, 0
9, 165600, Note_on_c, 3, 58, 84
9, 165600, Note_on_c, 3, 46, 84
9, 165779, Note_on_c, 3, 58, 0
9, 165779, Note_on_c, 3, 46, 0
9, 168480, Note_on_c, 3, 67, 48
9, 168719, Note_on_c, 3, 67, 0
9, 168720, Note_on_c, 3, 64, 48
9, 168839, Note_on_c, 3, 64, 0
9, 168840, Note_on_c, 3, 65, 48
9, 168944, Note_on_c, 3, 65, 0
9, 168960, Note_on_c, 3, 67, 48
9, 169049, Note_on_c, 3, 67, 0
9, 169080, Note_on_c, 3, 64, 48
9, 169169, Note_on_c, 3, 64, 0
9, 169200, Note_on_c, 3, 61, 48
9, 169439, Note_on_c, 3, 61, 0
9, 170640, Note_on_c, 3, 62, 48
9, 170879, Note_on_c, 3, 62, 0
9, 170880, Note_on_c, 3, 65, 48
9, 170999, Note_on_c, 3, 65, 0
9, 171000, Note_on_c, 3, 64, 48
9, 171104, Note_on_c, 3, 64, 0
9, 171120, Note_on_c, 3, 62, 48
9, 171209, Note_on_c, 3, 62, 0
9, 171240, Note_on_c, 3, 65, 48
9, 171329, Note_on_c, 3, 65, 0
9, 171360, Note_on_c, 3, 45, 84
9, 171360, Note_on_c, 3, 57, 84
9, 174224, Note_on_c, 3, 45, 0
9, 174224, Note_on_c, 3, 57, 0
9, 174240, Note_on_c, 3, 45, 84
9, 174240, Note_on_c, 3, 57, 84
9, 174479, Note_on_c, 3, 45, 0
9, 174479, Note_on_c, 3, 57, 0
9, 174960, Note_on_c, 3, 45, 92
9, 174960, Note_on_c, 3, 57, 92
9, 175199, Note_on_c, 3, 45, 0
9, 175199, Note_on_c, 3, 57, 0
9, 175320, Note_on_c, 3, 57, 84
9, 175320, Note_on_c, 3, 45, 84
9, 175424, Note_on_c, 3, 57, 0
9, 175424, Note_on_c, 3, 45, 0
9, 175440, Note_on_c, 3, 45, 84
9, 175440, Note_on_c, 3, 57, 84
9, 175544, Note_on_c, 3, 45, 0
9, 175544, Note_on_c, 3, 57, 0
9, 175560, Note_on_c, 3, 45, 84
9, 175560, Note_on_c, 3, 57, 84
9, 175664, Note_on_c, 3, 45, 0
9, 175664, Note_on_c, 3, 57, 0
9, 175680, Note_on_c, 3, 45, 84
9, 175680, Note_on_c, 3, 57, 84
9, 175919, Note_on_c, 3, 45, 0
9, 175919, Note_on_c, 3, 57, 0
9, 176400, Note_on_c, 3, 57, 92
9, 176400, Note_on_c, 3, 45, 92
9, 176639, Note_on_c, 3, 57, 0
9, 176639, Note_on_c, 3, 45, 0
9, 176760, Note_on_c, 3, 45, 84
9, 176760, Note_on_c, 3, 57, 84
9, 176864, Note_on_c, 3, 45, 0
9, 176864, Note_on_c, 3, 57, 0
9, 176880, Note_on_c, 3, 57, 84
9, 176880, Note_on_c, 3, 45, 84
9, 176984, Note_on_c, 3, 57, 0
9, 176984, Note_on_c, 3, 45, 0
9, 177000, Note_on_c, 3, 57, 84
9, 177000, Note_on_c, 3, 45, 84
9, 177104, Note_on_c, 3, 57, 0
9, 177104, Note_on_c, 3, 45, 0
9, 177120, Note_on_c, 3, 57, 84
9, 177120, Note_on_c, 3, 45, 84
9, 177359, Note_on_c, 3, 57, 0
9, 177359, Note_on_c, 3, 45, 0
9, 178080, Note_on_c, 3, 62, 92
9, 178080, Note_on_c, 3, 50, 92
9, 178559, Note_on_c, 3, 62, 0
9, 178559, Note_on_c, 3, 50, 0
9, 179520, Note_on_c, 3, 62, 92
9, 179520, Note_on_c, 3, 50, 92
9, 179999, Note_on_c, 3, 62, 0
9, 179999, Note_on_c, 3, 50, 0
9, 180240, Note_on_c, 3, 64, 92
9, 180689, Note_on_c, 3, 64, 0
9, 180720, Note_on_c, 3, 65, 84
9, 180839, Note_on_c, 3, 65, 0
9, 180960, Note_on_c, 3, 61, 92
9, 181409, Note_on_c, 3, 61, 0
9, 181440, Note_on_c, 3, 62, 84
9, 181559, Note_on_c, 3, 62, 0
9, 181680, Note_on_c, 3, 64, 92
9, 182129, Note_on_c, 3, 64, 0
9, 182160, Note_on_c, 3, 65, 84
9, 182279, Note_on_c, 3, 65, 0
9, 182400, Note_on_c, 3, 66, 92
9, 182849, Note_on_c, 3, 66, 0
9, 182880, Note_on_c, 3, 67, 84
9, 183119, Note_on_c, 3, 67, 0
9, 183600, Note_on_c, 3, 62, 84
9, 183839, Note_on_c, 3, 62, 0
9, 183840, Note_on_c, 3, 59, 84
9, 183959, Note_on_c, 3, 59, 0
9, 183960, Note_on_c, 3, 60, 84
9, 184064, Note_on_c, 3, 60, 0
9, 184080, Note_on_c, 3, 62, 84
9, 184169, Note_on_c, 3, 62, 0
9, 184200, Note_on_c, 3, 59, 84
9, 184289, Note_on_c, 3, 59, 0
9, 185040, Note_on_c, 3, 63, 84
9, 185279, Note_on_c, 3, 63, 0
9, 185280, Note_on_c, 3, 60, 84
9, 185399, Note_on_c, 3, 60, 0
9, 185400, Note_on_c, 3, 62, 84
9, 185504, Note_on_c, 3, 62, 0
9, 185520, Note_on_c, 3, 63, 84
9, 185609, Note_on_c, 3, 63, 0
9, 185640, Note_on_c, 3, 60, 84
9, 185729, Note_on_c, 3, 60, 0
9, 188640, Note_on_c, 3, 65, 84
9, 188879, Note_on_c, 3, 65, 0
9, 188880, Note_on_c, 3, 60, 84
9, 188999, Note_on_c, 3, 60, 0
9, 189000, Note_on_c, 3, 58, 84
9, 189104, Note_on_c, 3, 58, 0
9, 189120, Note_on_c, 3, 56, 84
9, 189224, Note_on_c, 3, 56, 0
9, 189240, Note_on_c, 3, 60, 84
9, 189344, Note_on_c, 3, 60, 0
9, 189360, Note_on_c, 3, 53, 84
9, 189539, Note_on_c, 3, 53, 0
9, 189600, Note_on_c, 3, 60, 92
9, 189600, Note_on_c, 3, 56, 92
9, 190049, Note_on_c, 3, 60, 0
9, 190049, Note_on_c, 3, 56, 0
9, 190080, Note_on_c, 3, 58, 84
9, 190080, Note_on_c, 3, 61, 84
9, 190319, Note_on_c, 3, 58, 0
9, 190319, Note_on_c, 3, 61, 0
9, 190320, Note_on_c, 3, 61, 84
9, 190439, Note_on_c, 3, 61, 0
9, 190440, Note_on_c, 3, 60, 84
9, 190544, Note_on_c, 3, 60, 0
9, 190560, Note_on_c, 3, 58, 84
9, 190649, Note_on_c, 3, 58, 0
9, 190680, Note_on_c, 3, 61, 84
9, 190769, Note_on_c, 3, 61, 0
9, 190800, Note_on_c, 3, 53, 84
9, 190979, Note_on_c, 3, 53, 0
9, 191040, Note_on_c, 3, 58, 92
9, 191040, Note_on_c, 3, 61, 92
9, 191489, Note_on_c, 3, 58, 0
9, 191489, Note_on_c, 3, 61, 0
9, 191520, Note_on_c, 3, 61, 84
9, 191520, Note_on_c, 3, 58, 84
9, 191699, Note_on_c, 3, 61, 0
9, 191699, Note_on_c, 3, 58, 0
9, 191760, Note_on_c, 3, 61, 92
9, 191879, Note_on_c, 3, 61, 0
9, 191880, Note_on_c, 3, 60, 84
9, 191984, Note_on_c, 3, 60, 0
9, 192000, Note_on_c, 3, 58, 84
9, 192089, Note_on_c, 3, 58, 0
9, 192120, Note_on_c, 3, 61, 84
9, 192209, Note_on_c, 3, 61, 0
9, 192240, Note_on_c, 3, 55, 84
9, 192419, Note_on_c, 3, 55, 0
9, 192480, Note_on_c, 3, 58, 92
9, 192599, Note_on_c, 3, 58, 0
9, 192600, Note_on_c, 3, 56, 84
9, 192704, Note_on_c, 3, 56, 0
9, 192720, Note_on_c, 3, 55, 84
9, 192809, Note_on_c, 3, 55, 0
9, 192840, Note_on_c, 3, 58, 84
9, 192929, Note_on_c, 3, 58, 0
9, 192960, Note_on_c, 3, 56, 84
9, 193139, Note_on_c, 3, 56, 0
9, 193200, Note_on_c, 3, 66, 92
9, 193319, Note_on_c, 3, 66, 0
9, 193320, Note_on_c, 3, 65, 84
9, 193424, Note_on_c, 3, 65, 0
9, 193440, Note_on_c, 3, 63, 84
9, 193529, Note_on_c, 3, 63, 0
9, 193560, Note_on_c, 3, 66, 84
9, 193649, Note_on_c, 3, 66, 0
9, 193680, Note_on_c, 3, 65, 84
9, 193859, Note_on_c, 3, 65, 0
9, 193920, Note_on_c, 3, 63, 92
9, 194039, Note_on_c, 3, 63, 0
9, 194040, Note_on_c, 3, 61, 84
9, 194144, Note_on_c, 3, 61, 0
9, 194160, Note_on_c, 3, 60, 84
9, 194249, Note_on_c, 3, 60, 0
9, 194280, Note_on_c, 3, 63, 84
9, 194369, Note_on_c, 3, 63, 0
9, 194400, Note_on_c, 3, 61, 84
9, 194400, Note_on_c, 3, 65, 84
9, 194489, Note_on_c, 3, 61, 0
9, 194489, Note_on_c, 3, 65, 0
9, 194640, Note_on_c, 3, 61, 92
9, 194640, Note_on_c, 3, 65, 92
9, 195119, Note_on_c, 3, 61, 0
9, 195119, Note_on_c, 3, 65, 0
9, 195360, Note_on_c, 3, 61, 92
9, 195360, Note_on_c, 3, 65, 92
9, 195839, Note_on_c, 3, 61, 0
9, 195839, Note_on_c, 3, 65, 0
9, 196080, Note_on_c, 3, 61, 92
9, 196080, Note_on_c, 3, 65, 92
9, 196559, Note_on_c, 3, 61, 0
9, 196559, Note_on_c, 3, 65, 0
9, 196800, Note_on_c, 3, 61, 92
9, 196800, Note_on_c, 3, 65, 92
9, 197249, Note_on_c, 3, 61, 0
9, 197249, Note_on_c, 3, 65, 0
9, 197280, Note_on_c, 3, 61, 84
9, 197280, Note_on_c, 3, 58, 84
9, 197399, Note_on_c, 3, 61, 0
9, 197399, Note_on_c, 3, 58, 0
9, 197520, Note_on_c, 3, 58, 92
9, 197520, Note_on_c, 3, 61, 92
9, 197999, Note_on_c, 3, 58, 0
9, 197999, Note_on_c, 3, 61, 0
9, 198240, Note_on_c, 3, 58, 92
9, 198240, Note_on_c, 3, 61, 92
9, 198719, Note_on_c, 3, 58, 0
9, 198719, Note_on_c, 3, 61, 0
9, 198960, Note_on_c, 3, 61, 92
9, 198960, Note_on_c, 3, 58, 92
9, 199439, Note_on_c, 3, 61, 0
9, 199439, Note_on_c, 3, 58, 0
9, 199680, Note_on_c, 3, 61, 92
9, 199680, Note_on_c, 3, 58, 92
9, 200129, Note_on_c, 3, 61, 0
9, 200129, Note_on_c, 3, 58, 0
9, 200160, Note_on_c, 3, 59, 84
9, 200160, Note_on_c, 3, 62, 84
9, 200279, Note_on_c, 3, 59, 0
9, 200279, Note_on_c, 3, 62, 0
9, 200400, Note_on_c, 3, 36, 92
9, 200400, Note_on_c, 3, 48, 92
9, 200879, Note_on_c, 3, 36, 0
9, 200879, Note_on_c, 3, 48, 0
9, 201120, Note_on_c, 3, 48, 92
9, 201120, Note_on_c, 3, 36, 92
9, 201599, Note_on_c, 3, 48, 0
9, 201599, Note_on_c, 3, 36, 0
9, 201840, Note_on_c, 3, 48, 92
9, 201840, Note_on_c, 3, 36, 92
9, 202319, Note_on_c, 3, 48, 0
9, 202319, Note_on_c, 3, 36, 0
9, 202560, Note_on_c, 3, 36, 92
9, 202560, Note_on_c, 3, 48, 92
9, 203009, Note_on_c, 3, 36, 0
9, 203009, Note_on_c, 3, 48, 0
9, 203040, Note_on_c, 3, 41, 84
9, 203040, Note_on_c, 3, 53, 84
9, 203159, Note_on_c, 3, 41, 0
9, 203159, Note_on_c, 3, 53, 0
9, 203280, Note_on_c, 3, 48, 92
9, 203280, Note_on_c, 3, 36, 92
9, 204449, Note_on_c, 3, 48, 0
9, 204449, Note_on_c, 3, 36, 0
9, 204480, Note_on_c, 3, 53, 84
9, 204480, Note_on_c, 3, 41, 84
9, 204599, Note_on_c, 3, 53, 0
9, 204599, Note_on_c, 3, 41, 0
9, 204720, Note_on_c, 3, 36, 92
9, 204720, Note_on_c, 3, 48, 92
9, 205889, Note_on_c, 3, 36, 0
9, 205889, Note_on_c, 3, 48, 0
9, 205920, Note_on_c, 3, 48, 92
9, 205920, Note_on_c, 3, 36, 92
9, 206009, Note_on_c, 3, 48, 0
9, 206009, Note_on_c, 3, 36, 0
9, 206160, Note_on_c, 3, 53, 84
9, 206160, Note_on_c, 3, 56, 84
9, 206249, Note_on_c, 3, 53, 0
9, 206249, Note_on_c, 3, 56, 0
9, 206640, Note_on_c, 3, 54, 92
9, 206640, Note_on_c, 3, 57, 92
9, 206729, Note_on_c, 3, 54, 0
9, 206729, Note_on_c, 3, 57, 0
9, 206880, Note_on_c, 3, 54, 84
9, 206880, Note_on_c, 3, 57, 84
9, 206969, Note_on_c, 3, 54, 0
9, 206969, Note_on_c, 3, 57, 0
9, 207360, Note_on_c, 3, 58, 92
9, 207360, Note_on_c, 3, 55, 92
9, 207449, Note_on_c, 3, 58, 0
9, 207449, Note_on_c, 3, 55, 0
9, 207600, Note_on_c, 3, 58, 84
9, 207600, Note_on_c, 3, 55, 84
9, 207689, Note_on_c, 3, 58, 0
9, 207689, Note_on_c, 3, 55, 0
9, 208080, Note_on_c, 3, 55, 92
9, 208080, Note_on_c, 3, 58, 92
9, 208169, Note_on_c, 3, 55, 0
9, 208169, Note_on_c, 3, 58, 0
9, 208320, Note_on_c, 3, 58, 84
9, 208320, Note_on_c, 3, 55, 84
9, 208409, Note_on_c, 3, 58, 0
9, 208409, Note_on_c, 3, 55, 0
9, 208800, Note_on_c, 3, 48, 88
9, 208919, Note_on_c, 3, 48, 0
9, 208920, Note_on_c, 3, 50, 88
9, 209039, Note_on_c, 3, 50, 0
9, 209040, Note_on_c, 3, 52, 88
9, 209159, Note_on_c, 3, 52, 0
9, 209160, Note_on_c, 3, 53, 88
9, 209279, Note_on_c, 3, 53, 0
9, 209280, Note_on_c, 3, 55, 88
9, 209399, Note_on_c, 3, 55, 0
9, 209400, Note_on_c, 3, 57, 88
9, 209519, Note_on_c, 3, 57, 0
9, 209520, Note_on_c, 3, 58, 88
9, 209639, Note_on_c, 3, 58, 0
9, 209640, Note_on_c, 3, 59, 88
9, 209744, Note_on_c, 3, 59, 0
9, 209760, Note_on_c, 3, 60, 88
9, 209849, Note_on_c, 3, 60, 0
9, 209880, Note_on_c, 3, 60, 88
9, 209969, Note_on_c, 3, 60, 0
9, 210000, Note_on_c, 3, 60, 88
9, 210089, Note_on_c, 3, 60, 0
9, 210120, Note_on_c, 3, 60, 88
9, 210209, Note_on_c, 3, 60, 0
9, 210240, Note_on_c, 3, 60, 92
9, 210479, Note_on_c, 3, 60, 0
9, 210480, Note_on_c, 3, 57, 92
9, 210599, Note_on_c, 3, 57, 0
9, 210600, Note_on_c, 3, 58, 92
9, 210704, Note_on_c, 3, 58, 0
9, 210720, Note_on_c, 3, 60, 92
9, 210809, Note_on_c, 3, 60, 0
9, 210840, Note_on_c, 3, 57, 92
9, 210929, Note_on_c, 3, 57, 0
9, 210960, Note_on_c, 3, 53, 92
9, 211424, Note_on_c, 3, 53, 0
9, 211440, Note_on_c, 3, 48, 92
9, 211529, Note_on_c, 3, 48, 0
9, 211560, Note_on_c, 3, 53, 92
9, 211649, Note_on_c, 3, 53, 0
9, 211680, Note_on_c, 3, 53, 92
9, 211799, Note_on_c, 3, 53, 0
9, 211800, Note_on_c, 3, 52, 92
9, 211904, Note_on_c, 3, 52, 0
9, 211920, Note_on_c, 3, 52, 92
9, 212009, Note_on_c, 3, 52, 0
9, 212040, Note_on_c, 3, 53, 92
9, 212129, Note_on_c, 3, 53, 0
9, 212160, Note_on_c, 3, 55, 92
9, 212249, Note_on_c, 3, 55, 0
9, 212280, Note_on_c, 3, 57, 92
9, 212369, Note_on_c, 3, 57, 0
9, 212400, Note_on_c, 3, 58, 92
9, 212639, Note_on_c, 3, 58, 0
9, 213120, Note_on_c, 3, 58, 92
9, 213359, Note_on_c, 3, 58, 0
9, 213360, Note_on_c, 3, 55, 92
9, 213479, Note_on_c, 3, 55, 0
9, 213480, Note_on_c, 3, 57, 92
9, 213599, Note_on_c, 3, 57, 0
9, 213600, Note_on_c, 3, 58, 92
9, 213719, Note_on_c, 3, 58, 0
9, 213720, Note_on_c, 3, 59, 92
9, 213824, Note_on_c, 3, 59, 0
9, 213840, Note_on_c, 3, 60, 92
9, 214319, Note_on_c, 3, 60, 0
9, 214320, Note_on_c, 3, 58, 92
9, 214544, Note_on_c, 3, 58, 0
9, 214560, Note_on_c, 3, 57, 92
9, 214619, Note_on_c, 3, 57, 0
9, 214620, Note_on_c, 3, 60, 92
9, 214679, Note_on_c, 3, 60, 0
9, 214800, Note_on_c, 3, 53, 92
9, 214919, Note_on_c, 3, 53, 0
9, 215040, Note_on_c, 3, 57, 92
9, 215099, Note_on_c, 3, 57, 0
9, 215100, Note_on_c, 3, 55, 92
9, 215159, Note_on_c, 3, 55, 0
9, 215280, Note_on_c, 3, 53, 92
9, 215399, Note_on_c, 3, 53, 0
9, 215520, Note_on_c, 3, 53, 48
9, 215520, Note_on_c, 3, 57, 48
9, 215729, Note_on_c, 3, 53, 0
9, 215729, Note_on_c, 3, 57, 0
9, 215760, Note_on_c, 3, 57, 48
9, 215760, Note_on_c, 3, 53, 48
9, 215969, Note_on_c, 3, 57, 0
9, 215969, Note_on_c, 3, 53, 0
9, 216000, Note_on_c, 3, 57, 48
9, 216000, Note_on_c, 3, 53, 48
9, 217184, Note_on_c, 3, 57, 0
9, 217184, Note_on_c, 3, 53, 0
9, 217200, Note_on_c, 3, 48, 48
9, 217289, Note_on_c, 3, 48, 0
9, 217320, Note_on_c, 3, 53, 48
9, 217409, Note_on_c, 3, 53, 0
9, 217440, Note_on_c, 3, 53, 48
9, 217559, Note_on_c, 3, 53, 0
9, 217560, Note_on_c, 3, 48, 48
9, 217560, Note_on_c, 3, 52, 48
9, 217664, Note_on_c, 3, 48, 0
9, 217664, Note_on_c, 3, 52, 0
9, 217680, Note_on_c, 3, 48, 48
9, 217680, Note_on_c, 3, 52, 48
9, 217769, Note_on_c, 3, 48, 0
9, 217769, Note_on_c, 3, 52, 0
9, 217800, Note_on_c, 3, 53, 48
9, 217800, Note_on_c, 3, 50, 48
9, 217889, Note_on_c, 3, 53, 0
9, 217889, Note_on_c, 3, 50, 0
9, 217920, Note_on_c, 3, 55, 48
9, 217920, Note_on_c, 3, 52, 48
9, 218009, Note_on_c, 3, 55, 0
9, 218009, Note_on_c, 3, 52, 0
9, 218040, Note_on_c, 3, 57, 48
9, 218040, Note_on_c, 3, 53, 48
9, 218129, Note_on_c, 3, 57, 0
9, 218129, Note_on_c, 3, 53, 0
9, 218160, Note_on_c, 3, 58, 76
9, 218160, Note_on_c, 3, 55, 76
9, 218399, Note_on_c, 3, 58, 0
9, 218399, Note_on_c, 3, 55, 0
9, 218880, Note_on_c, 3, 55, 48
9, 218880, Note_on_c, 3, 52, 48
9, 219839, Note_on_c, 3, 55, 0
9, 219839, Note_on_c, 3, 52, 0
9, 219840, Note_on_c, 3, 50, 48
9, 219840, Note_on_c, 3, 53, 48
9, 220079, Note_on_c, 3, 50, 0
9, 220079, Note_on_c, 3, 53, 0
9, 220080, Note_on_c, 3, 52, 48
9, 220080, Note_on_c, 3, 55, 48
9, 220304, Note_on_c, 3, 52, 0
9, 220304, Note_on_c, 3, 55, 0
9, 220320, Note_on_c, 3, 53, 48
9, 220320, Note_on_c, 3, 57, 48
9, 220439, Note_on_c, 3, 57, 0
9, 220440, Note_on_c, 3, 60, 48
9, 220544, Note_on_c, 3, 53, 0
9, 220544, Note_on_c, 3, 60, 0
9, 220560, Note_on_c, 3, 53, 48
9, 220799, Note_on_c, 3, 53, 0
9, 220800, Note_on_c, 3, 52, 48
9, 220800, Note_on_c, 3, 55, 48
9, 221024, Note_on_c, 3, 52, 0
9, 221024, Note_on_c, 3, 55, 0
9, 221040, Note_on_c, 3, 52, 48
9, 221040, Note_on_c, 3, 55, 48
9, 221519, Note_on_c, 3, 52, 0
9, 221519, Note_on_c, 3, 55, 0
9, 221520, Note_on_c, 3, 57, 48
9, 221520, Note_on_c, 3, 53, 48
9, 221520, Control_c, 3, 11, 80
9, 221744, Note_on_c, 3, 57, 0
9, 221744, Note_on_c, 3, 53, 0
9, 221760, Note_on_c, 3, 55, 76
9, 221940, Control_c, 3, 11, 84
9, 222120, Control_c, 3, 11, 88
9, 222300, Control_c, 3, 11, 92
9, 222480, Control_c, 3, 11, 96
9, 222660, Control_c, 3, 11, 100
9, 222719, Note_on_c, 3, 55, 0
9, 222840, Control_c, 3, 11, 104
9, 223020, Control_c, 3, 11, 107
9, 223200, Control_c, 3, 11, 111
9, 223380, Control_c, 3, 11, 115
9, 223560, Control_c, 3, 11, 119
9, 223740, Control_c, 3, 11, 123
9, 223920, Control_c, 3, 11, 127
9, 223920, Note_on_c, 3, 57, 76
9, 223920, Note_on_c, 3, 53, 76
9, 224159, Note_on_c, 3, 57, 0
9, 224159, Note_on_c, 3, 53, 0
9, 225300, Note_on_c, 3, 60, 76
9, 225300, Note_on_c, 3, 57, 76
9, 225351, Note_on_c, 3, 60, 0
9, 225351, Note_on_c, 3, 57, 0
9, 225360, Note_on_c, 3, 58, 76
9, 225360, Note_on_c, 3, 62, 76
9, 225599, Note_on_c, 3, 58, 0
9, 225599, Note_on_c, 3, 62, 0
9, 226740, Note_on_c, 3, 58, 76
9, 226740, Note_on_c, 3, 62, 76
9, 226791, Note_on_c, 3, 58, 0
9, 226791, Note_on_c, 3, 62, 0
9, 226800, Note_on_c, 3, 62, 76
9, 226800, Note_on_c, 3, 59, 76
9, 227039, Note_on_c, 3, 62, 0
9, 227039, Note_on_c, 3, 59, 0
9, 227460, Note_on_c, 3, 62, 76
9, 227460, Note_on_c, 3, 59, 76
9, 227511, Note_on_c, 3, 62, 0
9, 227511, Note_on_c, 3, 59, 0
9, 227520, Note_on_c, 3, 59, 76
9, 227520, Note_on_c, 3, 62, 76
9, 227759, Note_on_c, 3, 59, 0
9, 227759, Note_on_c, 3, 62, 0
9, 228180, Note_on_c, 3, 62, 76
9, 228180, Note_on_c, 3, 59, 76
9, 228231, Note_on_c, 3, 62, 0
9, 228231, Note_on_c, 3, 59, 0
9, 228240, Note_on_c, 3, 64, 76
9, 228240, Note_on_c, 3, 60, 76
9, 228479, Note_on_c, 3, 64, 0
9, 228479, Note_on_c, 3, 60, 0
9, 228900, Note_on_c, 3, 58, 76
9, 228900, Note_on_c, 3, 55, 76
9, 228951, Note_on_c, 3, 58, 0
9, 228951, Note_on_c, 3, 55, 0
9, 228960, Note_on_c, 3, 58, 76
9, 228960, Note_on_c, 3, 55, 76
9, 229079, Note_on_c, 3, 58, 0
9, 229079, Note_on_c, 3, 55, 0
9, 229200, Note_on_c, 3, 55, 76
9, 229200, Note_on_c, 3, 58, 76
9, 229319, Note_on_c, 3, 55, 0
9, 229319, Note_on_c, 3, 58, 0
9, 229440, Note_on_c, 3, 55, 76
9, 229440, Note_on_c, 3, 58, 76
9, 229559, Note_on_c, 3, 55, 0
9, 229559, Note_on_c, 3, 58, 0
9, 229680, Note_on_c, 3, 60, 84
9, 229680, Note_on_c, 3, 57, 84
9, 231044, Note_on_c, 3, 60, 0
9, 231044, Note_on_c, 3, 57, 0
9, 231060, Note_on_c, 3, 60, 84
9, 231060, Note_on_c, 3, 57, 84
9, 231111, Note_on_c, 3, 60, 0
9, 231111, Note_on_c, 3, 57, 0
9, 231120, Note_on_c, 3, 59, 84
9, 231120, Note_on_c, 3, 62, 84
9, 232484, Note_on_c, 3, 59, 0
9, 232484, Note_on_c, 3, 62, 0
9, 232500, Note_on_c, 3, 59, 84
9, 232500, Note_on_c, 3, 62, 84
9, 232551, Note_on_c, 3, 59, 0
9, 232551, Note_on_c, 3, 62, 0
9, 232560, Note_on_c, 3, 56, 84
9, 232560, Note_on_c, 3, 53, 84
9, 233924, Note_on_c, 3, 56, 0
9, 233924, Note_on_c, 3, 53, 0
9, 233940, Note_on_c, 3, 53, 84
9, 233940, Note_on_c, 3, 56, 84
9, 233991, Note_on_c, 3, 53, 0
9, 233991, Note_on_c, 3, 56, 0
9, 234000, Note_on_c, 3, 53, 84
9, 234000, Note_on_c, 3, 56, 84
9, 235364, Note_on_c, 3, 53, 0
9, 235364, Note_on_c, 3, 56, 0
9, 235380, Note_on_c, 3, 56, 84
9, 235380, Note_on_c, 3, 53, 84
9, 235431, Note_on_c, 3, 56, 0
9, 235431, Note_on_c, 3, 53, 0
9, 235440, Note_on_c, 3, 56, 84
9, 235440, Note_on_c, 3, 53, 84
9, 235904, Note_on_c, 3, 56, 0
9, 235904, Note_on_c, 3, 53, 0
9, 235920, Note_on_c, 3, 56, 92
9, 235920, Note_on_c, 3, 53, 92
9, 236084, Note_on_c, 3, 56, 0
9, 236084, Note_on_c, 3, 53, 0
9, 236100, Note_on_c, 3, 53, 84
9, 236100, Note_on_c, 3, 56, 84
9, 236151, Note_on_c, 3, 53, 0
9, 236151, Note_on_c, 3, 56, 0
9, 236160, Note_on_c, 3, 56, 84
9, 236160, Note_on_c, 3, 53, 84
9, 236624, Note_on_c, 3, 56, 0
9, 236624, Note_on_c, 3, 53, 0
9, 236640, Note_on_c, 3, 56, 92
9, 236640, Note_on_c, 3, 53, 92
9, 236804, Note_on_c, 3, 56, 0
9, 236804, Note_on_c, 3, 53, 0
9, 236820, Note_on_c, 3, 53, 84
9, 236820, Note_on_c, 3, 56, 84
9, 236871, Note_on_c, 3, 53, 0
9, 236871, Note_on_c, 3, 56, 0
9, 236880, Note_on_c, 3, 56, 84
9, 236880, Note_on_c, 3, 53, 84
9, 236999, Note_on_c, 3, 56, 0
9, 236999, Note_on_c, 3, 53, 0
9, 237360, Note_on_c, 3, 56, 92
9, 237360, Note_on_c, 3, 53, 92
9, 237479, Note_on_c, 3, 56, 0
9, 237479, Note_on_c, 3, 53, 0
9, 237600, Note_on_c, 3, 53, 84
9, 237600, Note_on_c, 3, 56, 84
9, 237719, Note_on_c, 3, 53, 0
9, 237719, Note_on_c, 3, 56, 0
9, 238080, Note_on_c, 3, 56, 92
9, 238080, Note_on_c, 3, 53, 92
9, 238199, Note_on_c, 3, 56, 0
9, 238199, Note_on_c, 3, 53, 0
9, 238320, Note_on_c, 3, 56, 84
9, 238320, Note_on_c, 3, 53, 84
9, 238439, Note_on_c, 3, 56, 0
9, 238439, Note_on_c, 3, 53, 0
9, 241200, Note_on_c, 3, 53, 52
9, 241379, Note_on_c, 3, 53, 0
9, 241680, Note_on_c, 3, 63, 52
9, 241859, Note_on_c, 3, 63, 0
9, 241920, Note_on_c, 3, 53, 52
9, 242099, Note_on_c, 3, 53, 0
9, 242400, Note_on_c, 3, 63, 52
9, 242519, Note_on_c, 3, 63, 0
9, 242640, Note_on_c, 3, 62, 52
9, 242759, Note_on_c, 3, 62, 0
9, 242880, Note_on_c, 3, 58, 52
9, 242999, Note_on_c, 3, 58, 0
9, 243120, Note_on_c, 3, 53, 52
9, 243239, Note_on_c, 3, 53, 0
9, 243360, Note_on_c, 3, 51, 52
9, 243479, Note_on_c, 3, 51, 0
9, 243600, Note_on_c, 3, 48, 52
9, 243719, Note_on_c, 3, 48, 0
9, 243840, Note_on_c, 3, 45, 52
9, 243959, Note_on_c, 3, 45, 0
9, 244080, Note_on_c, 3, 46, 52
9, 244199, Note_on_c, 3, 46, 0
9, 244320, Note_on_c, 3, 53, 52
9, 244439, Note_on_c, 3, 53, 0
9, 244560, Note_on_c, 3, 58, 52
9, 244679, Note_on_c, 3, 58, 0
9, 244800, Note_on_c, 3, 57, 52
9, 244919, Note_on_c, 3, 57, 0
9, 245040, Note_on_c, 3, 62, 52
9, 245159, Note_on_c, 3, 62, 0
9, 245280, Note_on_c, 3, 59, 52
9, 245399, Note_on_c, 3, 59, 0
9, 245520, Note_on_c, 3, 55, 52
9, 245639, Note_on_c, 3, 55, 0
9, 245760, Note_on_c, 3, 60, 52
9, 245879, Note_on_c, 3, 60, 0
9, 246000, Note_on_c, 3, 57, 52
9, 246119, Note_on_c, 3, 57, 0
9, 246240, Note_on_c, 3, 53, 52
9, 246359, Note_on_c, 3, 53, 0
9, 246480, Note_on_c, 3, 58, 52
9, 246599, Note_on_c, 3, 58, 0
9, 246720, Note_on_c, 3, 55, 52
9, 246959, Note_on_c, 3, 55, 0
9, 248160, Note_on_c, 3, 48, 48
9, 248249, Note_on_c, 3, 48, 0
9, 248280, Note_on_c, 3, 48, 48
9, 248519, Note_on_c, 3, 48, 0
9, 248520, Note_on_c, 3, 50, 48
9, 248639, Note_on_c, 3, 50, 0
9, 248640, Note_on_c, 3, 52, 48
9, 248759, Note_on_c, 3, 52, 0
9, 248760, Note_on_c, 3, 53, 48
9, 248864, Note_on_c, 3, 53, 0
9, 248880, Note_on_c, 3, 48, 48
9, 248969, Note_on_c, 3, 48, 0
9, 249000, Note_on_c, 3, 48, 48
9, 249239, Note_on_c, 3, 48, 0
9, 249240, Note_on_c, 3, 52, 48
9, 249359, Note_on_c, 3, 52, 0
9, 249360, Note_on_c, 3, 53, 48
9, 249479, Note_on_c, 3, 53, 0
9, 249480, Note_on_c, 3, 55, 48
9, 249584, Note_on_c, 3, 55, 0
9, 249600, Note_on_c, 3, 48, 48
9, 249689, Note_on_c, 3, 48, 0
9, 249720, Note_on_c, 3, 48, 48
9, 249959, Note_on_c, 3, 48, 0
9, 249960, Note_on_c, 3, 53, 48
9, 250079, Note_on_c, 3, 53, 0
9, 250080, Note_on_c, 3, 55, 48
9, 250199, Note_on_c, 3, 55, 0
9, 250200, Note_on_c, 3, 57, 48
9, 250319, Note_on_c, 3, 57, 0
9, 250320, Note_on_c, 3, 58, 48
9, 250439, Note_on_c, 3, 58, 0
9, 250440, Note_on_c, 3, 57, 48
9, 250544, Note_on_c, 3, 57, 0
9, 250560, Note_on_c, 3, 55, 48
9, 250784, Note_on_c, 3, 55, 0
9, 250800, Note_on_c, 3, 60, 48
9, 251399, Note_on_c, 3, 60, 0
9, 251400, Note_on_c, 3, 59, 48
9, 251519, Note_on_c, 3, 59, 0
9, 251520, Note_on_c, 3, 55, 48
9, 251639, Note_on_c, 3, 55, 0
9, 251640, Note_on_c, 3, 57, 48
9, 251744, Note_on_c, 3, 57, 0
9, 251760, Note_on_c, 3, 58, 48
9, 252119, Note_on_c, 3, 58, 0
9, 252120, Note_on_c, 3, 57, 48
9, 252239, Note_on_c, 3, 57, 0
9, 252240, Note_on_c, 3, 53, 48
9, 252359, Note_on_c, 3, 53, 0
9, 252360, Note_on_c, 3, 55, 48
9, 252464, Note_on_c, 3, 55, 0
9, 252480, Note_on_c, 3, 53, 52
9, 252480, Note_on_c, 3, 56, 52
9, 252720, Control_c, 3, 11, 112
9, 254864, Note_on_c, 3, 53, 0
9, 254864, Note_on_c, 3, 56, 0
9, 254880, Note_on_c, 3, 53, 52
9, 254880, Note_on_c, 3, 65, 52
9, 255059, Note_on_c, 3, 53, 0
9, 255059, Note_on_c, 3, 65, 0
9, 255120, Control_c, 3, 11, 48
9, 255360, Note_on_c, 3, 50, 84
9, 255360, Note_on_c, 3, 62, 84
9, 255539, Note_on_c, 3, 50, 0
9, 255539, Note_on_c, 3, 62, 0
9, 255600, Note_on_c, 3, 56, 84
9, 255600, Note_on_c, 3, 53, 84
9, 257040, Control_c, 3, 11, 48
9, 257280, Control_c, 3, 11, 51
9, 257520, Control_c, 3, 11, 55
9, 257744, Note_on_c, 3, 56, 0
9, 257744, Note_on_c, 3, 53, 0
9, 257760, Note_on_c, 3, 65, 84
9, 257760, Control_c, 3, 11, 58
9, 257760, Note_on_c, 3, 53, 84
9, 257939, Note_on_c, 3, 65, 0
9, 257939, Note_on_c, 3, 53, 0
9, 258000, Control_c, 3, 11, 61
9, 258240, Control_c, 3, 11, 64
9, 258240, Note_on_c, 3, 62, 84
9, 258240, Note_on_c, 3, 50, 84
9, 258419, Note_on_c, 3, 62, 0
9, 258419, Note_on_c, 3, 50, 0
9, 258480, Note_on_c, 3, 61, 92
9, 258480, Note_on_c, 3, 49, 92
9, 258480, Control_c, 3, 11, 68
9, 258659, Note_on_c, 3, 61, 0
9, 258659, Note_on_c, 3, 49, 0
9, 258720, Control_c, 3, 11, 71
9, 258960, Control_c, 3, 11, 74
9, 259200, Note_on_c, 3, 61, 92
9, 259200, Control_c, 3, 11, 78
9, 259200, Note_on_c, 3, 49, 92
9, 259379, Note_on_c, 3, 61, 0
9, 259379, Note_on_c, 3, 49, 0
9, 259440, Control_c, 3, 11, 81
9, 259680, Note_on_c, 3, 58, 84
9, 259680, Control_c, 3, 11, 84
9, 259680, Note_on_c, 3, 46, 84
9, 259859, Note_on_c, 3, 58, 0
9, 259859, Note_on_c, 3, 46, 0
9, 259920, Control_c, 3, 11, 88
9, 259920, Note_on_c, 3, 60, 92
9, 259920, Note_on_c, 3, 57, 92
9, 260099, Note_on_c, 3, 60, 0
9, 260099, Note_on_c, 3, 57, 0
9, 260160, Control_c, 3, 11, 91
9, 260400, Control_c, 3, 11, 94
9, 260640, Control_c, 3, 11, 97
9, 260640, Note_on_c, 3, 58, 92
9, 260640, Note_on_c, 3, 55, 92
9, 260819, Note_on_c, 3, 58, 0
9, 260819, Note_on_c, 3, 55, 0
9, 260880, Control_c, 3, 11, 101
9, 261120, Control_c, 3, 11, 104
9, 261360, Control_c, 3, 11, 107
9, 261360, Note_on_c, 3, 53, 92
9, 261360, Note_on_c, 3, 56, 92
9, 261539, Note_on_c, 3, 53, 0
9, 261539, Note_on_c, 3, 56, 0
9, 261600, Control_c, 3, 11, 111
9, 261840, Control_c, 3, 11, 114
9, 262080, Note_on_c, 3, 55, 92
9, 262080, Control_c, 3, 11, 117
9, 262080, Note_on_c, 3, 52, 92
9, 262259, Note_on_c, 3, 55, 0
9, 262259, Note_on_c, 3, 52, 0
9, 262320, Control_c, 3, 11, 120
9, 262560, Control_c, 3, 11, 124
9, 262800, Control_c, 3, 11, 127
9, 262800, Note_on_c, 3, 52, 84
9, 262800, Note_on_c, 3, 55, 84
9, 262979, Note_on_c, 3, 52, 0
9, 262979, Note_on_c, 3, 55, 0
9, 263280, Note_on_c, 3, 55, 84
9, 263280, Note_on_c, 3, 52, 84
9, 263459, Note_on_c, 3, 55, 0
9, 263459, Note_on_c, 3, 52, 0
9, 263520, Note_on_c, 3, 57, 84
9, 263520, Note_on_c, 3, 53, 84
9, 263699, Note_on_c, 3, 57, 0
9, 263699, Note_on_c, 3, 53, 0
9, 264000, Note_on_c, 3, 50, 84
9, 264000, Note_on_c, 3, 62, 84
9, 264179, Note_on_c, 3, 50, 0
9, 264179, Note_on_c, 3, 62, 0
9, 264240, Note_on_c, 3, 58, 84
9, 264240, Note_on_c, 3, 46, 84
9, 264419, Note_on_c, 3, 58, 0
9, 264419, Note_on_c, 3, 46, 0
9, 264720, Note_on_c, 3, 55, 84
9, 264720, Note_on_c, 3, 43, 84
9, 264899, Note_on_c, 3, 55, 0
9, 264899, Note_on_c, 3, 43, 0
9, 264960, Note_on_c, 3, 60, 84
9, 264960, Note_on_c, 3, 48, 84
9, 265139, Note_on_c, 3, 60, 0
9, 265139, Note_on_c, 3, 48, 0
9, 265440, Note_on_c, 3, 48, 84
9, 265619, Note_on_c, 3, 48, 0
9, 265680, Note_on_c, 3, 57, 84
9, 265680, Note_on_c, 3, 60, 84
9, 265851, Note_on_c, 3, 57, 0
9, 265851, Note_on_c, 3, 60, 0
9, 265860, Note_on_c, 3, 60, 84
9, 265860, Note_on_c, 3, 57, 84
9, 265911, Note_on_c, 3, 60, 0
9, 265911, Note_on_c, 3, 57, 0
9, 265920, Note_on_c, 3, 58, 84
9, 265920, Note_on_c, 3, 61, 84
9, 266099, Note_on_c, 3, 58, 0
9, 266099, Note_on_c, 3, 61, 0
9, 266160, Note_on_c, 3, 58, 84
9, 266160, Note_on_c, 3, 61, 84
9, 266331, Note_on_c, 3, 58, 0
9, 266331, Note_on_c, 3, 61, 0
9, 266340, Note_on_c, 3, 58, 84
9, 266340, Note_on_c, 3, 61, 84
9, 266391, Note_on_c, 3, 58, 0
9, 266391, Note_on_c, 3, 61, 0
9, 266400, Note_on_c, 3, 60, 84
9, 266400, Note_on_c, 3, 57, 84
9, 266579, Note_on_c, 3, 60, 0
9, 266579, Note_on_c, 3, 57, 0
9, 266640, Note_on_c, 3, 62, 84
9, 266640, Note_on_c, 3, 58, 84
9, 266811, Note_on_c, 3, 62, 0
9, 266811, Note_on_c, 3, 58, 0
9, 266820, Note_on_c, 3, 62, 84
9, 266820, Note_on_c, 3, 58, 84
9, 266871, Note_on_c, 3, 62, 0
9, 266871, Note_on_c, 3, 58, 0
9, 266880, Note_on_c, 3, 60, 84
9, 266880, Note_on_c, 3, 57, 84
9, 267059, Note_on_c, 3, 60, 0
9, 267059, Note_on_c, 3, 57, 0
9, 267120, Note_on_c, 3, 58, 84
9, 267120, Note_on_c, 3, 62, 84
9, 267291, Note_on_c, 3, 58, 0
9, 267291, Note_on_c, 3, 62, 0
9, 267300, Note_on_c, 3, 58, 84
9, 267300, Note_on_c, 3, 62, 84
9, 267351, Note_on_c, 3, 58, 0
9, 267351, Note_on_c, 3, 62, 0
9, 267360, Note_on_c, 3, 57, 84
9, 267360, Note_on_c, 3, 60, 84
9, 267539, Note_on_c, 3, 57, 0
9, 267539, Note_on_c, 3, 60, 0
9, 268320, Note_on_c, 3, 60, 52
9, 270000, Note_on_c, 3, 67, 48
9, 270479, Note_on_c, 3, 67, 0
9, 270480, Note_on_c, 3, 65, 48
9, 270719, Note_on_c, 3, 65, 0
9, 270720, Note_on_c, 3, 64, 48
9, 271199, Note_on_c, 3, 64, 0
9, 271200, Note_on_c, 3, 63, 48
9, 271424, Note_on_c, 3, 60, 0
9, 271439, Note_on_c, 3, 63, 0
9, 271440, Note_on_c, 3, 62, 48
9, 271440, Note_on_c, 3, 58, 48
9, 271919, Note_on_c, 3, 62, 0
9, 271919, Note_on_c, 3, 58, 0
9, 271920, Note_on_c, 3, 67, 48
9, 271920, Note_on_c, 3, 55, 48
9, 272159, Note_on_c, 3, 67, 0
9, 272159, Note_on_c, 3, 55, 0
9, 272160, Note_on_c, 3, 60, 48
9, 272639, Note_on_c, 3, 60, 0
9, 272640, Note_on_c, 3, 48, 48
9, 272640, Note_on_c, 3, 60, 48
9, 272864, Note_on_c, 3, 48, 0
9, 272864, Note_on_c, 3, 60, 0
9, 272880, Note_on_c, 3, 57, 84
9, 272880, Note_on_c, 3, 60, 84
9, 273051, Note_on_c, 3, 57, 0
9, 273051, Note_on_c, 3, 60, 0
9, 273060, Note_on_c, 3, 57, 84
9, 273060, Note_on_c, 3, 60, 84
9, 273111, Note_on_c, 3, 57, 0
9, 273111, Note_on_c, 3, 60, 0
9, 273120, Note_on_c, 3, 61, 84
9, 273120, Note_on_c, 3, 58, 84
9, 273299, Note_on_c, 3, 61, 0
9, 273299, Note_on_c, 3, 58, 0
9, 273360, Note_on_c, 3, 61, 84
9, 273360, Note_on_c, 3, 58, 84
9, 273531, Note_on_c, 3, 61, 0
9, 273531, Note_on_c, 3, 58, 0
9, 273540, Note_on_c, 3, 58, 84
9, 273540, Note_on_c, 3, 61, 84
9, 273591, Note_on_c, 3, 58, 0
9, 273591, Note_on_c, 3, 61, 0
9, 273600, Note_on_c, 3, 57, 84
9, 273600, Note_on_c, 3, 60, 84
9, 273779, Note_on_c, 3, 57, 0
9, 273779, Note_on_c, 3, 60, 0
9, 273840, Note_on_c, 3, 58, 84
9, 273840, Note_on_c, 3, 62, 84
9, 274011, Note_on_c, 3, 58, 0
9, 274011, Note_on_c, 3, 62, 0
9, 274020, Note_on_c, 3, 58, 84
9, 274020, Note_on_c, 3, 62, 84
9, 274071, Note_on_c, 3, 58, 0
9, 274071, Note_on_c, 3, 62, 0
9, 274080, Note_on_c, 3, 57, 84
9, 274080, Note_on_c, 3, 60, 84
9, 274259, Note_on_c, 3, 57, 0
9, 274259, Note_on_c, 3, 60, 0
9, 274320, Note_on_c, 3, 62, 84
9, 274320, Note_on_c, 3, 58, 84
9, 274491, Note_on_c, 3, 62, 0
9, 274491, Note_on_c, 3, 58, 0
9, 274500, Note_on_c, 3, 58, 84
9, 274500, Note_on_c, 3, 62, 84
9, 274551, Note_on_c, 3, 58, 0
9, 274551, Note_on_c, 3, 62, 0
9, 274560, Note_on_c, 3, 60, 84
9, 274560, Note_on_c, 3, 57, 84
9, 274739, Note_on_c, 3, 60, 0
9, 274739, Note_on_c, 3, 57, 0
9, 275520, Note_on_c, 3, 48, 48
9, 276240, Note_on_c, 3, 60, 48
9, 276479, Note_on_c, 3, 60, 0
9, 276480, Note_on_c, 3, 58, 48
9, 276959, Note_on_c, 3, 58, 0
9, 276960, Note_on_c, 3, 57, 48
9, 277199, Note_on_c, 3, 57, 0
9, 277200, Note_on_c, 3, 55, 48
9, 277679, Note_on_c, 3, 55, 0
9, 277680, Note_on_c, 3, 53, 48
9, 277919, Note_on_c, 3, 53, 0
9, 277920, Note_on_c, 3, 55, 48
9, 278399, Note_on_c, 3, 55, 0
9, 278400, Note_on_c, 3, 57, 48
9, 278639, Note_on_c, 3, 48, 0
9, 278639, Note_on_c, 3, 57, 0
9, 278640, Note_on_c, 3, 46, 48
9, 278640, Note_on_c, 3, 58, 48
9, 279119, Note_on_c, 3, 46, 0
9, 279119, Note_on_c, 3, 58, 0
9, 279120, Note_on_c, 3, 55, 48
9, 279120, Note_on_c, 3, 43, 48
9, 279359, Note_on_c, 3, 55, 0
9, 279359, Note_on_c, 3, 43, 0
9, 279360, Note_on_c, 3, 60, 48
9, 279360, Note_on_c, 3, 48, 48
9, 279839, Note_on_c, 3, 60, 0
9, 279839, Note_on_c, 3, 48, 0
9, 279840, Note_on_c, 3, 48, 48
9, 279840, Note_on_c, 3, 36, 48
9, 280064, Note_on_c, 3, 48, 0
9, 280064, Note_on_c, 3, 36, 0
9, 280080, Note_on_c, 3, 53, 48
9, 280080, Note_on_c, 3, 41, 48
9, 280319, Note_on_c, 3, 53, 0
9, 280319, Note_on_c, 3, 41, 0
9, 280800, Note_on_c, 3, 58, 52
9, 280919, Note_on_c, 3, 58, 0
9, 280920, Note_on_c, 3, 57, 56
9, 281039, Note_on_c, 3, 57, 0
9, 281040, Note_on_c, 3, 58, 60
9, 281159, Note_on_c, 3, 58, 0
9, 281160, Note_on_c, 3, 57, 64
9, 281279, Note_on_c, 3, 57, 0
9, 281280, Note_on_c, 3, 55, 68
9, 281399, Note_on_c, 3, 55, 0
9, 281400, Note_on_c, 3, 53, 72
9, 281504, Note_on_c, 3, 53, 0
9, 281520, Note_on_c, 3, 53, 76
9, 281639, Note_on_c, 3, 53, 0
9, 281640, Note_on_c, 3, 52, 76
9, 281759, Note_on_c, 3, 52, 0
9, 281760, Note_on_c, 3, 53, 84
9, 281879, Note_on_c, 3, 53, 0
9, 281880, Note_on_c, 3, 52, 76
9, 281999, Note_on_c, 3, 52, 0
9, 282000, Note_on_c, 3, 50, 76
9, 282119, Note_on_c, 3, 50, 0
9, 282120, Note_on_c, 3, 48, 76
9, 282224, Note_on_c, 3, 48, 0
9, 282240, Note_on_c, 3, 48, 84
9, 282479, Note_on_c, 3, 48, 0
9, 282600, Note_on_c, 3, 48, 76
9, 282600, Note_on_c, 3, 64, 76
9, 282689, Note_on_c, 3, 48, 0
9, 282689, Note_on_c, 3, 64, 0
9, 282720, Note_on_c, 3, 65, 76
9, 282720, Note_on_c, 3, 50, 76
9, 282809, Note_on_c, 3, 65, 0
9, 282809, Note_on_c, 3, 50, 0
9, 282840, Note_on_c, 3, 67, 76
9, 282840, Note_on_c, 3, 52, 76
9, 282929, Note_on_c, 3, 67, 0
9, 282929, Note_on_c, 3, 52, 0
9, 282960, Note_on_c, 3, 53, 84
9, 282960, Note_on_c, 3, 57, 84
9, 283139, Note_on_c, 3, 53, 0
9, 283139, Note_on_c, 3, 57, 0
9, 283320, Note_on_c, 3, 48, 76
9, 283409, Note_on_c, 3, 48, 0
9, 283440, Note_on_c, 3, 53, 76
9, 283529, Note_on_c, 3, 53, 0
9, 283560, Note_on_c, 3, 57, 76
9, 283649, Note_on_c, 3, 57, 0
9, 283680, Note_on_c, 3, 60, 84
9, 283680, Note_on_c, 3, 48, 84
9, 283859, Note_on_c, 3, 60, 0
9, 283859, Note_on_c, 3, 48, 0
9, 284040, Note_on_c, 3, 52, 76
9, 284040, Note_on_c, 3, 48, 76
9, 284129, Note_on_c, 3, 52, 0
9, 284129, Note_on_c, 3, 48, 0
9, 284160, Note_on_c, 3, 50, 76
9, 284160, Note_on_c, 3, 53, 76
9, 284249, Note_on_c, 3, 50, 0
9, 284249, Note_on_c, 3, 53, 0
9, 284280, Note_on_c, 3, 55, 76
9, 284280, Note_on_c, 3, 52, 76
9, 284369, Note_on_c, 3, 55, 0
9, 284369, Note_on_c, 3, 52, 0
9, 284400, Note_on_c, 3, 57, 84
9, 284400, Note_on_c, 3, 53, 84
9, 287264, Note_on_c, 3, 57, 0
9, 287264, Note_on_c, 3, 53, 0
9, 287280, Note_on_c, 3, 53, 92
9, 287280, Note_on_c, 3, 41, 92
9, 287519, Note_on_c, 3, 53, 0
9, 287519, Note_on_c, 3, 41, 0
9, 288000, Note_on_c, 3, 41, 92
9, 288000, Note_on_c, 3, 53, 92
9, 288239, Note_on_c, 3, 41, 0
9, 288239, Note_on_c, 3, 53, 0
9, 288720, Note_on_c, 3, 53, 92
9, 288720, Note_on_c, 3, 41, 92
9, 288959, Note_on_c, 3, 53, 0
9, 288959, Note_on_c, 3, 41, 0
9, 289440, Note_on_c, 3, 53, 92
9, 289440, Note_on_c, 3, 41, 92
9, 289679, Note_on_c, 3, 53, 0
9, 289679, Note_on_c, 3, 41, 0
9, 289800, Note_on_c, 3, 41, 84
9, 289800, Note_on_c, 3, 53, 84
9, 289904, Note_on_c, 3, 41, 0
9, 289904, Note_on_c, 3, 53, 0
9, 289920, Note_on_c, 3, 41, 84
9, 289920, Note_on_c, 3, 53, 84
9, 290024, Note_on_c, 3, 41, 0
9, 290024, Note_on_c, 3, 53, 0
9, 290040, Note_on_c, 3, 41, 84
9, 290040, Note_on_c, 3, 53, 84
9, 290144, Note_on_c, 3, 41, 0
9, 290144, Note_on_c, 3, 53, 0
9, 290160, Note_on_c, 3, 41, 84
9, 290160, Note_on_c, 3, 53, 84
9, 290399, Note_on_c, 3, 41, 0
9, 290399, Note_on_c, 3, 53, 0
9, 290520, Note_on_c, 3, 65, 52
9, 290609, Note_on_c, 3, 65, 0
9, 290640, Note_on_c, 3, 53, 52
9, 290729, Note_on_c, 3, 53, 0
9, 290760, Note_on_c, 3, 65, 52
9, 290849, Note_on_c, 3, 65, 0
9, 290880, Note_on_c, 3, 53, 52
9, 291119, Note_on_c, 3, 53, 0
9, 291240, Note_on_c, 3, 65, 52
9, 291329, Note_on_c, 3, 65, 0
9, 291360, Note_on_c, 3, 53, 52
9, 291449, Note_on_c, 3, 53, 0
9, 291480, Note_on_c, 3, 65, 52
9, 291569, Note_on_c, 3, 65, 0
9, 291600, Note_on_c, 3, 53, 52
9, 291839, Note_on_c, 3, 53, 0
9, 291960, Note_on_c, 3, 65, 52
9, 292049, Note_on_c, 3, 65, 0
9, 292080, Note_on_c, 3, 53, 52
9, 292169, Note_on_c, 3, 53, 0
9, 292200, Note_on_c, 3, 65, 52
9, 292289, Note_on_c, 3, 65, 0
9, 292320, Note_on_c, 3, 53, 52
9, 292559, Note_on_c, 3, 53, 0
9, 292680, Note_on_c, 3, 65, 52
9, 292769, Note_on_c, 3, 65, 0
9, 292800, Note_on_c, 3, 53, 52
9, 292889, Note_on_c, 3, 53, 0
9, 292920, Note_on_c, 3, 65, 52
9, 293009, Note_on_c, 3, 65, 0
9, 293040, Note_on_c, 3, 53, 52
9, 293279, Note_on_c, 3, 53, 0
9, 295440, Note_on_c, 3, 63, 44
9, 295440, Note_on_c, 3, 66, 44
9, 295649, Note_on_c, 3, 63, 0
9, 295649, Note_on_c, 3, 66, 0
9, 295680, Note_on_c, 3, 63, 44
9, 295680, Note_on_c, 3, 66, 44
9, 295859, Note_on_c, 3, 63, 0
9, 295859, Note_on_c, 3, 66, 0
9, 295920, Note_on_c, 3, 65, 44
9, 295920, Note_on_c, 3, 61, 44
9, 296159, Note_on_c, 3, 65, 0
9, 296159, Note_on_c, 3, 61, 0
9, 296880, Note_on_c, 3, 65, 44
9, 296880, Note_on_c, 3, 61, 44
9, 297089, Note_on_c, 3, 65, 0
9, 297089, Note_on_c, 3, 61, 0
9, 297120, Note_on_c, 3, 61, 44
9, 297120, Note_on_c, 3, 65, 44
9, 297299, Note_on_c, 3, 61, 0
9, 297299, Note_on_c, 3, 65, 0
9, 297360, Note_on_c, 3, 65, 44
9, 297360, Note_on_c, 3, 61, 44
9, 298784, Note_on_c, 3, 65, 0
9, 298784, Note_on_c, 3, 61, 0
9, 298800, Note_on_c, 3, 65, 44
9, 298800, Note_on_c, 3, 58, 44
9, 300224, Note_on_c, 3, 65, 0
9, 300224, Note_on_c, 3, 58, 0
9, 300240, Note_on_c, 3, 63, 44
9, 300240, Note_on_c, 3, 66, 44
9, 301424, Note_on_c, 3, 63, 0
9, 301424, Note_on_c, 3, 66, 0
9, 301438, Control_c, 3, 11, 48
9, 301440, Note_on_c, 3, 64, 84
9, 301440, Note_on_c, 3, 67, 84
9, 301664, Note_on_c, 3, 64, 0
9, 301664, Note_on_c, 3, 67, 0
9, 301680, Note_on_c, 3, 67, 84
9, 301680, Control_c, 3, 11, 48
9, 301680, Note_on_c, 3, 64, 84
9, 301860, Control_c, 3, 11, 51
9, 302040, Control_c, 3, 11, 55
9, 302220, Control_c, 3, 11, 58
9, 302400, Control_c, 3, 11, 61
9, 302580, Control_c, 3, 11, 64
9, 302760, Control_c, 3, 11, 68
9, 302864, Note_on_c, 3, 67, 0
9, 302864, Note_on_c, 3, 64, 0
9, 302880, Note_on_c, 3, 55, 84
9, 302880, Note_on_c, 3, 52, 84
9, 302940, Control_c, 3, 11, 71
9, 303104, Note_on_c, 3, 55, 0
9, 303104, Note_on_c, 3, 52, 0
9, 303120, Control_c, 3, 11, 74
9, 303120, Note_on_c, 3, 53, 84
9, 303120, Note_on_c, 3, 56, 84
9, 303300, Control_c, 3, 11, 78
9, 303480, Control_c, 3, 11, 81
9, 303660, Control_c, 3, 11, 84
9, 303840, Control_c, 3, 11, 88
9, 304020, Control_c, 3, 11, 91
9, 304200, Control_c, 3, 11, 94
9, 304380, Control_c, 3, 11, 97
9, 304544, Note_on_c, 3, 53, 0
9, 304544, Note_on_c, 3, 56, 0
9, 304560, Note_on_c, 3, 57, 84
9, 304560, Control_c, 3, 11, 101
9, 304560, Note_on_c, 3, 53, 84
9, 304740, Control_c, 3, 11, 104
9, 304920, Control_c, 3, 11, 107
9, 305100, Control_c, 3, 11, 111
9, 305280, Control_c, 3, 11, 114
9, 305460, Control_c, 3, 11, 117
9, 305640, Control_c, 3, 11, 120
9, 305820, Control_c, 3, 11, 124
9, 305984, Note_on_c, 3, 57, 0
9, 305984, Note_on_c, 3, 53, 0
9, 306000, Control_c, 3, 11, 127
9, 306000, Note_on_c, 3, 60, 84
9, 306000, Note_on_c, 3, 57, 84
9, 306239, Note_on_c, 3, 60, 0
9, 306239, Note_on_c, 3, 57, 0
9, 306240, Note_on_c, 3, 57, 84
9, 306240, Note_on_c, 3, 53, 84
9, 306359, Note_on_c, 3, 57, 0
9, 306359, Note_on_c, 3, 53, 0
9, 306360, Note_on_c, 3, 55, 84
9, 306360, Note_on_c, 3, 58, 84
9, 306464, Note_on_c, 3, 55, 0
9, 306464, Note_on_c, 3, 58, 0
9, 306480, Note_on_c, 3, 60, 84
9, 306480, Note_on_c, 3, 57, 84
9, 306569, Note_on_c, 3, 60, 0
9, 306569, Note_on_c, 3, 57, 0
9, 306600, Note_on_c, 3, 57, 84
9, 306600, Note_on_c, 3, 53, 84
9, 306689, Note_on_c, 3, 57, 0
9, 306689, Note_on_c, 3, 53, 0
9, 306720, Note_on_c, 3, 57, 92
9, 306720, Note_on_c, 3, 60, 92
9, 306959, Note_on_c, 3, 57, 0
9, 306959, Note_on_c, 3, 60, 0
9, 306960, Note_on_c, 3, 57, 84
9, 306960, Note_on_c, 3, 53, 84
9, 307079, Note_on_c, 3, 57, 0
9, 307079, Note_on_c, 3, 53, 0
9, 307080, Note_on_c, 3, 55, 84
9, 307080, Note_on_c, 3, 58, 84
9, 307184, Note_on_c, 3, 55, 0
9, 307184, Note_on_c, 3, 58, 0
9, 307200, Note_on_c, 3, 57, 84
9, 307200, Note_on_c, 3, 60, 84
9, 307289, Note_on_c, 3, 57, 0
9, 307289, Note_on_c, 3, 60, 0
9, 307320, Note_on_c, 3, 57, 84
9, 307320, Note_on_c, 3, 53, 84
9, 307409, Note_on_c, 3, 57, 0
9, 307409, Note_on_c, 3, 53, 0
9, 307440, Note_on_c, 3, 58, 92
9, 307440, Note_on_c, 3, 61, 92
9, 307679, Note_on_c, 3, 58, 0
9, 307679, Note_on_c, 3, 61, 0
9, 307680, Note_on_c, 3, 55, 84
9, 307680, Note_on_c, 3, 58, 84
9, 307799, Note_on_c, 3, 55, 0
9, 307799, Note_on_c, 3, 58, 0
9, 307800, Note_on_c, 3, 60, 84
9, 307800, Note_on_c, 3, 57, 84
9, 307904, Note_on_c, 3, 60, 0
9, 307904, Note_on_c, 3, 57, 0
9, 307920, Note_on_c, 3, 55, 84
9, 307920, Note_on_c, 3, 58, 84
9, 308009, Note_on_c, 3, 55, 0
9, 308009, Note_on_c, 3, 58, 0
9, 308040, Note_on_c, 3, 53, 84
9, 308040, Note_on_c, 3, 57, 84
9, 308129, Note_on_c, 3, 53, 0
9, 308129, Note_on_c, 3, 57, 0
9, 308160, Note_on_c, 3, 61, 92
9, 308160, Note_on_c, 3, 58, 92
9, 308399, Note_on_c, 3, 61, 0
9, 308399, Note_on_c, 3, 58, 0
9, 308400, Note_on_c, 3, 58, 84
9, 308400, Note_on_c, 3, 55, 84
9, 308519, Note_on_c, 3, 58, 0
9, 308519, Note_on_c, 3, 55, 0
9, 308520, Note_on_c, 3, 60, 84
9, 308520, Note_on_c, 3, 57, 84
9, 308624, Note_on_c, 3, 60, 0
9, 308624, Note_on_c, 3, 57, 0
9, 308640, Note_on_c, 3, 55, 84
9, 308640, Note_on_c, 3, 58, 84
9, 308729, Note_on_c, 3, 55, 0
9, 308729, Note_on_c, 3, 58, 0
9, 308760, Note_on_c, 3, 53, 84
9, 308760, Note_on_c, 3, 57, 84
9, 308849, Note_on_c, 3, 53, 0
9, 308849, Note_on_c, 3, 57, 0
9, 308880, Note_on_c, 3, 58, 92
9, 308880, Note_on_c, 3, 61, 92
9, 309119, Note_on_c, 3, 58, 0
9, 309119, Note_on_c, 3, 61, 0
9, 309120, Note_on_c, 3, 61, 84
9, 309120, Note_on_c, 3, 58, 84
9, 309239, Note_on_c, 3, 61, 0
9, 309239, Note_on_c, 3, 58, 0
9, 309240, Note_on_c, 3, 60, 84
9, 309240, Note_on_c, 3, 57, 84
9, 309344, Note_on_c, 3, 60, 0
9, 309344, Note_on_c, 3, 57, 0
9, 309360, Note_on_c, 3, 55, 84
9, 309360, Note_on_c, 3, 58, 84
9, 309449, Note_on_c, 3, 55, 0
9, 309449, Note_on_c, 3, 58, 0
9, 309480, Note_on_c, 3, 59, 84
9, 309480, Note_on_c, 3, 56, 84
9, 309569, Note_on_c, 3, 59, 0
9, 309569, Note_on_c, 3, 56, 0
9, 309600, Note_on_c, 3, 60, 92
9, 309600, Note_on_c, 3, 57, 92
9, 309689, Note_on_c, 3, 60, 0
9, 309689, Note_on_c, 3, 57, 0
9, 309720, Note_on_c, 3, 60, 84
9, 309839, Note_on_c, 3, 60, 0
9, 309840, Note_on_c, 3, 62, 84
9, 309959, Note_on_c, 3, 62, 0
9, 309960, Note_on_c, 3, 60, 84
9, 310079, Note_on_c, 3, 60, 0
9, 310080, Note_on_c, 3, 62, 84
9, 310199, Note_on_c, 3, 62, 0
9, 310200, Note_on_c, 3, 64, 84
9, 310304, Note_on_c, 3, 64, 0
9, 310320, Note_on_c, 3, 65, 92
9, 310439, Note_on_c, 3, 65, 0
9, 310560, Note_on_c, 3, 45, 84
9, 310560, Note_on_c, 3, 57, 84
9, 310679, Note_on_c, 3, 45, 0
9, 310679, Note_on_c, 3, 57, 0
9, 310800, Note_on_c, 3, 60, 84
9, 310800, Note_on_c, 3, 48, 84
9, 310919, Note_on_c, 3, 60, 0
9, 310919, Note_on_c, 3, 48, 0
9, 311040, Note_on_c, 3, 53, 92
9, 311040, Note_on_c, 3, 41, 92
9, 311159, Note_on_c, 3, 53, 0
9, 311159, Note_on_c, 3, 41, 0
9, 311280, Note_on_c, 3, 45, 84
9, 311280, Note_on_c, 3, 57, 84
9, 311399, Note_on_c, 3, 45, 0
9, 311399, Note_on_c, 3, 57, 0
9, 311520, Note_on_c, 3, 60, 84
9, 311520, Note_on_c, 3, 48, 84
9, 311639, Note_on_c, 3, 60, 0
9, 311639, Note_on_c, 3, 48, 0
9, 311760, Note_on_c, 3, 41, 92
9, 311760, Note_on_c, 3, 53, 92
9, 311879, Note_on_c, 3, 41, 0
9, 311879, Note_on_c, 3, 53, 0
9, 312000, Note_on_c, 3, 45, 84
9, 312000, Note_on_c, 3, 57, 84
9, 312119, Note_on_c, 3, 45, 0
9, 312119, Note_on_c, 3, 57, 0
9, 312240, Note_on_c, 3, 60, 84
9, 312240, Note_on_c, 3, 48, 84
9, 312359, Note_on_c, 3, 60, 0
9, 312359, Note_on_c, 3, 48, 0
9, 312720, Note_on_c, 3, 55, 92
9, 312720, Note_on_c, 3, 58, 92
9, 313199, Note_on_c, 3, 55, 0
9, 313199, Note_on_c, 3, 58, 0
9, 315120, Control_c, 3, 11, 80
9, 315360, Note_on_c, 3, 67, 76
9, 315360, Note_on_c, 3, 58, 76
9, 315839, Note_on_c, 3, 67, 0
9, 315839, Note_on_c, 3, 58, 0
9, 315840, Note_on_c, 3, 57, 76
9, 315840, Note_on_c, 3, 65, 76
9, 316064, Note_on_c, 3, 57, 0
9, 316064, Note_on_c, 3, 65, 0
9, 316080, Control_c, 3, 11, 80
9, 316080, Note_on_c, 3, 67, 76
9, 316080, Note_on_c, 3, 58, 76
9, 316320, Control_c, 3, 11, 84
9, 316559, Note_on_c, 3, 67, 0
9, 316559, Note_on_c, 3, 58, 0
9, 316560, Note_on_c, 3, 57, 76
9, 316560, Note_on_c, 3, 65, 76
9, 316560, Control_c, 3, 11, 88
9, 316784, Note_on_c, 3, 57, 0
9, 316784, Note_on_c, 3, 65, 0
9, 316800, Note_on_c, 3, 67, 76
9, 316800, Note_on_c, 3, 58, 76
9, 316800, Control_c, 3, 11, 92
9, 317040, Control_c, 3, 11, 96
9, 317279, Note_on_c, 3, 67, 0
9, 317279, Note_on_c, 3, 58, 0
9, 317280, Note_on_c, 3, 57, 76
9, 317280, Control_c, 3, 11, 100
9, 317280, Note_on_c, 3, 65, 76
9, 317504, Note_on_c, 3, 57, 0
9, 317504, Note_on_c, 3, 65, 0
9, 317520, Control_c, 3, 11, 104
9, 317520, Note_on_c, 3, 67, 76
9, 317520, Note_on_c, 3, 58, 76
9, 317760, Control_c, 3, 11, 107
9, 317999, Note_on_c, 3, 67, 0
9, 317999, Note_on_c, 3, 58, 0
9, 318000, Control_c, 3, 11, 111
9, 318000, Note_on_c, 3, 57, 76
9, 318000, Note_on_c, 3, 65, 76
9, 318224, Note_on_c, 3, 57, 0
9, 318224, Note_on_c, 3, 65, 0
9, 318240, Note_on_c, 3, 58, 76
9, 318240, Note_on_c, 3, 67, 76
9, 318240, Control_c, 3, 11, 115
9, 318480, Control_c, 3, 11, 119
9, 318719, Note_on_c, 3, 58, 0
9, 318719, Note_on_c, 3, 67, 0
9, 318720, Note_on_c, 3, 60, 76
9, 318720, Control_c, 3, 11, 123
9, 318720, Note_on_c, 3, 69, 76
9, 318944, Note_on_c, 3, 60, 0
9, 318944, Note_on_c, 3, 69, 0
9, 318960, Note_on_c, 3, 53, 76
9, 318960, Control_c, 3, 11, 127
9, 319049, Note_on_c, 3, 53, 0
9, 319080, Note_on_c, 3, 53, 76
9, 319199, Note_on_c, 3, 53, 0
9, 319200, Note_on_c, 3, 50, 76
9, 319319, Note_on_c, 3, 50, 0
9, 319320, Note_on_c, 3, 52, 76
9, 319439, Note_on_c, 3, 52, 0
9, 319440, Note_on_c, 3, 53, 84
9, 319559, Note_on_c, 3, 53, 0
9, 319560, Note_on_c, 3, 48, 76
9, 319679, Note_on_c, 3, 48, 0
9, 319800, Note_on_c, 3, 53, 76
9, 319919, Note_on_c, 3, 53, 0
9, 319920, Note_on_c, 3, 50, 76
9, 320039, Note_on_c, 3, 50, 0
9, 320040, Note_on_c, 3, 52, 76
9, 320159, Note_on_c, 3, 52, 0
9, 320160, Note_on_c, 3, 53, 84
9, 320279, Note_on_c, 3, 53, 0
9, 320280, Note_on_c, 3, 48, 76
9, 320399, Note_on_c, 3, 48, 0
9, 320520, Note_on_c, 3, 53, 76
9, 320639, Note_on_c, 3, 53, 0
9, 320640, Note_on_c, 3, 50, 76
9, 320759, Note_on_c, 3, 50, 0
9, 320760, Note_on_c, 3, 52, 76
9, 320879, Note_on_c, 3, 52, 0
9, 320880, Note_on_c, 3, 53, 84
9, 320999, Note_on_c, 3, 53, 0
9, 321000, Note_on_c, 3, 48, 76
9, 321119, Note_on_c, 3, 48, 0
9, 321240, Note_on_c, 3, 53, 76
9, 321359, Note_on_c, 3, 53, 0
9, 321360, Note_on_c, 3, 50, 76
9, 321479, Note_on_c, 3, 50, 0
9, 321480, Note_on_c, 3, 52, 76
9, 321599, Note_on_c, 3, 52, 0
9, 321600, Note_on_c, 3, 53, 84
9, 321719, Note_on_c, 3, 53, 0
9, 321720, Note_on_c, 3, 48, 76
9, 321839, Note_on_c, 3, 48, 0
9, 321960, Note_on_c, 3, 50, 76
9, 322079, Note_on_c, 3, 50, 0
9, 322080, Note_on_c, 3, 48, 76
9, 322199, Note_on_c, 3, 48, 0
9, 322200, Note_on_c, 3, 50, 76
9, 322319, Note_on_c, 3, 50, 0
9, 322320, Note_on_c, 3, 51, 84
9, 322439, Note_on_c, 3, 51, 0
9, 322440, Note_on_c, 3, 45, 76
9, 322544, Note_on_c, 3, 45, 0
9, 322560, Note_on_c, 3, 62, 76
9, 322680, Note_on_c, 3, 58, 76
9, 322799, Note_on_c, 3, 58, 0
9, 322800, Note_on_c, 3, 57, 76
9, 322919, Note_on_c, 3, 57, 0
9, 322920, Note_on_c, 3, 58, 76
9, 323024, Note_on_c, 3, 62, 0
9, 323039, Note_on_c, 3, 58, 0
9, 323040, Note_on_c, 3, 60, 84
9, 323040, Note_on_c, 3, 64, 84
9, 323159, Note_on_c, 3, 60, 0
9, 323160, Note_on_c, 3, 55, 76
9, 323264, Note_on_c, 3, 64, 0
9, 323264, Note_on_c, 3, 55, 0
9, 323280, Note_on_c, 3, 65, 76
9, 323384, Note_on_c, 3, 65, 0
9, 323400, Note_on_c, 3, 57, 76
9, 323519, Note_on_c, 3, 57, 0
9, 323520, Note_on_c, 3, 55, 76
9, 323639, Note_on_c, 3, 55, 0
9, 323640, Note_on_c, 3, 57, 76
9, 323759, Note_on_c, 3, 57, 0
9, 323760, Note_on_c, 3, 58, 84
9, 323879, Note_on_c, 3, 58, 0
9, 323880, Note_on_c, 3, 52, 76
9, 323984, Note_on_c, 3, 52, 0
9, 324000, Note_on_c, 3, 53, 76
9, 324104, Note_on_c, 3, 53, 0
9, 324120, Note_on_c, 3, 65, 76
9, 324120, Note_on_c, 3, 53, 76
9, 324239, Note_on_c, 3, 65, 0
9, 324239, Note_on_c, 3, 53, 0
9, 324240, Note_on_c, 3, 52, 76
9, 324240, Note_on_c, 3, 64, 76
9, 324359, Note_on_c, 3, 52, 0
9, 324359, Note_on_c, 3, 64, 0
9, 324360, Note_on_c, 3, 53, 76
9, 324360, Note_on_c, 3, 65, 76
9, 324464, Note_on_c, 3, 53, 0
9, 324464, Note_on_c, 3, 65, 0
9, 324480, Note_on_c, 3, 62, 84
9, 324480, Note_on_c, 3, 50, 84
9, 324569, Note_on_c, 3, 62, 0
9, 324569, Note_on_c, 3, 50, 0
9, 324600, Note_on_c, 3, 50, 76
9, 324600, Note_on_c, 3, 62, 76
9, 324689, Note_on_c, 3, 50, 0
9, 324689, Note_on_c, 3, 62, 0
9, 324720, Note_on_c, 3, 49, 92
9, 324720, Note_on_c, 3, 61, 92
9, 325904, Note_on_c, 3, 49, 0
9, 325904, Note_on_c, 3, 61, 0
9, 325920, Note_on_c, 3, 48, 92
9, 325920, Note_on_c, 3, 60, 92
9, 326144, Note_on_c, 3, 48, 0
9, 326144, Note_on_c, 3, 60, 0
9, 326160, Note_on_c, 3, 57, 92
9, 326160, Note_on_c, 3, 53, 92
9, 326279, Note_on_c, 3, 57, 0
9, 326279, Note_on_c, 3, 53, 0
9, 326880, Note_on_c, 3, 53, 92
9, 326880, Note_on_c, 3, 57, 92
9, 326999, Note_on_c, 3, 53, 0
9, 326999, Note_on_c, 3, 57, 0
9, 327600, Note_on_c, 3, 57, 92
9, 327600, Note_on_c, 3, 53, 92
9, 327719, Note_on_c, 3, 57, 0
9, 327719, Note_on_c, 3, 53, 0
9, 328320, Note_on_c, 3, 55, 92
9, 328320, Note_on_c, 3, 48, 92
9, 328439, Note_on_c, 3, 55, 0
9, 328439, Note_on_c, 3, 48, 0
9, 328560, Note_on_c, 3, 48, 92
9, 328560, Note_on_c, 3, 55, 92
9, 328679, Note_on_c, 3, 48, 0
9, 328679, Note_on_c, 3, 55, 0
9, 328800, Note_on_c, 3, 55, 92
9, 328800, Note_on_c, 3, 48, 92
9, 328919, Note_on_c, 3, 55, 0
9, 328919, Note_on_c, 3, 48, 0
9, 329040, Note_on_c, 3, 57, 92
9, 329040, Note_on_c, 3, 53, 92
9, 329159, Note_on_c, 3, 57, 0
9, 329159, Note_on_c, 3, 53, 0
9, 329760, Note_on_c, 3, 57, 92
9, 329760, Note_on_c, 3, 53, 92
9, 329879, Note_on_c, 3, 57, 0
9, 329879, Note_on_c, 3, 53, 0
9, 330480, Note_on_c, 3, 53, 92
9, 330480, Note_on_c, 3, 57, 92
9, 330599, Note_on_c, 3, 53, 0
9, 330599, Note_on_c, 3, 57, 0
9, 331200, Note_on_c, 3, 55, 92
9, 331200, Note_on_c, 3, 48, 92
9, 331319, Note_on_c, 3, 55, 0
9, 331319, Note_on_c, 3, 48, 0
9, 331440, Note_on_c, 3, 48, 92
9, 331440, Note_on_c, 3, 55, 92
9, 331559, Note_on_c, 3, 48, 0
9, 331559, Note_on_c, 3, 55, 0
9, 331680, Note_on_c, 3, 48, 92
9, 331680, Note_on_c, 3, 55, 92
9, 331799, Note_on_c, 3, 48, 0
9, 331799, Note_on_c, 3, 55, 0
9, 332640, Note_on_c, 3, 57, 92
9, 332640, Note_on_c, 3, 53, 92
9, 332759, Note_on_c, 3, 57, 0
9, 332759, Note_on_c, 3, 53, 0
9, 332880, Note_on_c, 3, 57, 92
9, 332880, Note_on_c, 3, 53, 92
9, 332999, Note_on_c, 3, 57, 0
9, 332999, Note_on_c, 3, 53, 0
9, 333120, Note_on_c, 3, 57, 92
9, 333120, Note_on_c, 3, 53, 92
9, 333239, Note_on_c, 3, 57, 0
9, 333239, Note_on_c, 3, 53, 0
9, 334800, Note_on_c, 3, 58, 52
9, 334800, Note_on_c, 3, 55, 52
9, 335024, Note_on_c, 3, 58, 0
9, 335024, Note_on_c, 3, 55, 0
9, 335040, Note_on_c, 3, 58, 52
9, 335040, Note_on_c, 3, 55, 52
9, 335264, Note_on_c, 3, 58, 0
9, 335264, Note_on_c, 3, 55, 0
9, 335280, Note_on_c, 3, 58, 52
9, 335280, Note_on_c, 3, 55, 52
9, 335519, Note_on_c, 3, 58, 0
9, 335519, Note_on_c, 3, 55, 0
9, 336240, Note_on_c, 3, 53, 52
9, 336240, Note_on_c, 3, 57, 52
9, 336464, Note_on_c, 3, 53, 0
9, 336464, Note_on_c, 3, 57, 0
9, 336480, Note_on_c, 3, 57, 52
9, 336480, Note_on_c, 3, 53, 52
9, 336704, Note_on_c, 3, 57, 0
9, 336704, Note_on_c, 3, 53, 0
9, 336720, Note_on_c, 3, 57, 52
9, 336720, Note_on_c, 3, 53, 52
9, 336959, Note_on_c, 3, 57, 0
9, 336959, Note_on_c, 3, 53, 0
9, 337680, Note_on_c, 3, 57, 52
9, 337680, Note_on_c, 3, 53, 52
9, 337680, Control_c, 3, 11, 127
9, 337860, Control_c, 3, 11, 126
9, 337904, Note_on_c, 3, 57, 0
9, 337904, Note_on_c, 3, 53, 0
9, 337920, Note_on_c, 3, 53, 52
9, 337920, Note_on_c, 3, 57, 52
9, 338040, Control_c, 3, 11, 125
9, 338159, Note_on_c, 3, 53, 0
9, 338159, Note_on_c, 3, 57, 0
9, 338220, Control_c, 3, 11, 123
9, 338400, Control_c, 3, 11, 122
9, 338580, Control_c, 3, 11, 121
9, 338760, Control_c, 3, 11, 120
9, 338940, Control_c, 3, 11, 118
9, 339120, Note_on_c, 3, 57, 52
9, 339120, Control_c, 3, 11, 117
9, 339120, Note_on_c, 3, 53, 52
9, 339300, Control_c, 3, 11, 116
9, 339344, Note_on_c, 3, 57, 0
9, 339344, Note_on_c, 3, 53, 0
9, 339360, Note_on_c, 3, 53, 52
9, 339360, Note_on_c, 3, 57, 52
9, 339480, Control_c, 3, 11, 115
9, 339599, Note_on_c, 3, 53, 0
9, 339599, Note_on_c, 3, 57, 0
9, 339660, Control_c, 3, 11, 127
9, 339840, Note_on_c, 3, 53, 44
9, 339840, Note_on_c, 3, 57, 44
9, 340544, Note_on_c, 3, 53, 0
9, 340544, Note_on_c, 3, 57, 0
9, 340560, Note_on_c, 3, 57, 44
9, 340560, Note_on_c, 3, 53, 44
9, 341264, Note_on_c, 3, 57, 0
9, 341264, Note_on_c, 3, 53, 0
9, 341280, Note_on_c, 3, 53, 44
9, 341280, Note_on_c, 3, 57, 44
9, 341399, Note_on_c, 3, 53, 0
9, 341399, Note_on_c, 3, 57, 0
9, 341520, Note_on_c, 3, 57, 44
9, 341520, Note_on_c, 3, 53, 44
9, 341639, Note_on_c, 3, 57, 0
9, 341639, Note_on_c, 3, 53, 0
9, 341760, Note_on_c, 3, 57, 44
9, 341760, Note_on_c, 3, 53, 44
9, 341879, Note_on_c, 3, 57, 0
9, 341879, Note_on_c, 3, 53, 0
9, 342000, Note_on_c, 3, 57, 44
9, 342000, Note_on_c, 3, 53, 44
9, 342239, Note_on_c, 3, 57, 0
9, 342239, Note_on_c, 3, 53, 0
9, 342239, End_track
10, 0, Start_track
10, 0, Title_t, "French Horn in F"
10, 0, MIDI_port, 0
10, 0, Program_c, 4, 60
10, 0, Control_c, 4, 7, 104
10, 0, Control_c, 4, 10, 45
10, 0, Control_c, 4, 11, 127
10, 0, Note_on_c, 4, 60, 76
10, 0, Note_on_c, 4, 48, 76
10, 1184, Note_on_c, 4, 60, 0
10, 1184, Note_on_c, 4, 48, 0
10, 1200, Note_on_c, 4, 48, 76
10, 1200, Note_on_c, 4, 60, 76
10, 1289, Note_on_c, 4, 48, 0
10, 1289, Note_on_c, 4, 60, 0
10, 1320, Note_on_c, 4, 48, 76
10, 1320, Note_on_c, 4, 60, 76
10, 1409, Note_on_c, 4, 48, 0
10, 1409, Note_on_c, 4, 60, 0
10, 1440, Note_on_c, 4, 60, 76
10, 1440, Note_on_c, 4, 48, 76
10, 1664, Note_on_c, 4, 60, 0
10, 1664, Note_on_c, 4, 48, 0
10, 1680, Note_on_c, 4, 60, 76
10, 1680, Note_on_c, 4, 48, 76
10, 1769, Note_on_c, 4, 60, 0
10, 1769, Note_on_c, 4, 48, 0
10, 1800, Note_on_c, 4, 60, 76
10, 1800, Note_on_c, 4, 48, 76
10, 1889, Note_on_c, 4, 60, 0
10, 1889, Note_on_c, 4, 48, 0
10, 1920, Note_on_c, 4, 48, 76
10, 1920, Note_on_c, 4, 60, 76
10, 2009, Note_on_c, 4, 48, 0
10, 2009, Note_on_c, 4, 60, 0
10, 2040, Note_on_c, 4, 60, 76
10, 2040, Note_on_c, 4, 48, 76
10, 2129, Note_on_c, 4, 60, 0
10, 2129, Note_on_c, 4, 48, 0
10, 2160, Note_on_c, 4, 48, 76
10, 2160, Note_on_c, 4, 60, 76
10, 2399, Note_on_c, 4, 48, 0
10, 2399, Note_on_c, 4, 60, 0
10, 3600, Note_on_c, 4, 60, 48
10, 3600, Note_on_c, 4, 67, 48
10, 4064, Note_on_c, 4, 60, 0
10, 4064, Note_on_c, 4, 67, 0
10, 4080, Note_on_c, 4, 67, 48
10, 4080, Note_on_c, 4, 60, 48
10, 4304, Note_on_c, 4, 67, 0
10, 4304, Note_on_c, 4, 60, 0
10, 4320, Note_on_c, 4, 69, 48
10, 4320, Note_on_c, 4, 65, 48
10, 4559, Note_on_c, 4, 69, 0
10, 4559, Note_on_c, 4, 65, 0
10, 4560, Note_on_c, 4, 57, 48
10, 4560, Note_on_c, 4, 65, 48
10, 4799, Note_on_c, 4, 57, 0
10, 4799, Note_on_c, 4, 65, 0
10, 4800, Note_on_c, 4, 67, 48
10, 4800, Note_on_c, 4, 60, 48
10, 5024, Note_on_c, 4, 67, 0
10, 5024, Note_on_c, 4, 60, 0
10, 5040, Note_on_c, 4, 67, 48
10, 5040, Note_on_c, 4, 60, 48
10, 5519, Note_on_c, 4, 67, 0
10, 5519, Note_on_c, 4, 60, 0
10, 5520, Note_on_c, 4, 69, 48
10, 5520, Note_on_c, 4, 65, 48
10, 5759, Note_on_c, 4, 69, 0
10, 5759, Note_on_c, 4, 65, 0
10, 6480, Note_on_c, 4, 60, 76
10, 6480, Note_on_c, 4, 48, 76
10, 7184, Note_on_c, 4, 60, 0
10, 7184, Note_on_c, 4, 48, 0
10, 7200, Note_on_c, 4, 60, 76
10, 7200, Note_on_c, 4, 48, 76
10, 7319, Note_on_c, 4, 60, 0
10, 7319, Note_on_c, 4, 48, 0
10, 7440, Note_on_c, 4, 57, 76
10, 7440, Note_on_c, 4, 65, 76
10, 7559, Note_on_c, 4, 57, 0
10, 7559, Note_on_c, 4, 65, 0
10, 7680, Note_on_c, 4, 67, 76
10, 7680, Note_on_c, 4, 60, 76
10, 7799, Note_on_c, 4, 67, 0
10, 7799, Note_on_c, 4, 60, 0
10, 7920, Note_on_c, 4, 65, 76
10, 7920, Note_on_c, 4, 57, 76
10, 8159, Note_on_c, 4, 65, 0
10, 8159, Note_on_c, 4, 57, 0
10, 9300, Note_on_c, 4, 65, 76
10, 9300, Note_on_c, 4, 53, 76
10, 9351, Note_on_c, 4, 65, 0
10, 9351, Note_on_c, 4, 53, 0
10, 9360, Note_on_c, 4, 53, 76
10, 9360, Note_on_c, 4, 65, 76
10, 9599, Note_on_c, 4, 53, 0
10, 9599, Note_on_c, 4, 65, 0
10, 10740, Note_on_c, 4, 65, 76
10, 10740, Note_on_c, 4, 53, 76
10, 10791, Note_on_c, 4, 65, 0
10, 10791, Note_on_c, 4, 53, 0
10, 10800, Note_on_c, 4, 65, 76
10, 10800, Note_on_c, 4, 67, 76
10, 11039, Note_on_c, 4, 65, 0
10, 11039, Note_on_c, 4, 67, 0
10, 12180, Note_on_c, 4, 65, 76
10, 12180, Note_on_c, 4, 67, 76
10, 12231, Note_on_c, 4, 65, 0
10, 12231, Note_on_c, 4, 67, 0
10, 12240, Note_on_c, 4, 60, 76
10, 12240, Note_on_c, 4, 67, 76
10, 12704, Note_on_c, 4, 60, 0
10, 12704, Note_on_c, 4, 67, 0
10, 12720, Note_on_c, 4, 60, 76
10, 12720, Note_on_c, 4, 67, 76
10, 12839, Note_on_c, 4, 60, 0
10, 12839, Note_on_c, 4, 67, 0
10, 12960, Note_on_c, 4, 67, 76
10, 12960, Note_on_c, 4, 60, 76
10, 13079, Note_on_c, 4, 67, 0
10, 13079, Note_on_c, 4, 60, 0
10, 13200, Note_on_c, 4, 67, 76
10, 13200, Note_on_c, 4, 60, 76
10, 13319, Note_on_c, 4, 67, 0
10, 13319, Note_on_c, 4, 60, 0
10, 13440, Note_on_c, 4, 60, 76
10, 13440, Note_on_c, 4, 67, 76
10, 13559, Note_on_c, 4, 60, 0
10, 13559, Note_on_c, 4, 67, 0
10, 13680, Note_on_c, 4, 65, 76
10, 13680, Note_on_c, 4, 53, 76
10, 15051, Note_on_c, 4, 65, 0
10, 15051, Note_on_c, 4, 53, 0
10, 15060, Note_on_c, 4, 53, 76
10, 15060, Note_on_c, 4, 65, 76
10, 15111, Note_on_c, 4, 53, 0
10, 15111, Note_on_c, 4, 65, 0
10, 15120, Note_on_c, 4, 53, 76
10, 15120, Note_on_c, 4, 65, 76
10, 16491, Note_on_c, 4, 53, 0
10, 16491, Note_on_c, 4, 65, 0
10, 16500, Note_on_c, 4, 65, 76
10, 16500, Note_on_c, 4, 53, 76
10, 16551, Note_on_c, 4, 65, 0
10, 16551, Note_on_c, 4, 53, 0
10, 16560, Note_on_c, 4, 65, 76
10, 16560, Note_on_c, 4, 53, 76
10, 17264, Note_on_c, 4, 65, 0
10, 17264, Note_on_c, 4, 53, 0
10, 17280, Note_on_c, 4, 65, 76
10, 17280, Note_on_c, 4, 53, 76
10, 17984, Note_on_c, 4, 65, 0
10, 17984, Note_on_c, 4, 53, 0
10, 18000, Note_on_c, 4, 53, 76
10, 18000, Note_on_c, 4, 65, 76
10, 18704, Note_on_c, 4, 53, 0
10, 18704, Note_on_c, 4, 65, 0
10, 18720, Note_on_c, 4, 65, 76
10, 18720, Note_on_c, 4, 53, 76
10, 19424, Note_on_c, 4, 65, 0
10, 19424, Note_on_c, 4, 53, 0
10, 19440, Note_on_c, 4, 65, 76
10, 19440, Note_on_c, 4, 53, 76
10, 19904, Note_on_c, 4, 65, 0
10, 19904, Note_on_c, 4, 53, 0
10, 19920, Note_on_c, 4, 65, 84
10, 19920, Note_on_c, 4, 53, 84
10, 20091, Note_on_c, 4, 65, 0
10, 20091, Note_on_c, 4, 53, 0
10, 20100, Note_on_c, 4, 65, 76
10, 20100, Note_on_c, 4, 53, 76
10, 20151, Note_on_c, 4, 65, 0
10, 20151, Note_on_c, 4, 53, 0
10, 20160, Note_on_c, 4, 65, 76
10, 20160, Note_on_c, 4, 53, 76
10, 20624, Note_on_c, 4, 65, 0
10, 20624, Note_on_c, 4, 53, 0
10, 20640, Note_on_c, 4, 65, 84
10, 20640, Note_on_c, 4, 53, 84
10, 20811, Note_on_c, 4, 65, 0
10, 20811, Note_on_c, 4, 53, 0
10, 20820, Note_on_c, 4, 53, 76
10, 20820, Note_on_c, 4, 65, 76
10, 20871, Note_on_c, 4, 53, 0
10, 20871, Note_on_c, 4, 65, 0
10, 20880, Note_on_c, 4, 53, 76
10, 20880, Note_on_c, 4, 65, 76
10, 20999, Note_on_c, 4, 53, 0
10, 20999, Note_on_c, 4, 65, 0
10, 21360, Note_on_c, 4, 53, 84
10, 21360, Note_on_c, 4, 65, 84
10, 21479, Note_on_c, 4, 53, 0
10, 21479, Note_on_c, 4, 65, 0
10, 21600, Note_on_c, 4, 53, 76
10, 21600, Note_on_c, 4, 65, 76
10, 21719, Note_on_c, 4, 53, 0
10, 21719, Note_on_c, 4, 65, 0
10, 22080, Note_on_c, 4, 53, 84
10, 22080, Note_on_c, 4, 65, 84
10, 22199, Note_on_c, 4, 53, 0
10, 22199, Note_on_c, 4, 65, 0
10, 22320, Note_on_c, 4, 53, 76
10, 22320, Note_on_c, 4, 65, 76
10, 22439, Note_on_c, 4, 53, 0
10, 22439, Note_on_c, 4, 65, 0
10, 36240, Note_on_c, 4, 48, 52
10, 36240, Note_on_c, 4, 60, 52
10, 36464, Note_on_c, 4, 48, 0
10, 36464, Note_on_c, 4, 60, 0
10, 36480, Note_on_c, 4, 48, 52
10, 36480, Note_on_c, 4, 60, 52
10, 36720, Control_c, 4, 11, 112
10, 38864, Note_on_c, 4, 48, 0
10, 38864, Note_on_c, 4, 60, 0
10, 38880, Note_on_c, 4, 60, 52
10, 38880, Note_on_c, 4, 48, 52
10, 39059, Note_on_c, 4, 60, 0
10, 39059, Note_on_c, 4, 48, 0
10, 39120, Control_c, 4, 11, 64
10, 39360, Note_on_c, 4, 48, 76
10, 39360, Note_on_c, 4, 60, 76
10, 39539, Note_on_c, 4, 48, 0
10, 39539, Note_on_c, 4, 60, 0
10, 39600, Note_on_c, 4, 60, 76
10, 39600, Note_on_c, 4, 48, 76
10, 41040, Control_c, 4, 11, 64
10, 41160, Control_c, 4, 11, 69
10, 41280, Control_c, 4, 11, 75
10, 41400, Control_c, 4, 11, 80
10, 41520, Control_c, 4, 11, 85
10, 41640, Control_c, 4, 11, 90
10, 41744, Note_on_c, 4, 60, 0
10, 41744, Note_on_c, 4, 48, 0
10, 41760, Note_on_c, 4, 60, 76
10, 41760, Note_on_c, 4, 48, 76
10, 41760, Control_c, 4, 11, 96
10, 41880, Control_c, 4, 11, 101
10, 41939, Note_on_c, 4, 60, 0
10, 41939, Note_on_c, 4, 48, 0
10, 42000, Control_c, 4, 11, 106
10, 42120, Control_c, 4, 11, 111
10, 42240, Control_c, 4, 11, 117
10, 42240, Note_on_c, 4, 48, 76
10, 42240, Note_on_c, 4, 60, 76
10, 42360, Control_c, 4, 11, 122
10, 42419, Note_on_c, 4, 48, 0
10, 42419, Note_on_c, 4, 60, 0
10, 43680, Control_c, 4, 11, 127
10, 43920, Note_on_c, 4, 67, 84
10, 44099, Note_on_c, 4, 67, 0
10, 44640, Note_on_c, 4, 53, 84
10, 44640, Note_on_c, 4, 65, 84
10, 44819, Note_on_c, 4, 53, 0
10, 44819, Note_on_c, 4, 65, 0
10, 45360, Note_on_c, 4, 48, 84
10, 45360, Note_on_c, 4, 60, 84
10, 45539, Note_on_c, 4, 48, 0
10, 45539, Note_on_c, 4, 60, 0
10, 46080, Note_on_c, 4, 67, 84
10, 46259, Note_on_c, 4, 67, 0
10, 46800, Note_on_c, 4, 67, 84
10, 46979, Note_on_c, 4, 67, 0
10, 47280, Note_on_c, 4, 67, 84
10, 47459, Note_on_c, 4, 67, 0
10, 47520, Note_on_c, 4, 67, 84
10, 47699, Note_on_c, 4, 67, 0
10, 48000, Note_on_c, 4, 57, 84
10, 48000, Note_on_c, 4, 69, 84
10, 48179, Note_on_c, 4, 57, 0
10, 48179, Note_on_c, 4, 69, 0
10, 48240, Note_on_c, 4, 65, 84
10, 48240, Note_on_c, 4, 53, 84
10, 48419, Note_on_c, 4, 65, 0
10, 48419, Note_on_c, 4, 53, 0
10, 48960, Note_on_c, 4, 67, 84
10, 49139, Note_on_c, 4, 67, 0
10, 49440, Note_on_c, 4, 67, 84
10, 49619, Note_on_c, 4, 67, 0
10, 49680, Note_on_c, 4, 48, 84
10, 49680, Note_on_c, 4, 60, 84
10, 49851, Note_on_c, 4, 48, 0
10, 49851, Note_on_c, 4, 60, 0
10, 49860, Note_on_c, 4, 60, 84
10, 49860, Note_on_c, 4, 48, 84
10, 49911, Note_on_c, 4, 60, 0
10, 49911, Note_on_c, 4, 48, 0
10, 49920, Note_on_c, 4, 60, 84
10, 49920, Note_on_c, 4, 48, 84
10, 50099, Note_on_c, 4, 60, 0
10, 50099, Note_on_c, 4, 48, 0
10, 50160, Note_on_c, 4, 48, 84
10, 50160, Note_on_c, 4, 60, 84
10, 50331, Note_on_c, 4, 48, 0
10, 50331, Note_on_c, 4, 60, 0
10, 50340, Note_on_c, 4, 48, 84
10, 50340, Note_on_c, 4, 60, 84
10, 50391, Note_on_c, 4, 48, 0
10, 50391, Note_on_c, 4, 60, 0
10, 50400, Note_on_c, 4, 48, 84
10, 50400, Note_on_c, 4, 60, 84
10, 50579, Note_on_c, 4, 48, 0
10, 50579, Note_on_c, 4, 60, 0
10, 50640, Note_on_c, 4, 48, 84
10, 50640, Note_on_c, 4, 60, 84
10, 50811, Note_on_c, 4, 48, 0
10, 50811, Note_on_c, 4, 60, 0
10, 50820, Note_on_c, 4, 60, 84
10, 50820, Note_on_c, 4, 48, 84
10, 50871, Note_on_c, 4, 60, 0
10, 50871, Note_on_c, 4, 48, 0
10, 50880, Note_on_c, 4, 60, 84
10, 50880, Note_on_c, 4, 48, 84
10, 51059, Note_on_c, 4, 60, 0
10, 51059, Note_on_c, 4, 48, 0
10, 51120, Note_on_c, 4, 60, 84
10, 51120, Note_on_c, 4, 48, 84
10, 51291, Note_on_c, 4, 60, 0
10, 51291, Note_on_c, 4, 48, 0
10, 51300, Note_on_c, 4, 48, 84
10, 51300, Note_on_c, 4, 60, 84
10, 51351, Note_on_c, 4, 48, 0
10, 51351, Note_on_c, 4, 60, 0
10, 51360, Note_on_c, 4, 60, 84
10, 51360, Note_on_c, 4, 48, 84
10, 51599, Note_on_c, 4, 60, 0
10, 51599, Note_on_c, 4, 48, 0
10, 53760, Note_on_c, 4, 67, 52
10, 55424, Note_on_c, 4, 67, 0
10, 55440, Note_on_c, 4, 65, 52
10, 55440, Note_on_c, 4, 69, 52
10, 55679, Note_on_c, 4, 65, 0
10, 55679, Note_on_c, 4, 69, 0
10, 56880, Note_on_c, 4, 60, 84
10, 56880, Note_on_c, 4, 48, 84
10, 57051, Note_on_c, 4, 60, 0
10, 57051, Note_on_c, 4, 48, 0
10, 57060, Note_on_c, 4, 60, 84
10, 57060, Note_on_c, 4, 48, 84
10, 57111, Note_on_c, 4, 60, 0
10, 57111, Note_on_c, 4, 48, 0
10, 57120, Note_on_c, 4, 60, 84
10, 57120, Note_on_c, 4, 48, 84
10, 57299, Note_on_c, 4, 60, 0
10, 57299, Note_on_c, 4, 48, 0
10, 57360, Note_on_c, 4, 48, 84
10, 57360, Note_on_c, 4, 60, 84
10, 57531, Note_on_c, 4, 48, 0
10, 57531, Note_on_c, 4, 60, 0
10, 57540, Note_on_c, 4, 60, 84
10, 57540, Note_on_c, 4, 48, 84
10, 57591, Note_on_c, 4, 60, 0
10, 57591, Note_on_c, 4, 48, 0
10, 57600, Note_on_c, 4, 48, 84
10, 57600, Note_on_c, 4, 60, 84
10, 57779, Note_on_c, 4, 48, 0
10, 57779, Note_on_c, 4, 60, 0
10, 57840, Note_on_c, 4, 48, 84
10, 57840, Note_on_c, 4, 60, 84
10, 58011, Note_on_c, 4, 48, 0
10, 58011, Note_on_c, 4, 60, 0
10, 58020, Note_on_c, 4, 48, 84
10, 58020, Note_on_c, 4, 60, 84
10, 58071, Note_on_c, 4, 48, 0
10, 58071, Note_on_c, 4, 60, 0
10, 58080, Note_on_c, 4, 48, 84
10, 58080, Note_on_c, 4, 60, 84
10, 58259, Note_on_c, 4, 48, 0
10, 58259, Note_on_c, 4, 60, 0
10, 58320, Note_on_c, 4, 60, 84
10, 58320, Note_on_c, 4, 48, 84
10, 58491, Note_on_c, 4, 60, 0
10, 58491, Note_on_c, 4, 48, 0
10, 58500, Note_on_c, 4, 48, 84
10, 58500, Note_on_c, 4, 60, 84
10, 58551, Note_on_c, 4, 48, 0
10, 58551, Note_on_c, 4, 60, 0
10, 58560, Note_on_c, 4, 48, 84
10, 58560, Note_on_c, 4, 60, 84
10, 58739, Note_on_c, 4, 48, 0
10, 58739, Note_on_c, 4, 60, 0
10, 59520, Note_on_c, 4, 67, 52
10, 62624, Note_on_c, 4, 67, 0
10, 62640, Note_on_c, 4, 65, 52
10, 62640, Note_on_c, 4, 69, 52
10, 62879, Note_on_c, 4, 65, 0
10, 62879, Note_on_c, 4, 69, 0
10, 65520, Note_on_c, 4, 48, 76
10, 65520, Note_on_c, 4, 60, 76
10, 65699, Note_on_c, 4, 48, 0
10, 65699, Note_on_c, 4, 60, 0
10, 65760, Note_on_c, 4, 60, 84
10, 65760, Note_on_c, 4, 48, 84
10, 66104, Note_on_c, 4, 60, 0
10, 66104, Note_on_c, 4, 48, 0
10, 66120, Note_on_c, 4, 60, 76
10, 66120, Note_on_c, 4, 48, 76
10, 66224, Note_on_c, 4, 60, 0
10, 66224, Note_on_c, 4, 48, 0
10, 66240, Note_on_c, 4, 67, 84
10, 66479, Note_on_c, 4, 67, 0
10, 66600, Note_on_c, 4, 67, 76
10, 66689, Note_on_c, 4, 67, 0
10, 66720, Note_on_c, 4, 67, 76
10, 66809, Note_on_c, 4, 67, 0
10, 66840, Note_on_c, 4, 67, 76
10, 66929, Note_on_c, 4, 67, 0
10, 66960, Note_on_c, 4, 60, 84
10, 66960, Note_on_c, 4, 48, 84
10, 67139, Note_on_c, 4, 60, 0
10, 67139, Note_on_c, 4, 48, 0
10, 67320, Note_on_c, 4, 60, 76
10, 67320, Note_on_c, 4, 48, 76
10, 67409, Note_on_c, 4, 60, 0
10, 67409, Note_on_c, 4, 48, 0
10, 67440, Note_on_c, 4, 60, 76
10, 67440, Note_on_c, 4, 48, 76
10, 67529, Note_on_c, 4, 60, 0
10, 67529, Note_on_c, 4, 48, 0
10, 67560, Note_on_c, 4, 48, 76
10, 67560, Note_on_c, 4, 60, 76
10, 67649, Note_on_c, 4, 48, 0
10, 67649, Note_on_c, 4, 60, 0
10, 67680, Note_on_c, 4, 67, 84
10, 67859, Note_on_c, 4, 67, 0
10, 68040, Note_on_c, 4, 67, 76
10, 68129, Note_on_c, 4, 67, 0
10, 68160, Note_on_c, 4, 67, 76
10, 68249, Note_on_c, 4, 67, 0
10, 68280, Note_on_c, 4, 67, 76
10, 68369, Note_on_c, 4, 67, 0
10, 68400, Note_on_c, 4, 67, 84
10, 68400, Note_on_c, 4, 60, 84
10, 71264, Note_on_c, 4, 67, 0
10, 71264, Note_on_c, 4, 60, 0
10, 71280, Note_on_c, 4, 48, 92
10, 71280, Note_on_c, 4, 60, 92
10, 71519, Note_on_c, 4, 48, 0
10, 71519, Note_on_c, 4, 60, 0
10, 72000, Note_on_c, 4, 60, 92
10, 72000, Note_on_c, 4, 48, 92
10, 72239, Note_on_c, 4, 60, 0
10, 72239, Note_on_c, 4, 48, 0
10, 72720, Note_on_c, 4, 60, 92
10, 72720, Note_on_c, 4, 48, 92
10, 72959, Note_on_c, 4, 60, 0
10, 72959, Note_on_c, 4, 48, 0
10, 73440, Note_on_c, 4, 60, 92
10, 73440, Note_on_c, 4, 48, 92
10, 73679, Note_on_c, 4, 60, 0
10, 73679, Note_on_c, 4, 48, 0
10, 73800, Note_on_c, 4, 60, 84
10, 73800, Note_on_c, 4, 48, 84
10, 73904, Note_on_c, 4, 60, 0
10, 73904, Note_on_c, 4, 48, 0
10, 73920, Note_on_c, 4, 60, 84
10, 73920, Note_on_c, 4, 48, 84
10, 74024, Note_on_c, 4, 60, 0
10, 74024, Note_on_c, 4, 48, 0
10, 74040, Note_on_c, 4, 48, 84
10, 74040, Note_on_c, 4, 60, 84
10, 74144, Note_on_c, 4, 48, 0
10, 74144, Note_on_c, 4, 60, 0
10, 74160, Note_on_c, 4, 60, 76
10, 74160, Note_on_c, 4, 48, 76
10, 75344, Note_on_c, 4, 60, 0
10, 75344, Note_on_c, 4, 48, 0
10, 75360, Note_on_c, 4, 48, 76
10, 75360, Note_on_c, 4, 60, 76
10, 75449, Note_on_c, 4, 48, 0
10, 75449, Note_on_c, 4, 60, 0
10, 75480, Note_on_c, 4, 60, 76
10, 75480, Note_on_c, 4, 48, 76
10, 75569, Note_on_c, 4, 60, 0
10, 75569, Note_on_c, 4, 48, 0
10, 75600, Note_on_c, 4, 60, 76
10, 75600, Note_on_c, 4, 48, 76
10, 75824, Note_on_c, 4, 60, 0
10, 75824, Note_on_c, 4, 48, 0
10, 75840, Note_on_c, 4, 60, 76
10, 75840, Note_on_c, 4, 48, 76
10, 75929, Note_on_c, 4, 60, 0
10, 75929, Note_on_c, 4, 48, 0
10, 75960, Note_on_c, 4, 60, 76
10, 75960, Note_on_c, 4, 48, 76
10, 76049, Note_on_c, 4, 60, 0
10, 76049, Note_on_c, 4, 48, 0
10, 76080, Note_on_c, 4, 60, 76
10, 76080, Note_on_c, 4, 48, 76
10, 76169, Note_on_c, 4, 60, 0
10, 76169, Note_on_c, 4, 48, 0
10, 76200, Note_on_c, 4, 48, 76
10, 76200, Note_on_c, 4, 60, 76
10, 76289, Note_on_c, 4, 48, 0
10, 76289, Note_on_c, 4, 60, 0
10, 76320, Note_on_c, 4, 60, 76
10, 76320, Note_on_c, 4, 48, 76
10, 76559, Note_on_c, 4, 60, 0
10, 76559, Note_on_c, 4, 48, 0
10, 77760, Note_on_c, 4, 60, 48
10, 77760, Note_on_c, 4, 67, 48
10, 78224, Note_on_c, 4, 60, 0
10, 78224, Note_on_c, 4, 67, 0
10, 78240, Note_on_c, 4, 67, 48
10, 78240, Note_on_c, 4, 60, 48
10, 78464, Note_on_c, 4, 67, 0
10, 78464, Note_on_c, 4, 60, 0
10, 78480, Note_on_c, 4, 69, 48
10, 78480, Note_on_c, 4, 65, 48
10, 78719, Note_on_c, 4, 69, 0
10, 78719, Note_on_c, 4, 65, 0
10, 78720, Note_on_c, 4, 57, 48
10, 78720, Note_on_c, 4, 65, 48
10, 78959, Note_on_c, 4, 57, 0
10, 78959, Note_on_c, 4, 65, 0
10, 78960, Note_on_c, 4, 67, 48
10, 78960, Note_on_c, 4, 60, 48
10, 79184, Note_on_c, 4, 67, 0
10, 79184, Note_on_c, 4, 60, 0
10, 79200, Note_on_c, 4, 67, 48
10, 79200, Note_on_c, 4, 60, 48
10, 79679, Note_on_c, 4, 67, 0
10, 79679, Note_on_c, 4, 60, 0
10, 79680, Note_on_c, 4, 65, 48
10, 79680, Note_on_c, 4, 69, 48
10, 79919, Note_on_c, 4, 65, 0
10, 79919, Note_on_c, 4, 69, 0
10, 80640, Note_on_c, 4, 60, 76
10, 80640, Note_on_c, 4, 48, 76
10, 81344, Note_on_c, 4, 60, 0
10, 81344, Note_on_c, 4, 48, 0
10, 81360, Note_on_c, 4, 60, 76
10, 81360, Note_on_c, 4, 48, 76
10, 81479, Note_on_c, 4, 60, 0
10, 81479, Note_on_c, 4, 48, 0
10, 81600, Note_on_c, 4, 65, 76
10, 81600, Note_on_c, 4, 57, 76
10, 81719, Note_on_c, 4, 65, 0
10, 81719, Note_on_c, 4, 57, 0
10, 81840, Note_on_c, 4, 67, 76
10, 81840, Note_on_c, 4, 60, 76
10, 81959, Note_on_c, 4, 67, 0
10, 81959, Note_on_c, 4, 60, 0
10, 82080, Note_on_c, 4, 57, 76
10, 82080, Note_on_c, 4, 65, 76
10, 82319, Note_on_c, 4, 57, 0
10, 82319, Note_on_c, 4, 65, 0
10, 83460, Note_on_c, 4, 65, 76
10, 83460, Note_on_c, 4, 53, 76
10, 83511, Note_on_c, 4, 65, 0
10, 83511, Note_on_c, 4, 53, 0
10, 83520, Note_on_c, 4, 65, 76
10, 83520, Note_on_c, 4, 53, 76
10, 83759, Note_on_c, 4, 65, 0
10, 83759, Note_on_c, 4, 53, 0
10, 84900, Note_on_c, 4, 53, 76
10, 84900, Note_on_c, 4, 65, 76
10, 84951, Note_on_c, 4, 53, 0
10, 84951, Note_on_c, 4, 65, 0
10, 84960, Note_on_c, 4, 65, 76
10, 84960, Note_on_c, 4, 67, 76
10, 85199, Note_on_c, 4, 65, 0
10, 85199, Note_on_c, 4, 67, 0
10, 86340, Note_on_c, 4, 65, 76
10, 86340, Note_on_c, 4, 67, 76
10, 86391, Note_on_c, 4, 65, 0
10, 86391, Note_on_c, 4, 67, 0
10, 86400, Note_on_c, 4, 60, 76
10, 86400, Note_on_c, 4, 67, 76
10, 86864, Note_on_c, 4, 60, 0
10, 86864, Note_on_c, 4, 67, 0
10, 86880, Note_on_c, 4, 60, 76
10, 86880, Note_on_c, 4, 67, 76
10, 86999, Note_on_c, 4, 60, 0
10, 86999, Note_on_c, 4, 67, 0
10, 87120, Note_on_c, 4, 60, 76
10, 87120, Note_on_c, 4, 67, 76
10, 87239, Note_on_c, 4, 60, 0
10, 87239, Note_on_c, 4, 67, 0
10, 87360, Note_on_c, 4, 67, 76
10, 87360, Note_on_c, 4, 60, 76
10, 87479, Note_on_c, 4, 67, 0
10, 87479, Note_on_c, 4, 60, 0
10, 87600, Note_on_c, 4, 60, 76
10, 87600, Note_on_c, 4, 67, 76
10, 87719, Note_on_c, 4, 60, 0
10, 87719, Note_on_c, 4, 67, 0
10, 87840, Note_on_c, 4, 53, 76
10, 87840, Note_on_c, 4, 65, 76
10, 89211, Note_on_c, 4, 53, 0
10, 89211, Note_on_c, 4, 65, 0
10, 89220, Note_on_c, 4, 65, 76
10, 89220, Note_on_c, 4, 53, 76
10, 89271, Note_on_c, 4, 65, 0
10, 89271, Note_on_c, 4, 53, 0
10, 89280, Note_on_c, 4, 65, 76
10, 89280, Note_on_c, 4, 53, 76
10, 90651, Note_on_c, 4, 65, 0
10, 90651, Note_on_c, 4, 53, 0
10, 90660, Note_on_c, 4, 53, 76
10, 90660, Note_on_c, 4, 65, 76
10, 90711, Note_on_c, 4, 53, 0
10, 90711, Note_on_c, 4, 65, 0
10, 90720, Note_on_c, 4, 53, 76
10, 90720, Note_on_c, 4, 65, 76
10, 91424, Note_on_c, 4, 53, 0
10, 91424, Note_on_c, 4, 65, 0
10, 91440, Note_on_c, 4, 65, 76
10, 91440, Note_on_c, 4, 53, 76
10, 92144, Note_on_c, 4, 65, 0
10, 92144, Note_on_c, 4, 53, 0
10, 92160, Note_on_c, 4, 65, 76
10, 92160, Note_on_c, 4, 53, 76
10, 92864, Note_on_c, 4, 65, 0
10, 92864, Note_on_c, 4, 53, 0
10, 92880, Note_on_c, 4, 65, 76
10, 92880, Note_on_c, 4, 53, 76
10, 93584, Note_on_c, 4, 65, 0
10, 93584, Note_on_c, 4, 53, 0
10, 93600, Note_on_c, 4, 65, 76
10, 93600, Note_on_c, 4, 53, 76
10, 94064, Note_on_c, 4, 65, 0
10, 94064, Note_on_c, 4, 53, 0
10, 94080, Note_on_c, 4, 65, 84
10, 94080, Note_on_c, 4, 53, 84
10, 94251, Note_on_c, 4, 65, 0
10, 94251, Note_on_c, 4, 53, 0
10, 94260, Note_on_c, 4, 53, 76
10, 94260, Note_on_c, 4, 65, 76
10, 94311, Note_on_c, 4, 53, 0
10, 94311, Note_on_c, 4, 65, 0
10, 94320, Note_on_c, 4, 53, 76
10, 94320, Note_on_c, 4, 65, 76
10, 94784, Note_on_c, 4, 53, 0
10, 94784, Note_on_c, 4, 65, 0
10, 94800, Note_on_c, 4, 65, 84
10, 94800, Note_on_c, 4, 53, 84
10, 94971, Note_on_c, 4, 65, 0
10, 94971, Note_on_c, 4, 53, 0
10, 94980, Note_on_c, 4, 53, 76
10, 94980, Note_on_c, 4, 65, 76
10, 95031, Note_on_c, 4, 53, 0
10, 95031, Note_on_c, 4, 65, 0
10, 95040, Note_on_c, 4, 65, 76
10, 95040, Note_on_c, 4, 53, 76
10, 95159, Note_on_c, 4, 65, 0
10, 95159, Note_on_c, 4, 53, 0
10, 95520, Note_on_c, 4, 53, 84
10, 95520, Note_on_c, 4, 65, 84
10, 95639, Note_on_c, 4, 53, 0
10, 95639, Note_on_c, 4, 65, 0
10, 95760, Note_on_c, 4, 65, 76
10, 95760, Note_on_c, 4, 53, 76
10, 95879, Note_on_c, 4, 65, 0
10, 95879, Note_on_c, 4, 53, 0
10, 96240, Note_on_c, 4, 65, 84
10, 96240, Note_on_c, 4, 53, 84
10, 96359, Note_on_c, 4, 65, 0
10, 96359, Note_on_c, 4, 53, 0
10, 96480, Note_on_c, 4, 65, 76
10, 96480, Note_on_c, 4, 53, 76
10, 96599, Note_on_c, 4, 65, 0
10, 96599, Note_on_c, 4, 53, 0
10, 110400, Note_on_c, 4, 48, 52
10, 110400, Note_on_c, 4, 60, 52
10, 110624, Note_on_c, 4, 48, 0
10, 110624, Note_on_c, 4, 60, 0
10, 110640, Note_on_c, 4, 48, 52
10, 110640, Note_on_c, 4, 60, 52
10, 110880, Control_c, 4, 11, 112
10, 113024, Note_on_c, 4, 48, 0
10, 113024, Note_on_c, 4, 60, 0
10, 113040, Note_on_c, 4, 60, 52
10, 113040, Note_on_c, 4, 48, 52
10, 113219, Note_on_c, 4, 60, 0
10, 113219, Note_on_c, 4, 48, 0
10, 113280, Control_c, 4, 11, 64
10, 113520, Note_on_c, 4, 60, 76
10, 113520, Note_on_c, 4, 48, 76
10, 113699, Note_on_c, 4, 60, 0
10, 113699, Note_on_c, 4, 48, 0
10, 113760, Note_on_c, 4, 48, 76
10, 113760, Note_on_c, 4, 60, 76
10, 115200, Control_c, 4, 11, 64
10, 115320, Control_c, 4, 11, 69
10, 115440, Control_c, 4, 11, 75
10, 115560, Control_c, 4, 11, 80
10, 115680, Control_c, 4, 11, 85
10, 115800, Control_c, 4, 11, 90
10, 115904, Note_on_c, 4, 48, 0
10, 115904, Note_on_c, 4, 60, 0
10, 115920, Note_on_c, 4, 60, 76
10, 115920, Control_c, 4, 11, 96
10, 115920, Note_on_c, 4, 48, 76
10, 116040, Control_c, 4, 11, 101
10, 116099, Note_on_c, 4, 60, 0
10, 116099, Note_on_c, 4, 48, 0
10, 116160, Control_c, 4, 11, 106
10, 116280, Control_c, 4, 11, 111
10, 116400, Note_on_c, 4, 48, 76
10, 116400, Note_on_c, 4, 60, 76
10, 116400, Control_c, 4, 11, 117
10, 116520, Control_c, 4, 11, 122
10, 116579, Note_on_c, 4, 48, 0
10, 116579, Note_on_c, 4, 60, 0
10, 117840, Control_c, 4, 11, 127
10, 118080, Note_on_c, 4, 67, 84
10, 118259, Note_on_c, 4, 67, 0
10, 118800, Note_on_c, 4, 65, 84
10, 118800, Note_on_c, 4, 53, 84
10, 118979, Note_on_c, 4, 65, 0
10, 118979, Note_on_c, 4, 53, 0
10, 119520, Note_on_c, 4, 48, 84
10, 119520, Note_on_c, 4, 60, 84
10, 119699, Note_on_c, 4, 48, 0
10, 119699, Note_on_c, 4, 60, 0
10, 120240, Note_on_c, 4, 67, 84
10, 120419, Note_on_c, 4, 67, 0
10, 120960, Note_on_c, 4, 67, 84
10, 121139, Note_on_c, 4, 67, 0
10, 121440, Note_on_c, 4, 67, 84
10, 121619, Note_on_c, 4, 67, 0
10, 121680, Note_on_c, 4, 67, 84
10, 121859, Note_on_c, 4, 67, 0
10, 122160, Note_on_c, 4, 57, 84
10, 122160, Note_on_c, 4, 69, 84
10, 122339, Note_on_c, 4, 57, 0
10, 122339, Note_on_c, 4, 69, 0
10, 122400, Note_on_c, 4, 53, 84
10, 122400, Note_on_c, 4, 65, 84
10, 122579, Note_on_c, 4, 53, 0
10, 122579, Note_on_c, 4, 65, 0
10, 123120, Note_on_c, 4, 67, 84
10, 123299, Note_on_c, 4, 67, 0
10, 123600, Note_on_c, 4, 67, 84
10, 123779, Note_on_c, 4, 67, 0
10, 123840, Note_on_c, 4, 48, 84
10, 123840, Note_on_c, 4, 60, 84
10, 124011, Note_on_c, 4, 48, 0
10, 124011, Note_on_c, 4, 60, 0
10, 124020, Note_on_c, 4, 48, 84
10, 124020, Note_on_c, 4, 60, 84
10, 124071, Note_on_c, 4, 48, 0
10, 124071, Note_on_c, 4, 60, 0
10, 124080, Note_on_c, 4, 48, 84
10, 124080, Note_on_c, 4, 60, 84
10, 124259, Note_on_c, 4, 48, 0
10, 124259, Note_on_c, 4, 60, 0
10, 124320, Note_on_c, 4, 60, 84
10, 124320, Note_on_c, 4, 48, 84
10, 124491, Note_on_c, 4, 60, 0
10, 124491, Note_on_c, 4, 48, 0
10, 124500, Note_on_c, 4, 48, 84
10, 124500, Note_on_c, 4, 60, 84
10, 124551, Note_on_c, 4, 48, 0
10, 124551, Note_on_c, 4, 60, 0
10, 124560, Note_on_c, 4, 60, 84
10, 124560, Note_on_c, 4, 48, 84
10, 124739, Note_on_c, 4, 60, 0
10, 124739, Note_on_c, 4, 48, 0
10, 124800, Note_on_c, 4, 60, 84
10, 124800, Note_on_c, 4, 48, 84
10, 124971, Note_on_c, 4, 60, 0
10, 124971, Note_on_c, 4, 48, 0
10, 124980, Note_on_c, 4, 60, 84
10, 124980, Note_on_c, 4, 48, 84
10, 125031, Note_on_c, 4, 60, 0
10, 125031, Note_on_c, 4, 48, 0
10, 125040, Note_on_c, 4, 48, 84
10, 125040, Note_on_c, 4, 60, 84
10, 125219, Note_on_c, 4, 48, 0
10, 125219, Note_on_c, 4, 60, 0
10, 125280, Note_on_c, 4, 60, 84
10, 125280, Note_on_c, 4, 48, 84
10, 125451, Note_on_c, 4, 60, 0
10, 125451, Note_on_c, 4, 48, 0
10, 125460, Note_on_c, 4, 60, 84
10, 125460, Note_on_c, 4, 48, 84
10, 125511, Note_on_c, 4, 60, 0
10, 125511, Note_on_c, 4, 48, 0
10, 125520, Note_on_c, 4, 48, 84
10, 125520, Note_on_c, 4, 60, 84
10, 125759, Note_on_c, 4, 48, 0
10, 125759, Note_on_c, 4, 60, 0
10, 127920, Note_on_c, 4, 67, 52
10, 129584, Note_on_c, 4, 67, 0
10, 129600, Note_on_c, 4, 65, 52
10, 129600, Note_on_c, 4, 69, 52
10, 129839, Note_on_c, 4, 65, 0
10, 129839, Note_on_c, 4, 69, 0
10, 131040, Note_on_c, 4, 48, 84
10, 131040, Note_on_c, 4, 60, 84
10, 131211, Note_on_c, 4, 48, 0
10, 131211, Note_on_c, 4, 60, 0
10, 131220, Note_on_c, 4, 48, 84
10, 131220, Note_on_c, 4, 60, 84
10, 131271, Note_on_c, 4, 48, 0
10, 131271, Note_on_c, 4, 60, 0
10, 131280, Note_on_c, 4, 48, 84
10, 131280, Note_on_c, 4, 60, 84
10, 131459, Note_on_c, 4, 48, 0
10, 131459, Note_on_c, 4, 60, 0
10, 131520, Note_on_c, 4, 60, 84
10, 131520, Note_on_c, 4, 48, 84
10, 131691, Note_on_c, 4, 60, 0
10, 131691, Note_on_c, 4, 48, 0
10, 131700, Note_on_c, 4, 60, 84
10, 131700, Note_on_c, 4, 48, 84
10, 131751, Note_on_c, 4, 60, 0
10, 131751, Note_on_c, 4, 48, 0
10, 131760, Note_on_c, 4, 60, 84
10, 131760, Note_on_c, 4, 48, 84
10, 131939, Note_on_c, 4, 60, 0
10, 131939, Note_on_c, 4, 48, 0
10, 132000, Note_on_c, 4, 48, 84
10, 132000, Note_on_c, 4, 60, 84
10, 132171, Note_on_c, 4, 48, 0
10, 132171, Note_on_c, 4, 60, 0
10, 132180, Note_on_c, 4, 60, 84
10, 132180, Note_on_c, 4, 48, 84
10, 132231, Note_on_c, 4, 60, 0
10, 132231, Note_on_c, 4, 48, 0
10, 132240, Note_on_c, 4, 60, 84
10, 132240, Note_on_c, 4, 48, 84
10, 132419, Note_on_c, 4, 60, 0
10, 132419, Note_on_c, 4, 48, 0
10, 132480, Note_on_c, 4, 60, 84
10, 132480, Note_on_c, 4, 48, 84
10, 132651, Note_on_c, 4, 60, 0
10, 132651, Note_on_c, 4, 48, 0
10, 132660, Note_on_c, 4, 60, 84
10, 132660, Note_on_c, 4, 48, 84
10, 132711, Note_on_c, 4, 60, 0
10, 132711, Note_on_c, 4, 48, 0
10, 132720, Note_on_c, 4, 48, 84
10, 132720, Note_on_c, 4, 60, 84
10, 132899, Note_on_c, 4, 48, 0
10, 132899, Note_on_c, 4, 60, 0
10, 133680, Note_on_c, 4, 67, 52
10, 136784, Note_on_c, 4, 67, 0
10, 136800, Note_on_c, 4, 69, 52
10, 136800, Note_on_c, 4, 65, 52
10, 137039, Note_on_c, 4, 69, 0
10, 137039, Note_on_c, 4, 65, 0
10, 139680, Note_on_c, 4, 48, 76
10, 139680, Note_on_c, 4, 60, 76
10, 139859, Note_on_c, 4, 48, 0
10, 139859, Note_on_c, 4, 60, 0
10, 139920, Note_on_c, 4, 48, 84
10, 139920, Note_on_c, 4, 60, 84
10, 140264, Note_on_c, 4, 48, 0
10, 140264, Note_on_c, 4, 60, 0
10, 140280, Note_on_c, 4, 48, 76
10, 140280, Note_on_c, 4, 60, 76
10, 140384, Note_on_c, 4, 48, 0
10, 140384, Note_on_c, 4, 60, 0
10, 140400, Note_on_c, 4, 67, 84
10, 140639, Note_on_c, 4, 67, 0
10, 140760, Note_on_c, 4, 67, 76
10, 140849, Note_on_c, 4, 67, 0
10, 140880, Note_on_c, 4, 67, 76
10, 140969, Note_on_c, 4, 67, 0
10, 141000, Note_on_c, 4, 67, 76
10, 141089, Note_on_c, 4, 67, 0
10, 141120, Note_on_c, 4, 48, 84
10, 141120, Note_on_c, 4, 60, 84
10, 141299, Note_on_c, 4, 48, 0
10, 141299, Note_on_c, 4, 60, 0
10, 141480, Note_on_c, 4, 48, 76
10, 141480, Note_on_c, 4, 60, 76
10, 141569, Note_on_c, 4, 48, 0
10, 141569, Note_on_c, 4, 60, 0
10, 141600, Note_on_c, 4, 48, 76
10, 141600, Note_on_c, 4, 60, 76
10, 141689, Note_on_c, 4, 48, 0
10, 141689, Note_on_c, 4, 60, 0
10, 141720, Note_on_c, 4, 60, 76
10, 141720, Note_on_c, 4, 48, 76
10, 141809, Note_on_c, 4, 60, 0
10, 141809, Note_on_c, 4, 48, 0
10, 141840, Note_on_c, 4, 67, 84
10, 142019, Note_on_c, 4, 67, 0
10, 142200, Note_on_c, 4, 67, 76
10, 142289, Note_on_c, 4, 67, 0
10, 142320, Note_on_c, 4, 67, 76
10, 142409, Note_on_c, 4, 67, 0
10, 142440, Note_on_c, 4, 67, 76
10, 142529, Note_on_c, 4, 67, 0
10, 142560, Note_on_c, 4, 60, 84
10, 142560, Note_on_c, 4, 67, 84
10, 145424, Note_on_c, 4, 60, 0
10, 145424, Note_on_c, 4, 67, 0
10, 145440, Note_on_c, 4, 48, 92
10, 145440, Note_on_c, 4, 60, 92
10, 145679, Note_on_c, 4, 48, 0
10, 145679, Note_on_c, 4, 60, 0
10, 146160, Note_on_c, 4, 48, 92
10, 146160, Note_on_c, 4, 60, 92
10, 146399, Note_on_c, 4, 48, 0
10, 146399, Note_on_c, 4, 60, 0
10, 146880, Note_on_c, 4, 60, 92
10, 146880, Note_on_c, 4, 48, 92
10, 147119, Note_on_c, 4, 60, 0
10, 147119, Note_on_c, 4, 48, 0
10, 147600, Note_on_c, 4, 60, 92
10, 147600, Note_on_c, 4, 48, 92
10, 147839, Note_on_c, 4, 60, 0
10, 147839, Note_on_c, 4, 48, 0
10, 147960, Note_on_c, 4, 60, 84
10, 147960, Note_on_c, 4, 48, 84
10, 148064, Note_on_c, 4, 60, 0
10, 148064, Note_on_c, 4, 48, 0
10, 148080, Note_on_c, 4, 48, 84
10, 148080, Note_on_c, 4, 60, 84
10, 148184, Note_on_c, 4, 48, 0
10, 148184, Note_on_c, 4, 60, 0
10, 148200, Note_on_c, 4, 60, 84
10, 148200, Note_on_c, 4, 48, 84
10, 148304, Note_on_c, 4, 60, 0
10, 148304, Note_on_c, 4, 48, 0
10, 148320, Note_on_c, 4, 60, 84
10, 148320, Note_on_c, 4, 48, 84
10, 148559, Note_on_c, 4, 60, 0
10, 148559, Note_on_c, 4, 48, 0
10, 154080, Note_on_c, 4, 67, 84
10, 154080, Note_on_c, 4, 60, 84
10, 156944, Note_on_c, 4, 67, 0
10, 156944, Note_on_c, 4, 60, 0
10, 156960, Note_on_c, 4, 60, 84
10, 156960, Note_on_c, 4, 48, 84
10, 157139, Note_on_c, 4, 60, 0
10, 157139, Note_on_c, 4, 48, 0
10, 162720, Note_on_c, 4, 53, 84
10, 162720, Note_on_c, 4, 65, 84
10, 165584, Note_on_c, 4, 53, 0
10, 165584, Note_on_c, 4, 65, 0
10, 171360, Note_on_c, 4, 69, 84
10, 171360, Note_on_c, 4, 57, 84
10, 174224, Note_on_c, 4, 69, 0
10, 174224, Note_on_c, 4, 57, 0
10, 174240, Note_on_c, 4, 69, 84
10, 174240, Note_on_c, 4, 57, 84
10, 174479, Note_on_c, 4, 69, 0
10, 174479, Note_on_c, 4, 57, 0
10, 174960, Note_on_c, 4, 69, 92
10, 174960, Note_on_c, 4, 57, 92
10, 175199, Note_on_c, 4, 69, 0
10, 175199, Note_on_c, 4, 57, 0
10, 175320, Note_on_c, 4, 57, 84
10, 175320, Note_on_c, 4, 69, 84
10, 175424, Note_on_c, 4, 57, 0
10, 175424, Note_on_c, 4, 69, 0
10, 175440, Note_on_c, 4, 57, 84
10, 175440, Note_on_c, 4, 69, 84
10, 175544, Note_on_c, 4, 57, 0
10, 175544, Note_on_c, 4, 69, 0
10, 175560, Note_on_c, 4, 69, 84
10, 175560, Note_on_c, 4, 57, 84
10, 175664, Note_on_c, 4, 69, 0
10, 175664, Note_on_c, 4, 57, 0
10, 175680, Note_on_c, 4, 69, 84
10, 175680, Note_on_c, 4, 57, 84
10, 175919, Note_on_c, 4, 69, 0
10, 175919, Note_on_c, 4, 57, 0
10, 176400, Note_on_c, 4, 69, 92
10, 176400, Note_on_c, 4, 57, 92
10, 176639, Note_on_c, 4, 69, 0
10, 176639, Note_on_c, 4, 57, 0
10, 176760, Note_on_c, 4, 57, 84
10, 176760, Note_on_c, 4, 69, 84
10, 176864, Note_on_c, 4, 57, 0
10, 176864, Note_on_c, 4, 69, 0
10, 176880, Note_on_c, 4, 69, 84
10, 176880, Note_on_c, 4, 57, 84
10, 176984, Note_on_c, 4, 69, 0
10, 176984, Note_on_c, 4, 57, 0
10, 177000, Note_on_c, 4, 69, 84
10, 177000, Note_on_c, 4, 57, 84
10, 177104, Note_on_c, 4, 69, 0
10, 177104, Note_on_c, 4, 57, 0
10, 177120, Note_on_c, 4, 69, 84
10, 177120, Note_on_c, 4, 57, 84
10, 177359, Note_on_c, 4, 69, 0
10, 177359, Note_on_c, 4, 57, 0
10, 183840, Note_on_c, 4, 67, 92
10, 184319, Note_on_c, 4, 67, 0
10, 185280, Note_on_c, 4, 67, 92
10, 185280, Note_on_c, 4, 69, 92
10, 185759, Note_on_c, 4, 67, 0
10, 185759, Note_on_c, 4, 69, 0
10, 186000, Note_on_c, 4, 71, 92
10, 186000, Note_on_c, 4, 67, 92
10, 186449, Note_on_c, 4, 71, 0
10, 186449, Note_on_c, 4, 67, 0
10, 186480, Note_on_c, 4, 72, 84
10, 186480, Note_on_c, 4, 67, 84
10, 186704, Note_on_c, 4, 72, 0
10, 186704, Note_on_c, 4, 67, 0
10, 186720, Note_on_c, 4, 67, 92
10, 186720, Note_on_c, 4, 65, 92
10, 187169, Note_on_c, 4, 67, 0
10, 187169, Note_on_c, 4, 65, 0
10, 187200, Note_on_c, 4, 67, 84
10, 187424, Note_on_c, 4, 67, 0
10, 187440, Note_on_c, 4, 64, 92
10, 187889, Note_on_c, 4, 64, 0
10, 187920, Note_on_c, 4, 65, 84
10, 188144, Note_on_c, 4, 65, 0
10, 188160, Note_on_c, 4, 60, 92
10, 188160, Note_on_c, 4, 48, 92
10, 188384, Note_on_c, 4, 60, 0
10, 188384, Note_on_c, 4, 48, 0
10, 188400, Note_on_c, 4, 72, 84
10, 188744, Note_on_c, 4, 72, 0
10, 188760, Note_on_c, 4, 65, 84
10, 188760, Note_on_c, 4, 53, 84
10, 188864, Note_on_c, 4, 65, 0
10, 188864, Note_on_c, 4, 53, 0
10, 188880, Note_on_c, 4, 65, 84
10, 188880, Note_on_c, 4, 53, 84
10, 188984, Note_on_c, 4, 65, 0
10, 188984, Note_on_c, 4, 53, 0
10, 189000, Note_on_c, 4, 53, 84
10, 189000, Note_on_c, 4, 65, 84
10, 189104, Note_on_c, 4, 53, 0
10, 189104, Note_on_c, 4, 65, 0
10, 189120, Note_on_c, 4, 53, 84
10, 189120, Note_on_c, 4, 65, 84
10, 189224, Note_on_c, 4, 53, 0
10, 189224, Note_on_c, 4, 65, 0
10, 189240, Note_on_c, 4, 53, 84
10, 189240, Note_on_c, 4, 65, 84
10, 189344, Note_on_c, 4, 53, 0
10, 189344, Note_on_c, 4, 65, 0
10, 189360, Note_on_c, 4, 53, 84
10, 189360, Note_on_c, 4, 65, 84
10, 189584, Note_on_c, 4, 53, 0
10, 189584, Note_on_c, 4, 65, 0
10, 189600, Note_on_c, 4, 53, 92
10, 189600, Note_on_c, 4, 65, 92
10, 190049, Note_on_c, 4, 53, 0
10, 190049, Note_on_c, 4, 65, 0
10, 190080, Note_on_c, 4, 53, 84
10, 190080, Note_on_c, 4, 65, 84
10, 190184, Note_on_c, 4, 53, 0
10, 190184, Note_on_c, 4, 65, 0
10, 190200, Note_on_c, 4, 65, 84
10, 190200, Note_on_c, 4, 53, 84
10, 190304, Note_on_c, 4, 65, 0
10, 190304, Note_on_c, 4, 53, 0
10, 190320, Note_on_c, 4, 53, 84
10, 190320, Note_on_c, 4, 65, 84
10, 190424, Note_on_c, 4, 53, 0
10, 190424, Note_on_c, 4, 65, 0
10, 190440, Note_on_c, 4, 65, 84
10, 190440, Note_on_c, 4, 53, 84
10, 190544, Note_on_c, 4, 65, 0
10, 190544, Note_on_c, 4, 53, 0
10, 190560, Note_on_c, 4, 65, 84
10, 190560, Note_on_c, 4, 53, 84
10, 190664, Note_on_c, 4, 65, 0
10, 190664, Note_on_c, 4, 53, 0
10, 190680, Note_on_c, 4, 65, 84
10, 190680, Note_on_c, 4, 53, 84
10, 190784, Note_on_c, 4, 65, 0
10, 190784, Note_on_c, 4, 53, 0
10, 190800, Note_on_c, 4, 65, 84
10, 190800, Note_on_c, 4, 53, 84
10, 191024, Note_on_c, 4, 65, 0
10, 191024, Note_on_c, 4, 53, 0
10, 191040, Note_on_c, 4, 53, 92
10, 191040, Note_on_c, 4, 65, 92
10, 191519, Note_on_c, 4, 53, 0
10, 191519, Note_on_c, 4, 65, 0
10, 191760, Note_on_c, 4, 65, 92
10, 191760, Note_on_c, 4, 67, 92
10, 192209, Note_on_c, 4, 65, 0
10, 192209, Note_on_c, 4, 67, 0
10, 192240, Note_on_c, 4, 60, 84
10, 192240, Note_on_c, 4, 67, 84
10, 192464, Note_on_c, 4, 60, 0
10, 192464, Note_on_c, 4, 67, 0
10, 192480, Note_on_c, 4, 60, 92
10, 192480, Note_on_c, 4, 67, 92
10, 192929, Note_on_c, 4, 60, 0
10, 192929, Note_on_c, 4, 67, 0
10, 192960, Note_on_c, 4, 65, 84
10, 192960, Note_on_c, 4, 68, 84
10, 193184, Note_on_c, 4, 65, 0
10, 193184, Note_on_c, 4, 68, 0
10, 193200, Note_on_c, 4, 68, 92
10, 193649, Note_on_c, 4, 68, 0
10, 193680, Note_on_c, 4, 68, 84
10, 193904, Note_on_c, 4, 68, 0
10, 193920, Note_on_c, 4, 68, 92
10, 194369, Note_on_c, 4, 68, 0
10, 194400, Note_on_c, 4, 53, 84
10, 194400, Note_on_c, 4, 65, 84
10, 194519, Note_on_c, 4, 53, 0
10, 194519, Note_on_c, 4, 65, 0
10, 194640, Note_on_c, 4, 53, 92
10, 194640, Note_on_c, 4, 65, 92
10, 195119, Note_on_c, 4, 53, 0
10, 195119, Note_on_c, 4, 65, 0
10, 195360, Note_on_c, 4, 53, 92
10, 195360, Note_on_c, 4, 65, 92
10, 195839, Note_on_c, 4, 53, 0
10, 195839, Note_on_c, 4, 65, 0
10, 196080, Note_on_c, 4, 53, 92
10, 196080, Note_on_c, 4, 65, 92
10, 196559, Note_on_c, 4, 53, 0
10, 196559, Note_on_c, 4, 65, 0
10, 196800, Note_on_c, 4, 53, 92
10, 196800, Note_on_c, 4, 65, 92
10, 197249, Note_on_c, 4, 53, 0
10, 197249, Note_on_c, 4, 65, 0
10, 197280, Note_on_c, 4, 53, 84
10, 197280, Note_on_c, 4, 65, 84
10, 197399, Note_on_c, 4, 53, 0
10, 197399, Note_on_c, 4, 65, 0
10, 197520, Note_on_c, 4, 65, 92
10, 197520, Note_on_c, 4, 53, 92
10, 197999, Note_on_c, 4, 65, 0
10, 197999, Note_on_c, 4, 53, 0
10, 198240, Note_on_c, 4, 53, 92
10, 198240, Note_on_c, 4, 65, 92
10, 198719, Note_on_c, 4, 53, 0
10, 198719, Note_on_c, 4, 65, 0
10, 198960, Note_on_c, 4, 65, 92
10, 198960, Note_on_c, 4, 53, 92
10, 199439, Note_on_c, 4, 65, 0
10, 199439, Note_on_c, 4, 53, 0
10, 199680, Note_on_c, 4, 65, 92
10, 199680, Note_on_c, 4, 53, 92
10, 200129, Note_on_c, 4, 65, 0
10, 200129, Note_on_c, 4, 53, 0
10, 200160, Note_on_c, 4, 65, 84
10, 200160, Note_on_c, 4, 53, 84
10, 200279, Note_on_c, 4, 65, 0
10, 200279, Note_on_c, 4, 53, 0
10, 200400, Note_on_c, 4, 68, 92
10, 200400, Note_on_c, 4, 60, 92
10, 200879, Note_on_c, 4, 68, 0
10, 200879, Note_on_c, 4, 60, 0
10, 201120, Note_on_c, 4, 60, 92
10, 201120, Note_on_c, 4, 68, 92
10, 201599, Note_on_c, 4, 60, 0
10, 201599, Note_on_c, 4, 68, 0
10, 201840, Note_on_c, 4, 60, 92
10, 201840, Note_on_c, 4, 68, 92
10, 202319, Note_on_c, 4, 60, 0
10, 202319, Note_on_c, 4, 68, 0
10, 202560, Note_on_c, 4, 60, 92
10, 202560, Note_on_c, 4, 68, 92
10, 203009, Note_on_c, 4, 60, 0
10, 203009, Note_on_c, 4, 68, 0
10, 203040, Note_on_c, 4, 65, 84
10, 203040, Note_on_c, 4, 53, 84
10, 203159, Note_on_c, 4, 65, 0
10, 203159, Note_on_c, 4, 53, 0
10, 203280, Note_on_c, 4, 60, 92
10, 203280, Note_on_c, 4, 68, 92
10, 204449, Note_on_c, 4, 60, 0
10, 204449, Note_on_c, 4, 68, 0
10, 204480, Note_on_c, 4, 65, 84
10, 204480, Note_on_c, 4, 53, 84
10, 204599, Note_on_c, 4, 65, 0
10, 204599, Note_on_c, 4, 53, 0
10, 204720, Note_on_c, 4, 68, 92
10, 204720, Note_on_c, 4, 60, 92
10, 205889, Note_on_c, 4, 68, 0
10, 205889, Note_on_c, 4, 60, 0
10, 205920, Note_on_c, 4, 68, 92
10, 205920, Note_on_c, 4, 60, 92
10, 206009, Note_on_c, 4, 68, 0
10, 206009, Note_on_c, 4, 60, 0
10, 206160, Note_on_c, 4, 68, 84
10, 206160, Note_on_c, 4, 60, 84
10, 206249, Note_on_c, 4, 68, 0
10, 206249, Note_on_c, 4, 60, 0
10, 206640, Note_on_c, 4, 69, 92
10, 206729, Note_on_c, 4, 69, 0
10, 206880, Note_on_c, 4, 69, 84
10, 206969, Note_on_c, 4, 69, 0
10, 207360, Note_on_c, 4, 70, 92
10, 207360, Note_on_c, 4, 67, 92
10, 207449, Note_on_c, 4, 70, 0
10, 207449, Note_on_c, 4, 67, 0
10, 207600, Note_on_c, 4, 70, 84
10, 207600, Note_on_c, 4, 67, 84
10, 207689, Note_on_c, 4, 70, 0
10, 207689, Note_on_c, 4, 67, 0
10, 208080, Note_on_c, 4, 70, 92
10, 208080, Note_on_c, 4, 67, 92
10, 208169, Note_on_c, 4, 70, 0
10, 208169, Note_on_c, 4, 67, 0
10, 208320, Note_on_c, 4, 67, 84
10, 208320, Note_on_c, 4, 70, 84
10, 208409, Note_on_c, 4, 67, 0
10, 208409, Note_on_c, 4, 70, 0
10, 208800, Note_on_c, 4, 67, 88
10, 208800, Note_on_c, 4, 60, 88
10, 208889, Note_on_c, 4, 67, 0
10, 208889, Note_on_c, 4, 60, 0
10, 209040, Note_on_c, 4, 67, 88
10, 209040, Note_on_c, 4, 60, 88
10, 210119, Note_on_c, 4, 67, 0
10, 210119, Note_on_c, 4, 60, 0
10, 210120, Note_on_c, 4, 69, 88
10, 210120, Note_on_c, 4, 65, 88
10, 210224, Note_on_c, 4, 69, 0
10, 210224, Note_on_c, 4, 65, 0
10, 210240, Note_on_c, 4, 69, 92
10, 210240, Note_on_c, 4, 65, 92
10, 211424, Note_on_c, 4, 69, 0
10, 211424, Note_on_c, 4, 65, 0
10, 211440, Note_on_c, 4, 65, 92
10, 211440, Note_on_c, 4, 69, 92
10, 211664, Note_on_c, 4, 65, 0
10, 211664, Note_on_c, 4, 69, 0
10, 211680, Note_on_c, 4, 70, 92
10, 211680, Note_on_c, 4, 67, 92
10, 212144, Note_on_c, 4, 70, 0
10, 212144, Note_on_c, 4, 67, 0
10, 212160, Note_on_c, 4, 69, 92
10, 212160, Note_on_c, 4, 65, 92
10, 212384, Note_on_c, 4, 69, 0
10, 212384, Note_on_c, 4, 65, 0
10, 212400, Note_on_c, 4, 67, 92
10, 212400, Note_on_c, 4, 60, 92
10, 213104, Note_on_c, 4, 67, 0
10, 213104, Note_on_c, 4, 60, 0
10, 213120, Note_on_c, 4, 60, 92
10, 213120, Note_on_c, 4, 67, 92
10, 214304, Note_on_c, 4, 60, 0
10, 214304, Note_on_c, 4, 67, 0
10, 214320, Note_on_c, 4, 67, 92
10, 214320, Note_on_c, 4, 60, 92
10, 214544, Note_on_c, 4, 67, 0
10, 214544, Note_on_c, 4, 60, 0
10, 214560, Note_on_c, 4, 69, 92
10, 214560, Note_on_c, 4, 65, 92
10, 215024, Note_on_c, 4, 69, 0
10, 215024, Note_on_c, 4, 65, 0
10, 215040, Note_on_c, 4, 67, 92
10, 215040, Note_on_c, 4, 60, 92
10, 215264, Note_on_c, 4, 67, 0
10, 215264, Note_on_c, 4, 60, 0
10, 215280, Note_on_c, 4, 69, 92
10, 215280, Note_on_c, 4, 65, 92
10, 215399, Note_on_c, 4, 69, 0
10, 215399, Note_on_c, 4, 65, 0
10, 215520, Note_on_c, 4, 48, 48
10, 215520, Note_on_c, 4, 60, 48
10, 215729, Note_on_c, 4, 48, 0
10, 215729, Note_on_c, 4, 60, 0
10, 215760, Note_on_c, 4, 60, 48
10, 215760, Note_on_c, 4, 48, 48
10, 215969, Note_on_c, 4, 60, 0
10, 215969, Note_on_c, 4, 48, 0
10, 216000, Note_on_c, 4, 60, 48
10, 216000, Note_on_c, 4, 48, 48
10, 216959, Note_on_c, 4, 60, 0
10, 216959, Note_on_c, 4, 48, 0
10, 216960, Note_on_c, 4, 65, 48
10, 216960, Note_on_c, 4, 53, 48
10, 217199, Note_on_c, 4, 65, 0
10, 217199, Note_on_c, 4, 53, 0
10, 217200, Note_on_c, 4, 57, 48
10, 217200, Note_on_c, 4, 69, 48
10, 217424, Note_on_c, 4, 57, 0
10, 217424, Note_on_c, 4, 69, 0
10, 217440, Note_on_c, 4, 72, 48
10, 217440, Note_on_c, 4, 60, 48
10, 218159, Note_on_c, 4, 72, 0
10, 218159, Note_on_c, 4, 60, 0
10, 218160, Note_on_c, 4, 72, 76
10, 218160, Note_on_c, 4, 60, 76
10, 218399, Note_on_c, 4, 72, 0
10, 218399, Note_on_c, 4, 60, 0
10, 218880, Note_on_c, 4, 60, 48
10, 218880, Note_on_c, 4, 48, 48
10, 219824, Note_on_c, 4, 60, 0
10, 219824, Note_on_c, 4, 48, 0
10, 219840, Note_on_c, 4, 60, 48
10, 219840, Note_on_c, 4, 48, 48
10, 220064, Note_on_c, 4, 60, 0
10, 220064, Note_on_c, 4, 48, 0
10, 220080, Note_on_c, 4, 48, 48
10, 220080, Note_on_c, 4, 60, 48
10, 220304, Note_on_c, 4, 48, 0
10, 220304, Note_on_c, 4, 60, 0
10, 220320, Note_on_c, 4, 60, 48
10, 220320, Note_on_c, 4, 48, 48
10, 220784, Note_on_c, 4, 60, 0
10, 220784, Note_on_c, 4, 48, 0
10, 220800, Note_on_c, 4, 60, 48
10, 220800, Note_on_c, 4, 48, 48
10, 221024, Note_on_c, 4, 60, 0
10, 221024, Note_on_c, 4, 48, 0
10, 221040, Note_on_c, 4, 60, 48
10, 221040, Note_on_c, 4, 48, 48
10, 221519, Note_on_c, 4, 60, 0
10, 221519, Note_on_c, 4, 48, 0
10, 221520, Note_on_c, 4, 65, 48
10, 221520, Note_on_c, 4, 53, 48
10, 221759, Note_on_c, 4, 65, 0
10, 221759, Note_on_c, 4, 53, 0
10, 222300, Control_c, 4, 11, 92
10, 222480, Note_on_c, 4, 48, 76
10, 222480, Control_c, 4, 11, 96
10, 222480, Note_on_c, 4, 60, 76
10, 222660, Control_c, 4, 11, 100
10, 222840, Control_c, 4, 11, 104
10, 223020, Control_c, 4, 11, 107
10, 223200, Control_c, 4, 11, 111
10, 223380, Control_c, 4, 11, 115
10, 223439, Note_on_c, 4, 48, 0
10, 223439, Note_on_c, 4, 60, 0
10, 223560, Control_c, 4, 11, 119
10, 223740, Control_c, 4, 11, 123
10, 223920, Note_on_c, 4, 65, 76
10, 223920, Control_c, 4, 11, 127
10, 223920, Note_on_c, 4, 53, 76
10, 224159, Note_on_c, 4, 65, 0
10, 224159, Note_on_c, 4, 53, 0
10, 225300, Note_on_c, 4, 65, 76
10, 225300, Note_on_c, 4, 53, 76
10, 225351, Note_on_c, 4, 65, 0
10, 225351, Note_on_c, 4, 53, 0
10, 225360, Note_on_c, 4, 65, 76
10, 225360, Note_on_c, 4, 53, 76
10, 225599, Note_on_c, 4, 65, 0
10, 225599, Note_on_c, 4, 53, 0
10, 226740, Note_on_c, 4, 65, 76
10, 226740, Note_on_c, 4, 67, 76
10, 226791, Note_on_c, 4, 65, 0
10, 226791, Note_on_c, 4, 67, 0
10, 226800, Note_on_c, 4, 65, 84
10, 226800, Note_on_c, 4, 67, 84
10, 228224, Note_on_c, 4, 65, 0
10, 228224, Note_on_c, 4, 67, 0
10, 228240, Note_on_c, 4, 67, 84
10, 228240, Note_on_c, 4, 60, 84
10, 228839, Note_on_c, 4, 67, 0
10, 228839, Note_on_c, 4, 60, 0
10, 228960, Note_on_c, 4, 60, 84
10, 228960, Note_on_c, 4, 67, 84
10, 229079, Note_on_c, 4, 60, 0
10, 229079, Note_on_c, 4, 67, 0
10, 229200, Note_on_c, 4, 67, 84
10, 229200, Note_on_c, 4, 60, 84
10, 229319, Note_on_c, 4, 67, 0
10, 229319, Note_on_c, 4, 60, 0
10, 229440, Note_on_c, 4, 60, 84
10, 229440, Note_on_c, 4, 67, 84
10, 229559, Note_on_c, 4, 60, 0
10, 229559, Note_on_c, 4, 67, 0
10, 229680, Note_on_c, 4, 65, 84
10, 229680, Note_on_c, 4, 53, 84
10, 229784, Note_on_c, 4, 65, 0
10, 229784, Note_on_c, 4, 53, 0
10, 229800, Note_on_c, 4, 65, 84
10, 229800, Note_on_c, 4, 53, 84
10, 229904, Note_on_c, 4, 65, 0
10, 229904, Note_on_c, 4, 53, 0
10, 229920, Note_on_c, 4, 65, 84
10, 229920, Note_on_c, 4, 53, 84
10, 230024, Note_on_c, 4, 65, 0
10, 230024, Note_on_c, 4, 53, 0
10, 230040, Note_on_c, 4, 65, 84
10, 230040, Note_on_c, 4, 53, 84
10, 230144, Note_on_c, 4, 65, 0
10, 230144, Note_on_c, 4, 53, 0
10, 230160, Note_on_c, 4, 53, 84
10, 230160, Note_on_c, 4, 65, 84
10, 230264, Note_on_c, 4, 53, 0
10, 230264, Note_on_c, 4, 65, 0
10, 230280, Note_on_c, 4, 65, 84
10, 230280, Note_on_c, 4, 53, 84
10, 230384, Note_on_c, 4, 65, 0
10, 230384, Note_on_c, 4, 53, 0
10, 230400, Note_on_c, 4, 65, 84
10, 230400, Note_on_c, 4, 53, 84
10, 231104, Note_on_c, 4, 65, 0
10, 231104, Note_on_c, 4, 53, 0
10, 231120, Note_on_c, 4, 65, 84
10, 231120, Note_on_c, 4, 53, 84
10, 231224, Note_on_c, 4, 65, 0
10, 231224, Note_on_c, 4, 53, 0
10, 231240, Note_on_c, 4, 53, 84
10, 231240, Note_on_c, 4, 65, 84
10, 231344, Note_on_c, 4, 53, 0
10, 231344, Note_on_c, 4, 65, 0
10, 231360, Note_on_c, 4, 53, 84
10, 231360, Note_on_c, 4, 65, 84
10, 231464, Note_on_c, 4, 53, 0
10, 231464, Note_on_c, 4, 65, 0
10, 231480, Note_on_c, 4, 65, 84
10, 231480, Note_on_c, 4, 53, 84
10, 231584, Note_on_c, 4, 65, 0
10, 231584, Note_on_c, 4, 53, 0
10, 231600, Note_on_c, 4, 65, 84
10, 231600, Note_on_c, 4, 53, 84
10, 231704, Note_on_c, 4, 65, 0
10, 231704, Note_on_c, 4, 53, 0
10, 231720, Note_on_c, 4, 65, 84
10, 231720, Note_on_c, 4, 53, 84
10, 231824, Note_on_c, 4, 65, 0
10, 231824, Note_on_c, 4, 53, 0
10, 231840, Note_on_c, 4, 53, 84
10, 231840, Note_on_c, 4, 65, 84
10, 232544, Note_on_c, 4, 53, 0
10, 232544, Note_on_c, 4, 65, 0
10, 232560, Note_on_c, 4, 65, 84
10, 232560, Note_on_c, 4, 53, 84
10, 232664, Note_on_c, 4, 65, 0
10, 232664, Note_on_c, 4, 53, 0
10, 232680, Note_on_c, 4, 65, 84
10, 232680, Note_on_c, 4, 53, 84
10, 232784, Note_on_c, 4, 65, 0
10, 232784, Note_on_c, 4, 53, 0
10, 232800, Note_on_c, 4, 65, 84
10, 232800, Note_on_c, 4, 53, 84
10, 232904, Note_on_c, 4, 65, 0
10, 232904, Note_on_c, 4, 53, 0
10, 232920, Note_on_c, 4, 53, 84
10, 232920, Note_on_c, 4, 65, 84
10, 233024, Note_on_c, 4, 53, 0
10, 233024, Note_on_c, 4, 65, 0
10, 233040, Note_on_c, 4, 53, 84
10, 233040, Note_on_c, 4, 65, 84
10, 233144, Note_on_c, 4, 53, 0
10, 233144, Note_on_c, 4, 65, 0
10, 233160, Note_on_c, 4, 65, 84
10, 233160, Note_on_c, 4, 53, 84
10, 233264, Note_on_c, 4, 65, 0
10, 233264, Note_on_c, 4, 53, 0
10, 233280, Note_on_c, 4, 53, 84
10, 233280, Note_on_c, 4, 65, 84
10, 233984, Note_on_c, 4, 53, 0
10, 233984, Note_on_c, 4, 65, 0
10, 234000, Note_on_c, 4, 65, 84
10, 234000, Note_on_c, 4, 53, 84
10, 234824, Note_on_c, 4, 65, 0
10, 234824, Note_on_c, 4, 53, 0
10, 234840, Note_on_c, 4, 65, 84
10, 234840, Note_on_c, 4, 53, 84
10, 234944, Note_on_c, 4, 65, 0
10, 234944, Note_on_c, 4, 53, 0
10, 234960, Note_on_c, 4, 65, 84
10, 234960, Note_on_c, 4, 53, 84
10, 235064, Note_on_c, 4, 65, 0
10, 235064, Note_on_c, 4, 53, 0
10, 235080, Note_on_c, 4, 65, 84
10, 235080, Note_on_c, 4, 53, 84
10, 235184, Note_on_c, 4, 65, 0
10, 235184, Note_on_c, 4, 53, 0
10, 235200, Note_on_c, 4, 65, 84
10, 235200, Note_on_c, 4, 53, 84
10, 235304, Note_on_c, 4, 65, 0
10, 235304, Note_on_c, 4, 53, 0
10, 235320, Note_on_c, 4, 65, 84
10, 235320, Note_on_c, 4, 53, 84
10, 235424, Note_on_c, 4, 65, 0
10, 235424, Note_on_c, 4, 53, 0
10, 235440, Note_on_c, 4, 65, 84
10, 235440, Note_on_c, 4, 53, 84
10, 235904, Note_on_c, 4, 65, 0
10, 235904, Note_on_c, 4, 53, 0
10, 235920, Note_on_c, 4, 53, 92
10, 235920, Note_on_c, 4, 65, 92
10, 236084, Note_on_c, 4, 53, 0
10, 236084, Note_on_c, 4, 65, 0
10, 236100, Note_on_c, 4, 65, 84
10, 236100, Note_on_c, 4, 53, 84
10, 236151, Note_on_c, 4, 65, 0
10, 236151, Note_on_c, 4, 53, 0
10, 236160, Note_on_c, 4, 65, 84
10, 236160, Note_on_c, 4, 53, 84
10, 236624, Note_on_c, 4, 65, 0
10, 236624, Note_on_c, 4, 53, 0
10, 236640, Note_on_c, 4, 65, 92
10, 236640, Note_on_c, 4, 53, 92
10, 236804, Note_on_c, 4, 65, 0
10, 236804, Note_on_c, 4, 53, 0
10, 236820, Note_on_c, 4, 53, 84
10, 236820, Note_on_c, 4, 65, 84
10, 236871, Note_on_c, 4, 53, 0
10, 236871, Note_on_c, 4, 65, 0
10, 236880, Note_on_c, 4, 65, 84
10, 236880, Note_on_c, 4, 53, 84
10, 236999, Note_on_c, 4, 65, 0
10, 236999, Note_on_c, 4, 53, 0
10, 237360, Note_on_c, 4, 65, 92
10, 237360, Note_on_c, 4, 53, 92
10, 237479, Note_on_c, 4, 65, 0
10, 237479, Note_on_c, 4, 53, 0
10, 237600, Note_on_c, 4, 65, 84
10, 237600, Note_on_c, 4, 53, 84
10, 237719, Note_on_c, 4, 65, 0
10, 237719, Note_on_c, 4, 53, 0
10, 238080, Note_on_c, 4, 65, 92
10, 238080, Note_on_c, 4, 53, 92
10, 238199, Note_on_c, 4, 65, 0
10, 238199, Note_on_c, 4, 53, 0
10, 238320, Note_on_c, 4, 53, 84
10, 238320, Note_on_c, 4, 65, 84
10, 238439, Note_on_c, 4, 53, 0
10, 238439, Note_on_c, 4, 65, 0
10, 240480, Note_on_c, 4, 53, 52
10, 240480, Note_on_c, 4, 41, 52
10, 240599, Note_on_c, 4, 53, 0
10, 240599, Note_on_c, 4, 41, 0
10, 240960, Note_on_c, 4, 53, 52
10, 240960, Note_on_c, 4, 41, 52
10, 241079, Note_on_c, 4, 53, 0
10, 241079, Note_on_c, 4, 41, 0
10, 241200, Note_on_c, 4, 53, 52
10, 241200, Note_on_c, 4, 41, 52
10, 241439, Note_on_c, 4, 53, 0
10, 241439, Note_on_c, 4, 41, 0
10, 252240, Note_on_c, 4, 53, 52
10, 252240, Note_on_c, 4, 65, 52
10, 252464, Note_on_c, 4, 53, 0
10, 252464, Note_on_c, 4, 65, 0
10, 252480, Note_on_c, 4, 65, 52
10, 252480, Note_on_c, 4, 53, 52
10, 252720, Control_c, 4, 11, 112
10, 254864, Note_on_c, 4, 65, 0
10, 254864, Note_on_c, 4, 53, 0
10, 254880, Note_on_c, 4, 65, 52
10, 254880, Note_on_c, 4, 53, 52
10, 255059, Note_on_c, 4, 65, 0
10, 255059, Note_on_c, 4, 53, 0
10, 255120, Control_c, 4, 11, 48
10, 255360, Note_on_c, 4, 65, 84
10, 255360, Note_on_c, 4, 53, 84
10, 255539, Note_on_c, 4, 65, 0
10, 255539, Note_on_c, 4, 53, 0
10, 255600, Note_on_c, 4, 65, 84
10, 255600, Note_on_c, 4, 53, 84
10, 257040, Control_c, 4, 11, 48
10, 257280, Control_c, 4, 11, 51
10, 257520, Control_c, 4, 11, 55
10, 257744, Note_on_c, 4, 65, 0
10, 257744, Note_on_c, 4, 53, 0
10, 257760, Note_on_c, 4, 65, 84
10, 257760, Note_on_c, 4, 53, 84
10, 257760, Control_c, 4, 11, 58
10, 257939, Note_on_c, 4, 65, 0
10, 257939, Note_on_c, 4, 53, 0
10, 258000, Control_c, 4, 11, 61
10, 258240, Note_on_c, 4, 65, 84
10, 258240, Control_c, 4, 11, 64
10, 258240, Note_on_c, 4, 53, 84
10, 258419, Note_on_c, 4, 65, 0
10, 258419, Note_on_c, 4, 53, 0
10, 258480, Note_on_c, 4, 64, 92
10, 258480, Control_c, 4, 11, 68
10, 258659, Note_on_c, 4, 64, 0
10, 258720, Control_c, 4, 11, 71
10, 258960, Control_c, 4, 11, 74
10, 259200, Note_on_c, 4, 67, 92
10, 259200, Control_c, 4, 11, 78
10, 259379, Note_on_c, 4, 67, 0
10, 259440, Control_c, 4, 11, 81
10, 259680, Note_on_c, 4, 67, 84
10, 259680, Control_c, 4, 11, 84
10, 259859, Note_on_c, 4, 67, 0
10, 259920, Note_on_c, 4, 69, 92
10, 259920, Control_c, 4, 11, 88
10, 260099, Note_on_c, 4, 69, 0
10, 260160, Control_c, 4, 11, 91
10, 260400, Control_c, 4, 11, 94
10, 260640, Note_on_c, 4, 67, 92
10, 260640, Control_c, 4, 11, 97
10, 260819, Note_on_c, 4, 67, 0
10, 260880, Control_c, 4, 11, 101
10, 261120, Control_c, 4, 11, 104
10, 261360, Control_c, 4, 11, 107
10, 261360, Note_on_c, 4, 65, 92
10, 261360, Note_on_c, 4, 53, 92
10, 261539, Note_on_c, 4, 65, 0
10, 261539, Note_on_c, 4, 53, 0
10, 261600, Control_c, 4, 11, 111
10, 261840, Control_c, 4, 11, 114
10, 262080, Control_c, 4, 11, 117
10, 262080, Note_on_c, 4, 60, 92
10, 262080, Note_on_c, 4, 48, 92
10, 262259, Note_on_c, 4, 60, 0
10, 262259, Note_on_c, 4, 48, 0
10, 262320, Control_c, 4, 11, 120
10, 262560, Control_c, 4, 11, 124
10, 262800, Note_on_c, 4, 48, 84
10, 262800, Note_on_c, 4, 60, 84
10, 262800, Control_c, 4, 11, 127
10, 262979, Note_on_c, 4, 48, 0
10, 262979, Note_on_c, 4, 60, 0
10, 263280, Note_on_c, 4, 60, 84
10, 263280, Note_on_c, 4, 48, 84
10, 263459, Note_on_c, 4, 60, 0
10, 263459, Note_on_c, 4, 48, 0
10, 263520, Note_on_c, 4, 53, 84
10, 263520, Note_on_c, 4, 65, 84
10, 263699, Note_on_c, 4, 53, 0
10, 263699, Note_on_c, 4, 65, 0
10, 264000, Note_on_c, 4, 53, 84
10, 264000, Note_on_c, 4, 65, 84
10, 264179, Note_on_c, 4, 53, 0
10, 264179, Note_on_c, 4, 65, 0
10, 264240, Note_on_c, 4, 53, 84
10, 264240, Note_on_c, 4, 65, 84
10, 264419, Note_on_c, 4, 53, 0
10, 264419, Note_on_c, 4, 65, 0
10, 264720, Note_on_c, 4, 65, 84
10, 264720, Note_on_c, 4, 53, 84
10, 264899, Note_on_c, 4, 65, 0
10, 264899, Note_on_c, 4, 53, 0
10, 264960, Note_on_c, 4, 60, 84
10, 264960, Note_on_c, 4, 48, 84
10, 265139, Note_on_c, 4, 60, 0
10, 265139, Note_on_c, 4, 48, 0
10, 265440, Note_on_c, 4, 48, 84
10, 265440, Note_on_c, 4, 60, 84
10, 265619, Note_on_c, 4, 48, 0
10, 265619, Note_on_c, 4, 60, 0
10, 265680, Note_on_c, 4, 65, 84
10, 265680, Note_on_c, 4, 53, 84
10, 265851, Note_on_c, 4, 65, 0
10, 265851, Note_on_c, 4, 53, 0
10, 265860, Note_on_c, 4, 65, 84
10, 265860, Note_on_c, 4, 53, 84
10, 265911, Note_on_c, 4, 65, 0
10, 265911, Note_on_c, 4, 53, 0
10, 265920, Note_on_c, 4, 53, 84
10, 265920, Note_on_c, 4, 65, 84
10, 266099, Note_on_c, 4, 53, 0
10, 266099, Note_on_c, 4, 65, 0
10, 266160, Note_on_c, 4, 53, 84
10, 266160, Note_on_c, 4, 65, 84
10, 266331, Note_on_c, 4, 53, 0
10, 266331, Note_on_c, 4, 65, 0
10, 266340, Note_on_c, 4, 65, 84
10, 266340, Note_on_c, 4, 53, 84
10, 266391, Note_on_c, 4, 65, 0
10, 266391, Note_on_c, 4, 53, 0
10, 266400, Note_on_c, 4, 65, 84
10, 266400, Note_on_c, 4, 53, 84
10, 266579, Note_on_c, 4, 65, 0
10, 266579, Note_on_c, 4, 53, 0
10, 266640, Note_on_c, 4, 65, 84
10, 266640, Note_on_c, 4, 53, 84
10, 266811, Note_on_c, 4, 65, 0
10, 266811, Note_on_c, 4, 53, 0
10, 266820, Note_on_c, 4, 65, 84
10, 266820, Note_on_c, 4, 53, 84
10, 266871, Note_on_c, 4, 65, 0
10, 266871, Note_on_c, 4, 53, 0
10, 266880, Note_on_c, 4, 65, 84
10, 266880, Note_on_c, 4, 53, 84
10, 267059, Note_on_c, 4, 65, 0
10, 267059, Note_on_c, 4, 53, 0
10, 267120, Note_on_c, 4, 65, 84
10, 267120, Note_on_c, 4, 53, 84
10, 267291, Note_on_c, 4, 65, 0
10, 267291, Note_on_c, 4, 53, 0
10, 267300, Note_on_c, 4, 53, 84
10, 267300, Note_on_c, 4, 65, 84
10, 267351, Note_on_c, 4, 53, 0
10, 267351, Note_on_c, 4, 65, 0
10, 267360, Note_on_c, 4, 65, 84
10, 267360, Note_on_c, 4, 53, 84
10, 267539, Note_on_c, 4, 65, 0
10, 267539, Note_on_c, 4, 53, 0
10, 269040, Note_on_c, 4, 72, 48
10, 269279, Note_on_c, 4, 72, 0
10, 269280, Note_on_c, 4, 70, 48
10, 269759, Note_on_c, 4, 70, 0
10, 269760, Note_on_c, 4, 69, 48
10, 269999, Note_on_c, 4, 69, 0
10, 270000, Note_on_c, 4, 67, 48
10, 270479, Note_on_c, 4, 67, 0
10, 270480, Note_on_c, 4, 65, 48
10, 270719, Note_on_c, 4, 65, 0
10, 270720, Note_on_c, 4, 67, 48
10, 271199, Note_on_c, 4, 67, 0
10, 271200, Note_on_c, 4, 65, 52
10, 271424, Note_on_c, 4, 65, 0
10, 271440, Note_on_c, 4, 65, 52
10, 271679, Note_on_c, 4, 65, 0
10, 272400, Note_on_c, 4, 69, 52
10, 272400, Note_on_c, 4, 65, 52
10, 272639, Note_on_c, 4, 69, 0
10, 272639, Note_on_c, 4, 65, 0
10, 272640, Note_on_c, 4, 60, 52
10, 272640, Note_on_c, 4, 67, 52
10, 272864, Note_on_c, 4, 60, 0
10, 272864, Note_on_c, 4, 67, 0
10, 272880, Note_on_c, 4, 53, 84
10, 272880, Note_on_c, 4, 65, 84
10, 273051, Note_on_c, 4, 53, 0
10, 273051, Note_on_c, 4, 65, 0
10, 273060, Note_on_c, 4, 53, 84
10, 273060, Note_on_c, 4, 65, 84
10, 273111, Note_on_c, 4, 53, 0
10, 273111, Note_on_c, 4, 65, 0
10, 273120, Note_on_c, 4, 65, 84
10, 273120, Note_on_c, 4, 53, 84
10, 273299, Note_on_c, 4, 65, 0
10, 273299, Note_on_c, 4, 53, 0
10, 273360, Note_on_c, 4, 65, 84
10, 273360, Note_on_c, 4, 53, 84
10, 273531, Note_on_c, 4, 65, 0
10, 273531, Note_on_c, 4, 53, 0
10, 273540, Note_on_c, 4, 53, 84
10, 273540, Note_on_c, 4, 65, 84
10, 273591, Note_on_c, 4, 53, 0
10, 273591, Note_on_c, 4, 65, 0
10, 273600, Note_on_c, 4, 53, 84
10, 273600, Note_on_c, 4, 65, 84
10, 273779, Note_on_c, 4, 53, 0
10, 273779, Note_on_c, 4, 65, 0
10, 273840, Note_on_c, 4, 65, 84
10, 273840, Note_on_c, 4, 53, 84
10, 274011, Note_on_c, 4, 65, 0
10, 274011, Note_on_c, 4, 53, 0
10, 274020, Note_on_c, 4, 65, 84
10, 274020, Note_on_c, 4, 53, 84
10, 274071, Note_on_c, 4, 65, 0
10, 274071, Note_on_c, 4, 53, 0
10, 274080, Note_on_c, 4, 53, 84
10, 274080, Note_on_c, 4, 65, 84
10, 274259, Note_on_c, 4, 53, 0
10, 274259, Note_on_c, 4, 65, 0
10, 274320, Note_on_c, 4, 53, 84
10, 274320, Note_on_c, 4, 65, 84
10, 274491, Note_on_c, 4, 53, 0
10, 274491, Note_on_c, 4, 65, 0
10, 274500, Note_on_c, 4, 65, 84
10, 274500, Note_on_c, 4, 53, 84
10, 274551, Note_on_c, 4, 65, 0
10, 274551, Note_on_c, 4, 53, 0
10, 274560, Note_on_c, 4, 65, 84
10, 274560, Note_on_c, 4, 53, 84
10, 274739, Note_on_c, 4, 65, 0
10, 274739, Note_on_c, 4, 53, 0
10, 275520, Note_on_c, 4, 60, 48
10, 276960, Note_on_c, 4, 72, 48
10, 277199, Note_on_c, 4, 72, 0
10, 277200, Note_on_c, 4, 70, 48
10, 277679, Note_on_c, 4, 70, 0
10, 277680, Note_on_c, 4, 69, 48
10, 277919, Note_on_c, 4, 69, 0
10, 277920, Note_on_c, 4, 67, 48
10, 278384, Note_on_c, 4, 60, 0
10, 278384, Note_on_c, 4, 67, 0
10, 278400, Note_on_c, 4, 53, 48
10, 278400, Note_on_c, 4, 65, 48
10, 278879, Note_on_c, 4, 53, 0
10, 278879, Note_on_c, 4, 65, 0
10, 279600, Note_on_c, 4, 65, 48
10, 279600, Note_on_c, 4, 69, 48
10, 279839, Note_on_c, 4, 65, 0
10, 279839, Note_on_c, 4, 69, 0
10, 279840, Note_on_c, 4, 67, 48
10, 279840, Note_on_c, 4, 60, 48
10, 280064, Note_on_c, 4, 67, 0
10, 280064, Note_on_c, 4, 60, 0
10, 280080, Note_on_c, 4, 57, 48
10, 280080, Note_on_c, 4, 65, 48
10, 280319, Note_on_c, 4, 57, 0
10, 280319, Note_on_c, 4, 65, 0
10, 281520, Note_on_c, 4, 65, 76
10, 281520, Note_on_c, 4, 53, 76
10, 281699, Note_on_c, 4, 65, 0
10, 281699, Note_on_c, 4, 53, 0
10, 281760, Note_on_c, 4, 69, 84
10, 281760, Note_on_c, 4, 57, 84
10, 282119, Note_on_c, 4, 69, 0
10, 282119, Note_on_c, 4, 57, 0
10, 282120, Note_on_c, 4, 65, 76
10, 282120, Note_on_c, 4, 53, 76
10, 282224, Note_on_c, 4, 65, 0
10, 282224, Note_on_c, 4, 53, 0
10, 282240, Note_on_c, 4, 60, 84
10, 282240, Note_on_c, 4, 48, 84
10, 282479, Note_on_c, 4, 60, 0
10, 282479, Note_on_c, 4, 48, 0
10, 282600, Note_on_c, 4, 60, 76
10, 282600, Note_on_c, 4, 48, 76
10, 282689, Note_on_c, 4, 60, 0
10, 282689, Note_on_c, 4, 48, 0
10, 282720, Note_on_c, 4, 48, 76
10, 282720, Note_on_c, 4, 60, 76
10, 282809, Note_on_c, 4, 48, 0
10, 282809, Note_on_c, 4, 60, 0
10, 282840, Note_on_c, 4, 60, 76
10, 282840, Note_on_c, 4, 48, 76
10, 282929, Note_on_c, 4, 60, 0
10, 282929, Note_on_c, 4, 48, 0
10, 282960, Note_on_c, 4, 60, 84
10, 282960, Note_on_c, 4, 48, 84
10, 283079, Note_on_c, 4, 60, 0
10, 283079, Note_on_c, 4, 48, 0
10, 283320, Note_on_c, 4, 60, 76
10, 283320, Note_on_c, 4, 72, 76
10, 283409, Note_on_c, 4, 60, 0
10, 283409, Note_on_c, 4, 72, 0
10, 283440, Note_on_c, 4, 57, 76
10, 283440, Note_on_c, 4, 69, 76
10, 283529, Note_on_c, 4, 57, 0
10, 283529, Note_on_c, 4, 69, 0
10, 283560, Note_on_c, 4, 53, 76
10, 283560, Note_on_c, 4, 65, 76
10, 283649, Note_on_c, 4, 53, 0
10, 283649, Note_on_c, 4, 65, 0
10, 283680, Note_on_c, 4, 48, 84
10, 283680, Note_on_c, 4, 60, 84
10, 283799, Note_on_c, 4, 48, 0
10, 283799, Note_on_c, 4, 60, 0
10, 284040, Note_on_c, 4, 60, 76
10, 284040, Note_on_c, 4, 48, 76
10, 284129, Note_on_c, 4, 60, 0
10, 284129, Note_on_c, 4, 48, 0
10, 284160, Note_on_c, 4, 60, 76
10, 284160, Note_on_c, 4, 48, 76
10, 284249, Note_on_c, 4, 60, 0
10, 284249, Note_on_c, 4, 48, 0
10, 284280, Note_on_c, 4, 48, 76
10, 284280, Note_on_c, 4, 60, 76
10, 284369, Note_on_c, 4, 48, 0
10, 284369, Note_on_c, 4, 60, 0
10, 284400, Note_on_c, 4, 65, 84
10, 284400, Note_on_c, 4, 57, 84
10, 287264, Note_on_c, 4, 65, 0
10, 287264, Note_on_c, 4, 57, 0
10, 287280, Note_on_c, 4, 53, 92
10, 287280, Note_on_c, 4, 65, 92
10, 287519, Note_on_c, 4, 53, 0
10, 287519, Note_on_c, 4, 65, 0
10, 288000, Note_on_c, 4, 53, 92
10, 288000, Note_on_c, 4, 65, 92
10, 288239, Note_on_c, 4, 53, 0
10, 288239, Note_on_c, 4, 65, 0
10, 288720, Note_on_c, 4, 65, 92
10, 288720, Note_on_c, 4, 53, 92
10, 288959, Note_on_c, 4, 65, 0
10, 288959, Note_on_c, 4, 53, 0
10, 289440, Note_on_c, 4, 65, 92
10, 289440, Note_on_c, 4, 53, 92
10, 289679, Note_on_c, 4, 65, 0
10, 289679, Note_on_c, 4, 53, 0
10, 289800, Note_on_c, 4, 65, 84
10, 289800, Note_on_c, 4, 53, 84
10, 289904, Note_on_c, 4, 65, 0
10, 289904, Note_on_c, 4, 53, 0
10, 289920, Note_on_c, 4, 53, 84
10, 289920, Note_on_c, 4, 65, 84
10, 290024, Note_on_c, 4, 53, 0
10, 290024, Note_on_c, 4, 65, 0
10, 290040, Note_on_c, 4, 65, 84
10, 290040, Note_on_c, 4, 53, 84
10, 290144, Note_on_c, 4, 65, 0
10, 290144, Note_on_c, 4, 53, 0
10, 290160, Note_on_c, 4, 53, 84
10, 290160, Note_on_c, 4, 65, 84
10, 290399, Note_on_c, 4, 53, 0
10, 290399, Note_on_c, 4, 65, 0
10, 301440, Control_c, 4, 11, 48
10, 301680, Note_on_c, 4, 60, 84
10, 301680, Note_on_c, 4, 48, 84
10, 301860, Control_c, 4, 11, 51
10, 302040, Control_c, 4, 11, 55
10, 302220, Control_c, 4, 11, 58
10, 302400, Control_c, 4, 11, 61
10, 302580, Control_c, 4, 11, 64
10, 302760, Control_c, 4, 11, 68
10, 302940, Control_c, 4, 11, 71
10, 303120, Control_c, 4, 11, 74
10, 303300, Control_c, 4, 11, 78
10, 303480, Control_c, 4, 11, 81
10, 303660, Control_c, 4, 11, 84
10, 303840, Control_c, 4, 11, 88
10, 304020, Control_c, 4, 11, 91
10, 304200, Control_c, 4, 11, 94
10, 304380, Control_c, 4, 11, 97
10, 304560, Control_c, 4, 11, 101
10, 304740, Control_c, 4, 11, 104
10, 304920, Control_c, 4, 11, 107
10, 305100, Control_c, 4, 11, 111
10, 305280, Control_c, 4, 11, 114
10, 305460, Control_c, 4, 11, 117
10, 305640, Control_c, 4, 11, 120
10, 305820, Control_c, 4, 11, 124
10, 305984, Note_on_c, 4, 60, 0
10, 305984, Note_on_c, 4, 48, 0
10, 306000, Note_on_c, 4, 48, 84
10, 306000, Note_on_c, 4, 60, 84
10, 306000, Control_c, 4, 11, 127
10, 306359, Note_on_c, 4, 48, 0
10, 306359, Note_on_c, 4, 60, 0
10, 306720, Note_on_c, 4, 65, 92
10, 307079, Note_on_c, 4, 65, 0
10, 307440, Note_on_c, 4, 67, 92
10, 307799, Note_on_c, 4, 67, 0
10, 308160, Note_on_c, 4, 67, 92
10, 308519, Note_on_c, 4, 67, 0
10, 308880, Note_on_c, 4, 67, 92
10, 309239, Note_on_c, 4, 67, 0
10, 309600, Note_on_c, 4, 72, 92
10, 309600, Note_on_c, 4, 69, 92
10, 309959, Note_on_c, 4, 72, 0
10, 309959, Note_on_c, 4, 69, 0
10, 310080, Note_on_c, 4, 67, 84
10, 310080, Note_on_c, 4, 70, 84
10, 310199, Note_on_c, 4, 67, 0
10, 310199, Note_on_c, 4, 70, 0
10, 310320, Note_on_c, 4, 65, 92
10, 310320, Note_on_c, 4, 69, 92
10, 310439, Note_on_c, 4, 65, 0
10, 310439, Note_on_c, 4, 69, 0
10, 310560, Note_on_c, 4, 65, 84
10, 310560, Note_on_c, 4, 57, 84
10, 310679, Note_on_c, 4, 65, 0
10, 310679, Note_on_c, 4, 57, 0
10, 310800, Note_on_c, 4, 67, 84
10, 310800, Note_on_c, 4, 60, 84
10, 310919, Note_on_c, 4, 67, 0
10, 310919, Note_on_c, 4, 60, 0
10, 311040, Note_on_c, 4, 69, 92
10, 311040, Note_on_c, 4, 65, 92
10, 311159, Note_on_c, 4, 69, 0
10, 311159, Note_on_c, 4, 65, 0
10, 311280, Note_on_c, 4, 65, 84
10, 311280, Note_on_c, 4, 57, 84
10, 311399, Note_on_c, 4, 65, 0
10, 311399, Note_on_c, 4, 57, 0
10, 311520, Note_on_c, 4, 60, 84
10, 311520, Note_on_c, 4, 67, 84
10, 311639, Note_on_c, 4, 60, 0
10, 311639, Note_on_c, 4, 67, 0
10, 311760, Note_on_c, 4, 69, 92
10, 311760, Note_on_c, 4, 65, 92
10, 311879, Note_on_c, 4, 69, 0
10, 311879, Note_on_c, 4, 65, 0
10, 312000, Note_on_c, 4, 65, 84
10, 312000, Note_on_c, 4, 57, 84
10, 312119, Note_on_c, 4, 65, 0
10, 312119, Note_on_c, 4, 57, 0
10, 312240, Note_on_c, 4, 60, 84
10, 312240, Note_on_c, 4, 67, 84
10, 312359, Note_on_c, 4, 60, 0
10, 312359, Note_on_c, 4, 67, 0
10, 312720, Note_on_c, 4, 60, 92
10, 312720, Note_on_c, 4, 67, 92
10, 313184, Note_on_c, 4, 60, 0
10, 313184, Note_on_c, 4, 67, 0
10, 313198, Control_c, 4, 11, 80
10, 313200, Note_on_c, 4, 60, 76
10, 313200, Note_on_c, 4, 48, 76
10, 316080, Control_c, 4, 11, 80
10, 316320, Control_c, 4, 11, 84
10, 316560, Control_c, 4, 11, 88
10, 316800, Control_c, 4, 11, 92
10, 317040, Control_c, 4, 11, 96
10, 317280, Control_c, 4, 11, 100
10, 317520, Control_c, 4, 11, 104
10, 317760, Control_c, 4, 11, 107
10, 318000, Control_c, 4, 11, 111
10, 318240, Control_c, 4, 11, 115
10, 318480, Control_c, 4, 11, 119
10, 318720, Control_c, 4, 11, 123
10, 318944, Note_on_c, 4, 60, 0
10, 318944, Note_on_c, 4, 48, 0
10, 318960, Note_on_c, 4, 60, 76
10, 318960, Note_on_c, 4, 67, 76
10, 318960, Control_c, 4, 11, 127
10, 319424, Note_on_c, 4, 60, 0
10, 319424, Note_on_c, 4, 67, 0
10, 319440, Note_on_c, 4, 65, 84
10, 319440, Note_on_c, 4, 57, 84
10, 319664, Note_on_c, 4, 65, 0
10, 319664, Note_on_c, 4, 57, 0
10, 319680, Note_on_c, 4, 60, 76
10, 319680, Note_on_c, 4, 67, 76
10, 320144, Note_on_c, 4, 60, 0
10, 320144, Note_on_c, 4, 67, 0
10, 320160, Note_on_c, 4, 65, 84
10, 320160, Note_on_c, 4, 57, 84
10, 320384, Note_on_c, 4, 65, 0
10, 320384, Note_on_c, 4, 57, 0
10, 320400, Note_on_c, 4, 60, 76
10, 320400, Note_on_c, 4, 67, 76
10, 320864, Note_on_c, 4, 60, 0
10, 320864, Note_on_c, 4, 67, 0
10, 320880, Note_on_c, 4, 57, 84
10, 320880, Note_on_c, 4, 65, 84
10, 321104, Note_on_c, 4, 57, 0
10, 321104, Note_on_c, 4, 65, 0
10, 321120, Note_on_c, 4, 60, 76
10, 321120, Note_on_c, 4, 67, 76
10, 321584, Note_on_c, 4, 60, 0
10, 321584, Note_on_c, 4, 67, 0
10, 321600, Note_on_c, 4, 65, 84
10, 321600, Note_on_c, 4, 69, 84
10, 321824, Note_on_c, 4, 65, 0
10, 321824, Note_on_c, 4, 69, 0
10, 321840, Note_on_c, 4, 70, 76
10, 321840, Note_on_c, 4, 65, 76
10, 322304, Note_on_c, 4, 70, 0
10, 322304, Note_on_c, 4, 65, 0
10, 322320, Note_on_c, 4, 65, 84
10, 322320, Note_on_c, 4, 53, 84
10, 322544, Note_on_c, 4, 65, 0
10, 322544, Note_on_c, 4, 53, 0
10, 322560, Note_on_c, 4, 65, 76
10, 322560, Note_on_c, 4, 53, 76
10, 323024, Note_on_c, 4, 65, 0
10, 323024, Note_on_c, 4, 53, 0
10, 323040, Note_on_c, 4, 48, 84
10, 323040, Note_on_c, 4, 60, 84
10, 323264, Note_on_c, 4, 48, 0
10, 323264, Note_on_c, 4, 60, 0
10, 323280, Note_on_c, 4, 60, 76
10, 323280, Note_on_c, 4, 48, 76
10, 323504, Note_on_c, 4, 60, 0
10, 323504, Note_on_c, 4, 48, 0
10, 323520, Note_on_c, 4, 57, 76
10, 323520, Note_on_c, 4, 65, 76
10, 323744, Note_on_c, 4, 57, 0
10, 323744, Note_on_c, 4, 65, 0
10, 323760, Note_on_c, 4, 67, 84
10, 323760, Note_on_c, 4, 60, 84
10, 323984, Note_on_c, 4, 67, 0
10, 323984, Note_on_c, 4, 60, 0
10, 324000, Note_on_c, 4, 69, 76
10, 324000, Note_on_c, 4, 65, 76
10, 324224, Note_on_c, 4, 69, 0
10, 324224, Note_on_c, 4, 65, 0
10, 324240, Note_on_c, 4, 53, 76
10, 324240, Note_on_c, 4, 65, 76
10, 324464, Note_on_c, 4, 53, 0
10, 324464, Note_on_c, 4, 65, 0
10, 324480, Note_on_c, 4, 65, 84
10, 324480, Note_on_c, 4, 53, 84
10, 324704, Note_on_c, 4, 65, 0
10, 324704, Note_on_c, 4, 53, 0
10, 324720, Note_on_c, 4, 53, 92
10, 324720, Note_on_c, 4, 65, 92
10, 325904, Note_on_c, 4, 53, 0
10, 325904, Note_on_c, 4, 65, 0
10, 325920, Note_on_c, 4, 69, 92
10, 325920, Note_on_c, 4, 65, 92
10, 326144, Note_on_c, 4, 69, 0
10, 326144, Note_on_c, 4, 65, 0
10, 326160, Note_on_c, 4, 69, 92
10, 326160, Note_on_c, 4, 65, 92
10, 326279, Note_on_c, 4, 69, 0
10, 326279, Note_on_c, 4, 65, 0
10, 326400, Note_on_c, 4, 65, 92
10, 326400, Note_on_c, 4, 57, 92
10, 326519, Note_on_c, 4, 65, 0
10, 326519, Note_on_c, 4, 57, 0
10, 326520, Note_on_c, 4, 67, 92
10, 326520, Note_on_c, 4, 60, 92
10, 326624, Note_on_c, 4, 67, 0
10, 326624, Note_on_c, 4, 60, 0
10, 326640, Note_on_c, 4, 65, 92
10, 326640, Note_on_c, 4, 69, 92
10, 326729, Note_on_c, 4, 65, 0
10, 326729, Note_on_c, 4, 69, 0
10, 326760, Note_on_c, 4, 57, 92
10, 326760, Note_on_c, 4, 65, 92
10, 326849, Note_on_c, 4, 57, 0
10, 326849, Note_on_c, 4, 65, 0
10, 326880, Note_on_c, 4, 69, 92
10, 326880, Note_on_c, 4, 65, 92
10, 326999, Note_on_c, 4, 69, 0
10, 326999, Note_on_c, 4, 65, 0
10, 327120, Note_on_c, 4, 65, 92
10, 327120, Note_on_c, 4, 57, 92
10, 327239, Note_on_c, 4, 65, 0
10, 327239, Note_on_c, 4, 57, 0
10, 327240, Note_on_c, 4, 67, 92
10, 327240, Note_on_c, 4, 60, 92
10, 327344, Note_on_c, 4, 67, 0
10, 327344, Note_on_c, 4, 60, 0
10, 327360, Note_on_c, 4, 65, 92
10, 327360, Note_on_c, 4, 69, 92
10, 327449, Note_on_c, 4, 65, 0
10, 327449, Note_on_c, 4, 69, 0
10, 327480, Note_on_c, 4, 65, 92
10, 327480, Note_on_c, 4, 57, 92
10, 327569, Note_on_c, 4, 65, 0
10, 327569, Note_on_c, 4, 57, 0
10, 327600, Note_on_c, 4, 69, 92
10, 327600, Note_on_c, 4, 65, 92
10, 327719, Note_on_c, 4, 69, 0
10, 327719, Note_on_c, 4, 65, 0
10, 327840, Note_on_c, 4, 65, 92
10, 327840, Note_on_c, 4, 57, 92
10, 327959, Note_on_c, 4, 65, 0
10, 327959, Note_on_c, 4, 57, 0
10, 327960, Note_on_c, 4, 60, 92
10, 327960, Note_on_c, 4, 67, 92
10, 328064, Note_on_c, 4, 60, 0
10, 328064, Note_on_c, 4, 67, 0
10, 328080, Note_on_c, 4, 69, 92
10, 328080, Note_on_c, 4, 65, 92
10, 328169, Note_on_c, 4, 69, 0
10, 328169, Note_on_c, 4, 65, 0
10, 328200, Note_on_c, 4, 65, 92
10, 328200, Note_on_c, 4, 57, 92
10, 328289, Note_on_c, 4, 65, 0
10, 328289, Note_on_c, 4, 57, 0
10, 328320, Note_on_c, 4, 67, 92
10, 328320, Note_on_c, 4, 60, 92
10, 328439, Note_on_c, 4, 67, 0
10, 328439, Note_on_c, 4, 60, 0
10, 328560, Note_on_c, 4, 67, 92
10, 328560, Note_on_c, 4, 60, 92
10, 328679, Note_on_c, 4, 67, 0
10, 328679, Note_on_c, 4, 60, 0
10, 328800, Note_on_c, 4, 60, 92
10, 328800, Note_on_c, 4, 67, 92
10, 328919, Note_on_c, 4, 60, 0
10, 328919, Note_on_c, 4, 67, 0
10, 329040, Note_on_c, 4, 65, 92
10, 329040, Note_on_c, 4, 69, 92
10, 329159, Note_on_c, 4, 65, 0
10, 329159, Note_on_c, 4, 69, 0
10, 329280, Note_on_c, 4, 57, 92
10, 329280, Note_on_c, 4, 65, 92
10, 329399, Note_on_c, 4, 57, 0
10, 329399, Note_on_c, 4, 65, 0
10, 329400, Note_on_c, 4, 67, 92
10, 329400, Note_on_c, 4, 60, 92
10, 329504, Note_on_c, 4, 67, 0
10, 329504, Note_on_c, 4, 60, 0
10, 329520, Note_on_c, 4, 65, 92
10, 329520, Note_on_c, 4, 69, 92
10, 329609, Note_on_c, 4, 65, 0
10, 329609, Note_on_c, 4, 69, 0
10, 329640, Note_on_c, 4, 57, 92
10, 329640, Note_on_c, 4, 65, 92
10, 329729, Note_on_c, 4, 57, 0
10, 329729, Note_on_c, 4, 65, 0
10, 329760, Note_on_c, 4, 69, 92
10, 329760, Note_on_c, 4, 65, 92
10, 329879, Note_on_c, 4, 69, 0
10, 329879, Note_on_c, 4, 65, 0
10, 330000, Note_on_c, 4, 65, 92
10, 330000, Note_on_c, 4, 57, 92
10, 330119, Note_on_c, 4, 65, 0
10, 330119, Note_on_c, 4, 57, 0
10, 330120, Note_on_c, 4, 67, 92
10, 330120, Note_on_c, 4, 60, 92
10, 330224, Note_on_c, 4, 67, 0
10, 330224, Note_on_c, 4, 60, 0
10, 330240, Note_on_c, 4, 65, 92
10, 330240, Note_on_c, 4, 69, 92
10, 330329, Note_on_c, 4, 65, 0
10, 330329, Note_on_c, 4, 69, 0
10, 330360, Note_on_c, 4, 57, 92
10, 330360, Note_on_c, 4, 65, 92
10, 330449, Note_on_c, 4, 57, 0
10, 330449, Note_on_c, 4, 65, 0
10, 330480, Note_on_c, 4, 65, 92
10, 330480, Note_on_c, 4, 69, 92
10, 330599, Note_on_c, 4, 65, 0
10, 330599, Note_on_c, 4, 69, 0
10, 330720, Note_on_c, 4, 57, 92
10, 330720, Note_on_c, 4, 65, 92
10, 330839, Note_on_c, 4, 57, 0
10, 330839, Note_on_c, 4, 65, 0
10, 330840, Note_on_c, 4, 67, 92
10, 330840, Note_on_c, 4, 60, 92
10, 330944, Note_on_c, 4, 67, 0
10, 330944, Note_on_c, 4, 60, 0
10, 330960, Note_on_c, 4, 65, 92
10, 330960, Note_on_c, 4, 69, 92
10, 331049, Note_on_c, 4, 65, 0
10, 331049, Note_on_c, 4, 69, 0
10, 331080, Note_on_c, 4, 65, 92
10, 331080, Note_on_c, 4, 57, 92
10, 331169, Note_on_c, 4, 65, 0
10, 331169, Note_on_c, 4, 57, 0
10, 331200, Note_on_c, 4, 60, 92
10, 331200, Note_on_c, 4, 67, 92
10, 331319, Note_on_c, 4, 60, 0
10, 331319, Note_on_c, 4, 67, 0
10, 331440, Note_on_c, 4, 67, 92
10, 331440, Note_on_c, 4, 60, 92
10, 331559, Note_on_c, 4, 67, 0
10, 331559, Note_on_c, 4, 60, 0
10, 331680, Note_on_c, 4, 67, 92
10, 331680, Note_on_c, 4, 60, 92
10, 331799, Note_on_c, 4, 67, 0
10, 331799, Note_on_c, 4, 60, 0
10, 332640, Note_on_c, 4, 65, 92
10, 332640, Note_on_c, 4, 69, 92
10, 332759, Note_on_c, 4, 65, 0
10, 332759, Note_on_c, 4, 69, 0
10, 332880, Note_on_c, 4, 65, 92
10, 332880, Note_on_c, 4, 69, 92
10, 332999, Note_on_c, 4, 65, 0
10, 332999, Note_on_c, 4, 69, 0
10, 333120, Note_on_c, 4, 65, 92
10, 333120, Note_on_c, 4, 69, 92
10, 333239, Note_on_c, 4, 65, 0
10, 333239, Note_on_c, 4, 69, 0
10, 334800, Note_on_c, 4, 60, 52
10, 334800, Note_on_c, 4, 48, 52
10, 335024, Note_on_c, 4, 60, 0
10, 335024, Note_on_c, 4, 48, 0
10, 335040, Note_on_c, 4, 60, 52
10, 335040, Note_on_c, 4, 48, 52
10, 335264, Note_on_c, 4, 60, 0
10, 335264, Note_on_c, 4, 48, 0
10, 335280, Note_on_c, 4, 48, 52
10, 335280, Note_on_c, 4, 60, 52
10, 335519, Note_on_c, 4, 48, 0
10, 335519, Note_on_c, 4, 60, 0
10, 336240, Note_on_c, 4, 48, 52
10, 336240, Note_on_c, 4, 60, 52
10, 336464, Note_on_c, 4, 48, 0
10, 336464, Note_on_c, 4, 60, 0
10, 336480, Note_on_c, 4, 60, 52
10, 336480, Note_on_c, 4, 48, 52
10, 336704, Note_on_c, 4, 60, 0
10, 336704, Note_on_c, 4, 48, 0
10, 336720, Note_on_c, 4, 48, 52
10, 336720, Note_on_c, 4, 60, 52
10, 336959, Note_on_c, 4, 48, 0
10, 336959, Note_on_c, 4, 60, 0
10, 337680, Note_on_c, 4, 48, 52
10, 337680, Control_c, 4, 11, 127
10, 337680, Note_on_c, 4, 60, 52
10, 337860, Control_c, 4, 11, 126
10, 337904, Note_on_c, 4, 48, 0
10, 337904, Note_on_c, 4, 60, 0
10, 337920, Note_on_c, 4, 60, 52
10, 337920, Note_on_c, 4, 48, 52
10, 338040, Control_c, 4, 11, 125
10, 338159, Note_on_c, 4, 60, 0
10, 338159, Note_on_c, 4, 48, 0
10, 338220, Control_c, 4, 11, 123
10, 338400, Control_c, 4, 11, 122
10, 338580, Control_c, 4, 11, 121
10, 338760, Control_c, 4, 11, 120
10, 338940, Control_c, 4, 11, 118
10, 339120, Note_on_c, 4, 60, 52
10, 339120, Control_c, 4, 11, 117
10, 339120, Note_on_c, 4, 48, 52
10, 339300, Control_c, 4, 11, 116
10, 339344, Note_on_c, 4, 60, 0
10, 339344, Note_on_c, 4, 48, 0
10, 339360, Note_on_c, 4, 60, 52
10, 339360, Note_on_c, 4, 48, 52
10, 339480, Control_c, 4, 11, 115
10, 339599, Note_on_c, 4, 60, 0
10, 339599, Note_on_c, 4, 48, 0
10, 339660, Control_c, 4, 11, 127
10, 339840, Note_on_c, 4, 60, 44
10, 339840, Note_on_c, 4, 48, 44
10, 340544, Note_on_c, 4, 60, 0
10, 340544, Note_on_c, 4, 48, 0
10, 340560, Note_on_c, 4, 60, 44
10, 340560, Note_on_c, 4, 48, 44
10, 341264, Note_on_c, 4, 60, 0
10, 341264, Note_on_c, 4, 48, 0
10, 341280, Note_on_c, 4, 60, 44
10, 341280, Note_on_c, 4, 48, 44
10, 341399, Note_on_c, 4, 60, 0
10, 341399, Note_on_c, 4, 48, 0
10, 341520, Note_on_c, 4, 48, 44
10, 341520, Note_on_c, 4, 60, 44
10, 341639, Note_on_c, 4, 48, 0
10, 341639, Note_on_c, 4, 60, 0
10, 341760, Note_on_c, 4, 60, 44
10, 341760, Note_on_c, 4, 48, 44
10, 341879, Note_on_c, 4, 60, 0
10, 341879, Note_on_c, 4, 48, 0
10, 342000, Note_on_c, 4, 48, 44
10, 342000, Note_on_c, 4, 60, 44
10, 342239, Note_on_c, 4, 48, 0
10, 342239, Note_on_c, 4, 60, 0
10, 342239, End_track
11, 0, Start_track
11, 0, Title_t, "Trumpet in F"
11, 0, MIDI_port, 0
11, 0, Program_c, 5, 56
11, 0, Control_c, 5, 7, 112
11, 0, Control_c, 5, 10, 60
11, 0, Control_c, 5, 11, 127
11, 0, Note_on_c, 5, 72, 76
11, 0, Note_on_c, 5, 60, 76
11, 1184, Note_on_c, 5, 72, 0
11, 1184, Note_on_c, 5, 60, 0
11, 1200, Note_on_c, 5, 60, 76
11, 1200, Note_on_c, 5, 72, 76
11, 1289, Note_on_c, 5, 60, 0
11, 1289, Note_on_c, 5, 72, 0
11, 1320, Note_on_c, 5, 72, 76
11, 1320, Note_on_c, 5, 60, 76
11, 1409, Note_on_c, 5, 72, 0
11, 1409, Note_on_c, 5, 60, 0
11, 1440, Note_on_c, 5, 72, 76
11, 1440, Note_on_c, 5, 60, 76
11, 1664, Note_on_c, 5, 72, 0
11, 1664, Note_on_c, 5, 60, 0
11, 1680, Note_on_c, 5, 60, 76
11, 1680, Note_on_c, 5, 72, 76
11, 1769, Note_on_c, 5, 60, 0
11, 1769, Note_on_c, 5, 72, 0
11, 1800, Note_on_c, 5, 72, 76
11, 1800, Note_on_c, 5, 60, 76
11, 1889, Note_on_c, 5, 72, 0
11, 1889, Note_on_c, 5, 60, 0
11, 1920, Note_on_c, 5, 60, 76
11, 1920, Note_on_c, 5, 72, 76
11, 2009, Note_on_c, 5, 60, 0
11, 2009, Note_on_c, 5, 72, 0
11, 2040, Note_on_c, 5, 60, 76
11, 2040, Note_on_c, 5, 72, 76
11, 2129, Note_on_c, 5, 60, 0
11, 2129, Note_on_c, 5, 72, 0
11, 2160, Note_on_c, 5, 72, 76
11, 2160, Note_on_c, 5, 60, 76
11, 2399, Note_on_c, 5, 72, 0
11, 2399, Note_on_c, 5, 60, 0
11, 6480, Note_on_c, 5, 60, 76
11, 6480, Note_on_c, 5, 72, 76
11, 7184, Note_on_c, 5, 60, 0
11, 7184, Note_on_c, 5, 72, 0
11, 7200, Note_on_c, 5, 72, 76
11, 7200, Note_on_c, 5, 60, 76
11, 7319, Note_on_c, 5, 72, 0
11, 7319, Note_on_c, 5, 60, 0
11, 7440, Note_on_c, 5, 60, 76
11, 7440, Note_on_c, 5, 72, 76
11, 7559, Note_on_c, 5, 60, 0
11, 7559, Note_on_c, 5, 72, 0
11, 7680, Note_on_c, 5, 60, 76
11, 7680, Note_on_c, 5, 72, 76
11, 7799, Note_on_c, 5, 60, 0
11, 7799, Note_on_c, 5, 72, 0
11, 7920, Note_on_c, 5, 65, 76
11, 8159, Note_on_c, 5, 65, 0
11, 9300, Note_on_c, 5, 65, 76
11, 9300, Note_on_c, 5, 77, 76
11, 9351, Note_on_c, 5, 65, 0
11, 9351, Note_on_c, 5, 77, 0
11, 9360, Note_on_c, 5, 65, 76
11, 9360, Note_on_c, 5, 77, 76
11, 9599, Note_on_c, 5, 65, 0
11, 9599, Note_on_c, 5, 77, 0
11, 10740, Note_on_c, 5, 77, 76
11, 10740, Note_on_c, 5, 65, 76
11, 10791, Note_on_c, 5, 77, 0
11, 10791, Note_on_c, 5, 65, 0
11, 10800, Note_on_c, 5, 65, 76
11, 10800, Note_on_c, 5, 77, 76
11, 11039, Note_on_c, 5, 65, 0
11, 11039, Note_on_c, 5, 77, 0
11, 12180, Note_on_c, 5, 65, 76
11, 12180, Note_on_c, 5, 77, 76
11, 12231, Note_on_c, 5, 65, 0
11, 12231, Note_on_c, 5, 77, 0
11, 12240, Note_on_c, 5, 72, 76
11, 12240, Note_on_c, 5, 60, 76
11, 12704, Note_on_c, 5, 72, 0
11, 12704, Note_on_c, 5, 60, 0
11, 12720, Note_on_c, 5, 72, 76
11, 12720, Note_on_c, 5, 60, 76
11, 12839, Note_on_c, 5, 72, 0
11, 12839, Note_on_c, 5, 60, 0
11, 12960, Note_on_c, 5, 72, 76
11, 12960, Note_on_c, 5, 60, 76
11, 13079, Note_on_c, 5, 72, 0
11, 13079, Note_on_c, 5, 60, 0
11, 13200, Note_on_c, 5, 72, 76
11, 13200, Note_on_c, 5, 60, 76
11, 13319, Note_on_c, 5, 72, 0
11, 13319, Note_on_c, 5, 60, 0
11, 13440, Note_on_c, 5, 72, 76
11, 13440, Note_on_c, 5, 60, 76
11, 13559, Note_on_c, 5, 72, 0
11, 13559, Note_on_c, 5, 60, 0
11, 13680, Note_on_c, 5, 65, 76
11, 13680, Note_on_c, 5, 77, 76
11, 15051, Note_on_c, 5, 65, 0
11, 15051, Note_on_c, 5, 77, 0
11, 15060, Note_on_c, 5, 77, 76
11, 15060, Note_on_c, 5, 65, 76
11, 15111, Note_on_c, 5, 77, 0
11, 15111, Note_on_c, 5, 65, 0
11, 15120, Note_on_c, 5, 65, 76
11, 15120, Note_on_c, 5, 77, 76
11, 16491, Note_on_c, 5, 65, 0
11, 16491, Note_on_c, 5, 77, 0
11, 16500, Note_on_c, 5, 65, 76
11, 16500, Note_on_c, 5, 77, 76
11, 16551, Note_on_c, 5, 65, 0
11, 16551, Note_on_c, 5, 77, 0
11, 16560, Note_on_c, 5, 65, 76
11, 17931, Note_on_c, 5, 65, 0
11, 17940, Note_on_c, 5, 65, 76
11, 17991, Note_on_c, 5, 65, 0
11, 18000, Note_on_c, 5, 65, 76
11, 19371, Note_on_c, 5, 65, 0
11, 19380, Note_on_c, 5, 65, 76
11, 19431, Note_on_c, 5, 65, 0
11, 19440, Note_on_c, 5, 65, 76
11, 19904, Note_on_c, 5, 65, 0
11, 19920, Note_on_c, 5, 65, 84
11, 20091, Note_on_c, 5, 65, 0
11, 20100, Note_on_c, 5, 65, 76
11, 20151, Note_on_c, 5, 65, 0
11, 20160, Note_on_c, 5, 65, 76
11, 20624, Note_on_c, 5, 65, 0
11, 20640, Note_on_c, 5, 65, 84
11, 20811, Note_on_c, 5, 65, 0
11, 20820, Note_on_c, 5, 65, 76
11, 20871, Note_on_c, 5, 65, 0
11, 20880, Note_on_c, 5, 65, 76
11, 20999, Note_on_c, 5, 65, 0
11, 21360, Note_on_c, 5, 65, 84
11, 21479, Note_on_c, 5, 65, 0
11, 21600, Note_on_c, 5, 65, 76
11, 21719, Note_on_c, 5, 65, 0
11, 22080, Note_on_c, 5, 65, 84
11, 22199, Note_on_c, 5, 65, 0
11, 22320, Note_on_c, 5, 65, 76
11, 22439, Note_on_c, 5, 65, 0
11, 38880, Note_on_c, 5, 72, 44
11, 38880, Note_on_c, 5, 60, 44
11, 39059, Note_on_c, 5, 72, 0
11, 39059, Note_on_c, 5, 60, 0
11, 39360, Note_on_c, 5, 72, 44
11, 39360, Note_on_c, 5, 60, 44
11, 39539, Note_on_c, 5, 72, 0
11, 39539, Note_on_c, 5, 60, 0
11, 39600, Note_on_c, 5, 72, 44
11, 39600, Note_on_c, 5, 60, 44
11, 39779, Note_on_c, 5, 72, 0
11, 39779, Note_on_c, 5, 60, 0
11, 41760, Note_on_c, 5, 60, 44
11, 41760, Note_on_c, 5, 72, 44
11, 41939, Note_on_c, 5, 60, 0
11, 41939, Note_on_c, 5, 72, 0
11, 42240, Note_on_c, 5, 72, 44
11, 42240, Note_on_c, 5, 60, 44
11, 42419, Note_on_c, 5, 72, 0
11, 42419, Note_on_c, 5, 60, 0
11, 45360, Note_on_c, 5, 72, 84
11, 45360, Note_on_c, 5, 60, 84
11, 45539, Note_on_c, 5, 72, 0
11, 45539, Note_on_c, 5, 60, 0
11, 46080, Note_on_c, 5, 65, 84
11, 46259, Note_on_c, 5, 65, 0
11, 46800, Note_on_c, 5, 65, 84
11, 46979, Note_on_c, 5, 65, 0
11, 47280, Note_on_c, 5, 65, 84
11, 47459, Note_on_c, 5, 65, 0
11, 47520, Note_on_c, 5, 72, 84
11, 47520, Note_on_c, 5, 60, 84
11, 47699, Note_on_c, 5, 72, 0
11, 47699, Note_on_c, 5, 60, 0
11, 48000, Note_on_c, 5, 72, 84
11, 48000, Note_on_c, 5, 60, 84
11, 48179, Note_on_c, 5, 72, 0
11, 48179, Note_on_c, 5, 60, 0
11, 48240, Note_on_c, 5, 60, 84
11, 48240, Note_on_c, 5, 72, 84
11, 48419, Note_on_c, 5, 60, 0
11, 48419, Note_on_c, 5, 72, 0
11, 48720, Note_on_c, 5, 60, 84
11, 48720, Note_on_c, 5, 72, 84
11, 48899, Note_on_c, 5, 60, 0
11, 48899, Note_on_c, 5, 72, 0
11, 48960, Note_on_c, 5, 79, 84
11, 49139, Note_on_c, 5, 79, 0
11, 49440, Note_on_c, 5, 79, 84
11, 49619, Note_on_c, 5, 79, 0
11, 49680, Note_on_c, 5, 60, 84
11, 49680, Note_on_c, 5, 72, 84
11, 49851, Note_on_c, 5, 60, 0
11, 49851, Note_on_c, 5, 72, 0
11, 49860, Note_on_c, 5, 60, 84
11, 49860, Note_on_c, 5, 72, 84
11, 49911, Note_on_c, 5, 60, 0
11, 49911, Note_on_c, 5, 72, 0
11, 49920, Note_on_c, 5, 72, 84
11, 49920, Note_on_c, 5, 60, 84
11, 50099, Note_on_c, 5, 72, 0
11, 50099, Note_on_c, 5, 60, 0
11, 50160, Note_on_c, 5, 72, 84
11, 50160, Note_on_c, 5, 60, 84
11, 50331, Note_on_c, 5, 72, 0
11, 50331, Note_on_c, 5, 60, 0
11, 50340, Note_on_c, 5, 60, 84
11, 50340, Note_on_c, 5, 72, 84
11, 50391, Note_on_c, 5, 60, 0
11, 50391, Note_on_c, 5, 72, 0
11, 50400, Note_on_c, 5, 72, 84
11, 50400, Note_on_c, 5, 60, 84
11, 50579, Note_on_c, 5, 72, 0
11, 50579, Note_on_c, 5, 60, 0
11, 50640, Note_on_c, 5, 60, 84
11, 50640, Note_on_c, 5, 72, 84
11, 50811, Note_on_c, 5, 60, 0
11, 50811, Note_on_c, 5, 72, 0
11, 50820, Note_on_c, 5, 60, 84
11, 50820, Note_on_c, 5, 72, 84
11, 50871, Note_on_c, 5, 60, 0
11, 50871, Note_on_c, 5, 72, 0
11, 50880, Note_on_c, 5, 60, 84
11, 50880, Note_on_c, 5, 72, 84
11, 51059, Note_on_c, 5, 60, 0
11, 51059, Note_on_c, 5, 72, 0
11, 51120, Note_on_c, 5, 72, 84
11, 51120, Note_on_c, 5, 60, 84
11, 51291, Note_on_c, 5, 72, 0
11, 51291, Note_on_c, 5, 60, 0
11, 51300, Note_on_c, 5, 72, 84
11, 51300, Note_on_c, 5, 60, 84
11, 51351, Note_on_c, 5, 72, 0
11, 51351, Note_on_c, 5, 60, 0
11, 51360, Note_on_c, 5, 60, 84
11, 51360, Note_on_c, 5, 72, 84
11, 51539, Note_on_c, 5, 60, 0
11, 51539, Note_on_c, 5, 72, 0
11, 56880, Note_on_c, 5, 60, 84
11, 56880, Note_on_c, 5, 72, 84
11, 57051, Note_on_c, 5, 60, 0
11, 57051, Note_on_c, 5, 72, 0
11, 57060, Note_on_c, 5, 72, 84
11, 57060, Note_on_c, 5, 60, 84
11, 57111, Note_on_c, 5, 72, 0
11, 57111, Note_on_c, 5, 60, 0
11, 57120, Note_on_c, 5, 72, 84
11, 57120, Note_on_c, 5, 60, 84
11, 57299, Note_on_c, 5, 72, 0
11, 57299, Note_on_c, 5, 60, 0
11, 57360, Note_on_c, 5, 60, 84
11, 57360, Note_on_c, 5, 72, 84
11, 57531, Note_on_c, 5, 60, 0
11, 57531, Note_on_c, 5, 72, 0
11, 57540, Note_on_c, 5, 72, 84
11, 57540, Note_on_c, 5, 60, 84
11, 57591, Note_on_c, 5, 72, 0
11, 57591, Note_on_c, 5, 60, 0
11, 57600, Note_on_c, 5, 72, 84
11, 57600, Note_on_c, 5, 60, 84
11, 57779, Note_on_c, 5, 72, 0
11, 57779, Note_on_c, 5, 60, 0
11, 57840, Note_on_c, 5, 72, 84
11, 57840, Note_on_c, 5, 60, 84
11, 58011, Note_on_c, 5, 72, 0
11, 58011, Note_on_c, 5, 60, 0
11, 58020, Note_on_c, 5, 60, 84
11, 58020, Note_on_c, 5, 72, 84
11, 58071, Note_on_c, 5, 60, 0
11, 58071, Note_on_c, 5, 72, 0
11, 58080, Note_on_c, 5, 60, 84
11, 58080, Note_on_c, 5, 72, 84
11, 58259, Note_on_c, 5, 60, 0
11, 58259, Note_on_c, 5, 72, 0
11, 58320, Note_on_c, 5, 72, 84
11, 58320, Note_on_c, 5, 60, 84
11, 58491, Note_on_c, 5, 72, 0
11, 58491, Note_on_c, 5, 60, 0
11, 58500, Note_on_c, 5, 60, 84
11, 58500, Note_on_c, 5, 72, 84
11, 58551, Note_on_c, 5, 60, 0
11, 58551, Note_on_c, 5, 72, 0
11, 58560, Note_on_c, 5, 60, 84
11, 58560, Note_on_c, 5, 72, 84
11, 58739, Note_on_c, 5, 60, 0
11, 58739, Note_on_c, 5, 72, 0
11, 65520, Note_on_c, 5, 60, 76
11, 65520, Note_on_c, 5, 72, 76
11, 65699, Note_on_c, 5, 60, 0
11, 65699, Note_on_c, 5, 72, 0
11, 65760, Note_on_c, 5, 72, 84
11, 65760, Note_on_c, 5, 60, 84
11, 66104, Note_on_c, 5, 72, 0
11, 66104, Note_on_c, 5, 60, 0
11, 66120, Note_on_c, 5, 72, 76
11, 66120, Note_on_c, 5, 60, 76
11, 66224, Note_on_c, 5, 72, 0
11, 66224, Note_on_c, 5, 60, 0
11, 66240, Note_on_c, 5, 79, 84
11, 66479, Note_on_c, 5, 79, 0
11, 66960, Note_on_c, 5, 60, 84
11, 66960, Note_on_c, 5, 72, 84
11, 67139, Note_on_c, 5, 60, 0
11, 67139, Note_on_c, 5, 72, 0
11, 67680, Note_on_c, 5, 79, 84
11, 67859, Note_on_c, 5, 79, 0
11, 68400, Note_on_c, 5, 72, 84
11, 68400, Note_on_c, 5, 60, 84
11, 71264, Note_on_c, 5, 72, 0
11, 71264, Note_on_c, 5, 60, 0
11, 71280, Note_on_c, 5, 72, 92
11, 71280, Note_on_c, 5, 60, 92
11, 71519, Note_on_c, 5, 72, 0
11, 71519, Note_on_c, 5, 60, 0
11, 72000, Note_on_c, 5, 60, 92
11, 72000, Note_on_c, 5, 72, 92
11, 72239, Note_on_c, 5, 60, 0
11, 72239, Note_on_c, 5, 72, 0
11, 72720, Note_on_c, 5, 72, 92
11, 72720, Note_on_c, 5, 60, 92
11, 72959, Note_on_c, 5, 72, 0
11, 72959, Note_on_c, 5, 60, 0
11, 73440, Note_on_c, 5, 60, 92
11, 73440, Note_on_c, 5, 72, 92
11, 73679, Note_on_c, 5, 60, 0
11, 73679, Note_on_c, 5, 72, 0
11, 73800, Note_on_c, 5, 72, 84
11, 73800, Note_on_c, 5, 60, 84
11, 73904, Note_on_c, 5, 72, 0
11, 73904, Note_on_c, 5, 60, 0
11, 73920, Note_on_c, 5, 72, 84
11, 73920, Note_on_c, 5, 60, 84
11, 74024, Note_on_c, 5, 72, 0
11, 74024, Note_on_c, 5, 60, 0
11, 74040, Note_on_c, 5, 60, 84
11, 74040, Note_on_c, 5, 72, 84
11, 74144, Note_on_c, 5, 60, 0
11, 74144, Note_on_c, 5, 72, 0
11, 74160, Note_on_c, 5, 60, 76
11, 74160, Note_on_c, 5, 72, 76
11, 75344, Note_on_c, 5, 60, 0
11, 75344, Note_on_c, 5, 72, 0
11, 75360, Note_on_c, 5, 60, 76
11, 75360, Note_on_c, 5, 72, 76
11, 75449, Note_on_c, 5, 60, 0
11, 75449, Note_on_c, 5, 72, 0
11, 75480, Note_on_c, 5, 60, 76
11, 75480, Note_on_c, 5, 72, 76
11, 75569, Note_on_c, 5, 60, 0
11, 75569, Note_on_c, 5, 72, 0
11, 75600, Note_on_c, 5, 72, 76
11, 75600, Note_on_c, 5, 60, 76
11, 75824, Note_on_c, 5, 72, 0
11, 75824, Note_on_c, 5, 60, 0
11, 75840, Note_on_c, 5, 60, 76
11, 75840, Note_on_c, 5, 72, 76
11, 75929, Note_on_c, 5, 60, 0
11, 75929, Note_on_c, 5, 72, 0
11, 75960, Note_on_c, 5, 60, 76
11, 75960, Note_on_c, 5, 72, 76
11, 76049, Note_on_c, 5, 60, 0
11, 76049, Note_on_c, 5, 72, 0
11, 76080, Note_on_c, 5, 60, 76
11, 76080, Note_on_c, 5, 72, 76
11, 76169, Note_on_c, 5, 60, 0
11, 76169, Note_on_c, 5, 72, 0
11, 76200, Note_on_c, 5, 72, 76
11, 76200, Note_on_c, 5, 60, 76
11, 76289, Note_on_c, 5, 72, 0
11, 76289, Note_on_c, 5, 60, 0
11, 76320, Note_on_c, 5, 60, 76
11, 76320, Note_on_c, 5, 72, 76
11, 76559, Note_on_c, 5, 60, 0
11, 76559, Note_on_c, 5, 72, 0
11, 80640, Note_on_c, 5, 60, 76
11, 80640, Note_on_c, 5, 72, 76
11, 81344, Note_on_c, 5, 60, 0
11, 81344, Note_on_c, 5, 72, 0
11, 81360, Note_on_c, 5, 60, 76
11, 81360, Note_on_c, 5, 72, 76
11, 81479, Note_on_c, 5, 60, 0
11, 81479, Note_on_c, 5, 72, 0
11, 81600, Note_on_c, 5, 72, 76
11, 81600, Note_on_c, 5, 60, 76
11, 81719, Note_on_c, 5, 72, 0
11, 81719, Note_on_c, 5, 60, 0
11, 81840, Note_on_c, 5, 60, 76
11, 81840, Note_on_c, 5, 72, 76
11, 81959, Note_on_c, 5, 60, 0
11, 81959, Note_on_c, 5, 72, 0
11, 82080, Note_on_c, 5, 65, 76
11, 82319, Note_on_c, 5, 65, 0
11, 83460, Note_on_c, 5, 77, 76
11, 83460, Note_on_c, 5, 65, 76
11, 83511, Note_on_c, 5, 77, 0
11, 83511, Note_on_c, 5, 65, 0
11, 83520, Note_on_c, 5, 65, 76
11, 83520, Note_on_c, 5, 77, 76
11, 83759, Note_on_c, 5, 65, 0
11, 83759, Note_on_c, 5, 77, 0
11, 84900, Note_on_c, 5, 65, 76
11, 84900, Note_on_c, 5, 77, 76
11, 84951, Note_on_c, 5, 65, 0
11, 84951, Note_on_c, 5, 77, 0
11, 84960, Note_on_c, 5, 77, 76
11, 84960, Note_on_c, 5, 65, 76
11, 85199, Note_on_c, 5, 77, 0
11, 85199, Note_on_c, 5, 65, 0
11, 86340, Note_on_c, 5, 65, 76
11, 86340, Note_on_c, 5, 77, 76
11, 86391, Note_on_c, 5, 65, 0
11, 86391, Note_on_c, 5, 77, 0
11, 86400, Note_on_c, 5, 60, 76
11, 86400, Note_on_c, 5, 72, 76
11, 86864, Note_on_c, 5, 60, 0
11, 86864, Note_on_c, 5, 72, 0
11, 86880, Note_on_c, 5, 60, 76
11, 86880, Note_on_c, 5, 72, 76
11, 86999, Note_on_c, 5, 60, 0
11, 86999, Note_on_c, 5, 72, 0
11, 87120, Note_on_c, 5, 72, 76
11, 87120, Note_on_c, 5, 60, 76
11, 87239, Note_on_c, 5, 72, 0
11, 87239, Note_on_c, 5, 60, 0
11, 87360, Note_on_c, 5, 60, 76
11, 87360, Note_on_c, 5, 72, 76
11, 87479, Note_on_c, 5, 60, 0
11, 87479, Note_on_c, 5, 72, 0
11, 87600, Note_on_c, 5, 60, 76
11, 87600, Note_on_c, 5, 72, 76
11, 87719, Note_on_c, 5, 60, 0
11, 87719, Note_on_c, 5, 72, 0
11, 87840, Note_on_c, 5, 77, 76
11, 87840, Note_on_c, 5, 65, 76
11, 89211, Note_on_c, 5, 77, 0
11, 89211, Note_on_c, 5, 65, 0
11, 89220, Note_on_c, 5, 77, 76
11, 89220, Note_on_c, 5, 65, 76
11, 89271, Note_on_c, 5, 77, 0
11, 89271, Note_on_c, 5, 65, 0
11, 89280, Note_on_c, 5, 65, 76
11, 89280, Note_on_c, 5, 77, 76
11, 90651, Note_on_c, 5, 65, 0
11, 90651, Note_on_c, 5, 77, 0
11, 90660, Note_on_c, 5, 65, 76
11, 90660, Note_on_c, 5, 77, 76
11, 90711, Note_on_c, 5, 65, 0
11, 90711, Note_on_c, 5, 77, 0
11, 90720, Note_on_c, 5, 65, 76
11, 92091, Note_on_c, 5, 65, 0
11, 92100, Note_on_c, 5, 65, 76
11, 92151, Note_on_c, 5, 65, 0
11, 92160, Note_on_c, 5, 65, 76
11, 93531, Note_on_c, 5, 65, 0
11, 93540, Note_on_c, 5, 65, 76
11, 93591, Note_on_c, 5, 65, 0
11, 93600, Note_on_c, 5, 65, 76
11, 94064, Note_on_c, 5, 65, 0
11, 94080, Note_on_c, 5, 65, 84
11, 94251, Note_on_c, 5, 65, 0
11, 94260, Note_on_c, 5, 65, 76
11, 94311, Note_on_c, 5, 65, 0
11, 94320, Note_on_c, 5, 65, 76
11, 94784, Note_on_c, 5, 65, 0
11, 94800, Note_on_c, 5, 65, 84
11, 94971, Note_on_c, 5, 65, 0
11, 94980, Note_on_c, 5, 65, 76
11, 95031, Note_on_c, 5, 65, 0
11, 95040, Note_on_c, 5, 65, 76
11, 95159, Note_on_c, 5, 65, 0
11, 95520, Note_on_c, 5, 65, 84
11, 95639, Note_on_c, 5, 65, 0
11, 95760, Note_on_c, 5, 65, 76
11, 95879, Note_on_c, 5, 65, 0
11, 96240, Note_on_c, 5, 65, 84
11, 96359, Note_on_c, 5, 65, 0
11, 96480, Note_on_c, 5, 65, 76
11, 96599, Note_on_c, 5, 65, 0
11, 113040, Note_on_c, 5, 60, 44
11, 113040, Note_on_c, 5, 72, 44
11, 113219, Note_on_c, 5, 60, 0
11, 113219, Note_on_c, 5, 72, 0
11, 113520, Note_on_c, 5, 60, 44
11, 113520, Note_on_c, 5, 72, 44
11, 113699, Note_on_c, 5, 60, 0
11, 113699, Note_on_c, 5, 72, 0
11, 113760, Note_on_c, 5, 60, 44
11, 113760, Note_on_c, 5, 72, 44
11, 113939, Note_on_c, 5, 60, 0
11, 113939, Note_on_c, 5, 72, 0
11, 115920, Note_on_c, 5, 60, 44
11, 115920, Note_on_c, 5, 72, 44
11, 116099, Note_on_c, 5, 60, 0
11, 116099, Note_on_c, 5, 72, 0
11, 116400, Note_on_c, 5, 60, 44
11, 116400, Note_on_c, 5, 72, 44
11, 116579, Note_on_c, 5, 60, 0
11, 116579, Note_on_c, 5, 72, 0
11, 119520, Note_on_c, 5, 60, 84
11, 119520, Note_on_c, 5, 72, 84
11, 119699, Note_on_c, 5, 60, 0
11, 119699, Note_on_c, 5, 72, 0
11, 120240, Note_on_c, 5, 65, 84
11, 120419, Note_on_c, 5, 65, 0
11, 120960, Note_on_c, 5, 65, 84
11, 121139, Note_on_c, 5, 65, 0
11, 121440, Note_on_c, 5, 65, 84
11, 121619, Note_on_c, 5, 65, 0
11, 121680, Note_on_c, 5, 60, 84
11, 121680, Note_on_c, 5, 72, 84
11, 121859, Note_on_c, 5, 60, 0
11, 121859, Note_on_c, 5, 72, 0
11, 122160, Note_on_c, 5, 60, 84
11, 122160, Note_on_c, 5, 72, 84
11, 122339, Note_on_c, 5, 60, 0
11, 122339, Note_on_c, 5, 72, 0
11, 122400, Note_on_c, 5, 60, 84
11, 122400, Note_on_c, 5, 72, 84
11, 122579, Note_on_c, 5, 60, 0
11, 122579, Note_on_c, 5, 72, 0
11, 122880, Note_on_c, 5, 72, 84
11, 122880, Note_on_c, 5, 60, 84
11, 123059, Note_on_c, 5, 72, 0
11, 123059, Note_on_c, 5, 60, 0
11, 123120, Note_on_c, 5, 79, 84
11, 123299, Note_on_c, 5, 79, 0
11, 123600, Note_on_c, 5, 79, 84
11, 123779, Note_on_c, 5, 79, 0
11, 123840, Note_on_c, 5, 72, 84
11, 123840, Note_on_c, 5, 60, 84
11, 124011, Note_on_c, 5, 72, 0
11, 124011, Note_on_c, 5, 60, 0
11, 124020, Note_on_c, 5, 72, 84
11, 124020, Note_on_c, 5, 60, 84
11, 124071, Note_on_c, 5, 72, 0
11, 124071, Note_on_c, 5, 60, 0
11, 124080, Note_on_c, 5, 60, 84
11, 124080, Note_on_c, 5, 72, 84
11, 124259, Note_on_c, 5, 60, 0
11, 124259, Note_on_c, 5, 72, 0
11, 124320, Note_on_c, 5, 72, 84
11, 124320, Note_on_c, 5, 60, 84
11, 124491, Note_on_c, 5, 72, 0
11, 124491, Note_on_c, 5, 60, 0
11, 124500, Note_on_c, 5, 72, 84
11, 124500, Note_on_c, 5, 60, 84
11, 124551, Note_on_c, 5, 72, 0
11, 124551, Note_on_c, 5, 60, 0
11, 124560, Note_on_c, 5, 60, 84
11, 124560, Note_on_c, 5, 72, 84
11, 124739, Note_on_c, 5, 60, 0
11, 124739, Note_on_c, 5, 72, 0
11, 124800, Note_on_c, 5, 60, 84
11, 124800, Note_on_c, 5, 72, 84
11, 124971, Note_on_c, 5, 60, 0
11, 124971, Note_on_c, 5, 72, 0
11, 124980, Note_on_c, 5, 60, 84
11, 124980, Note_on_c, 5, 72, 84
11, 125031, Note_on_c, 5, 60, 0
11, 125031, Note_on_c, 5, 72, 0
11, 125040, Note_on_c, 5, 72, 84
11, 125040, Note_on_c, 5, 60, 84
11, 125219, Note_on_c, 5, 72, 0
11, 125219, Note_on_c, 5, 60, 0
11, 125280, Note_on_c, 5, 60, 84
11, 125280, Note_on_c, 5, 72, 84
11, 125451, Note_on_c, 5, 60, 0
11, 125451, Note_on_c, 5, 72, 0
11, 125460, Note_on_c, 5, 72, 84
11, 125460, Note_on_c, 5, 60, 84
11, 125511, Note_on_c, 5, 72, 0
11, 125511, Note_on_c, 5, 60, 0
11, 125520, Note_on_c, 5, 72, 84
11, 125520, Note_on_c, 5, 60, 84
11, 125699, Note_on_c, 5, 72, 0
11, 125699, Note_on_c, 5, 60, 0
11, 131040, Note_on_c, 5, 60, 84
11, 131040, Note_on_c, 5, 72, 84
11, 131211, Note_on_c, 5, 60, 0
11, 131211, Note_on_c, 5, 72, 0
11, 131220, Note_on_c, 5, 72, 84
11, 131220, Note_on_c, 5, 60, 84
11, 131271, Note_on_c, 5, 72, 0
11, 131271, Note_on_c, 5, 60, 0
11, 131280, Note_on_c, 5, 72, 84
11, 131280, Note_on_c, 5, 60, 84
11, 131459, Note_on_c, 5, 72, 0
11, 131459, Note_on_c, 5, 60, 0
11, 131520, Note_on_c, 5, 60, 84
11, 131520, Note_on_c, 5, 72, 84
11, 131691, Note_on_c, 5, 60, 0
11, 131691, Note_on_c, 5, 72, 0
11, 131700, Note_on_c, 5, 72, 84
11, 131700, Note_on_c, 5, 60, 84
11, 131751, Note_on_c, 5, 72, 0
11, 131751, Note_on_c, 5, 60, 0
11, 131760, Note_on_c, 5, 72, 84
11, 131760, Note_on_c, 5, 60, 84
11, 131939, Note_on_c, 5, 72, 0
11, 131939, Note_on_c, 5, 60, 0
11, 132000, Note_on_c, 5, 72, 84
11, 132000, Note_on_c, 5, 60, 84
11, 132171, Note_on_c, 5, 72, 0
11, 132171, Note_on_c, 5, 60, 0
11, 132180, Note_on_c, 5, 72, 84
11, 132180, Note_on_c, 5, 60, 84
11, 132231, Note_on_c, 5, 72, 0
11, 132231, Note_on_c, 5, 60, 0
11, 132240, Note_on_c, 5, 60, 84
11, 132240, Note_on_c, 5, 72, 84
11, 132419, Note_on_c, 5, 60, 0
11, 132419, Note_on_c, 5, 72, 0
11, 132480, Note_on_c, 5, 60, 84
11, 132480, Note_on_c, 5, 72, 84
11, 132651, Note_on_c, 5, 60, 0
11, 132651, Note_on_c, 5, 72, 0
11, 132660, Note_on_c, 5, 72, 84
11, 132660, Note_on_c, 5, 60, 84
11, 132711, Note_on_c, 5, 72, 0
11, 132711, Note_on_c, 5, 60, 0
11, 132720, Note_on_c, 5, 60, 84
11, 132720, Note_on_c, 5, 72, 84
11, 132899, Note_on_c, 5, 60, 0
11, 132899, Note_on_c, 5, 72, 0
11, 139680, Note_on_c, 5, 60, 76
11, 139680, Note_on_c, 5, 72, 76
11, 139859, Note_on_c, 5, 60, 0
11, 139859, Note_on_c, 5, 72, 0
11, 139920, Note_on_c, 5, 60, 84
11, 139920, Note_on_c, 5, 72, 84
11, 140264, Note_on_c, 5, 60, 0
11, 140264, Note_on_c, 5, 72, 0
11, 140280, Note_on_c, 5, 72, 76
11, 140280, Note_on_c, 5, 60, 76
11, 140384, Note_on_c, 5, 72, 0
11, 140384, Note_on_c, 5, 60, 0
11, 140400, Note_on_c, 5, 79, 84
11, 140639, Note_on_c, 5, 79, 0
11, 141120, Note_on_c, 5, 60, 84
11, 141120, Note_on_c, 5, 72, 84
11, 141299, Note_on_c, 5, 60, 0
11, 141299, Note_on_c, 5, 72, 0
11, 141840, Note_on_c, 5, 79, 84
11, 142019, Note_on_c, 5, 79, 0
11, 142560, Note_on_c, 5, 72, 84
11, 142560, Note_on_c, 5, 60, 84
11, 145424, Note_on_c, 5, 72, 0
11, 145424, Note_on_c, 5, 60, 0
11, 145440, Note_on_c, 5, 60, 92
11, 145440, Note_on_c, 5, 72, 92
11, 145679, Note_on_c, 5, 60, 0
11, 145679, Note_on_c, 5, 72, 0
11, 146160, Note_on_c, 5, 60, 92
11, 146160, Note_on_c, 5, 72, 92
11, 146399, Note_on_c, 5, 60, 0
11, 146399, Note_on_c, 5, 72, 0
11, 146880, Note_on_c, 5, 60, 92
11, 146880, Note_on_c, 5, 72, 92
11, 147119, Note_on_c, 5, 60, 0
11, 147119, Note_on_c, 5, 72, 0
11, 147600, Note_on_c, 5, 72, 92
11, 147600, Note_on_c, 5, 60, 92
11, 147839, Note_on_c, 5, 72, 0
11, 147839, Note_on_c, 5, 60, 0
11, 147960, Note_on_c, 5, 60, 84
11, 147960, Note_on_c, 5, 72, 84
11, 148064, Note_on_c, 5, 60, 0
11, 148064, Note_on_c, 5, 72, 0
11, 148080, Note_on_c, 5, 60, 84
11, 148080, Note_on_c, 5, 72, 84
11, 148184, Note_on_c, 5, 60, 0
11, 148184, Note_on_c, 5, 72, 0
11, 148200, Note_on_c, 5, 60, 84
11, 148200, Note_on_c, 5, 72, 84
11, 148304, Note_on_c, 5, 60, 0
11, 148304, Note_on_c, 5, 72, 0
11, 148320, Note_on_c, 5, 60, 84
11, 148320, Note_on_c, 5, 72, 84
11, 148559, Note_on_c, 5, 60, 0
11, 148559, Note_on_c, 5, 72, 0
11, 154080, Note_on_c, 5, 60, 84
11, 154080, Note_on_c, 5, 72, 84
11, 156944, Note_on_c, 5, 60, 0
11, 156944, Note_on_c, 5, 72, 0
11, 156960, Note_on_c, 5, 72, 84
11, 156960, Note_on_c, 5, 60, 84
11, 157139, Note_on_c, 5, 72, 0
11, 157139, Note_on_c, 5, 60, 0
11, 162720, Note_on_c, 5, 65, 84
11, 162720, Note_on_c, 5, 77, 84
11, 165599, Note_on_c, 5, 65, 0
11, 165599, Note_on_c, 5, 77, 0
11, 171360, Note_on_c, 5, 81, 84
11, 171360, Note_on_c, 5, 69, 84
11, 174224, Note_on_c, 5, 81, 0
11, 174224, Note_on_c, 5, 69, 0
11, 174240, Note_on_c, 5, 81, 84
11, 174240, Note_on_c, 5, 69, 84
11, 174479, Note_on_c, 5, 81, 0
11, 174479, Note_on_c, 5, 69, 0
11, 174960, Note_on_c, 5, 69, 92
11, 174960, Note_on_c, 5, 81, 92
11, 175199, Note_on_c, 5, 69, 0
11, 175199, Note_on_c, 5, 81, 0
11, 175680, Note_on_c, 5, 81, 84
11, 175680, Note_on_c, 5, 69, 84
11, 175919, Note_on_c, 5, 81, 0
11, 175919, Note_on_c, 5, 69, 0
11, 176400, Note_on_c, 5, 81, 92
11, 176400, Note_on_c, 5, 69, 92
11, 176639, Note_on_c, 5, 81, 0
11, 176639, Note_on_c, 5, 69, 0
11, 177120, Note_on_c, 5, 69, 84
11, 177120, Note_on_c, 5, 81, 84
11, 177359, Note_on_c, 5, 69, 0
11, 177359, Note_on_c, 5, 81, 0
11, 187200, Note_on_c, 5, 72, 84
11, 187200, Note_on_c, 5, 60, 84
11, 187439, Note_on_c, 5, 72, 0
11, 187439, Note_on_c, 5, 60, 0
11, 187440, Note_on_c, 5, 60, 92
11, 187440, Note_on_c, 5, 72, 92
11, 187889, Note_on_c, 5, 60, 0
11, 187889, Note_on_c, 5, 72, 0
11, 187920, Note_on_c, 5, 60, 84
11, 187920, Note_on_c, 5, 72, 84
11, 188159, Note_on_c, 5, 60, 0
11, 188159, Note_on_c, 5, 72, 0
11, 188160, Note_on_c, 5, 60, 92
11, 188160, Note_on_c, 5, 72, 92
11, 188729, Note_on_c, 5, 60, 0
11, 188729, Note_on_c, 5, 72, 0
11, 188760, Note_on_c, 5, 65, 84
11, 188760, Note_on_c, 5, 77, 84
11, 188864, Note_on_c, 5, 65, 0
11, 188864, Note_on_c, 5, 77, 0
11, 188880, Note_on_c, 5, 65, 84
11, 188880, Note_on_c, 5, 77, 84
11, 188984, Note_on_c, 5, 65, 0
11, 188984, Note_on_c, 5, 77, 0
11, 189000, Note_on_c, 5, 65, 84
11, 189000, Note_on_c, 5, 77, 84
11, 189104, Note_on_c, 5, 65, 0
11, 189104, Note_on_c, 5, 77, 0
11, 189120, Note_on_c, 5, 77, 84
11, 189120, Note_on_c, 5, 65, 84
11, 189224, Note_on_c, 5, 77, 0
11, 189224, Note_on_c, 5, 65, 0
11, 189240, Note_on_c, 5, 77, 84
11, 189240, Note_on_c, 5, 65, 84
11, 189344, Note_on_c, 5, 77, 0
11, 189344, Note_on_c, 5, 65, 0
11, 189360, Note_on_c, 5, 77, 84
11, 189360, Note_on_c, 5, 65, 84
11, 189584, Note_on_c, 5, 77, 0
11, 189584, Note_on_c, 5, 65, 0
11, 189600, Note_on_c, 5, 65, 92
11, 189600, Note_on_c, 5, 77, 92
11, 190049, Note_on_c, 5, 65, 0
11, 190049, Note_on_c, 5, 77, 0
11, 190080, Note_on_c, 5, 77, 84
11, 190080, Note_on_c, 5, 65, 84
11, 190184, Note_on_c, 5, 77, 0
11, 190184, Note_on_c, 5, 65, 0
11, 190200, Note_on_c, 5, 77, 84
11, 190200, Note_on_c, 5, 65, 84
11, 190304, Note_on_c, 5, 77, 0
11, 190304, Note_on_c, 5, 65, 0
11, 190320, Note_on_c, 5, 65, 84
11, 190320, Note_on_c, 5, 77, 84
11, 190424, Note_on_c, 5, 65, 0
11, 190424, Note_on_c, 5, 77, 0
11, 190440, Note_on_c, 5, 77, 84
11, 190440, Note_on_c, 5, 65, 84
11, 190544, Note_on_c, 5, 77, 0
11, 190544, Note_on_c, 5, 65, 0
11, 190560, Note_on_c, 5, 77, 84
11, 190560, Note_on_c, 5, 65, 84
11, 190664, Note_on_c, 5, 77, 0
11, 190664, Note_on_c, 5, 65, 0
11, 190680, Note_on_c, 5, 65, 84
11, 190680, Note_on_c, 5, 77, 84
11, 190784, Note_on_c, 5, 65, 0
11, 190784, Note_on_c, 5, 77, 0
11, 190800, Note_on_c, 5, 65, 84
11, 190800, Note_on_c, 5, 77, 84
11, 191024, Note_on_c, 5, 65, 0
11, 191024, Note_on_c, 5, 77, 0
11, 191040, Note_on_c, 5, 77, 92
11, 191040, Note_on_c, 5, 65, 92
11, 191519, Note_on_c, 5, 77, 0
11, 191519, Note_on_c, 5, 65, 0
11, 191760, Note_on_c, 5, 79, 92
11, 192239, Note_on_c, 5, 79, 0
11, 192240, Note_on_c, 5, 72, 84
11, 192240, Note_on_c, 5, 60, 84
11, 192464, Note_on_c, 5, 72, 0
11, 192464, Note_on_c, 5, 60, 0
11, 192480, Note_on_c, 5, 60, 92
11, 192480, Note_on_c, 5, 72, 92
11, 192929, Note_on_c, 5, 60, 0
11, 192929, Note_on_c, 5, 72, 0
11, 192960, Note_on_c, 5, 77, 84
11, 192960, Note_on_c, 5, 65, 84
11, 193184, Note_on_c, 5, 77, 0
11, 193184, Note_on_c, 5, 65, 0
11, 193200, Note_on_c, 5, 60, 92
11, 193200, Note_on_c, 5, 72, 92
11, 193649, Note_on_c, 5, 60, 0
11, 193649, Note_on_c, 5, 72, 0
11, 193680, Note_on_c, 5, 65, 84
11, 193680, Note_on_c, 5, 77, 84
11, 193904, Note_on_c, 5, 65, 0
11, 193904, Note_on_c, 5, 77, 0
11, 193920, Note_on_c, 5, 60, 92
11, 193920, Note_on_c, 5, 72, 92
11, 194369, Note_on_c, 5, 60, 0
11, 194369, Note_on_c, 5, 72, 0
11, 194400, Note_on_c, 5, 65, 84
11, 194400, Note_on_c, 5, 77, 84
11, 194519, Note_on_c, 5, 65, 0
11, 194519, Note_on_c, 5, 77, 0
11, 194640, Note_on_c, 5, 77, 92
11, 194640, Note_on_c, 5, 65, 92
11, 195119, Note_on_c, 5, 77, 0
11, 195119, Note_on_c, 5, 65, 0
11, 195360, Note_on_c, 5, 77, 92
11, 195360, Note_on_c, 5, 65, 92
11, 195839, Note_on_c, 5, 77, 0
11, 195839, Note_on_c, 5, 65, 0
11, 196080, Note_on_c, 5, 77, 92
11, 196080, Note_on_c, 5, 65, 92
11, 196559, Note_on_c, 5, 77, 0
11, 196559, Note_on_c, 5, 65, 0
11, 196800, Note_on_c, 5, 77, 92
11, 196800, Note_on_c, 5, 65, 92
11, 197249, Note_on_c, 5, 77, 0
11, 197249, Note_on_c, 5, 65, 0
11, 197280, Note_on_c, 5, 77, 84
11, 197280, Note_on_c, 5, 65, 84
11, 197399, Note_on_c, 5, 77, 0
11, 197399, Note_on_c, 5, 65, 0
11, 197520, Note_on_c, 5, 77, 92
11, 197520, Note_on_c, 5, 65, 92
11, 197999, Note_on_c, 5, 77, 0
11, 197999, Note_on_c, 5, 65, 0
11, 198240, Note_on_c, 5, 65, 92
11, 198240, Note_on_c, 5, 77, 92
11, 198719, Note_on_c, 5, 65, 0
11, 198719, Note_on_c, 5, 77, 0
11, 198960, Note_on_c, 5, 65, 92
11, 198960, Note_on_c, 5, 77, 92
11, 199439, Note_on_c, 5, 65, 0
11, 199439, Note_on_c, 5, 77, 0
11, 199680, Note_on_c, 5, 77, 92
11, 199680, Note_on_c, 5, 65, 92
11, 200129, Note_on_c, 5, 77, 0
11, 200129, Note_on_c, 5, 65, 0
11, 200160, Note_on_c, 5, 65, 84
11, 200160, Note_on_c, 5, 77, 84
11, 200279, Note_on_c, 5, 65, 0
11, 200279, Note_on_c, 5, 77, 0
11, 200400, Note_on_c, 5, 65, 92
11, 200400, Note_on_c, 5, 77, 92
11, 200879, Note_on_c, 5, 65, 0
11, 200879, Note_on_c, 5, 77, 0
11, 201120, Note_on_c, 5, 65, 92
11, 201120, Note_on_c, 5, 77, 92
11, 201599, Note_on_c, 5, 65, 0
11, 201599, Note_on_c, 5, 77, 0
11, 201840, Note_on_c, 5, 77, 92
11, 201840, Note_on_c, 5, 65, 92
11, 202319, Note_on_c, 5, 77, 0
11, 202319, Note_on_c, 5, 65, 0
11, 202560, Note_on_c, 5, 65, 92
11, 202560, Note_on_c, 5, 77, 92
11, 203009, Note_on_c, 5, 65, 0
11, 203009, Note_on_c, 5, 77, 0
11, 203040, Note_on_c, 5, 65, 84
11, 203040, Note_on_c, 5, 77, 84
11, 203159, Note_on_c, 5, 65, 0
11, 203159, Note_on_c, 5, 77, 0
11, 203280, Note_on_c, 5, 77, 92
11, 203280, Note_on_c, 5, 65, 92
11, 204449, Note_on_c, 5, 77, 0
11, 204449, Note_on_c, 5, 65, 0
11, 204480, Note_on_c, 5, 65, 84
11, 204480, Note_on_c, 5, 77, 84
11, 204599, Note_on_c, 5, 65, 0
11, 204599, Note_on_c, 5, 77, 0
11, 204720, Note_on_c, 5, 77, 92
11, 204720, Note_on_c, 5, 65, 92
11, 205889, Note_on_c, 5, 77, 0
11, 205889, Note_on_c, 5, 65, 0
11, 205920, Note_on_c, 5, 72, 92
11, 205920, Note_on_c, 5, 60, 92
11, 206009, Note_on_c, 5, 72, 0
11, 206009, Note_on_c, 5, 60, 0
11, 206160, Note_on_c, 5, 60, 84
11, 206160, Note_on_c, 5, 72, 84
11, 206249, Note_on_c, 5, 60, 0
11, 206249, Note_on_c, 5, 72, 0
11, 206640, Note_on_c, 5, 72, 92
11, 206640, Note_on_c, 5, 60, 92
11, 206729, Note_on_c, 5, 72, 0
11, 206729, Note_on_c, 5, 60, 0
11, 206880, Note_on_c, 5, 72, 84
11, 206880, Note_on_c, 5, 60, 84
11, 206969, Note_on_c, 5, 72, 0
11, 206969, Note_on_c, 5, 60, 0
11, 207360, Note_on_c, 5, 60, 92
11, 207360, Note_on_c, 5, 72, 92
11, 207449, Note_on_c, 5, 60, 0
11, 207449, Note_on_c, 5, 72, 0
11, 207600, Note_on_c, 5, 72, 84
11, 207600, Note_on_c, 5, 60, 84
11, 207689, Note_on_c, 5, 72, 0
11, 207689, Note_on_c, 5, 60, 0
11, 208080, Note_on_c, 5, 72, 92
11, 208080, Note_on_c, 5, 60, 92
11, 208169, Note_on_c, 5, 72, 0
11, 208169, Note_on_c, 5, 60, 0
11, 208320, Note_on_c, 5, 60, 84
11, 208320, Note_on_c, 5, 72, 84
11, 208409, Note_on_c, 5, 60, 0
11, 208409, Note_on_c, 5, 72, 0
11, 208800, Note_on_c, 5, 72, 88
11, 208800, Note_on_c, 5, 60, 88
11, 208889, Note_on_c, 5, 72, 0
11, 208889, Note_on_c, 5, 60, 0
11, 209040, Note_on_c, 5, 60, 88
11, 209040, Note_on_c, 5, 72, 88
11, 210104, Note_on_c, 5, 60, 0
11, 210104, Note_on_c, 5, 72, 0
11, 210120, Note_on_c, 5, 72, 88
11, 210120, Note_on_c, 5, 60, 88
11, 210224, Note_on_c, 5, 72, 0
11, 210224, Note_on_c, 5, 60, 0
11, 210240, Note_on_c, 5, 60, 92
11, 210240, Note_on_c, 5, 72, 92
11, 210944, Note_on_c, 5, 60, 0
11, 210944, Note_on_c, 5, 72, 0
11, 210960, Note_on_c, 5, 72, 92
11, 210960, Note_on_c, 5, 60, 92
11, 211424, Note_on_c, 5, 72, 0
11, 211424, Note_on_c, 5, 60, 0
11, 211440, Note_on_c, 5, 72, 92
11, 211440, Note_on_c, 5, 60, 92
11, 211664, Note_on_c, 5, 72, 0
11, 211664, Note_on_c, 5, 60, 0
11, 211680, Note_on_c, 5, 72, 92
11, 211680, Note_on_c, 5, 60, 92
11, 212144, Note_on_c, 5, 72, 0
11, 212144, Note_on_c, 5, 60, 0
11, 212160, Note_on_c, 5, 60, 92
11, 212160, Note_on_c, 5, 72, 92
11, 212384, Note_on_c, 5, 60, 0
11, 212384, Note_on_c, 5, 72, 0
11, 212400, Note_on_c, 5, 72, 92
11, 212400, Note_on_c, 5, 60, 92
11, 213104, Note_on_c, 5, 72, 0
11, 213104, Note_on_c, 5, 60, 0
11, 213120, Note_on_c, 5, 72, 92
11, 213120, Note_on_c, 5, 60, 92
11, 213824, Note_on_c, 5, 72, 0
11, 213824, Note_on_c, 5, 60, 0
11, 213840, Note_on_c, 5, 72, 92
11, 213840, Note_on_c, 5, 60, 92
11, 214304, Note_on_c, 5, 72, 0
11, 214304, Note_on_c, 5, 60, 0
11, 214320, Note_on_c, 5, 72, 92
11, 214320, Note_on_c, 5, 60, 92
11, 214544, Note_on_c, 5, 72, 0
11, 214544, Note_on_c, 5, 60, 0
11, 214560, Note_on_c, 5, 72, 92
11, 214560, Note_on_c, 5, 60, 92
11, 215024, Note_on_c, 5, 72, 0
11, 215024, Note_on_c, 5, 60, 0
11, 215040, Note_on_c, 5, 72, 92
11, 215040, Note_on_c, 5, 60, 92
11, 215264, Note_on_c, 5, 72, 0
11, 215264, Note_on_c, 5, 60, 0
11, 215280, Note_on_c, 5, 65, 92
11, 215519, Note_on_c, 5, 65, 0
11, 223920, Note_on_c, 5, 77, 76
11, 223920, Note_on_c, 5, 65, 76
11, 224159, Note_on_c, 5, 77, 0
11, 224159, Note_on_c, 5, 65, 0
11, 225300, Note_on_c, 5, 65, 76
11, 225300, Note_on_c, 5, 77, 76
11, 225351, Note_on_c, 5, 65, 0
11, 225351, Note_on_c, 5, 77, 0
11, 225360, Note_on_c, 5, 65, 76
11, 225360, Note_on_c, 5, 77, 76
11, 225599, Note_on_c, 5, 65, 0
11, 225599, Note_on_c, 5, 77, 0
11, 226740, Note_on_c, 5, 65, 76
11, 226740, Note_on_c, 5, 77, 76
11, 226791, Note_on_c, 5, 65, 0
11, 226791, Note_on_c, 5, 77, 0
11, 226800, Note_on_c, 5, 65, 76
11, 226800, Note_on_c, 5, 77, 76
11, 227039, Note_on_c, 5, 65, 0
11, 227039, Note_on_c, 5, 77, 0
11, 227460, Note_on_c, 5, 65, 76
11, 227460, Note_on_c, 5, 77, 76
11, 227511, Note_on_c, 5, 65, 0
11, 227511, Note_on_c, 5, 77, 0
11, 227520, Note_on_c, 5, 65, 76
11, 227520, Note_on_c, 5, 77, 76
11, 227759, Note_on_c, 5, 65, 0
11, 227759, Note_on_c, 5, 77, 0
11, 228180, Note_on_c, 5, 65, 76
11, 228180, Note_on_c, 5, 77, 76
11, 228231, Note_on_c, 5, 65, 0
11, 228231, Note_on_c, 5, 77, 0
11, 228240, Note_on_c, 5, 60, 76
11, 228240, Note_on_c, 5, 72, 76
11, 228479, Note_on_c, 5, 60, 0
11, 228479, Note_on_c, 5, 72, 0
11, 228900, Note_on_c, 5, 72, 76
11, 228900, Note_on_c, 5, 60, 76
11, 228951, Note_on_c, 5, 72, 0
11, 228951, Note_on_c, 5, 60, 0
11, 228960, Note_on_c, 5, 72, 76
11, 228960, Note_on_c, 5, 60, 76
11, 229079, Note_on_c, 5, 72, 0
11, 229079, Note_on_c, 5, 60, 0
11, 229200, Note_on_c, 5, 72, 76
11, 229200, Note_on_c, 5, 60, 76
11, 229319, Note_on_c, 5, 72, 0
11, 229319, Note_on_c, 5, 60, 0
11, 229440, Note_on_c, 5, 72, 76
11, 229440, Note_on_c, 5, 60, 76
11, 229559, Note_on_c, 5, 72, 0
11, 229559, Note_on_c, 5, 60, 0
11, 229680, Note_on_c, 5, 77, 84
11, 229680, Note_on_c, 5, 65, 84
11, 231044, Note_on_c, 5, 77, 0
11, 231044, Note_on_c, 5, 65, 0
11, 231060, Note_on_c, 5, 77, 84
11, 231060, Note_on_c, 5, 65, 84
11, 231111, Note_on_c, 5, 77, 0
11, 231111, Note_on_c, 5, 65, 0
11, 231120, Note_on_c, 5, 77, 84
11, 231120, Note_on_c, 5, 65, 84
11, 232484, Note_on_c, 5, 77, 0
11, 232484, Note_on_c, 5, 65, 0
11, 232500, Note_on_c, 5, 77, 84
11, 232500, Note_on_c, 5, 65, 84
11, 232551, Note_on_c, 5, 77, 0
11, 232551, Note_on_c, 5, 65, 0
11, 232560, Note_on_c, 5, 77, 84
11, 232560, Note_on_c, 5, 65, 84
11, 233924, Note_on_c, 5, 77, 0
11, 233924, Note_on_c, 5, 65, 0
11, 233940, Note_on_c, 5, 77, 84
11, 233940, Note_on_c, 5, 65, 84
11, 233991, Note_on_c, 5, 77, 0
11, 233991, Note_on_c, 5, 65, 0
11, 234000, Note_on_c, 5, 77, 84
11, 234000, Note_on_c, 5, 65, 84
11, 235364, Note_on_c, 5, 77, 0
11, 235364, Note_on_c, 5, 65, 0
11, 235380, Note_on_c, 5, 77, 84
11, 235380, Note_on_c, 5, 65, 84
11, 235431, Note_on_c, 5, 77, 0
11, 235431, Note_on_c, 5, 65, 0
11, 235440, Note_on_c, 5, 77, 84
11, 235440, Note_on_c, 5, 65, 84
11, 235904, Note_on_c, 5, 77, 0
11, 235904, Note_on_c, 5, 65, 0
11, 235920, Note_on_c, 5, 77, 92
11, 235920, Note_on_c, 5, 65, 92
11, 236084, Note_on_c, 5, 77, 0
11, 236084, Note_on_c, 5, 65, 0
11, 236100, Note_on_c, 5, 65, 84
11, 236100, Note_on_c, 5, 77, 84
11, 236151, Note_on_c, 5, 65, 0
11, 236151, Note_on_c, 5, 77, 0
11, 236160, Note_on_c, 5, 77, 84
11, 236160, Note_on_c, 5, 65, 84
11, 236624, Note_on_c, 5, 77, 0
11, 236624, Note_on_c, 5, 65, 0
11, 236640, Note_on_c, 5, 77, 92
11, 236640, Note_on_c, 5, 65, 92
11, 236804, Note_on_c, 5, 77, 0
11, 236804, Note_on_c, 5, 65, 0
11, 236820, Note_on_c, 5, 65, 84
11, 236820, Note_on_c, 5, 77, 84
11, 236871, Note_on_c, 5, 65, 0
11, 236871, Note_on_c, 5, 77, 0
11, 236880, Note_on_c, 5, 77, 84
11, 236880, Note_on_c, 5, 65, 84
11, 236999, Note_on_c, 5, 77, 0
11, 236999, Note_on_c, 5, 65, 0
11, 237360, Note_on_c, 5, 65, 92
11, 237479, Note_on_c, 5, 65, 0
11, 237600, Note_on_c, 5, 65, 84
11, 237719, Note_on_c, 5, 65, 0
11, 238080, Note_on_c, 5, 65, 92
11, 238199, Note_on_c, 5, 65, 0
11, 238320, Note_on_c, 5, 65, 84
11, 238439, Note_on_c, 5, 65, 0
11, 259920, Note_on_c, 5, 65, 72
11, 260099, Note_on_c, 5, 65, 0
11, 261360, Note_on_c, 5, 65, 84
11, 261539, Note_on_c, 5, 65, 0
11, 262080, Note_on_c, 5, 72, 92
11, 262080, Note_on_c, 5, 60, 92
11, 262259, Note_on_c, 5, 72, 0
11, 262259, Note_on_c, 5, 60, 0
11, 262800, Note_on_c, 5, 60, 84
11, 262800, Note_on_c, 5, 72, 84
11, 262979, Note_on_c, 5, 60, 0
11, 262979, Note_on_c, 5, 72, 0
11, 263280, Note_on_c, 5, 60, 84
11, 263280, Note_on_c, 5, 72, 84
11, 263459, Note_on_c, 5, 60, 0
11, 263459, Note_on_c, 5, 72, 0
11, 263520, Note_on_c, 5, 65, 84
11, 263520, Note_on_c, 5, 77, 84
11, 263699, Note_on_c, 5, 65, 0
11, 263699, Note_on_c, 5, 77, 0
11, 264000, Note_on_c, 5, 77, 84
11, 264000, Note_on_c, 5, 65, 84
11, 264179, Note_on_c, 5, 77, 0
11, 264179, Note_on_c, 5, 65, 0
11, 264240, Note_on_c, 5, 77, 84
11, 264240, Note_on_c, 5, 65, 84
11, 264419, Note_on_c, 5, 77, 0
11, 264419, Note_on_c, 5, 65, 0
11, 264720, Note_on_c, 5, 65, 84
11, 264720, Note_on_c, 5, 77, 84
11, 264899, Note_on_c, 5, 65, 0
11, 264899, Note_on_c, 5, 77, 0
11, 264960, Note_on_c, 5, 72, 84
11, 264960, Note_on_c, 5, 60, 84
11, 265139, Note_on_c, 5, 72, 0
11, 265139, Note_on_c, 5, 60, 0
11, 265440, Note_on_c, 5, 72, 84
11, 265440, Note_on_c, 5, 60, 84
11, 265619, Note_on_c, 5, 72, 0
11, 265619, Note_on_c, 5, 60, 0
11, 265680, Note_on_c, 5, 65, 84
11, 265680, Note_on_c, 5, 77, 84
11, 265851, Note_on_c, 5, 65, 0
11, 265851, Note_on_c, 5, 77, 0
11, 265860, Note_on_c, 5, 77, 84
11, 265860, Note_on_c, 5, 65, 84
11, 265911, Note_on_c, 5, 77, 0
11, 265911, Note_on_c, 5, 65, 0
11, 265920, Note_on_c, 5, 77, 84
11, 265920, Note_on_c, 5, 65, 84
11, 266099, Note_on_c, 5, 77, 0
11, 266099, Note_on_c, 5, 65, 0
11, 266160, Note_on_c, 5, 65, 84
11, 266160, Note_on_c, 5, 77, 84
11, 266331, Note_on_c, 5, 65, 0
11, 266331, Note_on_c, 5, 77, 0
11, 266340, Note_on_c, 5, 77, 84
11, 266340, Note_on_c, 5, 65, 84
11, 266391, Note_on_c, 5, 77, 0
11, 266391, Note_on_c, 5, 65, 0
11, 266400, Note_on_c, 5, 65, 84
11, 266400, Note_on_c, 5, 77, 84
11, 266579, Note_on_c, 5, 65, 0
11, 266579, Note_on_c, 5, 77, 0
11, 266640, Note_on_c, 5, 65, 84
11, 266640, Note_on_c, 5, 77, 84
11, 266811, Note_on_c, 5, 65, 0
11, 266811, Note_on_c, 5, 77, 0
11, 266820, Note_on_c, 5, 77, 84
11, 266820, Note_on_c, 5, 65, 84
11, 266871, Note_on_c, 5, 77, 0
11, 266871, Note_on_c, 5, 65, 0
11, 266880, Note_on_c, 5, 65, 84
11, 266880, Note_on_c, 5, 77, 84
11, 267059, Note_on_c, 5, 65, 0
11, 267059, Note_on_c, 5, 77, 0
11, 267120, Note_on_c, 5, 77, 84
11, 267120, Note_on_c, 5, 65, 84
11, 267291, Note_on_c, 5, 77, 0
11, 267291, Note_on_c, 5, 65, 0
11, 267300, Note_on_c, 5, 77, 84
11, 267300, Note_on_c, 5, 65, 84
11, 267351, Note_on_c, 5, 77, 0
11, 267351, Note_on_c, 5, 65, 0
11, 267360, Note_on_c, 5, 65, 84
11, 267360, Note_on_c, 5, 77, 84
11, 267539, Note_on_c, 5, 65, 0
11, 267539, Note_on_c, 5, 77, 0
11, 272880, Note_on_c, 5, 77, 84
11, 272880, Note_on_c, 5, 65, 84
11, 273051, Note_on_c, 5, 77, 0
11, 273051, Note_on_c, 5, 65, 0
11, 273060, Note_on_c, 5, 77, 84
11, 273060, Note_on_c, 5, 65, 84
11, 273111, Note_on_c, 5, 77, 0
11, 273111, Note_on_c, 5, 65, 0
11, 273120, Note_on_c, 5, 65, 84
11, 273120, Note_on_c, 5, 77, 84
11, 273299, Note_on_c, 5, 65, 0
11, 273299, Note_on_c, 5, 77, 0
11, 273360, Note_on_c, 5, 77, 84
11, 273360, Note_on_c, 5, 65, 84
11, 273531, Note_on_c, 5, 77, 0
11, 273531, Note_on_c, 5, 65, 0
11, 273540, Note_on_c, 5, 77, 84
11, 273540, Note_on_c, 5, 65, 84
11, 273591, Note_on_c, 5, 77, 0
11, 273591, Note_on_c, 5, 65, 0
11, 273600, Note_on_c, 5, 65, 84
11, 273600, Note_on_c, 5, 77, 84
11, 273779, Note_on_c, 5, 65, 0
11, 273779, Note_on_c, 5, 77, 0
11, 273840, Note_on_c, 5, 77, 84
11, 273840, Note_on_c, 5, 65, 84
11, 274011, Note_on_c, 5, 77, 0
11, 274011, Note_on_c, 5, 65, 0
11, 274020, Note_on_c, 5, 77, 84
11, 274020, Note_on_c, 5, 65, 84
11, 274071, Note_on_c, 5, 77, 0
11, 274071, Note_on_c, 5, 65, 0
11, 274080, Note_on_c, 5, 77, 84
11, 274080, Note_on_c, 5, 65, 84
11, 274259, Note_on_c, 5, 77, 0
11, 274259, Note_on_c, 5, 65, 0
11, 274320, Note_on_c, 5, 77, 84
11, 274320, Note_on_c, 5, 65, 84
11, 274491, Note_on_c, 5, 77, 0
11, 274491, Note_on_c, 5, 65, 0
11, 274500, Note_on_c, 5, 77, 84
11, 274500, Note_on_c, 5, 65, 84
11, 274551, Note_on_c, 5, 77, 0
11, 274551, Note_on_c, 5, 65, 0
11, 274560, Note_on_c, 5, 77, 84
11, 274560, Note_on_c, 5, 65, 84
11, 274739, Note_on_c, 5, 77, 0
11, 274739, Note_on_c, 5, 65, 0
11, 281520, Note_on_c, 5, 65, 76
11, 281759, Note_on_c, 5, 65, 0
11, 282240, Note_on_c, 5, 60, 84
11, 282240, Note_on_c, 5, 72, 84
11, 282479, Note_on_c, 5, 60, 0
11, 282479, Note_on_c, 5, 72, 0
11, 282960, Note_on_c, 5, 69, 84
11, 282960, Note_on_c, 5, 65, 84
11, 283199, Note_on_c, 5, 69, 0
11, 283199, Note_on_c, 5, 65, 0
11, 283680, Note_on_c, 5, 72, 84
11, 283680, Note_on_c, 5, 60, 84
11, 283919, Note_on_c, 5, 72, 0
11, 283919, Note_on_c, 5, 60, 0
11, 284400, Note_on_c, 5, 77, 84
11, 284400, Note_on_c, 5, 65, 84
11, 287264, Note_on_c, 5, 77, 0
11, 287264, Note_on_c, 5, 65, 0
11, 287280, Note_on_c, 5, 77, 92
11, 287280, Note_on_c, 5, 65, 92
11, 287519, Note_on_c, 5, 77, 0
11, 287519, Note_on_c, 5, 65, 0
11, 288000, Note_on_c, 5, 77, 92
11, 288000, Note_on_c, 5, 65, 92
11, 288239, Note_on_c, 5, 77, 0
11, 288239, Note_on_c, 5, 65, 0
11, 288720, Note_on_c, 5, 77, 92
11, 288720, Note_on_c, 5, 65, 92
11, 288959, Note_on_c, 5, 77, 0
11, 288959, Note_on_c, 5, 65, 0
11, 289440, Note_on_c, 5, 77, 92
11, 289440, Note_on_c, 5, 65, 92
11, 289679, Note_on_c, 5, 77, 0
11, 289679, Note_on_c, 5, 65, 0
11, 289800, Note_on_c, 5, 65, 84
11, 289800, Note_on_c, 5, 77, 84
11, 289904, Note_on_c, 5, 65, 0
11, 289904, Note_on_c, 5, 77, 0
11, 289920, Note_on_c, 5, 77, 84
11, 289920, Note_on_c, 5, 65, 84
11, 290024, Note_on_c, 5, 77, 0
11, 290024, Note_on_c, 5, 65, 0
11, 290040, Note_on_c, 5, 77, 84
11, 290040, Note_on_c, 5, 65, 84
11, 290144, Note_on_c, 5, 77, 0
11, 290144, Note_on_c, 5, 65, 0
11, 290160, Note_on_c, 5, 65, 84
11, 290160, Note_on_c, 5, 77, 84
11, 290399, Note_on_c, 5, 65, 0
11, 290399, Note_on_c, 5, 77, 0
11, 306000, Note_on_c, 5, 77, 84
11, 306000, Note_on_c, 5, 65, 84
11, 306359, Note_on_c, 5, 77, 0
11, 306359, Note_on_c, 5, 65, 0
11, 306720, Note_on_c, 5, 77, 92
11, 306720, Note_on_c, 5, 65, 92
11, 307079, Note_on_c, 5, 77, 0
11, 307079, Note_on_c, 5, 65, 0
11, 307440, Note_on_c, 5, 79, 92
11, 307799, Note_on_c, 5, 79, 0
11, 308160, Note_on_c, 5, 79, 92
11, 308519, Note_on_c, 5, 79, 0
11, 308880, Note_on_c, 5, 79, 92
11, 309239, Note_on_c, 5, 79, 0
11, 309600, Note_on_c, 5, 60, 92
11, 309600, Note_on_c, 5, 72, 92
11, 310064, Note_on_c, 5, 60, 0
11, 310064, Note_on_c, 5, 72, 0
11, 310080, Note_on_c, 5, 72, 84
11, 310080, Note_on_c, 5, 60, 84
11, 310199, Note_on_c, 5, 72, 0
11, 310199, Note_on_c, 5, 60, 0
11, 310320, Note_on_c, 5, 60, 92
11, 310320, Note_on_c, 5, 72, 92
11, 310439, Note_on_c, 5, 60, 0
11, 310439, Note_on_c, 5, 72, 0
11, 310560, Note_on_c, 5, 72, 84
11, 310560, Note_on_c, 5, 60, 84
11, 310679, Note_on_c, 5, 72, 0
11, 310679, Note_on_c, 5, 60, 0
11, 310800, Note_on_c, 5, 72, 84
11, 310800, Note_on_c, 5, 60, 84
11, 310919, Note_on_c, 5, 72, 0
11, 310919, Note_on_c, 5, 60, 0
11, 311040, Note_on_c, 5, 60, 92
11, 311040, Note_on_c, 5, 72, 92
11, 311159, Note_on_c, 5, 60, 0
11, 311159, Note_on_c, 5, 72, 0
11, 311280, Note_on_c, 5, 72, 84
11, 311280, Note_on_c, 5, 60, 84
11, 311399, Note_on_c, 5, 72, 0
11, 311399, Note_on_c, 5, 60, 0
11, 311520, Note_on_c, 5, 72, 84
11, 311520, Note_on_c, 5, 60, 84
11, 311639, Note_on_c, 5, 72, 0
11, 311639, Note_on_c, 5, 60, 0
11, 311760, Note_on_c, 5, 72, 92
11, 311760, Note_on_c, 5, 60, 92
11, 311879, Note_on_c, 5, 72, 0
11, 311879, Note_on_c, 5, 60, 0
11, 312000, Note_on_c, 5, 60, 84
11, 312000, Note_on_c, 5, 72, 84
11, 312119, Note_on_c, 5, 60, 0
11, 312119, Note_on_c, 5, 72, 0
11, 312240, Note_on_c, 5, 72, 84
11, 312240, Note_on_c, 5, 60, 84
11, 312359, Note_on_c, 5, 72, 0
11, 312359, Note_on_c, 5, 60, 0
11, 312960, Note_on_c, 5, 72, 92
11, 312960, Note_on_c, 5, 60, 92
11, 313199, Note_on_c, 5, 72, 0
11, 313199, Note_on_c, 5, 60, 0
11, 318960, Note_on_c, 5, 72, 76
11, 318960, Note_on_c, 5, 60, 76
11, 319424, Note_on_c, 5, 72, 0
11, 319424, Note_on_c, 5, 60, 0
11, 319440, Note_on_c, 5, 72, 84
11, 319440, Note_on_c, 5, 60, 84
11, 319664, Note_on_c, 5, 72, 0
11, 319664, Note_on_c, 5, 60, 0
11, 319680, Note_on_c, 5, 72, 76
11, 319680, Note_on_c, 5, 60, 76
11, 320144, Note_on_c, 5, 72, 0
11, 320144, Note_on_c, 5, 60, 0
11, 320160, Note_on_c, 5, 72, 84
11, 320160, Note_on_c, 5, 60, 84
11, 320384, Note_on_c, 5, 72, 0
11, 320384, Note_on_c, 5, 60, 0
11, 320400, Note_on_c, 5, 72, 76
11, 320400, Note_on_c, 5, 60, 76
11, 320864, Note_on_c, 5, 72, 0
11, 320864, Note_on_c, 5, 60, 0
11, 320880, Note_on_c, 5, 72, 84
11, 320880, Note_on_c, 5, 60, 84
11, 321104, Note_on_c, 5, 72, 0
11, 321104, Note_on_c, 5, 60, 0
11, 321120, Note_on_c, 5, 72, 76
11, 321120, Note_on_c, 5, 60, 76
11, 321584, Note_on_c, 5, 72, 0
11, 321584, Note_on_c, 5, 60, 0
11, 321600, Note_on_c, 5, 77, 84
11, 321600, Note_on_c, 5, 65, 84
11, 321824, Note_on_c, 5, 77, 0
11, 321824, Note_on_c, 5, 65, 0
11, 321840, Note_on_c, 5, 65, 76
11, 321840, Note_on_c, 5, 77, 76
11, 322304, Note_on_c, 5, 65, 0
11, 322304, Note_on_c, 5, 77, 0
11, 322320, Note_on_c, 5, 77, 84
11, 322320, Note_on_c, 5, 65, 84
11, 322544, Note_on_c, 5, 77, 0
11, 322544, Note_on_c, 5, 65, 0
11, 322560, Note_on_c, 5, 77, 76
11, 322560, Note_on_c, 5, 65, 76
11, 323024, Note_on_c, 5, 77, 0
11, 323024, Note_on_c, 5, 65, 0
11, 323040, Note_on_c, 5, 60, 84
11, 323040, Note_on_c, 5, 72, 84
11, 323264, Note_on_c, 5, 60, 0
11, 323264, Note_on_c, 5, 72, 0
11, 323280, Note_on_c, 5, 72, 76
11, 323280, Note_on_c, 5, 60, 76
11, 323984, Note_on_c, 5, 72, 0
11, 323984, Note_on_c, 5, 60, 0
11, 324000, Note_on_c, 5, 77, 76
11, 324000, Note_on_c, 5, 65, 76
11, 324464, Note_on_c, 5, 77, 0
11, 324464, Note_on_c, 5, 65, 0
11, 324480, Note_on_c, 5, 65, 84
11, 324480, Note_on_c, 5, 77, 84
11, 324704, Note_on_c, 5, 65, 0
11, 324704, Note_on_c, 5, 77, 0
11, 324720, Note_on_c, 5, 77, 92
11, 324720, Note_on_c, 5, 65, 92
11, 325904, Note_on_c, 5, 77, 0
11, 325904, Note_on_c, 5, 65, 0
11, 325920, Note_on_c, 5, 81, 92
11, 325920, Note_on_c, 5, 69, 92
11, 326144, Note_on_c, 5, 81, 0
11, 326144, Note_on_c, 5, 69, 0
11, 326160, Note_on_c, 5, 81, 92
11, 326160, Note_on_c, 5, 69, 92
11, 326279, Note_on_c, 5, 81, 0
11, 326279, Note_on_c, 5, 69, 0
11, 326880, Note_on_c, 5, 81, 92
11, 326880, Note_on_c, 5, 69, 92
11, 326999, Note_on_c, 5, 81, 0
11, 326999, Note_on_c, 5, 69, 0
11, 327600, Note_on_c, 5, 81, 92
11, 327600, Note_on_c, 5, 69, 92
11, 327719, Note_on_c, 5, 81, 0
11, 327719, Note_on_c, 5, 69, 0
11, 328320, Note_on_c, 5, 72, 92
11, 328320, Note_on_c, 5, 60, 92
11, 328439, Note_on_c, 5, 72, 0
11, 328439, Note_on_c, 5, 60, 0
11, 328560, Note_on_c, 5, 72, 92
11, 328560, Note_on_c, 5, 60, 92
11, 328679, Note_on_c, 5, 72, 0
11, 328679, Note_on_c, 5, 60, 0
11, 328800, Note_on_c, 5, 72, 92
11, 328800, Note_on_c, 5, 60, 92
11, 328919, Note_on_c, 5, 72, 0
11, 328919, Note_on_c, 5, 60, 0
11, 329040, Note_on_c, 5, 81, 92
11, 329040, Note_on_c, 5, 69, 92
11, 329159, Note_on_c, 5, 81, 0
11, 329159, Note_on_c, 5, 69, 0
11, 329760, Note_on_c, 5, 81, 92
11, 329760, Note_on_c, 5, 69, 92
11, 329879, Note_on_c, 5, 81, 0
11, 329879, Note_on_c, 5, 69, 0
11, 330480, Note_on_c, 5, 81, 92
11, 330480, Note_on_c, 5, 69, 92
11, 330599, Note_on_c, 5, 81, 0
11, 330599, Note_on_c, 5, 69, 0
11, 331200, Note_on_c, 5, 72, 92
11, 331200, Note_on_c, 5, 60, 92
11, 331319, Note_on_c, 5, 72, 0
11, 331319, Note_on_c, 5, 60, 0
11, 331440, Note_on_c, 5, 72, 92
11, 331440, Note_on_c, 5, 60, 92
11, 331559, Note_on_c, 5, 72, 0
11, 331559, Note_on_c, 5, 60, 0
11, 331680, Note_on_c, 5, 72, 92
11, 331680, Note_on_c, 5, 60, 92
11, 331799, Note_on_c, 5, 72, 0
11, 331799, Note_on_c, 5, 60, 0
11, 332640, Note_on_c, 5, 72, 92
11, 332640, Note_on_c, 5, 60, 92
11, 332759, Note_on_c, 5, 72, 0
11, 332759, Note_on_c, 5, 60, 0
11, 332880, Note_on_c, 5, 72, 92
11, 332880, Note_on_c, 5, 60, 92
11, 332999, Note_on_c, 5, 72, 0
11, 332999, Note_on_c, 5, 60, 0
11, 333120, Note_on_c, 5, 60, 92
11, 333120, Note_on_c, 5, 72, 92
11, 333239, Note_on_c, 5, 60, 0
11, 333239, Note_on_c, 5, 72, 0
11, 334800, Note_on_c, 5, 72, 52
11, 334800, Note_on_c, 5, 60, 52
11, 335024, Note_on_c, 5, 72, 0
11, 335024, Note_on_c, 5, 60, 0
11, 335040, Note_on_c, 5, 72, 52
11, 335040, Note_on_c, 5, 60, 52
11, 335264, Note_on_c, 5, 72, 0
11, 335264, Note_on_c, 5, 60, 0
11, 335280, Note_on_c, 5, 60, 52
11, 335280, Note_on_c, 5, 72, 52
11, 335519, Note_on_c, 5, 60, 0
11, 335519, Note_on_c, 5, 72, 0
11, 336240, Note_on_c, 5, 72, 52
11, 336240, Note_on_c, 5, 60, 52
11, 336464, Note_on_c, 5, 72, 0
11, 336464, Note_on_c, 5, 60, 0
11, 336480, Note_on_c, 5, 72, 52
11, 336480, Note_on_c, 5, 60, 52
11, 336704, Note_on_c, 5, 72, 0
11, 336704, Note_on_c, 5, 60, 0
11, 336720, Note_on_c, 5, 60, 52
11, 336720, Note_on_c, 5, 72, 52
11, 336959, Note_on_c, 5, 60, 0
11, 336959, Note_on_c, 5, 72, 0
11, 337680, Control_c, 5, 11, 127
11, 337680, Note_on_c, 5, 72, 52
11, 337680, Note_on_c, 5, 60, 52
11, 337860, Control_c, 5, 11, 126
11, 337904, Note_on_c, 5, 72, 0
11, 337904, Note_on_c, 5, 60, 0
11, 337920, Note_on_c, 5, 60, 52
11, 337920, Note_on_c, 5, 72, 52
11, 338040, Control_c, 5, 11, 125
11, 338159, Note_on_c, 5, 60, 0
11, 338159, Note_on_c, 5, 72, 0
11, 338220, Control_c, 5, 11, 123
11, 338400, Control_c, 5, 11, 122
11, 338580, Control_c, 5, 11, 121
11, 338760, Control_c, 5, 11, 120
11, 338940, Control_c, 5, 11, 118
11, 339120, Note_on_c, 5, 72, 52
11, 339120, Control_c, 5, 11, 117
11, 339120, Note_on_c, 5, 60, 52
11, 339300, Control_c, 5, 11, 116
11, 339344, Note_on_c, 5, 72, 0
11, 339344, Note_on_c, 5, 60, 0
11, 339360, Note_on_c, 5, 72, 52
11, 339360, Note_on_c, 5, 60, 52
11, 339480, Control_c, 5, 11, 115
11, 339599, Note_on_c, 5, 72, 0
11, 339599, Note_on_c, 5, 60, 0
11, 339660, Control_c, 5, 11, 127
11, 339840, Note_on_c, 5, 60, 44
11, 339840, Note_on_c, 5, 72, 44
11, 340544, Note_on_c, 5, 60, 0
11, 340544, Note_on_c, 5, 72, 0
11, 340560, Note_on_c, 5, 72, 44
11, 340560, Note_on_c, 5, 60, 44
11, 341264, Note_on_c, 5, 72, 0
11, 341264, Note_on_c, 5, 60, 0
11, 341280, Note_on_c, 5, 72, 44
11, 341280, Note_on_c, 5, 60, 44
11, 341399, Note_on_c, 5, 72, 0
11, 341399, Note_on_c, 5, 60, 0
11, 341520, Note_on_c, 5, 60, 44
11, 341520, Note_on_c, 5, 72, 44
11, 341639, Note_on_c, 5, 60, 0
11, 341639, Note_on_c, 5, 72, 0
11, 341760, Note_on_c, 5, 72, 44
11, 341760, Note_on_c, 5, 60, 44
11, 341879, Note_on_c, 5, 72, 0
11, 341879, Note_on_c, 5, 60, 0
11, 342000, Note_on_c, 5, 72, 44
11, 342000, Note_on_c, 5, 60, 44
11, 342239, Note_on_c, 5, 72, 0
11, 342239, Note_on_c, 5, 60, 0
11, 342239, End_track
12, 0, Start_track
12, 0, Title_t, "Timpani"
12, 0, MIDI_port, 0
12, 0, Program_c, 6, 47
12, 0, Control_c, 6, 7, 96
12, 0, Control_c, 6, 10, 25
12, 0, Control_c, 6, 11, 127
12, 0, Note_on_c, 6, 41, 76
12, 239, Note_on_c, 6, 41, 0
12, 1200, Note_on_c, 6, 41, 76
12, 1319, Note_on_c, 6, 41, 0
12, 1320, Note_on_c, 6, 41, 76
12, 1439, Note_on_c, 6, 41, 0
12, 1440, Note_on_c, 6, 48, 76
12, 1679, Note_on_c, 6, 48, 0
12, 1680, Note_on_c, 6, 48, 76
12, 1799, Note_on_c, 6, 48, 0
12, 1800, Note_on_c, 6, 48, 76
12, 1919, Note_on_c, 6, 48, 0
12, 1920, Note_on_c, 6, 48, 76
12, 2039, Note_on_c, 6, 48, 0
12, 2040, Note_on_c, 6, 48, 76
12, 2159, Note_on_c, 6, 48, 0
12, 2160, Note_on_c, 6, 48, 76
12, 2399, Note_on_c, 6, 48, 0
12, 6480, Note_on_c, 6, 48, 76
12, 6719, Note_on_c, 6, 48, 0
12, 7200, Note_on_c, 6, 48, 76
12, 7319, Note_on_c, 6, 48, 0
12, 7440, Note_on_c, 6, 48, 76
12, 7559, Note_on_c, 6, 48, 0
12, 7680, Note_on_c, 6, 48, 76
12, 7799, Note_on_c, 6, 48, 0
12, 7920, Note_on_c, 6, 41, 76
12, 8159, Note_on_c, 6, 41, 0
12, 9300, Note_on_c, 6, 41, 76
12, 9359, Note_on_c, 6, 41, 0
12, 9360, Note_on_c, 6, 41, 76
12, 9599, Note_on_c, 6, 41, 0
12, 10740, Note_on_c, 6, 41, 76
12, 10799, Note_on_c, 6, 41, 0
12, 10800, Note_on_c, 6, 41, 76
12, 11039, Note_on_c, 6, 41, 0
12, 12180, Note_on_c, 6, 41, 76
12, 12239, Note_on_c, 6, 41, 0
12, 12240, Note_on_c, 6, 48, 76
12, 12479, Note_on_c, 6, 48, 0
12, 12720, Note_on_c, 6, 48, 76
12, 12839, Note_on_c, 6, 48, 0
12, 12960, Note_on_c, 6, 48, 76
12, 13079, Note_on_c, 6, 48, 0
12, 13200, Note_on_c, 6, 48, 76
12, 13319, Note_on_c, 6, 48, 0
12, 13440, Note_on_c, 6, 48, 76
12, 13559, Note_on_c, 6, 48, 0
12, 13680, Note_on_c, 6, 41, 72
12, 13709, Note_on_c, 6, 41, 0
12, 13710, Note_on_c, 6, 41, 76
12, 13739, Note_on_c, 6, 41, 0
12, 13740, Note_on_c, 6, 41, 73
12, 13769, Note_on_c, 6, 41, 0
12, 13770, Note_on_c, 6, 41, 78
12, 13799, Note_on_c, 6, 41, 0
12, 13800, Note_on_c, 6, 41, 76
12, 13829, Note_on_c, 6, 41, 0
12, 13830, Note_on_c, 6, 41, 75
12, 13859, Note_on_c, 6, 41, 0
12, 13860, Note_on_c, 6, 41, 74
12, 13889, Note_on_c, 6, 41, 0
12, 13890, Note_on_c, 6, 41, 79
12, 13919, Note_on_c, 6, 41, 0
12, 13920, Note_on_c, 6, 41, 78
12, 13949, Note_on_c, 6, 41, 0
12, 13950, Note_on_c, 6, 41, 77
12, 13979, Note_on_c, 6, 41, 0
12, 13980, Note_on_c, 6, 41, 73
12, 14009, Note_on_c, 6, 41, 0
12, 14010, Note_on_c, 6, 41, 78
12, 14039, Note_on_c, 6, 41, 0
12, 14040, Note_on_c, 6, 41, 77
12, 14069, Note_on_c, 6, 41, 0
12, 14070, Note_on_c, 6, 41, 76
12, 14099, Note_on_c, 6, 41, 0
12, 14100, Note_on_c, 6, 41, 74
12, 14129, Note_on_c, 6, 41, 0
12, 14130, Note_on_c, 6, 41, 72
12, 14159, Note_on_c, 6, 41, 0
12, 14160, Note_on_c, 6, 41, 72
12, 14189, Note_on_c, 6, 41, 0
12, 14190, Note_on_c, 6, 41, 74
12, 14219, Note_on_c, 6, 41, 0
12, 14220, Note_on_c, 6, 41, 73
12, 14249, Note_on_c, 6, 41, 0
12, 14250, Note_on_c, 6, 41, 73
12, 14279, Note_on_c, 6, 41, 0
12, 14280, Note_on_c, 6, 41, 79
12, 14309, Note_on_c, 6, 41, 0
12, 14310, Note_on_c, 6, 41, 75
12, 14339, Note_on_c, 6, 41, 0
12, 14340, Note_on_c, 6, 41, 72
12, 14369, Note_on_c, 6, 41, 0
12, 14370, Note_on_c, 6, 41, 72
12, 14399, Note_on_c, 6, 41, 0
12, 14400, Note_on_c, 6, 41, 76
12, 14639, Note_on_c, 6, 41, 0
12, 15060, Note_on_c, 6, 41, 76
12, 15119, Note_on_c, 6, 41, 0
12, 15120, Note_on_c, 6, 41, 72
12, 15149, Note_on_c, 6, 41, 0
12, 15150, Note_on_c, 6, 41, 75
12, 15179, Note_on_c, 6, 41, 0
12, 15180, Note_on_c, 6, 41, 76
12, 15209, Note_on_c, 6, 41, 0
12, 15210, Note_on_c, 6, 41, 76
12, 15239, Note_on_c, 6, 41, 0
12, 15240, Note_on_c, 6, 41, 76
12, 15269, Note_on_c, 6, 41, 0
12, 15270, Note_on_c, 6, 41, 76
12, 15299, Note_on_c, 6, 41, 0
12, 15300, Note_on_c, 6, 41, 73
12, 15329, Note_on_c, 6, 41, 0
12, 15330, Note_on_c, 6, 41, 77
12, 15359, Note_on_c, 6, 41, 0
12, 15360, Note_on_c, 6, 41, 75
12, 15389, Note_on_c, 6, 41, 0
12, 15390, Note_on_c, 6, 41, 74
12, 15419, Note_on_c, 6, 41, 0
12, 15420, Note_on_c, 6, 41, 72
12, 15449, Note_on_c, 6, 41, 0
12, 15450, Note_on_c, 6, 41, 76
12, 15479, Note_on_c, 6, 41, 0
12, 15480, Note_on_c, 6, 41, 78
12, 15509, Note_on_c, 6, 41, 0
12, 15510, Note_on_c, 6, 41, 78
12, 15539, Note_on_c, 6, 41, 0
12, 15540, Note_on_c, 6, 41, 76
12, 15569, Note_on_c, 6, 41, 0
12, 15570, Note_on_c, 6, 41, 74
12, 15599, Note_on_c, 6, 41, 0
12, 15600, Note_on_c, 6, 41, 79
12, 15629, Note_on_c, 6, 41, 0
12, 15630, Note_on_c, 6, 41, 77
12, 15659, Note_on_c, 6, 41, 0
12, 15660, Note_on_c, 6, 41, 79
12, 15689, Note_on_c, 6, 41, 0
12, 15690, Note_on_c, 6, 41, 79
12, 15719, Note_on_c, 6, 41, 0
12, 15720, Note_on_c, 6, 41, 76
12, 15749, Note_on_c, 6, 41, 0
12, 15750, Note_on_c, 6, 41, 73
12, 15779, Note_on_c, 6, 41, 0
12, 15780, Note_on_c, 6, 41, 75
12, 15809, Note_on_c, 6, 41, 0
12, 15810, Note_on_c, 6, 41, 73
12, 15839, Note_on_c, 6, 41, 0
12, 15840, Note_on_c, 6, 41, 76
12, 16079, Note_on_c, 6, 41, 0
12, 16500, Note_on_c, 6, 41, 76
12, 16559, Note_on_c, 6, 41, 0
12, 16560, Note_on_c, 6, 41, 78
12, 16589, Note_on_c, 6, 41, 0
12, 16590, Note_on_c, 6, 41, 73
12, 16619, Note_on_c, 6, 41, 0
12, 16620, Note_on_c, 6, 41, 78
12, 16649, Note_on_c, 6, 41, 0
12, 16650, Note_on_c, 6, 41, 78
12, 16679, Note_on_c, 6, 41, 0
12, 16680, Note_on_c, 6, 41, 79
12, 16709, Note_on_c, 6, 41, 0
12, 16710, Note_on_c, 6, 41, 79
12, 16739, Note_on_c, 6, 41, 0
12, 16740, Note_on_c, 6, 41, 76
12, 16769, Note_on_c, 6, 41, 0
12, 16770, Note_on_c, 6, 41, 75
12, 16799, Note_on_c, 6, 41, 0
12, 16800, Note_on_c, 6, 41, 74
12, 16829, Note_on_c, 6, 41, 0
12, 16830, Note_on_c, 6, 41, 74
12, 16859, Note_on_c, 6, 41, 0
12, 16860, Note_on_c, 6, 41, 78
12, 16889, Note_on_c, 6, 41, 0
12, 16890, Note_on_c, 6, 41, 72
12, 16919, Note_on_c, 6, 41, 0
12, 16920, Note_on_c, 6, 41, 75
12, 16949, Note_on_c, 6, 41, 0
12, 16950, Note_on_c, 6, 41, 72
12, 16979, Note_on_c, 6, 41, 0
12, 16980, Note_on_c, 6, 41, 77
12, 17009, Note_on_c, 6, 41, 0
12, 17010, Note_on_c, 6, 41, 72
12, 17039, Note_on_c, 6, 41, 0
12, 17040, Note_on_c, 6, 41, 72
12, 17069, Note_on_c, 6, 41, 0
12, 17070, Note_on_c, 6, 41, 79
12, 17099, Note_on_c, 6, 41, 0
12, 17100, Note_on_c, 6, 41, 74
12, 17129, Note_on_c, 6, 41, 0
12, 17130, Note_on_c, 6, 41, 74
12, 17159, Note_on_c, 6, 41, 0
12, 17160, Note_on_c, 6, 41, 76
12, 17189, Note_on_c, 6, 41, 0
12, 17190, Note_on_c, 6, 41, 77
12, 17219, Note_on_c, 6, 41, 0
12, 17220, Note_on_c, 6, 41, 78
12, 17249, Note_on_c, 6, 41, 0
12, 17250, Note_on_c, 6, 41, 77
12, 17279, Note_on_c, 6, 41, 0
12, 17280, Note_on_c, 6, 41, 76
12, 17519, Note_on_c, 6, 41, 0
12, 17940, Note_on_c, 6, 41, 76
12, 17999, Note_on_c, 6, 41, 0
12, 18000, Note_on_c, 6, 41, 75
12, 18029, Note_on_c, 6, 41, 0
12, 18030, Note_on_c, 6, 41, 73
12, 18059, Note_on_c, 6, 41, 0
12, 18060, Note_on_c, 6, 41, 77
12, 18089, Note_on_c, 6, 41, 0
12, 18090, Note_on_c, 6, 41, 75
12, 18119, Note_on_c, 6, 41, 0
12, 18120, Note_on_c, 6, 41, 75
12, 18149, Note_on_c, 6, 41, 0
12, 18150, Note_on_c, 6, 41, 79
12, 18179, Note_on_c, 6, 41, 0
12, 18180, Note_on_c, 6, 41, 77
12, 18209, Note_on_c, 6, 41, 0
12, 18210, Note_on_c, 6, 41, 72
12, 18239, Note_on_c, 6, 41, 0
12, 18240, Note_on_c, 6, 41, 76
12, 18269, Note_on_c, 6, 41, 0
12, 18270, Note_on_c, 6, 41, 75
12, 18299, Note_on_c, 6, 41, 0
12, 18300, Note_on_c, 6, 41, 77
12, 18329, Note_on_c, 6, 41, 0
12, 18330, Note_on_c, 6, 41, 76
12, 18359, Note_on_c, 6, 41, 0
12, 18360, Note_on_c, 6, 41, 76
12, 18389, Note_on_c, 6, 41, 0
12, 18390, Note_on_c, 6, 41, 74
12, 18419, Note_on_c, 6, 41, 0
12, 18420, Note_on_c, 6, 41, 73
12, 18449, Note_on_c, 6, 41, 0
12, 18450, Note_on_c, 6, 41, 73
12, 18479, Note_on_c, 6, 41, 0
12, 18480, Note_on_c, 6, 41, 75
12, 18509, Note_on_c, 6, 41, 0
12, 18510, Note_on_c, 6, 41, 78
12, 18539, Note_on_c, 6, 41, 0
12, 18540, Note_on_c, 6, 41, 76
12, 18569, Note_on_c, 6, 41, 0
12, 18570, Note_on_c, 6, 41, 79
12, 18599, Note_on_c, 6, 41, 0
12, 18600, Note_on_c, 6, 41, 78
12, 18629, Note_on_c, 6, 41, 0
12, 18630, Note_on_c, 6, 41, 74
12, 18659, Note_on_c, 6, 41, 0
12, 18660, Note_on_c, 6, 41, 73
12, 18689, Note_on_c, 6, 41, 0
12, 18690, Note_on_c, 6, 41, 77
12, 18719, Note_on_c, 6, 41, 0
12, 18720, Note_on_c, 6, 41, 76
12, 18959, Note_on_c, 6, 41, 0
12, 19380, Note_on_c, 6, 41, 76
12, 19439, Note_on_c, 6, 41, 0
12, 19440, Note_on_c, 6, 41, 75
12, 19469, Note_on_c, 6, 41, 0
12, 19470, Note_on_c, 6, 41, 72
12, 19499, Note_on_c, 6, 41, 0
12, 19500, Note_on_c, 6, 41, 77
12, 19529, Note_on_c, 6, 41, 0
12, 19530, Note_on_c, 6, 41, 76
12, 19559, Note_on_c, 6, 41, 0
12, 19560, Note_on_c, 6, 41, 73
12, 19589, Note_on_c, 6, 41, 0
12, 19590, Note_on_c, 6, 41, 79
12, 19619, Note_on_c, 6, 41, 0
12, 19620, Note_on_c, 6, 41, 73
12, 19649, Note_on_c, 6, 41, 0
12, 19650, Note_on_c, 6, 41, 79
12, 19679, Note_on_c, 6, 41, 0
12, 19680, Note_on_c, 6, 41, 77
12, 19709, Note_on_c, 6, 41, 0
12, 19710, Note_on_c, 6, 41, 74
12, 19739, Note_on_c, 6, 41, 0
12, 19740, Note_on_c, 6, 41, 75
12, 19769, Note_on_c, 6, 41, 0
12, 19770, Note_on_c, 6, 41, 72
12, 19799, Note_on_c, 6, 41, 0
12, 19800, Note_on_c, 6, 41, 79
12, 19829, Note_on_c, 6, 41, 0
12, 19830, Note_on_c, 6, 41, 77
12, 19859, Note_on_c, 6, 41, 0
12, 19860, Note_on_c, 6, 41, 73
12, 19889, Note_on_c, 6, 41, 0
12, 19890, Note_on_c, 6, 41, 79
12, 19919, Note_on_c, 6, 41, 0
12, 19920, Note_on_c, 6, 41, 84
12, 20099, Note_on_c, 6, 41, 0
12, 20100, Note_on_c, 6, 41, 76
12, 20159, Note_on_c, 6, 41, 0
12, 20160, Note_on_c, 6, 41, 78
12, 20189, Note_on_c, 6, 41, 0
12, 20190, Note_on_c, 6, 41, 76
12, 20219, Note_on_c, 6, 41, 0
12, 20220, Note_on_c, 6, 41, 73
12, 20249, Note_on_c, 6, 41, 0
12, 20250, Note_on_c, 6, 41, 73
12, 20279, Note_on_c, 6, 41, 0
12, 20280, Note_on_c, 6, 41, 78
12, 20309, Note_on_c, 6, 41, 0
12, 20310, Note_on_c, 6, 41, 75
12, 20339, Note_on_c, 6, 41, 0
12, 20340, Note_on_c, 6, 41, 73
12, 20369, Note_on_c, 6, 41, 0
12, 20370, Note_on_c, 6, 41, 76
12, 20399, Note_on_c, 6, 41, 0
12, 20400, Note_on_c, 6, 41, 77
12, 20429, Note_on_c, 6, 41, 0
12, 20430, Note_on_c, 6, 41, 75
12, 20459, Note_on_c, 6, 41, 0
12, 20460, Note_on_c, 6, 41, 74
12, 20489, Note_on_c, 6, 41, 0
12, 20490, Note_on_c, 6, 41, 76
12, 20519, Note_on_c, 6, 41, 0
12, 20520, Note_on_c, 6, 41, 77
12, 20549, Note_on_c, 6, 41, 0
12, 20550, Note_on_c, 6, 41, 78
12, 20579, Note_on_c, 6, 41, 0
12, 20580, Note_on_c, 6, 41, 77
12, 20609, Note_on_c, 6, 41, 0
12, 20610, Note_on_c, 6, 41, 75
12, 20639, Note_on_c, 6, 41, 0
12, 20640, Note_on_c, 6, 41, 84
12, 20819, Note_on_c, 6, 41, 0
12, 20820, Note_on_c, 6, 41, 76
12, 20879, Note_on_c, 6, 41, 0
12, 20880, Note_on_c, 6, 41, 76
12, 20999, Note_on_c, 6, 41, 0
12, 21360, Note_on_c, 6, 41, 84
12, 21479, Note_on_c, 6, 41, 0
12, 21600, Note_on_c, 6, 41, 76
12, 21719, Note_on_c, 6, 41, 0
12, 22080, Note_on_c, 6, 41, 84
12, 22199, Note_on_c, 6, 41, 0
12, 22320, Note_on_c, 6, 41, 76
12, 22439, Note_on_c, 6, 41, 0
12, 38880, Note_on_c, 6, 48, 44
12, 38999, Note_on_c, 6, 48, 0
12, 39360, Note_on_c, 6, 48, 44
12, 39479, Note_on_c, 6, 48, 0
12, 39600, Note_on_c, 6, 48, 44
12, 39719, Note_on_c, 6, 48, 0
12, 41760, Note_on_c, 6, 48, 44
12, 41879, Note_on_c, 6, 48, 0
12, 42240, Note_on_c, 6, 48, 44
12, 42359, Note_on_c, 6, 48, 0
12, 45360, Note_on_c, 6, 48, 84
12, 45479, Note_on_c, 6, 48, 0
12, 46080, Note_on_c, 6, 41, 84
12, 46199, Note_on_c, 6, 41, 0
12, 46800, Note_on_c, 6, 41, 84
12, 46919, Note_on_c, 6, 41, 0
12, 47280, Note_on_c, 6, 41, 84
12, 47399, Note_on_c, 6, 41, 0
12, 47520, Note_on_c, 6, 48, 84
12, 47639, Note_on_c, 6, 48, 0
12, 48000, Note_on_c, 6, 48, 84
12, 48119, Note_on_c, 6, 48, 0
12, 48240, Note_on_c, 6, 41, 84
12, 48359, Note_on_c, 6, 41, 0
12, 48720, Note_on_c, 6, 41, 84
12, 48839, Note_on_c, 6, 41, 0
12, 49680, Note_on_c, 6, 48, 84
12, 49859, Note_on_c, 6, 48, 0
12, 49860, Note_on_c, 6, 48, 84
12, 49919, Note_on_c, 6, 48, 0
12, 49920, Note_on_c, 6, 41, 84
12, 50039, Note_on_c, 6, 41, 0
12, 50160, Note_on_c, 6, 41, 84
12, 50339, Note_on_c, 6, 41, 0
12, 50340, Note_on_c, 6, 41, 84
12, 50399, Note_on_c, 6, 41, 0
12, 50400, Note_on_c, 6, 48, 84
12, 50519, Note_on_c, 6, 48, 0
12, 50640, Note_on_c, 6, 41, 84
12, 50819, Note_on_c, 6, 41, 0
12, 50820, Note_on_c, 6, 41, 84
12, 50879, Note_on_c, 6, 41, 0
12, 50880, Note_on_c, 6, 48, 84
12, 50999, Note_on_c, 6, 48, 0
12, 51120, Note_on_c, 6, 41, 84
12, 51299, Note_on_c, 6, 41, 0
12, 51300, Note_on_c, 6, 41, 84
12, 51359, Note_on_c, 6, 41, 0
12, 51360, Note_on_c, 6, 48, 84
12, 51479, Note_on_c, 6, 48, 0
12, 56880, Note_on_c, 6, 48, 84
12, 57059, Note_on_c, 6, 48, 0
12, 57060, Note_on_c, 6, 48, 84
12, 57119, Note_on_c, 6, 48, 0
12, 57120, Note_on_c, 6, 41, 84
12, 57239, Note_on_c, 6, 41, 0
12, 57360, Note_on_c, 6, 41, 84
12, 57539, Note_on_c, 6, 41, 0
12, 57540, Note_on_c, 6, 41, 84
12, 57599, Note_on_c, 6, 41, 0
12, 57600, Note_on_c, 6, 48, 84
12, 57719, Note_on_c, 6, 48, 0
12, 57840, Note_on_c, 6, 41, 84
12, 58019, Note_on_c, 6, 41, 0
12, 58020, Note_on_c, 6, 41, 84
12, 58079, Note_on_c, 6, 41, 0
12, 58080, Note_on_c, 6, 48, 84
12, 58199, Note_on_c, 6, 48, 0
12, 58320, Note_on_c, 6, 41, 84
12, 58499, Note_on_c, 6, 41, 0
12, 58500, Note_on_c, 6, 41, 84
12, 58559, Note_on_c, 6, 41, 0
12, 58560, Note_on_c, 6, 48, 84
12, 58679, Note_on_c, 6, 48, 0
12, 65520, Note_on_c, 6, 48, 76
12, 65759, Note_on_c, 6, 48, 0
12, 66960, Note_on_c, 6, 48, 84
12, 67199, Note_on_c, 6, 48, 0
12, 68400, Note_on_c, 6, 48, 80
12, 68429, Note_on_c, 6, 48, 0
12, 68430, Note_on_c, 6, 48, 82
12, 68459, Note_on_c, 6, 48, 0
12, 68460, Note_on_c, 6, 48, 86
12, 68489, Note_on_c, 6, 48, 0
12, 68490, Note_on_c, 6, 48, 80
12, 68519, Note_on_c, 6, 48, 0
12, 68520, Note_on_c, 6, 48, 84
12, 68549, Note_on_c, 6, 48, 0
12, 68550, Note_on_c, 6, 48, 85
12, 68579, Note_on_c, 6, 48, 0
12, 68580, Note_on_c, 6, 48, 83
12, 68609, Note_on_c, 6, 48, 0
12, 68610, Note_on_c, 6, 48, 80
12, 68639, Note_on_c, 6, 48, 0
12, 68640, Note_on_c, 6, 48, 87
12, 68669, Note_on_c, 6, 48, 0
12, 68670, Note_on_c, 6, 48, 87
12, 68699, Note_on_c, 6, 48, 0
12, 68700, Note_on_c, 6, 48, 84
12, 68729, Note_on_c, 6, 48, 0
12, 68730, Note_on_c, 6, 48, 82
12, 68759, Note_on_c, 6, 48, 0
12, 68760, Note_on_c, 6, 48, 83
12, 68789, Note_on_c, 6, 48, 0
12, 68790, Note_on_c, 6, 48, 82
12, 68819, Note_on_c, 6, 48, 0
12, 68820, Note_on_c, 6, 48, 86
12, 68849, Note_on_c, 6, 48, 0
12, 68850, Note_on_c, 6, 48, 82
12, 68879, Note_on_c, 6, 48, 0
12, 68880, Note_on_c, 6, 48, 83
12, 68909, Note_on_c, 6, 48, 0
12, 68910, Note_on_c, 6, 48, 82
12, 68939, Note_on_c, 6, 48, 0
12, 68940, Note_on_c, 6, 48, 87
12, 68969, Note_on_c, 6, 48, 0
12, 68970, Note_on_c, 6, 48, 82
12, 68999, Note_on_c, 6, 48, 0
12, 69000, Note_on_c, 6, 48, 85
12, 69029, Note_on_c, 6, 48, 0
12, 69030, Note_on_c, 6, 48, 84
12, 69059, Note_on_c, 6, 48, 0
12, 69060, Note_on_c, 6, 48, 81
12, 69089, Note_on_c, 6, 48, 0
12, 69090, Note_on_c, 6, 48, 86
12, 69119, Note_on_c, 6, 48, 0
12, 69120, Note_on_c, 6, 48, 86
12, 69149, Note_on_c, 6, 48, 0
12, 69150, Note_on_c, 6, 48, 83
12, 69179, Note_on_c, 6, 48, 0
12, 69180, Note_on_c, 6, 48, 84
12, 69209, Note_on_c, 6, 48, 0
12, 69210, Note_on_c, 6, 48, 87
12, 69239, Note_on_c, 6, 48, 0
12, 69240, Note_on_c, 6, 48, 80
12, 69269, Note_on_c, 6, 48, 0
12, 69270, Note_on_c, 6, 48, 87
12, 69299, Note_on_c, 6, 48, 0
12, 69300, Note_on_c, 6, 48, 84
12, 69329, Note_on_c, 6, 48, 0
12, 69330, Note_on_c, 6, 48, 80
12, 69359, Note_on_c, 6, 48, 0
12, 69360, Note_on_c, 6, 48, 84
12, 69389, Note_on_c, 6, 48, 0
12, 69390, Note_on_c, 6, 48, 81
12, 69419, Note_on_c, 6, 48, 0
12, 69420, Note_on_c, 6, 48, 86
12, 69449, Note_on_c, 6, 48, 0
12, 69450, Note_on_c, 6, 48, 85
12, 69479, Note_on_c, 6, 48, 0
12, 69480, Note_on_c, 6, 48, 85
12, 69509, Note_on_c, 6, 48, 0
12, 69510, Note_on_c, 6, 48, 81
12, 69539, Note_on_c, 6, 48, 0
12, 69540, Note_on_c, 6, 48, 86
12, 69569, Note_on_c, 6, 48, 0
12, 69570, Note_on_c, 6, 48, 80
12, 69599, Note_on_c, 6, 48, 0
12, 69600, Note_on_c, 6, 48, 80
12, 69629, Note_on_c, 6, 48, 0
12, 69630, Note_on_c, 6, 48, 85
12, 69659, Note_on_c, 6, 48, 0
12, 69660, Note_on_c, 6, 48, 82
12, 69689, Note_on_c, 6, 48, 0
12, 69690, Note_on_c, 6, 48, 87
12, 69719, Note_on_c, 6, 48, 0
12, 69720, Note_on_c, 6, 48, 82
12, 69749, Note_on_c, 6, 48, 0
12, 69750, Note_on_c, 6, 48, 82
12, 69779, Note_on_c, 6, 48, 0
12, 69780, Note_on_c, 6, 48, 81
12, 69809, Note_on_c, 6, 48, 0
12, 69810, Note_on_c, 6, 48, 85
12, 69839, Note_on_c, 6, 48, 0
12, 69840, Note_on_c, 6, 48, 86
12, 69869, Note_on_c, 6, 48, 0
12, 69870, Note_on_c, 6, 48, 85
12, 69899, Note_on_c, 6, 48, 0
12, 69900, Note_on_c, 6, 48, 84
12, 69929, Note_on_c, 6, 48, 0
12, 69930, Note_on_c, 6, 48, 85
12, 69959, Note_on_c, 6, 48, 0
12, 69960, Note_on_c, 6, 48, 82
12, 69989, Note_on_c, 6, 48, 0
12, 69990, Note_on_c, 6, 48, 81
12, 70019, Note_on_c, 6, 48, 0
12, 70020, Note_on_c, 6, 48, 80
12, 70049, Note_on_c, 6, 48, 0
12, 70050, Note_on_c, 6, 48, 80
12, 70079, Note_on_c, 6, 48, 0
12, 70080, Note_on_c, 6, 48, 86
12, 70109, Note_on_c, 6, 48, 0
12, 70110, Note_on_c, 6, 48, 86
12, 70139, Note_on_c, 6, 48, 0
12, 70140, Note_on_c, 6, 48, 81
12, 70169, Note_on_c, 6, 48, 0
12, 70170, Note_on_c, 6, 48, 80
12, 70199, Note_on_c, 6, 48, 0
12, 70200, Note_on_c, 6, 48, 84
12, 70229, Note_on_c, 6, 48, 0
12, 70230, Note_on_c, 6, 48, 80
12, 70259, Note_on_c, 6, 48, 0
12, 70260, Note_on_c, 6, 48, 80
12, 70289, Note_on_c, 6, 48, 0
12, 70290, Note_on_c, 6, 48, 83
12, 70319, Note_on_c, 6, 48, 0
12, 70320, Note_on_c, 6, 48, 86
12, 70349, Note_on_c, 6, 48, 0
12, 70350, Note_on_c, 6, 48, 85
12, 70379, Note_on_c, 6, 48, 0
12, 70380, Note_on_c, 6, 48, 84
12, 70409, Note_on_c, 6, 48, 0
12, 70410, Note_on_c, 6, 48, 80
12, 70439, Note_on_c, 6, 48, 0
12, 70440, Note_on_c, 6, 48, 83
12, 70469, Note_on_c, 6, 48, 0
12, 70470, Note_on_c, 6, 48, 81
12, 70499, Note_on_c, 6, 48, 0
12, 70500, Note_on_c, 6, 48, 85
12, 70529, Note_on_c, 6, 48, 0
12, 70530, Note_on_c, 6, 48, 82
12, 70559, Note_on_c, 6, 48, 0
12, 70560, Note_on_c, 6, 48, 83
12, 70589, Note_on_c, 6, 48, 0
12, 70590, Note_on_c, 6, 48, 81
12, 70619, Note_on_c, 6, 48, 0
12, 70620, Note_on_c, 6, 48, 84
12, 70649, Note_on_c, 6, 48, 0
12, 70650, Note_on_c, 6, 48, 84
12, 70679, Note_on_c, 6, 48, 0
12, 70680, Note_on_c, 6, 48, 85
12, 70709, Note_on_c, 6, 48, 0
12, 70710, Note_on_c, 6, 48, 81
12, 70739, Note_on_c, 6, 48, 0
12, 70740, Note_on_c, 6, 48, 84
12, 70769, Note_on_c, 6, 48, 0
12, 70770, Note_on_c, 6, 48, 87
12, 70799, Note_on_c, 6, 48, 0
12, 70800, Note_on_c, 6, 48, 85
12, 70829, Note_on_c, 6, 48, 0
12, 70830, Note_on_c, 6, 48, 87
12, 70859, Note_on_c, 6, 48, 0
12, 70860, Note_on_c, 6, 48, 81
12, 70889, Note_on_c, 6, 48, 0
12, 70890, Note_on_c, 6, 48, 82
12, 70919, Note_on_c, 6, 48, 0
12, 70920, Note_on_c, 6, 48, 81
12, 70949, Note_on_c, 6, 48, 0
12, 70950, Note_on_c, 6, 48, 87
12, 70979, Note_on_c, 6, 48, 0
12, 70980, Note_on_c, 6, 48, 83
12, 71009, Note_on_c, 6, 48, 0
12, 71010, Note_on_c, 6, 48, 87
12, 71039, Note_on_c, 6, 48, 0
12, 71040, Note_on_c, 6, 48, 80
12, 71069, Note_on_c, 6, 48, 0
12, 71070, Note_on_c, 6, 48, 85
12, 71099, Note_on_c, 6, 48, 0
12, 71100, Note_on_c, 6, 48, 80
12, 71129, Note_on_c, 6, 48, 0
12, 71130, Note_on_c, 6, 48, 83
12, 71159, Note_on_c, 6, 48, 0
12, 71160, Note_on_c, 6, 48, 87
12, 71189, Note_on_c, 6, 48, 0
12, 71190, Note_on_c, 6, 48, 80
12, 71219, Note_on_c, 6, 48, 0
12, 71220, Note_on_c, 6, 48, 87
12, 71249, Note_on_c, 6, 48, 0
12, 71250, Note_on_c, 6, 48, 82
12, 71279, Note_on_c, 6, 48, 0
12, 71280, Note_on_c, 6, 48, 92
12, 71519, Note_on_c, 6, 48, 0
12, 72000, Note_on_c, 6, 48, 92
12, 72239, Note_on_c, 6, 48, 0
12, 72720, Note_on_c, 6, 48, 92
12, 72959, Note_on_c, 6, 48, 0
12, 73440, Note_on_c, 6, 48, 92
12, 73679, Note_on_c, 6, 48, 0
12, 73800, Note_on_c, 6, 48, 84
12, 73919, Note_on_c, 6, 48, 0
12, 73920, Note_on_c, 6, 48, 84
12, 74039, Note_on_c, 6, 48, 0
12, 74040, Note_on_c, 6, 48, 84
12, 74159, Note_on_c, 6, 48, 0
12, 74160, Note_on_c, 6, 41, 76
12, 74399, Note_on_c, 6, 41, 0
12, 75360, Note_on_c, 6, 41, 76
12, 75479, Note_on_c, 6, 41, 0
12, 75480, Note_on_c, 6, 41, 76
12, 75599, Note_on_c, 6, 41, 0
12, 75600, Note_on_c, 6, 48, 76
12, 75839, Note_on_c, 6, 48, 0
12, 75840, Note_on_c, 6, 48, 76
12, 75959, Note_on_c, 6, 48, 0
12, 75960, Note_on_c, 6, 48, 76
12, 76079, Note_on_c, 6, 48, 0
12, 76080, Note_on_c, 6, 48, 76
12, 76199, Note_on_c, 6, 48, 0
12, 76200, Note_on_c, 6, 48, 76
12, 76319, Note_on_c, 6, 48, 0
12, 76320, Note_on_c, 6, 48, 76
12, 76559, Note_on_c, 6, 48, 0
12, 80640, Note_on_c, 6, 48, 76
12, 80879, Note_on_c, 6, 48, 0
12, 81360, Note_on_c, 6, 48, 76
12, 81479, Note_on_c, 6, 48, 0
12, 81600, Note_on_c, 6, 48, 76
12, 81719, Note_on_c, 6, 48, 0
12, 81840, Note_on_c, 6, 48, 76
12, 81959, Note_on_c, 6, 48, 0
12, 82080, Note_on_c, 6, 41, 76
12, 82319, Note_on_c, 6, 41, 0
12, 83460, Note_on_c, 6, 41, 76
12, 83519, Note_on_c, 6, 41, 0
12, 83520, Note_on_c, 6, 41, 76
12, 83759, Note_on_c, 6, 41, 0
12, 84900, Note_on_c, 6, 41, 76
12, 84959, Note_on_c, 6, 41, 0
12, 84960, Note_on_c, 6, 41, 76
12, 85199, Note_on_c, 6, 41, 0
12, 86340, Note_on_c, 6, 41, 76
12, 86399, Note_on_c, 6, 41, 0
12, 86400, Note_on_c, 6, 48, 76
12, 86639, Note_on_c, 6, 48, 0
12, 86880, Note_on_c, 6, 48, 76
12, 86999, Note_on_c, 6, 48, 0
12, 87120, Note_on_c, 6, 48, 76
12, 87239, Note_on_c, 6, 48, 0
12, 87360, Note_on_c, 6, 48, 76
12, 87479, Note_on_c, 6, 48, 0
12, 87600, Note_on_c, 6, 48, 76
12, 87719, Note_on_c, 6, 48, 0
12, 87840, Note_on_c, 6, 41, 72
12, 87869, Note_on_c, 6, 41, 0
12, 87870, Note_on_c, 6, 41, 76
12, 87899, Note_on_c, 6, 41, 0
12, 87900, Note_on_c, 6, 41, 73
12, 87929, Note_on_c, 6, 41, 0
12, 87930, Note_on_c, 6, 41, 78
12, 87959, Note_on_c, 6, 41, 0
12, 87960, Note_on_c, 6, 41, 76
12, 87989, Note_on_c, 6, 41, 0
12, 87990, Note_on_c, 6, 41, 75
12, 88019, Note_on_c, 6, 41, 0
12, 88020, Note_on_c, 6, 41, 74
12, 88049, Note_on_c, 6, 41, 0
12, 88050, Note_on_c, 6, 41, 79
12, 88079, Note_on_c, 6, 41, 0
12, 88080, Note_on_c, 6, 41, 78
12, 88109, Note_on_c, 6, 41, 0
12, 88110, Note_on_c, 6, 41, 77
12, 88139, Note_on_c, 6, 41, 0
12, 88140, Note_on_c, 6, 41, 73
12, 88169, Note_on_c, 6, 41, 0
12, 88170, Note_on_c, 6, 41, 78
12, 88199, Note_on_c, 6, 41, 0
12, 88200, Note_on_c, 6, 41, 77
12, 88229, Note_on_c, 6, 41, 0
12, 88230, Note_on_c, 6, 41, 76
12, 88259, Note_on_c, 6, 41, 0
12, 88260, Note_on_c, 6, 41, 74
12, 88289, Note_on_c, 6, 41, 0
12, 88290, Note_on_c, 6, 41, 72
12, 88319, Note_on_c, 6, 41, 0
12, 88320, Note_on_c, 6, 41, 72
12, 88349, Note_on_c, 6, 41, 0
12, 88350, Note_on_c, 6, 41, 74
12, 88379, Note_on_c, 6, 41, 0
12, 88380, Note_on_c, 6, 41, 73
12, 88409, Note_on_c, 6, 41, 0
12, 88410, Note_on_c, 6, 41, 73
12, 88439, Note_on_c, 6, 41, 0
12, 88440, Note_on_c, 6, 41, 79
12, 88469, Note_on_c, 6, 41, 0
12, 88470, Note_on_c, 6, 41, 75
12, 88499, Note_on_c, 6, 41, 0
12, 88500, Note_on_c, 6, 41, 72
12, 88529, Note_on_c, 6, 41, 0
12, 88530, Note_on_c, 6, 41, 72
12, 88559, Note_on_c, 6, 41, 0
12, 88560, Note_on_c, 6, 41, 76
12, 88799, Note_on_c, 6, 41, 0
12, 89220, Note_on_c, 6, 41, 76
12, 89279, Note_on_c, 6, 41, 0
12, 89280, Note_on_c, 6, 41, 72
12, 89309, Note_on_c, 6, 41, 0
12, 89310, Note_on_c, 6, 41, 75
12, 89339, Note_on_c, 6, 41, 0
12, 89340, Note_on_c, 6, 41, 76
12, 89369, Note_on_c, 6, 41, 0
12, 89370, Note_on_c, 6, 41, 76
12, 89399, Note_on_c, 6, 41, 0
12, 89400, Note_on_c, 6, 41, 76
12, 89429, Note_on_c, 6, 41, 0
12, 89430, Note_on_c, 6, 41, 76
12, 89459, Note_on_c, 6, 41, 0
12, 89460, Note_on_c, 6, 41, 73
12, 89489, Note_on_c, 6, 41, 0
12, 89490, Note_on_c, 6, 41, 77
12, 89519, Note_on_c, 6, 41, 0
12, 89520, Note_on_c, 6, 41, 75
12, 89549, Note_on_c, 6, 41, 0
12, 89550, Note_on_c, 6, 41, 74
12, 89579, Note_on_c, 6, 41, 0
12, 89580, Note_on_c, 6, 41, 72
12, 89609, Note_on_c, 6, 41, 0
12, 89610, Note_on_c, 6, 41, 76
12, 89639, Note_on_c, 6, 41, 0
12, 89640, Note_on_c, 6, 41, 78
12, 89669, Note_on_c, 6, 41, 0
12, 89670, Note_on_c, 6, 41, 78
12, 89699, Note_on_c, 6, 41, 0
12, 89700, Note_on_c, 6, 41, 76
12, 89729, Note_on_c, 6, 41, 0
12, 89730, Note_on_c, 6, 41, 74
12, 89759, Note_on_c, 6, 41, 0
12, 89760, Note_on_c, 6, 41, 79
12, 89789, Note_on_c, 6, 41, 0
12, 89790, Note_on_c, 6, 41, 77
12, 89819, Note_on_c, 6, 41, 0
12, 89820, Note_on_c, 6, 41, 79
12, 89849, Note_on_c, 6, 41, 0
12, 89850, Note_on_c, 6, 41, 79
12, 89879, Note_on_c, 6, 41, 0
12, 89880, Note_on_c, 6, 41, 76
12, 89909, Note_on_c, 6, 41, 0
12, 89910, Note_on_c, 6, 41, 73
12, 89939, Note_on_c, 6, 41, 0
12, 89940, Note_on_c, 6, 41, 75
12, 89969, Note_on_c, 6, 41, 0
12, 89970, Note_on_c, 6, 41, 73
12, 89999, Note_on_c, 6, 41, 0
12, 90000, Note_on_c, 6, 41, 76
12, 90239, Note_on_c, 6, 41, 0
12, 90660, Note_on_c, 6, 41, 76
12, 90719, Note_on_c, 6, 41, 0
12, 90720, Note_on_c, 6, 41, 78
12, 90749, Note_on_c, 6, 41, 0
12, 90750, Note_on_c, 6, 41, 73
12, 90779, Note_on_c, 6, 41, 0
12, 90780, Note_on_c, 6, 41, 78
12, 90809, Note_on_c, 6, 41, 0
12, 90810, Note_on_c, 6, 41, 78
12, 90839, Note_on_c, 6, 41, 0
12, 90840, Note_on_c, 6, 41, 79
12, 90869, Note_on_c, 6, 41, 0
12, 90870, Note_on_c, 6, 41, 79
12, 90899, Note_on_c, 6, 41, 0
12, 90900, Note_on_c, 6, 41, 76
12, 90929, Note_on_c, 6, 41, 0
12, 90930, Note_on_c, 6, 41, 75
12, 90959, Note_on_c, 6, 41, 0
12, 90960, Note_on_c, 6, 41, 74
12, 90989, Note_on_c, 6, 41, 0
12, 90990, Note_on_c, 6, 41, 74
12, 91019, Note_on_c, 6, 41, 0
12, 91020, Note_on_c, 6, 41, 78
12, 91049, Note_on_c, 6, 41, 0
12, 91050, Note_on_c, 6, 41, 72
12, 91079, Note_on_c, 6, 41, 0
12, 91080, Note_on_c, 6, 41, 75
12, 91109, Note_on_c, 6, 41, 0
12, 91110, Note_on_c, 6, 41, 72
12, 91139, Note_on_c, 6, 41, 0
12, 91140, Note_on_c, 6, 41, 77
12, 91169, Note_on_c, 6, 41, 0
12, 91170, Note_on_c, 6, 41, 72
12, 91199, Note_on_c, 6, 41, 0
12, 91200, Note_on_c, 6, 41, 72
12, 91229, Note_on_c, 6, 41, 0
12, 91230, Note_on_c, 6, 41, 79
12, 91259, Note_on_c, 6, 41, 0
12, 91260, Note_on_c, 6, 41, 74
12, 91289, Note_on_c, 6, 41, 0
12, 91290, Note_on_c, 6, 41, 74
12, 91319, Note_on_c, 6, 41, 0
12, 91320, Note_on_c, 6, 41, 76
12, 91349, Note_on_c, 6, 41, 0
12, 91350, Note_on_c, 6, 41, 77
12, 91379, Note_on_c, 6, 41, 0
12, 91380, Note_on_c, 6, 41, 78
12, 91409, Note_on_c, 6, 41, 0
12, 91410, Note_on_c, 6, 41, 77
12, 91439, Note_on_c, 6, 41, 0
12, 91440, Note_on_c, 6, 41, 76
12, 91679, Note_on_c, 6, 41, 0
12, 92100, Note_on_c, 6, 41, 76
12, 92159, Note_on_c, 6, 41, 0
12, 92160, Note_on_c, 6, 41, 75
12, 92189, Note_on_c, 6, 41, 0
12, 92190, Note_on_c, 6, 41, 73
12, 92219, Note_on_c, 6, 41, 0
12, 92220, Note_on_c, 6, 41, 77
12, 92249, Note_on_c, 6, 41, 0
12, 92250, Note_on_c, 6, 41, 75
12, 92279, Note_on_c, 6, 41, 0
12, 92280, Note_on_c, 6, 41, 75
12, 92309, Note_on_c, 6, 41, 0
12, 92310, Note_on_c, 6, 41, 79
12, 92339, Note_on_c, 6, 41, 0
12, 92340, Note_on_c, 6, 41, 77
12, 92369, Note_on_c, 6, 41, 0
12, 92370, Note_on_c, 6, 41, 72
12, 92399, Note_on_c, 6, 41, 0
12, 92400, Note_on_c, 6, 41, 76
12, 92429, Note_on_c, 6, 41, 0
12, 92430, Note_on_c, 6, 41, 75
12, 92459, Note_on_c, 6, 41, 0
12, 92460, Note_on_c, 6, 41, 77
12, 92489, Note_on_c, 6, 41, 0
12, 92490, Note_on_c, 6, 41, 76
12, 92519, Note_on_c, 6, 41, 0
12, 92520, Note_on_c, 6, 41, 76
12, 92549, Note_on_c, 6, 41, 0
12, 92550, Note_on_c, 6, 41, 74
12, 92579, Note_on_c, 6, 41, 0
12, 92580, Note_on_c, 6, 41, 73
12, 92609, Note_on_c, 6, 41, 0
12, 92610, Note_on_c, 6, 41, 73
12, 92639, Note_on_c, 6, 41, 0
12, 92640, Note_on_c, 6, 41, 75
12, 92669, Note_on_c, 6, 41, 0
12, 92670, Note_on_c, 6, 41, 78
12, 92699, Note_on_c, 6, 41, 0
12, 92700, Note_on_c, 6, 41, 76
12, 92729, Note_on_c, 6, 41, 0
12, 92730, Note_on_c, 6, 41, 79
12, 92759, Note_on_c, 6, 41, 0
12, 92760, Note_on_c, 6, 41, 78
12, 92789, Note_on_c, 6, 41, 0
12, 92790, Note_on_c, 6, 41, 74
12, 92819, Note_on_c, 6, 41, 0
12, 92820, Note_on_c, 6, 41, 73
12, 92849, Note_on_c, 6, 41, 0
12, 92850, Note_on_c, 6, 41, 77
12, 92879, Note_on_c, 6, 41, 0
12, 92880, Note_on_c, 6, 41, 76
12, 93119, Note_on_c, 6, 41, 0
12, 93540, Note_on_c, 6, 41, 76
12, 93599, Note_on_c, 6, 41, 0
12, 93600, Note_on_c, 6, 41, 75
12, 93629, Note_on_c, 6, 41, 0
12, 93630, Note_on_c, 6, 41, 72
12, 93659, Note_on_c, 6, 41, 0
12, 93660, Note_on_c, 6, 41, 77
12, 93689, Note_on_c, 6, 41, 0
12, 93690, Note_on_c, 6, 41, 76
12, 93719, Note_on_c, 6, 41, 0
12, 93720, Note_on_c, 6, 41, 73
12, 93749, Note_on_c, 6, 41, 0
12, 93750, Note_on_c, 6, 41, 79
12, 93779, Note_on_c, 6, 41, 0
12, 93780, Note_on_c, 6, 41, 73
12, 93809, Note_on_c, 6, 41, 0
12, 93810, Note_on_c, 6, 41, 79
12, 93839, Note_on_c, 6, 41, 0
12, 93840, Note_on_c, 6, 41, 77
12, 93869, Note_on_c, 6, 41, 0
12, 93870, Note_on_c, 6, 41, 74
12, 93899, Note_on_c, 6, 41, 0
12, 93900, Note_on_c, 6, 41, 75
12, 93929, Note_on_c, 6, 41, 0
12, 93930, Note_on_c, 6, 41, 72
12, 93959, Note_on_c, 6, 41, 0
12, 93960, Note_on_c, 6, 41, 79
12, 93989, Note_on_c, 6, 41, 0
12, 93990, Note_on_c, 6, 41, 77
12, 94019, Note_on_c, 6, 41, 0
12, 94020, Note_on_c, 6, 41, 73
12, 94049, Note_on_c, 6, 41, 0
12, 94050, Note_on_c, 6, 41, 79
12, 94079, Note_on_c, 6, 41, 0
12, 94080, Note_on_c, 6, 41, 84
12, 94259, Note_on_c, 6, 41, 0
12, 94260, Note_on_c, 6, 41, 76
12, 94319, Note_on_c, 6, 41, 0
12, 94320, Note_on_c, 6, 41, 78
12, 94349, Note_on_c, 6, 41, 0
12, 94350, Note_on_c, 6, 41, 76
12, 94379, Note_on_c, 6, 41, 0
12, 94380, Note_on_c, 6, 41, 73
12, 94409, Note_on_c, 6, 41, 0
12, 94410, Note_on_c, 6, 41, 73
12, 94439, Note_on_c, 6, 41, 0
12, 94440, Note_on_c, 6, 41, 78
12, 94469, Note_on_c, 6, 41, 0
12, 94470, Note_on_c, 6, 41, 75
12, 94499, Note_on_c, 6, 41, 0
12, 94500, Note_on_c, 6, 41, 73
12, 94529, Note_on_c, 6, 41, 0
12, 94530, Note_on_c, 6, 41, 76
12, 94559, Note_on_c, 6, 41, 0
12, 94560, Note_on_c, 6, 41, 77
12, 94589, Note_on_c, 6, 41, 0
12, 94590, Note_on_c, 6, 41, 75
12, 94619, Note_on_c, 6, 41, 0
12, 94620, Note_on_c, 6, 41, 74
12, 94649, Note_on_c, 6, 41, 0
12, 94650, Note_on_c, 6, 41, 76
12, 94679, Note_on_c, 6, 41, 0
12, 94680, Note_on_c, 6, 41, 77
12, 94709, Note_on_c, 6, 41, 0
12, 94710, Note_on_c, 6, 41, 78
12, 94739, Note_on_c, 6, 41, 0
12, 94740, Note_on_c, 6, 41, 77
12, 94769, Note_on_c, 6, 41, 0
12, 94770, Note_on_c, 6, 41, 75
12, 94799, Note_on_c, 6, 41, 0
12, 94800, Note_on_c, 6, 41, 84
12, 94979, Note_on_c, 6, 41, 0
12, 94980, Note_on_c, 6, 41, 76
12, 95039, Note_on_c, 6, 41, 0
12, 95040, Note_on_c, 6, 41, 76
12, 95159, Note_on_c, 6, 41, 0
12, 95520, Note_on_c, 6, 41, 84
12, 95639, Note_on_c, 6, 41, 0
12, 95760, Note_on_c, 6, 41, 76
12, 95879, Note_on_c, 6, 41, 0
12, 96240, Note_on_c, 6, 41, 84
12, 96359, Note_on_c, 6, 41, 0
12, 96480, Note_on_c, 6, 41, 76
12, 96599, Note_on_c, 6, 41, 0
12, 113040, Note_on_c, 6, 48, 44
12, 113159, Note_on_c, 6, 48, 0
12, 113520, Note_on_c, 6, 48, 44
12, 113639, Note_on_c, 6, 48, 0
12, 113760, Note_on_c, 6, 48, 44
12, 113879, Note_on_c, 6, 48, 0
12, 115920, Note_on_c, 6, 48, 44
12, 116039, Note_on_c, 6, 48, 0
12, 116400, Note_on_c, 6, 48, 44
12, 116519, Note_on_c, 6, 48, 0
12, 119520, Note_on_c, 6, 48, 84
12, 119639, Note_on_c, 6, 48, 0
12, 120240, Note_on_c, 6, 41, 84
12, 120359, Note_on_c, 6, 41, 0
12, 120960, Note_on_c, 6, 41, 84
12, 121079, Note_on_c, 6, 41, 0
12, 121440, Note_on_c, 6, 41, 84
12, 121559, Note_on_c, 6, 41, 0
12, 121680, Note_on_c, 6, 48, 84
12, 121799, Note_on_c, 6, 48, 0
12, 122160, Note_on_c, 6, 48, 84
12, 122279, Note_on_c, 6, 48, 0
12, 122400, Note_on_c, 6, 41, 84
12, 122519, Note_on_c, 6, 41, 0
12, 122880, Note_on_c, 6, 41, 84
12, 122999, Note_on_c, 6, 41, 0
12, 123840, Note_on_c, 6, 48, 84
12, 124019, Note_on_c, 6, 48, 0
12, 124020, Note_on_c, 6, 48, 84
12, 124079, Note_on_c, 6, 48, 0
12, 124080, Note_on_c, 6, 41, 84
12, 124199, Note_on_c, 6, 41, 0
12, 124320, Note_on_c, 6, 41, 84
12, 124499, Note_on_c, 6, 41, 0
12, 124500, Note_on_c, 6, 41, 84
12, 124559, Note_on_c, 6, 41, 0
12, 124560, Note_on_c, 6, 48, 84
12, 124679, Note_on_c, 6, 48, 0
12, 124800, Note_on_c, 6, 41, 84
12, 124979, Note_on_c, 6, 41, 0
12, 124980, Note_on_c, 6, 41, 84
12, 125039, Note_on_c, 6, 41, 0
12, 125040, Note_on_c, 6, 48, 84
12, 125159, Note_on_c, 6, 48, 0
12, 125280, Note_on_c, 6, 41, 84
12, 125459, Note_on_c, 6, 41, 0
12, 125460, Note_on_c, 6, 41, 84
12, 125519, Note_on_c, 6, 41, 0
12, 125520, Note_on_c, 6, 48, 84
12, 125639, Note_on_c, 6, 48, 0
12, 131040, Note_on_c, 6, 48, 84
12, 131219, Note_on_c, 6, 48, 0
12, 131220, Note_on_c, 6, 48, 84
12, 131279, Note_on_c, 6, 48, 0
12, 131280, Note_on_c, 6, 41, 84
12, 131399, Note_on_c, 6, 41, 0
12, 131520, Note_on_c, 6, 41, 84
12, 131699, Note_on_c, 6, 41, 0
12, 131700, Note_on_c, 6, 41, 84
12, 131759, Note_on_c, 6, 41, 0
12, 131760, Note_on_c, 6, 48, 84
12, 131879, Note_on_c, 6, 48, 0
12, 132000, Note_on_c, 6, 41, 84
12, 132179, Note_on_c, 6, 41, 0
12, 132180, Note_on_c, 6, 41, 84
12, 132239, Note_on_c, 6, 41, 0
12, 132240, Note_on_c, 6, 48, 84
12, 132359, Note_on_c, 6, 48, 0
12, 132480, Note_on_c, 6, 41, 84
12, 132659, Note_on_c, 6, 41, 0
12, 132660, Note_on_c, 6, 41, 84
12, 132719, Note_on_c, 6, 41, 0
12, 132720, Note_on_c, 6, 48, 84
12, 132839, Note_on_c, 6, 48, 0
12, 139680, Note_on_c, 6, 48, 76
12, 139919, Note_on_c, 6, 48, 0
12, 141120, Note_on_c, 6, 48, 84
12, 141359, Note_on_c, 6, 48, 0
12, 142560, Note_on_c, 6, 48, 80
12, 142589, Note_on_c, 6, 48, 0
12, 142590, Note_on_c, 6, 48, 82
12, 142619, Note_on_c, 6, 48, 0
12, 142620, Note_on_c, 6, 48, 86
12, 142649, Note_on_c, 6, 48, 0
12, 142650, Note_on_c, 6, 48, 80
12, 142679, Note_on_c, 6, 48, 0
12, 142680, Note_on_c, 6, 48, 84
12, 142709, Note_on_c, 6, 48, 0
12, 142710, Note_on_c, 6, 48, 85
12, 142739, Note_on_c, 6, 48, 0
12, 142740, Note_on_c, 6, 48, 83
12, 142769, Note_on_c, 6, 48, 0
12, 142770, Note_on_c, 6, 48, 80
12, 142799, Note_on_c, 6, 48, 0
12, 142800, Note_on_c, 6, 48, 87
12, 142829, Note_on_c, 6, 48, 0
12, 142830, Note_on_c, 6, 48, 87
12, 142859, Note_on_c, 6, 48, 0
12, 142860, Note_on_c, 6, 48, 84
12, 142889, Note_on_c, 6, 48, 0
12, 142890, Note_on_c, 6, 48, 82
12, 142919, Note_on_c, 6, 48, 0
12, 142920, Note_on_c, 6, 48, 83
12, 142949, Note_on_c, 6, 48, 0
12, 142950, Note_on_c, 6, 48, 82
12, 142979, Note_on_c, 6, 48, 0
12, 142980, Note_on_c, 6, 48, 86
12, 143009, Note_on_c, 6, 48, 0
12, 143010, Note_on_c, 6, 48, 82
12, 143039, Note_on_c, 6, 48, 0
12, 143040, Note_on_c, 6, 48, 83
12, 143069, Note_on_c, 6, 48, 0
12, 143070, Note_on_c, 6, 48, 82
12, 143099, Note_on_c, 6, 48, 0
12, 143100, Note_on_c, 6, 48, 87
12, 143129, Note_on_c, 6, 48, 0
12, 143130, Note_on_c, 6, 48, 82
12, 143159, Note_on_c, 6, 48, 0
12, 143160, Note_on_c, 6, 48, 85
12, 143189, Note_on_c, 6, 48, 0
12, 143190, Note_on_c, 6, 48, 84
12, 143219, Note_on_c, 6, 48, 0
12, 143220, Note_on_c, 6, 48, 81
12, 143249, Note_on_c, 6, 48, 0
12, 143250, Note_on_c, 6, 48, 86
12, 143279, Note_on_c, 6, 48, 0
12, 143280, Note_on_c, 6, 48, 86
12, 143309, Note_on_c, 6, 48, 0
12, 143310, Note_on_c, 6, 48, 83
12, 143339, Note_on_c, 6, 48, 0
12, 143340, Note_on_c, 6, 48, 84
12, 143369, Note_on_c, 6, 48, 0
12, 143370, Note_on_c, 6, 48, 87
12, 143399, Note_on_c, 6, 48, 0
12, 143400, Note_on_c, 6, 48, 80
12, 143429, Note_on_c, 6, 48, 0
12, 143430, Note_on_c, 6, 48, 87
12, 143459, Note_on_c, 6, 48, 0
12, 143460, Note_on_c, 6, 48, 84
12, 143489, Note_on_c, 6, 48, 0
12, 143490, Note_on_c, 6, 48, 80
12, 143519, Note_on_c, 6, 48, 0
12, 143520, Note_on_c, 6, 48, 84
12, 143549, Note_on_c, 6, 48, 0
12, 143550, Note_on_c, 6, 48, 81
12, 143579, Note_on_c, 6, 48, 0
12, 143580, Note_on_c, 6, 48, 86
12, 143609, Note_on_c, 6, 48, 0
12, 143610, Note_on_c, 6, 48, 85
12, 143639, Note_on_c, 6, 48, 0
12, 143640, Note_on_c, 6, 48, 85
12, 143669, Note_on_c, 6, 48, 0
12, 143670, Note_on_c, 6, 48, 81
12, 143699, Note_on_c, 6, 48, 0
12, 143700, Note_on_c, 6, 48, 86
12, 143729, Note_on_c, 6, 48, 0
12, 143730, Note_on_c, 6, 48, 80
12, 143759, Note_on_c, 6, 48, 0
12, 143760, Note_on_c, 6, 48, 80
12, 143789, Note_on_c, 6, 48, 0
12, 143790, Note_on_c, 6, 48, 85
12, 143819, Note_on_c, 6, 48, 0
12, 143820, Note_on_c, 6, 48, 82
12, 143849, Note_on_c, 6, 48, 0
12, 143850, Note_on_c, 6, 48, 87
12, 143879, Note_on_c, 6, 48, 0
12, 143880, Note_on_c, 6, 48, 82
12, 143909, Note_on_c, 6, 48, 0
12, 143910, Note_on_c, 6, 48, 82
12, 143939, Note_on_c, 6, 48, 0
12, 143940, Note_on_c, 6, 48, 81
12, 143969, Note_on_c, 6, 48, 0
12, 143970, Note_on_c, 6, 48, 85
12, 143999, Note_on_c, 6, 48, 0
12, 144000, Note_on_c, 6, 48, 86
12, 144029, Note_on_c, 6, 48, 0
12, 144030, Note_on_c, 6, 48, 85
12, 144059, Note_on_c, 6, 48, 0
12, 144060, Note_on_c, 6, 48, 84
12, 144089, Note_on_c, 6, 48, 0
12, 144090, Note_on_c, 6, 48, 85
12, 144119, Note_on_c, 6, 48, 0
12, 144120, Note_on_c, 6, 48, 82
12, 144149, Note_on_c, 6, 48, 0
12, 144150, Note_on_c, 6, 48, 81
12, 144179, Note_on_c, 6, 48, 0
12, 144180, Note_on_c, 6, 48, 80
12, 144209, Note_on_c, 6, 48, 0
12, 144210, Note_on_c, 6, 48, 80
12, 144239, Note_on_c, 6, 48, 0
12, 144240, Note_on_c, 6, 48, 86
12, 144269, Note_on_c, 6, 48, 0
12, 144270, Note_on_c, 6, 48, 86
12, 144299, Note_on_c, 6, 48, 0
12, 144300, Note_on_c, 6, 48, 81
12, 144329, Note_on_c, 6, 48, 0
12, 144330, Note_on_c, 6, 48, 80
12, 144359, Note_on_c, 6, 48, 0
12, 144360, Note_on_c, 6, 48, 84
12, 144389, Note_on_c, 6, 48, 0
12, 144390, Note_on_c, 6, 48, 80
12, 144419, Note_on_c, 6, 48, 0
12, 144420, Note_on_c, 6, 48, 80
12, 144449, Note_on_c, 6, 48, 0
12, 144450, Note_on_c, 6, 48, 83
12, 144479, Note_on_c, 6, 48, 0
12, 144480, Note_on_c, 6, 48, 86
12, 144509, Note_on_c, 6, 48, 0
12, 144510, Note_on_c, 6, 48, 85
12, 144539, Note_on_c, 6, 48, 0
12, 144540, Note_on_c, 6, 48, 84
12, 144569, Note_on_c, 6, 48, 0
12, 144570, Note_on_c, 6, 48, 80
12, 144599, Note_on_c, 6, 48, 0
12, 144600, Note_on_c, 6, 48, 83
12, 144629, Note_on_c, 6, 48, 0
12, 144630, Note_on_c, 6, 48, 81
12, 144659, Note_on_c, 6, 48, 0
12, 144660, Note_on_c, 6, 48, 85
12, 144689, Note_on_c, 6, 48, 0
12, 144690, Note_on_c, 6, 48, 82
12, 144719, Note_on_c, 6, 48, 0
12, 144720, Note_on_c, 6, 48, 83
12, 144749, Note_on_c, 6, 48, 0
12, 144750, Note_on_c, 6, 48, 81
12, 144779, Note_on_c, 6, 48, 0
12, 144780, Note_on_c, 6, 48, 84
12, 144809, Note_on_c, 6, 48, 0
12, 144810, Note_on_c, 6, 48, 84
12, 144839, Note_on_c, 6, 48, 0
12, 144840, Note_on_c, 6, 48, 85
12, 144869, Note_on_c, 6, 48, 0
12, 144870, Note_on_c, 6, 48, 81
12, 144899, Note_on_c, 6, 48, 0
12, 144900, Note_on_c, 6, 48, 84
12, 144929, Note_on_c, 6, 48, 0
12, 144930, Note_on_c, 6, 48, 87
12, 144959, Note_on_c, 6, 48, 0
12, 144960, Note_on_c, 6, 48, 85
12, 144989, Note_on_c, 6, 48, 0
12, 144990, Note_on_c, 6, 48, 87
12, 145019, Note_on_c, 6, 48, 0
12, 145020, Note_on_c, 6, 48, 81
12, 145049, Note_on_c, 6, 48, 0
12, 145050, Note_on_c, 6, 48, 82
12, 145079, Note_on_c, 6, 48, 0
12, 145080, Note_on_c, 6, 48, 81
12, 145109, Note_on_c, 6, 48, 0
12, 145110, Note_on_c, 6, 48, 87
12, 145139, Note_on_c, 6, 48, 0
12, 145140, Note_on_c, 6, 48, 83
12, 145169, Note_on_c, 6, 48, 0
12, 145170, Note_on_c, 6, 48, 87
12, 145199, Note_on_c, 6, 48, 0
12, 145200, Note_on_c, 6, 48, 80
12, 145229, Note_on_c, 6, 48, 0
12, 145230, Note_on_c, 6, 48, 85
12, 145259, Note_on_c, 6, 48, 0
12, 145260, Note_on_c, 6, 48, 80
12, 145289, Note_on_c, 6, 48, 0
12, 145290, Note_on_c, 6, 48, 83
12, 145319, Note_on_c, 6, 48, 0
12, 145320, Note_on_c, 6, 48, 87
12, 145349, Note_on_c, 6, 48, 0
12, 145350, Note_on_c, 6, 48, 80
12, 145379, Note_on_c, 6, 48, 0
12, 145380, Note_on_c, 6, 48, 87
12, 145409, Note_on_c, 6, 48, 0
12, 145410, Note_on_c, 6, 48, 82
12, 145439, Note_on_c, 6, 48, 0
12, 145440, Note_on_c, 6, 48, 92
12, 145679, Note_on_c, 6, 48, 0
12, 146160, Note_on_c, 6, 48, 92
12, 146399, Note_on_c, 6, 48, 0
12, 146880, Note_on_c, 6, 48, 92
12, 147119, Note_on_c, 6, 48, 0
12, 147600, Note_on_c, 6, 48, 92
12, 147839, Note_on_c, 6, 48, 0
12, 147960, Note_on_c, 6, 48, 84
12, 148079, Note_on_c, 6, 48, 0
12, 148080, Note_on_c, 6, 48, 84
12, 148199, Note_on_c, 6, 48, 0
12, 148200, Note_on_c, 6, 48, 84
12, 148319, Note_on_c, 6, 48, 0
12, 148320, Note_on_c, 6, 48, 84
12, 148559, Note_on_c, 6, 48, 0
12, 154080, Note_on_c, 6, 48, 80
12, 154109, Note_on_c, 6, 48, 0
12, 154110, Note_on_c, 6, 48, 84
12, 154139, Note_on_c, 6, 48, 0
12, 154140, Note_on_c, 6, 48, 81
12, 154169, Note_on_c, 6, 48, 0
12, 154170, Note_on_c, 6, 48, 86
12, 154199, Note_on_c, 6, 48, 0
12, 154200, Note_on_c, 6, 48, 84
12, 154229, Note_on_c, 6, 48, 0
12, 154230, Note_on_c, 6, 48, 83
12, 154259, Note_on_c, 6, 48, 0
12, 154260, Note_on_c, 6, 48, 82
12, 154289, Note_on_c, 6, 48, 0
12, 154290, Note_on_c, 6, 48, 87
12, 154319, Note_on_c, 6, 48, 0
12, 154320, Note_on_c, 6, 48, 86
12, 154349, Note_on_c, 6, 48, 0
12, 154350, Note_on_c, 6, 48, 85
12, 154379, Note_on_c, 6, 48, 0
12, 154380, Note_on_c, 6, 48, 81
12, 154409, Note_on_c, 6, 48, 0
12, 154410, Note_on_c, 6, 48, 86
12, 154439, Note_on_c, 6, 48, 0
12, 154440, Note_on_c, 6, 48, 85
12, 154469, Note_on_c, 6, 48, 0
12, 154470, Note_on_c, 6, 48, 84
12, 154499, Note_on_c, 6, 48, 0
12, 154500, Note_on_c, 6, 48, 82
12, 154529, Note_on_c, 6, 48, 0
12, 154530, Note_on_c, 6, 48, 80
12, 154559, Note_on_c, 6, 48, 0
12, 154560, Note_on_c, 6, 48, 80
12, 154589, Note_on_c, 6, 48, 0
12, 154590, Note_on_c, 6, 48, 82
12, 154619, Note_on_c, 6, 48, 0
12, 154620, Note_on_c, 6, 48, 81
12, 154649, Note_on_c, 6, 48, 0
12, 154650, Note_on_c, 6, 48, 81
12, 154679, Note_on_c, 6, 48, 0
12, 154680, Note_on_c, 6, 48, 87
12, 154709, Note_on_c, 6, 48, 0
12, 154710, Note_on_c, 6, 48, 83
12, 154739, Note_on_c, 6, 48, 0
12, 154740, Note_on_c, 6, 48, 80
12, 154769, Note_on_c, 6, 48, 0
12, 154770, Note_on_c, 6, 48, 80
12, 154799, Note_on_c, 6, 48, 0
12, 154800, Note_on_c, 6, 48, 80
12, 154829, Note_on_c, 6, 48, 0
12, 154830, Note_on_c, 6, 48, 83
12, 154859, Note_on_c, 6, 48, 0
12, 154860, Note_on_c, 6, 48, 84
12, 154889, Note_on_c, 6, 48, 0
12, 154890, Note_on_c, 6, 48, 84
12, 154919, Note_on_c, 6, 48, 0
12, 154920, Note_on_c, 6, 48, 84
12, 154949, Note_on_c, 6, 48, 0
12, 154950, Note_on_c, 6, 48, 84
12, 154979, Note_on_c, 6, 48, 0
12, 154980, Note_on_c, 6, 48, 81
12, 155009, Note_on_c, 6, 48, 0
12, 155010, Note_on_c, 6, 48, 85
12, 155039, Note_on_c, 6, 48, 0
12, 155040, Note_on_c, 6, 48, 83
12, 155069, Note_on_c, 6, 48, 0
12, 155070, Note_on_c, 6, 48, 82
12, 155099, Note_on_c, 6, 48, 0
12, 155100, Note_on_c, 6, 48, 80
12, 155129, Note_on_c, 6, 48, 0
12, 155130, Note_on_c, 6, 48, 84
12, 155159, Note_on_c, 6, 48, 0
12, 155160, Note_on_c, 6, 48, 86
12, 155189, Note_on_c, 6, 48, 0
12, 155190, Note_on_c, 6, 48, 86
12, 155219, Note_on_c, 6, 48, 0
12, 155220, Note_on_c, 6, 48, 84
12, 155249, Note_on_c, 6, 48, 0
12, 155250, Note_on_c, 6, 48, 82
12, 155279, Note_on_c, 6, 48, 0
12, 155280, Note_on_c, 6, 48, 87
12, 155309, Note_on_c, 6, 48, 0
12, 155310, Note_on_c, 6, 48, 85
12, 155339, Note_on_c, 6, 48, 0
12, 155340, Note_on_c, 6, 48, 87
12, 155369, Note_on_c, 6, 48, 0
12, 155370, Note_on_c, 6, 48, 87
12, 155399, Note_on_c, 6, 48, 0
12, 155400, Note_on_c, 6, 48, 84
12, 155429, Note_on_c, 6, 48, 0
12, 155430, Note_on_c, 6, 48, 81
12, 155459, Note_on_c, 6, 48, 0
12, 155460, Note_on_c, 6, 48, 83
12, 155489, Note_on_c, 6, 48, 0
12, 155490, Note_on_c, 6, 48, 81
12, 155519, Note_on_c, 6, 48, 0
12, 155520, Note_on_c, 6, 48, 86
12, 155549, Note_on_c, 6, 48, 0
12, 155550, Note_on_c, 6, 48, 81
12, 155579, Note_on_c, 6, 48, 0
12, 155580, Note_on_c, 6, 48, 86
12, 155609, Note_on_c, 6, 48, 0
12, 155610, Note_on_c, 6, 48, 86
12, 155639, Note_on_c, 6, 48, 0
12, 155640, Note_on_c, 6, 48, 87
12, 155669, Note_on_c, 6, 48, 0
12, 155670, Note_on_c, 6, 48, 87
12, 155699, Note_on_c, 6, 48, 0
12, 155700, Note_on_c, 6, 48, 84
12, 155729, Note_on_c, 6, 48, 0
12, 155730, Note_on_c, 6, 48, 83
12, 155759, Note_on_c, 6, 48, 0
12, 155760, Note_on_c, 6, 48, 82
12, 155789, Note_on_c, 6, 48, 0
12, 155790, Note_on_c, 6, 48, 82
12, 155819, Note_on_c, 6, 48, 0
12, 155820, Note_on_c, 6, 48, 86
12, 155849, Note_on_c, 6, 48, 0
12, 155850, Note_on_c, 6, 48, 80
12, 155879, Note_on_c, 6, 48, 0
12, 155880, Note_on_c, 6, 48, 83
12, 155909, Note_on_c, 6, 48, 0
12, 155910, Note_on_c, 6, 48, 80
12, 155939, Note_on_c, 6, 48, 0
12, 155940, Note_on_c, 6, 48, 85
12, 155969, Note_on_c, 6, 48, 0
12, 155970, Note_on_c, 6, 48, 80
12, 155999, Note_on_c, 6, 48, 0
12, 156000, Note_on_c, 6, 48, 80
12, 156029, Note_on_c, 6, 48, 0
12, 156030, Note_on_c, 6, 48, 87
12, 156059, Note_on_c, 6, 48, 0
12, 156060, Note_on_c, 6, 48, 82
12, 156089, Note_on_c, 6, 48, 0
12, 156090, Note_on_c, 6, 48, 82
12, 156119, Note_on_c, 6, 48, 0
12, 156120, Note_on_c, 6, 48, 84
12, 156149, Note_on_c, 6, 48, 0
12, 156150, Note_on_c, 6, 48, 85
12, 156179, Note_on_c, 6, 48, 0
12, 156180, Note_on_c, 6, 48, 86
12, 156209, Note_on_c, 6, 48, 0
12, 156210, Note_on_c, 6, 48, 85
12, 156239, Note_on_c, 6, 48, 0
12, 156240, Note_on_c, 6, 48, 83
12, 156269, Note_on_c, 6, 48, 0
12, 156270, Note_on_c, 6, 48, 81
12, 156299, Note_on_c, 6, 48, 0
12, 156300, Note_on_c, 6, 48, 85
12, 156329, Note_on_c, 6, 48, 0
12, 156330, Note_on_c, 6, 48, 83
12, 156359, Note_on_c, 6, 48, 0
12, 156360, Note_on_c, 6, 48, 83
12, 156389, Note_on_c, 6, 48, 0
12, 156390, Note_on_c, 6, 48, 87
12, 156419, Note_on_c, 6, 48, 0
12, 156420, Note_on_c, 6, 48, 85
12, 156449, Note_on_c, 6, 48, 0
12, 156450, Note_on_c, 6, 48, 80
12, 156479, Note_on_c, 6, 48, 0
12, 156480, Note_on_c, 6, 48, 84
12, 156509, Note_on_c, 6, 48, 0
12, 156510, Note_on_c, 6, 48, 83
12, 156539, Note_on_c, 6, 48, 0
12, 156540, Note_on_c, 6, 48, 85
12, 156569, Note_on_c, 6, 48, 0
12, 156570, Note_on_c, 6, 48, 84
12, 156599, Note_on_c, 6, 48, 0
12, 156600, Note_on_c, 6, 48, 84
12, 156629, Note_on_c, 6, 48, 0
12, 156630, Note_on_c, 6, 48, 82
12, 156659, Note_on_c, 6, 48, 0
12, 156660, Note_on_c, 6, 48, 81
12, 156689, Note_on_c, 6, 48, 0
12, 156690, Note_on_c, 6, 48, 81
12, 156719, Note_on_c, 6, 48, 0
12, 156720, Note_on_c, 6, 48, 83
12, 156749, Note_on_c, 6, 48, 0
12, 156750, Note_on_c, 6, 48, 86
12, 156779, Note_on_c, 6, 48, 0
12, 156780, Note_on_c, 6, 48, 84
12, 156809, Note_on_c, 6, 48, 0
12, 156810, Note_on_c, 6, 48, 87
12, 156839, Note_on_c, 6, 48, 0
12, 156840, Note_on_c, 6, 48, 86
12, 156869, Note_on_c, 6, 48, 0
12, 156870, Note_on_c, 6, 48, 82
12, 156899, Note_on_c, 6, 48, 0
12, 156900, Note_on_c, 6, 48, 81
12, 156929, Note_on_c, 6, 48, 0
12, 156930, Note_on_c, 6, 48, 85
12, 156959, Note_on_c, 6, 48, 0
12, 156960, Note_on_c, 6, 48, 84
12, 157139, Note_on_c, 6, 48, 0
12, 187200, Note_on_c, 6, 48, 84
12, 187439, Note_on_c, 6, 48, 0
12, 187440, Note_on_c, 6, 48, 92
12, 187679, Note_on_c, 6, 48, 0
12, 187920, Note_on_c, 6, 48, 84
12, 188159, Note_on_c, 6, 48, 0
12, 188160, Note_on_c, 6, 48, 92
12, 188399, Note_on_c, 6, 48, 0
12, 188640, Note_on_c, 6, 41, 84
12, 188759, Note_on_c, 6, 41, 0
12, 188760, Note_on_c, 6, 41, 84
12, 188879, Note_on_c, 6, 41, 0
12, 188880, Note_on_c, 6, 41, 84
12, 188999, Note_on_c, 6, 41, 0
12, 189000, Note_on_c, 6, 41, 84
12, 189119, Note_on_c, 6, 41, 0
12, 189120, Note_on_c, 6, 41, 84
12, 189239, Note_on_c, 6, 41, 0
12, 189240, Note_on_c, 6, 41, 84
12, 189359, Note_on_c, 6, 41, 0
12, 189360, Note_on_c, 6, 41, 84
12, 189599, Note_on_c, 6, 41, 0
12, 189600, Note_on_c, 6, 41, 92
12, 189839, Note_on_c, 6, 41, 0
12, 190080, Note_on_c, 6, 41, 84
12, 190199, Note_on_c, 6, 41, 0
12, 190200, Note_on_c, 6, 41, 84
12, 190319, Note_on_c, 6, 41, 0
12, 190320, Note_on_c, 6, 41, 84
12, 190439, Note_on_c, 6, 41, 0
12, 190440, Note_on_c, 6, 41, 84
12, 190559, Note_on_c, 6, 41, 0
12, 190560, Note_on_c, 6, 41, 84
12, 190679, Note_on_c, 6, 41, 0
12, 190680, Note_on_c, 6, 41, 84
12, 190799, Note_on_c, 6, 41, 0
12, 190800, Note_on_c, 6, 41, 84
12, 191039, Note_on_c, 6, 41, 0
12, 191040, Note_on_c, 6, 41, 92
12, 191279, Note_on_c, 6, 41, 0
12, 191760, Note_on_c, 6, 41, 92
12, 191999, Note_on_c, 6, 41, 0
12, 192240, Note_on_c, 6, 48, 84
12, 192479, Note_on_c, 6, 48, 0
12, 192480, Note_on_c, 6, 48, 92
12, 192719, Note_on_c, 6, 48, 0
12, 192960, Note_on_c, 6, 41, 84
12, 193199, Note_on_c, 6, 41, 0
12, 193200, Note_on_c, 6, 48, 92
12, 193439, Note_on_c, 6, 48, 0
12, 193680, Note_on_c, 6, 41, 84
12, 193919, Note_on_c, 6, 41, 0
12, 193920, Note_on_c, 6, 48, 92
12, 194159, Note_on_c, 6, 48, 0
12, 194400, Note_on_c, 6, 41, 84
12, 194519, Note_on_c, 6, 41, 0
12, 194640, Note_on_c, 6, 41, 92
12, 194879, Note_on_c, 6, 41, 0
12, 195360, Note_on_c, 6, 41, 92
12, 195599, Note_on_c, 6, 41, 0
12, 196080, Note_on_c, 6, 41, 92
12, 196319, Note_on_c, 6, 41, 0
12, 196800, Note_on_c, 6, 41, 92
12, 197039, Note_on_c, 6, 41, 0
12, 197280, Note_on_c, 6, 41, 84
12, 197399, Note_on_c, 6, 41, 0
12, 197520, Note_on_c, 6, 41, 92
12, 197759, Note_on_c, 6, 41, 0
12, 198240, Note_on_c, 6, 41, 92
12, 198479, Note_on_c, 6, 41, 0
12, 198960, Note_on_c, 6, 41, 92
12, 199199, Note_on_c, 6, 41, 0
12, 199680, Note_on_c, 6, 41, 92
12, 199919, Note_on_c, 6, 41, 0
12, 200160, Note_on_c, 6, 41, 84
12, 200279, Note_on_c, 6, 41, 0
12, 200400, Note_on_c, 6, 48, 92
12, 200639, Note_on_c, 6, 48, 0
12, 201120, Note_on_c, 6, 48, 92
12, 201359, Note_on_c, 6, 48, 0
12, 201840, Note_on_c, 6, 48, 92
12, 202079, Note_on_c, 6, 48, 0
12, 202560, Note_on_c, 6, 48, 92
12, 202799, Note_on_c, 6, 48, 0
12, 203040, Note_on_c, 6, 41, 84
12, 203159, Note_on_c, 6, 41, 0
12, 203280, Note_on_c, 6, 48, 92
12, 203309, Note_on_c, 6, 48, 0
12, 203310, Note_on_c, 6, 48, 92
12, 203339, Note_on_c, 6, 48, 0
12, 203340, Note_on_c, 6, 48, 92
12, 203369, Note_on_c, 6, 48, 0
12, 203370, Note_on_c, 6, 48, 92
12, 203399, Note_on_c, 6, 48, 0
12, 203400, Note_on_c, 6, 48, 83
12, 203429, Note_on_c, 6, 48, 0
12, 203430, Note_on_c, 6, 48, 80
12, 203459, Note_on_c, 6, 48, 0
12, 203460, Note_on_c, 6, 48, 85
12, 203489, Note_on_c, 6, 48, 0
12, 203490, Note_on_c, 6, 48, 84
12, 203519, Note_on_c, 6, 48, 0
12, 203520, Note_on_c, 6, 48, 81
12, 203549, Note_on_c, 6, 48, 0
12, 203550, Note_on_c, 6, 48, 87
12, 203579, Note_on_c, 6, 48, 0
12, 203580, Note_on_c, 6, 48, 81
12, 203609, Note_on_c, 6, 48, 0
12, 203610, Note_on_c, 6, 48, 87
12, 203639, Note_on_c, 6, 48, 0
12, 203640, Note_on_c, 6, 48, 85
12, 203669, Note_on_c, 6, 48, 0
12, 203670, Note_on_c, 6, 48, 82
12, 203699, Note_on_c, 6, 48, 0
12, 203700, Note_on_c, 6, 48, 83
12, 203729, Note_on_c, 6, 48, 0
12, 203730, Note_on_c, 6, 48, 80
12, 203759, Note_on_c, 6, 48, 0
12, 203760, Note_on_c, 6, 48, 87
12, 203789, Note_on_c, 6, 48, 0
12, 203790, Note_on_c, 6, 48, 85
12, 203819, Note_on_c, 6, 48, 0
12, 203820, Note_on_c, 6, 48, 81
12, 203849, Note_on_c, 6, 48, 0
12, 203850, Note_on_c, 6, 48, 87
12, 203879, Note_on_c, 6, 48, 0
12, 203880, Note_on_c, 6, 48, 86
12, 203909, Note_on_c, 6, 48, 0
12, 203910, Note_on_c, 6, 48, 84
12, 203939, Note_on_c, 6, 48, 0
12, 203940, Note_on_c, 6, 48, 81
12, 203969, Note_on_c, 6, 48, 0
12, 203970, Note_on_c, 6, 48, 81
12, 203999, Note_on_c, 6, 48, 0
12, 204000, Note_on_c, 6, 48, 86
12, 204029, Note_on_c, 6, 48, 0
12, 204030, Note_on_c, 6, 48, 83
12, 204059, Note_on_c, 6, 48, 0
12, 204060, Note_on_c, 6, 48, 81
12, 204089, Note_on_c, 6, 48, 0
12, 204090, Note_on_c, 6, 48, 84
12, 204119, Note_on_c, 6, 48, 0
12, 204120, Note_on_c, 6, 48, 85
12, 204149, Note_on_c, 6, 48, 0
12, 204150, Note_on_c, 6, 48, 83
12, 204179, Note_on_c, 6, 48, 0
12, 204180, Note_on_c, 6, 48, 82
12, 204209, Note_on_c, 6, 48, 0
12, 204210, Note_on_c, 6, 48, 84
12, 204239, Note_on_c, 6, 48, 0
12, 204240, Note_on_c, 6, 48, 85
12, 204269, Note_on_c, 6, 48, 0
12, 204270, Note_on_c, 6, 48, 86
12, 204299, Note_on_c, 6, 48, 0
12, 204300, Note_on_c, 6, 48, 85
12, 204329, Note_on_c, 6, 48, 0
12, 204330, Note_on_c, 6, 48, 83
12, 204359, Note_on_c, 6, 48, 0
12, 204360, Note_on_c, 6, 48, 80
12, 204389, Note_on_c, 6, 48, 0
12, 204390, Note_on_c, 6, 48, 82
12, 204419, Note_on_c, 6, 48, 0
12, 204420, Note_on_c, 6, 48, 86
12, 204449, Note_on_c, 6, 48, 0
12, 204450, Note_on_c, 6, 48, 80
12, 204479, Note_on_c, 6, 48, 0
12, 204480, Note_on_c, 6, 41, 84
12, 204599, Note_on_c, 6, 41, 0
12, 204720, Note_on_c, 6, 48, 92
12, 204749, Note_on_c, 6, 48, 0
12, 204750, Note_on_c, 6, 48, 92
12, 204779, Note_on_c, 6, 48, 0
12, 204780, Note_on_c, 6, 48, 92
12, 204809, Note_on_c, 6, 48, 0
12, 204810, Note_on_c, 6, 48, 92
12, 204839, Note_on_c, 6, 48, 0
12, 204840, Note_on_c, 6, 48, 84
12, 204869, Note_on_c, 6, 48, 0
12, 204870, Note_on_c, 6, 48, 85
12, 204899, Note_on_c, 6, 48, 0
12, 204900, Note_on_c, 6, 48, 83
12, 204929, Note_on_c, 6, 48, 0
12, 204930, Note_on_c, 6, 48, 80
12, 204959, Note_on_c, 6, 48, 0
12, 204960, Note_on_c, 6, 48, 87
12, 204989, Note_on_c, 6, 48, 0
12, 204990, Note_on_c, 6, 48, 87
12, 205019, Note_on_c, 6, 48, 0
12, 205020, Note_on_c, 6, 48, 84
12, 205049, Note_on_c, 6, 48, 0
12, 205050, Note_on_c, 6, 48, 82
12, 205079, Note_on_c, 6, 48, 0
12, 205080, Note_on_c, 6, 48, 83
12, 205109, Note_on_c, 6, 48, 0
12, 205110, Note_on_c, 6, 48, 82
12, 205139, Note_on_c, 6, 48, 0
12, 205140, Note_on_c, 6, 48, 86
12, 205169, Note_on_c, 6, 48, 0
12, 205170, Note_on_c, 6, 48, 82
12, 205199, Note_on_c, 6, 48, 0
12, 205200, Note_on_c, 6, 48, 83
12, 205229, Note_on_c, 6, 48, 0
12, 205230, Note_on_c, 6, 48, 82
12, 205259, Note_on_c, 6, 48, 0
12, 205260, Note_on_c, 6, 48, 87
12, 205289, Note_on_c, 6, 48, 0
12, 205290, Note_on_c, 6, 48, 82
12, 205319, Note_on_c, 6, 48, 0
12, 205320, Note_on_c, 6, 48, 85
12, 205349, Note_on_c, 6, 48, 0
12, 205350, Note_on_c, 6, 48, 84
12, 205379, Note_on_c, 6, 48, 0
12, 205380, Note_on_c, 6, 48, 81
12, 205409, Note_on_c, 6, 48, 0
12, 205410, Note_on_c, 6, 48, 86
12, 205439, Note_on_c, 6, 48, 0
12, 205440, Note_on_c, 6, 48, 86
12, 205469, Note_on_c, 6, 48, 0
12, 205470, Note_on_c, 6, 48, 83
12, 205499, Note_on_c, 6, 48, 0
12, 205500, Note_on_c, 6, 48, 84
12, 205529, Note_on_c, 6, 48, 0
12, 205530, Note_on_c, 6, 48, 87
12, 205559, Note_on_c, 6, 48, 0
12, 205560, Note_on_c, 6, 48, 80
12, 205589, Note_on_c, 6, 48, 0
12, 205590, Note_on_c, 6, 48, 87
12, 205619, Note_on_c, 6, 48, 0
12, 205620, Note_on_c, 6, 48, 84
12, 205649, Note_on_c, 6, 48, 0
12, 205650, Note_on_c, 6, 48, 80
12, 205679, Note_on_c, 6, 48, 0
12, 205680, Note_on_c, 6, 48, 84
12, 205709, Note_on_c, 6, 48, 0
12, 205710, Note_on_c, 6, 48, 81
12, 205739, Note_on_c, 6, 48, 0
12, 205740, Note_on_c, 6, 48, 86
12, 205769, Note_on_c, 6, 48, 0
12, 205770, Note_on_c, 6, 48, 85
12, 205799, Note_on_c, 6, 48, 0
12, 205800, Note_on_c, 6, 48, 85
12, 205829, Note_on_c, 6, 48, 0
12, 205830, Note_on_c, 6, 48, 81
12, 205859, Note_on_c, 6, 48, 0
12, 205860, Note_on_c, 6, 48, 86
12, 205889, Note_on_c, 6, 48, 0
12, 205890, Note_on_c, 6, 48, 80
12, 205919, Note_on_c, 6, 48, 0
12, 205920, Note_on_c, 6, 48, 92
12, 205979, Note_on_c, 6, 48, 0
12, 206160, Note_on_c, 6, 48, 84
12, 206219, Note_on_c, 6, 48, 0
12, 206640, Note_on_c, 6, 48, 92
12, 206699, Note_on_c, 6, 48, 0
12, 206880, Note_on_c, 6, 48, 84
12, 206939, Note_on_c, 6, 48, 0
12, 207360, Note_on_c, 6, 48, 92
12, 207419, Note_on_c, 6, 48, 0
12, 207600, Note_on_c, 6, 48, 84
12, 207659, Note_on_c, 6, 48, 0
12, 208080, Note_on_c, 6, 48, 92
12, 208139, Note_on_c, 6, 48, 0
12, 208320, Note_on_c, 6, 48, 84
12, 208379, Note_on_c, 6, 48, 0
12, 208800, Note_on_c, 6, 48, 88
12, 208859, Note_on_c, 6, 48, 0
12, 209040, Note_on_c, 6, 48, 88
12, 209159, Note_on_c, 6, 48, 0
12, 209160, Note_on_c, 6, 48, 88
12, 209279, Note_on_c, 6, 48, 0
12, 209280, Note_on_c, 6, 48, 88
12, 209399, Note_on_c, 6, 48, 0
12, 209400, Note_on_c, 6, 48, 88
12, 209519, Note_on_c, 6, 48, 0
12, 209520, Note_on_c, 6, 48, 88
12, 209639, Note_on_c, 6, 48, 0
12, 209640, Note_on_c, 6, 48, 88
12, 209759, Note_on_c, 6, 48, 0
12, 209760, Note_on_c, 6, 48, 88
12, 209879, Note_on_c, 6, 48, 0
12, 209880, Note_on_c, 6, 48, 88
12, 209999, Note_on_c, 6, 48, 0
12, 210000, Note_on_c, 6, 48, 88
12, 210119, Note_on_c, 6, 48, 0
12, 210120, Note_on_c, 6, 48, 88
12, 210239, Note_on_c, 6, 48, 0
12, 210240, Note_on_c, 6, 48, 92
12, 210299, Note_on_c, 6, 48, 0
12, 210300, Note_on_c, 6, 48, 92
12, 210359, Note_on_c, 6, 48, 0
12, 210360, Note_on_c, 6, 48, 92
12, 210419, Note_on_c, 6, 48, 0
12, 210420, Note_on_c, 6, 48, 92
12, 210479, Note_on_c, 6, 48, 0
12, 211440, Note_on_c, 6, 48, 92
12, 211679, Note_on_c, 6, 48, 0
12, 211680, Note_on_c, 6, 48, 92
12, 211919, Note_on_c, 6, 48, 0
12, 212160, Note_on_c, 6, 48, 92
12, 212399, Note_on_c, 6, 48, 0
12, 212400, Note_on_c, 6, 48, 92
12, 212639, Note_on_c, 6, 48, 0
12, 213120, Note_on_c, 6, 48, 92
12, 213179, Note_on_c, 6, 48, 0
12, 213180, Note_on_c, 6, 48, 92
12, 213239, Note_on_c, 6, 48, 0
12, 213240, Note_on_c, 6, 48, 92
12, 213299, Note_on_c, 6, 48, 0
12, 213300, Note_on_c, 6, 48, 92
12, 213359, Note_on_c, 6, 48, 0
12, 214320, Note_on_c, 6, 48, 92
12, 214559, Note_on_c, 6, 48, 0
12, 214560, Note_on_c, 6, 48, 92
12, 214799, Note_on_c, 6, 48, 0
12, 215040, Note_on_c, 6, 48, 92
12, 215279, Note_on_c, 6, 48, 0
12, 215280, Note_on_c, 6, 41, 92
12, 215519, Note_on_c, 6, 41, 0
12, 216240, Note_on_c, 6, 41, 44
12, 216479, Note_on_c, 6, 41, 0
12, 216480, Note_on_c, 6, 41, 44
12, 216719, Note_on_c, 6, 41, 0
12, 216720, Note_on_c, 6, 41, 44
12, 216959, Note_on_c, 6, 41, 0
12, 217680, Note_on_c, 6, 48, 44
12, 217919, Note_on_c, 6, 48, 0
12, 217920, Note_on_c, 6, 48, 44
12, 218159, Note_on_c, 6, 48, 0
12, 218160, Note_on_c, 6, 48, 76
12, 218399, Note_on_c, 6, 48, 0
12, 219120, Note_on_c, 6, 48, 44
12, 219359, Note_on_c, 6, 48, 0
12, 219360, Note_on_c, 6, 48, 44
12, 219599, Note_on_c, 6, 48, 0
12, 219600, Note_on_c, 6, 48, 44
12, 219839, Note_on_c, 6, 48, 0
12, 220560, Note_on_c, 6, 48, 44
12, 220799, Note_on_c, 6, 48, 0
12, 220800, Note_on_c, 6, 48, 44
12, 221039, Note_on_c, 6, 48, 0
12, 221280, Note_on_c, 6, 48, 44
12, 221519, Note_on_c, 6, 48, 0
12, 221520, Note_on_c, 6, 41, 44
12, 221759, Note_on_c, 6, 41, 0
12, 223920, Note_on_c, 6, 41, 76
12, 224159, Note_on_c, 6, 41, 0
12, 225300, Note_on_c, 6, 41, 76
12, 225359, Note_on_c, 6, 41, 0
12, 225360, Note_on_c, 6, 41, 76
12, 225599, Note_on_c, 6, 41, 0
12, 226740, Note_on_c, 6, 41, 76
12, 226799, Note_on_c, 6, 41, 0
12, 226800, Note_on_c, 6, 41, 76
12, 227039, Note_on_c, 6, 41, 0
12, 227460, Note_on_c, 6, 41, 76
12, 227519, Note_on_c, 6, 41, 0
12, 227520, Note_on_c, 6, 41, 76
12, 227759, Note_on_c, 6, 41, 0
12, 228180, Note_on_c, 6, 41, 76
12, 228239, Note_on_c, 6, 41, 0
12, 228240, Note_on_c, 6, 48, 76
12, 228479, Note_on_c, 6, 48, 0
12, 228900, Note_on_c, 6, 48, 76
12, 228959, Note_on_c, 6, 48, 0
12, 228960, Note_on_c, 6, 48, 76
12, 229079, Note_on_c, 6, 48, 0
12, 229200, Note_on_c, 6, 48, 76
12, 229319, Note_on_c, 6, 48, 0
12, 229440, Note_on_c, 6, 48, 76
12, 229559, Note_on_c, 6, 48, 0
12, 229680, Note_on_c, 6, 41, 80
12, 229709, Note_on_c, 6, 41, 0
12, 229710, Note_on_c, 6, 41, 84
12, 229739, Note_on_c, 6, 41, 0
12, 229740, Note_on_c, 6, 41, 81
12, 229769, Note_on_c, 6, 41, 0
12, 229770, Note_on_c, 6, 41, 86
12, 229799, Note_on_c, 6, 41, 0
12, 229800, Note_on_c, 6, 41, 84
12, 229829, Note_on_c, 6, 41, 0
12, 229830, Note_on_c, 6, 41, 83
12, 229859, Note_on_c, 6, 41, 0
12, 229860, Note_on_c, 6, 41, 82
12, 229889, Note_on_c, 6, 41, 0
12, 229890, Note_on_c, 6, 41, 87
12, 229919, Note_on_c, 6, 41, 0
12, 229920, Note_on_c, 6, 41, 86
12, 229949, Note_on_c, 6, 41, 0
12, 229950, Note_on_c, 6, 41, 85
12, 229979, Note_on_c, 6, 41, 0
12, 229980, Note_on_c, 6, 41, 81
12, 230009, Note_on_c, 6, 41, 0
12, 230010, Note_on_c, 6, 41, 86
12, 230039, Note_on_c, 6, 41, 0
12, 230040, Note_on_c, 6, 41, 85
12, 230069, Note_on_c, 6, 41, 0
12, 230070, Note_on_c, 6, 41, 84
12, 230099, Note_on_c, 6, 41, 0
12, 230100, Note_on_c, 6, 41, 82
12, 230129, Note_on_c, 6, 41, 0
12, 230130, Note_on_c, 6, 41, 80
12, 230159, Note_on_c, 6, 41, 0
12, 230160, Note_on_c, 6, 41, 80
12, 230189, Note_on_c, 6, 41, 0
12, 230190, Note_on_c, 6, 41, 82
12, 230219, Note_on_c, 6, 41, 0
12, 230220, Note_on_c, 6, 41, 81
12, 230249, Note_on_c, 6, 41, 0
12, 230250, Note_on_c, 6, 41, 81
12, 230279, Note_on_c, 6, 41, 0
12, 230280, Note_on_c, 6, 41, 87
12, 230309, Note_on_c, 6, 41, 0
12, 230310, Note_on_c, 6, 41, 83
12, 230339, Note_on_c, 6, 41, 0
12, 230340, Note_on_c, 6, 41, 80
12, 230369, Note_on_c, 6, 41, 0
12, 230370, Note_on_c, 6, 41, 80
12, 230399, Note_on_c, 6, 41, 0
12, 230400, Note_on_c, 6, 41, 84
12, 230639, Note_on_c, 6, 41, 0
12, 231060, Note_on_c, 6, 41, 84
12, 231119, Note_on_c, 6, 41, 0
12, 231120, Note_on_c, 6, 41, 80
12, 231149, Note_on_c, 6, 41, 0
12, 231150, Note_on_c, 6, 41, 83
12, 231179, Note_on_c, 6, 41, 0
12, 231180, Note_on_c, 6, 41, 84
12, 231209, Note_on_c, 6, 41, 0
12, 231210, Note_on_c, 6, 41, 84
12, 231239, Note_on_c, 6, 41, 0
12, 231240, Note_on_c, 6, 41, 84
12, 231269, Note_on_c, 6, 41, 0
12, 231270, Note_on_c, 6, 41, 84
12, 231299, Note_on_c, 6, 41, 0
12, 231300, Note_on_c, 6, 41, 81
12, 231329, Note_on_c, 6, 41, 0
12, 231330, Note_on_c, 6, 41, 85
12, 231359, Note_on_c, 6, 41, 0
12, 231360, Note_on_c, 6, 41, 83
12, 231389, Note_on_c, 6, 41, 0
12, 231390, Note_on_c, 6, 41, 82
12, 231419, Note_on_c, 6, 41, 0
12, 231420, Note_on_c, 6, 41, 80
12, 231449, Note_on_c, 6, 41, 0
12, 231450, Note_on_c, 6, 41, 84
12, 231479, Note_on_c, 6, 41, 0
12, 231480, Note_on_c, 6, 41, 86
12, 231509, Note_on_c, 6, 41, 0
12, 231510, Note_on_c, 6, 41, 86
12, 231539, Note_on_c, 6, 41, 0
12, 231540, Note_on_c, 6, 41, 84
12, 231569, Note_on_c, 6, 41, 0
12, 231570, Note_on_c, 6, 41, 82
12, 231599, Note_on_c, 6, 41, 0
12, 231600, Note_on_c, 6, 41, 87
12, 231629, Note_on_c, 6, 41, 0
12, 231630, Note_on_c, 6, 41, 85
12, 231659, Note_on_c, 6, 41, 0
12, 231660, Note_on_c, 6, 41, 87
12, 231689, Note_on_c, 6, 41, 0
12, 231690, Note_on_c, 6, 41, 87
12, 231719, Note_on_c, 6, 41, 0
12, 231720, Note_on_c, 6, 41, 84
12, 231749, Note_on_c, 6, 41, 0
12, 231750, Note_on_c, 6, 41, 81
12, 231779, Note_on_c, 6, 41, 0
12, 231780, Note_on_c, 6, 41, 83
12, 231809, Note_on_c, 6, 41, 0
12, 231810, Note_on_c, 6, 41, 81
12, 231839, Note_on_c, 6, 41, 0
12, 231840, Note_on_c, 6, 41, 84
12, 232079, Note_on_c, 6, 41, 0
12, 232500, Note_on_c, 6, 41, 84
12, 232559, Note_on_c, 6, 41, 0
12, 232560, Note_on_c, 6, 41, 86
12, 232589, Note_on_c, 6, 41, 0
12, 232590, Note_on_c, 6, 41, 81
12, 232619, Note_on_c, 6, 41, 0
12, 232620, Note_on_c, 6, 41, 86
12, 232649, Note_on_c, 6, 41, 0
12, 232650, Note_on_c, 6, 41, 86
12, 232679, Note_on_c, 6, 41, 0
12, 232680, Note_on_c, 6, 41, 87
12, 232709, Note_on_c, 6, 41, 0
12, 232710, Note_on_c, 6, 41, 87
12, 232739, Note_on_c, 6, 41, 0
12, 232740, Note_on_c, 6, 41, 84
12, 232769, Note_on_c, 6, 41, 0
12, 232770, Note_on_c, 6, 41, 83
12, 232799, Note_on_c, 6, 41, 0
12, 232800, Note_on_c, 6, 41, 82
12, 232829, Note_on_c, 6, 41, 0
12, 232830, Note_on_c, 6, 41, 82
12, 232859, Note_on_c, 6, 41, 0
12, 232860, Note_on_c, 6, 41, 86
12, 232889, Note_on_c, 6, 41, 0
12, 232890, Note_on_c, 6, 41, 80
12, 232919, Note_on_c, 6, 41, 0
12, 232920, Note_on_c, 6, 41, 83
12, 232949, Note_on_c, 6, 41, 0
12, 232950, Note_on_c, 6, 41, 80
12, 232979, Note_on_c, 6, 41, 0
12, 232980, Note_on_c, 6, 41, 85
12, 233009, Note_on_c, 6, 41, 0
12, 233010, Note_on_c, 6, 41, 80
12, 233039, Note_on_c, 6, 41, 0
12, 233040, Note_on_c, 6, 41, 80
12, 233069, Note_on_c, 6, 41, 0
12, 233070, Note_on_c, 6, 41, 87
12, 233099, Note_on_c, 6, 41, 0
12, 233100, Note_on_c, 6, 41, 82
12, 233129, Note_on_c, 6, 41, 0
12, 233130, Note_on_c, 6, 41, 82
12, 233159, Note_on_c, 6, 41, 0
12, 233160, Note_on_c, 6, 41, 84
12, 233189, Note_on_c, 6, 41, 0
12, 233190, Note_on_c, 6, 41, 85
12, 233219, Note_on_c, 6, 41, 0
12, 233220, Note_on_c, 6, 41, 86
12, 233249, Note_on_c, 6, 41, 0
12, 233250, Note_on_c, 6, 41, 85
12, 233279, Note_on_c, 6, 41, 0
12, 233280, Note_on_c, 6, 41, 84
12, 233519, Note_on_c, 6, 41, 0
12, 233940, Note_on_c, 6, 41, 84
12, 233999, Note_on_c, 6, 41, 0
12, 234000, Note_on_c, 6, 41, 83
12, 234029, Note_on_c, 6, 41, 0
12, 234030, Note_on_c, 6, 41, 81
12, 234059, Note_on_c, 6, 41, 0
12, 234060, Note_on_c, 6, 41, 85
12, 234089, Note_on_c, 6, 41, 0
12, 234090, Note_on_c, 6, 41, 83
12, 234119, Note_on_c, 6, 41, 0
12, 234120, Note_on_c, 6, 41, 83
12, 234149, Note_on_c, 6, 41, 0
12, 234150, Note_on_c, 6, 41, 87
12, 234179, Note_on_c, 6, 41, 0
12, 234180, Note_on_c, 6, 41, 85
12, 234209, Note_on_c, 6, 41, 0
12, 234210, Note_on_c, 6, 41, 80
12, 234239, Note_on_c, 6, 41, 0
12, 234240, Note_on_c, 6, 41, 84
12, 234269, Note_on_c, 6, 41, 0
12, 234270, Note_on_c, 6, 41, 83
12, 234299, Note_on_c, 6, 41, 0
12, 234300, Note_on_c, 6, 41, 85
12, 234329, Note_on_c, 6, 41, 0
12, 234330, Note_on_c, 6, 41, 84
12, 234359, Note_on_c, 6, 41, 0
12, 234360, Note_on_c, 6, 41, 84
12, 234389, Note_on_c, 6, 41, 0
12, 234390, Note_on_c, 6, 41, 82
12, 234419, Note_on_c, 6, 41, 0
12, 234420, Note_on_c, 6, 41, 81
12, 234449, Note_on_c, 6, 41, 0
12, 234450, Note_on_c, 6, 41, 81
12, 234479, Note_on_c, 6, 41, 0
12, 234480, Note_on_c, 6, 41, 83
12, 234509, Note_on_c, 6, 41, 0
12, 234510, Note_on_c, 6, 41, 86
12, 234539, Note_on_c, 6, 41, 0
12, 234540, Note_on_c, 6, 41, 84
12, 234569, Note_on_c, 6, 41, 0
12, 234570, Note_on_c, 6, 41, 87
12, 234599, Note_on_c, 6, 41, 0
12, 234600, Note_on_c, 6, 41, 86
12, 234629, Note_on_c, 6, 41, 0
12, 234630, Note_on_c, 6, 41, 82
12, 234659, Note_on_c, 6, 41, 0
12, 234660, Note_on_c, 6, 41, 81
12, 234689, Note_on_c, 6, 41, 0
12, 234690, Note_on_c, 6, 41, 85
12, 234719, Note_on_c, 6, 41, 0
12, 234720, Note_on_c, 6, 41, 84
12, 234959, Note_on_c, 6, 41, 0
12, 235380, Note_on_c, 6, 41, 84
12, 235439, Note_on_c, 6, 41, 0
12, 235440, Note_on_c, 6, 41, 83
12, 235469, Note_on_c, 6, 41, 0
12, 235470, Note_on_c, 6, 41, 80
12, 235499, Note_on_c, 6, 41, 0
12, 235500, Note_on_c, 6, 41, 85
12, 235529, Note_on_c, 6, 41, 0
12, 235530, Note_on_c, 6, 41, 84
12, 235559, Note_on_c, 6, 41, 0
12, 235560, Note_on_c, 6, 41, 81
12, 235589, Note_on_c, 6, 41, 0
12, 235590, Note_on_c, 6, 41, 87
12, 235619, Note_on_c, 6, 41, 0
12, 235620, Note_on_c, 6, 41, 81
12, 235649, Note_on_c, 6, 41, 0
12, 235650, Note_on_c, 6, 41, 87
12, 235679, Note_on_c, 6, 41, 0
12, 235680, Note_on_c, 6, 41, 85
12, 235709, Note_on_c, 6, 41, 0
12, 235710, Note_on_c, 6, 41, 82
12, 235739, Note_on_c, 6, 41, 0
12, 235740, Note_on_c, 6, 41, 83
12, 235769, Note_on_c, 6, 41, 0
12, 235770, Note_on_c, 6, 41, 80
12, 235799, Note_on_c, 6, 41, 0
12, 235800, Note_on_c, 6, 41, 87
12, 235829, Note_on_c, 6, 41, 0
12, 235830, Note_on_c, 6, 41, 85
12, 235859, Note_on_c, 6, 41, 0
12, 235860, Note_on_c, 6, 41, 81
12, 235889, Note_on_c, 6, 41, 0
12, 235890, Note_on_c, 6, 41, 87
12, 235919, Note_on_c, 6, 41, 0
12, 235920, Note_on_c, 6, 41, 92
12, 236099, Note_on_c, 6, 41, 0
12, 236100, Note_on_c, 6, 41, 84
12, 236159, Note_on_c, 6, 41, 0
12, 236160, Note_on_c, 6, 41, 86
12, 236189, Note_on_c, 6, 41, 0
12, 236190, Note_on_c, 6, 41, 84
12, 236219, Note_on_c, 6, 41, 0
12, 236220, Note_on_c, 6, 41, 81
12, 236249, Note_on_c, 6, 41, 0
12, 236250, Note_on_c, 6, 41, 81
12, 236279, Note_on_c, 6, 41, 0
12, 236280, Note_on_c, 6, 41, 86
12, 236309, Note_on_c, 6, 41, 0
12, 236310, Note_on_c, 6, 41, 83
12, 236339, Note_on_c, 6, 41, 0
12, 236340, Note_on_c, 6, 41, 81
12, 236369, Note_on_c, 6, 41, 0
12, 236370, Note_on_c, 6, 41, 84
12, 236399, Note_on_c, 6, 41, 0
12, 236400, Note_on_c, 6, 41, 85
12, 236429, Note_on_c, 6, 41, 0
12, 236430, Note_on_c, 6, 41, 83
12, 236459, Note_on_c, 6, 41, 0
12, 236460, Note_on_c, 6, 41, 82
12, 236489, Note_on_c, 6, 41, 0
12, 236490, Note_on_c, 6, 41, 84
12, 236519, Note_on_c, 6, 41, 0
12, 236520, Note_on_c, 6, 41, 85
12, 236549, Note_on_c, 6, 41, 0
12, 236550, Note_on_c, 6, 41, 86
12, 236579, Note_on_c, 6, 41, 0
12, 236580, Note_on_c, 6, 41, 85
12, 236609, Note_on_c, 6, 41, 0
12, 236610, Note_on_c, 6, 41, 83
12, 236639, Note_on_c, 6, 41, 0
12, 236640, Note_on_c, 6, 41, 92
12, 236819, Note_on_c, 6, 41, 0
12, 236820, Note_on_c, 6, 41, 84
12, 236879, Note_on_c, 6, 41, 0
12, 236880, Note_on_c, 6, 41, 84
12, 236999, Note_on_c, 6, 41, 0
12, 237360, Note_on_c, 6, 41, 92
12, 237479, Note_on_c, 6, 41, 0
12, 237600, Note_on_c, 6, 41, 84
12, 237719, Note_on_c, 6, 41, 0
12, 238080, Note_on_c, 6, 41, 84
12, 238199, Note_on_c, 6, 41, 0
12, 238320, Note_on_c, 6, 41, 84
12, 238439, Note_on_c, 6, 41, 0
12, 254880, Note_on_c, 6, 41, 44
12, 255119, Note_on_c, 6, 41, 0
12, 255360, Note_on_c, 6, 41, 44
12, 255599, Note_on_c, 6, 41, 0
12, 255600, Note_on_c, 6, 41, 44
12, 255839, Note_on_c, 6, 41, 0
12, 257760, Note_on_c, 6, 41, 44
12, 257879, Note_on_c, 6, 41, 0
12, 258240, Note_on_c, 6, 41, 44
12, 258359, Note_on_c, 6, 41, 0
12, 259920, Note_on_c, 6, 41, 72
12, 260039, Note_on_c, 6, 41, 0
12, 261360, Note_on_c, 6, 41, 80
12, 261479, Note_on_c, 6, 41, 0
12, 262080, Note_on_c, 6, 48, 88
12, 262199, Note_on_c, 6, 48, 0
12, 262800, Note_on_c, 6, 48, 84
12, 262919, Note_on_c, 6, 48, 0
12, 263280, Note_on_c, 6, 48, 84
12, 263399, Note_on_c, 6, 48, 0
12, 263520, Note_on_c, 6, 41, 84
12, 263639, Note_on_c, 6, 41, 0
12, 264000, Note_on_c, 6, 41, 84
12, 264119, Note_on_c, 6, 41, 0
12, 264240, Note_on_c, 6, 41, 84
12, 264359, Note_on_c, 6, 41, 0
12, 264720, Note_on_c, 6, 41, 84
12, 264839, Note_on_c, 6, 41, 0
12, 264960, Note_on_c, 6, 48, 84
12, 265079, Note_on_c, 6, 48, 0
12, 265440, Note_on_c, 6, 48, 84
12, 265559, Note_on_c, 6, 48, 0
12, 265680, Note_on_c, 6, 41, 84
12, 265859, Note_on_c, 6, 41, 0
12, 265860, Note_on_c, 6, 41, 84
12, 265919, Note_on_c, 6, 41, 0
12, 265920, Note_on_c, 6, 41, 84
12, 266039, Note_on_c, 6, 41, 0
12, 266160, Note_on_c, 6, 41, 84
12, 266339, Note_on_c, 6, 41, 0
12, 266340, Note_on_c, 6, 41, 84
12, 266399, Note_on_c, 6, 41, 0
12, 266400, Note_on_c, 6, 41, 84
12, 266519, Note_on_c, 6, 41, 0
12, 266640, Note_on_c, 6, 41, 84
12, 266819, Note_on_c, 6, 41, 0
12, 266820, Note_on_c, 6, 41, 84
12, 266879, Note_on_c, 6, 41, 0
12, 266880, Note_on_c, 6, 41, 84
12, 266999, Note_on_c, 6, 41, 0
12, 267120, Note_on_c, 6, 41, 84
12, 267299, Note_on_c, 6, 41, 0
12, 267300, Note_on_c, 6, 41, 84
12, 267359, Note_on_c, 6, 41, 0
12, 267360, Note_on_c, 6, 41, 84
12, 267479, Note_on_c, 6, 41, 0
12, 272880, Note_on_c, 6, 41, 84
12, 273059, Note_on_c, 6, 41, 0
12, 273060, Note_on_c, 6, 41, 84
12, 273119, Note_on_c, 6, 41, 0
12, 273120, Note_on_c, 6, 41, 84
12, 273239, Note_on_c, 6, 41, 0
12, 273360, Note_on_c, 6, 41, 84
12, 273539, Note_on_c, 6, 41, 0
12, 273540, Note_on_c, 6, 41, 84
12, 273599, Note_on_c, 6, 41, 0
12, 273600, Note_on_c, 6, 41, 84
12, 273719, Note_on_c, 6, 41, 0
12, 273840, Note_on_c, 6, 41, 84
12, 274019, Note_on_c, 6, 41, 0
12, 274020, Note_on_c, 6, 41, 84
12, 274079, Note_on_c, 6, 41, 0
12, 274080, Note_on_c, 6, 41, 84
12, 274199, Note_on_c, 6, 41, 0
12, 274320, Note_on_c, 6, 41, 84
12, 274499, Note_on_c, 6, 41, 0
12, 274500, Note_on_c, 6, 41, 84
12, 274559, Note_on_c, 6, 41, 0
12, 274560, Note_on_c, 6, 41, 84
12, 274679, Note_on_c, 6, 41, 0
12, 281520, Note_on_c, 6, 41, 76
12, 281759, Note_on_c, 6, 41, 0
12, 282240, Note_on_c, 6, 48, 84
12, 282479, Note_on_c, 6, 48, 0
12, 282960, Note_on_c, 6, 41, 84
12, 283199, Note_on_c, 6, 41, 0
12, 283680, Note_on_c, 6, 48, 84
12, 283919, Note_on_c, 6, 48, 0
12, 284400, Note_on_c, 6, 41, 80
12, 284429, Note_on_c, 6, 41, 0
12, 284430, Note_on_c, 6, 41, 82
12, 284459, Note_on_c, 6, 41, 0
12, 284460, Note_on_c, 6, 41, 86
12, 284489, Note_on_c, 6, 41, 0
12, 284490, Note_on_c, 6, 41, 80
12, 284519, Note_on_c, 6, 41, 0
12, 284520, Note_on_c, 6, 41, 84
12, 284549, Note_on_c, 6, 41, 0
12, 284550, Note_on_c, 6, 41, 85
12, 284579, Note_on_c, 6, 41, 0
12, 284580, Note_on_c, 6, 41, 83
12, 284609, Note_on_c, 6, 41, 0
12, 284610, Note_on_c, 6, 41, 80
12, 284639, Note_on_c, 6, 41, 0
12, 284640, Note_on_c, 6, 41, 87
12, 284669, Note_on_c, 6, 41, 0
12, 284670, Note_on_c, 6, 41, 87
12, 284699, Note_on_c, 6, 41, 0
12, 284700, Note_on_c, 6, 41, 84
12, 284729, Note_on_c, 6, 41, 0
12, 284730, Note_on_c, 6, 41, 82
12, 284759, Note_on_c, 6, 41, 0
12, 284760, Note_on_c, 6, 41, 83
12, 284789, Note_on_c, 6, 41, 0
12, 284790, Note_on_c, 6, 41, 82
12, 284819, Note_on_c, 6, 41, 0
12, 284820, Note_on_c, 6, 41, 86
12, 284849, Note_on_c, 6, 41, 0
12, 284850, Note_on_c, 6, 41, 82
12, 284879, Note_on_c, 6, 41, 0
12, 284880, Note_on_c, 6, 41, 83
12, 284909, Note_on_c, 6, 41, 0
12, 284910, Note_on_c, 6, 41, 82
12, 284939, Note_on_c, 6, 41, 0
12, 284940, Note_on_c, 6, 41, 87
12, 284969, Note_on_c, 6, 41, 0
12, 284970, Note_on_c, 6, 41, 82
12, 284999, Note_on_c, 6, 41, 0
12, 285000, Note_on_c, 6, 41, 85
12, 285029, Note_on_c, 6, 41, 0
12, 285030, Note_on_c, 6, 41, 84
12, 285059, Note_on_c, 6, 41, 0
12, 285060, Note_on_c, 6, 41, 81
12, 285089, Note_on_c, 6, 41, 0
12, 285090, Note_on_c, 6, 41, 86
12, 285119, Note_on_c, 6, 41, 0
12, 285120, Note_on_c, 6, 41, 86
12, 285149, Note_on_c, 6, 41, 0
12, 285150, Note_on_c, 6, 41, 83
12, 285179, Note_on_c, 6, 41, 0
12, 285180, Note_on_c, 6, 41, 84
12, 285209, Note_on_c, 6, 41, 0
12, 285210, Note_on_c, 6, 41, 87
12, 285239, Note_on_c, 6, 41, 0
12, 285240, Note_on_c, 6, 41, 80
12, 285269, Note_on_c, 6, 41, 0
12, 285270, Note_on_c, 6, 41, 87
12, 285299, Note_on_c, 6, 41, 0
12, 285300, Note_on_c, 6, 41, 84
12, 285329, Note_on_c, 6, 41, 0
12, 285330, Note_on_c, 6, 41, 80
12, 285359, Note_on_c, 6, 41, 0
12, 285360, Note_on_c, 6, 41, 84
12, 285389, Note_on_c, 6, 41, 0
12, 285390, Note_on_c, 6, 41, 81
12, 285419, Note_on_c, 6, 41, 0
12, 285420, Note_on_c, 6, 41, 86
12, 285449, Note_on_c, 6, 41, 0
12, 285450, Note_on_c, 6, 41, 85
12, 285479, Note_on_c, 6, 41, 0
12, 285480, Note_on_c, 6, 41, 85
12, 285509, Note_on_c, 6, 41, 0
12, 285510, Note_on_c, 6, 41, 81
12, 285539, Note_on_c, 6, 41, 0
12, 285540, Note_on_c, 6, 41, 86
12, 285569, Note_on_c, 6, 41, 0
12, 285570, Note_on_c, 6, 41, 80
12, 285599, Note_on_c, 6, 41, 0
12, 285600, Note_on_c, 6, 41, 80
12, 285629, Note_on_c, 6, 41, 0
12, 285630, Note_on_c, 6, 41, 85
12, 285659, Note_on_c, 6, 41, 0
12, 285660, Note_on_c, 6, 41, 82
12, 285689, Note_on_c, 6, 41, 0
12, 285690, Note_on_c, 6, 41, 87
12, 285719, Note_on_c, 6, 41, 0
12, 285720, Note_on_c, 6, 41, 82
12, 285749, Note_on_c, 6, 41, 0
12, 285750, Note_on_c, 6, 41, 82
12, 285779, Note_on_c, 6, 41, 0
12, 285780, Note_on_c, 6, 41, 81
12, 285809, Note_on_c, 6, 41, 0
12, 285810, Note_on_c, 6, 41, 85
12, 285839, Note_on_c, 6, 41, 0
12, 285840, Note_on_c, 6, 41, 86
12, 285869, Note_on_c, 6, 41, 0
12, 285870, Note_on_c, 6, 41, 85
12, 285899, Note_on_c, 6, 41, 0
12, 285900, Note_on_c, 6, 41, 84
12, 285929, Note_on_c, 6, 41, 0
12, 285930, Note_on_c, 6, 41, 85
12, 285959, Note_on_c, 6, 41, 0
12, 285960, Note_on_c, 6, 41, 82
12, 285989, Note_on_c, 6, 41, 0
12, 285990, Note_on_c, 6, 41, 81
12, 286019, Note_on_c, 6, 41, 0
12, 286020, Note_on_c, 6, 41, 80
12, 286049, Note_on_c, 6, 41, 0
12, 286050, Note_on_c, 6, 41, 80
12, 286079, Note_on_c, 6, 41, 0
12, 286080, Note_on_c, 6, 41, 86
12, 286109, Note_on_c, 6, 41, 0
12, 286110, Note_on_c, 6, 41, 86
12, 286139, Note_on_c, 6, 41, 0
12, 286140, Note_on_c, 6, 41, 81
12, 286169, Note_on_c, 6, 41, 0
12, 286170, Note_on_c, 6, 41, 80
12, 286199, Note_on_c, 6, 41, 0
12, 286200, Note_on_c, 6, 41, 84
12, 286229, Note_on_c, 6, 41, 0
12, 286230, Note_on_c, 6, 41, 80
12, 286259, Note_on_c, 6, 41, 0
12, 286260, Note_on_c, 6, 41, 80
12, 286289, Note_on_c, 6, 41, 0
12, 286290, Note_on_c, 6, 41, 83
12, 286319, Note_on_c, 6, 41, 0
12, 286320, Note_on_c, 6, 41, 86
12, 286349, Note_on_c, 6, 41, 0
12, 286350, Note_on_c, 6, 41, 85
12, 286379, Note_on_c, 6, 41, 0
12, 286380, Note_on_c, 6, 41, 84
12, 286409, Note_on_c, 6, 41, 0
12, 286410, Note_on_c, 6, 41, 80
12, 286439, Note_on_c, 6, 41, 0
12, 286440, Note_on_c, 6, 41, 83
12, 286469, Note_on_c, 6, 41, 0
12, 286470, Note_on_c, 6, 41, 81
12, 286499, Note_on_c, 6, 41, 0
12, 286500, Note_on_c, 6, 41, 85
12, 286529, Note_on_c, 6, 41, 0
12, 286530, Note_on_c, 6, 41, 82
12, 286559, Note_on_c, 6, 41, 0
12, 286560, Note_on_c, 6, 41, 83
12, 286589, Note_on_c, 6, 41, 0
12, 286590, Note_on_c, 6, 41, 81
12, 286619, Note_on_c, 6, 41, 0
12, 286620, Note_on_c, 6, 41, 84
12, 286649, Note_on_c, 6, 41, 0
12, 286650, Note_on_c, 6, 41, 84
12, 286679, Note_on_c, 6, 41, 0
12, 286680, Note_on_c, 6, 41, 85
12, 286709, Note_on_c, 6, 41, 0
12, 286710, Note_on_c, 6, 41, 81
12, 286739, Note_on_c, 6, 41, 0
12, 286740, Note_on_c, 6, 41, 84
12, 286769, Note_on_c, 6, 41, 0
12, 286770, Note_on_c, 6, 41, 87
12, 286799, Note_on_c, 6, 41, 0
12, 286800, Note_on_c, 6, 41, 85
12, 286829, Note_on_c, 6, 41, 0
12, 286830, Note_on_c, 6, 41, 87
12, 286859, Note_on_c, 6, 41, 0
12, 286860, Note_on_c, 6, 41, 81
12, 286889, Note_on_c, 6, 41, 0
12, 286890, Note_on_c, 6, 41, 82
12, 286919, Note_on_c, 6, 41, 0
12, 286920, Note_on_c, 6, 41, 81
12, 286949, Note_on_c, 6, 41, 0
12, 286950, Note_on_c, 6, 41, 87
12, 286979, Note_on_c, 6, 41, 0
12, 286980, Note_on_c, 6, 41, 83
12, 287009, Note_on_c, 6, 41, 0
12, 287010, Note_on_c, 6, 41, 87
12, 287039, Note_on_c, 6, 41, 0
12, 287040, Note_on_c, 6, 41, 80
12, 287069, Note_on_c, 6, 41, 0
12, 287070, Note_on_c, 6, 41, 85
12, 287099, Note_on_c, 6, 41, 0
12, 287100, Note_on_c, 6, 41, 80
12, 287129, Note_on_c, 6, 41, 0
12, 287130, Note_on_c, 6, 41, 83
12, 287159, Note_on_c, 6, 41, 0
12, 287160, Note_on_c, 6, 41, 87
12, 287189, Note_on_c, 6, 41, 0
12, 287190, Note_on_c, 6, 41, 80
12, 287219, Note_on_c, 6, 41, 0
12, 287220, Note_on_c, 6, 41, 87
12, 287249, Note_on_c, 6, 41, 0
12, 287250, Note_on_c, 6, 41, 82
12, 287279, Note_on_c, 6, 41, 0
12, 287280, Note_on_c, 6, 41, 92
12, 287519, Note_on_c, 6, 41, 0
12, 288000, Note_on_c, 6, 41, 92
12, 288239, Note_on_c, 6, 41, 0
12, 288720, Note_on_c, 6, 41, 92
12, 288959, Note_on_c, 6, 41, 0
12, 289440, Note_on_c, 6, 41, 92
12, 289679, Note_on_c, 6, 41, 0
12, 289800, Note_on_c, 6, 41, 84
12, 289919, Note_on_c, 6, 41, 0
12, 289920, Note_on_c, 6, 41, 84
12, 290039, Note_on_c, 6, 41, 0
12, 290040, Note_on_c, 6, 41, 84
12, 290159, Note_on_c, 6, 41, 0
12, 290160, Note_on_c, 6, 41, 84
12, 290399, Note_on_c, 6, 41, 0
12, 306000, Note_on_c, 6, 41, 84
12, 306059, Note_on_c, 6, 41, 0
12, 306060, Note_on_c, 6, 41, 84
12, 306119, Note_on_c, 6, 41, 0
12, 306120, Note_on_c, 6, 41, 84
12, 306179, Note_on_c, 6, 41, 0
12, 306180, Note_on_c, 6, 41, 84
12, 306239, Note_on_c, 6, 41, 0
12, 306240, Note_on_c, 6, 41, 84
12, 306359, Note_on_c, 6, 41, 0
12, 306720, Note_on_c, 6, 41, 92
12, 306779, Note_on_c, 6, 41, 0
12, 306780, Note_on_c, 6, 41, 84
12, 306839, Note_on_c, 6, 41, 0
12, 306840, Note_on_c, 6, 41, 84
12, 306899, Note_on_c, 6, 41, 0
12, 306900, Note_on_c, 6, 41, 84
12, 306959, Note_on_c, 6, 41, 0
12, 306960, Note_on_c, 6, 41, 84
12, 307079, Note_on_c, 6, 41, 0
12, 307440, Note_on_c, 6, 41, 92
12, 307499, Note_on_c, 6, 41, 0
12, 307500, Note_on_c, 6, 41, 84
12, 307559, Note_on_c, 6, 41, 0
12, 307560, Note_on_c, 6, 41, 84
12, 307619, Note_on_c, 6, 41, 0
12, 307620, Note_on_c, 6, 41, 84
12, 307679, Note_on_c, 6, 41, 0
12, 307680, Note_on_c, 6, 41, 84
12, 307799, Note_on_c, 6, 41, 0
12, 308160, Note_on_c, 6, 41, 92
12, 308219, Note_on_c, 6, 41, 0
12, 308220, Note_on_c, 6, 41, 84
12, 308279, Note_on_c, 6, 41, 0
12, 308280, Note_on_c, 6, 41, 84
12, 308339, Note_on_c, 6, 41, 0
12, 308340, Note_on_c, 6, 41, 84
12, 308399, Note_on_c, 6, 41, 0
12, 308400, Note_on_c, 6, 41, 84
12, 308519, Note_on_c, 6, 41, 0
12, 308880, Note_on_c, 6, 41, 92
12, 308939, Note_on_c, 6, 41, 0
12, 308940, Note_on_c, 6, 41, 84
12, 308999, Note_on_c, 6, 41, 0
12, 309000, Note_on_c, 6, 41, 84
12, 309059, Note_on_c, 6, 41, 0
12, 309060, Note_on_c, 6, 41, 84
12, 309119, Note_on_c, 6, 41, 0
12, 309120, Note_on_c, 6, 41, 84
12, 309239, Note_on_c, 6, 41, 0
12, 309600, Note_on_c, 6, 41, 92
12, 309659, Note_on_c, 6, 41, 0
12, 309660, Note_on_c, 6, 41, 84
12, 309719, Note_on_c, 6, 41, 0
12, 309720, Note_on_c, 6, 41, 84
12, 309779, Note_on_c, 6, 41, 0
12, 309780, Note_on_c, 6, 41, 84
12, 309839, Note_on_c, 6, 41, 0
12, 309840, Note_on_c, 6, 41, 84
12, 309959, Note_on_c, 6, 41, 0
12, 310320, Note_on_c, 6, 41, 92
12, 310439, Note_on_c, 6, 41, 0
12, 310560, Note_on_c, 6, 48, 84
12, 310679, Note_on_c, 6, 48, 0
12, 310800, Note_on_c, 6, 48, 84
12, 310919, Note_on_c, 6, 48, 0
12, 311040, Note_on_c, 6, 41, 92
12, 311159, Note_on_c, 6, 41, 0
12, 311280, Note_on_c, 6, 48, 84
12, 311399, Note_on_c, 6, 48, 0
12, 311520, Note_on_c, 6, 48, 84
12, 311639, Note_on_c, 6, 48, 0
12, 311760, Note_on_c, 6, 41, 92
12, 311879, Note_on_c, 6, 41, 0
12, 312000, Note_on_c, 6, 48, 84
12, 312119, Note_on_c, 6, 48, 0
12, 312240, Note_on_c, 6, 48, 84
12, 312359, Note_on_c, 6, 48, 0
12, 312960, Note_on_c, 6, 48, 92
12, 313199, Note_on_c, 6, 48, 0
12, 318960, Note_on_c, 6, 41, 76
12, 319199, Note_on_c, 6, 41, 0
12, 319440, Note_on_c, 6, 41, 84
12, 319679, Note_on_c, 6, 41, 0
12, 319680, Note_on_c, 6, 41, 76
12, 319919, Note_on_c, 6, 41, 0
12, 320160, Note_on_c, 6, 41, 84
12, 320399, Note_on_c, 6, 41, 0
12, 320400, Note_on_c, 6, 41, 76
12, 320639, Note_on_c, 6, 41, 0
12, 320880, Note_on_c, 6, 41, 84
12, 321119, Note_on_c, 6, 41, 0
12, 321120, Note_on_c, 6, 41, 76
12, 321359, Note_on_c, 6, 41, 0
12, 321600, Note_on_c, 6, 41, 84
12, 321839, Note_on_c, 6, 41, 0
12, 321840, Note_on_c, 6, 41, 76
12, 322079, Note_on_c, 6, 41, 0
12, 322320, Note_on_c, 6, 41, 84
12, 322559, Note_on_c, 6, 41, 0
12, 322560, Note_on_c, 6, 41, 76
12, 322799, Note_on_c, 6, 41, 0
12, 323040, Note_on_c, 6, 48, 84
12, 323279, Note_on_c, 6, 48, 0
12, 323280, Note_on_c, 6, 48, 76
12, 323519, Note_on_c, 6, 48, 0
12, 324000, Note_on_c, 6, 41, 76
12, 324239, Note_on_c, 6, 41, 0
12, 324480, Note_on_c, 6, 41, 84
12, 324719, Note_on_c, 6, 41, 0
12, 324720, Note_on_c, 6, 41, 89
12, 324749, Note_on_c, 6, 41, 0
12, 324750, Note_on_c, 6, 41, 94
12, 324779, Note_on_c, 6, 41, 0
12, 324780, Note_on_c, 6, 41, 91
12, 324809, Note_on_c, 6, 41, 0
12, 324810, Note_on_c, 6, 41, 89
12, 324839, Note_on_c, 6, 41, 0
12, 324840, Note_on_c, 6, 41, 93
12, 324869, Note_on_c, 6, 41, 0
12, 324870, Note_on_c, 6, 41, 92
12, 324899, Note_on_c, 6, 41, 0
12, 324900, Note_on_c, 6, 41, 91
12, 324929, Note_on_c, 6, 41, 0
12, 324930, Note_on_c, 6, 41, 91
12, 324959, Note_on_c, 6, 41, 0
12, 324960, Note_on_c, 6, 41, 92
12, 324989, Note_on_c, 6, 41, 0
12, 324990, Note_on_c, 6, 41, 93
12, 325019, Note_on_c, 6, 41, 0
12, 325020, Note_on_c, 6, 41, 94
12, 325049, Note_on_c, 6, 41, 0
12, 325050, Note_on_c, 6, 41, 94
12, 325079, Note_on_c, 6, 41, 0
12, 325080, Note_on_c, 6, 41, 92
12, 325109, Note_on_c, 6, 41, 0
12, 325110, Note_on_c, 6, 41, 93
12, 325139, Note_on_c, 6, 41, 0
12, 325140, Note_on_c, 6, 41, 92
12, 325169, Note_on_c, 6, 41, 0
12, 325170, Note_on_c, 6, 41, 91
12, 325199, Note_on_c, 6, 41, 0
12, 325200, Note_on_c, 6, 41, 89
12, 325229, Note_on_c, 6, 41, 0
12, 325230, Note_on_c, 6, 41, 93
12, 325259, Note_on_c, 6, 41, 0
12, 325260, Note_on_c, 6, 41, 92
12, 325289, Note_on_c, 6, 41, 0
12, 325290, Note_on_c, 6, 41, 95
12, 325319, Note_on_c, 6, 41, 0
12, 325320, Note_on_c, 6, 41, 89
12, 325349, Note_on_c, 6, 41, 0
12, 325350, Note_on_c, 6, 41, 89
12, 325379, Note_on_c, 6, 41, 0
12, 325380, Note_on_c, 6, 41, 92
12, 325409, Note_on_c, 6, 41, 0
12, 325410, Note_on_c, 6, 41, 93
12, 325439, Note_on_c, 6, 41, 0
12, 325440, Note_on_c, 6, 41, 92
12, 325469, Note_on_c, 6, 41, 0
12, 325470, Note_on_c, 6, 41, 90
12, 325499, Note_on_c, 6, 41, 0
12, 325500, Note_on_c, 6, 41, 91
12, 325529, Note_on_c, 6, 41, 0
12, 325530, Note_on_c, 6, 41, 88
12, 325559, Note_on_c, 6, 41, 0
12, 325560, Note_on_c, 6, 41, 93
12, 325589, Note_on_c, 6, 41, 0
12, 325590, Note_on_c, 6, 41, 92
12, 325619, Note_on_c, 6, 41, 0
12, 325620, Note_on_c, 6, 41, 92
12, 325649, Note_on_c, 6, 41, 0
12, 325650, Note_on_c, 6, 41, 93
12, 325679, Note_on_c, 6, 41, 0
12, 325680, Note_on_c, 6, 41, 94
12, 325709, Note_on_c, 6, 41, 0
12, 325710, Note_on_c, 6, 41, 89
12, 325739, Note_on_c, 6, 41, 0
12, 325740, Note_on_c, 6, 41, 92
12, 325769, Note_on_c, 6, 41, 0
12, 325770, Note_on_c, 6, 41, 94
12, 325799, Note_on_c, 6, 41, 0
12, 325800, Note_on_c, 6, 41, 95
12, 325829, Note_on_c, 6, 41, 0
12, 325830, Note_on_c, 6, 41, 92
12, 325859, Note_on_c, 6, 41, 0
12, 325860, Note_on_c, 6, 41, 93
12, 325889, Note_on_c, 6, 41, 0
12, 325890, Note_on_c, 6, 41, 88
12, 325919, Note_on_c, 6, 41, 0
12, 325920, Note_on_c, 6, 48, 92
12, 326159, Note_on_c, 6, 48, 0
12, 326160, Note_on_c, 6, 41, 92
12, 326279, Note_on_c, 6, 41, 0
12, 326880, Note_on_c, 6, 41, 92
12, 326999, Note_on_c, 6, 41, 0
12, 327600, Note_on_c, 6, 41, 92
12, 327719, Note_on_c, 6, 41, 0
12, 328320, Note_on_c, 6, 48, 92
12, 328439, Note_on_c, 6, 48, 0
12, 328560, Note_on_c, 6, 48, 92
12, 328679, Note_on_c, 6, 48, 0
12, 328800, Note_on_c, 6, 48, 92
12, 328919, Note_on_c, 6, 48, 0
12, 329040, Note_on_c, 6, 41, 92
12, 329159, Note_on_c, 6, 41, 0
12, 329760, Note_on_c, 6, 41, 92
12, 329879, Note_on_c, 6, 41, 0
12, 330480, Note_on_c, 6, 41, 92
12, 330599, Note_on_c, 6, 41, 0
12, 331200, Note_on_c, 6, 48, 92
12, 331319, Note_on_c, 6, 48, 0
12, 331440, Note_on_c, 6, 48, 92
12, 331559, Note_on_c, 6, 48, 0
12, 331680, Note_on_c, 6, 48, 92
12, 331799, Note_on_c, 6, 48, 0
12, 332640, Note_on_c, 6, 41, 92
12, 332759, Note_on_c, 6, 41, 0
12, 332880, Note_on_c, 6, 41, 92
12, 332999, Note_on_c, 6, 41, 0
12, 333120, Note_on_c, 6, 41, 92
12, 333239, Note_on_c, 6, 41, 0
12, 334800, Note_on_c, 6, 48, 52
12, 335039, Note_on_c, 6, 48, 0
12, 335040, Note_on_c, 6, 48, 52
12, 335279, Note_on_c, 6, 48, 0
12, 335280, Note_on_c, 6, 48, 52
12, 335519, Note_on_c, 6, 48, 0
12, 336240, Note_on_c, 6, 41, 52
12, 336479, Note_on_c, 6, 41, 0
12, 336480, Note_on_c, 6, 41, 52
12, 336719, Note_on_c, 6, 41, 0
12, 336720, Note_on_c, 6, 41, 52
12, 336959, Note_on_c, 6, 41, 0
12, 337680, Note_on_c, 6, 41, 52
12, 337919, Note_on_c, 6, 41, 0
12, 337920, Note_on_c, 6, 41, 51
12, 338159, Note_on_c, 6, 41, 0
12, 339120, Note_on_c, 6, 41, 47
12, 339359, Note_on_c, 6, 41, 0
12, 339360, Note_on_c, 6, 41, 46
12, 339599, Note_on_c, 6, 41, 0
12, 339840, Note_on_c, 6, 41, 44
12, 340079, Note_on_c, 6, 41, 0
12, 340560, Note_on_c, 6, 41, 44
12, 340799, Note_on_c, 6, 41, 0
12, 341280, Note_on_c, 6, 41, 44
12, 341519, Note_on_c, 6, 41, 0
12, 341520, Note_on_c, 6, 41, 44
12, 341759, Note_on_c, 6, 41, 0
12, 341760, Note_on_c, 6, 41, 44
12, 341999, Note_on_c, 6, 41, 0
12, 342000, Note_on_c, 6, 41, 44
12, 342239, Note_on_c, 6, 41, 0
12, 342239, End_track
13, 0, Start_track
13, 0, Title_t, "Violin I"
13, 0, MIDI_port, 0
13, 0, Program_c, 11, 48
13, 0, Control_c, 11, 7, 96
13, 0, Control_c, 11, 10, 48
13, 0, Control_c, 11, 11, 127
13, 0, Note_on_c, 11, 84, 76
13, 0, Note_on_c, 11, 69, 76
13, 239, Note_on_c, 11, 84, 0
13, 240, Note_on_c, 11, 81, 76
13, 359, Note_on_c, 11, 81, 0
13, 360, Note_on_c, 11, 82, 76
13, 464, Note_on_c, 11, 82, 0
13, 479, Note_on_c, 11, 69, 0
13, 480, Note_on_c, 11, 84, 76
13, 569, Note_on_c, 11, 84, 0
13, 600, Note_on_c, 11, 81, 76
13, 689, Note_on_c, 11, 81, 0
13, 720, Note_on_c, 11, 77, 76
13, 1184, Note_on_c, 11, 77, 0
13, 1200, Note_on_c, 11, 72, 76
13, 1289, Note_on_c, 11, 72, 0
13, 1320, Note_on_c, 11, 77, 76
13, 1409, Note_on_c, 11, 77, 0
13, 1440, Note_on_c, 11, 77, 76
13, 1559, Note_on_c, 11, 77, 0
13, 1560, Note_on_c, 11, 76, 76
13, 1664, Note_on_c, 11, 76, 0
13, 1680, Note_on_c, 11, 76, 76
13, 1769, Note_on_c, 11, 76, 0
13, 1800, Note_on_c, 11, 77, 76
13, 1889, Note_on_c, 11, 77, 0
13, 1920, Note_on_c, 11, 79, 76
13, 2009, Note_on_c, 11, 79, 0
13, 2040, Note_on_c, 11, 81, 76
13, 2129, Note_on_c, 11, 81, 0
13, 2160, Note_on_c, 11, 82, 76
13, 2399, Note_on_c, 11, 82, 0
13, 5760, Note_on_c, 11, 82, 76
13, 5999, Note_on_c, 11, 82, 0
13, 6000, Note_on_c, 11, 79, 76
13, 6119, Note_on_c, 11, 79, 0
13, 6120, Note_on_c, 11, 81, 76
13, 6224, Note_on_c, 11, 81, 0
13, 6240, Note_on_c, 11, 82, 76
13, 6329, Note_on_c, 11, 82, 0
13, 6360, Note_on_c, 11, 83, 76
13, 6449, Note_on_c, 11, 83, 0
13, 6480, Note_on_c, 11, 84, 84
13, 6539, Note_on_c, 11, 84, 0
13, 6540, Note_on_c, 11, 84, 76
13, 6944, Note_on_c, 11, 84, 0
13, 6960, Note_on_c, 11, 82, 76
13, 7184, Note_on_c, 11, 82, 0
13, 7200, Note_on_c, 11, 81, 76
13, 7259, Note_on_c, 11, 81, 0
13, 7260, Note_on_c, 11, 84, 76
13, 7319, Note_on_c, 11, 84, 0
13, 7440, Note_on_c, 11, 77, 76
13, 7559, Note_on_c, 11, 77, 0
13, 7680, Note_on_c, 11, 81, 76
13, 7739, Note_on_c, 11, 81, 0
13, 7740, Note_on_c, 11, 79, 76
13, 7799, Note_on_c, 11, 79, 0
13, 7920, Note_on_c, 11, 77, 76
13, 8624, Note_on_c, 11, 77, 0
13, 8640, Note_on_c, 11, 81, 76
13, 9291, Note_on_c, 11, 81, 0
13, 9300, Note_on_c, 11, 77, 76
13, 9351, Note_on_c, 11, 77, 0
13, 9360, Note_on_c, 11, 77, 76
13, 10064, Note_on_c, 11, 77, 0
13, 10080, Note_on_c, 11, 82, 76
13, 10731, Note_on_c, 11, 82, 0
13, 10740, Note_on_c, 11, 77, 76
13, 10791, Note_on_c, 11, 77, 0
13, 10800, Note_on_c, 11, 77, 76
13, 11504, Note_on_c, 11, 77, 0
13, 11520, Note_on_c, 11, 86, 76
13, 12171, Note_on_c, 11, 86, 0
13, 12180, Note_on_c, 11, 77, 76
13, 12231, Note_on_c, 11, 77, 0
13, 12240, Note_on_c, 11, 76, 76
13, 12719, Note_on_c, 11, 76, 0
13, 12720, Note_on_c, 11, 84, 76
13, 12839, Note_on_c, 11, 84, 0
13, 12960, Note_on_c, 11, 72, 76
13, 13079, Note_on_c, 11, 72, 0
13, 13200, Note_on_c, 11, 82, 76
13, 13319, Note_on_c, 11, 82, 0
13, 13440, Note_on_c, 11, 79, 76
13, 13559, Note_on_c, 11, 79, 0
13, 13680, Note_on_c, 11, 77, 76
13, 14384, Note_on_c, 11, 77, 0
13, 14400, Note_on_c, 11, 81, 76
13, 15051, Note_on_c, 11, 81, 0
13, 15060, Note_on_c, 11, 77, 76
13, 15111, Note_on_c, 11, 77, 0
13, 15120, Note_on_c, 11, 77, 76
13, 15824, Note_on_c, 11, 77, 0
13, 15840, Note_on_c, 11, 82, 76
13, 16491, Note_on_c, 11, 82, 0
13, 16500, Note_on_c, 11, 74, 76
13, 16551, Note_on_c, 11, 74, 0
13, 16560, Note_on_c, 11, 74, 76
13, 17264, Note_on_c, 11, 74, 0
13, 17280, Note_on_c, 11, 82, 76
13, 17931, Note_on_c, 11, 82, 0
13, 17940, Note_on_c, 11, 74, 76
13, 17991, Note_on_c, 11, 74, 0
13, 18000, Note_on_c, 11, 74, 76
13, 18704, Note_on_c, 11, 74, 0
13, 18720, Note_on_c, 11, 82, 76
13, 19371, Note_on_c, 11, 82, 0
13, 19380, Note_on_c, 11, 74, 76
13, 19431, Note_on_c, 11, 74, 0
13, 19440, Note_on_c, 11, 74, 76
13, 19904, Note_on_c, 11, 74, 0
13, 19920, Note_on_c, 11, 82, 84
13, 19979, Note_on_c, 11, 82, 0
13, 19980, Note_on_c, 11, 82, 76
13, 20084, Note_on_c, 11, 82, 0
13, 20100, Note_on_c, 11, 74, 76
13, 20151, Note_on_c, 11, 74, 0
13, 20160, Note_on_c, 11, 74, 76
13, 20624, Note_on_c, 11, 74, 0
13, 20640, Note_on_c, 11, 82, 84
13, 20699, Note_on_c, 11, 82, 0
13, 20700, Note_on_c, 11, 82, 76
13, 20804, Note_on_c, 11, 82, 0
13, 20820, Note_on_c, 11, 74, 76
13, 20871, Note_on_c, 11, 74, 0
13, 20880, Note_on_c, 11, 74, 76
13, 20999, Note_on_c, 11, 74, 0
13, 21360, Note_on_c, 11, 82, 84
13, 21479, Note_on_c, 11, 82, 0
13, 21600, Note_on_c, 11, 74, 76
13, 21719, Note_on_c, 11, 74, 0
13, 22080, Note_on_c, 11, 82, 84
13, 22199, Note_on_c, 11, 82, 0
13, 22320, Note_on_c, 11, 74, 76
13, 22439, Note_on_c, 11, 74, 0
13, 23760, Note_on_c, 11, 61, 52
13, 23939, Note_on_c, 11, 61, 0
13, 24240, Note_on_c, 11, 69, 52
13, 24419, Note_on_c, 11, 69, 0
13, 24480, Note_on_c, 11, 61, 52
13, 24659, Note_on_c, 11, 61, 0
13, 24960, Note_on_c, 11, 69, 52
13, 25139, Note_on_c, 11, 69, 0
13, 25200, Note_on_c, 11, 61, 52
13, 25379, Note_on_c, 11, 61, 0
13, 26400, Note_on_c, 11, 69, 52
13, 26489, Note_on_c, 11, 69, 0
13, 26520, Note_on_c, 11, 69, 52
13, 26759, Note_on_c, 11, 69, 0
13, 26760, Note_on_c, 11, 71, 52
13, 26879, Note_on_c, 11, 71, 0
13, 26880, Note_on_c, 11, 73, 52
13, 26999, Note_on_c, 11, 73, 0
13, 27000, Note_on_c, 11, 74, 52
13, 27104, Note_on_c, 11, 74, 0
13, 27120, Note_on_c, 11, 69, 52
13, 27209, Note_on_c, 11, 69, 0
13, 27240, Note_on_c, 11, 69, 52
13, 27479, Note_on_c, 11, 69, 0
13, 27480, Note_on_c, 11, 73, 52
13, 27599, Note_on_c, 11, 73, 0
13, 27600, Note_on_c, 11, 74, 52
13, 27719, Note_on_c, 11, 74, 0
13, 27720, Note_on_c, 11, 76, 52
13, 27824, Note_on_c, 11, 76, 0
13, 27840, Note_on_c, 11, 69, 52
13, 27929, Note_on_c, 11, 69, 0
13, 27960, Note_on_c, 11, 69, 52
13, 28199, Note_on_c, 11, 69, 0
13, 28200, Note_on_c, 11, 74, 52
13, 28319, Note_on_c, 11, 74, 0
13, 28320, Note_on_c, 11, 76, 52
13, 28439, Note_on_c, 11, 76, 0
13, 28440, Note_on_c, 11, 78, 52
13, 28559, Note_on_c, 11, 78, 0
13, 28560, Note_on_c, 11, 79, 52
13, 28679, Note_on_c, 11, 79, 0
13, 28680, Note_on_c, 11, 78, 52
13, 28784, Note_on_c, 11, 78, 0
13, 28800, Note_on_c, 11, 76, 52
13, 29024, Note_on_c, 11, 76, 0
13, 29040, Note_on_c, 11, 81, 52
13, 29639, Note_on_c, 11, 81, 0
13, 29640, Note_on_c, 11, 79, 52
13, 29759, Note_on_c, 11, 79, 0
13, 29760, Note_on_c, 11, 74, 52
13, 29879, Note_on_c, 11, 74, 0
13, 29880, Note_on_c, 11, 76, 52
13, 29984, Note_on_c, 11, 76, 0
13, 30000, Note_on_c, 11, 77, 52
13, 30359, Note_on_c, 11, 77, 0
13, 30360, Note_on_c, 11, 76, 52
13, 30479, Note_on_c, 11, 76, 0
13, 30480, Note_on_c, 11, 72, 52
13, 30599, Note_on_c, 11, 72, 0
13, 30600, Note_on_c, 11, 74, 52
13, 30704, Note_on_c, 11, 74, 0
13, 30720, Note_on_c, 11, 75, 52
13, 30959, Note_on_c, 11, 75, 0
13, 31080, Note_on_c, 11, 74, 52
13, 31199, Note_on_c, 11, 74, 0
13, 31200, Note_on_c, 11, 71, 52
13, 31319, Note_on_c, 11, 71, 0
13, 31320, Note_on_c, 11, 72, 52
13, 31439, Note_on_c, 11, 72, 0
13, 31440, Note_on_c, 11, 74, 52
13, 31559, Note_on_c, 11, 74, 0
13, 31560, Note_on_c, 11, 71, 52
13, 31679, Note_on_c, 11, 71, 0
13, 31680, Note_on_c, 11, 67, 52
13, 31799, Note_on_c, 11, 67, 0
13, 31800, Note_on_c, 11, 71, 52
13, 31919, Note_on_c, 11, 71, 0
13, 31920, Note_on_c, 11, 74, 52
13, 32039, Note_on_c, 11, 74, 0
13, 32040, Note_on_c, 11, 77, 52
13, 32159, Note_on_c, 11, 77, 0
13, 32160, Note_on_c, 11, 76, 52
13, 32279, Note_on_c, 11, 76, 0
13, 32280, Note_on_c, 11, 74, 52
13, 32384, Note_on_c, 11, 74, 0
13, 32400, Note_on_c, 11, 72, 52
13, 32639, Note_on_c, 11, 72, 0
13, 32640, Program_c, 11, 45
13, 32880, Note_on_c, 11, 72, 44
13, 33119, Note_on_c, 11, 72, 0
13, 33120, Note_on_c, 11, 67, 44
13, 33359, Note_on_c, 11, 67, 0
13, 33360, Note_on_c, 11, 71, 44
13, 33599, Note_on_c, 11, 71, 0
13, 33600, Note_on_c, 11, 74, 44
13, 33839, Note_on_c, 11, 74, 0
13, 33840, Note_on_c, 11, 67, 44
13, 34079, Note_on_c, 11, 67, 0
13, 34080, Note_on_c, 11, 72, 44
13, 34319, Note_on_c, 11, 72, 0
13, 34320, Note_on_c, 11, 76, 44
13, 34559, Note_on_c, 11, 76, 0
13, 34560, Note_on_c, 11, 74, 44
13, 34799, Note_on_c, 11, 74, 0
13, 34800, Note_on_c, 11, 71, 44
13, 35039, Note_on_c, 11, 71, 0
13, 35040, Note_on_c, 11, 74, 44
13, 35279, Note_on_c, 11, 74, 0
13, 35280, Note_on_c, 11, 72, 44
13, 35519, Note_on_c, 11, 72, 0
13, 35520, Note_on_c, 11, 69, 44
13, 35759, Note_on_c, 11, 69, 0
13, 35760, Note_on_c, 11, 74, 44
13, 35999, Note_on_c, 11, 74, 0
13, 36000, Note_on_c, 11, 71, 44
13, 36239, Note_on_c, 11, 71, 0
13, 36240, Note_on_c, 11, 67, 44
13, 36479, Note_on_c, 11, 67, 0
13, 36480, Note_on_c, 11, 72, 44
13, 36719, Note_on_c, 11, 72, 0
13, 36720, Program_c, 11, 48
13, 37440, Note_on_c, 11, 69, 44
13, 37529, Note_on_c, 11, 69, 0
13, 37560, Note_on_c, 11, 72, 44
13, 37649, Note_on_c, 11, 72, 0
13, 37680, Note_on_c, 11, 75, 44
13, 37769, Note_on_c, 11, 75, 0
13, 37800, Note_on_c, 11, 78, 44
13, 37889, Note_on_c, 11, 78, 0
13, 37920, Note_on_c, 11, 81, 44
13, 38009, Note_on_c, 11, 81, 0
13, 38040, Note_on_c, 11, 84, 44
13, 38129, Note_on_c, 11, 84, 0
13, 38160, Note_on_c, 11, 87, 44
13, 38339, Note_on_c, 11, 87, 0
13, 38640, Note_on_c, 11, 84, 44
13, 38819, Note_on_c, 11, 84, 0
13, 38880, Note_on_c, 11, 81, 44
13, 39059, Note_on_c, 11, 81, 0
13, 40080, Control_c, 11, 11, 64
13, 40320, Note_on_c, 11, 69, 76
13, 40409, Note_on_c, 11, 69, 0
13, 40440, Note_on_c, 11, 72, 76
13, 40529, Note_on_c, 11, 72, 0
13, 40560, Note_on_c, 11, 75, 76
13, 40649, Note_on_c, 11, 75, 0
13, 40680, Note_on_c, 11, 78, 76
13, 40769, Note_on_c, 11, 78, 0
13, 40800, Note_on_c, 11, 81, 76
13, 40889, Note_on_c, 11, 81, 0
13, 40920, Note_on_c, 11, 84, 76
13, 41009, Note_on_c, 11, 84, 0
13, 41040, Note_on_c, 11, 87, 76
13, 41040, Control_c, 11, 11, 64
13, 41120, Control_c, 11, 11, 69
13, 41200, Control_c, 11, 11, 75
13, 41219, Note_on_c, 11, 87, 0
13, 41280, Control_c, 11, 11, 80
13, 41360, Control_c, 11, 11, 85
13, 41440, Control_c, 11, 11, 90
13, 41520, Note_on_c, 11, 84, 76
13, 41520, Control_c, 11, 11, 96
13, 41600, Control_c, 11, 11, 101
13, 41680, Control_c, 11, 11, 106
13, 41699, Note_on_c, 11, 84, 0
13, 41760, Note_on_c, 11, 81, 76
13, 41760, Control_c, 11, 11, 111
13, 41840, Control_c, 11, 11, 117
13, 41920, Control_c, 11, 11, 122
13, 41939, Note_on_c, 11, 81, 0
13, 42240, Control_c, 11, 11, 127
13, 42480, Note_on_c, 11, 77, 84
13, 42659, Note_on_c, 11, 77, 0
13, 42960, Note_on_c, 11, 74, 76
13, 43139, Note_on_c, 11, 74, 0
13, 43200, Note_on_c, 11, 71, 76
13, 43379, Note_on_c, 11, 71, 0
13, 43920, Note_on_c, 11, 79, 84
13, 44099, Note_on_c, 11, 79, 0
13, 44400, Note_on_c, 11, 76, 76
13, 44579, Note_on_c, 11, 76, 0
13, 44640, Note_on_c, 11, 80, 84
13, 44819, Note_on_c, 11, 80, 0
13, 45120, Note_on_c, 11, 77, 76
13, 45299, Note_on_c, 11, 77, 0
13, 45360, Note_on_c, 11, 81, 84
13, 45539, Note_on_c, 11, 81, 0
13, 45840, Note_on_c, 11, 78, 76
13, 46019, Note_on_c, 11, 78, 0
13, 46080, Note_on_c, 11, 83, 84
13, 46259, Note_on_c, 11, 83, 0
13, 46560, Note_on_c, 11, 79, 76
13, 46739, Note_on_c, 11, 79, 0
13, 46800, Note_on_c, 11, 83, 84
13, 46979, Note_on_c, 11, 83, 0
13, 47280, Note_on_c, 11, 79, 84
13, 47459, Note_on_c, 11, 79, 0
13, 47520, Note_on_c, 11, 84, 84
13, 47699, Note_on_c, 11, 84, 0
13, 48000, Note_on_c, 11, 81, 84
13, 48179, Note_on_c, 11, 81, 0
13, 48240, Note_on_c, 11, 77, 84
13, 48419, Note_on_c, 11, 77, 0
13, 48720, Note_on_c, 11, 74, 84
13, 48899, Note_on_c, 11, 74, 0
13, 48960, Note_on_c, 11, 79, 84
13, 49139, Note_on_c, 11, 79, 0
13, 49440, Note_on_c, 11, 67, 84
13, 49619, Note_on_c, 11, 67, 0
13, 49680, Note_on_c, 11, 76, 84
13, 49851, Note_on_c, 11, 76, 0
13, 49860, Note_on_c, 11, 76, 84
13, 49911, Note_on_c, 11, 76, 0
13, 49920, Note_on_c, 11, 74, 84
13, 50099, Note_on_c, 11, 74, 0
13, 50160, Note_on_c, 11, 77, 84
13, 50331, Note_on_c, 11, 77, 0
13, 50340, Note_on_c, 11, 77, 84
13, 50391, Note_on_c, 11, 77, 0
13, 50400, Note_on_c, 11, 76, 84
13, 50579, Note_on_c, 11, 76, 0
13, 50640, Note_on_c, 11, 81, 84
13, 50811, Note_on_c, 11, 81, 0
13, 50820, Note_on_c, 11, 81, 84
13, 50871, Note_on_c, 11, 81, 0
13, 50880, Note_on_c, 11, 79, 84
13, 51059, Note_on_c, 11, 79, 0
13, 51120, Note_on_c, 11, 81, 84
13, 51291, Note_on_c, 11, 81, 0
13, 51300, Note_on_c, 11, 81, 84
13, 51351, Note_on_c, 11, 81, 0
13, 51360, Note_on_c, 11, 79, 84
13, 51539, Note_on_c, 11, 79, 0
13, 52680, Note_on_c, 11, 77, 52
13, 52799, Note_on_c, 11, 77, 0
13, 52800, Note_on_c, 11, 72, 52
13, 52919, Note_on_c, 11, 72, 0
13, 52920, Note_on_c, 11, 74, 52
13, 53039, Note_on_c, 11, 74, 0
13, 53040, Note_on_c, 11, 76, 52
13, 53159, Note_on_c, 11, 76, 0
13, 53160, Note_on_c, 11, 72, 52
13, 53279, Note_on_c, 11, 72, 0
13, 53400, Note_on_c, 11, 74, 52
13, 53519, Note_on_c, 11, 74, 0
13, 53520, Note_on_c, 11, 69, 52
13, 53639, Note_on_c, 11, 69, 0
13, 53640, Note_on_c, 11, 71, 52
13, 53759, Note_on_c, 11, 71, 0
13, 53760, Note_on_c, 11, 72, 52
13, 53879, Note_on_c, 11, 72, 0
13, 53880, Note_on_c, 11, 67, 52
13, 53999, Note_on_c, 11, 67, 0
13, 54240, Note_on_c, 11, 71, 52
13, 54479, Note_on_c, 11, 71, 0
13, 54480, Note_on_c, 11, 72, 52
13, 54719, Note_on_c, 11, 72, 0
13, 54960, Note_on_c, 11, 74, 52
13, 55199, Note_on_c, 11, 74, 0
13, 55200, Note_on_c, 11, 76, 52
13, 55439, Note_on_c, 11, 76, 0
13, 55560, Note_on_c, 11, 81, 52
13, 55679, Note_on_c, 11, 81, 0
13, 55680, Note_on_c, 11, 76, 52
13, 55799, Note_on_c, 11, 76, 0
13, 55800, Note_on_c, 11, 77, 52
13, 55919, Note_on_c, 11, 77, 0
13, 55920, Note_on_c, 11, 79, 52
13, 56039, Note_on_c, 11, 79, 0
13, 56040, Note_on_c, 11, 81, 52
13, 56159, Note_on_c, 11, 81, 0
13, 56280, Note_on_c, 11, 81, 52
13, 56399, Note_on_c, 11, 81, 0
13, 56400, Note_on_c, 11, 78, 52
13, 56519, Note_on_c, 11, 78, 0
13, 56520, Note_on_c, 11, 79, 52
13, 56639, Note_on_c, 11, 79, 0
13, 56640, Note_on_c, 11, 81, 52
13, 56759, Note_on_c, 11, 81, 0
13, 56760, Note_on_c, 11, 79, 52
13, 56879, Note_on_c, 11, 79, 0
13, 56880, Note_on_c, 11, 76, 84
13, 57051, Note_on_c, 11, 76, 0
13, 57060, Note_on_c, 11, 76, 84
13, 57111, Note_on_c, 11, 76, 0
13, 57120, Note_on_c, 11, 74, 84
13, 57299, Note_on_c, 11, 74, 0
13, 57360, Note_on_c, 11, 77, 84
13, 57531, Note_on_c, 11, 77, 0
13, 57540, Note_on_c, 11, 77, 84
13, 57591, Note_on_c, 11, 77, 0
13, 57600, Note_on_c, 11, 76, 84
13, 57779, Note_on_c, 11, 76, 0
13, 57840, Note_on_c, 11, 81, 84
13, 58011, Note_on_c, 11, 81, 0
13, 58020, Note_on_c, 11, 81, 84
13, 58071, Note_on_c, 11, 81, 0
13, 58080, Note_on_c, 11, 79, 84
13, 58259, Note_on_c, 11, 79, 0
13, 58320, Note_on_c, 11, 81, 84
13, 58491, Note_on_c, 11, 81, 0
13, 58500, Note_on_c, 11, 81, 84
13, 58551, Note_on_c, 11, 81, 0
13, 58560, Note_on_c, 11, 79, 84
13, 58739, Note_on_c, 11, 79, 0
13, 59880, Note_on_c, 11, 86, 52
13, 59999, Note_on_c, 11, 86, 0
13, 60000, Note_on_c, 11, 81, 52
13, 60119, Note_on_c, 11, 81, 0
13, 60120, Note_on_c, 11, 83, 52
13, 60239, Note_on_c, 11, 83, 0
13, 60240, Note_on_c, 11, 84, 52
13, 60359, Note_on_c, 11, 84, 0
13, 60360, Note_on_c, 11, 79, 52
13, 60479, Note_on_c, 11, 79, 0
13, 60600, Note_on_c, 11, 77, 52
13, 60719, Note_on_c, 11, 77, 0
13, 60720, Note_on_c, 11, 72, 52
13, 60839, Note_on_c, 11, 72, 0
13, 60840, Note_on_c, 11, 74, 52
13, 60959, Note_on_c, 11, 74, 0
13, 60960, Note_on_c, 11, 76, 52
13, 61079, Note_on_c, 11, 76, 0
13, 61080, Note_on_c, 11, 72, 52
13, 61199, Note_on_c, 11, 72, 0
13, 61440, Note_on_c, 11, 74, 52
13, 61679, Note_on_c, 11, 74, 0
13, 61680, Note_on_c, 11, 76, 52
13, 61919, Note_on_c, 11, 76, 0
13, 62160, Note_on_c, 11, 77, 52
13, 62399, Note_on_c, 11, 77, 0
13, 62400, Note_on_c, 11, 79, 52
13, 62639, Note_on_c, 11, 79, 0
13, 62760, Note_on_c, 11, 81, 52
13, 62879, Note_on_c, 11, 81, 0
13, 62880, Note_on_c, 11, 76, 52
13, 62999, Note_on_c, 11, 76, 0
13, 63000, Note_on_c, 11, 77, 52
13, 63119, Note_on_c, 11, 77, 0
13, 63120, Note_on_c, 11, 79, 52
13, 63239, Note_on_c, 11, 79, 0
13, 63240, Note_on_c, 11, 81, 52
13, 63359, Note_on_c, 11, 81, 0
13, 63360, Control_c, 11, 11, 80
13, 63480, Note_on_c, 11, 81, 76
13, 63599, Note_on_c, 11, 81, 0
13, 63600, Note_on_c, 11, 78, 76
13, 63719, Note_on_c, 11, 78, 0
13, 63720, Note_on_c, 11, 79, 76
13, 63839, Note_on_c, 11, 79, 0
13, 63840, Note_on_c, 11, 81, 76
13, 63959, Note_on_c, 11, 81, 0
13, 63960, Note_on_c, 11, 83, 76
13, 64064, Note_on_c, 11, 83, 0
13, 64080, Note_on_c, 11, 84, 76
13, 64304, Note_on_c, 11, 84, 0
13, 64320, Control_c, 11, 11, 80
13, 64320, Note_on_c, 11, 76, 76
13, 64420, Control_c, 11, 11, 84
13, 64520, Control_c, 11, 11, 88
13, 64620, Control_c, 11, 11, 92
13, 64679, Note_on_c, 11, 76, 0
13, 64680, Note_on_c, 11, 77, 76
13, 64720, Control_c, 11, 11, 96
13, 64784, Note_on_c, 11, 77, 0
13, 64800, Note_on_c, 11, 74, 76
13, 64820, Control_c, 11, 11, 100
13, 64920, Control_c, 11, 11, 104
13, 64979, Note_on_c, 11, 74, 0
13, 65020, Control_c, 11, 11, 107
13, 65040, Note_on_c, 11, 77, 76
13, 65120, Control_c, 11, 11, 111
13, 65220, Control_c, 11, 11, 115
13, 65320, Control_c, 11, 11, 119
13, 65399, Note_on_c, 11, 77, 0
13, 65400, Note_on_c, 11, 79, 76
13, 65420, Control_c, 11, 11, 127
13, 65504, Note_on_c, 11, 79, 0
13, 65520, Note_on_c, 11, 76, 76
13, 65699, Note_on_c, 11, 76, 0
13, 65760, Note_on_c, 11, 88, 84
13, 65819, Note_on_c, 11, 88, 0
13, 65820, Note_on_c, 11, 88, 76
13, 66119, Note_on_c, 11, 88, 0
13, 66120, Note_on_c, 11, 84, 76
13, 66239, Note_on_c, 11, 84, 0
13, 66240, Note_on_c, 11, 83, 84
13, 66291, Note_on_c, 11, 83, 0
13, 66300, Note_on_c, 11, 83, 76
13, 66351, Note_on_c, 11, 83, 0
13, 66360, Note_on_c, 11, 89, 76
13, 66411, Note_on_c, 11, 89, 0
13, 66420, Note_on_c, 11, 89, 76
13, 66471, Note_on_c, 11, 89, 0
13, 66480, Note_on_c, 11, 86, 76
13, 66531, Note_on_c, 11, 86, 0
13, 66540, Note_on_c, 11, 86, 76
13, 66591, Note_on_c, 11, 86, 0
13, 66600, Note_on_c, 11, 83, 76
13, 66651, Note_on_c, 11, 83, 0
13, 66660, Note_on_c, 11, 83, 76
13, 66711, Note_on_c, 11, 83, 0
13, 66720, Note_on_c, 11, 79, 76
13, 66771, Note_on_c, 11, 79, 0
13, 66780, Note_on_c, 11, 79, 76
13, 66831, Note_on_c, 11, 79, 0
13, 66840, Note_on_c, 11, 77, 76
13, 66891, Note_on_c, 11, 77, 0
13, 66900, Note_on_c, 11, 77, 76
13, 66951, Note_on_c, 11, 77, 0
13, 66960, Note_on_c, 11, 76, 84
13, 67011, Note_on_c, 11, 76, 0
13, 67020, Note_on_c, 11, 76, 76
13, 67071, Note_on_c, 11, 76, 0
13, 67080, Note_on_c, 11, 88, 76
13, 67131, Note_on_c, 11, 88, 0
13, 67140, Note_on_c, 11, 88, 76
13, 67191, Note_on_c, 11, 88, 0
13, 67200, Note_on_c, 11, 84, 76
13, 67251, Note_on_c, 11, 84, 0
13, 67260, Note_on_c, 11, 84, 76
13, 67311, Note_on_c, 11, 84, 0
13, 67320, Note_on_c, 11, 79, 76
13, 67371, Note_on_c, 11, 79, 0
13, 67380, Note_on_c, 11, 79, 76
13, 67431, Note_on_c, 11, 79, 0
13, 67440, Note_on_c, 11, 76, 76
13, 67491, Note_on_c, 11, 76, 0
13, 67500, Note_on_c, 11, 76, 76
13, 67551, Note_on_c, 11, 76, 0
13, 67560, Note_on_c, 11, 72, 76
13, 67611, Note_on_c, 11, 72, 0
13, 67620, Note_on_c, 11, 72, 76
13, 67671, Note_on_c, 11, 72, 0
13, 67680, Note_on_c, 11, 71, 84
13, 67731, Note_on_c, 11, 71, 0
13, 67740, Note_on_c, 11, 71, 76
13, 67791, Note_on_c, 11, 71, 0
13, 67800, Note_on_c, 11, 77, 76
13, 67851, Note_on_c, 11, 77, 0
13, 67860, Note_on_c, 11, 77, 76
13, 67911, Note_on_c, 11, 77, 0
13, 67920, Note_on_c, 11, 74, 76
13, 67971, Note_on_c, 11, 74, 0
13, 67980, Note_on_c, 11, 74, 76
13, 68031, Note_on_c, 11, 74, 0
13, 68040, Note_on_c, 11, 71, 76
13, 68091, Note_on_c, 11, 71, 0
13, 68100, Note_on_c, 11, 71, 76
13, 68151, Note_on_c, 11, 71, 0
13, 68160, Note_on_c, 11, 67, 76
13, 68211, Note_on_c, 11, 67, 0
13, 68220, Note_on_c, 11, 67, 76
13, 68271, Note_on_c, 11, 67, 0
13, 68280, Note_on_c, 11, 65, 76
13, 68331, Note_on_c, 11, 65, 0
13, 68340, Note_on_c, 11, 65, 76
13, 68391, Note_on_c, 11, 65, 0
13, 68400, Note_on_c, 11, 64, 84
13, 68451, Note_on_c, 11, 64, 0
13, 68460, Note_on_c, 11, 64, 84
13, 68511, Note_on_c, 11, 64, 0
13, 68520, Note_on_c, 11, 55, 84
13, 68571, Note_on_c, 11, 55, 0
13, 68580, Note_on_c, 11, 55, 84
13, 68631, Note_on_c, 11, 55, 0
13, 68640, Note_on_c, 11, 60, 84
13, 68691, Note_on_c, 11, 60, 0
13, 68700, Note_on_c, 11, 60, 84
13, 68751, Note_on_c, 11, 60, 0
13, 68760, Note_on_c, 11, 64, 84
13, 68811, Note_on_c, 11, 64, 0
13, 68820, Note_on_c, 11, 64, 84
13, 68871, Note_on_c, 11, 64, 0
13, 68880, Note_on_c, 11, 67, 84
13, 68931, Note_on_c, 11, 67, 0
13, 68940, Note_on_c, 11, 67, 84
13, 68991, Note_on_c, 11, 67, 0
13, 69000, Note_on_c, 11, 60, 84
13, 69051, Note_on_c, 11, 60, 0
13, 69060, Note_on_c, 11, 60, 84
13, 69111, Note_on_c, 11, 60, 0
13, 69120, Note_on_c, 11, 64, 84
13, 69171, Note_on_c, 11, 64, 0
13, 69180, Note_on_c, 11, 64, 84
13, 69231, Note_on_c, 11, 64, 0
13, 69240, Note_on_c, 11, 67, 84
13, 69291, Note_on_c, 11, 67, 0
13, 69300, Note_on_c, 11, 67, 84
13, 69351, Note_on_c, 11, 67, 0
13, 69360, Note_on_c, 11, 72, 84
13, 69411, Note_on_c, 11, 72, 0
13, 69420, Note_on_c, 11, 72, 84
13, 69471, Note_on_c, 11, 72, 0
13, 69480, Note_on_c, 11, 64, 84
13, 69531, Note_on_c, 11, 64, 0
13, 69540, Note_on_c, 11, 64, 84
13, 69591, Note_on_c, 11, 64, 0
13, 69600, Note_on_c, 11, 67, 84
13, 69651, Note_on_c, 11, 67, 0
13, 69660, Note_on_c, 11, 67, 84
13, 69711, Note_on_c, 11, 67, 0
13, 69720, Note_on_c, 11, 72, 84
13, 69771, Note_on_c, 11, 72, 0
13, 69780, Note_on_c, 11, 72, 84
13, 69831, Note_on_c, 11, 72, 0
13, 69840, Note_on_c, 11, 76, 84
13, 69891, Note_on_c, 11, 76, 0
13, 69900, Note_on_c, 11, 76, 84
13, 69951, Note_on_c, 11, 76, 0
13, 69960, Note_on_c, 11, 67, 84
13, 70011, Note_on_c, 11, 67, 0
13, 70020, Note_on_c, 11, 67, 84
13, 70071, Note_on_c, 11, 67, 0
13, 70080, Note_on_c, 11, 72, 84
13, 70131, Note_on_c, 11, 72, 0
13, 70140, Note_on_c, 11, 72, 84
13, 70191, Note_on_c, 11, 72, 0
13, 70200, Note_on_c, 11, 76, 84
13, 70251, Note_on_c, 11, 76, 0
13, 70260, Note_on_c, 11, 76, 84
13, 70311, Note_on_c, 11, 76, 0
13, 70320, Note_on_c, 11, 79, 84
13, 70371, Note_on_c, 11, 79, 0
13, 70380, Note_on_c, 11, 79, 84
13, 70431, Note_on_c, 11, 79, 0
13, 70440, Note_on_c, 11, 72, 84
13, 70491, Note_on_c, 11, 72, 0
13, 70500, Note_on_c, 11, 72, 84
13, 70551, Note_on_c, 11, 72, 0
13, 70560, Note_on_c, 11, 76, 84
13, 70611, Note_on_c, 11, 76, 0
13, 70620, Note_on_c, 11, 76, 84
13, 70671, Note_on_c, 11, 76, 0
13, 70680, Note_on_c, 11, 79, 84
13, 70731, Note_on_c, 11, 79, 0
13, 70740, Note_on_c, 11, 79, 84
13, 70791, Note_on_c, 11, 79, 0
13, 70800, Note_on_c, 11, 84, 84
13, 70851, Note_on_c, 11, 84, 0
13, 70860, Note_on_c, 11, 84, 84
13, 70911, Note_on_c, 11, 84, 0
13, 70920, Note_on_c, 11, 72, 84
13, 70971, Note_on_c, 11, 72, 0
13, 70980, Note_on_c, 11, 72, 84
13, 71031, Note_on_c, 11, 72, 0
13, 71040, Note_on_c, 11, 76, 84
13, 71091, Note_on_c, 11, 76, 0
13, 71100, Note_on_c, 11, 76, 84
13, 71151, Note_on_c, 11, 76, 0
13, 71160, Note_on_c, 11, 79, 84
13, 71211, Note_on_c, 11, 79, 0
13, 71220, Note_on_c, 11, 79, 84
13, 71271, Note_on_c, 11, 79, 0
13, 71280, Note_on_c, 11, 84, 92
13, 71339, Note_on_c, 11, 84, 0
13, 71340, Note_on_c, 11, 84, 84
13, 71519, Note_on_c, 11, 84, 0
13, 71640, Note_on_c, 11, 84, 84
13, 71729, Note_on_c, 11, 84, 0
13, 71760, Note_on_c, 11, 72, 84
13, 71849, Note_on_c, 11, 72, 0
13, 71880, Note_on_c, 11, 84, 84
13, 71969, Note_on_c, 11, 84, 0
13, 72000, Note_on_c, 11, 72, 92
13, 72059, Note_on_c, 11, 72, 0
13, 72060, Note_on_c, 11, 72, 84
13, 72239, Note_on_c, 11, 72, 0
13, 72360, Note_on_c, 11, 84, 84
13, 72449, Note_on_c, 11, 84, 0
13, 72480, Note_on_c, 11, 72, 84
13, 72569, Note_on_c, 11, 72, 0
13, 72600, Note_on_c, 11, 84, 84
13, 72689, Note_on_c, 11, 84, 0
13, 72720, Note_on_c, 11, 72, 92
13, 72779, Note_on_c, 11, 72, 0
13, 72780, Note_on_c, 11, 72, 84
13, 72959, Note_on_c, 11, 72, 0
13, 73080, Note_on_c, 11, 84, 84
13, 73169, Note_on_c, 11, 84, 0
13, 73200, Note_on_c, 11, 72, 84
13, 73289, Note_on_c, 11, 72, 0
13, 73320, Note_on_c, 11, 84, 84
13, 73409, Note_on_c, 11, 84, 0
13, 73440, Note_on_c, 11, 72, 92
13, 73499, Note_on_c, 11, 72, 0
13, 73500, Note_on_c, 11, 72, 84
13, 73679, Note_on_c, 11, 72, 0
13, 73800, Note_on_c, 11, 84, 84
13, 73889, Note_on_c, 11, 84, 0
13, 73920, Note_on_c, 11, 72, 84
13, 74009, Note_on_c, 11, 72, 0
13, 74040, Note_on_c, 11, 84, 84
13, 74129, Note_on_c, 11, 84, 0
13, 74160, Note_on_c, 11, 69, 76
13, 74160, Note_on_c, 11, 84, 76
13, 74399, Note_on_c, 11, 84, 0
13, 74400, Note_on_c, 11, 81, 76
13, 74519, Note_on_c, 11, 81, 0
13, 74520, Note_on_c, 11, 82, 76
13, 74624, Note_on_c, 11, 82, 0
13, 74639, Note_on_c, 11, 69, 0
13, 74640, Note_on_c, 11, 84, 76
13, 74729, Note_on_c, 11, 84, 0
13, 74760, Note_on_c, 11, 81, 76
13, 74849, Note_on_c, 11, 81, 0
13, 74880, Note_on_c, 11, 77, 76
13, 75344, Note_on_c, 11, 77, 0
13, 75360, Note_on_c, 11, 72, 76
13, 75449, Note_on_c, 11, 72, 0
13, 75480, Note_on_c, 11, 77, 76
13, 75569, Note_on_c, 11, 77, 0
13, 75600, Note_on_c, 11, 77, 76
13, 75719, Note_on_c, 11, 77, 0
13, 75720, Note_on_c, 11, 76, 76
13, 75824, Note_on_c, 11, 76, 0
13, 75840, Note_on_c, 11, 76, 76
13, 75929, Note_on_c, 11, 76, 0
13, 75960, Note_on_c, 11, 77, 76
13, 76049, Note_on_c, 11, 77, 0
13, 76080, Note_on_c, 11, 79, 76
13, 76169, Note_on_c, 11, 79, 0
13, 76200, Note_on_c, 11, 81, 76
13, 76289, Note_on_c, 11, 81, 0
13, 76320, Note_on_c, 11, 82, 76
13, 76559, Note_on_c, 11, 82, 0
13, 79920, Note_on_c, 11, 82, 76
13, 80159, Note_on_c, 11, 82, 0
13, 80160, Note_on_c, 11, 79, 76
13, 80279, Note_on_c, 11, 79, 0
13, 80280, Note_on_c, 11, 81, 76
13, 80384, Note_on_c, 11, 81, 0
13, 80400, Note_on_c, 11, 82, 76
13, 80489, Note_on_c, 11, 82, 0
13, 80520, Note_on_c, 11, 83, 76
13, 80609, Note_on_c, 11, 83, 0
13, 80640, Note_on_c, 11, 84, 84
13, 80699, Note_on_c, 11, 84, 0
13, 80700, Note_on_c, 11, 84, 76
13, 81104, Note_on_c, 11, 84, 0
13, 81120, Note_on_c, 11, 82, 76
13, 81344, Note_on_c, 11, 82, 0
13, 81360, Note_on_c, 11, 81, 76
13, 81419, Note_on_c, 11, 81, 0
13, 81420, Note_on_c, 11, 84, 76
13, 81479, Note_on_c, 11, 84, 0
13, 81600, Note_on_c, 11, 77, 76
13, 81719, Note_on_c, 11, 77, 0
13, 81840, Note_on_c, 11, 81, 76
13, 81899, Note_on_c, 11, 81, 0
13, 81900, Note_on_c, 11, 79, 76
13, 81959, Note_on_c, 11, 79, 0
13, 82080, Note_on_c, 11, 77, 76
13, 82784, Note_on_c, 11, 77, 0
13, 82800, Note_on_c, 11, 81, 76
13, 83451, Note_on_c, 11, 81, 0
13, 83460, Note_on_c, 11, 77, 76
13, 83511, Note_on_c, 11, 77, 0
13, 83520, Note_on_c, 11, 77, 76
13, 84224, Note_on_c, 11, 77, 0
13, 84240, Note_on_c, 11, 82, 76
13, 84891, Note_on_c, 11, 82, 0
13, 84900, Note_on_c, 11, 77, 76
13, 84951, Note_on_c, 11, 77, 0
13, 84960, Note_on_c, 11, 77, 76
13, 85664, Note_on_c, 11, 77, 0
13, 85680, Note_on_c, 11, 86, 76
13, 86331, Note_on_c, 11, 86, 0
13, 86340, Note_on_c, 11, 77, 76
13, 86391, Note_on_c, 11, 77, 0
13, 86400, Note_on_c, 11, 76, 76
13, 86879, Note_on_c, 11, 76, 0
13, 86880, Note_on_c, 11, 84, 76
13, 86999, Note_on_c, 11, 84, 0
13, 87120, Note_on_c, 11, 72, 76
13, 87239, Note_on_c, 11, 72, 0
13, 87360, Note_on_c, 11, 82, 76
13, 87479, Note_on_c, 11, 82, 0
13, 87600, Note_on_c, 11, 79, 76
13, 87719, Note_on_c, 11, 79, 0
13, 87840, Note_on_c, 11, 77, 76
13, 88544, Note_on_c, 11, 77, 0
13, 88560, Note_on_c, 11, 81, 76
13, 89211, Note_on_c, 11, 81, 0
13, 89220, Note_on_c, 11, 77, 76
13, 89271, Note_on_c, 11, 77, 0
13, 89280, Note_on_c, 11, 77, 76
13, 89984, Note_on_c, 11, 77, 0
13, 90000, Note_on_c, 11, 82, 76
13, 90651, Note_on_c, 11, 82, 0
13, 90660, Note_on_c, 11, 74, 76
13, 90711, Note_on_c, 11, 74, 0
13, 90720, Note_on_c, 11, 74, 76
13, 91424, Note_on_c, 11, 74, 0
13, 91440, Note_on_c, 11, 82, 76
13, 92091, Note_on_c, 11, 82, 0
13, 92100, Note_on_c, 11, 74, 76
13, 92151, Note_on_c, 11, 74, 0
13, 92160, Note_on_c, 11, 74, 76
13, 92864, Note_on_c, 11, 74, 0
13, 92880, Note_on_c, 11, 82, 76
13, 93531, Note_on_c, 11, 82, 0
13, 93540, Note_on_c, 11, 74, 76
13, 93591, Note_on_c, 11, 74, 0
13, 93600, Note_on_c, 11, 74, 76
13, 94064, Note_on_c, 11, 74, 0
13, 94080, Note_on_c, 11, 82, 84
13, 94139, Note_on_c, 11, 82, 0
13, 94140, Note_on_c, 11, 82, 76
13, 94244, Note_on_c, 11, 82, 0
13, 94260, Note_on_c, 11, 74, 76
13, 94311, Note_on_c, 11, 74, 0
13, 94320, Note_on_c, 11, 74, 76
13, 94784, Note_on_c, 11, 74, 0
13, 94800, Note_on_c, 11, 82, 84
13, 94859, Note_on_c, 11, 82, 0
13, 94860, Note_on_c, 11, 82, 76
13, 94964, Note_on_c, 11, 82, 0
13, 94980, Note_on_c, 11, 74, 76
13, 95031, Note_on_c, 11, 74, 0
13, 95040, Note_on_c, 11, 74, 76
13, 95159, Note_on_c, 11, 74, 0
13, 95520, Note_on_c, 11, 82, 84
13, 95639, Note_on_c, 11, 82, 0
13, 95760, Note_on_c, 11, 74, 76
13, 95879, Note_on_c, 11, 74, 0
13, 96240, Note_on_c, 11, 82, 84
13, 96359, Note_on_c, 11, 82, 0
13, 96480, Note_on_c, 11, 74, 76
13, 96599, Note_on_c, 11, 74, 0
13, 97920, Note_on_c, 11, 61, 52
13, 98099, Note_on_c, 11, 61, 0
13, 98400, Note_on_c, 11, 69, 52
13, 98579, Note_on_c, 11, 69, 0
13, 98640, Note_on_c, 11, 61, 52
13, 98819, Note_on_c, 11, 61, 0
13, 99120, Note_on_c, 11, 69, 52
13, 99299, Note_on_c, 11, 69, 0
13, 99360, Note_on_c, 11, 61, 52
13, 99539, Note_on_c, 11, 61, 0
13, 100560, Note_on_c, 11, 69, 52
13, 100649, Note_on_c, 11, 69, 0
13, 100680, Note_on_c, 11, 69, 52
13, 100919, Note_on_c, 11, 69, 0
13, 100920, Note_on_c, 11, 71, 52
13, 101039, Note_on_c, 11, 71, 0
13, 101040, Note_on_c, 11, 73, 52
13, 101159, Note_on_c, 11, 73, 0
13, 101160, Note_on_c, 11, 74, 52
13, 101264, Note_on_c, 11, 74, 0
13, 101280, Note_on_c, 11, 69, 52
13, 101369, Note_on_c, 11, 69, 0
13, 101400, Note_on_c, 11, 69, 52
13, 101639, Note_on_c, 11, 69, 0
13, 101640, Note_on_c, 11, 73, 52
13, 101759, Note_on_c, 11, 73, 0
13, 101760, Note_on_c, 11, 74, 52
13, 101879, Note_on_c, 11, 74, 0
13, 101880, Note_on_c, 11, 76, 52
13, 101984, Note_on_c, 11, 76, 0
13, 102000, Note_on_c, 11, 69, 52
13, 102089, Note_on_c, 11, 69, 0
13, 102120, Note_on_c, 11, 69, 52
13, 102359, Note_on_c, 11, 69, 0
13, 102360, Note_on_c, 11, 74, 52
13, 102479, Note_on_c, 11, 74, 0
13, 102480, Note_on_c, 11, 76, 52
13, 102599, Note_on_c, 11, 76, 0
13, 102600, Note_on_c, 11, 78, 52
13, 102719, Note_on_c, 11, 78, 0
13, 102720, Note_on_c, 11, 79, 52
13, 102839, Note_on_c, 11, 79, 0
13, 102840, Note_on_c, 11, 78, 52
13, 102944, Note_on_c, 11, 78, 0
13, 102960, Note_on_c, 11, 76, 52
13, 103184, Note_on_c, 11, 76, 0
13, 103200, Note_on_c, 11, 81, 52
13, 103799, Note_on_c, 11, 81, 0
13, 103800, Note_on_c, 11, 79, 52
13, 103919, Note_on_c, 11, 79, 0
13, 103920, Note_on_c, 11, 74, 52
13, 104039, Note_on_c, 11, 74, 0
13, 104040, Note_on_c, 11, 76, 52
13, 104144, Note_on_c, 11, 76, 0
13, 104160, Note_on_c, 11, 77, 52
13, 104519, Note_on_c, 11, 77, 0
13, 104520, Note_on_c, 11, 76, 52
13, 104639, Note_on_c, 11, 76, 0
13, 104640, Note_on_c, 11, 72, 52
13, 104759, Note_on_c, 11, 72, 0
13, 104760, Note_on_c, 11, 74, 52
13, 104864, Note_on_c, 11, 74, 0
13, 104880, Note_on_c, 11, 75, 52
13, 105119, Note_on_c, 11, 75, 0
13, 105240, Note_on_c, 11, 74, 52
13, 105359, Note_on_c, 11, 74, 0
13, 105360, Note_on_c, 11, 71, 52
13, 105479, Note_on_c, 11, 71, 0
13, 105480, Note_on_c, 11, 72, 52
13, 105599, Note_on_c, 11, 72, 0
13, 105600, Note_on_c, 11, 74, 52
13, 105719, Note_on_c, 11, 74, 0
13, 105720, Note_on_c, 11, 71, 52
13, 105839, Note_on_c, 11, 71, 0
13, 105840, Note_on_c, 11, 67, 52
13, 105959, Note_on_c, 11, 67, 0
13, 105960, Note_on_c, 11, 71, 52
13, 106079, Note_on_c, 11, 71, 0
13, 106080, Note_on_c, 11, 74, 52
13, 106199, Note_on_c, 11, 74, 0
13, 106200, Note_on_c, 11, 77, 52
13, 106319, Note_on_c, 11, 77, 0
13, 106320, Note_on_c, 11, 76, 52
13, 106439, Note_on_c, 11, 76, 0
13, 106440, Note_on_c, 11, 74, 52
13, 106544, Note_on_c, 11, 74, 0
13, 106560, Note_on_c, 11, 72, 52
13, 106799, Note_on_c, 11, 72, 0
13, 106800, Program_c, 11, 45
13, 107040, Note_on_c, 11, 72, 44
13, 107279, Note_on_c, 11, 72, 0
13, 107280, Note_on_c, 11, 67, 44
13, 107519, Note_on_c, 11, 67, 0
13, 107520, Note_on_c, 11, 71, 44
13, 107759, Note_on_c, 11, 71, 0
13, 107760, Note_on_c, 11, 74, 44
13, 107999, Note_on_c, 11, 74, 0
13, 108000, Note_on_c, 11, 67, 44
13, 108239, Note_on_c, 11, 67, 0
13, 108240, Note_on_c, 11, 72, 44
13, 108479, Note_on_c, 11, 72, 0
13, 108480, Note_on_c, 11, 76, 44
13, 108719, Note_on_c, 11, 76, 0
13, 108720, Note_on_c, 11, 74, 44
13, 108959, Note_on_c, 11, 74, 0
13, 108960, Note_on_c, 11, 71, 44
13, 109199, Note_on_c, 11, 71, 0
13, 109200, Note_on_c, 11, 74, 44
13, 109439, Note_on_c, 11, 74, 0
13, 109440, Note_on_c, 11, 72, 44
13, 109679, Note_on_c, 11, 72, 0
13, 109680, Note_on_c, 11, 69, 44
13, 109919, Note_on_c, 11, 69, 0
13, 109920, Note_on_c, 11, 74, 44
13, 110159, Note_on_c, 11, 74, 0
13, 110160, Note_on_c, 11, 71, 44
13, 110399, Note_on_c, 11, 71, 0
13, 110400, Note_on_c, 11, 67, 44
13, 110639, Note_on_c, 11, 67, 0
13, 110640, Note_on_c, 11, 72, 44
13, 110879, Note_on_c, 11, 72, 0
13, 110880, Program_c, 11, 48
13, 111600, Note_on_c, 11, 69, 44
13, 111689, Note_on_c, 11, 69, 0
13, 111720, Note_on_c, 11, 72, 44
13, 111809, Note_on_c, 11, 72, 0
13, 111840, Note_on_c, 11, 75, 44
13, 111929, Note_on_c, 11, 75, 0
13, 111960, Note_on_c, 11, 78, 44
13, 112049, Note_on_c, 11, 78, 0
13, 112080, Note_on_c, 11, 81, 44
13, 112169, Note_on_c, 11, 81, 0
13, 112200, Note_on_c, 11, 84, 44
13, 112289, Note_on_c, 11, 84, 0
13, 112320, Note_on_c, 11, 87, 44
13, 112499, Note_on_c, 11, 87, 0
13, 112800, Note_on_c, 11, 84, 44
13, 112979, Note_on_c, 11, 84, 0
13, 113040, Note_on_c, 11, 81, 44
13, 113219, Note_on_c, 11, 81, 0
13, 114240, Control_c, 11, 11, 64
13, 114480, Note_on_c, 11, 69, 76
13, 114569, Note_on_c, 11, 69, 0
13, 114600, Note_on_c, 11, 72, 76
13, 114689, Note_on_c, 11, 72, 0
13, 114720, Note_on_c, 11, 75, 76
13, 114809, Note_on_c, 11, 75, 0
13, 114840, Note_on_c, 11, 78, 76
13, 114929, Note_on_c, 11, 78, 0
13, 114960, Note_on_c, 11, 81, 76
13, 115049, Note_on_c, 11, 81, 0
13, 115080, Note_on_c, 11, 84, 76
13, 115169, Note_on_c, 11, 84, 0
13, 115200, Note_on_c, 11, 87, 76
13, 115200, Control_c, 11, 11, 64
13, 115280, Control_c, 11, 11, 69
13, 115360, Control_c, 11, 11, 75
13, 115379, Note_on_c, 11, 87, 0
13, 115440, Control_c, 11, 11, 80
13, 115520, Control_c, 11, 11, 85
13, 115600, Control_c, 11, 11, 90
13, 115680, Control_c, 11, 11, 96
13, 115680, Note_on_c, 11, 84, 76
13, 115760, Control_c, 11, 11, 101
13, 115840, Control_c, 11, 11, 106
13, 115859, Note_on_c, 11, 84, 0
13, 115920, Control_c, 11, 11, 111
13, 115920, Note_on_c, 11, 81, 76
13, 116000, Control_c, 11, 11, 117
13, 116080, Control_c, 11, 11, 122
13, 116099, Note_on_c, 11, 81, 0
13, 116400, Control_c, 11, 11, 127
13, 116640, Note_on_c, 11, 77, 84
13, 116819, Note_on_c, 11, 77, 0
13, 117120, Note_on_c, 11, 74, 76
13, 117299, Note_on_c, 11, 74, 0
13, 117360, Note_on_c, 11, 71, 76
13, 117539, Note_on_c, 11, 71, 0
13, 118080, Note_on_c, 11, 79, 84
13, 118259, Note_on_c, 11, 79, 0
13, 118560, Note_on_c, 11, 76, 76
13, 118739, Note_on_c, 11, 76, 0
13, 118800, Note_on_c, 11, 80, 84
13, 118979, Note_on_c, 11, 80, 0
13, 119280, Note_on_c, 11, 77, 76
13, 119459, Note_on_c, 11, 77, 0
13, 119520, Note_on_c, 11, 81, 84
13, 119699, Note_on_c, 11, 81, 0
13, 120000, Note_on_c, 11, 78, 76
13, 120179, Note_on_c, 11, 78, 0
13, 120240, Note_on_c, 11, 83, 84
13, 120419, Note_on_c, 11, 83, 0
13, 120720, Note_on_c, 11, 79, 76
13, 120899, Note_on_c, 11, 79, 0
13, 120960, Note_on_c, 11, 83, 84
13, 121139, Note_on_c, 11, 83, 0
13, 121440, Note_on_c, 11, 79, 84
13, 121619, Note_on_c, 11, 79, 0
13, 121680, Note_on_c, 11, 84, 84
13, 121859, Note_on_c, 11, 84, 0
13, 122160, Note_on_c, 11, 81, 84
13, 122339, Note_on_c, 11, 81, 0
13, 122400, Note_on_c, 11, 77, 84
13, 122579, Note_on_c, 11, 77, 0
13, 122880, Note_on_c, 11, 74, 84
13, 123059, Note_on_c, 11, 74, 0
13, 123120, Note_on_c, 11, 79, 84
13, 123299, Note_on_c, 11, 79, 0
13, 123600, Note_on_c, 11, 67, 84
13, 123779, Note_on_c, 11, 67, 0
13, 123840, Note_on_c, 11, 76, 84
13, 124011, Note_on_c, 11, 76, 0
13, 124020, Note_on_c, 11, 76, 84
13, 124071, Note_on_c, 11, 76, 0
13, 124080, Note_on_c, 11, 74, 84
13, 124259, Note_on_c, 11, 74, 0
13, 124320, Note_on_c, 11, 77, 84
13, 124491, Note_on_c, 11, 77, 0
13, 124500, Note_on_c, 11, 77, 84
13, 124551, Note_on_c, 11, 77, 0
13, 124560, Note_on_c, 11, 76, 84
13, 124739, Note_on_c, 11, 76, 0
13, 124800, Note_on_c, 11, 81, 84
13, 124971, Note_on_c, 11, 81, 0
13, 124980, Note_on_c, 11, 81, 84
13, 125031, Note_on_c, 11, 81, 0
13, 125040, Note_on_c, 11, 79, 84
13, 125219, Note_on_c, 11, 79, 0
13, 125280, Note_on_c, 11, 81, 84
13, 125451, Note_on_c, 11, 81, 0
13, 125460, Note_on_c, 11, 81, 84
13, 125511, Note_on_c, 11, 81, 0
13, 125520, Note_on_c, 11, 79, 84
13, 125699, Note_on_c, 11, 79, 0
13, 126840, Note_on_c, 11, 77, 52
13, 126959, Note_on_c, 11, 77, 0
13, 126960, Note_on_c, 11, 72, 52
13, 127079, Note_on_c, 11, 72, 0
13, 127080, Note_on_c, 11, 74, 52
13, 127199, Note_on_c, 11, 74, 0
13, 127200, Note_on_c, 11, 76, 52
13, 127319, Note_on_c, 11, 76, 0
13, 127320, Note_on_c, 11, 72, 52
13, 127439, Note_on_c, 11, 72, 0
13, 127560, Note_on_c, 11, 74, 52
13, 127679, Note_on_c, 11, 74, 0
13, 127680, Note_on_c, 11, 69, 52
13, 127799, Note_on_c, 11, 69, 0
13, 127800, Note_on_c, 11, 71, 52
13, 127919, Note_on_c, 11, 71, 0
13, 127920, Note_on_c, 11, 72, 52
13, 128039, Note_on_c, 11, 72, 0
13, 128040, Note_on_c, 11, 67, 52
13, 128159, Note_on_c, 11, 67, 0
13, 128400, Note_on_c, 11, 71, 52
13, 128639, Note_on_c, 11, 71, 0
13, 128640, Note_on_c, 11, 72, 52
13, 128879, Note_on_c, 11, 72, 0
13, 129120, Note_on_c, 11, 74, 52
13, 129359, Note_on_c, 11, 74, 0
13, 129360, Note_on_c, 11, 76, 52
13, 129599, Note_on_c, 11, 76, 0
13, 129720, Note_on_c, 11, 81, 52
13, 129839, Note_on_c, 11, 81, 0
13, 129840, Note_on_c, 11, 76, 52
13, 129959, Note_on_c, 11, 76, 0
13, 129960, Note_on_c, 11, 77, 52
13, 130079, Note_on_c, 11, 77, 0
13, 130080, Note_on_c, 11, 79, 52
13, 130199, Note_on_c, 11, 79, 0
13, 130200, Note_on_c, 11, 81, 52
13, 130319, Note_on_c, 11, 81, 0
13, 130440, Note_on_c, 11, 81, 52
13, 130559, Note_on_c, 11, 81, 0
13, 130560, Note_on_c, 11, 78, 52
13, 130679, Note_on_c, 11, 78, 0
13, 130680, Note_on_c, 11, 79, 52
13, 130799, Note_on_c, 11, 79, 0
13, 130800, Note_on_c, 11, 81, 52
13, 130919, Note_on_c, 11, 81, 0
13, 130920, Note_on_c, 11, 79, 52
13, 131039, Note_on_c, 11, 79, 0
13, 131040, Note_on_c, 11, 76, 84
13, 131211, Note_on_c, 11, 76, 0
13, 131220, Note_on_c, 11, 76, 84
13, 131271, Note_on_c, 11, 76, 0
13, 131280, Note_on_c, 11, 74, 84
13, 131459, Note_on_c, 11, 74, 0
13, 131520, Note_on_c, 11, 77, 84
13, 131691, Note_on_c, 11, 77, 0
13, 131700, Note_on_c, 11, 77, 84
13, 131751, Note_on_c, 11, 77, 0
13, 131760, Note_on_c, 11, 76, 84
13, 131939, Note_on_c, 11, 76, 0
13, 132000, Note_on_c, 11, 81, 84
13, 132171, Note_on_c, 11, 81, 0
13, 132180, Note_on_c, 11, 81, 84
13, 132231, Note_on_c, 11, 81, 0
13, 132240, Note_on_c, 11, 79, 84
13, 132419, Note_on_c, 11, 79, 0
13, 132480, Note_on_c, 11, 81, 84
13, 132651, Note_on_c, 11, 81, 0
13, 132660, Note_on_c, 11, 81, 84
13, 132711, Note_on_c, 11, 81, 0
13, 132720, Note_on_c, 11, 79, 84
13, 132899, Note_on_c, 11, 79, 0
13, 134040, Note_on_c, 11, 86, 52
13, 134159, Note_on_c, 11, 86, 0
13, 134160, Note_on_c, 11, 81, 52
13, 134279, Note_on_c, 11, 81, 0
13, 134280, Note_on_c, 11, 83, 52
13, 134399, Note_on_c, 11, 83, 0
13, 134400, Note_on_c, 11, 84, 52
13, 134519, Note_on_c, 11, 84, 0
13, 134520, Note_on_c, 11, 79, 52
13, 134639, Note_on_c, 11, 79, 0
13, 134760, Note_on_c, 11, 77, 52
13, 134879, Note_on_c, 11, 77, 0
13, 134880, Note_on_c, 11, 72, 52
13, 134999, Note_on_c, 11, 72, 0
13, 135000, Note_on_c, 11, 74, 52
13, 135119, Note_on_c, 11, 74, 0
13, 135120, Note_on_c, 11, 76, 52
13, 135239, Note_on_c, 11, 76, 0
13, 135240, Note_on_c, 11, 72, 52
13, 135359, Note_on_c, 11, 72, 0
13, 135600, Note_on_c, 11, 74, 52
13, 135839, Note_on_c, 11, 74, 0
13, 135840, Note_on_c, 11, 76, 52
13, 136079, Note_on_c, 11, 76, 0
13, 136320, Note_on_c, 11, 77, 52
13, 136559, Note_on_c, 11, 77, 0
13, 136560, Note_on_c, 11, 79, 52
13, 136799, Note_on_c, 11, 79, 0
13, 136920, Note_on_c, 11, 81, 52
13, 137039, Note_on_c, 11, 81, 0
13, 137040, Note_on_c, 11, 76, 52
13, 137159, Note_on_c, 11, 76, 0
13, 137160, Note_on_c, 11, 77, 52
13, 137279, Note_on_c, 11, 77, 0
13, 137280, Note_on_c, 11, 79, 52
13, 137399, Note_on_c, 11, 79, 0
13, 137400, Note_on_c, 11, 81, 52
13, 137519, Note_on_c, 11, 81, 0
13, 137520, Control_c, 11, 11, 80
13, 137640, Note_on_c, 11, 81, 76
13, 137759, Note_on_c, 11, 81, 0
13, 137760, Note_on_c, 11, 78, 76
13, 137879, Note_on_c, 11, 78, 0
13, 137880, Note_on_c, 11, 79, 76
13, 137999, Note_on_c, 11, 79, 0
13, 138000, Note_on_c, 11, 81, 76
13, 138119, Note_on_c, 11, 81, 0
13, 138120, Note_on_c, 11, 83, 76
13, 138224, Note_on_c, 11, 83, 0
13, 138240, Note_on_c, 11, 84, 76
13, 138464, Note_on_c, 11, 84, 0
13, 138480, Note_on_c, 11, 76, 76
13, 138480, Control_c, 11, 11, 80
13, 138580, Control_c, 11, 11, 84
13, 138680, Control_c, 11, 11, 88
13, 138780, Control_c, 11, 11, 92
13, 138839, Note_on_c, 11, 76, 0
13, 138840, Note_on_c, 11, 77, 76
13, 138880, Control_c, 11, 11, 96
13, 138944, Note_on_c, 11, 77, 0
13, 138960, Note_on_c, 11, 74, 76
13, 138980, Control_c, 11, 11, 100
13, 139080, Control_c, 11, 11, 104
13, 139139, Note_on_c, 11, 74, 0
13, 139180, Control_c, 11, 11, 107
13, 139200, Note_on_c, 11, 77, 76
13, 139280, Control_c, 11, 11, 111
13, 139380, Control_c, 11, 11, 115
13, 139480, Control_c, 11, 11, 119
13, 139559, Note_on_c, 11, 77, 0
13, 139560, Note_on_c, 11, 79, 76
13, 139580, Control_c, 11, 11, 127
13, 139664, Note_on_c, 11, 79, 0
13, 139680, Note_on_c, 11, 76, 76
13, 139859, Note_on_c, 11, 76, 0
13, 139920, Note_on_c, 11, 88, 84
13, 139979, Note_on_c, 11, 88, 0
13, 139980, Note_on_c, 11, 88, 76
13, 140279, Note_on_c, 11, 88, 0
13, 140280, Note_on_c, 11, 84, 76
13, 140399, Note_on_c, 11, 84, 0
13, 140400, Note_on_c, 11, 83, 84
13, 140451, Note_on_c, 11, 83, 0
13, 140460, Note_on_c, 11, 83, 76
13, 140511, Note_on_c, 11, 83, 0
13, 140520, Note_on_c, 11, 89, 76
13, 140571, Note_on_c, 11, 89, 0
13, 140580, Note_on_c, 11, 89, 76
13, 140631, Note_on_c, 11, 89, 0
13, 140640, Note_on_c, 11, 86, 76
13, 140691, Note_on_c, 11, 86, 0
13, 140700, Note_on_c, 11, 86, 76
13, 140751, Note_on_c, 11, 86, 0
13, 140760, Note_on_c, 11, 83, 76
13, 140811, Note_on_c, 11, 83, 0
13, 140820, Note_on_c, 11, 83, 76
13, 140871, Note_on_c, 11, 83, 0
13, 140880, Note_on_c, 11, 79, 76
13, 140931, Note_on_c, 11, 79, 0
13, 140940, Note_on_c, 11, 79, 76
13, 140991, Note_on_c, 11, 79, 0
13, 141000, Note_on_c, 11, 77, 76
13, 141051, Note_on_c, 11, 77, 0
13, 141060, Note_on_c, 11, 77, 76
13, 141111, Note_on_c, 11, 77, 0
13, 141120, Note_on_c, 11, 76, 84
13, 141171, Note_on_c, 11, 76, 0
13, 141180, Note_on_c, 11, 76, 76
13, 141231, Note_on_c, 11, 76, 0
13, 141240, Note_on_c, 11, 88, 76
13, 141291, Note_on_c, 11, 88, 0
13, 141300, Note_on_c, 11, 88, 76
13, 141351, Note_on_c, 11, 88, 0
13, 141360, Note_on_c, 11, 84, 76
13, 141411, Note_on_c, 11, 84, 0
13, 141420, Note_on_c, 11, 84, 76
13, 141471, Note_on_c, 11, 84, 0
13, 141480, Note_on_c, 11, 79, 76
13, 141531, Note_on_c, 11, 79, 0
13, 141540, Note_on_c, 11, 79, 76
13, 141591, Note_on_c, 11, 79, 0
13, 141600, Note_on_c, 11, 76, 76
13, 141651, Note_on_c, 11, 76, 0
13, 141660, Note_on_c, 11, 76, 76
13, 141711, Note_on_c, 11, 76, 0
13, 141720, Note_on_c, 11, 72, 76
13, 141771, Note_on_c, 11, 72, 0
13, 141780, Note_on_c, 11, 72, 76
13, 141831, Note_on_c, 11, 72, 0
13, 141840, Note_on_c, 11, 71, 84
13, 141891, Note_on_c, 11, 71, 0
13, 141900, Note_on_c, 11, 71, 76
13, 141951, Note_on_c, 11, 71, 0
13, 141960, Note_on_c, 11, 77, 76
13, 142011, Note_on_c, 11, 77, 0
13, 142020, Note_on_c, 11, 77, 76
13, 142071, Note_on_c, 11, 77, 0
13, 142080, Note_on_c, 11, 74, 76
13, 142131, Note_on_c, 11, 74, 0
13, 142140, Note_on_c, 11, 74, 76
13, 142191, Note_on_c, 11, 74, 0
13, 142200, Note_on_c, 11, 71, 76
13, 142251, Note_on_c, 11, 71, 0
13, 142260, Note_on_c, 11, 71, 76
13, 142311, Note_on_c, 11, 71, 0
13, 142320, Note_on_c, 11, 67, 76
13, 142371, Note_on_c, 11, 67, 0
13, 142380, Note_on_c, 11, 67, 76
13, 142431, Note_on_c, 11, 67, 0
13, 142440, Note_on_c, 11, 65, 76
13, 142491, Note_on_c, 11, 65, 0
13, 142500, Note_on_c, 11, 65, 76
13, 142551, Note_on_c, 11, 65, 0
13, 142560, Note_on_c, 11, 64, 84
13, 142611, Note_on_c, 11, 64, 0
13, 142620, Note_on_c, 11, 64, 84
13, 142671, Note_on_c, 11, 64, 0
13, 142680, Note_on_c, 11, 55, 84
13, 142731, Note_on_c, 11, 55, 0
13, 142740, Note_on_c, 11, 55, 84
13, 142791, Note_on_c, 11, 55, 0
13, 142800, Note_on_c, 11, 60, 84
13, 142851, Note_on_c, 11, 60, 0
13, 142860, Note_on_c, 11, 60, 84
13, 142911, Note_on_c, 11, 60, 0
13, 142920, Note_on_c, 11, 64, 84
13, 142971, Note_on_c, 11, 64, 0
13, 142980, Note_on_c, 11, 64, 84
13, 143031, Note_on_c, 11, 64, 0
13, 143040, Note_on_c, 11, 67, 84
13, 143091, Note_on_c, 11, 67, 0
13, 143100, Note_on_c, 11, 67, 84
13, 143151, Note_on_c, 11, 67, 0
13, 143160, Note_on_c, 11, 60, 84
13, 143211, Note_on_c, 11, 60, 0
13, 143220, Note_on_c, 11, 60, 84
13, 143271, Note_on_c, 11, 60, 0
13, 143280, Note_on_c, 11, 64, 84
13, 143331, Note_on_c, 11, 64, 0
13, 143340, Note_on_c, 11, 64, 84
13, 143391, Note_on_c, 11, 64, 0
13, 143400, Note_on_c, 11, 67, 84
13, 143451, Note_on_c, 11, 67, 0
13, 143460, Note_on_c, 11, 67, 84
13, 143511, Note_on_c, 11, 67, 0
13, 143520, Note_on_c, 11, 72, 84
13, 143571, Note_on_c, 11, 72, 0
13, 143580, Note_on_c, 11, 72, 84
13, 143631, Note_on_c, 11, 72, 0
13, 143640, Note_on_c, 11, 64, 84
13, 143691, Note_on_c, 11, 64, 0
13, 143700, Note_on_c, 11, 64, 84
13, 143751, Note_on_c, 11, 64, 0
13, 143760, Note_on_c, 11, 67, 84
13, 143811, Note_on_c, 11, 67, 0
13, 143820, Note_on_c, 11, 67, 84
13, 143871, Note_on_c, 11, 67, 0
13, 143880, Note_on_c, 11, 72, 84
13, 143931, Note_on_c, 11, 72, 0
13, 143940, Note_on_c, 11, 72, 84
13, 143991, Note_on_c, 11, 72, 0
13, 144000, Note_on_c, 11, 76, 84
13, 144051, Note_on_c, 11, 76, 0
13, 144060, Note_on_c, 11, 76, 84
13, 144111, Note_on_c, 11, 76, 0
13, 144120, Note_on_c, 11, 67, 84
13, 144171, Note_on_c, 11, 67, 0
13, 144180, Note_on_c, 11, 67, 84
13, 144231, Note_on_c, 11, 67, 0
13, 144240, Note_on_c, 11, 72, 84
13, 144291, Note_on_c, 11, 72, 0
13, 144300, Note_on_c, 11, 72, 84
13, 144351, Note_on_c, 11, 72, 0
13, 144360, Note_on_c, 11, 76, 84
13, 144411, Note_on_c, 11, 76, 0
13, 144420, Note_on_c, 11, 76, 84
13, 144471, Note_on_c, 11, 76, 0
13, 144480, Note_on_c, 11, 79, 84
13, 144531, Note_on_c, 11, 79, 0
13, 144540, Note_on_c, 11, 79, 84
13, 144591, Note_on_c, 11, 79, 0
13, 144600, Note_on_c, 11, 72, 84
13, 144651, Note_on_c, 11, 72, 0
13, 144660, Note_on_c, 11, 72, 84
13, 144711, Note_on_c, 11, 72, 0
13, 144720, Note_on_c, 11, 76, 84
13, 144771, Note_on_c, 11, 76, 0
13, 144780, Note_on_c, 11, 76, 84
13, 144831, Note_on_c, 11, 76, 0
13, 144840, Note_on_c, 11, 79, 84
13, 144891, Note_on_c, 11, 79, 0
13, 144900, Note_on_c, 11, 79, 84
13, 144951, Note_on_c, 11, 79, 0
13, 144960, Note_on_c, 11, 84, 84
13, 145011, Note_on_c, 11, 84, 0
13, 145020, Note_on_c, 11, 84, 84
13, 145071, Note_on_c, 11, 84, 0
13, 145080, Note_on_c, 11, 72, 84
13, 145131, Note_on_c, 11, 72, 0
13, 145140, Note_on_c, 11, 72, 84
13, 145191, Note_on_c, 11, 72, 0
13, 145200, Note_on_c, 11, 76, 84
13, 145251, Note_on_c, 11, 76, 0
13, 145260, Note_on_c, 11, 76, 84
13, 145311, Note_on_c, 11, 76, 0
13, 145320, Note_on_c, 11, 79, 84
13, 145371, Note_on_c, 11, 79, 0
13, 145380, Note_on_c, 11, 79, 84
13, 145431, Note_on_c, 11, 79, 0
13, 145440, Note_on_c, 11, 84, 92
13, 145499, Note_on_c, 11, 84, 0
13, 145500, Note_on_c, 11, 84, 84
13, 145679, Note_on_c, 11, 84, 0
13, 145800, Note_on_c, 11, 84, 84
13, 145889, Note_on_c, 11, 84, 0
13, 145920, Note_on_c, 11, 72, 84
13, 146009, Note_on_c, 11, 72, 0
13, 146040, Note_on_c, 11, 84, 84
13, 146129, Note_on_c, 11, 84, 0
13, 146160, Note_on_c, 11, 72, 92
13, 146219, Note_on_c, 11, 72, 0
13, 146220, Note_on_c, 11, 72, 84
13, 146399, Note_on_c, 11, 72, 0
13, 146520, Note_on_c, 11, 84, 84
13, 146609, Note_on_c, 11, 84, 0
13, 146640, Note_on_c, 11, 72, 84
13, 146729, Note_on_c, 11, 72, 0
13, 146760, Note_on_c, 11, 84, 84
13, 146849, Note_on_c, 11, 84, 0
13, 146880, Note_on_c, 11, 72, 92
13, 146939, Note_on_c, 11, 72, 0
13, 146940, Note_on_c, 11, 72, 84
13, 147119, Note_on_c, 11, 72, 0
13, 147240, Note_on_c, 11, 84, 84
13, 147329, Note_on_c, 11, 84, 0
13, 147360, Note_on_c, 11, 72, 84
13, 147449, Note_on_c, 11, 72, 0
13, 147480, Note_on_c, 11, 84, 84
13, 147569, Note_on_c, 11, 84, 0
13, 147600, Note_on_c, 11, 72, 92
13, 147659, Note_on_c, 11, 72, 0
13, 147660, Note_on_c, 11, 72, 84
13, 147839, Note_on_c, 11, 72, 0
13, 147960, Note_on_c, 11, 84, 84
13, 148049, Note_on_c, 11, 84, 0
13, 148080, Note_on_c, 11, 72, 84
13, 148169, Note_on_c, 11, 72, 0
13, 148200, Note_on_c, 11, 84, 84
13, 148289, Note_on_c, 11, 84, 0
13, 148320, Note_on_c, 11, 72, 84
13, 148559, Note_on_c, 11, 72, 0
13, 149760, Note_on_c, 11, 64, 52
13, 150479, Note_on_c, 11, 64, 0
13, 150480, Note_on_c, 11, 64, 52
13, 151184, Note_on_c, 11, 64, 0
13, 151200, Note_on_c, 11, 65, 52
13, 151200, Note_on_c, 11, 55, 52
13, 151919, Note_on_c, 11, 65, 0
13, 151919, Note_on_c, 11, 55, 0
13, 151920, Note_on_c, 11, 55, 52
13, 151920, Note_on_c, 11, 65, 52
13, 152639, Note_on_c, 11, 55, 0
13, 152639, Note_on_c, 11, 65, 0
13, 152640, Note_on_c, 11, 55, 52
13, 152640, Note_on_c, 11, 65, 52
13, 153359, Note_on_c, 11, 55, 0
13, 153359, Note_on_c, 11, 65, 0
13, 153360, Note_on_c, 11, 55, 52
13, 153360, Note_on_c, 11, 65, 52
13, 154064, Note_on_c, 11, 55, 0
13, 154064, Note_on_c, 11, 65, 0
13, 154080, Note_on_c, 11, 64, 84
13, 154131, Note_on_c, 11, 64, 0
13, 154140, Note_on_c, 11, 64, 84
13, 154191, Note_on_c, 11, 64, 0
13, 154200, Note_on_c, 11, 55, 84
13, 154251, Note_on_c, 11, 55, 0
13, 154260, Note_on_c, 11, 55, 84
13, 154311, Note_on_c, 11, 55, 0
13, 154320, Note_on_c, 11, 60, 84
13, 154371, Note_on_c, 11, 60, 0
13, 154380, Note_on_c, 11, 60, 84
13, 154431, Note_on_c, 11, 60, 0
13, 154440, Note_on_c, 11, 64, 84
13, 154491, Note_on_c, 11, 64, 0
13, 154500, Note_on_c, 11, 64, 84
13, 154551, Note_on_c, 11, 64, 0
13, 154560, Note_on_c, 11, 67, 84
13, 154611, Note_on_c, 11, 67, 0
13, 154620, Note_on_c, 11, 67, 84
13, 154671, Note_on_c, 11, 67, 0
13, 154680, Note_on_c, 11, 60, 84
13, 154731, Note_on_c, 11, 60, 0
13, 154740, Note_on_c, 11, 60, 84
13, 154791, Note_on_c, 11, 60, 0
13, 154800, Note_on_c, 11, 64, 84
13, 154851, Note_on_c, 11, 64, 0
13, 154860, Note_on_c, 11, 64, 84
13, 154911, Note_on_c, 11, 64, 0
13, 154920, Note_on_c, 11, 67, 84
13, 154971, Note_on_c, 11, 67, 0
13, 154980, Note_on_c, 11, 67, 84
13, 155031, Note_on_c, 11, 67, 0
13, 155040, Note_on_c, 11, 72, 84
13, 155091, Note_on_c, 11, 72, 0
13, 155100, Note_on_c, 11, 72, 84
13, 155151, Note_on_c, 11, 72, 0
13, 155160, Note_on_c, 11, 64, 84
13, 155211, Note_on_c, 11, 64, 0
13, 155220, Note_on_c, 11, 64, 84
13, 155271, Note_on_c, 11, 64, 0
13, 155280, Note_on_c, 11, 67, 84
13, 155331, Note_on_c, 11, 67, 0
13, 155340, Note_on_c, 11, 67, 84
13, 155391, Note_on_c, 11, 67, 0
13, 155400, Note_on_c, 11, 72, 84
13, 155451, Note_on_c, 11, 72, 0
13, 155460, Note_on_c, 11, 72, 84
13, 155511, Note_on_c, 11, 72, 0
13, 155520, Note_on_c, 11, 76, 84
13, 155571, Note_on_c, 11, 76, 0
13, 155580, Note_on_c, 11, 76, 84
13, 155631, Note_on_c, 11, 76, 0
13, 155640, Note_on_c, 11, 67, 84
13, 155691, Note_on_c, 11, 67, 0
13, 155700, Note_on_c, 11, 67, 84
13, 155751, Note_on_c, 11, 67, 0
13, 155760, Note_on_c, 11, 72, 84
13, 155811, Note_on_c, 11, 72, 0
13, 155820, Note_on_c, 11, 72, 84
13, 155871, Note_on_c, 11, 72, 0
13, 155880, Note_on_c, 11, 76, 84
13, 155931, Note_on_c, 11, 76, 0
13, 155940, Note_on_c, 11, 76, 84
13, 155991, Note_on_c, 11, 76, 0
13, 156000, Note_on_c, 11, 79, 84
13, 156051, Note_on_c, 11, 79, 0
13, 156060, Note_on_c, 11, 79, 84
13, 156111, Note_on_c, 11, 79, 0
13, 156120, Note_on_c, 11, 72, 84
13, 156171, Note_on_c, 11, 72, 0
13, 156180, Note_on_c, 11, 72, 84
13, 156231, Note_on_c, 11, 72, 0
13, 156240, Note_on_c, 11, 76, 84
13, 156291, Note_on_c, 11, 76, 0
13, 156300, Note_on_c, 11, 76, 84
13, 156351, Note_on_c, 11, 76, 0
13, 156360, Note_on_c, 11, 79, 84
13, 156411, Note_on_c, 11, 79, 0
13, 156420, Note_on_c, 11, 79, 84
13, 156471, Note_on_c, 11, 79, 0
13, 156480, Note_on_c, 11, 84, 84
13, 156531, Note_on_c, 11, 84, 0
13, 156540, Note_on_c, 11, 84, 84
13, 156591, Note_on_c, 11, 84, 0
13, 156600, Note_on_c, 11, 72, 84
13, 156651, Note_on_c, 11, 72, 0
13, 156660, Note_on_c, 11, 72, 84
13, 156711, Note_on_c, 11, 72, 0
13, 156720, Note_on_c, 11, 76, 84
13, 156771, Note_on_c, 11, 76, 0
13, 156780, Note_on_c, 11, 76, 84
13, 156831, Note_on_c, 11, 76, 0
13, 156840, Note_on_c, 11, 79, 84
13, 156891, Note_on_c, 11, 79, 0
13, 156900, Note_on_c, 11, 79, 84
13, 156951, Note_on_c, 11, 79, 0
13, 156960, Note_on_c, 11, 84, 84
13, 157139, Note_on_c, 11, 84, 0
13, 159840, Note_on_c, 11, 66, 52
13, 159840, Note_on_c, 11, 57, 52
13, 160559, Note_on_c, 11, 66, 0
13, 160559, Note_on_c, 11, 57, 0
13, 160560, Note_on_c, 11, 66, 52
13, 160560, Note_on_c, 11, 57, 52
13, 161279, Note_on_c, 11, 66, 0
13, 161279, Note_on_c, 11, 57, 0
13, 161280, Note_on_c, 11, 66, 52
13, 161280, Note_on_c, 11, 57, 52
13, 161999, Note_on_c, 11, 66, 0
13, 161999, Note_on_c, 11, 57, 0
13, 162000, Note_on_c, 11, 57, 52
13, 162000, Note_on_c, 11, 65, 52
13, 162704, Note_on_c, 11, 57, 0
13, 162704, Note_on_c, 11, 65, 0
13, 162720, Note_on_c, 11, 65, 84
13, 162771, Note_on_c, 11, 65, 0
13, 162780, Note_on_c, 11, 65, 84
13, 162831, Note_on_c, 11, 65, 0
13, 162840, Note_on_c, 11, 58, 84
13, 162891, Note_on_c, 11, 58, 0
13, 162900, Note_on_c, 11, 58, 84
13, 162951, Note_on_c, 11, 58, 0
13, 162960, Note_on_c, 11, 62, 84
13, 163011, Note_on_c, 11, 62, 0
13, 163020, Note_on_c, 11, 62, 84
13, 163071, Note_on_c, 11, 62, 0
13, 163080, Note_on_c, 11, 65, 84
13, 163131, Note_on_c, 11, 65, 0
13, 163140, Note_on_c, 11, 65, 84
13, 163191, Note_on_c, 11, 65, 0
13, 163200, Note_on_c, 11, 70, 84
13, 163251, Note_on_c, 11, 70, 0
13, 163260, Note_on_c, 11, 70, 84
13, 163311, Note_on_c, 11, 70, 0
13, 163320, Note_on_c, 11, 62, 84
13, 163371, Note_on_c, 11, 62, 0
13, 163380, Note_on_c, 11, 62, 84
13, 163431, Note_on_c, 11, 62, 0
13, 163440, Note_on_c, 11, 65, 84
13, 163491, Note_on_c, 11, 65, 0
13, 163500, Note_on_c, 11, 65, 84
13, 163551, Note_on_c, 11, 65, 0
13, 163560, Note_on_c, 11, 70, 84
13, 163611, Note_on_c, 11, 70, 0
13, 163620, Note_on_c, 11, 70, 84
13, 163671, Note_on_c, 11, 70, 0
13, 163680, Note_on_c, 11, 74, 84
13, 163731, Note_on_c, 11, 74, 0
13, 163740, Note_on_c, 11, 74, 84
13, 163791, Note_on_c, 11, 74, 0
13, 163800, Note_on_c, 11, 65, 84
13, 163851, Note_on_c, 11, 65, 0
13, 163860, Note_on_c, 11, 65, 84
13, 163911, Note_on_c, 11, 65, 0
13, 163920, Note_on_c, 11, 70, 84
13, 163971, Note_on_c, 11, 70, 0
13, 163980, Note_on_c, 11, 70, 84
13, 164031, Note_on_c, 11, 70, 0
13, 164040, Note_on_c, 11, 74, 84
13, 164091, Note_on_c, 11, 74, 0
13, 164100, Note_on_c, 11, 74, 84
13, 164151, Note_on_c, 11, 74, 0
13, 164160, Note_on_c, 11, 77, 84
13, 164211, Note_on_c, 11, 77, 0
13, 164220, Note_on_c, 11, 77, 84
13, 164271, Note_on_c, 11, 77, 0
13, 164280, Note_on_c, 11, 70, 84
13, 164331, Note_on_c, 11, 70, 0
13, 164340, Note_on_c, 11, 70, 84
13, 164391, Note_on_c, 11, 70, 0
13, 164400, Note_on_c, 11, 74, 84
13, 164451, Note_on_c, 11, 74, 0
13, 164460, Note_on_c, 11, 74, 84
13, 164511, Note_on_c, 11, 74, 0
13, 164520, Note_on_c, 11, 77, 84
13, 164571, Note_on_c, 11, 77, 0
13, 164580, Note_on_c, 11, 77, 84
13, 164631, Note_on_c, 11, 77, 0
13, 164640, Note_on_c, 11, 82, 84
13, 164691, Note_on_c, 11, 82, 0
13, 164700, Note_on_c, 11, 82, 84
13, 164751, Note_on_c, 11, 82, 0
13, 164760, Note_on_c, 11, 70, 84
13, 164811, Note_on_c, 11, 70, 0
13, 164820, Note_on_c, 11, 70, 84
13, 164871, Note_on_c, 11, 70, 0
13, 164880, Note_on_c, 11, 74, 84
13, 164931, Note_on_c, 11, 74, 0
13, 164940, Note_on_c, 11, 74, 84
13, 164991, Note_on_c, 11, 74, 0
13, 165000, Note_on_c, 11, 77, 84
13, 165051, Note_on_c, 11, 77, 0
13, 165060, Note_on_c, 11, 77, 84
13, 165111, Note_on_c, 11, 77, 0
13, 165120, Note_on_c, 11, 82, 84
13, 165171, Note_on_c, 11, 82, 0
13, 165180, Note_on_c, 11, 82, 84
13, 165231, Note_on_c, 11, 82, 0
13, 165240, Note_on_c, 11, 70, 84
13, 165291, Note_on_c, 11, 70, 0
13, 165300, Note_on_c, 11, 70, 84
13, 165351, Note_on_c, 11, 70, 0
13, 165360, Note_on_c, 11, 74, 84
13, 165411, Note_on_c, 11, 74, 0
13, 165420, Note_on_c, 11, 74, 84
13, 165471, Note_on_c, 11, 74, 0
13, 165480, Note_on_c, 11, 77, 84
13, 165531, Note_on_c, 11, 77, 0
13, 165540, Note_on_c, 11, 77, 84
13, 165591, Note_on_c, 11, 77, 0
13, 165600, Note_on_c, 11, 82, 84
13, 165779, Note_on_c, 11, 82, 0
13, 168240, Control_c, 11, 11, 64
13, 168480, Note_on_c, 11, 67, 84
13, 168480, Note_on_c, 11, 57, 84
13, 168720, Control_c, 11, 11, 69
13, 168960, Control_c, 11, 11, 75
13, 169199, Note_on_c, 11, 67, 0
13, 169199, Note_on_c, 11, 57, 0
13, 169200, Note_on_c, 11, 57, 84
13, 169200, Note_on_c, 11, 67, 84
13, 169200, Control_c, 11, 11, 80
13, 169440, Control_c, 11, 11, 85
13, 169680, Control_c, 11, 11, 90
13, 169919, Note_on_c, 11, 57, 0
13, 169919, Note_on_c, 11, 67, 0
13, 169920, Note_on_c, 11, 67, 84
13, 169920, Note_on_c, 11, 57, 84
13, 169920, Control_c, 11, 11, 96
13, 170160, Control_c, 11, 11, 101
13, 170400, Control_c, 11, 11, 106
13, 170639, Note_on_c, 11, 67, 0
13, 170639, Note_on_c, 11, 57, 0
13, 170640, Note_on_c, 11, 65, 84
13, 170640, Control_c, 11, 11, 111
13, 170640, Note_on_c, 11, 57, 84
13, 170880, Control_c, 11, 11, 117
13, 171120, Control_c, 11, 11, 122
13, 171344, Note_on_c, 11, 65, 0
13, 171344, Note_on_c, 11, 57, 0
13, 171360, Note_on_c, 11, 64, 84
13, 171360, Control_c, 11, 11, 127
13, 171411, Note_on_c, 11, 64, 0
13, 171420, Note_on_c, 11, 64, 84
13, 171471, Note_on_c, 11, 64, 0
13, 171480, Note_on_c, 11, 57, 84
13, 171531, Note_on_c, 11, 57, 0
13, 171540, Note_on_c, 11, 57, 84
13, 171591, Note_on_c, 11, 57, 0
13, 171600, Note_on_c, 11, 61, 84
13, 171651, Note_on_c, 11, 61, 0
13, 171660, Note_on_c, 11, 61, 84
13, 171711, Note_on_c, 11, 61, 0
13, 171720, Note_on_c, 11, 64, 84
13, 171771, Note_on_c, 11, 64, 0
13, 171780, Note_on_c, 11, 64, 84
13, 171831, Note_on_c, 11, 64, 0
13, 171840, Note_on_c, 11, 69, 84
13, 171891, Note_on_c, 11, 69, 0
13, 171900, Note_on_c, 11, 69, 84
13, 171951, Note_on_c, 11, 69, 0
13, 171960, Note_on_c, 11, 61, 84
13, 172011, Note_on_c, 11, 61, 0
13, 172020, Note_on_c, 11, 61, 84
13, 172071, Note_on_c, 11, 61, 0
13, 172080, Note_on_c, 11, 64, 84
13, 172131, Note_on_c, 11, 64, 0
13, 172140, Note_on_c, 11, 64, 84
13, 172191, Note_on_c, 11, 64, 0
13, 172200, Note_on_c, 11, 69, 84
13, 172251, Note_on_c, 11, 69, 0
13, 172260, Note_on_c, 11, 69, 84
13, 172311, Note_on_c, 11, 69, 0
13, 172320, Note_on_c, 11, 73, 84
13, 172371, Note_on_c, 11, 73, 0
13, 172380, Note_on_c, 11, 73, 84
13, 172431, Note_on_c, 11, 73, 0
13, 172440, Note_on_c, 11, 64, 84
13, 172491, Note_on_c, 11, 64, 0
13, 172500, Note_on_c, 11, 64, 84
13, 172551, Note_on_c, 11, 64, 0
13, 172560, Note_on_c, 11, 69, 84
13, 172611, Note_on_c, 11, 69, 0
13, 172620, Note_on_c, 11, 69, 84
13, 172671, Note_on_c, 11, 69, 0
13, 172680, Note_on_c, 11, 73, 84
13, 172731, Note_on_c, 11, 73, 0
13, 172740, Note_on_c, 11, 73, 84
13, 172791, Note_on_c, 11, 73, 0
13, 172800, Note_on_c, 11, 76, 84
13, 172851, Note_on_c, 11, 76, 0
13, 172860, Note_on_c, 11, 76, 84
13, 172911, Note_on_c, 11, 76, 0
13, 172920, Note_on_c, 11, 69, 84
13, 172971, Note_on_c, 11, 69, 0
13, 172980, Note_on_c, 11, 69, 84
13, 173031, Note_on_c, 11, 69, 0
13, 173040, Note_on_c, 11, 73, 84
13, 173091, Note_on_c, 11, 73, 0
13, 173100, Note_on_c, 11, 73, 84
13, 173151, Note_on_c, 11, 73, 0
13, 173160, Note_on_c, 11, 76, 84
13, 173211, Note_on_c, 11, 76, 0
13, 173220, Note_on_c, 11, 76, 84
13, 173271, Note_on_c, 11, 76, 0
13, 173280, Note_on_c, 11, 81, 84
13, 173331, Note_on_c, 11, 81, 0
13, 173340, Note_on_c, 11, 81, 84
13, 173391, Note_on_c, 11, 81, 0
13, 173400, Note_on_c, 11, 69, 84
13, 173451, Note_on_c, 11, 69, 0
13, 173460, Note_on_c, 11, 69, 84
13, 173511, Note_on_c, 11, 69, 0
13, 173520, Note_on_c, 11, 73, 84
13, 173571, Note_on_c, 11, 73, 0
13, 173580, Note_on_c, 11, 73, 84
13, 173631, Note_on_c, 11, 73, 0
13, 173640, Note_on_c, 11, 76, 84
13, 173691, Note_on_c, 11, 76, 0
13, 173700, Note_on_c, 11, 76, 84
13, 173751, Note_on_c, 11, 76, 0
13, 173760, Note_on_c, 11, 81, 84
13, 173811, Note_on_c, 11, 81, 0
13, 173820, Note_on_c, 11, 81, 84
13, 173871, Note_on_c, 11, 81, 0
13, 173880, Note_on_c, 11, 69, 84
13, 173931, Note_on_c, 11, 69, 0
13, 173940, Note_on_c, 11, 69, 84
13, 173991, Note_on_c, 11, 69, 0
13, 174000, Note_on_c, 11, 73, 84
13, 174051, Note_on_c, 11, 73, 0
13, 174060, Note_on_c, 11, 73, 84
13, 174111, Note_on_c, 11, 73, 0
13, 174120, Note_on_c, 11, 76, 84
13, 174171, Note_on_c, 11, 76, 0
13, 174180, Note_on_c, 11, 76, 84
13, 174231, Note_on_c, 11, 76, 0
13, 174240, Note_on_c, 11, 81, 84
13, 174240, Note_on_c, 11, 69, 84
13, 174479, Note_on_c, 11, 81, 0
13, 174479, Note_on_c, 11, 69, 0
13, 174960, Note_on_c, 11, 69, 92
13, 174960, Note_on_c, 11, 81, 92
13, 175199, Note_on_c, 11, 69, 0
13, 175199, Note_on_c, 11, 81, 0
13, 175320, Note_on_c, 11, 81, 84
13, 175424, Note_on_c, 11, 81, 0
13, 175440, Note_on_c, 11, 69, 84
13, 175544, Note_on_c, 11, 69, 0
13, 175560, Note_on_c, 11, 81, 84
13, 175664, Note_on_c, 11, 81, 0
13, 175680, Note_on_c, 11, 69, 84
13, 175919, Note_on_c, 11, 69, 0
13, 176400, Note_on_c, 11, 81, 92
13, 176400, Note_on_c, 11, 69, 92
13, 176639, Note_on_c, 11, 81, 0
13, 176639, Note_on_c, 11, 69, 0
13, 176760, Note_on_c, 11, 81, 84
13, 176864, Note_on_c, 11, 81, 0
13, 176880, Note_on_c, 11, 69, 84
13, 176984, Note_on_c, 11, 69, 0
13, 177000, Note_on_c, 11, 81, 84
13, 177104, Note_on_c, 11, 81, 0
13, 177120, Note_on_c, 11, 69, 84
13, 177171, Note_on_c, 11, 69, 0
13, 177180, Note_on_c, 11, 81, 84
13, 177231, Note_on_c, 11, 81, 0
13, 177240, Note_on_c, 11, 81, 84
13, 177291, Note_on_c, 11, 81, 0
13, 177300, Note_on_c, 11, 81, 84
13, 177351, Note_on_c, 11, 81, 0
13, 177360, Note_on_c, 11, 81, 92
13, 177411, Note_on_c, 11, 81, 0
13, 177420, Note_on_c, 11, 81, 84
13, 177471, Note_on_c, 11, 81, 0
13, 177480, Note_on_c, 11, 81, 84
13, 177531, Note_on_c, 11, 81, 0
13, 177540, Note_on_c, 11, 81, 84
13, 177591, Note_on_c, 11, 81, 0
13, 177600, Note_on_c, 11, 81, 84
13, 177651, Note_on_c, 11, 81, 0
13, 177660, Note_on_c, 11, 81, 84
13, 177711, Note_on_c, 11, 81, 0
13, 177720, Note_on_c, 11, 81, 84
13, 177771, Note_on_c, 11, 81, 0
13, 177780, Note_on_c, 11, 81, 84
13, 177831, Note_on_c, 11, 81, 0
13, 177840, Note_on_c, 11, 81, 84
13, 177891, Note_on_c, 11, 81, 0
13, 177900, Note_on_c, 11, 81, 84
13, 177951, Note_on_c, 11, 81, 0
13, 177960, Note_on_c, 11, 77, 84
13, 178011, Note_on_c, 11, 77, 0
13, 178020, Note_on_c, 11, 77, 84
13, 178071, Note_on_c, 11, 77, 0
13, 178080, Note_on_c, 11, 74, 84
13, 178131, Note_on_c, 11, 74, 0
13, 178140, Note_on_c, 11, 74, 84
13, 178191, Note_on_c, 11, 74, 0
13, 178200, Note_on_c, 11, 69, 84
13, 178251, Note_on_c, 11, 69, 0
13, 178260, Note_on_c, 11, 69, 84
13, 178311, Note_on_c, 11, 69, 0
13, 178320, Note_on_c, 11, 65, 84
13, 178371, Note_on_c, 11, 65, 0
13, 178380, Note_on_c, 11, 65, 84
13, 178431, Note_on_c, 11, 65, 0
13, 178440, Note_on_c, 11, 62, 84
13, 178491, Note_on_c, 11, 62, 0
13, 178500, Note_on_c, 11, 62, 84
13, 178551, Note_on_c, 11, 62, 0
13, 178560, Note_on_c, 11, 62, 84
13, 178611, Note_on_c, 11, 62, 0
13, 178620, Note_on_c, 11, 82, 84
13, 178671, Note_on_c, 11, 82, 0
13, 178680, Note_on_c, 11, 82, 84
13, 178731, Note_on_c, 11, 82, 0
13, 178740, Note_on_c, 11, 82, 84
13, 178791, Note_on_c, 11, 82, 0
13, 178800, Note_on_c, 11, 82, 92
13, 178851, Note_on_c, 11, 82, 0
13, 178860, Note_on_c, 11, 82, 84
13, 178911, Note_on_c, 11, 82, 0
13, 178920, Note_on_c, 11, 82, 84
13, 178971, Note_on_c, 11, 82, 0
13, 178980, Note_on_c, 11, 82, 84
13, 179031, Note_on_c, 11, 82, 0
13, 179040, Note_on_c, 11, 82, 84
13, 179091, Note_on_c, 11, 82, 0
13, 179100, Note_on_c, 11, 82, 84
13, 179151, Note_on_c, 11, 82, 0
13, 179160, Note_on_c, 11, 82, 84
13, 179211, Note_on_c, 11, 82, 0
13, 179220, Note_on_c, 11, 82, 84
13, 179271, Note_on_c, 11, 82, 0
13, 179280, Note_on_c, 11, 82, 84
13, 179331, Note_on_c, 11, 82, 0
13, 179340, Note_on_c, 11, 82, 84
13, 179391, Note_on_c, 11, 82, 0
13, 179400, Note_on_c, 11, 79, 84
13, 179451, Note_on_c, 11, 79, 0
13, 179460, Note_on_c, 11, 79, 84
13, 179511, Note_on_c, 11, 79, 0
13, 179520, Note_on_c, 11, 74, 84
13, 179571, Note_on_c, 11, 74, 0
13, 179580, Note_on_c, 11, 74, 84
13, 179631, Note_on_c, 11, 74, 0
13, 179640, Note_on_c, 11, 70, 84
13, 179691, Note_on_c, 11, 70, 0
13, 179700, Note_on_c, 11, 70, 84
13, 179751, Note_on_c, 11, 70, 0
13, 179760, Note_on_c, 11, 67, 84
13, 179811, Note_on_c, 11, 67, 0
13, 179820, Note_on_c, 11, 67, 84
13, 179871, Note_on_c, 11, 67, 0
13, 179880, Note_on_c, 11, 62, 84
13, 179931, Note_on_c, 11, 62, 0
13, 179940, Note_on_c, 11, 62, 84
13, 179991, Note_on_c, 11, 62, 0
13, 180000, Note_on_c, 11, 64, 84
13, 180051, Note_on_c, 11, 64, 0
13, 180060, Note_on_c, 11, 64, 84
13, 180111, Note_on_c, 11, 64, 0
13, 180120, Note_on_c, 11, 76, 84
13, 180171, Note_on_c, 11, 76, 0
13, 180180, Note_on_c, 11, 76, 84
13, 180231, Note_on_c, 11, 76, 0
13, 180240, Note_on_c, 11, 82, 92
13, 180291, Note_on_c, 11, 82, 0
13, 180300, Note_on_c, 11, 82, 84
13, 180351, Note_on_c, 11, 82, 0
13, 180360, Note_on_c, 11, 81, 84
13, 180411, Note_on_c, 11, 81, 0
13, 180420, Note_on_c, 11, 81, 84
13, 180471, Note_on_c, 11, 81, 0
13, 180480, Note_on_c, 11, 79, 84
13, 180531, Note_on_c, 11, 79, 0
13, 180540, Note_on_c, 11, 79, 84
13, 180591, Note_on_c, 11, 79, 0
13, 180600, Note_on_c, 11, 82, 84
13, 180651, Note_on_c, 11, 82, 0
13, 180660, Note_on_c, 11, 82, 84
13, 180711, Note_on_c, 11, 82, 0
13, 180720, Note_on_c, 11, 73, 84
13, 180771, Note_on_c, 11, 73, 0
13, 180780, Note_on_c, 11, 73, 84
13, 180831, Note_on_c, 11, 73, 0
13, 180840, Note_on_c, 11, 81, 84
13, 180891, Note_on_c, 11, 81, 0
13, 180900, Note_on_c, 11, 81, 84
13, 180951, Note_on_c, 11, 81, 0
13, 180960, Note_on_c, 11, 79, 92
13, 181011, Note_on_c, 11, 79, 0
13, 181020, Note_on_c, 11, 79, 84
13, 181071, Note_on_c, 11, 79, 0
13, 181080, Note_on_c, 11, 77, 84
13, 181131, Note_on_c, 11, 77, 0
13, 181140, Note_on_c, 11, 77, 84
13, 181191, Note_on_c, 11, 77, 0
13, 181200, Note_on_c, 11, 76, 84
13, 181251, Note_on_c, 11, 76, 0
13, 181260, Note_on_c, 11, 76, 84
13, 181311, Note_on_c, 11, 76, 0
13, 181320, Note_on_c, 11, 79, 84
13, 181371, Note_on_c, 11, 79, 0
13, 181380, Note_on_c, 11, 79, 84
13, 181431, Note_on_c, 11, 79, 0
13, 181440, Note_on_c, 11, 69, 84
13, 181491, Note_on_c, 11, 69, 0
13, 181500, Note_on_c, 11, 69, 84
13, 181551, Note_on_c, 11, 69, 0
13, 181560, Note_on_c, 11, 77, 84
13, 181611, Note_on_c, 11, 77, 0
13, 181620, Note_on_c, 11, 77, 84
13, 181671, Note_on_c, 11, 77, 0
13, 181680, Note_on_c, 11, 76, 92
13, 181731, Note_on_c, 11, 76, 0
13, 181740, Note_on_c, 11, 76, 84
13, 181791, Note_on_c, 11, 76, 0
13, 181800, Note_on_c, 11, 74, 84
13, 181851, Note_on_c, 11, 74, 0
13, 181860, Note_on_c, 11, 74, 84
13, 181911, Note_on_c, 11, 74, 0
13, 181920, Note_on_c, 11, 73, 84
13, 181971, Note_on_c, 11, 73, 0
13, 181980, Note_on_c, 11, 73, 84
13, 182031, Note_on_c, 11, 73, 0
13, 182040, Note_on_c, 11, 76, 84
13, 182091, Note_on_c, 11, 76, 0
13, 182100, Note_on_c, 11, 76, 84
13, 182151, Note_on_c, 11, 76, 0
13, 182160, Note_on_c, 11, 65, 84
13, 182211, Note_on_c, 11, 65, 0
13, 182220, Note_on_c, 11, 65, 84
13, 182271, Note_on_c, 11, 65, 0
13, 182280, Note_on_c, 11, 74, 84
13, 182331, Note_on_c, 11, 74, 0
13, 182340, Note_on_c, 11, 74, 84
13, 182391, Note_on_c, 11, 74, 0
13, 182400, Note_on_c, 11, 72, 92
13, 182451, Note_on_c, 11, 72, 0
13, 182460, Note_on_c, 11, 72, 84
13, 182511, Note_on_c, 11, 72, 0
13, 182520, Note_on_c, 11, 70, 84
13, 182571, Note_on_c, 11, 70, 0
13, 182580, Note_on_c, 11, 70, 84
13, 182631, Note_on_c, 11, 70, 0
13, 182640, Note_on_c, 11, 69, 84
13, 182691, Note_on_c, 11, 69, 0
13, 182700, Note_on_c, 11, 69, 84
13, 182751, Note_on_c, 11, 69, 0
13, 182760, Note_on_c, 11, 72, 84
13, 182811, Note_on_c, 11, 72, 0
13, 182820, Note_on_c, 11, 72, 84
13, 182871, Note_on_c, 11, 72, 0
13, 182880, Note_on_c, 11, 70, 84
13, 182931, Note_on_c, 11, 70, 0
13, 182940, Note_on_c, 11, 58, 84
13, 182940, Note_on_c, 11, 62, 84
13, 182991, Note_on_c, 11, 58, 0
13, 182991, Note_on_c, 11, 62, 0
13, 183000, Note_on_c, 11, 58, 84
13, 183000, Note_on_c, 11, 62, 84
13, 183051, Note_on_c, 11, 58, 0
13, 183051, Note_on_c, 11, 62, 0
13, 183060, Note_on_c, 11, 62, 84
13, 183060, Note_on_c, 11, 58, 84
13, 183111, Note_on_c, 11, 62, 0
13, 183111, Note_on_c, 11, 58, 0
13, 183120, Note_on_c, 11, 62, 84
13, 183120, Note_on_c, 11, 58, 84
13, 183171, Note_on_c, 11, 62, 0
13, 183171, Note_on_c, 11, 58, 0
13, 183180, Note_on_c, 11, 58, 84
13, 183180, Note_on_c, 11, 62, 84
13, 183231, Note_on_c, 11, 58, 0
13, 183231, Note_on_c, 11, 62, 0
13, 183240, Note_on_c, 11, 58, 84
13, 183240, Note_on_c, 11, 62, 84
13, 183291, Note_on_c, 11, 58, 0
13, 183291, Note_on_c, 11, 62, 0
13, 183300, Note_on_c, 11, 58, 84
13, 183300, Note_on_c, 11, 62, 84
13, 183351, Note_on_c, 11, 58, 0
13, 183351, Note_on_c, 11, 62, 0
13, 183360, Note_on_c, 11, 58, 84
13, 183360, Note_on_c, 11, 62, 84
13, 183411, Note_on_c, 11, 58, 0
13, 183411, Note_on_c, 11, 62, 0
13, 183420, Note_on_c, 11, 58, 84
13, 183420, Note_on_c, 11, 62, 84
13, 183471, Note_on_c, 11, 58, 0
13, 183471, Note_on_c, 11, 62, 0
13, 183480, Note_on_c, 11, 62, 84
13, 183480, Note_on_c, 11, 58, 84
13, 183531, Note_on_c, 11, 62, 0
13, 183531, Note_on_c, 11, 58, 0
13, 183540, Note_on_c, 11, 58, 84
13, 183540, Note_on_c, 11, 62, 84
13, 183591, Note_on_c, 11, 58, 0
13, 183591, Note_on_c, 11, 62, 0
13, 183600, Note_on_c, 11, 59, 84
13, 183651, Note_on_c, 11, 59, 0
13, 183660, Note_on_c, 11, 59, 84
13, 183711, Note_on_c, 11, 59, 0
13, 183720, Note_on_c, 11, 62, 84
13, 183771, Note_on_c, 11, 62, 0
13, 183780, Note_on_c, 11, 62, 84
13, 183831, Note_on_c, 11, 62, 0
13, 183840, Note_on_c, 11, 67, 84
13, 183891, Note_on_c, 11, 67, 0
13, 183900, Note_on_c, 11, 67, 84
13, 183951, Note_on_c, 11, 67, 0
13, 183960, Note_on_c, 11, 71, 84
13, 184011, Note_on_c, 11, 71, 0
13, 184020, Note_on_c, 11, 71, 84
13, 184071, Note_on_c, 11, 71, 0
13, 184080, Note_on_c, 11, 74, 84
13, 184131, Note_on_c, 11, 74, 0
13, 184140, Note_on_c, 11, 74, 84
13, 184191, Note_on_c, 11, 74, 0
13, 184200, Note_on_c, 11, 79, 84
13, 184251, Note_on_c, 11, 79, 0
13, 184260, Note_on_c, 11, 79, 84
13, 184311, Note_on_c, 11, 79, 0
13, 184320, Note_on_c, 11, 63, 84
13, 184320, Note_on_c, 11, 60, 84
13, 184371, Note_on_c, 11, 63, 0
13, 184371, Note_on_c, 11, 60, 0
13, 184380, Note_on_c, 11, 63, 84
13, 184380, Note_on_c, 11, 60, 84
13, 184431, Note_on_c, 11, 63, 0
13, 184431, Note_on_c, 11, 60, 0
13, 184440, Note_on_c, 11, 60, 84
13, 184440, Note_on_c, 11, 63, 84
13, 184491, Note_on_c, 11, 60, 0
13, 184491, Note_on_c, 11, 63, 0
13, 184500, Note_on_c, 11, 63, 84
13, 184500, Note_on_c, 11, 60, 84
13, 184551, Note_on_c, 11, 63, 0
13, 184551, Note_on_c, 11, 60, 0
13, 184560, Note_on_c, 11, 63, 84
13, 184560, Note_on_c, 11, 60, 84
13, 184611, Note_on_c, 11, 63, 0
13, 184611, Note_on_c, 11, 60, 0
13, 184620, Note_on_c, 11, 60, 84
13, 184620, Note_on_c, 11, 63, 84
13, 184671, Note_on_c, 11, 60, 0
13, 184671, Note_on_c, 11, 63, 0
13, 184680, Note_on_c, 11, 60, 84
13, 184680, Note_on_c, 11, 63, 84
13, 184731, Note_on_c, 11, 60, 0
13, 184731, Note_on_c, 11, 63, 0
13, 184740, Note_on_c, 11, 60, 84
13, 184740, Note_on_c, 11, 63, 84
13, 184791, Note_on_c, 11, 60, 0
13, 184791, Note_on_c, 11, 63, 0
13, 184800, Note_on_c, 11, 60, 84
13, 184800, Note_on_c, 11, 63, 84
13, 184851, Note_on_c, 11, 60, 0
13, 184851, Note_on_c, 11, 63, 0
13, 184860, Note_on_c, 11, 63, 84
13, 184860, Note_on_c, 11, 60, 84
13, 184911, Note_on_c, 11, 63, 0
13, 184911, Note_on_c, 11, 60, 0
13, 184920, Note_on_c, 11, 60, 84
13, 184920, Note_on_c, 11, 63, 84
13, 184971, Note_on_c, 11, 60, 0
13, 184971, Note_on_c, 11, 63, 0
13, 184980, Note_on_c, 11, 60, 84
13, 184980, Note_on_c, 11, 63, 84
13, 185031, Note_on_c, 11, 60, 0
13, 185031, Note_on_c, 11, 63, 0
13, 185040, Note_on_c, 11, 60, 84
13, 185091, Note_on_c, 11, 60, 0
13, 185100, Note_on_c, 11, 60, 84
13, 185151, Note_on_c, 11, 60, 0
13, 185160, Note_on_c, 11, 63, 84
13, 185211, Note_on_c, 11, 63, 0
13, 185220, Note_on_c, 11, 63, 84
13, 185271, Note_on_c, 11, 63, 0
13, 185280, Note_on_c, 11, 67, 84
13, 185331, Note_on_c, 11, 67, 0
13, 185340, Note_on_c, 11, 67, 84
13, 185391, Note_on_c, 11, 67, 0
13, 185400, Note_on_c, 11, 72, 84
13, 185451, Note_on_c, 11, 72, 0
13, 185460, Note_on_c, 11, 72, 84
13, 185511, Note_on_c, 11, 72, 0
13, 185520, Note_on_c, 11, 75, 84
13, 185571, Note_on_c, 11, 75, 0
13, 185580, Note_on_c, 11, 75, 84
13, 185631, Note_on_c, 11, 75, 0
13, 185640, Note_on_c, 11, 79, 84
13, 185691, Note_on_c, 11, 79, 0
13, 185700, Note_on_c, 11, 79, 84
13, 185751, Note_on_c, 11, 79, 0
13, 185760, Note_on_c, 11, 59, 84
13, 185811, Note_on_c, 11, 59, 0
13, 185820, Note_on_c, 11, 59, 84
13, 185871, Note_on_c, 11, 59, 0
13, 185880, Note_on_c, 11, 62, 84
13, 185931, Note_on_c, 11, 62, 0
13, 185940, Note_on_c, 11, 62, 84
13, 185991, Note_on_c, 11, 62, 0
13, 186000, Note_on_c, 11, 59, 92
13, 186051, Note_on_c, 11, 59, 0
13, 186060, Note_on_c, 11, 59, 84
13, 186111, Note_on_c, 11, 59, 0
13, 186120, Note_on_c, 11, 60, 84
13, 186171, Note_on_c, 11, 60, 0
13, 186180, Note_on_c, 11, 60, 84
13, 186231, Note_on_c, 11, 60, 0
13, 186240, Note_on_c, 11, 62, 84
13, 186291, Note_on_c, 11, 62, 0
13, 186300, Note_on_c, 11, 62, 84
13, 186351, Note_on_c, 11, 62, 0
13, 186360, Note_on_c, 11, 59, 84
13, 186411, Note_on_c, 11, 59, 0
13, 186420, Note_on_c, 11, 59, 84
13, 186471, Note_on_c, 11, 59, 0
13, 186480, Note_on_c, 11, 60, 84
13, 186531, Note_on_c, 11, 60, 0
13, 186540, Note_on_c, 11, 60, 84
13, 186591, Note_on_c, 11, 60, 0
13, 186600, Note_on_c, 11, 67, 84
13, 186651, Note_on_c, 11, 67, 0
13, 186660, Note_on_c, 11, 67, 84
13, 186711, Note_on_c, 11, 67, 0
13, 186720, Note_on_c, 11, 62, 92
13, 186771, Note_on_c, 11, 62, 0
13, 186780, Note_on_c, 11, 62, 84
13, 186831, Note_on_c, 11, 62, 0
13, 186840, Note_on_c, 11, 63, 84
13, 186891, Note_on_c, 11, 63, 0
13, 186900, Note_on_c, 11, 63, 84
13, 186951, Note_on_c, 11, 63, 0
13, 186960, Note_on_c, 11, 65, 84
13, 187011, Note_on_c, 11, 65, 0
13, 187020, Note_on_c, 11, 65, 84
13, 187071, Note_on_c, 11, 65, 0
13, 187080, Note_on_c, 11, 62, 84
13, 187131, Note_on_c, 11, 62, 0
13, 187140, Note_on_c, 11, 62, 84
13, 187191, Note_on_c, 11, 62, 0
13, 187200, Note_on_c, 11, 67, 84
13, 187251, Note_on_c, 11, 67, 0
13, 187260, Note_on_c, 11, 67, 84
13, 187311, Note_on_c, 11, 67, 0
13, 187320, Note_on_c, 11, 64, 84
13, 187371, Note_on_c, 11, 64, 0
13, 187380, Note_on_c, 11, 64, 84
13, 187431, Note_on_c, 11, 64, 0
13, 187440, Note_on_c, 11, 64, 92
13, 187491, Note_on_c, 11, 64, 0
13, 187500, Note_on_c, 11, 64, 84
13, 187551, Note_on_c, 11, 64, 0
13, 187560, Note_on_c, 11, 65, 84
13, 187611, Note_on_c, 11, 65, 0
13, 187620, Note_on_c, 11, 65, 84
13, 187671, Note_on_c, 11, 65, 0
13, 187680, Note_on_c, 11, 67, 84
13, 187731, Note_on_c, 11, 67, 0
13, 187740, Note_on_c, 11, 67, 84
13, 187791, Note_on_c, 11, 67, 0
13, 187800, Note_on_c, 11, 64, 84
13, 187851, Note_on_c, 11, 64, 0
13, 187860, Note_on_c, 11, 64, 84
13, 187911, Note_on_c, 11, 64, 0
13, 187920, Note_on_c, 11, 65, 84
13, 187971, Note_on_c, 11, 65, 0
13, 187980, Note_on_c, 11, 65, 84
13, 188031, Note_on_c, 11, 65, 0
13, 188040, Note_on_c, 11, 60, 84
13, 188091, Note_on_c, 11, 60, 0
13, 188100, Note_on_c, 11, 60, 84
13, 188151, Note_on_c, 11, 60, 0
13, 188160, Note_on_c, 11, 55, 92
13, 188211, Note_on_c, 11, 55, 0
13, 188220, Note_on_c, 11, 55, 84
13, 188271, Note_on_c, 11, 55, 0
13, 188280, Note_on_c, 11, 56, 84
13, 188331, Note_on_c, 11, 56, 0
13, 188340, Note_on_c, 11, 56, 84
13, 188391, Note_on_c, 11, 56, 0
13, 188400, Note_on_c, 11, 58, 84
13, 188504, Note_on_c, 11, 58, 0
13, 188520, Note_on_c, 11, 84, 84
13, 188879, Note_on_c, 11, 84, 0
13, 188880, Note_on_c, 11, 80, 84
13, 188999, Note_on_c, 11, 80, 0
13, 189000, Note_on_c, 11, 82, 84
13, 189104, Note_on_c, 11, 82, 0
13, 189120, Note_on_c, 11, 84, 84
13, 189209, Note_on_c, 11, 84, 0
13, 189240, Note_on_c, 11, 80, 84
13, 189329, Note_on_c, 11, 80, 0
13, 189360, Note_on_c, 11, 77, 84
13, 190064, Note_on_c, 11, 77, 0
13, 190080, Note_on_c, 11, 85, 84
13, 190319, Note_on_c, 11, 85, 0
13, 190320, Note_on_c, 11, 82, 84
13, 190439, Note_on_c, 11, 82, 0
13, 190440, Note_on_c, 11, 84, 84
13, 190544, Note_on_c, 11, 84, 0
13, 190560, Note_on_c, 11, 85, 84
13, 190649, Note_on_c, 11, 85, 0
13, 190680, Note_on_c, 11, 82, 84
13, 190769, Note_on_c, 11, 82, 0
13, 190800, Note_on_c, 11, 77, 92
13, 190859, Note_on_c, 11, 77, 0
13, 190860, Note_on_c, 11, 77, 84
13, 191504, Note_on_c, 11, 77, 0
13, 191520, Note_on_c, 11, 85, 84
13, 191699, Note_on_c, 11, 85, 0
13, 191760, Note_on_c, 11, 82, 92
13, 191879, Note_on_c, 11, 82, 0
13, 191880, Note_on_c, 11, 84, 84
13, 191984, Note_on_c, 11, 84, 0
13, 192000, Note_on_c, 11, 85, 84
13, 192089, Note_on_c, 11, 85, 0
13, 192120, Note_on_c, 11, 82, 84
13, 192209, Note_on_c, 11, 82, 0
13, 192240, Note_on_c, 11, 84, 84
13, 192419, Note_on_c, 11, 84, 0
13, 192480, Note_on_c, 11, 79, 92
13, 192599, Note_on_c, 11, 79, 0
13, 192600, Note_on_c, 11, 80, 84
13, 192704, Note_on_c, 11, 80, 0
13, 192720, Note_on_c, 11, 82, 84
13, 192809, Note_on_c, 11, 82, 0
13, 192840, Note_on_c, 11, 79, 84
13, 192929, Note_on_c, 11, 79, 0
13, 192960, Note_on_c, 11, 80, 84
13, 193139, Note_on_c, 11, 80, 0
13, 193200, Note_on_c, 11, 75, 92
13, 193319, Note_on_c, 11, 75, 0
13, 193320, Note_on_c, 11, 77, 84
13, 193424, Note_on_c, 11, 77, 0
13, 193440, Note_on_c, 11, 78, 84
13, 193529, Note_on_c, 11, 78, 0
13, 193560, Note_on_c, 11, 75, 84
13, 193649, Note_on_c, 11, 75, 0
13, 193680, Note_on_c, 11, 77, 84
13, 193859, Note_on_c, 11, 77, 0
13, 193920, Note_on_c, 11, 72, 92
13, 194039, Note_on_c, 11, 72, 0
13, 194040, Note_on_c, 11, 73, 84
13, 194144, Note_on_c, 11, 73, 0
13, 194160, Note_on_c, 11, 75, 84
13, 194249, Note_on_c, 11, 75, 0
13, 194280, Note_on_c, 11, 72, 84
13, 194369, Note_on_c, 11, 72, 0
13, 194400, Note_on_c, 11, 73, 84
13, 194579, Note_on_c, 11, 73, 0
13, 194640, Note_on_c, 11, 77, 92
13, 194759, Note_on_c, 11, 77, 0
13, 194760, Note_on_c, 11, 78, 84
13, 194864, Note_on_c, 11, 78, 0
13, 194880, Note_on_c, 11, 80, 84
13, 194969, Note_on_c, 11, 80, 0
13, 195000, Note_on_c, 11, 77, 84
13, 195089, Note_on_c, 11, 77, 0
13, 195120, Note_on_c, 11, 80, 84
13, 195299, Note_on_c, 11, 80, 0
13, 195360, Note_on_c, 11, 77, 92
13, 195479, Note_on_c, 11, 77, 0
13, 195480, Note_on_c, 11, 78, 84
13, 195584, Note_on_c, 11, 78, 0
13, 195600, Note_on_c, 11, 80, 84
13, 195689, Note_on_c, 11, 80, 0
13, 195720, Note_on_c, 11, 77, 84
13, 195809, Note_on_c, 11, 77, 0
13, 195840, Note_on_c, 11, 80, 84
13, 196019, Note_on_c, 11, 80, 0
13, 196080, Note_on_c, 11, 77, 92
13, 196199, Note_on_c, 11, 77, 0
13, 196200, Note_on_c, 11, 78, 84
13, 196304, Note_on_c, 11, 78, 0
13, 196320, Note_on_c, 11, 80, 84
13, 196409, Note_on_c, 11, 80, 0
13, 196440, Note_on_c, 11, 77, 84
13, 196529, Note_on_c, 11, 77, 0
13, 196560, Note_on_c, 11, 80, 84
13, 196739, Note_on_c, 11, 80, 0
13, 196800, Note_on_c, 11, 77, 92
13, 196919, Note_on_c, 11, 77, 0
13, 196920, Note_on_c, 11, 78, 84
13, 197024, Note_on_c, 11, 78, 0
13, 197040, Note_on_c, 11, 80, 84
13, 197129, Note_on_c, 11, 80, 0
13, 197160, Note_on_c, 11, 77, 84
13, 197249, Note_on_c, 11, 77, 0
13, 197280, Note_on_c, 11, 85, 84
13, 197459, Note_on_c, 11, 85, 0
13, 197520, Note_on_c, 11, 82, 92
13, 197639, Note_on_c, 11, 82, 0
13, 197640, Note_on_c, 11, 84, 84
13, 197744, Note_on_c, 11, 84, 0
13, 197760, Note_on_c, 11, 85, 84
13, 197849, Note_on_c, 11, 85, 0
13, 197880, Note_on_c, 11, 82, 84
13, 197969, Note_on_c, 11, 82, 0
13, 198000, Note_on_c, 11, 85, 84
13, 198179, Note_on_c, 11, 85, 0
13, 198240, Note_on_c, 11, 82, 92
13, 198359, Note_on_c, 11, 82, 0
13, 198360, Note_on_c, 11, 84, 84
13, 198464, Note_on_c, 11, 84, 0
13, 198480, Note_on_c, 11, 85, 84
13, 198569, Note_on_c, 11, 85, 0
13, 198600, Note_on_c, 11, 82, 84
13, 198689, Note_on_c, 11, 82, 0
13, 198720, Note_on_c, 11, 85, 84
13, 198899, Note_on_c, 11, 85, 0
13, 198960, Note_on_c, 11, 82, 92
13, 199079, Note_on_c, 11, 82, 0
13, 199080, Note_on_c, 11, 84, 84
13, 199184, Note_on_c, 11, 84, 0
13, 199200, Note_on_c, 11, 85, 84
13, 199289, Note_on_c, 11, 85, 0
13, 199320, Note_on_c, 11, 82, 84
13, 199409, Note_on_c, 11, 82, 0
13, 199440, Note_on_c, 11, 85, 84
13, 199619, Note_on_c, 11, 85, 0
13, 199680, Note_on_c, 11, 82, 92
13, 199799, Note_on_c, 11, 82, 0
13, 199800, Note_on_c, 11, 84, 84
13, 199904, Note_on_c, 11, 84, 0
13, 199920, Note_on_c, 11, 85, 84
13, 200009, Note_on_c, 11, 85, 0
13, 200040, Note_on_c, 11, 82, 84
13, 200129, Note_on_c, 11, 82, 0
13, 200160, Note_on_c, 11, 86, 84
13, 200339, Note_on_c, 11, 86, 0
13, 200400, Note_on_c, 11, 83, 92
13, 200519, Note_on_c, 11, 83, 0
13, 200520, Note_on_c, 11, 84, 84
13, 200624, Note_on_c, 11, 84, 0
13, 200640, Note_on_c, 11, 86, 84
13, 200729, Note_on_c, 11, 86, 0
13, 200760, Note_on_c, 11, 83, 84
13, 200849, Note_on_c, 11, 83, 0
13, 200880, Note_on_c, 11, 86, 84
13, 201059, Note_on_c, 11, 86, 0
13, 201120, Note_on_c, 11, 83, 92
13, 201239, Note_on_c, 11, 83, 0
13, 201240, Note_on_c, 11, 84, 84
13, 201344, Note_on_c, 11, 84, 0
13, 201360, Note_on_c, 11, 86, 84
13, 201449, Note_on_c, 11, 86, 0
13, 201480, Note_on_c, 11, 83, 84
13, 201569, Note_on_c, 11, 83, 0
13, 201600, Note_on_c, 11, 86, 84
13, 201779, Note_on_c, 11, 86, 0
13, 201840, Note_on_c, 11, 83, 92
13, 201959, Note_on_c, 11, 83, 0
13, 201960, Note_on_c, 11, 84, 84
13, 202064, Note_on_c, 11, 84, 0
13, 202080, Note_on_c, 11, 86, 84
13, 202169, Note_on_c, 11, 86, 0
13, 202200, Note_on_c, 11, 83, 84
13, 202289, Note_on_c, 11, 83, 0
13, 202320, Note_on_c, 11, 86, 84
13, 202499, Note_on_c, 11, 86, 0
13, 202560, Note_on_c, 11, 83, 92
13, 202679, Note_on_c, 11, 83, 0
13, 202680, Note_on_c, 11, 84, 84
13, 202784, Note_on_c, 11, 84, 0
13, 202800, Note_on_c, 11, 86, 84
13, 202889, Note_on_c, 11, 86, 0
13, 202920, Note_on_c, 11, 83, 84
13, 203009, Note_on_c, 11, 83, 0
13, 203040, Note_on_c, 11, 86, 84
13, 203091, Note_on_c, 11, 86, 0
13, 203100, Note_on_c, 11, 86, 84
13, 203151, Note_on_c, 11, 86, 0
13, 203160, Note_on_c, 11, 83, 84
13, 203211, Note_on_c, 11, 83, 0
13, 203220, Note_on_c, 11, 83, 84
13, 203271, Note_on_c, 11, 83, 0
13, 203280, Note_on_c, 11, 84, 92
13, 203331, Note_on_c, 11, 84, 0
13, 203340, Note_on_c, 11, 84, 84
13, 203391, Note_on_c, 11, 84, 0
13, 203400, Note_on_c, 11, 86, 84
13, 203451, Note_on_c, 11, 86, 0
13, 203460, Note_on_c, 11, 86, 84
13, 203511, Note_on_c, 11, 86, 0
13, 203520, Note_on_c, 11, 83, 84
13, 203571, Note_on_c, 11, 83, 0
13, 203580, Note_on_c, 11, 83, 84
13, 203631, Note_on_c, 11, 83, 0
13, 203640, Note_on_c, 11, 84, 84
13, 203691, Note_on_c, 11, 84, 0
13, 203700, Note_on_c, 11, 84, 84
13, 203751, Note_on_c, 11, 84, 0
13, 203760, Note_on_c, 11, 86, 84
13, 203811, Note_on_c, 11, 86, 0
13, 203820, Note_on_c, 11, 86, 84
13, 203871, Note_on_c, 11, 86, 0
13, 203880, Note_on_c, 11, 83, 84
13, 203931, Note_on_c, 11, 83, 0
13, 203940, Note_on_c, 11, 83, 84
13, 203991, Note_on_c, 11, 83, 0
13, 204000, Note_on_c, 11, 84, 84
13, 204051, Note_on_c, 11, 84, 0
13, 204060, Note_on_c, 11, 84, 84
13, 204111, Note_on_c, 11, 84, 0
13, 204120, Note_on_c, 11, 86, 84
13, 204171, Note_on_c, 11, 86, 0
13, 204180, Note_on_c, 11, 86, 84
13, 204231, Note_on_c, 11, 86, 0
13, 204240, Note_on_c, 11, 83, 84
13, 204291, Note_on_c, 11, 83, 0
13, 204300, Note_on_c, 11, 83, 84
13, 204351, Note_on_c, 11, 83, 0
13, 204360, Note_on_c, 11, 84, 84
13, 204411, Note_on_c, 11, 84, 0
13, 204420, Note_on_c, 11, 84, 84
13, 204471, Note_on_c, 11, 84, 0
13, 204480, Note_on_c, 11, 86, 84
13, 204531, Note_on_c, 11, 86, 0
13, 204540, Note_on_c, 11, 86, 84
13, 204591, Note_on_c, 11, 86, 0
13, 204600, Note_on_c, 11, 83, 84
13, 204651, Note_on_c, 11, 83, 0
13, 204660, Note_on_c, 11, 83, 84
13, 204711, Note_on_c, 11, 83, 0
13, 204720, Note_on_c, 11, 84, 92
13, 204771, Note_on_c, 11, 84, 0
13, 204780, Note_on_c, 11, 84, 84
13, 204831, Note_on_c, 11, 84, 0
13, 204840, Note_on_c, 11, 86, 84
13, 204891, Note_on_c, 11, 86, 0
13, 204900, Note_on_c, 11, 86, 84
13, 204951, Note_on_c, 11, 86, 0
13, 204960, Note_on_c, 11, 83, 84
13, 205011, Note_on_c, 11, 83, 0
13, 205020, Note_on_c, 11, 83, 84
13, 205071, Note_on_c, 11, 83, 0
13, 205080, Note_on_c, 11, 84, 84
13, 205131, Note_on_c, 11, 84, 0
13, 205140, Note_on_c, 11, 84, 84
13, 205191, Note_on_c, 11, 84, 0
13, 205200, Note_on_c, 11, 86, 84
13, 205251, Note_on_c, 11, 86, 0
13, 205260, Note_on_c, 11, 86, 84
13, 205311, Note_on_c, 11, 86, 0
13, 205320, Note_on_c, 11, 83, 84
13, 205371, Note_on_c, 11, 83, 0
13, 205380, Note_on_c, 11, 83, 84
13, 205431, Note_on_c, 11, 83, 0
13, 205440, Note_on_c, 11, 84, 84
13, 205491, Note_on_c, 11, 84, 0
13, 205500, Note_on_c, 11, 84, 84
13, 205551, Note_on_c, 11, 84, 0
13, 205560, Note_on_c, 11, 86, 84
13, 205611, Note_on_c, 11, 86, 0
13, 205620, Note_on_c, 11, 86, 84
13, 205671, Note_on_c, 11, 86, 0
13, 205680, Note_on_c, 11, 83, 84
13, 205731, Note_on_c, 11, 83, 0
13, 205740, Note_on_c, 11, 83, 84
13, 205791, Note_on_c, 11, 83, 0
13, 205800, Note_on_c, 11, 84, 84
13, 205851, Note_on_c, 11, 84, 0
13, 205860, Note_on_c, 11, 84, 84
13, 205911, Note_on_c, 11, 84, 0
13, 205920, Note_on_c, 11, 86, 92
13, 205971, Note_on_c, 11, 86, 0
13, 205980, Note_on_c, 11, 86, 84
13, 206031, Note_on_c, 11, 86, 0
13, 206040, Note_on_c, 11, 86, 84
13, 206091, Note_on_c, 11, 86, 0
13, 206100, Note_on_c, 11, 86, 84
13, 206151, Note_on_c, 11, 86, 0
13, 206160, Note_on_c, 11, 77, 84
13, 206211, Note_on_c, 11, 77, 0
13, 206220, Note_on_c, 11, 77, 84
13, 206271, Note_on_c, 11, 77, 0
13, 206280, Note_on_c, 11, 86, 84
13, 206331, Note_on_c, 11, 86, 0
13, 206340, Note_on_c, 11, 86, 84
13, 206399, Note_on_c, 11, 86, 0
13, 206640, Note_on_c, 11, 87, 92
13, 206691, Note_on_c, 11, 87, 0
13, 206700, Note_on_c, 11, 87, 84
13, 206751, Note_on_c, 11, 87, 0
13, 206760, Note_on_c, 11, 87, 84
13, 206811, Note_on_c, 11, 87, 0
13, 206820, Note_on_c, 11, 87, 84
13, 206871, Note_on_c, 11, 87, 0
13, 206880, Note_on_c, 11, 78, 84
13, 206931, Note_on_c, 11, 78, 0
13, 206940, Note_on_c, 11, 78, 84
13, 206991, Note_on_c, 11, 78, 0
13, 207000, Note_on_c, 11, 87, 84
13, 207051, Note_on_c, 11, 87, 0
13, 207060, Note_on_c, 11, 87, 84
13, 207119, Note_on_c, 11, 87, 0
13, 207360, Note_on_c, 11, 88, 92
13, 207411, Note_on_c, 11, 88, 0
13, 207420, Note_on_c, 11, 88, 84
13, 207471, Note_on_c, 11, 88, 0
13, 207480, Note_on_c, 11, 88, 84
13, 207531, Note_on_c, 11, 88, 0
13, 207540, Note_on_c, 11, 88, 84
13, 207591, Note_on_c, 11, 88, 0
13, 207600, Note_on_c, 11, 79, 84
13, 207651, Note_on_c, 11, 79, 0
13, 207660, Note_on_c, 11, 79, 84
13, 207711, Note_on_c, 11, 79, 0
13, 207720, Note_on_c, 11, 88, 84
13, 207771, Note_on_c, 11, 88, 0
13, 207780, Note_on_c, 11, 88, 84
13, 207839, Note_on_c, 11, 88, 0
13, 208080, Note_on_c, 11, 91, 92
13, 208131, Note_on_c, 11, 91, 0
13, 208140, Note_on_c, 11, 91, 84
13, 208191, Note_on_c, 11, 91, 0
13, 208200, Note_on_c, 11, 91, 84
13, 208251, Note_on_c, 11, 91, 0
13, 208260, Note_on_c, 11, 91, 84
13, 208311, Note_on_c, 11, 91, 0
13, 208320, Note_on_c, 11, 82, 84
13, 208371, Note_on_c, 11, 82, 0
13, 208380, Note_on_c, 11, 82, 84
13, 208431, Note_on_c, 11, 82, 0
13, 208440, Note_on_c, 11, 91, 84
13, 208491, Note_on_c, 11, 91, 0
13, 208500, Note_on_c, 11, 91, 84
13, 208551, Note_on_c, 11, 91, 0
13, 208800, Note_on_c, 11, 91, 88
13, 208851, Note_on_c, 11, 91, 0
13, 208860, Note_on_c, 11, 91, 88
13, 208911, Note_on_c, 11, 91, 0
13, 208920, Note_on_c, 11, 91, 88
13, 208971, Note_on_c, 11, 91, 0
13, 208980, Note_on_c, 11, 91, 88
13, 209031, Note_on_c, 11, 91, 0
13, 209040, Note_on_c, 11, 82, 88
13, 209091, Note_on_c, 11, 82, 0
13, 209100, Note_on_c, 11, 82, 88
13, 209151, Note_on_c, 11, 82, 0
13, 209160, Note_on_c, 11, 91, 88
13, 209211, Note_on_c, 11, 91, 0
13, 209220, Note_on_c, 11, 91, 88
13, 209271, Note_on_c, 11, 91, 0
13, 209280, Note_on_c, 11, 91, 88
13, 209331, Note_on_c, 11, 91, 0
13, 209340, Note_on_c, 11, 91, 88
13, 209391, Note_on_c, 11, 91, 0
13, 209400, Note_on_c, 11, 91, 88
13, 209451, Note_on_c, 11, 91, 0
13, 209460, Note_on_c, 11, 91, 88
13, 209511, Note_on_c, 11, 91, 0
13, 209520, Note_on_c, 11, 91, 88
13, 209571, Note_on_c, 11, 91, 0
13, 209580, Note_on_c, 11, 91, 88
13, 209631, Note_on_c, 11, 91, 0
13, 209640, Note_on_c, 11, 91, 88
13, 209691, Note_on_c, 11, 91, 0
13, 209700, Note_on_c, 11, 91, 88
13, 209751, Note_on_c, 11, 91, 0
13, 209760, Note_on_c, 11, 91, 88
13, 209811, Note_on_c, 11, 91, 0
13, 209820, Note_on_c, 11, 91, 88
13, 209871, Note_on_c, 11, 91, 0
13, 209880, Note_on_c, 11, 91, 88
13, 209931, Note_on_c, 11, 91, 0
13, 209940, Note_on_c, 11, 91, 88
13, 209991, Note_on_c, 11, 91, 0
13, 210000, Note_on_c, 11, 91, 88
13, 210051, Note_on_c, 11, 91, 0
13, 210060, Note_on_c, 11, 91, 88
13, 210111, Note_on_c, 11, 91, 0
13, 210120, Note_on_c, 11, 93, 88
13, 210171, Note_on_c, 11, 93, 0
13, 210180, Note_on_c, 11, 93, 88
13, 210231, Note_on_c, 11, 93, 0
13, 210240, Note_on_c, 11, 93, 92
13, 210291, Note_on_c, 11, 93, 0
13, 210300, Note_on_c, 11, 93, 92
13, 210351, Note_on_c, 11, 93, 0
13, 210360, Note_on_c, 11, 93, 92
13, 210411, Note_on_c, 11, 93, 0
13, 210420, Note_on_c, 11, 93, 92
13, 210471, Note_on_c, 11, 93, 0
13, 210480, Note_on_c, 11, 93, 92
13, 210531, Note_on_c, 11, 93, 0
13, 210540, Note_on_c, 11, 93, 92
13, 210591, Note_on_c, 11, 93, 0
13, 210600, Note_on_c, 11, 93, 92
13, 210651, Note_on_c, 11, 93, 0
13, 210660, Note_on_c, 11, 93, 92
13, 210711, Note_on_c, 11, 93, 0
13, 210720, Note_on_c, 11, 93, 92
13, 210771, Note_on_c, 11, 93, 0
13, 210780, Note_on_c, 11, 93, 92
13, 210831, Note_on_c, 11, 93, 0
13, 210840, Note_on_c, 11, 93, 92
13, 210891, Note_on_c, 11, 93, 0
13, 210900, Note_on_c, 11, 93, 92
13, 210951, Note_on_c, 11, 93, 0
13, 210960, Note_on_c, 11, 93, 92
13, 211011, Note_on_c, 11, 93, 0
13, 211020, Note_on_c, 11, 93, 92
13, 211071, Note_on_c, 11, 93, 0
13, 211080, Note_on_c, 11, 93, 92
13, 211131, Note_on_c, 11, 93, 0
13, 211140, Note_on_c, 11, 93, 92
13, 211191, Note_on_c, 11, 93, 0
13, 211200, Note_on_c, 11, 93, 92
13, 211251, Note_on_c, 11, 93, 0
13, 211260, Note_on_c, 11, 93, 92
13, 211311, Note_on_c, 11, 93, 0
13, 211320, Note_on_c, 11, 93, 92
13, 211371, Note_on_c, 11, 93, 0
13, 211380, Note_on_c, 11, 93, 92
13, 211431, Note_on_c, 11, 93, 0
13, 211440, Note_on_c, 11, 93, 92
13, 211491, Note_on_c, 11, 93, 0
13, 211500, Note_on_c, 11, 93, 92
13, 211551, Note_on_c, 11, 93, 0
13, 211560, Note_on_c, 11, 93, 92
13, 211611, Note_on_c, 11, 93, 0
13, 211620, Note_on_c, 11, 93, 92
13, 211671, Note_on_c, 11, 93, 0
13, 211680, Note_on_c, 11, 91, 92
13, 211731, Note_on_c, 11, 91, 0
13, 211740, Note_on_c, 11, 91, 92
13, 211791, Note_on_c, 11, 91, 0
13, 211800, Note_on_c, 11, 91, 92
13, 211851, Note_on_c, 11, 91, 0
13, 211860, Note_on_c, 11, 91, 92
13, 211911, Note_on_c, 11, 91, 0
13, 211920, Note_on_c, 11, 91, 92
13, 211971, Note_on_c, 11, 91, 0
13, 211980, Note_on_c, 11, 91, 92
13, 212031, Note_on_c, 11, 91, 0
13, 212040, Note_on_c, 11, 91, 92
13, 212091, Note_on_c, 11, 91, 0
13, 212100, Note_on_c, 11, 91, 92
13, 212151, Note_on_c, 11, 91, 0
13, 212160, Note_on_c, 11, 89, 92
13, 212211, Note_on_c, 11, 89, 0
13, 212220, Note_on_c, 11, 89, 92
13, 212271, Note_on_c, 11, 89, 0
13, 212280, Note_on_c, 11, 89, 92
13, 212331, Note_on_c, 11, 89, 0
13, 212340, Note_on_c, 11, 89, 92
13, 212391, Note_on_c, 11, 89, 0
13, 212400, Note_on_c, 11, 88, 92
13, 212451, Note_on_c, 11, 88, 0
13, 212460, Note_on_c, 11, 88, 92
13, 212511, Note_on_c, 11, 88, 0
13, 212520, Note_on_c, 11, 88, 92
13, 212571, Note_on_c, 11, 88, 0
13, 212580, Note_on_c, 11, 88, 92
13, 212631, Note_on_c, 11, 88, 0
13, 212640, Note_on_c, 11, 88, 92
13, 212691, Note_on_c, 11, 88, 0
13, 212700, Note_on_c, 11, 88, 92
13, 212751, Note_on_c, 11, 88, 0
13, 212760, Note_on_c, 11, 88, 92
13, 212811, Note_on_c, 11, 88, 0
13, 212820, Note_on_c, 11, 88, 92
13, 212871, Note_on_c, 11, 88, 0
13, 212880, Note_on_c, 11, 88, 92
13, 212931, Note_on_c, 11, 88, 0
13, 212940, Note_on_c, 11, 88, 92
13, 212991, Note_on_c, 11, 88, 0
13, 213000, Note_on_c, 11, 88, 92
13, 213051, Note_on_c, 11, 88, 0
13, 213060, Note_on_c, 11, 88, 92
13, 213111, Note_on_c, 11, 88, 0
13, 213120, Note_on_c, 11, 91, 92
13, 213171, Note_on_c, 11, 91, 0
13, 213180, Note_on_c, 11, 91, 92
13, 213231, Note_on_c, 11, 91, 0
13, 213240, Note_on_c, 11, 91, 92
13, 213291, Note_on_c, 11, 91, 0
13, 213300, Note_on_c, 11, 91, 92
13, 213351, Note_on_c, 11, 91, 0
13, 213360, Note_on_c, 11, 91, 92
13, 213411, Note_on_c, 11, 91, 0
13, 213420, Note_on_c, 11, 91, 92
13, 213471, Note_on_c, 11, 91, 0
13, 213480, Note_on_c, 11, 91, 92
13, 213531, Note_on_c, 11, 91, 0
13, 213540, Note_on_c, 11, 91, 92
13, 213591, Note_on_c, 11, 91, 0
13, 213600, Note_on_c, 11, 91, 92
13, 213651, Note_on_c, 11, 91, 0
13, 213660, Note_on_c, 11, 91, 92
13, 213711, Note_on_c, 11, 91, 0
13, 213720, Note_on_c, 11, 91, 92
13, 213771, Note_on_c, 11, 91, 0
13, 213780, Note_on_c, 11, 91, 92
13, 213831, Note_on_c, 11, 91, 0
13, 213840, Note_on_c, 11, 91, 92
13, 213891, Note_on_c, 11, 91, 0
13, 213900, Note_on_c, 11, 91, 92
13, 213951, Note_on_c, 11, 91, 0
13, 213960, Note_on_c, 11, 91, 92
13, 214011, Note_on_c, 11, 91, 0
13, 214020, Note_on_c, 11, 91, 92
13, 214071, Note_on_c, 11, 91, 0
13, 214080, Note_on_c, 11, 91, 92
13, 214131, Note_on_c, 11, 91, 0
13, 214140, Note_on_c, 11, 91, 92
13, 214191, Note_on_c, 11, 91, 0
13, 214200, Note_on_c, 11, 91, 92
13, 214251, Note_on_c, 11, 91, 0
13, 214260, Note_on_c, 11, 91, 92
13, 214311, Note_on_c, 11, 91, 0
13, 214320, Note_on_c, 11, 91, 92
13, 214371, Note_on_c, 11, 91, 0
13, 214380, Note_on_c, 11, 91, 92
13, 214431, Note_on_c, 11, 91, 0
13, 214440, Note_on_c, 11, 91, 92
13, 214491, Note_on_c, 11, 91, 0
13, 214500, Note_on_c, 11, 91, 92
13, 214551, Note_on_c, 11, 91, 0
13, 214560, Note_on_c, 11, 93, 92
13, 214611, Note_on_c, 11, 93, 0
13, 214620, Note_on_c, 11, 93, 92
13, 214671, Note_on_c, 11, 93, 0
13, 214680, Note_on_c, 11, 93, 92
13, 214731, Note_on_c, 11, 93, 0
13, 214740, Note_on_c, 11, 93, 92
13, 214791, Note_on_c, 11, 93, 0
13, 214800, Note_on_c, 11, 93, 92
13, 214851, Note_on_c, 11, 93, 0
13, 214860, Note_on_c, 11, 93, 92
13, 214911, Note_on_c, 11, 93, 0
13, 214920, Note_on_c, 11, 93, 92
13, 214971, Note_on_c, 11, 93, 0
13, 214980, Note_on_c, 11, 93, 92
13, 215031, Note_on_c, 11, 93, 0
13, 215040, Note_on_c, 11, 91, 92
13, 215091, Note_on_c, 11, 91, 0
13, 215100, Note_on_c, 11, 91, 92
13, 215151, Note_on_c, 11, 91, 0
13, 215160, Note_on_c, 11, 91, 92
13, 215211, Note_on_c, 11, 91, 0
13, 215220, Note_on_c, 11, 91, 92
13, 215271, Note_on_c, 11, 91, 0
13, 215280, Note_on_c, 11, 93, 92
13, 215399, Note_on_c, 11, 93, 0
13, 218160, Note_on_c, 11, 72, 76
13, 218211, Note_on_c, 11, 72, 0
13, 218220, Note_on_c, 11, 72, 76
13, 218271, Note_on_c, 11, 72, 0
13, 218280, Note_on_c, 11, 74, 76
13, 218331, Note_on_c, 11, 74, 0
13, 218340, Note_on_c, 11, 74, 76
13, 218391, Note_on_c, 11, 74, 0
13, 218400, Note_on_c, 11, 76, 76
13, 218451, Note_on_c, 11, 76, 0
13, 218460, Note_on_c, 11, 76, 76
13, 218511, Note_on_c, 11, 76, 0
13, 218520, Note_on_c, 11, 77, 76
13, 218571, Note_on_c, 11, 77, 0
13, 218580, Note_on_c, 11, 77, 76
13, 218631, Note_on_c, 11, 77, 0
13, 218640, Note_on_c, 11, 79, 76
13, 218691, Note_on_c, 11, 79, 0
13, 218700, Note_on_c, 11, 79, 76
13, 218751, Note_on_c, 11, 79, 0
13, 218760, Note_on_c, 11, 81, 76
13, 218811, Note_on_c, 11, 81, 0
13, 218820, Note_on_c, 11, 81, 76
13, 218871, Note_on_c, 11, 81, 0
13, 218880, Note_on_c, 11, 82, 52
13, 218880, Note_on_c, 11, 64, 52
13, 218880, Note_on_c, 11, 72, 52
13, 218999, Note_on_c, 11, 82, 0
13, 218999, Note_on_c, 11, 64, 0
13, 218999, Note_on_c, 11, 72, 0
13, 223380, Control_c, 11, 11, 115
13, 223440, Note_on_c, 11, 72, 76
13, 223560, Control_c, 11, 11, 119
13, 223649, Note_on_c, 11, 72, 0
13, 223650, Note_on_c, 11, 74, 76
13, 223679, Note_on_c, 11, 74, 0
13, 223680, Note_on_c, 11, 72, 76
13, 223740, Control_c, 11, 11, 123
13, 223799, Note_on_c, 11, 72, 0
13, 223800, Note_on_c, 11, 70, 76
13, 223904, Note_on_c, 11, 70, 0
13, 223920, Control_c, 11, 11, 127
13, 223920, Note_on_c, 11, 69, 76
13, 224160, Note_on_c, 11, 81, 84
13, 224369, Note_on_c, 11, 81, 0
13, 224370, Note_on_c, 11, 81, 76
13, 224384, Note_on_c, 11, 69, 0
13, 224399, Note_on_c, 11, 81, 0
13, 224400, Note_on_c, 11, 79, 76
13, 224519, Note_on_c, 11, 79, 0
13, 224520, Note_on_c, 11, 77, 76
13, 224624, Note_on_c, 11, 77, 0
13, 224640, Note_on_c, 11, 77, 76
13, 225599, Note_on_c, 11, 77, 0
13, 225600, Note_on_c, 11, 82, 84
13, 225809, Note_on_c, 11, 82, 0
13, 225810, Note_on_c, 11, 81, 76
13, 225839, Note_on_c, 11, 81, 0
13, 225840, Note_on_c, 11, 79, 76
13, 225959, Note_on_c, 11, 79, 0
13, 225960, Note_on_c, 11, 77, 76
13, 226064, Note_on_c, 11, 77, 0
13, 226080, Note_on_c, 11, 77, 76
13, 227039, Note_on_c, 11, 77, 0
13, 227040, Note_on_c, 11, 86, 84
13, 227234, Note_on_c, 11, 86, 0
13, 227250, Note_on_c, 11, 81, 76
13, 227279, Note_on_c, 11, 81, 0
13, 227280, Note_on_c, 11, 79, 76
13, 227399, Note_on_c, 11, 79, 0
13, 227400, Note_on_c, 11, 77, 76
13, 227759, Note_on_c, 11, 77, 0
13, 227760, Note_on_c, 11, 83, 76
13, 227954, Note_on_c, 11, 83, 0
13, 227970, Note_on_c, 11, 81, 76
13, 227999, Note_on_c, 11, 81, 0
13, 228000, Note_on_c, 11, 79, 76
13, 228119, Note_on_c, 11, 79, 0
13, 228120, Note_on_c, 11, 77, 76
13, 228224, Note_on_c, 11, 77, 0
13, 228240, Note_on_c, 11, 79, 76
13, 228479, Note_on_c, 11, 79, 0
13, 228480, Note_on_c, 11, 84, 76
13, 228674, Note_on_c, 11, 84, 0
13, 228690, Note_on_c, 11, 79, 76
13, 228719, Note_on_c, 11, 79, 0
13, 228720, Note_on_c, 11, 77, 76
13, 228839, Note_on_c, 11, 77, 0
13, 228840, Note_on_c, 11, 76, 76
13, 228944, Note_on_c, 11, 76, 0
13, 228960, Note_on_c, 11, 76, 76
13, 229199, Note_on_c, 11, 76, 0
13, 229200, Note_on_c, 11, 79, 76
13, 229394, Note_on_c, 11, 79, 0
13, 229410, Note_on_c, 11, 79, 76
13, 229439, Note_on_c, 11, 79, 0
13, 229440, Note_on_c, 11, 77, 76
13, 229559, Note_on_c, 11, 77, 0
13, 229620, Note_on_c, 11, 76, 76
13, 229671, Note_on_c, 11, 76, 0
13, 229680, Note_on_c, 11, 77, 84
13, 230384, Note_on_c, 11, 77, 0
13, 230400, Note_on_c, 11, 81, 92
13, 231044, Note_on_c, 11, 81, 0
13, 231060, Note_on_c, 11, 77, 84
13, 231111, Note_on_c, 11, 77, 0
13, 231120, Note_on_c, 11, 77, 84
13, 231824, Note_on_c, 11, 77, 0
13, 231840, Note_on_c, 11, 83, 92
13, 232484, Note_on_c, 11, 83, 0
13, 232500, Note_on_c, 11, 77, 84
13, 232551, Note_on_c, 11, 77, 0
13, 232560, Note_on_c, 11, 77, 84
13, 233264, Note_on_c, 11, 77, 0
13, 233280, Note_on_c, 11, 86, 92
13, 233924, Note_on_c, 11, 86, 0
13, 233940, Note_on_c, 11, 77, 84
13, 233991, Note_on_c, 11, 77, 0
13, 234000, Note_on_c, 11, 77, 84
13, 234704, Note_on_c, 11, 77, 0
13, 234720, Note_on_c, 11, 86, 92
13, 235364, Note_on_c, 11, 86, 0
13, 235380, Note_on_c, 11, 77, 84
13, 235431, Note_on_c, 11, 77, 0
13, 235440, Note_on_c, 11, 77, 84
13, 235904, Note_on_c, 11, 77, 0
13, 235920, Note_on_c, 11, 86, 92
13, 236084, Note_on_c, 11, 86, 0
13, 236100, Note_on_c, 11, 77, 84
13, 236151, Note_on_c, 11, 77, 0
13, 236160, Note_on_c, 11, 77, 84
13, 236624, Note_on_c, 11, 77, 0
13, 236640, Note_on_c, 11, 86, 92
13, 236804, Note_on_c, 11, 86, 0
13, 236820, Note_on_c, 11, 77, 84
13, 236871, Note_on_c, 11, 77, 0
13, 236880, Note_on_c, 11, 77, 84
13, 236999, Note_on_c, 11, 77, 0
13, 237360, Note_on_c, 11, 86, 92
13, 237479, Note_on_c, 11, 86, 0
13, 237600, Note_on_c, 11, 77, 84
13, 237719, Note_on_c, 11, 77, 0
13, 238080, Note_on_c, 11, 86, 92
13, 238199, Note_on_c, 11, 86, 0
13, 238320, Note_on_c, 11, 77, 84
13, 238439, Note_on_c, 11, 77, 0
13, 239760, Note_on_c, 11, 64, 52
13, 239879, Note_on_c, 11, 64, 0
13, 240240, Note_on_c, 11, 73, 52
13, 240359, Note_on_c, 11, 73, 0
13, 240480, Note_on_c, 11, 64, 52
13, 240599, Note_on_c, 11, 64, 0
13, 240960, Note_on_c, 11, 72, 52
13, 241079, Note_on_c, 11, 72, 0
13, 241200, Note_on_c, 11, 63, 52
13, 241379, Note_on_c, 11, 63, 0
13, 242400, Note_on_c, 11, 65, 48
13, 242451, Note_on_c, 11, 65, 0
13, 242520, Note_on_c, 11, 65, 48
13, 242759, Note_on_c, 11, 65, 0
13, 242760, Note_on_c, 11, 67, 48
13, 242879, Note_on_c, 11, 67, 0
13, 242880, Note_on_c, 11, 69, 48
13, 242999, Note_on_c, 11, 69, 0
13, 243000, Note_on_c, 11, 70, 48
13, 243104, Note_on_c, 11, 70, 0
13, 243120, Note_on_c, 11, 65, 48
13, 243209, Note_on_c, 11, 65, 0
13, 243240, Note_on_c, 11, 65, 48
13, 243479, Note_on_c, 11, 65, 0
13, 243480, Note_on_c, 11, 69, 48
13, 243599, Note_on_c, 11, 69, 0
13, 243600, Note_on_c, 11, 70, 48
13, 243719, Note_on_c, 11, 70, 0
13, 243720, Note_on_c, 11, 72, 48
13, 243824, Note_on_c, 11, 72, 0
13, 243840, Note_on_c, 11, 65, 48
13, 243929, Note_on_c, 11, 65, 0
13, 243960, Note_on_c, 11, 65, 48
13, 244199, Note_on_c, 11, 65, 0
13, 244200, Note_on_c, 11, 70, 48
13, 244319, Note_on_c, 11, 70, 0
13, 244320, Note_on_c, 11, 72, 48
13, 244439, Note_on_c, 11, 72, 0
13, 244440, Note_on_c, 11, 74, 48
13, 244559, Note_on_c, 11, 74, 0
13, 244560, Note_on_c, 11, 75, 48
13, 244679, Note_on_c, 11, 75, 0
13, 244680, Note_on_c, 11, 74, 48
13, 244784, Note_on_c, 11, 74, 0
13, 244800, Note_on_c, 11, 72, 48
13, 245024, Note_on_c, 11, 72, 0
13, 245040, Note_on_c, 11, 77, 48
13, 245639, Note_on_c, 11, 77, 0
13, 245640, Note_on_c, 11, 76, 48
13, 245759, Note_on_c, 11, 76, 0
13, 245760, Note_on_c, 11, 72, 48
13, 245879, Note_on_c, 11, 72, 0
13, 245880, Note_on_c, 11, 74, 48
13, 245984, Note_on_c, 11, 74, 0
13, 246000, Note_on_c, 11, 75, 48
13, 246359, Note_on_c, 11, 75, 0
13, 246360, Note_on_c, 11, 74, 48
13, 246479, Note_on_c, 11, 74, 0
13, 246480, Note_on_c, 11, 70, 48
13, 246599, Note_on_c, 11, 70, 0
13, 246600, Note_on_c, 11, 72, 48
13, 246704, Note_on_c, 11, 72, 0
13, 246720, Note_on_c, 11, 73, 48
13, 246959, Note_on_c, 11, 73, 0
13, 247080, Note_on_c, 11, 67, 48
13, 247199, Note_on_c, 11, 67, 0
13, 247200, Note_on_c, 11, 69, 48
13, 247319, Note_on_c, 11, 69, 0
13, 247320, Note_on_c, 11, 70, 48
13, 247439, Note_on_c, 11, 70, 0
13, 247440, Note_on_c, 11, 64, 48
13, 247559, Note_on_c, 11, 64, 0
13, 247560, Note_on_c, 11, 65, 48
13, 247679, Note_on_c, 11, 65, 0
13, 247680, Note_on_c, 11, 67, 48
13, 247799, Note_on_c, 11, 67, 0
13, 247800, Note_on_c, 11, 60, 48
13, 247919, Note_on_c, 11, 60, 0
13, 247920, Note_on_c, 11, 64, 48
13, 248039, Note_on_c, 11, 64, 0
13, 248040, Note_on_c, 11, 67, 48
13, 248159, Note_on_c, 11, 67, 0
13, 248160, Note_on_c, 11, 72, 48
13, 248279, Note_on_c, 11, 72, 0
13, 248280, Note_on_c, 11, 70, 48
13, 248384, Note_on_c, 11, 70, 0
13, 248400, Note_on_c, 11, 69, 48
13, 248639, Note_on_c, 11, 69, 0
13, 248640, Program_c, 11, 45
13, 248880, Note_on_c, 11, 72, 44
13, 249119, Note_on_c, 11, 72, 0
13, 249120, Note_on_c, 11, 64, 44
13, 249359, Note_on_c, 11, 64, 0
13, 249360, Note_on_c, 11, 67, 44
13, 249599, Note_on_c, 11, 67, 0
13, 249600, Note_on_c, 11, 72, 44
13, 249839, Note_on_c, 11, 72, 0
13, 249840, Note_on_c, 11, 65, 44
13, 250079, Note_on_c, 11, 65, 0
13, 250080, Note_on_c, 11, 72, 44
13, 250319, Note_on_c, 11, 72, 0
13, 250320, Note_on_c, 11, 72, 44
13, 250559, Note_on_c, 11, 72, 0
13, 250560, Note_on_c, 11, 72, 44
13, 250799, Note_on_c, 11, 72, 0
13, 250800, Note_on_c, 11, 72, 44
13, 251039, Note_on_c, 11, 72, 0
13, 251040, Note_on_c, 11, 69, 44
13, 251279, Note_on_c, 11, 69, 0
13, 251280, Note_on_c, 11, 66, 44
13, 251519, Note_on_c, 11, 66, 0
13, 251520, Note_on_c, 11, 70, 44
13, 251759, Note_on_c, 11, 70, 0
13, 251760, Note_on_c, 11, 67, 44
13, 251999, Note_on_c, 11, 67, 0
13, 252000, Note_on_c, 11, 64, 44
13, 252239, Note_on_c, 11, 64, 0
13, 252240, Note_on_c, 11, 69, 44
13, 252479, Note_on_c, 11, 69, 0
13, 252480, Note_on_c, 11, 68, 44
13, 252719, Note_on_c, 11, 68, 0
13, 252720, Program_c, 11, 48
13, 253440, Note_on_c, 11, 62, 44
13, 253529, Note_on_c, 11, 62, 0
13, 253560, Note_on_c, 11, 65, 44
13, 253649, Note_on_c, 11, 65, 0
13, 253680, Note_on_c, 11, 68, 44
13, 253769, Note_on_c, 11, 68, 0
13, 253800, Note_on_c, 11, 71, 44
13, 253889, Note_on_c, 11, 71, 0
13, 253920, Note_on_c, 11, 74, 44
13, 254009, Note_on_c, 11, 74, 0
13, 254040, Note_on_c, 11, 77, 44
13, 254129, Note_on_c, 11, 77, 0
13, 254160, Note_on_c, 11, 80, 44
13, 254339, Note_on_c, 11, 80, 0
13, 254640, Note_on_c, 11, 77, 44
13, 254819, Note_on_c, 11, 77, 0
13, 254880, Note_on_c, 11, 74, 44
13, 255059, Note_on_c, 11, 74, 0
13, 256080, Control_c, 11, 11, 48
13, 256320, Note_on_c, 11, 62, 84
13, 256409, Note_on_c, 11, 62, 0
13, 256440, Note_on_c, 11, 65, 84
13, 256529, Note_on_c, 11, 65, 0
13, 256560, Note_on_c, 11, 68, 84
13, 256649, Note_on_c, 11, 68, 0
13, 256680, Note_on_c, 11, 71, 84
13, 256769, Note_on_c, 11, 71, 0
13, 256800, Note_on_c, 11, 74, 84
13, 256889, Note_on_c, 11, 74, 0
13, 256920, Note_on_c, 11, 77, 84
13, 257009, Note_on_c, 11, 77, 0
13, 257040, Note_on_c, 11, 80, 84
13, 257040, Control_c, 11, 11, 48
13, 257219, Note_on_c, 11, 80, 0
13, 257280, Control_c, 11, 11, 51
13, 257520, Note_on_c, 11, 77, 84
13, 257520, Control_c, 11, 11, 55
13, 257699, Note_on_c, 11, 77, 0
13, 257760, Note_on_c, 11, 74, 84
13, 257760, Control_c, 11, 11, 58
13, 257939, Note_on_c, 11, 74, 0
13, 258000, Control_c, 11, 11, 61
13, 258240, Control_c, 11, 11, 64
13, 258480, Control_c, 11, 11, 68
13, 258480, Note_on_c, 11, 82, 92
13, 258659, Note_on_c, 11, 82, 0
13, 258720, Control_c, 11, 11, 71
13, 258960, Note_on_c, 11, 79, 84
13, 258960, Control_c, 11, 11, 74
13, 259139, Note_on_c, 11, 79, 0
13, 259200, Control_c, 11, 11, 78
13, 259200, Note_on_c, 11, 76, 84
13, 259379, Note_on_c, 11, 76, 0
13, 259440, Control_c, 11, 11, 81
13, 259680, Control_c, 11, 11, 84
13, 259920, Control_c, 11, 11, 88
13, 259920, Note_on_c, 11, 84, 92
13, 260099, Note_on_c, 11, 84, 0
13, 260160, Control_c, 11, 11, 91
13, 260400, Control_c, 11, 11, 94
13, 260400, Note_on_c, 11, 81, 84
13, 260579, Note_on_c, 11, 81, 0
13, 260640, Control_c, 11, 11, 97
13, 260640, Note_on_c, 11, 85, 92
13, 260819, Note_on_c, 11, 85, 0
13, 260880, Control_c, 11, 11, 101
13, 261120, Control_c, 11, 11, 104
13, 261120, Note_on_c, 11, 82, 84
13, 261299, Note_on_c, 11, 82, 0
13, 261360, Note_on_c, 11, 86, 92
13, 261360, Control_c, 11, 11, 107
13, 261539, Note_on_c, 11, 86, 0
13, 261600, Control_c, 11, 11, 111
13, 261840, Note_on_c, 11, 83, 84
13, 261840, Control_c, 11, 11, 114
13, 262019, Note_on_c, 11, 83, 0
13, 262080, Control_c, 11, 11, 117
13, 262080, Note_on_c, 11, 88, 92
13, 262259, Note_on_c, 11, 88, 0
13, 262320, Control_c, 11, 11, 120
13, 262560, Control_c, 11, 11, 124
13, 262560, Note_on_c, 11, 84, 84
13, 262739, Note_on_c, 11, 84, 0
13, 262800, Control_c, 11, 11, 127
13, 262800, Note_on_c, 11, 88, 84
13, 262979, Note_on_c, 11, 88, 0
13, 263280, Note_on_c, 11, 84, 84
13, 263459, Note_on_c, 11, 84, 0
13, 263520, Note_on_c, 11, 89, 84
13, 263699, Note_on_c, 11, 89, 0
13, 264000, Note_on_c, 11, 86, 84
13, 264179, Note_on_c, 11, 86, 0
13, 264240, Note_on_c, 11, 82, 84
13, 264419, Note_on_c, 11, 82, 0
13, 264720, Note_on_c, 11, 79, 84
13, 264899, Note_on_c, 11, 79, 0
13, 264960, Note_on_c, 11, 84, 84
13, 265139, Note_on_c, 11, 84, 0
13, 265440, Note_on_c, 11, 72, 84
13, 265619, Note_on_c, 11, 72, 0
13, 265680, Note_on_c, 11, 81, 84
13, 265851, Note_on_c, 11, 81, 0
13, 265860, Note_on_c, 11, 81, 84
13, 265911, Note_on_c, 11, 81, 0
13, 265920, Note_on_c, 11, 79, 84
13, 266099, Note_on_c, 11, 79, 0
13, 266160, Note_on_c, 11, 82, 84
13, 266331, Note_on_c, 11, 82, 0
13, 266340, Note_on_c, 11, 82, 84
13, 266391, Note_on_c, 11, 82, 0
13, 266400, Note_on_c, 11, 81, 84
13, 266579, Note_on_c, 11, 81, 0
13, 266640, Note_on_c, 11, 86, 84
13, 266811, Note_on_c, 11, 86, 0
13, 266820, Note_on_c, 11, 86, 84
13, 266871, Note_on_c, 11, 86, 0
13, 266880, Note_on_c, 11, 84, 84
13, 267059, Note_on_c, 11, 84, 0
13, 267120, Note_on_c, 11, 86, 84
13, 267291, Note_on_c, 11, 86, 0
13, 267300, Note_on_c, 11, 86, 84
13, 267351, Note_on_c, 11, 86, 0
13, 267360, Note_on_c, 11, 84, 84
13, 267539, Note_on_c, 11, 84, 0
13, 268680, Note_on_c, 11, 82, 52
13, 268799, Note_on_c, 11, 82, 0
13, 268800, Note_on_c, 11, 77, 52
13, 268919, Note_on_c, 11, 77, 0
13, 268920, Note_on_c, 11, 79, 52
13, 269039, Note_on_c, 11, 79, 0
13, 269040, Note_on_c, 11, 81, 52
13, 269159, Note_on_c, 11, 81, 0
13, 269160, Note_on_c, 11, 77, 52
13, 269279, Note_on_c, 11, 77, 0
13, 269400, Note_on_c, 11, 79, 52
13, 269519, Note_on_c, 11, 79, 0
13, 269520, Note_on_c, 11, 74, 52
13, 269639, Note_on_c, 11, 74, 0
13, 269640, Note_on_c, 11, 76, 52
13, 269759, Note_on_c, 11, 76, 0
13, 269760, Note_on_c, 11, 77, 52
13, 269879, Note_on_c, 11, 77, 0
13, 269880, Note_on_c, 11, 72, 52
13, 269999, Note_on_c, 11, 72, 0
13, 270240, Note_on_c, 11, 76, 52
13, 270479, Note_on_c, 11, 76, 0
13, 270480, Note_on_c, 11, 77, 52
13, 270719, Note_on_c, 11, 77, 0
13, 270960, Note_on_c, 11, 79, 52
13, 271199, Note_on_c, 11, 79, 0
13, 271200, Note_on_c, 11, 81, 52
13, 271439, Note_on_c, 11, 81, 0
13, 271560, Note_on_c, 11, 82, 52
13, 271679, Note_on_c, 11, 82, 0
13, 271680, Note_on_c, 11, 81, 52
13, 271799, Note_on_c, 11, 81, 0
13, 271800, Note_on_c, 11, 82, 52
13, 271919, Note_on_c, 11, 82, 0
13, 271920, Note_on_c, 11, 84, 52
13, 272039, Note_on_c, 11, 84, 0
13, 272040, Note_on_c, 11, 86, 52
13, 272159, Note_on_c, 11, 86, 0
13, 272280, Note_on_c, 11, 86, 52
13, 272399, Note_on_c, 11, 86, 0
13, 272400, Note_on_c, 11, 83, 52
13, 272519, Note_on_c, 11, 83, 0
13, 272520, Note_on_c, 11, 84, 52
13, 272639, Note_on_c, 11, 84, 0
13, 272640, Note_on_c, 11, 86, 52
13, 272759, Note_on_c, 11, 86, 0
13, 272760, Note_on_c, 11, 84, 52
13, 272864, Note_on_c, 11, 84, 0
13, 272880, Note_on_c, 11, 81, 84
13, 273051, Note_on_c, 11, 81, 0
13, 273060, Note_on_c, 11, 81, 84
13, 273111, Note_on_c, 11, 81, 0
13, 273120, Note_on_c, 11, 79, 84
13, 273299, Note_on_c, 11, 79, 0
13, 273360, Note_on_c, 11, 82, 84
13, 273531, Note_on_c, 11, 82, 0
13, 273540, Note_on_c, 11, 82, 84
13, 273591, Note_on_c, 11, 82, 0
13, 273600, Note_on_c, 11, 81, 84
13, 273779, Note_on_c, 11, 81, 0
13, 273840, Note_on_c, 11, 86, 84
13, 274011, Note_on_c, 11, 86, 0
13, 274020, Note_on_c, 11, 86, 84
13, 274071, Note_on_c, 11, 86, 0
13, 274080, Note_on_c, 11, 84, 84
13, 274259, Note_on_c, 11, 84, 0
13, 274320, Note_on_c, 11, 86, 84
13, 274491, Note_on_c, 11, 86, 0
13, 274500, Note_on_c, 11, 86, 84
13, 274551, Note_on_c, 11, 86, 0
13, 274560, Note_on_c, 11, 84, 84
13, 274739, Note_on_c, 11, 84, 0
13, 275520, Note_on_c, 11, 69, 52
13, 275759, Note_on_c, 11, 69, 0
13, 275760, Note_on_c, 11, 67, 52
13, 275984, Note_on_c, 11, 67, 0
13, 276000, Note_on_c, 11, 67, 52
13, 276239, Note_on_c, 11, 67, 0
13, 276240, Note_on_c, 11, 69, 52
13, 276479, Note_on_c, 11, 69, 0
13, 276720, Note_on_c, 11, 79, 52
13, 276959, Note_on_c, 11, 79, 0
13, 276960, Note_on_c, 11, 81, 52
13, 277199, Note_on_c, 11, 81, 0
13, 277320, Note_on_c, 11, 82, 52
13, 277439, Note_on_c, 11, 82, 0
13, 277440, Note_on_c, 11, 77, 52
13, 277559, Note_on_c, 11, 77, 0
13, 277560, Note_on_c, 11, 79, 52
13, 277679, Note_on_c, 11, 79, 0
13, 277680, Note_on_c, 11, 81, 52
13, 277799, Note_on_c, 11, 81, 0
13, 277800, Note_on_c, 11, 77, 52
13, 277919, Note_on_c, 11, 77, 0
13, 278040, Note_on_c, 11, 79, 52
13, 278159, Note_on_c, 11, 79, 0
13, 278160, Note_on_c, 11, 74, 52
13, 278279, Note_on_c, 11, 74, 0
13, 278280, Note_on_c, 11, 76, 52
13, 278399, Note_on_c, 11, 76, 0
13, 278400, Note_on_c, 11, 77, 52
13, 278519, Note_on_c, 11, 77, 0
13, 278520, Note_on_c, 11, 72, 52
13, 278639, Note_on_c, 11, 72, 0
13, 278760, Note_on_c, 11, 74, 52
13, 278879, Note_on_c, 11, 74, 0
13, 278880, Note_on_c, 11, 69, 52
13, 278999, Note_on_c, 11, 69, 0
13, 279000, Note_on_c, 11, 70, 52
13, 279119, Note_on_c, 11, 70, 0
13, 279120, Note_on_c, 11, 72, 52
13, 279239, Note_on_c, 11, 72, 0
13, 279240, Note_on_c, 11, 74, 52
13, 279359, Note_on_c, 11, 74, 0
13, 279360, Control_c, 11, 11, 80
13, 279480, Note_on_c, 11, 74, 76
13, 279599, Note_on_c, 11, 74, 0
13, 279600, Note_on_c, 11, 71, 76
13, 279719, Note_on_c, 11, 71, 0
13, 279720, Note_on_c, 11, 72, 76
13, 279839, Note_on_c, 11, 72, 0
13, 279840, Note_on_c, 11, 74, 76
13, 279959, Note_on_c, 11, 74, 0
13, 279960, Note_on_c, 11, 76, 76
13, 280064, Note_on_c, 11, 76, 0
13, 280080, Note_on_c, 11, 77, 76
13, 280304, Note_on_c, 11, 77, 0
13, 280320, Control_c, 11, 11, 80
13, 280320, Note_on_c, 11, 69, 76
13, 280420, Control_c, 11, 11, 84
13, 280520, Control_c, 11, 11, 88
13, 280620, Control_c, 11, 11, 92
13, 280679, Note_on_c, 11, 69, 0
13, 280680, Note_on_c, 11, 70, 76
13, 280720, Control_c, 11, 11, 96
13, 280784, Note_on_c, 11, 70, 0
13, 280800, Note_on_c, 11, 67, 76
13, 280820, Control_c, 11, 11, 100
13, 280920, Control_c, 11, 11, 104
13, 280979, Note_on_c, 11, 67, 0
13, 281020, Control_c, 11, 11, 107
13, 281040, Note_on_c, 11, 70, 76
13, 281120, Control_c, 11, 11, 111
13, 281220, Control_c, 11, 11, 115
13, 281320, Control_c, 11, 11, 119
13, 281399, Note_on_c, 11, 70, 0
13, 281400, Note_on_c, 11, 72, 76
13, 281420, Control_c, 11, 11, 123
13, 281504, Note_on_c, 11, 72, 0
13, 281520, Control_c, 11, 11, 127
13, 281520, Note_on_c, 11, 69, 76
13, 281699, Note_on_c, 11, 69, 0
13, 281760, Note_on_c, 11, 81, 84
13, 282119, Note_on_c, 11, 81, 0
13, 282120, Note_on_c, 11, 77, 76
13, 282224, Note_on_c, 11, 77, 0
13, 282240, Note_on_c, 11, 76, 84
13, 282291, Note_on_c, 11, 76, 0
13, 282300, Note_on_c, 11, 76, 76
13, 282351, Note_on_c, 11, 76, 0
13, 282360, Note_on_c, 11, 82, 76
13, 282411, Note_on_c, 11, 82, 0
13, 282420, Note_on_c, 11, 82, 76
13, 282471, Note_on_c, 11, 82, 0
13, 282480, Note_on_c, 11, 79, 76
13, 282531, Note_on_c, 11, 79, 0
13, 282540, Note_on_c, 11, 79, 76
13, 282591, Note_on_c, 11, 79, 0
13, 282600, Note_on_c, 11, 76, 76
13, 282651, Note_on_c, 11, 76, 0
13, 282660, Note_on_c, 11, 76, 76
13, 282711, Note_on_c, 11, 76, 0
13, 282720, Note_on_c, 11, 72, 76
13, 282771, Note_on_c, 11, 72, 0
13, 282780, Note_on_c, 11, 72, 76
13, 282831, Note_on_c, 11, 72, 0
13, 282840, Note_on_c, 11, 70, 76
13, 282891, Note_on_c, 11, 70, 0
13, 282900, Note_on_c, 11, 70, 76
13, 282951, Note_on_c, 11, 70, 0
13, 282960, Note_on_c, 11, 69, 84
13, 283011, Note_on_c, 11, 69, 0
13, 283020, Note_on_c, 11, 69, 76
13, 283071, Note_on_c, 11, 69, 0
13, 283080, Note_on_c, 11, 81, 76
13, 283131, Note_on_c, 11, 81, 0
13, 283140, Note_on_c, 11, 81, 76
13, 283191, Note_on_c, 11, 81, 0
13, 283200, Note_on_c, 11, 77, 76
13, 283251, Note_on_c, 11, 77, 0
13, 283260, Note_on_c, 11, 77, 76
13, 283311, Note_on_c, 11, 77, 0
13, 283320, Note_on_c, 11, 72, 76
13, 283371, Note_on_c, 11, 72, 0
13, 283380, Note_on_c, 11, 72, 76
13, 283431, Note_on_c, 11, 72, 0
13, 283440, Note_on_c, 11, 69, 76
13, 283491, Note_on_c, 11, 69, 0
13, 283500, Note_on_c, 11, 69, 76
13, 283551, Note_on_c, 11, 69, 0
13, 283560, Note_on_c, 11, 65, 76
13, 283611, Note_on_c, 11, 65, 0
13, 283620, Note_on_c, 11, 65, 76
13, 283671, Note_on_c, 11, 65, 0
13, 283680, Note_on_c, 11, 64, 84
13, 283731, Note_on_c, 11, 64, 0
13, 283740, Note_on_c, 11, 64, 76
13, 283791, Note_on_c, 11, 64, 0
13, 283800, Note_on_c, 11, 70, 76
13, 283851, Note_on_c, 11, 70, 0
13, 283860, Note_on_c, 11, 70, 76
13, 283911, Note_on_c, 11, 70, 0
13, 283920, Note_on_c, 11, 67, 76
13, 283971, Note_on_c, 11, 67, 0
13, 283980, Note_on_c, 11, 67, 76
13, 284031, Note_on_c, 11, 67, 0
13, 284040, Note_on_c, 11, 64, 76
13, 284091, Note_on_c, 11, 64, 0
13, 284100, Note_on_c, 11, 64, 76
13, 284151, Note_on_c, 11, 64, 0
13, 284160, Note_on_c, 11, 60, 76
13, 284211, Note_on_c, 11, 60, 0
13, 284220, Note_on_c, 11, 60, 76
13, 284271, Note_on_c, 11, 60, 0
13, 284280, Note_on_c, 11, 58, 76
13, 284331, Note_on_c, 11, 58, 0
13, 284340, Note_on_c, 11, 58, 76
13, 284391, Note_on_c, 11, 58, 0
13, 284400, Note_on_c, 11, 57, 84
13, 284451, Note_on_c, 11, 57, 0
13, 284460, Note_on_c, 11, 57, 84
13, 284511, Note_on_c, 11, 57, 0
13, 284520, Note_on_c, 11, 60, 84
13, 284571, Note_on_c, 11, 60, 0
13, 284580, Note_on_c, 11, 60, 84
13, 284631, Note_on_c, 11, 60, 0
13, 284640, Note_on_c, 11, 65, 84
13, 284691, Note_on_c, 11, 65, 0
13, 284700, Note_on_c, 11, 65, 84
13, 284751, Note_on_c, 11, 65, 0
13, 284760, Note_on_c, 11, 57, 84
13, 284811, Note_on_c, 11, 57, 0
13, 284820, Note_on_c, 11, 57, 84
13, 284871, Note_on_c, 11, 57, 0
13, 284880, Note_on_c, 11, 60, 84
13, 284931, Note_on_c, 11, 60, 0
13, 284940, Note_on_c, 11, 60, 84
13, 284991, Note_on_c, 11, 60, 0
13, 285000, Note_on_c, 11, 65, 84
13, 285051, Note_on_c, 11, 65, 0
13, 285060, Note_on_c, 11, 65, 84
13, 285111, Note_on_c, 11, 65, 0
13, 285120, Note_on_c, 11, 69, 84
13, 285171, Note_on_c, 11, 69, 0
13, 285180, Note_on_c, 11, 69, 84
13, 285231, Note_on_c, 11, 69, 0
13, 285240, Note_on_c, 11, 60, 84
13, 285291, Note_on_c, 11, 60, 0
13, 285300, Note_on_c, 11, 60, 84
13, 285351, Note_on_c, 11, 60, 0
13, 285360, Note_on_c, 11, 65, 84
13, 285411, Note_on_c, 11, 65, 0
13, 285420, Note_on_c, 11, 65, 84
13, 285471, Note_on_c, 11, 65, 0
13, 285480, Note_on_c, 11, 69, 84
13, 285531, Note_on_c, 11, 69, 0
13, 285540, Note_on_c, 11, 69, 84
13, 285591, Note_on_c, 11, 69, 0
13, 285600, Note_on_c, 11, 72, 84
13, 285651, Note_on_c, 11, 72, 0
13, 285660, Note_on_c, 11, 72, 84
13, 285711, Note_on_c, 11, 72, 0
13, 285720, Note_on_c, 11, 65, 84
13, 285771, Note_on_c, 11, 65, 0
13, 285780, Note_on_c, 11, 65, 84
13, 285831, Note_on_c, 11, 65, 0
13, 285840, Note_on_c, 11, 69, 84
13, 285891, Note_on_c, 11, 69, 0
13, 285900, Note_on_c, 11, 69, 84
13, 285951, Note_on_c, 11, 69, 0
13, 285960, Note_on_c, 11, 72, 84
13, 286011, Note_on_c, 11, 72, 0
13, 286020, Note_on_c, 11, 72, 84
13, 286071, Note_on_c, 11, 72, 0
13, 286080, Note_on_c, 11, 77, 84
13, 286131, Note_on_c, 11, 77, 0
13, 286140, Note_on_c, 11, 77, 84
13, 286191, Note_on_c, 11, 77, 0
13, 286200, Note_on_c, 11, 72, 84
13, 286251, Note_on_c, 11, 72, 0
13, 286260, Note_on_c, 11, 72, 84
13, 286311, Note_on_c, 11, 72, 0
13, 286320, Note_on_c, 11, 77, 84
13, 286371, Note_on_c, 11, 77, 0
13, 286380, Note_on_c, 11, 77, 84
13, 286431, Note_on_c, 11, 77, 0
13, 286440, Note_on_c, 11, 81, 84
13, 286491, Note_on_c, 11, 81, 0
13, 286500, Note_on_c, 11, 81, 84
13, 286551, Note_on_c, 11, 81, 0
13, 286560, Note_on_c, 11, 84, 84
13, 286611, Note_on_c, 11, 84, 0
13, 286620, Note_on_c, 11, 84, 84
13, 286671, Note_on_c, 11, 84, 0
13, 286680, Note_on_c, 11, 77, 84
13, 286731, Note_on_c, 11, 77, 0
13, 286740, Note_on_c, 11, 77, 84
13, 286791, Note_on_c, 11, 77, 0
13, 286800, Note_on_c, 11, 81, 84
13, 286851, Note_on_c, 11, 81, 0
13, 286860, Note_on_c, 11, 81, 84
13, 286911, Note_on_c, 11, 81, 0
13, 286920, Note_on_c, 11, 84, 84
13, 286971, Note_on_c, 11, 84, 0
13, 286980, Note_on_c, 11, 84, 84
13, 287031, Note_on_c, 11, 84, 0
13, 287040, Note_on_c, 11, 89, 84
13, 287091, Note_on_c, 11, 89, 0
13, 287100, Note_on_c, 11, 89, 84
13, 287151, Note_on_c, 11, 89, 0
13, 287160, Note_on_c, 11, 77, 84
13, 287211, Note_on_c, 11, 77, 0
13, 287220, Note_on_c, 11, 77, 84
13, 287271, Note_on_c, 11, 77, 0
13, 287280, Note_on_c, 11, 89, 92
13, 287519, Note_on_c, 11, 89, 0
13, 287640, Note_on_c, 11, 89, 84
13, 287729, Note_on_c, 11, 89, 0
13, 287760, Note_on_c, 11, 77, 84
13, 287849, Note_on_c, 11, 77, 0
13, 287880, Note_on_c, 11, 89, 84
13, 287969, Note_on_c, 11, 89, 0
13, 288000, Note_on_c, 11, 77, 92
13, 288239, Note_on_c, 11, 77, 0
13, 288360, Note_on_c, 11, 89, 84
13, 288449, Note_on_c, 11, 89, 0
13, 288480, Note_on_c, 11, 77, 84
13, 288569, Note_on_c, 11, 77, 0
13, 288600, Note_on_c, 11, 89, 84
13, 288689, Note_on_c, 11, 89, 0
13, 288720, Note_on_c, 11, 77, 92
13, 288959, Note_on_c, 11, 77, 0
13, 289080, Note_on_c, 11, 89, 84
13, 289169, Note_on_c, 11, 89, 0
13, 289200, Note_on_c, 11, 77, 84
13, 289289, Note_on_c, 11, 77, 0
13, 289320, Note_on_c, 11, 89, 84
13, 289409, Note_on_c, 11, 89, 0
13, 289440, Note_on_c, 11, 77, 92
13, 289679, Note_on_c, 11, 77, 0
13, 289800, Note_on_c, 11, 89, 84
13, 289889, Note_on_c, 11, 89, 0
13, 289920, Note_on_c, 11, 77, 84
13, 290009, Note_on_c, 11, 77, 0
13, 290040, Note_on_c, 11, 89, 84
13, 290129, Note_on_c, 11, 89, 0
13, 290160, Note_on_c, 11, 77, 84
13, 290399, Note_on_c, 11, 77, 0
13, 292320, Note_on_c, 11, 65, 52
13, 293039, Note_on_c, 11, 65, 0
13, 293040, Note_on_c, 11, 65, 44
13, 293759, Note_on_c, 11, 65, 0
13, 293760, Note_on_c, 11, 65, 44
13, 294464, Note_on_c, 11, 65, 0
13, 294480, Note_on_c, 11, 63, 44
13, 295184, Note_on_c, 11, 63, 0
13, 295200, Note_on_c, 11, 72, 44
13, 295289, Note_on_c, 11, 72, 0
13, 295320, Note_on_c, 11, 73, 44
13, 295409, Note_on_c, 11, 73, 0
13, 295440, Note_on_c, 11, 75, 44
13, 295529, Note_on_c, 11, 75, 0
13, 295560, Note_on_c, 11, 77, 44
13, 295649, Note_on_c, 11, 77, 0
13, 295680, Note_on_c, 11, 78, 44
13, 295859, Note_on_c, 11, 78, 0
13, 296640, Note_on_c, 11, 73, 44
13, 296729, Note_on_c, 11, 73, 0
13, 296760, Note_on_c, 11, 75, 44
13, 296849, Note_on_c, 11, 75, 0
13, 296880, Note_on_c, 11, 77, 44
13, 296969, Note_on_c, 11, 77, 0
13, 297000, Note_on_c, 11, 78, 44
13, 297089, Note_on_c, 11, 78, 0
13, 297120, Note_on_c, 11, 80, 44
13, 297299, Note_on_c, 11, 80, 0
13, 298080, Note_on_c, 11, 73, 44
13, 298169, Note_on_c, 11, 73, 0
13, 298200, Note_on_c, 11, 75, 44
13, 298289, Note_on_c, 11, 75, 0
13, 298320, Note_on_c, 11, 77, 44
13, 298409, Note_on_c, 11, 77, 0
13, 298440, Note_on_c, 11, 78, 44
13, 298529, Note_on_c, 11, 78, 0
13, 298560, Note_on_c, 11, 80, 44
13, 298739, Note_on_c, 11, 80, 0
13, 299520, Note_on_c, 11, 70, 44
13, 299609, Note_on_c, 11, 70, 0
13, 299640, Note_on_c, 11, 72, 44
13, 299729, Note_on_c, 11, 72, 0
13, 299760, Note_on_c, 11, 74, 44
13, 299849, Note_on_c, 11, 74, 0
13, 299880, Note_on_c, 11, 75, 44
13, 299969, Note_on_c, 11, 75, 0
13, 300000, Note_on_c, 11, 77, 44
13, 300179, Note_on_c, 11, 77, 0
13, 300960, Note_on_c, 11, 75, 44
13, 301049, Note_on_c, 11, 75, 0
13, 301080, Note_on_c, 11, 77, 44
13, 301169, Note_on_c, 11, 77, 0
13, 301200, Note_on_c, 11, 78, 44
13, 301289, Note_on_c, 11, 78, 0
13, 301320, Note_on_c, 11, 80, 44
13, 301409, Note_on_c, 11, 80, 0
13, 301440, Note_on_c, 11, 82, 44
13, 301619, Note_on_c, 11, 82, 0
13, 302400, Note_on_c, 11, 72, 50
13, 302489, Note_on_c, 11, 72, 0
13, 302520, Note_on_c, 11, 74, 51
13, 302609, Note_on_c, 11, 74, 0
13, 302640, Note_on_c, 11, 76, 52
13, 302729, Note_on_c, 11, 76, 0
13, 302760, Note_on_c, 11, 77, 54
13, 302849, Note_on_c, 11, 77, 0
13, 302880, Note_on_c, 11, 79, 55
13, 303059, Note_on_c, 11, 79, 0
13, 303840, Note_on_c, 11, 72, 64
13, 303929, Note_on_c, 11, 72, 0
13, 303960, Note_on_c, 11, 76, 65
13, 304049, Note_on_c, 11, 76, 0
13, 304080, Note_on_c, 11, 77, 66
13, 304169, Note_on_c, 11, 77, 0
13, 304200, Note_on_c, 11, 79, 67
13, 304289, Note_on_c, 11, 79, 0
13, 304320, Note_on_c, 11, 80, 68
13, 304499, Note_on_c, 11, 80, 0
13, 305280, Note_on_c, 11, 72, 77
13, 305369, Note_on_c, 11, 72, 0
13, 305400, Note_on_c, 11, 76, 78
13, 305489, Note_on_c, 11, 76, 0
13, 305520, Note_on_c, 11, 77, 79
13, 305609, Note_on_c, 11, 77, 0
13, 305640, Note_on_c, 11, 79, 80
13, 305729, Note_on_c, 11, 79, 0
13, 305760, Note_on_c, 11, 81, 81
13, 305849, Note_on_c, 11, 81, 0
13, 305880, Note_on_c, 11, 84, 82
13, 305969, Note_on_c, 11, 84, 0
13, 306000, Note_on_c, 11, 84, 84
13, 306051, Note_on_c, 11, 84, 0
13, 306060, Note_on_c, 11, 84, 84
13, 306111, Note_on_c, 11, 84, 0
13, 306120, Note_on_c, 11, 84, 84
13, 306171, Note_on_c, 11, 84, 0
13, 306180, Note_on_c, 11, 84, 84
13, 306231, Note_on_c, 11, 84, 0
13, 306240, Note_on_c, 11, 81, 84
13, 306291, Note_on_c, 11, 81, 0
13, 306300, Note_on_c, 11, 81, 84
13, 306351, Note_on_c, 11, 81, 0
13, 306360, Note_on_c, 11, 82, 84
13, 306411, Note_on_c, 11, 82, 0
13, 306420, Note_on_c, 11, 82, 84
13, 306471, Note_on_c, 11, 82, 0
13, 306480, Note_on_c, 11, 84, 84
13, 306531, Note_on_c, 11, 84, 0
13, 306540, Note_on_c, 11, 84, 84
13, 306591, Note_on_c, 11, 84, 0
13, 306600, Note_on_c, 11, 81, 84
13, 306651, Note_on_c, 11, 81, 0
13, 306660, Note_on_c, 11, 81, 84
13, 306711, Note_on_c, 11, 81, 0
13, 306720, Note_on_c, 11, 77, 92
13, 306771, Note_on_c, 11, 77, 0
13, 306780, Note_on_c, 11, 77, 84
13, 306831, Note_on_c, 11, 77, 0
13, 306840, Note_on_c, 11, 77, 84
13, 306891, Note_on_c, 11, 77, 0
13, 306900, Note_on_c, 11, 77, 84
13, 306951, Note_on_c, 11, 77, 0
13, 306960, Note_on_c, 11, 77, 84
13, 307011, Note_on_c, 11, 77, 0
13, 307020, Note_on_c, 11, 77, 84
13, 307071, Note_on_c, 11, 77, 0
13, 307080, Note_on_c, 11, 77, 84
13, 307131, Note_on_c, 11, 77, 0
13, 307140, Note_on_c, 11, 77, 84
13, 307191, Note_on_c, 11, 77, 0
13, 307200, Note_on_c, 11, 72, 84
13, 307251, Note_on_c, 11, 72, 0
13, 307260, Note_on_c, 11, 72, 84
13, 307311, Note_on_c, 11, 72, 0
13, 307320, Note_on_c, 11, 77, 84
13, 307371, Note_on_c, 11, 77, 0
13, 307380, Note_on_c, 11, 77, 84
13, 307431, Note_on_c, 11, 77, 0
13, 307440, Note_on_c, 11, 77, 92
13, 307491, Note_on_c, 11, 77, 0
13, 307500, Note_on_c, 11, 77, 84
13, 307551, Note_on_c, 11, 77, 0
13, 307560, Note_on_c, 11, 76, 84
13, 307611, Note_on_c, 11, 76, 0
13, 307620, Note_on_c, 11, 76, 84
13, 307671, Note_on_c, 11, 76, 0
13, 307680, Note_on_c, 11, 76, 84
13, 307731, Note_on_c, 11, 76, 0
13, 307740, Note_on_c, 11, 76, 84
13, 307791, Note_on_c, 11, 76, 0
13, 307800, Note_on_c, 11, 77, 84
13, 307851, Note_on_c, 11, 77, 0
13, 307860, Note_on_c, 11, 77, 84
13, 307911, Note_on_c, 11, 77, 0
13, 307920, Note_on_c, 11, 79, 84
13, 307971, Note_on_c, 11, 79, 0
13, 307980, Note_on_c, 11, 79, 84
13, 308031, Note_on_c, 11, 79, 0
13, 308040, Note_on_c, 11, 81, 84
13, 308091, Note_on_c, 11, 81, 0
13, 308100, Note_on_c, 11, 81, 84
13, 308151, Note_on_c, 11, 81, 0
13, 308160, Note_on_c, 11, 70, 92
13, 308160, Note_on_c, 11, 82, 92
13, 308211, Note_on_c, 11, 70, 0
13, 308211, Note_on_c, 11, 82, 0
13, 308220, Note_on_c, 11, 70, 84
13, 308220, Note_on_c, 11, 82, 84
13, 308271, Note_on_c, 11, 70, 0
13, 308271, Note_on_c, 11, 82, 0
13, 308280, Note_on_c, 11, 70, 84
13, 308280, Note_on_c, 11, 82, 84
13, 308331, Note_on_c, 11, 70, 0
13, 308331, Note_on_c, 11, 82, 0
13, 308340, Note_on_c, 11, 70, 84
13, 308340, Note_on_c, 11, 82, 84
13, 308391, Note_on_c, 11, 70, 0
13, 308391, Note_on_c, 11, 82, 0
13, 308400, Note_on_c, 11, 82, 84
13, 308400, Note_on_c, 11, 70, 84
13, 308451, Note_on_c, 11, 82, 0
13, 308451, Note_on_c, 11, 70, 0
13, 308460, Note_on_c, 11, 82, 84
13, 308460, Note_on_c, 11, 70, 84
13, 308511, Note_on_c, 11, 82, 0
13, 308511, Note_on_c, 11, 70, 0
13, 308520, Note_on_c, 11, 70, 84
13, 308520, Note_on_c, 11, 82, 84
13, 308571, Note_on_c, 11, 70, 0
13, 308571, Note_on_c, 11, 82, 0
13, 308580, Note_on_c, 11, 82, 84
13, 308580, Note_on_c, 11, 70, 84
13, 308631, Note_on_c, 11, 82, 0
13, 308631, Note_on_c, 11, 70, 0
13, 308640, Note_on_c, 11, 82, 84
13, 308640, Note_on_c, 11, 70, 84
13, 308691, Note_on_c, 11, 82, 0
13, 308691, Note_on_c, 11, 70, 0
13, 308700, Note_on_c, 11, 70, 84
13, 308700, Note_on_c, 11, 82, 84
13, 308751, Note_on_c, 11, 70, 0
13, 308751, Note_on_c, 11, 82, 0
13, 308760, Note_on_c, 11, 70, 84
13, 308760, Note_on_c, 11, 82, 84
13, 308811, Note_on_c, 11, 70, 0
13, 308811, Note_on_c, 11, 82, 0
13, 308820, Note_on_c, 11, 70, 84
13, 308820, Note_on_c, 11, 82, 84
13, 308871, Note_on_c, 11, 70, 0
13, 308871, Note_on_c, 11, 82, 0
13, 308880, Note_on_c, 11, 70, 92
13, 308880, Note_on_c, 11, 82, 92
13, 308931, Note_on_c, 11, 70, 0
13, 308931, Note_on_c, 11, 82, 0
13, 308940, Note_on_c, 11, 82, 84
13, 308940, Note_on_c, 11, 70, 84
13, 308991, Note_on_c, 11, 82, 0
13, 308991, Note_on_c, 11, 70, 0
13, 309000, Note_on_c, 11, 82, 84
13, 309000, Note_on_c, 11, 70, 84
13, 309051, Note_on_c, 11, 82, 0
13, 309051, Note_on_c, 11, 70, 0
13, 309060, Note_on_c, 11, 70, 84
13, 309060, Note_on_c, 11, 82, 84
13, 309111, Note_on_c, 11, 70, 0
13, 309111, Note_on_c, 11, 82, 0
13, 309120, Note_on_c, 11, 79, 84
13, 309171, Note_on_c, 11, 79, 0
13, 309180, Note_on_c, 11, 79, 84
13, 309231, Note_on_c, 11, 79, 0
13, 309240, Note_on_c, 11, 81, 84
13, 309291, Note_on_c, 11, 81, 0
13, 309300, Note_on_c, 11, 81, 84
13, 309351, Note_on_c, 11, 81, 0
13, 309360, Note_on_c, 11, 82, 84
13, 309411, Note_on_c, 11, 82, 0
13, 309420, Note_on_c, 11, 82, 84
13, 309471, Note_on_c, 11, 82, 0
13, 309480, Note_on_c, 11, 83, 84
13, 309531, Note_on_c, 11, 83, 0
13, 309540, Note_on_c, 11, 83, 84
13, 309591, Note_on_c, 11, 83, 0
13, 309600, Note_on_c, 11, 84, 92
13, 309651, Note_on_c, 11, 84, 0
13, 309660, Note_on_c, 11, 84, 84
13, 309711, Note_on_c, 11, 84, 0
13, 309720, Note_on_c, 11, 84, 84
13, 309771, Note_on_c, 11, 84, 0
13, 309780, Note_on_c, 11, 84, 84
13, 309831, Note_on_c, 11, 84, 0
13, 309840, Note_on_c, 11, 84, 84
13, 309891, Note_on_c, 11, 84, 0
13, 309900, Note_on_c, 11, 84, 84
13, 309951, Note_on_c, 11, 84, 0
13, 309960, Note_on_c, 11, 84, 84
13, 310011, Note_on_c, 11, 84, 0
13, 310020, Note_on_c, 11, 84, 84
13, 310071, Note_on_c, 11, 84, 0
13, 310080, Note_on_c, 11, 82, 84
13, 310131, Note_on_c, 11, 82, 0
13, 310140, Note_on_c, 11, 82, 84
13, 310191, Note_on_c, 11, 82, 0
13, 310200, Note_on_c, 11, 82, 84
13, 310251, Note_on_c, 11, 82, 0
13, 310260, Note_on_c, 11, 82, 84
13, 310311, Note_on_c, 11, 82, 0
13, 310320, Note_on_c, 11, 81, 92
13, 310320, Note_on_c, 11, 69, 92
13, 310371, Note_on_c, 11, 81, 0
13, 310371, Note_on_c, 11, 69, 0
13, 310380, Note_on_c, 11, 69, 84
13, 310380, Note_on_c, 11, 81, 84
13, 310431, Note_on_c, 11, 69, 0
13, 310431, Note_on_c, 11, 81, 0
13, 310440, Note_on_c, 11, 69, 84
13, 310440, Note_on_c, 11, 84, 84
13, 310491, Note_on_c, 11, 69, 0
13, 310491, Note_on_c, 11, 84, 0
13, 310500, Note_on_c, 11, 84, 84
13, 310500, Note_on_c, 11, 69, 84
13, 310551, Note_on_c, 11, 84, 0
13, 310551, Note_on_c, 11, 69, 0
13, 310560, Note_on_c, 11, 77, 84
13, 310611, Note_on_c, 11, 77, 0
13, 310620, Note_on_c, 11, 77, 84
13, 310671, Note_on_c, 11, 77, 0
13, 310680, Note_on_c, 11, 72, 84
13, 310731, Note_on_c, 11, 72, 0
13, 310740, Note_on_c, 11, 72, 84
13, 310791, Note_on_c, 11, 72, 0
13, 310800, Note_on_c, 11, 79, 84
13, 310851, Note_on_c, 11, 79, 0
13, 310860, Note_on_c, 11, 79, 84
13, 310911, Note_on_c, 11, 79, 0
13, 310920, Note_on_c, 11, 76, 84
13, 310971, Note_on_c, 11, 76, 0
13, 310980, Note_on_c, 11, 76, 84
13, 311031, Note_on_c, 11, 76, 0
13, 311040, Note_on_c, 11, 81, 92
13, 311040, Note_on_c, 11, 69, 92
13, 311091, Note_on_c, 11, 81, 0
13, 311091, Note_on_c, 11, 69, 0
13, 311100, Note_on_c, 11, 81, 84
13, 311100, Note_on_c, 11, 69, 84
13, 311151, Note_on_c, 11, 81, 0
13, 311151, Note_on_c, 11, 69, 0
13, 311160, Note_on_c, 11, 69, 84
13, 311160, Note_on_c, 11, 84, 84
13, 311211, Note_on_c, 11, 69, 0
13, 311211, Note_on_c, 11, 84, 0
13, 311220, Note_on_c, 11, 84, 84
13, 311220, Note_on_c, 11, 69, 84
13, 311271, Note_on_c, 11, 84, 0
13, 311271, Note_on_c, 11, 69, 0
13, 311280, Note_on_c, 11, 77, 84
13, 311331, Note_on_c, 11, 77, 0
13, 311340, Note_on_c, 11, 77, 84
13, 311391, Note_on_c, 11, 77, 0
13, 311400, Note_on_c, 11, 72, 84
13, 311451, Note_on_c, 11, 72, 0
13, 311460, Note_on_c, 11, 72, 84
13, 311511, Note_on_c, 11, 72, 0
13, 311520, Note_on_c, 11, 79, 84
13, 311571, Note_on_c, 11, 79, 0
13, 311580, Note_on_c, 11, 79, 84
13, 311631, Note_on_c, 11, 79, 0
13, 311640, Note_on_c, 11, 76, 84
13, 311691, Note_on_c, 11, 76, 0
13, 311700, Note_on_c, 11, 76, 84
13, 311751, Note_on_c, 11, 76, 0
13, 311760, Note_on_c, 11, 69, 92
13, 311760, Note_on_c, 11, 81, 92
13, 311811, Note_on_c, 11, 69, 0
13, 311811, Note_on_c, 11, 81, 0
13, 311820, Note_on_c, 11, 81, 84
13, 311820, Note_on_c, 11, 69, 84
13, 311871, Note_on_c, 11, 81, 0
13, 311871, Note_on_c, 11, 69, 0
13, 311880, Note_on_c, 11, 84, 84
13, 311880, Note_on_c, 11, 69, 84
13, 311931, Note_on_c, 11, 84, 0
13, 311931, Note_on_c, 11, 69, 0
13, 311940, Note_on_c, 11, 69, 84
13, 311940, Note_on_c, 11, 84, 84
13, 311991, Note_on_c, 11, 69, 0
13, 311991, Note_on_c, 11, 84, 0
13, 312000, Note_on_c, 11, 77, 84
13, 312051, Note_on_c, 11, 77, 0
13, 312060, Note_on_c, 11, 77, 84
13, 312111, Note_on_c, 11, 77, 0
13, 312120, Note_on_c, 11, 72, 84
13, 312171, Note_on_c, 11, 72, 0
13, 312180, Note_on_c, 11, 72, 84
13, 312231, Note_on_c, 11, 72, 0
13, 312240, Note_on_c, 11, 79, 84
13, 312291, Note_on_c, 11, 79, 0
13, 312300, Note_on_c, 11, 79, 84
13, 312351, Note_on_c, 11, 79, 0
13, 312360, Note_on_c, 11, 76, 84
13, 312411, Note_on_c, 11, 76, 0
13, 312420, Note_on_c, 11, 76, 84
13, 312471, Note_on_c, 11, 76, 0
13, 312480, Note_on_c, 11, 82, 76
13, 313184, Note_on_c, 11, 82, 0
13, 313200, Note_on_c, 11, 82, 52
13, 313664, Note_on_c, 11, 82, 0
13, 313680, Note_on_c, 11, 81, 52
13, 314039, Note_on_c, 11, 81, 0
13, 314040, Note_on_c, 11, 79, 52
13, 314159, Note_on_c, 11, 79, 0
13, 314160, Note_on_c, 11, 74, 52
13, 314279, Note_on_c, 11, 74, 0
13, 314280, Note_on_c, 11, 76, 52
13, 314399, Note_on_c, 11, 76, 0
13, 314400, Note_on_c, 11, 77, 52
13, 314519, Note_on_c, 11, 77, 0
13, 314520, Note_on_c, 11, 72, 52
13, 314624, Note_on_c, 11, 72, 0
13, 314640, Note_on_c, 11, 70, 52
13, 315104, Note_on_c, 11, 70, 0
13, 315120, Note_on_c, 11, 69, 52
13, 315479, Note_on_c, 11, 69, 0
13, 315480, Note_on_c, 11, 67, 52
13, 315599, Note_on_c, 11, 67, 0
13, 315600, Note_on_c, 11, 62, 52
13, 315719, Note_on_c, 11, 62, 0
13, 315720, Note_on_c, 11, 64, 52
13, 315839, Note_on_c, 11, 64, 0
13, 315840, Note_on_c, 11, 65, 52
13, 315959, Note_on_c, 11, 65, 0
13, 315960, Note_on_c, 11, 60, 52
13, 316079, Note_on_c, 11, 60, 0
13, 316200, Note_on_c, 11, 67, 53
13, 316319, Note_on_c, 11, 67, 0
13, 316320, Note_on_c, 11, 62, 54
13, 316439, Note_on_c, 11, 62, 0
13, 316440, Note_on_c, 11, 64, 55
13, 316559, Note_on_c, 11, 64, 0
13, 316560, Note_on_c, 11, 65, 56
13, 316679, Note_on_c, 11, 65, 0
13, 316680, Note_on_c, 11, 60, 57
13, 316799, Note_on_c, 11, 60, 0
13, 316920, Note_on_c, 11, 67, 59
13, 317039, Note_on_c, 11, 67, 0
13, 317040, Note_on_c, 11, 62, 60
13, 317159, Note_on_c, 11, 62, 0
13, 317160, Note_on_c, 11, 64, 61
13, 317279, Note_on_c, 11, 64, 0
13, 317280, Note_on_c, 11, 65, 62
13, 317399, Note_on_c, 11, 65, 0
13, 317400, Note_on_c, 11, 60, 63
13, 317519, Note_on_c, 11, 60, 0
13, 317640, Note_on_c, 11, 67, 65
13, 317759, Note_on_c, 11, 67, 0
13, 317760, Note_on_c, 11, 62, 66
13, 317879, Note_on_c, 11, 62, 0
13, 317880, Note_on_c, 11, 64, 67
13, 317999, Note_on_c, 11, 64, 0
13, 318000, Note_on_c, 11, 65, 68
13, 318119, Note_on_c, 11, 65, 0
13, 318120, Note_on_c, 11, 60, 69
13, 318239, Note_on_c, 11, 60, 0
13, 318360, Note_on_c, 11, 67, 71
13, 318479, Note_on_c, 11, 67, 0
13, 318480, Note_on_c, 11, 62, 72
13, 318599, Note_on_c, 11, 62, 0
13, 318600, Note_on_c, 11, 64, 73
13, 318719, Note_on_c, 11, 64, 0
13, 318720, Note_on_c, 11, 65, 74
13, 318839, Note_on_c, 11, 65, 0
13, 318840, Note_on_c, 11, 69, 75
13, 318944, Note_on_c, 11, 69, 0
13, 318960, Note_on_c, 11, 58, 76
13, 319011, Note_on_c, 11, 58, 0
13, 319020, Note_on_c, 11, 67, 76
13, 319071, Note_on_c, 11, 67, 0
13, 319080, Note_on_c, 11, 67, 76
13, 319131, Note_on_c, 11, 67, 0
13, 319140, Note_on_c, 11, 67, 76
13, 319191, Note_on_c, 11, 67, 0
13, 319200, Note_on_c, 11, 67, 76
13, 319251, Note_on_c, 11, 67, 0
13, 319260, Note_on_c, 11, 67, 76
13, 319311, Note_on_c, 11, 67, 0
13, 319320, Note_on_c, 11, 67, 76
13, 319371, Note_on_c, 11, 67, 0
13, 319380, Note_on_c, 11, 67, 76
13, 319431, Note_on_c, 11, 67, 0
13, 319440, Note_on_c, 11, 65, 84
13, 319491, Note_on_c, 11, 65, 0
13, 319500, Note_on_c, 11, 65, 76
13, 319551, Note_on_c, 11, 65, 0
13, 319560, Note_on_c, 11, 57, 76
13, 319611, Note_on_c, 11, 57, 0
13, 319620, Note_on_c, 11, 57, 76
13, 319671, Note_on_c, 11, 57, 0
13, 319680, Note_on_c, 11, 58, 76
13, 319731, Note_on_c, 11, 58, 0
13, 319740, Note_on_c, 11, 67, 76
13, 319791, Note_on_c, 11, 67, 0
13, 319800, Note_on_c, 11, 67, 76
13, 319851, Note_on_c, 11, 67, 0
13, 319860, Note_on_c, 11, 67, 76
13, 319911, Note_on_c, 11, 67, 0
13, 319920, Note_on_c, 11, 67, 76
13, 319971, Note_on_c, 11, 67, 0
13, 319980, Note_on_c, 11, 67, 76
13, 320031, Note_on_c, 11, 67, 0
13, 320040, Note_on_c, 11, 67, 76
13, 320091, Note_on_c, 11, 67, 0
13, 320100, Note_on_c, 11, 67, 76
13, 320151, Note_on_c, 11, 67, 0
13, 320160, Note_on_c, 11, 65, 84
13, 320211, Note_on_c, 11, 65, 0
13, 320220, Note_on_c, 11, 65, 76
13, 320271, Note_on_c, 11, 65, 0
13, 320280, Note_on_c, 11, 57, 76
13, 320331, Note_on_c, 11, 57, 0
13, 320340, Note_on_c, 11, 57, 76
13, 320391, Note_on_c, 11, 57, 0
13, 320400, Note_on_c, 11, 58, 76
13, 320451, Note_on_c, 11, 58, 0
13, 320460, Note_on_c, 11, 67, 76
13, 320511, Note_on_c, 11, 67, 0
13, 320520, Note_on_c, 11, 67, 76
13, 320571, Note_on_c, 11, 67, 0
13, 320580, Note_on_c, 11, 67, 76
13, 320631, Note_on_c, 11, 67, 0
13, 320640, Note_on_c, 11, 67, 76
13, 320691, Note_on_c, 11, 67, 0
13, 320700, Note_on_c, 11, 67, 76
13, 320751, Note_on_c, 11, 67, 0
13, 320760, Note_on_c, 11, 67, 76
13, 320811, Note_on_c, 11, 67, 0
13, 320820, Note_on_c, 11, 67, 76
13, 320871, Note_on_c, 11, 67, 0
13, 320880, Note_on_c, 11, 65, 84
13, 320931, Note_on_c, 11, 65, 0
13, 320940, Note_on_c, 11, 65, 76
13, 320991, Note_on_c, 11, 65, 0
13, 321000, Note_on_c, 11, 57, 76
13, 321051, Note_on_c, 11, 57, 0
13, 321060, Note_on_c, 11, 57, 76
13, 321111, Note_on_c, 11, 57, 0
13, 321120, Note_on_c, 11, 58, 76
13, 321171, Note_on_c, 11, 58, 0
13, 321180, Note_on_c, 11, 67, 76
13, 321231, Note_on_c, 11, 67, 0
13, 321240, Note_on_c, 11, 67, 76
13, 321291, Note_on_c, 11, 67, 0
13, 321300, Note_on_c, 11, 67, 76
13, 321351, Note_on_c, 11, 67, 0
13, 321360, Note_on_c, 11, 67, 76
13, 321411, Note_on_c, 11, 67, 0
13, 321420, Note_on_c, 11, 67, 76
13, 321471, Note_on_c, 11, 67, 0
13, 321480, Note_on_c, 11, 67, 76
13, 321531, Note_on_c, 11, 67, 0
13, 321540, Note_on_c, 11, 67, 76
13, 321591, Note_on_c, 11, 67, 0
13, 321600, Note_on_c, 11, 69, 84
13, 321651, Note_on_c, 11, 69, 0
13, 321660, Note_on_c, 11, 69, 76
13, 321711, Note_on_c, 11, 69, 0
13, 321720, Note_on_c, 11, 57, 76
13, 321771, Note_on_c, 11, 57, 0
13, 321780, Note_on_c, 11, 57, 76
13, 321831, Note_on_c, 11, 57, 0
13, 321840, Note_on_c, 11, 58, 76
13, 321891, Note_on_c, 11, 58, 0
13, 321900, Note_on_c, 11, 70, 76
13, 321951, Note_on_c, 11, 70, 0
13, 321960, Note_on_c, 11, 70, 76
13, 322011, Note_on_c, 11, 70, 0
13, 322020, Note_on_c, 11, 70, 76
13, 322071, Note_on_c, 11, 70, 0
13, 322080, Note_on_c, 11, 70, 76
13, 322131, Note_on_c, 11, 70, 0
13, 322140, Note_on_c, 11, 70, 76
13, 322191, Note_on_c, 11, 70, 0
13, 322200, Note_on_c, 11, 70, 76
13, 322251, Note_on_c, 11, 70, 0
13, 322260, Note_on_c, 11, 70, 76
13, 322311, Note_on_c, 11, 70, 0
13, 322320, Note_on_c, 11, 72, 84
13, 322371, Note_on_c, 11, 72, 0
13, 322380, Note_on_c, 11, 72, 76
13, 322431, Note_on_c, 11, 72, 0
13, 322440, Note_on_c, 11, 60, 76
13, 322491, Note_on_c, 11, 60, 0
13, 322500, Note_on_c, 11, 60, 76
13, 322551, Note_on_c, 11, 60, 0
13, 322560, Note_on_c, 11, 62, 76
13, 322611, Note_on_c, 11, 62, 0
13, 322620, Note_on_c, 11, 74, 76
13, 322671, Note_on_c, 11, 74, 0
13, 322680, Note_on_c, 11, 74, 76
13, 322731, Note_on_c, 11, 74, 0
13, 322740, Note_on_c, 11, 74, 76
13, 322791, Note_on_c, 11, 74, 0
13, 322800, Note_on_c, 11, 74, 76
13, 322851, Note_on_c, 11, 74, 0
13, 322860, Note_on_c, 11, 74, 76
13, 322911, Note_on_c, 11, 74, 0
13, 322920, Note_on_c, 11, 74, 76
13, 322971, Note_on_c, 11, 74, 0
13, 322980, Note_on_c, 11, 74, 76
13, 323031, Note_on_c, 11, 74, 0
13, 323040, Note_on_c, 11, 76, 84
13, 323091, Note_on_c, 11, 76, 0
13, 323100, Note_on_c, 11, 76, 76
13, 323151, Note_on_c, 11, 76, 0
13, 323160, Note_on_c, 11, 64, 76
13, 323211, Note_on_c, 11, 64, 0
13, 323220, Note_on_c, 11, 64, 76
13, 323271, Note_on_c, 11, 64, 0
13, 323280, Note_on_c, 11, 65, 76
13, 323331, Note_on_c, 11, 65, 0
13, 323340, Note_on_c, 11, 77, 76
13, 323391, Note_on_c, 11, 77, 0
13, 323400, Note_on_c, 11, 77, 76
13, 323451, Note_on_c, 11, 77, 0
13, 323460, Note_on_c, 11, 77, 76
13, 323511, Note_on_c, 11, 77, 0
13, 323520, Note_on_c, 11, 77, 76
13, 323571, Note_on_c, 11, 77, 0
13, 323580, Note_on_c, 11, 77, 76
13, 323631, Note_on_c, 11, 77, 0
13, 323640, Note_on_c, 11, 77, 76
13, 323691, Note_on_c, 11, 77, 0
13, 323700, Note_on_c, 11, 77, 76
13, 323751, Note_on_c, 11, 77, 0
13, 323760, Note_on_c, 11, 79, 84
13, 323811, Note_on_c, 11, 79, 0
13, 323820, Note_on_c, 11, 79, 76
13, 323871, Note_on_c, 11, 79, 0
13, 323880, Note_on_c, 11, 67, 76
13, 323931, Note_on_c, 11, 67, 0
13, 323940, Note_on_c, 11, 67, 76
13, 323991, Note_on_c, 11, 67, 0
13, 324000, Note_on_c, 11, 69, 76
13, 324051, Note_on_c, 11, 69, 0
13, 324060, Note_on_c, 11, 81, 76
13, 324111, Note_on_c, 11, 81, 0
13, 324120, Note_on_c, 11, 81, 76
13, 324171, Note_on_c, 11, 81, 0
13, 324180, Note_on_c, 11, 81, 76
13, 324231, Note_on_c, 11, 81, 0
13, 324240, Note_on_c, 11, 81, 76
13, 324291, Note_on_c, 11, 81, 0
13, 324300, Note_on_c, 11, 81, 76
13, 324351, Note_on_c, 11, 81, 0
13, 324360, Note_on_c, 11, 81, 76
13, 324411, Note_on_c, 11, 81, 0
13, 324420, Note_on_c, 11, 81, 76
13, 324471, Note_on_c, 11, 81, 0
13, 324480, Note_on_c, 11, 82, 84
13, 324531, Note_on_c, 11, 82, 0
13, 324540, Note_on_c, 11, 82, 76
13, 324591, Note_on_c, 11, 82, 0
13, 324600, Note_on_c, 11, 70, 76
13, 324651, Note_on_c, 11, 70, 0
13, 324660, Note_on_c, 11, 70, 76
13, 324711, Note_on_c, 11, 70, 0
13, 324720, Note_on_c, 11, 71, 92
13, 324771, Note_on_c, 11, 71, 0
13, 324780, Note_on_c, 11, 83, 92
13, 324831, Note_on_c, 11, 83, 0
13, 324840, Note_on_c, 11, 83, 92
13, 324891, Note_on_c, 11, 83, 0
13, 324900, Note_on_c, 11, 83, 92
13, 324951, Note_on_c, 11, 83, 0
13, 324960, Note_on_c, 11, 83, 92
13, 325011, Note_on_c, 11, 83, 0
13, 325020, Note_on_c, 11, 83, 92
13, 325071, Note_on_c, 11, 83, 0
13, 325080, Note_on_c, 11, 83, 92
13, 325131, Note_on_c, 11, 83, 0
13, 325140, Note_on_c, 11, 83, 92
13, 325191, Note_on_c, 11, 83, 0
13, 325200, Note_on_c, 11, 83, 92
13, 325251, Note_on_c, 11, 83, 0
13, 325260, Note_on_c, 11, 83, 92
13, 325311, Note_on_c, 11, 83, 0
13, 325320, Note_on_c, 11, 83, 92
13, 325371, Note_on_c, 11, 83, 0
13, 325380, Note_on_c, 11, 83, 92
13, 325431, Note_on_c, 11, 83, 0
13, 325440, Note_on_c, 11, 83, 92
13, 325491, Note_on_c, 11, 83, 0
13, 325500, Note_on_c, 11, 83, 92
13, 325551, Note_on_c, 11, 83, 0
13, 325560, Note_on_c, 11, 83, 92
13, 325611, Note_on_c, 11, 83, 0
13, 325620, Note_on_c, 11, 83, 92
13, 325671, Note_on_c, 11, 83, 0
13, 325680, Note_on_c, 11, 83, 92
13, 325731, Note_on_c, 11, 83, 0
13, 325740, Note_on_c, 11, 83, 92
13, 325791, Note_on_c, 11, 83, 0
13, 325800, Note_on_c, 11, 83, 92
13, 325851, Note_on_c, 11, 83, 0
13, 325860, Note_on_c, 11, 83, 92
13, 325911, Note_on_c, 11, 83, 0
13, 325920, Note_on_c, 11, 84, 92
13, 325971, Note_on_c, 11, 84, 0
13, 325980, Note_on_c, 11, 84, 92
13, 326031, Note_on_c, 11, 84, 0
13, 326040, Note_on_c, 11, 84, 92
13, 326091, Note_on_c, 11, 84, 0
13, 326100, Note_on_c, 11, 84, 92
13, 326151, Note_on_c, 11, 84, 0
13, 326160, Note_on_c, 11, 81, 92
13, 326160, Note_on_c, 11, 69, 92
13, 326211, Note_on_c, 11, 81, 0
13, 326211, Note_on_c, 11, 69, 0
13, 326220, Note_on_c, 11, 81, 92
13, 326220, Note_on_c, 11, 69, 92
13, 326271, Note_on_c, 11, 81, 0
13, 326271, Note_on_c, 11, 69, 0
13, 326280, Note_on_c, 11, 84, 92
13, 326331, Note_on_c, 11, 84, 0
13, 326340, Note_on_c, 11, 84, 92
13, 326391, Note_on_c, 11, 84, 0
13, 326400, Note_on_c, 11, 77, 92
13, 326451, Note_on_c, 11, 77, 0
13, 326460, Note_on_c, 11, 77, 92
13, 326511, Note_on_c, 11, 77, 0
13, 326520, Note_on_c, 11, 79, 92
13, 326571, Note_on_c, 11, 79, 0
13, 326580, Note_on_c, 11, 79, 92
13, 326631, Note_on_c, 11, 79, 0
13, 326640, Note_on_c, 11, 81, 92
13, 326691, Note_on_c, 11, 81, 0
13, 326700, Note_on_c, 11, 81, 92
13, 326751, Note_on_c, 11, 81, 0
13, 326760, Note_on_c, 11, 77, 92
13, 326811, Note_on_c, 11, 77, 0
13, 326820, Note_on_c, 11, 77, 92
13, 326871, Note_on_c, 11, 77, 0
13, 326880, Note_on_c, 11, 69, 92
13, 326880, Note_on_c, 11, 81, 92
13, 326931, Note_on_c, 11, 69, 0
13, 326931, Note_on_c, 11, 81, 0
13, 326940, Note_on_c, 11, 81, 92
13, 326940, Note_on_c, 11, 69, 92
13, 326991, Note_on_c, 11, 81, 0
13, 326991, Note_on_c, 11, 69, 0
13, 327000, Note_on_c, 11, 84, 92
13, 327051, Note_on_c, 11, 84, 0
13, 327060, Note_on_c, 11, 84, 92
13, 327111, Note_on_c, 11, 84, 0
13, 327120, Note_on_c, 11, 77, 92
13, 327171, Note_on_c, 11, 77, 0
13, 327180, Note_on_c, 11, 77, 92
13, 327231, Note_on_c, 11, 77, 0
13, 327240, Note_on_c, 11, 79, 92
13, 327291, Note_on_c, 11, 79, 0
13, 327300, Note_on_c, 11, 79, 92
13, 327351, Note_on_c, 11, 79, 0
13, 327360, Note_on_c, 11, 81, 92
13, 327411, Note_on_c, 11, 81, 0
13, 327420, Note_on_c, 11, 81, 92
13, 327471, Note_on_c, 11, 81, 0
13, 327480, Note_on_c, 11, 77, 92
13, 327531, Note_on_c, 11, 77, 0
13, 327540, Note_on_c, 11, 77, 92
13, 327591, Note_on_c, 11, 77, 0
13, 327600, Note_on_c, 11, 69, 92
13, 327600, Note_on_c, 11, 81, 92
13, 327651, Note_on_c, 11, 69, 0
13, 327651, Note_on_c, 11, 81, 0
13, 327660, Note_on_c, 11, 69, 92
13, 327660, Note_on_c, 11, 81, 92
13, 327711, Note_on_c, 11, 69, 0
13, 327711, Note_on_c, 11, 81, 0
13, 327720, Note_on_c, 11, 84, 92
13, 327771, Note_on_c, 11, 84, 0
13, 327780, Note_on_c, 11, 84, 92
13, 327831, Note_on_c, 11, 84, 0
13, 327840, Note_on_c, 11, 77, 92
13, 327891, Note_on_c, 11, 77, 0
13, 327900, Note_on_c, 11, 77, 92
13, 327951, Note_on_c, 11, 77, 0
13, 327960, Note_on_c, 11, 79, 92
13, 328011, Note_on_c, 11, 79, 0
13, 328020, Note_on_c, 11, 79, 92
13, 328071, Note_on_c, 11, 79, 0
13, 328080, Note_on_c, 11, 81, 92
13, 328131, Note_on_c, 11, 81, 0
13, 328140, Note_on_c, 11, 81, 92
13, 328191, Note_on_c, 11, 81, 0
13, 328200, Note_on_c, 11, 77, 92
13, 328251, Note_on_c, 11, 77, 0
13, 328260, Note_on_c, 11, 77, 92
13, 328311, Note_on_c, 11, 77, 0
13, 328320, Note_on_c, 11, 79, 92
13, 328320, Note_on_c, 11, 72, 92
13, 328320, Note_on_c, 11, 64, 92
13, 328439, Note_on_c, 11, 79, 0
13, 328439, Note_on_c, 11, 72, 0
13, 328439, Note_on_c, 11, 64, 0
13, 328560, Note_on_c, 11, 79, 92
13, 328560, Note_on_c, 11, 72, 92
13, 328560, Note_on_c, 11, 64, 92
13, 328679, Note_on_c, 11, 79, 0
13, 328679, Note_on_c, 11, 72, 0
13, 328679, Note_on_c, 11, 64, 0
13, 328800, Note_on_c, 11, 72, 92
13, 328800, Note_on_c, 11, 79, 92
13, 328800, Note_on_c, 11, 64, 92
13, 328919, Note_on_c, 11, 72, 0
13, 328919, Note_on_c, 11, 79, 0
13, 328919, Note_on_c, 11, 64, 0
13, 329040, Note_on_c, 11, 69, 92
13, 329040, Note_on_c, 11, 81, 92
13, 329091, Note_on_c, 11, 69, 0
13, 329091, Note_on_c, 11, 81, 0
13, 329100, Note_on_c, 11, 69, 92
13, 329100, Note_on_c, 11, 81, 92
13, 329151, Note_on_c, 11, 69, 0
13, 329151, Note_on_c, 11, 81, 0
13, 329160, Note_on_c, 11, 84, 92
13, 329211, Note_on_c, 11, 84, 0
13, 329220, Note_on_c, 11, 84, 92
13, 329271, Note_on_c, 11, 84, 0
13, 329280, Note_on_c, 11, 77, 92
13, 329331, Note_on_c, 11, 77, 0
13, 329340, Note_on_c, 11, 77, 92
13, 329391, Note_on_c, 11, 77, 0
13, 329400, Note_on_c, 11, 79, 92
13, 329451, Note_on_c, 11, 79, 0
13, 329460, Note_on_c, 11, 79, 92
13, 329511, Note_on_c, 11, 79, 0
13, 329520, Note_on_c, 11, 81, 92
13, 329571, Note_on_c, 11, 81, 0
13, 329580, Note_on_c, 11, 81, 92
13, 329631, Note_on_c, 11, 81, 0
13, 329640, Note_on_c, 11, 77, 92
13, 329691, Note_on_c, 11, 77, 0
13, 329700, Note_on_c, 11, 77, 92
13, 329751, Note_on_c, 11, 77, 0
13, 329760, Note_on_c, 11, 81, 92
13, 329760, Note_on_c, 11, 69, 92
13, 329811, Note_on_c, 11, 81, 0
13, 329811, Note_on_c, 11, 69, 0
13, 329820, Note_on_c, 11, 69, 92
13, 329820, Note_on_c, 11, 81, 92
13, 329871, Note_on_c, 11, 69, 0
13, 329871, Note_on_c, 11, 81, 0
13, 329880, Note_on_c, 11, 84, 92
13, 329931, Note_on_c, 11, 84, 0
13, 329940, Note_on_c, 11, 84, 92
13, 329991, Note_on_c, 11, 84, 0
13, 330000, Note_on_c, 11, 77, 92
13, 330051, Note_on_c, 11, 77, 0
13, 330060, Note_on_c, 11, 77, 92
13, 330111, Note_on_c, 11, 77, 0
13, 330120, Note_on_c, 11, 79, 92
13, 330171, Note_on_c, 11, 79, 0
13, 330180, Note_on_c, 11, 79, 92
13, 330231, Note_on_c, 11, 79, 0
13, 330240, Note_on_c, 11, 81, 92
13, 330291, Note_on_c, 11, 81, 0
13, 330300, Note_on_c, 11, 81, 92
13, 330351, Note_on_c, 11, 81, 0
13, 330360, Note_on_c, 11, 77, 92
13, 330411, Note_on_c, 11, 77, 0
13, 330420, Note_on_c, 11, 77, 92
13, 330471, Note_on_c, 11, 77, 0
13, 330480, Note_on_c, 11, 81, 92
13, 330480, Note_on_c, 11, 69, 92
13, 330531, Note_on_c, 11, 81, 0
13, 330531, Note_on_c, 11, 69, 0
13, 330540, Note_on_c, 11, 81, 92
13, 330540, Note_on_c, 11, 69, 92
13, 330591, Note_on_c, 11, 81, 0
13, 330591, Note_on_c, 11, 69, 0
13, 330600, Note_on_c, 11, 84, 92
13, 330651, Note_on_c, 11, 84, 0
13, 330660, Note_on_c, 11, 84, 92
13, 330711, Note_on_c, 11, 84, 0
13, 330720, Note_on_c, 11, 77, 92
13, 330771, Note_on_c, 11, 77, 0
13, 330780, Note_on_c, 11, 77, 92
13, 330831, Note_on_c, 11, 77, 0
13, 330840, Note_on_c, 11, 79, 92
13, 330891, Note_on_c, 11, 79, 0
13, 330900, Note_on_c, 11, 79, 92
13, 330951, Note_on_c, 11, 79, 0
13, 330960, Note_on_c, 11, 81, 92
13, 331011, Note_on_c, 11, 81, 0
13, 331020, Note_on_c, 11, 81, 92
13, 331071, Note_on_c, 11, 81, 0
13, 331080, Note_on_c, 11, 77, 92
13, 331131, Note_on_c, 11, 77, 0
13, 331140, Note_on_c, 11, 77, 92
13, 331191, Note_on_c, 11, 77, 0
13, 331200, Note_on_c, 11, 79, 92
13, 331200, Note_on_c, 11, 64, 92
13, 331200, Note_on_c, 11, 72, 92
13, 331319, Note_on_c, 11, 79, 0
13, 331319, Note_on_c, 11, 64, 0
13, 331319, Note_on_c, 11, 72, 0
13, 331440, Note_on_c, 11, 79, 92
13, 331440, Note_on_c, 11, 64, 92
13, 331440, Note_on_c, 11, 72, 92
13, 331559, Note_on_c, 11, 79, 0
13, 331559, Note_on_c, 11, 64, 0
13, 331559, Note_on_c, 11, 72, 0
13, 331680, Note_on_c, 11, 72, 92
13, 331680, Note_on_c, 11, 64, 92
13, 331680, Note_on_c, 11, 79, 92
13, 331799, Note_on_c, 11, 72, 0
13, 331799, Note_on_c, 11, 64, 0
13, 331799, Note_on_c, 11, 79, 0
13, 332640, Note_on_c, 11, 81, 92
13, 332640, Note_on_c, 11, 65, 92
13, 332640, Note_on_c, 11, 72, 92
13, 332759, Note_on_c, 11, 81, 0
13, 332759, Note_on_c, 11, 65, 0
13, 332759, Note_on_c, 11, 72, 0
13, 332880, Note_on_c, 11, 81, 92
13, 332880, Note_on_c, 11, 65, 92
13, 332880, Note_on_c, 11, 72, 92
13, 332999, Note_on_c, 11, 81, 0
13, 332999, Note_on_c, 11, 65, 0
13, 332999, Note_on_c, 11, 72, 0
13, 333120, Note_on_c, 11, 72, 92
13, 333120, Note_on_c, 11, 65, 92
13, 333120, Note_on_c, 11, 81, 92
13, 333239, Note_on_c, 11, 72, 0
13, 333239, Note_on_c, 11, 65, 0
13, 333239, Note_on_c, 11, 81, 0
13, 333840, Program_c, 11, 45
13, 334080, Note_on_c, 11, 64, 44
13, 334080, Note_on_c, 11, 55, 44
13, 334319, Note_on_c, 11, 64, 0
13, 334319, Note_on_c, 11, 55, 0
13, 334320, Note_on_c, 11, 55, 44
13, 334320, Note_on_c, 11, 64, 44
13, 334559, Note_on_c, 11, 55, 0
13, 334559, Note_on_c, 11, 64, 0
13, 334560, Note_on_c, 11, 64, 44
13, 334560, Note_on_c, 11, 55, 44
13, 334799, Note_on_c, 11, 64, 0
13, 334799, Note_on_c, 11, 55, 0
13, 335520, Note_on_c, 11, 65, 44
13, 335520, Note_on_c, 11, 57, 44
13, 335759, Note_on_c, 11, 65, 0
13, 335759, Note_on_c, 11, 57, 0
13, 335760, Note_on_c, 11, 57, 44
13, 335760, Note_on_c, 11, 65, 44
13, 335999, Note_on_c, 11, 57, 0
13, 335999, Note_on_c, 11, 65, 0
13, 336000, Note_on_c, 11, 65, 44
13, 336000, Note_on_c, 11, 57, 44
13, 336239, Note_on_c, 11, 65, 0
13, 336239, Note_on_c, 11, 57, 0
13, 336960, Note_on_c, 11, 65, 44
13, 336960, Control_c, 11, 11, 127
13, 337140, Control_c, 11, 11, 126
13, 337199, Note_on_c, 11, 65, 0
13, 337200, Note_on_c, 11, 65, 44
13, 337320, Control_c, 11, 11, 125
13, 337439, Note_on_c, 11, 65, 0
13, 337500, Control_c, 11, 11, 123
13, 337680, Control_c, 11, 11, 122
13, 337860, Control_c, 11, 11, 121
13, 338040, Control_c, 11, 11, 120
13, 338220, Control_c, 11, 11, 118
13, 338400, Control_c, 11, 11, 117
13, 338400, Note_on_c, 11, 65, 44
13, 338580, Control_c, 11, 11, 116
13, 338639, Note_on_c, 11, 65, 0
13, 338640, Note_on_c, 11, 65, 44
13, 338760, Control_c, 11, 11, 115
13, 338879, Note_on_c, 11, 65, 0
13, 338940, Control_c, 11, 11, 113
13, 341040, Program_c, 11, 48
13, 341040, Control_c, 11, 11, 127
13, 341280, Note_on_c, 11, 72, 44
13, 341519, Note_on_c, 11, 72, 0
13, 341520, Note_on_c, 11, 69, 44
13, 341639, Note_on_c, 11, 69, 0
13, 341640, Note_on_c, 11, 70, 44
13, 341744, Note_on_c, 11, 70, 0
13, 341760, Note_on_c, 11, 72, 44
13, 341849, Note_on_c, 11, 72, 0
13, 341880, Note_on_c, 11, 69, 44
13, 341969, Note_on_c, 11, 69, 0
13, 342000, Note_on_c, 11, 65, 44
13, 342239, Note_on_c, 11, 65, 0
13, 342239, End_track
14, 0, Start_track
14, 0, Title_t, "Violin II"
14, 0, MIDI_port, 0
14, 0, Program_c, 12, 48
14, 0, Control_c, 12, 7, 96
14, 0, Control_c, 12, 10, 24
14, 0, Control_c, 12, 11, 127
14, 0, Note_on_c, 12, 84, 76
14, 0, Note_on_c, 12, 69, 76
14, 239, Note_on_c, 12, 84, 0
14, 240, Note_on_c, 12, 81, 76
14, 359, Note_on_c, 12, 81, 0
14, 360, Note_on_c, 12, 82, 76
14, 464, Note_on_c, 12, 82, 0
14, 479, Note_on_c, 12, 69, 0
14, 480, Note_on_c, 12, 84, 76
14, 569, Note_on_c, 12, 84, 0
14, 600, Note_on_c, 12, 81, 76
14, 689, Note_on_c, 12, 81, 0
14, 720, Note_on_c, 12, 77, 76
14, 1184, Note_on_c, 12, 77, 0
14, 1200, Note_on_c, 12, 72, 76
14, 1289, Note_on_c, 12, 72, 0
14, 1320, Note_on_c, 12, 77, 76
14, 1409, Note_on_c, 12, 77, 0
14, 1440, Note_on_c, 12, 77, 76
14, 1559, Note_on_c, 12, 77, 0
14, 1560, Note_on_c, 12, 76, 76
14, 1664, Note_on_c, 12, 76, 0
14, 1680, Note_on_c, 12, 64, 76
14, 1769, Note_on_c, 12, 64, 0
14, 1800, Note_on_c, 12, 65, 76
14, 1889, Note_on_c, 12, 65, 0
14, 1920, Note_on_c, 12, 67, 76
14, 2009, Note_on_c, 12, 67, 0
14, 2040, Note_on_c, 12, 69, 76
14, 2129, Note_on_c, 12, 69, 0
14, 2160, Note_on_c, 12, 70, 76
14, 2399, Note_on_c, 12, 70, 0
14, 5760, Note_on_c, 12, 70, 76
14, 5999, Note_on_c, 12, 70, 0
14, 6000, Note_on_c, 12, 67, 76
14, 6119, Note_on_c, 12, 67, 0
14, 6120, Note_on_c, 12, 69, 76
14, 6224, Note_on_c, 12, 69, 0
14, 6240, Note_on_c, 12, 70, 76
14, 6329, Note_on_c, 12, 70, 0
14, 6360, Note_on_c, 12, 71, 76
14, 6449, Note_on_c, 12, 71, 0
14, 6480, Note_on_c, 12, 72, 84
14, 6539, Note_on_c, 12, 72, 0
14, 6540, Note_on_c, 12, 72, 76
14, 6944, Note_on_c, 12, 72, 0
14, 6960, Note_on_c, 12, 70, 76
14, 7184, Note_on_c, 12, 70, 0
14, 7200, Note_on_c, 12, 69, 76
14, 7259, Note_on_c, 12, 69, 0
14, 7260, Note_on_c, 12, 72, 76
14, 7319, Note_on_c, 12, 72, 0
14, 7440, Note_on_c, 12, 65, 76
14, 7559, Note_on_c, 12, 65, 0
14, 7680, Note_on_c, 12, 69, 76
14, 7739, Note_on_c, 12, 69, 0
14, 7740, Note_on_c, 12, 67, 76
14, 7799, Note_on_c, 12, 67, 0
14, 7920, Note_on_c, 12, 65, 76
14, 7971, Note_on_c, 12, 65, 0
14, 7980, Note_on_c, 12, 65, 76
14, 8031, Note_on_c, 12, 65, 0
14, 8040, Note_on_c, 12, 69, 76
14, 8091, Note_on_c, 12, 69, 0
14, 8100, Note_on_c, 12, 69, 76
14, 8151, Note_on_c, 12, 69, 0
14, 8160, Note_on_c, 12, 65, 76
14, 8211, Note_on_c, 12, 65, 0
14, 8220, Note_on_c, 12, 65, 76
14, 8271, Note_on_c, 12, 65, 0
14, 8280, Note_on_c, 12, 69, 76
14, 8331, Note_on_c, 12, 69, 0
14, 8340, Note_on_c, 12, 69, 76
14, 8391, Note_on_c, 12, 69, 0
14, 8400, Note_on_c, 12, 65, 76
14, 8451, Note_on_c, 12, 65, 0
14, 8460, Note_on_c, 12, 65, 76
14, 8511, Note_on_c, 12, 65, 0
14, 8520, Note_on_c, 12, 69, 76
14, 8571, Note_on_c, 12, 69, 0
14, 8580, Note_on_c, 12, 69, 76
14, 8631, Note_on_c, 12, 69, 0
14, 8640, Note_on_c, 12, 65, 76
14, 8691, Note_on_c, 12, 65, 0
14, 8700, Note_on_c, 12, 65, 76
14, 8751, Note_on_c, 12, 65, 0
14, 8760, Note_on_c, 12, 69, 76
14, 8811, Note_on_c, 12, 69, 0
14, 8820, Note_on_c, 12, 69, 76
14, 8871, Note_on_c, 12, 69, 0
14, 8880, Note_on_c, 12, 65, 76
14, 8931, Note_on_c, 12, 65, 0
14, 8940, Note_on_c, 12, 65, 76
14, 8991, Note_on_c, 12, 65, 0
14, 9000, Note_on_c, 12, 69, 76
14, 9051, Note_on_c, 12, 69, 0
14, 9060, Note_on_c, 12, 69, 76
14, 9111, Note_on_c, 12, 69, 0
14, 9120, Note_on_c, 12, 65, 76
14, 9171, Note_on_c, 12, 65, 0
14, 9180, Note_on_c, 12, 65, 76
14, 9231, Note_on_c, 12, 65, 0
14, 9240, Note_on_c, 12, 69, 76
14, 9291, Note_on_c, 12, 69, 0
14, 9300, Note_on_c, 12, 69, 76
14, 9351, Note_on_c, 12, 69, 0
14, 9360, Note_on_c, 12, 65, 76
14, 9411, Note_on_c, 12, 65, 0
14, 9420, Note_on_c, 12, 65, 76
14, 9471, Note_on_c, 12, 65, 0
14, 9480, Note_on_c, 12, 70, 76
14, 9531, Note_on_c, 12, 70, 0
14, 9540, Note_on_c, 12, 70, 76
14, 9591, Note_on_c, 12, 70, 0
14, 9600, Note_on_c, 12, 65, 76
14, 9651, Note_on_c, 12, 65, 0
14, 9660, Note_on_c, 12, 65, 76
14, 9711, Note_on_c, 12, 65, 0
14, 9720, Note_on_c, 12, 70, 76
14, 9771, Note_on_c, 12, 70, 0
14, 9780, Note_on_c, 12, 70, 76
14, 9831, Note_on_c, 12, 70, 0
14, 9840, Note_on_c, 12, 65, 76
14, 9891, Note_on_c, 12, 65, 0
14, 9900, Note_on_c, 12, 65, 76
14, 9951, Note_on_c, 12, 65, 0
14, 9960, Note_on_c, 12, 70, 76
14, 10011, Note_on_c, 12, 70, 0
14, 10020, Note_on_c, 12, 70, 76
14, 10071, Note_on_c, 12, 70, 0
14, 10080, Note_on_c, 12, 65, 76
14, 10131, Note_on_c, 12, 65, 0
14, 10140, Note_on_c, 12, 65, 76
14, 10191, Note_on_c, 12, 65, 0
14, 10200, Note_on_c, 12, 70, 76
14, 10251, Note_on_c, 12, 70, 0
14, 10260, Note_on_c, 12, 70, 76
14, 10311, Note_on_c, 12, 70, 0
14, 10320, Note_on_c, 12, 65, 76
14, 10371, Note_on_c, 12, 65, 0
14, 10380, Note_on_c, 12, 65, 76
14, 10431, Note_on_c, 12, 65, 0
14, 10440, Note_on_c, 12, 70, 76
14, 10491, Note_on_c, 12, 70, 0
14, 10500, Note_on_c, 12, 70, 76
14, 10551, Note_on_c, 12, 70, 0
14, 10560, Note_on_c, 12, 65, 76
14, 10611, Note_on_c, 12, 65, 0
14, 10620, Note_on_c, 12, 65, 76
14, 10671, Note_on_c, 12, 65, 0
14, 10680, Note_on_c, 12, 70, 76
14, 10731, Note_on_c, 12, 70, 0
14, 10740, Note_on_c, 12, 70, 76
14, 10791, Note_on_c, 12, 70, 0
14, 10800, Note_on_c, 12, 65, 76
14, 10851, Note_on_c, 12, 65, 0
14, 10860, Note_on_c, 12, 65, 76
14, 10911, Note_on_c, 12, 65, 0
14, 10920, Note_on_c, 12, 67, 76
14, 10971, Note_on_c, 12, 67, 0
14, 10980, Note_on_c, 12, 67, 76
14, 11031, Note_on_c, 12, 67, 0
14, 11040, Note_on_c, 12, 65, 76
14, 11091, Note_on_c, 12, 65, 0
14, 11100, Note_on_c, 12, 65, 76
14, 11151, Note_on_c, 12, 65, 0
14, 11160, Note_on_c, 12, 67, 76
14, 11211, Note_on_c, 12, 67, 0
14, 11220, Note_on_c, 12, 67, 76
14, 11271, Note_on_c, 12, 67, 0
14, 11280, Note_on_c, 12, 65, 76
14, 11331, Note_on_c, 12, 65, 0
14, 11340, Note_on_c, 12, 65, 76
14, 11391, Note_on_c, 12, 65, 0
14, 11400, Note_on_c, 12, 67, 76
14, 11451, Note_on_c, 12, 67, 0
14, 11460, Note_on_c, 12, 67, 76
14, 11511, Note_on_c, 12, 67, 0
14, 11520, Note_on_c, 12, 65, 76
14, 11571, Note_on_c, 12, 65, 0
14, 11580, Note_on_c, 12, 65, 76
14, 11631, Note_on_c, 12, 65, 0
14, 11640, Note_on_c, 12, 67, 76
14, 11691, Note_on_c, 12, 67, 0
14, 11700, Note_on_c, 12, 67, 76
14, 11751, Note_on_c, 12, 67, 0
14, 11760, Note_on_c, 12, 65, 76
14, 11811, Note_on_c, 12, 65, 0
14, 11820, Note_on_c, 12, 65, 76
14, 11871, Note_on_c, 12, 65, 0
14, 11880, Note_on_c, 12, 67, 76
14, 11931, Note_on_c, 12, 67, 0
14, 11940, Note_on_c, 12, 67, 76
14, 11991, Note_on_c, 12, 67, 0
14, 12000, Note_on_c, 12, 65, 76
14, 12051, Note_on_c, 12, 65, 0
14, 12060, Note_on_c, 12, 65, 76
14, 12111, Note_on_c, 12, 65, 0
14, 12120, Note_on_c, 12, 67, 76
14, 12171, Note_on_c, 12, 67, 0
14, 12180, Note_on_c, 12, 67, 76
14, 12231, Note_on_c, 12, 67, 0
14, 12240, Note_on_c, 12, 67, 76
14, 12291, Note_on_c, 12, 67, 0
14, 12300, Note_on_c, 12, 67, 76
14, 12351, Note_on_c, 12, 67, 0
14, 12360, Note_on_c, 12, 72, 76
14, 12411, Note_on_c, 12, 72, 0
14, 12420, Note_on_c, 12, 72, 76
14, 12471, Note_on_c, 12, 72, 0
14, 12480, Note_on_c, 12, 64, 76
14, 12531, Note_on_c, 12, 64, 0
14, 12540, Note_on_c, 12, 64, 76
14, 12591, Note_on_c, 12, 64, 0
14, 12600, Note_on_c, 12, 67, 76
14, 12651, Note_on_c, 12, 67, 0
14, 12660, Note_on_c, 12, 67, 76
14, 12711, Note_on_c, 12, 67, 0
14, 12720, Note_on_c, 12, 72, 76
14, 12771, Note_on_c, 12, 72, 0
14, 12780, Note_on_c, 12, 72, 76
14, 12831, Note_on_c, 12, 72, 0
14, 12840, Note_on_c, 12, 67, 76
14, 12891, Note_on_c, 12, 67, 0
14, 12900, Note_on_c, 12, 67, 76
14, 12951, Note_on_c, 12, 67, 0
14, 12960, Note_on_c, 12, 64, 76
14, 13011, Note_on_c, 12, 64, 0
14, 13020, Note_on_c, 12, 64, 76
14, 13071, Note_on_c, 12, 64, 0
14, 13080, Note_on_c, 12, 67, 76
14, 13131, Note_on_c, 12, 67, 0
14, 13140, Note_on_c, 12, 67, 76
14, 13191, Note_on_c, 12, 67, 0
14, 13200, Note_on_c, 12, 60, 76
14, 13251, Note_on_c, 12, 60, 0
14, 13260, Note_on_c, 12, 60, 76
14, 13311, Note_on_c, 12, 60, 0
14, 13320, Note_on_c, 12, 64, 76
14, 13371, Note_on_c, 12, 64, 0
14, 13380, Note_on_c, 12, 64, 76
14, 13431, Note_on_c, 12, 64, 0
14, 13440, Note_on_c, 12, 67, 76
14, 13491, Note_on_c, 12, 67, 0
14, 13500, Note_on_c, 12, 67, 76
14, 13551, Note_on_c, 12, 67, 0
14, 13560, Note_on_c, 12, 64, 76
14, 13611, Note_on_c, 12, 64, 0
14, 13620, Note_on_c, 12, 64, 76
14, 13671, Note_on_c, 12, 64, 0
14, 13680, Note_on_c, 12, 65, 76
14, 13731, Note_on_c, 12, 65, 0
14, 13740, Note_on_c, 12, 65, 76
14, 13791, Note_on_c, 12, 65, 0
14, 13800, Note_on_c, 12, 69, 76
14, 13851, Note_on_c, 12, 69, 0
14, 13860, Note_on_c, 12, 69, 76
14, 13911, Note_on_c, 12, 69, 0
14, 13920, Note_on_c, 12, 65, 76
14, 13971, Note_on_c, 12, 65, 0
14, 13980, Note_on_c, 12, 65, 76
14, 14031, Note_on_c, 12, 65, 0
14, 14040, Note_on_c, 12, 69, 76
14, 14091, Note_on_c, 12, 69, 0
14, 14100, Note_on_c, 12, 69, 76
14, 14151, Note_on_c, 12, 69, 0
14, 14160, Note_on_c, 12, 65, 76
14, 14211, Note_on_c, 12, 65, 0
14, 14220, Note_on_c, 12, 65, 76
14, 14271, Note_on_c, 12, 65, 0
14, 14280, Note_on_c, 12, 69, 76
14, 14331, Note_on_c, 12, 69, 0
14, 14340, Note_on_c, 12, 69, 76
14, 14391, Note_on_c, 12, 69, 0
14, 14400, Note_on_c, 12, 65, 76
14, 14451, Note_on_c, 12, 65, 0
14, 14460, Note_on_c, 12, 65, 76
14, 14511, Note_on_c, 12, 65, 0
14, 14520, Note_on_c, 12, 69, 76
14, 14571, Note_on_c, 12, 69, 0
14, 14580, Note_on_c, 12, 69, 76
14, 14631, Note_on_c, 12, 69, 0
14, 14640, Note_on_c, 12, 65, 76
14, 14691, Note_on_c, 12, 65, 0
14, 14700, Note_on_c, 12, 65, 76
14, 14751, Note_on_c, 12, 65, 0
14, 14760, Note_on_c, 12, 69, 76
14, 14811, Note_on_c, 12, 69, 0
14, 14820, Note_on_c, 12, 69, 76
14, 14871, Note_on_c, 12, 69, 0
14, 14880, Note_on_c, 12, 65, 76
14, 14931, Note_on_c, 12, 65, 0
14, 14940, Note_on_c, 12, 65, 76
14, 14991, Note_on_c, 12, 65, 0
14, 15000, Note_on_c, 12, 69, 76
14, 15051, Note_on_c, 12, 69, 0
14, 15060, Note_on_c, 12, 69, 76
14, 15111, Note_on_c, 12, 69, 0
14, 15120, Note_on_c, 12, 65, 76
14, 15171, Note_on_c, 12, 65, 0
14, 15180, Note_on_c, 12, 65, 76
14, 15231, Note_on_c, 12, 65, 0
14, 15240, Note_on_c, 12, 70, 76
14, 15291, Note_on_c, 12, 70, 0
14, 15300, Note_on_c, 12, 70, 76
14, 15351, Note_on_c, 12, 70, 0
14, 15360, Note_on_c, 12, 65, 76
14, 15411, Note_on_c, 12, 65, 0
14, 15420, Note_on_c, 12, 65, 76
14, 15471, Note_on_c, 12, 65, 0
14, 15480, Note_on_c, 12, 70, 76
14, 15531, Note_on_c, 12, 70, 0
14, 15540, Note_on_c, 12, 70, 76
14, 15591, Note_on_c, 12, 70, 0
14, 15600, Note_on_c, 12, 65, 76
14, 15651, Note_on_c, 12, 65, 0
14, 15660, Note_on_c, 12, 65, 76
14, 15711, Note_on_c, 12, 65, 0
14, 15720, Note_on_c, 12, 70, 76
14, 15771, Note_on_c, 12, 70, 0
14, 15780, Note_on_c, 12, 70, 76
14, 15831, Note_on_c, 12, 70, 0
14, 15840, Note_on_c, 12, 65, 76
14, 15891, Note_on_c, 12, 65, 0
14, 15900, Note_on_c, 12, 65, 76
14, 15951, Note_on_c, 12, 65, 0
14, 15960, Note_on_c, 12, 70, 76
14, 16011, Note_on_c, 12, 70, 0
14, 16020, Note_on_c, 12, 70, 76
14, 16071, Note_on_c, 12, 70, 0
14, 16080, Note_on_c, 12, 65, 76
14, 16131, Note_on_c, 12, 65, 0
14, 16140, Note_on_c, 12, 65, 76
14, 16191, Note_on_c, 12, 65, 0
14, 16200, Note_on_c, 12, 70, 76
14, 16251, Note_on_c, 12, 70, 0
14, 16260, Note_on_c, 12, 70, 76
14, 16311, Note_on_c, 12, 70, 0
14, 16320, Note_on_c, 12, 65, 76
14, 16371, Note_on_c, 12, 65, 0
14, 16380, Note_on_c, 12, 65, 76
14, 16431, Note_on_c, 12, 65, 0
14, 16440, Note_on_c, 12, 70, 76
14, 16491, Note_on_c, 12, 70, 0
14, 16500, Note_on_c, 12, 70, 76
14, 16551, Note_on_c, 12, 70, 0
14, 16560, Note_on_c, 12, 62, 76
14, 16611, Note_on_c, 12, 62, 0
14, 16620, Note_on_c, 12, 62, 76
14, 16671, Note_on_c, 12, 62, 0
14, 16680, Note_on_c, 12, 70, 76
14, 16731, Note_on_c, 12, 70, 0
14, 16740, Note_on_c, 12, 70, 76
14, 16791, Note_on_c, 12, 70, 0
14, 16800, Note_on_c, 12, 62, 76
14, 16851, Note_on_c, 12, 62, 0
14, 16860, Note_on_c, 12, 62, 76
14, 16911, Note_on_c, 12, 62, 0
14, 16920, Note_on_c, 12, 70, 76
14, 16971, Note_on_c, 12, 70, 0
14, 16980, Note_on_c, 12, 70, 76
14, 17031, Note_on_c, 12, 70, 0
14, 17040, Note_on_c, 12, 62, 76
14, 17091, Note_on_c, 12, 62, 0
14, 17100, Note_on_c, 12, 62, 76
14, 17151, Note_on_c, 12, 62, 0
14, 17160, Note_on_c, 12, 70, 76
14, 17211, Note_on_c, 12, 70, 0
14, 17220, Note_on_c, 12, 70, 76
14, 17271, Note_on_c, 12, 70, 0
14, 17280, Note_on_c, 12, 62, 76
14, 17331, Note_on_c, 12, 62, 0
14, 17340, Note_on_c, 12, 62, 76
14, 17391, Note_on_c, 12, 62, 0
14, 17400, Note_on_c, 12, 70, 76
14, 17451, Note_on_c, 12, 70, 0
14, 17460, Note_on_c, 12, 70, 76
14, 17511, Note_on_c, 12, 70, 0
14, 17520, Note_on_c, 12, 62, 76
14, 17571, Note_on_c, 12, 62, 0
14, 17580, Note_on_c, 12, 62, 76
14, 17631, Note_on_c, 12, 62, 0
14, 17640, Note_on_c, 12, 70, 76
14, 17691, Note_on_c, 12, 70, 0
14, 17700, Note_on_c, 12, 70, 76
14, 17751, Note_on_c, 12, 70, 0
14, 17760, Note_on_c, 12, 62, 76
14, 17811, Note_on_c, 12, 62, 0
14, 17820, Note_on_c, 12, 62, 76
14, 17871, Note_on_c, 12, 62, 0
14, 17880, Note_on_c, 12, 70, 76
14, 17931, Note_on_c, 12, 70, 0
14, 17940, Note_on_c, 12, 70, 76
14, 17991, Note_on_c, 12, 70, 0
14, 18000, Note_on_c, 12, 62, 76
14, 18051, Note_on_c, 12, 62, 0
14, 18060, Note_on_c, 12, 62, 76
14, 18111, Note_on_c, 12, 62, 0
14, 18120, Note_on_c, 12, 70, 76
14, 18171, Note_on_c, 12, 70, 0
14, 18180, Note_on_c, 12, 70, 76
14, 18231, Note_on_c, 12, 70, 0
14, 18240, Note_on_c, 12, 62, 76
14, 18291, Note_on_c, 12, 62, 0
14, 18300, Note_on_c, 12, 62, 76
14, 18351, Note_on_c, 12, 62, 0
14, 18360, Note_on_c, 12, 70, 76
14, 18411, Note_on_c, 12, 70, 0
14, 18420, Note_on_c, 12, 70, 76
14, 18471, Note_on_c, 12, 70, 0
14, 18480, Note_on_c, 12, 62, 76
14, 18531, Note_on_c, 12, 62, 0
14, 18540, Note_on_c, 12, 62, 76
14, 18591, Note_on_c, 12, 62, 0
14, 18600, Note_on_c, 12, 70, 76
14, 18651, Note_on_c, 12, 70, 0
14, 18660, Note_on_c, 12, 70, 76
14, 18711, Note_on_c, 12, 70, 0
14, 18720, Note_on_c, 12, 62, 76
14, 18771, Note_on_c, 12, 62, 0
14, 18780, Note_on_c, 12, 62, 76
14, 18831, Note_on_c, 12, 62, 0
14, 18840, Note_on_c, 12, 70, 76
14, 18891, Note_on_c, 12, 70, 0
14, 18900, Note_on_c, 12, 70, 76
14, 18951, Note_on_c, 12, 70, 0
14, 18960, Note_on_c, 12, 62, 76
14, 19011, Note_on_c, 12, 62, 0
14, 19020, Note_on_c, 12, 62, 76
14, 19071, Note_on_c, 12, 62, 0
14, 19080, Note_on_c, 12, 70, 76
14, 19131, Note_on_c, 12, 70, 0
14, 19140, Note_on_c, 12, 70, 76
14, 19191, Note_on_c, 12, 70, 0
14, 19200, Note_on_c, 12, 62, 76
14, 19251, Note_on_c, 12, 62, 0
14, 19260, Note_on_c, 12, 62, 76
14, 19311, Note_on_c, 12, 62, 0
14, 19320, Note_on_c, 12, 70, 76
14, 19371, Note_on_c, 12, 70, 0
14, 19380, Note_on_c, 12, 70, 76
14, 19431, Note_on_c, 12, 70, 0
14, 19440, Note_on_c, 12, 62, 76
14, 19491, Note_on_c, 12, 62, 0
14, 19500, Note_on_c, 12, 62, 76
14, 19551, Note_on_c, 12, 62, 0
14, 19560, Note_on_c, 12, 70, 76
14, 19611, Note_on_c, 12, 70, 0
14, 19620, Note_on_c, 12, 70, 76
14, 19671, Note_on_c, 12, 70, 0
14, 19680, Note_on_c, 12, 62, 76
14, 19731, Note_on_c, 12, 62, 0
14, 19740, Note_on_c, 12, 62, 76
14, 19791, Note_on_c, 12, 62, 0
14, 19800, Note_on_c, 12, 70, 76
14, 19851, Note_on_c, 12, 70, 0
14, 19860, Note_on_c, 12, 70, 76
14, 19911, Note_on_c, 12, 70, 0
14, 19920, Note_on_c, 12, 62, 84
14, 19971, Note_on_c, 12, 62, 0
14, 19980, Note_on_c, 12, 62, 76
14, 20031, Note_on_c, 12, 62, 0
14, 20040, Note_on_c, 12, 70, 76
14, 20091, Note_on_c, 12, 70, 0
14, 20100, Note_on_c, 12, 70, 76
14, 20151, Note_on_c, 12, 70, 0
14, 20160, Note_on_c, 12, 62, 76
14, 20211, Note_on_c, 12, 62, 0
14, 20220, Note_on_c, 12, 62, 76
14, 20271, Note_on_c, 12, 62, 0
14, 20280, Note_on_c, 12, 70, 76
14, 20331, Note_on_c, 12, 70, 0
14, 20340, Note_on_c, 12, 70, 76
14, 20391, Note_on_c, 12, 70, 0
14, 20400, Note_on_c, 12, 62, 76
14, 20451, Note_on_c, 12, 62, 0
14, 20460, Note_on_c, 12, 62, 76
14, 20511, Note_on_c, 12, 62, 0
14, 20520, Note_on_c, 12, 70, 76
14, 20571, Note_on_c, 12, 70, 0
14, 20580, Note_on_c, 12, 70, 76
14, 20631, Note_on_c, 12, 70, 0
14, 20640, Note_on_c, 12, 62, 84
14, 20691, Note_on_c, 12, 62, 0
14, 20700, Note_on_c, 12, 62, 76
14, 20751, Note_on_c, 12, 62, 0
14, 20760, Note_on_c, 12, 70, 76
14, 20811, Note_on_c, 12, 70, 0
14, 20820, Note_on_c, 12, 70, 76
14, 20871, Note_on_c, 12, 70, 0
14, 20880, Note_on_c, 12, 62, 76
14, 20999, Note_on_c, 12, 62, 0
14, 21360, Note_on_c, 12, 70, 84
14, 21360, Note_on_c, 12, 62, 84
14, 21479, Note_on_c, 12, 70, 0
14, 21479, Note_on_c, 12, 62, 0
14, 21600, Note_on_c, 12, 62, 76
14, 21719, Note_on_c, 12, 62, 0
14, 22080, Note_on_c, 12, 70, 84
14, 22080, Note_on_c, 12, 62, 84
14, 22199, Note_on_c, 12, 70, 0
14, 22199, Note_on_c, 12, 62, 0
14, 22320, Note_on_c, 12, 62, 76
14, 22439, Note_on_c, 12, 62, 0
14, 23760, Note_on_c, 12, 57, 52
14, 23939, Note_on_c, 12, 57, 0
14, 24240, Note_on_c, 12, 61, 52
14, 24419, Note_on_c, 12, 61, 0
14, 24480, Note_on_c, 12, 57, 52
14, 24659, Note_on_c, 12, 57, 0
14, 24960, Note_on_c, 12, 61, 52
14, 25139, Note_on_c, 12, 61, 0
14, 25200, Note_on_c, 12, 57, 52
14, 25379, Note_on_c, 12, 57, 0
14, 26400, Note_on_c, 12, 57, 52
14, 26489, Note_on_c, 12, 57, 0
14, 26520, Note_on_c, 12, 57, 52
14, 26759, Note_on_c, 12, 57, 0
14, 26760, Note_on_c, 12, 59, 52
14, 26879, Note_on_c, 12, 59, 0
14, 26880, Note_on_c, 12, 61, 52
14, 26999, Note_on_c, 12, 61, 0
14, 27000, Note_on_c, 12, 62, 52
14, 27104, Note_on_c, 12, 62, 0
14, 27120, Note_on_c, 12, 57, 52
14, 27209, Note_on_c, 12, 57, 0
14, 27240, Note_on_c, 12, 57, 52
14, 27479, Note_on_c, 12, 57, 0
14, 27480, Note_on_c, 12, 61, 52
14, 27599, Note_on_c, 12, 61, 0
14, 27600, Note_on_c, 12, 62, 52
14, 27719, Note_on_c, 12, 62, 0
14, 27720, Note_on_c, 12, 64, 52
14, 27824, Note_on_c, 12, 64, 0
14, 27840, Note_on_c, 12, 57, 52
14, 27929, Note_on_c, 12, 57, 0
14, 27960, Note_on_c, 12, 57, 52
14, 28199, Note_on_c, 12, 57, 0
14, 28200, Note_on_c, 12, 62, 52
14, 28319, Note_on_c, 12, 62, 0
14, 28320, Note_on_c, 12, 64, 52
14, 28439, Note_on_c, 12, 64, 0
14, 28440, Note_on_c, 12, 66, 52
14, 28559, Note_on_c, 12, 66, 0
14, 28560, Note_on_c, 12, 67, 52
14, 28679, Note_on_c, 12, 67, 0
14, 28680, Note_on_c, 12, 66, 52
14, 28784, Note_on_c, 12, 66, 0
14, 28800, Note_on_c, 12, 64, 52
14, 29024, Note_on_c, 12, 64, 0
14, 29040, Note_on_c, 12, 69, 52
14, 29639, Note_on_c, 12, 69, 0
14, 29640, Note_on_c, 12, 67, 52
14, 29759, Note_on_c, 12, 67, 0
14, 29760, Note_on_c, 12, 62, 52
14, 29879, Note_on_c, 12, 62, 0
14, 29880, Note_on_c, 12, 64, 52
14, 29984, Note_on_c, 12, 64, 0
14, 30000, Note_on_c, 12, 65, 52
14, 30359, Note_on_c, 12, 65, 0
14, 30360, Note_on_c, 12, 64, 52
14, 30479, Note_on_c, 12, 64, 0
14, 30480, Note_on_c, 12, 60, 52
14, 30599, Note_on_c, 12, 60, 0
14, 30600, Note_on_c, 12, 62, 52
14, 30704, Note_on_c, 12, 62, 0
14, 30720, Note_on_c, 12, 63, 52
14, 30959, Note_on_c, 12, 63, 0
14, 31080, Note_on_c, 12, 62, 52
14, 31199, Note_on_c, 12, 62, 0
14, 31200, Note_on_c, 12, 59, 52
14, 31319, Note_on_c, 12, 59, 0
14, 31320, Note_on_c, 12, 60, 52
14, 31439, Note_on_c, 12, 60, 0
14, 31440, Note_on_c, 12, 62, 52
14, 31559, Note_on_c, 12, 62, 0
14, 31560, Note_on_c, 12, 59, 52
14, 31679, Note_on_c, 12, 59, 0
14, 31680, Note_on_c, 12, 55, 52
14, 31799, Note_on_c, 12, 55, 0
14, 31800, Note_on_c, 12, 59, 52
14, 31919, Note_on_c, 12, 59, 0
14, 31920, Note_on_c, 12, 62, 52
14, 32039, Note_on_c, 12, 62, 0
14, 32040, Note_on_c, 12, 65, 52
14, 32159, Note_on_c, 12, 65, 0
14, 32160, Note_on_c, 12, 64, 52
14, 32279, Note_on_c, 12, 64, 0
14, 32280, Note_on_c, 12, 62, 52
14, 32384, Note_on_c, 12, 62, 0
14, 32400, Note_on_c, 12, 60, 52
14, 32639, Note_on_c, 12, 60, 0
14, 32640, Program_c, 12, 45
14, 32880, Note_on_c, 12, 64, 44
14, 33119, Note_on_c, 12, 64, 0
14, 33120, Note_on_c, 12, 62, 44
14, 33359, Note_on_c, 12, 62, 0
14, 33360, Note_on_c, 12, 67, 44
14, 33599, Note_on_c, 12, 67, 0
14, 33600, Note_on_c, 12, 67, 44
14, 33839, Note_on_c, 12, 67, 0
14, 33840, Note_on_c, 12, 67, 44
14, 34079, Note_on_c, 12, 67, 0
14, 34080, Note_on_c, 12, 67, 44
14, 34319, Note_on_c, 12, 67, 0
14, 34320, Note_on_c, 12, 67, 44
14, 34559, Note_on_c, 12, 67, 0
14, 34560, Note_on_c, 12, 67, 44
14, 34799, Note_on_c, 12, 67, 0
14, 34800, Note_on_c, 12, 67, 44
14, 35039, Note_on_c, 12, 67, 0
14, 35040, Note_on_c, 12, 59, 44
14, 35279, Note_on_c, 12, 59, 0
14, 35280, Note_on_c, 12, 60, 44
14, 35519, Note_on_c, 12, 60, 0
14, 35520, Note_on_c, 12, 57, 44
14, 35759, Note_on_c, 12, 57, 0
14, 35760, Note_on_c, 12, 62, 44
14, 35999, Note_on_c, 12, 62, 0
14, 36000, Note_on_c, 12, 59, 44
14, 36239, Note_on_c, 12, 59, 0
14, 36240, Note_on_c, 12, 55, 44
14, 36479, Note_on_c, 12, 55, 0
14, 36480, Note_on_c, 12, 60, 44
14, 36704, Note_on_c, 12, 60, 0
14, 36718, Program_c, 12, 48
14, 36720, Note_on_c, 12, 60, 44
14, 36720, Note_on_c, 12, 63, 44
14, 36771, Note_on_c, 12, 60, 0
14, 36771, Note_on_c, 12, 63, 0
14, 36780, Note_on_c, 12, 60, 44
14, 36780, Note_on_c, 12, 63, 44
14, 36831, Note_on_c, 12, 60, 0
14, 36831, Note_on_c, 12, 63, 0
14, 36840, Note_on_c, 12, 60, 44
14, 36840, Note_on_c, 12, 63, 44
14, 36891, Note_on_c, 12, 60, 0
14, 36891, Note_on_c, 12, 63, 0
14, 36900, Note_on_c, 12, 60, 44
14, 36900, Note_on_c, 12, 63, 44
14, 36951, Note_on_c, 12, 60, 0
14, 36951, Note_on_c, 12, 63, 0
14, 36960, Note_on_c, 12, 60, 44
14, 36960, Note_on_c, 12, 63, 44
14, 37011, Note_on_c, 12, 60, 0
14, 37011, Note_on_c, 12, 63, 0
14, 37020, Note_on_c, 12, 63, 44
14, 37020, Note_on_c, 12, 60, 44
14, 37071, Note_on_c, 12, 63, 0
14, 37071, Note_on_c, 12, 60, 0
14, 37080, Note_on_c, 12, 60, 44
14, 37080, Note_on_c, 12, 63, 44
14, 37131, Note_on_c, 12, 60, 0
14, 37131, Note_on_c, 12, 63, 0
14, 37140, Note_on_c, 12, 63, 44
14, 37140, Note_on_c, 12, 60, 44
14, 37191, Note_on_c, 12, 63, 0
14, 37191, Note_on_c, 12, 60, 0
14, 37200, Note_on_c, 12, 63, 44
14, 37200, Note_on_c, 12, 60, 44
14, 37251, Note_on_c, 12, 63, 0
14, 37251, Note_on_c, 12, 60, 0
14, 37260, Note_on_c, 12, 63, 44
14, 37260, Note_on_c, 12, 60, 44
14, 37311, Note_on_c, 12, 63, 0
14, 37311, Note_on_c, 12, 60, 0
14, 37320, Note_on_c, 12, 60, 44
14, 37320, Note_on_c, 12, 63, 44
14, 37371, Note_on_c, 12, 60, 0
14, 37371, Note_on_c, 12, 63, 0
14, 37380, Note_on_c, 12, 60, 44
14, 37380, Note_on_c, 12, 63, 44
14, 37431, Note_on_c, 12, 60, 0
14, 37431, Note_on_c, 12, 63, 0
14, 37440, Note_on_c, 12, 60, 44
14, 37440, Note_on_c, 12, 63, 44
14, 37491, Note_on_c, 12, 60, 0
14, 37491, Note_on_c, 12, 63, 0
14, 37500, Note_on_c, 12, 63, 44
14, 37500, Note_on_c, 12, 60, 44
14, 37551, Note_on_c, 12, 63, 0
14, 37551, Note_on_c, 12, 60, 0
14, 37560, Note_on_c, 12, 60, 44
14, 37560, Note_on_c, 12, 63, 44
14, 37611, Note_on_c, 12, 60, 0
14, 37611, Note_on_c, 12, 63, 0
14, 37620, Note_on_c, 12, 60, 44
14, 37620, Note_on_c, 12, 63, 44
14, 37671, Note_on_c, 12, 60, 0
14, 37671, Note_on_c, 12, 63, 0
14, 37680, Note_on_c, 12, 63, 44
14, 37680, Note_on_c, 12, 60, 44
14, 37731, Note_on_c, 12, 63, 0
14, 37731, Note_on_c, 12, 60, 0
14, 37740, Note_on_c, 12, 63, 44
14, 37740, Note_on_c, 12, 60, 44
14, 37791, Note_on_c, 12, 63, 0
14, 37791, Note_on_c, 12, 60, 0
14, 37800, Note_on_c, 12, 63, 44
14, 37800, Note_on_c, 12, 60, 44
14, 37851, Note_on_c, 12, 63, 0
14, 37851, Note_on_c, 12, 60, 0
14, 37860, Note_on_c, 12, 63, 44
14, 37860, Note_on_c, 12, 60, 44
14, 37911, Note_on_c, 12, 63, 0
14, 37911, Note_on_c, 12, 60, 0
14, 37920, Note_on_c, 12, 60, 44
14, 37920, Note_on_c, 12, 63, 44
14, 37971, Note_on_c, 12, 60, 0
14, 37971, Note_on_c, 12, 63, 0
14, 37980, Note_on_c, 12, 63, 44
14, 37980, Note_on_c, 12, 60, 44
14, 38031, Note_on_c, 12, 63, 0
14, 38031, Note_on_c, 12, 60, 0
14, 38040, Note_on_c, 12, 63, 44
14, 38040, Note_on_c, 12, 60, 44
14, 38091, Note_on_c, 12, 63, 0
14, 38091, Note_on_c, 12, 60, 0
14, 38100, Note_on_c, 12, 63, 44
14, 38100, Note_on_c, 12, 60, 44
14, 38151, Note_on_c, 12, 63, 0
14, 38151, Note_on_c, 12, 60, 0
14, 38160, Note_on_c, 12, 63, 44
14, 38160, Note_on_c, 12, 60, 44
14, 38211, Note_on_c, 12, 63, 0
14, 38211, Note_on_c, 12, 60, 0
14, 38220, Note_on_c, 12, 63, 44
14, 38220, Note_on_c, 12, 60, 44
14, 38271, Note_on_c, 12, 63, 0
14, 38271, Note_on_c, 12, 60, 0
14, 38280, Note_on_c, 12, 60, 44
14, 38280, Note_on_c, 12, 63, 44
14, 38331, Note_on_c, 12, 60, 0
14, 38331, Note_on_c, 12, 63, 0
14, 38340, Note_on_c, 12, 63, 44
14, 38340, Note_on_c, 12, 60, 44
14, 38391, Note_on_c, 12, 63, 0
14, 38391, Note_on_c, 12, 60, 0
14, 38400, Note_on_c, 12, 60, 44
14, 38400, Note_on_c, 12, 63, 44
14, 38451, Note_on_c, 12, 60, 0
14, 38451, Note_on_c, 12, 63, 0
14, 38460, Note_on_c, 12, 60, 44
14, 38460, Note_on_c, 12, 63, 44
14, 38511, Note_on_c, 12, 60, 0
14, 38511, Note_on_c, 12, 63, 0
14, 38520, Note_on_c, 12, 63, 44
14, 38520, Note_on_c, 12, 60, 44
14, 38571, Note_on_c, 12, 63, 0
14, 38571, Note_on_c, 12, 60, 0
14, 38580, Note_on_c, 12, 63, 44
14, 38580, Note_on_c, 12, 60, 44
14, 38631, Note_on_c, 12, 63, 0
14, 38631, Note_on_c, 12, 60, 0
14, 38640, Note_on_c, 12, 63, 44
14, 38640, Note_on_c, 12, 60, 44
14, 38691, Note_on_c, 12, 63, 0
14, 38691, Note_on_c, 12, 60, 0
14, 38700, Note_on_c, 12, 60, 44
14, 38700, Note_on_c, 12, 63, 44
14, 38751, Note_on_c, 12, 60, 0
14, 38751, Note_on_c, 12, 63, 0
14, 38760, Note_on_c, 12, 63, 44
14, 38760, Note_on_c, 12, 60, 44
14, 38811, Note_on_c, 12, 63, 0
14, 38811, Note_on_c, 12, 60, 0
14, 38820, Note_on_c, 12, 63, 44
14, 38820, Note_on_c, 12, 60, 44
14, 38871, Note_on_c, 12, 63, 0
14, 38871, Note_on_c, 12, 60, 0
14, 38880, Note_on_c, 12, 63, 44
14, 38880, Note_on_c, 12, 60, 44
14, 38931, Note_on_c, 12, 63, 0
14, 38931, Note_on_c, 12, 60, 0
14, 38940, Note_on_c, 12, 60, 44
14, 38940, Note_on_c, 12, 63, 44
14, 38991, Note_on_c, 12, 60, 0
14, 38991, Note_on_c, 12, 63, 0
14, 39000, Note_on_c, 12, 63, 44
14, 39000, Note_on_c, 12, 60, 44
14, 39051, Note_on_c, 12, 63, 0
14, 39051, Note_on_c, 12, 60, 0
14, 39060, Note_on_c, 12, 60, 44
14, 39060, Note_on_c, 12, 63, 44
14, 39111, Note_on_c, 12, 60, 0
14, 39111, Note_on_c, 12, 63, 0
14, 39120, Note_on_c, 12, 63, 44
14, 39120, Note_on_c, 12, 60, 44
14, 39171, Note_on_c, 12, 63, 0
14, 39171, Note_on_c, 12, 60, 0
14, 39180, Note_on_c, 12, 63, 44
14, 39180, Note_on_c, 12, 60, 44
14, 39231, Note_on_c, 12, 63, 0
14, 39231, Note_on_c, 12, 60, 0
14, 39240, Note_on_c, 12, 60, 44
14, 39240, Note_on_c, 12, 63, 44
14, 39291, Note_on_c, 12, 60, 0
14, 39291, Note_on_c, 12, 63, 0
14, 39300, Note_on_c, 12, 60, 44
14, 39300, Note_on_c, 12, 63, 44
14, 39351, Note_on_c, 12, 60, 0
14, 39351, Note_on_c, 12, 63, 0
14, 39360, Note_on_c, 12, 60, 44
14, 39360, Note_on_c, 12, 63, 44
14, 39411, Note_on_c, 12, 60, 0
14, 39411, Note_on_c, 12, 63, 0
14, 39420, Note_on_c, 12, 60, 44
14, 39420, Note_on_c, 12, 63, 44
14, 39471, Note_on_c, 12, 60, 0
14, 39471, Note_on_c, 12, 63, 0
14, 39480, Note_on_c, 12, 63, 44
14, 39480, Note_on_c, 12, 60, 44
14, 39531, Note_on_c, 12, 63, 0
14, 39531, Note_on_c, 12, 60, 0
14, 39540, Note_on_c, 12, 63, 44
14, 39540, Note_on_c, 12, 60, 44
14, 39591, Note_on_c, 12, 63, 0
14, 39591, Note_on_c, 12, 60, 0
14, 39600, Note_on_c, 12, 60, 44
14, 39600, Note_on_c, 12, 63, 44
14, 39651, Note_on_c, 12, 60, 0
14, 39651, Note_on_c, 12, 63, 0
14, 39660, Note_on_c, 12, 63, 44
14, 39660, Note_on_c, 12, 60, 44
14, 39711, Note_on_c, 12, 63, 0
14, 39711, Note_on_c, 12, 60, 0
14, 39720, Note_on_c, 12, 63, 44
14, 39720, Note_on_c, 12, 60, 44
14, 39771, Note_on_c, 12, 63, 0
14, 39771, Note_on_c, 12, 60, 0
14, 39780, Note_on_c, 12, 63, 44
14, 39780, Note_on_c, 12, 60, 44
14, 39831, Note_on_c, 12, 63, 0
14, 39831, Note_on_c, 12, 60, 0
14, 39840, Note_on_c, 12, 63, 44
14, 39840, Note_on_c, 12, 60, 44
14, 39891, Note_on_c, 12, 63, 0
14, 39891, Note_on_c, 12, 60, 0
14, 39900, Note_on_c, 12, 60, 44
14, 39900, Note_on_c, 12, 63, 44
14, 39951, Note_on_c, 12, 60, 0
14, 39951, Note_on_c, 12, 63, 0
14, 39960, Note_on_c, 12, 60, 44
14, 39960, Note_on_c, 12, 63, 44
14, 40011, Note_on_c, 12, 60, 0
14, 40011, Note_on_c, 12, 63, 0
14, 40020, Note_on_c, 12, 60, 44
14, 40020, Note_on_c, 12, 63, 44
14, 40071, Note_on_c, 12, 60, 0
14, 40071, Note_on_c, 12, 63, 0
14, 40080, Note_on_c, 12, 60, 44
14, 40080, Note_on_c, 12, 63, 44
14, 40131, Note_on_c, 12, 60, 0
14, 40131, Note_on_c, 12, 63, 0
14, 40140, Note_on_c, 12, 63, 44
14, 40140, Note_on_c, 12, 60, 44
14, 40191, Note_on_c, 12, 63, 0
14, 40191, Note_on_c, 12, 60, 0
14, 40200, Note_on_c, 12, 63, 44
14, 40200, Note_on_c, 12, 60, 44
14, 40251, Note_on_c, 12, 63, 0
14, 40251, Note_on_c, 12, 60, 0
14, 40260, Note_on_c, 12, 60, 44
14, 40260, Note_on_c, 12, 63, 44
14, 40311, Note_on_c, 12, 60, 0
14, 40311, Note_on_c, 12, 63, 0
14, 40320, Note_on_c, 12, 60, 44
14, 40320, Note_on_c, 12, 63, 44
14, 40371, Note_on_c, 12, 60, 0
14, 40371, Note_on_c, 12, 63, 0
14, 40380, Note_on_c, 12, 60, 44
14, 40380, Note_on_c, 12, 63, 44
14, 40431, Note_on_c, 12, 60, 0
14, 40431, Note_on_c, 12, 63, 0
14, 40440, Note_on_c, 12, 60, 44
14, 40440, Note_on_c, 12, 63, 44
14, 40491, Note_on_c, 12, 60, 0
14, 40491, Note_on_c, 12, 63, 0
14, 40500, Note_on_c, 12, 63, 44
14, 40500, Note_on_c, 12, 60, 44
14, 40551, Note_on_c, 12, 63, 0
14, 40551, Note_on_c, 12, 60, 0
14, 40560, Note_on_c, 12, 63, 44
14, 40560, Note_on_c, 12, 60, 44
14, 40611, Note_on_c, 12, 63, 0
14, 40611, Note_on_c, 12, 60, 0
14, 40620, Note_on_c, 12, 63, 44
14, 40620, Note_on_c, 12, 60, 44
14, 40671, Note_on_c, 12, 63, 0
14, 40671, Note_on_c, 12, 60, 0
14, 40680, Note_on_c, 12, 63, 44
14, 40680, Note_on_c, 12, 60, 44
14, 40731, Note_on_c, 12, 63, 0
14, 40731, Note_on_c, 12, 60, 0
14, 40740, Note_on_c, 12, 63, 44
14, 40740, Note_on_c, 12, 60, 44
14, 40791, Note_on_c, 12, 63, 0
14, 40791, Note_on_c, 12, 60, 0
14, 40800, Note_on_c, 12, 60, 44
14, 40800, Note_on_c, 12, 63, 44
14, 40851, Note_on_c, 12, 60, 0
14, 40851, Note_on_c, 12, 63, 0
14, 40860, Note_on_c, 12, 63, 44
14, 40860, Note_on_c, 12, 60, 44
14, 40911, Note_on_c, 12, 63, 0
14, 40911, Note_on_c, 12, 60, 0
14, 40920, Note_on_c, 12, 63, 44
14, 40920, Note_on_c, 12, 60, 44
14, 40971, Note_on_c, 12, 63, 0
14, 40971, Note_on_c, 12, 60, 0
14, 40980, Note_on_c, 12, 60, 44
14, 40980, Note_on_c, 12, 63, 44
14, 41031, Note_on_c, 12, 60, 0
14, 41031, Note_on_c, 12, 63, 0
14, 41040, Note_on_c, 12, 63, 44
14, 41040, Note_on_c, 12, 60, 44
14, 41091, Note_on_c, 12, 63, 0
14, 41091, Note_on_c, 12, 60, 0
14, 41100, Note_on_c, 12, 63, 45
14, 41100, Note_on_c, 12, 60, 45
14, 41151, Note_on_c, 12, 63, 0
14, 41151, Note_on_c, 12, 60, 0
14, 41160, Note_on_c, 12, 63, 46
14, 41160, Note_on_c, 12, 60, 46
14, 41211, Note_on_c, 12, 63, 0
14, 41211, Note_on_c, 12, 60, 0
14, 41220, Note_on_c, 12, 60, 48
14, 41220, Note_on_c, 12, 63, 48
14, 41271, Note_on_c, 12, 60, 0
14, 41271, Note_on_c, 12, 63, 0
14, 41280, Note_on_c, 12, 63, 49
14, 41280, Note_on_c, 12, 60, 49
14, 41331, Note_on_c, 12, 63, 0
14, 41331, Note_on_c, 12, 60, 0
14, 41340, Note_on_c, 12, 60, 50
14, 41340, Note_on_c, 12, 63, 50
14, 41391, Note_on_c, 12, 60, 0
14, 41391, Note_on_c, 12, 63, 0
14, 41400, Note_on_c, 12, 63, 52
14, 41400, Note_on_c, 12, 60, 52
14, 41451, Note_on_c, 12, 63, 0
14, 41451, Note_on_c, 12, 60, 0
14, 41460, Note_on_c, 12, 60, 53
14, 41460, Note_on_c, 12, 63, 53
14, 41511, Note_on_c, 12, 60, 0
14, 41511, Note_on_c, 12, 63, 0
14, 41520, Note_on_c, 12, 63, 54
14, 41520, Note_on_c, 12, 60, 54
14, 41571, Note_on_c, 12, 63, 0
14, 41571, Note_on_c, 12, 60, 0
14, 41580, Note_on_c, 12, 60, 56
14, 41580, Note_on_c, 12, 63, 56
14, 41631, Note_on_c, 12, 60, 0
14, 41631, Note_on_c, 12, 63, 0
14, 41640, Note_on_c, 12, 60, 57
14, 41640, Note_on_c, 12, 63, 57
14, 41691, Note_on_c, 12, 60, 0
14, 41691, Note_on_c, 12, 63, 0
14, 41700, Note_on_c, 12, 63, 58
14, 41700, Note_on_c, 12, 60, 58
14, 41751, Note_on_c, 12, 63, 0
14, 41751, Note_on_c, 12, 60, 0
14, 41760, Note_on_c, 12, 63, 60
14, 41760, Note_on_c, 12, 60, 60
14, 41811, Note_on_c, 12, 63, 0
14, 41811, Note_on_c, 12, 60, 0
14, 41820, Note_on_c, 12, 60, 61
14, 41820, Note_on_c, 12, 63, 61
14, 41871, Note_on_c, 12, 60, 0
14, 41871, Note_on_c, 12, 63, 0
14, 41880, Note_on_c, 12, 60, 62
14, 41880, Note_on_c, 12, 63, 62
14, 41931, Note_on_c, 12, 60, 0
14, 41931, Note_on_c, 12, 63, 0
14, 41940, Note_on_c, 12, 60, 64
14, 41940, Note_on_c, 12, 63, 64
14, 41991, Note_on_c, 12, 60, 0
14, 41991, Note_on_c, 12, 63, 0
14, 42000, Note_on_c, 12, 60, 65
14, 42000, Note_on_c, 12, 63, 65
14, 42051, Note_on_c, 12, 60, 0
14, 42051, Note_on_c, 12, 63, 0
14, 42060, Note_on_c, 12, 60, 66
14, 42060, Note_on_c, 12, 63, 66
14, 42111, Note_on_c, 12, 60, 0
14, 42111, Note_on_c, 12, 63, 0
14, 42120, Note_on_c, 12, 60, 68
14, 42120, Note_on_c, 12, 63, 68
14, 42171, Note_on_c, 12, 60, 0
14, 42171, Note_on_c, 12, 63, 0
14, 42180, Note_on_c, 12, 63, 69
14, 42180, Note_on_c, 12, 60, 69
14, 42231, Note_on_c, 12, 63, 0
14, 42231, Note_on_c, 12, 60, 0
14, 42240, Note_on_c, 12, 60, 70
14, 42240, Note_on_c, 12, 63, 70
14, 42291, Note_on_c, 12, 60, 0
14, 42291, Note_on_c, 12, 63, 0
14, 42300, Note_on_c, 12, 60, 72
14, 42300, Note_on_c, 12, 63, 72
14, 42351, Note_on_c, 12, 60, 0
14, 42351, Note_on_c, 12, 63, 0
14, 42360, Note_on_c, 12, 60, 73
14, 42360, Note_on_c, 12, 63, 73
14, 42411, Note_on_c, 12, 60, 0
14, 42411, Note_on_c, 12, 63, 0
14, 42420, Note_on_c, 12, 63, 74
14, 42420, Note_on_c, 12, 60, 74
14, 42471, Note_on_c, 12, 63, 0
14, 42471, Note_on_c, 12, 60, 0
14, 42480, Note_on_c, 12, 65, 84
14, 42480, Note_on_c, 12, 62, 84
14, 42531, Note_on_c, 12, 65, 0
14, 42531, Note_on_c, 12, 62, 0
14, 42540, Note_on_c, 12, 65, 76
14, 42540, Note_on_c, 12, 62, 76
14, 42591, Note_on_c, 12, 65, 0
14, 42591, Note_on_c, 12, 62, 0
14, 42600, Note_on_c, 12, 65, 76
14, 42600, Note_on_c, 12, 62, 76
14, 42651, Note_on_c, 12, 65, 0
14, 42651, Note_on_c, 12, 62, 0
14, 42660, Note_on_c, 12, 65, 76
14, 42660, Note_on_c, 12, 62, 76
14, 42711, Note_on_c, 12, 65, 0
14, 42711, Note_on_c, 12, 62, 0
14, 42720, Note_on_c, 12, 62, 76
14, 42720, Note_on_c, 12, 65, 76
14, 42771, Note_on_c, 12, 62, 0
14, 42771, Note_on_c, 12, 65, 0
14, 42780, Note_on_c, 12, 65, 76
14, 42780, Note_on_c, 12, 62, 76
14, 42831, Note_on_c, 12, 65, 0
14, 42831, Note_on_c, 12, 62, 0
14, 42840, Note_on_c, 12, 62, 76
14, 42840, Note_on_c, 12, 65, 76
14, 42891, Note_on_c, 12, 62, 0
14, 42891, Note_on_c, 12, 65, 0
14, 42900, Note_on_c, 12, 62, 76
14, 42900, Note_on_c, 12, 65, 76
14, 42951, Note_on_c, 12, 62, 0
14, 42951, Note_on_c, 12, 65, 0
14, 42960, Note_on_c, 12, 62, 76
14, 42960, Note_on_c, 12, 65, 76
14, 43011, Note_on_c, 12, 62, 0
14, 43011, Note_on_c, 12, 65, 0
14, 43020, Note_on_c, 12, 65, 76
14, 43020, Note_on_c, 12, 62, 76
14, 43071, Note_on_c, 12, 65, 0
14, 43071, Note_on_c, 12, 62, 0
14, 43080, Note_on_c, 12, 62, 76
14, 43080, Note_on_c, 12, 65, 76
14, 43131, Note_on_c, 12, 62, 0
14, 43131, Note_on_c, 12, 65, 0
14, 43140, Note_on_c, 12, 62, 76
14, 43140, Note_on_c, 12, 65, 76
14, 43191, Note_on_c, 12, 62, 0
14, 43191, Note_on_c, 12, 65, 0
14, 43200, Note_on_c, 12, 62, 76
14, 43200, Note_on_c, 12, 65, 76
14, 43251, Note_on_c, 12, 62, 0
14, 43251, Note_on_c, 12, 65, 0
14, 43260, Note_on_c, 12, 62, 76
14, 43260, Note_on_c, 12, 65, 76
14, 43311, Note_on_c, 12, 62, 0
14, 43311, Note_on_c, 12, 65, 0
14, 43320, Note_on_c, 12, 65, 76
14, 43320, Note_on_c, 12, 62, 76
14, 43371, Note_on_c, 12, 65, 0
14, 43371, Note_on_c, 12, 62, 0
14, 43380, Note_on_c, 12, 65, 76
14, 43380, Note_on_c, 12, 62, 76
14, 43431, Note_on_c, 12, 65, 0
14, 43431, Note_on_c, 12, 62, 0
14, 43440, Note_on_c, 12, 62, 76
14, 43440, Note_on_c, 12, 65, 76
14, 43491, Note_on_c, 12, 62, 0
14, 43491, Note_on_c, 12, 65, 0
14, 43500, Note_on_c, 12, 65, 76
14, 43500, Note_on_c, 12, 62, 76
14, 43551, Note_on_c, 12, 65, 0
14, 43551, Note_on_c, 12, 62, 0
14, 43560, Note_on_c, 12, 62, 76
14, 43560, Note_on_c, 12, 65, 76
14, 43611, Note_on_c, 12, 62, 0
14, 43611, Note_on_c, 12, 65, 0
14, 43620, Note_on_c, 12, 65, 76
14, 43620, Note_on_c, 12, 62, 76
14, 43671, Note_on_c, 12, 65, 0
14, 43671, Note_on_c, 12, 62, 0
14, 43680, Note_on_c, 12, 62, 76
14, 43680, Note_on_c, 12, 65, 76
14, 43731, Note_on_c, 12, 62, 0
14, 43731, Note_on_c, 12, 65, 0
14, 43740, Note_on_c, 12, 65, 76
14, 43740, Note_on_c, 12, 62, 76
14, 43791, Note_on_c, 12, 65, 0
14, 43791, Note_on_c, 12, 62, 0
14, 43800, Note_on_c, 12, 65, 76
14, 43800, Note_on_c, 12, 62, 76
14, 43851, Note_on_c, 12, 65, 0
14, 43851, Note_on_c, 12, 62, 0
14, 43860, Note_on_c, 12, 62, 76
14, 43860, Note_on_c, 12, 65, 76
14, 43911, Note_on_c, 12, 62, 0
14, 43911, Note_on_c, 12, 65, 0
14, 43920, Note_on_c, 12, 67, 84
14, 43971, Note_on_c, 12, 67, 0
14, 43980, Note_on_c, 12, 67, 76
14, 44031, Note_on_c, 12, 67, 0
14, 44040, Note_on_c, 12, 67, 76
14, 44091, Note_on_c, 12, 67, 0
14, 44100, Note_on_c, 12, 67, 76
14, 44151, Note_on_c, 12, 67, 0
14, 44160, Note_on_c, 12, 67, 76
14, 44211, Note_on_c, 12, 67, 0
14, 44220, Note_on_c, 12, 67, 76
14, 44271, Note_on_c, 12, 67, 0
14, 44280, Note_on_c, 12, 67, 76
14, 44331, Note_on_c, 12, 67, 0
14, 44340, Note_on_c, 12, 67, 76
14, 44391, Note_on_c, 12, 67, 0
14, 44400, Note_on_c, 12, 64, 76
14, 44451, Note_on_c, 12, 64, 0
14, 44460, Note_on_c, 12, 64, 76
14, 44511, Note_on_c, 12, 64, 0
14, 44520, Note_on_c, 12, 64, 76
14, 44571, Note_on_c, 12, 64, 0
14, 44580, Note_on_c, 12, 64, 76
14, 44631, Note_on_c, 12, 64, 0
14, 44640, Note_on_c, 12, 68, 84
14, 44691, Note_on_c, 12, 68, 0
14, 44700, Note_on_c, 12, 68, 76
14, 44751, Note_on_c, 12, 68, 0
14, 44760, Note_on_c, 12, 68, 76
14, 44811, Note_on_c, 12, 68, 0
14, 44820, Note_on_c, 12, 68, 76
14, 44871, Note_on_c, 12, 68, 0
14, 44880, Note_on_c, 12, 68, 76
14, 44931, Note_on_c, 12, 68, 0
14, 44940, Note_on_c, 12, 68, 76
14, 44991, Note_on_c, 12, 68, 0
14, 45000, Note_on_c, 12, 68, 76
14, 45051, Note_on_c, 12, 68, 0
14, 45060, Note_on_c, 12, 68, 76
14, 45111, Note_on_c, 12, 68, 0
14, 45120, Note_on_c, 12, 65, 76
14, 45171, Note_on_c, 12, 65, 0
14, 45180, Note_on_c, 12, 65, 76
14, 45231, Note_on_c, 12, 65, 0
14, 45240, Note_on_c, 12, 65, 76
14, 45291, Note_on_c, 12, 65, 0
14, 45300, Note_on_c, 12, 65, 76
14, 45351, Note_on_c, 12, 65, 0
14, 45360, Note_on_c, 12, 69, 84
14, 45411, Note_on_c, 12, 69, 0
14, 45420, Note_on_c, 12, 69, 76
14, 45471, Note_on_c, 12, 69, 0
14, 45480, Note_on_c, 12, 69, 76
14, 45531, Note_on_c, 12, 69, 0
14, 45540, Note_on_c, 12, 69, 76
14, 45591, Note_on_c, 12, 69, 0
14, 45600, Note_on_c, 12, 69, 76
14, 45651, Note_on_c, 12, 69, 0
14, 45660, Note_on_c, 12, 69, 76
14, 45711, Note_on_c, 12, 69, 0
14, 45720, Note_on_c, 12, 69, 76
14, 45771, Note_on_c, 12, 69, 0
14, 45780, Note_on_c, 12, 69, 76
14, 45831, Note_on_c, 12, 69, 0
14, 45840, Note_on_c, 12, 66, 76
14, 45891, Note_on_c, 12, 66, 0
14, 45900, Note_on_c, 12, 66, 76
14, 45951, Note_on_c, 12, 66, 0
14, 45960, Note_on_c, 12, 66, 76
14, 46011, Note_on_c, 12, 66, 0
14, 46020, Note_on_c, 12, 66, 76
14, 46071, Note_on_c, 12, 66, 0
14, 46080, Note_on_c, 12, 71, 84
14, 46131, Note_on_c, 12, 71, 0
14, 46140, Note_on_c, 12, 71, 76
14, 46191, Note_on_c, 12, 71, 0
14, 46200, Note_on_c, 12, 71, 76
14, 46251, Note_on_c, 12, 71, 0
14, 46260, Note_on_c, 12, 71, 76
14, 46311, Note_on_c, 12, 71, 0
14, 46320, Note_on_c, 12, 71, 76
14, 46371, Note_on_c, 12, 71, 0
14, 46380, Note_on_c, 12, 71, 76
14, 46431, Note_on_c, 12, 71, 0
14, 46440, Note_on_c, 12, 71, 76
14, 46491, Note_on_c, 12, 71, 0
14, 46500, Note_on_c, 12, 71, 76
14, 46551, Note_on_c, 12, 71, 0
14, 46560, Note_on_c, 12, 67, 76
14, 46611, Note_on_c, 12, 67, 0
14, 46620, Note_on_c, 12, 67, 76
14, 46671, Note_on_c, 12, 67, 0
14, 46680, Note_on_c, 12, 67, 76
14, 46731, Note_on_c, 12, 67, 0
14, 46740, Note_on_c, 12, 67, 76
14, 46791, Note_on_c, 12, 67, 0
14, 46800, Note_on_c, 12, 71, 84
14, 46851, Note_on_c, 12, 71, 0
14, 46860, Note_on_c, 12, 71, 84
14, 46911, Note_on_c, 12, 71, 0
14, 46920, Note_on_c, 12, 71, 84
14, 46971, Note_on_c, 12, 71, 0
14, 46980, Note_on_c, 12, 71, 84
14, 47031, Note_on_c, 12, 71, 0
14, 47040, Note_on_c, 12, 71, 84
14, 47091, Note_on_c, 12, 71, 0
14, 47100, Note_on_c, 12, 71, 84
14, 47151, Note_on_c, 12, 71, 0
14, 47160, Note_on_c, 12, 71, 84
14, 47211, Note_on_c, 12, 71, 0
14, 47220, Note_on_c, 12, 71, 84
14, 47271, Note_on_c, 12, 71, 0
14, 47280, Note_on_c, 12, 67, 84
14, 47331, Note_on_c, 12, 67, 0
14, 47340, Note_on_c, 12, 67, 84
14, 47391, Note_on_c, 12, 67, 0
14, 47400, Note_on_c, 12, 67, 84
14, 47451, Note_on_c, 12, 67, 0
14, 47460, Note_on_c, 12, 67, 84
14, 47511, Note_on_c, 12, 67, 0
14, 47520, Note_on_c, 12, 72, 84
14, 47571, Note_on_c, 12, 72, 0
14, 47580, Note_on_c, 12, 72, 84
14, 47631, Note_on_c, 12, 72, 0
14, 47640, Note_on_c, 12, 72, 84
14, 47691, Note_on_c, 12, 72, 0
14, 47700, Note_on_c, 12, 72, 84
14, 47751, Note_on_c, 12, 72, 0
14, 47760, Note_on_c, 12, 72, 84
14, 47811, Note_on_c, 12, 72, 0
14, 47820, Note_on_c, 12, 72, 84
14, 47871, Note_on_c, 12, 72, 0
14, 47880, Note_on_c, 12, 72, 84
14, 47931, Note_on_c, 12, 72, 0
14, 47940, Note_on_c, 12, 72, 84
14, 47991, Note_on_c, 12, 72, 0
14, 48000, Note_on_c, 12, 69, 84
14, 48051, Note_on_c, 12, 69, 0
14, 48060, Note_on_c, 12, 69, 84
14, 48111, Note_on_c, 12, 69, 0
14, 48120, Note_on_c, 12, 69, 84
14, 48171, Note_on_c, 12, 69, 0
14, 48180, Note_on_c, 12, 69, 84
14, 48231, Note_on_c, 12, 69, 0
14, 48240, Note_on_c, 12, 65, 84
14, 48291, Note_on_c, 12, 65, 0
14, 48300, Note_on_c, 12, 65, 84
14, 48351, Note_on_c, 12, 65, 0
14, 48360, Note_on_c, 12, 65, 84
14, 48411, Note_on_c, 12, 65, 0
14, 48420, Note_on_c, 12, 65, 84
14, 48471, Note_on_c, 12, 65, 0
14, 48480, Note_on_c, 12, 65, 84
14, 48531, Note_on_c, 12, 65, 0
14, 48540, Note_on_c, 12, 65, 84
14, 48591, Note_on_c, 12, 65, 0
14, 48600, Note_on_c, 12, 65, 84
14, 48651, Note_on_c, 12, 65, 0
14, 48660, Note_on_c, 12, 65, 84
14, 48711, Note_on_c, 12, 65, 0
14, 48720, Note_on_c, 12, 62, 84
14, 48771, Note_on_c, 12, 62, 0
14, 48780, Note_on_c, 12, 62, 84
14, 48831, Note_on_c, 12, 62, 0
14, 48840, Note_on_c, 12, 62, 84
14, 48891, Note_on_c, 12, 62, 0
14, 48900, Note_on_c, 12, 62, 84
14, 48951, Note_on_c, 12, 62, 0
14, 48960, Note_on_c, 12, 67, 84
14, 49011, Note_on_c, 12, 67, 0
14, 49020, Note_on_c, 12, 67, 84
14, 49071, Note_on_c, 12, 67, 0
14, 49080, Note_on_c, 12, 67, 84
14, 49131, Note_on_c, 12, 67, 0
14, 49140, Note_on_c, 12, 67, 84
14, 49191, Note_on_c, 12, 67, 0
14, 49200, Note_on_c, 12, 67, 84
14, 49251, Note_on_c, 12, 67, 0
14, 49260, Note_on_c, 12, 67, 84
14, 49311, Note_on_c, 12, 67, 0
14, 49320, Note_on_c, 12, 67, 84
14, 49371, Note_on_c, 12, 67, 0
14, 49380, Note_on_c, 12, 67, 84
14, 49431, Note_on_c, 12, 67, 0
14, 49440, Note_on_c, 12, 55, 84
14, 49491, Note_on_c, 12, 55, 0
14, 49500, Note_on_c, 12, 55, 84
14, 49551, Note_on_c, 12, 55, 0
14, 49560, Note_on_c, 12, 55, 84
14, 49611, Note_on_c, 12, 55, 0
14, 49620, Note_on_c, 12, 55, 84
14, 49671, Note_on_c, 12, 55, 0
14, 49680, Note_on_c, 12, 67, 84
14, 49851, Note_on_c, 12, 67, 0
14, 49860, Note_on_c, 12, 67, 84
14, 49911, Note_on_c, 12, 67, 0
14, 49920, Note_on_c, 12, 68, 84
14, 50159, Note_on_c, 12, 68, 0
14, 50160, Note_on_c, 12, 68, 84
14, 50331, Note_on_c, 12, 68, 0
14, 50340, Note_on_c, 12, 68, 84
14, 50391, Note_on_c, 12, 68, 0
14, 50400, Note_on_c, 12, 67, 84
14, 50579, Note_on_c, 12, 67, 0
14, 50640, Note_on_c, 12, 69, 84
14, 50811, Note_on_c, 12, 69, 0
14, 50820, Note_on_c, 12, 71, 84
14, 50871, Note_on_c, 12, 71, 0
14, 50880, Note_on_c, 12, 72, 84
14, 51059, Note_on_c, 12, 72, 0
14, 51120, Note_on_c, 12, 69, 84
14, 51291, Note_on_c, 12, 69, 0
14, 51300, Note_on_c, 12, 71, 84
14, 51351, Note_on_c, 12, 71, 0
14, 51360, Note_on_c, 12, 72, 84
14, 51539, Note_on_c, 12, 72, 0
14, 52320, Note_on_c, 12, 64, 52
14, 52559, Note_on_c, 12, 64, 0
14, 52560, Note_on_c, 12, 62, 52
14, 52799, Note_on_c, 12, 62, 0
14, 52800, Note_on_c, 12, 59, 52
14, 53039, Note_on_c, 12, 59, 0
14, 53040, Note_on_c, 12, 60, 52
14, 53264, Note_on_c, 12, 60, 0
14, 53520, Note_on_c, 12, 62, 52
14, 53759, Note_on_c, 12, 62, 0
14, 53760, Note_on_c, 12, 64, 52
14, 53999, Note_on_c, 12, 64, 0
14, 54120, Note_on_c, 12, 65, 52
14, 54239, Note_on_c, 12, 65, 0
14, 54240, Note_on_c, 12, 60, 52
14, 54359, Note_on_c, 12, 60, 0
14, 54360, Note_on_c, 12, 62, 52
14, 54479, Note_on_c, 12, 62, 0
14, 54480, Note_on_c, 12, 64, 52
14, 54599, Note_on_c, 12, 64, 0
14, 54600, Note_on_c, 12, 60, 52
14, 54719, Note_on_c, 12, 60, 0
14, 54840, Note_on_c, 12, 62, 52
14, 54959, Note_on_c, 12, 62, 0
14, 54960, Note_on_c, 12, 57, 52
14, 55079, Note_on_c, 12, 57, 0
14, 55080, Note_on_c, 12, 59, 52
14, 55199, Note_on_c, 12, 59, 0
14, 55200, Note_on_c, 12, 60, 52
14, 55319, Note_on_c, 12, 60, 0
14, 55320, Note_on_c, 12, 55, 52
14, 55439, Note_on_c, 12, 55, 0
14, 55560, Note_on_c, 12, 69, 52
14, 55679, Note_on_c, 12, 69, 0
14, 55680, Note_on_c, 12, 64, 52
14, 55799, Note_on_c, 12, 64, 0
14, 55800, Note_on_c, 12, 65, 52
14, 55919, Note_on_c, 12, 65, 0
14, 55920, Note_on_c, 12, 67, 52
14, 56039, Note_on_c, 12, 67, 0
14, 56040, Note_on_c, 12, 69, 52
14, 56159, Note_on_c, 12, 69, 0
14, 56280, Note_on_c, 12, 69, 52
14, 56399, Note_on_c, 12, 69, 0
14, 56400, Note_on_c, 12, 66, 52
14, 56519, Note_on_c, 12, 66, 0
14, 56520, Note_on_c, 12, 67, 52
14, 56639, Note_on_c, 12, 67, 0
14, 56640, Note_on_c, 12, 69, 52
14, 56759, Note_on_c, 12, 69, 0
14, 56760, Note_on_c, 12, 67, 52
14, 56864, Note_on_c, 12, 67, 0
14, 56880, Note_on_c, 12, 67, 84
14, 57051, Note_on_c, 12, 67, 0
14, 57060, Note_on_c, 12, 67, 84
14, 57111, Note_on_c, 12, 67, 0
14, 57120, Note_on_c, 12, 68, 84
14, 57299, Note_on_c, 12, 68, 0
14, 57360, Note_on_c, 12, 68, 84
14, 57531, Note_on_c, 12, 68, 0
14, 57540, Note_on_c, 12, 68, 84
14, 57591, Note_on_c, 12, 68, 0
14, 57600, Note_on_c, 12, 67, 84
14, 57779, Note_on_c, 12, 67, 0
14, 57840, Note_on_c, 12, 69, 84
14, 58011, Note_on_c, 12, 69, 0
14, 58020, Note_on_c, 12, 71, 84
14, 58071, Note_on_c, 12, 71, 0
14, 58080, Note_on_c, 12, 72, 84
14, 58259, Note_on_c, 12, 72, 0
14, 58320, Note_on_c, 12, 69, 84
14, 58491, Note_on_c, 12, 69, 0
14, 58500, Note_on_c, 12, 71, 84
14, 58551, Note_on_c, 12, 71, 0
14, 58560, Note_on_c, 12, 72, 84
14, 58739, Note_on_c, 12, 72, 0
14, 59520, Note_on_c, 12, 76, 52
14, 59759, Note_on_c, 12, 76, 0
14, 59760, Note_on_c, 12, 74, 52
14, 59984, Note_on_c, 12, 74, 0
14, 60000, Note_on_c, 12, 74, 52
14, 60239, Note_on_c, 12, 74, 0
14, 60240, Note_on_c, 12, 72, 52
14, 60479, Note_on_c, 12, 72, 0
14, 60720, Note_on_c, 12, 65, 52
14, 60959, Note_on_c, 12, 65, 0
14, 60960, Note_on_c, 12, 64, 52
14, 61199, Note_on_c, 12, 64, 0
14, 61320, Note_on_c, 12, 74, 52
14, 61439, Note_on_c, 12, 74, 0
14, 61440, Note_on_c, 12, 69, 52
14, 61559, Note_on_c, 12, 69, 0
14, 61560, Note_on_c, 12, 71, 52
14, 61679, Note_on_c, 12, 71, 0
14, 61680, Note_on_c, 12, 72, 52
14, 61799, Note_on_c, 12, 72, 0
14, 61800, Note_on_c, 12, 67, 52
14, 61919, Note_on_c, 12, 67, 0
14, 62040, Note_on_c, 12, 65, 52
14, 62159, Note_on_c, 12, 65, 0
14, 62160, Note_on_c, 12, 60, 52
14, 62279, Note_on_c, 12, 60, 0
14, 62280, Note_on_c, 12, 62, 52
14, 62399, Note_on_c, 12, 62, 0
14, 62400, Note_on_c, 12, 64, 52
14, 62519, Note_on_c, 12, 64, 0
14, 62520, Note_on_c, 12, 60, 52
14, 62639, Note_on_c, 12, 60, 0
14, 62760, Note_on_c, 12, 69, 52
14, 62879, Note_on_c, 12, 69, 0
14, 62880, Note_on_c, 12, 64, 52
14, 62999, Note_on_c, 12, 64, 0
14, 63000, Note_on_c, 12, 65, 52
14, 63119, Note_on_c, 12, 65, 0
14, 63120, Note_on_c, 12, 67, 52
14, 63239, Note_on_c, 12, 67, 0
14, 63240, Note_on_c, 12, 69, 52
14, 63359, Note_on_c, 12, 69, 0
14, 63360, Control_c, 12, 11, 80
14, 63480, Note_on_c, 12, 69, 76
14, 63599, Note_on_c, 12, 69, 0
14, 63600, Note_on_c, 12, 66, 76
14, 63719, Note_on_c, 12, 66, 0
14, 63720, Note_on_c, 12, 67, 76
14, 63839, Note_on_c, 12, 67, 0
14, 63840, Note_on_c, 12, 69, 76
14, 63959, Note_on_c, 12, 69, 0
14, 63960, Note_on_c, 12, 71, 76
14, 64064, Note_on_c, 12, 71, 0
14, 64080, Note_on_c, 12, 72, 76
14, 64304, Note_on_c, 12, 72, 0
14, 64320, Note_on_c, 12, 72, 76
14, 64320, Control_c, 12, 11, 80
14, 64420, Control_c, 12, 11, 84
14, 64520, Control_c, 12, 11, 88
14, 64620, Control_c, 12, 11, 92
14, 64679, Note_on_c, 12, 72, 0
14, 64680, Note_on_c, 12, 74, 76
14, 64720, Control_c, 12, 11, 96
14, 64784, Note_on_c, 12, 74, 0
14, 64800, Note_on_c, 12, 71, 76
14, 64820, Control_c, 12, 11, 100
14, 64920, Control_c, 12, 11, 104
14, 64979, Note_on_c, 12, 71, 0
14, 65020, Control_c, 12, 11, 107
14, 65040, Note_on_c, 12, 74, 76
14, 65120, Control_c, 12, 11, 111
14, 65220, Control_c, 12, 11, 115
14, 65320, Control_c, 12, 11, 119
14, 65399, Note_on_c, 12, 74, 0
14, 65400, Note_on_c, 12, 76, 76
14, 65420, Control_c, 12, 11, 127
14, 65504, Note_on_c, 12, 76, 0
14, 65520, Note_on_c, 12, 72, 76
14, 65571, Note_on_c, 12, 72, 0
14, 65580, Note_on_c, 12, 55, 76
14, 65580, Note_on_c, 12, 64, 76
14, 65631, Note_on_c, 12, 55, 0
14, 65631, Note_on_c, 12, 64, 0
14, 65640, Note_on_c, 12, 64, 76
14, 65640, Note_on_c, 12, 55, 76
14, 65691, Note_on_c, 12, 64, 0
14, 65691, Note_on_c, 12, 55, 0
14, 65700, Note_on_c, 12, 55, 76
14, 65700, Note_on_c, 12, 64, 76
14, 65751, Note_on_c, 12, 55, 0
14, 65751, Note_on_c, 12, 64, 0
14, 65760, Note_on_c, 12, 55, 84
14, 65760, Note_on_c, 12, 64, 84
14, 65811, Note_on_c, 12, 55, 0
14, 65811, Note_on_c, 12, 64, 0
14, 65820, Note_on_c, 12, 55, 76
14, 65820, Note_on_c, 12, 64, 76
14, 65871, Note_on_c, 12, 55, 0
14, 65871, Note_on_c, 12, 64, 0
14, 65880, Note_on_c, 12, 64, 76
14, 65880, Note_on_c, 12, 55, 76
14, 65931, Note_on_c, 12, 64, 0
14, 65931, Note_on_c, 12, 55, 0
14, 65940, Note_on_c, 12, 55, 76
14, 65940, Note_on_c, 12, 64, 76
14, 65991, Note_on_c, 12, 55, 0
14, 65991, Note_on_c, 12, 64, 0
14, 66000, Note_on_c, 12, 55, 76
14, 66000, Note_on_c, 12, 64, 76
14, 66051, Note_on_c, 12, 55, 0
14, 66051, Note_on_c, 12, 64, 0
14, 66060, Note_on_c, 12, 55, 76
14, 66060, Note_on_c, 12, 64, 76
14, 66111, Note_on_c, 12, 55, 0
14, 66111, Note_on_c, 12, 64, 0
14, 66120, Note_on_c, 12, 55, 76
14, 66120, Note_on_c, 12, 64, 76
14, 66171, Note_on_c, 12, 55, 0
14, 66171, Note_on_c, 12, 64, 0
14, 66180, Note_on_c, 12, 64, 76
14, 66180, Note_on_c, 12, 55, 76
14, 66231, Note_on_c, 12, 64, 0
14, 66231, Note_on_c, 12, 55, 0
14, 66240, Note_on_c, 12, 59, 84
14, 66291, Note_on_c, 12, 59, 0
14, 66300, Note_on_c, 12, 59, 76
14, 66351, Note_on_c, 12, 59, 0
14, 66360, Note_on_c, 12, 71, 76
14, 66411, Note_on_c, 12, 71, 0
14, 66420, Note_on_c, 12, 71, 76
14, 66471, Note_on_c, 12, 71, 0
14, 66480, Note_on_c, 12, 71, 76
14, 66531, Note_on_c, 12, 71, 0
14, 66540, Note_on_c, 12, 71, 76
14, 66591, Note_on_c, 12, 71, 0
14, 66600, Note_on_c, 12, 71, 76
14, 66651, Note_on_c, 12, 71, 0
14, 66660, Note_on_c, 12, 71, 76
14, 66711, Note_on_c, 12, 71, 0
14, 66720, Note_on_c, 12, 72, 76
14, 66771, Note_on_c, 12, 72, 0
14, 66780, Note_on_c, 12, 72, 76
14, 66831, Note_on_c, 12, 72, 0
14, 66840, Note_on_c, 12, 74, 76
14, 66891, Note_on_c, 12, 74, 0
14, 66900, Note_on_c, 12, 74, 76
14, 66951, Note_on_c, 12, 74, 0
14, 66960, Note_on_c, 12, 76, 84
14, 67011, Note_on_c, 12, 76, 0
14, 67020, Note_on_c, 12, 76, 76
14, 67071, Note_on_c, 12, 76, 0
14, 67080, Note_on_c, 12, 88, 76
14, 67131, Note_on_c, 12, 88, 0
14, 67140, Note_on_c, 12, 88, 76
14, 67191, Note_on_c, 12, 88, 0
14, 67200, Note_on_c, 12, 84, 76
14, 67251, Note_on_c, 12, 84, 0
14, 67260, Note_on_c, 12, 84, 76
14, 67311, Note_on_c, 12, 84, 0
14, 67320, Note_on_c, 12, 79, 76
14, 67371, Note_on_c, 12, 79, 0
14, 67380, Note_on_c, 12, 79, 76
14, 67431, Note_on_c, 12, 79, 0
14, 67440, Note_on_c, 12, 76, 76
14, 67491, Note_on_c, 12, 76, 0
14, 67500, Note_on_c, 12, 76, 76
14, 67551, Note_on_c, 12, 76, 0
14, 67560, Note_on_c, 12, 72, 76
14, 67611, Note_on_c, 12, 72, 0
14, 67620, Note_on_c, 12, 72, 76
14, 67671, Note_on_c, 12, 72, 0
14, 67680, Note_on_c, 12, 71, 84
14, 67731, Note_on_c, 12, 71, 0
14, 67740, Note_on_c, 12, 71, 76
14, 67791, Note_on_c, 12, 71, 0
14, 67800, Note_on_c, 12, 77, 76
14, 67851, Note_on_c, 12, 77, 0
14, 67860, Note_on_c, 12, 77, 76
14, 67911, Note_on_c, 12, 77, 0
14, 67920, Note_on_c, 12, 74, 76
14, 67971, Note_on_c, 12, 74, 0
14, 67980, Note_on_c, 12, 74, 76
14, 68031, Note_on_c, 12, 74, 0
14, 68040, Note_on_c, 12, 71, 76
14, 68091, Note_on_c, 12, 71, 0
14, 68100, Note_on_c, 12, 71, 76
14, 68151, Note_on_c, 12, 71, 0
14, 68160, Note_on_c, 12, 67, 76
14, 68211, Note_on_c, 12, 67, 0
14, 68220, Note_on_c, 12, 67, 76
14, 68271, Note_on_c, 12, 67, 0
14, 68280, Note_on_c, 12, 65, 76
14, 68331, Note_on_c, 12, 65, 0
14, 68340, Note_on_c, 12, 65, 76
14, 68391, Note_on_c, 12, 65, 0
14, 68400, Note_on_c, 12, 64, 84
14, 68451, Note_on_c, 12, 64, 0
14, 68460, Note_on_c, 12, 64, 84
14, 68511, Note_on_c, 12, 64, 0
14, 68520, Note_on_c, 12, 55, 84
14, 68571, Note_on_c, 12, 55, 0
14, 68580, Note_on_c, 12, 55, 84
14, 68631, Note_on_c, 12, 55, 0
14, 68640, Note_on_c, 12, 60, 84
14, 68691, Note_on_c, 12, 60, 0
14, 68700, Note_on_c, 12, 60, 84
14, 68751, Note_on_c, 12, 60, 0
14, 68760, Note_on_c, 12, 64, 84
14, 68811, Note_on_c, 12, 64, 0
14, 68820, Note_on_c, 12, 64, 84
14, 68871, Note_on_c, 12, 64, 0
14, 68880, Note_on_c, 12, 67, 84
14, 68931, Note_on_c, 12, 67, 0
14, 68940, Note_on_c, 12, 67, 84
14, 68991, Note_on_c, 12, 67, 0
14, 69000, Note_on_c, 12, 60, 84
14, 69051, Note_on_c, 12, 60, 0
14, 69060, Note_on_c, 12, 60, 84
14, 69111, Note_on_c, 12, 60, 0
14, 69120, Note_on_c, 12, 64, 84
14, 69171, Note_on_c, 12, 64, 0
14, 69180, Note_on_c, 12, 64, 84
14, 69231, Note_on_c, 12, 64, 0
14, 69240, Note_on_c, 12, 67, 84
14, 69291, Note_on_c, 12, 67, 0
14, 69300, Note_on_c, 12, 67, 84
14, 69351, Note_on_c, 12, 67, 0
14, 69360, Note_on_c, 12, 72, 84
14, 69411, Note_on_c, 12, 72, 0
14, 69420, Note_on_c, 12, 72, 84
14, 69471, Note_on_c, 12, 72, 0
14, 69480, Note_on_c, 12, 64, 84
14, 69531, Note_on_c, 12, 64, 0
14, 69540, Note_on_c, 12, 64, 84
14, 69591, Note_on_c, 12, 64, 0
14, 69600, Note_on_c, 12, 67, 84
14, 69651, Note_on_c, 12, 67, 0
14, 69660, Note_on_c, 12, 67, 84
14, 69711, Note_on_c, 12, 67, 0
14, 69720, Note_on_c, 12, 72, 84
14, 69771, Note_on_c, 12, 72, 0
14, 69780, Note_on_c, 12, 72, 84
14, 69831, Note_on_c, 12, 72, 0
14, 69840, Note_on_c, 12, 76, 84
14, 69891, Note_on_c, 12, 76, 0
14, 69900, Note_on_c, 12, 76, 84
14, 69951, Note_on_c, 12, 76, 0
14, 69960, Note_on_c, 12, 67, 84
14, 70011, Note_on_c, 12, 67, 0
14, 70020, Note_on_c, 12, 67, 84
14, 70071, Note_on_c, 12, 67, 0
14, 70080, Note_on_c, 12, 72, 84
14, 70131, Note_on_c, 12, 72, 0
14, 70140, Note_on_c, 12, 72, 84
14, 70191, Note_on_c, 12, 72, 0
14, 70200, Note_on_c, 12, 76, 84
14, 70251, Note_on_c, 12, 76, 0
14, 70260, Note_on_c, 12, 76, 84
14, 70311, Note_on_c, 12, 76, 0
14, 70320, Note_on_c, 12, 79, 84
14, 70371, Note_on_c, 12, 79, 0
14, 70380, Note_on_c, 12, 79, 84
14, 70431, Note_on_c, 12, 79, 0
14, 70440, Note_on_c, 12, 72, 84
14, 70491, Note_on_c, 12, 72, 0
14, 70500, Note_on_c, 12, 72, 84
14, 70551, Note_on_c, 12, 72, 0
14, 70560, Note_on_c, 12, 76, 84
14, 70611, Note_on_c, 12, 76, 0
14, 70620, Note_on_c, 12, 76, 84
14, 70671, Note_on_c, 12, 76, 0
14, 70680, Note_on_c, 12, 79, 84
14, 70731, Note_on_c, 12, 79, 0
14, 70740, Note_on_c, 12, 79, 84
14, 70791, Note_on_c, 12, 79, 0
14, 70800, Note_on_c, 12, 84, 84
14, 70851, Note_on_c, 12, 84, 0
14, 70860, Note_on_c, 12, 84, 84
14, 70911, Note_on_c, 12, 84, 0
14, 70920, Note_on_c, 12, 72, 84
14, 70971, Note_on_c, 12, 72, 0
14, 70980, Note_on_c, 12, 72, 84
14, 71031, Note_on_c, 12, 72, 0
14, 71040, Note_on_c, 12, 76, 84
14, 71091, Note_on_c, 12, 76, 0
14, 71100, Note_on_c, 12, 76, 84
14, 71151, Note_on_c, 12, 76, 0
14, 71160, Note_on_c, 12, 79, 84
14, 71211, Note_on_c, 12, 79, 0
14, 71220, Note_on_c, 12, 79, 84
14, 71271, Note_on_c, 12, 79, 0
14, 71280, Note_on_c, 12, 84, 92
14, 71339, Note_on_c, 12, 84, 0
14, 71340, Note_on_c, 12, 84, 84
14, 71519, Note_on_c, 12, 84, 0
14, 71640, Note_on_c, 12, 84, 84
14, 71729, Note_on_c, 12, 84, 0
14, 71760, Note_on_c, 12, 72, 84
14, 71849, Note_on_c, 12, 72, 0
14, 71880, Note_on_c, 12, 84, 84
14, 71969, Note_on_c, 12, 84, 0
14, 72000, Note_on_c, 12, 72, 92
14, 72059, Note_on_c, 12, 72, 0
14, 72060, Note_on_c, 12, 72, 84
14, 72239, Note_on_c, 12, 72, 0
14, 72360, Note_on_c, 12, 84, 84
14, 72449, Note_on_c, 12, 84, 0
14, 72480, Note_on_c, 12, 72, 84
14, 72569, Note_on_c, 12, 72, 0
14, 72600, Note_on_c, 12, 84, 84
14, 72689, Note_on_c, 12, 84, 0
14, 72720, Note_on_c, 12, 72, 92
14, 72779, Note_on_c, 12, 72, 0
14, 72780, Note_on_c, 12, 72, 84
14, 72959, Note_on_c, 12, 72, 0
14, 73080, Note_on_c, 12, 84, 84
14, 73169, Note_on_c, 12, 84, 0
14, 73200, Note_on_c, 12, 72, 84
14, 73289, Note_on_c, 12, 72, 0
14, 73320, Note_on_c, 12, 84, 84
14, 73409, Note_on_c, 12, 84, 0
14, 73440, Note_on_c, 12, 72, 92
14, 73499, Note_on_c, 12, 72, 0
14, 73500, Note_on_c, 12, 72, 84
14, 73679, Note_on_c, 12, 72, 0
14, 73800, Note_on_c, 12, 84, 84
14, 73889, Note_on_c, 12, 84, 0
14, 73920, Note_on_c, 12, 72, 84
14, 74009, Note_on_c, 12, 72, 0
14, 74040, Note_on_c, 12, 84, 84
14, 74129, Note_on_c, 12, 84, 0
14, 74160, Note_on_c, 12, 69, 76
14, 74160, Note_on_c, 12, 84, 76
14, 74399, Note_on_c, 12, 84, 0
14, 74400, Note_on_c, 12, 81, 76
14, 74519, Note_on_c, 12, 81, 0
14, 74520, Note_on_c, 12, 82, 76
14, 74624, Note_on_c, 12, 82, 0
14, 74639, Note_on_c, 12, 69, 0
14, 74640, Note_on_c, 12, 84, 76
14, 74729, Note_on_c, 12, 84, 0
14, 74760, Note_on_c, 12, 81, 76
14, 74849, Note_on_c, 12, 81, 0
14, 74880, Note_on_c, 12, 77, 76
14, 75344, Note_on_c, 12, 77, 0
14, 75360, Note_on_c, 12, 72, 76
14, 75449, Note_on_c, 12, 72, 0
14, 75480, Note_on_c, 12, 77, 76
14, 75569, Note_on_c, 12, 77, 0
14, 75600, Note_on_c, 12, 77, 76
14, 75719, Note_on_c, 12, 77, 0
14, 75720, Note_on_c, 12, 76, 76
14, 75824, Note_on_c, 12, 76, 0
14, 75840, Note_on_c, 12, 64, 76
14, 75929, Note_on_c, 12, 64, 0
14, 75960, Note_on_c, 12, 65, 76
14, 76049, Note_on_c, 12, 65, 0
14, 76080, Note_on_c, 12, 67, 76
14, 76169, Note_on_c, 12, 67, 0
14, 76200, Note_on_c, 12, 69, 76
14, 76289, Note_on_c, 12, 69, 0
14, 76320, Note_on_c, 12, 70, 76
14, 76559, Note_on_c, 12, 70, 0
14, 79920, Note_on_c, 12, 70, 76
14, 80159, Note_on_c, 12, 70, 0
14, 80160, Note_on_c, 12, 67, 76
14, 80279, Note_on_c, 12, 67, 0
14, 80280, Note_on_c, 12, 69, 76
14, 80384, Note_on_c, 12, 69, 0
14, 80400, Note_on_c, 12, 70, 76
14, 80489, Note_on_c, 12, 70, 0
14, 80520, Note_on_c, 12, 71, 76
14, 80609, Note_on_c, 12, 71, 0
14, 80640, Note_on_c, 12, 72, 84
14, 80699, Note_on_c, 12, 72, 0
14, 80700, Note_on_c, 12, 72, 76
14, 81104, Note_on_c, 12, 72, 0
14, 81120, Note_on_c, 12, 70, 76
14, 81344, Note_on_c, 12, 70, 0
14, 81360, Note_on_c, 12, 69, 76
14, 81419, Note_on_c, 12, 69, 0
14, 81420, Note_on_c, 12, 72, 76
14, 81479, Note_on_c, 12, 72, 0
14, 81600, Note_on_c, 12, 65, 76
14, 81719, Note_on_c, 12, 65, 0
14, 81840, Note_on_c, 12, 69, 76
14, 81899, Note_on_c, 12, 69, 0
14, 81900, Note_on_c, 12, 67, 76
14, 81959, Note_on_c, 12, 67, 0
14, 82080, Note_on_c, 12, 65, 76
14, 82131, Note_on_c, 12, 65, 0
14, 82140, Note_on_c, 12, 65, 76
14, 82191, Note_on_c, 12, 65, 0
14, 82200, Note_on_c, 12, 69, 76
14, 82251, Note_on_c, 12, 69, 0
14, 82260, Note_on_c, 12, 69, 76
14, 82311, Note_on_c, 12, 69, 0
14, 82320, Note_on_c, 12, 65, 76
14, 82371, Note_on_c, 12, 65, 0
14, 82380, Note_on_c, 12, 65, 76
14, 82431, Note_on_c, 12, 65, 0
14, 82440, Note_on_c, 12, 69, 76
14, 82491, Note_on_c, 12, 69, 0
14, 82500, Note_on_c, 12, 69, 76
14, 82551, Note_on_c, 12, 69, 0
14, 82560, Note_on_c, 12, 65, 76
14, 82611, Note_on_c, 12, 65, 0
14, 82620, Note_on_c, 12, 65, 76
14, 82671, Note_on_c, 12, 65, 0
14, 82680, Note_on_c, 12, 69, 76
14, 82731, Note_on_c, 12, 69, 0
14, 82740, Note_on_c, 12, 69, 76
14, 82791, Note_on_c, 12, 69, 0
14, 82800, Note_on_c, 12, 65, 76
14, 82851, Note_on_c, 12, 65, 0
14, 82860, Note_on_c, 12, 65, 76
14, 82911, Note_on_c, 12, 65, 0
14, 82920, Note_on_c, 12, 69, 76
14, 82971, Note_on_c, 12, 69, 0
14, 82980, Note_on_c, 12, 69, 76
14, 83031, Note_on_c, 12, 69, 0
14, 83040, Note_on_c, 12, 65, 76
14, 83091, Note_on_c, 12, 65, 0
14, 83100, Note_on_c, 12, 65, 76
14, 83151, Note_on_c, 12, 65, 0
14, 83160, Note_on_c, 12, 69, 76
14, 83211, Note_on_c, 12, 69, 0
14, 83220, Note_on_c, 12, 69, 76
14, 83271, Note_on_c, 12, 69, 0
14, 83280, Note_on_c, 12, 65, 76
14, 83331, Note_on_c, 12, 65, 0
14, 83340, Note_on_c, 12, 65, 76
14, 83391, Note_on_c, 12, 65, 0
14, 83400, Note_on_c, 12, 69, 76
14, 83451, Note_on_c, 12, 69, 0
14, 83460, Note_on_c, 12, 69, 76
14, 83511, Note_on_c, 12, 69, 0
14, 83520, Note_on_c, 12, 65, 76
14, 83571, Note_on_c, 12, 65, 0
14, 83580, Note_on_c, 12, 65, 76
14, 83631, Note_on_c, 12, 65, 0
14, 83640, Note_on_c, 12, 70, 76
14, 83691, Note_on_c, 12, 70, 0
14, 83700, Note_on_c, 12, 70, 76
14, 83751, Note_on_c, 12, 70, 0
14, 83760, Note_on_c, 12, 65, 76
14, 83811, Note_on_c, 12, 65, 0
14, 83820, Note_on_c, 12, 65, 76
14, 83871, Note_on_c, 12, 65, 0
14, 83880, Note_on_c, 12, 70, 76
14, 83931, Note_on_c, 12, 70, 0
14, 83940, Note_on_c, 12, 70, 76
14, 83991, Note_on_c, 12, 70, 0
14, 84000, Note_on_c, 12, 65, 76
14, 84051, Note_on_c, 12, 65, 0
14, 84060, Note_on_c, 12, 65, 76
14, 84111, Note_on_c, 12, 65, 0
14, 84120, Note_on_c, 12, 70, 76
14, 84171, Note_on_c, 12, 70, 0
14, 84180, Note_on_c, 12, 70, 76
14, 84231, Note_on_c, 12, 70, 0
14, 84240, Note_on_c, 12, 65, 76
14, 84291, Note_on_c, 12, 65, 0
14, 84300, Note_on_c, 12, 65, 76
14, 84351, Note_on_c, 12, 65, 0
14, 84360, Note_on_c, 12, 70, 76
14, 84411, Note_on_c, 12, 70, 0
14, 84420, Note_on_c, 12, 70, 76
14, 84471, Note_on_c, 12, 70, 0
14, 84480, Note_on_c, 12, 65, 76
14, 84531, Note_on_c, 12, 65, 0
14, 84540, Note_on_c, 12, 65, 76
14, 84591, Note_on_c, 12, 65, 0
14, 84600, Note_on_c, 12, 70, 76
14, 84651, Note_on_c, 12, 70, 0
14, 84660, Note_on_c, 12, 70, 76
14, 84711, Note_on_c, 12, 70, 0
14, 84720, Note_on_c, 12, 65, 76
14, 84771, Note_on_c, 12, 65, 0
14, 84780, Note_on_c, 12, 65, 76
14, 84831, Note_on_c, 12, 65, 0
14, 84840, Note_on_c, 12, 70, 76
14, 84891, Note_on_c, 12, 70, 0
14, 84900, Note_on_c, 12, 70, 76
14, 84951, Note_on_c, 12, 70, 0
14, 84960, Note_on_c, 12, 65, 76
14, 85011, Note_on_c, 12, 65, 0
14, 85020, Note_on_c, 12, 65, 76
14, 85071, Note_on_c, 12, 65, 0
14, 85080, Note_on_c, 12, 67, 76
14, 85131, Note_on_c, 12, 67, 0
14, 85140, Note_on_c, 12, 67, 76
14, 85191, Note_on_c, 12, 67, 0
14, 85200, Note_on_c, 12, 65, 76
14, 85251, Note_on_c, 12, 65, 0
14, 85260, Note_on_c, 12, 65, 76
14, 85311, Note_on_c, 12, 65, 0
14, 85320, Note_on_c, 12, 67, 76
14, 85371, Note_on_c, 12, 67, 0
14, 85380, Note_on_c, 12, 67, 76
14, 85431, Note_on_c, 12, 67, 0
14, 85440, Note_on_c, 12, 65, 76
14, 85491, Note_on_c, 12, 65, 0
14, 85500, Note_on_c, 12, 65, 76
14, 85551, Note_on_c, 12, 65, 0
14, 85560, Note_on_c, 12, 67, 76
14, 85611, Note_on_c, 12, 67, 0
14, 85620, Note_on_c, 12, 67, 76
14, 85671, Note_on_c, 12, 67, 0
14, 85680, Note_on_c, 12, 65, 76
14, 85731, Note_on_c, 12, 65, 0
14, 85740, Note_on_c, 12, 65, 76
14, 85791, Note_on_c, 12, 65, 0
14, 85800, Note_on_c, 12, 67, 76
14, 85851, Note_on_c, 12, 67, 0
14, 85860, Note_on_c, 12, 67, 76
14, 85911, Note_on_c, 12, 67, 0
14, 85920, Note_on_c, 12, 65, 76
14, 85971, Note_on_c, 12, 65, 0
14, 85980, Note_on_c, 12, 65, 76
14, 86031, Note_on_c, 12, 65, 0
14, 86040, Note_on_c, 12, 67, 76
14, 86091, Note_on_c, 12, 67, 0
14, 86100, Note_on_c, 12, 67, 76
14, 86151, Note_on_c, 12, 67, 0
14, 86160, Note_on_c, 12, 65, 76
14, 86211, Note_on_c, 12, 65, 0
14, 86220, Note_on_c, 12, 65, 76
14, 86271, Note_on_c, 12, 65, 0
14, 86280, Note_on_c, 12, 67, 76
14, 86331, Note_on_c, 12, 67, 0
14, 86340, Note_on_c, 12, 67, 76
14, 86391, Note_on_c, 12, 67, 0
14, 86400, Note_on_c, 12, 67, 76
14, 86451, Note_on_c, 12, 67, 0
14, 86460, Note_on_c, 12, 67, 76
14, 86511, Note_on_c, 12, 67, 0
14, 86520, Note_on_c, 12, 72, 76
14, 86571, Note_on_c, 12, 72, 0
14, 86580, Note_on_c, 12, 72, 76
14, 86631, Note_on_c, 12, 72, 0
14, 86640, Note_on_c, 12, 64, 76
14, 86691, Note_on_c, 12, 64, 0
14, 86700, Note_on_c, 12, 64, 76
14, 86751, Note_on_c, 12, 64, 0
14, 86760, Note_on_c, 12, 67, 76
14, 86811, Note_on_c, 12, 67, 0
14, 86820, Note_on_c, 12, 67, 76
14, 86871, Note_on_c, 12, 67, 0
14, 86880, Note_on_c, 12, 72, 76
14, 86931, Note_on_c, 12, 72, 0
14, 86940, Note_on_c, 12, 72, 76
14, 86991, Note_on_c, 12, 72, 0
14, 87000, Note_on_c, 12, 67, 76
14, 87051, Note_on_c, 12, 67, 0
14, 87060, Note_on_c, 12, 67, 76
14, 87111, Note_on_c, 12, 67, 0
14, 87120, Note_on_c, 12, 64, 76
14, 87171, Note_on_c, 12, 64, 0
14, 87180, Note_on_c, 12, 64, 76
14, 87231, Note_on_c, 12, 64, 0
14, 87240, Note_on_c, 12, 67, 76
14, 87291, Note_on_c, 12, 67, 0
14, 87300, Note_on_c, 12, 67, 76
14, 87351, Note_on_c, 12, 67, 0
14, 87360, Note_on_c, 12, 60, 76
14, 87411, Note_on_c, 12, 60, 0
14, 87420, Note_on_c, 12, 60, 76
14, 87471, Note_on_c, 12, 60, 0
14, 87480, Note_on_c, 12, 64, 76
14, 87531, Note_on_c, 12, 64, 0
14, 87540, Note_on_c, 12, 64, 76
14, 87591, Note_on_c, 12, 64, 0
14, 87600, Note_on_c, 12, 67, 76
14, 87651, Note_on_c, 12, 67, 0
14, 87660, Note_on_c, 12, 67, 76
14, 87711, Note_on_c, 12, 67, 0
14, 87720, Note_on_c, 12, 64, 76
14, 87771, Note_on_c, 12, 64, 0
14, 87780, Note_on_c, 12, 64, 76
14, 87831, Note_on_c, 12, 64, 0
14, 87840, Note_on_c, 12, 65, 76
14, 87891, Note_on_c, 12, 65, 0
14, 87900, Note_on_c, 12, 65, 76
14, 87951, Note_on_c, 12, 65, 0
14, 87960, Note_on_c, 12, 69, 76
14, 88011, Note_on_c, 12, 69, 0
14, 88020, Note_on_c, 12, 69, 76
14, 88071, Note_on_c, 12, 69, 0
14, 88080, Note_on_c, 12, 65, 76
14, 88131, Note_on_c, 12, 65, 0
14, 88140, Note_on_c, 12, 65, 76
14, 88191, Note_on_c, 12, 65, 0
14, 88200, Note_on_c, 12, 69, 76
14, 88251, Note_on_c, 12, 69, 0
14, 88260, Note_on_c, 12, 69, 76
14, 88311, Note_on_c, 12, 69, 0
14, 88320, Note_on_c, 12, 65, 76
14, 88371, Note_on_c, 12, 65, 0
14, 88380, Note_on_c, 12, 65, 76
14, 88431, Note_on_c, 12, 65, 0
14, 88440, Note_on_c, 12, 69, 76
14, 88491, Note_on_c, 12, 69, 0
14, 88500, Note_on_c, 12, 69, 76
14, 88551, Note_on_c, 12, 69, 0
14, 88560, Note_on_c, 12, 65, 76
14, 88611, Note_on_c, 12, 65, 0
14, 88620, Note_on_c, 12, 65, 76
14, 88671, Note_on_c, 12, 65, 0
14, 88680, Note_on_c, 12, 69, 76
14, 88731, Note_on_c, 12, 69, 0
14, 88740, Note_on_c, 12, 69, 76
14, 88791, Note_on_c, 12, 69, 0
14, 88800, Note_on_c, 12, 65, 76
14, 88851, Note_on_c, 12, 65, 0
14, 88860, Note_on_c, 12, 65, 76
14, 88911, Note_on_c, 12, 65, 0
14, 88920, Note_on_c, 12, 69, 76
14, 88971, Note_on_c, 12, 69, 0
14, 88980, Note_on_c, 12, 69, 76
14, 89031, Note_on_c, 12, 69, 0
14, 89040, Note_on_c, 12, 65, 76
14, 89091, Note_on_c, 12, 65, 0
14, 89100, Note_on_c, 12, 65, 76
14, 89151, Note_on_c, 12, 65, 0
14, 89160, Note_on_c, 12, 69, 76
14, 89211, Note_on_c, 12, 69, 0
14, 89220, Note_on_c, 12, 69, 76
14, 89271, Note_on_c, 12, 69, 0
14, 89280, Note_on_c, 12, 65, 76
14, 89331, Note_on_c, 12, 65, 0
14, 89340, Note_on_c, 12, 65, 76
14, 89391, Note_on_c, 12, 65, 0
14, 89400, Note_on_c, 12, 70, 76
14, 89451, Note_on_c, 12, 70, 0
14, 89460, Note_on_c, 12, 70, 76
14, 89511, Note_on_c, 12, 70, 0
14, 89520, Note_on_c, 12, 65, 76
14, 89571, Note_on_c, 12, 65, 0
14, 89580, Note_on_c, 12, 65, 76
14, 89631, Note_on_c, 12, 65, 0
14, 89640, Note_on_c, 12, 70, 76
14, 89691, Note_on_c, 12, 70, 0
14, 89700, Note_on_c, 12, 70, 76
14, 89751, Note_on_c, 12, 70, 0
14, 89760, Note_on_c, 12, 65, 76
14, 89811, Note_on_c, 12, 65, 0
14, 89820, Note_on_c, 12, 65, 76
14, 89871, Note_on_c, 12, 65, 0
14, 89880, Note_on_c, 12, 70, 76
14, 89931, Note_on_c, 12, 70, 0
14, 89940, Note_on_c, 12, 70, 76
14, 89991, Note_on_c, 12, 70, 0
14, 90000, Note_on_c, 12, 65, 76
14, 90051, Note_on_c, 12, 65, 0
14, 90060, Note_on_c, 12, 65, 76
14, 90111, Note_on_c, 12, 65, 0
14, 90120, Note_on_c, 12, 70, 76
14, 90171, Note_on_c, 12, 70, 0
14, 90180, Note_on_c, 12, 70, 76
14, 90231, Note_on_c, 12, 70, 0
14, 90240, Note_on_c, 12, 65, 76
14, 90291, Note_on_c, 12, 65, 0
14, 90300, Note_on_c, 12, 65, 76
14, 90351, Note_on_c, 12, 65, 0
14, 90360, Note_on_c, 12, 70, 76
14, 90411, Note_on_c, 12, 70, 0
14, 90420, Note_on_c, 12, 70, 76
14, 90471, Note_on_c, 12, 70, 0
14, 90480, Note_on_c, 12, 65, 76
14, 90531, Note_on_c, 12, 65, 0
14, 90540, Note_on_c, 12, 65, 76
14, 90591, Note_on_c, 12, 65, 0
14, 90600, Note_on_c, 12, 70, 76
14, 90651, Note_on_c, 12, 70, 0
14, 90660, Note_on_c, 12, 70, 76
14, 90711, Note_on_c, 12, 70, 0
14, 90720, Note_on_c, 12, 62, 76
14, 90771, Note_on_c, 12, 62, 0
14, 90780, Note_on_c, 12, 62, 76
14, 90831, Note_on_c, 12, 62, 0
14, 90840, Note_on_c, 12, 70, 76
14, 90891, Note_on_c, 12, 70, 0
14, 90900, Note_on_c, 12, 70, 76
14, 90951, Note_on_c, 12, 70, 0
14, 90960, Note_on_c, 12, 62, 76
14, 91011, Note_on_c, 12, 62, 0
14, 91020, Note_on_c, 12, 62, 76
14, 91071, Note_on_c, 12, 62, 0
14, 91080, Note_on_c, 12, 70, 76
14, 91131, Note_on_c, 12, 70, 0
14, 91140, Note_on_c, 12, 70, 76
14, 91191, Note_on_c, 12, 70, 0
14, 91200, Note_on_c, 12, 62, 76
14, 91251, Note_on_c, 12, 62, 0
14, 91260, Note_on_c, 12, 62, 76
14, 91311, Note_on_c, 12, 62, 0
14, 91320, Note_on_c, 12, 70, 76
14, 91371, Note_on_c, 12, 70, 0
14, 91380, Note_on_c, 12, 70, 76
14, 91431, Note_on_c, 12, 70, 0
14, 91440, Note_on_c, 12, 62, 76
14, 91491, Note_on_c, 12, 62, 0
14, 91500, Note_on_c, 12, 62, 76
14, 91551, Note_on_c, 12, 62, 0
14, 91560, Note_on_c, 12, 70, 76
14, 91611, Note_on_c, 12, 70, 0
14, 91620, Note_on_c, 12, 70, 76
14, 91671, Note_on_c, 12, 70, 0
14, 91680, Note_on_c, 12, 62, 76
14, 91731, Note_on_c, 12, 62, 0
14, 91740, Note_on_c, 12, 62, 76
14, 91791, Note_on_c, 12, 62, 0
14, 91800, Note_on_c, 12, 70, 76
14, 91851, Note_on_c, 12, 70, 0
14, 91860, Note_on_c, 12, 70, 76
14, 91911, Note_on_c, 12, 70, 0
14, 91920, Note_on_c, 12, 62, 76
14, 91971, Note_on_c, 12, 62, 0
14, 91980, Note_on_c, 12, 62, 76
14, 92031, Note_on_c, 12, 62, 0
14, 92040, Note_on_c, 12, 70, 76
14, 92091, Note_on_c, 12, 70, 0
14, 92100, Note_on_c, 12, 70, 76
14, 92151, Note_on_c, 12, 70, 0
14, 92160, Note_on_c, 12, 62, 76
14, 92211, Note_on_c, 12, 62, 0
14, 92220, Note_on_c, 12, 62, 76
14, 92271, Note_on_c, 12, 62, 0
14, 92280, Note_on_c, 12, 70, 76
14, 92331, Note_on_c, 12, 70, 0
14, 92340, Note_on_c, 12, 70, 76
14, 92391, Note_on_c, 12, 70, 0
14, 92400, Note_on_c, 12, 62, 76
14, 92451, Note_on_c, 12, 62, 0
14, 92460, Note_on_c, 12, 62, 76
14, 92511, Note_on_c, 12, 62, 0
14, 92520, Note_on_c, 12, 70, 76
14, 92571, Note_on_c, 12, 70, 0
14, 92580, Note_on_c, 12, 70, 76
14, 92631, Note_on_c, 12, 70, 0
14, 92640, Note_on_c, 12, 62, 76
14, 92691, Note_on_c, 12, 62, 0
14, 92700, Note_on_c, 12, 62, 76
14, 92751, Note_on_c, 12, 62, 0
14, 92760, Note_on_c, 12, 70, 76
14, 92811, Note_on_c, 12, 70, 0
14, 92820, Note_on_c, 12, 70, 76
14, 92871, Note_on_c, 12, 70, 0
14, 92880, Note_on_c, 12, 62, 76
14, 92931, Note_on_c, 12, 62, 0
14, 92940, Note_on_c, 12, 62, 76
14, 92991, Note_on_c, 12, 62, 0
14, 93000, Note_on_c, 12, 70, 76
14, 93051, Note_on_c, 12, 70, 0
14, 93060, Note_on_c, 12, 70, 76
14, 93111, Note_on_c, 12, 70, 0
14, 93120, Note_on_c, 12, 62, 76
14, 93171, Note_on_c, 12, 62, 0
14, 93180, Note_on_c, 12, 62, 76
14, 93231, Note_on_c, 12, 62, 0
14, 93240, Note_on_c, 12, 70, 76
14, 93291, Note_on_c, 12, 70, 0
14, 93300, Note_on_c, 12, 70, 76
14, 93351, Note_on_c, 12, 70, 0
14, 93360, Note_on_c, 12, 62, 76
14, 93411, Note_on_c, 12, 62, 0
14, 93420, Note_on_c, 12, 62, 76
14, 93471, Note_on_c, 12, 62, 0
14, 93480, Note_on_c, 12, 70, 76
14, 93531, Note_on_c, 12, 70, 0
14, 93540, Note_on_c, 12, 70, 76
14, 93591, Note_on_c, 12, 70, 0
14, 93600, Note_on_c, 12, 62, 76
14, 93651, Note_on_c, 12, 62, 0
14, 93660, Note_on_c, 12, 62, 76
14, 93711, Note_on_c, 12, 62, 0
14, 93720, Note_on_c, 12, 70, 76
14, 93771, Note_on_c, 12, 70, 0
14, 93780, Note_on_c, 12, 70, 76
14, 93831, Note_on_c, 12, 70, 0
14, 93840, Note_on_c, 12, 62, 76
14, 93891, Note_on_c, 12, 62, 0
14, 93900, Note_on_c, 12, 62, 76
14, 93951, Note_on_c, 12, 62, 0
14, 93960, Note_on_c, 12, 70, 76
14, 94011, Note_on_c, 12, 70, 0
14, 94020, Note_on_c, 12, 70, 76
14, 94071, Note_on_c, 12, 70, 0
14, 94080, Note_on_c, 12, 62, 84
14, 94131, Note_on_c, 12, 62, 0
14, 94140, Note_on_c, 12, 62, 76
14, 94191, Note_on_c, 12, 62, 0
14, 94200, Note_on_c, 12, 70, 76
14, 94251, Note_on_c, 12, 70, 0
14, 94260, Note_on_c, 12, 70, 76
14, 94311, Note_on_c, 12, 70, 0
14, 94320, Note_on_c, 12, 62, 76
14, 94371, Note_on_c, 12, 62, 0
14, 94380, Note_on_c, 12, 62, 76
14, 94431, Note_on_c, 12, 62, 0
14, 94440, Note_on_c, 12, 70, 76
14, 94491, Note_on_c, 12, 70, 0
14, 94500, Note_on_c, 12, 70, 76
14, 94551, Note_on_c, 12, 70, 0
14, 94560, Note_on_c, 12, 62, 76
14, 94611, Note_on_c, 12, 62, 0
14, 94620, Note_on_c, 12, 62, 76
14, 94671, Note_on_c, 12, 62, 0
14, 94680, Note_on_c, 12, 70, 76
14, 94731, Note_on_c, 12, 70, 0
14, 94740, Note_on_c, 12, 70, 76
14, 94791, Note_on_c, 12, 70, 0
14, 94800, Note_on_c, 12, 62, 84
14, 94851, Note_on_c, 12, 62, 0
14, 94860, Note_on_c, 12, 62, 76
14, 94911, Note_on_c, 12, 62, 0
14, 94920, Note_on_c, 12, 70, 76
14, 94971, Note_on_c, 12, 70, 0
14, 94980, Note_on_c, 12, 70, 76
14, 95031, Note_on_c, 12, 70, 0
14, 95040, Note_on_c, 12, 62, 76
14, 95159, Note_on_c, 12, 62, 0
14, 95520, Note_on_c, 12, 62, 84
14, 95520, Note_on_c, 12, 70, 84
14, 95639, Note_on_c, 12, 62, 0
14, 95639, Note_on_c, 12, 70, 0
14, 95760, Note_on_c, 12, 62, 76
14, 95879, Note_on_c, 12, 62, 0
14, 96240, Note_on_c, 12, 70, 84
14, 96240, Note_on_c, 12, 62, 84
14, 96359, Note_on_c, 12, 70, 0
14, 96359, Note_on_c, 12, 62, 0
14, 96480, Note_on_c, 12, 62, 76
14, 96599, Note_on_c, 12, 62, 0
14, 97920, Note_on_c, 12, 57, 52
14, 98099, Note_on_c, 12, 57, 0
14, 98400, Note_on_c, 12, 61, 52
14, 98579, Note_on_c, 12, 61, 0
14, 98640, Note_on_c, 12, 57, 52
14, 98819, Note_on_c, 12, 57, 0
14, 99120, Note_on_c, 12, 61, 52
14, 99299, Note_on_c, 12, 61, 0
14, 99360, Note_on_c, 12, 57, 52
14, 99539, Note_on_c, 12, 57, 0
14, 100560, Note_on_c, 12, 57, 52
14, 100649, Note_on_c, 12, 57, 0
14, 100680, Note_on_c, 12, 57, 52
14, 100919, Note_on_c, 12, 57, 0
14, 100920, Note_on_c, 12, 59, 52
14, 101039, Note_on_c, 12, 59, 0
14, 101040, Note_on_c, 12, 61, 52
14, 101159, Note_on_c, 12, 61, 0
14, 101160, Note_on_c, 12, 62, 52
14, 101264, Note_on_c, 12, 62, 0
14, 101280, Note_on_c, 12, 57, 52
14, 101369, Note_on_c, 12, 57, 0
14, 101400, Note_on_c, 12, 57, 52
14, 101639, Note_on_c, 12, 57, 0
14, 101640, Note_on_c, 12, 61, 52
14, 101759, Note_on_c, 12, 61, 0
14, 101760, Note_on_c, 12, 62, 52
14, 101879, Note_on_c, 12, 62, 0
14, 101880, Note_on_c, 12, 64, 52
14, 101984, Note_on_c, 12, 64, 0
14, 102000, Note_on_c, 12, 57, 52
14, 102089, Note_on_c, 12, 57, 0
14, 102120, Note_on_c, 12, 57, 52
14, 102359, Note_on_c, 12, 57, 0
14, 102360, Note_on_c, 12, 62, 52
14, 102479, Note_on_c, 12, 62, 0
14, 102480, Note_on_c, 12, 64, 52
14, 102599, Note_on_c, 12, 64, 0
14, 102600, Note_on_c, 12, 66, 52
14, 102719, Note_on_c, 12, 66, 0
14, 102720, Note_on_c, 12, 67, 52
14, 102839, Note_on_c, 12, 67, 0
14, 102840, Note_on_c, 12, 66, 52
14, 102944, Note_on_c, 12, 66, 0
14, 102960, Note_on_c, 12, 64, 52
14, 103184, Note_on_c, 12, 64, 0
14, 103200, Note_on_c, 12, 69, 52
14, 103799, Note_on_c, 12, 69, 0
14, 103800, Note_on_c, 12, 67, 52
14, 103919, Note_on_c, 12, 67, 0
14, 103920, Note_on_c, 12, 62, 52
14, 104039, Note_on_c, 12, 62, 0
14, 104040, Note_on_c, 12, 64, 52
14, 104144, Note_on_c, 12, 64, 0
14, 104160, Note_on_c, 12, 65, 52
14, 104519, Note_on_c, 12, 65, 0
14, 104520, Note_on_c, 12, 64, 52
14, 104639, Note_on_c, 12, 64, 0
14, 104640, Note_on_c, 12, 60, 52
14, 104759, Note_on_c, 12, 60, 0
14, 104760, Note_on_c, 12, 62, 52
14, 104864, Note_on_c, 12, 62, 0
14, 104880, Note_on_c, 12, 63, 52
14, 105119, Note_on_c, 12, 63, 0
14, 105240, Note_on_c, 12, 62, 52
14, 105359, Note_on_c, 12, 62, 0
14, 105360, Note_on_c, 12, 59, 52
14, 105479, Note_on_c, 12, 59, 0
14, 105480, Note_on_c, 12, 60, 52
14, 105599, Note_on_c, 12, 60, 0
14, 105600, Note_on_c, 12, 62, 52
14, 105719, Note_on_c, 12, 62, 0
14, 105720, Note_on_c, 12, 59, 52
14, 105839, Note_on_c, 12, 59, 0
14, 105840, Note_on_c, 12, 55, 52
14, 105959, Note_on_c, 12, 55, 0
14, 105960, Note_on_c, 12, 59, 52
14, 106079, Note_on_c, 12, 59, 0
14, 106080, Note_on_c, 12, 62, 52
14, 106199, Note_on_c, 12, 62, 0
14, 106200, Note_on_c, 12, 65, 52
14, 106319, Note_on_c, 12, 65, 0
14, 106320, Note_on_c, 12, 64, 52
14, 106439, Note_on_c, 12, 64, 0
14, 106440, Note_on_c, 12, 62, 52
14, 106544, Note_on_c, 12, 62, 0
14, 106560, Note_on_c, 12, 60, 52
14, 106799, Note_on_c, 12, 60, 0
14, 106800, Program_c, 12, 45
14, 107040, Note_on_c, 12, 64, 44
14, 107279, Note_on_c, 12, 64, 0
14, 107280, Note_on_c, 12, 62, 44
14, 107519, Note_on_c, 12, 62, 0
14, 107520, Note_on_c, 12, 67, 44
14, 107759, Note_on_c, 12, 67, 0
14, 107760, Note_on_c, 12, 67, 44
14, 107999, Note_on_c, 12, 67, 0
14, 108000, Note_on_c, 12, 67, 44
14, 108239, Note_on_c, 12, 67, 0
14, 108240, Note_on_c, 12, 67, 44
14, 108479, Note_on_c, 12, 67, 0
14, 108480, Note_on_c, 12, 67, 44
14, 108719, Note_on_c, 12, 67, 0
14, 108720, Note_on_c, 12, 67, 44
14, 108959, Note_on_c, 12, 67, 0
14, 108960, Note_on_c, 12, 67, 44
14, 109199, Note_on_c, 12, 67, 0
14, 109200, Note_on_c, 12, 59, 44
14, 109439, Note_on_c, 12, 59, 0
14, 109440, Note_on_c, 12, 60, 44
14, 109679, Note_on_c, 12, 60, 0
14, 109680, Note_on_c, 12, 57, 44
14, 109919, Note_on_c, 12, 57, 0
14, 109920, Note_on_c, 12, 62, 44
14, 110159, Note_on_c, 12, 62, 0
14, 110160, Note_on_c, 12, 59, 44
14, 110399, Note_on_c, 12, 59, 0
14, 110400, Note_on_c, 12, 55, 44
14, 110639, Note_on_c, 12, 55, 0
14, 110640, Note_on_c, 12, 60, 44
14, 110864, Note_on_c, 12, 60, 0
14, 110878, Program_c, 12, 48
14, 110880, Note_on_c, 12, 60, 44
14, 110880, Note_on_c, 12, 63, 44
14, 110931, Note_on_c, 12, 60, 0
14, 110931, Note_on_c, 12, 63, 0
14, 110940, Note_on_c, 12, 60, 44
14, 110940, Note_on_c, 12, 63, 44
14, 110991, Note_on_c, 12, 60, 0
14, 110991, Note_on_c, 12, 63, 0
14, 111000, Note_on_c, 12, 63, 44
14, 111000, Note_on_c, 12, 60, 44
14, 111051, Note_on_c, 12, 63, 0
14, 111051, Note_on_c, 12, 60, 0
14, 111060, Note_on_c, 12, 60, 44
14, 111060, Note_on_c, 12, 63, 44
14, 111111, Note_on_c, 12, 60, 0
14, 111111, Note_on_c, 12, 63, 0
14, 111120, Note_on_c, 12, 60, 44
14, 111120, Note_on_c, 12, 63, 44
14, 111171, Note_on_c, 12, 60, 0
14, 111171, Note_on_c, 12, 63, 0
14, 111180, Note_on_c, 12, 60, 44
14, 111180, Note_on_c, 12, 63, 44
14, 111231, Note_on_c, 12, 60, 0
14, 111231, Note_on_c, 12, 63, 0
14, 111240, Note_on_c, 12, 63, 44
14, 111240, Note_on_c, 12, 60, 44
14, 111291, Note_on_c, 12, 63, 0
14, 111291, Note_on_c, 12, 60, 0
14, 111300, Note_on_c, 12, 63, 44
14, 111300, Note_on_c, 12, 60, 44
14, 111351, Note_on_c, 12, 63, 0
14, 111351, Note_on_c, 12, 60, 0
14, 111360, Note_on_c, 12, 63, 44
14, 111360, Note_on_c, 12, 60, 44
14, 111411, Note_on_c, 12, 63, 0
14, 111411, Note_on_c, 12, 60, 0
14, 111420, Note_on_c, 12, 60, 44
14, 111420, Note_on_c, 12, 63, 44
14, 111471, Note_on_c, 12, 60, 0
14, 111471, Note_on_c, 12, 63, 0
14, 111480, Note_on_c, 12, 63, 44
14, 111480, Note_on_c, 12, 60, 44
14, 111531, Note_on_c, 12, 63, 0
14, 111531, Note_on_c, 12, 60, 0
14, 111540, Note_on_c, 12, 60, 44
14, 111540, Note_on_c, 12, 63, 44
14, 111591, Note_on_c, 12, 60, 0
14, 111591, Note_on_c, 12, 63, 0
14, 111600, Note_on_c, 12, 63, 44
14, 111600, Note_on_c, 12, 60, 44
14, 111651, Note_on_c, 12, 63, 0
14, 111651, Note_on_c, 12, 60, 0
14, 111660, Note_on_c, 12, 60, 44
14, 111660, Note_on_c, 12, 63, 44
14, 111711, Note_on_c, 12, 60, 0
14, 111711, Note_on_c, 12, 63, 0
14, 111720, Note_on_c, 12, 60, 44
14, 111720, Note_on_c, 12, 63, 44
14, 111771, Note_on_c, 12, 60, 0
14, 111771, Note_on_c, 12, 63, 0
14, 111780, Note_on_c, 12, 63, 44
14, 111780, Note_on_c, 12, 60, 44
14, 111831, Note_on_c, 12, 63, 0
14, 111831, Note_on_c, 12, 60, 0
14, 111840, Note_on_c, 12, 60, 44
14, 111840, Note_on_c, 12, 63, 44
14, 111891, Note_on_c, 12, 60, 0
14, 111891, Note_on_c, 12, 63, 0
14, 111900, Note_on_c, 12, 63, 44
14, 111900, Note_on_c, 12, 60, 44
14, 111951, Note_on_c, 12, 63, 0
14, 111951, Note_on_c, 12, 60, 0
14, 111960, Note_on_c, 12, 63, 44
14, 111960, Note_on_c, 12, 60, 44
14, 112011, Note_on_c, 12, 63, 0
14, 112011, Note_on_c, 12, 60, 0
14, 112020, Note_on_c, 12, 60, 44
14, 112020, Note_on_c, 12, 63, 44
14, 112071, Note_on_c, 12, 60, 0
14, 112071, Note_on_c, 12, 63, 0
14, 112080, Note_on_c, 12, 63, 44
14, 112080, Note_on_c, 12, 60, 44
14, 112131, Note_on_c, 12, 63, 0
14, 112131, Note_on_c, 12, 60, 0
14, 112140, Note_on_c, 12, 63, 44
14, 112140, Note_on_c, 12, 60, 44
14, 112191, Note_on_c, 12, 63, 0
14, 112191, Note_on_c, 12, 60, 0
14, 112200, Note_on_c, 12, 63, 44
14, 112200, Note_on_c, 12, 60, 44
14, 112251, Note_on_c, 12, 63, 0
14, 112251, Note_on_c, 12, 60, 0
14, 112260, Note_on_c, 12, 60, 44
14, 112260, Note_on_c, 12, 63, 44
14, 112311, Note_on_c, 12, 60, 0
14, 112311, Note_on_c, 12, 63, 0
14, 112320, Note_on_c, 12, 60, 44
14, 112320, Note_on_c, 12, 63, 44
14, 112371, Note_on_c, 12, 60, 0
14, 112371, Note_on_c, 12, 63, 0
14, 112380, Note_on_c, 12, 63, 44
14, 112380, Note_on_c, 12, 60, 44
14, 112431, Note_on_c, 12, 63, 0
14, 112431, Note_on_c, 12, 60, 0
14, 112440, Note_on_c, 12, 60, 44
14, 112440, Note_on_c, 12, 63, 44
14, 112491, Note_on_c, 12, 60, 0
14, 112491, Note_on_c, 12, 63, 0
14, 112500, Note_on_c, 12, 63, 44
14, 112500, Note_on_c, 12, 60, 44
14, 112551, Note_on_c, 12, 63, 0
14, 112551, Note_on_c, 12, 60, 0
14, 112560, Note_on_c, 12, 60, 44
14, 112560, Note_on_c, 12, 63, 44
14, 112611, Note_on_c, 12, 60, 0
14, 112611, Note_on_c, 12, 63, 0
14, 112620, Note_on_c, 12, 60, 44
14, 112620, Note_on_c, 12, 63, 44
14, 112671, Note_on_c, 12, 60, 0
14, 112671, Note_on_c, 12, 63, 0
14, 112680, Note_on_c, 12, 60, 44
14, 112680, Note_on_c, 12, 63, 44
14, 112731, Note_on_c, 12, 60, 0
14, 112731, Note_on_c, 12, 63, 0
14, 112740, Note_on_c, 12, 60, 44
14, 112740, Note_on_c, 12, 63, 44
14, 112791, Note_on_c, 12, 60, 0
14, 112791, Note_on_c, 12, 63, 0
14, 112800, Note_on_c, 12, 63, 44
14, 112800, Note_on_c, 12, 60, 44
14, 112851, Note_on_c, 12, 63, 0
14, 112851, Note_on_c, 12, 60, 0
14, 112860, Note_on_c, 12, 63, 44
14, 112860, Note_on_c, 12, 60, 44
14, 112911, Note_on_c, 12, 63, 0
14, 112911, Note_on_c, 12, 60, 0
14, 112920, Note_on_c, 12, 60, 44
14, 112920, Note_on_c, 12, 63, 44
14, 112971, Note_on_c, 12, 60, 0
14, 112971, Note_on_c, 12, 63, 0
14, 112980, Note_on_c, 12, 60, 44
14, 112980, Note_on_c, 12, 63, 44
14, 113031, Note_on_c, 12, 60, 0
14, 113031, Note_on_c, 12, 63, 0
14, 113040, Note_on_c, 12, 60, 44
14, 113040, Note_on_c, 12, 63, 44
14, 113091, Note_on_c, 12, 60, 0
14, 113091, Note_on_c, 12, 63, 0
14, 113100, Note_on_c, 12, 60, 44
14, 113100, Note_on_c, 12, 63, 44
14, 113151, Note_on_c, 12, 60, 0
14, 113151, Note_on_c, 12, 63, 0
14, 113160, Note_on_c, 12, 63, 44
14, 113160, Note_on_c, 12, 60, 44
14, 113211, Note_on_c, 12, 63, 0
14, 113211, Note_on_c, 12, 60, 0
14, 113220, Note_on_c, 12, 63, 44
14, 113220, Note_on_c, 12, 60, 44
14, 113271, Note_on_c, 12, 63, 0
14, 113271, Note_on_c, 12, 60, 0
14, 113280, Note_on_c, 12, 63, 44
14, 113280, Note_on_c, 12, 60, 44
14, 113331, Note_on_c, 12, 63, 0
14, 113331, Note_on_c, 12, 60, 0
14, 113340, Note_on_c, 12, 60, 44
14, 113340, Note_on_c, 12, 63, 44
14, 113391, Note_on_c, 12, 60, 0
14, 113391, Note_on_c, 12, 63, 0
14, 113400, Note_on_c, 12, 60, 44
14, 113400, Note_on_c, 12, 63, 44
14, 113451, Note_on_c, 12, 60, 0
14, 113451, Note_on_c, 12, 63, 0
14, 113460, Note_on_c, 12, 63, 44
14, 113460, Note_on_c, 12, 60, 44
14, 113511, Note_on_c, 12, 63, 0
14, 113511, Note_on_c, 12, 60, 0
14, 113520, Note_on_c, 12, 60, 44
14, 113520, Note_on_c, 12, 63, 44
14, 113571, Note_on_c, 12, 60, 0
14, 113571, Note_on_c, 12, 63, 0
14, 113580, Note_on_c, 12, 63, 44
14, 113580, Note_on_c, 12, 60, 44
14, 113631, Note_on_c, 12, 63, 0
14, 113631, Note_on_c, 12, 60, 0
14, 113640, Note_on_c, 12, 60, 44
14, 113640, Note_on_c, 12, 63, 44
14, 113691, Note_on_c, 12, 60, 0
14, 113691, Note_on_c, 12, 63, 0
14, 113700, Note_on_c, 12, 63, 44
14, 113700, Note_on_c, 12, 60, 44
14, 113751, Note_on_c, 12, 63, 0
14, 113751, Note_on_c, 12, 60, 0
14, 113760, Note_on_c, 12, 60, 44
14, 113760, Note_on_c, 12, 63, 44
14, 113811, Note_on_c, 12, 60, 0
14, 113811, Note_on_c, 12, 63, 0
14, 113820, Note_on_c, 12, 60, 44
14, 113820, Note_on_c, 12, 63, 44
14, 113871, Note_on_c, 12, 60, 0
14, 113871, Note_on_c, 12, 63, 0
14, 113880, Note_on_c, 12, 63, 44
14, 113880, Note_on_c, 12, 60, 44
14, 113931, Note_on_c, 12, 63, 0
14, 113931, Note_on_c, 12, 60, 0
14, 113940, Note_on_c, 12, 63, 44
14, 113940, Note_on_c, 12, 60, 44
14, 113991, Note_on_c, 12, 63, 0
14, 113991, Note_on_c, 12, 60, 0
14, 114000, Note_on_c, 12, 60, 44
14, 114000, Note_on_c, 12, 63, 44
14, 114051, Note_on_c, 12, 60, 0
14, 114051, Note_on_c, 12, 63, 0
14, 114060, Note_on_c, 12, 63, 44
14, 114060, Note_on_c, 12, 60, 44
14, 114111, Note_on_c, 12, 63, 0
14, 114111, Note_on_c, 12, 60, 0
14, 114120, Note_on_c, 12, 60, 44
14, 114120, Note_on_c, 12, 63, 44
14, 114171, Note_on_c, 12, 60, 0
14, 114171, Note_on_c, 12, 63, 0
14, 114180, Note_on_c, 12, 63, 44
14, 114180, Note_on_c, 12, 60, 44
14, 114231, Note_on_c, 12, 63, 0
14, 114231, Note_on_c, 12, 60, 0
14, 114240, Note_on_c, 12, 60, 44
14, 114240, Note_on_c, 12, 63, 44
14, 114291, Note_on_c, 12, 60, 0
14, 114291, Note_on_c, 12, 63, 0
14, 114300, Note_on_c, 12, 63, 44
14, 114300, Note_on_c, 12, 60, 44
14, 114351, Note_on_c, 12, 63, 0
14, 114351, Note_on_c, 12, 60, 0
14, 114360, Note_on_c, 12, 60, 44
14, 114360, Note_on_c, 12, 63, 44
14, 114411, Note_on_c, 12, 60, 0
14, 114411, Note_on_c, 12, 63, 0
14, 114420, Note_on_c, 12, 60, 44
14, 114420, Note_on_c, 12, 63, 44
14, 114471, Note_on_c, 12, 60, 0
14, 114471, Note_on_c, 12, 63, 0
14, 114480, Note_on_c, 12, 63, 44
14, 114480, Note_on_c, 12, 60, 44
14, 114531, Note_on_c, 12, 63, 0
14, 114531, Note_on_c, 12, 60, 0
14, 114540, Note_on_c, 12, 60, 44
14, 114540, Note_on_c, 12, 63, 44
14, 114591, Note_on_c, 12, 60, 0
14, 114591, Note_on_c, 12, 63, 0
14, 114600, Note_on_c, 12, 60, 44
14, 114600, Note_on_c, 12, 63, 44
14, 114651, Note_on_c, 12, 60, 0
14, 114651, Note_on_c, 12, 63, 0
14, 114660, Note_on_c, 12, 60, 44
14, 114660, Note_on_c, 12, 63, 44
14, 114711, Note_on_c, 12, 60, 0
14, 114711, Note_on_c, 12, 63, 0
14, 114720, Note_on_c, 12, 63, 44
14, 114720, Note_on_c, 12, 60, 44
14, 114771, Note_on_c, 12, 63, 0
14, 114771, Note_on_c, 12, 60, 0
14, 114780, Note_on_c, 12, 60, 44
14, 114780, Note_on_c, 12, 63, 44
14, 114831, Note_on_c, 12, 60, 0
14, 114831, Note_on_c, 12, 63, 0
14, 114840, Note_on_c, 12, 60, 44
14, 114840, Note_on_c, 12, 63, 44
14, 114891, Note_on_c, 12, 60, 0
14, 114891, Note_on_c, 12, 63, 0
14, 114900, Note_on_c, 12, 63, 44
14, 114900, Note_on_c, 12, 60, 44
14, 114951, Note_on_c, 12, 63, 0
14, 114951, Note_on_c, 12, 60, 0
14, 114960, Note_on_c, 12, 60, 44
14, 114960, Note_on_c, 12, 63, 44
14, 115011, Note_on_c, 12, 60, 0
14, 115011, Note_on_c, 12, 63, 0
14, 115020, Note_on_c, 12, 63, 44
14, 115020, Note_on_c, 12, 60, 44
14, 115071, Note_on_c, 12, 63, 0
14, 115071, Note_on_c, 12, 60, 0
14, 115080, Note_on_c, 12, 60, 44
14, 115080, Note_on_c, 12, 63, 44
14, 115131, Note_on_c, 12, 60, 0
14, 115131, Note_on_c, 12, 63, 0
14, 115140, Note_on_c, 12, 60, 44
14, 115140, Note_on_c, 12, 63, 44
14, 115191, Note_on_c, 12, 60, 0
14, 115191, Note_on_c, 12, 63, 0
14, 115200, Note_on_c, 12, 63, 44
14, 115200, Note_on_c, 12, 60, 44
14, 115251, Note_on_c, 12, 63, 0
14, 115251, Note_on_c, 12, 60, 0
14, 115260, Note_on_c, 12, 60, 45
14, 115260, Note_on_c, 12, 63, 45
14, 115311, Note_on_c, 12, 60, 0
14, 115311, Note_on_c, 12, 63, 0
14, 115320, Note_on_c, 12, 63, 46
14, 115320, Note_on_c, 12, 60, 46
14, 115371, Note_on_c, 12, 63, 0
14, 115371, Note_on_c, 12, 60, 0
14, 115380, Note_on_c, 12, 63, 48
14, 115380, Note_on_c, 12, 60, 48
14, 115431, Note_on_c, 12, 63, 0
14, 115431, Note_on_c, 12, 60, 0
14, 115440, Note_on_c, 12, 60, 49
14, 115440, Note_on_c, 12, 63, 49
14, 115491, Note_on_c, 12, 60, 0
14, 115491, Note_on_c, 12, 63, 0
14, 115500, Note_on_c, 12, 63, 50
14, 115500, Note_on_c, 12, 60, 50
14, 115551, Note_on_c, 12, 63, 0
14, 115551, Note_on_c, 12, 60, 0
14, 115560, Note_on_c, 12, 63, 52
14, 115560, Note_on_c, 12, 60, 52
14, 115611, Note_on_c, 12, 63, 0
14, 115611, Note_on_c, 12, 60, 0
14, 115620, Note_on_c, 12, 63, 53
14, 115620, Note_on_c, 12, 60, 53
14, 115671, Note_on_c, 12, 63, 0
14, 115671, Note_on_c, 12, 60, 0
14, 115680, Note_on_c, 12, 63, 54
14, 115680, Note_on_c, 12, 60, 54
14, 115731, Note_on_c, 12, 63, 0
14, 115731, Note_on_c, 12, 60, 0
14, 115740, Note_on_c, 12, 60, 56
14, 115740, Note_on_c, 12, 63, 56
14, 115791, Note_on_c, 12, 60, 0
14, 115791, Note_on_c, 12, 63, 0
14, 115800, Note_on_c, 12, 60, 57
14, 115800, Note_on_c, 12, 63, 57
14, 115851, Note_on_c, 12, 60, 0
14, 115851, Note_on_c, 12, 63, 0
14, 115860, Note_on_c, 12, 63, 58
14, 115860, Note_on_c, 12, 60, 58
14, 115911, Note_on_c, 12, 63, 0
14, 115911, Note_on_c, 12, 60, 0
14, 115920, Note_on_c, 12, 63, 60
14, 115920, Note_on_c, 12, 60, 60
14, 115971, Note_on_c, 12, 63, 0
14, 115971, Note_on_c, 12, 60, 0
14, 115980, Note_on_c, 12, 60, 61
14, 115980, Note_on_c, 12, 63, 61
14, 116031, Note_on_c, 12, 60, 0
14, 116031, Note_on_c, 12, 63, 0
14, 116040, Note_on_c, 12, 63, 62
14, 116040, Note_on_c, 12, 60, 62
14, 116091, Note_on_c, 12, 63, 0
14, 116091, Note_on_c, 12, 60, 0
14, 116100, Note_on_c, 12, 60, 64
14, 116100, Note_on_c, 12, 63, 64
14, 116151, Note_on_c, 12, 60, 0
14, 116151, Note_on_c, 12, 63, 0
14, 116160, Note_on_c, 12, 60, 65
14, 116160, Note_on_c, 12, 63, 65
14, 116211, Note_on_c, 12, 60, 0
14, 116211, Note_on_c, 12, 63, 0
14, 116220, Note_on_c, 12, 60, 66
14, 116220, Note_on_c, 12, 63, 66
14, 116271, Note_on_c, 12, 60, 0
14, 116271, Note_on_c, 12, 63, 0
14, 116280, Note_on_c, 12, 63, 68
14, 116280, Note_on_c, 12, 60, 68
14, 116331, Note_on_c, 12, 63, 0
14, 116331, Note_on_c, 12, 60, 0
14, 116340, Note_on_c, 12, 63, 69
14, 116340, Note_on_c, 12, 60, 69
14, 116391, Note_on_c, 12, 63, 0
14, 116391, Note_on_c, 12, 60, 0
14, 116400, Note_on_c, 12, 60, 70
14, 116400, Note_on_c, 12, 63, 70
14, 116451, Note_on_c, 12, 60, 0
14, 116451, Note_on_c, 12, 63, 0
14, 116460, Note_on_c, 12, 60, 72
14, 116460, Note_on_c, 12, 63, 72
14, 116511, Note_on_c, 12, 60, 0
14, 116511, Note_on_c, 12, 63, 0
14, 116520, Note_on_c, 12, 60, 73
14, 116520, Note_on_c, 12, 63, 73
14, 116571, Note_on_c, 12, 60, 0
14, 116571, Note_on_c, 12, 63, 0
14, 116580, Note_on_c, 12, 60, 74
14, 116580, Note_on_c, 12, 63, 74
14, 116631, Note_on_c, 12, 60, 0
14, 116631, Note_on_c, 12, 63, 0
14, 116640, Note_on_c, 12, 62, 84
14, 116640, Note_on_c, 12, 65, 84
14, 116691, Note_on_c, 12, 62, 0
14, 116691, Note_on_c, 12, 65, 0
14, 116700, Note_on_c, 12, 62, 76
14, 116700, Note_on_c, 12, 65, 76
14, 116751, Note_on_c, 12, 62, 0
14, 116751, Note_on_c, 12, 65, 0
14, 116760, Note_on_c, 12, 65, 76
14, 116760, Note_on_c, 12, 62, 76
14, 116811, Note_on_c, 12, 65, 0
14, 116811, Note_on_c, 12, 62, 0
14, 116820, Note_on_c, 12, 65, 76
14, 116820, Note_on_c, 12, 62, 76
14, 116871, Note_on_c, 12, 65, 0
14, 116871, Note_on_c, 12, 62, 0
14, 116880, Note_on_c, 12, 65, 76
14, 116880, Note_on_c, 12, 62, 76
14, 116931, Note_on_c, 12, 65, 0
14, 116931, Note_on_c, 12, 62, 0
14, 116940, Note_on_c, 12, 62, 76
14, 116940, Note_on_c, 12, 65, 76
14, 116991, Note_on_c, 12, 62, 0
14, 116991, Note_on_c, 12, 65, 0
14, 117000, Note_on_c, 12, 65, 76
14, 117000, Note_on_c, 12, 62, 76
14, 117051, Note_on_c, 12, 65, 0
14, 117051, Note_on_c, 12, 62, 0
14, 117060, Note_on_c, 12, 62, 76
14, 117060, Note_on_c, 12, 65, 76
14, 117111, Note_on_c, 12, 62, 0
14, 117111, Note_on_c, 12, 65, 0
14, 117120, Note_on_c, 12, 62, 76
14, 117120, Note_on_c, 12, 65, 76
14, 117171, Note_on_c, 12, 62, 0
14, 117171, Note_on_c, 12, 65, 0
14, 117180, Note_on_c, 12, 62, 76
14, 117180, Note_on_c, 12, 65, 76
14, 117231, Note_on_c, 12, 62, 0
14, 117231, Note_on_c, 12, 65, 0
14, 117240, Note_on_c, 12, 65, 76
14, 117240, Note_on_c, 12, 62, 76
14, 117291, Note_on_c, 12, 65, 0
14, 117291, Note_on_c, 12, 62, 0
14, 117300, Note_on_c, 12, 65, 76
14, 117300, Note_on_c, 12, 62, 76
14, 117351, Note_on_c, 12, 65, 0
14, 117351, Note_on_c, 12, 62, 0
14, 117360, Note_on_c, 12, 62, 76
14, 117360, Note_on_c, 12, 65, 76
14, 117411, Note_on_c, 12, 62, 0
14, 117411, Note_on_c, 12, 65, 0
14, 117420, Note_on_c, 12, 62, 76
14, 117420, Note_on_c, 12, 65, 76
14, 117471, Note_on_c, 12, 62, 0
14, 117471, Note_on_c, 12, 65, 0
14, 117480, Note_on_c, 12, 62, 76
14, 117480, Note_on_c, 12, 65, 76
14, 117531, Note_on_c, 12, 62, 0
14, 117531, Note_on_c, 12, 65, 0
14, 117540, Note_on_c, 12, 62, 76
14, 117540, Note_on_c, 12, 65, 76
14, 117591, Note_on_c, 12, 62, 0
14, 117591, Note_on_c, 12, 65, 0
14, 117600, Note_on_c, 12, 65, 76
14, 117600, Note_on_c, 12, 62, 76
14, 117651, Note_on_c, 12, 65, 0
14, 117651, Note_on_c, 12, 62, 0
14, 117660, Note_on_c, 12, 62, 76
14, 117660, Note_on_c, 12, 65, 76
14, 117711, Note_on_c, 12, 62, 0
14, 117711, Note_on_c, 12, 65, 0
14, 117720, Note_on_c, 12, 65, 76
14, 117720, Note_on_c, 12, 62, 76
14, 117771, Note_on_c, 12, 65, 0
14, 117771, Note_on_c, 12, 62, 0
14, 117780, Note_on_c, 12, 62, 76
14, 117780, Note_on_c, 12, 65, 76
14, 117831, Note_on_c, 12, 62, 0
14, 117831, Note_on_c, 12, 65, 0
14, 117840, Note_on_c, 12, 62, 76
14, 117840, Note_on_c, 12, 65, 76
14, 117891, Note_on_c, 12, 62, 0
14, 117891, Note_on_c, 12, 65, 0
14, 117900, Note_on_c, 12, 65, 76
14, 117900, Note_on_c, 12, 62, 76
14, 117951, Note_on_c, 12, 65, 0
14, 117951, Note_on_c, 12, 62, 0
14, 117960, Note_on_c, 12, 62, 76
14, 117960, Note_on_c, 12, 65, 76
14, 118011, Note_on_c, 12, 62, 0
14, 118011, Note_on_c, 12, 65, 0
14, 118020, Note_on_c, 12, 62, 76
14, 118020, Note_on_c, 12, 65, 76
14, 118071, Note_on_c, 12, 62, 0
14, 118071, Note_on_c, 12, 65, 0
14, 118080, Note_on_c, 12, 67, 84
14, 118131, Note_on_c, 12, 67, 0
14, 118140, Note_on_c, 12, 67, 76
14, 118191, Note_on_c, 12, 67, 0
14, 118200, Note_on_c, 12, 67, 76
14, 118251, Note_on_c, 12, 67, 0
14, 118260, Note_on_c, 12, 67, 76
14, 118311, Note_on_c, 12, 67, 0
14, 118320, Note_on_c, 12, 67, 76
14, 118371, Note_on_c, 12, 67, 0
14, 118380, Note_on_c, 12, 67, 76
14, 118431, Note_on_c, 12, 67, 0
14, 118440, Note_on_c, 12, 67, 76
14, 118491, Note_on_c, 12, 67, 0
14, 118500, Note_on_c, 12, 67, 76
14, 118551, Note_on_c, 12, 67, 0
14, 118560, Note_on_c, 12, 64, 76
14, 118611, Note_on_c, 12, 64, 0
14, 118620, Note_on_c, 12, 64, 76
14, 118671, Note_on_c, 12, 64, 0
14, 118680, Note_on_c, 12, 64, 76
14, 118731, Note_on_c, 12, 64, 0
14, 118740, Note_on_c, 12, 64, 76
14, 118791, Note_on_c, 12, 64, 0
14, 118800, Note_on_c, 12, 68, 84
14, 118851, Note_on_c, 12, 68, 0
14, 118860, Note_on_c, 12, 68, 76
14, 118911, Note_on_c, 12, 68, 0
14, 118920, Note_on_c, 12, 68, 76
14, 118971, Note_on_c, 12, 68, 0
14, 118980, Note_on_c, 12, 68, 76
14, 119031, Note_on_c, 12, 68, 0
14, 119040, Note_on_c, 12, 68, 76
14, 119091, Note_on_c, 12, 68, 0
14, 119100, Note_on_c, 12, 68, 76
14, 119151, Note_on_c, 12, 68, 0
14, 119160, Note_on_c, 12, 68, 76
14, 119211, Note_on_c, 12, 68, 0
14, 119220, Note_on_c, 12, 68, 76
14, 119271, Note_on_c, 12, 68, 0
14, 119280, Note_on_c, 12, 65, 76
14, 119331, Note_on_c, 12, 65, 0
14, 119340, Note_on_c, 12, 65, 76
14, 119391, Note_on_c, 12, 65, 0
14, 119400, Note_on_c, 12, 65, 76
14, 119451, Note_on_c, 12, 65, 0
14, 119460, Note_on_c, 12, 65, 76
14, 119511, Note_on_c, 12, 65, 0
14, 119520, Note_on_c, 12, 69, 84
14, 119571, Note_on_c, 12, 69, 0
14, 119580, Note_on_c, 12, 69, 76
14, 119631, Note_on_c, 12, 69, 0
14, 119640, Note_on_c, 12, 69, 76
14, 119691, Note_on_c, 12, 69, 0
14, 119700, Note_on_c, 12, 69, 76
14, 119751, Note_on_c, 12, 69, 0
14, 119760, Note_on_c, 12, 69, 76
14, 119811, Note_on_c, 12, 69, 0
14, 119820, Note_on_c, 12, 69, 76
14, 119871, Note_on_c, 12, 69, 0
14, 119880, Note_on_c, 12, 69, 76
14, 119931, Note_on_c, 12, 69, 0
14, 119940, Note_on_c, 12, 69, 76
14, 119991, Note_on_c, 12, 69, 0
14, 120000, Note_on_c, 12, 66, 76
14, 120051, Note_on_c, 12, 66, 0
14, 120060, Note_on_c, 12, 66, 76
14, 120111, Note_on_c, 12, 66, 0
14, 120120, Note_on_c, 12, 66, 76
14, 120171, Note_on_c, 12, 66, 0
14, 120180, Note_on_c, 12, 66, 76
14, 120231, Note_on_c, 12, 66, 0
14, 120240, Note_on_c, 12, 71, 84
14, 120291, Note_on_c, 12, 71, 0
14, 120300, Note_on_c, 12, 71, 76
14, 120351, Note_on_c, 12, 71, 0
14, 120360, Note_on_c, 12, 71, 76
14, 120411, Note_on_c, 12, 71, 0
14, 120420, Note_on_c, 12, 71, 76
14, 120471, Note_on_c, 12, 71, 0
14, 120480, Note_on_c, 12, 71, 76
14, 120531, Note_on_c, 12, 71, 0
14, 120540, Note_on_c, 12, 71, 76
14, 120591, Note_on_c, 12, 71, 0
14, 120600, Note_on_c, 12, 71, 76
14, 120651, Note_on_c, 12, 71, 0
14, 120660, Note_on_c, 12, 71, 76
14, 120711, Note_on_c, 12, 71, 0
14, 120720, Note_on_c, 12, 67, 76
14, 120771, Note_on_c, 12, 67, 0
14, 120780, Note_on_c, 12, 67, 76
14, 120831, Note_on_c, 12, 67, 0
14, 120840, Note_on_c, 12, 67, 76
14, 120891, Note_on_c, 12, 67, 0
14, 120900, Note_on_c, 12, 67, 76
14, 120951, Note_on_c, 12, 67, 0
14, 120960, Note_on_c, 12, 71, 84
14, 121011, Note_on_c, 12, 71, 0
14, 121020, Note_on_c, 12, 71, 84
14, 121071, Note_on_c, 12, 71, 0
14, 121080, Note_on_c, 12, 71, 84
14, 121131, Note_on_c, 12, 71, 0
14, 121140, Note_on_c, 12, 71, 84
14, 121191, Note_on_c, 12, 71, 0
14, 121200, Note_on_c, 12, 71, 84
14, 121251, Note_on_c, 12, 71, 0
14, 121260, Note_on_c, 12, 71, 84
14, 121311, Note_on_c, 12, 71, 0
14, 121320, Note_on_c, 12, 71, 84
14, 121371, Note_on_c, 12, 71, 0
14, 121380, Note_on_c, 12, 71, 84
14, 121431, Note_on_c, 12, 71, 0
14, 121440, Note_on_c, 12, 67, 84
14, 121491, Note_on_c, 12, 67, 0
14, 121500, Note_on_c, 12, 67, 84
14, 121551, Note_on_c, 12, 67, 0
14, 121560, Note_on_c, 12, 67, 84
14, 121611, Note_on_c, 12, 67, 0
14, 121620, Note_on_c, 12, 67, 84
14, 121671, Note_on_c, 12, 67, 0
14, 121680, Note_on_c, 12, 72, 84
14, 121731, Note_on_c, 12, 72, 0
14, 121740, Note_on_c, 12, 72, 84
14, 121791, Note_on_c, 12, 72, 0
14, 121800, Note_on_c, 12, 72, 84
14, 121851, Note_on_c, 12, 72, 0
14, 121860, Note_on_c, 12, 72, 84
14, 121911, Note_on_c, 12, 72, 0
14, 121920, Note_on_c, 12, 72, 84
14, 121971, Note_on_c, 12, 72, 0
14, 121980, Note_on_c, 12, 72, 84
14, 122031, Note_on_c, 12, 72, 0
14, 122040, Note_on_c, 12, 72, 84
14, 122091, Note_on_c, 12, 72, 0
14, 122100, Note_on_c, 12, 72, 84
14, 122151, Note_on_c, 12, 72, 0
14, 122160, Note_on_c, 12, 69, 84
14, 122211, Note_on_c, 12, 69, 0
14, 122220, Note_on_c, 12, 69, 84
14, 122271, Note_on_c, 12, 69, 0
14, 122280, Note_on_c, 12, 69, 84
14, 122331, Note_on_c, 12, 69, 0
14, 122340, Note_on_c, 12, 69, 84
14, 122391, Note_on_c, 12, 69, 0
14, 122400, Note_on_c, 12, 65, 84
14, 122451, Note_on_c, 12, 65, 0
14, 122460, Note_on_c, 12, 65, 84
14, 122511, Note_on_c, 12, 65, 0
14, 122520, Note_on_c, 12, 65, 84
14, 122571, Note_on_c, 12, 65, 0
14, 122580, Note_on_c, 12, 65, 84
14, 122631, Note_on_c, 12, 65, 0
14, 122640, Note_on_c, 12, 65, 84
14, 122691, Note_on_c, 12, 65, 0
14, 122700, Note_on_c, 12, 65, 84
14, 122751, Note_on_c, 12, 65, 0
14, 122760, Note_on_c, 12, 65, 84
14, 122811, Note_on_c, 12, 65, 0
14, 122820, Note_on_c, 12, 65, 84
14, 122871, Note_on_c, 12, 65, 0
14, 122880, Note_on_c, 12, 62, 84
14, 122931, Note_on_c, 12, 62, 0
14, 122940, Note_on_c, 12, 62, 84
14, 122991, Note_on_c, 12, 62, 0
14, 123000, Note_on_c, 12, 62, 84
14, 123051, Note_on_c, 12, 62, 0
14, 123060, Note_on_c, 12, 62, 84
14, 123111, Note_on_c, 12, 62, 0
14, 123120, Note_on_c, 12, 67, 84
14, 123171, Note_on_c, 12, 67, 0
14, 123180, Note_on_c, 12, 67, 84
14, 123231, Note_on_c, 12, 67, 0
14, 123240, Note_on_c, 12, 67, 84
14, 123291, Note_on_c, 12, 67, 0
14, 123300, Note_on_c, 12, 67, 84
14, 123351, Note_on_c, 12, 67, 0
14, 123360, Note_on_c, 12, 67, 84
14, 123411, Note_on_c, 12, 67, 0
14, 123420, Note_on_c, 12, 67, 84
14, 123471, Note_on_c, 12, 67, 0
14, 123480, Note_on_c, 12, 67, 84
14, 123531, Note_on_c, 12, 67, 0
14, 123540, Note_on_c, 12, 67, 84
14, 123591, Note_on_c, 12, 67, 0
14, 123600, Note_on_c, 12, 55, 84
14, 123651, Note_on_c, 12, 55, 0
14, 123660, Note_on_c, 12, 55, 84
14, 123711, Note_on_c, 12, 55, 0
14, 123720, Note_on_c, 12, 55, 84
14, 123771, Note_on_c, 12, 55, 0
14, 123780, Note_on_c, 12, 55, 84
14, 123831, Note_on_c, 12, 55, 0
14, 123840, Note_on_c, 12, 67, 84
14, 124011, Note_on_c, 12, 67, 0
14, 124020, Note_on_c, 12, 67, 84
14, 124071, Note_on_c, 12, 67, 0
14, 124080, Note_on_c, 12, 68, 84
14, 124319, Note_on_c, 12, 68, 0
14, 124320, Note_on_c, 12, 68, 84
14, 124491, Note_on_c, 12, 68, 0
14, 124500, Note_on_c, 12, 68, 84
14, 124551, Note_on_c, 12, 68, 0
14, 124560, Note_on_c, 12, 67, 84
14, 124739, Note_on_c, 12, 67, 0
14, 124800, Note_on_c, 12, 69, 84
14, 124971, Note_on_c, 12, 69, 0
14, 124980, Note_on_c, 12, 71, 84
14, 125031, Note_on_c, 12, 71, 0
14, 125040, Note_on_c, 12, 72, 84
14, 125219, Note_on_c, 12, 72, 0
14, 125280, Note_on_c, 12, 69, 84
14, 125451, Note_on_c, 12, 69, 0
14, 125460, Note_on_c, 12, 71, 84
14, 125511, Note_on_c, 12, 71, 0
14, 125520, Note_on_c, 12, 72, 84
14, 125699, Note_on_c, 12, 72, 0
14, 126480, Note_on_c, 12, 64, 52
14, 126719, Note_on_c, 12, 64, 0
14, 126720, Note_on_c, 12, 62, 52
14, 126959, Note_on_c, 12, 62, 0
14, 126960, Note_on_c, 12, 59, 52
14, 127199, Note_on_c, 12, 59, 0
14, 127200, Note_on_c, 12, 60, 52
14, 127424, Note_on_c, 12, 60, 0
14, 127680, Note_on_c, 12, 62, 52
14, 127919, Note_on_c, 12, 62, 0
14, 127920, Note_on_c, 12, 64, 52
14, 128159, Note_on_c, 12, 64, 0
14, 128280, Note_on_c, 12, 65, 52
14, 128399, Note_on_c, 12, 65, 0
14, 128400, Note_on_c, 12, 60, 52
14, 128519, Note_on_c, 12, 60, 0
14, 128520, Note_on_c, 12, 62, 52
14, 128639, Note_on_c, 12, 62, 0
14, 128640, Note_on_c, 12, 64, 52
14, 128759, Note_on_c, 12, 64, 0
14, 128760, Note_on_c, 12, 60, 52
14, 128879, Note_on_c, 12, 60, 0
14, 129000, Note_on_c, 12, 62, 52
14, 129119, Note_on_c, 12, 62, 0
14, 129120, Note_on_c, 12, 57, 52
14, 129239, Note_on_c, 12, 57, 0
14, 129240, Note_on_c, 12, 59, 52
14, 129359, Note_on_c, 12, 59, 0
14, 129360, Note_on_c, 12, 60, 52
14, 129479, Note_on_c, 12, 60, 0
14, 129480, Note_on_c, 12, 55, 52
14, 129599, Note_on_c, 12, 55, 0
14, 129720, Note_on_c, 12, 69, 52
14, 129839, Note_on_c, 12, 69, 0
14, 129840, Note_on_c, 12, 64, 52
14, 129959, Note_on_c, 12, 64, 0
14, 129960, Note_on_c, 12, 65, 52
14, 130079, Note_on_c, 12, 65, 0
14, 130080, Note_on_c, 12, 67, 52
14, 130199, Note_on_c, 12, 67, 0
14, 130200, Note_on_c, 12, 69, 52
14, 130319, Note_on_c, 12, 69, 0
14, 130440, Note_on_c, 12, 69, 52
14, 130559, Note_on_c, 12, 69, 0
14, 130560, Note_on_c, 12, 66, 52
14, 130679, Note_on_c, 12, 66, 0
14, 130680, Note_on_c, 12, 67, 52
14, 130799, Note_on_c, 12, 67, 0
14, 130800, Note_on_c, 12, 69, 52
14, 130919, Note_on_c, 12, 69, 0
14, 130920, Note_on_c, 12, 67, 52
14, 131024, Note_on_c, 12, 67, 0
14, 131040, Note_on_c, 12, 67, 84
14, 131211, Note_on_c, 12, 67, 0
14, 131220, Note_on_c, 12, 67, 84
14, 131271, Note_on_c, 12, 67, 0
14, 131280, Note_on_c, 12, 68, 84
14, 131459, Note_on_c, 12, 68, 0
14, 131520, Note_on_c, 12, 68, 84
14, 131691, Note_on_c, 12, 68, 0
14, 131700, Note_on_c, 12, 68, 84
14, 131751, Note_on_c, 12, 68, 0
14, 131760, Note_on_c, 12, 67, 84
14, 131939, Note_on_c, 12, 67, 0
14, 132000, Note_on_c, 12, 69, 84
14, 132171, Note_on_c, 12, 69, 0
14, 132180, Note_on_c, 12, 71, 84
14, 132231, Note_on_c, 12, 71, 0
14, 132240, Note_on_c, 12, 72, 84
14, 132419, Note_on_c, 12, 72, 0
14, 132480, Note_on_c, 12, 69, 84
14, 132651, Note_on_c, 12, 69, 0
14, 132660, Note_on_c, 12, 71, 84
14, 132711, Note_on_c, 12, 71, 0
14, 132720, Note_on_c, 12, 72, 84
14, 132899, Note_on_c, 12, 72, 0
14, 133680, Note_on_c, 12, 76, 52
14, 133919, Note_on_c, 12, 76, 0
14, 133920, Note_on_c, 12, 74, 52
14, 134144, Note_on_c, 12, 74, 0
14, 134160, Note_on_c, 12, 74, 52
14, 134399, Note_on_c, 12, 74, 0
14, 134400, Note_on_c, 12, 72, 52
14, 134639, Note_on_c, 12, 72, 0
14, 134880, Note_on_c, 12, 65, 52
14, 135119, Note_on_c, 12, 65, 0
14, 135120, Note_on_c, 12, 64, 52
14, 135359, Note_on_c, 12, 64, 0
14, 135480, Note_on_c, 12, 74, 52
14, 135599, Note_on_c, 12, 74, 0
14, 135600, Note_on_c, 12, 69, 52
14, 135719, Note_on_c, 12, 69, 0
14, 135720, Note_on_c, 12, 71, 52
14, 135839, Note_on_c, 12, 71, 0
14, 135840, Note_on_c, 12, 72, 52
14, 135959, Note_on_c, 12, 72, 0
14, 135960, Note_on_c, 12, 67, 52
14, 136079, Note_on_c, 12, 67, 0
14, 136200, Note_on_c, 12, 65, 52
14, 136319, Note_on_c, 12, 65, 0
14, 136320, Note_on_c, 12, 60, 52
14, 136439, Note_on_c, 12, 60, 0
14, 136440, Note_on_c, 12, 62, 52
14, 136559, Note_on_c, 12, 62, 0
14, 136560, Note_on_c, 12, 64, 52
14, 136679, Note_on_c, 12, 64, 0
14, 136680, Note_on_c, 12, 60, 52
14, 136799, Note_on_c, 12, 60, 0
14, 136920, Note_on_c, 12, 69, 52
14, 137039, Note_on_c, 12, 69, 0
14, 137040, Note_on_c, 12, 64, 52
14, 137159, Note_on_c, 12, 64, 0
14, 137160, Note_on_c, 12, 65, 52
14, 137279, Note_on_c, 12, 65, 0
14, 137280, Note_on_c, 12, 67, 52
14, 137399, Note_on_c, 12, 67, 0
14, 137400, Note_on_c, 12, 69, 52
14, 137519, Note_on_c, 12, 69, 0
14, 137520, Control_c, 12, 11, 80
14, 137640, Note_on_c, 12, 69, 76
14, 137759, Note_on_c, 12, 69, 0
14, 137760, Note_on_c, 12, 66, 76
14, 137879, Note_on_c, 12, 66, 0
14, 137880, Note_on_c, 12, 67, 76
14, 137999, Note_on_c, 12, 67, 0
14, 138000, Note_on_c, 12, 69, 76
14, 138119, Note_on_c, 12, 69, 0
14, 138120, Note_on_c, 12, 71, 76
14, 138224, Note_on_c, 12, 71, 0
14, 138240, Note_on_c, 12, 72, 76
14, 138464, Note_on_c, 12, 72, 0
14, 138480, Control_c, 12, 11, 80
14, 138480, Note_on_c, 12, 72, 76
14, 138580, Control_c, 12, 11, 84
14, 138680, Control_c, 12, 11, 88
14, 138780, Control_c, 12, 11, 92
14, 138839, Note_on_c, 12, 72, 0
14, 138840, Note_on_c, 12, 74, 76
14, 138880, Control_c, 12, 11, 96
14, 138944, Note_on_c, 12, 74, 0
14, 138960, Note_on_c, 12, 71, 76
14, 138980, Control_c, 12, 11, 100
14, 139080, Control_c, 12, 11, 104
14, 139139, Note_on_c, 12, 71, 0
14, 139180, Control_c, 12, 11, 107
14, 139200, Note_on_c, 12, 74, 76
14, 139280, Control_c, 12, 11, 111
14, 139380, Control_c, 12, 11, 115
14, 139480, Control_c, 12, 11, 119
14, 139559, Note_on_c, 12, 74, 0
14, 139560, Note_on_c, 12, 76, 76
14, 139580, Control_c, 12, 11, 127
14, 139664, Note_on_c, 12, 76, 0
14, 139680, Note_on_c, 12, 72, 76
14, 139731, Note_on_c, 12, 72, 0
14, 139740, Note_on_c, 12, 64, 76
14, 139740, Note_on_c, 12, 55, 76
14, 139791, Note_on_c, 12, 64, 0
14, 139791, Note_on_c, 12, 55, 0
14, 139800, Note_on_c, 12, 55, 76
14, 139800, Note_on_c, 12, 64, 76
14, 139851, Note_on_c, 12, 55, 0
14, 139851, Note_on_c, 12, 64, 0
14, 139860, Note_on_c, 12, 55, 76
14, 139860, Note_on_c, 12, 64, 76
14, 139911, Note_on_c, 12, 55, 0
14, 139911, Note_on_c, 12, 64, 0
14, 139920, Note_on_c, 12, 64, 84
14, 139920, Note_on_c, 12, 55, 84
14, 139971, Note_on_c, 12, 64, 0
14, 139971, Note_on_c, 12, 55, 0
14, 139980, Note_on_c, 12, 64, 76
14, 139980, Note_on_c, 12, 55, 76
14, 140031, Note_on_c, 12, 64, 0
14, 140031, Note_on_c, 12, 55, 0
14, 140040, Note_on_c, 12, 64, 76
14, 140040, Note_on_c, 12, 55, 76
14, 140091, Note_on_c, 12, 64, 0
14, 140091, Note_on_c, 12, 55, 0
14, 140100, Note_on_c, 12, 64, 76
14, 140100, Note_on_c, 12, 55, 76
14, 140151, Note_on_c, 12, 64, 0
14, 140151, Note_on_c, 12, 55, 0
14, 140160, Note_on_c, 12, 64, 76
14, 140160, Note_on_c, 12, 55, 76
14, 140211, Note_on_c, 12, 64, 0
14, 140211, Note_on_c, 12, 55, 0
14, 140220, Note_on_c, 12, 64, 76
14, 140220, Note_on_c, 12, 55, 76
14, 140271, Note_on_c, 12, 64, 0
14, 140271, Note_on_c, 12, 55, 0
14, 140280, Note_on_c, 12, 55, 76
14, 140280, Note_on_c, 12, 64, 76
14, 140331, Note_on_c, 12, 55, 0
14, 140331, Note_on_c, 12, 64, 0
14, 140340, Note_on_c, 12, 64, 76
14, 140340, Note_on_c, 12, 55, 76
14, 140391, Note_on_c, 12, 64, 0
14, 140391, Note_on_c, 12, 55, 0
14, 140400, Note_on_c, 12, 59, 84
14, 140451, Note_on_c, 12, 59, 0
14, 140460, Note_on_c, 12, 59, 76
14, 140511, Note_on_c, 12, 59, 0
14, 140520, Note_on_c, 12, 71, 76
14, 140571, Note_on_c, 12, 71, 0
14, 140580, Note_on_c, 12, 71, 76
14, 140631, Note_on_c, 12, 71, 0
14, 140640, Note_on_c, 12, 71, 76
14, 140691, Note_on_c, 12, 71, 0
14, 140700, Note_on_c, 12, 71, 76
14, 140751, Note_on_c, 12, 71, 0
14, 140760, Note_on_c, 12, 71, 76
14, 140811, Note_on_c, 12, 71, 0
14, 140820, Note_on_c, 12, 71, 76
14, 140871, Note_on_c, 12, 71, 0
14, 140880, Note_on_c, 12, 72, 76
14, 140931, Note_on_c, 12, 72, 0
14, 140940, Note_on_c, 12, 72, 76
14, 140991, Note_on_c, 12, 72, 0
14, 141000, Note_on_c, 12, 74, 76
14, 141051, Note_on_c, 12, 74, 0
14, 141060, Note_on_c, 12, 74, 76
14, 141111, Note_on_c, 12, 74, 0
14, 141120, Note_on_c, 12, 76, 84
14, 141171, Note_on_c, 12, 76, 0
14, 141180, Note_on_c, 12, 76, 76
14, 141231, Note_on_c, 12, 76, 0
14, 141240, Note_on_c, 12, 88, 76
14, 141291, Note_on_c, 12, 88, 0
14, 141300, Note_on_c, 12, 88, 76
14, 141351, Note_on_c, 12, 88, 0
14, 141360, Note_on_c, 12, 84, 76
14, 141411, Note_on_c, 12, 84, 0
14, 141420, Note_on_c, 12, 84, 76
14, 141471, Note_on_c, 12, 84, 0
14, 141480, Note_on_c, 12, 79, 76
14, 141531, Note_on_c, 12, 79, 0
14, 141540, Note_on_c, 12, 79, 76
14, 141591, Note_on_c, 12, 79, 0
14, 141600, Note_on_c, 12, 76, 76
14, 141651, Note_on_c, 12, 76, 0
14, 141660, Note_on_c, 12, 76, 76
14, 141711, Note_on_c, 12, 76, 0
14, 141720, Note_on_c, 12, 72, 76
14, 141771, Note_on_c, 12, 72, 0
14, 141780, Note_on_c, 12, 72, 76
14, 141831, Note_on_c, 12, 72, 0
14, 141840, Note_on_c, 12, 71, 84
14, 141891, Note_on_c, 12, 71, 0
14, 141900, Note_on_c, 12, 71, 76
14, 141951, Note_on_c, 12, 71, 0
14, 141960, Note_on_c, 12, 77, 76
14, 142011, Note_on_c, 12, 77, 0
14, 142020, Note_on_c, 12, 77, 76
14, 142071, Note_on_c, 12, 77, 0
14, 142080, Note_on_c, 12, 74, 76
14, 142131, Note_on_c, 12, 74, 0
14, 142140, Note_on_c, 12, 74, 76
14, 142191, Note_on_c, 12, 74, 0
14, 142200, Note_on_c, 12, 71, 76
14, 142251, Note_on_c, 12, 71, 0
14, 142260, Note_on_c, 12, 71, 76
14, 142311, Note_on_c, 12, 71, 0
14, 142320, Note_on_c, 12, 67, 76
14, 142371, Note_on_c, 12, 67, 0
14, 142380, Note_on_c, 12, 67, 76
14, 142431, Note_on_c, 12, 67, 0
14, 142440, Note_on_c, 12, 65, 76
14, 142491, Note_on_c, 12, 65, 0
14, 142500, Note_on_c, 12, 65, 76
14, 142551, Note_on_c, 12, 65, 0
14, 142560, Note_on_c, 12, 64, 84
14, 142611, Note_on_c, 12, 64, 0
14, 142620, Note_on_c, 12, 64, 84
14, 142671, Note_on_c, 12, 64, 0
14, 142680, Note_on_c, 12, 55, 84
14, 142731, Note_on_c, 12, 55, 0
14, 142740, Note_on_c, 12, 55, 84
14, 142791, Note_on_c, 12, 55, 0
14, 142800, Note_on_c, 12, 60, 84
14, 142851, Note_on_c, 12, 60, 0
14, 142860, Note_on_c, 12, 60, 84
14, 142911, Note_on_c, 12, 60, 0
14, 142920, Note_on_c, 12, 64, 84
14, 142971, Note_on_c, 12, 64, 0
14, 142980, Note_on_c, 12, 64, 84
14, 143031, Note_on_c, 12, 64, 0
14, 143040, Note_on_c, 12, 67, 84
14, 143091, Note_on_c, 12, 67, 0
14, 143100, Note_on_c, 12, 67, 84
14, 143151, Note_on_c, 12, 67, 0
14, 143160, Note_on_c, 12, 60, 84
14, 143211, Note_on_c, 12, 60, 0
14, 143220, Note_on_c, 12, 60, 84
14, 143271, Note_on_c, 12, 60, 0
14, 143280, Note_on_c, 12, 64, 84
14, 143331, Note_on_c, 12, 64, 0
14, 143340, Note_on_c, 12, 64, 84
14, 143391, Note_on_c, 12, 64, 0
14, 143400, Note_on_c, 12, 67, 84
14, 143451, Note_on_c, 12, 67, 0
14, 143460, Note_on_c, 12, 67, 84
14, 143511, Note_on_c, 12, 67, 0
14, 143520, Note_on_c, 12, 72, 84
14, 143571, Note_on_c, 12, 72, 0
14, 143580, Note_on_c, 12, 72, 84
14, 143631, Note_on_c, 12, 72, 0
14, 143640, Note_on_c, 12, 64, 84
14, 143691, Note_on_c, 12, 64, 0
14, 143700, Note_on_c, 12, 64, 84
14, 143751, Note_on_c, 12, 64, 0
14, 143760, Note_on_c, 12, 67, 84
14, 143811, Note_on_c, 12, 67, 0
14, 143820, Note_on_c, 12, 67, 84
14, 143871, Note_on_c, 12, 67, 0
14, 143880, Note_on_c, 12, 72, 84
14, 143931, Note_on_c, 12, 72, 0
14, 143940, Note_on_c, 12, 72, 84
14, 143991, Note_on_c, 12, 72, 0
14, 144000, Note_on_c, 12, 76, 84
14, 144051, Note_on_c, 12, 76, 0
14, 144060, Note_on_c, 12, 76, 84
14, 144111, Note_on_c, 12, 76, 0
14, 144120, Note_on_c, 12, 67, 84
14, 144171, Note_on_c, 12, 67, 0
14, 144180, Note_on_c, 12, 67, 84
14, 144231, Note_on_c, 12, 67, 0
14, 144240, Note_on_c, 12, 72, 84
14, 144291, Note_on_c, 12, 72, 0
14, 144300, Note_on_c, 12, 72, 84
14, 144351, Note_on_c, 12, 72, 0
14, 144360, Note_on_c, 12, 76, 84
14, 144411, Note_on_c, 12, 76, 0
14, 144420, Note_on_c, 12, 76, 84
14, 144471, Note_on_c, 12, 76, 0
14, 144480, Note_on_c, 12, 79, 84
14, 144531, Note_on_c, 12, 79, 0
14, 144540, Note_on_c, 12, 79, 84
14, 144591, Note_on_c, 12, 79, 0
14, 144600, Note_on_c, 12, 72, 84
14, 144651, Note_on_c, 12, 72, 0
14, 144660, Note_on_c, 12, 72, 84
14, 144711, Note_on_c, 12, 72, 0
14, 144720, Note_on_c, 12, 76, 84
14, 144771, Note_on_c, 12, 76, 0
14, 144780, Note_on_c, 12, 76, 84
14, 144831, Note_on_c, 12, 76, 0
14, 144840, Note_on_c, 12, 79, 84
14, 144891, Note_on_c, 12, 79, 0
14, 144900, Note_on_c, 12, 79, 84
14, 144951, Note_on_c, 12, 79, 0
14, 144960, Note_on_c, 12, 84, 84
14, 145011, Note_on_c, 12, 84, 0
14, 145020, Note_on_c, 12, 84, 84
14, 145071, Note_on_c, 12, 84, 0
14, 145080, Note_on_c, 12, 72, 84
14, 145131, Note_on_c, 12, 72, 0
14, 145140, Note_on_c, 12, 72, 84
14, 145191, Note_on_c, 12, 72, 0
14, 145200, Note_on_c, 12, 76, 84
14, 145251, Note_on_c, 12, 76, 0
14, 145260, Note_on_c, 12, 76, 84
14, 145311, Note_on_c, 12, 76, 0
14, 145320, Note_on_c, 12, 79, 84
14, 145371, Note_on_c, 12, 79, 0
14, 145380, Note_on_c, 12, 79, 84
14, 145431, Note_on_c, 12, 79, 0
14, 145440, Note_on_c, 12, 84, 92
14, 145499, Note_on_c, 12, 84, 0
14, 145500, Note_on_c, 12, 84, 84
14, 145679, Note_on_c, 12, 84, 0
14, 145800, Note_on_c, 12, 84, 84
14, 145889, Note_on_c, 12, 84, 0
14, 145920, Note_on_c, 12, 72, 84
14, 146009, Note_on_c, 12, 72, 0
14, 146040, Note_on_c, 12, 84, 84
14, 146129, Note_on_c, 12, 84, 0
14, 146160, Note_on_c, 12, 72, 92
14, 146219, Note_on_c, 12, 72, 0
14, 146220, Note_on_c, 12, 72, 84
14, 146399, Note_on_c, 12, 72, 0
14, 146520, Note_on_c, 12, 84, 84
14, 146609, Note_on_c, 12, 84, 0
14, 146640, Note_on_c, 12, 72, 84
14, 146729, Note_on_c, 12, 72, 0
14, 146760, Note_on_c, 12, 84, 84
14, 146849, Note_on_c, 12, 84, 0
14, 146880, Note_on_c, 12, 72, 92
14, 146939, Note_on_c, 12, 72, 0
14, 146940, Note_on_c, 12, 72, 84
14, 147119, Note_on_c, 12, 72, 0
14, 147240, Note_on_c, 12, 84, 84
14, 147329, Note_on_c, 12, 84, 0
14, 147360, Note_on_c, 12, 72, 84
14, 147449, Note_on_c, 12, 72, 0
14, 147480, Note_on_c, 12, 84, 84
14, 147569, Note_on_c, 12, 84, 0
14, 147600, Note_on_c, 12, 72, 92
14, 147659, Note_on_c, 12, 72, 0
14, 147660, Note_on_c, 12, 72, 84
14, 147839, Note_on_c, 12, 72, 0
14, 147960, Note_on_c, 12, 84, 84
14, 148049, Note_on_c, 12, 84, 0
14, 148080, Note_on_c, 12, 72, 84
14, 148169, Note_on_c, 12, 72, 0
14, 148200, Note_on_c, 12, 84, 84
14, 148289, Note_on_c, 12, 84, 0
14, 148320, Note_on_c, 12, 72, 84
14, 148559, Note_on_c, 12, 72, 0
14, 149760, Note_on_c, 12, 60, 52
14, 150479, Note_on_c, 12, 60, 0
14, 150480, Note_on_c, 12, 60, 52
14, 151184, Note_on_c, 12, 60, 0
14, 151200, Note_on_c, 12, 62, 52
14, 151200, Note_on_c, 12, 59, 52
14, 151919, Note_on_c, 12, 62, 0
14, 151919, Note_on_c, 12, 59, 0
14, 151920, Note_on_c, 12, 59, 52
14, 151920, Note_on_c, 12, 62, 52
14, 152639, Note_on_c, 12, 59, 0
14, 152639, Note_on_c, 12, 62, 0
14, 152640, Note_on_c, 12, 59, 52
14, 152640, Note_on_c, 12, 62, 52
14, 153359, Note_on_c, 12, 59, 0
14, 153359, Note_on_c, 12, 62, 0
14, 153360, Note_on_c, 12, 62, 52
14, 153360, Note_on_c, 12, 59, 52
14, 154064, Note_on_c, 12, 62, 0
14, 154064, Note_on_c, 12, 59, 0
14, 154080, Note_on_c, 12, 64, 84
14, 154131, Note_on_c, 12, 64, 0
14, 154140, Note_on_c, 12, 64, 84
14, 154191, Note_on_c, 12, 64, 0
14, 154200, Note_on_c, 12, 55, 84
14, 154251, Note_on_c, 12, 55, 0
14, 154260, Note_on_c, 12, 55, 84
14, 154311, Note_on_c, 12, 55, 0
14, 154320, Note_on_c, 12, 60, 84
14, 154371, Note_on_c, 12, 60, 0
14, 154380, Note_on_c, 12, 60, 84
14, 154431, Note_on_c, 12, 60, 0
14, 154440, Note_on_c, 12, 64, 84
14, 154491, Note_on_c, 12, 64, 0
14, 154500, Note_on_c, 12, 64, 84
14, 154551, Note_on_c, 12, 64, 0
14, 154560, Note_on_c, 12, 67, 84
14, 154611, Note_on_c, 12, 67, 0
14, 154620, Note_on_c, 12, 67, 84
14, 154671, Note_on_c, 12, 67, 0
14, 154680, Note_on_c, 12, 60, 84
14, 154731, Note_on_c, 12, 60, 0
14, 154740, Note_on_c, 12, 60, 84
14, 154791, Note_on_c, 12, 60, 0
14, 154800, Note_on_c, 12, 64, 84
14, 154851, Note_on_c, 12, 64, 0
14, 154860, Note_on_c, 12, 64, 84
14, 154911, Note_on_c, 12, 64, 0
14, 154920, Note_on_c, 12, 67, 84
14, 154971, Note_on_c, 12, 67, 0
14, 154980, Note_on_c, 12, 67, 84
14, 155031, Note_on_c, 12, 67, 0
14, 155040, Note_on_c, 12, 72, 84
14, 155091, Note_on_c, 12, 72, 0
14, 155100, Note_on_c, 12, 72, 84
14, 155151, Note_on_c, 12, 72, 0
14, 155160, Note_on_c, 12, 64, 84
14, 155211, Note_on_c, 12, 64, 0
14, 155220, Note_on_c, 12, 64, 84
14, 155271, Note_on_c, 12, 64, 0
14, 155280, Note_on_c, 12, 67, 84
14, 155331, Note_on_c, 12, 67, 0
14, 155340, Note_on_c, 12, 67, 84
14, 155391, Note_on_c, 12, 67, 0
14, 155400, Note_on_c, 12, 72, 84
14, 155451, Note_on_c, 12, 72, 0
14, 155460, Note_on_c, 12, 72, 84
14, 155511, Note_on_c, 12, 72, 0
14, 155520, Note_on_c, 12, 76, 84
14, 155571, Note_on_c, 12, 76, 0
14, 155580, Note_on_c, 12, 76, 84
14, 155631, Note_on_c, 12, 76, 0
14, 155640, Note_on_c, 12, 67, 84
14, 155691, Note_on_c, 12, 67, 0
14, 155700, Note_on_c, 12, 67, 84
14, 155751, Note_on_c, 12, 67, 0
14, 155760, Note_on_c, 12, 72, 84
14, 155811, Note_on_c, 12, 72, 0
14, 155820, Note_on_c, 12, 72, 84
14, 155871, Note_on_c, 12, 72, 0
14, 155880, Note_on_c, 12, 76, 84
14, 155931, Note_on_c, 12, 76, 0
14, 155940, Note_on_c, 12, 76, 84
14, 155991, Note_on_c, 12, 76, 0
14, 156000, Note_on_c, 12, 79, 84
14, 156051, Note_on_c, 12, 79, 0
14, 156060, Note_on_c, 12, 79, 84
14, 156111, Note_on_c, 12, 79, 0
14, 156120, Note_on_c, 12, 72, 84
14, 156171, Note_on_c, 12, 72, 0
14, 156180, Note_on_c, 12, 72, 84
14, 156231, Note_on_c, 12, 72, 0
14, 156240, Note_on_c, 12, 76, 84
14, 156291, Note_on_c, 12, 76, 0
14, 156300, Note_on_c, 12, 76, 84
14, 156351, Note_on_c, 12, 76, 0
14, 156360, Note_on_c, 12, 79, 84
14, 156411, Note_on_c, 12, 79, 0
14, 156420, Note_on_c, 12, 79, 84
14, 156471, Note_on_c, 12, 79, 0
14, 156480, Note_on_c, 12, 84, 84
14, 156531, Note_on_c, 12, 84, 0
14, 156540, Note_on_c, 12, 84, 84
14, 156591, Note_on_c, 12, 84, 0
14, 156600, Note_on_c, 12, 72, 84
14, 156651, Note_on_c, 12, 72, 0
14, 156660, Note_on_c, 12, 72, 84
14, 156711, Note_on_c, 12, 72, 0
14, 156720, Note_on_c, 12, 76, 84
14, 156771, Note_on_c, 12, 76, 0
14, 156780, Note_on_c, 12, 76, 84
14, 156831, Note_on_c, 12, 76, 0
14, 156840, Note_on_c, 12, 79, 84
14, 156891, Note_on_c, 12, 79, 0
14, 156900, Note_on_c, 12, 79, 84
14, 156951, Note_on_c, 12, 79, 0
14, 156960, Note_on_c, 12, 72, 84
14, 157139, Note_on_c, 12, 72, 0
14, 158400, Note_on_c, 12, 63, 52
14, 159119, Note_on_c, 12, 63, 0
14, 159120, Note_on_c, 12, 63, 52
14, 159839, Note_on_c, 12, 63, 0
14, 159840, Note_on_c, 12, 63, 52
14, 160559, Note_on_c, 12, 63, 0
14, 160560, Note_on_c, 12, 63, 52
14, 161279, Note_on_c, 12, 63, 0
14, 161280, Note_on_c, 12, 63, 52
14, 161999, Note_on_c, 12, 63, 0
14, 162000, Note_on_c, 12, 63, 52
14, 162704, Note_on_c, 12, 63, 0
14, 162720, Note_on_c, 12, 62, 84
14, 162771, Note_on_c, 12, 62, 0
14, 162780, Note_on_c, 12, 62, 84
14, 162831, Note_on_c, 12, 62, 0
14, 162840, Note_on_c, 12, 58, 84
14, 162891, Note_on_c, 12, 58, 0
14, 162900, Note_on_c, 12, 58, 84
14, 162951, Note_on_c, 12, 58, 0
14, 162960, Note_on_c, 12, 62, 84
14, 163011, Note_on_c, 12, 62, 0
14, 163020, Note_on_c, 12, 62, 84
14, 163071, Note_on_c, 12, 62, 0
14, 163080, Note_on_c, 12, 65, 84
14, 163131, Note_on_c, 12, 65, 0
14, 163140, Note_on_c, 12, 65, 84
14, 163191, Note_on_c, 12, 65, 0
14, 163200, Note_on_c, 12, 70, 84
14, 163251, Note_on_c, 12, 70, 0
14, 163260, Note_on_c, 12, 70, 84
14, 163311, Note_on_c, 12, 70, 0
14, 163320, Note_on_c, 12, 62, 84
14, 163371, Note_on_c, 12, 62, 0
14, 163380, Note_on_c, 12, 62, 84
14, 163431, Note_on_c, 12, 62, 0
14, 163440, Note_on_c, 12, 65, 84
14, 163491, Note_on_c, 12, 65, 0
14, 163500, Note_on_c, 12, 65, 84
14, 163551, Note_on_c, 12, 65, 0
14, 163560, Note_on_c, 12, 70, 84
14, 163611, Note_on_c, 12, 70, 0
14, 163620, Note_on_c, 12, 70, 84
14, 163671, Note_on_c, 12, 70, 0
14, 163680, Note_on_c, 12, 74, 84
14, 163731, Note_on_c, 12, 74, 0
14, 163740, Note_on_c, 12, 74, 84
14, 163791, Note_on_c, 12, 74, 0
14, 163800, Note_on_c, 12, 65, 84
14, 163851, Note_on_c, 12, 65, 0
14, 163860, Note_on_c, 12, 65, 84
14, 163911, Note_on_c, 12, 65, 0
14, 163920, Note_on_c, 12, 70, 84
14, 163971, Note_on_c, 12, 70, 0
14, 163980, Note_on_c, 12, 70, 84
14, 164031, Note_on_c, 12, 70, 0
14, 164040, Note_on_c, 12, 74, 84
14, 164091, Note_on_c, 12, 74, 0
14, 164100, Note_on_c, 12, 74, 84
14, 164151, Note_on_c, 12, 74, 0
14, 164160, Note_on_c, 12, 77, 84
14, 164211, Note_on_c, 12, 77, 0
14, 164220, Note_on_c, 12, 77, 84
14, 164271, Note_on_c, 12, 77, 0
14, 164280, Note_on_c, 12, 70, 84
14, 164331, Note_on_c, 12, 70, 0
14, 164340, Note_on_c, 12, 70, 84
14, 164391, Note_on_c, 12, 70, 0
14, 164400, Note_on_c, 12, 74, 84
14, 164451, Note_on_c, 12, 74, 0
14, 164460, Note_on_c, 12, 74, 84
14, 164511, Note_on_c, 12, 74, 0
14, 164520, Note_on_c, 12, 77, 84
14, 164571, Note_on_c, 12, 77, 0
14, 164580, Note_on_c, 12, 77, 84
14, 164631, Note_on_c, 12, 77, 0
14, 164640, Note_on_c, 12, 70, 84
14, 164691, Note_on_c, 12, 70, 0
14, 164700, Note_on_c, 12, 70, 84
14, 164751, Note_on_c, 12, 70, 0
14, 164760, Note_on_c, 12, 65, 84
14, 164811, Note_on_c, 12, 65, 0
14, 164820, Note_on_c, 12, 65, 84
14, 164871, Note_on_c, 12, 65, 0
14, 164880, Note_on_c, 12, 70, 84
14, 164931, Note_on_c, 12, 70, 0
14, 164940, Note_on_c, 12, 70, 84
14, 164991, Note_on_c, 12, 70, 0
14, 165000, Note_on_c, 12, 74, 84
14, 165051, Note_on_c, 12, 74, 0
14, 165060, Note_on_c, 12, 74, 84
14, 165111, Note_on_c, 12, 74, 0
14, 165120, Note_on_c, 12, 77, 84
14, 165171, Note_on_c, 12, 77, 0
14, 165180, Note_on_c, 12, 77, 84
14, 165231, Note_on_c, 12, 77, 0
14, 165240, Note_on_c, 12, 65, 84
14, 165291, Note_on_c, 12, 65, 0
14, 165300, Note_on_c, 12, 65, 84
14, 165351, Note_on_c, 12, 65, 0
14, 165360, Note_on_c, 12, 70, 84
14, 165411, Note_on_c, 12, 70, 0
14, 165420, Note_on_c, 12, 70, 84
14, 165471, Note_on_c, 12, 70, 0
14, 165480, Note_on_c, 12, 65, 84
14, 165531, Note_on_c, 12, 65, 0
14, 165540, Note_on_c, 12, 65, 84
14, 165591, Note_on_c, 12, 65, 0
14, 165600, Note_on_c, 12, 70, 84
14, 165779, Note_on_c, 12, 70, 0
14, 166800, Control_c, 12, 11, 64
14, 167040, Note_on_c, 12, 64, 84
14, 167759, Note_on_c, 12, 64, 0
14, 167760, Note_on_c, 12, 64, 84
14, 168479, Note_on_c, 12, 64, 0
14, 168480, Control_c, 12, 11, 64
14, 168480, Note_on_c, 12, 64, 84
14, 168720, Control_c, 12, 11, 69
14, 168960, Control_c, 12, 11, 75
14, 169199, Note_on_c, 12, 64, 0
14, 169200, Note_on_c, 12, 64, 84
14, 169200, Control_c, 12, 11, 80
14, 169440, Control_c, 12, 11, 85
14, 169680, Control_c, 12, 11, 90
14, 169919, Note_on_c, 12, 64, 0
14, 169920, Note_on_c, 12, 64, 84
14, 169920, Control_c, 12, 11, 96
14, 170160, Control_c, 12, 11, 101
14, 170400, Control_c, 12, 11, 106
14, 170624, Note_on_c, 12, 64, 0
14, 170640, Control_c, 12, 11, 111
14, 170640, Note_on_c, 12, 65, 84
14, 170880, Control_c, 12, 11, 117
14, 171119, Note_on_c, 12, 65, 0
14, 171120, Control_c, 12, 11, 122
14, 171120, Note_on_c, 12, 62, 84
14, 171344, Note_on_c, 12, 62, 0
14, 171360, Control_c, 12, 11, 127
14, 171360, Note_on_c, 12, 61, 84
14, 171411, Note_on_c, 12, 61, 0
14, 171420, Note_on_c, 12, 61, 84
14, 171471, Note_on_c, 12, 61, 0
14, 171480, Note_on_c, 12, 57, 84
14, 171531, Note_on_c, 12, 57, 0
14, 171540, Note_on_c, 12, 57, 84
14, 171591, Note_on_c, 12, 57, 0
14, 171600, Note_on_c, 12, 61, 84
14, 171651, Note_on_c, 12, 61, 0
14, 171660, Note_on_c, 12, 61, 84
14, 171711, Note_on_c, 12, 61, 0
14, 171720, Note_on_c, 12, 64, 84
14, 171771, Note_on_c, 12, 64, 0
14, 171780, Note_on_c, 12, 64, 84
14, 171831, Note_on_c, 12, 64, 0
14, 171840, Note_on_c, 12, 69, 84
14, 171891, Note_on_c, 12, 69, 0
14, 171900, Note_on_c, 12, 69, 84
14, 171951, Note_on_c, 12, 69, 0
14, 171960, Note_on_c, 12, 61, 84
14, 172011, Note_on_c, 12, 61, 0
14, 172020, Note_on_c, 12, 61, 84
14, 172071, Note_on_c, 12, 61, 0
14, 172080, Note_on_c, 12, 64, 84
14, 172131, Note_on_c, 12, 64, 0
14, 172140, Note_on_c, 12, 64, 84
14, 172191, Note_on_c, 12, 64, 0
14, 172200, Note_on_c, 12, 69, 84
14, 172251, Note_on_c, 12, 69, 0
14, 172260, Note_on_c, 12, 69, 84
14, 172311, Note_on_c, 12, 69, 0
14, 172320, Note_on_c, 12, 73, 84
14, 172371, Note_on_c, 12, 73, 0
14, 172380, Note_on_c, 12, 73, 84
14, 172431, Note_on_c, 12, 73, 0
14, 172440, Note_on_c, 12, 64, 84
14, 172491, Note_on_c, 12, 64, 0
14, 172500, Note_on_c, 12, 64, 84
14, 172551, Note_on_c, 12, 64, 0
14, 172560, Note_on_c, 12, 69, 84
14, 172611, Note_on_c, 12, 69, 0
14, 172620, Note_on_c, 12, 69, 84
14, 172671, Note_on_c, 12, 69, 0
14, 172680, Note_on_c, 12, 73, 84
14, 172731, Note_on_c, 12, 73, 0
14, 172740, Note_on_c, 12, 73, 84
14, 172791, Note_on_c, 12, 73, 0
14, 172800, Note_on_c, 12, 76, 84
14, 172851, Note_on_c, 12, 76, 0
14, 172860, Note_on_c, 12, 76, 84
14, 172911, Note_on_c, 12, 76, 0
14, 172920, Note_on_c, 12, 69, 84
14, 172971, Note_on_c, 12, 69, 0
14, 172980, Note_on_c, 12, 69, 84
14, 173031, Note_on_c, 12, 69, 0
14, 173040, Note_on_c, 12, 73, 84
14, 173091, Note_on_c, 12, 73, 0
14, 173100, Note_on_c, 12, 73, 84
14, 173151, Note_on_c, 12, 73, 0
14, 173160, Note_on_c, 12, 76, 84
14, 173211, Note_on_c, 12, 76, 0
14, 173220, Note_on_c, 12, 76, 84
14, 173271, Note_on_c, 12, 76, 0
14, 173280, Note_on_c, 12, 81, 84
14, 173331, Note_on_c, 12, 81, 0
14, 173340, Note_on_c, 12, 81, 84
14, 173391, Note_on_c, 12, 81, 0
14, 173400, Note_on_c, 12, 69, 84
14, 173451, Note_on_c, 12, 69, 0
14, 173460, Note_on_c, 12, 69, 84
14, 173511, Note_on_c, 12, 69, 0
14, 173520, Note_on_c, 12, 73, 84
14, 173571, Note_on_c, 12, 73, 0
14, 173580, Note_on_c, 12, 73, 84
14, 173631, Note_on_c, 12, 73, 0
14, 173640, Note_on_c, 12, 76, 84
14, 173691, Note_on_c, 12, 76, 0
14, 173700, Note_on_c, 12, 76, 84
14, 173751, Note_on_c, 12, 76, 0
14, 173760, Note_on_c, 12, 81, 84
14, 173811, Note_on_c, 12, 81, 0
14, 173820, Note_on_c, 12, 81, 84
14, 173871, Note_on_c, 12, 81, 0
14, 173880, Note_on_c, 12, 69, 84
14, 173931, Note_on_c, 12, 69, 0
14, 173940, Note_on_c, 12, 69, 84
14, 173991, Note_on_c, 12, 69, 0
14, 174000, Note_on_c, 12, 73, 84
14, 174051, Note_on_c, 12, 73, 0
14, 174060, Note_on_c, 12, 73, 84
14, 174111, Note_on_c, 12, 73, 0
14, 174120, Note_on_c, 12, 76, 84
14, 174171, Note_on_c, 12, 76, 0
14, 174180, Note_on_c, 12, 76, 84
14, 174231, Note_on_c, 12, 76, 0
14, 174240, Note_on_c, 12, 69, 84
14, 174240, Note_on_c, 12, 57, 84
14, 174479, Note_on_c, 12, 69, 0
14, 174479, Note_on_c, 12, 57, 0
14, 174960, Note_on_c, 12, 69, 92
14, 174960, Note_on_c, 12, 57, 92
14, 175199, Note_on_c, 12, 69, 0
14, 175199, Note_on_c, 12, 57, 0
14, 175320, Note_on_c, 12, 69, 84
14, 175424, Note_on_c, 12, 69, 0
14, 175440, Note_on_c, 12, 57, 84
14, 175544, Note_on_c, 12, 57, 0
14, 175560, Note_on_c, 12, 69, 84
14, 175664, Note_on_c, 12, 69, 0
14, 175680, Note_on_c, 12, 57, 84
14, 175680, Note_on_c, 12, 69, 84
14, 175919, Note_on_c, 12, 57, 0
14, 175919, Note_on_c, 12, 69, 0
14, 176400, Note_on_c, 12, 69, 92
14, 176400, Note_on_c, 12, 57, 92
14, 176639, Note_on_c, 12, 69, 0
14, 176639, Note_on_c, 12, 57, 0
14, 176760, Note_on_c, 12, 69, 84
14, 176864, Note_on_c, 12, 69, 0
14, 176880, Note_on_c, 12, 57, 84
14, 176984, Note_on_c, 12, 57, 0
14, 177000, Note_on_c, 12, 69, 84
14, 177104, Note_on_c, 12, 69, 0
14, 177120, Note_on_c, 12, 65, 84
14, 177120, Note_on_c, 12, 62, 84
14, 177359, Note_on_c, 12, 65, 0
14, 177359, Note_on_c, 12, 62, 0
14, 182640, Note_on_c, 12, 74, 84
14, 183119, Note_on_c, 12, 74, 0
14, 183120, Note_on_c, 12, 70, 84
14, 183239, Note_on_c, 12, 70, 0
14, 183240, Note_on_c, 12, 72, 84
14, 183344, Note_on_c, 12, 72, 0
14, 183360, Note_on_c, 12, 74, 84
14, 183449, Note_on_c, 12, 74, 0
14, 183480, Note_on_c, 12, 70, 84
14, 183569, Note_on_c, 12, 70, 0
14, 183600, Note_on_c, 12, 67, 84
14, 184304, Note_on_c, 12, 67, 0
14, 184320, Note_on_c, 12, 75, 84
14, 184559, Note_on_c, 12, 75, 0
14, 184560, Note_on_c, 12, 72, 84
14, 184679, Note_on_c, 12, 72, 0
14, 184680, Note_on_c, 12, 74, 84
14, 184784, Note_on_c, 12, 74, 0
14, 184800, Note_on_c, 12, 75, 84
14, 184889, Note_on_c, 12, 75, 0
14, 184920, Note_on_c, 12, 72, 84
14, 185009, Note_on_c, 12, 72, 0
14, 185040, Note_on_c, 12, 67, 84
14, 185744, Note_on_c, 12, 67, 0
14, 185760, Note_on_c, 12, 77, 84
14, 185939, Note_on_c, 12, 77, 0
14, 186000, Note_on_c, 12, 74, 92
14, 186119, Note_on_c, 12, 74, 0
14, 186120, Note_on_c, 12, 75, 84
14, 186224, Note_on_c, 12, 75, 0
14, 186240, Note_on_c, 12, 77, 84
14, 186329, Note_on_c, 12, 77, 0
14, 186360, Note_on_c, 12, 74, 84
14, 186449, Note_on_c, 12, 74, 0
14, 186480, Note_on_c, 12, 75, 84
14, 186659, Note_on_c, 12, 75, 0
14, 186720, Note_on_c, 12, 71, 92
14, 186839, Note_on_c, 12, 71, 0
14, 186840, Note_on_c, 12, 72, 84
14, 186944, Note_on_c, 12, 72, 0
14, 186960, Note_on_c, 12, 74, 84
14, 187049, Note_on_c, 12, 74, 0
14, 187080, Note_on_c, 12, 71, 84
14, 187169, Note_on_c, 12, 71, 0
14, 187200, Note_on_c, 12, 72, 84
14, 187379, Note_on_c, 12, 72, 0
14, 187440, Note_on_c, 12, 67, 92
14, 187559, Note_on_c, 12, 67, 0
14, 187560, Note_on_c, 12, 68, 84
14, 187664, Note_on_c, 12, 68, 0
14, 187680, Note_on_c, 12, 70, 84
14, 187769, Note_on_c, 12, 70, 0
14, 187800, Note_on_c, 12, 67, 84
14, 187889, Note_on_c, 12, 67, 0
14, 187920, Note_on_c, 12, 68, 84
14, 188099, Note_on_c, 12, 68, 0
14, 188160, Note_on_c, 12, 64, 92
14, 188279, Note_on_c, 12, 64, 0
14, 188280, Note_on_c, 12, 65, 84
14, 188384, Note_on_c, 12, 65, 0
14, 188400, Note_on_c, 12, 67, 84
14, 188489, Note_on_c, 12, 67, 0
14, 188520, Note_on_c, 12, 64, 84
14, 188609, Note_on_c, 12, 64, 0
14, 188640, Note_on_c, 12, 65, 84
14, 188691, Note_on_c, 12, 65, 0
14, 188700, Note_on_c, 12, 72, 84
14, 188751, Note_on_c, 12, 72, 0
14, 188760, Note_on_c, 12, 72, 84
14, 188811, Note_on_c, 12, 72, 0
14, 188820, Note_on_c, 12, 72, 84
14, 188871, Note_on_c, 12, 72, 0
14, 188880, Note_on_c, 12, 72, 84
14, 188931, Note_on_c, 12, 72, 0
14, 188940, Note_on_c, 12, 72, 84
14, 188991, Note_on_c, 12, 72, 0
14, 189000, Note_on_c, 12, 72, 84
14, 189051, Note_on_c, 12, 72, 0
14, 189060, Note_on_c, 12, 72, 84
14, 189111, Note_on_c, 12, 72, 0
14, 189120, Note_on_c, 12, 72, 84
14, 189171, Note_on_c, 12, 72, 0
14, 189180, Note_on_c, 12, 72, 84
14, 189231, Note_on_c, 12, 72, 0
14, 189240, Note_on_c, 12, 72, 84
14, 189291, Note_on_c, 12, 72, 0
14, 189300, Note_on_c, 12, 72, 84
14, 189351, Note_on_c, 12, 72, 0
14, 189360, Note_on_c, 12, 72, 84
14, 189411, Note_on_c, 12, 72, 0
14, 189420, Note_on_c, 12, 72, 84
14, 189471, Note_on_c, 12, 72, 0
14, 189480, Note_on_c, 12, 80, 84
14, 189531, Note_on_c, 12, 80, 0
14, 189540, Note_on_c, 12, 80, 84
14, 189591, Note_on_c, 12, 80, 0
14, 189600, Note_on_c, 12, 77, 84
14, 189651, Note_on_c, 12, 77, 0
14, 189660, Note_on_c, 12, 77, 84
14, 189711, Note_on_c, 12, 77, 0
14, 189720, Note_on_c, 12, 72, 84
14, 189771, Note_on_c, 12, 72, 0
14, 189780, Note_on_c, 12, 72, 84
14, 189831, Note_on_c, 12, 72, 0
14, 189840, Note_on_c, 12, 68, 84
14, 189891, Note_on_c, 12, 68, 0
14, 189900, Note_on_c, 12, 68, 84
14, 189951, Note_on_c, 12, 68, 0
14, 189960, Note_on_c, 12, 65, 84
14, 190011, Note_on_c, 12, 65, 0
14, 190020, Note_on_c, 12, 65, 84
14, 190071, Note_on_c, 12, 65, 0
14, 190080, Note_on_c, 12, 65, 84
14, 190131, Note_on_c, 12, 65, 0
14, 190140, Note_on_c, 12, 73, 84
14, 190191, Note_on_c, 12, 73, 0
14, 190200, Note_on_c, 12, 73, 84
14, 190251, Note_on_c, 12, 73, 0
14, 190260, Note_on_c, 12, 73, 84
14, 190311, Note_on_c, 12, 73, 0
14, 190320, Note_on_c, 12, 73, 84
14, 190371, Note_on_c, 12, 73, 0
14, 190380, Note_on_c, 12, 73, 84
14, 190431, Note_on_c, 12, 73, 0
14, 190440, Note_on_c, 12, 73, 84
14, 190491, Note_on_c, 12, 73, 0
14, 190500, Note_on_c, 12, 73, 84
14, 190551, Note_on_c, 12, 73, 0
14, 190560, Note_on_c, 12, 73, 84
14, 190611, Note_on_c, 12, 73, 0
14, 190620, Note_on_c, 12, 73, 84
14, 190671, Note_on_c, 12, 73, 0
14, 190680, Note_on_c, 12, 73, 84
14, 190731, Note_on_c, 12, 73, 0
14, 190740, Note_on_c, 12, 73, 84
14, 190791, Note_on_c, 12, 73, 0
14, 190800, Note_on_c, 12, 73, 84
14, 190851, Note_on_c, 12, 73, 0
14, 190860, Note_on_c, 12, 73, 84
14, 190911, Note_on_c, 12, 73, 0
14, 190920, Note_on_c, 12, 82, 84
14, 190971, Note_on_c, 12, 82, 0
14, 190980, Note_on_c, 12, 82, 84
14, 191031, Note_on_c, 12, 82, 0
14, 191040, Note_on_c, 12, 77, 84
14, 191091, Note_on_c, 12, 77, 0
14, 191100, Note_on_c, 12, 77, 84
14, 191151, Note_on_c, 12, 77, 0
14, 191160, Note_on_c, 12, 73, 84
14, 191211, Note_on_c, 12, 73, 0
14, 191220, Note_on_c, 12, 73, 84
14, 191271, Note_on_c, 12, 73, 0
14, 191280, Note_on_c, 12, 70, 84
14, 191331, Note_on_c, 12, 70, 0
14, 191340, Note_on_c, 12, 70, 84
14, 191391, Note_on_c, 12, 70, 0
14, 191400, Note_on_c, 12, 65, 84
14, 191451, Note_on_c, 12, 65, 0
14, 191460, Note_on_c, 12, 65, 84
14, 191511, Note_on_c, 12, 65, 0
14, 191520, Note_on_c, 12, 70, 84
14, 191571, Note_on_c, 12, 70, 0
14, 191580, Note_on_c, 12, 70, 84
14, 191631, Note_on_c, 12, 70, 0
14, 191640, Note_on_c, 12, 73, 84
14, 191691, Note_on_c, 12, 73, 0
14, 191700, Note_on_c, 12, 73, 84
14, 191751, Note_on_c, 12, 73, 0
14, 191760, Note_on_c, 12, 73, 92
14, 191811, Note_on_c, 12, 73, 0
14, 191820, Note_on_c, 12, 73, 84
14, 191871, Note_on_c, 12, 73, 0
14, 191880, Note_on_c, 12, 72, 84
14, 191931, Note_on_c, 12, 72, 0
14, 191940, Note_on_c, 12, 72, 84
14, 191991, Note_on_c, 12, 72, 0
14, 192000, Note_on_c, 12, 70, 84
14, 192051, Note_on_c, 12, 70, 0
14, 192060, Note_on_c, 12, 70, 84
14, 192111, Note_on_c, 12, 70, 0
14, 192120, Note_on_c, 12, 73, 84
14, 192171, Note_on_c, 12, 73, 0
14, 192180, Note_on_c, 12, 73, 84
14, 192231, Note_on_c, 12, 73, 0
14, 192240, Note_on_c, 12, 67, 84
14, 192291, Note_on_c, 12, 67, 0
14, 192300, Note_on_c, 12, 67, 84
14, 192351, Note_on_c, 12, 67, 0
14, 192360, Note_on_c, 12, 70, 84
14, 192411, Note_on_c, 12, 70, 0
14, 192420, Note_on_c, 12, 70, 84
14, 192471, Note_on_c, 12, 70, 0
14, 192480, Note_on_c, 12, 70, 92
14, 192531, Note_on_c, 12, 70, 0
14, 192540, Note_on_c, 12, 70, 84
14, 192591, Note_on_c, 12, 70, 0
14, 192600, Note_on_c, 12, 68, 84
14, 192651, Note_on_c, 12, 68, 0
14, 192660, Note_on_c, 12, 68, 84
14, 192711, Note_on_c, 12, 68, 0
14, 192720, Note_on_c, 12, 67, 84
14, 192771, Note_on_c, 12, 67, 0
14, 192780, Note_on_c, 12, 67, 84
14, 192831, Note_on_c, 12, 67, 0
14, 192840, Note_on_c, 12, 70, 84
14, 192891, Note_on_c, 12, 70, 0
14, 192900, Note_on_c, 12, 70, 84
14, 192951, Note_on_c, 12, 70, 0
14, 192960, Note_on_c, 12, 60, 84
14, 193011, Note_on_c, 12, 60, 0
14, 193020, Note_on_c, 12, 60, 84
14, 193071, Note_on_c, 12, 60, 0
14, 193080, Note_on_c, 12, 68, 84
14, 193131, Note_on_c, 12, 68, 0
14, 193140, Note_on_c, 12, 68, 84
14, 193191, Note_on_c, 12, 68, 0
14, 193200, Note_on_c, 12, 66, 92
14, 193251, Note_on_c, 12, 66, 0
14, 193260, Note_on_c, 12, 66, 84
14, 193311, Note_on_c, 12, 66, 0
14, 193320, Note_on_c, 12, 65, 84
14, 193371, Note_on_c, 12, 65, 0
14, 193380, Note_on_c, 12, 65, 84
14, 193431, Note_on_c, 12, 65, 0
14, 193440, Note_on_c, 12, 63, 84
14, 193491, Note_on_c, 12, 63, 0
14, 193500, Note_on_c, 12, 63, 84
14, 193551, Note_on_c, 12, 63, 0
14, 193560, Note_on_c, 12, 66, 84
14, 193611, Note_on_c, 12, 66, 0
14, 193620, Note_on_c, 12, 66, 84
14, 193671, Note_on_c, 12, 66, 0
14, 193680, Note_on_c, 12, 56, 84
14, 193731, Note_on_c, 12, 56, 0
14, 193740, Note_on_c, 12, 56, 84
14, 193791, Note_on_c, 12, 56, 0
14, 193800, Note_on_c, 12, 65, 84
14, 193851, Note_on_c, 12, 65, 0
14, 193860, Note_on_c, 12, 65, 84
14, 193911, Note_on_c, 12, 65, 0
14, 193920, Note_on_c, 12, 63, 92
14, 193971, Note_on_c, 12, 63, 0
14, 193980, Note_on_c, 12, 63, 84
14, 194031, Note_on_c, 12, 63, 0
14, 194040, Note_on_c, 12, 61, 84
14, 194091, Note_on_c, 12, 61, 0
14, 194100, Note_on_c, 12, 61, 84
14, 194151, Note_on_c, 12, 61, 0
14, 194160, Note_on_c, 12, 60, 84
14, 194211, Note_on_c, 12, 60, 0
14, 194220, Note_on_c, 12, 60, 84
14, 194271, Note_on_c, 12, 60, 0
14, 194280, Note_on_c, 12, 63, 84
14, 194331, Note_on_c, 12, 63, 0
14, 194340, Note_on_c, 12, 63, 84
14, 194391, Note_on_c, 12, 63, 0
14, 194400, Note_on_c, 12, 68, 84
14, 194451, Note_on_c, 12, 68, 0
14, 194460, Note_on_c, 12, 68, 84
14, 194511, Note_on_c, 12, 68, 0
14, 194520, Note_on_c, 12, 66, 84
14, 194571, Note_on_c, 12, 66, 0
14, 194580, Note_on_c, 12, 66, 84
14, 194631, Note_on_c, 12, 66, 0
14, 194640, Note_on_c, 12, 65, 92
14, 194691, Note_on_c, 12, 65, 0
14, 194700, Note_on_c, 12, 65, 84
14, 194751, Note_on_c, 12, 65, 0
14, 194760, Note_on_c, 12, 65, 84
14, 194811, Note_on_c, 12, 65, 0
14, 194820, Note_on_c, 12, 65, 84
14, 194871, Note_on_c, 12, 65, 0
14, 194880, Note_on_c, 12, 65, 84
14, 194931, Note_on_c, 12, 65, 0
14, 194940, Note_on_c, 12, 65, 84
14, 194991, Note_on_c, 12, 65, 0
14, 195000, Note_on_c, 12, 65, 84
14, 195051, Note_on_c, 12, 65, 0
14, 195060, Note_on_c, 12, 65, 84
14, 195111, Note_on_c, 12, 65, 0
14, 195120, Note_on_c, 12, 77, 84
14, 195171, Note_on_c, 12, 77, 0
14, 195180, Note_on_c, 12, 77, 84
14, 195231, Note_on_c, 12, 77, 0
14, 195240, Note_on_c, 12, 75, 84
14, 195291, Note_on_c, 12, 75, 0
14, 195300, Note_on_c, 12, 75, 84
14, 195351, Note_on_c, 12, 75, 0
14, 195360, Note_on_c, 12, 73, 92
14, 195411, Note_on_c, 12, 73, 0
14, 195420, Note_on_c, 12, 73, 84
14, 195471, Note_on_c, 12, 73, 0
14, 195480, Note_on_c, 12, 73, 84
14, 195531, Note_on_c, 12, 73, 0
14, 195540, Note_on_c, 12, 73, 84
14, 195591, Note_on_c, 12, 73, 0
14, 195600, Note_on_c, 12, 73, 84
14, 195651, Note_on_c, 12, 73, 0
14, 195660, Note_on_c, 12, 73, 84
14, 195711, Note_on_c, 12, 73, 0
14, 195720, Note_on_c, 12, 73, 84
14, 195771, Note_on_c, 12, 73, 0
14, 195780, Note_on_c, 12, 73, 84
14, 195831, Note_on_c, 12, 73, 0
14, 195840, Note_on_c, 12, 77, 84
14, 195891, Note_on_c, 12, 77, 0
14, 195900, Note_on_c, 12, 77, 84
14, 195951, Note_on_c, 12, 77, 0
14, 195960, Note_on_c, 12, 75, 84
14, 196011, Note_on_c, 12, 75, 0
14, 196020, Note_on_c, 12, 75, 84
14, 196071, Note_on_c, 12, 75, 0
14, 196080, Note_on_c, 12, 73, 92
14, 196131, Note_on_c, 12, 73, 0
14, 196140, Note_on_c, 12, 73, 84
14, 196191, Note_on_c, 12, 73, 0
14, 196200, Note_on_c, 12, 73, 84
14, 196251, Note_on_c, 12, 73, 0
14, 196260, Note_on_c, 12, 73, 84
14, 196311, Note_on_c, 12, 73, 0
14, 196320, Note_on_c, 12, 73, 84
14, 196371, Note_on_c, 12, 73, 0
14, 196380, Note_on_c, 12, 73, 84
14, 196431, Note_on_c, 12, 73, 0
14, 196440, Note_on_c, 12, 73, 84
14, 196491, Note_on_c, 12, 73, 0
14, 196500, Note_on_c, 12, 73, 84
14, 196551, Note_on_c, 12, 73, 0
14, 196560, Note_on_c, 12, 77, 84
14, 196611, Note_on_c, 12, 77, 0
14, 196620, Note_on_c, 12, 77, 84
14, 196671, Note_on_c, 12, 77, 0
14, 196680, Note_on_c, 12, 75, 84
14, 196731, Note_on_c, 12, 75, 0
14, 196740, Note_on_c, 12, 75, 84
14, 196791, Note_on_c, 12, 75, 0
14, 196800, Note_on_c, 12, 73, 92
14, 196851, Note_on_c, 12, 73, 0
14, 196860, Note_on_c, 12, 73, 84
14, 196911, Note_on_c, 12, 73, 0
14, 196920, Note_on_c, 12, 73, 84
14, 196971, Note_on_c, 12, 73, 0
14, 196980, Note_on_c, 12, 73, 84
14, 197031, Note_on_c, 12, 73, 0
14, 197040, Note_on_c, 12, 73, 84
14, 197091, Note_on_c, 12, 73, 0
14, 197100, Note_on_c, 12, 73, 84
14, 197151, Note_on_c, 12, 73, 0
14, 197160, Note_on_c, 12, 73, 84
14, 197211, Note_on_c, 12, 73, 0
14, 197220, Note_on_c, 12, 73, 84
14, 197271, Note_on_c, 12, 73, 0
14, 197280, Note_on_c, 12, 77, 84
14, 197331, Note_on_c, 12, 77, 0
14, 197340, Note_on_c, 12, 77, 84
14, 197391, Note_on_c, 12, 77, 0
14, 197400, Note_on_c, 12, 75, 84
14, 197451, Note_on_c, 12, 75, 0
14, 197460, Note_on_c, 12, 75, 84
14, 197511, Note_on_c, 12, 75, 0
14, 197520, Note_on_c, 12, 73, 92
14, 197571, Note_on_c, 12, 73, 0
14, 197580, Note_on_c, 12, 73, 84
14, 197631, Note_on_c, 12, 73, 0
14, 197640, Note_on_c, 12, 73, 84
14, 197691, Note_on_c, 12, 73, 0
14, 197700, Note_on_c, 12, 73, 84
14, 197751, Note_on_c, 12, 73, 0
14, 197760, Note_on_c, 12, 73, 84
14, 197811, Note_on_c, 12, 73, 0
14, 197820, Note_on_c, 12, 73, 84
14, 197871, Note_on_c, 12, 73, 0
14, 197880, Note_on_c, 12, 73, 84
14, 197931, Note_on_c, 12, 73, 0
14, 197940, Note_on_c, 12, 73, 84
14, 197991, Note_on_c, 12, 73, 0
14, 198000, Note_on_c, 12, 77, 84
14, 198051, Note_on_c, 12, 77, 0
14, 198060, Note_on_c, 12, 77, 84
14, 198111, Note_on_c, 12, 77, 0
14, 198120, Note_on_c, 12, 75, 84
14, 198171, Note_on_c, 12, 75, 0
14, 198180, Note_on_c, 12, 75, 84
14, 198231, Note_on_c, 12, 75, 0
14, 198240, Note_on_c, 12, 73, 92
14, 198291, Note_on_c, 12, 73, 0
14, 198300, Note_on_c, 12, 73, 84
14, 198351, Note_on_c, 12, 73, 0
14, 198360, Note_on_c, 12, 73, 84
14, 198411, Note_on_c, 12, 73, 0
14, 198420, Note_on_c, 12, 73, 84
14, 198471, Note_on_c, 12, 73, 0
14, 198480, Note_on_c, 12, 73, 84
14, 198531, Note_on_c, 12, 73, 0
14, 198540, Note_on_c, 12, 73, 84
14, 198591, Note_on_c, 12, 73, 0
14, 198600, Note_on_c, 12, 73, 84
14, 198651, Note_on_c, 12, 73, 0
14, 198660, Note_on_c, 12, 73, 84
14, 198711, Note_on_c, 12, 73, 0
14, 198720, Note_on_c, 12, 77, 84
14, 198771, Note_on_c, 12, 77, 0
14, 198780, Note_on_c, 12, 77, 84
14, 198831, Note_on_c, 12, 77, 0
14, 198840, Note_on_c, 12, 75, 84
14, 198891, Note_on_c, 12, 75, 0
14, 198900, Note_on_c, 12, 75, 84
14, 198951, Note_on_c, 12, 75, 0
14, 198960, Note_on_c, 12, 73, 92
14, 199011, Note_on_c, 12, 73, 0
14, 199020, Note_on_c, 12, 73, 84
14, 199071, Note_on_c, 12, 73, 0
14, 199080, Note_on_c, 12, 73, 84
14, 199131, Note_on_c, 12, 73, 0
14, 199140, Note_on_c, 12, 73, 84
14, 199191, Note_on_c, 12, 73, 0
14, 199200, Note_on_c, 12, 73, 84
14, 199251, Note_on_c, 12, 73, 0
14, 199260, Note_on_c, 12, 73, 84
14, 199311, Note_on_c, 12, 73, 0
14, 199320, Note_on_c, 12, 73, 84
14, 199371, Note_on_c, 12, 73, 0
14, 199380, Note_on_c, 12, 73, 84
14, 199431, Note_on_c, 12, 73, 0
14, 199440, Note_on_c, 12, 77, 84
14, 199491, Note_on_c, 12, 77, 0
14, 199500, Note_on_c, 12, 77, 84
14, 199551, Note_on_c, 12, 77, 0
14, 199560, Note_on_c, 12, 75, 84
14, 199611, Note_on_c, 12, 75, 0
14, 199620, Note_on_c, 12, 75, 84
14, 199671, Note_on_c, 12, 75, 0
14, 199680, Note_on_c, 12, 73, 92
14, 199731, Note_on_c, 12, 73, 0
14, 199740, Note_on_c, 12, 73, 84
14, 199791, Note_on_c, 12, 73, 0
14, 199800, Note_on_c, 12, 73, 84
14, 199851, Note_on_c, 12, 73, 0
14, 199860, Note_on_c, 12, 73, 84
14, 199911, Note_on_c, 12, 73, 0
14, 199920, Note_on_c, 12, 73, 84
14, 199971, Note_on_c, 12, 73, 0
14, 199980, Note_on_c, 12, 73, 84
14, 200031, Note_on_c, 12, 73, 0
14, 200040, Note_on_c, 12, 73, 84
14, 200091, Note_on_c, 12, 73, 0
14, 200100, Note_on_c, 12, 73, 84
14, 200151, Note_on_c, 12, 73, 0
14, 200160, Note_on_c, 12, 77, 84
14, 200211, Note_on_c, 12, 77, 0
14, 200220, Note_on_c, 12, 77, 84
14, 200271, Note_on_c, 12, 77, 0
14, 200280, Note_on_c, 12, 76, 84
14, 200331, Note_on_c, 12, 76, 0
14, 200340, Note_on_c, 12, 76, 84
14, 200391, Note_on_c, 12, 76, 0
14, 200400, Note_on_c, 12, 74, 92
14, 200451, Note_on_c, 12, 74, 0
14, 200460, Note_on_c, 12, 74, 84
14, 200511, Note_on_c, 12, 74, 0
14, 200520, Note_on_c, 12, 74, 84
14, 200571, Note_on_c, 12, 74, 0
14, 200580, Note_on_c, 12, 74, 84
14, 200631, Note_on_c, 12, 74, 0
14, 200640, Note_on_c, 12, 74, 84
14, 200691, Note_on_c, 12, 74, 0
14, 200700, Note_on_c, 12, 74, 84
14, 200751, Note_on_c, 12, 74, 0
14, 200760, Note_on_c, 12, 74, 84
14, 200811, Note_on_c, 12, 74, 0
14, 200820, Note_on_c, 12, 74, 84
14, 200871, Note_on_c, 12, 74, 0
14, 200880, Note_on_c, 12, 77, 84
14, 200931, Note_on_c, 12, 77, 0
14, 200940, Note_on_c, 12, 77, 84
14, 200991, Note_on_c, 12, 77, 0
14, 201000, Note_on_c, 12, 76, 84
14, 201051, Note_on_c, 12, 76, 0
14, 201060, Note_on_c, 12, 76, 84
14, 201111, Note_on_c, 12, 76, 0
14, 201120, Note_on_c, 12, 74, 92
14, 201171, Note_on_c, 12, 74, 0
14, 201180, Note_on_c, 12, 74, 84
14, 201231, Note_on_c, 12, 74, 0
14, 201240, Note_on_c, 12, 74, 84
14, 201291, Note_on_c, 12, 74, 0
14, 201300, Note_on_c, 12, 74, 84
14, 201351, Note_on_c, 12, 74, 0
14, 201360, Note_on_c, 12, 74, 84
14, 201411, Note_on_c, 12, 74, 0
14, 201420, Note_on_c, 12, 74, 84
14, 201471, Note_on_c, 12, 74, 0
14, 201480, Note_on_c, 12, 74, 84
14, 201531, Note_on_c, 12, 74, 0
14, 201540, Note_on_c, 12, 74, 84
14, 201591, Note_on_c, 12, 74, 0
14, 201600, Note_on_c, 12, 77, 84
14, 201651, Note_on_c, 12, 77, 0
14, 201660, Note_on_c, 12, 77, 84
14, 201711, Note_on_c, 12, 77, 0
14, 201720, Note_on_c, 12, 76, 84
14, 201771, Note_on_c, 12, 76, 0
14, 201780, Note_on_c, 12, 76, 84
14, 201831, Note_on_c, 12, 76, 0
14, 201840, Note_on_c, 12, 74, 92
14, 201891, Note_on_c, 12, 74, 0
14, 201900, Note_on_c, 12, 74, 84
14, 201951, Note_on_c, 12, 74, 0
14, 201960, Note_on_c, 12, 74, 84
14, 202011, Note_on_c, 12, 74, 0
14, 202020, Note_on_c, 12, 74, 84
14, 202071, Note_on_c, 12, 74, 0
14, 202080, Note_on_c, 12, 74, 84
14, 202131, Note_on_c, 12, 74, 0
14, 202140, Note_on_c, 12, 74, 84
14, 202191, Note_on_c, 12, 74, 0
14, 202200, Note_on_c, 12, 74, 84
14, 202251, Note_on_c, 12, 74, 0
14, 202260, Note_on_c, 12, 74, 84
14, 202311, Note_on_c, 12, 74, 0
14, 202320, Note_on_c, 12, 77, 84
14, 202371, Note_on_c, 12, 77, 0
14, 202380, Note_on_c, 12, 77, 84
14, 202431, Note_on_c, 12, 77, 0
14, 202440, Note_on_c, 12, 76, 84
14, 202491, Note_on_c, 12, 76, 0
14, 202500, Note_on_c, 12, 76, 84
14, 202551, Note_on_c, 12, 76, 0
14, 202560, Note_on_c, 12, 74, 92
14, 202611, Note_on_c, 12, 74, 0
14, 202620, Note_on_c, 12, 74, 84
14, 202671, Note_on_c, 12, 74, 0
14, 202680, Note_on_c, 12, 74, 84
14, 202731, Note_on_c, 12, 74, 0
14, 202740, Note_on_c, 12, 74, 84
14, 202791, Note_on_c, 12, 74, 0
14, 202800, Note_on_c, 12, 74, 84
14, 202851, Note_on_c, 12, 74, 0
14, 202860, Note_on_c, 12, 74, 84
14, 202911, Note_on_c, 12, 74, 0
14, 202920, Note_on_c, 12, 74, 84
14, 202971, Note_on_c, 12, 74, 0
14, 202980, Note_on_c, 12, 74, 84
14, 203031, Note_on_c, 12, 74, 0
14, 203040, Note_on_c, 12, 77, 84
14, 203040, Note_on_c, 12, 74, 84
14, 203091, Note_on_c, 12, 77, 0
14, 203091, Note_on_c, 12, 74, 0
14, 203100, Note_on_c, 12, 77, 84
14, 203100, Note_on_c, 12, 74, 84
14, 203151, Note_on_c, 12, 77, 0
14, 203151, Note_on_c, 12, 74, 0
14, 203160, Note_on_c, 12, 77, 84
14, 203160, Note_on_c, 12, 74, 84
14, 203211, Note_on_c, 12, 77, 0
14, 203211, Note_on_c, 12, 74, 0
14, 203220, Note_on_c, 12, 74, 84
14, 203220, Note_on_c, 12, 77, 84
14, 203271, Note_on_c, 12, 74, 0
14, 203271, Note_on_c, 12, 77, 0
14, 203280, Note_on_c, 12, 74, 92
14, 203280, Note_on_c, 12, 77, 92
14, 203331, Note_on_c, 12, 74, 0
14, 203331, Note_on_c, 12, 77, 0
14, 203340, Note_on_c, 12, 77, 84
14, 203340, Note_on_c, 12, 74, 84
14, 203391, Note_on_c, 12, 77, 0
14, 203391, Note_on_c, 12, 74, 0
14, 203400, Note_on_c, 12, 74, 84
14, 203400, Note_on_c, 12, 77, 84
14, 203451, Note_on_c, 12, 74, 0
14, 203451, Note_on_c, 12, 77, 0
14, 203460, Note_on_c, 12, 77, 84
14, 203460, Note_on_c, 12, 74, 84
14, 203511, Note_on_c, 12, 77, 0
14, 203511, Note_on_c, 12, 74, 0
14, 203520, Note_on_c, 12, 77, 84
14, 203520, Note_on_c, 12, 74, 84
14, 203571, Note_on_c, 12, 77, 0
14, 203571, Note_on_c, 12, 74, 0
14, 203580, Note_on_c, 12, 77, 84
14, 203580, Note_on_c, 12, 74, 84
14, 203631, Note_on_c, 12, 77, 0
14, 203631, Note_on_c, 12, 74, 0
14, 203640, Note_on_c, 12, 74, 84
14, 203640, Note_on_c, 12, 77, 84
14, 203691, Note_on_c, 12, 74, 0
14, 203691, Note_on_c, 12, 77, 0
14, 203700, Note_on_c, 12, 77, 84
14, 203700, Note_on_c, 12, 74, 84
14, 203751, Note_on_c, 12, 77, 0
14, 203751, Note_on_c, 12, 74, 0
14, 203760, Note_on_c, 12, 77, 84
14, 203760, Note_on_c, 12, 74, 84
14, 203811, Note_on_c, 12, 77, 0
14, 203811, Note_on_c, 12, 74, 0
14, 203820, Note_on_c, 12, 77, 84
14, 203820, Note_on_c, 12, 74, 84
14, 203871, Note_on_c, 12, 77, 0
14, 203871, Note_on_c, 12, 74, 0
14, 203880, Note_on_c, 12, 77, 84
14, 203880, Note_on_c, 12, 74, 84
14, 203931, Note_on_c, 12, 77, 0
14, 203931, Note_on_c, 12, 74, 0
14, 203940, Note_on_c, 12, 77, 84
14, 203940, Note_on_c, 12, 74, 84
14, 203991, Note_on_c, 12, 77, 0
14, 203991, Note_on_c, 12, 74, 0
14, 204000, Note_on_c, 12, 77, 84
14, 204000, Note_on_c, 12, 74, 84
14, 204051, Note_on_c, 12, 77, 0
14, 204051, Note_on_c, 12, 74, 0
14, 204060, Note_on_c, 12, 74, 84
14, 204060, Note_on_c, 12, 77, 84
14, 204111, Note_on_c, 12, 74, 0
14, 204111, Note_on_c, 12, 77, 0
14, 204120, Note_on_c, 12, 77, 84
14, 204120, Note_on_c, 12, 74, 84
14, 204171, Note_on_c, 12, 77, 0
14, 204171, Note_on_c, 12, 74, 0
14, 204180, Note_on_c, 12, 77, 84
14, 204180, Note_on_c, 12, 74, 84
14, 204231, Note_on_c, 12, 77, 0
14, 204231, Note_on_c, 12, 74, 0
14, 204240, Note_on_c, 12, 74, 84
14, 204240, Note_on_c, 12, 77, 84
14, 204291, Note_on_c, 12, 74, 0
14, 204291, Note_on_c, 12, 77, 0
14, 204300, Note_on_c, 12, 74, 84
14, 204300, Note_on_c, 12, 77, 84
14, 204351, Note_on_c, 12, 74, 0
14, 204351, Note_on_c, 12, 77, 0
14, 204360, Note_on_c, 12, 74, 84
14, 204360, Note_on_c, 12, 77, 84
14, 204411, Note_on_c, 12, 74, 0
14, 204411, Note_on_c, 12, 77, 0
14, 204420, Note_on_c, 12, 74, 84
14, 204420, Note_on_c, 12, 77, 84
14, 204471, Note_on_c, 12, 74, 0
14, 204471, Note_on_c, 12, 77, 0
14, 204480, Note_on_c, 12, 77, 84
14, 204480, Note_on_c, 12, 74, 84
14, 204531, Note_on_c, 12, 77, 0
14, 204531, Note_on_c, 12, 74, 0
14, 204540, Note_on_c, 12, 77, 84
14, 204540, Note_on_c, 12, 74, 84
14, 204591, Note_on_c, 12, 77, 0
14, 204591, Note_on_c, 12, 74, 0
14, 204600, Note_on_c, 12, 77, 84
14, 204600, Note_on_c, 12, 74, 84
14, 204651, Note_on_c, 12, 77, 0
14, 204651, Note_on_c, 12, 74, 0
14, 204660, Note_on_c, 12, 74, 84
14, 204660, Note_on_c, 12, 77, 84
14, 204711, Note_on_c, 12, 74, 0
14, 204711, Note_on_c, 12, 77, 0
14, 204720, Note_on_c, 12, 74, 92
14, 204720, Note_on_c, 12, 77, 92
14, 204771, Note_on_c, 12, 74, 0
14, 204771, Note_on_c, 12, 77, 0
14, 204780, Note_on_c, 12, 74, 84
14, 204780, Note_on_c, 12, 77, 84
14, 204831, Note_on_c, 12, 74, 0
14, 204831, Note_on_c, 12, 77, 0
14, 204840, Note_on_c, 12, 74, 84
14, 204840, Note_on_c, 12, 77, 84
14, 204891, Note_on_c, 12, 74, 0
14, 204891, Note_on_c, 12, 77, 0
14, 204900, Note_on_c, 12, 77, 84
14, 204900, Note_on_c, 12, 74, 84
14, 204951, Note_on_c, 12, 77, 0
14, 204951, Note_on_c, 12, 74, 0
14, 204960, Note_on_c, 12, 77, 84
14, 204960, Note_on_c, 12, 74, 84
14, 205011, Note_on_c, 12, 77, 0
14, 205011, Note_on_c, 12, 74, 0
14, 205020, Note_on_c, 12, 74, 84
14, 205020, Note_on_c, 12, 77, 84
14, 205071, Note_on_c, 12, 74, 0
14, 205071, Note_on_c, 12, 77, 0
14, 205080, Note_on_c, 12, 77, 84
14, 205080, Note_on_c, 12, 74, 84
14, 205131, Note_on_c, 12, 77, 0
14, 205131, Note_on_c, 12, 74, 0
14, 205140, Note_on_c, 12, 77, 84
14, 205140, Note_on_c, 12, 74, 84
14, 205191, Note_on_c, 12, 77, 0
14, 205191, Note_on_c, 12, 74, 0
14, 205200, Note_on_c, 12, 77, 84
14, 205200, Note_on_c, 12, 74, 84
14, 205251, Note_on_c, 12, 77, 0
14, 205251, Note_on_c, 12, 74, 0
14, 205260, Note_on_c, 12, 77, 84
14, 205260, Note_on_c, 12, 74, 84
14, 205311, Note_on_c, 12, 77, 0
14, 205311, Note_on_c, 12, 74, 0
14, 205320, Note_on_c, 12, 77, 84
14, 205320, Note_on_c, 12, 74, 84
14, 205371, Note_on_c, 12, 77, 0
14, 205371, Note_on_c, 12, 74, 0
14, 205380, Note_on_c, 12, 74, 84
14, 205380, Note_on_c, 12, 77, 84
14, 205431, Note_on_c, 12, 74, 0
14, 205431, Note_on_c, 12, 77, 0
14, 205440, Note_on_c, 12, 77, 84
14, 205440, Note_on_c, 12, 74, 84
14, 205491, Note_on_c, 12, 77, 0
14, 205491, Note_on_c, 12, 74, 0
14, 205500, Note_on_c, 12, 74, 84
14, 205500, Note_on_c, 12, 77, 84
14, 205551, Note_on_c, 12, 74, 0
14, 205551, Note_on_c, 12, 77, 0
14, 205560, Note_on_c, 12, 74, 84
14, 205560, Note_on_c, 12, 77, 84
14, 205611, Note_on_c, 12, 74, 0
14, 205611, Note_on_c, 12, 77, 0
14, 205620, Note_on_c, 12, 74, 84
14, 205620, Note_on_c, 12, 77, 84
14, 205671, Note_on_c, 12, 74, 0
14, 205671, Note_on_c, 12, 77, 0
14, 205680, Note_on_c, 12, 77, 84
14, 205680, Note_on_c, 12, 74, 84
14, 205731, Note_on_c, 12, 77, 0
14, 205731, Note_on_c, 12, 74, 0
14, 205740, Note_on_c, 12, 77, 84
14, 205740, Note_on_c, 12, 74, 84
14, 205791, Note_on_c, 12, 77, 0
14, 205791, Note_on_c, 12, 74, 0
14, 205800, Note_on_c, 12, 77, 84
14, 205800, Note_on_c, 12, 74, 84
14, 205851, Note_on_c, 12, 77, 0
14, 205851, Note_on_c, 12, 74, 0
14, 205860, Note_on_c, 12, 77, 84
14, 205860, Note_on_c, 12, 74, 84
14, 205911, Note_on_c, 12, 77, 0
14, 205911, Note_on_c, 12, 74, 0
14, 205920, Note_on_c, 12, 77, 92
14, 205971, Note_on_c, 12, 77, 0
14, 205980, Note_on_c, 12, 77, 84
14, 206031, Note_on_c, 12, 77, 0
14, 206040, Note_on_c, 12, 77, 84
14, 206091, Note_on_c, 12, 77, 0
14, 206100, Note_on_c, 12, 77, 84
14, 206151, Note_on_c, 12, 77, 0
14, 206160, Note_on_c, 12, 68, 84
14, 206211, Note_on_c, 12, 68, 0
14, 206220, Note_on_c, 12, 68, 84
14, 206271, Note_on_c, 12, 68, 0
14, 206280, Note_on_c, 12, 77, 84
14, 206331, Note_on_c, 12, 77, 0
14, 206340, Note_on_c, 12, 77, 84
14, 206399, Note_on_c, 12, 77, 0
14, 206640, Note_on_c, 12, 78, 92
14, 206691, Note_on_c, 12, 78, 0
14, 206700, Note_on_c, 12, 78, 84
14, 206751, Note_on_c, 12, 78, 0
14, 206760, Note_on_c, 12, 78, 84
14, 206811, Note_on_c, 12, 78, 0
14, 206820, Note_on_c, 12, 78, 84
14, 206871, Note_on_c, 12, 78, 0
14, 206880, Note_on_c, 12, 69, 84
14, 206931, Note_on_c, 12, 69, 0
14, 206940, Note_on_c, 12, 69, 84
14, 206991, Note_on_c, 12, 69, 0
14, 207000, Note_on_c, 12, 78, 84
14, 207051, Note_on_c, 12, 78, 0
14, 207060, Note_on_c, 12, 78, 84
14, 207119, Note_on_c, 12, 78, 0
14, 207360, Note_on_c, 12, 79, 92
14, 207411, Note_on_c, 12, 79, 0
14, 207420, Note_on_c, 12, 79, 84
14, 207471, Note_on_c, 12, 79, 0
14, 207480, Note_on_c, 12, 79, 84
14, 207531, Note_on_c, 12, 79, 0
14, 207540, Note_on_c, 12, 79, 84
14, 207591, Note_on_c, 12, 79, 0
14, 207600, Note_on_c, 12, 70, 84
14, 207651, Note_on_c, 12, 70, 0
14, 207660, Note_on_c, 12, 70, 84
14, 207711, Note_on_c, 12, 70, 0
14, 207720, Note_on_c, 12, 79, 84
14, 207771, Note_on_c, 12, 79, 0
14, 207780, Note_on_c, 12, 79, 84
14, 207839, Note_on_c, 12, 79, 0
14, 208080, Note_on_c, 12, 82, 92
14, 208131, Note_on_c, 12, 82, 0
14, 208140, Note_on_c, 12, 82, 84
14, 208191, Note_on_c, 12, 82, 0
14, 208200, Note_on_c, 12, 82, 84
14, 208251, Note_on_c, 12, 82, 0
14, 208260, Note_on_c, 12, 82, 84
14, 208311, Note_on_c, 12, 82, 0
14, 208320, Note_on_c, 12, 79, 84
14, 208371, Note_on_c, 12, 79, 0
14, 208380, Note_on_c, 12, 79, 84
14, 208431, Note_on_c, 12, 79, 0
14, 208440, Note_on_c, 12, 82, 84
14, 208491, Note_on_c, 12, 82, 0
14, 208500, Note_on_c, 12, 82, 84
14, 208559, Note_on_c, 12, 82, 0
14, 208800, Note_on_c, 12, 82, 88
14, 208851, Note_on_c, 12, 82, 0
14, 208860, Note_on_c, 12, 82, 88
14, 208911, Note_on_c, 12, 82, 0
14, 208920, Note_on_c, 12, 82, 88
14, 208971, Note_on_c, 12, 82, 0
14, 208980, Note_on_c, 12, 82, 88
14, 209031, Note_on_c, 12, 82, 0
14, 209040, Note_on_c, 12, 79, 88
14, 209091, Note_on_c, 12, 79, 0
14, 209100, Note_on_c, 12, 79, 88
14, 209151, Note_on_c, 12, 79, 0
14, 209160, Note_on_c, 12, 82, 88
14, 209211, Note_on_c, 12, 82, 0
14, 209220, Note_on_c, 12, 82, 88
14, 209271, Note_on_c, 12, 82, 0
14, 209280, Note_on_c, 12, 82, 88
14, 209331, Note_on_c, 12, 82, 0
14, 209340, Note_on_c, 12, 82, 88
14, 209391, Note_on_c, 12, 82, 0
14, 209400, Note_on_c, 12, 82, 88
14, 209451, Note_on_c, 12, 82, 0
14, 209460, Note_on_c, 12, 82, 88
14, 209511, Note_on_c, 12, 82, 0
14, 209520, Note_on_c, 12, 82, 88
14, 209571, Note_on_c, 12, 82, 0
14, 209580, Note_on_c, 12, 82, 88
14, 209631, Note_on_c, 12, 82, 0
14, 209640, Note_on_c, 12, 82, 88
14, 209691, Note_on_c, 12, 82, 0
14, 209700, Note_on_c, 12, 82, 88
14, 209751, Note_on_c, 12, 82, 0
14, 209760, Note_on_c, 12, 82, 88
14, 209811, Note_on_c, 12, 82, 0
14, 209820, Note_on_c, 12, 82, 88
14, 209871, Note_on_c, 12, 82, 0
14, 209880, Note_on_c, 12, 82, 88
14, 209931, Note_on_c, 12, 82, 0
14, 209940, Note_on_c, 12, 82, 88
14, 209991, Note_on_c, 12, 82, 0
14, 210000, Note_on_c, 12, 82, 88
14, 210051, Note_on_c, 12, 82, 0
14, 210060, Note_on_c, 12, 82, 88
14, 210111, Note_on_c, 12, 82, 0
14, 210120, Note_on_c, 12, 69, 88
14, 210120, Note_on_c, 12, 81, 88
14, 210171, Note_on_c, 12, 69, 0
14, 210171, Note_on_c, 12, 81, 0
14, 210180, Note_on_c, 12, 81, 88
14, 210180, Note_on_c, 12, 69, 88
14, 210231, Note_on_c, 12, 81, 0
14, 210231, Note_on_c, 12, 69, 0
14, 210240, Note_on_c, 12, 69, 92
14, 210240, Note_on_c, 12, 81, 92
14, 210291, Note_on_c, 12, 69, 0
14, 210291, Note_on_c, 12, 81, 0
14, 210300, Note_on_c, 12, 69, 92
14, 210300, Note_on_c, 12, 81, 92
14, 210351, Note_on_c, 12, 69, 0
14, 210351, Note_on_c, 12, 81, 0
14, 210360, Note_on_c, 12, 81, 92
14, 210360, Note_on_c, 12, 69, 92
14, 210411, Note_on_c, 12, 81, 0
14, 210411, Note_on_c, 12, 69, 0
14, 210420, Note_on_c, 12, 69, 92
14, 210420, Note_on_c, 12, 81, 92
14, 210471, Note_on_c, 12, 69, 0
14, 210471, Note_on_c, 12, 81, 0
14, 210480, Note_on_c, 12, 69, 92
14, 210480, Note_on_c, 12, 81, 92
14, 210531, Note_on_c, 12, 69, 0
14, 210531, Note_on_c, 12, 81, 0
14, 210540, Note_on_c, 12, 81, 92
14, 210540, Note_on_c, 12, 69, 92
14, 210591, Note_on_c, 12, 81, 0
14, 210591, Note_on_c, 12, 69, 0
14, 210600, Note_on_c, 12, 69, 92
14, 210600, Note_on_c, 12, 81, 92
14, 210651, Note_on_c, 12, 69, 0
14, 210651, Note_on_c, 12, 81, 0
14, 210660, Note_on_c, 12, 69, 92
14, 210660, Note_on_c, 12, 81, 92
14, 210711, Note_on_c, 12, 69, 0
14, 210711, Note_on_c, 12, 81, 0
14, 210720, Note_on_c, 12, 81, 92
14, 210720, Note_on_c, 12, 69, 92
14, 210771, Note_on_c, 12, 81, 0
14, 210771, Note_on_c, 12, 69, 0
14, 210780, Note_on_c, 12, 69, 92
14, 210780, Note_on_c, 12, 81, 92
14, 210831, Note_on_c, 12, 69, 0
14, 210831, Note_on_c, 12, 81, 0
14, 210840, Note_on_c, 12, 69, 92
14, 210840, Note_on_c, 12, 81, 92
14, 210891, Note_on_c, 12, 69, 0
14, 210891, Note_on_c, 12, 81, 0
14, 210900, Note_on_c, 12, 69, 92
14, 210900, Note_on_c, 12, 81, 92
14, 210951, Note_on_c, 12, 69, 0
14, 210951, Note_on_c, 12, 81, 0
14, 210960, Note_on_c, 12, 69, 92
14, 210960, Note_on_c, 12, 81, 92
14, 211011, Note_on_c, 12, 69, 0
14, 211011, Note_on_c, 12, 81, 0
14, 211020, Note_on_c, 12, 81, 92
14, 211020, Note_on_c, 12, 69, 92
14, 211071, Note_on_c, 12, 81, 0
14, 211071, Note_on_c, 12, 69, 0
14, 211080, Note_on_c, 12, 81, 92
14, 211080, Note_on_c, 12, 69, 92
14, 211131, Note_on_c, 12, 81, 0
14, 211131, Note_on_c, 12, 69, 0
14, 211140, Note_on_c, 12, 69, 92
14, 211140, Note_on_c, 12, 81, 92
14, 211191, Note_on_c, 12, 69, 0
14, 211191, Note_on_c, 12, 81, 0
14, 211200, Note_on_c, 12, 81, 92
14, 211200, Note_on_c, 12, 69, 92
14, 211251, Note_on_c, 12, 81, 0
14, 211251, Note_on_c, 12, 69, 0
14, 211260, Note_on_c, 12, 81, 92
14, 211260, Note_on_c, 12, 69, 92
14, 211311, Note_on_c, 12, 81, 0
14, 211311, Note_on_c, 12, 69, 0
14, 211320, Note_on_c, 12, 81, 92
14, 211320, Note_on_c, 12, 69, 92
14, 211371, Note_on_c, 12, 81, 0
14, 211371, Note_on_c, 12, 69, 0
14, 211380, Note_on_c, 12, 81, 92
14, 211380, Note_on_c, 12, 69, 92
14, 211431, Note_on_c, 12, 81, 0
14, 211431, Note_on_c, 12, 69, 0
14, 211440, Note_on_c, 12, 81, 92
14, 211440, Note_on_c, 12, 69, 92
14, 211491, Note_on_c, 12, 81, 0
14, 211491, Note_on_c, 12, 69, 0
14, 211500, Note_on_c, 12, 69, 92
14, 211500, Note_on_c, 12, 81, 92
14, 211551, Note_on_c, 12, 69, 0
14, 211551, Note_on_c, 12, 81, 0
14, 211560, Note_on_c, 12, 69, 92
14, 211560, Note_on_c, 12, 81, 92
14, 211611, Note_on_c, 12, 69, 0
14, 211611, Note_on_c, 12, 81, 0
14, 211620, Note_on_c, 12, 81, 92
14, 211620, Note_on_c, 12, 69, 92
14, 211671, Note_on_c, 12, 81, 0
14, 211671, Note_on_c, 12, 69, 0
14, 211680, Note_on_c, 12, 79, 92
14, 211680, Note_on_c, 12, 70, 92
14, 211731, Note_on_c, 12, 79, 0
14, 211731, Note_on_c, 12, 70, 0
14, 211740, Note_on_c, 12, 70, 92
14, 211740, Note_on_c, 12, 79, 92
14, 211791, Note_on_c, 12, 70, 0
14, 211791, Note_on_c, 12, 79, 0
14, 211800, Note_on_c, 12, 79, 92
14, 211800, Note_on_c, 12, 70, 92
14, 211851, Note_on_c, 12, 79, 0
14, 211851, Note_on_c, 12, 70, 0
14, 211860, Note_on_c, 12, 70, 92
14, 211860, Note_on_c, 12, 79, 92
14, 211911, Note_on_c, 12, 70, 0
14, 211911, Note_on_c, 12, 79, 0
14, 211920, Note_on_c, 12, 70, 92
14, 211920, Note_on_c, 12, 79, 92
14, 211971, Note_on_c, 12, 70, 0
14, 211971, Note_on_c, 12, 79, 0
14, 211980, Note_on_c, 12, 70, 92
14, 211980, Note_on_c, 12, 79, 92
14, 212031, Note_on_c, 12, 70, 0
14, 212031, Note_on_c, 12, 79, 0
14, 212040, Note_on_c, 12, 70, 92
14, 212040, Note_on_c, 12, 79, 92
14, 212091, Note_on_c, 12, 70, 0
14, 212091, Note_on_c, 12, 79, 0
14, 212100, Note_on_c, 12, 70, 92
14, 212100, Note_on_c, 12, 79, 92
14, 212151, Note_on_c, 12, 70, 0
14, 212151, Note_on_c, 12, 79, 0
14, 212160, Note_on_c, 12, 77, 92
14, 212160, Note_on_c, 12, 69, 92
14, 212211, Note_on_c, 12, 77, 0
14, 212211, Note_on_c, 12, 69, 0
14, 212220, Note_on_c, 12, 77, 92
14, 212220, Note_on_c, 12, 69, 92
14, 212271, Note_on_c, 12, 77, 0
14, 212271, Note_on_c, 12, 69, 0
14, 212280, Note_on_c, 12, 69, 92
14, 212280, Note_on_c, 12, 77, 92
14, 212331, Note_on_c, 12, 69, 0
14, 212331, Note_on_c, 12, 77, 0
14, 212340, Note_on_c, 12, 69, 92
14, 212340, Note_on_c, 12, 77, 92
14, 212391, Note_on_c, 12, 69, 0
14, 212391, Note_on_c, 12, 77, 0
14, 212400, Note_on_c, 12, 76, 92
14, 212400, Note_on_c, 12, 67, 92
14, 212451, Note_on_c, 12, 76, 0
14, 212451, Note_on_c, 12, 67, 0
14, 212460, Note_on_c, 12, 67, 92
14, 212460, Note_on_c, 12, 76, 92
14, 212511, Note_on_c, 12, 67, 0
14, 212511, Note_on_c, 12, 76, 0
14, 212520, Note_on_c, 12, 76, 92
14, 212520, Note_on_c, 12, 67, 92
14, 212571, Note_on_c, 12, 76, 0
14, 212571, Note_on_c, 12, 67, 0
14, 212580, Note_on_c, 12, 76, 92
14, 212580, Note_on_c, 12, 67, 92
14, 212631, Note_on_c, 12, 76, 0
14, 212631, Note_on_c, 12, 67, 0
14, 212640, Note_on_c, 12, 67, 92
14, 212640, Note_on_c, 12, 76, 92
14, 212691, Note_on_c, 12, 67, 0
14, 212691, Note_on_c, 12, 76, 0
14, 212700, Note_on_c, 12, 67, 92
14, 212700, Note_on_c, 12, 76, 92
14, 212751, Note_on_c, 12, 67, 0
14, 212751, Note_on_c, 12, 76, 0
14, 212760, Note_on_c, 12, 67, 92
14, 212760, Note_on_c, 12, 76, 92
14, 212811, Note_on_c, 12, 67, 0
14, 212811, Note_on_c, 12, 76, 0
14, 212820, Note_on_c, 12, 67, 92
14, 212820, Note_on_c, 12, 76, 92
14, 212871, Note_on_c, 12, 67, 0
14, 212871, Note_on_c, 12, 76, 0
14, 212880, Note_on_c, 12, 76, 92
14, 212880, Note_on_c, 12, 67, 92
14, 212931, Note_on_c, 12, 76, 0
14, 212931, Note_on_c, 12, 67, 0
14, 212940, Note_on_c, 12, 67, 92
14, 212940, Note_on_c, 12, 76, 92
14, 212991, Note_on_c, 12, 67, 0
14, 212991, Note_on_c, 12, 76, 0
14, 213000, Note_on_c, 12, 67, 92
14, 213000, Note_on_c, 12, 76, 92
14, 213051, Note_on_c, 12, 67, 0
14, 213051, Note_on_c, 12, 76, 0
14, 213060, Note_on_c, 12, 67, 92
14, 213060, Note_on_c, 12, 76, 92
14, 213111, Note_on_c, 12, 67, 0
14, 213111, Note_on_c, 12, 76, 0
14, 213120, Note_on_c, 12, 79, 92
14, 213120, Note_on_c, 12, 70, 92
14, 213171, Note_on_c, 12, 79, 0
14, 213171, Note_on_c, 12, 70, 0
14, 213180, Note_on_c, 12, 79, 92
14, 213180, Note_on_c, 12, 70, 92
14, 213231, Note_on_c, 12, 79, 0
14, 213231, Note_on_c, 12, 70, 0
14, 213240, Note_on_c, 12, 70, 92
14, 213240, Note_on_c, 12, 79, 92
14, 213291, Note_on_c, 12, 70, 0
14, 213291, Note_on_c, 12, 79, 0
14, 213300, Note_on_c, 12, 70, 92
14, 213300, Note_on_c, 12, 79, 92
14, 213351, Note_on_c, 12, 70, 0
14, 213351, Note_on_c, 12, 79, 0
14, 213360, Note_on_c, 12, 70, 92
14, 213360, Note_on_c, 12, 79, 92
14, 213411, Note_on_c, 12, 70, 0
14, 213411, Note_on_c, 12, 79, 0
14, 213420, Note_on_c, 12, 79, 92
14, 213420, Note_on_c, 12, 70, 92
14, 213471, Note_on_c, 12, 79, 0
14, 213471, Note_on_c, 12, 70, 0
14, 213480, Note_on_c, 12, 79, 92
14, 213480, Note_on_c, 12, 70, 92
14, 213531, Note_on_c, 12, 79, 0
14, 213531, Note_on_c, 12, 70, 0
14, 213540, Note_on_c, 12, 79, 92
14, 213540, Note_on_c, 12, 70, 92
14, 213591, Note_on_c, 12, 79, 0
14, 213591, Note_on_c, 12, 70, 0
14, 213600, Note_on_c, 12, 79, 92
14, 213600, Note_on_c, 12, 70, 92
14, 213651, Note_on_c, 12, 79, 0
14, 213651, Note_on_c, 12, 70, 0
14, 213660, Note_on_c, 12, 70, 92
14, 213660, Note_on_c, 12, 79, 92
14, 213711, Note_on_c, 12, 70, 0
14, 213711, Note_on_c, 12, 79, 0
14, 213720, Note_on_c, 12, 70, 92
14, 213720, Note_on_c, 12, 79, 92
14, 213771, Note_on_c, 12, 70, 0
14, 213771, Note_on_c, 12, 79, 0
14, 213780, Note_on_c, 12, 79, 92
14, 213780, Note_on_c, 12, 70, 92
14, 213831, Note_on_c, 12, 79, 0
14, 213831, Note_on_c, 12, 70, 0
14, 213840, Note_on_c, 12, 70, 92
14, 213840, Note_on_c, 12, 79, 92
14, 213891, Note_on_c, 12, 70, 0
14, 213891, Note_on_c, 12, 79, 0
14, 213900, Note_on_c, 12, 70, 92
14, 213900, Note_on_c, 12, 79, 92
14, 213951, Note_on_c, 12, 70, 0
14, 213951, Note_on_c, 12, 79, 0
14, 213960, Note_on_c, 12, 79, 92
14, 213960, Note_on_c, 12, 70, 92
14, 214011, Note_on_c, 12, 79, 0
14, 214011, Note_on_c, 12, 70, 0
14, 214020, Note_on_c, 12, 79, 92
14, 214020, Note_on_c, 12, 70, 92
14, 214071, Note_on_c, 12, 79, 0
14, 214071, Note_on_c, 12, 70, 0
14, 214080, Note_on_c, 12, 70, 92
14, 214080, Note_on_c, 12, 79, 92
14, 214131, Note_on_c, 12, 70, 0
14, 214131, Note_on_c, 12, 79, 0
14, 214140, Note_on_c, 12, 70, 92
14, 214140, Note_on_c, 12, 79, 92
14, 214191, Note_on_c, 12, 70, 0
14, 214191, Note_on_c, 12, 79, 0
14, 214200, Note_on_c, 12, 70, 92
14, 214200, Note_on_c, 12, 79, 92
14, 214251, Note_on_c, 12, 70, 0
14, 214251, Note_on_c, 12, 79, 0
14, 214260, Note_on_c, 12, 79, 92
14, 214260, Note_on_c, 12, 70, 92
14, 214311, Note_on_c, 12, 79, 0
14, 214311, Note_on_c, 12, 70, 0
14, 214320, Note_on_c, 12, 70, 92
14, 214320, Note_on_c, 12, 79, 92
14, 214371, Note_on_c, 12, 70, 0
14, 214371, Note_on_c, 12, 79, 0
14, 214380, Note_on_c, 12, 79, 92
14, 214380, Note_on_c, 12, 70, 92
14, 214431, Note_on_c, 12, 79, 0
14, 214431, Note_on_c, 12, 70, 0
14, 214440, Note_on_c, 12, 70, 92
14, 214440, Note_on_c, 12, 79, 92
14, 214491, Note_on_c, 12, 70, 0
14, 214491, Note_on_c, 12, 79, 0
14, 214500, Note_on_c, 12, 70, 92
14, 214500, Note_on_c, 12, 79, 92
14, 214551, Note_on_c, 12, 70, 0
14, 214551, Note_on_c, 12, 79, 0
14, 214560, Note_on_c, 12, 81, 92
14, 214560, Note_on_c, 12, 72, 92
14, 214611, Note_on_c, 12, 81, 0
14, 214611, Note_on_c, 12, 72, 0
14, 214620, Note_on_c, 12, 81, 92
14, 214620, Note_on_c, 12, 72, 92
14, 214671, Note_on_c, 12, 81, 0
14, 214671, Note_on_c, 12, 72, 0
14, 214680, Note_on_c, 12, 72, 92
14, 214680, Note_on_c, 12, 81, 92
14, 214731, Note_on_c, 12, 72, 0
14, 214731, Note_on_c, 12, 81, 0
14, 214740, Note_on_c, 12, 72, 92
14, 214740, Note_on_c, 12, 81, 92
14, 214791, Note_on_c, 12, 72, 0
14, 214791, Note_on_c, 12, 81, 0
14, 214800, Note_on_c, 12, 72, 92
14, 214800, Note_on_c, 12, 81, 92
14, 214851, Note_on_c, 12, 72, 0
14, 214851, Note_on_c, 12, 81, 0
14, 214860, Note_on_c, 12, 72, 92
14, 214860, Note_on_c, 12, 81, 92
14, 214911, Note_on_c, 12, 72, 0
14, 214911, Note_on_c, 12, 81, 0
14, 214920, Note_on_c, 12, 81, 92
14, 214920, Note_on_c, 12, 72, 92
14, 214971, Note_on_c, 12, 81, 0
14, 214971, Note_on_c, 12, 72, 0
14, 214980, Note_on_c, 12, 81, 92
14, 214980, Note_on_c, 12, 72, 92
14, 215031, Note_on_c, 12, 81, 0
14, 215031, Note_on_c, 12, 72, 0
14, 215040, Note_on_c, 12, 72, 92
14, 215040, Note_on_c, 12, 79, 92
14, 215091, Note_on_c, 12, 72, 0
14, 215091, Note_on_c, 12, 79, 0
14, 215100, Note_on_c, 12, 79, 92
14, 215100, Note_on_c, 12, 72, 92
14, 215151, Note_on_c, 12, 79, 0
14, 215151, Note_on_c, 12, 72, 0
14, 215160, Note_on_c, 12, 72, 92
14, 215160, Note_on_c, 12, 79, 92
14, 215211, Note_on_c, 12, 72, 0
14, 215211, Note_on_c, 12, 79, 0
14, 215220, Note_on_c, 12, 79, 92
14, 215220, Note_on_c, 12, 72, 92
14, 215271, Note_on_c, 12, 79, 0
14, 215271, Note_on_c, 12, 72, 0
14, 215280, Note_on_c, 12, 81, 92
14, 215280, Note_on_c, 12, 72, 92
14, 215399, Note_on_c, 12, 81, 0
14, 215399, Note_on_c, 12, 72, 0
14, 218160, Note_on_c, 12, 60, 76
14, 218211, Note_on_c, 12, 60, 0
14, 218220, Note_on_c, 12, 60, 76
14, 218271, Note_on_c, 12, 60, 0
14, 218280, Note_on_c, 12, 62, 76
14, 218331, Note_on_c, 12, 62, 0
14, 218340, Note_on_c, 12, 62, 76
14, 218391, Note_on_c, 12, 62, 0
14, 218400, Note_on_c, 12, 64, 76
14, 218451, Note_on_c, 12, 64, 0
14, 218460, Note_on_c, 12, 64, 76
14, 218511, Note_on_c, 12, 64, 0
14, 218520, Note_on_c, 12, 65, 76
14, 218571, Note_on_c, 12, 65, 0
14, 218580, Note_on_c, 12, 65, 76
14, 218631, Note_on_c, 12, 65, 0
14, 218640, Note_on_c, 12, 67, 76
14, 218691, Note_on_c, 12, 67, 0
14, 218700, Note_on_c, 12, 67, 76
14, 218751, Note_on_c, 12, 67, 0
14, 218760, Note_on_c, 12, 69, 76
14, 218811, Note_on_c, 12, 69, 0
14, 218820, Note_on_c, 12, 69, 76
14, 218871, Note_on_c, 12, 69, 0
14, 218880, Note_on_c, 12, 79, 52
14, 218880, Note_on_c, 12, 70, 52
14, 218999, Note_on_c, 12, 79, 0
14, 218999, Note_on_c, 12, 70, 0
14, 222660, Control_c, 12, 11, 100
14, 222720, Note_on_c, 12, 64, 76
14, 222840, Control_c, 12, 11, 104
14, 222929, Note_on_c, 12, 64, 0
14, 222930, Note_on_c, 12, 64, 76
14, 222959, Note_on_c, 12, 64, 0
14, 222960, Note_on_c, 12, 62, 76
14, 223020, Control_c, 12, 11, 107
14, 223079, Note_on_c, 12, 62, 0
14, 223080, Note_on_c, 12, 60, 76
14, 223184, Note_on_c, 12, 60, 0
14, 223200, Note_on_c, 12, 60, 76
14, 223200, Control_c, 12, 11, 111
14, 223380, Control_c, 12, 11, 115
14, 223439, Note_on_c, 12, 60, 0
14, 223440, Note_on_c, 12, 62, 76
14, 223560, Control_c, 12, 11, 119
14, 223679, Note_on_c, 12, 62, 0
14, 223680, Note_on_c, 12, 64, 76
14, 223740, Control_c, 12, 11, 123
14, 223904, Note_on_c, 12, 64, 0
14, 223920, Note_on_c, 12, 65, 76
14, 223971, Note_on_c, 12, 65, 0
14, 223980, Note_on_c, 12, 65, 76
14, 224031, Note_on_c, 12, 65, 0
14, 224040, Note_on_c, 12, 69, 76
14, 224091, Note_on_c, 12, 69, 0
14, 224100, Note_on_c, 12, 69, 76
14, 224151, Note_on_c, 12, 69, 0
14, 224160, Note_on_c, 12, 65, 76
14, 224211, Note_on_c, 12, 65, 0
14, 224220, Note_on_c, 12, 65, 76
14, 224271, Note_on_c, 12, 65, 0
14, 224280, Note_on_c, 12, 69, 76
14, 224331, Note_on_c, 12, 69, 0
14, 224340, Note_on_c, 12, 69, 76
14, 224391, Note_on_c, 12, 69, 0
14, 224400, Note_on_c, 12, 65, 76
14, 224451, Note_on_c, 12, 65, 0
14, 224460, Note_on_c, 12, 65, 76
14, 224511, Note_on_c, 12, 65, 0
14, 224520, Note_on_c, 12, 69, 76
14, 224571, Note_on_c, 12, 69, 0
14, 224580, Note_on_c, 12, 69, 76
14, 224631, Note_on_c, 12, 69, 0
14, 224640, Note_on_c, 12, 65, 76
14, 224691, Note_on_c, 12, 65, 0
14, 224700, Note_on_c, 12, 65, 76
14, 224751, Note_on_c, 12, 65, 0
14, 224760, Note_on_c, 12, 72, 76
14, 224811, Note_on_c, 12, 72, 0
14, 224820, Note_on_c, 12, 72, 76
14, 224871, Note_on_c, 12, 72, 0
14, 224880, Note_on_c, 12, 65, 76
14, 224931, Note_on_c, 12, 65, 0
14, 224940, Note_on_c, 12, 65, 76
14, 224991, Note_on_c, 12, 65, 0
14, 225000, Note_on_c, 12, 72, 76
14, 225051, Note_on_c, 12, 72, 0
14, 225060, Note_on_c, 12, 72, 76
14, 225111, Note_on_c, 12, 72, 0
14, 225120, Note_on_c, 12, 65, 76
14, 225171, Note_on_c, 12, 65, 0
14, 225180, Note_on_c, 12, 65, 76
14, 225231, Note_on_c, 12, 65, 0
14, 225240, Note_on_c, 12, 72, 76
14, 225291, Note_on_c, 12, 72, 0
14, 225300, Note_on_c, 12, 72, 76
14, 225351, Note_on_c, 12, 72, 0
14, 225360, Note_on_c, 12, 65, 76
14, 225411, Note_on_c, 12, 65, 0
14, 225420, Note_on_c, 12, 65, 76
14, 225471, Note_on_c, 12, 65, 0
14, 225480, Note_on_c, 12, 74, 76
14, 225531, Note_on_c, 12, 74, 0
14, 225540, Note_on_c, 12, 74, 76
14, 225591, Note_on_c, 12, 74, 0
14, 225600, Note_on_c, 12, 65, 76
14, 225651, Note_on_c, 12, 65, 0
14, 225660, Note_on_c, 12, 65, 76
14, 225711, Note_on_c, 12, 65, 0
14, 225720, Note_on_c, 12, 74, 76
14, 225771, Note_on_c, 12, 74, 0
14, 225780, Note_on_c, 12, 74, 76
14, 225831, Note_on_c, 12, 74, 0
14, 225840, Note_on_c, 12, 65, 76
14, 225891, Note_on_c, 12, 65, 0
14, 225900, Note_on_c, 12, 65, 76
14, 225951, Note_on_c, 12, 65, 0
14, 225960, Note_on_c, 12, 74, 76
14, 226011, Note_on_c, 12, 74, 0
14, 226020, Note_on_c, 12, 74, 76
14, 226071, Note_on_c, 12, 74, 0
14, 226080, Note_on_c, 12, 65, 76
14, 226131, Note_on_c, 12, 65, 0
14, 226140, Note_on_c, 12, 65, 76
14, 226191, Note_on_c, 12, 65, 0
14, 226200, Note_on_c, 12, 74, 76
14, 226251, Note_on_c, 12, 74, 0
14, 226260, Note_on_c, 12, 74, 76
14, 226311, Note_on_c, 12, 74, 0
14, 226320, Note_on_c, 12, 65, 76
14, 226371, Note_on_c, 12, 65, 0
14, 226380, Note_on_c, 12, 65, 76
14, 226431, Note_on_c, 12, 65, 0
14, 226440, Note_on_c, 12, 74, 76
14, 226491, Note_on_c, 12, 74, 0
14, 226500, Note_on_c, 12, 74, 76
14, 226551, Note_on_c, 12, 74, 0
14, 226560, Note_on_c, 12, 65, 76
14, 226611, Note_on_c, 12, 65, 0
14, 226620, Note_on_c, 12, 65, 76
14, 226671, Note_on_c, 12, 65, 0
14, 226680, Note_on_c, 12, 74, 76
14, 226731, Note_on_c, 12, 74, 0
14, 226740, Note_on_c, 12, 74, 76
14, 226791, Note_on_c, 12, 74, 0
14, 226800, Note_on_c, 12, 65, 76
14, 226851, Note_on_c, 12, 65, 0
14, 226860, Note_on_c, 12, 65, 76
14, 226911, Note_on_c, 12, 65, 0
14, 226920, Note_on_c, 12, 71, 76
14, 226971, Note_on_c, 12, 71, 0
14, 226980, Note_on_c, 12, 71, 76
14, 227031, Note_on_c, 12, 71, 0
14, 227040, Note_on_c, 12, 65, 76
14, 227091, Note_on_c, 12, 65, 0
14, 227100, Note_on_c, 12, 65, 76
14, 227151, Note_on_c, 12, 65, 0
14, 227160, Note_on_c, 12, 71, 76
14, 227211, Note_on_c, 12, 71, 0
14, 227220, Note_on_c, 12, 71, 76
14, 227271, Note_on_c, 12, 71, 0
14, 227280, Note_on_c, 12, 65, 76
14, 227331, Note_on_c, 12, 65, 0
14, 227340, Note_on_c, 12, 65, 76
14, 227391, Note_on_c, 12, 65, 0
14, 227400, Note_on_c, 12, 71, 76
14, 227451, Note_on_c, 12, 71, 0
14, 227460, Note_on_c, 12, 71, 76
14, 227511, Note_on_c, 12, 71, 0
14, 227520, Note_on_c, 12, 65, 76
14, 227571, Note_on_c, 12, 65, 0
14, 227580, Note_on_c, 12, 65, 76
14, 227631, Note_on_c, 12, 65, 0
14, 227640, Note_on_c, 12, 71, 76
14, 227691, Note_on_c, 12, 71, 0
14, 227700, Note_on_c, 12, 71, 76
14, 227751, Note_on_c, 12, 71, 0
14, 227760, Note_on_c, 12, 65, 76
14, 227811, Note_on_c, 12, 65, 0
14, 227820, Note_on_c, 12, 65, 76
14, 227871, Note_on_c, 12, 65, 0
14, 227880, Note_on_c, 12, 71, 76
14, 227931, Note_on_c, 12, 71, 0
14, 227940, Note_on_c, 12, 71, 76
14, 227991, Note_on_c, 12, 71, 0
14, 228000, Note_on_c, 12, 65, 76
14, 228051, Note_on_c, 12, 65, 0
14, 228060, Note_on_c, 12, 65, 76
14, 228111, Note_on_c, 12, 65, 0
14, 228120, Note_on_c, 12, 71, 76
14, 228171, Note_on_c, 12, 71, 0
14, 228180, Note_on_c, 12, 71, 76
14, 228231, Note_on_c, 12, 71, 0
14, 228240, Note_on_c, 12, 67, 76
14, 228291, Note_on_c, 12, 67, 0
14, 228300, Note_on_c, 12, 67, 76
14, 228351, Note_on_c, 12, 67, 0
14, 228360, Note_on_c, 12, 72, 76
14, 228411, Note_on_c, 12, 72, 0
14, 228420, Note_on_c, 12, 72, 76
14, 228471, Note_on_c, 12, 72, 0
14, 228480, Note_on_c, 12, 67, 76
14, 228531, Note_on_c, 12, 67, 0
14, 228540, Note_on_c, 12, 67, 76
14, 228591, Note_on_c, 12, 67, 0
14, 228600, Note_on_c, 12, 72, 76
14, 228651, Note_on_c, 12, 72, 0
14, 228660, Note_on_c, 12, 72, 76
14, 228711, Note_on_c, 12, 72, 0
14, 228720, Note_on_c, 12, 67, 76
14, 228771, Note_on_c, 12, 67, 0
14, 228780, Note_on_c, 12, 67, 76
14, 228831, Note_on_c, 12, 67, 0
14, 228840, Note_on_c, 12, 72, 76
14, 228891, Note_on_c, 12, 72, 0
14, 228900, Note_on_c, 12, 72, 76
14, 228951, Note_on_c, 12, 72, 0
14, 228960, Note_on_c, 12, 64, 76
14, 229011, Note_on_c, 12, 64, 0
14, 229020, Note_on_c, 12, 64, 76
14, 229071, Note_on_c, 12, 64, 0
14, 229080, Note_on_c, 12, 72, 76
14, 229131, Note_on_c, 12, 72, 0
14, 229140, Note_on_c, 12, 72, 76
14, 229191, Note_on_c, 12, 72, 0
14, 229200, Note_on_c, 12, 64, 76
14, 229251, Note_on_c, 12, 64, 0
14, 229260, Note_on_c, 12, 64, 76
14, 229311, Note_on_c, 12, 64, 0
14, 229320, Note_on_c, 12, 72, 76
14, 229371, Note_on_c, 12, 72, 0
14, 229380, Note_on_c, 12, 72, 76
14, 229431, Note_on_c, 12, 72, 0
14, 229440, Note_on_c, 12, 60, 76
14, 229491, Note_on_c, 12, 60, 0
14, 229500, Note_on_c, 12, 60, 76
14, 229551, Note_on_c, 12, 60, 0
14, 229560, Note_on_c, 12, 70, 76
14, 229611, Note_on_c, 12, 70, 0
14, 229620, Note_on_c, 12, 70, 76
14, 229671, Note_on_c, 12, 70, 0
14, 229680, Note_on_c, 12, 65, 84
14, 229680, Note_on_c, 12, 69, 84
14, 229731, Note_on_c, 12, 65, 0
14, 229731, Note_on_c, 12, 69, 0
14, 229740, Note_on_c, 12, 65, 84
14, 229740, Note_on_c, 12, 69, 84
14, 229791, Note_on_c, 12, 65, 0
14, 229791, Note_on_c, 12, 69, 0
14, 229800, Note_on_c, 12, 65, 84
14, 229800, Note_on_c, 12, 69, 84
14, 229851, Note_on_c, 12, 65, 0
14, 229851, Note_on_c, 12, 69, 0
14, 229860, Note_on_c, 12, 65, 84
14, 229860, Note_on_c, 12, 69, 84
14, 229911, Note_on_c, 12, 65, 0
14, 229911, Note_on_c, 12, 69, 0
14, 229920, Note_on_c, 12, 65, 84
14, 229920, Note_on_c, 12, 69, 84
14, 229971, Note_on_c, 12, 65, 0
14, 229971, Note_on_c, 12, 69, 0
14, 229980, Note_on_c, 12, 69, 84
14, 229980, Note_on_c, 12, 65, 84
14, 230031, Note_on_c, 12, 69, 0
14, 230031, Note_on_c, 12, 65, 0
14, 230040, Note_on_c, 12, 69, 84
14, 230040, Note_on_c, 12, 65, 84
14, 230091, Note_on_c, 12, 69, 0
14, 230091, Note_on_c, 12, 65, 0
14, 230100, Note_on_c, 12, 69, 84
14, 230100, Note_on_c, 12, 65, 84
14, 230151, Note_on_c, 12, 69, 0
14, 230151, Note_on_c, 12, 65, 0
14, 230160, Note_on_c, 12, 65, 84
14, 230160, Note_on_c, 12, 69, 84
14, 230211, Note_on_c, 12, 65, 0
14, 230211, Note_on_c, 12, 69, 0
14, 230220, Note_on_c, 12, 69, 84
14, 230220, Note_on_c, 12, 65, 84
14, 230271, Note_on_c, 12, 69, 0
14, 230271, Note_on_c, 12, 65, 0
14, 230280, Note_on_c, 12, 65, 84
14, 230280, Note_on_c, 12, 69, 84
14, 230331, Note_on_c, 12, 65, 0
14, 230331, Note_on_c, 12, 69, 0
14, 230340, Note_on_c, 12, 65, 84
14, 230340, Note_on_c, 12, 69, 84
14, 230391, Note_on_c, 12, 65, 0
14, 230391, Note_on_c, 12, 69, 0
14, 230400, Note_on_c, 12, 65, 84
14, 230400, Note_on_c, 12, 69, 84
14, 230451, Note_on_c, 12, 65, 0
14, 230451, Note_on_c, 12, 69, 0
14, 230460, Note_on_c, 12, 69, 84
14, 230460, Note_on_c, 12, 65, 84
14, 230511, Note_on_c, 12, 69, 0
14, 230511, Note_on_c, 12, 65, 0
14, 230520, Note_on_c, 12, 65, 84
14, 230520, Note_on_c, 12, 69, 84
14, 230571, Note_on_c, 12, 65, 0
14, 230571, Note_on_c, 12, 69, 0
14, 230580, Note_on_c, 12, 65, 84
14, 230580, Note_on_c, 12, 69, 84
14, 230631, Note_on_c, 12, 65, 0
14, 230631, Note_on_c, 12, 69, 0
14, 230640, Note_on_c, 12, 65, 84
14, 230640, Note_on_c, 12, 69, 84
14, 230691, Note_on_c, 12, 65, 0
14, 230691, Note_on_c, 12, 69, 0
14, 230700, Note_on_c, 12, 65, 84
14, 230700, Note_on_c, 12, 69, 84
14, 230751, Note_on_c, 12, 65, 0
14, 230751, Note_on_c, 12, 69, 0
14, 230760, Note_on_c, 12, 65, 84
14, 230760, Note_on_c, 12, 69, 84
14, 230811, Note_on_c, 12, 65, 0
14, 230811, Note_on_c, 12, 69, 0
14, 230820, Note_on_c, 12, 65, 84
14, 230820, Note_on_c, 12, 69, 84
14, 230871, Note_on_c, 12, 65, 0
14, 230871, Note_on_c, 12, 69, 0
14, 230880, Note_on_c, 12, 65, 84
14, 230880, Note_on_c, 12, 69, 84
14, 230931, Note_on_c, 12, 65, 0
14, 230931, Note_on_c, 12, 69, 0
14, 230940, Note_on_c, 12, 65, 84
14, 230940, Note_on_c, 12, 69, 84
14, 230991, Note_on_c, 12, 65, 0
14, 230991, Note_on_c, 12, 69, 0
14, 231000, Note_on_c, 12, 69, 84
14, 231000, Note_on_c, 12, 65, 84
14, 231051, Note_on_c, 12, 69, 0
14, 231051, Note_on_c, 12, 65, 0
14, 231060, Note_on_c, 12, 65, 84
14, 231060, Note_on_c, 12, 69, 84
14, 231111, Note_on_c, 12, 65, 0
14, 231111, Note_on_c, 12, 69, 0
14, 231120, Note_on_c, 12, 71, 84
14, 231120, Note_on_c, 12, 65, 84
14, 231171, Note_on_c, 12, 71, 0
14, 231171, Note_on_c, 12, 65, 0
14, 231180, Note_on_c, 12, 71, 84
14, 231180, Note_on_c, 12, 65, 84
14, 231231, Note_on_c, 12, 71, 0
14, 231231, Note_on_c, 12, 65, 0
14, 231240, Note_on_c, 12, 71, 84
14, 231240, Note_on_c, 12, 65, 84
14, 231291, Note_on_c, 12, 71, 0
14, 231291, Note_on_c, 12, 65, 0
14, 231300, Note_on_c, 12, 71, 84
14, 231300, Note_on_c, 12, 65, 84
14, 231351, Note_on_c, 12, 71, 0
14, 231351, Note_on_c, 12, 65, 0
14, 231360, Note_on_c, 12, 71, 84
14, 231360, Note_on_c, 12, 65, 84
14, 231411, Note_on_c, 12, 71, 0
14, 231411, Note_on_c, 12, 65, 0
14, 231420, Note_on_c, 12, 71, 84
14, 231420, Note_on_c, 12, 65, 84
14, 231471, Note_on_c, 12, 71, 0
14, 231471, Note_on_c, 12, 65, 0
14, 231480, Note_on_c, 12, 71, 84
14, 231480, Note_on_c, 12, 65, 84
14, 231531, Note_on_c, 12, 71, 0
14, 231531, Note_on_c, 12, 65, 0
14, 231540, Note_on_c, 12, 65, 84
14, 231540, Note_on_c, 12, 71, 84
14, 231591, Note_on_c, 12, 65, 0
14, 231591, Note_on_c, 12, 71, 0
14, 231600, Note_on_c, 12, 65, 84
14, 231600, Note_on_c, 12, 71, 84
14, 231651, Note_on_c, 12, 65, 0
14, 231651, Note_on_c, 12, 71, 0
14, 231660, Note_on_c, 12, 71, 84
14, 231660, Note_on_c, 12, 65, 84
14, 231711, Note_on_c, 12, 71, 0
14, 231711, Note_on_c, 12, 65, 0
14, 231720, Note_on_c, 12, 71, 84
14, 231720, Note_on_c, 12, 65, 84
14, 231771, Note_on_c, 12, 71, 0
14, 231771, Note_on_c, 12, 65, 0
14, 231780, Note_on_c, 12, 71, 84
14, 231780, Note_on_c, 12, 65, 84
14, 231831, Note_on_c, 12, 71, 0
14, 231831, Note_on_c, 12, 65, 0
14, 231840, Note_on_c, 12, 71, 84
14, 231840, Note_on_c, 12, 65, 84
14, 231891, Note_on_c, 12, 71, 0
14, 231891, Note_on_c, 12, 65, 0
14, 231900, Note_on_c, 12, 71, 84
14, 231900, Note_on_c, 12, 65, 84
14, 231951, Note_on_c, 12, 71, 0
14, 231951, Note_on_c, 12, 65, 0
14, 231960, Note_on_c, 12, 65, 84
14, 231960, Note_on_c, 12, 71, 84
14, 232011, Note_on_c, 12, 65, 0
14, 232011, Note_on_c, 12, 71, 0
14, 232020, Note_on_c, 12, 65, 84
14, 232020, Note_on_c, 12, 71, 84
14, 232071, Note_on_c, 12, 65, 0
14, 232071, Note_on_c, 12, 71, 0
14, 232080, Note_on_c, 12, 65, 84
14, 232080, Note_on_c, 12, 71, 84
14, 232131, Note_on_c, 12, 65, 0
14, 232131, Note_on_c, 12, 71, 0
14, 232140, Note_on_c, 12, 71, 84
14, 232140, Note_on_c, 12, 65, 84
14, 232191, Note_on_c, 12, 71, 0
14, 232191, Note_on_c, 12, 65, 0
14, 232200, Note_on_c, 12, 71, 84
14, 232200, Note_on_c, 12, 65, 84
14, 232251, Note_on_c, 12, 71, 0
14, 232251, Note_on_c, 12, 65, 0
14, 232260, Note_on_c, 12, 65, 84
14, 232260, Note_on_c, 12, 71, 84
14, 232311, Note_on_c, 12, 65, 0
14, 232311, Note_on_c, 12, 71, 0
14, 232320, Note_on_c, 12, 65, 84
14, 232320, Note_on_c, 12, 71, 84
14, 232371, Note_on_c, 12, 65, 0
14, 232371, Note_on_c, 12, 71, 0
14, 232380, Note_on_c, 12, 71, 84
14, 232380, Note_on_c, 12, 65, 84
14, 232431, Note_on_c, 12, 71, 0
14, 232431, Note_on_c, 12, 65, 0
14, 232440, Note_on_c, 12, 65, 84
14, 232440, Note_on_c, 12, 71, 84
14, 232491, Note_on_c, 12, 65, 0
14, 232491, Note_on_c, 12, 71, 0
14, 232500, Note_on_c, 12, 65, 84
14, 232500, Note_on_c, 12, 71, 84
14, 232551, Note_on_c, 12, 65, 0
14, 232551, Note_on_c, 12, 71, 0
14, 232560, Note_on_c, 12, 74, 84
14, 232560, Note_on_c, 12, 65, 84
14, 232611, Note_on_c, 12, 74, 0
14, 232611, Note_on_c, 12, 65, 0
14, 232620, Note_on_c, 12, 65, 84
14, 232620, Note_on_c, 12, 74, 84
14, 232671, Note_on_c, 12, 65, 0
14, 232671, Note_on_c, 12, 74, 0
14, 232680, Note_on_c, 12, 74, 84
14, 232680, Note_on_c, 12, 65, 84
14, 232731, Note_on_c, 12, 74, 0
14, 232731, Note_on_c, 12, 65, 0
14, 232740, Note_on_c, 12, 74, 84
14, 232740, Note_on_c, 12, 65, 84
14, 232791, Note_on_c, 12, 74, 0
14, 232791, Note_on_c, 12, 65, 0
14, 232800, Note_on_c, 12, 65, 84
14, 232800, Note_on_c, 12, 74, 84
14, 232851, Note_on_c, 12, 65, 0
14, 232851, Note_on_c, 12, 74, 0
14, 232860, Note_on_c, 12, 65, 84
14, 232860, Note_on_c, 12, 74, 84
14, 232911, Note_on_c, 12, 65, 0
14, 232911, Note_on_c, 12, 74, 0
14, 232920, Note_on_c, 12, 65, 84
14, 232920, Note_on_c, 12, 74, 84
14, 232971, Note_on_c, 12, 65, 0
14, 232971, Note_on_c, 12, 74, 0
14, 232980, Note_on_c, 12, 74, 84
14, 232980, Note_on_c, 12, 65, 84
14, 233031, Note_on_c, 12, 74, 0
14, 233031, Note_on_c, 12, 65, 0
14, 233040, Note_on_c, 12, 65, 84
14, 233040, Note_on_c, 12, 74, 84
14, 233091, Note_on_c, 12, 65, 0
14, 233091, Note_on_c, 12, 74, 0
14, 233100, Note_on_c, 12, 74, 84
14, 233100, Note_on_c, 12, 65, 84
14, 233151, Note_on_c, 12, 74, 0
14, 233151, Note_on_c, 12, 65, 0
14, 233160, Note_on_c, 12, 65, 84
14, 233160, Note_on_c, 12, 74, 84
14, 233211, Note_on_c, 12, 65, 0
14, 233211, Note_on_c, 12, 74, 0
14, 233220, Note_on_c, 12, 74, 84
14, 233220, Note_on_c, 12, 65, 84
14, 233271, Note_on_c, 12, 74, 0
14, 233271, Note_on_c, 12, 65, 0
14, 233280, Note_on_c, 12, 65, 84
14, 233280, Note_on_c, 12, 74, 84
14, 233331, Note_on_c, 12, 65, 0
14, 233331, Note_on_c, 12, 74, 0
14, 233340, Note_on_c, 12, 74, 84
14, 233340, Note_on_c, 12, 65, 84
14, 233391, Note_on_c, 12, 74, 0
14, 233391, Note_on_c, 12, 65, 0
14, 233400, Note_on_c, 12, 65, 84
14, 233400, Note_on_c, 12, 74, 84
14, 233451, Note_on_c, 12, 65, 0
14, 233451, Note_on_c, 12, 74, 0
14, 233460, Note_on_c, 12, 65, 84
14, 233460, Note_on_c, 12, 74, 84
14, 233511, Note_on_c, 12, 65, 0
14, 233511, Note_on_c, 12, 74, 0
14, 233520, Note_on_c, 12, 74, 84
14, 233520, Note_on_c, 12, 65, 84
14, 233571, Note_on_c, 12, 74, 0
14, 233571, Note_on_c, 12, 65, 0
14, 233580, Note_on_c, 12, 65, 84
14, 233580, Note_on_c, 12, 74, 84
14, 233631, Note_on_c, 12, 65, 0
14, 233631, Note_on_c, 12, 74, 0
14, 233640, Note_on_c, 12, 65, 84
14, 233640, Note_on_c, 12, 74, 84
14, 233691, Note_on_c, 12, 65, 0
14, 233691, Note_on_c, 12, 74, 0
14, 233700, Note_on_c, 12, 65, 84
14, 233700, Note_on_c, 12, 74, 84
14, 233751, Note_on_c, 12, 65, 0
14, 233751, Note_on_c, 12, 74, 0
14, 233760, Note_on_c, 12, 74, 84
14, 233760, Note_on_c, 12, 65, 84
14, 233811, Note_on_c, 12, 74, 0
14, 233811, Note_on_c, 12, 65, 0
14, 233820, Note_on_c, 12, 74, 84
14, 233820, Note_on_c, 12, 65, 84
14, 233871, Note_on_c, 12, 74, 0
14, 233871, Note_on_c, 12, 65, 0
14, 233880, Note_on_c, 12, 74, 84
14, 233880, Note_on_c, 12, 65, 84
14, 233931, Note_on_c, 12, 74, 0
14, 233931, Note_on_c, 12, 65, 0
14, 233940, Note_on_c, 12, 65, 84
14, 233940, Note_on_c, 12, 74, 84
14, 233991, Note_on_c, 12, 65, 0
14, 233991, Note_on_c, 12, 74, 0
14, 234000, Note_on_c, 12, 65, 84
14, 234000, Note_on_c, 12, 74, 84
14, 234051, Note_on_c, 12, 65, 0
14, 234051, Note_on_c, 12, 74, 0
14, 234060, Note_on_c, 12, 74, 84
14, 234060, Note_on_c, 12, 65, 84
14, 234111, Note_on_c, 12, 74, 0
14, 234111, Note_on_c, 12, 65, 0
14, 234120, Note_on_c, 12, 65, 84
14, 234120, Note_on_c, 12, 74, 84
14, 234171, Note_on_c, 12, 65, 0
14, 234171, Note_on_c, 12, 74, 0
14, 234180, Note_on_c, 12, 65, 84
14, 234180, Note_on_c, 12, 74, 84
14, 234231, Note_on_c, 12, 65, 0
14, 234231, Note_on_c, 12, 74, 0
14, 234240, Note_on_c, 12, 65, 84
14, 234240, Note_on_c, 12, 74, 84
14, 234291, Note_on_c, 12, 65, 0
14, 234291, Note_on_c, 12, 74, 0
14, 234300, Note_on_c, 12, 65, 84
14, 234300, Note_on_c, 12, 74, 84
14, 234351, Note_on_c, 12, 65, 0
14, 234351, Note_on_c, 12, 74, 0
14, 234360, Note_on_c, 12, 74, 84
14, 234360, Note_on_c, 12, 65, 84
14, 234411, Note_on_c, 12, 74, 0
14, 234411, Note_on_c, 12, 65, 0
14, 234420, Note_on_c, 12, 74, 84
14, 234420, Note_on_c, 12, 65, 84
14, 234471, Note_on_c, 12, 74, 0
14, 234471, Note_on_c, 12, 65, 0
14, 234480, Note_on_c, 12, 74, 84
14, 234480, Note_on_c, 12, 65, 84
14, 234531, Note_on_c, 12, 74, 0
14, 234531, Note_on_c, 12, 65, 0
14, 234540, Note_on_c, 12, 65, 84
14, 234540, Note_on_c, 12, 74, 84
14, 234591, Note_on_c, 12, 65, 0
14, 234591, Note_on_c, 12, 74, 0
14, 234600, Note_on_c, 12, 74, 84
14, 234600, Note_on_c, 12, 65, 84
14, 234651, Note_on_c, 12, 74, 0
14, 234651, Note_on_c, 12, 65, 0
14, 234660, Note_on_c, 12, 65, 84
14, 234660, Note_on_c, 12, 74, 84
14, 234711, Note_on_c, 12, 65, 0
14, 234711, Note_on_c, 12, 74, 0
14, 234720, Note_on_c, 12, 74, 84
14, 234720, Note_on_c, 12, 65, 84
14, 234771, Note_on_c, 12, 74, 0
14, 234771, Note_on_c, 12, 65, 0
14, 234780, Note_on_c, 12, 74, 84
14, 234780, Note_on_c, 12, 65, 84
14, 234831, Note_on_c, 12, 74, 0
14, 234831, Note_on_c, 12, 65, 0
14, 234840, Note_on_c, 12, 65, 84
14, 234840, Note_on_c, 12, 74, 84
14, 234891, Note_on_c, 12, 65, 0
14, 234891, Note_on_c, 12, 74, 0
14, 234900, Note_on_c, 12, 65, 84
14, 234900, Note_on_c, 12, 74, 84
14, 234951, Note_on_c, 12, 65, 0
14, 234951, Note_on_c, 12, 74, 0
14, 234960, Note_on_c, 12, 74, 84
14, 234960, Note_on_c, 12, 65, 84
14, 235011, Note_on_c, 12, 74, 0
14, 235011, Note_on_c, 12, 65, 0
14, 235020, Note_on_c, 12, 74, 84
14, 235020, Note_on_c, 12, 65, 84
14, 235071, Note_on_c, 12, 74, 0
14, 235071, Note_on_c, 12, 65, 0
14, 235080, Note_on_c, 12, 74, 84
14, 235080, Note_on_c, 12, 65, 84
14, 235131, Note_on_c, 12, 74, 0
14, 235131, Note_on_c, 12, 65, 0
14, 235140, Note_on_c, 12, 74, 84
14, 235140, Note_on_c, 12, 65, 84
14, 235191, Note_on_c, 12, 74, 0
14, 235191, Note_on_c, 12, 65, 0
14, 235200, Note_on_c, 12, 65, 84
14, 235200, Note_on_c, 12, 74, 84
14, 235251, Note_on_c, 12, 65, 0
14, 235251, Note_on_c, 12, 74, 0
14, 235260, Note_on_c, 12, 74, 84
14, 235260, Note_on_c, 12, 65, 84
14, 235311, Note_on_c, 12, 74, 0
14, 235311, Note_on_c, 12, 65, 0
14, 235320, Note_on_c, 12, 65, 84
14, 235320, Note_on_c, 12, 74, 84
14, 235371, Note_on_c, 12, 65, 0
14, 235371, Note_on_c, 12, 74, 0
14, 235380, Note_on_c, 12, 74, 84
14, 235380, Note_on_c, 12, 65, 84
14, 235431, Note_on_c, 12, 74, 0
14, 235431, Note_on_c, 12, 65, 0
14, 235440, Note_on_c, 12, 65, 84
14, 235440, Note_on_c, 12, 74, 84
14, 235491, Note_on_c, 12, 65, 0
14, 235491, Note_on_c, 12, 74, 0
14, 235500, Note_on_c, 12, 74, 84
14, 235500, Note_on_c, 12, 65, 84
14, 235551, Note_on_c, 12, 74, 0
14, 235551, Note_on_c, 12, 65, 0
14, 235560, Note_on_c, 12, 74, 84
14, 235560, Note_on_c, 12, 65, 84
14, 235611, Note_on_c, 12, 74, 0
14, 235611, Note_on_c, 12, 65, 0
14, 235620, Note_on_c, 12, 65, 84
14, 235620, Note_on_c, 12, 74, 84
14, 235671, Note_on_c, 12, 65, 0
14, 235671, Note_on_c, 12, 74, 0
14, 235680, Note_on_c, 12, 74, 84
14, 235680, Note_on_c, 12, 65, 84
14, 235731, Note_on_c, 12, 74, 0
14, 235731, Note_on_c, 12, 65, 0
14, 235740, Note_on_c, 12, 65, 84
14, 235740, Note_on_c, 12, 74, 84
14, 235791, Note_on_c, 12, 65, 0
14, 235791, Note_on_c, 12, 74, 0
14, 235800, Note_on_c, 12, 74, 84
14, 235800, Note_on_c, 12, 65, 84
14, 235851, Note_on_c, 12, 74, 0
14, 235851, Note_on_c, 12, 65, 0
14, 235860, Note_on_c, 12, 74, 84
14, 235860, Note_on_c, 12, 65, 84
14, 235911, Note_on_c, 12, 74, 0
14, 235911, Note_on_c, 12, 65, 0
14, 235920, Note_on_c, 12, 74, 92
14, 235920, Note_on_c, 12, 65, 92
14, 235971, Note_on_c, 12, 74, 0
14, 235971, Note_on_c, 12, 65, 0
14, 235980, Note_on_c, 12, 74, 84
14, 235980, Note_on_c, 12, 65, 84
14, 236031, Note_on_c, 12, 74, 0
14, 236031, Note_on_c, 12, 65, 0
14, 236040, Note_on_c, 12, 74, 84
14, 236040, Note_on_c, 12, 65, 84
14, 236091, Note_on_c, 12, 74, 0
14, 236091, Note_on_c, 12, 65, 0
14, 236100, Note_on_c, 12, 65, 84
14, 236100, Note_on_c, 12, 74, 84
14, 236151, Note_on_c, 12, 65, 0
14, 236151, Note_on_c, 12, 74, 0
14, 236160, Note_on_c, 12, 65, 84
14, 236160, Note_on_c, 12, 74, 84
14, 236211, Note_on_c, 12, 65, 0
14, 236211, Note_on_c, 12, 74, 0
14, 236220, Note_on_c, 12, 74, 84
14, 236220, Note_on_c, 12, 65, 84
14, 236271, Note_on_c, 12, 74, 0
14, 236271, Note_on_c, 12, 65, 0
14, 236280, Note_on_c, 12, 74, 84
14, 236280, Note_on_c, 12, 65, 84
14, 236331, Note_on_c, 12, 74, 0
14, 236331, Note_on_c, 12, 65, 0
14, 236340, Note_on_c, 12, 65, 84
14, 236340, Note_on_c, 12, 74, 84
14, 236391, Note_on_c, 12, 65, 0
14, 236391, Note_on_c, 12, 74, 0
14, 236400, Note_on_c, 12, 65, 84
14, 236400, Note_on_c, 12, 74, 84
14, 236451, Note_on_c, 12, 65, 0
14, 236451, Note_on_c, 12, 74, 0
14, 236460, Note_on_c, 12, 74, 84
14, 236460, Note_on_c, 12, 65, 84
14, 236511, Note_on_c, 12, 74, 0
14, 236511, Note_on_c, 12, 65, 0
14, 236520, Note_on_c, 12, 65, 84
14, 236520, Note_on_c, 12, 74, 84
14, 236571, Note_on_c, 12, 65, 0
14, 236571, Note_on_c, 12, 74, 0
14, 236580, Note_on_c, 12, 74, 84
14, 236580, Note_on_c, 12, 65, 84
14, 236631, Note_on_c, 12, 74, 0
14, 236631, Note_on_c, 12, 65, 0
14, 236640, Note_on_c, 12, 65, 92
14, 236640, Note_on_c, 12, 74, 92
14, 236691, Note_on_c, 12, 65, 0
14, 236691, Note_on_c, 12, 74, 0
14, 236700, Note_on_c, 12, 74, 84
14, 236700, Note_on_c, 12, 65, 84
14, 236751, Note_on_c, 12, 74, 0
14, 236751, Note_on_c, 12, 65, 0
14, 236760, Note_on_c, 12, 65, 84
14, 236760, Note_on_c, 12, 74, 84
14, 236811, Note_on_c, 12, 65, 0
14, 236811, Note_on_c, 12, 74, 0
14, 236820, Note_on_c, 12, 74, 84
14, 236820, Note_on_c, 12, 65, 84
14, 236871, Note_on_c, 12, 74, 0
14, 236871, Note_on_c, 12, 65, 0
14, 236880, Note_on_c, 12, 74, 84
14, 236880, Note_on_c, 12, 65, 84
14, 236999, Note_on_c, 12, 74, 0
14, 236999, Note_on_c, 12, 65, 0
14, 237360, Note_on_c, 12, 74, 92
14, 237360, Note_on_c, 12, 65, 92
14, 237479, Note_on_c, 12, 74, 0
14, 237479, Note_on_c, 12, 65, 0
14, 237600, Note_on_c, 12, 65, 84
14, 237719, Note_on_c, 12, 65, 0
14, 238080, Note_on_c, 12, 65, 92
14, 238080, Note_on_c, 12, 74, 92
14, 238199, Note_on_c, 12, 65, 0
14, 238199, Note_on_c, 12, 74, 0
14, 238320, Note_on_c, 12, 65, 84
14, 238439, Note_on_c, 12, 65, 0
14, 239760, Note_on_c, 12, 58, 52
14, 239879, Note_on_c, 12, 58, 0
14, 240240, Note_on_c, 12, 58, 52
14, 240359, Note_on_c, 12, 58, 0
14, 240480, Note_on_c, 12, 58, 52
14, 240599, Note_on_c, 12, 58, 0
14, 240960, Note_on_c, 12, 58, 52
14, 241079, Note_on_c, 12, 58, 0
14, 241200, Note_on_c, 12, 60, 52
14, 241379, Note_on_c, 12, 60, 0
14, 242400, Program_c, 12, 45
14, 242640, Note_on_c, 12, 58, 44
14, 242640, Note_on_c, 12, 62, 44
14, 242879, Note_on_c, 12, 58, 0
14, 242879, Note_on_c, 12, 62, 0
14, 243360, Note_on_c, 12, 63, 44
14, 243360, Note_on_c, 12, 60, 44
14, 243599, Note_on_c, 12, 63, 0
14, 243599, Note_on_c, 12, 60, 0
14, 244080, Note_on_c, 12, 58, 44
14, 244080, Note_on_c, 12, 62, 44
14, 244319, Note_on_c, 12, 58, 0
14, 244319, Note_on_c, 12, 62, 0
14, 244800, Note_on_c, 12, 57, 44
14, 245039, Note_on_c, 12, 57, 0
14, 245280, Note_on_c, 12, 62, 44
14, 245280, Note_on_c, 12, 55, 44
14, 245519, Note_on_c, 12, 62, 0
14, 245519, Note_on_c, 12, 55, 0
14, 245520, Note_on_c, 12, 60, 44
14, 245759, Note_on_c, 12, 60, 0
14, 246000, Note_on_c, 12, 60, 44
14, 246239, Note_on_c, 12, 60, 0
14, 246240, Note_on_c, 12, 58, 44
14, 246479, Note_on_c, 12, 58, 0
14, 246720, Note_on_c, 12, 67, 44
14, 246720, Note_on_c, 12, 55, 44
14, 246959, Note_on_c, 12, 67, 0
14, 246959, Note_on_c, 12, 55, 0
14, 246960, Note_on_c, 12, 55, 44
14, 246960, Note_on_c, 12, 64, 44
14, 247199, Note_on_c, 12, 55, 0
14, 247199, Note_on_c, 12, 64, 0
14, 248160, Note_on_c, 12, 64, 44
14, 248160, Note_on_c, 12, 55, 44
14, 248399, Note_on_c, 12, 64, 0
14, 248399, Note_on_c, 12, 55, 0
14, 248400, Note_on_c, 12, 69, 44
14, 248639, Note_on_c, 12, 69, 0
14, 248640, Note_on_c, 12, 65, 44
14, 248879, Note_on_c, 12, 65, 0
14, 248880, Note_on_c, 12, 60, 44
14, 249119, Note_on_c, 12, 60, 0
14, 249120, Note_on_c, 12, 60, 44
14, 249359, Note_on_c, 12, 60, 0
14, 249360, Note_on_c, 12, 60, 44
14, 249599, Note_on_c, 12, 60, 0
14, 249600, Note_on_c, 12, 60, 44
14, 249839, Note_on_c, 12, 60, 0
14, 249840, Note_on_c, 12, 60, 44
14, 250079, Note_on_c, 12, 60, 0
14, 250080, Note_on_c, 12, 60, 44
14, 250319, Note_on_c, 12, 60, 0
14, 250320, Note_on_c, 12, 60, 44
14, 250559, Note_on_c, 12, 60, 0
14, 250560, Note_on_c, 12, 60, 44
14, 250799, Note_on_c, 12, 60, 0
14, 250800, Note_on_c, 12, 60, 44
14, 251039, Note_on_c, 12, 60, 0
14, 251040, Note_on_c, 12, 62, 44
14, 251279, Note_on_c, 12, 62, 0
14, 251280, Note_on_c, 12, 62, 44
14, 251519, Note_on_c, 12, 62, 0
14, 251520, Note_on_c, 12, 62, 44
14, 251759, Note_on_c, 12, 62, 0
14, 251760, Note_on_c, 12, 60, 44
14, 251999, Note_on_c, 12, 60, 0
14, 252000, Note_on_c, 12, 60, 44
14, 252239, Note_on_c, 12, 60, 0
14, 252240, Note_on_c, 12, 60, 44
14, 252479, Note_on_c, 12, 60, 0
14, 252480, Note_on_c, 12, 62, 44
14, 252719, Note_on_c, 12, 62, 0
14, 252720, Program_c, 12, 48
14, 253680, Note_on_c, 12, 56, 44
14, 253769, Note_on_c, 12, 56, 0
14, 253800, Note_on_c, 12, 59, 44
14, 253889, Note_on_c, 12, 59, 0
14, 253920, Note_on_c, 12, 62, 44
14, 254009, Note_on_c, 12, 62, 0
14, 254040, Note_on_c, 12, 65, 44
14, 254129, Note_on_c, 12, 65, 0
14, 254160, Note_on_c, 12, 68, 44
14, 254339, Note_on_c, 12, 68, 0
14, 254640, Note_on_c, 12, 65, 44
14, 254819, Note_on_c, 12, 65, 0
14, 254880, Note_on_c, 12, 62, 44
14, 255119, Note_on_c, 12, 62, 0
14, 256560, Note_on_c, 12, 56, 44
14, 256649, Note_on_c, 12, 56, 0
14, 256680, Note_on_c, 12, 59, 44
14, 256769, Note_on_c, 12, 59, 0
14, 256800, Note_on_c, 12, 62, 44
14, 256889, Note_on_c, 12, 62, 0
14, 256920, Note_on_c, 12, 65, 44
14, 257009, Note_on_c, 12, 65, 0
14, 257040, Note_on_c, 12, 68, 44
14, 257219, Note_on_c, 12, 68, 0
14, 257520, Note_on_c, 12, 65, 47
14, 257699, Note_on_c, 12, 65, 0
14, 257760, Note_on_c, 12, 62, 49
14, 257939, Note_on_c, 12, 62, 0
14, 258480, Note_on_c, 12, 70, 62
14, 258531, Note_on_c, 12, 70, 0
14, 258540, Note_on_c, 12, 58, 54
14, 258591, Note_on_c, 12, 58, 0
14, 258600, Note_on_c, 12, 58, 54
14, 258651, Note_on_c, 12, 58, 0
14, 258660, Note_on_c, 12, 58, 55
14, 258711, Note_on_c, 12, 58, 0
14, 258720, Note_on_c, 12, 58, 55
14, 258771, Note_on_c, 12, 58, 0
14, 258780, Note_on_c, 12, 58, 56
14, 258831, Note_on_c, 12, 58, 0
14, 258840, Note_on_c, 12, 58, 56
14, 258891, Note_on_c, 12, 58, 0
14, 258900, Note_on_c, 12, 58, 56
14, 258951, Note_on_c, 12, 58, 0
14, 258960, Note_on_c, 12, 58, 57
14, 259011, Note_on_c, 12, 58, 0
14, 259020, Note_on_c, 12, 58, 57
14, 259071, Note_on_c, 12, 58, 0
14, 259080, Note_on_c, 12, 58, 58
14, 259131, Note_on_c, 12, 58, 0
14, 259140, Note_on_c, 12, 58, 58
14, 259191, Note_on_c, 12, 58, 0
14, 259200, Note_on_c, 12, 58, 67
14, 259251, Note_on_c, 12, 58, 0
14, 259260, Note_on_c, 12, 58, 59
14, 259311, Note_on_c, 12, 58, 0
14, 259320, Note_on_c, 12, 58, 59
14, 259371, Note_on_c, 12, 58, 0
14, 259380, Note_on_c, 12, 58, 60
14, 259431, Note_on_c, 12, 58, 0
14, 259440, Note_on_c, 12, 58, 60
14, 259491, Note_on_c, 12, 58, 0
14, 259500, Note_on_c, 12, 58, 61
14, 259551, Note_on_c, 12, 58, 0
14, 259560, Note_on_c, 12, 58, 61
14, 259611, Note_on_c, 12, 58, 0
14, 259620, Note_on_c, 12, 58, 61
14, 259671, Note_on_c, 12, 58, 0
14, 259680, Note_on_c, 12, 58, 62
14, 259731, Note_on_c, 12, 58, 0
14, 259740, Note_on_c, 12, 58, 62
14, 259791, Note_on_c, 12, 58, 0
14, 259800, Note_on_c, 12, 58, 63
14, 259851, Note_on_c, 12, 58, 0
14, 259860, Note_on_c, 12, 58, 63
14, 259911, Note_on_c, 12, 58, 0
14, 259920, Note_on_c, 12, 60, 72
14, 259971, Note_on_c, 12, 60, 0
14, 259980, Note_on_c, 12, 60, 64
14, 260031, Note_on_c, 12, 60, 0
14, 260040, Note_on_c, 12, 60, 64
14, 260091, Note_on_c, 12, 60, 0
14, 260100, Note_on_c, 12, 60, 65
14, 260151, Note_on_c, 12, 60, 0
14, 260160, Note_on_c, 12, 60, 65
14, 260211, Note_on_c, 12, 60, 0
14, 260220, Note_on_c, 12, 60, 66
14, 260271, Note_on_c, 12, 60, 0
14, 260280, Note_on_c, 12, 60, 66
14, 260331, Note_on_c, 12, 60, 0
14, 260340, Note_on_c, 12, 60, 66
14, 260391, Note_on_c, 12, 60, 0
14, 260400, Note_on_c, 12, 57, 67
14, 260451, Note_on_c, 12, 57, 0
14, 260460, Note_on_c, 12, 57, 67
14, 260511, Note_on_c, 12, 57, 0
14, 260520, Note_on_c, 12, 57, 68
14, 260571, Note_on_c, 12, 57, 0
14, 260580, Note_on_c, 12, 57, 68
14, 260631, Note_on_c, 12, 57, 0
14, 260640, Note_on_c, 12, 61, 77
14, 260691, Note_on_c, 12, 61, 0
14, 260700, Note_on_c, 12, 61, 69
14, 260751, Note_on_c, 12, 61, 0
14, 260760, Note_on_c, 12, 61, 69
14, 260811, Note_on_c, 12, 61, 0
14, 260820, Note_on_c, 12, 61, 70
14, 260871, Note_on_c, 12, 61, 0
14, 260880, Note_on_c, 12, 61, 70
14, 260931, Note_on_c, 12, 61, 0
14, 260940, Note_on_c, 12, 61, 71
14, 260991, Note_on_c, 12, 61, 0
14, 261000, Note_on_c, 12, 61, 71
14, 261051, Note_on_c, 12, 61, 0
14, 261060, Note_on_c, 12, 61, 71
14, 261111, Note_on_c, 12, 61, 0
14, 261120, Note_on_c, 12, 58, 72
14, 261171, Note_on_c, 12, 58, 0
14, 261180, Note_on_c, 12, 58, 72
14, 261231, Note_on_c, 12, 58, 0
14, 261240, Note_on_c, 12, 58, 73
14, 261291, Note_on_c, 12, 58, 0
14, 261300, Note_on_c, 12, 58, 73
14, 261351, Note_on_c, 12, 58, 0
14, 261360, Note_on_c, 12, 59, 82
14, 261360, Note_on_c, 12, 62, 82
14, 261411, Note_on_c, 12, 59, 0
14, 261411, Note_on_c, 12, 62, 0
14, 261420, Note_on_c, 12, 59, 74
14, 261420, Note_on_c, 12, 62, 74
14, 261471, Note_on_c, 12, 59, 0
14, 261471, Note_on_c, 12, 62, 0
14, 261480, Note_on_c, 12, 59, 74
14, 261480, Note_on_c, 12, 62, 74
14, 261531, Note_on_c, 12, 59, 0
14, 261531, Note_on_c, 12, 62, 0
14, 261540, Note_on_c, 12, 62, 75
14, 261540, Note_on_c, 12, 59, 75
14, 261591, Note_on_c, 12, 62, 0
14, 261591, Note_on_c, 12, 59, 0
14, 261600, Note_on_c, 12, 62, 75
14, 261600, Note_on_c, 12, 59, 75
14, 261651, Note_on_c, 12, 62, 0
14, 261651, Note_on_c, 12, 59, 0
14, 261660, Note_on_c, 12, 62, 76
14, 261660, Note_on_c, 12, 59, 76
14, 261711, Note_on_c, 12, 62, 0
14, 261711, Note_on_c, 12, 59, 0
14, 261720, Note_on_c, 12, 62, 76
14, 261720, Note_on_c, 12, 59, 76
14, 261771, Note_on_c, 12, 62, 0
14, 261771, Note_on_c, 12, 59, 0
14, 261780, Note_on_c, 12, 62, 76
14, 261780, Note_on_c, 12, 59, 76
14, 261831, Note_on_c, 12, 62, 0
14, 261831, Note_on_c, 12, 59, 0
14, 261840, Note_on_c, 12, 59, 77
14, 261891, Note_on_c, 12, 59, 0
14, 261900, Note_on_c, 12, 59, 77
14, 261951, Note_on_c, 12, 59, 0
14, 261960, Note_on_c, 12, 59, 78
14, 262011, Note_on_c, 12, 59, 0
14, 262020, Note_on_c, 12, 59, 78
14, 262071, Note_on_c, 12, 59, 0
14, 262080, Note_on_c, 12, 64, 87
14, 262080, Note_on_c, 12, 60, 87
14, 262131, Note_on_c, 12, 64, 0
14, 262131, Note_on_c, 12, 60, 0
14, 262140, Note_on_c, 12, 60, 79
14, 262140, Note_on_c, 12, 64, 79
14, 262191, Note_on_c, 12, 60, 0
14, 262191, Note_on_c, 12, 64, 0
14, 262200, Note_on_c, 12, 60, 79
14, 262200, Note_on_c, 12, 64, 79
14, 262251, Note_on_c, 12, 60, 0
14, 262251, Note_on_c, 12, 64, 0
14, 262260, Note_on_c, 12, 60, 80
14, 262260, Note_on_c, 12, 64, 80
14, 262311, Note_on_c, 12, 60, 0
14, 262311, Note_on_c, 12, 64, 0
14, 262320, Note_on_c, 12, 64, 80
14, 262320, Note_on_c, 12, 60, 80
14, 262371, Note_on_c, 12, 64, 0
14, 262371, Note_on_c, 12, 60, 0
14, 262380, Note_on_c, 12, 64, 81
14, 262380, Note_on_c, 12, 60, 81
14, 262431, Note_on_c, 12, 64, 0
14, 262431, Note_on_c, 12, 60, 0
14, 262440, Note_on_c, 12, 64, 81
14, 262440, Note_on_c, 12, 60, 81
14, 262491, Note_on_c, 12, 64, 0
14, 262491, Note_on_c, 12, 60, 0
14, 262500, Note_on_c, 12, 60, 81
14, 262500, Note_on_c, 12, 64, 81
14, 262551, Note_on_c, 12, 60, 0
14, 262551, Note_on_c, 12, 64, 0
14, 262560, Note_on_c, 12, 60, 82
14, 262611, Note_on_c, 12, 60, 0
14, 262620, Note_on_c, 12, 60, 82
14, 262671, Note_on_c, 12, 60, 0
14, 262680, Note_on_c, 12, 60, 83
14, 262731, Note_on_c, 12, 60, 0
14, 262740, Note_on_c, 12, 60, 83
14, 262791, Note_on_c, 12, 60, 0
14, 262800, Note_on_c, 12, 67, 84
14, 262800, Note_on_c, 12, 60, 84
14, 262851, Note_on_c, 12, 67, 0
14, 262851, Note_on_c, 12, 60, 0
14, 262860, Note_on_c, 12, 60, 84
14, 262860, Note_on_c, 12, 67, 84
14, 262911, Note_on_c, 12, 60, 0
14, 262911, Note_on_c, 12, 67, 0
14, 262920, Note_on_c, 12, 60, 84
14, 262920, Note_on_c, 12, 67, 84
14, 262971, Note_on_c, 12, 60, 0
14, 262971, Note_on_c, 12, 67, 0
14, 262980, Note_on_c, 12, 67, 84
14, 262980, Note_on_c, 12, 60, 84
14, 263031, Note_on_c, 12, 67, 0
14, 263031, Note_on_c, 12, 60, 0
14, 263040, Note_on_c, 12, 67, 84
14, 263040, Note_on_c, 12, 60, 84
14, 263091, Note_on_c, 12, 67, 0
14, 263091, Note_on_c, 12, 60, 0
14, 263100, Note_on_c, 12, 67, 84
14, 263100, Note_on_c, 12, 60, 84
14, 263151, Note_on_c, 12, 67, 0
14, 263151, Note_on_c, 12, 60, 0
14, 263160, Note_on_c, 12, 60, 84
14, 263160, Note_on_c, 12, 67, 84
14, 263211, Note_on_c, 12, 60, 0
14, 263211, Note_on_c, 12, 67, 0
14, 263220, Note_on_c, 12, 67, 84
14, 263220, Note_on_c, 12, 60, 84
14, 263271, Note_on_c, 12, 67, 0
14, 263271, Note_on_c, 12, 60, 0
14, 263280, Note_on_c, 12, 60, 84
14, 263280, Note_on_c, 12, 67, 84
14, 263331, Note_on_c, 12, 60, 0
14, 263331, Note_on_c, 12, 67, 0
14, 263340, Note_on_c, 12, 60, 84
14, 263340, Note_on_c, 12, 67, 84
14, 263391, Note_on_c, 12, 60, 0
14, 263391, Note_on_c, 12, 67, 0
14, 263400, Note_on_c, 12, 60, 84
14, 263400, Note_on_c, 12, 67, 84
14, 263451, Note_on_c, 12, 60, 0
14, 263451, Note_on_c, 12, 67, 0
14, 263460, Note_on_c, 12, 60, 84
14, 263460, Note_on_c, 12, 67, 84
14, 263511, Note_on_c, 12, 60, 0
14, 263511, Note_on_c, 12, 67, 0
14, 263520, Note_on_c, 12, 69, 84
14, 263520, Note_on_c, 12, 60, 84
14, 263571, Note_on_c, 12, 69, 0
14, 263571, Note_on_c, 12, 60, 0
14, 263580, Note_on_c, 12, 60, 84
14, 263580, Note_on_c, 12, 69, 84
14, 263631, Note_on_c, 12, 60, 0
14, 263631, Note_on_c, 12, 69, 0
14, 263640, Note_on_c, 12, 69, 84
14, 263640, Note_on_c, 12, 60, 84
14, 263691, Note_on_c, 12, 69, 0
14, 263691, Note_on_c, 12, 60, 0
14, 263700, Note_on_c, 12, 69, 84
14, 263700, Note_on_c, 12, 60, 84
14, 263751, Note_on_c, 12, 69, 0
14, 263751, Note_on_c, 12, 60, 0
14, 263760, Note_on_c, 12, 60, 84
14, 263760, Note_on_c, 12, 69, 84
14, 263811, Note_on_c, 12, 60, 0
14, 263811, Note_on_c, 12, 69, 0
14, 263820, Note_on_c, 12, 60, 84
14, 263820, Note_on_c, 12, 69, 84
14, 263871, Note_on_c, 12, 60, 0
14, 263871, Note_on_c, 12, 69, 0
14, 263880, Note_on_c, 12, 69, 84
14, 263880, Note_on_c, 12, 60, 84
14, 263931, Note_on_c, 12, 69, 0
14, 263931, Note_on_c, 12, 60, 0
14, 263940, Note_on_c, 12, 69, 84
14, 263940, Note_on_c, 12, 60, 84
14, 263991, Note_on_c, 12, 69, 0
14, 263991, Note_on_c, 12, 60, 0
14, 264000, Note_on_c, 12, 74, 84
14, 264051, Note_on_c, 12, 74, 0
14, 264060, Note_on_c, 12, 74, 84
14, 264111, Note_on_c, 12, 74, 0
14, 264120, Note_on_c, 12, 74, 84
14, 264171, Note_on_c, 12, 74, 0
14, 264180, Note_on_c, 12, 74, 84
14, 264231, Note_on_c, 12, 74, 0
14, 264240, Note_on_c, 12, 70, 84
14, 264291, Note_on_c, 12, 70, 0
14, 264300, Note_on_c, 12, 70, 84
14, 264351, Note_on_c, 12, 70, 0
14, 264360, Note_on_c, 12, 70, 84
14, 264411, Note_on_c, 12, 70, 0
14, 264420, Note_on_c, 12, 70, 84
14, 264471, Note_on_c, 12, 70, 0
14, 264480, Note_on_c, 12, 70, 84
14, 264531, Note_on_c, 12, 70, 0
14, 264540, Note_on_c, 12, 70, 84
14, 264591, Note_on_c, 12, 70, 0
14, 264600, Note_on_c, 12, 70, 84
14, 264651, Note_on_c, 12, 70, 0
14, 264660, Note_on_c, 12, 70, 84
14, 264711, Note_on_c, 12, 70, 0
14, 264720, Note_on_c, 12, 67, 84
14, 264771, Note_on_c, 12, 67, 0
14, 264780, Note_on_c, 12, 67, 84
14, 264831, Note_on_c, 12, 67, 0
14, 264840, Note_on_c, 12, 67, 84
14, 264891, Note_on_c, 12, 67, 0
14, 264900, Note_on_c, 12, 67, 84
14, 264951, Note_on_c, 12, 67, 0
14, 264960, Note_on_c, 12, 72, 84
14, 265011, Note_on_c, 12, 72, 0
14, 265020, Note_on_c, 12, 72, 84
14, 265071, Note_on_c, 12, 72, 0
14, 265080, Note_on_c, 12, 72, 84
14, 265131, Note_on_c, 12, 72, 0
14, 265140, Note_on_c, 12, 72, 84
14, 265191, Note_on_c, 12, 72, 0
14, 265200, Note_on_c, 12, 72, 84
14, 265251, Note_on_c, 12, 72, 0
14, 265260, Note_on_c, 12, 72, 84
14, 265311, Note_on_c, 12, 72, 0
14, 265320, Note_on_c, 12, 72, 84
14, 265371, Note_on_c, 12, 72, 0
14, 265380, Note_on_c, 12, 72, 84
14, 265431, Note_on_c, 12, 72, 0
14, 265440, Note_on_c, 12, 60, 84
14, 265491, Note_on_c, 12, 60, 0
14, 265500, Note_on_c, 12, 60, 84
14, 265551, Note_on_c, 12, 60, 0
14, 265560, Note_on_c, 12, 60, 84
14, 265611, Note_on_c, 12, 60, 0
14, 265620, Note_on_c, 12, 60, 84
14, 265671, Note_on_c, 12, 60, 0
14, 265680, Note_on_c, 12, 72, 84
14, 265851, Note_on_c, 12, 72, 0
14, 265860, Note_on_c, 12, 72, 84
14, 265911, Note_on_c, 12, 72, 0
14, 265920, Note_on_c, 12, 73, 84
14, 266099, Note_on_c, 12, 73, 0
14, 266160, Note_on_c, 12, 73, 84
14, 266331, Note_on_c, 12, 73, 0
14, 266340, Note_on_c, 12, 73, 84
14, 266391, Note_on_c, 12, 73, 0
14, 266400, Note_on_c, 12, 72, 84
14, 266579, Note_on_c, 12, 72, 0
14, 266640, Note_on_c, 12, 74, 84
14, 266811, Note_on_c, 12, 74, 0
14, 266820, Note_on_c, 12, 76, 84
14, 266871, Note_on_c, 12, 76, 0
14, 266880, Note_on_c, 12, 77, 84
14, 267059, Note_on_c, 12, 77, 0
14, 267120, Note_on_c, 12, 74, 84
14, 267291, Note_on_c, 12, 74, 0
14, 267300, Note_on_c, 12, 76, 84
14, 267351, Note_on_c, 12, 76, 0
14, 267360, Note_on_c, 12, 77, 84
14, 267539, Note_on_c, 12, 77, 0
14, 268320, Note_on_c, 12, 69, 52
14, 268559, Note_on_c, 12, 69, 0
14, 268560, Note_on_c, 12, 67, 52
14, 268799, Note_on_c, 12, 67, 0
14, 268800, Note_on_c, 12, 64, 52
14, 269039, Note_on_c, 12, 64, 0
14, 269040, Note_on_c, 12, 65, 52
14, 269279, Note_on_c, 12, 65, 0
14, 269520, Note_on_c, 12, 67, 52
14, 269759, Note_on_c, 12, 67, 0
14, 269760, Note_on_c, 12, 69, 52
14, 269999, Note_on_c, 12, 69, 0
14, 270120, Note_on_c, 12, 70, 52
14, 270239, Note_on_c, 12, 70, 0
14, 270240, Note_on_c, 12, 65, 52
14, 270359, Note_on_c, 12, 65, 0
14, 270360, Note_on_c, 12, 67, 52
14, 270479, Note_on_c, 12, 67, 0
14, 270480, Note_on_c, 12, 69, 52
14, 270599, Note_on_c, 12, 69, 0
14, 270600, Note_on_c, 12, 65, 52
14, 270719, Note_on_c, 12, 65, 0
14, 270840, Note_on_c, 12, 67, 52
14, 270959, Note_on_c, 12, 67, 0
14, 270960, Note_on_c, 12, 62, 52
14, 271079, Note_on_c, 12, 62, 0
14, 271080, Note_on_c, 12, 64, 52
14, 271199, Note_on_c, 12, 64, 0
14, 271200, Note_on_c, 12, 65, 52
14, 271319, Note_on_c, 12, 65, 0
14, 271320, Note_on_c, 12, 60, 52
14, 271439, Note_on_c, 12, 60, 0
14, 271560, Note_on_c, 12, 70, 52
14, 271679, Note_on_c, 12, 70, 0
14, 271680, Note_on_c, 12, 69, 52
14, 271799, Note_on_c, 12, 69, 0
14, 271800, Note_on_c, 12, 70, 52
14, 271919, Note_on_c, 12, 70, 0
14, 271920, Note_on_c, 12, 72, 52
14, 272039, Note_on_c, 12, 72, 0
14, 272040, Note_on_c, 12, 74, 52
14, 272159, Note_on_c, 12, 74, 0
14, 272280, Note_on_c, 12, 74, 52
14, 272399, Note_on_c, 12, 74, 0
14, 272400, Note_on_c, 12, 71, 52
14, 272519, Note_on_c, 12, 71, 0
14, 272520, Note_on_c, 12, 72, 52
14, 272639, Note_on_c, 12, 72, 0
14, 272640, Note_on_c, 12, 74, 52
14, 272759, Note_on_c, 12, 74, 0
14, 272760, Note_on_c, 12, 72, 52
14, 272864, Note_on_c, 12, 72, 0
14, 272880, Note_on_c, 12, 72, 84
14, 273051, Note_on_c, 12, 72, 0
14, 273060, Note_on_c, 12, 72, 84
14, 273111, Note_on_c, 12, 72, 0
14, 273120, Note_on_c, 12, 73, 84
14, 273299, Note_on_c, 12, 73, 0
14, 273360, Note_on_c, 12, 73, 84
14, 273531, Note_on_c, 12, 73, 0
14, 273540, Note_on_c, 12, 73, 84
14, 273591, Note_on_c, 12, 73, 0
14, 273600, Note_on_c, 12, 72, 84
14, 273779, Note_on_c, 12, 72, 0
14, 273840, Note_on_c, 12, 77, 84
14, 274011, Note_on_c, 12, 77, 0
14, 274020, Note_on_c, 12, 79, 84
14, 274071, Note_on_c, 12, 79, 0
14, 274080, Note_on_c, 12, 81, 84
14, 274259, Note_on_c, 12, 81, 0
14, 274320, Note_on_c, 12, 77, 84
14, 274491, Note_on_c, 12, 77, 0
14, 274500, Note_on_c, 12, 79, 84
14, 274551, Note_on_c, 12, 79, 0
14, 274560, Note_on_c, 12, 81, 84
14, 274739, Note_on_c, 12, 81, 0
14, 275880, Note_on_c, 12, 79, 52
14, 275999, Note_on_c, 12, 79, 0
14, 276000, Note_on_c, 12, 74, 52
14, 276119, Note_on_c, 12, 74, 0
14, 276120, Note_on_c, 12, 76, 52
14, 276239, Note_on_c, 12, 76, 0
14, 276240, Note_on_c, 12, 77, 52
14, 276359, Note_on_c, 12, 77, 0
14, 276360, Note_on_c, 12, 72, 52
14, 276479, Note_on_c, 12, 72, 0
14, 276600, Note_on_c, 12, 70, 52
14, 276719, Note_on_c, 12, 70, 0
14, 276720, Note_on_c, 12, 65, 52
14, 276839, Note_on_c, 12, 65, 0
14, 276840, Note_on_c, 12, 67, 52
14, 276959, Note_on_c, 12, 67, 0
14, 276960, Note_on_c, 12, 69, 52
14, 277079, Note_on_c, 12, 69, 0
14, 277080, Note_on_c, 12, 65, 52
14, 277199, Note_on_c, 12, 65, 0
14, 277440, Note_on_c, 12, 67, 52
14, 277679, Note_on_c, 12, 67, 0
14, 277680, Note_on_c, 12, 69, 52
14, 277919, Note_on_c, 12, 69, 0
14, 278160, Note_on_c, 12, 70, 52
14, 278399, Note_on_c, 12, 70, 0
14, 278400, Note_on_c, 12, 72, 52
14, 278639, Note_on_c, 12, 72, 0
14, 278760, Note_on_c, 12, 62, 52
14, 278879, Note_on_c, 12, 62, 0
14, 278880, Note_on_c, 12, 57, 52
14, 278999, Note_on_c, 12, 57, 0
14, 279000, Note_on_c, 12, 58, 52
14, 279119, Note_on_c, 12, 58, 0
14, 279120, Note_on_c, 12, 60, 52
14, 279239, Note_on_c, 12, 60, 0
14, 279240, Note_on_c, 12, 62, 52
14, 279359, Note_on_c, 12, 62, 0
14, 279360, Control_c, 12, 11, 80
14, 279480, Note_on_c, 12, 62, 76
14, 279599, Note_on_c, 12, 62, 0
14, 279600, Note_on_c, 12, 59, 76
14, 279719, Note_on_c, 12, 59, 0
14, 279720, Note_on_c, 12, 60, 76
14, 279839, Note_on_c, 12, 60, 0
14, 279840, Note_on_c, 12, 62, 76
14, 279959, Note_on_c, 12, 62, 0
14, 279960, Note_on_c, 12, 64, 76
14, 280064, Note_on_c, 12, 64, 0
14, 280080, Note_on_c, 12, 65, 76
14, 280304, Note_on_c, 12, 65, 0
14, 280320, Note_on_c, 12, 65, 76
14, 280420, Control_c, 12, 11, 84
14, 280520, Control_c, 12, 11, 88
14, 280620, Control_c, 12, 11, 92
14, 280679, Note_on_c, 12, 65, 0
14, 280680, Note_on_c, 12, 67, 76
14, 280720, Control_c, 12, 11, 96
14, 280784, Note_on_c, 12, 67, 0
14, 280800, Note_on_c, 12, 64, 76
14, 280820, Control_c, 12, 11, 100
14, 280920, Control_c, 12, 11, 104
14, 280979, Note_on_c, 12, 64, 0
14, 281020, Control_c, 12, 11, 107
14, 281040, Note_on_c, 12, 67, 76
14, 281120, Control_c, 12, 11, 111
14, 281220, Control_c, 12, 11, 115
14, 281320, Control_c, 12, 11, 119
14, 281399, Note_on_c, 12, 67, 0
14, 281400, Note_on_c, 12, 69, 76
14, 281420, Control_c, 12, 11, 123
14, 281504, Note_on_c, 12, 69, 0
14, 281520, Control_c, 12, 11, 127
14, 281520, Note_on_c, 12, 65, 76
14, 281571, Note_on_c, 12, 65, 0
14, 281580, Note_on_c, 12, 57, 76
14, 281631, Note_on_c, 12, 57, 0
14, 281640, Note_on_c, 12, 57, 76
14, 281691, Note_on_c, 12, 57, 0
14, 281700, Note_on_c, 12, 57, 76
14, 281751, Note_on_c, 12, 57, 0
14, 281760, Note_on_c, 12, 57, 84
14, 281811, Note_on_c, 12, 57, 0
14, 281820, Note_on_c, 12, 57, 76
14, 281871, Note_on_c, 12, 57, 0
14, 281880, Note_on_c, 12, 57, 76
14, 281931, Note_on_c, 12, 57, 0
14, 281940, Note_on_c, 12, 57, 76
14, 281991, Note_on_c, 12, 57, 0
14, 282000, Note_on_c, 12, 57, 76
14, 282051, Note_on_c, 12, 57, 0
14, 282060, Note_on_c, 12, 57, 76
14, 282111, Note_on_c, 12, 57, 0
14, 282120, Note_on_c, 12, 57, 76
14, 282171, Note_on_c, 12, 57, 0
14, 282180, Note_on_c, 12, 57, 76
14, 282231, Note_on_c, 12, 57, 0
14, 282240, Note_on_c, 12, 58, 84
14, 282291, Note_on_c, 12, 58, 0
14, 282300, Note_on_c, 12, 58, 76
14, 282351, Note_on_c, 12, 58, 0
14, 282360, Note_on_c, 12, 58, 76
14, 282411, Note_on_c, 12, 58, 0
14, 282420, Note_on_c, 12, 58, 76
14, 282471, Note_on_c, 12, 58, 0
14, 282480, Note_on_c, 12, 58, 76
14, 282531, Note_on_c, 12, 58, 0
14, 282540, Note_on_c, 12, 58, 76
14, 282591, Note_on_c, 12, 58, 0
14, 282600, Note_on_c, 12, 58, 76
14, 282651, Note_on_c, 12, 58, 0
14, 282660, Note_on_c, 12, 58, 76
14, 282711, Note_on_c, 12, 58, 0
14, 282720, Note_on_c, 12, 58, 76
14, 282771, Note_on_c, 12, 58, 0
14, 282780, Note_on_c, 12, 58, 76
14, 282831, Note_on_c, 12, 58, 0
14, 282840, Note_on_c, 12, 58, 76
14, 282891, Note_on_c, 12, 58, 0
14, 282900, Note_on_c, 12, 58, 76
14, 282951, Note_on_c, 12, 58, 0
14, 282960, Note_on_c, 12, 57, 84
14, 283011, Note_on_c, 12, 57, 0
14, 283020, Note_on_c, 12, 57, 76
14, 283071, Note_on_c, 12, 57, 0
14, 283080, Note_on_c, 12, 57, 76
14, 283131, Note_on_c, 12, 57, 0
14, 283140, Note_on_c, 12, 57, 76
14, 283191, Note_on_c, 12, 57, 0
14, 283200, Note_on_c, 12, 57, 76
14, 283251, Note_on_c, 12, 57, 0
14, 283260, Note_on_c, 12, 57, 76
14, 283311, Note_on_c, 12, 57, 0
14, 283320, Note_on_c, 12, 57, 76
14, 283371, Note_on_c, 12, 57, 0
14, 283380, Note_on_c, 12, 57, 76
14, 283431, Note_on_c, 12, 57, 0
14, 283440, Note_on_c, 12, 57, 76
14, 283491, Note_on_c, 12, 57, 0
14, 283500, Note_on_c, 12, 57, 76
14, 283551, Note_on_c, 12, 57, 0
14, 283560, Note_on_c, 12, 57, 76
14, 283611, Note_on_c, 12, 57, 0
14, 283620, Note_on_c, 12, 57, 76
14, 283671, Note_on_c, 12, 57, 0
14, 283680, Note_on_c, 12, 58, 84
14, 283731, Note_on_c, 12, 58, 0
14, 283740, Note_on_c, 12, 58, 76
14, 283791, Note_on_c, 12, 58, 0
14, 283800, Note_on_c, 12, 58, 76
14, 283851, Note_on_c, 12, 58, 0
14, 283860, Note_on_c, 12, 58, 76
14, 283911, Note_on_c, 12, 58, 0
14, 283920, Note_on_c, 12, 58, 76
14, 283971, Note_on_c, 12, 58, 0
14, 283980, Note_on_c, 12, 58, 76
14, 284031, Note_on_c, 12, 58, 0
14, 284040, Note_on_c, 12, 58, 76
14, 284091, Note_on_c, 12, 58, 0
14, 284100, Note_on_c, 12, 58, 76
14, 284151, Note_on_c, 12, 58, 0
14, 284160, Note_on_c, 12, 58, 76
14, 284211, Note_on_c, 12, 58, 0
14, 284220, Note_on_c, 12, 58, 76
14, 284271, Note_on_c, 12, 58, 0
14, 284280, Note_on_c, 12, 58, 76
14, 284331, Note_on_c, 12, 58, 0
14, 284340, Note_on_c, 12, 58, 76
14, 284391, Note_on_c, 12, 58, 0
14, 284400, Note_on_c, 12, 57, 84
14, 284451, Note_on_c, 12, 57, 0
14, 284460, Note_on_c, 12, 57, 84
14, 284511, Note_on_c, 12, 57, 0
14, 284520, Note_on_c, 12, 60, 84
14, 284571, Note_on_c, 12, 60, 0
14, 284580, Note_on_c, 12, 60, 84
14, 284631, Note_on_c, 12, 60, 0
14, 284640, Note_on_c, 12, 65, 84
14, 284691, Note_on_c, 12, 65, 0
14, 284700, Note_on_c, 12, 65, 84
14, 284751, Note_on_c, 12, 65, 0
14, 284760, Note_on_c, 12, 57, 84
14, 284811, Note_on_c, 12, 57, 0
14, 284820, Note_on_c, 12, 57, 84
14, 284871, Note_on_c, 12, 57, 0
14, 284880, Note_on_c, 12, 60, 84
14, 284931, Note_on_c, 12, 60, 0
14, 284940, Note_on_c, 12, 60, 84
14, 284991, Note_on_c, 12, 60, 0
14, 285000, Note_on_c, 12, 65, 84
14, 285051, Note_on_c, 12, 65, 0
14, 285060, Note_on_c, 12, 65, 84
14, 285111, Note_on_c, 12, 65, 0
14, 285120, Note_on_c, 12, 69, 84
14, 285171, Note_on_c, 12, 69, 0
14, 285180, Note_on_c, 12, 69, 84
14, 285231, Note_on_c, 12, 69, 0
14, 285240, Note_on_c, 12, 60, 84
14, 285291, Note_on_c, 12, 60, 0
14, 285300, Note_on_c, 12, 60, 84
14, 285351, Note_on_c, 12, 60, 0
14, 285360, Note_on_c, 12, 65, 84
14, 285411, Note_on_c, 12, 65, 0
14, 285420, Note_on_c, 12, 65, 84
14, 285471, Note_on_c, 12, 65, 0
14, 285480, Note_on_c, 12, 69, 84
14, 285531, Note_on_c, 12, 69, 0
14, 285540, Note_on_c, 12, 69, 84
14, 285591, Note_on_c, 12, 69, 0
14, 285600, Note_on_c, 12, 72, 84
14, 285651, Note_on_c, 12, 72, 0
14, 285660, Note_on_c, 12, 72, 84
14, 285711, Note_on_c, 12, 72, 0
14, 285720, Note_on_c, 12, 57, 84
14, 285771, Note_on_c, 12, 57, 0
14, 285780, Note_on_c, 12, 57, 84
14, 285831, Note_on_c, 12, 57, 0
14, 285840, Note_on_c, 12, 57, 84
14, 285891, Note_on_c, 12, 57, 0
14, 285900, Note_on_c, 12, 57, 84
14, 285951, Note_on_c, 12, 57, 0
14, 285960, Note_on_c, 12, 60, 84
14, 286011, Note_on_c, 12, 60, 0
14, 286020, Note_on_c, 12, 60, 84
14, 286071, Note_on_c, 12, 60, 0
14, 286080, Note_on_c, 12, 65, 84
14, 286131, Note_on_c, 12, 65, 0
14, 286140, Note_on_c, 12, 65, 84
14, 286191, Note_on_c, 12, 65, 0
14, 286200, Note_on_c, 12, 60, 84
14, 286251, Note_on_c, 12, 60, 0
14, 286260, Note_on_c, 12, 60, 84
14, 286311, Note_on_c, 12, 60, 0
14, 286320, Note_on_c, 12, 65, 84
14, 286371, Note_on_c, 12, 65, 0
14, 286380, Note_on_c, 12, 65, 84
14, 286431, Note_on_c, 12, 65, 0
14, 286440, Note_on_c, 12, 69, 84
14, 286491, Note_on_c, 12, 69, 0
14, 286500, Note_on_c, 12, 69, 84
14, 286551, Note_on_c, 12, 69, 0
14, 286560, Note_on_c, 12, 72, 84
14, 286611, Note_on_c, 12, 72, 0
14, 286620, Note_on_c, 12, 72, 84
14, 286671, Note_on_c, 12, 72, 0
14, 286680, Note_on_c, 12, 65, 84
14, 286731, Note_on_c, 12, 65, 0
14, 286740, Note_on_c, 12, 65, 84
14, 286791, Note_on_c, 12, 65, 0
14, 286800, Note_on_c, 12, 69, 84
14, 286851, Note_on_c, 12, 69, 0
14, 286860, Note_on_c, 12, 69, 84
14, 286911, Note_on_c, 12, 69, 0
14, 286920, Note_on_c, 12, 72, 84
14, 286971, Note_on_c, 12, 72, 0
14, 286980, Note_on_c, 12, 72, 84
14, 287031, Note_on_c, 12, 72, 0
14, 287040, Note_on_c, 12, 77, 84
14, 287091, Note_on_c, 12, 77, 0
14, 287100, Note_on_c, 12, 77, 84
14, 287151, Note_on_c, 12, 77, 0
14, 287160, Note_on_c, 12, 65, 84
14, 287211, Note_on_c, 12, 65, 0
14, 287220, Note_on_c, 12, 65, 84
14, 287271, Note_on_c, 12, 65, 0
14, 287280, Note_on_c, 12, 77, 92
14, 287519, Note_on_c, 12, 77, 0
14, 287640, Note_on_c, 12, 77, 84
14, 287729, Note_on_c, 12, 77, 0
14, 287760, Note_on_c, 12, 65, 84
14, 287849, Note_on_c, 12, 65, 0
14, 287880, Note_on_c, 12, 77, 84
14, 287969, Note_on_c, 12, 77, 0
14, 288000, Note_on_c, 12, 65, 92
14, 288239, Note_on_c, 12, 65, 0
14, 288360, Note_on_c, 12, 77, 84
14, 288449, Note_on_c, 12, 77, 0
14, 288480, Note_on_c, 12, 65, 84
14, 288569, Note_on_c, 12, 65, 0
14, 288600, Note_on_c, 12, 77, 84
14, 288689, Note_on_c, 12, 77, 0
14, 288720, Note_on_c, 12, 65, 92
14, 288959, Note_on_c, 12, 65, 0
14, 289080, Note_on_c, 12, 77, 84
14, 289169, Note_on_c, 12, 77, 0
14, 289200, Note_on_c, 12, 65, 84
14, 289289, Note_on_c, 12, 65, 0
14, 289320, Note_on_c, 12, 77, 84
14, 289409, Note_on_c, 12, 77, 0
14, 289440, Note_on_c, 12, 65, 92
14, 289679, Note_on_c, 12, 65, 0
14, 289800, Note_on_c, 12, 77, 84
14, 289889, Note_on_c, 12, 77, 0
14, 289920, Note_on_c, 12, 65, 84
14, 290009, Note_on_c, 12, 65, 0
14, 290040, Note_on_c, 12, 77, 84
14, 290129, Note_on_c, 12, 77, 0
14, 290160, Note_on_c, 12, 65, 84
14, 290399, Note_on_c, 12, 65, 0
14, 291600, Note_on_c, 12, 68, 52
14, 292319, Note_on_c, 12, 68, 0
14, 292320, Note_on_c, 12, 68, 52
14, 293039, Note_on_c, 12, 68, 0
14, 293040, Note_on_c, 12, 68, 44
14, 293759, Note_on_c, 12, 68, 0
14, 293760, Note_on_c, 12, 68, 44
14, 294464, Note_on_c, 12, 68, 0
14, 294480, Note_on_c, 12, 66, 44
14, 294480, Note_on_c, 12, 56, 44
14, 295199, Note_on_c, 12, 66, 0
14, 295199, Note_on_c, 12, 56, 0
14, 295200, Note_on_c, 12, 56, 44
14, 295200, Note_on_c, 12, 66, 44
14, 295904, Note_on_c, 12, 56, 0
14, 295904, Note_on_c, 12, 66, 0
14, 295920, Note_on_c, 12, 65, 44
14, 295920, Note_on_c, 12, 56, 44
14, 296639, Note_on_c, 12, 65, 0
14, 296639, Note_on_c, 12, 56, 0
14, 296640, Note_on_c, 12, 65, 44
14, 296640, Note_on_c, 12, 56, 44
14, 297599, Note_on_c, 12, 65, 0
14, 297599, Note_on_c, 12, 56, 0
14, 297840, Note_on_c, 12, 61, 44
14, 297929, Note_on_c, 12, 61, 0
14, 297960, Note_on_c, 12, 63, 44
14, 298049, Note_on_c, 12, 63, 0
14, 298080, Note_on_c, 12, 65, 44
14, 298169, Note_on_c, 12, 65, 0
14, 298200, Note_on_c, 12, 66, 44
14, 298289, Note_on_c, 12, 66, 0
14, 298320, Note_on_c, 12, 68, 44
14, 298499, Note_on_c, 12, 68, 0
14, 299280, Note_on_c, 12, 58, 44
14, 299369, Note_on_c, 12, 58, 0
14, 299400, Note_on_c, 12, 60, 44
14, 299489, Note_on_c, 12, 60, 0
14, 299520, Note_on_c, 12, 62, 44
14, 299609, Note_on_c, 12, 62, 0
14, 299640, Note_on_c, 12, 63, 44
14, 299729, Note_on_c, 12, 63, 0
14, 299760, Note_on_c, 12, 65, 44
14, 299939, Note_on_c, 12, 65, 0
14, 300720, Note_on_c, 12, 63, 44
14, 300809, Note_on_c, 12, 63, 0
14, 300840, Note_on_c, 12, 65, 44
14, 300929, Note_on_c, 12, 65, 0
14, 300960, Note_on_c, 12, 66, 44
14, 301049, Note_on_c, 12, 66, 0
14, 301080, Note_on_c, 12, 68, 44
14, 301169, Note_on_c, 12, 68, 0
14, 301200, Note_on_c, 12, 70, 44
14, 301379, Note_on_c, 12, 70, 0
14, 302160, Note_on_c, 12, 60, 48
14, 302249, Note_on_c, 12, 60, 0
14, 302280, Note_on_c, 12, 62, 49
14, 302369, Note_on_c, 12, 62, 0
14, 302400, Note_on_c, 12, 64, 50
14, 302489, Note_on_c, 12, 64, 0
14, 302520, Note_on_c, 12, 65, 51
14, 302609, Note_on_c, 12, 65, 0
14, 302640, Note_on_c, 12, 67, 52
14, 302819, Note_on_c, 12, 67, 0
14, 303600, Note_on_c, 12, 60, 61
14, 303689, Note_on_c, 12, 60, 0
14, 303720, Note_on_c, 12, 64, 62
14, 303809, Note_on_c, 12, 64, 0
14, 303840, Note_on_c, 12, 65, 64
14, 303929, Note_on_c, 12, 65, 0
14, 303960, Note_on_c, 12, 67, 65
14, 304049, Note_on_c, 12, 67, 0
14, 304080, Note_on_c, 12, 68, 66
14, 304259, Note_on_c, 12, 68, 0
14, 305040, Note_on_c, 12, 60, 75
14, 305129, Note_on_c, 12, 60, 0
14, 305160, Note_on_c, 12, 64, 76
14, 305249, Note_on_c, 12, 64, 0
14, 305280, Note_on_c, 12, 65, 77
14, 305369, Note_on_c, 12, 65, 0
14, 305400, Note_on_c, 12, 67, 78
14, 305489, Note_on_c, 12, 67, 0
14, 305520, Note_on_c, 12, 69, 79
14, 305699, Note_on_c, 12, 69, 0
14, 306000, Note_on_c, 12, 72, 84
14, 306051, Note_on_c, 12, 72, 0
14, 306060, Note_on_c, 12, 72, 84
14, 306111, Note_on_c, 12, 72, 0
14, 306120, Note_on_c, 12, 72, 84
14, 306171, Note_on_c, 12, 72, 0
14, 306180, Note_on_c, 12, 72, 84
14, 306231, Note_on_c, 12, 72, 0
14, 306240, Note_on_c, 12, 69, 84
14, 306291, Note_on_c, 12, 69, 0
14, 306300, Note_on_c, 12, 69, 84
14, 306351, Note_on_c, 12, 69, 0
14, 306360, Note_on_c, 12, 70, 84
14, 306411, Note_on_c, 12, 70, 0
14, 306420, Note_on_c, 12, 70, 84
14, 306471, Note_on_c, 12, 70, 0
14, 306480, Note_on_c, 12, 72, 84
14, 306531, Note_on_c, 12, 72, 0
14, 306540, Note_on_c, 12, 72, 84
14, 306591, Note_on_c, 12, 72, 0
14, 306600, Note_on_c, 12, 69, 84
14, 306651, Note_on_c, 12, 69, 0
14, 306660, Note_on_c, 12, 69, 84
14, 306711, Note_on_c, 12, 69, 0
14, 306720, Note_on_c, 12, 72, 92
14, 306771, Note_on_c, 12, 72, 0
14, 306780, Note_on_c, 12, 72, 84
14, 306831, Note_on_c, 12, 72, 0
14, 306840, Note_on_c, 12, 72, 84
14, 306891, Note_on_c, 12, 72, 0
14, 306900, Note_on_c, 12, 72, 84
14, 306951, Note_on_c, 12, 72, 0
14, 306960, Note_on_c, 12, 69, 84
14, 307011, Note_on_c, 12, 69, 0
14, 307020, Note_on_c, 12, 69, 84
14, 307071, Note_on_c, 12, 69, 0
14, 307080, Note_on_c, 12, 70, 84
14, 307131, Note_on_c, 12, 70, 0
14, 307140, Note_on_c, 12, 70, 84
14, 307191, Note_on_c, 12, 70, 0
14, 307200, Note_on_c, 12, 72, 84
14, 307251, Note_on_c, 12, 72, 0
14, 307260, Note_on_c, 12, 72, 84
14, 307311, Note_on_c, 12, 72, 0
14, 307320, Note_on_c, 12, 69, 84
14, 307371, Note_on_c, 12, 69, 0
14, 307380, Note_on_c, 12, 69, 84
14, 307431, Note_on_c, 12, 69, 0
14, 307440, Note_on_c, 12, 73, 92
14, 307491, Note_on_c, 12, 73, 0
14, 307500, Note_on_c, 12, 73, 84
14, 307551, Note_on_c, 12, 73, 0
14, 307560, Note_on_c, 12, 73, 84
14, 307611, Note_on_c, 12, 73, 0
14, 307620, Note_on_c, 12, 73, 84
14, 307671, Note_on_c, 12, 73, 0
14, 307680, Note_on_c, 12, 70, 84
14, 307731, Note_on_c, 12, 70, 0
14, 307740, Note_on_c, 12, 70, 84
14, 307791, Note_on_c, 12, 70, 0
14, 307800, Note_on_c, 12, 72, 84
14, 307851, Note_on_c, 12, 72, 0
14, 307860, Note_on_c, 12, 72, 84
14, 307911, Note_on_c, 12, 72, 0
14, 307920, Note_on_c, 12, 70, 84
14, 307971, Note_on_c, 12, 70, 0
14, 307980, Note_on_c, 12, 70, 84
14, 308031, Note_on_c, 12, 70, 0
14, 308040, Note_on_c, 12, 69, 84
14, 308091, Note_on_c, 12, 69, 0
14, 308100, Note_on_c, 12, 69, 84
14, 308151, Note_on_c, 12, 69, 0
14, 308160, Note_on_c, 12, 67, 92
14, 308211, Note_on_c, 12, 67, 0
14, 308220, Note_on_c, 12, 73, 84
14, 308271, Note_on_c, 12, 73, 0
14, 308280, Note_on_c, 12, 73, 84
14, 308331, Note_on_c, 12, 73, 0
14, 308340, Note_on_c, 12, 73, 84
14, 308391, Note_on_c, 12, 73, 0
14, 308400, Note_on_c, 12, 70, 84
14, 308451, Note_on_c, 12, 70, 0
14, 308460, Note_on_c, 12, 70, 84
14, 308511, Note_on_c, 12, 70, 0
14, 308520, Note_on_c, 12, 72, 84
14, 308571, Note_on_c, 12, 72, 0
14, 308580, Note_on_c, 12, 72, 84
14, 308631, Note_on_c, 12, 72, 0
14, 308640, Note_on_c, 12, 70, 84
14, 308691, Note_on_c, 12, 70, 0
14, 308700, Note_on_c, 12, 70, 84
14, 308751, Note_on_c, 12, 70, 0
14, 308760, Note_on_c, 12, 69, 84
14, 308811, Note_on_c, 12, 69, 0
14, 308820, Note_on_c, 12, 69, 84
14, 308871, Note_on_c, 12, 69, 0
14, 308880, Note_on_c, 12, 67, 92
14, 308931, Note_on_c, 12, 67, 0
14, 308940, Note_on_c, 12, 67, 84
14, 308991, Note_on_c, 12, 67, 0
14, 309000, Note_on_c, 12, 73, 84
14, 309051, Note_on_c, 12, 73, 0
14, 309060, Note_on_c, 12, 73, 84
14, 309111, Note_on_c, 12, 73, 0
14, 309120, Note_on_c, 12, 73, 84
14, 309171, Note_on_c, 12, 73, 0
14, 309180, Note_on_c, 12, 73, 84
14, 309231, Note_on_c, 12, 73, 0
14, 309240, Note_on_c, 12, 72, 84
14, 309291, Note_on_c, 12, 72, 0
14, 309300, Note_on_c, 12, 72, 84
14, 309351, Note_on_c, 12, 72, 0
14, 309360, Note_on_c, 12, 70, 84
14, 309411, Note_on_c, 12, 70, 0
14, 309420, Note_on_c, 12, 70, 84
14, 309471, Note_on_c, 12, 70, 0
14, 309480, Note_on_c, 12, 71, 84
14, 309531, Note_on_c, 12, 71, 0
14, 309540, Note_on_c, 12, 71, 84
14, 309591, Note_on_c, 12, 71, 0
14, 309600, Note_on_c, 12, 72, 92
14, 309651, Note_on_c, 12, 72, 0
14, 309660, Note_on_c, 12, 72, 84
14, 309711, Note_on_c, 12, 72, 0
14, 309720, Note_on_c, 12, 81, 84
14, 309771, Note_on_c, 12, 81, 0
14, 309780, Note_on_c, 12, 81, 84
14, 309831, Note_on_c, 12, 81, 0
14, 309840, Note_on_c, 12, 81, 84
14, 309891, Note_on_c, 12, 81, 0
14, 309900, Note_on_c, 12, 81, 84
14, 309951, Note_on_c, 12, 81, 0
14, 309960, Note_on_c, 12, 81, 84
14, 310011, Note_on_c, 12, 81, 0
14, 310020, Note_on_c, 12, 81, 84
14, 310071, Note_on_c, 12, 81, 0
14, 310080, Note_on_c, 12, 79, 84
14, 310131, Note_on_c, 12, 79, 0
14, 310140, Note_on_c, 12, 79, 84
14, 310191, Note_on_c, 12, 79, 0
14, 310200, Note_on_c, 12, 79, 84
14, 310251, Note_on_c, 12, 79, 0
14, 310260, Note_on_c, 12, 79, 84
14, 310311, Note_on_c, 12, 79, 0
14, 310320, Note_on_c, 12, 77, 92
14, 310371, Note_on_c, 12, 77, 0
14, 310380, Note_on_c, 12, 77, 84
14, 310431, Note_on_c, 12, 77, 0
14, 310440, Note_on_c, 12, 72, 84
14, 310491, Note_on_c, 12, 72, 0
14, 310500, Note_on_c, 12, 72, 84
14, 310551, Note_on_c, 12, 72, 0
14, 310560, Note_on_c, 12, 72, 84
14, 310611, Note_on_c, 12, 72, 0
14, 310620, Note_on_c, 12, 72, 84
14, 310671, Note_on_c, 12, 72, 0
14, 310680, Note_on_c, 12, 69, 84
14, 310731, Note_on_c, 12, 69, 0
14, 310740, Note_on_c, 12, 69, 84
14, 310791, Note_on_c, 12, 69, 0
14, 310800, Note_on_c, 12, 76, 84
14, 310851, Note_on_c, 12, 76, 0
14, 310860, Note_on_c, 12, 76, 84
14, 310911, Note_on_c, 12, 76, 0
14, 310920, Note_on_c, 12, 72, 84
14, 310971, Note_on_c, 12, 72, 0
14, 310980, Note_on_c, 12, 72, 84
14, 311031, Note_on_c, 12, 72, 0
14, 311040, Note_on_c, 12, 77, 92
14, 311091, Note_on_c, 12, 77, 0
14, 311100, Note_on_c, 12, 77, 84
14, 311151, Note_on_c, 12, 77, 0
14, 311160, Note_on_c, 12, 72, 84
14, 311211, Note_on_c, 12, 72, 0
14, 311220, Note_on_c, 12, 72, 84
14, 311271, Note_on_c, 12, 72, 0
14, 311280, Note_on_c, 12, 72, 84
14, 311331, Note_on_c, 12, 72, 0
14, 311340, Note_on_c, 12, 72, 84
14, 311391, Note_on_c, 12, 72, 0
14, 311400, Note_on_c, 12, 69, 84
14, 311451, Note_on_c, 12, 69, 0
14, 311460, Note_on_c, 12, 69, 84
14, 311511, Note_on_c, 12, 69, 0
14, 311520, Note_on_c, 12, 76, 84
14, 311571, Note_on_c, 12, 76, 0
14, 311580, Note_on_c, 12, 76, 84
14, 311631, Note_on_c, 12, 76, 0
14, 311640, Note_on_c, 12, 72, 84
14, 311691, Note_on_c, 12, 72, 0
14, 311700, Note_on_c, 12, 72, 84
14, 311751, Note_on_c, 12, 72, 0
14, 311760, Note_on_c, 12, 77, 92
14, 311811, Note_on_c, 12, 77, 0
14, 311820, Note_on_c, 12, 77, 84
14, 311871, Note_on_c, 12, 77, 0
14, 311880, Note_on_c, 12, 72, 84
14, 311931, Note_on_c, 12, 72, 0
14, 311940, Note_on_c, 12, 72, 84
14, 311991, Note_on_c, 12, 72, 0
14, 312000, Note_on_c, 12, 72, 84
14, 312051, Note_on_c, 12, 72, 0
14, 312060, Note_on_c, 12, 72, 84
14, 312111, Note_on_c, 12, 72, 0
14, 312120, Note_on_c, 12, 69, 84
14, 312171, Note_on_c, 12, 69, 0
14, 312180, Note_on_c, 12, 69, 84
14, 312231, Note_on_c, 12, 69, 0
14, 312240, Note_on_c, 12, 76, 84
14, 312291, Note_on_c, 12, 76, 0
14, 312300, Note_on_c, 12, 76, 84
14, 312351, Note_on_c, 12, 76, 0
14, 312360, Note_on_c, 12, 72, 84
14, 312411, Note_on_c, 12, 72, 0
14, 312420, Note_on_c, 12, 72, 84
14, 312471, Note_on_c, 12, 72, 0
14, 312480, Note_on_c, 12, 70, 76
14, 312480, Note_on_c, 12, 79, 76
14, 313184, Note_on_c, 12, 70, 0
14, 313184, Note_on_c, 12, 79, 0
14, 313200, Control_c, 12, 11, 80
14, 313320, Note_on_c, 12, 79, 76
14, 313439, Note_on_c, 12, 79, 0
14, 313440, Note_on_c, 12, 74, 76
14, 313559, Note_on_c, 12, 74, 0
14, 313560, Note_on_c, 12, 76, 76
14, 313679, Note_on_c, 12, 76, 0
14, 313680, Note_on_c, 12, 77, 76
14, 313799, Note_on_c, 12, 77, 0
14, 313800, Note_on_c, 12, 72, 76
14, 313904, Note_on_c, 12, 72, 0
14, 313920, Note_on_c, 12, 70, 76
14, 314384, Note_on_c, 12, 70, 0
14, 314400, Note_on_c, 12, 69, 76
14, 314759, Note_on_c, 12, 69, 0
14, 314760, Note_on_c, 12, 67, 76
14, 314879, Note_on_c, 12, 67, 0
14, 314880, Note_on_c, 12, 62, 76
14, 314999, Note_on_c, 12, 62, 0
14, 315000, Note_on_c, 12, 64, 76
14, 315119, Note_on_c, 12, 64, 0
14, 315120, Note_on_c, 12, 65, 76
14, 315239, Note_on_c, 12, 65, 0
14, 315240, Note_on_c, 12, 60, 76
14, 315344, Note_on_c, 12, 60, 0
14, 315360, Note_on_c, 12, 58, 76
14, 315839, Note_on_c, 12, 58, 0
14, 315840, Note_on_c, 12, 57, 76
14, 316064, Note_on_c, 12, 57, 0
14, 316080, Note_on_c, 12, 58, 76
14, 316080, Control_c, 12, 11, 80
14, 316320, Control_c, 12, 11, 84
14, 316559, Note_on_c, 12, 58, 0
14, 316560, Control_c, 12, 11, 88
14, 316560, Note_on_c, 12, 57, 76
14, 316784, Note_on_c, 12, 57, 0
14, 316800, Note_on_c, 12, 58, 76
14, 316800, Control_c, 12, 11, 92
14, 317040, Control_c, 12, 11, 96
14, 317279, Note_on_c, 12, 58, 0
14, 317280, Control_c, 12, 11, 100
14, 317280, Note_on_c, 12, 57, 76
14, 317504, Note_on_c, 12, 57, 0
14, 317520, Note_on_c, 12, 58, 76
14, 317520, Control_c, 12, 11, 104
14, 317760, Control_c, 12, 11, 107
14, 317999, Note_on_c, 12, 58, 0
14, 318000, Control_c, 12, 11, 111
14, 318000, Note_on_c, 12, 57, 76
14, 318224, Note_on_c, 12, 57, 0
14, 318240, Control_c, 12, 11, 115
14, 318240, Note_on_c, 12, 58, 76
14, 318480, Control_c, 12, 11, 119
14, 318719, Note_on_c, 12, 58, 0
14, 318720, Note_on_c, 12, 60, 76
14, 318720, Control_c, 12, 11, 123
14, 318944, Note_on_c, 12, 60, 0
14, 318960, Control_c, 12, 11, 127
14, 318960, Note_on_c, 12, 55, 76
14, 319011, Note_on_c, 12, 55, 0
14, 319020, Note_on_c, 12, 58, 76
14, 319071, Note_on_c, 12, 58, 0
14, 319080, Note_on_c, 12, 58, 76
14, 319131, Note_on_c, 12, 58, 0
14, 319140, Note_on_c, 12, 58, 76
14, 319191, Note_on_c, 12, 58, 0
14, 319200, Note_on_c, 12, 58, 76
14, 319251, Note_on_c, 12, 58, 0
14, 319260, Note_on_c, 12, 58, 76
14, 319311, Note_on_c, 12, 58, 0
14, 319320, Note_on_c, 12, 58, 76
14, 319371, Note_on_c, 12, 58, 0
14, 319380, Note_on_c, 12, 58, 76
14, 319431, Note_on_c, 12, 58, 0
14, 319440, Note_on_c, 12, 57, 84
14, 319491, Note_on_c, 12, 57, 0
14, 319500, Note_on_c, 12, 57, 76
14, 319551, Note_on_c, 12, 57, 0
14, 319560, Note_on_c, 12, 57, 76
14, 319611, Note_on_c, 12, 57, 0
14, 319620, Note_on_c, 12, 57, 76
14, 319671, Note_on_c, 12, 57, 0
14, 319680, Note_on_c, 12, 55, 76
14, 319731, Note_on_c, 12, 55, 0
14, 319740, Note_on_c, 12, 58, 76
14, 319791, Note_on_c, 12, 58, 0
14, 319800, Note_on_c, 12, 58, 76
14, 319851, Note_on_c, 12, 58, 0
14, 319860, Note_on_c, 12, 58, 76
14, 319911, Note_on_c, 12, 58, 0
14, 319920, Note_on_c, 12, 58, 76
14, 319971, Note_on_c, 12, 58, 0
14, 319980, Note_on_c, 12, 58, 76
14, 320031, Note_on_c, 12, 58, 0
14, 320040, Note_on_c, 12, 58, 76
14, 320091, Note_on_c, 12, 58, 0
14, 320100, Note_on_c, 12, 58, 76
14, 320151, Note_on_c, 12, 58, 0
14, 320160, Note_on_c, 12, 57, 84
14, 320211, Note_on_c, 12, 57, 0
14, 320220, Note_on_c, 12, 57, 76
14, 320271, Note_on_c, 12, 57, 0
14, 320280, Note_on_c, 12, 57, 76
14, 320331, Note_on_c, 12, 57, 0
14, 320340, Note_on_c, 12, 57, 76
14, 320391, Note_on_c, 12, 57, 0
14, 320400, Note_on_c, 12, 55, 76
14, 320451, Note_on_c, 12, 55, 0
14, 320460, Note_on_c, 12, 58, 76
14, 320511, Note_on_c, 12, 58, 0
14, 320520, Note_on_c, 12, 58, 76
14, 320571, Note_on_c, 12, 58, 0
14, 320580, Note_on_c, 12, 58, 76
14, 320631, Note_on_c, 12, 58, 0
14, 320640, Note_on_c, 12, 58, 76
14, 320691, Note_on_c, 12, 58, 0
14, 320700, Note_on_c, 12, 58, 76
14, 320751, Note_on_c, 12, 58, 0
14, 320760, Note_on_c, 12, 58, 76
14, 320811, Note_on_c, 12, 58, 0
14, 320820, Note_on_c, 12, 58, 76
14, 320871, Note_on_c, 12, 58, 0
14, 320880, Note_on_c, 12, 57, 84
14, 320931, Note_on_c, 12, 57, 0
14, 320940, Note_on_c, 12, 57, 76
14, 320991, Note_on_c, 12, 57, 0
14, 321000, Note_on_c, 12, 57, 76
14, 321051, Note_on_c, 12, 57, 0
14, 321060, Note_on_c, 12, 57, 76
14, 321111, Note_on_c, 12, 57, 0
14, 321120, Note_on_c, 12, 55, 76
14, 321171, Note_on_c, 12, 55, 0
14, 321180, Note_on_c, 12, 58, 76
14, 321231, Note_on_c, 12, 58, 0
14, 321240, Note_on_c, 12, 58, 76
14, 321291, Note_on_c, 12, 58, 0
14, 321300, Note_on_c, 12, 58, 76
14, 321351, Note_on_c, 12, 58, 0
14, 321360, Note_on_c, 12, 58, 76
14, 321411, Note_on_c, 12, 58, 0
14, 321420, Note_on_c, 12, 58, 76
14, 321471, Note_on_c, 12, 58, 0
14, 321480, Note_on_c, 12, 58, 76
14, 321531, Note_on_c, 12, 58, 0
14, 321540, Note_on_c, 12, 58, 76
14, 321591, Note_on_c, 12, 58, 0
14, 321600, Note_on_c, 12, 57, 84
14, 321651, Note_on_c, 12, 57, 0
14, 321660, Note_on_c, 12, 57, 76
14, 321711, Note_on_c, 12, 57, 0
14, 321720, Note_on_c, 12, 65, 76
14, 321771, Note_on_c, 12, 65, 0
14, 321780, Note_on_c, 12, 65, 76
14, 321831, Note_on_c, 12, 65, 0
14, 321840, Note_on_c, 12, 65, 76
14, 321891, Note_on_c, 12, 65, 0
14, 321900, Note_on_c, 12, 65, 76
14, 321951, Note_on_c, 12, 65, 0
14, 321960, Note_on_c, 12, 65, 76
14, 322011, Note_on_c, 12, 65, 0
14, 322020, Note_on_c, 12, 65, 76
14, 322071, Note_on_c, 12, 65, 0
14, 322080, Note_on_c, 12, 65, 76
14, 322131, Note_on_c, 12, 65, 0
14, 322140, Note_on_c, 12, 65, 76
14, 322191, Note_on_c, 12, 65, 0
14, 322200, Note_on_c, 12, 65, 76
14, 322251, Note_on_c, 12, 65, 0
14, 322260, Note_on_c, 12, 65, 76
14, 322311, Note_on_c, 12, 65, 0
14, 322320, Note_on_c, 12, 65, 84
14, 322371, Note_on_c, 12, 65, 0
14, 322380, Note_on_c, 12, 65, 76
14, 322431, Note_on_c, 12, 65, 0
14, 322440, Note_on_c, 12, 65, 76
14, 322491, Note_on_c, 12, 65, 0
14, 322500, Note_on_c, 12, 65, 76
14, 322551, Note_on_c, 12, 65, 0
14, 322560, Note_on_c, 12, 58, 76
14, 322611, Note_on_c, 12, 58, 0
14, 322620, Note_on_c, 12, 70, 76
14, 322671, Note_on_c, 12, 70, 0
14, 322680, Note_on_c, 12, 70, 76
14, 322731, Note_on_c, 12, 70, 0
14, 322740, Note_on_c, 12, 70, 76
14, 322791, Note_on_c, 12, 70, 0
14, 322800, Note_on_c, 12, 70, 76
14, 322851, Note_on_c, 12, 70, 0
14, 322860, Note_on_c, 12, 70, 76
14, 322911, Note_on_c, 12, 70, 0
14, 322920, Note_on_c, 12, 70, 76
14, 322971, Note_on_c, 12, 70, 0
14, 322980, Note_on_c, 12, 70, 76
14, 323031, Note_on_c, 12, 70, 0
14, 323040, Note_on_c, 12, 67, 84
14, 323091, Note_on_c, 12, 67, 0
14, 323100, Note_on_c, 12, 67, 76
14, 323151, Note_on_c, 12, 67, 0
14, 323160, Note_on_c, 12, 60, 76
14, 323211, Note_on_c, 12, 60, 0
14, 323220, Note_on_c, 12, 60, 76
14, 323271, Note_on_c, 12, 60, 0
14, 323280, Note_on_c, 12, 60, 76
14, 323331, Note_on_c, 12, 60, 0
14, 323340, Note_on_c, 12, 69, 76
14, 323391, Note_on_c, 12, 69, 0
14, 323400, Note_on_c, 12, 60, 76
14, 323451, Note_on_c, 12, 60, 0
14, 323460, Note_on_c, 12, 60, 76
14, 323511, Note_on_c, 12, 60, 0
14, 323520, Note_on_c, 12, 60, 76
14, 323571, Note_on_c, 12, 60, 0
14, 323580, Note_on_c, 12, 72, 76
14, 323631, Note_on_c, 12, 72, 0
14, 323640, Note_on_c, 12, 72, 76
14, 323691, Note_on_c, 12, 72, 0
14, 323700, Note_on_c, 12, 72, 76
14, 323751, Note_on_c, 12, 72, 0
14, 323760, Note_on_c, 12, 72, 84
14, 323811, Note_on_c, 12, 72, 0
14, 323820, Note_on_c, 12, 72, 76
14, 323871, Note_on_c, 12, 72, 0
14, 323880, Note_on_c, 12, 72, 76
14, 323931, Note_on_c, 12, 72, 0
14, 323940, Note_on_c, 12, 72, 76
14, 323991, Note_on_c, 12, 72, 0
14, 324000, Note_on_c, 12, 72, 76
14, 324051, Note_on_c, 12, 72, 0
14, 324060, Note_on_c, 12, 69, 76
14, 324060, Note_on_c, 12, 77, 76
14, 324111, Note_on_c, 12, 69, 0
14, 324111, Note_on_c, 12, 77, 0
14, 324120, Note_on_c, 12, 77, 76
14, 324120, Note_on_c, 12, 69, 76
14, 324171, Note_on_c, 12, 77, 0
14, 324171, Note_on_c, 12, 69, 0
14, 324180, Note_on_c, 12, 69, 76
14, 324180, Note_on_c, 12, 77, 76
14, 324231, Note_on_c, 12, 69, 0
14, 324231, Note_on_c, 12, 77, 0
14, 324240, Note_on_c, 12, 69, 76
14, 324240, Note_on_c, 12, 77, 76
14, 324291, Note_on_c, 12, 69, 0
14, 324291, Note_on_c, 12, 77, 0
14, 324300, Note_on_c, 12, 69, 76
14, 324300, Note_on_c, 12, 77, 76
14, 324351, Note_on_c, 12, 69, 0
14, 324351, Note_on_c, 12, 77, 0
14, 324360, Note_on_c, 12, 69, 76
14, 324360, Note_on_c, 12, 77, 76
14, 324411, Note_on_c, 12, 69, 0
14, 324411, Note_on_c, 12, 77, 0
14, 324420, Note_on_c, 12, 69, 76
14, 324420, Note_on_c, 12, 77, 76
14, 324471, Note_on_c, 12, 69, 0
14, 324471, Note_on_c, 12, 77, 0
14, 324480, Note_on_c, 12, 70, 84
14, 324480, Note_on_c, 12, 77, 84
14, 324531, Note_on_c, 12, 70, 0
14, 324531, Note_on_c, 12, 77, 0
14, 324540, Note_on_c, 12, 70, 76
14, 324540, Note_on_c, 12, 77, 76
14, 324591, Note_on_c, 12, 70, 0
14, 324591, Note_on_c, 12, 77, 0
14, 324600, Note_on_c, 12, 77, 76
14, 324600, Note_on_c, 12, 70, 76
14, 324651, Note_on_c, 12, 77, 0
14, 324651, Note_on_c, 12, 70, 0
14, 324660, Note_on_c, 12, 77, 76
14, 324660, Note_on_c, 12, 70, 76
14, 324711, Note_on_c, 12, 77, 0
14, 324711, Note_on_c, 12, 70, 0
14, 324720, Note_on_c, 12, 80, 92
14, 324720, Note_on_c, 12, 71, 92
14, 324771, Note_on_c, 12, 80, 0
14, 324771, Note_on_c, 12, 71, 0
14, 324780, Note_on_c, 12, 71, 92
14, 324780, Note_on_c, 12, 80, 92
14, 324831, Note_on_c, 12, 71, 0
14, 324831, Note_on_c, 12, 80, 0
14, 324840, Note_on_c, 12, 80, 92
14, 324840, Note_on_c, 12, 71, 92
14, 324891, Note_on_c, 12, 80, 0
14, 324891, Note_on_c, 12, 71, 0
14, 324900, Note_on_c, 12, 71, 92
14, 324900, Note_on_c, 12, 80, 92
14, 324951, Note_on_c, 12, 71, 0
14, 324951, Note_on_c, 12, 80, 0
14, 324960, Note_on_c, 12, 80, 92
14, 324960, Note_on_c, 12, 71, 92
14, 325011, Note_on_c, 12, 80, 0
14, 325011, Note_on_c, 12, 71, 0
14, 325020, Note_on_c, 12, 80, 92
14, 325020, Note_on_c, 12, 71, 92
14, 325071, Note_on_c, 12, 80, 0
14, 325071, Note_on_c, 12, 71, 0
14, 325080, Note_on_c, 12, 71, 92
14, 325080, Note_on_c, 12, 80, 92
14, 325131, Note_on_c, 12, 71, 0
14, 325131, Note_on_c, 12, 80, 0
14, 325140, Note_on_c, 12, 80, 92
14, 325140, Note_on_c, 12, 71, 92
14, 325191, Note_on_c, 12, 80, 0
14, 325191, Note_on_c, 12, 71, 0
14, 325200, Note_on_c, 12, 71, 92
14, 325200, Note_on_c, 12, 80, 92
14, 325251, Note_on_c, 12, 71, 0
14, 325251, Note_on_c, 12, 80, 0
14, 325260, Note_on_c, 12, 80, 92
14, 325260, Note_on_c, 12, 71, 92
14, 325311, Note_on_c, 12, 80, 0
14, 325311, Note_on_c, 12, 71, 0
14, 325320, Note_on_c, 12, 71, 92
14, 325320, Note_on_c, 12, 80, 92
14, 325371, Note_on_c, 12, 71, 0
14, 325371, Note_on_c, 12, 80, 0
14, 325380, Note_on_c, 12, 80, 92
14, 325380, Note_on_c, 12, 71, 92
14, 325431, Note_on_c, 12, 80, 0
14, 325431, Note_on_c, 12, 71, 0
14, 325440, Note_on_c, 12, 80, 92
14, 325440, Note_on_c, 12, 71, 92
14, 325491, Note_on_c, 12, 80, 0
14, 325491, Note_on_c, 12, 71, 0
14, 325500, Note_on_c, 12, 80, 92
14, 325500, Note_on_c, 12, 71, 92
14, 325551, Note_on_c, 12, 80, 0
14, 325551, Note_on_c, 12, 71, 0
14, 325560, Note_on_c, 12, 80, 92
14, 325560, Note_on_c, 12, 71, 92
14, 325611, Note_on_c, 12, 80, 0
14, 325611, Note_on_c, 12, 71, 0
14, 325620, Note_on_c, 12, 80, 92
14, 325620, Note_on_c, 12, 71, 92
14, 325671, Note_on_c, 12, 80, 0
14, 325671, Note_on_c, 12, 71, 0
14, 325680, Note_on_c, 12, 80, 92
14, 325680, Note_on_c, 12, 71, 92
14, 325731, Note_on_c, 12, 80, 0
14, 325731, Note_on_c, 12, 71, 0
14, 325740, Note_on_c, 12, 71, 92
14, 325740, Note_on_c, 12, 80, 92
14, 325791, Note_on_c, 12, 71, 0
14, 325791, Note_on_c, 12, 80, 0
14, 325800, Note_on_c, 12, 80, 92
14, 325800, Note_on_c, 12, 71, 92
14, 325851, Note_on_c, 12, 80, 0
14, 325851, Note_on_c, 12, 71, 0
14, 325860, Note_on_c, 12, 80, 92
14, 325860, Note_on_c, 12, 71, 92
14, 325911, Note_on_c, 12, 80, 0
14, 325911, Note_on_c, 12, 71, 0
14, 325920, Note_on_c, 12, 81, 92
14, 325920, Note_on_c, 12, 72, 92
14, 325971, Note_on_c, 12, 81, 0
14, 325971, Note_on_c, 12, 72, 0
14, 325980, Note_on_c, 12, 81, 92
14, 325980, Note_on_c, 12, 72, 92
14, 326031, Note_on_c, 12, 81, 0
14, 326031, Note_on_c, 12, 72, 0
14, 326040, Note_on_c, 12, 81, 92
14, 326040, Note_on_c, 12, 72, 92
14, 326091, Note_on_c, 12, 81, 0
14, 326091, Note_on_c, 12, 72, 0
14, 326100, Note_on_c, 12, 81, 92
14, 326100, Note_on_c, 12, 72, 92
14, 326151, Note_on_c, 12, 81, 0
14, 326151, Note_on_c, 12, 72, 0
14, 326160, Note_on_c, 12, 81, 92
14, 326160, Note_on_c, 12, 69, 92
14, 326211, Note_on_c, 12, 81, 0
14, 326211, Note_on_c, 12, 69, 0
14, 326220, Note_on_c, 12, 81, 92
14, 326220, Note_on_c, 12, 69, 92
14, 326271, Note_on_c, 12, 81, 0
14, 326271, Note_on_c, 12, 69, 0
14, 326280, Note_on_c, 12, 69, 92
14, 326280, Note_on_c, 12, 81, 92
14, 326331, Note_on_c, 12, 69, 0
14, 326331, Note_on_c, 12, 81, 0
14, 326340, Note_on_c, 12, 69, 92
14, 326340, Note_on_c, 12, 81, 92
14, 326391, Note_on_c, 12, 69, 0
14, 326391, Note_on_c, 12, 81, 0
14, 326400, Note_on_c, 12, 69, 92
14, 326451, Note_on_c, 12, 69, 0
14, 326460, Note_on_c, 12, 69, 92
14, 326511, Note_on_c, 12, 69, 0
14, 326520, Note_on_c, 12, 70, 92
14, 326571, Note_on_c, 12, 70, 0
14, 326580, Note_on_c, 12, 70, 92
14, 326631, Note_on_c, 12, 70, 0
14, 326640, Note_on_c, 12, 72, 92
14, 326691, Note_on_c, 12, 72, 0
14, 326700, Note_on_c, 12, 72, 92
14, 326751, Note_on_c, 12, 72, 0
14, 326760, Note_on_c, 12, 69, 92
14, 326811, Note_on_c, 12, 69, 0
14, 326820, Note_on_c, 12, 69, 92
14, 326871, Note_on_c, 12, 69, 0
14, 326880, Note_on_c, 12, 77, 92
14, 326880, Note_on_c, 12, 69, 92
14, 326931, Note_on_c, 12, 77, 0
14, 326931, Note_on_c, 12, 69, 0
14, 326940, Note_on_c, 12, 69, 92
14, 326940, Note_on_c, 12, 77, 92
14, 326991, Note_on_c, 12, 69, 0
14, 326991, Note_on_c, 12, 77, 0
14, 327000, Note_on_c, 12, 81, 92
14, 327051, Note_on_c, 12, 81, 0
14, 327060, Note_on_c, 12, 81, 92
14, 327111, Note_on_c, 12, 81, 0
14, 327120, Note_on_c, 12, 69, 92
14, 327171, Note_on_c, 12, 69, 0
14, 327180, Note_on_c, 12, 69, 92
14, 327231, Note_on_c, 12, 69, 0
14, 327240, Note_on_c, 12, 70, 92
14, 327291, Note_on_c, 12, 70, 0
14, 327300, Note_on_c, 12, 70, 92
14, 327351, Note_on_c, 12, 70, 0
14, 327360, Note_on_c, 12, 72, 92
14, 327411, Note_on_c, 12, 72, 0
14, 327420, Note_on_c, 12, 72, 92
14, 327471, Note_on_c, 12, 72, 0
14, 327480, Note_on_c, 12, 69, 92
14, 327531, Note_on_c, 12, 69, 0
14, 327540, Note_on_c, 12, 69, 92
14, 327591, Note_on_c, 12, 69, 0
14, 327600, Note_on_c, 12, 77, 92
14, 327600, Note_on_c, 12, 69, 92
14, 327651, Note_on_c, 12, 77, 0
14, 327651, Note_on_c, 12, 69, 0
14, 327660, Note_on_c, 12, 69, 92
14, 327660, Note_on_c, 12, 77, 92
14, 327711, Note_on_c, 12, 69, 0
14, 327711, Note_on_c, 12, 77, 0
14, 327720, Note_on_c, 12, 81, 92
14, 327771, Note_on_c, 12, 81, 0
14, 327780, Note_on_c, 12, 81, 92
14, 327831, Note_on_c, 12, 81, 0
14, 327840, Note_on_c, 12, 69, 92
14, 327891, Note_on_c, 12, 69, 0
14, 327900, Note_on_c, 12, 69, 92
14, 327951, Note_on_c, 12, 69, 0
14, 327960, Note_on_c, 12, 70, 92
14, 328011, Note_on_c, 12, 70, 0
14, 328020, Note_on_c, 12, 70, 92
14, 328071, Note_on_c, 12, 70, 0
14, 328080, Note_on_c, 12, 72, 92
14, 328131, Note_on_c, 12, 72, 0
14, 328140, Note_on_c, 12, 72, 92
14, 328191, Note_on_c, 12, 72, 0
14, 328200, Note_on_c, 12, 69, 92
14, 328251, Note_on_c, 12, 69, 0
14, 328260, Note_on_c, 12, 69, 92
14, 328311, Note_on_c, 12, 69, 0
14, 328320, Note_on_c, 12, 64, 92
14, 328320, Note_on_c, 12, 79, 92
14, 328320, Note_on_c, 12, 72, 92
14, 328439, Note_on_c, 12, 64, 0
14, 328439, Note_on_c, 12, 79, 0
14, 328439, Note_on_c, 12, 72, 0
14, 328560, Note_on_c, 12, 72, 92
14, 328560, Note_on_c, 12, 64, 92
14, 328560, Note_on_c, 12, 79, 92
14, 328679, Note_on_c, 12, 72, 0
14, 328679, Note_on_c, 12, 64, 0
14, 328679, Note_on_c, 12, 79, 0
14, 328800, Note_on_c, 12, 72, 92
14, 328800, Note_on_c, 12, 79, 92
14, 328800, Note_on_c, 12, 64, 92
14, 328919, Note_on_c, 12, 72, 0
14, 328919, Note_on_c, 12, 79, 0
14, 328919, Note_on_c, 12, 64, 0
14, 329040, Note_on_c, 12, 77, 92
14, 329040, Note_on_c, 12, 69, 92
14, 329091, Note_on_c, 12, 77, 0
14, 329091, Note_on_c, 12, 69, 0
14, 329100, Note_on_c, 12, 77, 92
14, 329100, Note_on_c, 12, 69, 92
14, 329151, Note_on_c, 12, 77, 0
14, 329151, Note_on_c, 12, 69, 0
14, 329160, Note_on_c, 12, 81, 92
14, 329211, Note_on_c, 12, 81, 0
14, 329220, Note_on_c, 12, 81, 92
14, 329271, Note_on_c, 12, 81, 0
14, 329280, Note_on_c, 12, 69, 92
14, 329331, Note_on_c, 12, 69, 0
14, 329340, Note_on_c, 12, 69, 92
14, 329391, Note_on_c, 12, 69, 0
14, 329400, Note_on_c, 12, 70, 92
14, 329451, Note_on_c, 12, 70, 0
14, 329460, Note_on_c, 12, 70, 92
14, 329511, Note_on_c, 12, 70, 0
14, 329520, Note_on_c, 12, 72, 92
14, 329571, Note_on_c, 12, 72, 0
14, 329580, Note_on_c, 12, 72, 92
14, 329631, Note_on_c, 12, 72, 0
14, 329640, Note_on_c, 12, 69, 92
14, 329691, Note_on_c, 12, 69, 0
14, 329700, Note_on_c, 12, 69, 92
14, 329751, Note_on_c, 12, 69, 0
14, 329760, Note_on_c, 12, 77, 92
14, 329760, Note_on_c, 12, 69, 92
14, 329811, Note_on_c, 12, 77, 0
14, 329811, Note_on_c, 12, 69, 0
14, 329820, Note_on_c, 12, 77, 92
14, 329820, Note_on_c, 12, 69, 92
14, 329871, Note_on_c, 12, 77, 0
14, 329871, Note_on_c, 12, 69, 0
14, 329880, Note_on_c, 12, 81, 92
14, 329931, Note_on_c, 12, 81, 0
14, 329940, Note_on_c, 12, 81, 92
14, 329991, Note_on_c, 12, 81, 0
14, 330000, Note_on_c, 12, 69, 92
14, 330051, Note_on_c, 12, 69, 0
14, 330060, Note_on_c, 12, 69, 92
14, 330111, Note_on_c, 12, 69, 0
14, 330120, Note_on_c, 12, 70, 92
14, 330171, Note_on_c, 12, 70, 0
14, 330180, Note_on_c, 12, 70, 92
14, 330231, Note_on_c, 12, 70, 0
14, 330240, Note_on_c, 12, 72, 92
14, 330291, Note_on_c, 12, 72, 0
14, 330300, Note_on_c, 12, 72, 92
14, 330351, Note_on_c, 12, 72, 0
14, 330360, Note_on_c, 12, 69, 92
14, 330411, Note_on_c, 12, 69, 0
14, 330420, Note_on_c, 12, 69, 92
14, 330471, Note_on_c, 12, 69, 0
14, 330480, Note_on_c, 12, 69, 92
14, 330480, Note_on_c, 12, 77, 92
14, 330531, Note_on_c, 12, 69, 0
14, 330531, Note_on_c, 12, 77, 0
14, 330540, Note_on_c, 12, 69, 92
14, 330540, Note_on_c, 12, 77, 92
14, 330591, Note_on_c, 12, 69, 0
14, 330591, Note_on_c, 12, 77, 0
14, 330600, Note_on_c, 12, 81, 92
14, 330651, Note_on_c, 12, 81, 0
14, 330660, Note_on_c, 12, 81, 92
14, 330711, Note_on_c, 12, 81, 0
14, 330720, Note_on_c, 12, 69, 92
14, 330771, Note_on_c, 12, 69, 0
14, 330780, Note_on_c, 12, 69, 92
14, 330831, Note_on_c, 12, 69, 0
14, 330840, Note_on_c, 12, 70, 92
14, 330891, Note_on_c, 12, 70, 0
14, 330900, Note_on_c, 12, 70, 92
14, 330951, Note_on_c, 12, 70, 0
14, 330960, Note_on_c, 12, 72, 92
14, 331011, Note_on_c, 12, 72, 0
14, 331020, Note_on_c, 12, 72, 92
14, 331071, Note_on_c, 12, 72, 0
14, 331080, Note_on_c, 12, 69, 92
14, 331131, Note_on_c, 12, 69, 0
14, 331140, Note_on_c, 12, 69, 92
14, 331191, Note_on_c, 12, 69, 0
14, 331200, Note_on_c, 12, 79, 92
14, 331200, Note_on_c, 12, 72, 92
14, 331200, Note_on_c, 12, 64, 92
14, 331319, Note_on_c, 12, 79, 0
14, 331319, Note_on_c, 12, 72, 0
14, 331319, Note_on_c, 12, 64, 0
14, 331440, Note_on_c, 12, 64, 92
14, 331440, Note_on_c, 12, 72, 92
14, 331440, Note_on_c, 12, 79, 92
14, 331559, Note_on_c, 12, 64, 0
14, 331559, Note_on_c, 12, 72, 0
14, 331559, Note_on_c, 12, 79, 0
14, 331680, Note_on_c, 12, 64, 92
14, 331680, Note_on_c, 12, 72, 92
14, 331680, Note_on_c, 12, 79, 92
14, 331799, Note_on_c, 12, 64, 0
14, 331799, Note_on_c, 12, 72, 0
14, 331799, Note_on_c, 12, 79, 0
14, 332640, Note_on_c, 12, 72, 92
14, 332640, Note_on_c, 12, 65, 92
14, 332640, Note_on_c, 12, 81, 92
14, 332759, Note_on_c, 12, 72, 0
14, 332759, Note_on_c, 12, 65, 0
14, 332759, Note_on_c, 12, 81, 0
14, 332880, Note_on_c, 12, 72, 92
14, 332880, Note_on_c, 12, 81, 92
14, 332880, Note_on_c, 12, 65, 92
14, 332999, Note_on_c, 12, 72, 0
14, 332999, Note_on_c, 12, 81, 0
14, 332999, Note_on_c, 12, 65, 0
14, 333120, Note_on_c, 12, 72, 92
14, 333120, Note_on_c, 12, 65, 92
14, 333120, Note_on_c, 12, 81, 92
14, 333239, Note_on_c, 12, 72, 0
14, 333239, Note_on_c, 12, 65, 0
14, 333239, Note_on_c, 12, 81, 0
14, 333840, Program_c, 12, 45
14, 334080, Note_on_c, 12, 58, 44
14, 334319, Note_on_c, 12, 58, 0
14, 334320, Note_on_c, 12, 58, 44
14, 334559, Note_on_c, 12, 58, 0
14, 334560, Note_on_c, 12, 58, 44
14, 334799, Note_on_c, 12, 58, 0
14, 335520, Note_on_c, 12, 57, 44
14, 335759, Note_on_c, 12, 57, 0
14, 335760, Note_on_c, 12, 57, 44
14, 335999, Note_on_c, 12, 57, 0
14, 336000, Note_on_c, 12, 57, 44
14, 336239, Note_on_c, 12, 57, 0
14, 336960, Control_c, 12, 11, 127
14, 336960, Note_on_c, 12, 57, 44
14, 337140, Control_c, 12, 11, 126
14, 337199, Note_on_c, 12, 57, 0
14, 337200, Note_on_c, 12, 57, 44
14, 337320, Control_c, 12, 11, 125
14, 337439, Note_on_c, 12, 57, 0
14, 337500, Control_c, 12, 11, 123
14, 337680, Control_c, 12, 11, 122
14, 337860, Control_c, 12, 11, 121
14, 338040, Control_c, 12, 11, 120
14, 338220, Control_c, 12, 11, 118
14, 338400, Note_on_c, 12, 57, 44
14, 338400, Control_c, 12, 11, 117
14, 338580, Control_c, 12, 11, 116
14, 338639, Note_on_c, 12, 57, 0
14, 338640, Note_on_c, 12, 57, 44
14, 338760, Control_c, 12, 11, 115
14, 338879, Note_on_c, 12, 57, 0
14, 338940, Control_c, 12, 11, 113
14, 341040, Program_c, 12, 48
14, 341040, Control_c, 12, 11, 127
14, 341280, Note_on_c, 12, 72, 44
14, 341519, Note_on_c, 12, 72, 0
14, 341520, Note_on_c, 12, 69, 44
14, 341639, Note_on_c, 12, 69, 0
14, 341640, Note_on_c, 12, 70, 44
14, 341744, Note_on_c, 12, 70, 0
14, 341760, Note_on_c, 12, 72, 44
14, 341849, Note_on_c, 12, 72, 0
14, 341880, Note_on_c, 12, 69, 44
14, 341969, Note_on_c, 12, 69, 0
14, 342000, Note_on_c, 12, 65, 44
14, 342239, Note_on_c, 12, 65, 0
14, 342239, End_track
15, 0, Start_track
15, 0, Title_t, "Viola "
15, 0, MIDI_port, 0
15, 0, Program_c, 13, 48
15, 0, Control_c, 13, 11, 127
15, 0, Control_c, 13, 10, 70
15, 0, Control_c, 13, 7, 96
15, 0, Note_on_c, 13, 53, 76
15, 719, Note_on_c, 13, 53, 0
15, 720, Note_on_c, 13, 53, 76
15, 1184, Note_on_c, 13, 53, 0
15, 1200, Note_on_c, 13, 57, 76
15, 1289, Note_on_c, 13, 57, 0
15, 1320, Note_on_c, 13, 57, 76
15, 1409, Note_on_c, 13, 57, 0
15, 1440, Note_on_c, 13, 58, 76
15, 1544, Note_on_c, 13, 58, 0
15, 1560, Note_on_c, 13, 70, 76
15, 1664, Note_on_c, 13, 70, 0
15, 1680, Note_on_c, 13, 58, 76
15, 1769, Note_on_c, 13, 58, 0
15, 1800, Note_on_c, 13, 57, 76
15, 1889, Note_on_c, 13, 57, 0
15, 1920, Note_on_c, 13, 55, 76
15, 2009, Note_on_c, 13, 55, 0
15, 2040, Note_on_c, 13, 53, 76
15, 2129, Note_on_c, 13, 53, 0
15, 2160, Note_on_c, 13, 52, 76
15, 2399, Note_on_c, 13, 52, 0
15, 5760, Note_on_c, 13, 60, 76
15, 5760, Note_on_c, 13, 48, 76
15, 6344, Note_on_c, 13, 60, 0
15, 6344, Note_on_c, 13, 48, 0
15, 6360, Note_on_c, 13, 50, 76
15, 6411, Note_on_c, 13, 50, 0
15, 6420, Note_on_c, 13, 50, 76
15, 6471, Note_on_c, 13, 50, 0
15, 6480, Note_on_c, 13, 51, 76
15, 6531, Note_on_c, 13, 51, 0
15, 6540, Note_on_c, 13, 51, 76
15, 6591, Note_on_c, 13, 51, 0
15, 6600, Note_on_c, 13, 52, 76
15, 6651, Note_on_c, 13, 52, 0
15, 6660, Note_on_c, 13, 52, 76
15, 6711, Note_on_c, 13, 52, 0
15, 6720, Note_on_c, 13, 53, 76
15, 6771, Note_on_c, 13, 53, 0
15, 6780, Note_on_c, 13, 53, 76
15, 6831, Note_on_c, 13, 53, 0
15, 6840, Note_on_c, 13, 55, 76
15, 6891, Note_on_c, 13, 55, 0
15, 6900, Note_on_c, 13, 55, 76
15, 6951, Note_on_c, 13, 55, 0
15, 6960, Note_on_c, 13, 57, 76
15, 7011, Note_on_c, 13, 57, 0
15, 7020, Note_on_c, 13, 57, 76
15, 7071, Note_on_c, 13, 57, 0
15, 7080, Note_on_c, 13, 58, 76
15, 7131, Note_on_c, 13, 58, 0
15, 7140, Note_on_c, 13, 58, 76
15, 7191, Note_on_c, 13, 58, 0
15, 7200, Note_on_c, 13, 60, 76
15, 7259, Note_on_c, 13, 60, 0
15, 7260, Note_on_c, 13, 65, 76
15, 7319, Note_on_c, 13, 65, 0
15, 7440, Note_on_c, 13, 57, 76
15, 7440, Note_on_c, 13, 48, 76
15, 7559, Note_on_c, 13, 57, 0
15, 7559, Note_on_c, 13, 48, 0
15, 7680, Note_on_c, 13, 48, 76
15, 7680, Note_on_c, 13, 58, 76
15, 7799, Note_on_c, 13, 48, 0
15, 7799, Note_on_c, 13, 58, 0
15, 7920, Note_on_c, 13, 57, 76
15, 7971, Note_on_c, 13, 57, 0
15, 7980, Note_on_c, 13, 57, 76
15, 8031, Note_on_c, 13, 57, 0
15, 8040, Note_on_c, 13, 60, 76
15, 8091, Note_on_c, 13, 60, 0
15, 8100, Note_on_c, 13, 60, 76
15, 8151, Note_on_c, 13, 60, 0
15, 8160, Note_on_c, 13, 57, 76
15, 8211, Note_on_c, 13, 57, 0
15, 8220, Note_on_c, 13, 57, 76
15, 8271, Note_on_c, 13, 57, 0
15, 8280, Note_on_c, 13, 60, 76
15, 8331, Note_on_c, 13, 60, 0
15, 8340, Note_on_c, 13, 60, 76
15, 8391, Note_on_c, 13, 60, 0
15, 8400, Note_on_c, 13, 57, 76
15, 8451, Note_on_c, 13, 57, 0
15, 8460, Note_on_c, 13, 57, 76
15, 8511, Note_on_c, 13, 57, 0
15, 8520, Note_on_c, 13, 60, 76
15, 8571, Note_on_c, 13, 60, 0
15, 8580, Note_on_c, 13, 60, 76
15, 8631, Note_on_c, 13, 60, 0
15, 8640, Note_on_c, 13, 57, 76
15, 8691, Note_on_c, 13, 57, 0
15, 8700, Note_on_c, 13, 57, 76
15, 8751, Note_on_c, 13, 57, 0
15, 8760, Note_on_c, 13, 60, 76
15, 8811, Note_on_c, 13, 60, 0
15, 8820, Note_on_c, 13, 60, 76
15, 8871, Note_on_c, 13, 60, 0
15, 8880, Note_on_c, 13, 57, 76
15, 8931, Note_on_c, 13, 57, 0
15, 8940, Note_on_c, 13, 57, 76
15, 8991, Note_on_c, 13, 57, 0
15, 9000, Note_on_c, 13, 60, 76
15, 9051, Note_on_c, 13, 60, 0
15, 9060, Note_on_c, 13, 60, 76
15, 9111, Note_on_c, 13, 60, 0
15, 9120, Note_on_c, 13, 57, 76
15, 9171, Note_on_c, 13, 57, 0
15, 9180, Note_on_c, 13, 57, 76
15, 9231, Note_on_c, 13, 57, 0
15, 9240, Note_on_c, 13, 60, 76
15, 9291, Note_on_c, 13, 60, 0
15, 9300, Note_on_c, 13, 60, 76
15, 9351, Note_on_c, 13, 60, 0
15, 9360, Note_on_c, 13, 58, 76
15, 9411, Note_on_c, 13, 58, 0
15, 9420, Note_on_c, 13, 58, 76
15, 9471, Note_on_c, 13, 58, 0
15, 9480, Note_on_c, 13, 62, 76
15, 9531, Note_on_c, 13, 62, 0
15, 9540, Note_on_c, 13, 62, 76
15, 9591, Note_on_c, 13, 62, 0
15, 9600, Note_on_c, 13, 58, 76
15, 9651, Note_on_c, 13, 58, 0
15, 9660, Note_on_c, 13, 58, 76
15, 9711, Note_on_c, 13, 58, 0
15, 9720, Note_on_c, 13, 62, 76
15, 9771, Note_on_c, 13, 62, 0
15, 9780, Note_on_c, 13, 62, 76
15, 9831, Note_on_c, 13, 62, 0
15, 9840, Note_on_c, 13, 58, 76
15, 9891, Note_on_c, 13, 58, 0
15, 9900, Note_on_c, 13, 58, 76
15, 9951, Note_on_c, 13, 58, 0
15, 9960, Note_on_c, 13, 62, 76
15, 10011, Note_on_c, 13, 62, 0
15, 10020, Note_on_c, 13, 62, 76
15, 10071, Note_on_c, 13, 62, 0
15, 10080, Note_on_c, 13, 58, 76
15, 10131, Note_on_c, 13, 58, 0
15, 10140, Note_on_c, 13, 58, 76
15, 10191, Note_on_c, 13, 58, 0
15, 10200, Note_on_c, 13, 62, 76
15, 10251, Note_on_c, 13, 62, 0
15, 10260, Note_on_c, 13, 62, 76
15, 10311, Note_on_c, 13, 62, 0
15, 10320, Note_on_c, 13, 58, 76
15, 10371, Note_on_c, 13, 58, 0
15, 10380, Note_on_c, 13, 58, 76
15, 10431, Note_on_c, 13, 58, 0
15, 10440, Note_on_c, 13, 62, 76
15, 10491, Note_on_c, 13, 62, 0
15, 10500, Note_on_c, 13, 62, 76
15, 10551, Note_on_c, 13, 62, 0
15, 10560, Note_on_c, 13, 58, 76
15, 10611, Note_on_c, 13, 58, 0
15, 10620, Note_on_c, 13, 58, 76
15, 10671, Note_on_c, 13, 58, 0
15, 10680, Note_on_c, 13, 62, 76
15, 10731, Note_on_c, 13, 62, 0
15, 10740, Note_on_c, 13, 62, 76
15, 10791, Note_on_c, 13, 62, 0
15, 10800, Note_on_c, 13, 55, 76
15, 10851, Note_on_c, 13, 55, 0
15, 10860, Note_on_c, 13, 55, 76
15, 10911, Note_on_c, 13, 55, 0
15, 10920, Note_on_c, 13, 62, 76
15, 10971, Note_on_c, 13, 62, 0
15, 10980, Note_on_c, 13, 62, 76
15, 11031, Note_on_c, 13, 62, 0
15, 11040, Note_on_c, 13, 55, 76
15, 11091, Note_on_c, 13, 55, 0
15, 11100, Note_on_c, 13, 55, 76
15, 11151, Note_on_c, 13, 55, 0
15, 11160, Note_on_c, 13, 62, 76
15, 11211, Note_on_c, 13, 62, 0
15, 11220, Note_on_c, 13, 62, 76
15, 11271, Note_on_c, 13, 62, 0
15, 11280, Note_on_c, 13, 55, 76
15, 11331, Note_on_c, 13, 55, 0
15, 11340, Note_on_c, 13, 55, 76
15, 11391, Note_on_c, 13, 55, 0
15, 11400, Note_on_c, 13, 62, 76
15, 11451, Note_on_c, 13, 62, 0
15, 11460, Note_on_c, 13, 62, 76
15, 11511, Note_on_c, 13, 62, 0
15, 11520, Note_on_c, 13, 55, 76
15, 11571, Note_on_c, 13, 55, 0
15, 11580, Note_on_c, 13, 55, 76
15, 11631, Note_on_c, 13, 55, 0
15, 11640, Note_on_c, 13, 62, 76
15, 11691, Note_on_c, 13, 62, 0
15, 11700, Note_on_c, 13, 62, 76
15, 11751, Note_on_c, 13, 62, 0
15, 11760, Note_on_c, 13, 55, 76
15, 11811, Note_on_c, 13, 55, 0
15, 11820, Note_on_c, 13, 55, 76
15, 11871, Note_on_c, 13, 55, 0
15, 11880, Note_on_c, 13, 62, 76
15, 11931, Note_on_c, 13, 62, 0
15, 11940, Note_on_c, 13, 62, 76
15, 11991, Note_on_c, 13, 62, 0
15, 12000, Note_on_c, 13, 55, 76
15, 12051, Note_on_c, 13, 55, 0
15, 12060, Note_on_c, 13, 55, 76
15, 12111, Note_on_c, 13, 55, 0
15, 12120, Note_on_c, 13, 62, 76
15, 12171, Note_on_c, 13, 62, 0
15, 12180, Note_on_c, 13, 62, 76
15, 12231, Note_on_c, 13, 62, 0
15, 12240, Note_on_c, 13, 64, 76
15, 12291, Note_on_c, 13, 64, 0
15, 12300, Note_on_c, 13, 64, 76
15, 12351, Note_on_c, 13, 64, 0
15, 12360, Note_on_c, 13, 60, 76
15, 12411, Note_on_c, 13, 60, 0
15, 12420, Note_on_c, 13, 60, 76
15, 12471, Note_on_c, 13, 60, 0
15, 12480, Note_on_c, 13, 55, 76
15, 12531, Note_on_c, 13, 55, 0
15, 12540, Note_on_c, 13, 55, 76
15, 12591, Note_on_c, 13, 55, 0
15, 12600, Note_on_c, 13, 60, 76
15, 12651, Note_on_c, 13, 60, 0
15, 12660, Note_on_c, 13, 60, 76
15, 12711, Note_on_c, 13, 60, 0
15, 12720, Note_on_c, 13, 55, 76
15, 12771, Note_on_c, 13, 55, 0
15, 12780, Note_on_c, 13, 55, 76
15, 12831, Note_on_c, 13, 55, 0
15, 12840, Note_on_c, 13, 52, 76
15, 12891, Note_on_c, 13, 52, 0
15, 12900, Note_on_c, 13, 52, 76
15, 12951, Note_on_c, 13, 52, 0
15, 12960, Note_on_c, 13, 58, 76
15, 13011, Note_on_c, 13, 58, 0
15, 13020, Note_on_c, 13, 58, 76
15, 13071, Note_on_c, 13, 58, 0
15, 13080, Note_on_c, 13, 55, 76
15, 13131, Note_on_c, 13, 55, 0
15, 13140, Note_on_c, 13, 55, 76
15, 13191, Note_on_c, 13, 55, 0
15, 13200, Note_on_c, 13, 52, 76
15, 13251, Note_on_c, 13, 52, 0
15, 13260, Note_on_c, 13, 52, 76
15, 13311, Note_on_c, 13, 52, 0
15, 13320, Note_on_c, 13, 55, 76
15, 13371, Note_on_c, 13, 55, 0
15, 13380, Note_on_c, 13, 55, 76
15, 13431, Note_on_c, 13, 55, 0
15, 13440, Note_on_c, 13, 58, 76
15, 13491, Note_on_c, 13, 58, 0
15, 13500, Note_on_c, 13, 58, 76
15, 13551, Note_on_c, 13, 58, 0
15, 13560, Note_on_c, 13, 55, 76
15, 13611, Note_on_c, 13, 55, 0
15, 13620, Note_on_c, 13, 55, 76
15, 13671, Note_on_c, 13, 55, 0
15, 13680, Note_on_c, 13, 57, 76
15, 13731, Note_on_c, 13, 57, 0
15, 13740, Note_on_c, 13, 57, 76
15, 13791, Note_on_c, 13, 57, 0
15, 13800, Note_on_c, 13, 60, 76
15, 13851, Note_on_c, 13, 60, 0
15, 13860, Note_on_c, 13, 60, 76
15, 13911, Note_on_c, 13, 60, 0
15, 13920, Note_on_c, 13, 57, 76
15, 13971, Note_on_c, 13, 57, 0
15, 13980, Note_on_c, 13, 57, 76
15, 14031, Note_on_c, 13, 57, 0
15, 14040, Note_on_c, 13, 60, 76
15, 14091, Note_on_c, 13, 60, 0
15, 14100, Note_on_c, 13, 60, 76
15, 14151, Note_on_c, 13, 60, 0
15, 14160, Note_on_c, 13, 57, 76
15, 14211, Note_on_c, 13, 57, 0
15, 14220, Note_on_c, 13, 57, 76
15, 14271, Note_on_c, 13, 57, 0
15, 14280, Note_on_c, 13, 60, 76
15, 14331, Note_on_c, 13, 60, 0
15, 14340, Note_on_c, 13, 60, 76
15, 14391, Note_on_c, 13, 60, 0
15, 14400, Note_on_c, 13, 57, 76
15, 14451, Note_on_c, 13, 57, 0
15, 14460, Note_on_c, 13, 57, 76
15, 14511, Note_on_c, 13, 57, 0
15, 14520, Note_on_c, 13, 60, 76
15, 14571, Note_on_c, 13, 60, 0
15, 14580, Note_on_c, 13, 60, 76
15, 14631, Note_on_c, 13, 60, 0
15, 14640, Note_on_c, 13, 57, 76
15, 14691, Note_on_c, 13, 57, 0
15, 14700, Note_on_c, 13, 57, 76
15, 14751, Note_on_c, 13, 57, 0
15, 14760, Note_on_c, 13, 60, 76
15, 14811, Note_on_c, 13, 60, 0
15, 14820, Note_on_c, 13, 60, 76
15, 14871, Note_on_c, 13, 60, 0
15, 14880, Note_on_c, 13, 57, 76
15, 14931, Note_on_c, 13, 57, 0
15, 14940, Note_on_c, 13, 57, 76
15, 14991, Note_on_c, 13, 57, 0
15, 15000, Note_on_c, 13, 60, 76
15, 15051, Note_on_c, 13, 60, 0
15, 15060, Note_on_c, 13, 60, 76
15, 15111, Note_on_c, 13, 60, 0
15, 15120, Note_on_c, 13, 58, 76
15, 15171, Note_on_c, 13, 58, 0
15, 15180, Note_on_c, 13, 58, 76
15, 15231, Note_on_c, 13, 58, 0
15, 15240, Note_on_c, 13, 62, 76
15, 15291, Note_on_c, 13, 62, 0
15, 15300, Note_on_c, 13, 62, 76
15, 15351, Note_on_c, 13, 62, 0
15, 15360, Note_on_c, 13, 58, 76
15, 15411, Note_on_c, 13, 58, 0
15, 15420, Note_on_c, 13, 58, 76
15, 15471, Note_on_c, 13, 58, 0
15, 15480, Note_on_c, 13, 62, 76
15, 15531, Note_on_c, 13, 62, 0
15, 15540, Note_on_c, 13, 62, 76
15, 15591, Note_on_c, 13, 62, 0
15, 15600, Note_on_c, 13, 58, 76
15, 15651, Note_on_c, 13, 58, 0
15, 15660, Note_on_c, 13, 58, 76
15, 15711, Note_on_c, 13, 58, 0
15, 15720, Note_on_c, 13, 62, 76
15, 15771, Note_on_c, 13, 62, 0
15, 15780, Note_on_c, 13, 62, 76
15, 15831, Note_on_c, 13, 62, 0
15, 15840, Note_on_c, 13, 58, 76
15, 15891, Note_on_c, 13, 58, 0
15, 15900, Note_on_c, 13, 58, 76
15, 15951, Note_on_c, 13, 58, 0
15, 15960, Note_on_c, 13, 62, 76
15, 16011, Note_on_c, 13, 62, 0
15, 16020, Note_on_c, 13, 62, 76
15, 16071, Note_on_c, 13, 62, 0
15, 16080, Note_on_c, 13, 58, 76
15, 16131, Note_on_c, 13, 58, 0
15, 16140, Note_on_c, 13, 58, 76
15, 16191, Note_on_c, 13, 58, 0
15, 16200, Note_on_c, 13, 62, 76
15, 16251, Note_on_c, 13, 62, 0
15, 16260, Note_on_c, 13, 62, 76
15, 16311, Note_on_c, 13, 62, 0
15, 16320, Note_on_c, 13, 58, 76
15, 16371, Note_on_c, 13, 58, 0
15, 16380, Note_on_c, 13, 58, 76
15, 16431, Note_on_c, 13, 58, 0
15, 16440, Note_on_c, 13, 62, 76
15, 16491, Note_on_c, 13, 62, 0
15, 16500, Note_on_c, 13, 62, 76
15, 16551, Note_on_c, 13, 62, 0
15, 16560, Note_on_c, 13, 56, 76
15, 16611, Note_on_c, 13, 56, 0
15, 16620, Note_on_c, 13, 56, 76
15, 16671, Note_on_c, 13, 56, 0
15, 16680, Note_on_c, 13, 62, 76
15, 16731, Note_on_c, 13, 62, 0
15, 16740, Note_on_c, 13, 62, 76
15, 16791, Note_on_c, 13, 62, 0
15, 16800, Note_on_c, 13, 56, 76
15, 16851, Note_on_c, 13, 56, 0
15, 16860, Note_on_c, 13, 56, 76
15, 16911, Note_on_c, 13, 56, 0
15, 16920, Note_on_c, 13, 62, 76
15, 16971, Note_on_c, 13, 62, 0
15, 16980, Note_on_c, 13, 62, 76
15, 17031, Note_on_c, 13, 62, 0
15, 17040, Note_on_c, 13, 56, 76
15, 17091, Note_on_c, 13, 56, 0
15, 17100, Note_on_c, 13, 56, 76
15, 17151, Note_on_c, 13, 56, 0
15, 17160, Note_on_c, 13, 62, 76
15, 17211, Note_on_c, 13, 62, 0
15, 17220, Note_on_c, 13, 62, 76
15, 17271, Note_on_c, 13, 62, 0
15, 17280, Note_on_c, 13, 56, 76
15, 17331, Note_on_c, 13, 56, 0
15, 17340, Note_on_c, 13, 56, 76
15, 17391, Note_on_c, 13, 56, 0
15, 17400, Note_on_c, 13, 62, 76
15, 17451, Note_on_c, 13, 62, 0
15, 17460, Note_on_c, 13, 62, 76
15, 17511, Note_on_c, 13, 62, 0
15, 17520, Note_on_c, 13, 56, 76
15, 17571, Note_on_c, 13, 56, 0
15, 17580, Note_on_c, 13, 56, 76
15, 17631, Note_on_c, 13, 56, 0
15, 17640, Note_on_c, 13, 62, 76
15, 17691, Note_on_c, 13, 62, 0
15, 17700, Note_on_c, 13, 62, 76
15, 17751, Note_on_c, 13, 62, 0
15, 17760, Note_on_c, 13, 56, 76
15, 17811, Note_on_c, 13, 56, 0
15, 17820, Note_on_c, 13, 56, 76
15, 17871, Note_on_c, 13, 56, 0
15, 17880, Note_on_c, 13, 62, 76
15, 17931, Note_on_c, 13, 62, 0
15, 17940, Note_on_c, 13, 62, 76
15, 17991, Note_on_c, 13, 62, 0
15, 18000, Note_on_c, 13, 56, 76
15, 18051, Note_on_c, 13, 56, 0
15, 18060, Note_on_c, 13, 56, 76
15, 18111, Note_on_c, 13, 56, 0
15, 18120, Note_on_c, 13, 62, 76
15, 18171, Note_on_c, 13, 62, 0
15, 18180, Note_on_c, 13, 62, 76
15, 18231, Note_on_c, 13, 62, 0
15, 18240, Note_on_c, 13, 56, 76
15, 18291, Note_on_c, 13, 56, 0
15, 18300, Note_on_c, 13, 56, 76
15, 18351, Note_on_c, 13, 56, 0
15, 18360, Note_on_c, 13, 62, 76
15, 18411, Note_on_c, 13, 62, 0
15, 18420, Note_on_c, 13, 62, 76
15, 18471, Note_on_c, 13, 62, 0
15, 18480, Note_on_c, 13, 56, 76
15, 18531, Note_on_c, 13, 56, 0
15, 18540, Note_on_c, 13, 56, 76
15, 18591, Note_on_c, 13, 56, 0
15, 18600, Note_on_c, 13, 62, 76
15, 18651, Note_on_c, 13, 62, 0
15, 18660, Note_on_c, 13, 62, 76
15, 18711, Note_on_c, 13, 62, 0
15, 18720, Note_on_c, 13, 56, 76
15, 18771, Note_on_c, 13, 56, 0
15, 18780, Note_on_c, 13, 56, 76
15, 18831, Note_on_c, 13, 56, 0
15, 18840, Note_on_c, 13, 62, 76
15, 18891, Note_on_c, 13, 62, 0
15, 18900, Note_on_c, 13, 62, 76
15, 18951, Note_on_c, 13, 62, 0
15, 18960, Note_on_c, 13, 56, 76
15, 19011, Note_on_c, 13, 56, 0
15, 19020, Note_on_c, 13, 56, 76
15, 19071, Note_on_c, 13, 56, 0
15, 19080, Note_on_c, 13, 62, 76
15, 19131, Note_on_c, 13, 62, 0
15, 19140, Note_on_c, 13, 62, 76
15, 19191, Note_on_c, 13, 62, 0
15, 19200, Note_on_c, 13, 56, 76
15, 19251, Note_on_c, 13, 56, 0
15, 19260, Note_on_c, 13, 56, 76
15, 19311, Note_on_c, 13, 56, 0
15, 19320, Note_on_c, 13, 62, 76
15, 19371, Note_on_c, 13, 62, 0
15, 19380, Note_on_c, 13, 62, 76
15, 19431, Note_on_c, 13, 62, 0
15, 19440, Note_on_c, 13, 56, 76
15, 19491, Note_on_c, 13, 56, 0
15, 19500, Note_on_c, 13, 56, 76
15, 19551, Note_on_c, 13, 56, 0
15, 19560, Note_on_c, 13, 62, 76
15, 19611, Note_on_c, 13, 62, 0
15, 19620, Note_on_c, 13, 62, 76
15, 19671, Note_on_c, 13, 62, 0
15, 19680, Note_on_c, 13, 56, 76
15, 19731, Note_on_c, 13, 56, 0
15, 19740, Note_on_c, 13, 56, 76
15, 19791, Note_on_c, 13, 56, 0
15, 19800, Note_on_c, 13, 62, 76
15, 19851, Note_on_c, 13, 62, 0
15, 19860, Note_on_c, 13, 62, 76
15, 19911, Note_on_c, 13, 62, 0
15, 19920, Note_on_c, 13, 56, 84
15, 19971, Note_on_c, 13, 56, 0
15, 19980, Note_on_c, 13, 56, 76
15, 20031, Note_on_c, 13, 56, 0
15, 20040, Note_on_c, 13, 62, 76
15, 20091, Note_on_c, 13, 62, 0
15, 20100, Note_on_c, 13, 62, 76
15, 20151, Note_on_c, 13, 62, 0
15, 20160, Note_on_c, 13, 56, 76
15, 20211, Note_on_c, 13, 56, 0
15, 20220, Note_on_c, 13, 56, 76
15, 20271, Note_on_c, 13, 56, 0
15, 20280, Note_on_c, 13, 62, 76
15, 20331, Note_on_c, 13, 62, 0
15, 20340, Note_on_c, 13, 62, 76
15, 20391, Note_on_c, 13, 62, 0
15, 20400, Note_on_c, 13, 56, 76
15, 20451, Note_on_c, 13, 56, 0
15, 20460, Note_on_c, 13, 56, 76
15, 20511, Note_on_c, 13, 56, 0
15, 20520, Note_on_c, 13, 62, 76
15, 20571, Note_on_c, 13, 62, 0
15, 20580, Note_on_c, 13, 62, 76
15, 20631, Note_on_c, 13, 62, 0
15, 20640, Note_on_c, 13, 56, 84
15, 20691, Note_on_c, 13, 56, 0
15, 20700, Note_on_c, 13, 56, 76
15, 20751, Note_on_c, 13, 56, 0
15, 20760, Note_on_c, 13, 62, 76
15, 20811, Note_on_c, 13, 62, 0
15, 20820, Note_on_c, 13, 62, 76
15, 20871, Note_on_c, 13, 62, 0
15, 20880, Note_on_c, 13, 56, 76
15, 20999, Note_on_c, 13, 56, 0
15, 21360, Note_on_c, 13, 56, 84
15, 21479, Note_on_c, 13, 56, 0
15, 21600, Note_on_c, 13, 56, 76
15, 21719, Note_on_c, 13, 56, 0
15, 22080, Note_on_c, 13, 56, 84
15, 22199, Note_on_c, 13, 56, 0
15, 22320, Note_on_c, 13, 56, 76
15, 22439, Note_on_c, 13, 56, 0
15, 23760, Note_on_c, 13, 52, 52
15, 23760, Note_on_c, 13, 55, 52
15, 23939, Note_on_c, 13, 52, 0
15, 23939, Note_on_c, 13, 55, 0
15, 24240, Note_on_c, 13, 52, 52
15, 24240, Note_on_c, 13, 55, 52
15, 24419, Note_on_c, 13, 52, 0
15, 24419, Note_on_c, 13, 55, 0
15, 24480, Note_on_c, 13, 55, 52
15, 24480, Note_on_c, 13, 52, 52
15, 24659, Note_on_c, 13, 55, 0
15, 24659, Note_on_c, 13, 52, 0
15, 24960, Note_on_c, 13, 52, 52
15, 24960, Note_on_c, 13, 55, 52
15, 25139, Note_on_c, 13, 52, 0
15, 25139, Note_on_c, 13, 55, 0
15, 25200, Note_on_c, 13, 55, 52
15, 25200, Note_on_c, 13, 52, 52
15, 25379, Note_on_c, 13, 55, 0
15, 25379, Note_on_c, 13, 52, 0
15, 25920, Program_c, 13, 45
15, 26400, Note_on_c, 13, 61, 44
15, 26639, Note_on_c, 13, 61, 0
15, 26640, Note_on_c, 13, 62, 44
15, 26879, Note_on_c, 13, 62, 0
15, 27360, Note_on_c, 13, 61, 44
15, 27360, Note_on_c, 13, 64, 44
15, 27599, Note_on_c, 13, 61, 0
15, 27599, Note_on_c, 13, 64, 0
15, 28080, Note_on_c, 13, 62, 44
15, 28080, Note_on_c, 13, 66, 44
15, 28319, Note_on_c, 13, 62, 0
15, 28319, Note_on_c, 13, 66, 0
15, 28800, Note_on_c, 13, 61, 44
15, 28800, Note_on_c, 13, 64, 44
15, 29039, Note_on_c, 13, 61, 0
15, 29039, Note_on_c, 13, 64, 0
15, 29280, Note_on_c, 13, 60, 44
15, 29519, Note_on_c, 13, 60, 0
15, 29520, Note_on_c, 13, 50, 44
15, 29759, Note_on_c, 13, 50, 0
15, 30000, Note_on_c, 13, 62, 44
15, 30239, Note_on_c, 13, 62, 0
15, 30240, Note_on_c, 13, 55, 44
15, 30479, Note_on_c, 13, 55, 0
15, 30720, Note_on_c, 13, 57, 44
15, 30959, Note_on_c, 13, 57, 0
15, 30960, Note_on_c, 13, 50, 44
15, 31199, Note_on_c, 13, 50, 0
15, 32400, Note_on_c, 13, 64, 44
15, 32639, Note_on_c, 13, 64, 0
15, 32640, Note_on_c, 13, 60, 44
15, 32879, Note_on_c, 13, 60, 0
15, 32880, Note_on_c, 13, 55, 44
15, 33119, Note_on_c, 13, 55, 0
15, 33120, Note_on_c, 13, 59, 44
15, 33359, Note_on_c, 13, 59, 0
15, 33360, Note_on_c, 13, 62, 44
15, 33599, Note_on_c, 13, 62, 0
15, 33600, Note_on_c, 13, 65, 44
15, 33839, Note_on_c, 13, 65, 0
15, 33840, Note_on_c, 13, 60, 44
15, 34079, Note_on_c, 13, 60, 0
15, 34080, Note_on_c, 13, 64, 44
15, 34319, Note_on_c, 13, 64, 0
15, 34320, Note_on_c, 13, 60, 44
15, 34559, Note_on_c, 13, 60, 0
15, 34560, Note_on_c, 13, 59, 44
15, 34799, Note_on_c, 13, 59, 0
15, 34800, Note_on_c, 13, 62, 44
15, 35039, Note_on_c, 13, 62, 0
15, 35040, Note_on_c, 13, 55, 44
15, 35279, Note_on_c, 13, 55, 0
15, 35280, Note_on_c, 13, 57, 44
15, 35519, Note_on_c, 13, 57, 0
15, 35520, Note_on_c, 13, 50, 44
15, 35759, Note_on_c, 13, 50, 0
15, 35760, Note_on_c, 13, 59, 44
15, 35999, Note_on_c, 13, 59, 0
15, 36000, Note_on_c, 13, 55, 44
15, 36239, Note_on_c, 13, 55, 0
15, 36240, Note_on_c, 13, 52, 44
15, 36479, Note_on_c, 13, 52, 0
15, 36480, Note_on_c, 13, 48, 44
15, 36719, Note_on_c, 13, 48, 0
15, 37200, Program_c, 13, 48
15, 37440, Note_on_c, 13, 57, 44
15, 37529, Note_on_c, 13, 57, 0
15, 37560, Note_on_c, 13, 60, 44
15, 37649, Note_on_c, 13, 60, 0
15, 37680, Note_on_c, 13, 63, 44
15, 37769, Note_on_c, 13, 63, 0
15, 37800, Note_on_c, 13, 66, 44
15, 37889, Note_on_c, 13, 66, 0
15, 37920, Note_on_c, 13, 69, 44
15, 38009, Note_on_c, 13, 69, 0
15, 38040, Note_on_c, 13, 72, 44
15, 38129, Note_on_c, 13, 72, 0
15, 38160, Note_on_c, 13, 75, 44
15, 38339, Note_on_c, 13, 75, 0
15, 38640, Note_on_c, 13, 72, 44
15, 38819, Note_on_c, 13, 72, 0
15, 38880, Note_on_c, 13, 69, 44
15, 39059, Note_on_c, 13, 69, 0
15, 40080, Control_c, 13, 11, 64
15, 40320, Note_on_c, 13, 57, 76
15, 40409, Note_on_c, 13, 57, 0
15, 40440, Note_on_c, 13, 60, 76
15, 40529, Note_on_c, 13, 60, 0
15, 40560, Note_on_c, 13, 63, 76
15, 40649, Note_on_c, 13, 63, 0
15, 40680, Note_on_c, 13, 66, 76
15, 40769, Note_on_c, 13, 66, 0
15, 40800, Note_on_c, 13, 69, 76
15, 40889, Note_on_c, 13, 69, 0
15, 40920, Note_on_c, 13, 72, 76
15, 41009, Note_on_c, 13, 72, 0
15, 41040, Note_on_c, 13, 75, 76
15, 41040, Control_c, 13, 11, 64
15, 41100, Control_c, 13, 11, 69
15, 41160, Control_c, 13, 11, 75
15, 41219, Note_on_c, 13, 75, 0
15, 41220, Control_c, 13, 11, 80
15, 41280, Control_c, 13, 11, 85
15, 41340, Control_c, 13, 11, 90
15, 41400, Control_c, 13, 11, 96
15, 41460, Control_c, 13, 11, 101
15, 41520, Note_on_c, 13, 72, 76
15, 41520, Control_c, 13, 11, 106
15, 41580, Control_c, 13, 11, 111
15, 41640, Control_c, 13, 11, 117
15, 41699, Note_on_c, 13, 72, 0
15, 41700, Control_c, 13, 11, 127
15, 41760, Note_on_c, 13, 69, 76
15, 41939, Note_on_c, 13, 69, 0
15, 42480, Note_on_c, 13, 65, 84
15, 42659, Note_on_c, 13, 65, 0
15, 42960, Note_on_c, 13, 62, 76
15, 43139, Note_on_c, 13, 62, 0
15, 43200, Note_on_c, 13, 59, 76
15, 43379, Note_on_c, 13, 59, 0
15, 43920, Note_on_c, 13, 64, 84
15, 43971, Note_on_c, 13, 64, 0
15, 43980, Note_on_c, 13, 64, 76
15, 44031, Note_on_c, 13, 64, 0
15, 44040, Note_on_c, 13, 64, 76
15, 44091, Note_on_c, 13, 64, 0
15, 44100, Note_on_c, 13, 64, 76
15, 44151, Note_on_c, 13, 64, 0
15, 44160, Note_on_c, 13, 64, 76
15, 44211, Note_on_c, 13, 64, 0
15, 44220, Note_on_c, 13, 64, 76
15, 44271, Note_on_c, 13, 64, 0
15, 44280, Note_on_c, 13, 64, 76
15, 44331, Note_on_c, 13, 64, 0
15, 44340, Note_on_c, 13, 64, 76
15, 44391, Note_on_c, 13, 64, 0
15, 44400, Note_on_c, 13, 61, 76
15, 44451, Note_on_c, 13, 61, 0
15, 44460, Note_on_c, 13, 61, 76
15, 44511, Note_on_c, 13, 61, 0
15, 44520, Note_on_c, 13, 61, 76
15, 44571, Note_on_c, 13, 61, 0
15, 44580, Note_on_c, 13, 61, 76
15, 44631, Note_on_c, 13, 61, 0
15, 44640, Note_on_c, 13, 65, 84
15, 44691, Note_on_c, 13, 65, 0
15, 44700, Note_on_c, 13, 65, 76
15, 44751, Note_on_c, 13, 65, 0
15, 44760, Note_on_c, 13, 65, 76
15, 44811, Note_on_c, 13, 65, 0
15, 44820, Note_on_c, 13, 65, 76
15, 44871, Note_on_c, 13, 65, 0
15, 44880, Note_on_c, 13, 65, 76
15, 44931, Note_on_c, 13, 65, 0
15, 44940, Note_on_c, 13, 65, 76
15, 44991, Note_on_c, 13, 65, 0
15, 45000, Note_on_c, 13, 65, 76
15, 45051, Note_on_c, 13, 65, 0
15, 45060, Note_on_c, 13, 65, 76
15, 45111, Note_on_c, 13, 65, 0
15, 45120, Note_on_c, 13, 62, 76
15, 45171, Note_on_c, 13, 62, 0
15, 45180, Note_on_c, 13, 62, 76
15, 45231, Note_on_c, 13, 62, 0
15, 45240, Note_on_c, 13, 62, 76
15, 45291, Note_on_c, 13, 62, 0
15, 45300, Note_on_c, 13, 62, 76
15, 45351, Note_on_c, 13, 62, 0
15, 45360, Note_on_c, 13, 66, 84
15, 45411, Note_on_c, 13, 66, 0
15, 45420, Note_on_c, 13, 66, 76
15, 45471, Note_on_c, 13, 66, 0
15, 45480, Note_on_c, 13, 66, 76
15, 45531, Note_on_c, 13, 66, 0
15, 45540, Note_on_c, 13, 66, 76
15, 45591, Note_on_c, 13, 66, 0
15, 45600, Note_on_c, 13, 66, 76
15, 45651, Note_on_c, 13, 66, 0
15, 45660, Note_on_c, 13, 66, 76
15, 45711, Note_on_c, 13, 66, 0
15, 45720, Note_on_c, 13, 66, 76
15, 45771, Note_on_c, 13, 66, 0
15, 45780, Note_on_c, 13, 66, 76
15, 45831, Note_on_c, 13, 66, 0
15, 45840, Note_on_c, 13, 57, 76
15, 45891, Note_on_c, 13, 57, 0
15, 45900, Note_on_c, 13, 57, 76
15, 45951, Note_on_c, 13, 57, 0
15, 45960, Note_on_c, 13, 57, 76
15, 46011, Note_on_c, 13, 57, 0
15, 46020, Note_on_c, 13, 57, 76
15, 46071, Note_on_c, 13, 57, 0
15, 46080, Note_on_c, 13, 67, 84
15, 46131, Note_on_c, 13, 67, 0
15, 46140, Note_on_c, 13, 67, 76
15, 46191, Note_on_c, 13, 67, 0
15, 46200, Note_on_c, 13, 67, 76
15, 46251, Note_on_c, 13, 67, 0
15, 46260, Note_on_c, 13, 67, 76
15, 46311, Note_on_c, 13, 67, 0
15, 46320, Note_on_c, 13, 67, 76
15, 46371, Note_on_c, 13, 67, 0
15, 46380, Note_on_c, 13, 67, 76
15, 46431, Note_on_c, 13, 67, 0
15, 46440, Note_on_c, 13, 67, 76
15, 46491, Note_on_c, 13, 67, 0
15, 46500, Note_on_c, 13, 67, 76
15, 46551, Note_on_c, 13, 67, 0
15, 46560, Note_on_c, 13, 62, 76
15, 46560, Note_on_c, 13, 59, 76
15, 46611, Note_on_c, 13, 62, 0
15, 46611, Note_on_c, 13, 59, 0
15, 46620, Note_on_c, 13, 62, 76
15, 46620, Note_on_c, 13, 59, 76
15, 46671, Note_on_c, 13, 62, 0
15, 46671, Note_on_c, 13, 59, 0
15, 46680, Note_on_c, 13, 62, 76
15, 46680, Note_on_c, 13, 59, 76
15, 46731, Note_on_c, 13, 62, 0
15, 46731, Note_on_c, 13, 59, 0
15, 46740, Note_on_c, 13, 59, 76
15, 46740, Note_on_c, 13, 62, 76
15, 46791, Note_on_c, 13, 59, 0
15, 46791, Note_on_c, 13, 62, 0
15, 46800, Note_on_c, 13, 67, 84
15, 46851, Note_on_c, 13, 67, 0
15, 46860, Note_on_c, 13, 67, 84
15, 46911, Note_on_c, 13, 67, 0
15, 46920, Note_on_c, 13, 67, 84
15, 46971, Note_on_c, 13, 67, 0
15, 46980, Note_on_c, 13, 67, 84
15, 47031, Note_on_c, 13, 67, 0
15, 47040, Note_on_c, 13, 67, 84
15, 47091, Note_on_c, 13, 67, 0
15, 47100, Note_on_c, 13, 67, 84
15, 47151, Note_on_c, 13, 67, 0
15, 47160, Note_on_c, 13, 67, 84
15, 47211, Note_on_c, 13, 67, 0
15, 47220, Note_on_c, 13, 67, 84
15, 47271, Note_on_c, 13, 67, 0
15, 47280, Note_on_c, 13, 62, 84
15, 47280, Note_on_c, 13, 59, 84
15, 47331, Note_on_c, 13, 62, 0
15, 47331, Note_on_c, 13, 59, 0
15, 47340, Note_on_c, 13, 59, 84
15, 47340, Note_on_c, 13, 62, 84
15, 47391, Note_on_c, 13, 59, 0
15, 47391, Note_on_c, 13, 62, 0
15, 47400, Note_on_c, 13, 59, 84
15, 47400, Note_on_c, 13, 62, 84
15, 47451, Note_on_c, 13, 59, 0
15, 47451, Note_on_c, 13, 62, 0
15, 47460, Note_on_c, 13, 62, 84
15, 47460, Note_on_c, 13, 59, 84
15, 47511, Note_on_c, 13, 62, 0
15, 47511, Note_on_c, 13, 59, 0
15, 47520, Note_on_c, 13, 60, 84
15, 47571, Note_on_c, 13, 60, 0
15, 47580, Note_on_c, 13, 60, 84
15, 47631, Note_on_c, 13, 60, 0
15, 47640, Note_on_c, 13, 60, 84
15, 47691, Note_on_c, 13, 60, 0
15, 47700, Note_on_c, 13, 60, 84
15, 47751, Note_on_c, 13, 60, 0
15, 47760, Note_on_c, 13, 60, 84
15, 47811, Note_on_c, 13, 60, 0
15, 47820, Note_on_c, 13, 60, 84
15, 47871, Note_on_c, 13, 60, 0
15, 47880, Note_on_c, 13, 60, 84
15, 47931, Note_on_c, 13, 60, 0
15, 47940, Note_on_c, 13, 60, 84
15, 47991, Note_on_c, 13, 60, 0
15, 48000, Note_on_c, 13, 57, 84
15, 48051, Note_on_c, 13, 57, 0
15, 48060, Note_on_c, 13, 57, 84
15, 48111, Note_on_c, 13, 57, 0
15, 48120, Note_on_c, 13, 57, 84
15, 48171, Note_on_c, 13, 57, 0
15, 48180, Note_on_c, 13, 57, 84
15, 48231, Note_on_c, 13, 57, 0
15, 48240, Note_on_c, 13, 53, 84
15, 48291, Note_on_c, 13, 53, 0
15, 48300, Note_on_c, 13, 53, 84
15, 48351, Note_on_c, 13, 53, 0
15, 48360, Note_on_c, 13, 53, 84
15, 48411, Note_on_c, 13, 53, 0
15, 48420, Note_on_c, 13, 53, 84
15, 48471, Note_on_c, 13, 53, 0
15, 48480, Note_on_c, 13, 53, 84
15, 48531, Note_on_c, 13, 53, 0
15, 48540, Note_on_c, 13, 53, 84
15, 48591, Note_on_c, 13, 53, 0
15, 48600, Note_on_c, 13, 53, 84
15, 48651, Note_on_c, 13, 53, 0
15, 48660, Note_on_c, 13, 53, 84
15, 48711, Note_on_c, 13, 53, 0
15, 48720, Note_on_c, 13, 50, 84
15, 48771, Note_on_c, 13, 50, 0
15, 48780, Note_on_c, 13, 50, 84
15, 48831, Note_on_c, 13, 50, 0
15, 48840, Note_on_c, 13, 50, 84
15, 48891, Note_on_c, 13, 50, 0
15, 48900, Note_on_c, 13, 50, 84
15, 48951, Note_on_c, 13, 50, 0
15, 48960, Note_on_c, 13, 55, 84
15, 49011, Note_on_c, 13, 55, 0
15, 49020, Note_on_c, 13, 55, 84
15, 49071, Note_on_c, 13, 55, 0
15, 49080, Note_on_c, 13, 55, 84
15, 49131, Note_on_c, 13, 55, 0
15, 49140, Note_on_c, 13, 55, 84
15, 49191, Note_on_c, 13, 55, 0
15, 49200, Note_on_c, 13, 55, 84
15, 49251, Note_on_c, 13, 55, 0
15, 49260, Note_on_c, 13, 55, 84
15, 49311, Note_on_c, 13, 55, 0
15, 49320, Note_on_c, 13, 55, 84
15, 49371, Note_on_c, 13, 55, 0
15, 49380, Note_on_c, 13, 55, 84
15, 49431, Note_on_c, 13, 55, 0
15, 49440, Note_on_c, 13, 55, 84
15, 49491, Note_on_c, 13, 55, 0
15, 49500, Note_on_c, 13, 55, 84
15, 49551, Note_on_c, 13, 55, 0
15, 49560, Note_on_c, 13, 55, 84
15, 49611, Note_on_c, 13, 55, 0
15, 49620, Note_on_c, 13, 55, 84
15, 49671, Note_on_c, 13, 55, 0
15, 49680, Note_on_c, 13, 60, 84
15, 49851, Note_on_c, 13, 60, 0
15, 49860, Note_on_c, 13, 60, 84
15, 49911, Note_on_c, 13, 60, 0
15, 49920, Note_on_c, 13, 59, 84
15, 50099, Note_on_c, 13, 59, 0
15, 50160, Note_on_c, 13, 59, 84
15, 50331, Note_on_c, 13, 59, 0
15, 50340, Note_on_c, 13, 59, 84
15, 50391, Note_on_c, 13, 59, 0
15, 50400, Note_on_c, 13, 60, 84
15, 50579, Note_on_c, 13, 60, 0
15, 50640, Note_on_c, 13, 60, 84
15, 50811, Note_on_c, 13, 60, 0
15, 50820, Note_on_c, 13, 62, 84
15, 50871, Note_on_c, 13, 62, 0
15, 50880, Note_on_c, 13, 64, 84
15, 51059, Note_on_c, 13, 64, 0
15, 51120, Note_on_c, 13, 60, 84
15, 51291, Note_on_c, 13, 60, 0
15, 51300, Note_on_c, 13, 62, 84
15, 51351, Note_on_c, 13, 62, 0
15, 51360, Note_on_c, 13, 64, 84
15, 51539, Note_on_c, 13, 64, 0
15, 56880, Note_on_c, 13, 60, 84
15, 57051, Note_on_c, 13, 60, 0
15, 57060, Note_on_c, 13, 60, 84
15, 57111, Note_on_c, 13, 60, 0
15, 57120, Note_on_c, 13, 59, 84
15, 57299, Note_on_c, 13, 59, 0
15, 57360, Note_on_c, 13, 59, 84
15, 57531, Note_on_c, 13, 59, 0
15, 57540, Note_on_c, 13, 59, 84
15, 57591, Note_on_c, 13, 59, 0
15, 57600, Note_on_c, 13, 60, 84
15, 57779, Note_on_c, 13, 60, 0
15, 57840, Note_on_c, 13, 60, 84
15, 58011, Note_on_c, 13, 60, 0
15, 58020, Note_on_c, 13, 62, 84
15, 58071, Note_on_c, 13, 62, 0
15, 58080, Note_on_c, 13, 64, 84
15, 58259, Note_on_c, 13, 64, 0
15, 58320, Note_on_c, 13, 60, 84
15, 58491, Note_on_c, 13, 60, 0
15, 58500, Note_on_c, 13, 62, 84
15, 58551, Note_on_c, 13, 62, 0
15, 58560, Note_on_c, 13, 64, 84
15, 58739, Note_on_c, 13, 64, 0
15, 58800, Note_on_c, 13, 67, 48
15, 59039, Note_on_c, 13, 67, 0
15, 59040, Note_on_c, 13, 66, 48
15, 59519, Note_on_c, 13, 66, 0
15, 59520, Note_on_c, 13, 67, 48
15, 59759, Note_on_c, 13, 67, 0
15, 59760, Note_on_c, 13, 65, 48
15, 60239, Note_on_c, 13, 65, 0
15, 60240, Note_on_c, 13, 64, 48
15, 60479, Note_on_c, 13, 64, 0
15, 60480, Note_on_c, 13, 62, 48
15, 60959, Note_on_c, 13, 62, 0
15, 60960, Note_on_c, 13, 60, 48
15, 61199, Note_on_c, 13, 60, 0
15, 61200, Note_on_c, 13, 59, 48
15, 61679, Note_on_c, 13, 59, 0
15, 61680, Note_on_c, 13, 60, 48
15, 61919, Note_on_c, 13, 60, 0
15, 61920, Note_on_c, 13, 62, 48
15, 62399, Note_on_c, 13, 62, 0
15, 62400, Note_on_c, 13, 64, 48
15, 62639, Note_on_c, 13, 64, 0
15, 62640, Note_on_c, 13, 65, 48
15, 63119, Note_on_c, 13, 65, 0
15, 63120, Note_on_c, 13, 62, 48
15, 63359, Note_on_c, 13, 62, 0
15, 63360, Note_on_c, 13, 67, 48
15, 63839, Note_on_c, 13, 67, 0
15, 63840, Note_on_c, 13, 55, 48
15, 64064, Note_on_c, 13, 55, 0
15, 64078, Control_c, 13, 11, 80
15, 64080, Note_on_c, 13, 60, 76
15, 64199, Note_on_c, 13, 60, 0
15, 64200, Note_on_c, 13, 59, 76
15, 64319, Note_on_c, 13, 59, 0
15, 64320, Note_on_c, 13, 60, 76
15, 64320, Control_c, 13, 11, 80
15, 64420, Control_c, 13, 11, 84
15, 64439, Note_on_c, 13, 60, 0
15, 64440, Note_on_c, 13, 59, 76
15, 64520, Control_c, 13, 11, 88
15, 64559, Note_on_c, 13, 59, 0
15, 64560, Note_on_c, 13, 57, 76
15, 64620, Control_c, 13, 11, 92
15, 64679, Note_on_c, 13, 57, 0
15, 64680, Note_on_c, 13, 55, 76
15, 64720, Control_c, 13, 11, 96
15, 64784, Note_on_c, 13, 55, 0
15, 64800, Note_on_c, 13, 55, 76
15, 64820, Control_c, 13, 11, 100
15, 64920, Control_c, 13, 11, 104
15, 64979, Note_on_c, 13, 55, 0
15, 65020, Control_c, 13, 11, 107
15, 65040, Note_on_c, 13, 62, 76
15, 65040, Note_on_c, 13, 65, 76
15, 65120, Control_c, 13, 11, 111
15, 65220, Control_c, 13, 11, 115
15, 65320, Control_c, 13, 11, 119
15, 65399, Note_on_c, 13, 62, 0
15, 65399, Note_on_c, 13, 65, 0
15, 65400, Note_on_c, 13, 67, 76
15, 65400, Note_on_c, 13, 64, 76
15, 65420, Control_c, 13, 11, 127
15, 65504, Note_on_c, 13, 67, 0
15, 65504, Note_on_c, 13, 64, 0
15, 65520, Note_on_c, 13, 60, 76
15, 65520, Note_on_c, 13, 64, 76
15, 65571, Note_on_c, 13, 60, 0
15, 65571, Note_on_c, 13, 64, 0
15, 65580, Note_on_c, 13, 48, 76
15, 65580, Note_on_c, 13, 60, 76
15, 65631, Note_on_c, 13, 48, 0
15, 65631, Note_on_c, 13, 60, 0
15, 65640, Note_on_c, 13, 60, 76
15, 65640, Note_on_c, 13, 48, 76
15, 65691, Note_on_c, 13, 60, 0
15, 65691, Note_on_c, 13, 48, 0
15, 65700, Note_on_c, 13, 60, 76
15, 65700, Note_on_c, 13, 48, 76
15, 65751, Note_on_c, 13, 60, 0
15, 65751, Note_on_c, 13, 48, 0
15, 65760, Note_on_c, 13, 48, 84
15, 65760, Note_on_c, 13, 60, 84
15, 65811, Note_on_c, 13, 48, 0
15, 65811, Note_on_c, 13, 60, 0
15, 65820, Note_on_c, 13, 60, 76
15, 65820, Note_on_c, 13, 48, 76
15, 65871, Note_on_c, 13, 60, 0
15, 65871, Note_on_c, 13, 48, 0
15, 65880, Note_on_c, 13, 60, 76
15, 65880, Note_on_c, 13, 48, 76
15, 65931, Note_on_c, 13, 60, 0
15, 65931, Note_on_c, 13, 48, 0
15, 65940, Note_on_c, 13, 48, 76
15, 65940, Note_on_c, 13, 60, 76
15, 65991, Note_on_c, 13, 48, 0
15, 65991, Note_on_c, 13, 60, 0
15, 66000, Note_on_c, 13, 60, 76
15, 66000, Note_on_c, 13, 48, 76
15, 66051, Note_on_c, 13, 60, 0
15, 66051, Note_on_c, 13, 48, 0
15, 66060, Note_on_c, 13, 60, 76
15, 66060, Note_on_c, 13, 48, 76
15, 66111, Note_on_c, 13, 60, 0
15, 66111, Note_on_c, 13, 48, 0
15, 66120, Note_on_c, 13, 48, 76
15, 66120, Note_on_c, 13, 60, 76
15, 66171, Note_on_c, 13, 48, 0
15, 66171, Note_on_c, 13, 60, 0
15, 66180, Note_on_c, 13, 60, 76
15, 66180, Note_on_c, 13, 48, 76
15, 66231, Note_on_c, 13, 60, 0
15, 66231, Note_on_c, 13, 48, 0
15, 66240, Note_on_c, 13, 55, 84
15, 66291, Note_on_c, 13, 55, 0
15, 66300, Note_on_c, 13, 55, 76
15, 66351, Note_on_c, 13, 55, 0
15, 66360, Note_on_c, 13, 55, 76
15, 66411, Note_on_c, 13, 55, 0
15, 66420, Note_on_c, 13, 55, 76
15, 66471, Note_on_c, 13, 55, 0
15, 66480, Note_on_c, 13, 55, 76
15, 66531, Note_on_c, 13, 55, 0
15, 66540, Note_on_c, 13, 55, 76
15, 66591, Note_on_c, 13, 55, 0
15, 66600, Note_on_c, 13, 55, 76
15, 66651, Note_on_c, 13, 55, 0
15, 66660, Note_on_c, 13, 55, 76
15, 66711, Note_on_c, 13, 55, 0
15, 66720, Note_on_c, 13, 57, 76
15, 66771, Note_on_c, 13, 57, 0
15, 66780, Note_on_c, 13, 57, 76
15, 66831, Note_on_c, 13, 57, 0
15, 66840, Note_on_c, 13, 59, 76
15, 66891, Note_on_c, 13, 59, 0
15, 66900, Note_on_c, 13, 59, 76
15, 66951, Note_on_c, 13, 59, 0
15, 66960, Note_on_c, 13, 60, 84
15, 67011, Note_on_c, 13, 60, 0
15, 67020, Note_on_c, 13, 60, 76
15, 67071, Note_on_c, 13, 60, 0
15, 67080, Note_on_c, 13, 48, 76
15, 67131, Note_on_c, 13, 48, 0
15, 67140, Note_on_c, 13, 48, 76
15, 67191, Note_on_c, 13, 48, 0
15, 67200, Note_on_c, 13, 52, 76
15, 67251, Note_on_c, 13, 52, 0
15, 67260, Note_on_c, 13, 52, 76
15, 67311, Note_on_c, 13, 52, 0
15, 67320, Note_on_c, 13, 55, 76
15, 67371, Note_on_c, 13, 55, 0
15, 67380, Note_on_c, 13, 55, 76
15, 67431, Note_on_c, 13, 55, 0
15, 67440, Note_on_c, 13, 60, 76
15, 67491, Note_on_c, 13, 60, 0
15, 67500, Note_on_c, 13, 60, 76
15, 67551, Note_on_c, 13, 60, 0
15, 67560, Note_on_c, 13, 64, 76
15, 67611, Note_on_c, 13, 64, 0
15, 67620, Note_on_c, 13, 64, 76
15, 67671, Note_on_c, 13, 64, 0
15, 67680, Note_on_c, 13, 55, 84
15, 67731, Note_on_c, 13, 55, 0
15, 67740, Note_on_c, 13, 55, 76
15, 67791, Note_on_c, 13, 55, 0
15, 67800, Note_on_c, 13, 55, 76
15, 67851, Note_on_c, 13, 55, 0
15, 67860, Note_on_c, 13, 55, 76
15, 67911, Note_on_c, 13, 55, 0
15, 67920, Note_on_c, 13, 55, 76
15, 67971, Note_on_c, 13, 55, 0
15, 67980, Note_on_c, 13, 55, 76
15, 68031, Note_on_c, 13, 55, 0
15, 68040, Note_on_c, 13, 55, 76
15, 68091, Note_on_c, 13, 55, 0
15, 68100, Note_on_c, 13, 55, 76
15, 68151, Note_on_c, 13, 55, 0
15, 68160, Note_on_c, 13, 57, 76
15, 68211, Note_on_c, 13, 57, 0
15, 68220, Note_on_c, 13, 57, 76
15, 68271, Note_on_c, 13, 57, 0
15, 68280, Note_on_c, 13, 59, 76
15, 68331, Note_on_c, 13, 59, 0
15, 68340, Note_on_c, 13, 59, 76
15, 68391, Note_on_c, 13, 59, 0
15, 68400, Note_on_c, 13, 60, 84
15, 68451, Note_on_c, 13, 60, 0
15, 68460, Note_on_c, 13, 60, 84
15, 68511, Note_on_c, 13, 60, 0
15, 68520, Note_on_c, 13, 67, 84
15, 68571, Note_on_c, 13, 67, 0
15, 68580, Note_on_c, 13, 67, 84
15, 68631, Note_on_c, 13, 67, 0
15, 68640, Note_on_c, 13, 64, 84
15, 68691, Note_on_c, 13, 64, 0
15, 68700, Note_on_c, 13, 64, 84
15, 68751, Note_on_c, 13, 64, 0
15, 68760, Note_on_c, 13, 72, 84
15, 68811, Note_on_c, 13, 72, 0
15, 68820, Note_on_c, 13, 72, 84
15, 68871, Note_on_c, 13, 72, 0
15, 68880, Note_on_c, 13, 67, 84
15, 68931, Note_on_c, 13, 67, 0
15, 68940, Note_on_c, 13, 67, 84
15, 68991, Note_on_c, 13, 67, 0
15, 69000, Note_on_c, 13, 76, 84
15, 69051, Note_on_c, 13, 76, 0
15, 69060, Note_on_c, 13, 76, 84
15, 69111, Note_on_c, 13, 76, 0
15, 69120, Note_on_c, 13, 72, 84
15, 69171, Note_on_c, 13, 72, 0
15, 69180, Note_on_c, 13, 72, 84
15, 69231, Note_on_c, 13, 72, 0
15, 69240, Note_on_c, 13, 67, 84
15, 69291, Note_on_c, 13, 67, 0
15, 69300, Note_on_c, 13, 67, 84
15, 69351, Note_on_c, 13, 67, 0
15, 69360, Note_on_c, 13, 64, 84
15, 69411, Note_on_c, 13, 64, 0
15, 69420, Note_on_c, 13, 64, 84
15, 69471, Note_on_c, 13, 64, 0
15, 69480, Note_on_c, 13, 72, 84
15, 69531, Note_on_c, 13, 72, 0
15, 69540, Note_on_c, 13, 72, 84
15, 69591, Note_on_c, 13, 72, 0
15, 69600, Note_on_c, 13, 67, 84
15, 69651, Note_on_c, 13, 67, 0
15, 69660, Note_on_c, 13, 67, 84
15, 69711, Note_on_c, 13, 67, 0
15, 69720, Note_on_c, 13, 64, 84
15, 69771, Note_on_c, 13, 64, 0
15, 69780, Note_on_c, 13, 64, 84
15, 69831, Note_on_c, 13, 64, 0
15, 69840, Note_on_c, 13, 60, 84
15, 69891, Note_on_c, 13, 60, 0
15, 69900, Note_on_c, 13, 60, 84
15, 69951, Note_on_c, 13, 60, 0
15, 69960, Note_on_c, 13, 67, 84
15, 70011, Note_on_c, 13, 67, 0
15, 70020, Note_on_c, 13, 67, 84
15, 70071, Note_on_c, 13, 67, 0
15, 70080, Note_on_c, 13, 64, 84
15, 70131, Note_on_c, 13, 64, 0
15, 70140, Note_on_c, 13, 64, 84
15, 70191, Note_on_c, 13, 64, 0
15, 70200, Note_on_c, 13, 60, 84
15, 70251, Note_on_c, 13, 60, 0
15, 70260, Note_on_c, 13, 60, 84
15, 70311, Note_on_c, 13, 60, 0
15, 70320, Note_on_c, 13, 55, 84
15, 70371, Note_on_c, 13, 55, 0
15, 70380, Note_on_c, 13, 55, 84
15, 70431, Note_on_c, 13, 55, 0
15, 70440, Note_on_c, 13, 64, 84
15, 70491, Note_on_c, 13, 64, 0
15, 70500, Note_on_c, 13, 64, 84
15, 70551, Note_on_c, 13, 64, 0
15, 70560, Note_on_c, 13, 60, 84
15, 70611, Note_on_c, 13, 60, 0
15, 70620, Note_on_c, 13, 60, 84
15, 70671, Note_on_c, 13, 60, 0
15, 70680, Note_on_c, 13, 55, 84
15, 70731, Note_on_c, 13, 55, 0
15, 70740, Note_on_c, 13, 55, 84
15, 70791, Note_on_c, 13, 55, 0
15, 70800, Note_on_c, 13, 52, 84
15, 70851, Note_on_c, 13, 52, 0
15, 70860, Note_on_c, 13, 52, 84
15, 70911, Note_on_c, 13, 52, 0
15, 70920, Note_on_c, 13, 60, 84
15, 70971, Note_on_c, 13, 60, 0
15, 70980, Note_on_c, 13, 60, 84
15, 71031, Note_on_c, 13, 60, 0
15, 71040, Note_on_c, 13, 55, 84
15, 71091, Note_on_c, 13, 55, 0
15, 71100, Note_on_c, 13, 55, 84
15, 71151, Note_on_c, 13, 55, 0
15, 71160, Note_on_c, 13, 52, 84
15, 71211, Note_on_c, 13, 52, 0
15, 71220, Note_on_c, 13, 52, 84
15, 71271, Note_on_c, 13, 52, 0
15, 71280, Note_on_c, 13, 48, 92
15, 71339, Note_on_c, 13, 48, 0
15, 71340, Note_on_c, 13, 48, 84
15, 71519, Note_on_c, 13, 48, 0
15, 71640, Note_on_c, 13, 60, 84
15, 71729, Note_on_c, 13, 60, 0
15, 71760, Note_on_c, 13, 48, 84
15, 71849, Note_on_c, 13, 48, 0
15, 71880, Note_on_c, 13, 60, 84
15, 71969, Note_on_c, 13, 60, 0
15, 72000, Note_on_c, 13, 48, 92
15, 72059, Note_on_c, 13, 48, 0
15, 72060, Note_on_c, 13, 48, 84
15, 72239, Note_on_c, 13, 48, 0
15, 72360, Note_on_c, 13, 60, 84
15, 72464, Note_on_c, 13, 60, 0
15, 72480, Note_on_c, 13, 48, 84
15, 72584, Note_on_c, 13, 48, 0
15, 72600, Note_on_c, 13, 60, 84
15, 72704, Note_on_c, 13, 60, 0
15, 72720, Note_on_c, 13, 48, 92
15, 72779, Note_on_c, 13, 48, 0
15, 72780, Note_on_c, 13, 48, 84
15, 72959, Note_on_c, 13, 48, 0
15, 73080, Note_on_c, 13, 60, 84
15, 73184, Note_on_c, 13, 60, 0
15, 73200, Note_on_c, 13, 48, 84
15, 73304, Note_on_c, 13, 48, 0
15, 73320, Note_on_c, 13, 60, 84
15, 73424, Note_on_c, 13, 60, 0
15, 73440, Note_on_c, 13, 48, 92
15, 73499, Note_on_c, 13, 48, 0
15, 73500, Note_on_c, 13, 48, 84
15, 73679, Note_on_c, 13, 48, 0
15, 73800, Note_on_c, 13, 60, 84
15, 73904, Note_on_c, 13, 60, 0
15, 73920, Note_on_c, 13, 48, 84
15, 74024, Note_on_c, 13, 48, 0
15, 74040, Note_on_c, 13, 60, 84
15, 74144, Note_on_c, 13, 60, 0
15, 74160, Note_on_c, 13, 53, 76
15, 74879, Note_on_c, 13, 53, 0
15, 74880, Note_on_c, 13, 53, 76
15, 75344, Note_on_c, 13, 53, 0
15, 75360, Note_on_c, 13, 57, 76
15, 75449, Note_on_c, 13, 57, 0
15, 75480, Note_on_c, 13, 57, 76
15, 75569, Note_on_c, 13, 57, 0
15, 75600, Note_on_c, 13, 58, 76
15, 75704, Note_on_c, 13, 58, 0
15, 75720, Note_on_c, 13, 70, 76
15, 75824, Note_on_c, 13, 70, 0
15, 75840, Note_on_c, 13, 58, 76
15, 75929, Note_on_c, 13, 58, 0
15, 75960, Note_on_c, 13, 57, 76
15, 76049, Note_on_c, 13, 57, 0
15, 76080, Note_on_c, 13, 55, 76
15, 76169, Note_on_c, 13, 55, 0
15, 76200, Note_on_c, 13, 53, 76
15, 76289, Note_on_c, 13, 53, 0
15, 76320, Note_on_c, 13, 52, 76
15, 76559, Note_on_c, 13, 52, 0
15, 79920, Note_on_c, 13, 60, 76
15, 79920, Note_on_c, 13, 48, 76
15, 80504, Note_on_c, 13, 60, 0
15, 80504, Note_on_c, 13, 48, 0
15, 80520, Note_on_c, 13, 50, 76
15, 80571, Note_on_c, 13, 50, 0
15, 80580, Note_on_c, 13, 50, 76
15, 80631, Note_on_c, 13, 50, 0
15, 80640, Note_on_c, 13, 51, 76
15, 80691, Note_on_c, 13, 51, 0
15, 80700, Note_on_c, 13, 51, 76
15, 80751, Note_on_c, 13, 51, 0
15, 80760, Note_on_c, 13, 52, 76
15, 80811, Note_on_c, 13, 52, 0
15, 80820, Note_on_c, 13, 52, 76
15, 80871, Note_on_c, 13, 52, 0
15, 80880, Note_on_c, 13, 53, 76
15, 80931, Note_on_c, 13, 53, 0
15, 80940, Note_on_c, 13, 53, 76
15, 80991, Note_on_c, 13, 53, 0
15, 81000, Note_on_c, 13, 55, 76
15, 81051, Note_on_c, 13, 55, 0
15, 81060, Note_on_c, 13, 55, 76
15, 81111, Note_on_c, 13, 55, 0
15, 81120, Note_on_c, 13, 57, 76
15, 81171, Note_on_c, 13, 57, 0
15, 81180, Note_on_c, 13, 57, 76
15, 81231, Note_on_c, 13, 57, 0
15, 81240, Note_on_c, 13, 58, 76
15, 81291, Note_on_c, 13, 58, 0
15, 81300, Note_on_c, 13, 58, 76
15, 81351, Note_on_c, 13, 58, 0
15, 81360, Note_on_c, 13, 60, 76
15, 81419, Note_on_c, 13, 60, 0
15, 81420, Note_on_c, 13, 65, 76
15, 81479, Note_on_c, 13, 65, 0
15, 81600, Note_on_c, 13, 48, 76
15, 81600, Note_on_c, 13, 57, 76
15, 81719, Note_on_c, 13, 48, 0
15, 81719, Note_on_c, 13, 57, 0
15, 81840, Note_on_c, 13, 48, 76
15, 81840, Note_on_c, 13, 58, 76
15, 81959, Note_on_c, 13, 48, 0
15, 81959, Note_on_c, 13, 58, 0
15, 82080, Note_on_c, 13, 57, 76
15, 82131, Note_on_c, 13, 57, 0
15, 82140, Note_on_c, 13, 57, 76
15, 82191, Note_on_c, 13, 57, 0
15, 82200, Note_on_c, 13, 60, 76
15, 82251, Note_on_c, 13, 60, 0
15, 82260, Note_on_c, 13, 60, 76
15, 82311, Note_on_c, 13, 60, 0
15, 82320, Note_on_c, 13, 57, 76
15, 82371, Note_on_c, 13, 57, 0
15, 82380, Note_on_c, 13, 57, 76
15, 82431, Note_on_c, 13, 57, 0
15, 82440, Note_on_c, 13, 60, 76
15, 82491, Note_on_c, 13, 60, 0
15, 82500, Note_on_c, 13, 60, 76
15, 82551, Note_on_c, 13, 60, 0
15, 82560, Note_on_c, 13, 57, 76
15, 82611, Note_on_c, 13, 57, 0
15, 82620, Note_on_c, 13, 57, 76
15, 82671, Note_on_c, 13, 57, 0
15, 82680, Note_on_c, 13, 60, 76
15, 82731, Note_on_c, 13, 60, 0
15, 82740, Note_on_c, 13, 60, 76
15, 82791, Note_on_c, 13, 60, 0
15, 82800, Note_on_c, 13, 57, 76
15, 82851, Note_on_c, 13, 57, 0
15, 82860, Note_on_c, 13, 57, 76
15, 82911, Note_on_c, 13, 57, 0
15, 82920, Note_on_c, 13, 60, 76
15, 82971, Note_on_c, 13, 60, 0
15, 82980, Note_on_c, 13, 60, 76
15, 83031, Note_on_c, 13, 60, 0
15, 83040, Note_on_c, 13, 57, 76
15, 83091, Note_on_c, 13, 57, 0
15, 83100, Note_on_c, 13, 57, 76
15, 83151, Note_on_c, 13, 57, 0
15, 83160, Note_on_c, 13, 60, 76
15, 83211, Note_on_c, 13, 60, 0
15, 83220, Note_on_c, 13, 60, 76
15, 83271, Note_on_c, 13, 60, 0
15, 83280, Note_on_c, 13, 57, 76
15, 83331, Note_on_c, 13, 57, 0
15, 83340, Note_on_c, 13, 57, 76
15, 83391, Note_on_c, 13, 57, 0
15, 83400, Note_on_c, 13, 60, 76
15, 83451, Note_on_c, 13, 60, 0
15, 83460, Note_on_c, 13, 60, 76
15, 83511, Note_on_c, 13, 60, 0
15, 83520, Note_on_c, 13, 58, 76
15, 83571, Note_on_c, 13, 58, 0
15, 83580, Note_on_c, 13, 58, 76
15, 83631, Note_on_c, 13, 58, 0
15, 83640, Note_on_c, 13, 62, 76
15, 83691, Note_on_c, 13, 62, 0
15, 83700, Note_on_c, 13, 62, 76
15, 83751, Note_on_c, 13, 62, 0
15, 83760, Note_on_c, 13, 58, 76
15, 83811, Note_on_c, 13, 58, 0
15, 83820, Note_on_c, 13, 58, 76
15, 83871, Note_on_c, 13, 58, 0
15, 83880, Note_on_c, 13, 62, 76
15, 83931, Note_on_c, 13, 62, 0
15, 83940, Note_on_c, 13, 62, 76
15, 83991, Note_on_c, 13, 62, 0
15, 84000, Note_on_c, 13, 58, 76
15, 84051, Note_on_c, 13, 58, 0
15, 84060, Note_on_c, 13, 58, 76
15, 84111, Note_on_c, 13, 58, 0
15, 84120, Note_on_c, 13, 62, 76
15, 84171, Note_on_c, 13, 62, 0
15, 84180, Note_on_c, 13, 62, 76
15, 84231, Note_on_c, 13, 62, 0
15, 84240, Note_on_c, 13, 58, 76
15, 84291, Note_on_c, 13, 58, 0
15, 84300, Note_on_c, 13, 58, 76
15, 84351, Note_on_c, 13, 58, 0
15, 84360, Note_on_c, 13, 62, 76
15, 84411, Note_on_c, 13, 62, 0
15, 84420, Note_on_c, 13, 62, 76
15, 84471, Note_on_c, 13, 62, 0
15, 84480, Note_on_c, 13, 58, 76
15, 84531, Note_on_c, 13, 58, 0
15, 84540, Note_on_c, 13, 58, 76
15, 84591, Note_on_c, 13, 58, 0
15, 84600, Note_on_c, 13, 62, 76
15, 84651, Note_on_c, 13, 62, 0
15, 84660, Note_on_c, 13, 62, 76
15, 84711, Note_on_c, 13, 62, 0
15, 84720, Note_on_c, 13, 58, 76
15, 84771, Note_on_c, 13, 58, 0
15, 84780, Note_on_c, 13, 58, 76
15, 84831, Note_on_c, 13, 58, 0
15, 84840, Note_on_c, 13, 62, 76
15, 84891, Note_on_c, 13, 62, 0
15, 84900, Note_on_c, 13, 62, 76
15, 84951, Note_on_c, 13, 62, 0
15, 84960, Note_on_c, 13, 55, 76
15, 85011, Note_on_c, 13, 55, 0
15, 85020, Note_on_c, 13, 55, 76
15, 85071, Note_on_c, 13, 55, 0
15, 85080, Note_on_c, 13, 62, 76
15, 85131, Note_on_c, 13, 62, 0
15, 85140, Note_on_c, 13, 62, 76
15, 85191, Note_on_c, 13, 62, 0
15, 85200, Note_on_c, 13, 55, 76
15, 85251, Note_on_c, 13, 55, 0
15, 85260, Note_on_c, 13, 55, 76
15, 85311, Note_on_c, 13, 55, 0
15, 85320, Note_on_c, 13, 62, 76
15, 85371, Note_on_c, 13, 62, 0
15, 85380, Note_on_c, 13, 62, 76
15, 85431, Note_on_c, 13, 62, 0
15, 85440, Note_on_c, 13, 55, 76
15, 85491, Note_on_c, 13, 55, 0
15, 85500, Note_on_c, 13, 55, 76
15, 85551, Note_on_c, 13, 55, 0
15, 85560, Note_on_c, 13, 62, 76
15, 85611, Note_on_c, 13, 62, 0
15, 85620, Note_on_c, 13, 62, 76
15, 85671, Note_on_c, 13, 62, 0
15, 85680, Note_on_c, 13, 55, 76
15, 85731, Note_on_c, 13, 55, 0
15, 85740, Note_on_c, 13, 55, 76
15, 85791, Note_on_c, 13, 55, 0
15, 85800, Note_on_c, 13, 62, 76
15, 85851, Note_on_c, 13, 62, 0
15, 85860, Note_on_c, 13, 62, 76
15, 85911, Note_on_c, 13, 62, 0
15, 85920, Note_on_c, 13, 55, 76
15, 85971, Note_on_c, 13, 55, 0
15, 85980, Note_on_c, 13, 55, 76
15, 86031, Note_on_c, 13, 55, 0
15, 86040, Note_on_c, 13, 62, 76
15, 86091, Note_on_c, 13, 62, 0
15, 86100, Note_on_c, 13, 62, 76
15, 86151, Note_on_c, 13, 62, 0
15, 86160, Note_on_c, 13, 55, 76
15, 86211, Note_on_c, 13, 55, 0
15, 86220, Note_on_c, 13, 55, 76
15, 86271, Note_on_c, 13, 55, 0
15, 86280, Note_on_c, 13, 62, 76
15, 86331, Note_on_c, 13, 62, 0
15, 86340, Note_on_c, 13, 62, 76
15, 86391, Note_on_c, 13, 62, 0
15, 86400, Note_on_c, 13, 64, 76
15, 86451, Note_on_c, 13, 64, 0
15, 86460, Note_on_c, 13, 64, 76
15, 86511, Note_on_c, 13, 64, 0
15, 86520, Note_on_c, 13, 60, 76
15, 86571, Note_on_c, 13, 60, 0
15, 86580, Note_on_c, 13, 60, 76
15, 86631, Note_on_c, 13, 60, 0
15, 86640, Note_on_c, 13, 55, 76
15, 86691, Note_on_c, 13, 55, 0
15, 86700, Note_on_c, 13, 55, 76
15, 86751, Note_on_c, 13, 55, 0
15, 86760, Note_on_c, 13, 60, 76
15, 86811, Note_on_c, 13, 60, 0
15, 86820, Note_on_c, 13, 60, 76
15, 86871, Note_on_c, 13, 60, 0
15, 86880, Note_on_c, 13, 55, 76
15, 86931, Note_on_c, 13, 55, 0
15, 86940, Note_on_c, 13, 55, 76
15, 86991, Note_on_c, 13, 55, 0
15, 87000, Note_on_c, 13, 52, 76
15, 87051, Note_on_c, 13, 52, 0
15, 87060, Note_on_c, 13, 52, 76
15, 87111, Note_on_c, 13, 52, 0
15, 87120, Note_on_c, 13, 58, 76
15, 87171, Note_on_c, 13, 58, 0
15, 87180, Note_on_c, 13, 58, 76
15, 87231, Note_on_c, 13, 58, 0
15, 87240, Note_on_c, 13, 55, 76
15, 87291, Note_on_c, 13, 55, 0
15, 87300, Note_on_c, 13, 55, 76
15, 87351, Note_on_c, 13, 55, 0
15, 87360, Note_on_c, 13, 52, 76
15, 87411, Note_on_c, 13, 52, 0
15, 87420, Note_on_c, 13, 52, 76
15, 87471, Note_on_c, 13, 52, 0
15, 87480, Note_on_c, 13, 55, 76
15, 87531, Note_on_c, 13, 55, 0
15, 87540, Note_on_c, 13, 55, 76
15, 87591, Note_on_c, 13, 55, 0
15, 87600, Note_on_c, 13, 58, 76
15, 87651, Note_on_c, 13, 58, 0
15, 87660, Note_on_c, 13, 58, 76
15, 87711, Note_on_c, 13, 58, 0
15, 87720, Note_on_c, 13, 55, 76
15, 87771, Note_on_c, 13, 55, 0
15, 87780, Note_on_c, 13, 55, 76
15, 87831, Note_on_c, 13, 55, 0
15, 87840, Note_on_c, 13, 57, 76
15, 87891, Note_on_c, 13, 57, 0
15, 87900, Note_on_c, 13, 57, 76
15, 87951, Note_on_c, 13, 57, 0
15, 87960, Note_on_c, 13, 60, 76
15, 88011, Note_on_c, 13, 60, 0
15, 88020, Note_on_c, 13, 60, 76
15, 88071, Note_on_c, 13, 60, 0
15, 88080, Note_on_c, 13, 57, 76
15, 88131, Note_on_c, 13, 57, 0
15, 88140, Note_on_c, 13, 57, 76
15, 88191, Note_on_c, 13, 57, 0
15, 88200, Note_on_c, 13, 60, 76
15, 88251, Note_on_c, 13, 60, 0
15, 88260, Note_on_c, 13, 60, 76
15, 88311, Note_on_c, 13, 60, 0
15, 88320, Note_on_c, 13, 57, 76
15, 88371, Note_on_c, 13, 57, 0
15, 88380, Note_on_c, 13, 57, 76
15, 88431, Note_on_c, 13, 57, 0
15, 88440, Note_on_c, 13, 60, 76
15, 88491, Note_on_c, 13, 60, 0
15, 88500, Note_on_c, 13, 60, 76
15, 88551, Note_on_c, 13, 60, 0
15, 88560, Note_on_c, 13, 57, 76
15, 88611, Note_on_c, 13, 57, 0
15, 88620, Note_on_c, 13, 57, 76
15, 88671, Note_on_c, 13, 57, 0
15, 88680, Note_on_c, 13, 60, 76
15, 88731, Note_on_c, 13, 60, 0
15, 88740, Note_on_c, 13, 60, 76
15, 88791, Note_on_c, 13, 60, 0
15, 88800, Note_on_c, 13, 57, 76
15, 88851, Note_on_c, 13, 57, 0
15, 88860, Note_on_c, 13, 57, 76
15, 88911, Note_on_c, 13, 57, 0
15, 88920, Note_on_c, 13, 60, 76
15, 88971, Note_on_c, 13, 60, 0
15, 88980, Note_on_c, 13, 60, 76
15, 89031, Note_on_c, 13, 60, 0
15, 89040, Note_on_c, 13, 57, 76
15, 89091, Note_on_c, 13, 57, 0
15, 89100, Note_on_c, 13, 57, 76
15, 89151, Note_on_c, 13, 57, 0
15, 89160, Note_on_c, 13, 60, 76
15, 89211, Note_on_c, 13, 60, 0
15, 89220, Note_on_c, 13, 60, 76
15, 89271, Note_on_c, 13, 60, 0
15, 89280, Note_on_c, 13, 58, 76
15, 89331, Note_on_c, 13, 58, 0
15, 89340, Note_on_c, 13, 58, 76
15, 89391, Note_on_c, 13, 58, 0
15, 89400, Note_on_c, 13, 62, 76
15, 89451, Note_on_c, 13, 62, 0
15, 89460, Note_on_c, 13, 62, 76
15, 89511, Note_on_c, 13, 62, 0
15, 89520, Note_on_c, 13, 58, 76
15, 89571, Note_on_c, 13, 58, 0
15, 89580, Note_on_c, 13, 58, 76
15, 89631, Note_on_c, 13, 58, 0
15, 89640, Note_on_c, 13, 62, 76
15, 89691, Note_on_c, 13, 62, 0
15, 89700, Note_on_c, 13, 62, 76
15, 89751, Note_on_c, 13, 62, 0
15, 89760, Note_on_c, 13, 58, 76
15, 89811, Note_on_c, 13, 58, 0
15, 89820, Note_on_c, 13, 58, 76
15, 89871, Note_on_c, 13, 58, 0
15, 89880, Note_on_c, 13, 62, 76
15, 89931, Note_on_c, 13, 62, 0
15, 89940, Note_on_c, 13, 62, 76
15, 89991, Note_on_c, 13, 62, 0
15, 90000, Note_on_c, 13, 58, 76
15, 90051, Note_on_c, 13, 58, 0
15, 90060, Note_on_c, 13, 58, 76
15, 90111, Note_on_c, 13, 58, 0
15, 90120, Note_on_c, 13, 62, 76
15, 90171, Note_on_c, 13, 62, 0
15, 90180, Note_on_c, 13, 62, 76
15, 90231, Note_on_c, 13, 62, 0
15, 90240, Note_on_c, 13, 58, 76
15, 90291, Note_on_c, 13, 58, 0
15, 90300, Note_on_c, 13, 58, 76
15, 90351, Note_on_c, 13, 58, 0
15, 90360, Note_on_c, 13, 62, 76
15, 90411, Note_on_c, 13, 62, 0
15, 90420, Note_on_c, 13, 62, 76
15, 90471, Note_on_c, 13, 62, 0
15, 90480, Note_on_c, 13, 58, 76
15, 90531, Note_on_c, 13, 58, 0
15, 90540, Note_on_c, 13, 58, 76
15, 90591, Note_on_c, 13, 58, 0
15, 90600, Note_on_c, 13, 62, 76
15, 90651, Note_on_c, 13, 62, 0
15, 90660, Note_on_c, 13, 62, 76
15, 90711, Note_on_c, 13, 62, 0
15, 90720, Note_on_c, 13, 56, 76
15, 90771, Note_on_c, 13, 56, 0
15, 90780, Note_on_c, 13, 56, 76
15, 90831, Note_on_c, 13, 56, 0
15, 90840, Note_on_c, 13, 62, 76
15, 90891, Note_on_c, 13, 62, 0
15, 90900, Note_on_c, 13, 62, 76
15, 90951, Note_on_c, 13, 62, 0
15, 90960, Note_on_c, 13, 56, 76
15, 91011, Note_on_c, 13, 56, 0
15, 91020, Note_on_c, 13, 56, 76
15, 91071, Note_on_c, 13, 56, 0
15, 91080, Note_on_c, 13, 62, 76
15, 91131, Note_on_c, 13, 62, 0
15, 91140, Note_on_c, 13, 62, 76
15, 91191, Note_on_c, 13, 62, 0
15, 91200, Note_on_c, 13, 56, 76
15, 91251, Note_on_c, 13, 56, 0
15, 91260, Note_on_c, 13, 56, 76
15, 91311, Note_on_c, 13, 56, 0
15, 91320, Note_on_c, 13, 62, 76
15, 91371, Note_on_c, 13, 62, 0
15, 91380, Note_on_c, 13, 62, 76
15, 91431, Note_on_c, 13, 62, 0
15, 91440, Note_on_c, 13, 56, 76
15, 91491, Note_on_c, 13, 56, 0
15, 91500, Note_on_c, 13, 56, 76
15, 91551, Note_on_c, 13, 56, 0
15, 91560, Note_on_c, 13, 62, 76
15, 91611, Note_on_c, 13, 62, 0
15, 91620, Note_on_c, 13, 62, 76
15, 91671, Note_on_c, 13, 62, 0
15, 91680, Note_on_c, 13, 56, 76
15, 91731, Note_on_c, 13, 56, 0
15, 91740, Note_on_c, 13, 56, 76
15, 91791, Note_on_c, 13, 56, 0
15, 91800, Note_on_c, 13, 62, 76
15, 91851, Note_on_c, 13, 62, 0
15, 91860, Note_on_c, 13, 62, 76
15, 91911, Note_on_c, 13, 62, 0
15, 91920, Note_on_c, 13, 56, 76
15, 91971, Note_on_c, 13, 56, 0
15, 91980, Note_on_c, 13, 56, 76
15, 92031, Note_on_c, 13, 56, 0
15, 92040, Note_on_c, 13, 62, 76
15, 92091, Note_on_c, 13, 62, 0
15, 92100, Note_on_c, 13, 62, 76
15, 92151, Note_on_c, 13, 62, 0
15, 92160, Note_on_c, 13, 56, 76
15, 92211, Note_on_c, 13, 56, 0
15, 92220, Note_on_c, 13, 56, 76
15, 92271, Note_on_c, 13, 56, 0
15, 92280, Note_on_c, 13, 62, 76
15, 92331, Note_on_c, 13, 62, 0
15, 92340, Note_on_c, 13, 62, 76
15, 92391, Note_on_c, 13, 62, 0
15, 92400, Note_on_c, 13, 56, 76
15, 92451, Note_on_c, 13, 56, 0
15, 92460, Note_on_c, 13, 56, 76
15, 92511, Note_on_c, 13, 56, 0
15, 92520, Note_on_c, 13, 62, 76
15, 92571, Note_on_c, 13, 62, 0
15, 92580, Note_on_c, 13, 62, 76
15, 92631, Note_on_c, 13, 62, 0
15, 92640, Note_on_c, 13, 56, 76
15, 92691, Note_on_c, 13, 56, 0
15, 92700, Note_on_c, 13, 56, 76
15, 92751, Note_on_c, 13, 56, 0
15, 92760, Note_on_c, 13, 62, 76
15, 92811, Note_on_c, 13, 62, 0
15, 92820, Note_on_c, 13, 62, 76
15, 92871, Note_on_c, 13, 62, 0
15, 92880, Note_on_c, 13, 56, 76
15, 92931, Note_on_c, 13, 56, 0
15, 92940, Note_on_c, 13, 56, 76
15, 92991, Note_on_c, 13, 56, 0
15, 93000, Note_on_c, 13, 62, 76
15, 93051, Note_on_c, 13, 62, 0
15, 93060, Note_on_c, 13, 62, 76
15, 93111, Note_on_c, 13, 62, 0
15, 93120, Note_on_c, 13, 56, 76
15, 93171, Note_on_c, 13, 56, 0
15, 93180, Note_on_c, 13, 56, 76
15, 93231, Note_on_c, 13, 56, 0
15, 93240, Note_on_c, 13, 62, 76
15, 93291, Note_on_c, 13, 62, 0
15, 93300, Note_on_c, 13, 62, 76
15, 93351, Note_on_c, 13, 62, 0
15, 93360, Note_on_c, 13, 56, 76
15, 93411, Note_on_c, 13, 56, 0
15, 93420, Note_on_c, 13, 56, 76
15, 93471, Note_on_c, 13, 56, 0
15, 93480, Note_on_c, 13, 62, 76
15, 93531, Note_on_c, 13, 62, 0
15, 93540, Note_on_c, 13, 62, 76
15, 93591, Note_on_c, 13, 62, 0
15, 93600, Note_on_c, 13, 56, 76
15, 93651, Note_on_c, 13, 56, 0
15, 93660, Note_on_c, 13, 56, 76
15, 93711, Note_on_c, 13, 56, 0
15, 93720, Note_on_c, 13, 62, 76
15, 93771, Note_on_c, 13, 62, 0
15, 93780, Note_on_c, 13, 62, 76
15, 93831, Note_on_c, 13, 62, 0
15, 93840, Note_on_c, 13, 56, 76
15, 93891, Note_on_c, 13, 56, 0
15, 93900, Note_on_c, 13, 56, 76
15, 93951, Note_on_c, 13, 56, 0
15, 93960, Note_on_c, 13, 62, 76
15, 94011, Note_on_c, 13, 62, 0
15, 94020, Note_on_c, 13, 62, 76
15, 94071, Note_on_c, 13, 62, 0
15, 94080, Note_on_c, 13, 56, 84
15, 94131, Note_on_c, 13, 56, 0
15, 94140, Note_on_c, 13, 56, 76
15, 94191, Note_on_c, 13, 56, 0
15, 94200, Note_on_c, 13, 62, 76
15, 94251, Note_on_c, 13, 62, 0
15, 94260, Note_on_c, 13, 62, 76
15, 94311, Note_on_c, 13, 62, 0
15, 94320, Note_on_c, 13, 56, 76
15, 94371, Note_on_c, 13, 56, 0
15, 94380, Note_on_c, 13, 56, 76
15, 94431, Note_on_c, 13, 56, 0
15, 94440, Note_on_c, 13, 62, 76
15, 94491, Note_on_c, 13, 62, 0
15, 94500, Note_on_c, 13, 62, 76
15, 94551, Note_on_c, 13, 62, 0
15, 94560, Note_on_c, 13, 56, 76
15, 94611, Note_on_c, 13, 56, 0
15, 94620, Note_on_c, 13, 56, 76
15, 94671, Note_on_c, 13, 56, 0
15, 94680, Note_on_c, 13, 62, 76
15, 94731, Note_on_c, 13, 62, 0
15, 94740, Note_on_c, 13, 62, 76
15, 94791, Note_on_c, 13, 62, 0
15, 94800, Note_on_c, 13, 56, 84
15, 94851, Note_on_c, 13, 56, 0
15, 94860, Note_on_c, 13, 56, 76
15, 94911, Note_on_c, 13, 56, 0
15, 94920, Note_on_c, 13, 62, 76
15, 94971, Note_on_c, 13, 62, 0
15, 94980, Note_on_c, 13, 62, 76
15, 95031, Note_on_c, 13, 62, 0
15, 95040, Note_on_c, 13, 56, 76
15, 95159, Note_on_c, 13, 56, 0
15, 95520, Note_on_c, 13, 56, 84
15, 95639, Note_on_c, 13, 56, 0
15, 95760, Note_on_c, 13, 56, 76
15, 95879, Note_on_c, 13, 56, 0
15, 96240, Note_on_c, 13, 56, 84
15, 96359, Note_on_c, 13, 56, 0
15, 96480, Note_on_c, 13, 56, 76
15, 96599, Note_on_c, 13, 56, 0
15, 97920, Note_on_c, 13, 55, 52
15, 97920, Note_on_c, 13, 52, 52
15, 98099, Note_on_c, 13, 55, 0
15, 98099, Note_on_c, 13, 52, 0
15, 98400, Note_on_c, 13, 55, 52
15, 98400, Note_on_c, 13, 52, 52
15, 98579, Note_on_c, 13, 55, 0
15, 98579, Note_on_c, 13, 52, 0
15, 98640, Note_on_c, 13, 52, 52
15, 98640, Note_on_c, 13, 55, 52
15, 98819, Note_on_c, 13, 52, 0
15, 98819, Note_on_c, 13, 55, 0
15, 99120, Note_on_c, 13, 52, 52
15, 99120, Note_on_c, 13, 55, 52
15, 99299, Note_on_c, 13, 52, 0
15, 99299, Note_on_c, 13, 55, 0
15, 99360, Note_on_c, 13, 55, 52
15, 99360, Note_on_c, 13, 52, 52
15, 99539, Note_on_c, 13, 55, 0
15, 99539, Note_on_c, 13, 52, 0
15, 100080, Program_c, 13, 45
15, 100560, Note_on_c, 13, 61, 44
15, 100799, Note_on_c, 13, 61, 0
15, 100800, Note_on_c, 13, 62, 44
15, 101039, Note_on_c, 13, 62, 0
15, 101520, Note_on_c, 13, 64, 44
15, 101520, Note_on_c, 13, 61, 44
15, 101759, Note_on_c, 13, 64, 0
15, 101759, Note_on_c, 13, 61, 0
15, 102240, Note_on_c, 13, 62, 44
15, 102240, Note_on_c, 13, 66, 44
15, 102479, Note_on_c, 13, 62, 0
15, 102479, Note_on_c, 13, 66, 0
15, 102960, Note_on_c, 13, 64, 44
15, 102960, Note_on_c, 13, 61, 44
15, 103199, Note_on_c, 13, 64, 0
15, 103199, Note_on_c, 13, 61, 0
15, 103440, Note_on_c, 13, 60, 44
15, 103679, Note_on_c, 13, 60, 0
15, 103680, Note_on_c, 13, 50, 44
15, 103919, Note_on_c, 13, 50, 0
15, 104160, Note_on_c, 13, 62, 44
15, 104399, Note_on_c, 13, 62, 0
15, 104400, Note_on_c, 13, 55, 44
15, 104639, Note_on_c, 13, 55, 0
15, 104880, Note_on_c, 13, 57, 44
15, 105119, Note_on_c, 13, 57, 0
15, 105120, Note_on_c, 13, 50, 44
15, 105359, Note_on_c, 13, 50, 0
15, 106560, Note_on_c, 13, 64, 44
15, 106799, Note_on_c, 13, 64, 0
15, 106800, Note_on_c, 13, 60, 44
15, 107039, Note_on_c, 13, 60, 0
15, 107040, Note_on_c, 13, 55, 44
15, 107279, Note_on_c, 13, 55, 0
15, 107280, Note_on_c, 13, 59, 44
15, 107519, Note_on_c, 13, 59, 0
15, 107520, Note_on_c, 13, 62, 44
15, 107759, Note_on_c, 13, 62, 0
15, 107760, Note_on_c, 13, 65, 44
15, 107999, Note_on_c, 13, 65, 0
15, 108000, Note_on_c, 13, 60, 44
15, 108239, Note_on_c, 13, 60, 0
15, 108240, Note_on_c, 13, 64, 44
15, 108479, Note_on_c, 13, 64, 0
15, 108480, Note_on_c, 13, 60, 44
15, 108719, Note_on_c, 13, 60, 0
15, 108720, Note_on_c, 13, 59, 44
15, 108959, Note_on_c, 13, 59, 0
15, 108960, Note_on_c, 13, 62, 44
15, 109199, Note_on_c, 13, 62, 0
15, 109200, Note_on_c, 13, 55, 44
15, 109439, Note_on_c, 13, 55, 0
15, 109440, Note_on_c, 13, 57, 44
15, 109679, Note_on_c, 13, 57, 0
15, 109680, Note_on_c, 13, 50, 44
15, 109919, Note_on_c, 13, 50, 0
15, 109920, Note_on_c, 13, 59, 44
15, 110159, Note_on_c, 13, 59, 0
15, 110160, Note_on_c, 13, 55, 44
15, 110399, Note_on_c, 13, 55, 0
15, 110400, Note_on_c, 13, 52, 44
15, 110639, Note_on_c, 13, 52, 0
15, 110640, Note_on_c, 13, 48, 44
15, 110879, Note_on_c, 13, 48, 0
15, 111360, Program_c, 13, 48
15, 111600, Note_on_c, 13, 57, 44
15, 111689, Note_on_c, 13, 57, 0
15, 111720, Note_on_c, 13, 60, 44
15, 111809, Note_on_c, 13, 60, 0
15, 111840, Note_on_c, 13, 63, 44
15, 111929, Note_on_c, 13, 63, 0
15, 111960, Note_on_c, 13, 66, 44
15, 112049, Note_on_c, 13, 66, 0
15, 112080, Note_on_c, 13, 69, 44
15, 112169, Note_on_c, 13, 69, 0
15, 112200, Note_on_c, 13, 72, 44
15, 112289, Note_on_c, 13, 72, 0
15, 112320, Note_on_c, 13, 75, 44
15, 112499, Note_on_c, 13, 75, 0
15, 112800, Note_on_c, 13, 72, 44
15, 112979, Note_on_c, 13, 72, 0
15, 113040, Note_on_c, 13, 69, 44
15, 113219, Note_on_c, 13, 69, 0
15, 114240, Control_c, 13, 11, 64
15, 114480, Note_on_c, 13, 57, 76
15, 114569, Note_on_c, 13, 57, 0
15, 114600, Note_on_c, 13, 60, 76
15, 114689, Note_on_c, 13, 60, 0
15, 114720, Note_on_c, 13, 63, 76
15, 114809, Note_on_c, 13, 63, 0
15, 114840, Note_on_c, 13, 66, 76
15, 114929, Note_on_c, 13, 66, 0
15, 114960, Note_on_c, 13, 69, 76
15, 115049, Note_on_c, 13, 69, 0
15, 115080, Note_on_c, 13, 72, 76
15, 115169, Note_on_c, 13, 72, 0
15, 115200, Note_on_c, 13, 75, 76
15, 115200, Control_c, 13, 11, 64
15, 115260, Control_c, 13, 11, 69
15, 115320, Control_c, 13, 11, 75
15, 115379, Note_on_c, 13, 75, 0
15, 115380, Control_c, 13, 11, 80
15, 115440, Control_c, 13, 11, 85
15, 115500, Control_c, 13, 11, 90
15, 115560, Control_c, 13, 11, 96
15, 115620, Control_c, 13, 11, 101
15, 115680, Note_on_c, 13, 72, 76
15, 115680, Control_c, 13, 11, 106
15, 115740, Control_c, 13, 11, 111
15, 115800, Control_c, 13, 11, 117
15, 115859, Note_on_c, 13, 72, 0
15, 115860, Control_c, 13, 11, 127
15, 115920, Note_on_c, 13, 69, 76
15, 116099, Note_on_c, 13, 69, 0
15, 116640, Note_on_c, 13, 65, 84
15, 116819, Note_on_c, 13, 65, 0
15, 117120, Note_on_c, 13, 62, 76
15, 117299, Note_on_c, 13, 62, 0
15, 117360, Note_on_c, 13, 59, 76
15, 117539, Note_on_c, 13, 59, 0
15, 118080, Note_on_c, 13, 64, 84
15, 118131, Note_on_c, 13, 64, 0
15, 118140, Note_on_c, 13, 64, 76
15, 118191, Note_on_c, 13, 64, 0
15, 118200, Note_on_c, 13, 64, 76
15, 118251, Note_on_c, 13, 64, 0
15, 118260, Note_on_c, 13, 64, 76
15, 118311, Note_on_c, 13, 64, 0
15, 118320, Note_on_c, 13, 64, 76
15, 118371, Note_on_c, 13, 64, 0
15, 118380, Note_on_c, 13, 64, 76
15, 118431, Note_on_c, 13, 64, 0
15, 118440, Note_on_c, 13, 64, 76
15, 118491, Note_on_c, 13, 64, 0
15, 118500, Note_on_c, 13, 64, 76
15, 118551, Note_on_c, 13, 64, 0
15, 118560, Note_on_c, 13, 61, 76
15, 118611, Note_on_c, 13, 61, 0
15, 118620, Note_on_c, 13, 61, 76
15, 118671, Note_on_c, 13, 61, 0
15, 118680, Note_on_c, 13, 61, 76
15, 118731, Note_on_c, 13, 61, 0
15, 118740, Note_on_c, 13, 61, 76
15, 118791, Note_on_c, 13, 61, 0
15, 118800, Note_on_c, 13, 65, 84
15, 118851, Note_on_c, 13, 65, 0
15, 118860, Note_on_c, 13, 65, 76
15, 118911, Note_on_c, 13, 65, 0
15, 118920, Note_on_c, 13, 65, 76
15, 118971, Note_on_c, 13, 65, 0
15, 118980, Note_on_c, 13, 65, 76
15, 119031, Note_on_c, 13, 65, 0
15, 119040, Note_on_c, 13, 65, 76
15, 119091, Note_on_c, 13, 65, 0
15, 119100, Note_on_c, 13, 65, 76
15, 119151, Note_on_c, 13, 65, 0
15, 119160, Note_on_c, 13, 65, 76
15, 119211, Note_on_c, 13, 65, 0
15, 119220, Note_on_c, 13, 65, 76
15, 119271, Note_on_c, 13, 65, 0
15, 119280, Note_on_c, 13, 62, 76
15, 119331, Note_on_c, 13, 62, 0
15, 119340, Note_on_c, 13, 62, 76
15, 119391, Note_on_c, 13, 62, 0
15, 119400, Note_on_c, 13, 62, 76
15, 119451, Note_on_c, 13, 62, 0
15, 119460, Note_on_c, 13, 62, 76
15, 119511, Note_on_c, 13, 62, 0
15, 119520, Note_on_c, 13, 66, 84
15, 119571, Note_on_c, 13, 66, 0
15, 119580, Note_on_c, 13, 66, 76
15, 119631, Note_on_c, 13, 66, 0
15, 119640, Note_on_c, 13, 66, 76
15, 119691, Note_on_c, 13, 66, 0
15, 119700, Note_on_c, 13, 66, 76
15, 119751, Note_on_c, 13, 66, 0
15, 119760, Note_on_c, 13, 66, 76
15, 119811, Note_on_c, 13, 66, 0
15, 119820, Note_on_c, 13, 66, 76
15, 119871, Note_on_c, 13, 66, 0
15, 119880, Note_on_c, 13, 66, 76
15, 119931, Note_on_c, 13, 66, 0
15, 119940, Note_on_c, 13, 66, 76
15, 119991, Note_on_c, 13, 66, 0
15, 120000, Note_on_c, 13, 57, 76
15, 120051, Note_on_c, 13, 57, 0
15, 120060, Note_on_c, 13, 57, 76
15, 120111, Note_on_c, 13, 57, 0
15, 120120, Note_on_c, 13, 57, 76
15, 120171, Note_on_c, 13, 57, 0
15, 120180, Note_on_c, 13, 57, 76
15, 120231, Note_on_c, 13, 57, 0
15, 120240, Note_on_c, 13, 67, 84
15, 120291, Note_on_c, 13, 67, 0
15, 120300, Note_on_c, 13, 67, 76
15, 120351, Note_on_c, 13, 67, 0
15, 120360, Note_on_c, 13, 67, 76
15, 120411, Note_on_c, 13, 67, 0
15, 120420, Note_on_c, 13, 67, 76
15, 120471, Note_on_c, 13, 67, 0
15, 120480, Note_on_c, 13, 67, 76
15, 120531, Note_on_c, 13, 67, 0
15, 120540, Note_on_c, 13, 67, 76
15, 120591, Note_on_c, 13, 67, 0
15, 120600, Note_on_c, 13, 67, 76
15, 120651, Note_on_c, 13, 67, 0
15, 120660, Note_on_c, 13, 67, 76
15, 120711, Note_on_c, 13, 67, 0
15, 120720, Note_on_c, 13, 62, 76
15, 120720, Note_on_c, 13, 59, 76
15, 120771, Note_on_c, 13, 62, 0
15, 120771, Note_on_c, 13, 59, 0
15, 120780, Note_on_c, 13, 62, 76
15, 120780, Note_on_c, 13, 59, 76
15, 120831, Note_on_c, 13, 62, 0
15, 120831, Note_on_c, 13, 59, 0
15, 120840, Note_on_c, 13, 59, 76
15, 120840, Note_on_c, 13, 62, 76
15, 120891, Note_on_c, 13, 59, 0
15, 120891, Note_on_c, 13, 62, 0
15, 120900, Note_on_c, 13, 59, 76
15, 120900, Note_on_c, 13, 62, 76
15, 120951, Note_on_c, 13, 59, 0
15, 120951, Note_on_c, 13, 62, 0
15, 120960, Note_on_c, 13, 67, 84
15, 121011, Note_on_c, 13, 67, 0
15, 121020, Note_on_c, 13, 67, 84
15, 121071, Note_on_c, 13, 67, 0
15, 121080, Note_on_c, 13, 67, 84
15, 121131, Note_on_c, 13, 67, 0
15, 121140, Note_on_c, 13, 67, 84
15, 121191, Note_on_c, 13, 67, 0
15, 121200, Note_on_c, 13, 67, 84
15, 121251, Note_on_c, 13, 67, 0
15, 121260, Note_on_c, 13, 67, 84
15, 121311, Note_on_c, 13, 67, 0
15, 121320, Note_on_c, 13, 67, 84
15, 121371, Note_on_c, 13, 67, 0
15, 121380, Note_on_c, 13, 67, 84
15, 121431, Note_on_c, 13, 67, 0
15, 121440, Note_on_c, 13, 62, 84
15, 121440, Note_on_c, 13, 59, 84
15, 121491, Note_on_c, 13, 62, 0
15, 121491, Note_on_c, 13, 59, 0
15, 121500, Note_on_c, 13, 62, 84
15, 121500, Note_on_c, 13, 59, 84
15, 121551, Note_on_c, 13, 62, 0
15, 121551, Note_on_c, 13, 59, 0
15, 121560, Note_on_c, 13, 62, 84
15, 121560, Note_on_c, 13, 59, 84
15, 121611, Note_on_c, 13, 62, 0
15, 121611, Note_on_c, 13, 59, 0
15, 121620, Note_on_c, 13, 59, 84
15, 121620, Note_on_c, 13, 62, 84
15, 121671, Note_on_c, 13, 59, 0
15, 121671, Note_on_c, 13, 62, 0
15, 121680, Note_on_c, 13, 60, 84
15, 121731, Note_on_c, 13, 60, 0
15, 121740, Note_on_c, 13, 60, 84
15, 121791, Note_on_c, 13, 60, 0
15, 121800, Note_on_c, 13, 60, 84
15, 121851, Note_on_c, 13, 60, 0
15, 121860, Note_on_c, 13, 60, 84
15, 121911, Note_on_c, 13, 60, 0
15, 121920, Note_on_c, 13, 60, 84
15, 121971, Note_on_c, 13, 60, 0
15, 121980, Note_on_c, 13, 60, 84
15, 122031, Note_on_c, 13, 60, 0
15, 122040, Note_on_c, 13, 60, 84
15, 122091, Note_on_c, 13, 60, 0
15, 122100, Note_on_c, 13, 60, 84
15, 122151, Note_on_c, 13, 60, 0
15, 122160, Note_on_c, 13, 57, 84
15, 122211, Note_on_c, 13, 57, 0
15, 122220, Note_on_c, 13, 57, 84
15, 122271, Note_on_c, 13, 57, 0
15, 122280, Note_on_c, 13, 57, 84
15, 122331, Note_on_c, 13, 57, 0
15, 122340, Note_on_c, 13, 57, 84
15, 122391, Note_on_c, 13, 57, 0
15, 122400, Note_on_c, 13, 53, 84
15, 122451, Note_on_c, 13, 53, 0
15, 122460, Note_on_c, 13, 53, 84
15, 122511, Note_on_c, 13, 53, 0
15, 122520, Note_on_c, 13, 53, 84
15, 122571, Note_on_c, 13, 53, 0
15, 122580, Note_on_c, 13, 53, 84
15, 122631, Note_on_c, 13, 53, 0
15, 122640, Note_on_c, 13, 53, 84
15, 122691, Note_on_c, 13, 53, 0
15, 122700, Note_on_c, 13, 53, 84
15, 122751, Note_on_c, 13, 53, 0
15, 122760, Note_on_c, 13, 53, 84
15, 122811, Note_on_c, 13, 53, 0
15, 122820, Note_on_c, 13, 53, 84
15, 122871, Note_on_c, 13, 53, 0
15, 122880, Note_on_c, 13, 50, 84
15, 122931, Note_on_c, 13, 50, 0
15, 122940, Note_on_c, 13, 50, 84
15, 122991, Note_on_c, 13, 50, 0
15, 123000, Note_on_c, 13, 50, 84
15, 123051, Note_on_c, 13, 50, 0
15, 123060, Note_on_c, 13, 50, 84
15, 123111, Note_on_c, 13, 50, 0
15, 123120, Note_on_c, 13, 55, 84
15, 123171, Note_on_c, 13, 55, 0
15, 123180, Note_on_c, 13, 55, 84
15, 123231, Note_on_c, 13, 55, 0
15, 123240, Note_on_c, 13, 55, 84
15, 123291, Note_on_c, 13, 55, 0
15, 123300, Note_on_c, 13, 55, 84
15, 123351, Note_on_c, 13, 55, 0
15, 123360, Note_on_c, 13, 55, 84
15, 123411, Note_on_c, 13, 55, 0
15, 123420, Note_on_c, 13, 55, 84
15, 123471, Note_on_c, 13, 55, 0
15, 123480, Note_on_c, 13, 55, 84
15, 123531, Note_on_c, 13, 55, 0
15, 123540, Note_on_c, 13, 55, 84
15, 123591, Note_on_c, 13, 55, 0
15, 123600, Note_on_c, 13, 55, 84
15, 123651, Note_on_c, 13, 55, 0
15, 123660, Note_on_c, 13, 55, 84
15, 123711, Note_on_c, 13, 55, 0
15, 123720, Note_on_c, 13, 55, 84
15, 123771, Note_on_c, 13, 55, 0
15, 123780, Note_on_c, 13, 55, 84
15, 123831, Note_on_c, 13, 55, 0
15, 123840, Note_on_c, 13, 60, 84
15, 124011, Note_on_c, 13, 60, 0
15, 124020, Note_on_c, 13, 60, 84
15, 124071, Note_on_c, 13, 60, 0
15, 124080, Note_on_c, 13, 59, 84
15, 124259, Note_on_c, 13, 59, 0
15, 124320, Note_on_c, 13, 59, 84
15, 124491, Note_on_c, 13, 59, 0
15, 124500, Note_on_c, 13, 59, 84
15, 124551, Note_on_c, 13, 59, 0
15, 124560, Note_on_c, 13, 60, 84
15, 124739, Note_on_c, 13, 60, 0
15, 124800, Note_on_c, 13, 60, 84
15, 124971, Note_on_c, 13, 60, 0
15, 124980, Note_on_c, 13, 62, 84
15, 125031, Note_on_c, 13, 62, 0
15, 125040, Note_on_c, 13, 64, 84
15, 125219, Note_on_c, 13, 64, 0
15, 125280, Note_on_c, 13, 60, 84
15, 125451, Note_on_c, 13, 60, 0
15, 125460, Note_on_c, 13, 62, 84
15, 125511, Note_on_c, 13, 62, 0
15, 125520, Note_on_c, 13, 64, 84
15, 125699, Note_on_c, 13, 64, 0
15, 131040, Note_on_c, 13, 60, 84
15, 131211, Note_on_c, 13, 60, 0
15, 131220, Note_on_c, 13, 60, 84
15, 131271, Note_on_c, 13, 60, 0
15, 131280, Note_on_c, 13, 59, 84
15, 131459, Note_on_c, 13, 59, 0
15, 131520, Note_on_c, 13, 59, 84
15, 131691, Note_on_c, 13, 59, 0
15, 131700, Note_on_c, 13, 59, 84
15, 131751, Note_on_c, 13, 59, 0
15, 131760, Note_on_c, 13, 60, 84
15, 131939, Note_on_c, 13, 60, 0
15, 132000, Note_on_c, 13, 60, 84
15, 132171, Note_on_c, 13, 60, 0
15, 132180, Note_on_c, 13, 62, 84
15, 132231, Note_on_c, 13, 62, 0
15, 132240, Note_on_c, 13, 64, 84
15, 132419, Note_on_c, 13, 64, 0
15, 132480, Note_on_c, 13, 60, 84
15, 132651, Note_on_c, 13, 60, 0
15, 132660, Note_on_c, 13, 62, 84
15, 132711, Note_on_c, 13, 62, 0
15, 132720, Note_on_c, 13, 64, 84
15, 132899, Note_on_c, 13, 64, 0
15, 132960, Note_on_c, 13, 67, 48
15, 133199, Note_on_c, 13, 67, 0
15, 133200, Note_on_c, 13, 66, 48
15, 133679, Note_on_c, 13, 66, 0
15, 133680, Note_on_c, 13, 67, 48
15, 133919, Note_on_c, 13, 67, 0
15, 133920, Note_on_c, 13, 65, 48
15, 134399, Note_on_c, 13, 65, 0
15, 134400, Note_on_c, 13, 64, 48
15, 134639, Note_on_c, 13, 64, 0
15, 134640, Note_on_c, 13, 62, 48
15, 135119, Note_on_c, 13, 62, 0
15, 135120, Note_on_c, 13, 60, 48
15, 135359, Note_on_c, 13, 60, 0
15, 135360, Note_on_c, 13, 59, 48
15, 135839, Note_on_c, 13, 59, 0
15, 135840, Note_on_c, 13, 60, 48
15, 136079, Note_on_c, 13, 60, 0
15, 136080, Note_on_c, 13, 62, 48
15, 136559, Note_on_c, 13, 62, 0
15, 136560, Note_on_c, 13, 64, 48
15, 136799, Note_on_c, 13, 64, 0
15, 136800, Note_on_c, 13, 65, 48
15, 137279, Note_on_c, 13, 65, 0
15, 137280, Note_on_c, 13, 62, 48
15, 137519, Note_on_c, 13, 62, 0
15, 137520, Note_on_c, 13, 67, 48
15, 137999, Note_on_c, 13, 67, 0
15, 138000, Note_on_c, 13, 55, 48
15, 138224, Note_on_c, 13, 55, 0
15, 138238, Control_c, 13, 11, 80
15, 138240, Note_on_c, 13, 60, 76
15, 138359, Note_on_c, 13, 60, 0
15, 138360, Note_on_c, 13, 59, 76
15, 138479, Note_on_c, 13, 59, 0
15, 138480, Control_c, 13, 11, 80
15, 138480, Note_on_c, 13, 60, 76
15, 138580, Control_c, 13, 11, 84
15, 138599, Note_on_c, 13, 60, 0
15, 138600, Note_on_c, 13, 59, 76
15, 138680, Control_c, 13, 11, 88
15, 138719, Note_on_c, 13, 59, 0
15, 138720, Note_on_c, 13, 57, 76
15, 138780, Control_c, 13, 11, 92
15, 138839, Note_on_c, 13, 57, 0
15, 138840, Note_on_c, 13, 55, 76
15, 138880, Control_c, 13, 11, 96
15, 138944, Note_on_c, 13, 55, 0
15, 138960, Note_on_c, 13, 55, 76
15, 138980, Control_c, 13, 11, 100
15, 139080, Control_c, 13, 11, 104
15, 139139, Note_on_c, 13, 55, 0
15, 139180, Control_c, 13, 11, 107
15, 139200, Note_on_c, 13, 62, 76
15, 139200, Note_on_c, 13, 65, 76
15, 139280, Control_c, 13, 11, 111
15, 139380, Control_c, 13, 11, 115
15, 139480, Control_c, 13, 11, 119
15, 139559, Note_on_c, 13, 62, 0
15, 139559, Note_on_c, 13, 65, 0
15, 139560, Note_on_c, 13, 64, 76
15, 139560, Note_on_c, 13, 67, 76
15, 139580, Control_c, 13, 11, 127
15, 139664, Note_on_c, 13, 64, 0
15, 139664, Note_on_c, 13, 67, 0
15, 139680, Note_on_c, 13, 60, 76
15, 139680, Note_on_c, 13, 64, 76
15, 139731, Note_on_c, 13, 60, 0
15, 139731, Note_on_c, 13, 64, 0
15, 139740, Note_on_c, 13, 48, 76
15, 139740, Note_on_c, 13, 60, 76
15, 139791, Note_on_c, 13, 48, 0
15, 139791, Note_on_c, 13, 60, 0
15, 139800, Note_on_c, 13, 48, 76
15, 139800, Note_on_c, 13, 60, 76
15, 139851, Note_on_c, 13, 48, 0
15, 139851, Note_on_c, 13, 60, 0
15, 139860, Note_on_c, 13, 48, 76
15, 139860, Note_on_c, 13, 60, 76
15, 139911, Note_on_c, 13, 48, 0
15, 139911, Note_on_c, 13, 60, 0
15, 139920, Note_on_c, 13, 60, 84
15, 139920, Note_on_c, 13, 48, 84
15, 139971, Note_on_c, 13, 60, 0
15, 139971, Note_on_c, 13, 48, 0
15, 139980, Note_on_c, 13, 60, 76
15, 139980, Note_on_c, 13, 48, 76
15, 140031, Note_on_c, 13, 60, 0
15, 140031, Note_on_c, 13, 48, 0
15, 140040, Note_on_c, 13, 60, 76
15, 140040, Note_on_c, 13, 48, 76
15, 140091, Note_on_c, 13, 60, 0
15, 140091, Note_on_c, 13, 48, 0
15, 140100, Note_on_c, 13, 60, 76
15, 140100, Note_on_c, 13, 48, 76
15, 140151, Note_on_c, 13, 60, 0
15, 140151, Note_on_c, 13, 48, 0
15, 140160, Note_on_c, 13, 48, 76
15, 140160, Note_on_c, 13, 60, 76
15, 140211, Note_on_c, 13, 48, 0
15, 140211, Note_on_c, 13, 60, 0
15, 140220, Note_on_c, 13, 60, 76
15, 140220, Note_on_c, 13, 48, 76
15, 140271, Note_on_c, 13, 60, 0
15, 140271, Note_on_c, 13, 48, 0
15, 140280, Note_on_c, 13, 60, 76
15, 140280, Note_on_c, 13, 48, 76
15, 140331, Note_on_c, 13, 60, 0
15, 140331, Note_on_c, 13, 48, 0
15, 140340, Note_on_c, 13, 60, 76
15, 140340, Note_on_c, 13, 48, 76
15, 140391, Note_on_c, 13, 60, 0
15, 140391, Note_on_c, 13, 48, 0
15, 140400, Note_on_c, 13, 55, 84
15, 140451, Note_on_c, 13, 55, 0
15, 140460, Note_on_c, 13, 55, 76
15, 140511, Note_on_c, 13, 55, 0
15, 140520, Note_on_c, 13, 55, 76
15, 140571, Note_on_c, 13, 55, 0
15, 140580, Note_on_c, 13, 55, 76
15, 140631, Note_on_c, 13, 55, 0
15, 140640, Note_on_c, 13, 55, 76
15, 140691, Note_on_c, 13, 55, 0
15, 140700, Note_on_c, 13, 55, 76
15, 140751, Note_on_c, 13, 55, 0
15, 140760, Note_on_c, 13, 55, 76
15, 140811, Note_on_c, 13, 55, 0
15, 140820, Note_on_c, 13, 55, 76
15, 140871, Note_on_c, 13, 55, 0
15, 140880, Note_on_c, 13, 57, 76
15, 140931, Note_on_c, 13, 57, 0
15, 140940, Note_on_c, 13, 57, 76
15, 140991, Note_on_c, 13, 57, 0
15, 141000, Note_on_c, 13, 59, 76
15, 141051, Note_on_c, 13, 59, 0
15, 141060, Note_on_c, 13, 59, 76
15, 141111, Note_on_c, 13, 59, 0
15, 141120, Note_on_c, 13, 60, 84
15, 141171, Note_on_c, 13, 60, 0
15, 141180, Note_on_c, 13, 60, 76
15, 141231, Note_on_c, 13, 60, 0
15, 141240, Note_on_c, 13, 48, 76
15, 141291, Note_on_c, 13, 48, 0
15, 141300, Note_on_c, 13, 48, 76
15, 141351, Note_on_c, 13, 48, 0
15, 141360, Note_on_c, 13, 52, 76
15, 141411, Note_on_c, 13, 52, 0
15, 141420, Note_on_c, 13, 52, 76
15, 141471, Note_on_c, 13, 52, 0
15, 141480, Note_on_c, 13, 55, 76
15, 141531, Note_on_c, 13, 55, 0
15, 141540, Note_on_c, 13, 55, 76
15, 141591, Note_on_c, 13, 55, 0
15, 141600, Note_on_c, 13, 60, 76
15, 141651, Note_on_c, 13, 60, 0
15, 141660, Note_on_c, 13, 60, 76
15, 141711, Note_on_c, 13, 60, 0
15, 141720, Note_on_c, 13, 64, 76
15, 141771, Note_on_c, 13, 64, 0
15, 141780, Note_on_c, 13, 64, 76
15, 141831, Note_on_c, 13, 64, 0
15, 141840, Note_on_c, 13, 55, 84
15, 141891, Note_on_c, 13, 55, 0
15, 141900, Note_on_c, 13, 55, 76
15, 141951, Note_on_c, 13, 55, 0
15, 141960, Note_on_c, 13, 55, 76
15, 142011, Note_on_c, 13, 55, 0
15, 142020, Note_on_c, 13, 55, 76
15, 142071, Note_on_c, 13, 55, 0
15, 142080, Note_on_c, 13, 55, 76
15, 142131, Note_on_c, 13, 55, 0
15, 142140, Note_on_c, 13, 55, 76
15, 142191, Note_on_c, 13, 55, 0
15, 142200, Note_on_c, 13, 55, 76
15, 142251, Note_on_c, 13, 55, 0
15, 142260, Note_on_c, 13, 55, 76
15, 142311, Note_on_c, 13, 55, 0
15, 142320, Note_on_c, 13, 57, 76
15, 142371, Note_on_c, 13, 57, 0
15, 142380, Note_on_c, 13, 57, 76
15, 142431, Note_on_c, 13, 57, 0
15, 142440, Note_on_c, 13, 59, 76
15, 142491, Note_on_c, 13, 59, 0
15, 142500, Note_on_c, 13, 59, 76
15, 142551, Note_on_c, 13, 59, 0
15, 142560, Note_on_c, 13, 60, 84
15, 142611, Note_on_c, 13, 60, 0
15, 142620, Note_on_c, 13, 60, 84
15, 142671, Note_on_c, 13, 60, 0
15, 142680, Note_on_c, 13, 67, 84
15, 142731, Note_on_c, 13, 67, 0
15, 142740, Note_on_c, 13, 67, 84
15, 142791, Note_on_c, 13, 67, 0
15, 142800, Note_on_c, 13, 64, 84
15, 142851, Note_on_c, 13, 64, 0
15, 142860, Note_on_c, 13, 64, 84
15, 142911, Note_on_c, 13, 64, 0
15, 142920, Note_on_c, 13, 72, 84
15, 142971, Note_on_c, 13, 72, 0
15, 142980, Note_on_c, 13, 72, 84
15, 143031, Note_on_c, 13, 72, 0
15, 143040, Note_on_c, 13, 67, 84
15, 143091, Note_on_c, 13, 67, 0
15, 143100, Note_on_c, 13, 67, 84
15, 143151, Note_on_c, 13, 67, 0
15, 143160, Note_on_c, 13, 76, 84
15, 143211, Note_on_c, 13, 76, 0
15, 143220, Note_on_c, 13, 76, 84
15, 143271, Note_on_c, 13, 76, 0
15, 143280, Note_on_c, 13, 72, 84
15, 143331, Note_on_c, 13, 72, 0
15, 143340, Note_on_c, 13, 72, 84
15, 143391, Note_on_c, 13, 72, 0
15, 143400, Note_on_c, 13, 67, 84
15, 143451, Note_on_c, 13, 67, 0
15, 143460, Note_on_c, 13, 67, 84
15, 143511, Note_on_c, 13, 67, 0
15, 143520, Note_on_c, 13, 64, 84
15, 143571, Note_on_c, 13, 64, 0
15, 143580, Note_on_c, 13, 64, 84
15, 143631, Note_on_c, 13, 64, 0
15, 143640, Note_on_c, 13, 72, 84
15, 143691, Note_on_c, 13, 72, 0
15, 143700, Note_on_c, 13, 72, 84
15, 143751, Note_on_c, 13, 72, 0
15, 143760, Note_on_c, 13, 67, 84
15, 143811, Note_on_c, 13, 67, 0
15, 143820, Note_on_c, 13, 67, 84
15, 143871, Note_on_c, 13, 67, 0
15, 143880, Note_on_c, 13, 64, 84
15, 143931, Note_on_c, 13, 64, 0
15, 143940, Note_on_c, 13, 64, 84
15, 143991, Note_on_c, 13, 64, 0
15, 144000, Note_on_c, 13, 60, 84
15, 144051, Note_on_c, 13, 60, 0
15, 144060, Note_on_c, 13, 60, 84
15, 144111, Note_on_c, 13, 60, 0
15, 144120, Note_on_c, 13, 67, 84
15, 144171, Note_on_c, 13, 67, 0
15, 144180, Note_on_c, 13, 67, 84
15, 144231, Note_on_c, 13, 67, 0
15, 144240, Note_on_c, 13, 64, 84
15, 144291, Note_on_c, 13, 64, 0
15, 144300, Note_on_c, 13, 64, 84
15, 144351, Note_on_c, 13, 64, 0
15, 144360, Note_on_c, 13, 60, 84
15, 144411, Note_on_c, 13, 60, 0
15, 144420, Note_on_c, 13, 60, 84
15, 144471, Note_on_c, 13, 60, 0
15, 144480, Note_on_c, 13, 55, 84
15, 144531, Note_on_c, 13, 55, 0
15, 144540, Note_on_c, 13, 55, 84
15, 144591, Note_on_c, 13, 55, 0
15, 144600, Note_on_c, 13, 64, 84
15, 144651, Note_on_c, 13, 64, 0
15, 144660, Note_on_c, 13, 64, 84
15, 144711, Note_on_c, 13, 64, 0
15, 144720, Note_on_c, 13, 60, 84
15, 144771, Note_on_c, 13, 60, 0
15, 144780, Note_on_c, 13, 60, 84
15, 144831, Note_on_c, 13, 60, 0
15, 144840, Note_on_c, 13, 55, 84
15, 144891, Note_on_c, 13, 55, 0
15, 144900, Note_on_c, 13, 55, 84
15, 144951, Note_on_c, 13, 55, 0
15, 144960, Note_on_c, 13, 52, 84
15, 145011, Note_on_c, 13, 52, 0
15, 145020, Note_on_c, 13, 52, 84
15, 145071, Note_on_c, 13, 52, 0
15, 145080, Note_on_c, 13, 60, 84
15, 145131, Note_on_c, 13, 60, 0
15, 145140, Note_on_c, 13, 60, 84
15, 145191, Note_on_c, 13, 60, 0
15, 145200, Note_on_c, 13, 55, 84
15, 145251, Note_on_c, 13, 55, 0
15, 145260, Note_on_c, 13, 55, 84
15, 145311, Note_on_c, 13, 55, 0
15, 145320, Note_on_c, 13, 52, 84
15, 145371, Note_on_c, 13, 52, 0
15, 145380, Note_on_c, 13, 52, 84
15, 145431, Note_on_c, 13, 52, 0
15, 145440, Note_on_c, 13, 48, 92
15, 145499, Note_on_c, 13, 48, 0
15, 145500, Note_on_c, 13, 48, 84
15, 145679, Note_on_c, 13, 48, 0
15, 145800, Note_on_c, 13, 60, 84
15, 145889, Note_on_c, 13, 60, 0
15, 145920, Note_on_c, 13, 48, 84
15, 146009, Note_on_c, 13, 48, 0
15, 146040, Note_on_c, 13, 60, 84
15, 146129, Note_on_c, 13, 60, 0
15, 146160, Note_on_c, 13, 48, 92
15, 146219, Note_on_c, 13, 48, 0
15, 146220, Note_on_c, 13, 48, 84
15, 146399, Note_on_c, 13, 48, 0
15, 146520, Note_on_c, 13, 60, 84
15, 146624, Note_on_c, 13, 60, 0
15, 146640, Note_on_c, 13, 48, 84
15, 146744, Note_on_c, 13, 48, 0
15, 146760, Note_on_c, 13, 60, 84
15, 146864, Note_on_c, 13, 60, 0
15, 146880, Note_on_c, 13, 48, 92
15, 146939, Note_on_c, 13, 48, 0
15, 146940, Note_on_c, 13, 48, 84
15, 147119, Note_on_c, 13, 48, 0
15, 147240, Note_on_c, 13, 60, 84
15, 147344, Note_on_c, 13, 60, 0
15, 147360, Note_on_c, 13, 48, 84
15, 147464, Note_on_c, 13, 48, 0
15, 147480, Note_on_c, 13, 60, 84
15, 147584, Note_on_c, 13, 60, 0
15, 147600, Note_on_c, 13, 48, 92
15, 147659, Note_on_c, 13, 48, 0
15, 147660, Note_on_c, 13, 48, 84
15, 147839, Note_on_c, 13, 48, 0
15, 147960, Note_on_c, 13, 60, 84
15, 148064, Note_on_c, 13, 60, 0
15, 148080, Note_on_c, 13, 48, 84
15, 148184, Note_on_c, 13, 48, 0
15, 148200, Note_on_c, 13, 60, 84
15, 148304, Note_on_c, 13, 60, 0
15, 148320, Note_on_c, 13, 48, 84
15, 148559, Note_on_c, 13, 48, 0
15, 148680, Note_on_c, 13, 60, 52
15, 148784, Note_on_c, 13, 60, 0
15, 148800, Note_on_c, 13, 48, 52
15, 148904, Note_on_c, 13, 48, 0
15, 148920, Note_on_c, 13, 60, 52
15, 149024, Note_on_c, 13, 60, 0
15, 149040, Note_on_c, 13, 48, 52
15, 149279, Note_on_c, 13, 48, 0
15, 149400, Note_on_c, 13, 60, 52
15, 149504, Note_on_c, 13, 60, 0
15, 149520, Note_on_c, 13, 48, 52
15, 149624, Note_on_c, 13, 48, 0
15, 149640, Note_on_c, 13, 60, 52
15, 149744, Note_on_c, 13, 60, 0
15, 149760, Note_on_c, 13, 48, 52
15, 149999, Note_on_c, 13, 48, 0
15, 150120, Note_on_c, 13, 60, 52
15, 150224, Note_on_c, 13, 60, 0
15, 150240, Note_on_c, 13, 48, 52
15, 150344, Note_on_c, 13, 48, 0
15, 150360, Note_on_c, 13, 60, 52
15, 150464, Note_on_c, 13, 60, 0
15, 150480, Note_on_c, 13, 48, 52
15, 150719, Note_on_c, 13, 48, 0
15, 150840, Note_on_c, 13, 60, 52
15, 150944, Note_on_c, 13, 60, 0
15, 150960, Note_on_c, 13, 48, 52
15, 151064, Note_on_c, 13, 48, 0
15, 151080, Note_on_c, 13, 60, 52
15, 151184, Note_on_c, 13, 60, 0
15, 151200, Note_on_c, 13, 48, 52
15, 151439, Note_on_c, 13, 48, 0
15, 151560, Note_on_c, 13, 60, 52
15, 151664, Note_on_c, 13, 60, 0
15, 151680, Note_on_c, 13, 48, 52
15, 151784, Note_on_c, 13, 48, 0
15, 151800, Note_on_c, 13, 60, 52
15, 151904, Note_on_c, 13, 60, 0
15, 151920, Note_on_c, 13, 48, 52
15, 152159, Note_on_c, 13, 48, 0
15, 152280, Note_on_c, 13, 60, 52
15, 152384, Note_on_c, 13, 60, 0
15, 152400, Note_on_c, 13, 48, 52
15, 152504, Note_on_c, 13, 48, 0
15, 152520, Note_on_c, 13, 60, 52
15, 152624, Note_on_c, 13, 60, 0
15, 152640, Note_on_c, 13, 48, 52
15, 152879, Note_on_c, 13, 48, 0
15, 153000, Note_on_c, 13, 60, 52
15, 153104, Note_on_c, 13, 60, 0
15, 153120, Note_on_c, 13, 48, 52
15, 153224, Note_on_c, 13, 48, 0
15, 153240, Note_on_c, 13, 60, 52
15, 153344, Note_on_c, 13, 60, 0
15, 153360, Note_on_c, 13, 48, 52
15, 153599, Note_on_c, 13, 48, 0
15, 153720, Note_on_c, 13, 60, 52
15, 153824, Note_on_c, 13, 60, 0
15, 153840, Note_on_c, 13, 48, 52
15, 153944, Note_on_c, 13, 48, 0
15, 153960, Note_on_c, 13, 60, 52
15, 154064, Note_on_c, 13, 60, 0
15, 154080, Note_on_c, 13, 60, 84
15, 154131, Note_on_c, 13, 60, 0
15, 154140, Note_on_c, 13, 60, 84
15, 154191, Note_on_c, 13, 60, 0
15, 154200, Note_on_c, 13, 67, 84
15, 154251, Note_on_c, 13, 67, 0
15, 154260, Note_on_c, 13, 67, 84
15, 154311, Note_on_c, 13, 67, 0
15, 154320, Note_on_c, 13, 64, 84
15, 154371, Note_on_c, 13, 64, 0
15, 154380, Note_on_c, 13, 64, 84
15, 154431, Note_on_c, 13, 64, 0
15, 154440, Note_on_c, 13, 72, 84
15, 154491, Note_on_c, 13, 72, 0
15, 154500, Note_on_c, 13, 72, 84
15, 154551, Note_on_c, 13, 72, 0
15, 154560, Note_on_c, 13, 67, 84
15, 154611, Note_on_c, 13, 67, 0
15, 154620, Note_on_c, 13, 67, 84
15, 154671, Note_on_c, 13, 67, 0
15, 154680, Note_on_c, 13, 76, 84
15, 154731, Note_on_c, 13, 76, 0
15, 154740, Note_on_c, 13, 76, 84
15, 154791, Note_on_c, 13, 76, 0
15, 154800, Note_on_c, 13, 72, 84
15, 154851, Note_on_c, 13, 72, 0
15, 154860, Note_on_c, 13, 72, 84
15, 154911, Note_on_c, 13, 72, 0
15, 154920, Note_on_c, 13, 67, 84
15, 154971, Note_on_c, 13, 67, 0
15, 154980, Note_on_c, 13, 67, 84
15, 155031, Note_on_c, 13, 67, 0
15, 155040, Note_on_c, 13, 64, 84
15, 155091, Note_on_c, 13, 64, 0
15, 155100, Note_on_c, 13, 64, 84
15, 155151, Note_on_c, 13, 64, 0
15, 155160, Note_on_c, 13, 72, 84
15, 155211, Note_on_c, 13, 72, 0
15, 155220, Note_on_c, 13, 72, 84
15, 155271, Note_on_c, 13, 72, 0
15, 155280, Note_on_c, 13, 67, 84
15, 155331, Note_on_c, 13, 67, 0
15, 155340, Note_on_c, 13, 67, 84
15, 155391, Note_on_c, 13, 67, 0
15, 155400, Note_on_c, 13, 64, 84
15, 155451, Note_on_c, 13, 64, 0
15, 155460, Note_on_c, 13, 64, 84
15, 155511, Note_on_c, 13, 64, 0
15, 155520, Note_on_c, 13, 60, 84
15, 155571, Note_on_c, 13, 60, 0
15, 155580, Note_on_c, 13, 60, 84
15, 155631, Note_on_c, 13, 60, 0
15, 155640, Note_on_c, 13, 67, 84
15, 155691, Note_on_c, 13, 67, 0
15, 155700, Note_on_c, 13, 67, 84
15, 155751, Note_on_c, 13, 67, 0
15, 155760, Note_on_c, 13, 64, 84
15, 155811, Note_on_c, 13, 64, 0
15, 155820, Note_on_c, 13, 64, 84
15, 155871, Note_on_c, 13, 64, 0
15, 155880, Note_on_c, 13, 60, 84
15, 155931, Note_on_c, 13, 60, 0
15, 155940, Note_on_c, 13, 60, 84
15, 155991, Note_on_c, 13, 60, 0
15, 156000, Note_on_c, 13, 55, 84
15, 156051, Note_on_c, 13, 55, 0
15, 156060, Note_on_c, 13, 55, 84
15, 156111, Note_on_c, 13, 55, 0
15, 156120, Note_on_c, 13, 64, 84
15, 156171, Note_on_c, 13, 64, 0
15, 156180, Note_on_c, 13, 64, 84
15, 156231, Note_on_c, 13, 64, 0
15, 156240, Note_on_c, 13, 60, 84
15, 156291, Note_on_c, 13, 60, 0
15, 156300, Note_on_c, 13, 60, 84
15, 156351, Note_on_c, 13, 60, 0
15, 156360, Note_on_c, 13, 55, 84
15, 156411, Note_on_c, 13, 55, 0
15, 156420, Note_on_c, 13, 55, 84
15, 156471, Note_on_c, 13, 55, 0
15, 156480, Note_on_c, 13, 52, 84
15, 156531, Note_on_c, 13, 52, 0
15, 156540, Note_on_c, 13, 52, 84
15, 156591, Note_on_c, 13, 52, 0
15, 156600, Note_on_c, 13, 60, 84
15, 156651, Note_on_c, 13, 60, 0
15, 156660, Note_on_c, 13, 60, 84
15, 156711, Note_on_c, 13, 60, 0
15, 156720, Note_on_c, 13, 55, 84
15, 156771, Note_on_c, 13, 55, 0
15, 156780, Note_on_c, 13, 55, 84
15, 156831, Note_on_c, 13, 55, 0
15, 156840, Note_on_c, 13, 52, 84
15, 156891, Note_on_c, 13, 52, 0
15, 156900, Note_on_c, 13, 52, 84
15, 156951, Note_on_c, 13, 52, 0
15, 156960, Note_on_c, 13, 48, 84
15, 157139, Note_on_c, 13, 48, 0
15, 157320, Note_on_c, 13, 60, 52
15, 157424, Note_on_c, 13, 60, 0
15, 157440, Note_on_c, 13, 48, 52
15, 157544, Note_on_c, 13, 48, 0
15, 157560, Note_on_c, 13, 60, 52
15, 157664, Note_on_c, 13, 60, 0
15, 157680, Note_on_c, 13, 48, 52
15, 157919, Note_on_c, 13, 48, 0
15, 158040, Note_on_c, 13, 60, 52
15, 158144, Note_on_c, 13, 60, 0
15, 158160, Note_on_c, 13, 48, 52
15, 158264, Note_on_c, 13, 48, 0
15, 158280, Note_on_c, 13, 60, 52
15, 158384, Note_on_c, 13, 60, 0
15, 158400, Note_on_c, 13, 48, 52
15, 158639, Note_on_c, 13, 48, 0
15, 158760, Note_on_c, 13, 60, 52
15, 158864, Note_on_c, 13, 60, 0
15, 158880, Note_on_c, 13, 48, 52
15, 158984, Note_on_c, 13, 48, 0
15, 159000, Note_on_c, 13, 60, 52
15, 159104, Note_on_c, 13, 60, 0
15, 159120, Note_on_c, 13, 48, 52
15, 159359, Note_on_c, 13, 48, 0
15, 159480, Note_on_c, 13, 60, 52
15, 159584, Note_on_c, 13, 60, 0
15, 159600, Note_on_c, 13, 48, 52
15, 159704, Note_on_c, 13, 48, 0
15, 159720, Note_on_c, 13, 60, 52
15, 159824, Note_on_c, 13, 60, 0
15, 159840, Note_on_c, 13, 48, 52
15, 160079, Note_on_c, 13, 48, 0
15, 160200, Note_on_c, 13, 60, 52
15, 160304, Note_on_c, 13, 60, 0
15, 160320, Note_on_c, 13, 48, 52
15, 160424, Note_on_c, 13, 48, 0
15, 160440, Note_on_c, 13, 60, 52
15, 160544, Note_on_c, 13, 60, 0
15, 160560, Note_on_c, 13, 48, 52
15, 160799, Note_on_c, 13, 48, 0
15, 160920, Note_on_c, 13, 60, 52
15, 161024, Note_on_c, 13, 60, 0
15, 161040, Note_on_c, 13, 48, 52
15, 161144, Note_on_c, 13, 48, 0
15, 161160, Note_on_c, 13, 60, 52
15, 161264, Note_on_c, 13, 60, 0
15, 161280, Note_on_c, 13, 48, 52
15, 161519, Note_on_c, 13, 48, 0
15, 161640, Note_on_c, 13, 60, 52
15, 161744, Note_on_c, 13, 60, 0
15, 161760, Note_on_c, 13, 48, 52
15, 161864, Note_on_c, 13, 48, 0
15, 161880, Note_on_c, 13, 60, 52
15, 161984, Note_on_c, 13, 60, 0
15, 162000, Note_on_c, 13, 48, 52
15, 162239, Note_on_c, 13, 48, 0
15, 162360, Note_on_c, 13, 60, 52
15, 162464, Note_on_c, 13, 60, 0
15, 162480, Note_on_c, 13, 48, 52
15, 162584, Note_on_c, 13, 48, 0
15, 162600, Note_on_c, 13, 60, 52
15, 162704, Note_on_c, 13, 60, 0
15, 162720, Note_on_c, 13, 58, 84
15, 162771, Note_on_c, 13, 58, 0
15, 162780, Note_on_c, 13, 58, 84
15, 162831, Note_on_c, 13, 58, 0
15, 162840, Note_on_c, 13, 65, 84
15, 162891, Note_on_c, 13, 65, 0
15, 162900, Note_on_c, 13, 65, 84
15, 162951, Note_on_c, 13, 65, 0
15, 162960, Note_on_c, 13, 62, 84
15, 163011, Note_on_c, 13, 62, 0
15, 163020, Note_on_c, 13, 62, 84
15, 163071, Note_on_c, 13, 62, 0
15, 163080, Note_on_c, 13, 70, 84
15, 163131, Note_on_c, 13, 70, 0
15, 163140, Note_on_c, 13, 70, 84
15, 163191, Note_on_c, 13, 70, 0
15, 163200, Note_on_c, 13, 65, 84
15, 163251, Note_on_c, 13, 65, 0
15, 163260, Note_on_c, 13, 65, 84
15, 163311, Note_on_c, 13, 65, 0
15, 163320, Note_on_c, 13, 74, 84
15, 163371, Note_on_c, 13, 74, 0
15, 163380, Note_on_c, 13, 74, 84
15, 163431, Note_on_c, 13, 74, 0
15, 163440, Note_on_c, 13, 70, 84
15, 163491, Note_on_c, 13, 70, 0
15, 163500, Note_on_c, 13, 70, 84
15, 163551, Note_on_c, 13, 70, 0
15, 163560, Note_on_c, 13, 65, 84
15, 163611, Note_on_c, 13, 65, 0
15, 163620, Note_on_c, 13, 65, 84
15, 163671, Note_on_c, 13, 65, 0
15, 163680, Note_on_c, 13, 62, 84
15, 163731, Note_on_c, 13, 62, 0
15, 163740, Note_on_c, 13, 62, 84
15, 163791, Note_on_c, 13, 62, 0
15, 163800, Note_on_c, 13, 70, 84
15, 163851, Note_on_c, 13, 70, 0
15, 163860, Note_on_c, 13, 70, 84
15, 163911, Note_on_c, 13, 70, 0
15, 163920, Note_on_c, 13, 65, 84
15, 163971, Note_on_c, 13, 65, 0
15, 163980, Note_on_c, 13, 65, 84
15, 164031, Note_on_c, 13, 65, 0
15, 164040, Note_on_c, 13, 62, 84
15, 164091, Note_on_c, 13, 62, 0
15, 164100, Note_on_c, 13, 62, 84
15, 164151, Note_on_c, 13, 62, 0
15, 164160, Note_on_c, 13, 58, 84
15, 164211, Note_on_c, 13, 58, 0
15, 164220, Note_on_c, 13, 58, 84
15, 164271, Note_on_c, 13, 58, 0
15, 164280, Note_on_c, 13, 65, 84
15, 164331, Note_on_c, 13, 65, 0
15, 164340, Note_on_c, 13, 65, 84
15, 164391, Note_on_c, 13, 65, 0
15, 164400, Note_on_c, 13, 62, 84
15, 164451, Note_on_c, 13, 62, 0
15, 164460, Note_on_c, 13, 62, 84
15, 164511, Note_on_c, 13, 62, 0
15, 164520, Note_on_c, 13, 58, 84
15, 164571, Note_on_c, 13, 58, 0
15, 164580, Note_on_c, 13, 58, 84
15, 164631, Note_on_c, 13, 58, 0
15, 164640, Note_on_c, 13, 53, 84
15, 164691, Note_on_c, 13, 53, 0
15, 164700, Note_on_c, 13, 53, 84
15, 164751, Note_on_c, 13, 53, 0
15, 164760, Note_on_c, 13, 74, 84
15, 164811, Note_on_c, 13, 74, 0
15, 164820, Note_on_c, 13, 74, 84
15, 164871, Note_on_c, 13, 74, 0
15, 164880, Note_on_c, 13, 70, 84
15, 164931, Note_on_c, 13, 70, 0
15, 164940, Note_on_c, 13, 70, 84
15, 164991, Note_on_c, 13, 70, 0
15, 165000, Note_on_c, 13, 65, 84
15, 165051, Note_on_c, 13, 65, 0
15, 165060, Note_on_c, 13, 65, 84
15, 165111, Note_on_c, 13, 65, 0
15, 165120, Note_on_c, 13, 62, 84
15, 165171, Note_on_c, 13, 62, 0
15, 165180, Note_on_c, 13, 62, 84
15, 165231, Note_on_c, 13, 62, 0
15, 165240, Note_on_c, 13, 70, 84
15, 165291, Note_on_c, 13, 70, 0
15, 165300, Note_on_c, 13, 70, 84
15, 165351, Note_on_c, 13, 70, 0
15, 165360, Note_on_c, 13, 65, 84
15, 165411, Note_on_c, 13, 65, 0
15, 165420, Note_on_c, 13, 65, 84
15, 165471, Note_on_c, 13, 65, 0
15, 165480, Note_on_c, 13, 62, 84
15, 165531, Note_on_c, 13, 62, 0
15, 165540, Note_on_c, 13, 62, 84
15, 165591, Note_on_c, 13, 62, 0
15, 165600, Note_on_c, 13, 58, 84
15, 165779, Note_on_c, 13, 58, 0
15, 168240, Control_c, 13, 11, 64
15, 168480, Control_c, 13, 11, 64
15, 168480, Note_on_c, 13, 61, 84
15, 168720, Control_c, 13, 11, 69
15, 168960, Control_c, 13, 11, 75
15, 169199, Note_on_c, 13, 61, 0
15, 169200, Control_c, 13, 11, 80
15, 169200, Note_on_c, 13, 61, 84
15, 169440, Control_c, 13, 11, 85
15, 169680, Control_c, 13, 11, 90
15, 169919, Note_on_c, 13, 61, 0
15, 169920, Note_on_c, 13, 61, 84
15, 169920, Control_c, 13, 11, 96
15, 170160, Control_c, 13, 11, 101
15, 170400, Control_c, 13, 11, 106
15, 170624, Note_on_c, 13, 61, 0
15, 170640, Control_c, 13, 11, 111
15, 170640, Note_on_c, 13, 62, 84
15, 170880, Control_c, 13, 11, 117
15, 171119, Note_on_c, 13, 62, 0
15, 171120, Control_c, 13, 11, 122
15, 171120, Note_on_c, 13, 57, 84
15, 171344, Note_on_c, 13, 57, 0
15, 171360, Control_c, 13, 11, 127
15, 171360, Note_on_c, 13, 69, 84
15, 171411, Note_on_c, 13, 69, 0
15, 171420, Note_on_c, 13, 69, 84
15, 171471, Note_on_c, 13, 69, 0
15, 171480, Note_on_c, 13, 76, 84
15, 171531, Note_on_c, 13, 76, 0
15, 171540, Note_on_c, 13, 76, 84
15, 171591, Note_on_c, 13, 76, 0
15, 171600, Note_on_c, 13, 73, 84
15, 171651, Note_on_c, 13, 73, 0
15, 171660, Note_on_c, 13, 73, 84
15, 171711, Note_on_c, 13, 73, 0
15, 171720, Note_on_c, 13, 69, 84
15, 171771, Note_on_c, 13, 69, 0
15, 171780, Note_on_c, 13, 69, 84
15, 171831, Note_on_c, 13, 69, 0
15, 171840, Note_on_c, 13, 64, 84
15, 171891, Note_on_c, 13, 64, 0
15, 171900, Note_on_c, 13, 64, 84
15, 171951, Note_on_c, 13, 64, 0
15, 171960, Note_on_c, 13, 73, 84
15, 172011, Note_on_c, 13, 73, 0
15, 172020, Note_on_c, 13, 73, 84
15, 172071, Note_on_c, 13, 73, 0
15, 172080, Note_on_c, 13, 69, 84
15, 172131, Note_on_c, 13, 69, 0
15, 172140, Note_on_c, 13, 69, 84
15, 172191, Note_on_c, 13, 69, 0
15, 172200, Note_on_c, 13, 64, 84
15, 172251, Note_on_c, 13, 64, 0
15, 172260, Note_on_c, 13, 64, 84
15, 172311, Note_on_c, 13, 64, 0
15, 172320, Note_on_c, 13, 61, 84
15, 172371, Note_on_c, 13, 61, 0
15, 172380, Note_on_c, 13, 61, 84
15, 172431, Note_on_c, 13, 61, 0
15, 172440, Note_on_c, 13, 69, 84
15, 172491, Note_on_c, 13, 69, 0
15, 172500, Note_on_c, 13, 69, 84
15, 172551, Note_on_c, 13, 69, 0
15, 172560, Note_on_c, 13, 64, 84
15, 172611, Note_on_c, 13, 64, 0
15, 172620, Note_on_c, 13, 64, 84
15, 172671, Note_on_c, 13, 64, 0
15, 172680, Note_on_c, 13, 61, 84
15, 172731, Note_on_c, 13, 61, 0
15, 172740, Note_on_c, 13, 61, 84
15, 172791, Note_on_c, 13, 61, 0
15, 172800, Note_on_c, 13, 57, 84
15, 172851, Note_on_c, 13, 57, 0
15, 172860, Note_on_c, 13, 57, 84
15, 172911, Note_on_c, 13, 57, 0
15, 172920, Note_on_c, 13, 64, 84
15, 172971, Note_on_c, 13, 64, 0
15, 172980, Note_on_c, 13, 64, 84
15, 173031, Note_on_c, 13, 64, 0
15, 173040, Note_on_c, 13, 61, 84
15, 173091, Note_on_c, 13, 61, 0
15, 173100, Note_on_c, 13, 61, 84
15, 173151, Note_on_c, 13, 61, 0
15, 173160, Note_on_c, 13, 69, 84
15, 173211, Note_on_c, 13, 69, 0
15, 173220, Note_on_c, 13, 69, 84
15, 173271, Note_on_c, 13, 69, 0
15, 173280, Note_on_c, 13, 64, 84
15, 173331, Note_on_c, 13, 64, 0
15, 173340, Note_on_c, 13, 64, 84
15, 173391, Note_on_c, 13, 64, 0
15, 173400, Note_on_c, 13, 73, 84
15, 173451, Note_on_c, 13, 73, 0
15, 173460, Note_on_c, 13, 73, 84
15, 173511, Note_on_c, 13, 73, 0
15, 173520, Note_on_c, 13, 69, 84
15, 173571, Note_on_c, 13, 69, 0
15, 173580, Note_on_c, 13, 69, 84
15, 173631, Note_on_c, 13, 69, 0
15, 173640, Note_on_c, 13, 64, 84
15, 173691, Note_on_c, 13, 64, 0
15, 173700, Note_on_c, 13, 64, 84
15, 173751, Note_on_c, 13, 64, 0
15, 173760, Note_on_c, 13, 61, 84
15, 173811, Note_on_c, 13, 61, 0
15, 173820, Note_on_c, 13, 61, 84
15, 173871, Note_on_c, 13, 61, 0
15, 173880, Note_on_c, 13, 69, 84
15, 173931, Note_on_c, 13, 69, 0
15, 173940, Note_on_c, 13, 69, 84
15, 173991, Note_on_c, 13, 69, 0
15, 174000, Note_on_c, 13, 64, 84
15, 174051, Note_on_c, 13, 64, 0
15, 174060, Note_on_c, 13, 64, 84
15, 174111, Note_on_c, 13, 64, 0
15, 174120, Note_on_c, 13, 61, 84
15, 174171, Note_on_c, 13, 61, 0
15, 174180, Note_on_c, 13, 61, 84
15, 174231, Note_on_c, 13, 61, 0
15, 174240, Note_on_c, 13, 57, 84
15, 174479, Note_on_c, 13, 57, 0
15, 174960, Note_on_c, 13, 57, 92
15, 175199, Note_on_c, 13, 57, 0
15, 175320, Note_on_c, 13, 69, 84
15, 175424, Note_on_c, 13, 69, 0
15, 175440, Note_on_c, 13, 57, 84
15, 175544, Note_on_c, 13, 57, 0
15, 175560, Note_on_c, 13, 69, 84
15, 175664, Note_on_c, 13, 69, 0
15, 175680, Note_on_c, 13, 57, 84
15, 175919, Note_on_c, 13, 57, 0
15, 176400, Note_on_c, 13, 57, 92
15, 176639, Note_on_c, 13, 57, 0
15, 176760, Note_on_c, 13, 69, 84
15, 176864, Note_on_c, 13, 69, 0
15, 176880, Note_on_c, 13, 57, 84
15, 176984, Note_on_c, 13, 57, 0
15, 177000, Note_on_c, 13, 69, 84
15, 177104, Note_on_c, 13, 69, 0
15, 177120, Note_on_c, 13, 69, 84
15, 177120, Note_on_c, 13, 57, 84
15, 177359, Note_on_c, 13, 69, 0
15, 177359, Note_on_c, 13, 57, 0
15, 188640, Note_on_c, 13, 56, 84
15, 188640, Note_on_c, 13, 60, 84
15, 188691, Note_on_c, 13, 56, 0
15, 188691, Note_on_c, 13, 60, 0
15, 188700, Note_on_c, 13, 60, 84
15, 188700, Note_on_c, 13, 56, 84
15, 188751, Note_on_c, 13, 60, 0
15, 188751, Note_on_c, 13, 56, 0
15, 188760, Note_on_c, 13, 56, 84
15, 188760, Note_on_c, 13, 60, 84
15, 188811, Note_on_c, 13, 56, 0
15, 188811, Note_on_c, 13, 60, 0
15, 188820, Note_on_c, 13, 56, 84
15, 188820, Note_on_c, 13, 60, 84
15, 188871, Note_on_c, 13, 56, 0
15, 188871, Note_on_c, 13, 60, 0
15, 188880, Note_on_c, 13, 56, 84
15, 188880, Note_on_c, 13, 60, 84
15, 188931, Note_on_c, 13, 56, 0
15, 188931, Note_on_c, 13, 60, 0
15, 188940, Note_on_c, 13, 56, 84
15, 188940, Note_on_c, 13, 60, 84
15, 188991, Note_on_c, 13, 56, 0
15, 188991, Note_on_c, 13, 60, 0
15, 189000, Note_on_c, 13, 56, 84
15, 189000, Note_on_c, 13, 60, 84
15, 189051, Note_on_c, 13, 56, 0
15, 189051, Note_on_c, 13, 60, 0
15, 189060, Note_on_c, 13, 56, 84
15, 189060, Note_on_c, 13, 60, 84
15, 189111, Note_on_c, 13, 56, 0
15, 189111, Note_on_c, 13, 60, 0
15, 189120, Note_on_c, 13, 56, 84
15, 189120, Note_on_c, 13, 60, 84
15, 189171, Note_on_c, 13, 56, 0
15, 189171, Note_on_c, 13, 60, 0
15, 189180, Note_on_c, 13, 60, 84
15, 189180, Note_on_c, 13, 56, 84
15, 189231, Note_on_c, 13, 60, 0
15, 189231, Note_on_c, 13, 56, 0
15, 189240, Note_on_c, 13, 56, 84
15, 189240, Note_on_c, 13, 60, 84
15, 189291, Note_on_c, 13, 56, 0
15, 189291, Note_on_c, 13, 60, 0
15, 189300, Note_on_c, 13, 56, 84
15, 189300, Note_on_c, 13, 60, 84
15, 189351, Note_on_c, 13, 56, 0
15, 189351, Note_on_c, 13, 60, 0
15, 189360, Note_on_c, 13, 56, 84
15, 189411, Note_on_c, 13, 56, 0
15, 189420, Note_on_c, 13, 56, 84
15, 189471, Note_on_c, 13, 56, 0
15, 189480, Note_on_c, 13, 60, 84
15, 189531, Note_on_c, 13, 60, 0
15, 189540, Note_on_c, 13, 60, 84
15, 189591, Note_on_c, 13, 60, 0
15, 189600, Note_on_c, 13, 65, 84
15, 189651, Note_on_c, 13, 65, 0
15, 189660, Note_on_c, 13, 65, 84
15, 189711, Note_on_c, 13, 65, 0
15, 189720, Note_on_c, 13, 68, 84
15, 189771, Note_on_c, 13, 68, 0
15, 189780, Note_on_c, 13, 68, 84
15, 189831, Note_on_c, 13, 68, 0
15, 189840, Note_on_c, 13, 72, 84
15, 189891, Note_on_c, 13, 72, 0
15, 189900, Note_on_c, 13, 72, 84
15, 189951, Note_on_c, 13, 72, 0
15, 189960, Note_on_c, 13, 65, 84
15, 190011, Note_on_c, 13, 65, 0
15, 190020, Note_on_c, 13, 65, 84
15, 190071, Note_on_c, 13, 65, 0
15, 190080, Note_on_c, 13, 61, 84
15, 190080, Note_on_c, 13, 58, 84
15, 190131, Note_on_c, 13, 61, 0
15, 190131, Note_on_c, 13, 58, 0
15, 190140, Note_on_c, 13, 58, 84
15, 190140, Note_on_c, 13, 61, 84
15, 190191, Note_on_c, 13, 58, 0
15, 190191, Note_on_c, 13, 61, 0
15, 190200, Note_on_c, 13, 58, 84
15, 190200, Note_on_c, 13, 61, 84
15, 190251, Note_on_c, 13, 58, 0
15, 190251, Note_on_c, 13, 61, 0
15, 190260, Note_on_c, 13, 61, 84
15, 190260, Note_on_c, 13, 58, 84
15, 190311, Note_on_c, 13, 61, 0
15, 190311, Note_on_c, 13, 58, 0
15, 190320, Note_on_c, 13, 61, 84
15, 190320, Note_on_c, 13, 58, 84
15, 190371, Note_on_c, 13, 61, 0
15, 190371, Note_on_c, 13, 58, 0
15, 190380, Note_on_c, 13, 58, 84
15, 190380, Note_on_c, 13, 61, 84
15, 190431, Note_on_c, 13, 58, 0
15, 190431, Note_on_c, 13, 61, 0
15, 190440, Note_on_c, 13, 58, 84
15, 190440, Note_on_c, 13, 61, 84
15, 190491, Note_on_c, 13, 58, 0
15, 190491, Note_on_c, 13, 61, 0
15, 190500, Note_on_c, 13, 61, 84
15, 190500, Note_on_c, 13, 58, 84
15, 190551, Note_on_c, 13, 61, 0
15, 190551, Note_on_c, 13, 58, 0
15, 190560, Note_on_c, 13, 58, 84
15, 190560, Note_on_c, 13, 61, 84
15, 190611, Note_on_c, 13, 58, 0
15, 190611, Note_on_c, 13, 61, 0
15, 190620, Note_on_c, 13, 61, 84
15, 190620, Note_on_c, 13, 58, 84
15, 190671, Note_on_c, 13, 61, 0
15, 190671, Note_on_c, 13, 58, 0
15, 190680, Note_on_c, 13, 58, 84
15, 190680, Note_on_c, 13, 61, 84
15, 190731, Note_on_c, 13, 58, 0
15, 190731, Note_on_c, 13, 61, 0
15, 190740, Note_on_c, 13, 58, 84
15, 190740, Note_on_c, 13, 61, 84
15, 190791, Note_on_c, 13, 58, 0
15, 190791, Note_on_c, 13, 61, 0
15, 190800, Note_on_c, 13, 58, 84
15, 190851, Note_on_c, 13, 58, 0
15, 190860, Note_on_c, 13, 58, 84
15, 190911, Note_on_c, 13, 58, 0
15, 190920, Note_on_c, 13, 61, 84
15, 190971, Note_on_c, 13, 61, 0
15, 190980, Note_on_c, 13, 61, 84
15, 191031, Note_on_c, 13, 61, 0
15, 191040, Note_on_c, 13, 65, 84
15, 191091, Note_on_c, 13, 65, 0
15, 191100, Note_on_c, 13, 65, 84
15, 191151, Note_on_c, 13, 65, 0
15, 191160, Note_on_c, 13, 70, 84
15, 191211, Note_on_c, 13, 70, 0
15, 191220, Note_on_c, 13, 70, 84
15, 191271, Note_on_c, 13, 70, 0
15, 191280, Note_on_c, 13, 73, 84
15, 191331, Note_on_c, 13, 73, 0
15, 191340, Note_on_c, 13, 73, 84
15, 191391, Note_on_c, 13, 73, 0
15, 191400, Note_on_c, 13, 65, 84
15, 191451, Note_on_c, 13, 65, 0
15, 191460, Note_on_c, 13, 65, 84
15, 191511, Note_on_c, 13, 65, 0
15, 191520, Note_on_c, 13, 58, 84
15, 191520, Note_on_c, 13, 55, 84
15, 191571, Note_on_c, 13, 58, 0
15, 191571, Note_on_c, 13, 55, 0
15, 191580, Note_on_c, 13, 55, 84
15, 191580, Note_on_c, 13, 58, 84
15, 191631, Note_on_c, 13, 55, 0
15, 191631, Note_on_c, 13, 58, 0
15, 191640, Note_on_c, 13, 58, 84
15, 191640, Note_on_c, 13, 55, 84
15, 191691, Note_on_c, 13, 58, 0
15, 191691, Note_on_c, 13, 55, 0
15, 191700, Note_on_c, 13, 58, 84
15, 191700, Note_on_c, 13, 55, 84
15, 191751, Note_on_c, 13, 58, 0
15, 191751, Note_on_c, 13, 55, 0
15, 191760, Note_on_c, 13, 55, 92
15, 191811, Note_on_c, 13, 55, 0
15, 191820, Note_on_c, 13, 55, 84
15, 191871, Note_on_c, 13, 55, 0
15, 191880, Note_on_c, 13, 56, 84
15, 191931, Note_on_c, 13, 56, 0
15, 191940, Note_on_c, 13, 56, 84
15, 191991, Note_on_c, 13, 56, 0
15, 192000, Note_on_c, 13, 58, 84
15, 192051, Note_on_c, 13, 58, 0
15, 192060, Note_on_c, 13, 58, 84
15, 192111, Note_on_c, 13, 58, 0
15, 192120, Note_on_c, 13, 55, 84
15, 192171, Note_on_c, 13, 55, 0
15, 192180, Note_on_c, 13, 55, 84
15, 192231, Note_on_c, 13, 55, 0
15, 192240, Note_on_c, 13, 55, 84
15, 192291, Note_on_c, 13, 55, 0
15, 192300, Note_on_c, 13, 55, 84
15, 192351, Note_on_c, 13, 55, 0
15, 192360, Note_on_c, 13, 52, 84
15, 192411, Note_on_c, 13, 52, 0
15, 192420, Note_on_c, 13, 52, 84
15, 192471, Note_on_c, 13, 52, 0
15, 192480, Note_on_c, 13, 52, 92
15, 192531, Note_on_c, 13, 52, 0
15, 192540, Note_on_c, 13, 52, 84
15, 192591, Note_on_c, 13, 52, 0
15, 192600, Note_on_c, 13, 53, 84
15, 192651, Note_on_c, 13, 53, 0
15, 192660, Note_on_c, 13, 53, 84
15, 192711, Note_on_c, 13, 53, 0
15, 192720, Note_on_c, 13, 55, 84
15, 192771, Note_on_c, 13, 55, 0
15, 192780, Note_on_c, 13, 55, 84
15, 192831, Note_on_c, 13, 55, 0
15, 192840, Note_on_c, 13, 52, 84
15, 192891, Note_on_c, 13, 52, 0
15, 192900, Note_on_c, 13, 52, 84
15, 192951, Note_on_c, 13, 52, 0
15, 192960, Note_on_c, 13, 53, 84
15, 193011, Note_on_c, 13, 53, 0
15, 193020, Note_on_c, 13, 56, 84
15, 193071, Note_on_c, 13, 56, 0
15, 193080, Note_on_c, 13, 56, 84
15, 193131, Note_on_c, 13, 56, 0
15, 193140, Note_on_c, 13, 56, 84
15, 193191, Note_on_c, 13, 56, 0
15, 193200, Note_on_c, 13, 56, 92
15, 193251, Note_on_c, 13, 56, 0
15, 193260, Note_on_c, 13, 56, 84
15, 193311, Note_on_c, 13, 56, 0
15, 193320, Note_on_c, 13, 56, 84
15, 193371, Note_on_c, 13, 56, 0
15, 193380, Note_on_c, 13, 56, 84
15, 193431, Note_on_c, 13, 56, 0
15, 193440, Note_on_c, 13, 56, 84
15, 193491, Note_on_c, 13, 56, 0
15, 193500, Note_on_c, 13, 56, 84
15, 193551, Note_on_c, 13, 56, 0
15, 193560, Note_on_c, 13, 56, 84
15, 193611, Note_on_c, 13, 56, 0
15, 193620, Note_on_c, 13, 56, 84
15, 193671, Note_on_c, 13, 56, 0
15, 193680, Note_on_c, 13, 56, 84
15, 193731, Note_on_c, 13, 56, 0
15, 193740, Note_on_c, 13, 56, 84
15, 193791, Note_on_c, 13, 56, 0
15, 193800, Note_on_c, 13, 49, 84
15, 193851, Note_on_c, 13, 49, 0
15, 193860, Note_on_c, 13, 49, 84
15, 193911, Note_on_c, 13, 49, 0
15, 193920, Note_on_c, 13, 51, 92
15, 193971, Note_on_c, 13, 51, 0
15, 193980, Note_on_c, 13, 51, 84
15, 194031, Note_on_c, 13, 51, 0
15, 194040, Note_on_c, 13, 53, 84
15, 194091, Note_on_c, 13, 53, 0
15, 194100, Note_on_c, 13, 53, 84
15, 194151, Note_on_c, 13, 53, 0
15, 194160, Note_on_c, 13, 54, 84
15, 194211, Note_on_c, 13, 54, 0
15, 194220, Note_on_c, 13, 54, 84
15, 194271, Note_on_c, 13, 54, 0
15, 194280, Note_on_c, 13, 51, 84
15, 194331, Note_on_c, 13, 51, 0
15, 194340, Note_on_c, 13, 51, 84
15, 194391, Note_on_c, 13, 51, 0
15, 194400, Note_on_c, 13, 56, 84
15, 194451, Note_on_c, 13, 56, 0
15, 194460, Note_on_c, 13, 56, 84
15, 194511, Note_on_c, 13, 56, 0
15, 194520, Note_on_c, 13, 54, 84
15, 194571, Note_on_c, 13, 54, 0
15, 194580, Note_on_c, 13, 54, 84
15, 194631, Note_on_c, 13, 54, 0
15, 194640, Note_on_c, 13, 53, 92
15, 194691, Note_on_c, 13, 53, 0
15, 194700, Note_on_c, 13, 53, 84
15, 194751, Note_on_c, 13, 53, 0
15, 194760, Note_on_c, 13, 53, 84
15, 194811, Note_on_c, 13, 53, 0
15, 194820, Note_on_c, 13, 53, 84
15, 194871, Note_on_c, 13, 53, 0
15, 194880, Note_on_c, 13, 53, 84
15, 194931, Note_on_c, 13, 53, 0
15, 194940, Note_on_c, 13, 53, 84
15, 194991, Note_on_c, 13, 53, 0
15, 195000, Note_on_c, 13, 53, 84
15, 195051, Note_on_c, 13, 53, 0
15, 195060, Note_on_c, 13, 53, 84
15, 195111, Note_on_c, 13, 53, 0
15, 195120, Note_on_c, 13, 65, 84
15, 195171, Note_on_c, 13, 65, 0
15, 195180, Note_on_c, 13, 65, 84
15, 195231, Note_on_c, 13, 65, 0
15, 195240, Note_on_c, 13, 63, 84
15, 195291, Note_on_c, 13, 63, 0
15, 195300, Note_on_c, 13, 63, 84
15, 195351, Note_on_c, 13, 63, 0
15, 195360, Note_on_c, 13, 61, 92
15, 195411, Note_on_c, 13, 61, 0
15, 195420, Note_on_c, 13, 61, 84
15, 195471, Note_on_c, 13, 61, 0
15, 195480, Note_on_c, 13, 61, 84
15, 195531, Note_on_c, 13, 61, 0
15, 195540, Note_on_c, 13, 61, 84
15, 195591, Note_on_c, 13, 61, 0
15, 195600, Note_on_c, 13, 61, 84
15, 195651, Note_on_c, 13, 61, 0
15, 195660, Note_on_c, 13, 61, 84
15, 195711, Note_on_c, 13, 61, 0
15, 195720, Note_on_c, 13, 61, 84
15, 195771, Note_on_c, 13, 61, 0
15, 195780, Note_on_c, 13, 61, 84
15, 195831, Note_on_c, 13, 61, 0
15, 195840, Note_on_c, 13, 65, 84
15, 195891, Note_on_c, 13, 65, 0
15, 195900, Note_on_c, 13, 65, 84
15, 195951, Note_on_c, 13, 65, 0
15, 195960, Note_on_c, 13, 63, 84
15, 196011, Note_on_c, 13, 63, 0
15, 196020, Note_on_c, 13, 63, 84
15, 196071, Note_on_c, 13, 63, 0
15, 196080, Note_on_c, 13, 61, 92
15, 196131, Note_on_c, 13, 61, 0
15, 196140, Note_on_c, 13, 61, 84
15, 196191, Note_on_c, 13, 61, 0
15, 196200, Note_on_c, 13, 61, 84
15, 196251, Note_on_c, 13, 61, 0
15, 196260, Note_on_c, 13, 61, 84
15, 196311, Note_on_c, 13, 61, 0
15, 196320, Note_on_c, 13, 61, 84
15, 196371, Note_on_c, 13, 61, 0
15, 196380, Note_on_c, 13, 61, 84
15, 196431, Note_on_c, 13, 61, 0
15, 196440, Note_on_c, 13, 61, 84
15, 196491, Note_on_c, 13, 61, 0
15, 196500, Note_on_c, 13, 61, 84
15, 196551, Note_on_c, 13, 61, 0
15, 196560, Note_on_c, 13, 65, 84
15, 196611, Note_on_c, 13, 65, 0
15, 196620, Note_on_c, 13, 65, 84
15, 196671, Note_on_c, 13, 65, 0
15, 196680, Note_on_c, 13, 63, 84
15, 196731, Note_on_c, 13, 63, 0
15, 196740, Note_on_c, 13, 63, 84
15, 196791, Note_on_c, 13, 63, 0
15, 196800, Note_on_c, 13, 61, 92
15, 196851, Note_on_c, 13, 61, 0
15, 196860, Note_on_c, 13, 61, 84
15, 196911, Note_on_c, 13, 61, 0
15, 196920, Note_on_c, 13, 61, 84
15, 196971, Note_on_c, 13, 61, 0
15, 196980, Note_on_c, 13, 61, 84
15, 197031, Note_on_c, 13, 61, 0
15, 197040, Note_on_c, 13, 61, 84
15, 197091, Note_on_c, 13, 61, 0
15, 197100, Note_on_c, 13, 61, 84
15, 197151, Note_on_c, 13, 61, 0
15, 197160, Note_on_c, 13, 61, 84
15, 197211, Note_on_c, 13, 61, 0
15, 197220, Note_on_c, 13, 61, 84
15, 197271, Note_on_c, 13, 61, 0
15, 197280, Note_on_c, 13, 65, 84
15, 197331, Note_on_c, 13, 65, 0
15, 197340, Note_on_c, 13, 65, 84
15, 197391, Note_on_c, 13, 65, 0
15, 197400, Note_on_c, 13, 63, 84
15, 197451, Note_on_c, 13, 63, 0
15, 197460, Note_on_c, 13, 63, 84
15, 197511, Note_on_c, 13, 63, 0
15, 197520, Note_on_c, 13, 61, 92
15, 197571, Note_on_c, 13, 61, 0
15, 197580, Note_on_c, 13, 61, 84
15, 197631, Note_on_c, 13, 61, 0
15, 197640, Note_on_c, 13, 61, 84
15, 197691, Note_on_c, 13, 61, 0
15, 197700, Note_on_c, 13, 61, 84
15, 197751, Note_on_c, 13, 61, 0
15, 197760, Note_on_c, 13, 61, 84
15, 197811, Note_on_c, 13, 61, 0
15, 197820, Note_on_c, 13, 61, 84
15, 197871, Note_on_c, 13, 61, 0
15, 197880, Note_on_c, 13, 61, 84
15, 197931, Note_on_c, 13, 61, 0
15, 197940, Note_on_c, 13, 61, 84
15, 197991, Note_on_c, 13, 61, 0
15, 198000, Note_on_c, 13, 65, 84
15, 198051, Note_on_c, 13, 65, 0
15, 198060, Note_on_c, 13, 65, 84
15, 198111, Note_on_c, 13, 65, 0
15, 198120, Note_on_c, 13, 63, 84
15, 198171, Note_on_c, 13, 63, 0
15, 198180, Note_on_c, 13, 63, 84
15, 198231, Note_on_c, 13, 63, 0
15, 198240, Note_on_c, 13, 61, 92
15, 198291, Note_on_c, 13, 61, 0
15, 198300, Note_on_c, 13, 61, 84
15, 198351, Note_on_c, 13, 61, 0
15, 198360, Note_on_c, 13, 61, 84
15, 198411, Note_on_c, 13, 61, 0
15, 198420, Note_on_c, 13, 61, 84
15, 198471, Note_on_c, 13, 61, 0
15, 198480, Note_on_c, 13, 61, 84
15, 198531, Note_on_c, 13, 61, 0
15, 198540, Note_on_c, 13, 61, 84
15, 198591, Note_on_c, 13, 61, 0
15, 198600, Note_on_c, 13, 61, 84
15, 198651, Note_on_c, 13, 61, 0
15, 198660, Note_on_c, 13, 61, 84
15, 198711, Note_on_c, 13, 61, 0
15, 198720, Note_on_c, 13, 65, 84
15, 198771, Note_on_c, 13, 65, 0
15, 198780, Note_on_c, 13, 65, 84
15, 198831, Note_on_c, 13, 65, 0
15, 198840, Note_on_c, 13, 63, 84
15, 198891, Note_on_c, 13, 63, 0
15, 198900, Note_on_c, 13, 63, 84
15, 198951, Note_on_c, 13, 63, 0
15, 198960, Note_on_c, 13, 61, 92
15, 199011, Note_on_c, 13, 61, 0
15, 199020, Note_on_c, 13, 61, 84
15, 199071, Note_on_c, 13, 61, 0
15, 199080, Note_on_c, 13, 61, 84
15, 199131, Note_on_c, 13, 61, 0
15, 199140, Note_on_c, 13, 61, 84
15, 199191, Note_on_c, 13, 61, 0
15, 199200, Note_on_c, 13, 61, 84
15, 199251, Note_on_c, 13, 61, 0
15, 199260, Note_on_c, 13, 61, 84
15, 199311, Note_on_c, 13, 61, 0
15, 199320, Note_on_c, 13, 61, 84
15, 199371, Note_on_c, 13, 61, 0
15, 199380, Note_on_c, 13, 61, 84
15, 199431, Note_on_c, 13, 61, 0
15, 199440, Note_on_c, 13, 65, 84
15, 199491, Note_on_c, 13, 65, 0
15, 199500, Note_on_c, 13, 65, 84
15, 199551, Note_on_c, 13, 65, 0
15, 199560, Note_on_c, 13, 63, 84
15, 199611, Note_on_c, 13, 63, 0
15, 199620, Note_on_c, 13, 63, 84
15, 199671, Note_on_c, 13, 63, 0
15, 199680, Note_on_c, 13, 61, 92
15, 199731, Note_on_c, 13, 61, 0
15, 199740, Note_on_c, 13, 61, 84
15, 199791, Note_on_c, 13, 61, 0
15, 199800, Note_on_c, 13, 61, 84
15, 199851, Note_on_c, 13, 61, 0
15, 199860, Note_on_c, 13, 61, 84
15, 199911, Note_on_c, 13, 61, 0
15, 199920, Note_on_c, 13, 61, 84
15, 199971, Note_on_c, 13, 61, 0
15, 199980, Note_on_c, 13, 61, 84
15, 200031, Note_on_c, 13, 61, 0
15, 200040, Note_on_c, 13, 61, 84
15, 200091, Note_on_c, 13, 61, 0
15, 200100, Note_on_c, 13, 61, 84
15, 200151, Note_on_c, 13, 61, 0
15, 200160, Note_on_c, 13, 65, 84
15, 200211, Note_on_c, 13, 65, 0
15, 200220, Note_on_c, 13, 65, 84
15, 200271, Note_on_c, 13, 65, 0
15, 200280, Note_on_c, 13, 64, 84
15, 200331, Note_on_c, 13, 64, 0
15, 200340, Note_on_c, 13, 64, 84
15, 200391, Note_on_c, 13, 64, 0
15, 200400, Note_on_c, 13, 62, 92
15, 200451, Note_on_c, 13, 62, 0
15, 200460, Note_on_c, 13, 62, 84
15, 200511, Note_on_c, 13, 62, 0
15, 200520, Note_on_c, 13, 62, 84
15, 200571, Note_on_c, 13, 62, 0
15, 200580, Note_on_c, 13, 62, 84
15, 200631, Note_on_c, 13, 62, 0
15, 200640, Note_on_c, 13, 62, 84
15, 200691, Note_on_c, 13, 62, 0
15, 200700, Note_on_c, 13, 62, 84
15, 200751, Note_on_c, 13, 62, 0
15, 200760, Note_on_c, 13, 62, 84
15, 200811, Note_on_c, 13, 62, 0
15, 200820, Note_on_c, 13, 62, 84
15, 200871, Note_on_c, 13, 62, 0
15, 200880, Note_on_c, 13, 65, 84
15, 200931, Note_on_c, 13, 65, 0
15, 200940, Note_on_c, 13, 65, 84
15, 200991, Note_on_c, 13, 65, 0
15, 201000, Note_on_c, 13, 64, 84
15, 201051, Note_on_c, 13, 64, 0
15, 201060, Note_on_c, 13, 64, 84
15, 201111, Note_on_c, 13, 64, 0
15, 201120, Note_on_c, 13, 62, 92
15, 201171, Note_on_c, 13, 62, 0
15, 201180, Note_on_c, 13, 62, 84
15, 201231, Note_on_c, 13, 62, 0
15, 201240, Note_on_c, 13, 62, 84
15, 201291, Note_on_c, 13, 62, 0
15, 201300, Note_on_c, 13, 62, 84
15, 201351, Note_on_c, 13, 62, 0
15, 201360, Note_on_c, 13, 62, 84
15, 201411, Note_on_c, 13, 62, 0
15, 201420, Note_on_c, 13, 62, 84
15, 201471, Note_on_c, 13, 62, 0
15, 201480, Note_on_c, 13, 62, 84
15, 201531, Note_on_c, 13, 62, 0
15, 201540, Note_on_c, 13, 62, 84
15, 201591, Note_on_c, 13, 62, 0
15, 201600, Note_on_c, 13, 65, 84
15, 201651, Note_on_c, 13, 65, 0
15, 201660, Note_on_c, 13, 65, 84
15, 201711, Note_on_c, 13, 65, 0
15, 201720, Note_on_c, 13, 64, 84
15, 201771, Note_on_c, 13, 64, 0
15, 201780, Note_on_c, 13, 64, 84
15, 201831, Note_on_c, 13, 64, 0
15, 201840, Note_on_c, 13, 62, 92
15, 201891, Note_on_c, 13, 62, 0
15, 201900, Note_on_c, 13, 62, 84
15, 201951, Note_on_c, 13, 62, 0
15, 201960, Note_on_c, 13, 62, 84
15, 202011, Note_on_c, 13, 62, 0
15, 202020, Note_on_c, 13, 62, 84
15, 202071, Note_on_c, 13, 62, 0
15, 202080, Note_on_c, 13, 62, 84
15, 202131, Note_on_c, 13, 62, 0
15, 202140, Note_on_c, 13, 62, 84
15, 202191, Note_on_c, 13, 62, 0
15, 202200, Note_on_c, 13, 62, 84
15, 202251, Note_on_c, 13, 62, 0
15, 202260, Note_on_c, 13, 62, 84
15, 202311, Note_on_c, 13, 62, 0
15, 202320, Note_on_c, 13, 65, 84
15, 202371, Note_on_c, 13, 65, 0
15, 202380, Note_on_c, 13, 65, 84
15, 202431, Note_on_c, 13, 65, 0
15, 202440, Note_on_c, 13, 64, 84
15, 202491, Note_on_c, 13, 64, 0
15, 202500, Note_on_c, 13, 64, 84
15, 202551, Note_on_c, 13, 64, 0
15, 202560, Note_on_c, 13, 62, 92
15, 202611, Note_on_c, 13, 62, 0
15, 202620, Note_on_c, 13, 62, 84
15, 202671, Note_on_c, 13, 62, 0
15, 202680, Note_on_c, 13, 62, 84
15, 202731, Note_on_c, 13, 62, 0
15, 202740, Note_on_c, 13, 62, 84
15, 202791, Note_on_c, 13, 62, 0
15, 202800, Note_on_c, 13, 62, 84
15, 202851, Note_on_c, 13, 62, 0
15, 202860, Note_on_c, 13, 62, 84
15, 202911, Note_on_c, 13, 62, 0
15, 202920, Note_on_c, 13, 62, 84
15, 202971, Note_on_c, 13, 62, 0
15, 202980, Note_on_c, 13, 62, 84
15, 203031, Note_on_c, 13, 62, 0
15, 203040, Note_on_c, 13, 65, 84
15, 203040, Note_on_c, 13, 62, 84
15, 203091, Note_on_c, 13, 65, 0
15, 203091, Note_on_c, 13, 62, 0
15, 203100, Note_on_c, 13, 65, 84
15, 203100, Note_on_c, 13, 62, 84
15, 203151, Note_on_c, 13, 65, 0
15, 203151, Note_on_c, 13, 62, 0
15, 203160, Note_on_c, 13, 65, 84
15, 203160, Note_on_c, 13, 62, 84
15, 203211, Note_on_c, 13, 65, 0
15, 203211, Note_on_c, 13, 62, 0
15, 203220, Note_on_c, 13, 65, 84
15, 203220, Note_on_c, 13, 62, 84
15, 203271, Note_on_c, 13, 65, 0
15, 203271, Note_on_c, 13, 62, 0
15, 203280, Note_on_c, 13, 65, 92
15, 203280, Note_on_c, 13, 62, 92
15, 203331, Note_on_c, 13, 65, 0
15, 203331, Note_on_c, 13, 62, 0
15, 203340, Note_on_c, 13, 62, 84
15, 203340, Note_on_c, 13, 65, 84
15, 203391, Note_on_c, 13, 62, 0
15, 203391, Note_on_c, 13, 65, 0
15, 203400, Note_on_c, 13, 65, 84
15, 203400, Note_on_c, 13, 62, 84
15, 203451, Note_on_c, 13, 65, 0
15, 203451, Note_on_c, 13, 62, 0
15, 203460, Note_on_c, 13, 65, 84
15, 203460, Note_on_c, 13, 62, 84
15, 203511, Note_on_c, 13, 65, 0
15, 203511, Note_on_c, 13, 62, 0
15, 203520, Note_on_c, 13, 62, 84
15, 203520, Note_on_c, 13, 65, 84
15, 203571, Note_on_c, 13, 62, 0
15, 203571, Note_on_c, 13, 65, 0
15, 203580, Note_on_c, 13, 65, 84
15, 203580, Note_on_c, 13, 62, 84
15, 203631, Note_on_c, 13, 65, 0
15, 203631, Note_on_c, 13, 62, 0
15, 203640, Note_on_c, 13, 65, 84
15, 203640, Note_on_c, 13, 62, 84
15, 203691, Note_on_c, 13, 65, 0
15, 203691, Note_on_c, 13, 62, 0
15, 203700, Note_on_c, 13, 65, 84
15, 203700, Note_on_c, 13, 62, 84
15, 203751, Note_on_c, 13, 65, 0
15, 203751, Note_on_c, 13, 62, 0
15, 203760, Note_on_c, 13, 65, 84
15, 203760, Note_on_c, 13, 62, 84
15, 203811, Note_on_c, 13, 65, 0
15, 203811, Note_on_c, 13, 62, 0
15, 203820, Note_on_c, 13, 65, 84
15, 203820, Note_on_c, 13, 62, 84
15, 203871, Note_on_c, 13, 65, 0
15, 203871, Note_on_c, 13, 62, 0
15, 203880, Note_on_c, 13, 65, 84
15, 203880, Note_on_c, 13, 62, 84
15, 203931, Note_on_c, 13, 65, 0
15, 203931, Note_on_c, 13, 62, 0
15, 203940, Note_on_c, 13, 62, 84
15, 203940, Note_on_c, 13, 65, 84
15, 203991, Note_on_c, 13, 62, 0
15, 203991, Note_on_c, 13, 65, 0
15, 204000, Note_on_c, 13, 62, 84
15, 204000, Note_on_c, 13, 65, 84
15, 204051, Note_on_c, 13, 62, 0
15, 204051, Note_on_c, 13, 65, 0
15, 204060, Note_on_c, 13, 62, 84
15, 204060, Note_on_c, 13, 65, 84
15, 204111, Note_on_c, 13, 62, 0
15, 204111, Note_on_c, 13, 65, 0
15, 204120, Note_on_c, 13, 62, 84
15, 204120, Note_on_c, 13, 65, 84
15, 204171, Note_on_c, 13, 62, 0
15, 204171, Note_on_c, 13, 65, 0
15, 204180, Note_on_c, 13, 62, 84
15, 204180, Note_on_c, 13, 65, 84
15, 204231, Note_on_c, 13, 62, 0
15, 204231, Note_on_c, 13, 65, 0
15, 204240, Note_on_c, 13, 62, 84
15, 204240, Note_on_c, 13, 65, 84
15, 204291, Note_on_c, 13, 62, 0
15, 204291, Note_on_c, 13, 65, 0
15, 204300, Note_on_c, 13, 62, 84
15, 204300, Note_on_c, 13, 65, 84
15, 204351, Note_on_c, 13, 62, 0
15, 204351, Note_on_c, 13, 65, 0
15, 204360, Note_on_c, 13, 65, 84
15, 204360, Note_on_c, 13, 62, 84
15, 204411, Note_on_c, 13, 65, 0
15, 204411, Note_on_c, 13, 62, 0
15, 204420, Note_on_c, 13, 62, 84
15, 204420, Note_on_c, 13, 65, 84
15, 204471, Note_on_c, 13, 62, 0
15, 204471, Note_on_c, 13, 65, 0
15, 204480, Note_on_c, 13, 62, 84
15, 204480, Note_on_c, 13, 65, 84
15, 204531, Note_on_c, 13, 62, 0
15, 204531, Note_on_c, 13, 65, 0
15, 204540, Note_on_c, 13, 62, 84
15, 204540, Note_on_c, 13, 65, 84
15, 204591, Note_on_c, 13, 62, 0
15, 204591, Note_on_c, 13, 65, 0
15, 204600, Note_on_c, 13, 62, 84
15, 204600, Note_on_c, 13, 65, 84
15, 204651, Note_on_c, 13, 62, 0
15, 204651, Note_on_c, 13, 65, 0
15, 204660, Note_on_c, 13, 65, 84
15, 204660, Note_on_c, 13, 62, 84
15, 204711, Note_on_c, 13, 65, 0
15, 204711, Note_on_c, 13, 62, 0
15, 204720, Note_on_c, 13, 65, 92
15, 204720, Note_on_c, 13, 62, 92
15, 204771, Note_on_c, 13, 65, 0
15, 204771, Note_on_c, 13, 62, 0
15, 204780, Note_on_c, 13, 62, 84
15, 204780, Note_on_c, 13, 65, 84
15, 204831, Note_on_c, 13, 62, 0
15, 204831, Note_on_c, 13, 65, 0
15, 204840, Note_on_c, 13, 65, 84
15, 204840, Note_on_c, 13, 62, 84
15, 204891, Note_on_c, 13, 65, 0
15, 204891, Note_on_c, 13, 62, 0
15, 204900, Note_on_c, 13, 62, 84
15, 204900, Note_on_c, 13, 65, 84
15, 204951, Note_on_c, 13, 62, 0
15, 204951, Note_on_c, 13, 65, 0
15, 204960, Note_on_c, 13, 62, 84
15, 204960, Note_on_c, 13, 65, 84
15, 205011, Note_on_c, 13, 62, 0
15, 205011, Note_on_c, 13, 65, 0
15, 205020, Note_on_c, 13, 62, 84
15, 205020, Note_on_c, 13, 65, 84
15, 205071, Note_on_c, 13, 62, 0
15, 205071, Note_on_c, 13, 65, 0
15, 205080, Note_on_c, 13, 65, 84
15, 205080, Note_on_c, 13, 62, 84
15, 205131, Note_on_c, 13, 65, 0
15, 205131, Note_on_c, 13, 62, 0
15, 205140, Note_on_c, 13, 62, 84
15, 205140, Note_on_c, 13, 65, 84
15, 205191, Note_on_c, 13, 62, 0
15, 205191, Note_on_c, 13, 65, 0
15, 205200, Note_on_c, 13, 65, 84
15, 205200, Note_on_c, 13, 62, 84
15, 205251, Note_on_c, 13, 65, 0
15, 205251, Note_on_c, 13, 62, 0
15, 205260, Note_on_c, 13, 62, 84
15, 205260, Note_on_c, 13, 65, 84
15, 205311, Note_on_c, 13, 62, 0
15, 205311, Note_on_c, 13, 65, 0
15, 205320, Note_on_c, 13, 62, 84
15, 205320, Note_on_c, 13, 65, 84
15, 205371, Note_on_c, 13, 62, 0
15, 205371, Note_on_c, 13, 65, 0
15, 205380, Note_on_c, 13, 65, 84
15, 205380, Note_on_c, 13, 62, 84
15, 205431, Note_on_c, 13, 65, 0
15, 205431, Note_on_c, 13, 62, 0
15, 205440, Note_on_c, 13, 65, 84
15, 205440, Note_on_c, 13, 62, 84
15, 205491, Note_on_c, 13, 65, 0
15, 205491, Note_on_c, 13, 62, 0
15, 205500, Note_on_c, 13, 65, 84
15, 205500, Note_on_c, 13, 62, 84
15, 205551, Note_on_c, 13, 65, 0
15, 205551, Note_on_c, 13, 62, 0
15, 205560, Note_on_c, 13, 62, 84
15, 205560, Note_on_c, 13, 65, 84
15, 205611, Note_on_c, 13, 62, 0
15, 205611, Note_on_c, 13, 65, 0
15, 205620, Note_on_c, 13, 62, 84
15, 205620, Note_on_c, 13, 65, 84
15, 205671, Note_on_c, 13, 62, 0
15, 205671, Note_on_c, 13, 65, 0
15, 205680, Note_on_c, 13, 62, 84
15, 205680, Note_on_c, 13, 65, 84
15, 205731, Note_on_c, 13, 62, 0
15, 205731, Note_on_c, 13, 65, 0
15, 205740, Note_on_c, 13, 65, 84
15, 205740, Note_on_c, 13, 62, 84
15, 205791, Note_on_c, 13, 65, 0
15, 205791, Note_on_c, 13, 62, 0
15, 205800, Note_on_c, 13, 65, 84
15, 205800, Note_on_c, 13, 62, 84
15, 205851, Note_on_c, 13, 65, 0
15, 205851, Note_on_c, 13, 62, 0
15, 205860, Note_on_c, 13, 65, 84
15, 205860, Note_on_c, 13, 62, 84
15, 205911, Note_on_c, 13, 65, 0
15, 205911, Note_on_c, 13, 62, 0
15, 205920, Note_on_c, 13, 56, 92
15, 205971, Note_on_c, 13, 56, 0
15, 205980, Note_on_c, 13, 56, 92
15, 206031, Note_on_c, 13, 56, 0
15, 206040, Note_on_c, 13, 65, 84
15, 206091, Note_on_c, 13, 65, 0
15, 206100, Note_on_c, 13, 65, 84
15, 206151, Note_on_c, 13, 65, 0
15, 206160, Note_on_c, 13, 56, 84
15, 206211, Note_on_c, 13, 56, 0
15, 206220, Note_on_c, 13, 56, 84
15, 206271, Note_on_c, 13, 56, 0
15, 206280, Note_on_c, 13, 65, 84
15, 206331, Note_on_c, 13, 65, 0
15, 206340, Note_on_c, 13, 65, 84
15, 206399, Note_on_c, 13, 65, 0
15, 206640, Note_on_c, 13, 57, 92
15, 206691, Note_on_c, 13, 57, 0
15, 206700, Note_on_c, 13, 57, 84
15, 206751, Note_on_c, 13, 57, 0
15, 206760, Note_on_c, 13, 66, 84
15, 206811, Note_on_c, 13, 66, 0
15, 206820, Note_on_c, 13, 66, 84
15, 206871, Note_on_c, 13, 66, 0
15, 206880, Note_on_c, 13, 57, 84
15, 206931, Note_on_c, 13, 57, 0
15, 206940, Note_on_c, 13, 57, 84
15, 206991, Note_on_c, 13, 57, 0
15, 207000, Note_on_c, 13, 66, 84
15, 207051, Note_on_c, 13, 66, 0
15, 207060, Note_on_c, 13, 66, 84
15, 207119, Note_on_c, 13, 66, 0
15, 207360, Note_on_c, 13, 58, 92
15, 207411, Note_on_c, 13, 58, 0
15, 207420, Note_on_c, 13, 58, 84
15, 207471, Note_on_c, 13, 58, 0
15, 207480, Note_on_c, 13, 67, 84
15, 207531, Note_on_c, 13, 67, 0
15, 207540, Note_on_c, 13, 67, 84
15, 207591, Note_on_c, 13, 67, 0
15, 207600, Note_on_c, 13, 58, 84
15, 207651, Note_on_c, 13, 58, 0
15, 207660, Note_on_c, 13, 58, 84
15, 207711, Note_on_c, 13, 58, 0
15, 207720, Note_on_c, 13, 67, 84
15, 207771, Note_on_c, 13, 67, 0
15, 207780, Note_on_c, 13, 67, 84
15, 207839, Note_on_c, 13, 67, 0
15, 208080, Note_on_c, 13, 67, 92
15, 208131, Note_on_c, 13, 67, 0
15, 208140, Note_on_c, 13, 67, 84
15, 208191, Note_on_c, 13, 67, 0
15, 208200, Note_on_c, 13, 70, 84
15, 208251, Note_on_c, 13, 70, 0
15, 208260, Note_on_c, 13, 70, 84
15, 208311, Note_on_c, 13, 70, 0
15, 208320, Note_on_c, 13, 67, 84
15, 208371, Note_on_c, 13, 67, 0
15, 208380, Note_on_c, 13, 67, 84
15, 208431, Note_on_c, 13, 67, 0
15, 208440, Note_on_c, 13, 70, 84
15, 208491, Note_on_c, 13, 70, 0
15, 208500, Note_on_c, 13, 70, 84
15, 208559, Note_on_c, 13, 70, 0
15, 208800, Note_on_c, 13, 70, 88
15, 208851, Note_on_c, 13, 70, 0
15, 208860, Note_on_c, 13, 70, 88
15, 208911, Note_on_c, 13, 70, 0
15, 208920, Note_on_c, 13, 70, 88
15, 208971, Note_on_c, 13, 70, 0
15, 208980, Note_on_c, 13, 70, 88
15, 209031, Note_on_c, 13, 70, 0
15, 209040, Note_on_c, 13, 67, 88
15, 209091, Note_on_c, 13, 67, 0
15, 209100, Note_on_c, 13, 67, 88
15, 209151, Note_on_c, 13, 67, 0
15, 209160, Note_on_c, 13, 70, 88
15, 209211, Note_on_c, 13, 70, 0
15, 209220, Note_on_c, 13, 70, 88
15, 209271, Note_on_c, 13, 70, 0
15, 209280, Note_on_c, 13, 70, 88
15, 209331, Note_on_c, 13, 70, 0
15, 209340, Note_on_c, 13, 70, 88
15, 209391, Note_on_c, 13, 70, 0
15, 209400, Note_on_c, 13, 70, 88
15, 209451, Note_on_c, 13, 70, 0
15, 209460, Note_on_c, 13, 70, 88
15, 209511, Note_on_c, 13, 70, 0
15, 209520, Note_on_c, 13, 70, 88
15, 209571, Note_on_c, 13, 70, 0
15, 209580, Note_on_c, 13, 70, 88
15, 209631, Note_on_c, 13, 70, 0
15, 209640, Note_on_c, 13, 70, 88
15, 209691, Note_on_c, 13, 70, 0
15, 209700, Note_on_c, 13, 70, 88
15, 209751, Note_on_c, 13, 70, 0
15, 209760, Note_on_c, 13, 70, 88
15, 209811, Note_on_c, 13, 70, 0
15, 209820, Note_on_c, 13, 70, 88
15, 209871, Note_on_c, 13, 70, 0
15, 209880, Note_on_c, 13, 70, 88
15, 209931, Note_on_c, 13, 70, 0
15, 209940, Note_on_c, 13, 70, 88
15, 209991, Note_on_c, 13, 70, 0
15, 210000, Note_on_c, 13, 70, 88
15, 210051, Note_on_c, 13, 70, 0
15, 210060, Note_on_c, 13, 70, 88
15, 210111, Note_on_c, 13, 70, 0
15, 210120, Note_on_c, 13, 69, 88
15, 210171, Note_on_c, 13, 69, 0
15, 210180, Note_on_c, 13, 69, 88
15, 210231, Note_on_c, 13, 69, 0
15, 210240, Note_on_c, 13, 69, 92
15, 210240, Note_on_c, 13, 65, 92
15, 210291, Note_on_c, 13, 69, 0
15, 210291, Note_on_c, 13, 65, 0
15, 210300, Note_on_c, 13, 69, 92
15, 210300, Note_on_c, 13, 65, 92
15, 210351, Note_on_c, 13, 69, 0
15, 210351, Note_on_c, 13, 65, 0
15, 210360, Note_on_c, 13, 65, 92
15, 210360, Note_on_c, 13, 69, 92
15, 210411, Note_on_c, 13, 65, 0
15, 210411, Note_on_c, 13, 69, 0
15, 210420, Note_on_c, 13, 65, 92
15, 210420, Note_on_c, 13, 69, 92
15, 210471, Note_on_c, 13, 65, 0
15, 210471, Note_on_c, 13, 69, 0
15, 210480, Note_on_c, 13, 65, 92
15, 210480, Note_on_c, 13, 69, 92
15, 210531, Note_on_c, 13, 65, 0
15, 210531, Note_on_c, 13, 69, 0
15, 210540, Note_on_c, 13, 69, 92
15, 210540, Note_on_c, 13, 65, 92
15, 210591, Note_on_c, 13, 69, 0
15, 210591, Note_on_c, 13, 65, 0
15, 210600, Note_on_c, 13, 65, 92
15, 210600, Note_on_c, 13, 69, 92
15, 210651, Note_on_c, 13, 65, 0
15, 210651, Note_on_c, 13, 69, 0
15, 210660, Note_on_c, 13, 65, 92
15, 210660, Note_on_c, 13, 69, 92
15, 210711, Note_on_c, 13, 65, 0
15, 210711, Note_on_c, 13, 69, 0
15, 210720, Note_on_c, 13, 69, 92
15, 210720, Note_on_c, 13, 65, 92
15, 210771, Note_on_c, 13, 69, 0
15, 210771, Note_on_c, 13, 65, 0
15, 210780, Note_on_c, 13, 69, 92
15, 210780, Note_on_c, 13, 65, 92
15, 210831, Note_on_c, 13, 69, 0
15, 210831, Note_on_c, 13, 65, 0
15, 210840, Note_on_c, 13, 65, 92
15, 210840, Note_on_c, 13, 69, 92
15, 210891, Note_on_c, 13, 65, 0
15, 210891, Note_on_c, 13, 69, 0
15, 210900, Note_on_c, 13, 65, 92
15, 210900, Note_on_c, 13, 69, 92
15, 210951, Note_on_c, 13, 65, 0
15, 210951, Note_on_c, 13, 69, 0
15, 210960, Note_on_c, 13, 69, 92
15, 210960, Note_on_c, 13, 65, 92
15, 211011, Note_on_c, 13, 69, 0
15, 211011, Note_on_c, 13, 65, 0
15, 211020, Note_on_c, 13, 65, 92
15, 211020, Note_on_c, 13, 69, 92
15, 211071, Note_on_c, 13, 65, 0
15, 211071, Note_on_c, 13, 69, 0
15, 211080, Note_on_c, 13, 69, 92
15, 211080, Note_on_c, 13, 65, 92
15, 211131, Note_on_c, 13, 69, 0
15, 211131, Note_on_c, 13, 65, 0
15, 211140, Note_on_c, 13, 69, 92
15, 211140, Note_on_c, 13, 65, 92
15, 211191, Note_on_c, 13, 69, 0
15, 211191, Note_on_c, 13, 65, 0
15, 211200, Note_on_c, 13, 65, 92
15, 211200, Note_on_c, 13, 69, 92
15, 211251, Note_on_c, 13, 65, 0
15, 211251, Note_on_c, 13, 69, 0
15, 211260, Note_on_c, 13, 65, 92
15, 211260, Note_on_c, 13, 69, 92
15, 211311, Note_on_c, 13, 65, 0
15, 211311, Note_on_c, 13, 69, 0
15, 211320, Note_on_c, 13, 69, 92
15, 211320, Note_on_c, 13, 65, 92
15, 211371, Note_on_c, 13, 69, 0
15, 211371, Note_on_c, 13, 65, 0
15, 211380, Note_on_c, 13, 69, 92
15, 211380, Note_on_c, 13, 65, 92
15, 211431, Note_on_c, 13, 69, 0
15, 211431, Note_on_c, 13, 65, 0
15, 211440, Note_on_c, 13, 65, 92
15, 211440, Note_on_c, 13, 69, 92
15, 211491, Note_on_c, 13, 65, 0
15, 211491, Note_on_c, 13, 69, 0
15, 211500, Note_on_c, 13, 69, 92
15, 211500, Note_on_c, 13, 65, 92
15, 211551, Note_on_c, 13, 69, 0
15, 211551, Note_on_c, 13, 65, 0
15, 211560, Note_on_c, 13, 65, 92
15, 211560, Note_on_c, 13, 69, 92
15, 211611, Note_on_c, 13, 65, 0
15, 211611, Note_on_c, 13, 69, 0
15, 211620, Note_on_c, 13, 65, 92
15, 211620, Note_on_c, 13, 69, 92
15, 211671, Note_on_c, 13, 65, 0
15, 211671, Note_on_c, 13, 69, 0
15, 211680, Note_on_c, 13, 72, 92
15, 211731, Note_on_c, 13, 72, 0
15, 211740, Note_on_c, 13, 60, 92
15, 211740, Note_on_c, 13, 48, 92
15, 211791, Note_on_c, 13, 60, 0
15, 211791, Note_on_c, 13, 48, 0
15, 211800, Note_on_c, 13, 60, 92
15, 211800, Note_on_c, 13, 48, 92
15, 211851, Note_on_c, 13, 60, 0
15, 211851, Note_on_c, 13, 48, 0
15, 211860, Note_on_c, 13, 48, 92
15, 211860, Note_on_c, 13, 60, 92
15, 211911, Note_on_c, 13, 48, 0
15, 211911, Note_on_c, 13, 60, 0
15, 211920, Note_on_c, 13, 60, 92
15, 211920, Note_on_c, 13, 48, 92
15, 211971, Note_on_c, 13, 60, 0
15, 211971, Note_on_c, 13, 48, 0
15, 211980, Note_on_c, 13, 48, 92
15, 211980, Note_on_c, 13, 60, 92
15, 212031, Note_on_c, 13, 48, 0
15, 212031, Note_on_c, 13, 60, 0
15, 212040, Note_on_c, 13, 60, 92
15, 212040, Note_on_c, 13, 48, 92
15, 212091, Note_on_c, 13, 60, 0
15, 212091, Note_on_c, 13, 48, 0
15, 212100, Note_on_c, 13, 60, 92
15, 212100, Note_on_c, 13, 48, 92
15, 212151, Note_on_c, 13, 60, 0
15, 212151, Note_on_c, 13, 48, 0
15, 212160, Note_on_c, 13, 48, 92
15, 212160, Note_on_c, 13, 60, 92
15, 212211, Note_on_c, 13, 48, 0
15, 212211, Note_on_c, 13, 60, 0
15, 212220, Note_on_c, 13, 48, 92
15, 212220, Note_on_c, 13, 60, 92
15, 212271, Note_on_c, 13, 48, 0
15, 212271, Note_on_c, 13, 60, 0
15, 212280, Note_on_c, 13, 60, 92
15, 212280, Note_on_c, 13, 48, 92
15, 212331, Note_on_c, 13, 60, 0
15, 212331, Note_on_c, 13, 48, 0
15, 212340, Note_on_c, 13, 48, 92
15, 212340, Note_on_c, 13, 60, 92
15, 212391, Note_on_c, 13, 48, 0
15, 212391, Note_on_c, 13, 60, 0
15, 212400, Note_on_c, 13, 48, 92
15, 212400, Note_on_c, 13, 60, 92
15, 212451, Note_on_c, 13, 48, 0
15, 212451, Note_on_c, 13, 60, 0
15, 212460, Note_on_c, 13, 60, 92
15, 212460, Note_on_c, 13, 48, 92
15, 212511, Note_on_c, 13, 60, 0
15, 212511, Note_on_c, 13, 48, 0
15, 212520, Note_on_c, 13, 48, 92
15, 212520, Note_on_c, 13, 60, 92
15, 212571, Note_on_c, 13, 48, 0
15, 212571, Note_on_c, 13, 60, 0
15, 212580, Note_on_c, 13, 48, 92
15, 212580, Note_on_c, 13, 60, 92
15, 212631, Note_on_c, 13, 48, 0
15, 212631, Note_on_c, 13, 60, 0
15, 212640, Note_on_c, 13, 48, 92
15, 212640, Note_on_c, 13, 60, 92
15, 212691, Note_on_c, 13, 48, 0
15, 212691, Note_on_c, 13, 60, 0
15, 212700, Note_on_c, 13, 60, 92
15, 212700, Note_on_c, 13, 48, 92
15, 212751, Note_on_c, 13, 60, 0
15, 212751, Note_on_c, 13, 48, 0
15, 212760, Note_on_c, 13, 48, 92
15, 212760, Note_on_c, 13, 60, 92
15, 212811, Note_on_c, 13, 48, 0
15, 212811, Note_on_c, 13, 60, 0
15, 212820, Note_on_c, 13, 48, 92
15, 212820, Note_on_c, 13, 60, 92
15, 212871, Note_on_c, 13, 48, 0
15, 212871, Note_on_c, 13, 60, 0
15, 212880, Note_on_c, 13, 48, 92
15, 212880, Note_on_c, 13, 60, 92
15, 212931, Note_on_c, 13, 48, 0
15, 212931, Note_on_c, 13, 60, 0
15, 212940, Note_on_c, 13, 48, 92
15, 212940, Note_on_c, 13, 60, 92
15, 212991, Note_on_c, 13, 48, 0
15, 212991, Note_on_c, 13, 60, 0
15, 213000, Note_on_c, 13, 48, 92
15, 213000, Note_on_c, 13, 60, 92
15, 213051, Note_on_c, 13, 48, 0
15, 213051, Note_on_c, 13, 60, 0
15, 213060, Note_on_c, 13, 60, 92
15, 213060, Note_on_c, 13, 48, 92
15, 213111, Note_on_c, 13, 60, 0
15, 213111, Note_on_c, 13, 48, 0
15, 213120, Note_on_c, 13, 48, 92
15, 213120, Note_on_c, 13, 60, 92
15, 213171, Note_on_c, 13, 48, 0
15, 213171, Note_on_c, 13, 60, 0
15, 213180, Note_on_c, 13, 48, 92
15, 213180, Note_on_c, 13, 60, 92
15, 213231, Note_on_c, 13, 48, 0
15, 213231, Note_on_c, 13, 60, 0
15, 213240, Note_on_c, 13, 48, 92
15, 213240, Note_on_c, 13, 60, 92
15, 213291, Note_on_c, 13, 48, 0
15, 213291, Note_on_c, 13, 60, 0
15, 213300, Note_on_c, 13, 48, 92
15, 213300, Note_on_c, 13, 60, 92
15, 213351, Note_on_c, 13, 48, 0
15, 213351, Note_on_c, 13, 60, 0
15, 213360, Note_on_c, 13, 60, 92
15, 213360, Note_on_c, 13, 48, 92
15, 213411, Note_on_c, 13, 60, 0
15, 213411, Note_on_c, 13, 48, 0
15, 213420, Note_on_c, 13, 60, 92
15, 213420, Note_on_c, 13, 48, 92
15, 213471, Note_on_c, 13, 60, 0
15, 213471, Note_on_c, 13, 48, 0
15, 213480, Note_on_c, 13, 60, 92
15, 213480, Note_on_c, 13, 48, 92
15, 213531, Note_on_c, 13, 60, 0
15, 213531, Note_on_c, 13, 48, 0
15, 213540, Note_on_c, 13, 48, 92
15, 213540, Note_on_c, 13, 60, 92
15, 213591, Note_on_c, 13, 48, 0
15, 213591, Note_on_c, 13, 60, 0
15, 213600, Note_on_c, 13, 60, 92
15, 213600, Note_on_c, 13, 48, 92
15, 213651, Note_on_c, 13, 60, 0
15, 213651, Note_on_c, 13, 48, 0
15, 213660, Note_on_c, 13, 48, 92
15, 213660, Note_on_c, 13, 60, 92
15, 213711, Note_on_c, 13, 48, 0
15, 213711, Note_on_c, 13, 60, 0
15, 213720, Note_on_c, 13, 48, 92
15, 213720, Note_on_c, 13, 60, 92
15, 213771, Note_on_c, 13, 48, 0
15, 213771, Note_on_c, 13, 60, 0
15, 213780, Note_on_c, 13, 60, 92
15, 213780, Note_on_c, 13, 48, 92
15, 213831, Note_on_c, 13, 60, 0
15, 213831, Note_on_c, 13, 48, 0
15, 213840, Note_on_c, 13, 60, 92
15, 213840, Note_on_c, 13, 48, 92
15, 213891, Note_on_c, 13, 60, 0
15, 213891, Note_on_c, 13, 48, 0
15, 213900, Note_on_c, 13, 60, 92
15, 213900, Note_on_c, 13, 48, 92
15, 213951, Note_on_c, 13, 60, 0
15, 213951, Note_on_c, 13, 48, 0
15, 213960, Note_on_c, 13, 60, 92
15, 213960, Note_on_c, 13, 48, 92
15, 214011, Note_on_c, 13, 60, 0
15, 214011, Note_on_c, 13, 48, 0
15, 214020, Note_on_c, 13, 48, 92
15, 214020, Note_on_c, 13, 60, 92
15, 214071, Note_on_c, 13, 48, 0
15, 214071, Note_on_c, 13, 60, 0
15, 214080, Note_on_c, 13, 48, 92
15, 214080, Note_on_c, 13, 60, 92
15, 214131, Note_on_c, 13, 48, 0
15, 214131, Note_on_c, 13, 60, 0
15, 214140, Note_on_c, 13, 48, 92
15, 214140, Note_on_c, 13, 60, 92
15, 214191, Note_on_c, 13, 48, 0
15, 214191, Note_on_c, 13, 60, 0
15, 214200, Note_on_c, 13, 60, 92
15, 214200, Note_on_c, 13, 48, 92
15, 214251, Note_on_c, 13, 60, 0
15, 214251, Note_on_c, 13, 48, 0
15, 214260, Note_on_c, 13, 48, 92
15, 214260, Note_on_c, 13, 60, 92
15, 214311, Note_on_c, 13, 48, 0
15, 214311, Note_on_c, 13, 60, 0
15, 214320, Note_on_c, 13, 60, 92
15, 214320, Note_on_c, 13, 48, 92
15, 214371, Note_on_c, 13, 60, 0
15, 214371, Note_on_c, 13, 48, 0
15, 214380, Note_on_c, 13, 48, 92
15, 214380, Note_on_c, 13, 60, 92
15, 214431, Note_on_c, 13, 48, 0
15, 214431, Note_on_c, 13, 60, 0
15, 214440, Note_on_c, 13, 60, 92
15, 214440, Note_on_c, 13, 48, 92
15, 214491, Note_on_c, 13, 60, 0
15, 214491, Note_on_c, 13, 48, 0
15, 214500, Note_on_c, 13, 60, 92
15, 214500, Note_on_c, 13, 48, 92
15, 214551, Note_on_c, 13, 60, 0
15, 214551, Note_on_c, 13, 48, 0
15, 214560, Note_on_c, 13, 60, 92
15, 214560, Note_on_c, 13, 48, 92
15, 214611, Note_on_c, 13, 60, 0
15, 214611, Note_on_c, 13, 48, 0
15, 214620, Note_on_c, 13, 60, 92
15, 214620, Note_on_c, 13, 48, 92
15, 214671, Note_on_c, 13, 60, 0
15, 214671, Note_on_c, 13, 48, 0
15, 214680, Note_on_c, 13, 48, 92
15, 214680, Note_on_c, 13, 60, 92
15, 214731, Note_on_c, 13, 48, 0
15, 214731, Note_on_c, 13, 60, 0
15, 214740, Note_on_c, 13, 48, 92
15, 214740, Note_on_c, 13, 60, 92
15, 214791, Note_on_c, 13, 48, 0
15, 214791, Note_on_c, 13, 60, 0
15, 214800, Note_on_c, 13, 60, 92
15, 214800, Note_on_c, 13, 48, 92
15, 214851, Note_on_c, 13, 60, 0
15, 214851, Note_on_c, 13, 48, 0
15, 214860, Note_on_c, 13, 60, 92
15, 214860, Note_on_c, 13, 48, 92
15, 214911, Note_on_c, 13, 60, 0
15, 214911, Note_on_c, 13, 48, 0
15, 214920, Note_on_c, 13, 60, 92
15, 214920, Note_on_c, 13, 48, 92
15, 214971, Note_on_c, 13, 60, 0
15, 214971, Note_on_c, 13, 48, 0
15, 214980, Note_on_c, 13, 60, 92
15, 214980, Note_on_c, 13, 48, 92
15, 215031, Note_on_c, 13, 60, 0
15, 215031, Note_on_c, 13, 48, 0
15, 215040, Note_on_c, 13, 60, 92
15, 215040, Note_on_c, 13, 48, 92
15, 215091, Note_on_c, 13, 60, 0
15, 215091, Note_on_c, 13, 48, 0
15, 215100, Note_on_c, 13, 48, 92
15, 215100, Note_on_c, 13, 60, 92
15, 215151, Note_on_c, 13, 48, 0
15, 215151, Note_on_c, 13, 60, 0
15, 215160, Note_on_c, 13, 48, 92
15, 215160, Note_on_c, 13, 60, 92
15, 215211, Note_on_c, 13, 48, 0
15, 215211, Note_on_c, 13, 60, 0
15, 215220, Note_on_c, 13, 48, 92
15, 215220, Note_on_c, 13, 60, 92
15, 215271, Note_on_c, 13, 48, 0
15, 215271, Note_on_c, 13, 60, 0
15, 215280, Note_on_c, 13, 53, 92
15, 215399, Note_on_c, 13, 53, 0
15, 218160, Note_on_c, 13, 60, 76
15, 218211, Note_on_c, 13, 60, 0
15, 218220, Note_on_c, 13, 60, 76
15, 218271, Note_on_c, 13, 60, 0
15, 218280, Note_on_c, 13, 60, 76
15, 218331, Note_on_c, 13, 60, 0
15, 218340, Note_on_c, 13, 60, 76
15, 218391, Note_on_c, 13, 60, 0
15, 218400, Note_on_c, 13, 58, 76
15, 218451, Note_on_c, 13, 58, 0
15, 218460, Note_on_c, 13, 58, 76
15, 218511, Note_on_c, 13, 58, 0
15, 218520, Note_on_c, 13, 57, 76
15, 218571, Note_on_c, 13, 57, 0
15, 218580, Note_on_c, 13, 57, 76
15, 218631, Note_on_c, 13, 57, 0
15, 218640, Note_on_c, 13, 55, 76
15, 218691, Note_on_c, 13, 55, 0
15, 218700, Note_on_c, 13, 55, 76
15, 218751, Note_on_c, 13, 55, 0
15, 218760, Note_on_c, 13, 53, 76
15, 218811, Note_on_c, 13, 53, 0
15, 218820, Note_on_c, 13, 53, 76
15, 218871, Note_on_c, 13, 53, 0
15, 218880, Note_on_c, 13, 52, 52
15, 218999, Note_on_c, 13, 52, 0
15, 221940, Control_c, 13, 11, 84
15, 222000, Note_on_c, 13, 55, 76
15, 222120, Control_c, 13, 11, 88
15, 222209, Note_on_c, 13, 55, 0
15, 222210, Note_on_c, 13, 55, 76
15, 222239, Note_on_c, 13, 55, 0
15, 222240, Note_on_c, 13, 53, 76
15, 222300, Control_c, 13, 11, 92
15, 222359, Note_on_c, 13, 53, 0
15, 222360, Note_on_c, 13, 52, 76
15, 222464, Note_on_c, 13, 52, 0
15, 222480, Control_c, 13, 11, 96
15, 222480, Note_on_c, 13, 52, 76
15, 222660, Control_c, 13, 11, 100
15, 222719, Note_on_c, 13, 52, 0
15, 222720, Note_on_c, 13, 53, 76
15, 222840, Control_c, 13, 11, 104
15, 222959, Note_on_c, 13, 53, 0
15, 222960, Note_on_c, 13, 55, 76
15, 223020, Control_c, 13, 11, 107
15, 223184, Note_on_c, 13, 55, 0
15, 223200, Note_on_c, 13, 48, 76
15, 223200, Control_c, 13, 11, 111
15, 223380, Control_c, 13, 11, 115
15, 223439, Note_on_c, 13, 48, 0
15, 223440, Note_on_c, 13, 50, 76
15, 223560, Control_c, 13, 11, 119
15, 223679, Note_on_c, 13, 50, 0
15, 223680, Note_on_c, 13, 52, 76
15, 223740, Control_c, 13, 11, 123
15, 223904, Note_on_c, 13, 52, 0
15, 223920, Control_c, 13, 11, 127
15, 223920, Note_on_c, 13, 53, 76
15, 223971, Note_on_c, 13, 53, 0
15, 223980, Note_on_c, 13, 53, 76
15, 224031, Note_on_c, 13, 53, 0
15, 224040, Note_on_c, 13, 57, 76
15, 224091, Note_on_c, 13, 57, 0
15, 224100, Note_on_c, 13, 57, 76
15, 224151, Note_on_c, 13, 57, 0
15, 224160, Note_on_c, 13, 53, 76
15, 224211, Note_on_c, 13, 53, 0
15, 224220, Note_on_c, 13, 53, 76
15, 224271, Note_on_c, 13, 53, 0
15, 224280, Note_on_c, 13, 57, 76
15, 224331, Note_on_c, 13, 57, 0
15, 224340, Note_on_c, 13, 57, 76
15, 224391, Note_on_c, 13, 57, 0
15, 224400, Note_on_c, 13, 53, 76
15, 224451, Note_on_c, 13, 53, 0
15, 224460, Note_on_c, 13, 53, 76
15, 224511, Note_on_c, 13, 53, 0
15, 224520, Note_on_c, 13, 57, 76
15, 224571, Note_on_c, 13, 57, 0
15, 224580, Note_on_c, 13, 57, 76
15, 224631, Note_on_c, 13, 57, 0
15, 224640, Note_on_c, 13, 53, 76
15, 224691, Note_on_c, 13, 53, 0
15, 224700, Note_on_c, 13, 53, 76
15, 224751, Note_on_c, 13, 53, 0
15, 224760, Note_on_c, 13, 60, 76
15, 224811, Note_on_c, 13, 60, 0
15, 224820, Note_on_c, 13, 60, 76
15, 224871, Note_on_c, 13, 60, 0
15, 224880, Note_on_c, 13, 53, 76
15, 224931, Note_on_c, 13, 53, 0
15, 224940, Note_on_c, 13, 53, 76
15, 224991, Note_on_c, 13, 53, 0
15, 225000, Note_on_c, 13, 60, 76
15, 225051, Note_on_c, 13, 60, 0
15, 225060, Note_on_c, 13, 60, 76
15, 225111, Note_on_c, 13, 60, 0
15, 225120, Note_on_c, 13, 53, 76
15, 225171, Note_on_c, 13, 53, 0
15, 225180, Note_on_c, 13, 53, 76
15, 225231, Note_on_c, 13, 53, 0
15, 225240, Note_on_c, 13, 60, 76
15, 225291, Note_on_c, 13, 60, 0
15, 225300, Note_on_c, 13, 60, 76
15, 225351, Note_on_c, 13, 60, 0
15, 225360, Note_on_c, 13, 53, 76
15, 225411, Note_on_c, 13, 53, 0
15, 225420, Note_on_c, 13, 53, 76
15, 225471, Note_on_c, 13, 53, 0
15, 225480, Note_on_c, 13, 62, 76
15, 225531, Note_on_c, 13, 62, 0
15, 225540, Note_on_c, 13, 62, 76
15, 225591, Note_on_c, 13, 62, 0
15, 225600, Note_on_c, 13, 53, 76
15, 225651, Note_on_c, 13, 53, 0
15, 225660, Note_on_c, 13, 53, 76
15, 225711, Note_on_c, 13, 53, 0
15, 225720, Note_on_c, 13, 62, 76
15, 225771, Note_on_c, 13, 62, 0
15, 225780, Note_on_c, 13, 62, 76
15, 225831, Note_on_c, 13, 62, 0
15, 225840, Note_on_c, 13, 53, 76
15, 225891, Note_on_c, 13, 53, 0
15, 225900, Note_on_c, 13, 53, 76
15, 225951, Note_on_c, 13, 53, 0
15, 225960, Note_on_c, 13, 62, 76
15, 226011, Note_on_c, 13, 62, 0
15, 226020, Note_on_c, 13, 62, 76
15, 226071, Note_on_c, 13, 62, 0
15, 226080, Note_on_c, 13, 53, 76
15, 226131, Note_on_c, 13, 53, 0
15, 226140, Note_on_c, 13, 53, 76
15, 226191, Note_on_c, 13, 53, 0
15, 226200, Note_on_c, 13, 62, 76
15, 226251, Note_on_c, 13, 62, 0
15, 226260, Note_on_c, 13, 62, 76
15, 226311, Note_on_c, 13, 62, 0
15, 226320, Note_on_c, 13, 53, 76
15, 226371, Note_on_c, 13, 53, 0
15, 226380, Note_on_c, 13, 53, 76
15, 226431, Note_on_c, 13, 53, 0
15, 226440, Note_on_c, 13, 62, 76
15, 226491, Note_on_c, 13, 62, 0
15, 226500, Note_on_c, 13, 62, 76
15, 226551, Note_on_c, 13, 62, 0
15, 226560, Note_on_c, 13, 53, 76
15, 226611, Note_on_c, 13, 53, 0
15, 226620, Note_on_c, 13, 53, 76
15, 226671, Note_on_c, 13, 53, 0
15, 226680, Note_on_c, 13, 62, 76
15, 226731, Note_on_c, 13, 62, 0
15, 226740, Note_on_c, 13, 62, 76
15, 226791, Note_on_c, 13, 62, 0
15, 226800, Note_on_c, 13, 53, 76
15, 226851, Note_on_c, 13, 53, 0
15, 226860, Note_on_c, 13, 53, 76
15, 226911, Note_on_c, 13, 53, 0
15, 226920, Note_on_c, 13, 59, 76
15, 226971, Note_on_c, 13, 59, 0
15, 226980, Note_on_c, 13, 59, 76
15, 227031, Note_on_c, 13, 59, 0
15, 227040, Note_on_c, 13, 53, 76
15, 227091, Note_on_c, 13, 53, 0
15, 227100, Note_on_c, 13, 53, 76
15, 227151, Note_on_c, 13, 53, 0
15, 227160, Note_on_c, 13, 59, 76
15, 227211, Note_on_c, 13, 59, 0
15, 227220, Note_on_c, 13, 59, 76
15, 227271, Note_on_c, 13, 59, 0
15, 227280, Note_on_c, 13, 53, 76
15, 227331, Note_on_c, 13, 53, 0
15, 227340, Note_on_c, 13, 53, 76
15, 227391, Note_on_c, 13, 53, 0
15, 227400, Note_on_c, 13, 59, 76
15, 227451, Note_on_c, 13, 59, 0
15, 227460, Note_on_c, 13, 59, 76
15, 227511, Note_on_c, 13, 59, 0
15, 227520, Note_on_c, 13, 53, 76
15, 227571, Note_on_c, 13, 53, 0
15, 227580, Note_on_c, 13, 53, 76
15, 227631, Note_on_c, 13, 53, 0
15, 227640, Note_on_c, 13, 59, 76
15, 227691, Note_on_c, 13, 59, 0
15, 227700, Note_on_c, 13, 59, 76
15, 227751, Note_on_c, 13, 59, 0
15, 227760, Note_on_c, 13, 53, 76
15, 227811, Note_on_c, 13, 53, 0
15, 227820, Note_on_c, 13, 53, 76
15, 227871, Note_on_c, 13, 53, 0
15, 227880, Note_on_c, 13, 59, 76
15, 227931, Note_on_c, 13, 59, 0
15, 227940, Note_on_c, 13, 59, 76
15, 227991, Note_on_c, 13, 59, 0
15, 228000, Note_on_c, 13, 53, 76
15, 228051, Note_on_c, 13, 53, 0
15, 228060, Note_on_c, 13, 53, 76
15, 228111, Note_on_c, 13, 53, 0
15, 228120, Note_on_c, 13, 59, 76
15, 228171, Note_on_c, 13, 59, 0
15, 228180, Note_on_c, 13, 59, 76
15, 228231, Note_on_c, 13, 59, 0
15, 228240, Note_on_c, 13, 55, 76
15, 228291, Note_on_c, 13, 55, 0
15, 228300, Note_on_c, 13, 55, 76
15, 228351, Note_on_c, 13, 55, 0
15, 228360, Note_on_c, 13, 60, 76
15, 228411, Note_on_c, 13, 60, 0
15, 228420, Note_on_c, 13, 60, 76
15, 228471, Note_on_c, 13, 60, 0
15, 228480, Note_on_c, 13, 55, 76
15, 228531, Note_on_c, 13, 55, 0
15, 228540, Note_on_c, 13, 55, 76
15, 228591, Note_on_c, 13, 55, 0
15, 228600, Note_on_c, 13, 60, 76
15, 228651, Note_on_c, 13, 60, 0
15, 228660, Note_on_c, 13, 60, 76
15, 228711, Note_on_c, 13, 60, 0
15, 228720, Note_on_c, 13, 55, 76
15, 228771, Note_on_c, 13, 55, 0
15, 228780, Note_on_c, 13, 55, 76
15, 228831, Note_on_c, 13, 55, 0
15, 228840, Note_on_c, 13, 60, 76
15, 228891, Note_on_c, 13, 60, 0
15, 228900, Note_on_c, 13, 60, 76
15, 228951, Note_on_c, 13, 60, 0
15, 228960, Note_on_c, 13, 52, 76
15, 229011, Note_on_c, 13, 52, 0
15, 229020, Note_on_c, 13, 52, 76
15, 229071, Note_on_c, 13, 52, 0
15, 229080, Note_on_c, 13, 60, 76
15, 229131, Note_on_c, 13, 60, 0
15, 229140, Note_on_c, 13, 60, 76
15, 229191, Note_on_c, 13, 60, 0
15, 229200, Note_on_c, 13, 52, 76
15, 229251, Note_on_c, 13, 52, 0
15, 229260, Note_on_c, 13, 52, 76
15, 229311, Note_on_c, 13, 52, 0
15, 229320, Note_on_c, 13, 60, 76
15, 229371, Note_on_c, 13, 60, 0
15, 229380, Note_on_c, 13, 60, 76
15, 229431, Note_on_c, 13, 60, 0
15, 229440, Note_on_c, 13, 48, 76
15, 229491, Note_on_c, 13, 48, 0
15, 229500, Note_on_c, 13, 48, 76
15, 229551, Note_on_c, 13, 48, 0
15, 229560, Note_on_c, 13, 58, 76
15, 229611, Note_on_c, 13, 58, 0
15, 229620, Note_on_c, 13, 58, 76
15, 229671, Note_on_c, 13, 58, 0
15, 229680, Note_on_c, 13, 60, 84
15, 229731, Note_on_c, 13, 60, 0
15, 229740, Note_on_c, 13, 60, 84
15, 229791, Note_on_c, 13, 60, 0
15, 229800, Note_on_c, 13, 60, 84
15, 229851, Note_on_c, 13, 60, 0
15, 229860, Note_on_c, 13, 60, 84
15, 229911, Note_on_c, 13, 60, 0
15, 229920, Note_on_c, 13, 60, 84
15, 229971, Note_on_c, 13, 60, 0
15, 229980, Note_on_c, 13, 60, 84
15, 230031, Note_on_c, 13, 60, 0
15, 230040, Note_on_c, 13, 60, 84
15, 230091, Note_on_c, 13, 60, 0
15, 230100, Note_on_c, 13, 60, 84
15, 230151, Note_on_c, 13, 60, 0
15, 230160, Note_on_c, 13, 60, 84
15, 230211, Note_on_c, 13, 60, 0
15, 230220, Note_on_c, 13, 60, 84
15, 230271, Note_on_c, 13, 60, 0
15, 230280, Note_on_c, 13, 60, 84
15, 230331, Note_on_c, 13, 60, 0
15, 230340, Note_on_c, 13, 60, 84
15, 230391, Note_on_c, 13, 60, 0
15, 230400, Note_on_c, 13, 60, 84
15, 230451, Note_on_c, 13, 60, 0
15, 230460, Note_on_c, 13, 60, 84
15, 230511, Note_on_c, 13, 60, 0
15, 230520, Note_on_c, 13, 60, 84
15, 230571, Note_on_c, 13, 60, 0
15, 230580, Note_on_c, 13, 60, 84
15, 230631, Note_on_c, 13, 60, 0
15, 230640, Note_on_c, 13, 60, 84
15, 230691, Note_on_c, 13, 60, 0
15, 230700, Note_on_c, 13, 60, 84
15, 230751, Note_on_c, 13, 60, 0
15, 230760, Note_on_c, 13, 60, 84
15, 230811, Note_on_c, 13, 60, 0
15, 230820, Note_on_c, 13, 60, 84
15, 230871, Note_on_c, 13, 60, 0
15, 230880, Note_on_c, 13, 60, 84
15, 230931, Note_on_c, 13, 60, 0
15, 230940, Note_on_c, 13, 60, 84
15, 230991, Note_on_c, 13, 60, 0
15, 231000, Note_on_c, 13, 60, 84
15, 231051, Note_on_c, 13, 60, 0
15, 231060, Note_on_c, 13, 60, 84
15, 231111, Note_on_c, 13, 60, 0
15, 231120, Note_on_c, 13, 68, 84
15, 231171, Note_on_c, 13, 68, 0
15, 231180, Note_on_c, 13, 68, 84
15, 231231, Note_on_c, 13, 68, 0
15, 231240, Note_on_c, 13, 68, 84
15, 231291, Note_on_c, 13, 68, 0
15, 231300, Note_on_c, 13, 68, 84
15, 231351, Note_on_c, 13, 68, 0
15, 231360, Note_on_c, 13, 68, 84
15, 231411, Note_on_c, 13, 68, 0
15, 231420, Note_on_c, 13, 68, 84
15, 231471, Note_on_c, 13, 68, 0
15, 231480, Note_on_c, 13, 68, 84
15, 231531, Note_on_c, 13, 68, 0
15, 231540, Note_on_c, 13, 68, 84
15, 231591, Note_on_c, 13, 68, 0
15, 231600, Note_on_c, 13, 68, 84
15, 231651, Note_on_c, 13, 68, 0
15, 231660, Note_on_c, 13, 68, 84
15, 231711, Note_on_c, 13, 68, 0
15, 231720, Note_on_c, 13, 68, 84
15, 231771, Note_on_c, 13, 68, 0
15, 231780, Note_on_c, 13, 68, 84
15, 231831, Note_on_c, 13, 68, 0
15, 231840, Note_on_c, 13, 68, 84
15, 231891, Note_on_c, 13, 68, 0
15, 231900, Note_on_c, 13, 68, 84
15, 231951, Note_on_c, 13, 68, 0
15, 231960, Note_on_c, 13, 68, 84
15, 232011, Note_on_c, 13, 68, 0
15, 232020, Note_on_c, 13, 68, 84
15, 232071, Note_on_c, 13, 68, 0
15, 232080, Note_on_c, 13, 68, 84
15, 232131, Note_on_c, 13, 68, 0
15, 232140, Note_on_c, 13, 68, 84
15, 232191, Note_on_c, 13, 68, 0
15, 232200, Note_on_c, 13, 68, 84
15, 232251, Note_on_c, 13, 68, 0
15, 232260, Note_on_c, 13, 68, 84
15, 232311, Note_on_c, 13, 68, 0
15, 232320, Note_on_c, 13, 68, 84
15, 232371, Note_on_c, 13, 68, 0
15, 232380, Note_on_c, 13, 68, 84
15, 232431, Note_on_c, 13, 68, 0
15, 232440, Note_on_c, 13, 68, 84
15, 232491, Note_on_c, 13, 68, 0
15, 232500, Note_on_c, 13, 68, 84
15, 232551, Note_on_c, 13, 68, 0
15, 232560, Note_on_c, 13, 68, 84
15, 232560, Note_on_c, 13, 59, 84
15, 232611, Note_on_c, 13, 68, 0
15, 232611, Note_on_c, 13, 59, 0
15, 232620, Note_on_c, 13, 68, 84
15, 232620, Note_on_c, 13, 59, 84
15, 232671, Note_on_c, 13, 68, 0
15, 232671, Note_on_c, 13, 59, 0
15, 232680, Note_on_c, 13, 68, 84
15, 232680, Note_on_c, 13, 59, 84
15, 232731, Note_on_c, 13, 68, 0
15, 232731, Note_on_c, 13, 59, 0
15, 232740, Note_on_c, 13, 68, 84
15, 232740, Note_on_c, 13, 59, 84
15, 232791, Note_on_c, 13, 68, 0
15, 232791, Note_on_c, 13, 59, 0
15, 232800, Note_on_c, 13, 59, 84
15, 232800, Note_on_c, 13, 68, 84
15, 232851, Note_on_c, 13, 59, 0
15, 232851, Note_on_c, 13, 68, 0
15, 232860, Note_on_c, 13, 59, 84
15, 232860, Note_on_c, 13, 68, 84
15, 232911, Note_on_c, 13, 59, 0
15, 232911, Note_on_c, 13, 68, 0
15, 232920, Note_on_c, 13, 68, 84
15, 232920, Note_on_c, 13, 59, 84
15, 232971, Note_on_c, 13, 68, 0
15, 232971, Note_on_c, 13, 59, 0
15, 232980, Note_on_c, 13, 59, 84
15, 232980, Note_on_c, 13, 68, 84
15, 233031, Note_on_c, 13, 59, 0
15, 233031, Note_on_c, 13, 68, 0
15, 233040, Note_on_c, 13, 59, 84
15, 233040, Note_on_c, 13, 68, 84
15, 233091, Note_on_c, 13, 59, 0
15, 233091, Note_on_c, 13, 68, 0
15, 233100, Note_on_c, 13, 68, 84
15, 233100, Note_on_c, 13, 59, 84
15, 233151, Note_on_c, 13, 68, 0
15, 233151, Note_on_c, 13, 59, 0
15, 233160, Note_on_c, 13, 68, 84
15, 233160, Note_on_c, 13, 59, 84
15, 233211, Note_on_c, 13, 68, 0
15, 233211, Note_on_c, 13, 59, 0
15, 233220, Note_on_c, 13, 59, 84
15, 233220, Note_on_c, 13, 68, 84
15, 233271, Note_on_c, 13, 59, 0
15, 233271, Note_on_c, 13, 68, 0
15, 233280, Note_on_c, 13, 59, 84
15, 233280, Note_on_c, 13, 68, 84
15, 233331, Note_on_c, 13, 59, 0
15, 233331, Note_on_c, 13, 68, 0
15, 233340, Note_on_c, 13, 68, 84
15, 233340, Note_on_c, 13, 59, 84
15, 233391, Note_on_c, 13, 68, 0
15, 233391, Note_on_c, 13, 59, 0
15, 233400, Note_on_c, 13, 68, 84
15, 233400, Note_on_c, 13, 59, 84
15, 233451, Note_on_c, 13, 68, 0
15, 233451, Note_on_c, 13, 59, 0
15, 233460, Note_on_c, 13, 68, 84
15, 233460, Note_on_c, 13, 59, 84
15, 233511, Note_on_c, 13, 68, 0
15, 233511, Note_on_c, 13, 59, 0
15, 233520, Note_on_c, 13, 68, 84
15, 233520, Note_on_c, 13, 59, 84
15, 233571, Note_on_c, 13, 68, 0
15, 233571, Note_on_c, 13, 59, 0
15, 233580, Note_on_c, 13, 59, 84
15, 233580, Note_on_c, 13, 68, 84
15, 233631, Note_on_c, 13, 59, 0
15, 233631, Note_on_c, 13, 68, 0
15, 233640, Note_on_c, 13, 59, 84
15, 233640, Note_on_c, 13, 68, 84
15, 233691, Note_on_c, 13, 59, 0
15, 233691, Note_on_c, 13, 68, 0
15, 233700, Note_on_c, 13, 68, 84
15, 233700, Note_on_c, 13, 59, 84
15, 233751, Note_on_c, 13, 68, 0
15, 233751, Note_on_c, 13, 59, 0
15, 233760, Note_on_c, 13, 59, 84
15, 233760, Note_on_c, 13, 68, 84
15, 233811, Note_on_c, 13, 59, 0
15, 233811, Note_on_c, 13, 68, 0
15, 233820, Note_on_c, 13, 68, 84
15, 233820, Note_on_c, 13, 59, 84
15, 233871, Note_on_c, 13, 68, 0
15, 233871, Note_on_c, 13, 59, 0
15, 233880, Note_on_c, 13, 68, 84
15, 233880, Note_on_c, 13, 59, 84
15, 233931, Note_on_c, 13, 68, 0
15, 233931, Note_on_c, 13, 59, 0
15, 233940, Note_on_c, 13, 59, 84
15, 233940, Note_on_c, 13, 68, 84
15, 233991, Note_on_c, 13, 59, 0
15, 233991, Note_on_c, 13, 68, 0
15, 234000, Note_on_c, 13, 59, 84
15, 234000, Note_on_c, 13, 68, 84
15, 234051, Note_on_c, 13, 59, 0
15, 234051, Note_on_c, 13, 68, 0
15, 234060, Note_on_c, 13, 68, 84
15, 234060, Note_on_c, 13, 59, 84
15, 234111, Note_on_c, 13, 68, 0
15, 234111, Note_on_c, 13, 59, 0
15, 234120, Note_on_c, 13, 68, 84
15, 234120, Note_on_c, 13, 59, 84
15, 234171, Note_on_c, 13, 68, 0
15, 234171, Note_on_c, 13, 59, 0
15, 234180, Note_on_c, 13, 68, 84
15, 234180, Note_on_c, 13, 59, 84
15, 234231, Note_on_c, 13, 68, 0
15, 234231, Note_on_c, 13, 59, 0
15, 234240, Note_on_c, 13, 68, 84
15, 234240, Note_on_c, 13, 59, 84
15, 234291, Note_on_c, 13, 68, 0
15, 234291, Note_on_c, 13, 59, 0
15, 234300, Note_on_c, 13, 68, 84
15, 234300, Note_on_c, 13, 59, 84
15, 234351, Note_on_c, 13, 68, 0
15, 234351, Note_on_c, 13, 59, 0
15, 234360, Note_on_c, 13, 59, 84
15, 234360, Note_on_c, 13, 68, 84
15, 234411, Note_on_c, 13, 59, 0
15, 234411, Note_on_c, 13, 68, 0
15, 234420, Note_on_c, 13, 68, 84
15, 234420, Note_on_c, 13, 59, 84
15, 234471, Note_on_c, 13, 68, 0
15, 234471, Note_on_c, 13, 59, 0
15, 234480, Note_on_c, 13, 68, 84
15, 234480, Note_on_c, 13, 59, 84
15, 234531, Note_on_c, 13, 68, 0
15, 234531, Note_on_c, 13, 59, 0
15, 234540, Note_on_c, 13, 59, 84
15, 234540, Note_on_c, 13, 68, 84
15, 234591, Note_on_c, 13, 59, 0
15, 234591, Note_on_c, 13, 68, 0
15, 234600, Note_on_c, 13, 68, 84
15, 234600, Note_on_c, 13, 59, 84
15, 234651, Note_on_c, 13, 68, 0
15, 234651, Note_on_c, 13, 59, 0
15, 234660, Note_on_c, 13, 59, 84
15, 234660, Note_on_c, 13, 68, 84
15, 234711, Note_on_c, 13, 59, 0
15, 234711, Note_on_c, 13, 68, 0
15, 234720, Note_on_c, 13, 68, 84
15, 234720, Note_on_c, 13, 59, 84
15, 234771, Note_on_c, 13, 68, 0
15, 234771, Note_on_c, 13, 59, 0
15, 234780, Note_on_c, 13, 68, 84
15, 234780, Note_on_c, 13, 59, 84
15, 234831, Note_on_c, 13, 68, 0
15, 234831, Note_on_c, 13, 59, 0
15, 234840, Note_on_c, 13, 59, 84
15, 234840, Note_on_c, 13, 68, 84
15, 234891, Note_on_c, 13, 59, 0
15, 234891, Note_on_c, 13, 68, 0
15, 234900, Note_on_c, 13, 59, 84
15, 234900, Note_on_c, 13, 68, 84
15, 234951, Note_on_c, 13, 59, 0
15, 234951, Note_on_c, 13, 68, 0
15, 234960, Note_on_c, 13, 68, 84
15, 234960, Note_on_c, 13, 59, 84
15, 235011, Note_on_c, 13, 68, 0
15, 235011, Note_on_c, 13, 59, 0
15, 235020, Note_on_c, 13, 59, 84
15, 235020, Note_on_c, 13, 68, 84
15, 235071, Note_on_c, 13, 59, 0
15, 235071, Note_on_c, 13, 68, 0
15, 235080, Note_on_c, 13, 68, 84
15, 235080, Note_on_c, 13, 59, 84
15, 235131, Note_on_c, 13, 68, 0
15, 235131, Note_on_c, 13, 59, 0
15, 235140, Note_on_c, 13, 68, 84
15, 235140, Note_on_c, 13, 59, 84
15, 235191, Note_on_c, 13, 68, 0
15, 235191, Note_on_c, 13, 59, 0
15, 235200, Note_on_c, 13, 68, 84
15, 235200, Note_on_c, 13, 59, 84
15, 235251, Note_on_c, 13, 68, 0
15, 235251, Note_on_c, 13, 59, 0
15, 235260, Note_on_c, 13, 59, 84
15, 235260, Note_on_c, 13, 68, 84
15, 235311, Note_on_c, 13, 59, 0
15, 235311, Note_on_c, 13, 68, 0
15, 235320, Note_on_c, 13, 59, 84
15, 235320, Note_on_c, 13, 68, 84
15, 235371, Note_on_c, 13, 59, 0
15, 235371, Note_on_c, 13, 68, 0
15, 235380, Note_on_c, 13, 59, 84
15, 235380, Note_on_c, 13, 68, 84
15, 235431, Note_on_c, 13, 59, 0
15, 235431, Note_on_c, 13, 68, 0
15, 235440, Note_on_c, 13, 68, 84
15, 235440, Note_on_c, 13, 59, 84
15, 235491, Note_on_c, 13, 68, 0
15, 235491, Note_on_c, 13, 59, 0
15, 235500, Note_on_c, 13, 59, 84
15, 235500, Note_on_c, 13, 68, 84
15, 235551, Note_on_c, 13, 59, 0
15, 235551, Note_on_c, 13, 68, 0
15, 235560, Note_on_c, 13, 59, 84
15, 235560, Note_on_c, 13, 68, 84
15, 235611, Note_on_c, 13, 59, 0
15, 235611, Note_on_c, 13, 68, 0
15, 235620, Note_on_c, 13, 59, 84
15, 235620, Note_on_c, 13, 68, 84
15, 235671, Note_on_c, 13, 59, 0
15, 235671, Note_on_c, 13, 68, 0
15, 235680, Note_on_c, 13, 68, 84
15, 235680, Note_on_c, 13, 59, 84
15, 235731, Note_on_c, 13, 68, 0
15, 235731, Note_on_c, 13, 59, 0
15, 235740, Note_on_c, 13, 59, 84
15, 235740, Note_on_c, 13, 68, 84
15, 235791, Note_on_c, 13, 59, 0
15, 235791, Note_on_c, 13, 68, 0
15, 235800, Note_on_c, 13, 59, 84
15, 235800, Note_on_c, 13, 68, 84
15, 235851, Note_on_c, 13, 59, 0
15, 235851, Note_on_c, 13, 68, 0
15, 235860, Note_on_c, 13, 59, 84
15, 235860, Note_on_c, 13, 68, 84
15, 235911, Note_on_c, 13, 59, 0
15, 235911, Note_on_c, 13, 68, 0
15, 235920, Note_on_c, 13, 68, 92
15, 235920, Note_on_c, 13, 59, 92
15, 235971, Note_on_c, 13, 68, 0
15, 235971, Note_on_c, 13, 59, 0
15, 235980, Note_on_c, 13, 59, 84
15, 235980, Note_on_c, 13, 68, 84
15, 236031, Note_on_c, 13, 59, 0
15, 236031, Note_on_c, 13, 68, 0
15, 236040, Note_on_c, 13, 59, 84
15, 236040, Note_on_c, 13, 68, 84
15, 236091, Note_on_c, 13, 59, 0
15, 236091, Note_on_c, 13, 68, 0
15, 236100, Note_on_c, 13, 59, 84
15, 236100, Note_on_c, 13, 68, 84
15, 236151, Note_on_c, 13, 59, 0
15, 236151, Note_on_c, 13, 68, 0
15, 236160, Note_on_c, 13, 59, 84
15, 236160, Note_on_c, 13, 68, 84
15, 236211, Note_on_c, 13, 59, 0
15, 236211, Note_on_c, 13, 68, 0
15, 236220, Note_on_c, 13, 68, 84
15, 236220, Note_on_c, 13, 59, 84
15, 236271, Note_on_c, 13, 68, 0
15, 236271, Note_on_c, 13, 59, 0
15, 236280, Note_on_c, 13, 59, 84
15, 236280, Note_on_c, 13, 68, 84
15, 236331, Note_on_c, 13, 59, 0
15, 236331, Note_on_c, 13, 68, 0
15, 236340, Note_on_c, 13, 68, 84
15, 236340, Note_on_c, 13, 59, 84
15, 236391, Note_on_c, 13, 68, 0
15, 236391, Note_on_c, 13, 59, 0
15, 236400, Note_on_c, 13, 59, 84
15, 236400, Note_on_c, 13, 68, 84
15, 236451, Note_on_c, 13, 59, 0
15, 236451, Note_on_c, 13, 68, 0
15, 236460, Note_on_c, 13, 59, 84
15, 236460, Note_on_c, 13, 68, 84
15, 236511, Note_on_c, 13, 59, 0
15, 236511, Note_on_c, 13, 68, 0
15, 236520, Note_on_c, 13, 59, 84
15, 236520, Note_on_c, 13, 68, 84
15, 236571, Note_on_c, 13, 59, 0
15, 236571, Note_on_c, 13, 68, 0
15, 236580, Note_on_c, 13, 68, 84
15, 236580, Note_on_c, 13, 59, 84
15, 236631, Note_on_c, 13, 68, 0
15, 236631, Note_on_c, 13, 59, 0
15, 236640, Note_on_c, 13, 68, 92
15, 236640, Note_on_c, 13, 59, 92
15, 236691, Note_on_c, 13, 68, 0
15, 236691, Note_on_c, 13, 59, 0
15, 236700, Note_on_c, 13, 59, 84
15, 236700, Note_on_c, 13, 68, 84
15, 236751, Note_on_c, 13, 59, 0
15, 236751, Note_on_c, 13, 68, 0
15, 236760, Note_on_c, 13, 68, 84
15, 236760, Note_on_c, 13, 59, 84
15, 236811, Note_on_c, 13, 68, 0
15, 236811, Note_on_c, 13, 59, 0
15, 236820, Note_on_c, 13, 59, 84
15, 236820, Note_on_c, 13, 68, 84
15, 236871, Note_on_c, 13, 59, 0
15, 236871, Note_on_c, 13, 68, 0
15, 236880, Note_on_c, 13, 59, 84
15, 236880, Note_on_c, 13, 68, 84
15, 236999, Note_on_c, 13, 59, 0
15, 236999, Note_on_c, 13, 68, 0
15, 237360, Note_on_c, 13, 59, 92
15, 237479, Note_on_c, 13, 59, 0
15, 237600, Note_on_c, 13, 68, 84
15, 237719, Note_on_c, 13, 68, 0
15, 238080, Note_on_c, 13, 59, 92
15, 238199, Note_on_c, 13, 59, 0
15, 238320, Note_on_c, 13, 68, 84
15, 238439, Note_on_c, 13, 68, 0
15, 239760, Note_on_c, 13, 53, 52
15, 239760, Note_on_c, 13, 55, 52
15, 239879, Note_on_c, 13, 53, 0
15, 239879, Note_on_c, 13, 55, 0
15, 240240, Note_on_c, 13, 55, 52
15, 240240, Note_on_c, 13, 53, 52
15, 240359, Note_on_c, 13, 55, 0
15, 240359, Note_on_c, 13, 53, 0
15, 240480, Note_on_c, 13, 53, 52
15, 240480, Note_on_c, 13, 55, 52
15, 240599, Note_on_c, 13, 53, 0
15, 240599, Note_on_c, 13, 55, 0
15, 240960, Note_on_c, 13, 53, 52
15, 240960, Note_on_c, 13, 55, 52
15, 241079, Note_on_c, 13, 53, 0
15, 241079, Note_on_c, 13, 55, 0
15, 241200, Note_on_c, 13, 57, 52
15, 241200, Note_on_c, 13, 53, 52
15, 241379, Note_on_c, 13, 57, 0
15, 241379, Note_on_c, 13, 53, 0
15, 242400, Note_on_c, 13, 53, 48
15, 242489, Note_on_c, 13, 53, 0
15, 242520, Note_on_c, 13, 53, 48
15, 242759, Note_on_c, 13, 53, 0
15, 242760, Note_on_c, 13, 55, 48
15, 242879, Note_on_c, 13, 55, 0
15, 242880, Note_on_c, 13, 57, 48
15, 242999, Note_on_c, 13, 57, 0
15, 243000, Note_on_c, 13, 58, 48
15, 243104, Note_on_c, 13, 58, 0
15, 243120, Note_on_c, 13, 53, 48
15, 243209, Note_on_c, 13, 53, 0
15, 243240, Note_on_c, 13, 53, 48
15, 243479, Note_on_c, 13, 53, 0
15, 243480, Note_on_c, 13, 57, 48
15, 243599, Note_on_c, 13, 57, 0
15, 243600, Note_on_c, 13, 58, 48
15, 243719, Note_on_c, 13, 58, 0
15, 243720, Note_on_c, 13, 60, 48
15, 243824, Note_on_c, 13, 60, 0
15, 243840, Note_on_c, 13, 53, 48
15, 243929, Note_on_c, 13, 53, 0
15, 243960, Note_on_c, 13, 53, 48
15, 244199, Note_on_c, 13, 53, 0
15, 244200, Note_on_c, 13, 58, 48
15, 244319, Note_on_c, 13, 58, 0
15, 244320, Note_on_c, 13, 60, 48
15, 244439, Note_on_c, 13, 60, 0
15, 244440, Note_on_c, 13, 62, 48
15, 244559, Note_on_c, 13, 62, 0
15, 244560, Note_on_c, 13, 63, 48
15, 244679, Note_on_c, 13, 63, 0
15, 244680, Note_on_c, 13, 62, 48
15, 244784, Note_on_c, 13, 62, 0
15, 244800, Note_on_c, 13, 60, 48
15, 245024, Note_on_c, 13, 60, 0
15, 245040, Note_on_c, 13, 65, 48
15, 245639, Note_on_c, 13, 65, 0
15, 245640, Note_on_c, 13, 64, 48
15, 245759, Note_on_c, 13, 64, 0
15, 245760, Note_on_c, 13, 60, 48
15, 245879, Note_on_c, 13, 60, 0
15, 245880, Note_on_c, 13, 62, 48
15, 245984, Note_on_c, 13, 62, 0
15, 246000, Note_on_c, 13, 63, 48
15, 246359, Note_on_c, 13, 63, 0
15, 246360, Note_on_c, 13, 62, 48
15, 246479, Note_on_c, 13, 62, 0
15, 246480, Note_on_c, 13, 58, 48
15, 246599, Note_on_c, 13, 58, 0
15, 246600, Note_on_c, 13, 60, 48
15, 246704, Note_on_c, 13, 60, 0
15, 246720, Note_on_c, 13, 61, 48
15, 246959, Note_on_c, 13, 61, 0
15, 247080, Note_on_c, 13, 55, 48
15, 247199, Note_on_c, 13, 55, 0
15, 247200, Note_on_c, 13, 57, 48
15, 247319, Note_on_c, 13, 57, 0
15, 247320, Note_on_c, 13, 58, 48
15, 247439, Note_on_c, 13, 58, 0
15, 247440, Note_on_c, 13, 52, 48
15, 247559, Note_on_c, 13, 52, 0
15, 247560, Note_on_c, 13, 53, 48
15, 247679, Note_on_c, 13, 53, 0
15, 247680, Note_on_c, 13, 55, 48
15, 247799, Note_on_c, 13, 55, 0
15, 247800, Note_on_c, 13, 48, 48
15, 247919, Note_on_c, 13, 48, 0
15, 247920, Note_on_c, 13, 52, 48
15, 248039, Note_on_c, 13, 52, 0
15, 248040, Note_on_c, 13, 55, 48
15, 248159, Note_on_c, 13, 55, 0
15, 248160, Note_on_c, 13, 60, 48
15, 248279, Note_on_c, 13, 60, 0
15, 248280, Note_on_c, 13, 58, 48
15, 248384, Note_on_c, 13, 58, 0
15, 248400, Note_on_c, 13, 57, 48
15, 248639, Note_on_c, 13, 57, 0
15, 248640, Program_c, 13, 45
15, 248880, Note_on_c, 13, 65, 44
15, 249119, Note_on_c, 13, 65, 0
15, 249120, Note_on_c, 13, 67, 44
15, 249359, Note_on_c, 13, 67, 0
15, 249360, Note_on_c, 13, 58, 44
15, 249599, Note_on_c, 13, 58, 0
15, 249600, Note_on_c, 13, 55, 44
15, 249839, Note_on_c, 13, 55, 0
15, 249840, Note_on_c, 13, 60, 44
15, 250079, Note_on_c, 13, 60, 0
15, 250080, Note_on_c, 13, 57, 44
15, 250319, Note_on_c, 13, 57, 0
15, 250320, Note_on_c, 13, 53, 44
15, 250559, Note_on_c, 13, 53, 0
15, 250560, Note_on_c, 13, 55, 44
15, 250799, Note_on_c, 13, 55, 0
15, 250800, Note_on_c, 13, 60, 44
15, 251039, Note_on_c, 13, 60, 0
15, 251040, Note_on_c, 13, 57, 44
15, 251279, Note_on_c, 13, 57, 0
15, 251280, Note_on_c, 13, 54, 44
15, 251519, Note_on_c, 13, 54, 0
15, 251520, Note_on_c, 13, 58, 44
15, 251759, Note_on_c, 13, 58, 0
15, 251760, Note_on_c, 13, 55, 44
15, 251999, Note_on_c, 13, 55, 0
15, 252000, Note_on_c, 13, 52, 44
15, 252239, Note_on_c, 13, 52, 0
15, 252240, Note_on_c, 13, 57, 44
15, 252479, Note_on_c, 13, 57, 0
15, 252480, Note_on_c, 13, 65, 44
15, 252704, Note_on_c, 13, 65, 0
15, 252718, Program_c, 13, 48
15, 252720, Note_on_c, 13, 53, 44
15, 252720, Note_on_c, 13, 56, 44
15, 252771, Note_on_c, 13, 53, 0
15, 252771, Note_on_c, 13, 56, 0
15, 252780, Note_on_c, 13, 56, 44
15, 252780, Note_on_c, 13, 53, 44
15, 252831, Note_on_c, 13, 56, 0
15, 252831, Note_on_c, 13, 53, 0
15, 252840, Note_on_c, 13, 56, 44
15, 252840, Note_on_c, 13, 53, 44
15, 252891, Note_on_c, 13, 56, 0
15, 252891, Note_on_c, 13, 53, 0
15, 252900, Note_on_c, 13, 56, 44
15, 252900, Note_on_c, 13, 53, 44
15, 252951, Note_on_c, 13, 56, 0
15, 252951, Note_on_c, 13, 53, 0
15, 252960, Note_on_c, 13, 56, 44
15, 252960, Note_on_c, 13, 53, 44
15, 253011, Note_on_c, 13, 56, 0
15, 253011, Note_on_c, 13, 53, 0
15, 253020, Note_on_c, 13, 56, 44
15, 253020, Note_on_c, 13, 53, 44
15, 253071, Note_on_c, 13, 56, 0
15, 253071, Note_on_c, 13, 53, 0
15, 253080, Note_on_c, 13, 56, 44
15, 253080, Note_on_c, 13, 53, 44
15, 253131, Note_on_c, 13, 56, 0
15, 253131, Note_on_c, 13, 53, 0
15, 253140, Note_on_c, 13, 56, 44
15, 253140, Note_on_c, 13, 53, 44
15, 253191, Note_on_c, 13, 56, 0
15, 253191, Note_on_c, 13, 53, 0
15, 253200, Note_on_c, 13, 53, 44
15, 253200, Note_on_c, 13, 56, 44
15, 253251, Note_on_c, 13, 53, 0
15, 253251, Note_on_c, 13, 56, 0
15, 253260, Note_on_c, 13, 56, 44
15, 253260, Note_on_c, 13, 53, 44
15, 253311, Note_on_c, 13, 56, 0
15, 253311, Note_on_c, 13, 53, 0
15, 253320, Note_on_c, 13, 53, 44
15, 253320, Note_on_c, 13, 56, 44
15, 253371, Note_on_c, 13, 53, 0
15, 253371, Note_on_c, 13, 56, 0
15, 253380, Note_on_c, 13, 53, 44
15, 253380, Note_on_c, 13, 56, 44
15, 253431, Note_on_c, 13, 53, 0
15, 253431, Note_on_c, 13, 56, 0
15, 253440, Note_on_c, 13, 56, 44
15, 253440, Note_on_c, 13, 53, 44
15, 253491, Note_on_c, 13, 56, 0
15, 253491, Note_on_c, 13, 53, 0
15, 253500, Note_on_c, 13, 53, 44
15, 253500, Note_on_c, 13, 56, 44
15, 253551, Note_on_c, 13, 53, 0
15, 253551, Note_on_c, 13, 56, 0
15, 253560, Note_on_c, 13, 53, 44
15, 253560, Note_on_c, 13, 56, 44
15, 253611, Note_on_c, 13, 53, 0
15, 253611, Note_on_c, 13, 56, 0
15, 253620, Note_on_c, 13, 56, 44
15, 253620, Note_on_c, 13, 53, 44
15, 253671, Note_on_c, 13, 56, 0
15, 253671, Note_on_c, 13, 53, 0
15, 253680, Note_on_c, 13, 53, 44
15, 253680, Note_on_c, 13, 56, 44
15, 253731, Note_on_c, 13, 53, 0
15, 253731, Note_on_c, 13, 56, 0
15, 253740, Note_on_c, 13, 53, 44
15, 253740, Note_on_c, 13, 56, 44
15, 253791, Note_on_c, 13, 53, 0
15, 253791, Note_on_c, 13, 56, 0
15, 253800, Note_on_c, 13, 53, 44
15, 253800, Note_on_c, 13, 56, 44
15, 253851, Note_on_c, 13, 53, 0
15, 253851, Note_on_c, 13, 56, 0
15, 253860, Note_on_c, 13, 56, 44
15, 253860, Note_on_c, 13, 53, 44
15, 253911, Note_on_c, 13, 56, 0
15, 253911, Note_on_c, 13, 53, 0
15, 253920, Note_on_c, 13, 56, 44
15, 253920, Note_on_c, 13, 53, 44
15, 253971, Note_on_c, 13, 56, 0
15, 253971, Note_on_c, 13, 53, 0
15, 253980, Note_on_c, 13, 53, 44
15, 253980, Note_on_c, 13, 56, 44
15, 254031, Note_on_c, 13, 53, 0
15, 254031, Note_on_c, 13, 56, 0
15, 254040, Note_on_c, 13, 56, 44
15, 254040, Note_on_c, 13, 53, 44
15, 254091, Note_on_c, 13, 56, 0
15, 254091, Note_on_c, 13, 53, 0
15, 254100, Note_on_c, 13, 53, 44
15, 254100, Note_on_c, 13, 56, 44
15, 254151, Note_on_c, 13, 53, 0
15, 254151, Note_on_c, 13, 56, 0
15, 254160, Note_on_c, 13, 56, 44
15, 254160, Note_on_c, 13, 53, 44
15, 254211, Note_on_c, 13, 56, 0
15, 254211, Note_on_c, 13, 53, 0
15, 254220, Note_on_c, 13, 56, 44
15, 254220, Note_on_c, 13, 53, 44
15, 254271, Note_on_c, 13, 56, 0
15, 254271, Note_on_c, 13, 53, 0
15, 254280, Note_on_c, 13, 56, 44
15, 254280, Note_on_c, 13, 53, 44
15, 254331, Note_on_c, 13, 56, 0
15, 254331, Note_on_c, 13, 53, 0
15, 254340, Note_on_c, 13, 53, 44
15, 254340, Note_on_c, 13, 56, 44
15, 254391, Note_on_c, 13, 53, 0
15, 254391, Note_on_c, 13, 56, 0
15, 254400, Note_on_c, 13, 56, 44
15, 254400, Note_on_c, 13, 53, 44
15, 254451, Note_on_c, 13, 56, 0
15, 254451, Note_on_c, 13, 53, 0
15, 254460, Note_on_c, 13, 56, 44
15, 254460, Note_on_c, 13, 53, 44
15, 254511, Note_on_c, 13, 56, 0
15, 254511, Note_on_c, 13, 53, 0
15, 254520, Note_on_c, 13, 53, 44
15, 254520, Note_on_c, 13, 56, 44
15, 254571, Note_on_c, 13, 53, 0
15, 254571, Note_on_c, 13, 56, 0
15, 254580, Note_on_c, 13, 56, 44
15, 254580, Note_on_c, 13, 53, 44
15, 254631, Note_on_c, 13, 56, 0
15, 254631, Note_on_c, 13, 53, 0
15, 254640, Note_on_c, 13, 53, 44
15, 254640, Note_on_c, 13, 56, 44
15, 254691, Note_on_c, 13, 53, 0
15, 254691, Note_on_c, 13, 56, 0
15, 254700, Note_on_c, 13, 56, 44
15, 254700, Note_on_c, 13, 53, 44
15, 254751, Note_on_c, 13, 56, 0
15, 254751, Note_on_c, 13, 53, 0
15, 254760, Note_on_c, 13, 53, 44
15, 254760, Note_on_c, 13, 56, 44
15, 254811, Note_on_c, 13, 53, 0
15, 254811, Note_on_c, 13, 56, 0
15, 254820, Note_on_c, 13, 53, 44
15, 254820, Note_on_c, 13, 56, 44
15, 254871, Note_on_c, 13, 53, 0
15, 254871, Note_on_c, 13, 56, 0
15, 254880, Note_on_c, 13, 53, 44
15, 254880, Note_on_c, 13, 56, 44
15, 254931, Note_on_c, 13, 53, 0
15, 254931, Note_on_c, 13, 56, 0
15, 254940, Note_on_c, 13, 56, 44
15, 254940, Note_on_c, 13, 53, 44
15, 254991, Note_on_c, 13, 56, 0
15, 254991, Note_on_c, 13, 53, 0
15, 255000, Note_on_c, 13, 56, 44
15, 255000, Note_on_c, 13, 53, 44
15, 255051, Note_on_c, 13, 56, 0
15, 255051, Note_on_c, 13, 53, 0
15, 255060, Note_on_c, 13, 53, 44
15, 255060, Note_on_c, 13, 56, 44
15, 255111, Note_on_c, 13, 53, 0
15, 255111, Note_on_c, 13, 56, 0
15, 255120, Note_on_c, 13, 53, 44
15, 255120, Note_on_c, 13, 56, 44
15, 255171, Note_on_c, 13, 53, 0
15, 255171, Note_on_c, 13, 56, 0
15, 255180, Note_on_c, 13, 53, 44
15, 255180, Note_on_c, 13, 56, 44
15, 255231, Note_on_c, 13, 53, 0
15, 255231, Note_on_c, 13, 56, 0
15, 255240, Note_on_c, 13, 53, 44
15, 255240, Note_on_c, 13, 56, 44
15, 255291, Note_on_c, 13, 53, 0
15, 255291, Note_on_c, 13, 56, 0
15, 255300, Note_on_c, 13, 53, 44
15, 255300, Note_on_c, 13, 56, 44
15, 255351, Note_on_c, 13, 53, 0
15, 255351, Note_on_c, 13, 56, 0
15, 255360, Note_on_c, 13, 56, 44
15, 255360, Note_on_c, 13, 53, 44
15, 255411, Note_on_c, 13, 56, 0
15, 255411, Note_on_c, 13, 53, 0
15, 255420, Note_on_c, 13, 53, 44
15, 255420, Note_on_c, 13, 56, 44
15, 255471, Note_on_c, 13, 53, 0
15, 255471, Note_on_c, 13, 56, 0
15, 255480, Note_on_c, 13, 56, 44
15, 255480, Note_on_c, 13, 53, 44
15, 255531, Note_on_c, 13, 56, 0
15, 255531, Note_on_c, 13, 53, 0
15, 255540, Note_on_c, 13, 56, 44
15, 255540, Note_on_c, 13, 53, 44
15, 255591, Note_on_c, 13, 56, 0
15, 255591, Note_on_c, 13, 53, 0
15, 255600, Note_on_c, 13, 56, 44
15, 255600, Note_on_c, 13, 53, 44
15, 255651, Note_on_c, 13, 56, 0
15, 255651, Note_on_c, 13, 53, 0
15, 255660, Note_on_c, 13, 53, 44
15, 255660, Note_on_c, 13, 56, 44
15, 255711, Note_on_c, 13, 53, 0
15, 255711, Note_on_c, 13, 56, 0
15, 255720, Note_on_c, 13, 56, 44
15, 255720, Note_on_c, 13, 53, 44
15, 255771, Note_on_c, 13, 56, 0
15, 255771, Note_on_c, 13, 53, 0
15, 255780, Note_on_c, 13, 56, 44
15, 255780, Note_on_c, 13, 53, 44
15, 255831, Note_on_c, 13, 56, 0
15, 255831, Note_on_c, 13, 53, 0
15, 255840, Note_on_c, 13, 56, 44
15, 255840, Note_on_c, 13, 53, 44
15, 255891, Note_on_c, 13, 56, 0
15, 255891, Note_on_c, 13, 53, 0
15, 255900, Note_on_c, 13, 53, 44
15, 255900, Note_on_c, 13, 56, 44
15, 255951, Note_on_c, 13, 53, 0
15, 255951, Note_on_c, 13, 56, 0
15, 255960, Note_on_c, 13, 56, 44
15, 255960, Note_on_c, 13, 53, 44
15, 256011, Note_on_c, 13, 56, 0
15, 256011, Note_on_c, 13, 53, 0
15, 256020, Note_on_c, 13, 53, 44
15, 256020, Note_on_c, 13, 56, 44
15, 256071, Note_on_c, 13, 53, 0
15, 256071, Note_on_c, 13, 56, 0
15, 256080, Note_on_c, 13, 56, 44
15, 256080, Note_on_c, 13, 53, 44
15, 256131, Note_on_c, 13, 56, 0
15, 256131, Note_on_c, 13, 53, 0
15, 256140, Note_on_c, 13, 53, 44
15, 256140, Note_on_c, 13, 56, 44
15, 256191, Note_on_c, 13, 53, 0
15, 256191, Note_on_c, 13, 56, 0
15, 256200, Note_on_c, 13, 53, 44
15, 256200, Note_on_c, 13, 56, 44
15, 256251, Note_on_c, 13, 53, 0
15, 256251, Note_on_c, 13, 56, 0
15, 256260, Note_on_c, 13, 56, 44
15, 256260, Note_on_c, 13, 53, 44
15, 256311, Note_on_c, 13, 56, 0
15, 256311, Note_on_c, 13, 53, 0
15, 256320, Note_on_c, 13, 56, 44
15, 256320, Note_on_c, 13, 53, 44
15, 256371, Note_on_c, 13, 56, 0
15, 256371, Note_on_c, 13, 53, 0
15, 256380, Note_on_c, 13, 56, 44
15, 256380, Note_on_c, 13, 53, 44
15, 256431, Note_on_c, 13, 56, 0
15, 256431, Note_on_c, 13, 53, 0
15, 256440, Note_on_c, 13, 56, 44
15, 256440, Note_on_c, 13, 53, 44
15, 256491, Note_on_c, 13, 56, 0
15, 256491, Note_on_c, 13, 53, 0
15, 256500, Note_on_c, 13, 56, 44
15, 256500, Note_on_c, 13, 53, 44
15, 256551, Note_on_c, 13, 56, 0
15, 256551, Note_on_c, 13, 53, 0
15, 256560, Note_on_c, 13, 56, 44
15, 256560, Note_on_c, 13, 53, 44
15, 256611, Note_on_c, 13, 56, 0
15, 256611, Note_on_c, 13, 53, 0
15, 256620, Note_on_c, 13, 53, 44
15, 256620, Note_on_c, 13, 56, 44
15, 256671, Note_on_c, 13, 53, 0
15, 256671, Note_on_c, 13, 56, 0
15, 256680, Note_on_c, 13, 53, 44
15, 256680, Note_on_c, 13, 56, 44
15, 256731, Note_on_c, 13, 53, 0
15, 256731, Note_on_c, 13, 56, 0
15, 256740, Note_on_c, 13, 56, 44
15, 256740, Note_on_c, 13, 53, 44
15, 256791, Note_on_c, 13, 56, 0
15, 256791, Note_on_c, 13, 53, 0
15, 256800, Note_on_c, 13, 56, 44
15, 256800, Note_on_c, 13, 53, 44
15, 256851, Note_on_c, 13, 56, 0
15, 256851, Note_on_c, 13, 53, 0
15, 256860, Note_on_c, 13, 56, 44
15, 256860, Note_on_c, 13, 53, 44
15, 256911, Note_on_c, 13, 56, 0
15, 256911, Note_on_c, 13, 53, 0
15, 256920, Note_on_c, 13, 53, 44
15, 256920, Note_on_c, 13, 56, 44
15, 256971, Note_on_c, 13, 53, 0
15, 256971, Note_on_c, 13, 56, 0
15, 256980, Note_on_c, 13, 56, 44
15, 256980, Note_on_c, 13, 53, 44
15, 257031, Note_on_c, 13, 56, 0
15, 257031, Note_on_c, 13, 53, 0
15, 257040, Note_on_c, 13, 56, 44
15, 257040, Note_on_c, 13, 53, 44
15, 257091, Note_on_c, 13, 56, 0
15, 257091, Note_on_c, 13, 53, 0
15, 257100, Note_on_c, 13, 53, 44
15, 257100, Note_on_c, 13, 56, 44
15, 257151, Note_on_c, 13, 53, 0
15, 257151, Note_on_c, 13, 56, 0
15, 257160, Note_on_c, 13, 53, 44
15, 257160, Note_on_c, 13, 56, 44
15, 257211, Note_on_c, 13, 53, 0
15, 257211, Note_on_c, 13, 56, 0
15, 257220, Note_on_c, 13, 53, 45
15, 257220, Note_on_c, 13, 56, 45
15, 257271, Note_on_c, 13, 53, 0
15, 257271, Note_on_c, 13, 56, 0
15, 257280, Note_on_c, 13, 56, 45
15, 257280, Note_on_c, 13, 53, 45
15, 257331, Note_on_c, 13, 56, 0
15, 257331, Note_on_c, 13, 53, 0
15, 257340, Note_on_c, 13, 56, 46
15, 257340, Note_on_c, 13, 53, 46
15, 257391, Note_on_c, 13, 56, 0
15, 257391, Note_on_c, 13, 53, 0
15, 257400, Note_on_c, 13, 56, 46
15, 257400, Note_on_c, 13, 53, 46
15, 257451, Note_on_c, 13, 56, 0
15, 257451, Note_on_c, 13, 53, 0
15, 257460, Note_on_c, 13, 56, 46
15, 257460, Note_on_c, 13, 53, 46
15, 257511, Note_on_c, 13, 56, 0
15, 257511, Note_on_c, 13, 53, 0
15, 257520, Note_on_c, 13, 53, 47
15, 257520, Note_on_c, 13, 56, 47
15, 257571, Note_on_c, 13, 53, 0
15, 257571, Note_on_c, 13, 56, 0
15, 257580, Note_on_c, 13, 53, 47
15, 257580, Note_on_c, 13, 56, 47
15, 257631, Note_on_c, 13, 53, 0
15, 257631, Note_on_c, 13, 56, 0
15, 257640, Note_on_c, 13, 56, 48
15, 257640, Note_on_c, 13, 53, 48
15, 257691, Note_on_c, 13, 56, 0
15, 257691, Note_on_c, 13, 53, 0
15, 257700, Note_on_c, 13, 56, 48
15, 257700, Note_on_c, 13, 53, 48
15, 257751, Note_on_c, 13, 56, 0
15, 257751, Note_on_c, 13, 53, 0
15, 257760, Note_on_c, 13, 56, 49
15, 257760, Note_on_c, 13, 53, 49
15, 257811, Note_on_c, 13, 56, 0
15, 257811, Note_on_c, 13, 53, 0
15, 257820, Note_on_c, 13, 53, 49
15, 257820, Note_on_c, 13, 56, 49
15, 257871, Note_on_c, 13, 53, 0
15, 257871, Note_on_c, 13, 56, 0
15, 257880, Note_on_c, 13, 53, 49
15, 257880, Note_on_c, 13, 56, 49
15, 257931, Note_on_c, 13, 53, 0
15, 257931, Note_on_c, 13, 56, 0
15, 257940, Note_on_c, 13, 56, 50
15, 257940, Note_on_c, 13, 53, 50
15, 257991, Note_on_c, 13, 56, 0
15, 257991, Note_on_c, 13, 53, 0
15, 258000, Note_on_c, 13, 56, 50
15, 258000, Note_on_c, 13, 53, 50
15, 258051, Note_on_c, 13, 56, 0
15, 258051, Note_on_c, 13, 53, 0
15, 258060, Note_on_c, 13, 56, 51
15, 258060, Note_on_c, 13, 53, 51
15, 258111, Note_on_c, 13, 56, 0
15, 258111, Note_on_c, 13, 53, 0
15, 258120, Note_on_c, 13, 53, 51
15, 258120, Note_on_c, 13, 56, 51
15, 258171, Note_on_c, 13, 53, 0
15, 258171, Note_on_c, 13, 56, 0
15, 258180, Note_on_c, 13, 53, 51
15, 258180, Note_on_c, 13, 56, 51
15, 258231, Note_on_c, 13, 53, 0
15, 258231, Note_on_c, 13, 56, 0
15, 258240, Note_on_c, 13, 53, 52
15, 258240, Note_on_c, 13, 56, 52
15, 258291, Note_on_c, 13, 53, 0
15, 258291, Note_on_c, 13, 56, 0
15, 258300, Note_on_c, 13, 53, 52
15, 258300, Note_on_c, 13, 56, 52
15, 258351, Note_on_c, 13, 53, 0
15, 258351, Note_on_c, 13, 56, 0
15, 258360, Note_on_c, 13, 56, 53
15, 258360, Note_on_c, 13, 53, 53
15, 258411, Note_on_c, 13, 56, 0
15, 258411, Note_on_c, 13, 53, 0
15, 258420, Note_on_c, 13, 56, 53
15, 258420, Note_on_c, 13, 53, 53
15, 258471, Note_on_c, 13, 56, 0
15, 258471, Note_on_c, 13, 53, 0
15, 258480, Note_on_c, 13, 67, 62
15, 258531, Note_on_c, 13, 67, 0
15, 258540, Note_on_c, 13, 55, 54
15, 258591, Note_on_c, 13, 55, 0
15, 258600, Note_on_c, 13, 55, 54
15, 258651, Note_on_c, 13, 55, 0
15, 258660, Note_on_c, 13, 55, 55
15, 258711, Note_on_c, 13, 55, 0
15, 258720, Note_on_c, 13, 55, 55
15, 258771, Note_on_c, 13, 55, 0
15, 258780, Note_on_c, 13, 55, 56
15, 258831, Note_on_c, 13, 55, 0
15, 258840, Note_on_c, 13, 55, 56
15, 258891, Note_on_c, 13, 55, 0
15, 258900, Note_on_c, 13, 55, 56
15, 258951, Note_on_c, 13, 55, 0
15, 258960, Note_on_c, 13, 55, 57
15, 259011, Note_on_c, 13, 55, 0
15, 259020, Note_on_c, 13, 55, 57
15, 259071, Note_on_c, 13, 55, 0
15, 259080, Note_on_c, 13, 55, 58
15, 259131, Note_on_c, 13, 55, 0
15, 259140, Note_on_c, 13, 55, 58
15, 259191, Note_on_c, 13, 55, 0
15, 259200, Note_on_c, 13, 55, 67
15, 259251, Note_on_c, 13, 55, 0
15, 259260, Note_on_c, 13, 55, 59
15, 259311, Note_on_c, 13, 55, 0
15, 259320, Note_on_c, 13, 55, 59
15, 259371, Note_on_c, 13, 55, 0
15, 259380, Note_on_c, 13, 55, 60
15, 259431, Note_on_c, 13, 55, 0
15, 259440, Note_on_c, 13, 55, 60
15, 259491, Note_on_c, 13, 55, 0
15, 259500, Note_on_c, 13, 55, 61
15, 259551, Note_on_c, 13, 55, 0
15, 259560, Note_on_c, 13, 55, 61
15, 259611, Note_on_c, 13, 55, 0
15, 259620, Note_on_c, 13, 55, 61
15, 259671, Note_on_c, 13, 55, 0
15, 259680, Note_on_c, 13, 55, 62
15, 259731, Note_on_c, 13, 55, 0
15, 259740, Note_on_c, 13, 55, 62
15, 259791, Note_on_c, 13, 55, 0
15, 259800, Note_on_c, 13, 55, 63
15, 259851, Note_on_c, 13, 55, 0
15, 259860, Note_on_c, 13, 55, 63
15, 259911, Note_on_c, 13, 55, 0
15, 259920, Note_on_c, 13, 57, 72
15, 259971, Note_on_c, 13, 57, 0
15, 259980, Note_on_c, 13, 57, 64
15, 260031, Note_on_c, 13, 57, 0
15, 260040, Note_on_c, 13, 57, 64
15, 260091, Note_on_c, 13, 57, 0
15, 260100, Note_on_c, 13, 57, 65
15, 260151, Note_on_c, 13, 57, 0
15, 260160, Note_on_c, 13, 57, 65
15, 260211, Note_on_c, 13, 57, 0
15, 260220, Note_on_c, 13, 57, 66
15, 260271, Note_on_c, 13, 57, 0
15, 260280, Note_on_c, 13, 57, 66
15, 260331, Note_on_c, 13, 57, 0
15, 260340, Note_on_c, 13, 57, 66
15, 260391, Note_on_c, 13, 57, 0
15, 260400, Note_on_c, 13, 54, 67
15, 260451, Note_on_c, 13, 54, 0
15, 260460, Note_on_c, 13, 54, 67
15, 260511, Note_on_c, 13, 54, 0
15, 260520, Note_on_c, 13, 54, 68
15, 260571, Note_on_c, 13, 54, 0
15, 260580, Note_on_c, 13, 54, 68
15, 260631, Note_on_c, 13, 54, 0
15, 260640, Note_on_c, 13, 58, 77
15, 260691, Note_on_c, 13, 58, 0
15, 260700, Note_on_c, 13, 58, 69
15, 260751, Note_on_c, 13, 58, 0
15, 260760, Note_on_c, 13, 58, 69
15, 260811, Note_on_c, 13, 58, 0
15, 260820, Note_on_c, 13, 58, 70
15, 260871, Note_on_c, 13, 58, 0
15, 260880, Note_on_c, 13, 58, 70
15, 260931, Note_on_c, 13, 58, 0
15, 260940, Note_on_c, 13, 58, 71
15, 260991, Note_on_c, 13, 58, 0
15, 261000, Note_on_c, 13, 58, 71
15, 261051, Note_on_c, 13, 58, 0
15, 261060, Note_on_c, 13, 58, 71
15, 261111, Note_on_c, 13, 58, 0
15, 261120, Note_on_c, 13, 55, 72
15, 261171, Note_on_c, 13, 55, 0
15, 261180, Note_on_c, 13, 55, 72
15, 261231, Note_on_c, 13, 55, 0
15, 261240, Note_on_c, 13, 55, 73
15, 261291, Note_on_c, 13, 55, 0
15, 261300, Note_on_c, 13, 55, 73
15, 261351, Note_on_c, 13, 55, 0
15, 261360, Note_on_c, 13, 53, 82
15, 261360, Note_on_c, 13, 56, 82
15, 261411, Note_on_c, 13, 53, 0
15, 261411, Note_on_c, 13, 56, 0
15, 261420, Note_on_c, 13, 53, 74
15, 261420, Note_on_c, 13, 56, 74
15, 261471, Note_on_c, 13, 53, 0
15, 261471, Note_on_c, 13, 56, 0
15, 261480, Note_on_c, 13, 56, 74
15, 261480, Note_on_c, 13, 53, 74
15, 261531, Note_on_c, 13, 56, 0
15, 261531, Note_on_c, 13, 53, 0
15, 261540, Note_on_c, 13, 53, 75
15, 261540, Note_on_c, 13, 56, 75
15, 261591, Note_on_c, 13, 53, 0
15, 261591, Note_on_c, 13, 56, 0
15, 261600, Note_on_c, 13, 56, 75
15, 261600, Note_on_c, 13, 53, 75
15, 261651, Note_on_c, 13, 56, 0
15, 261651, Note_on_c, 13, 53, 0
15, 261660, Note_on_c, 13, 53, 76
15, 261660, Note_on_c, 13, 56, 76
15, 261711, Note_on_c, 13, 53, 0
15, 261711, Note_on_c, 13, 56, 0
15, 261720, Note_on_c, 13, 56, 76
15, 261720, Note_on_c, 13, 53, 76
15, 261771, Note_on_c, 13, 56, 0
15, 261771, Note_on_c, 13, 53, 0
15, 261780, Note_on_c, 13, 56, 76
15, 261780, Note_on_c, 13, 53, 76
15, 261831, Note_on_c, 13, 56, 0
15, 261831, Note_on_c, 13, 53, 0
15, 261840, Note_on_c, 13, 50, 77
15, 261891, Note_on_c, 13, 50, 0
15, 261900, Note_on_c, 13, 50, 77
15, 261951, Note_on_c, 13, 50, 0
15, 261960, Note_on_c, 13, 50, 78
15, 262011, Note_on_c, 13, 50, 0
15, 262020, Note_on_c, 13, 50, 78
15, 262071, Note_on_c, 13, 50, 0
15, 262080, Note_on_c, 13, 52, 87
15, 262080, Note_on_c, 13, 55, 87
15, 262131, Note_on_c, 13, 52, 0
15, 262131, Note_on_c, 13, 55, 0
15, 262140, Note_on_c, 13, 52, 79
15, 262140, Note_on_c, 13, 55, 79
15, 262191, Note_on_c, 13, 52, 0
15, 262191, Note_on_c, 13, 55, 0
15, 262200, Note_on_c, 13, 52, 79
15, 262200, Note_on_c, 13, 55, 79
15, 262251, Note_on_c, 13, 52, 0
15, 262251, Note_on_c, 13, 55, 0
15, 262260, Note_on_c, 13, 52, 80
15, 262260, Note_on_c, 13, 55, 80
15, 262311, Note_on_c, 13, 52, 0
15, 262311, Note_on_c, 13, 55, 0
15, 262320, Note_on_c, 13, 55, 80
15, 262320, Note_on_c, 13, 52, 80
15, 262371, Note_on_c, 13, 55, 0
15, 262371, Note_on_c, 13, 52, 0
15, 262380, Note_on_c, 13, 55, 81
15, 262380, Note_on_c, 13, 52, 81
15, 262431, Note_on_c, 13, 55, 0
15, 262431, Note_on_c, 13, 52, 0
15, 262440, Note_on_c, 13, 55, 81
15, 262440, Note_on_c, 13, 52, 81
15, 262491, Note_on_c, 13, 55, 0
15, 262491, Note_on_c, 13, 52, 0
15, 262500, Note_on_c, 13, 55, 81
15, 262500, Note_on_c, 13, 52, 81
15, 262551, Note_on_c, 13, 55, 0
15, 262551, Note_on_c, 13, 52, 0
15, 262560, Note_on_c, 13, 52, 82
15, 262611, Note_on_c, 13, 52, 0
15, 262620, Note_on_c, 13, 52, 82
15, 262671, Note_on_c, 13, 52, 0
15, 262680, Note_on_c, 13, 52, 83
15, 262731, Note_on_c, 13, 52, 0
15, 262740, Note_on_c, 13, 52, 83
15, 262791, Note_on_c, 13, 52, 0
15, 262800, Note_on_c, 13, 64, 84
15, 262800, Note_on_c, 13, 55, 84
15, 262851, Note_on_c, 13, 64, 0
15, 262851, Note_on_c, 13, 55, 0
15, 262860, Note_on_c, 13, 55, 84
15, 262860, Note_on_c, 13, 64, 84
15, 262911, Note_on_c, 13, 55, 0
15, 262911, Note_on_c, 13, 64, 0
15, 262920, Note_on_c, 13, 64, 84
15, 262920, Note_on_c, 13, 55, 84
15, 262971, Note_on_c, 13, 64, 0
15, 262971, Note_on_c, 13, 55, 0
15, 262980, Note_on_c, 13, 64, 84
15, 262980, Note_on_c, 13, 55, 84
15, 263031, Note_on_c, 13, 64, 0
15, 263031, Note_on_c, 13, 55, 0
15, 263040, Note_on_c, 13, 55, 84
15, 263040, Note_on_c, 13, 64, 84
15, 263091, Note_on_c, 13, 55, 0
15, 263091, Note_on_c, 13, 64, 0
15, 263100, Note_on_c, 13, 55, 84
15, 263100, Note_on_c, 13, 64, 84
15, 263151, Note_on_c, 13, 55, 0
15, 263151, Note_on_c, 13, 64, 0
15, 263160, Note_on_c, 13, 55, 84
15, 263160, Note_on_c, 13, 64, 84
15, 263211, Note_on_c, 13, 55, 0
15, 263211, Note_on_c, 13, 64, 0
15, 263220, Note_on_c, 13, 55, 84
15, 263220, Note_on_c, 13, 64, 84
15, 263271, Note_on_c, 13, 55, 0
15, 263271, Note_on_c, 13, 64, 0
15, 263280, Note_on_c, 13, 64, 84
15, 263280, Note_on_c, 13, 55, 84
15, 263331, Note_on_c, 13, 64, 0
15, 263331, Note_on_c, 13, 55, 0
15, 263340, Note_on_c, 13, 55, 84
15, 263340, Note_on_c, 13, 64, 84
15, 263391, Note_on_c, 13, 55, 0
15, 263391, Note_on_c, 13, 64, 0
15, 263400, Note_on_c, 13, 64, 84
15, 263400, Note_on_c, 13, 55, 84
15, 263451, Note_on_c, 13, 64, 0
15, 263451, Note_on_c, 13, 55, 0
15, 263460, Note_on_c, 13, 64, 84
15, 263460, Note_on_c, 13, 55, 84
15, 263511, Note_on_c, 13, 64, 0
15, 263511, Note_on_c, 13, 55, 0
15, 263520, Note_on_c, 13, 57, 84
15, 263520, Note_on_c, 13, 65, 84
15, 263571, Note_on_c, 13, 57, 0
15, 263571, Note_on_c, 13, 65, 0
15, 263580, Note_on_c, 13, 57, 84
15, 263580, Note_on_c, 13, 65, 84
15, 263631, Note_on_c, 13, 57, 0
15, 263631, Note_on_c, 13, 65, 0
15, 263640, Note_on_c, 13, 65, 84
15, 263640, Note_on_c, 13, 57, 84
15, 263691, Note_on_c, 13, 65, 0
15, 263691, Note_on_c, 13, 57, 0
15, 263700, Note_on_c, 13, 65, 84
15, 263700, Note_on_c, 13, 57, 84
15, 263751, Note_on_c, 13, 65, 0
15, 263751, Note_on_c, 13, 57, 0
15, 263760, Note_on_c, 13, 65, 84
15, 263760, Note_on_c, 13, 57, 84
15, 263811, Note_on_c, 13, 65, 0
15, 263811, Note_on_c, 13, 57, 0
15, 263820, Note_on_c, 13, 65, 84
15, 263820, Note_on_c, 13, 57, 84
15, 263871, Note_on_c, 13, 65, 0
15, 263871, Note_on_c, 13, 57, 0
15, 263880, Note_on_c, 13, 57, 84
15, 263880, Note_on_c, 13, 65, 84
15, 263931, Note_on_c, 13, 57, 0
15, 263931, Note_on_c, 13, 65, 0
15, 263940, Note_on_c, 13, 57, 84
15, 263940, Note_on_c, 13, 65, 84
15, 263991, Note_on_c, 13, 57, 0
15, 263991, Note_on_c, 13, 65, 0
15, 264000, Note_on_c, 13, 62, 84
15, 264051, Note_on_c, 13, 62, 0
15, 264060, Note_on_c, 13, 62, 84
15, 264111, Note_on_c, 13, 62, 0
15, 264120, Note_on_c, 13, 62, 84
15, 264171, Note_on_c, 13, 62, 0
15, 264180, Note_on_c, 13, 62, 84
15, 264231, Note_on_c, 13, 62, 0
15, 264240, Note_on_c, 13, 58, 84
15, 264291, Note_on_c, 13, 58, 0
15, 264300, Note_on_c, 13, 58, 84
15, 264351, Note_on_c, 13, 58, 0
15, 264360, Note_on_c, 13, 58, 84
15, 264411, Note_on_c, 13, 58, 0
15, 264420, Note_on_c, 13, 58, 84
15, 264471, Note_on_c, 13, 58, 0
15, 264480, Note_on_c, 13, 58, 84
15, 264531, Note_on_c, 13, 58, 0
15, 264540, Note_on_c, 13, 58, 84
15, 264591, Note_on_c, 13, 58, 0
15, 264600, Note_on_c, 13, 58, 84
15, 264651, Note_on_c, 13, 58, 0
15, 264660, Note_on_c, 13, 58, 84
15, 264711, Note_on_c, 13, 58, 0
15, 264720, Note_on_c, 13, 55, 84
15, 264771, Note_on_c, 13, 55, 0
15, 264780, Note_on_c, 13, 55, 84
15, 264831, Note_on_c, 13, 55, 0
15, 264840, Note_on_c, 13, 55, 84
15, 264891, Note_on_c, 13, 55, 0
15, 264900, Note_on_c, 13, 55, 84
15, 264951, Note_on_c, 13, 55, 0
15, 264960, Note_on_c, 13, 60, 84
15, 265011, Note_on_c, 13, 60, 0
15, 265020, Note_on_c, 13, 60, 84
15, 265071, Note_on_c, 13, 60, 0
15, 265080, Note_on_c, 13, 60, 84
15, 265131, Note_on_c, 13, 60, 0
15, 265140, Note_on_c, 13, 60, 84
15, 265191, Note_on_c, 13, 60, 0
15, 265200, Note_on_c, 13, 60, 84
15, 265251, Note_on_c, 13, 60, 0
15, 265260, Note_on_c, 13, 60, 84
15, 265311, Note_on_c, 13, 60, 0
15, 265320, Note_on_c, 13, 60, 84
15, 265371, Note_on_c, 13, 60, 0
15, 265380, Note_on_c, 13, 60, 84
15, 265431, Note_on_c, 13, 60, 0
15, 265440, Note_on_c, 13, 48, 84
15, 265491, Note_on_c, 13, 48, 0
15, 265500, Note_on_c, 13, 48, 84
15, 265551, Note_on_c, 13, 48, 0
15, 265560, Note_on_c, 13, 48, 84
15, 265611, Note_on_c, 13, 48, 0
15, 265620, Note_on_c, 13, 48, 84
15, 265671, Note_on_c, 13, 48, 0
15, 265680, Note_on_c, 13, 65, 84
15, 265851, Note_on_c, 13, 65, 0
15, 265860, Note_on_c, 13, 65, 84
15, 265911, Note_on_c, 13, 65, 0
15, 265920, Note_on_c, 13, 64, 84
15, 266099, Note_on_c, 13, 64, 0
15, 266160, Note_on_c, 13, 64, 84
15, 266331, Note_on_c, 13, 64, 0
15, 266340, Note_on_c, 13, 64, 84
15, 266391, Note_on_c, 13, 64, 0
15, 266400, Note_on_c, 13, 65, 84
15, 266579, Note_on_c, 13, 65, 0
15, 266640, Note_on_c, 13, 65, 84
15, 266811, Note_on_c, 13, 65, 0
15, 266820, Note_on_c, 13, 67, 84
15, 266871, Note_on_c, 13, 67, 0
15, 266880, Note_on_c, 13, 69, 84
15, 267059, Note_on_c, 13, 69, 0
15, 267120, Note_on_c, 13, 65, 84
15, 267291, Note_on_c, 13, 65, 0
15, 267300, Note_on_c, 13, 67, 84
15, 267351, Note_on_c, 13, 67, 0
15, 267360, Note_on_c, 13, 69, 84
15, 267539, Note_on_c, 13, 69, 0
15, 272880, Note_on_c, 13, 65, 84
15, 273051, Note_on_c, 13, 65, 0
15, 273060, Note_on_c, 13, 65, 84
15, 273111, Note_on_c, 13, 65, 0
15, 273120, Note_on_c, 13, 64, 84
15, 273299, Note_on_c, 13, 64, 0
15, 273360, Note_on_c, 13, 64, 84
15, 273531, Note_on_c, 13, 64, 0
15, 273540, Note_on_c, 13, 64, 84
15, 273591, Note_on_c, 13, 64, 0
15, 273600, Note_on_c, 13, 65, 84
15, 273779, Note_on_c, 13, 65, 0
15, 273840, Note_on_c, 13, 62, 84
15, 274011, Note_on_c, 13, 62, 0
15, 274020, Note_on_c, 13, 64, 84
15, 274071, Note_on_c, 13, 64, 0
15, 274080, Note_on_c, 13, 65, 84
15, 274259, Note_on_c, 13, 65, 0
15, 274320, Note_on_c, 13, 62, 84
15, 274491, Note_on_c, 13, 62, 0
15, 274500, Note_on_c, 13, 64, 84
15, 274551, Note_on_c, 13, 64, 0
15, 274560, Note_on_c, 13, 65, 84
15, 274739, Note_on_c, 13, 65, 0
15, 274800, Note_on_c, 13, 60, 48
15, 275039, Note_on_c, 13, 60, 0
15, 275040, Note_on_c, 13, 59, 48
15, 275519, Note_on_c, 13, 59, 0
15, 275520, Note_on_c, 13, 60, 48
15, 275759, Note_on_c, 13, 60, 0
15, 275760, Note_on_c, 13, 58, 48
15, 276239, Note_on_c, 13, 58, 0
15, 276240, Note_on_c, 13, 57, 48
15, 276479, Note_on_c, 13, 57, 0
15, 276480, Note_on_c, 13, 55, 48
15, 276959, Note_on_c, 13, 55, 0
15, 276960, Note_on_c, 13, 53, 48
15, 277199, Note_on_c, 13, 53, 0
15, 277200, Note_on_c, 13, 52, 48
15, 277679, Note_on_c, 13, 52, 0
15, 277680, Note_on_c, 13, 53, 48
15, 277919, Note_on_c, 13, 53, 0
15, 277920, Note_on_c, 13, 55, 48
15, 278399, Note_on_c, 13, 55, 0
15, 278400, Note_on_c, 13, 57, 48
15, 278639, Note_on_c, 13, 57, 0
15, 278640, Note_on_c, 13, 58, 48
15, 279119, Note_on_c, 13, 58, 0
15, 279120, Note_on_c, 13, 55, 48
15, 279359, Note_on_c, 13, 55, 0
15, 279360, Note_on_c, 13, 60, 48
15, 279839, Note_on_c, 13, 60, 0
15, 279840, Note_on_c, 13, 48, 48
15, 280064, Note_on_c, 13, 48, 0
15, 280078, Control_c, 13, 11, 80
15, 280080, Note_on_c, 13, 65, 76
15, 280199, Note_on_c, 13, 65, 0
15, 280200, Note_on_c, 13, 64, 76
15, 280200, Control_c, 13, 11, 84
15, 280319, Note_on_c, 13, 64, 0
15, 280320, Note_on_c, 13, 65, 76
15, 280320, Control_c, 13, 11, 88
15, 280439, Note_on_c, 13, 65, 0
15, 280440, Control_c, 13, 11, 92
15, 280440, Note_on_c, 13, 64, 76
15, 280559, Note_on_c, 13, 64, 0
15, 280560, Control_c, 13, 11, 96
15, 280560, Note_on_c, 13, 62, 76
15, 280679, Note_on_c, 13, 62, 0
15, 280680, Note_on_c, 13, 60, 76
15, 280680, Control_c, 13, 11, 100
15, 280784, Note_on_c, 13, 60, 0
15, 280800, Control_c, 13, 11, 104
15, 280800, Note_on_c, 13, 58, 76
15, 280920, Control_c, 13, 11, 107
15, 280979, Note_on_c, 13, 58, 0
15, 281040, Note_on_c, 13, 55, 76
15, 281040, Control_c, 13, 11, 111
15, 281040, Note_on_c, 13, 58, 76
15, 281160, Control_c, 13, 11, 115
15, 281280, Control_c, 13, 11, 119
15, 281399, Note_on_c, 13, 55, 0
15, 281399, Note_on_c, 13, 58, 0
15, 281400, Note_on_c, 13, 57, 76
15, 281400, Control_c, 13, 11, 123
15, 281400, Note_on_c, 13, 60, 76
15, 281504, Note_on_c, 13, 57, 0
15, 281504, Note_on_c, 13, 60, 0
15, 281520, Control_c, 13, 11, 127
15, 281520, Note_on_c, 13, 57, 76
15, 281520, Note_on_c, 13, 53, 76
15, 281571, Note_on_c, 13, 57, 0
15, 281571, Note_on_c, 13, 53, 0
15, 281580, Note_on_c, 13, 53, 76
15, 281631, Note_on_c, 13, 53, 0
15, 281640, Note_on_c, 13, 53, 76
15, 281691, Note_on_c, 13, 53, 0
15, 281700, Note_on_c, 13, 53, 76
15, 281751, Note_on_c, 13, 53, 0
15, 281760, Note_on_c, 13, 53, 84
15, 281811, Note_on_c, 13, 53, 0
15, 281820, Note_on_c, 13, 53, 76
15, 281871, Note_on_c, 13, 53, 0
15, 281880, Note_on_c, 13, 53, 76
15, 281931, Note_on_c, 13, 53, 0
15, 281940, Note_on_c, 13, 53, 76
15, 281991, Note_on_c, 13, 53, 0
15, 282000, Note_on_c, 13, 53, 76
15, 282051, Note_on_c, 13, 53, 0
15, 282060, Note_on_c, 13, 53, 76
15, 282111, Note_on_c, 13, 53, 0
15, 282120, Note_on_c, 13, 53, 76
15, 282171, Note_on_c, 13, 53, 0
15, 282180, Note_on_c, 13, 53, 76
15, 282231, Note_on_c, 13, 53, 0
15, 282240, Note_on_c, 13, 55, 84
15, 282291, Note_on_c, 13, 55, 0
15, 282300, Note_on_c, 13, 55, 76
15, 282351, Note_on_c, 13, 55, 0
15, 282360, Note_on_c, 13, 55, 76
15, 282411, Note_on_c, 13, 55, 0
15, 282420, Note_on_c, 13, 55, 76
15, 282471, Note_on_c, 13, 55, 0
15, 282480, Note_on_c, 13, 55, 76
15, 282531, Note_on_c, 13, 55, 0
15, 282540, Note_on_c, 13, 55, 76
15, 282591, Note_on_c, 13, 55, 0
15, 282600, Note_on_c, 13, 55, 76
15, 282651, Note_on_c, 13, 55, 0
15, 282660, Note_on_c, 13, 55, 76
15, 282711, Note_on_c, 13, 55, 0
15, 282720, Note_on_c, 13, 55, 76
15, 282771, Note_on_c, 13, 55, 0
15, 282780, Note_on_c, 13, 55, 76
15, 282831, Note_on_c, 13, 55, 0
15, 282840, Note_on_c, 13, 55, 76
15, 282891, Note_on_c, 13, 55, 0
15, 282900, Note_on_c, 13, 55, 76
15, 282951, Note_on_c, 13, 55, 0
15, 282960, Note_on_c, 13, 53, 84
15, 283011, Note_on_c, 13, 53, 0
15, 283020, Note_on_c, 13, 53, 76
15, 283071, Note_on_c, 13, 53, 0
15, 283080, Note_on_c, 13, 53, 76
15, 283131, Note_on_c, 13, 53, 0
15, 283140, Note_on_c, 13, 53, 76
15, 283191, Note_on_c, 13, 53, 0
15, 283200, Note_on_c, 13, 53, 76
15, 283251, Note_on_c, 13, 53, 0
15, 283260, Note_on_c, 13, 53, 76
15, 283311, Note_on_c, 13, 53, 0
15, 283320, Note_on_c, 13, 53, 76
15, 283371, Note_on_c, 13, 53, 0
15, 283380, Note_on_c, 13, 53, 76
15, 283431, Note_on_c, 13, 53, 0
15, 283440, Note_on_c, 13, 53, 76
15, 283491, Note_on_c, 13, 53, 0
15, 283500, Note_on_c, 13, 53, 76
15, 283551, Note_on_c, 13, 53, 0
15, 283560, Note_on_c, 13, 53, 76
15, 283611, Note_on_c, 13, 53, 0
15, 283620, Note_on_c, 13, 53, 76
15, 283671, Note_on_c, 13, 53, 0
15, 283680, Note_on_c, 13, 55, 84
15, 283731, Note_on_c, 13, 55, 0
15, 283740, Note_on_c, 13, 55, 76
15, 283791, Note_on_c, 13, 55, 0
15, 283800, Note_on_c, 13, 55, 76
15, 283851, Note_on_c, 13, 55, 0
15, 283860, Note_on_c, 13, 55, 76
15, 283911, Note_on_c, 13, 55, 0
15, 283920, Note_on_c, 13, 55, 76
15, 283971, Note_on_c, 13, 55, 0
15, 283980, Note_on_c, 13, 55, 76
15, 284031, Note_on_c, 13, 55, 0
15, 284040, Note_on_c, 13, 55, 76
15, 284091, Note_on_c, 13, 55, 0
15, 284100, Note_on_c, 13, 55, 76
15, 284151, Note_on_c, 13, 55, 0
15, 284160, Note_on_c, 13, 55, 76
15, 284211, Note_on_c, 13, 55, 0
15, 284220, Note_on_c, 13, 55, 76
15, 284271, Note_on_c, 13, 55, 0
15, 284280, Note_on_c, 13, 55, 76
15, 284331, Note_on_c, 13, 55, 0
15, 284340, Note_on_c, 13, 55, 76
15, 284391, Note_on_c, 13, 55, 0
15, 284400, Note_on_c, 13, 53, 84
15, 284451, Note_on_c, 13, 53, 0
15, 284460, Note_on_c, 13, 53, 84
15, 284511, Note_on_c, 13, 53, 0
15, 284520, Note_on_c, 13, 72, 84
15, 284571, Note_on_c, 13, 72, 0
15, 284580, Note_on_c, 13, 72, 84
15, 284631, Note_on_c, 13, 72, 0
15, 284640, Note_on_c, 13, 69, 84
15, 284691, Note_on_c, 13, 69, 0
15, 284700, Note_on_c, 13, 69, 84
15, 284751, Note_on_c, 13, 69, 0
15, 284760, Note_on_c, 13, 77, 84
15, 284811, Note_on_c, 13, 77, 0
15, 284820, Note_on_c, 13, 77, 84
15, 284871, Note_on_c, 13, 77, 0
15, 284880, Note_on_c, 13, 72, 84
15, 284931, Note_on_c, 13, 72, 0
15, 284940, Note_on_c, 13, 72, 84
15, 284991, Note_on_c, 13, 72, 0
15, 285000, Note_on_c, 13, 69, 84
15, 285051, Note_on_c, 13, 69, 0
15, 285060, Note_on_c, 13, 69, 84
15, 285111, Note_on_c, 13, 69, 0
15, 285120, Note_on_c, 13, 65, 84
15, 285171, Note_on_c, 13, 65, 0
15, 285180, Note_on_c, 13, 65, 84
15, 285231, Note_on_c, 13, 65, 0
15, 285240, Note_on_c, 13, 72, 84
15, 285291, Note_on_c, 13, 72, 0
15, 285300, Note_on_c, 13, 72, 84
15, 285351, Note_on_c, 13, 72, 0
15, 285360, Note_on_c, 13, 69, 84
15, 285411, Note_on_c, 13, 69, 0
15, 285420, Note_on_c, 13, 69, 84
15, 285471, Note_on_c, 13, 69, 0
15, 285480, Note_on_c, 13, 65, 84
15, 285531, Note_on_c, 13, 65, 0
15, 285540, Note_on_c, 13, 65, 84
15, 285591, Note_on_c, 13, 65, 0
15, 285600, Note_on_c, 13, 60, 84
15, 285651, Note_on_c, 13, 60, 0
15, 285660, Note_on_c, 13, 60, 84
15, 285711, Note_on_c, 13, 60, 0
15, 285720, Note_on_c, 13, 69, 84
15, 285771, Note_on_c, 13, 69, 0
15, 285780, Note_on_c, 13, 69, 84
15, 285831, Note_on_c, 13, 69, 0
15, 285840, Note_on_c, 13, 65, 84
15, 285891, Note_on_c, 13, 65, 0
15, 285900, Note_on_c, 13, 65, 84
15, 285951, Note_on_c, 13, 65, 0
15, 285960, Note_on_c, 13, 60, 84
15, 286011, Note_on_c, 13, 60, 0
15, 286020, Note_on_c, 13, 60, 84
15, 286071, Note_on_c, 13, 60, 0
15, 286080, Note_on_c, 13, 57, 84
15, 286131, Note_on_c, 13, 57, 0
15, 286140, Note_on_c, 13, 57, 84
15, 286191, Note_on_c, 13, 57, 0
15, 286200, Note_on_c, 13, 65, 84
15, 286251, Note_on_c, 13, 65, 0
15, 286260, Note_on_c, 13, 65, 84
15, 286311, Note_on_c, 13, 65, 0
15, 286320, Note_on_c, 13, 60, 84
15, 286371, Note_on_c, 13, 60, 0
15, 286380, Note_on_c, 13, 60, 84
15, 286431, Note_on_c, 13, 60, 0
15, 286440, Note_on_c, 13, 57, 84
15, 286491, Note_on_c, 13, 57, 0
15, 286500, Note_on_c, 13, 57, 84
15, 286551, Note_on_c, 13, 57, 0
15, 286560, Note_on_c, 13, 53, 84
15, 286611, Note_on_c, 13, 53, 0
15, 286620, Note_on_c, 13, 53, 84
15, 286671, Note_on_c, 13, 53, 0
15, 286680, Note_on_c, 13, 65, 84
15, 286731, Note_on_c, 13, 65, 0
15, 286740, Note_on_c, 13, 65, 84
15, 286791, Note_on_c, 13, 65, 0
15, 286800, Note_on_c, 13, 60, 84
15, 286851, Note_on_c, 13, 60, 0
15, 286860, Note_on_c, 13, 60, 84
15, 286911, Note_on_c, 13, 60, 0
15, 286920, Note_on_c, 13, 57, 84
15, 286971, Note_on_c, 13, 57, 0
15, 286980, Note_on_c, 13, 57, 84
15, 287031, Note_on_c, 13, 57, 0
15, 287040, Note_on_c, 13, 53, 84
15, 287091, Note_on_c, 13, 53, 0
15, 287100, Note_on_c, 13, 53, 84
15, 287151, Note_on_c, 13, 53, 0
15, 287160, Note_on_c, 13, 65, 84
15, 287211, Note_on_c, 13, 65, 0
15, 287220, Note_on_c, 13, 65, 84
15, 287271, Note_on_c, 13, 65, 0
15, 287280, Note_on_c, 13, 53, 92
15, 287519, Note_on_c, 13, 53, 0
15, 287640, Note_on_c, 13, 65, 84
15, 287729, Note_on_c, 13, 65, 0
15, 287760, Note_on_c, 13, 53, 84
15, 287849, Note_on_c, 13, 53, 0
15, 287880, Note_on_c, 13, 65, 84
15, 287969, Note_on_c, 13, 65, 0
15, 288000, Note_on_c, 13, 53, 92
15, 288239, Note_on_c, 13, 53, 0
15, 288360, Note_on_c, 13, 65, 84
15, 288449, Note_on_c, 13, 65, 0
15, 288480, Note_on_c, 13, 53, 84
15, 288569, Note_on_c, 13, 53, 0
15, 288600, Note_on_c, 13, 65, 84
15, 288689, Note_on_c, 13, 65, 0
15, 288720, Note_on_c, 13, 53, 92
15, 288959, Note_on_c, 13, 53, 0
15, 289080, Note_on_c, 13, 65, 84
15, 289169, Note_on_c, 13, 65, 0
15, 289200, Note_on_c, 13, 53, 84
15, 289289, Note_on_c, 13, 53, 0
15, 289320, Note_on_c, 13, 65, 84
15, 289409, Note_on_c, 13, 65, 0
15, 289440, Note_on_c, 13, 53, 92
15, 289679, Note_on_c, 13, 53, 0
15, 289800, Note_on_c, 13, 65, 84
15, 289889, Note_on_c, 13, 65, 0
15, 289920, Note_on_c, 13, 53, 84
15, 290009, Note_on_c, 13, 53, 0
15, 290040, Note_on_c, 13, 65, 84
15, 290129, Note_on_c, 13, 65, 0
15, 290160, Note_on_c, 13, 53, 84
15, 290399, Note_on_c, 13, 53, 0
15, 292320, Note_on_c, 13, 49, 52
15, 292559, Note_on_c, 13, 49, 0
15, 292680, Note_on_c, 13, 61, 52
15, 292769, Note_on_c, 13, 61, 0
15, 292800, Note_on_c, 13, 49, 52
15, 292889, Note_on_c, 13, 49, 0
15, 292920, Note_on_c, 13, 61, 52
15, 293009, Note_on_c, 13, 61, 0
15, 293040, Note_on_c, 13, 49, 44
15, 293279, Note_on_c, 13, 49, 0
15, 293400, Note_on_c, 13, 61, 44
15, 293489, Note_on_c, 13, 61, 0
15, 293520, Note_on_c, 13, 49, 44
15, 293609, Note_on_c, 13, 49, 0
15, 293640, Note_on_c, 13, 61, 44
15, 293729, Note_on_c, 13, 61, 0
15, 293760, Note_on_c, 13, 49, 44
15, 293999, Note_on_c, 13, 49, 0
15, 294120, Note_on_c, 13, 61, 44
15, 294209, Note_on_c, 13, 61, 0
15, 294240, Note_on_c, 13, 49, 44
15, 294329, Note_on_c, 13, 49, 0
15, 294360, Note_on_c, 13, 61, 44
15, 294449, Note_on_c, 13, 61, 0
15, 294480, Note_on_c, 13, 49, 44
15, 294719, Note_on_c, 13, 49, 0
15, 294840, Note_on_c, 13, 61, 44
15, 294929, Note_on_c, 13, 61, 0
15, 294960, Note_on_c, 13, 49, 44
15, 295049, Note_on_c, 13, 49, 0
15, 295080, Note_on_c, 13, 61, 44
15, 295169, Note_on_c, 13, 61, 0
15, 295200, Note_on_c, 13, 49, 44
15, 295439, Note_on_c, 13, 49, 0
15, 295560, Note_on_c, 13, 61, 44
15, 295649, Note_on_c, 13, 61, 0
15, 295680, Note_on_c, 13, 49, 44
15, 295769, Note_on_c, 13, 49, 0
15, 295800, Note_on_c, 13, 61, 44
15, 295889, Note_on_c, 13, 61, 0
15, 295920, Note_on_c, 13, 49, 44
15, 296159, Note_on_c, 13, 49, 0
15, 296280, Note_on_c, 13, 61, 44
15, 296369, Note_on_c, 13, 61, 0
15, 296400, Note_on_c, 13, 49, 44
15, 296489, Note_on_c, 13, 49, 0
15, 296520, Note_on_c, 13, 61, 44
15, 296609, Note_on_c, 13, 61, 0
15, 296640, Note_on_c, 13, 49, 44
15, 296879, Note_on_c, 13, 49, 0
15, 297000, Note_on_c, 13, 61, 44
15, 297089, Note_on_c, 13, 61, 0
15, 297120, Note_on_c, 13, 49, 44
15, 297209, Note_on_c, 13, 49, 0
15, 297240, Note_on_c, 13, 61, 44
15, 297329, Note_on_c, 13, 61, 0
15, 297360, Note_on_c, 13, 49, 44
15, 297584, Note_on_c, 13, 49, 0
15, 297600, Note_on_c, 13, 49, 44
15, 297689, Note_on_c, 13, 49, 0
15, 297720, Note_on_c, 13, 51, 44
15, 297809, Note_on_c, 13, 51, 0
15, 297840, Note_on_c, 13, 53, 44
15, 297929, Note_on_c, 13, 53, 0
15, 297960, Note_on_c, 13, 54, 44
15, 298049, Note_on_c, 13, 54, 0
15, 298080, Note_on_c, 13, 56, 44
15, 298259, Note_on_c, 13, 56, 0
15, 299040, Note_on_c, 13, 58, 44
15, 299129, Note_on_c, 13, 58, 0
15, 299160, Note_on_c, 13, 60, 44
15, 299249, Note_on_c, 13, 60, 0
15, 299280, Note_on_c, 13, 62, 44
15, 299369, Note_on_c, 13, 62, 0
15, 299400, Note_on_c, 13, 63, 44
15, 299489, Note_on_c, 13, 63, 0
15, 299520, Note_on_c, 13, 65, 44
15, 299699, Note_on_c, 13, 65, 0
15, 300480, Note_on_c, 13, 51, 44
15, 300569, Note_on_c, 13, 51, 0
15, 300600, Note_on_c, 13, 53, 44
15, 300689, Note_on_c, 13, 53, 0
15, 300720, Note_on_c, 13, 54, 44
15, 300809, Note_on_c, 13, 54, 0
15, 300840, Note_on_c, 13, 56, 44
15, 300929, Note_on_c, 13, 56, 0
15, 300960, Note_on_c, 13, 58, 44
15, 301139, Note_on_c, 13, 58, 0
15, 301920, Note_on_c, 13, 48, 46
15, 302009, Note_on_c, 13, 48, 0
15, 302040, Note_on_c, 13, 50, 47
15, 302129, Note_on_c, 13, 50, 0
15, 302160, Note_on_c, 13, 52, 48
15, 302249, Note_on_c, 13, 52, 0
15, 302280, Note_on_c, 13, 53, 49
15, 302369, Note_on_c, 13, 53, 0
15, 302400, Note_on_c, 13, 55, 50
15, 302579, Note_on_c, 13, 55, 0
15, 303360, Note_on_c, 13, 48, 59
15, 303449, Note_on_c, 13, 48, 0
15, 303480, Note_on_c, 13, 52, 60
15, 303569, Note_on_c, 13, 52, 0
15, 303600, Note_on_c, 13, 53, 61
15, 303689, Note_on_c, 13, 53, 0
15, 303720, Note_on_c, 13, 55, 62
15, 303809, Note_on_c, 13, 55, 0
15, 303840, Note_on_c, 13, 56, 64
15, 304019, Note_on_c, 13, 56, 0
15, 304800, Note_on_c, 13, 48, 72
15, 304889, Note_on_c, 13, 48, 0
15, 304920, Note_on_c, 13, 52, 74
15, 305009, Note_on_c, 13, 52, 0
15, 305040, Note_on_c, 13, 53, 75
15, 305129, Note_on_c, 13, 53, 0
15, 305160, Note_on_c, 13, 55, 76
15, 305249, Note_on_c, 13, 55, 0
15, 305280, Note_on_c, 13, 57, 77
15, 305459, Note_on_c, 13, 57, 0
15, 306000, Note_on_c, 13, 65, 84
15, 306000, Note_on_c, 13, 69, 84
15, 306051, Note_on_c, 13, 65, 0
15, 306051, Note_on_c, 13, 69, 0
15, 306060, Note_on_c, 13, 65, 84
15, 306060, Note_on_c, 13, 69, 84
15, 306111, Note_on_c, 13, 65, 0
15, 306111, Note_on_c, 13, 69, 0
15, 306120, Note_on_c, 13, 65, 84
15, 306120, Note_on_c, 13, 69, 84
15, 306171, Note_on_c, 13, 65, 0
15, 306171, Note_on_c, 13, 69, 0
15, 306180, Note_on_c, 13, 69, 84
15, 306180, Note_on_c, 13, 65, 84
15, 306231, Note_on_c, 13, 69, 0
15, 306231, Note_on_c, 13, 65, 0
15, 306240, Note_on_c, 13, 65, 84
15, 306291, Note_on_c, 13, 65, 0
15, 306300, Note_on_c, 13, 65, 84
15, 306351, Note_on_c, 13, 65, 0
15, 306360, Note_on_c, 13, 67, 84
15, 306411, Note_on_c, 13, 67, 0
15, 306420, Note_on_c, 13, 67, 84
15, 306471, Note_on_c, 13, 67, 0
15, 306480, Note_on_c, 13, 69, 84
15, 306531, Note_on_c, 13, 69, 0
15, 306540, Note_on_c, 13, 69, 84
15, 306591, Note_on_c, 13, 69, 0
15, 306600, Note_on_c, 13, 65, 84
15, 306651, Note_on_c, 13, 65, 0
15, 306660, Note_on_c, 13, 65, 84
15, 306711, Note_on_c, 13, 65, 0
15, 306720, Note_on_c, 13, 69, 92
15, 306771, Note_on_c, 13, 69, 0
15, 306780, Note_on_c, 13, 69, 84
15, 306831, Note_on_c, 13, 69, 0
15, 306840, Note_on_c, 13, 69, 84
15, 306891, Note_on_c, 13, 69, 0
15, 306900, Note_on_c, 13, 69, 84
15, 306951, Note_on_c, 13, 69, 0
15, 306960, Note_on_c, 13, 65, 84
15, 307011, Note_on_c, 13, 65, 0
15, 307020, Note_on_c, 13, 65, 84
15, 307071, Note_on_c, 13, 65, 0
15, 307080, Note_on_c, 13, 67, 84
15, 307131, Note_on_c, 13, 67, 0
15, 307140, Note_on_c, 13, 67, 84
15, 307191, Note_on_c, 13, 67, 0
15, 307200, Note_on_c, 13, 69, 84
15, 307251, Note_on_c, 13, 69, 0
15, 307260, Note_on_c, 13, 69, 84
15, 307311, Note_on_c, 13, 69, 0
15, 307320, Note_on_c, 13, 65, 84
15, 307371, Note_on_c, 13, 65, 0
15, 307380, Note_on_c, 13, 65, 84
15, 307431, Note_on_c, 13, 65, 0
15, 307440, Note_on_c, 13, 70, 92
15, 307491, Note_on_c, 13, 70, 0
15, 307500, Note_on_c, 13, 70, 84
15, 307551, Note_on_c, 13, 70, 0
15, 307560, Note_on_c, 13, 70, 84
15, 307611, Note_on_c, 13, 70, 0
15, 307620, Note_on_c, 13, 70, 84
15, 307671, Note_on_c, 13, 70, 0
15, 307680, Note_on_c, 13, 67, 84
15, 307731, Note_on_c, 13, 67, 0
15, 307740, Note_on_c, 13, 67, 84
15, 307791, Note_on_c, 13, 67, 0
15, 307800, Note_on_c, 13, 69, 84
15, 307851, Note_on_c, 13, 69, 0
15, 307860, Note_on_c, 13, 69, 84
15, 307911, Note_on_c, 13, 69, 0
15, 307920, Note_on_c, 13, 67, 84
15, 307971, Note_on_c, 13, 67, 0
15, 307980, Note_on_c, 13, 67, 84
15, 308031, Note_on_c, 13, 67, 0
15, 308040, Note_on_c, 13, 65, 84
15, 308091, Note_on_c, 13, 65, 0
15, 308100, Note_on_c, 13, 65, 84
15, 308151, Note_on_c, 13, 65, 0
15, 308160, Note_on_c, 13, 64, 92
15, 308211, Note_on_c, 13, 64, 0
15, 308220, Note_on_c, 13, 70, 84
15, 308271, Note_on_c, 13, 70, 0
15, 308280, Note_on_c, 13, 70, 84
15, 308331, Note_on_c, 13, 70, 0
15, 308340, Note_on_c, 13, 70, 84
15, 308391, Note_on_c, 13, 70, 0
15, 308400, Note_on_c, 13, 67, 84
15, 308451, Note_on_c, 13, 67, 0
15, 308460, Note_on_c, 13, 67, 84
15, 308511, Note_on_c, 13, 67, 0
15, 308520, Note_on_c, 13, 69, 84
15, 308571, Note_on_c, 13, 69, 0
15, 308580, Note_on_c, 13, 69, 84
15, 308631, Note_on_c, 13, 69, 0
15, 308640, Note_on_c, 13, 67, 84
15, 308691, Note_on_c, 13, 67, 0
15, 308700, Note_on_c, 13, 67, 84
15, 308751, Note_on_c, 13, 67, 0
15, 308760, Note_on_c, 13, 65, 84
15, 308811, Note_on_c, 13, 65, 0
15, 308820, Note_on_c, 13, 65, 84
15, 308871, Note_on_c, 13, 65, 0
15, 308880, Note_on_c, 13, 64, 92
15, 308931, Note_on_c, 13, 64, 0
15, 308940, Note_on_c, 13, 64, 84
15, 308991, Note_on_c, 13, 64, 0
15, 309000, Note_on_c, 13, 70, 84
15, 309051, Note_on_c, 13, 70, 0
15, 309060, Note_on_c, 13, 70, 84
15, 309111, Note_on_c, 13, 70, 0
15, 309120, Note_on_c, 13, 70, 84
15, 309171, Note_on_c, 13, 70, 0
15, 309180, Note_on_c, 13, 70, 84
15, 309231, Note_on_c, 13, 70, 0
15, 309240, Note_on_c, 13, 69, 84
15, 309291, Note_on_c, 13, 69, 0
15, 309300, Note_on_c, 13, 69, 84
15, 309351, Note_on_c, 13, 69, 0
15, 309360, Note_on_c, 13, 67, 84
15, 309411, Note_on_c, 13, 67, 0
15, 309420, Note_on_c, 13, 67, 84
15, 309471, Note_on_c, 13, 67, 0
15, 309480, Note_on_c, 13, 68, 84
15, 309531, Note_on_c, 13, 68, 0
15, 309540, Note_on_c, 13, 68, 84
15, 309591, Note_on_c, 13, 68, 0
15, 309600, Note_on_c, 13, 69, 92
15, 309651, Note_on_c, 13, 69, 0
15, 309660, Note_on_c, 13, 69, 84
15, 309711, Note_on_c, 13, 69, 0
15, 309720, Note_on_c, 13, 60, 84
15, 309771, Note_on_c, 13, 60, 0
15, 309780, Note_on_c, 13, 60, 84
15, 309831, Note_on_c, 13, 60, 0
15, 309840, Note_on_c, 13, 62, 84
15, 309891, Note_on_c, 13, 62, 0
15, 309900, Note_on_c, 13, 62, 84
15, 309951, Note_on_c, 13, 62, 0
15, 309960, Note_on_c, 13, 60, 84
15, 310011, Note_on_c, 13, 60, 0
15, 310020, Note_on_c, 13, 60, 84
15, 310071, Note_on_c, 13, 60, 0
15, 310080, Note_on_c, 13, 62, 84
15, 310131, Note_on_c, 13, 62, 0
15, 310140, Note_on_c, 13, 62, 84
15, 310191, Note_on_c, 13, 62, 0
15, 310200, Note_on_c, 13, 64, 84
15, 310251, Note_on_c, 13, 64, 0
15, 310260, Note_on_c, 13, 64, 84
15, 310311, Note_on_c, 13, 64, 0
15, 310320, Note_on_c, 13, 65, 92
15, 310371, Note_on_c, 13, 65, 0
15, 310380, Note_on_c, 13, 65, 84
15, 310431, Note_on_c, 13, 65, 0
15, 310440, Note_on_c, 13, 60, 84
15, 310491, Note_on_c, 13, 60, 0
15, 310500, Note_on_c, 13, 60, 84
15, 310551, Note_on_c, 13, 60, 0
15, 310560, Note_on_c, 13, 60, 84
15, 310611, Note_on_c, 13, 60, 0
15, 310620, Note_on_c, 13, 60, 84
15, 310671, Note_on_c, 13, 60, 0
15, 310680, Note_on_c, 13, 57, 84
15, 310731, Note_on_c, 13, 57, 0
15, 310740, Note_on_c, 13, 57, 84
15, 310791, Note_on_c, 13, 57, 0
15, 310800, Note_on_c, 13, 60, 84
15, 310851, Note_on_c, 13, 60, 0
15, 310860, Note_on_c, 13, 60, 84
15, 310911, Note_on_c, 13, 60, 0
15, 310920, Note_on_c, 13, 48, 84
15, 310971, Note_on_c, 13, 48, 0
15, 310980, Note_on_c, 13, 48, 84
15, 311031, Note_on_c, 13, 48, 0
15, 311040, Note_on_c, 13, 65, 92
15, 311091, Note_on_c, 13, 65, 0
15, 311100, Note_on_c, 13, 65, 84
15, 311151, Note_on_c, 13, 65, 0
15, 311160, Note_on_c, 13, 60, 84
15, 311211, Note_on_c, 13, 60, 0
15, 311220, Note_on_c, 13, 60, 84
15, 311271, Note_on_c, 13, 60, 0
15, 311280, Note_on_c, 13, 60, 84
15, 311331, Note_on_c, 13, 60, 0
15, 311340, Note_on_c, 13, 60, 84
15, 311391, Note_on_c, 13, 60, 0
15, 311400, Note_on_c, 13, 57, 84
15, 311451, Note_on_c, 13, 57, 0
15, 311460, Note_on_c, 13, 57, 84
15, 311511, Note_on_c, 13, 57, 0
15, 311520, Note_on_c, 13, 60, 84
15, 311571, Note_on_c, 13, 60, 0
15, 311580, Note_on_c, 13, 60, 84
15, 311631, Note_on_c, 13, 60, 0
15, 311640, Note_on_c, 13, 48, 84
15, 311691, Note_on_c, 13, 48, 0
15, 311700, Note_on_c, 13, 48, 84
15, 311751, Note_on_c, 13, 48, 0
15, 311760, Note_on_c, 13, 65, 92
15, 311811, Note_on_c, 13, 65, 0
15, 311820, Note_on_c, 13, 65, 84
15, 311871, Note_on_c, 13, 65, 0
15, 311880, Note_on_c, 13, 60, 84
15, 311931, Note_on_c, 13, 60, 0
15, 311940, Note_on_c, 13, 60, 84
15, 311991, Note_on_c, 13, 60, 0
15, 312000, Note_on_c, 13, 60, 84
15, 312051, Note_on_c, 13, 60, 0
15, 312060, Note_on_c, 13, 60, 84
15, 312111, Note_on_c, 13, 60, 0
15, 312120, Note_on_c, 13, 57, 84
15, 312171, Note_on_c, 13, 57, 0
15, 312180, Note_on_c, 13, 57, 84
15, 312231, Note_on_c, 13, 57, 0
15, 312240, Note_on_c, 13, 64, 84
15, 312291, Note_on_c, 13, 64, 0
15, 312300, Note_on_c, 13, 64, 84
15, 312351, Note_on_c, 13, 64, 0
15, 312360, Note_on_c, 13, 60, 84
15, 312411, Note_on_c, 13, 60, 0
15, 312420, Note_on_c, 13, 60, 84
15, 312471, Note_on_c, 13, 60, 0
15, 312480, Note_on_c, 13, 48, 76
15, 312480, Note_on_c, 13, 60, 76
15, 313199, Note_on_c, 13, 48, 0
15, 313199, Note_on_c, 13, 60, 0
15, 314640, Note_on_c, 13, 58, 52
15, 315104, Note_on_c, 13, 58, 0
15, 315120, Note_on_c, 13, 57, 52
15, 315479, Note_on_c, 13, 57, 0
15, 315480, Note_on_c, 13, 55, 52
15, 315599, Note_on_c, 13, 55, 0
15, 315600, Note_on_c, 13, 50, 52
15, 315719, Note_on_c, 13, 50, 0
15, 315720, Note_on_c, 13, 52, 52
15, 315839, Note_on_c, 13, 52, 0
15, 315840, Note_on_c, 13, 53, 52
15, 315959, Note_on_c, 13, 53, 0
15, 315960, Note_on_c, 13, 48, 52
15, 316079, Note_on_c, 13, 48, 0
15, 316200, Note_on_c, 13, 55, 53
15, 316319, Note_on_c, 13, 55, 0
15, 316320, Note_on_c, 13, 50, 54
15, 316439, Note_on_c, 13, 50, 0
15, 316440, Note_on_c, 13, 52, 55
15, 316559, Note_on_c, 13, 52, 0
15, 316560, Note_on_c, 13, 53, 56
15, 316679, Note_on_c, 13, 53, 0
15, 316680, Note_on_c, 13, 48, 57
15, 316799, Note_on_c, 13, 48, 0
15, 316920, Note_on_c, 13, 55, 59
15, 317039, Note_on_c, 13, 55, 0
15, 317040, Note_on_c, 13, 50, 60
15, 317159, Note_on_c, 13, 50, 0
15, 317160, Note_on_c, 13, 52, 61
15, 317279, Note_on_c, 13, 52, 0
15, 317280, Note_on_c, 13, 53, 62
15, 317399, Note_on_c, 13, 53, 0
15, 317400, Note_on_c, 13, 48, 63
15, 317519, Note_on_c, 13, 48, 0
15, 317640, Note_on_c, 13, 55, 65
15, 317759, Note_on_c, 13, 55, 0
15, 317760, Note_on_c, 13, 50, 66
15, 317879, Note_on_c, 13, 50, 0
15, 317880, Note_on_c, 13, 52, 67
15, 317999, Note_on_c, 13, 52, 0
15, 318000, Note_on_c, 13, 53, 68
15, 318119, Note_on_c, 13, 53, 0
15, 318120, Note_on_c, 13, 48, 69
15, 318239, Note_on_c, 13, 48, 0
15, 318360, Note_on_c, 13, 55, 71
15, 318479, Note_on_c, 13, 55, 0
15, 318480, Note_on_c, 13, 50, 72
15, 318599, Note_on_c, 13, 50, 0
15, 318600, Note_on_c, 13, 52, 73
15, 318719, Note_on_c, 13, 52, 0
15, 318720, Note_on_c, 13, 53, 74
15, 318839, Note_on_c, 13, 53, 0
15, 318840, Note_on_c, 13, 57, 75
15, 318959, Note_on_c, 13, 57, 0
15, 319080, Note_on_c, 13, 53, 76
15, 319131, Note_on_c, 13, 53, 0
15, 319140, Note_on_c, 13, 53, 76
15, 319191, Note_on_c, 13, 53, 0
15, 319200, Note_on_c, 13, 50, 76
15, 319251, Note_on_c, 13, 50, 0
15, 319260, Note_on_c, 13, 50, 76
15, 319311, Note_on_c, 13, 50, 0
15, 319320, Note_on_c, 13, 52, 76
15, 319371, Note_on_c, 13, 52, 0
15, 319380, Note_on_c, 13, 52, 76
15, 319431, Note_on_c, 13, 52, 0
15, 319440, Note_on_c, 13, 53, 84
15, 319491, Note_on_c, 13, 53, 0
15, 319500, Note_on_c, 13, 53, 76
15, 319551, Note_on_c, 13, 53, 0
15, 319560, Note_on_c, 13, 48, 76
15, 319611, Note_on_c, 13, 48, 0
15, 319620, Note_on_c, 13, 48, 76
15, 319679, Note_on_c, 13, 48, 0
15, 319800, Note_on_c, 13, 53, 76
15, 319851, Note_on_c, 13, 53, 0
15, 319860, Note_on_c, 13, 53, 76
15, 319911, Note_on_c, 13, 53, 0
15, 319920, Note_on_c, 13, 50, 76
15, 319971, Note_on_c, 13, 50, 0
15, 319980, Note_on_c, 13, 50, 76
15, 320031, Note_on_c, 13, 50, 0
15, 320040, Note_on_c, 13, 52, 76
15, 320091, Note_on_c, 13, 52, 0
15, 320100, Note_on_c, 13, 52, 76
15, 320151, Note_on_c, 13, 52, 0
15, 320160, Note_on_c, 13, 53, 84
15, 320211, Note_on_c, 13, 53, 0
15, 320220, Note_on_c, 13, 53, 76
15, 320271, Note_on_c, 13, 53, 0
15, 320280, Note_on_c, 13, 48, 76
15, 320331, Note_on_c, 13, 48, 0
15, 320340, Note_on_c, 13, 48, 76
15, 320399, Note_on_c, 13, 48, 0
15, 320520, Note_on_c, 13, 53, 76
15, 320571, Note_on_c, 13, 53, 0
15, 320580, Note_on_c, 13, 53, 76
15, 320631, Note_on_c, 13, 53, 0
15, 320640, Note_on_c, 13, 50, 76
15, 320691, Note_on_c, 13, 50, 0
15, 320700, Note_on_c, 13, 50, 76
15, 320751, Note_on_c, 13, 50, 0
15, 320760, Note_on_c, 13, 52, 76
15, 320811, Note_on_c, 13, 52, 0
15, 320820, Note_on_c, 13, 52, 76
15, 320871, Note_on_c, 13, 52, 0
15, 320880, Note_on_c, 13, 53, 84
15, 320931, Note_on_c, 13, 53, 0
15, 320940, Note_on_c, 13, 53, 76
15, 320991, Note_on_c, 13, 53, 0
15, 321000, Note_on_c, 13, 48, 76
15, 321051, Note_on_c, 13, 48, 0
15, 321060, Note_on_c, 13, 48, 76
15, 321119, Note_on_c, 13, 48, 0
15, 321240, Note_on_c, 13, 53, 76
15, 321291, Note_on_c, 13, 53, 0
15, 321300, Note_on_c, 13, 53, 76
15, 321351, Note_on_c, 13, 53, 0
15, 321360, Note_on_c, 13, 50, 76
15, 321411, Note_on_c, 13, 50, 0
15, 321420, Note_on_c, 13, 50, 76
15, 321471, Note_on_c, 13, 50, 0
15, 321480, Note_on_c, 13, 52, 76
15, 321531, Note_on_c, 13, 52, 0
15, 321540, Note_on_c, 13, 52, 76
15, 321591, Note_on_c, 13, 52, 0
15, 321600, Note_on_c, 13, 53, 84
15, 321651, Note_on_c, 13, 53, 0
15, 321660, Note_on_c, 13, 53, 76
15, 321711, Note_on_c, 13, 53, 0
15, 321720, Note_on_c, 13, 48, 76
15, 321771, Note_on_c, 13, 48, 0
15, 321780, Note_on_c, 13, 48, 76
15, 321839, Note_on_c, 13, 48, 0
15, 321960, Note_on_c, 13, 50, 76
15, 322011, Note_on_c, 13, 50, 0
15, 322020, Note_on_c, 13, 50, 76
15, 322071, Note_on_c, 13, 50, 0
15, 322080, Note_on_c, 13, 48, 76
15, 322131, Note_on_c, 13, 48, 0
15, 322140, Note_on_c, 13, 48, 76
15, 322191, Note_on_c, 13, 48, 0
15, 322200, Note_on_c, 13, 50, 76
15, 322251, Note_on_c, 13, 50, 0
15, 322260, Note_on_c, 13, 50, 76
15, 322311, Note_on_c, 13, 50, 0
15, 322320, Note_on_c, 13, 51, 84
15, 322371, Note_on_c, 13, 51, 0
15, 322380, Note_on_c, 13, 51, 76
15, 322431, Note_on_c, 13, 51, 0
15, 322440, Note_on_c, 13, 57, 76
15, 322491, Note_on_c, 13, 57, 0
15, 322500, Note_on_c, 13, 57, 76
15, 322559, Note_on_c, 13, 57, 0
15, 322680, Note_on_c, 13, 58, 76
15, 322731, Note_on_c, 13, 58, 0
15, 322740, Note_on_c, 13, 58, 76
15, 322791, Note_on_c, 13, 58, 0
15, 322800, Note_on_c, 13, 57, 76
15, 322851, Note_on_c, 13, 57, 0
15, 322860, Note_on_c, 13, 57, 76
15, 322911, Note_on_c, 13, 57, 0
15, 322920, Note_on_c, 13, 58, 76
15, 322971, Note_on_c, 13, 58, 0
15, 322980, Note_on_c, 13, 58, 76
15, 323031, Note_on_c, 13, 58, 0
15, 323040, Note_on_c, 13, 60, 84
15, 323091, Note_on_c, 13, 60, 0
15, 323100, Note_on_c, 13, 60, 76
15, 323151, Note_on_c, 13, 60, 0
15, 323160, Note_on_c, 13, 55, 76
15, 323211, Note_on_c, 13, 55, 0
15, 323220, Note_on_c, 13, 55, 76
15, 323279, Note_on_c, 13, 55, 0
15, 323400, Note_on_c, 13, 57, 76
15, 323451, Note_on_c, 13, 57, 0
15, 323460, Note_on_c, 13, 57, 76
15, 323511, Note_on_c, 13, 57, 0
15, 323520, Note_on_c, 13, 55, 76
15, 323571, Note_on_c, 13, 55, 0
15, 323580, Note_on_c, 13, 55, 76
15, 323631, Note_on_c, 13, 55, 0
15, 323640, Note_on_c, 13, 57, 76
15, 323691, Note_on_c, 13, 57, 0
15, 323700, Note_on_c, 13, 57, 76
15, 323751, Note_on_c, 13, 57, 0
15, 323760, Note_on_c, 13, 58, 84
15, 323811, Note_on_c, 13, 58, 0
15, 323820, Note_on_c, 13, 58, 76
15, 323871, Note_on_c, 13, 58, 0
15, 323880, Note_on_c, 13, 52, 76
15, 323931, Note_on_c, 13, 52, 0
15, 323940, Note_on_c, 13, 52, 76
15, 323999, Note_on_c, 13, 52, 0
15, 324120, Note_on_c, 13, 53, 76
15, 324171, Note_on_c, 13, 53, 0
15, 324180, Note_on_c, 13, 53, 76
15, 324231, Note_on_c, 13, 53, 0
15, 324240, Note_on_c, 13, 52, 76
15, 324291, Note_on_c, 13, 52, 0
15, 324300, Note_on_c, 13, 52, 76
15, 324351, Note_on_c, 13, 52, 0
15, 324360, Note_on_c, 13, 53, 76
15, 324411, Note_on_c, 13, 53, 0
15, 324420, Note_on_c, 13, 53, 76
15, 324471, Note_on_c, 13, 53, 0
15, 324480, Note_on_c, 13, 50, 84
15, 324531, Note_on_c, 13, 50, 0
15, 324540, Note_on_c, 13, 50, 76
15, 324591, Note_on_c, 13, 50, 0
15, 324600, Note_on_c, 13, 62, 76
15, 324651, Note_on_c, 13, 62, 0
15, 324660, Note_on_c, 13, 62, 76
15, 324711, Note_on_c, 13, 62, 0
15, 324720, Note_on_c, 13, 61, 92
15, 324771, Note_on_c, 13, 61, 0
15, 324780, Note_on_c, 13, 61, 92
15, 324831, Note_on_c, 13, 61, 0
15, 324840, Note_on_c, 13, 61, 92
15, 324891, Note_on_c, 13, 61, 0
15, 324900, Note_on_c, 13, 61, 92
15, 324951, Note_on_c, 13, 61, 0
15, 324960, Note_on_c, 13, 61, 92
15, 325011, Note_on_c, 13, 61, 0
15, 325020, Note_on_c, 13, 61, 92
15, 325071, Note_on_c, 13, 61, 0
15, 325080, Note_on_c, 13, 61, 92
15, 325131, Note_on_c, 13, 61, 0
15, 325140, Note_on_c, 13, 61, 92
15, 325191, Note_on_c, 13, 61, 0
15, 325200, Note_on_c, 13, 61, 92
15, 325251, Note_on_c, 13, 61, 0
15, 325260, Note_on_c, 13, 61, 92
15, 325311, Note_on_c, 13, 61, 0
15, 325320, Note_on_c, 13, 61, 92
15, 325371, Note_on_c, 13, 61, 0
15, 325380, Note_on_c, 13, 61, 92
15, 325431, Note_on_c, 13, 61, 0
15, 325440, Note_on_c, 13, 61, 92
15, 325491, Note_on_c, 13, 61, 0
15, 325500, Note_on_c, 13, 61, 92
15, 325551, Note_on_c, 13, 61, 0
15, 325560, Note_on_c, 13, 61, 92
15, 325611, Note_on_c, 13, 61, 0
15, 325620, Note_on_c, 13, 61, 92
15, 325671, Note_on_c, 13, 61, 0
15, 325680, Note_on_c, 13, 61, 92
15, 325731, Note_on_c, 13, 61, 0
15, 325740, Note_on_c, 13, 61, 92
15, 325791, Note_on_c, 13, 61, 0
15, 325800, Note_on_c, 13, 61, 92
15, 325851, Note_on_c, 13, 61, 0
15, 325860, Note_on_c, 13, 61, 92
15, 325911, Note_on_c, 13, 61, 0
15, 325920, Note_on_c, 13, 60, 92
15, 325971, Note_on_c, 13, 60, 0
15, 325980, Note_on_c, 13, 60, 92
15, 326031, Note_on_c, 13, 60, 0
15, 326040, Note_on_c, 13, 60, 92
15, 326091, Note_on_c, 13, 60, 0
15, 326100, Note_on_c, 13, 60, 92
15, 326151, Note_on_c, 13, 60, 0
15, 326160, Note_on_c, 13, 60, 92
15, 326160, Note_on_c, 13, 53, 92
15, 326279, Note_on_c, 13, 60, 0
15, 326279, Note_on_c, 13, 53, 0
15, 326880, Note_on_c, 13, 60, 92
15, 326880, Note_on_c, 13, 53, 92
15, 326999, Note_on_c, 13, 60, 0
15, 326999, Note_on_c, 13, 53, 0
15, 327600, Note_on_c, 13, 60, 92
15, 327600, Note_on_c, 13, 53, 92
15, 327719, Note_on_c, 13, 60, 0
15, 327719, Note_on_c, 13, 53, 0
15, 327840, Note_on_c, 13, 60, 92
15, 327891, Note_on_c, 13, 60, 0
15, 327900, Note_on_c, 13, 60, 92
15, 327951, Note_on_c, 13, 60, 0
15, 327960, Note_on_c, 13, 58, 92
15, 328011, Note_on_c, 13, 58, 0
15, 328020, Note_on_c, 13, 58, 92
15, 328071, Note_on_c, 13, 58, 0
15, 328080, Note_on_c, 13, 57, 92
15, 328131, Note_on_c, 13, 57, 0
15, 328140, Note_on_c, 13, 57, 92
15, 328191, Note_on_c, 13, 57, 0
15, 328200, Note_on_c, 13, 60, 92
15, 328251, Note_on_c, 13, 60, 0
15, 328260, Note_on_c, 13, 60, 92
15, 328311, Note_on_c, 13, 60, 0
15, 328320, Note_on_c, 13, 48, 92
15, 328320, Note_on_c, 13, 60, 92
15, 328439, Note_on_c, 13, 48, 0
15, 328439, Note_on_c, 13, 60, 0
15, 328560, Note_on_c, 13, 48, 92
15, 328560, Note_on_c, 13, 60, 92
15, 328679, Note_on_c, 13, 48, 0
15, 328679, Note_on_c, 13, 60, 0
15, 328800, Note_on_c, 13, 48, 92
15, 328800, Note_on_c, 13, 60, 92
15, 328919, Note_on_c, 13, 48, 0
15, 328919, Note_on_c, 13, 60, 0
15, 329040, Note_on_c, 13, 53, 92
15, 329040, Note_on_c, 13, 60, 92
15, 329159, Note_on_c, 13, 53, 0
15, 329159, Note_on_c, 13, 60, 0
15, 329760, Note_on_c, 13, 60, 92
15, 329760, Note_on_c, 13, 53, 92
15, 329879, Note_on_c, 13, 60, 0
15, 329879, Note_on_c, 13, 53, 0
15, 330480, Note_on_c, 13, 53, 92
15, 330480, Note_on_c, 13, 60, 92
15, 330599, Note_on_c, 13, 53, 0
15, 330599, Note_on_c, 13, 60, 0
15, 330720, Note_on_c, 13, 60, 92
15, 330771, Note_on_c, 13, 60, 0
15, 330780, Note_on_c, 13, 60, 92
15, 330831, Note_on_c, 13, 60, 0
15, 330840, Note_on_c, 13, 58, 92
15, 330891, Note_on_c, 13, 58, 0
15, 330900, Note_on_c, 13, 58, 92
15, 330951, Note_on_c, 13, 58, 0
15, 330960, Note_on_c, 13, 57, 92
15, 331011, Note_on_c, 13, 57, 0
15, 331020, Note_on_c, 13, 57, 92
15, 331071, Note_on_c, 13, 57, 0
15, 331080, Note_on_c, 13, 60, 92
15, 331131, Note_on_c, 13, 60, 0
15, 331140, Note_on_c, 13, 60, 92
15, 331191, Note_on_c, 13, 60, 0
15, 331200, Note_on_c, 13, 60, 92
15, 331200, Note_on_c, 13, 48, 92
15, 331319, Note_on_c, 13, 60, 0
15, 331319, Note_on_c, 13, 48, 0
15, 331440, Note_on_c, 13, 60, 92
15, 331440, Note_on_c, 13, 48, 92
15, 331559, Note_on_c, 13, 60, 0
15, 331559, Note_on_c, 13, 48, 0
15, 331680, Note_on_c, 13, 60, 92
15, 331680, Note_on_c, 13, 48, 92
15, 331799, Note_on_c, 13, 60, 0
15, 331799, Note_on_c, 13, 48, 0
15, 332640, Note_on_c, 13, 60, 92
15, 332640, Note_on_c, 13, 53, 92
15, 332759, Note_on_c, 13, 60, 0
15, 332759, Note_on_c, 13, 53, 0
15, 332880, Note_on_c, 13, 53, 92
15, 332880, Note_on_c, 13, 60, 92
15, 332999, Note_on_c, 13, 53, 0
15, 332999, Note_on_c, 13, 60, 0
15, 333120, Note_on_c, 13, 53, 92
15, 333120, Note_on_c, 13, 60, 92
15, 333239, Note_on_c, 13, 53, 0
15, 333239, Note_on_c, 13, 60, 0
15, 333840, Program_c, 13, 45
15, 334080, Note_on_c, 13, 48, 44
15, 334319, Note_on_c, 13, 48, 0
15, 334320, Note_on_c, 13, 48, 44
15, 334559, Note_on_c, 13, 48, 0
15, 334560, Note_on_c, 13, 48, 44
15, 334799, Note_on_c, 13, 48, 0
15, 335520, Note_on_c, 13, 48, 44
15, 335759, Note_on_c, 13, 48, 0
15, 335760, Note_on_c, 13, 48, 44
15, 335999, Note_on_c, 13, 48, 0
15, 336000, Note_on_c, 13, 48, 44
15, 336239, Note_on_c, 13, 48, 0
15, 336960, Note_on_c, 13, 48, 44
15, 336960, Control_c, 13, 11, 127
15, 337140, Control_c, 13, 11, 126
15, 337199, Note_on_c, 13, 48, 0
15, 337200, Note_on_c, 13, 48, 44
15, 337320, Control_c, 13, 11, 125
15, 337439, Note_on_c, 13, 48, 0
15, 337500, Control_c, 13, 11, 123
15, 337680, Control_c, 13, 11, 122
15, 337860, Control_c, 13, 11, 121
15, 338040, Control_c, 13, 11, 120
15, 338220, Control_c, 13, 11, 118
15, 338400, Note_on_c, 13, 48, 44
15, 338400, Control_c, 13, 11, 117
15, 338580, Control_c, 13, 11, 116
15, 338639, Note_on_c, 13, 48, 0
15, 338640, Note_on_c, 13, 48, 44
15, 338760, Control_c, 13, 11, 115
15, 338879, Note_on_c, 13, 48, 0
15, 338940, Control_c, 13, 11, 113
15, 341040, Control_c, 13, 11, 127
15, 341040, Program_c, 13, 48
15, 341280, Note_on_c, 13, 60, 44
15, 341519, Note_on_c, 13, 60, 0
15, 341520, Note_on_c, 13, 57, 44
15, 341639, Note_on_c, 13, 57, 0
15, 341640, Note_on_c, 13, 58, 44
15, 341744, Note_on_c, 13, 58, 0
15, 341760, Note_on_c, 13, 60, 44
15, 341849, Note_on_c, 13, 60, 0
15, 341880, Note_on_c, 13, 57, 44
15, 341969, Note_on_c, 13, 57, 0
15, 342000, Note_on_c, 13, 53, 44
15, 342239, Note_on_c, 13, 53, 0
15, 342239, End_track
16, 0, Start_track
16, 0, Title_t, "Cello"
16, 0, MIDI_port, 0
16, 0, Program_c, 14, 48
16, 0, Control_c, 14, 7, 96
16, 0, Control_c, 14, 10, 90
16, 0, Control_c, 14, 11, 127
16, 0, Note_on_c, 14, 41, 76
16, 719, Note_on_c, 14, 41, 0
16, 720, Note_on_c, 14, 41, 76
16, 1184, Note_on_c, 14, 41, 0
16, 1200, Note_on_c, 14, 41, 76
16, 1289, Note_on_c, 14, 41, 0
16, 1320, Note_on_c, 14, 41, 76
16, 1409, Note_on_c, 14, 41, 0
16, 1440, Note_on_c, 14, 43, 76
16, 1544, Note_on_c, 14, 43, 0
16, 1560, Note_on_c, 14, 43, 76
16, 1664, Note_on_c, 14, 43, 0
16, 1680, Note_on_c, 14, 43, 76
16, 1769, Note_on_c, 14, 43, 0
16, 1800, Note_on_c, 14, 41, 76
16, 1889, Note_on_c, 14, 41, 0
16, 1920, Note_on_c, 14, 40, 76
16, 2009, Note_on_c, 14, 40, 0
16, 2040, Note_on_c, 14, 38, 76
16, 2129, Note_on_c, 14, 38, 0
16, 2160, Note_on_c, 14, 36, 76
16, 2399, Note_on_c, 14, 36, 0
16, 5760, Note_on_c, 14, 48, 76
16, 6344, Note_on_c, 14, 48, 0
16, 6360, Note_on_c, 14, 50, 76
16, 6449, Note_on_c, 14, 50, 0
16, 6480, Note_on_c, 14, 51, 76
16, 6569, Note_on_c, 14, 51, 0
16, 6600, Note_on_c, 14, 52, 76
16, 6689, Note_on_c, 14, 52, 0
16, 6720, Note_on_c, 14, 53, 76
16, 6809, Note_on_c, 14, 53, 0
16, 6840, Note_on_c, 14, 55, 76
16, 6929, Note_on_c, 14, 55, 0
16, 6960, Note_on_c, 14, 57, 76
16, 7049, Note_on_c, 14, 57, 0
16, 7080, Note_on_c, 14, 58, 76
16, 7169, Note_on_c, 14, 58, 0
16, 7200, Note_on_c, 14, 60, 76
16, 7319, Note_on_c, 14, 60, 0
16, 7440, Note_on_c, 14, 48, 76
16, 7559, Note_on_c, 14, 48, 0
16, 7680, Note_on_c, 14, 48, 76
16, 7799, Note_on_c, 14, 48, 0
16, 7920, Note_on_c, 14, 53, 76
16, 8744, Note_on_c, 14, 53, 0
16, 8760, Note_on_c, 14, 53, 76
16, 8864, Note_on_c, 14, 53, 0
16, 8880, Note_on_c, 14, 53, 76
16, 8984, Note_on_c, 14, 53, 0
16, 9000, Note_on_c, 14, 53, 76
16, 9104, Note_on_c, 14, 53, 0
16, 9120, Note_on_c, 14, 53, 76
16, 9224, Note_on_c, 14, 53, 0
16, 9240, Note_on_c, 14, 53, 76
16, 9344, Note_on_c, 14, 53, 0
16, 9360, Note_on_c, 14, 50, 76
16, 10184, Note_on_c, 14, 50, 0
16, 10200, Note_on_c, 14, 50, 76
16, 10304, Note_on_c, 14, 50, 0
16, 10320, Note_on_c, 14, 50, 76
16, 10424, Note_on_c, 14, 50, 0
16, 10440, Note_on_c, 14, 50, 76
16, 10544, Note_on_c, 14, 50, 0
16, 10560, Note_on_c, 14, 50, 76
16, 10664, Note_on_c, 14, 50, 0
16, 10680, Note_on_c, 14, 50, 76
16, 10784, Note_on_c, 14, 50, 0
16, 10800, Note_on_c, 14, 46, 76
16, 11624, Note_on_c, 14, 46, 0
16, 11640, Note_on_c, 14, 46, 76
16, 11744, Note_on_c, 14, 46, 0
16, 11760, Note_on_c, 14, 46, 76
16, 11864, Note_on_c, 14, 46, 0
16, 11880, Note_on_c, 14, 46, 76
16, 11984, Note_on_c, 14, 46, 0
16, 12000, Note_on_c, 14, 46, 76
16, 12104, Note_on_c, 14, 46, 0
16, 12120, Note_on_c, 14, 46, 76
16, 12224, Note_on_c, 14, 46, 0
16, 12240, Note_on_c, 14, 48, 76
16, 12704, Note_on_c, 14, 48, 0
16, 12720, Note_on_c, 14, 48, 76
16, 12839, Note_on_c, 14, 48, 0
16, 12960, Note_on_c, 14, 48, 76
16, 13079, Note_on_c, 14, 48, 0
16, 13200, Note_on_c, 14, 48, 76
16, 13319, Note_on_c, 14, 48, 0
16, 13440, Note_on_c, 14, 48, 76
16, 13559, Note_on_c, 14, 48, 0
16, 13680, Note_on_c, 14, 53, 76
16, 14504, Note_on_c, 14, 53, 0
16, 14520, Note_on_c, 14, 53, 76
16, 14624, Note_on_c, 14, 53, 0
16, 14640, Note_on_c, 14, 53, 76
16, 14744, Note_on_c, 14, 53, 0
16, 14760, Note_on_c, 14, 53, 76
16, 14864, Note_on_c, 14, 53, 0
16, 14880, Note_on_c, 14, 53, 76
16, 14984, Note_on_c, 14, 53, 0
16, 15000, Note_on_c, 14, 53, 76
16, 15104, Note_on_c, 14, 53, 0
16, 15120, Note_on_c, 14, 50, 76
16, 15944, Note_on_c, 14, 50, 0
16, 15960, Note_on_c, 14, 50, 76
16, 16064, Note_on_c, 14, 50, 0
16, 16080, Note_on_c, 14, 50, 76
16, 16184, Note_on_c, 14, 50, 0
16, 16200, Note_on_c, 14, 50, 76
16, 16304, Note_on_c, 14, 50, 0
16, 16320, Note_on_c, 14, 50, 76
16, 16424, Note_on_c, 14, 50, 0
16, 16440, Note_on_c, 14, 50, 76
16, 16544, Note_on_c, 14, 50, 0
16, 16560, Note_on_c, 14, 41, 76
16, 17384, Note_on_c, 14, 41, 0
16, 17400, Note_on_c, 14, 41, 76
16, 17504, Note_on_c, 14, 41, 0
16, 17520, Note_on_c, 14, 41, 76
16, 17624, Note_on_c, 14, 41, 0
16, 17640, Note_on_c, 14, 41, 76
16, 17744, Note_on_c, 14, 41, 0
16, 17760, Note_on_c, 14, 41, 76
16, 17864, Note_on_c, 14, 41, 0
16, 17880, Note_on_c, 14, 41, 76
16, 17984, Note_on_c, 14, 41, 0
16, 18000, Note_on_c, 14, 41, 76
16, 18824, Note_on_c, 14, 41, 0
16, 18840, Note_on_c, 14, 41, 76
16, 18944, Note_on_c, 14, 41, 0
16, 18960, Note_on_c, 14, 41, 76
16, 19064, Note_on_c, 14, 41, 0
16, 19080, Note_on_c, 14, 41, 76
16, 19184, Note_on_c, 14, 41, 0
16, 19200, Note_on_c, 14, 41, 76
16, 19304, Note_on_c, 14, 41, 0
16, 19320, Note_on_c, 14, 41, 76
16, 19424, Note_on_c, 14, 41, 0
16, 19440, Note_on_c, 14, 41, 76
16, 19904, Note_on_c, 14, 41, 0
16, 19920, Note_on_c, 14, 41, 84
16, 20091, Note_on_c, 14, 41, 0
16, 20100, Note_on_c, 14, 41, 76
16, 20151, Note_on_c, 14, 41, 0
16, 20160, Note_on_c, 14, 41, 76
16, 20624, Note_on_c, 14, 41, 0
16, 20640, Note_on_c, 14, 41, 84
16, 20811, Note_on_c, 14, 41, 0
16, 20820, Note_on_c, 14, 41, 76
16, 20871, Note_on_c, 14, 41, 0
16, 20880, Note_on_c, 14, 41, 76
16, 20999, Note_on_c, 14, 41, 0
16, 21360, Note_on_c, 14, 41, 84
16, 21479, Note_on_c, 14, 41, 0
16, 21600, Note_on_c, 14, 41, 76
16, 21719, Note_on_c, 14, 41, 0
16, 22080, Note_on_c, 14, 41, 84
16, 22199, Note_on_c, 14, 41, 0
16, 22320, Note_on_c, 14, 41, 76
16, 22439, Note_on_c, 14, 41, 0
16, 25920, Program_c, 14, 45
16, 26400, Note_on_c, 14, 64, 44
16, 26639, Note_on_c, 14, 64, 0
16, 26640, Note_on_c, 14, 62, 44
16, 26879, Note_on_c, 14, 62, 0
16, 27360, Note_on_c, 14, 57, 44
16, 27599, Note_on_c, 14, 57, 0
16, 28080, Note_on_c, 14, 50, 44
16, 28319, Note_on_c, 14, 50, 0
16, 28800, Note_on_c, 14, 45, 44
16, 29039, Note_on_c, 14, 45, 0
16, 29280, Note_on_c, 14, 45, 44
16, 29519, Note_on_c, 14, 45, 0
16, 29520, Note_on_c, 14, 47, 44
16, 29759, Note_on_c, 14, 47, 0
16, 30000, Note_on_c, 14, 59, 44
16, 30239, Note_on_c, 14, 59, 0
16, 30240, Note_on_c, 14, 60, 44
16, 30479, Note_on_c, 14, 60, 0
16, 30720, Note_on_c, 14, 54, 44
16, 30959, Note_on_c, 14, 54, 0
16, 30960, Note_on_c, 14, 55, 44
16, 31199, Note_on_c, 14, 55, 0
16, 32400, Note_on_c, 14, 60, 44
16, 32639, Note_on_c, 14, 60, 0
16, 32640, Note_on_c, 14, 55, 44
16, 32879, Note_on_c, 14, 55, 0
16, 32880, Note_on_c, 14, 52, 44
16, 33119, Note_on_c, 14, 52, 0
16, 33120, Note_on_c, 14, 53, 44
16, 33359, Note_on_c, 14, 53, 0
16, 33360, Note_on_c, 14, 50, 44
16, 33599, Note_on_c, 14, 50, 0
16, 33600, Note_on_c, 14, 47, 44
16, 33839, Note_on_c, 14, 47, 0
16, 33840, Note_on_c, 14, 52, 44
16, 34079, Note_on_c, 14, 52, 0
16, 34080, Note_on_c, 14, 48, 44
16, 34319, Note_on_c, 14, 48, 0
16, 34320, Note_on_c, 14, 43, 44
16, 34559, Note_on_c, 14, 43, 0
16, 34560, Note_on_c, 14, 43, 44
16, 34799, Note_on_c, 14, 43, 0
16, 34800, Note_on_c, 14, 59, 44
16, 35039, Note_on_c, 14, 59, 0
16, 35040, Note_on_c, 14, 55, 44
16, 35279, Note_on_c, 14, 55, 0
16, 35280, Note_on_c, 14, 57, 44
16, 35519, Note_on_c, 14, 57, 0
16, 35520, Note_on_c, 14, 62, 44
16, 35759, Note_on_c, 14, 62, 0
16, 35760, Note_on_c, 14, 59, 44
16, 35999, Note_on_c, 14, 59, 0
16, 36000, Note_on_c, 14, 55, 44
16, 36239, Note_on_c, 14, 55, 0
16, 36240, Note_on_c, 14, 60, 44
16, 36479, Note_on_c, 14, 60, 0
16, 36480, Note_on_c, 14, 57, 44
16, 36704, Note_on_c, 14, 57, 0
16, 36718, Program_c, 14, 48
16, 36720, Note_on_c, 14, 42, 44
16, 36809, Note_on_c, 14, 42, 0
16, 36840, Note_on_c, 14, 45, 44
16, 36929, Note_on_c, 14, 45, 0
16, 36960, Note_on_c, 14, 48, 44
16, 37049, Note_on_c, 14, 48, 0
16, 37080, Note_on_c, 14, 51, 44
16, 37169, Note_on_c, 14, 51, 0
16, 37200, Note_on_c, 14, 54, 44
16, 37289, Note_on_c, 14, 54, 0
16, 37320, Note_on_c, 14, 57, 44
16, 37409, Note_on_c, 14, 57, 0
16, 37440, Note_on_c, 14, 60, 44
16, 37619, Note_on_c, 14, 60, 0
16, 38880, Note_on_c, 14, 48, 44
16, 39059, Note_on_c, 14, 48, 0
16, 39360, Note_on_c, 14, 45, 44
16, 39539, Note_on_c, 14, 45, 0
16, 39600, Note_on_c, 14, 42, 44
16, 39689, Note_on_c, 14, 42, 0
16, 39720, Note_on_c, 14, 45, 44
16, 39809, Note_on_c, 14, 45, 0
16, 39840, Note_on_c, 14, 48, 44
16, 39929, Note_on_c, 14, 48, 0
16, 39960, Note_on_c, 14, 51, 44
16, 40049, Note_on_c, 14, 51, 0
16, 40080, Note_on_c, 14, 54, 44
16, 40169, Note_on_c, 14, 54, 0
16, 40200, Note_on_c, 14, 57, 44
16, 40289, Note_on_c, 14, 57, 0
16, 40320, Note_on_c, 14, 60, 44
16, 40499, Note_on_c, 14, 60, 0
16, 41520, Control_c, 14, 11, 96
16, 41760, Control_c, 14, 11, 96
16, 41760, Note_on_c, 14, 60, 76
16, 41820, Control_c, 14, 11, 99
16, 41880, Control_c, 14, 11, 101
16, 41939, Note_on_c, 14, 60, 0
16, 41940, Control_c, 14, 11, 104
16, 42000, Control_c, 14, 11, 106
16, 42060, Control_c, 14, 11, 109
16, 42120, Control_c, 14, 11, 112
16, 42180, Control_c, 14, 11, 114
16, 42240, Control_c, 14, 11, 117
16, 42240, Note_on_c, 14, 57, 76
16, 42300, Control_c, 14, 11, 119
16, 42360, Control_c, 14, 11, 122
16, 42419, Note_on_c, 14, 57, 0
16, 42420, Control_c, 14, 11, 127
16, 42480, Note_on_c, 14, 56, 76
16, 42659, Note_on_c, 14, 56, 0
16, 43200, Note_on_c, 14, 62, 84
16, 43379, Note_on_c, 14, 62, 0
16, 43680, Note_on_c, 14, 59, 76
16, 43859, Note_on_c, 14, 59, 0
16, 43920, Note_on_c, 14, 55, 84
16, 44099, Note_on_c, 14, 55, 0
16, 44400, Note_on_c, 14, 58, 76
16, 44579, Note_on_c, 14, 58, 0
16, 44640, Note_on_c, 14, 53, 84
16, 44819, Note_on_c, 14, 53, 0
16, 45120, Note_on_c, 14, 56, 76
16, 45299, Note_on_c, 14, 56, 0
16, 45360, Note_on_c, 14, 51, 84
16, 45539, Note_on_c, 14, 51, 0
16, 45840, Note_on_c, 14, 60, 76
16, 46019, Note_on_c, 14, 60, 0
16, 46080, Note_on_c, 14, 50, 84
16, 46259, Note_on_c, 14, 50, 0
16, 46560, Note_on_c, 14, 59, 76
16, 46739, Note_on_c, 14, 59, 0
16, 46800, Note_on_c, 14, 50, 84
16, 46979, Note_on_c, 14, 50, 0
16, 47280, Note_on_c, 14, 53, 84
16, 47459, Note_on_c, 14, 53, 0
16, 47520, Note_on_c, 14, 52, 84
16, 47699, Note_on_c, 14, 52, 0
16, 48000, Note_on_c, 14, 57, 84
16, 48179, Note_on_c, 14, 57, 0
16, 48240, Note_on_c, 14, 53, 84
16, 48419, Note_on_c, 14, 53, 0
16, 48720, Note_on_c, 14, 50, 84
16, 48899, Note_on_c, 14, 50, 0
16, 48960, Note_on_c, 14, 55, 84
16, 49139, Note_on_c, 14, 55, 0
16, 49440, Note_on_c, 14, 43, 84
16, 49619, Note_on_c, 14, 43, 0
16, 49680, Note_on_c, 14, 48, 84
16, 49851, Note_on_c, 14, 48, 0
16, 49860, Note_on_c, 14, 48, 84
16, 49911, Note_on_c, 14, 48, 0
16, 49920, Note_on_c, 14, 41, 84
16, 50099, Note_on_c, 14, 41, 0
16, 50160, Note_on_c, 14, 41, 84
16, 50331, Note_on_c, 14, 41, 0
16, 50340, Note_on_c, 14, 41, 84
16, 50391, Note_on_c, 14, 41, 0
16, 50400, Note_on_c, 14, 48, 84
16, 50579, Note_on_c, 14, 48, 0
16, 50640, Note_on_c, 14, 41, 84
16, 50811, Note_on_c, 14, 41, 0
16, 50820, Note_on_c, 14, 41, 84
16, 50871, Note_on_c, 14, 41, 0
16, 50880, Note_on_c, 14, 48, 84
16, 51059, Note_on_c, 14, 48, 0
16, 51120, Note_on_c, 14, 41, 84
16, 51291, Note_on_c, 14, 41, 0
16, 51300, Note_on_c, 14, 41, 84
16, 51351, Note_on_c, 14, 41, 0
16, 51360, Note_on_c, 14, 48, 84
16, 51539, Note_on_c, 14, 48, 0
16, 56880, Note_on_c, 14, 48, 84
16, 57051, Note_on_c, 14, 48, 0
16, 57060, Note_on_c, 14, 48, 84
16, 57111, Note_on_c, 14, 48, 0
16, 57120, Note_on_c, 14, 41, 84
16, 57299, Note_on_c, 14, 41, 0
16, 57360, Note_on_c, 14, 41, 84
16, 57531, Note_on_c, 14, 41, 0
16, 57540, Note_on_c, 14, 41, 84
16, 57591, Note_on_c, 14, 41, 0
16, 57600, Note_on_c, 14, 48, 84
16, 57779, Note_on_c, 14, 48, 0
16, 57840, Note_on_c, 14, 41, 84
16, 58011, Note_on_c, 14, 41, 0
16, 58020, Note_on_c, 14, 41, 84
16, 58071, Note_on_c, 14, 41, 0
16, 58080, Note_on_c, 14, 48, 84
16, 58259, Note_on_c, 14, 48, 0
16, 58320, Note_on_c, 14, 41, 84
16, 58491, Note_on_c, 14, 41, 0
16, 58500, Note_on_c, 14, 41, 84
16, 58551, Note_on_c, 14, 41, 0
16, 58560, Note_on_c, 14, 48, 84
16, 58739, Note_on_c, 14, 48, 0
16, 58800, Note_on_c, 14, 67, 48
16, 59039, Note_on_c, 14, 67, 0
16, 59040, Note_on_c, 14, 66, 48
16, 59519, Note_on_c, 14, 66, 0
16, 59520, Note_on_c, 14, 67, 48
16, 59759, Note_on_c, 14, 67, 0
16, 59760, Note_on_c, 14, 65, 48
16, 60239, Note_on_c, 14, 65, 0
16, 60240, Note_on_c, 14, 64, 48
16, 60479, Note_on_c, 14, 64, 0
16, 60480, Note_on_c, 14, 62, 48
16, 60959, Note_on_c, 14, 62, 0
16, 60960, Note_on_c, 14, 60, 48
16, 61199, Note_on_c, 14, 60, 0
16, 61200, Note_on_c, 14, 59, 48
16, 61679, Note_on_c, 14, 59, 0
16, 61680, Note_on_c, 14, 60, 48
16, 61919, Note_on_c, 14, 60, 0
16, 61920, Note_on_c, 14, 62, 48
16, 62399, Note_on_c, 14, 62, 0
16, 62400, Note_on_c, 14, 64, 48
16, 62639, Note_on_c, 14, 64, 0
16, 62640, Note_on_c, 14, 65, 48
16, 63119, Note_on_c, 14, 65, 0
16, 63120, Note_on_c, 14, 62, 48
16, 63359, Note_on_c, 14, 62, 0
16, 63360, Note_on_c, 14, 67, 48
16, 63839, Note_on_c, 14, 67, 0
16, 63840, Note_on_c, 14, 55, 48
16, 64064, Note_on_c, 14, 55, 0
16, 64078, Control_c, 14, 11, 80
16, 64080, Note_on_c, 14, 60, 76
16, 64199, Note_on_c, 14, 60, 0
16, 64200, Note_on_c, 14, 59, 76
16, 64319, Note_on_c, 14, 59, 0
16, 64320, Note_on_c, 14, 60, 76
16, 64320, Control_c, 14, 11, 80
16, 64420, Control_c, 14, 11, 84
16, 64439, Note_on_c, 14, 60, 0
16, 64440, Note_on_c, 14, 59, 76
16, 64520, Control_c, 14, 11, 88
16, 64559, Note_on_c, 14, 59, 0
16, 64560, Note_on_c, 14, 57, 76
16, 64620, Control_c, 14, 11, 92
16, 64679, Note_on_c, 14, 57, 0
16, 64680, Note_on_c, 14, 55, 76
16, 64720, Control_c, 14, 11, 96
16, 64784, Note_on_c, 14, 55, 0
16, 64800, Note_on_c, 14, 55, 76
16, 64820, Control_c, 14, 11, 100
16, 64920, Control_c, 14, 11, 104
16, 65020, Control_c, 14, 11, 107
16, 65039, Note_on_c, 14, 55, 0
16, 65120, Control_c, 14, 11, 111
16, 65280, Control_c, 14, 11, 127
16, 65520, Note_on_c, 14, 48, 76
16, 65639, Note_on_c, 14, 48, 0
16, 65640, Note_on_c, 14, 47, 76
16, 65759, Note_on_c, 14, 47, 0
16, 65760, Note_on_c, 14, 48, 84
16, 65879, Note_on_c, 14, 48, 0
16, 65880, Note_on_c, 14, 47, 76
16, 65999, Note_on_c, 14, 47, 0
16, 66000, Note_on_c, 14, 45, 76
16, 66119, Note_on_c, 14, 45, 0
16, 66120, Note_on_c, 14, 43, 76
16, 66224, Note_on_c, 14, 43, 0
16, 66240, Note_on_c, 14, 43, 84
16, 66329, Note_on_c, 14, 43, 0
16, 66360, Note_on_c, 14, 50, 76
16, 66449, Note_on_c, 14, 50, 0
16, 66480, Note_on_c, 14, 55, 76
16, 66569, Note_on_c, 14, 55, 0
16, 66600, Note_on_c, 14, 55, 76
16, 66689, Note_on_c, 14, 55, 0
16, 66720, Note_on_c, 14, 57, 76
16, 66809, Note_on_c, 14, 57, 0
16, 66840, Note_on_c, 14, 59, 76
16, 66929, Note_on_c, 14, 59, 0
16, 66960, Note_on_c, 14, 60, 84
16, 67049, Note_on_c, 14, 60, 0
16, 67080, Note_on_c, 14, 48, 76
16, 67169, Note_on_c, 14, 48, 0
16, 67200, Note_on_c, 14, 52, 76
16, 67289, Note_on_c, 14, 52, 0
16, 67320, Note_on_c, 14, 55, 76
16, 67409, Note_on_c, 14, 55, 0
16, 67440, Note_on_c, 14, 60, 76
16, 67529, Note_on_c, 14, 60, 0
16, 67560, Note_on_c, 14, 64, 76
16, 67649, Note_on_c, 14, 64, 0
16, 67680, Note_on_c, 14, 43, 84
16, 67769, Note_on_c, 14, 43, 0
16, 67800, Note_on_c, 14, 50, 76
16, 67889, Note_on_c, 14, 50, 0
16, 67920, Note_on_c, 14, 55, 76
16, 68009, Note_on_c, 14, 55, 0
16, 68040, Note_on_c, 14, 55, 76
16, 68129, Note_on_c, 14, 55, 0
16, 68160, Note_on_c, 14, 57, 76
16, 68249, Note_on_c, 14, 57, 0
16, 68280, Note_on_c, 14, 59, 76
16, 68369, Note_on_c, 14, 59, 0
16, 68400, Note_on_c, 14, 60, 84
16, 68504, Note_on_c, 14, 60, 0
16, 68520, Note_on_c, 14, 67, 84
16, 68624, Note_on_c, 14, 67, 0
16, 68640, Note_on_c, 14, 64, 84
16, 68744, Note_on_c, 14, 64, 0
16, 68760, Note_on_c, 14, 60, 84
16, 68864, Note_on_c, 14, 60, 0
16, 68880, Note_on_c, 14, 55, 84
16, 68984, Note_on_c, 14, 55, 0
16, 69000, Note_on_c, 14, 64, 84
16, 69104, Note_on_c, 14, 64, 0
16, 69120, Note_on_c, 14, 60, 84
16, 69224, Note_on_c, 14, 60, 0
16, 69240, Note_on_c, 14, 55, 84
16, 69344, Note_on_c, 14, 55, 0
16, 69360, Note_on_c, 14, 52, 84
16, 69464, Note_on_c, 14, 52, 0
16, 69480, Note_on_c, 14, 60, 84
16, 69584, Note_on_c, 14, 60, 0
16, 69600, Note_on_c, 14, 55, 84
16, 69704, Note_on_c, 14, 55, 0
16, 69720, Note_on_c, 14, 52, 84
16, 69824, Note_on_c, 14, 52, 0
16, 69840, Note_on_c, 14, 48, 84
16, 69944, Note_on_c, 14, 48, 0
16, 69960, Note_on_c, 14, 55, 84
16, 70064, Note_on_c, 14, 55, 0
16, 70080, Note_on_c, 14, 52, 84
16, 70184, Note_on_c, 14, 52, 0
16, 70200, Note_on_c, 14, 48, 84
16, 70304, Note_on_c, 14, 48, 0
16, 70320, Note_on_c, 14, 43, 84
16, 70424, Note_on_c, 14, 43, 0
16, 70440, Note_on_c, 14, 52, 84
16, 70544, Note_on_c, 14, 52, 0
16, 70560, Note_on_c, 14, 48, 84
16, 70664, Note_on_c, 14, 48, 0
16, 70680, Note_on_c, 14, 43, 84
16, 70784, Note_on_c, 14, 43, 0
16, 70800, Note_on_c, 14, 40, 84
16, 70904, Note_on_c, 14, 40, 0
16, 70920, Note_on_c, 14, 48, 84
16, 71024, Note_on_c, 14, 48, 0
16, 71040, Note_on_c, 14, 43, 84
16, 71144, Note_on_c, 14, 43, 0
16, 71160, Note_on_c, 14, 40, 84
16, 71264, Note_on_c, 14, 40, 0
16, 71280, Note_on_c, 14, 36, 92
16, 71339, Note_on_c, 14, 36, 0
16, 71340, Note_on_c, 14, 36, 84
16, 71519, Note_on_c, 14, 36, 0
16, 71640, Note_on_c, 14, 48, 84
16, 71729, Note_on_c, 14, 48, 0
16, 71760, Note_on_c, 14, 36, 84
16, 71849, Note_on_c, 14, 36, 0
16, 71880, Note_on_c, 14, 48, 84
16, 71969, Note_on_c, 14, 48, 0
16, 72000, Note_on_c, 14, 36, 92
16, 72059, Note_on_c, 14, 36, 0
16, 72060, Note_on_c, 14, 36, 84
16, 72239, Note_on_c, 14, 36, 0
16, 72360, Note_on_c, 14, 48, 84
16, 72449, Note_on_c, 14, 48, 0
16, 72480, Note_on_c, 14, 36, 84
16, 72569, Note_on_c, 14, 36, 0
16, 72600, Note_on_c, 14, 48, 84
16, 72689, Note_on_c, 14, 48, 0
16, 72720, Note_on_c, 14, 36, 92
16, 72779, Note_on_c, 14, 36, 0
16, 72780, Note_on_c, 14, 36, 84
16, 72959, Note_on_c, 14, 36, 0
16, 73080, Note_on_c, 14, 48, 84
16, 73169, Note_on_c, 14, 48, 0
16, 73200, Note_on_c, 14, 36, 84
16, 73289, Note_on_c, 14, 36, 0
16, 73320, Note_on_c, 14, 48, 84
16, 73409, Note_on_c, 14, 48, 0
16, 73440, Note_on_c, 14, 36, 92
16, 73499, Note_on_c, 14, 36, 0
16, 73500, Note_on_c, 14, 36, 84
16, 73679, Note_on_c, 14, 36, 0
16, 73800, Note_on_c, 14, 48, 84
16, 73889, Note_on_c, 14, 48, 0
16, 73920, Note_on_c, 14, 36, 84
16, 74009, Note_on_c, 14, 36, 0
16, 74040, Note_on_c, 14, 48, 84
16, 74129, Note_on_c, 14, 48, 0
16, 74160, Note_on_c, 14, 41, 76
16, 74879, Note_on_c, 14, 41, 0
16, 74880, Note_on_c, 14, 41, 76
16, 75344, Note_on_c, 14, 41, 0
16, 75360, Note_on_c, 14, 41, 76
16, 75449, Note_on_c, 14, 41, 0
16, 75480, Note_on_c, 14, 41, 76
16, 75569, Note_on_c, 14, 41, 0
16, 75600, Note_on_c, 14, 43, 76
16, 75704, Note_on_c, 14, 43, 0
16, 75720, Note_on_c, 14, 43, 76
16, 75824, Note_on_c, 14, 43, 0
16, 75840, Note_on_c, 14, 43, 76
16, 75929, Note_on_c, 14, 43, 0
16, 75960, Note_on_c, 14, 41, 76
16, 76049, Note_on_c, 14, 41, 0
16, 76080, Note_on_c, 14, 40, 76
16, 76169, Note_on_c, 14, 40, 0
16, 76200, Note_on_c, 14, 38, 76
16, 76289, Note_on_c, 14, 38, 0
16, 76320, Note_on_c, 14, 36, 76
16, 76559, Note_on_c, 14, 36, 0
16, 79920, Note_on_c, 14, 48, 76
16, 80504, Note_on_c, 14, 48, 0
16, 80520, Note_on_c, 14, 50, 76
16, 80609, Note_on_c, 14, 50, 0
16, 80640, Note_on_c, 14, 51, 76
16, 80729, Note_on_c, 14, 51, 0
16, 80760, Note_on_c, 14, 52, 76
16, 80849, Note_on_c, 14, 52, 0
16, 80880, Note_on_c, 14, 53, 76
16, 80969, Note_on_c, 14, 53, 0
16, 81000, Note_on_c, 14, 55, 76
16, 81089, Note_on_c, 14, 55, 0
16, 81120, Note_on_c, 14, 57, 76
16, 81209, Note_on_c, 14, 57, 0
16, 81240, Note_on_c, 14, 58, 76
16, 81329, Note_on_c, 14, 58, 0
16, 81360, Note_on_c, 14, 60, 76
16, 81479, Note_on_c, 14, 60, 0
16, 81600, Note_on_c, 14, 48, 76
16, 81719, Note_on_c, 14, 48, 0
16, 81840, Note_on_c, 14, 48, 76
16, 81959, Note_on_c, 14, 48, 0
16, 82080, Note_on_c, 14, 53, 76
16, 82904, Note_on_c, 14, 53, 0
16, 82920, Note_on_c, 14, 53, 76
16, 83024, Note_on_c, 14, 53, 0
16, 83040, Note_on_c, 14, 53, 76
16, 83144, Note_on_c, 14, 53, 0
16, 83160, Note_on_c, 14, 53, 76
16, 83264, Note_on_c, 14, 53, 0
16, 83280, Note_on_c, 14, 53, 76
16, 83384, Note_on_c, 14, 53, 0
16, 83400, Note_on_c, 14, 53, 76
16, 83504, Note_on_c, 14, 53, 0
16, 83520, Note_on_c, 14, 50, 76
16, 84344, Note_on_c, 14, 50, 0
16, 84360, Note_on_c, 14, 50, 76
16, 84464, Note_on_c, 14, 50, 0
16, 84480, Note_on_c, 14, 50, 76
16, 84584, Note_on_c, 14, 50, 0
16, 84600, Note_on_c, 14, 50, 76
16, 84704, Note_on_c, 14, 50, 0
16, 84720, Note_on_c, 14, 50, 76
16, 84824, Note_on_c, 14, 50, 0
16, 84840, Note_on_c, 14, 50, 76
16, 84944, Note_on_c, 14, 50, 0
16, 84960, Note_on_c, 14, 46, 76
16, 85784, Note_on_c, 14, 46, 0
16, 85800, Note_on_c, 14, 46, 76
16, 85904, Note_on_c, 14, 46, 0
16, 85920, Note_on_c, 14, 46, 76
16, 86024, Note_on_c, 14, 46, 0
16, 86040, Note_on_c, 14, 46, 76
16, 86144, Note_on_c, 14, 46, 0
16, 86160, Note_on_c, 14, 46, 76
16, 86264, Note_on_c, 14, 46, 0
16, 86280, Note_on_c, 14, 46, 76
16, 86384, Note_on_c, 14, 46, 0
16, 86400, Note_on_c, 14, 48, 76
16, 86864, Note_on_c, 14, 48, 0
16, 86880, Note_on_c, 14, 48, 76
16, 86999, Note_on_c, 14, 48, 0
16, 87120, Note_on_c, 14, 48, 76
16, 87239, Note_on_c, 14, 48, 0
16, 87360, Note_on_c, 14, 48, 76
16, 87479, Note_on_c, 14, 48, 0
16, 87600, Note_on_c, 14, 48, 76
16, 87719, Note_on_c, 14, 48, 0
16, 87840, Note_on_c, 14, 53, 76
16, 88664, Note_on_c, 14, 53, 0
16, 88680, Note_on_c, 14, 53, 76
16, 88784, Note_on_c, 14, 53, 0
16, 88800, Note_on_c, 14, 53, 76
16, 88904, Note_on_c, 14, 53, 0
16, 88920, Note_on_c, 14, 53, 76
16, 89024, Note_on_c, 14, 53, 0
16, 89040, Note_on_c, 14, 53, 76
16, 89144, Note_on_c, 14, 53, 0
16, 89160, Note_on_c, 14, 53, 76
16, 89264, Note_on_c, 14, 53, 0
16, 89280, Note_on_c, 14, 50, 76
16, 90104, Note_on_c, 14, 50, 0
16, 90120, Note_on_c, 14, 50, 76
16, 90224, Note_on_c, 14, 50, 0
16, 90240, Note_on_c, 14, 50, 76
16, 90344, Note_on_c, 14, 50, 0
16, 90360, Note_on_c, 14, 50, 76
16, 90464, Note_on_c, 14, 50, 0
16, 90480, Note_on_c, 14, 50, 76
16, 90584, Note_on_c, 14, 50, 0
16, 90600, Note_on_c, 14, 50, 76
16, 90704, Note_on_c, 14, 50, 0
16, 90720, Note_on_c, 14, 41, 76
16, 91544, Note_on_c, 14, 41, 0
16, 91560, Note_on_c, 14, 41, 76
16, 91664, Note_on_c, 14, 41, 0
16, 91680, Note_on_c, 14, 41, 76
16, 91784, Note_on_c, 14, 41, 0
16, 91800, Note_on_c, 14, 41, 76
16, 91904, Note_on_c, 14, 41, 0
16, 91920, Note_on_c, 14, 41, 76
16, 92024, Note_on_c, 14, 41, 0
16, 92040, Note_on_c, 14, 41, 76
16, 92144, Note_on_c, 14, 41, 0
16, 92160, Note_on_c, 14, 41, 76
16, 92984, Note_on_c, 14, 41, 0
16, 93000, Note_on_c, 14, 41, 76
16, 93104, Note_on_c, 14, 41, 0
16, 93120, Note_on_c, 14, 41, 76
16, 93224, Note_on_c, 14, 41, 0
16, 93240, Note_on_c, 14, 41, 76
16, 93344, Note_on_c, 14, 41, 0
16, 93360, Note_on_c, 14, 41, 76
16, 93464, Note_on_c, 14, 41, 0
16, 93480, Note_on_c, 14, 41, 76
16, 93584, Note_on_c, 14, 41, 0
16, 93600, Note_on_c, 14, 41, 76
16, 94064, Note_on_c, 14, 41, 0
16, 94080, Note_on_c, 14, 41, 84
16, 94251, Note_on_c, 14, 41, 0
16, 94260, Note_on_c, 14, 41, 76
16, 94311, Note_on_c, 14, 41, 0
16, 94320, Note_on_c, 14, 41, 76
16, 94784, Note_on_c, 14, 41, 0
16, 94800, Note_on_c, 14, 41, 84
16, 94971, Note_on_c, 14, 41, 0
16, 94980, Note_on_c, 14, 41, 76
16, 95031, Note_on_c, 14, 41, 0
16, 95040, Note_on_c, 14, 41, 76
16, 95159, Note_on_c, 14, 41, 0
16, 95520, Note_on_c, 14, 41, 84
16, 95639, Note_on_c, 14, 41, 0
16, 95760, Note_on_c, 14, 41, 76
16, 95879, Note_on_c, 14, 41, 0
16, 96240, Note_on_c, 14, 41, 84
16, 96359, Note_on_c, 14, 41, 0
16, 96480, Note_on_c, 14, 41, 76
16, 96599, Note_on_c, 14, 41, 0
16, 100080, Program_c, 14, 45
16, 100560, Note_on_c, 14, 64, 44
16, 100799, Note_on_c, 14, 64, 0
16, 100800, Note_on_c, 14, 62, 44
16, 101039, Note_on_c, 14, 62, 0
16, 101520, Note_on_c, 14, 57, 44
16, 101759, Note_on_c, 14, 57, 0
16, 102240, Note_on_c, 14, 50, 44
16, 102479, Note_on_c, 14, 50, 0
16, 102960, Note_on_c, 14, 45, 44
16, 103199, Note_on_c, 14, 45, 0
16, 103440, Note_on_c, 14, 45, 44
16, 103679, Note_on_c, 14, 45, 0
16, 103680, Note_on_c, 14, 47, 44
16, 103919, Note_on_c, 14, 47, 0
16, 104160, Note_on_c, 14, 59, 44
16, 104399, Note_on_c, 14, 59, 0
16, 104400, Note_on_c, 14, 60, 44
16, 104639, Note_on_c, 14, 60, 0
16, 104880, Note_on_c, 14, 54, 44
16, 105119, Note_on_c, 14, 54, 0
16, 105120, Note_on_c, 14, 55, 44
16, 105359, Note_on_c, 14, 55, 0
16, 106560, Note_on_c, 14, 60, 44
16, 106799, Note_on_c, 14, 60, 0
16, 106800, Note_on_c, 14, 55, 44
16, 107039, Note_on_c, 14, 55, 0
16, 107040, Note_on_c, 14, 52, 44
16, 107279, Note_on_c, 14, 52, 0
16, 107280, Note_on_c, 14, 53, 44
16, 107519, Note_on_c, 14, 53, 0
16, 107520, Note_on_c, 14, 50, 44
16, 107759, Note_on_c, 14, 50, 0
16, 107760, Note_on_c, 14, 47, 44
16, 107999, Note_on_c, 14, 47, 0
16, 108000, Note_on_c, 14, 52, 44
16, 108239, Note_on_c, 14, 52, 0
16, 108240, Note_on_c, 14, 48, 44
16, 108479, Note_on_c, 14, 48, 0
16, 108480, Note_on_c, 14, 43, 44
16, 108719, Note_on_c, 14, 43, 0
16, 108720, Note_on_c, 14, 43, 44
16, 108959, Note_on_c, 14, 43, 0
16, 108960, Note_on_c, 14, 59, 44
16, 109199, Note_on_c, 14, 59, 0
16, 109200, Note_on_c, 14, 55, 44
16, 109439, Note_on_c, 14, 55, 0
16, 109440, Note_on_c, 14, 57, 44
16, 109679, Note_on_c, 14, 57, 0
16, 109680, Note_on_c, 14, 62, 44
16, 109919, Note_on_c, 14, 62, 0
16, 109920, Note_on_c, 14, 59, 44
16, 110159, Note_on_c, 14, 59, 0
16, 110160, Note_on_c, 14, 55, 44
16, 110399, Note_on_c, 14, 55, 0
16, 110400, Note_on_c, 14, 60, 44
16, 110639, Note_on_c, 14, 60, 0
16, 110640, Note_on_c, 14, 57, 44
16, 110864, Note_on_c, 14, 57, 0
16, 110878, Program_c, 14, 48
16, 110880, Note_on_c, 14, 42, 44
16, 110969, Note_on_c, 14, 42, 0
16, 111000, Note_on_c, 14, 45, 44
16, 111089, Note_on_c, 14, 45, 0
16, 111120, Note_on_c, 14, 48, 44
16, 111209, Note_on_c, 14, 48, 0
16, 111240, Note_on_c, 14, 51, 44
16, 111329, Note_on_c, 14, 51, 0
16, 111360, Note_on_c, 14, 54, 44
16, 111449, Note_on_c, 14, 54, 0
16, 111480, Note_on_c, 14, 57, 44
16, 111569, Note_on_c, 14, 57, 0
16, 111600, Note_on_c, 14, 60, 44
16, 111779, Note_on_c, 14, 60, 0
16, 113040, Note_on_c, 14, 48, 44
16, 113219, Note_on_c, 14, 48, 0
16, 113520, Note_on_c, 14, 45, 44
16, 113699, Note_on_c, 14, 45, 0
16, 113760, Note_on_c, 14, 42, 44
16, 113849, Note_on_c, 14, 42, 0
16, 113880, Note_on_c, 14, 45, 44
16, 113969, Note_on_c, 14, 45, 0
16, 114000, Note_on_c, 14, 48, 44
16, 114089, Note_on_c, 14, 48, 0
16, 114120, Note_on_c, 14, 51, 44
16, 114209, Note_on_c, 14, 51, 0
16, 114240, Note_on_c, 14, 54, 44
16, 114329, Note_on_c, 14, 54, 0
16, 114360, Note_on_c, 14, 57, 44
16, 114449, Note_on_c, 14, 57, 0
16, 114480, Note_on_c, 14, 60, 44
16, 114659, Note_on_c, 14, 60, 0
16, 115680, Control_c, 14, 11, 96
16, 115920, Note_on_c, 14, 60, 76
16, 115920, Control_c, 14, 11, 96
16, 115980, Control_c, 14, 11, 99
16, 116040, Control_c, 14, 11, 101
16, 116099, Note_on_c, 14, 60, 0
16, 116100, Control_c, 14, 11, 104
16, 116160, Control_c, 14, 11, 106
16, 116220, Control_c, 14, 11, 109
16, 116280, Control_c, 14, 11, 112
16, 116340, Control_c, 14, 11, 114
16, 116400, Control_c, 14, 11, 117
16, 116400, Note_on_c, 14, 57, 76
16, 116460, Control_c, 14, 11, 119
16, 116520, Control_c, 14, 11, 122
16, 116579, Note_on_c, 14, 57, 0
16, 116580, Control_c, 14, 11, 127
16, 116640, Note_on_c, 14, 56, 76
16, 116819, Note_on_c, 14, 56, 0
16, 117360, Note_on_c, 14, 62, 84
16, 117539, Note_on_c, 14, 62, 0
16, 117840, Note_on_c, 14, 59, 76
16, 118019, Note_on_c, 14, 59, 0
16, 118080, Note_on_c, 14, 55, 84
16, 118259, Note_on_c, 14, 55, 0
16, 118560, Note_on_c, 14, 58, 76
16, 118739, Note_on_c, 14, 58, 0
16, 118800, Note_on_c, 14, 53, 84
16, 118979, Note_on_c, 14, 53, 0
16, 119280, Note_on_c, 14, 56, 76
16, 119459, Note_on_c, 14, 56, 0
16, 119520, Note_on_c, 14, 51, 84
16, 119699, Note_on_c, 14, 51, 0
16, 120000, Note_on_c, 14, 60, 76
16, 120179, Note_on_c, 14, 60, 0
16, 120240, Note_on_c, 14, 50, 84
16, 120419, Note_on_c, 14, 50, 0
16, 120720, Note_on_c, 14, 59, 76
16, 120899, Note_on_c, 14, 59, 0
16, 120960, Note_on_c, 14, 50, 84
16, 121139, Note_on_c, 14, 50, 0
16, 121440, Note_on_c, 14, 53, 84
16, 121619, Note_on_c, 14, 53, 0
16, 121680, Note_on_c, 14, 52, 84
16, 121859, Note_on_c, 14, 52, 0
16, 122160, Note_on_c, 14, 57, 84
16, 122339, Note_on_c, 14, 57, 0
16, 122400, Note_on_c, 14, 53, 84
16, 122579, Note_on_c, 14, 53, 0
16, 122880, Note_on_c, 14, 50, 84
16, 123059, Note_on_c, 14, 50, 0
16, 123120, Note_on_c, 14, 55, 84
16, 123299, Note_on_c, 14, 55, 0
16, 123600, Note_on_c, 14, 43, 84
16, 123779, Note_on_c, 14, 43, 0
16, 123840, Note_on_c, 14, 48, 84
16, 124011, Note_on_c, 14, 48, 0
16, 124020, Note_on_c, 14, 48, 84
16, 124071, Note_on_c, 14, 48, 0
16, 124080, Note_on_c, 14, 41, 84
16, 124259, Note_on_c, 14, 41, 0
16, 124320, Note_on_c, 14, 41, 84
16, 124491, Note_on_c, 14, 41, 0
16, 124500, Note_on_c, 14, 41, 84
16, 124551, Note_on_c, 14, 41, 0
16, 124560, Note_on_c, 14, 48, 84
16, 124739, Note_on_c, 14, 48, 0
16, 124800, Note_on_c, 14, 41, 84
16, 124971, Note_on_c, 14, 41, 0
16, 124980, Note_on_c, 14, 41, 84
16, 125031, Note_on_c, 14, 41, 0
16, 125040, Note_on_c, 14, 48, 84
16, 125219, Note_on_c, 14, 48, 0
16, 125280, Note_on_c, 14, 41, 84
16, 125451, Note_on_c, 14, 41, 0
16, 125460, Note_on_c, 14, 41, 84
16, 125511, Note_on_c, 14, 41, 0
16, 125520, Note_on_c, 14, 48, 84
16, 125699, Note_on_c, 14, 48, 0
16, 131040, Note_on_c, 14, 48, 84
16, 131211, Note_on_c, 14, 48, 0
16, 131220, Note_on_c, 14, 48, 84
16, 131271, Note_on_c, 14, 48, 0
16, 131280, Note_on_c, 14, 41, 84
16, 131459, Note_on_c, 14, 41, 0
16, 131520, Note_on_c, 14, 41, 84
16, 131691, Note_on_c, 14, 41, 0
16, 131700, Note_on_c, 14, 41, 84
16, 131751, Note_on_c, 14, 41, 0
16, 131760, Note_on_c, 14, 48, 84
16, 131939, Note_on_c, 14, 48, 0
16, 132000, Note_on_c, 14, 41, 84
16, 132171, Note_on_c, 14, 41, 0
16, 132180, Note_on_c, 14, 41, 84
16, 132231, Note_on_c, 14, 41, 0
16, 132240, Note_on_c, 14, 48, 84
16, 132419, Note_on_c, 14, 48, 0
16, 132480, Note_on_c, 14, 41, 84
16, 132651, Note_on_c, 14, 41, 0
16, 132660, Note_on_c, 14, 41, 84
16, 132711, Note_on_c, 14, 41, 0
16, 132720, Note_on_c, 14, 48, 84
16, 132899, Note_on_c, 14, 48, 0
16, 132960, Note_on_c, 14, 67, 48
16, 133199, Note_on_c, 14, 67, 0
16, 133200, Note_on_c, 14, 66, 48
16, 133679, Note_on_c, 14, 66, 0
16, 133680, Note_on_c, 14, 67, 48
16, 133919, Note_on_c, 14, 67, 0
16, 133920, Note_on_c, 14, 65, 48
16, 134399, Note_on_c, 14, 65, 0
16, 134400, Note_on_c, 14, 64, 48
16, 134639, Note_on_c, 14, 64, 0
16, 134640, Note_on_c, 14, 62, 48
16, 135119, Note_on_c, 14, 62, 0
16, 135120, Note_on_c, 14, 60, 48
16, 135359, Note_on_c, 14, 60, 0
16, 135360, Note_on_c, 14, 59, 48
16, 135839, Note_on_c, 14, 59, 0
16, 135840, Note_on_c, 14, 60, 48
16, 136079, Note_on_c, 14, 60, 0
16, 136080, Note_on_c, 14, 62, 48
16, 136559, Note_on_c, 14, 62, 0
16, 136560, Note_on_c, 14, 64, 48
16, 136799, Note_on_c, 14, 64, 0
16, 136800, Note_on_c, 14, 65, 48
16, 137279, Note_on_c, 14, 65, 0
16, 137280, Note_on_c, 14, 62, 48
16, 137519, Note_on_c, 14, 62, 0
16, 137520, Note_on_c, 14, 67, 48
16, 137999, Note_on_c, 14, 67, 0
16, 138000, Note_on_c, 14, 55, 48
16, 138224, Note_on_c, 14, 55, 0
16, 138238, Control_c, 14, 11, 80
16, 138240, Note_on_c, 14, 60, 76
16, 138359, Note_on_c, 14, 60, 0
16, 138360, Note_on_c, 14, 59, 76
16, 138479, Note_on_c, 14, 59, 0
16, 138480, Control_c, 14, 11, 80
16, 138480, Note_on_c, 14, 60, 76
16, 138580, Control_c, 14, 11, 84
16, 138599, Note_on_c, 14, 60, 0
16, 138600, Note_on_c, 14, 59, 76
16, 138680, Control_c, 14, 11, 88
16, 138719, Note_on_c, 14, 59, 0
16, 138720, Note_on_c, 14, 57, 76
16, 138780, Control_c, 14, 11, 92
16, 138839, Note_on_c, 14, 57, 0
16, 138840, Note_on_c, 14, 55, 76
16, 138880, Control_c, 14, 11, 96
16, 138944, Note_on_c, 14, 55, 0
16, 138960, Note_on_c, 14, 55, 76
16, 138980, Control_c, 14, 11, 100
16, 139080, Control_c, 14, 11, 104
16, 139180, Control_c, 14, 11, 107
16, 139199, Note_on_c, 14, 55, 0
16, 139280, Control_c, 14, 11, 111
16, 139440, Control_c, 14, 11, 127
16, 139680, Note_on_c, 14, 48, 76
16, 139799, Note_on_c, 14, 48, 0
16, 139800, Note_on_c, 14, 47, 76
16, 139919, Note_on_c, 14, 47, 0
16, 139920, Note_on_c, 14, 48, 84
16, 140039, Note_on_c, 14, 48, 0
16, 140040, Note_on_c, 14, 47, 76
16, 140159, Note_on_c, 14, 47, 0
16, 140160, Note_on_c, 14, 45, 76
16, 140279, Note_on_c, 14, 45, 0
16, 140280, Note_on_c, 14, 43, 76
16, 140384, Note_on_c, 14, 43, 0
16, 140400, Note_on_c, 14, 43, 84
16, 140489, Note_on_c, 14, 43, 0
16, 140520, Note_on_c, 14, 50, 76
16, 140609, Note_on_c, 14, 50, 0
16, 140640, Note_on_c, 14, 55, 76
16, 140729, Note_on_c, 14, 55, 0
16, 140760, Note_on_c, 14, 55, 76
16, 140849, Note_on_c, 14, 55, 0
16, 140880, Note_on_c, 14, 57, 76
16, 140969, Note_on_c, 14, 57, 0
16, 141000, Note_on_c, 14, 59, 76
16, 141089, Note_on_c, 14, 59, 0
16, 141120, Note_on_c, 14, 60, 84
16, 141209, Note_on_c, 14, 60, 0
16, 141240, Note_on_c, 14, 48, 76
16, 141329, Note_on_c, 14, 48, 0
16, 141360, Note_on_c, 14, 52, 76
16, 141449, Note_on_c, 14, 52, 0
16, 141480, Note_on_c, 14, 55, 76
16, 141569, Note_on_c, 14, 55, 0
16, 141600, Note_on_c, 14, 60, 76
16, 141689, Note_on_c, 14, 60, 0
16, 141720, Note_on_c, 14, 64, 76
16, 141809, Note_on_c, 14, 64, 0
16, 141840, Note_on_c, 14, 43, 84
16, 141929, Note_on_c, 14, 43, 0
16, 141960, Note_on_c, 14, 50, 76
16, 142049, Note_on_c, 14, 50, 0
16, 142080, Note_on_c, 14, 55, 76
16, 142169, Note_on_c, 14, 55, 0
16, 142200, Note_on_c, 14, 55, 76
16, 142289, Note_on_c, 14, 55, 0
16, 142320, Note_on_c, 14, 57, 76
16, 142409, Note_on_c, 14, 57, 0
16, 142440, Note_on_c, 14, 59, 76
16, 142529, Note_on_c, 14, 59, 0
16, 142560, Note_on_c, 14, 60, 84
16, 142664, Note_on_c, 14, 60, 0
16, 142680, Note_on_c, 14, 67, 84
16, 142784, Note_on_c, 14, 67, 0
16, 142800, Note_on_c, 14, 64, 84
16, 142904, Note_on_c, 14, 64, 0
16, 142920, Note_on_c, 14, 60, 84
16, 143024, Note_on_c, 14, 60, 0
16, 143040, Note_on_c, 14, 55, 84
16, 143144, Note_on_c, 14, 55, 0
16, 143160, Note_on_c, 14, 64, 84
16, 143264, Note_on_c, 14, 64, 0
16, 143280, Note_on_c, 14, 60, 84
16, 143384, Note_on_c, 14, 60, 0
16, 143400, Note_on_c, 14, 55, 84
16, 143504, Note_on_c, 14, 55, 0
16, 143520, Note_on_c, 14, 52, 84
16, 143624, Note_on_c, 14, 52, 0
16, 143640, Note_on_c, 14, 60, 84
16, 143744, Note_on_c, 14, 60, 0
16, 143760, Note_on_c, 14, 55, 84
16, 143864, Note_on_c, 14, 55, 0
16, 143880, Note_on_c, 14, 52, 84
16, 143984, Note_on_c, 14, 52, 0
16, 144000, Note_on_c, 14, 48, 84
16, 144104, Note_on_c, 14, 48, 0
16, 144120, Note_on_c, 14, 55, 84
16, 144224, Note_on_c, 14, 55, 0
16, 144240, Note_on_c, 14, 52, 84
16, 144344, Note_on_c, 14, 52, 0
16, 144360, Note_on_c, 14, 48, 84
16, 144464, Note_on_c, 14, 48, 0
16, 144480, Note_on_c, 14, 43, 84
16, 144584, Note_on_c, 14, 43, 0
16, 144600, Note_on_c, 14, 52, 84
16, 144704, Note_on_c, 14, 52, 0
16, 144720, Note_on_c, 14, 48, 84
16, 144824, Note_on_c, 14, 48, 0
16, 144840, Note_on_c, 14, 43, 84
16, 144944, Note_on_c, 14, 43, 0
16, 144960, Note_on_c, 14, 40, 84
16, 145064, Note_on_c, 14, 40, 0
16, 145080, Note_on_c, 14, 48, 84
16, 145184, Note_on_c, 14, 48, 0
16, 145200, Note_on_c, 14, 43, 84
16, 145304, Note_on_c, 14, 43, 0
16, 145320, Note_on_c, 14, 40, 84
16, 145424, Note_on_c, 14, 40, 0
16, 145440, Note_on_c, 14, 36, 92
16, 145499, Note_on_c, 14, 36, 0
16, 145500, Note_on_c, 14, 36, 84
16, 145679, Note_on_c, 14, 36, 0
16, 145800, Note_on_c, 14, 48, 84
16, 145889, Note_on_c, 14, 48, 0
16, 145920, Note_on_c, 14, 36, 84
16, 146009, Note_on_c, 14, 36, 0
16, 146040, Note_on_c, 14, 48, 84
16, 146129, Note_on_c, 14, 48, 0
16, 146160, Note_on_c, 14, 36, 92
16, 146219, Note_on_c, 14, 36, 0
16, 146220, Note_on_c, 14, 36, 84
16, 146399, Note_on_c, 14, 36, 0
16, 146520, Note_on_c, 14, 48, 84
16, 146609, Note_on_c, 14, 48, 0
16, 146640, Note_on_c, 14, 36, 84
16, 146729, Note_on_c, 14, 36, 0
16, 146760, Note_on_c, 14, 48, 84
16, 146849, Note_on_c, 14, 48, 0
16, 146880, Note_on_c, 14, 36, 92
16, 146939, Note_on_c, 14, 36, 0
16, 146940, Note_on_c, 14, 36, 84
16, 147119, Note_on_c, 14, 36, 0
16, 147240, Note_on_c, 14, 48, 84
16, 147329, Note_on_c, 14, 48, 0
16, 147360, Note_on_c, 14, 36, 84
16, 147449, Note_on_c, 14, 36, 0
16, 147480, Note_on_c, 14, 48, 84
16, 147569, Note_on_c, 14, 48, 0
16, 147600, Note_on_c, 14, 36, 92
16, 147659, Note_on_c, 14, 36, 0
16, 147660, Note_on_c, 14, 36, 84
16, 147839, Note_on_c, 14, 36, 0
16, 147960, Note_on_c, 14, 48, 84
16, 148049, Note_on_c, 14, 48, 0
16, 148080, Note_on_c, 14, 36, 84
16, 148169, Note_on_c, 14, 36, 0
16, 148200, Note_on_c, 14, 48, 84
16, 148289, Note_on_c, 14, 48, 0
16, 148320, Note_on_c, 14, 36, 84
16, 148559, Note_on_c, 14, 36, 0
16, 154080, Note_on_c, 14, 60, 84
16, 154184, Note_on_c, 14, 60, 0
16, 154200, Note_on_c, 14, 67, 84
16, 154304, Note_on_c, 14, 67, 0
16, 154320, Note_on_c, 14, 64, 84
16, 154424, Note_on_c, 14, 64, 0
16, 154440, Note_on_c, 14, 60, 84
16, 154544, Note_on_c, 14, 60, 0
16, 154560, Note_on_c, 14, 55, 84
16, 154664, Note_on_c, 14, 55, 0
16, 154680, Note_on_c, 14, 64, 84
16, 154784, Note_on_c, 14, 64, 0
16, 154800, Note_on_c, 14, 60, 84
16, 154904, Note_on_c, 14, 60, 0
16, 154920, Note_on_c, 14, 55, 84
16, 155024, Note_on_c, 14, 55, 0
16, 155040, Note_on_c, 14, 52, 84
16, 155144, Note_on_c, 14, 52, 0
16, 155160, Note_on_c, 14, 60, 84
16, 155264, Note_on_c, 14, 60, 0
16, 155280, Note_on_c, 14, 55, 84
16, 155384, Note_on_c, 14, 55, 0
16, 155400, Note_on_c, 14, 52, 84
16, 155504, Note_on_c, 14, 52, 0
16, 155520, Note_on_c, 14, 48, 84
16, 155624, Note_on_c, 14, 48, 0
16, 155640, Note_on_c, 14, 55, 84
16, 155744, Note_on_c, 14, 55, 0
16, 155760, Note_on_c, 14, 52, 84
16, 155864, Note_on_c, 14, 52, 0
16, 155880, Note_on_c, 14, 48, 84
16, 155984, Note_on_c, 14, 48, 0
16, 156000, Note_on_c, 14, 43, 84
16, 156104, Note_on_c, 14, 43, 0
16, 156120, Note_on_c, 14, 52, 84
16, 156224, Note_on_c, 14, 52, 0
16, 156240, Note_on_c, 14, 48, 84
16, 156344, Note_on_c, 14, 48, 0
16, 156360, Note_on_c, 14, 43, 84
16, 156464, Note_on_c, 14, 43, 0
16, 156480, Note_on_c, 14, 40, 84
16, 156584, Note_on_c, 14, 40, 0
16, 156600, Note_on_c, 14, 48, 84
16, 156704, Note_on_c, 14, 48, 0
16, 156720, Note_on_c, 14, 43, 84
16, 156824, Note_on_c, 14, 43, 0
16, 156840, Note_on_c, 14, 40, 84
16, 156944, Note_on_c, 14, 40, 0
16, 156960, Note_on_c, 14, 36, 84
16, 157139, Note_on_c, 14, 36, 0
16, 159840, Note_on_c, 14, 36, 52
16, 160079, Note_on_c, 14, 36, 0
16, 160200, Note_on_c, 14, 48, 52
16, 160304, Note_on_c, 14, 48, 0
16, 160320, Note_on_c, 14, 36, 52
16, 160424, Note_on_c, 14, 36, 0
16, 160440, Note_on_c, 14, 48, 52
16, 160544, Note_on_c, 14, 48, 0
16, 160560, Note_on_c, 14, 36, 52
16, 160799, Note_on_c, 14, 36, 0
16, 160920, Note_on_c, 14, 48, 52
16, 161024, Note_on_c, 14, 48, 0
16, 161040, Note_on_c, 14, 36, 52
16, 161144, Note_on_c, 14, 36, 0
16, 161160, Note_on_c, 14, 48, 52
16, 161264, Note_on_c, 14, 48, 0
16, 161280, Note_on_c, 14, 36, 52
16, 161519, Note_on_c, 14, 36, 0
16, 161640, Note_on_c, 14, 48, 52
16, 161744, Note_on_c, 14, 48, 0
16, 161760, Note_on_c, 14, 36, 52
16, 161864, Note_on_c, 14, 36, 0
16, 161880, Note_on_c, 14, 48, 52
16, 161984, Note_on_c, 14, 48, 0
16, 162000, Note_on_c, 14, 36, 52
16, 162239, Note_on_c, 14, 36, 0
16, 162360, Note_on_c, 14, 48, 52
16, 162464, Note_on_c, 14, 48, 0
16, 162480, Note_on_c, 14, 36, 52
16, 162584, Note_on_c, 14, 36, 0
16, 162600, Note_on_c, 14, 48, 52
16, 162704, Note_on_c, 14, 48, 0
16, 162720, Note_on_c, 14, 58, 84
16, 162809, Note_on_c, 14, 58, 0
16, 162840, Note_on_c, 14, 65, 84
16, 162929, Note_on_c, 14, 65, 0
16, 162960, Note_on_c, 14, 62, 84
16, 163049, Note_on_c, 14, 62, 0
16, 163080, Note_on_c, 14, 58, 84
16, 163169, Note_on_c, 14, 58, 0
16, 163200, Note_on_c, 14, 53, 84
16, 163289, Note_on_c, 14, 53, 0
16, 163320, Note_on_c, 14, 62, 84
16, 163409, Note_on_c, 14, 62, 0
16, 163440, Note_on_c, 14, 58, 84
16, 163529, Note_on_c, 14, 58, 0
16, 163560, Note_on_c, 14, 53, 84
16, 163649, Note_on_c, 14, 53, 0
16, 163680, Note_on_c, 14, 50, 84
16, 163769, Note_on_c, 14, 50, 0
16, 163800, Note_on_c, 14, 58, 84
16, 163889, Note_on_c, 14, 58, 0
16, 163920, Note_on_c, 14, 53, 84
16, 164009, Note_on_c, 14, 53, 0
16, 164040, Note_on_c, 14, 50, 84
16, 164129, Note_on_c, 14, 50, 0
16, 164160, Note_on_c, 14, 46, 84
16, 164249, Note_on_c, 14, 46, 0
16, 164280, Note_on_c, 14, 53, 84
16, 164369, Note_on_c, 14, 53, 0
16, 164400, Note_on_c, 14, 50, 84
16, 164489, Note_on_c, 14, 50, 0
16, 164520, Note_on_c, 14, 46, 84
16, 164609, Note_on_c, 14, 46, 0
16, 164640, Note_on_c, 14, 41, 84
16, 164729, Note_on_c, 14, 41, 0
16, 164760, Note_on_c, 14, 62, 84
16, 164849, Note_on_c, 14, 62, 0
16, 164880, Note_on_c, 14, 58, 84
16, 164969, Note_on_c, 14, 58, 0
16, 165000, Note_on_c, 14, 53, 84
16, 165089, Note_on_c, 14, 53, 0
16, 165120, Note_on_c, 14, 50, 84
16, 165209, Note_on_c, 14, 50, 0
16, 165240, Note_on_c, 14, 58, 84
16, 165329, Note_on_c, 14, 58, 0
16, 165360, Note_on_c, 14, 53, 84
16, 165449, Note_on_c, 14, 53, 0
16, 165480, Note_on_c, 14, 50, 84
16, 165569, Note_on_c, 14, 50, 0
16, 165600, Note_on_c, 14, 46, 52
16, 165779, Note_on_c, 14, 46, 0
16, 165960, Note_on_c, 14, 58, 52
16, 166064, Note_on_c, 14, 58, 0
16, 166080, Note_on_c, 14, 46, 52
16, 166184, Note_on_c, 14, 46, 0
16, 166200, Note_on_c, 14, 58, 52
16, 166304, Note_on_c, 14, 58, 0
16, 166320, Note_on_c, 14, 46, 52
16, 166559, Note_on_c, 14, 46, 0
16, 166680, Note_on_c, 14, 58, 52
16, 166784, Note_on_c, 14, 58, 0
16, 166800, Note_on_c, 14, 46, 52
16, 166904, Note_on_c, 14, 46, 0
16, 166920, Note_on_c, 14, 58, 52
16, 167024, Note_on_c, 14, 58, 0
16, 167040, Note_on_c, 14, 46, 52
16, 167279, Note_on_c, 14, 46, 0
16, 167400, Note_on_c, 14, 58, 52
16, 167504, Note_on_c, 14, 58, 0
16, 167520, Note_on_c, 14, 46, 52
16, 167624, Note_on_c, 14, 46, 0
16, 167640, Note_on_c, 14, 58, 52
16, 167744, Note_on_c, 14, 58, 0
16, 167760, Note_on_c, 14, 46, 52
16, 167999, Note_on_c, 14, 46, 0
16, 168120, Note_on_c, 14, 58, 52
16, 168224, Note_on_c, 14, 58, 0
16, 168240, Note_on_c, 14, 46, 52
16, 168344, Note_on_c, 14, 46, 0
16, 168360, Note_on_c, 14, 58, 52
16, 168464, Note_on_c, 14, 58, 0
16, 168480, Note_on_c, 14, 45, 52
16, 168719, Note_on_c, 14, 45, 0
16, 168720, Control_c, 14, 11, 69
16, 168840, Note_on_c, 14, 57, 84
16, 168944, Note_on_c, 14, 57, 0
16, 168960, Note_on_c, 14, 45, 84
16, 168960, Control_c, 14, 11, 75
16, 169064, Note_on_c, 14, 45, 0
16, 169080, Note_on_c, 14, 57, 84
16, 169184, Note_on_c, 14, 57, 0
16, 169200, Note_on_c, 14, 45, 84
16, 169200, Control_c, 14, 11, 80
16, 169439, Note_on_c, 14, 45, 0
16, 169440, Control_c, 14, 11, 85
16, 169560, Note_on_c, 14, 57, 84
16, 169664, Note_on_c, 14, 57, 0
16, 169680, Note_on_c, 14, 45, 84
16, 169680, Control_c, 14, 11, 90
16, 169784, Note_on_c, 14, 45, 0
16, 169800, Note_on_c, 14, 57, 84
16, 169904, Note_on_c, 14, 57, 0
16, 169920, Note_on_c, 14, 45, 84
16, 169920, Control_c, 14, 11, 96
16, 170159, Note_on_c, 14, 45, 0
16, 170160, Control_c, 14, 11, 101
16, 170280, Note_on_c, 14, 57, 84
16, 170384, Note_on_c, 14, 57, 0
16, 170400, Note_on_c, 14, 45, 84
16, 170400, Control_c, 14, 11, 106
16, 170504, Note_on_c, 14, 45, 0
16, 170520, Note_on_c, 14, 57, 84
16, 170624, Note_on_c, 14, 57, 0
16, 170640, Note_on_c, 14, 45, 84
16, 170640, Control_c, 14, 11, 111
16, 170879, Note_on_c, 14, 45, 0
16, 170880, Control_c, 14, 11, 117
16, 171000, Note_on_c, 14, 57, 84
16, 171104, Note_on_c, 14, 57, 0
16, 171120, Note_on_c, 14, 45, 84
16, 171120, Control_c, 14, 11, 122
16, 171224, Note_on_c, 14, 45, 0
16, 171240, Note_on_c, 14, 57, 84
16, 171344, Note_on_c, 14, 57, 0
16, 171360, Control_c, 14, 11, 127
16, 171360, Note_on_c, 14, 57, 84
16, 171449, Note_on_c, 14, 57, 0
16, 171480, Note_on_c, 14, 64, 84
16, 171569, Note_on_c, 14, 64, 0
16, 171600, Note_on_c, 14, 61, 84
16, 171689, Note_on_c, 14, 61, 0
16, 171720, Note_on_c, 14, 57, 84
16, 171809, Note_on_c, 14, 57, 0
16, 171840, Note_on_c, 14, 52, 84
16, 171929, Note_on_c, 14, 52, 0
16, 171960, Note_on_c, 14, 61, 84
16, 172049, Note_on_c, 14, 61, 0
16, 172080, Note_on_c, 14, 57, 84
16, 172169, Note_on_c, 14, 57, 0
16, 172200, Note_on_c, 14, 52, 84
16, 172289, Note_on_c, 14, 52, 0
16, 172320, Note_on_c, 14, 49, 84
16, 172409, Note_on_c, 14, 49, 0
16, 172440, Note_on_c, 14, 57, 84
16, 172529, Note_on_c, 14, 57, 0
16, 172560, Note_on_c, 14, 52, 84
16, 172649, Note_on_c, 14, 52, 0
16, 172680, Note_on_c, 14, 49, 84
16, 172769, Note_on_c, 14, 49, 0
16, 172800, Note_on_c, 14, 45, 84
16, 172889, Note_on_c, 14, 45, 0
16, 172920, Note_on_c, 14, 61, 84
16, 173009, Note_on_c, 14, 61, 0
16, 173040, Note_on_c, 14, 57, 84
16, 173129, Note_on_c, 14, 57, 0
16, 173160, Note_on_c, 14, 52, 84
16, 173249, Note_on_c, 14, 52, 0
16, 173280, Note_on_c, 14, 49, 84
16, 173369, Note_on_c, 14, 49, 0
16, 173400, Note_on_c, 14, 57, 84
16, 173489, Note_on_c, 14, 57, 0
16, 173520, Note_on_c, 14, 52, 84
16, 173609, Note_on_c, 14, 52, 0
16, 173640, Note_on_c, 14, 49, 84
16, 173729, Note_on_c, 14, 49, 0
16, 173760, Note_on_c, 14, 45, 84
16, 173849, Note_on_c, 14, 45, 0
16, 173880, Note_on_c, 14, 57, 84
16, 173969, Note_on_c, 14, 57, 0
16, 174000, Note_on_c, 14, 52, 84
16, 174089, Note_on_c, 14, 52, 0
16, 174120, Note_on_c, 14, 49, 84
16, 174209, Note_on_c, 14, 49, 0
16, 174240, Note_on_c, 14, 45, 92
16, 174479, Note_on_c, 14, 45, 0
16, 174600, Note_on_c, 14, 57, 84
16, 174704, Note_on_c, 14, 57, 0
16, 174720, Note_on_c, 14, 45, 84
16, 174824, Note_on_c, 14, 45, 0
16, 174840, Note_on_c, 14, 57, 84
16, 174944, Note_on_c, 14, 57, 0
16, 174960, Note_on_c, 14, 45, 84
16, 175199, Note_on_c, 14, 45, 0
16, 175680, Note_on_c, 14, 45, 92
16, 175919, Note_on_c, 14, 45, 0
16, 176040, Note_on_c, 14, 57, 84
16, 176144, Note_on_c, 14, 57, 0
16, 176160, Note_on_c, 14, 45, 84
16, 176264, Note_on_c, 14, 45, 0
16, 176280, Note_on_c, 14, 57, 84
16, 176384, Note_on_c, 14, 57, 0
16, 176400, Note_on_c, 14, 45, 84
16, 176639, Note_on_c, 14, 45, 0
16, 176880, Note_on_c, 14, 57, 84
16, 177359, Note_on_c, 14, 57, 0
16, 177360, Note_on_c, 14, 53, 84
16, 177479, Note_on_c, 14, 53, 0
16, 177480, Note_on_c, 14, 55, 84
16, 177584, Note_on_c, 14, 55, 0
16, 177600, Note_on_c, 14, 57, 84
16, 177689, Note_on_c, 14, 57, 0
16, 177720, Note_on_c, 14, 53, 84
16, 177809, Note_on_c, 14, 53, 0
16, 177840, Note_on_c, 14, 50, 84
16, 178544, Note_on_c, 14, 50, 0
16, 178560, Note_on_c, 14, 58, 92
16, 178799, Note_on_c, 14, 58, 0
16, 178800, Note_on_c, 14, 55, 84
16, 178919, Note_on_c, 14, 55, 0
16, 178920, Note_on_c, 14, 57, 84
16, 179024, Note_on_c, 14, 57, 0
16, 179040, Note_on_c, 14, 58, 84
16, 179129, Note_on_c, 14, 58, 0
16, 179160, Note_on_c, 14, 55, 84
16, 179249, Note_on_c, 14, 55, 0
16, 179280, Note_on_c, 14, 50, 84
16, 179984, Note_on_c, 14, 50, 0
16, 180000, Note_on_c, 14, 61, 84
16, 180179, Note_on_c, 14, 61, 0
16, 180240, Note_on_c, 14, 55, 92
16, 180359, Note_on_c, 14, 55, 0
16, 180360, Note_on_c, 14, 57, 84
16, 180464, Note_on_c, 14, 57, 0
16, 180480, Note_on_c, 14, 58, 84
16, 180569, Note_on_c, 14, 58, 0
16, 180600, Note_on_c, 14, 55, 84
16, 180689, Note_on_c, 14, 55, 0
16, 180720, Note_on_c, 14, 57, 84
16, 180899, Note_on_c, 14, 57, 0
16, 180960, Note_on_c, 14, 52, 92
16, 181079, Note_on_c, 14, 52, 0
16, 181080, Note_on_c, 14, 53, 84
16, 181184, Note_on_c, 14, 53, 0
16, 181200, Note_on_c, 14, 55, 84
16, 181289, Note_on_c, 14, 55, 0
16, 181320, Note_on_c, 14, 52, 84
16, 181409, Note_on_c, 14, 52, 0
16, 181440, Note_on_c, 14, 53, 84
16, 181619, Note_on_c, 14, 53, 0
16, 181680, Note_on_c, 14, 49, 92
16, 181799, Note_on_c, 14, 49, 0
16, 181800, Note_on_c, 14, 50, 84
16, 181904, Note_on_c, 14, 50, 0
16, 181920, Note_on_c, 14, 52, 84
16, 182009, Note_on_c, 14, 52, 0
16, 182040, Note_on_c, 14, 49, 84
16, 182129, Note_on_c, 14, 49, 0
16, 182160, Note_on_c, 14, 50, 84
16, 182339, Note_on_c, 14, 50, 0
16, 182400, Note_on_c, 14, 45, 92
16, 182519, Note_on_c, 14, 45, 0
16, 182520, Note_on_c, 14, 46, 84
16, 182624, Note_on_c, 14, 46, 0
16, 182640, Note_on_c, 14, 48, 84
16, 182729, Note_on_c, 14, 48, 0
16, 182760, Note_on_c, 14, 45, 84
16, 182849, Note_on_c, 14, 45, 0
16, 182880, Note_on_c, 14, 43, 84
16, 182984, Note_on_c, 14, 43, 0
16, 183000, Note_on_c, 14, 62, 84
16, 183104, Note_on_c, 14, 62, 0
16, 183120, Note_on_c, 14, 62, 84
16, 183224, Note_on_c, 14, 62, 0
16, 183240, Note_on_c, 14, 62, 84
16, 183344, Note_on_c, 14, 62, 0
16, 183360, Note_on_c, 14, 62, 84
16, 183464, Note_on_c, 14, 62, 0
16, 183480, Note_on_c, 14, 62, 84
16, 183584, Note_on_c, 14, 62, 0
16, 183600, Note_on_c, 14, 62, 84
16, 183689, Note_on_c, 14, 62, 0
16, 183720, Note_on_c, 14, 59, 84
16, 183809, Note_on_c, 14, 59, 0
16, 183840, Note_on_c, 14, 55, 84
16, 183929, Note_on_c, 14, 55, 0
16, 183960, Note_on_c, 14, 50, 84
16, 184049, Note_on_c, 14, 50, 0
16, 184080, Note_on_c, 14, 47, 84
16, 184169, Note_on_c, 14, 47, 0
16, 184200, Note_on_c, 14, 43, 84
16, 184289, Note_on_c, 14, 43, 0
16, 184320, Note_on_c, 14, 43, 84
16, 184424, Note_on_c, 14, 43, 0
16, 184440, Note_on_c, 14, 63, 84
16, 184544, Note_on_c, 14, 63, 0
16, 184560, Note_on_c, 14, 63, 84
16, 184664, Note_on_c, 14, 63, 0
16, 184680, Note_on_c, 14, 63, 84
16, 184784, Note_on_c, 14, 63, 0
16, 184800, Note_on_c, 14, 63, 84
16, 184904, Note_on_c, 14, 63, 0
16, 184920, Note_on_c, 14, 63, 84
16, 185024, Note_on_c, 14, 63, 0
16, 185040, Note_on_c, 14, 63, 84
16, 185129, Note_on_c, 14, 63, 0
16, 185160, Note_on_c, 14, 60, 84
16, 185249, Note_on_c, 14, 60, 0
16, 185280, Note_on_c, 14, 55, 84
16, 185369, Note_on_c, 14, 55, 0
16, 185400, Note_on_c, 14, 51, 84
16, 185489, Note_on_c, 14, 51, 0
16, 185520, Note_on_c, 14, 48, 84
16, 185609, Note_on_c, 14, 48, 0
16, 185640, Note_on_c, 14, 43, 84
16, 185729, Note_on_c, 14, 43, 0
16, 185760, Note_on_c, 14, 43, 84
16, 185864, Note_on_c, 14, 43, 0
16, 185880, Note_on_c, 14, 59, 84
16, 185984, Note_on_c, 14, 59, 0
16, 186000, Note_on_c, 14, 65, 92
16, 186119, Note_on_c, 14, 65, 0
16, 186120, Note_on_c, 14, 63, 84
16, 186224, Note_on_c, 14, 63, 0
16, 186240, Note_on_c, 14, 62, 84
16, 186329, Note_on_c, 14, 62, 0
16, 186360, Note_on_c, 14, 65, 84
16, 186449, Note_on_c, 14, 65, 0
16, 186480, Note_on_c, 14, 55, 84
16, 186584, Note_on_c, 14, 55, 0
16, 186600, Note_on_c, 14, 63, 84
16, 186704, Note_on_c, 14, 63, 0
16, 186720, Note_on_c, 14, 62, 92
16, 186839, Note_on_c, 14, 62, 0
16, 186840, Note_on_c, 14, 60, 84
16, 186944, Note_on_c, 14, 60, 0
16, 186960, Note_on_c, 14, 59, 84
16, 187049, Note_on_c, 14, 59, 0
16, 187080, Note_on_c, 14, 62, 84
16, 187169, Note_on_c, 14, 62, 0
16, 187200, Note_on_c, 14, 52, 84
16, 187304, Note_on_c, 14, 52, 0
16, 187320, Note_on_c, 14, 60, 84
16, 187424, Note_on_c, 14, 60, 0
16, 187440, Note_on_c, 14, 58, 92
16, 187559, Note_on_c, 14, 58, 0
16, 187560, Note_on_c, 14, 56, 84
16, 187664, Note_on_c, 14, 56, 0
16, 187680, Note_on_c, 14, 55, 84
16, 187769, Note_on_c, 14, 55, 0
16, 187800, Note_on_c, 14, 58, 84
16, 187889, Note_on_c, 14, 58, 0
16, 187920, Note_on_c, 14, 48, 84
16, 188024, Note_on_c, 14, 48, 0
16, 188040, Note_on_c, 14, 56, 84
16, 188144, Note_on_c, 14, 56, 0
16, 188160, Note_on_c, 14, 55, 92
16, 188279, Note_on_c, 14, 55, 0
16, 188280, Note_on_c, 14, 53, 84
16, 188384, Note_on_c, 14, 53, 0
16, 188400, Note_on_c, 14, 52, 84
16, 188489, Note_on_c, 14, 52, 0
16, 188520, Note_on_c, 14, 55, 84
16, 188609, Note_on_c, 14, 55, 0
16, 188640, Note_on_c, 14, 41, 84
16, 189344, Note_on_c, 14, 41, 0
16, 189360, Note_on_c, 14, 48, 84
16, 189599, Note_on_c, 14, 48, 0
16, 189600, Note_on_c, 14, 44, 84
16, 189719, Note_on_c, 14, 44, 0
16, 189720, Note_on_c, 14, 46, 84
16, 189824, Note_on_c, 14, 46, 0
16, 189840, Note_on_c, 14, 48, 84
16, 189929, Note_on_c, 14, 48, 0
16, 189960, Note_on_c, 14, 44, 84
16, 190049, Note_on_c, 14, 44, 0
16, 190080, Note_on_c, 14, 41, 84
16, 190784, Note_on_c, 14, 41, 0
16, 190800, Note_on_c, 14, 49, 84
16, 191039, Note_on_c, 14, 49, 0
16, 191040, Note_on_c, 14, 46, 84
16, 191159, Note_on_c, 14, 46, 0
16, 191160, Note_on_c, 14, 48, 84
16, 191264, Note_on_c, 14, 48, 0
16, 191280, Note_on_c, 14, 49, 84
16, 191369, Note_on_c, 14, 49, 0
16, 191400, Note_on_c, 14, 46, 84
16, 191489, Note_on_c, 14, 46, 0
16, 191520, Note_on_c, 14, 41, 84
16, 191624, Note_on_c, 14, 41, 0
16, 191640, Note_on_c, 14, 53, 84
16, 191744, Note_on_c, 14, 53, 0
16, 191760, Note_on_c, 14, 53, 92
16, 191864, Note_on_c, 14, 53, 0
16, 191880, Note_on_c, 14, 53, 84
16, 191984, Note_on_c, 14, 53, 0
16, 192000, Note_on_c, 14, 53, 84
16, 192104, Note_on_c, 14, 53, 0
16, 192120, Note_on_c, 14, 53, 84
16, 192224, Note_on_c, 14, 53, 0
16, 192240, Note_on_c, 14, 52, 84
16, 192344, Note_on_c, 14, 52, 0
16, 192360, Note_on_c, 14, 48, 84
16, 192464, Note_on_c, 14, 48, 0
16, 192480, Note_on_c, 14, 48, 92
16, 192584, Note_on_c, 14, 48, 0
16, 192600, Note_on_c, 14, 48, 84
16, 192704, Note_on_c, 14, 48, 0
16, 192720, Note_on_c, 14, 48, 84
16, 192824, Note_on_c, 14, 48, 0
16, 192840, Note_on_c, 14, 48, 84
16, 192944, Note_on_c, 14, 48, 0
16, 192960, Note_on_c, 14, 53, 84
16, 193064, Note_on_c, 14, 53, 0
16, 193080, Note_on_c, 14, 48, 84
16, 193184, Note_on_c, 14, 48, 0
16, 193200, Note_on_c, 14, 48, 92
16, 193304, Note_on_c, 14, 48, 0
16, 193320, Note_on_c, 14, 48, 84
16, 193424, Note_on_c, 14, 48, 0
16, 193440, Note_on_c, 14, 48, 84
16, 193544, Note_on_c, 14, 48, 0
16, 193560, Note_on_c, 14, 48, 84
16, 193664, Note_on_c, 14, 48, 0
16, 193680, Note_on_c, 14, 49, 84
16, 193784, Note_on_c, 14, 49, 0
16, 193800, Note_on_c, 14, 44, 84
16, 193904, Note_on_c, 14, 44, 0
16, 193920, Note_on_c, 14, 44, 92
16, 194024, Note_on_c, 14, 44, 0
16, 194040, Note_on_c, 14, 44, 84
16, 194144, Note_on_c, 14, 44, 0
16, 194160, Note_on_c, 14, 44, 84
16, 194264, Note_on_c, 14, 44, 0
16, 194280, Note_on_c, 14, 44, 84
16, 194384, Note_on_c, 14, 44, 0
16, 194400, Note_on_c, 14, 49, 84
16, 194519, Note_on_c, 14, 49, 0
16, 194520, Note_on_c, 14, 51, 84
16, 194624, Note_on_c, 14, 51, 0
16, 194640, Note_on_c, 14, 53, 84
16, 194729, Note_on_c, 14, 53, 0
16, 194760, Note_on_c, 14, 49, 84
16, 194849, Note_on_c, 14, 49, 0
16, 194880, Note_on_c, 14, 44, 84
16, 195104, Note_on_c, 14, 44, 0
16, 195120, Note_on_c, 14, 49, 84
16, 195239, Note_on_c, 14, 49, 0
16, 195240, Note_on_c, 14, 51, 84
16, 195344, Note_on_c, 14, 51, 0
16, 195360, Note_on_c, 14, 53, 84
16, 195449, Note_on_c, 14, 53, 0
16, 195480, Note_on_c, 14, 49, 84
16, 195569, Note_on_c, 14, 49, 0
16, 195600, Note_on_c, 14, 44, 84
16, 195824, Note_on_c, 14, 44, 0
16, 195840, Note_on_c, 14, 49, 84
16, 195959, Note_on_c, 14, 49, 0
16, 195960, Note_on_c, 14, 51, 84
16, 196064, Note_on_c, 14, 51, 0
16, 196080, Note_on_c, 14, 53, 84
16, 196169, Note_on_c, 14, 53, 0
16, 196200, Note_on_c, 14, 49, 84
16, 196289, Note_on_c, 14, 49, 0
16, 196320, Note_on_c, 14, 44, 84
16, 196544, Note_on_c, 14, 44, 0
16, 196560, Note_on_c, 14, 49, 84
16, 196679, Note_on_c, 14, 49, 0
16, 196680, Note_on_c, 14, 51, 84
16, 196784, Note_on_c, 14, 51, 0
16, 196800, Note_on_c, 14, 53, 84
16, 196889, Note_on_c, 14, 53, 0
16, 196920, Note_on_c, 14, 49, 84
16, 197009, Note_on_c, 14, 49, 0
16, 197040, Note_on_c, 14, 44, 84
16, 197264, Note_on_c, 14, 44, 0
16, 197280, Note_on_c, 14, 46, 84
16, 197399, Note_on_c, 14, 46, 0
16, 197400, Note_on_c, 14, 48, 84
16, 197504, Note_on_c, 14, 48, 0
16, 197520, Note_on_c, 14, 49, 84
16, 197609, Note_on_c, 14, 49, 0
16, 197640, Note_on_c, 14, 46, 84
16, 197729, Note_on_c, 14, 46, 0
16, 197760, Note_on_c, 14, 41, 84
16, 197984, Note_on_c, 14, 41, 0
16, 198000, Note_on_c, 14, 46, 84
16, 198119, Note_on_c, 14, 46, 0
16, 198120, Note_on_c, 14, 48, 84
16, 198224, Note_on_c, 14, 48, 0
16, 198240, Note_on_c, 14, 49, 84
16, 198329, Note_on_c, 14, 49, 0
16, 198360, Note_on_c, 14, 46, 84
16, 198449, Note_on_c, 14, 46, 0
16, 198480, Note_on_c, 14, 41, 84
16, 198704, Note_on_c, 14, 41, 0
16, 198720, Note_on_c, 14, 46, 84
16, 198839, Note_on_c, 14, 46, 0
16, 198840, Note_on_c, 14, 48, 84
16, 198944, Note_on_c, 14, 48, 0
16, 198960, Note_on_c, 14, 49, 84
16, 199049, Note_on_c, 14, 49, 0
16, 199080, Note_on_c, 14, 46, 84
16, 199169, Note_on_c, 14, 46, 0
16, 199200, Note_on_c, 14, 41, 84
16, 199424, Note_on_c, 14, 41, 0
16, 199440, Note_on_c, 14, 46, 84
16, 199559, Note_on_c, 14, 46, 0
16, 199560, Note_on_c, 14, 48, 84
16, 199664, Note_on_c, 14, 48, 0
16, 199680, Note_on_c, 14, 49, 84
16, 199769, Note_on_c, 14, 49, 0
16, 199800, Note_on_c, 14, 46, 84
16, 199889, Note_on_c, 14, 46, 0
16, 199920, Note_on_c, 14, 41, 84
16, 200144, Note_on_c, 14, 41, 0
16, 200160, Note_on_c, 14, 41, 84
16, 200279, Note_on_c, 14, 41, 0
16, 200280, Note_on_c, 14, 43, 84
16, 200384, Note_on_c, 14, 43, 0
16, 200400, Note_on_c, 14, 44, 84
16, 200489, Note_on_c, 14, 44, 0
16, 200520, Note_on_c, 14, 41, 84
16, 200609, Note_on_c, 14, 41, 0
16, 200640, Note_on_c, 14, 36, 84
16, 200864, Note_on_c, 14, 36, 0
16, 200880, Note_on_c, 14, 41, 84
16, 200999, Note_on_c, 14, 41, 0
16, 201000, Note_on_c, 14, 43, 84
16, 201104, Note_on_c, 14, 43, 0
16, 201120, Note_on_c, 14, 44, 84
16, 201209, Note_on_c, 14, 44, 0
16, 201240, Note_on_c, 14, 41, 84
16, 201329, Note_on_c, 14, 41, 0
16, 201360, Note_on_c, 14, 36, 84
16, 201584, Note_on_c, 14, 36, 0
16, 201600, Note_on_c, 14, 41, 84
16, 201719, Note_on_c, 14, 41, 0
16, 201720, Note_on_c, 14, 43, 84
16, 201824, Note_on_c, 14, 43, 0
16, 201840, Note_on_c, 14, 44, 84
16, 201929, Note_on_c, 14, 44, 0
16, 201960, Note_on_c, 14, 41, 84
16, 202049, Note_on_c, 14, 41, 0
16, 202080, Note_on_c, 14, 36, 84
16, 202304, Note_on_c, 14, 36, 0
16, 202320, Note_on_c, 14, 41, 84
16, 202439, Note_on_c, 14, 41, 0
16, 202440, Note_on_c, 14, 43, 84
16, 202544, Note_on_c, 14, 43, 0
16, 202560, Note_on_c, 14, 44, 84
16, 202649, Note_on_c, 14, 44, 0
16, 202680, Note_on_c, 14, 41, 84
16, 202769, Note_on_c, 14, 41, 0
16, 202800, Note_on_c, 14, 36, 84
16, 203024, Note_on_c, 14, 36, 0
16, 203040, Note_on_c, 14, 41, 84
16, 203159, Note_on_c, 14, 41, 0
16, 203160, Note_on_c, 14, 43, 84
16, 203264, Note_on_c, 14, 43, 0
16, 203280, Note_on_c, 14, 44, 92
16, 203369, Note_on_c, 14, 44, 0
16, 203400, Note_on_c, 14, 41, 84
16, 203489, Note_on_c, 14, 41, 0
16, 203520, Note_on_c, 14, 36, 84
16, 203609, Note_on_c, 14, 36, 0
16, 203640, Note_on_c, 14, 44, 84
16, 203729, Note_on_c, 14, 44, 0
16, 203760, Note_on_c, 14, 41, 84
16, 203849, Note_on_c, 14, 41, 0
16, 203880, Note_on_c, 14, 43, 84
16, 203969, Note_on_c, 14, 43, 0
16, 204000, Note_on_c, 14, 44, 84
16, 204089, Note_on_c, 14, 44, 0
16, 204120, Note_on_c, 14, 41, 84
16, 204209, Note_on_c, 14, 41, 0
16, 204240, Note_on_c, 14, 36, 84
16, 204329, Note_on_c, 14, 36, 0
16, 204360, Note_on_c, 14, 44, 84
16, 204449, Note_on_c, 14, 44, 0
16, 204480, Note_on_c, 14, 41, 84
16, 204599, Note_on_c, 14, 41, 0
16, 204600, Note_on_c, 14, 43, 84
16, 204704, Note_on_c, 14, 43, 0
16, 204720, Note_on_c, 14, 44, 92
16, 204809, Note_on_c, 14, 44, 0
16, 204840, Note_on_c, 14, 41, 84
16, 204929, Note_on_c, 14, 41, 0
16, 204960, Note_on_c, 14, 36, 84
16, 205049, Note_on_c, 14, 36, 0
16, 205080, Note_on_c, 14, 44, 84
16, 205169, Note_on_c, 14, 44, 0
16, 205200, Note_on_c, 14, 41, 84
16, 205289, Note_on_c, 14, 41, 0
16, 205320, Note_on_c, 14, 43, 84
16, 205409, Note_on_c, 14, 43, 0
16, 205440, Note_on_c, 14, 44, 84
16, 205529, Note_on_c, 14, 44, 0
16, 205560, Note_on_c, 14, 41, 84
16, 205649, Note_on_c, 14, 41, 0
16, 205680, Note_on_c, 14, 36, 84
16, 205769, Note_on_c, 14, 36, 0
16, 205800, Note_on_c, 14, 44, 84
16, 205889, Note_on_c, 14, 44, 0
16, 205920, Note_on_c, 14, 36, 92
16, 206159, Note_on_c, 14, 36, 0
16, 206280, Note_on_c, 14, 48, 84
16, 206369, Note_on_c, 14, 48, 0
16, 206400, Note_on_c, 14, 36, 84
16, 206489, Note_on_c, 14, 36, 0
16, 206520, Note_on_c, 14, 48, 84
16, 206609, Note_on_c, 14, 48, 0
16, 206640, Note_on_c, 14, 36, 92
16, 206879, Note_on_c, 14, 36, 0
16, 207000, Note_on_c, 14, 48, 84
16, 207104, Note_on_c, 14, 48, 0
16, 207120, Note_on_c, 14, 36, 84
16, 207224, Note_on_c, 14, 36, 0
16, 207240, Note_on_c, 14, 48, 84
16, 207344, Note_on_c, 14, 48, 0
16, 207360, Note_on_c, 14, 36, 92
16, 207599, Note_on_c, 14, 36, 0
16, 207720, Note_on_c, 14, 48, 84
16, 207824, Note_on_c, 14, 48, 0
16, 207840, Note_on_c, 14, 36, 84
16, 207944, Note_on_c, 14, 36, 0
16, 207960, Note_on_c, 14, 48, 84
16, 208064, Note_on_c, 14, 48, 0
16, 208080, Note_on_c, 14, 36, 92
16, 208319, Note_on_c, 14, 36, 0
16, 208440, Note_on_c, 14, 48, 84
16, 208544, Note_on_c, 14, 48, 0
16, 208560, Note_on_c, 14, 36, 84
16, 208664, Note_on_c, 14, 36, 0
16, 208680, Note_on_c, 14, 48, 84
16, 208784, Note_on_c, 14, 48, 0
16, 208800, Note_on_c, 14, 48, 88
16, 208919, Note_on_c, 14, 48, 0
16, 208920, Note_on_c, 14, 50, 88
16, 209039, Note_on_c, 14, 50, 0
16, 209040, Note_on_c, 14, 52, 88
16, 209159, Note_on_c, 14, 52, 0
16, 209160, Note_on_c, 14, 53, 88
16, 209279, Note_on_c, 14, 53, 0
16, 209280, Note_on_c, 14, 55, 88
16, 209399, Note_on_c, 14, 55, 0
16, 209400, Note_on_c, 14, 57, 88
16, 209519, Note_on_c, 14, 57, 0
16, 209520, Note_on_c, 14, 58, 88
16, 209639, Note_on_c, 14, 58, 0
16, 209640, Note_on_c, 14, 59, 88
16, 209744, Note_on_c, 14, 59, 0
16, 209760, Note_on_c, 14, 60, 88
16, 209849, Note_on_c, 14, 60, 0
16, 209880, Note_on_c, 14, 60, 88
16, 209969, Note_on_c, 14, 60, 0
16, 210000, Note_on_c, 14, 60, 88
16, 210089, Note_on_c, 14, 60, 0
16, 210120, Note_on_c, 14, 60, 88
16, 210209, Note_on_c, 14, 60, 0
16, 210240, Note_on_c, 14, 60, 92
16, 210479, Note_on_c, 14, 60, 0
16, 210480, Note_on_c, 14, 57, 92
16, 210599, Note_on_c, 14, 57, 0
16, 210600, Note_on_c, 14, 58, 92
16, 210704, Note_on_c, 14, 58, 0
16, 210720, Note_on_c, 14, 60, 92
16, 210809, Note_on_c, 14, 60, 0
16, 210840, Note_on_c, 14, 57, 92
16, 210929, Note_on_c, 14, 57, 0
16, 210960, Note_on_c, 14, 53, 92
16, 211424, Note_on_c, 14, 53, 0
16, 211440, Note_on_c, 14, 48, 92
16, 211529, Note_on_c, 14, 48, 0
16, 211560, Note_on_c, 14, 53, 92
16, 211649, Note_on_c, 14, 53, 0
16, 211680, Note_on_c, 14, 53, 92
16, 211799, Note_on_c, 14, 53, 0
16, 211800, Note_on_c, 14, 52, 92
16, 211904, Note_on_c, 14, 52, 0
16, 211920, Note_on_c, 14, 52, 92
16, 212009, Note_on_c, 14, 52, 0
16, 212040, Note_on_c, 14, 53, 92
16, 212129, Note_on_c, 14, 53, 0
16, 212160, Note_on_c, 14, 55, 92
16, 212249, Note_on_c, 14, 55, 0
16, 212280, Note_on_c, 14, 57, 92
16, 212369, Note_on_c, 14, 57, 0
16, 212400, Note_on_c, 14, 58, 92
16, 212639, Note_on_c, 14, 58, 0
16, 213120, Note_on_c, 14, 58, 92
16, 213359, Note_on_c, 14, 58, 0
16, 213360, Note_on_c, 14, 55, 92
16, 213479, Note_on_c, 14, 55, 0
16, 213480, Note_on_c, 14, 57, 92
16, 213599, Note_on_c, 14, 57, 0
16, 213600, Note_on_c, 14, 58, 92
16, 213719, Note_on_c, 14, 58, 0
16, 213720, Note_on_c, 14, 59, 92
16, 213824, Note_on_c, 14, 59, 0
16, 213840, Note_on_c, 14, 60, 92
16, 214319, Note_on_c, 14, 60, 0
16, 214320, Note_on_c, 14, 58, 92
16, 214544, Note_on_c, 14, 58, 0
16, 214560, Note_on_c, 14, 57, 92
16, 214619, Note_on_c, 14, 57, 0
16, 214620, Note_on_c, 14, 60, 92
16, 214679, Note_on_c, 14, 60, 0
16, 214800, Note_on_c, 14, 53, 92
16, 214919, Note_on_c, 14, 53, 0
16, 215040, Note_on_c, 14, 57, 92
16, 215099, Note_on_c, 14, 57, 0
16, 215100, Note_on_c, 14, 55, 92
16, 215159, Note_on_c, 14, 55, 0
16, 215280, Note_on_c, 14, 53, 92
16, 215399, Note_on_c, 14, 53, 0
16, 218160, Note_on_c, 14, 58, 76
16, 218249, Note_on_c, 14, 58, 0
16, 218280, Note_on_c, 14, 57, 76
16, 218369, Note_on_c, 14, 57, 0
16, 218400, Note_on_c, 14, 55, 76
16, 218489, Note_on_c, 14, 55, 0
16, 218520, Note_on_c, 14, 53, 76
16, 218609, Note_on_c, 14, 53, 0
16, 218640, Note_on_c, 14, 52, 76
16, 218729, Note_on_c, 14, 52, 0
16, 218760, Note_on_c, 14, 50, 76
16, 218849, Note_on_c, 14, 50, 0
16, 218880, Note_on_c, 14, 48, 52
16, 218999, Note_on_c, 14, 48, 0
16, 221520, Control_c, 14, 11, 80
16, 221760, Note_on_c, 14, 46, 76
16, 221940, Control_c, 14, 11, 84
16, 221999, Note_on_c, 14, 46, 0
16, 222000, Note_on_c, 14, 43, 76
16, 222119, Note_on_c, 14, 43, 0
16, 222120, Control_c, 14, 11, 88
16, 222120, Note_on_c, 14, 45, 76
16, 222239, Note_on_c, 14, 45, 0
16, 222240, Note_on_c, 14, 46, 76
16, 222300, Control_c, 14, 11, 92
16, 222359, Note_on_c, 14, 46, 0
16, 222360, Note_on_c, 14, 47, 76
16, 222464, Note_on_c, 14, 47, 0
16, 222480, Note_on_c, 14, 48, 76
16, 222480, Control_c, 14, 11, 96
16, 222660, Control_c, 14, 11, 100
16, 222840, Control_c, 14, 11, 104
16, 222959, Note_on_c, 14, 48, 0
16, 222960, Note_on_c, 14, 46, 76
16, 223020, Control_c, 14, 11, 107
16, 223184, Note_on_c, 14, 46, 0
16, 223200, Control_c, 14, 11, 111
16, 223200, Note_on_c, 14, 45, 76
16, 223319, Note_on_c, 14, 45, 0
16, 223320, Note_on_c, 14, 48, 76
16, 223380, Control_c, 14, 11, 115
16, 223424, Note_on_c, 14, 48, 0
16, 223440, Note_on_c, 14, 41, 76
16, 223560, Control_c, 14, 11, 119
16, 223679, Note_on_c, 14, 41, 0
16, 223680, Note_on_c, 14, 45, 76
16, 223740, Control_c, 14, 11, 123
16, 223799, Note_on_c, 14, 45, 0
16, 223800, Note_on_c, 14, 43, 76
16, 223904, Note_on_c, 14, 43, 0
16, 223920, Note_on_c, 14, 41, 76
16, 223920, Control_c, 14, 11, 127
16, 224624, Note_on_c, 14, 41, 0
16, 224640, Note_on_c, 14, 45, 84
16, 224699, Note_on_c, 14, 45, 0
16, 224700, Note_on_c, 14, 45, 76
16, 225284, Note_on_c, 14, 45, 0
16, 225300, Note_on_c, 14, 41, 76
16, 225351, Note_on_c, 14, 41, 0
16, 225360, Note_on_c, 14, 41, 76
16, 226064, Note_on_c, 14, 41, 0
16, 226080, Note_on_c, 14, 46, 84
16, 226139, Note_on_c, 14, 46, 0
16, 226140, Note_on_c, 14, 46, 76
16, 226724, Note_on_c, 14, 46, 0
16, 226740, Note_on_c, 14, 41, 76
16, 226791, Note_on_c, 14, 41, 0
16, 226800, Note_on_c, 14, 41, 76
16, 227504, Note_on_c, 14, 41, 0
16, 227520, Note_on_c, 14, 50, 84
16, 227579, Note_on_c, 14, 50, 0
16, 227580, Note_on_c, 14, 50, 76
16, 228164, Note_on_c, 14, 50, 0
16, 228180, Note_on_c, 14, 41, 76
16, 228231, Note_on_c, 14, 41, 0
16, 228240, Note_on_c, 14, 40, 76
16, 228719, Note_on_c, 14, 40, 0
16, 228720, Note_on_c, 14, 48, 76
16, 228839, Note_on_c, 14, 48, 0
16, 228960, Note_on_c, 14, 36, 76
16, 229079, Note_on_c, 14, 36, 0
16, 229200, Note_on_c, 14, 46, 76
16, 229319, Note_on_c, 14, 46, 0
16, 229440, Note_on_c, 14, 43, 76
16, 229559, Note_on_c, 14, 43, 0
16, 229680, Note_on_c, 14, 53, 84
16, 230504, Note_on_c, 14, 53, 0
16, 230520, Note_on_c, 14, 53, 84
16, 230624, Note_on_c, 14, 53, 0
16, 230640, Note_on_c, 14, 53, 84
16, 230744, Note_on_c, 14, 53, 0
16, 230760, Note_on_c, 14, 53, 84
16, 230864, Note_on_c, 14, 53, 0
16, 230880, Note_on_c, 14, 53, 84
16, 230984, Note_on_c, 14, 53, 0
16, 231000, Note_on_c, 14, 53, 84
16, 231104, Note_on_c, 14, 53, 0
16, 231120, Note_on_c, 14, 50, 84
16, 231944, Note_on_c, 14, 50, 0
16, 231960, Note_on_c, 14, 50, 84
16, 232064, Note_on_c, 14, 50, 0
16, 232080, Note_on_c, 14, 50, 84
16, 232184, Note_on_c, 14, 50, 0
16, 232200, Note_on_c, 14, 50, 84
16, 232304, Note_on_c, 14, 50, 0
16, 232320, Note_on_c, 14, 50, 84
16, 232424, Note_on_c, 14, 50, 0
16, 232440, Note_on_c, 14, 50, 84
16, 232544, Note_on_c, 14, 50, 0
16, 232560, Note_on_c, 14, 41, 84
16, 233384, Note_on_c, 14, 41, 0
16, 233400, Note_on_c, 14, 41, 84
16, 233504, Note_on_c, 14, 41, 0
16, 233520, Note_on_c, 14, 41, 84
16, 233624, Note_on_c, 14, 41, 0
16, 233640, Note_on_c, 14, 41, 84
16, 233744, Note_on_c, 14, 41, 0
16, 233760, Note_on_c, 14, 41, 84
16, 233864, Note_on_c, 14, 41, 0
16, 233880, Note_on_c, 14, 41, 84
16, 233984, Note_on_c, 14, 41, 0
16, 234000, Note_on_c, 14, 41, 84
16, 234824, Note_on_c, 14, 41, 0
16, 234840, Note_on_c, 14, 41, 84
16, 234944, Note_on_c, 14, 41, 0
16, 234960, Note_on_c, 14, 41, 84
16, 235064, Note_on_c, 14, 41, 0
16, 235080, Note_on_c, 14, 41, 84
16, 235184, Note_on_c, 14, 41, 0
16, 235200, Note_on_c, 14, 41, 84
16, 235304, Note_on_c, 14, 41, 0
16, 235320, Note_on_c, 14, 41, 84
16, 235424, Note_on_c, 14, 41, 0
16, 235440, Note_on_c, 14, 41, 84
16, 235904, Note_on_c, 14, 41, 0
16, 235920, Note_on_c, 14, 41, 92
16, 236084, Note_on_c, 14, 41, 0
16, 236100, Note_on_c, 14, 41, 84
16, 236151, Note_on_c, 14, 41, 0
16, 236160, Note_on_c, 14, 41, 84
16, 236624, Note_on_c, 14, 41, 0
16, 236640, Note_on_c, 14, 41, 92
16, 236804, Note_on_c, 14, 41, 0
16, 236820, Note_on_c, 14, 41, 84
16, 236871, Note_on_c, 14, 41, 0
16, 236880, Note_on_c, 14, 41, 84
16, 236999, Note_on_c, 14, 41, 0
16, 237360, Note_on_c, 14, 41, 92
16, 237479, Note_on_c, 14, 41, 0
16, 237600, Note_on_c, 14, 41, 84
16, 237719, Note_on_c, 14, 41, 0
16, 238080, Note_on_c, 14, 41, 92
16, 238199, Note_on_c, 14, 41, 0
16, 238320, Note_on_c, 14, 41, 84
16, 238439, Note_on_c, 14, 41, 0
16, 242400, Program_c, 14, 45
16, 242640, Note_on_c, 14, 58, 44
16, 242879, Note_on_c, 14, 58, 0
16, 243360, Note_on_c, 14, 53, 44
16, 243599, Note_on_c, 14, 53, 0
16, 244080, Note_on_c, 14, 46, 44
16, 244319, Note_on_c, 14, 46, 0
16, 244800, Note_on_c, 14, 53, 44
16, 245039, Note_on_c, 14, 53, 0
16, 245280, Note_on_c, 14, 55, 44
16, 245519, Note_on_c, 14, 55, 0
16, 245520, Note_on_c, 14, 60, 44
16, 245759, Note_on_c, 14, 60, 0
16, 246000, Note_on_c, 14, 53, 44
16, 246239, Note_on_c, 14, 53, 0
16, 246240, Note_on_c, 14, 58, 44
16, 246479, Note_on_c, 14, 58, 0
16, 246480, Note_on_c, 14, 55, 44
16, 246719, Note_on_c, 14, 55, 0
16, 246720, Note_on_c, 14, 52, 44
16, 246959, Note_on_c, 14, 52, 0
16, 246960, Note_on_c, 14, 60, 44
16, 247199, Note_on_c, 14, 60, 0
16, 248160, Note_on_c, 14, 67, 44
16, 248399, Note_on_c, 14, 67, 0
16, 248400, Note_on_c, 14, 65, 44
16, 248639, Note_on_c, 14, 65, 0
16, 248640, Note_on_c, 14, 60, 44
16, 248879, Note_on_c, 14, 60, 0
16, 248880, Note_on_c, 14, 57, 44
16, 249119, Note_on_c, 14, 57, 0
16, 249120, Note_on_c, 14, 58, 44
16, 249359, Note_on_c, 14, 58, 0
16, 249360, Note_on_c, 14, 55, 44
16, 249599, Note_on_c, 14, 55, 0
16, 249600, Note_on_c, 14, 52, 44
16, 249839, Note_on_c, 14, 52, 0
16, 249840, Note_on_c, 14, 57, 44
16, 250079, Note_on_c, 14, 57, 0
16, 250080, Note_on_c, 14, 53, 44
16, 250319, Note_on_c, 14, 53, 0
16, 250320, Note_on_c, 14, 48, 44
16, 250559, Note_on_c, 14, 48, 0
16, 250560, Note_on_c, 14, 52, 44
16, 250799, Note_on_c, 14, 52, 0
16, 250800, Note_on_c, 14, 57, 44
16, 251039, Note_on_c, 14, 57, 0
16, 251040, Note_on_c, 14, 54, 44
16, 251279, Note_on_c, 14, 54, 0
16, 251280, Note_on_c, 14, 50, 44
16, 251519, Note_on_c, 14, 50, 0
16, 251520, Note_on_c, 14, 55, 44
16, 251759, Note_on_c, 14, 55, 0
16, 251760, Note_on_c, 14, 52, 44
16, 251999, Note_on_c, 14, 52, 0
16, 252000, Note_on_c, 14, 48, 44
16, 252239, Note_on_c, 14, 48, 0
16, 252240, Note_on_c, 14, 53, 44
16, 252479, Note_on_c, 14, 53, 0
16, 252480, Note_on_c, 14, 47, 44
16, 252704, Note_on_c, 14, 47, 0
16, 252718, Program_c, 14, 48
16, 252720, Note_on_c, 14, 47, 44
16, 252809, Note_on_c, 14, 47, 0
16, 252840, Note_on_c, 14, 50, 44
16, 252929, Note_on_c, 14, 50, 0
16, 252960, Note_on_c, 14, 53, 44
16, 253049, Note_on_c, 14, 53, 0
16, 253080, Note_on_c, 14, 56, 44
16, 253169, Note_on_c, 14, 56, 0
16, 253200, Note_on_c, 14, 59, 44
16, 253289, Note_on_c, 14, 59, 0
16, 253320, Note_on_c, 14, 62, 44
16, 253409, Note_on_c, 14, 62, 0
16, 253440, Note_on_c, 14, 65, 44
16, 253619, Note_on_c, 14, 65, 0
16, 254880, Note_on_c, 14, 53, 44
16, 255059, Note_on_c, 14, 53, 0
16, 255360, Note_on_c, 14, 50, 44
16, 255539, Note_on_c, 14, 50, 0
16, 255600, Note_on_c, 14, 47, 44
16, 255689, Note_on_c, 14, 47, 0
16, 255720, Note_on_c, 14, 50, 44
16, 255809, Note_on_c, 14, 50, 0
16, 255840, Note_on_c, 14, 53, 44
16, 255929, Note_on_c, 14, 53, 0
16, 255960, Note_on_c, 14, 56, 44
16, 256049, Note_on_c, 14, 56, 0
16, 256080, Note_on_c, 14, 59, 44
16, 256169, Note_on_c, 14, 59, 0
16, 256200, Note_on_c, 14, 62, 44
16, 256289, Note_on_c, 14, 62, 0
16, 256320, Note_on_c, 14, 65, 44
16, 256499, Note_on_c, 14, 65, 0
16, 257520, Control_c, 14, 11, 55
16, 257760, Note_on_c, 14, 53, 84
16, 257760, Control_c, 14, 11, 58
16, 257939, Note_on_c, 14, 53, 0
16, 258000, Control_c, 14, 11, 61
16, 258240, Note_on_c, 14, 50, 84
16, 258240, Control_c, 14, 11, 64
16, 258419, Note_on_c, 14, 50, 0
16, 258480, Note_on_c, 14, 49, 92
16, 258480, Control_c, 14, 11, 68
16, 258659, Note_on_c, 14, 49, 0
16, 258720, Control_c, 14, 11, 71
16, 258960, Control_c, 14, 11, 74
16, 259200, Note_on_c, 14, 61, 92
16, 259200, Control_c, 14, 11, 78
16, 259379, Note_on_c, 14, 61, 0
16, 259440, Control_c, 14, 11, 81
16, 259680, Control_c, 14, 11, 84
16, 259680, Note_on_c, 14, 58, 84
16, 259859, Note_on_c, 14, 58, 0
16, 259920, Control_c, 14, 11, 88
16, 259920, Note_on_c, 14, 57, 92
16, 260099, Note_on_c, 14, 57, 0
16, 260160, Control_c, 14, 11, 91
16, 260400, Control_c, 14, 11, 94
16, 260400, Note_on_c, 14, 60, 84
16, 260579, Note_on_c, 14, 60, 0
16, 260640, Control_c, 14, 11, 97
16, 260640, Note_on_c, 14, 55, 92
16, 260819, Note_on_c, 14, 55, 0
16, 260880, Control_c, 14, 11, 101
16, 261120, Control_c, 14, 11, 104
16, 261120, Note_on_c, 14, 58, 84
16, 261299, Note_on_c, 14, 58, 0
16, 261360, Note_on_c, 14, 41, 92
16, 261360, Control_c, 14, 11, 107
16, 261539, Note_on_c, 14, 41, 0
16, 261600, Control_c, 14, 11, 111
16, 261840, Control_c, 14, 11, 114
16, 261840, Note_on_c, 14, 44, 84
16, 262019, Note_on_c, 14, 44, 0
16, 262080, Note_on_c, 14, 40, 92
16, 262080, Control_c, 14, 11, 117
16, 262259, Note_on_c, 14, 40, 0
16, 262320, Control_c, 14, 11, 120
16, 262560, Note_on_c, 14, 43, 84
16, 262560, Control_c, 14, 11, 124
16, 262739, Note_on_c, 14, 43, 0
16, 262800, Control_c, 14, 11, 127
16, 262800, Note_on_c, 14, 46, 84
16, 262979, Note_on_c, 14, 46, 0
16, 263280, Note_on_c, 14, 48, 84
16, 263459, Note_on_c, 14, 48, 0
16, 263520, Note_on_c, 14, 45, 84
16, 263699, Note_on_c, 14, 45, 0
16, 264000, Note_on_c, 14, 50, 84
16, 264179, Note_on_c, 14, 50, 0
16, 264240, Note_on_c, 14, 46, 84
16, 264419, Note_on_c, 14, 46, 0
16, 264720, Note_on_c, 14, 43, 84
16, 264899, Note_on_c, 14, 43, 0
16, 264960, Note_on_c, 14, 48, 84
16, 265139, Note_on_c, 14, 48, 0
16, 265440, Note_on_c, 14, 36, 84
16, 265619, Note_on_c, 14, 36, 0
16, 265680, Note_on_c, 14, 53, 84
16, 265851, Note_on_c, 14, 53, 0
16, 265860, Note_on_c, 14, 53, 84
16, 265911, Note_on_c, 14, 53, 0
16, 265920, Note_on_c, 14, 46, 84
16, 266099, Note_on_c, 14, 46, 0
16, 266160, Note_on_c, 14, 46, 84
16, 266331, Note_on_c, 14, 46, 0
16, 266340, Note_on_c, 14, 46, 84
16, 266391, Note_on_c, 14, 46, 0
16, 266400, Note_on_c, 14, 53, 84
16, 266579, Note_on_c, 14, 53, 0
16, 266640, Note_on_c, 14, 46, 84
16, 266811, Note_on_c, 14, 46, 0
16, 266820, Note_on_c, 14, 46, 84
16, 266871, Note_on_c, 14, 46, 0
16, 266880, Note_on_c, 14, 53, 84
16, 267059, Note_on_c, 14, 53, 0
16, 267120, Note_on_c, 14, 46, 84
16, 267291, Note_on_c, 14, 46, 0
16, 267300, Note_on_c, 14, 46, 84
16, 267351, Note_on_c, 14, 46, 0
16, 267360, Note_on_c, 14, 53, 84
16, 267539, Note_on_c, 14, 53, 0
16, 272880, Note_on_c, 14, 53, 84
16, 273051, Note_on_c, 14, 53, 0
16, 273060, Note_on_c, 14, 53, 84
16, 273111, Note_on_c, 14, 53, 0
16, 273120, Note_on_c, 14, 46, 84
16, 273299, Note_on_c, 14, 46, 0
16, 273360, Note_on_c, 14, 46, 84
16, 273531, Note_on_c, 14, 46, 0
16, 273540, Note_on_c, 14, 46, 84
16, 273591, Note_on_c, 14, 46, 0
16, 273600, Note_on_c, 14, 53, 84
16, 273779, Note_on_c, 14, 53, 0
16, 273840, Note_on_c, 14, 46, 84
16, 274011, Note_on_c, 14, 46, 0
16, 274020, Note_on_c, 14, 46, 84
16, 274071, Note_on_c, 14, 46, 0
16, 274080, Note_on_c, 14, 53, 84
16, 274259, Note_on_c, 14, 53, 0
16, 274320, Note_on_c, 14, 46, 84
16, 274491, Note_on_c, 14, 46, 0
16, 274500, Note_on_c, 14, 46, 84
16, 274551, Note_on_c, 14, 46, 0
16, 274560, Note_on_c, 14, 53, 84
16, 274739, Note_on_c, 14, 53, 0
16, 274800, Note_on_c, 14, 60, 48
16, 275039, Note_on_c, 14, 60, 0
16, 275040, Note_on_c, 14, 59, 48
16, 275519, Note_on_c, 14, 59, 0
16, 275520, Note_on_c, 14, 60, 48
16, 275759, Note_on_c, 14, 60, 0
16, 275760, Note_on_c, 14, 58, 48
16, 276239, Note_on_c, 14, 58, 0
16, 276240, Note_on_c, 14, 57, 48
16, 276479, Note_on_c, 14, 57, 0
16, 276480, Note_on_c, 14, 55, 48
16, 276959, Note_on_c, 14, 55, 0
16, 276960, Note_on_c, 14, 53, 48
16, 277199, Note_on_c, 14, 53, 0
16, 277200, Note_on_c, 14, 52, 48
16, 277679, Note_on_c, 14, 52, 0
16, 277680, Note_on_c, 14, 53, 48
16, 277919, Note_on_c, 14, 53, 0
16, 277920, Note_on_c, 14, 55, 48
16, 278399, Note_on_c, 14, 55, 0
16, 278400, Note_on_c, 14, 57, 48
16, 278639, Note_on_c, 14, 57, 0
16, 278640, Note_on_c, 14, 58, 48
16, 279119, Note_on_c, 14, 58, 0
16, 279120, Note_on_c, 14, 55, 48
16, 279359, Note_on_c, 14, 55, 0
16, 279360, Note_on_c, 14, 60, 48
16, 279839, Note_on_c, 14, 60, 0
16, 279840, Note_on_c, 14, 48, 48
16, 280064, Note_on_c, 14, 48, 0
16, 280080, Note_on_c, 14, 65, 52
16, 280199, Note_on_c, 14, 65, 0
16, 280200, Note_on_c, 14, 64, 54
16, 280319, Note_on_c, 14, 64, 0
16, 280320, Note_on_c, 14, 65, 56
16, 280439, Note_on_c, 14, 65, 0
16, 280440, Note_on_c, 14, 64, 58
16, 280559, Note_on_c, 14, 64, 0
16, 280560, Note_on_c, 14, 62, 60
16, 280679, Note_on_c, 14, 62, 0
16, 280680, Note_on_c, 14, 60, 62
16, 280784, Note_on_c, 14, 60, 0
16, 280800, Note_on_c, 14, 58, 64
16, 280919, Note_on_c, 14, 58, 0
16, 280920, Note_on_c, 14, 57, 66
16, 281039, Note_on_c, 14, 57, 0
16, 281040, Note_on_c, 14, 58, 68
16, 281159, Note_on_c, 14, 58, 0
16, 281160, Note_on_c, 14, 57, 70
16, 281279, Note_on_c, 14, 57, 0
16, 281280, Note_on_c, 14, 55, 72
16, 281399, Note_on_c, 14, 55, 0
16, 281400, Note_on_c, 14, 53, 74
16, 281504, Note_on_c, 14, 53, 0
16, 281520, Note_on_c, 14, 53, 76
16, 281639, Note_on_c, 14, 53, 0
16, 281640, Note_on_c, 14, 52, 76
16, 281759, Note_on_c, 14, 52, 0
16, 281760, Note_on_c, 14, 53, 84
16, 281879, Note_on_c, 14, 53, 0
16, 281880, Note_on_c, 14, 52, 76
16, 281999, Note_on_c, 14, 52, 0
16, 282000, Note_on_c, 14, 50, 76
16, 282119, Note_on_c, 14, 50, 0
16, 282120, Note_on_c, 14, 48, 76
16, 282224, Note_on_c, 14, 48, 0
16, 282240, Note_on_c, 14, 48, 84
16, 282329, Note_on_c, 14, 48, 0
16, 282360, Note_on_c, 14, 55, 76
16, 282449, Note_on_c, 14, 55, 0
16, 282480, Note_on_c, 14, 60, 76
16, 282569, Note_on_c, 14, 60, 0
16, 282600, Note_on_c, 14, 48, 76
16, 282689, Note_on_c, 14, 48, 0
16, 282720, Note_on_c, 14, 50, 76
16, 282809, Note_on_c, 14, 50, 0
16, 282840, Note_on_c, 14, 52, 76
16, 282929, Note_on_c, 14, 52, 0
16, 282960, Note_on_c, 14, 53, 84
16, 283049, Note_on_c, 14, 53, 0
16, 283080, Note_on_c, 14, 41, 76
16, 283169, Note_on_c, 14, 41, 0
16, 283200, Note_on_c, 14, 45, 76
16, 283289, Note_on_c, 14, 45, 0
16, 283320, Note_on_c, 14, 48, 76
16, 283409, Note_on_c, 14, 48, 0
16, 283440, Note_on_c, 14, 53, 76
16, 283529, Note_on_c, 14, 53, 0
16, 283560, Note_on_c, 14, 57, 76
16, 283649, Note_on_c, 14, 57, 0
16, 283680, Note_on_c, 14, 48, 84
16, 283769, Note_on_c, 14, 48, 0
16, 283800, Note_on_c, 14, 55, 76
16, 283889, Note_on_c, 14, 55, 0
16, 283920, Note_on_c, 14, 60, 76
16, 284009, Note_on_c, 14, 60, 0
16, 284040, Note_on_c, 14, 60, 76
16, 284129, Note_on_c, 14, 60, 0
16, 284160, Note_on_c, 14, 62, 76
16, 284249, Note_on_c, 14, 62, 0
16, 284280, Note_on_c, 14, 64, 76
16, 284369, Note_on_c, 14, 64, 0
16, 284400, Note_on_c, 14, 65, 84
16, 284489, Note_on_c, 14, 65, 0
16, 284520, Note_on_c, 14, 60, 84
16, 284609, Note_on_c, 14, 60, 0
16, 284640, Note_on_c, 14, 57, 84
16, 284729, Note_on_c, 14, 57, 0
16, 284760, Note_on_c, 14, 65, 84
16, 284849, Note_on_c, 14, 65, 0
16, 284880, Note_on_c, 14, 60, 84
16, 284969, Note_on_c, 14, 60, 0
16, 285000, Note_on_c, 14, 57, 84
16, 285089, Note_on_c, 14, 57, 0
16, 285120, Note_on_c, 14, 53, 84
16, 285224, Note_on_c, 14, 53, 0
16, 285240, Note_on_c, 14, 60, 84
16, 285344, Note_on_c, 14, 60, 0
16, 285360, Note_on_c, 14, 57, 84
16, 285464, Note_on_c, 14, 57, 0
16, 285480, Note_on_c, 14, 53, 84
16, 285584, Note_on_c, 14, 53, 0
16, 285600, Note_on_c, 14, 48, 84
16, 285704, Note_on_c, 14, 48, 0
16, 285720, Note_on_c, 14, 57, 84
16, 285824, Note_on_c, 14, 57, 0
16, 285840, Note_on_c, 14, 53, 84
16, 285944, Note_on_c, 14, 53, 0
16, 285960, Note_on_c, 14, 48, 84
16, 286064, Note_on_c, 14, 48, 0
16, 286080, Note_on_c, 14, 45, 84
16, 286184, Note_on_c, 14, 45, 0
16, 286200, Note_on_c, 14, 53, 84
16, 286304, Note_on_c, 14, 53, 0
16, 286320, Note_on_c, 14, 48, 84
16, 286424, Note_on_c, 14, 48, 0
16, 286440, Note_on_c, 14, 45, 84
16, 286544, Note_on_c, 14, 45, 0
16, 286560, Note_on_c, 14, 41, 84
16, 286664, Note_on_c, 14, 41, 0
16, 286680, Note_on_c, 14, 53, 84
16, 286784, Note_on_c, 14, 53, 0
16, 286800, Note_on_c, 14, 48, 84
16, 286904, Note_on_c, 14, 48, 0
16, 286920, Note_on_c, 14, 45, 84
16, 287024, Note_on_c, 14, 45, 0
16, 287040, Note_on_c, 14, 41, 84
16, 287144, Note_on_c, 14, 41, 0
16, 287160, Note_on_c, 14, 53, 84
16, 287264, Note_on_c, 14, 53, 0
16, 287280, Note_on_c, 14, 41, 92
16, 287519, Note_on_c, 14, 41, 0
16, 287640, Note_on_c, 14, 53, 84
16, 287729, Note_on_c, 14, 53, 0
16, 287760, Note_on_c, 14, 41, 84
16, 287849, Note_on_c, 14, 41, 0
16, 287880, Note_on_c, 14, 53, 84
16, 287969, Note_on_c, 14, 53, 0
16, 288000, Note_on_c, 14, 41, 92
16, 288239, Note_on_c, 14, 41, 0
16, 288360, Note_on_c, 14, 53, 84
16, 288449, Note_on_c, 14, 53, 0
16, 288480, Note_on_c, 14, 41, 84
16, 288569, Note_on_c, 14, 41, 0
16, 288600, Note_on_c, 14, 53, 84
16, 288689, Note_on_c, 14, 53, 0
16, 288720, Note_on_c, 14, 41, 92
16, 288959, Note_on_c, 14, 41, 0
16, 289080, Note_on_c, 14, 53, 84
16, 289169, Note_on_c, 14, 53, 0
16, 289200, Note_on_c, 14, 41, 84
16, 289289, Note_on_c, 14, 41, 0
16, 289320, Note_on_c, 14, 53, 84
16, 289409, Note_on_c, 14, 53, 0
16, 289440, Note_on_c, 14, 41, 92
16, 289679, Note_on_c, 14, 41, 0
16, 289800, Note_on_c, 14, 53, 84
16, 289889, Note_on_c, 14, 53, 0
16, 289920, Note_on_c, 14, 41, 84
16, 290009, Note_on_c, 14, 41, 0
16, 290040, Note_on_c, 14, 53, 84
16, 290129, Note_on_c, 14, 53, 0
16, 290160, Note_on_c, 14, 41, 84
16, 290399, Note_on_c, 14, 41, 0
16, 294960, Program_c, 14, 45
16, 295200, Note_on_c, 14, 49, 44
16, 295439, Note_on_c, 14, 49, 0
16, 297120, Program_c, 14, 48
16, 297360, Note_on_c, 14, 49, 44
16, 297449, Note_on_c, 14, 49, 0
16, 297480, Note_on_c, 14, 51, 44
16, 297569, Note_on_c, 14, 51, 0
16, 297600, Note_on_c, 14, 53, 44
16, 297689, Note_on_c, 14, 53, 0
16, 297720, Note_on_c, 14, 54, 44
16, 297809, Note_on_c, 14, 54, 0
16, 297840, Note_on_c, 14, 56, 44
16, 298019, Note_on_c, 14, 56, 0
16, 298800, Note_on_c, 14, 46, 44
16, 298889, Note_on_c, 14, 46, 0
16, 298920, Note_on_c, 14, 48, 44
16, 299009, Note_on_c, 14, 48, 0
16, 299040, Note_on_c, 14, 50, 44
16, 299129, Note_on_c, 14, 50, 0
16, 299160, Note_on_c, 14, 51, 44
16, 299249, Note_on_c, 14, 51, 0
16, 299280, Note_on_c, 14, 53, 44
16, 299459, Note_on_c, 14, 53, 0
16, 300240, Note_on_c, 14, 51, 44
16, 300329, Note_on_c, 14, 51, 0
16, 300360, Note_on_c, 14, 53, 44
16, 300449, Note_on_c, 14, 53, 0
16, 300480, Note_on_c, 14, 54, 44
16, 300569, Note_on_c, 14, 54, 0
16, 300600, Note_on_c, 14, 56, 44
16, 300689, Note_on_c, 14, 56, 0
16, 300720, Note_on_c, 14, 58, 44
16, 300899, Note_on_c, 14, 58, 0
16, 301680, Note_on_c, 14, 48, 44
16, 301769, Note_on_c, 14, 48, 0
16, 301800, Note_on_c, 14, 50, 45
16, 301889, Note_on_c, 14, 50, 0
16, 301920, Note_on_c, 14, 52, 46
16, 302009, Note_on_c, 14, 52, 0
16, 302040, Note_on_c, 14, 53, 47
16, 302129, Note_on_c, 14, 53, 0
16, 302160, Note_on_c, 14, 55, 48
16, 302339, Note_on_c, 14, 55, 0
16, 303120, Note_on_c, 14, 48, 57
16, 303209, Note_on_c, 14, 48, 0
16, 303240, Note_on_c, 14, 52, 58
16, 303329, Note_on_c, 14, 52, 0
16, 303360, Note_on_c, 14, 53, 59
16, 303449, Note_on_c, 14, 53, 0
16, 303480, Note_on_c, 14, 55, 60
16, 303569, Note_on_c, 14, 55, 0
16, 303600, Note_on_c, 14, 56, 61
16, 303779, Note_on_c, 14, 56, 0
16, 304560, Note_on_c, 14, 48, 70
16, 304649, Note_on_c, 14, 48, 0
16, 304680, Note_on_c, 14, 52, 71
16, 304769, Note_on_c, 14, 52, 0
16, 304800, Note_on_c, 14, 53, 72
16, 304889, Note_on_c, 14, 53, 0
16, 304920, Note_on_c, 14, 55, 74
16, 305009, Note_on_c, 14, 55, 0
16, 305040, Note_on_c, 14, 57, 75
16, 305219, Note_on_c, 14, 57, 0
16, 306000, Note_on_c, 14, 41, 84
16, 306104, Note_on_c, 14, 41, 0
16, 306120, Note_on_c, 14, 53, 84
16, 306224, Note_on_c, 14, 53, 0
16, 306240, Note_on_c, 14, 41, 84
16, 306344, Note_on_c, 14, 41, 0
16, 306360, Note_on_c, 14, 41, 84
16, 306464, Note_on_c, 14, 41, 0
16, 306480, Note_on_c, 14, 41, 84
16, 306584, Note_on_c, 14, 41, 0
16, 306600, Note_on_c, 14, 41, 84
16, 306704, Note_on_c, 14, 41, 0
16, 306720, Note_on_c, 14, 41, 92
16, 306824, Note_on_c, 14, 41, 0
16, 306840, Note_on_c, 14, 53, 84
16, 306944, Note_on_c, 14, 53, 0
16, 306960, Note_on_c, 14, 41, 84
16, 307064, Note_on_c, 14, 41, 0
16, 307080, Note_on_c, 14, 41, 84
16, 307184, Note_on_c, 14, 41, 0
16, 307200, Note_on_c, 14, 41, 84
16, 307304, Note_on_c, 14, 41, 0
16, 307320, Note_on_c, 14, 41, 84
16, 307424, Note_on_c, 14, 41, 0
16, 307440, Note_on_c, 14, 41, 92
16, 307544, Note_on_c, 14, 41, 0
16, 307560, Note_on_c, 14, 53, 84
16, 307664, Note_on_c, 14, 53, 0
16, 307680, Note_on_c, 14, 41, 84
16, 307784, Note_on_c, 14, 41, 0
16, 307800, Note_on_c, 14, 41, 84
16, 307904, Note_on_c, 14, 41, 0
16, 307920, Note_on_c, 14, 41, 84
16, 308024, Note_on_c, 14, 41, 0
16, 308040, Note_on_c, 14, 41, 84
16, 308144, Note_on_c, 14, 41, 0
16, 308160, Note_on_c, 14, 41, 92
16, 308264, Note_on_c, 14, 41, 0
16, 308280, Note_on_c, 14, 53, 84
16, 308384, Note_on_c, 14, 53, 0
16, 308400, Note_on_c, 14, 41, 84
16, 308504, Note_on_c, 14, 41, 0
16, 308520, Note_on_c, 14, 41, 84
16, 308624, Note_on_c, 14, 41, 0
16, 308640, Note_on_c, 14, 41, 84
16, 308744, Note_on_c, 14, 41, 0
16, 308760, Note_on_c, 14, 41, 84
16, 308864, Note_on_c, 14, 41, 0
16, 308880, Note_on_c, 14, 41, 92
16, 308984, Note_on_c, 14, 41, 0
16, 309000, Note_on_c, 14, 53, 84
16, 309104, Note_on_c, 14, 53, 0
16, 309120, Note_on_c, 14, 41, 84
16, 309224, Note_on_c, 14, 41, 0
16, 309240, Note_on_c, 14, 41, 84
16, 309344, Note_on_c, 14, 41, 0
16, 309360, Note_on_c, 14, 41, 84
16, 309464, Note_on_c, 14, 41, 0
16, 309480, Note_on_c, 14, 41, 84
16, 309584, Note_on_c, 14, 41, 0
16, 309600, Note_on_c, 14, 41, 92
16, 309704, Note_on_c, 14, 41, 0
16, 309720, Note_on_c, 14, 53, 84
16, 309824, Note_on_c, 14, 53, 0
16, 309840, Note_on_c, 14, 41, 84
16, 309944, Note_on_c, 14, 41, 0
16, 309960, Note_on_c, 14, 41, 84
16, 310064, Note_on_c, 14, 41, 0
16, 310080, Note_on_c, 14, 41, 84
16, 310184, Note_on_c, 14, 41, 0
16, 310200, Note_on_c, 14, 41, 84
16, 310304, Note_on_c, 14, 41, 0
16, 310320, Note_on_c, 14, 41, 92
16, 310424, Note_on_c, 14, 41, 0
16, 310440, Note_on_c, 14, 41, 84
16, 310544, Note_on_c, 14, 41, 0
16, 310560, Note_on_c, 14, 45, 84
16, 310664, Note_on_c, 14, 45, 0
16, 310680, Note_on_c, 14, 45, 84
16, 310784, Note_on_c, 14, 45, 0
16, 310800, Note_on_c, 14, 48, 84
16, 310904, Note_on_c, 14, 48, 0
16, 310920, Note_on_c, 14, 48, 84
16, 311024, Note_on_c, 14, 48, 0
16, 311040, Note_on_c, 14, 41, 92
16, 311144, Note_on_c, 14, 41, 0
16, 311160, Note_on_c, 14, 41, 84
16, 311264, Note_on_c, 14, 41, 0
16, 311280, Note_on_c, 14, 45, 84
16, 311384, Note_on_c, 14, 45, 0
16, 311400, Note_on_c, 14, 45, 84
16, 311504, Note_on_c, 14, 45, 0
16, 311520, Note_on_c, 14, 48, 84
16, 311624, Note_on_c, 14, 48, 0
16, 311640, Note_on_c, 14, 48, 84
16, 311744, Note_on_c, 14, 48, 0
16, 311760, Note_on_c, 14, 41, 92
16, 311864, Note_on_c, 14, 41, 0
16, 311880, Note_on_c, 14, 41, 84
16, 311984, Note_on_c, 14, 41, 0
16, 312000, Note_on_c, 14, 45, 84
16, 312104, Note_on_c, 14, 45, 0
16, 312120, Note_on_c, 14, 45, 84
16, 312224, Note_on_c, 14, 45, 0
16, 312240, Note_on_c, 14, 48, 84
16, 312344, Note_on_c, 14, 48, 0
16, 312360, Note_on_c, 14, 48, 84
16, 312464, Note_on_c, 14, 48, 0
16, 312480, Note_on_c, 14, 48, 76
16, 313199, Note_on_c, 14, 48, 0
16, 314400, Control_c, 14, 11, 80
16, 314760, Note_on_c, 14, 55, 76
16, 314879, Note_on_c, 14, 55, 0
16, 314880, Note_on_c, 14, 50, 76
16, 314999, Note_on_c, 14, 50, 0
16, 315000, Note_on_c, 14, 52, 76
16, 315119, Note_on_c, 14, 52, 0
16, 315120, Note_on_c, 14, 53, 76
16, 315239, Note_on_c, 14, 53, 0
16, 315240, Note_on_c, 14, 48, 76
16, 315344, Note_on_c, 14, 48, 0
16, 315360, Note_on_c, 14, 46, 76
16, 315839, Note_on_c, 14, 46, 0
16, 315840, Note_on_c, 14, 45, 76
16, 316064, Note_on_c, 14, 45, 0
16, 316080, Note_on_c, 14, 46, 76
16, 316320, Control_c, 14, 11, 84
16, 316559, Note_on_c, 14, 46, 0
16, 316560, Control_c, 14, 11, 88
16, 316560, Note_on_c, 14, 45, 76
16, 316784, Note_on_c, 14, 45, 0
16, 316800, Note_on_c, 14, 46, 76
16, 316800, Control_c, 14, 11, 92
16, 317040, Control_c, 14, 11, 96
16, 317279, Note_on_c, 14, 46, 0
16, 317280, Note_on_c, 14, 45, 76
16, 317280, Control_c, 14, 11, 100
16, 317504, Note_on_c, 14, 45, 0
16, 317520, Control_c, 14, 11, 104
16, 317520, Note_on_c, 14, 46, 76
16, 317760, Control_c, 14, 11, 107
16, 317999, Note_on_c, 14, 46, 0
16, 318000, Note_on_c, 14, 45, 76
16, 318000, Control_c, 14, 11, 111
16, 318224, Note_on_c, 14, 45, 0
16, 318240, Control_c, 14, 11, 115
16, 318240, Note_on_c, 14, 46, 76
16, 318480, Control_c, 14, 11, 119
16, 318719, Note_on_c, 14, 46, 0
16, 318720, Control_c, 14, 11, 123
16, 318720, Note_on_c, 14, 48, 76
16, 318944, Note_on_c, 14, 48, 0
16, 318960, Note_on_c, 14, 53, 76
16, 318960, Control_c, 14, 11, 127
16, 319049, Note_on_c, 14, 53, 0
16, 319080, Note_on_c, 14, 53, 76
16, 319199, Note_on_c, 14, 53, 0
16, 319200, Note_on_c, 14, 50, 76
16, 319319, Note_on_c, 14, 50, 0
16, 319320, Note_on_c, 14, 52, 76
16, 319439, Note_on_c, 14, 52, 0
16, 319440, Note_on_c, 14, 53, 84
16, 319559, Note_on_c, 14, 53, 0
16, 319560, Note_on_c, 14, 48, 76
16, 319679, Note_on_c, 14, 48, 0
16, 319800, Note_on_c, 14, 53, 76
16, 319919, Note_on_c, 14, 53, 0
16, 319920, Note_on_c, 14, 50, 76
16, 320039, Note_on_c, 14, 50, 0
16, 320040, Note_on_c, 14, 52, 76
16, 320159, Note_on_c, 14, 52, 0
16, 320160, Note_on_c, 14, 53, 84
16, 320279, Note_on_c, 14, 53, 0
16, 320280, Note_on_c, 14, 48, 76
16, 320399, Note_on_c, 14, 48, 0
16, 320520, Note_on_c, 14, 53, 76
16, 320639, Note_on_c, 14, 53, 0
16, 320640, Note_on_c, 14, 50, 76
16, 320759, Note_on_c, 14, 50, 0
16, 320760, Note_on_c, 14, 52, 76
16, 320879, Note_on_c, 14, 52, 0
16, 320880, Note_on_c, 14, 53, 84
16, 320999, Note_on_c, 14, 53, 0
16, 321000, Note_on_c, 14, 48, 76
16, 321119, Note_on_c, 14, 48, 0
16, 321240, Note_on_c, 14, 53, 76
16, 321359, Note_on_c, 14, 53, 0
16, 321360, Note_on_c, 14, 50, 76
16, 321479, Note_on_c, 14, 50, 0
16, 321480, Note_on_c, 14, 52, 76
16, 321599, Note_on_c, 14, 52, 0
16, 321600, Note_on_c, 14, 53, 84
16, 321719, Note_on_c, 14, 53, 0
16, 321720, Note_on_c, 14, 48, 76
16, 321839, Note_on_c, 14, 48, 0
16, 321960, Note_on_c, 14, 50, 76
16, 322079, Note_on_c, 14, 50, 0
16, 322080, Note_on_c, 14, 48, 76
16, 322199, Note_on_c, 14, 48, 0
16, 322200, Note_on_c, 14, 50, 76
16, 322319, Note_on_c, 14, 50, 0
16, 322320, Note_on_c, 14, 51, 84
16, 322439, Note_on_c, 14, 51, 0
16, 322440, Note_on_c, 14, 45, 76
16, 322559, Note_on_c, 14, 45, 0
16, 322680, Note_on_c, 14, 58, 76
16, 322799, Note_on_c, 14, 58, 0
16, 322800, Note_on_c, 14, 57, 76
16, 322919, Note_on_c, 14, 57, 0
16, 322920, Note_on_c, 14, 58, 76
16, 323039, Note_on_c, 14, 58, 0
16, 323040, Note_on_c, 14, 60, 84
16, 323159, Note_on_c, 14, 60, 0
16, 323160, Note_on_c, 14, 55, 76
16, 323279, Note_on_c, 14, 55, 0
16, 323400, Note_on_c, 14, 57, 76
16, 323519, Note_on_c, 14, 57, 0
16, 323520, Note_on_c, 14, 55, 76
16, 323639, Note_on_c, 14, 55, 0
16, 323640, Note_on_c, 14, 57, 76
16, 323759, Note_on_c, 14, 57, 0
16, 323760, Note_on_c, 14, 58, 84
16, 323879, Note_on_c, 14, 58, 0
16, 323880, Note_on_c, 14, 52, 76
16, 323999, Note_on_c, 14, 52, 0
16, 324120, Note_on_c, 14, 53, 76
16, 324239, Note_on_c, 14, 53, 0
16, 324240, Note_on_c, 14, 52, 76
16, 324359, Note_on_c, 14, 52, 0
16, 324360, Note_on_c, 14, 53, 76
16, 324464, Note_on_c, 14, 53, 0
16, 324480, Note_on_c, 14, 50, 84
16, 324569, Note_on_c, 14, 50, 0
16, 324600, Note_on_c, 14, 50, 76
16, 324689, Note_on_c, 14, 50, 0
16, 324720, Note_on_c, 14, 49, 92
16, 324824, Note_on_c, 14, 49, 0
16, 324840, Note_on_c, 14, 49, 92
16, 324944, Note_on_c, 14, 49, 0
16, 324960, Note_on_c, 14, 49, 92
16, 325064, Note_on_c, 14, 49, 0
16, 325080, Note_on_c, 14, 49, 92
16, 325184, Note_on_c, 14, 49, 0
16, 325200, Note_on_c, 14, 49, 92
16, 325304, Note_on_c, 14, 49, 0
16, 325320, Note_on_c, 14, 49, 92
16, 325424, Note_on_c, 14, 49, 0
16, 325440, Note_on_c, 14, 49, 92
16, 325544, Note_on_c, 14, 49, 0
16, 325560, Note_on_c, 14, 49, 92
16, 325664, Note_on_c, 14, 49, 0
16, 325680, Note_on_c, 14, 49, 92
16, 325784, Note_on_c, 14, 49, 0
16, 325800, Note_on_c, 14, 49, 92
16, 325904, Note_on_c, 14, 49, 0
16, 325920, Note_on_c, 14, 48, 92
16, 326024, Note_on_c, 14, 48, 0
16, 326040, Note_on_c, 14, 48, 92
16, 326144, Note_on_c, 14, 48, 0
16, 326160, Note_on_c, 14, 41, 92
16, 326160, Note_on_c, 14, 48, 92
16, 326279, Note_on_c, 14, 41, 0
16, 326279, Note_on_c, 14, 48, 0
16, 326880, Note_on_c, 14, 41, 92
16, 326880, Note_on_c, 14, 48, 92
16, 326999, Note_on_c, 14, 41, 0
16, 326999, Note_on_c, 14, 48, 0
16, 327600, Note_on_c, 14, 48, 92
16, 327600, Note_on_c, 14, 41, 92
16, 327719, Note_on_c, 14, 48, 0
16, 327719, Note_on_c, 14, 41, 0
16, 327840, Note_on_c, 14, 57, 92
16, 327959, Note_on_c, 14, 57, 0
16, 327960, Note_on_c, 14, 55, 92
16, 328064, Note_on_c, 14, 55, 0
16, 328080, Note_on_c, 14, 53, 92
16, 328169, Note_on_c, 14, 53, 0
16, 328200, Note_on_c, 14, 57, 92
16, 328289, Note_on_c, 14, 57, 0
16, 328320, Note_on_c, 14, 48, 92
16, 328439, Note_on_c, 14, 48, 0
16, 328560, Note_on_c, 14, 48, 92
16, 328679, Note_on_c, 14, 48, 0
16, 328800, Note_on_c, 14, 48, 92
16, 328919, Note_on_c, 14, 48, 0
16, 329040, Note_on_c, 14, 41, 92
16, 329040, Note_on_c, 14, 48, 92
16, 329159, Note_on_c, 14, 41, 0
16, 329159, Note_on_c, 14, 48, 0
16, 329760, Note_on_c, 14, 48, 92
16, 329760, Note_on_c, 14, 41, 92
16, 329879, Note_on_c, 14, 48, 0
16, 329879, Note_on_c, 14, 41, 0
16, 330480, Note_on_c, 14, 41, 92
16, 330480, Note_on_c, 14, 48, 92
16, 330599, Note_on_c, 14, 41, 0
16, 330599, Note_on_c, 14, 48, 0
16, 330720, Note_on_c, 14, 57, 92
16, 330839, Note_on_c, 14, 57, 0
16, 330840, Note_on_c, 14, 55, 92
16, 330944, Note_on_c, 14, 55, 0
16, 330960, Note_on_c, 14, 53, 92
16, 331049, Note_on_c, 14, 53, 0
16, 331080, Note_on_c, 14, 57, 92
16, 331169, Note_on_c, 14, 57, 0
16, 331200, Note_on_c, 14, 48, 92
16, 331319, Note_on_c, 14, 48, 0
16, 331440, Note_on_c, 14, 48, 92
16, 331559, Note_on_c, 14, 48, 0
16, 331680, Note_on_c, 14, 48, 92
16, 331799, Note_on_c, 14, 48, 0
16, 332640, Note_on_c, 14, 53, 92
16, 332759, Note_on_c, 14, 53, 0
16, 332880, Note_on_c, 14, 53, 92
16, 332999, Note_on_c, 14, 53, 0
16, 333120, Note_on_c, 14, 53, 92
16, 333239, Note_on_c, 14, 53, 0
16, 333840, Program_c, 14, 45
16, 334080, Note_on_c, 14, 48, 44
16, 334319, Note_on_c, 14, 48, 0
16, 334320, Note_on_c, 14, 48, 44
16, 334559, Note_on_c, 14, 48, 0
16, 334560, Note_on_c, 14, 48, 44
16, 334799, Note_on_c, 14, 48, 0
16, 335520, Note_on_c, 14, 41, 44
16, 335759, Note_on_c, 14, 41, 0
16, 335760, Note_on_c, 14, 41, 44
16, 335999, Note_on_c, 14, 41, 0
16, 336000, Note_on_c, 14, 41, 44
16, 336239, Note_on_c, 14, 41, 0
16, 336960, Control_c, 14, 11, 127
16, 336960, Note_on_c, 14, 41, 44
16, 337140, Control_c, 14, 11, 126
16, 337199, Note_on_c, 14, 41, 0
16, 337200, Note_on_c, 14, 41, 44
16, 337320, Control_c, 14, 11, 125
16, 337439, Note_on_c, 14, 41, 0
16, 337500, Control_c, 14, 11, 123
16, 337680, Control_c, 14, 11, 122
16, 337860, Control_c, 14, 11, 121
16, 338040, Control_c, 14, 11, 120
16, 338220, Control_c, 14, 11, 118
16, 338400, Control_c, 14, 11, 117
16, 338400, Note_on_c, 14, 41, 44
16, 338580, Control_c, 14, 11, 116
16, 338639, Note_on_c, 14, 41, 0
16, 338640, Note_on_c, 14, 41, 44
16, 338760, Control_c, 14, 11, 115
16, 338879, Note_on_c, 14, 41, 0
16, 338940, Control_c, 14, 11, 113
16, 341040, Control_c, 14, 11, 127
16, 341040, Program_c, 14, 48
16, 341280, Note_on_c, 14, 48, 44
16, 341519, Note_on_c, 14, 48, 0
16, 341520, Note_on_c, 14, 45, 44
16, 341639, Note_on_c, 14, 45, 0
16, 341640, Note_on_c, 14, 46, 44
16, 341744, Note_on_c, 14, 46, 0
16, 341760, Note_on_c, 14, 48, 44
16, 341849, Note_on_c, 14, 48, 0
16, 341880, Note_on_c, 14, 45, 44
16, 341969, Note_on_c, 14, 45, 0
16, 342000, Note_on_c, 14, 41, 44
16, 342239, Note_on_c, 14, 41, 0
16, 342239, End_track
17, 0, Start_track
17, 0, Title_t, "Contrabass"
17, 0, MIDI_port, 0
17, 0, Program_c, 15, 48
17, 0, Control_c, 15, 7, 88
17, 0, Control_c, 15, 10, 100
17, 0, Control_c, 15, 11, 127
17, 0, Note_on_c, 15, 29, 76
17, 719, Note_on_c, 15, 29, 0
17, 720, Note_on_c, 15, 29, 76
17, 1184, Note_on_c, 15, 29, 0
17, 1200, Note_on_c, 15, 29, 76
17, 1289, Note_on_c, 15, 29, 0
17, 1320, Note_on_c, 15, 29, 76
17, 1409, Note_on_c, 15, 29, 0
17, 1440, Note_on_c, 15, 31, 76
17, 1544, Note_on_c, 15, 31, 0
17, 1560, Note_on_c, 15, 31, 76
17, 1664, Note_on_c, 15, 31, 0
17, 1680, Note_on_c, 15, 31, 76
17, 1769, Note_on_c, 15, 31, 0
17, 1800, Note_on_c, 15, 41, 76
17, 1889, Note_on_c, 15, 41, 0
17, 1920, Note_on_c, 15, 40, 76
17, 2009, Note_on_c, 15, 40, 0
17, 2040, Note_on_c, 15, 38, 76
17, 2129, Note_on_c, 15, 38, 0
17, 2160, Note_on_c, 15, 36, 76
17, 2399, Note_on_c, 15, 36, 0
17, 5760, Note_on_c, 15, 36, 76
17, 6344, Note_on_c, 15, 36, 0
17, 6360, Note_on_c, 15, 38, 76
17, 6449, Note_on_c, 15, 38, 0
17, 6480, Note_on_c, 15, 39, 76
17, 6569, Note_on_c, 15, 39, 0
17, 6600, Note_on_c, 15, 40, 76
17, 6689, Note_on_c, 15, 40, 0
17, 6720, Note_on_c, 15, 41, 76
17, 6809, Note_on_c, 15, 41, 0
17, 6840, Note_on_c, 15, 43, 76
17, 6929, Note_on_c, 15, 43, 0
17, 6960, Note_on_c, 15, 45, 76
17, 7049, Note_on_c, 15, 45, 0
17, 7080, Note_on_c, 15, 46, 76
17, 7169, Note_on_c, 15, 46, 0
17, 7200, Note_on_c, 15, 48, 76
17, 7319, Note_on_c, 15, 48, 0
17, 7440, Note_on_c, 15, 36, 76
17, 7559, Note_on_c, 15, 36, 0
17, 7680, Note_on_c, 15, 36, 76
17, 7799, Note_on_c, 15, 36, 0
17, 7920, Note_on_c, 15, 41, 76
17, 8744, Note_on_c, 15, 41, 0
17, 8760, Note_on_c, 15, 41, 76
17, 8864, Note_on_c, 15, 41, 0
17, 8880, Note_on_c, 15, 41, 76
17, 8984, Note_on_c, 15, 41, 0
17, 9000, Note_on_c, 15, 41, 76
17, 9104, Note_on_c, 15, 41, 0
17, 9120, Note_on_c, 15, 41, 76
17, 9224, Note_on_c, 15, 41, 0
17, 9240, Note_on_c, 15, 41, 76
17, 9344, Note_on_c, 15, 41, 0
17, 9360, Note_on_c, 15, 38, 76
17, 10184, Note_on_c, 15, 38, 0
17, 10200, Note_on_c, 15, 38, 76
17, 10304, Note_on_c, 15, 38, 0
17, 10320, Note_on_c, 15, 38, 76
17, 10424, Note_on_c, 15, 38, 0
17, 10440, Note_on_c, 15, 38, 76
17, 10544, Note_on_c, 15, 38, 0
17, 10560, Note_on_c, 15, 38, 76
17, 10664, Note_on_c, 15, 38, 0
17, 10680, Note_on_c, 15, 38, 76
17, 10784, Note_on_c, 15, 38, 0
17, 10800, Note_on_c, 15, 34, 76
17, 11624, Note_on_c, 15, 34, 0
17, 11640, Note_on_c, 15, 34, 76
17, 11744, Note_on_c, 15, 34, 0
17, 11760, Note_on_c, 15, 34, 76
17, 11864, Note_on_c, 15, 34, 0
17, 11880, Note_on_c, 15, 34, 76
17, 11984, Note_on_c, 15, 34, 0
17, 12000, Note_on_c, 15, 34, 76
17, 12104, Note_on_c, 15, 34, 0
17, 12120, Note_on_c, 15, 34, 76
17, 12224, Note_on_c, 15, 34, 0
17, 12240, Note_on_c, 15, 36, 76
17, 12704, Note_on_c, 15, 36, 0
17, 12720, Note_on_c, 15, 36, 76
17, 12839, Note_on_c, 15, 36, 0
17, 12960, Note_on_c, 15, 36, 76
17, 13079, Note_on_c, 15, 36, 0
17, 13200, Note_on_c, 15, 36, 76
17, 13319, Note_on_c, 15, 36, 0
17, 13440, Note_on_c, 15, 36, 76
17, 13559, Note_on_c, 15, 36, 0
17, 13680, Note_on_c, 15, 41, 76
17, 14504, Note_on_c, 15, 41, 0
17, 14520, Note_on_c, 15, 41, 76
17, 14624, Note_on_c, 15, 41, 0
17, 14640, Note_on_c, 15, 41, 76
17, 14744, Note_on_c, 15, 41, 0
17, 14760, Note_on_c, 15, 41, 76
17, 14864, Note_on_c, 15, 41, 0
17, 14880, Note_on_c, 15, 41, 76
17, 14984, Note_on_c, 15, 41, 0
17, 15000, Note_on_c, 15, 41, 76
17, 15104, Note_on_c, 15, 41, 0
17, 15120, Note_on_c, 15, 38, 76
17, 15944, Note_on_c, 15, 38, 0
17, 15960, Note_on_c, 15, 38, 76
17, 16064, Note_on_c, 15, 38, 0
17, 16080, Note_on_c, 15, 38, 76
17, 16184, Note_on_c, 15, 38, 0
17, 16200, Note_on_c, 15, 38, 76
17, 16304, Note_on_c, 15, 38, 0
17, 16320, Note_on_c, 15, 38, 76
17, 16424, Note_on_c, 15, 38, 0
17, 16440, Note_on_c, 15, 38, 76
17, 16544, Note_on_c, 15, 38, 0
17, 16560, Note_on_c, 15, 29, 76
17, 17384, Note_on_c, 15, 29, 0
17, 17400, Note_on_c, 15, 29, 76
17, 17504, Note_on_c, 15, 29, 0
17, 17520, Note_on_c, 15, 29, 76
17, 17624, Note_on_c, 15, 29, 0
17, 17640, Note_on_c, 15, 29, 76
17, 17744, Note_on_c, 15, 29, 0
17, 17760, Note_on_c, 15, 29, 76
17, 17864, Note_on_c, 15, 29, 0
17, 17880, Note_on_c, 15, 29, 76
17, 17984, Note_on_c, 15, 29, 0
17, 18000, Note_on_c, 15, 29, 76
17, 18824, Note_on_c, 15, 29, 0
17, 18840, Note_on_c, 15, 29, 76
17, 18944, Note_on_c, 15, 29, 0
17, 18960, Note_on_c, 15, 29, 76
17, 19064, Note_on_c, 15, 29, 0
17, 19080, Note_on_c, 15, 29, 76
17, 19184, Note_on_c, 15, 29, 0
17, 19200, Note_on_c, 15, 29, 76
17, 19304, Note_on_c, 15, 29, 0
17, 19320, Note_on_c, 15, 29, 76
17, 19424, Note_on_c, 15, 29, 0
17, 19440, Note_on_c, 15, 29, 76
17, 19904, Note_on_c, 15, 29, 0
17, 19920, Note_on_c, 15, 29, 84
17, 20091, Note_on_c, 15, 29, 0
17, 20100, Note_on_c, 15, 29, 76
17, 20151, Note_on_c, 15, 29, 0
17, 20160, Note_on_c, 15, 29, 76
17, 20624, Note_on_c, 15, 29, 0
17, 20640, Note_on_c, 15, 29, 84
17, 20811, Note_on_c, 15, 29, 0
17, 20820, Note_on_c, 15, 29, 76
17, 20871, Note_on_c, 15, 29, 0
17, 20880, Note_on_c, 15, 29, 76
17, 20999, Note_on_c, 15, 29, 0
17, 21360, Note_on_c, 15, 29, 84
17, 21479, Note_on_c, 15, 29, 0
17, 21600, Note_on_c, 15, 29, 76
17, 21719, Note_on_c, 15, 29, 0
17, 22080, Note_on_c, 15, 29, 84
17, 22199, Note_on_c, 15, 29, 0
17, 22320, Note_on_c, 15, 29, 76
17, 22439, Note_on_c, 15, 29, 0
17, 25920, Program_c, 15, 45
17, 26400, Note_on_c, 15, 52, 44
17, 26639, Note_on_c, 15, 52, 0
17, 26640, Note_on_c, 15, 50, 44
17, 26879, Note_on_c, 15, 50, 0
17, 27360, Note_on_c, 15, 45, 44
17, 27599, Note_on_c, 15, 45, 0
17, 28080, Note_on_c, 15, 38, 44
17, 28319, Note_on_c, 15, 38, 0
17, 28800, Note_on_c, 15, 33, 44
17, 29039, Note_on_c, 15, 33, 0
17, 29280, Note_on_c, 15, 33, 44
17, 29519, Note_on_c, 15, 33, 0
17, 29520, Note_on_c, 15, 35, 44
17, 29759, Note_on_c, 15, 35, 0
17, 30000, Note_on_c, 15, 47, 44
17, 30239, Note_on_c, 15, 47, 0
17, 30240, Note_on_c, 15, 48, 44
17, 30479, Note_on_c, 15, 48, 0
17, 30720, Note_on_c, 15, 42, 44
17, 30959, Note_on_c, 15, 42, 0
17, 30960, Note_on_c, 15, 43, 44
17, 31199, Note_on_c, 15, 43, 0
17, 32400, Note_on_c, 15, 48, 44
17, 32639, Note_on_c, 15, 48, 0
17, 32640, Note_on_c, 15, 43, 44
17, 32879, Note_on_c, 15, 43, 0
17, 32880, Note_on_c, 15, 40, 44
17, 33119, Note_on_c, 15, 40, 0
17, 33120, Note_on_c, 15, 41, 44
17, 33359, Note_on_c, 15, 41, 0
17, 33360, Note_on_c, 15, 38, 44
17, 33599, Note_on_c, 15, 38, 0
17, 33600, Note_on_c, 15, 35, 44
17, 33839, Note_on_c, 15, 35, 0
17, 33840, Note_on_c, 15, 40, 44
17, 34079, Note_on_c, 15, 40, 0
17, 34080, Note_on_c, 15, 36, 44
17, 34319, Note_on_c, 15, 36, 0
17, 34320, Note_on_c, 15, 31, 44
17, 34559, Note_on_c, 15, 31, 0
17, 34560, Note_on_c, 15, 31, 44
17, 34799, Note_on_c, 15, 31, 0
17, 34800, Note_on_c, 15, 47, 44
17, 35039, Note_on_c, 15, 47, 0
17, 35040, Note_on_c, 15, 43, 44
17, 35279, Note_on_c, 15, 43, 0
17, 35280, Note_on_c, 15, 45, 44
17, 35519, Note_on_c, 15, 45, 0
17, 35520, Note_on_c, 15, 50, 44
17, 35759, Note_on_c, 15, 50, 0
17, 35760, Note_on_c, 15, 47, 44
17, 35999, Note_on_c, 15, 47, 0
17, 36000, Note_on_c, 15, 43, 44
17, 36239, Note_on_c, 15, 43, 0
17, 36240, Note_on_c, 15, 48, 44
17, 36479, Note_on_c, 15, 48, 0
17, 36480, Note_on_c, 15, 45, 44
17, 36704, Note_on_c, 15, 45, 0
17, 36718, Program_c, 15, 48
17, 36720, Note_on_c, 15, 30, 44
17, 36809, Note_on_c, 15, 30, 0
17, 36840, Note_on_c, 15, 33, 44
17, 36929, Note_on_c, 15, 33, 0
17, 36960, Note_on_c, 15, 36, 44
17, 37049, Note_on_c, 15, 36, 0
17, 37080, Note_on_c, 15, 39, 44
17, 37169, Note_on_c, 15, 39, 0
17, 37200, Note_on_c, 15, 42, 44
17, 37289, Note_on_c, 15, 42, 0
17, 37320, Note_on_c, 15, 45, 44
17, 37409, Note_on_c, 15, 45, 0
17, 37440, Note_on_c, 15, 48, 44
17, 37619, Note_on_c, 15, 48, 0
17, 38880, Note_on_c, 15, 36, 44
17, 39059, Note_on_c, 15, 36, 0
17, 39360, Note_on_c, 15, 33, 44
17, 39539, Note_on_c, 15, 33, 0
17, 39600, Note_on_c, 15, 30, 44
17, 39689, Note_on_c, 15, 30, 0
17, 39720, Note_on_c, 15, 33, 44
17, 39809, Note_on_c, 15, 33, 0
17, 39840, Note_on_c, 15, 36, 44
17, 39929, Note_on_c, 15, 36, 0
17, 39960, Note_on_c, 15, 39, 44
17, 40049, Note_on_c, 15, 39, 0
17, 40080, Note_on_c, 15, 42, 44
17, 40169, Note_on_c, 15, 42, 0
17, 40200, Note_on_c, 15, 45, 44
17, 40289, Note_on_c, 15, 45, 0
17, 40320, Note_on_c, 15, 48, 44
17, 40499, Note_on_c, 15, 48, 0
17, 41520, Control_c, 15, 11, 96
17, 41760, Control_c, 15, 11, 96
17, 41760, Note_on_c, 15, 48, 76
17, 41820, Control_c, 15, 11, 99
17, 41880, Control_c, 15, 11, 101
17, 41939, Note_on_c, 15, 48, 0
17, 41940, Control_c, 15, 11, 104
17, 42000, Control_c, 15, 11, 106
17, 42060, Control_c, 15, 11, 109
17, 42120, Control_c, 15, 11, 112
17, 42180, Control_c, 15, 11, 114
17, 42240, Control_c, 15, 11, 117
17, 42240, Note_on_c, 15, 45, 76
17, 42300, Control_c, 15, 11, 119
17, 42360, Control_c, 15, 11, 122
17, 42419, Note_on_c, 15, 45, 0
17, 42420, Control_c, 15, 11, 127
17, 42480, Note_on_c, 15, 44, 76
17, 42659, Note_on_c, 15, 44, 0
17, 43200, Note_on_c, 15, 50, 84
17, 43379, Note_on_c, 15, 50, 0
17, 43680, Note_on_c, 15, 47, 76
17, 43859, Note_on_c, 15, 47, 0
17, 43920, Note_on_c, 15, 43, 84
17, 44099, Note_on_c, 15, 43, 0
17, 44400, Note_on_c, 15, 46, 76
17, 44579, Note_on_c, 15, 46, 0
17, 44640, Note_on_c, 15, 41, 84
17, 44819, Note_on_c, 15, 41, 0
17, 45120, Note_on_c, 15, 44, 76
17, 45299, Note_on_c, 15, 44, 0
17, 45360, Note_on_c, 15, 39, 84
17, 45539, Note_on_c, 15, 39, 0
17, 45840, Note_on_c, 15, 48, 76
17, 46019, Note_on_c, 15, 48, 0
17, 46080, Note_on_c, 15, 38, 84
17, 46259, Note_on_c, 15, 38, 0
17, 46560, Note_on_c, 15, 47, 76
17, 46739, Note_on_c, 15, 47, 0
17, 46800, Note_on_c, 15, 38, 84
17, 46979, Note_on_c, 15, 38, 0
17, 47280, Note_on_c, 15, 41, 84
17, 47459, Note_on_c, 15, 41, 0
17, 47520, Note_on_c, 15, 40, 84
17, 47699, Note_on_c, 15, 40, 0
17, 48000, Note_on_c, 15, 45, 84
17, 48179, Note_on_c, 15, 45, 0
17, 48240, Note_on_c, 15, 41, 84
17, 48419, Note_on_c, 15, 41, 0
17, 48720, Note_on_c, 15, 38, 84
17, 48899, Note_on_c, 15, 38, 0
17, 48960, Note_on_c, 15, 43, 84
17, 49139, Note_on_c, 15, 43, 0
17, 49440, Note_on_c, 15, 31, 84
17, 49619, Note_on_c, 15, 31, 0
17, 49680, Note_on_c, 15, 36, 84
17, 49851, Note_on_c, 15, 36, 0
17, 49860, Note_on_c, 15, 36, 84
17, 49911, Note_on_c, 15, 36, 0
17, 49920, Note_on_c, 15, 29, 84
17, 50099, Note_on_c, 15, 29, 0
17, 50160, Note_on_c, 15, 29, 84
17, 50331, Note_on_c, 15, 29, 0
17, 50340, Note_on_c, 15, 29, 84
17, 50391, Note_on_c, 15, 29, 0
17, 50400, Note_on_c, 15, 36, 84
17, 50579, Note_on_c, 15, 36, 0
17, 50640, Note_on_c, 15, 29, 84
17, 50811, Note_on_c, 15, 29, 0
17, 50820, Note_on_c, 15, 29, 84
17, 50871, Note_on_c, 15, 29, 0
17, 50880, Note_on_c, 15, 36, 84
17, 51059, Note_on_c, 15, 36, 0
17, 51120, Note_on_c, 15, 29, 84
17, 51291, Note_on_c, 15, 29, 0
17, 51300, Note_on_c, 15, 29, 84
17, 51351, Note_on_c, 15, 29, 0
17, 51360, Note_on_c, 15, 36, 84
17, 51539, Note_on_c, 15, 36, 0
17, 56880, Note_on_c, 15, 36, 84
17, 57051, Note_on_c, 15, 36, 0
17, 57060, Note_on_c, 15, 36, 84
17, 57111, Note_on_c, 15, 36, 0
17, 57120, Note_on_c, 15, 29, 84
17, 57299, Note_on_c, 15, 29, 0
17, 57360, Note_on_c, 15, 29, 84
17, 57531, Note_on_c, 15, 29, 0
17, 57540, Note_on_c, 15, 29, 84
17, 57591, Note_on_c, 15, 29, 0
17, 57600, Note_on_c, 15, 36, 84
17, 57779, Note_on_c, 15, 36, 0
17, 57840, Note_on_c, 15, 29, 84
17, 58011, Note_on_c, 15, 29, 0
17, 58020, Note_on_c, 15, 29, 84
17, 58071, Note_on_c, 15, 29, 0
17, 58080, Note_on_c, 15, 36, 84
17, 58259, Note_on_c, 15, 36, 0
17, 58320, Note_on_c, 15, 29, 84
17, 58491, Note_on_c, 15, 29, 0
17, 58500, Note_on_c, 15, 29, 84
17, 58551, Note_on_c, 15, 29, 0
17, 58560, Note_on_c, 15, 36, 84
17, 58739, Note_on_c, 15, 36, 0
17, 64080, Note_on_c, 15, 48, 52
17, 64319, Note_on_c, 15, 48, 0
17, 64800, Note_on_c, 15, 43, 64
17, 65039, Note_on_c, 15, 43, 0
17, 65520, Note_on_c, 15, 36, 76
17, 65639, Note_on_c, 15, 36, 0
17, 65640, Note_on_c, 15, 35, 76
17, 65759, Note_on_c, 15, 35, 0
17, 65760, Note_on_c, 15, 36, 84
17, 65879, Note_on_c, 15, 36, 0
17, 65880, Note_on_c, 15, 35, 76
17, 65999, Note_on_c, 15, 35, 0
17, 66000, Note_on_c, 15, 33, 76
17, 66119, Note_on_c, 15, 33, 0
17, 66120, Note_on_c, 15, 31, 76
17, 66224, Note_on_c, 15, 31, 0
17, 66240, Note_on_c, 15, 31, 84
17, 66329, Note_on_c, 15, 31, 0
17, 66360, Note_on_c, 15, 38, 76
17, 66449, Note_on_c, 15, 38, 0
17, 66480, Note_on_c, 15, 43, 76
17, 66569, Note_on_c, 15, 43, 0
17, 66600, Note_on_c, 15, 43, 76
17, 66689, Note_on_c, 15, 43, 0
17, 66720, Note_on_c, 15, 45, 76
17, 66809, Note_on_c, 15, 45, 0
17, 66840, Note_on_c, 15, 47, 76
17, 66929, Note_on_c, 15, 47, 0
17, 66960, Note_on_c, 15, 48, 84
17, 67049, Note_on_c, 15, 48, 0
17, 67080, Note_on_c, 15, 36, 76
17, 67169, Note_on_c, 15, 36, 0
17, 67200, Note_on_c, 15, 40, 76
17, 67289, Note_on_c, 15, 40, 0
17, 67320, Note_on_c, 15, 43, 76
17, 67409, Note_on_c, 15, 43, 0
17, 67440, Note_on_c, 15, 48, 76
17, 67529, Note_on_c, 15, 48, 0
17, 67560, Note_on_c, 15, 52, 76
17, 67649, Note_on_c, 15, 52, 0
17, 67680, Note_on_c, 15, 31, 84
17, 67769, Note_on_c, 15, 31, 0
17, 67800, Note_on_c, 15, 38, 76
17, 67889, Note_on_c, 15, 38, 0
17, 67920, Note_on_c, 15, 43, 76
17, 68009, Note_on_c, 15, 43, 0
17, 68040, Note_on_c, 15, 43, 76
17, 68129, Note_on_c, 15, 43, 0
17, 68160, Note_on_c, 15, 45, 76
17, 68249, Note_on_c, 15, 45, 0
17, 68280, Note_on_c, 15, 47, 76
17, 68369, Note_on_c, 15, 47, 0
17, 68400, Note_on_c, 15, 48, 84
17, 68504, Note_on_c, 15, 48, 0
17, 68520, Note_on_c, 15, 55, 84
17, 68624, Note_on_c, 15, 55, 0
17, 68640, Note_on_c, 15, 52, 84
17, 68744, Note_on_c, 15, 52, 0
17, 68760, Note_on_c, 15, 48, 84
17, 68864, Note_on_c, 15, 48, 0
17, 68880, Note_on_c, 15, 43, 84
17, 68984, Note_on_c, 15, 43, 0
17, 69000, Note_on_c, 15, 52, 84
17, 69104, Note_on_c, 15, 52, 0
17, 69120, Note_on_c, 15, 48, 84
17, 69224, Note_on_c, 15, 48, 0
17, 69240, Note_on_c, 15, 43, 84
17, 69344, Note_on_c, 15, 43, 0
17, 69360, Note_on_c, 15, 40, 84
17, 69464, Note_on_c, 15, 40, 0
17, 69480, Note_on_c, 15, 48, 84
17, 69584, Note_on_c, 15, 48, 0
17, 69600, Note_on_c, 15, 43, 84
17, 69704, Note_on_c, 15, 43, 0
17, 69720, Note_on_c, 15, 40, 84
17, 69824, Note_on_c, 15, 40, 0
17, 69840, Note_on_c, 15, 36, 84
17, 69944, Note_on_c, 15, 36, 0
17, 69960, Note_on_c, 15, 43, 84
17, 70064, Note_on_c, 15, 43, 0
17, 70080, Note_on_c, 15, 40, 84
17, 70184, Note_on_c, 15, 40, 0
17, 70200, Note_on_c, 15, 36, 84
17, 70304, Note_on_c, 15, 36, 0
17, 70320, Note_on_c, 15, 31, 84
17, 70424, Note_on_c, 15, 31, 0
17, 70440, Note_on_c, 15, 52, 84
17, 70544, Note_on_c, 15, 52, 0
17, 70560, Note_on_c, 15, 48, 84
17, 70664, Note_on_c, 15, 48, 0
17, 70680, Note_on_c, 15, 43, 84
17, 70784, Note_on_c, 15, 43, 0
17, 70800, Note_on_c, 15, 40, 84
17, 70904, Note_on_c, 15, 40, 0
17, 70920, Note_on_c, 15, 48, 84
17, 71024, Note_on_c, 15, 48, 0
17, 71040, Note_on_c, 15, 43, 84
17, 71144, Note_on_c, 15, 43, 0
17, 71160, Note_on_c, 15, 40, 84
17, 71264, Note_on_c, 15, 40, 0
17, 71280, Note_on_c, 15, 36, 92
17, 71339, Note_on_c, 15, 36, 0
17, 71340, Note_on_c, 15, 36, 84
17, 71519, Note_on_c, 15, 36, 0
17, 71640, Note_on_c, 15, 48, 84
17, 71729, Note_on_c, 15, 48, 0
17, 71760, Note_on_c, 15, 36, 84
17, 71849, Note_on_c, 15, 36, 0
17, 71880, Note_on_c, 15, 48, 84
17, 71969, Note_on_c, 15, 48, 0
17, 72000, Note_on_c, 15, 36, 92
17, 72059, Note_on_c, 15, 36, 0
17, 72060, Note_on_c, 15, 36, 84
17, 72239, Note_on_c, 15, 36, 0
17, 72360, Note_on_c, 15, 48, 84
17, 72449, Note_on_c, 15, 48, 0
17, 72480, Note_on_c, 15, 36, 84
17, 72569, Note_on_c, 15, 36, 0
17, 72600, Note_on_c, 15, 48, 84
17, 72689, Note_on_c, 15, 48, 0
17, 72720, Note_on_c, 15, 36, 92
17, 72779, Note_on_c, 15, 36, 0
17, 72780, Note_on_c, 15, 36, 84
17, 72959, Note_on_c, 15, 36, 0
17, 73080, Note_on_c, 15, 48, 84
17, 73169, Note_on_c, 15, 48, 0
17, 73200, Note_on_c, 15, 36, 84
17, 73289, Note_on_c, 15, 36, 0
17, 73320, Note_on_c, 15, 48, 84
17, 73409, Note_on_c, 15, 48, 0
17, 73440, Note_on_c, 15, 36, 92
17, 73499, Note_on_c, 15, 36, 0
17, 73500, Note_on_c, 15, 36, 84
17, 73679, Note_on_c, 15, 36, 0
17, 73800, Note_on_c, 15, 48, 84
17, 73889, Note_on_c, 15, 48, 0
17, 73920, Note_on_c, 15, 36, 84
17, 74009, Note_on_c, 15, 36, 0
17, 74040, Note_on_c, 15, 48, 84
17, 74129, Note_on_c, 15, 48, 0
17, 74160, Note_on_c, 15, 29, 76
17, 74879, Note_on_c, 15, 29, 0
17, 74880, Note_on_c, 15, 29, 76
17, 75344, Note_on_c, 15, 29, 0
17, 75360, Note_on_c, 15, 29, 76
17, 75449, Note_on_c, 15, 29, 0
17, 75480, Note_on_c, 15, 29, 76
17, 75569, Note_on_c, 15, 29, 0
17, 75600, Note_on_c, 15, 31, 76
17, 75704, Note_on_c, 15, 31, 0
17, 75720, Note_on_c, 15, 31, 76
17, 75824, Note_on_c, 15, 31, 0
17, 75840, Note_on_c, 15, 31, 76
17, 75929, Note_on_c, 15, 31, 0
17, 75960, Note_on_c, 15, 41, 76
17, 76049, Note_on_c, 15, 41, 0
17, 76080, Note_on_c, 15, 40, 76
17, 76169, Note_on_c, 15, 40, 0
17, 76200, Note_on_c, 15, 38, 76
17, 76289, Note_on_c, 15, 38, 0
17, 76320, Note_on_c, 15, 36, 76
17, 76559, Note_on_c, 15, 36, 0
17, 79920, Note_on_c, 15, 36, 76
17, 80504, Note_on_c, 15, 36, 0
17, 80520, Note_on_c, 15, 38, 76
17, 80609, Note_on_c, 15, 38, 0
17, 80640, Note_on_c, 15, 39, 76
17, 80729, Note_on_c, 15, 39, 0
17, 80760, Note_on_c, 15, 40, 76
17, 80849, Note_on_c, 15, 40, 0
17, 80880, Note_on_c, 15, 41, 76
17, 80969, Note_on_c, 15, 41, 0
17, 81000, Note_on_c, 15, 43, 76
17, 81089, Note_on_c, 15, 43, 0
17, 81120, Note_on_c, 15, 45, 76
17, 81209, Note_on_c, 15, 45, 0
17, 81240, Note_on_c, 15, 46, 76
17, 81329, Note_on_c, 15, 46, 0
17, 81360, Note_on_c, 15, 48, 76
17, 81479, Note_on_c, 15, 48, 0
17, 81600, Note_on_c, 15, 36, 76
17, 81719, Note_on_c, 15, 36, 0
17, 81840, Note_on_c, 15, 36, 76
17, 81959, Note_on_c, 15, 36, 0
17, 82080, Note_on_c, 15, 41, 76
17, 82904, Note_on_c, 15, 41, 0
17, 82920, Note_on_c, 15, 41, 76
17, 83024, Note_on_c, 15, 41, 0
17, 83040, Note_on_c, 15, 41, 76
17, 83144, Note_on_c, 15, 41, 0
17, 83160, Note_on_c, 15, 41, 76
17, 83264, Note_on_c, 15, 41, 0
17, 83280, Note_on_c, 15, 41, 76
17, 83384, Note_on_c, 15, 41, 0
17, 83400, Note_on_c, 15, 41, 76
17, 83504, Note_on_c, 15, 41, 0
17, 83520, Note_on_c, 15, 38, 76
17, 84344, Note_on_c, 15, 38, 0
17, 84360, Note_on_c, 15, 38, 76
17, 84464, Note_on_c, 15, 38, 0
17, 84480, Note_on_c, 15, 38, 76
17, 84584, Note_on_c, 15, 38, 0
17, 84600, Note_on_c, 15, 38, 76
17, 84704, Note_on_c, 15, 38, 0
17, 84720, Note_on_c, 15, 38, 76
17, 84824, Note_on_c, 15, 38, 0
17, 84840, Note_on_c, 15, 38, 76
17, 84944, Note_on_c, 15, 38, 0
17, 84960, Note_on_c, 15, 34, 76
17, 85784, Note_on_c, 15, 34, 0
17, 85800, Note_on_c, 15, 34, 76
17, 85904, Note_on_c, 15, 34, 0
17, 85920, Note_on_c, 15, 34, 76
17, 86024, Note_on_c, 15, 34, 0
17, 86040, Note_on_c, 15, 34, 76
17, 86144, Note_on_c, 15, 34, 0
17, 86160, Note_on_c, 15, 34, 76
17, 86264, Note_on_c, 15, 34, 0
17, 86280, Note_on_c, 15, 34, 76
17, 86384, Note_on_c, 15, 34, 0
17, 86400, Note_on_c, 15, 36, 76
17, 86864, Note_on_c, 15, 36, 0
17, 86880, Note_on_c, 15, 36, 76
17, 86999, Note_on_c, 15, 36, 0
17, 87120, Note_on_c, 15, 36, 76
17, 87239, Note_on_c, 15, 36, 0
17, 87360, Note_on_c, 15, 36, 76
17, 87479, Note_on_c, 15, 36, 0
17, 87600, Note_on_c, 15, 36, 76
17, 87719, Note_on_c, 15, 36, 0
17, 87840, Note_on_c, 15, 41, 76
17, 88664, Note_on_c, 15, 41, 0
17, 88680, Note_on_c, 15, 41, 76
17, 88784, Note_on_c, 15, 41, 0
17, 88800, Note_on_c, 15, 41, 76
17, 88904, Note_on_c, 15, 41, 0
17, 88920, Note_on_c, 15, 41, 76
17, 89024, Note_on_c, 15, 41, 0
17, 89040, Note_on_c, 15, 41, 76
17, 89144, Note_on_c, 15, 41, 0
17, 89160, Note_on_c, 15, 41, 76
17, 89264, Note_on_c, 15, 41, 0
17, 89280, Note_on_c, 15, 38, 76
17, 90104, Note_on_c, 15, 38, 0
17, 90120, Note_on_c, 15, 38, 76
17, 90224, Note_on_c, 15, 38, 0
17, 90240, Note_on_c, 15, 38, 76
17, 90344, Note_on_c, 15, 38, 0
17, 90360, Note_on_c, 15, 38, 76
17, 90464, Note_on_c, 15, 38, 0
17, 90480, Note_on_c, 15, 38, 76
17, 90584, Note_on_c, 15, 38, 0
17, 90600, Note_on_c, 15, 38, 76
17, 90704, Note_on_c, 15, 38, 0
17, 90720, Note_on_c, 15, 29, 76
17, 91544, Note_on_c, 15, 29, 0
17, 91560, Note_on_c, 15, 29, 76
17, 91664, Note_on_c, 15, 29, 0
17, 91680, Note_on_c, 15, 29, 76
17, 91784, Note_on_c, 15, 29, 0
17, 91800, Note_on_c, 15, 29, 76
17, 91904, Note_on_c, 15, 29, 0
17, 91920, Note_on_c, 15, 29, 76
17, 92024, Note_on_c, 15, 29, 0
17, 92040, Note_on_c, 15, 29, 76
17, 92144, Note_on_c, 15, 29, 0
17, 92160, Note_on_c, 15, 29, 76
17, 92984, Note_on_c, 15, 29, 0
17, 93000, Note_on_c, 15, 29, 76
17, 93104, Note_on_c, 15, 29, 0
17, 93120, Note_on_c, 15, 29, 76
17, 93224, Note_on_c, 15, 29, 0
17, 93240, Note_on_c, 15, 29, 76
17, 93344, Note_on_c, 15, 29, 0
17, 93360, Note_on_c, 15, 29, 76
17, 93464, Note_on_c, 15, 29, 0
17, 93480, Note_on_c, 15, 29, 76
17, 93584, Note_on_c, 15, 29, 0
17, 93600, Note_on_c, 15, 29, 76
17, 94064, Note_on_c, 15, 29, 0
17, 94080, Note_on_c, 15, 29, 84
17, 94251, Note_on_c, 15, 29, 0
17, 94260, Note_on_c, 15, 29, 76
17, 94311, Note_on_c, 15, 29, 0
17, 94320, Note_on_c, 15, 29, 76
17, 94784, Note_on_c, 15, 29, 0
17, 94800, Note_on_c, 15, 29, 84
17, 94971, Note_on_c, 15, 29, 0
17, 94980, Note_on_c, 15, 29, 76
17, 95031, Note_on_c, 15, 29, 0
17, 95040, Note_on_c, 15, 29, 76
17, 95159, Note_on_c, 15, 29, 0
17, 95520, Note_on_c, 15, 29, 84
17, 95639, Note_on_c, 15, 29, 0
17, 95760, Note_on_c, 15, 29, 76
17, 95879, Note_on_c, 15, 29, 0
17, 96240, Note_on_c, 15, 29, 84
17, 96359, Note_on_c, 15, 29, 0
17, 96480, Note_on_c, 15, 29, 76
17, 96599, Note_on_c, 15, 29, 0
17, 100080, Program_c, 15, 45
17, 100560, Note_on_c, 15, 52, 44
17, 100799, Note_on_c, 15, 52, 0
17, 100800, Note_on_c, 15, 50, 44
17, 101039, Note_on_c, 15, 50, 0
17, 101520, Note_on_c, 15, 45, 44
17, 101759, Note_on_c, 15, 45, 0
17, 102240, Note_on_c, 15, 38, 44
17, 102479, Note_on_c, 15, 38, 0
17, 102960, Note_on_c, 15, 33, 44
17, 103199, Note_on_c, 15, 33, 0
17, 103440, Note_on_c, 15, 33, 44
17, 103679, Note_on_c, 15, 33, 0
17, 103680, Note_on_c, 15, 35, 44
17, 103919, Note_on_c, 15, 35, 0
17, 104160, Note_on_c, 15, 47, 44
17, 104399, Note_on_c, 15, 47, 0
17, 104400, Note_on_c, 15, 48, 44
17, 104639, Note_on_c, 15, 48, 0
17, 104880, Note_on_c, 15, 42, 44
17, 105119, Note_on_c, 15, 42, 0
17, 105120, Note_on_c, 15, 43, 44
17, 105359, Note_on_c, 15, 43, 0
17, 106560, Note_on_c, 15, 48, 44
17, 106799, Note_on_c, 15, 48, 0
17, 106800, Note_on_c, 15, 43, 44
17, 107039, Note_on_c, 15, 43, 0
17, 107040, Note_on_c, 15, 40, 44
17, 107279, Note_on_c, 15, 40, 0
17, 107280, Note_on_c, 15, 41, 44
17, 107519, Note_on_c, 15, 41, 0
17, 107520, Note_on_c, 15, 38, 44
17, 107759, Note_on_c, 15, 38, 0
17, 107760, Note_on_c, 15, 35, 44
17, 107999, Note_on_c, 15, 35, 0
17, 108000, Note_on_c, 15, 40, 44
17, 108239, Note_on_c, 15, 40, 0
17, 108240, Note_on_c, 15, 36, 44
17, 108479, Note_on_c, 15, 36, 0
17, 108480, Note_on_c, 15, 31, 44
17, 108719, Note_on_c, 15, 31, 0
17, 108720, Note_on_c, 15, 31, 44
17, 108959, Note_on_c, 15, 31, 0
17, 108960, Note_on_c, 15, 47, 44
17, 109199, Note_on_c, 15, 47, 0
17, 109200, Note_on_c, 15, 43, 44
17, 109439, Note_on_c, 15, 43, 0
17, 109440, Note_on_c, 15, 45, 44
17, 109679, Note_on_c, 15, 45, 0
17, 109680, Note_on_c, 15, 50, 44
17, 109919, Note_on_c, 15, 50, 0
17, 109920, Note_on_c, 15, 47, 44
17, 110159, Note_on_c, 15, 47, 0
17, 110160, Note_on_c, 15, 43, 44
17, 110399, Note_on_c, 15, 43, 0
17, 110400, Note_on_c, 15, 48, 44
17, 110639, Note_on_c, 15, 48, 0
17, 110640, Note_on_c, 15, 45, 44
17, 110864, Note_on_c, 15, 45, 0
17, 110878, Program_c, 15, 48
17, 110880, Note_on_c, 15, 30, 44
17, 110969, Note_on_c, 15, 30, 0
17, 111000, Note_on_c, 15, 33, 44
17, 111089, Note_on_c, 15, 33, 0
17, 111120, Note_on_c, 15, 36, 44
17, 111209, Note_on_c, 15, 36, 0
17, 111240, Note_on_c, 15, 39, 44
17, 111329, Note_on_c, 15, 39, 0
17, 111360, Note_on_c, 15, 42, 44
17, 111449, Note_on_c, 15, 42, 0
17, 111480, Note_on_c, 15, 45, 44
17, 111569, Note_on_c, 15, 45, 0
17, 111600, Note_on_c, 15, 48, 44
17, 111779, Note_on_c, 15, 48, 0
17, 113040, Note_on_c, 15, 36, 44
17, 113219, Note_on_c, 15, 36, 0
17, 113520, Note_on_c, 15, 33, 44
17, 113699, Note_on_c, 15, 33, 0
17, 113760, Note_on_c, 15, 30, 44
17, 113849, Note_on_c, 15, 30, 0
17, 113880, Note_on_c, 15, 33, 44
17, 113969, Note_on_c, 15, 33, 0
17, 114000, Note_on_c, 15, 36, 44
17, 114089, Note_on_c, 15, 36, 0
17, 114120, Note_on_c, 15, 39, 44
17, 114209, Note_on_c, 15, 39, 0
17, 114240, Note_on_c, 15, 42, 44
17, 114329, Note_on_c, 15, 42, 0
17, 114360, Note_on_c, 15, 45, 44
17, 114449, Note_on_c, 15, 45, 0
17, 114480, Note_on_c, 15, 48, 44
17, 114659, Note_on_c, 15, 48, 0
17, 115680, Control_c, 15, 11, 96
17, 115920, Note_on_c, 15, 48, 76
17, 115920, Control_c, 15, 11, 96
17, 115980, Control_c, 15, 11, 99
17, 116040, Control_c, 15, 11, 101
17, 116099, Note_on_c, 15, 48, 0
17, 116100, Control_c, 15, 11, 104
17, 116160, Control_c, 15, 11, 106
17, 116220, Control_c, 15, 11, 109
17, 116280, Control_c, 15, 11, 112
17, 116340, Control_c, 15, 11, 114
17, 116400, Control_c, 15, 11, 117
17, 116400, Note_on_c, 15, 45, 76
17, 116460, Control_c, 15, 11, 119
17, 116520, Control_c, 15, 11, 122
17, 116579, Note_on_c, 15, 45, 0
17, 116580, Control_c, 15, 11, 127
17, 116640, Note_on_c, 15, 44, 76
17, 116819, Note_on_c, 15, 44, 0
17, 117360, Note_on_c, 15, 50, 84
17, 117539, Note_on_c, 15, 50, 0
17, 117840, Note_on_c, 15, 47, 76
17, 118019, Note_on_c, 15, 47, 0
17, 118080, Note_on_c, 15, 43, 84
17, 118259, Note_on_c, 15, 43, 0
17, 118560, Note_on_c, 15, 46, 76
17, 118739, Note_on_c, 15, 46, 0
17, 118800, Note_on_c, 15, 41, 84
17, 118979, Note_on_c, 15, 41, 0
17, 119280, Note_on_c, 15, 44, 76
17, 119459, Note_on_c, 15, 44, 0
17, 119520, Note_on_c, 15, 39, 84
17, 119699, Note_on_c, 15, 39, 0
17, 120000, Note_on_c, 15, 48, 76
17, 120179, Note_on_c, 15, 48, 0
17, 120240, Note_on_c, 15, 38, 84
17, 120419, Note_on_c, 15, 38, 0
17, 120720, Note_on_c, 15, 47, 76
17, 120899, Note_on_c, 15, 47, 0
17, 120960, Note_on_c, 15, 38, 84
17, 121139, Note_on_c, 15, 38, 0
17, 121440, Note_on_c, 15, 41, 84
17, 121619, Note_on_c, 15, 41, 0
17, 121680, Note_on_c, 15, 40, 84
17, 121859, Note_on_c, 15, 40, 0
17, 122160, Note_on_c, 15, 45, 84
17, 122339, Note_on_c, 15, 45, 0
17, 122400, Note_on_c, 15, 41, 84
17, 122579, Note_on_c, 15, 41, 0
17, 122880, Note_on_c, 15, 38, 84
17, 123059, Note_on_c, 15, 38, 0
17, 123120, Note_on_c, 15, 43, 84
17, 123299, Note_on_c, 15, 43, 0
17, 123600, Note_on_c, 15, 31, 84
17, 123779, Note_on_c, 15, 31, 0
17, 123840, Note_on_c, 15, 36, 84
17, 124011, Note_on_c, 15, 36, 0
17, 124020, Note_on_c, 15, 36, 84
17, 124071, Note_on_c, 15, 36, 0
17, 124080, Note_on_c, 15, 29, 84
17, 124259, Note_on_c, 15, 29, 0
17, 124320, Note_on_c, 15, 29, 84
17, 124491, Note_on_c, 15, 29, 0
17, 124500, Note_on_c, 15, 29, 84
17, 124551, Note_on_c, 15, 29, 0
17, 124560, Note_on_c, 15, 36, 84
17, 124739, Note_on_c, 15, 36, 0
17, 124800, Note_on_c, 15, 29, 84
17, 124971, Note_on_c, 15, 29, 0
17, 124980, Note_on_c, 15, 29, 84
17, 125031, Note_on_c, 15, 29, 0
17, 125040, Note_on_c, 15, 36, 84
17, 125219, Note_on_c, 15, 36, 0
17, 125280, Note_on_c, 15, 29, 84
17, 125451, Note_on_c, 15, 29, 0
17, 125460, Note_on_c, 15, 29, 84
17, 125511, Note_on_c, 15, 29, 0
17, 125520, Note_on_c, 15, 36, 84
17, 125699, Note_on_c, 15, 36, 0
17, 131040, Note_on_c, 15, 36, 84
17, 131211, Note_on_c, 15, 36, 0
17, 131220, Note_on_c, 15, 36, 84
17, 131271, Note_on_c, 15, 36, 0
17, 131280, Note_on_c, 15, 29, 84
17, 131459, Note_on_c, 15, 29, 0
17, 131520, Note_on_c, 15, 29, 84
17, 131691, Note_on_c, 15, 29, 0
17, 131700, Note_on_c, 15, 29, 84
17, 131751, Note_on_c, 15, 29, 0
17, 131760, Note_on_c, 15, 36, 84
17, 131939, Note_on_c, 15, 36, 0
17, 132000, Note_on_c, 15, 29, 84
17, 132171, Note_on_c, 15, 29, 0
17, 132180, Note_on_c, 15, 29, 84
17, 132231, Note_on_c, 15, 29, 0
17, 132240, Note_on_c, 15, 36, 84
17, 132419, Note_on_c, 15, 36, 0
17, 132480, Note_on_c, 15, 29, 84
17, 132651, Note_on_c, 15, 29, 0
17, 132660, Note_on_c, 15, 29, 84
17, 132711, Note_on_c, 15, 29, 0
17, 132720, Note_on_c, 15, 36, 84
17, 132899, Note_on_c, 15, 36, 0
17, 138240, Note_on_c, 15, 48, 52
17, 138479, Note_on_c, 15, 48, 0
17, 138960, Note_on_c, 15, 43, 64
17, 139199, Note_on_c, 15, 43, 0
17, 139680, Note_on_c, 15, 36, 76
17, 139799, Note_on_c, 15, 36, 0
17, 139800, Note_on_c, 15, 35, 76
17, 139919, Note_on_c, 15, 35, 0
17, 139920, Note_on_c, 15, 36, 84
17, 140039, Note_on_c, 15, 36, 0
17, 140040, Note_on_c, 15, 35, 76
17, 140159, Note_on_c, 15, 35, 0
17, 140160, Note_on_c, 15, 33, 76
17, 140279, Note_on_c, 15, 33, 0
17, 140280, Note_on_c, 15, 31, 76
17, 140384, Note_on_c, 15, 31, 0
17, 140400, Note_on_c, 15, 31, 84
17, 140489, Note_on_c, 15, 31, 0
17, 140520, Note_on_c, 15, 38, 76
17, 140609, Note_on_c, 15, 38, 0
17, 140640, Note_on_c, 15, 43, 76
17, 140729, Note_on_c, 15, 43, 0
17, 140760, Note_on_c, 15, 43, 76
17, 140849, Note_on_c, 15, 43, 0
17, 140880, Note_on_c, 15, 45, 76
17, 140969, Note_on_c, 15, 45, 0
17, 141000, Note_on_c, 15, 47, 76
17, 141089, Note_on_c, 15, 47, 0
17, 141120, Note_on_c, 15, 48, 84
17, 141209, Note_on_c, 15, 48, 0
17, 141240, Note_on_c, 15, 36, 76
17, 141329, Note_on_c, 15, 36, 0
17, 141360, Note_on_c, 15, 40, 76
17, 141449, Note_on_c, 15, 40, 0
17, 141480, Note_on_c, 15, 43, 76
17, 141569, Note_on_c, 15, 43, 0
17, 141600, Note_on_c, 15, 48, 76
17, 141689, Note_on_c, 15, 48, 0
17, 141720, Note_on_c, 15, 52, 76
17, 141809, Note_on_c, 15, 52, 0
17, 141840, Note_on_c, 15, 31, 84
17, 141929, Note_on_c, 15, 31, 0
17, 141960, Note_on_c, 15, 38, 76
17, 142049, Note_on_c, 15, 38, 0
17, 142080, Note_on_c, 15, 43, 76
17, 142169, Note_on_c, 15, 43, 0
17, 142200, Note_on_c, 15, 43, 76
17, 142289, Note_on_c, 15, 43, 0
17, 142320, Note_on_c, 15, 45, 76
17, 142409, Note_on_c, 15, 45, 0
17, 142440, Note_on_c, 15, 47, 76
17, 142529, Note_on_c, 15, 47, 0
17, 142560, Note_on_c, 15, 48, 84
17, 142664, Note_on_c, 15, 48, 0
17, 142680, Note_on_c, 15, 55, 84
17, 142784, Note_on_c, 15, 55, 0
17, 142800, Note_on_c, 15, 52, 84
17, 142904, Note_on_c, 15, 52, 0
17, 142920, Note_on_c, 15, 48, 84
17, 143024, Note_on_c, 15, 48, 0
17, 143040, Note_on_c, 15, 43, 84
17, 143144, Note_on_c, 15, 43, 0
17, 143160, Note_on_c, 15, 52, 84
17, 143264, Note_on_c, 15, 52, 0
17, 143280, Note_on_c, 15, 48, 84
17, 143384, Note_on_c, 15, 48, 0
17, 143400, Note_on_c, 15, 43, 84
17, 143504, Note_on_c, 15, 43, 0
17, 143520, Note_on_c, 15, 40, 84
17, 143624, Note_on_c, 15, 40, 0
17, 143640, Note_on_c, 15, 48, 84
17, 143744, Note_on_c, 15, 48, 0
17, 143760, Note_on_c, 15, 43, 84
17, 143864, Note_on_c, 15, 43, 0
17, 143880, Note_on_c, 15, 40, 84
17, 143984, Note_on_c, 15, 40, 0
17, 144000, Note_on_c, 15, 36, 84
17, 144104, Note_on_c, 15, 36, 0
17, 144120, Note_on_c, 15, 43, 84
17, 144224, Note_on_c, 15, 43, 0
17, 144240, Note_on_c, 15, 40, 84
17, 144344, Note_on_c, 15, 40, 0
17, 144360, Note_on_c, 15, 36, 84
17, 144464, Note_on_c, 15, 36, 0
17, 144480, Note_on_c, 15, 31, 84
17, 144584, Note_on_c, 15, 31, 0
17, 144600, Note_on_c, 15, 52, 84
17, 144704, Note_on_c, 15, 52, 0
17, 144720, Note_on_c, 15, 48, 84
17, 144824, Note_on_c, 15, 48, 0
17, 144840, Note_on_c, 15, 43, 84
17, 144944, Note_on_c, 15, 43, 0
17, 144960, Note_on_c, 15, 40, 84
17, 145064, Note_on_c, 15, 40, 0
17, 145080, Note_on_c, 15, 48, 84
17, 145184, Note_on_c, 15, 48, 0
17, 145200, Note_on_c, 15, 43, 84
17, 145304, Note_on_c, 15, 43, 0
17, 145320, Note_on_c, 15, 40, 84
17, 145424, Note_on_c, 15, 40, 0
17, 145440, Note_on_c, 15, 36, 92
17, 145499, Note_on_c, 15, 36, 0
17, 145500, Note_on_c, 15, 36, 84
17, 145679, Note_on_c, 15, 36, 0
17, 145800, Note_on_c, 15, 48, 84
17, 145889, Note_on_c, 15, 48, 0
17, 145920, Note_on_c, 15, 36, 84
17, 146009, Note_on_c, 15, 36, 0
17, 146040, Note_on_c, 15, 48, 84
17, 146129, Note_on_c, 15, 48, 0
17, 146160, Note_on_c, 15, 36, 92
17, 146219, Note_on_c, 15, 36, 0
17, 146220, Note_on_c, 15, 36, 84
17, 146399, Note_on_c, 15, 36, 0
17, 146520, Note_on_c, 15, 48, 84
17, 146609, Note_on_c, 15, 48, 0
17, 146640, Note_on_c, 15, 36, 84
17, 146729, Note_on_c, 15, 36, 0
17, 146760, Note_on_c, 15, 48, 84
17, 146849, Note_on_c, 15, 48, 0
17, 146880, Note_on_c, 15, 36, 92
17, 146939, Note_on_c, 15, 36, 0
17, 146940, Note_on_c, 15, 36, 84
17, 147119, Note_on_c, 15, 36, 0
17, 147240, Note_on_c, 15, 48, 84
17, 147329, Note_on_c, 15, 48, 0
17, 147360, Note_on_c, 15, 36, 84
17, 147449, Note_on_c, 15, 36, 0
17, 147480, Note_on_c, 15, 48, 84
17, 147569, Note_on_c, 15, 48, 0
17, 147600, Note_on_c, 15, 36, 92
17, 147659, Note_on_c, 15, 36, 0
17, 147660, Note_on_c, 15, 36, 84
17, 147839, Note_on_c, 15, 36, 0
17, 147960, Note_on_c, 15, 48, 84
17, 148049, Note_on_c, 15, 48, 0
17, 148080, Note_on_c, 15, 36, 84
17, 148169, Note_on_c, 15, 36, 0
17, 148200, Note_on_c, 15, 48, 84
17, 148289, Note_on_c, 15, 48, 0
17, 148320, Note_on_c, 15, 36, 84
17, 148559, Note_on_c, 15, 36, 0
17, 154080, Note_on_c, 15, 48, 84
17, 154184, Note_on_c, 15, 48, 0
17, 154200, Note_on_c, 15, 55, 84
17, 154304, Note_on_c, 15, 55, 0
17, 154320, Note_on_c, 15, 52, 84
17, 154424, Note_on_c, 15, 52, 0
17, 154440, Note_on_c, 15, 48, 84
17, 154544, Note_on_c, 15, 48, 0
17, 154560, Note_on_c, 15, 43, 84
17, 154664, Note_on_c, 15, 43, 0
17, 154680, Note_on_c, 15, 52, 84
17, 154784, Note_on_c, 15, 52, 0
17, 154800, Note_on_c, 15, 48, 84
17, 154904, Note_on_c, 15, 48, 0
17, 154920, Note_on_c, 15, 43, 84
17, 155024, Note_on_c, 15, 43, 0
17, 155040, Note_on_c, 15, 40, 84
17, 155144, Note_on_c, 15, 40, 0
17, 155160, Note_on_c, 15, 48, 84
17, 155264, Note_on_c, 15, 48, 0
17, 155280, Note_on_c, 15, 43, 84
17, 155384, Note_on_c, 15, 43, 0
17, 155400, Note_on_c, 15, 40, 84
17, 155504, Note_on_c, 15, 40, 0
17, 155520, Note_on_c, 15, 36, 84
17, 155624, Note_on_c, 15, 36, 0
17, 155640, Note_on_c, 15, 43, 84
17, 155744, Note_on_c, 15, 43, 0
17, 155760, Note_on_c, 15, 40, 84
17, 155864, Note_on_c, 15, 40, 0
17, 155880, Note_on_c, 15, 36, 84
17, 155984, Note_on_c, 15, 36, 0
17, 156000, Note_on_c, 15, 31, 84
17, 156104, Note_on_c, 15, 31, 0
17, 156120, Note_on_c, 15, 40, 84
17, 156224, Note_on_c, 15, 40, 0
17, 156240, Note_on_c, 15, 36, 84
17, 156344, Note_on_c, 15, 36, 0
17, 156360, Note_on_c, 15, 43, 84
17, 156464, Note_on_c, 15, 43, 0
17, 156480, Note_on_c, 15, 40, 84
17, 156584, Note_on_c, 15, 40, 0
17, 156600, Note_on_c, 15, 48, 84
17, 156704, Note_on_c, 15, 48, 0
17, 156720, Note_on_c, 15, 43, 84
17, 156824, Note_on_c, 15, 43, 0
17, 156840, Note_on_c, 15, 40, 84
17, 156944, Note_on_c, 15, 40, 0
17, 156960, Note_on_c, 15, 36, 84
17, 157139, Note_on_c, 15, 36, 0
17, 162720, Note_on_c, 15, 46, 84
17, 162809, Note_on_c, 15, 46, 0
17, 162840, Note_on_c, 15, 53, 84
17, 162929, Note_on_c, 15, 53, 0
17, 162960, Note_on_c, 15, 50, 84
17, 163049, Note_on_c, 15, 50, 0
17, 163080, Note_on_c, 15, 46, 84
17, 163169, Note_on_c, 15, 46, 0
17, 163200, Note_on_c, 15, 41, 84
17, 163289, Note_on_c, 15, 41, 0
17, 163320, Note_on_c, 15, 50, 84
17, 163409, Note_on_c, 15, 50, 0
17, 163440, Note_on_c, 15, 46, 84
17, 163529, Note_on_c, 15, 46, 0
17, 163560, Note_on_c, 15, 41, 84
17, 163649, Note_on_c, 15, 41, 0
17, 163680, Note_on_c, 15, 38, 84
17, 163769, Note_on_c, 15, 38, 0
17, 163800, Note_on_c, 15, 46, 84
17, 163889, Note_on_c, 15, 46, 0
17, 163920, Note_on_c, 15, 41, 84
17, 164009, Note_on_c, 15, 41, 0
17, 164040, Note_on_c, 15, 38, 84
17, 164129, Note_on_c, 15, 38, 0
17, 164160, Note_on_c, 15, 34, 84
17, 164249, Note_on_c, 15, 34, 0
17, 164280, Note_on_c, 15, 41, 84
17, 164369, Note_on_c, 15, 41, 0
17, 164400, Note_on_c, 15, 38, 84
17, 164489, Note_on_c, 15, 38, 0
17, 164520, Note_on_c, 15, 34, 84
17, 164609, Note_on_c, 15, 34, 0
17, 164640, Note_on_c, 15, 29, 84
17, 164729, Note_on_c, 15, 29, 0
17, 164760, Note_on_c, 15, 50, 84
17, 164849, Note_on_c, 15, 50, 0
17, 164880, Note_on_c, 15, 46, 84
17, 164969, Note_on_c, 15, 46, 0
17, 165000, Note_on_c, 15, 41, 84
17, 165089, Note_on_c, 15, 41, 0
17, 165120, Note_on_c, 15, 38, 84
17, 165209, Note_on_c, 15, 38, 0
17, 165240, Note_on_c, 15, 46, 84
17, 165329, Note_on_c, 15, 46, 0
17, 165360, Note_on_c, 15, 41, 84
17, 165449, Note_on_c, 15, 41, 0
17, 165480, Note_on_c, 15, 38, 84
17, 165569, Note_on_c, 15, 38, 0
17, 165600, Note_on_c, 15, 34, 84
17, 165839, Note_on_c, 15, 34, 0
17, 168240, Control_c, 15, 11, 64
17, 168480, Note_on_c, 15, 33, 52
17, 168719, Note_on_c, 15, 33, 0
17, 168720, Control_c, 15, 11, 69
17, 168840, Note_on_c, 15, 45, 84
17, 168944, Note_on_c, 15, 45, 0
17, 168960, Note_on_c, 15, 33, 84
17, 168960, Control_c, 15, 11, 75
17, 169064, Note_on_c, 15, 33, 0
17, 169080, Note_on_c, 15, 45, 84
17, 169184, Note_on_c, 15, 45, 0
17, 169200, Control_c, 15, 11, 80
17, 169200, Note_on_c, 15, 33, 84
17, 169439, Note_on_c, 15, 33, 0
17, 169440, Control_c, 15, 11, 85
17, 169560, Note_on_c, 15, 45, 84
17, 169664, Note_on_c, 15, 45, 0
17, 169680, Note_on_c, 15, 33, 84
17, 169680, Control_c, 15, 11, 90
17, 169784, Note_on_c, 15, 33, 0
17, 169800, Note_on_c, 15, 45, 84
17, 169904, Note_on_c, 15, 45, 0
17, 169920, Note_on_c, 15, 33, 84
17, 169920, Control_c, 15, 11, 96
17, 170159, Note_on_c, 15, 33, 0
17, 170160, Control_c, 15, 11, 101
17, 170280, Note_on_c, 15, 45, 84
17, 170384, Note_on_c, 15, 45, 0
17, 170400, Note_on_c, 15, 33, 84
17, 170400, Control_c, 15, 11, 106
17, 170504, Note_on_c, 15, 33, 0
17, 170520, Note_on_c, 15, 45, 84
17, 170624, Note_on_c, 15, 45, 0
17, 170640, Control_c, 15, 11, 111
17, 170640, Note_on_c, 15, 33, 84
17, 170879, Note_on_c, 15, 33, 0
17, 170880, Control_c, 15, 11, 117
17, 171000, Note_on_c, 15, 45, 84
17, 171104, Note_on_c, 15, 45, 0
17, 171120, Control_c, 15, 11, 122
17, 171120, Note_on_c, 15, 33, 84
17, 171224, Note_on_c, 15, 33, 0
17, 171240, Note_on_c, 15, 45, 84
17, 171344, Note_on_c, 15, 45, 0
17, 171360, Note_on_c, 15, 45, 84
17, 171360, Control_c, 15, 11, 127
17, 171449, Note_on_c, 15, 45, 0
17, 171480, Note_on_c, 15, 52, 84
17, 171569, Note_on_c, 15, 52, 0
17, 171600, Note_on_c, 15, 49, 84
17, 171689, Note_on_c, 15, 49, 0
17, 171720, Note_on_c, 15, 45, 84
17, 171809, Note_on_c, 15, 45, 0
17, 171840, Note_on_c, 15, 40, 84
17, 171929, Note_on_c, 15, 40, 0
17, 171960, Note_on_c, 15, 49, 84
17, 172049, Note_on_c, 15, 49, 0
17, 172080, Note_on_c, 15, 45, 84
17, 172169, Note_on_c, 15, 45, 0
17, 172200, Note_on_c, 15, 40, 84
17, 172289, Note_on_c, 15, 40, 0
17, 172320, Note_on_c, 15, 37, 84
17, 172409, Note_on_c, 15, 37, 0
17, 172440, Note_on_c, 15, 45, 84
17, 172529, Note_on_c, 15, 45, 0
17, 172560, Note_on_c, 15, 40, 84
17, 172649, Note_on_c, 15, 40, 0
17, 172680, Note_on_c, 15, 37, 84
17, 172769, Note_on_c, 15, 37, 0
17, 172800, Note_on_c, 15, 33, 84
17, 172889, Note_on_c, 15, 33, 0
17, 172920, Note_on_c, 15, 49, 84
17, 173009, Note_on_c, 15, 49, 0
17, 173040, Note_on_c, 15, 45, 84
17, 173129, Note_on_c, 15, 45, 0
17, 173160, Note_on_c, 15, 40, 84
17, 173249, Note_on_c, 15, 40, 0
17, 173280, Note_on_c, 15, 37, 84
17, 173369, Note_on_c, 15, 37, 0
17, 173400, Note_on_c, 15, 45, 84
17, 173489, Note_on_c, 15, 45, 0
17, 173520, Note_on_c, 15, 40, 84
17, 173609, Note_on_c, 15, 40, 0
17, 173640, Note_on_c, 15, 37, 84
17, 173729, Note_on_c, 15, 37, 0
17, 173760, Note_on_c, 15, 33, 84
17, 173849, Note_on_c, 15, 33, 0
17, 173880, Note_on_c, 15, 45, 84
17, 173969, Note_on_c, 15, 45, 0
17, 174000, Note_on_c, 15, 40, 84
17, 174089, Note_on_c, 15, 40, 0
17, 174120, Note_on_c, 15, 37, 84
17, 174209, Note_on_c, 15, 37, 0
17, 174240, Note_on_c, 15, 33, 92
17, 174479, Note_on_c, 15, 33, 0
17, 174600, Note_on_c, 15, 45, 84
17, 174704, Note_on_c, 15, 45, 0
17, 174720, Note_on_c, 15, 33, 84
17, 174824, Note_on_c, 15, 33, 0
17, 174840, Note_on_c, 15, 45, 84
17, 174944, Note_on_c, 15, 45, 0
17, 174960, Note_on_c, 15, 33, 84
17, 175199, Note_on_c, 15, 33, 0
17, 175680, Note_on_c, 15, 33, 92
17, 175919, Note_on_c, 15, 33, 0
17, 176040, Note_on_c, 15, 45, 84
17, 176144, Note_on_c, 15, 45, 0
17, 176160, Note_on_c, 15, 33, 84
17, 176264, Note_on_c, 15, 33, 0
17, 176280, Note_on_c, 15, 45, 84
17, 176384, Note_on_c, 15, 45, 0
17, 176400, Note_on_c, 15, 33, 84
17, 176639, Note_on_c, 15, 33, 0
17, 176880, Note_on_c, 15, 45, 84
17, 177359, Note_on_c, 15, 45, 0
17, 177360, Note_on_c, 15, 41, 84
17, 177479, Note_on_c, 15, 41, 0
17, 177480, Note_on_c, 15, 43, 84
17, 177584, Note_on_c, 15, 43, 0
17, 177600, Note_on_c, 15, 45, 84
17, 177689, Note_on_c, 15, 45, 0
17, 177720, Note_on_c, 15, 41, 84
17, 177809, Note_on_c, 15, 41, 0
17, 177840, Note_on_c, 15, 38, 84
17, 178544, Note_on_c, 15, 38, 0
17, 178560, Note_on_c, 15, 46, 92
17, 178799, Note_on_c, 15, 46, 0
17, 178800, Note_on_c, 15, 43, 84
17, 178919, Note_on_c, 15, 43, 0
17, 178920, Note_on_c, 15, 45, 84
17, 179024, Note_on_c, 15, 45, 0
17, 179040, Note_on_c, 15, 46, 84
17, 179129, Note_on_c, 15, 46, 0
17, 179160, Note_on_c, 15, 43, 84
17, 179249, Note_on_c, 15, 43, 0
17, 179280, Note_on_c, 15, 38, 84
17, 179984, Note_on_c, 15, 38, 0
17, 180000, Note_on_c, 15, 49, 84
17, 180179, Note_on_c, 15, 49, 0
17, 180240, Note_on_c, 15, 43, 92
17, 180359, Note_on_c, 15, 43, 0
17, 180360, Note_on_c, 15, 45, 84
17, 180464, Note_on_c, 15, 45, 0
17, 180480, Note_on_c, 15, 46, 84
17, 180569, Note_on_c, 15, 46, 0
17, 180600, Note_on_c, 15, 43, 84
17, 180689, Note_on_c, 15, 43, 0
17, 180720, Note_on_c, 15, 45, 84
17, 180899, Note_on_c, 15, 45, 0
17, 180960, Note_on_c, 15, 40, 92
17, 181079, Note_on_c, 15, 40, 0
17, 181080, Note_on_c, 15, 41, 84
17, 181184, Note_on_c, 15, 41, 0
17, 181200, Note_on_c, 15, 43, 84
17, 181289, Note_on_c, 15, 43, 0
17, 181320, Note_on_c, 15, 40, 84
17, 181409, Note_on_c, 15, 40, 0
17, 181440, Note_on_c, 15, 41, 84
17, 181619, Note_on_c, 15, 41, 0
17, 181680, Note_on_c, 15, 37, 92
17, 181799, Note_on_c, 15, 37, 0
17, 181800, Note_on_c, 15, 38, 84
17, 181904, Note_on_c, 15, 38, 0
17, 181920, Note_on_c, 15, 40, 84
17, 182009, Note_on_c, 15, 40, 0
17, 182040, Note_on_c, 15, 37, 84
17, 182129, Note_on_c, 15, 37, 0
17, 182160, Note_on_c, 15, 38, 84
17, 182339, Note_on_c, 15, 38, 0
17, 182400, Note_on_c, 15, 33, 92
17, 182519, Note_on_c, 15, 33, 0
17, 182520, Note_on_c, 15, 34, 84
17, 182624, Note_on_c, 15, 34, 0
17, 182640, Note_on_c, 15, 36, 84
17, 182729, Note_on_c, 15, 36, 0
17, 182760, Note_on_c, 15, 33, 84
17, 182849, Note_on_c, 15, 33, 0
17, 182880, Note_on_c, 15, 31, 84
17, 182984, Note_on_c, 15, 31, 0
17, 183000, Note_on_c, 15, 50, 84
17, 183104, Note_on_c, 15, 50, 0
17, 183120, Note_on_c, 15, 50, 84
17, 183224, Note_on_c, 15, 50, 0
17, 183240, Note_on_c, 15, 50, 84
17, 183344, Note_on_c, 15, 50, 0
17, 183360, Note_on_c, 15, 50, 84
17, 183464, Note_on_c, 15, 50, 0
17, 183480, Note_on_c, 15, 50, 84
17, 183584, Note_on_c, 15, 50, 0
17, 183600, Note_on_c, 15, 50, 84
17, 183689, Note_on_c, 15, 50, 0
17, 183720, Note_on_c, 15, 47, 84
17, 183809, Note_on_c, 15, 47, 0
17, 183840, Note_on_c, 15, 43, 84
17, 183929, Note_on_c, 15, 43, 0
17, 183960, Note_on_c, 15, 38, 84
17, 184049, Note_on_c, 15, 38, 0
17, 184080, Note_on_c, 15, 35, 84
17, 184169, Note_on_c, 15, 35, 0
17, 184200, Note_on_c, 15, 31, 84
17, 184289, Note_on_c, 15, 31, 0
17, 184320, Note_on_c, 15, 31, 84
17, 184424, Note_on_c, 15, 31, 0
17, 184440, Note_on_c, 15, 51, 84
17, 184544, Note_on_c, 15, 51, 0
17, 184560, Note_on_c, 15, 51, 84
17, 184664, Note_on_c, 15, 51, 0
17, 184680, Note_on_c, 15, 51, 84
17, 184784, Note_on_c, 15, 51, 0
17, 184800, Note_on_c, 15, 51, 84
17, 184904, Note_on_c, 15, 51, 0
17, 184920, Note_on_c, 15, 51, 84
17, 185024, Note_on_c, 15, 51, 0
17, 185040, Note_on_c, 15, 51, 84
17, 185129, Note_on_c, 15, 51, 0
17, 185160, Note_on_c, 15, 48, 84
17, 185249, Note_on_c, 15, 48, 0
17, 185280, Note_on_c, 15, 43, 84
17, 185369, Note_on_c, 15, 43, 0
17, 185400, Note_on_c, 15, 39, 84
17, 185489, Note_on_c, 15, 39, 0
17, 185520, Note_on_c, 15, 36, 84
17, 185609, Note_on_c, 15, 36, 0
17, 185640, Note_on_c, 15, 31, 84
17, 185729, Note_on_c, 15, 31, 0
17, 185760, Note_on_c, 15, 31, 84
17, 185864, Note_on_c, 15, 31, 0
17, 185880, Note_on_c, 15, 47, 84
17, 185984, Note_on_c, 15, 47, 0
17, 186000, Note_on_c, 15, 53, 92
17, 186119, Note_on_c, 15, 53, 0
17, 186120, Note_on_c, 15, 51, 84
17, 186224, Note_on_c, 15, 51, 0
17, 186240, Note_on_c, 15, 50, 84
17, 186329, Note_on_c, 15, 50, 0
17, 186360, Note_on_c, 15, 53, 84
17, 186449, Note_on_c, 15, 53, 0
17, 186480, Note_on_c, 15, 43, 84
17, 186584, Note_on_c, 15, 43, 0
17, 186600, Note_on_c, 15, 51, 84
17, 186704, Note_on_c, 15, 51, 0
17, 186720, Note_on_c, 15, 50, 92
17, 186839, Note_on_c, 15, 50, 0
17, 186840, Note_on_c, 15, 48, 84
17, 186944, Note_on_c, 15, 48, 0
17, 186960, Note_on_c, 15, 47, 84
17, 187049, Note_on_c, 15, 47, 0
17, 187080, Note_on_c, 15, 50, 84
17, 187169, Note_on_c, 15, 50, 0
17, 187200, Note_on_c, 15, 40, 84
17, 187304, Note_on_c, 15, 40, 0
17, 187320, Note_on_c, 15, 48, 84
17, 187424, Note_on_c, 15, 48, 0
17, 187440, Note_on_c, 15, 46, 92
17, 187559, Note_on_c, 15, 46, 0
17, 187560, Note_on_c, 15, 44, 84
17, 187664, Note_on_c, 15, 44, 0
17, 187680, Note_on_c, 15, 43, 84
17, 187769, Note_on_c, 15, 43, 0
17, 187800, Note_on_c, 15, 46, 84
17, 187889, Note_on_c, 15, 46, 0
17, 187920, Note_on_c, 15, 36, 84
17, 188024, Note_on_c, 15, 36, 0
17, 188040, Note_on_c, 15, 44, 84
17, 188144, Note_on_c, 15, 44, 0
17, 188160, Note_on_c, 15, 43, 92
17, 188279, Note_on_c, 15, 43, 0
17, 188280, Note_on_c, 15, 41, 84
17, 188384, Note_on_c, 15, 41, 0
17, 188400, Note_on_c, 15, 40, 84
17, 188489, Note_on_c, 15, 40, 0
17, 188520, Note_on_c, 15, 43, 84
17, 188609, Note_on_c, 15, 43, 0
17, 188640, Note_on_c, 15, 29, 84
17, 189344, Note_on_c, 15, 29, 0
17, 189360, Note_on_c, 15, 36, 84
17, 189599, Note_on_c, 15, 36, 0
17, 189600, Note_on_c, 15, 32, 84
17, 189719, Note_on_c, 15, 32, 0
17, 189720, Note_on_c, 15, 34, 84
17, 189824, Note_on_c, 15, 34, 0
17, 189840, Note_on_c, 15, 36, 84
17, 189929, Note_on_c, 15, 36, 0
17, 189960, Note_on_c, 15, 32, 84
17, 190049, Note_on_c, 15, 32, 0
17, 190080, Note_on_c, 15, 29, 84
17, 190784, Note_on_c, 15, 29, 0
17, 190800, Note_on_c, 15, 37, 84
17, 191039, Note_on_c, 15, 37, 0
17, 191040, Note_on_c, 15, 34, 84
17, 191159, Note_on_c, 15, 34, 0
17, 191160, Note_on_c, 15, 36, 84
17, 191264, Note_on_c, 15, 36, 0
17, 191280, Note_on_c, 15, 37, 84
17, 191369, Note_on_c, 15, 37, 0
17, 191400, Note_on_c, 15, 34, 84
17, 191489, Note_on_c, 15, 34, 0
17, 191520, Note_on_c, 15, 29, 84
17, 191624, Note_on_c, 15, 29, 0
17, 191640, Note_on_c, 15, 41, 84
17, 191744, Note_on_c, 15, 41, 0
17, 191760, Note_on_c, 15, 41, 92
17, 191864, Note_on_c, 15, 41, 0
17, 191880, Note_on_c, 15, 41, 84
17, 191984, Note_on_c, 15, 41, 0
17, 192000, Note_on_c, 15, 41, 84
17, 192104, Note_on_c, 15, 41, 0
17, 192120, Note_on_c, 15, 41, 84
17, 192224, Note_on_c, 15, 41, 0
17, 192240, Note_on_c, 15, 40, 84
17, 192344, Note_on_c, 15, 40, 0
17, 192360, Note_on_c, 15, 36, 84
17, 192464, Note_on_c, 15, 36, 0
17, 192480, Note_on_c, 15, 36, 92
17, 192584, Note_on_c, 15, 36, 0
17, 192600, Note_on_c, 15, 36, 84
17, 192704, Note_on_c, 15, 36, 0
17, 192720, Note_on_c, 15, 36, 84
17, 192824, Note_on_c, 15, 36, 0
17, 192840, Note_on_c, 15, 36, 84
17, 192944, Note_on_c, 15, 36, 0
17, 192960, Note_on_c, 15, 41, 84
17, 193064, Note_on_c, 15, 41, 0
17, 193080, Note_on_c, 15, 36, 84
17, 193184, Note_on_c, 15, 36, 0
17, 193200, Note_on_c, 15, 36, 92
17, 193304, Note_on_c, 15, 36, 0
17, 193320, Note_on_c, 15, 36, 84
17, 193424, Note_on_c, 15, 36, 0
17, 193440, Note_on_c, 15, 36, 84
17, 193544, Note_on_c, 15, 36, 0
17, 193560, Note_on_c, 15, 36, 84
17, 193664, Note_on_c, 15, 36, 0
17, 193680, Note_on_c, 15, 37, 84
17, 193784, Note_on_c, 15, 37, 0
17, 193800, Note_on_c, 15, 32, 84
17, 193904, Note_on_c, 15, 32, 0
17, 193920, Note_on_c, 15, 32, 92
17, 194024, Note_on_c, 15, 32, 0
17, 194040, Note_on_c, 15, 32, 84
17, 194144, Note_on_c, 15, 32, 0
17, 194160, Note_on_c, 15, 32, 84
17, 194264, Note_on_c, 15, 32, 0
17, 194280, Note_on_c, 15, 32, 84
17, 194384, Note_on_c, 15, 32, 0
17, 194400, Note_on_c, 15, 37, 84
17, 194519, Note_on_c, 15, 37, 0
17, 194520, Note_on_c, 15, 39, 84
17, 194624, Note_on_c, 15, 39, 0
17, 194640, Note_on_c, 15, 41, 84
17, 194729, Note_on_c, 15, 41, 0
17, 194760, Note_on_c, 15, 37, 84
17, 194849, Note_on_c, 15, 37, 0
17, 194880, Note_on_c, 15, 32, 84
17, 195104, Note_on_c, 15, 32, 0
17, 195120, Note_on_c, 15, 37, 84
17, 195239, Note_on_c, 15, 37, 0
17, 195240, Note_on_c, 15, 39, 84
17, 195344, Note_on_c, 15, 39, 0
17, 195360, Note_on_c, 15, 41, 84
17, 195449, Note_on_c, 15, 41, 0
17, 195480, Note_on_c, 15, 37, 84
17, 195569, Note_on_c, 15, 37, 0
17, 195600, Note_on_c, 15, 32, 84
17, 195824, Note_on_c, 15, 32, 0
17, 195840, Note_on_c, 15, 37, 84
17, 195959, Note_on_c, 15, 37, 0
17, 195960, Note_on_c, 15, 39, 84
17, 196064, Note_on_c, 15, 39, 0
17, 196080, Note_on_c, 15, 41, 84
17, 196169, Note_on_c, 15, 41, 0
17, 196200, Note_on_c, 15, 37, 84
17, 196289, Note_on_c, 15, 37, 0
17, 196320, Note_on_c, 15, 32, 84
17, 196544, Note_on_c, 15, 32, 0
17, 196560, Note_on_c, 15, 37, 84
17, 196679, Note_on_c, 15, 37, 0
17, 196680, Note_on_c, 15, 39, 84
17, 196784, Note_on_c, 15, 39, 0
17, 196800, Note_on_c, 15, 41, 84
17, 196889, Note_on_c, 15, 41, 0
17, 196920, Note_on_c, 15, 37, 84
17, 197009, Note_on_c, 15, 37, 0
17, 197040, Note_on_c, 15, 32, 84
17, 197264, Note_on_c, 15, 32, 0
17, 197280, Note_on_c, 15, 34, 84
17, 197399, Note_on_c, 15, 34, 0
17, 197400, Note_on_c, 15, 36, 84
17, 197504, Note_on_c, 15, 36, 0
17, 197520, Note_on_c, 15, 37, 84
17, 197609, Note_on_c, 15, 37, 0
17, 197640, Note_on_c, 15, 34, 84
17, 197729, Note_on_c, 15, 34, 0
17, 197760, Note_on_c, 15, 29, 84
17, 197984, Note_on_c, 15, 29, 0
17, 198000, Note_on_c, 15, 34, 84
17, 198119, Note_on_c, 15, 34, 0
17, 198120, Note_on_c, 15, 36, 84
17, 198224, Note_on_c, 15, 36, 0
17, 198240, Note_on_c, 15, 37, 84
17, 198329, Note_on_c, 15, 37, 0
17, 198360, Note_on_c, 15, 34, 84
17, 198449, Note_on_c, 15, 34, 0
17, 198480, Note_on_c, 15, 29, 84
17, 198704, Note_on_c, 15, 29, 0
17, 198720, Note_on_c, 15, 34, 84
17, 198839, Note_on_c, 15, 34, 0
17, 198840, Note_on_c, 15, 36, 84
17, 198944, Note_on_c, 15, 36, 0
17, 198960, Note_on_c, 15, 37, 84
17, 199049, Note_on_c, 15, 37, 0
17, 199080, Note_on_c, 15, 34, 84
17, 199169, Note_on_c, 15, 34, 0
17, 199200, Note_on_c, 15, 29, 84
17, 199424, Note_on_c, 15, 29, 0
17, 199440, Note_on_c, 15, 34, 84
17, 199559, Note_on_c, 15, 34, 0
17, 199560, Note_on_c, 15, 36, 84
17, 199664, Note_on_c, 15, 36, 0
17, 199680, Note_on_c, 15, 37, 84
17, 199769, Note_on_c, 15, 37, 0
17, 199800, Note_on_c, 15, 34, 84
17, 199889, Note_on_c, 15, 34, 0
17, 199920, Note_on_c, 15, 29, 84
17, 200144, Note_on_c, 15, 29, 0
17, 200160, Note_on_c, 15, 41, 84
17, 200279, Note_on_c, 15, 41, 0
17, 200280, Note_on_c, 15, 43, 84
17, 200384, Note_on_c, 15, 43, 0
17, 200400, Note_on_c, 15, 44, 84
17, 200489, Note_on_c, 15, 44, 0
17, 200520, Note_on_c, 15, 41, 84
17, 200609, Note_on_c, 15, 41, 0
17, 200640, Note_on_c, 15, 36, 84
17, 200864, Note_on_c, 15, 36, 0
17, 200880, Note_on_c, 15, 41, 84
17, 200999, Note_on_c, 15, 41, 0
17, 201000, Note_on_c, 15, 43, 84
17, 201104, Note_on_c, 15, 43, 0
17, 201120, Note_on_c, 15, 44, 84
17, 201209, Note_on_c, 15, 44, 0
17, 201240, Note_on_c, 15, 41, 84
17, 201329, Note_on_c, 15, 41, 0
17, 201360, Note_on_c, 15, 36, 84
17, 201584, Note_on_c, 15, 36, 0
17, 201600, Note_on_c, 15, 41, 84
17, 201719, Note_on_c, 15, 41, 0
17, 201720, Note_on_c, 15, 43, 84
17, 201824, Note_on_c, 15, 43, 0
17, 201840, Note_on_c, 15, 44, 84
17, 201929, Note_on_c, 15, 44, 0
17, 201960, Note_on_c, 15, 41, 84
17, 202049, Note_on_c, 15, 41, 0
17, 202080, Note_on_c, 15, 36, 84
17, 202304, Note_on_c, 15, 36, 0
17, 202320, Note_on_c, 15, 41, 84
17, 202439, Note_on_c, 15, 41, 0
17, 202440, Note_on_c, 15, 43, 84
17, 202544, Note_on_c, 15, 43, 0
17, 202560, Note_on_c, 15, 44, 84
17, 202649, Note_on_c, 15, 44, 0
17, 202680, Note_on_c, 15, 41, 84
17, 202769, Note_on_c, 15, 41, 0
17, 202800, Note_on_c, 15, 36, 84
17, 203024, Note_on_c, 15, 36, 0
17, 203040, Note_on_c, 15, 41, 84
17, 203159, Note_on_c, 15, 41, 0
17, 203160, Note_on_c, 15, 43, 84
17, 203264, Note_on_c, 15, 43, 0
17, 203280, Note_on_c, 15, 44, 92
17, 203369, Note_on_c, 15, 44, 0
17, 203400, Note_on_c, 15, 41, 84
17, 203489, Note_on_c, 15, 41, 0
17, 203520, Note_on_c, 15, 36, 84
17, 203609, Note_on_c, 15, 36, 0
17, 203640, Note_on_c, 15, 44, 84
17, 203729, Note_on_c, 15, 44, 0
17, 203760, Note_on_c, 15, 41, 84
17, 203849, Note_on_c, 15, 41, 0
17, 203880, Note_on_c, 15, 43, 84
17, 203969, Note_on_c, 15, 43, 0
17, 204000, Note_on_c, 15, 44, 84
17, 204089, Note_on_c, 15, 44, 0
17, 204120, Note_on_c, 15, 41, 84
17, 204209, Note_on_c, 15, 41, 0
17, 204240, Note_on_c, 15, 36, 84
17, 204329, Note_on_c, 15, 36, 0
17, 204360, Note_on_c, 15, 44, 84
17, 204449, Note_on_c, 15, 44, 0
17, 204480, Note_on_c, 15, 41, 84
17, 204599, Note_on_c, 15, 41, 0
17, 204600, Note_on_c, 15, 43, 84
17, 204704, Note_on_c, 15, 43, 0
17, 204720, Note_on_c, 15, 44, 92
17, 204809, Note_on_c, 15, 44, 0
17, 204840, Note_on_c, 15, 41, 84
17, 204929, Note_on_c, 15, 41, 0
17, 204960, Note_on_c, 15, 36, 84
17, 205049, Note_on_c, 15, 36, 0
17, 205080, Note_on_c, 15, 44, 84
17, 205169, Note_on_c, 15, 44, 0
17, 205200, Note_on_c, 15, 41, 84
17, 205289, Note_on_c, 15, 41, 0
17, 205320, Note_on_c, 15, 43, 84
17, 205409, Note_on_c, 15, 43, 0
17, 205440, Note_on_c, 15, 44, 84
17, 205529, Note_on_c, 15, 44, 0
17, 205560, Note_on_c, 15, 41, 84
17, 205649, Note_on_c, 15, 41, 0
17, 205680, Note_on_c, 15, 36, 84
17, 205769, Note_on_c, 15, 36, 0
17, 205800, Note_on_c, 15, 44, 84
17, 205889, Note_on_c, 15, 44, 0
17, 205920, Note_on_c, 15, 36, 92
17, 206159, Note_on_c, 15, 36, 0
17, 206280, Note_on_c, 15, 48, 84
17, 206369, Note_on_c, 15, 48, 0
17, 206400, Note_on_c, 15, 36, 84
17, 206489, Note_on_c, 15, 36, 0
17, 206520, Note_on_c, 15, 48, 84
17, 206609, Note_on_c, 15, 48, 0
17, 206640, Note_on_c, 15, 36, 92
17, 206879, Note_on_c, 15, 36, 0
17, 207000, Note_on_c, 15, 48, 84
17, 207104, Note_on_c, 15, 48, 0
17, 207120, Note_on_c, 15, 36, 84
17, 207224, Note_on_c, 15, 36, 0
17, 207240, Note_on_c, 15, 48, 84
17, 207344, Note_on_c, 15, 48, 0
17, 207360, Note_on_c, 15, 36, 92
17, 207599, Note_on_c, 15, 36, 0
17, 207720, Note_on_c, 15, 48, 84
17, 207824, Note_on_c, 15, 48, 0
17, 207840, Note_on_c, 15, 36, 84
17, 207944, Note_on_c, 15, 36, 0
17, 207960, Note_on_c, 15, 48, 84
17, 208064, Note_on_c, 15, 48, 0
17, 208080, Note_on_c, 15, 36, 92
17, 208319, Note_on_c, 15, 36, 0
17, 208440, Note_on_c, 15, 48, 84
17, 208544, Note_on_c, 15, 48, 0
17, 208560, Note_on_c, 15, 36, 84
17, 208664, Note_on_c, 15, 36, 0
17, 208680, Note_on_c, 15, 48, 84
17, 208784, Note_on_c, 15, 48, 0
17, 208800, Note_on_c, 15, 36, 88
17, 208919, Note_on_c, 15, 36, 0
17, 208920, Note_on_c, 15, 38, 88
17, 209039, Note_on_c, 15, 38, 0
17, 209040, Note_on_c, 15, 40, 88
17, 209159, Note_on_c, 15, 40, 0
17, 209160, Note_on_c, 15, 41, 88
17, 209279, Note_on_c, 15, 41, 0
17, 209280, Note_on_c, 15, 43, 88
17, 209399, Note_on_c, 15, 43, 0
17, 209400, Note_on_c, 15, 45, 88
17, 209519, Note_on_c, 15, 45, 0
17, 209520, Note_on_c, 15, 46, 88
17, 209639, Note_on_c, 15, 46, 0
17, 209640, Note_on_c, 15, 47, 88
17, 209744, Note_on_c, 15, 47, 0
17, 209760, Note_on_c, 15, 48, 88
17, 209849, Note_on_c, 15, 48, 0
17, 209880, Note_on_c, 15, 48, 88
17, 209969, Note_on_c, 15, 48, 0
17, 210000, Note_on_c, 15, 48, 88
17, 210089, Note_on_c, 15, 48, 0
17, 210120, Note_on_c, 15, 48, 88
17, 210209, Note_on_c, 15, 48, 0
17, 210240, Note_on_c, 15, 48, 92
17, 210479, Note_on_c, 15, 48, 0
17, 210480, Note_on_c, 15, 45, 92
17, 210599, Note_on_c, 15, 45, 0
17, 210600, Note_on_c, 15, 46, 92
17, 210704, Note_on_c, 15, 46, 0
17, 210720, Note_on_c, 15, 48, 92
17, 210809, Note_on_c, 15, 48, 0
17, 210840, Note_on_c, 15, 45, 92
17, 210929, Note_on_c, 15, 45, 0
17, 210960, Note_on_c, 15, 41, 92
17, 211424, Note_on_c, 15, 41, 0
17, 211440, Note_on_c, 15, 36, 92
17, 211529, Note_on_c, 15, 36, 0
17, 211560, Note_on_c, 15, 41, 92
17, 211649, Note_on_c, 15, 41, 0
17, 211680, Note_on_c, 15, 41, 92
17, 211799, Note_on_c, 15, 41, 0
17, 211800, Note_on_c, 15, 40, 92
17, 211904, Note_on_c, 15, 40, 0
17, 211920, Note_on_c, 15, 40, 92
17, 212009, Note_on_c, 15, 40, 0
17, 212040, Note_on_c, 15, 41, 92
17, 212129, Note_on_c, 15, 41, 0
17, 212160, Note_on_c, 15, 43, 92
17, 212249, Note_on_c, 15, 43, 0
17, 212280, Note_on_c, 15, 45, 92
17, 212369, Note_on_c, 15, 45, 0
17, 212400, Note_on_c, 15, 46, 92
17, 212639, Note_on_c, 15, 46, 0
17, 213120, Note_on_c, 15, 46, 92
17, 213359, Note_on_c, 15, 46, 0
17, 213360, Note_on_c, 15, 43, 92
17, 213479, Note_on_c, 15, 43, 0
17, 213480, Note_on_c, 15, 45, 92
17, 213599, Note_on_c, 15, 45, 0
17, 213600, Note_on_c, 15, 46, 92
17, 213719, Note_on_c, 15, 46, 0
17, 213720, Note_on_c, 15, 47, 92
17, 213824, Note_on_c, 15, 47, 0
17, 213840, Note_on_c, 15, 48, 92
17, 214319, Note_on_c, 15, 48, 0
17, 214320, Note_on_c, 15, 46, 92
17, 214544, Note_on_c, 15, 46, 0
17, 214560, Note_on_c, 15, 45, 92
17, 214619, Note_on_c, 15, 45, 0
17, 214620, Note_on_c, 15, 48, 92
17, 214679, Note_on_c, 15, 48, 0
17, 214800, Note_on_c, 15, 41, 92
17, 214919, Note_on_c, 15, 41, 0
17, 215040, Note_on_c, 15, 45, 92
17, 215099, Note_on_c, 15, 45, 0
17, 215100, Note_on_c, 15, 43, 92
17, 215159, Note_on_c, 15, 43, 0
17, 215280, Note_on_c, 15, 41, 92
17, 215399, Note_on_c, 15, 41, 0
17, 218160, Note_on_c, 15, 46, 76
17, 218249, Note_on_c, 15, 46, 0
17, 218280, Note_on_c, 15, 45, 76
17, 218369, Note_on_c, 15, 45, 0
17, 218400, Note_on_c, 15, 43, 76
17, 218489, Note_on_c, 15, 43, 0
17, 218520, Note_on_c, 15, 41, 76
17, 218609, Note_on_c, 15, 41, 0
17, 218640, Note_on_c, 15, 40, 76
17, 218729, Note_on_c, 15, 40, 0
17, 218760, Note_on_c, 15, 38, 76
17, 218849, Note_on_c, 15, 38, 0
17, 218880, Note_on_c, 15, 36, 52
17, 218999, Note_on_c, 15, 36, 0
17, 221520, Control_c, 15, 11, 80
17, 221760, Note_on_c, 15, 34, 76
17, 221940, Control_c, 15, 11, 84
17, 221999, Note_on_c, 15, 34, 0
17, 222000, Note_on_c, 15, 31, 76
17, 222119, Note_on_c, 15, 31, 0
17, 222120, Note_on_c, 15, 33, 76
17, 222120, Control_c, 15, 11, 88
17, 222239, Note_on_c, 15, 33, 0
17, 222240, Note_on_c, 15, 34, 76
17, 222300, Control_c, 15, 11, 92
17, 222359, Note_on_c, 15, 34, 0
17, 222360, Note_on_c, 15, 35, 76
17, 222464, Note_on_c, 15, 35, 0
17, 222480, Note_on_c, 15, 36, 76
17, 222480, Control_c, 15, 11, 96
17, 222660, Control_c, 15, 11, 100
17, 222840, Control_c, 15, 11, 104
17, 222959, Note_on_c, 15, 36, 0
17, 222960, Note_on_c, 15, 34, 76
17, 223020, Control_c, 15, 11, 107
17, 223184, Note_on_c, 15, 34, 0
17, 223200, Note_on_c, 15, 33, 76
17, 223200, Control_c, 15, 11, 111
17, 223319, Note_on_c, 15, 33, 0
17, 223320, Note_on_c, 15, 36, 76
17, 223380, Control_c, 15, 11, 115
17, 223424, Note_on_c, 15, 36, 0
17, 223440, Note_on_c, 15, 29, 76
17, 223560, Control_c, 15, 11, 119
17, 223679, Note_on_c, 15, 29, 0
17, 223680, Note_on_c, 15, 33, 76
17, 223740, Control_c, 15, 11, 123
17, 223799, Note_on_c, 15, 33, 0
17, 223800, Note_on_c, 15, 31, 76
17, 223904, Note_on_c, 15, 31, 0
17, 223920, Control_c, 15, 11, 127
17, 223920, Note_on_c, 15, 29, 76
17, 224624, Note_on_c, 15, 29, 0
17, 224640, Note_on_c, 15, 33, 84
17, 224699, Note_on_c, 15, 33, 0
17, 224700, Note_on_c, 15, 33, 76
17, 225284, Note_on_c, 15, 33, 0
17, 225300, Note_on_c, 15, 29, 76
17, 225351, Note_on_c, 15, 29, 0
17, 225360, Note_on_c, 15, 29, 76
17, 226064, Note_on_c, 15, 29, 0
17, 226080, Note_on_c, 15, 34, 84
17, 226139, Note_on_c, 15, 34, 0
17, 226140, Note_on_c, 15, 34, 76
17, 226724, Note_on_c, 15, 34, 0
17, 226740, Note_on_c, 15, 29, 76
17, 226791, Note_on_c, 15, 29, 0
17, 226800, Note_on_c, 15, 29, 76
17, 227504, Note_on_c, 15, 29, 0
17, 227520, Note_on_c, 15, 38, 84
17, 227579, Note_on_c, 15, 38, 0
17, 227580, Note_on_c, 15, 38, 76
17, 228164, Note_on_c, 15, 38, 0
17, 228180, Note_on_c, 15, 29, 76
17, 228231, Note_on_c, 15, 29, 0
17, 228240, Note_on_c, 15, 28, 76
17, 228719, Note_on_c, 15, 28, 0
17, 228720, Note_on_c, 15, 36, 76
17, 228839, Note_on_c, 15, 36, 0
17, 228960, Note_on_c, 15, 36, 76
17, 229079, Note_on_c, 15, 36, 0
17, 229200, Note_on_c, 15, 46, 76
17, 229319, Note_on_c, 15, 46, 0
17, 229440, Note_on_c, 15, 43, 76
17, 229559, Note_on_c, 15, 43, 0
17, 229680, Note_on_c, 15, 41, 84
17, 230504, Note_on_c, 15, 41, 0
17, 230520, Note_on_c, 15, 41, 84
17, 230624, Note_on_c, 15, 41, 0
17, 230640, Note_on_c, 15, 41, 84
17, 230744, Note_on_c, 15, 41, 0
17, 230760, Note_on_c, 15, 41, 84
17, 230864, Note_on_c, 15, 41, 0
17, 230880, Note_on_c, 15, 41, 84
17, 230984, Note_on_c, 15, 41, 0
17, 231000, Note_on_c, 15, 41, 84
17, 231104, Note_on_c, 15, 41, 0
17, 231120, Note_on_c, 15, 38, 84
17, 231944, Note_on_c, 15, 38, 0
17, 231960, Note_on_c, 15, 38, 84
17, 232064, Note_on_c, 15, 38, 0
17, 232080, Note_on_c, 15, 38, 84
17, 232184, Note_on_c, 15, 38, 0
17, 232200, Note_on_c, 15, 38, 84
17, 232304, Note_on_c, 15, 38, 0
17, 232320, Note_on_c, 15, 38, 84
17, 232424, Note_on_c, 15, 38, 0
17, 232440, Note_on_c, 15, 38, 84
17, 232544, Note_on_c, 15, 38, 0
17, 232560, Note_on_c, 15, 29, 84
17, 233384, Note_on_c, 15, 29, 0
17, 233400, Note_on_c, 15, 29, 84
17, 233504, Note_on_c, 15, 29, 0
17, 233520, Note_on_c, 15, 29, 84
17, 233624, Note_on_c, 15, 29, 0
17, 233640, Note_on_c, 15, 29, 84
17, 233744, Note_on_c, 15, 29, 0
17, 233760, Note_on_c, 15, 29, 84
17, 233864, Note_on_c, 15, 29, 0
17, 233880, Note_on_c, 15, 29, 84
17, 233984, Note_on_c, 15, 29, 0
17, 234000, Note_on_c, 15, 29, 84
17, 234824, Note_on_c, 15, 29, 0
17, 234840, Note_on_c, 15, 29, 84
17, 234944, Note_on_c, 15, 29, 0
17, 234960, Note_on_c, 15, 29, 84
17, 235064, Note_on_c, 15, 29, 0
17, 235080, Note_on_c, 15, 29, 84
17, 235184, Note_on_c, 15, 29, 0
17, 235200, Note_on_c, 15, 29, 84
17, 235304, Note_on_c, 15, 29, 0
17, 235320, Note_on_c, 15, 29, 84
17, 235424, Note_on_c, 15, 29, 0
17, 235440, Note_on_c, 15, 29, 84
17, 235904, Note_on_c, 15, 29, 0
17, 235920, Note_on_c, 15, 29, 92
17, 236084, Note_on_c, 15, 29, 0
17, 236100, Note_on_c, 15, 29, 84
17, 236151, Note_on_c, 15, 29, 0
17, 236160, Note_on_c, 15, 29, 84
17, 236624, Note_on_c, 15, 29, 0
17, 236640, Note_on_c, 15, 29, 92
17, 236804, Note_on_c, 15, 29, 0
17, 236820, Note_on_c, 15, 29, 84
17, 236871, Note_on_c, 15, 29, 0
17, 236880, Note_on_c, 15, 29, 84
17, 236999, Note_on_c, 15, 29, 0
17, 237360, Note_on_c, 15, 29, 92
17, 237479, Note_on_c, 15, 29, 0
17, 237600, Note_on_c, 15, 29, 84
17, 237719, Note_on_c, 15, 29, 0
17, 238080, Note_on_c, 15, 29, 92
17, 238199, Note_on_c, 15, 29, 0
17, 238320, Note_on_c, 15, 29, 84
17, 238439, Note_on_c, 15, 29, 0
17, 242400, Program_c, 15, 45
17, 242640, Note_on_c, 15, 46, 44
17, 242879, Note_on_c, 15, 46, 0
17, 243360, Note_on_c, 15, 41, 44
17, 243599, Note_on_c, 15, 41, 0
17, 244080, Note_on_c, 15, 34, 44
17, 244319, Note_on_c, 15, 34, 0
17, 244800, Note_on_c, 15, 41, 44
17, 245039, Note_on_c, 15, 41, 0
17, 245280, Note_on_c, 15, 43, 44
17, 245519, Note_on_c, 15, 43, 0
17, 245520, Note_on_c, 15, 48, 44
17, 245759, Note_on_c, 15, 48, 0
17, 246000, Note_on_c, 15, 41, 44
17, 246239, Note_on_c, 15, 41, 0
17, 246240, Note_on_c, 15, 46, 44
17, 246479, Note_on_c, 15, 46, 0
17, 246480, Note_on_c, 15, 43, 44
17, 246719, Note_on_c, 15, 43, 0
17, 246720, Note_on_c, 15, 40, 44
17, 246959, Note_on_c, 15, 40, 0
17, 246960, Note_on_c, 15, 48, 44
17, 247199, Note_on_c, 15, 48, 0
17, 248160, Note_on_c, 15, 55, 44
17, 248399, Note_on_c, 15, 55, 0
17, 248400, Note_on_c, 15, 53, 44
17, 248639, Note_on_c, 15, 53, 0
17, 248640, Note_on_c, 15, 48, 44
17, 248879, Note_on_c, 15, 48, 0
17, 248880, Note_on_c, 15, 45, 44
17, 249119, Note_on_c, 15, 45, 0
17, 249120, Note_on_c, 15, 46, 44
17, 249359, Note_on_c, 15, 46, 0
17, 249360, Note_on_c, 15, 43, 44
17, 249599, Note_on_c, 15, 43, 0
17, 249600, Note_on_c, 15, 40, 44
17, 249839, Note_on_c, 15, 40, 0
17, 249840, Note_on_c, 15, 45, 44
17, 250079, Note_on_c, 15, 45, 0
17, 250080, Note_on_c, 15, 41, 44
17, 250319, Note_on_c, 15, 41, 0
17, 250320, Note_on_c, 15, 36, 44
17, 250559, Note_on_c, 15, 36, 0
17, 250560, Note_on_c, 15, 40, 44
17, 250799, Note_on_c, 15, 40, 0
17, 250800, Note_on_c, 15, 45, 44
17, 251039, Note_on_c, 15, 45, 0
17, 251040, Note_on_c, 15, 42, 44
17, 251279, Note_on_c, 15, 42, 0
17, 251280, Note_on_c, 15, 38, 44
17, 251519, Note_on_c, 15, 38, 0
17, 251520, Note_on_c, 15, 43, 44
17, 251759, Note_on_c, 15, 43, 0
17, 251760, Note_on_c, 15, 40, 44
17, 251999, Note_on_c, 15, 40, 0
17, 252000, Note_on_c, 15, 36, 44
17, 252239, Note_on_c, 15, 36, 0
17, 252240, Note_on_c, 15, 41, 44
17, 252479, Note_on_c, 15, 41, 0
17, 252480, Note_on_c, 15, 35, 44
17, 252704, Note_on_c, 15, 35, 0
17, 252718, Program_c, 15, 48
17, 252720, Note_on_c, 15, 35, 44
17, 252809, Note_on_c, 15, 35, 0
17, 252840, Note_on_c, 15, 38, 44
17, 252929, Note_on_c, 15, 38, 0
17, 252960, Note_on_c, 15, 41, 44
17, 253049, Note_on_c, 15, 41, 0
17, 253080, Note_on_c, 15, 44, 44
17, 253169, Note_on_c, 15, 44, 0
17, 253200, Note_on_c, 15, 47, 44
17, 253289, Note_on_c, 15, 47, 0
17, 253320, Note_on_c, 15, 50, 44
17, 253409, Note_on_c, 15, 50, 0
17, 253440, Note_on_c, 15, 53, 44
17, 253619, Note_on_c, 15, 53, 0
17, 254880, Note_on_c, 15, 41, 44
17, 255059, Note_on_c, 15, 41, 0
17, 255360, Note_on_c, 15, 38, 44
17, 255539, Note_on_c, 15, 38, 0
17, 255600, Note_on_c, 15, 35, 44
17, 255689, Note_on_c, 15, 35, 0
17, 255720, Note_on_c, 15, 38, 44
17, 255809, Note_on_c, 15, 38, 0
17, 255840, Note_on_c, 15, 41, 44
17, 255929, Note_on_c, 15, 41, 0
17, 255960, Note_on_c, 15, 44, 44
17, 256049, Note_on_c, 15, 44, 0
17, 256080, Note_on_c, 15, 47, 44
17, 256169, Note_on_c, 15, 47, 0
17, 256200, Note_on_c, 15, 50, 44
17, 256289, Note_on_c, 15, 50, 0
17, 256320, Note_on_c, 15, 53, 44
17, 256499, Note_on_c, 15, 53, 0
17, 257520, Control_c, 15, 11, 55
17, 257760, Control_c, 15, 11, 58
17, 257760, Note_on_c, 15, 41, 84
17, 257939, Note_on_c, 15, 41, 0
17, 258000, Control_c, 15, 11, 61
17, 258240, Note_on_c, 15, 38, 84
17, 258240, Control_c, 15, 11, 64
17, 258419, Note_on_c, 15, 38, 0
17, 258480, Control_c, 15, 11, 68
17, 258480, Note_on_c, 15, 37, 92
17, 258659, Note_on_c, 15, 37, 0
17, 258720, Control_c, 15, 11, 71
17, 258960, Control_c, 15, 11, 74
17, 259200, Control_c, 15, 11, 78
17, 259200, Note_on_c, 15, 49, 92
17, 259379, Note_on_c, 15, 49, 0
17, 259440, Control_c, 15, 11, 81
17, 259680, Control_c, 15, 11, 84
17, 259680, Note_on_c, 15, 46, 84
17, 259859, Note_on_c, 15, 46, 0
17, 259920, Control_c, 15, 11, 88
17, 259920, Note_on_c, 15, 45, 92
17, 260099, Note_on_c, 15, 45, 0
17, 260160, Control_c, 15, 11, 91
17, 260400, Control_c, 15, 11, 94
17, 260400, Note_on_c, 15, 48, 84
17, 260579, Note_on_c, 15, 48, 0
17, 260640, Control_c, 15, 11, 97
17, 260640, Note_on_c, 15, 43, 92
17, 260819, Note_on_c, 15, 43, 0
17, 260880, Control_c, 15, 11, 101
17, 261120, Control_c, 15, 11, 104
17, 261120, Note_on_c, 15, 46, 84
17, 261299, Note_on_c, 15, 46, 0
17, 261360, Control_c, 15, 11, 107
17, 261360, Note_on_c, 15, 41, 92
17, 261539, Note_on_c, 15, 41, 0
17, 261600, Control_c, 15, 11, 111
17, 261840, Note_on_c, 15, 44, 84
17, 261840, Control_c, 15, 11, 114
17, 262019, Note_on_c, 15, 44, 0
17, 262080, Control_c, 15, 11, 117
17, 262080, Note_on_c, 15, 40, 92
17, 262259, Note_on_c, 15, 40, 0
17, 262320, Control_c, 15, 11, 120
17, 262560, Control_c, 15, 11, 124
17, 262560, Note_on_c, 15, 43, 84
17, 262739, Note_on_c, 15, 43, 0
17, 262800, Control_c, 15, 11, 127
17, 262800, Control_c, 15, 11, 127
17, 262800, Note_on_c, 15, 34, 84
17, 262979, Note_on_c, 15, 34, 0
17, 263280, Note_on_c, 15, 36, 84
17, 263459, Note_on_c, 15, 36, 0
17, 263520, Note_on_c, 15, 33, 84
17, 263699, Note_on_c, 15, 33, 0
17, 264000, Note_on_c, 15, 38, 84
17, 264179, Note_on_c, 15, 38, 0
17, 264240, Note_on_c, 15, 34, 84
17, 264419, Note_on_c, 15, 34, 0
17, 264720, Note_on_c, 15, 43, 84
17, 264899, Note_on_c, 15, 43, 0
17, 264960, Note_on_c, 15, 48, 84
17, 265139, Note_on_c, 15, 48, 0
17, 265440, Note_on_c, 15, 36, 84
17, 265619, Note_on_c, 15, 36, 0
17, 265680, Note_on_c, 15, 41, 84
17, 265851, Note_on_c, 15, 41, 0
17, 265860, Note_on_c, 15, 41, 84
17, 265911, Note_on_c, 15, 41, 0
17, 265920, Note_on_c, 15, 34, 84
17, 266099, Note_on_c, 15, 34, 0
17, 266160, Note_on_c, 15, 34, 84
17, 266331, Note_on_c, 15, 34, 0
17, 266340, Note_on_c, 15, 34, 84
17, 266391, Note_on_c, 15, 34, 0
17, 266400, Note_on_c, 15, 41, 84
17, 266579, Note_on_c, 15, 41, 0
17, 266640, Note_on_c, 15, 34, 84
17, 266811, Note_on_c, 15, 34, 0
17, 266820, Note_on_c, 15, 34, 84
17, 266871, Note_on_c, 15, 34, 0
17, 266880, Note_on_c, 15, 41, 84
17, 267059, Note_on_c, 15, 41, 0
17, 267120, Note_on_c, 15, 34, 84
17, 267291, Note_on_c, 15, 34, 0
17, 267300, Note_on_c, 15, 34, 84
17, 267351, Note_on_c, 15, 34, 0
17, 267360, Note_on_c, 15, 41, 84
17, 267539, Note_on_c, 15, 41, 0
17, 272880, Note_on_c, 15, 41, 84
17, 273051, Note_on_c, 15, 41, 0
17, 273060, Note_on_c, 15, 41, 84
17, 273111, Note_on_c, 15, 41, 0
17, 273120, Note_on_c, 15, 34, 84
17, 273299, Note_on_c, 15, 34, 0
17, 273360, Note_on_c, 15, 34, 84
17, 273531, Note_on_c, 15, 34, 0
17, 273540, Note_on_c, 15, 34, 84
17, 273591, Note_on_c, 15, 34, 0
17, 273600, Note_on_c, 15, 41, 84
17, 273779, Note_on_c, 15, 41, 0
17, 273840, Note_on_c, 15, 34, 84
17, 274011, Note_on_c, 15, 34, 0
17, 274020, Note_on_c, 15, 34, 84
17, 274071, Note_on_c, 15, 34, 0
17, 274080, Note_on_c, 15, 41, 84
17, 274259, Note_on_c, 15, 41, 0
17, 274320, Note_on_c, 15, 34, 84
17, 274491, Note_on_c, 15, 34, 0
17, 274500, Note_on_c, 15, 34, 84
17, 274551, Note_on_c, 15, 34, 0
17, 274560, Note_on_c, 15, 41, 84
17, 274739, Note_on_c, 15, 41, 0
17, 279360, Control_c, 15, 11, 80
17, 280080, Control_c, 15, 11, 80
17, 280080, Note_on_c, 15, 41, 76
17, 280200, Control_c, 15, 11, 84
17, 280319, Note_on_c, 15, 41, 0
17, 280680, Control_c, 15, 11, 100
17, 280800, Control_c, 15, 11, 104
17, 280800, Note_on_c, 15, 36, 76
17, 281039, Note_on_c, 15, 36, 0
17, 281280, Control_c, 15, 11, 127
17, 281520, Note_on_c, 15, 41, 76
17, 281639, Note_on_c, 15, 41, 0
17, 281640, Note_on_c, 15, 40, 76
17, 281759, Note_on_c, 15, 40, 0
17, 281760, Note_on_c, 15, 41, 84
17, 281879, Note_on_c, 15, 41, 0
17, 281880, Note_on_c, 15, 40, 76
17, 281999, Note_on_c, 15, 40, 0
17, 282000, Note_on_c, 15, 38, 76
17, 282119, Note_on_c, 15, 38, 0
17, 282120, Note_on_c, 15, 36, 76
17, 282224, Note_on_c, 15, 36, 0
17, 282240, Note_on_c, 15, 36, 84
17, 282329, Note_on_c, 15, 36, 0
17, 282360, Note_on_c, 15, 43, 76
17, 282449, Note_on_c, 15, 43, 0
17, 282480, Note_on_c, 15, 48, 76
17, 282569, Note_on_c, 15, 48, 0
17, 282600, Note_on_c, 15, 36, 76
17, 282689, Note_on_c, 15, 36, 0
17, 282720, Note_on_c, 15, 38, 76
17, 282809, Note_on_c, 15, 38, 0
17, 282840, Note_on_c, 15, 40, 76
17, 282929, Note_on_c, 15, 40, 0
17, 282960, Note_on_c, 15, 41, 84
17, 283049, Note_on_c, 15, 41, 0
17, 283080, Note_on_c, 15, 29, 76
17, 283169, Note_on_c, 15, 29, 0
17, 283200, Note_on_c, 15, 33, 76
17, 283289, Note_on_c, 15, 33, 0
17, 283320, Note_on_c, 15, 36, 76
17, 283409, Note_on_c, 15, 36, 0
17, 283440, Note_on_c, 15, 41, 76
17, 283529, Note_on_c, 15, 41, 0
17, 283560, Note_on_c, 15, 45, 76
17, 283649, Note_on_c, 15, 45, 0
17, 283680, Note_on_c, 15, 36, 84
17, 283769, Note_on_c, 15, 36, 0
17, 283800, Note_on_c, 15, 43, 76
17, 283889, Note_on_c, 15, 43, 0
17, 283920, Note_on_c, 15, 48, 76
17, 284009, Note_on_c, 15, 48, 0
17, 284040, Note_on_c, 15, 48, 76
17, 284129, Note_on_c, 15, 48, 0
17, 284160, Note_on_c, 15, 50, 76
17, 284249, Note_on_c, 15, 50, 0
17, 284280, Note_on_c, 15, 52, 76
17, 284369, Note_on_c, 15, 52, 0
17, 284400, Note_on_c, 15, 53, 84
17, 284489, Note_on_c, 15, 53, 0
17, 284520, Note_on_c, 15, 48, 84
17, 284609, Note_on_c, 15, 48, 0
17, 284640, Note_on_c, 15, 45, 84
17, 284729, Note_on_c, 15, 45, 0
17, 284760, Note_on_c, 15, 53, 84
17, 284849, Note_on_c, 15, 53, 0
17, 284880, Note_on_c, 15, 48, 84
17, 284969, Note_on_c, 15, 48, 0
17, 285000, Note_on_c, 15, 45, 84
17, 285089, Note_on_c, 15, 45, 0
17, 285120, Note_on_c, 15, 41, 84
17, 285224, Note_on_c, 15, 41, 0
17, 285240, Note_on_c, 15, 48, 84
17, 285344, Note_on_c, 15, 48, 0
17, 285360, Note_on_c, 15, 45, 84
17, 285464, Note_on_c, 15, 45, 0
17, 285480, Note_on_c, 15, 41, 84
17, 285584, Note_on_c, 15, 41, 0
17, 285600, Note_on_c, 15, 36, 84
17, 285704, Note_on_c, 15, 36, 0
17, 285720, Note_on_c, 15, 45, 84
17, 285824, Note_on_c, 15, 45, 0
17, 285840, Note_on_c, 15, 41, 84
17, 285944, Note_on_c, 15, 41, 0
17, 285960, Note_on_c, 15, 36, 84
17, 286064, Note_on_c, 15, 36, 0
17, 286080, Note_on_c, 15, 33, 84
17, 286184, Note_on_c, 15, 33, 0
17, 286200, Note_on_c, 15, 41, 84
17, 286304, Note_on_c, 15, 41, 0
17, 286320, Note_on_c, 15, 36, 84
17, 286424, Note_on_c, 15, 36, 0
17, 286440, Note_on_c, 15, 33, 84
17, 286544, Note_on_c, 15, 33, 0
17, 286560, Note_on_c, 15, 29, 84
17, 286664, Note_on_c, 15, 29, 0
17, 286680, Note_on_c, 15, 41, 84
17, 286784, Note_on_c, 15, 41, 0
17, 286800, Note_on_c, 15, 36, 84
17, 286904, Note_on_c, 15, 36, 0
17, 286920, Note_on_c, 15, 33, 84
17, 287024, Note_on_c, 15, 33, 0
17, 287040, Note_on_c, 15, 29, 84
17, 287144, Note_on_c, 15, 29, 0
17, 287160, Note_on_c, 15, 41, 84
17, 287264, Note_on_c, 15, 41, 0
17, 287280, Note_on_c, 15, 29, 92
17, 287519, Note_on_c, 15, 29, 0
17, 287640, Note_on_c, 15, 41, 84
17, 287729, Note_on_c, 15, 41, 0
17, 287760, Note_on_c, 15, 29, 84
17, 287849, Note_on_c, 15, 29, 0
17, 287880, Note_on_c, 15, 41, 84
17, 287969, Note_on_c, 15, 41, 0
17, 288000, Note_on_c, 15, 29, 92
17, 288239, Note_on_c, 15, 29, 0
17, 288360, Note_on_c, 15, 41, 84
17, 288449, Note_on_c, 15, 41, 0
17, 288480, Note_on_c, 15, 29, 84
17, 288569, Note_on_c, 15, 29, 0
17, 288600, Note_on_c, 15, 41, 84
17, 288689, Note_on_c, 15, 41, 0
17, 288720, Note_on_c, 15, 29, 92
17, 288959, Note_on_c, 15, 29, 0
17, 289080, Note_on_c, 15, 41, 84
17, 289169, Note_on_c, 15, 41, 0
17, 289200, Note_on_c, 15, 29, 84
17, 289289, Note_on_c, 15, 29, 0
17, 289320, Note_on_c, 15, 41, 84
17, 289409, Note_on_c, 15, 41, 0
17, 289440, Note_on_c, 15, 29, 92
17, 289679, Note_on_c, 15, 29, 0
17, 289800, Note_on_c, 15, 41, 84
17, 289889, Note_on_c, 15, 41, 0
17, 289920, Note_on_c, 15, 29, 84
17, 290009, Note_on_c, 15, 29, 0
17, 290040, Note_on_c, 15, 41, 84
17, 290129, Note_on_c, 15, 41, 0
17, 290160, Note_on_c, 15, 29, 84
17, 290399, Note_on_c, 15, 29, 0
17, 294960, Program_c, 15, 45
17, 295200, Note_on_c, 15, 37, 44
17, 295439, Note_on_c, 15, 37, 0
17, 297120, Program_c, 15, 48
17, 297360, Note_on_c, 15, 37, 44
17, 297449, Note_on_c, 15, 37, 0
17, 297480, Note_on_c, 15, 39, 44
17, 297569, Note_on_c, 15, 39, 0
17, 297600, Note_on_c, 15, 41, 44
17, 297689, Note_on_c, 15, 41, 0
17, 297720, Note_on_c, 15, 42, 44
17, 297809, Note_on_c, 15, 42, 0
17, 297840, Note_on_c, 15, 44, 44
17, 298019, Note_on_c, 15, 44, 0
17, 298800, Note_on_c, 15, 34, 44
17, 298889, Note_on_c, 15, 34, 0
17, 298920, Note_on_c, 15, 36, 44
17, 299009, Note_on_c, 15, 36, 0
17, 299040, Note_on_c, 15, 38, 44
17, 299129, Note_on_c, 15, 38, 0
17, 299160, Note_on_c, 15, 39, 44
17, 299249, Note_on_c, 15, 39, 0
17, 299280, Note_on_c, 15, 41, 44
17, 299459, Note_on_c, 15, 41, 0
17, 300240, Note_on_c, 15, 39, 44
17, 300329, Note_on_c, 15, 39, 0
17, 300360, Note_on_c, 15, 41, 44
17, 300449, Note_on_c, 15, 41, 0
17, 300480, Note_on_c, 15, 42, 44
17, 300569, Note_on_c, 15, 42, 0
17, 300600, Note_on_c, 15, 44, 44
17, 300689, Note_on_c, 15, 44, 0
17, 300720, Note_on_c, 15, 46, 44
17, 300899, Note_on_c, 15, 46, 0
17, 301680, Note_on_c, 15, 36, 44
17, 301769, Note_on_c, 15, 36, 0
17, 301800, Note_on_c, 15, 38, 45
17, 301889, Note_on_c, 15, 38, 0
17, 301920, Note_on_c, 15, 40, 46
17, 302009, Note_on_c, 15, 40, 0
17, 302040, Note_on_c, 15, 41, 47
17, 302129, Note_on_c, 15, 41, 0
17, 302160, Note_on_c, 15, 43, 48
17, 302339, Note_on_c, 15, 43, 0
17, 303120, Note_on_c, 15, 36, 57
17, 303209, Note_on_c, 15, 36, 0
17, 303240, Note_on_c, 15, 40, 58
17, 303329, Note_on_c, 15, 40, 0
17, 303360, Note_on_c, 15, 41, 59
17, 303449, Note_on_c, 15, 41, 0
17, 303480, Note_on_c, 15, 43, 60
17, 303569, Note_on_c, 15, 43, 0
17, 303600, Note_on_c, 15, 44, 61
17, 303779, Note_on_c, 15, 44, 0
17, 304560, Note_on_c, 15, 36, 70
17, 304649, Note_on_c, 15, 36, 0
17, 304680, Note_on_c, 15, 40, 71
17, 304769, Note_on_c, 15, 40, 0
17, 304800, Note_on_c, 15, 41, 72
17, 304889, Note_on_c, 15, 41, 0
17, 304920, Note_on_c, 15, 43, 74
17, 305009, Note_on_c, 15, 43, 0
17, 305040, Note_on_c, 15, 45, 75
17, 305219, Note_on_c, 15, 45, 0
17, 306000, Note_on_c, 15, 29, 84
17, 306104, Note_on_c, 15, 29, 0
17, 306120, Note_on_c, 15, 41, 84
17, 306224, Note_on_c, 15, 41, 0
17, 306240, Note_on_c, 15, 29, 84
17, 306344, Note_on_c, 15, 29, 0
17, 306360, Note_on_c, 15, 29, 84
17, 306464, Note_on_c, 15, 29, 0
17, 306480, Note_on_c, 15, 29, 84
17, 306584, Note_on_c, 15, 29, 0
17, 306600, Note_on_c, 15, 29, 84
17, 306704, Note_on_c, 15, 29, 0
17, 306720, Note_on_c, 15, 29, 92
17, 306824, Note_on_c, 15, 29, 0
17, 306840, Note_on_c, 15, 41, 84
17, 306944, Note_on_c, 15, 41, 0
17, 306960, Note_on_c, 15, 29, 84
17, 307064, Note_on_c, 15, 29, 0
17, 307080, Note_on_c, 15, 29, 84
17, 307184, Note_on_c, 15, 29, 0
17, 307200, Note_on_c, 15, 29, 84
17, 307304, Note_on_c, 15, 29, 0
17, 307320, Note_on_c, 15, 29, 84
17, 307424, Note_on_c, 15, 29, 0
17, 307440, Note_on_c, 15, 29, 92
17, 307544, Note_on_c, 15, 29, 0
17, 307560, Note_on_c, 15, 41, 84
17, 307664, Note_on_c, 15, 41, 0
17, 307680, Note_on_c, 15, 29, 84
17, 307784, Note_on_c, 15, 29, 0
17, 307800, Note_on_c, 15, 29, 84
17, 307904, Note_on_c, 15, 29, 0
17, 307920, Note_on_c, 15, 29, 84
17, 308024, Note_on_c, 15, 29, 0
17, 308040, Note_on_c, 15, 29, 84
17, 308144, Note_on_c, 15, 29, 0
17, 308160, Note_on_c, 15, 29, 92
17, 308264, Note_on_c, 15, 29, 0
17, 308280, Note_on_c, 15, 41, 84
17, 308384, Note_on_c, 15, 41, 0
17, 308400, Note_on_c, 15, 29, 84
17, 308504, Note_on_c, 15, 29, 0
17, 308520, Note_on_c, 15, 29, 84
17, 308624, Note_on_c, 15, 29, 0
17, 308640, Note_on_c, 15, 29, 84
17, 308744, Note_on_c, 15, 29, 0
17, 308760, Note_on_c, 15, 29, 84
17, 308864, Note_on_c, 15, 29, 0
17, 308880, Note_on_c, 15, 29, 92
17, 308984, Note_on_c, 15, 29, 0
17, 309000, Note_on_c, 15, 41, 84
17, 309104, Note_on_c, 15, 41, 0
17, 309120, Note_on_c, 15, 29, 84
17, 309224, Note_on_c, 15, 29, 0
17, 309240, Note_on_c, 15, 29, 84
17, 309344, Note_on_c, 15, 29, 0
17, 309360, Note_on_c, 15, 29, 84
17, 309464, Note_on_c, 15, 29, 0
17, 309480, Note_on_c, 15, 29, 84
17, 309584, Note_on_c, 15, 29, 0
17, 309600, Note_on_c, 15, 29, 92
17, 309704, Note_on_c, 15, 29, 0
17, 309720, Note_on_c, 15, 41, 84
17, 309824, Note_on_c, 15, 41, 0
17, 309840, Note_on_c, 15, 29, 84
17, 309944, Note_on_c, 15, 29, 0
17, 309960, Note_on_c, 15, 29, 84
17, 310064, Note_on_c, 15, 29, 0
17, 310080, Note_on_c, 15, 29, 84
17, 310184, Note_on_c, 15, 29, 0
17, 310200, Note_on_c, 15, 29, 84
17, 310304, Note_on_c, 15, 29, 0
17, 310320, Note_on_c, 15, 29, 92
17, 310424, Note_on_c, 15, 29, 0
17, 310440, Note_on_c, 15, 29, 84
17, 310544, Note_on_c, 15, 29, 0
17, 310560, Note_on_c, 15, 33, 84
17, 310664, Note_on_c, 15, 33, 0
17, 310680, Note_on_c, 15, 33, 84
17, 310784, Note_on_c, 15, 33, 0
17, 310800, Note_on_c, 15, 36, 84
17, 310904, Note_on_c, 15, 36, 0
17, 310920, Note_on_c, 15, 36, 84
17, 311024, Note_on_c, 15, 36, 0
17, 311040, Note_on_c, 15, 29, 92
17, 311144, Note_on_c, 15, 29, 0
17, 311160, Note_on_c, 15, 29, 84
17, 311264, Note_on_c, 15, 29, 0
17, 311280, Note_on_c, 15, 33, 84
17, 311384, Note_on_c, 15, 33, 0
17, 311400, Note_on_c, 15, 33, 84
17, 311504, Note_on_c, 15, 33, 0
17, 311520, Note_on_c, 15, 36, 84
17, 311624, Note_on_c, 15, 36, 0
17, 311640, Note_on_c, 15, 36, 84
17, 311744, Note_on_c, 15, 36, 0
17, 311760, Note_on_c, 15, 29, 92
17, 311864, Note_on_c, 15, 29, 0
17, 311880, Note_on_c, 15, 29, 84
17, 311984, Note_on_c, 15, 29, 0
17, 312000, Note_on_c, 15, 33, 84
17, 312104, Note_on_c, 15, 33, 0
17, 312120, Note_on_c, 15, 33, 84
17, 312224, Note_on_c, 15, 33, 0
17, 312240, Note_on_c, 15, 36, 84
17, 312344, Note_on_c, 15, 36, 0
17, 312360, Note_on_c, 15, 36, 84
17, 312464, Note_on_c, 15, 36, 0
17, 312480, Note_on_c, 15, 36, 76
17, 313199, Note_on_c, 15, 36, 0
17, 318960, Note_on_c, 15, 41, 76
17, 319049, Note_on_c, 15, 41, 0
17, 319080, Note_on_c, 15, 41, 76
17, 319199, Note_on_c, 15, 41, 0
17, 319200, Note_on_c, 15, 38, 76
17, 319319, Note_on_c, 15, 38, 0
17, 319320, Note_on_c, 15, 40, 76
17, 319439, Note_on_c, 15, 40, 0
17, 319440, Note_on_c, 15, 41, 84
17, 319559, Note_on_c, 15, 41, 0
17, 319560, Note_on_c, 15, 36, 76
17, 319679, Note_on_c, 15, 36, 0
17, 319800, Note_on_c, 15, 41, 76
17, 319919, Note_on_c, 15, 41, 0
17, 319920, Note_on_c, 15, 38, 76
17, 320039, Note_on_c, 15, 38, 0
17, 320040, Note_on_c, 15, 40, 76
17, 320159, Note_on_c, 15, 40, 0
17, 320160, Note_on_c, 15, 41, 84
17, 320279, Note_on_c, 15, 41, 0
17, 320280, Note_on_c, 15, 36, 76
17, 320399, Note_on_c, 15, 36, 0
17, 320520, Note_on_c, 15, 41, 76
17, 320639, Note_on_c, 15, 41, 0
17, 320640, Note_on_c, 15, 38, 76
17, 320759, Note_on_c, 15, 38, 0
17, 320760, Note_on_c, 15, 40, 76
17, 320879, Note_on_c, 15, 40, 0
17, 320880, Note_on_c, 15, 41, 84
17, 320999, Note_on_c, 15, 41, 0
17, 321000, Note_on_c, 15, 36, 76
17, 321119, Note_on_c, 15, 36, 0
17, 321240, Note_on_c, 15, 41, 76
17, 321359, Note_on_c, 15, 41, 0
17, 321360, Note_on_c, 15, 38, 76
17, 321479, Note_on_c, 15, 38, 0
17, 321480, Note_on_c, 15, 40, 76
17, 321599, Note_on_c, 15, 40, 0
17, 321600, Note_on_c, 15, 41, 84
17, 321719, Note_on_c, 15, 41, 0
17, 321720, Note_on_c, 15, 36, 76
17, 321839, Note_on_c, 15, 36, 0
17, 321960, Note_on_c, 15, 38, 76
17, 322079, Note_on_c, 15, 38, 0
17, 322080, Note_on_c, 15, 36, 76
17, 322199, Note_on_c, 15, 36, 0
17, 322200, Note_on_c, 15, 38, 76
17, 322319, Note_on_c, 15, 38, 0
17, 322320, Note_on_c, 15, 39, 84
17, 322439, Note_on_c, 15, 39, 0
17, 322440, Note_on_c, 15, 33, 76
17, 322559, Note_on_c, 15, 33, 0
17, 322680, Note_on_c, 15, 46, 76
17, 322799, Note_on_c, 15, 46, 0
17, 322800, Note_on_c, 15, 45, 76
17, 322919, Note_on_c, 15, 45, 0
17, 322920, Note_on_c, 15, 46, 76
17, 323039, Note_on_c, 15, 46, 0
17, 323040, Note_on_c, 15, 48, 84
17, 323159, Note_on_c, 15, 48, 0
17, 323160, Note_on_c, 15, 43, 76
17, 323279, Note_on_c, 15, 43, 0
17, 323400, Note_on_c, 15, 45, 76
17, 323519, Note_on_c, 15, 45, 0
17, 323520, Note_on_c, 15, 43, 76
17, 323639, Note_on_c, 15, 43, 0
17, 323640, Note_on_c, 15, 45, 76
17, 323759, Note_on_c, 15, 45, 0
17, 323760, Note_on_c, 15, 46, 84
17, 323879, Note_on_c, 15, 46, 0
17, 323880, Note_on_c, 15, 40, 76
17, 323999, Note_on_c, 15, 40, 0
17, 324120, Note_on_c, 15, 41, 76
17, 324239, Note_on_c, 15, 41, 0
17, 324240, Note_on_c, 15, 40, 76
17, 324359, Note_on_c, 15, 40, 0
17, 324360, Note_on_c, 15, 41, 76
17, 324464, Note_on_c, 15, 41, 0
17, 324480, Note_on_c, 15, 38, 84
17, 324569, Note_on_c, 15, 38, 0
17, 324600, Note_on_c, 15, 38, 76
17, 324689, Note_on_c, 15, 38, 0
17, 324720, Note_on_c, 15, 37, 92
17, 324824, Note_on_c, 15, 37, 0
17, 324840, Note_on_c, 15, 37, 92
17, 324944, Note_on_c, 15, 37, 0
17, 324960, Note_on_c, 15, 37, 92
17, 325064, Note_on_c, 15, 37, 0
17, 325080, Note_on_c, 15, 37, 92
17, 325184, Note_on_c, 15, 37, 0
17, 325200, Note_on_c, 15, 37, 92
17, 325304, Note_on_c, 15, 37, 0
17, 325320, Note_on_c, 15, 37, 92
17, 325424, Note_on_c, 15, 37, 0
17, 325440, Note_on_c, 15, 37, 92
17, 325544, Note_on_c, 15, 37, 0
17, 325560, Note_on_c, 15, 37, 92
17, 325664, Note_on_c, 15, 37, 0
17, 325680, Note_on_c, 15, 37, 92
17, 325784, Note_on_c, 15, 37, 0
17, 325800, Note_on_c, 15, 37, 92
17, 325904, Note_on_c, 15, 37, 0
17, 325920, Note_on_c, 15, 36, 92
17, 326024, Note_on_c, 15, 36, 0
17, 326040, Note_on_c, 15, 36, 92
17, 326144, Note_on_c, 15, 36, 0
17, 326160, Note_on_c, 15, 29, 92
17, 326279, Note_on_c, 15, 29, 0
17, 326880, Note_on_c, 15, 29, 92
17, 326999, Note_on_c, 15, 29, 0
17, 327600, Note_on_c, 15, 29, 92
17, 327719, Note_on_c, 15, 29, 0
17, 327840, Note_on_c, 15, 45, 92
17, 327959, Note_on_c, 15, 45, 0
17, 327960, Note_on_c, 15, 43, 92
17, 328064, Note_on_c, 15, 43, 0
17, 328080, Note_on_c, 15, 41, 92
17, 328169, Note_on_c, 15, 41, 0
17, 328200, Note_on_c, 15, 45, 92
17, 328289, Note_on_c, 15, 45, 0
17, 328320, Note_on_c, 15, 36, 92
17, 328439, Note_on_c, 15, 36, 0
17, 328560, Note_on_c, 15, 36, 92
17, 328679, Note_on_c, 15, 36, 0
17, 328800, Note_on_c, 15, 36, 92
17, 328919, Note_on_c, 15, 36, 0
17, 329040, Note_on_c, 15, 29, 92
17, 329159, Note_on_c, 15, 29, 0
17, 329760, Note_on_c, 15, 29, 92
17, 329879, Note_on_c, 15, 29, 0
17, 330480, Note_on_c, 15, 29, 92
17, 330599, Note_on_c, 15, 29, 0
17, 330720, Note_on_c, 15, 45, 92
17, 330839, Note_on_c, 15, 45, 0
17, 330840, Note_on_c, 15, 43, 92
17, 330944, Note_on_c, 15, 43, 0
17, 330960, Note_on_c, 15, 41, 92
17, 331049, Note_on_c, 15, 41, 0
17, 331080, Note_on_c, 15, 45, 92
17, 331169, Note_on_c, 15, 45, 0
17, 331200, Note_on_c, 15, 36, 92
17, 331319, Note_on_c, 15, 36, 0
17, 331440, Note_on_c, 15, 36, 92
17, 331559, Note_on_c, 15, 36, 0
17, 331680, Note_on_c, 15, 36, 92
17, 331799, Note_on_c, 15, 36, 0
17, 332640, Note_on_c, 15, 41, 92
17, 332759, Note_on_c, 15, 41, 0
17, 332880, Note_on_c, 15, 41, 92
17, 332999, Note_on_c, 15, 41, 0
17, 333120, Note_on_c, 15, 41, 92
17, 333239, Note_on_c, 15, 41, 0
17, 333840, Program_c, 15, 45
17, 334080, Note_on_c, 15, 36, 44
17, 334319, Note_on_c, 15, 36, 0
17, 334320, Note_on_c, 15, 36, 44
17, 334559, Note_on_c, 15, 36, 0
17, 334560, Note_on_c, 15, 36, 44
17, 334799, Note_on_c, 15, 36, 0
17, 335520, Note_on_c, 15, 29, 44
17, 335759, Note_on_c, 15, 29, 0
17, 335760, Note_on_c, 15, 29, 44
17, 335999, Note_on_c, 15, 29, 0
17, 336000, Note_on_c, 15, 29, 44
17, 336239, Note_on_c, 15, 29, 0
17, 336960, Control_c, 15, 11, 127
17, 336960, Note_on_c, 15, 29, 44
17, 337140, Control_c, 15, 11, 126
17, 337199, Note_on_c, 15, 29, 0
17, 337200, Note_on_c, 15, 29, 44
17, 337320, Control_c, 15, 11, 125
17, 337439, Note_on_c, 15, 29, 0
17, 337500, Control_c, 15, 11, 123
17, 337680, Control_c, 15, 11, 122
17, 337860, Control_c, 15, 11, 121
17, 338040, Control_c, 15, 11, 120
17, 338220, Control_c, 15, 11, 118
17, 338400, Control_c, 15, 11, 117
17, 338400, Note_on_c, 15, 29, 44
17, 338580, Control_c, 15, 11, 116
17, 338639, Note_on_c, 15, 29, 0
17, 338640, Note_on_c, 15, 29, 44
17, 338760, Control_c, 15, 11, 115
17, 338879, Note_on_c, 15, 29, 0
17, 338940, Control_c, 15, 11, 113
17, 341040, Control_c, 15, 11, 127
17, 341040, Program_c, 15, 48
17, 341280, Note_on_c, 15, 36, 44
17, 341519, Note_on_c, 15, 36, 0
17, 341520, Note_on_c, 15, 33, 44
17, 341639, Note_on_c, 15, 33, 0
17, 341640, Note_on_c, 15, 34, 44
17, 341744, Note_on_c, 15, 34, 0
17, 341760, Note_on_c, 15, 36, 44
17, 341849, Note_on_c, 15, 36, 0
17, 341880, Note_on_c, 15, 33, 44
17, 341969, Note_on_c, 15, 33, 0
17, 342000, Note_on_c, 15, 29, 44
17, 342239, Note_on_c, 15, 29, 0
17, 342239, End_track
18, 0, Start_track
18, 0, MIDI_port, 0
18, 0, End_track
19, 0, Start_track
19, 0, Title_t, "Ludwig van Beethoven - Symphony No. 8 in F Major, Op.93 - 1. Allegro vivace con brio"
19, 0, MIDI_port, 0
19, 0, End_track
0, 0, End_of_file
